{"metadata": {"schema_version": "0.2", "title": "None", "source_filename": "469.mid", "source_format": "midi"}, "resolution": 12, "tempos": [{"time": 0, "qpm": 64.99999458333379}], "time_signatures": [{"time": 0, "numerator": 1, "denominator": 4}], "tracks": [{"program": 0, "is_drum": false, "name": "MELODY", "notes": [{"time": 422, "pitch": 66, "duration": 1, "velocity": 100}, {"time": 425, "pitch": 66, "duration": 1, "velocity": 96}, {"time": 428, "pitch": 71, "duration": 1, "velocity": 102}, {"time": 431, "pitch": 71, "duration": 2, "velocity": 96}, {"time": 437, "pitch": 71, "duration": 1, "velocity": 93}, {"time": 440, "pitch": 71, "duration": 2, "velocity": 100}, {"time": 446, "pitch": 71, "duration": 1, "velocity": 107}, {"time": 449, "pitch": 69, "duration": 1, "velocity": 83}, {"time": 452, "pitch": 71, "duration": 2, "velocity": 97}, {"time": 455, "pitch": 74, "duration": 3, "velocity": 122}, {"time": 473, "pitch": 66, "duration": 2, "velocity": 89}, {"time": 476, "pitch": 69, "duration": 4, "velocity": 95}, {"time": 482, "pitch": 66, "duration": 15, "velocity": 99}, {"time": 518, "pitch": 66, "duration": 1, "velocity": 112}, {"time": 521, "pitch": 66, "duration": 1, "velocity": 102}, {"time": 524, "pitch": 71, "duration": 1, "velocity": 102}, {"time": 527, "pitch": 71, "duration": 1, "velocity": 85}, {"time": 530, "pitch": 71, "duration": 1, "velocity": 97}, {"time": 533, "pitch": 71, "duration": 1, "velocity": 107}, {"time": 536, "pitch": 71, "duration": 1, "velocity": 100}, {"time": 539, "pitch": 71, "duration": 1, "velocity": 102}, {"time": 542, "pitch": 71, "duration": 1, "velocity": 117}, {"time": 545, "pitch": 69, "duration": 1, "velocity": 93}, {"time": 548, "pitch": 71, "duration": 2, "velocity": 127}, {"time": 551, "pitch": 69, "duration": 5, "velocity": 97}, {"time": 569, "pitch": 66, "duration": 1, "velocity": 95}, {"time": 572, "pitch": 69, "duration": 3, "velocity": 97}, {"time": 575, "pitch": 64, "duration": 22, "velocity": 89}, {"time": 614, "pitch": 66, "duration": 1, "velocity": 102}, {"time": 617, "pitch": 66, "duration": 1, "velocity": 89}, {"time": 620, "pitch": 69, "duration": 1, "velocity": 99}, {"time": 623, "pitch": 69, "duration": 1, "velocity": 81}, {"time": 626, "pitch": 69, "duration": 1, "velocity": 99}, {"time": 629, "pitch": 69, "duration": 1, "velocity": 92}, {"time": 632, "pitch": 69, "duration": 3, "velocity": 117}, {"time": 638, "pitch": 66, "duration": 1, "velocity": 117}, {"time": 641, "pitch": 64, "duration": 2, "velocity": 88}, {"time": 647, "pitch": 66, "duration": 12, "velocity": 100}, {"time": 659, "pitch": 69, "duration": 1, "velocity": 92}, {"time": 662, "pitch": 69, "duration": 1, "velocity": 93}, {"time": 665, "pitch": 69, "duration": 1, "velocity": 92}, {"time": 668, "pitch": 71, "duration": 2, "velocity": 112}, {"time": 680, "pitch": 71, "duration": 4, "velocity": 93}, {"time": 686, "pitch": 69, "duration": 2, "velocity": 97}, {"time": 689, "pitch": 66, "duration": 15, "velocity": 95}, {"time": 710, "pitch": 66, "duration": 1, "velocity": 99}, {"time": 713, "pitch": 66, "duration": 1, "velocity": 93}, {"time": 716, "pitch": 69, "duration": 1, "velocity": 96}, {"time": 719, "pitch": 69, "duration": 1, "velocity": 89}, {"time": 722, "pitch": 69, "duration": 1, "velocity": 88}, {"time": 725, "pitch": 69, "duration": 1, "velocity": 88}, {"time": 728, "pitch": 69, "duration": 2, "velocity": 97}, {"time": 734, "pitch": 66, "duration": 1, "velocity": 96}, {"time": 737, "pitch": 64, "duration": 3, "velocity": 85}, {"time": 743, "pitch": 66, "duration": 3, "velocity": 100}, {"time": 749, "pitch": 66, "duration": 2, "velocity": 93}, {"time": 752, "pitch": 74, "duration": 3, "velocity": 102}, {"time": 758, "pitch": 73, "duration": 2, "velocity": 96}, {"time": 761, "pitch": 73, "duration": 6, "velocity": 112}, {"time": 767, "pitch": 71, "duration": 22, "velocity": 83}, {"time": 806, "pitch": 66, "duration": 1, "velocity": 107}, {"time": 809, "pitch": 66, "duration": 1, "velocity": 99}, {"time": 812, "pitch": 71, "duration": 1, "velocity": 107}, {"time": 815, "pitch": 71, "duration": 1, "velocity": 88}, {"time": 818, "pitch": 71, "duration": 1, "velocity": 97}, {"time": 821, "pitch": 71, "duration": 1, "velocity": 100}, {"time": 824, "pitch": 71, "duration": 2, "velocity": 112}, {"time": 827, "pitch": 71, "duration": 2, "velocity": 117}, {"time": 833, "pitch": 69, "duration": 1, "velocity": 95}, {"time": 836, "pitch": 71, "duration": 2, "velocity": 117}, {"time": 839, "pitch": 74, "duration": 4, "velocity": 112}, {"time": 857, "pitch": 69, "duration": 2, "velocity": 93}, {"time": 860, "pitch": 66, "duration": 4, "velocity": 82}, {"time": 863, "pitch": 69, "duration": 3, "velocity": 90}, {"time": 869, "pitch": 66, "duration": 28, "velocity": 97}, {"time": 902, "pitch": 66, "duration": 1, "velocity": 112}, {"time": 905, "pitch": 66, "duration": 1, "velocity": 97}, {"time": 908, "pitch": 71, "duration": 1, "velocity": 96}, {"time": 911, "pitch": 71, "duration": 1, "velocity": 93}, {"time": 914, "pitch": 71, "duration": 1, "velocity": 92}, {"time": 917, "pitch": 71, "duration": 1, "velocity": 90}, {"time": 920, "pitch": 71, "duration": 1, "velocity": 107}, {"time": 923, "pitch": 71, "duration": 1, "velocity": 82}, {"time": 926, "pitch": 71, "duration": 2, "velocity": 90}, {"time": 929, "pitch": 69, "duration": 1, "velocity": 88}, {"time": 932, "pitch": 71, "duration": 3, "velocity": 95}, {"time": 935, "pitch": 69, "duration": 8, "velocity": 112}, {"time": 950, "pitch": 66, "duration": 1, "velocity": 95}, {"time": 953, "pitch": 66, "duration": 1, "velocity": 72}, {"time": 956, "pitch": 69, "duration": 3, "velocity": 97}, {"time": 962, "pitch": 62, "duration": 2, "velocity": 93}, {"time": 965, "pitch": 64, "duration": 27, "velocity": 100}, {"time": 998, "pitch": 66, "duration": 1, "velocity": 102}, {"time": 1001, "pitch": 66, "duration": 1, "velocity": 96}, {"time": 1004, "pitch": 69, "duration": 1, "velocity": 93}, {"time": 1007, "pitch": 69, "duration": 1, "velocity": 93}, {"time": 1010, "pitch": 69, "duration": 1, "velocity": 100}, {"time": 1013, "pitch": 69, "duration": 1, "velocity": 100}, {"time": 1016, "pitch": 69, "duration": 2, "velocity": 117}, {"time": 1022, "pitch": 66, "duration": 1, "velocity": 127}, {"time": 1025, "pitch": 64, "duration": 5, "velocity": 96}, {"time": 1031, "pitch": 66, "duration": 10, "velocity": 112}, {"time": 1043, "pitch": 69, "duration": 1, "velocity": 92}, {"time": 1046, "pitch": 69, "duration": 1, "velocity": 89}, {"time": 1049, "pitch": 69, "duration": 2, "velocity": 100}, {"time": 1052, "pitch": 71, "duration": 1, "velocity": 112}, {"time": 1055, "pitch": 71, "duration": 3, "velocity": 99}, {"time": 1061, "pitch": 71, "duration": 1, "velocity": 97}, {"time": 1064, "pitch": 71, "duration": 3, "velocity": 112}, {"time": 1070, "pitch": 69, "duration": 2, "velocity": 102}, {"time": 1073, "pitch": 66, "duration": 12, "velocity": 102}, {"time": 1094, "pitch": 66, "duration": 1, "velocity": 112}, {"time": 1097, "pitch": 66, "duration": 1, "velocity": 107}, {"time": 1100, "pitch": 69, "duration": 1, "velocity": 102}, {"time": 1103, "pitch": 69, "duration": 1, "velocity": 88}, {"time": 1106, "pitch": 69, "duration": 1, "velocity": 86}, {"time": 1109, "pitch": 69, "duration": 1, "velocity": 95}, {"time": 1112, "pitch": 69, "duration": 2, "velocity": 107}, {"time": 1118, "pitch": 66, "duration": 2, "velocity": 117}, {"time": 1121, "pitch": 64, "duration": 3, "velocity": 95}, {"time": 1127, "pitch": 66, "duration": 7, "velocity": 127}, {"time": 1136, "pitch": 74, "duration": 3, "velocity": 117}, {"time": 1139, "pitch": 73, "duration": 3, "velocity": 112}, {"time": 1145, "pitch": 74, "duration": 1, "velocity": 97}, {"time": 1148, "pitch": 73, "duration": 6, "velocity": 112}, {"time": 1154, "pitch": 71, "duration": 18, "velocity": 117}, {"time": 1190, "pitch": 66, "duration": 1, "velocity": 97}, {"time": 1193, "pitch": 66, "duration": 1, "velocity": 97}, {"time": 1196, "pitch": 69, "duration": 1, "velocity": 96}, {"time": 1199, "pitch": 69, "duration": 1, "velocity": 89}, {"time": 1202, "pitch": 69, "duration": 1, "velocity": 83}, {"time": 1205, "pitch": 69, "duration": 1, "velocity": 79}, {"time": 1208, "pitch": 69, "duration": 2, "velocity": 95}, {"time": 1214, "pitch": 66, "duration": 1, "velocity": 99}, {"time": 1217, "pitch": 64, "duration": 4, "velocity": 93}, {"time": 1223, "pitch": 66, "duration": 9, "velocity": 112}, {"time": 1235, "pitch": 69, "duration": 1, "velocity": 93}, {"time": 1238, "pitch": 69, "duration": 1, "velocity": 92}, {"time": 1241, "pitch": 69, "duration": 1, "velocity": 95}, {"time": 1244, "pitch": 71, "duration": 2, "velocity": 100}, {"time": 1247, "pitch": 71, "duration": 3, "velocity": 107}, {"time": 1253, "pitch": 71, "duration": 1, "velocity": 100}, {"time": 1256, "pitch": 71, "duration": 3, "velocity": 127}, {"time": 1262, "pitch": 69, "duration": 2, "velocity": 102}, {"time": 1265, "pitch": 66, "duration": 13, "velocity": 100}, {"time": 1286, "pitch": 66, "duration": 1, "velocity": 102}, {"time": 1289, "pitch": 66, "duration": 1, "velocity": 96}, {"time": 1292, "pitch": 69, "duration": 1, "velocity": 96}, {"time": 1295, "pitch": 69, "duration": 1, "velocity": 88}, {"time": 1298, "pitch": 69, "duration": 1, "velocity": 86}, {"time": 1301, "pitch": 69, "duration": 1, "velocity": 90}, {"time": 1304, "pitch": 69, "duration": 2, "velocity": 97}, {"time": 1310, "pitch": 66, "duration": 1, "velocity": 117}, {"time": 1313, "pitch": 64, "duration": 3, "velocity": 90}, {"time": 1319, "pitch": 66, "duration": 7, "velocity": 112}, {"time": 1328, "pitch": 78, "duration": 1, "velocity": 127}, {"time": 1331, "pitch": 76, "duration": 3, "velocity": 112}, {"time": 1337, "pitch": 78, "duration": 1, "velocity": 107}, {"time": 1340, "pitch": 78, "duration": 4, "velocity": 127}, {"time": 1346, "pitch": 78, "duration": 25, "velocity": 127}, {"time": 1388, "pitch": 78, "duration": 6, "velocity": 117}, {"time": 1400, "pitch": 71, "duration": 3, "velocity": 122}, {"time": 1406, "pitch": 74, "duration": 3, "velocity": 122}, {"time": 1412, "pitch": 66, "duration": 3, "velocity": 107}, {"time": 1415, "pitch": 69, "duration": 3, "velocity": 76}, {"time": 1418, "pitch": 66, "duration": 7, "velocity": 112}, {"time": 1436, "pitch": 74, "duration": 1, "velocity": 117}, {"time": 1439, "pitch": 74, "duration": 3, "velocity": 112}, {"time": 1445, "pitch": 74, "duration": 1, "velocity": 99}, {"time": 1448, "pitch": 74, "duration": 3, "velocity": 127}, {"time": 1451, "pitch": 71, "duration": 2, "velocity": 96}, {"time": 1457, "pitch": 78, "duration": 1, "velocity": 127}, {"time": 1460, "pitch": 78, "duration": 13, "velocity": 127}, {"time": 1481, "pitch": 71, "duration": 2, "velocity": 93}, {"time": 1484, "pitch": 81, "duration": 3, "velocity": 112}, {"time": 1490, "pitch": 71, "duration": 1, "velocity": 112}, {"time": 1493, "pitch": 71, "duration": 1, "velocity": 102}, {"time": 1496, "pitch": 71, "duration": 1, "velocity": 112}, {"time": 1499, "pitch": 78, "duration": 2, "velocity": 127}, {"time": 1505, "pitch": 78, "duration": 1, "velocity": 127}, {"time": 1508, "pitch": 76, "duration": 1, "velocity": 127}, {"time": 1511, "pitch": 78, "duration": 5, "velocity": 127}, {"time": 1517, "pitch": 69, "duration": 4, "velocity": 112}, {"time": 1532, "pitch": 74, "duration": 1, "velocity": 102}, {"time": 1535, "pitch": 74, "duration": 1, "velocity": 90}, {"time": 1538, "pitch": 74, "duration": 1, "velocity": 82}, {"time": 1541, "pitch": 74, "duration": 1, "velocity": 93}, {"time": 1544, "pitch": 78, "duration": 1, "velocity": 127}, {"time": 1550, "pitch": 81, "duration": 2, "velocity": 127}, {"time": 1553, "pitch": 78, "duration": 6, "velocity": 127}, {"time": 1559, "pitch": 76, "duration": 8, "velocity": 102}, {"time": 1580, "pitch": 78, "duration": 8, "velocity": 127}, {"time": 1592, "pitch": 71, "duration": 4, "velocity": 102}, {"time": 1598, "pitch": 74, "duration": 4, "velocity": 122}, {"time": 1604, "pitch": 66, "duration": 3, "velocity": 127}, {"time": 1607, "pitch": 69, "duration": 2, "velocity": 96}, {"time": 1610, "pitch": 66, "duration": 10, "velocity": 102}, {"time": 1628, "pitch": 74, "duration": 1, "velocity": 127}, {"time": 1631, "pitch": 74, "duration": 2, "velocity": 112}, {"time": 1637, "pitch": 74, "duration": 1, "velocity": 107}, {"time": 1640, "pitch": 74, "duration": 1, "velocity": 112}, {"time": 1643, "pitch": 71, "duration": 3, "velocity": 96}, {"time": 1649, "pitch": 78, "duration": 1, "velocity": 117}, {"time": 1652, "pitch": 78, "duration": 9, "velocity": 117}, {"time": 1673, "pitch": 71, "duration": 2, "velocity": 95}, {"time": 1676, "pitch": 81, "duration": 3, "velocity": 127}, {"time": 1682, "pitch": 71, "duration": 1, "velocity": 107}, {"time": 1685, "pitch": 71, "duration": 1, "velocity": 93}, {"time": 1688, "pitch": 71, "duration": 3, "velocity": 112}, {"time": 1694, "pitch": 78, "duration": 1, "velocity": 127}, {"time": 1697, "pitch": 78, "duration": 2, "velocity": 107}, {"time": 1700, "pitch": 76, "duration": 2, "velocity": 127}, {"time": 1703, "pitch": 78, "duration": 3, "velocity": 127}, {"time": 1709, "pitch": 69, "duration": 7, "velocity": 107}, {"time": 1724, "pitch": 74, "duration": 1, "velocity": 122}, {"time": 1727, "pitch": 74, "duration": 1, "velocity": 96}, {"time": 1730, "pitch": 74, "duration": 1, "velocity": 97}, {"time": 1733, "pitch": 74, "duration": 1, "velocity": 99}, {"time": 1736, "pitch": 78, "duration": 1, "velocity": 127}, {"time": 1742, "pitch": 81, "duration": 1, "velocity": 127}, {"time": 1745, "pitch": 78, "duration": 5, "velocity": 117}, {"time": 1751, "pitch": 76, "duration": 21, "velocity": 117}, {"time": 1784, "pitch": 78, "duration": 4, "velocity": 117}, {"time": 1790, "pitch": 78, "duration": 1, "velocity": 112}, {"time": 1793, "pitch": 76, "duration": 5, "velocity": 117}, {"time": 1799, "pitch": 74, "duration": 35, "velocity": 99}, {"time": 2198, "pitch": 66, "duration": 1, "velocity": 107}, {"time": 2201, "pitch": 66, "duration": 1, "velocity": 99}, {"time": 2204, "pitch": 71, "duration": 1, "velocity": 107}, {"time": 2207, "pitch": 71, "duration": 1, "velocity": 88}, {"time": 2210, "pitch": 71, "duration": 1, "velocity": 97}, {"time": 2213, "pitch": 71, "duration": 1, "velocity": 100}, {"time": 2216, "pitch": 71, "duration": 2, "velocity": 112}, {"time": 2219, "pitch": 71, "duration": 2, "velocity": 117}, {"time": 2225, "pitch": 69, "duration": 1, "velocity": 95}, {"time": 2228, "pitch": 71, "duration": 2, "velocity": 117}, {"time": 2231, "pitch": 74, "duration": 4, "velocity": 112}, {"time": 2249, "pitch": 69, "duration": 2, "velocity": 93}, {"time": 2252, "pitch": 66, "duration": 4, "velocity": 82}, {"time": 2255, "pitch": 69, "duration": 3, "velocity": 90}, {"time": 2261, "pitch": 66, "duration": 28, "velocity": 97}, {"time": 2294, "pitch": 66, "duration": 1, "velocity": 112}, {"time": 2297, "pitch": 66, "duration": 1, "velocity": 97}, {"time": 2300, "pitch": 71, "duration": 1, "velocity": 96}, {"time": 2303, "pitch": 71, "duration": 1, "velocity": 93}, {"time": 2306, "pitch": 71, "duration": 1, "velocity": 92}, {"time": 2309, "pitch": 71, "duration": 1, "velocity": 90}, {"time": 2312, "pitch": 71, "duration": 1, "velocity": 107}, {"time": 2315, "pitch": 71, "duration": 1, "velocity": 82}, {"time": 2318, "pitch": 71, "duration": 2, "velocity": 90}, {"time": 2321, "pitch": 69, "duration": 1, "velocity": 88}, {"time": 2324, "pitch": 71, "duration": 3, "velocity": 95}, {"time": 2327, "pitch": 69, "duration": 8, "velocity": 112}, {"time": 2342, "pitch": 66, "duration": 1, "velocity": 95}, {"time": 2345, "pitch": 66, "duration": 1, "velocity": 72}, {"time": 2348, "pitch": 69, "duration": 3, "velocity": 97}, {"time": 2354, "pitch": 62, "duration": 2, "velocity": 93}, {"time": 2357, "pitch": 64, "duration": 27, "velocity": 100}, {"time": 2390, "pitch": 66, "duration": 1, "velocity": 102}, {"time": 2393, "pitch": 66, "duration": 1, "velocity": 96}, {"time": 2396, "pitch": 69, "duration": 1, "velocity": 93}, {"time": 2399, "pitch": 69, "duration": 1, "velocity": 93}, {"time": 2402, "pitch": 69, "duration": 1, "velocity": 100}, {"time": 2405, "pitch": 69, "duration": 1, "velocity": 100}, {"time": 2408, "pitch": 69, "duration": 2, "velocity": 117}, {"time": 2414, "pitch": 66, "duration": 1, "velocity": 127}, {"time": 2417, "pitch": 64, "duration": 5, "velocity": 96}, {"time": 2423, "pitch": 66, "duration": 10, "velocity": 112}, {"time": 2435, "pitch": 69, "duration": 1, "velocity": 92}, {"time": 2438, "pitch": 69, "duration": 1, "velocity": 89}, {"time": 2441, "pitch": 69, "duration": 2, "velocity": 100}, {"time": 2444, "pitch": 71, "duration": 1, "velocity": 112}, {"time": 2447, "pitch": 71, "duration": 3, "velocity": 99}, {"time": 2453, "pitch": 71, "duration": 1, "velocity": 97}, {"time": 2456, "pitch": 71, "duration": 3, "velocity": 112}, {"time": 2462, "pitch": 69, "duration": 2, "velocity": 102}, {"time": 2465, "pitch": 66, "duration": 12, "velocity": 102}, {"time": 2486, "pitch": 66, "duration": 1, "velocity": 112}, {"time": 2489, "pitch": 66, "duration": 1, "velocity": 107}, {"time": 2492, "pitch": 69, "duration": 1, "velocity": 102}, {"time": 2495, "pitch": 69, "duration": 1, "velocity": 88}, {"time": 2498, "pitch": 69, "duration": 1, "velocity": 86}, {"time": 2501, "pitch": 69, "duration": 1, "velocity": 95}, {"time": 2504, "pitch": 69, "duration": 2, "velocity": 107}, {"time": 2510, "pitch": 66, "duration": 2, "velocity": 117}, {"time": 2513, "pitch": 64, "duration": 3, "velocity": 95}, {"time": 2519, "pitch": 66, "duration": 7, "velocity": 127}, {"time": 2528, "pitch": 74, "duration": 3, "velocity": 117}, {"time": 2531, "pitch": 73, "duration": 3, "velocity": 112}, {"time": 2537, "pitch": 74, "duration": 1, "velocity": 97}, {"time": 2540, "pitch": 73, "duration": 6, "velocity": 112}, {"time": 2546, "pitch": 71, "duration": 18, "velocity": 117}, {"time": 2582, "pitch": 66, "duration": 1, "velocity": 97}, {"time": 2585, "pitch": 66, "duration": 1, "velocity": 97}, {"time": 2588, "pitch": 69, "duration": 1, "velocity": 96}, {"time": 2591, "pitch": 69, "duration": 1, "velocity": 89}, {"time": 2594, "pitch": 69, "duration": 1, "velocity": 83}, {"time": 2597, "pitch": 69, "duration": 1, "velocity": 79}, {"time": 2600, "pitch": 69, "duration": 2, "velocity": 95}, {"time": 2606, "pitch": 66, "duration": 1, "velocity": 99}, {"time": 2609, "pitch": 64, "duration": 4, "velocity": 93}, {"time": 2615, "pitch": 66, "duration": 9, "velocity": 112}, {"time": 2627, "pitch": 69, "duration": 1, "velocity": 93}, {"time": 2630, "pitch": 69, "duration": 1, "velocity": 92}, {"time": 2633, "pitch": 69, "duration": 1, "velocity": 95}, {"time": 2636, "pitch": 71, "duration": 2, "velocity": 100}, {"time": 2639, "pitch": 71, "duration": 3, "velocity": 107}, {"time": 2645, "pitch": 71, "duration": 1, "velocity": 100}, {"time": 2648, "pitch": 71, "duration": 3, "velocity": 127}, {"time": 2654, "pitch": 69, "duration": 2, "velocity": 102}, {"time": 2657, "pitch": 66, "duration": 13, "velocity": 100}, {"time": 2678, "pitch": 66, "duration": 1, "velocity": 102}, {"time": 2681, "pitch": 66, "duration": 1, "velocity": 96}, {"time": 2684, "pitch": 69, "duration": 1, "velocity": 96}, {"time": 2687, "pitch": 69, "duration": 1, "velocity": 88}, {"time": 2690, "pitch": 69, "duration": 1, "velocity": 86}, {"time": 2693, "pitch": 69, "duration": 1, "velocity": 90}, {"time": 2696, "pitch": 69, "duration": 2, "velocity": 97}, {"time": 2702, "pitch": 66, "duration": 1, "velocity": 117}, {"time": 2705, "pitch": 64, "duration": 3, "velocity": 90}, {"time": 2711, "pitch": 66, "duration": 7, "velocity": 112}, {"time": 2720, "pitch": 78, "duration": 1, "velocity": 127}, {"time": 2723, "pitch": 76, "duration": 3, "velocity": 112}, {"time": 2729, "pitch": 78, "duration": 1, "velocity": 107}, {"time": 2732, "pitch": 78, "duration": 4, "velocity": 127}, {"time": 2738, "pitch": 78, "duration": 25, "velocity": 127}, {"time": 2780, "pitch": 78, "duration": 6, "velocity": 117}, {"time": 2792, "pitch": 71, "duration": 3, "velocity": 122}, {"time": 2798, "pitch": 74, "duration": 3, "velocity": 122}, {"time": 2804, "pitch": 66, "duration": 3, "velocity": 107}, {"time": 2807, "pitch": 69, "duration": 3, "velocity": 76}, {"time": 2810, "pitch": 66, "duration": 7, "velocity": 112}, {"time": 2828, "pitch": 74, "duration": 1, "velocity": 117}, {"time": 2831, "pitch": 74, "duration": 3, "velocity": 112}, {"time": 2837, "pitch": 74, "duration": 1, "velocity": 99}, {"time": 2840, "pitch": 74, "duration": 3, "velocity": 127}, {"time": 2843, "pitch": 71, "duration": 2, "velocity": 96}, {"time": 2849, "pitch": 78, "duration": 1, "velocity": 127}, {"time": 2852, "pitch": 78, "duration": 13, "velocity": 127}, {"time": 2873, "pitch": 71, "duration": 2, "velocity": 93}, {"time": 2876, "pitch": 81, "duration": 3, "velocity": 112}, {"time": 2882, "pitch": 71, "duration": 1, "velocity": 112}, {"time": 2885, "pitch": 71, "duration": 1, "velocity": 102}, {"time": 2888, "pitch": 71, "duration": 1, "velocity": 112}, {"time": 2891, "pitch": 78, "duration": 2, "velocity": 127}, {"time": 2897, "pitch": 78, "duration": 1, "velocity": 127}, {"time": 2900, "pitch": 76, "duration": 1, "velocity": 127}, {"time": 2903, "pitch": 78, "duration": 5, "velocity": 127}, {"time": 2909, "pitch": 69, "duration": 4, "velocity": 112}, {"time": 2924, "pitch": 74, "duration": 1, "velocity": 102}, {"time": 2927, "pitch": 74, "duration": 1, "velocity": 90}, {"time": 2930, "pitch": 74, "duration": 1, "velocity": 82}, {"time": 2933, "pitch": 74, "duration": 1, "velocity": 93}, {"time": 2936, "pitch": 78, "duration": 1, "velocity": 127}, {"time": 2942, "pitch": 81, "duration": 2, "velocity": 127}, {"time": 2945, "pitch": 78, "duration": 6, "velocity": 127}, {"time": 2951, "pitch": 76, "duration": 8, "velocity": 102}, {"time": 2972, "pitch": 78, "duration": 8, "velocity": 127}, {"time": 2984, "pitch": 71, "duration": 4, "velocity": 102}, {"time": 2990, "pitch": 74, "duration": 4, "velocity": 122}, {"time": 2996, "pitch": 66, "duration": 3, "velocity": 127}, {"time": 2999, "pitch": 69, "duration": 2, "velocity": 96}, {"time": 3002, "pitch": 66, "duration": 10, "velocity": 102}, {"time": 3020, "pitch": 74, "duration": 1, "velocity": 127}, {"time": 3023, "pitch": 74, "duration": 2, "velocity": 112}, {"time": 3029, "pitch": 74, "duration": 1, "velocity": 107}, {"time": 3032, "pitch": 74, "duration": 1, "velocity": 112}, {"time": 3035, "pitch": 71, "duration": 3, "velocity": 96}, {"time": 3041, "pitch": 78, "duration": 1, "velocity": 117}, {"time": 3044, "pitch": 78, "duration": 9, "velocity": 117}, {"time": 3065, "pitch": 71, "duration": 2, "velocity": 95}, {"time": 3068, "pitch": 81, "duration": 3, "velocity": 127}, {"time": 3074, "pitch": 71, "duration": 1, "velocity": 107}, {"time": 3077, "pitch": 71, "duration": 1, "velocity": 93}, {"time": 3080, "pitch": 71, "duration": 3, "velocity": 112}, {"time": 3086, "pitch": 78, "duration": 1, "velocity": 127}, {"time": 3089, "pitch": 78, "duration": 2, "velocity": 107}, {"time": 3092, "pitch": 76, "duration": 2, "velocity": 127}, {"time": 3095, "pitch": 78, "duration": 3, "velocity": 127}, {"time": 3101, "pitch": 69, "duration": 7, "velocity": 107}, {"time": 3116, "pitch": 74, "duration": 1, "velocity": 122}, {"time": 3119, "pitch": 74, "duration": 1, "velocity": 96}, {"time": 3122, "pitch": 74, "duration": 1, "velocity": 97}, {"time": 3125, "pitch": 74, "duration": 1, "velocity": 99}, {"time": 3128, "pitch": 78, "duration": 1, "velocity": 127}, {"time": 3134, "pitch": 81, "duration": 1, "velocity": 127}, {"time": 3137, "pitch": 78, "duration": 5, "velocity": 117}, {"time": 3143, "pitch": 76, "duration": 21, "velocity": 117}, {"time": 3176, "pitch": 78, "duration": 4, "velocity": 117}, {"time": 3182, "pitch": 78, "duration": 1, "velocity": 112}, {"time": 3185, "pitch": 76, "duration": 5, "velocity": 117}, {"time": 3191, "pitch": 74, "duration": 35, "velocity": 99}, {"time": 3236, "pitch": 74, "duration": 1, "velocity": 117}, {"time": 3239, "pitch": 74, "duration": 1, "velocity": 100}, {"time": 3242, "pitch": 74, "duration": 1, "velocity": 99}, {"time": 3245, "pitch": 74, "duration": 1, "velocity": 90}, {"time": 3248, "pitch": 78, "duration": 3, "velocity": 117}, {"time": 3254, "pitch": 81, "duration": 1, "velocity": 117}, {"time": 3257, "pitch": 78, "duration": 5, "velocity": 122}, {"time": 3263, "pitch": 76, "duration": 26, "velocity": 122}, {"time": 3320, "pitch": 78, "duration": 2, "velocity": 127}, {"time": 3323, "pitch": 78, "duration": 22, "velocity": 112}, {"time": 3356, "pitch": 76, "duration": 6, "velocity": 100}, {"time": 3362, "pitch": 74, "duration": 43, "velocity": 112}]}, {"program": 0, "is_drum": false, "name": "PIANO", "notes": [{"time": 56, "pitch": 54, "duration": 36, "velocity": 64}, {"time": 59, "pitch": 59, "duration": 6, "velocity": 38}, {"time": 65, "pitch": 62, "duration": 6, "velocity": 50}, {"time": 71, "pitch": 59, "duration": 21, "velocity": 39}, {"time": 74, "pitch": 62, "duration": 18, "velocity": 45}, {"time": 92, "pitch": 47, "duration": 22, "velocity": 90}, {"time": 95, "pitch": 54, "duration": 19, "velocity": 127}, {"time": 98, "pitch": 59, "duration": 7, "velocity": 95}, {"time": 101, "pitch": 62, "duration": 6, "velocity": 81}, {"time": 104, "pitch": 71, "duration": 13, "velocity": 107}, {"time": 107, "pitch": 59, "duration": 7, "velocity": 85}, {"time": 110, "pitch": 66, "duration": 6, "velocity": 102}, {"time": 113, "pitch": 62, "duration": 4, "velocity": 93}, {"time": 116, "pitch": 43, "duration": 18, "velocity": 85}, {"time": 119, "pitch": 50, "duration": 15, "velocity": 89}, {"time": 122, "pitch": 55, "duration": 7, "velocity": 89}, {"time": 125, "pitch": 62, "duration": 6, "velocity": 88}, {"time": 128, "pitch": 71, "duration": 10, "velocity": 99}, {"time": 131, "pitch": 55, "duration": 2, "velocity": 93}, {"time": 134, "pitch": 67, "duration": 4, "velocity": 96}, {"time": 137, "pitch": 62, "duration": 3, "velocity": 86}, {"time": 140, "pitch": 40, "duration": 8, "velocity": 82}, {"time": 143, "pitch": 47, "duration": 7, "velocity": 72}, {"time": 146, "pitch": 52, "duration": 4, "velocity": 88}, {"time": 149, "pitch": 68, "duration": 3, "velocity": 95}, {"time": 152, "pitch": 42, "duration": 7, "velocity": 89}, {"time": 155, "pitch": 54, "duration": 7, "velocity": 77}, {"time": 158, "pitch": 66, "duration": 6, "velocity": 86}, {"time": 161, "pitch": 73, "duration": 3, "velocity": 96}, {"time": 164, "pitch": 47, "duration": 18, "velocity": 69}, {"time": 167, "pitch": 54, "duration": 10, "velocity": 78}, {"time": 170, "pitch": 59, "duration": 4, "velocity": 92}, {"time": 173, "pitch": 62, "duration": 3, "velocity": 86}, {"time": 176, "pitch": 66, "duration": 9, "velocity": 127}, {"time": 179, "pitch": 54, "duration": 2, "velocity": 107}, {"time": 182, "pitch": 62, "duration": 4, "velocity": 112}, {"time": 185, "pitch": 59, "duration": 5, "velocity": 99}, {"time": 188, "pitch": 40, "duration": 9, "velocity": 83}, {"time": 191, "pitch": 47, "duration": 8, "velocity": 74}, {"time": 194, "pitch": 52, "duration": 4, "velocity": 86}, {"time": 197, "pitch": 59, "duration": 1, "velocity": 22}, {"time": 197, "pitch": 67, "duration": 3, "velocity": 93}, {"time": 200, "pitch": 42, "duration": 9, "velocity": 97}, {"time": 203, "pitch": 54, "duration": 5, "velocity": 99}, {"time": 206, "pitch": 61, "duration": 4, "velocity": 93}, {"time": 209, "pitch": 57, "duration": 3, "velocity": 71}, {"time": 212, "pitch": 43, "duration": 9, "velocity": 93}, {"time": 215, "pitch": 50, "duration": 7, "velocity": 96}, {"time": 218, "pitch": 55, "duration": 3, "velocity": 99}, {"time": 221, "pitch": 62, "duration": 2, "velocity": 100}, {"time": 224, "pitch": 44, "duration": 9, "velocity": 88}, {"time": 227, "pitch": 56, "duration": 3, "velocity": 73}, {"time": 230, "pitch": 59, "duration": 4, "velocity": 92}, {"time": 233, "pitch": 56, "duration": 2, "velocity": 93}, {"time": 236, "pitch": 38, "duration": 8, "velocity": 76}, {"time": 239, "pitch": 45, "duration": 6, "velocity": 66}, {"time": 242, "pitch": 50, "duration": 2, "velocity": 90}, {"time": 245, "pitch": 66, "duration": 2, "velocity": 99}, {"time": 248, "pitch": 37, "duration": 7, "velocity": 70}, {"time": 251, "pitch": 49, "duration": 7, "velocity": 71}, {"time": 254, "pitch": 61, "duration": 4, "velocity": 89}, {"time": 257, "pitch": 68, "duration": 2, "velocity": 93}, {"time": 260, "pitch": 40, "duration": 9, "velocity": 74}, {"time": 263, "pitch": 47, "duration": 7, "velocity": 89}, {"time": 266, "pitch": 52, "duration": 4, "velocity": 92}, {"time": 269, "pitch": 56, "duration": 2, "velocity": 89}, {"time": 272, "pitch": 42, "duration": 7, "velocity": 100}, {"time": 275, "pitch": 54, "duration": 7, "velocity": 81}, {"time": 278, "pitch": 57, "duration": 5, "velocity": 83}, {"time": 281, "pitch": 61, "duration": 2, "velocity": 102}, {"time": 284, "pitch": 47, "duration": 18, "velocity": 73}, {"time": 287, "pitch": 54, "duration": 11, "velocity": 88}, {"time": 290, "pitch": 59, "duration": 4, "velocity": 97}, {"time": 293, "pitch": 66, "duration": 6, "velocity": 100}, {"time": 296, "pitch": 62, "duration": 10, "velocity": 99}, {"time": 299, "pitch": 54, "duration": 3, "velocity": 96}, {"time": 302, "pitch": 66, "duration": 4, "velocity": 112}, {"time": 305, "pitch": 59, "duration": 3, "velocity": 92}, {"time": 308, "pitch": 43, "duration": 5, "velocity": 96}, {"time": 311, "pitch": 55, "duration": 6, "velocity": 76}, {"time": 314, "pitch": 62, "duration": 5, "velocity": 97}, {"time": 317, "pitch": 59, "duration": 2, "velocity": 96}, {"time": 320, "pitch": 42, "duration": 8, "velocity": 100}, {"time": 323, "pitch": 54, "duration": 5, "velocity": 88}, {"time": 326, "pitch": 57, "duration": 5, "velocity": 93}, {"time": 329, "pitch": 61, "duration": 2, "velocity": 99}, {"time": 332, "pitch": 43, "duration": 10, "velocity": 81}, {"time": 335, "pitch": 50, "duration": 9, "velocity": 89}, {"time": 338, "pitch": 55, "duration": 3, "velocity": 93}, {"time": 341, "pitch": 62, "duration": 2, "velocity": 90}, {"time": 344, "pitch": 45, "duration": 10, "velocity": 95}, {"time": 347, "pitch": 57, "duration": 7, "velocity": 81}, {"time": 350, "pitch": 64, "duration": 6, "velocity": 89}, {"time": 353, "pitch": 61, "duration": 2, "velocity": 97}, {"time": 356, "pitch": 47, "duration": 22, "velocity": 86}, {"time": 359, "pitch": 54, "duration": 10, "velocity": 96}, {"time": 362, "pitch": 59, "duration": 4, "velocity": 82}, {"time": 365, "pitch": 62, "duration": 3, "velocity": 93}, {"time": 368, "pitch": 66, "duration": 6, "velocity": 122}, {"time": 371, "pitch": 54, "duration": 9, "velocity": 100}, {"time": 374, "pitch": 62, "duration": 5, "velocity": 97}, {"time": 377, "pitch": 66, "duration": 3, "velocity": 100}, {"time": 380, "pitch": 47, "duration": 46, "velocity": 82}, {"time": 383, "pitch": 54, "duration": 44, "velocity": 90}, {"time": 386, "pitch": 59, "duration": 41, "velocity": 82}, {"time": 389, "pitch": 62, "duration": 38, "velocity": 44}, {"time": 392, "pitch": 66, "duration": 35, "velocity": 85}, {"time": 428, "pitch": 47, "duration": 23, "velocity": 83}, {"time": 434, "pitch": 54, "duration": 19, "velocity": 63}, {"time": 440, "pitch": 59, "duration": 13, "velocity": 71}, {"time": 440, "pitch": 66, "duration": 8, "velocity": 77}, {"time": 446, "pitch": 62, "duration": 30, "velocity": 59}, {"time": 452, "pitch": 47, "duration": 15, "velocity": 65}, {"time": 458, "pitch": 54, "duration": 10, "velocity": 34}, {"time": 464, "pitch": 59, "duration": 3, "velocity": 73}, {"time": 464, "pitch": 71, "duration": 12, "velocity": 76}, {"time": 470, "pitch": 66, "duration": 7, "velocity": 75}, {"time": 476, "pitch": 42, "duration": 23, "velocity": 74}, {"time": 482, "pitch": 49, "duration": 18, "velocity": 45}, {"time": 488, "pitch": 54, "duration": 13, "velocity": 67}, {"time": 488, "pitch": 61, "duration": 24, "velocity": 74}, {"time": 494, "pitch": 57, "duration": 23, "velocity": 54}, {"time": 500, "pitch": 42, "duration": 18, "velocity": 81}, {"time": 506, "pitch": 49, "duration": 11, "velocity": 35}, {"time": 512, "pitch": 66, "duration": 11, "velocity": 102}, {"time": 515, "pitch": 54, "duration": 4, "velocity": 71}, {"time": 518, "pitch": 61, "duration": 5, "velocity": 97}, {"time": 521, "pitch": 57, "duration": 3, "velocity": 79}, {"time": 524, "pitch": 47, "duration": 22, "velocity": 79}, {"time": 530, "pitch": 54, "duration": 18, "velocity": 68}, {"time": 536, "pitch": 66, "duration": 20, "velocity": 100}, {"time": 542, "pitch": 62, "duration": 17, "velocity": 67}, {"time": 548, "pitch": 47, "duration": 13, "velocity": 81}, {"time": 554, "pitch": 54, "duration": 8, "velocity": 64}, {"time": 560, "pitch": 66, "duration": 12, "velocity": 122}, {"time": 566, "pitch": 62, "duration": 6, "velocity": 55}, {"time": 569, "pitch": 59, "duration": 4, "velocity": 57}, {"time": 572, "pitch": 42, "duration": 22, "velocity": 86}, {"time": 578, "pitch": 49, "duration": 18, "velocity": 34}, {"time": 584, "pitch": 54, "duration": 16, "velocity": 74}, {"time": 584, "pitch": 61, "duration": 22, "velocity": 85}, {"time": 590, "pitch": 57, "duration": 26, "velocity": 69}, {"time": 596, "pitch": 42, "duration": 17, "velocity": 81}, {"time": 602, "pitch": 49, "duration": 11, "velocity": 56}, {"time": 608, "pitch": 54, "duration": 6, "velocity": 76}, {"time": 608, "pitch": 66, "duration": 12, "velocity": 100}, {"time": 614, "pitch": 61, "duration": 5, "velocity": 89}, {"time": 620, "pitch": 45, "duration": 22, "velocity": 89}, {"time": 623, "pitch": 52, "duration": 22, "velocity": 42}, {"time": 626, "pitch": 57, "duration": 7, "velocity": 88}, {"time": 632, "pitch": 69, "duration": 36, "velocity": 69}, {"time": 638, "pitch": 61, "duration": 16, "velocity": 67}, {"time": 644, "pitch": 45, "duration": 21, "velocity": 71}, {"time": 650, "pitch": 52, "duration": 17, "velocity": 35}, {"time": 656, "pitch": 57, "duration": 4, "velocity": 73}, {"time": 656, "pitch": 64, "duration": 12, "velocity": 82}, {"time": 662, "pitch": 61, "duration": 7, "velocity": 79}, {"time": 668, "pitch": 47, "duration": 22, "velocity": 88}, {"time": 674, "pitch": 54, "duration": 19, "velocity": 56}, {"time": 680, "pitch": 66, "duration": 22, "velocity": 117}, {"time": 686, "pitch": 62, "duration": 17, "velocity": 61}, {"time": 692, "pitch": 47, "duration": 16, "velocity": 76}, {"time": 698, "pitch": 54, "duration": 9, "velocity": 62}, {"time": 704, "pitch": 66, "duration": 13, "velocity": 127}, {"time": 710, "pitch": 62, "duration": 6, "velocity": 88}, {"time": 716, "pitch": 42, "duration": 22, "velocity": 86}, {"time": 722, "pitch": 49, "duration": 18, "velocity": 52}, {"time": 728, "pitch": 54, "duration": 18, "velocity": 72}, {"time": 728, "pitch": 61, "duration": 21, "velocity": 95}, {"time": 734, "pitch": 57, "duration": 18, "velocity": 73}, {"time": 740, "pitch": 42, "duration": 16, "velocity": 77}, {"time": 746, "pitch": 49, "duration": 10, "velocity": 40}, {"time": 752, "pitch": 54, "duration": 6, "velocity": 76}, {"time": 752, "pitch": 61, "duration": 11, "velocity": 107}, {"time": 758, "pitch": 57, "duration": 5, "velocity": 88}, {"time": 764, "pitch": 47, "duration": 22, "velocity": 76}, {"time": 770, "pitch": 54, "duration": 17, "velocity": 85}, {"time": 776, "pitch": 62, "duration": 12, "velocity": 81}, {"time": 776, "pitch": 66, "duration": 12, "velocity": 96}, {"time": 782, "pitch": 59, "duration": 6, "velocity": 69}, {"time": 788, "pitch": 47, "duration": 23, "velocity": 81}, {"time": 791, "pitch": 54, "duration": 21, "velocity": 89}, {"time": 794, "pitch": 59, "duration": 9, "velocity": 90}, {"time": 797, "pitch": 62, "duration": 4, "velocity": 95}, {"time": 800, "pitch": 71, "duration": 12, "velocity": 107}, {"time": 803, "pitch": 66, "duration": 9, "velocity": 100}, {"time": 806, "pitch": 62, "duration": 6, "velocity": 47}, {"time": 812, "pitch": 47, "duration": 23, "velocity": 83}, {"time": 818, "pitch": 54, "duration": 19, "velocity": 63}, {"time": 824, "pitch": 59, "duration": 13, "velocity": 71}, {"time": 824, "pitch": 66, "duration": 8, "velocity": 77}, {"time": 830, "pitch": 62, "duration": 30, "velocity": 59}, {"time": 836, "pitch": 47, "duration": 15, "velocity": 65}, {"time": 842, "pitch": 54, "duration": 10, "velocity": 34}, {"time": 848, "pitch": 59, "duration": 3, "velocity": 73}, {"time": 848, "pitch": 71, "duration": 12, "velocity": 76}, {"time": 854, "pitch": 66, "duration": 7, "velocity": 75}, {"time": 860, "pitch": 42, "duration": 23, "velocity": 74}, {"time": 866, "pitch": 49, "duration": 18, "velocity": 45}, {"time": 872, "pitch": 54, "duration": 13, "velocity": 67}, {"time": 872, "pitch": 61, "duration": 24, "velocity": 74}, {"time": 878, "pitch": 57, "duration": 23, "velocity": 54}, {"time": 884, "pitch": 42, "duration": 18, "velocity": 81}, {"time": 890, "pitch": 49, "duration": 11, "velocity": 35}, {"time": 896, "pitch": 66, "duration": 11, "velocity": 102}, {"time": 899, "pitch": 54, "duration": 4, "velocity": 71}, {"time": 902, "pitch": 61, "duration": 5, "velocity": 97}, {"time": 905, "pitch": 57, "duration": 3, "velocity": 79}, {"time": 908, "pitch": 47, "duration": 22, "velocity": 79}, {"time": 914, "pitch": 54, "duration": 18, "velocity": 68}, {"time": 920, "pitch": 66, "duration": 20, "velocity": 100}, {"time": 926, "pitch": 62, "duration": 17, "velocity": 67}, {"time": 932, "pitch": 47, "duration": 13, "velocity": 81}, {"time": 938, "pitch": 54, "duration": 8, "velocity": 64}, {"time": 944, "pitch": 66, "duration": 12, "velocity": 122}, {"time": 950, "pitch": 62, "duration": 6, "velocity": 55}, {"time": 953, "pitch": 59, "duration": 4, "velocity": 57}, {"time": 956, "pitch": 42, "duration": 22, "velocity": 86}, {"time": 962, "pitch": 49, "duration": 18, "velocity": 34}, {"time": 968, "pitch": 54, "duration": 16, "velocity": 74}, {"time": 968, "pitch": 61, "duration": 22, "velocity": 85}, {"time": 974, "pitch": 57, "duration": 26, "velocity": 69}, {"time": 980, "pitch": 42, "duration": 17, "velocity": 81}, {"time": 986, "pitch": 49, "duration": 11, "velocity": 56}, {"time": 992, "pitch": 54, "duration": 6, "velocity": 76}, {"time": 992, "pitch": 66, "duration": 12, "velocity": 100}, {"time": 998, "pitch": 61, "duration": 5, "velocity": 89}, {"time": 1004, "pitch": 45, "duration": 22, "velocity": 89}, {"time": 1007, "pitch": 52, "duration": 22, "velocity": 42}, {"time": 1010, "pitch": 57, "duration": 7, "velocity": 88}, {"time": 1016, "pitch": 69, "duration": 36, "velocity": 69}, {"time": 1022, "pitch": 61, "duration": 16, "velocity": 67}, {"time": 1028, "pitch": 45, "duration": 21, "velocity": 71}, {"time": 1034, "pitch": 52, "duration": 17, "velocity": 35}, {"time": 1040, "pitch": 57, "duration": 4, "velocity": 73}, {"time": 1040, "pitch": 64, "duration": 12, "velocity": 82}, {"time": 1046, "pitch": 61, "duration": 7, "velocity": 79}, {"time": 1052, "pitch": 47, "duration": 22, "velocity": 88}, {"time": 1058, "pitch": 54, "duration": 19, "velocity": 56}, {"time": 1064, "pitch": 66, "duration": 22, "velocity": 117}, {"time": 1070, "pitch": 62, "duration": 17, "velocity": 61}, {"time": 1076, "pitch": 47, "duration": 16, "velocity": 76}, {"time": 1082, "pitch": 54, "duration": 9, "velocity": 62}, {"time": 1088, "pitch": 66, "duration": 12, "velocity": 127}, {"time": 1094, "pitch": 62, "duration": 6, "velocity": 88}, {"time": 1100, "pitch": 42, "duration": 16, "velocity": 107}, {"time": 1106, "pitch": 54, "duration": 7, "velocity": 73}, {"time": 1112, "pitch": 66, "duration": 11, "velocity": 117}, {"time": 1118, "pitch": 61, "duration": 6, "velocity": 97}, {"time": 1124, "pitch": 45, "duration": 22, "velocity": 95}, {"time": 1130, "pitch": 52, "duration": 17, "velocity": 66}, {"time": 1136, "pitch": 64, "duration": 12, "velocity": 100}, {"time": 1142, "pitch": 61, "duration": 5, "velocity": 112}, {"time": 1145, "pitch": 57, "duration": 3, "velocity": 81}, {"time": 1148, "pitch": 47, "duration": 22, "velocity": 96}, {"time": 1154, "pitch": 54, "duration": 7, "velocity": 89}, {"time": 1160, "pitch": 66, "duration": 12, "velocity": 122}, {"time": 1163, "pitch": 54, "duration": 8, "velocity": 86}, {"time": 1166, "pitch": 62, "duration": 6, "velocity": 75}, {"time": 1169, "pitch": 61, "duration": 3, "velocity": 74}, {"time": 1172, "pitch": 47, "duration": 14, "velocity": 88}, {"time": 1175, "pitch": 54, "duration": 10, "velocity": 95}, {"time": 1178, "pitch": 59, "duration": 6, "velocity": 88}, {"time": 1181, "pitch": 71, "duration": 4, "velocity": 74}, {"time": 1184, "pitch": 78, "duration": 12, "velocity": 122}, {"time": 1187, "pitch": 74, "duration": 9, "velocity": 97}, {"time": 1190, "pitch": 73, "duration": 6, "velocity": 88}, {"time": 1193, "pitch": 71, "duration": 3, "velocity": 65}, {"time": 1196, "pitch": 42, "duration": 17, "velocity": 95}, {"time": 1202, "pitch": 49, "duration": 11, "velocity": 34}, {"time": 1208, "pitch": 54, "duration": 5, "velocity": 63}, {"time": 1208, "pitch": 61, "duration": 12, "velocity": 112}, {"time": 1214, "pitch": 64, "duration": 7, "velocity": 76}, {"time": 1220, "pitch": 45, "duration": 18, "velocity": 78}, {"time": 1226, "pitch": 52, "duration": 12, "velocity": 77}, {"time": 1232, "pitch": 64, "duration": 12, "velocity": 95}, {"time": 1238, "pitch": 61, "duration": 6, "velocity": 117}, {"time": 1244, "pitch": 47, "duration": 18, "velocity": 74}, {"time": 1250, "pitch": 54, "duration": 17, "velocity": 89}, {"time": 1256, "pitch": 62, "duration": 3, "velocity": 76}, {"time": 1256, "pitch": 66, "duration": 12, "velocity": 127}, {"time": 1262, "pitch": 61, "duration": 5, "velocity": 89}, {"time": 1265, "pitch": 59, "duration": 3, "velocity": 69}, {"time": 1268, "pitch": 47, "duration": 16, "velocity": 73}, {"time": 1271, "pitch": 54, "duration": 12, "velocity": 56}, {"time": 1274, "pitch": 59, "duration": 7, "velocity": 86}, {"time": 1277, "pitch": 71, "duration": 4, "velocity": 75}, {"time": 1280, "pitch": 78, "duration": 12, "velocity": 117}, {"time": 1283, "pitch": 74, "duration": 9, "velocity": 64}, {"time": 1286, "pitch": 71, "duration": 7, "velocity": 85}, {"time": 1292, "pitch": 42, "duration": 18, "velocity": 77}, {"time": 1298, "pitch": 49, "duration": 12, "velocity": 44}, {"time": 1304, "pitch": 54, "duration": 7, "velocity": 82}, {"time": 1304, "pitch": 61, "duration": 8, "velocity": 99}, {"time": 1310, "pitch": 64, "duration": 2, "velocity": 67}, {"time": 1316, "pitch": 45, "duration": 11, "velocity": 95}, {"time": 1322, "pitch": 52, "duration": 5, "velocity": 86}, {"time": 1327, "pitch": 45, "duration": 3, "velocity": 100}, {"time": 1328, "pitch": 61, "duration": 3, "velocity": 112}, {"time": 1328, "pitch": 57, "duration": 3, "velocity": 96}, {"time": 1328, "pitch": 64, "duration": 3, "velocity": 96}, {"time": 1332, "pitch": 45, "duration": 2, "velocity": 90}, {"time": 1332, "pitch": 61, "duration": 3, "velocity": 97}, {"time": 1332, "pitch": 64, "duration": 3, "velocity": 92}, {"time": 1332, "pitch": 57, "duration": 3, "velocity": 93}, {"time": 1336, "pitch": 45, "duration": 3, "velocity": 95}, {"time": 1336, "pitch": 61, "duration": 2, "velocity": 96}, {"time": 1336, "pitch": 64, "duration": 3, "velocity": 90}, {"time": 1336, "pitch": 57, "duration": 3, "velocity": 83}, {"time": 1340, "pitch": 47, "duration": 25, "velocity": 99}, {"time": 1340, "pitch": 59, "duration": 7, "velocity": 92}, {"time": 1340, "pitch": 62, "duration": 6, "velocity": 107}, {"time": 1340, "pitch": 66, "duration": 7, "velocity": 99}, {"time": 1346, "pitch": 54, "duration": 8, "velocity": 66}, {"time": 1349, "pitch": 59, "duration": 1, "velocity": 37}, {"time": 1352, "pitch": 59, "duration": 7, "velocity": 99}, {"time": 1352, "pitch": 62, "duration": 7, "velocity": 112}, {"time": 1352, "pitch": 66, "duration": 7, "velocity": 122}, {"time": 1358, "pitch": 54, "duration": 6, "velocity": 90}, {"time": 1361, "pitch": 59, "duration": 1, "velocity": 68}, {"time": 1361, "pitch": 62, "duration": 1, "velocity": 78}, {"time": 1361, "pitch": 66, "duration": 1, "velocity": 82}, {"time": 1364, "pitch": 59, "duration": 2, "velocity": 107}, {"time": 1364, "pitch": 62, "duration": 1, "velocity": 122}, {"time": 1364, "pitch": 66, "duration": 3, "velocity": 127}, {"time": 1367, "pitch": 47, "duration": 11, "velocity": 59}, {"time": 1367, "pitch": 54, "duration": 10, "velocity": 100}, {"time": 1370, "pitch": 59, "duration": 1, "velocity": 75}, {"time": 1370, "pitch": 62, "duration": 1, "velocity": 45}, {"time": 1373, "pitch": 59, "duration": 1, "velocity": 86}, {"time": 1373, "pitch": 62, "duration": 1, "velocity": 102}, {"time": 1373, "pitch": 66, "duration": 1, "velocity": 117}, {"time": 1376, "pitch": 59, "duration": 3, "velocity": 92}, {"time": 1376, "pitch": 62, "duration": 2, "velocity": 127}, {"time": 1376, "pitch": 66, "duration": 4, "velocity": 127}, {"time": 1379, "pitch": 47, "duration": 7, "velocity": 39}, {"time": 1379, "pitch": 54, "duration": 8, "velocity": 122}, {"time": 1379, "pitch": 62, "duration": 1, "velocity": 29}, {"time": 1382, "pitch": 62, "duration": 4, "velocity": 117}, {"time": 1382, "pitch": 66, "duration": 4, "velocity": 122}, {"time": 1385, "pitch": 59, "duration": 2, "velocity": 102}, {"time": 1388, "pitch": 47, "duration": 17, "velocity": 99}, {"time": 1391, "pitch": 54, "duration": 13, "velocity": 112}, {"time": 1394, "pitch": 59, "duration": 6, "velocity": 107}, {"time": 1397, "pitch": 71, "duration": 5, "velocity": 102}, {"time": 1400, "pitch": 78, "duration": 11, "velocity": 127}, {"time": 1403, "pitch": 59, "duration": 1, "velocity": 117}, {"time": 1406, "pitch": 74, "duration": 5, "velocity": 99}, {"time": 1409, "pitch": 71, "duration": 3, "velocity": 102}, {"time": 1412, "pitch": 42, "duration": 18, "velocity": 86}, {"time": 1415, "pitch": 49, "duration": 14, "velocity": 69}, {"time": 1418, "pitch": 54, "duration": 6, "velocity": 102}, {"time": 1421, "pitch": 57, "duration": 6, "velocity": 102}, {"time": 1424, "pitch": 66, "duration": 11, "velocity": 127}, {"time": 1427, "pitch": 54, "duration": 2, "velocity": 97}, {"time": 1430, "pitch": 61, "duration": 5, "velocity": 117}, {"time": 1433, "pitch": 57, "duration": 3, "velocity": 96}, {"time": 1436, "pitch": 43, "duration": 20, "velocity": 86}, {"time": 1439, "pitch": 50, "duration": 18, "velocity": 73}, {"time": 1442, "pitch": 55, "duration": 6, "velocity": 99}, {"time": 1445, "pitch": 62, "duration": 4, "velocity": 99}, {"time": 1448, "pitch": 71, "duration": 10, "velocity": 127}, {"time": 1451, "pitch": 55, "duration": 7, "velocity": 102}, {"time": 1454, "pitch": 67, "duration": 4, "velocity": 112}, {"time": 1457, "pitch": 62, "duration": 3, "velocity": 96}, {"time": 1460, "pitch": 50, "duration": 9, "velocity": 82}, {"time": 1463, "pitch": 62, "duration": 4, "velocity": 107}, {"time": 1466, "pitch": 69, "duration": 5, "velocity": 122}, {"time": 1469, "pitch": 66, "duration": 2, "velocity": 127}, {"time": 1472, "pitch": 49, "duration": 11, "velocity": 112}, {"time": 1475, "pitch": 61, "duration": 4, "velocity": 93}, {"time": 1478, "pitch": 69, "duration": 6, "velocity": 82}, {"time": 1481, "pitch": 61, "duration": 2, "velocity": 99}, {"time": 1484, "pitch": 47, "duration": 19, "velocity": 82}, {"time": 1487, "pitch": 54, "duration": 10, "velocity": 93}, {"time": 1490, "pitch": 59, "duration": 3, "velocity": 95}, {"time": 1493, "pitch": 62, "duration": 3, "velocity": 102}, {"time": 1496, "pitch": 66, "duration": 10, "velocity": 127}, {"time": 1499, "pitch": 54, "duration": 4, "velocity": 102}, {"time": 1502, "pitch": 62, "duration": 4, "velocity": 107}, {"time": 1505, "pitch": 59, "duration": 3, "velocity": 100}, {"time": 1508, "pitch": 42, "duration": 18, "velocity": 96}, {"time": 1511, "pitch": 54, "duration": 9, "velocity": 93}, {"time": 1514, "pitch": 57, "duration": 7, "velocity": 88}, {"time": 1517, "pitch": 61, "duration": 3, "velocity": 127}, {"time": 1520, "pitch": 66, "duration": 11, "velocity": 127}, {"time": 1523, "pitch": 54, "duration": 4, "velocity": 100}, {"time": 1526, "pitch": 61, "duration": 5, "velocity": 122}, {"time": 1529, "pitch": 57, "duration": 2, "velocity": 97}, {"time": 1532, "pitch": 43, "duration": 21, "velocity": 99}, {"time": 1535, "pitch": 50, "duration": 20, "velocity": 95}, {"time": 1538, "pitch": 55, "duration": 7, "velocity": 102}, {"time": 1541, "pitch": 59, "duration": 4, "velocity": 92}, {"time": 1544, "pitch": 67, "duration": 11, "velocity": 127}, {"time": 1547, "pitch": 55, "duration": 2, "velocity": 100}, {"time": 1550, "pitch": 62, "duration": 5, "velocity": 99}, {"time": 1553, "pitch": 59, "duration": 2, "velocity": 122}, {"time": 1556, "pitch": 45, "duration": 21, "velocity": 92}, {"time": 1559, "pitch": 52, "duration": 10, "velocity": 95}, {"time": 1562, "pitch": 57, "duration": 3, "velocity": 107}, {"time": 1565, "pitch": 61, "duration": 3, "velocity": 127}, {"time": 1568, "pitch": 64, "duration": 11, "velocity": 107}, {"time": 1571, "pitch": 52, "duration": 6, "velocity": 97}, {"time": 1574, "pitch": 61, "duration": 4, "velocity": 127}, {"time": 1577, "pitch": 57, "duration": 2, "velocity": 107}, {"time": 1580, "pitch": 47, "duration": 16, "velocity": 92}, {"time": 1583, "pitch": 54, "duration": 10, "velocity": 95}, {"time": 1586, "pitch": 59, "duration": 2, "velocity": 96}, {"time": 1589, "pitch": 62, "duration": 3, "velocity": 112}, {"time": 1592, "pitch": 66, "duration": 11, "velocity": 127}, {"time": 1595, "pitch": 54, "duration": 1, "velocity": 122}, {"time": 1598, "pitch": 62, "duration": 4, "velocity": 117}, {"time": 1601, "pitch": 59, "duration": 4, "velocity": 100}, {"time": 1604, "pitch": 42, "duration": 18, "velocity": 89}, {"time": 1607, "pitch": 49, "duration": 13, "velocity": 59}, {"time": 1610, "pitch": 54, "duration": 7, "velocity": 102}, {"time": 1613, "pitch": 57, "duration": 5, "velocity": 102}, {"time": 1616, "pitch": 66, "duration": 11, "velocity": 122}, {"time": 1619, "pitch": 54, "duration": 3, "velocity": 93}, {"time": 1622, "pitch": 61, "duration": 5, "velocity": 112}, {"time": 1625, "pitch": 57, "duration": 3, "velocity": 96}, {"time": 1628, "pitch": 43, "duration": 20, "velocity": 97}, {"time": 1631, "pitch": 50, "duration": 18, "velocity": 82}, {"time": 1634, "pitch": 55, "duration": 6, "velocity": 107}, {"time": 1637, "pitch": 62, "duration": 5, "velocity": 79}, {"time": 1640, "pitch": 71, "duration": 12, "velocity": 122}, {"time": 1643, "pitch": 55, "duration": 2, "velocity": 93}, {"time": 1646, "pitch": 67, "duration": 6, "velocity": 96}, {"time": 1649, "pitch": 62, "duration": 3, "velocity": 99}, {"time": 1652, "pitch": 38, "duration": 17, "velocity": 86}, {"time": 1655, "pitch": 45, "duration": 14, "velocity": 97}, {"time": 1658, "pitch": 50, "duration": 7, "velocity": 96}, {"time": 1661, "pitch": 57, "duration": 5, "velocity": 107}, {"time": 1664, "pitch": 66, "duration": 12, "velocity": 127}, {"time": 1667, "pitch": 50, "duration": 4, "velocity": 99}, {"time": 1670, "pitch": 62, "duration": 6, "velocity": 107}, {"time": 1673, "pitch": 61, "duration": 3, "velocity": 112}, {"time": 1676, "pitch": 47, "duration": 16, "velocity": 85}, {"time": 1679, "pitch": 54, "duration": 11, "velocity": 93}, {"time": 1682, "pitch": 59, "duration": 3, "velocity": 99}, {"time": 1685, "pitch": 62, "duration": 3, "velocity": 100}, {"time": 1688, "pitch": 66, "duration": 11, "velocity": 122}, {"time": 1691, "pitch": 54, "duration": 1, "velocity": 96}, {"time": 1694, "pitch": 62, "duration": 5, "velocity": 100}, {"time": 1697, "pitch": 59, "duration": 3, "velocity": 97}, {"time": 1700, "pitch": 42, "duration": 17, "velocity": 89}, {"time": 1703, "pitch": 49, "duration": 14, "velocity": 89}, {"time": 1706, "pitch": 54, "duration": 6, "velocity": 97}, {"time": 1709, "pitch": 57, "duration": 5, "velocity": 95}, {"time": 1712, "pitch": 66, "duration": 10, "velocity": 127}, {"time": 1715, "pitch": 54, "duration": 2, "velocity": 95}, {"time": 1718, "pitch": 61, "duration": 5, "velocity": 117}, {"time": 1721, "pitch": 57, "duration": 3, "velocity": 99}, {"time": 1724, "pitch": 43, "duration": 22, "velocity": 89}, {"time": 1727, "pitch": 50, "duration": 21, "velocity": 86}, {"time": 1730, "pitch": 55, "duration": 7, "velocity": 96}, {"time": 1733, "pitch": 59, "duration": 4, "velocity": 90}, {"time": 1736, "pitch": 67, "duration": 10, "velocity": 112}, {"time": 1739, "pitch": 55, "duration": 2, "velocity": 100}, {"time": 1742, "pitch": 62, "duration": 4, "velocity": 92}, {"time": 1745, "pitch": 59, "duration": 3, "velocity": 100}, {"time": 1748, "pitch": 45, "duration": 21, "velocity": 93}, {"time": 1751, "pitch": 52, "duration": 10, "velocity": 83}, {"time": 1754, "pitch": 57, "duration": 3, "velocity": 97}, {"time": 1757, "pitch": 61, "duration": 3, "velocity": 127}, {"time": 1760, "pitch": 64, "duration": 6, "velocity": 102}, {"time": 1763, "pitch": 52, "duration": 9, "velocity": 117}, {"time": 1766, "pitch": 61, "duration": 5, "velocity": 127}, {"time": 1769, "pitch": 64, "duration": 2, "velocity": 85}, {"time": 1772, "pitch": 45, "duration": 14, "velocity": 117}, {"time": 1772, "pitch": 57, "duration": 13, "velocity": 107}, {"time": 1772, "pitch": 61, "duration": 14, "velocity": 95}, {"time": 1772, "pitch": 64, "duration": 14, "velocity": 93}, {"time": 1796, "pitch": 47, "duration": 21, "velocity": 92}, {"time": 1799, "pitch": 54, "duration": 10, "velocity": 95}, {"time": 1802, "pitch": 59, "duration": 5, "velocity": 81}, {"time": 1805, "pitch": 62, "duration": 3, "velocity": 68}, {"time": 1808, "pitch": 66, "duration": 22, "velocity": 102}, {"time": 1811, "pitch": 54, "duration": 9, "velocity": 70}, {"time": 1814, "pitch": 62, "duration": 17, "velocity": 55}, {"time": 1817, "pitch": 59, "duration": 14, "velocity": 63}, {"time": 1820, "pitch": 47, "duration": 22, "velocity": 72}, {"time": 1832, "pitch": 54, "duration": 2, "velocity": 28}, {"time": 1832, "pitch": 62, "duration": 6, "velocity": 122}, {"time": 1832, "pitch": 66, "duration": 6, "velocity": 127}, {"time": 1835, "pitch": 54, "duration": 8, "velocity": 112}, {"time": 1838, "pitch": 59, "duration": 6, "velocity": 97}, {"time": 1841, "pitch": 62, "duration": 3, "velocity": 93}, {"time": 1841, "pitch": 66, "duration": 3, "velocity": 122}, {"time": 1844, "pitch": 47, "duration": 19, "velocity": 95}, {"time": 1847, "pitch": 54, "duration": 15, "velocity": 99}, {"time": 1850, "pitch": 59, "duration": 6, "velocity": 102}, {"time": 1853, "pitch": 71, "duration": 4, "velocity": 93}, {"time": 1856, "pitch": 78, "duration": 11, "velocity": 127}, {"time": 1859, "pitch": 59, "duration": 3, "velocity": 99}, {"time": 1862, "pitch": 74, "duration": 5, "velocity": 100}, {"time": 1865, "pitch": 71, "duration": 3, "velocity": 96}, {"time": 1868, "pitch": 45, "duration": 18, "velocity": 88}, {"time": 1871, "pitch": 52, "duration": 14, "velocity": 72}, {"time": 1874, "pitch": 57, "duration": 7, "velocity": 107}, {"time": 1877, "pitch": 64, "duration": 7, "velocity": 92}, {"time": 1880, "pitch": 73, "duration": 10, "velocity": 127}, {"time": 1883, "pitch": 57, "duration": 1, "velocity": 102}, {"time": 1886, "pitch": 69, "duration": 5, "velocity": 122}, {"time": 1889, "pitch": 64, "duration": 4, "velocity": 96}, {"time": 1892, "pitch": 43, "duration": 22, "velocity": 89}, {"time": 1895, "pitch": 50, "duration": 21, "velocity": 65}, {"time": 1898, "pitch": 55, "duration": 7, "velocity": 102}, {"time": 1901, "pitch": 62, "duration": 7, "velocity": 107}, {"time": 1904, "pitch": 71, "duration": 12, "velocity": 127}, {"time": 1907, "pitch": 55, "duration": 3, "velocity": 100}, {"time": 1910, "pitch": 67, "duration": 6, "velocity": 88}, {"time": 1913, "pitch": 62, "duration": 3, "velocity": 100}, {"time": 1916, "pitch": 43, "duration": 13, "velocity": 86}, {"time": 1919, "pitch": 50, "duration": 10, "velocity": 96}, {"time": 1922, "pitch": 55, "duration": 5, "velocity": 100}, {"time": 1925, "pitch": 59, "duration": 3, "velocity": 75}, {"time": 1928, "pitch": 62, "duration": 1, "velocity": 95}, {"time": 1931, "pitch": 45, "duration": 8, "velocity": 112}, {"time": 1931, "pitch": 57, "duration": 9, "velocity": 112}, {"time": 1931, "pitch": 61, "duration": 9, "velocity": 127}, {"time": 1931, "pitch": 64, "duration": 9, "velocity": 122}, {"time": 1940, "pitch": 47, "duration": 18, "velocity": 102}, {"time": 1943, "pitch": 54, "duration": 10, "velocity": 102}, {"time": 1946, "pitch": 59, "duration": 3, "velocity": 99}, {"time": 1949, "pitch": 62, "duration": 3, "velocity": 100}, {"time": 1952, "pitch": 66, "duration": 11, "velocity": 127}, {"time": 1955, "pitch": 54, "duration": 3, "velocity": 95}, {"time": 1958, "pitch": 62, "duration": 5, "velocity": 99}, {"time": 1961, "pitch": 59, "duration": 3, "velocity": 97}, {"time": 1964, "pitch": 45, "duration": 18, "velocity": 77}, {"time": 1967, "pitch": 52, "duration": 11, "velocity": 74}, {"time": 1970, "pitch": 57, "duration": 4, "velocity": 102}, {"time": 1973, "pitch": 64, "duration": 6, "velocity": 89}, {"time": 1976, "pitch": 73, "duration": 10, "velocity": 127}, {"time": 1979, "pitch": 52, "duration": 2, "velocity": 88}, {"time": 1982, "pitch": 69, "duration": 5, "velocity": 95}, {"time": 1985, "pitch": 64, "duration": 3, "velocity": 112}, {"time": 1988, "pitch": 43, "duration": 22, "velocity": 88}, {"time": 1991, "pitch": 50, "duration": 21, "velocity": 88}, {"time": 1994, "pitch": 55, "duration": 7, "velocity": 92}, {"time": 1997, "pitch": 62, "duration": 5, "velocity": 77}, {"time": 2000, "pitch": 71, "duration": 12, "velocity": 122}, {"time": 2003, "pitch": 55, "duration": 4, "velocity": 93}, {"time": 2006, "pitch": 67, "duration": 8, "velocity": 93}, {"time": 2009, "pitch": 62, "duration": 5, "velocity": 99}, {"time": 2012, "pitch": 43, "duration": 21, "velocity": 85}, {"time": 2015, "pitch": 50, "duration": 18, "velocity": 82}, {"time": 2018, "pitch": 55, "duration": 6, "velocity": 100}, {"time": 2021, "pitch": 62, "duration": 4, "velocity": 90}, {"time": 2024, "pitch": 67, "duration": 7, "velocity": 97}, {"time": 2024, "pitch": 71, "duration": 11, "velocity": 107}, {"time": 2027, "pitch": 55, "duration": 2, "velocity": 102}, {"time": 2030, "pitch": 62, "duration": 5, "velocity": 90}, {"time": 2033, "pitch": 67, "duration": 2, "velocity": 92}, {"time": 2036, "pitch": 40, "duration": 17, "velocity": 102}, {"time": 2039, "pitch": 47, "duration": 15, "velocity": 93}, {"time": 2042, "pitch": 52, "duration": 6, "velocity": 99}, {"time": 2045, "pitch": 59, "duration": 4, "velocity": 81}, {"time": 2048, "pitch": 68, "duration": 11, "velocity": 117}, {"time": 2051, "pitch": 52, "duration": 3, "velocity": 99}, {"time": 2054, "pitch": 64, "duration": 5, "velocity": 97}, {"time": 2057, "pitch": 59, "duration": 4, "velocity": 99}, {"time": 2060, "pitch": 42, "duration": 18, "velocity": 89}, {"time": 2063, "pitch": 49, "duration": 15, "velocity": 53}, {"time": 2066, "pitch": 54, "duration": 6, "velocity": 96}, {"time": 2069, "pitch": 57, "duration": 6, "velocity": 95}, {"time": 2072, "pitch": 66, "duration": 11, "velocity": 127}, {"time": 2075, "pitch": 54, "duration": 3, "velocity": 100}, {"time": 2078, "pitch": 61, "duration": 5, "velocity": 122}, {"time": 2081, "pitch": 57, "duration": 3, "velocity": 100}, {"time": 2084, "pitch": 43, "duration": 22, "velocity": 86}, {"time": 2087, "pitch": 50, "duration": 20, "velocity": 90}, {"time": 2090, "pitch": 55, "duration": 7, "velocity": 102}, {"time": 2093, "pitch": 62, "duration": 5, "velocity": 102}, {"time": 2096, "pitch": 71, "duration": 11, "velocity": 117}, {"time": 2099, "pitch": 55, "duration": 3, "velocity": 102}, {"time": 2102, "pitch": 67, "duration": 5, "velocity": 96}, {"time": 2105, "pitch": 62, "duration": 3, "velocity": 99}, {"time": 2108, "pitch": 45, "duration": 20, "velocity": 96}, {"time": 2111, "pitch": 52, "duration": 20, "velocity": 93}, {"time": 2114, "pitch": 57, "duration": 6, "velocity": 102}, {"time": 2117, "pitch": 64, "duration": 5, "velocity": 96}, {"time": 2120, "pitch": 73, "duration": 7, "velocity": 127}, {"time": 2123, "pitch": 57, "duration": 2, "velocity": 122}, {"time": 2126, "pitch": 69, "duration": 3, "velocity": 122}, {"time": 2129, "pitch": 64, "duration": 2, "velocity": 100}, {"time": 2132, "pitch": 45, "duration": 19, "velocity": 69}, {"time": 2132, "pitch": 52, "duration": 22, "velocity": 70}, {"time": 2132, "pitch": 57, "duration": 12, "velocity": 117}, {"time": 2132, "pitch": 64, "duration": 22, "velocity": 92}, {"time": 2132, "pitch": 69, "duration": 23, "velocity": 127}, {"time": 2132, "pitch": 73, "duration": 23, "velocity": 127}, {"time": 2156, "pitch": 47, "duration": 23, "velocity": 82}, {"time": 2159, "pitch": 54, "duration": 11, "velocity": 50}, {"time": 2162, "pitch": 59, "duration": 6, "velocity": 78}, {"time": 2165, "pitch": 62, "duration": 3, "velocity": 66}, {"time": 2168, "pitch": 66, "duration": 35, "velocity": 102}, {"time": 2171, "pitch": 54, "duration": 32, "velocity": 86}, {"time": 2174, "pitch": 62, "duration": 29, "velocity": 63}, {"time": 2177, "pitch": 61, "duration": 3, "velocity": 75}, {"time": 2180, "pitch": 47, "duration": 23, "velocity": 65}, {"time": 2180, "pitch": 59, "duration": 23, "velocity": 72}, {"time": 2204, "pitch": 47, "duration": 23, "velocity": 83}, {"time": 2210, "pitch": 54, "duration": 19, "velocity": 63}, {"time": 2216, "pitch": 59, "duration": 13, "velocity": 71}, {"time": 2216, "pitch": 66, "duration": 8, "velocity": 77}, {"time": 2222, "pitch": 62, "duration": 30, "velocity": 59}, {"time": 2228, "pitch": 47, "duration": 15, "velocity": 65}, {"time": 2234, "pitch": 54, "duration": 10, "velocity": 34}, {"time": 2240, "pitch": 59, "duration": 3, "velocity": 73}, {"time": 2240, "pitch": 71, "duration": 12, "velocity": 76}, {"time": 2246, "pitch": 66, "duration": 7, "velocity": 75}, {"time": 2252, "pitch": 42, "duration": 23, "velocity": 74}, {"time": 2258, "pitch": 49, "duration": 18, "velocity": 45}, {"time": 2264, "pitch": 54, "duration": 13, "velocity": 67}, {"time": 2264, "pitch": 61, "duration": 24, "velocity": 74}, {"time": 2270, "pitch": 57, "duration": 23, "velocity": 54}, {"time": 2276, "pitch": 42, "duration": 18, "velocity": 81}, {"time": 2282, "pitch": 49, "duration": 11, "velocity": 35}, {"time": 2288, "pitch": 66, "duration": 11, "velocity": 102}, {"time": 2291, "pitch": 54, "duration": 4, "velocity": 71}, {"time": 2294, "pitch": 61, "duration": 5, "velocity": 97}, {"time": 2297, "pitch": 57, "duration": 3, "velocity": 79}, {"time": 2300, "pitch": 47, "duration": 22, "velocity": 79}, {"time": 2306, "pitch": 54, "duration": 18, "velocity": 68}, {"time": 2312, "pitch": 66, "duration": 20, "velocity": 100}, {"time": 2318, "pitch": 62, "duration": 17, "velocity": 67}, {"time": 2324, "pitch": 47, "duration": 13, "velocity": 81}, {"time": 2330, "pitch": 54, "duration": 8, "velocity": 64}, {"time": 2336, "pitch": 66, "duration": 12, "velocity": 122}, {"time": 2342, "pitch": 62, "duration": 6, "velocity": 55}, {"time": 2345, "pitch": 59, "duration": 4, "velocity": 57}, {"time": 2348, "pitch": 42, "duration": 22, "velocity": 86}, {"time": 2354, "pitch": 49, "duration": 18, "velocity": 34}, {"time": 2360, "pitch": 54, "duration": 16, "velocity": 74}, {"time": 2360, "pitch": 61, "duration": 22, "velocity": 85}, {"time": 2366, "pitch": 57, "duration": 26, "velocity": 69}, {"time": 2372, "pitch": 42, "duration": 17, "velocity": 81}, {"time": 2378, "pitch": 49, "duration": 11, "velocity": 56}, {"time": 2384, "pitch": 54, "duration": 6, "velocity": 76}, {"time": 2384, "pitch": 66, "duration": 12, "velocity": 100}, {"time": 2390, "pitch": 61, "duration": 5, "velocity": 89}, {"time": 2396, "pitch": 45, "duration": 22, "velocity": 89}, {"time": 2399, "pitch": 52, "duration": 22, "velocity": 42}, {"time": 2402, "pitch": 57, "duration": 7, "velocity": 88}, {"time": 2408, "pitch": 69, "duration": 36, "velocity": 69}, {"time": 2414, "pitch": 61, "duration": 16, "velocity": 67}, {"time": 2420, "pitch": 45, "duration": 21, "velocity": 71}, {"time": 2426, "pitch": 52, "duration": 17, "velocity": 35}, {"time": 2432, "pitch": 57, "duration": 4, "velocity": 73}, {"time": 2432, "pitch": 64, "duration": 12, "velocity": 82}, {"time": 2438, "pitch": 61, "duration": 7, "velocity": 79}, {"time": 2444, "pitch": 47, "duration": 22, "velocity": 88}, {"time": 2450, "pitch": 54, "duration": 19, "velocity": 56}, {"time": 2456, "pitch": 66, "duration": 22, "velocity": 117}, {"time": 2462, "pitch": 62, "duration": 17, "velocity": 61}, {"time": 2468, "pitch": 47, "duration": 16, "velocity": 76}, {"time": 2474, "pitch": 54, "duration": 9, "velocity": 62}, {"time": 2480, "pitch": 66, "duration": 12, "velocity": 127}, {"time": 2486, "pitch": 62, "duration": 6, "velocity": 88}, {"time": 2492, "pitch": 42, "duration": 16, "velocity": 107}, {"time": 2498, "pitch": 54, "duration": 7, "velocity": 73}, {"time": 2504, "pitch": 66, "duration": 11, "velocity": 117}, {"time": 2510, "pitch": 61, "duration": 6, "velocity": 97}, {"time": 2516, "pitch": 45, "duration": 22, "velocity": 95}, {"time": 2522, "pitch": 52, "duration": 17, "velocity": 66}, {"time": 2528, "pitch": 64, "duration": 12, "velocity": 100}, {"time": 2534, "pitch": 61, "duration": 5, "velocity": 112}, {"time": 2537, "pitch": 57, "duration": 3, "velocity": 81}, {"time": 2540, "pitch": 47, "duration": 22, "velocity": 96}, {"time": 2546, "pitch": 54, "duration": 7, "velocity": 89}, {"time": 2552, "pitch": 66, "duration": 12, "velocity": 122}, {"time": 2555, "pitch": 54, "duration": 8, "velocity": 86}, {"time": 2558, "pitch": 62, "duration": 6, "velocity": 75}, {"time": 2561, "pitch": 61, "duration": 3, "velocity": 74}, {"time": 2564, "pitch": 47, "duration": 14, "velocity": 88}, {"time": 2567, "pitch": 54, "duration": 10, "velocity": 95}, {"time": 2570, "pitch": 59, "duration": 6, "velocity": 88}, {"time": 2573, "pitch": 71, "duration": 4, "velocity": 74}, {"time": 2576, "pitch": 78, "duration": 12, "velocity": 122}, {"time": 2579, "pitch": 74, "duration": 9, "velocity": 97}, {"time": 2582, "pitch": 73, "duration": 6, "velocity": 88}, {"time": 2585, "pitch": 71, "duration": 3, "velocity": 65}, {"time": 2588, "pitch": 42, "duration": 17, "velocity": 95}, {"time": 2594, "pitch": 49, "duration": 11, "velocity": 34}, {"time": 2600, "pitch": 54, "duration": 5, "velocity": 63}, {"time": 2600, "pitch": 61, "duration": 12, "velocity": 112}, {"time": 2606, "pitch": 64, "duration": 7, "velocity": 76}, {"time": 2612, "pitch": 45, "duration": 18, "velocity": 78}, {"time": 2618, "pitch": 52, "duration": 12, "velocity": 77}, {"time": 2624, "pitch": 64, "duration": 12, "velocity": 95}, {"time": 2630, "pitch": 61, "duration": 6, "velocity": 117}, {"time": 2636, "pitch": 47, "duration": 18, "velocity": 74}, {"time": 2642, "pitch": 54, "duration": 17, "velocity": 89}, {"time": 2648, "pitch": 62, "duration": 3, "velocity": 76}, {"time": 2648, "pitch": 66, "duration": 12, "velocity": 127}, {"time": 2654, "pitch": 61, "duration": 5, "velocity": 89}, {"time": 2657, "pitch": 59, "duration": 3, "velocity": 69}, {"time": 2660, "pitch": 47, "duration": 16, "velocity": 73}, {"time": 2663, "pitch": 54, "duration": 12, "velocity": 56}, {"time": 2666, "pitch": 59, "duration": 7, "velocity": 86}, {"time": 2669, "pitch": 71, "duration": 4, "velocity": 75}, {"time": 2672, "pitch": 78, "duration": 12, "velocity": 117}, {"time": 2675, "pitch": 74, "duration": 9, "velocity": 64}, {"time": 2678, "pitch": 71, "duration": 7, "velocity": 85}, {"time": 2684, "pitch": 42, "duration": 18, "velocity": 77}, {"time": 2690, "pitch": 49, "duration": 12, "velocity": 44}, {"time": 2696, "pitch": 54, "duration": 7, "velocity": 82}, {"time": 2696, "pitch": 61, "duration": 8, "velocity": 99}, {"time": 2702, "pitch": 64, "duration": 2, "velocity": 67}, {"time": 2708, "pitch": 45, "duration": 11, "velocity": 95}, {"time": 2714, "pitch": 52, "duration": 5, "velocity": 86}, {"time": 2719, "pitch": 45, "duration": 3, "velocity": 100}, {"time": 2720, "pitch": 61, "duration": 3, "velocity": 112}, {"time": 2720, "pitch": 57, "duration": 3, "velocity": 96}, {"time": 2720, "pitch": 64, "duration": 3, "velocity": 96}, {"time": 2724, "pitch": 45, "duration": 2, "velocity": 90}, {"time": 2724, "pitch": 61, "duration": 3, "velocity": 97}, {"time": 2724, "pitch": 64, "duration": 3, "velocity": 92}, {"time": 2724, "pitch": 57, "duration": 3, "velocity": 93}, {"time": 2728, "pitch": 45, "duration": 3, "velocity": 95}, {"time": 2728, "pitch": 61, "duration": 2, "velocity": 96}, {"time": 2728, "pitch": 64, "duration": 3, "velocity": 90}, {"time": 2728, "pitch": 57, "duration": 3, "velocity": 83}, {"time": 2732, "pitch": 47, "duration": 25, "velocity": 99}, {"time": 2732, "pitch": 59, "duration": 7, "velocity": 92}, {"time": 2732, "pitch": 62, "duration": 6, "velocity": 107}, {"time": 2732, "pitch": 66, "duration": 7, "velocity": 99}, {"time": 2738, "pitch": 54, "duration": 8, "velocity": 66}, {"time": 2741, "pitch": 59, "duration": 1, "velocity": 37}, {"time": 2744, "pitch": 59, "duration": 7, "velocity": 99}, {"time": 2744, "pitch": 62, "duration": 7, "velocity": 112}, {"time": 2744, "pitch": 66, "duration": 7, "velocity": 122}, {"time": 2750, "pitch": 54, "duration": 6, "velocity": 90}, {"time": 2753, "pitch": 59, "duration": 1, "velocity": 68}, {"time": 2753, "pitch": 62, "duration": 1, "velocity": 78}, {"time": 2753, "pitch": 66, "duration": 1, "velocity": 82}, {"time": 2756, "pitch": 59, "duration": 2, "velocity": 107}, {"time": 2756, "pitch": 62, "duration": 1, "velocity": 122}, {"time": 2756, "pitch": 66, "duration": 3, "velocity": 127}, {"time": 2759, "pitch": 47, "duration": 11, "velocity": 59}, {"time": 2759, "pitch": 54, "duration": 10, "velocity": 100}, {"time": 2762, "pitch": 59, "duration": 1, "velocity": 75}, {"time": 2762, "pitch": 62, "duration": 1, "velocity": 45}, {"time": 2765, "pitch": 59, "duration": 1, "velocity": 86}, {"time": 2765, "pitch": 62, "duration": 1, "velocity": 102}, {"time": 2765, "pitch": 66, "duration": 1, "velocity": 117}, {"time": 2768, "pitch": 59, "duration": 3, "velocity": 92}, {"time": 2768, "pitch": 62, "duration": 2, "velocity": 127}, {"time": 2768, "pitch": 66, "duration": 4, "velocity": 127}, {"time": 2771, "pitch": 47, "duration": 7, "velocity": 39}, {"time": 2771, "pitch": 54, "duration": 8, "velocity": 122}, {"time": 2771, "pitch": 62, "duration": 1, "velocity": 29}, {"time": 2774, "pitch": 62, "duration": 4, "velocity": 117}, {"time": 2774, "pitch": 66, "duration": 4, "velocity": 122}, {"time": 2777, "pitch": 59, "duration": 2, "velocity": 102}, {"time": 2780, "pitch": 47, "duration": 17, "velocity": 99}, {"time": 2783, "pitch": 54, "duration": 13, "velocity": 112}, {"time": 2786, "pitch": 59, "duration": 6, "velocity": 107}, {"time": 2789, "pitch": 71, "duration": 5, "velocity": 102}, {"time": 2792, "pitch": 78, "duration": 11, "velocity": 127}, {"time": 2795, "pitch": 59, "duration": 1, "velocity": 117}, {"time": 2798, "pitch": 74, "duration": 5, "velocity": 99}, {"time": 2801, "pitch": 71, "duration": 3, "velocity": 102}, {"time": 2804, "pitch": 42, "duration": 18, "velocity": 86}, {"time": 2807, "pitch": 49, "duration": 14, "velocity": 69}, {"time": 2810, "pitch": 54, "duration": 6, "velocity": 102}, {"time": 2813, "pitch": 57, "duration": 6, "velocity": 102}, {"time": 2816, "pitch": 66, "duration": 11, "velocity": 127}, {"time": 2819, "pitch": 54, "duration": 2, "velocity": 97}, {"time": 2822, "pitch": 61, "duration": 5, "velocity": 117}, {"time": 2825, "pitch": 57, "duration": 3, "velocity": 96}, {"time": 2828, "pitch": 43, "duration": 20, "velocity": 86}, {"time": 2831, "pitch": 50, "duration": 18, "velocity": 73}, {"time": 2834, "pitch": 55, "duration": 6, "velocity": 99}, {"time": 2837, "pitch": 62, "duration": 4, "velocity": 99}, {"time": 2840, "pitch": 71, "duration": 10, "velocity": 127}, {"time": 2843, "pitch": 55, "duration": 7, "velocity": 102}, {"time": 2846, "pitch": 67, "duration": 4, "velocity": 112}, {"time": 2849, "pitch": 62, "duration": 3, "velocity": 96}, {"time": 2852, "pitch": 50, "duration": 9, "velocity": 82}, {"time": 2855, "pitch": 62, "duration": 4, "velocity": 107}, {"time": 2858, "pitch": 69, "duration": 5, "velocity": 122}, {"time": 2861, "pitch": 66, "duration": 2, "velocity": 127}, {"time": 2864, "pitch": 49, "duration": 11, "velocity": 112}, {"time": 2867, "pitch": 61, "duration": 4, "velocity": 93}, {"time": 2870, "pitch": 69, "duration": 6, "velocity": 82}, {"time": 2873, "pitch": 61, "duration": 2, "velocity": 99}, {"time": 2876, "pitch": 47, "duration": 19, "velocity": 82}, {"time": 2879, "pitch": 54, "duration": 10, "velocity": 93}, {"time": 2882, "pitch": 59, "duration": 3, "velocity": 95}, {"time": 2885, "pitch": 62, "duration": 3, "velocity": 102}, {"time": 2888, "pitch": 66, "duration": 10, "velocity": 127}, {"time": 2891, "pitch": 54, "duration": 4, "velocity": 102}, {"time": 2894, "pitch": 62, "duration": 4, "velocity": 107}, {"time": 2897, "pitch": 59, "duration": 3, "velocity": 100}, {"time": 2900, "pitch": 42, "duration": 18, "velocity": 96}, {"time": 2903, "pitch": 54, "duration": 9, "velocity": 93}, {"time": 2906, "pitch": 57, "duration": 7, "velocity": 88}, {"time": 2909, "pitch": 61, "duration": 3, "velocity": 127}, {"time": 2912, "pitch": 66, "duration": 11, "velocity": 127}, {"time": 2915, "pitch": 54, "duration": 4, "velocity": 100}, {"time": 2918, "pitch": 61, "duration": 5, "velocity": 122}, {"time": 2921, "pitch": 57, "duration": 2, "velocity": 97}, {"time": 2924, "pitch": 43, "duration": 21, "velocity": 99}, {"time": 2927, "pitch": 50, "duration": 20, "velocity": 95}, {"time": 2930, "pitch": 55, "duration": 7, "velocity": 102}, {"time": 2933, "pitch": 59, "duration": 4, "velocity": 92}, {"time": 2936, "pitch": 67, "duration": 11, "velocity": 127}, {"time": 2939, "pitch": 55, "duration": 2, "velocity": 100}, {"time": 2942, "pitch": 62, "duration": 5, "velocity": 99}, {"time": 2945, "pitch": 59, "duration": 2, "velocity": 122}, {"time": 2948, "pitch": 45, "duration": 21, "velocity": 92}, {"time": 2951, "pitch": 52, "duration": 10, "velocity": 95}, {"time": 2954, "pitch": 57, "duration": 3, "velocity": 107}, {"time": 2957, "pitch": 61, "duration": 3, "velocity": 127}, {"time": 2960, "pitch": 64, "duration": 11, "velocity": 107}, {"time": 2963, "pitch": 52, "duration": 6, "velocity": 97}, {"time": 2966, "pitch": 61, "duration": 4, "velocity": 127}, {"time": 2969, "pitch": 57, "duration": 2, "velocity": 107}, {"time": 2972, "pitch": 47, "duration": 16, "velocity": 92}, {"time": 2975, "pitch": 54, "duration": 10, "velocity": 95}, {"time": 2978, "pitch": 59, "duration": 2, "velocity": 96}, {"time": 2981, "pitch": 62, "duration": 3, "velocity": 112}, {"time": 2984, "pitch": 66, "duration": 11, "velocity": 127}, {"time": 2987, "pitch": 54, "duration": 1, "velocity": 122}, {"time": 2990, "pitch": 62, "duration": 4, "velocity": 117}, {"time": 2993, "pitch": 59, "duration": 4, "velocity": 100}, {"time": 2996, "pitch": 42, "duration": 18, "velocity": 89}, {"time": 2999, "pitch": 49, "duration": 13, "velocity": 59}, {"time": 3002, "pitch": 54, "duration": 7, "velocity": 102}, {"time": 3005, "pitch": 57, "duration": 5, "velocity": 102}, {"time": 3008, "pitch": 66, "duration": 11, "velocity": 122}, {"time": 3011, "pitch": 54, "duration": 3, "velocity": 93}, {"time": 3014, "pitch": 61, "duration": 5, "velocity": 112}, {"time": 3017, "pitch": 57, "duration": 3, "velocity": 96}, {"time": 3020, "pitch": 43, "duration": 20, "velocity": 97}, {"time": 3023, "pitch": 50, "duration": 18, "velocity": 82}, {"time": 3026, "pitch": 55, "duration": 6, "velocity": 107}, {"time": 3029, "pitch": 62, "duration": 5, "velocity": 79}, {"time": 3032, "pitch": 71, "duration": 12, "velocity": 122}, {"time": 3035, "pitch": 55, "duration": 2, "velocity": 93}, {"time": 3038, "pitch": 67, "duration": 6, "velocity": 96}, {"time": 3041, "pitch": 62, "duration": 3, "velocity": 99}, {"time": 3044, "pitch": 38, "duration": 17, "velocity": 86}, {"time": 3047, "pitch": 45, "duration": 14, "velocity": 97}, {"time": 3050, "pitch": 50, "duration": 7, "velocity": 96}, {"time": 3053, "pitch": 57, "duration": 5, "velocity": 107}, {"time": 3056, "pitch": 66, "duration": 12, "velocity": 127}, {"time": 3059, "pitch": 50, "duration": 4, "velocity": 99}, {"time": 3062, "pitch": 62, "duration": 6, "velocity": 107}, {"time": 3065, "pitch": 61, "duration": 3, "velocity": 112}, {"time": 3068, "pitch": 47, "duration": 16, "velocity": 85}, {"time": 3071, "pitch": 54, "duration": 11, "velocity": 93}, {"time": 3074, "pitch": 59, "duration": 3, "velocity": 99}, {"time": 3077, "pitch": 62, "duration": 3, "velocity": 100}, {"time": 3080, "pitch": 66, "duration": 11, "velocity": 122}, {"time": 3083, "pitch": 54, "duration": 1, "velocity": 96}, {"time": 3086, "pitch": 62, "duration": 5, "velocity": 100}, {"time": 3089, "pitch": 59, "duration": 3, "velocity": 97}, {"time": 3092, "pitch": 42, "duration": 17, "velocity": 89}, {"time": 3095, "pitch": 49, "duration": 14, "velocity": 89}, {"time": 3098, "pitch": 54, "duration": 6, "velocity": 97}, {"time": 3101, "pitch": 57, "duration": 5, "velocity": 95}, {"time": 3104, "pitch": 66, "duration": 10, "velocity": 127}, {"time": 3107, "pitch": 54, "duration": 2, "velocity": 95}, {"time": 3110, "pitch": 61, "duration": 5, "velocity": 117}, {"time": 3113, "pitch": 57, "duration": 3, "velocity": 99}, {"time": 3116, "pitch": 43, "duration": 22, "velocity": 89}, {"time": 3119, "pitch": 50, "duration": 21, "velocity": 86}, {"time": 3122, "pitch": 55, "duration": 7, "velocity": 96}, {"time": 3125, "pitch": 59, "duration": 4, "velocity": 90}, {"time": 3128, "pitch": 67, "duration": 10, "velocity": 112}, {"time": 3131, "pitch": 55, "duration": 2, "velocity": 100}, {"time": 3134, "pitch": 62, "duration": 4, "velocity": 92}, {"time": 3137, "pitch": 59, "duration": 3, "velocity": 100}, {"time": 3140, "pitch": 45, "duration": 21, "velocity": 93}, {"time": 3143, "pitch": 52, "duration": 10, "velocity": 83}, {"time": 3146, "pitch": 57, "duration": 3, "velocity": 97}, {"time": 3149, "pitch": 61, "duration": 3, "velocity": 127}, {"time": 3152, "pitch": 64, "duration": 6, "velocity": 102}, {"time": 3155, "pitch": 52, "duration": 9, "velocity": 117}, {"time": 3158, "pitch": 61, "duration": 5, "velocity": 127}, {"time": 3161, "pitch": 64, "duration": 2, "velocity": 85}, {"time": 3164, "pitch": 45, "duration": 14, "velocity": 117}, {"time": 3164, "pitch": 57, "duration": 13, "velocity": 107}, {"time": 3164, "pitch": 61, "duration": 14, "velocity": 95}, {"time": 3164, "pitch": 64, "duration": 14, "velocity": 93}, {"time": 3188, "pitch": 47, "duration": 21, "velocity": 93}, {"time": 3188, "pitch": 62, "duration": 9, "velocity": 90}, {"time": 3188, "pitch": 66, "duration": 9, "velocity": 97}, {"time": 3194, "pitch": 54, "duration": 18, "velocity": 53}, {"time": 3197, "pitch": 59, "duration": 4, "velocity": 35}, {"time": 3200, "pitch": 62, "duration": 4, "velocity": 85}, {"time": 3200, "pitch": 66, "duration": 7, "velocity": 107}, {"time": 3200, "pitch": 71, "duration": 7, "velocity": 92}, {"time": 3203, "pitch": 59, "duration": 7, "velocity": 48}, {"time": 3206, "pitch": 62, "duration": 12, "velocity": 48}, {"time": 3209, "pitch": 66, "duration": 10, "velocity": 64}, {"time": 3209, "pitch": 71, "duration": 10, "velocity": 65}, {"time": 3212, "pitch": 47, "duration": 19, "velocity": 76}, {"time": 3215, "pitch": 54, "duration": 15, "velocity": 86}, {"time": 3218, "pitch": 59, "duration": 7, "velocity": 107}, {"time": 3221, "pitch": 62, "duration": 1, "velocity": 89}, {"time": 3221, "pitch": 66, "duration": 1, "velocity": 58}, {"time": 3221, "pitch": 71, "duration": 1, "velocity": 52}, {"time": 3224, "pitch": 62, "duration": 4, "velocity": 107}, {"time": 3224, "pitch": 66, "duration": 4, "velocity": 127}, {"time": 3224, "pitch": 71, "duration": 4, "velocity": 127}, {"time": 3227, "pitch": 59, "duration": 3, "velocity": 107}, {"time": 3230, "pitch": 62, "duration": 1, "velocity": 117}, {"time": 3230, "pitch": 66, "duration": 1, "velocity": 127}, {"time": 3230, "pitch": 71, "duration": 1, "velocity": 100}, {"time": 3233, "pitch": 62, "duration": 2, "velocity": 97}, {"time": 3233, "pitch": 66, "duration": 2, "velocity": 122}, {"time": 3233, "pitch": 71, "duration": 3, "velocity": 92}, {"time": 3236, "pitch": 43, "duration": 22, "velocity": 99}, {"time": 3239, "pitch": 50, "duration": 21, "velocity": 95}, {"time": 3242, "pitch": 55, "duration": 7, "velocity": 99}, {"time": 3245, "pitch": 62, "duration": 6, "velocity": 97}, {"time": 3245, "pitch": 67, "duration": 1, "velocity": 52}, {"time": 3248, "pitch": 71, "duration": 10, "velocity": 127}, {"time": 3251, "pitch": 55, "duration": 3, "velocity": 112}, {"time": 3254, "pitch": 67, "duration": 5, "velocity": 112}, {"time": 3257, "pitch": 62, "duration": 3, "velocity": 112}, {"time": 3260, "pitch": 45, "duration": 21, "velocity": 96}, {"time": 3263, "pitch": 52, "duration": 10, "velocity": 89}, {"time": 3266, "pitch": 57, "duration": 4, "velocity": 112}, {"time": 3269, "pitch": 64, "duration": 6, "velocity": 99}, {"time": 3272, "pitch": 73, "duration": 10, "velocity": 127}, {"time": 3275, "pitch": 52, "duration": 8, "velocity": 95}, {"time": 3278, "pitch": 69, "duration": 5, "velocity": 117}, {"time": 3281, "pitch": 64, "duration": 2, "velocity": 95}, {"time": 3284, "pitch": 45, "duration": 5, "velocity": 75}, {"time": 3284, "pitch": 52, "duration": 4, "velocity": 96}, {"time": 3284, "pitch": 64, "duration": 5, "velocity": 97}, {"time": 3284, "pitch": 69, "duration": 5, "velocity": 107}, {"time": 3284, "pitch": 73, "duration": 5, "velocity": 112}, {"time": 3356, "pitch": 47, "duration": 19, "velocity": 96}, {"time": 3362, "pitch": 54, "duration": 7, "velocity": 97}, {"time": 3368, "pitch": 62, "duration": 4, "velocity": 122}, {"time": 3368, "pitch": 66, "duration": 4, "velocity": 127}, {"time": 3371, "pitch": 54, "duration": 2, "velocity": 107}, {"time": 3374, "pitch": 62, "duration": 3, "velocity": 112}, {"time": 3374, "pitch": 66, "duration": 3, "velocity": 117}, {"time": 3377, "pitch": 59, "duration": 2, "velocity": 95}, {"time": 3380, "pitch": 40, "duration": 7, "velocity": 100}, {"time": 3380, "pitch": 59, "duration": 6, "velocity": 95}, {"time": 3380, "pitch": 64, "duration": 6, "velocity": 99}, {"time": 3380, "pitch": 68, "duration": 7, "velocity": 112}, {"time": 3392, "pitch": 42, "duration": 6, "velocity": 107}, {"time": 3392, "pitch": 66, "duration": 11, "velocity": 99}, {"time": 3392, "pitch": 69, "duration": 10, "velocity": 102}, {"time": 3392, "pitch": 73, "duration": 10, "velocity": 122}, {"time": 3404, "pitch": 47, "duration": 10, "velocity": 76}, {"time": 3404, "pitch": 54, "duration": 10, "velocity": 117}, {"time": 3404, "pitch": 59, "duration": 10, "velocity": 102}, {"time": 3404, "pitch": 62, "duration": 10, "velocity": 112}, {"time": 3404, "pitch": 66, "duration": 10, "velocity": 100}], "annotations": [{"time": 92, "annotation": {"number": 64, "value": 127}, "group": "control_change"}, {"time": 114, "annotation": {"number": 64, "value": 0}, "group": "control_change"}, {"time": 115, "annotation": {"number": 64, "value": 127}, "group": "control_change"}, {"time": 117, "annotation": {"number": 64, "value": 0}, "group": "control_change"}, {"time": 118, "annotation": {"number": 64, "value": 127}, "group": "control_change"}, {"time": 138, "annotation": {"number": 64, "value": 0}, "group": "control_change"}, {"time": 139, "annotation": {"number": 64, "value": 127}, "group": "control_change"}, {"time": 149, "annotation": {"number": 64, "value": 0}, "group": "control_change"}, {"time": 151, "annotation": {"number": 64, "value": 127}, "group": "control_change"}, {"time": 162, "annotation": {"number": 64, "value": 0}, "group": "control_change"}, {"time": 163, "annotation": {"number": 64, "value": 127}, "group": "control_change"}, {"time": 185, "annotation": {"number": 64, "value": 0}, "group": "control_change"}, {"time": 187, "annotation": {"number": 64, "value": 127}, "group": "control_change"}, {"time": 198, "annotation": {"number": 64, "value": 0}, "group": "control_change"}, {"time": 200, "annotation": {"number": 64, "value": 127}, "group": "control_change"}, {"time": 210, "annotation": {"number": 64, "value": 0}, "group": "control_change"}, {"time": 212, "annotation": {"number": 64, "value": 127}, "group": "control_change"}, {"time": 222, "annotation": {"number": 64, "value": 0}, "group": "control_change"}, {"time": 224, "annotation": {"number": 64, "value": 127}, "group": "control_change"}, {"time": 234, "annotation": {"number": 64, "value": 0}, "group": "control_change"}, {"time": 236, "annotation": {"number": 64, "value": 127}, "group": "control_change"}, {"time": 246, "annotation": {"number": 64, "value": 0}, "group": "control_change"}, {"time": 248, "annotation": {"number": 64, "value": 127}, "group": "control_change"}, {"time": 258, "annotation": {"number": 64, "value": 0}, "group": "control_change"}, {"time": 260, "annotation": {"number": 64, "value": 127}, "group": "control_change"}, {"time": 270, "annotation": {"number": 64, "value": 0}, "group": "control_change"}, {"time": 272, "annotation": {"number": 64, "value": 127}, "group": "control_change"}, {"time": 282, "annotation": {"number": 64, "value": 0}, "group": "control_change"}, {"time": 283, "annotation": {"number": 64, "value": 127}, "group": "control_change"}, {"time": 305, "annotation": {"number": 64, "value": 0}, "group": "control_change"}, {"time": 307, "annotation": {"number": 64, "value": 127}, "group": "control_change"}, {"time": 318, "annotation": {"number": 64, "value": 0}, "group": "control_change"}, {"time": 320, "annotation": {"number": 64, "value": 127}, "group": "control_change"}, {"time": 329, "annotation": {"number": 64, "value": 0}, "group": "control_change"}, {"time": 331, "annotation": {"number": 64, "value": 127}, "group": "control_change"}, {"time": 342, "annotation": {"number": 64, "value": 0}, "group": "control_change"}, {"time": 343, "annotation": {"number": 64, "value": 127}, "group": "control_change"}, {"time": 352, "annotation": {"number": 64, "value": 0}, "group": "control_change"}, {"time": 355, "annotation": {"number": 64, "value": 127}, "group": "control_change"}, {"time": 377, "annotation": {"number": 64, "value": 0}, "group": "control_change"}, {"time": 380, "annotation": {"number": 64, "value": 127}, "group": "control_change"}, {"time": 425, "annotation": {"number": 64, "value": 0}, "group": "control_change"}, {"time": 428, "annotation": {"number": 64, "value": 127}, "group": "control_change"}, {"time": 450, "annotation": {"number": 64, "value": 0}, "group": "control_change"}, {"time": 452, "annotation": {"number": 64, "value": 127}, "group": "control_change"}, {"time": 474, "annotation": {"number": 64, "value": 0}, "group": "control_change"}, {"time": 475, "annotation": {"number": 64, "value": 127}, "group": "control_change"}, {"time": 498, "annotation": {"number": 64, "value": 0}, "group": "control_change"}, {"time": 500, "annotation": {"number": 64, "value": 127}, "group": "control_change"}, {"time": 522, "annotation": {"number": 64, "value": 0}, "group": "control_change"}, {"time": 524, "annotation": {"number": 64, "value": 127}, "group": "control_change"}, {"time": 545, "annotation": {"number": 64, "value": 0}, "group": "control_change"}, {"time": 547, "annotation": {"number": 64, "value": 127}, "group": "control_change"}, {"time": 570, "annotation": {"number": 64, "value": 0}, "group": "control_change"}, {"time": 572, "annotation": {"number": 64, "value": 127}, "group": "control_change"}, {"time": 594, "annotation": {"number": 64, "value": 0}, "group": "control_change"}, {"time": 596, "annotation": {"number": 64, "value": 127}, "group": "control_change"}, {"time": 618, "annotation": {"number": 64, "value": 0}, "group": "control_change"}, {"time": 620, "annotation": {"number": 64, "value": 127}, "group": "control_change"}, {"time": 642, "annotation": {"number": 64, "value": 0}, "group": "control_change"}, {"time": 644, "annotation": {"number": 64, "value": 127}, "group": "control_change"}, {"time": 666, "annotation": {"number": 64, "value": 0}, "group": "control_change"}, {"time": 668, "annotation": {"number": 64, "value": 127}, "group": "control_change"}, {"time": 690, "annotation": {"number": 64, "value": 0}, "group": "control_change"}, {"time": 692, "annotation": {"number": 64, "value": 127}, "group": "control_change"}, {"time": 714, "annotation": {"number": 64, "value": 0}, "group": "control_change"}, {"time": 716, "annotation": {"number": 64, "value": 127}, "group": "control_change"}, {"time": 739, "annotation": {"number": 64, "value": 0}, "group": "control_change"}, {"time": 741, "annotation": {"number": 64, "value": 127}, "group": "control_change"}, {"time": 762, "annotation": {"number": 64, "value": 0}, "group": "control_change"}, {"time": 764, "annotation": {"number": 64, "value": 127}, "group": "control_change"}, {"time": 785, "annotation": {"number": 64, "value": 0}, "group": "control_change"}, {"time": 788, "annotation": {"number": 64, "value": 127}, "group": "control_change"}, {"time": 810, "annotation": {"number": 64, "value": 0}, "group": "control_change"}, {"time": 812, "annotation": {"number": 64, "value": 127}, "group": "control_change"}, {"time": 834, "annotation": {"number": 64, "value": 0}, "group": "control_change"}, {"time": 836, "annotation": {"number": 64, "value": 127}, "group": "control_change"}, {"time": 858, "annotation": {"number": 64, "value": 0}, "group": "control_change"}, {"time": 859, "annotation": {"number": 64, "value": 127}, "group": "control_change"}, {"time": 882, "annotation": {"number": 64, "value": 0}, "group": "control_change"}, {"time": 884, "annotation": {"number": 64, "value": 127}, "group": "control_change"}, {"time": 906, "annotation": {"number": 64, "value": 0}, "group": "control_change"}, {"time": 908, "annotation": {"number": 64, "value": 127}, "group": "control_change"}, {"time": 929, "annotation": {"number": 64, "value": 0}, "group": "control_change"}, {"time": 931, "annotation": {"number": 64, "value": 127}, "group": "control_change"}, {"time": 954, "annotation": {"number": 64, "value": 0}, "group": "control_change"}, {"time": 956, "annotation": {"number": 64, "value": 127}, "group": "control_change"}, {"time": 978, "annotation": {"number": 64, "value": 0}, "group": "control_change"}, {"time": 980, "annotation": {"number": 64, "value": 127}, "group": "control_change"}, {"time": 1002, "annotation": {"number": 64, "value": 0}, "group": "control_change"}, {"time": 1004, "annotation": {"number": 64, "value": 127}, "group": "control_change"}, {"time": 1026, "annotation": {"number": 64, "value": 0}, "group": "control_change"}, {"time": 1028, "annotation": {"number": 64, "value": 127}, "group": "control_change"}, {"time": 1050, "annotation": {"number": 64, "value": 0}, "group": "control_change"}, {"time": 1052, "annotation": {"number": 64, "value": 127}, "group": "control_change"}, {"time": 1074, "annotation": {"number": 64, "value": 0}, "group": "control_change"}, {"time": 1076, "annotation": {"number": 64, "value": 127}, "group": "control_change"}, {"time": 1098, "annotation": {"number": 64, "value": 0}, "group": "control_change"}, {"time": 1100, "annotation": {"number": 64, "value": 127}, "group": "control_change"}, {"time": 1122, "annotation": {"number": 64, "value": 0}, "group": "control_change"}, {"time": 1124, "annotation": {"number": 64, "value": 127}, "group": "control_change"}, {"time": 1146, "annotation": {"number": 64, "value": 0}, "group": "control_change"}, {"time": 1148, "annotation": {"number": 64, "value": 127}, "group": "control_change"}, {"time": 1169, "annotation": {"number": 64, "value": 0}, "group": "control_change"}, {"time": 1171, "annotation": {"number": 64, "value": 127}, "group": "control_change"}, {"time": 1194, "annotation": {"number": 64, "value": 0}, "group": "control_change"}, {"time": 1196, "annotation": {"number": 64, "value": 127}, "group": "control_change"}, {"time": 1218, "annotation": {"number": 64, "value": 0}, "group": "control_change"}, {"time": 1220, "annotation": {"number": 64, "value": 127}, "group": "control_change"}, {"time": 1242, "annotation": {"number": 64, "value": 0}, "group": "control_change"}, {"time": 1245, "annotation": {"number": 64, "value": 127}, "group": "control_change"}, {"time": 1265, "annotation": {"number": 64, "value": 0}, "group": "control_change"}, {"time": 1268, "annotation": {"number": 64, "value": 127}, "group": "control_change"}, {"time": 1290, "annotation": {"number": 64, "value": 0}, "group": "control_change"}, {"time": 1292, "annotation": {"number": 64, "value": 127}, "group": "control_change"}, {"time": 1316, "annotation": {"number": 64, "value": 127}, "group": "control_change"}, {"time": 1326, "annotation": {"number": 64, "value": 0}, "group": "control_change"}, {"time": 1326, "annotation": {"number": 64, "value": 127}, "group": "control_change"}, {"time": 1328, "annotation": {"number": 64, "value": 0}, "group": "control_change"}, {"time": 1340, "annotation": {"number": 64, "value": 127}, "group": "control_change"}, {"time": 1370, "annotation": {"number": 64, "value": 0}, "group": "control_change"}, {"time": 1374, "annotation": {"number": 64, "value": 127}, "group": "control_change"}, {"time": 1385, "annotation": {"number": 64, "value": 0}, "group": "control_change"}, {"time": 1388, "annotation": {"number": 64, "value": 127}, "group": "control_change"}, {"time": 1397, "annotation": {"number": 64, "value": 0}, "group": "control_change"}, {"time": 1399, "annotation": {"number": 64, "value": 127}, "group": "control_change"}, {"time": 1410, "annotation": {"number": 64, "value": 0}, "group": "control_change"}, {"time": 1411, "annotation": {"number": 64, "value": 127}, "group": "control_change"}, {"time": 1434, "annotation": {"number": 64, "value": 0}, "group": "control_change"}, {"time": 1436, "annotation": {"number": 64, "value": 127}, "group": "control_change"}, {"time": 1457, "annotation": {"number": 64, "value": 0}, "group": "control_change"}, {"time": 1460, "annotation": {"number": 64, "value": 127}, "group": "control_change"}, {"time": 1470, "annotation": {"number": 64, "value": 0}, "group": "control_change"}, {"time": 1471, "annotation": {"number": 64, "value": 127}, "group": "control_change"}, {"time": 1481, "annotation": {"number": 64, "value": 0}, "group": "control_change"}, {"time": 1484, "annotation": {"number": 64, "value": 127}, "group": "control_change"}, {"time": 1486, "annotation": {"number": 64, "value": 0}, "group": "control_change"}, {"time": 1487, "annotation": {"number": 64, "value": 127}, "group": "control_change"}, {"time": 1505, "annotation": {"number": 64, "value": 0}, "group": "control_change"}, {"time": 1508, "annotation": {"number": 64, "value": 127}, "group": "control_change"}, {"time": 1529, "annotation": {"number": 64, "value": 0}, "group": "control_change"}, {"time": 1532, "annotation": {"number": 64, "value": 127}, "group": "control_change"}, {"time": 1552, "annotation": {"number": 64, "value": 0}, "group": "control_change"}, {"time": 1555, "annotation": {"number": 64, "value": 127}, "group": "control_change"}, {"time": 1578, "annotation": {"number": 64, "value": 0}, "group": "control_change"}, {"time": 1580, "annotation": {"number": 64, "value": 127}, "group": "control_change"}, {"time": 1601, "annotation": {"number": 64, "value": 0}, "group": "control_change"}, {"time": 1603, "annotation": {"number": 64, "value": 127}, "group": "control_change"}, {"time": 1626, "annotation": {"number": 64, "value": 0}, "group": "control_change"}, {"time": 1628, "annotation": {"number": 64, "value": 127}, "group": "control_change"}, {"time": 1649, "annotation": {"number": 64, "value": 0}, "group": "control_change"}, {"time": 1651, "annotation": {"number": 64, "value": 127}, "group": "control_change"}, {"time": 1673, "annotation": {"number": 64, "value": 0}, "group": "control_change"}, {"time": 1675, "annotation": {"number": 64, "value": 127}, "group": "control_change"}, {"time": 1698, "annotation": {"number": 64, "value": 0}, "group": "control_change"}, {"time": 1699, "annotation": {"number": 64, "value": 127}, "group": "control_change"}, {"time": 1721, "annotation": {"number": 64, "value": 0}, "group": "control_change"}, {"time": 1723, "annotation": {"number": 64, "value": 127}, "group": "control_change"}, {"time": 1745, "annotation": {"number": 64, "value": 0}, "group": "control_change"}, {"time": 1747, "annotation": {"number": 64, "value": 127}, "group": "control_change"}, {"time": 1770, "annotation": {"number": 64, "value": 0}, "group": "control_change"}, {"time": 1772, "annotation": {"number": 64, "value": 127}, "group": "control_change"}, {"time": 1781, "annotation": {"number": 64, "value": 0}, "group": "control_change"}, {"time": 1796, "annotation": {"number": 64, "value": 127}, "group": "control_change"}, {"time": 1838, "annotation": {"number": 64, "value": 0}, "group": "control_change"}, {"time": 1844, "annotation": {"number": 64, "value": 127}, "group": "control_change"}, {"time": 1866, "annotation": {"number": 64, "value": 0}, "group": "control_change"}, {"time": 1867, "annotation": {"number": 64, "value": 127}, "group": "control_change"}, {"time": 1889, "annotation": {"number": 64, "value": 0}, "group": "control_change"}, {"time": 1891, "annotation": {"number": 64, "value": 127}, "group": "control_change"}, {"time": 1913, "annotation": {"number": 64, "value": 0}, "group": "control_change"}, {"time": 1915, "annotation": {"number": 64, "value": 127}, "group": "control_change"}, {"time": 1929, "annotation": {"number": 64, "value": 0}, "group": "control_change"}, {"time": 1940, "annotation": {"number": 64, "value": 127}, "group": "control_change"}, {"time": 1961, "annotation": {"number": 64, "value": 0}, "group": "control_change"}, {"time": 1963, "annotation": {"number": 64, "value": 127}, "group": "control_change"}, {"time": 1985, "annotation": {"number": 64, "value": 0}, "group": "control_change"}, {"time": 1988, "annotation": {"number": 64, "value": 127}, "group": "control_change"}, {"time": 2009, "annotation": {"number": 64, "value": 0}, "group": "control_change"}, {"time": 2012, "annotation": {"number": 64, "value": 127}, "group": "control_change"}, {"time": 2022, "annotation": {"number": 64, "value": 0}, "group": "control_change"}, {"time": 2036, "annotation": {"number": 64, "value": 127}, "group": "control_change"}, {"time": 2057, "annotation": {"number": 64, "value": 0}, "group": "control_change"}, {"time": 2059, "annotation": {"number": 64, "value": 127}, "group": "control_change"}, {"time": 2081, "annotation": {"number": 64, "value": 0}, "group": "control_change"}, {"time": 2084, "annotation": {"number": 64, "value": 127}, "group": "control_change"}, {"time": 2105, "annotation": {"number": 64, "value": 0}, "group": "control_change"}, {"time": 2107, "annotation": {"number": 64, "value": 127}, "group": "control_change"}, {"time": 2130, "annotation": {"number": 64, "value": 0}, "group": "control_change"}, {"time": 2155, "annotation": {"number": 64, "value": 127}, "group": "control_change"}, {"time": 2179, "annotation": {"number": 64, "value": 0}, "group": "control_change"}, {"time": 2204, "annotation": {"number": 64, "value": 127}, "group": "control_change"}, {"time": 2226, "annotation": {"number": 64, "value": 0}, "group": "control_change"}, {"time": 2228, "annotation": {"number": 64, "value": 127}, "group": "control_change"}, {"time": 2250, "annotation": {"number": 64, "value": 0}, "group": "control_change"}, {"time": 2251, "annotation": {"number": 64, "value": 127}, "group": "control_change"}, {"time": 2274, "annotation": {"number": 64, "value": 0}, "group": "control_change"}, {"time": 2276, "annotation": {"number": 64, "value": 127}, "group": "control_change"}, {"time": 2298, "annotation": {"number": 64, "value": 0}, "group": "control_change"}, {"time": 2300, "annotation": {"number": 64, "value": 127}, "group": "control_change"}, {"time": 2321, "annotation": {"number": 64, "value": 0}, "group": "control_change"}, {"time": 2323, "annotation": {"number": 64, "value": 127}, "group": "control_change"}, {"time": 2346, "annotation": {"number": 64, "value": 0}, "group": "control_change"}, {"time": 2348, "annotation": {"number": 64, "value": 127}, "group": "control_change"}, {"time": 2370, "annotation": {"number": 64, "value": 0}, "group": "control_change"}, {"time": 2372, "annotation": {"number": 64, "value": 127}, "group": "control_change"}, {"time": 2394, "annotation": {"number": 64, "value": 0}, "group": "control_change"}, {"time": 2396, "annotation": {"number": 64, "value": 127}, "group": "control_change"}, {"time": 2418, "annotation": {"number": 64, "value": 0}, "group": "control_change"}, {"time": 2420, "annotation": {"number": 64, "value": 127}, "group": "control_change"}, {"time": 2442, "annotation": {"number": 64, "value": 0}, "group": "control_change"}, {"time": 2444, "annotation": {"number": 64, "value": 127}, "group": "control_change"}, {"time": 2466, "annotation": {"number": 64, "value": 0}, "group": "control_change"}, {"time": 2468, "annotation": {"number": 64, "value": 127}, "group": "control_change"}, {"time": 2490, "annotation": {"number": 64, "value": 0}, "group": "control_change"}, {"time": 2492, "annotation": {"number": 64, "value": 127}, "group": "control_change"}, {"time": 2514, "annotation": {"number": 64, "value": 0}, "group": "control_change"}, {"time": 2516, "annotation": {"number": 64, "value": 127}, "group": "control_change"}, {"time": 2538, "annotation": {"number": 64, "value": 0}, "group": "control_change"}, {"time": 2540, "annotation": {"number": 64, "value": 127}, "group": "control_change"}, {"time": 2561, "annotation": {"number": 64, "value": 0}, "group": "control_change"}, {"time": 2563, "annotation": {"number": 64, "value": 127}, "group": "control_change"}, {"time": 2586, "annotation": {"number": 64, "value": 0}, "group": "control_change"}, {"time": 2588, "annotation": {"number": 64, "value": 127}, "group": "control_change"}, {"time": 2610, "annotation": {"number": 64, "value": 0}, "group": "control_change"}, {"time": 2612, "annotation": {"number": 64, "value": 127}, "group": "control_change"}, {"time": 2634, "annotation": {"number": 64, "value": 0}, "group": "control_change"}, {"time": 2637, "annotation": {"number": 64, "value": 127}, "group": "control_change"}, {"time": 2657, "annotation": {"number": 64, "value": 0}, "group": "control_change"}, {"time": 2660, "annotation": {"number": 64, "value": 127}, "group": "control_change"}, {"time": 2682, "annotation": {"number": 64, "value": 0}, "group": "control_change"}, {"time": 2684, "annotation": {"number": 64, "value": 127}, "group": "control_change"}, {"time": 2708, "annotation": {"number": 64, "value": 127}, "group": "control_change"}, {"time": 2718, "annotation": {"number": 64, "value": 0}, "group": "control_change"}, {"time": 2718, "annotation": {"number": 64, "value": 127}, "group": "control_change"}, {"time": 2720, "annotation": {"number": 64, "value": 0}, "group": "control_change"}, {"time": 2732, "annotation": {"number": 64, "value": 127}, "group": "control_change"}, {"time": 2762, "annotation": {"number": 64, "value": 0}, "group": "control_change"}, {"time": 2766, "annotation": {"number": 64, "value": 127}, "group": "control_change"}, {"time": 2777, "annotation": {"number": 64, "value": 0}, "group": "control_change"}, {"time": 2780, "annotation": {"number": 64, "value": 127}, "group": "control_change"}, {"time": 2789, "annotation": {"number": 64, "value": 0}, "group": "control_change"}, {"time": 2791, "annotation": {"number": 64, "value": 127}, "group": "control_change"}, {"time": 2802, "annotation": {"number": 64, "value": 0}, "group": "control_change"}, {"time": 2803, "annotation": {"number": 64, "value": 127}, "group": "control_change"}, {"time": 2826, "annotation": {"number": 64, "value": 0}, "group": "control_change"}, {"time": 2828, "annotation": {"number": 64, "value": 127}, "group": "control_change"}, {"time": 2849, "annotation": {"number": 64, "value": 0}, "group": "control_change"}, {"time": 2852, "annotation": {"number": 64, "value": 127}, "group": "control_change"}, {"time": 2862, "annotation": {"number": 64, "value": 0}, "group": "control_change"}, {"time": 2863, "annotation": {"number": 64, "value": 127}, "group": "control_change"}, {"time": 2873, "annotation": {"number": 64, "value": 0}, "group": "control_change"}, {"time": 2876, "annotation": {"number": 64, "value": 127}, "group": "control_change"}, {"time": 2878, "annotation": {"number": 64, "value": 0}, "group": "control_change"}, {"time": 2879, "annotation": {"number": 64, "value": 127}, "group": "control_change"}, {"time": 2897, "annotation": {"number": 64, "value": 0}, "group": "control_change"}, {"time": 2900, "annotation": {"number": 64, "value": 127}, "group": "control_change"}, {"time": 2921, "annotation": {"number": 64, "value": 0}, "group": "control_change"}, {"time": 2924, "annotation": {"number": 64, "value": 127}, "group": "control_change"}, {"time": 2944, "annotation": {"number": 64, "value": 0}, "group": "control_change"}, {"time": 2947, "annotation": {"number": 64, "value": 127}, "group": "control_change"}, {"time": 2970, "annotation": {"number": 64, "value": 0}, "group": "control_change"}, {"time": 2972, "annotation": {"number": 64, "value": 127}, "group": "control_change"}, {"time": 2993, "annotation": {"number": 64, "value": 0}, "group": "control_change"}, {"time": 2995, "annotation": {"number": 64, "value": 127}, "group": "control_change"}, {"time": 3018, "annotation": {"number": 64, "value": 0}, "group": "control_change"}, {"time": 3020, "annotation": {"number": 64, "value": 127}, "group": "control_change"}, {"time": 3041, "annotation": {"number": 64, "value": 0}, "group": "control_change"}, {"time": 3043, "annotation": {"number": 64, "value": 127}, "group": "control_change"}, {"time": 3065, "annotation": {"number": 64, "value": 0}, "group": "control_change"}, {"time": 3067, "annotation": {"number": 64, "value": 127}, "group": "control_change"}, {"time": 3090, "annotation": {"number": 64, "value": 0}, "group": "control_change"}, {"time": 3091, "annotation": {"number": 64, "value": 127}, "group": "control_change"}, {"time": 3113, "annotation": {"number": 64, "value": 0}, "group": "control_change"}, {"time": 3115, "annotation": {"number": 64, "value": 127}, "group": "control_change"}, {"time": 3137, "annotation": {"number": 64, "value": 0}, "group": "control_change"}, {"time": 3139, "annotation": {"number": 64, "value": 127}, "group": "control_change"}, {"time": 3162, "annotation": {"number": 64, "value": 0}, "group": "control_change"}, {"time": 3164, "annotation": {"number": 64, "value": 127}, "group": "control_change"}, {"time": 3173, "annotation": {"number": 64, "value": 0}, "group": "control_change"}, {"time": 3189, "annotation": {"number": 64, "value": 127}, "group": "control_change"}, {"time": 3210, "annotation": {"number": 64, "value": 0}, "group": "control_change"}, {"time": 3211, "annotation": {"number": 64, "value": 127}, "group": "control_change"}, {"time": 3234, "annotation": {"number": 64, "value": 0}, "group": "control_change"}, {"time": 3236, "annotation": {"number": 64, "value": 127}, "group": "control_change"}, {"time": 3257, "annotation": {"number": 64, "value": 0}, "group": "control_change"}, {"time": 3259, "annotation": {"number": 64, "value": 127}, "group": "control_change"}, {"time": 3282, "annotation": {"number": 64, "value": 0}, "group": "control_change"}, {"time": 3284, "annotation": {"number": 64, "value": 127}, "group": "control_change"}, {"time": 3286, "annotation": {"number": 64, "value": 0}, "group": "control_change"}, {"time": 3356, "annotation": {"number": 64, "value": 127}, "group": "control_change"}, {"time": 3378, "annotation": {"number": 64, "value": 0}, "group": "control_change"}, {"time": 3381, "annotation": {"number": 64, "value": 127}, "group": "control_change"}, {"time": 3392, "annotation": {"number": 64, "value": 0}, "group": "control_change"}, {"time": 3407, "annotation": {"number": 64, "value": 127}, "group": "control_change"}, {"time": 3422, "annotation": {"number": 64, "value": 0}, "group": "control_change"}, {"time": 3424, "annotation": {"number": 64, "value": 127}, "group": "control_change"}, {"time": 3424, "annotation": {"number": 64, "value": 0}, "group": "control_change"}]}]}