{"metadata": {"schema_version": "0.2", "title": "None", "source_filename": "470.mid", "source_format": "midi"}, "resolution": 12, "tempos": [{"time": 0, "qpm": 137.80051996729534}, {"time": 660, "qpm": 136.00045333484445}, {"time": 732, "qpm": 135.6002684885316}, {"time": 1332, "qpm": 137.00037675103607}, {"time": 1620, "qpm": 135.50013098345994}, {"time": 2016, "qpm": 138.9998957500782}, {"time": 2148, "qpm": 138.00019320027047}, {"time": 2568, "qpm": 137.80051996729534}, {"time": 2616, "qpm": 137.00037675103607}, {"time": 2628, "qpm": 136.00045333484445}, {"time": 4068, "qpm": 138.00019320027047}, {"time": 4452, "qpm": 137.00037675103607}, {"time": 4824, "qpm": 170.0000850000425}, {"time": 4836, "qpm": 136.00045333484445}, {"time": 5520, "qpm": 138.9998957500782}], "time_signatures": [{"time": 0, "numerator": 1, "denominator": 4}], "tracks": [{"program": 0, "is_drum": false, "name": "MELODY", "notes": [{"time": 26, "pitch": 69, "duration": 5, "velocity": 112}, {"time": 38, "pitch": 69, "duration": 4, "velocity": 100}, {"time": 44, "pitch": 67, "duration": 3, "velocity": 77}, {"time": 50, "pitch": 69, "duration": 5, "velocity": 102}, {"time": 62, "pitch": 69, "duration": 4, "velocity": 97}, {"time": 68, "pitch": 67, "duration": 3, "velocity": 89}, {"time": 74, "pitch": 69, "duration": 3, "velocity": 99}, {"time": 80, "pitch": 72, "duration": 3, "velocity": 96}, {"time": 86, "pitch": 69, "duration": 3, "velocity": 99}, {"time": 92, "pitch": 67, "duration": 4, "velocity": 93}, {"time": 98, "pitch": 69, "duration": 6, "velocity": 122}, {"time": 122, "pitch": 62, "duration": 4, "velocity": 92}, {"time": 134, "pitch": 62, "duration": 4, "velocity": 93}, {"time": 140, "pitch": 64, "duration": 4, "velocity": 96}, {"time": 146, "pitch": 67, "duration": 5, "velocity": 107}, {"time": 158, "pitch": 67, "duration": 3, "velocity": 90}, {"time": 164, "pitch": 64, "duration": 4, "velocity": 97}, {"time": 170, "pitch": 62, "duration": 3, "velocity": 89}, {"time": 176, "pitch": 64, "duration": 4, "velocity": 82}, {"time": 182, "pitch": 62, "duration": 4, "velocity": 96}, {"time": 188, "pitch": 60, "duration": 3, "velocity": 89}, {"time": 194, "pitch": 57, "duration": 8, "velocity": 100}, {"time": 278, "pitch": 72, "duration": 7, "velocity": 117}, {"time": 284, "pitch": 71, "duration": 9, "velocity": 70}, {"time": 290, "pitch": 72, "duration": 7, "velocity": 102}, {"time": 374, "pitch": 69, "duration": 7, "velocity": 112}, {"time": 380, "pitch": 67, "duration": 8, "velocity": 86}, {"time": 386, "pitch": 69, "duration": 15, "velocity": 93}, {"time": 542, "pitch": 72, "duration": 4, "velocity": 107}, {"time": 566, "pitch": 72, "duration": 3, "velocity": 112}, {"time": 572, "pitch": 72, "duration": 3, "velocity": 97}, {"time": 578, "pitch": 72, "duration": 6, "velocity": 127}, {"time": 590, "pitch": 72, "duration": 5, "velocity": 122}, {"time": 602, "pitch": 69, "duration": 24, "velocity": 112}, {"time": 638, "pitch": 64, "duration": 10, "velocity": 107}, {"time": 650, "pitch": 72, "duration": 13, "velocity": 127}, {"time": 662, "pitch": 69, "duration": 5, "velocity": 127}, {"time": 668, "pitch": 72, "duration": 6, "velocity": 88}, {"time": 674, "pitch": 69, "duration": 12, "velocity": 127}, {"time": 698, "pitch": 67, "duration": 8, "velocity": 102}, {"time": 710, "pitch": 67, "duration": 8, "velocity": 96}, {"time": 716, "pitch": 64, "duration": 7, "velocity": 78}, {"time": 722, "pitch": 62, "duration": 9, "velocity": 96}, {"time": 728, "pitch": 60, "duration": 5, "velocity": 102}, {"time": 734, "pitch": 62, "duration": 6, "velocity": 96}, {"time": 740, "pitch": 64, "duration": 6, "velocity": 96}, {"time": 746, "pitch": 57, "duration": 26, "velocity": 100}, {"time": 794, "pitch": 60, "duration": 13, "velocity": 112}, {"time": 812, "pitch": 60, "duration": 4, "velocity": 100}, {"time": 818, "pitch": 57, "duration": 12, "velocity": 89}, {"time": 830, "pitch": 60, "duration": 10, "velocity": 97}, {"time": 842, "pitch": 62, "duration": 8, "velocity": 96}, {"time": 854, "pitch": 64, "duration": 7, "velocity": 112}, {"time": 860, "pitch": 67, "duration": 7, "velocity": 89}, {"time": 866, "pitch": 64, "duration": 7, "velocity": 100}, {"time": 872, "pitch": 62, "duration": 6, "velocity": 92}, {"time": 878, "pitch": 60, "duration": 7, "velocity": 99}, {"time": 884, "pitch": 62, "duration": 6, "velocity": 95}, {"time": 890, "pitch": 64, "duration": 50, "velocity": 100}, {"time": 986, "pitch": 69, "duration": 28, "velocity": 127}, {"time": 1022, "pitch": 69, "duration": 7, "velocity": 127}, {"time": 1028, "pitch": 67, "duration": 8, "velocity": 85}, {"time": 1034, "pitch": 69, "duration": 11, "velocity": 122}, {"time": 1046, "pitch": 72, "duration": 7, "velocity": 112}, {"time": 1058, "pitch": 72, "duration": 14, "velocity": 127}, {"time": 1082, "pitch": 69, "duration": 6, "velocity": 122}, {"time": 1088, "pitch": 72, "duration": 6, "velocity": 88}, {"time": 1094, "pitch": 69, "duration": 6, "velocity": 99}, {"time": 1100, "pitch": 72, "duration": 6, "velocity": 102}, {"time": 1106, "pitch": 69, "duration": 8, "velocity": 112}, {"time": 1118, "pitch": 67, "duration": 12, "velocity": 93}, {"time": 1130, "pitch": 64, "duration": 15, "velocity": 99}, {"time": 1178, "pitch": 62, "duration": 9, "velocity": 107}, {"time": 1190, "pitch": 64, "duration": 8, "velocity": 117}, {"time": 1202, "pitch": 60, "duration": 9, "velocity": 102}, {"time": 1214, "pitch": 62, "duration": 9, "velocity": 112}, {"time": 1223, "pitch": 59, "duration": 16, "velocity": 99}, {"time": 1250, "pitch": 55, "duration": 11, "velocity": 102}, {"time": 1262, "pitch": 57, "duration": 7, "velocity": 100}, {"time": 1268, "pitch": 59, "duration": 10, "velocity": 99}, {"time": 1280, "pitch": 57, "duration": 42, "velocity": 127}, {"time": 1370, "pitch": 69, "duration": 7, "velocity": 117}, {"time": 1382, "pitch": 69, "duration": 5, "velocity": 122}, {"time": 1388, "pitch": 67, "duration": 5, "velocity": 93}, {"time": 1394, "pitch": 64, "duration": 10, "velocity": 100}, {"time": 1406, "pitch": 67, "duration": 9, "velocity": 122}, {"time": 1418, "pitch": 69, "duration": 17, "velocity": 127}, {"time": 1448, "pitch": 69, "duration": 3, "velocity": 92}, {"time": 1451, "pitch": 72, "duration": 3, "velocity": 86}, {"time": 1455, "pitch": 67, "duration": 14, "velocity": 96}, {"time": 1466, "pitch": 60, "duration": 14, "velocity": 99}, {"time": 1484, "pitch": 64, "duration": 6, "velocity": 97}, {"time": 1490, "pitch": 62, "duration": 9, "velocity": 112}, {"time": 1502, "pitch": 60, "duration": 8, "velocity": 96}, {"time": 1514, "pitch": 62, "duration": 16, "velocity": 107}, {"time": 1562, "pitch": 62, "duration": 10, "velocity": 127}, {"time": 1574, "pitch": 64, "duration": 8, "velocity": 127}, {"time": 1586, "pitch": 67, "duration": 9, "velocity": 122}, {"time": 1598, "pitch": 67, "duration": 6, "velocity": 117}, {"time": 1610, "pitch": 62, "duration": 7, "velocity": 117}, {"time": 1616, "pitch": 60, "duration": 5, "velocity": 92}, {"time": 1622, "pitch": 62, "duration": 7, "velocity": 97}, {"time": 1628, "pitch": 60, "duration": 6, "velocity": 93}, {"time": 1634, "pitch": 57, "duration": 24, "velocity": 112}, {"time": 1658, "pitch": 67, "duration": 3, "velocity": 112}, {"time": 1664, "pitch": 67, "duration": 3, "velocity": 92}, {"time": 1670, "pitch": 67, "duration": 4, "velocity": 96}, {"time": 1676, "pitch": 64, "duration": 5, "velocity": 95}, {"time": 1682, "pitch": 67, "duration": 10, "velocity": 122}, {"time": 1694, "pitch": 69, "duration": 10, "velocity": 107}, {"time": 1700, "pitch": 67, "duration": 6, "velocity": 122}, {"time": 1706, "pitch": 69, "duration": 17, "velocity": 117}, {"time": 1754, "pitch": 67, "duration": 3, "velocity": 117}, {"time": 1760, "pitch": 67, "duration": 3, "velocity": 97}, {"time": 1766, "pitch": 67, "duration": 4, "velocity": 107}, {"time": 1772, "pitch": 69, "duration": 4, "velocity": 122}, {"time": 1778, "pitch": 72, "duration": 7, "velocity": 127}, {"time": 1790, "pitch": 69, "duration": 6, "velocity": 127}, {"time": 1796, "pitch": 67, "duration": 6, "velocity": 95}, {"time": 1802, "pitch": 64, "duration": 19, "velocity": 112}, {"time": 1850, "pitch": 62, "duration": 12, "velocity": 122}, {"time": 1862, "pitch": 64, "duration": 12, "velocity": 127}, {"time": 1874, "pitch": 60, "duration": 9, "velocity": 107}, {"time": 1886, "pitch": 62, "duration": 10, "velocity": 99}, {"time": 1898, "pitch": 59, "duration": 11, "velocity": 99}, {"time": 1922, "pitch": 55, "duration": 7, "velocity": 93}, {"time": 1928, "pitch": 57, "duration": 7, "velocity": 76}, {"time": 1934, "pitch": 59, "duration": 20, "velocity": 83}, {"time": 1952, "pitch": 57, "duration": 61, "velocity": 100}, {"time": 2294, "pitch": 72, "duration": 7, "velocity": 117}, {"time": 2300, "pitch": 71, "duration": 9, "velocity": 70}, {"time": 2306, "pitch": 72, "duration": 7, "velocity": 102}, {"time": 2390, "pitch": 69, "duration": 7, "velocity": 112}, {"time": 2396, "pitch": 67, "duration": 8, "velocity": 86}, {"time": 2402, "pitch": 69, "duration": 15, "velocity": 93}, {"time": 2558, "pitch": 72, "duration": 4, "velocity": 107}, {"time": 2582, "pitch": 72, "duration": 3, "velocity": 112}, {"time": 2588, "pitch": 72, "duration": 3, "velocity": 97}, {"time": 2594, "pitch": 72, "duration": 6, "velocity": 127}, {"time": 2606, "pitch": 72, "duration": 5, "velocity": 122}, {"time": 2618, "pitch": 69, "duration": 24, "velocity": 112}, {"time": 2654, "pitch": 64, "duration": 10, "velocity": 107}, {"time": 2666, "pitch": 72, "duration": 13, "velocity": 127}, {"time": 2678, "pitch": 69, "duration": 5, "velocity": 127}, {"time": 2684, "pitch": 72, "duration": 6, "velocity": 88}, {"time": 2690, "pitch": 69, "duration": 12, "velocity": 127}, {"time": 2714, "pitch": 67, "duration": 8, "velocity": 102}, {"time": 2726, "pitch": 67, "duration": 8, "velocity": 96}, {"time": 2732, "pitch": 64, "duration": 7, "velocity": 78}, {"time": 2738, "pitch": 62, "duration": 9, "velocity": 96}, {"time": 2744, "pitch": 60, "duration": 5, "velocity": 102}, {"time": 2750, "pitch": 62, "duration": 6, "velocity": 96}, {"time": 2756, "pitch": 64, "duration": 6, "velocity": 96}, {"time": 2762, "pitch": 57, "duration": 26, "velocity": 100}, {"time": 2810, "pitch": 60, "duration": 13, "velocity": 112}, {"time": 2828, "pitch": 60, "duration": 4, "velocity": 100}, {"time": 2834, "pitch": 57, "duration": 12, "velocity": 89}, {"time": 2846, "pitch": 60, "duration": 10, "velocity": 97}, {"time": 2858, "pitch": 62, "duration": 8, "velocity": 96}, {"time": 2870, "pitch": 64, "duration": 7, "velocity": 112}, {"time": 2876, "pitch": 67, "duration": 7, "velocity": 89}, {"time": 2882, "pitch": 64, "duration": 7, "velocity": 100}, {"time": 2888, "pitch": 62, "duration": 6, "velocity": 92}, {"time": 2894, "pitch": 60, "duration": 7, "velocity": 99}, {"time": 2900, "pitch": 62, "duration": 6, "velocity": 95}, {"time": 2906, "pitch": 64, "duration": 50, "velocity": 100}, {"time": 3002, "pitch": 69, "duration": 28, "velocity": 127}, {"time": 3038, "pitch": 69, "duration": 7, "velocity": 127}, {"time": 3044, "pitch": 67, "duration": 8, "velocity": 85}, {"time": 3050, "pitch": 69, "duration": 11, "velocity": 122}, {"time": 3062, "pitch": 72, "duration": 7, "velocity": 112}, {"time": 3074, "pitch": 72, "duration": 14, "velocity": 127}, {"time": 3098, "pitch": 69, "duration": 6, "velocity": 122}, {"time": 3104, "pitch": 72, "duration": 6, "velocity": 88}, {"time": 3110, "pitch": 69, "duration": 6, "velocity": 99}, {"time": 3116, "pitch": 72, "duration": 6, "velocity": 102}, {"time": 3122, "pitch": 69, "duration": 8, "velocity": 112}, {"time": 3134, "pitch": 67, "duration": 12, "velocity": 93}, {"time": 3146, "pitch": 64, "duration": 15, "velocity": 99}, {"time": 3194, "pitch": 62, "duration": 9, "velocity": 107}, {"time": 3206, "pitch": 64, "duration": 8, "velocity": 117}, {"time": 3218, "pitch": 60, "duration": 9, "velocity": 102}, {"time": 3230, "pitch": 62, "duration": 9, "velocity": 112}, {"time": 3239, "pitch": 59, "duration": 16, "velocity": 99}, {"time": 3266, "pitch": 55, "duration": 11, "velocity": 102}, {"time": 3278, "pitch": 57, "duration": 7, "velocity": 100}, {"time": 3284, "pitch": 59, "duration": 10, "velocity": 99}, {"time": 3296, "pitch": 57, "duration": 42, "velocity": 127}, {"time": 3386, "pitch": 69, "duration": 7, "velocity": 117}, {"time": 3398, "pitch": 69, "duration": 5, "velocity": 122}, {"time": 3404, "pitch": 67, "duration": 5, "velocity": 93}, {"time": 3410, "pitch": 64, "duration": 10, "velocity": 100}, {"time": 3422, "pitch": 67, "duration": 9, "velocity": 122}, {"time": 3434, "pitch": 69, "duration": 17, "velocity": 127}, {"time": 3464, "pitch": 69, "duration": 3, "velocity": 92}, {"time": 3467, "pitch": 72, "duration": 3, "velocity": 86}, {"time": 3471, "pitch": 67, "duration": 14, "velocity": 96}, {"time": 3482, "pitch": 60, "duration": 14, "velocity": 99}, {"time": 3500, "pitch": 64, "duration": 6, "velocity": 97}, {"time": 3506, "pitch": 62, "duration": 9, "velocity": 112}, {"time": 3518, "pitch": 60, "duration": 8, "velocity": 96}, {"time": 3530, "pitch": 62, "duration": 16, "velocity": 107}, {"time": 3578, "pitch": 62, "duration": 10, "velocity": 127}, {"time": 3590, "pitch": 64, "duration": 8, "velocity": 127}, {"time": 3602, "pitch": 67, "duration": 9, "velocity": 122}, {"time": 3614, "pitch": 67, "duration": 6, "velocity": 117}, {"time": 3626, "pitch": 62, "duration": 7, "velocity": 117}, {"time": 3632, "pitch": 60, "duration": 5, "velocity": 92}, {"time": 3638, "pitch": 62, "duration": 7, "velocity": 97}, {"time": 3644, "pitch": 60, "duration": 6, "velocity": 93}, {"time": 3650, "pitch": 57, "duration": 24, "velocity": 112}, {"time": 3674, "pitch": 67, "duration": 3, "velocity": 112}, {"time": 3680, "pitch": 67, "duration": 3, "velocity": 92}, {"time": 3686, "pitch": 67, "duration": 4, "velocity": 96}, {"time": 3692, "pitch": 64, "duration": 5, "velocity": 95}, {"time": 3698, "pitch": 67, "duration": 10, "velocity": 122}, {"time": 3710, "pitch": 69, "duration": 10, "velocity": 107}, {"time": 3716, "pitch": 67, "duration": 6, "velocity": 122}, {"time": 3722, "pitch": 69, "duration": 17, "velocity": 117}, {"time": 3770, "pitch": 67, "duration": 3, "velocity": 117}, {"time": 3776, "pitch": 67, "duration": 3, "velocity": 97}, {"time": 3782, "pitch": 67, "duration": 4, "velocity": 107}, {"time": 3788, "pitch": 69, "duration": 4, "velocity": 122}, {"time": 3794, "pitch": 72, "duration": 7, "velocity": 127}, {"time": 3806, "pitch": 69, "duration": 6, "velocity": 127}, {"time": 3812, "pitch": 67, "duration": 6, "velocity": 95}, {"time": 3818, "pitch": 64, "duration": 19, "velocity": 112}, {"time": 3866, "pitch": 62, "duration": 12, "velocity": 122}, {"time": 3878, "pitch": 64, "duration": 12, "velocity": 127}, {"time": 3890, "pitch": 60, "duration": 9, "velocity": 107}, {"time": 3902, "pitch": 62, "duration": 10, "velocity": 99}, {"time": 3914, "pitch": 59, "duration": 11, "velocity": 99}, {"time": 3938, "pitch": 55, "duration": 7, "velocity": 93}, {"time": 3944, "pitch": 57, "duration": 7, "velocity": 76}, {"time": 3950, "pitch": 59, "duration": 20, "velocity": 83}, {"time": 3968, "pitch": 57, "duration": 61, "velocity": 100}, {"time": 4826, "pitch": 69, "duration": 7, "velocity": 117}, {"time": 4838, "pitch": 69, "duration": 5, "velocity": 122}, {"time": 4844, "pitch": 67, "duration": 5, "velocity": 93}, {"time": 4850, "pitch": 64, "duration": 10, "velocity": 100}, {"time": 4862, "pitch": 67, "duration": 9, "velocity": 122}, {"time": 4874, "pitch": 69, "duration": 17, "velocity": 127}, {"time": 4904, "pitch": 69, "duration": 3, "velocity": 92}, {"time": 4907, "pitch": 72, "duration": 3, "velocity": 86}, {"time": 4911, "pitch": 67, "duration": 14, "velocity": 96}, {"time": 4922, "pitch": 60, "duration": 14, "velocity": 99}, {"time": 4940, "pitch": 64, "duration": 6, "velocity": 97}, {"time": 4946, "pitch": 62, "duration": 9, "velocity": 112}, {"time": 4958, "pitch": 60, "duration": 8, "velocity": 96}, {"time": 4970, "pitch": 62, "duration": 16, "velocity": 107}, {"time": 5018, "pitch": 62, "duration": 10, "velocity": 127}, {"time": 5030, "pitch": 64, "duration": 8, "velocity": 127}, {"time": 5042, "pitch": 67, "duration": 9, "velocity": 122}, {"time": 5054, "pitch": 67, "duration": 6, "velocity": 117}, {"time": 5066, "pitch": 62, "duration": 7, "velocity": 117}, {"time": 5072, "pitch": 60, "duration": 5, "velocity": 92}, {"time": 5078, "pitch": 62, "duration": 7, "velocity": 97}, {"time": 5084, "pitch": 60, "duration": 6, "velocity": 93}, {"time": 5090, "pitch": 57, "duration": 24, "velocity": 112}, {"time": 5114, "pitch": 67, "duration": 3, "velocity": 112}, {"time": 5120, "pitch": 67, "duration": 3, "velocity": 92}, {"time": 5126, "pitch": 67, "duration": 4, "velocity": 96}, {"time": 5132, "pitch": 64, "duration": 5, "velocity": 95}, {"time": 5138, "pitch": 67, "duration": 10, "velocity": 122}, {"time": 5150, "pitch": 69, "duration": 10, "velocity": 107}, {"time": 5156, "pitch": 67, "duration": 6, "velocity": 122}, {"time": 5162, "pitch": 69, "duration": 17, "velocity": 117}, {"time": 5210, "pitch": 67, "duration": 3, "velocity": 117}, {"time": 5216, "pitch": 67, "duration": 3, "velocity": 97}, {"time": 5222, "pitch": 67, "duration": 4, "velocity": 107}, {"time": 5228, "pitch": 69, "duration": 4, "velocity": 122}, {"time": 5234, "pitch": 72, "duration": 7, "velocity": 127}, {"time": 5246, "pitch": 69, "duration": 6, "velocity": 127}, {"time": 5252, "pitch": 67, "duration": 6, "velocity": 95}, {"time": 5258, "pitch": 64, "duration": 19, "velocity": 112}, {"time": 5306, "pitch": 62, "duration": 12, "velocity": 122}, {"time": 5318, "pitch": 64, "duration": 12, "velocity": 127}, {"time": 5330, "pitch": 60, "duration": 9, "velocity": 107}, {"time": 5342, "pitch": 62, "duration": 10, "velocity": 99}, {"time": 5354, "pitch": 59, "duration": 11, "velocity": 99}, {"time": 5378, "pitch": 55, "duration": 7, "velocity": 93}, {"time": 5384, "pitch": 57, "duration": 7, "velocity": 76}, {"time": 5390, "pitch": 59, "duration": 20, "velocity": 83}, {"time": 5408, "pitch": 57, "duration": 61, "velocity": 100}, {"time": 5498, "pitch": 69, "duration": 5, "velocity": 112}, {"time": 5510, "pitch": 69, "duration": 4, "velocity": 100}, {"time": 5516, "pitch": 67, "duration": 3, "velocity": 77}, {"time": 5522, "pitch": 69, "duration": 5, "velocity": 102}, {"time": 5534, "pitch": 69, "duration": 4, "velocity": 97}, {"time": 5540, "pitch": 67, "duration": 3, "velocity": 89}, {"time": 5546, "pitch": 69, "duration": 3, "velocity": 99}, {"time": 5552, "pitch": 72, "duration": 3, "velocity": 96}, {"time": 5558, "pitch": 69, "duration": 3, "velocity": 99}, {"time": 5564, "pitch": 67, "duration": 4, "velocity": 93}, {"time": 5570, "pitch": 69, "duration": 6, "velocity": 122}, {"time": 5594, "pitch": 62, "duration": 4, "velocity": 92}, {"time": 5606, "pitch": 62, "duration": 4, "velocity": 93}, {"time": 5612, "pitch": 64, "duration": 4, "velocity": 96}, {"time": 5618, "pitch": 67, "duration": 5, "velocity": 107}, {"time": 5630, "pitch": 67, "duration": 3, "velocity": 90}, {"time": 5636, "pitch": 64, "duration": 4, "velocity": 97}, {"time": 5642, "pitch": 62, "duration": 3, "velocity": 89}, {"time": 5648, "pitch": 64, "duration": 4, "velocity": 82}, {"time": 5654, "pitch": 62, "duration": 4, "velocity": 96}, {"time": 5660, "pitch": 60, "duration": 3, "velocity": 89}, {"time": 5666, "pitch": 57, "duration": 8, "velocity": 100}]}, {"program": 0, "is_drum": false, "name": "PIANO", "notes": [{"time": 26, "pitch": 45, "duration": 19, "velocity": 59}, {"time": 38, "pitch": 64, "duration": 4, "velocity": 82}, {"time": 38, "pitch": 69, "duration": 3, "velocity": 83}, {"time": 38, "pitch": 72, "duration": 3, "velocity": 72}, {"time": 44, "pitch": 64, "duration": 4, "velocity": 62}, {"time": 44, "pitch": 69, "duration": 4, "velocity": 72}, {"time": 44, "pitch": 72, "duration": 4, "velocity": 72}, {"time": 50, "pitch": 57, "duration": 22, "velocity": 63}, {"time": 62, "pitch": 64, "duration": 3, "velocity": 69}, {"time": 62, "pitch": 69, "duration": 3, "velocity": 78}, {"time": 62, "pitch": 72, "duration": 3, "velocity": 76}, {"time": 74, "pitch": 45, "duration": 21, "velocity": 67}, {"time": 86, "pitch": 64, "duration": 4, "velocity": 66}, {"time": 86, "pitch": 69, "duration": 3, "velocity": 72}, {"time": 86, "pitch": 72, "duration": 4, "velocity": 69}, {"time": 92, "pitch": 64, "duration": 4, "velocity": 74}, {"time": 92, "pitch": 69, "duration": 4, "velocity": 79}, {"time": 92, "pitch": 72, "duration": 4, "velocity": 76}, {"time": 98, "pitch": 57, "duration": 14, "velocity": 66}, {"time": 110, "pitch": 64, "duration": 5, "velocity": 82}, {"time": 110, "pitch": 69, "duration": 4, "velocity": 90}, {"time": 110, "pitch": 72, "duration": 4, "velocity": 83}, {"time": 122, "pitch": 38, "duration": 20, "velocity": 57}, {"time": 134, "pitch": 62, "duration": 4, "velocity": 72}, {"time": 134, "pitch": 65, "duration": 3, "velocity": 73}, {"time": 134, "pitch": 69, "duration": 4, "velocity": 68}, {"time": 140, "pitch": 62, "duration": 4, "velocity": 64}, {"time": 140, "pitch": 65, "duration": 4, "velocity": 72}, {"time": 140, "pitch": 69, "duration": 4, "velocity": 62}, {"time": 146, "pitch": 40, "duration": 21, "velocity": 58}, {"time": 158, "pitch": 64, "duration": 4, "velocity": 75}, {"time": 158, "pitch": 67, "duration": 4, "velocity": 79}, {"time": 158, "pitch": 71, "duration": 4, "velocity": 79}, {"time": 164, "pitch": 64, "duration": 4, "velocity": 63}, {"time": 164, "pitch": 67, "duration": 4, "velocity": 70}, {"time": 164, "pitch": 71, "duration": 4, "velocity": 67}, {"time": 170, "pitch": 38, "duration": 12, "velocity": 82}, {"time": 182, "pitch": 62, "duration": 5, "velocity": 81}, {"time": 182, "pitch": 65, "duration": 4, "velocity": 77}, {"time": 182, "pitch": 69, "duration": 5, "velocity": 75}, {"time": 194, "pitch": 45, "duration": 20, "velocity": 76}, {"time": 194, "pitch": 64, "duration": 21, "velocity": 77}, {"time": 194, "pitch": 69, "duration": 21, "velocity": 93}, {"time": 194, "pitch": 72, "duration": 21, "velocity": 95}, {"time": 218, "pitch": 36, "duration": 15, "velocity": 83}, {"time": 230, "pitch": 55, "duration": 4, "velocity": 78}, {"time": 230, "pitch": 60, "duration": 4, "velocity": 81}, {"time": 230, "pitch": 64, "duration": 4, "velocity": 77}, {"time": 236, "pitch": 36, "duration": 2, "velocity": 58}, {"time": 236, "pitch": 48, "duration": 3, "velocity": 79}, {"time": 242, "pitch": 36, "duration": 10, "velocity": 60}, {"time": 242, "pitch": 48, "duration": 18, "velocity": 79}, {"time": 254, "pitch": 60, "duration": 8, "velocity": 89}, {"time": 254, "pitch": 64, "duration": 11, "velocity": 85}, {"time": 260, "pitch": 55, "duration": 4, "velocity": 78}, {"time": 266, "pitch": 45, "duration": 16, "velocity": 76}, {"time": 278, "pitch": 57, "duration": 4, "velocity": 81}, {"time": 278, "pitch": 60, "duration": 4, "velocity": 81}, {"time": 278, "pitch": 64, "duration": 7, "velocity": 76}, {"time": 284, "pitch": 45, "duration": 4, "velocity": 68}, {"time": 290, "pitch": 45, "duration": 21, "velocity": 81}, {"time": 302, "pitch": 60, "duration": 11, "velocity": 99}, {"time": 302, "pitch": 64, "duration": 12, "velocity": 92}, {"time": 314, "pitch": 48, "duration": 15, "velocity": 81}, {"time": 326, "pitch": 55, "duration": 4, "velocity": 82}, {"time": 326, "pitch": 60, "duration": 5, "velocity": 89}, {"time": 326, "pitch": 64, "duration": 5, "velocity": 82}, {"time": 332, "pitch": 48, "duration": 3, "velocity": 73}, {"time": 338, "pitch": 48, "duration": 18, "velocity": 66}, {"time": 350, "pitch": 60, "duration": 10, "velocity": 97}, {"time": 350, "pitch": 64, "duration": 11, "velocity": 92}, {"time": 356, "pitch": 55, "duration": 5, "velocity": 75}, {"time": 362, "pitch": 45, "duration": 15, "velocity": 70}, {"time": 374, "pitch": 57, "duration": 5, "velocity": 75}, {"time": 374, "pitch": 60, "duration": 8, "velocity": 79}, {"time": 374, "pitch": 64, "duration": 12, "velocity": 76}, {"time": 380, "pitch": 45, "duration": 3, "velocity": 78}, {"time": 386, "pitch": 45, "duration": 14, "velocity": 78}, {"time": 398, "pitch": 60, "duration": 13, "velocity": 97}, {"time": 398, "pitch": 64, "duration": 11, "velocity": 88}, {"time": 404, "pitch": 57, "duration": 8, "velocity": 78}, {"time": 410, "pitch": 38, "duration": 14, "velocity": 78}, {"time": 422, "pitch": 57, "duration": 15, "velocity": 88}, {"time": 422, "pitch": 62, "duration": 15, "velocity": 95}, {"time": 422, "pitch": 65, "duration": 16, "velocity": 88}, {"time": 428, "pitch": 45, "duration": 3, "velocity": 72}, {"time": 434, "pitch": 45, "duration": 23, "velocity": 95}, {"time": 440, "pitch": 57, "duration": 8, "velocity": 95}, {"time": 446, "pitch": 62, "duration": 10, "velocity": 92}, {"time": 446, "pitch": 65, "duration": 10, "velocity": 95}, {"time": 452, "pitch": 57, "duration": 7, "velocity": 82}, {"time": 458, "pitch": 40, "duration": 15, "velocity": 77}, {"time": 470, "pitch": 52, "duration": 5, "velocity": 71}, {"time": 470, "pitch": 55, "duration": 6, "velocity": 79}, {"time": 470, "pitch": 59, "duration": 6, "velocity": 77}, {"time": 476, "pitch": 40, "duration": 3, "velocity": 74}, {"time": 482, "pitch": 40, "duration": 13, "velocity": 72}, {"time": 488, "pitch": 64, "duration": 19, "velocity": 73}, {"time": 488, "pitch": 67, "duration": 19, "velocity": 70}, {"time": 494, "pitch": 59, "duration": 14, "velocity": 88}, {"time": 506, "pitch": 45, "duration": 15, "velocity": 77}, {"time": 518, "pitch": 57, "duration": 12, "velocity": 71}, {"time": 518, "pitch": 60, "duration": 12, "velocity": 78}, {"time": 518, "pitch": 64, "duration": 12, "velocity": 81}, {"time": 524, "pitch": 45, "duration": 3, "velocity": 67}, {"time": 530, "pitch": 45, "duration": 17, "velocity": 93}, {"time": 542, "pitch": 64, "duration": 6, "velocity": 78}, {"time": 542, "pitch": 69, "duration": 5, "velocity": 86}, {"time": 542, "pitch": 72, "duration": 6, "velocity": 81}, {"time": 566, "pitch": 45, "duration": 3, "velocity": 96}, {"time": 566, "pitch": 64, "duration": 3, "velocity": 92}, {"time": 566, "pitch": 69, "duration": 3, "velocity": 96}, {"time": 566, "pitch": 72, "duration": 3, "velocity": 93}, {"time": 572, "pitch": 45, "duration": 3, "velocity": 86}, {"time": 572, "pitch": 64, "duration": 3, "velocity": 73}, {"time": 572, "pitch": 69, "duration": 3, "velocity": 89}, {"time": 572, "pitch": 72, "duration": 3, "velocity": 78}, {"time": 578, "pitch": 45, "duration": 4, "velocity": 89}, {"time": 578, "pitch": 64, "duration": 4, "velocity": 82}, {"time": 578, "pitch": 69, "duration": 4, "velocity": 89}, {"time": 578, "pitch": 72, "duration": 4, "velocity": 81}, {"time": 590, "pitch": 45, "duration": 5, "velocity": 102}, {"time": 590, "pitch": 64, "duration": 5, "velocity": 93}, {"time": 590, "pitch": 69, "duration": 5, "velocity": 99}, {"time": 590, "pitch": 72, "duration": 5, "velocity": 96}, {"time": 602, "pitch": 45, "duration": 13, "velocity": 92}, {"time": 614, "pitch": 57, "duration": 4, "velocity": 76}, {"time": 614, "pitch": 60, "duration": 3, "velocity": 86}, {"time": 614, "pitch": 64, "duration": 3, "velocity": 68}, {"time": 620, "pitch": 45, "duration": 3, "velocity": 85}, {"time": 626, "pitch": 45, "duration": 14, "velocity": 76}, {"time": 638, "pitch": 57, "duration": 5, "velocity": 75}, {"time": 638, "pitch": 60, "duration": 5, "velocity": 82}, {"time": 638, "pitch": 64, "duration": 5, "velocity": 68}, {"time": 650, "pitch": 45, "duration": 13, "velocity": 81}, {"time": 662, "pitch": 57, "duration": 3, "velocity": 66}, {"time": 662, "pitch": 60, "duration": 3, "velocity": 76}, {"time": 662, "pitch": 64, "duration": 3, "velocity": 59}, {"time": 668, "pitch": 45, "duration": 3, "velocity": 71}, {"time": 674, "pitch": 45, "duration": 16, "velocity": 83}, {"time": 686, "pitch": 57, "duration": 4, "velocity": 77}, {"time": 686, "pitch": 60, "duration": 4, "velocity": 88}, {"time": 686, "pitch": 64, "duration": 3, "velocity": 77}, {"time": 698, "pitch": 48, "duration": 15, "velocity": 76}, {"time": 710, "pitch": 60, "duration": 6, "velocity": 74}, {"time": 710, "pitch": 64, "duration": 5, "velocity": 81}, {"time": 710, "pitch": 67, "duration": 6, "velocity": 73}, {"time": 722, "pitch": 50, "duration": 18, "velocity": 90}, {"time": 734, "pitch": 62, "duration": 6, "velocity": 81}, {"time": 734, "pitch": 65, "duration": 6, "velocity": 81}, {"time": 734, "pitch": 69, "duration": 6, "velocity": 73}, {"time": 746, "pitch": 45, "duration": 17, "velocity": 77}, {"time": 758, "pitch": 64, "duration": 4, "velocity": 65}, {"time": 758, "pitch": 69, "duration": 4, "velocity": 68}, {"time": 758, "pitch": 72, "duration": 4, "velocity": 68}, {"time": 764, "pitch": 52, "duration": 26, "velocity": 14}, {"time": 764, "pitch": 64, "duration": 3, "velocity": 68}, {"time": 764, "pitch": 69, "duration": 3, "velocity": 79}, {"time": 764, "pitch": 72, "duration": 4, "velocity": 72}, {"time": 770, "pitch": 57, "duration": 11, "velocity": 86}, {"time": 782, "pitch": 64, "duration": 6, "velocity": 89}, {"time": 782, "pitch": 69, "duration": 5, "velocity": 96}, {"time": 782, "pitch": 72, "duration": 5, "velocity": 89}, {"time": 794, "pitch": 48, "duration": 18, "velocity": 89}, {"time": 806, "pitch": 60, "duration": 4, "velocity": 79}, {"time": 806, "pitch": 64, "duration": 3, "velocity": 79}, {"time": 806, "pitch": 67, "duration": 4, "velocity": 77}, {"time": 812, "pitch": 60, "duration": 4, "velocity": 73}, {"time": 812, "pitch": 64, "duration": 3, "velocity": 82}, {"time": 812, "pitch": 67, "duration": 4, "velocity": 76}, {"time": 818, "pitch": 55, "duration": 16, "velocity": 72}, {"time": 830, "pitch": 60, "duration": 5, "velocity": 75}, {"time": 830, "pitch": 64, "duration": 4, "velocity": 86}, {"time": 830, "pitch": 67, "duration": 5, "velocity": 89}, {"time": 842, "pitch": 43, "duration": 19, "velocity": 73}, {"time": 854, "pitch": 62, "duration": 3, "velocity": 73}, {"time": 854, "pitch": 67, "duration": 3, "velocity": 85}, {"time": 854, "pitch": 71, "duration": 3, "velocity": 77}, {"time": 860, "pitch": 62, "duration": 4, "velocity": 78}, {"time": 860, "pitch": 67, "duration": 4, "velocity": 92}, {"time": 860, "pitch": 71, "duration": 4, "velocity": 89}, {"time": 866, "pitch": 55, "duration": 12, "velocity": 85}, {"time": 878, "pitch": 62, "duration": 5, "velocity": 89}, {"time": 878, "pitch": 67, "duration": 4, "velocity": 99}, {"time": 878, "pitch": 71, "duration": 4, "velocity": 93}, {"time": 890, "pitch": 36, "duration": 19, "velocity": 85}, {"time": 902, "pitch": 55, "duration": 3, "velocity": 79}, {"time": 902, "pitch": 60, "duration": 4, "velocity": 90}, {"time": 902, "pitch": 64, "duration": 4, "velocity": 82}, {"time": 908, "pitch": 55, "duration": 4, "velocity": 75}, {"time": 908, "pitch": 60, "duration": 4, "velocity": 85}, {"time": 908, "pitch": 64, "duration": 4, "velocity": 75}, {"time": 914, "pitch": 48, "duration": 20, "velocity": 88}, {"time": 926, "pitch": 55, "duration": 3, "velocity": 97}, {"time": 926, "pitch": 60, "duration": 4, "velocity": 102}, {"time": 926, "pitch": 64, "duration": 4, "velocity": 93}, {"time": 938, "pitch": 36, "duration": 22, "velocity": 81}, {"time": 950, "pitch": 55, "duration": 3, "velocity": 88}, {"time": 950, "pitch": 60, "duration": 3, "velocity": 96}, {"time": 950, "pitch": 64, "duration": 4, "velocity": 90}, {"time": 956, "pitch": 55, "duration": 4, "velocity": 88}, {"time": 956, "pitch": 60, "duration": 4, "velocity": 95}, {"time": 956, "pitch": 64, "duration": 4, "velocity": 90}, {"time": 962, "pitch": 48, "duration": 13, "velocity": 117}, {"time": 974, "pitch": 60, "duration": 9, "velocity": 107}, {"time": 974, "pitch": 64, "duration": 9, "velocity": 100}, {"time": 980, "pitch": 55, "duration": 3, "velocity": 74}, {"time": 986, "pitch": 45, "duration": 20, "velocity": 99}, {"time": 998, "pitch": 64, "duration": 4, "velocity": 86}, {"time": 998, "pitch": 69, "duration": 3, "velocity": 97}, {"time": 998, "pitch": 72, "duration": 4, "velocity": 90}, {"time": 1004, "pitch": 52, "duration": 3, "velocity": 30}, {"time": 1004, "pitch": 64, "duration": 4, "velocity": 89}, {"time": 1004, "pitch": 69, "duration": 4, "velocity": 96}, {"time": 1004, "pitch": 72, "duration": 5, "velocity": 89}, {"time": 1010, "pitch": 52, "duration": 20, "velocity": 63}, {"time": 1010, "pitch": 57, "duration": 13, "velocity": 100}, {"time": 1022, "pitch": 64, "duration": 4, "velocity": 90}, {"time": 1022, "pitch": 69, "duration": 4, "velocity": 97}, {"time": 1022, "pitch": 72, "duration": 4, "velocity": 95}, {"time": 1034, "pitch": 45, "duration": 20, "velocity": 81}, {"time": 1046, "pitch": 64, "duration": 3, "velocity": 86}, {"time": 1046, "pitch": 69, "duration": 3, "velocity": 93}, {"time": 1046, "pitch": 72, "duration": 4, "velocity": 85}, {"time": 1052, "pitch": 64, "duration": 4, "velocity": 75}, {"time": 1052, "pitch": 69, "duration": 4, "velocity": 89}, {"time": 1052, "pitch": 72, "duration": 4, "velocity": 83}, {"time": 1058, "pitch": 52, "duration": 21, "velocity": 60}, {"time": 1058, "pitch": 57, "duration": 16, "velocity": 81}, {"time": 1070, "pitch": 64, "duration": 4, "velocity": 90}, {"time": 1070, "pitch": 69, "duration": 4, "velocity": 99}, {"time": 1070, "pitch": 72, "duration": 4, "velocity": 93}, {"time": 1082, "pitch": 45, "duration": 21, "velocity": 83}, {"time": 1094, "pitch": 64, "duration": 3, "velocity": 85}, {"time": 1094, "pitch": 69, "duration": 3, "velocity": 92}, {"time": 1094, "pitch": 72, "duration": 3, "velocity": 85}, {"time": 1100, "pitch": 64, "duration": 4, "velocity": 92}, {"time": 1100, "pitch": 69, "duration": 3, "velocity": 95}, {"time": 1100, "pitch": 72, "duration": 3, "velocity": 86}, {"time": 1106, "pitch": 52, "duration": 20, "velocity": 54}, {"time": 1106, "pitch": 57, "duration": 11, "velocity": 81}, {"time": 1118, "pitch": 64, "duration": 4, "velocity": 90}, {"time": 1118, "pitch": 69, "duration": 3, "velocity": 97}, {"time": 1118, "pitch": 72, "duration": 4, "velocity": 92}, {"time": 1130, "pitch": 45, "duration": 19, "velocity": 85}, {"time": 1142, "pitch": 64, "duration": 3, "velocity": 85}, {"time": 1142, "pitch": 69, "duration": 3, "velocity": 96}, {"time": 1142, "pitch": 72, "duration": 3, "velocity": 93}, {"time": 1148, "pitch": 52, "duration": 16, "velocity": 25}, {"time": 1148, "pitch": 64, "duration": 4, "velocity": 78}, {"time": 1148, "pitch": 69, "duration": 3, "velocity": 93}, {"time": 1148, "pitch": 72, "duration": 4, "velocity": 86}, {"time": 1154, "pitch": 57, "duration": 10, "velocity": 97}, {"time": 1166, "pitch": 64, "duration": 6, "velocity": 81}, {"time": 1166, "pitch": 69, "duration": 4, "velocity": 102}, {"time": 1166, "pitch": 72, "duration": 5, "velocity": 97}, {"time": 1178, "pitch": 38, "duration": 22, "velocity": 73}, {"time": 1190, "pitch": 62, "duration": 3, "velocity": 85}, {"time": 1190, "pitch": 65, "duration": 3, "velocity": 95}, {"time": 1190, "pitch": 69, "duration": 3, "velocity": 92}, {"time": 1196, "pitch": 45, "duration": 2, "velocity": 18}, {"time": 1196, "pitch": 62, "duration": 4, "velocity": 85}, {"time": 1196, "pitch": 65, "duration": 3, "velocity": 92}, {"time": 1196, "pitch": 69, "duration": 3, "velocity": 89}, {"time": 1202, "pitch": 50, "duration": 20, "velocity": 74}, {"time": 1214, "pitch": 62, "duration": 4, "velocity": 86}, {"time": 1214, "pitch": 65, "duration": 4, "velocity": 95}, {"time": 1214, "pitch": 69, "duration": 4, "velocity": 90}, {"time": 1226, "pitch": 40, "duration": 21, "velocity": 62}, {"time": 1238, "pitch": 59, "duration": 3, "velocity": 79}, {"time": 1238, "pitch": 64, "duration": 3, "velocity": 93}, {"time": 1238, "pitch": 67, "duration": 3, "velocity": 86}, {"time": 1244, "pitch": 59, "duration": 4, "velocity": 81}, {"time": 1244, "pitch": 64, "duration": 4, "velocity": 88}, {"time": 1244, "pitch": 67, "duration": 4, "velocity": 85}, {"time": 1250, "pitch": 52, "duration": 22, "velocity": 77}, {"time": 1262, "pitch": 59, "duration": 3, "velocity": 89}, {"time": 1262, "pitch": 64, "duration": 3, "velocity": 93}, {"time": 1262, "pitch": 67, "duration": 4, "velocity": 88}, {"time": 1274, "pitch": 45, "duration": 22, "velocity": 76}, {"time": 1286, "pitch": 64, "duration": 3, "velocity": 79}, {"time": 1286, "pitch": 69, "duration": 3, "velocity": 89}, {"time": 1286, "pitch": 72, "duration": 4, "velocity": 82}, {"time": 1292, "pitch": 64, "duration": 4, "velocity": 85}, {"time": 1292, "pitch": 69, "duration": 3, "velocity": 95}, {"time": 1292, "pitch": 72, "duration": 4, "velocity": 85}, {"time": 1298, "pitch": 52, "duration": 20, "velocity": 42}, {"time": 1298, "pitch": 57, "duration": 10, "velocity": 96}, {"time": 1310, "pitch": 64, "duration": 3, "velocity": 90}, {"time": 1310, "pitch": 69, "duration": 3, "velocity": 99}, {"time": 1310, "pitch": 72, "duration": 4, "velocity": 96}, {"time": 1322, "pitch": 45, "duration": 20, "velocity": 85}, {"time": 1334, "pitch": 64, "duration": 3, "velocity": 79}, {"time": 1334, "pitch": 69, "duration": 3, "velocity": 93}, {"time": 1334, "pitch": 72, "duration": 3, "velocity": 83}, {"time": 1340, "pitch": 64, "duration": 4, "velocity": 86}, {"time": 1340, "pitch": 69, "duration": 4, "velocity": 95}, {"time": 1340, "pitch": 72, "duration": 4, "velocity": 92}, {"time": 1346, "pitch": 52, "duration": 19, "velocity": 66}, {"time": 1346, "pitch": 57, "duration": 10, "velocity": 96}, {"time": 1352, "pitch": 64, "duration": 3, "velocity": 82}, {"time": 1352, "pitch": 69, "duration": 3, "velocity": 92}, {"time": 1352, "pitch": 72, "duration": 3, "velocity": 85}, {"time": 1358, "pitch": 64, "duration": 4, "velocity": 102}, {"time": 1358, "pitch": 69, "duration": 4, "velocity": 102}, {"time": 1358, "pitch": 72, "duration": 4, "velocity": 100}, {"time": 1370, "pitch": 45, "duration": 21, "velocity": 86}, {"time": 1382, "pitch": 64, "duration": 4, "velocity": 89}, {"time": 1382, "pitch": 69, "duration": 3, "velocity": 95}, {"time": 1382, "pitch": 72, "duration": 4, "velocity": 92}, {"time": 1388, "pitch": 52, "duration": 3, "velocity": 27}, {"time": 1388, "pitch": 64, "duration": 4, "velocity": 88}, {"time": 1388, "pitch": 69, "duration": 3, "velocity": 92}, {"time": 1388, "pitch": 72, "duration": 4, "velocity": 88}, {"time": 1394, "pitch": 52, "duration": 22, "velocity": 61}, {"time": 1394, "pitch": 57, "duration": 8, "velocity": 99}, {"time": 1400, "pitch": 64, "duration": 3, "velocity": 95}, {"time": 1400, "pitch": 69, "duration": 3, "velocity": 102}, {"time": 1400, "pitch": 72, "duration": 4, "velocity": 97}, {"time": 1412, "pitch": 64, "duration": 4, "velocity": 90}, {"time": 1412, "pitch": 69, "duration": 3, "velocity": 96}, {"time": 1412, "pitch": 72, "duration": 4, "velocity": 93}, {"time": 1418, "pitch": 45, "duration": 10, "velocity": 88}, {"time": 1424, "pitch": 64, "duration": 4, "velocity": 86}, {"time": 1424, "pitch": 69, "duration": 4, "velocity": 90}, {"time": 1424, "pitch": 72, "duration": 4, "velocity": 89}, {"time": 1436, "pitch": 45, "duration": 2, "velocity": 43}, {"time": 1436, "pitch": 52, "duration": 3, "velocity": 50}, {"time": 1436, "pitch": 57, "duration": 3, "velocity": 78}, {"time": 1436, "pitch": 64, "duration": 3, "velocity": 83}, {"time": 1436, "pitch": 69, "duration": 3, "velocity": 92}, {"time": 1436, "pitch": 72, "duration": 3, "velocity": 83}, {"time": 1442, "pitch": 45, "duration": 2, "velocity": 56}, {"time": 1442, "pitch": 52, "duration": 3, "velocity": 73}, {"time": 1442, "pitch": 57, "duration": 3, "velocity": 92}, {"time": 1442, "pitch": 64, "duration": 4, "velocity": 89}, {"time": 1442, "pitch": 69, "duration": 3, "velocity": 93}, {"time": 1442, "pitch": 72, "duration": 4, "velocity": 83}, {"time": 1454, "pitch": 45, "duration": 3, "velocity": 53}, {"time": 1454, "pitch": 52, "duration": 4, "velocity": 78}, {"time": 1454, "pitch": 57, "duration": 3, "velocity": 92}, {"time": 1454, "pitch": 64, "duration": 4, "velocity": 93}, {"time": 1454, "pitch": 69, "duration": 3, "velocity": 97}, {"time": 1454, "pitch": 72, "duration": 4, "velocity": 95}, {"time": 1466, "pitch": 45, "duration": 17, "velocity": 85}, {"time": 1478, "pitch": 64, "duration": 3, "velocity": 79}, {"time": 1478, "pitch": 69, "duration": 3, "velocity": 86}, {"time": 1478, "pitch": 72, "duration": 3, "velocity": 76}, {"time": 1484, "pitch": 52, "duration": 3, "velocity": 24}, {"time": 1484, "pitch": 64, "duration": 4, "velocity": 85}, {"time": 1484, "pitch": 69, "duration": 3, "velocity": 95}, {"time": 1484, "pitch": 72, "duration": 4, "velocity": 86}, {"time": 1490, "pitch": 52, "duration": 10, "velocity": 42}, {"time": 1490, "pitch": 57, "duration": 10, "velocity": 79}, {"time": 1502, "pitch": 64, "duration": 7, "velocity": 90}, {"time": 1502, "pitch": 69, "duration": 4, "velocity": 96}, {"time": 1502, "pitch": 72, "duration": 5, "velocity": 93}, {"time": 1514, "pitch": 38, "duration": 20, "velocity": 69}, {"time": 1526, "pitch": 62, "duration": 3, "velocity": 88}, {"time": 1526, "pitch": 65, "duration": 3, "velocity": 89}, {"time": 1526, "pitch": 69, "duration": 4, "velocity": 82}, {"time": 1532, "pitch": 62, "duration": 3, "velocity": 89}, {"time": 1532, "pitch": 65, "duration": 3, "velocity": 88}, {"time": 1532, "pitch": 69, "duration": 3, "velocity": 81}, {"time": 1538, "pitch": 50, "duration": 18, "velocity": 74}, {"time": 1550, "pitch": 62, "duration": 4, "velocity": 93}, {"time": 1550, "pitch": 65, "duration": 4, "velocity": 95}, {"time": 1550, "pitch": 69, "duration": 5, "velocity": 93}, {"time": 1562, "pitch": 38, "duration": 12, "velocity": 89}, {"time": 1562, "pitch": 62, "duration": 9, "velocity": 92}, {"time": 1562, "pitch": 65, "duration": 9, "velocity": 96}, {"time": 1562, "pitch": 69, "duration": 10, "velocity": 93}, {"time": 1586, "pitch": 40, "duration": 9, "velocity": 95}, {"time": 1586, "pitch": 64, "duration": 8, "velocity": 96}, {"time": 1586, "pitch": 67, "duration": 8, "velocity": 96}, {"time": 1586, "pitch": 71, "duration": 9, "velocity": 90}, {"time": 1610, "pitch": 38, "duration": 9, "velocity": 82}, {"time": 1610, "pitch": 50, "duration": 9, "velocity": 102}, {"time": 1610, "pitch": 62, "duration": 9, "velocity": 85}, {"time": 1610, "pitch": 65, "duration": 9, "velocity": 86}, {"time": 1610, "pitch": 69, "duration": 9, "velocity": 86}, {"time": 1622, "pitch": 38, "duration": 7, "velocity": 72}, {"time": 1622, "pitch": 50, "duration": 8, "velocity": 95}, {"time": 1622, "pitch": 62, "duration": 9, "velocity": 90}, {"time": 1622, "pitch": 65, "duration": 8, "velocity": 93}, {"time": 1622, "pitch": 69, "duration": 9, "velocity": 90}, {"time": 1634, "pitch": 45, "duration": 12, "velocity": 60}, {"time": 1634, "pitch": 52, "duration": 12, "velocity": 69}, {"time": 1634, "pitch": 57, "duration": 12, "velocity": 77}, {"time": 1634, "pitch": 64, "duration": 13, "velocity": 90}, {"time": 1634, "pitch": 69, "duration": 13, "velocity": 96}, {"time": 1634, "pitch": 72, "duration": 13, "velocity": 90}, {"time": 1658, "pitch": 48, "duration": 19, "velocity": 71}, {"time": 1670, "pitch": 67, "duration": 4, "velocity": 82}, {"time": 1670, "pitch": 72, "duration": 4, "velocity": 89}, {"time": 1670, "pitch": 76, "duration": 4, "velocity": 83}, {"time": 1676, "pitch": 55, "duration": 2, "velocity": 26}, {"time": 1676, "pitch": 67, "duration": 4, "velocity": 79}, {"time": 1676, "pitch": 72, "duration": 4, "velocity": 92}, {"time": 1676, "pitch": 76, "duration": 4, "velocity": 77}, {"time": 1682, "pitch": 55, "duration": 12, "velocity": 52}, {"time": 1682, "pitch": 60, "duration": 10, "velocity": 75}, {"time": 1694, "pitch": 67, "duration": 6, "velocity": 89}, {"time": 1694, "pitch": 72, "duration": 5, "velocity": 96}, {"time": 1694, "pitch": 76, "duration": 5, "velocity": 93}, {"time": 1706, "pitch": 45, "duration": 19, "velocity": 72}, {"time": 1718, "pitch": 64, "duration": 4, "velocity": 85}, {"time": 1718, "pitch": 69, "duration": 3, "velocity": 92}, {"time": 1718, "pitch": 72, "duration": 4, "velocity": 86}, {"time": 1724, "pitch": 52, "duration": 2, "velocity": 26}, {"time": 1724, "pitch": 64, "duration": 5, "velocity": 75}, {"time": 1724, "pitch": 69, "duration": 4, "velocity": 88}, {"time": 1724, "pitch": 72, "duration": 4, "velocity": 82}, {"time": 1730, "pitch": 52, "duration": 14, "velocity": 50}, {"time": 1730, "pitch": 57, "duration": 15, "velocity": 78}, {"time": 1736, "pitch": 64, "duration": 8, "velocity": 89}, {"time": 1736, "pitch": 69, "duration": 8, "velocity": 96}, {"time": 1736, "pitch": 72, "duration": 8, "velocity": 93}, {"time": 1748, "pitch": 64, "duration": 6, "velocity": 83}, {"time": 1748, "pitch": 69, "duration": 6, "velocity": 92}, {"time": 1748, "pitch": 72, "duration": 6, "velocity": 83}, {"time": 1754, "pitch": 48, "duration": 20, "velocity": 78}, {"time": 1766, "pitch": 67, "duration": 4, "velocity": 85}, {"time": 1766, "pitch": 72, "duration": 4, "velocity": 102}, {"time": 1766, "pitch": 76, "duration": 4, "velocity": 96}, {"time": 1772, "pitch": 67, "duration": 5, "velocity": 82}, {"time": 1772, "pitch": 72, "duration": 5, "velocity": 96}, {"time": 1772, "pitch": 76, "duration": 5, "velocity": 86}, {"time": 1778, "pitch": 55, "duration": 10, "velocity": 61}, {"time": 1778, "pitch": 60, "duration": 8, "velocity": 81}, {"time": 1790, "pitch": 67, "duration": 7, "velocity": 92}, {"time": 1790, "pitch": 72, "duration": 6, "velocity": 96}, {"time": 1790, "pitch": 76, "duration": 6, "velocity": 93}, {"time": 1802, "pitch": 45, "duration": 20, "velocity": 83}, {"time": 1814, "pitch": 64, "duration": 3, "velocity": 86}, {"time": 1814, "pitch": 69, "duration": 3, "velocity": 95}, {"time": 1814, "pitch": 72, "duration": 4, "velocity": 88}, {"time": 1820, "pitch": 64, "duration": 8, "velocity": 78}, {"time": 1820, "pitch": 69, "duration": 7, "velocity": 88}, {"time": 1820, "pitch": 72, "duration": 8, "velocity": 76}, {"time": 1826, "pitch": 52, "duration": 9, "velocity": 55}, {"time": 1826, "pitch": 57, "duration": 16, "velocity": 81}, {"time": 1832, "pitch": 64, "duration": 9, "velocity": 90}, {"time": 1832, "pitch": 69, "duration": 8, "velocity": 93}, {"time": 1832, "pitch": 72, "duration": 9, "velocity": 88}, {"time": 1844, "pitch": 64, "duration": 8, "velocity": 90}, {"time": 1844, "pitch": 69, "duration": 5, "velocity": 92}, {"time": 1844, "pitch": 72, "duration": 6, "velocity": 83}, {"time": 1850, "pitch": 50, "duration": 17, "velocity": 85}, {"time": 1862, "pitch": 62, "duration": 4, "velocity": 90}, {"time": 1862, "pitch": 65, "duration": 3, "velocity": 95}, {"time": 1862, "pitch": 69, "duration": 4, "velocity": 95}, {"time": 1868, "pitch": 62, "duration": 4, "velocity": 92}, {"time": 1868, "pitch": 65, "duration": 4, "velocity": 93}, {"time": 1868, "pitch": 69, "duration": 4, "velocity": 86}, {"time": 1874, "pitch": 50, "duration": 12, "velocity": 63}, {"time": 1886, "pitch": 62, "duration": 6, "velocity": 93}, {"time": 1886, "pitch": 65, "duration": 5, "velocity": 100}, {"time": 1886, "pitch": 69, "duration": 6, "velocity": 95}, {"time": 1898, "pitch": 40, "duration": 13, "velocity": 71}, {"time": 1898, "pitch": 64, "duration": 10, "velocity": 97}, {"time": 1898, "pitch": 67, "duration": 10, "velocity": 95}, {"time": 1898, "pitch": 71, "duration": 10, "velocity": 95}, {"time": 1922, "pitch": 40, "duration": 7, "velocity": 55}, {"time": 1922, "pitch": 47, "duration": 8, "velocity": 71}, {"time": 1922, "pitch": 52, "duration": 10, "velocity": 86}, {"time": 1922, "pitch": 64, "duration": 8, "velocity": 90}, {"time": 1922, "pitch": 67, "duration": 8, "velocity": 85}, {"time": 1922, "pitch": 71, "duration": 9, "velocity": 83}, {"time": 1946, "pitch": 45, "duration": 17, "velocity": 89}, {"time": 1958, "pitch": 64, "duration": 3, "velocity": 75}, {"time": 1958, "pitch": 69, "duration": 3, "velocity": 88}, {"time": 1958, "pitch": 72, "duration": 3, "velocity": 76}, {"time": 1964, "pitch": 64, "duration": 5, "velocity": 75}, {"time": 1964, "pitch": 69, "duration": 4, "velocity": 86}, {"time": 1964, "pitch": 72, "duration": 4, "velocity": 74}, {"time": 1970, "pitch": 52, "duration": 19, "velocity": 63}, {"time": 1970, "pitch": 57, "duration": 10, "velocity": 85}, {"time": 1982, "pitch": 64, "duration": 5, "velocity": 78}, {"time": 1982, "pitch": 69, "duration": 5, "velocity": 85}, {"time": 1982, "pitch": 72, "duration": 5, "velocity": 76}, {"time": 1994, "pitch": 45, "duration": 18, "velocity": 69}, {"time": 2006, "pitch": 64, "duration": 3, "velocity": 81}, {"time": 2006, "pitch": 69, "duration": 3, "velocity": 86}, {"time": 2006, "pitch": 72, "duration": 3, "velocity": 75}, {"time": 2012, "pitch": 64, "duration": 5, "velocity": 73}, {"time": 2012, "pitch": 69, "duration": 4, "velocity": 83}, {"time": 2012, "pitch": 72, "duration": 4, "velocity": 78}, {"time": 2018, "pitch": 52, "duration": 20, "velocity": 39}, {"time": 2018, "pitch": 57, "duration": 10, "velocity": 78}, {"time": 2030, "pitch": 64, "duration": 4, "velocity": 89}, {"time": 2030, "pitch": 69, "duration": 4, "velocity": 96}, {"time": 2030, "pitch": 72, "duration": 5, "velocity": 93}, {"time": 2042, "pitch": 45, "duration": 19, "velocity": 82}, {"time": 2054, "pitch": 64, "duration": 4, "velocity": 76}, {"time": 2054, "pitch": 69, "duration": 3, "velocity": 86}, {"time": 2054, "pitch": 72, "duration": 4, "velocity": 81}, {"time": 2060, "pitch": 64, "duration": 4, "velocity": 76}, {"time": 2060, "pitch": 69, "duration": 4, "velocity": 85}, {"time": 2060, "pitch": 72, "duration": 4, "velocity": 75}, {"time": 2066, "pitch": 52, "duration": 22, "velocity": 63}, {"time": 2066, "pitch": 57, "duration": 9, "velocity": 86}, {"time": 2078, "pitch": 64, "duration": 5, "velocity": 82}, {"time": 2078, "pitch": 69, "duration": 4, "velocity": 86}, {"time": 2078, "pitch": 72, "duration": 4, "velocity": 78}, {"time": 2090, "pitch": 45, "duration": 21, "velocity": 69}, {"time": 2102, "pitch": 64, "duration": 3, "velocity": 74}, {"time": 2102, "pitch": 69, "duration": 3, "velocity": 85}, {"time": 2102, "pitch": 72, "duration": 3, "velocity": 75}, {"time": 2108, "pitch": 64, "duration": 4, "velocity": 72}, {"time": 2108, "pitch": 69, "duration": 3, "velocity": 82}, {"time": 2108, "pitch": 72, "duration": 4, "velocity": 74}, {"time": 2114, "pitch": 52, "duration": 12, "velocity": 50}, {"time": 2114, "pitch": 57, "duration": 12, "velocity": 74}, {"time": 2126, "pitch": 69, "duration": 5, "velocity": 95}, {"time": 2126, "pitch": 72, "duration": 6, "velocity": 93}, {"time": 2138, "pitch": 38, "duration": 16, "velocity": 63}, {"time": 2150, "pitch": 62, "duration": 3, "velocity": 82}, {"time": 2150, "pitch": 65, "duration": 3, "velocity": 85}, {"time": 2150, "pitch": 69, "duration": 3, "velocity": 83}, {"time": 2156, "pitch": 62, "duration": 3, "velocity": 85}, {"time": 2156, "pitch": 65, "duration": 3, "velocity": 90}, {"time": 2156, "pitch": 69, "duration": 3, "velocity": 85}, {"time": 2162, "pitch": 45, "duration": 14, "velocity": 47}, {"time": 2162, "pitch": 50, "duration": 12, "velocity": 77}, {"time": 2174, "pitch": 62, "duration": 3, "velocity": 86}, {"time": 2174, "pitch": 65, "duration": 3, "velocity": 93}, {"time": 2174, "pitch": 69, "duration": 4, "velocity": 89}, {"time": 2186, "pitch": 38, "duration": 22, "velocity": 78}, {"time": 2198, "pitch": 62, "duration": 3, "velocity": 83}, {"time": 2198, "pitch": 65, "duration": 3, "velocity": 83}, {"time": 2198, "pitch": 69, "duration": 3, "velocity": 79}, {"time": 2204, "pitch": 62, "duration": 4, "velocity": 86}, {"time": 2204, "pitch": 65, "duration": 3, "velocity": 93}, {"time": 2204, "pitch": 69, "duration": 4, "velocity": 85}, {"time": 2210, "pitch": 50, "duration": 15, "velocity": 69}, {"time": 2222, "pitch": 62, "duration": 6, "velocity": 86}, {"time": 2222, "pitch": 65, "duration": 6, "velocity": 90}, {"time": 2222, "pitch": 69, "duration": 7, "velocity": 88}, {"time": 2234, "pitch": 36, "duration": 15, "velocity": 83}, {"time": 2246, "pitch": 55, "duration": 4, "velocity": 78}, {"time": 2246, "pitch": 60, "duration": 4, "velocity": 81}, {"time": 2246, "pitch": 64, "duration": 4, "velocity": 77}, {"time": 2252, "pitch": 36, "duration": 2, "velocity": 58}, {"time": 2252, "pitch": 48, "duration": 3, "velocity": 79}, {"time": 2258, "pitch": 36, "duration": 10, "velocity": 60}, {"time": 2258, "pitch": 48, "duration": 18, "velocity": 79}, {"time": 2270, "pitch": 60, "duration": 8, "velocity": 89}, {"time": 2270, "pitch": 64, "duration": 11, "velocity": 85}, {"time": 2276, "pitch": 55, "duration": 4, "velocity": 78}, {"time": 2282, "pitch": 45, "duration": 16, "velocity": 76}, {"time": 2294, "pitch": 57, "duration": 4, "velocity": 81}, {"time": 2294, "pitch": 60, "duration": 4, "velocity": 81}, {"time": 2294, "pitch": 64, "duration": 7, "velocity": 76}, {"time": 2300, "pitch": 45, "duration": 4, "velocity": 68}, {"time": 2306, "pitch": 45, "duration": 21, "velocity": 81}, {"time": 2318, "pitch": 60, "duration": 11, "velocity": 99}, {"time": 2318, "pitch": 64, "duration": 12, "velocity": 92}, {"time": 2330, "pitch": 48, "duration": 15, "velocity": 81}, {"time": 2342, "pitch": 55, "duration": 4, "velocity": 82}, {"time": 2342, "pitch": 60, "duration": 5, "velocity": 89}, {"time": 2342, "pitch": 64, "duration": 5, "velocity": 82}, {"time": 2348, "pitch": 48, "duration": 3, "velocity": 73}, {"time": 2354, "pitch": 48, "duration": 18, "velocity": 66}, {"time": 2366, "pitch": 60, "duration": 10, "velocity": 97}, {"time": 2366, "pitch": 64, "duration": 11, "velocity": 92}, {"time": 2372, "pitch": 55, "duration": 5, "velocity": 75}, {"time": 2378, "pitch": 45, "duration": 15, "velocity": 70}, {"time": 2390, "pitch": 57, "duration": 5, "velocity": 75}, {"time": 2390, "pitch": 60, "duration": 8, "velocity": 79}, {"time": 2390, "pitch": 64, "duration": 12, "velocity": 76}, {"time": 2396, "pitch": 45, "duration": 3, "velocity": 78}, {"time": 2402, "pitch": 45, "duration": 14, "velocity": 78}, {"time": 2414, "pitch": 60, "duration": 13, "velocity": 97}, {"time": 2414, "pitch": 64, "duration": 11, "velocity": 88}, {"time": 2420, "pitch": 57, "duration": 8, "velocity": 78}, {"time": 2426, "pitch": 38, "duration": 14, "velocity": 78}, {"time": 2438, "pitch": 57, "duration": 15, "velocity": 88}, {"time": 2438, "pitch": 62, "duration": 15, "velocity": 95}, {"time": 2438, "pitch": 65, "duration": 16, "velocity": 88}, {"time": 2444, "pitch": 45, "duration": 3, "velocity": 72}, {"time": 2450, "pitch": 45, "duration": 23, "velocity": 95}, {"time": 2456, "pitch": 57, "duration": 8, "velocity": 95}, {"time": 2462, "pitch": 62, "duration": 10, "velocity": 92}, {"time": 2462, "pitch": 65, "duration": 10, "velocity": 95}, {"time": 2468, "pitch": 57, "duration": 7, "velocity": 82}, {"time": 2474, "pitch": 40, "duration": 15, "velocity": 77}, {"time": 2486, "pitch": 52, "duration": 5, "velocity": 71}, {"time": 2486, "pitch": 55, "duration": 6, "velocity": 79}, {"time": 2486, "pitch": 59, "duration": 6, "velocity": 77}, {"time": 2492, "pitch": 40, "duration": 3, "velocity": 74}, {"time": 2498, "pitch": 40, "duration": 13, "velocity": 72}, {"time": 2504, "pitch": 64, "duration": 19, "velocity": 73}, {"time": 2504, "pitch": 67, "duration": 19, "velocity": 70}, {"time": 2510, "pitch": 59, "duration": 14, "velocity": 88}, {"time": 2522, "pitch": 45, "duration": 15, "velocity": 77}, {"time": 2534, "pitch": 57, "duration": 12, "velocity": 71}, {"time": 2534, "pitch": 60, "duration": 12, "velocity": 78}, {"time": 2534, "pitch": 64, "duration": 12, "velocity": 81}, {"time": 2540, "pitch": 45, "duration": 3, "velocity": 67}, {"time": 2546, "pitch": 45, "duration": 17, "velocity": 93}, {"time": 2558, "pitch": 64, "duration": 6, "velocity": 78}, {"time": 2558, "pitch": 69, "duration": 5, "velocity": 86}, {"time": 2558, "pitch": 72, "duration": 6, "velocity": 81}, {"time": 2582, "pitch": 45, "duration": 3, "velocity": 96}, {"time": 2582, "pitch": 64, "duration": 3, "velocity": 92}, {"time": 2582, "pitch": 69, "duration": 3, "velocity": 96}, {"time": 2582, "pitch": 72, "duration": 3, "velocity": 93}, {"time": 2588, "pitch": 45, "duration": 3, "velocity": 86}, {"time": 2588, "pitch": 64, "duration": 3, "velocity": 73}, {"time": 2588, "pitch": 69, "duration": 3, "velocity": 89}, {"time": 2588, "pitch": 72, "duration": 3, "velocity": 78}, {"time": 2594, "pitch": 45, "duration": 4, "velocity": 89}, {"time": 2594, "pitch": 64, "duration": 4, "velocity": 82}, {"time": 2594, "pitch": 69, "duration": 4, "velocity": 89}, {"time": 2594, "pitch": 72, "duration": 4, "velocity": 81}, {"time": 2606, "pitch": 45, "duration": 5, "velocity": 102}, {"time": 2606, "pitch": 64, "duration": 5, "velocity": 93}, {"time": 2606, "pitch": 69, "duration": 5, "velocity": 99}, {"time": 2606, "pitch": 72, "duration": 5, "velocity": 96}, {"time": 2618, "pitch": 45, "duration": 13, "velocity": 92}, {"time": 2630, "pitch": 57, "duration": 4, "velocity": 76}, {"time": 2630, "pitch": 60, "duration": 3, "velocity": 86}, {"time": 2630, "pitch": 64, "duration": 3, "velocity": 68}, {"time": 2636, "pitch": 45, "duration": 3, "velocity": 85}, {"time": 2642, "pitch": 45, "duration": 14, "velocity": 76}, {"time": 2654, "pitch": 57, "duration": 5, "velocity": 75}, {"time": 2654, "pitch": 60, "duration": 5, "velocity": 82}, {"time": 2654, "pitch": 64, "duration": 5, "velocity": 68}, {"time": 2666, "pitch": 45, "duration": 13, "velocity": 81}, {"time": 2678, "pitch": 57, "duration": 3, "velocity": 66}, {"time": 2678, "pitch": 60, "duration": 3, "velocity": 76}, {"time": 2678, "pitch": 64, "duration": 3, "velocity": 59}, {"time": 2684, "pitch": 45, "duration": 3, "velocity": 71}, {"time": 2690, "pitch": 45, "duration": 16, "velocity": 83}, {"time": 2702, "pitch": 57, "duration": 4, "velocity": 77}, {"time": 2702, "pitch": 60, "duration": 4, "velocity": 88}, {"time": 2702, "pitch": 64, "duration": 3, "velocity": 77}, {"time": 2714, "pitch": 48, "duration": 15, "velocity": 76}, {"time": 2726, "pitch": 60, "duration": 6, "velocity": 74}, {"time": 2726, "pitch": 64, "duration": 5, "velocity": 81}, {"time": 2726, "pitch": 67, "duration": 6, "velocity": 73}, {"time": 2738, "pitch": 50, "duration": 18, "velocity": 90}, {"time": 2750, "pitch": 62, "duration": 6, "velocity": 81}, {"time": 2750, "pitch": 65, "duration": 6, "velocity": 81}, {"time": 2750, "pitch": 69, "duration": 6, "velocity": 73}, {"time": 2762, "pitch": 45, "duration": 17, "velocity": 77}, {"time": 2774, "pitch": 64, "duration": 4, "velocity": 65}, {"time": 2774, "pitch": 69, "duration": 4, "velocity": 68}, {"time": 2774, "pitch": 72, "duration": 4, "velocity": 68}, {"time": 2780, "pitch": 52, "duration": 26, "velocity": 14}, {"time": 2780, "pitch": 64, "duration": 3, "velocity": 68}, {"time": 2780, "pitch": 69, "duration": 3, "velocity": 79}, {"time": 2780, "pitch": 72, "duration": 4, "velocity": 72}, {"time": 2786, "pitch": 57, "duration": 11, "velocity": 86}, {"time": 2798, "pitch": 64, "duration": 6, "velocity": 89}, {"time": 2798, "pitch": 69, "duration": 5, "velocity": 96}, {"time": 2798, "pitch": 72, "duration": 5, "velocity": 89}, {"time": 2810, "pitch": 48, "duration": 18, "velocity": 89}, {"time": 2822, "pitch": 60, "duration": 4, "velocity": 79}, {"time": 2822, "pitch": 64, "duration": 3, "velocity": 79}, {"time": 2822, "pitch": 67, "duration": 4, "velocity": 77}, {"time": 2828, "pitch": 60, "duration": 4, "velocity": 73}, {"time": 2828, "pitch": 64, "duration": 3, "velocity": 82}, {"time": 2828, "pitch": 67, "duration": 4, "velocity": 76}, {"time": 2834, "pitch": 55, "duration": 16, "velocity": 72}, {"time": 2846, "pitch": 60, "duration": 5, "velocity": 75}, {"time": 2846, "pitch": 64, "duration": 4, "velocity": 86}, {"time": 2846, "pitch": 67, "duration": 5, "velocity": 89}, {"time": 2858, "pitch": 43, "duration": 19, "velocity": 73}, {"time": 2870, "pitch": 62, "duration": 3, "velocity": 73}, {"time": 2870, "pitch": 67, "duration": 3, "velocity": 85}, {"time": 2870, "pitch": 71, "duration": 3, "velocity": 77}, {"time": 2876, "pitch": 62, "duration": 4, "velocity": 78}, {"time": 2876, "pitch": 67, "duration": 4, "velocity": 92}, {"time": 2876, "pitch": 71, "duration": 4, "velocity": 89}, {"time": 2882, "pitch": 55, "duration": 12, "velocity": 85}, {"time": 2894, "pitch": 62, "duration": 5, "velocity": 89}, {"time": 2894, "pitch": 67, "duration": 4, "velocity": 99}, {"time": 2894, "pitch": 71, "duration": 4, "velocity": 93}, {"time": 2906, "pitch": 36, "duration": 19, "velocity": 85}, {"time": 2918, "pitch": 55, "duration": 3, "velocity": 79}, {"time": 2918, "pitch": 60, "duration": 4, "velocity": 90}, {"time": 2918, "pitch": 64, "duration": 4, "velocity": 82}, {"time": 2924, "pitch": 55, "duration": 4, "velocity": 75}, {"time": 2924, "pitch": 60, "duration": 4, "velocity": 85}, {"time": 2924, "pitch": 64, "duration": 4, "velocity": 75}, {"time": 2930, "pitch": 48, "duration": 20, "velocity": 88}, {"time": 2942, "pitch": 55, "duration": 3, "velocity": 97}, {"time": 2942, "pitch": 60, "duration": 4, "velocity": 102}, {"time": 2942, "pitch": 64, "duration": 4, "velocity": 93}, {"time": 2954, "pitch": 36, "duration": 22, "velocity": 81}, {"time": 2966, "pitch": 55, "duration": 3, "velocity": 88}, {"time": 2966, "pitch": 60, "duration": 3, "velocity": 96}, {"time": 2966, "pitch": 64, "duration": 4, "velocity": 90}, {"time": 2972, "pitch": 55, "duration": 4, "velocity": 88}, {"time": 2972, "pitch": 60, "duration": 4, "velocity": 95}, {"time": 2972, "pitch": 64, "duration": 4, "velocity": 90}, {"time": 2978, "pitch": 48, "duration": 13, "velocity": 117}, {"time": 2990, "pitch": 60, "duration": 9, "velocity": 107}, {"time": 2990, "pitch": 64, "duration": 9, "velocity": 100}, {"time": 2996, "pitch": 55, "duration": 3, "velocity": 74}, {"time": 3002, "pitch": 45, "duration": 20, "velocity": 99}, {"time": 3014, "pitch": 64, "duration": 4, "velocity": 86}, {"time": 3014, "pitch": 69, "duration": 3, "velocity": 97}, {"time": 3014, "pitch": 72, "duration": 4, "velocity": 90}, {"time": 3020, "pitch": 52, "duration": 3, "velocity": 30}, {"time": 3020, "pitch": 64, "duration": 4, "velocity": 89}, {"time": 3020, "pitch": 69, "duration": 4, "velocity": 96}, {"time": 3020, "pitch": 72, "duration": 5, "velocity": 89}, {"time": 3026, "pitch": 52, "duration": 20, "velocity": 63}, {"time": 3026, "pitch": 57, "duration": 13, "velocity": 100}, {"time": 3038, "pitch": 64, "duration": 4, "velocity": 90}, {"time": 3038, "pitch": 69, "duration": 4, "velocity": 97}, {"time": 3038, "pitch": 72, "duration": 4, "velocity": 95}, {"time": 3050, "pitch": 45, "duration": 20, "velocity": 81}, {"time": 3062, "pitch": 64, "duration": 3, "velocity": 86}, {"time": 3062, "pitch": 69, "duration": 3, "velocity": 93}, {"time": 3062, "pitch": 72, "duration": 4, "velocity": 85}, {"time": 3068, "pitch": 64, "duration": 4, "velocity": 75}, {"time": 3068, "pitch": 69, "duration": 4, "velocity": 89}, {"time": 3068, "pitch": 72, "duration": 4, "velocity": 83}, {"time": 3074, "pitch": 52, "duration": 21, "velocity": 60}, {"time": 3074, "pitch": 57, "duration": 16, "velocity": 81}, {"time": 3086, "pitch": 64, "duration": 4, "velocity": 90}, {"time": 3086, "pitch": 69, "duration": 4, "velocity": 99}, {"time": 3086, "pitch": 72, "duration": 4, "velocity": 93}, {"time": 3098, "pitch": 45, "duration": 21, "velocity": 83}, {"time": 3110, "pitch": 64, "duration": 3, "velocity": 85}, {"time": 3110, "pitch": 69, "duration": 3, "velocity": 92}, {"time": 3110, "pitch": 72, "duration": 3, "velocity": 85}, {"time": 3116, "pitch": 64, "duration": 4, "velocity": 92}, {"time": 3116, "pitch": 69, "duration": 3, "velocity": 95}, {"time": 3116, "pitch": 72, "duration": 3, "velocity": 86}, {"time": 3122, "pitch": 52, "duration": 20, "velocity": 54}, {"time": 3122, "pitch": 57, "duration": 11, "velocity": 81}, {"time": 3134, "pitch": 64, "duration": 4, "velocity": 90}, {"time": 3134, "pitch": 69, "duration": 3, "velocity": 97}, {"time": 3134, "pitch": 72, "duration": 4, "velocity": 92}, {"time": 3146, "pitch": 45, "duration": 19, "velocity": 85}, {"time": 3158, "pitch": 64, "duration": 3, "velocity": 85}, {"time": 3158, "pitch": 69, "duration": 3, "velocity": 96}, {"time": 3158, "pitch": 72, "duration": 3, "velocity": 93}, {"time": 3164, "pitch": 52, "duration": 16, "velocity": 25}, {"time": 3164, "pitch": 64, "duration": 4, "velocity": 78}, {"time": 3164, "pitch": 69, "duration": 3, "velocity": 93}, {"time": 3164, "pitch": 72, "duration": 4, "velocity": 86}, {"time": 3170, "pitch": 57, "duration": 10, "velocity": 97}, {"time": 3182, "pitch": 64, "duration": 6, "velocity": 81}, {"time": 3182, "pitch": 69, "duration": 4, "velocity": 102}, {"time": 3182, "pitch": 72, "duration": 5, "velocity": 97}, {"time": 3194, "pitch": 38, "duration": 22, "velocity": 73}, {"time": 3206, "pitch": 62, "duration": 3, "velocity": 85}, {"time": 3206, "pitch": 65, "duration": 3, "velocity": 95}, {"time": 3206, "pitch": 69, "duration": 3, "velocity": 92}, {"time": 3212, "pitch": 45, "duration": 2, "velocity": 18}, {"time": 3212, "pitch": 62, "duration": 4, "velocity": 85}, {"time": 3212, "pitch": 65, "duration": 3, "velocity": 92}, {"time": 3212, "pitch": 69, "duration": 3, "velocity": 89}, {"time": 3218, "pitch": 50, "duration": 20, "velocity": 74}, {"time": 3230, "pitch": 62, "duration": 4, "velocity": 86}, {"time": 3230, "pitch": 65, "duration": 4, "velocity": 95}, {"time": 3230, "pitch": 69, "duration": 4, "velocity": 90}, {"time": 3242, "pitch": 40, "duration": 21, "velocity": 62}, {"time": 3254, "pitch": 59, "duration": 3, "velocity": 79}, {"time": 3254, "pitch": 64, "duration": 3, "velocity": 93}, {"time": 3254, "pitch": 67, "duration": 3, "velocity": 86}, {"time": 3260, "pitch": 59, "duration": 4, "velocity": 81}, {"time": 3260, "pitch": 64, "duration": 4, "velocity": 88}, {"time": 3260, "pitch": 67, "duration": 4, "velocity": 85}, {"time": 3266, "pitch": 52, "duration": 22, "velocity": 77}, {"time": 3278, "pitch": 59, "duration": 3, "velocity": 89}, {"time": 3278, "pitch": 64, "duration": 3, "velocity": 93}, {"time": 3278, "pitch": 67, "duration": 4, "velocity": 88}, {"time": 3290, "pitch": 45, "duration": 22, "velocity": 76}, {"time": 3302, "pitch": 64, "duration": 3, "velocity": 79}, {"time": 3302, "pitch": 69, "duration": 3, "velocity": 89}, {"time": 3302, "pitch": 72, "duration": 4, "velocity": 82}, {"time": 3308, "pitch": 64, "duration": 4, "velocity": 85}, {"time": 3308, "pitch": 69, "duration": 3, "velocity": 95}, {"time": 3308, "pitch": 72, "duration": 4, "velocity": 85}, {"time": 3314, "pitch": 52, "duration": 20, "velocity": 42}, {"time": 3314, "pitch": 57, "duration": 10, "velocity": 96}, {"time": 3326, "pitch": 64, "duration": 3, "velocity": 90}, {"time": 3326, "pitch": 69, "duration": 3, "velocity": 99}, {"time": 3326, "pitch": 72, "duration": 4, "velocity": 96}, {"time": 3338, "pitch": 45, "duration": 20, "velocity": 85}, {"time": 3350, "pitch": 64, "duration": 3, "velocity": 79}, {"time": 3350, "pitch": 69, "duration": 3, "velocity": 93}, {"time": 3350, "pitch": 72, "duration": 3, "velocity": 83}, {"time": 3356, "pitch": 64, "duration": 4, "velocity": 86}, {"time": 3356, "pitch": 69, "duration": 4, "velocity": 95}, {"time": 3356, "pitch": 72, "duration": 4, "velocity": 92}, {"time": 3362, "pitch": 52, "duration": 19, "velocity": 66}, {"time": 3362, "pitch": 57, "duration": 10, "velocity": 96}, {"time": 3368, "pitch": 64, "duration": 3, "velocity": 82}, {"time": 3368, "pitch": 69, "duration": 3, "velocity": 92}, {"time": 3368, "pitch": 72, "duration": 3, "velocity": 85}, {"time": 3374, "pitch": 64, "duration": 4, "velocity": 102}, {"time": 3374, "pitch": 69, "duration": 4, "velocity": 102}, {"time": 3374, "pitch": 72, "duration": 4, "velocity": 100}, {"time": 3386, "pitch": 45, "duration": 21, "velocity": 86}, {"time": 3398, "pitch": 64, "duration": 4, "velocity": 89}, {"time": 3398, "pitch": 69, "duration": 3, "velocity": 95}, {"time": 3398, "pitch": 72, "duration": 4, "velocity": 92}, {"time": 3404, "pitch": 52, "duration": 3, "velocity": 27}, {"time": 3404, "pitch": 64, "duration": 4, "velocity": 88}, {"time": 3404, "pitch": 69, "duration": 3, "velocity": 92}, {"time": 3404, "pitch": 72, "duration": 4, "velocity": 88}, {"time": 3410, "pitch": 52, "duration": 22, "velocity": 61}, {"time": 3410, "pitch": 57, "duration": 8, "velocity": 99}, {"time": 3416, "pitch": 64, "duration": 3, "velocity": 95}, {"time": 3416, "pitch": 69, "duration": 3, "velocity": 102}, {"time": 3416, "pitch": 72, "duration": 4, "velocity": 97}, {"time": 3428, "pitch": 64, "duration": 4, "velocity": 90}, {"time": 3428, "pitch": 69, "duration": 3, "velocity": 96}, {"time": 3428, "pitch": 72, "duration": 4, "velocity": 93}, {"time": 3434, "pitch": 45, "duration": 10, "velocity": 88}, {"time": 3440, "pitch": 64, "duration": 4, "velocity": 86}, {"time": 3440, "pitch": 69, "duration": 4, "velocity": 90}, {"time": 3440, "pitch": 72, "duration": 4, "velocity": 89}, {"time": 3452, "pitch": 45, "duration": 2, "velocity": 43}, {"time": 3452, "pitch": 52, "duration": 3, "velocity": 50}, {"time": 3452, "pitch": 57, "duration": 3, "velocity": 78}, {"time": 3452, "pitch": 64, "duration": 3, "velocity": 83}, {"time": 3452, "pitch": 69, "duration": 3, "velocity": 92}, {"time": 3452, "pitch": 72, "duration": 3, "velocity": 83}, {"time": 3458, "pitch": 45, "duration": 2, "velocity": 56}, {"time": 3458, "pitch": 52, "duration": 3, "velocity": 73}, {"time": 3458, "pitch": 57, "duration": 3, "velocity": 92}, {"time": 3458, "pitch": 64, "duration": 4, "velocity": 89}, {"time": 3458, "pitch": 69, "duration": 3, "velocity": 93}, {"time": 3458, "pitch": 72, "duration": 4, "velocity": 83}, {"time": 3470, "pitch": 45, "duration": 3, "velocity": 53}, {"time": 3470, "pitch": 52, "duration": 4, "velocity": 78}, {"time": 3470, "pitch": 57, "duration": 3, "velocity": 92}, {"time": 3470, "pitch": 64, "duration": 4, "velocity": 93}, {"time": 3470, "pitch": 69, "duration": 3, "velocity": 97}, {"time": 3470, "pitch": 72, "duration": 4, "velocity": 95}, {"time": 3482, "pitch": 45, "duration": 17, "velocity": 85}, {"time": 3494, "pitch": 64, "duration": 3, "velocity": 79}, {"time": 3494, "pitch": 69, "duration": 3, "velocity": 86}, {"time": 3494, "pitch": 72, "duration": 3, "velocity": 76}, {"time": 3500, "pitch": 52, "duration": 3, "velocity": 24}, {"time": 3500, "pitch": 64, "duration": 4, "velocity": 85}, {"time": 3500, "pitch": 69, "duration": 3, "velocity": 95}, {"time": 3500, "pitch": 72, "duration": 4, "velocity": 86}, {"time": 3506, "pitch": 52, "duration": 10, "velocity": 42}, {"time": 3506, "pitch": 57, "duration": 10, "velocity": 79}, {"time": 3518, "pitch": 64, "duration": 7, "velocity": 90}, {"time": 3518, "pitch": 69, "duration": 4, "velocity": 96}, {"time": 3518, "pitch": 72, "duration": 5, "velocity": 93}, {"time": 3530, "pitch": 38, "duration": 20, "velocity": 69}, {"time": 3542, "pitch": 62, "duration": 3, "velocity": 88}, {"time": 3542, "pitch": 65, "duration": 3, "velocity": 89}, {"time": 3542, "pitch": 69, "duration": 4, "velocity": 82}, {"time": 3548, "pitch": 62, "duration": 3, "velocity": 89}, {"time": 3548, "pitch": 65, "duration": 3, "velocity": 88}, {"time": 3548, "pitch": 69, "duration": 3, "velocity": 81}, {"time": 3554, "pitch": 50, "duration": 18, "velocity": 74}, {"time": 3566, "pitch": 62, "duration": 4, "velocity": 93}, {"time": 3566, "pitch": 65, "duration": 4, "velocity": 95}, {"time": 3566, "pitch": 69, "duration": 5, "velocity": 93}, {"time": 3578, "pitch": 38, "duration": 12, "velocity": 89}, {"time": 3578, "pitch": 62, "duration": 9, "velocity": 92}, {"time": 3578, "pitch": 65, "duration": 9, "velocity": 96}, {"time": 3578, "pitch": 69, "duration": 10, "velocity": 93}, {"time": 3602, "pitch": 40, "duration": 9, "velocity": 95}, {"time": 3602, "pitch": 64, "duration": 8, "velocity": 96}, {"time": 3602, "pitch": 67, "duration": 8, "velocity": 96}, {"time": 3602, "pitch": 71, "duration": 9, "velocity": 90}, {"time": 3626, "pitch": 38, "duration": 9, "velocity": 82}, {"time": 3626, "pitch": 50, "duration": 9, "velocity": 102}, {"time": 3626, "pitch": 62, "duration": 9, "velocity": 85}, {"time": 3626, "pitch": 65, "duration": 9, "velocity": 86}, {"time": 3626, "pitch": 69, "duration": 9, "velocity": 86}, {"time": 3638, "pitch": 38, "duration": 7, "velocity": 72}, {"time": 3638, "pitch": 50, "duration": 8, "velocity": 95}, {"time": 3638, "pitch": 62, "duration": 9, "velocity": 90}, {"time": 3638, "pitch": 65, "duration": 8, "velocity": 93}, {"time": 3638, "pitch": 69, "duration": 9, "velocity": 90}, {"time": 3650, "pitch": 45, "duration": 12, "velocity": 60}, {"time": 3650, "pitch": 52, "duration": 12, "velocity": 69}, {"time": 3650, "pitch": 57, "duration": 12, "velocity": 77}, {"time": 3650, "pitch": 64, "duration": 13, "velocity": 90}, {"time": 3650, "pitch": 69, "duration": 13, "velocity": 96}, {"time": 3650, "pitch": 72, "duration": 13, "velocity": 90}, {"time": 3674, "pitch": 48, "duration": 19, "velocity": 71}, {"time": 3686, "pitch": 67, "duration": 4, "velocity": 82}, {"time": 3686, "pitch": 72, "duration": 4, "velocity": 89}, {"time": 3686, "pitch": 76, "duration": 4, "velocity": 83}, {"time": 3692, "pitch": 55, "duration": 2, "velocity": 26}, {"time": 3692, "pitch": 67, "duration": 4, "velocity": 79}, {"time": 3692, "pitch": 72, "duration": 4, "velocity": 92}, {"time": 3692, "pitch": 76, "duration": 4, "velocity": 77}, {"time": 3698, "pitch": 55, "duration": 12, "velocity": 52}, {"time": 3698, "pitch": 60, "duration": 10, "velocity": 75}, {"time": 3710, "pitch": 67, "duration": 6, "velocity": 89}, {"time": 3710, "pitch": 72, "duration": 5, "velocity": 96}, {"time": 3710, "pitch": 76, "duration": 5, "velocity": 93}, {"time": 3722, "pitch": 45, "duration": 19, "velocity": 72}, {"time": 3734, "pitch": 64, "duration": 4, "velocity": 85}, {"time": 3734, "pitch": 69, "duration": 3, "velocity": 92}, {"time": 3734, "pitch": 72, "duration": 4, "velocity": 86}, {"time": 3740, "pitch": 52, "duration": 2, "velocity": 26}, {"time": 3740, "pitch": 64, "duration": 5, "velocity": 75}, {"time": 3740, "pitch": 69, "duration": 4, "velocity": 88}, {"time": 3740, "pitch": 72, "duration": 4, "velocity": 82}, {"time": 3746, "pitch": 52, "duration": 14, "velocity": 50}, {"time": 3746, "pitch": 57, "duration": 15, "velocity": 78}, {"time": 3752, "pitch": 64, "duration": 8, "velocity": 89}, {"time": 3752, "pitch": 69, "duration": 8, "velocity": 96}, {"time": 3752, "pitch": 72, "duration": 8, "velocity": 93}, {"time": 3764, "pitch": 64, "duration": 6, "velocity": 83}, {"time": 3764, "pitch": 69, "duration": 6, "velocity": 92}, {"time": 3764, "pitch": 72, "duration": 6, "velocity": 83}, {"time": 3770, "pitch": 48, "duration": 20, "velocity": 78}, {"time": 3782, "pitch": 67, "duration": 4, "velocity": 85}, {"time": 3782, "pitch": 72, "duration": 4, "velocity": 102}, {"time": 3782, "pitch": 76, "duration": 4, "velocity": 96}, {"time": 3788, "pitch": 67, "duration": 5, "velocity": 82}, {"time": 3788, "pitch": 72, "duration": 5, "velocity": 96}, {"time": 3788, "pitch": 76, "duration": 5, "velocity": 86}, {"time": 3794, "pitch": 55, "duration": 10, "velocity": 61}, {"time": 3794, "pitch": 60, "duration": 8, "velocity": 81}, {"time": 3806, "pitch": 67, "duration": 7, "velocity": 92}, {"time": 3806, "pitch": 72, "duration": 6, "velocity": 96}, {"time": 3806, "pitch": 76, "duration": 6, "velocity": 93}, {"time": 3818, "pitch": 45, "duration": 20, "velocity": 83}, {"time": 3830, "pitch": 64, "duration": 3, "velocity": 86}, {"time": 3830, "pitch": 69, "duration": 3, "velocity": 95}, {"time": 3830, "pitch": 72, "duration": 4, "velocity": 88}, {"time": 3836, "pitch": 64, "duration": 8, "velocity": 78}, {"time": 3836, "pitch": 69, "duration": 7, "velocity": 88}, {"time": 3836, "pitch": 72, "duration": 8, "velocity": 76}, {"time": 3842, "pitch": 52, "duration": 9, "velocity": 55}, {"time": 3842, "pitch": 57, "duration": 16, "velocity": 81}, {"time": 3848, "pitch": 64, "duration": 9, "velocity": 90}, {"time": 3848, "pitch": 69, "duration": 8, "velocity": 93}, {"time": 3848, "pitch": 72, "duration": 9, "velocity": 88}, {"time": 3860, "pitch": 64, "duration": 8, "velocity": 90}, {"time": 3860, "pitch": 69, "duration": 5, "velocity": 92}, {"time": 3860, "pitch": 72, "duration": 6, "velocity": 83}, {"time": 3866, "pitch": 50, "duration": 17, "velocity": 85}, {"time": 3878, "pitch": 62, "duration": 4, "velocity": 90}, {"time": 3878, "pitch": 65, "duration": 3, "velocity": 95}, {"time": 3878, "pitch": 69, "duration": 4, "velocity": 95}, {"time": 3884, "pitch": 62, "duration": 4, "velocity": 92}, {"time": 3884, "pitch": 65, "duration": 4, "velocity": 93}, {"time": 3884, "pitch": 69, "duration": 4, "velocity": 86}, {"time": 3890, "pitch": 50, "duration": 12, "velocity": 63}, {"time": 3902, "pitch": 62, "duration": 6, "velocity": 93}, {"time": 3902, "pitch": 65, "duration": 5, "velocity": 100}, {"time": 3902, "pitch": 69, "duration": 6, "velocity": 95}, {"time": 3914, "pitch": 40, "duration": 12, "velocity": 71}, {"time": 3914, "pitch": 64, "duration": 10, "velocity": 97}, {"time": 3914, "pitch": 67, "duration": 10, "velocity": 95}, {"time": 3914, "pitch": 71, "duration": 10, "velocity": 95}, {"time": 3938, "pitch": 52, "duration": 15, "velocity": 89}, {"time": 3938, "pitch": 64, "duration": 17, "velocity": 92}, {"time": 3938, "pitch": 67, "duration": 18, "velocity": 88}, {"time": 3938, "pitch": 71, "duration": 17, "velocity": 89}, {"time": 3962, "pitch": 45, "duration": 17, "velocity": 85}, {"time": 3974, "pitch": 64, "duration": 3, "velocity": 81}, {"time": 3974, "pitch": 69, "duration": 3, "velocity": 95}, {"time": 3974, "pitch": 72, "duration": 3, "velocity": 90}, {"time": 3980, "pitch": 64, "duration": 4, "velocity": 72}, {"time": 3980, "pitch": 69, "duration": 4, "velocity": 79}, {"time": 3980, "pitch": 72, "duration": 4, "velocity": 79}, {"time": 3986, "pitch": 52, "duration": 15, "velocity": 63}, {"time": 3986, "pitch": 57, "duration": 14, "velocity": 82}, {"time": 3998, "pitch": 64, "duration": 6, "velocity": 85}, {"time": 3998, "pitch": 69, "duration": 6, "velocity": 86}, {"time": 3998, "pitch": 72, "duration": 6, "velocity": 83}, {"time": 4010, "pitch": 45, "duration": 22, "velocity": 86}, {"time": 4022, "pitch": 64, "duration": 3, "velocity": 69}, {"time": 4022, "pitch": 69, "duration": 3, "velocity": 86}, {"time": 4022, "pitch": 72, "duration": 3, "velocity": 77}, {"time": 4028, "pitch": 64, "duration": 5, "velocity": 83}, {"time": 4028, "pitch": 69, "duration": 5, "velocity": 99}, {"time": 4028, "pitch": 72, "duration": 5, "velocity": 93}, {"time": 4034, "pitch": 52, "duration": 14, "velocity": 78}, {"time": 4046, "pitch": 64, "duration": 6, "velocity": 86}, {"time": 4046, "pitch": 69, "duration": 6, "velocity": 100}, {"time": 4046, "pitch": 72, "duration": 6, "velocity": 93}, {"time": 4058, "pitch": 45, "duration": 18, "velocity": 82}, {"time": 4070, "pitch": 64, "duration": 4, "velocity": 75}, {"time": 4070, "pitch": 69, "duration": 3, "velocity": 79}, {"time": 4070, "pitch": 72, "duration": 4, "velocity": 72}, {"time": 4076, "pitch": 64, "duration": 5, "velocity": 69}, {"time": 4076, "pitch": 69, "duration": 4, "velocity": 78}, {"time": 4076, "pitch": 72, "duration": 4, "velocity": 71}, {"time": 4082, "pitch": 52, "duration": 22, "velocity": 42}, {"time": 4082, "pitch": 57, "duration": 12, "velocity": 71}, {"time": 4094, "pitch": 64, "duration": 5, "velocity": 83}, {"time": 4094, "pitch": 69, "duration": 5, "velocity": 83}, {"time": 4094, "pitch": 72, "duration": 5, "velocity": 79}, {"time": 4106, "pitch": 45, "duration": 21, "velocity": 66}, {"time": 4118, "pitch": 64, "duration": 3, "velocity": 66}, {"time": 4118, "pitch": 69, "duration": 3, "velocity": 75}, {"time": 4118, "pitch": 72, "duration": 3, "velocity": 71}, {"time": 4124, "pitch": 64, "duration": 4, "velocity": 72}, {"time": 4124, "pitch": 69, "duration": 3, "velocity": 82}, {"time": 4124, "pitch": 72, "duration": 4, "velocity": 78}, {"time": 4130, "pitch": 52, "duration": 14, "velocity": 28}, {"time": 4130, "pitch": 57, "duration": 13, "velocity": 61}, {"time": 4142, "pitch": 64, "duration": 6, "velocity": 79}, {"time": 4142, "pitch": 69, "duration": 5, "velocity": 90}, {"time": 4142, "pitch": 72, "duration": 5, "velocity": 86}, {"time": 4154, "pitch": 48, "duration": 18, "velocity": 70}, {"time": 4166, "pitch": 60, "duration": 3, "velocity": 74}, {"time": 4166, "pitch": 64, "duration": 3, "velocity": 85}, {"time": 4166, "pitch": 67, "duration": 4, "velocity": 77}, {"time": 4172, "pitch": 60, "duration": 4, "velocity": 66}, {"time": 4172, "pitch": 64, "duration": 4, "velocity": 79}, {"time": 4172, "pitch": 67, "duration": 4, "velocity": 63}, {"time": 4178, "pitch": 50, "duration": 12, "velocity": 66}, {"time": 4190, "pitch": 62, "duration": 7, "velocity": 79}, {"time": 4190, "pitch": 65, "duration": 6, "velocity": 96}, {"time": 4190, "pitch": 69, "duration": 7, "velocity": 90}, {"time": 4202, "pitch": 45, "duration": 19, "velocity": 77}, {"time": 4214, "pitch": 64, "duration": 4, "velocity": 73}, {"time": 4214, "pitch": 69, "duration": 4, "velocity": 89}, {"time": 4214, "pitch": 72, "duration": 4, "velocity": 85}, {"time": 4220, "pitch": 64, "duration": 4, "velocity": 70}, {"time": 4220, "pitch": 69, "duration": 4, "velocity": 83}, {"time": 4220, "pitch": 72, "duration": 4, "velocity": 77}, {"time": 4226, "pitch": 52, "duration": 21, "velocity": 42}, {"time": 4226, "pitch": 57, "duration": 13, "velocity": 65}, {"time": 4238, "pitch": 64, "duration": 7, "velocity": 81}, {"time": 4238, "pitch": 69, "duration": 7, "velocity": 92}, {"time": 4238, "pitch": 72, "duration": 6, "velocity": 85}, {"time": 4250, "pitch": 48, "duration": 13, "velocity": 76}, {"time": 4262, "pitch": 60, "duration": 3, "velocity": 79}, {"time": 4262, "pitch": 64, "duration": 3, "velocity": 86}, {"time": 4262, "pitch": 67, "duration": 3, "velocity": 82}, {"time": 4268, "pitch": 60, "duration": 5, "velocity": 73}, {"time": 4268, "pitch": 64, "duration": 4, "velocity": 83}, {"time": 4268, "pitch": 67, "duration": 4, "velocity": 74}, {"time": 4274, "pitch": 45, "duration": 15, "velocity": 73}, {"time": 4286, "pitch": 57, "duration": 3, "velocity": 78}, {"time": 4286, "pitch": 60, "duration": 3, "velocity": 89}, {"time": 4286, "pitch": 64, "duration": 3, "velocity": 79}, {"time": 4298, "pitch": 43, "duration": 18, "velocity": 79}, {"time": 4298, "pitch": 43, "duration": 18, "velocity": 81}, {"time": 4310, "pitch": 55, "duration": 3, "velocity": 67}, {"time": 4310, "pitch": 55, "duration": 3, "velocity": 68}, {"time": 4310, "pitch": 59, "duration": 3, "velocity": 71}, {"time": 4310, "pitch": 59, "duration": 3, "velocity": 77}, {"time": 4310, "pitch": 62, "duration": 3, "velocity": 72}, {"time": 4310, "pitch": 62, "duration": 3, "velocity": 76}, {"time": 4316, "pitch": 55, "duration": 3, "velocity": 69}, {"time": 4316, "pitch": 55, "duration": 3, "velocity": 73}, {"time": 4316, "pitch": 59, "duration": 3, "velocity": 73}, {"time": 4316, "pitch": 59, "duration": 3, "velocity": 79}, {"time": 4316, "pitch": 62, "duration": 3, "velocity": 72}, {"time": 4316, "pitch": 62, "duration": 3, "velocity": 73}, {"time": 4319, "pitch": 50, "duration": 11, "velocity": 55}, {"time": 4334, "pitch": 55, "duration": 4, "velocity": 77}, {"time": 4334, "pitch": 59, "duration": 4, "velocity": 83}, {"time": 4334, "pitch": 62, "duration": 5, "velocity": 76}, {"time": 4346, "pitch": 36, "duration": 22, "velocity": 68}, {"time": 4358, "pitch": 55, "duration": 4, "velocity": 73}, {"time": 4358, "pitch": 60, "duration": 4, "velocity": 85}, {"time": 4358, "pitch": 64, "duration": 4, "velocity": 78}, {"time": 4364, "pitch": 55, "duration": 3, "velocity": 71}, {"time": 4364, "pitch": 60, "duration": 4, "velocity": 79}, {"time": 4364, "pitch": 64, "duration": 4, "velocity": 72}, {"time": 4370, "pitch": 48, "duration": 21, "velocity": 59}, {"time": 4382, "pitch": 55, "duration": 5, "velocity": 77}, {"time": 4382, "pitch": 60, "duration": 5, "velocity": 85}, {"time": 4382, "pitch": 64, "duration": 5, "velocity": 79}, {"time": 4394, "pitch": 36, "duration": 19, "velocity": 60}, {"time": 4406, "pitch": 55, "duration": 3, "velocity": 72}, {"time": 4406, "pitch": 60, "duration": 3, "velocity": 89}, {"time": 4406, "pitch": 64, "duration": 3, "velocity": 81}, {"time": 4412, "pitch": 55, "duration": 4, "velocity": 78}, {"time": 4412, "pitch": 60, "duration": 4, "velocity": 88}, {"time": 4412, "pitch": 64, "duration": 4, "velocity": 78}, {"time": 4418, "pitch": 48, "duration": 13, "velocity": 78}, {"time": 4430, "pitch": 55, "duration": 6, "velocity": 90}, {"time": 4430, "pitch": 60, "duration": 6, "velocity": 95}, {"time": 4430, "pitch": 64, "duration": 6, "velocity": 89}, {"time": 4442, "pitch": 45, "duration": 20, "velocity": 73}, {"time": 4454, "pitch": 64, "duration": 4, "velocity": 72}, {"time": 4454, "pitch": 69, "duration": 4, "velocity": 75}, {"time": 4454, "pitch": 72, "duration": 4, "velocity": 74}, {"time": 4460, "pitch": 64, "duration": 4, "velocity": 73}, {"time": 4460, "pitch": 69, "duration": 4, "velocity": 77}, {"time": 4460, "pitch": 72, "duration": 4, "velocity": 73}, {"time": 4466, "pitch": 52, "duration": 23, "velocity": 45}, {"time": 4466, "pitch": 57, "duration": 12, "velocity": 67}, {"time": 4478, "pitch": 64, "duration": 4, "velocity": 82}, {"time": 4478, "pitch": 69, "duration": 5, "velocity": 88}, {"time": 4478, "pitch": 72, "duration": 5, "velocity": 82}, {"time": 4490, "pitch": 45, "duration": 21, "velocity": 72}, {"time": 4502, "pitch": 64, "duration": 4, "velocity": 69}, {"time": 4502, "pitch": 69, "duration": 4, "velocity": 75}, {"time": 4502, "pitch": 72, "duration": 4, "velocity": 71}, {"time": 4508, "pitch": 64, "duration": 4, "velocity": 72}, {"time": 4508, "pitch": 69, "duration": 4, "velocity": 88}, {"time": 4508, "pitch": 72, "duration": 4, "velocity": 83}, {"time": 4514, "pitch": 52, "duration": 18, "velocity": 39}, {"time": 4514, "pitch": 57, "duration": 15, "velocity": 76}, {"time": 4526, "pitch": 64, "duration": 4, "velocity": 81}, {"time": 4526, "pitch": 69, "duration": 4, "velocity": 89}, {"time": 4526, "pitch": 72, "duration": 4, "velocity": 79}, {"time": 4538, "pitch": 45, "duration": 20, "velocity": 71}, {"time": 4550, "pitch": 64, "duration": 3, "velocity": 75}, {"time": 4550, "pitch": 69, "duration": 3, "velocity": 83}, {"time": 4550, "pitch": 72, "duration": 3, "velocity": 79}, {"time": 4556, "pitch": 64, "duration": 4, "velocity": 74}, {"time": 4556, "pitch": 69, "duration": 3, "velocity": 88}, {"time": 4556, "pitch": 72, "duration": 4, "velocity": 79}, {"time": 4559, "pitch": 52, "duration": 21, "velocity": 34}, {"time": 4562, "pitch": 57, "duration": 14, "velocity": 85}, {"time": 4574, "pitch": 64, "duration": 5, "velocity": 81}, {"time": 4574, "pitch": 69, "duration": 4, "velocity": 93}, {"time": 4574, "pitch": 72, "duration": 4, "velocity": 88}, {"time": 4586, "pitch": 45, "duration": 22, "velocity": 72}, {"time": 4598, "pitch": 64, "duration": 4, "velocity": 72}, {"time": 4598, "pitch": 69, "duration": 3, "velocity": 79}, {"time": 4598, "pitch": 72, "duration": 4, "velocity": 72}, {"time": 4604, "pitch": 64, "duration": 4, "velocity": 75}, {"time": 4604, "pitch": 69, "duration": 4, "velocity": 89}, {"time": 4604, "pitch": 72, "duration": 4, "velocity": 82}, {"time": 4610, "pitch": 57, "duration": 10, "velocity": 78}, {"time": 4622, "pitch": 64, "duration": 12, "velocity": 93}, {"time": 4622, "pitch": 69, "duration": 11, "velocity": 95}, {"time": 4622, "pitch": 72, "duration": 11, "velocity": 90}, {"time": 4634, "pitch": 38, "duration": 22, "velocity": 77}, {"time": 4646, "pitch": 62, "duration": 3, "velocity": 81}, {"time": 4646, "pitch": 65, "duration": 3, "velocity": 88}, {"time": 4646, "pitch": 69, "duration": 4, "velocity": 79}, {"time": 4652, "pitch": 62, "duration": 5, "velocity": 78}, {"time": 4652, "pitch": 65, "duration": 4, "velocity": 85}, {"time": 4652, "pitch": 69, "duration": 4, "velocity": 73}, {"time": 4658, "pitch": 50, "duration": 21, "velocity": 68}, {"time": 4670, "pitch": 62, "duration": 6, "velocity": 79}, {"time": 4670, "pitch": 65, "duration": 6, "velocity": 82}, {"time": 4670, "pitch": 69, "duration": 6, "velocity": 75}, {"time": 4679, "pitch": 40, "duration": 20, "velocity": 74}, {"time": 4694, "pitch": 64, "duration": 4, "velocity": 75}, {"time": 4694, "pitch": 67, "duration": 3, "velocity": 85}, {"time": 4694, "pitch": 71, "duration": 4, "velocity": 82}, {"time": 4700, "pitch": 64, "duration": 5, "velocity": 74}, {"time": 4700, "pitch": 67, "duration": 4, "velocity": 86}, {"time": 4700, "pitch": 71, "duration": 5, "velocity": 73}, {"time": 4706, "pitch": 52, "duration": 19, "velocity": 67}, {"time": 4718, "pitch": 64, "duration": 5, "velocity": 75}, {"time": 4718, "pitch": 67, "duration": 5, "velocity": 85}, {"time": 4718, "pitch": 71, "duration": 6, "velocity": 77}, {"time": 4727, "pitch": 45, "duration": 21, "velocity": 82}, {"time": 4742, "pitch": 64, "duration": 4, "velocity": 75}, {"time": 4742, "pitch": 69, "duration": 4, "velocity": 86}, {"time": 4742, "pitch": 72, "duration": 3, "velocity": 75}, {"time": 4748, "pitch": 64, "duration": 5, "velocity": 78}, {"time": 4748, "pitch": 69, "duration": 4, "velocity": 90}, {"time": 4748, "pitch": 72, "duration": 5, "velocity": 83}, {"time": 4751, "pitch": 52, "duration": 21, "velocity": 33}, {"time": 4751, "pitch": 57, "duration": 15, "velocity": 72}, {"time": 4763, "pitch": 64, "duration": 4, "velocity": 79}, {"time": 4763, "pitch": 72, "duration": 4, "velocity": 82}, {"time": 4766, "pitch": 69, "duration": 4, "velocity": 88}, {"time": 4778, "pitch": 45, "duration": 20, "velocity": 70}, {"time": 4790, "pitch": 64, "duration": 3, "velocity": 75}, {"time": 4790, "pitch": 69, "duration": 3, "velocity": 89}, {"time": 4790, "pitch": 72, "duration": 3, "velocity": 78}, {"time": 4793, "pitch": 64, "duration": 4, "velocity": 82}, {"time": 4793, "pitch": 72, "duration": 4, "velocity": 83}, {"time": 4796, "pitch": 69, "duration": 4, "velocity": 90}, {"time": 4799, "pitch": 57, "duration": 13, "velocity": 97}, {"time": 4811, "pitch": 64, "duration": 7, "velocity": 88}, {"time": 4811, "pitch": 69, "duration": 8, "velocity": 99}, {"time": 4811, "pitch": 72, "duration": 8, "velocity": 93}, {"time": 4826, "pitch": 45, "duration": 21, "velocity": 86}, {"time": 4838, "pitch": 64, "duration": 4, "velocity": 89}, {"time": 4838, "pitch": 69, "duration": 3, "velocity": 95}, {"time": 4838, "pitch": 72, "duration": 4, "velocity": 92}, {"time": 4844, "pitch": 52, "duration": 3, "velocity": 27}, {"time": 4844, "pitch": 64, "duration": 4, "velocity": 88}, {"time": 4844, "pitch": 69, "duration": 3, "velocity": 92}, {"time": 4844, "pitch": 72, "duration": 4, "velocity": 88}, {"time": 4850, "pitch": 52, "duration": 22, "velocity": 61}, {"time": 4850, "pitch": 57, "duration": 8, "velocity": 99}, {"time": 4856, "pitch": 64, "duration": 3, "velocity": 95}, {"time": 4856, "pitch": 69, "duration": 3, "velocity": 102}, {"time": 4856, "pitch": 72, "duration": 4, "velocity": 97}, {"time": 4868, "pitch": 64, "duration": 4, "velocity": 90}, {"time": 4868, "pitch": 69, "duration": 3, "velocity": 96}, {"time": 4868, "pitch": 72, "duration": 4, "velocity": 93}, {"time": 4874, "pitch": 45, "duration": 10, "velocity": 88}, {"time": 4880, "pitch": 64, "duration": 4, "velocity": 86}, {"time": 4880, "pitch": 69, "duration": 4, "velocity": 90}, {"time": 4880, "pitch": 72, "duration": 4, "velocity": 89}, {"time": 4892, "pitch": 45, "duration": 2, "velocity": 43}, {"time": 4892, "pitch": 52, "duration": 3, "velocity": 50}, {"time": 4892, "pitch": 57, "duration": 3, "velocity": 78}, {"time": 4892, "pitch": 64, "duration": 3, "velocity": 83}, {"time": 4892, "pitch": 69, "duration": 3, "velocity": 92}, {"time": 4892, "pitch": 72, "duration": 3, "velocity": 83}, {"time": 4898, "pitch": 45, "duration": 2, "velocity": 56}, {"time": 4898, "pitch": 52, "duration": 3, "velocity": 73}, {"time": 4898, "pitch": 57, "duration": 3, "velocity": 92}, {"time": 4898, "pitch": 64, "duration": 4, "velocity": 89}, {"time": 4898, "pitch": 69, "duration": 3, "velocity": 93}, {"time": 4898, "pitch": 72, "duration": 4, "velocity": 83}, {"time": 4910, "pitch": 45, "duration": 3, "velocity": 53}, {"time": 4910, "pitch": 52, "duration": 4, "velocity": 78}, {"time": 4910, "pitch": 57, "duration": 3, "velocity": 92}, {"time": 4910, "pitch": 64, "duration": 4, "velocity": 93}, {"time": 4910, "pitch": 69, "duration": 3, "velocity": 97}, {"time": 4910, "pitch": 72, "duration": 4, "velocity": 95}, {"time": 4922, "pitch": 45, "duration": 17, "velocity": 85}, {"time": 4934, "pitch": 64, "duration": 3, "velocity": 79}, {"time": 4934, "pitch": 69, "duration": 3, "velocity": 86}, {"time": 4934, "pitch": 72, "duration": 3, "velocity": 76}, {"time": 4940, "pitch": 52, "duration": 3, "velocity": 24}, {"time": 4940, "pitch": 64, "duration": 4, "velocity": 85}, {"time": 4940, "pitch": 69, "duration": 3, "velocity": 95}, {"time": 4940, "pitch": 72, "duration": 4, "velocity": 86}, {"time": 4946, "pitch": 52, "duration": 10, "velocity": 42}, {"time": 4946, "pitch": 57, "duration": 10, "velocity": 79}, {"time": 4958, "pitch": 64, "duration": 7, "velocity": 90}, {"time": 4958, "pitch": 69, "duration": 4, "velocity": 96}, {"time": 4958, "pitch": 72, "duration": 5, "velocity": 93}, {"time": 4970, "pitch": 38, "duration": 20, "velocity": 69}, {"time": 4982, "pitch": 62, "duration": 3, "velocity": 88}, {"time": 4982, "pitch": 65, "duration": 3, "velocity": 89}, {"time": 4982, "pitch": 69, "duration": 4, "velocity": 82}, {"time": 4988, "pitch": 62, "duration": 3, "velocity": 89}, {"time": 4988, "pitch": 65, "duration": 3, "velocity": 88}, {"time": 4988, "pitch": 69, "duration": 3, "velocity": 81}, {"time": 4994, "pitch": 50, "duration": 18, "velocity": 74}, {"time": 5006, "pitch": 62, "duration": 4, "velocity": 93}, {"time": 5006, "pitch": 65, "duration": 4, "velocity": 95}, {"time": 5006, "pitch": 69, "duration": 5, "velocity": 93}, {"time": 5018, "pitch": 38, "duration": 12, "velocity": 89}, {"time": 5018, "pitch": 62, "duration": 9, "velocity": 92}, {"time": 5018, "pitch": 65, "duration": 9, "velocity": 96}, {"time": 5018, "pitch": 69, "duration": 10, "velocity": 93}, {"time": 5042, "pitch": 40, "duration": 9, "velocity": 95}, {"time": 5042, "pitch": 64, "duration": 8, "velocity": 96}, {"time": 5042, "pitch": 67, "duration": 8, "velocity": 96}, {"time": 5042, "pitch": 71, "duration": 9, "velocity": 90}, {"time": 5066, "pitch": 38, "duration": 9, "velocity": 82}, {"time": 5066, "pitch": 50, "duration": 9, "velocity": 102}, {"time": 5066, "pitch": 62, "duration": 9, "velocity": 85}, {"time": 5066, "pitch": 65, "duration": 9, "velocity": 86}, {"time": 5066, "pitch": 69, "duration": 9, "velocity": 86}, {"time": 5078, "pitch": 38, "duration": 7, "velocity": 72}, {"time": 5078, "pitch": 50, "duration": 8, "velocity": 95}, {"time": 5078, "pitch": 62, "duration": 9, "velocity": 90}, {"time": 5078, "pitch": 65, "duration": 8, "velocity": 93}, {"time": 5078, "pitch": 69, "duration": 9, "velocity": 90}, {"time": 5090, "pitch": 45, "duration": 12, "velocity": 60}, {"time": 5090, "pitch": 52, "duration": 12, "velocity": 69}, {"time": 5090, "pitch": 57, "duration": 12, "velocity": 77}, {"time": 5090, "pitch": 64, "duration": 13, "velocity": 90}, {"time": 5090, "pitch": 69, "duration": 13, "velocity": 96}, {"time": 5090, "pitch": 72, "duration": 13, "velocity": 90}, {"time": 5114, "pitch": 48, "duration": 19, "velocity": 71}, {"time": 5126, "pitch": 67, "duration": 4, "velocity": 82}, {"time": 5126, "pitch": 72, "duration": 4, "velocity": 89}, {"time": 5126, "pitch": 76, "duration": 4, "velocity": 83}, {"time": 5132, "pitch": 55, "duration": 2, "velocity": 26}, {"time": 5132, "pitch": 67, "duration": 4, "velocity": 79}, {"time": 5132, "pitch": 72, "duration": 4, "velocity": 92}, {"time": 5132, "pitch": 76, "duration": 4, "velocity": 77}, {"time": 5138, "pitch": 55, "duration": 12, "velocity": 52}, {"time": 5138, "pitch": 60, "duration": 10, "velocity": 75}, {"time": 5150, "pitch": 67, "duration": 6, "velocity": 89}, {"time": 5150, "pitch": 72, "duration": 5, "velocity": 96}, {"time": 5150, "pitch": 76, "duration": 5, "velocity": 93}, {"time": 5162, "pitch": 45, "duration": 19, "velocity": 72}, {"time": 5174, "pitch": 64, "duration": 4, "velocity": 85}, {"time": 5174, "pitch": 69, "duration": 3, "velocity": 92}, {"time": 5174, "pitch": 72, "duration": 4, "velocity": 86}, {"time": 5180, "pitch": 52, "duration": 2, "velocity": 26}, {"time": 5180, "pitch": 64, "duration": 5, "velocity": 75}, {"time": 5180, "pitch": 69, "duration": 4, "velocity": 88}, {"time": 5180, "pitch": 72, "duration": 4, "velocity": 82}, {"time": 5186, "pitch": 52, "duration": 14, "velocity": 50}, {"time": 5186, "pitch": 57, "duration": 15, "velocity": 78}, {"time": 5192, "pitch": 64, "duration": 8, "velocity": 89}, {"time": 5192, "pitch": 69, "duration": 8, "velocity": 96}, {"time": 5192, "pitch": 72, "duration": 8, "velocity": 93}, {"time": 5204, "pitch": 64, "duration": 6, "velocity": 83}, {"time": 5204, "pitch": 69, "duration": 6, "velocity": 92}, {"time": 5204, "pitch": 72, "duration": 6, "velocity": 83}, {"time": 5210, "pitch": 48, "duration": 20, "velocity": 78}, {"time": 5222, "pitch": 67, "duration": 4, "velocity": 85}, {"time": 5222, "pitch": 72, "duration": 4, "velocity": 102}, {"time": 5222, "pitch": 76, "duration": 4, "velocity": 96}, {"time": 5228, "pitch": 67, "duration": 5, "velocity": 82}, {"time": 5228, "pitch": 72, "duration": 5, "velocity": 96}, {"time": 5228, "pitch": 76, "duration": 5, "velocity": 86}, {"time": 5234, "pitch": 55, "duration": 10, "velocity": 61}, {"time": 5234, "pitch": 60, "duration": 8, "velocity": 81}, {"time": 5246, "pitch": 67, "duration": 7, "velocity": 92}, {"time": 5246, "pitch": 72, "duration": 6, "velocity": 96}, {"time": 5246, "pitch": 76, "duration": 6, "velocity": 93}, {"time": 5258, "pitch": 45, "duration": 20, "velocity": 83}, {"time": 5270, "pitch": 64, "duration": 3, "velocity": 86}, {"time": 5270, "pitch": 69, "duration": 3, "velocity": 95}, {"time": 5270, "pitch": 72, "duration": 4, "velocity": 88}, {"time": 5276, "pitch": 64, "duration": 8, "velocity": 78}, {"time": 5276, "pitch": 69, "duration": 7, "velocity": 88}, {"time": 5276, "pitch": 72, "duration": 8, "velocity": 76}, {"time": 5282, "pitch": 52, "duration": 9, "velocity": 55}, {"time": 5282, "pitch": 57, "duration": 16, "velocity": 81}, {"time": 5288, "pitch": 64, "duration": 9, "velocity": 90}, {"time": 5288, "pitch": 69, "duration": 8, "velocity": 93}, {"time": 5288, "pitch": 72, "duration": 9, "velocity": 88}, {"time": 5300, "pitch": 64, "duration": 8, "velocity": 90}, {"time": 5300, "pitch": 69, "duration": 5, "velocity": 92}, {"time": 5300, "pitch": 72, "duration": 6, "velocity": 83}, {"time": 5306, "pitch": 50, "duration": 17, "velocity": 85}, {"time": 5318, "pitch": 62, "duration": 4, "velocity": 90}, {"time": 5318, "pitch": 65, "duration": 3, "velocity": 95}, {"time": 5318, "pitch": 69, "duration": 4, "velocity": 95}, {"time": 5324, "pitch": 62, "duration": 4, "velocity": 92}, {"time": 5324, "pitch": 65, "duration": 4, "velocity": 93}, {"time": 5324, "pitch": 69, "duration": 4, "velocity": 86}, {"time": 5330, "pitch": 50, "duration": 12, "velocity": 63}, {"time": 5342, "pitch": 62, "duration": 6, "velocity": 93}, {"time": 5342, "pitch": 65, "duration": 5, "velocity": 100}, {"time": 5342, "pitch": 69, "duration": 6, "velocity": 95}, {"time": 5354, "pitch": 40, "duration": 12, "velocity": 71}, {"time": 5354, "pitch": 64, "duration": 10, "velocity": 97}, {"time": 5354, "pitch": 67, "duration": 10, "velocity": 95}, {"time": 5354, "pitch": 71, "duration": 10, "velocity": 95}, {"time": 5378, "pitch": 52, "duration": 15, "velocity": 89}, {"time": 5378, "pitch": 64, "duration": 17, "velocity": 92}, {"time": 5378, "pitch": 67, "duration": 18, "velocity": 88}, {"time": 5378, "pitch": 71, "duration": 17, "velocity": 89}, {"time": 5402, "pitch": 45, "duration": 17, "velocity": 85}, {"time": 5414, "pitch": 64, "duration": 3, "velocity": 81}, {"time": 5414, "pitch": 69, "duration": 3, "velocity": 95}, {"time": 5414, "pitch": 72, "duration": 3, "velocity": 90}, {"time": 5420, "pitch": 64, "duration": 4, "velocity": 72}, {"time": 5420, "pitch": 69, "duration": 4, "velocity": 79}, {"time": 5420, "pitch": 72, "duration": 4, "velocity": 79}, {"time": 5426, "pitch": 52, "duration": 15, "velocity": 63}, {"time": 5426, "pitch": 57, "duration": 14, "velocity": 82}, {"time": 5438, "pitch": 64, "duration": 6, "velocity": 85}, {"time": 5438, "pitch": 69, "duration": 6, "velocity": 86}, {"time": 5438, "pitch": 72, "duration": 6, "velocity": 83}, {"time": 5450, "pitch": 45, "duration": 22, "velocity": 86}, {"time": 5462, "pitch": 64, "duration": 3, "velocity": 69}, {"time": 5462, "pitch": 69, "duration": 3, "velocity": 86}, {"time": 5462, "pitch": 72, "duration": 3, "velocity": 77}, {"time": 5468, "pitch": 64, "duration": 5, "velocity": 83}, {"time": 5468, "pitch": 69, "duration": 5, "velocity": 99}, {"time": 5468, "pitch": 72, "duration": 5, "velocity": 93}, {"time": 5474, "pitch": 52, "duration": 14, "velocity": 78}, {"time": 5486, "pitch": 64, "duration": 6, "velocity": 86}, {"time": 5486, "pitch": 69, "duration": 6, "velocity": 100}, {"time": 5486, "pitch": 72, "duration": 6, "velocity": 93}, {"time": 5498, "pitch": 45, "duration": 16, "velocity": 88}, {"time": 5510, "pitch": 64, "duration": 4, "velocity": 88}, {"time": 5510, "pitch": 69, "duration": 4, "velocity": 89}, {"time": 5510, "pitch": 72, "duration": 4, "velocity": 86}, {"time": 5516, "pitch": 64, "duration": 4, "velocity": 66}, {"time": 5516, "pitch": 69, "duration": 4, "velocity": 79}, {"time": 5516, "pitch": 72, "duration": 4, "velocity": 75}, {"time": 5522, "pitch": 57, "duration": 12, "velocity": 79}, {"time": 5534, "pitch": 64, "duration": 5, "velocity": 82}, {"time": 5534, "pitch": 69, "duration": 5, "velocity": 92}, {"time": 5534, "pitch": 72, "duration": 6, "velocity": 86}, {"time": 5546, "pitch": 45, "duration": 21, "velocity": 69}, {"time": 5558, "pitch": 64, "duration": 4, "velocity": 81}, {"time": 5558, "pitch": 69, "duration": 3, "velocity": 89}, {"time": 5558, "pitch": 72, "duration": 4, "velocity": 85}, {"time": 5564, "pitch": 64, "duration": 5, "velocity": 74}, {"time": 5564, "pitch": 69, "duration": 5, "velocity": 88}, {"time": 5564, "pitch": 72, "duration": 7, "velocity": 82}, {"time": 5570, "pitch": 57, "duration": 8, "velocity": 86}, {"time": 5576, "pitch": 64, "duration": 10, "velocity": 86}, {"time": 5576, "pitch": 69, "duration": 10, "velocity": 96}, {"time": 5576, "pitch": 72, "duration": 10, "velocity": 92}, {"time": 5588, "pitch": 64, "duration": 9, "velocity": 78}, {"time": 5588, "pitch": 69, "duration": 5, "velocity": 93}, {"time": 5588, "pitch": 72, "duration": 6, "velocity": 89}, {"time": 5594, "pitch": 38, "duration": 20, "velocity": 70}, {"time": 5606, "pitch": 62, "duration": 3, "velocity": 85}, {"time": 5606, "pitch": 65, "duration": 3, "velocity": 93}, {"time": 5606, "pitch": 69, "duration": 4, "velocity": 90}, {"time": 5612, "pitch": 62, "duration": 4, "velocity": 82}, {"time": 5612, "pitch": 65, "duration": 4, "velocity": 92}, {"time": 5612, "pitch": 69, "duration": 4, "velocity": 78}, {"time": 5618, "pitch": 40, "duration": 13, "velocity": 81}, {"time": 5630, "pitch": 64, "duration": 4, "velocity": 78}, {"time": 5630, "pitch": 67, "duration": 4, "velocity": 99}, {"time": 5630, "pitch": 71, "duration": 4, "velocity": 93}, {"time": 5636, "pitch": 64, "duration": 4, "velocity": 77}, {"time": 5636, "pitch": 67, "duration": 4, "velocity": 86}, {"time": 5636, "pitch": 71, "duration": 4, "velocity": 83}, {"time": 5642, "pitch": 38, "duration": 13, "velocity": 92}, {"time": 5654, "pitch": 62, "duration": 4, "velocity": 79}, {"time": 5654, "pitch": 65, "duration": 4, "velocity": 90}, {"time": 5654, "pitch": 69, "duration": 4, "velocity": 90}, {"time": 5660, "pitch": 62, "duration": 4, "velocity": 78}, {"time": 5660, "pitch": 65, "duration": 4, "velocity": 89}, {"time": 5660, "pitch": 69, "duration": 4, "velocity": 76}, {"time": 5666, "pitch": 45, "duration": 16, "velocity": 58}, {"time": 5672, "pitch": 64, "duration": 9, "velocity": 86}, {"time": 5672, "pitch": 69, "duration": 9, "velocity": 99}, {"time": 5672, "pitch": 72, "duration": 9, "velocity": 93}, {"time": 5678, "pitch": 52, "duration": 10, "velocity": 48}, {"time": 5678, "pitch": 57, "duration": 6, "velocity": 59}, {"time": 5684, "pitch": 64, "duration": 8, "velocity": 89}, {"time": 5684, "pitch": 69, "duration": 7, "velocity": 96}, {"time": 5684, "pitch": 72, "duration": 7, "velocity": 96}, {"time": 5691, "pitch": 62, "duration": 50, "velocity": 82}, {"time": 5691, "pitch": 38, "duration": 43, "velocity": 31}, {"time": 5692, "pitch": 45, "duration": 42, "velocity": 58}, {"time": 5692, "pitch": 65, "duration": 43, "velocity": 86}, {"time": 5692, "pitch": 50, "duration": 42, "velocity": 56}, {"time": 5694, "pitch": 69, "duration": 42, "velocity": 102}, {"time": 5745, "pitch": 64, "duration": 46, "velocity": 85}, {"time": 5746, "pitch": 67, "duration": 45, "velocity": 70}, {"time": 5747, "pitch": 40, "duration": 46, "velocity": 31}, {"time": 5747, "pitch": 47, "duration": 45, "velocity": 46}, {"time": 5748, "pitch": 52, "duration": 37, "velocity": 52}, {"time": 5748, "pitch": 71, "duration": 44, "velocity": 97}, {"time": 5825, "pitch": 40, "duration": 12, "velocity": 66}, {"time": 5826, "pitch": 64, "duration": 18, "velocity": 67}, {"time": 5826, "pitch": 71, "duration": 18, "velocity": 69}, {"time": 5826, "pitch": 67, "duration": 19, "velocity": 72}, {"time": 5859, "pitch": 64, "duration": 22, "velocity": 72}, {"time": 5860, "pitch": 67, "duration": 5, "velocity": 57}, {"time": 5862, "pitch": 69, "duration": 18, "velocity": 72}, {"time": 5863, "pitch": 45, "duration": 112, "velocity": 85}, {"time": 5863, "pitch": 72, "duration": 17, "velocity": 72}, {"time": 5879, "pitch": 52, "duration": 95, "velocity": 57}, {"time": 5884, "pitch": 57, "duration": 90, "velocity": 71}, {"time": 5890, "pitch": 60, "duration": 9, "velocity": 58}, {"time": 5895, "pitch": 64, "duration": 5, "velocity": 58}, {"time": 5899, "pitch": 67, "duration": 2, "velocity": 63}, {"time": 5904, "pitch": 69, "duration": 12, "velocity": 77}, {"time": 5911, "pitch": 71, "duration": 11, "velocity": 76}, {"time": 5917, "pitch": 72, "duration": 6, "velocity": 69}, {"time": 5923, "pitch": 76, "duration": 2, "velocity": 60}, {"time": 5930, "pitch": 81, "duration": 45, "velocity": 40}, {"time": 5937, "pitch": 84, "duration": 37, "velocity": 54}, {"time": 5944, "pitch": 88, "duration": 30, "velocity": 52}, {"time": 5952, "pitch": 93, "duration": 22, "velocity": 69}], "annotations": [{"time": 4074, "annotation": {"number": 64, "value": 127}, "group": "control_change"}, {"time": 4078, "annotation": {"number": 64, "value": 0}, "group": "control_change"}, {"time": 4105, "annotation": {"number": 64, "value": 127}, "group": "control_change"}, {"time": 4124, "annotation": {"number": 64, "value": 0}, "group": "control_change"}, {"time": 4131, "annotation": {"number": 64, "value": 127}, "group": "control_change"}, {"time": 4150, "annotation": {"number": 64, "value": 0}, "group": "control_change"}, {"time": 4156, "annotation": {"number": 64, "value": 127}, "group": "control_change"}, {"time": 4173, "annotation": {"number": 64, "value": 0}, "group": "control_change"}, {"time": 4179, "annotation": {"number": 64, "value": 127}, "group": "control_change"}, {"time": 4185, "annotation": {"number": 64, "value": 0}, "group": "control_change"}, {"time": 4202, "annotation": {"number": 64, "value": 127}, "group": "control_change"}, {"time": 4215, "annotation": {"number": 64, "value": 0}, "group": "control_change"}, {"time": 4228, "annotation": {"number": 64, "value": 127}, "group": "control_change"}, {"time": 4242, "annotation": {"number": 64, "value": 0}, "group": "control_change"}, {"time": 4348, "annotation": {"number": 64, "value": 127}, "group": "control_change"}, {"time": 4358, "annotation": {"number": 64, "value": 0}, "group": "control_change"}, {"time": 4372, "annotation": {"number": 64, "value": 127}, "group": "control_change"}, {"time": 4390, "annotation": {"number": 64, "value": 0}, "group": "control_change"}, {"time": 4410, "annotation": {"number": 64, "value": 127}, "group": "control_change"}, {"time": 4428, "annotation": {"number": 64, "value": 0}, "group": "control_change"}, {"time": 4443, "annotation": {"number": 64, "value": 127}, "group": "control_change"}, {"time": 4456, "annotation": {"number": 64, "value": 0}, "group": "control_change"}, {"time": 4467, "annotation": {"number": 64, "value": 127}, "group": "control_change"}, {"time": 4480, "annotation": {"number": 64, "value": 0}, "group": "control_change"}, {"time": 4491, "annotation": {"number": 64, "value": 127}, "group": "control_change"}, {"time": 4507, "annotation": {"number": 64, "value": 0}, "group": "control_change"}, {"time": 4515, "annotation": {"number": 64, "value": 127}, "group": "control_change"}, {"time": 4531, "annotation": {"number": 64, "value": 0}, "group": "control_change"}, {"time": 4539, "annotation": {"number": 64, "value": 127}, "group": "control_change"}, {"time": 4555, "annotation": {"number": 64, "value": 0}, "group": "control_change"}, {"time": 4562, "annotation": {"number": 64, "value": 127}, "group": "control_change"}, {"time": 4578, "annotation": {"number": 64, "value": 0}, "group": "control_change"}, {"time": 4587, "annotation": {"number": 64, "value": 127}, "group": "control_change"}, {"time": 4602, "annotation": {"number": 64, "value": 0}, "group": "control_change"}, {"time": 4610, "annotation": {"number": 64, "value": 127}, "group": "control_change"}, {"time": 4627, "annotation": {"number": 64, "value": 0}, "group": "control_change"}, {"time": 4634, "annotation": {"number": 64, "value": 127}, "group": "control_change"}, {"time": 4651, "annotation": {"number": 64, "value": 0}, "group": "control_change"}, {"time": 4658, "annotation": {"number": 64, "value": 127}, "group": "control_change"}, {"time": 4672, "annotation": {"number": 64, "value": 0}, "group": "control_change"}, {"time": 4682, "annotation": {"number": 64, "value": 127}, "group": "control_change"}, {"time": 4699, "annotation": {"number": 64, "value": 0}, "group": "control_change"}, {"time": 4706, "annotation": {"number": 64, "value": 127}, "group": "control_change"}, {"time": 4721, "annotation": {"number": 64, "value": 0}, "group": "control_change"}, {"time": 4730, "annotation": {"number": 64, "value": 127}, "group": "control_change"}, {"time": 4744, "annotation": {"number": 64, "value": 0}, "group": "control_change"}, {"time": 4754, "annotation": {"number": 64, "value": 127}, "group": "control_change"}, {"time": 4769, "annotation": {"number": 64, "value": 0}, "group": "control_change"}, {"time": 4778, "annotation": {"number": 64, "value": 127}, "group": "control_change"}, {"time": 4796, "annotation": {"number": 64, "value": 0}, "group": "control_change"}, {"time": 4802, "annotation": {"number": 64, "value": 127}, "group": "control_change"}, {"time": 4813, "annotation": {"number": 64, "value": 0}, "group": "control_change"}, {"time": 5522, "annotation": {"number": 64, "value": 127}, "group": "control_change"}, {"time": 5538, "annotation": {"number": 64, "value": 0}, "group": "control_change"}, {"time": 5546, "annotation": {"number": 64, "value": 127}, "group": "control_change"}, {"time": 5591, "annotation": {"number": 64, "value": 0}, "group": "control_change"}, {"time": 5594, "annotation": {"number": 64, "value": 127}, "group": "control_change"}, {"time": 5601, "annotation": {"number": 64, "value": 0}, "group": "control_change"}, {"time": 5722, "annotation": {"number": 64, "value": 127}, "group": "control_change"}, {"time": 5744, "annotation": {"number": 64, "value": 0}, "group": "control_change"}, {"time": 5755, "annotation": {"number": 64, "value": 127}, "group": "control_change"}, {"time": 5862, "annotation": {"number": 64, "value": 0}, "group": "control_change"}, {"time": 5867, "annotation": {"number": 64, "value": 127}, "group": "control_change"}, {"time": 5997, "annotation": {"number": 64, "value": 0}, "group": "control_change"}, {"time": 6001, "annotation": {"number": 64, "value": 127}, "group": "control_change"}, {"time": 6002, "annotation": {"number": 64, "value": 0}, "group": "control_change"}, {"time": 6005, "annotation": {"number": 64, "value": 127}, "group": "control_change"}, {"time": 6007, "annotation": {"number": 64, "value": 0}, "group": "control_change"}, {"time": 6008, "annotation": {"number": 64, "value": 127}, "group": "control_change"}, {"time": 6014, "annotation": {"number": 64, "value": 0}, "group": "control_change"}]}]}