{"metadata": {"schema_version": "0.2", "title": "None", "source_filename": "471.mid", "source_format": "midi"}, "resolution": 12, "tempos": [{"time": 0, "qpm": 56.70000311850017}, {"time": 888, "qpm": 58.00004253336452}, {"time": 1032, "qpm": 57.000031350017245}, {"time": 1104, "qpm": 55.99997760000896}, {"time": 1176, "qpm": 56.749985103128914}, {"time": 1464, "qpm": 56.800001514666704}, {"time": 1632, "qpm": 56.59998245400544}, {"time": 1884, "qpm": 55.99997760000896}, {"time": 1932, "qpm": 50.0}, {"time": 1944, "qpm": 56.499994820833805}, {"time": 2016, "qpm": 56.800001514666704}, {"time": 2208, "qpm": 55.99997760000896}, {"time": 2316, "qpm": 56.70000311850017}], "key_signatures": [{"time": 0, "root": 0, "mode": "major"}], "time_signatures": [{"time": 0, "numerator": 1, "denominator": 4}], "tracks": [{"program": 0, "is_drum": false, "name": "MELODY", "notes": [{"time": 135, "pitch": 73, "duration": 3, "velocity": 127}, {"time": 141, "pitch": 73, "duration": 3, "velocity": 127}, {"time": 147, "pitch": 75, "duration": 2, "velocity": 107}, {"time": 153, "pitch": 73, "duration": 2, "velocity": 102}, {"time": 156, "pitch": 71, "duration": 3, "velocity": 71}, {"time": 159, "pitch": 73, "duration": 19, "velocity": 107}, {"time": 183, "pitch": 78, "duration": 6, "velocity": 107}, {"time": 189, "pitch": 73, "duration": 3, "velocity": 102}, {"time": 192, "pitch": 75, "duration": 3, "velocity": 99}, {"time": 195, "pitch": 71, "duration": 4, "velocity": 78}, {"time": 201, "pitch": 71, "duration": 2, "velocity": 95}, {"time": 204, "pitch": 68, "duration": 3, "velocity": 92}, {"time": 207, "pitch": 73, "duration": 9, "velocity": 92}, {"time": 231, "pitch": 68, "duration": 6, "velocity": 102}, {"time": 240, "pitch": 68, "duration": 1, "velocity": 86}, {"time": 243, "pitch": 68, "duration": 4, "velocity": 100}, {"time": 249, "pitch": 71, "duration": 4, "velocity": 89}, {"time": 255, "pitch": 73, "duration": 6, "velocity": 122}, {"time": 261, "pitch": 75, "duration": 4, "velocity": 117}, {"time": 267, "pitch": 73, "duration": 5, "velocity": 96}, {"time": 273, "pitch": 71, "duration": 3, "velocity": 99}, {"time": 279, "pitch": 68, "duration": 4, "velocity": 107}, {"time": 285, "pitch": 68, "duration": 4, "velocity": 117}, {"time": 291, "pitch": 71, "duration": 4, "velocity": 107}, {"time": 297, "pitch": 68, "duration": 3, "velocity": 102}, {"time": 300, "pitch": 66, "duration": 1, "velocity": 85}, {"time": 303, "pitch": 66, "duration": 23, "velocity": 122}, {"time": 327, "pitch": 71, "duration": 4, "velocity": 85}, {"time": 333, "pitch": 71, "duration": 1, "velocity": 78}, {"time": 336, "pitch": 71, "duration": 1, "velocity": 72}, {"time": 339, "pitch": 71, "duration": 5, "velocity": 88}, {"time": 345, "pitch": 68, "duration": 3, "velocity": 102}, {"time": 348, "pitch": 66, "duration": 2, "velocity": 88}, {"time": 351, "pitch": 73, "duration": 16, "velocity": 99}, {"time": 375, "pitch": 75, "duration": 4, "velocity": 112}, {"time": 381, "pitch": 73, "duration": 3, "velocity": 122}, {"time": 384, "pitch": 75, "duration": 3, "velocity": 93}, {"time": 387, "pitch": 73, "duration": 3, "velocity": 122}, {"time": 393, "pitch": 71, "duration": 3, "velocity": 96}, {"time": 396, "pitch": 73, "duration": 3, "velocity": 96}, {"time": 399, "pitch": 68, "duration": 16, "velocity": 97}, {"time": 423, "pitch": 71, "duration": 6, "velocity": 92}, {"time": 432, "pitch": 71, "duration": 2, "velocity": 73}, {"time": 435, "pitch": 68, "duration": 4, "velocity": 97}, {"time": 441, "pitch": 71, "duration": 4, "velocity": 86}, {"time": 447, "pitch": 73, "duration": 7, "velocity": 122}, {"time": 453, "pitch": 73, "duration": 1, "velocity": 127}, {"time": 456, "pitch": 75, "duration": 2, "velocity": 92}, {"time": 459, "pitch": 73, "duration": 5, "velocity": 112}, {"time": 465, "pitch": 71, "duration": 5, "velocity": 97}, {"time": 471, "pitch": 68, "duration": 3, "velocity": 112}, {"time": 477, "pitch": 68, "duration": 3, "velocity": 112}, {"time": 483, "pitch": 71, "duration": 5, "velocity": 107}, {"time": 489, "pitch": 68, "duration": 3, "velocity": 117}, {"time": 492, "pitch": 66, "duration": 1, "velocity": 82}, {"time": 495, "pitch": 66, "duration": 18, "velocity": 107}, {"time": 519, "pitch": 78, "duration": 5, "velocity": 127}, {"time": 525, "pitch": 80, "duration": 5, "velocity": 122}, {"time": 531, "pitch": 78, "duration": 3, "velocity": 127}, {"time": 537, "pitch": 75, "duration": 3, "velocity": 127}, {"time": 540, "pitch": 73, "duration": 1, "velocity": 122}, {"time": 543, "pitch": 73, "duration": 19, "velocity": 127}, {"time": 567, "pitch": 80, "duration": 5, "velocity": 127}, {"time": 573, "pitch": 78, "duration": 4, "velocity": 127}, {"time": 579, "pitch": 78, "duration": 5, "velocity": 127}, {"time": 585, "pitch": 75, "duration": 3, "velocity": 127}, {"time": 588, "pitch": 73, "duration": 2, "velocity": 72}, {"time": 591, "pitch": 73, "duration": 23, "velocity": 122}, {"time": 615, "pitch": 75, "duration": 5, "velocity": 122}, {"time": 624, "pitch": 75, "duration": 3, "velocity": 107}, {"time": 627, "pitch": 73, "duration": 4, "velocity": 122}, {"time": 633, "pitch": 73, "duration": 3, "velocity": 127}, {"time": 636, "pitch": 75, "duration": 3, "velocity": 100}, {"time": 639, "pitch": 73, "duration": 11, "velocity": 127}, {"time": 648, "pitch": 71, "duration": 3, "velocity": 93}, {"time": 651, "pitch": 68, "duration": 4, "velocity": 112}, {"time": 657, "pitch": 68, "duration": 2, "velocity": 107}, {"time": 660, "pitch": 71, "duration": 2, "velocity": 82}, {"time": 663, "pitch": 73, "duration": 6, "velocity": 117}, {"time": 672, "pitch": 71, "duration": 3, "velocity": 95}, {"time": 675, "pitch": 73, "duration": 5, "velocity": 117}, {"time": 681, "pitch": 78, "duration": 4, "velocity": 127}, {"time": 687, "pitch": 78, "duration": 21, "velocity": 127}, {"time": 711, "pitch": 78, "duration": 4, "velocity": 127}, {"time": 717, "pitch": 80, "duration": 5, "velocity": 122}, {"time": 723, "pitch": 78, "duration": 3, "velocity": 122}, {"time": 729, "pitch": 75, "duration": 3, "velocity": 99}, {"time": 732, "pitch": 73, "duration": 2, "velocity": 90}, {"time": 735, "pitch": 73, "duration": 18, "velocity": 127}, {"time": 759, "pitch": 80, "duration": 5, "velocity": 127}, {"time": 765, "pitch": 78, "duration": 4, "velocity": 122}, {"time": 771, "pitch": 78, "duration": 4, "velocity": 127}, {"time": 777, "pitch": 75, "duration": 4, "velocity": 122}, {"time": 780, "pitch": 73, "duration": 2, "velocity": 102}, {"time": 783, "pitch": 73, "duration": 9, "velocity": 127}, {"time": 807, "pitch": 75, "duration": 7, "velocity": 122}, {"time": 816, "pitch": 75, "duration": 3, "velocity": 122}, {"time": 819, "pitch": 73, "duration": 4, "velocity": 117}, {"time": 825, "pitch": 73, "duration": 3, "velocity": 122}, {"time": 828, "pitch": 75, "duration": 2, "velocity": 97}, {"time": 831, "pitch": 71, "duration": 6, "velocity": 117}, {"time": 834, "pitch": 73, "duration": 6, "velocity": 100}, {"time": 840, "pitch": 71, "duration": 2, "velocity": 95}, {"time": 843, "pitch": 68, "duration": 6, "velocity": 117}, {"time": 855, "pitch": 68, "duration": 4, "velocity": 117}, {"time": 861, "pitch": 68, "duration": 1, "velocity": 117}, {"time": 864, "pitch": 68, "duration": 1, "velocity": 112}, {"time": 867, "pitch": 71, "duration": 6, "velocity": 117}, {"time": 876, "pitch": 68, "duration": 3, "velocity": 99}, {"time": 879, "pitch": 66, "duration": 10, "velocity": 112}, {"time": 1167, "pitch": 73, "duration": 3, "velocity": 127}, {"time": 1173, "pitch": 73, "duration": 3, "velocity": 127}, {"time": 1176, "pitch": 73, "duration": 1, "velocity": 99}, {"time": 1179, "pitch": 75, "duration": 2, "velocity": 107}, {"time": 1185, "pitch": 73, "duration": 2, "velocity": 102}, {"time": 1188, "pitch": 71, "duration": 3, "velocity": 71}, {"time": 1191, "pitch": 73, "duration": 19, "velocity": 107}, {"time": 1215, "pitch": 78, "duration": 6, "velocity": 107}, {"time": 1221, "pitch": 73, "duration": 3, "velocity": 102}, {"time": 1224, "pitch": 75, "duration": 3, "velocity": 99}, {"time": 1227, "pitch": 71, "duration": 4, "velocity": 78}, {"time": 1233, "pitch": 71, "duration": 2, "velocity": 95}, {"time": 1236, "pitch": 68, "duration": 3, "velocity": 92}, {"time": 1239, "pitch": 73, "duration": 17, "velocity": 92}, {"time": 1263, "pitch": 68, "duration": 6, "velocity": 102}, {"time": 1272, "pitch": 68, "duration": 1, "velocity": 86}, {"time": 1275, "pitch": 68, "duration": 4, "velocity": 100}, {"time": 1281, "pitch": 71, "duration": 4, "velocity": 89}, {"time": 1287, "pitch": 73, "duration": 6, "velocity": 122}, {"time": 1293, "pitch": 75, "duration": 4, "velocity": 117}, {"time": 1299, "pitch": 73, "duration": 5, "velocity": 96}, {"time": 1305, "pitch": 71, "duration": 3, "velocity": 99}, {"time": 1311, "pitch": 68, "duration": 4, "velocity": 107}, {"time": 1317, "pitch": 68, "duration": 4, "velocity": 117}, {"time": 1323, "pitch": 71, "duration": 4, "velocity": 107}, {"time": 1329, "pitch": 68, "duration": 3, "velocity": 102}, {"time": 1332, "pitch": 66, "duration": 1, "velocity": 85}, {"time": 1335, "pitch": 66, "duration": 23, "velocity": 122}, {"time": 1359, "pitch": 71, "duration": 4, "velocity": 85}, {"time": 1365, "pitch": 71, "duration": 1, "velocity": 78}, {"time": 1368, "pitch": 71, "duration": 1, "velocity": 72}, {"time": 1371, "pitch": 71, "duration": 5, "velocity": 88}, {"time": 1377, "pitch": 68, "duration": 3, "velocity": 102}, {"time": 1380, "pitch": 66, "duration": 2, "velocity": 88}, {"time": 1383, "pitch": 73, "duration": 16, "velocity": 99}, {"time": 1407, "pitch": 75, "duration": 4, "velocity": 112}, {"time": 1413, "pitch": 73, "duration": 3, "velocity": 122}, {"time": 1416, "pitch": 75, "duration": 3, "velocity": 93}, {"time": 1419, "pitch": 73, "duration": 3, "velocity": 122}, {"time": 1425, "pitch": 71, "duration": 3, "velocity": 96}, {"time": 1428, "pitch": 73, "duration": 3, "velocity": 96}, {"time": 1431, "pitch": 68, "duration": 16, "velocity": 97}, {"time": 1455, "pitch": 71, "duration": 6, "velocity": 92}, {"time": 1464, "pitch": 71, "duration": 2, "velocity": 73}, {"time": 1467, "pitch": 68, "duration": 4, "velocity": 97}, {"time": 1473, "pitch": 71, "duration": 4, "velocity": 86}, {"time": 1479, "pitch": 73, "duration": 4, "velocity": 122}, {"time": 1485, "pitch": 73, "duration": 2, "velocity": 127}, {"time": 1488, "pitch": 75, "duration": 2, "velocity": 92}, {"time": 1491, "pitch": 73, "duration": 5, "velocity": 112}, {"time": 1497, "pitch": 71, "duration": 5, "velocity": 97}, {"time": 1503, "pitch": 68, "duration": 3, "velocity": 112}, {"time": 1509, "pitch": 68, "duration": 3, "velocity": 112}, {"time": 1515, "pitch": 71, "duration": 5, "velocity": 107}, {"time": 1521, "pitch": 68, "duration": 3, "velocity": 117}, {"time": 1524, "pitch": 66, "duration": 1, "velocity": 82}, {"time": 1527, "pitch": 66, "duration": 18, "velocity": 107}, {"time": 1551, "pitch": 78, "duration": 5, "velocity": 127}, {"time": 1557, "pitch": 80, "duration": 5, "velocity": 122}, {"time": 1563, "pitch": 78, "duration": 3, "velocity": 127}, {"time": 1569, "pitch": 75, "duration": 3, "velocity": 127}, {"time": 1572, "pitch": 73, "duration": 1, "velocity": 122}, {"time": 1575, "pitch": 73, "duration": 19, "velocity": 127}, {"time": 1599, "pitch": 80, "duration": 5, "velocity": 127}, {"time": 1605, "pitch": 78, "duration": 4, "velocity": 127}, {"time": 1611, "pitch": 78, "duration": 5, "velocity": 127}, {"time": 1617, "pitch": 75, "duration": 3, "velocity": 127}, {"time": 1620, "pitch": 73, "duration": 2, "velocity": 72}, {"time": 1623, "pitch": 73, "duration": 23, "velocity": 122}, {"time": 1647, "pitch": 75, "duration": 5, "velocity": 122}, {"time": 1656, "pitch": 75, "duration": 3, "velocity": 107}, {"time": 1659, "pitch": 73, "duration": 4, "velocity": 122}, {"time": 1665, "pitch": 73, "duration": 3, "velocity": 127}, {"time": 1668, "pitch": 75, "duration": 3, "velocity": 100}, {"time": 1671, "pitch": 73, "duration": 11, "velocity": 127}, {"time": 1680, "pitch": 71, "duration": 3, "velocity": 93}, {"time": 1683, "pitch": 68, "duration": 4, "velocity": 112}, {"time": 1689, "pitch": 68, "duration": 2, "velocity": 107}, {"time": 1692, "pitch": 71, "duration": 2, "velocity": 82}, {"time": 1695, "pitch": 73, "duration": 6, "velocity": 117}, {"time": 1704, "pitch": 71, "duration": 3, "velocity": 95}, {"time": 1707, "pitch": 73, "duration": 5, "velocity": 117}, {"time": 1713, "pitch": 78, "duration": 4, "velocity": 127}, {"time": 1719, "pitch": 78, "duration": 21, "velocity": 127}, {"time": 1743, "pitch": 78, "duration": 4, "velocity": 127}, {"time": 1749, "pitch": 80, "duration": 5, "velocity": 122}, {"time": 1755, "pitch": 78, "duration": 3, "velocity": 122}, {"time": 1761, "pitch": 75, "duration": 3, "velocity": 99}, {"time": 1764, "pitch": 73, "duration": 2, "velocity": 90}, {"time": 1767, "pitch": 73, "duration": 18, "velocity": 127}, {"time": 1791, "pitch": 80, "duration": 5, "velocity": 127}, {"time": 1797, "pitch": 78, "duration": 4, "velocity": 122}, {"time": 1803, "pitch": 78, "duration": 4, "velocity": 127}, {"time": 1809, "pitch": 75, "duration": 4, "velocity": 122}, {"time": 1812, "pitch": 73, "duration": 2, "velocity": 102}, {"time": 1815, "pitch": 73, "duration": 9, "velocity": 127}, {"time": 1839, "pitch": 75, "duration": 7, "velocity": 122}, {"time": 1848, "pitch": 75, "duration": 3, "velocity": 122}, {"time": 1851, "pitch": 73, "duration": 4, "velocity": 117}, {"time": 1857, "pitch": 73, "duration": 3, "velocity": 122}, {"time": 1860, "pitch": 75, "duration": 2, "velocity": 97}, {"time": 1863, "pitch": 71, "duration": 6, "velocity": 117}, {"time": 1866, "pitch": 73, "duration": 6, "velocity": 100}, {"time": 1872, "pitch": 71, "duration": 2, "velocity": 95}, {"time": 1875, "pitch": 68, "duration": 6, "velocity": 117}, {"time": 1887, "pitch": 68, "duration": 4, "velocity": 117}, {"time": 1893, "pitch": 68, "duration": 1, "velocity": 117}, {"time": 1896, "pitch": 68, "duration": 1, "velocity": 112}, {"time": 1899, "pitch": 71, "duration": 6, "velocity": 117}, {"time": 1908, "pitch": 68, "duration": 3, "velocity": 99}, {"time": 1911, "pitch": 66, "duration": 10, "velocity": 112}, {"time": 1935, "pitch": 78, "duration": 5, "velocity": 127}, {"time": 1941, "pitch": 80, "duration": 5, "velocity": 122}, {"time": 1947, "pitch": 78, "duration": 3, "velocity": 127}, {"time": 1953, "pitch": 75, "duration": 3, "velocity": 127}, {"time": 1956, "pitch": 73, "duration": 1, "velocity": 122}, {"time": 1959, "pitch": 73, "duration": 19, "velocity": 127}, {"time": 1983, "pitch": 80, "duration": 5, "velocity": 127}, {"time": 1989, "pitch": 78, "duration": 4, "velocity": 127}, {"time": 1995, "pitch": 78, "duration": 5, "velocity": 127}, {"time": 2001, "pitch": 75, "duration": 3, "velocity": 127}, {"time": 2004, "pitch": 73, "duration": 2, "velocity": 72}, {"time": 2007, "pitch": 73, "duration": 23, "velocity": 122}, {"time": 2031, "pitch": 75, "duration": 5, "velocity": 122}, {"time": 2040, "pitch": 75, "duration": 3, "velocity": 107}, {"time": 2043, "pitch": 73, "duration": 4, "velocity": 122}, {"time": 2049, "pitch": 73, "duration": 3, "velocity": 127}, {"time": 2052, "pitch": 75, "duration": 3, "velocity": 100}, {"time": 2055, "pitch": 73, "duration": 11, "velocity": 127}, {"time": 2064, "pitch": 71, "duration": 3, "velocity": 93}, {"time": 2067, "pitch": 68, "duration": 4, "velocity": 112}, {"time": 2073, "pitch": 68, "duration": 2, "velocity": 107}, {"time": 2076, "pitch": 71, "duration": 2, "velocity": 82}, {"time": 2079, "pitch": 73, "duration": 6, "velocity": 117}, {"time": 2088, "pitch": 71, "duration": 3, "velocity": 95}, {"time": 2091, "pitch": 73, "duration": 5, "velocity": 117}, {"time": 2097, "pitch": 78, "duration": 4, "velocity": 127}, {"time": 2103, "pitch": 78, "duration": 21, "velocity": 127}, {"time": 2127, "pitch": 78, "duration": 4, "velocity": 127}, {"time": 2133, "pitch": 80, "duration": 5, "velocity": 122}, {"time": 2139, "pitch": 78, "duration": 3, "velocity": 122}, {"time": 2145, "pitch": 75, "duration": 3, "velocity": 99}, {"time": 2148, "pitch": 73, "duration": 2, "velocity": 90}, {"time": 2151, "pitch": 73, "duration": 18, "velocity": 127}, {"time": 2175, "pitch": 80, "duration": 5, "velocity": 127}, {"time": 2181, "pitch": 78, "duration": 4, "velocity": 122}, {"time": 2187, "pitch": 78, "duration": 4, "velocity": 127}, {"time": 2193, "pitch": 75, "duration": 4, "velocity": 122}, {"time": 2196, "pitch": 73, "duration": 2, "velocity": 102}, {"time": 2199, "pitch": 73, "duration": 9, "velocity": 127}, {"time": 2223, "pitch": 75, "duration": 7, "velocity": 122}, {"time": 2232, "pitch": 75, "duration": 3, "velocity": 122}, {"time": 2235, "pitch": 73, "duration": 4, "velocity": 117}, {"time": 2241, "pitch": 73, "duration": 3, "velocity": 122}, {"time": 2244, "pitch": 75, "duration": 2, "velocity": 97}, {"time": 2247, "pitch": 71, "duration": 6, "velocity": 117}, {"time": 2250, "pitch": 73, "duration": 6, "velocity": 100}, {"time": 2256, "pitch": 71, "duration": 2, "velocity": 95}, {"time": 2259, "pitch": 68, "duration": 6, "velocity": 117}, {"time": 2271, "pitch": 68, "duration": 4, "velocity": 117}, {"time": 2277, "pitch": 68, "duration": 1, "velocity": 117}, {"time": 2280, "pitch": 68, "duration": 1, "velocity": 112}, {"time": 2283, "pitch": 71, "duration": 6, "velocity": 117}, {"time": 2292, "pitch": 68, "duration": 3, "velocity": 99}, {"time": 2295, "pitch": 66, "duration": 10, "velocity": 112}, {"time": 2319, "pitch": 75, "duration": 7, "velocity": 122}, {"time": 2328, "pitch": 75, "duration": 3, "velocity": 122}, {"time": 2331, "pitch": 73, "duration": 4, "velocity": 117}, {"time": 2337, "pitch": 73, "duration": 3, "velocity": 122}, {"time": 2340, "pitch": 75, "duration": 2, "velocity": 97}, {"time": 2343, "pitch": 71, "duration": 5, "velocity": 117}, {"time": 2346, "pitch": 73, "duration": 6, "velocity": 100}, {"time": 2352, "pitch": 71, "duration": 2, "velocity": 95}, {"time": 2355, "pitch": 68, "duration": 6, "velocity": 117}, {"time": 2367, "pitch": 73, "duration": 3, "velocity": 127}, {"time": 2373, "pitch": 73, "duration": 8, "velocity": 127}, {"time": 2385, "pitch": 71, "duration": 5, "velocity": 122}, {"time": 2391, "pitch": 73, "duration": 11, "velocity": 127}, {"time": 2403, "pitch": 80, "duration": 60, "velocity": 127}, {"time": 2463, "pitch": 78, "duration": 63, "velocity": 127}]}, {"program": 0, "is_drum": false, "name": "PIANO", "notes": [{"time": 3, "pitch": 37, "duration": 22, "velocity": 37}, {"time": 3, "pitch": 49, "duration": 22, "velocity": 43}, {"time": 3, "pitch": 61, "duration": 29, "velocity": 53}, {"time": 3, "pitch": 64, "duration": 28, "velocity": 59}, {"time": 3, "pitch": 68, "duration": 28, "velocity": 59}, {"time": 39, "pitch": 40, "duration": 25, "velocity": 56}, {"time": 39, "pitch": 47, "duration": 24, "velocity": 62}, {"time": 39, "pitch": 52, "duration": 24, "velocity": 79}, {"time": 39, "pitch": 59, "duration": 24, "velocity": 88}, {"time": 39, "pitch": 64, "duration": 25, "velocity": 89}, {"time": 39, "pitch": 68, "duration": 25, "velocity": 89}, {"time": 75, "pitch": 37, "duration": 5, "velocity": 72}, {"time": 75, "pitch": 49, "duration": 6, "velocity": 69}, {"time": 75, "pitch": 61, "duration": 7, "velocity": 83}, {"time": 75, "pitch": 64, "duration": 6, "velocity": 66}, {"time": 75, "pitch": 68, "duration": 6, "velocity": 63}, {"time": 87, "pitch": 42, "duration": 40, "velocity": 81}, {"time": 87, "pitch": 54, "duration": 41, "velocity": 67}, {"time": 87, "pitch": 61, "duration": 43, "velocity": 89}, {"time": 87, "pitch": 66, "duration": 42, "velocity": 93}, {"time": 87, "pitch": 70, "duration": 39, "velocity": 62}, {"time": 135, "pitch": 42, "duration": 41, "velocity": 76}, {"time": 141, "pitch": 49, "duration": 35, "velocity": 37}, {"time": 147, "pitch": 54, "duration": 32, "velocity": 47}, {"time": 147, "pitch": 66, "duration": 36, "velocity": 71}, {"time": 153, "pitch": 61, "duration": 20, "velocity": 47}, {"time": 159, "pitch": 70, "duration": 7, "velocity": 58}, {"time": 171, "pitch": 70, "duration": 11, "velocity": 32}, {"time": 177, "pitch": 61, "duration": 7, "velocity": 45}, {"time": 183, "pitch": 44, "duration": 37, "velocity": 76}, {"time": 189, "pitch": 56, "duration": 29, "velocity": 86}, {"time": 195, "pitch": 59, "duration": 27, "velocity": 65}, {"time": 201, "pitch": 63, "duration": 22, "velocity": 58}, {"time": 207, "pitch": 68, "duration": 14, "velocity": 52}, {"time": 231, "pitch": 39, "duration": 20, "velocity": 92}, {"time": 237, "pitch": 46, "duration": 11, "velocity": 26}, {"time": 243, "pitch": 51, "duration": 6, "velocity": 41}, {"time": 243, "pitch": 63, "duration": 5, "velocity": 28}, {"time": 243, "pitch": 66, "duration": 7, "velocity": 53}, {"time": 255, "pitch": 40, "duration": 15, "velocity": 69}, {"time": 255, "pitch": 59, "duration": 15, "velocity": 58}, {"time": 255, "pitch": 64, "duration": 26, "velocity": 61}, {"time": 255, "pitch": 68, "duration": 28, "velocity": 61}, {"time": 261, "pitch": 47, "duration": 10, "velocity": 43}, {"time": 267, "pitch": 52, "duration": 6, "velocity": 64}, {"time": 273, "pitch": 59, "duration": 11, "velocity": 47}, {"time": 279, "pitch": 44, "duration": 18, "velocity": 86}, {"time": 285, "pitch": 51, "duration": 10, "velocity": 21}, {"time": 291, "pitch": 56, "duration": 6, "velocity": 56}, {"time": 297, "pitch": 63, "duration": 6, "velocity": 57}, {"time": 303, "pitch": 42, "duration": 19, "velocity": 69}, {"time": 309, "pitch": 54, "duration": 18, "velocity": 78}, {"time": 315, "pitch": 58, "duration": 3, "velocity": 68}, {"time": 315, "pitch": 61, "duration": 13, "velocity": 96}, {"time": 321, "pitch": 58, "duration": 5, "velocity": 73}, {"time": 327, "pitch": 44, "duration": 18, "velocity": 95}, {"time": 333, "pitch": 56, "duration": 11, "velocity": 59}, {"time": 339, "pitch": 59, "duration": 18, "velocity": 67}, {"time": 339, "pitch": 63, "duration": 12, "velocity": 66}, {"time": 351, "pitch": 40, "duration": 16, "velocity": 75}, {"time": 357, "pitch": 47, "duration": 11, "velocity": 47}, {"time": 360, "pitch": 52, "duration": 4, "velocity": 37}, {"time": 360, "pitch": 64, "duration": 13, "velocity": 63}, {"time": 360, "pitch": 68, "duration": 13, "velocity": 58}, {"time": 372, "pitch": 39, "duration": 18, "velocity": 69}, {"time": 381, "pitch": 46, "duration": 12, "velocity": 29}, {"time": 387, "pitch": 51, "duration": 8, "velocity": 46}, {"time": 387, "pitch": 58, "duration": 13, "velocity": 56}, {"time": 387, "pitch": 63, "duration": 13, "velocity": 66}, {"time": 387, "pitch": 66, "duration": 13, "velocity": 67}, {"time": 399, "pitch": 44, "duration": 18, "velocity": 60}, {"time": 405, "pitch": 51, "duration": 12, "velocity": 59}, {"time": 411, "pitch": 56, "duration": 5, "velocity": 46}, {"time": 411, "pitch": 59, "duration": 10, "velocity": 66}, {"time": 411, "pitch": 63, "duration": 10, "velocity": 85}, {"time": 423, "pitch": 40, "duration": 16, "velocity": 72}, {"time": 423, "pitch": 59, "duration": 12, "velocity": 57}, {"time": 423, "pitch": 64, "duration": 24, "velocity": 65}, {"time": 423, "pitch": 68, "duration": 24, "velocity": 60}, {"time": 429, "pitch": 47, "duration": 11, "velocity": 39}, {"time": 435, "pitch": 52, "duration": 4, "velocity": 71}, {"time": 441, "pitch": 59, "duration": 7, "velocity": 58}, {"time": 447, "pitch": 37, "duration": 17, "velocity": 71}, {"time": 453, "pitch": 44, "duration": 11, "velocity": 35}, {"time": 459, "pitch": 49, "duration": 6, "velocity": 70}, {"time": 459, "pitch": 56, "duration": 1, "velocity": 46}, {"time": 459, "pitch": 61, "duration": 12, "velocity": 58}, {"time": 459, "pitch": 64, "duration": 12, "velocity": 72}, {"time": 465, "pitch": 56, "duration": 5, "velocity": 78}, {"time": 471, "pitch": 44, "duration": 19, "velocity": 92}, {"time": 477, "pitch": 51, "duration": 11, "velocity": 63}, {"time": 483, "pitch": 56, "duration": 5, "velocity": 52}, {"time": 483, "pitch": 59, "duration": 8, "velocity": 74}, {"time": 483, "pitch": 63, "duration": 7, "velocity": 79}, {"time": 495, "pitch": 42, "duration": 19, "velocity": 97}, {"time": 495, "pitch": 54, "duration": 10, "velocity": 90}, {"time": 495, "pitch": 58, "duration": 10, "velocity": 89}, {"time": 495, "pitch": 61, "duration": 10, "velocity": 85}, {"time": 501, "pitch": 49, "duration": 7, "velocity": 48}, {"time": 507, "pitch": 54, "duration": 4, "velocity": 107}, {"time": 507, "pitch": 58, "duration": 5, "velocity": 127}, {"time": 507, "pitch": 61, "duration": 5, "velocity": 112}, {"time": 513, "pitch": 49, "duration": 3, "velocity": 68}, {"time": 519, "pitch": 47, "duration": 17, "velocity": 82}, {"time": 522, "pitch": 54, "duration": 10, "velocity": 81}, {"time": 525, "pitch": 59, "duration": 4, "velocity": 93}, {"time": 528, "pitch": 63, "duration": 7, "velocity": 93}, {"time": 531, "pitch": 66, "duration": 12, "velocity": 100}, {"time": 534, "pitch": 54, "duration": 3, "velocity": 86}, {"time": 537, "pitch": 63, "duration": 6, "velocity": 83}, {"time": 540, "pitch": 59, "duration": 3, "velocity": 92}, {"time": 543, "pitch": 44, "duration": 19, "velocity": 86}, {"time": 543, "pitch": 59, "duration": 7, "velocity": 79}, {"time": 543, "pitch": 64, "duration": 11, "velocity": 99}, {"time": 543, "pitch": 68, "duration": 10, "velocity": 96}, {"time": 546, "pitch": 52, "duration": 14, "velocity": 52}, {"time": 549, "pitch": 56, "duration": 7, "velocity": 82}, {"time": 552, "pitch": 59, "duration": 4, "velocity": 77}, {"time": 555, "pitch": 64, "duration": 7, "velocity": 93}, {"time": 555, "pitch": 68, "duration": 12, "velocity": 100}, {"time": 558, "pitch": 56, "duration": 2, "velocity": 74}, {"time": 561, "pitch": 59, "duration": 6, "velocity": 99}, {"time": 564, "pitch": 64, "duration": 3, "velocity": 63}, {"time": 567, "pitch": 39, "duration": 7, "velocity": 97}, {"time": 570, "pitch": 51, "duration": 4, "velocity": 89}, {"time": 573, "pitch": 63, "duration": 7, "velocity": 89}, {"time": 576, "pitch": 37, "duration": 1, "velocity": 55}, {"time": 576, "pitch": 66, "duration": 2, "velocity": 86}, {"time": 579, "pitch": 37, "duration": 6, "velocity": 95}, {"time": 582, "pitch": 49, "duration": 5, "velocity": 77}, {"time": 585, "pitch": 61, "duration": 6, "velocity": 88}, {"time": 588, "pitch": 64, "duration": 3, "velocity": 55}, {"time": 591, "pitch": 42, "duration": 17, "velocity": 85}, {"time": 594, "pitch": 49, "duration": 14, "velocity": 34}, {"time": 597, "pitch": 54, "duration": 6, "velocity": 95}, {"time": 600, "pitch": 58, "duration": 4, "velocity": 83}, {"time": 603, "pitch": 61, "duration": 7, "velocity": 122}, {"time": 606, "pitch": 54, "duration": 5, "velocity": 90}, {"time": 609, "pitch": 58, "duration": 6, "velocity": 112}, {"time": 612, "pitch": 61, "duration": 3, "velocity": 93}, {"time": 615, "pitch": 44, "duration": 16, "velocity": 93}, {"time": 618, "pitch": 51, "duration": 12, "velocity": 36}, {"time": 621, "pitch": 56, "duration": 7, "velocity": 89}, {"time": 624, "pitch": 59, "duration": 16, "velocity": 70}, {"time": 627, "pitch": 68, "duration": 11, "velocity": 102}, {"time": 633, "pitch": 63, "duration": 6, "velocity": 58}, {"time": 636, "pitch": 40, "duration": 18, "velocity": 93}, {"time": 645, "pitch": 47, "duration": 12, "velocity": 56}, {"time": 648, "pitch": 52, "duration": 5, "velocity": 69}, {"time": 651, "pitch": 64, "duration": 13, "velocity": 72}, {"time": 651, "pitch": 68, "duration": 13, "velocity": 66}, {"time": 663, "pitch": 37, "duration": 17, "velocity": 90}, {"time": 669, "pitch": 44, "duration": 11, "velocity": 40}, {"time": 675, "pitch": 49, "duration": 7, "velocity": 78}, {"time": 675, "pitch": 53, "duration": 2, "velocity": 70}, {"time": 675, "pitch": 56, "duration": 12, "velocity": 107}, {"time": 681, "pitch": 53, "duration": 6, "velocity": 73}, {"time": 687, "pitch": 42, "duration": 23, "velocity": 100}, {"time": 693, "pitch": 49, "duration": 7, "velocity": 57}, {"time": 699, "pitch": 54, "duration": 11, "velocity": 100}, {"time": 699, "pitch": 61, "duration": 11, "velocity": 107}, {"time": 699, "pitch": 66, "duration": 12, "velocity": 93}, {"time": 705, "pitch": 49, "duration": 5, "velocity": 59}, {"time": 705, "pitch": 58, "duration": 6, "velocity": 97}, {"time": 711, "pitch": 47, "duration": 15, "velocity": 93}, {"time": 717, "pitch": 54, "duration": 8, "velocity": 63}, {"time": 720, "pitch": 59, "duration": 6, "velocity": 72}, {"time": 723, "pitch": 66, "duration": 6, "velocity": 127}, {"time": 729, "pitch": 63, "duration": 1, "velocity": 88}, {"time": 735, "pitch": 40, "duration": 15, "velocity": 70}, {"time": 735, "pitch": 56, "duration": 11, "velocity": 88}, {"time": 735, "pitch": 59, "duration": 10, "velocity": 90}, {"time": 747, "pitch": 56, "duration": 12, "velocity": 97}, {"time": 747, "pitch": 59, "duration": 12, "velocity": 86}, {"time": 753, "pitch": 52, "duration": 6, "velocity": 85}, {"time": 759, "pitch": 39, "duration": 4, "velocity": 83}, {"time": 759, "pitch": 51, "duration": 3, "velocity": 74}, {"time": 759, "pitch": 63, "duration": 6, "velocity": 97}, {"time": 759, "pitch": 66, "duration": 4, "velocity": 117}, {"time": 759, "pitch": 70, "duration": 5, "velocity": 92}, {"time": 771, "pitch": 37, "duration": 6, "velocity": 81}, {"time": 771, "pitch": 49, "duration": 7, "velocity": 57}, {"time": 771, "pitch": 61, "duration": 8, "velocity": 99}, {"time": 771, "pitch": 64, "duration": 8, "velocity": 92}, {"time": 771, "pitch": 68, "duration": 7, "velocity": 96}, {"time": 783, "pitch": 42, "duration": 17, "velocity": 93}, {"time": 783, "pitch": 61, "duration": 12, "velocity": 99}, {"time": 783, "pitch": 66, "duration": 9, "velocity": 99}, {"time": 783, "pitch": 70, "duration": 9, "velocity": 86}, {"time": 789, "pitch": 49, "duration": 13, "velocity": 63}, {"time": 795, "pitch": 54, "duration": 8, "velocity": 72}, {"time": 795, "pitch": 66, "duration": 11, "velocity": 75}, {"time": 795, "pitch": 70, "duration": 11, "velocity": 70}, {"time": 801, "pitch": 61, "duration": 6, "velocity": 82}, {"time": 807, "pitch": 44, "duration": 12, "velocity": 97}, {"time": 819, "pitch": 42, "duration": 5, "velocity": 88}, {"time": 831, "pitch": 47, "duration": 19, "velocity": 93}, {"time": 831, "pitch": 59, "duration": 10, "velocity": 95}, {"time": 831, "pitch": 63, "duration": 10, "velocity": 127}, {"time": 831, "pitch": 66, "duration": 8, "velocity": 107}, {"time": 837, "pitch": 54, "duration": 11, "velocity": 47}, {"time": 843, "pitch": 59, "duration": 5, "velocity": 97}, {"time": 843, "pitch": 63, "duration": 7, "velocity": 127}, {"time": 843, "pitch": 66, "duration": 7, "velocity": 127}, {"time": 849, "pitch": 59, "duration": 2, "velocity": 100}, {"time": 855, "pitch": 37, "duration": 19, "velocity": 95}, {"time": 855, "pitch": 61, "duration": 8, "velocity": 100}, {"time": 855, "pitch": 65, "duration": 7, "velocity": 117}, {"time": 855, "pitch": 68, "duration": 7, "velocity": 107}, {"time": 861, "pitch": 49, "duration": 11, "velocity": 74}, {"time": 867, "pitch": 61, "duration": 8, "velocity": 112}, {"time": 867, "pitch": 65, "duration": 7, "velocity": 127}, {"time": 867, "pitch": 68, "duration": 8, "velocity": 122}, {"time": 873, "pitch": 49, "duration": 2, "velocity": 86}, {"time": 879, "pitch": 42, "duration": 22, "velocity": 99}, {"time": 879, "pitch": 61, "duration": 9, "velocity": 96}, {"time": 879, "pitch": 66, "duration": 6, "velocity": 102}, {"time": 879, "pitch": 70, "duration": 6, "velocity": 97}, {"time": 885, "pitch": 49, "duration": 7, "velocity": 39}, {"time": 891, "pitch": 54, "duration": 18, "velocity": 78}, {"time": 891, "pitch": 61, "duration": 5, "velocity": 86}, {"time": 891, "pitch": 66, "duration": 7, "velocity": 112}, {"time": 891, "pitch": 70, "duration": 7, "velocity": 88}, {"time": 897, "pitch": 49, "duration": 7, "velocity": 33}, {"time": 900, "pitch": 61, "duration": 9, "velocity": 1}, {"time": 903, "pitch": 42, "duration": 17, "velocity": 73}, {"time": 909, "pitch": 49, "duration": 12, "velocity": 73}, {"time": 915, "pitch": 54, "duration": 5, "velocity": 52}, {"time": 915, "pitch": 66, "duration": 7, "velocity": 122}, {"time": 915, "pitch": 70, "duration": 7, "velocity": 127}, {"time": 921, "pitch": 54, "duration": 2, "velocity": 59}, {"time": 921, "pitch": 61, "duration": 5, "velocity": 122}, {"time": 927, "pitch": 47, "duration": 17, "velocity": 117}, {"time": 933, "pitch": 54, "duration": 8, "velocity": 102}, {"time": 936, "pitch": 59, "duration": 6, "velocity": 72}, {"time": 939, "pitch": 66, "duration": 10, "velocity": 127}, {"time": 942, "pitch": 54, "duration": 2, "velocity": 95}, {"time": 945, "pitch": 63, "duration": 6, "velocity": 107}, {"time": 948, "pitch": 59, "duration": 3, "velocity": 82}, {"time": 951, "pitch": 40, "duration": 19, "velocity": 88}, {"time": 954, "pitch": 47, "duration": 16, "velocity": 66}, {"time": 957, "pitch": 52, "duration": 7, "velocity": 97}, {"time": 960, "pitch": 59, "duration": 4, "velocity": 88}, {"time": 963, "pitch": 64, "duration": 7, "velocity": 93}, {"time": 963, "pitch": 68, "duration": 12, "velocity": 112}, {"time": 966, "pitch": 52, "duration": 3, "velocity": 83}, {"time": 969, "pitch": 59, "duration": 6, "velocity": 102}, {"time": 972, "pitch": 64, "duration": 3, "velocity": 72}, {"time": 975, "pitch": 37, "duration": 16, "velocity": 100}, {"time": 978, "pitch": 49, "duration": 10, "velocity": 82}, {"time": 981, "pitch": 61, "duration": 5, "velocity": 85}, {"time": 984, "pitch": 64, "duration": 2, "velocity": 44}, {"time": 987, "pitch": 64, "duration": 11, "velocity": 82}, {"time": 987, "pitch": 68, "duration": 11, "velocity": 112}, {"time": 990, "pitch": 49, "duration": 1, "velocity": 95}, {"time": 993, "pitch": 61, "duration": 6, "velocity": 96}, {"time": 999, "pitch": 45, "duration": 17, "velocity": 96}, {"time": 1002, "pitch": 52, "duration": 10, "velocity": 73}, {"time": 1005, "pitch": 57, "duration": 4, "velocity": 102}, {"time": 1008, "pitch": 61, "duration": 10, "velocity": 117}, {"time": 1011, "pitch": 64, "duration": 12, "velocity": 97}, {"time": 1014, "pitch": 52, "duration": 1, "velocity": 93}, {"time": 1017, "pitch": 57, "duration": 6, "velocity": 100}, {"time": 1020, "pitch": 61, "duration": 3, "velocity": 92}, {"time": 1023, "pitch": 37, "duration": 22, "velocity": 99}, {"time": 1026, "pitch": 44, "duration": 21, "velocity": 35}, {"time": 1029, "pitch": 49, "duration": 7, "velocity": 89}, {"time": 1032, "pitch": 61, "duration": 2, "velocity": 58}, {"time": 1035, "pitch": 61, "duration": 1, "velocity": 70}, {"time": 1035, "pitch": 64, "duration": 6, "velocity": 99}, {"time": 1035, "pitch": 68, "duration": 19, "velocity": 117}, {"time": 1038, "pitch": 49, "duration": 20, "velocity": 77}, {"time": 1041, "pitch": 61, "duration": 16, "velocity": 88}, {"time": 1044, "pitch": 64, "duration": 9, "velocity": 39}, {"time": 1047, "pitch": 37, "duration": 16, "velocity": 86}, {"time": 1053, "pitch": 44, "duration": 10, "velocity": 32}, {"time": 1059, "pitch": 49, "duration": 5, "velocity": 83}, {"time": 1059, "pitch": 61, "duration": 4, "velocity": 127}, {"time": 1059, "pitch": 64, "duration": 7, "velocity": 117}, {"time": 1059, "pitch": 68, "duration": 7, "velocity": 127}, {"time": 1065, "pitch": 61, "duration": 3, "velocity": 100}, {"time": 1065, "pitch": 64, "duration": 1, "velocity": 31}, {"time": 1071, "pitch": 40, "duration": 22, "velocity": 89}, {"time": 1071, "pitch": 59, "duration": 7, "velocity": 96}, {"time": 1071, "pitch": 64, "duration": 8, "velocity": 96}, {"time": 1071, "pitch": 68, "duration": 6, "velocity": 92}, {"time": 1074, "pitch": 47, "duration": 21, "velocity": 69}, {"time": 1077, "pitch": 52, "duration": 7, "velocity": 90}, {"time": 1080, "pitch": 59, "duration": 2, "velocity": 68}, {"time": 1080, "pitch": 64, "duration": 1, "velocity": 36}, {"time": 1083, "pitch": 59, "duration": 1, "velocity": 68}, {"time": 1083, "pitch": 64, "duration": 7, "velocity": 107}, {"time": 1083, "pitch": 68, "duration": 7, "velocity": 107}, {"time": 1086, "pitch": 52, "duration": 3, "velocity": 72}, {"time": 1089, "pitch": 59, "duration": 5, "velocity": 86}, {"time": 1092, "pitch": 64, "duration": 2, "velocity": 25}, {"time": 1092, "pitch": 68, "duration": 1, "velocity": 25}, {"time": 1095, "pitch": 40, "duration": 15, "velocity": 89}, {"time": 1095, "pitch": 59, "duration": 10, "velocity": 97}, {"time": 1095, "pitch": 64, "duration": 8, "velocity": 96}, {"time": 1095, "pitch": 68, "duration": 8, "velocity": 112}, {"time": 1101, "pitch": 47, "duration": 10, "velocity": 41}, {"time": 1107, "pitch": 52, "duration": 2, "velocity": 100}, {"time": 1107, "pitch": 59, "duration": 4, "velocity": 100}, {"time": 1107, "pitch": 64, "duration": 5, "velocity": 122}, {"time": 1107, "pitch": 68, "duration": 5, "velocity": 112}, {"time": 1119, "pitch": 42, "duration": 21, "velocity": 62}, {"time": 1119, "pitch": 49, "duration": 22, "velocity": 70}, {"time": 1119, "pitch": 54, "duration": 15, "velocity": 112}, {"time": 1119, "pitch": 61, "duration": 11, "velocity": 112}, {"time": 1119, "pitch": 66, "duration": 11, "velocity": 117}, {"time": 1119, "pitch": 70, "duration": 11, "velocity": 112}, {"time": 1131, "pitch": 61, "duration": 10, "velocity": 86}, {"time": 1131, "pitch": 66, "duration": 9, "velocity": 72}, {"time": 1131, "pitch": 70, "duration": 8, "velocity": 56}, {"time": 1137, "pitch": 54, "duration": 4, "velocity": 55}, {"time": 1143, "pitch": 42, "duration": 23, "velocity": 60}, {"time": 1143, "pitch": 49, "duration": 23, "velocity": 53}, {"time": 1143, "pitch": 54, "duration": 23, "velocity": 50}, {"time": 1143, "pitch": 61, "duration": 24, "velocity": 48}, {"time": 1143, "pitch": 66, "duration": 24, "velocity": 55}, {"time": 1143, "pitch": 70, "duration": 24, "velocity": 46}, {"time": 1167, "pitch": 42, "duration": 41, "velocity": 76}, {"time": 1173, "pitch": 49, "duration": 35, "velocity": 37}, {"time": 1179, "pitch": 54, "duration": 32, "velocity": 47}, {"time": 1179, "pitch": 66, "duration": 36, "velocity": 71}, {"time": 1185, "pitch": 61, "duration": 20, "velocity": 47}, {"time": 1191, "pitch": 70, "duration": 7, "velocity": 58}, {"time": 1203, "pitch": 70, "duration": 11, "velocity": 32}, {"time": 1209, "pitch": 61, "duration": 7, "velocity": 45}, {"time": 1215, "pitch": 44, "duration": 37, "velocity": 76}, {"time": 1221, "pitch": 56, "duration": 29, "velocity": 86}, {"time": 1227, "pitch": 59, "duration": 27, "velocity": 65}, {"time": 1233, "pitch": 63, "duration": 22, "velocity": 58}, {"time": 1239, "pitch": 68, "duration": 14, "velocity": 52}, {"time": 1263, "pitch": 39, "duration": 20, "velocity": 92}, {"time": 1269, "pitch": 46, "duration": 11, "velocity": 26}, {"time": 1275, "pitch": 51, "duration": 6, "velocity": 41}, {"time": 1275, "pitch": 63, "duration": 5, "velocity": 28}, {"time": 1275, "pitch": 66, "duration": 7, "velocity": 53}, {"time": 1287, "pitch": 40, "duration": 15, "velocity": 69}, {"time": 1287, "pitch": 59, "duration": 15, "velocity": 58}, {"time": 1287, "pitch": 64, "duration": 26, "velocity": 61}, {"time": 1287, "pitch": 68, "duration": 28, "velocity": 61}, {"time": 1293, "pitch": 47, "duration": 10, "velocity": 43}, {"time": 1299, "pitch": 52, "duration": 6, "velocity": 64}, {"time": 1305, "pitch": 59, "duration": 11, "velocity": 47}, {"time": 1311, "pitch": 44, "duration": 18, "velocity": 86}, {"time": 1317, "pitch": 51, "duration": 10, "velocity": 21}, {"time": 1323, "pitch": 56, "duration": 6, "velocity": 56}, {"time": 1329, "pitch": 63, "duration": 6, "velocity": 57}, {"time": 1335, "pitch": 42, "duration": 19, "velocity": 69}, {"time": 1341, "pitch": 54, "duration": 18, "velocity": 78}, {"time": 1347, "pitch": 58, "duration": 3, "velocity": 68}, {"time": 1347, "pitch": 61, "duration": 13, "velocity": 96}, {"time": 1353, "pitch": 58, "duration": 5, "velocity": 73}, {"time": 1359, "pitch": 44, "duration": 18, "velocity": 95}, {"time": 1365, "pitch": 56, "duration": 11, "velocity": 59}, {"time": 1371, "pitch": 59, "duration": 18, "velocity": 67}, {"time": 1371, "pitch": 63, "duration": 12, "velocity": 66}, {"time": 1383, "pitch": 40, "duration": 16, "velocity": 75}, {"time": 1389, "pitch": 47, "duration": 11, "velocity": 47}, {"time": 1392, "pitch": 52, "duration": 4, "velocity": 37}, {"time": 1392, "pitch": 64, "duration": 13, "velocity": 63}, {"time": 1392, "pitch": 68, "duration": 13, "velocity": 58}, {"time": 1404, "pitch": 39, "duration": 18, "velocity": 69}, {"time": 1413, "pitch": 46, "duration": 12, "velocity": 29}, {"time": 1419, "pitch": 51, "duration": 8, "velocity": 46}, {"time": 1419, "pitch": 58, "duration": 13, "velocity": 56}, {"time": 1419, "pitch": 63, "duration": 13, "velocity": 66}, {"time": 1419, "pitch": 66, "duration": 13, "velocity": 67}, {"time": 1431, "pitch": 44, "duration": 18, "velocity": 60}, {"time": 1437, "pitch": 51, "duration": 12, "velocity": 59}, {"time": 1443, "pitch": 56, "duration": 5, "velocity": 46}, {"time": 1443, "pitch": 59, "duration": 10, "velocity": 66}, {"time": 1443, "pitch": 63, "duration": 10, "velocity": 85}, {"time": 1455, "pitch": 40, "duration": 16, "velocity": 72}, {"time": 1455, "pitch": 59, "duration": 12, "velocity": 57}, {"time": 1455, "pitch": 64, "duration": 24, "velocity": 65}, {"time": 1455, "pitch": 68, "duration": 24, "velocity": 60}, {"time": 1461, "pitch": 47, "duration": 11, "velocity": 39}, {"time": 1467, "pitch": 52, "duration": 4, "velocity": 71}, {"time": 1473, "pitch": 59, "duration": 7, "velocity": 58}, {"time": 1479, "pitch": 37, "duration": 17, "velocity": 71}, {"time": 1485, "pitch": 44, "duration": 11, "velocity": 35}, {"time": 1491, "pitch": 49, "duration": 6, "velocity": 70}, {"time": 1491, "pitch": 56, "duration": 1, "velocity": 46}, {"time": 1491, "pitch": 61, "duration": 12, "velocity": 58}, {"time": 1491, "pitch": 64, "duration": 12, "velocity": 72}, {"time": 1497, "pitch": 56, "duration": 5, "velocity": 78}, {"time": 1503, "pitch": 44, "duration": 19, "velocity": 92}, {"time": 1509, "pitch": 51, "duration": 11, "velocity": 63}, {"time": 1515, "pitch": 56, "duration": 5, "velocity": 52}, {"time": 1515, "pitch": 59, "duration": 8, "velocity": 74}, {"time": 1515, "pitch": 63, "duration": 7, "velocity": 79}, {"time": 1527, "pitch": 42, "duration": 19, "velocity": 97}, {"time": 1527, "pitch": 54, "duration": 10, "velocity": 90}, {"time": 1527, "pitch": 58, "duration": 10, "velocity": 89}, {"time": 1527, "pitch": 61, "duration": 10, "velocity": 85}, {"time": 1533, "pitch": 49, "duration": 7, "velocity": 48}, {"time": 1539, "pitch": 54, "duration": 4, "velocity": 107}, {"time": 1539, "pitch": 58, "duration": 5, "velocity": 127}, {"time": 1539, "pitch": 61, "duration": 5, "velocity": 112}, {"time": 1545, "pitch": 49, "duration": 3, "velocity": 68}, {"time": 1551, "pitch": 47, "duration": 17, "velocity": 82}, {"time": 1554, "pitch": 54, "duration": 10, "velocity": 81}, {"time": 1557, "pitch": 59, "duration": 4, "velocity": 93}, {"time": 1560, "pitch": 63, "duration": 7, "velocity": 93}, {"time": 1563, "pitch": 66, "duration": 12, "velocity": 100}, {"time": 1566, "pitch": 54, "duration": 3, "velocity": 86}, {"time": 1569, "pitch": 63, "duration": 6, "velocity": 83}, {"time": 1572, "pitch": 59, "duration": 3, "velocity": 92}, {"time": 1575, "pitch": 44, "duration": 19, "velocity": 86}, {"time": 1575, "pitch": 59, "duration": 7, "velocity": 79}, {"time": 1575, "pitch": 64, "duration": 11, "velocity": 99}, {"time": 1575, "pitch": 68, "duration": 10, "velocity": 96}, {"time": 1578, "pitch": 52, "duration": 14, "velocity": 52}, {"time": 1581, "pitch": 56, "duration": 7, "velocity": 82}, {"time": 1584, "pitch": 59, "duration": 4, "velocity": 77}, {"time": 1587, "pitch": 64, "duration": 7, "velocity": 93}, {"time": 1587, "pitch": 68, "duration": 12, "velocity": 100}, {"time": 1590, "pitch": 56, "duration": 2, "velocity": 74}, {"time": 1593, "pitch": 59, "duration": 6, "velocity": 99}, {"time": 1596, "pitch": 64, "duration": 3, "velocity": 63}, {"time": 1599, "pitch": 39, "duration": 7, "velocity": 97}, {"time": 1602, "pitch": 51, "duration": 4, "velocity": 89}, {"time": 1605, "pitch": 63, "duration": 7, "velocity": 89}, {"time": 1608, "pitch": 37, "duration": 1, "velocity": 55}, {"time": 1608, "pitch": 66, "duration": 2, "velocity": 86}, {"time": 1611, "pitch": 37, "duration": 6, "velocity": 95}, {"time": 1614, "pitch": 49, "duration": 5, "velocity": 77}, {"time": 1617, "pitch": 61, "duration": 6, "velocity": 88}, {"time": 1620, "pitch": 64, "duration": 3, "velocity": 55}, {"time": 1623, "pitch": 42, "duration": 17, "velocity": 85}, {"time": 1626, "pitch": 49, "duration": 14, "velocity": 34}, {"time": 1629, "pitch": 54, "duration": 6, "velocity": 95}, {"time": 1632, "pitch": 58, "duration": 4, "velocity": 83}, {"time": 1635, "pitch": 61, "duration": 7, "velocity": 122}, {"time": 1638, "pitch": 54, "duration": 5, "velocity": 90}, {"time": 1641, "pitch": 58, "duration": 6, "velocity": 112}, {"time": 1644, "pitch": 61, "duration": 3, "velocity": 93}, {"time": 1647, "pitch": 44, "duration": 16, "velocity": 93}, {"time": 1650, "pitch": 51, "duration": 12, "velocity": 36}, {"time": 1653, "pitch": 56, "duration": 7, "velocity": 89}, {"time": 1656, "pitch": 59, "duration": 16, "velocity": 70}, {"time": 1659, "pitch": 68, "duration": 11, "velocity": 102}, {"time": 1665, "pitch": 63, "duration": 6, "velocity": 58}, {"time": 1668, "pitch": 40, "duration": 18, "velocity": 93}, {"time": 1677, "pitch": 47, "duration": 12, "velocity": 56}, {"time": 1680, "pitch": 52, "duration": 5, "velocity": 69}, {"time": 1683, "pitch": 64, "duration": 13, "velocity": 72}, {"time": 1683, "pitch": 68, "duration": 13, "velocity": 66}, {"time": 1695, "pitch": 37, "duration": 17, "velocity": 90}, {"time": 1701, "pitch": 44, "duration": 11, "velocity": 40}, {"time": 1707, "pitch": 49, "duration": 7, "velocity": 78}, {"time": 1707, "pitch": 53, "duration": 2, "velocity": 70}, {"time": 1707, "pitch": 56, "duration": 12, "velocity": 107}, {"time": 1713, "pitch": 53, "duration": 6, "velocity": 73}, {"time": 1719, "pitch": 42, "duration": 23, "velocity": 100}, {"time": 1725, "pitch": 49, "duration": 7, "velocity": 57}, {"time": 1731, "pitch": 54, "duration": 11, "velocity": 100}, {"time": 1731, "pitch": 61, "duration": 11, "velocity": 107}, {"time": 1731, "pitch": 66, "duration": 12, "velocity": 93}, {"time": 1737, "pitch": 49, "duration": 5, "velocity": 59}, {"time": 1737, "pitch": 58, "duration": 6, "velocity": 97}, {"time": 1743, "pitch": 47, "duration": 15, "velocity": 93}, {"time": 1749, "pitch": 54, "duration": 8, "velocity": 63}, {"time": 1752, "pitch": 59, "duration": 6, "velocity": 72}, {"time": 1755, "pitch": 66, "duration": 6, "velocity": 127}, {"time": 1761, "pitch": 63, "duration": 1, "velocity": 88}, {"time": 1767, "pitch": 40, "duration": 15, "velocity": 70}, {"time": 1767, "pitch": 56, "duration": 11, "velocity": 88}, {"time": 1767, "pitch": 59, "duration": 10, "velocity": 90}, {"time": 1779, "pitch": 56, "duration": 12, "velocity": 97}, {"time": 1779, "pitch": 59, "duration": 12, "velocity": 86}, {"time": 1785, "pitch": 52, "duration": 6, "velocity": 85}, {"time": 1791, "pitch": 39, "duration": 4, "velocity": 83}, {"time": 1791, "pitch": 51, "duration": 3, "velocity": 74}, {"time": 1791, "pitch": 63, "duration": 6, "velocity": 97}, {"time": 1791, "pitch": 66, "duration": 4, "velocity": 117}, {"time": 1791, "pitch": 70, "duration": 5, "velocity": 92}, {"time": 1803, "pitch": 37, "duration": 6, "velocity": 81}, {"time": 1803, "pitch": 49, "duration": 7, "velocity": 57}, {"time": 1803, "pitch": 61, "duration": 8, "velocity": 99}, {"time": 1803, "pitch": 64, "duration": 8, "velocity": 92}, {"time": 1803, "pitch": 68, "duration": 7, "velocity": 96}, {"time": 1815, "pitch": 42, "duration": 17, "velocity": 93}, {"time": 1815, "pitch": 61, "duration": 12, "velocity": 99}, {"time": 1815, "pitch": 66, "duration": 9, "velocity": 99}, {"time": 1815, "pitch": 70, "duration": 9, "velocity": 86}, {"time": 1821, "pitch": 49, "duration": 13, "velocity": 63}, {"time": 1827, "pitch": 54, "duration": 8, "velocity": 72}, {"time": 1827, "pitch": 66, "duration": 11, "velocity": 75}, {"time": 1827, "pitch": 70, "duration": 11, "velocity": 70}, {"time": 1833, "pitch": 61, "duration": 6, "velocity": 82}, {"time": 1839, "pitch": 44, "duration": 12, "velocity": 97}, {"time": 1851, "pitch": 42, "duration": 5, "velocity": 88}, {"time": 1863, "pitch": 47, "duration": 19, "velocity": 93}, {"time": 1863, "pitch": 59, "duration": 10, "velocity": 95}, {"time": 1863, "pitch": 63, "duration": 10, "velocity": 127}, {"time": 1863, "pitch": 66, "duration": 8, "velocity": 107}, {"time": 1869, "pitch": 54, "duration": 11, "velocity": 47}, {"time": 1875, "pitch": 59, "duration": 5, "velocity": 97}, {"time": 1875, "pitch": 63, "duration": 7, "velocity": 127}, {"time": 1875, "pitch": 66, "duration": 7, "velocity": 127}, {"time": 1881, "pitch": 59, "duration": 2, "velocity": 100}, {"time": 1887, "pitch": 37, "duration": 19, "velocity": 95}, {"time": 1887, "pitch": 61, "duration": 8, "velocity": 100}, {"time": 1887, "pitch": 65, "duration": 7, "velocity": 117}, {"time": 1887, "pitch": 68, "duration": 7, "velocity": 107}, {"time": 1893, "pitch": 49, "duration": 11, "velocity": 74}, {"time": 1899, "pitch": 61, "duration": 8, "velocity": 112}, {"time": 1899, "pitch": 65, "duration": 7, "velocity": 127}, {"time": 1899, "pitch": 68, "duration": 8, "velocity": 122}, {"time": 1905, "pitch": 49, "duration": 2, "velocity": 86}, {"time": 1911, "pitch": 42, "duration": 22, "velocity": 99}, {"time": 1911, "pitch": 61, "duration": 9, "velocity": 96}, {"time": 1911, "pitch": 66, "duration": 6, "velocity": 102}, {"time": 1911, "pitch": 70, "duration": 6, "velocity": 97}, {"time": 1917, "pitch": 49, "duration": 7, "velocity": 39}, {"time": 1923, "pitch": 54, "duration": 12, "velocity": 78}, {"time": 1923, "pitch": 61, "duration": 5, "velocity": 86}, {"time": 1923, "pitch": 66, "duration": 7, "velocity": 112}, {"time": 1923, "pitch": 70, "duration": 7, "velocity": 88}, {"time": 1929, "pitch": 49, "duration": 6, "velocity": 33}, {"time": 1932, "pitch": 61, "duration": 3, "velocity": 1}, {"time": 1935, "pitch": 47, "duration": 17, "velocity": 82}, {"time": 1938, "pitch": 54, "duration": 10, "velocity": 81}, {"time": 1941, "pitch": 59, "duration": 4, "velocity": 93}, {"time": 1944, "pitch": 63, "duration": 7, "velocity": 93}, {"time": 1947, "pitch": 66, "duration": 12, "velocity": 100}, {"time": 1950, "pitch": 54, "duration": 3, "velocity": 86}, {"time": 1953, "pitch": 63, "duration": 6, "velocity": 83}, {"time": 1956, "pitch": 59, "duration": 3, "velocity": 92}, {"time": 1959, "pitch": 44, "duration": 19, "velocity": 86}, {"time": 1959, "pitch": 59, "duration": 7, "velocity": 79}, {"time": 1959, "pitch": 64, "duration": 11, "velocity": 99}, {"time": 1959, "pitch": 68, "duration": 10, "velocity": 96}, {"time": 1962, "pitch": 52, "duration": 14, "velocity": 52}, {"time": 1965, "pitch": 56, "duration": 7, "velocity": 82}, {"time": 1968, "pitch": 59, "duration": 4, "velocity": 77}, {"time": 1971, "pitch": 64, "duration": 7, "velocity": 93}, {"time": 1971, "pitch": 68, "duration": 12, "velocity": 100}, {"time": 1974, "pitch": 56, "duration": 2, "velocity": 74}, {"time": 1977, "pitch": 59, "duration": 6, "velocity": 99}, {"time": 1980, "pitch": 64, "duration": 3, "velocity": 63}, {"time": 1983, "pitch": 39, "duration": 7, "velocity": 97}, {"time": 1986, "pitch": 51, "duration": 4, "velocity": 89}, {"time": 1989, "pitch": 63, "duration": 7, "velocity": 89}, {"time": 1992, "pitch": 37, "duration": 1, "velocity": 55}, {"time": 1992, "pitch": 66, "duration": 2, "velocity": 86}, {"time": 1995, "pitch": 37, "duration": 6, "velocity": 95}, {"time": 1998, "pitch": 49, "duration": 5, "velocity": 77}, {"time": 2001, "pitch": 61, "duration": 6, "velocity": 88}, {"time": 2004, "pitch": 64, "duration": 3, "velocity": 55}, {"time": 2007, "pitch": 42, "duration": 17, "velocity": 85}, {"time": 2010, "pitch": 49, "duration": 14, "velocity": 34}, {"time": 2013, "pitch": 54, "duration": 6, "velocity": 95}, {"time": 2016, "pitch": 58, "duration": 4, "velocity": 83}, {"time": 2019, "pitch": 61, "duration": 7, "velocity": 122}, {"time": 2022, "pitch": 54, "duration": 5, "velocity": 90}, {"time": 2025, "pitch": 58, "duration": 6, "velocity": 112}, {"time": 2028, "pitch": 61, "duration": 3, "velocity": 93}, {"time": 2031, "pitch": 44, "duration": 16, "velocity": 93}, {"time": 2034, "pitch": 51, "duration": 12, "velocity": 36}, {"time": 2037, "pitch": 56, "duration": 7, "velocity": 89}, {"time": 2040, "pitch": 59, "duration": 16, "velocity": 70}, {"time": 2043, "pitch": 68, "duration": 11, "velocity": 102}, {"time": 2049, "pitch": 63, "duration": 6, "velocity": 58}, {"time": 2052, "pitch": 40, "duration": 18, "velocity": 93}, {"time": 2061, "pitch": 47, "duration": 12, "velocity": 56}, {"time": 2064, "pitch": 52, "duration": 5, "velocity": 69}, {"time": 2067, "pitch": 64, "duration": 13, "velocity": 72}, {"time": 2067, "pitch": 68, "duration": 13, "velocity": 66}, {"time": 2079, "pitch": 37, "duration": 17, "velocity": 90}, {"time": 2085, "pitch": 44, "duration": 11, "velocity": 40}, {"time": 2091, "pitch": 49, "duration": 7, "velocity": 78}, {"time": 2091, "pitch": 53, "duration": 2, "velocity": 70}, {"time": 2091, "pitch": 56, "duration": 12, "velocity": 107}, {"time": 2097, "pitch": 53, "duration": 6, "velocity": 73}, {"time": 2103, "pitch": 42, "duration": 23, "velocity": 100}, {"time": 2109, "pitch": 49, "duration": 7, "velocity": 57}, {"time": 2115, "pitch": 54, "duration": 11, "velocity": 100}, {"time": 2115, "pitch": 61, "duration": 11, "velocity": 107}, {"time": 2115, "pitch": 66, "duration": 12, "velocity": 93}, {"time": 2121, "pitch": 49, "duration": 5, "velocity": 59}, {"time": 2121, "pitch": 58, "duration": 6, "velocity": 97}, {"time": 2127, "pitch": 47, "duration": 15, "velocity": 93}, {"time": 2133, "pitch": 54, "duration": 8, "velocity": 63}, {"time": 2136, "pitch": 59, "duration": 6, "velocity": 72}, {"time": 2139, "pitch": 66, "duration": 6, "velocity": 127}, {"time": 2145, "pitch": 63, "duration": 1, "velocity": 88}, {"time": 2151, "pitch": 40, "duration": 15, "velocity": 70}, {"time": 2151, "pitch": 56, "duration": 11, "velocity": 88}, {"time": 2151, "pitch": 59, "duration": 10, "velocity": 90}, {"time": 2163, "pitch": 56, "duration": 12, "velocity": 97}, {"time": 2163, "pitch": 59, "duration": 12, "velocity": 86}, {"time": 2169, "pitch": 52, "duration": 6, "velocity": 85}, {"time": 2175, "pitch": 39, "duration": 4, "velocity": 83}, {"time": 2175, "pitch": 51, "duration": 3, "velocity": 74}, {"time": 2175, "pitch": 63, "duration": 6, "velocity": 97}, {"time": 2175, "pitch": 66, "duration": 4, "velocity": 117}, {"time": 2175, "pitch": 70, "duration": 5, "velocity": 92}, {"time": 2187, "pitch": 37, "duration": 6, "velocity": 81}, {"time": 2187, "pitch": 49, "duration": 7, "velocity": 57}, {"time": 2187, "pitch": 61, "duration": 8, "velocity": 99}, {"time": 2187, "pitch": 64, "duration": 8, "velocity": 92}, {"time": 2187, "pitch": 68, "duration": 7, "velocity": 96}, {"time": 2199, "pitch": 42, "duration": 17, "velocity": 93}, {"time": 2199, "pitch": 61, "duration": 12, "velocity": 99}, {"time": 2199, "pitch": 66, "duration": 9, "velocity": 99}, {"time": 2199, "pitch": 70, "duration": 9, "velocity": 86}, {"time": 2205, "pitch": 49, "duration": 13, "velocity": 63}, {"time": 2211, "pitch": 54, "duration": 8, "velocity": 72}, {"time": 2211, "pitch": 66, "duration": 11, "velocity": 75}, {"time": 2211, "pitch": 70, "duration": 11, "velocity": 70}, {"time": 2217, "pitch": 61, "duration": 6, "velocity": 82}, {"time": 2223, "pitch": 44, "duration": 12, "velocity": 97}, {"time": 2235, "pitch": 42, "duration": 5, "velocity": 88}, {"time": 2247, "pitch": 47, "duration": 19, "velocity": 93}, {"time": 2247, "pitch": 59, "duration": 10, "velocity": 95}, {"time": 2247, "pitch": 63, "duration": 10, "velocity": 127}, {"time": 2247, "pitch": 66, "duration": 8, "velocity": 107}, {"time": 2253, "pitch": 54, "duration": 11, "velocity": 47}, {"time": 2259, "pitch": 59, "duration": 5, "velocity": 97}, {"time": 2259, "pitch": 63, "duration": 7, "velocity": 127}, {"time": 2259, "pitch": 66, "duration": 7, "velocity": 127}, {"time": 2265, "pitch": 59, "duration": 2, "velocity": 100}, {"time": 2271, "pitch": 37, "duration": 19, "velocity": 95}, {"time": 2271, "pitch": 61, "duration": 8, "velocity": 100}, {"time": 2271, "pitch": 65, "duration": 7, "velocity": 117}, {"time": 2271, "pitch": 68, "duration": 7, "velocity": 107}, {"time": 2277, "pitch": 49, "duration": 11, "velocity": 74}, {"time": 2283, "pitch": 61, "duration": 8, "velocity": 112}, {"time": 2283, "pitch": 65, "duration": 7, "velocity": 127}, {"time": 2283, "pitch": 68, "duration": 8, "velocity": 122}, {"time": 2289, "pitch": 49, "duration": 2, "velocity": 86}, {"time": 2295, "pitch": 42, "duration": 22, "velocity": 99}, {"time": 2295, "pitch": 61, "duration": 9, "velocity": 96}, {"time": 2295, "pitch": 66, "duration": 6, "velocity": 102}, {"time": 2295, "pitch": 70, "duration": 6, "velocity": 97}, {"time": 2301, "pitch": 49, "duration": 7, "velocity": 39}, {"time": 2307, "pitch": 54, "duration": 12, "velocity": 78}, {"time": 2307, "pitch": 61, "duration": 5, "velocity": 86}, {"time": 2307, "pitch": 66, "duration": 7, "velocity": 112}, {"time": 2307, "pitch": 70, "duration": 7, "velocity": 88}, {"time": 2313, "pitch": 49, "duration": 6, "velocity": 33}, {"time": 2316, "pitch": 61, "duration": 3, "velocity": 1}, {"time": 2319, "pitch": 44, "duration": 16, "velocity": 95}, {"time": 2325, "pitch": 51, "duration": 10, "velocity": 63}, {"time": 2331, "pitch": 56, "duration": 3, "velocity": 34}, {"time": 2331, "pitch": 71, "duration": 10, "velocity": 63}, {"time": 2331, "pitch": 75, "duration": 10, "velocity": 63}, {"time": 2337, "pitch": 68, "duration": 5, "velocity": 53}, {"time": 2343, "pitch": 40, "duration": 26, "velocity": 83}, {"time": 2349, "pitch": 47, "duration": 19, "velocity": 49}, {"time": 2355, "pitch": 52, "duration": 7, "velocity": 58}, {"time": 2355, "pitch": 68, "duration": 13, "velocity": 64}, {"time": 2355, "pitch": 71, "duration": 14, "velocity": 63}, {"time": 2367, "pitch": 37, "duration": 4, "velocity": 86}, {"time": 2367, "pitch": 49, "duration": 4, "velocity": 89}, {"time": 2367, "pitch": 61, "duration": 5, "velocity": 96}, {"time": 2367, "pitch": 65, "duration": 1, "velocity": 88}, {"time": 2367, "pitch": 68, "duration": 1, "velocity": 92}, {"time": 2370, "pitch": 65, "duration": 1, "velocity": 21}, {"time": 2373, "pitch": 37, "duration": 10, "velocity": 78}, {"time": 2373, "pitch": 49, "duration": 9, "velocity": 77}, {"time": 2373, "pitch": 61, "duration": 10, "velocity": 93}, {"time": 2373, "pitch": 65, "duration": 10, "velocity": 92}, {"time": 2373, "pitch": 68, "duration": 10, "velocity": 93}, {"time": 2385, "pitch": 37, "duration": 6, "velocity": 78}, {"time": 2385, "pitch": 49, "duration": 6, "velocity": 76}, {"time": 2385, "pitch": 61, "duration": 6, "velocity": 97}, {"time": 2385, "pitch": 65, "duration": 6, "velocity": 102}, {"time": 2385, "pitch": 68, "duration": 6, "velocity": 102}, {"time": 2391, "pitch": 37, "duration": 1, "velocity": 97}, {"time": 2391, "pitch": 49, "duration": 11, "velocity": 95}, {"time": 2391, "pitch": 61, "duration": 1, "velocity": 107}, {"time": 2391, "pitch": 65, "duration": 1, "velocity": 99}, {"time": 2391, "pitch": 68, "duration": 1, "velocity": 107}, {"time": 2403, "pitch": 44, "duration": 58, "velocity": 78}, {"time": 2403, "pitch": 51, "duration": 57, "velocity": 99}, {"time": 2403, "pitch": 56, "duration": 56, "velocity": 97}, {"time": 2403, "pitch": 63, "duration": 58, "velocity": 99}, {"time": 2403, "pitch": 68, "duration": 58, "velocity": 112}, {"time": 2403, "pitch": 71, "duration": 58, "velocity": 90}, {"time": 2463, "pitch": 42, "duration": 71, "velocity": 96}, {"time": 2463, "pitch": 54, "duration": 71, "velocity": 92}, {"time": 2463, "pitch": 61, "duration": 71, "velocity": 97}, {"time": 2463, "pitch": 66, "duration": 71, "velocity": 117}, {"time": 2463, "pitch": 70, "duration": 71, "velocity": 97}, {"time": 2535, "pitch": 42, "duration": 4, "velocity": 93}, {"time": 2535, "pitch": 54, "duration": 3, "velocity": 95}, {"time": 2535, "pitch": 61, "duration": 3, "velocity": 93}, {"time": 2535, "pitch": 66, "duration": 3, "velocity": 69}, {"time": 2535, "pitch": 70, "duration": 4, "velocity": 67}], "annotations": [{"time": 15, "annotation": {"number": 64, "value": 127}, "group": "control_change"}, {"time": 35, "annotation": {"number": 64, "value": 0}, "group": "control_change"}, {"time": 45, "annotation": {"number": 64, "value": 127}, "group": "control_change"}, {"time": 73, "annotation": {"number": 64, "value": 0}, "group": "control_change"}, {"time": 74, "annotation": {"number": 64, "value": 127}, "group": "control_change"}, {"time": 85, "annotation": {"number": 64, "value": 0}, "group": "control_change"}, {"time": 89, "annotation": {"number": 64, "value": 127}, "group": "control_change"}, {"time": 132, "annotation": {"number": 64, "value": 0}, "group": "control_change"}, {"time": 135, "annotation": {"number": 64, "value": 127}, "group": "control_change"}, {"time": 180, "annotation": {"number": 64, "value": 0}, "group": "control_change"}, {"time": 182, "annotation": {"number": 64, "value": 127}, "group": "control_change"}, {"time": 228, "annotation": {"number": 64, "value": 0}, "group": "control_change"}, {"time": 231, "annotation": {"number": 64, "value": 127}, "group": "control_change"}, {"time": 253, "annotation": {"number": 64, "value": 0}, "group": "control_change"}, {"time": 255, "annotation": {"number": 64, "value": 127}, "group": "control_change"}, {"time": 276, "annotation": {"number": 64, "value": 0}, "group": "control_change"}, {"time": 278, "annotation": {"number": 64, "value": 127}, "group": "control_change"}, {"time": 300, "annotation": {"number": 64, "value": 0}, "group": "control_change"}, {"time": 302, "annotation": {"number": 64, "value": 127}, "group": "control_change"}, {"time": 324, "annotation": {"number": 64, "value": 0}, "group": "control_change"}, {"time": 326, "annotation": {"number": 64, "value": 127}, "group": "control_change"}, {"time": 348, "annotation": {"number": 64, "value": 0}, "group": "control_change"}, {"time": 350, "annotation": {"number": 64, "value": 127}, "group": "control_change"}, {"time": 372, "annotation": {"number": 64, "value": 0}, "group": "control_change"}, {"time": 374, "annotation": {"number": 64, "value": 127}, "group": "control_change"}, {"time": 396, "annotation": {"number": 64, "value": 0}, "group": "control_change"}, {"time": 398, "annotation": {"number": 64, "value": 127}, "group": "control_change"}, {"time": 421, "annotation": {"number": 64, "value": 0}, "group": "control_change"}, {"time": 423, "annotation": {"number": 64, "value": 127}, "group": "control_change"}, {"time": 445, "annotation": {"number": 64, "value": 0}, "group": "control_change"}, {"time": 447, "annotation": {"number": 64, "value": 127}, "group": "control_change"}, {"time": 469, "annotation": {"number": 64, "value": 0}, "group": "control_change"}, {"time": 471, "annotation": {"number": 64, "value": 127}, "group": "control_change"}, {"time": 493, "annotation": {"number": 64, "value": 0}, "group": "control_change"}, {"time": 495, "annotation": {"number": 64, "value": 127}, "group": "control_change"}, {"time": 517, "annotation": {"number": 64, "value": 0}, "group": "control_change"}, {"time": 520, "annotation": {"number": 64, "value": 127}, "group": "control_change"}, {"time": 540, "annotation": {"number": 64, "value": 0}, "group": "control_change"}, {"time": 542, "annotation": {"number": 64, "value": 127}, "group": "control_change"}, {"time": 543, "annotation": {"number": 64, "value": 127}, "group": "control_change"}, {"time": 564, "annotation": {"number": 64, "value": 0}, "group": "control_change"}, {"time": 567, "annotation": {"number": 64, "value": 127}, "group": "control_change"}, {"time": 577, "annotation": {"number": 64, "value": 0}, "group": "control_change"}, {"time": 579, "annotation": {"number": 64, "value": 127}, "group": "control_change"}, {"time": 589, "annotation": {"number": 64, "value": 0}, "group": "control_change"}, {"time": 591, "annotation": {"number": 64, "value": 127}, "group": "control_change"}, {"time": 613, "annotation": {"number": 64, "value": 0}, "group": "control_change"}, {"time": 615, "annotation": {"number": 64, "value": 127}, "group": "control_change"}, {"time": 634, "annotation": {"number": 64, "value": 0}, "group": "control_change"}, {"time": 638, "annotation": {"number": 64, "value": 127}, "group": "control_change"}, {"time": 660, "annotation": {"number": 64, "value": 0}, "group": "control_change"}, {"time": 662, "annotation": {"number": 64, "value": 127}, "group": "control_change"}, {"time": 684, "annotation": {"number": 64, "value": 0}, "group": "control_change"}, {"time": 687, "annotation": {"number": 64, "value": 127}, "group": "control_change"}, {"time": 706, "annotation": {"number": 64, "value": 0}, "group": "control_change"}, {"time": 711, "annotation": {"number": 64, "value": 127}, "group": "control_change"}, {"time": 732, "annotation": {"number": 64, "value": 0}, "group": "control_change"}, {"time": 734, "annotation": {"number": 64, "value": 127}, "group": "control_change"}, {"time": 756, "annotation": {"number": 64, "value": 0}, "group": "control_change"}, {"time": 758, "annotation": {"number": 64, "value": 127}, "group": "control_change"}, {"time": 759, "annotation": {"number": 64, "value": 127}, "group": "control_change"}, {"time": 768, "annotation": {"number": 64, "value": 0}, "group": "control_change"}, {"time": 773, "annotation": {"number": 64, "value": 127}, "group": "control_change"}, {"time": 779, "annotation": {"number": 64, "value": 0}, "group": "control_change"}, {"time": 784, "annotation": {"number": 64, "value": 127}, "group": "control_change"}, {"time": 801, "annotation": {"number": 64, "value": 0}, "group": "control_change"}, {"time": 807, "annotation": {"number": 64, "value": 127}, "group": "control_change"}, {"time": 816, "annotation": {"number": 64, "value": 0}, "group": "control_change"}, {"time": 819, "annotation": {"number": 64, "value": 127}, "group": "control_change"}, {"time": 828, "annotation": {"number": 64, "value": 0}, "group": "control_change"}, {"time": 831, "annotation": {"number": 64, "value": 127}, "group": "control_change"}, {"time": 853, "annotation": {"number": 64, "value": 0}, "group": "control_change"}, {"time": 855, "annotation": {"number": 64, "value": 127}, "group": "control_change"}, {"time": 876, "annotation": {"number": 64, "value": 0}, "group": "control_change"}, {"time": 880, "annotation": {"number": 64, "value": 127}, "group": "control_change"}, {"time": 901, "annotation": {"number": 64, "value": 0}, "group": "control_change"}, {"time": 904, "annotation": {"number": 64, "value": 127}, "group": "control_change"}, {"time": 924, "annotation": {"number": 64, "value": 0}, "group": "control_change"}, {"time": 927, "annotation": {"number": 64, "value": 127}, "group": "control_change"}, {"time": 947, "annotation": {"number": 64, "value": 0}, "group": "control_change"}, {"time": 950, "annotation": {"number": 64, "value": 127}, "group": "control_change"}, {"time": 951, "annotation": {"number": 64, "value": 127}, "group": "control_change"}, {"time": 972, "annotation": {"number": 64, "value": 0}, "group": "control_change"}, {"time": 975, "annotation": {"number": 64, "value": 127}, "group": "control_change"}, {"time": 996, "annotation": {"number": 64, "value": 0}, "group": "control_change"}, {"time": 999, "annotation": {"number": 64, "value": 127}, "group": "control_change"}, {"time": 1020, "annotation": {"number": 64, "value": 0}, "group": "control_change"}, {"time": 1023, "annotation": {"number": 64, "value": 127}, "group": "control_change"}, {"time": 1045, "annotation": {"number": 64, "value": 0}, "group": "control_change"}, {"time": 1047, "annotation": {"number": 64, "value": 127}, "group": "control_change"}, {"time": 1068, "annotation": {"number": 64, "value": 0}, "group": "control_change"}, {"time": 1071, "annotation": {"number": 64, "value": 127}, "group": "control_change"}, {"time": 1093, "annotation": {"number": 64, "value": 0}, "group": "control_change"}, {"time": 1095, "annotation": {"number": 64, "value": 127}, "group": "control_change"}, {"time": 1117, "annotation": {"number": 64, "value": 0}, "group": "control_change"}, {"time": 1120, "annotation": {"number": 64, "value": 127}, "group": "control_change"}, {"time": 1164, "annotation": {"number": 64, "value": 0}, "group": "control_change"}, {"time": 1167, "annotation": {"number": 64, "value": 127}, "group": "control_change"}, {"time": 1212, "annotation": {"number": 64, "value": 0}, "group": "control_change"}, {"time": 1214, "annotation": {"number": 64, "value": 127}, "group": "control_change"}, {"time": 1260, "annotation": {"number": 64, "value": 0}, "group": "control_change"}, {"time": 1263, "annotation": {"number": 64, "value": 127}, "group": "control_change"}, {"time": 1285, "annotation": {"number": 64, "value": 0}, "group": "control_change"}, {"time": 1287, "annotation": {"number": 64, "value": 127}, "group": "control_change"}, {"time": 1308, "annotation": {"number": 64, "value": 0}, "group": "control_change"}, {"time": 1310, "annotation": {"number": 64, "value": 127}, "group": "control_change"}, {"time": 1332, "annotation": {"number": 64, "value": 0}, "group": "control_change"}, {"time": 1334, "annotation": {"number": 64, "value": 127}, "group": "control_change"}, {"time": 1356, "annotation": {"number": 64, "value": 0}, "group": "control_change"}, {"time": 1358, "annotation": {"number": 64, "value": 127}, "group": "control_change"}, {"time": 1380, "annotation": {"number": 64, "value": 0}, "group": "control_change"}, {"time": 1382, "annotation": {"number": 64, "value": 127}, "group": "control_change"}, {"time": 1404, "annotation": {"number": 64, "value": 0}, "group": "control_change"}, {"time": 1406, "annotation": {"number": 64, "value": 127}, "group": "control_change"}, {"time": 1428, "annotation": {"number": 64, "value": 0}, "group": "control_change"}, {"time": 1430, "annotation": {"number": 64, "value": 127}, "group": "control_change"}, {"time": 1453, "annotation": {"number": 64, "value": 0}, "group": "control_change"}, {"time": 1455, "annotation": {"number": 64, "value": 127}, "group": "control_change"}, {"time": 1477, "annotation": {"number": 64, "value": 0}, "group": "control_change"}, {"time": 1479, "annotation": {"number": 64, "value": 127}, "group": "control_change"}, {"time": 1501, "annotation": {"number": 64, "value": 0}, "group": "control_change"}, {"time": 1503, "annotation": {"number": 64, "value": 127}, "group": "control_change"}, {"time": 1525, "annotation": {"number": 64, "value": 0}, "group": "control_change"}, {"time": 1527, "annotation": {"number": 64, "value": 127}, "group": "control_change"}, {"time": 1549, "annotation": {"number": 64, "value": 0}, "group": "control_change"}, {"time": 1552, "annotation": {"number": 64, "value": 127}, "group": "control_change"}, {"time": 1572, "annotation": {"number": 64, "value": 0}, "group": "control_change"}, {"time": 1574, "annotation": {"number": 64, "value": 127}, "group": "control_change"}, {"time": 1575, "annotation": {"number": 64, "value": 127}, "group": "control_change"}, {"time": 1596, "annotation": {"number": 64, "value": 0}, "group": "control_change"}, {"time": 1599, "annotation": {"number": 64, "value": 127}, "group": "control_change"}, {"time": 1609, "annotation": {"number": 64, "value": 0}, "group": "control_change"}, {"time": 1611, "annotation": {"number": 64, "value": 127}, "group": "control_change"}, {"time": 1621, "annotation": {"number": 64, "value": 0}, "group": "control_change"}, {"time": 1623, "annotation": {"number": 64, "value": 127}, "group": "control_change"}, {"time": 1645, "annotation": {"number": 64, "value": 0}, "group": "control_change"}, {"time": 1647, "annotation": {"number": 64, "value": 127}, "group": "control_change"}, {"time": 1666, "annotation": {"number": 64, "value": 0}, "group": "control_change"}, {"time": 1670, "annotation": {"number": 64, "value": 127}, "group": "control_change"}, {"time": 1692, "annotation": {"number": 64, "value": 0}, "group": "control_change"}, {"time": 1694, "annotation": {"number": 64, "value": 127}, "group": "control_change"}, {"time": 1716, "annotation": {"number": 64, "value": 0}, "group": "control_change"}, {"time": 1719, "annotation": {"number": 64, "value": 127}, "group": "control_change"}, {"time": 1738, "annotation": {"number": 64, "value": 0}, "group": "control_change"}, {"time": 1743, "annotation": {"number": 64, "value": 127}, "group": "control_change"}, {"time": 1764, "annotation": {"number": 64, "value": 0}, "group": "control_change"}, {"time": 1766, "annotation": {"number": 64, "value": 127}, "group": "control_change"}, {"time": 1788, "annotation": {"number": 64, "value": 0}, "group": "control_change"}, {"time": 1790, "annotation": {"number": 64, "value": 127}, "group": "control_change"}, {"time": 1791, "annotation": {"number": 64, "value": 127}, "group": "control_change"}, {"time": 1800, "annotation": {"number": 64, "value": 0}, "group": "control_change"}, {"time": 1805, "annotation": {"number": 64, "value": 127}, "group": "control_change"}, {"time": 1811, "annotation": {"number": 64, "value": 0}, "group": "control_change"}, {"time": 1816, "annotation": {"number": 64, "value": 127}, "group": "control_change"}, {"time": 1833, "annotation": {"number": 64, "value": 0}, "group": "control_change"}, {"time": 1839, "annotation": {"number": 64, "value": 127}, "group": "control_change"}, {"time": 1848, "annotation": {"number": 64, "value": 0}, "group": "control_change"}, {"time": 1851, "annotation": {"number": 64, "value": 127}, "group": "control_change"}, {"time": 1860, "annotation": {"number": 64, "value": 0}, "group": "control_change"}, {"time": 1863, "annotation": {"number": 64, "value": 127}, "group": "control_change"}, {"time": 1885, "annotation": {"number": 64, "value": 0}, "group": "control_change"}, {"time": 1887, "annotation": {"number": 64, "value": 127}, "group": "control_change"}, {"time": 1908, "annotation": {"number": 64, "value": 0}, "group": "control_change"}, {"time": 1912, "annotation": {"number": 64, "value": 127}, "group": "control_change"}, {"time": 1933, "annotation": {"number": 64, "value": 0}, "group": "control_change"}, {"time": 1936, "annotation": {"number": 64, "value": 127}, "group": "control_change"}, {"time": 1956, "annotation": {"number": 64, "value": 0}, "group": "control_change"}, {"time": 1958, "annotation": {"number": 64, "value": 127}, "group": "control_change"}, {"time": 1959, "annotation": {"number": 64, "value": 127}, "group": "control_change"}, {"time": 1980, "annotation": {"number": 64, "value": 0}, "group": "control_change"}, {"time": 1983, "annotation": {"number": 64, "value": 127}, "group": "control_change"}, {"time": 1993, "annotation": {"number": 64, "value": 0}, "group": "control_change"}, {"time": 1995, "annotation": {"number": 64, "value": 127}, "group": "control_change"}, {"time": 2005, "annotation": {"number": 64, "value": 0}, "group": "control_change"}, {"time": 2007, "annotation": {"number": 64, "value": 127}, "group": "control_change"}, {"time": 2029, "annotation": {"number": 64, "value": 0}, "group": "control_change"}, {"time": 2031, "annotation": {"number": 64, "value": 127}, "group": "control_change"}, {"time": 2050, "annotation": {"number": 64, "value": 0}, "group": "control_change"}, {"time": 2054, "annotation": {"number": 64, "value": 127}, "group": "control_change"}, {"time": 2076, "annotation": {"number": 64, "value": 0}, "group": "control_change"}, {"time": 2078, "annotation": {"number": 64, "value": 127}, "group": "control_change"}, {"time": 2100, "annotation": {"number": 64, "value": 0}, "group": "control_change"}, {"time": 2103, "annotation": {"number": 64, "value": 127}, "group": "control_change"}, {"time": 2122, "annotation": {"number": 64, "value": 0}, "group": "control_change"}, {"time": 2127, "annotation": {"number": 64, "value": 127}, "group": "control_change"}, {"time": 2148, "annotation": {"number": 64, "value": 0}, "group": "control_change"}, {"time": 2150, "annotation": {"number": 64, "value": 127}, "group": "control_change"}, {"time": 2172, "annotation": {"number": 64, "value": 0}, "group": "control_change"}, {"time": 2174, "annotation": {"number": 64, "value": 127}, "group": "control_change"}, {"time": 2175, "annotation": {"number": 64, "value": 127}, "group": "control_change"}, {"time": 2184, "annotation": {"number": 64, "value": 0}, "group": "control_change"}, {"time": 2189, "annotation": {"number": 64, "value": 127}, "group": "control_change"}, {"time": 2195, "annotation": {"number": 64, "value": 0}, "group": "control_change"}, {"time": 2200, "annotation": {"number": 64, "value": 127}, "group": "control_change"}, {"time": 2217, "annotation": {"number": 64, "value": 0}, "group": "control_change"}, {"time": 2223, "annotation": {"number": 64, "value": 127}, "group": "control_change"}, {"time": 2232, "annotation": {"number": 64, "value": 0}, "group": "control_change"}, {"time": 2235, "annotation": {"number": 64, "value": 127}, "group": "control_change"}, {"time": 2244, "annotation": {"number": 64, "value": 0}, "group": "control_change"}, {"time": 2247, "annotation": {"number": 64, "value": 127}, "group": "control_change"}, {"time": 2269, "annotation": {"number": 64, "value": 0}, "group": "control_change"}, {"time": 2271, "annotation": {"number": 64, "value": 127}, "group": "control_change"}, {"time": 2292, "annotation": {"number": 64, "value": 0}, "group": "control_change"}, {"time": 2296, "annotation": {"number": 64, "value": 127}, "group": "control_change"}, {"time": 2317, "annotation": {"number": 64, "value": 0}, "group": "control_change"}, {"time": 2319, "annotation": {"number": 64, "value": 127}, "group": "control_change"}, {"time": 2339, "annotation": {"number": 64, "value": 0}, "group": "control_change"}, {"time": 2342, "annotation": {"number": 64, "value": 127}, "group": "control_change"}, {"time": 2362, "annotation": {"number": 64, "value": 0}, "group": "control_change"}, {"time": 2366, "annotation": {"number": 64, "value": 127}, "group": "control_change"}, {"time": 2372, "annotation": {"number": 64, "value": 0}, "group": "control_change"}, {"time": 2378, "annotation": {"number": 64, "value": 127}, "group": "control_change"}, {"time": 2383, "annotation": {"number": 64, "value": 0}, "group": "control_change"}, {"time": 2391, "annotation": {"number": 64, "value": 127}, "group": "control_change"}, {"time": 2399, "annotation": {"number": 64, "value": 0}, "group": "control_change"}, {"time": 2403, "annotation": {"number": 64, "value": 127}, "group": "control_change"}, {"time": 2450, "annotation": {"number": 64, "value": 0}, "group": "control_change"}, {"time": 2452, "annotation": {"number": 64, "value": 127}, "group": "control_change"}, {"time": 2462, "annotation": {"number": 64, "value": 0}, "group": "control_change"}, {"time": 2474, "annotation": {"number": 64, "value": 127}, "group": "control_change"}, {"time": 2534, "annotation": {"number": 64, "value": 0}, "group": "control_change"}]}]}