{"metadata": {"schema_version": "0.2", "title": "None", "source_filename": "472.mid", "source_format": "midi"}, "resolution": 12, "tempos": [{"time": 0, "qpm": 70.00007000007}], "time_signatures": [{"time": 0, "numerator": 1, "denominator": 4}], "tracks": [{"program": 0, "is_drum": false, "name": "MELODY", "notes": [{"time": 146, "pitch": 54, "duration": 4, "velocity": 97}, {"time": 149, "pitch": 59, "duration": 3, "velocity": 70}, {"time": 152, "pitch": 63, "duration": 5, "velocity": 89}, {"time": 158, "pitch": 63, "duration": 4, "velocity": 72}, {"time": 164, "pitch": 63, "duration": 6, "velocity": 100}, {"time": 170, "pitch": 61, "duration": 7, "velocity": 92}, {"time": 176, "pitch": 59, "duration": 11, "velocity": 78}, {"time": 194, "pitch": 59, "duration": 2, "velocity": 89}, {"time": 197, "pitch": 61, "duration": 4, "velocity": 85}, {"time": 200, "pitch": 59, "duration": 4, "velocity": 83}, {"time": 206, "pitch": 59, "duration": 4, "velocity": 77}, {"time": 212, "pitch": 59, "duration": 5, "velocity": 88}, {"time": 218, "pitch": 56, "duration": 7, "velocity": 75}, {"time": 224, "pitch": 54, "duration": 16, "velocity": 83}, {"time": 242, "pitch": 59, "duration": 3, "velocity": 89}, {"time": 245, "pitch": 61, "duration": 3, "velocity": 86}, {"time": 248, "pitch": 63, "duration": 4, "velocity": 97}, {"time": 254, "pitch": 63, "duration": 5, "velocity": 100}, {"time": 260, "pitch": 63, "duration": 5, "velocity": 100}, {"time": 266, "pitch": 61, "duration": 6, "velocity": 112}, {"time": 272, "pitch": 59, "duration": 10, "velocity": 83}, {"time": 290, "pitch": 63, "duration": 11, "velocity": 95}, {"time": 302, "pitch": 66, "duration": 27, "velocity": 107}, {"time": 338, "pitch": 68, "duration": 2, "velocity": 107}, {"time": 341, "pitch": 70, "duration": 2, "velocity": 93}, {"time": 344, "pitch": 71, "duration": 7, "velocity": 100}, {"time": 353, "pitch": 71, "duration": 7, "velocity": 117}, {"time": 362, "pitch": 73, "duration": 6, "velocity": 112}, {"time": 368, "pitch": 68, "duration": 10, "velocity": 107}, {"time": 386, "pitch": 71, "duration": 3, "velocity": 95}, {"time": 389, "pitch": 68, "duration": 2, "velocity": 92}, {"time": 392, "pitch": 66, "duration": 7, "velocity": 93}, {"time": 401, "pitch": 66, "duration": 6, "velocity": 96}, {"time": 410, "pitch": 68, "duration": 5, "velocity": 102}, {"time": 416, "pitch": 63, "duration": 12, "velocity": 96}, {"time": 434, "pitch": 63, "duration": 6, "velocity": 100}, {"time": 440, "pitch": 61, "duration": 14, "velocity": 89}, {"time": 458, "pitch": 61, "duration": 4, "velocity": 99}, {"time": 464, "pitch": 61, "duration": 7, "velocity": 95}, {"time": 476, "pitch": 63, "duration": 6, "velocity": 93}, {"time": 482, "pitch": 61, "duration": 4, "velocity": 83}, {"time": 488, "pitch": 59, "duration": 7, "velocity": 83}, {"time": 494, "pitch": 61, "duration": 19, "velocity": 74}, {"time": 530, "pitch": 54, "duration": 4, "velocity": 89}, {"time": 533, "pitch": 56, "duration": 4, "velocity": 66}, {"time": 536, "pitch": 63, "duration": 5, "velocity": 86}, {"time": 542, "pitch": 63, "duration": 5, "velocity": 97}, {"time": 548, "pitch": 63, "duration": 5, "velocity": 96}, {"time": 554, "pitch": 61, "duration": 6, "velocity": 96}, {"time": 560, "pitch": 59, "duration": 13, "velocity": 81}, {"time": 578, "pitch": 59, "duration": 3, "velocity": 82}, {"time": 581, "pitch": 61, "duration": 4, "velocity": 92}, {"time": 584, "pitch": 59, "duration": 5, "velocity": 75}, {"time": 590, "pitch": 59, "duration": 4, "velocity": 75}, {"time": 596, "pitch": 59, "duration": 6, "velocity": 82}, {"time": 602, "pitch": 56, "duration": 7, "velocity": 83}, {"time": 608, "pitch": 54, "duration": 13, "velocity": 82}, {"time": 626, "pitch": 59, "duration": 3, "velocity": 92}, {"time": 629, "pitch": 61, "duration": 3, "velocity": 69}, {"time": 632, "pitch": 63, "duration": 4, "velocity": 93}, {"time": 638, "pitch": 63, "duration": 4, "velocity": 93}, {"time": 644, "pitch": 63, "duration": 5, "velocity": 100}, {"time": 650, "pitch": 61, "duration": 7, "velocity": 93}, {"time": 656, "pitch": 59, "duration": 13, "velocity": 88}, {"time": 674, "pitch": 61, "duration": 5, "velocity": 95}, {"time": 680, "pitch": 63, "duration": 6, "velocity": 92}, {"time": 686, "pitch": 66, "duration": 27, "velocity": 96}, {"time": 722, "pitch": 68, "duration": 3, "velocity": 95}, {"time": 725, "pitch": 70, "duration": 2, "velocity": 92}, {"time": 728, "pitch": 71, "duration": 7, "velocity": 99}, {"time": 737, "pitch": 71, "duration": 7, "velocity": 122}, {"time": 746, "pitch": 73, "duration": 7, "velocity": 107}, {"time": 752, "pitch": 68, "duration": 13, "velocity": 99}, {"time": 770, "pitch": 71, "duration": 4, "velocity": 97}, {"time": 773, "pitch": 68, "duration": 4, "velocity": 88}, {"time": 776, "pitch": 66, "duration": 7, "velocity": 99}, {"time": 785, "pitch": 66, "duration": 8, "velocity": 102}, {"time": 794, "pitch": 68, "duration": 6, "velocity": 92}, {"time": 800, "pitch": 63, "duration": 12, "velocity": 99}, {"time": 818, "pitch": 63, "duration": 5, "velocity": 102}, {"time": 824, "pitch": 61, "duration": 16, "velocity": 95}, {"time": 842, "pitch": 61, "duration": 5, "velocity": 99}, {"time": 848, "pitch": 61, "duration": 8, "velocity": 97}, {"time": 854, "pitch": 61, "duration": 2, "velocity": 99}, {"time": 860, "pitch": 63, "duration": 6, "velocity": 102}, {"time": 866, "pitch": 61, "duration": 12, "velocity": 85}, {"time": 878, "pitch": 59, "duration": 25, "velocity": 90}, {"time": 908, "pitch": 63, "duration": 5, "velocity": 107}, {"time": 914, "pitch": 66, "duration": 4, "velocity": 97}, {"time": 920, "pitch": 66, "duration": 14, "velocity": 100}, {"time": 938, "pitch": 63, "duration": 4, "velocity": 107}, {"time": 941, "pitch": 61, "duration": 3, "velocity": 88}, {"time": 944, "pitch": 59, "duration": 10, "velocity": 86}, {"time": 956, "pitch": 59, "duration": 5, "velocity": 93}, {"time": 962, "pitch": 71, "duration": 5, "velocity": 102}, {"time": 968, "pitch": 71, "duration": 15, "velocity": 99}, {"time": 986, "pitch": 68, "duration": 6, "velocity": 112}, {"time": 992, "pitch": 66, "duration": 9, "velocity": 97}, {"time": 1010, "pitch": 59, "duration": 3, "velocity": 96}, {"time": 1013, "pitch": 61, "duration": 3, "velocity": 92}, {"time": 1016, "pitch": 63, "duration": 11, "velocity": 102}, {"time": 1034, "pitch": 68, "duration": 5, "velocity": 100}, {"time": 1040, "pitch": 66, "duration": 5, "velocity": 107}, {"time": 1046, "pitch": 66, "duration": 4, "velocity": 117}, {"time": 1052, "pitch": 63, "duration": 3, "velocity": 112}, {"time": 1055, "pitch": 61, "duration": 5, "velocity": 100}, {"time": 1061, "pitch": 59, "duration": 4, "velocity": 85}, {"time": 1064, "pitch": 61, "duration": 20, "velocity": 102}, {"time": 1100, "pitch": 63, "duration": 5, "velocity": 107}, {"time": 1106, "pitch": 66, "duration": 4, "velocity": 102}, {"time": 1112, "pitch": 66, "duration": 17, "velocity": 102}, {"time": 1130, "pitch": 63, "duration": 4, "velocity": 99}, {"time": 1133, "pitch": 61, "duration": 3, "velocity": 93}, {"time": 1136, "pitch": 59, "duration": 9, "velocity": 95}, {"time": 1148, "pitch": 59, "duration": 6, "velocity": 92}, {"time": 1154, "pitch": 71, "duration": 5, "velocity": 117}, {"time": 1160, "pitch": 71, "duration": 17, "velocity": 122}, {"time": 1178, "pitch": 73, "duration": 6, "velocity": 117}, {"time": 1187, "pitch": 68, "duration": 10, "velocity": 112}, {"time": 1202, "pitch": 71, "duration": 4, "velocity": 102}, {"time": 1205, "pitch": 68, "duration": 3, "velocity": 96}, {"time": 1208, "pitch": 66, "duration": 7, "velocity": 95}, {"time": 1217, "pitch": 71, "duration": 7, "velocity": 95}, {"time": 1226, "pitch": 63, "duration": 3, "velocity": 127}, {"time": 1229, "pitch": 61, "duration": 2, "velocity": 93}, {"time": 1232, "pitch": 61, "duration": 14, "velocity": 100}, {"time": 1244, "pitch": 63, "duration": 9, "velocity": 107}, {"time": 1253, "pitch": 61, "duration": 4, "velocity": 88}, {"time": 1256, "pitch": 59, "duration": 33, "velocity": 90}, {"time": 1724, "pitch": 54, "duration": 4, "velocity": 97}, {"time": 1730, "pitch": 59, "duration": 4, "velocity": 90}, {"time": 1736, "pitch": 63, "duration": 5, "velocity": 89}, {"time": 1742, "pitch": 63, "duration": 4, "velocity": 72}, {"time": 1748, "pitch": 63, "duration": 6, "velocity": 100}, {"time": 1754, "pitch": 61, "duration": 7, "velocity": 92}, {"time": 1760, "pitch": 59, "duration": 11, "velocity": 78}, {"time": 1778, "pitch": 59, "duration": 2, "velocity": 89}, {"time": 1781, "pitch": 61, "duration": 4, "velocity": 85}, {"time": 1784, "pitch": 59, "duration": 4, "velocity": 83}, {"time": 1790, "pitch": 59, "duration": 4, "velocity": 77}, {"time": 1796, "pitch": 59, "duration": 5, "velocity": 88}, {"time": 1802, "pitch": 56, "duration": 7, "velocity": 75}, {"time": 1808, "pitch": 54, "duration": 16, "velocity": 83}, {"time": 1826, "pitch": 59, "duration": 3, "velocity": 89}, {"time": 1829, "pitch": 61, "duration": 3, "velocity": 86}, {"time": 1832, "pitch": 63, "duration": 4, "velocity": 97}, {"time": 1838, "pitch": 63, "duration": 5, "velocity": 100}, {"time": 1844, "pitch": 63, "duration": 5, "velocity": 100}, {"time": 1850, "pitch": 61, "duration": 6, "velocity": 112}, {"time": 1856, "pitch": 59, "duration": 10, "velocity": 83}, {"time": 1874, "pitch": 63, "duration": 11, "velocity": 95}, {"time": 1886, "pitch": 66, "duration": 27, "velocity": 107}, {"time": 1922, "pitch": 68, "duration": 2, "velocity": 107}, {"time": 1925, "pitch": 70, "duration": 2, "velocity": 93}, {"time": 1928, "pitch": 71, "duration": 7, "velocity": 100}, {"time": 1937, "pitch": 71, "duration": 7, "velocity": 117}, {"time": 1946, "pitch": 73, "duration": 6, "velocity": 112}, {"time": 1952, "pitch": 68, "duration": 10, "velocity": 107}, {"time": 1970, "pitch": 71, "duration": 3, "velocity": 95}, {"time": 1973, "pitch": 68, "duration": 2, "velocity": 92}, {"time": 1976, "pitch": 66, "duration": 7, "velocity": 93}, {"time": 1985, "pitch": 66, "duration": 6, "velocity": 96}, {"time": 1994, "pitch": 68, "duration": 5, "velocity": 102}, {"time": 2000, "pitch": 63, "duration": 12, "velocity": 96}, {"time": 2018, "pitch": 63, "duration": 6, "velocity": 100}, {"time": 2024, "pitch": 61, "duration": 14, "velocity": 89}, {"time": 2042, "pitch": 61, "duration": 4, "velocity": 99}, {"time": 2048, "pitch": 61, "duration": 7, "velocity": 95}, {"time": 2060, "pitch": 63, "duration": 6, "velocity": 93}, {"time": 2066, "pitch": 61, "duration": 4, "velocity": 83}, {"time": 2072, "pitch": 59, "duration": 7, "velocity": 83}, {"time": 2078, "pitch": 61, "duration": 19, "velocity": 74}, {"time": 2114, "pitch": 54, "duration": 4, "velocity": 89}, {"time": 2117, "pitch": 56, "duration": 4, "velocity": 66}, {"time": 2120, "pitch": 63, "duration": 5, "velocity": 86}, {"time": 2126, "pitch": 63, "duration": 5, "velocity": 97}, {"time": 2132, "pitch": 63, "duration": 5, "velocity": 96}, {"time": 2138, "pitch": 61, "duration": 6, "velocity": 96}, {"time": 2144, "pitch": 59, "duration": 13, "velocity": 81}, {"time": 2162, "pitch": 59, "duration": 3, "velocity": 82}, {"time": 2165, "pitch": 61, "duration": 4, "velocity": 92}, {"time": 2168, "pitch": 59, "duration": 5, "velocity": 75}, {"time": 2174, "pitch": 59, "duration": 4, "velocity": 75}, {"time": 2180, "pitch": 59, "duration": 6, "velocity": 82}, {"time": 2186, "pitch": 56, "duration": 7, "velocity": 83}, {"time": 2192, "pitch": 54, "duration": 13, "velocity": 82}, {"time": 2210, "pitch": 59, "duration": 3, "velocity": 92}, {"time": 2213, "pitch": 61, "duration": 3, "velocity": 69}, {"time": 2216, "pitch": 63, "duration": 4, "velocity": 93}, {"time": 2222, "pitch": 63, "duration": 4, "velocity": 93}, {"time": 2228, "pitch": 63, "duration": 5, "velocity": 100}, {"time": 2234, "pitch": 61, "duration": 7, "velocity": 93}, {"time": 2240, "pitch": 59, "duration": 13, "velocity": 88}, {"time": 2258, "pitch": 61, "duration": 5, "velocity": 95}, {"time": 2264, "pitch": 63, "duration": 6, "velocity": 92}, {"time": 2270, "pitch": 66, "duration": 27, "velocity": 96}, {"time": 2306, "pitch": 68, "duration": 3, "velocity": 95}, {"time": 2309, "pitch": 70, "duration": 2, "velocity": 92}, {"time": 2312, "pitch": 71, "duration": 7, "velocity": 99}, {"time": 2321, "pitch": 71, "duration": 7, "velocity": 122}, {"time": 2330, "pitch": 73, "duration": 7, "velocity": 107}, {"time": 2336, "pitch": 68, "duration": 13, "velocity": 99}, {"time": 2354, "pitch": 71, "duration": 4, "velocity": 97}, {"time": 2357, "pitch": 68, "duration": 4, "velocity": 88}, {"time": 2360, "pitch": 66, "duration": 7, "velocity": 99}, {"time": 2369, "pitch": 66, "duration": 8, "velocity": 102}, {"time": 2378, "pitch": 68, "duration": 6, "velocity": 92}, {"time": 2384, "pitch": 63, "duration": 12, "velocity": 99}, {"time": 2402, "pitch": 63, "duration": 5, "velocity": 102}, {"time": 2408, "pitch": 61, "duration": 16, "velocity": 95}, {"time": 2426, "pitch": 61, "duration": 5, "velocity": 99}, {"time": 2432, "pitch": 61, "duration": 8, "velocity": 97}, {"time": 2438, "pitch": 61, "duration": 2, "velocity": 99}, {"time": 2444, "pitch": 63, "duration": 6, "velocity": 102}, {"time": 2450, "pitch": 61, "duration": 12, "velocity": 85}, {"time": 2462, "pitch": 59, "duration": 25, "velocity": 90}, {"time": 2492, "pitch": 63, "duration": 5, "velocity": 107}, {"time": 2498, "pitch": 66, "duration": 4, "velocity": 97}, {"time": 2504, "pitch": 66, "duration": 14, "velocity": 100}, {"time": 2522, "pitch": 63, "duration": 4, "velocity": 107}, {"time": 2525, "pitch": 61, "duration": 3, "velocity": 88}, {"time": 2528, "pitch": 59, "duration": 10, "velocity": 86}, {"time": 2540, "pitch": 59, "duration": 5, "velocity": 93}, {"time": 2546, "pitch": 71, "duration": 5, "velocity": 102}, {"time": 2552, "pitch": 71, "duration": 15, "velocity": 99}, {"time": 2570, "pitch": 68, "duration": 6, "velocity": 112}, {"time": 2576, "pitch": 66, "duration": 9, "velocity": 97}, {"time": 2594, "pitch": 59, "duration": 3, "velocity": 96}, {"time": 2597, "pitch": 61, "duration": 3, "velocity": 92}, {"time": 2600, "pitch": 63, "duration": 11, "velocity": 102}, {"time": 2618, "pitch": 68, "duration": 5, "velocity": 100}, {"time": 2624, "pitch": 66, "duration": 5, "velocity": 107}, {"time": 2630, "pitch": 66, "duration": 4, "velocity": 117}, {"time": 2636, "pitch": 63, "duration": 3, "velocity": 112}, {"time": 2639, "pitch": 61, "duration": 5, "velocity": 100}, {"time": 2645, "pitch": 59, "duration": 4, "velocity": 85}, {"time": 2648, "pitch": 61, "duration": 20, "velocity": 102}, {"time": 2684, "pitch": 63, "duration": 5, "velocity": 107}, {"time": 2690, "pitch": 66, "duration": 4, "velocity": 102}, {"time": 2696, "pitch": 66, "duration": 17, "velocity": 102}, {"time": 2714, "pitch": 63, "duration": 4, "velocity": 99}, {"time": 2717, "pitch": 61, "duration": 3, "velocity": 93}, {"time": 2720, "pitch": 59, "duration": 9, "velocity": 95}, {"time": 2732, "pitch": 59, "duration": 6, "velocity": 92}, {"time": 2738, "pitch": 71, "duration": 5, "velocity": 117}, {"time": 2744, "pitch": 71, "duration": 17, "velocity": 122}, {"time": 2762, "pitch": 73, "duration": 6, "velocity": 117}, {"time": 2771, "pitch": 68, "duration": 10, "velocity": 112}, {"time": 2786, "pitch": 71, "duration": 4, "velocity": 102}, {"time": 2789, "pitch": 68, "duration": 3, "velocity": 96}, {"time": 2792, "pitch": 66, "duration": 7, "velocity": 95}, {"time": 2801, "pitch": 71, "duration": 7, "velocity": 95}, {"time": 2810, "pitch": 63, "duration": 3, "velocity": 127}, {"time": 2813, "pitch": 61, "duration": 2, "velocity": 93}, {"time": 2816, "pitch": 61, "duration": 14, "velocity": 100}, {"time": 2828, "pitch": 63, "duration": 9, "velocity": 107}, {"time": 2837, "pitch": 61, "duration": 4, "velocity": 88}, {"time": 2840, "pitch": 59, "duration": 33, "velocity": 90}, {"time": 2876, "pitch": 64, "duration": 5, "velocity": 107}, {"time": 2882, "pitch": 67, "duration": 4, "velocity": 97}, {"time": 2888, "pitch": 67, "duration": 14, "velocity": 100}, {"time": 2906, "pitch": 64, "duration": 4, "velocity": 107}, {"time": 2909, "pitch": 62, "duration": 3, "velocity": 88}, {"time": 2912, "pitch": 60, "duration": 10, "velocity": 86}, {"time": 2924, "pitch": 60, "duration": 5, "velocity": 93}, {"time": 2930, "pitch": 72, "duration": 5, "velocity": 102}, {"time": 2936, "pitch": 72, "duration": 15, "velocity": 99}, {"time": 2954, "pitch": 69, "duration": 6, "velocity": 112}, {"time": 2960, "pitch": 67, "duration": 9, "velocity": 97}, {"time": 2978, "pitch": 60, "duration": 3, "velocity": 96}, {"time": 2981, "pitch": 62, "duration": 3, "velocity": 92}, {"time": 2984, "pitch": 64, "duration": 11, "velocity": 102}, {"time": 3002, "pitch": 69, "duration": 5, "velocity": 100}, {"time": 3008, "pitch": 67, "duration": 5, "velocity": 107}, {"time": 3014, "pitch": 67, "duration": 4, "velocity": 117}, {"time": 3020, "pitch": 64, "duration": 3, "velocity": 112}, {"time": 3023, "pitch": 62, "duration": 5, "velocity": 100}, {"time": 3029, "pitch": 60, "duration": 4, "velocity": 85}, {"time": 3032, "pitch": 62, "duration": 20, "velocity": 102}, {"time": 3068, "pitch": 64, "duration": 5, "velocity": 107}, {"time": 3074, "pitch": 67, "duration": 4, "velocity": 102}, {"time": 3080, "pitch": 67, "duration": 17, "velocity": 102}, {"time": 3098, "pitch": 64, "duration": 4, "velocity": 99}, {"time": 3101, "pitch": 62, "duration": 3, "velocity": 93}, {"time": 3104, "pitch": 60, "duration": 9, "velocity": 95}, {"time": 3116, "pitch": 60, "duration": 6, "velocity": 92}, {"time": 3122, "pitch": 72, "duration": 5, "velocity": 117}, {"time": 3128, "pitch": 72, "duration": 17, "velocity": 122}, {"time": 3146, "pitch": 74, "duration": 6, "velocity": 117}, {"time": 3155, "pitch": 69, "duration": 10, "velocity": 112}, {"time": 3170, "pitch": 72, "duration": 4, "velocity": 102}, {"time": 3173, "pitch": 69, "duration": 3, "velocity": 96}, {"time": 3176, "pitch": 67, "duration": 7, "velocity": 95}, {"time": 3185, "pitch": 72, "duration": 7, "velocity": 95}, {"time": 3194, "pitch": 69, "duration": 6, "velocity": 107}, {"time": 3200, "pitch": 72, "duration": 11, "velocity": 127}, {"time": 3212, "pitch": 74, "duration": 9, "velocity": 127}, {"time": 3224, "pitch": 72, "duration": 48, "velocity": 127}]}, {"program": 0, "is_drum": false, "name": "BRIDGE", "notes": [{"time": 56, "pitch": 59, "duration": 6, "velocity": 63}, {"time": 62, "pitch": 54, "duration": 7, "velocity": 59}, {"time": 68, "pitch": 59, "duration": 8, "velocity": 70}, {"time": 74, "pitch": 61, "duration": 7, "velocity": 65}, {"time": 80, "pitch": 63, "duration": 12, "velocity": 65}, {"time": 86, "pitch": 61, "duration": 6, "velocity": 79}, {"time": 92, "pitch": 66, "duration": 7, "velocity": 86}, {"time": 98, "pitch": 61, "duration": 7, "velocity": 89}, {"time": 104, "pitch": 59, "duration": 7, "velocity": 79}, {"time": 110, "pitch": 54, "duration": 6, "velocity": 90}, {"time": 116, "pitch": 59, "duration": 6, "velocity": 73}, {"time": 122, "pitch": 61, "duration": 7, "velocity": 69}, {"time": 128, "pitch": 66, "duration": 23, "velocity": 93}, {"time": 128, "pitch": 71, "duration": 24, "velocity": 75}, {"time": 1292, "pitch": 66, "duration": 6, "velocity": 102}, {"time": 1298, "pitch": 68, "duration": 6, "velocity": 112}, {"time": 1304, "pitch": 75, "duration": 15, "velocity": 122}, {"time": 1322, "pitch": 73, "duration": 6, "velocity": 122}, {"time": 1328, "pitch": 71, "duration": 11, "velocity": 112}, {"time": 1346, "pitch": 71, "duration": 2, "velocity": 107}, {"time": 1349, "pitch": 73, "duration": 4, "velocity": 100}, {"time": 1352, "pitch": 71, "duration": 13, "velocity": 97}, {"time": 1370, "pitch": 70, "duration": 6, "velocity": 107}, {"time": 1376, "pitch": 68, "duration": 14, "velocity": 99}, {"time": 1394, "pitch": 66, "duration": 4, "velocity": 92}, {"time": 1397, "pitch": 68, "duration": 3, "velocity": 93}, {"time": 1400, "pitch": 75, "duration": 17, "velocity": 112}, {"time": 1418, "pitch": 73, "duration": 7, "velocity": 102}, {"time": 1424, "pitch": 71, "duration": 12, "velocity": 97}, {"time": 1430, "pitch": 75, "duration": 7, "velocity": 100}, {"time": 1436, "pitch": 80, "duration": 7, "velocity": 99}, {"time": 1442, "pitch": 78, "duration": 5, "velocity": 96}, {"time": 1448, "pitch": 78, "duration": 24, "velocity": 107}, {"time": 1490, "pitch": 75, "duration": 6, "velocity": 100}, {"time": 1496, "pitch": 78, "duration": 17, "velocity": 107}, {"time": 1514, "pitch": 75, "duration": 5, "velocity": 100}, {"time": 1520, "pitch": 75, "duration": 6, "velocity": 100}, {"time": 1526, "pitch": 71, "duration": 6, "velocity": 88}, {"time": 1532, "pitch": 75, "duration": 5, "velocity": 97}, {"time": 1538, "pitch": 83, "duration": 7, "velocity": 100}, {"time": 1544, "pitch": 82, "duration": 11, "velocity": 97}, {"time": 1550, "pitch": 80, "duration": 28, "velocity": 100}, {"time": 1580, "pitch": 76, "duration": 7, "velocity": 90}, {"time": 1586, "pitch": 78, "duration": 4, "velocity": 89}, {"time": 1589, "pitch": 80, "duration": 4, "velocity": 86}, {"time": 1592, "pitch": 78, "duration": 8, "velocity": 93}, {"time": 1598, "pitch": 75, "duration": 5, "velocity": 102}, {"time": 1604, "pitch": 75, "duration": 6, "velocity": 112}, {"time": 1610, "pitch": 66, "duration": 7, "velocity": 93}, {"time": 1616, "pitch": 73, "duration": 11, "velocity": 96}, {"time": 1622, "pitch": 76, "duration": 6, "velocity": 99}, {"time": 1628, "pitch": 75, "duration": 6, "velocity": 102}, {"time": 1634, "pitch": 73, "duration": 6, "velocity": 96}, {"time": 1640, "pitch": 71, "duration": 38, "velocity": 96}, {"time": 3224, "pitch": 67, "duration": 15, "velocity": 127}, {"time": 3242, "pitch": 67, "duration": 1, "velocity": 117}, {"time": 3245, "pitch": 67, "duration": 1, "velocity": 99}, {"time": 3248, "pitch": 67, "duration": 3, "velocity": 122}, {"time": 3254, "pitch": 67, "duration": 13, "velocity": 127}, {"time": 3272, "pitch": 69, "duration": 15, "velocity": 127}, {"time": 3290, "pitch": 69, "duration": 1, "velocity": 117}, {"time": 3293, "pitch": 69, "duration": 1, "velocity": 96}, {"time": 3296, "pitch": 69, "duration": 3, "velocity": 112}, {"time": 3302, "pitch": 69, "duration": 15, "velocity": 127}, {"time": 3312, "pitch": 74, "duration": 3, "velocity": 112}, {"time": 3315, "pitch": 72, "duration": 2, "velocity": 96}, {"time": 3318, "pitch": 69, "duration": 2, "velocity": 102}, {"time": 3320, "pitch": 67, "duration": 11, "velocity": 112}, {"time": 3326, "pitch": 64, "duration": 10, "velocity": 100}, {"time": 3332, "pitch": 76, "duration": 17, "velocity": 127}, {"time": 3344, "pitch": 67, "duration": 4, "velocity": 122}, {"time": 3350, "pitch": 65, "duration": 3, "velocity": 107}, {"time": 3353, "pitch": 67, "duration": 3, "velocity": 86}, {"time": 3356, "pitch": 64, "duration": 6, "velocity": 107}, {"time": 3362, "pitch": 65, "duration": 5, "velocity": 99}, {"time": 3368, "pitch": 67, "duration": 48, "velocity": 122}, {"time": 3452, "pitch": 72, "duration": 3, "velocity": 112}, {"time": 3455, "pitch": 67, "duration": 2, "velocity": 97}, {"time": 3458, "pitch": 72, "duration": 2, "velocity": 102}, {"time": 3461, "pitch": 67, "duration": 2, "velocity": 99}, {"time": 3464, "pitch": 72, "duration": 51, "velocity": 127}]}, {"program": 0, "is_drum": false, "name": "PIANO", "notes": [{"time": 56, "pitch": 47, "duration": 41, "velocity": 67}, {"time": 56, "pitch": 59, "duration": 8, "velocity": 66}, {"time": 56, "pitch": 63, "duration": 7, "velocity": 74}, {"time": 56, "pitch": 66, "duration": 7, "velocity": 56}, {"time": 62, "pitch": 54, "duration": 9, "velocity": 59}, {"time": 68, "pitch": 59, "duration": 8, "velocity": 65}, {"time": 68, "pitch": 63, "duration": 8, "velocity": 53}, {"time": 68, "pitch": 66, "duration": 8, "velocity": 54}, {"time": 74, "pitch": 54, "duration": 8, "velocity": 60}, {"time": 80, "pitch": 59, "duration": 8, "velocity": 70}, {"time": 80, "pitch": 63, "duration": 9, "velocity": 69}, {"time": 80, "pitch": 66, "duration": 9, "velocity": 64}, {"time": 86, "pitch": 54, "duration": 13, "velocity": 56}, {"time": 92, "pitch": 63, "duration": 8, "velocity": 88}, {"time": 92, "pitch": 66, "duration": 8, "velocity": 78}, {"time": 98, "pitch": 59, "duration": 6, "velocity": 79}, {"time": 104, "pitch": 47, "duration": 22, "velocity": 70}, {"time": 104, "pitch": 59, "duration": 8, "velocity": 67}, {"time": 104, "pitch": 63, "duration": 8, "velocity": 85}, {"time": 104, "pitch": 66, "duration": 7, "velocity": 86}, {"time": 110, "pitch": 54, "duration": 8, "velocity": 41}, {"time": 116, "pitch": 59, "duration": 10, "velocity": 72}, {"time": 116, "pitch": 63, "duration": 10, "velocity": 72}, {"time": 116, "pitch": 66, "duration": 6, "velocity": 63}, {"time": 122, "pitch": 54, "duration": 5, "velocity": 52}, {"time": 128, "pitch": 47, "duration": 18, "velocity": 54}, {"time": 128, "pitch": 54, "duration": 23, "velocity": 64}, {"time": 128, "pitch": 59, "duration": 22, "velocity": 74}, {"time": 128, "pitch": 63, "duration": 23, "velocity": 77}, {"time": 128, "pitch": 66, "duration": 22, "velocity": 70}, {"time": 152, "pitch": 47, "duration": 22, "velocity": 76}, {"time": 152, "pitch": 59, "duration": 9, "velocity": 81}, {"time": 152, "pitch": 63, "duration": 8, "velocity": 85}, {"time": 152, "pitch": 66, "duration": 8, "velocity": 71}, {"time": 158, "pitch": 54, "duration": 19, "velocity": 75}, {"time": 164, "pitch": 63, "duration": 19, "velocity": 95}, {"time": 164, "pitch": 66, "duration": 18, "velocity": 85}, {"time": 170, "pitch": 59, "duration": 14, "velocity": 68}, {"time": 176, "pitch": 47, "duration": 14, "velocity": 74}, {"time": 182, "pitch": 54, "duration": 6, "velocity": 76}, {"time": 188, "pitch": 63, "duration": 10, "velocity": 90}, {"time": 188, "pitch": 66, "duration": 6, "velocity": 82}, {"time": 194, "pitch": 59, "duration": 5, "velocity": 72}, {"time": 200, "pitch": 40, "duration": 14, "velocity": 65}, {"time": 200, "pitch": 59, "duration": 10, "velocity": 73}, {"time": 200, "pitch": 64, "duration": 10, "velocity": 75}, {"time": 200, "pitch": 68, "duration": 10, "velocity": 77}, {"time": 206, "pitch": 47, "duration": 8, "velocity": 36}, {"time": 212, "pitch": 52, "duration": 6, "velocity": 52}, {"time": 212, "pitch": 64, "duration": 6, "velocity": 88}, {"time": 212, "pitch": 68, "duration": 7, "velocity": 93}, {"time": 218, "pitch": 59, "duration": 5, "velocity": 76}, {"time": 224, "pitch": 47, "duration": 22, "velocity": 59}, {"time": 224, "pitch": 59, "duration": 10, "velocity": 69}, {"time": 224, "pitch": 63, "duration": 10, "velocity": 76}, {"time": 224, "pitch": 66, "duration": 8, "velocity": 75}, {"time": 230, "pitch": 54, "duration": 10, "velocity": 49}, {"time": 236, "pitch": 59, "duration": 11, "velocity": 56}, {"time": 236, "pitch": 63, "duration": 11, "velocity": 66}, {"time": 236, "pitch": 66, "duration": 11, "velocity": 66}, {"time": 242, "pitch": 54, "duration": 6, "velocity": 55}, {"time": 248, "pitch": 47, "duration": 23, "velocity": 72}, {"time": 248, "pitch": 59, "duration": 11, "velocity": 74}, {"time": 248, "pitch": 63, "duration": 11, "velocity": 89}, {"time": 248, "pitch": 66, "duration": 11, "velocity": 86}, {"time": 254, "pitch": 54, "duration": 10, "velocity": 64}, {"time": 260, "pitch": 59, "duration": 10, "velocity": 85}, {"time": 260, "pitch": 63, "duration": 11, "velocity": 97}, {"time": 260, "pitch": 66, "duration": 10, "velocity": 90}, {"time": 266, "pitch": 54, "duration": 6, "velocity": 43}, {"time": 272, "pitch": 47, "duration": 16, "velocity": 63}, {"time": 272, "pitch": 59, "duration": 10, "velocity": 67}, {"time": 272, "pitch": 63, "duration": 10, "velocity": 65}, {"time": 272, "pitch": 66, "duration": 10, "velocity": 62}, {"time": 278, "pitch": 54, "duration": 8, "velocity": 47}, {"time": 284, "pitch": 63, "duration": 8, "velocity": 95}, {"time": 284, "pitch": 66, "duration": 7, "velocity": 89}, {"time": 290, "pitch": 59, "duration": 6, "velocity": 72}, {"time": 296, "pitch": 42, "duration": 38, "velocity": 72}, {"time": 296, "pitch": 61, "duration": 11, "velocity": 72}, {"time": 296, "pitch": 66, "duration": 8, "velocity": 68}, {"time": 302, "pitch": 49, "duration": 30, "velocity": 40}, {"time": 308, "pitch": 61, "duration": 7, "velocity": 85}, {"time": 308, "pitch": 66, "duration": 5, "velocity": 71}, {"time": 314, "pitch": 54, "duration": 8, "velocity": 46}, {"time": 320, "pitch": 58, "duration": 9, "velocity": 63}, {"time": 320, "pitch": 61, "duration": 7, "velocity": 69}, {"time": 320, "pitch": 66, "duration": 6, "velocity": 68}, {"time": 326, "pitch": 54, "duration": 6, "velocity": 56}, {"time": 332, "pitch": 61, "duration": 11, "velocity": 90}, {"time": 332, "pitch": 66, "duration": 7, "velocity": 69}, {"time": 338, "pitch": 58, "duration": 4, "velocity": 52}, {"time": 344, "pitch": 40, "duration": 37, "velocity": 71}, {"time": 344, "pitch": 59, "duration": 10, "velocity": 71}, {"time": 344, "pitch": 64, "duration": 11, "velocity": 63}, {"time": 344, "pitch": 68, "duration": 10, "velocity": 56}, {"time": 350, "pitch": 47, "duration": 31, "velocity": 45}, {"time": 356, "pitch": 59, "duration": 10, "velocity": 71}, {"time": 356, "pitch": 64, "duration": 7, "velocity": 75}, {"time": 356, "pitch": 68, "duration": 7, "velocity": 76}, {"time": 362, "pitch": 52, "duration": 9, "velocity": 52}, {"time": 368, "pitch": 59, "duration": 11, "velocity": 72}, {"time": 368, "pitch": 64, "duration": 8, "velocity": 68}, {"time": 368, "pitch": 68, "duration": 8, "velocity": 64}, {"time": 374, "pitch": 52, "duration": 9, "velocity": 56}, {"time": 380, "pitch": 64, "duration": 6, "velocity": 85}, {"time": 380, "pitch": 68, "duration": 6, "velocity": 86}, {"time": 386, "pitch": 59, "duration": 5, "velocity": 66}, {"time": 392, "pitch": 47, "duration": 13, "velocity": 61}, {"time": 392, "pitch": 59, "duration": 7, "velocity": 64}, {"time": 392, "pitch": 63, "duration": 8, "velocity": 78}, {"time": 392, "pitch": 66, "duration": 8, "velocity": 78}, {"time": 398, "pitch": 54, "duration": 7, "velocity": 50}, {"time": 404, "pitch": 63, "duration": 7, "velocity": 85}, {"time": 404, "pitch": 66, "duration": 6, "velocity": 81}, {"time": 410, "pitch": 59, "duration": 5, "velocity": 72}, {"time": 416, "pitch": 44, "duration": 16, "velocity": 74}, {"time": 416, "pitch": 59, "duration": 10, "velocity": 72}, {"time": 416, "pitch": 63, "duration": 10, "velocity": 79}, {"time": 416, "pitch": 68, "duration": 9, "velocity": 75}, {"time": 422, "pitch": 51, "duration": 9, "velocity": 30}, {"time": 428, "pitch": 56, "duration": 3, "velocity": 74}, {"time": 428, "pitch": 63, "duration": 8, "velocity": 90}, {"time": 428, "pitch": 68, "duration": 8, "velocity": 79}, {"time": 434, "pitch": 59, "duration": 4, "velocity": 46}, {"time": 440, "pitch": 37, "duration": 21, "velocity": 63}, {"time": 440, "pitch": 61, "duration": 10, "velocity": 83}, {"time": 440, "pitch": 64, "duration": 10, "velocity": 73}, {"time": 440, "pitch": 68, "duration": 1, "velocity": 43}, {"time": 446, "pitch": 44, "duration": 8, "velocity": 47}, {"time": 452, "pitch": 49, "duration": 8, "velocity": 67}, {"time": 452, "pitch": 64, "duration": 7, "velocity": 66}, {"time": 452, "pitch": 68, "duration": 8, "velocity": 58}, {"time": 458, "pitch": 61, "duration": 5, "velocity": 74}, {"time": 464, "pitch": 37, "duration": 14, "velocity": 69}, {"time": 464, "pitch": 61, "duration": 10, "velocity": 73}, {"time": 464, "pitch": 64, "duration": 10, "velocity": 63}, {"time": 464, "pitch": 68, "duration": 8, "velocity": 66}, {"time": 470, "pitch": 44, "duration": 8, "velocity": 26}, {"time": 476, "pitch": 49, "duration": 6, "velocity": 58}, {"time": 476, "pitch": 64, "duration": 8, "velocity": 76}, {"time": 476, "pitch": 68, "duration": 7, "velocity": 68}, {"time": 482, "pitch": 61, "duration": 5, "velocity": 70}, {"time": 488, "pitch": 42, "duration": 23, "velocity": 72}, {"time": 488, "pitch": 61, "duration": 11, "velocity": 72}, {"time": 488, "pitch": 66, "duration": 11, "velocity": 68}, {"time": 488, "pitch": 70, "duration": 7, "velocity": 69}, {"time": 494, "pitch": 49, "duration": 7, "velocity": 46}, {"time": 500, "pitch": 54, "duration": 11, "velocity": 85}, {"time": 500, "pitch": 61, "duration": 12, "velocity": 69}, {"time": 500, "pitch": 66, "duration": 12, "velocity": 64}, {"time": 500, "pitch": 70, "duration": 8, "velocity": 66}, {"time": 506, "pitch": 49, "duration": 5, "velocity": 58}, {"time": 512, "pitch": 42, "duration": 22, "velocity": 55}, {"time": 512, "pitch": 49, "duration": 22, "velocity": 55}, {"time": 512, "pitch": 54, "duration": 23, "velocity": 66}, {"time": 512, "pitch": 61, "duration": 11, "velocity": 90}, {"time": 512, "pitch": 66, "duration": 11, "velocity": 89}, {"time": 512, "pitch": 70, "duration": 10, "velocity": 88}, {"time": 524, "pitch": 61, "duration": 10, "velocity": 70}, {"time": 524, "pitch": 66, "duration": 10, "velocity": 70}, {"time": 524, "pitch": 70, "duration": 10, "velocity": 81}, {"time": 536, "pitch": 47, "duration": 22, "velocity": 76}, {"time": 536, "pitch": 59, "duration": 9, "velocity": 81}, {"time": 536, "pitch": 63, "duration": 8, "velocity": 85}, {"time": 536, "pitch": 66, "duration": 8, "velocity": 71}, {"time": 542, "pitch": 54, "duration": 19, "velocity": 75}, {"time": 548, "pitch": 63, "duration": 19, "velocity": 95}, {"time": 548, "pitch": 66, "duration": 18, "velocity": 85}, {"time": 554, "pitch": 59, "duration": 14, "velocity": 68}, {"time": 560, "pitch": 47, "duration": 14, "velocity": 74}, {"time": 566, "pitch": 54, "duration": 6, "velocity": 76}, {"time": 572, "pitch": 63, "duration": 10, "velocity": 90}, {"time": 572, "pitch": 66, "duration": 6, "velocity": 82}, {"time": 578, "pitch": 59, "duration": 5, "velocity": 72}, {"time": 584, "pitch": 40, "duration": 14, "velocity": 65}, {"time": 584, "pitch": 59, "duration": 10, "velocity": 73}, {"time": 584, "pitch": 64, "duration": 10, "velocity": 75}, {"time": 584, "pitch": 68, "duration": 10, "velocity": 77}, {"time": 590, "pitch": 47, "duration": 8, "velocity": 36}, {"time": 596, "pitch": 52, "duration": 6, "velocity": 52}, {"time": 596, "pitch": 64, "duration": 6, "velocity": 88}, {"time": 596, "pitch": 68, "duration": 7, "velocity": 93}, {"time": 602, "pitch": 59, "duration": 5, "velocity": 76}, {"time": 608, "pitch": 47, "duration": 22, "velocity": 59}, {"time": 608, "pitch": 59, "duration": 10, "velocity": 69}, {"time": 608, "pitch": 63, "duration": 10, "velocity": 76}, {"time": 608, "pitch": 66, "duration": 8, "velocity": 75}, {"time": 614, "pitch": 54, "duration": 10, "velocity": 49}, {"time": 620, "pitch": 59, "duration": 11, "velocity": 56}, {"time": 620, "pitch": 63, "duration": 11, "velocity": 66}, {"time": 620, "pitch": 66, "duration": 11, "velocity": 66}, {"time": 626, "pitch": 54, "duration": 6, "velocity": 55}, {"time": 632, "pitch": 47, "duration": 23, "velocity": 72}, {"time": 632, "pitch": 59, "duration": 11, "velocity": 74}, {"time": 632, "pitch": 63, "duration": 11, "velocity": 89}, {"time": 632, "pitch": 66, "duration": 11, "velocity": 86}, {"time": 638, "pitch": 54, "duration": 10, "velocity": 64}, {"time": 644, "pitch": 59, "duration": 10, "velocity": 85}, {"time": 644, "pitch": 63, "duration": 11, "velocity": 97}, {"time": 644, "pitch": 66, "duration": 10, "velocity": 90}, {"time": 650, "pitch": 54, "duration": 6, "velocity": 43}, {"time": 656, "pitch": 47, "duration": 16, "velocity": 63}, {"time": 656, "pitch": 59, "duration": 10, "velocity": 67}, {"time": 656, "pitch": 63, "duration": 10, "velocity": 65}, {"time": 656, "pitch": 66, "duration": 10, "velocity": 62}, {"time": 662, "pitch": 54, "duration": 8, "velocity": 47}, {"time": 668, "pitch": 63, "duration": 8, "velocity": 95}, {"time": 668, "pitch": 66, "duration": 7, "velocity": 89}, {"time": 674, "pitch": 59, "duration": 6, "velocity": 72}, {"time": 680, "pitch": 42, "duration": 38, "velocity": 72}, {"time": 680, "pitch": 61, "duration": 11, "velocity": 72}, {"time": 680, "pitch": 66, "duration": 8, "velocity": 68}, {"time": 686, "pitch": 49, "duration": 30, "velocity": 40}, {"time": 692, "pitch": 61, "duration": 7, "velocity": 85}, {"time": 692, "pitch": 66, "duration": 5, "velocity": 71}, {"time": 698, "pitch": 54, "duration": 8, "velocity": 46}, {"time": 704, "pitch": 58, "duration": 9, "velocity": 63}, {"time": 704, "pitch": 61, "duration": 7, "velocity": 69}, {"time": 704, "pitch": 66, "duration": 6, "velocity": 68}, {"time": 710, "pitch": 54, "duration": 6, "velocity": 56}, {"time": 716, "pitch": 61, "duration": 11, "velocity": 90}, {"time": 716, "pitch": 66, "duration": 7, "velocity": 69}, {"time": 722, "pitch": 58, "duration": 4, "velocity": 52}, {"time": 728, "pitch": 40, "duration": 37, "velocity": 71}, {"time": 728, "pitch": 59, "duration": 10, "velocity": 71}, {"time": 728, "pitch": 64, "duration": 11, "velocity": 63}, {"time": 728, "pitch": 68, "duration": 10, "velocity": 56}, {"time": 734, "pitch": 47, "duration": 31, "velocity": 45}, {"time": 740, "pitch": 59, "duration": 10, "velocity": 71}, {"time": 740, "pitch": 64, "duration": 7, "velocity": 75}, {"time": 740, "pitch": 68, "duration": 7, "velocity": 76}, {"time": 746, "pitch": 52, "duration": 9, "velocity": 52}, {"time": 752, "pitch": 59, "duration": 11, "velocity": 72}, {"time": 752, "pitch": 64, "duration": 8, "velocity": 68}, {"time": 752, "pitch": 68, "duration": 8, "velocity": 64}, {"time": 758, "pitch": 52, "duration": 9, "velocity": 56}, {"time": 764, "pitch": 64, "duration": 6, "velocity": 85}, {"time": 764, "pitch": 68, "duration": 6, "velocity": 86}, {"time": 770, "pitch": 59, "duration": 5, "velocity": 66}, {"time": 776, "pitch": 47, "duration": 13, "velocity": 61}, {"time": 776, "pitch": 59, "duration": 7, "velocity": 64}, {"time": 776, "pitch": 63, "duration": 8, "velocity": 78}, {"time": 776, "pitch": 66, "duration": 8, "velocity": 78}, {"time": 782, "pitch": 54, "duration": 7, "velocity": 50}, {"time": 788, "pitch": 63, "duration": 7, "velocity": 85}, {"time": 788, "pitch": 66, "duration": 6, "velocity": 81}, {"time": 794, "pitch": 59, "duration": 5, "velocity": 72}, {"time": 800, "pitch": 44, "duration": 16, "velocity": 74}, {"time": 800, "pitch": 59, "duration": 10, "velocity": 72}, {"time": 800, "pitch": 63, "duration": 10, "velocity": 79}, {"time": 800, "pitch": 68, "duration": 9, "velocity": 75}, {"time": 806, "pitch": 51, "duration": 9, "velocity": 30}, {"time": 812, "pitch": 56, "duration": 3, "velocity": 74}, {"time": 812, "pitch": 63, "duration": 8, "velocity": 90}, {"time": 812, "pitch": 68, "duration": 8, "velocity": 79}, {"time": 818, "pitch": 59, "duration": 4, "velocity": 46}, {"time": 824, "pitch": 37, "duration": 21, "velocity": 63}, {"time": 824, "pitch": 61, "duration": 10, "velocity": 83}, {"time": 824, "pitch": 64, "duration": 10, "velocity": 73}, {"time": 824, "pitch": 68, "duration": 1, "velocity": 43}, {"time": 830, "pitch": 44, "duration": 8, "velocity": 47}, {"time": 836, "pitch": 49, "duration": 8, "velocity": 67}, {"time": 836, "pitch": 64, "duration": 7, "velocity": 66}, {"time": 836, "pitch": 68, "duration": 8, "velocity": 58}, {"time": 842, "pitch": 61, "duration": 5, "velocity": 74}, {"time": 848, "pitch": 42, "duration": 13, "velocity": 70}, {"time": 848, "pitch": 61, "duration": 10, "velocity": 79}, {"time": 848, "pitch": 66, "duration": 6, "velocity": 75}, {"time": 848, "pitch": 70, "duration": 7, "velocity": 78}, {"time": 854, "pitch": 49, "duration": 7, "velocity": 47}, {"time": 860, "pitch": 54, "duration": 4, "velocity": 61}, {"time": 860, "pitch": 66, "duration": 6, "velocity": 93}, {"time": 860, "pitch": 70, "duration": 6, "velocity": 89}, {"time": 866, "pitch": 61, "duration": 5, "velocity": 62}, {"time": 872, "pitch": 47, "duration": 46, "velocity": 69}, {"time": 872, "pitch": 63, "duration": 10, "velocity": 67}, {"time": 872, "pitch": 66, "duration": 6, "velocity": 68}, {"time": 878, "pitch": 54, "duration": 8, "velocity": 66}, {"time": 884, "pitch": 59, "duration": 11, "velocity": 72}, {"time": 884, "pitch": 63, "duration": 8, "velocity": 72}, {"time": 884, "pitch": 66, "duration": 8, "velocity": 69}, {"time": 890, "pitch": 54, "duration": 9, "velocity": 53}, {"time": 896, "pitch": 59, "duration": 11, "velocity": 73}, {"time": 896, "pitch": 63, "duration": 11, "velocity": 76}, {"time": 896, "pitch": 66, "duration": 10, "velocity": 74}, {"time": 902, "pitch": 54, "duration": 8, "velocity": 74}, {"time": 908, "pitch": 63, "duration": 7, "velocity": 99}, {"time": 908, "pitch": 66, "duration": 7, "velocity": 107}, {"time": 911, "pitch": 54, "duration": 8, "velocity": 75}, {"time": 914, "pitch": 59, "duration": 13, "velocity": 75}, {"time": 920, "pitch": 47, "duration": 20, "velocity": 75}, {"time": 920, "pitch": 63, "duration": 7, "velocity": 82}, {"time": 920, "pitch": 66, "duration": 7, "velocity": 89}, {"time": 926, "pitch": 54, "duration": 19, "velocity": 63}, {"time": 932, "pitch": 63, "duration": 21, "velocity": 107}, {"time": 932, "pitch": 66, "duration": 19, "velocity": 107}, {"time": 938, "pitch": 59, "duration": 14, "velocity": 95}, {"time": 944, "pitch": 47, "duration": 14, "velocity": 78}, {"time": 950, "pitch": 54, "duration": 7, "velocity": 69}, {"time": 956, "pitch": 63, "duration": 10, "velocity": 100}, {"time": 956, "pitch": 66, "duration": 7, "velocity": 95}, {"time": 962, "pitch": 59, "duration": 5, "velocity": 88}, {"time": 968, "pitch": 40, "duration": 20, "velocity": 77}, {"time": 968, "pitch": 59, "duration": 16, "velocity": 92}, {"time": 968, "pitch": 64, "duration": 20, "velocity": 86}, {"time": 968, "pitch": 68, "duration": 20, "velocity": 92}, {"time": 974, "pitch": 47, "duration": 16, "velocity": 48}, {"time": 980, "pitch": 52, "duration": 9, "velocity": 85}, {"time": 986, "pitch": 59, "duration": 4, "velocity": 73}, {"time": 992, "pitch": 39, "duration": 14, "velocity": 92}, {"time": 992, "pitch": 63, "duration": 7, "velocity": 96}, {"time": 992, "pitch": 66, "duration": 6, "velocity": 93}, {"time": 998, "pitch": 51, "duration": 10, "velocity": 34}, {"time": 1004, "pitch": 63, "duration": 6, "velocity": 95}, {"time": 1004, "pitch": 66, "duration": 7, "velocity": 92}, {"time": 1010, "pitch": 58, "duration": 3, "velocity": 70}, {"time": 1016, "pitch": 44, "duration": 22, "velocity": 86}, {"time": 1016, "pitch": 59, "duration": 14, "velocity": 69}, {"time": 1016, "pitch": 63, "duration": 10, "velocity": 82}, {"time": 1022, "pitch": 56, "duration": 19, "velocity": 85}, {"time": 1028, "pitch": 68, "duration": 8, "velocity": 95}, {"time": 1034, "pitch": 59, "duration": 5, "velocity": 71}, {"time": 1040, "pitch": 44, "duration": 14, "velocity": 93}, {"time": 1040, "pitch": 59, "duration": 11, "velocity": 81}, {"time": 1040, "pitch": 63, "duration": 11, "velocity": 86}, {"time": 1040, "pitch": 68, "duration": 11, "velocity": 86}, {"time": 1046, "pitch": 56, "duration": 5, "velocity": 69}, {"time": 1052, "pitch": 63, "duration": 7, "velocity": 93}, {"time": 1052, "pitch": 68, "duration": 7, "velocity": 96}, {"time": 1058, "pitch": 59, "duration": 2, "velocity": 69}, {"time": 1064, "pitch": 37, "duration": 14, "velocity": 78}, {"time": 1064, "pitch": 61, "duration": 10, "velocity": 95}, {"time": 1064, "pitch": 64, "duration": 7, "velocity": 85}, {"time": 1064, "pitch": 68, "duration": 7, "velocity": 93}, {"time": 1070, "pitch": 44, "duration": 7, "velocity": 50}, {"time": 1076, "pitch": 49, "duration": 5, "velocity": 71}, {"time": 1076, "pitch": 64, "duration": 6, "velocity": 76}, {"time": 1076, "pitch": 68, "duration": 6, "velocity": 83}, {"time": 1082, "pitch": 61, "duration": 2, "velocity": 81}, {"time": 1088, "pitch": 42, "duration": 15, "velocity": 72}, {"time": 1088, "pitch": 58, "duration": 10, "velocity": 100}, {"time": 1088, "pitch": 61, "duration": 7, "velocity": 92}, {"time": 1094, "pitch": 49, "duration": 10, "velocity": 61}, {"time": 1100, "pitch": 54, "duration": 1, "velocity": 77}, {"time": 1100, "pitch": 58, "duration": 5, "velocity": 100}, {"time": 1100, "pitch": 61, "duration": 4, "velocity": 93}, {"time": 1112, "pitch": 47, "duration": 38, "velocity": 70}, {"time": 1112, "pitch": 59, "duration": 10, "velocity": 88}, {"time": 1112, "pitch": 63, "duration": 10, "velocity": 100}, {"time": 1112, "pitch": 66, "duration": 10, "velocity": 93}, {"time": 1118, "pitch": 54, "duration": 9, "velocity": 52}, {"time": 1124, "pitch": 63, "duration": 11, "velocity": 102}, {"time": 1124, "pitch": 66, "duration": 10, "velocity": 96}, {"time": 1130, "pitch": 54, "duration": 9, "velocity": 63}, {"time": 1136, "pitch": 59, "duration": 7, "velocity": 85}, {"time": 1136, "pitch": 63, "duration": 9, "velocity": 92}, {"time": 1136, "pitch": 66, "duration": 8, "velocity": 85}, {"time": 1142, "pitch": 54, "duration": 8, "velocity": 76}, {"time": 1148, "pitch": 63, "duration": 7, "velocity": 107}, {"time": 1148, "pitch": 66, "duration": 7, "velocity": 100}, {"time": 1154, "pitch": 59, "duration": 4, "velocity": 81}, {"time": 1160, "pitch": 40, "duration": 36, "velocity": 79}, {"time": 1160, "pitch": 59, "duration": 15, "velocity": 88}, {"time": 1160, "pitch": 64, "duration": 20, "velocity": 92}, {"time": 1160, "pitch": 68, "duration": 18, "velocity": 93}, {"time": 1166, "pitch": 47, "duration": 31, "velocity": 58}, {"time": 1172, "pitch": 52, "duration": 17, "velocity": 86}, {"time": 1178, "pitch": 59, "duration": 5, "velocity": 89}, {"time": 1184, "pitch": 59, "duration": 10, "velocity": 96}, {"time": 1184, "pitch": 64, "duration": 9, "velocity": 93}, {"time": 1184, "pitch": 68, "duration": 10, "velocity": 93}, {"time": 1190, "pitch": 52, "duration": 5, "velocity": 73}, {"time": 1196, "pitch": 64, "duration": 7, "velocity": 100}, {"time": 1196, "pitch": 68, "duration": 6, "velocity": 95}, {"time": 1202, "pitch": 59, "duration": 5, "velocity": 89}, {"time": 1208, "pitch": 42, "duration": 22, "velocity": 81}, {"time": 1208, "pitch": 61, "duration": 10, "velocity": 97}, {"time": 1208, "pitch": 66, "duration": 10, "velocity": 100}, {"time": 1208, "pitch": 70, "duration": 9, "velocity": 97}, {"time": 1214, "pitch": 49, "duration": 18, "velocity": 35}, {"time": 1220, "pitch": 61, "duration": 10, "velocity": 99}, {"time": 1220, "pitch": 66, "duration": 10, "velocity": 92}, {"time": 1220, "pitch": 70, "duration": 8, "velocity": 83}, {"time": 1226, "pitch": 54, "duration": 7, "velocity": 37}, {"time": 1232, "pitch": 42, "duration": 25, "velocity": 77}, {"time": 1232, "pitch": 61, "duration": 11, "velocity": 93}, {"time": 1232, "pitch": 66, "duration": 11, "velocity": 81}, {"time": 1232, "pitch": 70, "duration": 10, "velocity": 72}, {"time": 1244, "pitch": 66, "duration": 12, "velocity": 97}, {"time": 1244, "pitch": 70, "duration": 12, "velocity": 92}, {"time": 1250, "pitch": 61, "duration": 6, "velocity": 93}, {"time": 1256, "pitch": 47, "duration": 48, "velocity": 78}, {"time": 1256, "pitch": 59, "duration": 10, "velocity": 79}, {"time": 1256, "pitch": 66, "duration": 1, "velocity": 72}, {"time": 1262, "pitch": 54, "duration": 9, "velocity": 90}, {"time": 1268, "pitch": 59, "duration": 10, "velocity": 86}, {"time": 1268, "pitch": 63, "duration": 11, "velocity": 73}, {"time": 1268, "pitch": 66, "duration": 8, "velocity": 76}, {"time": 1274, "pitch": 54, "duration": 30, "velocity": 83}, {"time": 1280, "pitch": 59, "duration": 12, "velocity": 83}, {"time": 1280, "pitch": 63, "duration": 11, "velocity": 92}, {"time": 1280, "pitch": 66, "duration": 11, "velocity": 88}, {"time": 1292, "pitch": 63, "duration": 12, "velocity": 86}, {"time": 1292, "pitch": 66, "duration": 12, "velocity": 75}, {"time": 1304, "pitch": 47, "duration": 22, "velocity": 81}, {"time": 1307, "pitch": 54, "duration": 21, "velocity": 79}, {"time": 1310, "pitch": 59, "duration": 4, "velocity": 78}, {"time": 1313, "pitch": 63, "duration": 4, "velocity": 89}, {"time": 1316, "pitch": 66, "duration": 19, "velocity": 102}, {"time": 1322, "pitch": 63, "duration": 16, "velocity": 70}, {"time": 1328, "pitch": 47, "duration": 16, "velocity": 76}, {"time": 1334, "pitch": 54, "duration": 7, "velocity": 59}, {"time": 1340, "pitch": 66, "duration": 12, "velocity": 117}, {"time": 1346, "pitch": 63, "duration": 6, "velocity": 72}, {"time": 1352, "pitch": 40, "duration": 38, "velocity": 88}, {"time": 1358, "pitch": 47, "duration": 33, "velocity": 46}, {"time": 1364, "pitch": 52, "duration": 15, "velocity": 81}, {"time": 1370, "pitch": 59, "duration": 7, "velocity": 78}, {"time": 1376, "pitch": 64, "duration": 11, "velocity": 74}, {"time": 1376, "pitch": 68, "duration": 11, "velocity": 85}, {"time": 1382, "pitch": 52, "duration": 8, "velocity": 56}, {"time": 1388, "pitch": 64, "duration": 12, "velocity": 86}, {"time": 1388, "pitch": 68, "duration": 12, "velocity": 90}, {"time": 1394, "pitch": 59, "duration": 7, "velocity": 82}, {"time": 1400, "pitch": 47, "duration": 16, "velocity": 76}, {"time": 1406, "pitch": 54, "duration": 8, "velocity": 82}, {"time": 1412, "pitch": 66, "duration": 11, "velocity": 117}, {"time": 1418, "pitch": 63, "duration": 7, "velocity": 83}, {"time": 1424, "pitch": 44, "duration": 19, "velocity": 77}, {"time": 1430, "pitch": 51, "duration": 12, "velocity": 56}, {"time": 1436, "pitch": 56, "duration": 6, "velocity": 93}, {"time": 1442, "pitch": 59, "duration": 8, "velocity": 89}, {"time": 1448, "pitch": 42, "duration": 41, "velocity": 88}, {"time": 1454, "pitch": 49, "duration": 35, "velocity": 67}, {"time": 1460, "pitch": 54, "duration": 15, "velocity": 92}, {"time": 1466, "pitch": 58, "duration": 21, "velocity": 93}, {"time": 1472, "pitch": 61, "duration": 7, "velocity": 90}, {"time": 1472, "pitch": 66, "duration": 8, "velocity": 93}, {"time": 1478, "pitch": 54, "duration": 8, "velocity": 83}, {"time": 1484, "pitch": 66, "duration": 12, "velocity": 117}, {"time": 1487, "pitch": 54, "duration": 3, "velocity": 93}, {"time": 1490, "pitch": 61, "duration": 5, "velocity": 117}, {"time": 1493, "pitch": 58, "duration": 3, "velocity": 96}, {"time": 1496, "pitch": 47, "duration": 22, "velocity": 69}, {"time": 1499, "pitch": 54, "duration": 11, "velocity": 82}, {"time": 1502, "pitch": 59, "duration": 4, "velocity": 89}, {"time": 1505, "pitch": 63, "duration": 4, "velocity": 95}, {"time": 1508, "pitch": 66, "duration": 12, "velocity": 93}, {"time": 1511, "pitch": 54, "duration": 9, "velocity": 67}, {"time": 1514, "pitch": 63, "duration": 7, "velocity": 50}, {"time": 1517, "pitch": 59, "duration": 4, "velocity": 56}, {"time": 1520, "pitch": 47, "duration": 19, "velocity": 71}, {"time": 1526, "pitch": 54, "duration": 8, "velocity": 44}, {"time": 1532, "pitch": 66, "duration": 11, "velocity": 99}, {"time": 1535, "pitch": 54, "duration": 3, "velocity": 69}, {"time": 1538, "pitch": 63, "duration": 5, "velocity": 85}, {"time": 1541, "pitch": 59, "duration": 10, "velocity": 71}, {"time": 1544, "pitch": 40, "duration": 22, "velocity": 76}, {"time": 1547, "pitch": 47, "duration": 22, "velocity": 56}, {"time": 1550, "pitch": 52, "duration": 28, "velocity": 79}, {"time": 1553, "pitch": 59, "duration": 11, "velocity": 76}, {"time": 1556, "pitch": 68, "duration": 23, "velocity": 127}, {"time": 1562, "pitch": 64, "duration": 17, "velocity": 75}, {"time": 1568, "pitch": 40, "duration": 15, "velocity": 69}, {"time": 1568, "pitch": 59, "duration": 14, "velocity": 77}, {"time": 1574, "pitch": 47, "duration": 10, "velocity": 48}, {"time": 1580, "pitch": 52, "duration": 10, "velocity": 67}, {"time": 1580, "pitch": 64, "duration": 12, "velocity": 79}, {"time": 1580, "pitch": 68, "duration": 12, "velocity": 93}, {"time": 1586, "pitch": 59, "duration": 7, "velocity": 79}, {"time": 1592, "pitch": 47, "duration": 15, "velocity": 76}, {"time": 1598, "pitch": 54, "duration": 9, "velocity": 66}, {"time": 1604, "pitch": 63, "duration": 14, "velocity": 97}, {"time": 1604, "pitch": 66, "duration": 13, "velocity": 107}, {"time": 1610, "pitch": 59, "duration": 7, "velocity": 78}, {"time": 1616, "pitch": 42, "duration": 16, "velocity": 89}, {"time": 1622, "pitch": 49, "duration": 10, "velocity": 37}, {"time": 1628, "pitch": 54, "duration": 7, "velocity": 69}, {"time": 1628, "pitch": 61, "duration": 12, "velocity": 88}, {"time": 1628, "pitch": 66, "duration": 8, "velocity": 86}, {"time": 1634, "pitch": 58, "duration": 6, "velocity": 93}, {"time": 1640, "pitch": 47, "duration": 23, "velocity": 77}, {"time": 1646, "pitch": 54, "duration": 20, "velocity": 78}, {"time": 1652, "pitch": 63, "duration": 24, "velocity": 96}, {"time": 1658, "pitch": 66, "duration": 12, "velocity": 88}, {"time": 1664, "pitch": 47, "duration": 22, "velocity": 88}, {"time": 1670, "pitch": 54, "duration": 19, "velocity": 83}, {"time": 1676, "pitch": 59, "duration": 55, "velocity": 75}, {"time": 1682, "pitch": 63, "duration": 16, "velocity": 85}, {"time": 1688, "pitch": 47, "duration": 22, "velocity": 67}, {"time": 1694, "pitch": 54, "duration": 19, "velocity": 56}, {"time": 1700, "pitch": 63, "duration": 35, "velocity": 75}, {"time": 1706, "pitch": 66, "duration": 29, "velocity": 79}, {"time": 1712, "pitch": 47, "duration": 24, "velocity": 72}, {"time": 1736, "pitch": 47, "duration": 22, "velocity": 76}, {"time": 1736, "pitch": 59, "duration": 9, "velocity": 81}, {"time": 1736, "pitch": 63, "duration": 8, "velocity": 85}, {"time": 1736, "pitch": 66, "duration": 8, "velocity": 71}, {"time": 1742, "pitch": 54, "duration": 19, "velocity": 75}, {"time": 1748, "pitch": 63, "duration": 19, "velocity": 95}, {"time": 1748, "pitch": 66, "duration": 18, "velocity": 85}, {"time": 1754, "pitch": 59, "duration": 14, "velocity": 68}, {"time": 1760, "pitch": 47, "duration": 14, "velocity": 74}, {"time": 1766, "pitch": 54, "duration": 6, "velocity": 76}, {"time": 1772, "pitch": 63, "duration": 10, "velocity": 90}, {"time": 1772, "pitch": 66, "duration": 6, "velocity": 82}, {"time": 1778, "pitch": 59, "duration": 5, "velocity": 72}, {"time": 1784, "pitch": 40, "duration": 14, "velocity": 65}, {"time": 1784, "pitch": 59, "duration": 10, "velocity": 73}, {"time": 1784, "pitch": 64, "duration": 10, "velocity": 75}, {"time": 1784, "pitch": 68, "duration": 10, "velocity": 77}, {"time": 1790, "pitch": 47, "duration": 8, "velocity": 36}, {"time": 1796, "pitch": 52, "duration": 6, "velocity": 52}, {"time": 1796, "pitch": 64, "duration": 6, "velocity": 88}, {"time": 1796, "pitch": 68, "duration": 7, "velocity": 93}, {"time": 1802, "pitch": 59, "duration": 5, "velocity": 76}, {"time": 1808, "pitch": 47, "duration": 22, "velocity": 59}, {"time": 1808, "pitch": 59, "duration": 10, "velocity": 69}, {"time": 1808, "pitch": 63, "duration": 10, "velocity": 76}, {"time": 1808, "pitch": 66, "duration": 8, "velocity": 75}, {"time": 1814, "pitch": 54, "duration": 10, "velocity": 49}, {"time": 1820, "pitch": 59, "duration": 11, "velocity": 56}, {"time": 1820, "pitch": 63, "duration": 11, "velocity": 66}, {"time": 1820, "pitch": 66, "duration": 11, "velocity": 66}, {"time": 1826, "pitch": 54, "duration": 6, "velocity": 55}, {"time": 1832, "pitch": 47, "duration": 23, "velocity": 72}, {"time": 1832, "pitch": 59, "duration": 11, "velocity": 74}, {"time": 1832, "pitch": 63, "duration": 11, "velocity": 89}, {"time": 1832, "pitch": 66, "duration": 11, "velocity": 86}, {"time": 1838, "pitch": 54, "duration": 10, "velocity": 64}, {"time": 1844, "pitch": 59, "duration": 10, "velocity": 85}, {"time": 1844, "pitch": 63, "duration": 11, "velocity": 97}, {"time": 1844, "pitch": 66, "duration": 10, "velocity": 90}, {"time": 1850, "pitch": 54, "duration": 6, "velocity": 43}, {"time": 1856, "pitch": 47, "duration": 16, "velocity": 63}, {"time": 1856, "pitch": 59, "duration": 10, "velocity": 67}, {"time": 1856, "pitch": 63, "duration": 10, "velocity": 65}, {"time": 1856, "pitch": 66, "duration": 10, "velocity": 62}, {"time": 1862, "pitch": 54, "duration": 8, "velocity": 47}, {"time": 1868, "pitch": 63, "duration": 8, "velocity": 95}, {"time": 1868, "pitch": 66, "duration": 7, "velocity": 89}, {"time": 1874, "pitch": 59, "duration": 6, "velocity": 72}, {"time": 1880, "pitch": 42, "duration": 38, "velocity": 72}, {"time": 1880, "pitch": 61, "duration": 11, "velocity": 72}, {"time": 1880, "pitch": 66, "duration": 8, "velocity": 68}, {"time": 1886, "pitch": 49, "duration": 30, "velocity": 40}, {"time": 1892, "pitch": 61, "duration": 7, "velocity": 85}, {"time": 1892, "pitch": 66, "duration": 5, "velocity": 71}, {"time": 1898, "pitch": 54, "duration": 8, "velocity": 46}, {"time": 1904, "pitch": 58, "duration": 9, "velocity": 63}, {"time": 1904, "pitch": 61, "duration": 7, "velocity": 69}, {"time": 1904, "pitch": 66, "duration": 6, "velocity": 68}, {"time": 1910, "pitch": 54, "duration": 6, "velocity": 56}, {"time": 1916, "pitch": 61, "duration": 11, "velocity": 90}, {"time": 1916, "pitch": 66, "duration": 7, "velocity": 69}, {"time": 1922, "pitch": 58, "duration": 4, "velocity": 52}, {"time": 1928, "pitch": 40, "duration": 37, "velocity": 71}, {"time": 1928, "pitch": 59, "duration": 10, "velocity": 71}, {"time": 1928, "pitch": 64, "duration": 11, "velocity": 63}, {"time": 1928, "pitch": 68, "duration": 10, "velocity": 56}, {"time": 1934, "pitch": 47, "duration": 31, "velocity": 45}, {"time": 1940, "pitch": 59, "duration": 10, "velocity": 71}, {"time": 1940, "pitch": 64, "duration": 7, "velocity": 75}, {"time": 1940, "pitch": 68, "duration": 7, "velocity": 76}, {"time": 1946, "pitch": 52, "duration": 9, "velocity": 52}, {"time": 1952, "pitch": 59, "duration": 11, "velocity": 72}, {"time": 1952, "pitch": 64, "duration": 8, "velocity": 68}, {"time": 1952, "pitch": 68, "duration": 8, "velocity": 64}, {"time": 1958, "pitch": 52, "duration": 9, "velocity": 56}, {"time": 1964, "pitch": 64, "duration": 6, "velocity": 85}, {"time": 1964, "pitch": 68, "duration": 6, "velocity": 86}, {"time": 1970, "pitch": 59, "duration": 5, "velocity": 66}, {"time": 1976, "pitch": 47, "duration": 13, "velocity": 61}, {"time": 1976, "pitch": 59, "duration": 7, "velocity": 64}, {"time": 1976, "pitch": 63, "duration": 8, "velocity": 78}, {"time": 1976, "pitch": 66, "duration": 8, "velocity": 78}, {"time": 1982, "pitch": 54, "duration": 7, "velocity": 50}, {"time": 1988, "pitch": 63, "duration": 7, "velocity": 85}, {"time": 1988, "pitch": 66, "duration": 6, "velocity": 81}, {"time": 1994, "pitch": 59, "duration": 5, "velocity": 72}, {"time": 2000, "pitch": 44, "duration": 16, "velocity": 74}, {"time": 2000, "pitch": 59, "duration": 10, "velocity": 72}, {"time": 2000, "pitch": 63, "duration": 10, "velocity": 79}, {"time": 2000, "pitch": 68, "duration": 9, "velocity": 75}, {"time": 2006, "pitch": 51, "duration": 9, "velocity": 30}, {"time": 2012, "pitch": 56, "duration": 3, "velocity": 74}, {"time": 2012, "pitch": 63, "duration": 8, "velocity": 90}, {"time": 2012, "pitch": 68, "duration": 8, "velocity": 79}, {"time": 2018, "pitch": 59, "duration": 4, "velocity": 46}, {"time": 2024, "pitch": 37, "duration": 21, "velocity": 63}, {"time": 2024, "pitch": 61, "duration": 10, "velocity": 83}, {"time": 2024, "pitch": 64, "duration": 10, "velocity": 73}, {"time": 2024, "pitch": 68, "duration": 1, "velocity": 43}, {"time": 2030, "pitch": 44, "duration": 8, "velocity": 47}, {"time": 2036, "pitch": 49, "duration": 8, "velocity": 67}, {"time": 2036, "pitch": 64, "duration": 7, "velocity": 66}, {"time": 2036, "pitch": 68, "duration": 8, "velocity": 58}, {"time": 2042, "pitch": 61, "duration": 5, "velocity": 74}, {"time": 2048, "pitch": 37, "duration": 14, "velocity": 69}, {"time": 2048, "pitch": 61, "duration": 10, "velocity": 73}, {"time": 2048, "pitch": 64, "duration": 10, "velocity": 63}, {"time": 2048, "pitch": 68, "duration": 8, "velocity": 66}, {"time": 2054, "pitch": 44, "duration": 8, "velocity": 26}, {"time": 2060, "pitch": 49, "duration": 6, "velocity": 58}, {"time": 2060, "pitch": 64, "duration": 8, "velocity": 76}, {"time": 2060, "pitch": 68, "duration": 7, "velocity": 68}, {"time": 2066, "pitch": 61, "duration": 5, "velocity": 70}, {"time": 2072, "pitch": 42, "duration": 23, "velocity": 72}, {"time": 2072, "pitch": 61, "duration": 11, "velocity": 72}, {"time": 2072, "pitch": 66, "duration": 11, "velocity": 68}, {"time": 2072, "pitch": 70, "duration": 7, "velocity": 69}, {"time": 2078, "pitch": 49, "duration": 7, "velocity": 46}, {"time": 2084, "pitch": 54, "duration": 11, "velocity": 85}, {"time": 2084, "pitch": 61, "duration": 12, "velocity": 69}, {"time": 2084, "pitch": 66, "duration": 12, "velocity": 64}, {"time": 2084, "pitch": 70, "duration": 8, "velocity": 66}, {"time": 2090, "pitch": 49, "duration": 5, "velocity": 58}, {"time": 2096, "pitch": 42, "duration": 22, "velocity": 55}, {"time": 2096, "pitch": 49, "duration": 22, "velocity": 55}, {"time": 2096, "pitch": 54, "duration": 23, "velocity": 66}, {"time": 2096, "pitch": 61, "duration": 11, "velocity": 90}, {"time": 2096, "pitch": 66, "duration": 11, "velocity": 89}, {"time": 2096, "pitch": 70, "duration": 10, "velocity": 88}, {"time": 2108, "pitch": 61, "duration": 10, "velocity": 70}, {"time": 2108, "pitch": 66, "duration": 10, "velocity": 70}, {"time": 2108, "pitch": 70, "duration": 10, "velocity": 81}, {"time": 2120, "pitch": 47, "duration": 22, "velocity": 76}, {"time": 2120, "pitch": 59, "duration": 9, "velocity": 81}, {"time": 2120, "pitch": 63, "duration": 8, "velocity": 85}, {"time": 2120, "pitch": 66, "duration": 8, "velocity": 71}, {"time": 2126, "pitch": 54, "duration": 19, "velocity": 75}, {"time": 2132, "pitch": 63, "duration": 19, "velocity": 95}, {"time": 2132, "pitch": 66, "duration": 18, "velocity": 85}, {"time": 2138, "pitch": 59, "duration": 14, "velocity": 68}, {"time": 2144, "pitch": 47, "duration": 14, "velocity": 74}, {"time": 2150, "pitch": 54, "duration": 6, "velocity": 76}, {"time": 2156, "pitch": 63, "duration": 10, "velocity": 90}, {"time": 2156, "pitch": 66, "duration": 6, "velocity": 82}, {"time": 2162, "pitch": 59, "duration": 5, "velocity": 72}, {"time": 2168, "pitch": 40, "duration": 14, "velocity": 65}, {"time": 2168, "pitch": 59, "duration": 10, "velocity": 73}, {"time": 2168, "pitch": 64, "duration": 10, "velocity": 75}, {"time": 2168, "pitch": 68, "duration": 10, "velocity": 77}, {"time": 2174, "pitch": 47, "duration": 8, "velocity": 36}, {"time": 2180, "pitch": 52, "duration": 6, "velocity": 52}, {"time": 2180, "pitch": 64, "duration": 6, "velocity": 88}, {"time": 2180, "pitch": 68, "duration": 7, "velocity": 93}, {"time": 2186, "pitch": 59, "duration": 5, "velocity": 76}, {"time": 2192, "pitch": 47, "duration": 22, "velocity": 59}, {"time": 2192, "pitch": 59, "duration": 10, "velocity": 69}, {"time": 2192, "pitch": 63, "duration": 10, "velocity": 76}, {"time": 2192, "pitch": 66, "duration": 8, "velocity": 75}, {"time": 2198, "pitch": 54, "duration": 10, "velocity": 49}, {"time": 2204, "pitch": 59, "duration": 11, "velocity": 56}, {"time": 2204, "pitch": 63, "duration": 11, "velocity": 66}, {"time": 2204, "pitch": 66, "duration": 11, "velocity": 66}, {"time": 2210, "pitch": 54, "duration": 6, "velocity": 55}, {"time": 2216, "pitch": 47, "duration": 23, "velocity": 72}, {"time": 2216, "pitch": 59, "duration": 11, "velocity": 74}, {"time": 2216, "pitch": 63, "duration": 11, "velocity": 89}, {"time": 2216, "pitch": 66, "duration": 11, "velocity": 86}, {"time": 2222, "pitch": 54, "duration": 10, "velocity": 64}, {"time": 2228, "pitch": 59, "duration": 10, "velocity": 85}, {"time": 2228, "pitch": 63, "duration": 11, "velocity": 97}, {"time": 2228, "pitch": 66, "duration": 10, "velocity": 90}, {"time": 2234, "pitch": 54, "duration": 6, "velocity": 43}, {"time": 2240, "pitch": 47, "duration": 16, "velocity": 63}, {"time": 2240, "pitch": 59, "duration": 10, "velocity": 67}, {"time": 2240, "pitch": 63, "duration": 10, "velocity": 65}, {"time": 2240, "pitch": 66, "duration": 10, "velocity": 62}, {"time": 2246, "pitch": 54, "duration": 8, "velocity": 47}, {"time": 2252, "pitch": 63, "duration": 8, "velocity": 95}, {"time": 2252, "pitch": 66, "duration": 7, "velocity": 89}, {"time": 2258, "pitch": 59, "duration": 6, "velocity": 72}, {"time": 2264, "pitch": 42, "duration": 38, "velocity": 72}, {"time": 2264, "pitch": 61, "duration": 11, "velocity": 72}, {"time": 2264, "pitch": 66, "duration": 8, "velocity": 68}, {"time": 2270, "pitch": 49, "duration": 30, "velocity": 40}, {"time": 2276, "pitch": 61, "duration": 7, "velocity": 85}, {"time": 2276, "pitch": 66, "duration": 5, "velocity": 71}, {"time": 2282, "pitch": 54, "duration": 8, "velocity": 46}, {"time": 2288, "pitch": 58, "duration": 9, "velocity": 63}, {"time": 2288, "pitch": 61, "duration": 7, "velocity": 69}, {"time": 2288, "pitch": 66, "duration": 6, "velocity": 68}, {"time": 2294, "pitch": 54, "duration": 6, "velocity": 56}, {"time": 2300, "pitch": 61, "duration": 11, "velocity": 90}, {"time": 2300, "pitch": 66, "duration": 7, "velocity": 69}, {"time": 2306, "pitch": 58, "duration": 4, "velocity": 52}, {"time": 2312, "pitch": 40, "duration": 37, "velocity": 71}, {"time": 2312, "pitch": 59, "duration": 10, "velocity": 71}, {"time": 2312, "pitch": 64, "duration": 11, "velocity": 63}, {"time": 2312, "pitch": 68, "duration": 10, "velocity": 56}, {"time": 2318, "pitch": 47, "duration": 31, "velocity": 45}, {"time": 2324, "pitch": 59, "duration": 10, "velocity": 71}, {"time": 2324, "pitch": 64, "duration": 7, "velocity": 75}, {"time": 2324, "pitch": 68, "duration": 7, "velocity": 76}, {"time": 2330, "pitch": 52, "duration": 9, "velocity": 52}, {"time": 2336, "pitch": 59, "duration": 11, "velocity": 72}, {"time": 2336, "pitch": 64, "duration": 8, "velocity": 68}, {"time": 2336, "pitch": 68, "duration": 8, "velocity": 64}, {"time": 2342, "pitch": 52, "duration": 9, "velocity": 56}, {"time": 2348, "pitch": 64, "duration": 6, "velocity": 85}, {"time": 2348, "pitch": 68, "duration": 6, "velocity": 86}, {"time": 2354, "pitch": 59, "duration": 5, "velocity": 66}, {"time": 2360, "pitch": 47, "duration": 13, "velocity": 61}, {"time": 2360, "pitch": 59, "duration": 7, "velocity": 64}, {"time": 2360, "pitch": 63, "duration": 8, "velocity": 78}, {"time": 2360, "pitch": 66, "duration": 8, "velocity": 78}, {"time": 2366, "pitch": 54, "duration": 7, "velocity": 50}, {"time": 2372, "pitch": 63, "duration": 7, "velocity": 85}, {"time": 2372, "pitch": 66, "duration": 6, "velocity": 81}, {"time": 2378, "pitch": 59, "duration": 5, "velocity": 72}, {"time": 2384, "pitch": 44, "duration": 16, "velocity": 74}, {"time": 2384, "pitch": 59, "duration": 10, "velocity": 72}, {"time": 2384, "pitch": 63, "duration": 10, "velocity": 79}, {"time": 2384, "pitch": 68, "duration": 9, "velocity": 75}, {"time": 2390, "pitch": 51, "duration": 9, "velocity": 30}, {"time": 2396, "pitch": 56, "duration": 3, "velocity": 74}, {"time": 2396, "pitch": 63, "duration": 8, "velocity": 90}, {"time": 2396, "pitch": 68, "duration": 8, "velocity": 79}, {"time": 2402, "pitch": 59, "duration": 4, "velocity": 46}, {"time": 2408, "pitch": 37, "duration": 21, "velocity": 63}, {"time": 2408, "pitch": 61, "duration": 10, "velocity": 83}, {"time": 2408, "pitch": 64, "duration": 10, "velocity": 73}, {"time": 2408, "pitch": 68, "duration": 1, "velocity": 43}, {"time": 2414, "pitch": 44, "duration": 8, "velocity": 47}, {"time": 2420, "pitch": 49, "duration": 8, "velocity": 67}, {"time": 2420, "pitch": 64, "duration": 7, "velocity": 66}, {"time": 2420, "pitch": 68, "duration": 8, "velocity": 58}, {"time": 2426, "pitch": 61, "duration": 5, "velocity": 74}, {"time": 2432, "pitch": 42, "duration": 13, "velocity": 70}, {"time": 2432, "pitch": 61, "duration": 10, "velocity": 79}, {"time": 2432, "pitch": 66, "duration": 6, "velocity": 75}, {"time": 2432, "pitch": 70, "duration": 7, "velocity": 78}, {"time": 2438, "pitch": 49, "duration": 7, "velocity": 47}, {"time": 2444, "pitch": 54, "duration": 4, "velocity": 61}, {"time": 2444, "pitch": 66, "duration": 6, "velocity": 93}, {"time": 2444, "pitch": 70, "duration": 6, "velocity": 89}, {"time": 2450, "pitch": 61, "duration": 5, "velocity": 62}, {"time": 2456, "pitch": 47, "duration": 46, "velocity": 69}, {"time": 2456, "pitch": 63, "duration": 10, "velocity": 67}, {"time": 2456, "pitch": 66, "duration": 6, "velocity": 68}, {"time": 2462, "pitch": 54, "duration": 8, "velocity": 66}, {"time": 2468, "pitch": 59, "duration": 11, "velocity": 72}, {"time": 2468, "pitch": 63, "duration": 8, "velocity": 72}, {"time": 2468, "pitch": 66, "duration": 8, "velocity": 69}, {"time": 2474, "pitch": 54, "duration": 9, "velocity": 53}, {"time": 2480, "pitch": 59, "duration": 11, "velocity": 73}, {"time": 2480, "pitch": 63, "duration": 11, "velocity": 76}, {"time": 2480, "pitch": 66, "duration": 10, "velocity": 74}, {"time": 2486, "pitch": 54, "duration": 8, "velocity": 74}, {"time": 2492, "pitch": 63, "duration": 7, "velocity": 99}, {"time": 2492, "pitch": 66, "duration": 7, "velocity": 107}, {"time": 2495, "pitch": 54, "duration": 8, "velocity": 75}, {"time": 2498, "pitch": 59, "duration": 13, "velocity": 75}, {"time": 2504, "pitch": 47, "duration": 20, "velocity": 75}, {"time": 2504, "pitch": 63, "duration": 7, "velocity": 82}, {"time": 2504, "pitch": 66, "duration": 7, "velocity": 89}, {"time": 2510, "pitch": 54, "duration": 19, "velocity": 63}, {"time": 2516, "pitch": 63, "duration": 21, "velocity": 107}, {"time": 2516, "pitch": 66, "duration": 19, "velocity": 107}, {"time": 2522, "pitch": 59, "duration": 14, "velocity": 95}, {"time": 2528, "pitch": 47, "duration": 14, "velocity": 78}, {"time": 2534, "pitch": 54, "duration": 7, "velocity": 69}, {"time": 2540, "pitch": 63, "duration": 10, "velocity": 100}, {"time": 2540, "pitch": 66, "duration": 7, "velocity": 95}, {"time": 2546, "pitch": 59, "duration": 5, "velocity": 88}, {"time": 2552, "pitch": 40, "duration": 20, "velocity": 77}, {"time": 2552, "pitch": 59, "duration": 16, "velocity": 92}, {"time": 2552, "pitch": 64, "duration": 20, "velocity": 86}, {"time": 2552, "pitch": 68, "duration": 20, "velocity": 92}, {"time": 2558, "pitch": 47, "duration": 16, "velocity": 48}, {"time": 2564, "pitch": 52, "duration": 9, "velocity": 85}, {"time": 2570, "pitch": 59, "duration": 4, "velocity": 73}, {"time": 2576, "pitch": 39, "duration": 14, "velocity": 92}, {"time": 2576, "pitch": 63, "duration": 7, "velocity": 96}, {"time": 2576, "pitch": 66, "duration": 6, "velocity": 93}, {"time": 2582, "pitch": 51, "duration": 10, "velocity": 34}, {"time": 2588, "pitch": 63, "duration": 6, "velocity": 95}, {"time": 2588, "pitch": 66, "duration": 7, "velocity": 92}, {"time": 2594, "pitch": 58, "duration": 3, "velocity": 70}, {"time": 2600, "pitch": 44, "duration": 22, "velocity": 86}, {"time": 2600, "pitch": 59, "duration": 14, "velocity": 69}, {"time": 2600, "pitch": 63, "duration": 10, "velocity": 82}, {"time": 2606, "pitch": 56, "duration": 19, "velocity": 85}, {"time": 2612, "pitch": 68, "duration": 8, "velocity": 95}, {"time": 2618, "pitch": 59, "duration": 5, "velocity": 71}, {"time": 2624, "pitch": 44, "duration": 14, "velocity": 93}, {"time": 2624, "pitch": 59, "duration": 11, "velocity": 81}, {"time": 2624, "pitch": 63, "duration": 11, "velocity": 86}, {"time": 2624, "pitch": 68, "duration": 11, "velocity": 86}, {"time": 2630, "pitch": 56, "duration": 5, "velocity": 69}, {"time": 2636, "pitch": 63, "duration": 7, "velocity": 93}, {"time": 2636, "pitch": 68, "duration": 7, "velocity": 96}, {"time": 2642, "pitch": 59, "duration": 2, "velocity": 69}, {"time": 2648, "pitch": 37, "duration": 14, "velocity": 78}, {"time": 2648, "pitch": 61, "duration": 10, "velocity": 95}, {"time": 2648, "pitch": 64, "duration": 7, "velocity": 85}, {"time": 2648, "pitch": 68, "duration": 7, "velocity": 93}, {"time": 2654, "pitch": 44, "duration": 7, "velocity": 50}, {"time": 2660, "pitch": 49, "duration": 5, "velocity": 71}, {"time": 2660, "pitch": 64, "duration": 6, "velocity": 76}, {"time": 2660, "pitch": 68, "duration": 6, "velocity": 83}, {"time": 2666, "pitch": 61, "duration": 2, "velocity": 81}, {"time": 2672, "pitch": 42, "duration": 15, "velocity": 72}, {"time": 2672, "pitch": 58, "duration": 10, "velocity": 100}, {"time": 2672, "pitch": 61, "duration": 7, "velocity": 92}, {"time": 2678, "pitch": 49, "duration": 10, "velocity": 61}, {"time": 2684, "pitch": 54, "duration": 1, "velocity": 77}, {"time": 2684, "pitch": 58, "duration": 5, "velocity": 100}, {"time": 2684, "pitch": 61, "duration": 4, "velocity": 93}, {"time": 2696, "pitch": 47, "duration": 38, "velocity": 70}, {"time": 2696, "pitch": 59, "duration": 10, "velocity": 88}, {"time": 2696, "pitch": 63, "duration": 10, "velocity": 100}, {"time": 2696, "pitch": 66, "duration": 10, "velocity": 93}, {"time": 2702, "pitch": 54, "duration": 9, "velocity": 52}, {"time": 2708, "pitch": 63, "duration": 11, "velocity": 102}, {"time": 2708, "pitch": 66, "duration": 10, "velocity": 96}, {"time": 2714, "pitch": 54, "duration": 9, "velocity": 63}, {"time": 2720, "pitch": 59, "duration": 7, "velocity": 85}, {"time": 2720, "pitch": 63, "duration": 9, "velocity": 92}, {"time": 2720, "pitch": 66, "duration": 8, "velocity": 85}, {"time": 2726, "pitch": 54, "duration": 8, "velocity": 76}, {"time": 2732, "pitch": 63, "duration": 7, "velocity": 107}, {"time": 2732, "pitch": 66, "duration": 7, "velocity": 100}, {"time": 2738, "pitch": 59, "duration": 4, "velocity": 81}, {"time": 2744, "pitch": 40, "duration": 36, "velocity": 79}, {"time": 2744, "pitch": 59, "duration": 15, "velocity": 88}, {"time": 2744, "pitch": 64, "duration": 20, "velocity": 92}, {"time": 2744, "pitch": 68, "duration": 18, "velocity": 93}, {"time": 2750, "pitch": 47, "duration": 31, "velocity": 58}, {"time": 2756, "pitch": 52, "duration": 17, "velocity": 86}, {"time": 2762, "pitch": 59, "duration": 5, "velocity": 89}, {"time": 2768, "pitch": 59, "duration": 10, "velocity": 96}, {"time": 2768, "pitch": 64, "duration": 9, "velocity": 93}, {"time": 2768, "pitch": 68, "duration": 10, "velocity": 93}, {"time": 2774, "pitch": 52, "duration": 5, "velocity": 73}, {"time": 2780, "pitch": 64, "duration": 7, "velocity": 100}, {"time": 2780, "pitch": 68, "duration": 6, "velocity": 95}, {"time": 2786, "pitch": 59, "duration": 5, "velocity": 89}, {"time": 2792, "pitch": 42, "duration": 22, "velocity": 81}, {"time": 2792, "pitch": 61, "duration": 10, "velocity": 97}, {"time": 2792, "pitch": 66, "duration": 10, "velocity": 100}, {"time": 2792, "pitch": 70, "duration": 9, "velocity": 97}, {"time": 2798, "pitch": 49, "duration": 18, "velocity": 35}, {"time": 2804, "pitch": 61, "duration": 10, "velocity": 99}, {"time": 2804, "pitch": 66, "duration": 10, "velocity": 92}, {"time": 2804, "pitch": 70, "duration": 8, "velocity": 83}, {"time": 2810, "pitch": 54, "duration": 7, "velocity": 37}, {"time": 2816, "pitch": 42, "duration": 25, "velocity": 77}, {"time": 2816, "pitch": 61, "duration": 11, "velocity": 93}, {"time": 2816, "pitch": 66, "duration": 11, "velocity": 81}, {"time": 2816, "pitch": 70, "duration": 10, "velocity": 72}, {"time": 2828, "pitch": 66, "duration": 12, "velocity": 97}, {"time": 2828, "pitch": 70, "duration": 12, "velocity": 92}, {"time": 2834, "pitch": 61, "duration": 6, "velocity": 93}, {"time": 2840, "pitch": 47, "duration": 24, "velocity": 78}, {"time": 2840, "pitch": 59, "duration": 10, "velocity": 79}, {"time": 2840, "pitch": 66, "duration": 1, "velocity": 72}, {"time": 2846, "pitch": 54, "duration": 9, "velocity": 90}, {"time": 2852, "pitch": 59, "duration": 10, "velocity": 86}, {"time": 2852, "pitch": 63, "duration": 11, "velocity": 73}, {"time": 2852, "pitch": 66, "duration": 8, "velocity": 76}, {"time": 2858, "pitch": 54, "duration": 6, "velocity": 83}, {"time": 2864, "pitch": 43, "duration": 25, "velocity": 99}, {"time": 2864, "pitch": 62, "duration": 7, "velocity": 97}, {"time": 2864, "pitch": 67, "duration": 8, "velocity": 86}, {"time": 2864, "pitch": 71, "duration": 9, "velocity": 81}, {"time": 2867, "pitch": 50, "duration": 21, "velocity": 66}, {"time": 2870, "pitch": 55, "duration": 7, "velocity": 107}, {"time": 2873, "pitch": 62, "duration": 4, "velocity": 89}, {"time": 2876, "pitch": 67, "duration": 7, "velocity": 107}, {"time": 2876, "pitch": 71, "duration": 13, "velocity": 99}, {"time": 2879, "pitch": 55, "duration": 4, "velocity": 107}, {"time": 2882, "pitch": 62, "duration": 7, "velocity": 112}, {"time": 2885, "pitch": 67, "duration": 4, "velocity": 102}, {"time": 2888, "pitch": 48, "duration": 20, "velocity": 75}, {"time": 2888, "pitch": 64, "duration": 7, "velocity": 82}, {"time": 2888, "pitch": 67, "duration": 1, "velocity": 89}, {"time": 2894, "pitch": 55, "duration": 19, "velocity": 63}, {"time": 2900, "pitch": 64, "duration": 21, "velocity": 107}, {"time": 2900, "pitch": 67, "duration": 19, "velocity": 107}, {"time": 2906, "pitch": 60, "duration": 14, "velocity": 95}, {"time": 2912, "pitch": 48, "duration": 14, "velocity": 78}, {"time": 2918, "pitch": 55, "duration": 7, "velocity": 69}, {"time": 2924, "pitch": 64, "duration": 10, "velocity": 100}, {"time": 2924, "pitch": 67, "duration": 7, "velocity": 95}, {"time": 2930, "pitch": 60, "duration": 5, "velocity": 88}, {"time": 2936, "pitch": 41, "duration": 20, "velocity": 77}, {"time": 2936, "pitch": 60, "duration": 16, "velocity": 92}, {"time": 2936, "pitch": 65, "duration": 20, "velocity": 86}, {"time": 2936, "pitch": 69, "duration": 20, "velocity": 92}, {"time": 2942, "pitch": 48, "duration": 16, "velocity": 48}, {"time": 2948, "pitch": 53, "duration": 9, "velocity": 85}, {"time": 2954, "pitch": 60, "duration": 4, "velocity": 73}, {"time": 2960, "pitch": 40, "duration": 14, "velocity": 92}, {"time": 2960, "pitch": 64, "duration": 7, "velocity": 96}, {"time": 2960, "pitch": 67, "duration": 6, "velocity": 93}, {"time": 2966, "pitch": 52, "duration": 10, "velocity": 34}, {"time": 2972, "pitch": 64, "duration": 6, "velocity": 95}, {"time": 2972, "pitch": 67, "duration": 7, "velocity": 92}, {"time": 2978, "pitch": 59, "duration": 3, "velocity": 70}, {"time": 2984, "pitch": 45, "duration": 22, "velocity": 86}, {"time": 2984, "pitch": 60, "duration": 14, "velocity": 69}, {"time": 2984, "pitch": 64, "duration": 10, "velocity": 82}, {"time": 2990, "pitch": 57, "duration": 19, "velocity": 85}, {"time": 2996, "pitch": 69, "duration": 8, "velocity": 95}, {"time": 3002, "pitch": 60, "duration": 5, "velocity": 71}, {"time": 3008, "pitch": 45, "duration": 14, "velocity": 93}, {"time": 3008, "pitch": 60, "duration": 11, "velocity": 81}, {"time": 3008, "pitch": 64, "duration": 11, "velocity": 86}, {"time": 3008, "pitch": 69, "duration": 11, "velocity": 86}, {"time": 3014, "pitch": 57, "duration": 5, "velocity": 69}, {"time": 3020, "pitch": 64, "duration": 7, "velocity": 93}, {"time": 3020, "pitch": 69, "duration": 7, "velocity": 96}, {"time": 3026, "pitch": 60, "duration": 2, "velocity": 69}, {"time": 3032, "pitch": 38, "duration": 14, "velocity": 78}, {"time": 3032, "pitch": 62, "duration": 10, "velocity": 95}, {"time": 3032, "pitch": 65, "duration": 7, "velocity": 85}, {"time": 3032, "pitch": 69, "duration": 7, "velocity": 93}, {"time": 3038, "pitch": 45, "duration": 7, "velocity": 50}, {"time": 3044, "pitch": 50, "duration": 5, "velocity": 71}, {"time": 3044, "pitch": 65, "duration": 6, "velocity": 76}, {"time": 3044, "pitch": 69, "duration": 6, "velocity": 83}, {"time": 3050, "pitch": 62, "duration": 2, "velocity": 81}, {"time": 3056, "pitch": 43, "duration": 15, "velocity": 72}, {"time": 3056, "pitch": 59, "duration": 10, "velocity": 100}, {"time": 3056, "pitch": 62, "duration": 7, "velocity": 92}, {"time": 3062, "pitch": 50, "duration": 10, "velocity": 61}, {"time": 3068, "pitch": 55, "duration": 1, "velocity": 77}, {"time": 3068, "pitch": 59, "duration": 5, "velocity": 100}, {"time": 3068, "pitch": 62, "duration": 4, "velocity": 93}, {"time": 3080, "pitch": 48, "duration": 38, "velocity": 70}, {"time": 3080, "pitch": 60, "duration": 10, "velocity": 88}, {"time": 3080, "pitch": 64, "duration": 10, "velocity": 100}, {"time": 3080, "pitch": 67, "duration": 10, "velocity": 93}, {"time": 3086, "pitch": 55, "duration": 9, "velocity": 52}, {"time": 3092, "pitch": 64, "duration": 11, "velocity": 102}, {"time": 3092, "pitch": 67, "duration": 10, "velocity": 96}, {"time": 3098, "pitch": 55, "duration": 9, "velocity": 63}, {"time": 3104, "pitch": 60, "duration": 7, "velocity": 85}, {"time": 3104, "pitch": 64, "duration": 9, "velocity": 92}, {"time": 3104, "pitch": 67, "duration": 8, "velocity": 85}, {"time": 3110, "pitch": 55, "duration": 8, "velocity": 76}, {"time": 3116, "pitch": 64, "duration": 7, "velocity": 107}, {"time": 3116, "pitch": 67, "duration": 7, "velocity": 100}, {"time": 3122, "pitch": 60, "duration": 4, "velocity": 81}, {"time": 3128, "pitch": 41, "duration": 36, "velocity": 79}, {"time": 3128, "pitch": 60, "duration": 15, "velocity": 88}, {"time": 3128, "pitch": 65, "duration": 20, "velocity": 92}, {"time": 3128, "pitch": 69, "duration": 18, "velocity": 93}, {"time": 3134, "pitch": 48, "duration": 31, "velocity": 58}, {"time": 3140, "pitch": 53, "duration": 17, "velocity": 86}, {"time": 3146, "pitch": 60, "duration": 5, "velocity": 89}, {"time": 3152, "pitch": 60, "duration": 10, "velocity": 96}, {"time": 3152, "pitch": 65, "duration": 9, "velocity": 93}, {"time": 3152, "pitch": 69, "duration": 10, "velocity": 93}, {"time": 3158, "pitch": 53, "duration": 5, "velocity": 73}, {"time": 3164, "pitch": 65, "duration": 7, "velocity": 100}, {"time": 3164, "pitch": 69, "duration": 6, "velocity": 95}, {"time": 3170, "pitch": 60, "duration": 5, "velocity": 89}, {"time": 3176, "pitch": 43, "duration": 24, "velocity": 88}, {"time": 3176, "pitch": 62, "duration": 10, "velocity": 100}, {"time": 3176, "pitch": 67, "duration": 10, "velocity": 96}, {"time": 3176, "pitch": 71, "duration": 10, "velocity": 88}, {"time": 3182, "pitch": 50, "duration": 18, "velocity": 54}, {"time": 3188, "pitch": 67, "duration": 12, "velocity": 100}, {"time": 3188, "pitch": 71, "duration": 12, "velocity": 107}, {"time": 3194, "pitch": 62, "duration": 6, "velocity": 93}, {"time": 3200, "pitch": 43, "duration": 16, "velocity": 82}, {"time": 3200, "pitch": 55, "duration": 19, "velocity": 96}, {"time": 3200, "pitch": 59, "duration": 19, "velocity": 100}, {"time": 3200, "pitch": 62, "duration": 19, "velocity": 95}, {"time": 3224, "pitch": 48, "duration": 15, "velocity": 107}, {"time": 3224, "pitch": 55, "duration": 16, "velocity": 97}, {"time": 3224, "pitch": 60, "duration": 15, "velocity": 97}, {"time": 3224, "pitch": 64, "duration": 16, "velocity": 95}, {"time": 3242, "pitch": 48, "duration": 2, "velocity": 100}, {"time": 3242, "pitch": 55, "duration": 2, "velocity": 92}, {"time": 3242, "pitch": 60, "duration": 2, "velocity": 100}, {"time": 3242, "pitch": 64, "duration": 2, "velocity": 92}, {"time": 3245, "pitch": 48, "duration": 2, "velocity": 97}, {"time": 3245, "pitch": 55, "duration": 2, "velocity": 65}, {"time": 3245, "pitch": 60, "duration": 2, "velocity": 82}, {"time": 3245, "pitch": 64, "duration": 2, "velocity": 79}, {"time": 3248, "pitch": 48, "duration": 5, "velocity": 117}, {"time": 3248, "pitch": 55, "duration": 5, "velocity": 92}, {"time": 3248, "pitch": 60, "duration": 5, "velocity": 95}, {"time": 3248, "pitch": 64, "duration": 5, "velocity": 85}, {"time": 3254, "pitch": 43, "duration": 18, "velocity": 107}, {"time": 3254, "pitch": 55, "duration": 11, "velocity": 90}, {"time": 3254, "pitch": 60, "duration": 11, "velocity": 90}, {"time": 3254, "pitch": 64, "duration": 11, "velocity": 83}, {"time": 3266, "pitch": 55, "duration": 7, "velocity": 88}, {"time": 3266, "pitch": 60, "duration": 7, "velocity": 96}, {"time": 3266, "pitch": 64, "duration": 7, "velocity": 92}, {"time": 3272, "pitch": 41, "duration": 15, "velocity": 58}, {"time": 3272, "pitch": 48, "duration": 15, "velocity": 81}, {"time": 3272, "pitch": 53, "duration": 14, "velocity": 93}, {"time": 3272, "pitch": 60, "duration": 1, "velocity": 97}, {"time": 3272, "pitch": 65, "duration": 11, "velocity": 100}, {"time": 3272, "pitch": 69, "duration": 11, "velocity": 96}, {"time": 3284, "pitch": 60, "duration": 2, "velocity": 82}, {"time": 3284, "pitch": 65, "duration": 2, "velocity": 90}, {"time": 3284, "pitch": 69, "duration": 2, "velocity": 85}, {"time": 3290, "pitch": 41, "duration": 1, "velocity": 56}, {"time": 3290, "pitch": 48, "duration": 1, "velocity": 78}, {"time": 3290, "pitch": 53, "duration": 1, "velocity": 88}, {"time": 3290, "pitch": 60, "duration": 2, "velocity": 93}, {"time": 3290, "pitch": 65, "duration": 1, "velocity": 93}, {"time": 3290, "pitch": 69, "duration": 1, "velocity": 85}, {"time": 3293, "pitch": 41, "duration": 1, "velocity": 56}, {"time": 3293, "pitch": 48, "duration": 2, "velocity": 82}, {"time": 3293, "pitch": 53, "duration": 2, "velocity": 82}, {"time": 3293, "pitch": 60, "duration": 2, "velocity": 85}, {"time": 3293, "pitch": 65, "duration": 2, "velocity": 86}, {"time": 3293, "pitch": 69, "duration": 2, "velocity": 77}, {"time": 3296, "pitch": 41, "duration": 2, "velocity": 63}, {"time": 3296, "pitch": 48, "duration": 2, "velocity": 86}, {"time": 3296, "pitch": 53, "duration": 2, "velocity": 88}, {"time": 3296, "pitch": 60, "duration": 3, "velocity": 89}, {"time": 3296, "pitch": 65, "duration": 3, "velocity": 95}, {"time": 3296, "pitch": 69, "duration": 3, "velocity": 86}, {"time": 3302, "pitch": 41, "duration": 19, "velocity": 68}, {"time": 3302, "pitch": 48, "duration": 19, "velocity": 85}, {"time": 3302, "pitch": 53, "duration": 19, "velocity": 90}, {"time": 3302, "pitch": 60, "duration": 19, "velocity": 99}, {"time": 3302, "pitch": 65, "duration": 18, "velocity": 99}, {"time": 3302, "pitch": 69, "duration": 18, "velocity": 96}, {"time": 3320, "pitch": 43, "duration": 4, "velocity": 57}, {"time": 3320, "pitch": 50, "duration": 3, "velocity": 63}, {"time": 3320, "pitch": 55, "duration": 4, "velocity": 81}, {"time": 3320, "pitch": 62, "duration": 4, "velocity": 82}, {"time": 3320, "pitch": 67, "duration": 3, "velocity": 75}, {"time": 3320, "pitch": 71, "duration": 4, "velocity": 72}, {"time": 3332, "pitch": 43, "duration": 23, "velocity": 64}, {"time": 3332, "pitch": 50, "duration": 23, "velocity": 86}, {"time": 3332, "pitch": 55, "duration": 20, "velocity": 95}, {"time": 3332, "pitch": 62, "duration": 23, "velocity": 107}, {"time": 3332, "pitch": 67, "duration": 23, "velocity": 112}, {"time": 3332, "pitch": 71, "duration": 23, "velocity": 97}, {"time": 3356, "pitch": 43, "duration": 6, "velocity": 69}, {"time": 3356, "pitch": 50, "duration": 5, "velocity": 88}, {"time": 3356, "pitch": 55, "duration": 5, "velocity": 92}, {"time": 3356, "pitch": 62, "duration": 6, "velocity": 90}, {"time": 3356, "pitch": 67, "duration": 6, "velocity": 97}, {"time": 3356, "pitch": 71, "duration": 6, "velocity": 93}, {"time": 3368, "pitch": 36, "duration": 84, "velocity": 107}, {"time": 3368, "pitch": 43, "duration": 84, "velocity": 112}, {"time": 3368, "pitch": 48, "duration": 84, "velocity": 112}, {"time": 3368, "pitch": 60, "duration": 84, "velocity": 122}, {"time": 3368, "pitch": 64, "duration": 84, "velocity": 112}, {"time": 3368, "pitch": 67, "duration": 84, "velocity": 102}, {"time": 3452, "pitch": 48, "duration": 3, "velocity": 127}, {"time": 3452, "pitch": 60, "duration": 3, "velocity": 122}, {"time": 3455, "pitch": 43, "duration": 3, "velocity": 100}, {"time": 3455, "pitch": 55, "duration": 2, "velocity": 90}, {"time": 3458, "pitch": 48, "duration": 3, "velocity": 107}, {"time": 3458, "pitch": 60, "duration": 2, "velocity": 102}, {"time": 3461, "pitch": 43, "duration": 3, "velocity": 97}, {"time": 3461, "pitch": 55, "duration": 3, "velocity": 96}, {"time": 3464, "pitch": 48, "duration": 70, "velocity": 107}, {"time": 3464, "pitch": 55, "duration": 70, "velocity": 48}, {"time": 3464, "pitch": 60, "duration": 70, "velocity": 112}, {"time": 3464, "pitch": 64, "duration": 70, "velocity": 97}], "annotations": [{"time": 55, "annotation": {"number": 64, "value": 127}, "group": "control_change"}, {"time": 103, "annotation": {"number": 64, "value": 0}, "group": "control_change"}, {"time": 104, "annotation": {"number": 64, "value": 127}, "group": "control_change"}, {"time": 127, "annotation": {"number": 64, "value": 0}, "group": "control_change"}, {"time": 128, "annotation": {"number": 64, "value": 127}, "group": "control_change"}, {"time": 150, "annotation": {"number": 64, "value": 0}, "group": "control_change"}, {"time": 152, "annotation": {"number": 64, "value": 127}, "group": "control_change"}, {"time": 199, "annotation": {"number": 64, "value": 0}, "group": "control_change"}, {"time": 199, "annotation": {"number": 64, "value": 127}, "group": "control_change"}, {"time": 223, "annotation": {"number": 64, "value": 0}, "group": "control_change"}, {"time": 224, "annotation": {"number": 64, "value": 127}, "group": "control_change"}, {"time": 246, "annotation": {"number": 64, "value": 0}, "group": "control_change"}, {"time": 248, "annotation": {"number": 64, "value": 127}, "group": "control_change"}, {"time": 294, "annotation": {"number": 64, "value": 0}, "group": "control_change"}, {"time": 296, "annotation": {"number": 64, "value": 127}, "group": "control_change"}, {"time": 342, "annotation": {"number": 64, "value": 0}, "group": "control_change"}, {"time": 344, "annotation": {"number": 64, "value": 127}, "group": "control_change"}, {"time": 390, "annotation": {"number": 64, "value": 0}, "group": "control_change"}, {"time": 392, "annotation": {"number": 64, "value": 127}, "group": "control_change"}, {"time": 415, "annotation": {"number": 64, "value": 0}, "group": "control_change"}, {"time": 416, "annotation": {"number": 64, "value": 127}, "group": "control_change"}, {"time": 438, "annotation": {"number": 64, "value": 0}, "group": "control_change"}, {"time": 440, "annotation": {"number": 64, "value": 127}, "group": "control_change"}, {"time": 486, "annotation": {"number": 64, "value": 0}, "group": "control_change"}, {"time": 488, "annotation": {"number": 64, "value": 127}, "group": "control_change"}, {"time": 533, "annotation": {"number": 64, "value": 0}, "group": "control_change"}, {"time": 583, "annotation": {"number": 64, "value": 0}, "group": "control_change"}, {"time": 583, "annotation": {"number": 64, "value": 127}, "group": "control_change"}, {"time": 607, "annotation": {"number": 64, "value": 0}, "group": "control_change"}, {"time": 608, "annotation": {"number": 64, "value": 127}, "group": "control_change"}, {"time": 630, "annotation": {"number": 64, "value": 0}, "group": "control_change"}, {"time": 632, "annotation": {"number": 64, "value": 127}, "group": "control_change"}, {"time": 678, "annotation": {"number": 64, "value": 0}, "group": "control_change"}, {"time": 680, "annotation": {"number": 64, "value": 127}, "group": "control_change"}, {"time": 726, "annotation": {"number": 64, "value": 0}, "group": "control_change"}, {"time": 728, "annotation": {"number": 64, "value": 127}, "group": "control_change"}, {"time": 774, "annotation": {"number": 64, "value": 0}, "group": "control_change"}, {"time": 776, "annotation": {"number": 64, "value": 127}, "group": "control_change"}, {"time": 799, "annotation": {"number": 64, "value": 0}, "group": "control_change"}, {"time": 800, "annotation": {"number": 64, "value": 127}, "group": "control_change"}, {"time": 822, "annotation": {"number": 64, "value": 0}, "group": "control_change"}, {"time": 824, "annotation": {"number": 64, "value": 127}, "group": "control_change"}, {"time": 836, "annotation": {"number": 64, "value": 127}, "group": "control_change"}, {"time": 847, "annotation": {"number": 64, "value": 0}, "group": "control_change"}, {"time": 848, "annotation": {"number": 64, "value": 127}, "group": "control_change"}, {"time": 871, "annotation": {"number": 64, "value": 0}, "group": "control_change"}, {"time": 872, "annotation": {"number": 64, "value": 127}, "group": "control_change"}, {"time": 906, "annotation": {"number": 64, "value": 0}, "group": "control_change"}, {"time": 909, "annotation": {"number": 64, "value": 127}, "group": "control_change"}, {"time": 918, "annotation": {"number": 64, "value": 0}, "group": "control_change"}, {"time": 920, "annotation": {"number": 64, "value": 127}, "group": "control_change"}, {"time": 943, "annotation": {"number": 64, "value": 0}, "group": "control_change"}, {"time": 944, "annotation": {"number": 64, "value": 127}, "group": "control_change"}, {"time": 966, "annotation": {"number": 64, "value": 0}, "group": "control_change"}, {"time": 968, "annotation": {"number": 64, "value": 127}, "group": "control_change"}, {"time": 1015, "annotation": {"number": 64, "value": 0}, "group": "control_change"}, {"time": 1016, "annotation": {"number": 64, "value": 127}, "group": "control_change"}, {"time": 1063, "annotation": {"number": 64, "value": 0}, "group": "control_change"}, {"time": 1064, "annotation": {"number": 64, "value": 127}, "group": "control_change"}, {"time": 1087, "annotation": {"number": 64, "value": 0}, "group": "control_change"}, {"time": 1088, "annotation": {"number": 64, "value": 127}, "group": "control_change"}, {"time": 1111, "annotation": {"number": 64, "value": 0}, "group": "control_change"}, {"time": 1112, "annotation": {"number": 64, "value": 127}, "group": "control_change"}, {"time": 1158, "annotation": {"number": 64, "value": 0}, "group": "control_change"}, {"time": 1160, "annotation": {"number": 64, "value": 127}, "group": "control_change"}, {"time": 1183, "annotation": {"number": 64, "value": 0}, "group": "control_change"}, {"time": 1184, "annotation": {"number": 64, "value": 127}, "group": "control_change"}, {"time": 1207, "annotation": {"number": 64, "value": 0}, "group": "control_change"}, {"time": 1208, "annotation": {"number": 64, "value": 127}, "group": "control_change"}, {"time": 1216, "annotation": {"number": 64, "value": 127}, "group": "control_change"}, {"time": 1232, "annotation": {"number": 64, "value": 0}, "group": "control_change"}, {"time": 1234, "annotation": {"number": 64, "value": 127}, "group": "control_change"}, {"time": 1255, "annotation": {"number": 64, "value": 0}, "group": "control_change"}, {"time": 1259, "annotation": {"number": 64, "value": 127}, "group": "control_change"}, {"time": 1301, "annotation": {"number": 64, "value": 0}, "group": "control_change"}, {"time": 1305, "annotation": {"number": 64, "value": 127}, "group": "control_change"}, {"time": 1349, "annotation": {"number": 64, "value": 0}, "group": "control_change"}, {"time": 1353, "annotation": {"number": 64, "value": 127}, "group": "control_change"}, {"time": 1398, "annotation": {"number": 64, "value": 0}, "group": "control_change"}, {"time": 1400, "annotation": {"number": 64, "value": 127}, "group": "control_change"}, {"time": 1421, "annotation": {"number": 64, "value": 0}, "group": "control_change"}, {"time": 1424, "annotation": {"number": 64, "value": 127}, "group": "control_change"}, {"time": 1445, "annotation": {"number": 64, "value": 0}, "group": "control_change"}, {"time": 1449, "annotation": {"number": 64, "value": 127}, "group": "control_change"}, {"time": 1494, "annotation": {"number": 64, "value": 0}, "group": "control_change"}, {"time": 1497, "annotation": {"number": 64, "value": 127}, "group": "control_change"}, {"time": 1516, "annotation": {"number": 64, "value": 0}, "group": "control_change"}, {"time": 1521, "annotation": {"number": 64, "value": 127}, "group": "control_change"}, {"time": 1541, "annotation": {"number": 64, "value": 0}, "group": "control_change"}, {"time": 1545, "annotation": {"number": 64, "value": 127}, "group": "control_change"}, {"time": 1565, "annotation": {"number": 64, "value": 0}, "group": "control_change"}, {"time": 1568, "annotation": {"number": 64, "value": 127}, "group": "control_change"}, {"time": 1588, "annotation": {"number": 64, "value": 0}, "group": "control_change"}, {"time": 1592, "annotation": {"number": 64, "value": 127}, "group": "control_change"}, {"time": 1613, "annotation": {"number": 64, "value": 0}, "group": "control_change"}, {"time": 1616, "annotation": {"number": 64, "value": 127}, "group": "control_change"}, {"time": 1637, "annotation": {"number": 64, "value": 0}, "group": "control_change"}, {"time": 1640, "annotation": {"number": 64, "value": 127}, "group": "control_change"}, {"time": 1661, "annotation": {"number": 64, "value": 0}, "group": "control_change"}, {"time": 1665, "annotation": {"number": 64, "value": 127}, "group": "control_change"}, {"time": 1684, "annotation": {"number": 64, "value": 0}, "group": "control_change"}, {"time": 1688, "annotation": {"number": 64, "value": 127}, "group": "control_change"}, {"time": 1708, "annotation": {"number": 64, "value": 0}, "group": "control_change"}, {"time": 1713, "annotation": {"number": 64, "value": 127}, "group": "control_change"}, {"time": 1732, "annotation": {"number": 64, "value": 0}, "group": "control_change"}, {"time": 1783, "annotation": {"number": 64, "value": 0}, "group": "control_change"}, {"time": 1783, "annotation": {"number": 64, "value": 127}, "group": "control_change"}, {"time": 1807, "annotation": {"number": 64, "value": 0}, "group": "control_change"}, {"time": 1808, "annotation": {"number": 64, "value": 127}, "group": "control_change"}, {"time": 1830, "annotation": {"number": 64, "value": 0}, "group": "control_change"}, {"time": 1832, "annotation": {"number": 64, "value": 127}, "group": "control_change"}, {"time": 1878, "annotation": {"number": 64, "value": 0}, "group": "control_change"}, {"time": 1880, "annotation": {"number": 64, "value": 127}, "group": "control_change"}, {"time": 1926, "annotation": {"number": 64, "value": 0}, "group": "control_change"}, {"time": 1928, "annotation": {"number": 64, "value": 127}, "group": "control_change"}, {"time": 1974, "annotation": {"number": 64, "value": 0}, "group": "control_change"}, {"time": 1976, "annotation": {"number": 64, "value": 127}, "group": "control_change"}, {"time": 1999, "annotation": {"number": 64, "value": 0}, "group": "control_change"}, {"time": 2000, "annotation": {"number": 64, "value": 127}, "group": "control_change"}, {"time": 2022, "annotation": {"number": 64, "value": 0}, "group": "control_change"}, {"time": 2024, "annotation": {"number": 64, "value": 127}, "group": "control_change"}, {"time": 2070, "annotation": {"number": 64, "value": 0}, "group": "control_change"}, {"time": 2072, "annotation": {"number": 64, "value": 127}, "group": "control_change"}, {"time": 2117, "annotation": {"number": 64, "value": 0}, "group": "control_change"}, {"time": 2167, "annotation": {"number": 64, "value": 0}, "group": "control_change"}, {"time": 2167, "annotation": {"number": 64, "value": 127}, "group": "control_change"}, {"time": 2191, "annotation": {"number": 64, "value": 0}, "group": "control_change"}, {"time": 2192, "annotation": {"number": 64, "value": 127}, "group": "control_change"}, {"time": 2214, "annotation": {"number": 64, "value": 0}, "group": "control_change"}, {"time": 2216, "annotation": {"number": 64, "value": 127}, "group": "control_change"}, {"time": 2262, "annotation": {"number": 64, "value": 0}, "group": "control_change"}, {"time": 2264, "annotation": {"number": 64, "value": 127}, "group": "control_change"}, {"time": 2310, "annotation": {"number": 64, "value": 0}, "group": "control_change"}, {"time": 2312, "annotation": {"number": 64, "value": 127}, "group": "control_change"}, {"time": 2358, "annotation": {"number": 64, "value": 0}, "group": "control_change"}, {"time": 2360, "annotation": {"number": 64, "value": 127}, "group": "control_change"}, {"time": 2383, "annotation": {"number": 64, "value": 0}, "group": "control_change"}, {"time": 2384, "annotation": {"number": 64, "value": 127}, "group": "control_change"}, {"time": 2406, "annotation": {"number": 64, "value": 0}, "group": "control_change"}, {"time": 2408, "annotation": {"number": 64, "value": 127}, "group": "control_change"}, {"time": 2420, "annotation": {"number": 64, "value": 127}, "group": "control_change"}, {"time": 2431, "annotation": {"number": 64, "value": 0}, "group": "control_change"}, {"time": 2432, "annotation": {"number": 64, "value": 127}, "group": "control_change"}, {"time": 2455, "annotation": {"number": 64, "value": 0}, "group": "control_change"}, {"time": 2456, "annotation": {"number": 64, "value": 127}, "group": "control_change"}, {"time": 2490, "annotation": {"number": 64, "value": 0}, "group": "control_change"}, {"time": 2493, "annotation": {"number": 64, "value": 127}, "group": "control_change"}, {"time": 2502, "annotation": {"number": 64, "value": 0}, "group": "control_change"}, {"time": 2504, "annotation": {"number": 64, "value": 127}, "group": "control_change"}, {"time": 2527, "annotation": {"number": 64, "value": 0}, "group": "control_change"}, {"time": 2528, "annotation": {"number": 64, "value": 127}, "group": "control_change"}, {"time": 2550, "annotation": {"number": 64, "value": 0}, "group": "control_change"}, {"time": 2552, "annotation": {"number": 64, "value": 127}, "group": "control_change"}, {"time": 2599, "annotation": {"number": 64, "value": 0}, "group": "control_change"}, {"time": 2600, "annotation": {"number": 64, "value": 127}, "group": "control_change"}, {"time": 2647, "annotation": {"number": 64, "value": 0}, "group": "control_change"}, {"time": 2648, "annotation": {"number": 64, "value": 127}, "group": "control_change"}, {"time": 2671, "annotation": {"number": 64, "value": 0}, "group": "control_change"}, {"time": 2672, "annotation": {"number": 64, "value": 127}, "group": "control_change"}, {"time": 2695, "annotation": {"number": 64, "value": 0}, "group": "control_change"}, {"time": 2696, "annotation": {"number": 64, "value": 127}, "group": "control_change"}, {"time": 2742, "annotation": {"number": 64, "value": 0}, "group": "control_change"}, {"time": 2744, "annotation": {"number": 64, "value": 127}, "group": "control_change"}, {"time": 2767, "annotation": {"number": 64, "value": 0}, "group": "control_change"}, {"time": 2768, "annotation": {"number": 64, "value": 127}, "group": "control_change"}, {"time": 2791, "annotation": {"number": 64, "value": 0}, "group": "control_change"}, {"time": 2792, "annotation": {"number": 64, "value": 127}, "group": "control_change"}, {"time": 2800, "annotation": {"number": 64, "value": 127}, "group": "control_change"}, {"time": 2816, "annotation": {"number": 64, "value": 0}, "group": "control_change"}, {"time": 2818, "annotation": {"number": 64, "value": 127}, "group": "control_change"}, {"time": 2839, "annotation": {"number": 64, "value": 0}, "group": "control_change"}, {"time": 2843, "annotation": {"number": 64, "value": 127}, "group": "control_change"}, {"time": 2865, "annotation": {"number": 64, "value": 127}, "group": "control_change"}, {"time": 2884, "annotation": {"number": 64, "value": 0}, "group": "control_change"}, {"time": 2911, "annotation": {"number": 64, "value": 0}, "group": "control_change"}, {"time": 2912, "annotation": {"number": 64, "value": 127}, "group": "control_change"}, {"time": 2934, "annotation": {"number": 64, "value": 0}, "group": "control_change"}, {"time": 2936, "annotation": {"number": 64, "value": 127}, "group": "control_change"}, {"time": 2983, "annotation": {"number": 64, "value": 0}, "group": "control_change"}, {"time": 2984, "annotation": {"number": 64, "value": 127}, "group": "control_change"}, {"time": 3031, "annotation": {"number": 64, "value": 0}, "group": "control_change"}, {"time": 3032, "annotation": {"number": 64, "value": 127}, "group": "control_change"}, {"time": 3055, "annotation": {"number": 64, "value": 0}, "group": "control_change"}, {"time": 3056, "annotation": {"number": 64, "value": 127}, "group": "control_change"}, {"time": 3079, "annotation": {"number": 64, "value": 0}, "group": "control_change"}, {"time": 3080, "annotation": {"number": 64, "value": 127}, "group": "control_change"}, {"time": 3126, "annotation": {"number": 64, "value": 0}, "group": "control_change"}, {"time": 3128, "annotation": {"number": 64, "value": 127}, "group": "control_change"}, {"time": 3151, "annotation": {"number": 64, "value": 0}, "group": "control_change"}, {"time": 3152, "annotation": {"number": 64, "value": 127}, "group": "control_change"}, {"time": 3175, "annotation": {"number": 64, "value": 0}, "group": "control_change"}, {"time": 3176, "annotation": {"number": 64, "value": 127}, "group": "control_change"}, {"time": 3196, "annotation": {"number": 64, "value": 0}, "group": "control_change"}, {"time": 3221, "annotation": {"number": 64, "value": 0}, "group": "control_change"}, {"time": 3225, "annotation": {"number": 64, "value": 127}, "group": "control_change"}, {"time": 3238, "annotation": {"number": 64, "value": 0}, "group": "control_change"}, {"time": 3249, "annotation": {"number": 64, "value": 127}, "group": "control_change"}, {"time": 3251, "annotation": {"number": 64, "value": 0}, "group": "control_change"}, {"time": 3273, "annotation": {"number": 64, "value": 127}, "group": "control_change"}, {"time": 3290, "annotation": {"number": 64, "value": 0}, "group": "control_change"}, {"time": 3297, "annotation": {"number": 64, "value": 127}, "group": "control_change"}, {"time": 3300, "annotation": {"number": 64, "value": 0}, "group": "control_change"}, {"time": 3309, "annotation": {"number": 64, "value": 127}, "group": "control_change"}, {"time": 3316, "annotation": {"number": 64, "value": 0}, "group": "control_change"}, {"time": 3319, "annotation": {"number": 64, "value": 127}, "group": "control_change"}, {"time": 3321, "annotation": {"number": 64, "value": 0}, "group": "control_change"}, {"time": 3356, "annotation": {"number": 64, "value": 127}, "group": "control_change"}, {"time": 3363, "annotation": {"number": 64, "value": 0}, "group": "control_change"}, {"time": 3369, "annotation": {"number": 64, "value": 127}, "group": "control_change"}, {"time": 3528, "annotation": {"number": 64, "value": 127}, "group": "control_change"}, {"time": 3540, "annotation": {"number": 64, "value": 0}, "group": "control_change"}, {"time": 3541, "annotation": {"number": 64, "value": 127}, "group": "control_change"}, {"time": 3543, "annotation": {"number": 64, "value": 0}, "group": "control_change"}, {"time": 3544, "annotation": {"number": 64, "value": 127}, "group": "control_change"}, {"time": 3545, "annotation": {"number": 64, "value": 0}, "group": "control_change"}, {"time": 3545, "annotation": {"number": 64, "value": 127}, "group": "control_change"}, {"time": 3547, "annotation": {"number": 64, "value": 0}, "group": "control_change"}, {"time": 3548, "annotation": {"number": 64, "value": 127}, "group": "control_change"}, {"time": 3550, "annotation": {"number": 64, "value": 0}, "group": "control_change"}, {"time": 3551, "annotation": {"number": 64, "value": 127}, "group": "control_change"}, {"time": 3553, "annotation": {"number": 64, "value": 0}, "group": "control_change"}]}]}