{"metadata": {"schema_version": "0.2", "title": "None", "source_filename": "473.mid", "source_format": "midi"}, "resolution": 12, "tempos": [{"time": 0, "qpm": 61.359982655578236}], "time_signatures": [{"time": 0, "numerator": 1, "denominator": 4}], "tracks": [{"program": 0, "is_drum": false, "name": "MELODY", "notes": [{"time": 4, "pitch": 72, "duration": 5, "velocity": 96}, {"time": 10, "pitch": 64, "duration": 6, "velocity": 85}, {"time": 16, "pitch": 65, "duration": 6, "velocity": 93}, {"time": 22, "pitch": 72, "duration": 4, "velocity": 112}, {"time": 28, "pitch": 72, "duration": 10, "velocity": 127}, {"time": 40, "pitch": 70, "duration": 12, "velocity": 112}, {"time": 52, "pitch": 69, "duration": 11, "velocity": 112}, {"time": 58, "pitch": 57, "duration": 6, "velocity": 96}, {"time": 64, "pitch": 61, "duration": 7, "velocity": 99}, {"time": 70, "pitch": 64, "duration": 4, "velocity": 93}, {"time": 70, "pitch": 67, "duration": 4, "velocity": 95}, {"time": 76, "pitch": 64, "duration": 7, "velocity": 95}, {"time": 76, "pitch": 67, "duration": 8, "velocity": 99}, {"time": 88, "pitch": 62, "duration": 11, "velocity": 92}, {"time": 88, "pitch": 65, "duration": 10, "velocity": 93}, {"time": 100, "pitch": 67, "duration": 5, "velocity": 100}, {"time": 106, "pitch": 55, "duration": 6, "velocity": 93}, {"time": 112, "pitch": 58, "duration": 7, "velocity": 82}, {"time": 118, "pitch": 62, "duration": 5, "velocity": 95}, {"time": 124, "pitch": 67, "duration": 4, "velocity": 100}, {"time": 130, "pitch": 55, "duration": 6, "velocity": 85}, {"time": 136, "pitch": 58, "duration": 7, "velocity": 88}, {"time": 142, "pitch": 65, "duration": 4, "velocity": 96}, {"time": 148, "pitch": 65, "duration": 9, "velocity": 99}, {"time": 172, "pitch": 64, "duration": 12, "velocity": 86}, {"time": 202, "pitch": 69, "duration": 4, "velocity": 122}, {"time": 208, "pitch": 70, "duration": 5, "velocity": 112}, {"time": 214, "pitch": 69, "duration": 5, "velocity": 102}, {"time": 220, "pitch": 67, "duration": 4, "velocity": 100}, {"time": 226, "pitch": 69, "duration": 2, "velocity": 93}, {"time": 229, "pitch": 70, "duration": 8, "velocity": 112}, {"time": 235, "pitch": 69, "duration": 8, "velocity": 102}, {"time": 250, "pitch": 69, "duration": 3, "velocity": 117}, {"time": 256, "pitch": 70, "duration": 3, "velocity": 122}, {"time": 262, "pitch": 69, "duration": 3, "velocity": 117}, {"time": 268, "pitch": 67, "duration": 5, "velocity": 107}, {"time": 274, "pitch": 69, "duration": 1, "velocity": 99}, {"time": 277, "pitch": 69, "duration": 6, "velocity": 112}, {"time": 283, "pitch": 64, "duration": 8, "velocity": 93}, {"time": 292, "pitch": 65, "duration": 11, "velocity": 93}, {"time": 304, "pitch": 74, "duration": 11, "velocity": 127}, {"time": 316, "pitch": 72, "duration": 12, "velocity": 117}, {"time": 334, "pitch": 65, "duration": 5, "velocity": 96}, {"time": 340, "pitch": 70, "duration": 5, "velocity": 122}, {"time": 346, "pitch": 69, "duration": 6, "velocity": 89}, {"time": 352, "pitch": 70, "duration": 5, "velocity": 93}, {"time": 358, "pitch": 72, "duration": 1, "velocity": 97}, {"time": 361, "pitch": 69, "duration": 8, "velocity": 97}, {"time": 370, "pitch": 67, "duration": 17, "velocity": 97}, {"time": 394, "pitch": 69, "duration": 4, "velocity": 122}, {"time": 400, "pitch": 70, "duration": 5, "velocity": 112}, {"time": 406, "pitch": 69, "duration": 5, "velocity": 102}, {"time": 412, "pitch": 67, "duration": 4, "velocity": 100}, {"time": 418, "pitch": 69, "duration": 2, "velocity": 93}, {"time": 421, "pitch": 70, "duration": 8, "velocity": 112}, {"time": 427, "pitch": 69, "duration": 8, "velocity": 102}, {"time": 442, "pitch": 69, "duration": 3, "velocity": 117}, {"time": 448, "pitch": 70, "duration": 3, "velocity": 122}, {"time": 454, "pitch": 69, "duration": 3, "velocity": 117}, {"time": 460, "pitch": 67, "duration": 5, "velocity": 107}, {"time": 466, "pitch": 69, "duration": 1, "velocity": 99}, {"time": 469, "pitch": 69, "duration": 6, "velocity": 112}, {"time": 475, "pitch": 64, "duration": 8, "velocity": 93}, {"time": 484, "pitch": 65, "duration": 11, "velocity": 93}, {"time": 496, "pitch": 74, "duration": 11, "velocity": 127}, {"time": 508, "pitch": 72, "duration": 7, "velocity": 117}, {"time": 514, "pitch": 77, "duration": 1, "velocity": 99}, {"time": 517, "pitch": 77, "duration": 8, "velocity": 112}, {"time": 529, "pitch": 79, "duration": 1, "velocity": 97}, {"time": 532, "pitch": 81, "duration": 2, "velocity": 96}, {"time": 538, "pitch": 81, "duration": 1, "velocity": 117}, {"time": 544, "pitch": 81, "duration": 3, "velocity": 127}, {"time": 550, "pitch": 77, "duration": 1, "velocity": 96}, {"time": 553, "pitch": 77, "duration": 5, "velocity": 95}, {"time": 559, "pitch": 79, "duration": 15, "velocity": 112}, {"time": 574, "pitch": 77, "duration": 2, "velocity": 112}, {"time": 577, "pitch": 76, "duration": 2, "velocity": 96}, {"time": 580, "pitch": 74, "duration": 4, "velocity": 99}, {"time": 586, "pitch": 74, "duration": 4, "velocity": 97}, {"time": 592, "pitch": 74, "duration": 4, "velocity": 112}, {"time": 598, "pitch": 76, "duration": 1, "velocity": 122}, {"time": 601, "pitch": 74, "duration": 3, "velocity": 112}, {"time": 607, "pitch": 73, "duration": 9, "velocity": 122}, {"time": 625, "pitch": 69, "duration": 3, "velocity": 111}, {"time": 628, "pitch": 76, "duration": 4, "velocity": 127}, {"time": 634, "pitch": 76, "duration": 4, "velocity": 117}, {"time": 640, "pitch": 77, "duration": 5, "velocity": 127}, {"time": 646, "pitch": 79, "duration": 1, "velocity": 102}, {"time": 649, "pitch": 79, "duration": 6, "velocity": 127}, {"time": 655, "pitch": 77, "duration": 6, "velocity": 122}, {"time": 664, "pitch": 76, "duration": 1, "velocity": 127}, {"time": 667, "pitch": 77, "duration": 3, "velocity": 122}, {"time": 673, "pitch": 76, "duration": 2, "velocity": 127}, {"time": 676, "pitch": 74, "duration": 4, "velocity": 127}, {"time": 682, "pitch": 74, "duration": 1, "velocity": 107}, {"time": 685, "pitch": 74, "duration": 5, "velocity": 127}, {"time": 697, "pitch": 74, "duration": 1, "velocity": 107}, {"time": 700, "pitch": 74, "duration": 5, "velocity": 112}, {"time": 706, "pitch": 79, "duration": 3, "velocity": 127}, {"time": 712, "pitch": 79, "duration": 3, "velocity": 127}, {"time": 718, "pitch": 77, "duration": 2, "velocity": 112}, {"time": 721, "pitch": 79, "duration": 23, "velocity": 127}, {"time": 754, "pitch": 69, "duration": 3, "velocity": 117}, {"time": 760, "pitch": 72, "duration": 4, "velocity": 127}, {"time": 766, "pitch": 79, "duration": 4, "velocity": 127}, {"time": 772, "pitch": 77, "duration": 4, "velocity": 122}, {"time": 778, "pitch": 70, "duration": 6, "velocity": 112}, {"time": 784, "pitch": 70, "duration": 1, "velocity": 127}, {"time": 790, "pitch": 69, "duration": 1, "velocity": 100}, {"time": 793, "pitch": 70, "duration": 3, "velocity": 122}, {"time": 799, "pitch": 67, "duration": 5, "velocity": 100}, {"time": 808, "pitch": 76, "duration": 4, "velocity": 127}, {"time": 814, "pitch": 77, "duration": 4, "velocity": 127}, {"time": 820, "pitch": 79, "duration": 4, "velocity": 127}, {"time": 826, "pitch": 72, "duration": 4, "velocity": 112}, {"time": 832, "pitch": 72, "duration": 3, "velocity": 117}, {"time": 838, "pitch": 70, "duration": 1, "velocity": 127}, {"time": 841, "pitch": 70, "duration": 3, "velocity": 122}, {"time": 847, "pitch": 69, "duration": 5, "velocity": 127}, {"time": 856, "pitch": 69, "duration": 3, "velocity": 107}, {"time": 859, "pitch": 70, "duration": 3, "velocity": 117}, {"time": 862, "pitch": 72, "duration": 3, "velocity": 112}, {"time": 868, "pitch": 72, "duration": 4, "velocity": 127}, {"time": 874, "pitch": 74, "duration": 1, "velocity": 112}, {"time": 877, "pitch": 65, "duration": 8, "velocity": 112}, {"time": 889, "pitch": 74, "duration": 1, "velocity": 127}, {"time": 892, "pitch": 74, "duration": 5, "velocity": 127}, {"time": 898, "pitch": 76, "duration": 4, "velocity": 112}, {"time": 904, "pitch": 72, "duration": 4, "velocity": 122}, {"time": 910, "pitch": 67, "duration": 4, "velocity": 112}, {"time": 916, "pitch": 70, "duration": 4, "velocity": 127}, {"time": 922, "pitch": 69, "duration": 4, "velocity": 122}, {"time": 928, "pitch": 67, "duration": 5, "velocity": 102}, {"time": 934, "pitch": 69, "duration": 9, "velocity": 112}, {"time": 946, "pitch": 69, "duration": 5, "velocity": 107}, {"time": 952, "pitch": 72, "duration": 4, "velocity": 117}, {"time": 958, "pitch": 79, "duration": 4, "velocity": 122}, {"time": 964, "pitch": 77, "duration": 4, "velocity": 127}, {"time": 970, "pitch": 70, "duration": 3, "velocity": 117}, {"time": 976, "pitch": 70, "duration": 2, "velocity": 127}, {"time": 982, "pitch": 70, "duration": 1, "velocity": 122}, {"time": 985, "pitch": 69, "duration": 3, "velocity": 102}, {"time": 991, "pitch": 67, "duration": 4, "velocity": 107}, {"time": 1000, "pitch": 76, "duration": 3, "velocity": 127}, {"time": 1006, "pitch": 77, "duration": 3, "velocity": 112}, {"time": 1012, "pitch": 79, "duration": 4, "velocity": 122}, {"time": 1018, "pitch": 79, "duration": 4, "velocity": 122}, {"time": 1024, "pitch": 79, "duration": 3, "velocity": 127}, {"time": 1030, "pitch": 76, "duration": 2, "velocity": 97}, {"time": 1033, "pitch": 79, "duration": 3, "velocity": 117}, {"time": 1039, "pitch": 77, "duration": 7, "velocity": 127}, {"time": 1048, "pitch": 74, "duration": 4, "velocity": 122}, {"time": 1054, "pitch": 76, "duration": 4, "velocity": 117}, {"time": 1060, "pitch": 77, "duration": 4, "velocity": 127}, {"time": 1066, "pitch": 76, "duration": 1, "velocity": 127}, {"time": 1069, "pitch": 77, "duration": 5, "velocity": 127}, {"time": 1081, "pitch": 76, "duration": 1, "velocity": 112}, {"time": 1084, "pitch": 74, "duration": 4, "velocity": 107}, {"time": 1090, "pitch": 76, "duration": 3, "velocity": 102}, {"time": 1096, "pitch": 77, "duration": 3, "velocity": 122}, {"time": 1102, "pitch": 76, "duration": 1, "velocity": 112}, {"time": 1105, "pitch": 77, "duration": 32, "velocity": 127}, {"time": 1402, "pitch": 69, "duration": 4, "velocity": 122}, {"time": 1408, "pitch": 70, "duration": 5, "velocity": 112}, {"time": 1414, "pitch": 69, "duration": 5, "velocity": 102}, {"time": 1420, "pitch": 67, "duration": 4, "velocity": 100}, {"time": 1426, "pitch": 69, "duration": 2, "velocity": 93}, {"time": 1429, "pitch": 70, "duration": 8, "velocity": 112}, {"time": 1435, "pitch": 69, "duration": 8, "velocity": 102}, {"time": 1450, "pitch": 69, "duration": 3, "velocity": 117}, {"time": 1456, "pitch": 70, "duration": 3, "velocity": 122}, {"time": 1462, "pitch": 69, "duration": 3, "velocity": 117}, {"time": 1468, "pitch": 67, "duration": 5, "velocity": 107}, {"time": 1474, "pitch": 69, "duration": 1, "velocity": 99}, {"time": 1477, "pitch": 69, "duration": 6, "velocity": 112}, {"time": 1483, "pitch": 64, "duration": 8, "velocity": 93}, {"time": 1492, "pitch": 65, "duration": 11, "velocity": 93}, {"time": 1504, "pitch": 74, "duration": 11, "velocity": 127}, {"time": 1516, "pitch": 72, "duration": 12, "velocity": 117}, {"time": 1534, "pitch": 65, "duration": 5, "velocity": 96}, {"time": 1540, "pitch": 70, "duration": 5, "velocity": 122}, {"time": 1546, "pitch": 69, "duration": 6, "velocity": 89}, {"time": 1552, "pitch": 70, "duration": 5, "velocity": 93}, {"time": 1558, "pitch": 72, "duration": 1, "velocity": 97}, {"time": 1561, "pitch": 69, "duration": 8, "velocity": 97}, {"time": 1570, "pitch": 67, "duration": 17, "velocity": 97}, {"time": 1594, "pitch": 69, "duration": 4, "velocity": 122}, {"time": 1600, "pitch": 70, "duration": 5, "velocity": 112}, {"time": 1606, "pitch": 69, "duration": 5, "velocity": 102}, {"time": 1612, "pitch": 67, "duration": 4, "velocity": 100}, {"time": 1618, "pitch": 69, "duration": 2, "velocity": 93}, {"time": 1621, "pitch": 70, "duration": 8, "velocity": 112}, {"time": 1627, "pitch": 69, "duration": 8, "velocity": 102}, {"time": 1642, "pitch": 69, "duration": 3, "velocity": 117}, {"time": 1648, "pitch": 70, "duration": 3, "velocity": 122}, {"time": 1654, "pitch": 69, "duration": 3, "velocity": 117}, {"time": 1660, "pitch": 67, "duration": 5, "velocity": 107}, {"time": 1666, "pitch": 69, "duration": 1, "velocity": 99}, {"time": 1669, "pitch": 69, "duration": 6, "velocity": 112}, {"time": 1675, "pitch": 64, "duration": 8, "velocity": 93}, {"time": 1684, "pitch": 65, "duration": 11, "velocity": 93}, {"time": 1696, "pitch": 74, "duration": 11, "velocity": 127}, {"time": 1708, "pitch": 72, "duration": 7, "velocity": 117}, {"time": 1714, "pitch": 77, "duration": 1, "velocity": 99}, {"time": 1717, "pitch": 77, "duration": 8, "velocity": 112}, {"time": 1729, "pitch": 79, "duration": 1, "velocity": 97}, {"time": 1732, "pitch": 81, "duration": 2, "velocity": 96}, {"time": 1738, "pitch": 81, "duration": 1, "velocity": 117}, {"time": 1744, "pitch": 81, "duration": 3, "velocity": 127}, {"time": 1750, "pitch": 77, "duration": 1, "velocity": 96}, {"time": 1753, "pitch": 77, "duration": 5, "velocity": 95}, {"time": 1759, "pitch": 79, "duration": 15, "velocity": 112}, {"time": 1774, "pitch": 77, "duration": 2, "velocity": 112}, {"time": 1777, "pitch": 76, "duration": 2, "velocity": 96}, {"time": 1780, "pitch": 74, "duration": 4, "velocity": 99}, {"time": 1786, "pitch": 74, "duration": 4, "velocity": 97}, {"time": 1792, "pitch": 74, "duration": 4, "velocity": 112}, {"time": 1798, "pitch": 76, "duration": 1, "velocity": 122}, {"time": 1801, "pitch": 74, "duration": 3, "velocity": 112}, {"time": 1807, "pitch": 73, "duration": 9, "velocity": 122}, {"time": 1825, "pitch": 69, "duration": 3, "velocity": 111}, {"time": 1828, "pitch": 76, "duration": 4, "velocity": 127}, {"time": 1834, "pitch": 76, "duration": 4, "velocity": 117}, {"time": 1840, "pitch": 77, "duration": 5, "velocity": 127}, {"time": 1846, "pitch": 79, "duration": 1, "velocity": 102}, {"time": 1849, "pitch": 79, "duration": 6, "velocity": 127}, {"time": 1855, "pitch": 77, "duration": 6, "velocity": 122}, {"time": 1864, "pitch": 76, "duration": 1, "velocity": 127}, {"time": 1867, "pitch": 77, "duration": 3, "velocity": 122}, {"time": 1873, "pitch": 76, "duration": 2, "velocity": 127}, {"time": 1876, "pitch": 74, "duration": 4, "velocity": 127}, {"time": 1882, "pitch": 74, "duration": 1, "velocity": 107}, {"time": 1885, "pitch": 74, "duration": 5, "velocity": 127}, {"time": 1897, "pitch": 74, "duration": 1, "velocity": 107}, {"time": 1900, "pitch": 74, "duration": 5, "velocity": 112}, {"time": 1906, "pitch": 79, "duration": 3, "velocity": 127}, {"time": 1912, "pitch": 79, "duration": 3, "velocity": 127}, {"time": 1918, "pitch": 77, "duration": 2, "velocity": 112}, {"time": 1921, "pitch": 79, "duration": 23, "velocity": 127}, {"time": 1954, "pitch": 69, "duration": 3, "velocity": 117}, {"time": 1960, "pitch": 72, "duration": 4, "velocity": 127}, {"time": 1966, "pitch": 79, "duration": 4, "velocity": 127}, {"time": 1972, "pitch": 77, "duration": 4, "velocity": 122}, {"time": 1978, "pitch": 70, "duration": 6, "velocity": 112}, {"time": 1984, "pitch": 70, "duration": 1, "velocity": 127}, {"time": 1990, "pitch": 69, "duration": 1, "velocity": 100}, {"time": 1993, "pitch": 70, "duration": 3, "velocity": 122}, {"time": 1999, "pitch": 67, "duration": 5, "velocity": 100}, {"time": 2008, "pitch": 76, "duration": 4, "velocity": 127}, {"time": 2014, "pitch": 77, "duration": 4, "velocity": 127}, {"time": 2020, "pitch": 79, "duration": 4, "velocity": 127}, {"time": 2026, "pitch": 72, "duration": 4, "velocity": 112}, {"time": 2032, "pitch": 72, "duration": 3, "velocity": 117}, {"time": 2038, "pitch": 70, "duration": 1, "velocity": 127}, {"time": 2041, "pitch": 70, "duration": 3, "velocity": 122}, {"time": 2047, "pitch": 69, "duration": 5, "velocity": 127}, {"time": 2056, "pitch": 69, "duration": 3, "velocity": 107}, {"time": 2059, "pitch": 70, "duration": 3, "velocity": 117}, {"time": 2062, "pitch": 72, "duration": 3, "velocity": 112}, {"time": 2068, "pitch": 72, "duration": 4, "velocity": 127}, {"time": 2074, "pitch": 74, "duration": 1, "velocity": 112}, {"time": 2077, "pitch": 65, "duration": 8, "velocity": 112}, {"time": 2089, "pitch": 74, "duration": 1, "velocity": 127}, {"time": 2092, "pitch": 74, "duration": 5, "velocity": 127}, {"time": 2098, "pitch": 76, "duration": 4, "velocity": 112}, {"time": 2104, "pitch": 72, "duration": 4, "velocity": 122}, {"time": 2110, "pitch": 67, "duration": 4, "velocity": 112}, {"time": 2116, "pitch": 70, "duration": 4, "velocity": 127}, {"time": 2122, "pitch": 69, "duration": 4, "velocity": 122}, {"time": 2128, "pitch": 67, "duration": 5, "velocity": 102}, {"time": 2134, "pitch": 69, "duration": 9, "velocity": 112}, {"time": 2146, "pitch": 69, "duration": 5, "velocity": 107}, {"time": 2152, "pitch": 72, "duration": 4, "velocity": 117}, {"time": 2158, "pitch": 79, "duration": 4, "velocity": 122}, {"time": 2164, "pitch": 77, "duration": 4, "velocity": 127}, {"time": 2170, "pitch": 70, "duration": 3, "velocity": 117}, {"time": 2176, "pitch": 70, "duration": 2, "velocity": 127}, {"time": 2182, "pitch": 70, "duration": 1, "velocity": 122}, {"time": 2185, "pitch": 69, "duration": 3, "velocity": 102}, {"time": 2191, "pitch": 67, "duration": 4, "velocity": 107}, {"time": 2200, "pitch": 76, "duration": 3, "velocity": 127}, {"time": 2206, "pitch": 77, "duration": 3, "velocity": 112}, {"time": 2212, "pitch": 79, "duration": 4, "velocity": 122}, {"time": 2218, "pitch": 79, "duration": 4, "velocity": 122}, {"time": 2224, "pitch": 79, "duration": 3, "velocity": 127}, {"time": 2230, "pitch": 76, "duration": 2, "velocity": 97}, {"time": 2233, "pitch": 79, "duration": 3, "velocity": 117}, {"time": 2239, "pitch": 77, "duration": 7, "velocity": 127}, {"time": 2248, "pitch": 74, "duration": 4, "velocity": 122}, {"time": 2254, "pitch": 76, "duration": 4, "velocity": 117}, {"time": 2260, "pitch": 77, "duration": 4, "velocity": 127}, {"time": 2266, "pitch": 76, "duration": 1, "velocity": 127}, {"time": 2269, "pitch": 77, "duration": 5, "velocity": 127}, {"time": 2281, "pitch": 76, "duration": 1, "velocity": 112}, {"time": 2284, "pitch": 74, "duration": 4, "velocity": 107}, {"time": 2290, "pitch": 76, "duration": 3, "velocity": 102}, {"time": 2296, "pitch": 77, "duration": 12, "velocity": 122}, {"time": 2320, "pitch": 85, "duration": 8, "velocity": 127}, {"time": 2332, "pitch": 82, "duration": 5, "velocity": 127}, {"time": 2341, "pitch": 83, "duration": 2, "velocity": 117}, {"time": 2344, "pitch": 82, "duration": 3, "velocity": 122}, {"time": 2350, "pitch": 80, "duration": 3, "velocity": 127}, {"time": 2353, "pitch": 78, "duration": 2, "velocity": 117}, {"time": 2356, "pitch": 78, "duration": 4, "velocity": 122}, {"time": 2362, "pitch": 71, "duration": 6, "velocity": 112}, {"time": 2368, "pitch": 71, "duration": 1, "velocity": 127}, {"time": 2374, "pitch": 70, "duration": 1, "velocity": 100}, {"time": 2377, "pitch": 71, "duration": 3, "velocity": 122}, {"time": 2383, "pitch": 68, "duration": 5, "velocity": 100}, {"time": 2392, "pitch": 77, "duration": 4, "velocity": 127}, {"time": 2398, "pitch": 78, "duration": 4, "velocity": 127}, {"time": 2404, "pitch": 80, "duration": 4, "velocity": 127}, {"time": 2410, "pitch": 73, "duration": 4, "velocity": 112}, {"time": 2416, "pitch": 73, "duration": 3, "velocity": 117}, {"time": 2422, "pitch": 71, "duration": 1, "velocity": 127}, {"time": 2425, "pitch": 71, "duration": 3, "velocity": 122}, {"time": 2431, "pitch": 70, "duration": 5, "velocity": 127}, {"time": 2440, "pitch": 70, "duration": 3, "velocity": 107}, {"time": 2443, "pitch": 71, "duration": 3, "velocity": 117}, {"time": 2446, "pitch": 73, "duration": 3, "velocity": 112}, {"time": 2452, "pitch": 73, "duration": 4, "velocity": 127}, {"time": 2458, "pitch": 75, "duration": 1, "velocity": 112}, {"time": 2461, "pitch": 66, "duration": 8, "velocity": 112}, {"time": 2473, "pitch": 75, "duration": 1, "velocity": 127}, {"time": 2476, "pitch": 75, "duration": 5, "velocity": 127}, {"time": 2482, "pitch": 77, "duration": 4, "velocity": 112}, {"time": 2488, "pitch": 73, "duration": 4, "velocity": 122}, {"time": 2494, "pitch": 80, "duration": 4, "velocity": 127}, {"time": 2500, "pitch": 83, "duration": 4, "velocity": 127}, {"time": 2506, "pitch": 82, "duration": 3, "velocity": 127}, {"time": 2512, "pitch": 82, "duration": 3, "velocity": 127}, {"time": 2518, "pitch": 82, "duration": 6, "velocity": 127}, {"time": 2530, "pitch": 80, "duration": 3, "velocity": 127}, {"time": 2536, "pitch": 80, "duration": 2, "velocity": 127}, {"time": 2542, "pitch": 82, "duration": 3, "velocity": 127}, {"time": 2548, "pitch": 80, "duration": 4, "velocity": 127}, {"time": 2554, "pitch": 78, "duration": 4, "velocity": 117}, {"time": 2560, "pitch": 78, "duration": 3, "velocity": 122}, {"time": 2566, "pitch": 80, "duration": 1, "velocity": 127}, {"time": 2569, "pitch": 82, "duration": 3, "velocity": 122}, {"time": 2575, "pitch": 80, "duration": 3, "velocity": 127}, {"time": 2584, "pitch": 77, "duration": 3, "velocity": 127}, {"time": 2590, "pitch": 78, "duration": 3, "velocity": 112}, {"time": 2596, "pitch": 80, "duration": 4, "velocity": 122}, {"time": 2602, "pitch": 80, "duration": 4, "velocity": 122}, {"time": 2608, "pitch": 80, "duration": 3, "velocity": 127}, {"time": 2614, "pitch": 82, "duration": 1, "velocity": 127}, {"time": 2617, "pitch": 80, "duration": 3, "velocity": 117}, {"time": 2623, "pitch": 78, "duration": 7, "velocity": 127}, {"time": 2632, "pitch": 75, "duration": 4, "velocity": 122}, {"time": 2638, "pitch": 77, "duration": 4, "velocity": 117}, {"time": 2644, "pitch": 78, "duration": 4, "velocity": 127}, {"time": 2650, "pitch": 77, "duration": 1, "velocity": 127}, {"time": 2653, "pitch": 78, "duration": 5, "velocity": 127}, {"time": 2665, "pitch": 77, "duration": 1, "velocity": 112}, {"time": 2668, "pitch": 75, "duration": 4, "velocity": 107}, {"time": 2674, "pitch": 77, "duration": 3, "velocity": 102}, {"time": 2680, "pitch": 78, "duration": 8, "velocity": 122}, {"time": 2689, "pitch": 77, "duration": 5, "velocity": 99}, {"time": 2698, "pitch": 78, "duration": 41, "velocity": 127}]}, {"program": 0, "is_drum": false, "name": "PIANO", "notes": [{"time": 4, "pitch": 45, "duration": 14, "velocity": 62}, {"time": 4, "pitch": 60, "duration": 10, "velocity": 53}, {"time": 4, "pitch": 64, "duration": 8, "velocity": 53}, {"time": 10, "pitch": 52, "duration": 8, "velocity": 56}, {"time": 16, "pitch": 60, "duration": 12, "velocity": 72}, {"time": 22, "pitch": 57, "duration": 7, "velocity": 55}, {"time": 28, "pitch": 46, "duration": 18, "velocity": 76}, {"time": 34, "pitch": 53, "duration": 18, "velocity": 48}, {"time": 40, "pitch": 62, "duration": 13, "velocity": 83}, {"time": 46, "pitch": 58, "duration": 7, "velocity": 53}, {"time": 52, "pitch": 49, "duration": 14, "velocity": 86}, {"time": 58, "pitch": 57, "duration": 26, "velocity": 55}, {"time": 64, "pitch": 61, "duration": 13, "velocity": 96}, {"time": 70, "pitch": 64, "duration": 7, "velocity": 86}, {"time": 76, "pitch": 38, "duration": 18, "velocity": 71}, {"time": 82, "pitch": 45, "duration": 12, "velocity": 53}, {"time": 88, "pitch": 50, "duration": 11, "velocity": 62}, {"time": 88, "pitch": 65, "duration": 12, "velocity": 78}, {"time": 94, "pitch": 62, "duration": 7, "velocity": 76}, {"time": 100, "pitch": 43, "duration": 18, "velocity": 74}, {"time": 106, "pitch": 50, "duration": 12, "velocity": 62}, {"time": 112, "pitch": 62, "duration": 13, "velocity": 97}, {"time": 118, "pitch": 58, "duration": 7, "velocity": 79}, {"time": 124, "pitch": 36, "duration": 18, "velocity": 71}, {"time": 130, "pitch": 43, "duration": 13, "velocity": 46}, {"time": 136, "pitch": 48, "duration": 12, "velocity": 64}, {"time": 136, "pitch": 64, "duration": 12, "velocity": 95}, {"time": 142, "pitch": 60, "duration": 6, "velocity": 70}, {"time": 148, "pitch": 41, "duration": 17, "velocity": 85}, {"time": 154, "pitch": 48, "duration": 10, "velocity": 63}, {"time": 160, "pitch": 65, "duration": 5, "velocity": 68}, {"time": 160, "pitch": 69, "duration": 6, "velocity": 76}, {"time": 166, "pitch": 60, "duration": 31, "velocity": 81}, {"time": 172, "pitch": 36, "duration": 24, "velocity": 34}, {"time": 172, "pitch": 43, "duration": 24, "velocity": 55}, {"time": 172, "pitch": 48, "duration": 24, "velocity": 63}, {"time": 172, "pitch": 64, "duration": 24, "velocity": 62}, {"time": 172, "pitch": 67, "duration": 24, "velocity": 63}, {"time": 196, "pitch": 41, "duration": 16, "velocity": 63}, {"time": 202, "pitch": 48, "duration": 9, "velocity": 52}, {"time": 208, "pitch": 53, "duration": 6, "velocity": 69}, {"time": 208, "pitch": 65, "duration": 11, "velocity": 76}, {"time": 208, "pitch": 69, "duration": 11, "velocity": 71}, {"time": 214, "pitch": 60, "duration": 6, "velocity": 77}, {"time": 220, "pitch": 49, "duration": 14, "velocity": 69}, {"time": 226, "pitch": 57, "duration": 7, "velocity": 69}, {"time": 232, "pitch": 61, "duration": 13, "velocity": 85}, {"time": 232, "pitch": 64, "duration": 13, "velocity": 79}, {"time": 238, "pitch": 57, "duration": 7, "velocity": 71}, {"time": 244, "pitch": 41, "duration": 22, "velocity": 82}, {"time": 250, "pitch": 48, "duration": 18, "velocity": 58}, {"time": 256, "pitch": 53, "duration": 31, "velocity": 61}, {"time": 256, "pitch": 65, "duration": 22, "velocity": 76}, {"time": 256, "pitch": 69, "duration": 22, "velocity": 72}, {"time": 262, "pitch": 60, "duration": 19, "velocity": 76}, {"time": 268, "pitch": 41, "duration": 16, "velocity": 66}, {"time": 274, "pitch": 48, "duration": 10, "velocity": 38}, {"time": 280, "pitch": 65, "duration": 13, "velocity": 83}, {"time": 280, "pitch": 69, "duration": 12, "velocity": 92}, {"time": 286, "pitch": 60, "duration": 7, "velocity": 69}, {"time": 292, "pitch": 46, "duration": 18, "velocity": 83}, {"time": 298, "pitch": 58, "duration": 9, "velocity": 58}, {"time": 304, "pitch": 65, "duration": 12, "velocity": 102}, {"time": 310, "pitch": 62, "duration": 6, "velocity": 82}, {"time": 316, "pitch": 45, "duration": 17, "velocity": 74}, {"time": 322, "pitch": 52, "duration": 9, "velocity": 64}, {"time": 328, "pitch": 60, "duration": 13, "velocity": 95}, {"time": 328, "pitch": 64, "duration": 13, "velocity": 83}, {"time": 334, "pitch": 57, "duration": 6, "velocity": 78}, {"time": 340, "pitch": 43, "duration": 17, "velocity": 69}, {"time": 346, "pitch": 50, "duration": 11, "velocity": 58}, {"time": 352, "pitch": 55, "duration": 3, "velocity": 67}, {"time": 352, "pitch": 67, "duration": 12, "velocity": 85}, {"time": 352, "pitch": 70, "duration": 12, "velocity": 93}, {"time": 358, "pitch": 62, "duration": 6, "velocity": 89}, {"time": 364, "pitch": 36, "duration": 18, "velocity": 82}, {"time": 370, "pitch": 43, "duration": 12, "velocity": 44}, {"time": 376, "pitch": 48, "duration": 11, "velocity": 82}, {"time": 376, "pitch": 60, "duration": 12, "velocity": 85}, {"time": 376, "pitch": 64, "duration": 12, "velocity": 82}, {"time": 382, "pitch": 55, "duration": 6, "velocity": 100}, {"time": 388, "pitch": 41, "duration": 16, "velocity": 85}, {"time": 394, "pitch": 48, "duration": 9, "velocity": 59}, {"time": 400, "pitch": 53, "duration": 6, "velocity": 88}, {"time": 400, "pitch": 65, "duration": 11, "velocity": 89}, {"time": 400, "pitch": 69, "duration": 12, "velocity": 92}, {"time": 406, "pitch": 60, "duration": 7, "velocity": 93}, {"time": 412, "pitch": 49, "duration": 16, "velocity": 117}, {"time": 418, "pitch": 57, "duration": 7, "velocity": 89}, {"time": 424, "pitch": 61, "duration": 11, "velocity": 100}, {"time": 424, "pitch": 64, "duration": 12, "velocity": 88}, {"time": 430, "pitch": 57, "duration": 6, "velocity": 92}, {"time": 436, "pitch": 38, "duration": 18, "velocity": 73}, {"time": 442, "pitch": 45, "duration": 10, "velocity": 52}, {"time": 448, "pitch": 50, "duration": 8, "velocity": 58}, {"time": 448, "pitch": 62, "duration": 11, "velocity": 89}, {"time": 448, "pitch": 65, "duration": 11, "velocity": 85}, {"time": 454, "pitch": 57, "duration": 6, "velocity": 81}, {"time": 460, "pitch": 48, "duration": 20, "velocity": 69}, {"time": 466, "pitch": 55, "duration": 7, "velocity": 86}, {"time": 472, "pitch": 60, "duration": 8, "velocity": 83}, {"time": 472, "pitch": 64, "duration": 8, "velocity": 85}, {"time": 478, "pitch": 55, "duration": 6, "velocity": 69}, {"time": 484, "pitch": 46, "duration": 19, "velocity": 92}, {"time": 490, "pitch": 58, "duration": 6, "velocity": 81}, {"time": 496, "pitch": 62, "duration": 12, "velocity": 90}, {"time": 502, "pitch": 58, "duration": 6, "velocity": 89}, {"time": 502, "pitch": 65, "duration": 6, "velocity": 37}, {"time": 502, "pitch": 66, "duration": 1, "velocity": 47}, {"time": 508, "pitch": 45, "duration": 6, "velocity": 77}, {"time": 514, "pitch": 57, "duration": 7, "velocity": 92}, {"time": 520, "pitch": 38, "duration": 6, "velocity": 76}, {"time": 526, "pitch": 62, "duration": 6, "velocity": 82}, {"time": 532, "pitch": 43, "duration": 16, "velocity": 76}, {"time": 538, "pitch": 50, "duration": 9, "velocity": 68}, {"time": 544, "pitch": 58, "duration": 11, "velocity": 85}, {"time": 544, "pitch": 62, "duration": 11, "velocity": 72}, {"time": 550, "pitch": 55, "duration": 7, "velocity": 90}, {"time": 556, "pitch": 36, "duration": 19, "velocity": 89}, {"time": 562, "pitch": 43, "duration": 12, "velocity": 40}, {"time": 568, "pitch": 48, "duration": 11, "velocity": 66}, {"time": 568, "pitch": 60, "duration": 9, "velocity": 88}, {"time": 568, "pitch": 64, "duration": 9, "velocity": 78}, {"time": 574, "pitch": 55, "duration": 4, "velocity": 76}, {"time": 580, "pitch": 43, "duration": 22, "velocity": 73}, {"time": 580, "pitch": 55, "duration": 10, "velocity": 88}, {"time": 580, "pitch": 59, "duration": 10, "velocity": 96}, {"time": 580, "pitch": 62, "duration": 10, "velocity": 92}, {"time": 586, "pitch": 50, "duration": 8, "velocity": 58}, {"time": 592, "pitch": 55, "duration": 9, "velocity": 107}, {"time": 592, "pitch": 59, "duration": 10, "velocity": 127}, {"time": 592, "pitch": 62, "duration": 7, "velocity": 112}, {"time": 598, "pitch": 50, "duration": 6, "velocity": 85}, {"time": 604, "pitch": 45, "duration": 17, "velocity": 93}, {"time": 604, "pitch": 57, "duration": 9, "velocity": 90}, {"time": 604, "pitch": 61, "duration": 10, "velocity": 102}, {"time": 604, "pitch": 64, "duration": 9, "velocity": 92}, {"time": 610, "pitch": 52, "duration": 6, "velocity": 79}, {"time": 616, "pitch": 61, "duration": 12, "velocity": 127}, {"time": 616, "pitch": 64, "duration": 12, "velocity": 102}, {"time": 619, "pitch": 52, "duration": 2, "velocity": 99}, {"time": 622, "pitch": 57, "duration": 7, "velocity": 102}, {"time": 628, "pitch": 38, "duration": 23, "velocity": 90}, {"time": 631, "pitch": 45, "duration": 21, "velocity": 79}, {"time": 634, "pitch": 50, "duration": 8, "velocity": 79}, {"time": 640, "pitch": 62, "duration": 7, "velocity": 93}, {"time": 640, "pitch": 65, "duration": 21, "velocity": 93}, {"time": 643, "pitch": 50, "duration": 12, "velocity": 58}, {"time": 646, "pitch": 57, "duration": 16, "velocity": 90}, {"time": 649, "pitch": 62, "duration": 12, "velocity": 97}, {"time": 652, "pitch": 38, "duration": 15, "velocity": 83}, {"time": 658, "pitch": 45, "duration": 10, "velocity": 64}, {"time": 664, "pitch": 65, "duration": 8, "velocity": 127}, {"time": 667, "pitch": 50, "duration": 4, "velocity": 93}, {"time": 670, "pitch": 62, "duration": 3, "velocity": 127}, {"time": 673, "pitch": 57, "duration": 3, "velocity": 92}, {"time": 676, "pitch": 43, "duration": 19, "velocity": 93}, {"time": 676, "pitch": 59, "duration": 10, "velocity": 107}, {"time": 676, "pitch": 62, "duration": 8, "velocity": 100}, {"time": 682, "pitch": 50, "duration": 7, "velocity": 46}, {"time": 688, "pitch": 55, "duration": 6, "velocity": 100}, {"time": 688, "pitch": 59, "duration": 10, "velocity": 112}, {"time": 688, "pitch": 62, "duration": 4, "velocity": 122}, {"time": 694, "pitch": 50, "duration": 5, "velocity": 92}, {"time": 700, "pitch": 47, "duration": 20, "velocity": 79}, {"time": 700, "pitch": 59, "duration": 10, "velocity": 107}, {"time": 700, "pitch": 62, "duration": 9, "velocity": 99}, {"time": 700, "pitch": 65, "duration": 9, "velocity": 93}, {"time": 706, "pitch": 53, "duration": 10, "velocity": 75}, {"time": 712, "pitch": 59, "duration": 10, "velocity": 96}, {"time": 712, "pitch": 62, "duration": 8, "velocity": 117}, {"time": 712, "pitch": 65, "duration": 8, "velocity": 100}, {"time": 718, "pitch": 53, "duration": 1, "velocity": 78}, {"time": 724, "pitch": 36, "duration": 20, "velocity": 92}, {"time": 724, "pitch": 60, "duration": 7, "velocity": 107}, {"time": 724, "pitch": 64, "duration": 10, "velocity": 97}, {"time": 730, "pitch": 43, "duration": 17, "velocity": 83}, {"time": 733, "pitch": 60, "duration": 1, "velocity": 29}, {"time": 736, "pitch": 48, "duration": 1, "velocity": 28}, {"time": 736, "pitch": 60, "duration": 6, "velocity": 112}, {"time": 736, "pitch": 64, "duration": 10, "velocity": 117}, {"time": 739, "pitch": 48, "duration": 2, "velocity": 95}, {"time": 742, "pitch": 55, "duration": 4, "velocity": 102}, {"time": 745, "pitch": 60, "duration": 1, "velocity": 86}, {"time": 748, "pitch": 48, "duration": 6, "velocity": 86}, {"time": 748, "pitch": 64, "duration": 6, "velocity": 97}, {"time": 748, "pitch": 67, "duration": 6, "velocity": 102}, {"time": 754, "pitch": 60, "duration": 4, "velocity": 117}, {"time": 760, "pitch": 45, "duration": 6, "velocity": 100}, {"time": 760, "pitch": 57, "duration": 10, "velocity": 112}, {"time": 760, "pitch": 60, "duration": 11, "velocity": 97}, {"time": 760, "pitch": 64, "duration": 11, "velocity": 96}, {"time": 772, "pitch": 46, "duration": 17, "velocity": 107}, {"time": 775, "pitch": 58, "duration": 9, "velocity": 93}, {"time": 778, "pitch": 62, "duration": 6, "velocity": 95}, {"time": 781, "pitch": 65, "duration": 3, "velocity": 100}, {"time": 784, "pitch": 70, "duration": 9, "velocity": 127}, {"time": 787, "pitch": 58, "duration": 1, "velocity": 112}, {"time": 790, "pitch": 65, "duration": 5, "velocity": 99}, {"time": 793, "pitch": 62, "duration": 3, "velocity": 102}, {"time": 796, "pitch": 36, "duration": 18, "velocity": 70}, {"time": 799, "pitch": 43, "duration": 15, "velocity": 61}, {"time": 802, "pitch": 48, "duration": 7, "velocity": 92}, {"time": 805, "pitch": 55, "duration": 4, "velocity": 100}, {"time": 808, "pitch": 64, "duration": 12, "velocity": 112}, {"time": 811, "pitch": 48, "duration": 5, "velocity": 96}, {"time": 814, "pitch": 60, "duration": 6, "velocity": 117}, {"time": 817, "pitch": 55, "duration": 2, "velocity": 100}, {"time": 820, "pitch": 45, "duration": 18, "velocity": 83}, {"time": 823, "pitch": 52, "duration": 14, "velocity": 77}, {"time": 826, "pitch": 57, "duration": 7, "velocity": 97}, {"time": 829, "pitch": 60, "duration": 5, "velocity": 99}, {"time": 832, "pitch": 69, "duration": 10, "velocity": 100}, {"time": 835, "pitch": 57, "duration": 2, "velocity": 96}, {"time": 838, "pitch": 64, "duration": 5, "velocity": 95}, {"time": 841, "pitch": 60, "duration": 3, "velocity": 102}, {"time": 844, "pitch": 38, "duration": 17, "velocity": 78}, {"time": 847, "pitch": 45, "duration": 14, "velocity": 74}, {"time": 850, "pitch": 50, "duration": 7, "velocity": 99}, {"time": 853, "pitch": 57, "duration": 5, "velocity": 112}, {"time": 856, "pitch": 65, "duration": 12, "velocity": 127}, {"time": 859, "pitch": 50, "duration": 7, "velocity": 100}, {"time": 862, "pitch": 62, "duration": 5, "velocity": 107}, {"time": 865, "pitch": 57, "duration": 3, "velocity": 112}, {"time": 868, "pitch": 43, "duration": 18, "velocity": 96}, {"time": 871, "pitch": 50, "duration": 14, "velocity": 78}, {"time": 874, "pitch": 55, "duration": 7, "velocity": 97}, {"time": 877, "pitch": 62, "duration": 6, "velocity": 100}, {"time": 880, "pitch": 70, "duration": 10, "velocity": 117}, {"time": 883, "pitch": 55, "duration": 2, "velocity": 97}, {"time": 886, "pitch": 67, "duration": 5, "velocity": 117}, {"time": 889, "pitch": 62, "duration": 3, "velocity": 112}, {"time": 892, "pitch": 36, "duration": 18, "velocity": 93}, {"time": 895, "pitch": 43, "duration": 15, "velocity": 77}, {"time": 898, "pitch": 48, "duration": 7, "velocity": 70}, {"time": 901, "pitch": 55, "duration": 6, "velocity": 100}, {"time": 904, "pitch": 64, "duration": 11, "velocity": 112}, {"time": 907, "pitch": 48, "duration": 7, "velocity": 97}, {"time": 910, "pitch": 60, "duration": 5, "velocity": 122}, {"time": 913, "pitch": 55, "duration": 2, "velocity": 122}, {"time": 916, "pitch": 41, "duration": 22, "velocity": 93}, {"time": 919, "pitch": 48, "duration": 21, "velocity": 85}, {"time": 922, "pitch": 53, "duration": 7, "velocity": 100}, {"time": 925, "pitch": 60, "duration": 22, "velocity": 107}, {"time": 928, "pitch": 69, "duration": 12, "velocity": 122}, {"time": 931, "pitch": 53, "duration": 8, "velocity": 97}, {"time": 934, "pitch": 67, "duration": 4, "velocity": 107}, {"time": 937, "pitch": 65, "duration": 11, "velocity": 127}, {"time": 940, "pitch": 41, "duration": 17, "velocity": 88}, {"time": 943, "pitch": 48, "duration": 14, "velocity": 102}, {"time": 946, "pitch": 53, "duration": 7, "velocity": 117}, {"time": 949, "pitch": 60, "duration": 8, "velocity": 99}, {"time": 949, "pitch": 65, "duration": 1, "velocity": 39}, {"time": 952, "pitch": 69, "duration": 10, "velocity": 122}, {"time": 955, "pitch": 53, "duration": 3, "velocity": 102}, {"time": 958, "pitch": 65, "duration": 5, "velocity": 127}, {"time": 961, "pitch": 60, "duration": 3, "velocity": 112}, {"time": 964, "pitch": 46, "duration": 18, "velocity": 100}, {"time": 967, "pitch": 53, "duration": 14, "velocity": 69}, {"time": 970, "pitch": 58, "duration": 6, "velocity": 97}, {"time": 973, "pitch": 62, "duration": 4, "velocity": 99}, {"time": 976, "pitch": 70, "duration": 10, "velocity": 127}, {"time": 979, "pitch": 58, "duration": 3, "velocity": 102}, {"time": 982, "pitch": 65, "duration": 5, "velocity": 93}, {"time": 985, "pitch": 62, "duration": 3, "velocity": 107}, {"time": 988, "pitch": 48, "duration": 18, "velocity": 73}, {"time": 991, "pitch": 55, "duration": 11, "velocity": 72}, {"time": 994, "pitch": 60, "duration": 3, "velocity": 100}, {"time": 997, "pitch": 64, "duration": 3, "velocity": 102}, {"time": 1000, "pitch": 67, "duration": 8, "velocity": 127}, {"time": 1003, "pitch": 55, "duration": 2, "velocity": 81}, {"time": 1006, "pitch": 64, "duration": 2, "velocity": 127}, {"time": 1012, "pitch": 45, "duration": 17, "velocity": 82}, {"time": 1015, "pitch": 52, "duration": 10, "velocity": 89}, {"time": 1018, "pitch": 57, "duration": 4, "velocity": 99}, {"time": 1021, "pitch": 61, "duration": 3, "velocity": 122}, {"time": 1024, "pitch": 64, "duration": 10, "velocity": 117}, {"time": 1027, "pitch": 52, "duration": 1, "velocity": 89}, {"time": 1030, "pitch": 61, "duration": 4, "velocity": 127}, {"time": 1033, "pitch": 57, "duration": 5, "velocity": 117}, {"time": 1036, "pitch": 38, "duration": 16, "velocity": 74}, {"time": 1039, "pitch": 45, "duration": 14, "velocity": 83}, {"time": 1042, "pitch": 50, "duration": 7, "velocity": 93}, {"time": 1045, "pitch": 57, "duration": 6, "velocity": 99}, {"time": 1048, "pitch": 65, "duration": 11, "velocity": 122}, {"time": 1051, "pitch": 50, "duration": 7, "velocity": 99}, {"time": 1054, "pitch": 62, "duration": 5, "velocity": 122}, {"time": 1057, "pitch": 57, "duration": 3, "velocity": 102}, {"time": 1060, "pitch": 43, "duration": 18, "velocity": 82}, {"time": 1063, "pitch": 50, "duration": 10, "velocity": 75}, {"time": 1066, "pitch": 55, "duration": 4, "velocity": 90}, {"time": 1069, "pitch": 58, "duration": 3, "velocity": 112}, {"time": 1072, "pitch": 62, "duration": 10, "velocity": 107}, {"time": 1075, "pitch": 50, "duration": 2, "velocity": 83}, {"time": 1078, "pitch": 58, "duration": 4, "velocity": 127}, {"time": 1081, "pitch": 55, "duration": 3, "velocity": 102}, {"time": 1084, "pitch": 36, "duration": 18, "velocity": 88}, {"time": 1087, "pitch": 43, "duration": 15, "velocity": 83}, {"time": 1090, "pitch": 48, "duration": 7, "velocity": 97}, {"time": 1093, "pitch": 60, "duration": 2, "velocity": 112}, {"time": 1096, "pitch": 64, "duration": 11, "velocity": 107}, {"time": 1099, "pitch": 48, "duration": 8, "velocity": 92}, {"time": 1102, "pitch": 60, "duration": 5, "velocity": 107}, {"time": 1105, "pitch": 55, "duration": 3, "velocity": 100}, {"time": 1108, "pitch": 41, "duration": 22, "velocity": 85}, {"time": 1111, "pitch": 48, "duration": 9, "velocity": 88}, {"time": 1114, "pitch": 53, "duration": 5, "velocity": 92}, {"time": 1117, "pitch": 57, "duration": 3, "velocity": 127}, {"time": 1120, "pitch": 60, "duration": 11, "velocity": 112}, {"time": 1123, "pitch": 48, "duration": 9, "velocity": 90}, {"time": 1126, "pitch": 57, "duration": 5, "velocity": 117}, {"time": 1129, "pitch": 55, "duration": 3, "velocity": 99}, {"time": 1132, "pitch": 41, "duration": 17, "velocity": 83}, {"time": 1135, "pitch": 48, "duration": 15, "velocity": 76}, {"time": 1138, "pitch": 53, "duration": 7, "velocity": 96}, {"time": 1141, "pitch": 60, "duration": 4, "velocity": 100}, {"time": 1144, "pitch": 69, "duration": 10, "velocity": 127}, {"time": 1147, "pitch": 53, "duration": 3, "velocity": 112}, {"time": 1150, "pitch": 65, "duration": 5, "velocity": 127}, {"time": 1153, "pitch": 60, "duration": 3, "velocity": 127}, {"time": 1156, "pitch": 44, "duration": 22, "velocity": 127}, {"time": 1159, "pitch": 56, "duration": 9, "velocity": 96}, {"time": 1162, "pitch": 60, "duration": 8, "velocity": 93}, {"time": 1165, "pitch": 63, "duration": 3, "velocity": 112}, {"time": 1168, "pitch": 68, "duration": 16, "velocity": 127}, {"time": 1171, "pitch": 56, "duration": 10, "velocity": 89}, {"time": 1174, "pitch": 63, "duration": 11, "velocity": 117}, {"time": 1177, "pitch": 60, "duration": 5, "velocity": 112}, {"time": 1180, "pitch": 44, "duration": 16, "velocity": 99}, {"time": 1183, "pitch": 56, "duration": 8, "velocity": 95}, {"time": 1186, "pitch": 60, "duration": 7, "velocity": 81}, {"time": 1189, "pitch": 63, "duration": 3, "velocity": 97}, {"time": 1192, "pitch": 68, "duration": 13, "velocity": 127}, {"time": 1195, "pitch": 56, "duration": 1, "velocity": 93}, {"time": 1198, "pitch": 63, "duration": 7, "velocity": 117}, {"time": 1201, "pitch": 60, "duration": 4, "velocity": 99}, {"time": 1204, "pitch": 39, "duration": 30, "velocity": 88}, {"time": 1207, "pitch": 46, "duration": 26, "velocity": 55}, {"time": 1210, "pitch": 51, "duration": 6, "velocity": 88}, {"time": 1213, "pitch": 55, "duration": 5, "velocity": 89}, {"time": 1216, "pitch": 63, "duration": 20, "velocity": 122}, {"time": 1219, "pitch": 51, "duration": 5, "velocity": 86}, {"time": 1222, "pitch": 58, "duration": 3, "velocity": 107}, {"time": 1225, "pitch": 55, "duration": 4, "velocity": 96}, {"time": 1228, "pitch": 51, "duration": 5, "velocity": 95}, {"time": 1231, "pitch": 55, "duration": 3, "velocity": 93}, {"time": 1234, "pitch": 58, "duration": 4, "velocity": 127}, {"time": 1237, "pitch": 55, "duration": 2, "velocity": 92}, {"time": 1240, "pitch": 36, "duration": 7, "velocity": 86}, {"time": 1240, "pitch": 55, "duration": 11, "velocity": 100}, {"time": 1240, "pitch": 60, "duration": 11, "velocity": 107}, {"time": 1240, "pitch": 64, "duration": 11, "velocity": 112}, {"time": 1252, "pitch": 41, "duration": 18, "velocity": 77}, {"time": 1255, "pitch": 48, "duration": 10, "velocity": 74}, {"time": 1258, "pitch": 53, "duration": 3, "velocity": 89}, {"time": 1261, "pitch": 56, "duration": 3, "velocity": 107}, {"time": 1264, "pitch": 60, "duration": 10, "velocity": 100}, {"time": 1267, "pitch": 48, "duration": 2, "velocity": 79}, {"time": 1270, "pitch": 56, "duration": 4, "velocity": 127}, {"time": 1273, "pitch": 53, "duration": 2, "velocity": 95}, {"time": 1276, "pitch": 37, "duration": 16, "velocity": 112}, {"time": 1279, "pitch": 49, "duration": 10, "velocity": 97}, {"time": 1282, "pitch": 53, "duration": 6, "velocity": 63}, {"time": 1285, "pitch": 56, "duration": 2, "velocity": 107}, {"time": 1288, "pitch": 61, "duration": 11, "velocity": 127}, {"time": 1291, "pitch": 49, "duration": 5, "velocity": 112}, {"time": 1294, "pitch": 56, "duration": 4, "velocity": 122}, {"time": 1297, "pitch": 53, "duration": 3, "velocity": 102}, {"time": 1300, "pitch": 39, "duration": 22, "velocity": 88}, {"time": 1303, "pitch": 46, "duration": 20, "velocity": 36}, {"time": 1306, "pitch": 51, "duration": 7, "velocity": 97}, {"time": 1309, "pitch": 55, "duration": 4, "velocity": 95}, {"time": 1312, "pitch": 58, "duration": 6, "velocity": 102}, {"time": 1312, "pitch": 63, "duration": 20, "velocity": 122}, {"time": 1315, "pitch": 51, "duration": 13, "velocity": 96}, {"time": 1318, "pitch": 55, "duration": 12, "velocity": 82}, {"time": 1321, "pitch": 58, "duration": 10, "velocity": 122}, {"time": 1324, "pitch": 39, "duration": 18, "velocity": 81}, {"time": 1327, "pitch": 46, "duration": 14, "velocity": 55}, {"time": 1330, "pitch": 51, "duration": 7, "velocity": 96}, {"time": 1333, "pitch": 55, "duration": 6, "velocity": 89}, {"time": 1336, "pitch": 63, "duration": 10, "velocity": 127}, {"time": 1339, "pitch": 51, "duration": 2, "velocity": 96}, {"time": 1342, "pitch": 58, "duration": 3, "velocity": 117}, {"time": 1345, "pitch": 55, "duration": 3, "velocity": 107}, {"time": 1348, "pitch": 36, "duration": 48, "velocity": 83}, {"time": 1351, "pitch": 43, "duration": 45, "velocity": 81}, {"time": 1354, "pitch": 48, "duration": 16, "velocity": 90}, {"time": 1357, "pitch": 55, "duration": 12, "velocity": 69}, {"time": 1360, "pitch": 60, "duration": 6, "velocity": 93}, {"time": 1363, "pitch": 62, "duration": 33, "velocity": 86}, {"time": 1366, "pitch": 64, "duration": 30, "velocity": 85}, {"time": 1369, "pitch": 60, "duration": 27, "velocity": 55}, {"time": 1372, "pitch": 48, "duration": 24, "velocity": 73}, {"time": 1372, "pitch": 55, "duration": 24, "velocity": 81}, {"time": 1396, "pitch": 41, "duration": 16, "velocity": 63}, {"time": 1402, "pitch": 48, "duration": 9, "velocity": 52}, {"time": 1408, "pitch": 53, "duration": 6, "velocity": 69}, {"time": 1408, "pitch": 65, "duration": 11, "velocity": 76}, {"time": 1408, "pitch": 69, "duration": 11, "velocity": 71}, {"time": 1414, "pitch": 60, "duration": 6, "velocity": 77}, {"time": 1420, "pitch": 49, "duration": 14, "velocity": 69}, {"time": 1426, "pitch": 57, "duration": 7, "velocity": 69}, {"time": 1432, "pitch": 61, "duration": 13, "velocity": 85}, {"time": 1432, "pitch": 64, "duration": 13, "velocity": 79}, {"time": 1438, "pitch": 57, "duration": 7, "velocity": 71}, {"time": 1444, "pitch": 41, "duration": 22, "velocity": 82}, {"time": 1450, "pitch": 48, "duration": 18, "velocity": 58}, {"time": 1456, "pitch": 53, "duration": 31, "velocity": 61}, {"time": 1456, "pitch": 65, "duration": 22, "velocity": 76}, {"time": 1456, "pitch": 69, "duration": 22, "velocity": 72}, {"time": 1462, "pitch": 60, "duration": 19, "velocity": 76}, {"time": 1468, "pitch": 41, "duration": 16, "velocity": 66}, {"time": 1474, "pitch": 48, "duration": 10, "velocity": 38}, {"time": 1480, "pitch": 65, "duration": 13, "velocity": 83}, {"time": 1480, "pitch": 69, "duration": 12, "velocity": 92}, {"time": 1486, "pitch": 60, "duration": 7, "velocity": 69}, {"time": 1492, "pitch": 46, "duration": 18, "velocity": 83}, {"time": 1498, "pitch": 58, "duration": 9, "velocity": 58}, {"time": 1504, "pitch": 65, "duration": 12, "velocity": 102}, {"time": 1510, "pitch": 62, "duration": 6, "velocity": 82}, {"time": 1516, "pitch": 45, "duration": 17, "velocity": 74}, {"time": 1522, "pitch": 52, "duration": 9, "velocity": 64}, {"time": 1528, "pitch": 60, "duration": 13, "velocity": 95}, {"time": 1528, "pitch": 64, "duration": 13, "velocity": 83}, {"time": 1534, "pitch": 57, "duration": 6, "velocity": 78}, {"time": 1540, "pitch": 43, "duration": 17, "velocity": 69}, {"time": 1546, "pitch": 50, "duration": 11, "velocity": 58}, {"time": 1552, "pitch": 55, "duration": 3, "velocity": 67}, {"time": 1552, "pitch": 67, "duration": 12, "velocity": 85}, {"time": 1552, "pitch": 70, "duration": 12, "velocity": 93}, {"time": 1558, "pitch": 62, "duration": 6, "velocity": 89}, {"time": 1564, "pitch": 36, "duration": 18, "velocity": 82}, {"time": 1570, "pitch": 43, "duration": 12, "velocity": 44}, {"time": 1576, "pitch": 48, "duration": 11, "velocity": 82}, {"time": 1576, "pitch": 60, "duration": 12, "velocity": 85}, {"time": 1576, "pitch": 64, "duration": 12, "velocity": 82}, {"time": 1582, "pitch": 55, "duration": 6, "velocity": 100}, {"time": 1588, "pitch": 41, "duration": 16, "velocity": 85}, {"time": 1594, "pitch": 48, "duration": 9, "velocity": 59}, {"time": 1600, "pitch": 53, "duration": 6, "velocity": 88}, {"time": 1600, "pitch": 65, "duration": 11, "velocity": 89}, {"time": 1600, "pitch": 69, "duration": 12, "velocity": 92}, {"time": 1606, "pitch": 60, "duration": 7, "velocity": 93}, {"time": 1612, "pitch": 49, "duration": 16, "velocity": 117}, {"time": 1618, "pitch": 57, "duration": 7, "velocity": 89}, {"time": 1624, "pitch": 61, "duration": 11, "velocity": 100}, {"time": 1624, "pitch": 64, "duration": 12, "velocity": 88}, {"time": 1630, "pitch": 57, "duration": 6, "velocity": 92}, {"time": 1636, "pitch": 38, "duration": 18, "velocity": 73}, {"time": 1642, "pitch": 45, "duration": 10, "velocity": 52}, {"time": 1648, "pitch": 50, "duration": 8, "velocity": 58}, {"time": 1648, "pitch": 62, "duration": 11, "velocity": 89}, {"time": 1648, "pitch": 65, "duration": 11, "velocity": 85}, {"time": 1654, "pitch": 57, "duration": 6, "velocity": 81}, {"time": 1660, "pitch": 48, "duration": 20, "velocity": 69}, {"time": 1666, "pitch": 55, "duration": 7, "velocity": 86}, {"time": 1672, "pitch": 60, "duration": 8, "velocity": 83}, {"time": 1672, "pitch": 64, "duration": 8, "velocity": 85}, {"time": 1678, "pitch": 55, "duration": 6, "velocity": 69}, {"time": 1684, "pitch": 46, "duration": 19, "velocity": 92}, {"time": 1690, "pitch": 58, "duration": 6, "velocity": 81}, {"time": 1696, "pitch": 62, "duration": 12, "velocity": 90}, {"time": 1702, "pitch": 58, "duration": 6, "velocity": 89}, {"time": 1702, "pitch": 65, "duration": 6, "velocity": 37}, {"time": 1702, "pitch": 66, "duration": 1, "velocity": 47}, {"time": 1708, "pitch": 45, "duration": 6, "velocity": 77}, {"time": 1714, "pitch": 57, "duration": 7, "velocity": 92}, {"time": 1720, "pitch": 38, "duration": 6, "velocity": 76}, {"time": 1726, "pitch": 62, "duration": 6, "velocity": 82}, {"time": 1732, "pitch": 43, "duration": 16, "velocity": 76}, {"time": 1738, "pitch": 50, "duration": 9, "velocity": 68}, {"time": 1744, "pitch": 58, "duration": 11, "velocity": 85}, {"time": 1744, "pitch": 62, "duration": 11, "velocity": 72}, {"time": 1750, "pitch": 55, "duration": 7, "velocity": 90}, {"time": 1756, "pitch": 36, "duration": 19, "velocity": 89}, {"time": 1762, "pitch": 43, "duration": 12, "velocity": 40}, {"time": 1768, "pitch": 48, "duration": 11, "velocity": 66}, {"time": 1768, "pitch": 60, "duration": 9, "velocity": 88}, {"time": 1768, "pitch": 64, "duration": 9, "velocity": 78}, {"time": 1774, "pitch": 55, "duration": 4, "velocity": 76}, {"time": 1780, "pitch": 43, "duration": 22, "velocity": 73}, {"time": 1780, "pitch": 55, "duration": 10, "velocity": 88}, {"time": 1780, "pitch": 59, "duration": 10, "velocity": 96}, {"time": 1780, "pitch": 62, "duration": 10, "velocity": 92}, {"time": 1786, "pitch": 50, "duration": 8, "velocity": 58}, {"time": 1792, "pitch": 55, "duration": 9, "velocity": 107}, {"time": 1792, "pitch": 59, "duration": 10, "velocity": 127}, {"time": 1792, "pitch": 62, "duration": 7, "velocity": 112}, {"time": 1798, "pitch": 50, "duration": 6, "velocity": 85}, {"time": 1804, "pitch": 45, "duration": 17, "velocity": 93}, {"time": 1804, "pitch": 57, "duration": 9, "velocity": 90}, {"time": 1804, "pitch": 61, "duration": 10, "velocity": 102}, {"time": 1804, "pitch": 64, "duration": 9, "velocity": 92}, {"time": 1810, "pitch": 52, "duration": 6, "velocity": 79}, {"time": 1816, "pitch": 61, "duration": 12, "velocity": 127}, {"time": 1816, "pitch": 64, "duration": 12, "velocity": 102}, {"time": 1819, "pitch": 52, "duration": 2, "velocity": 99}, {"time": 1822, "pitch": 57, "duration": 7, "velocity": 102}, {"time": 1828, "pitch": 38, "duration": 23, "velocity": 90}, {"time": 1831, "pitch": 45, "duration": 21, "velocity": 79}, {"time": 1834, "pitch": 50, "duration": 8, "velocity": 79}, {"time": 1840, "pitch": 62, "duration": 7, "velocity": 93}, {"time": 1840, "pitch": 65, "duration": 21, "velocity": 93}, {"time": 1843, "pitch": 50, "duration": 12, "velocity": 58}, {"time": 1846, "pitch": 57, "duration": 16, "velocity": 90}, {"time": 1849, "pitch": 62, "duration": 12, "velocity": 97}, {"time": 1852, "pitch": 38, "duration": 15, "velocity": 83}, {"time": 1858, "pitch": 45, "duration": 10, "velocity": 64}, {"time": 1864, "pitch": 65, "duration": 8, "velocity": 127}, {"time": 1867, "pitch": 50, "duration": 4, "velocity": 93}, {"time": 1870, "pitch": 62, "duration": 3, "velocity": 127}, {"time": 1873, "pitch": 57, "duration": 3, "velocity": 92}, {"time": 1876, "pitch": 43, "duration": 19, "velocity": 93}, {"time": 1876, "pitch": 59, "duration": 10, "velocity": 107}, {"time": 1876, "pitch": 62, "duration": 8, "velocity": 100}, {"time": 1882, "pitch": 50, "duration": 7, "velocity": 46}, {"time": 1888, "pitch": 55, "duration": 6, "velocity": 100}, {"time": 1888, "pitch": 59, "duration": 10, "velocity": 112}, {"time": 1888, "pitch": 62, "duration": 4, "velocity": 122}, {"time": 1894, "pitch": 50, "duration": 5, "velocity": 92}, {"time": 1900, "pitch": 47, "duration": 20, "velocity": 79}, {"time": 1900, "pitch": 59, "duration": 10, "velocity": 107}, {"time": 1900, "pitch": 62, "duration": 9, "velocity": 99}, {"time": 1900, "pitch": 65, "duration": 9, "velocity": 93}, {"time": 1906, "pitch": 53, "duration": 10, "velocity": 75}, {"time": 1912, "pitch": 59, "duration": 10, "velocity": 96}, {"time": 1912, "pitch": 62, "duration": 8, "velocity": 117}, {"time": 1912, "pitch": 65, "duration": 8, "velocity": 100}, {"time": 1918, "pitch": 53, "duration": 1, "velocity": 78}, {"time": 1924, "pitch": 36, "duration": 20, "velocity": 92}, {"time": 1924, "pitch": 60, "duration": 7, "velocity": 107}, {"time": 1924, "pitch": 64, "duration": 10, "velocity": 97}, {"time": 1930, "pitch": 43, "duration": 17, "velocity": 83}, {"time": 1933, "pitch": 60, "duration": 1, "velocity": 29}, {"time": 1936, "pitch": 48, "duration": 1, "velocity": 28}, {"time": 1936, "pitch": 60, "duration": 6, "velocity": 112}, {"time": 1936, "pitch": 64, "duration": 10, "velocity": 117}, {"time": 1939, "pitch": 48, "duration": 2, "velocity": 95}, {"time": 1942, "pitch": 55, "duration": 4, "velocity": 102}, {"time": 1945, "pitch": 60, "duration": 1, "velocity": 86}, {"time": 1948, "pitch": 48, "duration": 6, "velocity": 86}, {"time": 1948, "pitch": 64, "duration": 6, "velocity": 97}, {"time": 1948, "pitch": 67, "duration": 6, "velocity": 102}, {"time": 1954, "pitch": 60, "duration": 4, "velocity": 117}, {"time": 1960, "pitch": 45, "duration": 6, "velocity": 100}, {"time": 1960, "pitch": 57, "duration": 10, "velocity": 112}, {"time": 1960, "pitch": 60, "duration": 11, "velocity": 97}, {"time": 1960, "pitch": 64, "duration": 11, "velocity": 96}, {"time": 1972, "pitch": 46, "duration": 17, "velocity": 107}, {"time": 1975, "pitch": 58, "duration": 9, "velocity": 93}, {"time": 1978, "pitch": 62, "duration": 6, "velocity": 95}, {"time": 1981, "pitch": 65, "duration": 3, "velocity": 100}, {"time": 1984, "pitch": 70, "duration": 9, "velocity": 127}, {"time": 1987, "pitch": 58, "duration": 1, "velocity": 112}, {"time": 1990, "pitch": 65, "duration": 5, "velocity": 99}, {"time": 1993, "pitch": 62, "duration": 3, "velocity": 102}, {"time": 1996, "pitch": 36, "duration": 18, "velocity": 70}, {"time": 1999, "pitch": 43, "duration": 15, "velocity": 61}, {"time": 2002, "pitch": 48, "duration": 7, "velocity": 92}, {"time": 2005, "pitch": 55, "duration": 4, "velocity": 100}, {"time": 2008, "pitch": 64, "duration": 12, "velocity": 112}, {"time": 2011, "pitch": 48, "duration": 5, "velocity": 96}, {"time": 2014, "pitch": 60, "duration": 6, "velocity": 117}, {"time": 2017, "pitch": 55, "duration": 2, "velocity": 100}, {"time": 2020, "pitch": 45, "duration": 18, "velocity": 83}, {"time": 2023, "pitch": 52, "duration": 14, "velocity": 77}, {"time": 2026, "pitch": 57, "duration": 7, "velocity": 97}, {"time": 2029, "pitch": 60, "duration": 5, "velocity": 99}, {"time": 2032, "pitch": 69, "duration": 10, "velocity": 100}, {"time": 2035, "pitch": 57, "duration": 2, "velocity": 96}, {"time": 2038, "pitch": 64, "duration": 5, "velocity": 95}, {"time": 2041, "pitch": 60, "duration": 3, "velocity": 102}, {"time": 2044, "pitch": 38, "duration": 17, "velocity": 78}, {"time": 2047, "pitch": 45, "duration": 14, "velocity": 74}, {"time": 2050, "pitch": 50, "duration": 7, "velocity": 99}, {"time": 2053, "pitch": 57, "duration": 5, "velocity": 112}, {"time": 2056, "pitch": 65, "duration": 12, "velocity": 127}, {"time": 2059, "pitch": 50, "duration": 7, "velocity": 100}, {"time": 2062, "pitch": 62, "duration": 5, "velocity": 107}, {"time": 2065, "pitch": 57, "duration": 3, "velocity": 112}, {"time": 2068, "pitch": 43, "duration": 18, "velocity": 96}, {"time": 2071, "pitch": 50, "duration": 14, "velocity": 78}, {"time": 2074, "pitch": 55, "duration": 7, "velocity": 97}, {"time": 2077, "pitch": 62, "duration": 6, "velocity": 100}, {"time": 2080, "pitch": 70, "duration": 10, "velocity": 117}, {"time": 2083, "pitch": 55, "duration": 2, "velocity": 97}, {"time": 2086, "pitch": 67, "duration": 5, "velocity": 117}, {"time": 2089, "pitch": 62, "duration": 3, "velocity": 112}, {"time": 2092, "pitch": 36, "duration": 18, "velocity": 93}, {"time": 2095, "pitch": 43, "duration": 15, "velocity": 77}, {"time": 2098, "pitch": 48, "duration": 7, "velocity": 70}, {"time": 2101, "pitch": 55, "duration": 6, "velocity": 100}, {"time": 2104, "pitch": 64, "duration": 11, "velocity": 112}, {"time": 2107, "pitch": 48, "duration": 7, "velocity": 97}, {"time": 2110, "pitch": 60, "duration": 5, "velocity": 122}, {"time": 2113, "pitch": 55, "duration": 2, "velocity": 122}, {"time": 2116, "pitch": 41, "duration": 22, "velocity": 93}, {"time": 2119, "pitch": 48, "duration": 21, "velocity": 85}, {"time": 2122, "pitch": 53, "duration": 7, "velocity": 100}, {"time": 2125, "pitch": 60, "duration": 22, "velocity": 107}, {"time": 2128, "pitch": 69, "duration": 12, "velocity": 122}, {"time": 2131, "pitch": 53, "duration": 8, "velocity": 97}, {"time": 2134, "pitch": 67, "duration": 4, "velocity": 107}, {"time": 2137, "pitch": 65, "duration": 11, "velocity": 127}, {"time": 2140, "pitch": 41, "duration": 17, "velocity": 88}, {"time": 2143, "pitch": 48, "duration": 14, "velocity": 102}, {"time": 2146, "pitch": 53, "duration": 7, "velocity": 117}, {"time": 2149, "pitch": 60, "duration": 8, "velocity": 99}, {"time": 2149, "pitch": 65, "duration": 1, "velocity": 39}, {"time": 2152, "pitch": 69, "duration": 10, "velocity": 122}, {"time": 2155, "pitch": 53, "duration": 3, "velocity": 102}, {"time": 2158, "pitch": 65, "duration": 5, "velocity": 127}, {"time": 2161, "pitch": 60, "duration": 3, "velocity": 112}, {"time": 2164, "pitch": 46, "duration": 18, "velocity": 100}, {"time": 2167, "pitch": 53, "duration": 14, "velocity": 69}, {"time": 2170, "pitch": 58, "duration": 6, "velocity": 97}, {"time": 2173, "pitch": 62, "duration": 4, "velocity": 99}, {"time": 2176, "pitch": 70, "duration": 10, "velocity": 127}, {"time": 2179, "pitch": 58, "duration": 3, "velocity": 102}, {"time": 2182, "pitch": 65, "duration": 5, "velocity": 93}, {"time": 2185, "pitch": 62, "duration": 3, "velocity": 107}, {"time": 2188, "pitch": 48, "duration": 18, "velocity": 73}, {"time": 2191, "pitch": 55, "duration": 11, "velocity": 72}, {"time": 2194, "pitch": 60, "duration": 3, "velocity": 100}, {"time": 2197, "pitch": 64, "duration": 3, "velocity": 102}, {"time": 2200, "pitch": 67, "duration": 8, "velocity": 127}, {"time": 2203, "pitch": 55, "duration": 2, "velocity": 81}, {"time": 2206, "pitch": 64, "duration": 2, "velocity": 127}, {"time": 2212, "pitch": 45, "duration": 17, "velocity": 82}, {"time": 2215, "pitch": 52, "duration": 10, "velocity": 89}, {"time": 2218, "pitch": 57, "duration": 4, "velocity": 99}, {"time": 2221, "pitch": 61, "duration": 3, "velocity": 122}, {"time": 2224, "pitch": 64, "duration": 10, "velocity": 117}, {"time": 2227, "pitch": 52, "duration": 1, "velocity": 89}, {"time": 2230, "pitch": 61, "duration": 4, "velocity": 127}, {"time": 2233, "pitch": 57, "duration": 5, "velocity": 117}, {"time": 2236, "pitch": 38, "duration": 16, "velocity": 74}, {"time": 2239, "pitch": 45, "duration": 14, "velocity": 83}, {"time": 2242, "pitch": 50, "duration": 7, "velocity": 93}, {"time": 2245, "pitch": 57, "duration": 6, "velocity": 99}, {"time": 2248, "pitch": 65, "duration": 11, "velocity": 122}, {"time": 2251, "pitch": 50, "duration": 7, "velocity": 99}, {"time": 2254, "pitch": 62, "duration": 5, "velocity": 122}, {"time": 2257, "pitch": 57, "duration": 3, "velocity": 102}, {"time": 2260, "pitch": 43, "duration": 18, "velocity": 82}, {"time": 2263, "pitch": 50, "duration": 10, "velocity": 75}, {"time": 2266, "pitch": 55, "duration": 4, "velocity": 90}, {"time": 2269, "pitch": 58, "duration": 3, "velocity": 112}, {"time": 2272, "pitch": 62, "duration": 10, "velocity": 107}, {"time": 2275, "pitch": 50, "duration": 2, "velocity": 83}, {"time": 2278, "pitch": 58, "duration": 4, "velocity": 127}, {"time": 2281, "pitch": 55, "duration": 3, "velocity": 102}, {"time": 2284, "pitch": 36, "duration": 18, "velocity": 88}, {"time": 2287, "pitch": 43, "duration": 15, "velocity": 83}, {"time": 2290, "pitch": 48, "duration": 7, "velocity": 97}, {"time": 2293, "pitch": 60, "duration": 2, "velocity": 112}, {"time": 2296, "pitch": 64, "duration": 11, "velocity": 107}, {"time": 2299, "pitch": 48, "duration": 8, "velocity": 92}, {"time": 2302, "pitch": 60, "duration": 5, "velocity": 107}, {"time": 2305, "pitch": 55, "duration": 3, "velocity": 100}, {"time": 2308, "pitch": 36, "duration": 3, "velocity": 88}, {"time": 2308, "pitch": 60, "duration": 3, "velocity": 95}, {"time": 2308, "pitch": 64, "duration": 2, "velocity": 97}, {"time": 2308, "pitch": 67, "duration": 3, "velocity": 89}, {"time": 2320, "pitch": 46, "duration": 12, "velocity": 112}, {"time": 2320, "pitch": 58, "duration": 11, "velocity": 127}, {"time": 2332, "pitch": 49, "duration": 11, "velocity": 127}, {"time": 2332, "pitch": 61, "duration": 10, "velocity": 127}, {"time": 2344, "pitch": 56, "duration": 11, "velocity": 122}, {"time": 2344, "pitch": 68, "duration": 11, "velocity": 127}, {"time": 2356, "pitch": 47, "duration": 17, "velocity": 107}, {"time": 2359, "pitch": 59, "duration": 9, "velocity": 93}, {"time": 2362, "pitch": 63, "duration": 6, "velocity": 95}, {"time": 2365, "pitch": 66, "duration": 3, "velocity": 100}, {"time": 2368, "pitch": 71, "duration": 9, "velocity": 127}, {"time": 2371, "pitch": 59, "duration": 1, "velocity": 112}, {"time": 2374, "pitch": 66, "duration": 5, "velocity": 99}, {"time": 2377, "pitch": 63, "duration": 3, "velocity": 102}, {"time": 2380, "pitch": 37, "duration": 18, "velocity": 70}, {"time": 2383, "pitch": 44, "duration": 15, "velocity": 61}, {"time": 2386, "pitch": 49, "duration": 7, "velocity": 92}, {"time": 2389, "pitch": 56, "duration": 4, "velocity": 100}, {"time": 2392, "pitch": 65, "duration": 12, "velocity": 112}, {"time": 2395, "pitch": 49, "duration": 5, "velocity": 96}, {"time": 2398, "pitch": 61, "duration": 6, "velocity": 117}, {"time": 2401, "pitch": 56, "duration": 2, "velocity": 100}, {"time": 2404, "pitch": 46, "duration": 18, "velocity": 83}, {"time": 2407, "pitch": 53, "duration": 14, "velocity": 77}, {"time": 2410, "pitch": 58, "duration": 7, "velocity": 97}, {"time": 2413, "pitch": 61, "duration": 5, "velocity": 99}, {"time": 2416, "pitch": 70, "duration": 10, "velocity": 100}, {"time": 2419, "pitch": 58, "duration": 2, "velocity": 96}, {"time": 2422, "pitch": 65, "duration": 5, "velocity": 95}, {"time": 2425, "pitch": 61, "duration": 3, "velocity": 102}, {"time": 2428, "pitch": 39, "duration": 17, "velocity": 78}, {"time": 2431, "pitch": 46, "duration": 14, "velocity": 74}, {"time": 2434, "pitch": 51, "duration": 7, "velocity": 99}, {"time": 2437, "pitch": 58, "duration": 5, "velocity": 112}, {"time": 2440, "pitch": 66, "duration": 12, "velocity": 127}, {"time": 2443, "pitch": 51, "duration": 7, "velocity": 100}, {"time": 2446, "pitch": 63, "duration": 5, "velocity": 107}, {"time": 2449, "pitch": 58, "duration": 3, "velocity": 112}, {"time": 2452, "pitch": 44, "duration": 18, "velocity": 96}, {"time": 2455, "pitch": 51, "duration": 14, "velocity": 78}, {"time": 2458, "pitch": 56, "duration": 7, "velocity": 97}, {"time": 2461, "pitch": 63, "duration": 6, "velocity": 100}, {"time": 2464, "pitch": 71, "duration": 10, "velocity": 117}, {"time": 2467, "pitch": 56, "duration": 2, "velocity": 97}, {"time": 2470, "pitch": 68, "duration": 5, "velocity": 117}, {"time": 2473, "pitch": 63, "duration": 3, "velocity": 112}, {"time": 2476, "pitch": 37, "duration": 18, "velocity": 93}, {"time": 2479, "pitch": 44, "duration": 15, "velocity": 77}, {"time": 2482, "pitch": 49, "duration": 7, "velocity": 70}, {"time": 2485, "pitch": 56, "duration": 6, "velocity": 100}, {"time": 2488, "pitch": 65, "duration": 11, "velocity": 112}, {"time": 2491, "pitch": 49, "duration": 7, "velocity": 97}, {"time": 2494, "pitch": 61, "duration": 5, "velocity": 122}, {"time": 2497, "pitch": 56, "duration": 2, "velocity": 122}, {"time": 2500, "pitch": 42, "duration": 22, "velocity": 93}, {"time": 2503, "pitch": 49, "duration": 21, "velocity": 85}, {"time": 2506, "pitch": 54, "duration": 7, "velocity": 100}, {"time": 2509, "pitch": 61, "duration": 22, "velocity": 107}, {"time": 2512, "pitch": 70, "duration": 12, "velocity": 122}, {"time": 2515, "pitch": 54, "duration": 8, "velocity": 97}, {"time": 2518, "pitch": 68, "duration": 4, "velocity": 107}, {"time": 2521, "pitch": 66, "duration": 11, "velocity": 127}, {"time": 2524, "pitch": 42, "duration": 17, "velocity": 88}, {"time": 2527, "pitch": 49, "duration": 14, "velocity": 102}, {"time": 2530, "pitch": 54, "duration": 7, "velocity": 117}, {"time": 2533, "pitch": 61, "duration": 8, "velocity": 99}, {"time": 2533, "pitch": 66, "duration": 1, "velocity": 39}, {"time": 2536, "pitch": 70, "duration": 10, "velocity": 122}, {"time": 2539, "pitch": 54, "duration": 3, "velocity": 102}, {"time": 2542, "pitch": 66, "duration": 5, "velocity": 127}, {"time": 2545, "pitch": 61, "duration": 3, "velocity": 112}, {"time": 2548, "pitch": 47, "duration": 18, "velocity": 100}, {"time": 2551, "pitch": 54, "duration": 14, "velocity": 69}, {"time": 2554, "pitch": 59, "duration": 6, "velocity": 97}, {"time": 2557, "pitch": 63, "duration": 4, "velocity": 99}, {"time": 2560, "pitch": 71, "duration": 10, "velocity": 127}, {"time": 2563, "pitch": 59, "duration": 3, "velocity": 102}, {"time": 2566, "pitch": 66, "duration": 5, "velocity": 93}, {"time": 2569, "pitch": 63, "duration": 3, "velocity": 107}, {"time": 2572, "pitch": 49, "duration": 18, "velocity": 73}, {"time": 2575, "pitch": 56, "duration": 11, "velocity": 72}, {"time": 2578, "pitch": 61, "duration": 3, "velocity": 100}, {"time": 2581, "pitch": 65, "duration": 3, "velocity": 102}, {"time": 2584, "pitch": 68, "duration": 8, "velocity": 127}, {"time": 2587, "pitch": 56, "duration": 2, "velocity": 81}, {"time": 2590, "pitch": 65, "duration": 2, "velocity": 127}, {"time": 2596, "pitch": 46, "duration": 17, "velocity": 82}, {"time": 2599, "pitch": 53, "duration": 10, "velocity": 89}, {"time": 2602, "pitch": 58, "duration": 4, "velocity": 99}, {"time": 2605, "pitch": 62, "duration": 3, "velocity": 122}, {"time": 2608, "pitch": 65, "duration": 10, "velocity": 117}, {"time": 2611, "pitch": 53, "duration": 1, "velocity": 89}, {"time": 2614, "pitch": 62, "duration": 4, "velocity": 127}, {"time": 2617, "pitch": 58, "duration": 5, "velocity": 117}, {"time": 2620, "pitch": 39, "duration": 16, "velocity": 74}, {"time": 2623, "pitch": 46, "duration": 14, "velocity": 83}, {"time": 2626, "pitch": 51, "duration": 7, "velocity": 93}, {"time": 2629, "pitch": 58, "duration": 6, "velocity": 99}, {"time": 2632, "pitch": 66, "duration": 11, "velocity": 122}, {"time": 2635, "pitch": 51, "duration": 7, "velocity": 99}, {"time": 2638, "pitch": 63, "duration": 5, "velocity": 122}, {"time": 2641, "pitch": 58, "duration": 3, "velocity": 102}, {"time": 2644, "pitch": 44, "duration": 18, "velocity": 82}, {"time": 2647, "pitch": 51, "duration": 10, "velocity": 75}, {"time": 2650, "pitch": 56, "duration": 4, "velocity": 90}, {"time": 2653, "pitch": 59, "duration": 3, "velocity": 112}, {"time": 2656, "pitch": 63, "duration": 10, "velocity": 107}, {"time": 2659, "pitch": 51, "duration": 2, "velocity": 83}, {"time": 2662, "pitch": 59, "duration": 4, "velocity": 127}, {"time": 2665, "pitch": 56, "duration": 3, "velocity": 102}, {"time": 2668, "pitch": 37, "duration": 18, "velocity": 88}, {"time": 2671, "pitch": 44, "duration": 15, "velocity": 83}, {"time": 2674, "pitch": 49, "duration": 7, "velocity": 97}, {"time": 2677, "pitch": 61, "duration": 2, "velocity": 112}, {"time": 2680, "pitch": 65, "duration": 11, "velocity": 107}, {"time": 2683, "pitch": 49, "duration": 8, "velocity": 92}, {"time": 2686, "pitch": 61, "duration": 5, "velocity": 107}, {"time": 2689, "pitch": 56, "duration": 3, "velocity": 100}, {"time": 2692, "pitch": 47, "duration": 18, "velocity": 83}, {"time": 2698, "pitch": 54, "duration": 12, "velocity": 67}, {"time": 2704, "pitch": 59, "duration": 6, "velocity": 79}, {"time": 2704, "pitch": 63, "duration": 6, "velocity": 99}, {"time": 2710, "pitch": 66, "duration": 11, "velocity": 127}, {"time": 2716, "pitch": 46, "duration": 20, "velocity": 83}, {"time": 2722, "pitch": 53, "duration": 14, "velocity": 69}, {"time": 2728, "pitch": 58, "duration": 8, "velocity": 83}, {"time": 2728, "pitch": 61, "duration": 7, "velocity": 102}, {"time": 2734, "pitch": 65, "duration": 6, "velocity": 81}, {"time": 2740, "pitch": 44, "duration": 18, "velocity": 95}, {"time": 2746, "pitch": 56, "duration": 10, "velocity": 92}, {"time": 2752, "pitch": 59, "duration": 12, "velocity": 97}, {"time": 2758, "pitch": 63, "duration": 6, "velocity": 112}, {"time": 2764, "pitch": 37, "duration": 17, "velocity": 99}, {"time": 2770, "pitch": 49, "duration": 14, "velocity": 97}, {"time": 2776, "pitch": 56, "duration": 12, "velocity": 127}, {"time": 2782, "pitch": 53, "duration": 6, "velocity": 75}, {"time": 2788, "pitch": 42, "duration": 85, "velocity": 89}, {"time": 2793, "pitch": 49, "duration": 77, "velocity": 55}, {"time": 2799, "pitch": 54, "duration": 71, "velocity": 97}, {"time": 2805, "pitch": 58, "duration": 7, "velocity": 79}, {"time": 2811, "pitch": 61, "duration": 7, "velocity": 73}, {"time": 2817, "pitch": 66, "duration": 4, "velocity": 82}, {"time": 2823, "pitch": 70, "duration": 7, "velocity": 88}, {"time": 2829, "pitch": 73, "duration": 2, "velocity": 76}, {"time": 2836, "pitch": 78, "duration": 38, "velocity": 58}, {"time": 2836, "pitch": 82, "duration": 38, "velocity": 44}, {"time": 2837, "pitch": 85, "duration": 37, "velocity": 63}, {"time": 2838, "pitch": 90, "duration": 36, "velocity": 83}], "annotations": [{"time": 4, "annotation": {"number": 64, "value": 127}, "group": "control_change"}, {"time": 26, "annotation": {"number": 64, "value": 0}, "group": "control_change"}, {"time": 28, "annotation": {"number": 64, "value": 127}, "group": "control_change"}, {"time": 50, "annotation": {"number": 64, "value": 0}, "group": "control_change"}, {"time": 52, "annotation": {"number": 64, "value": 127}, "group": "control_change"}, {"time": 74, "annotation": {"number": 64, "value": 0}, "group": "control_change"}, {"time": 76, "annotation": {"number": 64, "value": 127}, "group": "control_change"}, {"time": 97, "annotation": {"number": 64, "value": 0}, "group": "control_change"}, {"time": 100, "annotation": {"number": 64, "value": 127}, "group": "control_change"}, {"time": 121, "annotation": {"number": 64, "value": 0}, "group": "control_change"}, {"time": 124, "annotation": {"number": 64, "value": 127}, "group": "control_change"}, {"time": 145, "annotation": {"number": 64, "value": 0}, "group": "control_change"}, {"time": 148, "annotation": {"number": 64, "value": 127}, "group": "control_change"}, {"time": 171, "annotation": {"number": 64, "value": 0}, "group": "control_change"}, {"time": 196, "annotation": {"number": 64, "value": 127}, "group": "control_change"}, {"time": 218, "annotation": {"number": 64, "value": 0}, "group": "control_change"}, {"time": 220, "annotation": {"number": 64, "value": 127}, "group": "control_change"}, {"time": 242, "annotation": {"number": 64, "value": 0}, "group": "control_change"}, {"time": 244, "annotation": {"number": 64, "value": 127}, "group": "control_change"}, {"time": 265, "annotation": {"number": 64, "value": 0}, "group": "control_change"}, {"time": 268, "annotation": {"number": 64, "value": 127}, "group": "control_change"}, {"time": 289, "annotation": {"number": 64, "value": 0}, "group": "control_change"}, {"time": 292, "annotation": {"number": 64, "value": 127}, "group": "control_change"}, {"time": 313, "annotation": {"number": 64, "value": 0}, "group": "control_change"}, {"time": 316, "annotation": {"number": 64, "value": 127}, "group": "control_change"}, {"time": 336, "annotation": {"number": 64, "value": 0}, "group": "control_change"}, {"time": 340, "annotation": {"number": 64, "value": 127}, "group": "control_change"}, {"time": 360, "annotation": {"number": 64, "value": 0}, "group": "control_change"}, {"time": 364, "annotation": {"number": 64, "value": 127}, "group": "control_change"}, {"time": 382, "annotation": {"number": 64, "value": 0}, "group": "control_change"}, {"time": 388, "annotation": {"number": 64, "value": 127}, "group": "control_change"}, {"time": 408, "annotation": {"number": 64, "value": 0}, "group": "control_change"}, {"time": 411, "annotation": {"number": 64, "value": 127}, "group": "control_change"}, {"time": 432, "annotation": {"number": 64, "value": 0}, "group": "control_change"}, {"time": 435, "annotation": {"number": 64, "value": 127}, "group": "control_change"}, {"time": 456, "annotation": {"number": 64, "value": 0}, "group": "control_change"}, {"time": 459, "annotation": {"number": 64, "value": 127}, "group": "control_change"}, {"time": 481, "annotation": {"number": 64, "value": 0}, "group": "control_change"}, {"time": 484, "annotation": {"number": 64, "value": 127}, "group": "control_change"}, {"time": 505, "annotation": {"number": 64, "value": 0}, "group": "control_change"}, {"time": 508, "annotation": {"number": 64, "value": 127}, "group": "control_change"}, {"time": 518, "annotation": {"number": 64, "value": 0}, "group": "control_change"}, {"time": 520, "annotation": {"number": 64, "value": 127}, "group": "control_change"}, {"time": 529, "annotation": {"number": 64, "value": 0}, "group": "control_change"}, {"time": 532, "annotation": {"number": 64, "value": 127}, "group": "control_change"}, {"time": 552, "annotation": {"number": 64, "value": 0}, "group": "control_change"}, {"time": 556, "annotation": {"number": 64, "value": 127}, "group": "control_change"}, {"time": 577, "annotation": {"number": 64, "value": 0}, "group": "control_change"}, {"time": 580, "annotation": {"number": 64, "value": 127}, "group": "control_change"}, {"time": 602, "annotation": {"number": 64, "value": 0}, "group": "control_change"}, {"time": 604, "annotation": {"number": 64, "value": 127}, "group": "control_change"}, {"time": 624, "annotation": {"number": 64, "value": 0}, "group": "control_change"}, {"time": 628, "annotation": {"number": 64, "value": 127}, "group": "control_change"}, {"time": 649, "annotation": {"number": 64, "value": 0}, "group": "control_change"}, {"time": 652, "annotation": {"number": 64, "value": 127}, "group": "control_change"}, {"time": 673, "annotation": {"number": 64, "value": 0}, "group": "control_change"}, {"time": 676, "annotation": {"number": 64, "value": 127}, "group": "control_change"}, {"time": 697, "annotation": {"number": 64, "value": 0}, "group": "control_change"}, {"time": 700, "annotation": {"number": 64, "value": 127}, "group": "control_change"}, {"time": 722, "annotation": {"number": 64, "value": 0}, "group": "control_change"}, {"time": 724, "annotation": {"number": 64, "value": 127}, "group": "control_change"}, {"time": 746, "annotation": {"number": 64, "value": 0}, "group": "control_change"}, {"time": 747, "annotation": {"number": 64, "value": 127}, "group": "control_change"}, {"time": 760, "annotation": {"number": 64, "value": 0}, "group": "control_change"}, {"time": 772, "annotation": {"number": 64, "value": 127}, "group": "control_change"}, {"time": 793, "annotation": {"number": 64, "value": 0}, "group": "control_change"}, {"time": 795, "annotation": {"number": 64, "value": 127}, "group": "control_change"}, {"time": 818, "annotation": {"number": 64, "value": 0}, "group": "control_change"}, {"time": 820, "annotation": {"number": 64, "value": 127}, "group": "control_change"}, {"time": 841, "annotation": {"number": 64, "value": 0}, "group": "control_change"}, {"time": 844, "annotation": {"number": 64, "value": 127}, "group": "control_change"}, {"time": 865, "annotation": {"number": 64, "value": 0}, "group": "control_change"}, {"time": 868, "annotation": {"number": 64, "value": 127}, "group": "control_change"}, {"time": 889, "annotation": {"number": 64, "value": 0}, "group": "control_change"}, {"time": 892, "annotation": {"number": 64, "value": 127}, "group": "control_change"}, {"time": 913, "annotation": {"number": 64, "value": 0}, "group": "control_change"}, {"time": 916, "annotation": {"number": 64, "value": 127}, "group": "control_change"}, {"time": 936, "annotation": {"number": 64, "value": 0}, "group": "control_change"}, {"time": 939, "annotation": {"number": 64, "value": 127}, "group": "control_change"}, {"time": 962, "annotation": {"number": 64, "value": 0}, "group": "control_change"}, {"time": 964, "annotation": {"number": 64, "value": 127}, "group": "control_change"}, {"time": 986, "annotation": {"number": 64, "value": 0}, "group": "control_change"}, {"time": 988, "annotation": {"number": 64, "value": 127}, "group": "control_change"}, {"time": 1012, "annotation": {"number": 64, "value": 127}, "group": "control_change"}, {"time": 1033, "annotation": {"number": 64, "value": 0}, "group": "control_change"}, {"time": 1036, "annotation": {"number": 64, "value": 127}, "group": "control_change"}, {"time": 1056, "annotation": {"number": 64, "value": 0}, "group": "control_change"}, {"time": 1060, "annotation": {"number": 64, "value": 127}, "group": "control_change"}, {"time": 1080, "annotation": {"number": 64, "value": 0}, "group": "control_change"}, {"time": 1084, "annotation": {"number": 64, "value": 127}, "group": "control_change"}, {"time": 1104, "annotation": {"number": 64, "value": 0}, "group": "control_change"}, {"time": 1107, "annotation": {"number": 64, "value": 127}, "group": "control_change"}, {"time": 1128, "annotation": {"number": 64, "value": 0}, "group": "control_change"}, {"time": 1131, "annotation": {"number": 64, "value": 127}, "group": "control_change"}, {"time": 1153, "annotation": {"number": 64, "value": 0}, "group": "control_change"}, {"time": 1156, "annotation": {"number": 64, "value": 127}, "group": "control_change"}, {"time": 1177, "annotation": {"number": 64, "value": 0}, "group": "control_change"}, {"time": 1180, "annotation": {"number": 64, "value": 127}, "group": "control_change"}, {"time": 1202, "annotation": {"number": 64, "value": 0}, "group": "control_change"}, {"time": 1204, "annotation": {"number": 64, "value": 127}, "group": "control_change"}, {"time": 1240, "annotation": {"number": 64, "value": 0}, "group": "control_change"}, {"time": 1251, "annotation": {"number": 64, "value": 127}, "group": "control_change"}, {"time": 1274, "annotation": {"number": 64, "value": 0}, "group": "control_change"}, {"time": 1276, "annotation": {"number": 64, "value": 127}, "group": "control_change"}, {"time": 1298, "annotation": {"number": 64, "value": 0}, "group": "control_change"}, {"time": 1300, "annotation": {"number": 64, "value": 127}, "group": "control_change"}, {"time": 1321, "annotation": {"number": 64, "value": 0}, "group": "control_change"}, {"time": 1324, "annotation": {"number": 64, "value": 127}, "group": "control_change"}, {"time": 1345, "annotation": {"number": 64, "value": 0}, "group": "control_change"}, {"time": 1348, "annotation": {"number": 64, "value": 127}, "group": "control_change"}, {"time": 1370, "annotation": {"number": 64, "value": 0}, "group": "control_change"}, {"time": 1418, "annotation": {"number": 64, "value": 0}, "group": "control_change"}, {"time": 1420, "annotation": {"number": 64, "value": 127}, "group": "control_change"}, {"time": 1442, "annotation": {"number": 64, "value": 0}, "group": "control_change"}, {"time": 1444, "annotation": {"number": 64, "value": 127}, "group": "control_change"}, {"time": 1465, "annotation": {"number": 64, "value": 0}, "group": "control_change"}, {"time": 1468, "annotation": {"number": 64, "value": 127}, "group": "control_change"}, {"time": 1489, "annotation": {"number": 64, "value": 0}, "group": "control_change"}, {"time": 1492, "annotation": {"number": 64, "value": 127}, "group": "control_change"}, {"time": 1513, "annotation": {"number": 64, "value": 0}, "group": "control_change"}, {"time": 1516, "annotation": {"number": 64, "value": 127}, "group": "control_change"}, {"time": 1536, "annotation": {"number": 64, "value": 0}, "group": "control_change"}, {"time": 1540, "annotation": {"number": 64, "value": 127}, "group": "control_change"}, {"time": 1560, "annotation": {"number": 64, "value": 0}, "group": "control_change"}, {"time": 1564, "annotation": {"number": 64, "value": 127}, "group": "control_change"}, {"time": 1582, "annotation": {"number": 64, "value": 0}, "group": "control_change"}, {"time": 1588, "annotation": {"number": 64, "value": 127}, "group": "control_change"}, {"time": 1608, "annotation": {"number": 64, "value": 0}, "group": "control_change"}, {"time": 1611, "annotation": {"number": 64, "value": 127}, "group": "control_change"}, {"time": 1632, "annotation": {"number": 64, "value": 0}, "group": "control_change"}, {"time": 1635, "annotation": {"number": 64, "value": 127}, "group": "control_change"}, {"time": 1656, "annotation": {"number": 64, "value": 0}, "group": "control_change"}, {"time": 1659, "annotation": {"number": 64, "value": 127}, "group": "control_change"}, {"time": 1681, "annotation": {"number": 64, "value": 0}, "group": "control_change"}, {"time": 1684, "annotation": {"number": 64, "value": 127}, "group": "control_change"}, {"time": 1705, "annotation": {"number": 64, "value": 0}, "group": "control_change"}, {"time": 1708, "annotation": {"number": 64, "value": 127}, "group": "control_change"}, {"time": 1718, "annotation": {"number": 64, "value": 0}, "group": "control_change"}, {"time": 1720, "annotation": {"number": 64, "value": 127}, "group": "control_change"}, {"time": 1729, "annotation": {"number": 64, "value": 0}, "group": "control_change"}, {"time": 1732, "annotation": {"number": 64, "value": 127}, "group": "control_change"}, {"time": 1752, "annotation": {"number": 64, "value": 0}, "group": "control_change"}, {"time": 1756, "annotation": {"number": 64, "value": 127}, "group": "control_change"}, {"time": 1777, "annotation": {"number": 64, "value": 0}, "group": "control_change"}, {"time": 1780, "annotation": {"number": 64, "value": 127}, "group": "control_change"}, {"time": 1802, "annotation": {"number": 64, "value": 0}, "group": "control_change"}, {"time": 1804, "annotation": {"number": 64, "value": 127}, "group": "control_change"}, {"time": 1824, "annotation": {"number": 64, "value": 0}, "group": "control_change"}, {"time": 1828, "annotation": {"number": 64, "value": 127}, "group": "control_change"}, {"time": 1849, "annotation": {"number": 64, "value": 0}, "group": "control_change"}, {"time": 1852, "annotation": {"number": 64, "value": 127}, "group": "control_change"}, {"time": 1873, "annotation": {"number": 64, "value": 0}, "group": "control_change"}, {"time": 1876, "annotation": {"number": 64, "value": 127}, "group": "control_change"}, {"time": 1897, "annotation": {"number": 64, "value": 0}, "group": "control_change"}, {"time": 1900, "annotation": {"number": 64, "value": 127}, "group": "control_change"}, {"time": 1922, "annotation": {"number": 64, "value": 0}, "group": "control_change"}, {"time": 1924, "annotation": {"number": 64, "value": 127}, "group": "control_change"}, {"time": 1946, "annotation": {"number": 64, "value": 0}, "group": "control_change"}, {"time": 1947, "annotation": {"number": 64, "value": 127}, "group": "control_change"}, {"time": 1960, "annotation": {"number": 64, "value": 0}, "group": "control_change"}, {"time": 1972, "annotation": {"number": 64, "value": 127}, "group": "control_change"}, {"time": 1993, "annotation": {"number": 64, "value": 0}, "group": "control_change"}, {"time": 1995, "annotation": {"number": 64, "value": 127}, "group": "control_change"}, {"time": 2018, "annotation": {"number": 64, "value": 0}, "group": "control_change"}, {"time": 2020, "annotation": {"number": 64, "value": 127}, "group": "control_change"}, {"time": 2041, "annotation": {"number": 64, "value": 0}, "group": "control_change"}, {"time": 2044, "annotation": {"number": 64, "value": 127}, "group": "control_change"}, {"time": 2065, "annotation": {"number": 64, "value": 0}, "group": "control_change"}, {"time": 2068, "annotation": {"number": 64, "value": 127}, "group": "control_change"}, {"time": 2089, "annotation": {"number": 64, "value": 0}, "group": "control_change"}, {"time": 2092, "annotation": {"number": 64, "value": 127}, "group": "control_change"}, {"time": 2113, "annotation": {"number": 64, "value": 0}, "group": "control_change"}, {"time": 2116, "annotation": {"number": 64, "value": 127}, "group": "control_change"}, {"time": 2136, "annotation": {"number": 64, "value": 0}, "group": "control_change"}, {"time": 2139, "annotation": {"number": 64, "value": 127}, "group": "control_change"}, {"time": 2162, "annotation": {"number": 64, "value": 0}, "group": "control_change"}, {"time": 2164, "annotation": {"number": 64, "value": 127}, "group": "control_change"}, {"time": 2186, "annotation": {"number": 64, "value": 0}, "group": "control_change"}, {"time": 2188, "annotation": {"number": 64, "value": 127}, "group": "control_change"}, {"time": 2212, "annotation": {"number": 64, "value": 127}, "group": "control_change"}, {"time": 2233, "annotation": {"number": 64, "value": 0}, "group": "control_change"}, {"time": 2236, "annotation": {"number": 64, "value": 127}, "group": "control_change"}, {"time": 2256, "annotation": {"number": 64, "value": 0}, "group": "control_change"}, {"time": 2260, "annotation": {"number": 64, "value": 127}, "group": "control_change"}, {"time": 2280, "annotation": {"number": 64, "value": 0}, "group": "control_change"}, {"time": 2284, "annotation": {"number": 64, "value": 127}, "group": "control_change"}, {"time": 2304, "annotation": {"number": 64, "value": 0}, "group": "control_change"}, {"time": 2307, "annotation": {"number": 64, "value": 127}, "group": "control_change"}, {"time": 2310, "annotation": {"number": 64, "value": 127}, "group": "control_change"}, {"time": 2312, "annotation": {"number": 64, "value": 0}, "group": "control_change"}, {"time": 2356, "annotation": {"number": 64, "value": 127}, "group": "control_change"}, {"time": 2377, "annotation": {"number": 64, "value": 0}, "group": "control_change"}, {"time": 2379, "annotation": {"number": 64, "value": 127}, "group": "control_change"}, {"time": 2402, "annotation": {"number": 64, "value": 0}, "group": "control_change"}, {"time": 2404, "annotation": {"number": 64, "value": 127}, "group": "control_change"}, {"time": 2425, "annotation": {"number": 64, "value": 0}, "group": "control_change"}, {"time": 2428, "annotation": {"number": 64, "value": 127}, "group": "control_change"}, {"time": 2449, "annotation": {"number": 64, "value": 0}, "group": "control_change"}, {"time": 2452, "annotation": {"number": 64, "value": 127}, "group": "control_change"}, {"time": 2473, "annotation": {"number": 64, "value": 0}, "group": "control_change"}, {"time": 2476, "annotation": {"number": 64, "value": 127}, "group": "control_change"}, {"time": 2497, "annotation": {"number": 64, "value": 0}, "group": "control_change"}, {"time": 2500, "annotation": {"number": 64, "value": 127}, "group": "control_change"}, {"time": 2520, "annotation": {"number": 64, "value": 0}, "group": "control_change"}, {"time": 2523, "annotation": {"number": 64, "value": 127}, "group": "control_change"}, {"time": 2546, "annotation": {"number": 64, "value": 0}, "group": "control_change"}, {"time": 2548, "annotation": {"number": 64, "value": 127}, "group": "control_change"}, {"time": 2570, "annotation": {"number": 64, "value": 0}, "group": "control_change"}, {"time": 2572, "annotation": {"number": 64, "value": 127}, "group": "control_change"}, {"time": 2596, "annotation": {"number": 64, "value": 127}, "group": "control_change"}, {"time": 2617, "annotation": {"number": 64, "value": 0}, "group": "control_change"}, {"time": 2620, "annotation": {"number": 64, "value": 127}, "group": "control_change"}, {"time": 2640, "annotation": {"number": 64, "value": 0}, "group": "control_change"}, {"time": 2644, "annotation": {"number": 64, "value": 127}, "group": "control_change"}, {"time": 2664, "annotation": {"number": 64, "value": 0}, "group": "control_change"}, {"time": 2668, "annotation": {"number": 64, "value": 127}, "group": "control_change"}, {"time": 2688, "annotation": {"number": 64, "value": 0}, "group": "control_change"}, {"time": 2691, "annotation": {"number": 64, "value": 127}, "group": "control_change"}, {"time": 2692, "annotation": {"number": 64, "value": 127}, "group": "control_change"}, {"time": 2714, "annotation": {"number": 64, "value": 0}, "group": "control_change"}, {"time": 2716, "annotation": {"number": 64, "value": 127}, "group": "control_change"}, {"time": 2739, "annotation": {"number": 64, "value": 0}, "group": "control_change"}, {"time": 2741, "annotation": {"number": 64, "value": 127}, "group": "control_change"}, {"time": 2762, "annotation": {"number": 64, "value": 0}, "group": "control_change"}, {"time": 2764, "annotation": {"number": 64, "value": 127}, "group": "control_change"}, {"time": 2786, "annotation": {"number": 64, "value": 0}, "group": "control_change"}, {"time": 2788, "annotation": {"number": 64, "value": 127}, "group": "control_change"}, {"time": 2897, "annotation": {"number": 64, "value": 0}, "group": "control_change"}, {"time": 2898, "annotation": {"number": 64, "value": 127}, "group": "control_change"}, {"time": 2900, "annotation": {"number": 64, "value": 0}, "group": "control_change"}, {"time": 2900, "annotation": {"number": 64, "value": 127}, "group": "control_change"}, {"time": 2903, "annotation": {"number": 64, "value": 0}, "group": "control_change"}]}]}