{"metadata": {"schema_version": "0.2", "title": "None", "source_filename": "474.mid", "source_format": "midi"}, "resolution": 12, "tempos": [{"time": 0, "qpm": 56.95004057690391}], "time_signatures": [{"time": 0, "numerator": 1, "denominator": 4}], "tracks": [{"program": 4, "is_drum": false, "name": "MELODY", "notes": [{"time": 350, "pitch": 70, "duration": 1, "velocity": 127}, {"time": 353, "pitch": 70, "duration": 1, "velocity": 100}, {"time": 356, "pitch": 70, "duration": 1, "velocity": 122}, {"time": 359, "pitch": 72, "duration": 1, "velocity": 95}, {"time": 362, "pitch": 72, "duration": 3, "velocity": 112}, {"time": 365, "pitch": 75, "duration": 6, "velocity": 127}, {"time": 371, "pitch": 72, "duration": 3, "velocity": 99}, {"time": 374, "pitch": 70, "duration": 1, "velocity": 107}, {"time": 377, "pitch": 70, "duration": 4, "velocity": 127}, {"time": 383, "pitch": 72, "duration": 2, "velocity": 112}, {"time": 386, "pitch": 67, "duration": 7, "velocity": 100}, {"time": 392, "pitch": 72, "duration": 2, "velocity": 127}, {"time": 398, "pitch": 70, "duration": 1, "velocity": 107}, {"time": 401, "pitch": 70, "duration": 5, "velocity": 112}, {"time": 407, "pitch": 67, "duration": 2, "velocity": 100}, {"time": 410, "pitch": 65, "duration": 4, "velocity": 100}, {"time": 416, "pitch": 67, "duration": 2, "velocity": 95}, {"time": 419, "pitch": 60, "duration": 18, "velocity": 99}, {"time": 446, "pitch": 70, "duration": 1, "velocity": 127}, {"time": 449, "pitch": 70, "duration": 1, "velocity": 127}, {"time": 452, "pitch": 70, "duration": 2, "velocity": 127}, {"time": 455, "pitch": 72, "duration": 1, "velocity": 90}, {"time": 458, "pitch": 67, "duration": 5, "velocity": 122}, {"time": 464, "pitch": 65, "duration": 2, "velocity": 107}, {"time": 470, "pitch": 70, "duration": 1, "velocity": 127}, {"time": 473, "pitch": 70, "duration": 4, "velocity": 117}, {"time": 479, "pitch": 72, "duration": 1, "velocity": 100}, {"time": 482, "pitch": 67, "duration": 3, "velocity": 100}, {"time": 485, "pitch": 65, "duration": 3, "velocity": 112}, {"time": 491, "pitch": 60, "duration": 5, "velocity": 102}, {"time": 497, "pitch": 67, "duration": 24, "velocity": 100}, {"time": 542, "pitch": 70, "duration": 1, "velocity": 122}, {"time": 545, "pitch": 70, "duration": 1, "velocity": 112}, {"time": 548, "pitch": 70, "duration": 2, "velocity": 127}, {"time": 551, "pitch": 72, "duration": 2, "velocity": 100}, {"time": 554, "pitch": 75, "duration": 3, "velocity": 127}, {"time": 560, "pitch": 75, "duration": 3, "velocity": 127}, {"time": 563, "pitch": 72, "duration": 2, "velocity": 112}, {"time": 566, "pitch": 70, "duration": 2, "velocity": 122}, {"time": 569, "pitch": 70, "duration": 4, "velocity": 127}, {"time": 575, "pitch": 72, "duration": 1, "velocity": 117}, {"time": 578, "pitch": 67, "duration": 6, "velocity": 107}, {"time": 584, "pitch": 72, "duration": 2, "velocity": 112}, {"time": 590, "pitch": 70, "duration": 1, "velocity": 117}, {"time": 593, "pitch": 70, "duration": 1, "velocity": 99}, {"time": 596, "pitch": 70, "duration": 2, "velocity": 127}, {"time": 599, "pitch": 67, "duration": 3, "velocity": 102}, {"time": 602, "pitch": 65, "duration": 4, "velocity": 107}, {"time": 608, "pitch": 67, "duration": 1, "velocity": 112}, {"time": 614, "pitch": 60, "duration": 19, "velocity": 99}, {"time": 638, "pitch": 70, "duration": 1, "velocity": 112}, {"time": 641, "pitch": 70, "duration": 1, "velocity": 96}, {"time": 644, "pitch": 70, "duration": 2, "velocity": 112}, {"time": 647, "pitch": 72, "duration": 2, "velocity": 93}, {"time": 650, "pitch": 67, "duration": 5, "velocity": 97}, {"time": 656, "pitch": 65, "duration": 2, "velocity": 96}, {"time": 662, "pitch": 70, "duration": 1, "velocity": 127}, {"time": 665, "pitch": 70, "duration": 4, "velocity": 122}, {"time": 671, "pitch": 72, "duration": 2, "velocity": 122}, {"time": 674, "pitch": 67, "duration": 3, "velocity": 122}, {"time": 677, "pitch": 65, "duration": 2, "velocity": 96}, {"time": 683, "pitch": 60, "duration": 5, "velocity": 89}, {"time": 689, "pitch": 63, "duration": 19, "velocity": 99}, {"time": 722, "pitch": 75, "duration": 4, "velocity": 127}, {"time": 728, "pitch": 72, "duration": 4, "velocity": 112}, {"time": 734, "pitch": 75, "duration": 1, "velocity": 127}, {"time": 737, "pitch": 75, "duration": 4, "velocity": 127}, {"time": 743, "pitch": 77, "duration": 2, "velocity": 102}, {"time": 746, "pitch": 75, "duration": 3, "velocity": 127}, {"time": 752, "pitch": 72, "duration": 5, "velocity": 100}, {"time": 758, "pitch": 75, "duration": 4, "velocity": 127}, {"time": 761, "pitch": 75, "duration": 1, "velocity": 127}, {"time": 767, "pitch": 72, "duration": 2, "velocity": 107}, {"time": 770, "pitch": 70, "duration": 4, "velocity": 122}, {"time": 782, "pitch": 72, "duration": 1, "velocity": 122}, {"time": 785, "pitch": 72, "duration": 1, "velocity": 99}, {"time": 788, "pitch": 72, "duration": 2, "velocity": 99}, {"time": 791, "pitch": 75, "duration": 2, "velocity": 117}, {"time": 794, "pitch": 63, "duration": 4, "velocity": 112}, {"time": 800, "pitch": 65, "duration": 1, "velocity": 102}, {"time": 803, "pitch": 67, "duration": 20, "velocity": 102}, {"time": 830, "pitch": 65, "duration": 1, "velocity": 112}, {"time": 833, "pitch": 65, "duration": 1, "velocity": 96}, {"time": 836, "pitch": 65, "duration": 2, "velocity": 102}, {"time": 839, "pitch": 67, "duration": 1, "velocity": 97}, {"time": 842, "pitch": 63, "duration": 4, "velocity": 122}, {"time": 848, "pitch": 60, "duration": 2, "velocity": 107}, {"time": 854, "pitch": 65, "duration": 6, "velocity": 102}, {"time": 863, "pitch": 63, "duration": 2, "velocity": 112}, {"time": 866, "pitch": 65, "duration": 5, "velocity": 100}, {"time": 875, "pitch": 63, "duration": 2, "velocity": 122}, {"time": 878, "pitch": 65, "duration": 1, "velocity": 95}, {"time": 881, "pitch": 65, "duration": 1, "velocity": 97}, {"time": 884, "pitch": 65, "duration": 1, "velocity": 93}, {"time": 887, "pitch": 63, "duration": 1, "velocity": 112}, {"time": 890, "pitch": 65, "duration": 3, "velocity": 102}, {"time": 899, "pitch": 67, "duration": 2, "velocity": 107}, {"time": 902, "pitch": 70, "duration": 9, "velocity": 127}, {"time": 914, "pitch": 75, "duration": 4, "velocity": 127}, {"time": 920, "pitch": 72, "duration": 2, "velocity": 117}, {"time": 926, "pitch": 75, "duration": 1, "velocity": 127}, {"time": 929, "pitch": 75, "duration": 1, "velocity": 107}, {"time": 932, "pitch": 75, "duration": 2, "velocity": 117}, {"time": 935, "pitch": 77, "duration": 2, "velocity": 99}, {"time": 938, "pitch": 75, "duration": 4, "velocity": 117}, {"time": 944, "pitch": 72, "duration": 5, "velocity": 127}, {"time": 950, "pitch": 72, "duration": 3, "velocity": 112}, {"time": 953, "pitch": 75, "duration": 4, "velocity": 117}, {"time": 959, "pitch": 72, "duration": 2, "velocity": 99}, {"time": 962, "pitch": 70, "duration": 6, "velocity": 117}, {"time": 974, "pitch": 72, "duration": 1, "velocity": 122}, {"time": 977, "pitch": 72, "duration": 1, "velocity": 97}, {"time": 980, "pitch": 72, "duration": 1, "velocity": 107}, {"time": 983, "pitch": 75, "duration": 2, "velocity": 127}, {"time": 986, "pitch": 63, "duration": 5, "velocity": 112}, {"time": 992, "pitch": 65, "duration": 2, "velocity": 112}, {"time": 995, "pitch": 67, "duration": 21, "velocity": 93}, {"time": 1022, "pitch": 65, "duration": 1, "velocity": 122}, {"time": 1025, "pitch": 65, "duration": 1, "velocity": 96}, {"time": 1028, "pitch": 65, "duration": 2, "velocity": 112}, {"time": 1031, "pitch": 67, "duration": 2, "velocity": 100}, {"time": 1034, "pitch": 63, "duration": 5, "velocity": 117}, {"time": 1040, "pitch": 60, "duration": 3, "velocity": 117}, {"time": 1046, "pitch": 65, "duration": 6, "velocity": 107}, {"time": 1055, "pitch": 63, "duration": 2, "velocity": 117}, {"time": 1058, "pitch": 65, "duration": 4, "velocity": 100}, {"time": 1067, "pitch": 63, "duration": 2, "velocity": 127}, {"time": 1070, "pitch": 65, "duration": 1, "velocity": 100}, {"time": 1073, "pitch": 65, "duration": 1, "velocity": 97}, {"time": 1076, "pitch": 65, "duration": 1, "velocity": 90}, {"time": 1079, "pitch": 63, "duration": 1, "velocity": 117}, {"time": 1082, "pitch": 65, "duration": 1, "velocity": 122}, {"time": 1085, "pitch": 72, "duration": 4, "velocity": 112}, {"time": 1091, "pitch": 67, "duration": 3, "velocity": 99}, {"time": 1094, "pitch": 70, "duration": 14, "velocity": 127}, {"time": 1118, "pitch": 70, "duration": 1, "velocity": 127}, {"time": 1121, "pitch": 70, "duration": 1, "velocity": 117}, {"time": 1124, "pitch": 70, "duration": 1, "velocity": 127}, {"time": 1127, "pitch": 72, "duration": 1, "velocity": 95}, {"time": 1130, "pitch": 72, "duration": 3, "velocity": 127}, {"time": 1133, "pitch": 75, "duration": 3, "velocity": 117}, {"time": 1139, "pitch": 72, "duration": 2, "velocity": 99}, {"time": 1142, "pitch": 70, "duration": 1, "velocity": 127}, {"time": 1145, "pitch": 70, "duration": 4, "velocity": 117}, {"time": 1151, "pitch": 72, "duration": 2, "velocity": 102}, {"time": 1154, "pitch": 67, "duration": 4, "velocity": 97}, {"time": 1160, "pitch": 72, "duration": 2, "velocity": 112}, {"time": 1166, "pitch": 70, "duration": 1, "velocity": 117}, {"time": 1169, "pitch": 70, "duration": 1, "velocity": 95}, {"time": 1172, "pitch": 70, "duration": 3, "velocity": 122}, {"time": 1175, "pitch": 67, "duration": 2, "velocity": 107}, {"time": 1178, "pitch": 65, "duration": 3, "velocity": 97}, {"time": 1184, "pitch": 67, "duration": 1, "velocity": 96}, {"time": 1187, "pitch": 60, "duration": 18, "velocity": 97}, {"time": 1214, "pitch": 70, "duration": 1, "velocity": 127}, {"time": 1217, "pitch": 70, "duration": 1, "velocity": 96}, {"time": 1220, "pitch": 70, "duration": 2, "velocity": 117}, {"time": 1223, "pitch": 72, "duration": 2, "velocity": 85}, {"time": 1226, "pitch": 67, "duration": 5, "velocity": 99}, {"time": 1232, "pitch": 65, "duration": 2, "velocity": 102}, {"time": 1238, "pitch": 70, "duration": 1, "velocity": 127}, {"time": 1241, "pitch": 70, "duration": 4, "velocity": 127}, {"time": 1247, "pitch": 72, "duration": 1, "velocity": 112}, {"time": 1250, "pitch": 67, "duration": 2, "velocity": 117}, {"time": 1253, "pitch": 65, "duration": 2, "velocity": 112}, {"time": 1259, "pitch": 60, "duration": 5, "velocity": 100}, {"time": 1265, "pitch": 67, "duration": 19, "velocity": 107}, {"time": 1310, "pitch": 70, "duration": 1, "velocity": 127}, {"time": 1313, "pitch": 70, "duration": 1, "velocity": 107}, {"time": 1316, "pitch": 70, "duration": 2, "velocity": 122}, {"time": 1319, "pitch": 72, "duration": 1, "velocity": 99}, {"time": 1322, "pitch": 72, "duration": 6, "velocity": 107}, {"time": 1328, "pitch": 75, "duration": 2, "velocity": 117}, {"time": 1331, "pitch": 72, "duration": 2, "velocity": 112}, {"time": 1334, "pitch": 70, "duration": 1, "velocity": 102}, {"time": 1337, "pitch": 70, "duration": 3, "velocity": 127}, {"time": 1343, "pitch": 72, "duration": 2, "velocity": 122}, {"time": 1346, "pitch": 67, "duration": 5, "velocity": 107}, {"time": 1352, "pitch": 72, "duration": 2, "velocity": 127}, {"time": 1358, "pitch": 70, "duration": 1, "velocity": 127}, {"time": 1361, "pitch": 70, "duration": 1, "velocity": 117}, {"time": 1364, "pitch": 70, "duration": 3, "velocity": 122}, {"time": 1367, "pitch": 67, "duration": 2, "velocity": 112}, {"time": 1370, "pitch": 65, "duration": 3, "velocity": 99}, {"time": 1376, "pitch": 67, "duration": 1, "velocity": 93}, {"time": 1379, "pitch": 60, "duration": 22, "velocity": 97}, {"time": 1406, "pitch": 70, "duration": 1, "velocity": 127}, {"time": 1409, "pitch": 70, "duration": 1, "velocity": 122}, {"time": 1412, "pitch": 70, "duration": 2, "velocity": 127}, {"time": 1415, "pitch": 72, "duration": 1, "velocity": 100}, {"time": 1418, "pitch": 67, "duration": 5, "velocity": 117}, {"time": 1424, "pitch": 65, "duration": 2, "velocity": 102}, {"time": 1430, "pitch": 70, "duration": 1, "velocity": 127}, {"time": 1433, "pitch": 70, "duration": 4, "velocity": 117}, {"time": 1439, "pitch": 72, "duration": 1, "velocity": 112}, {"time": 1442, "pitch": 67, "duration": 3, "velocity": 112}, {"time": 1445, "pitch": 65, "duration": 2, "velocity": 99}, {"time": 1451, "pitch": 60, "duration": 4, "velocity": 99}, {"time": 1457, "pitch": 63, "duration": 21, "velocity": 117}, {"time": 1694, "pitch": 70, "duration": 1, "velocity": 127}, {"time": 1697, "pitch": 70, "duration": 1, "velocity": 100}, {"time": 1700, "pitch": 70, "duration": 1, "velocity": 122}, {"time": 1703, "pitch": 72, "duration": 1, "velocity": 95}, {"time": 1706, "pitch": 72, "duration": 3, "velocity": 112}, {"time": 1709, "pitch": 75, "duration": 6, "velocity": 127}, {"time": 1715, "pitch": 72, "duration": 3, "velocity": 99}, {"time": 1718, "pitch": 70, "duration": 1, "velocity": 107}, {"time": 1721, "pitch": 70, "duration": 4, "velocity": 127}, {"time": 1727, "pitch": 72, "duration": 2, "velocity": 112}, {"time": 1730, "pitch": 67, "duration": 7, "velocity": 100}, {"time": 1736, "pitch": 72, "duration": 2, "velocity": 127}, {"time": 1742, "pitch": 70, "duration": 1, "velocity": 107}, {"time": 1745, "pitch": 70, "duration": 5, "velocity": 112}, {"time": 1751, "pitch": 67, "duration": 2, "velocity": 100}, {"time": 1754, "pitch": 65, "duration": 4, "velocity": 100}, {"time": 1760, "pitch": 67, "duration": 2, "velocity": 95}, {"time": 1763, "pitch": 60, "duration": 18, "velocity": 99}, {"time": 1790, "pitch": 70, "duration": 1, "velocity": 127}, {"time": 1793, "pitch": 70, "duration": 1, "velocity": 127}, {"time": 1796, "pitch": 70, "duration": 2, "velocity": 127}, {"time": 1799, "pitch": 72, "duration": 1, "velocity": 90}, {"time": 1802, "pitch": 67, "duration": 5, "velocity": 122}, {"time": 1808, "pitch": 65, "duration": 2, "velocity": 107}, {"time": 1814, "pitch": 70, "duration": 1, "velocity": 127}, {"time": 1817, "pitch": 70, "duration": 4, "velocity": 117}, {"time": 1823, "pitch": 72, "duration": 1, "velocity": 100}, {"time": 1826, "pitch": 67, "duration": 3, "velocity": 100}, {"time": 1829, "pitch": 65, "duration": 3, "velocity": 112}, {"time": 1835, "pitch": 60, "duration": 5, "velocity": 102}, {"time": 1841, "pitch": 67, "duration": 24, "velocity": 100}, {"time": 1886, "pitch": 70, "duration": 1, "velocity": 122}, {"time": 1889, "pitch": 70, "duration": 1, "velocity": 112}, {"time": 1892, "pitch": 70, "duration": 2, "velocity": 127}, {"time": 1895, "pitch": 72, "duration": 2, "velocity": 100}, {"time": 1898, "pitch": 75, "duration": 3, "velocity": 127}, {"time": 1904, "pitch": 75, "duration": 3, "velocity": 127}, {"time": 1907, "pitch": 72, "duration": 2, "velocity": 112}, {"time": 1910, "pitch": 70, "duration": 2, "velocity": 122}, {"time": 1913, "pitch": 70, "duration": 4, "velocity": 127}, {"time": 1919, "pitch": 72, "duration": 1, "velocity": 117}, {"time": 1922, "pitch": 67, "duration": 6, "velocity": 107}, {"time": 1928, "pitch": 72, "duration": 2, "velocity": 112}, {"time": 1934, "pitch": 70, "duration": 1, "velocity": 117}, {"time": 1937, "pitch": 70, "duration": 1, "velocity": 99}, {"time": 1940, "pitch": 70, "duration": 2, "velocity": 127}, {"time": 1943, "pitch": 67, "duration": 3, "velocity": 102}, {"time": 1946, "pitch": 65, "duration": 4, "velocity": 107}, {"time": 1952, "pitch": 67, "duration": 1, "velocity": 112}, {"time": 1958, "pitch": 60, "duration": 19, "velocity": 99}, {"time": 1982, "pitch": 70, "duration": 1, "velocity": 112}, {"time": 1985, "pitch": 70, "duration": 1, "velocity": 96}, {"time": 1988, "pitch": 70, "duration": 2, "velocity": 112}, {"time": 1991, "pitch": 72, "duration": 2, "velocity": 93}, {"time": 1994, "pitch": 67, "duration": 5, "velocity": 97}, {"time": 2000, "pitch": 65, "duration": 2, "velocity": 96}, {"time": 2006, "pitch": 70, "duration": 1, "velocity": 127}, {"time": 2009, "pitch": 70, "duration": 4, "velocity": 122}, {"time": 2015, "pitch": 72, "duration": 2, "velocity": 122}, {"time": 2018, "pitch": 67, "duration": 3, "velocity": 122}, {"time": 2021, "pitch": 65, "duration": 2, "velocity": 96}, {"time": 2027, "pitch": 60, "duration": 5, "velocity": 89}, {"time": 2033, "pitch": 63, "duration": 19, "velocity": 99}, {"time": 2066, "pitch": 75, "duration": 4, "velocity": 127}, {"time": 2072, "pitch": 72, "duration": 4, "velocity": 112}, {"time": 2078, "pitch": 75, "duration": 1, "velocity": 127}, {"time": 2081, "pitch": 75, "duration": 4, "velocity": 127}, {"time": 2087, "pitch": 77, "duration": 2, "velocity": 102}, {"time": 2090, "pitch": 75, "duration": 3, "velocity": 127}, {"time": 2096, "pitch": 72, "duration": 5, "velocity": 100}, {"time": 2102, "pitch": 75, "duration": 4, "velocity": 127}, {"time": 2105, "pitch": 75, "duration": 1, "velocity": 127}, {"time": 2111, "pitch": 72, "duration": 2, "velocity": 107}, {"time": 2114, "pitch": 70, "duration": 4, "velocity": 122}, {"time": 2126, "pitch": 72, "duration": 1, "velocity": 122}, {"time": 2129, "pitch": 72, "duration": 1, "velocity": 99}, {"time": 2132, "pitch": 72, "duration": 2, "velocity": 99}, {"time": 2135, "pitch": 75, "duration": 2, "velocity": 117}, {"time": 2138, "pitch": 63, "duration": 4, "velocity": 112}, {"time": 2144, "pitch": 65, "duration": 1, "velocity": 102}, {"time": 2147, "pitch": 67, "duration": 20, "velocity": 102}, {"time": 2174, "pitch": 65, "duration": 1, "velocity": 112}, {"time": 2177, "pitch": 65, "duration": 1, "velocity": 96}, {"time": 2180, "pitch": 65, "duration": 2, "velocity": 102}, {"time": 2183, "pitch": 67, "duration": 1, "velocity": 97}, {"time": 2186, "pitch": 63, "duration": 4, "velocity": 122}, {"time": 2192, "pitch": 60, "duration": 2, "velocity": 107}, {"time": 2198, "pitch": 65, "duration": 6, "velocity": 102}, {"time": 2207, "pitch": 63, "duration": 2, "velocity": 112}, {"time": 2210, "pitch": 65, "duration": 5, "velocity": 100}, {"time": 2219, "pitch": 63, "duration": 2, "velocity": 122}, {"time": 2222, "pitch": 65, "duration": 1, "velocity": 95}, {"time": 2225, "pitch": 65, "duration": 1, "velocity": 97}, {"time": 2228, "pitch": 65, "duration": 1, "velocity": 93}, {"time": 2231, "pitch": 63, "duration": 1, "velocity": 112}, {"time": 2234, "pitch": 65, "duration": 3, "velocity": 102}, {"time": 2243, "pitch": 67, "duration": 2, "velocity": 107}, {"time": 2246, "pitch": 70, "duration": 9, "velocity": 127}, {"time": 2258, "pitch": 75, "duration": 4, "velocity": 127}, {"time": 2264, "pitch": 72, "duration": 2, "velocity": 117}, {"time": 2270, "pitch": 75, "duration": 1, "velocity": 127}, {"time": 2273, "pitch": 75, "duration": 1, "velocity": 107}, {"time": 2276, "pitch": 75, "duration": 2, "velocity": 117}, {"time": 2279, "pitch": 77, "duration": 2, "velocity": 99}, {"time": 2282, "pitch": 75, "duration": 4, "velocity": 117}, {"time": 2288, "pitch": 72, "duration": 5, "velocity": 127}, {"time": 2294, "pitch": 72, "duration": 3, "velocity": 112}, {"time": 2297, "pitch": 75, "duration": 4, "velocity": 117}, {"time": 2303, "pitch": 72, "duration": 2, "velocity": 99}, {"time": 2306, "pitch": 70, "duration": 6, "velocity": 117}, {"time": 2318, "pitch": 72, "duration": 1, "velocity": 122}, {"time": 2321, "pitch": 72, "duration": 1, "velocity": 97}, {"time": 2324, "pitch": 72, "duration": 1, "velocity": 107}, {"time": 2327, "pitch": 75, "duration": 2, "velocity": 127}, {"time": 2330, "pitch": 63, "duration": 5, "velocity": 112}, {"time": 2336, "pitch": 65, "duration": 2, "velocity": 112}, {"time": 2339, "pitch": 67, "duration": 21, "velocity": 93}, {"time": 2366, "pitch": 65, "duration": 1, "velocity": 122}, {"time": 2369, "pitch": 65, "duration": 1, "velocity": 96}, {"time": 2372, "pitch": 65, "duration": 2, "velocity": 112}, {"time": 2375, "pitch": 67, "duration": 2, "velocity": 100}, {"time": 2378, "pitch": 63, "duration": 5, "velocity": 117}, {"time": 2384, "pitch": 60, "duration": 3, "velocity": 117}, {"time": 2390, "pitch": 65, "duration": 6, "velocity": 107}, {"time": 2399, "pitch": 63, "duration": 2, "velocity": 117}, {"time": 2402, "pitch": 65, "duration": 4, "velocity": 100}, {"time": 2411, "pitch": 63, "duration": 2, "velocity": 127}, {"time": 2414, "pitch": 65, "duration": 1, "velocity": 100}, {"time": 2417, "pitch": 65, "duration": 1, "velocity": 97}, {"time": 2420, "pitch": 65, "duration": 1, "velocity": 90}, {"time": 2423, "pitch": 63, "duration": 1, "velocity": 117}, {"time": 2426, "pitch": 65, "duration": 1, "velocity": 122}, {"time": 2429, "pitch": 72, "duration": 4, "velocity": 112}, {"time": 2435, "pitch": 67, "duration": 3, "velocity": 99}, {"time": 2438, "pitch": 70, "duration": 14, "velocity": 127}, {"time": 2462, "pitch": 70, "duration": 1, "velocity": 127}, {"time": 2465, "pitch": 70, "duration": 1, "velocity": 117}, {"time": 2468, "pitch": 70, "duration": 1, "velocity": 127}, {"time": 2471, "pitch": 72, "duration": 1, "velocity": 95}, {"time": 2474, "pitch": 72, "duration": 3, "velocity": 127}, {"time": 2477, "pitch": 75, "duration": 3, "velocity": 117}, {"time": 2483, "pitch": 72, "duration": 2, "velocity": 99}, {"time": 2486, "pitch": 70, "duration": 1, "velocity": 127}, {"time": 2489, "pitch": 70, "duration": 4, "velocity": 117}, {"time": 2495, "pitch": 72, "duration": 2, "velocity": 102}, {"time": 2498, "pitch": 67, "duration": 4, "velocity": 97}, {"time": 2504, "pitch": 72, "duration": 2, "velocity": 112}, {"time": 2510, "pitch": 70, "duration": 1, "velocity": 117}, {"time": 2513, "pitch": 70, "duration": 1, "velocity": 95}, {"time": 2516, "pitch": 70, "duration": 3, "velocity": 122}, {"time": 2519, "pitch": 67, "duration": 2, "velocity": 107}, {"time": 2522, "pitch": 65, "duration": 3, "velocity": 97}, {"time": 2528, "pitch": 67, "duration": 1, "velocity": 96}, {"time": 2531, "pitch": 60, "duration": 18, "velocity": 97}, {"time": 2558, "pitch": 70, "duration": 1, "velocity": 127}, {"time": 2561, "pitch": 70, "duration": 1, "velocity": 96}, {"time": 2564, "pitch": 70, "duration": 2, "velocity": 117}, {"time": 2567, "pitch": 72, "duration": 2, "velocity": 85}, {"time": 2570, "pitch": 67, "duration": 5, "velocity": 99}, {"time": 2576, "pitch": 65, "duration": 2, "velocity": 102}, {"time": 2582, "pitch": 70, "duration": 1, "velocity": 127}, {"time": 2585, "pitch": 70, "duration": 4, "velocity": 127}, {"time": 2591, "pitch": 72, "duration": 1, "velocity": 112}, {"time": 2594, "pitch": 67, "duration": 2, "velocity": 117}, {"time": 2597, "pitch": 65, "duration": 2, "velocity": 112}, {"time": 2603, "pitch": 60, "duration": 5, "velocity": 100}, {"time": 2609, "pitch": 67, "duration": 19, "velocity": 107}, {"time": 2654, "pitch": 70, "duration": 1, "velocity": 127}, {"time": 2657, "pitch": 70, "duration": 1, "velocity": 107}, {"time": 2660, "pitch": 70, "duration": 2, "velocity": 122}, {"time": 2663, "pitch": 72, "duration": 1, "velocity": 99}, {"time": 2666, "pitch": 72, "duration": 6, "velocity": 107}, {"time": 2672, "pitch": 75, "duration": 2, "velocity": 117}, {"time": 2675, "pitch": 72, "duration": 2, "velocity": 112}, {"time": 2678, "pitch": 70, "duration": 1, "velocity": 102}, {"time": 2681, "pitch": 70, "duration": 3, "velocity": 127}, {"time": 2687, "pitch": 72, "duration": 2, "velocity": 122}, {"time": 2690, "pitch": 67, "duration": 5, "velocity": 107}, {"time": 2696, "pitch": 72, "duration": 2, "velocity": 127}, {"time": 2702, "pitch": 70, "duration": 1, "velocity": 127}, {"time": 2705, "pitch": 70, "duration": 1, "velocity": 117}, {"time": 2708, "pitch": 70, "duration": 3, "velocity": 122}, {"time": 2711, "pitch": 67, "duration": 2, "velocity": 112}, {"time": 2714, "pitch": 65, "duration": 3, "velocity": 99}, {"time": 2720, "pitch": 67, "duration": 1, "velocity": 93}, {"time": 2723, "pitch": 60, "duration": 22, "velocity": 97}, {"time": 2750, "pitch": 70, "duration": 1, "velocity": 127}, {"time": 2753, "pitch": 70, "duration": 1, "velocity": 122}, {"time": 2756, "pitch": 70, "duration": 2, "velocity": 127}, {"time": 2759, "pitch": 72, "duration": 1, "velocity": 100}, {"time": 2762, "pitch": 67, "duration": 5, "velocity": 117}, {"time": 2768, "pitch": 65, "duration": 2, "velocity": 102}, {"time": 2774, "pitch": 70, "duration": 1, "velocity": 127}, {"time": 2777, "pitch": 70, "duration": 4, "velocity": 117}, {"time": 2783, "pitch": 72, "duration": 1, "velocity": 112}, {"time": 2786, "pitch": 67, "duration": 3, "velocity": 112}, {"time": 2789, "pitch": 65, "duration": 2, "velocity": 99}, {"time": 2795, "pitch": 60, "duration": 4, "velocity": 99}, {"time": 2801, "pitch": 63, "duration": 21, "velocity": 117}], "annotations": [{"time": 0, "annotation": {"number": 7, "value": 101}, "group": "control_change"}, {"time": 3050, "annotation": {"number": 7, "value": 101}, "group": "control_change"}, {"time": 3051, "annotation": {"number": 7, "value": 100}, "group": "control_change"}, {"time": 3052, "annotation": {"number": 7, "value": 99}, "group": "control_change"}, {"time": 3053, "annotation": {"number": 7, "value": 98}, "group": "control_change"}, {"time": 3054, "annotation": {"number": 7, "value": 97}, "group": "control_change"}, {"time": 3055, "annotation": {"number": 7, "value": 96}, "group": "control_change"}, {"time": 3056, "annotation": {"number": 7, "value": 95}, "group": "control_change"}, {"time": 3057, "annotation": {"number": 7, "value": 94}, "group": "control_change"}, {"time": 3058, "annotation": {"number": 7, "value": 93}, "group": "control_change"}, {"time": 3059, "annotation": {"number": 7, "value": 92}, "group": "control_change"}, {"time": 3060, "annotation": {"number": 7, "value": 91}, "group": "control_change"}, {"time": 3061, "annotation": {"number": 7, "value": 90}, "group": "control_change"}, {"time": 3062, "annotation": {"number": 7, "value": 89}, "group": "control_change"}, {"time": 3063, "annotation": {"number": 7, "value": 88}, "group": "control_change"}, {"time": 3064, "annotation": {"number": 7, "value": 87}, "group": "control_change"}, {"time": 3065, "annotation": {"number": 7, "value": 86}, "group": "control_change"}, {"time": 3066, "annotation": {"number": 7, "value": 85}, "group": "control_change"}, {"time": 3067, "annotation": {"number": 7, "value": 84}, "group": "control_change"}, {"time": 3068, "annotation": {"number": 7, "value": 83}, "group": "control_change"}, {"time": 3069, "annotation": {"number": 7, "value": 82}, "group": "control_change"}, {"time": 3070, "annotation": {"number": 7, "value": 81}, "group": "control_change"}, {"time": 3071, "annotation": {"number": 7, "value": 80}, "group": "control_change"}, {"time": 3072, "annotation": {"number": 7, "value": 79}, "group": "control_change"}, {"time": 3073, "annotation": {"number": 7, "value": 78}, "group": "control_change"}, {"time": 3074, "annotation": {"number": 7, "value": 77}, "group": "control_change"}, {"time": 3075, "annotation": {"number": 7, "value": 76}, "group": "control_change"}, {"time": 3076, "annotation": {"number": 7, "value": 75}, "group": "control_change"}, {"time": 3077, "annotation": {"number": 7, "value": 74}, "group": "control_change"}, {"time": 3078, "annotation": {"number": 7, "value": 73}, "group": "control_change"}, {"time": 3079, "annotation": {"number": 7, "value": 72}, "group": "control_change"}, {"time": 3080, "annotation": {"number": 7, "value": 71}, "group": "control_change"}, {"time": 3081, "annotation": {"number": 7, "value": 70}, "group": "control_change"}, {"time": 3082, "annotation": {"number": 7, "value": 69}, "group": "control_change"}, {"time": 3083, "annotation": {"number": 7, "value": 68}, "group": "control_change"}, {"time": 3084, "annotation": {"number": 7, "value": 67}, "group": "control_change"}, {"time": 3085, "annotation": {"number": 7, "value": 66}, "group": "control_change"}, {"time": 3086, "annotation": {"number": 7, "value": 65}, "group": "control_change"}, {"time": 3087, "annotation": {"number": 7, "value": 64}, "group": "control_change"}, {"time": 3088, "annotation": {"number": 7, "value": 63}, "group": "control_change"}, {"time": 3089, "annotation": {"number": 7, "value": 62}, "group": "control_change"}, {"time": 3090, "annotation": {"number": 7, "value": 61}, "group": "control_change"}, {"time": 3091, "annotation": {"number": 7, "value": 60}, "group": "control_change"}, {"time": 3092, "annotation": {"number": 7, "value": 59}, "group": "control_change"}, {"time": 3093, "annotation": {"number": 7, "value": 58}, "group": "control_change"}, {"time": 3094, "annotation": {"number": 7, "value": 57}, "group": "control_change"}, {"time": 3095, "annotation": {"number": 7, "value": 56}, "group": "control_change"}, {"time": 3096, "annotation": {"number": 7, "value": 55}, "group": "control_change"}, {"time": 3097, "annotation": {"number": 7, "value": 54}, "group": "control_change"}, {"time": 3098, "annotation": {"number": 7, "value": 53}, "group": "control_change"}, {"time": 3099, "annotation": {"number": 7, "value": 52}, "group": "control_change"}, {"time": 3100, "annotation": {"number": 7, "value": 51}, "group": "control_change"}, {"time": 3101, "annotation": {"number": 7, "value": 50}, "group": "control_change"}, {"time": 3102, "annotation": {"number": 7, "value": 49}, "group": "control_change"}, {"time": 3103, "annotation": {"number": 7, "value": 48}, "group": "control_change"}, {"time": 3104, "annotation": {"number": 7, "value": 47}, "group": "control_change"}, {"time": 3105, "annotation": {"number": 7, "value": 46}, "group": "control_change"}, {"time": 3106, "annotation": {"number": 7, "value": 45}, "group": "control_change"}, {"time": 3107, "annotation": {"number": 7, "value": 44}, "group": "control_change"}, {"time": 3108, "annotation": {"number": 7, "value": 43}, "group": "control_change"}, {"time": 3109, "annotation": {"number": 7, "value": 42}, "group": "control_change"}, {"time": 3110, "annotation": {"number": 7, "value": 41}, "group": "control_change"}, {"time": 3111, "annotation": {"number": 7, "value": 40}, "group": "control_change"}, {"time": 3112, "annotation": {"number": 7, "value": 39}, "group": "control_change"}, {"time": 3113, "annotation": {"number": 7, "value": 38}, "group": "control_change"}, {"time": 3114, "annotation": {"number": 7, "value": 37}, "group": "control_change"}, {"time": 3115, "annotation": {"number": 7, "value": 36}, "group": "control_change"}, {"time": 3116, "annotation": {"number": 7, "value": 35}, "group": "control_change"}, {"time": 3117, "annotation": {"number": 7, "value": 34}, "group": "control_change"}, {"time": 3118, "annotation": {"number": 7, "value": 33}, "group": "control_change"}, {"time": 3119, "annotation": {"number": 7, "value": 32}, "group": "control_change"}, {"time": 3120, "annotation": {"number": 7, "value": 31}, "group": "control_change"}, {"time": 3121, "annotation": {"number": 7, "value": 30}, "group": "control_change"}, {"time": 3122, "annotation": {"number": 7, "value": 29}, "group": "control_change"}, {"time": 3123, "annotation": {"number": 7, "value": 28}, "group": "control_change"}, {"time": 3124, "annotation": {"number": 7, "value": 27}, "group": "control_change"}, {"time": 3125, "annotation": {"number": 7, "value": 26}, "group": "control_change"}, {"time": 3126, "annotation": {"number": 7, "value": 25}, "group": "control_change"}, {"time": 3127, "annotation": {"number": 7, "value": 24}, "group": "control_change"}, {"time": 3128, "annotation": {"number": 7, "value": 23}, "group": "control_change"}, {"time": 3129, "annotation": {"number": 7, "value": 22}, "group": "control_change"}, {"time": 3130, "annotation": {"number": 7, "value": 21}, "group": "control_change"}, {"time": 3131, "annotation": {"number": 7, "value": 20}, "group": "control_change"}, {"time": 3132, "annotation": {"number": 7, "value": 19}, "group": "control_change"}, {"time": 3133, "annotation": {"number": 7, "value": 18}, "group": "control_change"}, {"time": 3134, "annotation": {"number": 7, "value": 17}, "group": "control_change"}, {"time": 3135, "annotation": {"number": 7, "value": 16}, "group": "control_change"}, {"time": 3136, "annotation": {"number": 7, "value": 15}, "group": "control_change"}, {"time": 3137, "annotation": {"number": 7, "value": 14}, "group": "control_change"}, {"time": 3138, "annotation": {"number": 7, "value": 13}, "group": "control_change"}, {"time": 3139, "annotation": {"number": 7, "value": 12}, "group": "control_change"}, {"time": 3140, "annotation": {"number": 7, "value": 11}, "group": "control_change"}, {"time": 3141, "annotation": {"number": 7, "value": 10}, "group": "control_change"}, {"time": 3142, "annotation": {"number": 7, "value": 9}, "group": "control_change"}, {"time": 3143, "annotation": {"number": 7, "value": 8}, "group": "control_change"}, {"time": 3144, "annotation": {"number": 7, "value": 7}, "group": "control_change"}, {"time": 3145, "annotation": {"number": 7, "value": 6}, "group": "control_change"}, {"time": 3146, "annotation": {"number": 7, "value": 5}, "group": "control_change"}, {"time": 3147, "annotation": {"number": 7, "value": 4}, "group": "control_change"}, {"time": 3148, "annotation": {"number": 7, "value": 3}, "group": "control_change"}, {"time": 3149, "annotation": {"number": 7, "value": 2}, "group": "control_change"}, {"time": 3150, "annotation": {"number": 7, "value": 1}, "group": "control_change"}, {"time": 3151, "annotation": {"number": 7, "value": 0}, "group": "control_change"}]}, {"program": 0, "is_drum": false, "name": "PIANO", "notes": [{"time": 158, "pitch": 39, "duration": 22, "velocity": 88}, {"time": 161, "pitch": 46, "duration": 20, "velocity": 34}, {"time": 164, "pitch": 51, "duration": 6, "velocity": 61}, {"time": 167, "pitch": 55, "duration": 7, "velocity": 70}, {"time": 170, "pitch": 63, "duration": 17, "velocity": 100}, {"time": 173, "pitch": 51, "duration": 8, "velocity": 66}, {"time": 176, "pitch": 58, "duration": 9, "velocity": 52}, {"time": 179, "pitch": 55, "duration": 6, "velocity": 50}, {"time": 182, "pitch": 39, "duration": 22, "velocity": 67}, {"time": 185, "pitch": 46, "duration": 21, "velocity": 59}, {"time": 188, "pitch": 51, "duration": 18, "velocity": 73}, {"time": 191, "pitch": 55, "duration": 27, "velocity": 60}, {"time": 194, "pitch": 63, "duration": 21, "velocity": 100}, {"time": 200, "pitch": 58, "duration": 14, "velocity": 40}, {"time": 206, "pitch": 39, "duration": 23, "velocity": 72}, {"time": 212, "pitch": 46, "duration": 18, "velocity": 63}, {"time": 218, "pitch": 51, "duration": 15, "velocity": 65}, {"time": 218, "pitch": 58, "duration": 13, "velocity": 85}, {"time": 218, "pitch": 63, "duration": 14, "velocity": 97}, {"time": 224, "pitch": 55, "duration": 7, "velocity": 63}, {"time": 230, "pitch": 39, "duration": 16, "velocity": 63}, {"time": 233, "pitch": 46, "duration": 13, "velocity": 39}, {"time": 236, "pitch": 51, "duration": 7, "velocity": 85}, {"time": 239, "pitch": 55, "duration": 4, "velocity": 73}, {"time": 242, "pitch": 63, "duration": 11, "velocity": 122}, {"time": 245, "pitch": 51, "duration": 3, "velocity": 83}, {"time": 248, "pitch": 58, "duration": 5, "velocity": 75}, {"time": 251, "pitch": 55, "duration": 2, "velocity": 56}, {"time": 254, "pitch": 44, "duration": 23, "velocity": 72}, {"time": 260, "pitch": 51, "duration": 18, "velocity": 68}, {"time": 266, "pitch": 56, "duration": 13, "velocity": 55}, {"time": 266, "pitch": 63, "duration": 7, "velocity": 93}, {"time": 266, "pitch": 68, "duration": 13, "velocity": 85}, {"time": 272, "pitch": 60, "duration": 7, "velocity": 66}, {"time": 275, "pitch": 63, "duration": 4, "velocity": 81}, {"time": 278, "pitch": 44, "duration": 17, "velocity": 60}, {"time": 281, "pitch": 51, "duration": 13, "velocity": 60}, {"time": 284, "pitch": 56, "duration": 6, "velocity": 79}, {"time": 287, "pitch": 60, "duration": 10, "velocity": 67}, {"time": 290, "pitch": 68, "duration": 11, "velocity": 112}, {"time": 293, "pitch": 56, "duration": 4, "velocity": 55}, {"time": 296, "pitch": 63, "duration": 5, "velocity": 92}, {"time": 299, "pitch": 60, "duration": 3, "velocity": 75}, {"time": 302, "pitch": 46, "duration": 14, "velocity": 70}, {"time": 305, "pitch": 53, "duration": 10, "velocity": 59}, {"time": 308, "pitch": 58, "duration": 6, "velocity": 93}, {"time": 311, "pitch": 62, "duration": 4, "velocity": 63}, {"time": 314, "pitch": 65, "duration": 11, "velocity": 96}, {"time": 320, "pitch": 62, "duration": 5, "velocity": 58}, {"time": 326, "pitch": 39, "duration": 22, "velocity": 73}, {"time": 332, "pitch": 46, "duration": 17, "velocity": 63}, {"time": 338, "pitch": 51, "duration": 10, "velocity": 48}, {"time": 338, "pitch": 58, "duration": 11, "velocity": 76}, {"time": 344, "pitch": 55, "duration": 6, "velocity": 70}, {"time": 350, "pitch": 39, "duration": 23, "velocity": 77}, {"time": 356, "pitch": 46, "duration": 17, "velocity": 53}, {"time": 362, "pitch": 51, "duration": 13, "velocity": 52}, {"time": 362, "pitch": 63, "duration": 20, "velocity": 95}, {"time": 368, "pitch": 58, "duration": 16, "velocity": 71}, {"time": 371, "pitch": 55, "duration": 4, "velocity": 65}, {"time": 374, "pitch": 39, "duration": 22, "velocity": 69}, {"time": 380, "pitch": 46, "duration": 18, "velocity": 55}, {"time": 386, "pitch": 51, "duration": 11, "velocity": 62}, {"time": 386, "pitch": 63, "duration": 12, "velocity": 97}, {"time": 392, "pitch": 58, "duration": 5, "velocity": 82}, {"time": 398, "pitch": 39, "duration": 18, "velocity": 78}, {"time": 404, "pitch": 46, "duration": 12, "velocity": 41}, {"time": 410, "pitch": 51, "duration": 6, "velocity": 72}, {"time": 410, "pitch": 63, "duration": 12, "velocity": 78}, {"time": 416, "pitch": 58, "duration": 5, "velocity": 67}, {"time": 422, "pitch": 41, "duration": 18, "velocity": 70}, {"time": 428, "pitch": 48, "duration": 13, "velocity": 64}, {"time": 434, "pitch": 53, "duration": 8, "velocity": 61}, {"time": 434, "pitch": 60, "duration": 11, "velocity": 66}, {"time": 434, "pitch": 65, "duration": 10, "velocity": 61}, {"time": 440, "pitch": 56, "duration": 5, "velocity": 69}, {"time": 446, "pitch": 46, "duration": 21, "velocity": 73}, {"time": 452, "pitch": 53, "duration": 7, "velocity": 60}, {"time": 458, "pitch": 58, "duration": 18, "velocity": 72}, {"time": 458, "pitch": 65, "duration": 19, "velocity": 82}, {"time": 464, "pitch": 53, "duration": 6, "velocity": 36}, {"time": 464, "pitch": 62, "duration": 13, "velocity": 64}, {"time": 470, "pitch": 46, "duration": 17, "velocity": 82}, {"time": 476, "pitch": 53, "duration": 11, "velocity": 62}, {"time": 482, "pitch": 58, "duration": 4, "velocity": 76}, {"time": 482, "pitch": 65, "duration": 12, "velocity": 86}, {"time": 488, "pitch": 62, "duration": 6, "velocity": 82}, {"time": 494, "pitch": 39, "duration": 22, "velocity": 88}, {"time": 500, "pitch": 46, "duration": 18, "velocity": 65}, {"time": 506, "pitch": 51, "duration": 13, "velocity": 63}, {"time": 506, "pitch": 58, "duration": 22, "velocity": 97}, {"time": 512, "pitch": 55, "duration": 20, "velocity": 63}, {"time": 518, "pitch": 39, "duration": 22, "velocity": 79}, {"time": 524, "pitch": 46, "duration": 17, "velocity": 35}, {"time": 530, "pitch": 63, "duration": 13, "velocity": 102}, {"time": 533, "pitch": 51, "duration": 4, "velocity": 59}, {"time": 536, "pitch": 58, "duration": 7, "velocity": 92}, {"time": 539, "pitch": 55, "duration": 3, "velocity": 66}, {"time": 542, "pitch": 39, "duration": 22, "velocity": 90}, {"time": 548, "pitch": 46, "duration": 18, "velocity": 42}, {"time": 554, "pitch": 51, "duration": 13, "velocity": 59}, {"time": 554, "pitch": 63, "duration": 21, "velocity": 102}, {"time": 560, "pitch": 58, "duration": 16, "velocity": 85}, {"time": 566, "pitch": 39, "duration": 22, "velocity": 90}, {"time": 572, "pitch": 46, "duration": 18, "velocity": 45}, {"time": 578, "pitch": 51, "duration": 11, "velocity": 78}, {"time": 578, "pitch": 63, "duration": 14, "velocity": 95}, {"time": 584, "pitch": 58, "duration": 7, "velocity": 89}, {"time": 587, "pitch": 55, "duration": 4, "velocity": 73}, {"time": 590, "pitch": 39, "duration": 17, "velocity": 75}, {"time": 596, "pitch": 46, "duration": 11, "velocity": 56}, {"time": 602, "pitch": 51, "duration": 4, "velocity": 55}, {"time": 602, "pitch": 63, "duration": 11, "velocity": 100}, {"time": 608, "pitch": 58, "duration": 5, "velocity": 72}, {"time": 611, "pitch": 55, "duration": 3, "velocity": 64}, {"time": 614, "pitch": 41, "duration": 22, "velocity": 66}, {"time": 620, "pitch": 48, "duration": 18, "velocity": 51}, {"time": 626, "pitch": 53, "duration": 6, "velocity": 76}, {"time": 626, "pitch": 60, "duration": 12, "velocity": 82}, {"time": 632, "pitch": 56, "duration": 6, "velocity": 66}, {"time": 635, "pitch": 53, "duration": 3, "velocity": 69}, {"time": 638, "pitch": 46, "duration": 22, "velocity": 99}, {"time": 644, "pitch": 53, "duration": 18, "velocity": 55}, {"time": 650, "pitch": 58, "duration": 12, "velocity": 81}, {"time": 650, "pitch": 65, "duration": 7, "velocity": 93}, {"time": 656, "pitch": 62, "duration": 6, "velocity": 78}, {"time": 662, "pitch": 46, "duration": 16, "velocity": 85}, {"time": 668, "pitch": 53, "duration": 9, "velocity": 56}, {"time": 674, "pitch": 58, "duration": 2, "velocity": 73}, {"time": 674, "pitch": 65, "duration": 12, "velocity": 66}, {"time": 674, "pitch": 70, "duration": 12, "velocity": 95}, {"time": 680, "pitch": 62, "duration": 6, "velocity": 69}, {"time": 686, "pitch": 39, "duration": 23, "velocity": 88}, {"time": 692, "pitch": 46, "duration": 17, "velocity": 65}, {"time": 698, "pitch": 58, "duration": 7, "velocity": 100}, {"time": 698, "pitch": 63, "duration": 14, "velocity": 100}, {"time": 701, "pitch": 51, "duration": 9, "velocity": 50}, {"time": 704, "pitch": 55, "duration": 8, "velocity": 73}, {"time": 707, "pitch": 58, "duration": 4, "velocity": 89}, {"time": 710, "pitch": 39, "duration": 16, "velocity": 88}, {"time": 713, "pitch": 46, "duration": 13, "velocity": 95}, {"time": 716, "pitch": 51, "duration": 7, "velocity": 107}, {"time": 719, "pitch": 55, "duration": 5, "velocity": 92}, {"time": 722, "pitch": 63, "duration": 11, "velocity": 127}, {"time": 725, "pitch": 51, "duration": 3, "velocity": 90}, {"time": 728, "pitch": 58, "duration": 6, "velocity": 127}, {"time": 731, "pitch": 55, "duration": 3, "velocity": 100}, {"time": 734, "pitch": 44, "duration": 19, "velocity": 78}, {"time": 737, "pitch": 51, "duration": 16, "velocity": 41}, {"time": 740, "pitch": 56, "duration": 12, "velocity": 97}, {"time": 743, "pitch": 60, "duration": 9, "velocity": 89}, {"time": 746, "pitch": 68, "duration": 14, "velocity": 117}, {"time": 752, "pitch": 63, "duration": 6, "velocity": 99}, {"time": 755, "pitch": 60, "duration": 2, "velocity": 67}, {"time": 758, "pitch": 39, "duration": 17, "velocity": 81}, {"time": 761, "pitch": 46, "duration": 13, "velocity": 59}, {"time": 764, "pitch": 51, "duration": 6, "velocity": 99}, {"time": 767, "pitch": 55, "duration": 4, "velocity": 78}, {"time": 770, "pitch": 63, "duration": 12, "velocity": 112}, {"time": 773, "pitch": 51, "duration": 3, "velocity": 90}, {"time": 776, "pitch": 58, "duration": 6, "velocity": 89}, {"time": 782, "pitch": 44, "duration": 15, "velocity": 75}, {"time": 785, "pitch": 51, "duration": 11, "velocity": 33}, {"time": 788, "pitch": 56, "duration": 7, "velocity": 95}, {"time": 791, "pitch": 60, "duration": 15, "velocity": 64}, {"time": 794, "pitch": 68, "duration": 11, "velocity": 107}, {"time": 800, "pitch": 63, "duration": 6, "velocity": 96}, {"time": 806, "pitch": 39, "duration": 17, "velocity": 90}, {"time": 809, "pitch": 46, "duration": 14, "velocity": 35}, {"time": 812, "pitch": 51, "duration": 6, "velocity": 93}, {"time": 815, "pitch": 55, "duration": 15, "velocity": 72}, {"time": 818, "pitch": 63, "duration": 12, "velocity": 122}, {"time": 821, "pitch": 51, "duration": 3, "velocity": 95}, {"time": 824, "pitch": 58, "duration": 5, "velocity": 102}, {"time": 830, "pitch": 44, "duration": 18, "velocity": 95}, {"time": 833, "pitch": 51, "duration": 14, "velocity": 35}, {"time": 836, "pitch": 56, "duration": 6, "velocity": 88}, {"time": 839, "pitch": 60, "duration": 4, "velocity": 71}, {"time": 842, "pitch": 63, "duration": 10, "velocity": 117}, {"time": 845, "pitch": 56, "duration": 2, "velocity": 90}, {"time": 848, "pitch": 60, "duration": 6, "velocity": 93}, {"time": 854, "pitch": 41, "duration": 21, "velocity": 78}, {"time": 857, "pitch": 48, "duration": 21, "velocity": 55}, {"time": 860, "pitch": 53, "duration": 7, "velocity": 85}, {"time": 863, "pitch": 60, "duration": 10, "velocity": 69}, {"time": 866, "pitch": 69, "duration": 22, "velocity": 102}, {"time": 869, "pitch": 53, "duration": 2, "velocity": 77}, {"time": 872, "pitch": 65, "duration": 16, "velocity": 95}, {"time": 878, "pitch": 41, "duration": 16, "velocity": 75}, {"time": 878, "pitch": 60, "duration": 7, "velocity": 49}, {"time": 881, "pitch": 48, "duration": 13, "velocity": 42}, {"time": 884, "pitch": 53, "duration": 7, "velocity": 86}, {"time": 887, "pitch": 60, "duration": 5, "velocity": 59}, {"time": 890, "pitch": 65, "duration": 7, "velocity": 99}, {"time": 890, "pitch": 69, "duration": 12, "velocity": 102}, {"time": 893, "pitch": 53, "duration": 2, "velocity": 82}, {"time": 896, "pitch": 60, "duration": 5, "velocity": 90}, {"time": 902, "pitch": 46, "duration": 17, "velocity": 81}, {"time": 905, "pitch": 53, "duration": 13, "velocity": 65}, {"time": 908, "pitch": 58, "duration": 6, "velocity": 95}, {"time": 911, "pitch": 62, "duration": 6, "velocity": 88}, {"time": 914, "pitch": 70, "duration": 11, "velocity": 127}, {"time": 917, "pitch": 58, "duration": 1, "velocity": 122}, {"time": 920, "pitch": 65, "duration": 6, "velocity": 127}, {"time": 923, "pitch": 62, "duration": 3, "velocity": 127}, {"time": 926, "pitch": 44, "duration": 16, "velocity": 88}, {"time": 929, "pitch": 51, "duration": 12, "velocity": 65}, {"time": 932, "pitch": 56, "duration": 5, "velocity": 82}, {"time": 935, "pitch": 60, "duration": 9, "velocity": 93}, {"time": 938, "pitch": 68, "duration": 10, "velocity": 112}, {"time": 941, "pitch": 56, "duration": 1, "velocity": 82}, {"time": 944, "pitch": 63, "duration": 5, "velocity": 99}, {"time": 947, "pitch": 60, "duration": 3, "velocity": 83}, {"time": 950, "pitch": 39, "duration": 17, "velocity": 79}, {"time": 953, "pitch": 46, "duration": 13, "velocity": 58}, {"time": 956, "pitch": 51, "duration": 6, "velocity": 90}, {"time": 959, "pitch": 55, "duration": 9, "velocity": 82}, {"time": 962, "pitch": 63, "duration": 11, "velocity": 112}, {"time": 965, "pitch": 51, "duration": 3, "velocity": 90}, {"time": 968, "pitch": 58, "duration": 5, "velocity": 93}, {"time": 971, "pitch": 55, "duration": 2, "velocity": 81}, {"time": 974, "pitch": 44, "duration": 17, "velocity": 77}, {"time": 977, "pitch": 51, "duration": 13, "velocity": 68}, {"time": 980, "pitch": 56, "duration": 6, "velocity": 99}, {"time": 983, "pitch": 60, "duration": 6, "velocity": 83}, {"time": 986, "pitch": 68, "duration": 12, "velocity": 112}, {"time": 989, "pitch": 56, "duration": 1, "velocity": 89}, {"time": 992, "pitch": 63, "duration": 6, "velocity": 66}, {"time": 998, "pitch": 39, "duration": 16, "velocity": 76}, {"time": 1001, "pitch": 46, "duration": 12, "velocity": 35}, {"time": 1004, "pitch": 51, "duration": 9, "velocity": 73}, {"time": 1007, "pitch": 55, "duration": 13, "velocity": 62}, {"time": 1010, "pitch": 63, "duration": 11, "velocity": 122}, {"time": 1016, "pitch": 58, "duration": 5, "velocity": 90}, {"time": 1022, "pitch": 44, "duration": 19, "velocity": 85}, {"time": 1025, "pitch": 51, "duration": 14, "velocity": 66}, {"time": 1028, "pitch": 56, "duration": 7, "velocity": 83}, {"time": 1031, "pitch": 60, "duration": 10, "velocity": 72}, {"time": 1034, "pitch": 68, "duration": 12, "velocity": 112}, {"time": 1037, "pitch": 56, "duration": 2, "velocity": 81}, {"time": 1040, "pitch": 63, "duration": 5, "velocity": 90}, {"time": 1046, "pitch": 41, "duration": 21, "velocity": 66}, {"time": 1049, "pitch": 48, "duration": 21, "velocity": 65}, {"time": 1052, "pitch": 53, "duration": 7, "velocity": 83}, {"time": 1055, "pitch": 60, "duration": 4, "velocity": 82}, {"time": 1058, "pitch": 65, "duration": 22, "velocity": 95}, {"time": 1061, "pitch": 53, "duration": 2, "velocity": 89}, {"time": 1064, "pitch": 60, "duration": 12, "velocity": 76}, {"time": 1070, "pitch": 41, "duration": 16, "velocity": 72}, {"time": 1073, "pitch": 48, "duration": 13, "velocity": 72}, {"time": 1076, "pitch": 53, "duration": 7, "velocity": 83}, {"time": 1079, "pitch": 60, "duration": 4, "velocity": 79}, {"time": 1082, "pitch": 65, "duration": 6, "velocity": 95}, {"time": 1082, "pitch": 69, "duration": 7, "velocity": 90}, {"time": 1085, "pitch": 53, "duration": 2, "velocity": 99}, {"time": 1088, "pitch": 60, "duration": 6, "velocity": 100}, {"time": 1091, "pitch": 65, "duration": 3, "velocity": 88}, {"time": 1091, "pitch": 69, "duration": 3, "velocity": 95}, {"time": 1094, "pitch": 46, "duration": 17, "velocity": 76}, {"time": 1097, "pitch": 53, "duration": 13, "velocity": 68}, {"time": 1100, "pitch": 58, "duration": 7, "velocity": 100}, {"time": 1103, "pitch": 62, "duration": 6, "velocity": 95}, {"time": 1106, "pitch": 70, "duration": 12, "velocity": 127}, {"time": 1109, "pitch": 58, "duration": 1, "velocity": 112}, {"time": 1112, "pitch": 65, "duration": 6, "velocity": 97}, {"time": 1115, "pitch": 62, "duration": 3, "velocity": 99}, {"time": 1118, "pitch": 39, "duration": 22, "velocity": 89}, {"time": 1121, "pitch": 46, "duration": 21, "velocity": 69}, {"time": 1124, "pitch": 51, "duration": 29, "velocity": 89}, {"time": 1127, "pitch": 55, "duration": 29, "velocity": 73}, {"time": 1130, "pitch": 63, "duration": 21, "velocity": 107}, {"time": 1136, "pitch": 58, "duration": 14, "velocity": 55}, {"time": 1142, "pitch": 39, "duration": 17, "velocity": 67}, {"time": 1148, "pitch": 46, "duration": 11, "velocity": 39}, {"time": 1151, "pitch": 58, "duration": 4, "velocity": 61}, {"time": 1154, "pitch": 63, "duration": 11, "velocity": 122}, {"time": 1157, "pitch": 51, "duration": 3, "velocity": 48}, {"time": 1160, "pitch": 58, "duration": 6, "velocity": 77}, {"time": 1166, "pitch": 39, "duration": 15, "velocity": 79}, {"time": 1169, "pitch": 46, "duration": 12, "velocity": 60}, {"time": 1172, "pitch": 51, "duration": 9, "velocity": 59}, {"time": 1175, "pitch": 55, "duration": 7, "velocity": 54}, {"time": 1178, "pitch": 63, "duration": 12, "velocity": 99}, {"time": 1184, "pitch": 58, "duration": 5, "velocity": 78}, {"time": 1190, "pitch": 41, "duration": 20, "velocity": 66}, {"time": 1193, "pitch": 48, "duration": 18, "velocity": 41}, {"time": 1196, "pitch": 53, "duration": 7, "velocity": 81}, {"time": 1199, "pitch": 68, "duration": 14, "velocity": 100}, {"time": 1205, "pitch": 53, "duration": 5, "velocity": 63}, {"time": 1208, "pitch": 65, "duration": 5, "velocity": 92}, {"time": 1211, "pitch": 60, "duration": 2, "velocity": 81}, {"time": 1214, "pitch": 46, "duration": 22, "velocity": 90}, {"time": 1217, "pitch": 53, "duration": 21, "velocity": 53}, {"time": 1220, "pitch": 58, "duration": 7, "velocity": 83}, {"time": 1223, "pitch": 62, "duration": 3, "velocity": 64}, {"time": 1226, "pitch": 65, "duration": 22, "velocity": 102}, {"time": 1229, "pitch": 58, "duration": 12, "velocity": 44}, {"time": 1232, "pitch": 62, "duration": 13, "velocity": 77}, {"time": 1238, "pitch": 46, "duration": 14, "velocity": 77}, {"time": 1241, "pitch": 53, "duration": 11, "velocity": 54}, {"time": 1244, "pitch": 58, "duration": 5, "velocity": 73}, {"time": 1247, "pitch": 62, "duration": 6, "velocity": 73}, {"time": 1250, "pitch": 70, "duration": 11, "velocity": 97}, {"time": 1253, "pitch": 65, "duration": 9, "velocity": 89}, {"time": 1256, "pitch": 62, "duration": 6, "velocity": 83}, {"time": 1262, "pitch": 39, "duration": 23, "velocity": 73}, {"time": 1265, "pitch": 46, "duration": 22, "velocity": 58}, {"time": 1268, "pitch": 51, "duration": 6, "velocity": 78}, {"time": 1271, "pitch": 55, "duration": 6, "velocity": 75}, {"time": 1274, "pitch": 63, "duration": 21, "velocity": 117}, {"time": 1277, "pitch": 51, "duration": 16, "velocity": 72}, {"time": 1280, "pitch": 58, "duration": 16, "velocity": 88}, {"time": 1283, "pitch": 55, "duration": 16, "velocity": 72}, {"time": 1286, "pitch": 39, "duration": 22, "velocity": 76}, {"time": 1292, "pitch": 46, "duration": 17, "velocity": 52}, {"time": 1298, "pitch": 63, "duration": 12, "velocity": 112}, {"time": 1301, "pitch": 51, "duration": 5, "velocity": 89}, {"time": 1304, "pitch": 58, "duration": 7, "velocity": 93}, {"time": 1307, "pitch": 55, "duration": 3, "velocity": 69}, {"time": 1310, "pitch": 39, "duration": 22, "velocity": 85}, {"time": 1316, "pitch": 46, "duration": 18, "velocity": 52}, {"time": 1322, "pitch": 51, "duration": 15, "velocity": 55}, {"time": 1322, "pitch": 63, "duration": 21, "velocity": 112}, {"time": 1328, "pitch": 58, "duration": 15, "velocity": 81}, {"time": 1334, "pitch": 39, "duration": 21, "velocity": 85}, {"time": 1337, "pitch": 46, "duration": 20, "velocity": 38}, {"time": 1340, "pitch": 51, "duration": 7, "velocity": 76}, {"time": 1343, "pitch": 55, "duration": 9, "velocity": 64}, {"time": 1346, "pitch": 63, "duration": 21, "velocity": 102}, {"time": 1352, "pitch": 58, "duration": 15, "velocity": 75}, {"time": 1358, "pitch": 39, "duration": 14, "velocity": 70}, {"time": 1361, "pitch": 46, "duration": 10, "velocity": 52}, {"time": 1364, "pitch": 51, "duration": 7, "velocity": 64}, {"time": 1367, "pitch": 55, "duration": 5, "velocity": 67}, {"time": 1370, "pitch": 63, "duration": 11, "velocity": 117}, {"time": 1376, "pitch": 58, "duration": 5, "velocity": 79}, {"time": 1382, "pitch": 41, "duration": 19, "velocity": 66}, {"time": 1385, "pitch": 48, "duration": 16, "velocity": 53}, {"time": 1388, "pitch": 53, "duration": 7, "velocity": 83}, {"time": 1391, "pitch": 60, "duration": 9, "velocity": 88}, {"time": 1394, "pitch": 68, "duration": 11, "velocity": 112}, {"time": 1397, "pitch": 53, "duration": 5, "velocity": 86}, {"time": 1400, "pitch": 65, "duration": 5, "velocity": 90}, {"time": 1406, "pitch": 46, "duration": 20, "velocity": 82}, {"time": 1409, "pitch": 53, "duration": 21, "velocity": 68}, {"time": 1412, "pitch": 58, "duration": 7, "velocity": 97}, {"time": 1415, "pitch": 62, "duration": 18, "velocity": 74}, {"time": 1418, "pitch": 70, "duration": 19, "velocity": 112}, {"time": 1424, "pitch": 65, "duration": 15, "velocity": 90}, {"time": 1430, "pitch": 46, "duration": 13, "velocity": 69}, {"time": 1433, "pitch": 53, "duration": 9, "velocity": 53}, {"time": 1436, "pitch": 58, "duration": 4, "velocity": 77}, {"time": 1439, "pitch": 62, "duration": 15, "velocity": 67}, {"time": 1442, "pitch": 70, "duration": 12, "velocity": 127}, {"time": 1448, "pitch": 65, "duration": 6, "velocity": 77}, {"time": 1454, "pitch": 39, "duration": 22, "velocity": 81}, {"time": 1457, "pitch": 46, "duration": 21, "velocity": 35}, {"time": 1460, "pitch": 51, "duration": 6, "velocity": 70}, {"time": 1463, "pitch": 55, "duration": 7, "velocity": 68}, {"time": 1466, "pitch": 63, "duration": 21, "velocity": 112}, {"time": 1469, "pitch": 51, "duration": 21, "velocity": 77}, {"time": 1472, "pitch": 58, "duration": 13, "velocity": 92}, {"time": 1475, "pitch": 55, "duration": 17, "velocity": 75}, {"time": 1478, "pitch": 39, "duration": 23, "velocity": 82}, {"time": 1484, "pitch": 46, "duration": 17, "velocity": 54}, {"time": 1487, "pitch": 58, "duration": 4, "velocity": 76}, {"time": 1490, "pitch": 63, "duration": 12, "velocity": 112}, {"time": 1493, "pitch": 51, "duration": 8, "velocity": 64}, {"time": 1496, "pitch": 58, "duration": 6, "velocity": 88}, {"time": 1499, "pitch": 55, "duration": 3, "velocity": 64}, {"time": 1502, "pitch": 39, "duration": 22, "velocity": 88}, {"time": 1505, "pitch": 46, "duration": 20, "velocity": 34}, {"time": 1508, "pitch": 51, "duration": 6, "velocity": 61}, {"time": 1511, "pitch": 55, "duration": 7, "velocity": 70}, {"time": 1514, "pitch": 63, "duration": 17, "velocity": 100}, {"time": 1517, "pitch": 51, "duration": 8, "velocity": 66}, {"time": 1520, "pitch": 58, "duration": 9, "velocity": 52}, {"time": 1523, "pitch": 55, "duration": 6, "velocity": 50}, {"time": 1526, "pitch": 39, "duration": 22, "velocity": 67}, {"time": 1529, "pitch": 46, "duration": 21, "velocity": 59}, {"time": 1532, "pitch": 51, "duration": 18, "velocity": 73}, {"time": 1535, "pitch": 55, "duration": 27, "velocity": 60}, {"time": 1538, "pitch": 63, "duration": 21, "velocity": 100}, {"time": 1544, "pitch": 58, "duration": 14, "velocity": 40}, {"time": 1550, "pitch": 39, "duration": 23, "velocity": 72}, {"time": 1556, "pitch": 46, "duration": 18, "velocity": 63}, {"time": 1562, "pitch": 51, "duration": 15, "velocity": 65}, {"time": 1562, "pitch": 58, "duration": 13, "velocity": 85}, {"time": 1562, "pitch": 63, "duration": 14, "velocity": 97}, {"time": 1568, "pitch": 55, "duration": 7, "velocity": 63}, {"time": 1574, "pitch": 39, "duration": 16, "velocity": 63}, {"time": 1577, "pitch": 46, "duration": 13, "velocity": 39}, {"time": 1580, "pitch": 51, "duration": 7, "velocity": 85}, {"time": 1583, "pitch": 55, "duration": 4, "velocity": 73}, {"time": 1586, "pitch": 63, "duration": 11, "velocity": 122}, {"time": 1589, "pitch": 51, "duration": 3, "velocity": 83}, {"time": 1592, "pitch": 58, "duration": 5, "velocity": 75}, {"time": 1595, "pitch": 55, "duration": 2, "velocity": 56}, {"time": 1598, "pitch": 44, "duration": 23, "velocity": 72}, {"time": 1604, "pitch": 51, "duration": 18, "velocity": 68}, {"time": 1610, "pitch": 56, "duration": 13, "velocity": 55}, {"time": 1610, "pitch": 63, "duration": 7, "velocity": 93}, {"time": 1610, "pitch": 68, "duration": 13, "velocity": 85}, {"time": 1616, "pitch": 60, "duration": 7, "velocity": 66}, {"time": 1619, "pitch": 63, "duration": 4, "velocity": 81}, {"time": 1622, "pitch": 44, "duration": 17, "velocity": 60}, {"time": 1625, "pitch": 51, "duration": 13, "velocity": 60}, {"time": 1628, "pitch": 56, "duration": 6, "velocity": 79}, {"time": 1631, "pitch": 60, "duration": 10, "velocity": 67}, {"time": 1634, "pitch": 68, "duration": 11, "velocity": 112}, {"time": 1637, "pitch": 56, "duration": 4, "velocity": 55}, {"time": 1640, "pitch": 63, "duration": 5, "velocity": 92}, {"time": 1643, "pitch": 60, "duration": 3, "velocity": 75}, {"time": 1646, "pitch": 46, "duration": 14, "velocity": 70}, {"time": 1649, "pitch": 53, "duration": 10, "velocity": 59}, {"time": 1652, "pitch": 58, "duration": 6, "velocity": 93}, {"time": 1655, "pitch": 62, "duration": 4, "velocity": 63}, {"time": 1658, "pitch": 65, "duration": 11, "velocity": 96}, {"time": 1664, "pitch": 62, "duration": 5, "velocity": 58}, {"time": 1670, "pitch": 39, "duration": 22, "velocity": 73}, {"time": 1676, "pitch": 46, "duration": 17, "velocity": 63}, {"time": 1682, "pitch": 51, "duration": 10, "velocity": 48}, {"time": 1682, "pitch": 58, "duration": 11, "velocity": 76}, {"time": 1688, "pitch": 55, "duration": 6, "velocity": 70}, {"time": 1694, "pitch": 39, "duration": 23, "velocity": 77}, {"time": 1700, "pitch": 46, "duration": 17, "velocity": 53}, {"time": 1706, "pitch": 51, "duration": 13, "velocity": 52}, {"time": 1706, "pitch": 63, "duration": 20, "velocity": 95}, {"time": 1712, "pitch": 58, "duration": 16, "velocity": 71}, {"time": 1715, "pitch": 55, "duration": 4, "velocity": 65}, {"time": 1718, "pitch": 39, "duration": 22, "velocity": 69}, {"time": 1724, "pitch": 46, "duration": 18, "velocity": 55}, {"time": 1730, "pitch": 51, "duration": 11, "velocity": 62}, {"time": 1730, "pitch": 63, "duration": 12, "velocity": 97}, {"time": 1736, "pitch": 58, "duration": 5, "velocity": 82}, {"time": 1742, "pitch": 39, "duration": 18, "velocity": 78}, {"time": 1748, "pitch": 46, "duration": 12, "velocity": 41}, {"time": 1754, "pitch": 51, "duration": 6, "velocity": 72}, {"time": 1754, "pitch": 63, "duration": 12, "velocity": 78}, {"time": 1760, "pitch": 58, "duration": 5, "velocity": 67}, {"time": 1766, "pitch": 41, "duration": 18, "velocity": 70}, {"time": 1772, "pitch": 48, "duration": 13, "velocity": 64}, {"time": 1778, "pitch": 53, "duration": 8, "velocity": 61}, {"time": 1778, "pitch": 60, "duration": 11, "velocity": 66}, {"time": 1778, "pitch": 65, "duration": 10, "velocity": 61}, {"time": 1784, "pitch": 56, "duration": 5, "velocity": 69}, {"time": 1790, "pitch": 46, "duration": 21, "velocity": 73}, {"time": 1796, "pitch": 53, "duration": 7, "velocity": 60}, {"time": 1802, "pitch": 58, "duration": 18, "velocity": 72}, {"time": 1802, "pitch": 65, "duration": 19, "velocity": 82}, {"time": 1808, "pitch": 53, "duration": 6, "velocity": 36}, {"time": 1808, "pitch": 62, "duration": 13, "velocity": 64}, {"time": 1814, "pitch": 46, "duration": 17, "velocity": 82}, {"time": 1820, "pitch": 53, "duration": 11, "velocity": 62}, {"time": 1826, "pitch": 58, "duration": 4, "velocity": 76}, {"time": 1826, "pitch": 65, "duration": 12, "velocity": 86}, {"time": 1832, "pitch": 62, "duration": 6, "velocity": 82}, {"time": 1838, "pitch": 39, "duration": 22, "velocity": 88}, {"time": 1844, "pitch": 46, "duration": 18, "velocity": 65}, {"time": 1850, "pitch": 51, "duration": 13, "velocity": 63}, {"time": 1850, "pitch": 58, "duration": 22, "velocity": 97}, {"time": 1856, "pitch": 55, "duration": 20, "velocity": 63}, {"time": 1862, "pitch": 39, "duration": 22, "velocity": 79}, {"time": 1868, "pitch": 46, "duration": 17, "velocity": 35}, {"time": 1874, "pitch": 63, "duration": 13, "velocity": 102}, {"time": 1877, "pitch": 51, "duration": 4, "velocity": 59}, {"time": 1880, "pitch": 58, "duration": 7, "velocity": 92}, {"time": 1883, "pitch": 55, "duration": 3, "velocity": 66}, {"time": 1886, "pitch": 39, "duration": 22, "velocity": 90}, {"time": 1892, "pitch": 46, "duration": 18, "velocity": 42}, {"time": 1898, "pitch": 51, "duration": 13, "velocity": 59}, {"time": 1898, "pitch": 63, "duration": 21, "velocity": 102}, {"time": 1904, "pitch": 58, "duration": 16, "velocity": 85}, {"time": 1910, "pitch": 39, "duration": 22, "velocity": 90}, {"time": 1916, "pitch": 46, "duration": 18, "velocity": 45}, {"time": 1922, "pitch": 51, "duration": 11, "velocity": 78}, {"time": 1922, "pitch": 63, "duration": 14, "velocity": 95}, {"time": 1928, "pitch": 58, "duration": 7, "velocity": 89}, {"time": 1931, "pitch": 55, "duration": 4, "velocity": 73}, {"time": 1934, "pitch": 39, "duration": 17, "velocity": 75}, {"time": 1940, "pitch": 46, "duration": 11, "velocity": 56}, {"time": 1946, "pitch": 51, "duration": 4, "velocity": 55}, {"time": 1946, "pitch": 63, "duration": 11, "velocity": 100}, {"time": 1952, "pitch": 58, "duration": 5, "velocity": 72}, {"time": 1955, "pitch": 55, "duration": 3, "velocity": 64}, {"time": 1958, "pitch": 41, "duration": 22, "velocity": 66}, {"time": 1964, "pitch": 48, "duration": 18, "velocity": 51}, {"time": 1970, "pitch": 53, "duration": 6, "velocity": 76}, {"time": 1970, "pitch": 60, "duration": 12, "velocity": 82}, {"time": 1976, "pitch": 56, "duration": 6, "velocity": 66}, {"time": 1979, "pitch": 53, "duration": 3, "velocity": 69}, {"time": 1982, "pitch": 46, "duration": 22, "velocity": 99}, {"time": 1988, "pitch": 53, "duration": 18, "velocity": 55}, {"time": 1994, "pitch": 58, "duration": 12, "velocity": 81}, {"time": 1994, "pitch": 65, "duration": 7, "velocity": 93}, {"time": 2000, "pitch": 62, "duration": 6, "velocity": 78}, {"time": 2006, "pitch": 46, "duration": 16, "velocity": 85}, {"time": 2012, "pitch": 53, "duration": 9, "velocity": 56}, {"time": 2018, "pitch": 58, "duration": 2, "velocity": 73}, {"time": 2018, "pitch": 65, "duration": 12, "velocity": 66}, {"time": 2018, "pitch": 70, "duration": 12, "velocity": 95}, {"time": 2024, "pitch": 62, "duration": 6, "velocity": 69}, {"time": 2030, "pitch": 39, "duration": 23, "velocity": 88}, {"time": 2036, "pitch": 46, "duration": 17, "velocity": 65}, {"time": 2042, "pitch": 58, "duration": 7, "velocity": 100}, {"time": 2042, "pitch": 63, "duration": 14, "velocity": 100}, {"time": 2045, "pitch": 51, "duration": 9, "velocity": 50}, {"time": 2048, "pitch": 55, "duration": 8, "velocity": 73}, {"time": 2051, "pitch": 58, "duration": 4, "velocity": 89}, {"time": 2054, "pitch": 39, "duration": 16, "velocity": 88}, {"time": 2057, "pitch": 46, "duration": 13, "velocity": 95}, {"time": 2060, "pitch": 51, "duration": 7, "velocity": 107}, {"time": 2063, "pitch": 55, "duration": 5, "velocity": 92}, {"time": 2066, "pitch": 63, "duration": 11, "velocity": 127}, {"time": 2069, "pitch": 51, "duration": 3, "velocity": 90}, {"time": 2072, "pitch": 58, "duration": 6, "velocity": 127}, {"time": 2075, "pitch": 55, "duration": 3, "velocity": 100}, {"time": 2078, "pitch": 44, "duration": 19, "velocity": 78}, {"time": 2081, "pitch": 51, "duration": 16, "velocity": 41}, {"time": 2084, "pitch": 56, "duration": 12, "velocity": 97}, {"time": 2087, "pitch": 60, "duration": 9, "velocity": 89}, {"time": 2090, "pitch": 68, "duration": 14, "velocity": 117}, {"time": 2096, "pitch": 63, "duration": 6, "velocity": 99}, {"time": 2099, "pitch": 60, "duration": 2, "velocity": 67}, {"time": 2102, "pitch": 39, "duration": 17, "velocity": 81}, {"time": 2105, "pitch": 46, "duration": 13, "velocity": 59}, {"time": 2108, "pitch": 51, "duration": 6, "velocity": 99}, {"time": 2111, "pitch": 55, "duration": 4, "velocity": 78}, {"time": 2114, "pitch": 63, "duration": 12, "velocity": 112}, {"time": 2117, "pitch": 51, "duration": 3, "velocity": 90}, {"time": 2120, "pitch": 58, "duration": 6, "velocity": 89}, {"time": 2126, "pitch": 44, "duration": 15, "velocity": 75}, {"time": 2129, "pitch": 51, "duration": 11, "velocity": 33}, {"time": 2132, "pitch": 56, "duration": 7, "velocity": 95}, {"time": 2135, "pitch": 60, "duration": 15, "velocity": 64}, {"time": 2138, "pitch": 68, "duration": 11, "velocity": 107}, {"time": 2144, "pitch": 63, "duration": 6, "velocity": 96}, {"time": 2150, "pitch": 39, "duration": 17, "velocity": 90}, {"time": 2153, "pitch": 46, "duration": 14, "velocity": 35}, {"time": 2156, "pitch": 51, "duration": 6, "velocity": 93}, {"time": 2159, "pitch": 55, "duration": 15, "velocity": 72}, {"time": 2162, "pitch": 63, "duration": 12, "velocity": 122}, {"time": 2165, "pitch": 51, "duration": 3, "velocity": 95}, {"time": 2168, "pitch": 58, "duration": 5, "velocity": 102}, {"time": 2174, "pitch": 44, "duration": 18, "velocity": 95}, {"time": 2177, "pitch": 51, "duration": 14, "velocity": 35}, {"time": 2180, "pitch": 56, "duration": 6, "velocity": 88}, {"time": 2183, "pitch": 60, "duration": 4, "velocity": 71}, {"time": 2186, "pitch": 63, "duration": 10, "velocity": 117}, {"time": 2189, "pitch": 56, "duration": 2, "velocity": 90}, {"time": 2192, "pitch": 60, "duration": 6, "velocity": 93}, {"time": 2198, "pitch": 41, "duration": 21, "velocity": 78}, {"time": 2201, "pitch": 48, "duration": 21, "velocity": 55}, {"time": 2204, "pitch": 53, "duration": 7, "velocity": 85}, {"time": 2207, "pitch": 60, "duration": 10, "velocity": 69}, {"time": 2210, "pitch": 69, "duration": 22, "velocity": 102}, {"time": 2213, "pitch": 53, "duration": 2, "velocity": 77}, {"time": 2216, "pitch": 65, "duration": 16, "velocity": 95}, {"time": 2222, "pitch": 41, "duration": 16, "velocity": 75}, {"time": 2222, "pitch": 60, "duration": 7, "velocity": 49}, {"time": 2225, "pitch": 48, "duration": 13, "velocity": 42}, {"time": 2228, "pitch": 53, "duration": 7, "velocity": 86}, {"time": 2231, "pitch": 60, "duration": 5, "velocity": 59}, {"time": 2234, "pitch": 65, "duration": 7, "velocity": 99}, {"time": 2234, "pitch": 69, "duration": 12, "velocity": 102}, {"time": 2237, "pitch": 53, "duration": 2, "velocity": 82}, {"time": 2240, "pitch": 60, "duration": 5, "velocity": 90}, {"time": 2246, "pitch": 46, "duration": 17, "velocity": 81}, {"time": 2249, "pitch": 53, "duration": 13, "velocity": 65}, {"time": 2252, "pitch": 58, "duration": 6, "velocity": 95}, {"time": 2255, "pitch": 62, "duration": 6, "velocity": 88}, {"time": 2258, "pitch": 70, "duration": 11, "velocity": 127}, {"time": 2261, "pitch": 58, "duration": 1, "velocity": 122}, {"time": 2264, "pitch": 65, "duration": 6, "velocity": 127}, {"time": 2267, "pitch": 62, "duration": 3, "velocity": 127}, {"time": 2270, "pitch": 44, "duration": 16, "velocity": 88}, {"time": 2273, "pitch": 51, "duration": 12, "velocity": 65}, {"time": 2276, "pitch": 56, "duration": 5, "velocity": 82}, {"time": 2279, "pitch": 60, "duration": 9, "velocity": 93}, {"time": 2282, "pitch": 68, "duration": 10, "velocity": 112}, {"time": 2285, "pitch": 56, "duration": 1, "velocity": 82}, {"time": 2288, "pitch": 63, "duration": 5, "velocity": 99}, {"time": 2291, "pitch": 60, "duration": 3, "velocity": 83}, {"time": 2294, "pitch": 39, "duration": 17, "velocity": 79}, {"time": 2297, "pitch": 46, "duration": 13, "velocity": 58}, {"time": 2300, "pitch": 51, "duration": 6, "velocity": 90}, {"time": 2303, "pitch": 55, "duration": 9, "velocity": 82}, {"time": 2306, "pitch": 63, "duration": 11, "velocity": 112}, {"time": 2309, "pitch": 51, "duration": 3, "velocity": 90}, {"time": 2312, "pitch": 58, "duration": 5, "velocity": 93}, {"time": 2315, "pitch": 55, "duration": 2, "velocity": 81}, {"time": 2318, "pitch": 44, "duration": 17, "velocity": 77}, {"time": 2321, "pitch": 51, "duration": 13, "velocity": 68}, {"time": 2324, "pitch": 56, "duration": 6, "velocity": 99}, {"time": 2327, "pitch": 60, "duration": 6, "velocity": 83}, {"time": 2330, "pitch": 68, "duration": 12, "velocity": 112}, {"time": 2333, "pitch": 56, "duration": 1, "velocity": 89}, {"time": 2336, "pitch": 63, "duration": 6, "velocity": 66}, {"time": 2342, "pitch": 39, "duration": 16, "velocity": 76}, {"time": 2345, "pitch": 46, "duration": 12, "velocity": 35}, {"time": 2348, "pitch": 51, "duration": 9, "velocity": 73}, {"time": 2351, "pitch": 55, "duration": 13, "velocity": 62}, {"time": 2354, "pitch": 63, "duration": 11, "velocity": 122}, {"time": 2360, "pitch": 58, "duration": 5, "velocity": 90}, {"time": 2366, "pitch": 44, "duration": 19, "velocity": 85}, {"time": 2369, "pitch": 51, "duration": 14, "velocity": 66}, {"time": 2372, "pitch": 56, "duration": 7, "velocity": 83}, {"time": 2375, "pitch": 60, "duration": 10, "velocity": 72}, {"time": 2378, "pitch": 68, "duration": 12, "velocity": 112}, {"time": 2381, "pitch": 56, "duration": 2, "velocity": 81}, {"time": 2384, "pitch": 63, "duration": 5, "velocity": 90}, {"time": 2390, "pitch": 41, "duration": 21, "velocity": 66}, {"time": 2393, "pitch": 48, "duration": 21, "velocity": 65}, {"time": 2396, "pitch": 53, "duration": 7, "velocity": 83}, {"time": 2399, "pitch": 60, "duration": 4, "velocity": 82}, {"time": 2402, "pitch": 65, "duration": 22, "velocity": 95}, {"time": 2405, "pitch": 53, "duration": 2, "velocity": 89}, {"time": 2408, "pitch": 60, "duration": 12, "velocity": 76}, {"time": 2414, "pitch": 41, "duration": 16, "velocity": 72}, {"time": 2417, "pitch": 48, "duration": 13, "velocity": 72}, {"time": 2420, "pitch": 53, "duration": 7, "velocity": 83}, {"time": 2423, "pitch": 60, "duration": 4, "velocity": 79}, {"time": 2426, "pitch": 65, "duration": 6, "velocity": 95}, {"time": 2426, "pitch": 69, "duration": 7, "velocity": 90}, {"time": 2429, "pitch": 53, "duration": 2, "velocity": 99}, {"time": 2432, "pitch": 60, "duration": 6, "velocity": 100}, {"time": 2435, "pitch": 65, "duration": 3, "velocity": 88}, {"time": 2435, "pitch": 69, "duration": 3, "velocity": 95}, {"time": 2438, "pitch": 46, "duration": 17, "velocity": 76}, {"time": 2441, "pitch": 53, "duration": 13, "velocity": 68}, {"time": 2444, "pitch": 58, "duration": 7, "velocity": 100}, {"time": 2447, "pitch": 62, "duration": 6, "velocity": 95}, {"time": 2450, "pitch": 70, "duration": 12, "velocity": 127}, {"time": 2453, "pitch": 58, "duration": 1, "velocity": 112}, {"time": 2456, "pitch": 65, "duration": 6, "velocity": 97}, {"time": 2459, "pitch": 62, "duration": 3, "velocity": 99}, {"time": 2462, "pitch": 39, "duration": 22, "velocity": 89}, {"time": 2465, "pitch": 46, "duration": 21, "velocity": 69}, {"time": 2468, "pitch": 51, "duration": 29, "velocity": 89}, {"time": 2471, "pitch": 55, "duration": 29, "velocity": 73}, {"time": 2474, "pitch": 63, "duration": 21, "velocity": 107}, {"time": 2480, "pitch": 58, "duration": 14, "velocity": 55}, {"time": 2486, "pitch": 39, "duration": 17, "velocity": 67}, {"time": 2492, "pitch": 46, "duration": 11, "velocity": 39}, {"time": 2495, "pitch": 58, "duration": 4, "velocity": 61}, {"time": 2498, "pitch": 63, "duration": 11, "velocity": 122}, {"time": 2501, "pitch": 51, "duration": 3, "velocity": 48}, {"time": 2504, "pitch": 58, "duration": 6, "velocity": 77}, {"time": 2510, "pitch": 39, "duration": 15, "velocity": 79}, {"time": 2513, "pitch": 46, "duration": 12, "velocity": 60}, {"time": 2516, "pitch": 51, "duration": 9, "velocity": 59}, {"time": 2519, "pitch": 55, "duration": 7, "velocity": 54}, {"time": 2522, "pitch": 63, "duration": 12, "velocity": 99}, {"time": 2528, "pitch": 58, "duration": 5, "velocity": 78}, {"time": 2534, "pitch": 41, "duration": 20, "velocity": 66}, {"time": 2537, "pitch": 48, "duration": 18, "velocity": 41}, {"time": 2540, "pitch": 53, "duration": 7, "velocity": 81}, {"time": 2543, "pitch": 68, "duration": 14, "velocity": 100}, {"time": 2549, "pitch": 53, "duration": 5, "velocity": 63}, {"time": 2552, "pitch": 65, "duration": 5, "velocity": 92}, {"time": 2555, "pitch": 60, "duration": 2, "velocity": 81}, {"time": 2558, "pitch": 46, "duration": 22, "velocity": 90}, {"time": 2561, "pitch": 53, "duration": 21, "velocity": 53}, {"time": 2564, "pitch": 58, "duration": 7, "velocity": 83}, {"time": 2567, "pitch": 62, "duration": 3, "velocity": 64}, {"time": 2570, "pitch": 65, "duration": 22, "velocity": 102}, {"time": 2573, "pitch": 58, "duration": 12, "velocity": 44}, {"time": 2576, "pitch": 62, "duration": 13, "velocity": 77}, {"time": 2582, "pitch": 46, "duration": 14, "velocity": 77}, {"time": 2585, "pitch": 53, "duration": 11, "velocity": 54}, {"time": 2588, "pitch": 58, "duration": 5, "velocity": 73}, {"time": 2591, "pitch": 62, "duration": 6, "velocity": 73}, {"time": 2594, "pitch": 70, "duration": 11, "velocity": 97}, {"time": 2597, "pitch": 65, "duration": 9, "velocity": 89}, {"time": 2600, "pitch": 62, "duration": 6, "velocity": 83}, {"time": 2606, "pitch": 39, "duration": 23, "velocity": 73}, {"time": 2609, "pitch": 46, "duration": 22, "velocity": 58}, {"time": 2612, "pitch": 51, "duration": 6, "velocity": 78}, {"time": 2615, "pitch": 55, "duration": 6, "velocity": 75}, {"time": 2618, "pitch": 63, "duration": 21, "velocity": 117}, {"time": 2621, "pitch": 51, "duration": 16, "velocity": 72}, {"time": 2624, "pitch": 58, "duration": 16, "velocity": 88}, {"time": 2627, "pitch": 55, "duration": 16, "velocity": 72}, {"time": 2630, "pitch": 39, "duration": 22, "velocity": 76}, {"time": 2636, "pitch": 46, "duration": 17, "velocity": 52}, {"time": 2642, "pitch": 63, "duration": 12, "velocity": 112}, {"time": 2645, "pitch": 51, "duration": 5, "velocity": 89}, {"time": 2648, "pitch": 58, "duration": 7, "velocity": 93}, {"time": 2651, "pitch": 55, "duration": 3, "velocity": 69}, {"time": 2654, "pitch": 39, "duration": 22, "velocity": 85}, {"time": 2660, "pitch": 46, "duration": 18, "velocity": 52}, {"time": 2666, "pitch": 51, "duration": 15, "velocity": 55}, {"time": 2666, "pitch": 63, "duration": 21, "velocity": 112}, {"time": 2672, "pitch": 58, "duration": 15, "velocity": 81}, {"time": 2678, "pitch": 39, "duration": 21, "velocity": 85}, {"time": 2681, "pitch": 46, "duration": 20, "velocity": 38}, {"time": 2684, "pitch": 51, "duration": 7, "velocity": 76}, {"time": 2687, "pitch": 55, "duration": 9, "velocity": 64}, {"time": 2690, "pitch": 63, "duration": 21, "velocity": 102}, {"time": 2696, "pitch": 58, "duration": 15, "velocity": 75}, {"time": 2702, "pitch": 39, "duration": 14, "velocity": 70}, {"time": 2705, "pitch": 46, "duration": 10, "velocity": 52}, {"time": 2708, "pitch": 51, "duration": 7, "velocity": 64}, {"time": 2711, "pitch": 55, "duration": 5, "velocity": 67}, {"time": 2714, "pitch": 63, "duration": 11, "velocity": 117}, {"time": 2720, "pitch": 58, "duration": 5, "velocity": 79}, {"time": 2726, "pitch": 41, "duration": 19, "velocity": 66}, {"time": 2729, "pitch": 48, "duration": 16, "velocity": 53}, {"time": 2732, "pitch": 53, "duration": 7, "velocity": 83}, {"time": 2735, "pitch": 60, "duration": 9, "velocity": 88}, {"time": 2738, "pitch": 68, "duration": 11, "velocity": 112}, {"time": 2741, "pitch": 53, "duration": 5, "velocity": 86}, {"time": 2744, "pitch": 65, "duration": 5, "velocity": 90}, {"time": 2750, "pitch": 46, "duration": 20, "velocity": 82}, {"time": 2753, "pitch": 53, "duration": 21, "velocity": 68}, {"time": 2756, "pitch": 58, "duration": 7, "velocity": 97}, {"time": 2759, "pitch": 62, "duration": 18, "velocity": 74}, {"time": 2762, "pitch": 70, "duration": 19, "velocity": 112}, {"time": 2768, "pitch": 65, "duration": 15, "velocity": 90}, {"time": 2774, "pitch": 46, "duration": 13, "velocity": 69}, {"time": 2777, "pitch": 53, "duration": 9, "velocity": 53}, {"time": 2780, "pitch": 58, "duration": 4, "velocity": 77}, {"time": 2783, "pitch": 62, "duration": 15, "velocity": 67}, {"time": 2786, "pitch": 70, "duration": 12, "velocity": 127}, {"time": 2792, "pitch": 65, "duration": 6, "velocity": 77}, {"time": 2798, "pitch": 39, "duration": 22, "velocity": 81}, {"time": 2801, "pitch": 46, "duration": 21, "velocity": 35}, {"time": 2804, "pitch": 51, "duration": 6, "velocity": 70}, {"time": 2807, "pitch": 55, "duration": 7, "velocity": 68}, {"time": 2810, "pitch": 63, "duration": 21, "velocity": 112}, {"time": 2813, "pitch": 51, "duration": 21, "velocity": 77}, {"time": 2816, "pitch": 58, "duration": 13, "velocity": 92}, {"time": 2819, "pitch": 55, "duration": 17, "velocity": 75}, {"time": 2822, "pitch": 39, "duration": 23, "velocity": 82}, {"time": 2828, "pitch": 46, "duration": 17, "velocity": 54}, {"time": 2831, "pitch": 58, "duration": 4, "velocity": 76}, {"time": 2834, "pitch": 63, "duration": 12, "velocity": 112}, {"time": 2837, "pitch": 51, "duration": 8, "velocity": 64}, {"time": 2840, "pitch": 58, "duration": 6, "velocity": 88}, {"time": 2843, "pitch": 55, "duration": 3, "velocity": 64}, {"time": 2846, "pitch": 39, "duration": 22, "velocity": 88}, {"time": 2849, "pitch": 46, "duration": 20, "velocity": 34}, {"time": 2852, "pitch": 51, "duration": 6, "velocity": 61}, {"time": 2855, "pitch": 55, "duration": 7, "velocity": 70}, {"time": 2858, "pitch": 63, "duration": 17, "velocity": 100}, {"time": 2861, "pitch": 51, "duration": 8, "velocity": 66}, {"time": 2864, "pitch": 58, "duration": 9, "velocity": 52}, {"time": 2867, "pitch": 55, "duration": 6, "velocity": 50}, {"time": 2870, "pitch": 39, "duration": 22, "velocity": 67}, {"time": 2873, "pitch": 46, "duration": 21, "velocity": 59}, {"time": 2876, "pitch": 51, "duration": 18, "velocity": 73}, {"time": 2879, "pitch": 55, "duration": 27, "velocity": 60}, {"time": 2882, "pitch": 63, "duration": 21, "velocity": 100}, {"time": 2888, "pitch": 58, "duration": 14, "velocity": 40}, {"time": 2894, "pitch": 39, "duration": 23, "velocity": 72}, {"time": 2900, "pitch": 46, "duration": 18, "velocity": 63}, {"time": 2906, "pitch": 51, "duration": 15, "velocity": 65}, {"time": 2906, "pitch": 58, "duration": 13, "velocity": 85}, {"time": 2906, "pitch": 63, "duration": 14, "velocity": 97}, {"time": 2912, "pitch": 55, "duration": 7, "velocity": 63}, {"time": 2918, "pitch": 39, "duration": 16, "velocity": 63}, {"time": 2921, "pitch": 46, "duration": 13, "velocity": 39}, {"time": 2924, "pitch": 51, "duration": 7, "velocity": 85}, {"time": 2927, "pitch": 55, "duration": 4, "velocity": 73}, {"time": 2930, "pitch": 63, "duration": 11, "velocity": 122}, {"time": 2933, "pitch": 51, "duration": 3, "velocity": 83}, {"time": 2936, "pitch": 58, "duration": 5, "velocity": 75}, {"time": 2939, "pitch": 55, "duration": 2, "velocity": 56}, {"time": 2942, "pitch": 44, "duration": 23, "velocity": 72}, {"time": 2948, "pitch": 51, "duration": 18, "velocity": 68}, {"time": 2954, "pitch": 56, "duration": 13, "velocity": 55}, {"time": 2954, "pitch": 63, "duration": 7, "velocity": 93}, {"time": 2954, "pitch": 68, "duration": 13, "velocity": 85}, {"time": 2960, "pitch": 60, "duration": 7, "velocity": 66}, {"time": 2963, "pitch": 63, "duration": 4, "velocity": 81}, {"time": 2966, "pitch": 44, "duration": 17, "velocity": 60}, {"time": 2969, "pitch": 51, "duration": 13, "velocity": 60}, {"time": 2972, "pitch": 56, "duration": 6, "velocity": 79}, {"time": 2975, "pitch": 60, "duration": 10, "velocity": 67}, {"time": 2978, "pitch": 68, "duration": 11, "velocity": 112}, {"time": 2981, "pitch": 56, "duration": 4, "velocity": 55}, {"time": 2984, "pitch": 63, "duration": 5, "velocity": 92}, {"time": 2987, "pitch": 60, "duration": 3, "velocity": 75}, {"time": 2990, "pitch": 46, "duration": 14, "velocity": 70}, {"time": 2993, "pitch": 53, "duration": 10, "velocity": 59}, {"time": 2996, "pitch": 58, "duration": 6, "velocity": 93}, {"time": 2999, "pitch": 62, "duration": 4, "velocity": 63}, {"time": 3002, "pitch": 65, "duration": 11, "velocity": 96}, {"time": 3008, "pitch": 62, "duration": 5, "velocity": 58}, {"time": 3014, "pitch": 39, "duration": 24, "velocity": 85}, {"time": 3017, "pitch": 46, "duration": 20, "velocity": 61}, {"time": 3020, "pitch": 51, "duration": 7, "velocity": 64}, {"time": 3023, "pitch": 63, "duration": 8, "velocity": 61}, {"time": 3026, "pitch": 70, "duration": 12, "velocity": 107}, {"time": 3029, "pitch": 51, "duration": 8, "velocity": 54}, {"time": 3032, "pitch": 67, "duration": 5, "velocity": 64}, {"time": 3035, "pitch": 63, "duration": 3, "velocity": 70}, {"time": 3038, "pitch": 39, "duration": 1, "velocity": 88}, {"time": 3041, "pitch": 46, "duration": 20, "velocity": 34}, {"time": 3044, "pitch": 51, "duration": 6, "velocity": 61}, {"time": 3047, "pitch": 55, "duration": 7, "velocity": 70}, {"time": 3050, "pitch": 63, "duration": 17, "velocity": 100}, {"time": 3053, "pitch": 51, "duration": 8, "velocity": 66}, {"time": 3056, "pitch": 58, "duration": 9, "velocity": 52}, {"time": 3059, "pitch": 55, "duration": 6, "velocity": 50}, {"time": 3062, "pitch": 39, "duration": 22, "velocity": 67}, {"time": 3065, "pitch": 46, "duration": 21, "velocity": 59}, {"time": 3068, "pitch": 51, "duration": 18, "velocity": 73}, {"time": 3071, "pitch": 55, "duration": 27, "velocity": 60}, {"time": 3074, "pitch": 63, "duration": 21, "velocity": 100}, {"time": 3080, "pitch": 58, "duration": 14, "velocity": 40}, {"time": 3086, "pitch": 39, "duration": 23, "velocity": 72}, {"time": 3092, "pitch": 46, "duration": 18, "velocity": 63}, {"time": 3098, "pitch": 51, "duration": 15, "velocity": 65}, {"time": 3098, "pitch": 58, "duration": 13, "velocity": 85}, {"time": 3098, "pitch": 63, "duration": 14, "velocity": 97}, {"time": 3104, "pitch": 55, "duration": 7, "velocity": 63}, {"time": 3110, "pitch": 39, "duration": 16, "velocity": 63}, {"time": 3113, "pitch": 46, "duration": 13, "velocity": 39}, {"time": 3116, "pitch": 51, "duration": 7, "velocity": 85}, {"time": 3119, "pitch": 55, "duration": 4, "velocity": 73}, {"time": 3122, "pitch": 63, "duration": 11, "velocity": 122}, {"time": 3125, "pitch": 51, "duration": 3, "velocity": 83}, {"time": 3128, "pitch": 58, "duration": 5, "velocity": 75}, {"time": 3131, "pitch": 55, "duration": 2, "velocity": 56}, {"time": 3134, "pitch": 44, "duration": 23, "velocity": 72}, {"time": 3140, "pitch": 51, "duration": 18, "velocity": 68}, {"time": 3146, "pitch": 56, "duration": 12, "velocity": 55}, {"time": 3146, "pitch": 63, "duration": 7, "velocity": 93}, {"time": 3146, "pitch": 68, "duration": 12, "velocity": 85}, {"time": 3152, "pitch": 60, "duration": 6, "velocity": 66}, {"time": 3155, "pitch": 63, "duration": 3, "velocity": 81}], "annotations": [{"time": 0, "annotation": {"number": 7, "value": 101}, "group": "control_change"}, {"time": 158, "annotation": {"number": 64, "value": 127}, "group": "control_change"}, {"time": 180, "annotation": {"number": 64, "value": 0}, "group": "control_change"}, {"time": 183, "annotation": {"number": 64, "value": 127}, "group": "control_change"}, {"time": 226, "annotation": {"number": 64, "value": 0}, "group": "control_change"}, {"time": 231, "annotation": {"number": 64, "value": 127}, "group": "control_change"}, {"time": 251, "annotation": {"number": 64, "value": 0}, "group": "control_change"}, {"time": 254, "annotation": {"number": 64, "value": 127}, "group": "control_change"}, {"time": 275, "annotation": {"number": 64, "value": 0}, "group": "control_change"}, {"time": 278, "annotation": {"number": 64, "value": 127}, "group": "control_change"}, {"time": 300, "annotation": {"number": 64, "value": 0}, "group": "control_change"}, {"time": 302, "annotation": {"number": 64, "value": 127}, "group": "control_change"}, {"time": 323, "annotation": {"number": 64, "value": 0}, "group": "control_change"}, {"time": 326, "annotation": {"number": 64, "value": 127}, "group": "control_change"}, {"time": 347, "annotation": {"number": 64, "value": 0}, "group": "control_change"}, {"time": 350, "annotation": {"number": 64, "value": 127}, "group": "control_change"}, {"time": 370, "annotation": {"number": 64, "value": 0}, "group": "control_change"}, {"time": 374, "annotation": {"number": 64, "value": 127}, "group": "control_change"}, {"time": 393, "annotation": {"number": 64, "value": 0}, "group": "control_change"}, {"time": 398, "annotation": {"number": 64, "value": 127}, "group": "control_change"}, {"time": 420, "annotation": {"number": 64, "value": 0}, "group": "control_change"}, {"time": 422, "annotation": {"number": 64, "value": 127}, "group": "control_change"}, {"time": 444, "annotation": {"number": 64, "value": 0}, "group": "control_change"}, {"time": 446, "annotation": {"number": 64, "value": 127}, "group": "control_change"}, {"time": 467, "annotation": {"number": 64, "value": 0}, "group": "control_change"}, {"time": 470, "annotation": {"number": 64, "value": 127}, "group": "control_change"}, {"time": 492, "annotation": {"number": 64, "value": 0}, "group": "control_change"}, {"time": 494, "annotation": {"number": 64, "value": 127}, "group": "control_change"}, {"time": 516, "annotation": {"number": 64, "value": 0}, "group": "control_change"}, {"time": 518, "annotation": {"number": 64, "value": 127}, "group": "control_change"}, {"time": 539, "annotation": {"number": 64, "value": 0}, "group": "control_change"}, {"time": 542, "annotation": {"number": 64, "value": 127}, "group": "control_change"}, {"time": 563, "annotation": {"number": 64, "value": 0}, "group": "control_change"}, {"time": 566, "annotation": {"number": 64, "value": 127}, "group": "control_change"}, {"time": 587, "annotation": {"number": 64, "value": 0}, "group": "control_change"}, {"time": 590, "annotation": {"number": 64, "value": 127}, "group": "control_change"}, {"time": 611, "annotation": {"number": 64, "value": 0}, "group": "control_change"}, {"time": 614, "annotation": {"number": 64, "value": 127}, "group": "control_change"}, {"time": 622, "annotation": {"number": 64, "value": 0}, "group": "control_change"}, {"time": 638, "annotation": {"number": 64, "value": 127}, "group": "control_change"}, {"time": 659, "annotation": {"number": 64, "value": 0}, "group": "control_change"}, {"time": 662, "annotation": {"number": 64, "value": 127}, "group": "control_change"}, {"time": 683, "annotation": {"number": 64, "value": 0}, "group": "control_change"}, {"time": 686, "annotation": {"number": 64, "value": 127}, "group": "control_change"}, {"time": 707, "annotation": {"number": 64, "value": 0}, "group": "control_change"}, {"time": 710, "annotation": {"number": 64, "value": 127}, "group": "control_change"}, {"time": 731, "annotation": {"number": 64, "value": 0}, "group": "control_change"}, {"time": 734, "annotation": {"number": 64, "value": 127}, "group": "control_change"}, {"time": 756, "annotation": {"number": 64, "value": 0}, "group": "control_change"}, {"time": 758, "annotation": {"number": 64, "value": 127}, "group": "control_change"}, {"time": 779, "annotation": {"number": 64, "value": 0}, "group": "control_change"}, {"time": 782, "annotation": {"number": 64, "value": 127}, "group": "control_change"}, {"time": 803, "annotation": {"number": 64, "value": 0}, "group": "control_change"}, {"time": 806, "annotation": {"number": 64, "value": 127}, "group": "control_change"}, {"time": 828, "annotation": {"number": 64, "value": 0}, "group": "control_change"}, {"time": 830, "annotation": {"number": 64, "value": 127}, "group": "control_change"}, {"time": 852, "annotation": {"number": 64, "value": 0}, "group": "control_change"}, {"time": 854, "annotation": {"number": 64, "value": 127}, "group": "control_change"}, {"time": 876, "annotation": {"number": 64, "value": 0}, "group": "control_change"}, {"time": 878, "annotation": {"number": 64, "value": 127}, "group": "control_change"}, {"time": 899, "annotation": {"number": 64, "value": 0}, "group": "control_change"}, {"time": 902, "annotation": {"number": 64, "value": 127}, "group": "control_change"}, {"time": 924, "annotation": {"number": 64, "value": 0}, "group": "control_change"}, {"time": 926, "annotation": {"number": 64, "value": 127}, "group": "control_change"}, {"time": 948, "annotation": {"number": 64, "value": 0}, "group": "control_change"}, {"time": 950, "annotation": {"number": 64, "value": 127}, "group": "control_change"}, {"time": 972, "annotation": {"number": 64, "value": 0}, "group": "control_change"}, {"time": 974, "annotation": {"number": 64, "value": 127}, "group": "control_change"}, {"time": 996, "annotation": {"number": 64, "value": 0}, "group": "control_change"}, {"time": 998, "annotation": {"number": 64, "value": 127}, "group": "control_change"}, {"time": 1020, "annotation": {"number": 64, "value": 0}, "group": "control_change"}, {"time": 1022, "annotation": {"number": 64, "value": 127}, "group": "control_change"}, {"time": 1044, "annotation": {"number": 64, "value": 0}, "group": "control_change"}, {"time": 1046, "annotation": {"number": 64, "value": 127}, "group": "control_change"}, {"time": 1066, "annotation": {"number": 64, "value": 0}, "group": "control_change"}, {"time": 1070, "annotation": {"number": 64, "value": 127}, "group": "control_change"}, {"time": 1091, "annotation": {"number": 64, "value": 0}, "group": "control_change"}, {"time": 1094, "annotation": {"number": 64, "value": 127}, "group": "control_change"}, {"time": 1101, "annotation": {"number": 64, "value": 0}, "group": "control_change"}, {"time": 1103, "annotation": {"number": 64, "value": 127}, "group": "control_change"}, {"time": 1115, "annotation": {"number": 64, "value": 0}, "group": "control_change"}, {"time": 1118, "annotation": {"number": 64, "value": 127}, "group": "control_change"}, {"time": 1139, "annotation": {"number": 64, "value": 0}, "group": "control_change"}, {"time": 1142, "annotation": {"number": 64, "value": 127}, "group": "control_change"}, {"time": 1162, "annotation": {"number": 64, "value": 0}, "group": "control_change"}, {"time": 1166, "annotation": {"number": 64, "value": 127}, "group": "control_change"}, {"time": 1188, "annotation": {"number": 64, "value": 0}, "group": "control_change"}, {"time": 1190, "annotation": {"number": 64, "value": 127}, "group": "control_change"}, {"time": 1211, "annotation": {"number": 64, "value": 0}, "group": "control_change"}, {"time": 1214, "annotation": {"number": 64, "value": 127}, "group": "control_change"}, {"time": 1234, "annotation": {"number": 64, "value": 0}, "group": "control_change"}, {"time": 1239, "annotation": {"number": 64, "value": 127}, "group": "control_change"}, {"time": 1258, "annotation": {"number": 64, "value": 0}, "group": "control_change"}, {"time": 1262, "annotation": {"number": 64, "value": 127}, "group": "control_change"}, {"time": 1267, "annotation": {"number": 64, "value": 0}, "group": "control_change"}, {"time": 1287, "annotation": {"number": 64, "value": 127}, "group": "control_change"}, {"time": 1294, "annotation": {"number": 64, "value": 0}, "group": "control_change"}, {"time": 1294, "annotation": {"number": 64, "value": 127}, "group": "control_change"}, {"time": 1310, "annotation": {"number": 64, "value": 127}, "group": "control_change"}, {"time": 1327, "annotation": {"number": 64, "value": 0}, "group": "control_change"}, {"time": 1334, "annotation": {"number": 64, "value": 127}, "group": "control_change"}, {"time": 1339, "annotation": {"number": 64, "value": 0}, "group": "control_change"}, {"time": 1339, "annotation": {"number": 64, "value": 127}, "group": "control_change"}, {"time": 1358, "annotation": {"number": 64, "value": 127}, "group": "control_change"}, {"time": 1365, "annotation": {"number": 64, "value": 0}, "group": "control_change"}, {"time": 1382, "annotation": {"number": 64, "value": 127}, "group": "control_change"}, {"time": 1385, "annotation": {"number": 64, "value": 0}, "group": "control_change"}, {"time": 1406, "annotation": {"number": 64, "value": 127}, "group": "control_change"}, {"time": 1425, "annotation": {"number": 64, "value": 0}, "group": "control_change"}, {"time": 1430, "annotation": {"number": 64, "value": 127}, "group": "control_change"}, {"time": 1448, "annotation": {"number": 64, "value": 0}, "group": "control_change"}, {"time": 1454, "annotation": {"number": 64, "value": 127}, "group": "control_change"}, {"time": 1475, "annotation": {"number": 64, "value": 0}, "group": "control_change"}, {"time": 1524, "annotation": {"number": 64, "value": 0}, "group": "control_change"}, {"time": 1527, "annotation": {"number": 64, "value": 127}, "group": "control_change"}, {"time": 1570, "annotation": {"number": 64, "value": 0}, "group": "control_change"}, {"time": 1575, "annotation": {"number": 64, "value": 127}, "group": "control_change"}, {"time": 1595, "annotation": {"number": 64, "value": 0}, "group": "control_change"}, {"time": 1598, "annotation": {"number": 64, "value": 127}, "group": "control_change"}, {"time": 1619, "annotation": {"number": 64, "value": 0}, "group": "control_change"}, {"time": 1622, "annotation": {"number": 64, "value": 127}, "group": "control_change"}, {"time": 1644, "annotation": {"number": 64, "value": 0}, "group": "control_change"}, {"time": 1646, "annotation": {"number": 64, "value": 127}, "group": "control_change"}, {"time": 1667, "annotation": {"number": 64, "value": 0}, "group": "control_change"}, {"time": 1670, "annotation": {"number": 64, "value": 127}, "group": "control_change"}, {"time": 1691, "annotation": {"number": 64, "value": 0}, "group": "control_change"}, {"time": 1694, "annotation": {"number": 64, "value": 127}, "group": "control_change"}, {"time": 1714, "annotation": {"number": 64, "value": 0}, "group": "control_change"}, {"time": 1718, "annotation": {"number": 64, "value": 127}, "group": "control_change"}, {"time": 1737, "annotation": {"number": 64, "value": 0}, "group": "control_change"}, {"time": 1742, "annotation": {"number": 64, "value": 127}, "group": "control_change"}, {"time": 1764, "annotation": {"number": 64, "value": 0}, "group": "control_change"}, {"time": 1766, "annotation": {"number": 64, "value": 127}, "group": "control_change"}, {"time": 1788, "annotation": {"number": 64, "value": 0}, "group": "control_change"}, {"time": 1790, "annotation": {"number": 64, "value": 127}, "group": "control_change"}, {"time": 1811, "annotation": {"number": 64, "value": 0}, "group": "control_change"}, {"time": 1814, "annotation": {"number": 64, "value": 127}, "group": "control_change"}, {"time": 1836, "annotation": {"number": 64, "value": 0}, "group": "control_change"}, {"time": 1838, "annotation": {"number": 64, "value": 127}, "group": "control_change"}, {"time": 1860, "annotation": {"number": 64, "value": 0}, "group": "control_change"}, {"time": 1862, "annotation": {"number": 64, "value": 127}, "group": "control_change"}, {"time": 1883, "annotation": {"number": 64, "value": 0}, "group": "control_change"}, {"time": 1886, "annotation": {"number": 64, "value": 127}, "group": "control_change"}, {"time": 1907, "annotation": {"number": 64, "value": 0}, "group": "control_change"}, {"time": 1910, "annotation": {"number": 64, "value": 127}, "group": "control_change"}, {"time": 1931, "annotation": {"number": 64, "value": 0}, "group": "control_change"}, {"time": 1934, "annotation": {"number": 64, "value": 127}, "group": "control_change"}, {"time": 1955, "annotation": {"number": 64, "value": 0}, "group": "control_change"}, {"time": 1958, "annotation": {"number": 64, "value": 127}, "group": "control_change"}, {"time": 1966, "annotation": {"number": 64, "value": 0}, "group": "control_change"}, {"time": 1982, "annotation": {"number": 64, "value": 127}, "group": "control_change"}, {"time": 2003, "annotation": {"number": 64, "value": 0}, "group": "control_change"}, {"time": 2006, "annotation": {"number": 64, "value": 127}, "group": "control_change"}, {"time": 2027, "annotation": {"number": 64, "value": 0}, "group": "control_change"}, {"time": 2030, "annotation": {"number": 64, "value": 127}, "group": "control_change"}, {"time": 2051, "annotation": {"number": 64, "value": 0}, "group": "control_change"}, {"time": 2054, "annotation": {"number": 64, "value": 127}, "group": "control_change"}, {"time": 2075, "annotation": {"number": 64, "value": 0}, "group": "control_change"}, {"time": 2078, "annotation": {"number": 64, "value": 127}, "group": "control_change"}, {"time": 2100, "annotation": {"number": 64, "value": 0}, "group": "control_change"}, {"time": 2102, "annotation": {"number": 64, "value": 127}, "group": "control_change"}, {"time": 2123, "annotation": {"number": 64, "value": 0}, "group": "control_change"}, {"time": 2126, "annotation": {"number": 64, "value": 127}, "group": "control_change"}, {"time": 2147, "annotation": {"number": 64, "value": 0}, "group": "control_change"}, {"time": 2150, "annotation": {"number": 64, "value": 127}, "group": "control_change"}, {"time": 2172, "annotation": {"number": 64, "value": 0}, "group": "control_change"}, {"time": 2174, "annotation": {"number": 64, "value": 127}, "group": "control_change"}, {"time": 2196, "annotation": {"number": 64, "value": 0}, "group": "control_change"}, {"time": 2198, "annotation": {"number": 64, "value": 127}, "group": "control_change"}, {"time": 2220, "annotation": {"number": 64, "value": 0}, "group": "control_change"}, {"time": 2222, "annotation": {"number": 64, "value": 127}, "group": "control_change"}, {"time": 2243, "annotation": {"number": 64, "value": 0}, "group": "control_change"}, {"time": 2246, "annotation": {"number": 64, "value": 127}, "group": "control_change"}, {"time": 2268, "annotation": {"number": 64, "value": 0}, "group": "control_change"}, {"time": 2270, "annotation": {"number": 64, "value": 127}, "group": "control_change"}, {"time": 2292, "annotation": {"number": 64, "value": 0}, "group": "control_change"}, {"time": 2294, "annotation": {"number": 64, "value": 127}, "group": "control_change"}, {"time": 2316, "annotation": {"number": 64, "value": 0}, "group": "control_change"}, {"time": 2318, "annotation": {"number": 64, "value": 127}, "group": "control_change"}, {"time": 2340, "annotation": {"number": 64, "value": 0}, "group": "control_change"}, {"time": 2342, "annotation": {"number": 64, "value": 127}, "group": "control_change"}, {"time": 2364, "annotation": {"number": 64, "value": 0}, "group": "control_change"}, {"time": 2366, "annotation": {"number": 64, "value": 127}, "group": "control_change"}, {"time": 2388, "annotation": {"number": 64, "value": 0}, "group": "control_change"}, {"time": 2390, "annotation": {"number": 64, "value": 127}, "group": "control_change"}, {"time": 2410, "annotation": {"number": 64, "value": 0}, "group": "control_change"}, {"time": 2414, "annotation": {"number": 64, "value": 127}, "group": "control_change"}, {"time": 2435, "annotation": {"number": 64, "value": 0}, "group": "control_change"}, {"time": 2438, "annotation": {"number": 64, "value": 127}, "group": "control_change"}, {"time": 2445, "annotation": {"number": 64, "value": 0}, "group": "control_change"}, {"time": 2447, "annotation": {"number": 64, "value": 127}, "group": "control_change"}, {"time": 2459, "annotation": {"number": 64, "value": 0}, "group": "control_change"}, {"time": 2462, "annotation": {"number": 64, "value": 127}, "group": "control_change"}, {"time": 2483, "annotation": {"number": 64, "value": 0}, "group": "control_change"}, {"time": 2486, "annotation": {"number": 64, "value": 127}, "group": "control_change"}, {"time": 2506, "annotation": {"number": 64, "value": 0}, "group": "control_change"}, {"time": 2510, "annotation": {"number": 64, "value": 127}, "group": "control_change"}, {"time": 2532, "annotation": {"number": 64, "value": 0}, "group": "control_change"}, {"time": 2534, "annotation": {"number": 64, "value": 127}, "group": "control_change"}, {"time": 2555, "annotation": {"number": 64, "value": 0}, "group": "control_change"}, {"time": 2558, "annotation": {"number": 64, "value": 127}, "group": "control_change"}, {"time": 2578, "annotation": {"number": 64, "value": 0}, "group": "control_change"}, {"time": 2583, "annotation": {"number": 64, "value": 127}, "group": "control_change"}, {"time": 2602, "annotation": {"number": 64, "value": 0}, "group": "control_change"}, {"time": 2606, "annotation": {"number": 64, "value": 127}, "group": "control_change"}, {"time": 2611, "annotation": {"number": 64, "value": 0}, "group": "control_change"}, {"time": 2631, "annotation": {"number": 64, "value": 127}, "group": "control_change"}, {"time": 2638, "annotation": {"number": 64, "value": 0}, "group": "control_change"}, {"time": 2638, "annotation": {"number": 64, "value": 127}, "group": "control_change"}, {"time": 2654, "annotation": {"number": 64, "value": 127}, "group": "control_change"}, {"time": 2671, "annotation": {"number": 64, "value": 0}, "group": "control_change"}, {"time": 2678, "annotation": {"number": 64, "value": 127}, "group": "control_change"}, {"time": 2683, "annotation": {"number": 64, "value": 0}, "group": "control_change"}, {"time": 2683, "annotation": {"number": 64, "value": 127}, "group": "control_change"}, {"time": 2702, "annotation": {"number": 64, "value": 127}, "group": "control_change"}, {"time": 2709, "annotation": {"number": 64, "value": 0}, "group": "control_change"}, {"time": 2726, "annotation": {"number": 64, "value": 127}, "group": "control_change"}, {"time": 2729, "annotation": {"number": 64, "value": 0}, "group": "control_change"}, {"time": 2750, "annotation": {"number": 64, "value": 127}, "group": "control_change"}, {"time": 2769, "annotation": {"number": 64, "value": 0}, "group": "control_change"}, {"time": 2774, "annotation": {"number": 64, "value": 127}, "group": "control_change"}, {"time": 2792, "annotation": {"number": 64, "value": 0}, "group": "control_change"}, {"time": 2798, "annotation": {"number": 64, "value": 127}, "group": "control_change"}, {"time": 2819, "annotation": {"number": 64, "value": 0}, "group": "control_change"}, {"time": 2868, "annotation": {"number": 64, "value": 0}, "group": "control_change"}, {"time": 2871, "annotation": {"number": 64, "value": 127}, "group": "control_change"}, {"time": 2914, "annotation": {"number": 64, "value": 0}, "group": "control_change"}, {"time": 2919, "annotation": {"number": 64, "value": 127}, "group": "control_change"}, {"time": 2939, "annotation": {"number": 64, "value": 0}, "group": "control_change"}, {"time": 2942, "annotation": {"number": 64, "value": 127}, "group": "control_change"}, {"time": 2963, "annotation": {"number": 64, "value": 0}, "group": "control_change"}, {"time": 2966, "annotation": {"number": 64, "value": 127}, "group": "control_change"}, {"time": 2988, "annotation": {"number": 64, "value": 0}, "group": "control_change"}, {"time": 2990, "annotation": {"number": 64, "value": 127}, "group": "control_change"}, {"time": 3011, "annotation": {"number": 64, "value": 0}, "group": "control_change"}, {"time": 3019, "annotation": {"number": 64, "value": 127}, "group": "control_change"}, {"time": 3035, "annotation": {"number": 64, "value": 0}, "group": "control_change"}, {"time": 3051, "annotation": {"number": 7, "value": 101}, "group": "control_change"}, {"time": 3052, "annotation": {"number": 7, "value": 100}, "group": "control_change"}, {"time": 3054, "annotation": {"number": 7, "value": 98}, "group": "control_change"}, {"time": 3055, "annotation": {"number": 7, "value": 97}, "group": "control_change"}, {"time": 3057, "annotation": {"number": 7, "value": 95}, "group": "control_change"}, {"time": 3058, "annotation": {"number": 7, "value": 94}, "group": "control_change"}, {"time": 3060, "annotation": {"number": 7, "value": 92}, "group": "control_change"}, {"time": 3060, "annotation": {"number": 64, "value": 0}, "group": "control_change"}, {"time": 3061, "annotation": {"number": 7, "value": 91}, "group": "control_change"}, {"time": 3063, "annotation": {"number": 64, "value": 127}, "group": "control_change"}, {"time": 3063, "annotation": {"number": 7, "value": 89}, "group": "control_change"}, {"time": 3064, "annotation": {"number": 7, "value": 88}, "group": "control_change"}, {"time": 3066, "annotation": {"number": 7, "value": 86}, "group": "control_change"}, {"time": 3067, "annotation": {"number": 7, "value": 85}, "group": "control_change"}, {"time": 3069, "annotation": {"number": 7, "value": 83}, "group": "control_change"}, {"time": 3070, "annotation": {"number": 7, "value": 82}, "group": "control_change"}, {"time": 3072, "annotation": {"number": 7, "value": 80}, "group": "control_change"}, {"time": 3073, "annotation": {"number": 7, "value": 79}, "group": "control_change"}, {"time": 3075, "annotation": {"number": 7, "value": 77}, "group": "control_change"}, {"time": 3076, "annotation": {"number": 7, "value": 76}, "group": "control_change"}, {"time": 3078, "annotation": {"number": 7, "value": 74}, "group": "control_change"}, {"time": 3079, "annotation": {"number": 7, "value": 73}, "group": "control_change"}, {"time": 3081, "annotation": {"number": 7, "value": 71}, "group": "control_change"}, {"time": 3082, "annotation": {"number": 7, "value": 70}, "group": "control_change"}, {"time": 3084, "annotation": {"number": 7, "value": 69}, "group": "control_change"}, {"time": 3085, "annotation": {"number": 7, "value": 67}, "group": "control_change"}, {"time": 3087, "annotation": {"number": 7, "value": 66}, "group": "control_change"}, {"time": 3088, "annotation": {"number": 7, "value": 64}, "group": "control_change"}, {"time": 3090, "annotation": {"number": 7, "value": 63}, "group": "control_change"}, {"time": 3091, "annotation": {"number": 7, "value": 61}, "group": "control_change"}, {"time": 3093, "annotation": {"number": 7, "value": 60}, "group": "control_change"}, {"time": 3094, "annotation": {"number": 7, "value": 58}, "group": "control_change"}, {"time": 3096, "annotation": {"number": 7, "value": 57}, "group": "control_change"}, {"time": 3097, "annotation": {"number": 7, "value": 55}, "group": "control_change"}, {"time": 3099, "annotation": {"number": 7, "value": 54}, "group": "control_change"}, {"time": 3100, "annotation": {"number": 7, "value": 52}, "group": "control_change"}, {"time": 3102, "annotation": {"number": 7, "value": 51}, "group": "control_change"}, {"time": 3103, "annotation": {"number": 7, "value": 49}, "group": "control_change"}, {"time": 3105, "annotation": {"number": 7, "value": 48}, "group": "control_change"}, {"time": 3106, "annotation": {"number": 64, "value": 0}, "group": "control_change"}, {"time": 3106, "annotation": {"number": 7, "value": 46}, "group": "control_change"}, {"time": 3108, "annotation": {"number": 7, "value": 45}, "group": "control_change"}, {"time": 3109, "annotation": {"number": 7, "value": 43}, "group": "control_change"}, {"time": 3111, "annotation": {"number": 64, "value": 127}, "group": "control_change"}, {"time": 3111, "annotation": {"number": 7, "value": 42}, "group": "control_change"}, {"time": 3112, "annotation": {"number": 7, "value": 40}, "group": "control_change"}, {"time": 3114, "annotation": {"number": 7, "value": 39}, "group": "control_change"}, {"time": 3115, "annotation": {"number": 7, "value": 38}, "group": "control_change"}, {"time": 3117, "annotation": {"number": 7, "value": 36}, "group": "control_change"}, {"time": 3118, "annotation": {"number": 7, "value": 35}, "group": "control_change"}, {"time": 3120, "annotation": {"number": 7, "value": 33}, "group": "control_change"}, {"time": 3121, "annotation": {"number": 7, "value": 32}, "group": "control_change"}, {"time": 3123, "annotation": {"number": 7, "value": 30}, "group": "control_change"}, {"time": 3124, "annotation": {"number": 7, "value": 29}, "group": "control_change"}, {"time": 3126, "annotation": {"number": 7, "value": 27}, "group": "control_change"}, {"time": 3127, "annotation": {"number": 7, "value": 26}, "group": "control_change"}, {"time": 3129, "annotation": {"number": 7, "value": 24}, "group": "control_change"}, {"time": 3130, "annotation": {"number": 7, "value": 23}, "group": "control_change"}, {"time": 3131, "annotation": {"number": 64, "value": 0}, "group": "control_change"}, {"time": 3132, "annotation": {"number": 7, "value": 21}, "group": "control_change"}, {"time": 3133, "annotation": {"number": 7, "value": 20}, "group": "control_change"}, {"time": 3134, "annotation": {"number": 64, "value": 127}, "group": "control_change"}, {"time": 3135, "annotation": {"number": 7, "value": 18}, "group": "control_change"}, {"time": 3136, "annotation": {"number": 7, "value": 17}, "group": "control_change"}, {"time": 3138, "annotation": {"number": 7, "value": 15}, "group": "control_change"}, {"time": 3139, "annotation": {"number": 7, "value": 14}, "group": "control_change"}, {"time": 3141, "annotation": {"number": 7, "value": 12}, "group": "control_change"}, {"time": 3142, "annotation": {"number": 7, "value": 11}, "group": "control_change"}, {"time": 3144, "annotation": {"number": 7, "value": 9}, "group": "control_change"}, {"time": 3145, "annotation": {"number": 7, "value": 8}, "group": "control_change"}, {"time": 3147, "annotation": {"number": 7, "value": 7}, "group": "control_change"}, {"time": 3148, "annotation": {"number": 7, "value": 5}, "group": "control_change"}, {"time": 3150, "annotation": {"number": 7, "value": 4}, "group": "control_change"}, {"time": 3151, "annotation": {"number": 7, "value": 2}, "group": "control_change"}, {"time": 3153, "annotation": {"number": 7, "value": 1}, "group": "control_change"}, {"time": 3153, "annotation": {"number": 7, "value": 0}, "group": "control_change"}, {"time": 3155, "annotation": {"number": 64, "value": 0}, "group": "control_change"}]}]}