{"metadata": {"schema_version": "0.2", "title": "None", "source_filename": "475.mid", "source_format": "midi"}, "resolution": 12, "tempos": [{"time": 0, "qpm": 63.03004327012471}], "time_signatures": [{"time": 0, "numerator": 1, "denominator": 4}], "tracks": [{"program": 0, "is_drum": false, "name": "MELODY", "notes": [{"time": 219, "pitch": 73, "duration": 1, "velocity": 75}, {"time": 222, "pitch": 73, "duration": 1, "velocity": 83}, {"time": 225, "pitch": 73, "duration": 5, "velocity": 84}, {"time": 234, "pitch": 73, "duration": 1, "velocity": 82}, {"time": 237, "pitch": 73, "duration": 5, "velocity": 84}, {"time": 243, "pitch": 71, "duration": 5, "velocity": 80}, {"time": 255, "pitch": 71, "duration": 1, "velocity": 80}, {"time": 258, "pitch": 69, "duration": 2, "velocity": 80}, {"time": 261, "pitch": 71, "duration": 3, "velocity": 83}, {"time": 267, "pitch": 71, "duration": 1, "velocity": 79}, {"time": 270, "pitch": 69, "duration": 1, "velocity": 80}, {"time": 273, "pitch": 71, "duration": 5, "velocity": 81}, {"time": 279, "pitch": 73, "duration": 2, "velocity": 79}, {"time": 285, "pitch": 66, "duration": 9, "velocity": 81}, {"time": 303, "pitch": 66, "duration": 2, "velocity": 75}, {"time": 306, "pitch": 69, "duration": 3, "velocity": 78}, {"time": 309, "pitch": 71, "duration": 3, "velocity": 81}, {"time": 315, "pitch": 73, "duration": 3, "velocity": 80}, {"time": 321, "pitch": 66, "duration": 3, "velocity": 81}, {"time": 327, "pitch": 69, "duration": 1, "velocity": 83}, {"time": 330, "pitch": 71, "duration": 6, "velocity": 84}, {"time": 336, "pitch": 73, "duration": 3, "velocity": 81}, {"time": 345, "pitch": 73, "duration": 2, "velocity": 104}, {"time": 348, "pitch": 76, "duration": 2, "velocity": 80}, {"time": 351, "pitch": 71, "duration": 4, "velocity": 84}, {"time": 357, "pitch": 73, "duration": 16, "velocity": 100}, {"time": 411, "pitch": 73, "duration": 1, "velocity": 80}, {"time": 414, "pitch": 73, "duration": 1, "velocity": 88}, {"time": 417, "pitch": 73, "duration": 6, "velocity": 91}, {"time": 426, "pitch": 73, "duration": 1, "velocity": 88}, {"time": 429, "pitch": 73, "duration": 5, "velocity": 96}, {"time": 435, "pitch": 71, "duration": 7, "velocity": 89}, {"time": 447, "pitch": 71, "duration": 2, "velocity": 80}, {"time": 450, "pitch": 69, "duration": 2, "velocity": 83}, {"time": 453, "pitch": 71, "duration": 3, "velocity": 80}, {"time": 459, "pitch": 71, "duration": 1, "velocity": 77}, {"time": 462, "pitch": 69, "duration": 2, "velocity": 75}, {"time": 465, "pitch": 71, "duration": 5, "velocity": 84}, {"time": 471, "pitch": 73, "duration": 2, "velocity": 75}, {"time": 477, "pitch": 66, "duration": 14, "velocity": 69}, {"time": 495, "pitch": 66, "duration": 1, "velocity": 75}, {"time": 498, "pitch": 69, "duration": 3, "velocity": 89}, {"time": 501, "pitch": 71, "duration": 5, "velocity": 77}, {"time": 507, "pitch": 73, "duration": 3, "velocity": 80}, {"time": 513, "pitch": 66, "duration": 3, "velocity": 79}, {"time": 519, "pitch": 69, "duration": 2, "velocity": 84}, {"time": 522, "pitch": 71, "duration": 5, "velocity": 73}, {"time": 528, "pitch": 73, "duration": 6, "velocity": 80}, {"time": 537, "pitch": 76, "duration": 2, "velocity": 88}, {"time": 540, "pitch": 73, "duration": 2, "velocity": 75}, {"time": 543, "pitch": 71, "duration": 5, "velocity": 77}, {"time": 549, "pitch": 69, "duration": 16, "velocity": 85}, {"time": 585, "pitch": 69, "duration": 3, "velocity": 98}, {"time": 588, "pitch": 71, "duration": 2, "velocity": 82}, {"time": 591, "pitch": 73, "duration": 2, "velocity": 91}, {"time": 594, "pitch": 76, "duration": 3, "velocity": 86}, {"time": 597, "pitch": 78, "duration": 5, "velocity": 100}, {"time": 603, "pitch": 76, "duration": 2, "velocity": 84}, {"time": 606, "pitch": 78, "duration": 6, "velocity": 104}, {"time": 615, "pitch": 78, "duration": 2, "velocity": 82}, {"time": 618, "pitch": 76, "duration": 3, "velocity": 84}, {"time": 621, "pitch": 78, "duration": 5, "velocity": 91}, {"time": 627, "pitch": 76, "duration": 4, "velocity": 88}, {"time": 633, "pitch": 78, "duration": 4, "velocity": 104}, {"time": 639, "pitch": 81, "duration": 1, "velocity": 89}, {"time": 642, "pitch": 81, "duration": 2, "velocity": 91}, {"time": 645, "pitch": 78, "duration": 5, "velocity": 100}, {"time": 651, "pitch": 76, "duration": 4, "velocity": 91}, {"time": 657, "pitch": 76, "duration": 4, "velocity": 89}, {"time": 663, "pitch": 78, "duration": 2, "velocity": 78}, {"time": 666, "pitch": 73, "duration": 11, "velocity": 95}, {"time": 690, "pitch": 73, "duration": 1, "velocity": 88}, {"time": 693, "pitch": 73, "duration": 2, "velocity": 83}, {"time": 696, "pitch": 71, "duration": 1, "velocity": 84}, {"time": 699, "pitch": 71, "duration": 12, "velocity": 86}, {"time": 714, "pitch": 73, "duration": 1, "velocity": 82}, {"time": 717, "pitch": 73, "duration": 5, "velocity": 82}, {"time": 723, "pitch": 71, "duration": 1, "velocity": 78}, {"time": 726, "pitch": 71, "duration": 7, "velocity": 83}, {"time": 735, "pitch": 69, "duration": 5, "velocity": 89}, {"time": 741, "pitch": 76, "duration": 5, "velocity": 85}, {"time": 747, "pitch": 73, "duration": 19, "velocity": 95}, {"time": 777, "pitch": 69, "duration": 3, "velocity": 98}, {"time": 780, "pitch": 71, "duration": 2, "velocity": 79}, {"time": 783, "pitch": 73, "duration": 2, "velocity": 88}, {"time": 786, "pitch": 76, "duration": 2, "velocity": 88}, {"time": 789, "pitch": 78, "duration": 5, "velocity": 100}, {"time": 795, "pitch": 76, "duration": 2, "velocity": 91}, {"time": 798, "pitch": 78, "duration": 8, "velocity": 88}, {"time": 807, "pitch": 78, "duration": 2, "velocity": 100}, {"time": 810, "pitch": 76, "duration": 2, "velocity": 84}, {"time": 813, "pitch": 78, "duration": 5, "velocity": 91}, {"time": 819, "pitch": 76, "duration": 4, "velocity": 91}, {"time": 825, "pitch": 78, "duration": 4, "velocity": 81}, {"time": 831, "pitch": 81, "duration": 4, "velocity": 84}, {"time": 837, "pitch": 78, "duration": 4, "velocity": 82}, {"time": 843, "pitch": 76, "duration": 1, "velocity": 91}, {"time": 846, "pitch": 76, "duration": 9, "velocity": 89}, {"time": 855, "pitch": 78, "duration": 5, "velocity": 79}, {"time": 858, "pitch": 73, "duration": 8, "velocity": 104}, {"time": 882, "pitch": 73, "duration": 1, "velocity": 83}, {"time": 885, "pitch": 73, "duration": 2, "velocity": 91}, {"time": 888, "pitch": 71, "duration": 1, "velocity": 82}, {"time": 891, "pitch": 71, "duration": 12, "velocity": 83}, {"time": 906, "pitch": 73, "duration": 1, "velocity": 81}, {"time": 909, "pitch": 73, "duration": 4, "velocity": 88}, {"time": 915, "pitch": 71, "duration": 1, "velocity": 82}, {"time": 918, "pitch": 71, "duration": 8, "velocity": 84}, {"time": 927, "pitch": 69, "duration": 5, "velocity": 86}, {"time": 933, "pitch": 76, "duration": 30, "velocity": 94}, {"time": 987, "pitch": 73, "duration": 1, "velocity": 75}, {"time": 990, "pitch": 73, "duration": 1, "velocity": 83}, {"time": 993, "pitch": 73, "duration": 5, "velocity": 84}, {"time": 1002, "pitch": 73, "duration": 1, "velocity": 82}, {"time": 1005, "pitch": 73, "duration": 5, "velocity": 84}, {"time": 1011, "pitch": 71, "duration": 5, "velocity": 80}, {"time": 1023, "pitch": 71, "duration": 1, "velocity": 80}, {"time": 1026, "pitch": 69, "duration": 2, "velocity": 80}, {"time": 1029, "pitch": 71, "duration": 3, "velocity": 83}, {"time": 1035, "pitch": 71, "duration": 1, "velocity": 79}, {"time": 1038, "pitch": 69, "duration": 1, "velocity": 80}, {"time": 1041, "pitch": 71, "duration": 5, "velocity": 81}, {"time": 1047, "pitch": 73, "duration": 2, "velocity": 79}, {"time": 1053, "pitch": 66, "duration": 8, "velocity": 81}, {"time": 1071, "pitch": 66, "duration": 2, "velocity": 75}, {"time": 1074, "pitch": 69, "duration": 3, "velocity": 78}, {"time": 1077, "pitch": 71, "duration": 3, "velocity": 81}, {"time": 1083, "pitch": 73, "duration": 3, "velocity": 80}, {"time": 1089, "pitch": 66, "duration": 3, "velocity": 81}, {"time": 1095, "pitch": 69, "duration": 1, "velocity": 83}, {"time": 1098, "pitch": 71, "duration": 6, "velocity": 84}, {"time": 1104, "pitch": 73, "duration": 3, "velocity": 81}, {"time": 1113, "pitch": 73, "duration": 2, "velocity": 104}, {"time": 1116, "pitch": 76, "duration": 2, "velocity": 80}, {"time": 1119, "pitch": 71, "duration": 4, "velocity": 84}, {"time": 1125, "pitch": 73, "duration": 16, "velocity": 100}, {"time": 1179, "pitch": 73, "duration": 1, "velocity": 80}, {"time": 1182, "pitch": 73, "duration": 1, "velocity": 88}, {"time": 1185, "pitch": 73, "duration": 6, "velocity": 91}, {"time": 1194, "pitch": 73, "duration": 1, "velocity": 88}, {"time": 1197, "pitch": 73, "duration": 5, "velocity": 96}, {"time": 1203, "pitch": 71, "duration": 7, "velocity": 89}, {"time": 1215, "pitch": 71, "duration": 2, "velocity": 80}, {"time": 1218, "pitch": 69, "duration": 2, "velocity": 83}, {"time": 1221, "pitch": 71, "duration": 3, "velocity": 80}, {"time": 1227, "pitch": 71, "duration": 1, "velocity": 77}, {"time": 1230, "pitch": 69, "duration": 2, "velocity": 75}, {"time": 1233, "pitch": 71, "duration": 5, "velocity": 84}, {"time": 1239, "pitch": 73, "duration": 2, "velocity": 75}, {"time": 1245, "pitch": 66, "duration": 14, "velocity": 69}, {"time": 1263, "pitch": 66, "duration": 1, "velocity": 75}, {"time": 1266, "pitch": 69, "duration": 3, "velocity": 89}, {"time": 1269, "pitch": 71, "duration": 5, "velocity": 77}, {"time": 1275, "pitch": 73, "duration": 3, "velocity": 80}, {"time": 1281, "pitch": 66, "duration": 3, "velocity": 79}, {"time": 1287, "pitch": 69, "duration": 2, "velocity": 84}, {"time": 1290, "pitch": 71, "duration": 5, "velocity": 73}, {"time": 1296, "pitch": 73, "duration": 6, "velocity": 80}, {"time": 1305, "pitch": 76, "duration": 2, "velocity": 88}, {"time": 1308, "pitch": 73, "duration": 2, "velocity": 75}, {"time": 1311, "pitch": 71, "duration": 5, "velocity": 77}, {"time": 1317, "pitch": 69, "duration": 16, "velocity": 85}, {"time": 1563, "pitch": 73, "duration": 1, "velocity": 75}, {"time": 1566, "pitch": 73, "duration": 1, "velocity": 83}, {"time": 1569, "pitch": 73, "duration": 5, "velocity": 84}, {"time": 1578, "pitch": 73, "duration": 1, "velocity": 82}, {"time": 1581, "pitch": 73, "duration": 5, "velocity": 84}, {"time": 1587, "pitch": 71, "duration": 5, "velocity": 80}, {"time": 1599, "pitch": 71, "duration": 1, "velocity": 80}, {"time": 1602, "pitch": 69, "duration": 2, "velocity": 80}, {"time": 1605, "pitch": 71, "duration": 3, "velocity": 83}, {"time": 1611, "pitch": 71, "duration": 1, "velocity": 79}, {"time": 1614, "pitch": 69, "duration": 1, "velocity": 80}, {"time": 1617, "pitch": 71, "duration": 5, "velocity": 81}, {"time": 1623, "pitch": 73, "duration": 2, "velocity": 79}, {"time": 1629, "pitch": 66, "duration": 9, "velocity": 81}, {"time": 1647, "pitch": 66, "duration": 2, "velocity": 75}, {"time": 1650, "pitch": 69, "duration": 3, "velocity": 78}, {"time": 1653, "pitch": 71, "duration": 3, "velocity": 81}, {"time": 1659, "pitch": 73, "duration": 3, "velocity": 80}, {"time": 1665, "pitch": 66, "duration": 3, "velocity": 81}, {"time": 1671, "pitch": 69, "duration": 1, "velocity": 83}, {"time": 1674, "pitch": 71, "duration": 6, "velocity": 84}, {"time": 1680, "pitch": 73, "duration": 3, "velocity": 81}, {"time": 1689, "pitch": 73, "duration": 2, "velocity": 104}, {"time": 1692, "pitch": 76, "duration": 2, "velocity": 80}, {"time": 1695, "pitch": 71, "duration": 4, "velocity": 84}, {"time": 1701, "pitch": 73, "duration": 16, "velocity": 100}, {"time": 1755, "pitch": 73, "duration": 1, "velocity": 80}, {"time": 1758, "pitch": 73, "duration": 1, "velocity": 88}, {"time": 1761, "pitch": 73, "duration": 6, "velocity": 91}, {"time": 1770, "pitch": 73, "duration": 1, "velocity": 88}, {"time": 1773, "pitch": 73, "duration": 5, "velocity": 96}, {"time": 1779, "pitch": 71, "duration": 7, "velocity": 89}, {"time": 1791, "pitch": 71, "duration": 2, "velocity": 80}, {"time": 1794, "pitch": 69, "duration": 2, "velocity": 83}, {"time": 1797, "pitch": 71, "duration": 3, "velocity": 80}, {"time": 1803, "pitch": 71, "duration": 1, "velocity": 77}, {"time": 1806, "pitch": 69, "duration": 2, "velocity": 75}, {"time": 1809, "pitch": 71, "duration": 5, "velocity": 84}, {"time": 1815, "pitch": 73, "duration": 2, "velocity": 75}, {"time": 1821, "pitch": 66, "duration": 14, "velocity": 69}, {"time": 1839, "pitch": 66, "duration": 1, "velocity": 75}, {"time": 1842, "pitch": 69, "duration": 3, "velocity": 89}, {"time": 1845, "pitch": 71, "duration": 5, "velocity": 77}, {"time": 1851, "pitch": 73, "duration": 3, "velocity": 80}, {"time": 1857, "pitch": 66, "duration": 3, "velocity": 79}, {"time": 1863, "pitch": 69, "duration": 2, "velocity": 84}, {"time": 1866, "pitch": 71, "duration": 5, "velocity": 73}, {"time": 1872, "pitch": 73, "duration": 6, "velocity": 80}, {"time": 1881, "pitch": 76, "duration": 2, "velocity": 88}, {"time": 1884, "pitch": 73, "duration": 2, "velocity": 75}, {"time": 1887, "pitch": 71, "duration": 5, "velocity": 77}, {"time": 1893, "pitch": 69, "duration": 16, "velocity": 85}, {"time": 1929, "pitch": 69, "duration": 3, "velocity": 98}, {"time": 1932, "pitch": 71, "duration": 2, "velocity": 82}, {"time": 1935, "pitch": 73, "duration": 2, "velocity": 91}, {"time": 1938, "pitch": 76, "duration": 3, "velocity": 86}, {"time": 1941, "pitch": 78, "duration": 5, "velocity": 100}, {"time": 1947, "pitch": 76, "duration": 2, "velocity": 84}, {"time": 1950, "pitch": 78, "duration": 6, "velocity": 104}, {"time": 1959, "pitch": 78, "duration": 2, "velocity": 82}, {"time": 1962, "pitch": 76, "duration": 3, "velocity": 84}, {"time": 1965, "pitch": 78, "duration": 5, "velocity": 91}, {"time": 1971, "pitch": 76, "duration": 4, "velocity": 88}, {"time": 1977, "pitch": 78, "duration": 4, "velocity": 104}, {"time": 1983, "pitch": 81, "duration": 1, "velocity": 89}, {"time": 1986, "pitch": 81, "duration": 2, "velocity": 91}, {"time": 1989, "pitch": 78, "duration": 5, "velocity": 100}, {"time": 1995, "pitch": 76, "duration": 4, "velocity": 91}, {"time": 2001, "pitch": 76, "duration": 4, "velocity": 89}, {"time": 2007, "pitch": 78, "duration": 2, "velocity": 78}, {"time": 2010, "pitch": 73, "duration": 11, "velocity": 95}, {"time": 2034, "pitch": 73, "duration": 1, "velocity": 88}, {"time": 2037, "pitch": 73, "duration": 2, "velocity": 83}, {"time": 2040, "pitch": 71, "duration": 1, "velocity": 84}, {"time": 2043, "pitch": 71, "duration": 12, "velocity": 86}, {"time": 2058, "pitch": 73, "duration": 1, "velocity": 82}, {"time": 2061, "pitch": 73, "duration": 5, "velocity": 82}, {"time": 2067, "pitch": 71, "duration": 1, "velocity": 78}, {"time": 2070, "pitch": 71, "duration": 7, "velocity": 83}, {"time": 2079, "pitch": 69, "duration": 5, "velocity": 89}, {"time": 2085, "pitch": 76, "duration": 5, "velocity": 85}, {"time": 2091, "pitch": 73, "duration": 19, "velocity": 95}, {"time": 2121, "pitch": 69, "duration": 3, "velocity": 98}, {"time": 2124, "pitch": 71, "duration": 2, "velocity": 79}, {"time": 2127, "pitch": 73, "duration": 2, "velocity": 88}, {"time": 2130, "pitch": 76, "duration": 2, "velocity": 88}, {"time": 2133, "pitch": 78, "duration": 5, "velocity": 100}, {"time": 2139, "pitch": 76, "duration": 2, "velocity": 91}, {"time": 2142, "pitch": 78, "duration": 8, "velocity": 88}, {"time": 2151, "pitch": 78, "duration": 2, "velocity": 100}, {"time": 2154, "pitch": 76, "duration": 2, "velocity": 84}, {"time": 2157, "pitch": 78, "duration": 5, "velocity": 91}, {"time": 2163, "pitch": 76, "duration": 4, "velocity": 91}, {"time": 2169, "pitch": 78, "duration": 4, "velocity": 81}, {"time": 2175, "pitch": 81, "duration": 4, "velocity": 84}, {"time": 2181, "pitch": 78, "duration": 4, "velocity": 82}, {"time": 2187, "pitch": 76, "duration": 1, "velocity": 91}, {"time": 2190, "pitch": 76, "duration": 9, "velocity": 89}, {"time": 2199, "pitch": 78, "duration": 5, "velocity": 79}, {"time": 2202, "pitch": 73, "duration": 8, "velocity": 104}, {"time": 2226, "pitch": 73, "duration": 1, "velocity": 83}, {"time": 2229, "pitch": 73, "duration": 2, "velocity": 91}, {"time": 2232, "pitch": 71, "duration": 1, "velocity": 82}, {"time": 2235, "pitch": 71, "duration": 12, "velocity": 83}, {"time": 2250, "pitch": 73, "duration": 1, "velocity": 81}, {"time": 2253, "pitch": 73, "duration": 4, "velocity": 88}, {"time": 2259, "pitch": 71, "duration": 1, "velocity": 82}, {"time": 2262, "pitch": 71, "duration": 8, "velocity": 84}, {"time": 2271, "pitch": 69, "duration": 5, "velocity": 86}, {"time": 2277, "pitch": 76, "duration": 30, "velocity": 94}, {"time": 2313, "pitch": 69, "duration": 3, "velocity": 98}, {"time": 2316, "pitch": 71, "duration": 2, "velocity": 82}, {"time": 2319, "pitch": 73, "duration": 2, "velocity": 91}, {"time": 2322, "pitch": 76, "duration": 3, "velocity": 86}, {"time": 2325, "pitch": 78, "duration": 5, "velocity": 100}, {"time": 2331, "pitch": 76, "duration": 2, "velocity": 84}, {"time": 2334, "pitch": 78, "duration": 6, "velocity": 104}, {"time": 2343, "pitch": 78, "duration": 2, "velocity": 82}, {"time": 2346, "pitch": 76, "duration": 3, "velocity": 84}, {"time": 2349, "pitch": 78, "duration": 5, "velocity": 91}, {"time": 2355, "pitch": 76, "duration": 4, "velocity": 88}, {"time": 2361, "pitch": 78, "duration": 4, "velocity": 104}, {"time": 2367, "pitch": 81, "duration": 1, "velocity": 89}, {"time": 2370, "pitch": 81, "duration": 2, "velocity": 91}, {"time": 2373, "pitch": 78, "duration": 5, "velocity": 100}, {"time": 2379, "pitch": 76, "duration": 4, "velocity": 91}, {"time": 2385, "pitch": 76, "duration": 4, "velocity": 89}, {"time": 2391, "pitch": 78, "duration": 2, "velocity": 78}, {"time": 2394, "pitch": 73, "duration": 11, "velocity": 95}, {"time": 2418, "pitch": 73, "duration": 1, "velocity": 88}, {"time": 2421, "pitch": 73, "duration": 2, "velocity": 83}, {"time": 2424, "pitch": 71, "duration": 1, "velocity": 84}, {"time": 2427, "pitch": 71, "duration": 12, "velocity": 86}, {"time": 2442, "pitch": 73, "duration": 1, "velocity": 82}, {"time": 2445, "pitch": 73, "duration": 5, "velocity": 82}, {"time": 2451, "pitch": 71, "duration": 1, "velocity": 78}, {"time": 2454, "pitch": 71, "duration": 7, "velocity": 83}, {"time": 2463, "pitch": 69, "duration": 5, "velocity": 89}, {"time": 2469, "pitch": 76, "duration": 5, "velocity": 85}, {"time": 2475, "pitch": 73, "duration": 19, "velocity": 95}, {"time": 2505, "pitch": 69, "duration": 3, "velocity": 98}, {"time": 2508, "pitch": 71, "duration": 2, "velocity": 79}, {"time": 2511, "pitch": 73, "duration": 2, "velocity": 88}, {"time": 2514, "pitch": 76, "duration": 2, "velocity": 88}, {"time": 2517, "pitch": 78, "duration": 5, "velocity": 100}, {"time": 2523, "pitch": 76, "duration": 2, "velocity": 91}, {"time": 2526, "pitch": 78, "duration": 8, "velocity": 88}, {"time": 2535, "pitch": 78, "duration": 2, "velocity": 100}, {"time": 2538, "pitch": 76, "duration": 2, "velocity": 84}, {"time": 2541, "pitch": 78, "duration": 5, "velocity": 91}, {"time": 2547, "pitch": 76, "duration": 4, "velocity": 91}, {"time": 2553, "pitch": 78, "duration": 4, "velocity": 81}, {"time": 2559, "pitch": 81, "duration": 4, "velocity": 84}, {"time": 2565, "pitch": 78, "duration": 4, "velocity": 82}, {"time": 2571, "pitch": 76, "duration": 1, "velocity": 91}, {"time": 2574, "pitch": 76, "duration": 9, "velocity": 89}, {"time": 2583, "pitch": 78, "duration": 5, "velocity": 79}, {"time": 2586, "pitch": 73, "duration": 8, "velocity": 104}, {"time": 2610, "pitch": 73, "duration": 1, "velocity": 83}, {"time": 2613, "pitch": 73, "duration": 2, "velocity": 91}, {"time": 2616, "pitch": 71, "duration": 1, "velocity": 82}, {"time": 2619, "pitch": 71, "duration": 12, "velocity": 83}, {"time": 2634, "pitch": 73, "duration": 1, "velocity": 81}, {"time": 2637, "pitch": 73, "duration": 4, "velocity": 88}, {"time": 2643, "pitch": 71, "duration": 1, "velocity": 82}, {"time": 2646, "pitch": 71, "duration": 8, "velocity": 84}, {"time": 2655, "pitch": 69, "duration": 5, "velocity": 86}, {"time": 2661, "pitch": 76, "duration": 30, "velocity": 94}, {"time": 2715, "pitch": 73, "duration": 1, "velocity": 75}, {"time": 2718, "pitch": 73, "duration": 1, "velocity": 83}, {"time": 2721, "pitch": 73, "duration": 5, "velocity": 84}, {"time": 2730, "pitch": 73, "duration": 1, "velocity": 82}, {"time": 2733, "pitch": 73, "duration": 5, "velocity": 84}, {"time": 2739, "pitch": 71, "duration": 5, "velocity": 80}, {"time": 2751, "pitch": 71, "duration": 1, "velocity": 80}, {"time": 2754, "pitch": 69, "duration": 2, "velocity": 80}, {"time": 2757, "pitch": 71, "duration": 3, "velocity": 83}, {"time": 2763, "pitch": 71, "duration": 1, "velocity": 79}, {"time": 2766, "pitch": 69, "duration": 1, "velocity": 80}, {"time": 2769, "pitch": 71, "duration": 5, "velocity": 81}, {"time": 2775, "pitch": 73, "duration": 2, "velocity": 79}, {"time": 2781, "pitch": 66, "duration": 9, "velocity": 81}, {"time": 2799, "pitch": 66, "duration": 2, "velocity": 75}, {"time": 2802, "pitch": 69, "duration": 3, "velocity": 78}, {"time": 2805, "pitch": 71, "duration": 3, "velocity": 81}, {"time": 2811, "pitch": 73, "duration": 3, "velocity": 80}, {"time": 2817, "pitch": 66, "duration": 3, "velocity": 81}, {"time": 2823, "pitch": 69, "duration": 1, "velocity": 83}, {"time": 2826, "pitch": 71, "duration": 6, "velocity": 84}, {"time": 2832, "pitch": 73, "duration": 3, "velocity": 81}, {"time": 2841, "pitch": 73, "duration": 2, "velocity": 104}, {"time": 2844, "pitch": 76, "duration": 2, "velocity": 80}, {"time": 2847, "pitch": 71, "duration": 4, "velocity": 84}, {"time": 2853, "pitch": 73, "duration": 16, "velocity": 100}, {"time": 2907, "pitch": 73, "duration": 1, "velocity": 80}, {"time": 2910, "pitch": 73, "duration": 1, "velocity": 88}, {"time": 2913, "pitch": 73, "duration": 6, "velocity": 91}, {"time": 2922, "pitch": 73, "duration": 1, "velocity": 88}, {"time": 2925, "pitch": 73, "duration": 5, "velocity": 96}, {"time": 2931, "pitch": 71, "duration": 7, "velocity": 89}, {"time": 2943, "pitch": 71, "duration": 2, "velocity": 80}, {"time": 2946, "pitch": 69, "duration": 2, "velocity": 83}, {"time": 2949, "pitch": 71, "duration": 3, "velocity": 80}, {"time": 2955, "pitch": 71, "duration": 1, "velocity": 77}, {"time": 2958, "pitch": 69, "duration": 2, "velocity": 75}, {"time": 2961, "pitch": 71, "duration": 5, "velocity": 84}, {"time": 2967, "pitch": 73, "duration": 2, "velocity": 75}, {"time": 2973, "pitch": 66, "duration": 14, "velocity": 69}, {"time": 2991, "pitch": 66, "duration": 1, "velocity": 75}, {"time": 2994, "pitch": 69, "duration": 3, "velocity": 89}, {"time": 2997, "pitch": 71, "duration": 5, "velocity": 77}, {"time": 3003, "pitch": 73, "duration": 3, "velocity": 80}, {"time": 3009, "pitch": 66, "duration": 3, "velocity": 79}, {"time": 3015, "pitch": 69, "duration": 2, "velocity": 84}, {"time": 3018, "pitch": 71, "duration": 5, "velocity": 73}, {"time": 3024, "pitch": 73, "duration": 6, "velocity": 80}, {"time": 3033, "pitch": 76, "duration": 2, "velocity": 88}, {"time": 3036, "pitch": 73, "duration": 2, "velocity": 75}, {"time": 3039, "pitch": 71, "duration": 5, "velocity": 77}, {"time": 3045, "pitch": 69, "duration": 16, "velocity": 85}, {"time": 3087, "pitch": 66, "duration": 1, "velocity": 75}, {"time": 3090, "pitch": 69, "duration": 3, "velocity": 89}, {"time": 3093, "pitch": 71, "duration": 5, "velocity": 77}, {"time": 3099, "pitch": 73, "duration": 3, "velocity": 80}, {"time": 3105, "pitch": 66, "duration": 3, "velocity": 79}, {"time": 3111, "pitch": 69, "duration": 2, "velocity": 84}, {"time": 3114, "pitch": 71, "duration": 5, "velocity": 73}, {"time": 3120, "pitch": 73, "duration": 17, "velocity": 80}, {"time": 3153, "pitch": 76, "duration": 2, "velocity": 88}, {"time": 3156, "pitch": 73, "duration": 2, "velocity": 75}, {"time": 3159, "pitch": 71, "duration": 5, "velocity": 77}, {"time": 3165, "pitch": 69, "duration": 16, "velocity": 85}]}, {"program": 0, "is_drum": false, "name": "PIANO", "notes": [{"time": 21, "pitch": 45, "duration": 18, "velocity": 59}, {"time": 21, "pitch": 57, "duration": 13, "velocity": 46}, {"time": 21, "pitch": 61, "duration": 8, "velocity": 44}, {"time": 21, "pitch": 64, "duration": 10, "velocity": 39}, {"time": 27, "pitch": 52, "duration": 11, "velocity": 40}, {"time": 33, "pitch": 61, "duration": 17, "velocity": 36}, {"time": 33, "pitch": 64, "duration": 17, "velocity": 52}, {"time": 39, "pitch": 57, "duration": 7, "velocity": 35}, {"time": 45, "pitch": 44, "duration": 20, "velocity": 46}, {"time": 51, "pitch": 56, "duration": 13, "velocity": 53}, {"time": 57, "pitch": 59, "duration": 13, "velocity": 49}, {"time": 57, "pitch": 64, "duration": 13, "velocity": 53}, {"time": 69, "pitch": 38, "duration": 41, "velocity": 38}, {"time": 75, "pitch": 45, "duration": 36, "velocity": 36}, {"time": 81, "pitch": 50, "duration": 4, "velocity": 34}, {"time": 81, "pitch": 57, "duration": 26, "velocity": 32}, {"time": 81, "pitch": 62, "duration": 19, "velocity": 52}, {"time": 87, "pitch": 50, "duration": 8, "velocity": 52}, {"time": 93, "pitch": 66, "duration": 25, "velocity": 63}, {"time": 99, "pitch": 50, "duration": 6, "velocity": 35}, {"time": 105, "pitch": 62, "duration": 11, "velocity": 63}, {"time": 108, "pitch": 50, "duration": 3, "velocity": 44}, {"time": 111, "pitch": 61, "duration": 6, "velocity": 56}, {"time": 117, "pitch": 47, "duration": 15, "velocity": 62}, {"time": 123, "pitch": 54, "duration": 8, "velocity": 32}, {"time": 129, "pitch": 62, "duration": 15, "velocity": 53}, {"time": 129, "pitch": 66, "duration": 9, "velocity": 45}, {"time": 135, "pitch": 59, "duration": 18, "velocity": 48}, {"time": 141, "pitch": 40, "duration": 16, "velocity": 62}, {"time": 147, "pitch": 47, "duration": 11, "velocity": 42}, {"time": 153, "pitch": 52, "duration": 9, "velocity": 35}, {"time": 153, "pitch": 64, "duration": 11, "velocity": 59}, {"time": 159, "pitch": 59, "duration": 7, "velocity": 48}, {"time": 165, "pitch": 45, "duration": 45, "velocity": 63}, {"time": 171, "pitch": 52, "duration": 42, "velocity": 45}, {"time": 177, "pitch": 59, "duration": 12, "velocity": 58}, {"time": 183, "pitch": 57, "duration": 20, "velocity": 36}, {"time": 189, "pitch": 61, "duration": 24, "velocity": 35}, {"time": 189, "pitch": 64, "duration": 23, "velocity": 30}, {"time": 213, "pitch": 45, "duration": 18, "velocity": 58}, {"time": 219, "pitch": 52, "duration": 12, "velocity": 43}, {"time": 225, "pitch": 57, "duration": 6, "velocity": 44}, {"time": 225, "pitch": 61, "duration": 16, "velocity": 54}, {"time": 231, "pitch": 59, "duration": 6, "velocity": 47}, {"time": 237, "pitch": 44, "duration": 20, "velocity": 50}, {"time": 243, "pitch": 56, "duration": 11, "velocity": 37}, {"time": 249, "pitch": 59, "duration": 10, "velocity": 47}, {"time": 249, "pitch": 64, "duration": 10, "velocity": 58}, {"time": 261, "pitch": 38, "duration": 38, "velocity": 55}, {"time": 267, "pitch": 45, "duration": 32, "velocity": 35}, {"time": 273, "pitch": 50, "duration": 15, "velocity": 51}, {"time": 273, "pitch": 57, "duration": 3, "velocity": 26}, {"time": 273, "pitch": 62, "duration": 7, "velocity": 58}, {"time": 279, "pitch": 57, "duration": 7, "velocity": 37}, {"time": 285, "pitch": 62, "duration": 7, "velocity": 55}, {"time": 285, "pitch": 66, "duration": 25, "velocity": 33}, {"time": 291, "pitch": 50, "duration": 7, "velocity": 33}, {"time": 297, "pitch": 62, "duration": 13, "velocity": 76}, {"time": 303, "pitch": 61, "duration": 7, "velocity": 42}, {"time": 309, "pitch": 47, "duration": 16, "velocity": 56}, {"time": 315, "pitch": 54, "duration": 8, "velocity": 56}, {"time": 321, "pitch": 62, "duration": 13, "velocity": 44}, {"time": 321, "pitch": 66, "duration": 10, "velocity": 63}, {"time": 327, "pitch": 59, "duration": 7, "velocity": 37}, {"time": 333, "pitch": 40, "duration": 17, "velocity": 58}, {"time": 339, "pitch": 47, "duration": 11, "velocity": 27}, {"time": 345, "pitch": 52, "duration": 8, "velocity": 39}, {"time": 345, "pitch": 64, "duration": 13, "velocity": 55}, {"time": 345, "pitch": 68, "duration": 12, "velocity": 44}, {"time": 351, "pitch": 59, "duration": 7, "velocity": 46}, {"time": 357, "pitch": 45, "duration": 23, "velocity": 64}, {"time": 363, "pitch": 52, "duration": 16, "velocity": 37}, {"time": 369, "pitch": 57, "duration": 9, "velocity": 38}, {"time": 369, "pitch": 61, "duration": 7, "velocity": 52}, {"time": 369, "pitch": 64, "duration": 18, "velocity": 50}, {"time": 375, "pitch": 59, "duration": 12, "velocity": 38}, {"time": 381, "pitch": 45, "duration": 22, "velocity": 69}, {"time": 387, "pitch": 52, "duration": 7, "velocity": 42}, {"time": 393, "pitch": 61, "duration": 7, "velocity": 93}, {"time": 393, "pitch": 64, "duration": 13, "velocity": 82}, {"time": 396, "pitch": 52, "duration": 9, "velocity": 42}, {"time": 399, "pitch": 59, "duration": 6, "velocity": 65}, {"time": 402, "pitch": 61, "duration": 4, "velocity": 45}, {"time": 405, "pitch": 45, "duration": 20, "velocity": 63}, {"time": 411, "pitch": 52, "duration": 15, "velocity": 39}, {"time": 417, "pitch": 57, "duration": 7, "velocity": 62}, {"time": 417, "pitch": 64, "duration": 17, "velocity": 66}, {"time": 423, "pitch": 61, "duration": 7, "velocity": 41}, {"time": 429, "pitch": 44, "duration": 17, "velocity": 77}, {"time": 435, "pitch": 56, "duration": 8, "velocity": 41}, {"time": 441, "pitch": 64, "duration": 13, "velocity": 68}, {"time": 447, "pitch": 61, "duration": 7, "velocity": 53}, {"time": 453, "pitch": 38, "duration": 22, "velocity": 48}, {"time": 459, "pitch": 45, "duration": 18, "velocity": 36}, {"time": 465, "pitch": 50, "duration": 12, "velocity": 36}, {"time": 465, "pitch": 62, "duration": 12, "velocity": 57}, {"time": 471, "pitch": 57, "duration": 6, "velocity": 47}, {"time": 477, "pitch": 38, "duration": 9, "velocity": 63}, {"time": 483, "pitch": 45, "duration": 4, "velocity": 38}, {"time": 489, "pitch": 49, "duration": 11, "velocity": 90}, {"time": 489, "pitch": 61, "duration": 13, "velocity": 49}, {"time": 489, "pitch": 64, "duration": 12, "velocity": 49}, {"time": 501, "pitch": 47, "duration": 16, "velocity": 62}, {"time": 507, "pitch": 54, "duration": 9, "velocity": 37}, {"time": 513, "pitch": 62, "duration": 14, "velocity": 59}, {"time": 513, "pitch": 66, "duration": 9, "velocity": 55}, {"time": 519, "pitch": 59, "duration": 8, "velocity": 52}, {"time": 525, "pitch": 40, "duration": 18, "velocity": 63}, {"time": 531, "pitch": 47, "duration": 12, "velocity": 38}, {"time": 537, "pitch": 52, "duration": 12, "velocity": 44}, {"time": 537, "pitch": 64, "duration": 14, "velocity": 66}, {"time": 537, "pitch": 68, "duration": 13, "velocity": 56}, {"time": 543, "pitch": 59, "duration": 8, "velocity": 48}, {"time": 549, "pitch": 45, "duration": 22, "velocity": 65}, {"time": 555, "pitch": 52, "duration": 18, "velocity": 53}, {"time": 561, "pitch": 64, "duration": 18, "velocity": 83}, {"time": 564, "pitch": 57, "duration": 3, "velocity": 46}, {"time": 567, "pitch": 59, "duration": 6, "velocity": 65}, {"time": 570, "pitch": 61, "duration": 4, "velocity": 54}, {"time": 573, "pitch": 45, "duration": 18, "velocity": 77}, {"time": 576, "pitch": 52, "duration": 10, "velocity": 65}, {"time": 579, "pitch": 57, "duration": 6, "velocity": 79}, {"time": 582, "pitch": 59, "duration": 4, "velocity": 85}, {"time": 585, "pitch": 64, "duration": 11, "velocity": 100}, {"time": 588, "pitch": 52, "duration": 3, "velocity": 58}, {"time": 591, "pitch": 61, "duration": 5, "velocity": 86}, {"time": 594, "pitch": 57, "duration": 4, "velocity": 61}, {"time": 597, "pitch": 38, "duration": 22, "velocity": 82}, {"time": 600, "pitch": 45, "duration": 21, "velocity": 47}, {"time": 603, "pitch": 50, "duration": 6, "velocity": 67}, {"time": 606, "pitch": 57, "duration": 6, "velocity": 56}, {"time": 609, "pitch": 66, "duration": 19, "velocity": 112}, {"time": 612, "pitch": 50, "duration": 9, "velocity": 63}, {"time": 615, "pitch": 62, "duration": 13, "velocity": 52}, {"time": 618, "pitch": 57, "duration": 10, "velocity": 70}, {"time": 621, "pitch": 38, "duration": 16, "velocity": 60}, {"time": 624, "pitch": 45, "duration": 14, "velocity": 50}, {"time": 627, "pitch": 50, "duration": 6, "velocity": 72}, {"time": 630, "pitch": 57, "duration": 7, "velocity": 76}, {"time": 633, "pitch": 66, "duration": 12, "velocity": 100}, {"time": 636, "pitch": 50, "duration": 1, "velocity": 67}, {"time": 639, "pitch": 62, "duration": 6, "velocity": 73}, {"time": 642, "pitch": 57, "duration": 3, "velocity": 69}, {"time": 645, "pitch": 37, "duration": 15, "velocity": 63}, {"time": 648, "pitch": 44, "duration": 12, "velocity": 52}, {"time": 651, "pitch": 49, "duration": 5, "velocity": 71}, {"time": 654, "pitch": 61, "duration": 6, "velocity": 81}, {"time": 657, "pitch": 68, "duration": 11, "velocity": 93}, {"time": 660, "pitch": 49, "duration": 4, "velocity": 77}, {"time": 663, "pitch": 64, "duration": 2, "velocity": 38}, {"time": 666, "pitch": 61, "duration": 3, "velocity": 77}, {"time": 669, "pitch": 42, "duration": 18, "velocity": 66}, {"time": 672, "pitch": 49, "duration": 14, "velocity": 58}, {"time": 675, "pitch": 54, "duration": 6, "velocity": 69}, {"time": 678, "pitch": 57, "duration": 6, "velocity": 75}, {"time": 681, "pitch": 66, "duration": 13, "velocity": 95}, {"time": 684, "pitch": 54, "duration": 4, "velocity": 76}, {"time": 687, "pitch": 61, "duration": 6, "velocity": 85}, {"time": 690, "pitch": 57, "duration": 3, "velocity": 68}, {"time": 693, "pitch": 47, "duration": 17, "velocity": 59}, {"time": 696, "pitch": 54, "duration": 10, "velocity": 65}, {"time": 699, "pitch": 59, "duration": 7, "velocity": 61}, {"time": 702, "pitch": 62, "duration": 3, "velocity": 56}, {"time": 705, "pitch": 66, "duration": 9, "velocity": 95}, {"time": 708, "pitch": 54, "duration": 2, "velocity": 61}, {"time": 711, "pitch": 62, "duration": 5, "velocity": 70}, {"time": 714, "pitch": 59, "duration": 6, "velocity": 66}, {"time": 717, "pitch": 40, "duration": 18, "velocity": 69}, {"time": 720, "pitch": 47, "duration": 15, "velocity": 43}, {"time": 723, "pitch": 52, "duration": 6, "velocity": 72}, {"time": 726, "pitch": 59, "duration": 7, "velocity": 74}, {"time": 729, "pitch": 68, "duration": 12, "velocity": 100}, {"time": 732, "pitch": 52, "duration": 8, "velocity": 68}, {"time": 735, "pitch": 64, "duration": 5, "velocity": 69}, {"time": 738, "pitch": 59, "duration": 3, "velocity": 82}, {"time": 741, "pitch": 45, "duration": 22, "velocity": 64}, {"time": 744, "pitch": 52, "duration": 10, "velocity": 53}, {"time": 747, "pitch": 57, "duration": 7, "velocity": 73}, {"time": 750, "pitch": 59, "duration": 4, "velocity": 67}, {"time": 756, "pitch": 52, "duration": 9, "velocity": 60}, {"time": 759, "pitch": 59, "duration": 5, "velocity": 66}, {"time": 762, "pitch": 61, "duration": 10, "velocity": 92}, {"time": 765, "pitch": 45, "duration": 17, "velocity": 71}, {"time": 768, "pitch": 52, "duration": 10, "velocity": 89}, {"time": 771, "pitch": 57, "duration": 7, "velocity": 86}, {"time": 774, "pitch": 59, "duration": 5, "velocity": 71}, {"time": 777, "pitch": 61, "duration": 7, "velocity": 1}, {"time": 780, "pitch": 52, "duration": 2, "velocity": 81}, {"time": 783, "pitch": 59, "duration": 5, "velocity": 81}, {"time": 786, "pitch": 61, "duration": 3, "velocity": 72}, {"time": 789, "pitch": 38, "duration": 21, "velocity": 70}, {"time": 792, "pitch": 45, "duration": 21, "velocity": 63}, {"time": 795, "pitch": 50, "duration": 6, "velocity": 78}, {"time": 798, "pitch": 57, "duration": 4, "velocity": 76}, {"time": 801, "pitch": 62, "duration": 7, "velocity": 69}, {"time": 801, "pitch": 66, "duration": 19, "velocity": 86}, {"time": 804, "pitch": 50, "duration": 2, "velocity": 77}, {"time": 807, "pitch": 57, "duration": 13, "velocity": 66}, {"time": 810, "pitch": 62, "duration": 10, "velocity": 67}, {"time": 813, "pitch": 38, "duration": 15, "velocity": 63}, {"time": 816, "pitch": 45, "duration": 13, "velocity": 53}, {"time": 819, "pitch": 50, "duration": 6, "velocity": 66}, {"time": 822, "pitch": 57, "duration": 4, "velocity": 64}, {"time": 825, "pitch": 62, "duration": 7, "velocity": 68}, {"time": 825, "pitch": 66, "duration": 11, "velocity": 76}, {"time": 828, "pitch": 50, "duration": 1, "velocity": 48}, {"time": 831, "pitch": 57, "duration": 7, "velocity": 70}, {"time": 834, "pitch": 62, "duration": 3, "velocity": 66}, {"time": 837, "pitch": 37, "duration": 17, "velocity": 73}, {"time": 840, "pitch": 44, "duration": 14, "velocity": 58}, {"time": 843, "pitch": 49, "duration": 6, "velocity": 64}, {"time": 846, "pitch": 56, "duration": 4, "velocity": 53}, {"time": 849, "pitch": 61, "duration": 6, "velocity": 47}, {"time": 849, "pitch": 64, "duration": 11, "velocity": 66}, {"time": 852, "pitch": 49, "duration": 3, "velocity": 53}, {"time": 855, "pitch": 56, "duration": 5, "velocity": 75}, {"time": 858, "pitch": 61, "duration": 2, "velocity": 69}, {"time": 861, "pitch": 42, "duration": 17, "velocity": 63}, {"time": 864, "pitch": 54, "duration": 17, "velocity": 51}, {"time": 867, "pitch": 57, "duration": 8, "velocity": 67}, {"time": 870, "pitch": 61, "duration": 3, "velocity": 67}, {"time": 873, "pitch": 66, "duration": 13, "velocity": 74}, {"time": 876, "pitch": 61, "duration": 4, "velocity": 69}, {"time": 879, "pitch": 57, "duration": 6, "velocity": 65}, {"time": 882, "pitch": 61, "duration": 3, "velocity": 51}, {"time": 885, "pitch": 47, "duration": 21, "velocity": 55}, {"time": 888, "pitch": 54, "duration": 10, "velocity": 42}, {"time": 891, "pitch": 59, "duration": 8, "velocity": 51}, {"time": 894, "pitch": 62, "duration": 3, "velocity": 62}, {"time": 897, "pitch": 66, "duration": 10, "velocity": 88}, {"time": 900, "pitch": 54, "duration": 8, "velocity": 51}, {"time": 903, "pitch": 62, "duration": 4, "velocity": 54}, {"time": 906, "pitch": 59, "duration": 2, "velocity": 41}, {"time": 909, "pitch": 51, "duration": 17, "velocity": 50}, {"time": 912, "pitch": 59, "duration": 4, "velocity": 59}, {"time": 915, "pitch": 63, "duration": 4, "velocity": 76}, {"time": 918, "pitch": 59, "duration": 5, "velocity": 46}, {"time": 921, "pitch": 66, "duration": 11, "velocity": 82}, {"time": 924, "pitch": 63, "duration": 3, "velocity": 77}, {"time": 927, "pitch": 59, "duration": 8, "velocity": 59}, {"time": 930, "pitch": 63, "duration": 2, "velocity": 61}, {"time": 933, "pitch": 40, "duration": 21, "velocity": 61}, {"time": 936, "pitch": 47, "duration": 21, "velocity": 42}, {"time": 939, "pitch": 52, "duration": 6, "velocity": 62}, {"time": 942, "pitch": 59, "duration": 5, "velocity": 72}, {"time": 945, "pitch": 68, "duration": 23, "velocity": 76}, {"time": 948, "pitch": 52, "duration": 23, "velocity": 72}, {"time": 951, "pitch": 64, "duration": 17, "velocity": 63}, {"time": 954, "pitch": 59, "duration": 14, "velocity": 55}, {"time": 957, "pitch": 40, "duration": 25, "velocity": 68}, {"time": 963, "pitch": 47, "duration": 17, "velocity": 38}, {"time": 969, "pitch": 64, "duration": 12, "velocity": 62}, {"time": 969, "pitch": 68, "duration": 12, "velocity": 62}, {"time": 975, "pitch": 59, "duration": 6, "velocity": 52}, {"time": 981, "pitch": 45, "duration": 18, "velocity": 58}, {"time": 987, "pitch": 52, "duration": 12, "velocity": 43}, {"time": 993, "pitch": 57, "duration": 6, "velocity": 44}, {"time": 993, "pitch": 61, "duration": 16, "velocity": 54}, {"time": 999, "pitch": 59, "duration": 6, "velocity": 47}, {"time": 1005, "pitch": 44, "duration": 20, "velocity": 50}, {"time": 1011, "pitch": 56, "duration": 11, "velocity": 37}, {"time": 1017, "pitch": 59, "duration": 10, "velocity": 47}, {"time": 1017, "pitch": 64, "duration": 10, "velocity": 58}, {"time": 1029, "pitch": 38, "duration": 38, "velocity": 55}, {"time": 1035, "pitch": 45, "duration": 32, "velocity": 35}, {"time": 1041, "pitch": 50, "duration": 15, "velocity": 51}, {"time": 1041, "pitch": 57, "duration": 3, "velocity": 26}, {"time": 1041, "pitch": 62, "duration": 7, "velocity": 58}, {"time": 1047, "pitch": 57, "duration": 7, "velocity": 37}, {"time": 1053, "pitch": 62, "duration": 7, "velocity": 55}, {"time": 1053, "pitch": 66, "duration": 25, "velocity": 33}, {"time": 1059, "pitch": 50, "duration": 7, "velocity": 33}, {"time": 1065, "pitch": 62, "duration": 13, "velocity": 76}, {"time": 1071, "pitch": 61, "duration": 7, "velocity": 42}, {"time": 1077, "pitch": 47, "duration": 16, "velocity": 56}, {"time": 1083, "pitch": 54, "duration": 8, "velocity": 56}, {"time": 1089, "pitch": 62, "duration": 13, "velocity": 44}, {"time": 1089, "pitch": 66, "duration": 10, "velocity": 63}, {"time": 1095, "pitch": 59, "duration": 7, "velocity": 37}, {"time": 1101, "pitch": 40, "duration": 17, "velocity": 58}, {"time": 1107, "pitch": 47, "duration": 11, "velocity": 27}, {"time": 1113, "pitch": 52, "duration": 8, "velocity": 39}, {"time": 1113, "pitch": 64, "duration": 13, "velocity": 55}, {"time": 1113, "pitch": 68, "duration": 12, "velocity": 44}, {"time": 1119, "pitch": 59, "duration": 7, "velocity": 46}, {"time": 1125, "pitch": 45, "duration": 23, "velocity": 64}, {"time": 1131, "pitch": 52, "duration": 16, "velocity": 37}, {"time": 1137, "pitch": 57, "duration": 9, "velocity": 38}, {"time": 1137, "pitch": 61, "duration": 7, "velocity": 52}, {"time": 1137, "pitch": 64, "duration": 18, "velocity": 50}, {"time": 1143, "pitch": 59, "duration": 12, "velocity": 38}, {"time": 1149, "pitch": 45, "duration": 22, "velocity": 69}, {"time": 1155, "pitch": 52, "duration": 7, "velocity": 42}, {"time": 1161, "pitch": 61, "duration": 7, "velocity": 93}, {"time": 1161, "pitch": 64, "duration": 13, "velocity": 82}, {"time": 1164, "pitch": 52, "duration": 9, "velocity": 42}, {"time": 1167, "pitch": 59, "duration": 6, "velocity": 65}, {"time": 1170, "pitch": 61, "duration": 4, "velocity": 45}, {"time": 1173, "pitch": 45, "duration": 20, "velocity": 63}, {"time": 1179, "pitch": 52, "duration": 15, "velocity": 39}, {"time": 1185, "pitch": 57, "duration": 7, "velocity": 62}, {"time": 1185, "pitch": 64, "duration": 17, "velocity": 66}, {"time": 1191, "pitch": 61, "duration": 7, "velocity": 41}, {"time": 1197, "pitch": 44, "duration": 17, "velocity": 77}, {"time": 1203, "pitch": 56, "duration": 8, "velocity": 41}, {"time": 1209, "pitch": 64, "duration": 13, "velocity": 68}, {"time": 1215, "pitch": 61, "duration": 7, "velocity": 53}, {"time": 1221, "pitch": 38, "duration": 22, "velocity": 48}, {"time": 1227, "pitch": 45, "duration": 18, "velocity": 36}, {"time": 1233, "pitch": 50, "duration": 12, "velocity": 36}, {"time": 1233, "pitch": 62, "duration": 12, "velocity": 57}, {"time": 1239, "pitch": 57, "duration": 6, "velocity": 47}, {"time": 1245, "pitch": 38, "duration": 9, "velocity": 63}, {"time": 1251, "pitch": 45, "duration": 4, "velocity": 38}, {"time": 1257, "pitch": 49, "duration": 11, "velocity": 90}, {"time": 1257, "pitch": 61, "duration": 13, "velocity": 49}, {"time": 1257, "pitch": 64, "duration": 12, "velocity": 49}, {"time": 1269, "pitch": 47, "duration": 16, "velocity": 62}, {"time": 1275, "pitch": 54, "duration": 9, "velocity": 37}, {"time": 1281, "pitch": 62, "duration": 14, "velocity": 59}, {"time": 1281, "pitch": 66, "duration": 9, "velocity": 55}, {"time": 1287, "pitch": 59, "duration": 8, "velocity": 52}, {"time": 1293, "pitch": 40, "duration": 18, "velocity": 63}, {"time": 1299, "pitch": 47, "duration": 12, "velocity": 38}, {"time": 1305, "pitch": 52, "duration": 12, "velocity": 44}, {"time": 1305, "pitch": 64, "duration": 14, "velocity": 66}, {"time": 1305, "pitch": 68, "duration": 13, "velocity": 56}, {"time": 1311, "pitch": 59, "duration": 8, "velocity": 48}, {"time": 1317, "pitch": 45, "duration": 22, "velocity": 65}, {"time": 1323, "pitch": 52, "duration": 18, "velocity": 53}, {"time": 1329, "pitch": 64, "duration": 12, "velocity": 83}, {"time": 1332, "pitch": 57, "duration": 3, "velocity": 46}, {"time": 1335, "pitch": 59, "duration": 6, "velocity": 65}, {"time": 1338, "pitch": 61, "duration": 3, "velocity": 54}, {"time": 1341, "pitch": 45, "duration": 22, "velocity": 77}, {"time": 1347, "pitch": 52, "duration": 18, "velocity": 50}, {"time": 1353, "pitch": 64, "duration": 20, "velocity": 74}, {"time": 1365, "pitch": 45, "duration": 16, "velocity": 62}, {"time": 1371, "pitch": 52, "duration": 9, "velocity": 47}, {"time": 1377, "pitch": 61, "duration": 12, "velocity": 48}, {"time": 1377, "pitch": 64, "duration": 12, "velocity": 58}, {"time": 1389, "pitch": 44, "duration": 22, "velocity": 42}, {"time": 1395, "pitch": 56, "duration": 6, "velocity": 42}, {"time": 1401, "pitch": 61, "duration": 11, "velocity": 38}, {"time": 1401, "pitch": 64, "duration": 11, "velocity": 48}, {"time": 1413, "pitch": 38, "duration": 43, "velocity": 50}, {"time": 1413, "pitch": 57, "duration": 14, "velocity": 34}, {"time": 1413, "pitch": 61, "duration": 14, "velocity": 39}, {"time": 1413, "pitch": 62, "duration": 14, "velocity": 37}, {"time": 1413, "pitch": 66, "duration": 15, "velocity": 38}, {"time": 1419, "pitch": 45, "duration": 37, "velocity": 30}, {"time": 1425, "pitch": 50, "duration": 34, "velocity": 39}, {"time": 1431, "pitch": 57, "duration": 30, "velocity": 34}, {"time": 1431, "pitch": 61, "duration": 16, "velocity": 39}, {"time": 1431, "pitch": 62, "duration": 16, "velocity": 39}, {"time": 1431, "pitch": 66, "duration": 16, "velocity": 33}, {"time": 1449, "pitch": 66, "duration": 15, "velocity": 77}, {"time": 1452, "pitch": 62, "duration": 10, "velocity": 52}, {"time": 1455, "pitch": 61, "duration": 6, "velocity": 44}, {"time": 1461, "pitch": 47, "duration": 16, "velocity": 50}, {"time": 1467, "pitch": 54, "duration": 9, "velocity": 56}, {"time": 1473, "pitch": 66, "duration": 12, "velocity": 69}, {"time": 1479, "pitch": 62, "duration": 8, "velocity": 55}, {"time": 1485, "pitch": 40, "duration": 17, "velocity": 59}, {"time": 1491, "pitch": 47, "duration": 12, "velocity": 37}, {"time": 1497, "pitch": 52, "duration": 9, "velocity": 51}, {"time": 1497, "pitch": 64, "duration": 12, "velocity": 58}, {"time": 1497, "pitch": 68, "duration": 12, "velocity": 54}, {"time": 1503, "pitch": 59, "duration": 7, "velocity": 44}, {"time": 1509, "pitch": 45, "duration": 48, "velocity": 63}, {"time": 1515, "pitch": 52, "duration": 17, "velocity": 42}, {"time": 1521, "pitch": 61, "duration": 25, "velocity": 62}, {"time": 1527, "pitch": 59, "duration": 7, "velocity": 40}, {"time": 1533, "pitch": 52, "duration": 12, "velocity": 55}, {"time": 1533, "pitch": 64, "duration": 24, "velocity": 50}, {"time": 1545, "pitch": 59, "duration": 6, "velocity": 65}, {"time": 1548, "pitch": 52, "duration": 9, "velocity": 41}, {"time": 1551, "pitch": 61, "duration": 6, "velocity": 55}, {"time": 1554, "pitch": 57, "duration": 3, "velocity": 52}, {"time": 1557, "pitch": 45, "duration": 18, "velocity": 58}, {"time": 1563, "pitch": 52, "duration": 12, "velocity": 43}, {"time": 1569, "pitch": 57, "duration": 6, "velocity": 44}, {"time": 1569, "pitch": 61, "duration": 16, "velocity": 54}, {"time": 1575, "pitch": 59, "duration": 6, "velocity": 47}, {"time": 1581, "pitch": 44, "duration": 20, "velocity": 50}, {"time": 1587, "pitch": 56, "duration": 11, "velocity": 37}, {"time": 1593, "pitch": 59, "duration": 10, "velocity": 47}, {"time": 1593, "pitch": 64, "duration": 10, "velocity": 58}, {"time": 1605, "pitch": 38, "duration": 38, "velocity": 55}, {"time": 1611, "pitch": 45, "duration": 32, "velocity": 35}, {"time": 1617, "pitch": 50, "duration": 15, "velocity": 51}, {"time": 1617, "pitch": 57, "duration": 3, "velocity": 26}, {"time": 1617, "pitch": 62, "duration": 7, "velocity": 58}, {"time": 1623, "pitch": 57, "duration": 7, "velocity": 37}, {"time": 1629, "pitch": 62, "duration": 7, "velocity": 55}, {"time": 1629, "pitch": 66, "duration": 25, "velocity": 33}, {"time": 1635, "pitch": 50, "duration": 7, "velocity": 33}, {"time": 1641, "pitch": 62, "duration": 13, "velocity": 76}, {"time": 1647, "pitch": 61, "duration": 7, "velocity": 42}, {"time": 1653, "pitch": 47, "duration": 16, "velocity": 56}, {"time": 1659, "pitch": 54, "duration": 8, "velocity": 56}, {"time": 1665, "pitch": 62, "duration": 13, "velocity": 44}, {"time": 1665, "pitch": 66, "duration": 10, "velocity": 63}, {"time": 1671, "pitch": 59, "duration": 7, "velocity": 37}, {"time": 1677, "pitch": 40, "duration": 17, "velocity": 58}, {"time": 1683, "pitch": 47, "duration": 11, "velocity": 27}, {"time": 1689, "pitch": 52, "duration": 8, "velocity": 39}, {"time": 1689, "pitch": 64, "duration": 13, "velocity": 55}, {"time": 1689, "pitch": 68, "duration": 12, "velocity": 44}, {"time": 1695, "pitch": 59, "duration": 7, "velocity": 46}, {"time": 1701, "pitch": 45, "duration": 23, "velocity": 64}, {"time": 1707, "pitch": 52, "duration": 16, "velocity": 37}, {"time": 1713, "pitch": 57, "duration": 9, "velocity": 38}, {"time": 1713, "pitch": 61, "duration": 7, "velocity": 52}, {"time": 1713, "pitch": 64, "duration": 18, "velocity": 50}, {"time": 1719, "pitch": 59, "duration": 12, "velocity": 38}, {"time": 1725, "pitch": 45, "duration": 22, "velocity": 69}, {"time": 1731, "pitch": 52, "duration": 7, "velocity": 42}, {"time": 1737, "pitch": 61, "duration": 7, "velocity": 93}, {"time": 1737, "pitch": 64, "duration": 13, "velocity": 82}, {"time": 1740, "pitch": 52, "duration": 9, "velocity": 42}, {"time": 1743, "pitch": 59, "duration": 6, "velocity": 65}, {"time": 1746, "pitch": 61, "duration": 4, "velocity": 45}, {"time": 1749, "pitch": 45, "duration": 20, "velocity": 63}, {"time": 1755, "pitch": 52, "duration": 15, "velocity": 39}, {"time": 1761, "pitch": 57, "duration": 7, "velocity": 62}, {"time": 1761, "pitch": 64, "duration": 17, "velocity": 66}, {"time": 1767, "pitch": 61, "duration": 7, "velocity": 41}, {"time": 1773, "pitch": 44, "duration": 17, "velocity": 77}, {"time": 1779, "pitch": 56, "duration": 8, "velocity": 41}, {"time": 1785, "pitch": 64, "duration": 13, "velocity": 68}, {"time": 1791, "pitch": 61, "duration": 7, "velocity": 53}, {"time": 1797, "pitch": 38, "duration": 22, "velocity": 48}, {"time": 1803, "pitch": 45, "duration": 18, "velocity": 36}, {"time": 1809, "pitch": 50, "duration": 12, "velocity": 36}, {"time": 1809, "pitch": 62, "duration": 12, "velocity": 57}, {"time": 1815, "pitch": 57, "duration": 6, "velocity": 47}, {"time": 1821, "pitch": 38, "duration": 9, "velocity": 63}, {"time": 1827, "pitch": 45, "duration": 4, "velocity": 38}, {"time": 1833, "pitch": 49, "duration": 11, "velocity": 90}, {"time": 1833, "pitch": 61, "duration": 13, "velocity": 49}, {"time": 1833, "pitch": 64, "duration": 12, "velocity": 49}, {"time": 1845, "pitch": 47, "duration": 16, "velocity": 62}, {"time": 1851, "pitch": 54, "duration": 9, "velocity": 37}, {"time": 1857, "pitch": 62, "duration": 14, "velocity": 59}, {"time": 1857, "pitch": 66, "duration": 9, "velocity": 55}, {"time": 1863, "pitch": 59, "duration": 8, "velocity": 52}, {"time": 1869, "pitch": 40, "duration": 18, "velocity": 63}, {"time": 1875, "pitch": 47, "duration": 12, "velocity": 38}, {"time": 1881, "pitch": 52, "duration": 12, "velocity": 44}, {"time": 1881, "pitch": 64, "duration": 12, "velocity": 66}, {"time": 1881, "pitch": 68, "duration": 12, "velocity": 56}, {"time": 1887, "pitch": 59, "duration": 6, "velocity": 48}, {"time": 1893, "pitch": 45, "duration": 22, "velocity": 65}, {"time": 1899, "pitch": 52, "duration": 18, "velocity": 53}, {"time": 1905, "pitch": 64, "duration": 18, "velocity": 83}, {"time": 1908, "pitch": 57, "duration": 3, "velocity": 46}, {"time": 1911, "pitch": 59, "duration": 6, "velocity": 65}, {"time": 1914, "pitch": 61, "duration": 4, "velocity": 54}, {"time": 1917, "pitch": 45, "duration": 18, "velocity": 77}, {"time": 1920, "pitch": 52, "duration": 10, "velocity": 65}, {"time": 1923, "pitch": 57, "duration": 6, "velocity": 79}, {"time": 1926, "pitch": 59, "duration": 4, "velocity": 85}, {"time": 1929, "pitch": 64, "duration": 11, "velocity": 100}, {"time": 1932, "pitch": 52, "duration": 3, "velocity": 58}, {"time": 1935, "pitch": 61, "duration": 5, "velocity": 86}, {"time": 1938, "pitch": 57, "duration": 4, "velocity": 61}, {"time": 1941, "pitch": 38, "duration": 22, "velocity": 82}, {"time": 1944, "pitch": 45, "duration": 21, "velocity": 47}, {"time": 1947, "pitch": 50, "duration": 6, "velocity": 67}, {"time": 1950, "pitch": 57, "duration": 6, "velocity": 56}, {"time": 1953, "pitch": 66, "duration": 19, "velocity": 112}, {"time": 1956, "pitch": 50, "duration": 9, "velocity": 63}, {"time": 1959, "pitch": 62, "duration": 13, "velocity": 52}, {"time": 1962, "pitch": 57, "duration": 10, "velocity": 70}, {"time": 1965, "pitch": 38, "duration": 16, "velocity": 60}, {"time": 1968, "pitch": 45, "duration": 14, "velocity": 50}, {"time": 1971, "pitch": 50, "duration": 6, "velocity": 72}, {"time": 1974, "pitch": 57, "duration": 7, "velocity": 76}, {"time": 1977, "pitch": 66, "duration": 12, "velocity": 100}, {"time": 1980, "pitch": 50, "duration": 1, "velocity": 67}, {"time": 1983, "pitch": 62, "duration": 6, "velocity": 73}, {"time": 1986, "pitch": 57, "duration": 3, "velocity": 69}, {"time": 1989, "pitch": 37, "duration": 15, "velocity": 63}, {"time": 1992, "pitch": 44, "duration": 12, "velocity": 52}, {"time": 1995, "pitch": 49, "duration": 5, "velocity": 71}, {"time": 1998, "pitch": 61, "duration": 6, "velocity": 81}, {"time": 2001, "pitch": 68, "duration": 11, "velocity": 93}, {"time": 2004, "pitch": 49, "duration": 4, "velocity": 77}, {"time": 2007, "pitch": 64, "duration": 2, "velocity": 38}, {"time": 2010, "pitch": 61, "duration": 3, "velocity": 77}, {"time": 2013, "pitch": 42, "duration": 18, "velocity": 66}, {"time": 2016, "pitch": 49, "duration": 14, "velocity": 58}, {"time": 2019, "pitch": 54, "duration": 6, "velocity": 69}, {"time": 2022, "pitch": 57, "duration": 6, "velocity": 75}, {"time": 2025, "pitch": 66, "duration": 13, "velocity": 95}, {"time": 2028, "pitch": 54, "duration": 4, "velocity": 76}, {"time": 2031, "pitch": 61, "duration": 6, "velocity": 85}, {"time": 2034, "pitch": 57, "duration": 3, "velocity": 68}, {"time": 2037, "pitch": 47, "duration": 17, "velocity": 59}, {"time": 2040, "pitch": 54, "duration": 10, "velocity": 65}, {"time": 2043, "pitch": 59, "duration": 7, "velocity": 61}, {"time": 2046, "pitch": 62, "duration": 3, "velocity": 56}, {"time": 2049, "pitch": 66, "duration": 9, "velocity": 95}, {"time": 2052, "pitch": 54, "duration": 2, "velocity": 61}, {"time": 2055, "pitch": 62, "duration": 5, "velocity": 70}, {"time": 2058, "pitch": 59, "duration": 6, "velocity": 66}, {"time": 2061, "pitch": 40, "duration": 18, "velocity": 69}, {"time": 2064, "pitch": 47, "duration": 15, "velocity": 43}, {"time": 2067, "pitch": 52, "duration": 6, "velocity": 72}, {"time": 2070, "pitch": 59, "duration": 7, "velocity": 74}, {"time": 2073, "pitch": 68, "duration": 12, "velocity": 100}, {"time": 2076, "pitch": 52, "duration": 8, "velocity": 68}, {"time": 2079, "pitch": 64, "duration": 5, "velocity": 69}, {"time": 2082, "pitch": 59, "duration": 3, "velocity": 82}, {"time": 2085, "pitch": 45, "duration": 22, "velocity": 64}, {"time": 2088, "pitch": 52, "duration": 10, "velocity": 53}, {"time": 2091, "pitch": 57, "duration": 7, "velocity": 73}, {"time": 2094, "pitch": 59, "duration": 4, "velocity": 67}, {"time": 2097, "pitch": 64, "duration": 36, "velocity": 92}, {"time": 2100, "pitch": 52, "duration": 9, "velocity": 60}, {"time": 2103, "pitch": 59, "duration": 5, "velocity": 66}, {"time": 2106, "pitch": 61, "duration": 10, "velocity": 92}, {"time": 2109, "pitch": 45, "duration": 17, "velocity": 71}, {"time": 2112, "pitch": 52, "duration": 10, "velocity": 89}, {"time": 2115, "pitch": 57, "duration": 7, "velocity": 86}, {"time": 2118, "pitch": 59, "duration": 5, "velocity": 71}, {"time": 2121, "pitch": 61, "duration": 7, "velocity": 1}, {"time": 2121, "pitch": 68, "duration": 9, "velocity": 74}, {"time": 2124, "pitch": 52, "duration": 2, "velocity": 81}, {"time": 2127, "pitch": 59, "duration": 5, "velocity": 81}, {"time": 2130, "pitch": 61, "duration": 3, "velocity": 72}, {"time": 2133, "pitch": 38, "duration": 21, "velocity": 70}, {"time": 2136, "pitch": 45, "duration": 21, "velocity": 63}, {"time": 2139, "pitch": 50, "duration": 6, "velocity": 78}, {"time": 2142, "pitch": 57, "duration": 4, "velocity": 76}, {"time": 2145, "pitch": 62, "duration": 7, "velocity": 69}, {"time": 2145, "pitch": 66, "duration": 19, "velocity": 86}, {"time": 2148, "pitch": 50, "duration": 2, "velocity": 77}, {"time": 2151, "pitch": 57, "duration": 13, "velocity": 66}, {"time": 2154, "pitch": 62, "duration": 10, "velocity": 67}, {"time": 2157, "pitch": 38, "duration": 15, "velocity": 63}, {"time": 2160, "pitch": 45, "duration": 13, "velocity": 53}, {"time": 2163, "pitch": 50, "duration": 6, "velocity": 66}, {"time": 2166, "pitch": 57, "duration": 4, "velocity": 64}, {"time": 2169, "pitch": 62, "duration": 7, "velocity": 68}, {"time": 2169, "pitch": 66, "duration": 11, "velocity": 76}, {"time": 2172, "pitch": 50, "duration": 1, "velocity": 48}, {"time": 2175, "pitch": 57, "duration": 7, "velocity": 70}, {"time": 2178, "pitch": 62, "duration": 3, "velocity": 66}, {"time": 2181, "pitch": 37, "duration": 17, "velocity": 73}, {"time": 2184, "pitch": 44, "duration": 14, "velocity": 58}, {"time": 2187, "pitch": 49, "duration": 6, "velocity": 64}, {"time": 2190, "pitch": 56, "duration": 4, "velocity": 53}, {"time": 2193, "pitch": 61, "duration": 6, "velocity": 47}, {"time": 2193, "pitch": 64, "duration": 11, "velocity": 66}, {"time": 2196, "pitch": 49, "duration": 3, "velocity": 53}, {"time": 2199, "pitch": 56, "duration": 5, "velocity": 75}, {"time": 2202, "pitch": 61, "duration": 2, "velocity": 69}, {"time": 2205, "pitch": 42, "duration": 17, "velocity": 63}, {"time": 2208, "pitch": 54, "duration": 17, "velocity": 51}, {"time": 2211, "pitch": 57, "duration": 8, "velocity": 67}, {"time": 2214, "pitch": 61, "duration": 3, "velocity": 67}, {"time": 2217, "pitch": 66, "duration": 13, "velocity": 74}, {"time": 2220, "pitch": 61, "duration": 4, "velocity": 69}, {"time": 2223, "pitch": 57, "duration": 6, "velocity": 65}, {"time": 2226, "pitch": 61, "duration": 3, "velocity": 51}, {"time": 2229, "pitch": 47, "duration": 21, "velocity": 55}, {"time": 2232, "pitch": 54, "duration": 10, "velocity": 42}, {"time": 2235, "pitch": 59, "duration": 8, "velocity": 51}, {"time": 2238, "pitch": 62, "duration": 3, "velocity": 62}, {"time": 2241, "pitch": 66, "duration": 10, "velocity": 88}, {"time": 2244, "pitch": 54, "duration": 8, "velocity": 51}, {"time": 2247, "pitch": 62, "duration": 4, "velocity": 54}, {"time": 2250, "pitch": 59, "duration": 2, "velocity": 41}, {"time": 2253, "pitch": 51, "duration": 17, "velocity": 50}, {"time": 2256, "pitch": 59, "duration": 4, "velocity": 59}, {"time": 2259, "pitch": 63, "duration": 4, "velocity": 76}, {"time": 2262, "pitch": 59, "duration": 5, "velocity": 46}, {"time": 2265, "pitch": 66, "duration": 11, "velocity": 82}, {"time": 2268, "pitch": 63, "duration": 3, "velocity": 77}, {"time": 2271, "pitch": 59, "duration": 8, "velocity": 59}, {"time": 2274, "pitch": 63, "duration": 2, "velocity": 61}, {"time": 2277, "pitch": 40, "duration": 21, "velocity": 61}, {"time": 2280, "pitch": 47, "duration": 21, "velocity": 42}, {"time": 2283, "pitch": 52, "duration": 6, "velocity": 62}, {"time": 2286, "pitch": 59, "duration": 5, "velocity": 72}, {"time": 2289, "pitch": 68, "duration": 23, "velocity": 76}, {"time": 2292, "pitch": 52, "duration": 23, "velocity": 72}, {"time": 2295, "pitch": 64, "duration": 17, "velocity": 63}, {"time": 2298, "pitch": 59, "duration": 14, "velocity": 55}, {"time": 2301, "pitch": 40, "duration": 25, "velocity": 68}, {"time": 2307, "pitch": 47, "duration": 17, "velocity": 38}, {"time": 2313, "pitch": 64, "duration": 12, "velocity": 62}, {"time": 2313, "pitch": 68, "duration": 12, "velocity": 62}, {"time": 2319, "pitch": 59, "duration": 6, "velocity": 52}, {"time": 2325, "pitch": 38, "duration": 22, "velocity": 82}, {"time": 2328, "pitch": 45, "duration": 21, "velocity": 47}, {"time": 2331, "pitch": 50, "duration": 6, "velocity": 67}, {"time": 2334, "pitch": 57, "duration": 6, "velocity": 56}, {"time": 2337, "pitch": 66, "duration": 19, "velocity": 112}, {"time": 2340, "pitch": 50, "duration": 9, "velocity": 63}, {"time": 2343, "pitch": 62, "duration": 13, "velocity": 52}, {"time": 2346, "pitch": 57, "duration": 10, "velocity": 70}, {"time": 2349, "pitch": 38, "duration": 16, "velocity": 60}, {"time": 2352, "pitch": 45, "duration": 14, "velocity": 50}, {"time": 2355, "pitch": 50, "duration": 6, "velocity": 72}, {"time": 2358, "pitch": 57, "duration": 7, "velocity": 76}, {"time": 2361, "pitch": 66, "duration": 12, "velocity": 100}, {"time": 2364, "pitch": 50, "duration": 1, "velocity": 67}, {"time": 2367, "pitch": 62, "duration": 6, "velocity": 73}, {"time": 2370, "pitch": 57, "duration": 3, "velocity": 69}, {"time": 2373, "pitch": 37, "duration": 15, "velocity": 63}, {"time": 2376, "pitch": 44, "duration": 12, "velocity": 52}, {"time": 2379, "pitch": 49, "duration": 5, "velocity": 71}, {"time": 2382, "pitch": 61, "duration": 6, "velocity": 81}, {"time": 2385, "pitch": 68, "duration": 11, "velocity": 93}, {"time": 2388, "pitch": 49, "duration": 4, "velocity": 77}, {"time": 2391, "pitch": 64, "duration": 2, "velocity": 38}, {"time": 2394, "pitch": 61, "duration": 3, "velocity": 77}, {"time": 2397, "pitch": 42, "duration": 18, "velocity": 66}, {"time": 2400, "pitch": 49, "duration": 14, "velocity": 58}, {"time": 2403, "pitch": 54, "duration": 6, "velocity": 69}, {"time": 2406, "pitch": 57, "duration": 6, "velocity": 75}, {"time": 2409, "pitch": 66, "duration": 13, "velocity": 95}, {"time": 2412, "pitch": 54, "duration": 4, "velocity": 76}, {"time": 2415, "pitch": 61, "duration": 6, "velocity": 85}, {"time": 2418, "pitch": 57, "duration": 3, "velocity": 68}, {"time": 2421, "pitch": 47, "duration": 17, "velocity": 59}, {"time": 2424, "pitch": 54, "duration": 10, "velocity": 65}, {"time": 2427, "pitch": 59, "duration": 7, "velocity": 61}, {"time": 2430, "pitch": 62, "duration": 3, "velocity": 56}, {"time": 2433, "pitch": 66, "duration": 9, "velocity": 95}, {"time": 2436, "pitch": 54, "duration": 2, "velocity": 61}, {"time": 2439, "pitch": 62, "duration": 5, "velocity": 70}, {"time": 2442, "pitch": 59, "duration": 6, "velocity": 66}, {"time": 2445, "pitch": 40, "duration": 18, "velocity": 69}, {"time": 2448, "pitch": 47, "duration": 15, "velocity": 43}, {"time": 2451, "pitch": 52, "duration": 6, "velocity": 72}, {"time": 2454, "pitch": 59, "duration": 7, "velocity": 74}, {"time": 2457, "pitch": 68, "duration": 12, "velocity": 100}, {"time": 2460, "pitch": 52, "duration": 8, "velocity": 68}, {"time": 2463, "pitch": 64, "duration": 5, "velocity": 69}, {"time": 2466, "pitch": 59, "duration": 3, "velocity": 82}, {"time": 2469, "pitch": 45, "duration": 22, "velocity": 64}, {"time": 2472, "pitch": 52, "duration": 10, "velocity": 53}, {"time": 2475, "pitch": 57, "duration": 7, "velocity": 73}, {"time": 2478, "pitch": 59, "duration": 4, "velocity": 67}, {"time": 2481, "pitch": 64, "duration": 36, "velocity": 92}, {"time": 2484, "pitch": 52, "duration": 9, "velocity": 60}, {"time": 2487, "pitch": 59, "duration": 5, "velocity": 66}, {"time": 2490, "pitch": 61, "duration": 10, "velocity": 92}, {"time": 2493, "pitch": 45, "duration": 17, "velocity": 71}, {"time": 2496, "pitch": 52, "duration": 10, "velocity": 89}, {"time": 2499, "pitch": 57, "duration": 7, "velocity": 86}, {"time": 2502, "pitch": 59, "duration": 5, "velocity": 71}, {"time": 2505, "pitch": 61, "duration": 7, "velocity": 1}, {"time": 2505, "pitch": 68, "duration": 9, "velocity": 74}, {"time": 2508, "pitch": 52, "duration": 2, "velocity": 81}, {"time": 2511, "pitch": 59, "duration": 5, "velocity": 81}, {"time": 2514, "pitch": 61, "duration": 3, "velocity": 72}, {"time": 2517, "pitch": 38, "duration": 21, "velocity": 70}, {"time": 2520, "pitch": 45, "duration": 21, "velocity": 63}, {"time": 2523, "pitch": 50, "duration": 6, "velocity": 78}, {"time": 2526, "pitch": 57, "duration": 4, "velocity": 76}, {"time": 2529, "pitch": 62, "duration": 7, "velocity": 69}, {"time": 2529, "pitch": 66, "duration": 19, "velocity": 86}, {"time": 2532, "pitch": 50, "duration": 2, "velocity": 77}, {"time": 2535, "pitch": 57, "duration": 13, "velocity": 66}, {"time": 2538, "pitch": 62, "duration": 10, "velocity": 67}, {"time": 2541, "pitch": 38, "duration": 15, "velocity": 63}, {"time": 2544, "pitch": 45, "duration": 13, "velocity": 53}, {"time": 2547, "pitch": 50, "duration": 6, "velocity": 66}, {"time": 2550, "pitch": 57, "duration": 4, "velocity": 64}, {"time": 2553, "pitch": 62, "duration": 7, "velocity": 68}, {"time": 2553, "pitch": 66, "duration": 11, "velocity": 76}, {"time": 2556, "pitch": 50, "duration": 1, "velocity": 48}, {"time": 2559, "pitch": 57, "duration": 7, "velocity": 70}, {"time": 2562, "pitch": 62, "duration": 3, "velocity": 66}, {"time": 2565, "pitch": 37, "duration": 17, "velocity": 73}, {"time": 2568, "pitch": 44, "duration": 14, "velocity": 58}, {"time": 2571, "pitch": 49, "duration": 6, "velocity": 64}, {"time": 2574, "pitch": 56, "duration": 4, "velocity": 53}, {"time": 2577, "pitch": 61, "duration": 6, "velocity": 47}, {"time": 2577, "pitch": 64, "duration": 11, "velocity": 66}, {"time": 2580, "pitch": 49, "duration": 3, "velocity": 53}, {"time": 2583, "pitch": 56, "duration": 5, "velocity": 75}, {"time": 2586, "pitch": 61, "duration": 2, "velocity": 69}, {"time": 2589, "pitch": 42, "duration": 17, "velocity": 63}, {"time": 2592, "pitch": 54, "duration": 17, "velocity": 51}, {"time": 2595, "pitch": 57, "duration": 8, "velocity": 67}, {"time": 2598, "pitch": 61, "duration": 3, "velocity": 67}, {"time": 2601, "pitch": 66, "duration": 13, "velocity": 74}, {"time": 2604, "pitch": 61, "duration": 4, "velocity": 69}, {"time": 2607, "pitch": 57, "duration": 6, "velocity": 65}, {"time": 2610, "pitch": 61, "duration": 3, "velocity": 51}, {"time": 2613, "pitch": 47, "duration": 21, "velocity": 55}, {"time": 2616, "pitch": 54, "duration": 10, "velocity": 42}, {"time": 2619, "pitch": 59, "duration": 8, "velocity": 51}, {"time": 2622, "pitch": 62, "duration": 3, "velocity": 62}, {"time": 2625, "pitch": 66, "duration": 10, "velocity": 88}, {"time": 2628, "pitch": 54, "duration": 8, "velocity": 51}, {"time": 2631, "pitch": 62, "duration": 4, "velocity": 54}, {"time": 2634, "pitch": 59, "duration": 2, "velocity": 41}, {"time": 2637, "pitch": 51, "duration": 17, "velocity": 50}, {"time": 2640, "pitch": 59, "duration": 4, "velocity": 59}, {"time": 2643, "pitch": 63, "duration": 4, "velocity": 76}, {"time": 2646, "pitch": 59, "duration": 5, "velocity": 46}, {"time": 2649, "pitch": 66, "duration": 11, "velocity": 82}, {"time": 2652, "pitch": 63, "duration": 3, "velocity": 77}, {"time": 2655, "pitch": 59, "duration": 8, "velocity": 59}, {"time": 2658, "pitch": 63, "duration": 2, "velocity": 61}, {"time": 2661, "pitch": 40, "duration": 21, "velocity": 61}, {"time": 2664, "pitch": 47, "duration": 21, "velocity": 42}, {"time": 2667, "pitch": 52, "duration": 6, "velocity": 62}, {"time": 2670, "pitch": 59, "duration": 5, "velocity": 72}, {"time": 2673, "pitch": 68, "duration": 23, "velocity": 76}, {"time": 2676, "pitch": 52, "duration": 23, "velocity": 72}, {"time": 2679, "pitch": 64, "duration": 17, "velocity": 63}, {"time": 2682, "pitch": 59, "duration": 14, "velocity": 55}, {"time": 2685, "pitch": 40, "duration": 25, "velocity": 68}, {"time": 2691, "pitch": 47, "duration": 17, "velocity": 38}, {"time": 2697, "pitch": 64, "duration": 12, "velocity": 62}, {"time": 2697, "pitch": 68, "duration": 12, "velocity": 62}, {"time": 2703, "pitch": 59, "duration": 6, "velocity": 52}, {"time": 2709, "pitch": 45, "duration": 18, "velocity": 58}, {"time": 2715, "pitch": 52, "duration": 12, "velocity": 43}, {"time": 2721, "pitch": 57, "duration": 6, "velocity": 44}, {"time": 2721, "pitch": 61, "duration": 16, "velocity": 54}, {"time": 2727, "pitch": 59, "duration": 6, "velocity": 47}, {"time": 2733, "pitch": 44, "duration": 20, "velocity": 50}, {"time": 2739, "pitch": 56, "duration": 11, "velocity": 37}, {"time": 2745, "pitch": 59, "duration": 10, "velocity": 47}, {"time": 2745, "pitch": 64, "duration": 10, "velocity": 58}, {"time": 2757, "pitch": 38, "duration": 38, "velocity": 55}, {"time": 2763, "pitch": 45, "duration": 32, "velocity": 35}, {"time": 2769, "pitch": 50, "duration": 15, "velocity": 51}, {"time": 2769, "pitch": 57, "duration": 3, "velocity": 26}, {"time": 2769, "pitch": 62, "duration": 7, "velocity": 58}, {"time": 2775, "pitch": 57, "duration": 7, "velocity": 37}, {"time": 2781, "pitch": 62, "duration": 7, "velocity": 55}, {"time": 2781, "pitch": 66, "duration": 25, "velocity": 33}, {"time": 2787, "pitch": 50, "duration": 7, "velocity": 33}, {"time": 2793, "pitch": 62, "duration": 13, "velocity": 76}, {"time": 2799, "pitch": 61, "duration": 7, "velocity": 42}, {"time": 2805, "pitch": 47, "duration": 16, "velocity": 56}, {"time": 2811, "pitch": 54, "duration": 8, "velocity": 56}, {"time": 2817, "pitch": 62, "duration": 13, "velocity": 44}, {"time": 2817, "pitch": 66, "duration": 10, "velocity": 63}, {"time": 2823, "pitch": 59, "duration": 7, "velocity": 37}, {"time": 2829, "pitch": 40, "duration": 17, "velocity": 58}, {"time": 2835, "pitch": 47, "duration": 11, "velocity": 27}, {"time": 2841, "pitch": 52, "duration": 8, "velocity": 39}, {"time": 2841, "pitch": 64, "duration": 13, "velocity": 55}, {"time": 2841, "pitch": 68, "duration": 12, "velocity": 44}, {"time": 2847, "pitch": 59, "duration": 7, "velocity": 46}, {"time": 2853, "pitch": 45, "duration": 23, "velocity": 64}, {"time": 2859, "pitch": 52, "duration": 16, "velocity": 37}, {"time": 2865, "pitch": 57, "duration": 9, "velocity": 38}, {"time": 2865, "pitch": 61, "duration": 7, "velocity": 52}, {"time": 2865, "pitch": 64, "duration": 18, "velocity": 50}, {"time": 2871, "pitch": 59, "duration": 12, "velocity": 38}, {"time": 2877, "pitch": 45, "duration": 22, "velocity": 69}, {"time": 2883, "pitch": 52, "duration": 7, "velocity": 42}, {"time": 2889, "pitch": 61, "duration": 7, "velocity": 93}, {"time": 2889, "pitch": 64, "duration": 13, "velocity": 82}, {"time": 2892, "pitch": 52, "duration": 9, "velocity": 42}, {"time": 2895, "pitch": 59, "duration": 6, "velocity": 65}, {"time": 2898, "pitch": 61, "duration": 4, "velocity": 45}, {"time": 2901, "pitch": 45, "duration": 20, "velocity": 63}, {"time": 2907, "pitch": 52, "duration": 15, "velocity": 39}, {"time": 2913, "pitch": 57, "duration": 7, "velocity": 62}, {"time": 2913, "pitch": 64, "duration": 17, "velocity": 66}, {"time": 2919, "pitch": 61, "duration": 7, "velocity": 41}, {"time": 2925, "pitch": 44, "duration": 17, "velocity": 77}, {"time": 2931, "pitch": 56, "duration": 8, "velocity": 41}, {"time": 2937, "pitch": 64, "duration": 13, "velocity": 68}, {"time": 2943, "pitch": 61, "duration": 7, "velocity": 53}, {"time": 2949, "pitch": 38, "duration": 22, "velocity": 48}, {"time": 2955, "pitch": 45, "duration": 18, "velocity": 36}, {"time": 2961, "pitch": 50, "duration": 12, "velocity": 36}, {"time": 2961, "pitch": 62, "duration": 12, "velocity": 57}, {"time": 2967, "pitch": 57, "duration": 6, "velocity": 47}, {"time": 2973, "pitch": 38, "duration": 9, "velocity": 63}, {"time": 2979, "pitch": 45, "duration": 4, "velocity": 38}, {"time": 2985, "pitch": 49, "duration": 11, "velocity": 90}, {"time": 2985, "pitch": 61, "duration": 13, "velocity": 49}, {"time": 2985, "pitch": 64, "duration": 12, "velocity": 49}, {"time": 2997, "pitch": 47, "duration": 16, "velocity": 62}, {"time": 3003, "pitch": 54, "duration": 9, "velocity": 37}, {"time": 3009, "pitch": 62, "duration": 14, "velocity": 59}, {"time": 3009, "pitch": 66, "duration": 9, "velocity": 55}, {"time": 3015, "pitch": 59, "duration": 8, "velocity": 52}, {"time": 3021, "pitch": 40, "duration": 18, "velocity": 63}, {"time": 3027, "pitch": 47, "duration": 12, "velocity": 38}, {"time": 3033, "pitch": 52, "duration": 12, "velocity": 44}, {"time": 3033, "pitch": 64, "duration": 12, "velocity": 66}, {"time": 3033, "pitch": 68, "duration": 12, "velocity": 56}, {"time": 3039, "pitch": 59, "duration": 6, "velocity": 48}, {"time": 3045, "pitch": 45, "duration": 22, "velocity": 77}, {"time": 3051, "pitch": 52, "duration": 6, "velocity": 54}, {"time": 3057, "pitch": 64, "duration": 34, "velocity": 77}, {"time": 3060, "pitch": 52, "duration": 9, "velocity": 31}, {"time": 3063, "pitch": 61, "duration": 28, "velocity": 58}, {"time": 3069, "pitch": 45, "duration": 21, "velocity": 57}, {"time": 3069, "pitch": 57, "duration": 22, "velocity": 54}, {"time": 3093, "pitch": 47, "duration": 15, "velocity": 60}, {"time": 3099, "pitch": 54, "duration": 8, "velocity": 51}, {"time": 3105, "pitch": 62, "duration": 12, "velocity": 59}, {"time": 3105, "pitch": 66, "duration": 10, "velocity": 69}, {"time": 3111, "pitch": 59, "duration": 6, "velocity": 44}, {"time": 3117, "pitch": 40, "duration": 49, "velocity": 64}, {"time": 3123, "pitch": 47, "duration": 42, "velocity": 32}, {"time": 3129, "pitch": 52, "duration": 36, "velocity": 44}, {"time": 3135, "pitch": 59, "duration": 30, "velocity": 46}, {"time": 3141, "pitch": 64, "duration": 24, "velocity": 37}, {"time": 3141, "pitch": 68, "duration": 24, "velocity": 40}, {"time": 3165, "pitch": 45, "duration": 17, "velocity": 59}, {"time": 3165, "pitch": 57, "duration": 11, "velocity": 47}, {"time": 3165, "pitch": 61, "duration": 9, "velocity": 48}, {"time": 3165, "pitch": 64, "duration": 1, "velocity": 53}, {"time": 3171, "pitch": 52, "duration": 11, "velocity": 38}, {"time": 3177, "pitch": 61, "duration": 12, "velocity": 48}, {"time": 3177, "pitch": 64, "duration": 13, "velocity": 51}, {"time": 3183, "pitch": 57, "duration": 3, "velocity": 43}, {"time": 3189, "pitch": 44, "duration": 19, "velocity": 55}, {"time": 3195, "pitch": 56, "duration": 6, "velocity": 44}, {"time": 3201, "pitch": 61, "duration": 14, "velocity": 48}, {"time": 3201, "pitch": 64, "duration": 11, "velocity": 53}, {"time": 3213, "pitch": 38, "duration": 22, "velocity": 48}, {"time": 3219, "pitch": 45, "duration": 18, "velocity": 27}, {"time": 3225, "pitch": 50, "duration": 26, "velocity": 37}, {"time": 3225, "pitch": 62, "duration": 22, "velocity": 56}, {"time": 3225, "pitch": 66, "duration": 22, "velocity": 53}, {"time": 3231, "pitch": 57, "duration": 17, "velocity": 40}, {"time": 3237, "pitch": 38, "duration": 14, "velocity": 56}, {"time": 3249, "pitch": 62, "duration": 12, "velocity": 71}, {"time": 3249, "pitch": 66, "duration": 12, "velocity": 72}, {"time": 3255, "pitch": 61, "duration": 6, "velocity": 50}, {"time": 3261, "pitch": 45, "duration": 14, "velocity": 64}, {"time": 3266, "pitch": 52, "duration": 8, "velocity": 50}, {"time": 3272, "pitch": 61, "duration": 13, "velocity": 59}, {"time": 3272, "pitch": 64, "duration": 12, "velocity": 62}, {"time": 3278, "pitch": 57, "duration": 6, "velocity": 48}, {"time": 3284, "pitch": 44, "duration": 13, "velocity": 60}, {"time": 3290, "pitch": 56, "duration": 7, "velocity": 48}, {"time": 3296, "pitch": 61, "duration": 7, "velocity": 62}, {"time": 3296, "pitch": 64, "duration": 7, "velocity": 59}, {"time": 3308, "pitch": 52, "duration": 12, "velocity": 47}, {"time": 3308, "pitch": 59, "duration": 11, "velocity": 54}, {"time": 3308, "pitch": 43, "duration": 57, "velocity": 48}, {"time": 3308, "pitch": 55, "duration": 11, "velocity": 56}, {"time": 3320, "pitch": 59, "duration": 45, "velocity": 61}, {"time": 3320, "pitch": 55, "duration": 44, "velocity": 61}, {"time": 3326, "pitch": 52, "duration": 38, "velocity": 47}, {"time": 3364, "pitch": 33, "duration": 36, "velocity": 59}, {"time": 3365, "pitch": 69, "duration": 34, "velocity": 52}, {"time": 3366, "pitch": 73, "duration": 33, "velocity": 55}, {"time": 3366, "pitch": 40, "duration": 32, "velocity": 59}, {"time": 3366, "pitch": 45, "duration": 32, "velocity": 59}, {"time": 3367, "pitch": 76, "duration": 32, "velocity": 68}, {"time": 3368, "pitch": 81, "duration": 31, "velocity": 97}], "annotations": [{"time": 20, "annotation": {"number": 64, "value": 127}, "group": "control_change"}, {"time": 43, "annotation": {"number": 64, "value": 0}, "group": "control_change"}, {"time": 45, "annotation": {"number": 64, "value": 127}, "group": "control_change"}, {"time": 67, "annotation": {"number": 64, "value": 0}, "group": "control_change"}, {"time": 69, "annotation": {"number": 64, "value": 127}, "group": "control_change"}, {"time": 115, "annotation": {"number": 64, "value": 0}, "group": "control_change"}, {"time": 117, "annotation": {"number": 64, "value": 127}, "group": "control_change"}, {"time": 140, "annotation": {"number": 64, "value": 0}, "group": "control_change"}, {"time": 141, "annotation": {"number": 64, "value": 127}, "group": "control_change"}, {"time": 163, "annotation": {"number": 64, "value": 0}, "group": "control_change"}, {"time": 164, "annotation": {"number": 64, "value": 127}, "group": "control_change"}, {"time": 187, "annotation": {"number": 64, "value": 0}, "group": "control_change"}, {"time": 189, "annotation": {"number": 64, "value": 127}, "group": "control_change"}, {"time": 211, "annotation": {"number": 64, "value": 0}, "group": "control_change"}, {"time": 213, "annotation": {"number": 64, "value": 127}, "group": "control_change"}, {"time": 235, "annotation": {"number": 64, "value": 0}, "group": "control_change"}, {"time": 237, "annotation": {"number": 64, "value": 127}, "group": "control_change"}, {"time": 259, "annotation": {"number": 64, "value": 0}, "group": "control_change"}, {"time": 261, "annotation": {"number": 64, "value": 127}, "group": "control_change"}, {"time": 307, "annotation": {"number": 64, "value": 0}, "group": "control_change"}, {"time": 309, "annotation": {"number": 64, "value": 127}, "group": "control_change"}, {"time": 331, "annotation": {"number": 64, "value": 0}, "group": "control_change"}, {"time": 333, "annotation": {"number": 64, "value": 127}, "group": "control_change"}, {"time": 355, "annotation": {"number": 64, "value": 0}, "group": "control_change"}, {"time": 357, "annotation": {"number": 64, "value": 127}, "group": "control_change"}, {"time": 379, "annotation": {"number": 64, "value": 0}, "group": "control_change"}, {"time": 381, "annotation": {"number": 64, "value": 127}, "group": "control_change"}, {"time": 403, "annotation": {"number": 64, "value": 0}, "group": "control_change"}, {"time": 405, "annotation": {"number": 64, "value": 127}, "group": "control_change"}, {"time": 427, "annotation": {"number": 64, "value": 0}, "group": "control_change"}, {"time": 429, "annotation": {"number": 64, "value": 127}, "group": "control_change"}, {"time": 451, "annotation": {"number": 64, "value": 0}, "group": "control_change"}, {"time": 453, "annotation": {"number": 64, "value": 127}, "group": "control_change"}, {"time": 475, "annotation": {"number": 64, "value": 0}, "group": "control_change"}, {"time": 477, "annotation": {"number": 64, "value": 127}, "group": "control_change"}, {"time": 488, "annotation": {"number": 64, "value": 0}, "group": "control_change"}, {"time": 500, "annotation": {"number": 64, "value": 127}, "group": "control_change"}, {"time": 523, "annotation": {"number": 64, "value": 0}, "group": "control_change"}, {"time": 525, "annotation": {"number": 64, "value": 127}, "group": "control_change"}, {"time": 547, "annotation": {"number": 64, "value": 0}, "group": "control_change"}, {"time": 549, "annotation": {"number": 64, "value": 127}, "group": "control_change"}, {"time": 571, "annotation": {"number": 64, "value": 0}, "group": "control_change"}, {"time": 573, "annotation": {"number": 64, "value": 127}, "group": "control_change"}, {"time": 594, "annotation": {"number": 64, "value": 0}, "group": "control_change"}, {"time": 597, "annotation": {"number": 64, "value": 127}, "group": "control_change"}, {"time": 618, "annotation": {"number": 64, "value": 0}, "group": "control_change"}, {"time": 620, "annotation": {"number": 64, "value": 127}, "group": "control_change"}, {"time": 643, "annotation": {"number": 64, "value": 0}, "group": "control_change"}, {"time": 645, "annotation": {"number": 64, "value": 127}, "group": "control_change"}, {"time": 667, "annotation": {"number": 64, "value": 0}, "group": "control_change"}, {"time": 669, "annotation": {"number": 64, "value": 127}, "group": "control_change"}, {"time": 691, "annotation": {"number": 64, "value": 0}, "group": "control_change"}, {"time": 693, "annotation": {"number": 64, "value": 127}, "group": "control_change"}, {"time": 715, "annotation": {"number": 64, "value": 0}, "group": "control_change"}, {"time": 717, "annotation": {"number": 64, "value": 127}, "group": "control_change"}, {"time": 739, "annotation": {"number": 64, "value": 0}, "group": "control_change"}, {"time": 741, "annotation": {"number": 64, "value": 127}, "group": "control_change"}, {"time": 762, "annotation": {"number": 64, "value": 0}, "group": "control_change"}, {"time": 764, "annotation": {"number": 64, "value": 127}, "group": "control_change"}, {"time": 787, "annotation": {"number": 64, "value": 0}, "group": "control_change"}, {"time": 789, "annotation": {"number": 64, "value": 127}, "group": "control_change"}, {"time": 810, "annotation": {"number": 64, "value": 0}, "group": "control_change"}, {"time": 812, "annotation": {"number": 64, "value": 127}, "group": "control_change"}, {"time": 835, "annotation": {"number": 64, "value": 0}, "group": "control_change"}, {"time": 837, "annotation": {"number": 64, "value": 127}, "group": "control_change"}, {"time": 859, "annotation": {"number": 64, "value": 0}, "group": "control_change"}, {"time": 861, "annotation": {"number": 64, "value": 127}, "group": "control_change"}, {"time": 883, "annotation": {"number": 64, "value": 0}, "group": "control_change"}, {"time": 885, "annotation": {"number": 64, "value": 127}, "group": "control_change"}, {"time": 907, "annotation": {"number": 64, "value": 0}, "group": "control_change"}, {"time": 909, "annotation": {"number": 64, "value": 127}, "group": "control_change"}, {"time": 931, "annotation": {"number": 64, "value": 0}, "group": "control_change"}, {"time": 933, "annotation": {"number": 64, "value": 127}, "group": "control_change"}, {"time": 954, "annotation": {"number": 64, "value": 0}, "group": "control_change"}, {"time": 956, "annotation": {"number": 64, "value": 127}, "group": "control_change"}, {"time": 978, "annotation": {"number": 64, "value": 0}, "group": "control_change"}, {"time": 981, "annotation": {"number": 64, "value": 127}, "group": "control_change"}, {"time": 1003, "annotation": {"number": 64, "value": 0}, "group": "control_change"}, {"time": 1005, "annotation": {"number": 64, "value": 127}, "group": "control_change"}, {"time": 1027, "annotation": {"number": 64, "value": 0}, "group": "control_change"}, {"time": 1029, "annotation": {"number": 64, "value": 127}, "group": "control_change"}, {"time": 1075, "annotation": {"number": 64, "value": 0}, "group": "control_change"}, {"time": 1077, "annotation": {"number": 64, "value": 127}, "group": "control_change"}, {"time": 1099, "annotation": {"number": 64, "value": 0}, "group": "control_change"}, {"time": 1101, "annotation": {"number": 64, "value": 127}, "group": "control_change"}, {"time": 1123, "annotation": {"number": 64, "value": 0}, "group": "control_change"}, {"time": 1125, "annotation": {"number": 64, "value": 127}, "group": "control_change"}, {"time": 1147, "annotation": {"number": 64, "value": 0}, "group": "control_change"}, {"time": 1149, "annotation": {"number": 64, "value": 127}, "group": "control_change"}, {"time": 1171, "annotation": {"number": 64, "value": 0}, "group": "control_change"}, {"time": 1173, "annotation": {"number": 64, "value": 127}, "group": "control_change"}, {"time": 1195, "annotation": {"number": 64, "value": 0}, "group": "control_change"}, {"time": 1197, "annotation": {"number": 64, "value": 127}, "group": "control_change"}, {"time": 1219, "annotation": {"number": 64, "value": 0}, "group": "control_change"}, {"time": 1221, "annotation": {"number": 64, "value": 127}, "group": "control_change"}, {"time": 1243, "annotation": {"number": 64, "value": 0}, "group": "control_change"}, {"time": 1245, "annotation": {"number": 64, "value": 127}, "group": "control_change"}, {"time": 1256, "annotation": {"number": 64, "value": 0}, "group": "control_change"}, {"time": 1268, "annotation": {"number": 64, "value": 127}, "group": "control_change"}, {"time": 1291, "annotation": {"number": 64, "value": 0}, "group": "control_change"}, {"time": 1293, "annotation": {"number": 64, "value": 127}, "group": "control_change"}, {"time": 1315, "annotation": {"number": 64, "value": 0}, "group": "control_change"}, {"time": 1317, "annotation": {"number": 64, "value": 127}, "group": "control_change"}, {"time": 1339, "annotation": {"number": 64, "value": 0}, "group": "control_change"}, {"time": 1341, "annotation": {"number": 64, "value": 127}, "group": "control_change"}, {"time": 1363, "annotation": {"number": 64, "value": 0}, "group": "control_change"}, {"time": 1365, "annotation": {"number": 64, "value": 127}, "group": "control_change"}, {"time": 1388, "annotation": {"number": 64, "value": 0}, "group": "control_change"}, {"time": 1389, "annotation": {"number": 64, "value": 127}, "group": "control_change"}, {"time": 1410, "annotation": {"number": 64, "value": 0}, "group": "control_change"}, {"time": 1413, "annotation": {"number": 64, "value": 127}, "group": "control_change"}, {"time": 1459, "annotation": {"number": 64, "value": 0}, "group": "control_change"}, {"time": 1460, "annotation": {"number": 64, "value": 127}, "group": "control_change"}, {"time": 1483, "annotation": {"number": 64, "value": 0}, "group": "control_change"}, {"time": 1485, "annotation": {"number": 64, "value": 127}, "group": "control_change"}, {"time": 1507, "annotation": {"number": 64, "value": 0}, "group": "control_change"}, {"time": 1508, "annotation": {"number": 64, "value": 127}, "group": "control_change"}, {"time": 1531, "annotation": {"number": 64, "value": 0}, "group": "control_change"}, {"time": 1533, "annotation": {"number": 64, "value": 127}, "group": "control_change"}, {"time": 1554, "annotation": {"number": 64, "value": 0}, "group": "control_change"}, {"time": 1557, "annotation": {"number": 64, "value": 127}, "group": "control_change"}, {"time": 1579, "annotation": {"number": 64, "value": 0}, "group": "control_change"}, {"time": 1581, "annotation": {"number": 64, "value": 127}, "group": "control_change"}, {"time": 1603, "annotation": {"number": 64, "value": 0}, "group": "control_change"}, {"time": 1605, "annotation": {"number": 64, "value": 127}, "group": "control_change"}, {"time": 1651, "annotation": {"number": 64, "value": 0}, "group": "control_change"}, {"time": 1653, "annotation": {"number": 64, "value": 127}, "group": "control_change"}, {"time": 1675, "annotation": {"number": 64, "value": 0}, "group": "control_change"}, {"time": 1677, "annotation": {"number": 64, "value": 127}, "group": "control_change"}, {"time": 1699, "annotation": {"number": 64, "value": 0}, "group": "control_change"}, {"time": 1701, "annotation": {"number": 64, "value": 127}, "group": "control_change"}, {"time": 1723, "annotation": {"number": 64, "value": 0}, "group": "control_change"}, {"time": 1725, "annotation": {"number": 64, "value": 127}, "group": "control_change"}, {"time": 1747, "annotation": {"number": 64, "value": 0}, "group": "control_change"}, {"time": 1749, "annotation": {"number": 64, "value": 127}, "group": "control_change"}, {"time": 1771, "annotation": {"number": 64, "value": 0}, "group": "control_change"}, {"time": 1773, "annotation": {"number": 64, "value": 127}, "group": "control_change"}, {"time": 1795, "annotation": {"number": 64, "value": 0}, "group": "control_change"}, {"time": 1797, "annotation": {"number": 64, "value": 127}, "group": "control_change"}, {"time": 1819, "annotation": {"number": 64, "value": 0}, "group": "control_change"}, {"time": 1821, "annotation": {"number": 64, "value": 127}, "group": "control_change"}, {"time": 1832, "annotation": {"number": 64, "value": 0}, "group": "control_change"}, {"time": 1844, "annotation": {"number": 64, "value": 127}, "group": "control_change"}, {"time": 1867, "annotation": {"number": 64, "value": 0}, "group": "control_change"}, {"time": 1869, "annotation": {"number": 64, "value": 127}, "group": "control_change"}, {"time": 1891, "annotation": {"number": 64, "value": 0}, "group": "control_change"}, {"time": 1893, "annotation": {"number": 64, "value": 127}, "group": "control_change"}, {"time": 1915, "annotation": {"number": 64, "value": 0}, "group": "control_change"}, {"time": 1917, "annotation": {"number": 64, "value": 127}, "group": "control_change"}, {"time": 1938, "annotation": {"number": 64, "value": 0}, "group": "control_change"}, {"time": 1941, "annotation": {"number": 64, "value": 127}, "group": "control_change"}, {"time": 1962, "annotation": {"number": 64, "value": 0}, "group": "control_change"}, {"time": 1964, "annotation": {"number": 64, "value": 127}, "group": "control_change"}, {"time": 1987, "annotation": {"number": 64, "value": 0}, "group": "control_change"}, {"time": 1989, "annotation": {"number": 64, "value": 127}, "group": "control_change"}, {"time": 2011, "annotation": {"number": 64, "value": 0}, "group": "control_change"}, {"time": 2013, "annotation": {"number": 64, "value": 127}, "group": "control_change"}, {"time": 2035, "annotation": {"number": 64, "value": 0}, "group": "control_change"}, {"time": 2037, "annotation": {"number": 64, "value": 127}, "group": "control_change"}, {"time": 2059, "annotation": {"number": 64, "value": 0}, "group": "control_change"}, {"time": 2061, "annotation": {"number": 64, "value": 127}, "group": "control_change"}, {"time": 2083, "annotation": {"number": 64, "value": 0}, "group": "control_change"}, {"time": 2085, "annotation": {"number": 64, "value": 127}, "group": "control_change"}, {"time": 2106, "annotation": {"number": 64, "value": 0}, "group": "control_change"}, {"time": 2108, "annotation": {"number": 64, "value": 127}, "group": "control_change"}, {"time": 2131, "annotation": {"number": 64, "value": 0}, "group": "control_change"}, {"time": 2133, "annotation": {"number": 64, "value": 127}, "group": "control_change"}, {"time": 2154, "annotation": {"number": 64, "value": 0}, "group": "control_change"}, {"time": 2156, "annotation": {"number": 64, "value": 127}, "group": "control_change"}, {"time": 2179, "annotation": {"number": 64, "value": 0}, "group": "control_change"}, {"time": 2181, "annotation": {"number": 64, "value": 127}, "group": "control_change"}, {"time": 2203, "annotation": {"number": 64, "value": 0}, "group": "control_change"}, {"time": 2205, "annotation": {"number": 64, "value": 127}, "group": "control_change"}, {"time": 2227, "annotation": {"number": 64, "value": 0}, "group": "control_change"}, {"time": 2229, "annotation": {"number": 64, "value": 127}, "group": "control_change"}, {"time": 2251, "annotation": {"number": 64, "value": 0}, "group": "control_change"}, {"time": 2253, "annotation": {"number": 64, "value": 127}, "group": "control_change"}, {"time": 2275, "annotation": {"number": 64, "value": 0}, "group": "control_change"}, {"time": 2277, "annotation": {"number": 64, "value": 127}, "group": "control_change"}, {"time": 2298, "annotation": {"number": 64, "value": 0}, "group": "control_change"}, {"time": 2300, "annotation": {"number": 64, "value": 127}, "group": "control_change"}, {"time": 2322, "annotation": {"number": 64, "value": 0}, "group": "control_change"}, {"time": 2325, "annotation": {"number": 64, "value": 127}, "group": "control_change"}, {"time": 2346, "annotation": {"number": 64, "value": 0}, "group": "control_change"}, {"time": 2348, "annotation": {"number": 64, "value": 127}, "group": "control_change"}, {"time": 2371, "annotation": {"number": 64, "value": 0}, "group": "control_change"}, {"time": 2373, "annotation": {"number": 64, "value": 127}, "group": "control_change"}, {"time": 2395, "annotation": {"number": 64, "value": 0}, "group": "control_change"}, {"time": 2397, "annotation": {"number": 64, "value": 127}, "group": "control_change"}, {"time": 2419, "annotation": {"number": 64, "value": 0}, "group": "control_change"}, {"time": 2421, "annotation": {"number": 64, "value": 127}, "group": "control_change"}, {"time": 2443, "annotation": {"number": 64, "value": 0}, "group": "control_change"}, {"time": 2445, "annotation": {"number": 64, "value": 127}, "group": "control_change"}, {"time": 2467, "annotation": {"number": 64, "value": 0}, "group": "control_change"}, {"time": 2469, "annotation": {"number": 64, "value": 127}, "group": "control_change"}, {"time": 2490, "annotation": {"number": 64, "value": 0}, "group": "control_change"}, {"time": 2492, "annotation": {"number": 64, "value": 127}, "group": "control_change"}, {"time": 2515, "annotation": {"number": 64, "value": 0}, "group": "control_change"}, {"time": 2517, "annotation": {"number": 64, "value": 127}, "group": "control_change"}, {"time": 2538, "annotation": {"number": 64, "value": 0}, "group": "control_change"}, {"time": 2540, "annotation": {"number": 64, "value": 127}, "group": "control_change"}, {"time": 2563, "annotation": {"number": 64, "value": 0}, "group": "control_change"}, {"time": 2565, "annotation": {"number": 64, "value": 127}, "group": "control_change"}, {"time": 2587, "annotation": {"number": 64, "value": 0}, "group": "control_change"}, {"time": 2589, "annotation": {"number": 64, "value": 127}, "group": "control_change"}, {"time": 2611, "annotation": {"number": 64, "value": 0}, "group": "control_change"}, {"time": 2613, "annotation": {"number": 64, "value": 127}, "group": "control_change"}, {"time": 2635, "annotation": {"number": 64, "value": 0}, "group": "control_change"}, {"time": 2637, "annotation": {"number": 64, "value": 127}, "group": "control_change"}, {"time": 2659, "annotation": {"number": 64, "value": 0}, "group": "control_change"}, {"time": 2661, "annotation": {"number": 64, "value": 127}, "group": "control_change"}, {"time": 2682, "annotation": {"number": 64, "value": 0}, "group": "control_change"}, {"time": 2684, "annotation": {"number": 64, "value": 127}, "group": "control_change"}, {"time": 2706, "annotation": {"number": 64, "value": 0}, "group": "control_change"}, {"time": 2709, "annotation": {"number": 64, "value": 127}, "group": "control_change"}, {"time": 2731, "annotation": {"number": 64, "value": 0}, "group": "control_change"}, {"time": 2733, "annotation": {"number": 64, "value": 127}, "group": "control_change"}, {"time": 2755, "annotation": {"number": 64, "value": 0}, "group": "control_change"}, {"time": 2757, "annotation": {"number": 64, "value": 127}, "group": "control_change"}, {"time": 2803, "annotation": {"number": 64, "value": 0}, "group": "control_change"}, {"time": 2805, "annotation": {"number": 64, "value": 127}, "group": "control_change"}, {"time": 2827, "annotation": {"number": 64, "value": 0}, "group": "control_change"}, {"time": 2829, "annotation": {"number": 64, "value": 127}, "group": "control_change"}, {"time": 2851, "annotation": {"number": 64, "value": 0}, "group": "control_change"}, {"time": 2853, "annotation": {"number": 64, "value": 127}, "group": "control_change"}, {"time": 2875, "annotation": {"number": 64, "value": 0}, "group": "control_change"}, {"time": 2877, "annotation": {"number": 64, "value": 127}, "group": "control_change"}, {"time": 2899, "annotation": {"number": 64, "value": 0}, "group": "control_change"}, {"time": 2901, "annotation": {"number": 64, "value": 127}, "group": "control_change"}, {"time": 2923, "annotation": {"number": 64, "value": 0}, "group": "control_change"}, {"time": 2925, "annotation": {"number": 64, "value": 127}, "group": "control_change"}, {"time": 2947, "annotation": {"number": 64, "value": 0}, "group": "control_change"}, {"time": 2949, "annotation": {"number": 64, "value": 127}, "group": "control_change"}, {"time": 2971, "annotation": {"number": 64, "value": 0}, "group": "control_change"}, {"time": 2973, "annotation": {"number": 64, "value": 127}, "group": "control_change"}, {"time": 2984, "annotation": {"number": 64, "value": 0}, "group": "control_change"}, {"time": 2996, "annotation": {"number": 64, "value": 127}, "group": "control_change"}, {"time": 3019, "annotation": {"number": 64, "value": 0}, "group": "control_change"}, {"time": 3021, "annotation": {"number": 64, "value": 127}, "group": "control_change"}, {"time": 3043, "annotation": {"number": 64, "value": 0}, "group": "control_change"}, {"time": 3045, "annotation": {"number": 64, "value": 127}, "group": "control_change"}, {"time": 3091, "annotation": {"number": 64, "value": 0}, "group": "control_change"}, {"time": 3093, "annotation": {"number": 64, "value": 127}, "group": "control_change"}, {"time": 3114, "annotation": {"number": 64, "value": 0}, "group": "control_change"}, {"time": 3117, "annotation": {"number": 64, "value": 127}, "group": "control_change"}, {"time": 3164, "annotation": {"number": 64, "value": 0}, "group": "control_change"}, {"time": 3167, "annotation": {"number": 64, "value": 127}, "group": "control_change"}, {"time": 3187, "annotation": {"number": 64, "value": 0}, "group": "control_change"}, {"time": 3188, "annotation": {"number": 64, "value": 127}, "group": "control_change"}, {"time": 3211, "annotation": {"number": 64, "value": 0}, "group": "control_change"}, {"time": 3212, "annotation": {"number": 64, "value": 127}, "group": "control_change"}, {"time": 3234, "annotation": {"number": 64, "value": 0}, "group": "control_change"}, {"time": 3236, "annotation": {"number": 64, "value": 127}, "group": "control_change"}, {"time": 3259, "annotation": {"number": 64, "value": 0}, "group": "control_change"}, {"time": 3263, "annotation": {"number": 64, "value": 127}, "group": "control_change"}, {"time": 3283, "annotation": {"number": 64, "value": 0}, "group": "control_change"}, {"time": 3284, "annotation": {"number": 64, "value": 127}, "group": "control_change"}, {"time": 3307, "annotation": {"number": 64, "value": 0}, "group": "control_change"}, {"time": 3308, "annotation": {"number": 64, "value": 127}, "group": "control_change"}, {"time": 3330, "annotation": {"number": 64, "value": 0}, "group": "control_change"}, {"time": 3344, "annotation": {"number": 64, "value": 127}, "group": "control_change"}, {"time": 3369, "annotation": {"number": 64, "value": 127}, "group": "control_change"}, {"time": 3426, "annotation": {"number": 64, "value": 0}, "group": "control_change"}, {"time": 3427, "annotation": {"number": 64, "value": 127}, "group": "control_change"}, {"time": 3428, "annotation": {"number": 64, "value": 0}, "group": "control_change"}, {"time": 3429, "annotation": {"number": 64, "value": 127}, "group": "control_change"}, {"time": 3432, "annotation": {"number": 64, "value": 0}, "group": "control_change"}]}]}