{"metadata": {"schema_version": "0.2", "title": "None", "source_filename": "476.mid", "source_format": "midi"}, "resolution": 12, "tempos": [{"time": 0, "qpm": 68.0000725334107}], "time_signatures": [{"time": 0, "numerator": 1, "denominator": 4}], "tracks": [{"program": 0, "is_drum": false, "name": "MELODY", "notes": [{"time": 428, "pitch": 71, "duration": 4, "velocity": 122}, {"time": 434, "pitch": 69, "duration": 2, "velocity": 99}, {"time": 437, "pitch": 71, "duration": 6, "velocity": 107}, {"time": 446, "pitch": 69, "duration": 2, "velocity": 107}, {"time": 449, "pitch": 71, "duration": 18, "velocity": 117}, {"time": 470, "pitch": 67, "duration": 2, "velocity": 93}, {"time": 473, "pitch": 66, "duration": 1, "velocity": 92}, {"time": 476, "pitch": 66, "duration": 4, "velocity": 99}, {"time": 482, "pitch": 74, "duration": 4, "velocity": 112}, {"time": 488, "pitch": 74, "duration": 5, "velocity": 112}, {"time": 494, "pitch": 71, "duration": 3, "velocity": 107}, {"time": 497, "pitch": 74, "duration": 10, "velocity": 96}, {"time": 518, "pitch": 71, "duration": 2, "velocity": 107}, {"time": 521, "pitch": 69, "duration": 2, "velocity": 90}, {"time": 524, "pitch": 67, "duration": 4, "velocity": 97}, {"time": 530, "pitch": 67, "duration": 1, "velocity": 96}, {"time": 533, "pitch": 67, "duration": 5, "velocity": 99}, {"time": 539, "pitch": 71, "duration": 6, "velocity": 117}, {"time": 548, "pitch": 69, "duration": 5, "velocity": 117}, {"time": 554, "pitch": 71, "duration": 2, "velocity": 95}, {"time": 557, "pitch": 62, "duration": 9, "velocity": 95}, {"time": 569, "pitch": 62, "duration": 2, "velocity": 86}, {"time": 572, "pitch": 71, "duration": 5, "velocity": 99}, {"time": 578, "pitch": 69, "duration": 2, "velocity": 79}, {"time": 581, "pitch": 69, "duration": 21, "velocity": 100}, {"time": 620, "pitch": 71, "duration": 4, "velocity": 122}, {"time": 626, "pitch": 69, "duration": 4, "velocity": 93}, {"time": 632, "pitch": 71, "duration": 3, "velocity": 117}, {"time": 638, "pitch": 69, "duration": 1, "velocity": 95}, {"time": 641, "pitch": 71, "duration": 8, "velocity": 127}, {"time": 662, "pitch": 67, "duration": 3, "velocity": 99}, {"time": 665, "pitch": 66, "duration": 2, "velocity": 96}, {"time": 668, "pitch": 66, "duration": 5, "velocity": 102}, {"time": 674, "pitch": 74, "duration": 4, "velocity": 112}, {"time": 680, "pitch": 74, "duration": 4, "velocity": 122}, {"time": 686, "pitch": 76, "duration": 1, "velocity": 112}, {"time": 689, "pitch": 76, "duration": 6, "velocity": 99}, {"time": 695, "pitch": 74, "duration": 9, "velocity": 102}, {"time": 710, "pitch": 71, "duration": 3, "velocity": 100}, {"time": 713, "pitch": 74, "duration": 3, "velocity": 102}, {"time": 716, "pitch": 76, "duration": 4, "velocity": 122}, {"time": 722, "pitch": 76, "duration": 5, "velocity": 122}, {"time": 734, "pitch": 76, "duration": 2, "velocity": 107}, {"time": 737, "pitch": 71, "duration": 2, "velocity": 86}, {"time": 740, "pitch": 74, "duration": 3, "velocity": 112}, {"time": 746, "pitch": 76, "duration": 2, "velocity": 102}, {"time": 749, "pitch": 74, "duration": 6, "velocity": 112}, {"time": 758, "pitch": 74, "duration": 2, "velocity": 107}, {"time": 761, "pitch": 71, "duration": 2, "velocity": 95}, {"time": 764, "pitch": 69, "duration": 3, "velocity": 95}, {"time": 770, "pitch": 69, "duration": 1, "velocity": 99}, {"time": 773, "pitch": 69, "duration": 5, "velocity": 99}, {"time": 788, "pitch": 74, "duration": 6, "velocity": 107}, {"time": 797, "pitch": 76, "duration": 24, "velocity": 127}, {"time": 854, "pitch": 71, "duration": 3, "velocity": 112}, {"time": 857, "pitch": 74, "duration": 2, "velocity": 99}, {"time": 860, "pitch": 79, "duration": 3, "velocity": 117}, {"time": 866, "pitch": 79, "duration": 2, "velocity": 122}, {"time": 869, "pitch": 78, "duration": 4, "velocity": 100}, {"time": 875, "pitch": 76, "duration": 4, "velocity": 112}, {"time": 884, "pitch": 78, "duration": 3, "velocity": 127}, {"time": 890, "pitch": 78, "duration": 2, "velocity": 122}, {"time": 893, "pitch": 76, "duration": 3, "velocity": 112}, {"time": 899, "pitch": 74, "duration": 4, "velocity": 107}, {"time": 908, "pitch": 64, "duration": 4, "velocity": 117}, {"time": 914, "pitch": 64, "duration": 2, "velocity": 100}, {"time": 917, "pitch": 76, "duration": 4, "velocity": 117}, {"time": 926, "pitch": 74, "duration": 4, "velocity": 127}, {"time": 932, "pitch": 71, "duration": 6, "velocity": 127}, {"time": 950, "pitch": 71, "duration": 1, "velocity": 122}, {"time": 953, "pitch": 71, "duration": 1, "velocity": 96}, {"time": 956, "pitch": 69, "duration": 4, "velocity": 127}, {"time": 962, "pitch": 69, "duration": 2, "velocity": 122}, {"time": 965, "pitch": 71, "duration": 4, "velocity": 127}, {"time": 971, "pitch": 72, "duration": 4, "velocity": 127}, {"time": 980, "pitch": 71, "duration": 3, "velocity": 117}, {"time": 986, "pitch": 71, "duration": 2, "velocity": 112}, {"time": 989, "pitch": 79, "duration": 3, "velocity": 112}, {"time": 995, "pitch": 76, "duration": 4, "velocity": 117}, {"time": 1004, "pitch": 72, "duration": 3, "velocity": 102}, {"time": 1010, "pitch": 72, "duration": 2, "velocity": 100}, {"time": 1013, "pitch": 74, "duration": 3, "velocity": 112}, {"time": 1019, "pitch": 76, "duration": 6, "velocity": 127}, {"time": 1028, "pitch": 74, "duration": 4, "velocity": 127}, {"time": 1034, "pitch": 74, "duration": 2, "velocity": 100}, {"time": 1037, "pitch": 76, "duration": 3, "velocity": 100}, {"time": 1043, "pitch": 78, "duration": 5, "velocity": 122}, {"time": 1052, "pitch": 79, "duration": 4, "velocity": 127}, {"time": 1058, "pitch": 79, "duration": 2, "velocity": 96}, {"time": 1061, "pitch": 78, "duration": 3, "velocity": 127}, {"time": 1067, "pitch": 76, "duration": 4, "velocity": 127}, {"time": 1076, "pitch": 78, "duration": 3, "velocity": 127}, {"time": 1082, "pitch": 78, "duration": 1, "velocity": 122}, {"time": 1085, "pitch": 76, "duration": 3, "velocity": 102}, {"time": 1091, "pitch": 74, "duration": 4, "velocity": 107}, {"time": 1100, "pitch": 64, "duration": 3, "velocity": 102}, {"time": 1106, "pitch": 64, "duration": 1, "velocity": 107}, {"time": 1109, "pitch": 76, "duration": 4, "velocity": 127}, {"time": 1118, "pitch": 74, "duration": 3, "velocity": 117}, {"time": 1124, "pitch": 71, "duration": 7, "velocity": 117}, {"time": 1142, "pitch": 71, "duration": 1, "velocity": 117}, {"time": 1145, "pitch": 71, "duration": 1, "velocity": 112}, {"time": 1148, "pitch": 69, "duration": 4, "velocity": 112}, {"time": 1154, "pitch": 69, "duration": 2, "velocity": 102}, {"time": 1157, "pitch": 71, "duration": 4, "velocity": 102}, {"time": 1163, "pitch": 72, "duration": 4, "velocity": 117}, {"time": 1172, "pitch": 71, "duration": 3, "velocity": 112}, {"time": 1178, "pitch": 71, "duration": 2, "velocity": 97}, {"time": 1181, "pitch": 79, "duration": 4, "velocity": 112}, {"time": 1187, "pitch": 76, "duration": 4, "velocity": 117}, {"time": 1196, "pitch": 72, "duration": 3, "velocity": 117}, {"time": 1202, "pitch": 72, "duration": 2, "velocity": 100}, {"time": 1205, "pitch": 74, "duration": 3, "velocity": 122}, {"time": 1211, "pitch": 76, "duration": 6, "velocity": 127}, {"time": 1220, "pitch": 74, "duration": 3, "velocity": 127}, {"time": 1226, "pitch": 74, "duration": 2, "velocity": 112}, {"time": 1229, "pitch": 76, "duration": 3, "velocity": 117}, {"time": 1235, "pitch": 78, "duration": 9, "velocity": 127}, {"time": 1256, "pitch": 79, "duration": 6, "velocity": 127}, {"time": 1262, "pitch": 78, "duration": 6, "velocity": 85}, {"time": 1268, "pitch": 76, "duration": 26, "velocity": 99}, {"time": 1316, "pitch": 64, "duration": 12, "velocity": 97}, {"time": 1328, "pitch": 67, "duration": 5, "velocity": 122}, {"time": 1334, "pitch": 69, "duration": 7, "velocity": 99}, {"time": 1340, "pitch": 71, "duration": 20, "velocity": 122}, {"time": 1364, "pitch": 72, "duration": 16, "velocity": 117}, {"time": 1382, "pitch": 74, "duration": 4, "velocity": 112}, {"time": 1385, "pitch": 76, "duration": 2, "velocity": 100}, {"time": 1388, "pitch": 71, "duration": 18, "velocity": 102}, {"time": 1412, "pitch": 67, "duration": 11, "velocity": 100}, {"time": 1424, "pitch": 69, "duration": 6, "velocity": 107}, {"time": 1430, "pitch": 71, "duration": 6, "velocity": 117}, {"time": 1436, "pitch": 66, "duration": 24, "velocity": 112}, {"time": 1508, "pitch": 71, "duration": 4, "velocity": 112}, {"time": 1514, "pitch": 69, "duration": 3, "velocity": 93}, {"time": 1520, "pitch": 71, "duration": 3, "velocity": 112}, {"time": 1526, "pitch": 69, "duration": 1, "velocity": 93}, {"time": 1529, "pitch": 71, "duration": 15, "velocity": 127}, {"time": 1550, "pitch": 67, "duration": 2, "velocity": 93}, {"time": 1553, "pitch": 66, "duration": 1, "velocity": 92}, {"time": 1556, "pitch": 66, "duration": 4, "velocity": 99}, {"time": 1562, "pitch": 74, "duration": 4, "velocity": 112}, {"time": 1568, "pitch": 74, "duration": 5, "velocity": 112}, {"time": 1574, "pitch": 71, "duration": 3, "velocity": 107}, {"time": 1577, "pitch": 74, "duration": 10, "velocity": 96}, {"time": 1598, "pitch": 71, "duration": 2, "velocity": 107}, {"time": 1601, "pitch": 69, "duration": 2, "velocity": 90}, {"time": 1604, "pitch": 67, "duration": 4, "velocity": 97}, {"time": 1610, "pitch": 67, "duration": 1, "velocity": 96}, {"time": 1613, "pitch": 67, "duration": 5, "velocity": 99}, {"time": 1619, "pitch": 71, "duration": 6, "velocity": 117}, {"time": 1628, "pitch": 69, "duration": 5, "velocity": 117}, {"time": 1634, "pitch": 71, "duration": 2, "velocity": 95}, {"time": 1637, "pitch": 62, "duration": 9, "velocity": 95}, {"time": 1649, "pitch": 62, "duration": 2, "velocity": 86}, {"time": 1652, "pitch": 71, "duration": 5, "velocity": 99}, {"time": 1658, "pitch": 69, "duration": 2, "velocity": 79}, {"time": 1661, "pitch": 69, "duration": 21, "velocity": 100}, {"time": 1700, "pitch": 71, "duration": 4, "velocity": 122}, {"time": 1706, "pitch": 69, "duration": 4, "velocity": 93}, {"time": 1712, "pitch": 71, "duration": 3, "velocity": 117}, {"time": 1718, "pitch": 69, "duration": 1, "velocity": 95}, {"time": 1721, "pitch": 71, "duration": 8, "velocity": 127}, {"time": 1742, "pitch": 67, "duration": 3, "velocity": 99}, {"time": 1745, "pitch": 66, "duration": 2, "velocity": 96}, {"time": 1748, "pitch": 66, "duration": 5, "velocity": 102}, {"time": 1754, "pitch": 74, "duration": 4, "velocity": 112}, {"time": 1760, "pitch": 74, "duration": 4, "velocity": 122}, {"time": 1766, "pitch": 76, "duration": 1, "velocity": 112}, {"time": 1769, "pitch": 76, "duration": 6, "velocity": 99}, {"time": 1775, "pitch": 74, "duration": 9, "velocity": 102}, {"time": 1790, "pitch": 71, "duration": 3, "velocity": 100}, {"time": 1793, "pitch": 74, "duration": 3, "velocity": 102}, {"time": 1796, "pitch": 76, "duration": 4, "velocity": 122}, {"time": 1802, "pitch": 76, "duration": 5, "velocity": 122}, {"time": 1814, "pitch": 76, "duration": 2, "velocity": 107}, {"time": 1817, "pitch": 71, "duration": 2, "velocity": 86}, {"time": 1820, "pitch": 74, "duration": 3, "velocity": 112}, {"time": 1826, "pitch": 76, "duration": 2, "velocity": 102}, {"time": 1829, "pitch": 74, "duration": 6, "velocity": 112}, {"time": 1838, "pitch": 74, "duration": 2, "velocity": 107}, {"time": 1841, "pitch": 71, "duration": 2, "velocity": 95}, {"time": 1844, "pitch": 69, "duration": 3, "velocity": 95}, {"time": 1850, "pitch": 69, "duration": 1, "velocity": 99}, {"time": 1853, "pitch": 69, "duration": 5, "velocity": 99}, {"time": 1868, "pitch": 74, "duration": 6, "velocity": 107}, {"time": 1877, "pitch": 76, "duration": 24, "velocity": 127}, {"time": 1910, "pitch": 71, "duration": 3, "velocity": 112}, {"time": 1913, "pitch": 74, "duration": 2, "velocity": 99}, {"time": 1916, "pitch": 79, "duration": 3, "velocity": 117}, {"time": 1922, "pitch": 79, "duration": 2, "velocity": 122}, {"time": 1925, "pitch": 78, "duration": 4, "velocity": 100}, {"time": 1931, "pitch": 76, "duration": 4, "velocity": 112}, {"time": 1940, "pitch": 78, "duration": 3, "velocity": 127}, {"time": 1946, "pitch": 78, "duration": 2, "velocity": 122}, {"time": 1949, "pitch": 76, "duration": 3, "velocity": 112}, {"time": 1955, "pitch": 74, "duration": 4, "velocity": 107}, {"time": 1964, "pitch": 64, "duration": 4, "velocity": 117}, {"time": 1970, "pitch": 64, "duration": 2, "velocity": 100}, {"time": 1973, "pitch": 76, "duration": 4, "velocity": 117}, {"time": 1982, "pitch": 74, "duration": 4, "velocity": 127}, {"time": 1988, "pitch": 71, "duration": 6, "velocity": 127}, {"time": 2006, "pitch": 71, "duration": 1, "velocity": 122}, {"time": 2009, "pitch": 71, "duration": 1, "velocity": 96}, {"time": 2012, "pitch": 69, "duration": 4, "velocity": 127}, {"time": 2018, "pitch": 69, "duration": 2, "velocity": 122}, {"time": 2021, "pitch": 71, "duration": 4, "velocity": 127}, {"time": 2027, "pitch": 72, "duration": 4, "velocity": 127}, {"time": 2036, "pitch": 71, "duration": 3, "velocity": 117}, {"time": 2042, "pitch": 71, "duration": 2, "velocity": 112}, {"time": 2045, "pitch": 79, "duration": 3, "velocity": 112}, {"time": 2051, "pitch": 76, "duration": 4, "velocity": 117}, {"time": 2060, "pitch": 72, "duration": 3, "velocity": 102}, {"time": 2066, "pitch": 72, "duration": 2, "velocity": 100}, {"time": 2069, "pitch": 74, "duration": 3, "velocity": 112}, {"time": 2075, "pitch": 76, "duration": 6, "velocity": 127}, {"time": 2084, "pitch": 74, "duration": 4, "velocity": 127}, {"time": 2090, "pitch": 74, "duration": 2, "velocity": 100}, {"time": 2093, "pitch": 76, "duration": 3, "velocity": 100}, {"time": 2099, "pitch": 78, "duration": 5, "velocity": 122}, {"time": 2108, "pitch": 79, "duration": 4, "velocity": 127}, {"time": 2114, "pitch": 79, "duration": 2, "velocity": 96}, {"time": 2117, "pitch": 78, "duration": 3, "velocity": 127}, {"time": 2123, "pitch": 76, "duration": 4, "velocity": 127}, {"time": 2132, "pitch": 78, "duration": 3, "velocity": 127}, {"time": 2138, "pitch": 78, "duration": 1, "velocity": 122}, {"time": 2141, "pitch": 76, "duration": 3, "velocity": 102}, {"time": 2147, "pitch": 74, "duration": 4, "velocity": 107}, {"time": 2156, "pitch": 64, "duration": 3, "velocity": 102}, {"time": 2162, "pitch": 64, "duration": 1, "velocity": 107}, {"time": 2165, "pitch": 76, "duration": 4, "velocity": 127}, {"time": 2174, "pitch": 74, "duration": 3, "velocity": 117}, {"time": 2180, "pitch": 71, "duration": 7, "velocity": 117}, {"time": 2198, "pitch": 71, "duration": 1, "velocity": 117}, {"time": 2201, "pitch": 71, "duration": 1, "velocity": 112}, {"time": 2204, "pitch": 69, "duration": 4, "velocity": 112}, {"time": 2210, "pitch": 69, "duration": 2, "velocity": 102}, {"time": 2213, "pitch": 71, "duration": 4, "velocity": 102}, {"time": 2219, "pitch": 72, "duration": 4, "velocity": 117}, {"time": 2228, "pitch": 71, "duration": 3, "velocity": 112}, {"time": 2234, "pitch": 71, "duration": 2, "velocity": 97}, {"time": 2237, "pitch": 79, "duration": 4, "velocity": 112}, {"time": 2243, "pitch": 76, "duration": 4, "velocity": 117}, {"time": 2252, "pitch": 72, "duration": 3, "velocity": 117}, {"time": 2258, "pitch": 72, "duration": 2, "velocity": 100}, {"time": 2261, "pitch": 74, "duration": 3, "velocity": 122}, {"time": 2267, "pitch": 76, "duration": 6, "velocity": 127}, {"time": 2276, "pitch": 74, "duration": 3, "velocity": 127}, {"time": 2282, "pitch": 74, "duration": 2, "velocity": 112}, {"time": 2285, "pitch": 76, "duration": 3, "velocity": 117}, {"time": 2291, "pitch": 78, "duration": 9, "velocity": 127}, {"time": 2312, "pitch": 79, "duration": 6, "velocity": 127}, {"time": 2318, "pitch": 78, "duration": 6, "velocity": 85}, {"time": 2324, "pitch": 76, "duration": 26, "velocity": 99}, {"time": 2372, "pitch": 76, "duration": 16, "velocity": 102}, {"time": 2390, "pitch": 74, "duration": 3, "velocity": 127}, {"time": 2393, "pitch": 71, "duration": 2, "velocity": 68}, {"time": 2396, "pitch": 71, "duration": 17, "velocity": 83}, {"time": 2420, "pitch": 64, "duration": 3, "velocity": 102}, {"time": 2426, "pitch": 64, "duration": 2, "velocity": 90}, {"time": 2429, "pitch": 76, "duration": 8, "velocity": 122}, {"time": 2438, "pitch": 74, "duration": 5, "velocity": 102}, {"time": 2444, "pitch": 71, "duration": 17, "velocity": 102}, {"time": 2462, "pitch": 71, "duration": 1, "velocity": 127}, {"time": 2465, "pitch": 71, "duration": 2, "velocity": 112}, {"time": 2468, "pitch": 69, "duration": 4, "velocity": 127}, {"time": 2474, "pitch": 69, "duration": 2, "velocity": 122}, {"time": 2477, "pitch": 71, "duration": 4, "velocity": 122}, {"time": 2483, "pitch": 72, "duration": 5, "velocity": 127}, {"time": 2492, "pitch": 71, "duration": 4, "velocity": 122}, {"time": 2498, "pitch": 71, "duration": 2, "velocity": 97}, {"time": 2501, "pitch": 79, "duration": 4, "velocity": 122}, {"time": 2507, "pitch": 76, "duration": 6, "velocity": 127}, {"time": 2516, "pitch": 72, "duration": 3, "velocity": 107}, {"time": 2522, "pitch": 72, "duration": 2, "velocity": 97}, {"time": 2525, "pitch": 74, "duration": 4, "velocity": 127}, {"time": 2531, "pitch": 76, "duration": 4, "velocity": 127}, {"time": 2540, "pitch": 74, "duration": 3, "velocity": 122}, {"time": 2546, "pitch": 74, "duration": 2, "velocity": 107}, {"time": 2549, "pitch": 76, "duration": 4, "velocity": 127}, {"time": 2555, "pitch": 78, "duration": 4, "velocity": 127}, {"time": 2564, "pitch": 79, "duration": 4, "velocity": 127}, {"time": 2570, "pitch": 79, "duration": 2, "velocity": 96}, {"time": 2573, "pitch": 78, "duration": 3, "velocity": 127}, {"time": 2579, "pitch": 76, "duration": 4, "velocity": 127}, {"time": 2588, "pitch": 78, "duration": 3, "velocity": 127}, {"time": 2594, "pitch": 78, "duration": 1, "velocity": 122}, {"time": 2597, "pitch": 76, "duration": 3, "velocity": 102}, {"time": 2603, "pitch": 74, "duration": 4, "velocity": 107}, {"time": 2612, "pitch": 64, "duration": 3, "velocity": 102}, {"time": 2618, "pitch": 64, "duration": 1, "velocity": 107}, {"time": 2621, "pitch": 76, "duration": 4, "velocity": 127}, {"time": 2630, "pitch": 74, "duration": 3, "velocity": 117}, {"time": 2636, "pitch": 71, "duration": 7, "velocity": 117}, {"time": 2654, "pitch": 71, "duration": 1, "velocity": 117}, {"time": 2657, "pitch": 71, "duration": 1, "velocity": 112}, {"time": 2660, "pitch": 69, "duration": 4, "velocity": 112}, {"time": 2666, "pitch": 69, "duration": 2, "velocity": 102}, {"time": 2669, "pitch": 71, "duration": 4, "velocity": 102}, {"time": 2675, "pitch": 72, "duration": 4, "velocity": 117}, {"time": 2684, "pitch": 71, "duration": 3, "velocity": 112}, {"time": 2690, "pitch": 71, "duration": 2, "velocity": 97}, {"time": 2693, "pitch": 79, "duration": 4, "velocity": 112}, {"time": 2699, "pitch": 76, "duration": 4, "velocity": 117}, {"time": 2708, "pitch": 72, "duration": 3, "velocity": 117}, {"time": 2714, "pitch": 72, "duration": 2, "velocity": 100}, {"time": 2717, "pitch": 74, "duration": 3, "velocity": 122}, {"time": 2723, "pitch": 76, "duration": 6, "velocity": 127}, {"time": 2732, "pitch": 74, "duration": 3, "velocity": 127}, {"time": 2738, "pitch": 74, "duration": 2, "velocity": 112}, {"time": 2741, "pitch": 76, "duration": 3, "velocity": 117}, {"time": 2747, "pitch": 78, "duration": 9, "velocity": 127}, {"time": 2768, "pitch": 79, "duration": 6, "velocity": 127}, {"time": 2774, "pitch": 78, "duration": 6, "velocity": 85}, {"time": 2780, "pitch": 76, "duration": 26, "velocity": 99}]}, {"program": 0, "is_drum": false, "name": "BRIDGE", "notes": [{"time": 15, "pitch": 83, "duration": 5, "velocity": 86}, {"time": 19, "pitch": 91, "duration": 6, "velocity": 97}, {"time": 25, "pitch": 90, "duration": 7, "velocity": 93}, {"time": 32, "pitch": 88, "duration": 5, "velocity": 92}, {"time": 37, "pitch": 86, "duration": 11, "velocity": 88}, {"time": 50, "pitch": 83, "duration": 15, "velocity": 95}, {"time": 55, "pitch": 71, "duration": 4, "velocity": 90}, {"time": 59, "pitch": 76, "duration": 5, "velocity": 92}, {"time": 63, "pitch": 78, "duration": 4, "velocity": 93}, {"time": 66, "pitch": 79, "duration": 7, "velocity": 95}, {"time": 70, "pitch": 81, "duration": 5, "velocity": 89}, {"time": 75, "pitch": 83, "duration": 7, "velocity": 99}, {"time": 81, "pitch": 90, "duration": 7, "velocity": 117}, {"time": 88, "pitch": 86, "duration": 20, "velocity": 100}, {"time": 113, "pitch": 71, "duration": 7, "velocity": 72}, {"time": 119, "pitch": 79, "duration": 11, "velocity": 96}, {"time": 128, "pitch": 79, "duration": 2, "velocity": 90}, {"time": 132, "pitch": 71, "duration": 5, "velocity": 85}, {"time": 135, "pitch": 76, "duration": 4, "velocity": 97}, {"time": 139, "pitch": 74, "duration": 12, "velocity": 95}, {"time": 149, "pitch": 71, "duration": 53, "velocity": 93}, {"time": 209, "pitch": 66, "duration": 2, "velocity": 117}, {"time": 210, "pitch": 67, "duration": 3, "velocity": 93}, {"time": 212, "pitch": 69, "duration": 7, "velocity": 107}, {"time": 221, "pitch": 71, "duration": 9, "velocity": 117}, {"time": 230, "pitch": 71, "duration": 6, "velocity": 127}, {"time": 236, "pitch": 72, "duration": 20, "velocity": 127}, {"time": 258, "pitch": 74, "duration": 74, "velocity": 127}, {"time": 344, "pitch": 71, "duration": 12, "velocity": 83}, {"time": 356, "pitch": 69, "duration": 13, "velocity": 73}, {"time": 368, "pitch": 71, "duration": 12, "velocity": 68}, {"time": 392, "pitch": 71, "duration": 13, "velocity": 81}, {"time": 404, "pitch": 69, "duration": 12, "velocity": 71}, {"time": 416, "pitch": 71, "duration": 10, "velocity": 65}, {"time": 788, "pitch": 62, "duration": 9, "velocity": 127}, {"time": 797, "pitch": 64, "duration": 14, "velocity": 127}, {"time": 812, "pitch": 66, "duration": 8, "velocity": 127}, {"time": 821, "pitch": 67, "duration": 9, "velocity": 127}, {"time": 836, "pitch": 69, "duration": 8, "velocity": 127}, {"time": 845, "pitch": 71, "duration": 13, "velocity": 127}, {"time": 1268, "pitch": 76, "duration": 5, "velocity": 99}, {"time": 1274, "pitch": 79, "duration": 5, "velocity": 102}, {"time": 1280, "pitch": 79, "duration": 9, "velocity": 107}, {"time": 1286, "pitch": 78, "duration": 4, "velocity": 112}, {"time": 1289, "pitch": 76, "duration": 3, "velocity": 82}, {"time": 1292, "pitch": 74, "duration": 16, "velocity": 95}, {"time": 1316, "pitch": 69, "duration": 6, "velocity": 97}, {"time": 1322, "pitch": 76, "duration": 4, "velocity": 99}, {"time": 1328, "pitch": 76, "duration": 8, "velocity": 102}, {"time": 1334, "pitch": 67, "duration": 3, "velocity": 96}, {"time": 1337, "pitch": 69, "duration": 3, "velocity": 89}, {"time": 1340, "pitch": 71, "duration": 16, "velocity": 96}, {"time": 1355, "pitch": 67, "duration": 3, "velocity": 92}, {"time": 1358, "pitch": 66, "duration": 3, "velocity": 88}, {"time": 1361, "pitch": 62, "duration": 3, "velocity": 77}, {"time": 1364, "pitch": 60, "duration": 3, "velocity": 89}, {"time": 1367, "pitch": 59, "duration": 3, "velocity": 55}, {"time": 1370, "pitch": 60, "duration": 3, "velocity": 44}, {"time": 1373, "pitch": 59, "duration": 3, "velocity": 42}, {"time": 1376, "pitch": 60, "duration": 4, "velocity": 69}, {"time": 1379, "pitch": 60, "duration": 1, "velocity": 96}, {"time": 1382, "pitch": 59, "duration": 3, "velocity": 69}, {"time": 1385, "pitch": 60, "duration": 3, "velocity": 79}, {"time": 1388, "pitch": 62, "duration": 6, "velocity": 77}, {"time": 1403, "pitch": 62, "duration": 4, "velocity": 86}, {"time": 1409, "pitch": 60, "duration": 1, "velocity": 81}, {"time": 1410, "pitch": 62, "duration": 2, "velocity": 74}, {"time": 1412, "pitch": 64, "duration": 6, "velocity": 86}, {"time": 1421, "pitch": 62, "duration": 5, "velocity": 89}, {"time": 1427, "pitch": 64, "duration": 7, "velocity": 93}, {"time": 1433, "pitch": 67, "duration": 3, "velocity": 72}, {"time": 1436, "pitch": 69, "duration": 12, "velocity": 93}, {"time": 1454, "pitch": 62, "duration": 20, "velocity": 72}, {"time": 1455, "pitch": 67, "duration": 19, "velocity": 73}, {"time": 1456, "pitch": 69, "duration": 16, "velocity": 75}, {"time": 1457, "pitch": 74, "duration": 17, "velocity": 77}, {"time": 1458, "pitch": 81, "duration": 16, "velocity": 77}, {"time": 1459, "pitch": 86, "duration": 16, "velocity": 102}, {"time": 1868, "pitch": 62, "duration": 9, "velocity": 127}, {"time": 1877, "pitch": 64, "duration": 14, "velocity": 127}, {"time": 1892, "pitch": 66, "duration": 8, "velocity": 127}, {"time": 1901, "pitch": 67, "duration": 9, "velocity": 127}, {"time": 2780, "pitch": 83, "duration": 9, "velocity": 81}, {"time": 2786, "pitch": 91, "duration": 8, "velocity": 99}, {"time": 2793, "pitch": 88, "duration": 28, "velocity": 112}, {"time": 2809, "pitch": 83, "duration": 14, "velocity": 72}, {"time": 2816, "pitch": 71, "duration": 8, "velocity": 68}, {"time": 2822, "pitch": 76, "duration": 7, "velocity": 63}, {"time": 2828, "pitch": 78, "duration": 12, "velocity": 61}, {"time": 2834, "pitch": 81, "duration": 11, "velocity": 72}, {"time": 2844, "pitch": 83, "duration": 17, "velocity": 74}, {"time": 2858, "pitch": 71, "duration": 6, "velocity": 75}, {"time": 2863, "pitch": 79, "duration": 7, "velocity": 99}, {"time": 2870, "pitch": 78, "duration": 9, "velocity": 97}, {"time": 2878, "pitch": 76, "duration": 9, "velocity": 95}, {"time": 2887, "pitch": 74, "duration": 15, "velocity": 89}, {"time": 2898, "pitch": 71, "duration": 63, "velocity": 79}, {"time": 2976, "pitch": 28, "duration": 59, "velocity": 85}, {"time": 2976, "pitch": 88, "duration": 51, "velocity": 77}, {"time": 2976, "pitch": 100, "duration": 51, "velocity": 79}]}, {"program": 0, "is_drum": false, "name": "PIANO", "notes": [{"time": 18, "pitch": 69, "duration": 5, "velocity": 77}, {"time": 22, "pitch": 76, "duration": 7, "velocity": 78}, {"time": 30, "pitch": 81, "duration": 10, "velocity": 92}, {"time": 50, "pitch": 52, "duration": 64, "velocity": 72}, {"time": 54, "pitch": 59, "duration": 57, "velocity": 63}, {"time": 59, "pitch": 64, "duration": 16, "velocity": 79}, {"time": 63, "pitch": 67, "duration": 50, "velocity": 79}, {"time": 68, "pitch": 71, "duration": 44, "velocity": 93}, {"time": 78, "pitch": 64, "duration": 36, "velocity": 57}, {"time": 120, "pitch": 48, "duration": 29, "velocity": 68}, {"time": 124, "pitch": 55, "duration": 24, "velocity": 59}, {"time": 129, "pitch": 60, "duration": 21, "velocity": 63}, {"time": 134, "pitch": 64, "duration": 13, "velocity": 61}, {"time": 141, "pitch": 67, "duration": 6, "velocity": 54}, {"time": 150, "pitch": 47, "duration": 60, "velocity": 69}, {"time": 154, "pitch": 54, "duration": 56, "velocity": 56}, {"time": 159, "pitch": 59, "duration": 19, "velocity": 51}, {"time": 164, "pitch": 62, "duration": 17, "velocity": 66}, {"time": 169, "pitch": 66, "duration": 41, "velocity": 48}, {"time": 174, "pitch": 71, "duration": 36, "velocity": 65}, {"time": 180, "pitch": 59, "duration": 30, "velocity": 64}, {"time": 186, "pitch": 62, "duration": 24, "velocity": 54}, {"time": 212, "pitch": 45, "duration": 8, "velocity": 69}, {"time": 212, "pitch": 57, "duration": 7, "velocity": 97}, {"time": 212, "pitch": 60, "duration": 8, "velocity": 102}, {"time": 212, "pitch": 64, "duration": 6, "velocity": 93}, {"time": 221, "pitch": 47, "duration": 11, "velocity": 96}, {"time": 221, "pitch": 59, "duration": 9, "velocity": 95}, {"time": 221, "pitch": 62, "duration": 9, "velocity": 99}, {"time": 221, "pitch": 66, "duration": 10, "velocity": 100}, {"time": 230, "pitch": 47, "duration": 2, "velocity": 89}, {"time": 230, "pitch": 59, "duration": 1, "velocity": 82}, {"time": 230, "pitch": 62, "duration": 1, "velocity": 96}, {"time": 230, "pitch": 66, "duration": 1, "velocity": 100}, {"time": 236, "pitch": 48, "duration": 22, "velocity": 93}, {"time": 236, "pitch": 60, "duration": 22, "velocity": 89}, {"time": 236, "pitch": 64, "duration": 20, "velocity": 92}, {"time": 236, "pitch": 67, "duration": 21, "velocity": 89}, {"time": 260, "pitch": 38, "duration": 16, "velocity": 60}, {"time": 260, "pitch": 50, "duration": 17, "velocity": 89}, {"time": 260, "pitch": 57, "duration": 18, "velocity": 93}, {"time": 260, "pitch": 62, "duration": 18, "velocity": 95}, {"time": 260, "pitch": 66, "duration": 18, "velocity": 92}, {"time": 284, "pitch": 26, "duration": 29, "velocity": 81}, {"time": 332, "pitch": 43, "duration": 46, "velocity": 64}, {"time": 338, "pitch": 50, "duration": 43, "velocity": 55}, {"time": 344, "pitch": 59, "duration": 25, "velocity": 81}, {"time": 350, "pitch": 55, "duration": 10, "velocity": 58}, {"time": 356, "pitch": 67, "duration": 11, "velocity": 74}, {"time": 362, "pitch": 55, "duration": 8, "velocity": 52}, {"time": 368, "pitch": 62, "duration": 19, "velocity": 67}, {"time": 368, "pitch": 67, "duration": 24, "velocity": 63}, {"time": 374, "pitch": 59, "duration": 13, "velocity": 69}, {"time": 380, "pitch": 43, "duration": 45, "velocity": 72}, {"time": 386, "pitch": 50, "duration": 42, "velocity": 56}, {"time": 389, "pitch": 59, "duration": 1, "velocity": 22}, {"time": 392, "pitch": 59, "duration": 12, "velocity": 60}, {"time": 392, "pitch": 62, "duration": 7, "velocity": 75}, {"time": 392, "pitch": 67, "duration": 12, "velocity": 61}, {"time": 398, "pitch": 55, "duration": 9, "velocity": 67}, {"time": 404, "pitch": 62, "duration": 12, "velocity": 73}, {"time": 410, "pitch": 55, "duration": 7, "velocity": 54}, {"time": 416, "pitch": 67, "duration": 12, "velocity": 97}, {"time": 419, "pitch": 55, "duration": 2, "velocity": 70}, {"time": 422, "pitch": 62, "duration": 6, "velocity": 73}, {"time": 425, "pitch": 59, "duration": 3, "velocity": 68}, {"time": 428, "pitch": 43, "duration": 37, "velocity": 82}, {"time": 434, "pitch": 50, "duration": 34, "velocity": 44}, {"time": 440, "pitch": 55, "duration": 15, "velocity": 79}, {"time": 446, "pitch": 59, "duration": 19, "velocity": 66}, {"time": 452, "pitch": 67, "duration": 24, "velocity": 88}, {"time": 458, "pitch": 55, "duration": 5, "velocity": 58}, {"time": 464, "pitch": 62, "duration": 12, "velocity": 85}, {"time": 470, "pitch": 59, "duration": 6, "velocity": 62}, {"time": 476, "pitch": 47, "duration": 40, "velocity": 79}, {"time": 482, "pitch": 54, "duration": 9, "velocity": 53}, {"time": 488, "pitch": 66, "duration": 11, "velocity": 96}, {"time": 494, "pitch": 54, "duration": 9, "velocity": 67}, {"time": 500, "pitch": 62, "duration": 10, "velocity": 81}, {"time": 500, "pitch": 66, "duration": 8, "velocity": 74}, {"time": 506, "pitch": 54, "duration": 8, "velocity": 68}, {"time": 512, "pitch": 66, "duration": 12, "velocity": 122}, {"time": 515, "pitch": 62, "duration": 4, "velocity": 64}, {"time": 518, "pitch": 59, "duration": 6, "velocity": 86}, {"time": 524, "pitch": 36, "duration": 21, "velocity": 78}, {"time": 530, "pitch": 43, "duration": 16, "velocity": 58}, {"time": 536, "pitch": 48, "duration": 10, "velocity": 66}, {"time": 542, "pitch": 55, "duration": 6, "velocity": 73}, {"time": 548, "pitch": 47, "duration": 17, "velocity": 88}, {"time": 554, "pitch": 54, "duration": 9, "velocity": 83}, {"time": 560, "pitch": 66, "duration": 11, "velocity": 112}, {"time": 563, "pitch": 54, "duration": 2, "velocity": 66}, {"time": 566, "pitch": 62, "duration": 5, "velocity": 89}, {"time": 572, "pitch": 41, "duration": 18, "velocity": 85}, {"time": 578, "pitch": 48, "duration": 12, "velocity": 52}, {"time": 584, "pitch": 53, "duration": 3, "velocity": 56}, {"time": 584, "pitch": 57, "duration": 7, "velocity": 86}, {"time": 590, "pitch": 60, "duration": 1, "velocity": 69}, {"time": 596, "pitch": 38, "duration": 2, "velocity": 62}, {"time": 596, "pitch": 45, "duration": 1, "velocity": 71}, {"time": 596, "pitch": 50, "duration": 1, "velocity": 68}, {"time": 596, "pitch": 57, "duration": 1, "velocity": 92}, {"time": 596, "pitch": 62, "duration": 1, "velocity": 100}, {"time": 596, "pitch": 66, "duration": 1, "velocity": 96}, {"time": 605, "pitch": 38, "duration": 12, "velocity": 68}, {"time": 605, "pitch": 45, "duration": 13, "velocity": 74}, {"time": 605, "pitch": 50, "duration": 13, "velocity": 88}, {"time": 605, "pitch": 57, "duration": 13, "velocity": 93}, {"time": 605, "pitch": 62, "duration": 13, "velocity": 96}, {"time": 605, "pitch": 66, "duration": 13, "velocity": 99}, {"time": 620, "pitch": 43, "duration": 45, "velocity": 88}, {"time": 626, "pitch": 50, "duration": 42, "velocity": 56}, {"time": 632, "pitch": 55, "duration": 5, "velocity": 68}, {"time": 632, "pitch": 67, "duration": 22, "velocity": 96}, {"time": 638, "pitch": 55, "duration": 9, "velocity": 71}, {"time": 644, "pitch": 71, "duration": 11, "velocity": 107}, {"time": 650, "pitch": 55, "duration": 8, "velocity": 79}, {"time": 656, "pitch": 67, "duration": 13, "velocity": 107}, {"time": 659, "pitch": 55, "duration": 4, "velocity": 53}, {"time": 662, "pitch": 62, "duration": 7, "velocity": 97}, {"time": 668, "pitch": 47, "duration": 40, "velocity": 83}, {"time": 674, "pitch": 54, "duration": 11, "velocity": 61}, {"time": 680, "pitch": 66, "duration": 21, "velocity": 122}, {"time": 686, "pitch": 54, "duration": 10, "velocity": 82}, {"time": 692, "pitch": 62, "duration": 11, "velocity": 100}, {"time": 698, "pitch": 54, "duration": 9, "velocity": 82}, {"time": 704, "pitch": 66, "duration": 9, "velocity": 127}, {"time": 710, "pitch": 62, "duration": 6, "velocity": 96}, {"time": 716, "pitch": 36, "duration": 23, "velocity": 88}, {"time": 722, "pitch": 43, "duration": 18, "velocity": 57}, {"time": 725, "pitch": 48, "duration": 14, "velocity": 44}, {"time": 728, "pitch": 64, "duration": 12, "velocity": 122}, {"time": 734, "pitch": 60, "duration": 6, "velocity": 78}, {"time": 737, "pitch": 55, "duration": 4, "velocity": 65}, {"time": 740, "pitch": 47, "duration": 16, "velocity": 88}, {"time": 746, "pitch": 54, "duration": 9, "velocity": 85}, {"time": 752, "pitch": 66, "duration": 11, "velocity": 127}, {"time": 758, "pitch": 62, "duration": 5, "velocity": 93}, {"time": 764, "pitch": 41, "duration": 23, "velocity": 90}, {"time": 770, "pitch": 48, "duration": 12, "velocity": 46}, {"time": 776, "pitch": 53, "duration": 5, "velocity": 100}, {"time": 782, "pitch": 60, "duration": 4, "velocity": 95}, {"time": 788, "pitch": 40, "duration": 5, "velocity": 68}, {"time": 788, "pitch": 52, "duration": 4, "velocity": 93}, {"time": 788, "pitch": 59, "duration": 4, "velocity": 85}, {"time": 788, "pitch": 64, "duration": 4, "velocity": 89}, {"time": 788, "pitch": 67, "duration": 4, "velocity": 81}, {"time": 797, "pitch": 40, "duration": 14, "velocity": 78}, {"time": 797, "pitch": 52, "duration": 14, "velocity": 97}, {"time": 797, "pitch": 59, "duration": 13, "velocity": 96}, {"time": 797, "pitch": 64, "duration": 14, "velocity": 100}, {"time": 797, "pitch": 67, "duration": 13, "velocity": 95}, {"time": 809, "pitch": 66, "duration": 1, "velocity": 27}, {"time": 812, "pitch": 40, "duration": 2, "velocity": 63}, {"time": 812, "pitch": 52, "duration": 1, "velocity": 85}, {"time": 812, "pitch": 62, "duration": 2, "velocity": 100}, {"time": 812, "pitch": 66, "duration": 2, "velocity": 117}, {"time": 812, "pitch": 69, "duration": 1, "velocity": 97}, {"time": 821, "pitch": 40, "duration": 13, "velocity": 76}, {"time": 821, "pitch": 52, "duration": 13, "velocity": 88}, {"time": 821, "pitch": 64, "duration": 13, "velocity": 90}, {"time": 821, "pitch": 67, "duration": 10, "velocity": 107}, {"time": 821, "pitch": 71, "duration": 11, "velocity": 99}, {"time": 836, "pitch": 40, "duration": 2, "velocity": 77}, {"time": 836, "pitch": 52, "duration": 1, "velocity": 92}, {"time": 836, "pitch": 62, "duration": 2, "velocity": 100}, {"time": 836, "pitch": 66, "duration": 1, "velocity": 122}, {"time": 836, "pitch": 69, "duration": 1, "velocity": 100}, {"time": 845, "pitch": 40, "duration": 11, "velocity": 81}, {"time": 845, "pitch": 52, "duration": 10, "velocity": 96}, {"time": 845, "pitch": 64, "duration": 11, "velocity": 95}, {"time": 845, "pitch": 67, "duration": 11, "velocity": 100}, {"time": 845, "pitch": 71, "duration": 11, "velocity": 100}, {"time": 860, "pitch": 36, "duration": 17, "velocity": 96}, {"time": 863, "pitch": 43, "duration": 15, "velocity": 93}, {"time": 866, "pitch": 48, "duration": 7, "velocity": 95}, {"time": 869, "pitch": 55, "duration": 4, "velocity": 102}, {"time": 872, "pitch": 64, "duration": 11, "velocity": 107}, {"time": 875, "pitch": 48, "duration": 4, "velocity": 86}, {"time": 878, "pitch": 60, "duration": 5, "velocity": 100}, {"time": 881, "pitch": 55, "duration": 3, "velocity": 97}, {"time": 884, "pitch": 47, "duration": 18, "velocity": 73}, {"time": 887, "pitch": 54, "duration": 11, "velocity": 90}, {"time": 890, "pitch": 59, "duration": 4, "velocity": 85}, {"time": 893, "pitch": 62, "duration": 3, "velocity": 107}, {"time": 896, "pitch": 66, "duration": 10, "velocity": 127}, {"time": 899, "pitch": 54, "duration": 2, "velocity": 107}, {"time": 902, "pitch": 62, "duration": 4, "velocity": 112}, {"time": 905, "pitch": 59, "duration": 3, "velocity": 117}, {"time": 908, "pitch": 45, "duration": 7, "velocity": 93}, {"time": 911, "pitch": 52, "duration": 3, "velocity": 95}, {"time": 914, "pitch": 57, "duration": 6, "velocity": 112}, {"time": 917, "pitch": 64, "duration": 3, "velocity": 112}, {"time": 920, "pitch": 38, "duration": 9, "velocity": 86}, {"time": 923, "pitch": 45, "duration": 7, "velocity": 95}, {"time": 926, "pitch": 50, "duration": 6, "velocity": 95}, {"time": 929, "pitch": 66, "duration": 4, "velocity": 117}, {"time": 932, "pitch": 43, "duration": 22, "velocity": 58}, {"time": 935, "pitch": 50, "duration": 20, "velocity": 85}, {"time": 938, "pitch": 55, "duration": 7, "velocity": 96}, {"time": 941, "pitch": 59, "duration": 4, "velocity": 93}, {"time": 944, "pitch": 67, "duration": 12, "velocity": 127}, {"time": 947, "pitch": 55, "duration": 4, "velocity": 100}, {"time": 950, "pitch": 62, "duration": 6, "velocity": 117}, {"time": 953, "pitch": 59, "duration": 3, "velocity": 102}, {"time": 956, "pitch": 45, "duration": 18, "velocity": 89}, {"time": 959, "pitch": 52, "duration": 11, "velocity": 82}, {"time": 962, "pitch": 57, "duration": 3, "velocity": 93}, {"time": 965, "pitch": 60, "duration": 3, "velocity": 112}, {"time": 968, "pitch": 64, "duration": 12, "velocity": 112}, {"time": 971, "pitch": 52, "duration": 2, "velocity": 92}, {"time": 974, "pitch": 60, "duration": 5, "velocity": 122}, {"time": 977, "pitch": 57, "duration": 3, "velocity": 100}, {"time": 980, "pitch": 40, "duration": 18, "velocity": 92}, {"time": 983, "pitch": 47, "duration": 14, "velocity": 92}, {"time": 986, "pitch": 52, "duration": 6, "velocity": 96}, {"time": 989, "pitch": 59, "duration": 5, "velocity": 112}, {"time": 992, "pitch": 67, "duration": 11, "velocity": 127}, {"time": 995, "pitch": 52, "duration": 2, "velocity": 102}, {"time": 998, "pitch": 64, "duration": 5, "velocity": 127}, {"time": 1001, "pitch": 59, "duration": 3, "velocity": 117}, {"time": 1004, "pitch": 36, "duration": 22, "velocity": 93}, {"time": 1007, "pitch": 43, "duration": 20, "velocity": 92}, {"time": 1010, "pitch": 48, "duration": 7, "velocity": 100}, {"time": 1013, "pitch": 55, "duration": 4, "velocity": 112}, {"time": 1016, "pitch": 64, "duration": 11, "velocity": 127}, {"time": 1019, "pitch": 48, "duration": 3, "velocity": 117}, {"time": 1022, "pitch": 60, "duration": 5, "velocity": 127}, {"time": 1025, "pitch": 55, "duration": 3, "velocity": 107}, {"time": 1028, "pitch": 38, "duration": 20, "velocity": 93}, {"time": 1031, "pitch": 45, "duration": 18, "velocity": 96}, {"time": 1034, "pitch": 50, "duration": 7, "velocity": 96}, {"time": 1037, "pitch": 57, "duration": 4, "velocity": 122}, {"time": 1040, "pitch": 62, "duration": 5, "velocity": 117}, {"time": 1040, "pitch": 66, "duration": 5, "velocity": 127}, {"time": 1043, "pitch": 50, "duration": 8, "velocity": 107}, {"time": 1046, "pitch": 62, "duration": 5, "velocity": 127}, {"time": 1046, "pitch": 66, "duration": 5, "velocity": 127}, {"time": 1049, "pitch": 57, "duration": 2, "velocity": 102}, {"time": 1052, "pitch": 36, "duration": 16, "velocity": 93}, {"time": 1055, "pitch": 43, "duration": 13, "velocity": 93}, {"time": 1058, "pitch": 48, "duration": 7, "velocity": 86}, {"time": 1061, "pitch": 55, "duration": 6, "velocity": 99}, {"time": 1064, "pitch": 64, "duration": 11, "velocity": 107}, {"time": 1067, "pitch": 48, "duration": 3, "velocity": 89}, {"time": 1070, "pitch": 60, "duration": 6, "velocity": 122}, {"time": 1073, "pitch": 55, "duration": 3, "velocity": 95}, {"time": 1076, "pitch": 47, "duration": 18, "velocity": 90}, {"time": 1079, "pitch": 54, "duration": 11, "velocity": 88}, {"time": 1082, "pitch": 59, "duration": 4, "velocity": 97}, {"time": 1085, "pitch": 62, "duration": 3, "velocity": 100}, {"time": 1088, "pitch": 66, "duration": 11, "velocity": 127}, {"time": 1091, "pitch": 54, "duration": 2, "velocity": 85}, {"time": 1094, "pitch": 62, "duration": 5, "velocity": 100}, {"time": 1097, "pitch": 59, "duration": 3, "velocity": 99}, {"time": 1100, "pitch": 45, "duration": 7, "velocity": 88}, {"time": 1103, "pitch": 52, "duration": 5, "velocity": 58}, {"time": 1106, "pitch": 57, "duration": 6, "velocity": 107}, {"time": 1109, "pitch": 64, "duration": 2, "velocity": 102}, {"time": 1112, "pitch": 38, "duration": 9, "velocity": 78}, {"time": 1115, "pitch": 45, "duration": 7, "velocity": 89}, {"time": 1118, "pitch": 50, "duration": 6, "velocity": 95}, {"time": 1121, "pitch": 66, "duration": 4, "velocity": 127}, {"time": 1124, "pitch": 43, "duration": 22, "velocity": 72}, {"time": 1127, "pitch": 50, "duration": 20, "velocity": 82}, {"time": 1130, "pitch": 55, "duration": 7, "velocity": 96}, {"time": 1133, "pitch": 59, "duration": 5, "velocity": 95}, {"time": 1136, "pitch": 67, "duration": 12, "velocity": 122}, {"time": 1139, "pitch": 55, "duration": 8, "velocity": 92}, {"time": 1142, "pitch": 62, "duration": 6, "velocity": 112}, {"time": 1145, "pitch": 59, "duration": 3, "velocity": 97}, {"time": 1148, "pitch": 45, "duration": 17, "velocity": 83}, {"time": 1151, "pitch": 52, "duration": 11, "velocity": 93}, {"time": 1154, "pitch": 57, "duration": 3, "velocity": 90}, {"time": 1157, "pitch": 60, "duration": 4, "velocity": 107}, {"time": 1160, "pitch": 64, "duration": 8, "velocity": 96}, {"time": 1163, "pitch": 52, "duration": 2, "velocity": 72}, {"time": 1166, "pitch": 60, "duration": 5, "velocity": 93}, {"time": 1169, "pitch": 57, "duration": 3, "velocity": 100}, {"time": 1169, "pitch": 64, "duration": 1, "velocity": 34}, {"time": 1172, "pitch": 40, "duration": 17, "velocity": 85}, {"time": 1175, "pitch": 47, "duration": 14, "velocity": 72}, {"time": 1178, "pitch": 52, "duration": 6, "velocity": 85}, {"time": 1181, "pitch": 59, "duration": 6, "velocity": 85}, {"time": 1184, "pitch": 67, "duration": 12, "velocity": 99}, {"time": 1187, "pitch": 52, "duration": 5, "velocity": 88}, {"time": 1190, "pitch": 64, "duration": 5, "velocity": 99}, {"time": 1193, "pitch": 59, "duration": 2, "velocity": 100}, {"time": 1196, "pitch": 48, "duration": 17, "velocity": 77}, {"time": 1199, "pitch": 55, "duration": 11, "velocity": 79}, {"time": 1202, "pitch": 60, "duration": 3, "velocity": 95}, {"time": 1205, "pitch": 64, "duration": 3, "velocity": 107}, {"time": 1208, "pitch": 67, "duration": 10, "velocity": 112}, {"time": 1211, "pitch": 55, "duration": 2, "velocity": 90}, {"time": 1214, "pitch": 64, "duration": 4, "velocity": 112}, {"time": 1217, "pitch": 60, "duration": 4, "velocity": 122}, {"time": 1220, "pitch": 38, "duration": 17, "velocity": 90}, {"time": 1223, "pitch": 45, "duration": 15, "velocity": 88}, {"time": 1226, "pitch": 50, "duration": 7, "velocity": 89}, {"time": 1229, "pitch": 57, "duration": 6, "velocity": 97}, {"time": 1232, "pitch": 66, "duration": 10, "velocity": 127}, {"time": 1235, "pitch": 50, "duration": 7, "velocity": 95}, {"time": 1238, "pitch": 62, "duration": 4, "velocity": 122}, {"time": 1241, "pitch": 57, "duration": 2, "velocity": 112}, {"time": 1268, "pitch": 40, "duration": 17, "velocity": 79}, {"time": 1271, "pitch": 47, "duration": 14, "velocity": 69}, {"time": 1274, "pitch": 52, "duration": 6, "velocity": 70}, {"time": 1277, "pitch": 59, "duration": 7, "velocity": 63}, {"time": 1280, "pitch": 67, "duration": 12, "velocity": 99}, {"time": 1283, "pitch": 52, "duration": 4, "velocity": 74}, {"time": 1286, "pitch": 64, "duration": 6, "velocity": 76}, {"time": 1292, "pitch": 47, "duration": 18, "velocity": 70}, {"time": 1295, "pitch": 54, "duration": 11, "velocity": 77}, {"time": 1298, "pitch": 59, "duration": 5, "velocity": 77}, {"time": 1301, "pitch": 62, "duration": 3, "velocity": 95}, {"time": 1304, "pitch": 66, "duration": 12, "velocity": 102}, {"time": 1307, "pitch": 54, "duration": 2, "velocity": 56}, {"time": 1310, "pitch": 62, "duration": 6, "velocity": 57}, {"time": 1316, "pitch": 45, "duration": 19, "velocity": 70}, {"time": 1322, "pitch": 52, "duration": 13, "velocity": 66}, {"time": 1328, "pitch": 57, "duration": 5, "velocity": 57}, {"time": 1328, "pitch": 64, "duration": 12, "velocity": 75}, {"time": 1334, "pitch": 60, "duration": 7, "velocity": 63}, {"time": 1340, "pitch": 43, "duration": 21, "velocity": 79}, {"time": 1346, "pitch": 50, "duration": 18, "velocity": 55}, {"time": 1352, "pitch": 55, "duration": 7, "velocity": 76}, {"time": 1352, "pitch": 62, "duration": 12, "velocity": 75}, {"time": 1352, "pitch": 67, "duration": 12, "velocity": 72}, {"time": 1358, "pitch": 59, "duration": 7, "velocity": 63}, {"time": 1364, "pitch": 45, "duration": 18, "velocity": 85}, {"time": 1370, "pitch": 52, "duration": 13, "velocity": 56}, {"time": 1376, "pitch": 60, "duration": 12, "velocity": 79}, {"time": 1376, "pitch": 64, "duration": 12, "velocity": 81}, {"time": 1382, "pitch": 57, "duration": 7, "velocity": 71}, {"time": 1388, "pitch": 47, "duration": 17, "velocity": 78}, {"time": 1394, "pitch": 54, "duration": 10, "velocity": 67}, {"time": 1400, "pitch": 62, "duration": 11, "velocity": 89}, {"time": 1400, "pitch": 66, "duration": 11, "velocity": 96}, {"time": 1406, "pitch": 59, "duration": 5, "velocity": 73}, {"time": 1412, "pitch": 36, "duration": 22, "velocity": 97}, {"time": 1418, "pitch": 43, "duration": 18, "velocity": 47}, {"time": 1424, "pitch": 60, "duration": 12, "velocity": 76}, {"time": 1424, "pitch": 64, "duration": 11, "velocity": 86}, {"time": 1430, "pitch": 55, "duration": 6, "velocity": 55}, {"time": 1436, "pitch": 38, "duration": 43, "velocity": 82}, {"time": 1442, "pitch": 45, "duration": 37, "velocity": 61}, {"time": 1448, "pitch": 66, "duration": 30, "velocity": 102}, {"time": 1451, "pitch": 50, "duration": 27, "velocity": 47}, {"time": 1454, "pitch": 62, "duration": 24, "velocity": 52}, {"time": 1460, "pitch": 57, "duration": 19, "velocity": 62}, {"time": 1478, "pitch": 38, "duration": 1, "velocity": 81}, {"time": 1478, "pitch": 60, "duration": 1, "velocity": 67}, {"time": 1478, "pitch": 64, "duration": 1, "velocity": 64}, {"time": 1478, "pitch": 67, "duration": 1, "velocity": 64}, {"time": 1484, "pitch": 38, "duration": 23, "velocity": 59}, {"time": 1484, "pitch": 60, "duration": 24, "velocity": 69}, {"time": 1484, "pitch": 64, "duration": 24, "velocity": 63}, {"time": 1484, "pitch": 67, "duration": 24, "velocity": 62}, {"time": 1508, "pitch": 43, "duration": 37, "velocity": 82}, {"time": 1514, "pitch": 50, "duration": 34, "velocity": 44}, {"time": 1520, "pitch": 55, "duration": 15, "velocity": 79}, {"time": 1526, "pitch": 59, "duration": 19, "velocity": 66}, {"time": 1532, "pitch": 67, "duration": 24, "velocity": 88}, {"time": 1538, "pitch": 55, "duration": 5, "velocity": 58}, {"time": 1544, "pitch": 62, "duration": 12, "velocity": 85}, {"time": 1550, "pitch": 59, "duration": 6, "velocity": 62}, {"time": 1556, "pitch": 47, "duration": 40, "velocity": 79}, {"time": 1562, "pitch": 54, "duration": 9, "velocity": 53}, {"time": 1568, "pitch": 66, "duration": 11, "velocity": 96}, {"time": 1574, "pitch": 54, "duration": 9, "velocity": 67}, {"time": 1580, "pitch": 62, "duration": 10, "velocity": 81}, {"time": 1580, "pitch": 66, "duration": 8, "velocity": 74}, {"time": 1586, "pitch": 54, "duration": 8, "velocity": 68}, {"time": 1592, "pitch": 66, "duration": 12, "velocity": 122}, {"time": 1595, "pitch": 62, "duration": 4, "velocity": 64}, {"time": 1598, "pitch": 59, "duration": 6, "velocity": 86}, {"time": 1604, "pitch": 36, "duration": 21, "velocity": 78}, {"time": 1610, "pitch": 43, "duration": 16, "velocity": 58}, {"time": 1616, "pitch": 48, "duration": 10, "velocity": 66}, {"time": 1622, "pitch": 55, "duration": 6, "velocity": 73}, {"time": 1628, "pitch": 47, "duration": 17, "velocity": 88}, {"time": 1634, "pitch": 54, "duration": 9, "velocity": 83}, {"time": 1640, "pitch": 66, "duration": 11, "velocity": 112}, {"time": 1643, "pitch": 54, "duration": 2, "velocity": 66}, {"time": 1646, "pitch": 62, "duration": 5, "velocity": 89}, {"time": 1652, "pitch": 41, "duration": 18, "velocity": 85}, {"time": 1658, "pitch": 48, "duration": 12, "velocity": 52}, {"time": 1664, "pitch": 53, "duration": 3, "velocity": 56}, {"time": 1664, "pitch": 57, "duration": 7, "velocity": 86}, {"time": 1670, "pitch": 60, "duration": 1, "velocity": 69}, {"time": 1676, "pitch": 38, "duration": 2, "velocity": 62}, {"time": 1676, "pitch": 45, "duration": 1, "velocity": 71}, {"time": 1676, "pitch": 50, "duration": 1, "velocity": 68}, {"time": 1676, "pitch": 57, "duration": 1, "velocity": 92}, {"time": 1676, "pitch": 62, "duration": 1, "velocity": 100}, {"time": 1676, "pitch": 66, "duration": 1, "velocity": 96}, {"time": 1685, "pitch": 38, "duration": 12, "velocity": 68}, {"time": 1685, "pitch": 45, "duration": 13, "velocity": 74}, {"time": 1685, "pitch": 50, "duration": 13, "velocity": 88}, {"time": 1685, "pitch": 57, "duration": 13, "velocity": 93}, {"time": 1685, "pitch": 62, "duration": 13, "velocity": 96}, {"time": 1685, "pitch": 66, "duration": 13, "velocity": 99}, {"time": 1700, "pitch": 43, "duration": 45, "velocity": 88}, {"time": 1706, "pitch": 50, "duration": 42, "velocity": 56}, {"time": 1712, "pitch": 55, "duration": 5, "velocity": 68}, {"time": 1712, "pitch": 67, "duration": 22, "velocity": 96}, {"time": 1718, "pitch": 55, "duration": 9, "velocity": 71}, {"time": 1724, "pitch": 71, "duration": 11, "velocity": 107}, {"time": 1730, "pitch": 55, "duration": 8, "velocity": 79}, {"time": 1736, "pitch": 67, "duration": 13, "velocity": 107}, {"time": 1739, "pitch": 55, "duration": 4, "velocity": 53}, {"time": 1742, "pitch": 62, "duration": 7, "velocity": 97}, {"time": 1748, "pitch": 47, "duration": 40, "velocity": 83}, {"time": 1754, "pitch": 54, "duration": 11, "velocity": 61}, {"time": 1760, "pitch": 66, "duration": 21, "velocity": 122}, {"time": 1766, "pitch": 54, "duration": 10, "velocity": 82}, {"time": 1772, "pitch": 62, "duration": 11, "velocity": 100}, {"time": 1778, "pitch": 54, "duration": 9, "velocity": 82}, {"time": 1784, "pitch": 66, "duration": 9, "velocity": 127}, {"time": 1790, "pitch": 62, "duration": 6, "velocity": 96}, {"time": 1796, "pitch": 36, "duration": 23, "velocity": 88}, {"time": 1802, "pitch": 43, "duration": 18, "velocity": 57}, {"time": 1805, "pitch": 48, "duration": 14, "velocity": 44}, {"time": 1808, "pitch": 64, "duration": 12, "velocity": 122}, {"time": 1814, "pitch": 60, "duration": 6, "velocity": 78}, {"time": 1817, "pitch": 55, "duration": 4, "velocity": 65}, {"time": 1820, "pitch": 47, "duration": 16, "velocity": 88}, {"time": 1826, "pitch": 54, "duration": 9, "velocity": 85}, {"time": 1832, "pitch": 66, "duration": 11, "velocity": 127}, {"time": 1838, "pitch": 62, "duration": 5, "velocity": 93}, {"time": 1844, "pitch": 41, "duration": 23, "velocity": 90}, {"time": 1850, "pitch": 48, "duration": 12, "velocity": 46}, {"time": 1856, "pitch": 53, "duration": 5, "velocity": 100}, {"time": 1862, "pitch": 60, "duration": 4, "velocity": 95}, {"time": 1868, "pitch": 40, "duration": 5, "velocity": 68}, {"time": 1868, "pitch": 52, "duration": 4, "velocity": 93}, {"time": 1868, "pitch": 59, "duration": 4, "velocity": 85}, {"time": 1868, "pitch": 64, "duration": 4, "velocity": 89}, {"time": 1868, "pitch": 67, "duration": 4, "velocity": 81}, {"time": 1877, "pitch": 40, "duration": 14, "velocity": 78}, {"time": 1877, "pitch": 52, "duration": 14, "velocity": 97}, {"time": 1877, "pitch": 59, "duration": 13, "velocity": 96}, {"time": 1877, "pitch": 64, "duration": 14, "velocity": 100}, {"time": 1877, "pitch": 67, "duration": 13, "velocity": 95}, {"time": 1889, "pitch": 66, "duration": 1, "velocity": 27}, {"time": 1892, "pitch": 40, "duration": 2, "velocity": 63}, {"time": 1892, "pitch": 52, "duration": 1, "velocity": 85}, {"time": 1892, "pitch": 62, "duration": 2, "velocity": 100}, {"time": 1892, "pitch": 66, "duration": 2, "velocity": 117}, {"time": 1892, "pitch": 69, "duration": 1, "velocity": 97}, {"time": 1901, "pitch": 40, "duration": 13, "velocity": 76}, {"time": 1901, "pitch": 52, "duration": 13, "velocity": 88}, {"time": 1901, "pitch": 64, "duration": 13, "velocity": 90}, {"time": 1901, "pitch": 67, "duration": 10, "velocity": 107}, {"time": 1901, "pitch": 71, "duration": 11, "velocity": 99}, {"time": 1916, "pitch": 36, "duration": 17, "velocity": 96}, {"time": 1919, "pitch": 43, "duration": 15, "velocity": 93}, {"time": 1922, "pitch": 48, "duration": 7, "velocity": 95}, {"time": 1925, "pitch": 55, "duration": 4, "velocity": 102}, {"time": 1928, "pitch": 64, "duration": 11, "velocity": 107}, {"time": 1931, "pitch": 48, "duration": 4, "velocity": 86}, {"time": 1934, "pitch": 60, "duration": 5, "velocity": 100}, {"time": 1937, "pitch": 55, "duration": 3, "velocity": 97}, {"time": 1940, "pitch": 47, "duration": 18, "velocity": 73}, {"time": 1943, "pitch": 54, "duration": 11, "velocity": 90}, {"time": 1946, "pitch": 59, "duration": 4, "velocity": 85}, {"time": 1949, "pitch": 62, "duration": 3, "velocity": 107}, {"time": 1952, "pitch": 66, "duration": 10, "velocity": 127}, {"time": 1955, "pitch": 54, "duration": 2, "velocity": 107}, {"time": 1958, "pitch": 62, "duration": 4, "velocity": 112}, {"time": 1961, "pitch": 59, "duration": 3, "velocity": 117}, {"time": 1964, "pitch": 45, "duration": 7, "velocity": 93}, {"time": 1967, "pitch": 52, "duration": 3, "velocity": 95}, {"time": 1970, "pitch": 57, "duration": 6, "velocity": 112}, {"time": 1973, "pitch": 64, "duration": 3, "velocity": 112}, {"time": 1976, "pitch": 38, "duration": 9, "velocity": 86}, {"time": 1979, "pitch": 45, "duration": 7, "velocity": 95}, {"time": 1982, "pitch": 50, "duration": 6, "velocity": 95}, {"time": 1985, "pitch": 66, "duration": 4, "velocity": 117}, {"time": 1988, "pitch": 43, "duration": 22, "velocity": 58}, {"time": 1991, "pitch": 50, "duration": 20, "velocity": 85}, {"time": 1994, "pitch": 55, "duration": 7, "velocity": 96}, {"time": 1997, "pitch": 59, "duration": 4, "velocity": 93}, {"time": 2000, "pitch": 67, "duration": 12, "velocity": 127}, {"time": 2003, "pitch": 55, "duration": 4, "velocity": 100}, {"time": 2006, "pitch": 62, "duration": 6, "velocity": 117}, {"time": 2009, "pitch": 59, "duration": 3, "velocity": 102}, {"time": 2012, "pitch": 45, "duration": 18, "velocity": 89}, {"time": 2015, "pitch": 52, "duration": 11, "velocity": 82}, {"time": 2018, "pitch": 57, "duration": 3, "velocity": 93}, {"time": 2021, "pitch": 60, "duration": 3, "velocity": 112}, {"time": 2024, "pitch": 64, "duration": 12, "velocity": 112}, {"time": 2027, "pitch": 52, "duration": 2, "velocity": 92}, {"time": 2030, "pitch": 60, "duration": 5, "velocity": 122}, {"time": 2033, "pitch": 57, "duration": 3, "velocity": 100}, {"time": 2036, "pitch": 40, "duration": 18, "velocity": 92}, {"time": 2039, "pitch": 47, "duration": 14, "velocity": 92}, {"time": 2042, "pitch": 52, "duration": 6, "velocity": 96}, {"time": 2045, "pitch": 59, "duration": 5, "velocity": 112}, {"time": 2048, "pitch": 67, "duration": 11, "velocity": 127}, {"time": 2051, "pitch": 52, "duration": 2, "velocity": 102}, {"time": 2054, "pitch": 64, "duration": 5, "velocity": 127}, {"time": 2057, "pitch": 59, "duration": 3, "velocity": 117}, {"time": 2060, "pitch": 36, "duration": 22, "velocity": 93}, {"time": 2063, "pitch": 43, "duration": 20, "velocity": 92}, {"time": 2066, "pitch": 48, "duration": 7, "velocity": 100}, {"time": 2069, "pitch": 55, "duration": 4, "velocity": 112}, {"time": 2072, "pitch": 64, "duration": 11, "velocity": 127}, {"time": 2075, "pitch": 48, "duration": 3, "velocity": 117}, {"time": 2078, "pitch": 60, "duration": 5, "velocity": 127}, {"time": 2081, "pitch": 55, "duration": 3, "velocity": 107}, {"time": 2084, "pitch": 38, "duration": 20, "velocity": 93}, {"time": 2087, "pitch": 45, "duration": 18, "velocity": 96}, {"time": 2090, "pitch": 50, "duration": 7, "velocity": 96}, {"time": 2093, "pitch": 57, "duration": 4, "velocity": 122}, {"time": 2096, "pitch": 62, "duration": 5, "velocity": 117}, {"time": 2096, "pitch": 66, "duration": 5, "velocity": 127}, {"time": 2099, "pitch": 50, "duration": 8, "velocity": 107}, {"time": 2102, "pitch": 62, "duration": 5, "velocity": 127}, {"time": 2102, "pitch": 66, "duration": 5, "velocity": 127}, {"time": 2105, "pitch": 57, "duration": 2, "velocity": 102}, {"time": 2108, "pitch": 36, "duration": 16, "velocity": 93}, {"time": 2111, "pitch": 43, "duration": 13, "velocity": 93}, {"time": 2114, "pitch": 48, "duration": 7, "velocity": 86}, {"time": 2117, "pitch": 55, "duration": 6, "velocity": 99}, {"time": 2120, "pitch": 64, "duration": 11, "velocity": 107}, {"time": 2123, "pitch": 48, "duration": 3, "velocity": 89}, {"time": 2126, "pitch": 60, "duration": 6, "velocity": 122}, {"time": 2129, "pitch": 55, "duration": 3, "velocity": 95}, {"time": 2132, "pitch": 47, "duration": 18, "velocity": 90}, {"time": 2135, "pitch": 54, "duration": 11, "velocity": 88}, {"time": 2138, "pitch": 59, "duration": 4, "velocity": 97}, {"time": 2141, "pitch": 62, "duration": 3, "velocity": 100}, {"time": 2144, "pitch": 66, "duration": 11, "velocity": 127}, {"time": 2147, "pitch": 54, "duration": 2, "velocity": 85}, {"time": 2150, "pitch": 62, "duration": 5, "velocity": 100}, {"time": 2153, "pitch": 59, "duration": 3, "velocity": 99}, {"time": 2156, "pitch": 45, "duration": 7, "velocity": 88}, {"time": 2159, "pitch": 52, "duration": 5, "velocity": 58}, {"time": 2162, "pitch": 57, "duration": 6, "velocity": 107}, {"time": 2165, "pitch": 64, "duration": 2, "velocity": 102}, {"time": 2168, "pitch": 38, "duration": 9, "velocity": 78}, {"time": 2171, "pitch": 45, "duration": 7, "velocity": 89}, {"time": 2174, "pitch": 50, "duration": 6, "velocity": 95}, {"time": 2177, "pitch": 66, "duration": 4, "velocity": 127}, {"time": 2180, "pitch": 43, "duration": 22, "velocity": 72}, {"time": 2183, "pitch": 50, "duration": 20, "velocity": 82}, {"time": 2186, "pitch": 55, "duration": 7, "velocity": 96}, {"time": 2189, "pitch": 59, "duration": 5, "velocity": 95}, {"time": 2192, "pitch": 67, "duration": 12, "velocity": 122}, {"time": 2195, "pitch": 55, "duration": 8, "velocity": 92}, {"time": 2198, "pitch": 62, "duration": 6, "velocity": 112}, {"time": 2201, "pitch": 59, "duration": 3, "velocity": 97}, {"time": 2204, "pitch": 45, "duration": 17, "velocity": 83}, {"time": 2207, "pitch": 52, "duration": 11, "velocity": 93}, {"time": 2210, "pitch": 57, "duration": 3, "velocity": 90}, {"time": 2213, "pitch": 60, "duration": 4, "velocity": 107}, {"time": 2216, "pitch": 64, "duration": 8, "velocity": 96}, {"time": 2219, "pitch": 52, "duration": 2, "velocity": 72}, {"time": 2222, "pitch": 60, "duration": 5, "velocity": 93}, {"time": 2225, "pitch": 57, "duration": 3, "velocity": 100}, {"time": 2225, "pitch": 64, "duration": 1, "velocity": 34}, {"time": 2228, "pitch": 40, "duration": 17, "velocity": 85}, {"time": 2231, "pitch": 47, "duration": 14, "velocity": 72}, {"time": 2234, "pitch": 52, "duration": 6, "velocity": 85}, {"time": 2237, "pitch": 59, "duration": 6, "velocity": 85}, {"time": 2240, "pitch": 67, "duration": 12, "velocity": 99}, {"time": 2243, "pitch": 52, "duration": 5, "velocity": 88}, {"time": 2246, "pitch": 64, "duration": 5, "velocity": 99}, {"time": 2249, "pitch": 59, "duration": 2, "velocity": 100}, {"time": 2252, "pitch": 48, "duration": 17, "velocity": 77}, {"time": 2255, "pitch": 55, "duration": 11, "velocity": 79}, {"time": 2258, "pitch": 60, "duration": 3, "velocity": 95}, {"time": 2261, "pitch": 64, "duration": 3, "velocity": 107}, {"time": 2264, "pitch": 67, "duration": 10, "velocity": 112}, {"time": 2267, "pitch": 55, "duration": 2, "velocity": 90}, {"time": 2270, "pitch": 64, "duration": 4, "velocity": 112}, {"time": 2273, "pitch": 60, "duration": 4, "velocity": 122}, {"time": 2276, "pitch": 38, "duration": 17, "velocity": 90}, {"time": 2279, "pitch": 45, "duration": 15, "velocity": 88}, {"time": 2282, "pitch": 50, "duration": 7, "velocity": 89}, {"time": 2285, "pitch": 57, "duration": 6, "velocity": 97}, {"time": 2288, "pitch": 66, "duration": 10, "velocity": 127}, {"time": 2291, "pitch": 50, "duration": 7, "velocity": 95}, {"time": 2294, "pitch": 62, "duration": 4, "velocity": 122}, {"time": 2297, "pitch": 57, "duration": 2, "velocity": 112}, {"time": 2324, "pitch": 40, "duration": 5, "velocity": 63}, {"time": 2324, "pitch": 47, "duration": 5, "velocity": 69}, {"time": 2324, "pitch": 52, "duration": 6, "velocity": 92}, {"time": 2324, "pitch": 64, "duration": 5, "velocity": 78}, {"time": 2324, "pitch": 67, "duration": 4, "velocity": 77}, {"time": 2324, "pitch": 71, "duration": 5, "velocity": 76}, {"time": 2333, "pitch": 40, "duration": 13, "velocity": 67}, {"time": 2333, "pitch": 47, "duration": 14, "velocity": 93}, {"time": 2333, "pitch": 52, "duration": 14, "velocity": 92}, {"time": 2333, "pitch": 64, "duration": 13, "velocity": 90}, {"time": 2333, "pitch": 67, "duration": 10, "velocity": 96}, {"time": 2333, "pitch": 71, "duration": 10, "velocity": 92}, {"time": 2348, "pitch": 40, "duration": 5, "velocity": 79}, {"time": 2348, "pitch": 62, "duration": 3, "velocity": 93}, {"time": 2348, "pitch": 66, "duration": 3, "velocity": 117}, {"time": 2348, "pitch": 69, "duration": 3, "velocity": 92}, {"time": 2357, "pitch": 40, "duration": 15, "velocity": 68}, {"time": 2357, "pitch": 47, "duration": 15, "velocity": 83}, {"time": 2357, "pitch": 52, "duration": 15, "velocity": 88}, {"time": 2357, "pitch": 64, "duration": 15, "velocity": 92}, {"time": 2357, "pitch": 67, "duration": 15, "velocity": 97}, {"time": 2357, "pitch": 71, "duration": 15, "velocity": 97}, {"time": 2372, "pitch": 40, "duration": 23, "velocity": 83}, {"time": 2375, "pitch": 47, "duration": 22, "velocity": 61}, {"time": 2378, "pitch": 52, "duration": 7, "velocity": 78}, {"time": 2381, "pitch": 59, "duration": 9, "velocity": 74}, {"time": 2384, "pitch": 67, "duration": 22, "velocity": 95}, {"time": 2387, "pitch": 52, "duration": 13, "velocity": 67}, {"time": 2390, "pitch": 64, "duration": 17, "velocity": 69}, {"time": 2393, "pitch": 59, "duration": 11, "velocity": 82}, {"time": 2396, "pitch": 40, "duration": 24, "velocity": 56}, {"time": 2399, "pitch": 47, "duration": 20, "velocity": 59}, {"time": 2402, "pitch": 52, "duration": 7, "velocity": 69}, {"time": 2405, "pitch": 59, "duration": 6, "velocity": 65}, {"time": 2408, "pitch": 67, "duration": 12, "velocity": 95}, {"time": 2411, "pitch": 52, "duration": 9, "velocity": 59}, {"time": 2414, "pitch": 64, "duration": 6, "velocity": 71}, {"time": 2417, "pitch": 59, "duration": 3, "velocity": 70}, {"time": 2420, "pitch": 45, "duration": 10, "velocity": 72}, {"time": 2423, "pitch": 52, "duration": 7, "velocity": 53}, {"time": 2426, "pitch": 57, "duration": 3, "velocity": 68}, {"time": 2429, "pitch": 64, "duration": 3, "velocity": 72}, {"time": 2432, "pitch": 38, "duration": 9, "velocity": 78}, {"time": 2435, "pitch": 45, "duration": 7, "velocity": 82}, {"time": 2438, "pitch": 50, "duration": 6, "velocity": 78}, {"time": 2441, "pitch": 66, "duration": 3, "velocity": 107}, {"time": 2444, "pitch": 43, "duration": 21, "velocity": 62}, {"time": 2447, "pitch": 50, "duration": 20, "velocity": 65}, {"time": 2450, "pitch": 55, "duration": 7, "velocity": 85}, {"time": 2453, "pitch": 59, "duration": 4, "velocity": 79}, {"time": 2456, "pitch": 62, "duration": 7, "velocity": 112}, {"time": 2459, "pitch": 55, "duration": 3, "velocity": 88}, {"time": 2462, "pitch": 59, "duration": 5, "velocity": 89}, {"time": 2465, "pitch": 62, "duration": 2, "velocity": 85}, {"time": 2468, "pitch": 45, "duration": 19, "velocity": 63}, {"time": 2471, "pitch": 52, "duration": 15, "velocity": 45}, {"time": 2474, "pitch": 57, "duration": 6, "velocity": 90}, {"time": 2477, "pitch": 64, "duration": 5, "velocity": 97}, {"time": 2480, "pitch": 72, "duration": 12, "velocity": 127}, {"time": 2483, "pitch": 57, "duration": 2, "velocity": 93}, {"time": 2486, "pitch": 69, "duration": 6, "velocity": 112}, {"time": 2489, "pitch": 64, "duration": 3, "velocity": 102}, {"time": 2492, "pitch": 40, "duration": 17, "velocity": 89}, {"time": 2495, "pitch": 47, "duration": 13, "velocity": 97}, {"time": 2498, "pitch": 52, "duration": 7, "velocity": 93}, {"time": 2501, "pitch": 59, "duration": 4, "velocity": 97}, {"time": 2504, "pitch": 67, "duration": 11, "velocity": 127}, {"time": 2507, "pitch": 52, "duration": 2, "velocity": 96}, {"time": 2510, "pitch": 64, "duration": 5, "velocity": 107}, {"time": 2513, "pitch": 59, "duration": 3, "velocity": 107}, {"time": 2516, "pitch": 36, "duration": 22, "velocity": 86}, {"time": 2519, "pitch": 43, "duration": 20, "velocity": 95}, {"time": 2522, "pitch": 48, "duration": 7, "velocity": 100}, {"time": 2525, "pitch": 55, "duration": 4, "velocity": 102}, {"time": 2528, "pitch": 64, "duration": 10, "velocity": 127}, {"time": 2531, "pitch": 48, "duration": 3, "velocity": 102}, {"time": 2534, "pitch": 60, "duration": 4, "velocity": 127}, {"time": 2537, "pitch": 55, "duration": 3, "velocity": 112}, {"time": 2540, "pitch": 38, "duration": 23, "velocity": 93}, {"time": 2543, "pitch": 45, "duration": 20, "velocity": 99}, {"time": 2546, "pitch": 50, "duration": 6, "velocity": 100}, {"time": 2549, "pitch": 57, "duration": 4, "velocity": 117}, {"time": 2552, "pitch": 66, "duration": 11, "velocity": 127}, {"time": 2555, "pitch": 50, "duration": 3, "velocity": 112}, {"time": 2558, "pitch": 62, "duration": 5, "velocity": 122}, {"time": 2561, "pitch": 57, "duration": 3, "velocity": 97}, {"time": 2564, "pitch": 36, "duration": 16, "velocity": 93}, {"time": 2567, "pitch": 43, "duration": 13, "velocity": 93}, {"time": 2570, "pitch": 48, "duration": 7, "velocity": 86}, {"time": 2573, "pitch": 55, "duration": 6, "velocity": 99}, {"time": 2576, "pitch": 64, "duration": 11, "velocity": 107}, {"time": 2579, "pitch": 48, "duration": 3, "velocity": 89}, {"time": 2582, "pitch": 60, "duration": 6, "velocity": 122}, {"time": 2585, "pitch": 55, "duration": 3, "velocity": 95}, {"time": 2588, "pitch": 47, "duration": 18, "velocity": 90}, {"time": 2591, "pitch": 54, "duration": 11, "velocity": 88}, {"time": 2594, "pitch": 59, "duration": 4, "velocity": 97}, {"time": 2597, "pitch": 62, "duration": 3, "velocity": 100}, {"time": 2600, "pitch": 66, "duration": 11, "velocity": 127}, {"time": 2603, "pitch": 54, "duration": 2, "velocity": 85}, {"time": 2606, "pitch": 62, "duration": 5, "velocity": 100}, {"time": 2609, "pitch": 59, "duration": 3, "velocity": 99}, {"time": 2612, "pitch": 45, "duration": 7, "velocity": 88}, {"time": 2615, "pitch": 52, "duration": 5, "velocity": 58}, {"time": 2618, "pitch": 57, "duration": 6, "velocity": 107}, {"time": 2621, "pitch": 64, "duration": 2, "velocity": 102}, {"time": 2624, "pitch": 38, "duration": 9, "velocity": 78}, {"time": 2627, "pitch": 45, "duration": 7, "velocity": 89}, {"time": 2630, "pitch": 50, "duration": 6, "velocity": 95}, {"time": 2633, "pitch": 66, "duration": 4, "velocity": 127}, {"time": 2636, "pitch": 43, "duration": 22, "velocity": 72}, {"time": 2639, "pitch": 50, "duration": 20, "velocity": 82}, {"time": 2642, "pitch": 55, "duration": 7, "velocity": 96}, {"time": 2645, "pitch": 59, "duration": 5, "velocity": 95}, {"time": 2648, "pitch": 67, "duration": 12, "velocity": 122}, {"time": 2651, "pitch": 55, "duration": 8, "velocity": 92}, {"time": 2654, "pitch": 62, "duration": 6, "velocity": 112}, {"time": 2657, "pitch": 59, "duration": 3, "velocity": 97}, {"time": 2660, "pitch": 45, "duration": 17, "velocity": 83}, {"time": 2663, "pitch": 52, "duration": 11, "velocity": 93}, {"time": 2666, "pitch": 57, "duration": 3, "velocity": 90}, {"time": 2669, "pitch": 60, "duration": 4, "velocity": 107}, {"time": 2672, "pitch": 64, "duration": 8, "velocity": 96}, {"time": 2675, "pitch": 52, "duration": 2, "velocity": 72}, {"time": 2678, "pitch": 60, "duration": 5, "velocity": 93}, {"time": 2681, "pitch": 57, "duration": 3, "velocity": 100}, {"time": 2681, "pitch": 64, "duration": 1, "velocity": 34}, {"time": 2684, "pitch": 40, "duration": 17, "velocity": 85}, {"time": 2687, "pitch": 47, "duration": 14, "velocity": 72}, {"time": 2690, "pitch": 52, "duration": 6, "velocity": 85}, {"time": 2693, "pitch": 59, "duration": 6, "velocity": 85}, {"time": 2696, "pitch": 67, "duration": 12, "velocity": 99}, {"time": 2699, "pitch": 52, "duration": 5, "velocity": 88}, {"time": 2702, "pitch": 64, "duration": 5, "velocity": 99}, {"time": 2705, "pitch": 59, "duration": 2, "velocity": 100}, {"time": 2708, "pitch": 48, "duration": 17, "velocity": 77}, {"time": 2711, "pitch": 55, "duration": 11, "velocity": 79}, {"time": 2714, "pitch": 60, "duration": 3, "velocity": 95}, {"time": 2717, "pitch": 64, "duration": 3, "velocity": 107}, {"time": 2720, "pitch": 67, "duration": 10, "velocity": 112}, {"time": 2723, "pitch": 55, "duration": 2, "velocity": 90}, {"time": 2726, "pitch": 64, "duration": 4, "velocity": 112}, {"time": 2729, "pitch": 60, "duration": 4, "velocity": 122}, {"time": 2732, "pitch": 38, "duration": 17, "velocity": 90}, {"time": 2735, "pitch": 45, "duration": 15, "velocity": 88}, {"time": 2738, "pitch": 50, "duration": 7, "velocity": 89}, {"time": 2741, "pitch": 57, "duration": 6, "velocity": 97}, {"time": 2744, "pitch": 66, "duration": 10, "velocity": 127}, {"time": 2747, "pitch": 50, "duration": 7, "velocity": 95}, {"time": 2750, "pitch": 62, "duration": 4, "velocity": 122}, {"time": 2753, "pitch": 57, "duration": 2, "velocity": 112}, {"time": 2780, "pitch": 40, "duration": 85, "velocity": 60}, {"time": 2786, "pitch": 47, "duration": 79, "velocity": 36}, {"time": 2793, "pitch": 52, "duration": 72, "velocity": 40}, {"time": 2799, "pitch": 55, "duration": 66, "velocity": 48}, {"time": 2806, "pitch": 59, "duration": 59, "velocity": 37}, {"time": 2813, "pitch": 64, "duration": 52, "velocity": 32}, {"time": 2864, "pitch": 36, "duration": 32, "velocity": 69}, {"time": 2870, "pitch": 43, "duration": 26, "velocity": 42}, {"time": 2875, "pitch": 48, "duration": 23, "velocity": 51}, {"time": 2881, "pitch": 55, "duration": 17, "velocity": 61}, {"time": 2889, "pitch": 64, "duration": 9, "velocity": 40}, {"time": 2889, "pitch": 60, "duration": 8, "velocity": 52}, {"time": 2899, "pitch": 47, "duration": 73, "velocity": 73}, {"time": 2905, "pitch": 54, "duration": 66, "velocity": 59}, {"time": 2910, "pitch": 59, "duration": 61, "velocity": 76}, {"time": 2914, "pitch": 62, "duration": 9, "velocity": 70}, {"time": 2919, "pitch": 66, "duration": 5, "velocity": 76}, {"time": 2923, "pitch": 71, "duration": 3, "velocity": 53}, {"time": 2928, "pitch": 74, "duration": 34, "velocity": 68}, {"time": 2933, "pitch": 78, "duration": 30, "velocity": 59}, {"time": 2939, "pitch": 83, "duration": 24, "velocity": 55}, {"time": 2954, "pitch": 86, "duration": 9, "velocity": 64}, {"time": 2977, "pitch": 68, "duration": 63, "velocity": 63}, {"time": 2977, "pitch": 59, "duration": 63, "velocity": 63}, {"time": 2977, "pitch": 64, "duration": 63, "velocity": 52}, {"time": 2977, "pitch": 71, "duration": 63, "velocity": 61}, {"time": 2978, "pitch": 56, "duration": 62, "velocity": 27}], "annotations": [{"time": 272, "annotation": {"number": 64, "value": 127}, "group": "control_change"}, {"time": 286, "annotation": {"number": 64, "value": 0}, "group": "control_change"}, {"time": 295, "annotation": {"number": 64, "value": 127}, "group": "control_change"}, {"time": 332, "annotation": {"number": 64, "value": 127}, "group": "control_change"}, {"time": 376, "annotation": {"number": 64, "value": 0}, "group": "control_change"}, {"time": 380, "annotation": {"number": 64, "value": 127}, "group": "control_change"}, {"time": 425, "annotation": {"number": 64, "value": 0}, "group": "control_change"}, {"time": 428, "annotation": {"number": 64, "value": 127}, "group": "control_change"}, {"time": 474, "annotation": {"number": 64, "value": 0}, "group": "control_change"}, {"time": 476, "annotation": {"number": 64, "value": 127}, "group": "control_change"}, {"time": 522, "annotation": {"number": 64, "value": 0}, "group": "control_change"}, {"time": 524, "annotation": {"number": 64, "value": 127}, "group": "control_change"}, {"time": 547, "annotation": {"number": 64, "value": 0}, "group": "control_change"}, {"time": 550, "annotation": {"number": 64, "value": 127}, "group": "control_change"}, {"time": 570, "annotation": {"number": 64, "value": 0}, "group": "control_change"}, {"time": 572, "annotation": {"number": 64, "value": 127}, "group": "control_change"}, {"time": 594, "annotation": {"number": 64, "value": 0}, "group": "control_change"}, {"time": 620, "annotation": {"number": 64, "value": 127}, "group": "control_change"}, {"time": 665, "annotation": {"number": 64, "value": 0}, "group": "control_change"}, {"time": 668, "annotation": {"number": 64, "value": 127}, "group": "control_change"}, {"time": 713, "annotation": {"number": 64, "value": 0}, "group": "control_change"}, {"time": 716, "annotation": {"number": 64, "value": 127}, "group": "control_change"}, {"time": 737, "annotation": {"number": 64, "value": 0}, "group": "control_change"}, {"time": 740, "annotation": {"number": 64, "value": 127}, "group": "control_change"}, {"time": 761, "annotation": {"number": 64, "value": 0}, "group": "control_change"}, {"time": 764, "annotation": {"number": 64, "value": 127}, "group": "control_change"}, {"time": 785, "annotation": {"number": 64, "value": 0}, "group": "control_change"}, {"time": 860, "annotation": {"number": 64, "value": 127}, "group": "control_change"}, {"time": 881, "annotation": {"number": 64, "value": 0}, "group": "control_change"}, {"time": 883, "annotation": {"number": 64, "value": 127}, "group": "control_change"}, {"time": 905, "annotation": {"number": 64, "value": 0}, "group": "control_change"}, {"time": 907, "annotation": {"number": 64, "value": 127}, "group": "control_change"}, {"time": 918, "annotation": {"number": 64, "value": 0}, "group": "control_change"}, {"time": 919, "annotation": {"number": 64, "value": 127}, "group": "control_change"}, {"time": 930, "annotation": {"number": 64, "value": 0}, "group": "control_change"}, {"time": 931, "annotation": {"number": 64, "value": 127}, "group": "control_change"}, {"time": 953, "annotation": {"number": 64, "value": 0}, "group": "control_change"}, {"time": 956, "annotation": {"number": 64, "value": 127}, "group": "control_change"}, {"time": 977, "annotation": {"number": 64, "value": 0}, "group": "control_change"}, {"time": 979, "annotation": {"number": 64, "value": 127}, "group": "control_change"}, {"time": 1001, "annotation": {"number": 64, "value": 0}, "group": "control_change"}, {"time": 1003, "annotation": {"number": 64, "value": 127}, "group": "control_change"}, {"time": 1025, "annotation": {"number": 64, "value": 0}, "group": "control_change"}, {"time": 1027, "annotation": {"number": 64, "value": 127}, "group": "control_change"}, {"time": 1049, "annotation": {"number": 64, "value": 0}, "group": "control_change"}, {"time": 1051, "annotation": {"number": 64, "value": 127}, "group": "control_change"}, {"time": 1052, "annotation": {"number": 64, "value": 127}, "group": "control_change"}, {"time": 1074, "annotation": {"number": 64, "value": 0}, "group": "control_change"}, {"time": 1076, "annotation": {"number": 64, "value": 127}, "group": "control_change"}, {"time": 1097, "annotation": {"number": 64, "value": 0}, "group": "control_change"}, {"time": 1099, "annotation": {"number": 64, "value": 127}, "group": "control_change"}, {"time": 1110, "annotation": {"number": 64, "value": 0}, "group": "control_change"}, {"time": 1112, "annotation": {"number": 64, "value": 127}, "group": "control_change"}, {"time": 1122, "annotation": {"number": 64, "value": 0}, "group": "control_change"}, {"time": 1124, "annotation": {"number": 64, "value": 127}, "group": "control_change"}, {"time": 1146, "annotation": {"number": 64, "value": 0}, "group": "control_change"}, {"time": 1147, "annotation": {"number": 64, "value": 127}, "group": "control_change"}, {"time": 1170, "annotation": {"number": 64, "value": 0}, "group": "control_change"}, {"time": 1172, "annotation": {"number": 64, "value": 127}, "group": "control_change"}, {"time": 1193, "annotation": {"number": 64, "value": 0}, "group": "control_change"}, {"time": 1195, "annotation": {"number": 64, "value": 127}, "group": "control_change"}, {"time": 1218, "annotation": {"number": 64, "value": 0}, "group": "control_change"}, {"time": 1220, "annotation": {"number": 64, "value": 127}, "group": "control_change"}, {"time": 1241, "annotation": {"number": 64, "value": 0}, "group": "control_change"}, {"time": 1244, "annotation": {"number": 64, "value": 127}, "group": "control_change"}, {"time": 1254, "annotation": {"number": 64, "value": 0}, "group": "control_change"}, {"time": 1268, "annotation": {"number": 64, "value": 127}, "group": "control_change"}, {"time": 1289, "annotation": {"number": 64, "value": 0}, "group": "control_change"}, {"time": 1292, "annotation": {"number": 64, "value": 127}, "group": "control_change"}, {"time": 1314, "annotation": {"number": 64, "value": 0}, "group": "control_change"}, {"time": 1316, "annotation": {"number": 64, "value": 127}, "group": "control_change"}, {"time": 1336, "annotation": {"number": 64, "value": 0}, "group": "control_change"}, {"time": 1340, "annotation": {"number": 64, "value": 127}, "group": "control_change"}, {"time": 1359, "annotation": {"number": 64, "value": 0}, "group": "control_change"}, {"time": 1364, "annotation": {"number": 64, "value": 127}, "group": "control_change"}, {"time": 1384, "annotation": {"number": 64, "value": 0}, "group": "control_change"}, {"time": 1388, "annotation": {"number": 64, "value": 127}, "group": "control_change"}, {"time": 1409, "annotation": {"number": 64, "value": 0}, "group": "control_change"}, {"time": 1412, "annotation": {"number": 64, "value": 127}, "group": "control_change"}, {"time": 1432, "annotation": {"number": 64, "value": 0}, "group": "control_change"}, {"time": 1436, "annotation": {"number": 64, "value": 127}, "group": "control_change"}, {"time": 1459, "annotation": {"number": 64, "value": 0}, "group": "control_change"}, {"time": 1508, "annotation": {"number": 64, "value": 127}, "group": "control_change"}, {"time": 1554, "annotation": {"number": 64, "value": 0}, "group": "control_change"}, {"time": 1556, "annotation": {"number": 64, "value": 127}, "group": "control_change"}, {"time": 1602, "annotation": {"number": 64, "value": 0}, "group": "control_change"}, {"time": 1604, "annotation": {"number": 64, "value": 127}, "group": "control_change"}, {"time": 1627, "annotation": {"number": 64, "value": 0}, "group": "control_change"}, {"time": 1630, "annotation": {"number": 64, "value": 127}, "group": "control_change"}, {"time": 1650, "annotation": {"number": 64, "value": 0}, "group": "control_change"}, {"time": 1652, "annotation": {"number": 64, "value": 127}, "group": "control_change"}, {"time": 1674, "annotation": {"number": 64, "value": 0}, "group": "control_change"}, {"time": 1700, "annotation": {"number": 64, "value": 127}, "group": "control_change"}, {"time": 1745, "annotation": {"number": 64, "value": 0}, "group": "control_change"}, {"time": 1748, "annotation": {"number": 64, "value": 127}, "group": "control_change"}, {"time": 1793, "annotation": {"number": 64, "value": 0}, "group": "control_change"}, {"time": 1796, "annotation": {"number": 64, "value": 127}, "group": "control_change"}, {"time": 1817, "annotation": {"number": 64, "value": 0}, "group": "control_change"}, {"time": 1820, "annotation": {"number": 64, "value": 127}, "group": "control_change"}, {"time": 1841, "annotation": {"number": 64, "value": 0}, "group": "control_change"}, {"time": 1844, "annotation": {"number": 64, "value": 127}, "group": "control_change"}, {"time": 1865, "annotation": {"number": 64, "value": 0}, "group": "control_change"}, {"time": 1916, "annotation": {"number": 64, "value": 127}, "group": "control_change"}, {"time": 1937, "annotation": {"number": 64, "value": 0}, "group": "control_change"}, {"time": 1939, "annotation": {"number": 64, "value": 127}, "group": "control_change"}, {"time": 1961, "annotation": {"number": 64, "value": 0}, "group": "control_change"}, {"time": 1963, "annotation": {"number": 64, "value": 127}, "group": "control_change"}, {"time": 1974, "annotation": {"number": 64, "value": 0}, "group": "control_change"}, {"time": 1975, "annotation": {"number": 64, "value": 127}, "group": "control_change"}, {"time": 1986, "annotation": {"number": 64, "value": 0}, "group": "control_change"}, {"time": 1987, "annotation": {"number": 64, "value": 127}, "group": "control_change"}, {"time": 2009, "annotation": {"number": 64, "value": 0}, "group": "control_change"}, {"time": 2012, "annotation": {"number": 64, "value": 127}, "group": "control_change"}, {"time": 2033, "annotation": {"number": 64, "value": 0}, "group": "control_change"}, {"time": 2035, "annotation": {"number": 64, "value": 127}, "group": "control_change"}, {"time": 2057, "annotation": {"number": 64, "value": 0}, "group": "control_change"}, {"time": 2059, "annotation": {"number": 64, "value": 127}, "group": "control_change"}, {"time": 2081, "annotation": {"number": 64, "value": 0}, "group": "control_change"}, {"time": 2083, "annotation": {"number": 64, "value": 127}, "group": "control_change"}, {"time": 2105, "annotation": {"number": 64, "value": 0}, "group": "control_change"}, {"time": 2107, "annotation": {"number": 64, "value": 127}, "group": "control_change"}, {"time": 2108, "annotation": {"number": 64, "value": 127}, "group": "control_change"}, {"time": 2130, "annotation": {"number": 64, "value": 0}, "group": "control_change"}, {"time": 2132, "annotation": {"number": 64, "value": 127}, "group": "control_change"}, {"time": 2153, "annotation": {"number": 64, "value": 0}, "group": "control_change"}, {"time": 2155, "annotation": {"number": 64, "value": 127}, "group": "control_change"}, {"time": 2166, "annotation": {"number": 64, "value": 0}, "group": "control_change"}, {"time": 2168, "annotation": {"number": 64, "value": 127}, "group": "control_change"}, {"time": 2178, "annotation": {"number": 64, "value": 0}, "group": "control_change"}, {"time": 2180, "annotation": {"number": 64, "value": 127}, "group": "control_change"}, {"time": 2202, "annotation": {"number": 64, "value": 0}, "group": "control_change"}, {"time": 2203, "annotation": {"number": 64, "value": 127}, "group": "control_change"}, {"time": 2226, "annotation": {"number": 64, "value": 0}, "group": "control_change"}, {"time": 2228, "annotation": {"number": 64, "value": 127}, "group": "control_change"}, {"time": 2249, "annotation": {"number": 64, "value": 0}, "group": "control_change"}, {"time": 2251, "annotation": {"number": 64, "value": 127}, "group": "control_change"}, {"time": 2274, "annotation": {"number": 64, "value": 0}, "group": "control_change"}, {"time": 2276, "annotation": {"number": 64, "value": 127}, "group": "control_change"}, {"time": 2297, "annotation": {"number": 64, "value": 0}, "group": "control_change"}, {"time": 2300, "annotation": {"number": 64, "value": 127}, "group": "control_change"}, {"time": 2310, "annotation": {"number": 64, "value": 0}, "group": "control_change"}, {"time": 2324, "annotation": {"number": 64, "value": 127}, "group": "control_change"}, {"time": 2330, "annotation": {"number": 64, "value": 0}, "group": "control_change"}, {"time": 2335, "annotation": {"number": 64, "value": 127}, "group": "control_change"}, {"time": 2344, "annotation": {"number": 64, "value": 0}, "group": "control_change"}, {"time": 2348, "annotation": {"number": 64, "value": 127}, "group": "control_change"}, {"time": 2352, "annotation": {"number": 64, "value": 0}, "group": "control_change"}, {"time": 2360, "annotation": {"number": 64, "value": 127}, "group": "control_change"}, {"time": 2366, "annotation": {"number": 64, "value": 0}, "group": "control_change"}, {"time": 2372, "annotation": {"number": 64, "value": 127}, "group": "control_change"}, {"time": 2393, "annotation": {"number": 64, "value": 0}, "group": "control_change"}, {"time": 2396, "annotation": {"number": 64, "value": 127}, "group": "control_change"}, {"time": 2418, "annotation": {"number": 64, "value": 0}, "group": "control_change"}, {"time": 2420, "annotation": {"number": 64, "value": 127}, "group": "control_change"}, {"time": 2430, "annotation": {"number": 64, "value": 0}, "group": "control_change"}, {"time": 2432, "annotation": {"number": 64, "value": 127}, "group": "control_change"}, {"time": 2441, "annotation": {"number": 64, "value": 0}, "group": "control_change"}, {"time": 2444, "annotation": {"number": 64, "value": 127}, "group": "control_change"}, {"time": 2465, "annotation": {"number": 64, "value": 0}, "group": "control_change"}, {"time": 2468, "annotation": {"number": 64, "value": 127}, "group": "control_change"}, {"time": 2489, "annotation": {"number": 64, "value": 0}, "group": "control_change"}, {"time": 2492, "annotation": {"number": 64, "value": 127}, "group": "control_change"}, {"time": 2514, "annotation": {"number": 64, "value": 0}, "group": "control_change"}, {"time": 2516, "annotation": {"number": 64, "value": 127}, "group": "control_change"}, {"time": 2537, "annotation": {"number": 64, "value": 0}, "group": "control_change"}, {"time": 2540, "annotation": {"number": 64, "value": 127}, "group": "control_change"}, {"time": 2560, "annotation": {"number": 64, "value": 0}, "group": "control_change"}, {"time": 2586, "annotation": {"number": 64, "value": 0}, "group": "control_change"}, {"time": 2588, "annotation": {"number": 64, "value": 127}, "group": "control_change"}, {"time": 2609, "annotation": {"number": 64, "value": 0}, "group": "control_change"}, {"time": 2611, "annotation": {"number": 64, "value": 127}, "group": "control_change"}, {"time": 2622, "annotation": {"number": 64, "value": 0}, "group": "control_change"}, {"time": 2624, "annotation": {"number": 64, "value": 127}, "group": "control_change"}, {"time": 2634, "annotation": {"number": 64, "value": 0}, "group": "control_change"}, {"time": 2636, "annotation": {"number": 64, "value": 127}, "group": "control_change"}, {"time": 2658, "annotation": {"number": 64, "value": 0}, "group": "control_change"}, {"time": 2659, "annotation": {"number": 64, "value": 127}, "group": "control_change"}, {"time": 2682, "annotation": {"number": 64, "value": 0}, "group": "control_change"}, {"time": 2684, "annotation": {"number": 64, "value": 127}, "group": "control_change"}, {"time": 2705, "annotation": {"number": 64, "value": 0}, "group": "control_change"}, {"time": 2707, "annotation": {"number": 64, "value": 127}, "group": "control_change"}, {"time": 2730, "annotation": {"number": 64, "value": 0}, "group": "control_change"}, {"time": 2732, "annotation": {"number": 64, "value": 127}, "group": "control_change"}, {"time": 2753, "annotation": {"number": 64, "value": 0}, "group": "control_change"}, {"time": 2756, "annotation": {"number": 64, "value": 127}, "group": "control_change"}, {"time": 2766, "annotation": {"number": 64, "value": 0}, "group": "control_change"}, {"time": 2782, "annotation": {"number": 64, "value": 127}, "group": "control_change"}, {"time": 2851, "annotation": {"number": 64, "value": 0}, "group": "control_change"}, {"time": 2865, "annotation": {"number": 64, "value": 127}, "group": "control_change"}, {"time": 2906, "annotation": {"number": 64, "value": 127}, "group": "control_change"}, {"time": 2979, "annotation": {"number": 64, "value": 0}, "group": "control_change"}, {"time": 3030, "annotation": {"number": 64, "value": 127}, "group": "control_change"}, {"time": 3052, "annotation": {"number": 64, "value": 0}, "group": "control_change"}, {"time": 3053, "annotation": {"number": 64, "value": 127}, "group": "control_change"}]}]}