{"metadata": {"schema_version": "0.2", "title": "None", "source_filename": "477.mid", "source_format": "midi"}, "resolution": 12, "tempos": [{"time": 0, "qpm": 89.00004005001803}], "time_signatures": [{"time": 0, "numerator": 1, "denominator": 4}], "tracks": [{"program": 4, "is_drum": false, "name": "MELODY", "notes": [{"time": 423, "pitch": 58, "duration": 4, "velocity": 99}, {"time": 429, "pitch": 60, "duration": 5, "velocity": 90}, {"time": 435, "pitch": 63, "duration": 14, "velocity": 95}, {"time": 453, "pitch": 65, "duration": 7, "velocity": 95}, {"time": 459, "pitch": 67, "duration": 6, "velocity": 85}, {"time": 465, "pitch": 65, "duration": 5, "velocity": 88}, {"time": 471, "pitch": 63, "duration": 6, "velocity": 86}, {"time": 477, "pitch": 60, "duration": 7, "velocity": 85}, {"time": 483, "pitch": 63, "duration": 27, "velocity": 97}, {"time": 519, "pitch": 67, "duration": 3, "velocity": 97}, {"time": 525, "pitch": 70, "duration": 3, "velocity": 102}, {"time": 531, "pitch": 72, "duration": 6, "velocity": 122}, {"time": 543, "pitch": 72, "duration": 5, "velocity": 107}, {"time": 549, "pitch": 70, "duration": 5, "velocity": 90}, {"time": 555, "pitch": 67, "duration": 4, "velocity": 92}, {"time": 561, "pitch": 60, "duration": 3, "velocity": 90}, {"time": 567, "pitch": 60, "duration": 4, "velocity": 96}, {"time": 573, "pitch": 63, "duration": 3, "velocity": 93}, {"time": 579, "pitch": 65, "duration": 20, "velocity": 95}, {"time": 627, "pitch": 67, "duration": 7, "velocity": 96}, {"time": 639, "pitch": 65, "duration": 4, "velocity": 90}, {"time": 645, "pitch": 67, "duration": 4, "velocity": 90}, {"time": 651, "pitch": 70, "duration": 11, "velocity": 107}, {"time": 675, "pitch": 65, "duration": 6, "velocity": 99}, {"time": 684, "pitch": 67, "duration": 5, "velocity": 100}, {"time": 693, "pitch": 63, "duration": 6, "velocity": 97}, {"time": 699, "pitch": 60, "duration": 8, "velocity": 95}, {"time": 711, "pitch": 60, "duration": 4, "velocity": 95}, {"time": 717, "pitch": 63, "duration": 4, "velocity": 102}, {"time": 723, "pitch": 65, "duration": 2, "velocity": 92}, {"time": 729, "pitch": 65, "duration": 2, "velocity": 99}, {"time": 735, "pitch": 65, "duration": 2, "velocity": 100}, {"time": 741, "pitch": 67, "duration": 5, "velocity": 102}, {"time": 747, "pitch": 65, "duration": 4, "velocity": 102}, {"time": 759, "pitch": 65, "duration": 5, "velocity": 97}, {"time": 765, "pitch": 63, "duration": 6, "velocity": 90}, {"time": 771, "pitch": 65, "duration": 31, "velocity": 99}, {"time": 807, "pitch": 58, "duration": 4, "velocity": 107}, {"time": 813, "pitch": 60, "duration": 4, "velocity": 93}, {"time": 819, "pitch": 63, "duration": 12, "velocity": 102}, {"time": 837, "pitch": 65, "duration": 3, "velocity": 102}, {"time": 843, "pitch": 67, "duration": 4, "velocity": 96}, {"time": 849, "pitch": 65, "duration": 4, "velocity": 96}, {"time": 855, "pitch": 63, "duration": 4, "velocity": 112}, {"time": 861, "pitch": 60, "duration": 4, "velocity": 93}, {"time": 867, "pitch": 63, "duration": 19, "velocity": 99}, {"time": 903, "pitch": 67, "duration": 2, "velocity": 100}, {"time": 909, "pitch": 70, "duration": 2, "velocity": 112}, {"time": 915, "pitch": 72, "duration": 6, "velocity": 117}, {"time": 924, "pitch": 72, "duration": 1, "velocity": 93}, {"time": 927, "pitch": 72, "duration": 2, "velocity": 107}, {"time": 933, "pitch": 70, "duration": 4, "velocity": 102}, {"time": 939, "pitch": 60, "duration": 5, "velocity": 96}, {"time": 945, "pitch": 70, "duration": 3, "velocity": 112}, {"time": 951, "pitch": 70, "duration": 4, "velocity": 122}, {"time": 957, "pitch": 67, "duration": 3, "velocity": 99}, {"time": 963, "pitch": 65, "duration": 13, "velocity": 99}, {"time": 1011, "pitch": 67, "duration": 9, "velocity": 107}, {"time": 1023, "pitch": 65, "duration": 4, "velocity": 99}, {"time": 1029, "pitch": 67, "duration": 4, "velocity": 100}, {"time": 1035, "pitch": 70, "duration": 12, "velocity": 127}, {"time": 1059, "pitch": 65, "duration": 6, "velocity": 117}, {"time": 1065, "pitch": 67, "duration": 9, "velocity": 93}, {"time": 1077, "pitch": 63, "duration": 5, "velocity": 97}, {"time": 1083, "pitch": 60, "duration": 9, "velocity": 86}, {"time": 1095, "pitch": 60, "duration": 4, "velocity": 102}, {"time": 1101, "pitch": 63, "duration": 3, "velocity": 100}, {"time": 1107, "pitch": 65, "duration": 6, "velocity": 97}, {"time": 1116, "pitch": 65, "duration": 1, "velocity": 96}, {"time": 1119, "pitch": 65, "duration": 4, "velocity": 95}, {"time": 1125, "pitch": 67, "duration": 4, "velocity": 99}, {"time": 1131, "pitch": 65, "duration": 6, "velocity": 97}, {"time": 1137, "pitch": 67, "duration": 3, "velocity": 96}, {"time": 1143, "pitch": 58, "duration": 4, "velocity": 99}, {"time": 1149, "pitch": 60, "duration": 4, "velocity": 90}, {"time": 1155, "pitch": 63, "duration": 27, "velocity": 112}, {"time": 1203, "pitch": 70, "duration": 5, "velocity": 122}, {"time": 1209, "pitch": 67, "duration": 6, "velocity": 96}, {"time": 1215, "pitch": 70, "duration": 5, "velocity": 102}, {"time": 1221, "pitch": 72, "duration": 5, "velocity": 97}, {"time": 1227, "pitch": 75, "duration": 8, "velocity": 117}, {"time": 1239, "pitch": 75, "duration": 3, "velocity": 122}, {"time": 1245, "pitch": 74, "duration": 3, "velocity": 112}, {"time": 1251, "pitch": 72, "duration": 3, "velocity": 112}, {"time": 1257, "pitch": 72, "duration": 2, "velocity": 127}, {"time": 1260, "pitch": 74, "duration": 3, "velocity": 96}, {"time": 1263, "pitch": 72, "duration": 4, "velocity": 93}, {"time": 1269, "pitch": 67, "duration": 4, "velocity": 99}, {"time": 1275, "pitch": 70, "duration": 17, "velocity": 100}, {"time": 1299, "pitch": 70, "duration": 4, "velocity": 127}, {"time": 1305, "pitch": 67, "duration": 3, "velocity": 90}, {"time": 1311, "pitch": 70, "duration": 3, "velocity": 127}, {"time": 1317, "pitch": 72, "duration": 3, "velocity": 95}, {"time": 1323, "pitch": 75, "duration": 6, "velocity": 122}, {"time": 1335, "pitch": 75, "duration": 4, "velocity": 117}, {"time": 1344, "pitch": 60, "duration": 1, "velocity": 99}, {"time": 1347, "pitch": 60, "duration": 4, "velocity": 100}, {"time": 1353, "pitch": 70, "duration": 3, "velocity": 112}, {"time": 1359, "pitch": 70, "duration": 4, "velocity": 122}, {"time": 1365, "pitch": 67, "duration": 4, "velocity": 100}, {"time": 1371, "pitch": 65, "duration": 8, "velocity": 100}, {"time": 1395, "pitch": 67, "duration": 9, "velocity": 100}, {"time": 1407, "pitch": 65, "duration": 4, "velocity": 107}, {"time": 1413, "pitch": 67, "duration": 3, "velocity": 100}, {"time": 1419, "pitch": 70, "duration": 12, "velocity": 127}, {"time": 1443, "pitch": 65, "duration": 8, "velocity": 99}, {"time": 1452, "pitch": 67, "duration": 6, "velocity": 95}, {"time": 1461, "pitch": 63, "duration": 4, "velocity": 102}, {"time": 1467, "pitch": 60, "duration": 5, "velocity": 97}, {"time": 1479, "pitch": 60, "duration": 4, "velocity": 112}, {"time": 1485, "pitch": 67, "duration": 4, "velocity": 93}, {"time": 1491, "pitch": 65, "duration": 6, "velocity": 93}, {"time": 1500, "pitch": 65, "duration": 2, "velocity": 112}, {"time": 1509, "pitch": 67, "duration": 4, "velocity": 96}, {"time": 1515, "pitch": 72, "duration": 5, "velocity": 112}, {"time": 1524, "pitch": 75, "duration": 5, "velocity": 100}, {"time": 1533, "pitch": 72, "duration": 4, "velocity": 96}, {"time": 1539, "pitch": 70, "duration": 21, "velocity": 99}, {"time": 1587, "pitch": 70, "duration": 5, "velocity": 122}, {"time": 1593, "pitch": 67, "duration": 6, "velocity": 96}, {"time": 1599, "pitch": 70, "duration": 5, "velocity": 102}, {"time": 1605, "pitch": 72, "duration": 5, "velocity": 97}, {"time": 1611, "pitch": 75, "duration": 8, "velocity": 117}, {"time": 1623, "pitch": 75, "duration": 3, "velocity": 122}, {"time": 1629, "pitch": 74, "duration": 3, "velocity": 112}, {"time": 1635, "pitch": 72, "duration": 3, "velocity": 112}, {"time": 1641, "pitch": 72, "duration": 2, "velocity": 127}, {"time": 1644, "pitch": 74, "duration": 3, "velocity": 96}, {"time": 1647, "pitch": 72, "duration": 4, "velocity": 93}, {"time": 1653, "pitch": 67, "duration": 4, "velocity": 99}, {"time": 1659, "pitch": 70, "duration": 17, "velocity": 100}, {"time": 1683, "pitch": 70, "duration": 4, "velocity": 127}, {"time": 1689, "pitch": 67, "duration": 3, "velocity": 90}, {"time": 1695, "pitch": 70, "duration": 3, "velocity": 127}, {"time": 1701, "pitch": 72, "duration": 3, "velocity": 95}, {"time": 1707, "pitch": 75, "duration": 6, "velocity": 122}, {"time": 1719, "pitch": 72, "duration": 4, "velocity": 122}, {"time": 1725, "pitch": 70, "duration": 4, "velocity": 117}, {"time": 1731, "pitch": 60, "duration": 4, "velocity": 122}, {"time": 1737, "pitch": 70, "duration": 3, "velocity": 112}, {"time": 1743, "pitch": 70, "duration": 4, "velocity": 122}, {"time": 1749, "pitch": 67, "duration": 4, "velocity": 100}, {"time": 1755, "pitch": 65, "duration": 18, "velocity": 100}, {"time": 1779, "pitch": 67, "duration": 9, "velocity": 100}, {"time": 1791, "pitch": 65, "duration": 4, "velocity": 107}, {"time": 1797, "pitch": 67, "duration": 3, "velocity": 100}, {"time": 1803, "pitch": 70, "duration": 20, "velocity": 127}, {"time": 1827, "pitch": 65, "duration": 8, "velocity": 99}, {"time": 1836, "pitch": 67, "duration": 6, "velocity": 95}, {"time": 1845, "pitch": 63, "duration": 4, "velocity": 102}, {"time": 1851, "pitch": 60, "duration": 5, "velocity": 97}, {"time": 1863, "pitch": 60, "duration": 4, "velocity": 112}, {"time": 1869, "pitch": 67, "duration": 4, "velocity": 93}, {"time": 1875, "pitch": 65, "duration": 15, "velocity": 93}, {"time": 1893, "pitch": 67, "duration": 3, "velocity": 112}, {"time": 1899, "pitch": 65, "duration": 6, "velocity": 97}, {"time": 1905, "pitch": 67, "duration": 2, "velocity": 107}, {"time": 1911, "pitch": 58, "duration": 4, "velocity": 107}, {"time": 1917, "pitch": 60, "duration": 4, "velocity": 99}, {"time": 1923, "pitch": 63, "duration": 37, "velocity": 117}, {"time": 2343, "pitch": 58, "duration": 4, "velocity": 107}, {"time": 2349, "pitch": 60, "duration": 4, "velocity": 93}, {"time": 2355, "pitch": 63, "duration": 12, "velocity": 102}, {"time": 2373, "pitch": 65, "duration": 3, "velocity": 102}, {"time": 2379, "pitch": 67, "duration": 4, "velocity": 96}, {"time": 2385, "pitch": 65, "duration": 4, "velocity": 96}, {"time": 2391, "pitch": 63, "duration": 4, "velocity": 112}, {"time": 2397, "pitch": 60, "duration": 4, "velocity": 93}, {"time": 2403, "pitch": 63, "duration": 19, "velocity": 99}, {"time": 2439, "pitch": 67, "duration": 2, "velocity": 100}, {"time": 2445, "pitch": 70, "duration": 2, "velocity": 112}, {"time": 2451, "pitch": 72, "duration": 6, "velocity": 117}, {"time": 2460, "pitch": 72, "duration": 1, "velocity": 93}, {"time": 2463, "pitch": 72, "duration": 2, "velocity": 107}, {"time": 2469, "pitch": 70, "duration": 4, "velocity": 102}, {"time": 2475, "pitch": 60, "duration": 5, "velocity": 96}, {"time": 2481, "pitch": 70, "duration": 3, "velocity": 112}, {"time": 2487, "pitch": 70, "duration": 4, "velocity": 122}, {"time": 2493, "pitch": 67, "duration": 3, "velocity": 99}, {"time": 2499, "pitch": 65, "duration": 13, "velocity": 99}, {"time": 2547, "pitch": 67, "duration": 9, "velocity": 107}, {"time": 2559, "pitch": 65, "duration": 4, "velocity": 99}, {"time": 2565, "pitch": 67, "duration": 4, "velocity": 100}, {"time": 2571, "pitch": 70, "duration": 12, "velocity": 127}, {"time": 2595, "pitch": 65, "duration": 6, "velocity": 117}, {"time": 2601, "pitch": 67, "duration": 9, "velocity": 93}, {"time": 2613, "pitch": 63, "duration": 5, "velocity": 97}, {"time": 2619, "pitch": 60, "duration": 9, "velocity": 86}, {"time": 2631, "pitch": 60, "duration": 4, "velocity": 102}, {"time": 2637, "pitch": 63, "duration": 3, "velocity": 100}, {"time": 2643, "pitch": 65, "duration": 6, "velocity": 97}, {"time": 2652, "pitch": 65, "duration": 1, "velocity": 96}, {"time": 2655, "pitch": 65, "duration": 4, "velocity": 95}, {"time": 2661, "pitch": 67, "duration": 4, "velocity": 99}, {"time": 2667, "pitch": 65, "duration": 6, "velocity": 97}, {"time": 2673, "pitch": 67, "duration": 3, "velocity": 96}, {"time": 2679, "pitch": 58, "duration": 4, "velocity": 99}, {"time": 2685, "pitch": 60, "duration": 4, "velocity": 90}, {"time": 2691, "pitch": 63, "duration": 27, "velocity": 112}, {"time": 2739, "pitch": 70, "duration": 5, "velocity": 122}, {"time": 2745, "pitch": 67, "duration": 6, "velocity": 96}, {"time": 2751, "pitch": 70, "duration": 5, "velocity": 102}, {"time": 2757, "pitch": 72, "duration": 5, "velocity": 97}, {"time": 2763, "pitch": 75, "duration": 8, "velocity": 117}, {"time": 2775, "pitch": 75, "duration": 3, "velocity": 122}, {"time": 2781, "pitch": 74, "duration": 3, "velocity": 112}, {"time": 2787, "pitch": 72, "duration": 3, "velocity": 112}, {"time": 2793, "pitch": 72, "duration": 2, "velocity": 127}, {"time": 2796, "pitch": 74, "duration": 3, "velocity": 96}, {"time": 2799, "pitch": 72, "duration": 4, "velocity": 93}, {"time": 2805, "pitch": 67, "duration": 4, "velocity": 99}, {"time": 2811, "pitch": 70, "duration": 17, "velocity": 100}, {"time": 2835, "pitch": 70, "duration": 4, "velocity": 127}, {"time": 2841, "pitch": 67, "duration": 3, "velocity": 90}, {"time": 2847, "pitch": 70, "duration": 3, "velocity": 127}, {"time": 2853, "pitch": 72, "duration": 3, "velocity": 95}, {"time": 2859, "pitch": 75, "duration": 6, "velocity": 122}, {"time": 2871, "pitch": 75, "duration": 4, "velocity": 117}, {"time": 2880, "pitch": 60, "duration": 1, "velocity": 99}, {"time": 2883, "pitch": 60, "duration": 4, "velocity": 100}, {"time": 2889, "pitch": 70, "duration": 3, "velocity": 112}, {"time": 2895, "pitch": 70, "duration": 4, "velocity": 122}, {"time": 2901, "pitch": 67, "duration": 4, "velocity": 100}, {"time": 2907, "pitch": 65, "duration": 8, "velocity": 100}, {"time": 2931, "pitch": 67, "duration": 9, "velocity": 100}, {"time": 2943, "pitch": 65, "duration": 4, "velocity": 107}, {"time": 2949, "pitch": 67, "duration": 3, "velocity": 100}, {"time": 2955, "pitch": 70, "duration": 12, "velocity": 127}, {"time": 2979, "pitch": 65, "duration": 8, "velocity": 99}, {"time": 2988, "pitch": 67, "duration": 6, "velocity": 95}, {"time": 2997, "pitch": 63, "duration": 4, "velocity": 102}, {"time": 3003, "pitch": 60, "duration": 5, "velocity": 97}, {"time": 3015, "pitch": 60, "duration": 4, "velocity": 112}, {"time": 3021, "pitch": 67, "duration": 4, "velocity": 93}, {"time": 3027, "pitch": 65, "duration": 6, "velocity": 93}, {"time": 3036, "pitch": 65, "duration": 2, "velocity": 112}, {"time": 3045, "pitch": 67, "duration": 4, "velocity": 96}, {"time": 3051, "pitch": 72, "duration": 5, "velocity": 112}, {"time": 3060, "pitch": 75, "duration": 5, "velocity": 100}, {"time": 3069, "pitch": 72, "duration": 4, "velocity": 96}, {"time": 3075, "pitch": 70, "duration": 21, "velocity": 99}, {"time": 3123, "pitch": 70, "duration": 5, "velocity": 122}, {"time": 3129, "pitch": 67, "duration": 6, "velocity": 96}, {"time": 3135, "pitch": 70, "duration": 5, "velocity": 102}, {"time": 3141, "pitch": 72, "duration": 5, "velocity": 97}, {"time": 3147, "pitch": 75, "duration": 8, "velocity": 117}, {"time": 3159, "pitch": 75, "duration": 3, "velocity": 122}, {"time": 3165, "pitch": 74, "duration": 3, "velocity": 112}, {"time": 3171, "pitch": 72, "duration": 3, "velocity": 112}, {"time": 3177, "pitch": 72, "duration": 2, "velocity": 127}, {"time": 3180, "pitch": 74, "duration": 3, "velocity": 96}, {"time": 3183, "pitch": 72, "duration": 4, "velocity": 93}, {"time": 3189, "pitch": 67, "duration": 4, "velocity": 99}, {"time": 3195, "pitch": 70, "duration": 17, "velocity": 100}, {"time": 3219, "pitch": 70, "duration": 4, "velocity": 127}, {"time": 3225, "pitch": 67, "duration": 3, "velocity": 90}, {"time": 3231, "pitch": 70, "duration": 3, "velocity": 127}, {"time": 3237, "pitch": 72, "duration": 3, "velocity": 95}, {"time": 3243, "pitch": 75, "duration": 6, "velocity": 122}, {"time": 3255, "pitch": 72, "duration": 4, "velocity": 122}, {"time": 3261, "pitch": 70, "duration": 4, "velocity": 117}, {"time": 3267, "pitch": 60, "duration": 4, "velocity": 122}, {"time": 3273, "pitch": 70, "duration": 3, "velocity": 112}, {"time": 3279, "pitch": 70, "duration": 4, "velocity": 122}, {"time": 3285, "pitch": 67, "duration": 4, "velocity": 100}, {"time": 3291, "pitch": 65, "duration": 18, "velocity": 100}, {"time": 3315, "pitch": 67, "duration": 9, "velocity": 100}, {"time": 3327, "pitch": 65, "duration": 4, "velocity": 107}, {"time": 3333, "pitch": 67, "duration": 3, "velocity": 100}, {"time": 3339, "pitch": 70, "duration": 20, "velocity": 127}, {"time": 3363, "pitch": 65, "duration": 8, "velocity": 99}, {"time": 3372, "pitch": 67, "duration": 6, "velocity": 95}, {"time": 3381, "pitch": 63, "duration": 4, "velocity": 102}, {"time": 3387, "pitch": 60, "duration": 5, "velocity": 97}, {"time": 3399, "pitch": 60, "duration": 4, "velocity": 112}, {"time": 3405, "pitch": 67, "duration": 4, "velocity": 93}, {"time": 3411, "pitch": 65, "duration": 15, "velocity": 93}, {"time": 3429, "pitch": 67, "duration": 3, "velocity": 112}, {"time": 3435, "pitch": 65, "duration": 6, "velocity": 97}, {"time": 3441, "pitch": 67, "duration": 2, "velocity": 107}, {"time": 3447, "pitch": 58, "duration": 4, "velocity": 107}, {"time": 3453, "pitch": 60, "duration": 4, "velocity": 99}, {"time": 3459, "pitch": 63, "duration": 37, "velocity": 117}, {"time": 3507, "pitch": 70, "duration": 5, "velocity": 122}, {"time": 3513, "pitch": 67, "duration": 6, "velocity": 96}, {"time": 3519, "pitch": 70, "duration": 5, "velocity": 102}, {"time": 3525, "pitch": 72, "duration": 5, "velocity": 97}, {"time": 3531, "pitch": 75, "duration": 8, "velocity": 117}, {"time": 3543, "pitch": 75, "duration": 3, "velocity": 122}, {"time": 3549, "pitch": 74, "duration": 3, "velocity": 112}, {"time": 3555, "pitch": 72, "duration": 3, "velocity": 112}, {"time": 3561, "pitch": 72, "duration": 2, "velocity": 127}, {"time": 3564, "pitch": 74, "duration": 3, "velocity": 96}, {"time": 3567, "pitch": 72, "duration": 4, "velocity": 93}, {"time": 3573, "pitch": 67, "duration": 4, "velocity": 99}, {"time": 3579, "pitch": 70, "duration": 17, "velocity": 100}, {"time": 3603, "pitch": 70, "duration": 4, "velocity": 127}, {"time": 3609, "pitch": 67, "duration": 3, "velocity": 90}, {"time": 3615, "pitch": 70, "duration": 3, "velocity": 127}, {"time": 3621, "pitch": 72, "duration": 3, "velocity": 95}, {"time": 3627, "pitch": 75, "duration": 6, "velocity": 122}, {"time": 3639, "pitch": 75, "duration": 4, "velocity": 117}, {"time": 3648, "pitch": 60, "duration": 1, "velocity": 99}, {"time": 3651, "pitch": 60, "duration": 4, "velocity": 100}, {"time": 3657, "pitch": 70, "duration": 3, "velocity": 112}, {"time": 3663, "pitch": 70, "duration": 4, "velocity": 122}, {"time": 3669, "pitch": 67, "duration": 4, "velocity": 100}, {"time": 3675, "pitch": 65, "duration": 8, "velocity": 100}, {"time": 3699, "pitch": 67, "duration": 9, "velocity": 100}, {"time": 3711, "pitch": 65, "duration": 4, "velocity": 107}, {"time": 3717, "pitch": 67, "duration": 3, "velocity": 100}, {"time": 3723, "pitch": 70, "duration": 12, "velocity": 127}, {"time": 3747, "pitch": 65, "duration": 8, "velocity": 99}, {"time": 3756, "pitch": 67, "duration": 6, "velocity": 95}, {"time": 3765, "pitch": 63, "duration": 4, "velocity": 102}, {"time": 3771, "pitch": 60, "duration": 5, "velocity": 97}, {"time": 3783, "pitch": 60, "duration": 4, "velocity": 112}, {"time": 3789, "pitch": 67, "duration": 4, "velocity": 93}, {"time": 3795, "pitch": 65, "duration": 6, "velocity": 93}, {"time": 3804, "pitch": 65, "duration": 2, "velocity": 112}, {"time": 3813, "pitch": 67, "duration": 4, "velocity": 96}, {"time": 3819, "pitch": 72, "duration": 5, "velocity": 112}, {"time": 3828, "pitch": 75, "duration": 5, "velocity": 100}, {"time": 3837, "pitch": 72, "duration": 4, "velocity": 96}, {"time": 3843, "pitch": 70, "duration": 21, "velocity": 99}, {"time": 3891, "pitch": 70, "duration": 5, "velocity": 122}, {"time": 3897, "pitch": 67, "duration": 6, "velocity": 96}, {"time": 3903, "pitch": 70, "duration": 5, "velocity": 102}, {"time": 3909, "pitch": 72, "duration": 5, "velocity": 97}, {"time": 3915, "pitch": 75, "duration": 8, "velocity": 117}, {"time": 3927, "pitch": 75, "duration": 3, "velocity": 122}, {"time": 3933, "pitch": 74, "duration": 3, "velocity": 112}, {"time": 3939, "pitch": 72, "duration": 3, "velocity": 112}, {"time": 3945, "pitch": 72, "duration": 2, "velocity": 127}, {"time": 3948, "pitch": 74, "duration": 3, "velocity": 96}, {"time": 3951, "pitch": 72, "duration": 4, "velocity": 93}, {"time": 3957, "pitch": 67, "duration": 4, "velocity": 99}, {"time": 3963, "pitch": 70, "duration": 17, "velocity": 100}, {"time": 3987, "pitch": 70, "duration": 4, "velocity": 127}, {"time": 3993, "pitch": 67, "duration": 3, "velocity": 90}, {"time": 3999, "pitch": 70, "duration": 3, "velocity": 127}, {"time": 4005, "pitch": 72, "duration": 3, "velocity": 95}, {"time": 4011, "pitch": 75, "duration": 6, "velocity": 122}, {"time": 4023, "pitch": 72, "duration": 4, "velocity": 122}, {"time": 4029, "pitch": 70, "duration": 4, "velocity": 117}, {"time": 4035, "pitch": 60, "duration": 4, "velocity": 122}, {"time": 4041, "pitch": 70, "duration": 3, "velocity": 112}, {"time": 4047, "pitch": 70, "duration": 4, "velocity": 122}, {"time": 4053, "pitch": 67, "duration": 4, "velocity": 100}, {"time": 4059, "pitch": 65, "duration": 18, "velocity": 100}, {"time": 4083, "pitch": 67, "duration": 9, "velocity": 100}, {"time": 4095, "pitch": 65, "duration": 4, "velocity": 107}, {"time": 4101, "pitch": 67, "duration": 3, "velocity": 100}, {"time": 4107, "pitch": 70, "duration": 20, "velocity": 127}, {"time": 4131, "pitch": 65, "duration": 8, "velocity": 99}, {"time": 4140, "pitch": 67, "duration": 6, "velocity": 95}, {"time": 4149, "pitch": 63, "duration": 4, "velocity": 102}, {"time": 4155, "pitch": 60, "duration": 5, "velocity": 97}, {"time": 4167, "pitch": 60, "duration": 4, "velocity": 112}, {"time": 4173, "pitch": 67, "duration": 4, "velocity": 93}, {"time": 4179, "pitch": 65, "duration": 15, "velocity": 93}, {"time": 4197, "pitch": 67, "duration": 3, "velocity": 112}, {"time": 4203, "pitch": 65, "duration": 6, "velocity": 97}, {"time": 4209, "pitch": 67, "duration": 2, "velocity": 107}, {"time": 4215, "pitch": 58, "duration": 4, "velocity": 107}, {"time": 4221, "pitch": 60, "duration": 4, "velocity": 99}, {"time": 4227, "pitch": 63, "duration": 24, "velocity": 117}, {"time": 4275, "pitch": 67, "duration": 9, "velocity": 100}, {"time": 4287, "pitch": 65, "duration": 4, "velocity": 107}, {"time": 4293, "pitch": 67, "duration": 3, "velocity": 100}, {"time": 4299, "pitch": 70, "duration": 20, "velocity": 127}, {"time": 4323, "pitch": 65, "duration": 8, "velocity": 99}, {"time": 4332, "pitch": 67, "duration": 6, "velocity": 95}, {"time": 4341, "pitch": 63, "duration": 4, "velocity": 102}, {"time": 4347, "pitch": 60, "duration": 5, "velocity": 97}, {"time": 4359, "pitch": 60, "duration": 4, "velocity": 112}, {"time": 4365, "pitch": 67, "duration": 4, "velocity": 93}, {"time": 4371, "pitch": 65, "duration": 15, "velocity": 93}, {"time": 4389, "pitch": 67, "duration": 3, "velocity": 112}, {"time": 4395, "pitch": 65, "duration": 6, "velocity": 97}, {"time": 4405, "pitch": 67, "duration": 8, "velocity": 107}, {"time": 4414, "pitch": 58, "duration": 6, "velocity": 100}, {"time": 4422, "pitch": 60, "duration": 20, "velocity": 92}, {"time": 4448, "pitch": 60, "duration": 8, "velocity": 100}, {"time": 4456, "pitch": 63, "duration": 64, "velocity": 117}]}, {"program": 0, "is_drum": false, "name": "PIANO", "notes": [{"time": 51, "pitch": 39, "duration": 15, "velocity": 66}, {"time": 57, "pitch": 51, "duration": 9, "velocity": 59}, {"time": 63, "pitch": 58, "duration": 19, "velocity": 60}, {"time": 63, "pitch": 63, "duration": 17, "velocity": 62}, {"time": 63, "pitch": 67, "duration": 18, "velocity": 53}, {"time": 63, "pitch": 70, "duration": 20, "velocity": 55}, {"time": 69, "pitch": 39, "duration": 2, "velocity": 72}, {"time": 75, "pitch": 39, "duration": 13, "velocity": 72}, {"time": 81, "pitch": 51, "duration": 8, "velocity": 76}, {"time": 87, "pitch": 63, "duration": 12, "velocity": 72}, {"time": 87, "pitch": 67, "duration": 12, "velocity": 58}, {"time": 93, "pitch": 58, "duration": 6, "velocity": 42}, {"time": 99, "pitch": 48, "duration": 15, "velocity": 77}, {"time": 105, "pitch": 55, "duration": 9, "velocity": 48}, {"time": 111, "pitch": 63, "duration": 12, "velocity": 78}, {"time": 111, "pitch": 67, "duration": 11, "velocity": 73}, {"time": 117, "pitch": 48, "duration": 4, "velocity": 82}, {"time": 123, "pitch": 43, "duration": 16, "velocity": 65}, {"time": 129, "pitch": 50, "duration": 10, "velocity": 53}, {"time": 135, "pitch": 58, "duration": 10, "velocity": 62}, {"time": 135, "pitch": 62, "duration": 10, "velocity": 59}, {"time": 141, "pitch": 55, "duration": 5, "velocity": 53}, {"time": 147, "pitch": 41, "duration": 14, "velocity": 70}, {"time": 153, "pitch": 48, "duration": 9, "velocity": 37}, {"time": 159, "pitch": 65, "duration": 18, "velocity": 76}, {"time": 159, "pitch": 68, "duration": 18, "velocity": 82}, {"time": 165, "pitch": 41, "duration": 3, "velocity": 53}, {"time": 171, "pitch": 41, "duration": 18, "velocity": 77}, {"time": 177, "pitch": 48, "duration": 12, "velocity": 47}, {"time": 183, "pitch": 53, "duration": 6, "velocity": 66}, {"time": 189, "pitch": 60, "duration": 6, "velocity": 43}, {"time": 189, "pitch": 65, "duration": 6, "velocity": 69}, {"time": 189, "pitch": 68, "duration": 6, "velocity": 62}, {"time": 195, "pitch": 46, "duration": 20, "velocity": 89}, {"time": 201, "pitch": 53, "duration": 15, "velocity": 55}, {"time": 207, "pitch": 58, "duration": 9, "velocity": 78}, {"time": 213, "pitch": 62, "duration": 14, "velocity": 59}, {"time": 213, "pitch": 65, "duration": 15, "velocity": 57}, {"time": 213, "pitch": 70, "duration": 15, "velocity": 53}, {"time": 219, "pitch": 46, "duration": 20, "velocity": 71}, {"time": 225, "pitch": 58, "duration": 16, "velocity": 77}, {"time": 231, "pitch": 65, "duration": 10, "velocity": 58}, {"time": 231, "pitch": 70, "duration": 10, "velocity": 72}, {"time": 237, "pitch": 62, "duration": 4, "velocity": 58}, {"time": 243, "pitch": 43, "duration": 28, "velocity": 55}, {"time": 243, "pitch": 50, "duration": 27, "velocity": 52}, {"time": 243, "pitch": 55, "duration": 26, "velocity": 55}, {"time": 243, "pitch": 58, "duration": 28, "velocity": 72}, {"time": 243, "pitch": 62, "duration": 27, "velocity": 67}, {"time": 243, "pitch": 67, "duration": 26, "velocity": 56}, {"time": 291, "pitch": 36, "duration": 28, "velocity": 40}, {"time": 291, "pitch": 43, "duration": 28, "velocity": 49}, {"time": 291, "pitch": 48, "duration": 27, "velocity": 50}, {"time": 291, "pitch": 55, "duration": 27, "velocity": 60}, {"time": 291, "pitch": 60, "duration": 28, "velocity": 63}, {"time": 291, "pitch": 63, "duration": 29, "velocity": 56}, {"time": 339, "pitch": 41, "duration": 17, "velocity": 56}, {"time": 345, "pitch": 48, "duration": 11, "velocity": 40}, {"time": 351, "pitch": 53, "duration": 9, "velocity": 83}, {"time": 357, "pitch": 60, "duration": 7, "velocity": 58}, {"time": 357, "pitch": 65, "duration": 7, "velocity": 63}, {"time": 357, "pitch": 68, "duration": 7, "velocity": 58}, {"time": 363, "pitch": 46, "duration": 21, "velocity": 47}, {"time": 369, "pitch": 53, "duration": 14, "velocity": 56}, {"time": 375, "pitch": 58, "duration": 8, "velocity": 85}, {"time": 375, "pitch": 62, "duration": 1, "velocity": 36}, {"time": 375, "pitch": 65, "duration": 12, "velocity": 54}, {"time": 381, "pitch": 62, "duration": 5, "velocity": 58}, {"time": 387, "pitch": 39, "duration": 45, "velocity": 71}, {"time": 393, "pitch": 51, "duration": 7, "velocity": 63}, {"time": 399, "pitch": 55, "duration": 25, "velocity": 62}, {"time": 399, "pitch": 58, "duration": 21, "velocity": 69}, {"time": 405, "pitch": 51, "duration": 9, "velocity": 65}, {"time": 411, "pitch": 63, "duration": 25, "velocity": 62}, {"time": 417, "pitch": 51, "duration": 16, "velocity": 56}, {"time": 423, "pitch": 58, "duration": 13, "velocity": 56}, {"time": 429, "pitch": 55, "duration": 7, "velocity": 58}, {"time": 435, "pitch": 39, "duration": 15, "velocity": 82}, {"time": 441, "pitch": 51, "duration": 9, "velocity": 55}, {"time": 447, "pitch": 55, "duration": 16, "velocity": 49}, {"time": 447, "pitch": 58, "duration": 18, "velocity": 59}, {"time": 447, "pitch": 63, "duration": 18, "velocity": 47}, {"time": 453, "pitch": 39, "duration": 2, "velocity": 72}, {"time": 459, "pitch": 39, "duration": 14, "velocity": 82}, {"time": 465, "pitch": 51, "duration": 6, "velocity": 68}, {"time": 471, "pitch": 58, "duration": 11, "velocity": 72}, {"time": 471, "pitch": 63, "duration": 10, "velocity": 83}, {"time": 477, "pitch": 55, "duration": 10, "velocity": 58}, {"time": 483, "pitch": 36, "duration": 15, "velocity": 59}, {"time": 489, "pitch": 43, "duration": 9, "velocity": 35}, {"time": 495, "pitch": 55, "duration": 15, "velocity": 55}, {"time": 495, "pitch": 60, "duration": 17, "velocity": 63}, {"time": 495, "pitch": 63, "duration": 17, "velocity": 67}, {"time": 501, "pitch": 36, "duration": 3, "velocity": 69}, {"time": 507, "pitch": 36, "duration": 13, "velocity": 73}, {"time": 513, "pitch": 43, "duration": 7, "velocity": 53}, {"time": 519, "pitch": 60, "duration": 11, "velocity": 76}, {"time": 519, "pitch": 63, "duration": 12, "velocity": 85}, {"time": 525, "pitch": 55, "duration": 5, "velocity": 57}, {"time": 531, "pitch": 44, "duration": 15, "velocity": 56}, {"time": 537, "pitch": 51, "duration": 9, "velocity": 28}, {"time": 543, "pitch": 60, "duration": 19, "velocity": 62}, {"time": 543, "pitch": 63, "duration": 20, "velocity": 64}, {"time": 543, "pitch": 68, "duration": 20, "velocity": 58}, {"time": 549, "pitch": 44, "duration": 3, "velocity": 77}, {"time": 555, "pitch": 44, "duration": 19, "velocity": 72}, {"time": 561, "pitch": 51, "duration": 12, "velocity": 55}, {"time": 567, "pitch": 56, "duration": 5, "velocity": 40}, {"time": 567, "pitch": 63, "duration": 12, "velocity": 74}, {"time": 567, "pitch": 68, "duration": 13, "velocity": 77}, {"time": 573, "pitch": 60, "duration": 5, "velocity": 65}, {"time": 579, "pitch": 46, "duration": 14, "velocity": 77}, {"time": 585, "pitch": 53, "duration": 10, "velocity": 53}, {"time": 591, "pitch": 58, "duration": 4, "velocity": 77}, {"time": 591, "pitch": 62, "duration": 19, "velocity": 65}, {"time": 591, "pitch": 65, "duration": 19, "velocity": 68}, {"time": 597, "pitch": 46, "duration": 4, "velocity": 95}, {"time": 603, "pitch": 46, "duration": 20, "velocity": 78}, {"time": 609, "pitch": 58, "duration": 10, "velocity": 71}, {"time": 615, "pitch": 65, "duration": 11, "velocity": 72}, {"time": 615, "pitch": 70, "duration": 12, "velocity": 93}, {"time": 621, "pitch": 62, "duration": 5, "velocity": 73}, {"time": 627, "pitch": 43, "duration": 14, "velocity": 71}, {"time": 633, "pitch": 50, "duration": 9, "velocity": 58}, {"time": 639, "pitch": 62, "duration": 14, "velocity": 49}, {"time": 639, "pitch": 67, "duration": 14, "velocity": 60}, {"time": 639, "pitch": 70, "duration": 19, "velocity": 49}, {"time": 645, "pitch": 43, "duration": 3, "velocity": 68}, {"time": 651, "pitch": 43, "duration": 17, "velocity": 65}, {"time": 657, "pitch": 50, "duration": 11, "velocity": 40}, {"time": 663, "pitch": 55, "duration": 12, "velocity": 69}, {"time": 663, "pitch": 67, "duration": 10, "velocity": 72}, {"time": 663, "pitch": 70, "duration": 11, "velocity": 66}, {"time": 669, "pitch": 62, "duration": 7, "velocity": 61}, {"time": 675, "pitch": 48, "duration": 15, "velocity": 71}, {"time": 681, "pitch": 55, "duration": 10, "velocity": 53}, {"time": 687, "pitch": 60, "duration": 11, "velocity": 58}, {"time": 687, "pitch": 63, "duration": 14, "velocity": 64}, {"time": 687, "pitch": 67, "duration": 14, "velocity": 55}, {"time": 693, "pitch": 48, "duration": 3, "velocity": 67}, {"time": 699, "pitch": 48, "duration": 12, "velocity": 69}, {"time": 705, "pitch": 60, "duration": 7, "velocity": 69}, {"time": 711, "pitch": 63, "duration": 9, "velocity": 63}, {"time": 711, "pitch": 67, "duration": 8, "velocity": 68}, {"time": 717, "pitch": 60, "duration": 13, "velocity": 62}, {"time": 723, "pitch": 41, "duration": 15, "velocity": 72}, {"time": 729, "pitch": 48, "duration": 11, "velocity": 59}, {"time": 735, "pitch": 65, "duration": 16, "velocity": 68}, {"time": 735, "pitch": 68, "duration": 16, "velocity": 71}, {"time": 741, "pitch": 41, "duration": 3, "velocity": 72}, {"time": 747, "pitch": 41, "duration": 11, "velocity": 74}, {"time": 753, "pitch": 48, "duration": 7, "velocity": 74}, {"time": 759, "pitch": 65, "duration": 11, "velocity": 85}, {"time": 759, "pitch": 68, "duration": 12, "velocity": 89}, {"time": 765, "pitch": 60, "duration": 6, "velocity": 74}, {"time": 771, "pitch": 46, "duration": 13, "velocity": 78}, {"time": 777, "pitch": 53, "duration": 9, "velocity": 56}, {"time": 783, "pitch": 62, "duration": 13, "velocity": 66}, {"time": 783, "pitch": 65, "duration": 13, "velocity": 73}, {"time": 783, "pitch": 70, "duration": 16, "velocity": 83}, {"time": 789, "pitch": 46, "duration": 4, "velocity": 70}, {"time": 795, "pitch": 46, "duration": 19, "velocity": 76}, {"time": 801, "pitch": 58, "duration": 11, "velocity": 90}, {"time": 807, "pitch": 65, "duration": 12, "velocity": 75}, {"time": 807, "pitch": 70, "duration": 12, "velocity": 93}, {"time": 810, "pitch": 53, "duration": 3, "velocity": 39}, {"time": 813, "pitch": 62, "duration": 5, "velocity": 85}, {"time": 819, "pitch": 39, "duration": 15, "velocity": 82}, {"time": 825, "pitch": 51, "duration": 9, "velocity": 55}, {"time": 831, "pitch": 55, "duration": 16, "velocity": 49}, {"time": 831, "pitch": 58, "duration": 18, "velocity": 59}, {"time": 831, "pitch": 63, "duration": 18, "velocity": 47}, {"time": 837, "pitch": 39, "duration": 2, "velocity": 72}, {"time": 843, "pitch": 39, "duration": 14, "velocity": 82}, {"time": 849, "pitch": 51, "duration": 6, "velocity": 68}, {"time": 855, "pitch": 58, "duration": 11, "velocity": 72}, {"time": 855, "pitch": 63, "duration": 10, "velocity": 83}, {"time": 861, "pitch": 55, "duration": 10, "velocity": 58}, {"time": 867, "pitch": 36, "duration": 15, "velocity": 59}, {"time": 873, "pitch": 43, "duration": 9, "velocity": 35}, {"time": 879, "pitch": 55, "duration": 15, "velocity": 55}, {"time": 879, "pitch": 60, "duration": 17, "velocity": 63}, {"time": 879, "pitch": 63, "duration": 17, "velocity": 67}, {"time": 885, "pitch": 36, "duration": 3, "velocity": 69}, {"time": 891, "pitch": 36, "duration": 13, "velocity": 73}, {"time": 897, "pitch": 43, "duration": 7, "velocity": 53}, {"time": 903, "pitch": 60, "duration": 11, "velocity": 76}, {"time": 903, "pitch": 63, "duration": 12, "velocity": 85}, {"time": 909, "pitch": 55, "duration": 5, "velocity": 57}, {"time": 915, "pitch": 44, "duration": 15, "velocity": 56}, {"time": 921, "pitch": 51, "duration": 9, "velocity": 28}, {"time": 927, "pitch": 60, "duration": 19, "velocity": 62}, {"time": 927, "pitch": 63, "duration": 20, "velocity": 64}, {"time": 927, "pitch": 68, "duration": 20, "velocity": 58}, {"time": 933, "pitch": 44, "duration": 3, "velocity": 77}, {"time": 939, "pitch": 44, "duration": 19, "velocity": 72}, {"time": 945, "pitch": 51, "duration": 12, "velocity": 55}, {"time": 951, "pitch": 56, "duration": 5, "velocity": 40}, {"time": 951, "pitch": 63, "duration": 12, "velocity": 74}, {"time": 951, "pitch": 68, "duration": 13, "velocity": 77}, {"time": 957, "pitch": 60, "duration": 5, "velocity": 65}, {"time": 963, "pitch": 46, "duration": 14, "velocity": 77}, {"time": 969, "pitch": 53, "duration": 10, "velocity": 53}, {"time": 975, "pitch": 58, "duration": 4, "velocity": 77}, {"time": 975, "pitch": 62, "duration": 19, "velocity": 65}, {"time": 975, "pitch": 65, "duration": 19, "velocity": 68}, {"time": 981, "pitch": 46, "duration": 4, "velocity": 95}, {"time": 987, "pitch": 46, "duration": 20, "velocity": 78}, {"time": 993, "pitch": 58, "duration": 10, "velocity": 71}, {"time": 999, "pitch": 65, "duration": 11, "velocity": 72}, {"time": 999, "pitch": 70, "duration": 12, "velocity": 93}, {"time": 1005, "pitch": 62, "duration": 5, "velocity": 73}, {"time": 1011, "pitch": 43, "duration": 14, "velocity": 71}, {"time": 1017, "pitch": 50, "duration": 9, "velocity": 58}, {"time": 1023, "pitch": 62, "duration": 14, "velocity": 49}, {"time": 1023, "pitch": 67, "duration": 14, "velocity": 60}, {"time": 1023, "pitch": 70, "duration": 19, "velocity": 49}, {"time": 1029, "pitch": 43, "duration": 3, "velocity": 68}, {"time": 1035, "pitch": 43, "duration": 17, "velocity": 65}, {"time": 1041, "pitch": 50, "duration": 11, "velocity": 40}, {"time": 1047, "pitch": 55, "duration": 12, "velocity": 69}, {"time": 1047, "pitch": 67, "duration": 10, "velocity": 72}, {"time": 1047, "pitch": 70, "duration": 11, "velocity": 66}, {"time": 1053, "pitch": 62, "duration": 7, "velocity": 61}, {"time": 1059, "pitch": 48, "duration": 15, "velocity": 71}, {"time": 1065, "pitch": 55, "duration": 10, "velocity": 53}, {"time": 1071, "pitch": 60, "duration": 11, "velocity": 58}, {"time": 1071, "pitch": 63, "duration": 14, "velocity": 64}, {"time": 1071, "pitch": 67, "duration": 14, "velocity": 55}, {"time": 1077, "pitch": 48, "duration": 3, "velocity": 67}, {"time": 1083, "pitch": 48, "duration": 12, "velocity": 69}, {"time": 1089, "pitch": 60, "duration": 7, "velocity": 69}, {"time": 1095, "pitch": 63, "duration": 9, "velocity": 63}, {"time": 1095, "pitch": 67, "duration": 8, "velocity": 68}, {"time": 1101, "pitch": 60, "duration": 13, "velocity": 62}, {"time": 1107, "pitch": 41, "duration": 15, "velocity": 72}, {"time": 1113, "pitch": 48, "duration": 11, "velocity": 59}, {"time": 1119, "pitch": 65, "duration": 12, "velocity": 68}, {"time": 1119, "pitch": 68, "duration": 12, "velocity": 71}, {"time": 1125, "pitch": 41, "duration": 3, "velocity": 72}, {"time": 1131, "pitch": 46, "duration": 15, "velocity": 77}, {"time": 1143, "pitch": 62, "duration": 5, "velocity": 55}, {"time": 1143, "pitch": 65, "duration": 6, "velocity": 71}, {"time": 1143, "pitch": 70, "duration": 8, "velocity": 72}, {"time": 1149, "pitch": 46, "duration": 3, "velocity": 52}, {"time": 1155, "pitch": 39, "duration": 14, "velocity": 61}, {"time": 1161, "pitch": 46, "duration": 8, "velocity": 34}, {"time": 1167, "pitch": 55, "duration": 10, "velocity": 53}, {"time": 1167, "pitch": 58, "duration": 9, "velocity": 68}, {"time": 1167, "pitch": 63, "duration": 16, "velocity": 61}, {"time": 1173, "pitch": 39, "duration": 5, "velocity": 74}, {"time": 1179, "pitch": 39, "duration": 20, "velocity": 69}, {"time": 1185, "pitch": 46, "duration": 15, "velocity": 36}, {"time": 1191, "pitch": 58, "duration": 6, "velocity": 112}, {"time": 1191, "pitch": 63, "duration": 9, "velocity": 100}, {"time": 1194, "pitch": 51, "duration": 7, "velocity": 73}, {"time": 1197, "pitch": 55, "duration": 4, "velocity": 88}, {"time": 1200, "pitch": 58, "duration": 2, "velocity": 73}, {"time": 1203, "pitch": 39, "duration": 22, "velocity": 97}, {"time": 1206, "pitch": 46, "duration": 19, "velocity": 36}, {"time": 1209, "pitch": 51, "duration": 18, "velocity": 88}, {"time": 1212, "pitch": 55, "duration": 4, "velocity": 66}, {"time": 1215, "pitch": 63, "duration": 9, "velocity": 112}, {"time": 1218, "pitch": 58, "duration": 3, "velocity": 71}, {"time": 1221, "pitch": 55, "duration": 5, "velocity": 76}, {"time": 1224, "pitch": 58, "duration": 4, "velocity": 85}, {"time": 1227, "pitch": 39, "duration": 18, "velocity": 86}, {"time": 1230, "pitch": 46, "duration": 14, "velocity": 47}, {"time": 1233, "pitch": 51, "duration": 6, "velocity": 93}, {"time": 1236, "pitch": 55, "duration": 4, "velocity": 75}, {"time": 1239, "pitch": 63, "duration": 9, "velocity": 99}, {"time": 1242, "pitch": 51, "duration": 2, "velocity": 88}, {"time": 1245, "pitch": 58, "duration": 3, "velocity": 88}, {"time": 1248, "pitch": 55, "duration": 5, "velocity": 73}, {"time": 1251, "pitch": 36, "duration": 17, "velocity": 76}, {"time": 1254, "pitch": 43, "duration": 13, "velocity": 77}, {"time": 1257, "pitch": 48, "duration": 7, "velocity": 86}, {"time": 1260, "pitch": 55, "duration": 5, "velocity": 70}, {"time": 1263, "pitch": 63, "duration": 7, "velocity": 96}, {"time": 1266, "pitch": 48, "duration": 4, "velocity": 66}, {"time": 1269, "pitch": 60, "duration": 5, "velocity": 93}, {"time": 1272, "pitch": 55, "duration": 2, "velocity": 74}, {"time": 1275, "pitch": 43, "duration": 16, "velocity": 79}, {"time": 1278, "pitch": 50, "duration": 13, "velocity": 60}, {"time": 1281, "pitch": 55, "duration": 6, "velocity": 93}, {"time": 1284, "pitch": 58, "duration": 5, "velocity": 77}, {"time": 1287, "pitch": 67, "duration": 7, "velocity": 58}, {"time": 1290, "pitch": 55, "duration": 1, "velocity": 77}, {"time": 1293, "pitch": 62, "duration": 3, "velocity": 52}, {"time": 1296, "pitch": 58, "duration": 3, "velocity": 90}, {"time": 1299, "pitch": 39, "duration": 22, "velocity": 81}, {"time": 1302, "pitch": 46, "duration": 20, "velocity": 34}, {"time": 1305, "pitch": 51, "duration": 6, "velocity": 89}, {"time": 1308, "pitch": 55, "duration": 5, "velocity": 73}, {"time": 1311, "pitch": 63, "duration": 10, "velocity": 90}, {"time": 1314, "pitch": 51, "duration": 9, "velocity": 72}, {"time": 1317, "pitch": 58, "duration": 5, "velocity": 66}, {"time": 1320, "pitch": 55, "duration": 3, "velocity": 72}, {"time": 1323, "pitch": 39, "duration": 16, "velocity": 72}, {"time": 1326, "pitch": 46, "duration": 12, "velocity": 52}, {"time": 1329, "pitch": 51, "duration": 7, "velocity": 79}, {"time": 1332, "pitch": 55, "duration": 3, "velocity": 81}, {"time": 1335, "pitch": 63, "duration": 11, "velocity": 95}, {"time": 1338, "pitch": 51, "duration": 2, "velocity": 86}, {"time": 1341, "pitch": 58, "duration": 4, "velocity": 77}, {"time": 1344, "pitch": 55, "duration": 2, "velocity": 77}, {"time": 1347, "pitch": 41, "duration": 18, "velocity": 66}, {"time": 1350, "pitch": 48, "duration": 16, "velocity": 58}, {"time": 1353, "pitch": 53, "duration": 6, "velocity": 81}, {"time": 1356, "pitch": 56, "duration": 4, "velocity": 59}, {"time": 1359, "pitch": 65, "duration": 9, "velocity": 55}, {"time": 1362, "pitch": 53, "duration": 6, "velocity": 77}, {"time": 1365, "pitch": 56, "duration": 4, "velocity": 73}, {"time": 1368, "pitch": 60, "duration": 2, "velocity": 65}, {"time": 1371, "pitch": 46, "duration": 24, "velocity": 55}, {"time": 1374, "pitch": 53, "duration": 17, "velocity": 62}, {"time": 1377, "pitch": 58, "duration": 6, "velocity": 96}, {"time": 1380, "pitch": 62, "duration": 3, "velocity": 82}, {"time": 1383, "pitch": 65, "duration": 6, "velocity": 72}, {"time": 1386, "pitch": 58, "duration": 6, "velocity": 95}, {"time": 1389, "pitch": 70, "duration": 6, "velocity": 90}, {"time": 1392, "pitch": 62, "duration": 3, "velocity": 67}, {"time": 1395, "pitch": 43, "duration": 21, "velocity": 79}, {"time": 1398, "pitch": 50, "duration": 21, "velocity": 64}, {"time": 1401, "pitch": 55, "duration": 6, "velocity": 72}, {"time": 1404, "pitch": 58, "duration": 5, "velocity": 63}, {"time": 1407, "pitch": 67, "duration": 13, "velocity": 69}, {"time": 1410, "pitch": 55, "duration": 3, "velocity": 63}, {"time": 1413, "pitch": 62, "duration": 4, "velocity": 57}, {"time": 1416, "pitch": 58, "duration": 3, "velocity": 99}, {"time": 1419, "pitch": 43, "duration": 18, "velocity": 72}, {"time": 1422, "pitch": 50, "duration": 14, "velocity": 57}, {"time": 1425, "pitch": 55, "duration": 7, "velocity": 88}, {"time": 1428, "pitch": 58, "duration": 5, "velocity": 79}, {"time": 1431, "pitch": 67, "duration": 12, "velocity": 72}, {"time": 1434, "pitch": 55, "duration": 2, "velocity": 79}, {"time": 1437, "pitch": 62, "duration": 4, "velocity": 50}, {"time": 1440, "pitch": 58, "duration": 3, "velocity": 83}, {"time": 1443, "pitch": 36, "duration": 21, "velocity": 67}, {"time": 1446, "pitch": 43, "duration": 20, "velocity": 55}, {"time": 1449, "pitch": 48, "duration": 7, "velocity": 75}, {"time": 1452, "pitch": 55, "duration": 3, "velocity": 72}, {"time": 1455, "pitch": 60, "duration": 4, "velocity": 66}, {"time": 1458, "pitch": 48, "duration": 5, "velocity": 82}, {"time": 1461, "pitch": 55, "duration": 6, "velocity": 70}, {"time": 1464, "pitch": 63, "duration": 4, "velocity": 88}, {"time": 1467, "pitch": 36, "duration": 16, "velocity": 72}, {"time": 1470, "pitch": 43, "duration": 14, "velocity": 63}, {"time": 1473, "pitch": 48, "duration": 7, "velocity": 75}, {"time": 1476, "pitch": 55, "duration": 4, "velocity": 63}, {"time": 1479, "pitch": 63, "duration": 11, "velocity": 93}, {"time": 1482, "pitch": 48, "duration": 5, "velocity": 81}, {"time": 1485, "pitch": 60, "duration": 5, "velocity": 70}, {"time": 1488, "pitch": 55, "duration": 2, "velocity": 76}, {"time": 1491, "pitch": 41, "duration": 23, "velocity": 66}, {"time": 1494, "pitch": 48, "duration": 21, "velocity": 56}, {"time": 1497, "pitch": 53, "duration": 7, "velocity": 83}, {"time": 1500, "pitch": 60, "duration": 3, "velocity": 40}, {"time": 1503, "pitch": 68, "duration": 12, "velocity": 93}, {"time": 1506, "pitch": 53, "duration": 4, "velocity": 78}, {"time": 1509, "pitch": 65, "duration": 5, "velocity": 77}, {"time": 1512, "pitch": 60, "duration": 4, "velocity": 72}, {"time": 1515, "pitch": 41, "duration": 17, "velocity": 69}, {"time": 1518, "pitch": 48, "duration": 14, "velocity": 67}, {"time": 1521, "pitch": 53, "duration": 7, "velocity": 82}, {"time": 1524, "pitch": 60, "duration": 4, "velocity": 74}, {"time": 1527, "pitch": 68, "duration": 9, "velocity": 99}, {"time": 1530, "pitch": 53, "duration": 3, "velocity": 90}, {"time": 1533, "pitch": 65, "duration": 4, "velocity": 85}, {"time": 1536, "pitch": 60, "duration": 3, "velocity": 77}, {"time": 1539, "pitch": 46, "duration": 21, "velocity": 90}, {"time": 1542, "pitch": 53, "duration": 20, "velocity": 54}, {"time": 1545, "pitch": 58, "duration": 6, "velocity": 83}, {"time": 1548, "pitch": 62, "duration": 3, "velocity": 86}, {"time": 1551, "pitch": 65, "duration": 6, "velocity": 79}, {"time": 1554, "pitch": 58, "duration": 10, "velocity": 93}, {"time": 1557, "pitch": 62, "duration": 9, "velocity": 66}, {"time": 1560, "pitch": 70, "duration": 10, "velocity": 102}, {"time": 1563, "pitch": 46, "duration": 23, "velocity": 83}, {"time": 1566, "pitch": 53, "duration": 19, "velocity": 63}, {"time": 1569, "pitch": 58, "duration": 6, "velocity": 97}, {"time": 1572, "pitch": 62, "duration": 4, "velocity": 85}, {"time": 1575, "pitch": 70, "duration": 12, "velocity": 107}, {"time": 1578, "pitch": 58, "duration": 7, "velocity": 99}, {"time": 1581, "pitch": 65, "duration": 6, "velocity": 88}, {"time": 1584, "pitch": 62, "duration": 3, "velocity": 89}, {"time": 1587, "pitch": 39, "duration": 22, "velocity": 97}, {"time": 1590, "pitch": 46, "duration": 19, "velocity": 36}, {"time": 1593, "pitch": 51, "duration": 18, "velocity": 88}, {"time": 1596, "pitch": 55, "duration": 4, "velocity": 66}, {"time": 1599, "pitch": 63, "duration": 9, "velocity": 112}, {"time": 1602, "pitch": 58, "duration": 3, "velocity": 71}, {"time": 1605, "pitch": 55, "duration": 5, "velocity": 76}, {"time": 1608, "pitch": 58, "duration": 4, "velocity": 85}, {"time": 1611, "pitch": 39, "duration": 18, "velocity": 86}, {"time": 1614, "pitch": 46, "duration": 14, "velocity": 47}, {"time": 1617, "pitch": 51, "duration": 6, "velocity": 93}, {"time": 1620, "pitch": 55, "duration": 4, "velocity": 75}, {"time": 1623, "pitch": 63, "duration": 9, "velocity": 99}, {"time": 1626, "pitch": 51, "duration": 2, "velocity": 88}, {"time": 1629, "pitch": 58, "duration": 3, "velocity": 88}, {"time": 1632, "pitch": 55, "duration": 5, "velocity": 73}, {"time": 1635, "pitch": 36, "duration": 17, "velocity": 76}, {"time": 1638, "pitch": 43, "duration": 13, "velocity": 77}, {"time": 1641, "pitch": 48, "duration": 7, "velocity": 86}, {"time": 1644, "pitch": 55, "duration": 5, "velocity": 70}, {"time": 1647, "pitch": 63, "duration": 7, "velocity": 96}, {"time": 1650, "pitch": 48, "duration": 4, "velocity": 66}, {"time": 1653, "pitch": 60, "duration": 5, "velocity": 93}, {"time": 1656, "pitch": 55, "duration": 2, "velocity": 74}, {"time": 1659, "pitch": 43, "duration": 16, "velocity": 79}, {"time": 1662, "pitch": 50, "duration": 13, "velocity": 60}, {"time": 1665, "pitch": 55, "duration": 6, "velocity": 93}, {"time": 1668, "pitch": 58, "duration": 5, "velocity": 77}, {"time": 1671, "pitch": 67, "duration": 7, "velocity": 58}, {"time": 1674, "pitch": 55, "duration": 1, "velocity": 77}, {"time": 1677, "pitch": 62, "duration": 3, "velocity": 52}, {"time": 1680, "pitch": 58, "duration": 3, "velocity": 90}, {"time": 1683, "pitch": 39, "duration": 22, "velocity": 81}, {"time": 1686, "pitch": 46, "duration": 20, "velocity": 34}, {"time": 1689, "pitch": 51, "duration": 6, "velocity": 89}, {"time": 1692, "pitch": 55, "duration": 5, "velocity": 73}, {"time": 1695, "pitch": 63, "duration": 10, "velocity": 90}, {"time": 1698, "pitch": 51, "duration": 9, "velocity": 72}, {"time": 1701, "pitch": 58, "duration": 5, "velocity": 66}, {"time": 1704, "pitch": 55, "duration": 3, "velocity": 72}, {"time": 1707, "pitch": 39, "duration": 16, "velocity": 72}, {"time": 1710, "pitch": 46, "duration": 12, "velocity": 52}, {"time": 1713, "pitch": 51, "duration": 7, "velocity": 79}, {"time": 1716, "pitch": 55, "duration": 3, "velocity": 81}, {"time": 1719, "pitch": 63, "duration": 11, "velocity": 95}, {"time": 1722, "pitch": 51, "duration": 2, "velocity": 86}, {"time": 1725, "pitch": 58, "duration": 4, "velocity": 77}, {"time": 1728, "pitch": 55, "duration": 2, "velocity": 77}, {"time": 1731, "pitch": 41, "duration": 18, "velocity": 66}, {"time": 1734, "pitch": 48, "duration": 16, "velocity": 58}, {"time": 1737, "pitch": 53, "duration": 6, "velocity": 81}, {"time": 1740, "pitch": 56, "duration": 4, "velocity": 59}, {"time": 1743, "pitch": 65, "duration": 9, "velocity": 55}, {"time": 1746, "pitch": 53, "duration": 6, "velocity": 77}, {"time": 1749, "pitch": 56, "duration": 4, "velocity": 73}, {"time": 1752, "pitch": 60, "duration": 2, "velocity": 65}, {"time": 1755, "pitch": 46, "duration": 24, "velocity": 55}, {"time": 1758, "pitch": 53, "duration": 17, "velocity": 62}, {"time": 1761, "pitch": 58, "duration": 6, "velocity": 96}, {"time": 1764, "pitch": 62, "duration": 3, "velocity": 82}, {"time": 1767, "pitch": 65, "duration": 6, "velocity": 72}, {"time": 1770, "pitch": 58, "duration": 6, "velocity": 95}, {"time": 1773, "pitch": 70, "duration": 6, "velocity": 90}, {"time": 1776, "pitch": 62, "duration": 3, "velocity": 67}, {"time": 1779, "pitch": 43, "duration": 21, "velocity": 79}, {"time": 1782, "pitch": 50, "duration": 21, "velocity": 64}, {"time": 1785, "pitch": 55, "duration": 6, "velocity": 72}, {"time": 1788, "pitch": 58, "duration": 5, "velocity": 63}, {"time": 1791, "pitch": 67, "duration": 13, "velocity": 69}, {"time": 1794, "pitch": 55, "duration": 3, "velocity": 63}, {"time": 1797, "pitch": 62, "duration": 4, "velocity": 57}, {"time": 1800, "pitch": 58, "duration": 3, "velocity": 99}, {"time": 1803, "pitch": 43, "duration": 18, "velocity": 72}, {"time": 1806, "pitch": 50, "duration": 14, "velocity": 57}, {"time": 1809, "pitch": 55, "duration": 7, "velocity": 88}, {"time": 1812, "pitch": 58, "duration": 5, "velocity": 79}, {"time": 1815, "pitch": 67, "duration": 12, "velocity": 72}, {"time": 1818, "pitch": 55, "duration": 2, "velocity": 79}, {"time": 1821, "pitch": 62, "duration": 4, "velocity": 50}, {"time": 1824, "pitch": 58, "duration": 3, "velocity": 83}, {"time": 1827, "pitch": 36, "duration": 21, "velocity": 67}, {"time": 1830, "pitch": 43, "duration": 20, "velocity": 55}, {"time": 1833, "pitch": 48, "duration": 7, "velocity": 75}, {"time": 1836, "pitch": 55, "duration": 3, "velocity": 72}, {"time": 1839, "pitch": 60, "duration": 4, "velocity": 66}, {"time": 1842, "pitch": 48, "duration": 5, "velocity": 82}, {"time": 1845, "pitch": 55, "duration": 6, "velocity": 70}, {"time": 1848, "pitch": 63, "duration": 4, "velocity": 88}, {"time": 1851, "pitch": 36, "duration": 16, "velocity": 72}, {"time": 1854, "pitch": 43, "duration": 14, "velocity": 63}, {"time": 1857, "pitch": 48, "duration": 7, "velocity": 75}, {"time": 1860, "pitch": 55, "duration": 4, "velocity": 63}, {"time": 1863, "pitch": 63, "duration": 11, "velocity": 93}, {"time": 1866, "pitch": 48, "duration": 5, "velocity": 81}, {"time": 1869, "pitch": 60, "duration": 5, "velocity": 70}, {"time": 1872, "pitch": 55, "duration": 2, "velocity": 76}, {"time": 1875, "pitch": 41, "duration": 15, "velocity": 71}, {"time": 1878, "pitch": 48, "duration": 12, "velocity": 61}, {"time": 1881, "pitch": 53, "duration": 6, "velocity": 72}, {"time": 1884, "pitch": 60, "duration": 3, "velocity": 77}, {"time": 1887, "pitch": 68, "duration": 10, "velocity": 90}, {"time": 1890, "pitch": 53, "duration": 3, "velocity": 69}, {"time": 1893, "pitch": 65, "duration": 4, "velocity": 77}, {"time": 1896, "pitch": 60, "duration": 2, "velocity": 83}, {"time": 1899, "pitch": 46, "duration": 16, "velocity": 76}, {"time": 1902, "pitch": 53, "duration": 13, "velocity": 59}, {"time": 1905, "pitch": 58, "duration": 7, "velocity": 78}, {"time": 1908, "pitch": 62, "duration": 3, "velocity": 72}, {"time": 1911, "pitch": 70, "duration": 10, "velocity": 96}, {"time": 1914, "pitch": 58, "duration": 1, "velocity": 90}, {"time": 1917, "pitch": 65, "duration": 4, "velocity": 67}, {"time": 1920, "pitch": 62, "duration": 3, "velocity": 70}, {"time": 1923, "pitch": 39, "duration": 23, "velocity": 75}, {"time": 1926, "pitch": 46, "duration": 20, "velocity": 66}, {"time": 1929, "pitch": 51, "duration": 6, "velocity": 82}, {"time": 1932, "pitch": 55, "duration": 5, "velocity": 70}, {"time": 1935, "pitch": 63, "duration": 22, "velocity": 92}, {"time": 1938, "pitch": 51, "duration": 22, "velocity": 82}, {"time": 1941, "pitch": 58, "duration": 16, "velocity": 56}, {"time": 1944, "pitch": 55, "duration": 5, "velocity": 65}, {"time": 1947, "pitch": 39, "duration": 24, "velocity": 67}, {"time": 1953, "pitch": 46, "duration": 16, "velocity": 47}, {"time": 1959, "pitch": 58, "duration": 7, "velocity": 69}, {"time": 1959, "pitch": 63, "duration": 11, "velocity": 93}, {"time": 1962, "pitch": 51, "duration": 7, "velocity": 82}, {"time": 1965, "pitch": 55, "duration": 4, "velocity": 78}, {"time": 1968, "pitch": 58, "duration": 2, "velocity": 70}, {"time": 1971, "pitch": 39, "duration": 21, "velocity": 81}, {"time": 1977, "pitch": 46, "duration": 15, "velocity": 56}, {"time": 1983, "pitch": 63, "duration": 21, "velocity": 93}, {"time": 1989, "pitch": 55, "duration": 12, "velocity": 69}, {"time": 1995, "pitch": 39, "duration": 16, "velocity": 73}, {"time": 2001, "pitch": 51, "duration": 10, "velocity": 73}, {"time": 2007, "pitch": 58, "duration": 10, "velocity": 63}, {"time": 2007, "pitch": 63, "duration": 12, "velocity": 95}, {"time": 2013, "pitch": 55, "duration": 8, "velocity": 66}, {"time": 2019, "pitch": 48, "duration": 15, "velocity": 61}, {"time": 2025, "pitch": 55, "duration": 11, "velocity": 76}, {"time": 2031, "pitch": 60, "duration": 5, "velocity": 79}, {"time": 2031, "pitch": 63, "duration": 6, "velocity": 77}, {"time": 2037, "pitch": 48, "duration": 6, "velocity": 78}, {"time": 2043, "pitch": 43, "duration": 14, "velocity": 65}, {"time": 2049, "pitch": 50, "duration": 8, "velocity": 56}, {"time": 2055, "pitch": 58, "duration": 10, "velocity": 82}, {"time": 2055, "pitch": 62, "duration": 11, "velocity": 72}, {"time": 2061, "pitch": 55, "duration": 5, "velocity": 58}, {"time": 2064, "pitch": 41, "duration": 17, "velocity": 67}, {"time": 2073, "pitch": 48, "duration": 12, "velocity": 63}, {"time": 2079, "pitch": 53, "duration": 6, "velocity": 56}, {"time": 2079, "pitch": 65, "duration": 22, "velocity": 67}, {"time": 2079, "pitch": 68, "duration": 22, "velocity": 56}, {"time": 2085, "pitch": 41, "duration": 2, "velocity": 79}, {"time": 2091, "pitch": 41, "duration": 14, "velocity": 74}, {"time": 2097, "pitch": 48, "duration": 8, "velocity": 50}, {"time": 2103, "pitch": 53, "duration": 4, "velocity": 69}, {"time": 2103, "pitch": 65, "duration": 12, "velocity": 78}, {"time": 2103, "pitch": 68, "duration": 12, "velocity": 73}, {"time": 2109, "pitch": 60, "duration": 5, "velocity": 73}, {"time": 2115, "pitch": 46, "duration": 15, "velocity": 82}, {"time": 2121, "pitch": 53, "duration": 8, "velocity": 43}, {"time": 2127, "pitch": 62, "duration": 15, "velocity": 61}, {"time": 2127, "pitch": 65, "duration": 20, "velocity": 57}, {"time": 2127, "pitch": 70, "duration": 20, "velocity": 56}, {"time": 2133, "pitch": 46, "duration": 4, "velocity": 67}, {"time": 2139, "pitch": 46, "duration": 14, "velocity": 89}, {"time": 2145, "pitch": 58, "duration": 6, "velocity": 97}, {"time": 2151, "pitch": 65, "duration": 11, "velocity": 90}, {"time": 2151, "pitch": 70, "duration": 10, "velocity": 102}, {"time": 2157, "pitch": 62, "duration": 6, "velocity": 76}, {"time": 2163, "pitch": 43, "duration": 34, "velocity": 59}, {"time": 2163, "pitch": 50, "duration": 32, "velocity": 27}, {"time": 2163, "pitch": 55, "duration": 45, "velocity": 72}, {"time": 2163, "pitch": 58, "duration": 44, "velocity": 76}, {"time": 2163, "pitch": 62, "duration": 41, "velocity": 70}, {"time": 2211, "pitch": 36, "duration": 35, "velocity": 46}, {"time": 2211, "pitch": 48, "duration": 28, "velocity": 60}, {"time": 2211, "pitch": 55, "duration": 33, "velocity": 66}, {"time": 2211, "pitch": 60, "duration": 34, "velocity": 66}, {"time": 2211, "pitch": 63, "duration": 33, "velocity": 57}, {"time": 2241, "pitch": 48, "duration": 8, "velocity": 34}, {"time": 2247, "pitch": 60, "duration": 12, "velocity": 97}, {"time": 2247, "pitch": 63, "duration": 12, "velocity": 112}, {"time": 2253, "pitch": 55, "duration": 6, "velocity": 76}, {"time": 2259, "pitch": 41, "duration": 12, "velocity": 85}, {"time": 2265, "pitch": 48, "duration": 9, "velocity": 56}, {"time": 2271, "pitch": 56, "duration": 5, "velocity": 73}, {"time": 2271, "pitch": 60, "duration": 6, "velocity": 67}, {"time": 2277, "pitch": 41, "duration": 3, "velocity": 95}, {"time": 2283, "pitch": 46, "duration": 19, "velocity": 95}, {"time": 2289, "pitch": 58, "duration": 8, "velocity": 77}, {"time": 2295, "pitch": 65, "duration": 12, "velocity": 86}, {"time": 2298, "pitch": 58, "duration": 1, "velocity": 73}, {"time": 2307, "pitch": 39, "duration": 16, "velocity": 81}, {"time": 2313, "pitch": 51, "duration": 10, "velocity": 72}, {"time": 2319, "pitch": 55, "duration": 10, "velocity": 61}, {"time": 2319, "pitch": 58, "duration": 20, "velocity": 66}, {"time": 2319, "pitch": 63, "duration": 20, "velocity": 66}, {"time": 2325, "pitch": 39, "duration": 2, "velocity": 92}, {"time": 2331, "pitch": 39, "duration": 19, "velocity": 92}, {"time": 2337, "pitch": 51, "duration": 14, "velocity": 92}, {"time": 2343, "pitch": 58, "duration": 12, "velocity": 86}, {"time": 2343, "pitch": 63, "duration": 12, "velocity": 85}, {"time": 2349, "pitch": 55, "duration": 6, "velocity": 68}, {"time": 2355, "pitch": 39, "duration": 15, "velocity": 82}, {"time": 2361, "pitch": 51, "duration": 9, "velocity": 55}, {"time": 2367, "pitch": 55, "duration": 16, "velocity": 49}, {"time": 2367, "pitch": 58, "duration": 18, "velocity": 59}, {"time": 2367, "pitch": 63, "duration": 18, "velocity": 47}, {"time": 2373, "pitch": 39, "duration": 2, "velocity": 72}, {"time": 2379, "pitch": 39, "duration": 14, "velocity": 82}, {"time": 2385, "pitch": 51, "duration": 6, "velocity": 68}, {"time": 2391, "pitch": 58, "duration": 11, "velocity": 72}, {"time": 2391, "pitch": 63, "duration": 10, "velocity": 83}, {"time": 2397, "pitch": 55, "duration": 10, "velocity": 58}, {"time": 2403, "pitch": 36, "duration": 15, "velocity": 59}, {"time": 2409, "pitch": 43, "duration": 9, "velocity": 35}, {"time": 2415, "pitch": 55, "duration": 15, "velocity": 55}, {"time": 2415, "pitch": 60, "duration": 17, "velocity": 63}, {"time": 2415, "pitch": 63, "duration": 17, "velocity": 67}, {"time": 2421, "pitch": 36, "duration": 3, "velocity": 69}, {"time": 2427, "pitch": 36, "duration": 13, "velocity": 73}, {"time": 2433, "pitch": 43, "duration": 7, "velocity": 53}, {"time": 2439, "pitch": 60, "duration": 11, "velocity": 76}, {"time": 2439, "pitch": 63, "duration": 12, "velocity": 85}, {"time": 2445, "pitch": 55, "duration": 5, "velocity": 57}, {"time": 2451, "pitch": 44, "duration": 15, "velocity": 56}, {"time": 2457, "pitch": 51, "duration": 9, "velocity": 28}, {"time": 2463, "pitch": 60, "duration": 19, "velocity": 62}, {"time": 2463, "pitch": 63, "duration": 20, "velocity": 64}, {"time": 2463, "pitch": 68, "duration": 20, "velocity": 58}, {"time": 2469, "pitch": 44, "duration": 3, "velocity": 77}, {"time": 2475, "pitch": 44, "duration": 19, "velocity": 72}, {"time": 2481, "pitch": 51, "duration": 12, "velocity": 55}, {"time": 2487, "pitch": 56, "duration": 5, "velocity": 40}, {"time": 2487, "pitch": 63, "duration": 12, "velocity": 74}, {"time": 2487, "pitch": 68, "duration": 13, "velocity": 77}, {"time": 2493, "pitch": 60, "duration": 5, "velocity": 65}, {"time": 2499, "pitch": 46, "duration": 14, "velocity": 77}, {"time": 2505, "pitch": 53, "duration": 10, "velocity": 53}, {"time": 2511, "pitch": 58, "duration": 4, "velocity": 77}, {"time": 2511, "pitch": 62, "duration": 19, "velocity": 65}, {"time": 2511, "pitch": 65, "duration": 19, "velocity": 68}, {"time": 2517, "pitch": 46, "duration": 4, "velocity": 95}, {"time": 2523, "pitch": 46, "duration": 20, "velocity": 78}, {"time": 2529, "pitch": 58, "duration": 10, "velocity": 71}, {"time": 2535, "pitch": 65, "duration": 11, "velocity": 72}, {"time": 2535, "pitch": 70, "duration": 12, "velocity": 93}, {"time": 2541, "pitch": 62, "duration": 5, "velocity": 73}, {"time": 2547, "pitch": 43, "duration": 14, "velocity": 71}, {"time": 2553, "pitch": 50, "duration": 9, "velocity": 58}, {"time": 2559, "pitch": 62, "duration": 14, "velocity": 49}, {"time": 2559, "pitch": 67, "duration": 14, "velocity": 60}, {"time": 2559, "pitch": 70, "duration": 19, "velocity": 49}, {"time": 2565, "pitch": 43, "duration": 3, "velocity": 68}, {"time": 2571, "pitch": 43, "duration": 17, "velocity": 65}, {"time": 2577, "pitch": 50, "duration": 11, "velocity": 40}, {"time": 2583, "pitch": 55, "duration": 12, "velocity": 69}, {"time": 2583, "pitch": 67, "duration": 10, "velocity": 72}, {"time": 2583, "pitch": 70, "duration": 11, "velocity": 66}, {"time": 2589, "pitch": 62, "duration": 7, "velocity": 61}, {"time": 2595, "pitch": 48, "duration": 15, "velocity": 71}, {"time": 2601, "pitch": 55, "duration": 10, "velocity": 53}, {"time": 2607, "pitch": 60, "duration": 11, "velocity": 58}, {"time": 2607, "pitch": 63, "duration": 14, "velocity": 64}, {"time": 2607, "pitch": 67, "duration": 14, "velocity": 55}, {"time": 2613, "pitch": 48, "duration": 3, "velocity": 67}, {"time": 2619, "pitch": 48, "duration": 12, "velocity": 69}, {"time": 2625, "pitch": 60, "duration": 7, "velocity": 69}, {"time": 2631, "pitch": 63, "duration": 9, "velocity": 63}, {"time": 2631, "pitch": 67, "duration": 8, "velocity": 68}, {"time": 2637, "pitch": 60, "duration": 13, "velocity": 62}, {"time": 2643, "pitch": 41, "duration": 15, "velocity": 72}, {"time": 2649, "pitch": 48, "duration": 11, "velocity": 59}, {"time": 2655, "pitch": 65, "duration": 12, "velocity": 68}, {"time": 2655, "pitch": 68, "duration": 12, "velocity": 71}, {"time": 2661, "pitch": 41, "duration": 3, "velocity": 72}, {"time": 2667, "pitch": 46, "duration": 15, "velocity": 77}, {"time": 2679, "pitch": 62, "duration": 5, "velocity": 55}, {"time": 2679, "pitch": 65, "duration": 6, "velocity": 71}, {"time": 2679, "pitch": 70, "duration": 8, "velocity": 72}, {"time": 2685, "pitch": 46, "duration": 3, "velocity": 52}, {"time": 2691, "pitch": 39, "duration": 14, "velocity": 61}, {"time": 2697, "pitch": 46, "duration": 8, "velocity": 34}, {"time": 2703, "pitch": 55, "duration": 10, "velocity": 53}, {"time": 2703, "pitch": 58, "duration": 9, "velocity": 68}, {"time": 2703, "pitch": 63, "duration": 16, "velocity": 61}, {"time": 2709, "pitch": 39, "duration": 5, "velocity": 74}, {"time": 2715, "pitch": 39, "duration": 20, "velocity": 69}, {"time": 2721, "pitch": 46, "duration": 15, "velocity": 36}, {"time": 2727, "pitch": 58, "duration": 6, "velocity": 112}, {"time": 2727, "pitch": 63, "duration": 9, "velocity": 100}, {"time": 2730, "pitch": 51, "duration": 7, "velocity": 73}, {"time": 2733, "pitch": 55, "duration": 4, "velocity": 88}, {"time": 2736, "pitch": 58, "duration": 2, "velocity": 73}, {"time": 2739, "pitch": 39, "duration": 22, "velocity": 97}, {"time": 2742, "pitch": 46, "duration": 19, "velocity": 36}, {"time": 2745, "pitch": 51, "duration": 18, "velocity": 88}, {"time": 2748, "pitch": 55, "duration": 4, "velocity": 66}, {"time": 2751, "pitch": 63, "duration": 9, "velocity": 112}, {"time": 2754, "pitch": 58, "duration": 3, "velocity": 71}, {"time": 2757, "pitch": 55, "duration": 5, "velocity": 76}, {"time": 2760, "pitch": 58, "duration": 4, "velocity": 85}, {"time": 2763, "pitch": 39, "duration": 18, "velocity": 86}, {"time": 2766, "pitch": 46, "duration": 14, "velocity": 47}, {"time": 2769, "pitch": 51, "duration": 6, "velocity": 93}, {"time": 2772, "pitch": 55, "duration": 4, "velocity": 75}, {"time": 2775, "pitch": 63, "duration": 9, "velocity": 99}, {"time": 2778, "pitch": 51, "duration": 2, "velocity": 88}, {"time": 2781, "pitch": 58, "duration": 3, "velocity": 88}, {"time": 2784, "pitch": 55, "duration": 5, "velocity": 73}, {"time": 2787, "pitch": 36, "duration": 17, "velocity": 76}, {"time": 2790, "pitch": 43, "duration": 13, "velocity": 77}, {"time": 2793, "pitch": 48, "duration": 7, "velocity": 86}, {"time": 2796, "pitch": 55, "duration": 5, "velocity": 70}, {"time": 2799, "pitch": 63, "duration": 7, "velocity": 96}, {"time": 2802, "pitch": 48, "duration": 4, "velocity": 66}, {"time": 2805, "pitch": 60, "duration": 5, "velocity": 93}, {"time": 2808, "pitch": 55, "duration": 2, "velocity": 74}, {"time": 2811, "pitch": 43, "duration": 16, "velocity": 79}, {"time": 2814, "pitch": 50, "duration": 13, "velocity": 60}, {"time": 2817, "pitch": 55, "duration": 6, "velocity": 93}, {"time": 2820, "pitch": 58, "duration": 5, "velocity": 77}, {"time": 2823, "pitch": 67, "duration": 7, "velocity": 58}, {"time": 2826, "pitch": 55, "duration": 1, "velocity": 77}, {"time": 2829, "pitch": 62, "duration": 3, "velocity": 52}, {"time": 2832, "pitch": 58, "duration": 3, "velocity": 90}, {"time": 2835, "pitch": 39, "duration": 22, "velocity": 81}, {"time": 2838, "pitch": 46, "duration": 20, "velocity": 34}, {"time": 2841, "pitch": 51, "duration": 6, "velocity": 89}, {"time": 2844, "pitch": 55, "duration": 5, "velocity": 73}, {"time": 2847, "pitch": 63, "duration": 10, "velocity": 90}, {"time": 2850, "pitch": 51, "duration": 9, "velocity": 72}, {"time": 2853, "pitch": 58, "duration": 5, "velocity": 66}, {"time": 2856, "pitch": 55, "duration": 3, "velocity": 72}, {"time": 2859, "pitch": 39, "duration": 16, "velocity": 72}, {"time": 2862, "pitch": 46, "duration": 12, "velocity": 52}, {"time": 2865, "pitch": 51, "duration": 7, "velocity": 79}, {"time": 2868, "pitch": 55, "duration": 3, "velocity": 81}, {"time": 2871, "pitch": 63, "duration": 11, "velocity": 95}, {"time": 2874, "pitch": 51, "duration": 2, "velocity": 86}, {"time": 2877, "pitch": 58, "duration": 4, "velocity": 77}, {"time": 2880, "pitch": 55, "duration": 2, "velocity": 77}, {"time": 2883, "pitch": 41, "duration": 18, "velocity": 66}, {"time": 2886, "pitch": 48, "duration": 16, "velocity": 58}, {"time": 2889, "pitch": 53, "duration": 6, "velocity": 81}, {"time": 2892, "pitch": 56, "duration": 4, "velocity": 59}, {"time": 2895, "pitch": 65, "duration": 9, "velocity": 55}, {"time": 2898, "pitch": 53, "duration": 6, "velocity": 77}, {"time": 2901, "pitch": 56, "duration": 4, "velocity": 73}, {"time": 2904, "pitch": 60, "duration": 2, "velocity": 65}, {"time": 2907, "pitch": 46, "duration": 24, "velocity": 55}, {"time": 2910, "pitch": 53, "duration": 17, "velocity": 62}, {"time": 2913, "pitch": 58, "duration": 6, "velocity": 96}, {"time": 2916, "pitch": 62, "duration": 3, "velocity": 82}, {"time": 2919, "pitch": 65, "duration": 6, "velocity": 72}, {"time": 2922, "pitch": 58, "duration": 6, "velocity": 95}, {"time": 2925, "pitch": 70, "duration": 6, "velocity": 90}, {"time": 2928, "pitch": 62, "duration": 3, "velocity": 67}, {"time": 2931, "pitch": 43, "duration": 21, "velocity": 79}, {"time": 2934, "pitch": 50, "duration": 21, "velocity": 64}, {"time": 2937, "pitch": 55, "duration": 6, "velocity": 72}, {"time": 2940, "pitch": 58, "duration": 5, "velocity": 63}, {"time": 2943, "pitch": 67, "duration": 13, "velocity": 69}, {"time": 2946, "pitch": 55, "duration": 3, "velocity": 63}, {"time": 2949, "pitch": 62, "duration": 4, "velocity": 57}, {"time": 2952, "pitch": 58, "duration": 3, "velocity": 99}, {"time": 2955, "pitch": 43, "duration": 18, "velocity": 72}, {"time": 2958, "pitch": 50, "duration": 14, "velocity": 57}, {"time": 2961, "pitch": 55, "duration": 7, "velocity": 88}, {"time": 2964, "pitch": 58, "duration": 5, "velocity": 79}, {"time": 2967, "pitch": 67, "duration": 12, "velocity": 72}, {"time": 2970, "pitch": 55, "duration": 2, "velocity": 79}, {"time": 2973, "pitch": 62, "duration": 4, "velocity": 50}, {"time": 2976, "pitch": 58, "duration": 3, "velocity": 83}, {"time": 2979, "pitch": 36, "duration": 21, "velocity": 67}, {"time": 2982, "pitch": 43, "duration": 20, "velocity": 55}, {"time": 2985, "pitch": 48, "duration": 7, "velocity": 75}, {"time": 2988, "pitch": 55, "duration": 3, "velocity": 72}, {"time": 2991, "pitch": 60, "duration": 4, "velocity": 66}, {"time": 2994, "pitch": 48, "duration": 5, "velocity": 82}, {"time": 2997, "pitch": 55, "duration": 6, "velocity": 70}, {"time": 3000, "pitch": 63, "duration": 4, "velocity": 88}, {"time": 3003, "pitch": 36, "duration": 16, "velocity": 72}, {"time": 3006, "pitch": 43, "duration": 14, "velocity": 63}, {"time": 3009, "pitch": 48, "duration": 7, "velocity": 75}, {"time": 3012, "pitch": 55, "duration": 4, "velocity": 63}, {"time": 3015, "pitch": 63, "duration": 11, "velocity": 93}, {"time": 3018, "pitch": 48, "duration": 5, "velocity": 81}, {"time": 3021, "pitch": 60, "duration": 5, "velocity": 70}, {"time": 3024, "pitch": 55, "duration": 2, "velocity": 76}, {"time": 3027, "pitch": 41, "duration": 23, "velocity": 66}, {"time": 3030, "pitch": 48, "duration": 21, "velocity": 56}, {"time": 3033, "pitch": 53, "duration": 7, "velocity": 83}, {"time": 3036, "pitch": 60, "duration": 3, "velocity": 40}, {"time": 3039, "pitch": 68, "duration": 12, "velocity": 93}, {"time": 3042, "pitch": 53, "duration": 4, "velocity": 78}, {"time": 3045, "pitch": 65, "duration": 5, "velocity": 77}, {"time": 3048, "pitch": 60, "duration": 4, "velocity": 72}, {"time": 3051, "pitch": 41, "duration": 17, "velocity": 69}, {"time": 3054, "pitch": 48, "duration": 14, "velocity": 67}, {"time": 3057, "pitch": 53, "duration": 7, "velocity": 82}, {"time": 3060, "pitch": 60, "duration": 4, "velocity": 74}, {"time": 3063, "pitch": 68, "duration": 9, "velocity": 99}, {"time": 3066, "pitch": 53, "duration": 3, "velocity": 90}, {"time": 3069, "pitch": 65, "duration": 4, "velocity": 85}, {"time": 3072, "pitch": 60, "duration": 3, "velocity": 77}, {"time": 3075, "pitch": 46, "duration": 21, "velocity": 90}, {"time": 3078, "pitch": 53, "duration": 20, "velocity": 54}, {"time": 3081, "pitch": 58, "duration": 6, "velocity": 83}, {"time": 3084, "pitch": 62, "duration": 3, "velocity": 86}, {"time": 3087, "pitch": 65, "duration": 6, "velocity": 79}, {"time": 3090, "pitch": 58, "duration": 10, "velocity": 93}, {"time": 3093, "pitch": 62, "duration": 9, "velocity": 66}, {"time": 3096, "pitch": 70, "duration": 10, "velocity": 102}, {"time": 3099, "pitch": 46, "duration": 23, "velocity": 83}, {"time": 3102, "pitch": 53, "duration": 19, "velocity": 63}, {"time": 3105, "pitch": 58, "duration": 6, "velocity": 97}, {"time": 3108, "pitch": 62, "duration": 4, "velocity": 85}, {"time": 3111, "pitch": 70, "duration": 12, "velocity": 107}, {"time": 3114, "pitch": 58, "duration": 7, "velocity": 99}, {"time": 3117, "pitch": 65, "duration": 6, "velocity": 88}, {"time": 3120, "pitch": 62, "duration": 3, "velocity": 89}, {"time": 3123, "pitch": 39, "duration": 22, "velocity": 97}, {"time": 3126, "pitch": 46, "duration": 19, "velocity": 36}, {"time": 3129, "pitch": 51, "duration": 18, "velocity": 88}, {"time": 3132, "pitch": 55, "duration": 4, "velocity": 66}, {"time": 3135, "pitch": 63, "duration": 9, "velocity": 112}, {"time": 3138, "pitch": 58, "duration": 3, "velocity": 71}, {"time": 3141, "pitch": 55, "duration": 5, "velocity": 76}, {"time": 3144, "pitch": 58, "duration": 4, "velocity": 85}, {"time": 3147, "pitch": 39, "duration": 18, "velocity": 86}, {"time": 3150, "pitch": 46, "duration": 14, "velocity": 47}, {"time": 3153, "pitch": 51, "duration": 6, "velocity": 93}, {"time": 3156, "pitch": 55, "duration": 4, "velocity": 75}, {"time": 3159, "pitch": 63, "duration": 9, "velocity": 99}, {"time": 3162, "pitch": 51, "duration": 2, "velocity": 88}, {"time": 3165, "pitch": 58, "duration": 3, "velocity": 88}, {"time": 3168, "pitch": 55, "duration": 5, "velocity": 73}, {"time": 3171, "pitch": 36, "duration": 17, "velocity": 76}, {"time": 3174, "pitch": 43, "duration": 13, "velocity": 77}, {"time": 3177, "pitch": 48, "duration": 7, "velocity": 86}, {"time": 3180, "pitch": 55, "duration": 5, "velocity": 70}, {"time": 3183, "pitch": 63, "duration": 7, "velocity": 96}, {"time": 3186, "pitch": 48, "duration": 4, "velocity": 66}, {"time": 3189, "pitch": 60, "duration": 5, "velocity": 93}, {"time": 3192, "pitch": 55, "duration": 2, "velocity": 74}, {"time": 3195, "pitch": 43, "duration": 16, "velocity": 79}, {"time": 3198, "pitch": 50, "duration": 13, "velocity": 60}, {"time": 3201, "pitch": 55, "duration": 6, "velocity": 93}, {"time": 3204, "pitch": 58, "duration": 5, "velocity": 77}, {"time": 3207, "pitch": 67, "duration": 7, "velocity": 58}, {"time": 3210, "pitch": 55, "duration": 1, "velocity": 77}, {"time": 3213, "pitch": 62, "duration": 3, "velocity": 52}, {"time": 3216, "pitch": 58, "duration": 3, "velocity": 90}, {"time": 3219, "pitch": 39, "duration": 22, "velocity": 81}, {"time": 3222, "pitch": 46, "duration": 20, "velocity": 34}, {"time": 3225, "pitch": 51, "duration": 6, "velocity": 89}, {"time": 3228, "pitch": 55, "duration": 5, "velocity": 73}, {"time": 3231, "pitch": 63, "duration": 10, "velocity": 90}, {"time": 3234, "pitch": 51, "duration": 9, "velocity": 72}, {"time": 3237, "pitch": 58, "duration": 5, "velocity": 66}, {"time": 3240, "pitch": 55, "duration": 3, "velocity": 72}, {"time": 3243, "pitch": 39, "duration": 16, "velocity": 72}, {"time": 3246, "pitch": 46, "duration": 12, "velocity": 52}, {"time": 3249, "pitch": 51, "duration": 7, "velocity": 79}, {"time": 3252, "pitch": 55, "duration": 3, "velocity": 81}, {"time": 3255, "pitch": 63, "duration": 11, "velocity": 95}, {"time": 3258, "pitch": 51, "duration": 2, "velocity": 86}, {"time": 3261, "pitch": 58, "duration": 4, "velocity": 77}, {"time": 3264, "pitch": 55, "duration": 2, "velocity": 77}, {"time": 3267, "pitch": 41, "duration": 18, "velocity": 66}, {"time": 3270, "pitch": 48, "duration": 16, "velocity": 58}, {"time": 3273, "pitch": 53, "duration": 6, "velocity": 81}, {"time": 3276, "pitch": 56, "duration": 4, "velocity": 59}, {"time": 3279, "pitch": 65, "duration": 9, "velocity": 55}, {"time": 3282, "pitch": 53, "duration": 6, "velocity": 77}, {"time": 3285, "pitch": 56, "duration": 4, "velocity": 73}, {"time": 3288, "pitch": 60, "duration": 2, "velocity": 65}, {"time": 3291, "pitch": 46, "duration": 24, "velocity": 55}, {"time": 3294, "pitch": 53, "duration": 17, "velocity": 62}, {"time": 3297, "pitch": 58, "duration": 6, "velocity": 96}, {"time": 3300, "pitch": 62, "duration": 3, "velocity": 82}, {"time": 3303, "pitch": 65, "duration": 6, "velocity": 72}, {"time": 3306, "pitch": 58, "duration": 6, "velocity": 95}, {"time": 3309, "pitch": 70, "duration": 6, "velocity": 90}, {"time": 3312, "pitch": 62, "duration": 3, "velocity": 67}, {"time": 3315, "pitch": 43, "duration": 21, "velocity": 79}, {"time": 3318, "pitch": 50, "duration": 21, "velocity": 64}, {"time": 3321, "pitch": 55, "duration": 6, "velocity": 72}, {"time": 3324, "pitch": 58, "duration": 5, "velocity": 63}, {"time": 3327, "pitch": 67, "duration": 13, "velocity": 69}, {"time": 3330, "pitch": 55, "duration": 3, "velocity": 63}, {"time": 3333, "pitch": 62, "duration": 4, "velocity": 57}, {"time": 3336, "pitch": 58, "duration": 3, "velocity": 99}, {"time": 3339, "pitch": 43, "duration": 18, "velocity": 72}, {"time": 3342, "pitch": 50, "duration": 14, "velocity": 57}, {"time": 3345, "pitch": 55, "duration": 7, "velocity": 88}, {"time": 3348, "pitch": 58, "duration": 5, "velocity": 79}, {"time": 3351, "pitch": 67, "duration": 12, "velocity": 72}, {"time": 3354, "pitch": 55, "duration": 2, "velocity": 79}, {"time": 3357, "pitch": 62, "duration": 4, "velocity": 50}, {"time": 3360, "pitch": 58, "duration": 3, "velocity": 83}, {"time": 3363, "pitch": 36, "duration": 21, "velocity": 67}, {"time": 3366, "pitch": 43, "duration": 20, "velocity": 55}, {"time": 3369, "pitch": 48, "duration": 7, "velocity": 75}, {"time": 3372, "pitch": 55, "duration": 3, "velocity": 72}, {"time": 3375, "pitch": 60, "duration": 4, "velocity": 66}, {"time": 3378, "pitch": 48, "duration": 5, "velocity": 82}, {"time": 3381, "pitch": 55, "duration": 6, "velocity": 70}, {"time": 3384, "pitch": 63, "duration": 4, "velocity": 88}, {"time": 3387, "pitch": 36, "duration": 16, "velocity": 72}, {"time": 3390, "pitch": 43, "duration": 14, "velocity": 63}, {"time": 3393, "pitch": 48, "duration": 7, "velocity": 75}, {"time": 3396, "pitch": 55, "duration": 4, "velocity": 63}, {"time": 3399, "pitch": 63, "duration": 11, "velocity": 93}, {"time": 3402, "pitch": 48, "duration": 5, "velocity": 81}, {"time": 3405, "pitch": 60, "duration": 5, "velocity": 70}, {"time": 3408, "pitch": 55, "duration": 2, "velocity": 76}, {"time": 3411, "pitch": 41, "duration": 15, "velocity": 71}, {"time": 3414, "pitch": 48, "duration": 12, "velocity": 61}, {"time": 3417, "pitch": 53, "duration": 6, "velocity": 72}, {"time": 3420, "pitch": 60, "duration": 3, "velocity": 77}, {"time": 3423, "pitch": 68, "duration": 10, "velocity": 90}, {"time": 3426, "pitch": 53, "duration": 3, "velocity": 69}, {"time": 3429, "pitch": 65, "duration": 4, "velocity": 77}, {"time": 3432, "pitch": 60, "duration": 2, "velocity": 83}, {"time": 3435, "pitch": 46, "duration": 16, "velocity": 76}, {"time": 3438, "pitch": 53, "duration": 13, "velocity": 59}, {"time": 3441, "pitch": 58, "duration": 7, "velocity": 78}, {"time": 3444, "pitch": 62, "duration": 3, "velocity": 72}, {"time": 3447, "pitch": 70, "duration": 10, "velocity": 96}, {"time": 3450, "pitch": 58, "duration": 1, "velocity": 90}, {"time": 3453, "pitch": 65, "duration": 4, "velocity": 67}, {"time": 3456, "pitch": 62, "duration": 3, "velocity": 70}, {"time": 3459, "pitch": 39, "duration": 23, "velocity": 76}, {"time": 3462, "pitch": 46, "duration": 18, "velocity": 42}, {"time": 3465, "pitch": 51, "duration": 6, "velocity": 63}, {"time": 3468, "pitch": 55, "duration": 5, "velocity": 57}, {"time": 3471, "pitch": 63, "duration": 14, "velocity": 99}, {"time": 3474, "pitch": 51, "duration": 21, "velocity": 83}, {"time": 3477, "pitch": 58, "duration": 7, "velocity": 89}, {"time": 3480, "pitch": 55, "duration": 8, "velocity": 79}, {"time": 3483, "pitch": 39, "duration": 23, "velocity": 88}, {"time": 3489, "pitch": 55, "duration": 3, "velocity": 57}, {"time": 3489, "pitch": 58, "duration": 4, "velocity": 93}, {"time": 3489, "pitch": 63, "duration": 4, "velocity": 78}, {"time": 3492, "pitch": 46, "duration": 11, "velocity": 28}, {"time": 3495, "pitch": 58, "duration": 12, "velocity": 97}, {"time": 3495, "pitch": 63, "duration": 12, "velocity": 85}, {"time": 3498, "pitch": 51, "duration": 8, "velocity": 68}, {"time": 3501, "pitch": 55, "duration": 6, "velocity": 78}, {"time": 3507, "pitch": 39, "duration": 22, "velocity": 97}, {"time": 3510, "pitch": 46, "duration": 19, "velocity": 36}, {"time": 3513, "pitch": 51, "duration": 18, "velocity": 88}, {"time": 3516, "pitch": 55, "duration": 4, "velocity": 66}, {"time": 3519, "pitch": 63, "duration": 9, "velocity": 112}, {"time": 3522, "pitch": 58, "duration": 3, "velocity": 71}, {"time": 3525, "pitch": 55, "duration": 5, "velocity": 76}, {"time": 3528, "pitch": 58, "duration": 4, "velocity": 85}, {"time": 3531, "pitch": 39, "duration": 18, "velocity": 86}, {"time": 3534, "pitch": 46, "duration": 14, "velocity": 47}, {"time": 3537, "pitch": 51, "duration": 6, "velocity": 93}, {"time": 3540, "pitch": 55, "duration": 4, "velocity": 75}, {"time": 3543, "pitch": 63, "duration": 9, "velocity": 99}, {"time": 3546, "pitch": 51, "duration": 2, "velocity": 88}, {"time": 3549, "pitch": 58, "duration": 3, "velocity": 88}, {"time": 3552, "pitch": 55, "duration": 5, "velocity": 73}, {"time": 3555, "pitch": 36, "duration": 17, "velocity": 76}, {"time": 3558, "pitch": 43, "duration": 13, "velocity": 77}, {"time": 3561, "pitch": 48, "duration": 7, "velocity": 86}, {"time": 3564, "pitch": 55, "duration": 5, "velocity": 70}, {"time": 3567, "pitch": 63, "duration": 7, "velocity": 96}, {"time": 3570, "pitch": 48, "duration": 4, "velocity": 66}, {"time": 3573, "pitch": 60, "duration": 5, "velocity": 93}, {"time": 3576, "pitch": 55, "duration": 2, "velocity": 74}, {"time": 3579, "pitch": 43, "duration": 16, "velocity": 79}, {"time": 3582, "pitch": 50, "duration": 13, "velocity": 60}, {"time": 3585, "pitch": 55, "duration": 6, "velocity": 93}, {"time": 3588, "pitch": 58, "duration": 5, "velocity": 77}, {"time": 3591, "pitch": 67, "duration": 7, "velocity": 58}, {"time": 3594, "pitch": 55, "duration": 1, "velocity": 77}, {"time": 3597, "pitch": 62, "duration": 3, "velocity": 52}, {"time": 3600, "pitch": 58, "duration": 3, "velocity": 90}, {"time": 3603, "pitch": 39, "duration": 22, "velocity": 81}, {"time": 3606, "pitch": 46, "duration": 20, "velocity": 34}, {"time": 3609, "pitch": 51, "duration": 6, "velocity": 89}, {"time": 3612, "pitch": 55, "duration": 5, "velocity": 73}, {"time": 3615, "pitch": 63, "duration": 10, "velocity": 90}, {"time": 3618, "pitch": 51, "duration": 9, "velocity": 72}, {"time": 3621, "pitch": 58, "duration": 5, "velocity": 66}, {"time": 3624, "pitch": 55, "duration": 3, "velocity": 72}, {"time": 3627, "pitch": 39, "duration": 16, "velocity": 72}, {"time": 3630, "pitch": 46, "duration": 12, "velocity": 52}, {"time": 3633, "pitch": 51, "duration": 7, "velocity": 79}, {"time": 3636, "pitch": 55, "duration": 3, "velocity": 81}, {"time": 3639, "pitch": 63, "duration": 11, "velocity": 95}, {"time": 3642, "pitch": 51, "duration": 2, "velocity": 86}, {"time": 3645, "pitch": 58, "duration": 4, "velocity": 77}, {"time": 3648, "pitch": 55, "duration": 2, "velocity": 77}, {"time": 3651, "pitch": 41, "duration": 18, "velocity": 66}, {"time": 3654, "pitch": 48, "duration": 16, "velocity": 58}, {"time": 3657, "pitch": 53, "duration": 6, "velocity": 81}, {"time": 3660, "pitch": 56, "duration": 4, "velocity": 59}, {"time": 3663, "pitch": 65, "duration": 9, "velocity": 55}, {"time": 3666, "pitch": 53, "duration": 6, "velocity": 77}, {"time": 3669, "pitch": 56, "duration": 4, "velocity": 73}, {"time": 3672, "pitch": 60, "duration": 2, "velocity": 65}, {"time": 3675, "pitch": 46, "duration": 24, "velocity": 55}, {"time": 3678, "pitch": 53, "duration": 17, "velocity": 62}, {"time": 3681, "pitch": 58, "duration": 6, "velocity": 96}, {"time": 3684, "pitch": 62, "duration": 3, "velocity": 82}, {"time": 3687, "pitch": 65, "duration": 6, "velocity": 72}, {"time": 3690, "pitch": 58, "duration": 6, "velocity": 95}, {"time": 3693, "pitch": 70, "duration": 6, "velocity": 90}, {"time": 3696, "pitch": 62, "duration": 3, "velocity": 67}, {"time": 3699, "pitch": 43, "duration": 21, "velocity": 79}, {"time": 3702, "pitch": 50, "duration": 21, "velocity": 64}, {"time": 3705, "pitch": 55, "duration": 6, "velocity": 72}, {"time": 3708, "pitch": 58, "duration": 5, "velocity": 63}, {"time": 3711, "pitch": 67, "duration": 13, "velocity": 69}, {"time": 3714, "pitch": 55, "duration": 3, "velocity": 63}, {"time": 3717, "pitch": 62, "duration": 4, "velocity": 57}, {"time": 3720, "pitch": 58, "duration": 3, "velocity": 99}, {"time": 3723, "pitch": 43, "duration": 18, "velocity": 72}, {"time": 3726, "pitch": 50, "duration": 14, "velocity": 57}, {"time": 3729, "pitch": 55, "duration": 7, "velocity": 88}, {"time": 3732, "pitch": 58, "duration": 5, "velocity": 79}, {"time": 3735, "pitch": 67, "duration": 12, "velocity": 72}, {"time": 3738, "pitch": 55, "duration": 2, "velocity": 79}, {"time": 3741, "pitch": 62, "duration": 4, "velocity": 50}, {"time": 3744, "pitch": 58, "duration": 3, "velocity": 83}, {"time": 3747, "pitch": 36, "duration": 21, "velocity": 67}, {"time": 3750, "pitch": 43, "duration": 20, "velocity": 55}, {"time": 3753, "pitch": 48, "duration": 7, "velocity": 75}, {"time": 3756, "pitch": 55, "duration": 3, "velocity": 72}, {"time": 3759, "pitch": 60, "duration": 4, "velocity": 66}, {"time": 3762, "pitch": 48, "duration": 5, "velocity": 82}, {"time": 3765, "pitch": 55, "duration": 6, "velocity": 70}, {"time": 3768, "pitch": 63, "duration": 4, "velocity": 88}, {"time": 3771, "pitch": 36, "duration": 16, "velocity": 72}, {"time": 3774, "pitch": 43, "duration": 14, "velocity": 63}, {"time": 3777, "pitch": 48, "duration": 7, "velocity": 75}, {"time": 3780, "pitch": 55, "duration": 4, "velocity": 63}, {"time": 3783, "pitch": 63, "duration": 11, "velocity": 93}, {"time": 3786, "pitch": 48, "duration": 5, "velocity": 81}, {"time": 3789, "pitch": 60, "duration": 5, "velocity": 70}, {"time": 3792, "pitch": 55, "duration": 2, "velocity": 76}, {"time": 3795, "pitch": 41, "duration": 23, "velocity": 66}, {"time": 3798, "pitch": 48, "duration": 21, "velocity": 56}, {"time": 3801, "pitch": 53, "duration": 7, "velocity": 83}, {"time": 3804, "pitch": 60, "duration": 3, "velocity": 40}, {"time": 3807, "pitch": 68, "duration": 12, "velocity": 93}, {"time": 3810, "pitch": 53, "duration": 4, "velocity": 78}, {"time": 3813, "pitch": 65, "duration": 5, "velocity": 77}, {"time": 3816, "pitch": 60, "duration": 4, "velocity": 72}, {"time": 3819, "pitch": 41, "duration": 17, "velocity": 69}, {"time": 3822, "pitch": 48, "duration": 14, "velocity": 67}, {"time": 3825, "pitch": 53, "duration": 7, "velocity": 82}, {"time": 3828, "pitch": 60, "duration": 4, "velocity": 74}, {"time": 3831, "pitch": 68, "duration": 9, "velocity": 99}, {"time": 3834, "pitch": 53, "duration": 3, "velocity": 90}, {"time": 3837, "pitch": 65, "duration": 4, "velocity": 85}, {"time": 3840, "pitch": 60, "duration": 3, "velocity": 77}, {"time": 3843, "pitch": 46, "duration": 21, "velocity": 90}, {"time": 3846, "pitch": 53, "duration": 20, "velocity": 54}, {"time": 3849, "pitch": 58, "duration": 6, "velocity": 83}, {"time": 3852, "pitch": 62, "duration": 3, "velocity": 86}, {"time": 3855, "pitch": 65, "duration": 6, "velocity": 79}, {"time": 3858, "pitch": 58, "duration": 10, "velocity": 93}, {"time": 3861, "pitch": 62, "duration": 9, "velocity": 66}, {"time": 3864, "pitch": 70, "duration": 10, "velocity": 102}, {"time": 3867, "pitch": 46, "duration": 23, "velocity": 83}, {"time": 3870, "pitch": 53, "duration": 19, "velocity": 63}, {"time": 3873, "pitch": 58, "duration": 6, "velocity": 97}, {"time": 3876, "pitch": 62, "duration": 4, "velocity": 85}, {"time": 3879, "pitch": 70, "duration": 12, "velocity": 107}, {"time": 3882, "pitch": 58, "duration": 7, "velocity": 99}, {"time": 3885, "pitch": 65, "duration": 6, "velocity": 88}, {"time": 3888, "pitch": 62, "duration": 3, "velocity": 89}, {"time": 3891, "pitch": 39, "duration": 22, "velocity": 97}, {"time": 3894, "pitch": 46, "duration": 19, "velocity": 36}, {"time": 3897, "pitch": 51, "duration": 18, "velocity": 88}, {"time": 3900, "pitch": 55, "duration": 4, "velocity": 66}, {"time": 3903, "pitch": 63, "duration": 9, "velocity": 112}, {"time": 3906, "pitch": 58, "duration": 3, "velocity": 71}, {"time": 3909, "pitch": 55, "duration": 5, "velocity": 76}, {"time": 3912, "pitch": 58, "duration": 4, "velocity": 85}, {"time": 3915, "pitch": 39, "duration": 18, "velocity": 86}, {"time": 3918, "pitch": 46, "duration": 14, "velocity": 47}, {"time": 3921, "pitch": 51, "duration": 6, "velocity": 93}, {"time": 3924, "pitch": 55, "duration": 4, "velocity": 75}, {"time": 3927, "pitch": 63, "duration": 9, "velocity": 99}, {"time": 3930, "pitch": 51, "duration": 2, "velocity": 88}, {"time": 3933, "pitch": 58, "duration": 3, "velocity": 88}, {"time": 3936, "pitch": 55, "duration": 5, "velocity": 73}, {"time": 3939, "pitch": 36, "duration": 17, "velocity": 76}, {"time": 3942, "pitch": 43, "duration": 13, "velocity": 77}, {"time": 3945, "pitch": 48, "duration": 7, "velocity": 86}, {"time": 3948, "pitch": 55, "duration": 5, "velocity": 70}, {"time": 3951, "pitch": 63, "duration": 7, "velocity": 96}, {"time": 3954, "pitch": 48, "duration": 4, "velocity": 66}, {"time": 3957, "pitch": 60, "duration": 5, "velocity": 93}, {"time": 3960, "pitch": 55, "duration": 2, "velocity": 74}, {"time": 3963, "pitch": 43, "duration": 16, "velocity": 79}, {"time": 3966, "pitch": 50, "duration": 13, "velocity": 60}, {"time": 3969, "pitch": 55, "duration": 6, "velocity": 93}, {"time": 3972, "pitch": 58, "duration": 5, "velocity": 77}, {"time": 3975, "pitch": 67, "duration": 7, "velocity": 58}, {"time": 3978, "pitch": 55, "duration": 1, "velocity": 77}, {"time": 3981, "pitch": 62, "duration": 3, "velocity": 52}, {"time": 3984, "pitch": 58, "duration": 3, "velocity": 90}, {"time": 3987, "pitch": 39, "duration": 22, "velocity": 81}, {"time": 3990, "pitch": 46, "duration": 20, "velocity": 34}, {"time": 3993, "pitch": 51, "duration": 6, "velocity": 89}, {"time": 3996, "pitch": 55, "duration": 5, "velocity": 73}, {"time": 3999, "pitch": 63, "duration": 10, "velocity": 90}, {"time": 4002, "pitch": 51, "duration": 9, "velocity": 72}, {"time": 4005, "pitch": 58, "duration": 5, "velocity": 66}, {"time": 4008, "pitch": 55, "duration": 3, "velocity": 72}, {"time": 4011, "pitch": 39, "duration": 16, "velocity": 72}, {"time": 4014, "pitch": 46, "duration": 12, "velocity": 52}, {"time": 4017, "pitch": 51, "duration": 7, "velocity": 79}, {"time": 4020, "pitch": 55, "duration": 3, "velocity": 81}, {"time": 4023, "pitch": 63, "duration": 11, "velocity": 95}, {"time": 4026, "pitch": 51, "duration": 2, "velocity": 86}, {"time": 4029, "pitch": 58, "duration": 4, "velocity": 77}, {"time": 4032, "pitch": 55, "duration": 2, "velocity": 77}, {"time": 4035, "pitch": 41, "duration": 18, "velocity": 66}, {"time": 4038, "pitch": 48, "duration": 16, "velocity": 58}, {"time": 4041, "pitch": 53, "duration": 6, "velocity": 81}, {"time": 4044, "pitch": 56, "duration": 4, "velocity": 59}, {"time": 4047, "pitch": 65, "duration": 9, "velocity": 55}, {"time": 4050, "pitch": 53, "duration": 6, "velocity": 77}, {"time": 4053, "pitch": 56, "duration": 4, "velocity": 73}, {"time": 4056, "pitch": 60, "duration": 2, "velocity": 65}, {"time": 4059, "pitch": 46, "duration": 24, "velocity": 55}, {"time": 4062, "pitch": 53, "duration": 17, "velocity": 62}, {"time": 4065, "pitch": 58, "duration": 6, "velocity": 96}, {"time": 4068, "pitch": 62, "duration": 3, "velocity": 82}, {"time": 4071, "pitch": 65, "duration": 6, "velocity": 72}, {"time": 4074, "pitch": 58, "duration": 6, "velocity": 95}, {"time": 4077, "pitch": 70, "duration": 6, "velocity": 90}, {"time": 4080, "pitch": 62, "duration": 3, "velocity": 67}, {"time": 4083, "pitch": 43, "duration": 21, "velocity": 79}, {"time": 4086, "pitch": 50, "duration": 21, "velocity": 64}, {"time": 4089, "pitch": 55, "duration": 6, "velocity": 72}, {"time": 4092, "pitch": 58, "duration": 5, "velocity": 63}, {"time": 4095, "pitch": 67, "duration": 13, "velocity": 69}, {"time": 4098, "pitch": 55, "duration": 3, "velocity": 63}, {"time": 4101, "pitch": 62, "duration": 4, "velocity": 57}, {"time": 4104, "pitch": 58, "duration": 3, "velocity": 99}, {"time": 4107, "pitch": 43, "duration": 18, "velocity": 72}, {"time": 4110, "pitch": 50, "duration": 14, "velocity": 57}, {"time": 4113, "pitch": 55, "duration": 7, "velocity": 88}, {"time": 4116, "pitch": 58, "duration": 5, "velocity": 79}, {"time": 4119, "pitch": 67, "duration": 12, "velocity": 72}, {"time": 4122, "pitch": 55, "duration": 2, "velocity": 79}, {"time": 4125, "pitch": 62, "duration": 4, "velocity": 50}, {"time": 4128, "pitch": 58, "duration": 3, "velocity": 83}, {"time": 4131, "pitch": 36, "duration": 21, "velocity": 67}, {"time": 4134, "pitch": 43, "duration": 20, "velocity": 55}, {"time": 4137, "pitch": 48, "duration": 7, "velocity": 75}, {"time": 4140, "pitch": 55, "duration": 3, "velocity": 72}, {"time": 4143, "pitch": 60, "duration": 4, "velocity": 66}, {"time": 4146, "pitch": 48, "duration": 5, "velocity": 82}, {"time": 4149, "pitch": 55, "duration": 6, "velocity": 70}, {"time": 4152, "pitch": 63, "duration": 4, "velocity": 88}, {"time": 4155, "pitch": 36, "duration": 16, "velocity": 72}, {"time": 4158, "pitch": 43, "duration": 14, "velocity": 63}, {"time": 4161, "pitch": 48, "duration": 7, "velocity": 75}, {"time": 4164, "pitch": 55, "duration": 4, "velocity": 63}, {"time": 4167, "pitch": 63, "duration": 11, "velocity": 93}, {"time": 4170, "pitch": 48, "duration": 5, "velocity": 81}, {"time": 4173, "pitch": 60, "duration": 5, "velocity": 70}, {"time": 4176, "pitch": 55, "duration": 2, "velocity": 76}, {"time": 4179, "pitch": 41, "duration": 15, "velocity": 71}, {"time": 4182, "pitch": 48, "duration": 12, "velocity": 61}, {"time": 4185, "pitch": 53, "duration": 6, "velocity": 72}, {"time": 4188, "pitch": 60, "duration": 3, "velocity": 77}, {"time": 4191, "pitch": 68, "duration": 10, "velocity": 90}, {"time": 4194, "pitch": 53, "duration": 3, "velocity": 69}, {"time": 4197, "pitch": 65, "duration": 4, "velocity": 77}, {"time": 4200, "pitch": 60, "duration": 2, "velocity": 83}, {"time": 4203, "pitch": 46, "duration": 16, "velocity": 76}, {"time": 4206, "pitch": 53, "duration": 13, "velocity": 59}, {"time": 4209, "pitch": 58, "duration": 7, "velocity": 78}, {"time": 4212, "pitch": 62, "duration": 3, "velocity": 72}, {"time": 4215, "pitch": 70, "duration": 10, "velocity": 96}, {"time": 4218, "pitch": 58, "duration": 1, "velocity": 90}, {"time": 4221, "pitch": 65, "duration": 4, "velocity": 67}, {"time": 4224, "pitch": 62, "duration": 3, "velocity": 70}, {"time": 4227, "pitch": 39, "duration": 23, "velocity": 76}, {"time": 4230, "pitch": 46, "duration": 18, "velocity": 42}, {"time": 4233, "pitch": 51, "duration": 6, "velocity": 63}, {"time": 4236, "pitch": 55, "duration": 5, "velocity": 57}, {"time": 4239, "pitch": 63, "duration": 14, "velocity": 99}, {"time": 4242, "pitch": 51, "duration": 21, "velocity": 83}, {"time": 4245, "pitch": 58, "duration": 7, "velocity": 89}, {"time": 4248, "pitch": 55, "duration": 8, "velocity": 79}, {"time": 4251, "pitch": 39, "duration": 23, "velocity": 88}, {"time": 4257, "pitch": 55, "duration": 3, "velocity": 57}, {"time": 4257, "pitch": 58, "duration": 4, "velocity": 93}, {"time": 4257, "pitch": 63, "duration": 4, "velocity": 78}, {"time": 4260, "pitch": 46, "duration": 11, "velocity": 28}, {"time": 4263, "pitch": 58, "duration": 12, "velocity": 97}, {"time": 4263, "pitch": 63, "duration": 12, "velocity": 85}, {"time": 4266, "pitch": 51, "duration": 8, "velocity": 68}, {"time": 4269, "pitch": 55, "duration": 6, "velocity": 78}, {"time": 4275, "pitch": 43, "duration": 35, "velocity": 38}, {"time": 4275, "pitch": 50, "duration": 31, "velocity": 53}, {"time": 4275, "pitch": 55, "duration": 1, "velocity": 76}, {"time": 4275, "pitch": 62, "duration": 37, "velocity": 70}, {"time": 4275, "pitch": 67, "duration": 35, "velocity": 68}, {"time": 4275, "pitch": 70, "duration": 36, "velocity": 66}, {"time": 4323, "pitch": 36, "duration": 30, "velocity": 44}, {"time": 4323, "pitch": 48, "duration": 34, "velocity": 38}, {"time": 4323, "pitch": 60, "duration": 34, "velocity": 60}, {"time": 4323, "pitch": 63, "duration": 35, "velocity": 65}, {"time": 4323, "pitch": 67, "duration": 34, "velocity": 63}, {"time": 4371, "pitch": 41, "duration": 13, "velocity": 55}, {"time": 4371, "pitch": 60, "duration": 14, "velocity": 66}, {"time": 4371, "pitch": 65, "duration": 14, "velocity": 67}, {"time": 4371, "pitch": 68, "duration": 14, "velocity": 69}, {"time": 4395, "pitch": 46, "duration": 72, "velocity": 61}, {"time": 4395, "pitch": 58, "duration": 71, "velocity": 55}, {"time": 4395, "pitch": 62, "duration": 70, "velocity": 46}, {"time": 4395, "pitch": 65, "duration": 71, "velocity": 56}, {"time": 4467, "pitch": 39, "duration": 15, "velocity": 66}, {"time": 4473, "pitch": 51, "duration": 9, "velocity": 59}, {"time": 4479, "pitch": 58, "duration": 19, "velocity": 60}, {"time": 4479, "pitch": 63, "duration": 17, "velocity": 62}, {"time": 4479, "pitch": 67, "duration": 18, "velocity": 53}, {"time": 4479, "pitch": 70, "duration": 20, "velocity": 55}, {"time": 4485, "pitch": 39, "duration": 2, "velocity": 72}, {"time": 4491, "pitch": 39, "duration": 13, "velocity": 72}, {"time": 4497, "pitch": 51, "duration": 8, "velocity": 76}, {"time": 4503, "pitch": 63, "duration": 12, "velocity": 72}, {"time": 4503, "pitch": 67, "duration": 12, "velocity": 58}, {"time": 4509, "pitch": 58, "duration": 6, "velocity": 42}, {"time": 4515, "pitch": 48, "duration": 15, "velocity": 77}, {"time": 4521, "pitch": 55, "duration": 9, "velocity": 48}, {"time": 4527, "pitch": 63, "duration": 12, "velocity": 78}, {"time": 4527, "pitch": 67, "duration": 11, "velocity": 73}, {"time": 4533, "pitch": 48, "duration": 4, "velocity": 82}, {"time": 4539, "pitch": 43, "duration": 16, "velocity": 65}, {"time": 4545, "pitch": 50, "duration": 10, "velocity": 53}, {"time": 4551, "pitch": 58, "duration": 10, "velocity": 62}, {"time": 4551, "pitch": 62, "duration": 10, "velocity": 59}, {"time": 4557, "pitch": 55, "duration": 5, "velocity": 53}, {"time": 4563, "pitch": 41, "duration": 14, "velocity": 70}, {"time": 4569, "pitch": 48, "duration": 9, "velocity": 37}, {"time": 4575, "pitch": 65, "duration": 18, "velocity": 76}, {"time": 4575, "pitch": 68, "duration": 18, "velocity": 82}, {"time": 4581, "pitch": 41, "duration": 3, "velocity": 53}, {"time": 4587, "pitch": 41, "duration": 18, "velocity": 77}, {"time": 4593, "pitch": 48, "duration": 12, "velocity": 47}, {"time": 4599, "pitch": 53, "duration": 6, "velocity": 66}, {"time": 4605, "pitch": 60, "duration": 6, "velocity": 43}, {"time": 4605, "pitch": 65, "duration": 6, "velocity": 69}, {"time": 4605, "pitch": 68, "duration": 6, "velocity": 62}, {"time": 4611, "pitch": 46, "duration": 20, "velocity": 89}, {"time": 4617, "pitch": 53, "duration": 15, "velocity": 55}, {"time": 4623, "pitch": 58, "duration": 9, "velocity": 78}, {"time": 4629, "pitch": 62, "duration": 14, "velocity": 59}, {"time": 4629, "pitch": 65, "duration": 15, "velocity": 57}, {"time": 4629, "pitch": 70, "duration": 15, "velocity": 53}, {"time": 4635, "pitch": 46, "duration": 20, "velocity": 71}, {"time": 4641, "pitch": 58, "duration": 16, "velocity": 77}, {"time": 4647, "pitch": 65, "duration": 10, "velocity": 58}, {"time": 4647, "pitch": 70, "duration": 10, "velocity": 72}, {"time": 4653, "pitch": 62, "duration": 4, "velocity": 58}, {"time": 4659, "pitch": 43, "duration": 28, "velocity": 55}, {"time": 4659, "pitch": 50, "duration": 27, "velocity": 52}, {"time": 4659, "pitch": 55, "duration": 26, "velocity": 55}, {"time": 4659, "pitch": 58, "duration": 28, "velocity": 72}, {"time": 4659, "pitch": 62, "duration": 27, "velocity": 67}, {"time": 4659, "pitch": 67, "duration": 26, "velocity": 56}, {"time": 4707, "pitch": 36, "duration": 28, "velocity": 40}, {"time": 4707, "pitch": 43, "duration": 28, "velocity": 49}, {"time": 4707, "pitch": 48, "duration": 27, "velocity": 50}, {"time": 4707, "pitch": 55, "duration": 27, "velocity": 60}, {"time": 4707, "pitch": 60, "duration": 28, "velocity": 63}, {"time": 4707, "pitch": 63, "duration": 29, "velocity": 56}, {"time": 4755, "pitch": 41, "duration": 17, "velocity": 56}, {"time": 4761, "pitch": 48, "duration": 11, "velocity": 40}, {"time": 4767, "pitch": 53, "duration": 9, "velocity": 83}, {"time": 4773, "pitch": 60, "duration": 6, "velocity": 58}, {"time": 4773, "pitch": 65, "duration": 6, "velocity": 63}, {"time": 4773, "pitch": 68, "duration": 6, "velocity": 58}, {"time": 4779, "pitch": 70, "duration": 35, "velocity": 74}, {"time": 4779, "pitch": 46, "duration": 34, "velocity": 75}, {"time": 4779, "pitch": 65, "duration": 1, "velocity": 72}, {"time": 4779, "pitch": 74, "duration": 35, "velocity": 68}, {"time": 4779, "pitch": 58, "duration": 31, "velocity": 63}, {"time": 4826, "pitch": 39, "duration": 71, "velocity": 76}, {"time": 4833, "pitch": 51, "duration": 63, "velocity": 56}, {"time": 4838, "pitch": 63, "duration": 22, "velocity": 49}, {"time": 4845, "pitch": 67, "duration": 14, "velocity": 40}, {"time": 4851, "pitch": 70, "duration": 9, "velocity": 66}, {"time": 4857, "pitch": 75, "duration": 4, "velocity": 66}, {"time": 4866, "pitch": 79, "duration": 30, "velocity": 37}, {"time": 4872, "pitch": 82, "duration": 24, "velocity": 54}, {"time": 4874, "pitch": 75, "duration": 23, "velocity": 24}, {"time": 4881, "pitch": 87, "duration": 15, "velocity": 47}], "annotations": [{"time": 51, "annotation": {"number": 64, "value": 127}, "group": "control_change"}, {"time": 78, "annotation": {"number": 64, "value": 0}, "group": "control_change"}, {"time": 83, "annotation": {"number": 64, "value": 127}, "group": "control_change"}, {"time": 96, "annotation": {"number": 64, "value": 0}, "group": "control_change"}, {"time": 98, "annotation": {"number": 64, "value": 127}, "group": "control_change"}, {"time": 99, "annotation": {"number": 64, "value": 127}, "group": "control_change"}, {"time": 113, "annotation": {"number": 64, "value": 0}, "group": "control_change"}, {"time": 116, "annotation": {"number": 64, "value": 127}, "group": "control_change"}, {"time": 120, "annotation": {"number": 64, "value": 0}, "group": "control_change"}, {"time": 123, "annotation": {"number": 64, "value": 127}, "group": "control_change"}, {"time": 144, "annotation": {"number": 64, "value": 0}, "group": "control_change"}, {"time": 146, "annotation": {"number": 64, "value": 127}, "group": "control_change"}, {"time": 161, "annotation": {"number": 64, "value": 0}, "group": "control_change"}, {"time": 164, "annotation": {"number": 64, "value": 127}, "group": "control_change"}, {"time": 168, "annotation": {"number": 64, "value": 0}, "group": "control_change"}, {"time": 171, "annotation": {"number": 64, "value": 127}, "group": "control_change"}, {"time": 192, "annotation": {"number": 64, "value": 0}, "group": "control_change"}, {"time": 195, "annotation": {"number": 64, "value": 127}, "group": "control_change"}, {"time": 204, "annotation": {"number": 64, "value": 127}, "group": "control_change"}, {"time": 213, "annotation": {"number": 64, "value": 0}, "group": "control_change"}, {"time": 219, "annotation": {"number": 64, "value": 127}, "group": "control_change"}, {"time": 239, "annotation": {"number": 64, "value": 0}, "group": "control_change"}, {"time": 261, "annotation": {"number": 64, "value": 127}, "group": "control_change"}, {"time": 289, "annotation": {"number": 64, "value": 0}, "group": "control_change"}, {"time": 308, "annotation": {"number": 64, "value": 127}, "group": "control_change"}, {"time": 335, "annotation": {"number": 64, "value": 0}, "group": "control_change"}, {"time": 340, "annotation": {"number": 64, "value": 127}, "group": "control_change"}, {"time": 359, "annotation": {"number": 64, "value": 0}, "group": "control_change"}, {"time": 362, "annotation": {"number": 64, "value": 127}, "group": "control_change"}, {"time": 377, "annotation": {"number": 64, "value": 0}, "group": "control_change"}, {"time": 389, "annotation": {"number": 64, "value": 127}, "group": "control_change"}, {"time": 431, "annotation": {"number": 64, "value": 0}, "group": "control_change"}, {"time": 435, "annotation": {"number": 64, "value": 127}, "group": "control_change"}, {"time": 450, "annotation": {"number": 64, "value": 0}, "group": "control_change"}, {"time": 459, "annotation": {"number": 64, "value": 127}, "group": "control_change"}, {"time": 480, "annotation": {"number": 64, "value": 0}, "group": "control_change"}, {"time": 482, "annotation": {"number": 64, "value": 127}, "group": "control_change"}, {"time": 496, "annotation": {"number": 64, "value": 0}, "group": "control_change"}, {"time": 501, "annotation": {"number": 64, "value": 127}, "group": "control_change"}, {"time": 505, "annotation": {"number": 64, "value": 0}, "group": "control_change"}, {"time": 507, "annotation": {"number": 64, "value": 127}, "group": "control_change"}, {"time": 508, "annotation": {"number": 64, "value": 0}, "group": "control_change"}, {"time": 512, "annotation": {"number": 64, "value": 127}, "group": "control_change"}, {"time": 527, "annotation": {"number": 64, "value": 0}, "group": "control_change"}, {"time": 531, "annotation": {"number": 64, "value": 127}, "group": "control_change"}, {"time": 545, "annotation": {"number": 64, "value": 0}, "group": "control_change"}, {"time": 550, "annotation": {"number": 64, "value": 127}, "group": "control_change"}, {"time": 552, "annotation": {"number": 64, "value": 0}, "group": "control_change"}, {"time": 556, "annotation": {"number": 64, "value": 127}, "group": "control_change"}, {"time": 574, "annotation": {"number": 64, "value": 0}, "group": "control_change"}, {"time": 579, "annotation": {"number": 64, "value": 127}, "group": "control_change"}, {"time": 592, "annotation": {"number": 64, "value": 0}, "group": "control_change"}, {"time": 597, "annotation": {"number": 64, "value": 127}, "group": "control_change"}, {"time": 599, "annotation": {"number": 64, "value": 0}, "group": "control_change"}, {"time": 603, "annotation": {"number": 64, "value": 127}, "group": "control_change"}, {"time": 622, "annotation": {"number": 64, "value": 0}, "group": "control_change"}, {"time": 627, "annotation": {"number": 64, "value": 127}, "group": "control_change"}, {"time": 640, "annotation": {"number": 64, "value": 0}, "group": "control_change"}, {"time": 645, "annotation": {"number": 64, "value": 127}, "group": "control_change"}, {"time": 648, "annotation": {"number": 64, "value": 0}, "group": "control_change"}, {"time": 651, "annotation": {"number": 64, "value": 127}, "group": "control_change"}, {"time": 657, "annotation": {"number": 64, "value": 0}, "group": "control_change"}, {"time": 674, "annotation": {"number": 64, "value": 127}, "group": "control_change"}, {"time": 686, "annotation": {"number": 64, "value": 0}, "group": "control_change"}, {"time": 699, "annotation": {"number": 64, "value": 127}, "group": "control_change"}, {"time": 715, "annotation": {"number": 64, "value": 0}, "group": "control_change"}, {"time": 723, "annotation": {"number": 64, "value": 127}, "group": "control_change"}, {"time": 735, "annotation": {"number": 64, "value": 0}, "group": "control_change"}, {"time": 748, "annotation": {"number": 64, "value": 127}, "group": "control_change"}, {"time": 765, "annotation": {"number": 64, "value": 0}, "group": "control_change"}, {"time": 771, "annotation": {"number": 64, "value": 127}, "group": "control_change"}, {"time": 783, "annotation": {"number": 64, "value": 0}, "group": "control_change"}, {"time": 790, "annotation": {"number": 64, "value": 127}, "group": "control_change"}, {"time": 791, "annotation": {"number": 64, "value": 0}, "group": "control_change"}, {"time": 796, "annotation": {"number": 64, "value": 127}, "group": "control_change"}, {"time": 810, "annotation": {"number": 64, "value": 0}, "group": "control_change"}, {"time": 834, "annotation": {"number": 64, "value": 0}, "group": "control_change"}, {"time": 843, "annotation": {"number": 64, "value": 127}, "group": "control_change"}, {"time": 864, "annotation": {"number": 64, "value": 0}, "group": "control_change"}, {"time": 866, "annotation": {"number": 64, "value": 127}, "group": "control_change"}, {"time": 880, "annotation": {"number": 64, "value": 0}, "group": "control_change"}, {"time": 885, "annotation": {"number": 64, "value": 127}, "group": "control_change"}, {"time": 889, "annotation": {"number": 64, "value": 0}, "group": "control_change"}, {"time": 891, "annotation": {"number": 64, "value": 127}, "group": "control_change"}, {"time": 892, "annotation": {"number": 64, "value": 0}, "group": "control_change"}, {"time": 896, "annotation": {"number": 64, "value": 127}, "group": "control_change"}, {"time": 911, "annotation": {"number": 64, "value": 0}, "group": "control_change"}, {"time": 915, "annotation": {"number": 64, "value": 127}, "group": "control_change"}, {"time": 929, "annotation": {"number": 64, "value": 0}, "group": "control_change"}, {"time": 934, "annotation": {"number": 64, "value": 127}, "group": "control_change"}, {"time": 936, "annotation": {"number": 64, "value": 0}, "group": "control_change"}, {"time": 940, "annotation": {"number": 64, "value": 127}, "group": "control_change"}, {"time": 958, "annotation": {"number": 64, "value": 0}, "group": "control_change"}, {"time": 963, "annotation": {"number": 64, "value": 127}, "group": "control_change"}, {"time": 976, "annotation": {"number": 64, "value": 0}, "group": "control_change"}, {"time": 981, "annotation": {"number": 64, "value": 127}, "group": "control_change"}, {"time": 983, "annotation": {"number": 64, "value": 0}, "group": "control_change"}, {"time": 987, "annotation": {"number": 64, "value": 127}, "group": "control_change"}, {"time": 1006, "annotation": {"number": 64, "value": 0}, "group": "control_change"}, {"time": 1011, "annotation": {"number": 64, "value": 127}, "group": "control_change"}, {"time": 1024, "annotation": {"number": 64, "value": 0}, "group": "control_change"}, {"time": 1029, "annotation": {"number": 64, "value": 127}, "group": "control_change"}, {"time": 1032, "annotation": {"number": 64, "value": 0}, "group": "control_change"}, {"time": 1035, "annotation": {"number": 64, "value": 127}, "group": "control_change"}, {"time": 1041, "annotation": {"number": 64, "value": 0}, "group": "control_change"}, {"time": 1058, "annotation": {"number": 64, "value": 127}, "group": "control_change"}, {"time": 1070, "annotation": {"number": 64, "value": 0}, "group": "control_change"}, {"time": 1083, "annotation": {"number": 64, "value": 127}, "group": "control_change"}, {"time": 1099, "annotation": {"number": 64, "value": 0}, "group": "control_change"}, {"time": 1107, "annotation": {"number": 64, "value": 127}, "group": "control_change"}, {"time": 1119, "annotation": {"number": 64, "value": 0}, "group": "control_change"}, {"time": 1132, "annotation": {"number": 64, "value": 127}, "group": "control_change"}, {"time": 1143, "annotation": {"number": 64, "value": 0}, "group": "control_change"}, {"time": 1148, "annotation": {"number": 64, "value": 127}, "group": "control_change"}, {"time": 1152, "annotation": {"number": 64, "value": 0}, "group": "control_change"}, {"time": 1155, "annotation": {"number": 64, "value": 127}, "group": "control_change"}, {"time": 1169, "annotation": {"number": 64, "value": 0}, "group": "control_change"}, {"time": 1173, "annotation": {"number": 64, "value": 127}, "group": "control_change"}, {"time": 1176, "annotation": {"number": 64, "value": 0}, "group": "control_change"}, {"time": 1180, "annotation": {"number": 64, "value": 127}, "group": "control_change"}, {"time": 1182, "annotation": {"number": 64, "value": 0}, "group": "control_change"}, {"time": 1202, "annotation": {"number": 64, "value": 127}, "group": "control_change"}, {"time": 1222, "annotation": {"number": 64, "value": 0}, "group": "control_change"}, {"time": 1227, "annotation": {"number": 64, "value": 127}, "group": "control_change"}, {"time": 1247, "annotation": {"number": 64, "value": 0}, "group": "control_change"}, {"time": 1252, "annotation": {"number": 64, "value": 127}, "group": "control_change"}, {"time": 1272, "annotation": {"number": 64, "value": 0}, "group": "control_change"}, {"time": 1275, "annotation": {"number": 64, "value": 127}, "group": "control_change"}, {"time": 1276, "annotation": {"number": 64, "value": 127}, "group": "control_change"}, {"time": 1296, "annotation": {"number": 64, "value": 0}, "group": "control_change"}, {"time": 1299, "annotation": {"number": 64, "value": 127}, "group": "control_change"}, {"time": 1319, "annotation": {"number": 64, "value": 0}, "group": "control_change"}, {"time": 1323, "annotation": {"number": 64, "value": 127}, "group": "control_change"}, {"time": 1345, "annotation": {"number": 64, "value": 0}, "group": "control_change"}, {"time": 1347, "annotation": {"number": 64, "value": 127}, "group": "control_change"}, {"time": 1369, "annotation": {"number": 64, "value": 0}, "group": "control_change"}, {"time": 1371, "annotation": {"number": 64, "value": 127}, "group": "control_change"}, {"time": 1392, "annotation": {"number": 64, "value": 0}, "group": "control_change"}, {"time": 1395, "annotation": {"number": 64, "value": 127}, "group": "control_change"}, {"time": 1415, "annotation": {"number": 64, "value": 0}, "group": "control_change"}, {"time": 1418, "annotation": {"number": 64, "value": 127}, "group": "control_change"}, {"time": 1441, "annotation": {"number": 64, "value": 0}, "group": "control_change"}, {"time": 1444, "annotation": {"number": 64, "value": 127}, "group": "control_change"}, {"time": 1464, "annotation": {"number": 64, "value": 0}, "group": "control_change"}, {"time": 1467, "annotation": {"number": 64, "value": 127}, "group": "control_change"}, {"time": 1488, "annotation": {"number": 64, "value": 0}, "group": "control_change"}, {"time": 1490, "annotation": {"number": 64, "value": 127}, "group": "control_change"}, {"time": 1513, "annotation": {"number": 64, "value": 0}, "group": "control_change"}, {"time": 1515, "annotation": {"number": 64, "value": 127}, "group": "control_change"}, {"time": 1537, "annotation": {"number": 64, "value": 0}, "group": "control_change"}, {"time": 1539, "annotation": {"number": 64, "value": 127}, "group": "control_change"}, {"time": 1561, "annotation": {"number": 64, "value": 0}, "group": "control_change"}, {"time": 1563, "annotation": {"number": 64, "value": 127}, "group": "control_change"}, {"time": 1583, "annotation": {"number": 64, "value": 0}, "group": "control_change"}, {"time": 1606, "annotation": {"number": 64, "value": 0}, "group": "control_change"}, {"time": 1611, "annotation": {"number": 64, "value": 127}, "group": "control_change"}, {"time": 1631, "annotation": {"number": 64, "value": 0}, "group": "control_change"}, {"time": 1636, "annotation": {"number": 64, "value": 127}, "group": "control_change"}, {"time": 1656, "annotation": {"number": 64, "value": 0}, "group": "control_change"}, {"time": 1659, "annotation": {"number": 64, "value": 127}, "group": "control_change"}, {"time": 1660, "annotation": {"number": 64, "value": 127}, "group": "control_change"}, {"time": 1680, "annotation": {"number": 64, "value": 0}, "group": "control_change"}, {"time": 1683, "annotation": {"number": 64, "value": 127}, "group": "control_change"}, {"time": 1703, "annotation": {"number": 64, "value": 0}, "group": "control_change"}, {"time": 1707, "annotation": {"number": 64, "value": 127}, "group": "control_change"}, {"time": 1729, "annotation": {"number": 64, "value": 0}, "group": "control_change"}, {"time": 1731, "annotation": {"number": 64, "value": 127}, "group": "control_change"}, {"time": 1753, "annotation": {"number": 64, "value": 0}, "group": "control_change"}, {"time": 1755, "annotation": {"number": 64, "value": 127}, "group": "control_change"}, {"time": 1776, "annotation": {"number": 64, "value": 0}, "group": "control_change"}, {"time": 1779, "annotation": {"number": 64, "value": 127}, "group": "control_change"}, {"time": 1799, "annotation": {"number": 64, "value": 0}, "group": "control_change"}, {"time": 1802, "annotation": {"number": 64, "value": 127}, "group": "control_change"}, {"time": 1825, "annotation": {"number": 64, "value": 0}, "group": "control_change"}, {"time": 1828, "annotation": {"number": 64, "value": 127}, "group": "control_change"}, {"time": 1848, "annotation": {"number": 64, "value": 0}, "group": "control_change"}, {"time": 1851, "annotation": {"number": 64, "value": 127}, "group": "control_change"}, {"time": 1872, "annotation": {"number": 64, "value": 0}, "group": "control_change"}, {"time": 1874, "annotation": {"number": 64, "value": 127}, "group": "control_change"}, {"time": 1876, "annotation": {"number": 64, "value": 127}, "group": "control_change"}, {"time": 1896, "annotation": {"number": 64, "value": 0}, "group": "control_change"}, {"time": 1899, "annotation": {"number": 64, "value": 127}, "group": "control_change"}, {"time": 1920, "annotation": {"number": 64, "value": 0}, "group": "control_change"}, {"time": 1923, "annotation": {"number": 64, "value": 127}, "group": "control_change"}, {"time": 1945, "annotation": {"number": 64, "value": 0}, "group": "control_change"}, {"time": 1947, "annotation": {"number": 64, "value": 127}, "group": "control_change"}, {"time": 1966, "annotation": {"number": 64, "value": 0}, "group": "control_change"}, {"time": 1972, "annotation": {"number": 64, "value": 127}, "group": "control_change"}, {"time": 1986, "annotation": {"number": 64, "value": 0}, "group": "control_change"}, {"time": 1989, "annotation": {"number": 64, "value": 127}, "group": "control_change"}, {"time": 1992, "annotation": {"number": 64, "value": 0}, "group": "control_change"}, {"time": 1994, "annotation": {"number": 64, "value": 127}, "group": "control_change"}, {"time": 2015, "annotation": {"number": 64, "value": 0}, "group": "control_change"}, {"time": 2018, "annotation": {"number": 64, "value": 127}, "group": "control_change"}, {"time": 2034, "annotation": {"number": 64, "value": 0}, "group": "control_change"}, {"time": 2037, "annotation": {"number": 64, "value": 127}, "group": "control_change"}, {"time": 2040, "annotation": {"number": 64, "value": 0}, "group": "control_change"}, {"time": 2042, "annotation": {"number": 64, "value": 127}, "group": "control_change"}, {"time": 2063, "annotation": {"number": 64, "value": 0}, "group": "control_change"}, {"time": 2066, "annotation": {"number": 64, "value": 127}, "group": "control_change"}, {"time": 2082, "annotation": {"number": 64, "value": 0}, "group": "control_change"}, {"time": 2084, "annotation": {"number": 64, "value": 127}, "group": "control_change"}, {"time": 2088, "annotation": {"number": 64, "value": 0}, "group": "control_change"}, {"time": 2091, "annotation": {"number": 64, "value": 127}, "group": "control_change"}, {"time": 2112, "annotation": {"number": 64, "value": 0}, "group": "control_change"}, {"time": 2114, "annotation": {"number": 64, "value": 127}, "group": "control_change"}, {"time": 2130, "annotation": {"number": 64, "value": 0}, "group": "control_change"}, {"time": 2133, "annotation": {"number": 64, "value": 127}, "group": "control_change"}, {"time": 2137, "annotation": {"number": 64, "value": 0}, "group": "control_change"}, {"time": 2139, "annotation": {"number": 64, "value": 127}, "group": "control_change"}, {"time": 2160, "annotation": {"number": 64, "value": 0}, "group": "control_change"}, {"time": 2162, "annotation": {"number": 64, "value": 127}, "group": "control_change"}, {"time": 2163, "annotation": {"number": 64, "value": 127}, "group": "control_change"}, {"time": 2208, "annotation": {"number": 64, "value": 0}, "group": "control_change"}, {"time": 2210, "annotation": {"number": 64, "value": 127}, "group": "control_change"}, {"time": 2256, "annotation": {"number": 64, "value": 0}, "group": "control_change"}, {"time": 2259, "annotation": {"number": 64, "value": 127}, "group": "control_change"}, {"time": 2274, "annotation": {"number": 64, "value": 0}, "group": "control_change"}, {"time": 2277, "annotation": {"number": 64, "value": 127}, "group": "control_change"}, {"time": 2280, "annotation": {"number": 64, "value": 0}, "group": "control_change"}, {"time": 2283, "annotation": {"number": 64, "value": 127}, "group": "control_change"}, {"time": 2305, "annotation": {"number": 64, "value": 0}, "group": "control_change"}, {"time": 2307, "annotation": {"number": 64, "value": 127}, "group": "control_change"}, {"time": 2323, "annotation": {"number": 64, "value": 0}, "group": "control_change"}, {"time": 2325, "annotation": {"number": 64, "value": 127}, "group": "control_change"}, {"time": 2329, "annotation": {"number": 64, "value": 0}, "group": "control_change"}, {"time": 2331, "annotation": {"number": 64, "value": 127}, "group": "control_change"}, {"time": 2344, "annotation": {"number": 64, "value": 0}, "group": "control_change"}, {"time": 2370, "annotation": {"number": 64, "value": 0}, "group": "control_change"}, {"time": 2379, "annotation": {"number": 64, "value": 127}, "group": "control_change"}, {"time": 2400, "annotation": {"number": 64, "value": 0}, "group": "control_change"}, {"time": 2402, "annotation": {"number": 64, "value": 127}, "group": "control_change"}, {"time": 2416, "annotation": {"number": 64, "value": 0}, "group": "control_change"}, {"time": 2421, "annotation": {"number": 64, "value": 127}, "group": "control_change"}, {"time": 2425, "annotation": {"number": 64, "value": 0}, "group": "control_change"}, {"time": 2427, "annotation": {"number": 64, "value": 127}, "group": "control_change"}, {"time": 2428, "annotation": {"number": 64, "value": 0}, "group": "control_change"}, {"time": 2432, "annotation": {"number": 64, "value": 127}, "group": "control_change"}, {"time": 2447, "annotation": {"number": 64, "value": 0}, "group": "control_change"}, {"time": 2451, "annotation": {"number": 64, "value": 127}, "group": "control_change"}, {"time": 2465, "annotation": {"number": 64, "value": 0}, "group": "control_change"}, {"time": 2470, "annotation": {"number": 64, "value": 127}, "group": "control_change"}, {"time": 2472, "annotation": {"number": 64, "value": 0}, "group": "control_change"}, {"time": 2476, "annotation": {"number": 64, "value": 127}, "group": "control_change"}, {"time": 2494, "annotation": {"number": 64, "value": 0}, "group": "control_change"}, {"time": 2499, "annotation": {"number": 64, "value": 127}, "group": "control_change"}, {"time": 2512, "annotation": {"number": 64, "value": 0}, "group": "control_change"}, {"time": 2517, "annotation": {"number": 64, "value": 127}, "group": "control_change"}, {"time": 2519, "annotation": {"number": 64, "value": 0}, "group": "control_change"}, {"time": 2523, "annotation": {"number": 64, "value": 127}, "group": "control_change"}, {"time": 2542, "annotation": {"number": 64, "value": 0}, "group": "control_change"}, {"time": 2547, "annotation": {"number": 64, "value": 127}, "group": "control_change"}, {"time": 2560, "annotation": {"number": 64, "value": 0}, "group": "control_change"}, {"time": 2565, "annotation": {"number": 64, "value": 127}, "group": "control_change"}, {"time": 2568, "annotation": {"number": 64, "value": 0}, "group": "control_change"}, {"time": 2571, "annotation": {"number": 64, "value": 127}, "group": "control_change"}, {"time": 2577, "annotation": {"number": 64, "value": 0}, "group": "control_change"}, {"time": 2594, "annotation": {"number": 64, "value": 127}, "group": "control_change"}, {"time": 2606, "annotation": {"number": 64, "value": 0}, "group": "control_change"}, {"time": 2619, "annotation": {"number": 64, "value": 127}, "group": "control_change"}, {"time": 2635, "annotation": {"number": 64, "value": 0}, "group": "control_change"}, {"time": 2643, "annotation": {"number": 64, "value": 127}, "group": "control_change"}, {"time": 2655, "annotation": {"number": 64, "value": 0}, "group": "control_change"}, {"time": 2668, "annotation": {"number": 64, "value": 127}, "group": "control_change"}, {"time": 2679, "annotation": {"number": 64, "value": 0}, "group": "control_change"}, {"time": 2684, "annotation": {"number": 64, "value": 127}, "group": "control_change"}, {"time": 2688, "annotation": {"number": 64, "value": 0}, "group": "control_change"}, {"time": 2691, "annotation": {"number": 64, "value": 127}, "group": "control_change"}, {"time": 2705, "annotation": {"number": 64, "value": 0}, "group": "control_change"}, {"time": 2709, "annotation": {"number": 64, "value": 127}, "group": "control_change"}, {"time": 2712, "annotation": {"number": 64, "value": 0}, "group": "control_change"}, {"time": 2716, "annotation": {"number": 64, "value": 127}, "group": "control_change"}, {"time": 2718, "annotation": {"number": 64, "value": 0}, "group": "control_change"}, {"time": 2738, "annotation": {"number": 64, "value": 127}, "group": "control_change"}, {"time": 2758, "annotation": {"number": 64, "value": 0}, "group": "control_change"}, {"time": 2763, "annotation": {"number": 64, "value": 127}, "group": "control_change"}, {"time": 2783, "annotation": {"number": 64, "value": 0}, "group": "control_change"}, {"time": 2788, "annotation": {"number": 64, "value": 127}, "group": "control_change"}, {"time": 2808, "annotation": {"number": 64, "value": 0}, "group": "control_change"}, {"time": 2811, "annotation": {"number": 64, "value": 127}, "group": "control_change"}, {"time": 2812, "annotation": {"number": 64, "value": 127}, "group": "control_change"}, {"time": 2832, "annotation": {"number": 64, "value": 0}, "group": "control_change"}, {"time": 2835, "annotation": {"number": 64, "value": 127}, "group": "control_change"}, {"time": 2855, "annotation": {"number": 64, "value": 0}, "group": "control_change"}, {"time": 2859, "annotation": {"number": 64, "value": 127}, "group": "control_change"}, {"time": 2881, "annotation": {"number": 64, "value": 0}, "group": "control_change"}, {"time": 2883, "annotation": {"number": 64, "value": 127}, "group": "control_change"}, {"time": 2905, "annotation": {"number": 64, "value": 0}, "group": "control_change"}, {"time": 2907, "annotation": {"number": 64, "value": 127}, "group": "control_change"}, {"time": 2928, "annotation": {"number": 64, "value": 0}, "group": "control_change"}, {"time": 2931, "annotation": {"number": 64, "value": 127}, "group": "control_change"}, {"time": 2951, "annotation": {"number": 64, "value": 0}, "group": "control_change"}, {"time": 2954, "annotation": {"number": 64, "value": 127}, "group": "control_change"}, {"time": 2977, "annotation": {"number": 64, "value": 0}, "group": "control_change"}, {"time": 2980, "annotation": {"number": 64, "value": 127}, "group": "control_change"}, {"time": 3000, "annotation": {"number": 64, "value": 0}, "group": "control_change"}, {"time": 3003, "annotation": {"number": 64, "value": 127}, "group": "control_change"}, {"time": 3024, "annotation": {"number": 64, "value": 0}, "group": "control_change"}, {"time": 3026, "annotation": {"number": 64, "value": 127}, "group": "control_change"}, {"time": 3049, "annotation": {"number": 64, "value": 0}, "group": "control_change"}, {"time": 3051, "annotation": {"number": 64, "value": 127}, "group": "control_change"}, {"time": 3073, "annotation": {"number": 64, "value": 0}, "group": "control_change"}, {"time": 3075, "annotation": {"number": 64, "value": 127}, "group": "control_change"}, {"time": 3097, "annotation": {"number": 64, "value": 0}, "group": "control_change"}, {"time": 3099, "annotation": {"number": 64, "value": 127}, "group": "control_change"}, {"time": 3119, "annotation": {"number": 64, "value": 0}, "group": "control_change"}, {"time": 3142, "annotation": {"number": 64, "value": 0}, "group": "control_change"}, {"time": 3147, "annotation": {"number": 64, "value": 127}, "group": "control_change"}, {"time": 3167, "annotation": {"number": 64, "value": 0}, "group": "control_change"}, {"time": 3172, "annotation": {"number": 64, "value": 127}, "group": "control_change"}, {"time": 3192, "annotation": {"number": 64, "value": 0}, "group": "control_change"}, {"time": 3195, "annotation": {"number": 64, "value": 127}, "group": "control_change"}, {"time": 3196, "annotation": {"number": 64, "value": 127}, "group": "control_change"}, {"time": 3216, "annotation": {"number": 64, "value": 0}, "group": "control_change"}, {"time": 3219, "annotation": {"number": 64, "value": 127}, "group": "control_change"}, {"time": 3239, "annotation": {"number": 64, "value": 0}, "group": "control_change"}, {"time": 3243, "annotation": {"number": 64, "value": 127}, "group": "control_change"}, {"time": 3265, "annotation": {"number": 64, "value": 0}, "group": "control_change"}, {"time": 3267, "annotation": {"number": 64, "value": 127}, "group": "control_change"}, {"time": 3289, "annotation": {"number": 64, "value": 0}, "group": "control_change"}, {"time": 3291, "annotation": {"number": 64, "value": 127}, "group": "control_change"}, {"time": 3312, "annotation": {"number": 64, "value": 0}, "group": "control_change"}, {"time": 3315, "annotation": {"number": 64, "value": 127}, "group": "control_change"}, {"time": 3335, "annotation": {"number": 64, "value": 0}, "group": "control_change"}, {"time": 3338, "annotation": {"number": 64, "value": 127}, "group": "control_change"}, {"time": 3361, "annotation": {"number": 64, "value": 0}, "group": "control_change"}, {"time": 3364, "annotation": {"number": 64, "value": 127}, "group": "control_change"}, {"time": 3384, "annotation": {"number": 64, "value": 0}, "group": "control_change"}, {"time": 3387, "annotation": {"number": 64, "value": 127}, "group": "control_change"}, {"time": 3408, "annotation": {"number": 64, "value": 0}, "group": "control_change"}, {"time": 3410, "annotation": {"number": 64, "value": 127}, "group": "control_change"}, {"time": 3412, "annotation": {"number": 64, "value": 127}, "group": "control_change"}, {"time": 3432, "annotation": {"number": 64, "value": 0}, "group": "control_change"}, {"time": 3435, "annotation": {"number": 64, "value": 127}, "group": "control_change"}, {"time": 3456, "annotation": {"number": 64, "value": 0}, "group": "control_change"}, {"time": 3459, "annotation": {"number": 64, "value": 127}, "group": "control_change"}, {"time": 3481, "annotation": {"number": 64, "value": 0}, "group": "control_change"}, {"time": 3484, "annotation": {"number": 64, "value": 127}, "group": "control_change"}, {"time": 3502, "annotation": {"number": 64, "value": 0}, "group": "control_change"}, {"time": 3526, "annotation": {"number": 64, "value": 0}, "group": "control_change"}, {"time": 3531, "annotation": {"number": 64, "value": 127}, "group": "control_change"}, {"time": 3551, "annotation": {"number": 64, "value": 0}, "group": "control_change"}, {"time": 3556, "annotation": {"number": 64, "value": 127}, "group": "control_change"}, {"time": 3576, "annotation": {"number": 64, "value": 0}, "group": "control_change"}, {"time": 3579, "annotation": {"number": 64, "value": 127}, "group": "control_change"}, {"time": 3580, "annotation": {"number": 64, "value": 127}, "group": "control_change"}, {"time": 3600, "annotation": {"number": 64, "value": 0}, "group": "control_change"}, {"time": 3603, "annotation": {"number": 64, "value": 127}, "group": "control_change"}, {"time": 3623, "annotation": {"number": 64, "value": 0}, "group": "control_change"}, {"time": 3627, "annotation": {"number": 64, "value": 127}, "group": "control_change"}, {"time": 3649, "annotation": {"number": 64, "value": 0}, "group": "control_change"}, {"time": 3651, "annotation": {"number": 64, "value": 127}, "group": "control_change"}, {"time": 3673, "annotation": {"number": 64, "value": 0}, "group": "control_change"}, {"time": 3675, "annotation": {"number": 64, "value": 127}, "group": "control_change"}, {"time": 3696, "annotation": {"number": 64, "value": 0}, "group": "control_change"}, {"time": 3699, "annotation": {"number": 64, "value": 127}, "group": "control_change"}, {"time": 3719, "annotation": {"number": 64, "value": 0}, "group": "control_change"}, {"time": 3722, "annotation": {"number": 64, "value": 127}, "group": "control_change"}, {"time": 3745, "annotation": {"number": 64, "value": 0}, "group": "control_change"}, {"time": 3748, "annotation": {"number": 64, "value": 127}, "group": "control_change"}, {"time": 3768, "annotation": {"number": 64, "value": 0}, "group": "control_change"}, {"time": 3771, "annotation": {"number": 64, "value": 127}, "group": "control_change"}, {"time": 3792, "annotation": {"number": 64, "value": 0}, "group": "control_change"}, {"time": 3794, "annotation": {"number": 64, "value": 127}, "group": "control_change"}, {"time": 3817, "annotation": {"number": 64, "value": 0}, "group": "control_change"}, {"time": 3819, "annotation": {"number": 64, "value": 127}, "group": "control_change"}, {"time": 3841, "annotation": {"number": 64, "value": 0}, "group": "control_change"}, {"time": 3843, "annotation": {"number": 64, "value": 127}, "group": "control_change"}, {"time": 3865, "annotation": {"number": 64, "value": 0}, "group": "control_change"}, {"time": 3867, "annotation": {"number": 64, "value": 127}, "group": "control_change"}, {"time": 3887, "annotation": {"number": 64, "value": 0}, "group": "control_change"}, {"time": 3910, "annotation": {"number": 64, "value": 0}, "group": "control_change"}, {"time": 3915, "annotation": {"number": 64, "value": 127}, "group": "control_change"}, {"time": 3935, "annotation": {"number": 64, "value": 0}, "group": "control_change"}, {"time": 3940, "annotation": {"number": 64, "value": 127}, "group": "control_change"}, {"time": 3960, "annotation": {"number": 64, "value": 0}, "group": "control_change"}, {"time": 3963, "annotation": {"number": 64, "value": 127}, "group": "control_change"}, {"time": 3964, "annotation": {"number": 64, "value": 127}, "group": "control_change"}, {"time": 3984, "annotation": {"number": 64, "value": 0}, "group": "control_change"}, {"time": 3987, "annotation": {"number": 64, "value": 127}, "group": "control_change"}, {"time": 4007, "annotation": {"number": 64, "value": 0}, "group": "control_change"}, {"time": 4011, "annotation": {"number": 64, "value": 127}, "group": "control_change"}, {"time": 4033, "annotation": {"number": 64, "value": 0}, "group": "control_change"}, {"time": 4035, "annotation": {"number": 64, "value": 127}, "group": "control_change"}, {"time": 4057, "annotation": {"number": 64, "value": 0}, "group": "control_change"}, {"time": 4059, "annotation": {"number": 64, "value": 127}, "group": "control_change"}, {"time": 4080, "annotation": {"number": 64, "value": 0}, "group": "control_change"}, {"time": 4083, "annotation": {"number": 64, "value": 127}, "group": "control_change"}, {"time": 4103, "annotation": {"number": 64, "value": 0}, "group": "control_change"}, {"time": 4106, "annotation": {"number": 64, "value": 127}, "group": "control_change"}, {"time": 4129, "annotation": {"number": 64, "value": 0}, "group": "control_change"}, {"time": 4132, "annotation": {"number": 64, "value": 127}, "group": "control_change"}, {"time": 4152, "annotation": {"number": 64, "value": 0}, "group": "control_change"}, {"time": 4155, "annotation": {"number": 64, "value": 127}, "group": "control_change"}, {"time": 4176, "annotation": {"number": 64, "value": 0}, "group": "control_change"}, {"time": 4178, "annotation": {"number": 64, "value": 127}, "group": "control_change"}, {"time": 4180, "annotation": {"number": 64, "value": 127}, "group": "control_change"}, {"time": 4200, "annotation": {"number": 64, "value": 0}, "group": "control_change"}, {"time": 4203, "annotation": {"number": 64, "value": 127}, "group": "control_change"}, {"time": 4224, "annotation": {"number": 64, "value": 0}, "group": "control_change"}, {"time": 4227, "annotation": {"number": 64, "value": 127}, "group": "control_change"}, {"time": 4249, "annotation": {"number": 64, "value": 0}, "group": "control_change"}, {"time": 4252, "annotation": {"number": 64, "value": 127}, "group": "control_change"}, {"time": 4270, "annotation": {"number": 64, "value": 0}, "group": "control_change"}, {"time": 4276, "annotation": {"number": 64, "value": 127}, "group": "control_change"}, {"time": 4320, "annotation": {"number": 64, "value": 0}, "group": "control_change"}, {"time": 4322, "annotation": {"number": 64, "value": 127}, "group": "control_change"}, {"time": 4368, "annotation": {"number": 64, "value": 0}, "group": "control_change"}, {"time": 4371, "annotation": {"number": 64, "value": 127}, "group": "control_change"}, {"time": 4396, "annotation": {"number": 64, "value": 0}, "group": "control_change"}, {"time": 4467, "annotation": {"number": 64, "value": 127}, "group": "control_change"}, {"time": 4494, "annotation": {"number": 64, "value": 0}, "group": "control_change"}, {"time": 4499, "annotation": {"number": 64, "value": 127}, "group": "control_change"}, {"time": 4512, "annotation": {"number": 64, "value": 0}, "group": "control_change"}, {"time": 4514, "annotation": {"number": 64, "value": 127}, "group": "control_change"}, {"time": 4515, "annotation": {"number": 64, "value": 127}, "group": "control_change"}, {"time": 4529, "annotation": {"number": 64, "value": 0}, "group": "control_change"}, {"time": 4532, "annotation": {"number": 64, "value": 127}, "group": "control_change"}, {"time": 4536, "annotation": {"number": 64, "value": 0}, "group": "control_change"}, {"time": 4539, "annotation": {"number": 64, "value": 127}, "group": "control_change"}, {"time": 4560, "annotation": {"number": 64, "value": 0}, "group": "control_change"}, {"time": 4562, "annotation": {"number": 64, "value": 127}, "group": "control_change"}, {"time": 4577, "annotation": {"number": 64, "value": 0}, "group": "control_change"}, {"time": 4580, "annotation": {"number": 64, "value": 127}, "group": "control_change"}, {"time": 4584, "annotation": {"number": 64, "value": 0}, "group": "control_change"}, {"time": 4587, "annotation": {"number": 64, "value": 127}, "group": "control_change"}, {"time": 4608, "annotation": {"number": 64, "value": 0}, "group": "control_change"}, {"time": 4611, "annotation": {"number": 64, "value": 127}, "group": "control_change"}, {"time": 4620, "annotation": {"number": 64, "value": 127}, "group": "control_change"}, {"time": 4629, "annotation": {"number": 64, "value": 0}, "group": "control_change"}, {"time": 4635, "annotation": {"number": 64, "value": 127}, "group": "control_change"}, {"time": 4655, "annotation": {"number": 64, "value": 0}, "group": "control_change"}, {"time": 4677, "annotation": {"number": 64, "value": 127}, "group": "control_change"}, {"time": 4705, "annotation": {"number": 64, "value": 0}, "group": "control_change"}, {"time": 4724, "annotation": {"number": 64, "value": 127}, "group": "control_change"}, {"time": 4751, "annotation": {"number": 64, "value": 0}, "group": "control_change"}, {"time": 4756, "annotation": {"number": 64, "value": 127}, "group": "control_change"}, {"time": 4775, "annotation": {"number": 64, "value": 0}, "group": "control_change"}, {"time": 4778, "annotation": {"number": 64, "value": 127}, "group": "control_change"}, {"time": 4803, "annotation": {"number": 64, "value": 127}, "group": "control_change"}, {"time": 4824, "annotation": {"number": 64, "value": 0}, "group": "control_change"}, {"time": 4827, "annotation": {"number": 64, "value": 127}, "group": "control_change"}, {"time": 4911, "annotation": {"number": 64, "value": 0}, "group": "control_change"}, {"time": 4912, "annotation": {"number": 64, "value": 127}, "group": "control_change"}]}]}