{"metadata": {"schema_version": "0.2", "title": "None", "source_filename": "478.mid", "source_format": "midi"}, "resolution": 12, "tempos": [{"time": 0, "qpm": 53.00006890008957}], "time_signatures": [{"time": 0, "numerator": 1, "denominator": 4}], "tracks": [{"program": 4, "is_drum": false, "name": "MELODY", "notes": [{"time": 207, "pitch": 64, "duration": 3, "velocity": 82}, {"time": 210, "pitch": 73, "duration": 2, "velocity": 93}, {"time": 213, "pitch": 71, "duration": 2, "velocity": 76}, {"time": 216, "pitch": 73, "duration": 5, "velocity": 97}, {"time": 222, "pitch": 71, "duration": 4, "velocity": 83}, {"time": 228, "pitch": 69, "duration": 3, "velocity": 82}, {"time": 231, "pitch": 64, "duration": 16, "velocity": 73}, {"time": 255, "pitch": 64, "duration": 2, "velocity": 69}, {"time": 258, "pitch": 66, "duration": 3, "velocity": 77}, {"time": 261, "pitch": 69, "duration": 2, "velocity": 63}, {"time": 264, "pitch": 71, "duration": 2, "velocity": 89}, {"time": 268, "pitch": 73, "duration": 2, "velocity": 102}, {"time": 273, "pitch": 66, "duration": 4, "velocity": 82}, {"time": 279, "pitch": 69, "duration": 19, "velocity": 75}, {"time": 303, "pitch": 66, "duration": 1, "velocity": 71}, {"time": 306, "pitch": 74, "duration": 2, "velocity": 95}, {"time": 309, "pitch": 73, "duration": 1, "velocity": 99}, {"time": 312, "pitch": 74, "duration": 4, "velocity": 97}, {"time": 318, "pitch": 69, "duration": 2, "velocity": 88}, {"time": 321, "pitch": 69, "duration": 5, "velocity": 93}, {"time": 327, "pitch": 66, "duration": 14, "velocity": 92}, {"time": 351, "pitch": 64, "duration": 3, "velocity": 77}, {"time": 354, "pitch": 66, "duration": 3, "velocity": 78}, {"time": 357, "pitch": 64, "duration": 3, "velocity": 78}, {"time": 360, "pitch": 73, "duration": 4, "velocity": 95}, {"time": 366, "pitch": 76, "duration": 5, "velocity": 71}, {"time": 372, "pitch": 69, "duration": 4, "velocity": 82}, {"time": 375, "pitch": 71, "duration": 19, "velocity": 71}, {"time": 399, "pitch": 64, "duration": 3, "velocity": 82}, {"time": 402, "pitch": 73, "duration": 2, "velocity": 93}, {"time": 405, "pitch": 71, "duration": 2, "velocity": 76}, {"time": 408, "pitch": 73, "duration": 5, "velocity": 97}, {"time": 414, "pitch": 71, "duration": 4, "velocity": 83}, {"time": 420, "pitch": 69, "duration": 3, "velocity": 82}, {"time": 423, "pitch": 64, "duration": 12, "velocity": 73}, {"time": 438, "pitch": 64, "duration": 2, "velocity": 83}, {"time": 441, "pitch": 64, "duration": 2, "velocity": 86}, {"time": 444, "pitch": 73, "duration": 3, "velocity": 112}, {"time": 447, "pitch": 76, "duration": 1, "velocity": 90}, {"time": 450, "pitch": 76, "duration": 2, "velocity": 92}, {"time": 453, "pitch": 73, "duration": 2, "velocity": 96}, {"time": 456, "pitch": 78, "duration": 4, "velocity": 127}, {"time": 462, "pitch": 76, "duration": 1, "velocity": 100}, {"time": 465, "pitch": 73, "duration": 5, "velocity": 112}, {"time": 472, "pitch": 71, "duration": 1, "velocity": 85}, {"time": 475, "pitch": 71, "duration": 3, "velocity": 90}, {"time": 480, "pitch": 69, "duration": 4, "velocity": 70}, {"time": 486, "pitch": 69, "duration": 2, "velocity": 95}, {"time": 489, "pitch": 66, "duration": 1, "velocity": 92}, {"time": 492, "pitch": 71, "duration": 2, "velocity": 99}, {"time": 495, "pitch": 71, "duration": 2, "velocity": 112}, {"time": 501, "pitch": 69, "duration": 2, "velocity": 78}, {"time": 504, "pitch": 71, "duration": 3, "velocity": 89}, {"time": 507, "pitch": 71, "duration": 3, "velocity": 88}, {"time": 510, "pitch": 71, "duration": 1, "velocity": 82}, {"time": 513, "pitch": 73, "duration": 3, "velocity": 90}, {"time": 516, "pitch": 71, "duration": 4, "velocity": 77}, {"time": 522, "pitch": 66, "duration": 7, "velocity": 79}, {"time": 537, "pitch": 64, "duration": 3, "velocity": 85}, {"time": 540, "pitch": 78, "duration": 3, "velocity": 122}, {"time": 543, "pitch": 76, "duration": 4, "velocity": 96}, {"time": 549, "pitch": 76, "duration": 2, "velocity": 100}, {"time": 552, "pitch": 76, "duration": 4, "velocity": 117}, {"time": 555, "pitch": 76, "duration": 1, "velocity": 100}, {"time": 561, "pitch": 73, "duration": 1, "velocity": 100}, {"time": 564, "pitch": 78, "duration": 7, "velocity": 122}, {"time": 573, "pitch": 76, "duration": 5, "velocity": 102}, {"time": 579, "pitch": 69, "duration": 2, "velocity": 93}, {"time": 582, "pitch": 71, "duration": 2, "velocity": 100}, {"time": 585, "pitch": 73, "duration": 2, "velocity": 112}, {"time": 588, "pitch": 76, "duration": 12, "velocity": 127}, {"time": 600, "pitch": 73, "duration": 4, "velocity": 127}, {"time": 606, "pitch": 71, "duration": 2, "velocity": 83}, {"time": 609, "pitch": 73, "duration": 13, "velocity": 107}, {"time": 627, "pitch": 73, "duration": 1, "velocity": 99}, {"time": 630, "pitch": 76, "duration": 1, "velocity": 96}, {"time": 633, "pitch": 73, "duration": 1, "velocity": 100}, {"time": 636, "pitch": 78, "duration": 2, "velocity": 122}, {"time": 639, "pitch": 76, "duration": 1, "velocity": 96}, {"time": 642, "pitch": 76, "duration": 1, "velocity": 93}, {"time": 645, "pitch": 76, "duration": 1, "velocity": 93}, {"time": 648, "pitch": 73, "duration": 5, "velocity": 117}, {"time": 654, "pitch": 71, "duration": 3, "velocity": 93}, {"time": 657, "pitch": 73, "duration": 4, "velocity": 82}, {"time": 663, "pitch": 69, "duration": 10, "velocity": 82}, {"time": 675, "pitch": 66, "duration": 2, "velocity": 90}, {"time": 678, "pitch": 69, "duration": 2, "velocity": 79}, {"time": 681, "pitch": 66, "duration": 3, "velocity": 95}, {"time": 684, "pitch": 73, "duration": 5, "velocity": 96}, {"time": 690, "pitch": 71, "duration": 6, "velocity": 89}, {"time": 699, "pitch": 69, "duration": 2, "velocity": 85}, {"time": 702, "pitch": 71, "duration": 2, "velocity": 89}, {"time": 705, "pitch": 69, "duration": 3, "velocity": 81}, {"time": 708, "pitch": 73, "duration": 5, "velocity": 100}, {"time": 714, "pitch": 76, "duration": 7, "velocity": 89}, {"time": 729, "pitch": 76, "duration": 3, "velocity": 86}, {"time": 732, "pitch": 78, "duration": 1, "velocity": 89}, {"time": 735, "pitch": 78, "duration": 1, "velocity": 99}, {"time": 738, "pitch": 78, "duration": 2, "velocity": 99}, {"time": 741, "pitch": 76, "duration": 4, "velocity": 76}, {"time": 744, "pitch": 78, "duration": 4, "velocity": 117}, {"time": 750, "pitch": 76, "duration": 1, "velocity": 96}, {"time": 753, "pitch": 73, "duration": 4, "velocity": 99}, {"time": 759, "pitch": 71, "duration": 9, "velocity": 97}, {"time": 771, "pitch": 69, "duration": 2, "velocity": 93}, {"time": 774, "pitch": 71, "duration": 2, "velocity": 100}, {"time": 777, "pitch": 73, "duration": 2, "velocity": 112}, {"time": 780, "pitch": 76, "duration": 12, "velocity": 127}, {"time": 792, "pitch": 73, "duration": 4, "velocity": 127}, {"time": 798, "pitch": 71, "duration": 2, "velocity": 83}, {"time": 801, "pitch": 73, "duration": 13, "velocity": 107}, {"time": 819, "pitch": 73, "duration": 1, "velocity": 99}, {"time": 822, "pitch": 76, "duration": 1, "velocity": 96}, {"time": 825, "pitch": 73, "duration": 1, "velocity": 100}, {"time": 828, "pitch": 78, "duration": 2, "velocity": 122}, {"time": 831, "pitch": 76, "duration": 1, "velocity": 96}, {"time": 834, "pitch": 76, "duration": 1, "velocity": 93}, {"time": 837, "pitch": 76, "duration": 1, "velocity": 93}, {"time": 840, "pitch": 73, "duration": 5, "velocity": 117}, {"time": 846, "pitch": 71, "duration": 3, "velocity": 93}, {"time": 849, "pitch": 73, "duration": 4, "velocity": 82}, {"time": 855, "pitch": 69, "duration": 10, "velocity": 82}, {"time": 867, "pitch": 66, "duration": 2, "velocity": 90}, {"time": 870, "pitch": 69, "duration": 2, "velocity": 79}, {"time": 873, "pitch": 66, "duration": 3, "velocity": 95}, {"time": 876, "pitch": 73, "duration": 5, "velocity": 96}, {"time": 882, "pitch": 71, "duration": 6, "velocity": 89}, {"time": 891, "pitch": 69, "duration": 2, "velocity": 85}, {"time": 894, "pitch": 71, "duration": 2, "velocity": 89}, {"time": 897, "pitch": 69, "duration": 3, "velocity": 81}, {"time": 900, "pitch": 73, "duration": 5, "velocity": 100}, {"time": 906, "pitch": 76, "duration": 7, "velocity": 89}, {"time": 921, "pitch": 76, "duration": 3, "velocity": 86}, {"time": 924, "pitch": 78, "duration": 1, "velocity": 89}, {"time": 927, "pitch": 78, "duration": 1, "velocity": 99}, {"time": 930, "pitch": 78, "duration": 2, "velocity": 99}, {"time": 933, "pitch": 76, "duration": 4, "velocity": 76}, {"time": 936, "pitch": 78, "duration": 4, "velocity": 117}, {"time": 942, "pitch": 76, "duration": 1, "velocity": 96}, {"time": 945, "pitch": 73, "duration": 4, "velocity": 99}, {"time": 951, "pitch": 71, "duration": 9, "velocity": 97}, {"time": 960, "pitch": 66, "duration": 5, "velocity": 89}, {"time": 966, "pitch": 69, "duration": 4, "velocity": 85}, {"time": 972, "pitch": 71, "duration": 8, "velocity": 96}, {"time": 981, "pitch": 69, "duration": 19, "velocity": 81}, {"time": 1215, "pitch": 64, "duration": 3, "velocity": 82}, {"time": 1218, "pitch": 73, "duration": 2, "velocity": 93}, {"time": 1221, "pitch": 71, "duration": 2, "velocity": 76}, {"time": 1224, "pitch": 73, "duration": 5, "velocity": 97}, {"time": 1230, "pitch": 71, "duration": 4, "velocity": 83}, {"time": 1236, "pitch": 69, "duration": 3, "velocity": 82}, {"time": 1239, "pitch": 64, "duration": 12, "velocity": 73}, {"time": 1254, "pitch": 64, "duration": 2, "velocity": 83}, {"time": 1257, "pitch": 64, "duration": 2, "velocity": 86}, {"time": 1260, "pitch": 73, "duration": 3, "velocity": 112}, {"time": 1263, "pitch": 76, "duration": 1, "velocity": 90}, {"time": 1266, "pitch": 76, "duration": 2, "velocity": 92}, {"time": 1269, "pitch": 73, "duration": 2, "velocity": 96}, {"time": 1272, "pitch": 78, "duration": 4, "velocity": 127}, {"time": 1278, "pitch": 76, "duration": 1, "velocity": 100}, {"time": 1281, "pitch": 73, "duration": 5, "velocity": 112}, {"time": 1288, "pitch": 71, "duration": 1, "velocity": 85}, {"time": 1291, "pitch": 71, "duration": 3, "velocity": 90}, {"time": 1296, "pitch": 69, "duration": 4, "velocity": 70}, {"time": 1302, "pitch": 69, "duration": 2, "velocity": 95}, {"time": 1305, "pitch": 66, "duration": 1, "velocity": 92}, {"time": 1308, "pitch": 71, "duration": 2, "velocity": 99}, {"time": 1311, "pitch": 71, "duration": 2, "velocity": 112}, {"time": 1317, "pitch": 69, "duration": 2, "velocity": 78}, {"time": 1320, "pitch": 71, "duration": 3, "velocity": 89}, {"time": 1323, "pitch": 71, "duration": 3, "velocity": 88}, {"time": 1326, "pitch": 71, "duration": 1, "velocity": 82}, {"time": 1329, "pitch": 73, "duration": 3, "velocity": 90}, {"time": 1332, "pitch": 71, "duration": 4, "velocity": 77}, {"time": 1338, "pitch": 66, "duration": 7, "velocity": 79}, {"time": 1353, "pitch": 64, "duration": 3, "velocity": 85}, {"time": 1356, "pitch": 78, "duration": 3, "velocity": 122}, {"time": 1359, "pitch": 76, "duration": 4, "velocity": 96}, {"time": 1365, "pitch": 76, "duration": 2, "velocity": 100}, {"time": 1368, "pitch": 76, "duration": 4, "velocity": 117}, {"time": 1371, "pitch": 76, "duration": 1, "velocity": 100}, {"time": 1377, "pitch": 73, "duration": 1, "velocity": 100}, {"time": 1380, "pitch": 78, "duration": 7, "velocity": 122}, {"time": 1389, "pitch": 76, "duration": 5, "velocity": 102}, {"time": 1395, "pitch": 69, "duration": 2, "velocity": 93}, {"time": 1398, "pitch": 71, "duration": 2, "velocity": 100}, {"time": 1401, "pitch": 73, "duration": 2, "velocity": 112}, {"time": 1404, "pitch": 76, "duration": 12, "velocity": 127}, {"time": 1416, "pitch": 73, "duration": 4, "velocity": 127}, {"time": 1422, "pitch": 71, "duration": 2, "velocity": 83}, {"time": 1425, "pitch": 73, "duration": 13, "velocity": 107}, {"time": 1443, "pitch": 73, "duration": 1, "velocity": 99}, {"time": 1446, "pitch": 76, "duration": 1, "velocity": 96}, {"time": 1449, "pitch": 73, "duration": 1, "velocity": 100}, {"time": 1452, "pitch": 78, "duration": 2, "velocity": 122}, {"time": 1455, "pitch": 76, "duration": 1, "velocity": 96}, {"time": 1458, "pitch": 76, "duration": 1, "velocity": 93}, {"time": 1461, "pitch": 76, "duration": 1, "velocity": 93}, {"time": 1464, "pitch": 73, "duration": 5, "velocity": 117}, {"time": 1470, "pitch": 71, "duration": 3, "velocity": 93}, {"time": 1473, "pitch": 73, "duration": 4, "velocity": 82}, {"time": 1479, "pitch": 69, "duration": 10, "velocity": 82}, {"time": 1491, "pitch": 66, "duration": 2, "velocity": 90}, {"time": 1494, "pitch": 69, "duration": 2, "velocity": 79}, {"time": 1497, "pitch": 66, "duration": 3, "velocity": 95}, {"time": 1500, "pitch": 73, "duration": 5, "velocity": 96}, {"time": 1506, "pitch": 71, "duration": 6, "velocity": 89}, {"time": 1515, "pitch": 69, "duration": 2, "velocity": 85}, {"time": 1518, "pitch": 71, "duration": 2, "velocity": 89}, {"time": 1521, "pitch": 69, "duration": 3, "velocity": 81}, {"time": 1524, "pitch": 73, "duration": 5, "velocity": 100}, {"time": 1530, "pitch": 76, "duration": 7, "velocity": 89}, {"time": 1545, "pitch": 76, "duration": 3, "velocity": 86}, {"time": 1548, "pitch": 78, "duration": 1, "velocity": 89}, {"time": 1551, "pitch": 78, "duration": 1, "velocity": 99}, {"time": 1554, "pitch": 78, "duration": 2, "velocity": 99}, {"time": 1557, "pitch": 76, "duration": 4, "velocity": 76}, {"time": 1560, "pitch": 78, "duration": 4, "velocity": 117}, {"time": 1566, "pitch": 76, "duration": 1, "velocity": 96}, {"time": 1569, "pitch": 73, "duration": 4, "velocity": 99}, {"time": 1575, "pitch": 71, "duration": 9, "velocity": 97}, {"time": 1587, "pitch": 69, "duration": 2, "velocity": 93}, {"time": 1590, "pitch": 71, "duration": 2, "velocity": 100}, {"time": 1593, "pitch": 73, "duration": 2, "velocity": 112}, {"time": 1596, "pitch": 76, "duration": 12, "velocity": 127}, {"time": 1608, "pitch": 73, "duration": 4, "velocity": 127}, {"time": 1614, "pitch": 71, "duration": 2, "velocity": 83}, {"time": 1617, "pitch": 73, "duration": 13, "velocity": 107}, {"time": 1635, "pitch": 73, "duration": 1, "velocity": 99}, {"time": 1638, "pitch": 76, "duration": 1, "velocity": 96}, {"time": 1641, "pitch": 73, "duration": 1, "velocity": 100}, {"time": 1644, "pitch": 78, "duration": 2, "velocity": 122}, {"time": 1647, "pitch": 76, "duration": 1, "velocity": 96}, {"time": 1650, "pitch": 76, "duration": 1, "velocity": 93}, {"time": 1653, "pitch": 76, "duration": 1, "velocity": 93}, {"time": 1656, "pitch": 73, "duration": 5, "velocity": 117}, {"time": 1662, "pitch": 71, "duration": 3, "velocity": 93}, {"time": 1665, "pitch": 73, "duration": 4, "velocity": 82}, {"time": 1671, "pitch": 69, "duration": 10, "velocity": 82}, {"time": 1683, "pitch": 66, "duration": 2, "velocity": 90}, {"time": 1686, "pitch": 69, "duration": 2, "velocity": 79}, {"time": 1689, "pitch": 66, "duration": 3, "velocity": 95}, {"time": 1692, "pitch": 73, "duration": 5, "velocity": 96}, {"time": 1698, "pitch": 71, "duration": 6, "velocity": 89}, {"time": 1707, "pitch": 69, "duration": 2, "velocity": 85}, {"time": 1710, "pitch": 71, "duration": 2, "velocity": 89}, {"time": 1713, "pitch": 69, "duration": 3, "velocity": 81}, {"time": 1716, "pitch": 73, "duration": 5, "velocity": 100}, {"time": 1722, "pitch": 76, "duration": 7, "velocity": 89}, {"time": 1737, "pitch": 76, "duration": 3, "velocity": 86}, {"time": 1740, "pitch": 78, "duration": 1, "velocity": 89}, {"time": 1743, "pitch": 78, "duration": 1, "velocity": 99}, {"time": 1746, "pitch": 78, "duration": 2, "velocity": 99}, {"time": 1749, "pitch": 76, "duration": 4, "velocity": 76}, {"time": 1752, "pitch": 78, "duration": 4, "velocity": 117}, {"time": 1758, "pitch": 76, "duration": 1, "velocity": 96}, {"time": 1761, "pitch": 73, "duration": 4, "velocity": 99}, {"time": 1767, "pitch": 71, "duration": 9, "velocity": 97}, {"time": 1776, "pitch": 66, "duration": 5, "velocity": 89}, {"time": 1782, "pitch": 69, "duration": 4, "velocity": 85}, {"time": 1788, "pitch": 71, "duration": 8, "velocity": 96}, {"time": 1797, "pitch": 69, "duration": 19, "velocity": 81}, {"time": 1827, "pitch": 69, "duration": 2, "velocity": 93}, {"time": 1830, "pitch": 71, "duration": 2, "velocity": 100}, {"time": 1833, "pitch": 73, "duration": 2, "velocity": 112}, {"time": 1836, "pitch": 76, "duration": 12, "velocity": 127}, {"time": 1848, "pitch": 73, "duration": 4, "velocity": 127}, {"time": 1854, "pitch": 71, "duration": 2, "velocity": 83}, {"time": 1857, "pitch": 73, "duration": 13, "velocity": 107}, {"time": 1875, "pitch": 73, "duration": 1, "velocity": 99}, {"time": 1878, "pitch": 76, "duration": 1, "velocity": 96}, {"time": 1881, "pitch": 73, "duration": 1, "velocity": 100}, {"time": 1884, "pitch": 78, "duration": 2, "velocity": 122}, {"time": 1887, "pitch": 76, "duration": 1, "velocity": 96}, {"time": 1890, "pitch": 76, "duration": 1, "velocity": 93}, {"time": 1893, "pitch": 76, "duration": 1, "velocity": 93}, {"time": 1896, "pitch": 73, "duration": 5, "velocity": 117}, {"time": 1902, "pitch": 71, "duration": 3, "velocity": 93}, {"time": 1905, "pitch": 73, "duration": 4, "velocity": 82}, {"time": 1911, "pitch": 69, "duration": 10, "velocity": 82}, {"time": 1923, "pitch": 66, "duration": 2, "velocity": 90}, {"time": 1926, "pitch": 69, "duration": 2, "velocity": 79}, {"time": 1929, "pitch": 66, "duration": 3, "velocity": 95}, {"time": 1932, "pitch": 73, "duration": 5, "velocity": 96}, {"time": 1938, "pitch": 71, "duration": 6, "velocity": 89}, {"time": 1947, "pitch": 69, "duration": 2, "velocity": 85}, {"time": 1950, "pitch": 71, "duration": 2, "velocity": 89}, {"time": 1953, "pitch": 69, "duration": 3, "velocity": 81}, {"time": 1956, "pitch": 73, "duration": 5, "velocity": 100}, {"time": 1962, "pitch": 76, "duration": 7, "velocity": 89}, {"time": 1977, "pitch": 76, "duration": 3, "velocity": 86}, {"time": 1980, "pitch": 78, "duration": 1, "velocity": 89}, {"time": 1983, "pitch": 78, "duration": 1, "velocity": 99}, {"time": 1986, "pitch": 78, "duration": 2, "velocity": 99}, {"time": 1989, "pitch": 76, "duration": 4, "velocity": 76}, {"time": 1992, "pitch": 78, "duration": 4, "velocity": 117}, {"time": 1998, "pitch": 76, "duration": 1, "velocity": 96}, {"time": 2001, "pitch": 73, "duration": 4, "velocity": 99}, {"time": 2007, "pitch": 71, "duration": 9, "velocity": 97}, {"time": 2019, "pitch": 69, "duration": 2, "velocity": 93}, {"time": 2022, "pitch": 71, "duration": 2, "velocity": 100}, {"time": 2025, "pitch": 73, "duration": 2, "velocity": 112}, {"time": 2028, "pitch": 76, "duration": 12, "velocity": 127}, {"time": 2040, "pitch": 73, "duration": 4, "velocity": 127}, {"time": 2046, "pitch": 71, "duration": 2, "velocity": 83}, {"time": 2049, "pitch": 73, "duration": 13, "velocity": 107}, {"time": 2067, "pitch": 73, "duration": 1, "velocity": 99}, {"time": 2070, "pitch": 76, "duration": 1, "velocity": 96}, {"time": 2073, "pitch": 73, "duration": 1, "velocity": 100}, {"time": 2076, "pitch": 78, "duration": 2, "velocity": 122}, {"time": 2079, "pitch": 76, "duration": 1, "velocity": 96}, {"time": 2082, "pitch": 76, "duration": 1, "velocity": 93}, {"time": 2085, "pitch": 76, "duration": 1, "velocity": 93}, {"time": 2088, "pitch": 73, "duration": 5, "velocity": 117}, {"time": 2094, "pitch": 71, "duration": 3, "velocity": 93}, {"time": 2097, "pitch": 73, "duration": 4, "velocity": 82}, {"time": 2103, "pitch": 69, "duration": 10, "velocity": 82}, {"time": 2115, "pitch": 66, "duration": 2, "velocity": 90}, {"time": 2118, "pitch": 69, "duration": 2, "velocity": 79}, {"time": 2121, "pitch": 66, "duration": 3, "velocity": 95}, {"time": 2124, "pitch": 73, "duration": 5, "velocity": 96}, {"time": 2130, "pitch": 71, "duration": 6, "velocity": 89}, {"time": 2139, "pitch": 69, "duration": 2, "velocity": 85}, {"time": 2142, "pitch": 71, "duration": 2, "velocity": 89}, {"time": 2145, "pitch": 69, "duration": 3, "velocity": 81}, {"time": 2148, "pitch": 73, "duration": 5, "velocity": 100}, {"time": 2154, "pitch": 76, "duration": 7, "velocity": 89}, {"time": 2169, "pitch": 76, "duration": 3, "velocity": 86}, {"time": 2172, "pitch": 78, "duration": 1, "velocity": 89}, {"time": 2175, "pitch": 78, "duration": 1, "velocity": 99}, {"time": 2178, "pitch": 78, "duration": 2, "velocity": 99}, {"time": 2181, "pitch": 76, "duration": 4, "velocity": 76}, {"time": 2184, "pitch": 78, "duration": 4, "velocity": 117}, {"time": 2190, "pitch": 76, "duration": 1, "velocity": 96}, {"time": 2193, "pitch": 73, "duration": 4, "velocity": 99}, {"time": 2199, "pitch": 71, "duration": 9, "velocity": 97}, {"time": 2208, "pitch": 66, "duration": 5, "velocity": 89}, {"time": 2214, "pitch": 69, "duration": 4, "velocity": 85}, {"time": 2220, "pitch": 71, "duration": 8, "velocity": 96}, {"time": 2229, "pitch": 69, "duration": 19, "velocity": 81}, {"time": 2268, "pitch": 76, "duration": 50, "velocity": 127}]}, {"program": 0, "is_drum": false, "name": "PIANO", "notes": [{"time": 12, "pitch": 45, "duration": 20, "velocity": 57}, {"time": 18, "pitch": 52, "duration": 17, "velocity": 37}, {"time": 24, "pitch": 64, "duration": 12, "velocity": 90}, {"time": 30, "pitch": 61, "duration": 7, "velocity": 45}, {"time": 33, "pitch": 57, "duration": 3, "velocity": 50}, {"time": 36, "pitch": 49, "duration": 17, "velocity": 59}, {"time": 42, "pitch": 56, "duration": 18, "velocity": 38}, {"time": 45, "pitch": 64, "duration": 15, "velocity": 66}, {"time": 54, "pitch": 61, "duration": 6, "velocity": 60}, {"time": 60, "pitch": 38, "duration": 41, "velocity": 63}, {"time": 63, "pitch": 45, "duration": 38, "velocity": 35}, {"time": 66, "pitch": 50, "duration": 7, "velocity": 48}, {"time": 69, "pitch": 66, "duration": 25, "velocity": 63}, {"time": 72, "pitch": 50, "duration": 1, "velocity": 42}, {"time": 78, "pitch": 62, "duration": 10, "velocity": 22}, {"time": 81, "pitch": 57, "duration": 14, "velocity": 63}, {"time": 84, "pitch": 50, "duration": 6, "velocity": 50}, {"time": 90, "pitch": 50, "duration": 1, "velocity": 39}, {"time": 96, "pitch": 62, "duration": 12, "velocity": 92}, {"time": 96, "pitch": 66, "duration": 12, "velocity": 97}, {"time": 99, "pitch": 50, "duration": 4, "velocity": 55}, {"time": 102, "pitch": 57, "duration": 6, "velocity": 81}, {"time": 108, "pitch": 45, "duration": 20, "velocity": 73}, {"time": 111, "pitch": 52, "duration": 10, "velocity": 38}, {"time": 114, "pitch": 57, "duration": 4, "velocity": 69}, {"time": 117, "pitch": 64, "duration": 15, "velocity": 89}, {"time": 123, "pitch": 52, "duration": 5, "velocity": 51}, {"time": 126, "pitch": 61, "duration": 7, "velocity": 72}, {"time": 132, "pitch": 44, "duration": 18, "velocity": 42}, {"time": 135, "pitch": 56, "duration": 8, "velocity": 44}, {"time": 138, "pitch": 61, "duration": 13, "velocity": 67}, {"time": 141, "pitch": 64, "duration": 15, "velocity": 72}, {"time": 150, "pitch": 56, "duration": 6, "velocity": 56}, {"time": 153, "pitch": 61, "duration": 3, "velocity": 59}, {"time": 156, "pitch": 38, "duration": 13, "velocity": 65}, {"time": 165, "pitch": 45, "duration": 3, "velocity": 53}, {"time": 165, "pitch": 50, "duration": 3, "velocity": 52}, {"time": 165, "pitch": 57, "duration": 3, "velocity": 65}, {"time": 165, "pitch": 62, "duration": 3, "velocity": 72}, {"time": 165, "pitch": 66, "duration": 3, "velocity": 66}, {"time": 174, "pitch": 38, "duration": 9, "velocity": 39}, {"time": 174, "pitch": 45, "duration": 9, "velocity": 38}, {"time": 174, "pitch": 50, "duration": 9, "velocity": 37}, {"time": 174, "pitch": 57, "duration": 15, "velocity": 58}, {"time": 174, "pitch": 62, "duration": 16, "velocity": 63}, {"time": 174, "pitch": 66, "duration": 11, "velocity": 55}, {"time": 192, "pitch": 40, "duration": 12, "velocity": 35}, {"time": 192, "pitch": 47, "duration": 12, "velocity": 37}, {"time": 192, "pitch": 52, "duration": 12, "velocity": 35}, {"time": 192, "pitch": 59, "duration": 12, "velocity": 44}, {"time": 192, "pitch": 64, "duration": 12, "velocity": 53}, {"time": 192, "pitch": 68, "duration": 12, "velocity": 44}, {"time": 204, "pitch": 45, "duration": 23, "velocity": 66}, {"time": 210, "pitch": 52, "duration": 17, "velocity": 57}, {"time": 216, "pitch": 64, "duration": 21, "velocity": 74}, {"time": 222, "pitch": 61, "duration": 17, "velocity": 44}, {"time": 228, "pitch": 45, "duration": 17, "velocity": 58}, {"time": 234, "pitch": 52, "duration": 11, "velocity": 49}, {"time": 237, "pitch": 62, "duration": 3, "velocity": 73}, {"time": 240, "pitch": 59, "duration": 13, "velocity": 82}, {"time": 240, "pitch": 64, "duration": 8, "velocity": 76}, {"time": 240, "pitch": 64, "duration": 8, "velocity": 79}, {"time": 246, "pitch": 61, "duration": 7, "velocity": 44}, {"time": 246, "pitch": 61, "duration": 7, "velocity": 69}, {"time": 252, "pitch": 42, "duration": 23, "velocity": 72}, {"time": 258, "pitch": 49, "duration": 19, "velocity": 35}, {"time": 264, "pitch": 54, "duration": 29, "velocity": 46}, {"time": 264, "pitch": 61, "duration": 23, "velocity": 67}, {"time": 264, "pitch": 64, "duration": 13, "velocity": 88}, {"time": 270, "pitch": 57, "duration": 25, "velocity": 46}, {"time": 276, "pitch": 42, "duration": 18, "velocity": 53}, {"time": 282, "pitch": 49, "duration": 11, "velocity": 34}, {"time": 288, "pitch": 64, "duration": 12, "velocity": 66}, {"time": 288, "pitch": 66, "duration": 13, "velocity": 85}, {"time": 291, "pitch": 76, "duration": 10, "velocity": 70}, {"time": 294, "pitch": 61, "duration": 6, "velocity": 54}, {"time": 297, "pitch": 57, "duration": 5, "velocity": 55}, {"time": 300, "pitch": 38, "duration": 23, "velocity": 69}, {"time": 306, "pitch": 45, "duration": 19, "velocity": 35}, {"time": 312, "pitch": 50, "duration": 18, "velocity": 41}, {"time": 312, "pitch": 62, "duration": 20, "velocity": 66}, {"time": 318, "pitch": 57, "duration": 18, "velocity": 51}, {"time": 324, "pitch": 38, "duration": 19, "velocity": 56}, {"time": 330, "pitch": 45, "duration": 14, "velocity": 41}, {"time": 336, "pitch": 50, "duration": 4, "velocity": 34}, {"time": 336, "pitch": 62, "duration": 16, "velocity": 62}, {"time": 336, "pitch": 66, "duration": 14, "velocity": 52}, {"time": 342, "pitch": 57, "duration": 8, "velocity": 50}, {"time": 348, "pitch": 40, "duration": 23, "velocity": 56}, {"time": 354, "pitch": 47, "duration": 19, "velocity": 39}, {"time": 360, "pitch": 52, "duration": 18, "velocity": 37}, {"time": 360, "pitch": 64, "duration": 22, "velocity": 66}, {"time": 366, "pitch": 59, "duration": 21, "velocity": 40}, {"time": 372, "pitch": 40, "duration": 17, "velocity": 60}, {"time": 378, "pitch": 47, "duration": 12, "velocity": 35}, {"time": 378, "pitch": 54, "duration": 18, "velocity": 53}, {"time": 384, "pitch": 52, "duration": 8, "velocity": 48}, {"time": 384, "pitch": 68, "duration": 12, "velocity": 90}, {"time": 387, "pitch": 64, "duration": 8, "velocity": 50}, {"time": 390, "pitch": 59, "duration": 5, "velocity": 71}, {"time": 396, "pitch": 45, "duration": 22, "velocity": 71}, {"time": 396, "pitch": 59, "duration": 6, "velocity": 93}, {"time": 396, "pitch": 61, "duration": 6, "velocity": 66}, {"time": 396, "pitch": 64, "duration": 6, "velocity": 66}, {"time": 396, "pitch": 57, "duration": 6, "velocity": 59}, {"time": 402, "pitch": 52, "duration": 19, "velocity": 58}, {"time": 402, "pitch": 61, "duration": 6, "velocity": 93}, {"time": 402, "pitch": 57, "duration": 7, "velocity": 58}, {"time": 408, "pitch": 61, "duration": 23, "velocity": 55}, {"time": 408, "pitch": 64, "duration": 22, "velocity": 83}, {"time": 414, "pitch": 57, "duration": 18, "velocity": 38}, {"time": 420, "pitch": 45, "duration": 16, "velocity": 54}, {"time": 426, "pitch": 52, "duration": 9, "velocity": 57}, {"time": 432, "pitch": 61, "duration": 13, "velocity": 93}, {"time": 432, "pitch": 64, "duration": 13, "velocity": 82}, {"time": 438, "pitch": 57, "duration": 7, "velocity": 63}, {"time": 444, "pitch": 37, "duration": 16, "velocity": 83}, {"time": 450, "pitch": 44, "duration": 10, "velocity": 36}, {"time": 456, "pitch": 49, "duration": 6, "velocity": 51}, {"time": 456, "pitch": 56, "duration": 12, "velocity": 64}, {"time": 456, "pitch": 61, "duration": 12, "velocity": 76}, {"time": 462, "pitch": 52, "duration": 6, "velocity": 54}, {"time": 468, "pitch": 42, "duration": 18, "velocity": 67}, {"time": 474, "pitch": 49, "duration": 12, "velocity": 39}, {"time": 480, "pitch": 54, "duration": 7, "velocity": 57}, {"time": 480, "pitch": 61, "duration": 13, "velocity": 63}, {"time": 480, "pitch": 66, "duration": 13, "velocity": 66}, {"time": 486, "pitch": 57, "duration": 6, "velocity": 64}, {"time": 492, "pitch": 47, "duration": 23, "velocity": 70}, {"time": 498, "pitch": 54, "duration": 18, "velocity": 62}, {"time": 504, "pitch": 62, "duration": 19, "velocity": 67}, {"time": 504, "pitch": 66, "duration": 20, "velocity": 78}, {"time": 510, "pitch": 59, "duration": 15, "velocity": 49}, {"time": 516, "pitch": 47, "duration": 19, "velocity": 66}, {"time": 522, "pitch": 54, "duration": 9, "velocity": 40}, {"time": 528, "pitch": 62, "duration": 13, "velocity": 76}, {"time": 528, "pitch": 66, "duration": 12, "velocity": 93}, {"time": 534, "pitch": 59, "duration": 7, "velocity": 85}, {"time": 540, "pitch": 40, "duration": 23, "velocity": 73}, {"time": 546, "pitch": 47, "duration": 19, "velocity": 47}, {"time": 552, "pitch": 52, "duration": 16, "velocity": 55}, {"time": 552, "pitch": 64, "duration": 21, "velocity": 79}, {"time": 552, "pitch": 68, "duration": 21, "velocity": 88}, {"time": 558, "pitch": 59, "duration": 14, "velocity": 77}, {"time": 564, "pitch": 40, "duration": 23, "velocity": 81}, {"time": 567, "pitch": 47, "duration": 20, "velocity": 53}, {"time": 570, "pitch": 52, "duration": 7, "velocity": 78}, {"time": 573, "pitch": 59, "duration": 4, "velocity": 69}, {"time": 576, "pitch": 64, "duration": 12, "velocity": 88}, {"time": 576, "pitch": 68, "duration": 13, "velocity": 107}, {"time": 579, "pitch": 52, "duration": 4, "velocity": 90}, {"time": 582, "pitch": 59, "duration": 6, "velocity": 99}, {"time": 588, "pitch": 45, "duration": 22, "velocity": 97}, {"time": 591, "pitch": 52, "duration": 21, "velocity": 93}, {"time": 594, "pitch": 57, "duration": 6, "velocity": 102}, {"time": 597, "pitch": 61, "duration": 4, "velocity": 93}, {"time": 600, "pitch": 69, "duration": 18, "velocity": 72}, {"time": 603, "pitch": 61, "duration": 4, "velocity": 92}, {"time": 606, "pitch": 64, "duration": 11, "velocity": 70}, {"time": 609, "pitch": 61, "duration": 10, "velocity": 117}, {"time": 612, "pitch": 45, "duration": 18, "velocity": 85}, {"time": 615, "pitch": 52, "duration": 11, "velocity": 64}, {"time": 618, "pitch": 57, "duration": 6, "velocity": 92}, {"time": 621, "pitch": 61, "duration": 5, "velocity": 73}, {"time": 624, "pitch": 64, "duration": 6, "velocity": 75}, {"time": 624, "pitch": 69, "duration": 9, "velocity": 72}, {"time": 627, "pitch": 52, "duration": 2, "velocity": 73}, {"time": 630, "pitch": 61, "duration": 7, "velocity": 90}, {"time": 633, "pitch": 64, "duration": 4, "velocity": 75}, {"time": 636, "pitch": 37, "duration": 15, "velocity": 72}, {"time": 639, "pitch": 44, "duration": 12, "velocity": 36}, {"time": 642, "pitch": 49, "duration": 7, "velocity": 90}, {"time": 645, "pitch": 61, "duration": 4, "velocity": 86}, {"time": 648, "pitch": 64, "duration": 6, "velocity": 82}, {"time": 648, "pitch": 68, "duration": 8, "velocity": 97}, {"time": 651, "pitch": 49, "duration": 3, "velocity": 92}, {"time": 654, "pitch": 61, "duration": 6, "velocity": 99}, {"time": 657, "pitch": 64, "duration": 3, "velocity": 69}, {"time": 657, "pitch": 68, "duration": 3, "velocity": 76}, {"time": 660, "pitch": 42, "duration": 17, "velocity": 73}, {"time": 663, "pitch": 49, "duration": 14, "velocity": 37}, {"time": 666, "pitch": 54, "duration": 7, "velocity": 95}, {"time": 669, "pitch": 57, "duration": 9, "velocity": 85}, {"time": 672, "pitch": 66, "duration": 12, "velocity": 122}, {"time": 675, "pitch": 54, "duration": 4, "velocity": 93}, {"time": 678, "pitch": 61, "duration": 5, "velocity": 122}, {"time": 681, "pitch": 57, "duration": 3, "velocity": 95}, {"time": 684, "pitch": 47, "duration": 18, "velocity": 89}, {"time": 687, "pitch": 54, "duration": 11, "velocity": 90}, {"time": 690, "pitch": 59, "duration": 3, "velocity": 97}, {"time": 693, "pitch": 62, "duration": 3, "velocity": 100}, {"time": 696, "pitch": 66, "duration": 13, "velocity": 122}, {"time": 699, "pitch": 54, "duration": 2, "velocity": 100}, {"time": 702, "pitch": 62, "duration": 7, "velocity": 99}, {"time": 705, "pitch": 59, "duration": 4, "velocity": 95}, {"time": 708, "pitch": 37, "duration": 19, "velocity": 75}, {"time": 711, "pitch": 44, "duration": 16, "velocity": 38}, {"time": 714, "pitch": 49, "duration": 7, "velocity": 83}, {"time": 717, "pitch": 61, "duration": 6, "velocity": 92}, {"time": 720, "pitch": 68, "duration": 11, "velocity": 112}, {"time": 723, "pitch": 49, "duration": 4, "velocity": 82}, {"time": 726, "pitch": 64, "duration": 3, "velocity": 92}, {"time": 729, "pitch": 61, "duration": 3, "velocity": 107}, {"time": 732, "pitch": 38, "duration": 21, "velocity": 73}, {"time": 735, "pitch": 45, "duration": 21, "velocity": 59}, {"time": 738, "pitch": 50, "duration": 7, "velocity": 82}, {"time": 741, "pitch": 57, "duration": 9, "velocity": 90}, {"time": 744, "pitch": 66, "duration": 4, "velocity": 127}, {"time": 747, "pitch": 50, "duration": 2, "velocity": 95}, {"time": 750, "pitch": 62, "duration": 6, "velocity": 93}, {"time": 750, "pitch": 66, "duration": 7, "velocity": 117}, {"time": 753, "pitch": 57, "duration": 4, "velocity": 89}, {"time": 756, "pitch": 40, "duration": 18, "velocity": 70}, {"time": 759, "pitch": 47, "duration": 15, "velocity": 64}, {"time": 762, "pitch": 52, "duration": 7, "velocity": 81}, {"time": 765, "pitch": 59, "duration": 4, "velocity": 70}, {"time": 768, "pitch": 64, "duration": 7, "velocity": 97}, {"time": 768, "pitch": 68, "duration": 12, "velocity": 127}, {"time": 771, "pitch": 52, "duration": 6, "velocity": 92}, {"time": 774, "pitch": 59, "duration": 6, "velocity": 96}, {"time": 777, "pitch": 64, "duration": 3, "velocity": 85}, {"time": 780, "pitch": 45, "duration": 22, "velocity": 86}, {"time": 783, "pitch": 52, "duration": 11, "velocity": 62}, {"time": 786, "pitch": 57, "duration": 4, "velocity": 63}, {"time": 789, "pitch": 61, "duration": 4, "velocity": 75}, {"time": 792, "pitch": 64, "duration": 13, "velocity": 97}, {"time": 795, "pitch": 52, "duration": 9, "velocity": 53}, {"time": 798, "pitch": 61, "duration": 7, "velocity": 90}, {"time": 801, "pitch": 57, "duration": 4, "velocity": 86}, {"time": 804, "pitch": 45, "duration": 17, "velocity": 69}, {"time": 807, "pitch": 52, "duration": 11, "velocity": 53}, {"time": 810, "pitch": 57, "duration": 4, "velocity": 85}, {"time": 813, "pitch": 64, "duration": 4, "velocity": 73}, {"time": 816, "pitch": 69, "duration": 7, "velocity": 82}, {"time": 816, "pitch": 73, "duration": 13, "velocity": 97}, {"time": 819, "pitch": 52, "duration": 2, "velocity": 70}, {"time": 822, "pitch": 64, "duration": 7, "velocity": 89}, {"time": 825, "pitch": 69, "duration": 4, "velocity": 75}, {"time": 828, "pitch": 37, "duration": 16, "velocity": 77}, {"time": 831, "pitch": 44, "duration": 13, "velocity": 33}, {"time": 834, "pitch": 49, "duration": 7, "velocity": 89}, {"time": 837, "pitch": 52, "duration": 4, "velocity": 69}, {"time": 840, "pitch": 56, "duration": 7, "velocity": 83}, {"time": 840, "pitch": 61, "duration": 12, "velocity": 96}, {"time": 843, "pitch": 49, "duration": 3, "velocity": 73}, {"time": 846, "pitch": 52, "duration": 6, "velocity": 77}, {"time": 849, "pitch": 56, "duration": 3, "velocity": 77}, {"time": 852, "pitch": 42, "duration": 16, "velocity": 71}, {"time": 855, "pitch": 49, "duration": 13, "velocity": 63}, {"time": 858, "pitch": 54, "duration": 7, "velocity": 93}, {"time": 861, "pitch": 57, "duration": 4, "velocity": 66}, {"time": 864, "pitch": 61, "duration": 7, "velocity": 90}, {"time": 864, "pitch": 66, "duration": 12, "velocity": 96}, {"time": 867, "pitch": 54, "duration": 3, "velocity": 86}, {"time": 870, "pitch": 57, "duration": 6, "velocity": 79}, {"time": 873, "pitch": 61, "duration": 3, "velocity": 93}, {"time": 876, "pitch": 47, "duration": 18, "velocity": 68}, {"time": 879, "pitch": 54, "duration": 11, "velocity": 66}, {"time": 882, "pitch": 59, "duration": 4, "velocity": 75}, {"time": 885, "pitch": 62, "duration": 4, "velocity": 71}, {"time": 888, "pitch": 66, "duration": 13, "velocity": 102}, {"time": 891, "pitch": 54, "duration": 2, "velocity": 71}, {"time": 894, "pitch": 62, "duration": 6, "velocity": 82}, {"time": 897, "pitch": 59, "duration": 4, "velocity": 83}, {"time": 900, "pitch": 37, "duration": 18, "velocity": 78}, {"time": 903, "pitch": 44, "duration": 14, "velocity": 32}, {"time": 906, "pitch": 49, "duration": 7, "velocity": 73}, {"time": 909, "pitch": 61, "duration": 4, "velocity": 73}, {"time": 912, "pitch": 64, "duration": 6, "velocity": 62}, {"time": 912, "pitch": 68, "duration": 12, "velocity": 99}, {"time": 915, "pitch": 49, "duration": 2, "velocity": 72}, {"time": 918, "pitch": 61, "duration": 7, "velocity": 90}, {"time": 921, "pitch": 64, "duration": 2, "velocity": 36}, {"time": 924, "pitch": 38, "duration": 22, "velocity": 76}, {"time": 927, "pitch": 45, "duration": 21, "velocity": 37}, {"time": 930, "pitch": 50, "duration": 7, "velocity": 81}, {"time": 933, "pitch": 57, "duration": 4, "velocity": 68}, {"time": 936, "pitch": 62, "duration": 7, "velocity": 83}, {"time": 936, "pitch": 66, "duration": 12, "velocity": 89}, {"time": 939, "pitch": 50, "duration": 2, "velocity": 69}, {"time": 942, "pitch": 57, "duration": 6, "velocity": 88}, {"time": 945, "pitch": 62, "duration": 3, "velocity": 67}, {"time": 948, "pitch": 40, "duration": 15, "velocity": 81}, {"time": 951, "pitch": 47, "duration": 13, "velocity": 53}, {"time": 954, "pitch": 52, "duration": 7, "velocity": 69}, {"time": 957, "pitch": 59, "duration": 4, "velocity": 65}, {"time": 960, "pitch": 64, "duration": 13, "velocity": 78}, {"time": 960, "pitch": 68, "duration": 13, "velocity": 83}, {"time": 972, "pitch": 45, "duration": 22, "velocity": 67}, {"time": 975, "pitch": 52, "duration": 11, "velocity": 41}, {"time": 978, "pitch": 57, "duration": 9, "velocity": 67}, {"time": 981, "pitch": 59, "duration": 4, "velocity": 55}, {"time": 984, "pitch": 64, "duration": 24, "velocity": 83}, {"time": 987, "pitch": 52, "duration": 10, "velocity": 62}, {"time": 990, "pitch": 61, "duration": 18, "velocity": 89}, {"time": 993, "pitch": 59, "duration": 15, "velocity": 56}, {"time": 996, "pitch": 45, "duration": 14, "velocity": 59}, {"time": 996, "pitch": 57, "duration": 12, "velocity": 61}, {"time": 1008, "pitch": 59, "duration": 7, "velocity": 90}, {"time": 1008, "pitch": 61, "duration": 8, "velocity": 112}, {"time": 1008, "pitch": 64, "duration": 12, "velocity": 96}, {"time": 1011, "pitch": 45, "duration": 1, "velocity": 78}, {"time": 1014, "pitch": 57, "duration": 6, "velocity": 99}, {"time": 1017, "pitch": 59, "duration": 3, "velocity": 100}, {"time": 1017, "pitch": 61, "duration": 3, "velocity": 43}, {"time": 1020, "pitch": 37, "duration": 17, "velocity": 92}, {"time": 1023, "pitch": 44, "duration": 12, "velocity": 61}, {"time": 1026, "pitch": 49, "duration": 9, "velocity": 85}, {"time": 1029, "pitch": 61, "duration": 3, "velocity": 78}, {"time": 1032, "pitch": 64, "duration": 1, "velocity": 35}, {"time": 1032, "pitch": 68, "duration": 4, "velocity": 107}, {"time": 1035, "pitch": 61, "duration": 2, "velocity": 88}, {"time": 1038, "pitch": 37, "duration": 1, "velocity": 72}, {"time": 1038, "pitch": 61, "duration": 3, "velocity": 88}, {"time": 1038, "pitch": 64, "duration": 2, "velocity": 75}, {"time": 1038, "pitch": 68, "duration": 2, "velocity": 83}, {"time": 1041, "pitch": 42, "duration": 20, "velocity": 100}, {"time": 1041, "pitch": 61, "duration": 8, "velocity": 44}, {"time": 1041, "pitch": 66, "duration": 9, "velocity": 78}, {"time": 1041, "pitch": 69, "duration": 7, "velocity": 62}, {"time": 1047, "pitch": 54, "duration": 4, "velocity": 64}, {"time": 1050, "pitch": 61, "duration": 7, "velocity": 92}, {"time": 1050, "pitch": 66, "duration": 1, "velocity": 29}, {"time": 1053, "pitch": 54, "duration": 4, "velocity": 85}, {"time": 1056, "pitch": 66, "duration": 7, "velocity": 97}, {"time": 1056, "pitch": 69, "duration": 8, "velocity": 69}, {"time": 1059, "pitch": 54, "duration": 2, "velocity": 93}, {"time": 1062, "pitch": 61, "duration": 8, "velocity": 93}, {"time": 1065, "pitch": 66, "duration": 4, "velocity": 69}, {"time": 1065, "pitch": 69, "duration": 3, "velocity": 60}, {"time": 1068, "pitch": 37, "duration": 16, "velocity": 71}, {"time": 1071, "pitch": 44, "duration": 13, "velocity": 33}, {"time": 1074, "pitch": 49, "duration": 7, "velocity": 85}, {"time": 1077, "pitch": 61, "duration": 4, "velocity": 86}, {"time": 1080, "pitch": 64, "duration": 4, "velocity": 62}, {"time": 1080, "pitch": 68, "duration": 5, "velocity": 93}, {"time": 1083, "pitch": 49, "duration": 5, "velocity": 88}, {"time": 1086, "pitch": 61, "duration": 11, "velocity": 99}, {"time": 1086, "pitch": 64, "duration": 2, "velocity": 61}, {"time": 1086, "pitch": 68, "duration": 2, "velocity": 52}, {"time": 1089, "pitch": 42, "duration": 19, "velocity": 93}, {"time": 1089, "pitch": 66, "duration": 8, "velocity": 77}, {"time": 1089, "pitch": 69, "duration": 5, "velocity": 64}, {"time": 1095, "pitch": 54, "duration": 5, "velocity": 68}, {"time": 1098, "pitch": 61, "duration": 5, "velocity": 97}, {"time": 1098, "pitch": 66, "duration": 1, "velocity": 32}, {"time": 1101, "pitch": 54, "duration": 4, "velocity": 86}, {"time": 1104, "pitch": 61, "duration": 2, "velocity": 62}, {"time": 1104, "pitch": 66, "duration": 7, "velocity": 102}, {"time": 1104, "pitch": 69, "duration": 12, "velocity": 67}, {"time": 1107, "pitch": 54, "duration": 4, "velocity": 95}, {"time": 1110, "pitch": 61, "duration": 7, "velocity": 99}, {"time": 1113, "pitch": 66, "duration": 3, "velocity": 85}, {"time": 1116, "pitch": 47, "duration": 18, "velocity": 68}, {"time": 1119, "pitch": 54, "duration": 14, "velocity": 58}, {"time": 1122, "pitch": 59, "duration": 7, "velocity": 77}, {"time": 1125, "pitch": 62, "duration": 4, "velocity": 72}, {"time": 1128, "pitch": 66, "duration": 6, "velocity": 92}, {"time": 1128, "pitch": 71, "duration": 6, "velocity": 93}, {"time": 1131, "pitch": 59, "duration": 2, "velocity": 89}, {"time": 1134, "pitch": 62, "duration": 7, "velocity": 96}, {"time": 1140, "pitch": 37, "duration": 16, "velocity": 95}, {"time": 1143, "pitch": 49, "duration": 10, "velocity": 56}, {"time": 1146, "pitch": 61, "duration": 5, "velocity": 81}, {"time": 1149, "pitch": 64, "duration": 2, "velocity": 53}, {"time": 1152, "pitch": 64, "duration": 5, "velocity": 74}, {"time": 1152, "pitch": 68, "duration": 8, "velocity": 107}, {"time": 1155, "pitch": 49, "duration": 2, "velocity": 88}, {"time": 1158, "pitch": 61, "duration": 3, "velocity": 102}, {"time": 1164, "pitch": 38, "duration": 22, "velocity": 69}, {"time": 1164, "pitch": 62, "duration": 8, "velocity": 86}, {"time": 1164, "pitch": 65, "duration": 6, "velocity": 92}, {"time": 1164, "pitch": 69, "duration": 8, "velocity": 90}, {"time": 1167, "pitch": 45, "duration": 21, "velocity": 42}, {"time": 1170, "pitch": 50, "duration": 6, "velocity": 88}, {"time": 1173, "pitch": 62, "duration": 8, "velocity": 81}, {"time": 1173, "pitch": 65, "duration": 7, "velocity": 97}, {"time": 1173, "pitch": 69, "duration": 7, "velocity": 93}, {"time": 1179, "pitch": 50, "duration": 3, "velocity": 72}, {"time": 1182, "pitch": 62, "duration": 1, "velocity": 42}, {"time": 1182, "pitch": 65, "duration": 5, "velocity": 100}, {"time": 1182, "pitch": 69, "duration": 3, "velocity": 93}, {"time": 1185, "pitch": 62, "duration": 1, "velocity": 45}, {"time": 1188, "pitch": 40, "duration": 25, "velocity": 83}, {"time": 1188, "pitch": 64, "duration": 8, "velocity": 86}, {"time": 1188, "pitch": 68, "duration": 8, "velocity": 97}, {"time": 1188, "pitch": 71, "duration": 8, "velocity": 89}, {"time": 1191, "pitch": 47, "duration": 21, "velocity": 77}, {"time": 1194, "pitch": 52, "duration": 7, "velocity": 95}, {"time": 1197, "pitch": 64, "duration": 3, "velocity": 86}, {"time": 1197, "pitch": 68, "duration": 2, "velocity": 93}, {"time": 1197, "pitch": 71, "duration": 2, "velocity": 78}, {"time": 1200, "pitch": 64, "duration": 3, "velocity": 70}, {"time": 1200, "pitch": 68, "duration": 12, "velocity": 127}, {"time": 1200, "pitch": 71, "duration": 12, "velocity": 99}, {"time": 1203, "pitch": 52, "duration": 9, "velocity": 96}, {"time": 1206, "pitch": 64, "duration": 6, "velocity": 86}, {"time": 1212, "pitch": 45, "duration": 22, "velocity": 71}, {"time": 1215, "pitch": 52, "duration": 22, "velocity": 58}, {"time": 1218, "pitch": 57, "duration": 7, "velocity": 58}, {"time": 1221, "pitch": 61, "duration": 26, "velocity": 55}, {"time": 1224, "pitch": 64, "duration": 22, "velocity": 83}, {"time": 1230, "pitch": 57, "duration": 18, "velocity": 38}, {"time": 1236, "pitch": 45, "duration": 16, "velocity": 54}, {"time": 1242, "pitch": 52, "duration": 9, "velocity": 57}, {"time": 1248, "pitch": 61, "duration": 13, "velocity": 93}, {"time": 1248, "pitch": 64, "duration": 13, "velocity": 82}, {"time": 1254, "pitch": 57, "duration": 7, "velocity": 63}, {"time": 1260, "pitch": 37, "duration": 16, "velocity": 83}, {"time": 1266, "pitch": 44, "duration": 10, "velocity": 36}, {"time": 1272, "pitch": 49, "duration": 6, "velocity": 51}, {"time": 1272, "pitch": 56, "duration": 12, "velocity": 64}, {"time": 1272, "pitch": 61, "duration": 12, "velocity": 76}, {"time": 1278, "pitch": 52, "duration": 6, "velocity": 54}, {"time": 1284, "pitch": 42, "duration": 18, "velocity": 67}, {"time": 1290, "pitch": 49, "duration": 12, "velocity": 39}, {"time": 1296, "pitch": 54, "duration": 7, "velocity": 57}, {"time": 1296, "pitch": 61, "duration": 13, "velocity": 63}, {"time": 1296, "pitch": 66, "duration": 13, "velocity": 66}, {"time": 1302, "pitch": 57, "duration": 6, "velocity": 64}, {"time": 1308, "pitch": 47, "duration": 23, "velocity": 70}, {"time": 1314, "pitch": 54, "duration": 18, "velocity": 62}, {"time": 1320, "pitch": 62, "duration": 19, "velocity": 67}, {"time": 1320, "pitch": 66, "duration": 20, "velocity": 78}, {"time": 1326, "pitch": 59, "duration": 15, "velocity": 49}, {"time": 1332, "pitch": 47, "duration": 19, "velocity": 66}, {"time": 1338, "pitch": 54, "duration": 9, "velocity": 40}, {"time": 1344, "pitch": 62, "duration": 13, "velocity": 76}, {"time": 1344, "pitch": 66, "duration": 12, "velocity": 93}, {"time": 1350, "pitch": 59, "duration": 7, "velocity": 85}, {"time": 1356, "pitch": 40, "duration": 23, "velocity": 73}, {"time": 1362, "pitch": 47, "duration": 19, "velocity": 47}, {"time": 1368, "pitch": 52, "duration": 16, "velocity": 55}, {"time": 1368, "pitch": 64, "duration": 21, "velocity": 79}, {"time": 1368, "pitch": 68, "duration": 21, "velocity": 88}, {"time": 1374, "pitch": 59, "duration": 14, "velocity": 77}, {"time": 1380, "pitch": 40, "duration": 23, "velocity": 81}, {"time": 1383, "pitch": 47, "duration": 20, "velocity": 53}, {"time": 1386, "pitch": 52, "duration": 7, "velocity": 78}, {"time": 1389, "pitch": 59, "duration": 4, "velocity": 69}, {"time": 1392, "pitch": 64, "duration": 12, "velocity": 88}, {"time": 1392, "pitch": 68, "duration": 13, "velocity": 107}, {"time": 1395, "pitch": 52, "duration": 4, "velocity": 90}, {"time": 1398, "pitch": 59, "duration": 6, "velocity": 99}, {"time": 1404, "pitch": 45, "duration": 22, "velocity": 97}, {"time": 1407, "pitch": 52, "duration": 21, "velocity": 93}, {"time": 1410, "pitch": 57, "duration": 6, "velocity": 102}, {"time": 1413, "pitch": 61, "duration": 4, "velocity": 93}, {"time": 1416, "pitch": 69, "duration": 18, "velocity": 72}, {"time": 1419, "pitch": 61, "duration": 4, "velocity": 92}, {"time": 1422, "pitch": 64, "duration": 11, "velocity": 70}, {"time": 1425, "pitch": 61, "duration": 10, "velocity": 117}, {"time": 1428, "pitch": 45, "duration": 18, "velocity": 85}, {"time": 1431, "pitch": 52, "duration": 11, "velocity": 64}, {"time": 1434, "pitch": 57, "duration": 6, "velocity": 92}, {"time": 1437, "pitch": 61, "duration": 5, "velocity": 73}, {"time": 1440, "pitch": 64, "duration": 6, "velocity": 75}, {"time": 1440, "pitch": 69, "duration": 9, "velocity": 72}, {"time": 1443, "pitch": 52, "duration": 2, "velocity": 73}, {"time": 1446, "pitch": 61, "duration": 7, "velocity": 90}, {"time": 1449, "pitch": 64, "duration": 4, "velocity": 75}, {"time": 1452, "pitch": 37, "duration": 15, "velocity": 72}, {"time": 1455, "pitch": 44, "duration": 12, "velocity": 36}, {"time": 1458, "pitch": 49, "duration": 7, "velocity": 90}, {"time": 1461, "pitch": 61, "duration": 4, "velocity": 86}, {"time": 1464, "pitch": 64, "duration": 6, "velocity": 82}, {"time": 1464, "pitch": 68, "duration": 8, "velocity": 97}, {"time": 1467, "pitch": 49, "duration": 3, "velocity": 92}, {"time": 1470, "pitch": 61, "duration": 6, "velocity": 99}, {"time": 1473, "pitch": 64, "duration": 3, "velocity": 69}, {"time": 1473, "pitch": 68, "duration": 3, "velocity": 76}, {"time": 1476, "pitch": 42, "duration": 17, "velocity": 73}, {"time": 1479, "pitch": 49, "duration": 14, "velocity": 37}, {"time": 1482, "pitch": 54, "duration": 7, "velocity": 95}, {"time": 1485, "pitch": 57, "duration": 9, "velocity": 85}, {"time": 1488, "pitch": 66, "duration": 12, "velocity": 122}, {"time": 1491, "pitch": 54, "duration": 4, "velocity": 93}, {"time": 1494, "pitch": 61, "duration": 5, "velocity": 122}, {"time": 1497, "pitch": 57, "duration": 3, "velocity": 95}, {"time": 1500, "pitch": 47, "duration": 18, "velocity": 89}, {"time": 1503, "pitch": 54, "duration": 11, "velocity": 90}, {"time": 1506, "pitch": 59, "duration": 3, "velocity": 97}, {"time": 1509, "pitch": 62, "duration": 3, "velocity": 100}, {"time": 1512, "pitch": 66, "duration": 13, "velocity": 122}, {"time": 1515, "pitch": 54, "duration": 2, "velocity": 100}, {"time": 1518, "pitch": 62, "duration": 7, "velocity": 99}, {"time": 1521, "pitch": 59, "duration": 4, "velocity": 95}, {"time": 1524, "pitch": 37, "duration": 19, "velocity": 75}, {"time": 1527, "pitch": 44, "duration": 16, "velocity": 38}, {"time": 1530, "pitch": 49, "duration": 7, "velocity": 83}, {"time": 1533, "pitch": 61, "duration": 6, "velocity": 92}, {"time": 1536, "pitch": 68, "duration": 11, "velocity": 112}, {"time": 1539, "pitch": 49, "duration": 4, "velocity": 82}, {"time": 1542, "pitch": 64, "duration": 3, "velocity": 92}, {"time": 1545, "pitch": 61, "duration": 3, "velocity": 107}, {"time": 1548, "pitch": 38, "duration": 21, "velocity": 73}, {"time": 1551, "pitch": 45, "duration": 21, "velocity": 59}, {"time": 1554, "pitch": 50, "duration": 7, "velocity": 82}, {"time": 1557, "pitch": 57, "duration": 9, "velocity": 90}, {"time": 1560, "pitch": 66, "duration": 4, "velocity": 127}, {"time": 1563, "pitch": 50, "duration": 2, "velocity": 95}, {"time": 1566, "pitch": 62, "duration": 6, "velocity": 93}, {"time": 1566, "pitch": 66, "duration": 7, "velocity": 117}, {"time": 1569, "pitch": 57, "duration": 4, "velocity": 89}, {"time": 1572, "pitch": 40, "duration": 18, "velocity": 70}, {"time": 1575, "pitch": 47, "duration": 15, "velocity": 64}, {"time": 1578, "pitch": 52, "duration": 7, "velocity": 81}, {"time": 1581, "pitch": 59, "duration": 4, "velocity": 70}, {"time": 1584, "pitch": 64, "duration": 7, "velocity": 97}, {"time": 1584, "pitch": 68, "duration": 12, "velocity": 127}, {"time": 1587, "pitch": 52, "duration": 6, "velocity": 92}, {"time": 1590, "pitch": 59, "duration": 6, "velocity": 96}, {"time": 1593, "pitch": 64, "duration": 3, "velocity": 85}, {"time": 1596, "pitch": 45, "duration": 22, "velocity": 86}, {"time": 1599, "pitch": 52, "duration": 11, "velocity": 62}, {"time": 1602, "pitch": 57, "duration": 4, "velocity": 63}, {"time": 1605, "pitch": 61, "duration": 4, "velocity": 75}, {"time": 1608, "pitch": 64, "duration": 13, "velocity": 97}, {"time": 1611, "pitch": 52, "duration": 9, "velocity": 53}, {"time": 1614, "pitch": 61, "duration": 7, "velocity": 90}, {"time": 1617, "pitch": 57, "duration": 4, "velocity": 86}, {"time": 1620, "pitch": 45, "duration": 17, "velocity": 69}, {"time": 1623, "pitch": 52, "duration": 11, "velocity": 53}, {"time": 1626, "pitch": 57, "duration": 4, "velocity": 85}, {"time": 1629, "pitch": 64, "duration": 4, "velocity": 73}, {"time": 1632, "pitch": 69, "duration": 7, "velocity": 82}, {"time": 1632, "pitch": 73, "duration": 13, "velocity": 97}, {"time": 1635, "pitch": 52, "duration": 2, "velocity": 70}, {"time": 1638, "pitch": 64, "duration": 7, "velocity": 89}, {"time": 1641, "pitch": 69, "duration": 4, "velocity": 75}, {"time": 1644, "pitch": 37, "duration": 16, "velocity": 77}, {"time": 1647, "pitch": 44, "duration": 13, "velocity": 33}, {"time": 1650, "pitch": 49, "duration": 7, "velocity": 89}, {"time": 1653, "pitch": 52, "duration": 4, "velocity": 69}, {"time": 1656, "pitch": 56, "duration": 7, "velocity": 83}, {"time": 1656, "pitch": 61, "duration": 12, "velocity": 96}, {"time": 1659, "pitch": 49, "duration": 3, "velocity": 73}, {"time": 1662, "pitch": 52, "duration": 6, "velocity": 77}, {"time": 1665, "pitch": 56, "duration": 3, "velocity": 77}, {"time": 1668, "pitch": 42, "duration": 16, "velocity": 71}, {"time": 1671, "pitch": 49, "duration": 13, "velocity": 63}, {"time": 1674, "pitch": 54, "duration": 7, "velocity": 93}, {"time": 1677, "pitch": 57, "duration": 4, "velocity": 66}, {"time": 1680, "pitch": 61, "duration": 7, "velocity": 90}, {"time": 1680, "pitch": 66, "duration": 12, "velocity": 96}, {"time": 1683, "pitch": 54, "duration": 3, "velocity": 86}, {"time": 1686, "pitch": 57, "duration": 6, "velocity": 79}, {"time": 1689, "pitch": 61, "duration": 3, "velocity": 93}, {"time": 1692, "pitch": 47, "duration": 18, "velocity": 68}, {"time": 1695, "pitch": 54, "duration": 11, "velocity": 66}, {"time": 1698, "pitch": 59, "duration": 4, "velocity": 75}, {"time": 1701, "pitch": 62, "duration": 4, "velocity": 71}, {"time": 1704, "pitch": 66, "duration": 13, "velocity": 102}, {"time": 1707, "pitch": 54, "duration": 2, "velocity": 71}, {"time": 1710, "pitch": 62, "duration": 6, "velocity": 82}, {"time": 1713, "pitch": 59, "duration": 4, "velocity": 83}, {"time": 1716, "pitch": 37, "duration": 18, "velocity": 78}, {"time": 1719, "pitch": 44, "duration": 14, "velocity": 32}, {"time": 1722, "pitch": 49, "duration": 7, "velocity": 73}, {"time": 1725, "pitch": 61, "duration": 4, "velocity": 73}, {"time": 1728, "pitch": 64, "duration": 6, "velocity": 62}, {"time": 1728, "pitch": 68, "duration": 12, "velocity": 99}, {"time": 1731, "pitch": 49, "duration": 2, "velocity": 72}, {"time": 1734, "pitch": 61, "duration": 7, "velocity": 90}, {"time": 1737, "pitch": 64, "duration": 2, "velocity": 36}, {"time": 1740, "pitch": 38, "duration": 22, "velocity": 76}, {"time": 1743, "pitch": 45, "duration": 21, "velocity": 37}, {"time": 1746, "pitch": 50, "duration": 7, "velocity": 81}, {"time": 1749, "pitch": 57, "duration": 4, "velocity": 68}, {"time": 1752, "pitch": 62, "duration": 7, "velocity": 83}, {"time": 1752, "pitch": 66, "duration": 12, "velocity": 89}, {"time": 1755, "pitch": 50, "duration": 2, "velocity": 69}, {"time": 1758, "pitch": 57, "duration": 6, "velocity": 88}, {"time": 1761, "pitch": 62, "duration": 3, "velocity": 67}, {"time": 1764, "pitch": 40, "duration": 15, "velocity": 81}, {"time": 1767, "pitch": 47, "duration": 13, "velocity": 53}, {"time": 1770, "pitch": 52, "duration": 7, "velocity": 69}, {"time": 1773, "pitch": 59, "duration": 4, "velocity": 65}, {"time": 1776, "pitch": 64, "duration": 12, "velocity": 78}, {"time": 1776, "pitch": 68, "duration": 12, "velocity": 83}, {"time": 1788, "pitch": 45, "duration": 43, "velocity": 93}, {"time": 1788, "pitch": 64, "duration": 10, "velocity": 89}, {"time": 1788, "pitch": 69, "duration": 10, "velocity": 99}, {"time": 1788, "pitch": 73, "duration": 8, "velocity": 97}, {"time": 1794, "pitch": 52, "duration": 42, "velocity": 51}, {"time": 1797, "pitch": 57, "duration": 4, "velocity": 67}, {"time": 1800, "pitch": 69, "duration": 7, "velocity": 88}, {"time": 1800, "pitch": 73, "duration": 7, "velocity": 96}, {"time": 1803, "pitch": 57, "duration": 3, "velocity": 60}, {"time": 1806, "pitch": 64, "duration": 8, "velocity": 64}, {"time": 1809, "pitch": 69, "duration": 5, "velocity": 71}, {"time": 1809, "pitch": 73, "duration": 4, "velocity": 96}, {"time": 1815, "pitch": 57, "duration": 9, "velocity": 33}, {"time": 1815, "pitch": 64, "duration": 2, "velocity": 59}, {"time": 1815, "pitch": 69, "duration": 2, "velocity": 59}, {"time": 1815, "pitch": 73, "duration": 1, "velocity": 52}, {"time": 1818, "pitch": 64, "duration": 1, "velocity": 78}, {"time": 1818, "pitch": 69, "duration": 1, "velocity": 90}, {"time": 1818, "pitch": 73, "duration": 1, "velocity": 88}, {"time": 1824, "pitch": 64, "duration": 3, "velocity": 90}, {"time": 1824, "pitch": 69, "duration": 7, "velocity": 112}, {"time": 1824, "pitch": 73, "duration": 7, "velocity": 112}, {"time": 1827, "pitch": 57, "duration": 2, "velocity": 97}, {"time": 1830, "pitch": 64, "duration": 7, "velocity": 89}, {"time": 1836, "pitch": 45, "duration": 23, "velocity": 76}, {"time": 1842, "pitch": 52, "duration": 18, "velocity": 56}, {"time": 1848, "pitch": 61, "duration": 23, "velocity": 66}, {"time": 1848, "pitch": 64, "duration": 22, "velocity": 66}, {"time": 1854, "pitch": 57, "duration": 14, "velocity": 55}, {"time": 1860, "pitch": 45, "duration": 18, "velocity": 66}, {"time": 1863, "pitch": 52, "duration": 10, "velocity": 41}, {"time": 1869, "pitch": 57, "duration": 5, "velocity": 44}, {"time": 1872, "pitch": 61, "duration": 11, "velocity": 82}, {"time": 1872, "pitch": 64, "duration": 11, "velocity": 75}, {"time": 1875, "pitch": 52, "duration": 3, "velocity": 50}, {"time": 1878, "pitch": 57, "duration": 6, "velocity": 63}, {"time": 1884, "pitch": 49, "duration": 16, "velocity": 68}, {"time": 1890, "pitch": 56, "duration": 8, "velocity": 51}, {"time": 1896, "pitch": 61, "duration": 16, "velocity": 65}, {"time": 1896, "pitch": 64, "duration": 11, "velocity": 78}, {"time": 1902, "pitch": 56, "duration": 6, "velocity": 62}, {"time": 1908, "pitch": 42, "duration": 24, "velocity": 75}, {"time": 1911, "pitch": 54, "duration": 5, "velocity": 37}, {"time": 1914, "pitch": 57, "duration": 7, "velocity": 48}, {"time": 1920, "pitch": 54, "duration": 12, "velocity": 14}, {"time": 1920, "pitch": 61, "duration": 11, "velocity": 75}, {"time": 1920, "pitch": 66, "duration": 11, "velocity": 79}, {"time": 1926, "pitch": 57, "duration": 6, "velocity": 70}, {"time": 1932, "pitch": 47, "duration": 16, "velocity": 79}, {"time": 1938, "pitch": 54, "duration": 8, "velocity": 56}, {"time": 1944, "pitch": 62, "duration": 13, "velocity": 69}, {"time": 1944, "pitch": 66, "duration": 13, "velocity": 99}, {"time": 1947, "pitch": 54, "duration": 1, "velocity": 38}, {"time": 1950, "pitch": 59, "duration": 6, "velocity": 57}, {"time": 1956, "pitch": 37, "duration": 17, "velocity": 69}, {"time": 1962, "pitch": 49, "duration": 7, "velocity": 53}, {"time": 1968, "pitch": 64, "duration": 12, "velocity": 69}, {"time": 1968, "pitch": 68, "duration": 12, "velocity": 86}, {"time": 1971, "pitch": 49, "duration": 2, "velocity": 71}, {"time": 1974, "pitch": 61, "duration": 7, "velocity": 59}, {"time": 1980, "pitch": 38, "duration": 22, "velocity": 74}, {"time": 1983, "pitch": 45, "duration": 20, "velocity": 37}, {"time": 1986, "pitch": 50, "duration": 7, "velocity": 82}, {"time": 1989, "pitch": 57, "duration": 3, "velocity": 52}, {"time": 1992, "pitch": 57, "duration": 4, "velocity": 41}, {"time": 1992, "pitch": 62, "duration": 11, "velocity": 99}, {"time": 1992, "pitch": 66, "duration": 7, "velocity": 100}, {"time": 1995, "pitch": 50, "duration": 2, "velocity": 73}, {"time": 1998, "pitch": 57, "duration": 6, "velocity": 69}, {"time": 2001, "pitch": 64, "duration": 4, "velocity": 37}, {"time": 2004, "pitch": 40, "duration": 14, "velocity": 59}, {"time": 2007, "pitch": 47, "duration": 10, "velocity": 50}, {"time": 2007, "pitch": 59, "duration": 2, "velocity": 58}, {"time": 2007, "pitch": 64, "duration": 2, "velocity": 59}, {"time": 2007, "pitch": 68, "duration": 2, "velocity": 55}, {"time": 2010, "pitch": 59, "duration": 2, "velocity": 78}, {"time": 2010, "pitch": 64, "duration": 2, "velocity": 89}, {"time": 2010, "pitch": 68, "duration": 1, "velocity": 93}, {"time": 2013, "pitch": 52, "duration": 4, "velocity": 37}, {"time": 2013, "pitch": 59, "duration": 2, "velocity": 95}, {"time": 2013, "pitch": 64, "duration": 2, "velocity": 97}, {"time": 2013, "pitch": 68, "duration": 1, "velocity": 102}, {"time": 2016, "pitch": 59, "duration": 4, "velocity": 112}, {"time": 2016, "pitch": 64, "duration": 4, "velocity": 127}, {"time": 2016, "pitch": 68, "duration": 4, "velocity": 127}, {"time": 2019, "pitch": 40, "duration": 9, "velocity": 76}, {"time": 2019, "pitch": 47, "duration": 10, "velocity": 77}, {"time": 2019, "pitch": 52, "duration": 9, "velocity": 95}, {"time": 2022, "pitch": 64, "duration": 6, "velocity": 122}, {"time": 2022, "pitch": 68, "duration": 6, "velocity": 127}, {"time": 2025, "pitch": 59, "duration": 3, "velocity": 102}, {"time": 2028, "pitch": 45, "duration": 22, "velocity": 92}, {"time": 2031, "pitch": 52, "duration": 21, "velocity": 97}, {"time": 2034, "pitch": 57, "duration": 7, "velocity": 102}, {"time": 2037, "pitch": 64, "duration": 4, "velocity": 85}, {"time": 2040, "pitch": 69, "duration": 7, "velocity": 66}, {"time": 2040, "pitch": 73, "duration": 8, "velocity": 122}, {"time": 2043, "pitch": 57, "duration": 3, "velocity": 82}, {"time": 2046, "pitch": 64, "duration": 13, "velocity": 95}, {"time": 2049, "pitch": 69, "duration": 10, "velocity": 81}, {"time": 2049, "pitch": 73, "duration": 11, "velocity": 102}, {"time": 2052, "pitch": 45, "duration": 17, "velocity": 78}, {"time": 2055, "pitch": 52, "duration": 14, "velocity": 64}, {"time": 2058, "pitch": 57, "duration": 8, "velocity": 93}, {"time": 2061, "pitch": 64, "duration": 5, "velocity": 93}, {"time": 2064, "pitch": 73, "duration": 13, "velocity": 117}, {"time": 2067, "pitch": 57, "duration": 2, "velocity": 81}, {"time": 2070, "pitch": 69, "duration": 7, "velocity": 90}, {"time": 2073, "pitch": 64, "duration": 4, "velocity": 95}, {"time": 2076, "pitch": 37, "duration": 17, "velocity": 75}, {"time": 2079, "pitch": 44, "duration": 14, "velocity": 35}, {"time": 2082, "pitch": 49, "duration": 7, "velocity": 79}, {"time": 2085, "pitch": 56, "duration": 4, "velocity": 74}, {"time": 2088, "pitch": 61, "duration": 6, "velocity": 66}, {"time": 2088, "pitch": 64, "duration": 12, "velocity": 67}, {"time": 2091, "pitch": 49, "duration": 4, "velocity": 83}, {"time": 2094, "pitch": 56, "duration": 5, "velocity": 102}, {"time": 2097, "pitch": 61, "duration": 3, "velocity": 50}, {"time": 2100, "pitch": 42, "duration": 17, "velocity": 86}, {"time": 2103, "pitch": 49, "duration": 13, "velocity": 65}, {"time": 2106, "pitch": 54, "duration": 7, "velocity": 100}, {"time": 2109, "pitch": 57, "duration": 4, "velocity": 82}, {"time": 2112, "pitch": 61, "duration": 7, "velocity": 100}, {"time": 2112, "pitch": 66, "duration": 12, "velocity": 100}, {"time": 2115, "pitch": 54, "duration": 3, "velocity": 99}, {"time": 2118, "pitch": 57, "duration": 5, "velocity": 95}, {"time": 2121, "pitch": 61, "duration": 3, "velocity": 107}, {"time": 2124, "pitch": 47, "duration": 17, "velocity": 75}, {"time": 2127, "pitch": 54, "duration": 11, "velocity": 79}, {"time": 2130, "pitch": 59, "duration": 4, "velocity": 92}, {"time": 2133, "pitch": 62, "duration": 10, "velocity": 82}, {"time": 2136, "pitch": 66, "duration": 12, "velocity": 117}, {"time": 2139, "pitch": 54, "duration": 2, "velocity": 82}, {"time": 2142, "pitch": 59, "duration": 6, "velocity": 102}, {"time": 2145, "pitch": 62, "duration": 3, "velocity": 96}, {"time": 2148, "pitch": 37, "duration": 18, "velocity": 92}, {"time": 2151, "pitch": 44, "duration": 14, "velocity": 61}, {"time": 2154, "pitch": 49, "duration": 7, "velocity": 88}, {"time": 2157, "pitch": 61, "duration": 3, "velocity": 78}, {"time": 2160, "pitch": 64, "duration": 1, "velocity": 95}, {"time": 2160, "pitch": 68, "duration": 10, "velocity": 122}, {"time": 2163, "pitch": 49, "duration": 2, "velocity": 92}, {"time": 2163, "pitch": 64, "duration": 2, "velocity": 27}, {"time": 2166, "pitch": 61, "duration": 6, "velocity": 100}, {"time": 2169, "pitch": 64, "duration": 3, "velocity": 85}, {"time": 2172, "pitch": 38, "duration": 22, "velocity": 68}, {"time": 2175, "pitch": 45, "duration": 21, "velocity": 62}, {"time": 2178, "pitch": 50, "duration": 7, "velocity": 92}, {"time": 2181, "pitch": 57, "duration": 7, "velocity": 65}, {"time": 2184, "pitch": 62, "duration": 7, "velocity": 99}, {"time": 2184, "pitch": 66, "duration": 8, "velocity": 122}, {"time": 2187, "pitch": 50, "duration": 3, "velocity": 85}, {"time": 2190, "pitch": 57, "duration": 6, "velocity": 92}, {"time": 2193, "pitch": 62, "duration": 3, "velocity": 83}, {"time": 2193, "pitch": 66, "duration": 3, "velocity": 99}, {"time": 2196, "pitch": 40, "duration": 9, "velocity": 74}, {"time": 2199, "pitch": 47, "duration": 6, "velocity": 69}, {"time": 2199, "pitch": 59, "duration": 1, "velocity": 32}, {"time": 2199, "pitch": 64, "duration": 1, "velocity": 35}, {"time": 2202, "pitch": 52, "duration": 2, "velocity": 72}, {"time": 2202, "pitch": 59, "duration": 2, "velocity": 63}, {"time": 2202, "pitch": 64, "duration": 2, "velocity": 55}, {"time": 2202, "pitch": 68, "duration": 2, "velocity": 48}, {"time": 2205, "pitch": 40, "duration": 2, "velocity": 66}, {"time": 2205, "pitch": 47, "duration": 2, "velocity": 66}, {"time": 2205, "pitch": 52, "duration": 2, "velocity": 54}, {"time": 2205, "pitch": 59, "duration": 2, "velocity": 71}, {"time": 2205, "pitch": 64, "duration": 2, "velocity": 85}, {"time": 2205, "pitch": 68, "duration": 2, "velocity": 77}, {"time": 2208, "pitch": 40, "duration": 2, "velocity": 66}, {"time": 2208, "pitch": 47, "duration": 2, "velocity": 66}, {"time": 2208, "pitch": 52, "duration": 2, "velocity": 67}, {"time": 2208, "pitch": 59, "duration": 2, "velocity": 74}, {"time": 2208, "pitch": 64, "duration": 2, "velocity": 88}, {"time": 2208, "pitch": 68, "duration": 2, "velocity": 86}, {"time": 2211, "pitch": 40, "duration": 2, "velocity": 64}, {"time": 2211, "pitch": 47, "duration": 2, "velocity": 58}, {"time": 2211, "pitch": 52, "duration": 2, "velocity": 79}, {"time": 2211, "pitch": 59, "duration": 2, "velocity": 72}, {"time": 2211, "pitch": 64, "duration": 2, "velocity": 89}, {"time": 2211, "pitch": 68, "duration": 2, "velocity": 72}, {"time": 2214, "pitch": 40, "duration": 2, "velocity": 63}, {"time": 2214, "pitch": 47, "duration": 2, "velocity": 74}, {"time": 2214, "pitch": 52, "duration": 2, "velocity": 82}, {"time": 2214, "pitch": 59, "duration": 2, "velocity": 79}, {"time": 2214, "pitch": 64, "duration": 1, "velocity": 90}, {"time": 2214, "pitch": 68, "duration": 2, "velocity": 86}, {"time": 2217, "pitch": 40, "duration": 3, "velocity": 60}, {"time": 2217, "pitch": 47, "duration": 2, "velocity": 72}, {"time": 2217, "pitch": 52, "duration": 2, "velocity": 81}, {"time": 2217, "pitch": 59, "duration": 2, "velocity": 82}, {"time": 2217, "pitch": 64, "duration": 2, "velocity": 97}, {"time": 2217, "pitch": 68, "duration": 2, "velocity": 92}, {"time": 2220, "pitch": 42, "duration": 16, "velocity": 95}, {"time": 2220, "pitch": 61, "duration": 7, "velocity": 96}, {"time": 2220, "pitch": 66, "duration": 8, "velocity": 96}, {"time": 2220, "pitch": 69, "duration": 7, "velocity": 65}, {"time": 2226, "pitch": 49, "duration": 9, "velocity": 41}, {"time": 2229, "pitch": 61, "duration": 2, "velocity": 63}, {"time": 2229, "pitch": 66, "duration": 2, "velocity": 69}, {"time": 2229, "pitch": 69, "duration": 1, "velocity": 56}, {"time": 2232, "pitch": 54, "duration": 3, "velocity": 63}, {"time": 2232, "pitch": 66, "duration": 3, "velocity": 122}, {"time": 2232, "pitch": 69, "duration": 3, "velocity": 97}, {"time": 2235, "pitch": 61, "duration": 2, "velocity": 117}, {"time": 2238, "pitch": 37, "duration": 23, "velocity": 90}, {"time": 2238, "pitch": 61, "duration": 13, "velocity": 93}, {"time": 2238, "pitch": 64, "duration": 12, "velocity": 93}, {"time": 2238, "pitch": 68, "duration": 13, "velocity": 112}, {"time": 2250, "pitch": 49, "duration": 8, "velocity": 86}, {"time": 2253, "pitch": 61, "duration": 3, "velocity": 88}, {"time": 2256, "pitch": 61, "duration": 1, "velocity": 38}, {"time": 2256, "pitch": 64, "duration": 6, "velocity": 85}, {"time": 2256, "pitch": 68, "duration": 7, "velocity": 112}, {"time": 2259, "pitch": 49, "duration": 4, "velocity": 79}, {"time": 2262, "pitch": 61, "duration": 2, "velocity": 107}, {"time": 2268, "pitch": 38, "duration": 13, "velocity": 78}, {"time": 2268, "pitch": 57, "duration": 12, "velocity": 76}, {"time": 2268, "pitch": 62, "duration": 10, "velocity": 88}, {"time": 2268, "pitch": 66, "duration": 11, "velocity": 88}, {"time": 2274, "pitch": 45, "duration": 8, "velocity": 52}, {"time": 2280, "pitch": 50, "duration": 1, "velocity": 66}, {"time": 2280, "pitch": 57, "duration": 1, "velocity": 40}, {"time": 2280, "pitch": 62, "duration": 1, "velocity": 75}, {"time": 2280, "pitch": 66, "duration": 1, "velocity": 62}, {"time": 2286, "pitch": 38, "duration": 10, "velocity": 51}, {"time": 2286, "pitch": 45, "duration": 11, "velocity": 54}, {"time": 2286, "pitch": 50, "duration": 12, "velocity": 72}, {"time": 2286, "pitch": 57, "duration": 8, "velocity": 86}, {"time": 2286, "pitch": 62, "duration": 8, "velocity": 89}, {"time": 2286, "pitch": 66, "duration": 8, "velocity": 86}, {"time": 2295, "pitch": 57, "duration": 3, "velocity": 56}, {"time": 2295, "pitch": 62, "duration": 2, "velocity": 67}, {"time": 2295, "pitch": 66, "duration": 3, "velocity": 71}, {"time": 2298, "pitch": 57, "duration": 2, "velocity": 66}, {"time": 2298, "pitch": 62, "duration": 2, "velocity": 77}, {"time": 2298, "pitch": 66, "duration": 2, "velocity": 78}, {"time": 2301, "pitch": 57, "duration": 2, "velocity": 66}, {"time": 2301, "pitch": 62, "duration": 2, "velocity": 86}, {"time": 2301, "pitch": 66, "duration": 1, "velocity": 66}, {"time": 2304, "pitch": 40, "duration": 12, "velocity": 69}, {"time": 2304, "pitch": 47, "duration": 12, "velocity": 68}, {"time": 2304, "pitch": 52, "duration": 12, "velocity": 72}, {"time": 2304, "pitch": 59, "duration": 11, "velocity": 83}, {"time": 2304, "pitch": 64, "duration": 11, "velocity": 86}, {"time": 2304, "pitch": 68, "duration": 12, "velocity": 92}, {"time": 2316, "pitch": 45, "duration": 23, "velocity": 69}, {"time": 2316, "pitch": 57, "duration": 12, "velocity": 78}, {"time": 2316, "pitch": 61, "duration": 11, "velocity": 85}, {"time": 2316, "pitch": 64, "duration": 11, "velocity": 74}, {"time": 2322, "pitch": 52, "duration": 7, "velocity": 70}, {"time": 2328, "pitch": 57, "duration": 1, "velocity": 34}, {"time": 2328, "pitch": 61, "duration": 8, "velocity": 88}, {"time": 2328, "pitch": 64, "duration": 11, "velocity": 75}, {"time": 2331, "pitch": 52, "duration": 10, "velocity": 51}, {"time": 2334, "pitch": 57, "duration": 5, "velocity": 55}, {"time": 2337, "pitch": 61, "duration": 2, "velocity": 29}, {"time": 2340, "pitch": 45, "duration": 14, "velocity": 58}, {"time": 2340, "pitch": 57, "duration": 11, "velocity": 58}, {"time": 2340, "pitch": 61, "duration": 11, "velocity": 63}, {"time": 2340, "pitch": 64, "duration": 11, "velocity": 62}, {"time": 2340, "pitch": 68, "duration": 10, "velocity": 54}, {"time": 2352, "pitch": 57, "duration": 1, "velocity": 35}, {"time": 2352, "pitch": 61, "duration": 8, "velocity": 83}, {"time": 2352, "pitch": 64, "duration": 8, "velocity": 70}, {"time": 2352, "pitch": 68, "duration": 6, "velocity": 66}, {"time": 2355, "pitch": 45, "duration": 2, "velocity": 53}, {"time": 2358, "pitch": 57, "duration": 4, "velocity": 67}, {"time": 2364, "pitch": 57, "duration": 16, "velocity": 69}, {"time": 2364, "pitch": 62, "duration": 13, "velocity": 78}, {"time": 2364, "pitch": 66, "duration": 13, "velocity": 78}, {"time": 2364, "pitch": 38, "duration": 17, "velocity": 69}, {"time": 2369, "pitch": 45, "duration": 12, "velocity": 33}, {"time": 2375, "pitch": 50, "duration": 5, "velocity": 63}, {"time": 2381, "pitch": 57, "duration": 17, "velocity": 69}, {"time": 2382, "pitch": 62, "duration": 17, "velocity": 70}, {"time": 2382, "pitch": 65, "duration": 15, "velocity": 62}, {"time": 2382, "pitch": 50, "duration": 16, "velocity": 65}, {"time": 2382, "pitch": 38, "duration": 13, "velocity": 52}, {"time": 2400, "pitch": 59, "duration": 17, "velocity": 58}, {"time": 2400, "pitch": 47, "duration": 16, "velocity": 36}, {"time": 2401, "pitch": 64, "duration": 16, "velocity": 56}, {"time": 2401, "pitch": 68, "duration": 16, "velocity": 61}, {"time": 2401, "pitch": 40, "duration": 15, "velocity": 39}, {"time": 2401, "pitch": 52, "duration": 14, "velocity": 50}, {"time": 2430, "pitch": 57, "duration": 35, "velocity": 58}, {"time": 2430, "pitch": 69, "duration": 47, "velocity": 71}, {"time": 2430, "pitch": 73, "duration": 47, "velocity": 50}, {"time": 2430, "pitch": 61, "duration": 35, "velocity": 61}, {"time": 2430, "pitch": 52, "duration": 35, "velocity": 52}, {"time": 2430, "pitch": 45, "duration": 36, "velocity": 51}, {"time": 2431, "pitch": 64, "duration": 34, "velocity": 70}, {"time": 2433, "pitch": 76, "duration": 46, "velocity": 69}], "annotations": [{"time": 13, "annotation": {"number": 64, "value": 127}, "group": "control_change"}, {"time": 14, "annotation": {"number": 64, "value": 0}, "group": "control_change"}, {"time": 16, "annotation": {"number": 64, "value": 127}, "group": "control_change"}, {"time": 34, "annotation": {"number": 64, "value": 0}, "group": "control_change"}, {"time": 36, "annotation": {"number": 64, "value": 127}, "group": "control_change"}, {"time": 58, "annotation": {"number": 64, "value": 0}, "group": "control_change"}, {"time": 60, "annotation": {"number": 64, "value": 127}, "group": "control_change"}, {"time": 104, "annotation": {"number": 64, "value": 0}, "group": "control_change"}, {"time": 108, "annotation": {"number": 64, "value": 127}, "group": "control_change"}, {"time": 131, "annotation": {"number": 64, "value": 0}, "group": "control_change"}, {"time": 132, "annotation": {"number": 64, "value": 127}, "group": "control_change"}, {"time": 154, "annotation": {"number": 64, "value": 0}, "group": "control_change"}, {"time": 156, "annotation": {"number": 64, "value": 127}, "group": "control_change"}, {"time": 162, "annotation": {"number": 64, "value": 0}, "group": "control_change"}, {"time": 180, "annotation": {"number": 64, "value": 127}, "group": "control_change"}, {"time": 190, "annotation": {"number": 64, "value": 0}, "group": "control_change"}, {"time": 205, "annotation": {"number": 64, "value": 127}, "group": "control_change"}, {"time": 226, "annotation": {"number": 64, "value": 0}, "group": "control_change"}, {"time": 238, "annotation": {"number": 64, "value": 127}, "group": "control_change"}, {"time": 250, "annotation": {"number": 64, "value": 0}, "group": "control_change"}, {"time": 253, "annotation": {"number": 64, "value": 127}, "group": "control_change"}, {"time": 274, "annotation": {"number": 64, "value": 0}, "group": "control_change"}, {"time": 277, "annotation": {"number": 64, "value": 127}, "group": "control_change"}, {"time": 299, "annotation": {"number": 64, "value": 0}, "group": "control_change"}, {"time": 301, "annotation": {"number": 64, "value": 127}, "group": "control_change"}, {"time": 322, "annotation": {"number": 64, "value": 0}, "group": "control_change"}, {"time": 325, "annotation": {"number": 64, "value": 127}, "group": "control_change"}, {"time": 346, "annotation": {"number": 64, "value": 0}, "group": "control_change"}, {"time": 349, "annotation": {"number": 64, "value": 127}, "group": "control_change"}, {"time": 369, "annotation": {"number": 64, "value": 0}, "group": "control_change"}, {"time": 373, "annotation": {"number": 64, "value": 127}, "group": "control_change"}, {"time": 393, "annotation": {"number": 64, "value": 0}, "group": "control_change"}, {"time": 397, "annotation": {"number": 64, "value": 127}, "group": "control_change"}, {"time": 417, "annotation": {"number": 64, "value": 0}, "group": "control_change"}, {"time": 420, "annotation": {"number": 64, "value": 127}, "group": "control_change"}, {"time": 443, "annotation": {"number": 64, "value": 0}, "group": "control_change"}, {"time": 444, "annotation": {"number": 64, "value": 127}, "group": "control_change"}, {"time": 467, "annotation": {"number": 64, "value": 0}, "group": "control_change"}, {"time": 468, "annotation": {"number": 64, "value": 127}, "group": "control_change"}, {"time": 490, "annotation": {"number": 64, "value": 0}, "group": "control_change"}, {"time": 492, "annotation": {"number": 64, "value": 127}, "group": "control_change"}, {"time": 512, "annotation": {"number": 64, "value": 0}, "group": "control_change"}, {"time": 517, "annotation": {"number": 64, "value": 127}, "group": "control_change"}, {"time": 536, "annotation": {"number": 64, "value": 0}, "group": "control_change"}, {"time": 540, "annotation": {"number": 64, "value": 127}, "group": "control_change"}, {"time": 561, "annotation": {"number": 64, "value": 0}, "group": "control_change"}, {"time": 564, "annotation": {"number": 64, "value": 127}, "group": "control_change"}, {"time": 580, "annotation": {"number": 64, "value": 0}, "group": "control_change"}, {"time": 588, "annotation": {"number": 64, "value": 127}, "group": "control_change"}, {"time": 608, "annotation": {"number": 64, "value": 0}, "group": "control_change"}, {"time": 612, "annotation": {"number": 64, "value": 127}, "group": "control_change"}, {"time": 634, "annotation": {"number": 64, "value": 0}, "group": "control_change"}, {"time": 636, "annotation": {"number": 64, "value": 127}, "group": "control_change"}, {"time": 658, "annotation": {"number": 64, "value": 0}, "group": "control_change"}, {"time": 660, "annotation": {"number": 64, "value": 127}, "group": "control_change"}, {"time": 682, "annotation": {"number": 64, "value": 0}, "group": "control_change"}, {"time": 683, "annotation": {"number": 64, "value": 127}, "group": "control_change"}, {"time": 706, "annotation": {"number": 64, "value": 0}, "group": "control_change"}, {"time": 708, "annotation": {"number": 64, "value": 127}, "group": "control_change"}, {"time": 730, "annotation": {"number": 64, "value": 0}, "group": "control_change"}, {"time": 732, "annotation": {"number": 64, "value": 127}, "group": "control_change"}, {"time": 754, "annotation": {"number": 64, "value": 0}, "group": "control_change"}, {"time": 756, "annotation": {"number": 64, "value": 127}, "group": "control_change"}, {"time": 777, "annotation": {"number": 64, "value": 0}, "group": "control_change"}, {"time": 780, "annotation": {"number": 64, "value": 127}, "group": "control_change"}, {"time": 802, "annotation": {"number": 64, "value": 0}, "group": "control_change"}, {"time": 804, "annotation": {"number": 64, "value": 127}, "group": "control_change"}, {"time": 827, "annotation": {"number": 64, "value": 0}, "group": "control_change"}, {"time": 828, "annotation": {"number": 64, "value": 127}, "group": "control_change"}, {"time": 850, "annotation": {"number": 64, "value": 0}, "group": "control_change"}, {"time": 852, "annotation": {"number": 64, "value": 127}, "group": "control_change"}, {"time": 874, "annotation": {"number": 64, "value": 0}, "group": "control_change"}, {"time": 876, "annotation": {"number": 64, "value": 127}, "group": "control_change"}, {"time": 899, "annotation": {"number": 64, "value": 0}, "group": "control_change"}, {"time": 900, "annotation": {"number": 64, "value": 127}, "group": "control_change"}, {"time": 922, "annotation": {"number": 64, "value": 0}, "group": "control_change"}, {"time": 924, "annotation": {"number": 64, "value": 127}, "group": "control_change"}, {"time": 944, "annotation": {"number": 64, "value": 0}, "group": "control_change"}, {"time": 948, "annotation": {"number": 64, "value": 127}, "group": "control_change"}, {"time": 968, "annotation": {"number": 64, "value": 0}, "group": "control_change"}, {"time": 972, "annotation": {"number": 64, "value": 127}, "group": "control_change"}, {"time": 993, "annotation": {"number": 64, "value": 0}, "group": "control_change"}, {"time": 996, "annotation": {"number": 64, "value": 127}, "group": "control_change"}, {"time": 1018, "annotation": {"number": 64, "value": 0}, "group": "control_change"}, {"time": 1020, "annotation": {"number": 64, "value": 127}, "group": "control_change"}, {"time": 1039, "annotation": {"number": 64, "value": 0}, "group": "control_change"}, {"time": 1049, "annotation": {"number": 64, "value": 127}, "group": "control_change"}, {"time": 1066, "annotation": {"number": 64, "value": 0}, "group": "control_change"}, {"time": 1068, "annotation": {"number": 64, "value": 127}, "group": "control_change"}, {"time": 1088, "annotation": {"number": 64, "value": 0}, "group": "control_change"}, {"time": 1092, "annotation": {"number": 64, "value": 127}, "group": "control_change"}, {"time": 1114, "annotation": {"number": 64, "value": 0}, "group": "control_change"}, {"time": 1116, "annotation": {"number": 64, "value": 127}, "group": "control_change"}, {"time": 1138, "annotation": {"number": 64, "value": 0}, "group": "control_change"}, {"time": 1140, "annotation": {"number": 64, "value": 127}, "group": "control_change"}, {"time": 1162, "annotation": {"number": 64, "value": 0}, "group": "control_change"}, {"time": 1164, "annotation": {"number": 64, "value": 127}, "group": "control_change"}, {"time": 1186, "annotation": {"number": 64, "value": 0}, "group": "control_change"}, {"time": 1188, "annotation": {"number": 64, "value": 127}, "group": "control_change"}, {"time": 1209, "annotation": {"number": 64, "value": 0}, "group": "control_change"}, {"time": 1213, "annotation": {"number": 64, "value": 127}, "group": "control_change"}, {"time": 1233, "annotation": {"number": 64, "value": 0}, "group": "control_change"}, {"time": 1236, "annotation": {"number": 64, "value": 127}, "group": "control_change"}, {"time": 1259, "annotation": {"number": 64, "value": 0}, "group": "control_change"}, {"time": 1260, "annotation": {"number": 64, "value": 127}, "group": "control_change"}, {"time": 1283, "annotation": {"number": 64, "value": 0}, "group": "control_change"}, {"time": 1284, "annotation": {"number": 64, "value": 127}, "group": "control_change"}, {"time": 1306, "annotation": {"number": 64, "value": 0}, "group": "control_change"}, {"time": 1308, "annotation": {"number": 64, "value": 127}, "group": "control_change"}, {"time": 1328, "annotation": {"number": 64, "value": 0}, "group": "control_change"}, {"time": 1333, "annotation": {"number": 64, "value": 127}, "group": "control_change"}, {"time": 1352, "annotation": {"number": 64, "value": 0}, "group": "control_change"}, {"time": 1356, "annotation": {"number": 64, "value": 127}, "group": "control_change"}, {"time": 1377, "annotation": {"number": 64, "value": 0}, "group": "control_change"}, {"time": 1380, "annotation": {"number": 64, "value": 127}, "group": "control_change"}, {"time": 1396, "annotation": {"number": 64, "value": 0}, "group": "control_change"}, {"time": 1404, "annotation": {"number": 64, "value": 127}, "group": "control_change"}, {"time": 1424, "annotation": {"number": 64, "value": 0}, "group": "control_change"}, {"time": 1428, "annotation": {"number": 64, "value": 127}, "group": "control_change"}, {"time": 1450, "annotation": {"number": 64, "value": 0}, "group": "control_change"}, {"time": 1452, "annotation": {"number": 64, "value": 127}, "group": "control_change"}, {"time": 1474, "annotation": {"number": 64, "value": 0}, "group": "control_change"}, {"time": 1476, "annotation": {"number": 64, "value": 127}, "group": "control_change"}, {"time": 1498, "annotation": {"number": 64, "value": 0}, "group": "control_change"}, {"time": 1499, "annotation": {"number": 64, "value": 127}, "group": "control_change"}, {"time": 1522, "annotation": {"number": 64, "value": 0}, "group": "control_change"}, {"time": 1524, "annotation": {"number": 64, "value": 127}, "group": "control_change"}, {"time": 1546, "annotation": {"number": 64, "value": 0}, "group": "control_change"}, {"time": 1548, "annotation": {"number": 64, "value": 127}, "group": "control_change"}, {"time": 1570, "annotation": {"number": 64, "value": 0}, "group": "control_change"}, {"time": 1572, "annotation": {"number": 64, "value": 127}, "group": "control_change"}, {"time": 1593, "annotation": {"number": 64, "value": 0}, "group": "control_change"}, {"time": 1596, "annotation": {"number": 64, "value": 127}, "group": "control_change"}, {"time": 1618, "annotation": {"number": 64, "value": 0}, "group": "control_change"}, {"time": 1620, "annotation": {"number": 64, "value": 127}, "group": "control_change"}, {"time": 1643, "annotation": {"number": 64, "value": 0}, "group": "control_change"}, {"time": 1644, "annotation": {"number": 64, "value": 127}, "group": "control_change"}, {"time": 1666, "annotation": {"number": 64, "value": 0}, "group": "control_change"}, {"time": 1668, "annotation": {"number": 64, "value": 127}, "group": "control_change"}, {"time": 1690, "annotation": {"number": 64, "value": 0}, "group": "control_change"}, {"time": 1692, "annotation": {"number": 64, "value": 127}, "group": "control_change"}, {"time": 1715, "annotation": {"number": 64, "value": 0}, "group": "control_change"}, {"time": 1716, "annotation": {"number": 64, "value": 127}, "group": "control_change"}, {"time": 1738, "annotation": {"number": 64, "value": 0}, "group": "control_change"}, {"time": 1740, "annotation": {"number": 64, "value": 127}, "group": "control_change"}, {"time": 1760, "annotation": {"number": 64, "value": 0}, "group": "control_change"}, {"time": 1764, "annotation": {"number": 64, "value": 127}, "group": "control_change"}, {"time": 1784, "annotation": {"number": 64, "value": 0}, "group": "control_change"}, {"time": 1789, "annotation": {"number": 64, "value": 127}, "group": "control_change"}, {"time": 1810, "annotation": {"number": 64, "value": 0}, "group": "control_change"}, {"time": 1811, "annotation": {"number": 64, "value": 127}, "group": "control_change"}, {"time": 1833, "annotation": {"number": 64, "value": 0}, "group": "control_change"}, {"time": 1836, "annotation": {"number": 64, "value": 127}, "group": "control_change"}, {"time": 1858, "annotation": {"number": 64, "value": 0}, "group": "control_change"}, {"time": 1860, "annotation": {"number": 64, "value": 127}, "group": "control_change"}, {"time": 1881, "annotation": {"number": 64, "value": 0}, "group": "control_change"}, {"time": 1884, "annotation": {"number": 64, "value": 127}, "group": "control_change"}, {"time": 1905, "annotation": {"number": 64, "value": 0}, "group": "control_change"}, {"time": 1909, "annotation": {"number": 64, "value": 127}, "group": "control_change"}, {"time": 1926, "annotation": {"number": 64, "value": 0}, "group": "control_change"}, {"time": 1932, "annotation": {"number": 64, "value": 127}, "group": "control_change"}, {"time": 1955, "annotation": {"number": 64, "value": 0}, "group": "control_change"}, {"time": 1956, "annotation": {"number": 64, "value": 127}, "group": "control_change"}, {"time": 1979, "annotation": {"number": 64, "value": 0}, "group": "control_change"}, {"time": 1980, "annotation": {"number": 64, "value": 127}, "group": "control_change"}, {"time": 2001, "annotation": {"number": 64, "value": 0}, "group": "control_change"}, {"time": 2004, "annotation": {"number": 64, "value": 127}, "group": "control_change"}, {"time": 2019, "annotation": {"number": 64, "value": 0}, "group": "control_change"}, {"time": 2029, "annotation": {"number": 64, "value": 127}, "group": "control_change"}, {"time": 2050, "annotation": {"number": 64, "value": 0}, "group": "control_change"}, {"time": 2052, "annotation": {"number": 64, "value": 127}, "group": "control_change"}, {"time": 2075, "annotation": {"number": 64, "value": 0}, "group": "control_change"}, {"time": 2076, "annotation": {"number": 64, "value": 127}, "group": "control_change"}, {"time": 2098, "annotation": {"number": 64, "value": 0}, "group": "control_change"}, {"time": 2100, "annotation": {"number": 64, "value": 127}, "group": "control_change"}, {"time": 2122, "annotation": {"number": 64, "value": 0}, "group": "control_change"}, {"time": 2124, "annotation": {"number": 64, "value": 127}, "group": "control_change"}, {"time": 2146, "annotation": {"number": 64, "value": 0}, "group": "control_change"}, {"time": 2148, "annotation": {"number": 64, "value": 127}, "group": "control_change"}, {"time": 2171, "annotation": {"number": 64, "value": 0}, "group": "control_change"}, {"time": 2172, "annotation": {"number": 64, "value": 127}, "group": "control_change"}, {"time": 2194, "annotation": {"number": 64, "value": 0}, "group": "control_change"}, {"time": 2196, "annotation": {"number": 64, "value": 127}, "group": "control_change"}, {"time": 2202, "annotation": {"number": 64, "value": 0}, "group": "control_change"}, {"time": 2221, "annotation": {"number": 64, "value": 127}, "group": "control_change"}, {"time": 2237, "annotation": {"number": 64, "value": 0}, "group": "control_change"}, {"time": 2245, "annotation": {"number": 64, "value": 127}, "group": "control_change"}, {"time": 2266, "annotation": {"number": 64, "value": 0}, "group": "control_change"}, {"time": 2268, "annotation": {"number": 64, "value": 127}, "group": "control_change"}, {"time": 2276, "annotation": {"number": 64, "value": 0}, "group": "control_change"}, {"time": 2292, "annotation": {"number": 64, "value": 127}, "group": "control_change"}, {"time": 2302, "annotation": {"number": 64, "value": 0}, "group": "control_change"}, {"time": 2316, "annotation": {"number": 64, "value": 127}, "group": "control_change"}, {"time": 2335, "annotation": {"number": 64, "value": 0}, "group": "control_change"}, {"time": 2340, "annotation": {"number": 64, "value": 127}, "group": "control_change"}, {"time": 2360, "annotation": {"number": 64, "value": 0}, "group": "control_change"}, {"time": 2364, "annotation": {"number": 64, "value": 127}, "group": "control_change"}, {"time": 2381, "annotation": {"number": 64, "value": 0}, "group": "control_change"}, {"time": 2409, "annotation": {"number": 64, "value": 127}, "group": "control_change"}, {"time": 2486, "annotation": {"number": 64, "value": 0}, "group": "control_change"}, {"time": 2487, "annotation": {"number": 64, "value": 127}, "group": "control_change"}, {"time": 2488, "annotation": {"number": 64, "value": 0}, "group": "control_change"}, {"time": 2489, "annotation": {"number": 64, "value": 127}, "group": "control_change"}]}]}