{"metadata": {"schema_version": "0.2", "title": "None", "source_filename": "479.mid", "source_format": "midi"}, "resolution": 12, "tempos": [{"time": 0, "qpm": 69.00009660013524}], "time_signatures": [{"time": 0, "numerator": 1, "denominator": 4}], "tracks": [{"program": 4, "is_drum": false, "name": "MELODY", "notes": [{"time": 133, "pitch": 63, "duration": 3, "velocity": 73}, {"time": 136, "pitch": 68, "duration": 2, "velocity": 79}, {"time": 139, "pitch": 71, "duration": 4, "velocity": 67}, {"time": 142, "pitch": 70, "duration": 8, "velocity": 86}, {"time": 151, "pitch": 66, "duration": 9, "velocity": 89}, {"time": 160, "pitch": 63, "duration": 6, "velocity": 79}, {"time": 166, "pitch": 68, "duration": 10, "velocity": 67}, {"time": 172, "pitch": 63, "duration": 5, "velocity": 89}, {"time": 178, "pitch": 63, "duration": 25, "velocity": 88}, {"time": 229, "pitch": 63, "duration": 3, "velocity": 72}, {"time": 232, "pitch": 68, "duration": 3, "velocity": 60}, {"time": 235, "pitch": 71, "duration": 4, "velocity": 72}, {"time": 238, "pitch": 70, "duration": 8, "velocity": 99}, {"time": 247, "pitch": 66, "duration": 7, "velocity": 90}, {"time": 256, "pitch": 63, "duration": 13, "velocity": 92}, {"time": 268, "pitch": 68, "duration": 22, "velocity": 86}, {"time": 325, "pitch": 63, "duration": 4, "velocity": 69}, {"time": 328, "pitch": 68, "duration": 3, "velocity": 56}, {"time": 331, "pitch": 71, "duration": 4, "velocity": 66}, {"time": 334, "pitch": 70, "duration": 11, "velocity": 96}, {"time": 343, "pitch": 75, "duration": 9, "velocity": 97}, {"time": 352, "pitch": 70, "duration": 7, "velocity": 86}, {"time": 358, "pitch": 68, "duration": 12, "velocity": 75}, {"time": 367, "pitch": 73, "duration": 7, "velocity": 97}, {"time": 376, "pitch": 68, "duration": 7, "velocity": 92}, {"time": 382, "pitch": 66, "duration": 13, "velocity": 82}, {"time": 403, "pitch": 63, "duration": 3, "velocity": 90}, {"time": 406, "pitch": 64, "duration": 7, "velocity": 76}, {"time": 412, "pitch": 66, "duration": 4, "velocity": 66}, {"time": 415, "pitch": 68, "duration": 21, "velocity": 86}, {"time": 448, "pitch": 63, "duration": 9, "velocity": 79}, {"time": 460, "pitch": 63, "duration": 29, "velocity": 82}, {"time": 517, "pitch": 63, "duration": 3, "velocity": 73}, {"time": 520, "pitch": 68, "duration": 2, "velocity": 79}, {"time": 523, "pitch": 71, "duration": 4, "velocity": 67}, {"time": 526, "pitch": 70, "duration": 8, "velocity": 86}, {"time": 535, "pitch": 66, "duration": 9, "velocity": 89}, {"time": 544, "pitch": 63, "duration": 6, "velocity": 79}, {"time": 550, "pitch": 68, "duration": 10, "velocity": 67}, {"time": 556, "pitch": 63, "duration": 5, "velocity": 89}, {"time": 562, "pitch": 63, "duration": 25, "velocity": 88}, {"time": 613, "pitch": 63, "duration": 3, "velocity": 72}, {"time": 616, "pitch": 68, "duration": 3, "velocity": 60}, {"time": 619, "pitch": 71, "duration": 4, "velocity": 72}, {"time": 622, "pitch": 70, "duration": 8, "velocity": 99}, {"time": 631, "pitch": 66, "duration": 7, "velocity": 90}, {"time": 640, "pitch": 70, "duration": 9, "velocity": 92}, {"time": 652, "pitch": 68, "duration": 18, "velocity": 97}, {"time": 709, "pitch": 63, "duration": 4, "velocity": 69}, {"time": 712, "pitch": 68, "duration": 3, "velocity": 56}, {"time": 715, "pitch": 71, "duration": 4, "velocity": 66}, {"time": 718, "pitch": 70, "duration": 11, "velocity": 96}, {"time": 727, "pitch": 75, "duration": 9, "velocity": 97}, {"time": 736, "pitch": 70, "duration": 7, "velocity": 86}, {"time": 742, "pitch": 68, "duration": 5, "velocity": 75}, {"time": 748, "pitch": 66, "duration": 3, "velocity": 93}, {"time": 751, "pitch": 68, "duration": 4, "velocity": 90}, {"time": 757, "pitch": 71, "duration": 6, "velocity": 96}, {"time": 766, "pitch": 66, "duration": 13, "velocity": 82}, {"time": 787, "pitch": 63, "duration": 3, "velocity": 90}, {"time": 790, "pitch": 64, "duration": 7, "velocity": 76}, {"time": 796, "pitch": 66, "duration": 4, "velocity": 66}, {"time": 799, "pitch": 68, "duration": 21, "velocity": 86}, {"time": 835, "pitch": 63, "duration": 3, "velocity": 78}, {"time": 838, "pitch": 67, "duration": 1, "velocity": 76}, {"time": 841, "pitch": 67, "duration": 1, "velocity": 70}, {"time": 844, "pitch": 67, "duration": 1, "velocity": 72}, {"time": 847, "pitch": 68, "duration": 4, "velocity": 127}, {"time": 853, "pitch": 70, "duration": 3, "velocity": 122}, {"time": 859, "pitch": 68, "duration": 2, "velocity": 90}, {"time": 862, "pitch": 75, "duration": 5, "velocity": 100}, {"time": 868, "pitch": 73, "duration": 5, "velocity": 102}, {"time": 874, "pitch": 71, "duration": 4, "velocity": 96}, {"time": 880, "pitch": 73, "duration": 4, "velocity": 117}, {"time": 886, "pitch": 75, "duration": 5, "velocity": 122}, {"time": 892, "pitch": 68, "duration": 5, "velocity": 95}, {"time": 898, "pitch": 75, "duration": 4, "velocity": 112}, {"time": 904, "pitch": 68, "duration": 4, "velocity": 99}, {"time": 910, "pitch": 75, "duration": 4, "velocity": 127}, {"time": 916, "pitch": 76, "duration": 2, "velocity": 96}, {"time": 919, "pitch": 76, "duration": 4, "velocity": 95}, {"time": 928, "pitch": 76, "duration": 3, "velocity": 88}, {"time": 931, "pitch": 75, "duration": 4, "velocity": 85}, {"time": 934, "pitch": 73, "duration": 4, "velocity": 100}, {"time": 940, "pitch": 66, "duration": 5, "velocity": 99}, {"time": 946, "pitch": 73, "duration": 3, "velocity": 117}, {"time": 952, "pitch": 66, "duration": 4, "velocity": 102}, {"time": 958, "pitch": 73, "duration": 5, "velocity": 122}, {"time": 964, "pitch": 75, "duration": 2, "velocity": 112}, {"time": 967, "pitch": 75, "duration": 5, "velocity": 112}, {"time": 976, "pitch": 75, "duration": 2, "velocity": 117}, {"time": 979, "pitch": 73, "duration": 3, "velocity": 107}, {"time": 982, "pitch": 71, "duration": 3, "velocity": 100}, {"time": 988, "pitch": 64, "duration": 5, "velocity": 99}, {"time": 994, "pitch": 71, "duration": 3, "velocity": 122}, {"time": 1000, "pitch": 64, "duration": 5, "velocity": 100}, {"time": 1006, "pitch": 73, "duration": 4, "velocity": 127}, {"time": 1012, "pitch": 71, "duration": 2, "velocity": 92}, {"time": 1015, "pitch": 70, "duration": 6, "velocity": 96}, {"time": 1021, "pitch": 71, "duration": 3, "velocity": 102}, {"time": 1030, "pitch": 70, "duration": 1, "velocity": 122}, {"time": 1033, "pitch": 70, "duration": 1, "velocity": 95}, {"time": 1036, "pitch": 70, "duration": 2, "velocity": 112}, {"time": 1039, "pitch": 68, "duration": 4, "velocity": 102}, {"time": 1045, "pitch": 70, "duration": 4, "velocity": 117}, {"time": 1051, "pitch": 63, "duration": 2, "velocity": 99}, {"time": 1054, "pitch": 70, "duration": 1, "velocity": 112}, {"time": 1057, "pitch": 70, "duration": 1, "velocity": 96}, {"time": 1060, "pitch": 70, "duration": 2, "velocity": 102}, {"time": 1063, "pitch": 71, "duration": 3, "velocity": 100}, {"time": 1069, "pitch": 73, "duration": 2, "velocity": 127}, {"time": 1078, "pitch": 75, "duration": 1, "velocity": 122}, {"time": 1081, "pitch": 75, "duration": 1, "velocity": 82}, {"time": 1084, "pitch": 75, "duration": 1, "velocity": 102}, {"time": 1087, "pitch": 75, "duration": 1, "velocity": 107}, {"time": 1090, "pitch": 75, "duration": 3, "velocity": 107}, {"time": 1096, "pitch": 68, "duration": 4, "velocity": 107}, {"time": 1102, "pitch": 75, "duration": 3, "velocity": 127}, {"time": 1108, "pitch": 76, "duration": 2, "velocity": 95}, {"time": 1111, "pitch": 76, "duration": 3, "velocity": 96}, {"time": 1120, "pitch": 76, "duration": 3, "velocity": 102}, {"time": 1123, "pitch": 75, "duration": 3, "velocity": 95}, {"time": 1126, "pitch": 73, "duration": 3, "velocity": 100}, {"time": 1132, "pitch": 73, "duration": 2, "velocity": 127}, {"time": 1135, "pitch": 73, "duration": 3, "velocity": 112}, {"time": 1141, "pitch": 78, "duration": 7, "velocity": 112}, {"time": 1150, "pitch": 76, "duration": 5, "velocity": 112}, {"time": 1156, "pitch": 75, "duration": 3, "velocity": 100}, {"time": 1162, "pitch": 73, "duration": 6, "velocity": 112}, {"time": 1168, "pitch": 75, "duration": 5, "velocity": 99}, {"time": 1174, "pitch": 71, "duration": 5, "velocity": 97}, {"time": 1180, "pitch": 70, "duration": 4, "velocity": 100}, {"time": 1183, "pitch": 71, "duration": 3, "velocity": 86}, {"time": 1189, "pitch": 64, "duration": 6, "velocity": 97}, {"time": 1207, "pitch": 64, "duration": 1, "velocity": 96}, {"time": 1210, "pitch": 64, "duration": 2, "velocity": 89}, {"time": 1213, "pitch": 68, "duration": 3, "velocity": 100}, {"time": 1216, "pitch": 71, "duration": 3, "velocity": 82}, {"time": 1219, "pitch": 73, "duration": 3, "velocity": 99}, {"time": 1222, "pitch": 70, "duration": 4, "velocity": 112}, {"time": 1228, "pitch": 70, "duration": 2, "velocity": 112}, {"time": 1231, "pitch": 68, "duration": 4, "velocity": 97}, {"time": 1237, "pitch": 67, "duration": 27, "velocity": 96}, {"time": 1501, "pitch": 63, "duration": 3, "velocity": 73}, {"time": 1504, "pitch": 68, "duration": 2, "velocity": 79}, {"time": 1507, "pitch": 71, "duration": 4, "velocity": 67}, {"time": 1510, "pitch": 70, "duration": 8, "velocity": 86}, {"time": 1519, "pitch": 66, "duration": 9, "velocity": 89}, {"time": 1528, "pitch": 63, "duration": 6, "velocity": 79}, {"time": 1534, "pitch": 68, "duration": 10, "velocity": 67}, {"time": 1540, "pitch": 63, "duration": 5, "velocity": 89}, {"time": 1546, "pitch": 63, "duration": 25, "velocity": 88}, {"time": 1597, "pitch": 63, "duration": 3, "velocity": 72}, {"time": 1600, "pitch": 68, "duration": 3, "velocity": 60}, {"time": 1603, "pitch": 71, "duration": 4, "velocity": 72}, {"time": 1606, "pitch": 70, "duration": 8, "velocity": 99}, {"time": 1615, "pitch": 66, "duration": 7, "velocity": 90}, {"time": 1624, "pitch": 70, "duration": 9, "velocity": 92}, {"time": 1636, "pitch": 68, "duration": 18, "velocity": 97}, {"time": 1693, "pitch": 63, "duration": 4, "velocity": 69}, {"time": 1696, "pitch": 68, "duration": 3, "velocity": 56}, {"time": 1699, "pitch": 71, "duration": 4, "velocity": 66}, {"time": 1702, "pitch": 70, "duration": 11, "velocity": 96}, {"time": 1711, "pitch": 75, "duration": 9, "velocity": 97}, {"time": 1720, "pitch": 70, "duration": 7, "velocity": 86}, {"time": 1726, "pitch": 68, "duration": 5, "velocity": 75}, {"time": 1732, "pitch": 66, "duration": 3, "velocity": 93}, {"time": 1735, "pitch": 68, "duration": 4, "velocity": 90}, {"time": 1741, "pitch": 71, "duration": 6, "velocity": 96}, {"time": 1750, "pitch": 66, "duration": 13, "velocity": 82}, {"time": 1771, "pitch": 63, "duration": 3, "velocity": 90}, {"time": 1774, "pitch": 64, "duration": 7, "velocity": 76}, {"time": 1780, "pitch": 66, "duration": 4, "velocity": 66}, {"time": 1783, "pitch": 68, "duration": 21, "velocity": 86}, {"time": 1819, "pitch": 63, "duration": 3, "velocity": 78}, {"time": 1822, "pitch": 67, "duration": 1, "velocity": 76}, {"time": 1825, "pitch": 67, "duration": 1, "velocity": 70}, {"time": 1828, "pitch": 67, "duration": 1, "velocity": 72}, {"time": 1831, "pitch": 68, "duration": 4, "velocity": 127}, {"time": 1837, "pitch": 70, "duration": 3, "velocity": 122}, {"time": 1843, "pitch": 68, "duration": 2, "velocity": 90}, {"time": 1846, "pitch": 75, "duration": 5, "velocity": 100}, {"time": 1852, "pitch": 73, "duration": 5, "velocity": 102}, {"time": 1858, "pitch": 71, "duration": 4, "velocity": 96}, {"time": 1864, "pitch": 73, "duration": 4, "velocity": 117}, {"time": 1870, "pitch": 75, "duration": 5, "velocity": 122}, {"time": 1876, "pitch": 68, "duration": 5, "velocity": 95}, {"time": 1882, "pitch": 75, "duration": 4, "velocity": 112}, {"time": 1888, "pitch": 68, "duration": 4, "velocity": 99}, {"time": 1894, "pitch": 75, "duration": 4, "velocity": 127}, {"time": 1900, "pitch": 76, "duration": 2, "velocity": 96}, {"time": 1903, "pitch": 76, "duration": 4, "velocity": 95}, {"time": 1912, "pitch": 76, "duration": 3, "velocity": 88}, {"time": 1915, "pitch": 75, "duration": 4, "velocity": 85}, {"time": 1918, "pitch": 73, "duration": 4, "velocity": 100}, {"time": 1924, "pitch": 66, "duration": 5, "velocity": 99}, {"time": 1930, "pitch": 73, "duration": 3, "velocity": 117}, {"time": 1936, "pitch": 66, "duration": 4, "velocity": 102}, {"time": 1942, "pitch": 73, "duration": 5, "velocity": 122}, {"time": 1948, "pitch": 75, "duration": 2, "velocity": 112}, {"time": 1951, "pitch": 75, "duration": 5, "velocity": 112}, {"time": 1960, "pitch": 75, "duration": 2, "velocity": 117}, {"time": 1963, "pitch": 73, "duration": 3, "velocity": 107}, {"time": 1966, "pitch": 71, "duration": 3, "velocity": 100}, {"time": 1972, "pitch": 64, "duration": 5, "velocity": 99}, {"time": 1978, "pitch": 71, "duration": 3, "velocity": 122}, {"time": 1984, "pitch": 64, "duration": 5, "velocity": 100}, {"time": 1990, "pitch": 73, "duration": 4, "velocity": 127}, {"time": 1996, "pitch": 71, "duration": 2, "velocity": 92}, {"time": 1999, "pitch": 70, "duration": 6, "velocity": 96}, {"time": 2005, "pitch": 71, "duration": 3, "velocity": 102}, {"time": 2014, "pitch": 70, "duration": 1, "velocity": 122}, {"time": 2017, "pitch": 70, "duration": 1, "velocity": 95}, {"time": 2020, "pitch": 70, "duration": 2, "velocity": 112}, {"time": 2023, "pitch": 68, "duration": 4, "velocity": 102}, {"time": 2029, "pitch": 70, "duration": 4, "velocity": 117}, {"time": 2035, "pitch": 63, "duration": 2, "velocity": 99}, {"time": 2038, "pitch": 70, "duration": 1, "velocity": 112}, {"time": 2041, "pitch": 70, "duration": 1, "velocity": 96}, {"time": 2044, "pitch": 70, "duration": 2, "velocity": 102}, {"time": 2047, "pitch": 71, "duration": 3, "velocity": 100}, {"time": 2053, "pitch": 73, "duration": 2, "velocity": 127}, {"time": 2062, "pitch": 75, "duration": 1, "velocity": 122}, {"time": 2065, "pitch": 75, "duration": 1, "velocity": 82}, {"time": 2068, "pitch": 75, "duration": 1, "velocity": 102}, {"time": 2071, "pitch": 75, "duration": 1, "velocity": 107}, {"time": 2074, "pitch": 75, "duration": 3, "velocity": 107}, {"time": 2080, "pitch": 68, "duration": 4, "velocity": 107}, {"time": 2086, "pitch": 75, "duration": 3, "velocity": 127}, {"time": 2092, "pitch": 76, "duration": 2, "velocity": 95}, {"time": 2095, "pitch": 76, "duration": 3, "velocity": 96}, {"time": 2104, "pitch": 76, "duration": 3, "velocity": 102}, {"time": 2107, "pitch": 75, "duration": 3, "velocity": 95}, {"time": 2110, "pitch": 73, "duration": 3, "velocity": 100}, {"time": 2116, "pitch": 73, "duration": 2, "velocity": 127}, {"time": 2119, "pitch": 73, "duration": 3, "velocity": 112}, {"time": 2125, "pitch": 78, "duration": 7, "velocity": 112}, {"time": 2134, "pitch": 76, "duration": 5, "velocity": 112}, {"time": 2140, "pitch": 75, "duration": 3, "velocity": 100}, {"time": 2146, "pitch": 73, "duration": 6, "velocity": 112}, {"time": 2152, "pitch": 75, "duration": 5, "velocity": 99}, {"time": 2158, "pitch": 71, "duration": 5, "velocity": 97}, {"time": 2164, "pitch": 70, "duration": 4, "velocity": 100}, {"time": 2167, "pitch": 71, "duration": 3, "velocity": 86}, {"time": 2173, "pitch": 64, "duration": 6, "velocity": 97}, {"time": 2191, "pitch": 64, "duration": 1, "velocity": 96}, {"time": 2194, "pitch": 64, "duration": 2, "velocity": 89}, {"time": 2197, "pitch": 68, "duration": 3, "velocity": 100}, {"time": 2200, "pitch": 71, "duration": 3, "velocity": 82}, {"time": 2203, "pitch": 73, "duration": 3, "velocity": 99}, {"time": 2206, "pitch": 70, "duration": 4, "velocity": 112}, {"time": 2212, "pitch": 70, "duration": 2, "velocity": 112}, {"time": 2215, "pitch": 68, "duration": 4, "velocity": 97}, {"time": 2221, "pitch": 67, "duration": 27, "velocity": 96}, {"time": 2254, "pitch": 80, "duration": 4, "velocity": 112}, {"time": 2260, "pitch": 75, "duration": 2, "velocity": 99}, {"time": 2263, "pitch": 73, "duration": 4, "velocity": 99}, {"time": 2269, "pitch": 71, "duration": 4, "velocity": 97}, {"time": 2278, "pitch": 70, "duration": 1, "velocity": 112}, {"time": 2281, "pitch": 70, "duration": 1, "velocity": 99}, {"time": 2284, "pitch": 70, "duration": 1, "velocity": 99}, {"time": 2287, "pitch": 71, "duration": 2, "velocity": 107}, {"time": 2293, "pitch": 73, "duration": 3, "velocity": 112}, {"time": 2302, "pitch": 80, "duration": 4, "velocity": 99}, {"time": 2308, "pitch": 75, "duration": 3, "velocity": 99}, {"time": 2311, "pitch": 73, "duration": 4, "velocity": 89}, {"time": 2317, "pitch": 71, "duration": 4, "velocity": 86}, {"time": 2326, "pitch": 80, "duration": 3, "velocity": 122}, {"time": 2332, "pitch": 75, "duration": 2, "velocity": 107}, {"time": 2335, "pitch": 73, "duration": 4, "velocity": 96}, {"time": 2341, "pitch": 71, "duration": 2, "velocity": 96}, {"time": 2344, "pitch": 73, "duration": 3, "velocity": 117}, {"time": 2350, "pitch": 80, "duration": 3, "velocity": 107}, {"time": 2356, "pitch": 75, "duration": 1, "velocity": 112}, {"time": 2359, "pitch": 73, "duration": 3, "velocity": 107}, {"time": 2365, "pitch": 71, "duration": 4, "velocity": 95}, {"time": 2374, "pitch": 70, "duration": 1, "velocity": 112}, {"time": 2377, "pitch": 70, "duration": 1, "velocity": 89}, {"time": 2380, "pitch": 70, "duration": 2, "velocity": 112}, {"time": 2383, "pitch": 71, "duration": 3, "velocity": 102}, {"time": 2389, "pitch": 73, "duration": 4, "velocity": 117}, {"time": 2398, "pitch": 80, "duration": 3, "velocity": 112}, {"time": 2404, "pitch": 75, "duration": 2, "velocity": 97}, {"time": 2407, "pitch": 73, "duration": 4, "velocity": 96}, {"time": 2413, "pitch": 71, "duration": 8, "velocity": 96}, {"time": 2422, "pitch": 70, "duration": 11, "velocity": 99}, {"time": 2434, "pitch": 71, "duration": 6, "velocity": 112}, {"time": 2440, "pitch": 73, "duration": 4, "velocity": 127}, {"time": 2446, "pitch": 75, "duration": 1, "velocity": 127}, {"time": 2449, "pitch": 75, "duration": 1, "velocity": 107}, {"time": 2452, "pitch": 75, "duration": 1, "velocity": 127}, {"time": 2455, "pitch": 75, "duration": 1, "velocity": 117}, {"time": 2458, "pitch": 75, "duration": 3, "velocity": 127}, {"time": 2464, "pitch": 76, "duration": 3, "velocity": 117}, {"time": 2470, "pitch": 78, "duration": 4, "velocity": 127}, {"time": 2476, "pitch": 73, "duration": 1, "velocity": 102}, {"time": 2479, "pitch": 73, "duration": 3, "velocity": 127}, {"time": 2488, "pitch": 78, "duration": 3, "velocity": 127}, {"time": 2494, "pitch": 76, "duration": 3, "velocity": 112}, {"time": 2500, "pitch": 75, "duration": 2, "velocity": 127}, {"time": 2503, "pitch": 71, "duration": 3, "velocity": 95}, {"time": 2509, "pitch": 76, "duration": 7, "velocity": 127}, {"time": 2518, "pitch": 75, "duration": 6, "velocity": 127}, {"time": 2530, "pitch": 71, "duration": 4, "velocity": 112}, {"time": 2536, "pitch": 73, "duration": 4, "velocity": 122}, {"time": 2542, "pitch": 75, "duration": 1, "velocity": 122}, {"time": 2545, "pitch": 75, "duration": 1, "velocity": 100}, {"time": 2548, "pitch": 75, "duration": 1, "velocity": 112}, {"time": 2551, "pitch": 75, "duration": 1, "velocity": 127}, {"time": 2554, "pitch": 75, "duration": 3, "velocity": 127}, {"time": 2560, "pitch": 76, "duration": 3, "velocity": 102}, {"time": 2566, "pitch": 78, "duration": 4, "velocity": 122}, {"time": 2572, "pitch": 73, "duration": 1, "velocity": 127}, {"time": 2575, "pitch": 73, "duration": 3, "velocity": 117}, {"time": 2584, "pitch": 78, "duration": 4, "velocity": 127}, {"time": 2590, "pitch": 76, "duration": 4, "velocity": 127}, {"time": 2596, "pitch": 75, "duration": 2, "velocity": 122}, {"time": 2599, "pitch": 71, "duration": 4, "velocity": 107}, {"time": 2608, "pitch": 76, "duration": 5, "velocity": 112}, {"time": 2614, "pitch": 75, "duration": 13, "velocity": 127}, {"time": 2626, "pitch": 71, "duration": 9, "velocity": 122}, {"time": 2638, "pitch": 70, "duration": 35, "velocity": 122}, {"time": 3058, "pitch": 76, "duration": 10, "velocity": 127}, {"time": 3070, "pitch": 76, "duration": 5, "velocity": 122}, {"time": 3076, "pitch": 69, "duration": 5, "velocity": 95}, {"time": 3082, "pitch": 76, "duration": 4, "velocity": 112}, {"time": 3088, "pitch": 69, "duration": 4, "velocity": 99}, {"time": 3094, "pitch": 76, "duration": 4, "velocity": 127}, {"time": 3100, "pitch": 77, "duration": 2, "velocity": 96}, {"time": 3103, "pitch": 77, "duration": 4, "velocity": 95}, {"time": 3112, "pitch": 77, "duration": 3, "velocity": 88}, {"time": 3115, "pitch": 76, "duration": 4, "velocity": 85}, {"time": 3118, "pitch": 74, "duration": 4, "velocity": 100}, {"time": 3124, "pitch": 67, "duration": 5, "velocity": 99}, {"time": 3130, "pitch": 74, "duration": 3, "velocity": 117}, {"time": 3136, "pitch": 67, "duration": 4, "velocity": 102}, {"time": 3142, "pitch": 74, "duration": 5, "velocity": 122}, {"time": 3148, "pitch": 76, "duration": 2, "velocity": 112}, {"time": 3151, "pitch": 76, "duration": 5, "velocity": 112}, {"time": 3160, "pitch": 76, "duration": 2, "velocity": 117}, {"time": 3163, "pitch": 74, "duration": 3, "velocity": 107}, {"time": 3166, "pitch": 72, "duration": 3, "velocity": 100}, {"time": 3172, "pitch": 65, "duration": 5, "velocity": 99}, {"time": 3178, "pitch": 72, "duration": 3, "velocity": 122}, {"time": 3184, "pitch": 65, "duration": 5, "velocity": 100}, {"time": 3190, "pitch": 74, "duration": 4, "velocity": 127}, {"time": 3196, "pitch": 72, "duration": 2, "velocity": 92}, {"time": 3199, "pitch": 71, "duration": 6, "velocity": 96}, {"time": 3205, "pitch": 72, "duration": 3, "velocity": 102}, {"time": 3214, "pitch": 71, "duration": 1, "velocity": 122}, {"time": 3217, "pitch": 71, "duration": 1, "velocity": 95}, {"time": 3220, "pitch": 71, "duration": 2, "velocity": 112}, {"time": 3223, "pitch": 69, "duration": 4, "velocity": 102}, {"time": 3229, "pitch": 71, "duration": 4, "velocity": 117}, {"time": 3235, "pitch": 64, "duration": 2, "velocity": 99}, {"time": 3238, "pitch": 71, "duration": 1, "velocity": 112}, {"time": 3241, "pitch": 71, "duration": 1, "velocity": 96}, {"time": 3244, "pitch": 71, "duration": 2, "velocity": 102}, {"time": 3247, "pitch": 72, "duration": 3, "velocity": 100}, {"time": 3253, "pitch": 74, "duration": 2, "velocity": 127}, {"time": 3262, "pitch": 76, "duration": 1, "velocity": 122}, {"time": 3265, "pitch": 76, "duration": 1, "velocity": 82}, {"time": 3268, "pitch": 76, "duration": 1, "velocity": 102}, {"time": 3271, "pitch": 76, "duration": 1, "velocity": 107}, {"time": 3274, "pitch": 76, "duration": 3, "velocity": 107}, {"time": 3280, "pitch": 69, "duration": 4, "velocity": 107}, {"time": 3286, "pitch": 76, "duration": 3, "velocity": 127}, {"time": 3292, "pitch": 77, "duration": 2, "velocity": 95}, {"time": 3295, "pitch": 77, "duration": 3, "velocity": 96}, {"time": 3304, "pitch": 77, "duration": 3, "velocity": 102}, {"time": 3307, "pitch": 76, "duration": 3, "velocity": 95}, {"time": 3310, "pitch": 74, "duration": 3, "velocity": 100}, {"time": 3316, "pitch": 74, "duration": 2, "velocity": 127}, {"time": 3319, "pitch": 74, "duration": 3, "velocity": 112}, {"time": 3325, "pitch": 79, "duration": 7, "velocity": 112}, {"time": 3334, "pitch": 77, "duration": 5, "velocity": 112}, {"time": 3340, "pitch": 76, "duration": 3, "velocity": 100}, {"time": 3346, "pitch": 74, "duration": 6, "velocity": 112}, {"time": 3352, "pitch": 76, "duration": 5, "velocity": 99}, {"time": 3358, "pitch": 72, "duration": 5, "velocity": 97}, {"time": 3364, "pitch": 71, "duration": 4, "velocity": 100}, {"time": 3367, "pitch": 72, "duration": 3, "velocity": 86}, {"time": 3373, "pitch": 65, "duration": 6, "velocity": 97}, {"time": 3391, "pitch": 65, "duration": 1, "velocity": 112}, {"time": 3394, "pitch": 65, "duration": 3, "velocity": 107}, {"time": 3397, "pitch": 69, "duration": 2, "velocity": 127}, {"time": 3400, "pitch": 72, "duration": 3, "velocity": 122}, {"time": 3403, "pitch": 74, "duration": 3, "velocity": 117}, {"time": 3406, "pitch": 71, "duration": 6, "velocity": 127}, {"time": 3412, "pitch": 71, "duration": 2, "velocity": 127}, {"time": 3415, "pitch": 69, "duration": 4, "velocity": 112}, {"time": 3421, "pitch": 68, "duration": 33, "velocity": 112}, {"time": 3499, "pitch": 72, "duration": 27, "velocity": 90}, {"time": 3526, "pitch": 69, "duration": 26, "velocity": 81}]}, {"program": 0, "is_drum": false, "name": "PIANO", "notes": [{"time": 22, "pitch": 44, "duration": 18, "velocity": 72}, {"time": 28, "pitch": 51, "duration": 10, "velocity": 27}, {"time": 34, "pitch": 56, "duration": 4, "velocity": 59}, {"time": 34, "pitch": 63, "duration": 9, "velocity": 64}, {"time": 40, "pitch": 59, "duration": 14, "velocity": 61}, {"time": 46, "pitch": 40, "duration": 12, "velocity": 65}, {"time": 52, "pitch": 47, "duration": 7, "velocity": 41}, {"time": 58, "pitch": 59, "duration": 7, "velocity": 25}, {"time": 58, "pitch": 68, "duration": 12, "velocity": 70}, {"time": 64, "pitch": 64, "duration": 6, "velocity": 63}, {"time": 70, "pitch": 39, "duration": 48, "velocity": 64}, {"time": 76, "pitch": 46, "duration": 42, "velocity": 28}, {"time": 82, "pitch": 51, "duration": 36, "velocity": 40}, {"time": 82, "pitch": 58, "duration": 36, "velocity": 66}, {"time": 88, "pitch": 55, "duration": 30, "velocity": 58}, {"time": 94, "pitch": 63, "duration": 24, "velocity": 56}, {"time": 118, "pitch": 44, "duration": 20, "velocity": 64}, {"time": 124, "pitch": 51, "duration": 13, "velocity": 34}, {"time": 130, "pitch": 56, "duration": 7, "velocity": 56}, {"time": 136, "pitch": 59, "duration": 8, "velocity": 56}, {"time": 142, "pitch": 42, "duration": 17, "velocity": 69}, {"time": 148, "pitch": 54, "duration": 8, "velocity": 63}, {"time": 154, "pitch": 61, "duration": 12, "velocity": 74}, {"time": 160, "pitch": 54, "duration": 6, "velocity": 56}, {"time": 166, "pitch": 40, "duration": 38, "velocity": 67}, {"time": 172, "pitch": 47, "duration": 32, "velocity": 55}, {"time": 178, "pitch": 52, "duration": 29, "velocity": 57}, {"time": 184, "pitch": 59, "duration": 11, "velocity": 60}, {"time": 190, "pitch": 64, "duration": 14, "velocity": 43}, {"time": 190, "pitch": 68, "duration": 11, "velocity": 58}, {"time": 202, "pitch": 68, "duration": 14, "velocity": 63}, {"time": 208, "pitch": 64, "duration": 7, "velocity": 49}, {"time": 214, "pitch": 44, "duration": 19, "velocity": 53}, {"time": 220, "pitch": 51, "duration": 12, "velocity": 39}, {"time": 226, "pitch": 56, "duration": 6, "velocity": 43}, {"time": 226, "pitch": 63, "duration": 13, "velocity": 63}, {"time": 232, "pitch": 59, "duration": 7, "velocity": 51}, {"time": 238, "pitch": 42, "duration": 18, "velocity": 60}, {"time": 244, "pitch": 54, "duration": 7, "velocity": 56}, {"time": 250, "pitch": 61, "duration": 12, "velocity": 72}, {"time": 256, "pitch": 54, "duration": 6, "velocity": 61}, {"time": 262, "pitch": 40, "duration": 37, "velocity": 69}, {"time": 268, "pitch": 47, "duration": 31, "velocity": 42}, {"time": 274, "pitch": 52, "duration": 16, "velocity": 59}, {"time": 280, "pitch": 59, "duration": 7, "velocity": 50}, {"time": 286, "pitch": 64, "duration": 8, "velocity": 68}, {"time": 286, "pitch": 68, "duration": 24, "velocity": 61}, {"time": 292, "pitch": 52, "duration": 10, "velocity": 61}, {"time": 298, "pitch": 64, "duration": 12, "velocity": 70}, {"time": 304, "pitch": 59, "duration": 6, "velocity": 65}, {"time": 310, "pitch": 44, "duration": 23, "velocity": 67}, {"time": 316, "pitch": 51, "duration": 13, "velocity": 35}, {"time": 322, "pitch": 56, "duration": 8, "velocity": 54}, {"time": 322, "pitch": 63, "duration": 12, "velocity": 58}, {"time": 328, "pitch": 59, "duration": 7, "velocity": 66}, {"time": 334, "pitch": 42, "duration": 15, "velocity": 66}, {"time": 340, "pitch": 54, "duration": 14, "velocity": 58}, {"time": 346, "pitch": 61, "duration": 11, "velocity": 79}, {"time": 352, "pitch": 58, "duration": 5, "velocity": 57}, {"time": 358, "pitch": 40, "duration": 22, "velocity": 63}, {"time": 364, "pitch": 47, "duration": 16, "velocity": 36}, {"time": 370, "pitch": 52, "duration": 11, "velocity": 60}, {"time": 376, "pitch": 59, "duration": 6, "velocity": 75}, {"time": 379, "pitch": 64, "duration": 3, "velocity": 16}, {"time": 382, "pitch": 39, "duration": 25, "velocity": 71}, {"time": 388, "pitch": 46, "duration": 18, "velocity": 33}, {"time": 394, "pitch": 51, "duration": 12, "velocity": 39}, {"time": 394, "pitch": 58, "duration": 12, "velocity": 67}, {"time": 394, "pitch": 63, "duration": 12, "velocity": 65}, {"time": 400, "pitch": 54, "duration": 6, "velocity": 57}, {"time": 406, "pitch": 37, "duration": 41, "velocity": 75}, {"time": 412, "pitch": 44, "duration": 33, "velocity": 31}, {"time": 418, "pitch": 49, "duration": 14, "velocity": 62}, {"time": 424, "pitch": 52, "duration": 7, "velocity": 54}, {"time": 430, "pitch": 56, "duration": 10, "velocity": 69}, {"time": 430, "pitch": 61, "duration": 25, "velocity": 64}, {"time": 436, "pitch": 49, "duration": 10, "velocity": 39}, {"time": 442, "pitch": 56, "duration": 13, "velocity": 79}, {"time": 448, "pitch": 52, "duration": 6, "velocity": 63}, {"time": 454, "pitch": 39, "duration": 47, "velocity": 86}, {"time": 460, "pitch": 46, "duration": 38, "velocity": 48}, {"time": 466, "pitch": 51, "duration": 15, "velocity": 63}, {"time": 472, "pitch": 55, "duration": 12, "velocity": 41}, {"time": 478, "pitch": 58, "duration": 10, "velocity": 66}, {"time": 478, "pitch": 63, "duration": 24, "velocity": 64}, {"time": 484, "pitch": 51, "duration": 8, "velocity": 67}, {"time": 490, "pitch": 58, "duration": 12, "velocity": 96}, {"time": 493, "pitch": 51, "duration": 5, "velocity": 81}, {"time": 496, "pitch": 55, "duration": 6, "velocity": 70}, {"time": 502, "pitch": 44, "duration": 17, "velocity": 72}, {"time": 508, "pitch": 51, "duration": 10, "velocity": 43}, {"time": 514, "pitch": 56, "duration": 4, "velocity": 49}, {"time": 514, "pitch": 63, "duration": 13, "velocity": 67}, {"time": 514, "pitch": 68, "duration": 13, "velocity": 69}, {"time": 520, "pitch": 59, "duration": 7, "velocity": 55}, {"time": 526, "pitch": 42, "duration": 18, "velocity": 63}, {"time": 532, "pitch": 49, "duration": 10, "velocity": 31}, {"time": 538, "pitch": 54, "duration": 4, "velocity": 53}, {"time": 538, "pitch": 61, "duration": 12, "velocity": 68}, {"time": 538, "pitch": 66, "duration": 12, "velocity": 60}, {"time": 544, "pitch": 58, "duration": 6, "velocity": 58}, {"time": 550, "pitch": 40, "duration": 41, "velocity": 69}, {"time": 556, "pitch": 47, "duration": 35, "velocity": 40}, {"time": 562, "pitch": 52, "duration": 16, "velocity": 89}, {"time": 568, "pitch": 59, "duration": 21, "velocity": 60}, {"time": 574, "pitch": 64, "duration": 11, "velocity": 69}, {"time": 574, "pitch": 68, "duration": 10, "velocity": 62}, {"time": 580, "pitch": 52, "duration": 7, "velocity": 50}, {"time": 586, "pitch": 68, "duration": 14, "velocity": 89}, {"time": 589, "pitch": 52, "duration": 3, "velocity": 67}, {"time": 592, "pitch": 64, "duration": 8, "velocity": 66}, {"time": 595, "pitch": 59, "duration": 4, "velocity": 73}, {"time": 598, "pitch": 44, "duration": 24, "velocity": 59}, {"time": 604, "pitch": 51, "duration": 18, "velocity": 56}, {"time": 610, "pitch": 56, "duration": 9, "velocity": 49}, {"time": 610, "pitch": 59, "duration": 1, "velocity": 47}, {"time": 610, "pitch": 63, "duration": 12, "velocity": 68}, {"time": 616, "pitch": 59, "duration": 6, "velocity": 59}, {"time": 622, "pitch": 42, "duration": 19, "velocity": 72}, {"time": 628, "pitch": 49, "duration": 11, "velocity": 35}, {"time": 634, "pitch": 54, "duration": 4, "velocity": 55}, {"time": 634, "pitch": 61, "duration": 12, "velocity": 53}, {"time": 640, "pitch": 58, "duration": 7, "velocity": 67}, {"time": 646, "pitch": 40, "duration": 46, "velocity": 66}, {"time": 652, "pitch": 47, "duration": 40, "velocity": 52}, {"time": 658, "pitch": 52, "duration": 17, "velocity": 60}, {"time": 664, "pitch": 59, "duration": 20, "velocity": 61}, {"time": 670, "pitch": 64, "duration": 11, "velocity": 79}, {"time": 670, "pitch": 68, "duration": 11, "velocity": 83}, {"time": 676, "pitch": 52, "duration": 7, "velocity": 45}, {"time": 682, "pitch": 64, "duration": 12, "velocity": 69}, {"time": 682, "pitch": 68, "duration": 12, "velocity": 86}, {"time": 685, "pitch": 52, "duration": 7, "velocity": 56}, {"time": 688, "pitch": 59, "duration": 6, "velocity": 81}, {"time": 694, "pitch": 44, "duration": 18, "velocity": 71}, {"time": 700, "pitch": 51, "duration": 10, "velocity": 51}, {"time": 706, "pitch": 56, "duration": 4, "velocity": 55}, {"time": 706, "pitch": 63, "duration": 13, "velocity": 66}, {"time": 712, "pitch": 59, "duration": 7, "velocity": 63}, {"time": 718, "pitch": 42, "duration": 18, "velocity": 68}, {"time": 724, "pitch": 49, "duration": 10, "velocity": 37}, {"time": 730, "pitch": 54, "duration": 4, "velocity": 44}, {"time": 730, "pitch": 61, "duration": 12, "velocity": 69}, {"time": 730, "pitch": 66, "duration": 12, "velocity": 58}, {"time": 736, "pitch": 58, "duration": 6, "velocity": 63}, {"time": 742, "pitch": 40, "duration": 14, "velocity": 72}, {"time": 748, "pitch": 47, "duration": 9, "velocity": 46}, {"time": 754, "pitch": 52, "duration": 3, "velocity": 55}, {"time": 754, "pitch": 64, "duration": 13, "velocity": 67}, {"time": 754, "pitch": 68, "duration": 13, "velocity": 59}, {"time": 760, "pitch": 59, "duration": 7, "velocity": 58}, {"time": 766, "pitch": 39, "duration": 24, "velocity": 68}, {"time": 772, "pitch": 46, "duration": 10, "velocity": 44}, {"time": 778, "pitch": 51, "duration": 11, "velocity": 51}, {"time": 778, "pitch": 54, "duration": 9, "velocity": 78}, {"time": 778, "pitch": 58, "duration": 9, "velocity": 69}, {"time": 784, "pitch": 46, "duration": 4, "velocity": 33}, {"time": 790, "pitch": 49, "duration": 22, "velocity": 69}, {"time": 796, "pitch": 56, "duration": 19, "velocity": 61}, {"time": 802, "pitch": 61, "duration": 2, "velocity": 59}, {"time": 802, "pitch": 64, "duration": 19, "velocity": 50}, {"time": 802, "pitch": 68, "duration": 20, "velocity": 50}, {"time": 808, "pitch": 61, "duration": 17, "velocity": 65}, {"time": 814, "pitch": 49, "duration": 18, "velocity": 65}, {"time": 820, "pitch": 56, "duration": 8, "velocity": 47}, {"time": 826, "pitch": 61, "duration": 2, "velocity": 61}, {"time": 826, "pitch": 64, "duration": 12, "velocity": 73}, {"time": 826, "pitch": 68, "duration": 12, "velocity": 86}, {"time": 829, "pitch": 56, "duration": 2, "velocity": 40}, {"time": 832, "pitch": 61, "duration": 7, "velocity": 76}, {"time": 838, "pitch": 39, "duration": 40, "velocity": 67}, {"time": 844, "pitch": 46, "duration": 33, "velocity": 59}, {"time": 850, "pitch": 51, "duration": 4, "velocity": 38}, {"time": 850, "pitch": 63, "duration": 10, "velocity": 78}, {"time": 850, "pitch": 67, "duration": 6, "velocity": 76}, {"time": 850, "pitch": 70, "duration": 7, "velocity": 62}, {"time": 856, "pitch": 51, "duration": 7, "velocity": 70}, {"time": 862, "pitch": 63, "duration": 10, "velocity": 96}, {"time": 862, "pitch": 67, "duration": 6, "velocity": 97}, {"time": 862, "pitch": 70, "duration": 10, "velocity": 96}, {"time": 868, "pitch": 51, "duration": 7, "velocity": 72}, {"time": 874, "pitch": 67, "duration": 5, "velocity": 117}, {"time": 874, "pitch": 70, "duration": 12, "velocity": 122}, {"time": 877, "pitch": 51, "duration": 3, "velocity": 90}, {"time": 880, "pitch": 63, "duration": 5, "velocity": 122}, {"time": 883, "pitch": 67, "duration": 3, "velocity": 78}, {"time": 886, "pitch": 44, "duration": 19, "velocity": 89}, {"time": 889, "pitch": 51, "duration": 14, "velocity": 44}, {"time": 892, "pitch": 56, "duration": 7, "velocity": 90}, {"time": 895, "pitch": 59, "duration": 7, "velocity": 88}, {"time": 898, "pitch": 68, "duration": 12, "velocity": 122}, {"time": 901, "pitch": 56, "duration": 2, "velocity": 89}, {"time": 904, "pitch": 63, "duration": 6, "velocity": 127}, {"time": 907, "pitch": 59, "duration": 3, "velocity": 95}, {"time": 910, "pitch": 37, "duration": 19, "velocity": 72}, {"time": 913, "pitch": 44, "duration": 16, "velocity": 63}, {"time": 916, "pitch": 49, "duration": 7, "velocity": 67}, {"time": 919, "pitch": 52, "duration": 8, "velocity": 85}, {"time": 922, "pitch": 61, "duration": 12, "velocity": 102}, {"time": 925, "pitch": 49, "duration": 4, "velocity": 85}, {"time": 928, "pitch": 56, "duration": 6, "velocity": 100}, {"time": 931, "pitch": 52, "duration": 2, "velocity": 83}, {"time": 934, "pitch": 42, "duration": 22, "velocity": 69}, {"time": 937, "pitch": 49, "duration": 18, "velocity": 33}, {"time": 940, "pitch": 54, "duration": 7, "velocity": 75}, {"time": 943, "pitch": 58, "duration": 3, "velocity": 76}, {"time": 946, "pitch": 61, "duration": 6, "velocity": 99}, {"time": 949, "pitch": 54, "duration": 6, "velocity": 89}, {"time": 952, "pitch": 58, "duration": 4, "velocity": 100}, {"time": 955, "pitch": 61, "duration": 4, "velocity": 93}, {"time": 958, "pitch": 47, "duration": 8, "velocity": 88}, {"time": 961, "pitch": 54, "duration": 5, "velocity": 93}, {"time": 964, "pitch": 59, "duration": 6, "velocity": 77}, {"time": 967, "pitch": 66, "duration": 3, "velocity": 100}, {"time": 970, "pitch": 46, "duration": 11, "velocity": 95}, {"time": 976, "pitch": 58, "duration": 6, "velocity": 55}, {"time": 982, "pitch": 40, "duration": 20, "velocity": 89}, {"time": 985, "pitch": 47, "duration": 17, "velocity": 37}, {"time": 988, "pitch": 52, "duration": 7, "velocity": 79}, {"time": 991, "pitch": 59, "duration": 7, "velocity": 73}, {"time": 994, "pitch": 68, "duration": 12, "velocity": 117}, {"time": 997, "pitch": 52, "duration": 5, "velocity": 78}, {"time": 1000, "pitch": 64, "duration": 6, "velocity": 77}, {"time": 1003, "pitch": 59, "duration": 4, "velocity": 79}, {"time": 1006, "pitch": 37, "duration": 21, "velocity": 65}, {"time": 1009, "pitch": 49, "duration": 10, "velocity": 92}, {"time": 1012, "pitch": 52, "duration": 8, "velocity": 82}, {"time": 1015, "pitch": 56, "duration": 6, "velocity": 49}, {"time": 1018, "pitch": 61, "duration": 12, "velocity": 83}, {"time": 1021, "pitch": 49, "duration": 8, "velocity": 77}, {"time": 1024, "pitch": 56, "duration": 6, "velocity": 85}, {"time": 1027, "pitch": 52, "duration": 3, "velocity": 83}, {"time": 1030, "pitch": 39, "duration": 23, "velocity": 85}, {"time": 1033, "pitch": 46, "duration": 21, "velocity": 60}, {"time": 1036, "pitch": 51, "duration": 7, "velocity": 89}, {"time": 1039, "pitch": 55, "duration": 6, "velocity": 73}, {"time": 1042, "pitch": 63, "duration": 20, "velocity": 93}, {"time": 1045, "pitch": 51, "duration": 12, "velocity": 73}, {"time": 1048, "pitch": 58, "duration": 14, "velocity": 74}, {"time": 1051, "pitch": 55, "duration": 10, "velocity": 73}, {"time": 1054, "pitch": 39, "duration": 22, "velocity": 48}, {"time": 1057, "pitch": 46, "duration": 19, "velocity": 34}, {"time": 1060, "pitch": 51, "duration": 7, "velocity": 75}, {"time": 1063, "pitch": 55, "duration": 6, "velocity": 85}, {"time": 1066, "pitch": 63, "duration": 12, "velocity": 95}, {"time": 1069, "pitch": 51, "duration": 7, "velocity": 83}, {"time": 1072, "pitch": 58, "duration": 6, "velocity": 92}, {"time": 1075, "pitch": 55, "duration": 4, "velocity": 86}, {"time": 1078, "pitch": 44, "duration": 19, "velocity": 89}, {"time": 1081, "pitch": 51, "duration": 14, "velocity": 44}, {"time": 1084, "pitch": 56, "duration": 7, "velocity": 90}, {"time": 1087, "pitch": 59, "duration": 7, "velocity": 88}, {"time": 1090, "pitch": 68, "duration": 12, "velocity": 122}, {"time": 1093, "pitch": 56, "duration": 2, "velocity": 89}, {"time": 1096, "pitch": 63, "duration": 6, "velocity": 127}, {"time": 1099, "pitch": 59, "duration": 3, "velocity": 95}, {"time": 1102, "pitch": 37, "duration": 19, "velocity": 72}, {"time": 1105, "pitch": 44, "duration": 16, "velocity": 63}, {"time": 1108, "pitch": 49, "duration": 7, "velocity": 67}, {"time": 1111, "pitch": 52, "duration": 8, "velocity": 85}, {"time": 1114, "pitch": 61, "duration": 12, "velocity": 102}, {"time": 1117, "pitch": 49, "duration": 4, "velocity": 85}, {"time": 1120, "pitch": 56, "duration": 6, "velocity": 100}, {"time": 1123, "pitch": 52, "duration": 2, "velocity": 83}, {"time": 1126, "pitch": 42, "duration": 22, "velocity": 69}, {"time": 1129, "pitch": 49, "duration": 18, "velocity": 33}, {"time": 1132, "pitch": 54, "duration": 7, "velocity": 75}, {"time": 1135, "pitch": 58, "duration": 3, "velocity": 76}, {"time": 1138, "pitch": 61, "duration": 6, "velocity": 99}, {"time": 1141, "pitch": 54, "duration": 6, "velocity": 89}, {"time": 1144, "pitch": 58, "duration": 4, "velocity": 100}, {"time": 1147, "pitch": 61, "duration": 4, "velocity": 93}, {"time": 1150, "pitch": 47, "duration": 8, "velocity": 88}, {"time": 1153, "pitch": 54, "duration": 5, "velocity": 93}, {"time": 1156, "pitch": 59, "duration": 6, "velocity": 77}, {"time": 1159, "pitch": 66, "duration": 3, "velocity": 100}, {"time": 1162, "pitch": 46, "duration": 11, "velocity": 95}, {"time": 1168, "pitch": 58, "duration": 6, "velocity": 55}, {"time": 1174, "pitch": 40, "duration": 20, "velocity": 89}, {"time": 1177, "pitch": 47, "duration": 17, "velocity": 37}, {"time": 1180, "pitch": 52, "duration": 7, "velocity": 79}, {"time": 1183, "pitch": 59, "duration": 7, "velocity": 73}, {"time": 1186, "pitch": 68, "duration": 12, "velocity": 117}, {"time": 1189, "pitch": 52, "duration": 5, "velocity": 78}, {"time": 1192, "pitch": 64, "duration": 6, "velocity": 77}, {"time": 1195, "pitch": 59, "duration": 4, "velocity": 79}, {"time": 1198, "pitch": 37, "duration": 21, "velocity": 65}, {"time": 1201, "pitch": 49, "duration": 10, "velocity": 92}, {"time": 1204, "pitch": 52, "duration": 8, "velocity": 82}, {"time": 1207, "pitch": 56, "duration": 6, "velocity": 49}, {"time": 1210, "pitch": 61, "duration": 12, "velocity": 83}, {"time": 1213, "pitch": 49, "duration": 8, "velocity": 77}, {"time": 1216, "pitch": 56, "duration": 6, "velocity": 85}, {"time": 1219, "pitch": 52, "duration": 3, "velocity": 83}, {"time": 1222, "pitch": 39, "duration": 23, "velocity": 85}, {"time": 1225, "pitch": 46, "duration": 21, "velocity": 60}, {"time": 1228, "pitch": 51, "duration": 7, "velocity": 89}, {"time": 1231, "pitch": 55, "duration": 6, "velocity": 73}, {"time": 1234, "pitch": 63, "duration": 20, "velocity": 93}, {"time": 1237, "pitch": 51, "duration": 12, "velocity": 73}, {"time": 1240, "pitch": 58, "duration": 14, "velocity": 74}, {"time": 1243, "pitch": 55, "duration": 10, "velocity": 73}, {"time": 1246, "pitch": 39, "duration": 22, "velocity": 48}, {"time": 1249, "pitch": 46, "duration": 19, "velocity": 34}, {"time": 1252, "pitch": 51, "duration": 7, "velocity": 75}, {"time": 1255, "pitch": 55, "duration": 6, "velocity": 85}, {"time": 1258, "pitch": 63, "duration": 12, "velocity": 95}, {"time": 1261, "pitch": 51, "duration": 7, "velocity": 83}, {"time": 1264, "pitch": 58, "duration": 6, "velocity": 92}, {"time": 1267, "pitch": 55, "duration": 4, "velocity": 86}, {"time": 1270, "pitch": 44, "duration": 22, "velocity": 88}, {"time": 1273, "pitch": 51, "duration": 16, "velocity": 67}, {"time": 1276, "pitch": 56, "duration": 7, "velocity": 78}, {"time": 1279, "pitch": 59, "duration": 8, "velocity": 72}, {"time": 1282, "pitch": 68, "duration": 12, "velocity": 100}, {"time": 1285, "pitch": 56, "duration": 4, "velocity": 78}, {"time": 1288, "pitch": 63, "duration": 6, "velocity": 92}, {"time": 1291, "pitch": 59, "duration": 3, "velocity": 82}, {"time": 1294, "pitch": 37, "duration": 17, "velocity": 74}, {"time": 1297, "pitch": 44, "duration": 13, "velocity": 49}, {"time": 1300, "pitch": 49, "duration": 7, "velocity": 63}, {"time": 1303, "pitch": 52, "duration": 7, "velocity": 62}, {"time": 1306, "pitch": 61, "duration": 12, "velocity": 97}, {"time": 1309, "pitch": 49, "duration": 5, "velocity": 78}, {"time": 1312, "pitch": 56, "duration": 6, "velocity": 82}, {"time": 1315, "pitch": 52, "duration": 3, "velocity": 83}, {"time": 1318, "pitch": 42, "duration": 19, "velocity": 56}, {"time": 1321, "pitch": 49, "duration": 16, "velocity": 65}, {"time": 1324, "pitch": 54, "duration": 6, "velocity": 78}, {"time": 1327, "pitch": 58, "duration": 4, "velocity": 66}, {"time": 1330, "pitch": 61, "duration": 6, "velocity": 71}, {"time": 1333, "pitch": 54, "duration": 3, "velocity": 73}, {"time": 1336, "pitch": 58, "duration": 5, "velocity": 76}, {"time": 1339, "pitch": 61, "duration": 3, "velocity": 82}, {"time": 1342, "pitch": 47, "duration": 17, "velocity": 48}, {"time": 1345, "pitch": 54, "duration": 11, "velocity": 69}, {"time": 1348, "pitch": 59, "duration": 4, "velocity": 82}, {"time": 1351, "pitch": 63, "duration": 4, "velocity": 70}, {"time": 1354, "pitch": 66, "duration": 11, "velocity": 107}, {"time": 1357, "pitch": 54, "duration": 2, "velocity": 79}, {"time": 1360, "pitch": 63, "duration": 5, "velocity": 100}, {"time": 1363, "pitch": 59, "duration": 5, "velocity": 78}, {"time": 1366, "pitch": 40, "duration": 19, "velocity": 69}, {"time": 1369, "pitch": 47, "duration": 16, "velocity": 49}, {"time": 1372, "pitch": 52, "duration": 7, "velocity": 76}, {"time": 1375, "pitch": 59, "duration": 8, "velocity": 69}, {"time": 1378, "pitch": 68, "duration": 12, "velocity": 102}, {"time": 1381, "pitch": 52, "duration": 3, "velocity": 82}, {"time": 1384, "pitch": 64, "duration": 6, "velocity": 67}, {"time": 1387, "pitch": 59, "duration": 3, "velocity": 90}, {"time": 1390, "pitch": 37, "duration": 23, "velocity": 86}, {"time": 1393, "pitch": 44, "duration": 20, "velocity": 56}, {"time": 1396, "pitch": 49, "duration": 6, "velocity": 64}, {"time": 1399, "pitch": 61, "duration": 4, "velocity": 62}, {"time": 1402, "pitch": 64, "duration": 6, "velocity": 66}, {"time": 1402, "pitch": 68, "duration": 12, "velocity": 71}, {"time": 1405, "pitch": 49, "duration": 8, "velocity": 73}, {"time": 1408, "pitch": 61, "duration": 6, "velocity": 79}, {"time": 1411, "pitch": 64, "duration": 3, "velocity": 76}, {"time": 1414, "pitch": 39, "duration": 22, "velocity": 68}, {"time": 1417, "pitch": 46, "duration": 21, "velocity": 62}, {"time": 1420, "pitch": 51, "duration": 7, "velocity": 76}, {"time": 1423, "pitch": 55, "duration": 7, "velocity": 63}, {"time": 1426, "pitch": 63, "duration": 9, "velocity": 100}, {"time": 1429, "pitch": 51, "duration": 11, "velocity": 73}, {"time": 1432, "pitch": 58, "duration": 12, "velocity": 78}, {"time": 1435, "pitch": 55, "duration": 9, "velocity": 64}, {"time": 1438, "pitch": 39, "duration": 22, "velocity": 67}, {"time": 1441, "pitch": 46, "duration": 45, "velocity": 35}, {"time": 1444, "pitch": 51, "duration": 6, "velocity": 60}, {"time": 1447, "pitch": 55, "duration": 8, "velocity": 56}, {"time": 1450, "pitch": 63, "duration": 9, "velocity": 83}, {"time": 1453, "pitch": 51, "duration": 33, "velocity": 60}, {"time": 1456, "pitch": 58, "duration": 30, "velocity": 59}, {"time": 1459, "pitch": 55, "duration": 27, "velocity": 61}, {"time": 1462, "pitch": 39, "duration": 24, "velocity": 61}, {"time": 1462, "pitch": 63, "duration": 24, "velocity": 48}, {"time": 1486, "pitch": 44, "duration": 17, "velocity": 72}, {"time": 1492, "pitch": 51, "duration": 10, "velocity": 43}, {"time": 1498, "pitch": 56, "duration": 4, "velocity": 49}, {"time": 1498, "pitch": 63, "duration": 13, "velocity": 67}, {"time": 1498, "pitch": 68, "duration": 13, "velocity": 69}, {"time": 1504, "pitch": 59, "duration": 7, "velocity": 55}, {"time": 1510, "pitch": 42, "duration": 18, "velocity": 63}, {"time": 1516, "pitch": 49, "duration": 10, "velocity": 31}, {"time": 1522, "pitch": 54, "duration": 4, "velocity": 53}, {"time": 1522, "pitch": 61, "duration": 12, "velocity": 68}, {"time": 1522, "pitch": 66, "duration": 12, "velocity": 60}, {"time": 1528, "pitch": 58, "duration": 6, "velocity": 58}, {"time": 1534, "pitch": 40, "duration": 41, "velocity": 69}, {"time": 1540, "pitch": 47, "duration": 35, "velocity": 40}, {"time": 1546, "pitch": 52, "duration": 16, "velocity": 89}, {"time": 1552, "pitch": 59, "duration": 21, "velocity": 60}, {"time": 1558, "pitch": 64, "duration": 11, "velocity": 69}, {"time": 1558, "pitch": 68, "duration": 10, "velocity": 62}, {"time": 1564, "pitch": 52, "duration": 7, "velocity": 50}, {"time": 1570, "pitch": 68, "duration": 14, "velocity": 89}, {"time": 1573, "pitch": 52, "duration": 3, "velocity": 67}, {"time": 1576, "pitch": 64, "duration": 8, "velocity": 66}, {"time": 1579, "pitch": 59, "duration": 4, "velocity": 73}, {"time": 1582, "pitch": 44, "duration": 24, "velocity": 59}, {"time": 1588, "pitch": 51, "duration": 18, "velocity": 56}, {"time": 1594, "pitch": 56, "duration": 9, "velocity": 49}, {"time": 1594, "pitch": 59, "duration": 1, "velocity": 47}, {"time": 1594, "pitch": 63, "duration": 12, "velocity": 68}, {"time": 1600, "pitch": 59, "duration": 6, "velocity": 59}, {"time": 1606, "pitch": 42, "duration": 19, "velocity": 72}, {"time": 1612, "pitch": 49, "duration": 11, "velocity": 35}, {"time": 1618, "pitch": 54, "duration": 4, "velocity": 55}, {"time": 1618, "pitch": 61, "duration": 12, "velocity": 53}, {"time": 1624, "pitch": 58, "duration": 7, "velocity": 67}, {"time": 1630, "pitch": 40, "duration": 46, "velocity": 66}, {"time": 1636, "pitch": 47, "duration": 40, "velocity": 52}, {"time": 1642, "pitch": 52, "duration": 17, "velocity": 60}, {"time": 1648, "pitch": 59, "duration": 20, "velocity": 61}, {"time": 1654, "pitch": 64, "duration": 11, "velocity": 79}, {"time": 1654, "pitch": 68, "duration": 11, "velocity": 83}, {"time": 1660, "pitch": 52, "duration": 7, "velocity": 45}, {"time": 1666, "pitch": 64, "duration": 12, "velocity": 69}, {"time": 1666, "pitch": 68, "duration": 12, "velocity": 86}, {"time": 1669, "pitch": 52, "duration": 7, "velocity": 56}, {"time": 1672, "pitch": 59, "duration": 6, "velocity": 81}, {"time": 1678, "pitch": 44, "duration": 18, "velocity": 71}, {"time": 1684, "pitch": 51, "duration": 10, "velocity": 51}, {"time": 1690, "pitch": 56, "duration": 4, "velocity": 55}, {"time": 1690, "pitch": 63, "duration": 13, "velocity": 66}, {"time": 1696, "pitch": 59, "duration": 7, "velocity": 63}, {"time": 1702, "pitch": 42, "duration": 18, "velocity": 68}, {"time": 1708, "pitch": 49, "duration": 10, "velocity": 37}, {"time": 1714, "pitch": 54, "duration": 4, "velocity": 44}, {"time": 1714, "pitch": 61, "duration": 12, "velocity": 69}, {"time": 1714, "pitch": 66, "duration": 12, "velocity": 58}, {"time": 1720, "pitch": 58, "duration": 6, "velocity": 63}, {"time": 1726, "pitch": 40, "duration": 14, "velocity": 72}, {"time": 1732, "pitch": 47, "duration": 9, "velocity": 46}, {"time": 1738, "pitch": 52, "duration": 3, "velocity": 55}, {"time": 1738, "pitch": 64, "duration": 13, "velocity": 67}, {"time": 1738, "pitch": 68, "duration": 13, "velocity": 59}, {"time": 1744, "pitch": 59, "duration": 7, "velocity": 58}, {"time": 1750, "pitch": 39, "duration": 24, "velocity": 68}, {"time": 1756, "pitch": 46, "duration": 10, "velocity": 44}, {"time": 1762, "pitch": 51, "duration": 11, "velocity": 51}, {"time": 1762, "pitch": 54, "duration": 9, "velocity": 78}, {"time": 1762, "pitch": 58, "duration": 9, "velocity": 69}, {"time": 1768, "pitch": 46, "duration": 4, "velocity": 33}, {"time": 1774, "pitch": 49, "duration": 22, "velocity": 69}, {"time": 1780, "pitch": 56, "duration": 19, "velocity": 61}, {"time": 1786, "pitch": 61, "duration": 2, "velocity": 59}, {"time": 1786, "pitch": 64, "duration": 19, "velocity": 50}, {"time": 1786, "pitch": 68, "duration": 20, "velocity": 50}, {"time": 1792, "pitch": 61, "duration": 17, "velocity": 65}, {"time": 1798, "pitch": 49, "duration": 18, "velocity": 65}, {"time": 1804, "pitch": 56, "duration": 8, "velocity": 47}, {"time": 1810, "pitch": 61, "duration": 2, "velocity": 61}, {"time": 1810, "pitch": 64, "duration": 12, "velocity": 73}, {"time": 1810, "pitch": 68, "duration": 12, "velocity": 86}, {"time": 1813, "pitch": 56, "duration": 2, "velocity": 40}, {"time": 1816, "pitch": 61, "duration": 7, "velocity": 76}, {"time": 1822, "pitch": 39, "duration": 40, "velocity": 67}, {"time": 1828, "pitch": 46, "duration": 33, "velocity": 59}, {"time": 1834, "pitch": 51, "duration": 4, "velocity": 38}, {"time": 1834, "pitch": 63, "duration": 10, "velocity": 78}, {"time": 1834, "pitch": 67, "duration": 6, "velocity": 76}, {"time": 1834, "pitch": 70, "duration": 7, "velocity": 62}, {"time": 1840, "pitch": 51, "duration": 7, "velocity": 70}, {"time": 1846, "pitch": 63, "duration": 10, "velocity": 96}, {"time": 1846, "pitch": 67, "duration": 6, "velocity": 97}, {"time": 1846, "pitch": 70, "duration": 10, "velocity": 96}, {"time": 1852, "pitch": 51, "duration": 7, "velocity": 72}, {"time": 1858, "pitch": 67, "duration": 5, "velocity": 117}, {"time": 1858, "pitch": 70, "duration": 12, "velocity": 122}, {"time": 1861, "pitch": 51, "duration": 3, "velocity": 90}, {"time": 1864, "pitch": 63, "duration": 5, "velocity": 122}, {"time": 1867, "pitch": 67, "duration": 3, "velocity": 78}, {"time": 1870, "pitch": 44, "duration": 19, "velocity": 89}, {"time": 1873, "pitch": 51, "duration": 14, "velocity": 44}, {"time": 1876, "pitch": 56, "duration": 7, "velocity": 90}, {"time": 1879, "pitch": 59, "duration": 7, "velocity": 88}, {"time": 1882, "pitch": 68, "duration": 12, "velocity": 122}, {"time": 1885, "pitch": 56, "duration": 2, "velocity": 89}, {"time": 1888, "pitch": 63, "duration": 6, "velocity": 127}, {"time": 1891, "pitch": 59, "duration": 3, "velocity": 95}, {"time": 1894, "pitch": 37, "duration": 19, "velocity": 72}, {"time": 1897, "pitch": 44, "duration": 16, "velocity": 63}, {"time": 1900, "pitch": 49, "duration": 7, "velocity": 67}, {"time": 1903, "pitch": 52, "duration": 8, "velocity": 85}, {"time": 1906, "pitch": 61, "duration": 12, "velocity": 102}, {"time": 1909, "pitch": 49, "duration": 4, "velocity": 85}, {"time": 1912, "pitch": 56, "duration": 6, "velocity": 100}, {"time": 1915, "pitch": 52, "duration": 2, "velocity": 83}, {"time": 1918, "pitch": 42, "duration": 22, "velocity": 69}, {"time": 1921, "pitch": 49, "duration": 18, "velocity": 33}, {"time": 1924, "pitch": 54, "duration": 7, "velocity": 75}, {"time": 1927, "pitch": 58, "duration": 3, "velocity": 76}, {"time": 1930, "pitch": 61, "duration": 6, "velocity": 99}, {"time": 1933, "pitch": 54, "duration": 6, "velocity": 89}, {"time": 1936, "pitch": 58, "duration": 4, "velocity": 100}, {"time": 1939, "pitch": 61, "duration": 4, "velocity": 93}, {"time": 1942, "pitch": 47, "duration": 8, "velocity": 88}, {"time": 1945, "pitch": 54, "duration": 5, "velocity": 93}, {"time": 1948, "pitch": 59, "duration": 6, "velocity": 77}, {"time": 1951, "pitch": 66, "duration": 3, "velocity": 100}, {"time": 1954, "pitch": 46, "duration": 11, "velocity": 95}, {"time": 1960, "pitch": 58, "duration": 6, "velocity": 55}, {"time": 1966, "pitch": 40, "duration": 20, "velocity": 89}, {"time": 1969, "pitch": 47, "duration": 17, "velocity": 37}, {"time": 1972, "pitch": 52, "duration": 7, "velocity": 79}, {"time": 1975, "pitch": 59, "duration": 7, "velocity": 73}, {"time": 1978, "pitch": 68, "duration": 12, "velocity": 117}, {"time": 1981, "pitch": 52, "duration": 5, "velocity": 78}, {"time": 1984, "pitch": 64, "duration": 6, "velocity": 77}, {"time": 1987, "pitch": 59, "duration": 4, "velocity": 79}, {"time": 1990, "pitch": 37, "duration": 21, "velocity": 65}, {"time": 1993, "pitch": 49, "duration": 10, "velocity": 92}, {"time": 1996, "pitch": 52, "duration": 8, "velocity": 82}, {"time": 1999, "pitch": 56, "duration": 6, "velocity": 49}, {"time": 2002, "pitch": 61, "duration": 12, "velocity": 83}, {"time": 2005, "pitch": 49, "duration": 8, "velocity": 77}, {"time": 2008, "pitch": 56, "duration": 6, "velocity": 85}, {"time": 2011, "pitch": 52, "duration": 3, "velocity": 83}, {"time": 2014, "pitch": 39, "duration": 23, "velocity": 85}, {"time": 2017, "pitch": 46, "duration": 21, "velocity": 60}, {"time": 2020, "pitch": 51, "duration": 7, "velocity": 89}, {"time": 2023, "pitch": 55, "duration": 6, "velocity": 73}, {"time": 2026, "pitch": 63, "duration": 20, "velocity": 93}, {"time": 2029, "pitch": 51, "duration": 12, "velocity": 73}, {"time": 2032, "pitch": 58, "duration": 14, "velocity": 74}, {"time": 2035, "pitch": 55, "duration": 10, "velocity": 73}, {"time": 2038, "pitch": 39, "duration": 22, "velocity": 48}, {"time": 2041, "pitch": 46, "duration": 19, "velocity": 34}, {"time": 2044, "pitch": 51, "duration": 7, "velocity": 75}, {"time": 2047, "pitch": 55, "duration": 6, "velocity": 85}, {"time": 2050, "pitch": 63, "duration": 12, "velocity": 95}, {"time": 2053, "pitch": 51, "duration": 7, "velocity": 83}, {"time": 2056, "pitch": 58, "duration": 6, "velocity": 92}, {"time": 2059, "pitch": 55, "duration": 4, "velocity": 86}, {"time": 2062, "pitch": 44, "duration": 19, "velocity": 89}, {"time": 2065, "pitch": 51, "duration": 14, "velocity": 44}, {"time": 2068, "pitch": 56, "duration": 7, "velocity": 90}, {"time": 2071, "pitch": 59, "duration": 7, "velocity": 88}, {"time": 2074, "pitch": 68, "duration": 12, "velocity": 122}, {"time": 2077, "pitch": 56, "duration": 2, "velocity": 89}, {"time": 2080, "pitch": 63, "duration": 6, "velocity": 127}, {"time": 2083, "pitch": 59, "duration": 3, "velocity": 95}, {"time": 2086, "pitch": 37, "duration": 19, "velocity": 72}, {"time": 2089, "pitch": 44, "duration": 16, "velocity": 63}, {"time": 2092, "pitch": 49, "duration": 7, "velocity": 67}, {"time": 2095, "pitch": 52, "duration": 8, "velocity": 85}, {"time": 2098, "pitch": 61, "duration": 12, "velocity": 102}, {"time": 2101, "pitch": 49, "duration": 4, "velocity": 85}, {"time": 2104, "pitch": 56, "duration": 6, "velocity": 100}, {"time": 2107, "pitch": 52, "duration": 2, "velocity": 83}, {"time": 2110, "pitch": 42, "duration": 22, "velocity": 69}, {"time": 2113, "pitch": 49, "duration": 18, "velocity": 33}, {"time": 2116, "pitch": 54, "duration": 7, "velocity": 75}, {"time": 2119, "pitch": 58, "duration": 3, "velocity": 76}, {"time": 2122, "pitch": 61, "duration": 6, "velocity": 99}, {"time": 2125, "pitch": 54, "duration": 6, "velocity": 89}, {"time": 2128, "pitch": 58, "duration": 4, "velocity": 100}, {"time": 2131, "pitch": 61, "duration": 4, "velocity": 93}, {"time": 2134, "pitch": 47, "duration": 8, "velocity": 88}, {"time": 2137, "pitch": 54, "duration": 5, "velocity": 93}, {"time": 2140, "pitch": 59, "duration": 6, "velocity": 77}, {"time": 2143, "pitch": 66, "duration": 3, "velocity": 100}, {"time": 2146, "pitch": 46, "duration": 11, "velocity": 95}, {"time": 2152, "pitch": 58, "duration": 6, "velocity": 55}, {"time": 2158, "pitch": 40, "duration": 20, "velocity": 89}, {"time": 2161, "pitch": 47, "duration": 17, "velocity": 37}, {"time": 2164, "pitch": 52, "duration": 7, "velocity": 79}, {"time": 2167, "pitch": 59, "duration": 7, "velocity": 73}, {"time": 2170, "pitch": 68, "duration": 12, "velocity": 117}, {"time": 2173, "pitch": 52, "duration": 5, "velocity": 78}, {"time": 2176, "pitch": 64, "duration": 6, "velocity": 77}, {"time": 2179, "pitch": 59, "duration": 4, "velocity": 79}, {"time": 2182, "pitch": 37, "duration": 21, "velocity": 65}, {"time": 2185, "pitch": 49, "duration": 10, "velocity": 92}, {"time": 2188, "pitch": 52, "duration": 8, "velocity": 82}, {"time": 2191, "pitch": 56, "duration": 6, "velocity": 49}, {"time": 2194, "pitch": 61, "duration": 12, "velocity": 83}, {"time": 2197, "pitch": 49, "duration": 8, "velocity": 77}, {"time": 2200, "pitch": 56, "duration": 6, "velocity": 85}, {"time": 2203, "pitch": 52, "duration": 3, "velocity": 83}, {"time": 2206, "pitch": 39, "duration": 23, "velocity": 85}, {"time": 2209, "pitch": 46, "duration": 21, "velocity": 60}, {"time": 2212, "pitch": 51, "duration": 7, "velocity": 89}, {"time": 2215, "pitch": 55, "duration": 6, "velocity": 73}, {"time": 2218, "pitch": 63, "duration": 20, "velocity": 93}, {"time": 2221, "pitch": 51, "duration": 12, "velocity": 73}, {"time": 2224, "pitch": 58, "duration": 14, "velocity": 74}, {"time": 2227, "pitch": 55, "duration": 10, "velocity": 73}, {"time": 2230, "pitch": 39, "duration": 22, "velocity": 48}, {"time": 2233, "pitch": 46, "duration": 19, "velocity": 34}, {"time": 2236, "pitch": 51, "duration": 7, "velocity": 75}, {"time": 2239, "pitch": 55, "duration": 6, "velocity": 85}, {"time": 2242, "pitch": 63, "duration": 12, "velocity": 95}, {"time": 2245, "pitch": 51, "duration": 7, "velocity": 83}, {"time": 2248, "pitch": 58, "duration": 6, "velocity": 92}, {"time": 2251, "pitch": 55, "duration": 3, "velocity": 86}, {"time": 2254, "pitch": 44, "duration": 19, "velocity": 82}, {"time": 2257, "pitch": 51, "duration": 15, "velocity": 38}, {"time": 2260, "pitch": 56, "duration": 6, "velocity": 90}, {"time": 2263, "pitch": 59, "duration": 5, "velocity": 77}, {"time": 2266, "pitch": 63, "duration": 7, "velocity": 88}, {"time": 2269, "pitch": 56, "duration": 3, "velocity": 73}, {"time": 2272, "pitch": 59, "duration": 7, "velocity": 76}, {"time": 2275, "pitch": 63, "duration": 5, "velocity": 90}, {"time": 2278, "pitch": 39, "duration": 16, "velocity": 79}, {"time": 2281, "pitch": 46, "duration": 12, "velocity": 35}, {"time": 2284, "pitch": 51, "duration": 6, "velocity": 62}, {"time": 2287, "pitch": 55, "duration": 7, "velocity": 64}, {"time": 2290, "pitch": 63, "duration": 12, "velocity": 89}, {"time": 2293, "pitch": 51, "duration": 3, "velocity": 74}, {"time": 2296, "pitch": 58, "duration": 6, "velocity": 67}, {"time": 2299, "pitch": 55, "duration": 3, "velocity": 71}, {"time": 2302, "pitch": 44, "duration": 17, "velocity": 74}, {"time": 2305, "pitch": 51, "duration": 13, "velocity": 61}, {"time": 2308, "pitch": 56, "duration": 6, "velocity": 72}, {"time": 2311, "pitch": 59, "duration": 4, "velocity": 81}, {"time": 2314, "pitch": 63, "duration": 8, "velocity": 93}, {"time": 2317, "pitch": 56, "duration": 1, "velocity": 82}, {"time": 2320, "pitch": 59, "duration": 6, "velocity": 88}, {"time": 2323, "pitch": 63, "duration": 4, "velocity": 86}, {"time": 2326, "pitch": 39, "duration": 18, "velocity": 67}, {"time": 2329, "pitch": 46, "duration": 14, "velocity": 44}, {"time": 2332, "pitch": 51, "duration": 7, "velocity": 70}, {"time": 2335, "pitch": 58, "duration": 4, "velocity": 72}, {"time": 2338, "pitch": 63, "duration": 6, "velocity": 90}, {"time": 2341, "pitch": 51, "duration": 4, "velocity": 82}, {"time": 2344, "pitch": 58, "duration": 4, "velocity": 90}, {"time": 2347, "pitch": 63, "duration": 3, "velocity": 100}, {"time": 2350, "pitch": 44, "duration": 18, "velocity": 61}, {"time": 2353, "pitch": 51, "duration": 14, "velocity": 64}, {"time": 2356, "pitch": 56, "duration": 7, "velocity": 85}, {"time": 2359, "pitch": 59, "duration": 4, "velocity": 75}, {"time": 2362, "pitch": 63, "duration": 7, "velocity": 92}, {"time": 2365, "pitch": 56, "duration": 2, "velocity": 77}, {"time": 2368, "pitch": 59, "duration": 5, "velocity": 83}, {"time": 2371, "pitch": 63, "duration": 5, "velocity": 73}, {"time": 2374, "pitch": 39, "duration": 21, "velocity": 68}, {"time": 2377, "pitch": 46, "duration": 17, "velocity": 39}, {"time": 2380, "pitch": 51, "duration": 7, "velocity": 75}, {"time": 2383, "pitch": 55, "duration": 4, "velocity": 71}, {"time": 2386, "pitch": 58, "duration": 7, "velocity": 79}, {"time": 2389, "pitch": 51, "duration": 6, "velocity": 82}, {"time": 2392, "pitch": 55, "duration": 5, "velocity": 92}, {"time": 2395, "pitch": 58, "duration": 3, "velocity": 96}, {"time": 2398, "pitch": 37, "duration": 16, "velocity": 82}, {"time": 2401, "pitch": 49, "duration": 10, "velocity": 89}, {"time": 2404, "pitch": 52, "duration": 8, "velocity": 66}, {"time": 2407, "pitch": 56, "duration": 4, "velocity": 93}, {"time": 2410, "pitch": 61, "duration": 13, "velocity": 99}, {"time": 2413, "pitch": 49, "duration": 3, "velocity": 79}, {"time": 2416, "pitch": 52, "duration": 6, "velocity": 78}, {"time": 2419, "pitch": 56, "duration": 3, "velocity": 95}, {"time": 2422, "pitch": 39, "duration": 22, "velocity": 70}, {"time": 2425, "pitch": 46, "duration": 19, "velocity": 64}, {"time": 2428, "pitch": 51, "duration": 7, "velocity": 83}, {"time": 2431, "pitch": 55, "duration": 6, "velocity": 78}, {"time": 2434, "pitch": 63, "duration": 12, "velocity": 107}, {"time": 2437, "pitch": 51, "duration": 6, "velocity": 89}, {"time": 2440, "pitch": 58, "duration": 6, "velocity": 117}, {"time": 2443, "pitch": 55, "duration": 3, "velocity": 88}, {"time": 2446, "pitch": 47, "duration": 17, "velocity": 92}, {"time": 2449, "pitch": 54, "duration": 10, "velocity": 112}, {"time": 2452, "pitch": 59, "duration": 3, "velocity": 102}, {"time": 2455, "pitch": 63, "duration": 4, "velocity": 112}, {"time": 2458, "pitch": 66, "duration": 12, "velocity": 117}, {"time": 2461, "pitch": 54, "duration": 2, "velocity": 102}, {"time": 2464, "pitch": 63, "duration": 6, "velocity": 127}, {"time": 2467, "pitch": 59, "duration": 3, "velocity": 96}, {"time": 2470, "pitch": 42, "duration": 18, "velocity": 85}, {"time": 2473, "pitch": 49, "duration": 13, "velocity": 38}, {"time": 2476, "pitch": 54, "duration": 6, "velocity": 86}, {"time": 2479, "pitch": 58, "duration": 5, "velocity": 96}, {"time": 2482, "pitch": 66, "duration": 11, "velocity": 107}, {"time": 2485, "pitch": 54, "duration": 2, "velocity": 97}, {"time": 2488, "pitch": 61, "duration": 4, "velocity": 117}, {"time": 2491, "pitch": 58, "duration": 2, "velocity": 117}, {"time": 2494, "pitch": 40, "duration": 16, "velocity": 78}, {"time": 2497, "pitch": 47, "duration": 14, "velocity": 75}, {"time": 2500, "pitch": 52, "duration": 7, "velocity": 90}, {"time": 2503, "pitch": 59, "duration": 7, "velocity": 89}, {"time": 2506, "pitch": 68, "duration": 12, "velocity": 127}, {"time": 2509, "pitch": 52, "duration": 1, "velocity": 83}, {"time": 2512, "pitch": 64, "duration": 5, "velocity": 93}, {"time": 2515, "pitch": 59, "duration": 3, "velocity": 99}, {"time": 2518, "pitch": 39, "duration": 17, "velocity": 89}, {"time": 2521, "pitch": 46, "duration": 13, "velocity": 52}, {"time": 2524, "pitch": 51, "duration": 6, "velocity": 93}, {"time": 2527, "pitch": 55, "duration": 5, "velocity": 89}, {"time": 2530, "pitch": 63, "duration": 11, "velocity": 117}, {"time": 2533, "pitch": 51, "duration": 3, "velocity": 107}, {"time": 2536, "pitch": 58, "duration": 5, "velocity": 127}, {"time": 2539, "pitch": 55, "duration": 3, "velocity": 96}, {"time": 2542, "pitch": 47, "duration": 16, "velocity": 88}, {"time": 2545, "pitch": 54, "duration": 11, "velocity": 90}, {"time": 2548, "pitch": 59, "duration": 3, "velocity": 97}, {"time": 2551, "pitch": 63, "duration": 3, "velocity": 122}, {"time": 2554, "pitch": 66, "duration": 11, "velocity": 127}, {"time": 2557, "pitch": 54, "duration": 1, "velocity": 99}, {"time": 2560, "pitch": 63, "duration": 5, "velocity": 127}, {"time": 2563, "pitch": 59, "duration": 3, "velocity": 112}, {"time": 2566, "pitch": 42, "duration": 17, "velocity": 88}, {"time": 2569, "pitch": 49, "duration": 13, "velocity": 72}, {"time": 2572, "pitch": 54, "duration": 6, "velocity": 83}, {"time": 2575, "pitch": 58, "duration": 5, "velocity": 96}, {"time": 2578, "pitch": 66, "duration": 9, "velocity": 117}, {"time": 2581, "pitch": 54, "duration": 1, "velocity": 97}, {"time": 2584, "pitch": 61, "duration": 2, "velocity": 107}, {"time": 2587, "pitch": 58, "duration": 3, "velocity": 112}, {"time": 2590, "pitch": 37, "duration": 17, "velocity": 75}, {"time": 2593, "pitch": 44, "duration": 13, "velocity": 35}, {"time": 2596, "pitch": 49, "duration": 6, "velocity": 79}, {"time": 2599, "pitch": 52, "duration": 8, "velocity": 82}, {"time": 2602, "pitch": 61, "duration": 12, "velocity": 112}, {"time": 2605, "pitch": 49, "duration": 2, "velocity": 92}, {"time": 2608, "pitch": 56, "duration": 6, "velocity": 102}, {"time": 2611, "pitch": 52, "duration": 3, "velocity": 93}, {"time": 2614, "pitch": 39, "duration": 20, "velocity": 85}, {"time": 2617, "pitch": 46, "duration": 17, "velocity": 34}, {"time": 2620, "pitch": 51, "duration": 6, "velocity": 81}, {"time": 2623, "pitch": 55, "duration": 6, "velocity": 89}, {"time": 2626, "pitch": 63, "duration": 11, "velocity": 112}, {"time": 2629, "pitch": 51, "duration": 8, "velocity": 90}, {"time": 2632, "pitch": 58, "duration": 5, "velocity": 107}, {"time": 2635, "pitch": 55, "duration": 3, "velocity": 95}, {"time": 2638, "pitch": 39, "duration": 23, "velocity": 85}, {"time": 2641, "pitch": 51, "duration": 9, "velocity": 93}, {"time": 2644, "pitch": 55, "duration": 8, "velocity": 59}, {"time": 2647, "pitch": 58, "duration": 3, "velocity": 96}, {"time": 2650, "pitch": 63, "duration": 10, "velocity": 112}, {"time": 2653, "pitch": 51, "duration": 9, "velocity": 88}, {"time": 2656, "pitch": 58, "duration": 5, "velocity": 93}, {"time": 2659, "pitch": 55, "duration": 9, "velocity": 70}, {"time": 2662, "pitch": 39, "duration": 15, "velocity": 86}, {"time": 2662, "pitch": 58, "duration": 8, "velocity": 97}, {"time": 2662, "pitch": 63, "duration": 10, "velocity": 95}, {"time": 2665, "pitch": 46, "duration": 11, "velocity": 29}, {"time": 2668, "pitch": 51, "duration": 7, "velocity": 72}, {"time": 2671, "pitch": 55, "duration": 5, "velocity": 71}, {"time": 2674, "pitch": 58, "duration": 7, "velocity": 93}, {"time": 2674, "pitch": 63, "duration": 12, "velocity": 100}, {"time": 2677, "pitch": 51, "duration": 2, "velocity": 90}, {"time": 2680, "pitch": 55, "duration": 5, "velocity": 93}, {"time": 2683, "pitch": 58, "duration": 3, "velocity": 82}, {"time": 2686, "pitch": 44, "duration": 18, "velocity": 86}, {"time": 2689, "pitch": 51, "duration": 14, "velocity": 65}, {"time": 2692, "pitch": 56, "duration": 7, "velocity": 86}, {"time": 2695, "pitch": 59, "duration": 7, "velocity": 74}, {"time": 2698, "pitch": 68, "duration": 12, "velocity": 112}, {"time": 2701, "pitch": 56, "duration": 5, "velocity": 95}, {"time": 2704, "pitch": 63, "duration": 5, "velocity": 99}, {"time": 2707, "pitch": 59, "duration": 2, "velocity": 96}, {"time": 2710, "pitch": 49, "duration": 18, "velocity": 90}, {"time": 2713, "pitch": 61, "duration": 10, "velocity": 92}, {"time": 2716, "pitch": 64, "duration": 4, "velocity": 67}, {"time": 2719, "pitch": 68, "duration": 2, "velocity": 100}, {"time": 2722, "pitch": 68, "duration": 7, "velocity": 117}, {"time": 2725, "pitch": 61, "duration": 2, "velocity": 99}, {"time": 2728, "pitch": 64, "duration": 4, "velocity": 95}, {"time": 2731, "pitch": 68, "duration": 3, "velocity": 102}, {"time": 2734, "pitch": 42, "duration": 16, "velocity": 79}, {"time": 2737, "pitch": 49, "duration": 13, "velocity": 63}, {"time": 2740, "pitch": 54, "duration": 7, "velocity": 93}, {"time": 2743, "pitch": 58, "duration": 4, "velocity": 92}, {"time": 2746, "pitch": 61, "duration": 6, "velocity": 102}, {"time": 2749, "pitch": 54, "duration": 3, "velocity": 97}, {"time": 2752, "pitch": 58, "duration": 4, "velocity": 117}, {"time": 2755, "pitch": 61, "duration": 2, "velocity": 107}, {"time": 2758, "pitch": 47, "duration": 9, "velocity": 88}, {"time": 2761, "pitch": 59, "duration": 5, "velocity": 92}, {"time": 2764, "pitch": 66, "duration": 6, "velocity": 102}, {"time": 2767, "pitch": 63, "duration": 3, "velocity": 100}, {"time": 2770, "pitch": 46, "duration": 9, "velocity": 88}, {"time": 2773, "pitch": 58, "duration": 4, "velocity": 90}, {"time": 2776, "pitch": 66, "duration": 5, "velocity": 88}, {"time": 2779, "pitch": 58, "duration": 2, "velocity": 93}, {"time": 2782, "pitch": 40, "duration": 16, "velocity": 72}, {"time": 2785, "pitch": 47, "duration": 14, "velocity": 77}, {"time": 2788, "pitch": 52, "duration": 7, "velocity": 86}, {"time": 2791, "pitch": 59, "duration": 7, "velocity": 81}, {"time": 2794, "pitch": 68, "duration": 12, "velocity": 107}, {"time": 2797, "pitch": 52, "duration": 1, "velocity": 90}, {"time": 2800, "pitch": 64, "duration": 6, "velocity": 86}, {"time": 2803, "pitch": 59, "duration": 3, "velocity": 93}, {"time": 2806, "pitch": 37, "duration": 17, "velocity": 86}, {"time": 2809, "pitch": 49, "duration": 11, "velocity": 97}, {"time": 2812, "pitch": 52, "duration": 9, "velocity": 69}, {"time": 2815, "pitch": 56, "duration": 5, "velocity": 99}, {"time": 2818, "pitch": 61, "duration": 12, "velocity": 107}, {"time": 2821, "pitch": 49, "duration": 5, "velocity": 92}, {"time": 2824, "pitch": 52, "duration": 5, "velocity": 95}, {"time": 2827, "pitch": 56, "duration": 3, "velocity": 112}, {"time": 2830, "pitch": 39, "duration": 22, "velocity": 76}, {"time": 2833, "pitch": 46, "duration": 20, "velocity": 34}, {"time": 2836, "pitch": 51, "duration": 6, "velocity": 77}, {"time": 2839, "pitch": 55, "duration": 5, "velocity": 69}, {"time": 2842, "pitch": 63, "duration": 7, "velocity": 112}, {"time": 2845, "pitch": 51, "duration": 13, "velocity": 96}, {"time": 2848, "pitch": 58, "duration": 2, "velocity": 70}, {"time": 2851, "pitch": 55, "duration": 10, "velocity": 89}, {"time": 2851, "pitch": 58, "duration": 10, "velocity": 107}, {"time": 2851, "pitch": 63, "duration": 10, "velocity": 100}, {"time": 2854, "pitch": 39, "duration": 17, "velocity": 82}, {"time": 2857, "pitch": 46, "duration": 13, "velocity": 46}, {"time": 2860, "pitch": 51, "duration": 7, "velocity": 95}, {"time": 2863, "pitch": 55, "duration": 2, "velocity": 66}, {"time": 2863, "pitch": 58, "duration": 2, "velocity": 83}, {"time": 2863, "pitch": 63, "duration": 2, "velocity": 90}, {"time": 2866, "pitch": 55, "duration": 1, "velocity": 62}, {"time": 2866, "pitch": 58, "duration": 5, "velocity": 112}, {"time": 2866, "pitch": 63, "duration": 12, "velocity": 99}, {"time": 2869, "pitch": 51, "duration": 4, "velocity": 99}, {"time": 2872, "pitch": 55, "duration": 5, "velocity": 102}, {"time": 2875, "pitch": 58, "duration": 3, "velocity": 117}, {"time": 2878, "pitch": 44, "duration": 20, "velocity": 72}, {"time": 2881, "pitch": 51, "duration": 15, "velocity": 34}, {"time": 2884, "pitch": 56, "duration": 7, "velocity": 90}, {"time": 2887, "pitch": 59, "duration": 7, "velocity": 77}, {"time": 2890, "pitch": 68, "duration": 12, "velocity": 122}, {"time": 2893, "pitch": 56, "duration": 3, "velocity": 95}, {"time": 2896, "pitch": 63, "duration": 6, "velocity": 107}, {"time": 2899, "pitch": 59, "duration": 3, "velocity": 99}, {"time": 2902, "pitch": 37, "duration": 15, "velocity": 102}, {"time": 2905, "pitch": 49, "duration": 9, "velocity": 86}, {"time": 2908, "pitch": 52, "duration": 8, "velocity": 78}, {"time": 2911, "pitch": 56, "duration": 4, "velocity": 107}, {"time": 2914, "pitch": 61, "duration": 11, "velocity": 107}, {"time": 2917, "pitch": 49, "duration": 3, "velocity": 86}, {"time": 2920, "pitch": 52, "duration": 5, "velocity": 88}, {"time": 2923, "pitch": 56, "duration": 3, "velocity": 117}, {"time": 2926, "pitch": 42, "duration": 16, "velocity": 88}, {"time": 2929, "pitch": 49, "duration": 13, "velocity": 68}, {"time": 2932, "pitch": 54, "duration": 6, "velocity": 88}, {"time": 2935, "pitch": 58, "duration": 5, "velocity": 77}, {"time": 2938, "pitch": 66, "duration": 11, "velocity": 99}, {"time": 2941, "pitch": 54, "duration": 3, "velocity": 90}, {"time": 2944, "pitch": 61, "duration": 5, "velocity": 100}, {"time": 2947, "pitch": 58, "duration": 2, "velocity": 97}, {"time": 2950, "pitch": 47, "duration": 9, "velocity": 90}, {"time": 2953, "pitch": 59, "duration": 5, "velocity": 90}, {"time": 2956, "pitch": 66, "duration": 6, "velocity": 102}, {"time": 2959, "pitch": 63, "duration": 3, "velocity": 112}, {"time": 2962, "pitch": 46, "duration": 9, "velocity": 92}, {"time": 2965, "pitch": 58, "duration": 5, "velocity": 81}, {"time": 2968, "pitch": 66, "duration": 5, "velocity": 88}, {"time": 2971, "pitch": 58, "duration": 2, "velocity": 95}, {"time": 2974, "pitch": 40, "duration": 17, "velocity": 89}, {"time": 2977, "pitch": 47, "duration": 14, "velocity": 69}, {"time": 2980, "pitch": 52, "duration": 7, "velocity": 85}, {"time": 2983, "pitch": 59, "duration": 7, "velocity": 85}, {"time": 2986, "pitch": 68, "duration": 12, "velocity": 127}, {"time": 2989, "pitch": 52, "duration": 1, "velocity": 88}, {"time": 2992, "pitch": 64, "duration": 6, "velocity": 88}, {"time": 2995, "pitch": 59, "duration": 4, "velocity": 83}, {"time": 2998, "pitch": 37, "duration": 17, "velocity": 59}, {"time": 3001, "pitch": 44, "duration": 14, "velocity": 39}, {"time": 3004, "pitch": 49, "duration": 7, "velocity": 82}, {"time": 3007, "pitch": 52, "duration": 7, "velocity": 83}, {"time": 3010, "pitch": 61, "duration": 11, "velocity": 97}, {"time": 3013, "pitch": 49, "duration": 4, "velocity": 88}, {"time": 3016, "pitch": 56, "duration": 5, "velocity": 102}, {"time": 3019, "pitch": 52, "duration": 2, "velocity": 89}, {"time": 3022, "pitch": 39, "duration": 29, "velocity": 75}, {"time": 3025, "pitch": 46, "duration": 25, "velocity": 53}, {"time": 3028, "pitch": 51, "duration": 7, "velocity": 90}, {"time": 3031, "pitch": 55, "duration": 7, "velocity": 74}, {"time": 3034, "pitch": 63, "duration": 9, "velocity": 112}, {"time": 3037, "pitch": 51, "duration": 6, "velocity": 93}, {"time": 3040, "pitch": 58, "duration": 4, "velocity": 100}, {"time": 3043, "pitch": 55, "duration": 7, "velocity": 77}, {"time": 3046, "pitch": 51, "duration": 4, "velocity": 107}, {"time": 3049, "pitch": 58, "duration": 4, "velocity": 96}, {"time": 3049, "pitch": 63, "duration": 5, "velocity": 93}, {"time": 3052, "pitch": 55, "duration": 3, "velocity": 100}, {"time": 3058, "pitch": 40, "duration": 12, "velocity": 65}, {"time": 3058, "pitch": 47, "duration": 12, "velocity": 72}, {"time": 3058, "pitch": 52, "duration": 12, "velocity": 102}, {"time": 3058, "pitch": 59, "duration": 12, "velocity": 100}, {"time": 3058, "pitch": 64, "duration": 12, "velocity": 102}, {"time": 3058, "pitch": 68, "duration": 12, "velocity": 102}, {"time": 3070, "pitch": 45, "duration": 20, "velocity": 102}, {"time": 3073, "pitch": 52, "duration": 16, "velocity": 85}, {"time": 3076, "pitch": 57, "duration": 7, "velocity": 99}, {"time": 3079, "pitch": 64, "duration": 4, "velocity": 89}, {"time": 3082, "pitch": 69, "duration": 7, "velocity": 90}, {"time": 3082, "pitch": 72, "duration": 12, "velocity": 127}, {"time": 3085, "pitch": 57, "duration": 2, "velocity": 99}, {"time": 3088, "pitch": 64, "duration": 7, "velocity": 100}, {"time": 3091, "pitch": 69, "duration": 3, "velocity": 107}, {"time": 3094, "pitch": 38, "duration": 17, "velocity": 75}, {"time": 3097, "pitch": 45, "duration": 15, "velocity": 92}, {"time": 3100, "pitch": 50, "duration": 7, "velocity": 93}, {"time": 3103, "pitch": 62, "duration": 6, "velocity": 95}, {"time": 3106, "pitch": 69, "duration": 11, "velocity": 122}, {"time": 3109, "pitch": 50, "duration": 8, "velocity": 79}, {"time": 3112, "pitch": 65, "duration": 4, "velocity": 97}, {"time": 3115, "pitch": 62, "duration": 5, "velocity": 97}, {"time": 3118, "pitch": 43, "duration": 19, "velocity": 79}, {"time": 3121, "pitch": 50, "duration": 17, "velocity": 63}, {"time": 3124, "pitch": 55, "duration": 8, "velocity": 93}, {"time": 3127, "pitch": 62, "duration": 7, "velocity": 93}, {"time": 3130, "pitch": 71, "duration": 12, "velocity": 102}, {"time": 3133, "pitch": 55, "duration": 5, "velocity": 90}, {"time": 3136, "pitch": 67, "duration": 6, "velocity": 102}, {"time": 3139, "pitch": 62, "duration": 3, "velocity": 102}, {"time": 3142, "pitch": 48, "duration": 10, "velocity": 79}, {"time": 3145, "pitch": 55, "duration": 7, "velocity": 89}, {"time": 3148, "pitch": 60, "duration": 3, "velocity": 99}, {"time": 3151, "pitch": 64, "duration": 3, "velocity": 100}, {"time": 3154, "pitch": 47, "duration": 10, "velocity": 100}, {"time": 3157, "pitch": 59, "duration": 4, "velocity": 99}, {"time": 3160, "pitch": 60, "duration": 5, "velocity": 89}, {"time": 3163, "pitch": 59, "duration": 3, "velocity": 86}, {"time": 3166, "pitch": 41, "duration": 21, "velocity": 86}, {"time": 3169, "pitch": 48, "duration": 17, "velocity": 82}, {"time": 3172, "pitch": 53, "duration": 7, "velocity": 92}, {"time": 3175, "pitch": 57, "duration": 4, "velocity": 93}, {"time": 3178, "pitch": 60, "duration": 7, "velocity": 102}, {"time": 3181, "pitch": 53, "duration": 3, "velocity": 88}, {"time": 3184, "pitch": 57, "duration": 4, "velocity": 96}, {"time": 3187, "pitch": 60, "duration": 3, "velocity": 97}, {"time": 3190, "pitch": 38, "duration": 22, "velocity": 81}, {"time": 3193, "pitch": 45, "duration": 21, "velocity": 76}, {"time": 3196, "pitch": 50, "duration": 7, "velocity": 86}, {"time": 3199, "pitch": 57, "duration": 5, "velocity": 79}, {"time": 3202, "pitch": 62, "duration": 7, "velocity": 89}, {"time": 3202, "pitch": 65, "duration": 7, "velocity": 97}, {"time": 3205, "pitch": 50, "duration": 3, "velocity": 93}, {"time": 3208, "pitch": 57, "duration": 5, "velocity": 97}, {"time": 3211, "pitch": 62, "duration": 2, "velocity": 82}, {"time": 3211, "pitch": 65, "duration": 3, "velocity": 73}, {"time": 3214, "pitch": 40, "duration": 22, "velocity": 86}, {"time": 3217, "pitch": 47, "duration": 21, "velocity": 69}, {"time": 3220, "pitch": 52, "duration": 7, "velocity": 86}, {"time": 3223, "pitch": 59, "duration": 5, "velocity": 82}, {"time": 3226, "pitch": 64, "duration": 7, "velocity": 97}, {"time": 3226, "pitch": 68, "duration": 7, "velocity": 122}, {"time": 3229, "pitch": 52, "duration": 3, "velocity": 93}, {"time": 3232, "pitch": 59, "duration": 7, "velocity": 77}, {"time": 3235, "pitch": 64, "duration": 4, "velocity": 88}, {"time": 3235, "pitch": 68, "duration": 4, "velocity": 99}, {"time": 3238, "pitch": 40, "duration": 17, "velocity": 81}, {"time": 3241, "pitch": 47, "duration": 14, "velocity": 72}, {"time": 3244, "pitch": 52, "duration": 7, "velocity": 95}, {"time": 3247, "pitch": 64, "duration": 2, "velocity": 68}, {"time": 3247, "pitch": 68, "duration": 2, "velocity": 92}, {"time": 3247, "pitch": 71, "duration": 2, "velocity": 81}, {"time": 3250, "pitch": 64, "duration": 1, "velocity": 66}, {"time": 3250, "pitch": 68, "duration": 7, "velocity": 127}, {"time": 3250, "pitch": 70, "duration": 1, "velocity": 96}, {"time": 3250, "pitch": 71, "duration": 12, "velocity": 127}, {"time": 3253, "pitch": 52, "duration": 7, "velocity": 102}, {"time": 3256, "pitch": 64, "duration": 8, "velocity": 100}, {"time": 3259, "pitch": 68, "duration": 3, "velocity": 127}, {"time": 3262, "pitch": 45, "duration": 18, "velocity": 72}, {"time": 3265, "pitch": 52, "duration": 11, "velocity": 76}, {"time": 3268, "pitch": 57, "duration": 6, "velocity": 100}, {"time": 3271, "pitch": 64, "duration": 6, "velocity": 93}, {"time": 3274, "pitch": 72, "duration": 10, "velocity": 117}, {"time": 3277, "pitch": 52, "duration": 2, "velocity": 89}, {"time": 3280, "pitch": 69, "duration": 5, "velocity": 102}, {"time": 3283, "pitch": 64, "duration": 3, "velocity": 102}, {"time": 3286, "pitch": 38, "duration": 17, "velocity": 81}, {"time": 3289, "pitch": 45, "duration": 14, "velocity": 74}, {"time": 3292, "pitch": 50, "duration": 8, "velocity": 88}, {"time": 3295, "pitch": 62, "duration": 5, "velocity": 92}, {"time": 3298, "pitch": 69, "duration": 10, "velocity": 117}, {"time": 3301, "pitch": 50, "duration": 7, "velocity": 88}, {"time": 3304, "pitch": 65, "duration": 5, "velocity": 96}, {"time": 3307, "pitch": 62, "duration": 4, "velocity": 100}, {"time": 3310, "pitch": 43, "duration": 18, "velocity": 69}, {"time": 3313, "pitch": 50, "duration": 15, "velocity": 89}, {"time": 3316, "pitch": 55, "duration": 8, "velocity": 95}, {"time": 3319, "pitch": 62, "duration": 5, "velocity": 95}, {"time": 3322, "pitch": 71, "duration": 10, "velocity": 122}, {"time": 3325, "pitch": 55, "duration": 2, "velocity": 90}, {"time": 3328, "pitch": 67, "duration": 4, "velocity": 102}, {"time": 3331, "pitch": 62, "duration": 4, "velocity": 102}, {"time": 3334, "pitch": 36, "duration": 17, "velocity": 73}, {"time": 3337, "pitch": 43, "duration": 14, "velocity": 71}, {"time": 3340, "pitch": 48, "duration": 7, "velocity": 93}, {"time": 3343, "pitch": 60, "duration": 6, "velocity": 92}, {"time": 3346, "pitch": 67, "duration": 11, "velocity": 117}, {"time": 3349, "pitch": 48, "duration": 8, "velocity": 96}, {"time": 3352, "pitch": 64, "duration": 5, "velocity": 122}, {"time": 3355, "pitch": 60, "duration": 4, "velocity": 100}, {"time": 3358, "pitch": 41, "duration": 19, "velocity": 79}, {"time": 3361, "pitch": 48, "duration": 15, "velocity": 75}, {"time": 3364, "pitch": 53, "duration": 7, "velocity": 86}, {"time": 3367, "pitch": 60, "duration": 5, "velocity": 92}, {"time": 3370, "pitch": 65, "duration": 8, "velocity": 85}, {"time": 3370, "pitch": 69, "duration": 8, "velocity": 99}, {"time": 3373, "pitch": 53, "duration": 2, "velocity": 95}, {"time": 3376, "pitch": 60, "duration": 6, "velocity": 92}, {"time": 3379, "pitch": 65, "duration": 4, "velocity": 90}, {"time": 3379, "pitch": 69, "duration": 4, "velocity": 99}, {"time": 3382, "pitch": 38, "duration": 22, "velocity": 74}, {"time": 3385, "pitch": 45, "duration": 21, "velocity": 89}, {"time": 3388, "pitch": 50, "duration": 7, "velocity": 88}, {"time": 3391, "pitch": 62, "duration": 3, "velocity": 81}, {"time": 3394, "pitch": 65, "duration": 7, "velocity": 95}, {"time": 3394, "pitch": 69, "duration": 7, "velocity": 99}, {"time": 3397, "pitch": 50, "duration": 3, "velocity": 95}, {"time": 3400, "pitch": 62, "duration": 6, "velocity": 92}, {"time": 3403, "pitch": 65, "duration": 3, "velocity": 85}, {"time": 3403, "pitch": 69, "duration": 3, "velocity": 79}, {"time": 3406, "pitch": 40, "duration": 22, "velocity": 81}, {"time": 3409, "pitch": 47, "duration": 45, "velocity": 74}, {"time": 3412, "pitch": 52, "duration": 7, "velocity": 86}, {"time": 3415, "pitch": 64, "duration": 6, "velocity": 89}, {"time": 3418, "pitch": 71, "duration": 10, "velocity": 112}, {"time": 3421, "pitch": 52, "duration": 4, "velocity": 83}, {"time": 3424, "pitch": 68, "duration": 4, "velocity": 95}, {"time": 3427, "pitch": 64, "duration": 3, "velocity": 89}, {"time": 3430, "pitch": 40, "duration": 23, "velocity": 66}, {"time": 3430, "pitch": 64, "duration": 23, "velocity": 58}, {"time": 3430, "pitch": 68, "duration": 11, "velocity": 74}, {"time": 3430, "pitch": 71, "duration": 11, "velocity": 79}, {"time": 3436, "pitch": 52, "duration": 7, "velocity": 72}, {"time": 3442, "pitch": 68, "duration": 11, "velocity": 100}, {"time": 3442, "pitch": 71, "duration": 11, "velocity": 97}, {"time": 3448, "pitch": 52, "duration": 5, "velocity": 86}, {"time": 3454, "pitch": 40, "duration": 61, "velocity": 59}, {"time": 3454, "pitch": 47, "duration": 61, "velocity": 52}, {"time": 3454, "pitch": 52, "duration": 61, "velocity": 70}, {"time": 3454, "pitch": 64, "duration": 62, "velocity": 88}, {"time": 3454, "pitch": 68, "duration": 61, "velocity": 95}, {"time": 3454, "pitch": 71, "duration": 61, "velocity": 81}, {"time": 3550, "pitch": 45, "duration": 18, "velocity": 67}, {"time": 3555, "pitch": 52, "duration": 13, "velocity": 44}, {"time": 3562, "pitch": 57, "duration": 4, "velocity": 40}, {"time": 3562, "pitch": 72, "duration": 13, "velocity": 56}, {"time": 3562, "pitch": 69, "duration": 13, "velocity": 55}, {"time": 3568, "pitch": 64, "duration": 8, "velocity": 57}, {"time": 3574, "pitch": 41, "duration": 20, "velocity": 60}, {"time": 3580, "pitch": 48, "duration": 14, "velocity": 47}, {"time": 3587, "pitch": 65, "duration": 19, "velocity": 58}, {"time": 3587, "pitch": 69, "duration": 16, "velocity": 57}, {"time": 3594, "pitch": 60, "duration": 8, "velocity": 58}, {"time": 3600, "pitch": 40, "duration": 67, "velocity": 65}, {"time": 3606, "pitch": 47, "duration": 59, "velocity": 56}, {"time": 3613, "pitch": 52, "duration": 50, "velocity": 63}, {"time": 3620, "pitch": 56, "duration": 7, "velocity": 67}, {"time": 3626, "pitch": 59, "duration": 3, "velocity": 66}], "annotations": [{"time": 23, "annotation": {"number": 64, "value": 127}, "group": "control_change"}, {"time": 45, "annotation": {"number": 64, "value": 0}, "group": "control_change"}, {"time": 47, "annotation": {"number": 64, "value": 127}, "group": "control_change"}, {"time": 69, "annotation": {"number": 64, "value": 0}, "group": "control_change"}, {"time": 71, "annotation": {"number": 64, "value": 127}, "group": "control_change"}, {"time": 93, "annotation": {"number": 64, "value": 0}, "group": "control_change"}, {"time": 94, "annotation": {"number": 64, "value": 127}, "group": "control_change"}, {"time": 120, "annotation": {"number": 64, "value": 127}, "group": "control_change"}, {"time": 141, "annotation": {"number": 64, "value": 0}, "group": "control_change"}, {"time": 143, "annotation": {"number": 64, "value": 127}, "group": "control_change"}, {"time": 165, "annotation": {"number": 64, "value": 0}, "group": "control_change"}, {"time": 167, "annotation": {"number": 64, "value": 127}, "group": "control_change"}, {"time": 212, "annotation": {"number": 64, "value": 0}, "group": "control_change"}, {"time": 214, "annotation": {"number": 64, "value": 127}, "group": "control_change"}, {"time": 237, "annotation": {"number": 64, "value": 0}, "group": "control_change"}, {"time": 238, "annotation": {"number": 64, "value": 127}, "group": "control_change"}, {"time": 260, "annotation": {"number": 64, "value": 0}, "group": "control_change"}, {"time": 262, "annotation": {"number": 64, "value": 127}, "group": "control_change"}, {"time": 309, "annotation": {"number": 64, "value": 0}, "group": "control_change"}, {"time": 311, "annotation": {"number": 64, "value": 127}, "group": "control_change"}, {"time": 332, "annotation": {"number": 64, "value": 0}, "group": "control_change"}, {"time": 335, "annotation": {"number": 64, "value": 127}, "group": "control_change"}, {"time": 356, "annotation": {"number": 64, "value": 0}, "group": "control_change"}, {"time": 358, "annotation": {"number": 64, "value": 127}, "group": "control_change"}, {"time": 380, "annotation": {"number": 64, "value": 0}, "group": "control_change"}, {"time": 382, "annotation": {"number": 64, "value": 127}, "group": "control_change"}, {"time": 404, "annotation": {"number": 64, "value": 0}, "group": "control_change"}, {"time": 407, "annotation": {"number": 64, "value": 127}, "group": "control_change"}, {"time": 453, "annotation": {"number": 64, "value": 0}, "group": "control_change"}, {"time": 455, "annotation": {"number": 64, "value": 127}, "group": "control_change"}, {"time": 497, "annotation": {"number": 64, "value": 0}, "group": "control_change"}, {"time": 502, "annotation": {"number": 64, "value": 127}, "group": "control_change"}, {"time": 525, "annotation": {"number": 64, "value": 0}, "group": "control_change"}, {"time": 526, "annotation": {"number": 64, "value": 127}, "group": "control_change"}, {"time": 548, "annotation": {"number": 64, "value": 0}, "group": "control_change"}, {"time": 550, "annotation": {"number": 64, "value": 127}, "group": "control_change"}, {"time": 573, "annotation": {"number": 64, "value": 0}, "group": "control_change"}, {"time": 574, "annotation": {"number": 64, "value": 127}, "group": "control_change"}, {"time": 597, "annotation": {"number": 64, "value": 0}, "group": "control_change"}, {"time": 599, "annotation": {"number": 64, "value": 127}, "group": "control_change"}, {"time": 623, "annotation": {"number": 64, "value": 127}, "group": "control_change"}, {"time": 644, "annotation": {"number": 64, "value": 0}, "group": "control_change"}, {"time": 646, "annotation": {"number": 64, "value": 127}, "group": "control_change"}, {"time": 669, "annotation": {"number": 64, "value": 0}, "group": "control_change"}, {"time": 670, "annotation": {"number": 64, "value": 127}, "group": "control_change"}, {"time": 685, "annotation": {"number": 64, "value": 0}, "group": "control_change"}, {"time": 695, "annotation": {"number": 64, "value": 127}, "group": "control_change"}, {"time": 717, "annotation": {"number": 64, "value": 0}, "group": "control_change"}, {"time": 719, "annotation": {"number": 64, "value": 127}, "group": "control_change"}, {"time": 740, "annotation": {"number": 64, "value": 0}, "group": "control_change"}, {"time": 742, "annotation": {"number": 64, "value": 127}, "group": "control_change"}, {"time": 765, "annotation": {"number": 64, "value": 0}, "group": "control_change"}, {"time": 767, "annotation": {"number": 64, "value": 127}, "group": "control_change"}, {"time": 788, "annotation": {"number": 64, "value": 0}, "group": "control_change"}, {"time": 791, "annotation": {"number": 64, "value": 127}, "group": "control_change"}, {"time": 813, "annotation": {"number": 64, "value": 0}, "group": "control_change"}, {"time": 814, "annotation": {"number": 64, "value": 127}, "group": "control_change"}, {"time": 836, "annotation": {"number": 64, "value": 0}, "group": "control_change"}, {"time": 838, "annotation": {"number": 64, "value": 127}, "group": "control_change"}, {"time": 860, "annotation": {"number": 64, "value": 0}, "group": "control_change"}, {"time": 867, "annotation": {"number": 64, "value": 127}, "group": "control_change"}, {"time": 869, "annotation": {"number": 64, "value": 0}, "group": "control_change"}, {"time": 874, "annotation": {"number": 64, "value": 127}, "group": "control_change"}, {"time": 885, "annotation": {"number": 64, "value": 0}, "group": "control_change"}, {"time": 886, "annotation": {"number": 64, "value": 127}, "group": "control_change"}, {"time": 888, "annotation": {"number": 64, "value": 0}, "group": "control_change"}, {"time": 890, "annotation": {"number": 64, "value": 127}, "group": "control_change"}, {"time": 909, "annotation": {"number": 64, "value": 0}, "group": "control_change"}, {"time": 910, "annotation": {"number": 64, "value": 127}, "group": "control_change"}, {"time": 933, "annotation": {"number": 64, "value": 0}, "group": "control_change"}, {"time": 935, "annotation": {"number": 64, "value": 127}, "group": "control_change"}, {"time": 955, "annotation": {"number": 64, "value": 0}, "group": "control_change"}, {"time": 958, "annotation": {"number": 64, "value": 127}, "group": "control_change"}, {"time": 969, "annotation": {"number": 64, "value": 0}, "group": "control_change"}, {"time": 983, "annotation": {"number": 64, "value": 127}, "group": "control_change"}, {"time": 1005, "annotation": {"number": 64, "value": 0}, "group": "control_change"}, {"time": 1031, "annotation": {"number": 64, "value": 127}, "group": "control_change"}, {"time": 1052, "annotation": {"number": 64, "value": 0}, "group": "control_change"}, {"time": 1054, "annotation": {"number": 64, "value": 127}, "group": "control_change"}, {"time": 1073, "annotation": {"number": 64, "value": 0}, "group": "control_change"}, {"time": 1078, "annotation": {"number": 64, "value": 127}, "group": "control_change"}, {"time": 1080, "annotation": {"number": 64, "value": 0}, "group": "control_change"}, {"time": 1082, "annotation": {"number": 64, "value": 127}, "group": "control_change"}, {"time": 1101, "annotation": {"number": 64, "value": 0}, "group": "control_change"}, {"time": 1102, "annotation": {"number": 64, "value": 127}, "group": "control_change"}, {"time": 1125, "annotation": {"number": 64, "value": 0}, "group": "control_change"}, {"time": 1127, "annotation": {"number": 64, "value": 127}, "group": "control_change"}, {"time": 1147, "annotation": {"number": 64, "value": 0}, "group": "control_change"}, {"time": 1150, "annotation": {"number": 64, "value": 127}, "group": "control_change"}, {"time": 1161, "annotation": {"number": 64, "value": 0}, "group": "control_change"}, {"time": 1175, "annotation": {"number": 64, "value": 127}, "group": "control_change"}, {"time": 1197, "annotation": {"number": 64, "value": 0}, "group": "control_change"}, {"time": 1223, "annotation": {"number": 64, "value": 127}, "group": "control_change"}, {"time": 1244, "annotation": {"number": 64, "value": 0}, "group": "control_change"}, {"time": 1246, "annotation": {"number": 64, "value": 127}, "group": "control_change"}, {"time": 1265, "annotation": {"number": 64, "value": 0}, "group": "control_change"}, {"time": 1271, "annotation": {"number": 64, "value": 127}, "group": "control_change"}, {"time": 1292, "annotation": {"number": 64, "value": 0}, "group": "control_change"}, {"time": 1294, "annotation": {"number": 64, "value": 127}, "group": "control_change"}, {"time": 1317, "annotation": {"number": 64, "value": 0}, "group": "control_change"}, {"time": 1319, "annotation": {"number": 64, "value": 127}, "group": "control_change"}, {"time": 1341, "annotation": {"number": 64, "value": 0}, "group": "control_change"}, {"time": 1343, "annotation": {"number": 64, "value": 127}, "group": "control_change"}, {"time": 1365, "annotation": {"number": 64, "value": 0}, "group": "control_change"}, {"time": 1367, "annotation": {"number": 64, "value": 127}, "group": "control_change"}, {"time": 1369, "annotation": {"number": 64, "value": 0}, "group": "control_change"}, {"time": 1370, "annotation": {"number": 64, "value": 127}, "group": "control_change"}, {"time": 1388, "annotation": {"number": 64, "value": 0}, "group": "control_change"}, {"time": 1391, "annotation": {"number": 64, "value": 127}, "group": "control_change"}, {"time": 1411, "annotation": {"number": 64, "value": 0}, "group": "control_change"}, {"time": 1415, "annotation": {"number": 64, "value": 127}, "group": "control_change"}, {"time": 1436, "annotation": {"number": 64, "value": 0}, "group": "control_change"}, {"time": 1439, "annotation": {"number": 64, "value": 127}, "group": "control_change"}, {"time": 1460, "annotation": {"number": 64, "value": 0}, "group": "control_change"}, {"time": 1509, "annotation": {"number": 64, "value": 0}, "group": "control_change"}, {"time": 1510, "annotation": {"number": 64, "value": 127}, "group": "control_change"}, {"time": 1532, "annotation": {"number": 64, "value": 0}, "group": "control_change"}, {"time": 1534, "annotation": {"number": 64, "value": 127}, "group": "control_change"}, {"time": 1557, "annotation": {"number": 64, "value": 0}, "group": "control_change"}, {"time": 1558, "annotation": {"number": 64, "value": 127}, "group": "control_change"}, {"time": 1581, "annotation": {"number": 64, "value": 0}, "group": "control_change"}, {"time": 1583, "annotation": {"number": 64, "value": 127}, "group": "control_change"}, {"time": 1607, "annotation": {"number": 64, "value": 127}, "group": "control_change"}, {"time": 1628, "annotation": {"number": 64, "value": 0}, "group": "control_change"}, {"time": 1630, "annotation": {"number": 64, "value": 127}, "group": "control_change"}, {"time": 1653, "annotation": {"number": 64, "value": 0}, "group": "control_change"}, {"time": 1654, "annotation": {"number": 64, "value": 127}, "group": "control_change"}, {"time": 1669, "annotation": {"number": 64, "value": 0}, "group": "control_change"}, {"time": 1679, "annotation": {"number": 64, "value": 127}, "group": "control_change"}, {"time": 1701, "annotation": {"number": 64, "value": 0}, "group": "control_change"}, {"time": 1703, "annotation": {"number": 64, "value": 127}, "group": "control_change"}, {"time": 1724, "annotation": {"number": 64, "value": 0}, "group": "control_change"}, {"time": 1726, "annotation": {"number": 64, "value": 127}, "group": "control_change"}, {"time": 1749, "annotation": {"number": 64, "value": 0}, "group": "control_change"}, {"time": 1751, "annotation": {"number": 64, "value": 127}, "group": "control_change"}, {"time": 1772, "annotation": {"number": 64, "value": 0}, "group": "control_change"}, {"time": 1775, "annotation": {"number": 64, "value": 127}, "group": "control_change"}, {"time": 1797, "annotation": {"number": 64, "value": 0}, "group": "control_change"}, {"time": 1798, "annotation": {"number": 64, "value": 127}, "group": "control_change"}, {"time": 1820, "annotation": {"number": 64, "value": 0}, "group": "control_change"}, {"time": 1822, "annotation": {"number": 64, "value": 127}, "group": "control_change"}, {"time": 1844, "annotation": {"number": 64, "value": 0}, "group": "control_change"}, {"time": 1851, "annotation": {"number": 64, "value": 127}, "group": "control_change"}, {"time": 1853, "annotation": {"number": 64, "value": 0}, "group": "control_change"}, {"time": 1858, "annotation": {"number": 64, "value": 127}, "group": "control_change"}, {"time": 1869, "annotation": {"number": 64, "value": 0}, "group": "control_change"}, {"time": 1870, "annotation": {"number": 64, "value": 127}, "group": "control_change"}, {"time": 1872, "annotation": {"number": 64, "value": 0}, "group": "control_change"}, {"time": 1874, "annotation": {"number": 64, "value": 127}, "group": "control_change"}, {"time": 1893, "annotation": {"number": 64, "value": 0}, "group": "control_change"}, {"time": 1894, "annotation": {"number": 64, "value": 127}, "group": "control_change"}, {"time": 1917, "annotation": {"number": 64, "value": 0}, "group": "control_change"}, {"time": 1919, "annotation": {"number": 64, "value": 127}, "group": "control_change"}, {"time": 1939, "annotation": {"number": 64, "value": 0}, "group": "control_change"}, {"time": 1942, "annotation": {"number": 64, "value": 127}, "group": "control_change"}, {"time": 1953, "annotation": {"number": 64, "value": 0}, "group": "control_change"}, {"time": 1967, "annotation": {"number": 64, "value": 127}, "group": "control_change"}, {"time": 1989, "annotation": {"number": 64, "value": 0}, "group": "control_change"}, {"time": 2015, "annotation": {"number": 64, "value": 127}, "group": "control_change"}, {"time": 2036, "annotation": {"number": 64, "value": 0}, "group": "control_change"}, {"time": 2038, "annotation": {"number": 64, "value": 127}, "group": "control_change"}, {"time": 2057, "annotation": {"number": 64, "value": 0}, "group": "control_change"}, {"time": 2062, "annotation": {"number": 64, "value": 127}, "group": "control_change"}, {"time": 2064, "annotation": {"number": 64, "value": 0}, "group": "control_change"}, {"time": 2066, "annotation": {"number": 64, "value": 127}, "group": "control_change"}, {"time": 2085, "annotation": {"number": 64, "value": 0}, "group": "control_change"}, {"time": 2086, "annotation": {"number": 64, "value": 127}, "group": "control_change"}, {"time": 2109, "annotation": {"number": 64, "value": 0}, "group": "control_change"}, {"time": 2111, "annotation": {"number": 64, "value": 127}, "group": "control_change"}, {"time": 2131, "annotation": {"number": 64, "value": 0}, "group": "control_change"}, {"time": 2134, "annotation": {"number": 64, "value": 127}, "group": "control_change"}, {"time": 2145, "annotation": {"number": 64, "value": 0}, "group": "control_change"}, {"time": 2159, "annotation": {"number": 64, "value": 127}, "group": "control_change"}, {"time": 2181, "annotation": {"number": 64, "value": 0}, "group": "control_change"}, {"time": 2207, "annotation": {"number": 64, "value": 127}, "group": "control_change"}, {"time": 2228, "annotation": {"number": 64, "value": 0}, "group": "control_change"}, {"time": 2230, "annotation": {"number": 64, "value": 127}, "group": "control_change"}, {"time": 2249, "annotation": {"number": 64, "value": 0}, "group": "control_change"}, {"time": 2255, "annotation": {"number": 64, "value": 127}, "group": "control_change"}, {"time": 2276, "annotation": {"number": 64, "value": 0}, "group": "control_change"}, {"time": 2278, "annotation": {"number": 64, "value": 127}, "group": "control_change"}, {"time": 2279, "annotation": {"number": 64, "value": 0}, "group": "control_change"}, {"time": 2300, "annotation": {"number": 64, "value": 0}, "group": "control_change"}, {"time": 2302, "annotation": {"number": 64, "value": 127}, "group": "control_change"}, {"time": 2325, "annotation": {"number": 64, "value": 0}, "group": "control_change"}, {"time": 2327, "annotation": {"number": 64, "value": 127}, "group": "control_change"}, {"time": 2349, "annotation": {"number": 64, "value": 0}, "group": "control_change"}, {"time": 2350, "annotation": {"number": 64, "value": 127}, "group": "control_change"}, {"time": 2353, "annotation": {"number": 64, "value": 0}, "group": "control_change"}, {"time": 2353, "annotation": {"number": 64, "value": 127}, "group": "control_change"}, {"time": 2373, "annotation": {"number": 64, "value": 0}, "group": "control_change"}, {"time": 2374, "annotation": {"number": 64, "value": 127}, "group": "control_change"}, {"time": 2397, "annotation": {"number": 64, "value": 0}, "group": "control_change"}, {"time": 2401, "annotation": {"number": 64, "value": 127}, "group": "control_change"}, {"time": 2421, "annotation": {"number": 64, "value": 0}, "group": "control_change"}, {"time": 2423, "annotation": {"number": 64, "value": 127}, "group": "control_change"}, {"time": 2443, "annotation": {"number": 64, "value": 0}, "group": "control_change"}, {"time": 2447, "annotation": {"number": 64, "value": 127}, "group": "control_change"}, {"time": 2468, "annotation": {"number": 64, "value": 0}, "group": "control_change"}, {"time": 2470, "annotation": {"number": 64, "value": 127}, "group": "control_change"}, {"time": 2492, "annotation": {"number": 64, "value": 0}, "group": "control_change"}, {"time": 2494, "annotation": {"number": 64, "value": 127}, "group": "control_change"}, {"time": 2517, "annotation": {"number": 64, "value": 0}, "group": "control_change"}, {"time": 2518, "annotation": {"number": 64, "value": 127}, "group": "control_change"}, {"time": 2540, "annotation": {"number": 64, "value": 0}, "group": "control_change"}, {"time": 2543, "annotation": {"number": 64, "value": 127}, "group": "control_change"}, {"time": 2564, "annotation": {"number": 64, "value": 0}, "group": "control_change"}, {"time": 2566, "annotation": {"number": 64, "value": 127}, "group": "control_change"}, {"time": 2589, "annotation": {"number": 64, "value": 0}, "group": "control_change"}, {"time": 2590, "annotation": {"number": 64, "value": 127}, "group": "control_change"}, {"time": 2613, "annotation": {"number": 64, "value": 0}, "group": "control_change"}, {"time": 2615, "annotation": {"number": 64, "value": 127}, "group": "control_change"}, {"time": 2635, "annotation": {"number": 64, "value": 0}, "group": "control_change"}, {"time": 2641, "annotation": {"number": 64, "value": 127}, "group": "control_change"}, {"time": 2661, "annotation": {"number": 64, "value": 0}, "group": "control_change"}, {"time": 2662, "annotation": {"number": 64, "value": 127}, "group": "control_change"}, {"time": 2685, "annotation": {"number": 64, "value": 0}, "group": "control_change"}, {"time": 2687, "annotation": {"number": 64, "value": 127}, "group": "control_change"}, {"time": 2689, "annotation": {"number": 64, "value": 0}, "group": "control_change"}, {"time": 2689, "annotation": {"number": 64, "value": 127}, "group": "control_change"}, {"time": 2709, "annotation": {"number": 64, "value": 0}, "group": "control_change"}, {"time": 2711, "annotation": {"number": 64, "value": 127}, "group": "control_change"}, {"time": 2733, "annotation": {"number": 64, "value": 0}, "group": "control_change"}, {"time": 2735, "annotation": {"number": 64, "value": 127}, "group": "control_change"}, {"time": 2737, "annotation": {"number": 64, "value": 0}, "group": "control_change"}, {"time": 2737, "annotation": {"number": 64, "value": 127}, "group": "control_change"}, {"time": 2756, "annotation": {"number": 64, "value": 0}, "group": "control_change"}, {"time": 2758, "annotation": {"number": 64, "value": 127}, "group": "control_change"}, {"time": 2760, "annotation": {"number": 64, "value": 0}, "group": "control_change"}, {"time": 2761, "annotation": {"number": 64, "value": 127}, "group": "control_change"}, {"time": 2769, "annotation": {"number": 64, "value": 0}, "group": "control_change"}, {"time": 2770, "annotation": {"number": 64, "value": 127}, "group": "control_change"}, {"time": 2781, "annotation": {"number": 64, "value": 0}, "group": "control_change"}, {"time": 2783, "annotation": {"number": 64, "value": 127}, "group": "control_change"}, {"time": 2785, "annotation": {"number": 64, "value": 0}, "group": "control_change"}, {"time": 2786, "annotation": {"number": 64, "value": 127}, "group": "control_change"}, {"time": 2804, "annotation": {"number": 64, "value": 0}, "group": "control_change"}, {"time": 2806, "annotation": {"number": 64, "value": 127}, "group": "control_change"}, {"time": 2829, "annotation": {"number": 64, "value": 0}, "group": "control_change"}, {"time": 2831, "annotation": {"number": 64, "value": 127}, "group": "control_change"}, {"time": 2852, "annotation": {"number": 64, "value": 0}, "group": "control_change"}, {"time": 2853, "annotation": {"number": 64, "value": 127}, "group": "control_change"}, {"time": 2877, "annotation": {"number": 64, "value": 0}, "group": "control_change"}, {"time": 2879, "annotation": {"number": 64, "value": 127}, "group": "control_change"}, {"time": 2901, "annotation": {"number": 64, "value": 0}, "group": "control_change"}, {"time": 2903, "annotation": {"number": 64, "value": 127}, "group": "control_change"}, {"time": 2924, "annotation": {"number": 64, "value": 0}, "group": "control_change"}, {"time": 2926, "annotation": {"number": 64, "value": 127}, "group": "control_change"}, {"time": 2948, "annotation": {"number": 64, "value": 0}, "group": "control_change"}, {"time": 2950, "annotation": {"number": 64, "value": 127}, "group": "control_change"}, {"time": 2961, "annotation": {"number": 64, "value": 0}, "group": "control_change"}, {"time": 2963, "annotation": {"number": 64, "value": 127}, "group": "control_change"}, {"time": 2965, "annotation": {"number": 64, "value": 0}, "group": "control_change"}, {"time": 2974, "annotation": {"number": 64, "value": 127}, "group": "control_change"}, {"time": 2997, "annotation": {"number": 64, "value": 0}, "group": "control_change"}, {"time": 2998, "annotation": {"number": 64, "value": 127}, "group": "control_change"}, {"time": 3020, "annotation": {"number": 64, "value": 0}, "group": "control_change"}, {"time": 3022, "annotation": {"number": 64, "value": 127}, "group": "control_change"}, {"time": 3057, "annotation": {"number": 64, "value": 0}, "group": "control_change"}, {"time": 3070, "annotation": {"number": 64, "value": 127}, "group": "control_change"}, {"time": 3092, "annotation": {"number": 64, "value": 0}, "group": "control_change"}, {"time": 3094, "annotation": {"number": 64, "value": 127}, "group": "control_change"}, {"time": 3116, "annotation": {"number": 64, "value": 0}, "group": "control_change"}, {"time": 3118, "annotation": {"number": 64, "value": 127}, "group": "control_change"}, {"time": 3140, "annotation": {"number": 64, "value": 0}, "group": "control_change"}, {"time": 3142, "annotation": {"number": 64, "value": 127}, "group": "control_change"}, {"time": 3156, "annotation": {"number": 64, "value": 0}, "group": "control_change"}, {"time": 3166, "annotation": {"number": 64, "value": 127}, "group": "control_change"}, {"time": 3188, "annotation": {"number": 64, "value": 0}, "group": "control_change"}, {"time": 3191, "annotation": {"number": 64, "value": 127}, "group": "control_change"}, {"time": 3212, "annotation": {"number": 64, "value": 0}, "group": "control_change"}, {"time": 3214, "annotation": {"number": 64, "value": 127}, "group": "control_change"}, {"time": 3235, "annotation": {"number": 64, "value": 0}, "group": "control_change"}, {"time": 3237, "annotation": {"number": 64, "value": 127}, "group": "control_change"}, {"time": 3259, "annotation": {"number": 64, "value": 0}, "group": "control_change"}, {"time": 3262, "annotation": {"number": 64, "value": 127}, "group": "control_change"}, {"time": 3264, "annotation": {"number": 64, "value": 0}, "group": "control_change"}, {"time": 3265, "annotation": {"number": 64, "value": 127}, "group": "control_change"}, {"time": 3291, "annotation": {"number": 64, "value": 0}, "group": "control_change"}, {"time": 3293, "annotation": {"number": 64, "value": 127}, "group": "control_change"}, {"time": 3308, "annotation": {"number": 64, "value": 0}, "group": "control_change"}, {"time": 3310, "annotation": {"number": 64, "value": 127}, "group": "control_change"}, {"time": 3332, "annotation": {"number": 64, "value": 0}, "group": "control_change"}, {"time": 3334, "annotation": {"number": 64, "value": 127}, "group": "control_change"}, {"time": 3356, "annotation": {"number": 64, "value": 0}, "group": "control_change"}, {"time": 3357, "annotation": {"number": 64, "value": 127}, "group": "control_change"}, {"time": 3360, "annotation": {"number": 64, "value": 0}, "group": "control_change"}, {"time": 3361, "annotation": {"number": 64, "value": 127}, "group": "control_change"}, {"time": 3380, "annotation": {"number": 64, "value": 0}, "group": "control_change"}, {"time": 3382, "annotation": {"number": 64, "value": 127}, "group": "control_change"}, {"time": 3404, "annotation": {"number": 64, "value": 0}, "group": "control_change"}, {"time": 3406, "annotation": {"number": 64, "value": 127}, "group": "control_change"}, {"time": 3428, "annotation": {"number": 64, "value": 0}, "group": "control_change"}, {"time": 3512, "annotation": {"number": 64, "value": 127}, "group": "control_change"}, {"time": 3517, "annotation": {"number": 64, "value": 0}, "group": "control_change"}, {"time": 3518, "annotation": {"number": 64, "value": 127}, "group": "control_change"}, {"time": 3520, "annotation": {"number": 64, "value": 0}, "group": "control_change"}, {"time": 3550, "annotation": {"number": 64, "value": 127}, "group": "control_change"}, {"time": 3573, "annotation": {"number": 64, "value": 0}, "group": "control_change"}, {"time": 3575, "annotation": {"number": 64, "value": 127}, "group": "control_change"}, {"time": 3600, "annotation": {"number": 64, "value": 0}, "group": "control_change"}, {"time": 3608, "annotation": {"number": 64, "value": 127}, "group": "control_change"}, {"time": 3711, "annotation": {"number": 64, "value": 0}, "group": "control_change"}, {"time": 3712, "annotation": {"number": 64, "value": 127}, "group": "control_change"}, {"time": 3713, "annotation": {"number": 64, "value": 0}, "group": "control_change"}, {"time": 3714, "annotation": {"number": 64, "value": 127}, "group": "control_change"}, {"time": 3715, "annotation": {"number": 64, "value": 0}, "group": "control_change"}]}]}