{"metadata": {"schema_version": "0.2", "title": "None", "source_filename": "480.mid", "source_format": "midi"}, "resolution": 12, "tempos": [{"time": 0, "qpm": 74.000074000074}], "time_signatures": [{"time": 0, "numerator": 1, "denominator": 4}], "tracks": [{"program": 4, "is_drum": false, "name": "MELODY", "notes": [{"time": 170, "pitch": 53, "duration": 6, "velocity": 83}, {"time": 176, "pitch": 55, "duration": 7, "velocity": 75}, {"time": 182, "pitch": 57, "duration": 7, "velocity": 85}, {"time": 188, "pitch": 60, "duration": 6, "velocity": 102}, {"time": 194, "pitch": 62, "duration": 14, "velocity": 93}, {"time": 218, "pitch": 62, "duration": 5, "velocity": 96}, {"time": 224, "pitch": 60, "duration": 6, "velocity": 74}, {"time": 230, "pitch": 57, "duration": 4, "velocity": 79}, {"time": 236, "pitch": 62, "duration": 8, "velocity": 96}, {"time": 248, "pitch": 60, "duration": 15, "velocity": 92}, {"time": 266, "pitch": 53, "duration": 4, "velocity": 86}, {"time": 272, "pitch": 55, "duration": 4, "velocity": 78}, {"time": 278, "pitch": 57, "duration": 5, "velocity": 88}, {"time": 284, "pitch": 60, "duration": 6, "velocity": 107}, {"time": 290, "pitch": 62, "duration": 13, "velocity": 100}, {"time": 314, "pitch": 62, "duration": 5, "velocity": 93}, {"time": 320, "pitch": 60, "duration": 5, "velocity": 89}, {"time": 326, "pitch": 57, "duration": 6, "velocity": 90}, {"time": 332, "pitch": 62, "duration": 9, "velocity": 96}, {"time": 344, "pitch": 60, "duration": 14, "velocity": 97}, {"time": 362, "pitch": 53, "duration": 5, "velocity": 88}, {"time": 368, "pitch": 55, "duration": 5, "velocity": 83}, {"time": 374, "pitch": 57, "duration": 5, "velocity": 90}, {"time": 380, "pitch": 60, "duration": 5, "velocity": 89}, {"time": 386, "pitch": 62, "duration": 16, "velocity": 88}, {"time": 404, "pitch": 60, "duration": 5, "velocity": 93}, {"time": 410, "pitch": 62, "duration": 4, "velocity": 89}, {"time": 416, "pitch": 64, "duration": 4, "velocity": 93}, {"time": 422, "pitch": 65, "duration": 4, "velocity": 100}, {"time": 428, "pitch": 67, "duration": 3, "velocity": 112}, {"time": 434, "pitch": 65, "duration": 3, "velocity": 93}, {"time": 440, "pitch": 57, "duration": 2, "velocity": 92}, {"time": 446, "pitch": 64, "duration": 2, "velocity": 97}, {"time": 452, "pitch": 55, "duration": 3, "velocity": 88}, {"time": 455, "pitch": 57, "duration": 4, "velocity": 92}, {"time": 464, "pitch": 65, "duration": 5, "velocity": 93}, {"time": 470, "pitch": 62, "duration": 4, "velocity": 97}, {"time": 476, "pitch": 53, "duration": 3, "velocity": 90}, {"time": 482, "pitch": 62, "duration": 3, "velocity": 95}, {"time": 485, "pitch": 60, "duration": 3, "velocity": 88}, {"time": 491, "pitch": 62, "duration": 7, "velocity": 112}, {"time": 503, "pitch": 60, "duration": 1, "velocity": 88}, {"time": 506, "pitch": 62, "duration": 3, "velocity": 96}, {"time": 512, "pitch": 60, "duration": 4, "velocity": 93}, {"time": 518, "pitch": 62, "duration": 4, "velocity": 73}, {"time": 524, "pitch": 64, "duration": 5, "velocity": 92}, {"time": 530, "pitch": 65, "duration": 8, "velocity": 112}, {"time": 548, "pitch": 67, "duration": 1, "velocity": 95}, {"time": 551, "pitch": 67, "duration": 16, "velocity": 102}, {"time": 572, "pitch": 60, "duration": 4, "velocity": 100}, {"time": 578, "pitch": 69, "duration": 4, "velocity": 127}, {"time": 584, "pitch": 69, "duration": 1, "velocity": 117}, {"time": 587, "pitch": 69, "duration": 6, "velocity": 112}, {"time": 596, "pitch": 60, "duration": 5, "velocity": 102}, {"time": 602, "pitch": 67, "duration": 7, "velocity": 117}, {"time": 608, "pitch": 65, "duration": 2, "velocity": 100}, {"time": 611, "pitch": 67, "duration": 4, "velocity": 107}, {"time": 617, "pitch": 72, "duration": 7, "velocity": 117}, {"time": 626, "pitch": 70, "duration": 4, "velocity": 112}, {"time": 632, "pitch": 62, "duration": 1, "velocity": 112}, {"time": 635, "pitch": 62, "duration": 5, "velocity": 107}, {"time": 644, "pitch": 65, "duration": 7, "velocity": 102}, {"time": 650, "pitch": 64, "duration": 8, "velocity": 96}, {"time": 668, "pitch": 60, "duration": 5, "velocity": 100}, {"time": 674, "pitch": 69, "duration": 4, "velocity": 102}, {"time": 680, "pitch": 69, "duration": 1, "velocity": 112}, {"time": 683, "pitch": 69, "duration": 3, "velocity": 102}, {"time": 692, "pitch": 60, "duration": 5, "velocity": 107}, {"time": 698, "pitch": 67, "duration": 4, "velocity": 107}, {"time": 704, "pitch": 65, "duration": 2, "velocity": 112}, {"time": 707, "pitch": 67, "duration": 2, "velocity": 117}, {"time": 716, "pitch": 72, "duration": 4, "velocity": 112}, {"time": 722, "pitch": 70, "duration": 4, "velocity": 107}, {"time": 728, "pitch": 62, "duration": 1, "velocity": 100}, {"time": 731, "pitch": 62, "duration": 4, "velocity": 97}, {"time": 737, "pitch": 69, "duration": 7, "velocity": 117}, {"time": 746, "pitch": 67, "duration": 8, "velocity": 107}, {"time": 770, "pitch": 62, "duration": 2, "velocity": 117}, {"time": 776, "pitch": 62, "duration": 2, "velocity": 97}, {"time": 779, "pitch": 62, "duration": 3, "velocity": 107}, {"time": 785, "pitch": 62, "duration": 1, "velocity": 117}, {"time": 788, "pitch": 62, "duration": 3, "velocity": 97}, {"time": 791, "pitch": 60, "duration": 2, "velocity": 95}, {"time": 794, "pitch": 64, "duration": 5, "velocity": 112}, {"time": 800, "pitch": 64, "duration": 1, "velocity": 102}, {"time": 803, "pitch": 64, "duration": 2, "velocity": 100}, {"time": 809, "pitch": 64, "duration": 1, "velocity": 97}, {"time": 812, "pitch": 64, "duration": 2, "velocity": 88}, {"time": 815, "pitch": 62, "duration": 2, "velocity": 92}, {"time": 818, "pitch": 65, "duration": 1, "velocity": 112}, {"time": 821, "pitch": 65, "duration": 2, "velocity": 112}, {"time": 830, "pitch": 67, "duration": 1, "velocity": 117}, {"time": 833, "pitch": 67, "duration": 2, "velocity": 127}, {"time": 842, "pitch": 69, "duration": 6, "velocity": 127}, {"time": 860, "pitch": 62, "duration": 2, "velocity": 96}, {"time": 863, "pitch": 64, "duration": 1, "velocity": 93}, {"time": 866, "pitch": 65, "duration": 2, "velocity": 95}, {"time": 869, "pitch": 64, "duration": 2, "velocity": 96}, {"time": 872, "pitch": 62, "duration": 2, "velocity": 90}, {"time": 875, "pitch": 65, "duration": 2, "velocity": 99}, {"time": 881, "pitch": 62, "duration": 2, "velocity": 100}, {"time": 884, "pitch": 65, "duration": 2, "velocity": 92}, {"time": 887, "pitch": 64, "duration": 2, "velocity": 96}, {"time": 890, "pitch": 62, "duration": 5, "velocity": 102}, {"time": 902, "pitch": 64, "duration": 3, "velocity": 97}, {"time": 905, "pitch": 65, "duration": 6, "velocity": 107}, {"time": 914, "pitch": 65, "duration": 28, "velocity": 117}, {"time": 1130, "pitch": 53, "duration": 6, "velocity": 83}, {"time": 1136, "pitch": 55, "duration": 7, "velocity": 75}, {"time": 1142, "pitch": 57, "duration": 7, "velocity": 85}, {"time": 1148, "pitch": 60, "duration": 6, "velocity": 102}, {"time": 1154, "pitch": 62, "duration": 14, "velocity": 93}, {"time": 1178, "pitch": 62, "duration": 5, "velocity": 96}, {"time": 1184, "pitch": 60, "duration": 6, "velocity": 74}, {"time": 1190, "pitch": 57, "duration": 4, "velocity": 79}, {"time": 1196, "pitch": 62, "duration": 8, "velocity": 96}, {"time": 1208, "pitch": 60, "duration": 15, "velocity": 92}, {"time": 1226, "pitch": 53, "duration": 4, "velocity": 86}, {"time": 1232, "pitch": 55, "duration": 4, "velocity": 78}, {"time": 1238, "pitch": 57, "duration": 5, "velocity": 88}, {"time": 1244, "pitch": 60, "duration": 6, "velocity": 107}, {"time": 1250, "pitch": 62, "duration": 13, "velocity": 100}, {"time": 1274, "pitch": 62, "duration": 5, "velocity": 93}, {"time": 1280, "pitch": 60, "duration": 5, "velocity": 89}, {"time": 1286, "pitch": 57, "duration": 6, "velocity": 90}, {"time": 1292, "pitch": 62, "duration": 9, "velocity": 96}, {"time": 1304, "pitch": 60, "duration": 14, "velocity": 97}, {"time": 1322, "pitch": 53, "duration": 5, "velocity": 88}, {"time": 1328, "pitch": 55, "duration": 5, "velocity": 83}, {"time": 1334, "pitch": 57, "duration": 5, "velocity": 90}, {"time": 1340, "pitch": 60, "duration": 5, "velocity": 89}, {"time": 1346, "pitch": 62, "duration": 16, "velocity": 88}, {"time": 1364, "pitch": 60, "duration": 5, "velocity": 93}, {"time": 1370, "pitch": 62, "duration": 4, "velocity": 89}, {"time": 1376, "pitch": 64, "duration": 4, "velocity": 93}, {"time": 1382, "pitch": 65, "duration": 4, "velocity": 100}, {"time": 1388, "pitch": 67, "duration": 3, "velocity": 112}, {"time": 1394, "pitch": 65, "duration": 3, "velocity": 93}, {"time": 1400, "pitch": 57, "duration": 2, "velocity": 92}, {"time": 1406, "pitch": 64, "duration": 2, "velocity": 97}, {"time": 1412, "pitch": 55, "duration": 3, "velocity": 88}, {"time": 1415, "pitch": 57, "duration": 4, "velocity": 92}, {"time": 1424, "pitch": 65, "duration": 5, "velocity": 93}, {"time": 1430, "pitch": 62, "duration": 4, "velocity": 97}, {"time": 1436, "pitch": 53, "duration": 3, "velocity": 90}, {"time": 1442, "pitch": 62, "duration": 3, "velocity": 95}, {"time": 1445, "pitch": 60, "duration": 3, "velocity": 88}, {"time": 1451, "pitch": 62, "duration": 7, "velocity": 112}, {"time": 1463, "pitch": 60, "duration": 1, "velocity": 88}, {"time": 1466, "pitch": 62, "duration": 3, "velocity": 96}, {"time": 1472, "pitch": 60, "duration": 4, "velocity": 93}, {"time": 1478, "pitch": 62, "duration": 4, "velocity": 73}, {"time": 1484, "pitch": 64, "duration": 5, "velocity": 92}, {"time": 1490, "pitch": 65, "duration": 8, "velocity": 112}, {"time": 1508, "pitch": 67, "duration": 1, "velocity": 95}, {"time": 1511, "pitch": 67, "duration": 16, "velocity": 102}, {"time": 1532, "pitch": 60, "duration": 4, "velocity": 100}, {"time": 1538, "pitch": 69, "duration": 4, "velocity": 127}, {"time": 1544, "pitch": 69, "duration": 1, "velocity": 117}, {"time": 1547, "pitch": 69, "duration": 6, "velocity": 112}, {"time": 1556, "pitch": 60, "duration": 5, "velocity": 102}, {"time": 1562, "pitch": 67, "duration": 7, "velocity": 117}, {"time": 1568, "pitch": 65, "duration": 2, "velocity": 100}, {"time": 1571, "pitch": 67, "duration": 4, "velocity": 107}, {"time": 1577, "pitch": 72, "duration": 7, "velocity": 117}, {"time": 1586, "pitch": 70, "duration": 4, "velocity": 112}, {"time": 1592, "pitch": 62, "duration": 1, "velocity": 112}, {"time": 1595, "pitch": 62, "duration": 5, "velocity": 107}, {"time": 1604, "pitch": 65, "duration": 7, "velocity": 102}, {"time": 1610, "pitch": 64, "duration": 8, "velocity": 96}, {"time": 1628, "pitch": 60, "duration": 5, "velocity": 100}, {"time": 1634, "pitch": 69, "duration": 4, "velocity": 102}, {"time": 1640, "pitch": 69, "duration": 1, "velocity": 112}, {"time": 1643, "pitch": 69, "duration": 3, "velocity": 102}, {"time": 1652, "pitch": 60, "duration": 5, "velocity": 107}, {"time": 1658, "pitch": 67, "duration": 4, "velocity": 107}, {"time": 1664, "pitch": 65, "duration": 2, "velocity": 112}, {"time": 1667, "pitch": 67, "duration": 2, "velocity": 117}, {"time": 1676, "pitch": 72, "duration": 4, "velocity": 112}, {"time": 1682, "pitch": 70, "duration": 4, "velocity": 107}, {"time": 1688, "pitch": 62, "duration": 1, "velocity": 100}, {"time": 1691, "pitch": 62, "duration": 4, "velocity": 97}, {"time": 1697, "pitch": 69, "duration": 7, "velocity": 117}, {"time": 1706, "pitch": 67, "duration": 8, "velocity": 107}, {"time": 1730, "pitch": 62, "duration": 2, "velocity": 117}, {"time": 1736, "pitch": 62, "duration": 2, "velocity": 97}, {"time": 1739, "pitch": 62, "duration": 3, "velocity": 107}, {"time": 1745, "pitch": 62, "duration": 1, "velocity": 117}, {"time": 1748, "pitch": 62, "duration": 3, "velocity": 97}, {"time": 1751, "pitch": 60, "duration": 2, "velocity": 95}, {"time": 1754, "pitch": 64, "duration": 5, "velocity": 112}, {"time": 1760, "pitch": 64, "duration": 1, "velocity": 102}, {"time": 1763, "pitch": 64, "duration": 2, "velocity": 100}, {"time": 1769, "pitch": 64, "duration": 1, "velocity": 97}, {"time": 1772, "pitch": 64, "duration": 2, "velocity": 88}, {"time": 1775, "pitch": 62, "duration": 2, "velocity": 92}, {"time": 1778, "pitch": 65, "duration": 1, "velocity": 112}, {"time": 1781, "pitch": 65, "duration": 2, "velocity": 112}, {"time": 1790, "pitch": 67, "duration": 1, "velocity": 117}, {"time": 1793, "pitch": 67, "duration": 2, "velocity": 127}, {"time": 1802, "pitch": 69, "duration": 6, "velocity": 127}, {"time": 1820, "pitch": 62, "duration": 2, "velocity": 96}, {"time": 1823, "pitch": 64, "duration": 1, "velocity": 93}, {"time": 1826, "pitch": 65, "duration": 2, "velocity": 95}, {"time": 1829, "pitch": 64, "duration": 2, "velocity": 96}, {"time": 1832, "pitch": 62, "duration": 2, "velocity": 90}, {"time": 1835, "pitch": 65, "duration": 2, "velocity": 99}, {"time": 1841, "pitch": 62, "duration": 2, "velocity": 100}, {"time": 1844, "pitch": 65, "duration": 2, "velocity": 92}, {"time": 1847, "pitch": 64, "duration": 2, "velocity": 96}, {"time": 1850, "pitch": 62, "duration": 5, "velocity": 102}, {"time": 1862, "pitch": 64, "duration": 3, "velocity": 97}, {"time": 1865, "pitch": 65, "duration": 6, "velocity": 107}, {"time": 1874, "pitch": 65, "duration": 28, "velocity": 117}, {"time": 1910, "pitch": 69, "duration": 2, "velocity": 127}, {"time": 1913, "pitch": 67, "duration": 3, "velocity": 112}, {"time": 1916, "pitch": 65, "duration": 3, "velocity": 102}, {"time": 1919, "pitch": 64, "duration": 2, "velocity": 112}, {"time": 1922, "pitch": 62, "duration": 4, "velocity": 127}, {"time": 1928, "pitch": 69, "duration": 4, "velocity": 122}, {"time": 1934, "pitch": 69, "duration": 3, "velocity": 127}, {"time": 1940, "pitch": 70, "duration": 5, "velocity": 127}, {"time": 1946, "pitch": 67, "duration": 4, "velocity": 127}, {"time": 1958, "pitch": 67, "duration": 2, "velocity": 127}, {"time": 1961, "pitch": 65, "duration": 3, "velocity": 117}, {"time": 1964, "pitch": 64, "duration": 2, "velocity": 100}, {"time": 1967, "pitch": 62, "duration": 3, "velocity": 95}, {"time": 1970, "pitch": 60, "duration": 4, "velocity": 100}, {"time": 1976, "pitch": 67, "duration": 1, "velocity": 102}, {"time": 1979, "pitch": 60, "duration": 2, "velocity": 99}, {"time": 1982, "pitch": 65, "duration": 4, "velocity": 117}, {"time": 1988, "pitch": 67, "duration": 1, "velocity": 102}, {"time": 1991, "pitch": 69, "duration": 9, "velocity": 127}, {"time": 2006, "pitch": 69, "duration": 2, "velocity": 127}, {"time": 2009, "pitch": 67, "duration": 3, "velocity": 88}, {"time": 2012, "pitch": 65, "duration": 2, "velocity": 122}, {"time": 2015, "pitch": 64, "duration": 3, "velocity": 102}, {"time": 2018, "pitch": 62, "duration": 4, "velocity": 112}, {"time": 2024, "pitch": 69, "duration": 4, "velocity": 127}, {"time": 2030, "pitch": 69, "duration": 3, "velocity": 122}, {"time": 2036, "pitch": 70, "duration": 4, "velocity": 127}, {"time": 2042, "pitch": 64, "duration": 6, "velocity": 117}, {"time": 2060, "pitch": 64, "duration": 3, "velocity": 112}, {"time": 2063, "pitch": 65, "duration": 2, "velocity": 107}, {"time": 2066, "pitch": 65, "duration": 12, "velocity": 107}, {"time": 2087, "pitch": 67, "duration": 1, "velocity": 100}, {"time": 2090, "pitch": 67, "duration": 13, "velocity": 122}, {"time": 2108, "pitch": 60, "duration": 4, "velocity": 100}, {"time": 2114, "pitch": 69, "duration": 4, "velocity": 127}, {"time": 2120, "pitch": 69, "duration": 1, "velocity": 117}, {"time": 2123, "pitch": 69, "duration": 6, "velocity": 112}, {"time": 2132, "pitch": 60, "duration": 5, "velocity": 102}, {"time": 2138, "pitch": 67, "duration": 7, "velocity": 117}, {"time": 2144, "pitch": 65, "duration": 2, "velocity": 100}, {"time": 2147, "pitch": 67, "duration": 4, "velocity": 107}, {"time": 2153, "pitch": 72, "duration": 7, "velocity": 117}, {"time": 2162, "pitch": 70, "duration": 4, "velocity": 112}, {"time": 2168, "pitch": 62, "duration": 1, "velocity": 112}, {"time": 2171, "pitch": 62, "duration": 5, "velocity": 107}, {"time": 2180, "pitch": 65, "duration": 7, "velocity": 102}, {"time": 2186, "pitch": 64, "duration": 8, "velocity": 96}, {"time": 2204, "pitch": 60, "duration": 5, "velocity": 100}, {"time": 2210, "pitch": 69, "duration": 4, "velocity": 102}, {"time": 2216, "pitch": 69, "duration": 1, "velocity": 112}, {"time": 2219, "pitch": 69, "duration": 3, "velocity": 102}, {"time": 2228, "pitch": 60, "duration": 5, "velocity": 107}, {"time": 2234, "pitch": 67, "duration": 4, "velocity": 107}, {"time": 2240, "pitch": 65, "duration": 2, "velocity": 112}, {"time": 2243, "pitch": 67, "duration": 2, "velocity": 117}, {"time": 2252, "pitch": 72, "duration": 4, "velocity": 112}, {"time": 2258, "pitch": 70, "duration": 4, "velocity": 107}, {"time": 2264, "pitch": 62, "duration": 1, "velocity": 100}, {"time": 2267, "pitch": 62, "duration": 4, "velocity": 97}, {"time": 2273, "pitch": 69, "duration": 7, "velocity": 117}, {"time": 2282, "pitch": 67, "duration": 8, "velocity": 107}, {"time": 2306, "pitch": 62, "duration": 2, "velocity": 117}, {"time": 2312, "pitch": 62, "duration": 2, "velocity": 97}, {"time": 2315, "pitch": 62, "duration": 3, "velocity": 107}, {"time": 2321, "pitch": 62, "duration": 1, "velocity": 117}, {"time": 2324, "pitch": 62, "duration": 3, "velocity": 97}, {"time": 2327, "pitch": 60, "duration": 2, "velocity": 95}, {"time": 2330, "pitch": 64, "duration": 5, "velocity": 112}, {"time": 2336, "pitch": 64, "duration": 1, "velocity": 102}, {"time": 2339, "pitch": 64, "duration": 2, "velocity": 100}, {"time": 2345, "pitch": 64, "duration": 1, "velocity": 97}, {"time": 2348, "pitch": 64, "duration": 2, "velocity": 88}, {"time": 2351, "pitch": 62, "duration": 2, "velocity": 92}, {"time": 2354, "pitch": 65, "duration": 1, "velocity": 112}, {"time": 2357, "pitch": 65, "duration": 2, "velocity": 112}, {"time": 2366, "pitch": 67, "duration": 1, "velocity": 117}, {"time": 2369, "pitch": 67, "duration": 2, "velocity": 127}, {"time": 2378, "pitch": 69, "duration": 6, "velocity": 127}, {"time": 2396, "pitch": 62, "duration": 2, "velocity": 96}, {"time": 2399, "pitch": 64, "duration": 1, "velocity": 93}, {"time": 2402, "pitch": 65, "duration": 2, "velocity": 95}, {"time": 2405, "pitch": 64, "duration": 2, "velocity": 96}, {"time": 2408, "pitch": 62, "duration": 2, "velocity": 90}, {"time": 2411, "pitch": 65, "duration": 2, "velocity": 99}, {"time": 2417, "pitch": 62, "duration": 2, "velocity": 100}, {"time": 2420, "pitch": 65, "duration": 2, "velocity": 92}, {"time": 2423, "pitch": 64, "duration": 2, "velocity": 96}, {"time": 2426, "pitch": 62, "duration": 5, "velocity": 102}, {"time": 2438, "pitch": 64, "duration": 3, "velocity": 97}, {"time": 2441, "pitch": 65, "duration": 6, "velocity": 107}, {"time": 2444, "pitch": 60, "duration": 4, "velocity": 100}, {"time": 2450, "pitch": 65, "duration": 24, "velocity": 117}, {"time": 2450, "pitch": 69, "duration": 4, "velocity": 127}, {"time": 2456, "pitch": 69, "duration": 1, "velocity": 117}, {"time": 2459, "pitch": 69, "duration": 6, "velocity": 112}, {"time": 2468, "pitch": 60, "duration": 5, "velocity": 102}, {"time": 2474, "pitch": 67, "duration": 7, "velocity": 117}, {"time": 2480, "pitch": 65, "duration": 2, "velocity": 100}, {"time": 2483, "pitch": 67, "duration": 4, "velocity": 107}, {"time": 2489, "pitch": 72, "duration": 7, "velocity": 117}, {"time": 2498, "pitch": 70, "duration": 4, "velocity": 112}, {"time": 2504, "pitch": 62, "duration": 1, "velocity": 112}, {"time": 2507, "pitch": 62, "duration": 5, "velocity": 107}, {"time": 2516, "pitch": 65, "duration": 7, "velocity": 102}, {"time": 2522, "pitch": 64, "duration": 8, "velocity": 96}, {"time": 2540, "pitch": 60, "duration": 5, "velocity": 100}, {"time": 2546, "pitch": 69, "duration": 4, "velocity": 102}, {"time": 2552, "pitch": 69, "duration": 1, "velocity": 112}, {"time": 2555, "pitch": 69, "duration": 3, "velocity": 102}, {"time": 2564, "pitch": 60, "duration": 5, "velocity": 107}, {"time": 2570, "pitch": 67, "duration": 4, "velocity": 107}, {"time": 2576, "pitch": 65, "duration": 2, "velocity": 112}, {"time": 2579, "pitch": 67, "duration": 2, "velocity": 117}, {"time": 2588, "pitch": 72, "duration": 4, "velocity": 112}, {"time": 2594, "pitch": 70, "duration": 4, "velocity": 107}, {"time": 2600, "pitch": 62, "duration": 1, "velocity": 100}, {"time": 2603, "pitch": 62, "duration": 4, "velocity": 97}, {"time": 2609, "pitch": 69, "duration": 7, "velocity": 117}, {"time": 2618, "pitch": 67, "duration": 8, "velocity": 107}, {"time": 2642, "pitch": 62, "duration": 2, "velocity": 117}, {"time": 2648, "pitch": 62, "duration": 2, "velocity": 97}, {"time": 2651, "pitch": 62, "duration": 3, "velocity": 107}, {"time": 2657, "pitch": 62, "duration": 1, "velocity": 117}, {"time": 2660, "pitch": 62, "duration": 3, "velocity": 97}, {"time": 2663, "pitch": 60, "duration": 2, "velocity": 95}, {"time": 2666, "pitch": 64, "duration": 5, "velocity": 112}, {"time": 2672, "pitch": 64, "duration": 1, "velocity": 102}, {"time": 2675, "pitch": 64, "duration": 2, "velocity": 100}, {"time": 2681, "pitch": 64, "duration": 1, "velocity": 97}, {"time": 2684, "pitch": 64, "duration": 2, "velocity": 88}, {"time": 2687, "pitch": 62, "duration": 2, "velocity": 92}, {"time": 2690, "pitch": 65, "duration": 1, "velocity": 112}, {"time": 2693, "pitch": 65, "duration": 2, "velocity": 112}, {"time": 2702, "pitch": 67, "duration": 1, "velocity": 117}, {"time": 2705, "pitch": 67, "duration": 2, "velocity": 127}, {"time": 2714, "pitch": 69, "duration": 6, "velocity": 127}, {"time": 2732, "pitch": 62, "duration": 2, "velocity": 96}, {"time": 2735, "pitch": 64, "duration": 1, "velocity": 93}, {"time": 2738, "pitch": 65, "duration": 2, "velocity": 95}, {"time": 2741, "pitch": 64, "duration": 2, "velocity": 96}, {"time": 2744, "pitch": 62, "duration": 2, "velocity": 90}, {"time": 2747, "pitch": 65, "duration": 2, "velocity": 99}, {"time": 2753, "pitch": 62, "duration": 2, "velocity": 100}, {"time": 2756, "pitch": 65, "duration": 2, "velocity": 92}, {"time": 2759, "pitch": 64, "duration": 2, "velocity": 96}, {"time": 2762, "pitch": 62, "duration": 5, "velocity": 102}, {"time": 2774, "pitch": 64, "duration": 3, "velocity": 97}, {"time": 2777, "pitch": 65, "duration": 6, "velocity": 107}, {"time": 2786, "pitch": 65, "duration": 24, "velocity": 117}]}, {"program": 0, "is_drum": false, "name": "PIANO", "notes": [{"time": 2, "pitch": 46, "duration": 24, "velocity": 51}, {"time": 8, "pitch": 58, "duration": 7, "velocity": 36}, {"time": 14, "pitch": 62, "duration": 12, "velocity": 53}, {"time": 26, "pitch": 43, "duration": 22, "velocity": 38}, {"time": 32, "pitch": 55, "duration": 18, "velocity": 35}, {"time": 38, "pitch": 62, "duration": 11, "velocity": 42}, {"time": 50, "pitch": 48, "duration": 47, "velocity": 52}, {"time": 56, "pitch": 55, "duration": 7, "velocity": 35}, {"time": 62, "pitch": 60, "duration": 11, "velocity": 37}, {"time": 74, "pitch": 60, "duration": 10, "velocity": 42}, {"time": 86, "pitch": 60, "duration": 11, "velocity": 58}, {"time": 98, "pitch": 46, "duration": 22, "velocity": 37}, {"time": 98, "pitch": 53, "duration": 19, "velocity": 33}, {"time": 98, "pitch": 58, "duration": 22, "velocity": 36}, {"time": 98, "pitch": 62, "duration": 20, "velocity": 29}, {"time": 122, "pitch": 43, "duration": 19, "velocity": 37}, {"time": 122, "pitch": 55, "duration": 24, "velocity": 42}, {"time": 122, "pitch": 62, "duration": 23, "velocity": 52}, {"time": 146, "pitch": 48, "duration": 35, "velocity": 41}, {"time": 158, "pitch": 60, "duration": 7, "velocity": 35}, {"time": 164, "pitch": 55, "duration": 16, "velocity": 35}, {"time": 170, "pitch": 60, "duration": 11, "velocity": 52}, {"time": 182, "pitch": 41, "duration": 7, "velocity": 56}, {"time": 194, "pitch": 46, "duration": 18, "velocity": 74}, {"time": 200, "pitch": 58, "duration": 9, "velocity": 54}, {"time": 206, "pitch": 65, "duration": 11, "velocity": 93}, {"time": 212, "pitch": 62, "duration": 7, "velocity": 54}, {"time": 218, "pitch": 36, "duration": 11, "velocity": 72}, {"time": 224, "pitch": 55, "duration": 13, "velocity": 50}, {"time": 230, "pitch": 64, "duration": 12, "velocity": 86}, {"time": 236, "pitch": 60, "duration": 6, "velocity": 46}, {"time": 242, "pitch": 41, "duration": 39, "velocity": 49}, {"time": 248, "pitch": 48, "duration": 33, "velocity": 41}, {"time": 254, "pitch": 65, "duration": 18, "velocity": 65}, {"time": 260, "pitch": 60, "duration": 8, "velocity": 53}, {"time": 266, "pitch": 69, "duration": 10, "velocity": 73}, {"time": 269, "pitch": 53, "duration": 13, "velocity": 58}, {"time": 278, "pitch": 65, "duration": 13, "velocity": 70}, {"time": 278, "pitch": 69, "duration": 13, "velocity": 70}, {"time": 284, "pitch": 60, "duration": 7, "velocity": 67}, {"time": 290, "pitch": 46, "duration": 16, "velocity": 72}, {"time": 296, "pitch": 62, "duration": 6, "velocity": 64}, {"time": 302, "pitch": 65, "duration": 11, "velocity": 76}, {"time": 308, "pitch": 62, "duration": 5, "velocity": 51}, {"time": 314, "pitch": 36, "duration": 13, "velocity": 66}, {"time": 320, "pitch": 55, "duration": 18, "velocity": 57}, {"time": 326, "pitch": 64, "duration": 12, "velocity": 79}, {"time": 332, "pitch": 60, "duration": 6, "velocity": 56}, {"time": 338, "pitch": 41, "duration": 40, "velocity": 63}, {"time": 344, "pitch": 48, "duration": 35, "velocity": 49}, {"time": 350, "pitch": 53, "duration": 16, "velocity": 63}, {"time": 356, "pitch": 57, "duration": 18, "velocity": 72}, {"time": 362, "pitch": 65, "duration": 24, "velocity": 69}, {"time": 374, "pitch": 60, "duration": 12, "velocity": 62}, {"time": 380, "pitch": 57, "duration": 6, "velocity": 56}, {"time": 386, "pitch": 46, "duration": 19, "velocity": 59}, {"time": 392, "pitch": 53, "duration": 13, "velocity": 59}, {"time": 398, "pitch": 58, "duration": 7, "velocity": 70}, {"time": 404, "pitch": 62, "duration": 8, "velocity": 83}, {"time": 410, "pitch": 36, "duration": 20, "velocity": 63}, {"time": 416, "pitch": 43, "duration": 15, "velocity": 56}, {"time": 422, "pitch": 48, "duration": 10, "velocity": 54}, {"time": 422, "pitch": 55, "duration": 12, "velocity": 68}, {"time": 428, "pitch": 60, "duration": 7, "velocity": 64}, {"time": 428, "pitch": 64, "duration": 7, "velocity": 63}, {"time": 434, "pitch": 41, "duration": 12, "velocity": 74}, {"time": 440, "pitch": 60, "duration": 5, "velocity": 76}, {"time": 446, "pitch": 40, "duration": 11, "velocity": 74}, {"time": 452, "pitch": 57, "duration": 6, "velocity": 68}, {"time": 458, "pitch": 38, "duration": 18, "velocity": 66}, {"time": 464, "pitch": 45, "duration": 12, "velocity": 61}, {"time": 470, "pitch": 50, "duration": 8, "velocity": 53}, {"time": 470, "pitch": 62, "duration": 12, "velocity": 66}, {"time": 470, "pitch": 65, "duration": 12, "velocity": 57}, {"time": 476, "pitch": 57, "duration": 6, "velocity": 50}, {"time": 482, "pitch": 46, "duration": 39, "velocity": 76}, {"time": 488, "pitch": 53, "duration": 32, "velocity": 41}, {"time": 494, "pitch": 62, "duration": 11, "velocity": 63}, {"time": 494, "pitch": 65, "duration": 7, "velocity": 59}, {"time": 500, "pitch": 58, "duration": 8, "velocity": 54}, {"time": 506, "pitch": 62, "duration": 11, "velocity": 59}, {"time": 506, "pitch": 65, "duration": 9, "velocity": 66}, {"time": 512, "pitch": 58, "duration": 7, "velocity": 52}, {"time": 518, "pitch": 65, "duration": 12, "velocity": 83}, {"time": 524, "pitch": 62, "duration": 8, "velocity": 63}, {"time": 530, "pitch": 36, "duration": 40, "velocity": 72}, {"time": 536, "pitch": 43, "duration": 34, "velocity": 59}, {"time": 542, "pitch": 55, "duration": 10, "velocity": 58}, {"time": 542, "pitch": 60, "duration": 10, "velocity": 69}, {"time": 548, "pitch": 48, "duration": 9, "velocity": 56}, {"time": 554, "pitch": 55, "duration": 10, "velocity": 89}, {"time": 554, "pitch": 60, "duration": 10, "velocity": 89}, {"time": 554, "pitch": 64, "duration": 10, "velocity": 85}, {"time": 560, "pitch": 48, "duration": 7, "velocity": 95}, {"time": 566, "pitch": 60, "duration": 7, "velocity": 102}, {"time": 566, "pitch": 64, "duration": 12, "velocity": 107}, {"time": 569, "pitch": 48, "duration": 4, "velocity": 102}, {"time": 572, "pitch": 55, "duration": 4, "velocity": 102}, {"time": 575, "pitch": 60, "duration": 2, "velocity": 117}, {"time": 578, "pitch": 41, "duration": 18, "velocity": 96}, {"time": 581, "pitch": 48, "duration": 14, "velocity": 86}, {"time": 584, "pitch": 53, "duration": 7, "velocity": 99}, {"time": 587, "pitch": 65, "duration": 5, "velocity": 86}, {"time": 590, "pitch": 72, "duration": 12, "velocity": 127}, {"time": 593, "pitch": 53, "duration": 2, "velocity": 107}, {"time": 596, "pitch": 69, "duration": 8, "velocity": 112}, {"time": 599, "pitch": 65, "duration": 3, "velocity": 107}, {"time": 602, "pitch": 40, "duration": 20, "velocity": 81}, {"time": 605, "pitch": 45, "duration": 16, "velocity": 55}, {"time": 608, "pitch": 64, "duration": 10, "velocity": 96}, {"time": 611, "pitch": 52, "duration": 4, "velocity": 82}, {"time": 614, "pitch": 72, "duration": 11, "velocity": 112}, {"time": 617, "pitch": 52, "duration": 4, "velocity": 89}, {"time": 620, "pitch": 69, "duration": 5, "velocity": 100}, {"time": 623, "pitch": 64, "duration": 3, "velocity": 96}, {"time": 626, "pitch": 46, "duration": 17, "velocity": 96}, {"time": 629, "pitch": 50, "duration": 13, "velocity": 61}, {"time": 632, "pitch": 53, "duration": 6, "velocity": 82}, {"time": 635, "pitch": 58, "duration": 2, "velocity": 93}, {"time": 638, "pitch": 62, "duration": 6, "velocity": 100}, {"time": 641, "pitch": 53, "duration": 2, "velocity": 83}, {"time": 644, "pitch": 58, "duration": 4, "velocity": 127}, {"time": 647, "pitch": 62, "duration": 2, "velocity": 92}, {"time": 650, "pitch": 36, "duration": 17, "velocity": 79}, {"time": 653, "pitch": 43, "duration": 14, "velocity": 72}, {"time": 656, "pitch": 48, "duration": 7, "velocity": 96}, {"time": 659, "pitch": 55, "duration": 5, "velocity": 93}, {"time": 662, "pitch": 64, "duration": 11, "velocity": 99}, {"time": 665, "pitch": 48, "duration": 8, "velocity": 89}, {"time": 668, "pitch": 60, "duration": 5, "velocity": 99}, {"time": 671, "pitch": 55, "duration": 2, "velocity": 102}, {"time": 674, "pitch": 41, "duration": 18, "velocity": 82}, {"time": 677, "pitch": 48, "duration": 14, "velocity": 72}, {"time": 680, "pitch": 53, "duration": 7, "velocity": 97}, {"time": 683, "pitch": 60, "duration": 7, "velocity": 102}, {"time": 686, "pitch": 69, "duration": 14, "velocity": 122}, {"time": 689, "pitch": 53, "duration": 2, "velocity": 102}, {"time": 692, "pitch": 65, "duration": 12, "velocity": 99}, {"time": 695, "pitch": 60, "duration": 4, "velocity": 112}, {"time": 698, "pitch": 40, "duration": 22, "velocity": 70}, {"time": 701, "pitch": 48, "duration": 19, "velocity": 74}, {"time": 704, "pitch": 52, "duration": 7, "velocity": 92}, {"time": 707, "pitch": 57, "duration": 4, "velocity": 97}, {"time": 710, "pitch": 60, "duration": 5, "velocity": 102}, {"time": 713, "pitch": 52, "duration": 7, "velocity": 99}, {"time": 716, "pitch": 64, "duration": 5, "velocity": 99}, {"time": 719, "pitch": 57, "duration": 3, "velocity": 89}, {"time": 722, "pitch": 46, "duration": 17, "velocity": 88}, {"time": 725, "pitch": 53, "duration": 13, "velocity": 61}, {"time": 728, "pitch": 58, "duration": 7, "velocity": 100}, {"time": 731, "pitch": 62, "duration": 4, "velocity": 92}, {"time": 734, "pitch": 65, "duration": 6, "velocity": 95}, {"time": 737, "pitch": 58, "duration": 2, "velocity": 107}, {"time": 740, "pitch": 62, "duration": 6, "velocity": 100}, {"time": 743, "pitch": 65, "duration": 3, "velocity": 99}, {"time": 746, "pitch": 36, "duration": 20, "velocity": 90}, {"time": 749, "pitch": 43, "duration": 17, "velocity": 72}, {"time": 752, "pitch": 48, "duration": 7, "velocity": 100}, {"time": 755, "pitch": 52, "duration": 4, "velocity": 99}, {"time": 758, "pitch": 55, "duration": 6, "velocity": 112}, {"time": 761, "pitch": 48, "duration": 7, "velocity": 99}, {"time": 764, "pitch": 52, "duration": 4, "velocity": 99}, {"time": 767, "pitch": 55, "duration": 2, "velocity": 107}, {"time": 770, "pitch": 46, "duration": 17, "velocity": 86}, {"time": 773, "pitch": 53, "duration": 13, "velocity": 59}, {"time": 776, "pitch": 58, "duration": 7, "velocity": 102}, {"time": 779, "pitch": 62, "duration": 4, "velocity": 88}, {"time": 782, "pitch": 65, "duration": 6, "velocity": 100}, {"time": 785, "pitch": 58, "duration": 2, "velocity": 99}, {"time": 788, "pitch": 62, "duration": 6, "velocity": 107}, {"time": 791, "pitch": 65, "duration": 2, "velocity": 102}, {"time": 794, "pitch": 36, "duration": 16, "velocity": 72}, {"time": 797, "pitch": 43, "duration": 13, "velocity": 63}, {"time": 800, "pitch": 48, "duration": 7, "velocity": 93}, {"time": 803, "pitch": 55, "duration": 6, "velocity": 83}, {"time": 806, "pitch": 64, "duration": 11, "velocity": 107}, {"time": 809, "pitch": 48, "duration": 7, "velocity": 95}, {"time": 812, "pitch": 60, "duration": 4, "velocity": 107}, {"time": 815, "pitch": 55, "duration": 2, "velocity": 100}, {"time": 818, "pitch": 41, "duration": 2, "velocity": 69}, {"time": 818, "pitch": 60, "duration": 2, "velocity": 77}, {"time": 818, "pitch": 65, "duration": 2, "velocity": 81}, {"time": 818, "pitch": 69, "duration": 2, "velocity": 78}, {"time": 821, "pitch": 41, "duration": 2, "velocity": 75}, {"time": 821, "pitch": 60, "duration": 2, "velocity": 71}, {"time": 821, "pitch": 65, "duration": 2, "velocity": 82}, {"time": 821, "pitch": 69, "duration": 2, "velocity": 78}, {"time": 830, "pitch": 36, "duration": 1, "velocity": 75}, {"time": 830, "pitch": 60, "duration": 1, "velocity": 89}, {"time": 830, "pitch": 64, "duration": 1, "velocity": 82}, {"time": 830, "pitch": 67, "duration": 1, "velocity": 79}, {"time": 833, "pitch": 36, "duration": 2, "velocity": 79}, {"time": 833, "pitch": 60, "duration": 2, "velocity": 72}, {"time": 833, "pitch": 64, "duration": 2, "velocity": 79}, {"time": 833, "pitch": 67, "duration": 2, "velocity": 73}, {"time": 842, "pitch": 38, "duration": 17, "velocity": 86}, {"time": 842, "pitch": 62, "duration": 8, "velocity": 93}, {"time": 842, "pitch": 65, "duration": 7, "velocity": 96}, {"time": 842, "pitch": 69, "duration": 7, "velocity": 86}, {"time": 848, "pitch": 45, "duration": 11, "velocity": 56}, {"time": 851, "pitch": 50, "duration": 4, "velocity": 86}, {"time": 854, "pitch": 65, "duration": 6, "velocity": 99}, {"time": 857, "pitch": 50, "duration": 3, "velocity": 97}, {"time": 860, "pitch": 62, "duration": 4, "velocity": 99}, {"time": 863, "pitch": 65, "duration": 2, "velocity": 97}, {"time": 866, "pitch": 46, "duration": 18, "velocity": 71}, {"time": 869, "pitch": 53, "duration": 14, "velocity": 51}, {"time": 872, "pitch": 58, "duration": 6, "velocity": 97}, {"time": 875, "pitch": 62, "duration": 4, "velocity": 72}, {"time": 878, "pitch": 65, "duration": 6, "velocity": 99}, {"time": 881, "pitch": 58, "duration": 2, "velocity": 100}, {"time": 884, "pitch": 62, "duration": 5, "velocity": 102}, {"time": 887, "pitch": 65, "duration": 2, "velocity": 90}, {"time": 890, "pitch": 36, "duration": 17, "velocity": 66}, {"time": 893, "pitch": 43, "duration": 13, "velocity": 85}, {"time": 896, "pitch": 48, "duration": 6, "velocity": 81}, {"time": 899, "pitch": 55, "duration": 6, "velocity": 81}, {"time": 902, "pitch": 64, "duration": 12, "velocity": 95}, {"time": 905, "pitch": 48, "duration": 8, "velocity": 88}, {"time": 908, "pitch": 60, "duration": 5, "velocity": 95}, {"time": 911, "pitch": 55, "duration": 2, "velocity": 88}, {"time": 914, "pitch": 41, "duration": 22, "velocity": 77}, {"time": 917, "pitch": 48, "duration": 22, "velocity": 59}, {"time": 920, "pitch": 53, "duration": 7, "velocity": 90}, {"time": 923, "pitch": 60, "duration": 23, "velocity": 86}, {"time": 926, "pitch": 69, "duration": 21, "velocity": 96}, {"time": 929, "pitch": 53, "duration": 3, "velocity": 88}, {"time": 932, "pitch": 67, "duration": 14, "velocity": 99}, {"time": 935, "pitch": 65, "duration": 12, "velocity": 95}, {"time": 938, "pitch": 41, "duration": 16, "velocity": 72}, {"time": 941, "pitch": 48, "duration": 14, "velocity": 64}, {"time": 944, "pitch": 53, "duration": 7, "velocity": 76}, {"time": 947, "pitch": 60, "duration": 6, "velocity": 53}, {"time": 950, "pitch": 69, "duration": 13, "velocity": 96}, {"time": 953, "pitch": 53, "duration": 3, "velocity": 71}, {"time": 956, "pitch": 65, "duration": 7, "velocity": 74}, {"time": 962, "pitch": 46, "duration": 20, "velocity": 89}, {"time": 968, "pitch": 53, "duration": 14, "velocity": 52}, {"time": 974, "pitch": 58, "duration": 7, "velocity": 66}, {"time": 974, "pitch": 65, "duration": 12, "velocity": 85}, {"time": 980, "pitch": 62, "duration": 7, "velocity": 66}, {"time": 986, "pitch": 48, "duration": 14, "velocity": 63}, {"time": 992, "pitch": 60, "duration": 7, "velocity": 57}, {"time": 998, "pitch": 64, "duration": 10, "velocity": 65}, {"time": 998, "pitch": 67, "duration": 10, "velocity": 66}, {"time": 1004, "pitch": 60, "duration": 6, "velocity": 55}, {"time": 1010, "pitch": 45, "duration": 23, "velocity": 69}, {"time": 1016, "pitch": 52, "duration": 18, "velocity": 64}, {"time": 1022, "pitch": 57, "duration": 2, "velocity": 66}, {"time": 1022, "pitch": 64, "duration": 19, "velocity": 72}, {"time": 1028, "pitch": 57, "duration": 9, "velocity": 82}, {"time": 1034, "pitch": 45, "duration": 18, "velocity": 62}, {"time": 1040, "pitch": 57, "duration": 9, "velocity": 72}, {"time": 1046, "pitch": 64, "duration": 10, "velocity": 68}, {"time": 1052, "pitch": 57, "duration": 4, "velocity": 66}, {"time": 1058, "pitch": 46, "duration": 14, "velocity": 74}, {"time": 1064, "pitch": 58, "duration": 9, "velocity": 68}, {"time": 1070, "pitch": 65, "duration": 10, "velocity": 72}, {"time": 1076, "pitch": 62, "duration": 6, "velocity": 66}, {"time": 1082, "pitch": 48, "duration": 12, "velocity": 68}, {"time": 1088, "pitch": 60, "duration": 7, "velocity": 63}, {"time": 1094, "pitch": 64, "duration": 11, "velocity": 72}, {"time": 1100, "pitch": 60, "duration": 42, "velocity": 56}, {"time": 1106, "pitch": 41, "duration": 48, "velocity": 68}, {"time": 1112, "pitch": 48, "duration": 40, "velocity": 58}, {"time": 1118, "pitch": 65, "duration": 10, "velocity": 69}, {"time": 1118, "pitch": 69, "duration": 9, "velocity": 45}, {"time": 1124, "pitch": 53, "duration": 9, "velocity": 59}, {"time": 1130, "pitch": 65, "duration": 11, "velocity": 73}, {"time": 1130, "pitch": 69, "duration": 11, "velocity": 69}, {"time": 1136, "pitch": 53, "duration": 7, "velocity": 55}, {"time": 1142, "pitch": 60, "duration": 1, "velocity": 36}, {"time": 1142, "pitch": 65, "duration": 11, "velocity": 86}, {"time": 1142, "pitch": 69, "duration": 11, "velocity": 79}, {"time": 1148, "pitch": 60, "duration": 5, "velocity": 73}, {"time": 1154, "pitch": 46, "duration": 18, "velocity": 74}, {"time": 1160, "pitch": 58, "duration": 9, "velocity": 54}, {"time": 1166, "pitch": 65, "duration": 11, "velocity": 93}, {"time": 1172, "pitch": 62, "duration": 7, "velocity": 54}, {"time": 1178, "pitch": 36, "duration": 11, "velocity": 72}, {"time": 1184, "pitch": 55, "duration": 13, "velocity": 50}, {"time": 1190, "pitch": 64, "duration": 12, "velocity": 86}, {"time": 1196, "pitch": 60, "duration": 6, "velocity": 46}, {"time": 1202, "pitch": 41, "duration": 39, "velocity": 49}, {"time": 1208, "pitch": 48, "duration": 33, "velocity": 41}, {"time": 1214, "pitch": 65, "duration": 18, "velocity": 65}, {"time": 1220, "pitch": 60, "duration": 8, "velocity": 53}, {"time": 1226, "pitch": 69, "duration": 10, "velocity": 73}, {"time": 1229, "pitch": 53, "duration": 13, "velocity": 58}, {"time": 1238, "pitch": 65, "duration": 13, "velocity": 70}, {"time": 1238, "pitch": 69, "duration": 13, "velocity": 70}, {"time": 1244, "pitch": 60, "duration": 7, "velocity": 67}, {"time": 1250, "pitch": 46, "duration": 16, "velocity": 72}, {"time": 1256, "pitch": 62, "duration": 6, "velocity": 64}, {"time": 1262, "pitch": 65, "duration": 11, "velocity": 76}, {"time": 1268, "pitch": 62, "duration": 5, "velocity": 51}, {"time": 1274, "pitch": 36, "duration": 13, "velocity": 66}, {"time": 1280, "pitch": 55, "duration": 18, "velocity": 57}, {"time": 1286, "pitch": 64, "duration": 12, "velocity": 79}, {"time": 1292, "pitch": 60, "duration": 6, "velocity": 56}, {"time": 1298, "pitch": 41, "duration": 40, "velocity": 63}, {"time": 1304, "pitch": 48, "duration": 35, "velocity": 49}, {"time": 1310, "pitch": 53, "duration": 16, "velocity": 63}, {"time": 1316, "pitch": 57, "duration": 18, "velocity": 72}, {"time": 1322, "pitch": 65, "duration": 24, "velocity": 69}, {"time": 1334, "pitch": 60, "duration": 12, "velocity": 62}, {"time": 1340, "pitch": 57, "duration": 6, "velocity": 56}, {"time": 1346, "pitch": 46, "duration": 19, "velocity": 59}, {"time": 1352, "pitch": 53, "duration": 13, "velocity": 59}, {"time": 1358, "pitch": 58, "duration": 7, "velocity": 70}, {"time": 1364, "pitch": 62, "duration": 8, "velocity": 83}, {"time": 1370, "pitch": 36, "duration": 20, "velocity": 63}, {"time": 1376, "pitch": 43, "duration": 15, "velocity": 56}, {"time": 1382, "pitch": 48, "duration": 10, "velocity": 54}, {"time": 1382, "pitch": 55, "duration": 12, "velocity": 68}, {"time": 1388, "pitch": 60, "duration": 7, "velocity": 64}, {"time": 1388, "pitch": 64, "duration": 7, "velocity": 63}, {"time": 1394, "pitch": 41, "duration": 12, "velocity": 74}, {"time": 1400, "pitch": 60, "duration": 5, "velocity": 76}, {"time": 1406, "pitch": 40, "duration": 11, "velocity": 74}, {"time": 1412, "pitch": 57, "duration": 6, "velocity": 68}, {"time": 1418, "pitch": 38, "duration": 18, "velocity": 66}, {"time": 1424, "pitch": 45, "duration": 12, "velocity": 61}, {"time": 1430, "pitch": 50, "duration": 8, "velocity": 53}, {"time": 1430, "pitch": 62, "duration": 12, "velocity": 66}, {"time": 1430, "pitch": 65, "duration": 12, "velocity": 57}, {"time": 1436, "pitch": 57, "duration": 6, "velocity": 50}, {"time": 1442, "pitch": 46, "duration": 39, "velocity": 76}, {"time": 1448, "pitch": 53, "duration": 32, "velocity": 41}, {"time": 1454, "pitch": 62, "duration": 11, "velocity": 63}, {"time": 1454, "pitch": 65, "duration": 7, "velocity": 59}, {"time": 1460, "pitch": 58, "duration": 8, "velocity": 54}, {"time": 1466, "pitch": 62, "duration": 11, "velocity": 59}, {"time": 1466, "pitch": 65, "duration": 9, "velocity": 66}, {"time": 1472, "pitch": 58, "duration": 7, "velocity": 52}, {"time": 1478, "pitch": 65, "duration": 12, "velocity": 83}, {"time": 1484, "pitch": 62, "duration": 8, "velocity": 63}, {"time": 1490, "pitch": 36, "duration": 40, "velocity": 72}, {"time": 1496, "pitch": 43, "duration": 34, "velocity": 59}, {"time": 1502, "pitch": 55, "duration": 10, "velocity": 58}, {"time": 1502, "pitch": 60, "duration": 10, "velocity": 69}, {"time": 1508, "pitch": 48, "duration": 9, "velocity": 56}, {"time": 1514, "pitch": 55, "duration": 10, "velocity": 89}, {"time": 1514, "pitch": 60, "duration": 10, "velocity": 89}, {"time": 1514, "pitch": 64, "duration": 10, "velocity": 85}, {"time": 1520, "pitch": 48, "duration": 7, "velocity": 95}, {"time": 1526, "pitch": 60, "duration": 7, "velocity": 102}, {"time": 1526, "pitch": 64, "duration": 12, "velocity": 107}, {"time": 1529, "pitch": 48, "duration": 4, "velocity": 102}, {"time": 1532, "pitch": 55, "duration": 4, "velocity": 102}, {"time": 1535, "pitch": 60, "duration": 2, "velocity": 117}, {"time": 1538, "pitch": 41, "duration": 18, "velocity": 96}, {"time": 1541, "pitch": 48, "duration": 14, "velocity": 86}, {"time": 1544, "pitch": 53, "duration": 7, "velocity": 99}, {"time": 1547, "pitch": 65, "duration": 5, "velocity": 86}, {"time": 1550, "pitch": 72, "duration": 12, "velocity": 127}, {"time": 1553, "pitch": 53, "duration": 2, "velocity": 107}, {"time": 1556, "pitch": 69, "duration": 8, "velocity": 112}, {"time": 1559, "pitch": 65, "duration": 3, "velocity": 107}, {"time": 1562, "pitch": 40, "duration": 20, "velocity": 81}, {"time": 1565, "pitch": 45, "duration": 16, "velocity": 55}, {"time": 1568, "pitch": 64, "duration": 10, "velocity": 96}, {"time": 1571, "pitch": 52, "duration": 4, "velocity": 82}, {"time": 1574, "pitch": 72, "duration": 11, "velocity": 112}, {"time": 1577, "pitch": 52, "duration": 4, "velocity": 89}, {"time": 1580, "pitch": 69, "duration": 5, "velocity": 100}, {"time": 1583, "pitch": 64, "duration": 3, "velocity": 96}, {"time": 1586, "pitch": 46, "duration": 17, "velocity": 96}, {"time": 1589, "pitch": 50, "duration": 13, "velocity": 61}, {"time": 1592, "pitch": 53, "duration": 6, "velocity": 82}, {"time": 1595, "pitch": 58, "duration": 2, "velocity": 93}, {"time": 1598, "pitch": 62, "duration": 6, "velocity": 100}, {"time": 1601, "pitch": 53, "duration": 2, "velocity": 83}, {"time": 1604, "pitch": 58, "duration": 4, "velocity": 127}, {"time": 1607, "pitch": 62, "duration": 2, "velocity": 92}, {"time": 1610, "pitch": 36, "duration": 17, "velocity": 79}, {"time": 1613, "pitch": 43, "duration": 14, "velocity": 72}, {"time": 1616, "pitch": 48, "duration": 7, "velocity": 96}, {"time": 1619, "pitch": 55, "duration": 5, "velocity": 93}, {"time": 1622, "pitch": 64, "duration": 11, "velocity": 99}, {"time": 1625, "pitch": 48, "duration": 8, "velocity": 89}, {"time": 1628, "pitch": 60, "duration": 5, "velocity": 99}, {"time": 1631, "pitch": 55, "duration": 2, "velocity": 102}, {"time": 1634, "pitch": 41, "duration": 18, "velocity": 82}, {"time": 1637, "pitch": 48, "duration": 14, "velocity": 72}, {"time": 1640, "pitch": 53, "duration": 7, "velocity": 97}, {"time": 1643, "pitch": 60, "duration": 7, "velocity": 102}, {"time": 1646, "pitch": 69, "duration": 14, "velocity": 122}, {"time": 1649, "pitch": 53, "duration": 2, "velocity": 102}, {"time": 1652, "pitch": 65, "duration": 12, "velocity": 99}, {"time": 1655, "pitch": 60, "duration": 4, "velocity": 112}, {"time": 1658, "pitch": 40, "duration": 22, "velocity": 70}, {"time": 1661, "pitch": 48, "duration": 19, "velocity": 74}, {"time": 1664, "pitch": 52, "duration": 7, "velocity": 92}, {"time": 1667, "pitch": 57, "duration": 4, "velocity": 97}, {"time": 1670, "pitch": 60, "duration": 5, "velocity": 102}, {"time": 1673, "pitch": 52, "duration": 7, "velocity": 99}, {"time": 1676, "pitch": 64, "duration": 5, "velocity": 99}, {"time": 1679, "pitch": 57, "duration": 3, "velocity": 89}, {"time": 1682, "pitch": 46, "duration": 17, "velocity": 88}, {"time": 1685, "pitch": 53, "duration": 13, "velocity": 61}, {"time": 1688, "pitch": 58, "duration": 7, "velocity": 100}, {"time": 1691, "pitch": 62, "duration": 4, "velocity": 92}, {"time": 1694, "pitch": 65, "duration": 6, "velocity": 95}, {"time": 1697, "pitch": 58, "duration": 2, "velocity": 107}, {"time": 1700, "pitch": 62, "duration": 6, "velocity": 100}, {"time": 1703, "pitch": 65, "duration": 3, "velocity": 99}, {"time": 1706, "pitch": 36, "duration": 20, "velocity": 90}, {"time": 1709, "pitch": 43, "duration": 17, "velocity": 72}, {"time": 1712, "pitch": 48, "duration": 7, "velocity": 100}, {"time": 1715, "pitch": 52, "duration": 4, "velocity": 99}, {"time": 1718, "pitch": 55, "duration": 6, "velocity": 112}, {"time": 1721, "pitch": 48, "duration": 7, "velocity": 99}, {"time": 1724, "pitch": 52, "duration": 4, "velocity": 99}, {"time": 1727, "pitch": 55, "duration": 2, "velocity": 107}, {"time": 1730, "pitch": 46, "duration": 17, "velocity": 86}, {"time": 1733, "pitch": 53, "duration": 13, "velocity": 59}, {"time": 1736, "pitch": 58, "duration": 7, "velocity": 102}, {"time": 1739, "pitch": 62, "duration": 4, "velocity": 88}, {"time": 1742, "pitch": 65, "duration": 6, "velocity": 100}, {"time": 1745, "pitch": 58, "duration": 2, "velocity": 99}, {"time": 1748, "pitch": 62, "duration": 6, "velocity": 107}, {"time": 1751, "pitch": 65, "duration": 2, "velocity": 102}, {"time": 1754, "pitch": 36, "duration": 16, "velocity": 72}, {"time": 1757, "pitch": 43, "duration": 13, "velocity": 63}, {"time": 1760, "pitch": 48, "duration": 7, "velocity": 93}, {"time": 1763, "pitch": 55, "duration": 6, "velocity": 83}, {"time": 1766, "pitch": 64, "duration": 11, "velocity": 107}, {"time": 1769, "pitch": 48, "duration": 7, "velocity": 95}, {"time": 1772, "pitch": 60, "duration": 4, "velocity": 107}, {"time": 1775, "pitch": 55, "duration": 2, "velocity": 100}, {"time": 1778, "pitch": 41, "duration": 2, "velocity": 69}, {"time": 1778, "pitch": 60, "duration": 2, "velocity": 77}, {"time": 1778, "pitch": 65, "duration": 2, "velocity": 81}, {"time": 1778, "pitch": 69, "duration": 2, "velocity": 78}, {"time": 1781, "pitch": 41, "duration": 2, "velocity": 75}, {"time": 1781, "pitch": 60, "duration": 2, "velocity": 71}, {"time": 1781, "pitch": 65, "duration": 2, "velocity": 82}, {"time": 1781, "pitch": 69, "duration": 2, "velocity": 78}, {"time": 1790, "pitch": 36, "duration": 1, "velocity": 75}, {"time": 1790, "pitch": 60, "duration": 1, "velocity": 89}, {"time": 1790, "pitch": 64, "duration": 1, "velocity": 82}, {"time": 1790, "pitch": 67, "duration": 1, "velocity": 79}, {"time": 1793, "pitch": 36, "duration": 2, "velocity": 79}, {"time": 1793, "pitch": 60, "duration": 2, "velocity": 72}, {"time": 1793, "pitch": 64, "duration": 2, "velocity": 79}, {"time": 1793, "pitch": 67, "duration": 2, "velocity": 73}, {"time": 1802, "pitch": 38, "duration": 17, "velocity": 86}, {"time": 1802, "pitch": 62, "duration": 8, "velocity": 93}, {"time": 1802, "pitch": 65, "duration": 7, "velocity": 96}, {"time": 1802, "pitch": 69, "duration": 7, "velocity": 86}, {"time": 1808, "pitch": 45, "duration": 11, "velocity": 56}, {"time": 1811, "pitch": 50, "duration": 4, "velocity": 86}, {"time": 1814, "pitch": 65, "duration": 6, "velocity": 99}, {"time": 1817, "pitch": 50, "duration": 3, "velocity": 97}, {"time": 1820, "pitch": 62, "duration": 4, "velocity": 99}, {"time": 1823, "pitch": 65, "duration": 2, "velocity": 97}, {"time": 1826, "pitch": 46, "duration": 18, "velocity": 71}, {"time": 1829, "pitch": 53, "duration": 14, "velocity": 51}, {"time": 1832, "pitch": 58, "duration": 6, "velocity": 97}, {"time": 1835, "pitch": 62, "duration": 4, "velocity": 72}, {"time": 1838, "pitch": 65, "duration": 6, "velocity": 99}, {"time": 1841, "pitch": 58, "duration": 2, "velocity": 100}, {"time": 1844, "pitch": 62, "duration": 5, "velocity": 102}, {"time": 1847, "pitch": 65, "duration": 2, "velocity": 90}, {"time": 1850, "pitch": 36, "duration": 17, "velocity": 66}, {"time": 1853, "pitch": 43, "duration": 13, "velocity": 85}, {"time": 1856, "pitch": 48, "duration": 6, "velocity": 81}, {"time": 1859, "pitch": 55, "duration": 6, "velocity": 81}, {"time": 1862, "pitch": 64, "duration": 12, "velocity": 95}, {"time": 1865, "pitch": 48, "duration": 8, "velocity": 88}, {"time": 1868, "pitch": 60, "duration": 5, "velocity": 95}, {"time": 1871, "pitch": 55, "duration": 2, "velocity": 88}, {"time": 1874, "pitch": 41, "duration": 22, "velocity": 85}, {"time": 1880, "pitch": 48, "duration": 16, "velocity": 65}, {"time": 1886, "pitch": 65, "duration": 6, "velocity": 83}, {"time": 1886, "pitch": 69, "duration": 8, "velocity": 86}, {"time": 1889, "pitch": 53, "duration": 7, "velocity": 75}, {"time": 1892, "pitch": 60, "duration": 5, "velocity": 90}, {"time": 1898, "pitch": 41, "duration": 23, "velocity": 66}, {"time": 1898, "pitch": 48, "duration": 22, "velocity": 69}, {"time": 1898, "pitch": 53, "duration": 15, "velocity": 78}, {"time": 1898, "pitch": 60, "duration": 23, "velocity": 90}, {"time": 1898, "pitch": 65, "duration": 11, "velocity": 89}, {"time": 1898, "pitch": 69, "duration": 11, "velocity": 85}, {"time": 1910, "pitch": 65, "duration": 11, "velocity": 78}, {"time": 1910, "pitch": 69, "duration": 11, "velocity": 76}, {"time": 1916, "pitch": 53, "duration": 3, "velocity": 43}, {"time": 1922, "pitch": 46, "duration": 2, "velocity": 92}, {"time": 1922, "pitch": 58, "duration": 2, "velocity": 112}, {"time": 1922, "pitch": 62, "duration": 2, "velocity": 92}, {"time": 1922, "pitch": 65, "duration": 1, "velocity": 79}, {"time": 1925, "pitch": 46, "duration": 3, "velocity": 88}, {"time": 1925, "pitch": 58, "duration": 2, "velocity": 95}, {"time": 1925, "pitch": 62, "duration": 2, "velocity": 88}, {"time": 1925, "pitch": 65, "duration": 2, "velocity": 81}, {"time": 1946, "pitch": 48, "duration": 1, "velocity": 86}, {"time": 1946, "pitch": 55, "duration": 1, "velocity": 82}, {"time": 1946, "pitch": 60, "duration": 1, "velocity": 92}, {"time": 1946, "pitch": 64, "duration": 1, "velocity": 90}, {"time": 1946, "pitch": 67, "duration": 1, "velocity": 82}, {"time": 1949, "pitch": 48, "duration": 2, "velocity": 85}, {"time": 1949, "pitch": 55, "duration": 2, "velocity": 78}, {"time": 1949, "pitch": 60, "duration": 2, "velocity": 86}, {"time": 1949, "pitch": 64, "duration": 2, "velocity": 90}, {"time": 1949, "pitch": 67, "duration": 2, "velocity": 82}, {"time": 1970, "pitch": 53, "duration": 10, "velocity": 100}, {"time": 1970, "pitch": 60, "duration": 10, "velocity": 99}, {"time": 1970, "pitch": 65, "duration": 9, "velocity": 96}, {"time": 1970, "pitch": 69, "duration": 9, "velocity": 95}, {"time": 1982, "pitch": 48, "duration": 5, "velocity": 96}, {"time": 1982, "pitch": 60, "duration": 10, "velocity": 92}, {"time": 1982, "pitch": 64, "duration": 11, "velocity": 93}, {"time": 1982, "pitch": 67, "duration": 8, "velocity": 93}, {"time": 1994, "pitch": 38, "duration": 15, "velocity": 89}, {"time": 1994, "pitch": 62, "duration": 7, "velocity": 96}, {"time": 1994, "pitch": 65, "duration": 5, "velocity": 95}, {"time": 1994, "pitch": 69, "duration": 4, "velocity": 92}, {"time": 2000, "pitch": 45, "duration": 9, "velocity": 61}, {"time": 2003, "pitch": 50, "duration": 3, "velocity": 40}, {"time": 2006, "pitch": 62, "duration": 6, "velocity": 102}, {"time": 2006, "pitch": 65, "duration": 11, "velocity": 97}, {"time": 2009, "pitch": 50, "duration": 2, "velocity": 112}, {"time": 2012, "pitch": 57, "duration": 4, "velocity": 95}, {"time": 2015, "pitch": 62, "duration": 2, "velocity": 99}, {"time": 2018, "pitch": 46, "duration": 2, "velocity": 107}, {"time": 2018, "pitch": 58, "duration": 2, "velocity": 93}, {"time": 2018, "pitch": 62, "duration": 1, "velocity": 75}, {"time": 2018, "pitch": 65, "duration": 1, "velocity": 76}, {"time": 2021, "pitch": 46, "duration": 3, "velocity": 96}, {"time": 2021, "pitch": 58, "duration": 2, "velocity": 93}, {"time": 2021, "pitch": 62, "duration": 2, "velocity": 81}, {"time": 2021, "pitch": 65, "duration": 3, "velocity": 81}, {"time": 2042, "pitch": 48, "duration": 1, "velocity": 85}, {"time": 2042, "pitch": 55, "duration": 1, "velocity": 88}, {"time": 2042, "pitch": 60, "duration": 1, "velocity": 95}, {"time": 2042, "pitch": 64, "duration": 1, "velocity": 92}, {"time": 2042, "pitch": 67, "duration": 1, "velocity": 81}, {"time": 2045, "pitch": 48, "duration": 2, "velocity": 82}, {"time": 2045, "pitch": 55, "duration": 2, "velocity": 78}, {"time": 2045, "pitch": 60, "duration": 2, "velocity": 82}, {"time": 2045, "pitch": 64, "duration": 2, "velocity": 83}, {"time": 2045, "pitch": 67, "duration": 2, "velocity": 74}, {"time": 2066, "pitch": 41, "duration": 4, "velocity": 53}, {"time": 2066, "pitch": 48, "duration": 4, "velocity": 70}, {"time": 2066, "pitch": 53, "duration": 4, "velocity": 85}, {"time": 2066, "pitch": 60, "duration": 4, "velocity": 81}, {"time": 2066, "pitch": 65, "duration": 4, "velocity": 79}, {"time": 2066, "pitch": 69, "duration": 4, "velocity": 72}, {"time": 2072, "pitch": 41, "duration": 4, "velocity": 50}, {"time": 2072, "pitch": 48, "duration": 4, "velocity": 63}, {"time": 2072, "pitch": 53, "duration": 4, "velocity": 73}, {"time": 2072, "pitch": 60, "duration": 4, "velocity": 77}, {"time": 2072, "pitch": 65, "duration": 4, "velocity": 77}, {"time": 2072, "pitch": 69, "duration": 4, "velocity": 72}, {"time": 2078, "pitch": 41, "duration": 4, "velocity": 53}, {"time": 2078, "pitch": 48, "duration": 4, "velocity": 63}, {"time": 2078, "pitch": 53, "duration": 3, "velocity": 85}, {"time": 2078, "pitch": 60, "duration": 4, "velocity": 75}, {"time": 2078, "pitch": 65, "duration": 4, "velocity": 83}, {"time": 2078, "pitch": 69, "duration": 4, "velocity": 76}, {"time": 2084, "pitch": 41, "duration": 1, "velocity": 40}, {"time": 2084, "pitch": 48, "duration": 1, "velocity": 63}, {"time": 2084, "pitch": 53, "duration": 1, "velocity": 79}, {"time": 2084, "pitch": 60, "duration": 4, "velocity": 89}, {"time": 2084, "pitch": 65, "duration": 2, "velocity": 96}, {"time": 2084, "pitch": 69, "duration": 2, "velocity": 88}, {"time": 2090, "pitch": 36, "duration": 5, "velocity": 56}, {"time": 2090, "pitch": 60, "duration": 2, "velocity": 61}, {"time": 2090, "pitch": 64, "duration": 1, "velocity": 61}, {"time": 2090, "pitch": 67, "duration": 1, "velocity": 58}, {"time": 2093, "pitch": 43, "duration": 1, "velocity": 53}, {"time": 2093, "pitch": 48, "duration": 1, "velocity": 69}, {"time": 2093, "pitch": 60, "duration": 2, "velocity": 64}, {"time": 2093, "pitch": 64, "duration": 1, "velocity": 69}, {"time": 2093, "pitch": 67, "duration": 2, "velocity": 68}, {"time": 2096, "pitch": 36, "duration": 1, "velocity": 59}, {"time": 2096, "pitch": 43, "duration": 1, "velocity": 79}, {"time": 2096, "pitch": 48, "duration": 1, "velocity": 86}, {"time": 2096, "pitch": 60, "duration": 2, "velocity": 68}, {"time": 2096, "pitch": 64, "duration": 2, "velocity": 67}, {"time": 2096, "pitch": 67, "duration": 2, "velocity": 69}, {"time": 2099, "pitch": 36, "duration": 1, "velocity": 65}, {"time": 2099, "pitch": 43, "duration": 2, "velocity": 96}, {"time": 2099, "pitch": 48, "duration": 1, "velocity": 97}, {"time": 2099, "pitch": 60, "duration": 2, "velocity": 85}, {"time": 2099, "pitch": 64, "duration": 2, "velocity": 88}, {"time": 2099, "pitch": 67, "duration": 2, "velocity": 79}, {"time": 2102, "pitch": 36, "duration": 1, "velocity": 73}, {"time": 2102, "pitch": 43, "duration": 1, "velocity": 100}, {"time": 2102, "pitch": 48, "duration": 1, "velocity": 100}, {"time": 2102, "pitch": 60, "duration": 1, "velocity": 86}, {"time": 2102, "pitch": 64, "duration": 1, "velocity": 85}, {"time": 2102, "pitch": 67, "duration": 1, "velocity": 79}, {"time": 2105, "pitch": 36, "duration": 1, "velocity": 60}, {"time": 2105, "pitch": 43, "duration": 1, "velocity": 92}, {"time": 2105, "pitch": 48, "duration": 1, "velocity": 95}, {"time": 2105, "pitch": 60, "duration": 2, "velocity": 83}, {"time": 2105, "pitch": 64, "duration": 1, "velocity": 82}, {"time": 2105, "pitch": 67, "duration": 2, "velocity": 78}, {"time": 2108, "pitch": 36, "duration": 1, "velocity": 59}, {"time": 2108, "pitch": 43, "duration": 1, "velocity": 83}, {"time": 2108, "pitch": 48, "duration": 1, "velocity": 86}, {"time": 2108, "pitch": 60, "duration": 1, "velocity": 76}, {"time": 2108, "pitch": 64, "duration": 1, "velocity": 76}, {"time": 2108, "pitch": 67, "duration": 1, "velocity": 72}, {"time": 2111, "pitch": 36, "duration": 2, "velocity": 66}, {"time": 2111, "pitch": 43, "duration": 1, "velocity": 83}, {"time": 2111, "pitch": 48, "duration": 1, "velocity": 95}, {"time": 2111, "pitch": 60, "duration": 2, "velocity": 86}, {"time": 2111, "pitch": 64, "duration": 2, "velocity": 86}, {"time": 2111, "pitch": 67, "duration": 2, "velocity": 81}, {"time": 2114, "pitch": 41, "duration": 22, "velocity": 69}, {"time": 2120, "pitch": 48, "duration": 15, "velocity": 41}, {"time": 2126, "pitch": 69, "duration": 11, "velocity": 92}, {"time": 2132, "pitch": 65, "duration": 5, "velocity": 66}, {"time": 2138, "pitch": 43, "duration": 15, "velocity": 58}, {"time": 2138, "pitch": 60, "duration": 9, "velocity": 78}, {"time": 2138, "pitch": 64, "duration": 9, "velocity": 78}, {"time": 2144, "pitch": 57, "duration": 8, "velocity": 70}, {"time": 2150, "pitch": 64, "duration": 12, "velocity": 86}, {"time": 2156, "pitch": 57, "duration": 6, "velocity": 76}, {"time": 2162, "pitch": 46, "duration": 17, "velocity": 79}, {"time": 2168, "pitch": 53, "duration": 11, "velocity": 50}, {"time": 2174, "pitch": 58, "duration": 5, "velocity": 54}, {"time": 2174, "pitch": 65, "duration": 12, "velocity": 72}, {"time": 2180, "pitch": 62, "duration": 8, "velocity": 65}, {"time": 2186, "pitch": 48, "duration": 14, "velocity": 65}, {"time": 2192, "pitch": 55, "duration": 7, "velocity": 66}, {"time": 2198, "pitch": 64, "duration": 14, "velocity": 75}, {"time": 2198, "pitch": 67, "duration": 10, "velocity": 74}, {"time": 2204, "pitch": 60, "duration": 7, "velocity": 70}, {"time": 2210, "pitch": 41, "duration": 20, "velocity": 70}, {"time": 2216, "pitch": 48, "duration": 17, "velocity": 52}, {"time": 2222, "pitch": 65, "duration": 9, "velocity": 90}, {"time": 2222, "pitch": 69, "duration": 8, "velocity": 78}, {"time": 2228, "pitch": 60, "duration": 5, "velocity": 75}, {"time": 2234, "pitch": 43, "duration": 20, "velocity": 66}, {"time": 2240, "pitch": 55, "duration": 6, "velocity": 74}, {"time": 2246, "pitch": 60, "duration": 12, "velocity": 72}, {"time": 2246, "pitch": 64, "duration": 12, "velocity": 70}, {"time": 2252, "pitch": 57, "duration": 6, "velocity": 64}, {"time": 2258, "pitch": 46, "duration": 17, "velocity": 89}, {"time": 2264, "pitch": 50, "duration": 10, "velocity": 53}, {"time": 2270, "pitch": 53, "duration": 6, "velocity": 48}, {"time": 2270, "pitch": 58, "duration": 3, "velocity": 92}, {"time": 2270, "pitch": 62, "duration": 10, "velocity": 81}, {"time": 2270, "pitch": 65, "duration": 11, "velocity": 72}, {"time": 2276, "pitch": 58, "duration": 4, "velocity": 81}, {"time": 2282, "pitch": 48, "duration": 19, "velocity": 75}, {"time": 2285, "pitch": 55, "duration": 10, "velocity": 81}, {"time": 2288, "pitch": 60, "duration": 7, "velocity": 74}, {"time": 2291, "pitch": 64, "duration": 3, "velocity": 95}, {"time": 2294, "pitch": 67, "duration": 11, "velocity": 122}, {"time": 2297, "pitch": 55, "duration": 3, "velocity": 102}, {"time": 2300, "pitch": 64, "duration": 5, "velocity": 127}, {"time": 2303, "pitch": 60, "duration": 3, "velocity": 102}, {"time": 2306, "pitch": 46, "duration": 4, "velocity": 107}, {"time": 2306, "pitch": 58, "duration": 4, "velocity": 107}, {"time": 2306, "pitch": 62, "duration": 4, "velocity": 97}, {"time": 2306, "pitch": 65, "duration": 4, "velocity": 83}, {"time": 2312, "pitch": 46, "duration": 2, "velocity": 96}, {"time": 2312, "pitch": 58, "duration": 2, "velocity": 99}, {"time": 2312, "pitch": 62, "duration": 1, "velocity": 88}, {"time": 2312, "pitch": 65, "duration": 1, "velocity": 78}, {"time": 2315, "pitch": 46, "duration": 2, "velocity": 100}, {"time": 2315, "pitch": 58, "duration": 2, "velocity": 100}, {"time": 2315, "pitch": 62, "duration": 2, "velocity": 90}, {"time": 2315, "pitch": 65, "duration": 2, "velocity": 83}, {"time": 2321, "pitch": 46, "duration": 1, "velocity": 112}, {"time": 2321, "pitch": 58, "duration": 1, "velocity": 100}, {"time": 2321, "pitch": 62, "duration": 1, "velocity": 77}, {"time": 2321, "pitch": 65, "duration": 1, "velocity": 66}, {"time": 2324, "pitch": 46, "duration": 1, "velocity": 93}, {"time": 2324, "pitch": 58, "duration": 1, "velocity": 97}, {"time": 2324, "pitch": 62, "duration": 1, "velocity": 79}, {"time": 2324, "pitch": 65, "duration": 1, "velocity": 66}, {"time": 2327, "pitch": 46, "duration": 1, "velocity": 100}, {"time": 2327, "pitch": 58, "duration": 1, "velocity": 112}, {"time": 2327, "pitch": 62, "duration": 1, "velocity": 86}, {"time": 2330, "pitch": 48, "duration": 5, "velocity": 102}, {"time": 2330, "pitch": 55, "duration": 5, "velocity": 75}, {"time": 2330, "pitch": 60, "duration": 5, "velocity": 90}, {"time": 2330, "pitch": 64, "duration": 5, "velocity": 92}, {"time": 2336, "pitch": 48, "duration": 2, "velocity": 92}, {"time": 2336, "pitch": 55, "duration": 2, "velocity": 86}, {"time": 2336, "pitch": 60, "duration": 2, "velocity": 89}, {"time": 2336, "pitch": 64, "duration": 1, "velocity": 81}, {"time": 2339, "pitch": 48, "duration": 2, "velocity": 107}, {"time": 2339, "pitch": 55, "duration": 2, "velocity": 96}, {"time": 2339, "pitch": 60, "duration": 2, "velocity": 102}, {"time": 2339, "pitch": 64, "duration": 2, "velocity": 95}, {"time": 2345, "pitch": 48, "duration": 1, "velocity": 86}, {"time": 2345, "pitch": 55, "duration": 1, "velocity": 89}, {"time": 2345, "pitch": 60, "duration": 1, "velocity": 92}, {"time": 2345, "pitch": 64, "duration": 1, "velocity": 92}, {"time": 2345, "pitch": 66, "duration": 1, "velocity": 65}, {"time": 2345, "pitch": 67, "duration": 1, "velocity": 86}, {"time": 2348, "pitch": 48, "duration": 1, "velocity": 88}, {"time": 2348, "pitch": 55, "duration": 1, "velocity": 93}, {"time": 2348, "pitch": 60, "duration": 1, "velocity": 90}, {"time": 2348, "pitch": 64, "duration": 1, "velocity": 88}, {"time": 2348, "pitch": 67, "duration": 1, "velocity": 81}, {"time": 2351, "pitch": 48, "duration": 1, "velocity": 81}, {"time": 2351, "pitch": 55, "duration": 1, "velocity": 83}, {"time": 2351, "pitch": 60, "duration": 1, "velocity": 86}, {"time": 2351, "pitch": 64, "duration": 1, "velocity": 85}, {"time": 2351, "pitch": 67, "duration": 1, "velocity": 69}, {"time": 2354, "pitch": 53, "duration": 1, "velocity": 92}, {"time": 2354, "pitch": 57, "duration": 1, "velocity": 100}, {"time": 2354, "pitch": 60, "duration": 1, "velocity": 97}, {"time": 2354, "pitch": 65, "duration": 1, "velocity": 96}, {"time": 2354, "pitch": 69, "duration": 1, "velocity": 95}, {"time": 2357, "pitch": 53, "duration": 1, "velocity": 95}, {"time": 2357, "pitch": 57, "duration": 2, "velocity": 102}, {"time": 2357, "pitch": 60, "duration": 2, "velocity": 102}, {"time": 2357, "pitch": 65, "duration": 2, "velocity": 96}, {"time": 2357, "pitch": 69, "duration": 2, "velocity": 89}, {"time": 2366, "pitch": 48, "duration": 1, "velocity": 82}, {"time": 2366, "pitch": 55, "duration": 1, "velocity": 90}, {"time": 2366, "pitch": 60, "duration": 1, "velocity": 95}, {"time": 2366, "pitch": 64, "duration": 1, "velocity": 93}, {"time": 2366, "pitch": 67, "duration": 1, "velocity": 88}, {"time": 2369, "pitch": 48, "duration": 3, "velocity": 88}, {"time": 2369, "pitch": 55, "duration": 2, "velocity": 83}, {"time": 2369, "pitch": 60, "duration": 2, "velocity": 95}, {"time": 2369, "pitch": 64, "duration": 2, "velocity": 95}, {"time": 2369, "pitch": 67, "duration": 3, "velocity": 88}, {"time": 2378, "pitch": 38, "duration": 11, "velocity": 59}, {"time": 2378, "pitch": 45, "duration": 11, "velocity": 92}, {"time": 2378, "pitch": 50, "duration": 11, "velocity": 85}, {"time": 2378, "pitch": 62, "duration": 11, "velocity": 102}, {"time": 2378, "pitch": 65, "duration": 11, "velocity": 100}, {"time": 2378, "pitch": 69, "duration": 11, "velocity": 93}, {"time": 2390, "pitch": 38, "duration": 12, "velocity": 59}, {"time": 2390, "pitch": 45, "duration": 12, "velocity": 72}, {"time": 2390, "pitch": 50, "duration": 12, "velocity": 74}, {"time": 2390, "pitch": 62, "duration": 12, "velocity": 99}, {"time": 2390, "pitch": 65, "duration": 12, "velocity": 96}, {"time": 2390, "pitch": 69, "duration": 12, "velocity": 95}, {"time": 2402, "pitch": 46, "duration": 10, "velocity": 102}, {"time": 2402, "pitch": 58, "duration": 4, "velocity": 112}, {"time": 2402, "pitch": 62, "duration": 1, "velocity": 86}, {"time": 2402, "pitch": 65, "duration": 4, "velocity": 73}, {"time": 2408, "pitch": 58, "duration": 4, "velocity": 96}, {"time": 2408, "pitch": 62, "duration": 4, "velocity": 85}, {"time": 2408, "pitch": 65, "duration": 4, "velocity": 69}, {"time": 2414, "pitch": 46, "duration": 10, "velocity": 64}, {"time": 2414, "pitch": 58, "duration": 4, "velocity": 102}, {"time": 2414, "pitch": 62, "duration": 4, "velocity": 92}, {"time": 2414, "pitch": 65, "duration": 4, "velocity": 76}, {"time": 2420, "pitch": 58, "duration": 4, "velocity": 107}, {"time": 2420, "pitch": 62, "duration": 4, "velocity": 86}, {"time": 2426, "pitch": 48, "duration": 5, "velocity": 59}, {"time": 2426, "pitch": 55, "duration": 4, "velocity": 92}, {"time": 2426, "pitch": 60, "duration": 4, "velocity": 86}, {"time": 2426, "pitch": 64, "duration": 4, "velocity": 90}, {"time": 2432, "pitch": 48, "duration": 4, "velocity": 63}, {"time": 2432, "pitch": 55, "duration": 4, "velocity": 97}, {"time": 2432, "pitch": 60, "duration": 4, "velocity": 99}, {"time": 2432, "pitch": 64, "duration": 4, "velocity": 95}, {"time": 2438, "pitch": 48, "duration": 4, "velocity": 86}, {"time": 2438, "pitch": 55, "duration": 4, "velocity": 99}, {"time": 2438, "pitch": 60, "duration": 4, "velocity": 99}, {"time": 2438, "pitch": 64, "duration": 4, "velocity": 95}, {"time": 2444, "pitch": 48, "duration": 6, "velocity": 95}, {"time": 2444, "pitch": 55, "duration": 4, "velocity": 96}, {"time": 2444, "pitch": 60, "duration": 5, "velocity": 102}, {"time": 2444, "pitch": 64, "duration": 5, "velocity": 97}, {"time": 2450, "pitch": 41, "duration": 18, "velocity": 96}, {"time": 2453, "pitch": 48, "duration": 14, "velocity": 86}, {"time": 2456, "pitch": 53, "duration": 7, "velocity": 99}, {"time": 2459, "pitch": 65, "duration": 5, "velocity": 86}, {"time": 2462, "pitch": 72, "duration": 12, "velocity": 127}, {"time": 2465, "pitch": 53, "duration": 2, "velocity": 107}, {"time": 2468, "pitch": 69, "duration": 8, "velocity": 112}, {"time": 2471, "pitch": 65, "duration": 3, "velocity": 107}, {"time": 2474, "pitch": 40, "duration": 20, "velocity": 81}, {"time": 2477, "pitch": 45, "duration": 16, "velocity": 55}, {"time": 2480, "pitch": 64, "duration": 10, "velocity": 96}, {"time": 2483, "pitch": 52, "duration": 4, "velocity": 82}, {"time": 2486, "pitch": 72, "duration": 11, "velocity": 112}, {"time": 2489, "pitch": 52, "duration": 4, "velocity": 89}, {"time": 2492, "pitch": 69, "duration": 5, "velocity": 100}, {"time": 2495, "pitch": 64, "duration": 3, "velocity": 96}, {"time": 2498, "pitch": 46, "duration": 17, "velocity": 96}, {"time": 2501, "pitch": 50, "duration": 13, "velocity": 61}, {"time": 2504, "pitch": 53, "duration": 6, "velocity": 82}, {"time": 2507, "pitch": 58, "duration": 2, "velocity": 93}, {"time": 2510, "pitch": 62, "duration": 6, "velocity": 100}, {"time": 2513, "pitch": 53, "duration": 2, "velocity": 83}, {"time": 2516, "pitch": 58, "duration": 4, "velocity": 127}, {"time": 2519, "pitch": 62, "duration": 2, "velocity": 92}, {"time": 2522, "pitch": 36, "duration": 17, "velocity": 79}, {"time": 2525, "pitch": 43, "duration": 14, "velocity": 72}, {"time": 2528, "pitch": 48, "duration": 7, "velocity": 96}, {"time": 2531, "pitch": 55, "duration": 5, "velocity": 93}, {"time": 2534, "pitch": 64, "duration": 11, "velocity": 99}, {"time": 2537, "pitch": 48, "duration": 8, "velocity": 89}, {"time": 2540, "pitch": 60, "duration": 5, "velocity": 99}, {"time": 2543, "pitch": 55, "duration": 2, "velocity": 102}, {"time": 2546, "pitch": 41, "duration": 18, "velocity": 82}, {"time": 2549, "pitch": 48, "duration": 14, "velocity": 72}, {"time": 2552, "pitch": 53, "duration": 7, "velocity": 97}, {"time": 2555, "pitch": 60, "duration": 7, "velocity": 102}, {"time": 2558, "pitch": 69, "duration": 14, "velocity": 122}, {"time": 2561, "pitch": 53, "duration": 2, "velocity": 102}, {"time": 2564, "pitch": 65, "duration": 12, "velocity": 99}, {"time": 2567, "pitch": 60, "duration": 4, "velocity": 112}, {"time": 2570, "pitch": 40, "duration": 22, "velocity": 70}, {"time": 2573, "pitch": 48, "duration": 19, "velocity": 74}, {"time": 2576, "pitch": 52, "duration": 7, "velocity": 92}, {"time": 2579, "pitch": 57, "duration": 4, "velocity": 97}, {"time": 2582, "pitch": 60, "duration": 5, "velocity": 102}, {"time": 2585, "pitch": 52, "duration": 7, "velocity": 99}, {"time": 2588, "pitch": 64, "duration": 5, "velocity": 99}, {"time": 2591, "pitch": 57, "duration": 3, "velocity": 89}, {"time": 2594, "pitch": 46, "duration": 17, "velocity": 88}, {"time": 2597, "pitch": 53, "duration": 13, "velocity": 61}, {"time": 2600, "pitch": 58, "duration": 7, "velocity": 100}, {"time": 2603, "pitch": 62, "duration": 4, "velocity": 92}, {"time": 2606, "pitch": 65, "duration": 6, "velocity": 95}, {"time": 2609, "pitch": 58, "duration": 2, "velocity": 107}, {"time": 2612, "pitch": 62, "duration": 6, "velocity": 100}, {"time": 2615, "pitch": 65, "duration": 3, "velocity": 99}, {"time": 2618, "pitch": 36, "duration": 20, "velocity": 90}, {"time": 2621, "pitch": 43, "duration": 17, "velocity": 72}, {"time": 2624, "pitch": 48, "duration": 7, "velocity": 100}, {"time": 2627, "pitch": 52, "duration": 4, "velocity": 99}, {"time": 2630, "pitch": 55, "duration": 6, "velocity": 112}, {"time": 2633, "pitch": 48, "duration": 7, "velocity": 99}, {"time": 2636, "pitch": 52, "duration": 4, "velocity": 99}, {"time": 2639, "pitch": 55, "duration": 2, "velocity": 107}, {"time": 2642, "pitch": 46, "duration": 17, "velocity": 86}, {"time": 2645, "pitch": 53, "duration": 13, "velocity": 59}, {"time": 2648, "pitch": 58, "duration": 7, "velocity": 102}, {"time": 2651, "pitch": 62, "duration": 4, "velocity": 88}, {"time": 2654, "pitch": 65, "duration": 6, "velocity": 100}, {"time": 2657, "pitch": 58, "duration": 2, "velocity": 99}, {"time": 2660, "pitch": 62, "duration": 6, "velocity": 107}, {"time": 2663, "pitch": 65, "duration": 2, "velocity": 102}, {"time": 2666, "pitch": 36, "duration": 16, "velocity": 72}, {"time": 2669, "pitch": 43, "duration": 13, "velocity": 63}, {"time": 2672, "pitch": 48, "duration": 7, "velocity": 93}, {"time": 2675, "pitch": 55, "duration": 6, "velocity": 83}, {"time": 2678, "pitch": 64, "duration": 11, "velocity": 107}, {"time": 2681, "pitch": 48, "duration": 7, "velocity": 95}, {"time": 2684, "pitch": 60, "duration": 4, "velocity": 107}, {"time": 2687, "pitch": 55, "duration": 2, "velocity": 100}, {"time": 2690, "pitch": 41, "duration": 2, "velocity": 69}, {"time": 2690, "pitch": 60, "duration": 2, "velocity": 77}, {"time": 2690, "pitch": 65, "duration": 2, "velocity": 81}, {"time": 2690, "pitch": 69, "duration": 2, "velocity": 78}, {"time": 2693, "pitch": 41, "duration": 2, "velocity": 75}, {"time": 2693, "pitch": 60, "duration": 2, "velocity": 71}, {"time": 2693, "pitch": 65, "duration": 2, "velocity": 82}, {"time": 2693, "pitch": 69, "duration": 2, "velocity": 78}, {"time": 2702, "pitch": 36, "duration": 1, "velocity": 75}, {"time": 2702, "pitch": 60, "duration": 1, "velocity": 89}, {"time": 2702, "pitch": 64, "duration": 1, "velocity": 82}, {"time": 2702, "pitch": 67, "duration": 1, "velocity": 79}, {"time": 2705, "pitch": 36, "duration": 2, "velocity": 79}, {"time": 2705, "pitch": 60, "duration": 2, "velocity": 72}, {"time": 2705, "pitch": 64, "duration": 2, "velocity": 79}, {"time": 2705, "pitch": 67, "duration": 2, "velocity": 73}, {"time": 2714, "pitch": 38, "duration": 13, "velocity": 63}, {"time": 2714, "pitch": 45, "duration": 13, "velocity": 67}, {"time": 2714, "pitch": 50, "duration": 13, "velocity": 86}, {"time": 2714, "pitch": 57, "duration": 14, "velocity": 107}, {"time": 2714, "pitch": 62, "duration": 13, "velocity": 97}, {"time": 2714, "pitch": 65, "duration": 13, "velocity": 93}, {"time": 2738, "pitch": 46, "duration": 16, "velocity": 66}, {"time": 2738, "pitch": 58, "duration": 15, "velocity": 112}, {"time": 2738, "pitch": 62, "duration": 16, "velocity": 96}, {"time": 2738, "pitch": 65, "duration": 16, "velocity": 90}, {"time": 2762, "pitch": 48, "duration": 24, "velocity": 83}, {"time": 2762, "pitch": 55, "duration": 24, "velocity": 86}, {"time": 2762, "pitch": 60, "duration": 24, "velocity": 100}, {"time": 2762, "pitch": 64, "duration": 24, "velocity": 97}, {"time": 2762, "pitch": 67, "duration": 24, "velocity": 90}, {"time": 2786, "pitch": 40, "duration": 1, "velocity": 62}, {"time": 2786, "pitch": 41, "duration": 19, "velocity": 52}, {"time": 2786, "pitch": 60, "duration": 1, "velocity": 72}, {"time": 2786, "pitch": 65, "duration": 11, "velocity": 77}, {"time": 2786, "pitch": 69, "duration": 11, "velocity": 76}, {"time": 2792, "pitch": 48, "duration": 9, "velocity": 55}, {"time": 2798, "pitch": 60, "duration": 6, "velocity": 73}, {"time": 2798, "pitch": 65, "duration": 10, "velocity": 81}, {"time": 2798, "pitch": 69, "duration": 11, "velocity": 74}, {"time": 2804, "pitch": 48, "duration": 5, "velocity": 41}, {"time": 2810, "pitch": 43, "duration": 16, "velocity": 60}, {"time": 2810, "pitch": 62, "duration": 11, "velocity": 62}, {"time": 2810, "pitch": 67, "duration": 11, "velocity": 81}, {"time": 2822, "pitch": 62, "duration": 6, "velocity": 68}, {"time": 2822, "pitch": 67, "duration": 4, "velocity": 81}, {"time": 2834, "pitch": 46, "duration": 16, "velocity": 55}, {"time": 2834, "pitch": 58, "duration": 9, "velocity": 69}, {"time": 2834, "pitch": 62, "duration": 10, "velocity": 59}, {"time": 2834, "pitch": 65, "duration": 10, "velocity": 59}, {"time": 2846, "pitch": 58, "duration": 3, "velocity": 72}, {"time": 2846, "pitch": 62, "duration": 4, "velocity": 67}, {"time": 2846, "pitch": 65, "duration": 5, "velocity": 60}, {"time": 2858, "pitch": 48, "duration": 14, "velocity": 70}, {"time": 2858, "pitch": 64, "duration": 8, "velocity": 71}, {"time": 2858, "pitch": 67, "duration": 8, "velocity": 66}, {"time": 2864, "pitch": 55, "duration": 6, "velocity": 65}, {"time": 2870, "pitch": 64, "duration": 11, "velocity": 85}, {"time": 2870, "pitch": 67, "duration": 7, "velocity": 73}, {"time": 2876, "pitch": 60, "duration": 9, "velocity": 73}, {"time": 2882, "pitch": 41, "duration": 15, "velocity": 72}, {"time": 2888, "pitch": 48, "duration": 8, "velocity": 62}, {"time": 2894, "pitch": 65, "duration": 15, "velocity": 74}, {"time": 2894, "pitch": 69, "duration": 14, "velocity": 73}, {"time": 2900, "pitch": 60, "duration": 6, "velocity": 61}, {"time": 2906, "pitch": 43, "duration": 19, "velocity": 67}, {"time": 2912, "pitch": 62, "duration": 7, "velocity": 37}, {"time": 2918, "pitch": 67, "duration": 11, "velocity": 65}, {"time": 2924, "pitch": 62, "duration": 5, "velocity": 53}, {"time": 2930, "pitch": 46, "duration": 24, "velocity": 85}, {"time": 2936, "pitch": 50, "duration": 18, "velocity": 63}, {"time": 2942, "pitch": 58, "duration": 11, "velocity": 89}, {"time": 2942, "pitch": 62, "duration": 12, "velocity": 72}, {"time": 2942, "pitch": 65, "duration": 12, "velocity": 66}, {"time": 2948, "pitch": 53, "duration": 6, "velocity": 47}, {"time": 2954, "pitch": 36, "duration": 24, "velocity": 72}, {"time": 2960, "pitch": 43, "duration": 17, "velocity": 61}, {"time": 2966, "pitch": 48, "duration": 12, "velocity": 53}, {"time": 2966, "pitch": 60, "duration": 11, "velocity": 64}, {"time": 2966, "pitch": 64, "duration": 12, "velocity": 59}, {"time": 2972, "pitch": 55, "duration": 6, "velocity": 59}, {"time": 2978, "pitch": 41, "duration": 16, "velocity": 68}, {"time": 2984, "pitch": 48, "duration": 18, "velocity": 55}, {"time": 2990, "pitch": 65, "duration": 19, "velocity": 78}, {"time": 2996, "pitch": 60, "duration": 8, "velocity": 56}, {"time": 3002, "pitch": 43, "duration": 21, "velocity": 69}, {"time": 3008, "pitch": 60, "duration": 7, "velocity": 72}, {"time": 3014, "pitch": 65, "duration": 12, "velocity": 72}, {"time": 3020, "pitch": 60, "duration": 6, "velocity": 59}, {"time": 3026, "pitch": 46, "duration": 19, "velocity": 85}, {"time": 3032, "pitch": 50, "duration": 12, "velocity": 46}, {"time": 3038, "pitch": 53, "duration": 10, "velocity": 39}, {"time": 3038, "pitch": 62, "duration": 13, "velocity": 73}, {"time": 3044, "pitch": 58, "duration": 6, "velocity": 56}, {"time": 3050, "pitch": 48, "duration": 17, "velocity": 78}, {"time": 3056, "pitch": 52, "duration": 10, "velocity": 43}, {"time": 3062, "pitch": 55, "duration": 4, "velocity": 59}, {"time": 3062, "pitch": 64, "duration": 16, "velocity": 60}, {"time": 3062, "pitch": 67, "duration": 13, "velocity": 48}, {"time": 3068, "pitch": 60, "duration": 9, "velocity": 57}, {"time": 3074, "pitch": 41, "duration": 16, "velocity": 66}, {"time": 3080, "pitch": 60, "duration": 7, "velocity": 68}, {"time": 3086, "pitch": 65, "duration": 12, "velocity": 58}, {"time": 3086, "pitch": 69, "duration": 10, "velocity": 64}, {"time": 3092, "pitch": 60, "duration": 8, "velocity": 57}, {"time": 3098, "pitch": 43, "duration": 17, "velocity": 71}, {"time": 3104, "pitch": 60, "duration": 8, "velocity": 62}, {"time": 3110, "pitch": 65, "duration": 11, "velocity": 73}, {"time": 3116, "pitch": 60, "duration": 6, "velocity": 59}, {"time": 3122, "pitch": 46, "duration": 16, "velocity": 69}, {"time": 3128, "pitch": 58, "duration": 8, "velocity": 69}, {"time": 3134, "pitch": 62, "duration": 12, "velocity": 69}, {"time": 3134, "pitch": 65, "duration": 12, "velocity": 65}, {"time": 3140, "pitch": 58, "duration": 6, "velocity": 56}, {"time": 3146, "pitch": 48, "duration": 24, "velocity": 68}, {"time": 3152, "pitch": 52, "duration": 18, "velocity": 48}, {"time": 3158, "pitch": 55, "duration": 12, "velocity": 53}, {"time": 3158, "pitch": 64, "duration": 12, "velocity": 66}, {"time": 3158, "pitch": 67, "duration": 12, "velocity": 60}, {"time": 3164, "pitch": 60, "duration": 6, "velocity": 59}, {"time": 3170, "pitch": 41, "duration": 24, "velocity": 50}, {"time": 3170, "pitch": 48, "duration": 24, "velocity": 63}, {"time": 3170, "pitch": 53, "duration": 24, "velocity": 61}, {"time": 3170, "pitch": 60, "duration": 25, "velocity": 69}, {"time": 3170, "pitch": 65, "duration": 24, "velocity": 64}, {"time": 3170, "pitch": 69, "duration": 25, "velocity": 62}], "annotations": [{"time": 5, "annotation": {"number": 64, "value": 127}, "group": "control_change"}, {"time": 22, "annotation": {"number": 64, "value": 0}, "group": "control_change"}, {"time": 30, "annotation": {"number": 64, "value": 127}, "group": "control_change"}, {"time": 45, "annotation": {"number": 64, "value": 0}, "group": "control_change"}, {"time": 53, "annotation": {"number": 64, "value": 127}, "group": "control_change"}, {"time": 95, "annotation": {"number": 64, "value": 0}, "group": "control_change"}, {"time": 99, "annotation": {"number": 64, "value": 127}, "group": "control_change"}, {"time": 118, "annotation": {"number": 64, "value": 0}, "group": "control_change"}, {"time": 124, "annotation": {"number": 64, "value": 127}, "group": "control_change"}, {"time": 143, "annotation": {"number": 64, "value": 0}, "group": "control_change"}, {"time": 149, "annotation": {"number": 64, "value": 127}, "group": "control_change"}, {"time": 173, "annotation": {"number": 64, "value": 0}, "group": "control_change"}, {"time": 194, "annotation": {"number": 64, "value": 127}, "group": "control_change"}, {"time": 216, "annotation": {"number": 64, "value": 0}, "group": "control_change"}, {"time": 219, "annotation": {"number": 64, "value": 127}, "group": "control_change"}, {"time": 240, "annotation": {"number": 64, "value": 0}, "group": "control_change"}, {"time": 242, "annotation": {"number": 64, "value": 127}, "group": "control_change"}, {"time": 244, "annotation": {"number": 64, "value": 0}, "group": "control_change"}, {"time": 249, "annotation": {"number": 64, "value": 127}, "group": "control_change"}, {"time": 250, "annotation": {"number": 64, "value": 0}, "group": "control_change"}, {"time": 253, "annotation": {"number": 64, "value": 127}, "group": "control_change"}, {"time": 263, "annotation": {"number": 64, "value": 0}, "group": "control_change"}, {"time": 265, "annotation": {"number": 64, "value": 127}, "group": "control_change"}, {"time": 271, "annotation": {"number": 64, "value": 0}, "group": "control_change"}, {"time": 276, "annotation": {"number": 64, "value": 127}, "group": "control_change"}, {"time": 288, "annotation": {"number": 64, "value": 0}, "group": "control_change"}, {"time": 289, "annotation": {"number": 64, "value": 127}, "group": "control_change"}, {"time": 312, "annotation": {"number": 64, "value": 0}, "group": "control_change"}, {"time": 314, "annotation": {"number": 64, "value": 127}, "group": "control_change"}, {"time": 336, "annotation": {"number": 64, "value": 0}, "group": "control_change"}, {"time": 337, "annotation": {"number": 64, "value": 127}, "group": "control_change"}, {"time": 368, "annotation": {"number": 64, "value": 0}, "group": "control_change"}, {"time": 388, "annotation": {"number": 64, "value": 127}, "group": "control_change"}, {"time": 408, "annotation": {"number": 64, "value": 0}, "group": "control_change"}, {"time": 410, "annotation": {"number": 64, "value": 127}, "group": "control_change"}, {"time": 432, "annotation": {"number": 64, "value": 0}, "group": "control_change"}, {"time": 434, "annotation": {"number": 64, "value": 127}, "group": "control_change"}, {"time": 445, "annotation": {"number": 64, "value": 0}, "group": "control_change"}, {"time": 458, "annotation": {"number": 64, "value": 127}, "group": "control_change"}, {"time": 479, "annotation": {"number": 64, "value": 0}, "group": "control_change"}, {"time": 482, "annotation": {"number": 64, "value": 127}, "group": "control_change"}, {"time": 483, "annotation": {"number": 64, "value": 127}, "group": "control_change"}, {"time": 503, "annotation": {"number": 64, "value": 0}, "group": "control_change"}, {"time": 506, "annotation": {"number": 64, "value": 127}, "group": "control_change"}, {"time": 528, "annotation": {"number": 64, "value": 0}, "group": "control_change"}, {"time": 530, "annotation": {"number": 64, "value": 127}, "group": "control_change"}, {"time": 576, "annotation": {"number": 64, "value": 0}, "group": "control_change"}, {"time": 578, "annotation": {"number": 64, "value": 127}, "group": "control_change"}, {"time": 600, "annotation": {"number": 64, "value": 0}, "group": "control_change"}, {"time": 602, "annotation": {"number": 64, "value": 127}, "group": "control_change"}, {"time": 624, "annotation": {"number": 64, "value": 0}, "group": "control_change"}, {"time": 626, "annotation": {"number": 64, "value": 127}, "group": "control_change"}, {"time": 648, "annotation": {"number": 64, "value": 0}, "group": "control_change"}, {"time": 650, "annotation": {"number": 64, "value": 127}, "group": "control_change"}, {"time": 672, "annotation": {"number": 64, "value": 0}, "group": "control_change"}, {"time": 674, "annotation": {"number": 64, "value": 127}, "group": "control_change"}, {"time": 696, "annotation": {"number": 64, "value": 0}, "group": "control_change"}, {"time": 698, "annotation": {"number": 64, "value": 127}, "group": "control_change"}, {"time": 701, "annotation": {"number": 64, "value": 0}, "group": "control_change"}, {"time": 701, "annotation": {"number": 64, "value": 127}, "group": "control_change"}, {"time": 708, "annotation": {"number": 64, "value": 0}, "group": "control_change"}, {"time": 723, "annotation": {"number": 64, "value": 127}, "group": "control_change"}, {"time": 744, "annotation": {"number": 64, "value": 0}, "group": "control_change"}, {"time": 746, "annotation": {"number": 64, "value": 127}, "group": "control_change"}, {"time": 765, "annotation": {"number": 64, "value": 0}, "group": "control_change"}, {"time": 770, "annotation": {"number": 64, "value": 127}, "group": "control_change"}, {"time": 792, "annotation": {"number": 64, "value": 0}, "group": "control_change"}, {"time": 794, "annotation": {"number": 64, "value": 127}, "group": "control_change"}, {"time": 815, "annotation": {"number": 64, "value": 0}, "group": "control_change"}, {"time": 817, "annotation": {"number": 64, "value": 127}, "group": "control_change"}, {"time": 818, "annotation": {"number": 64, "value": 127}, "group": "control_change"}, {"time": 820, "annotation": {"number": 64, "value": 0}, "group": "control_change"}, {"time": 830, "annotation": {"number": 64, "value": 127}, "group": "control_change"}, {"time": 832, "annotation": {"number": 64, "value": 0}, "group": "control_change"}, {"time": 842, "annotation": {"number": 64, "value": 127}, "group": "control_change"}, {"time": 863, "annotation": {"number": 64, "value": 0}, "group": "control_change"}, {"time": 866, "annotation": {"number": 64, "value": 127}, "group": "control_change"}, {"time": 867, "annotation": {"number": 64, "value": 127}, "group": "control_change"}, {"time": 887, "annotation": {"number": 64, "value": 0}, "group": "control_change"}, {"time": 890, "annotation": {"number": 64, "value": 127}, "group": "control_change"}, {"time": 911, "annotation": {"number": 64, "value": 0}, "group": "control_change"}, {"time": 914, "annotation": {"number": 64, "value": 127}, "group": "control_change"}, {"time": 935, "annotation": {"number": 64, "value": 0}, "group": "control_change"}, {"time": 938, "annotation": {"number": 64, "value": 127}, "group": "control_change"}, {"time": 960, "annotation": {"number": 64, "value": 0}, "group": "control_change"}, {"time": 962, "annotation": {"number": 64, "value": 127}, "group": "control_change"}, {"time": 983, "annotation": {"number": 64, "value": 0}, "group": "control_change"}, {"time": 986, "annotation": {"number": 64, "value": 127}, "group": "control_change"}, {"time": 1007, "annotation": {"number": 64, "value": 0}, "group": "control_change"}, {"time": 1009, "annotation": {"number": 64, "value": 127}, "group": "control_change"}, {"time": 1010, "annotation": {"number": 64, "value": 127}, "group": "control_change"}, {"time": 1032, "annotation": {"number": 64, "value": 0}, "group": "control_change"}, {"time": 1058, "annotation": {"number": 64, "value": 127}, "group": "control_change"}, {"time": 1079, "annotation": {"number": 64, "value": 0}, "group": "control_change"}, {"time": 1081, "annotation": {"number": 64, "value": 127}, "group": "control_change"}, {"time": 1102, "annotation": {"number": 64, "value": 0}, "group": "control_change"}, {"time": 1106, "annotation": {"number": 64, "value": 127}, "group": "control_change"}, {"time": 1127, "annotation": {"number": 64, "value": 0}, "group": "control_change"}, {"time": 1129, "annotation": {"number": 64, "value": 127}, "group": "control_change"}, {"time": 1139, "annotation": {"number": 64, "value": 0}, "group": "control_change"}, {"time": 1154, "annotation": {"number": 64, "value": 127}, "group": "control_change"}, {"time": 1176, "annotation": {"number": 64, "value": 0}, "group": "control_change"}, {"time": 1179, "annotation": {"number": 64, "value": 127}, "group": "control_change"}, {"time": 1200, "annotation": {"number": 64, "value": 0}, "group": "control_change"}, {"time": 1202, "annotation": {"number": 64, "value": 127}, "group": "control_change"}, {"time": 1204, "annotation": {"number": 64, "value": 0}, "group": "control_change"}, {"time": 1209, "annotation": {"number": 64, "value": 127}, "group": "control_change"}, {"time": 1210, "annotation": {"number": 64, "value": 0}, "group": "control_change"}, {"time": 1213, "annotation": {"number": 64, "value": 127}, "group": "control_change"}, {"time": 1223, "annotation": {"number": 64, "value": 0}, "group": "control_change"}, {"time": 1225, "annotation": {"number": 64, "value": 127}, "group": "control_change"}, {"time": 1231, "annotation": {"number": 64, "value": 0}, "group": "control_change"}, {"time": 1236, "annotation": {"number": 64, "value": 127}, "group": "control_change"}, {"time": 1248, "annotation": {"number": 64, "value": 0}, "group": "control_change"}, {"time": 1249, "annotation": {"number": 64, "value": 127}, "group": "control_change"}, {"time": 1272, "annotation": {"number": 64, "value": 0}, "group": "control_change"}, {"time": 1274, "annotation": {"number": 64, "value": 127}, "group": "control_change"}, {"time": 1296, "annotation": {"number": 64, "value": 0}, "group": "control_change"}, {"time": 1297, "annotation": {"number": 64, "value": 127}, "group": "control_change"}, {"time": 1328, "annotation": {"number": 64, "value": 0}, "group": "control_change"}, {"time": 1348, "annotation": {"number": 64, "value": 127}, "group": "control_change"}, {"time": 1368, "annotation": {"number": 64, "value": 0}, "group": "control_change"}, {"time": 1370, "annotation": {"number": 64, "value": 127}, "group": "control_change"}, {"time": 1392, "annotation": {"number": 64, "value": 0}, "group": "control_change"}, {"time": 1394, "annotation": {"number": 64, "value": 127}, "group": "control_change"}, {"time": 1405, "annotation": {"number": 64, "value": 0}, "group": "control_change"}, {"time": 1418, "annotation": {"number": 64, "value": 127}, "group": "control_change"}, {"time": 1439, "annotation": {"number": 64, "value": 0}, "group": "control_change"}, {"time": 1442, "annotation": {"number": 64, "value": 127}, "group": "control_change"}, {"time": 1443, "annotation": {"number": 64, "value": 127}, "group": "control_change"}, {"time": 1463, "annotation": {"number": 64, "value": 0}, "group": "control_change"}, {"time": 1466, "annotation": {"number": 64, "value": 127}, "group": "control_change"}, {"time": 1488, "annotation": {"number": 64, "value": 0}, "group": "control_change"}, {"time": 1490, "annotation": {"number": 64, "value": 127}, "group": "control_change"}, {"time": 1536, "annotation": {"number": 64, "value": 0}, "group": "control_change"}, {"time": 1538, "annotation": {"number": 64, "value": 127}, "group": "control_change"}, {"time": 1560, "annotation": {"number": 64, "value": 0}, "group": "control_change"}, {"time": 1562, "annotation": {"number": 64, "value": 127}, "group": "control_change"}, {"time": 1584, "annotation": {"number": 64, "value": 0}, "group": "control_change"}, {"time": 1586, "annotation": {"number": 64, "value": 127}, "group": "control_change"}, {"time": 1608, "annotation": {"number": 64, "value": 0}, "group": "control_change"}, {"time": 1610, "annotation": {"number": 64, "value": 127}, "group": "control_change"}, {"time": 1632, "annotation": {"number": 64, "value": 0}, "group": "control_change"}, {"time": 1634, "annotation": {"number": 64, "value": 127}, "group": "control_change"}, {"time": 1656, "annotation": {"number": 64, "value": 0}, "group": "control_change"}, {"time": 1658, "annotation": {"number": 64, "value": 127}, "group": "control_change"}, {"time": 1661, "annotation": {"number": 64, "value": 0}, "group": "control_change"}, {"time": 1661, "annotation": {"number": 64, "value": 127}, "group": "control_change"}, {"time": 1668, "annotation": {"number": 64, "value": 0}, "group": "control_change"}, {"time": 1683, "annotation": {"number": 64, "value": 127}, "group": "control_change"}, {"time": 1704, "annotation": {"number": 64, "value": 0}, "group": "control_change"}, {"time": 1706, "annotation": {"number": 64, "value": 127}, "group": "control_change"}, {"time": 1725, "annotation": {"number": 64, "value": 0}, "group": "control_change"}, {"time": 1730, "annotation": {"number": 64, "value": 127}, "group": "control_change"}, {"time": 1752, "annotation": {"number": 64, "value": 0}, "group": "control_change"}, {"time": 1754, "annotation": {"number": 64, "value": 127}, "group": "control_change"}, {"time": 1775, "annotation": {"number": 64, "value": 0}, "group": "control_change"}, {"time": 1777, "annotation": {"number": 64, "value": 127}, "group": "control_change"}, {"time": 1778, "annotation": {"number": 64, "value": 127}, "group": "control_change"}, {"time": 1780, "annotation": {"number": 64, "value": 0}, "group": "control_change"}, {"time": 1790, "annotation": {"number": 64, "value": 127}, "group": "control_change"}, {"time": 1792, "annotation": {"number": 64, "value": 0}, "group": "control_change"}, {"time": 1802, "annotation": {"number": 64, "value": 127}, "group": "control_change"}, {"time": 1823, "annotation": {"number": 64, "value": 0}, "group": "control_change"}, {"time": 1826, "annotation": {"number": 64, "value": 127}, "group": "control_change"}, {"time": 1827, "annotation": {"number": 64, "value": 127}, "group": "control_change"}, {"time": 1847, "annotation": {"number": 64, "value": 0}, "group": "control_change"}, {"time": 1850, "annotation": {"number": 64, "value": 127}, "group": "control_change"}, {"time": 1871, "annotation": {"number": 64, "value": 0}, "group": "control_change"}, {"time": 1874, "annotation": {"number": 64, "value": 127}, "group": "control_change"}, {"time": 1895, "annotation": {"number": 64, "value": 0}, "group": "control_change"}, {"time": 1922, "annotation": {"number": 64, "value": 127}, "group": "control_change"}, {"time": 1923, "annotation": {"number": 64, "value": 0}, "group": "control_change"}, {"time": 1981, "annotation": {"number": 64, "value": 127}, "group": "control_change"}, {"time": 1990, "annotation": {"number": 64, "value": 0}, "group": "control_change"}, {"time": 1994, "annotation": {"number": 64, "value": 127}, "group": "control_change"}, {"time": 2015, "annotation": {"number": 64, "value": 0}, "group": "control_change"}, {"time": 2017, "annotation": {"number": 64, "value": 127}, "group": "control_change"}, {"time": 2018, "annotation": {"number": 64, "value": 127}, "group": "control_change"}, {"time": 2019, "annotation": {"number": 64, "value": 0}, "group": "control_change"}, {"time": 2042, "annotation": {"number": 64, "value": 127}, "group": "control_change"}, {"time": 2043, "annotation": {"number": 64, "value": 0}, "group": "control_change"}, {"time": 2066, "annotation": {"number": 64, "value": 127}, "group": "control_change"}, {"time": 2069, "annotation": {"number": 64, "value": 0}, "group": "control_change"}, {"time": 2078, "annotation": {"number": 64, "value": 127}, "group": "control_change"}, {"time": 2086, "annotation": {"number": 64, "value": 0}, "group": "control_change"}, {"time": 2115, "annotation": {"number": 64, "value": 127}, "group": "control_change"}, {"time": 2135, "annotation": {"number": 64, "value": 0}, "group": "control_change"}, {"time": 2138, "annotation": {"number": 64, "value": 127}, "group": "control_change"}, {"time": 2160, "annotation": {"number": 64, "value": 0}, "group": "control_change"}, {"time": 2162, "annotation": {"number": 64, "value": 127}, "group": "control_change"}, {"time": 2184, "annotation": {"number": 64, "value": 0}, "group": "control_change"}, {"time": 2186, "annotation": {"number": 64, "value": 127}, "group": "control_change"}, {"time": 2208, "annotation": {"number": 64, "value": 0}, "group": "control_change"}, {"time": 2210, "annotation": {"number": 64, "value": 127}, "group": "control_change"}, {"time": 2232, "annotation": {"number": 64, "value": 0}, "group": "control_change"}, {"time": 2233, "annotation": {"number": 64, "value": 127}, "group": "control_change"}, {"time": 2255, "annotation": {"number": 64, "value": 0}, "group": "control_change"}, {"time": 2258, "annotation": {"number": 64, "value": 127}, "group": "control_change"}, {"time": 2280, "annotation": {"number": 64, "value": 0}, "group": "control_change"}, {"time": 2282, "annotation": {"number": 64, "value": 127}, "group": "control_change"}, {"time": 2303, "annotation": {"number": 64, "value": 0}, "group": "control_change"}, {"time": 2306, "annotation": {"number": 64, "value": 127}, "group": "control_change"}, {"time": 2307, "annotation": {"number": 64, "value": 0}, "group": "control_change"}, {"time": 2402, "annotation": {"number": 64, "value": 127}, "group": "control_change"}, {"time": 2405, "annotation": {"number": 64, "value": 0}, "group": "control_change"}, {"time": 2415, "annotation": {"number": 64, "value": 127}, "group": "control_change"}, {"time": 2415, "annotation": {"number": 64, "value": 0}, "group": "control_change"}, {"time": 2426, "annotation": {"number": 64, "value": 127}, "group": "control_change"}, {"time": 2427, "annotation": {"number": 64, "value": 0}, "group": "control_change"}, {"time": 2438, "annotation": {"number": 64, "value": 127}, "group": "control_change"}, {"time": 2441, "annotation": {"number": 64, "value": 0}, "group": "control_change"}, {"time": 2450, "annotation": {"number": 64, "value": 127}, "group": "control_change"}, {"time": 2472, "annotation": {"number": 64, "value": 0}, "group": "control_change"}, {"time": 2474, "annotation": {"number": 64, "value": 127}, "group": "control_change"}, {"time": 2496, "annotation": {"number": 64, "value": 0}, "group": "control_change"}, {"time": 2498, "annotation": {"number": 64, "value": 127}, "group": "control_change"}, {"time": 2520, "annotation": {"number": 64, "value": 0}, "group": "control_change"}, {"time": 2522, "annotation": {"number": 64, "value": 127}, "group": "control_change"}, {"time": 2544, "annotation": {"number": 64, "value": 0}, "group": "control_change"}, {"time": 2546, "annotation": {"number": 64, "value": 127}, "group": "control_change"}, {"time": 2568, "annotation": {"number": 64, "value": 0}, "group": "control_change"}, {"time": 2570, "annotation": {"number": 64, "value": 127}, "group": "control_change"}, {"time": 2573, "annotation": {"number": 64, "value": 0}, "group": "control_change"}, {"time": 2573, "annotation": {"number": 64, "value": 127}, "group": "control_change"}, {"time": 2580, "annotation": {"number": 64, "value": 0}, "group": "control_change"}, {"time": 2595, "annotation": {"number": 64, "value": 127}, "group": "control_change"}, {"time": 2616, "annotation": {"number": 64, "value": 0}, "group": "control_change"}, {"time": 2618, "annotation": {"number": 64, "value": 127}, "group": "control_change"}, {"time": 2637, "annotation": {"number": 64, "value": 0}, "group": "control_change"}, {"time": 2642, "annotation": {"number": 64, "value": 127}, "group": "control_change"}, {"time": 2664, "annotation": {"number": 64, "value": 0}, "group": "control_change"}, {"time": 2666, "annotation": {"number": 64, "value": 127}, "group": "control_change"}, {"time": 2687, "annotation": {"number": 64, "value": 0}, "group": "control_change"}, {"time": 2689, "annotation": {"number": 64, "value": 127}, "group": "control_change"}, {"time": 2690, "annotation": {"number": 64, "value": 127}, "group": "control_change"}, {"time": 2692, "annotation": {"number": 64, "value": 0}, "group": "control_change"}, {"time": 2702, "annotation": {"number": 64, "value": 127}, "group": "control_change"}, {"time": 2704, "annotation": {"number": 64, "value": 0}, "group": "control_change"}, {"time": 2723, "annotation": {"number": 64, "value": 127}, "group": "control_change"}, {"time": 2736, "annotation": {"number": 64, "value": 0}, "group": "control_change"}, {"time": 2750, "annotation": {"number": 64, "value": 127}, "group": "control_change"}, {"time": 2760, "annotation": {"number": 64, "value": 0}, "group": "control_change"}, {"time": 2796, "annotation": {"number": 64, "value": 127}, "group": "control_change"}, {"time": 2808, "annotation": {"number": 64, "value": 0}, "group": "control_change"}, {"time": 2811, "annotation": {"number": 64, "value": 127}, "group": "control_change"}, {"time": 2832, "annotation": {"number": 64, "value": 0}, "group": "control_change"}, {"time": 2835, "annotation": {"number": 64, "value": 127}, "group": "control_change"}, {"time": 2855, "annotation": {"number": 64, "value": 0}, "group": "control_change"}, {"time": 2860, "annotation": {"number": 64, "value": 127}, "group": "control_change"}, {"time": 2877, "annotation": {"number": 64, "value": 0}, "group": "control_change"}, {"time": 2883, "annotation": {"number": 64, "value": 127}, "group": "control_change"}, {"time": 2904, "annotation": {"number": 64, "value": 0}, "group": "control_change"}, {"time": 2906, "annotation": {"number": 64, "value": 127}, "group": "control_change"}, {"time": 2927, "annotation": {"number": 64, "value": 0}, "group": "control_change"}, {"time": 2930, "annotation": {"number": 64, "value": 127}, "group": "control_change"}, {"time": 2948, "annotation": {"number": 64, "value": 0}, "group": "control_change"}, {"time": 2955, "annotation": {"number": 64, "value": 127}, "group": "control_change"}, {"time": 2971, "annotation": {"number": 64, "value": 0}, "group": "control_change"}, {"time": 2978, "annotation": {"number": 64, "value": 127}, "group": "control_change"}, {"time": 2998, "annotation": {"number": 64, "value": 0}, "group": "control_change"}, {"time": 3003, "annotation": {"number": 64, "value": 127}, "group": "control_change"}, {"time": 3019, "annotation": {"number": 64, "value": 0}, "group": "control_change"}, {"time": 3026, "annotation": {"number": 64, "value": 127}, "group": "control_change"}, {"time": 3047, "annotation": {"number": 64, "value": 0}, "group": "control_change"}, {"time": 3051, "annotation": {"number": 64, "value": 127}, "group": "control_change"}, {"time": 3070, "annotation": {"number": 64, "value": 0}, "group": "control_change"}, {"time": 3075, "annotation": {"number": 64, "value": 127}, "group": "control_change"}, {"time": 3094, "annotation": {"number": 64, "value": 0}, "group": "control_change"}, {"time": 3098, "annotation": {"number": 64, "value": 127}, "group": "control_change"}, {"time": 3119, "annotation": {"number": 64, "value": 0}, "group": "control_change"}, {"time": 3123, "annotation": {"number": 64, "value": 127}, "group": "control_change"}, {"time": 3141, "annotation": {"number": 64, "value": 0}, "group": "control_change"}, {"time": 3146, "annotation": {"number": 64, "value": 127}, "group": "control_change"}, {"time": 3165, "annotation": {"number": 64, "value": 0}, "group": "control_change"}, {"time": 3181, "annotation": {"number": 64, "value": 127}, "group": "control_change"}, {"time": 3205, "annotation": {"number": 64, "value": 0}, "group": "control_change"}, {"time": 3206, "annotation": {"number": 64, "value": 127}, "group": "control_change"}, {"time": 3209, "annotation": {"number": 64, "value": 0}, "group": "control_change"}]}]}