{"metadata": {"schema_version": "0.2", "title": "None", "source_filename": "481.mid", "source_format": "midi"}, "resolution": 12, "tempos": [{"time": 0, "qpm": 71.03012624421105}], "time_signatures": [{"time": 0, "numerator": 1, "denominator": 4}], "tracks": [{"program": 0, "is_drum": false, "name": "MELODY", "notes": [{"time": 809, "pitch": 53, "duration": 4, "velocity": 74}, {"time": 812, "pitch": 55, "duration": 3, "velocity": 71}, {"time": 815, "pitch": 60, "duration": 5, "velocity": 93}, {"time": 821, "pitch": 60, "duration": 4, "velocity": 86}, {"time": 827, "pitch": 60, "duration": 4, "velocity": 107}, {"time": 833, "pitch": 58, "duration": 3, "velocity": 88}, {"time": 836, "pitch": 60, "duration": 2, "velocity": 89}, {"time": 842, "pitch": 60, "duration": 4, "velocity": 96}, {"time": 848, "pitch": 55, "duration": 2, "velocity": 71}, {"time": 851, "pitch": 62, "duration": 4, "velocity": 93}, {"time": 857, "pitch": 60, "duration": 4, "velocity": 90}, {"time": 863, "pitch": 58, "duration": 10, "velocity": 86}, {"time": 911, "pitch": 60, "duration": 4, "velocity": 92}, {"time": 917, "pitch": 60, "duration": 2, "velocity": 79}, {"time": 920, "pitch": 60, "duration": 2, "velocity": 82}, {"time": 923, "pitch": 60, "duration": 3, "velocity": 75}, {"time": 929, "pitch": 58, "duration": 1, "velocity": 95}, {"time": 932, "pitch": 58, "duration": 4, "velocity": 85}, {"time": 938, "pitch": 60, "duration": 3, "velocity": 86}, {"time": 944, "pitch": 53, "duration": 2, "velocity": 73}, {"time": 947, "pitch": 62, "duration": 4, "velocity": 86}, {"time": 953, "pitch": 60, "duration": 3, "velocity": 92}, {"time": 956, "pitch": 58, "duration": 3, "velocity": 70}, {"time": 959, "pitch": 55, "duration": 7, "velocity": 89}, {"time": 1007, "pitch": 60, "duration": 2, "velocity": 83}, {"time": 1013, "pitch": 60, "duration": 2, "velocity": 79}, {"time": 1019, "pitch": 60, "duration": 2, "velocity": 88}, {"time": 1025, "pitch": 58, "duration": 2, "velocity": 89}, {"time": 1028, "pitch": 60, "duration": 2, "velocity": 88}, {"time": 1034, "pitch": 60, "duration": 2, "velocity": 92}, {"time": 1043, "pitch": 65, "duration": 3, "velocity": 95}, {"time": 1046, "pitch": 63, "duration": 3, "velocity": 64}, {"time": 1049, "pitch": 62, "duration": 3, "velocity": 75}, {"time": 1055, "pitch": 62, "duration": 5, "velocity": 92}, {"time": 1061, "pitch": 58, "duration": 4, "velocity": 95}, {"time": 1067, "pitch": 58, "duration": 3, "velocity": 96}, {"time": 1070, "pitch": 60, "duration": 3, "velocity": 85}, {"time": 1076, "pitch": 58, "duration": 8, "velocity": 90}, {"time": 1103, "pitch": 60, "duration": 4, "velocity": 77}, {"time": 1109, "pitch": 60, "duration": 2, "velocity": 77}, {"time": 1115, "pitch": 60, "duration": 2, "velocity": 88}, {"time": 1121, "pitch": 58, "duration": 1, "velocity": 82}, {"time": 1124, "pitch": 58, "duration": 2, "velocity": 69}, {"time": 1130, "pitch": 60, "duration": 3, "velocity": 86}, {"time": 1139, "pitch": 57, "duration": 3, "velocity": 78}, {"time": 1145, "pitch": 53, "duration": 3, "velocity": 79}, {"time": 1148, "pitch": 57, "duration": 2, "velocity": 82}, {"time": 1154, "pitch": 55, "duration": 19, "velocity": 83}, {"time": 1193, "pitch": 53, "duration": 4, "velocity": 74}, {"time": 1196, "pitch": 55, "duration": 3, "velocity": 71}, {"time": 1199, "pitch": 60, "duration": 5, "velocity": 93}, {"time": 1205, "pitch": 60, "duration": 4, "velocity": 86}, {"time": 1211, "pitch": 60, "duration": 4, "velocity": 107}, {"time": 1217, "pitch": 58, "duration": 3, "velocity": 88}, {"time": 1220, "pitch": 58, "duration": 2, "velocity": 89}, {"time": 1226, "pitch": 60, "duration": 4, "velocity": 96}, {"time": 1232, "pitch": 55, "duration": 2, "velocity": 71}, {"time": 1235, "pitch": 62, "duration": 4, "velocity": 93}, {"time": 1241, "pitch": 60, "duration": 4, "velocity": 90}, {"time": 1247, "pitch": 60, "duration": 4, "velocity": 86}, {"time": 1253, "pitch": 58, "duration": 18, "velocity": 86}, {"time": 1289, "pitch": 55, "duration": 1, "velocity": 90}, {"time": 1292, "pitch": 55, "duration": 2, "velocity": 83}, {"time": 1295, "pitch": 60, "duration": 4, "velocity": 92}, {"time": 1301, "pitch": 60, "duration": 2, "velocity": 79}, {"time": 1307, "pitch": 60, "duration": 3, "velocity": 75}, {"time": 1313, "pitch": 58, "duration": 1, "velocity": 95}, {"time": 1316, "pitch": 58, "duration": 4, "velocity": 85}, {"time": 1322, "pitch": 60, "duration": 3, "velocity": 86}, {"time": 1328, "pitch": 53, "duration": 2, "velocity": 73}, {"time": 1331, "pitch": 62, "duration": 4, "velocity": 86}, {"time": 1337, "pitch": 60, "duration": 3, "velocity": 92}, {"time": 1340, "pitch": 58, "duration": 3, "velocity": 70}, {"time": 1343, "pitch": 55, "duration": 24, "velocity": 89}, {"time": 1391, "pitch": 60, "duration": 2, "velocity": 83}, {"time": 1397, "pitch": 60, "duration": 2, "velocity": 79}, {"time": 1403, "pitch": 60, "duration": 2, "velocity": 88}, {"time": 1409, "pitch": 58, "duration": 2, "velocity": 89}, {"time": 1412, "pitch": 60, "duration": 2, "velocity": 88}, {"time": 1418, "pitch": 60, "duration": 2, "velocity": 92}, {"time": 1427, "pitch": 65, "duration": 3, "velocity": 95}, {"time": 1430, "pitch": 63, "duration": 3, "velocity": 64}, {"time": 1433, "pitch": 62, "duration": 3, "velocity": 75}, {"time": 1439, "pitch": 62, "duration": 5, "velocity": 92}, {"time": 1445, "pitch": 58, "duration": 4, "velocity": 95}, {"time": 1451, "pitch": 58, "duration": 3, "velocity": 96}, {"time": 1454, "pitch": 60, "duration": 3, "velocity": 85}, {"time": 1460, "pitch": 58, "duration": 8, "velocity": 90}, {"time": 1487, "pitch": 60, "duration": 4, "velocity": 77}, {"time": 1493, "pitch": 60, "duration": 2, "velocity": 77}, {"time": 1499, "pitch": 60, "duration": 2, "velocity": 88}, {"time": 1505, "pitch": 58, "duration": 1, "velocity": 82}, {"time": 1508, "pitch": 58, "duration": 2, "velocity": 69}, {"time": 1514, "pitch": 60, "duration": 3, "velocity": 86}, {"time": 1523, "pitch": 57, "duration": 3, "velocity": 78}, {"time": 1529, "pitch": 53, "duration": 3, "velocity": 79}, {"time": 1532, "pitch": 57, "duration": 2, "velocity": 82}, {"time": 1538, "pitch": 55, "duration": 19, "velocity": 83}, {"time": 1571, "pitch": 58, "duration": 4, "velocity": 107}, {"time": 1577, "pitch": 65, "duration": 4, "velocity": 112}, {"time": 1583, "pitch": 65, "duration": 18, "velocity": 107}, {"time": 1601, "pitch": 63, "duration": 3, "velocity": 117}, {"time": 1604, "pitch": 62, "duration": 3, "velocity": 72}, {"time": 1607, "pitch": 60, "duration": 10, "velocity": 100}, {"time": 1619, "pitch": 60, "duration": 1, "velocity": 95}, {"time": 1622, "pitch": 60, "duration": 1, "velocity": 88}, {"time": 1625, "pitch": 60, "duration": 2, "velocity": 88}, {"time": 1628, "pitch": 58, "duration": 3, "velocity": 100}, {"time": 1631, "pitch": 62, "duration": 3, "velocity": 100}, {"time": 1637, "pitch": 62, "duration": 3, "velocity": 122}, {"time": 1643, "pitch": 58, "duration": 2, "velocity": 96}, {"time": 1646, "pitch": 60, "duration": 3, "velocity": 89}, {"time": 1652, "pitch": 58, "duration": 5, "velocity": 102}, {"time": 1667, "pitch": 58, "duration": 3, "velocity": 102}, {"time": 1673, "pitch": 65, "duration": 3, "velocity": 97}, {"time": 1679, "pitch": 65, "duration": 13, "velocity": 112}, {"time": 1697, "pitch": 63, "duration": 3, "velocity": 122}, {"time": 1700, "pitch": 62, "duration": 3, "velocity": 71}, {"time": 1703, "pitch": 60, "duration": 8, "velocity": 97}, {"time": 1715, "pitch": 60, "duration": 1, "velocity": 92}, {"time": 1718, "pitch": 60, "duration": 1, "velocity": 79}, {"time": 1721, "pitch": 60, "duration": 2, "velocity": 82}, {"time": 1724, "pitch": 58, "duration": 2, "velocity": 86}, {"time": 1727, "pitch": 60, "duration": 3, "velocity": 95}, {"time": 1733, "pitch": 58, "duration": 16, "velocity": 102}, {"time": 1763, "pitch": 58, "duration": 4, "velocity": 100}, {"time": 1769, "pitch": 65, "duration": 3, "velocity": 107}, {"time": 1775, "pitch": 65, "duration": 14, "velocity": 112}, {"time": 1793, "pitch": 63, "duration": 3, "velocity": 122}, {"time": 1796, "pitch": 62, "duration": 3, "velocity": 82}, {"time": 1799, "pitch": 60, "duration": 8, "velocity": 96}, {"time": 1811, "pitch": 60, "duration": 1, "velocity": 93}, {"time": 1814, "pitch": 60, "duration": 1, "velocity": 92}, {"time": 1817, "pitch": 60, "duration": 2, "velocity": 92}, {"time": 1820, "pitch": 58, "duration": 3, "velocity": 77}, {"time": 1823, "pitch": 62, "duration": 2, "velocity": 100}, {"time": 1829, "pitch": 62, "duration": 7, "velocity": 97}, {"time": 1835, "pitch": 63, "duration": 4, "velocity": 107}, {"time": 1841, "pitch": 62, "duration": 2, "velocity": 92}, {"time": 1844, "pitch": 60, "duration": 4, "velocity": 96}, {"time": 1850, "pitch": 58, "duration": 6, "velocity": 83}, {"time": 1859, "pitch": 58, "duration": 3, "velocity": 99}, {"time": 1865, "pitch": 62, "duration": 3, "velocity": 93}, {"time": 1871, "pitch": 62, "duration": 9, "velocity": 97}, {"time": 1889, "pitch": 65, "duration": 2, "velocity": 79}, {"time": 1892, "pitch": 63, "duration": 2, "velocity": 97}, {"time": 1895, "pitch": 60, "duration": 4, "velocity": 85}, {"time": 1901, "pitch": 60, "duration": 6, "velocity": 90}, {"time": 1910, "pitch": 57, "duration": 4, "velocity": 96}, {"time": 1916, "pitch": 58, "duration": 2, "velocity": 83}, {"time": 1919, "pitch": 60, "duration": 5, "velocity": 95}, {"time": 1925, "pitch": 58, "duration": 12, "velocity": 75}, {"time": 1955, "pitch": 58, "duration": 4, "velocity": 96}, {"time": 1961, "pitch": 62, "duration": 6, "velocity": 100}, {"time": 1967, "pitch": 57, "duration": 26, "velocity": 112}, {"time": 2003, "pitch": 57, "duration": 3, "velocity": 92}, {"time": 2006, "pitch": 58, "duration": 5, "velocity": 92}, {"time": 2015, "pitch": 60, "duration": 6, "velocity": 95}, {"time": 2021, "pitch": 58, "duration": 25, "velocity": 70}, {"time": 2051, "pitch": 58, "duration": 4, "velocity": 117}, {"time": 2057, "pitch": 62, "duration": 5, "velocity": 96}, {"time": 2063, "pitch": 57, "duration": 17, "velocity": 96}, {"time": 2096, "pitch": 57, "duration": 2, "velocity": 82}, {"time": 2099, "pitch": 57, "duration": 3, "velocity": 90}, {"time": 2105, "pitch": 53, "duration": 2, "velocity": 82}, {"time": 2108, "pitch": 57, "duration": 3, "velocity": 86}, {"time": 2114, "pitch": 55, "duration": 33, "velocity": 86}, {"time": 2543, "pitch": 60, "duration": 1, "velocity": 89}, {"time": 2546, "pitch": 60, "duration": 1, "velocity": 85}, {"time": 2549, "pitch": 60, "duration": 2, "velocity": 92}, {"time": 2552, "pitch": 58, "duration": 1, "velocity": 92}, {"time": 2555, "pitch": 60, "duration": 3, "velocity": 96}, {"time": 2561, "pitch": 58, "duration": 2, "velocity": 97}, {"time": 2564, "pitch": 60, "duration": 3, "velocity": 93}, {"time": 2570, "pitch": 60, "duration": 4, "velocity": 95}, {"time": 2579, "pitch": 62, "duration": 4, "velocity": 95}, {"time": 2585, "pitch": 60, "duration": 4, "velocity": 95}, {"time": 2591, "pitch": 58, "duration": 12, "velocity": 92}, {"time": 2633, "pitch": 55, "duration": 1, "velocity": 89}, {"time": 2636, "pitch": 55, "duration": 3, "velocity": 75}, {"time": 2639, "pitch": 60, "duration": 4, "velocity": 93}, {"time": 2645, "pitch": 60, "duration": 3, "velocity": 88}, {"time": 2651, "pitch": 60, "duration": 3, "velocity": 100}, {"time": 2657, "pitch": 58, "duration": 1, "velocity": 96}, {"time": 2660, "pitch": 58, "duration": 4, "velocity": 88}, {"time": 2666, "pitch": 60, "duration": 4, "velocity": 97}, {"time": 2672, "pitch": 53, "duration": 2, "velocity": 86}, {"time": 2675, "pitch": 62, "duration": 4, "velocity": 95}, {"time": 2681, "pitch": 60, "duration": 2, "velocity": 93}, {"time": 2684, "pitch": 58, "duration": 3, "velocity": 92}, {"time": 2687, "pitch": 55, "duration": 29, "velocity": 90}, {"time": 2735, "pitch": 60, "duration": 4, "velocity": 89}, {"time": 2741, "pitch": 60, "duration": 2, "velocity": 88}, {"time": 2747, "pitch": 60, "duration": 2, "velocity": 93}, {"time": 2753, "pitch": 58, "duration": 3, "velocity": 97}, {"time": 2756, "pitch": 60, "duration": 3, "velocity": 90}, {"time": 2762, "pitch": 60, "duration": 4, "velocity": 99}, {"time": 2771, "pitch": 65, "duration": 3, "velocity": 85}, {"time": 2774, "pitch": 63, "duration": 3, "velocity": 81}, {"time": 2777, "pitch": 62, "duration": 4, "velocity": 93}, {"time": 2783, "pitch": 62, "duration": 3, "velocity": 96}, {"time": 2789, "pitch": 58, "duration": 3, "velocity": 96}, {"time": 2795, "pitch": 58, "duration": 4, "velocity": 107}, {"time": 2798, "pitch": 60, "duration": 4, "velocity": 93}, {"time": 2804, "pitch": 58, "duration": 11, "velocity": 90}, {"time": 2831, "pitch": 60, "duration": 4, "velocity": 92}, {"time": 2837, "pitch": 60, "duration": 4, "velocity": 86}, {"time": 2843, "pitch": 60, "duration": 3, "velocity": 90}, {"time": 2849, "pitch": 58, "duration": 2, "velocity": 95}, {"time": 2852, "pitch": 58, "duration": 4, "velocity": 90}, {"time": 2858, "pitch": 60, "duration": 4, "velocity": 89}, {"time": 2867, "pitch": 57, "duration": 5, "velocity": 95}, {"time": 2873, "pitch": 53, "duration": 2, "velocity": 83}, {"time": 2876, "pitch": 57, "duration": 4, "velocity": 92}, {"time": 2882, "pitch": 55, "duration": 31, "velocity": 92}, {"time": 2915, "pitch": 58, "duration": 4, "velocity": 107}, {"time": 2921, "pitch": 65, "duration": 4, "velocity": 112}, {"time": 2927, "pitch": 65, "duration": 18, "velocity": 107}, {"time": 2945, "pitch": 63, "duration": 3, "velocity": 117}, {"time": 2948, "pitch": 62, "duration": 3, "velocity": 72}, {"time": 2951, "pitch": 60, "duration": 10, "velocity": 100}, {"time": 2963, "pitch": 60, "duration": 1, "velocity": 95}, {"time": 2966, "pitch": 60, "duration": 1, "velocity": 88}, {"time": 2969, "pitch": 60, "duration": 2, "velocity": 88}, {"time": 2972, "pitch": 58, "duration": 3, "velocity": 100}, {"time": 2975, "pitch": 62, "duration": 3, "velocity": 100}, {"time": 2981, "pitch": 62, "duration": 3, "velocity": 122}, {"time": 2987, "pitch": 58, "duration": 2, "velocity": 96}, {"time": 2990, "pitch": 60, "duration": 3, "velocity": 89}, {"time": 2996, "pitch": 58, "duration": 5, "velocity": 102}, {"time": 3011, "pitch": 58, "duration": 3, "velocity": 102}, {"time": 3017, "pitch": 65, "duration": 3, "velocity": 97}, {"time": 3023, "pitch": 65, "duration": 13, "velocity": 112}, {"time": 3041, "pitch": 63, "duration": 3, "velocity": 122}, {"time": 3044, "pitch": 62, "duration": 3, "velocity": 71}, {"time": 3047, "pitch": 60, "duration": 8, "velocity": 97}, {"time": 3059, "pitch": 60, "duration": 1, "velocity": 92}, {"time": 3062, "pitch": 60, "duration": 1, "velocity": 79}, {"time": 3065, "pitch": 60, "duration": 2, "velocity": 82}, {"time": 3068, "pitch": 58, "duration": 2, "velocity": 86}, {"time": 3071, "pitch": 60, "duration": 3, "velocity": 95}, {"time": 3077, "pitch": 58, "duration": 16, "velocity": 102}, {"time": 3107, "pitch": 58, "duration": 4, "velocity": 100}, {"time": 3113, "pitch": 65, "duration": 3, "velocity": 107}, {"time": 3119, "pitch": 65, "duration": 14, "velocity": 112}, {"time": 3137, "pitch": 63, "duration": 3, "velocity": 122}, {"time": 3140, "pitch": 62, "duration": 3, "velocity": 82}, {"time": 3143, "pitch": 60, "duration": 8, "velocity": 96}, {"time": 3155, "pitch": 60, "duration": 1, "velocity": 93}, {"time": 3158, "pitch": 60, "duration": 1, "velocity": 92}, {"time": 3161, "pitch": 60, "duration": 2, "velocity": 92}, {"time": 3164, "pitch": 58, "duration": 3, "velocity": 77}, {"time": 3167, "pitch": 62, "duration": 2, "velocity": 100}, {"time": 3173, "pitch": 62, "duration": 7, "velocity": 97}, {"time": 3179, "pitch": 63, "duration": 4, "velocity": 107}, {"time": 3185, "pitch": 62, "duration": 2, "velocity": 92}, {"time": 3188, "pitch": 60, "duration": 4, "velocity": 96}, {"time": 3194, "pitch": 58, "duration": 6, "velocity": 83}, {"time": 3203, "pitch": 58, "duration": 3, "velocity": 99}, {"time": 3209, "pitch": 62, "duration": 3, "velocity": 93}, {"time": 3215, "pitch": 62, "duration": 9, "velocity": 97}, {"time": 3233, "pitch": 65, "duration": 2, "velocity": 79}, {"time": 3236, "pitch": 63, "duration": 2, "velocity": 97}, {"time": 3239, "pitch": 60, "duration": 4, "velocity": 85}, {"time": 3245, "pitch": 60, "duration": 6, "velocity": 90}, {"time": 3254, "pitch": 57, "duration": 4, "velocity": 96}, {"time": 3260, "pitch": 58, "duration": 2, "velocity": 83}, {"time": 3263, "pitch": 60, "duration": 5, "velocity": 95}, {"time": 3269, "pitch": 58, "duration": 12, "velocity": 75}, {"time": 3299, "pitch": 58, "duration": 4, "velocity": 96}, {"time": 3305, "pitch": 62, "duration": 6, "velocity": 100}, {"time": 3311, "pitch": 57, "duration": 26, "velocity": 112}, {"time": 3347, "pitch": 57, "duration": 3, "velocity": 92}, {"time": 3350, "pitch": 58, "duration": 5, "velocity": 92}, {"time": 3359, "pitch": 60, "duration": 6, "velocity": 95}, {"time": 3365, "pitch": 58, "duration": 25, "velocity": 70}, {"time": 3395, "pitch": 58, "duration": 4, "velocity": 117}, {"time": 3401, "pitch": 62, "duration": 5, "velocity": 96}, {"time": 3407, "pitch": 57, "duration": 17, "velocity": 96}, {"time": 3440, "pitch": 57, "duration": 2, "velocity": 82}, {"time": 3443, "pitch": 57, "duration": 3, "velocity": 90}, {"time": 3449, "pitch": 53, "duration": 2, "velocity": 82}, {"time": 3452, "pitch": 57, "duration": 3, "velocity": 86}, {"time": 3458, "pitch": 55, "duration": 33, "velocity": 86}, {"time": 3491, "pitch": 58, "duration": 4, "velocity": 107}, {"time": 3497, "pitch": 65, "duration": 4, "velocity": 112}, {"time": 3503, "pitch": 65, "duration": 18, "velocity": 107}, {"time": 3521, "pitch": 63, "duration": 3, "velocity": 117}, {"time": 3524, "pitch": 62, "duration": 3, "velocity": 72}, {"time": 3527, "pitch": 60, "duration": 10, "velocity": 100}, {"time": 3539, "pitch": 60, "duration": 1, "velocity": 95}, {"time": 3542, "pitch": 60, "duration": 1, "velocity": 88}, {"time": 3545, "pitch": 60, "duration": 2, "velocity": 88}, {"time": 3548, "pitch": 58, "duration": 3, "velocity": 100}, {"time": 3551, "pitch": 62, "duration": 3, "velocity": 100}, {"time": 3557, "pitch": 62, "duration": 3, "velocity": 122}, {"time": 3563, "pitch": 58, "duration": 2, "velocity": 96}, {"time": 3566, "pitch": 60, "duration": 3, "velocity": 89}, {"time": 3572, "pitch": 58, "duration": 5, "velocity": 102}, {"time": 3587, "pitch": 58, "duration": 3, "velocity": 102}, {"time": 3593, "pitch": 65, "duration": 3, "velocity": 97}, {"time": 3599, "pitch": 65, "duration": 13, "velocity": 112}, {"time": 3617, "pitch": 63, "duration": 3, "velocity": 122}, {"time": 3620, "pitch": 62, "duration": 3, "velocity": 71}, {"time": 3623, "pitch": 60, "duration": 8, "velocity": 97}, {"time": 3635, "pitch": 60, "duration": 1, "velocity": 92}, {"time": 3638, "pitch": 60, "duration": 1, "velocity": 79}, {"time": 3641, "pitch": 60, "duration": 2, "velocity": 82}, {"time": 3644, "pitch": 58, "duration": 2, "velocity": 86}, {"time": 3647, "pitch": 60, "duration": 3, "velocity": 95}, {"time": 3653, "pitch": 58, "duration": 16, "velocity": 102}, {"time": 3683, "pitch": 58, "duration": 4, "velocity": 100}, {"time": 3689, "pitch": 65, "duration": 3, "velocity": 107}, {"time": 3695, "pitch": 65, "duration": 14, "velocity": 112}, {"time": 3713, "pitch": 63, "duration": 3, "velocity": 122}, {"time": 3716, "pitch": 62, "duration": 3, "velocity": 82}, {"time": 3719, "pitch": 60, "duration": 8, "velocity": 96}, {"time": 3731, "pitch": 60, "duration": 1, "velocity": 93}, {"time": 3734, "pitch": 60, "duration": 1, "velocity": 92}, {"time": 3737, "pitch": 60, "duration": 2, "velocity": 92}, {"time": 3740, "pitch": 58, "duration": 3, "velocity": 77}, {"time": 3743, "pitch": 62, "duration": 2, "velocity": 100}, {"time": 3749, "pitch": 62, "duration": 7, "velocity": 97}, {"time": 3755, "pitch": 63, "duration": 4, "velocity": 107}, {"time": 3761, "pitch": 62, "duration": 2, "velocity": 92}, {"time": 3764, "pitch": 60, "duration": 4, "velocity": 96}, {"time": 3770, "pitch": 58, "duration": 6, "velocity": 83}, {"time": 3779, "pitch": 58, "duration": 3, "velocity": 99}, {"time": 3785, "pitch": 62, "duration": 3, "velocity": 93}, {"time": 3791, "pitch": 62, "duration": 9, "velocity": 97}, {"time": 3809, "pitch": 65, "duration": 2, "velocity": 79}, {"time": 3812, "pitch": 63, "duration": 2, "velocity": 97}, {"time": 3815, "pitch": 60, "duration": 4, "velocity": 85}, {"time": 3821, "pitch": 60, "duration": 6, "velocity": 90}, {"time": 3830, "pitch": 57, "duration": 4, "velocity": 96}, {"time": 3836, "pitch": 58, "duration": 2, "velocity": 83}, {"time": 3839, "pitch": 60, "duration": 5, "velocity": 95}, {"time": 3845, "pitch": 58, "duration": 12, "velocity": 75}, {"time": 3875, "pitch": 58, "duration": 4, "velocity": 96}, {"time": 3881, "pitch": 62, "duration": 6, "velocity": 100}, {"time": 3887, "pitch": 57, "duration": 26, "velocity": 112}, {"time": 3923, "pitch": 57, "duration": 3, "velocity": 92}, {"time": 3926, "pitch": 58, "duration": 5, "velocity": 92}, {"time": 3935, "pitch": 60, "duration": 6, "velocity": 95}, {"time": 3941, "pitch": 58, "duration": 25, "velocity": 70}, {"time": 3971, "pitch": 58, "duration": 4, "velocity": 117}, {"time": 3977, "pitch": 62, "duration": 5, "velocity": 96}, {"time": 3983, "pitch": 57, "duration": 17, "velocity": 96}, {"time": 4016, "pitch": 57, "duration": 2, "velocity": 82}, {"time": 4019, "pitch": 57, "duration": 3, "velocity": 90}, {"time": 4025, "pitch": 53, "duration": 2, "velocity": 82}, {"time": 4028, "pitch": 57, "duration": 3, "velocity": 86}, {"time": 4034, "pitch": 55, "duration": 33, "velocity": 86}]}, {"program": 0, "is_drum": false, "name": "BRIDGE", "notes": [{"time": 134, "pitch": 62, "duration": 2, "velocity": 97}, {"time": 137, "pitch": 60, "duration": 2, "velocity": 69}, {"time": 140, "pitch": 58, "duration": 9, "velocity": 53}, {"time": 290, "pitch": 60, "duration": 4, "velocity": 71}, {"time": 293, "pitch": 55, "duration": 4, "velocity": 63}, {"time": 296, "pitch": 51, "duration": 4, "velocity": 62}, {"time": 299, "pitch": 60, "duration": 11, "velocity": 43}, {"time": 323, "pitch": 60, "duration": 4, "velocity": 89}, {"time": 326, "pitch": 62, "duration": 3, "velocity": 89}, {"time": 329, "pitch": 60, "duration": 2, "velocity": 83}, {"time": 332, "pitch": 58, "duration": 11, "velocity": 73}, {"time": 356, "pitch": 70, "duration": 8, "velocity": 107}, {"time": 365, "pitch": 65, "duration": 6, "velocity": 97}, {"time": 371, "pitch": 63, "duration": 6, "velocity": 78}, {"time": 377, "pitch": 62, "duration": 6, "velocity": 81}, {"time": 404, "pitch": 65, "duration": 8, "velocity": 82}, {"time": 413, "pitch": 63, "duration": 6, "velocity": 85}, {"time": 419, "pitch": 62, "duration": 6, "velocity": 67}, {"time": 425, "pitch": 60, "duration": 7, "velocity": 79}]}, {"program": 0, "is_drum": false, "name": "PIANO", "notes": [{"time": 47, "pitch": 43, "duration": 34, "velocity": 64}, {"time": 50, "pitch": 58, "duration": 4, "velocity": 66}, {"time": 53, "pitch": 55, "duration": 4, "velocity": 62}, {"time": 56, "pitch": 50, "duration": 5, "velocity": 48}, {"time": 59, "pitch": 58, "duration": 5, "velocity": 75}, {"time": 62, "pitch": 55, "duration": 4, "velocity": 59}, {"time": 65, "pitch": 50, "duration": 4, "velocity": 49}, {"time": 68, "pitch": 58, "duration": 6, "velocity": 72}, {"time": 71, "pitch": 55, "duration": 3, "velocity": 59}, {"time": 74, "pitch": 50, "duration": 4, "velocity": 52}, {"time": 77, "pitch": 58, "duration": 5, "velocity": 76}, {"time": 80, "pitch": 55, "duration": 4, "velocity": 51}, {"time": 83, "pitch": 50, "duration": 5, "velocity": 62}, {"time": 86, "pitch": 58, "duration": 6, "velocity": 72}, {"time": 89, "pitch": 55, "duration": 4, "velocity": 60}, {"time": 92, "pitch": 50, "duration": 2, "velocity": 63}, {"time": 95, "pitch": 48, "duration": 7, "velocity": 72}, {"time": 98, "pitch": 60, "duration": 5, "velocity": 70}, {"time": 101, "pitch": 55, "duration": 4, "velocity": 72}, {"time": 104, "pitch": 48, "duration": 7, "velocity": 65}, {"time": 107, "pitch": 60, "duration": 4, "velocity": 81}, {"time": 110, "pitch": 55, "duration": 4, "velocity": 61}, {"time": 113, "pitch": 48, "duration": 6, "velocity": 73}, {"time": 116, "pitch": 60, "duration": 5, "velocity": 66}, {"time": 119, "pitch": 55, "duration": 4, "velocity": 58}, {"time": 122, "pitch": 48, "duration": 6, "velocity": 68}, {"time": 125, "pitch": 60, "duration": 4, "velocity": 72}, {"time": 128, "pitch": 55, "duration": 4, "velocity": 67}, {"time": 131, "pitch": 48, "duration": 6, "velocity": 75}, {"time": 134, "pitch": 60, "duration": 2, "velocity": 52}, {"time": 137, "pitch": 55, "duration": 5, "velocity": 77}, {"time": 140, "pitch": 60, "duration": 3, "velocity": 76}, {"time": 143, "pitch": 51, "duration": 6, "velocity": 82}, {"time": 146, "pitch": 58, "duration": 3, "velocity": 75}, {"time": 149, "pitch": 55, "duration": 4, "velocity": 69}, {"time": 152, "pitch": 51, "duration": 6, "velocity": 76}, {"time": 155, "pitch": 58, "duration": 3, "velocity": 71}, {"time": 158, "pitch": 55, "duration": 3, "velocity": 53}, {"time": 161, "pitch": 51, "duration": 6, "velocity": 70}, {"time": 164, "pitch": 58, "duration": 3, "velocity": 79}, {"time": 167, "pitch": 55, "duration": 3, "velocity": 58}, {"time": 170, "pitch": 51, "duration": 6, "velocity": 81}, {"time": 173, "pitch": 58, "duration": 4, "velocity": 81}, {"time": 176, "pitch": 55, "duration": 3, "velocity": 57}, {"time": 179, "pitch": 51, "duration": 6, "velocity": 72}, {"time": 182, "pitch": 58, "duration": 4, "velocity": 88}, {"time": 185, "pitch": 55, "duration": 4, "velocity": 69}, {"time": 188, "pitch": 58, "duration": 2, "velocity": 89}, {"time": 191, "pitch": 48, "duration": 7, "velocity": 72}, {"time": 194, "pitch": 60, "duration": 4, "velocity": 69}, {"time": 197, "pitch": 55, "duration": 4, "velocity": 74}, {"time": 200, "pitch": 48, "duration": 7, "velocity": 68}, {"time": 203, "pitch": 60, "duration": 4, "velocity": 81}, {"time": 206, "pitch": 55, "duration": 3, "velocity": 65}, {"time": 209, "pitch": 48, "duration": 7, "velocity": 72}, {"time": 212, "pitch": 60, "duration": 4, "velocity": 88}, {"time": 215, "pitch": 55, "duration": 4, "velocity": 63}, {"time": 218, "pitch": 48, "duration": 6, "velocity": 69}, {"time": 221, "pitch": 60, "duration": 4, "velocity": 85}, {"time": 224, "pitch": 55, "duration": 4, "velocity": 58}, {"time": 227, "pitch": 48, "duration": 5, "velocity": 69}, {"time": 230, "pitch": 60, "duration": 3, "velocity": 83}, {"time": 233, "pitch": 55, "duration": 4, "velocity": 73}, {"time": 236, "pitch": 60, "duration": 2, "velocity": 81}, {"time": 239, "pitch": 43, "duration": 46, "velocity": 69}, {"time": 242, "pitch": 58, "duration": 5, "velocity": 73}, {"time": 245, "pitch": 55, "duration": 3, "velocity": 70}, {"time": 248, "pitch": 50, "duration": 4, "velocity": 56}, {"time": 251, "pitch": 58, "duration": 6, "velocity": 96}, {"time": 254, "pitch": 55, "duration": 4, "velocity": 59}, {"time": 257, "pitch": 50, "duration": 5, "velocity": 41}, {"time": 260, "pitch": 58, "duration": 5, "velocity": 93}, {"time": 263, "pitch": 55, "duration": 3, "velocity": 61}, {"time": 266, "pitch": 50, "duration": 4, "velocity": 53}, {"time": 269, "pitch": 58, "duration": 5, "velocity": 88}, {"time": 272, "pitch": 55, "duration": 3, "velocity": 59}, {"time": 275, "pitch": 50, "duration": 4, "velocity": 61}, {"time": 278, "pitch": 58, "duration": 5, "velocity": 93}, {"time": 281, "pitch": 55, "duration": 5, "velocity": 56}, {"time": 284, "pitch": 50, "duration": 2, "velocity": 68}, {"time": 287, "pitch": 48, "duration": 7, "velocity": 72}, {"time": 290, "pitch": 60, "duration": 5, "velocity": 70}, {"time": 293, "pitch": 55, "duration": 4, "velocity": 72}, {"time": 296, "pitch": 48, "duration": 7, "velocity": 65}, {"time": 299, "pitch": 60, "duration": 4, "velocity": 81}, {"time": 302, "pitch": 55, "duration": 4, "velocity": 61}, {"time": 305, "pitch": 48, "duration": 6, "velocity": 73}, {"time": 308, "pitch": 60, "duration": 5, "velocity": 66}, {"time": 311, "pitch": 55, "duration": 4, "velocity": 58}, {"time": 314, "pitch": 48, "duration": 6, "velocity": 68}, {"time": 317, "pitch": 60, "duration": 4, "velocity": 72}, {"time": 320, "pitch": 55, "duration": 4, "velocity": 67}, {"time": 323, "pitch": 48, "duration": 6, "velocity": 75}, {"time": 326, "pitch": 60, "duration": 2, "velocity": 52}, {"time": 329, "pitch": 55, "duration": 5, "velocity": 77}, {"time": 332, "pitch": 60, "duration": 3, "velocity": 76}, {"time": 335, "pitch": 51, "duration": 6, "velocity": 82}, {"time": 338, "pitch": 58, "duration": 3, "velocity": 75}, {"time": 341, "pitch": 55, "duration": 4, "velocity": 69}, {"time": 344, "pitch": 51, "duration": 6, "velocity": 76}, {"time": 347, "pitch": 58, "duration": 3, "velocity": 71}, {"time": 350, "pitch": 55, "duration": 3, "velocity": 53}, {"time": 353, "pitch": 51, "duration": 6, "velocity": 70}, {"time": 356, "pitch": 58, "duration": 3, "velocity": 79}, {"time": 359, "pitch": 55, "duration": 3, "velocity": 58}, {"time": 362, "pitch": 51, "duration": 6, "velocity": 81}, {"time": 365, "pitch": 58, "duration": 4, "velocity": 81}, {"time": 368, "pitch": 55, "duration": 3, "velocity": 57}, {"time": 371, "pitch": 51, "duration": 6, "velocity": 72}, {"time": 374, "pitch": 58, "duration": 4, "velocity": 88}, {"time": 377, "pitch": 55, "duration": 4, "velocity": 69}, {"time": 380, "pitch": 58, "duration": 2, "velocity": 89}, {"time": 383, "pitch": 48, "duration": 7, "velocity": 72}, {"time": 386, "pitch": 60, "duration": 5, "velocity": 70}, {"time": 389, "pitch": 55, "duration": 4, "velocity": 72}, {"time": 392, "pitch": 48, "duration": 7, "velocity": 65}, {"time": 395, "pitch": 60, "duration": 4, "velocity": 81}, {"time": 398, "pitch": 55, "duration": 4, "velocity": 61}, {"time": 401, "pitch": 48, "duration": 6, "velocity": 73}, {"time": 404, "pitch": 60, "duration": 5, "velocity": 66}, {"time": 407, "pitch": 55, "duration": 4, "velocity": 58}, {"time": 410, "pitch": 48, "duration": 6, "velocity": 68}, {"time": 413, "pitch": 60, "duration": 4, "velocity": 72}, {"time": 416, "pitch": 55, "duration": 4, "velocity": 67}, {"time": 419, "pitch": 48, "duration": 6, "velocity": 75}, {"time": 422, "pitch": 60, "duration": 2, "velocity": 52}, {"time": 425, "pitch": 55, "duration": 5, "velocity": 77}, {"time": 428, "pitch": 60, "duration": 3, "velocity": 76}, {"time": 431, "pitch": 39, "duration": 39, "velocity": 102}, {"time": 431, "pitch": 63, "duration": 6, "velocity": 93}, {"time": 431, "pitch": 67, "duration": 5, "velocity": 82}, {"time": 431, "pitch": 70, "duration": 6, "velocity": 90}, {"time": 437, "pitch": 51, "duration": 9, "velocity": 82}, {"time": 443, "pitch": 63, "duration": 2, "velocity": 90}, {"time": 443, "pitch": 67, "duration": 1, "velocity": 79}, {"time": 443, "pitch": 70, "duration": 2, "velocity": 73}, {"time": 449, "pitch": 51, "duration": 10, "velocity": 90}, {"time": 452, "pitch": 63, "duration": 1, "velocity": 90}, {"time": 452, "pitch": 67, "duration": 1, "velocity": 89}, {"time": 452, "pitch": 70, "duration": 1, "velocity": 85}, {"time": 458, "pitch": 63, "duration": 2, "velocity": 89}, {"time": 458, "pitch": 67, "duration": 1, "velocity": 92}, {"time": 458, "pitch": 70, "duration": 2, "velocity": 86}, {"time": 464, "pitch": 51, "duration": 3, "velocity": 69}, {"time": 467, "pitch": 63, "duration": 3, "velocity": 85}, {"time": 467, "pitch": 67, "duration": 2, "velocity": 96}, {"time": 467, "pitch": 70, "duration": 2, "velocity": 88}, {"time": 470, "pitch": 51, "duration": 2, "velocity": 88}, {"time": 473, "pitch": 63, "duration": 1, "velocity": 92}, {"time": 479, "pitch": 46, "duration": 39, "velocity": 93}, {"time": 479, "pitch": 58, "duration": 6, "velocity": 97}, {"time": 479, "pitch": 62, "duration": 6, "velocity": 83}, {"time": 479, "pitch": 65, "duration": 6, "velocity": 78}, {"time": 485, "pitch": 53, "duration": 8, "velocity": 35}, {"time": 488, "pitch": 58, "duration": 2, "velocity": 62}, {"time": 491, "pitch": 58, "duration": 2, "velocity": 117}, {"time": 491, "pitch": 62, "duration": 2, "velocity": 92}, {"time": 491, "pitch": 65, "duration": 2, "velocity": 78}, {"time": 497, "pitch": 50, "duration": 21, "velocity": 38}, {"time": 497, "pitch": 53, "duration": 11, "velocity": 66}, {"time": 500, "pitch": 58, "duration": 1, "velocity": 107}, {"time": 500, "pitch": 62, "duration": 1, "velocity": 81}, {"time": 500, "pitch": 65, "duration": 1, "velocity": 71}, {"time": 506, "pitch": 58, "duration": 1, "velocity": 95}, {"time": 506, "pitch": 62, "duration": 1, "velocity": 77}, {"time": 506, "pitch": 65, "duration": 1, "velocity": 62}, {"time": 512, "pitch": 53, "duration": 4, "velocity": 72}, {"time": 515, "pitch": 53, "duration": 1, "velocity": 93}, {"time": 515, "pitch": 58, "duration": 3, "velocity": 107}, {"time": 515, "pitch": 62, "duration": 2, "velocity": 83}, {"time": 515, "pitch": 65, "duration": 3, "velocity": 72}, {"time": 521, "pitch": 58, "duration": 1, "velocity": 127}, {"time": 521, "pitch": 62, "duration": 1, "velocity": 73}, {"time": 521, "pitch": 65, "duration": 1, "velocity": 64}, {"time": 524, "pitch": 58, "duration": 2, "velocity": 107}, {"time": 524, "pitch": 62, "duration": 2, "velocity": 85}, {"time": 524, "pitch": 65, "duration": 2, "velocity": 82}, {"time": 527, "pitch": 41, "duration": 42, "velocity": 83}, {"time": 533, "pitch": 48, "duration": 37, "velocity": 56}, {"time": 536, "pitch": 53, "duration": 5, "velocity": 85}, {"time": 539, "pitch": 60, "duration": 3, "velocity": 95}, {"time": 539, "pitch": 65, "duration": 2, "velocity": 96}, {"time": 539, "pitch": 69, "duration": 3, "velocity": 92}, {"time": 545, "pitch": 53, "duration": 11, "velocity": 93}, {"time": 548, "pitch": 60, "duration": 1, "velocity": 89}, {"time": 548, "pitch": 65, "duration": 1, "velocity": 92}, {"time": 548, "pitch": 69, "duration": 1, "velocity": 82}, {"time": 554, "pitch": 60, "duration": 2, "velocity": 83}, {"time": 554, "pitch": 65, "duration": 1, "velocity": 92}, {"time": 554, "pitch": 69, "duration": 1, "velocity": 86}, {"time": 560, "pitch": 53, "duration": 4, "velocity": 96}, {"time": 563, "pitch": 65, "duration": 3, "velocity": 97}, {"time": 563, "pitch": 69, "duration": 3, "velocity": 93}, {"time": 566, "pitch": 53, "duration": 4, "velocity": 95}, {"time": 569, "pitch": 65, "duration": 6, "velocity": 99}, {"time": 569, "pitch": 69, "duration": 5, "velocity": 96}, {"time": 572, "pitch": 60, "duration": 3, "velocity": 90}, {"time": 575, "pitch": 43, "duration": 40, "velocity": 90}, {"time": 578, "pitch": 50, "duration": 34, "velocity": 90}, {"time": 581, "pitch": 55, "duration": 8, "velocity": 93}, {"time": 584, "pitch": 62, "duration": 1, "velocity": 77}, {"time": 584, "pitch": 67, "duration": 1, "velocity": 88}, {"time": 584, "pitch": 70, "duration": 2, "velocity": 99}, {"time": 587, "pitch": 62, "duration": 2, "velocity": 96}, {"time": 587, "pitch": 67, "duration": 2, "velocity": 107}, {"time": 587, "pitch": 70, "duration": 2, "velocity": 117}, {"time": 593, "pitch": 55, "duration": 11, "velocity": 95}, {"time": 596, "pitch": 62, "duration": 1, "velocity": 83}, {"time": 596, "pitch": 67, "duration": 1, "velocity": 88}, {"time": 596, "pitch": 70, "duration": 1, "velocity": 93}, {"time": 602, "pitch": 62, "duration": 1, "velocity": 85}, {"time": 602, "pitch": 67, "duration": 1, "velocity": 97}, {"time": 602, "pitch": 70, "duration": 1, "velocity": 99}, {"time": 608, "pitch": 55, "duration": 3, "velocity": 73}, {"time": 611, "pitch": 50, "duration": 1, "velocity": 34}, {"time": 611, "pitch": 67, "duration": 3, "velocity": 100}, {"time": 611, "pitch": 70, "duration": 3, "velocity": 122}, {"time": 614, "pitch": 55, "duration": 1, "velocity": 93}, {"time": 617, "pitch": 67, "duration": 3, "velocity": 112}, {"time": 617, "pitch": 70, "duration": 3, "velocity": 122}, {"time": 620, "pitch": 62, "duration": 2, "velocity": 95}, {"time": 623, "pitch": 39, "duration": 34, "velocity": 85}, {"time": 626, "pitch": 46, "duration": 31, "velocity": 52}, {"time": 629, "pitch": 51, "duration": 7, "velocity": 99}, {"time": 632, "pitch": 63, "duration": 2, "velocity": 77}, {"time": 635, "pitch": 63, "duration": 1, "velocity": 112}, {"time": 635, "pitch": 67, "duration": 1, "velocity": 95}, {"time": 635, "pitch": 70, "duration": 1, "velocity": 95}, {"time": 641, "pitch": 51, "duration": 12, "velocity": 85}, {"time": 644, "pitch": 63, "duration": 1, "velocity": 100}, {"time": 644, "pitch": 67, "duration": 1, "velocity": 100}, {"time": 644, "pitch": 70, "duration": 1, "velocity": 93}, {"time": 650, "pitch": 63, "duration": 1, "velocity": 95}, {"time": 650, "pitch": 67, "duration": 1, "velocity": 100}, {"time": 650, "pitch": 70, "duration": 1, "velocity": 95}, {"time": 656, "pitch": 51, "duration": 3, "velocity": 93}, {"time": 659, "pitch": 67, "duration": 1, "velocity": 107}, {"time": 659, "pitch": 70, "duration": 1, "velocity": 100}, {"time": 665, "pitch": 67, "duration": 1, "velocity": 107}, {"time": 665, "pitch": 70, "duration": 2, "velocity": 107}, {"time": 668, "pitch": 46, "duration": 41, "velocity": 95}, {"time": 668, "pitch": 63, "duration": 2, "velocity": 99}, {"time": 674, "pitch": 53, "duration": 37, "velocity": 67}, {"time": 677, "pitch": 58, "duration": 7, "velocity": 96}, {"time": 680, "pitch": 62, "duration": 1, "velocity": 78}, {"time": 680, "pitch": 65, "duration": 1, "velocity": 89}, {"time": 680, "pitch": 70, "duration": 1, "velocity": 97}, {"time": 683, "pitch": 62, "duration": 1, "velocity": 73}, {"time": 683, "pitch": 65, "duration": 1, "velocity": 97}, {"time": 683, "pitch": 70, "duration": 1, "velocity": 117}, {"time": 689, "pitch": 58, "duration": 11, "velocity": 92}, {"time": 692, "pitch": 62, "duration": 1, "velocity": 79}, {"time": 692, "pitch": 65, "duration": 1, "velocity": 86}, {"time": 692, "pitch": 70, "duration": 1, "velocity": 95}, {"time": 698, "pitch": 62, "duration": 1, "velocity": 74}, {"time": 698, "pitch": 65, "duration": 1, "velocity": 81}, {"time": 698, "pitch": 70, "duration": 1, "velocity": 90}, {"time": 704, "pitch": 58, "duration": 4, "velocity": 86}, {"time": 707, "pitch": 65, "duration": 2, "velocity": 90}, {"time": 707, "pitch": 70, "duration": 3, "velocity": 100}, {"time": 710, "pitch": 58, "duration": 2, "velocity": 97}, {"time": 713, "pitch": 65, "duration": 2, "velocity": 93}, {"time": 713, "pitch": 70, "duration": 3, "velocity": 112}, {"time": 716, "pitch": 62, "duration": 2, "velocity": 81}, {"time": 719, "pitch": 41, "duration": 40, "velocity": 85}, {"time": 725, "pitch": 48, "duration": 33, "velocity": 61}, {"time": 728, "pitch": 53, "duration": 5, "velocity": 70}, {"time": 731, "pitch": 60, "duration": 1, "velocity": 95}, {"time": 731, "pitch": 65, "duration": 1, "velocity": 97}, {"time": 731, "pitch": 69, "duration": 1, "velocity": 86}, {"time": 737, "pitch": 53, "duration": 11, "velocity": 75}, {"time": 740, "pitch": 60, "duration": 1, "velocity": 81}, {"time": 740, "pitch": 65, "duration": 1, "velocity": 81}, {"time": 740, "pitch": 69, "duration": 1, "velocity": 70}, {"time": 746, "pitch": 60, "duration": 1, "velocity": 76}, {"time": 746, "pitch": 65, "duration": 1, "velocity": 74}, {"time": 746, "pitch": 69, "duration": 1, "velocity": 73}, {"time": 752, "pitch": 53, "duration": 3, "velocity": 58}, {"time": 755, "pitch": 53, "duration": 1, "velocity": 78}, {"time": 755, "pitch": 60, "duration": 2, "velocity": 74}, {"time": 755, "pitch": 65, "duration": 2, "velocity": 92}, {"time": 755, "pitch": 69, "duration": 2, "velocity": 85}, {"time": 761, "pitch": 60, "duration": 2, "velocity": 89}, {"time": 761, "pitch": 65, "duration": 1, "velocity": 70}, {"time": 761, "pitch": 69, "duration": 1, "velocity": 47}, {"time": 767, "pitch": 39, "duration": 17, "velocity": 82}, {"time": 767, "pitch": 58, "duration": 7, "velocity": 92}, {"time": 767, "pitch": 63, "duration": 6, "velocity": 58}, {"time": 767, "pitch": 67, "duration": 5, "velocity": 41}, {"time": 773, "pitch": 46, "duration": 7, "velocity": 27}, {"time": 773, "pitch": 51, "duration": 8, "velocity": 35}, {"time": 779, "pitch": 58, "duration": 2, "velocity": 90}, {"time": 779, "pitch": 63, "duration": 2, "velocity": 96}, {"time": 779, "pitch": 67, "duration": 2, "velocity": 59}, {"time": 785, "pitch": 39, "duration": 30, "velocity": 61}, {"time": 785, "pitch": 46, "duration": 29, "velocity": 42}, {"time": 785, "pitch": 51, "duration": 29, "velocity": 68}, {"time": 788, "pitch": 58, "duration": 27, "velocity": 90}, {"time": 788, "pitch": 63, "duration": 27, "velocity": 81}, {"time": 788, "pitch": 67, "duration": 27, "velocity": 64}, {"time": 815, "pitch": 41, "duration": 43, "velocity": 72}, {"time": 815, "pitch": 60, "duration": 6, "velocity": 68}, {"time": 815, "pitch": 65, "duration": 6, "velocity": 64}, {"time": 815, "pitch": 69, "duration": 6, "velocity": 56}, {"time": 821, "pitch": 48, "duration": 8, "velocity": 44}, {"time": 827, "pitch": 53, "duration": 18, "velocity": 64}, {"time": 827, "pitch": 60, "duration": 1, "velocity": 73}, {"time": 827, "pitch": 65, "duration": 1, "velocity": 81}, {"time": 827, "pitch": 69, "duration": 1, "velocity": 69}, {"time": 833, "pitch": 48, "duration": 30, "velocity": 40}, {"time": 836, "pitch": 60, "duration": 1, "velocity": 70}, {"time": 836, "pitch": 65, "duration": 1, "velocity": 74}, {"time": 836, "pitch": 69, "duration": 1, "velocity": 64}, {"time": 842, "pitch": 60, "duration": 1, "velocity": 69}, {"time": 842, "pitch": 65, "duration": 1, "velocity": 71}, {"time": 842, "pitch": 69, "duration": 1, "velocity": 66}, {"time": 848, "pitch": 53, "duration": 6, "velocity": 42}, {"time": 851, "pitch": 60, "duration": 9, "velocity": 70}, {"time": 851, "pitch": 65, "duration": 11, "velocity": 78}, {"time": 851, "pitch": 69, "duration": 7, "velocity": 70}, {"time": 857, "pitch": 53, "duration": 6, "velocity": 58}, {"time": 863, "pitch": 43, "duration": 41, "velocity": 66}, {"time": 863, "pitch": 62, "duration": 7, "velocity": 59}, {"time": 863, "pitch": 67, "duration": 7, "velocity": 59}, {"time": 863, "pitch": 70, "duration": 7, "velocity": 62}, {"time": 869, "pitch": 50, "duration": 8, "velocity": 59}, {"time": 875, "pitch": 55, "duration": 17, "velocity": 70}, {"time": 875, "pitch": 62, "duration": 2, "velocity": 72}, {"time": 875, "pitch": 67, "duration": 1, "velocity": 63}, {"time": 875, "pitch": 70, "duration": 2, "velocity": 58}, {"time": 881, "pitch": 50, "duration": 22, "velocity": 38}, {"time": 884, "pitch": 62, "duration": 1, "velocity": 73}, {"time": 884, "pitch": 67, "duration": 1, "velocity": 79}, {"time": 884, "pitch": 70, "duration": 1, "velocity": 78}, {"time": 890, "pitch": 62, "duration": 1, "velocity": 74}, {"time": 890, "pitch": 67, "duration": 1, "velocity": 77}, {"time": 890, "pitch": 70, "duration": 1, "velocity": 79}, {"time": 896, "pitch": 55, "duration": 4, "velocity": 69}, {"time": 899, "pitch": 67, "duration": 6, "velocity": 86}, {"time": 899, "pitch": 70, "duration": 6, "velocity": 95}, {"time": 902, "pitch": 55, "duration": 2, "velocity": 77}, {"time": 905, "pitch": 62, "duration": 5, "velocity": 92}, {"time": 911, "pitch": 41, "duration": 37, "velocity": 67}, {"time": 911, "pitch": 65, "duration": 7, "velocity": 73}, {"time": 911, "pitch": 69, "duration": 7, "velocity": 70}, {"time": 917, "pitch": 48, "duration": 8, "velocity": 40}, {"time": 923, "pitch": 53, "duration": 18, "velocity": 76}, {"time": 923, "pitch": 60, "duration": 2, "velocity": 82}, {"time": 923, "pitch": 65, "duration": 1, "velocity": 72}, {"time": 923, "pitch": 69, "duration": 2, "velocity": 69}, {"time": 929, "pitch": 48, "duration": 19, "velocity": 40}, {"time": 932, "pitch": 60, "duration": 2, "velocity": 67}, {"time": 932, "pitch": 65, "duration": 1, "velocity": 69}, {"time": 932, "pitch": 69, "duration": 1, "velocity": 66}, {"time": 938, "pitch": 60, "duration": 2, "velocity": 69}, {"time": 938, "pitch": 65, "duration": 1, "velocity": 55}, {"time": 938, "pitch": 69, "duration": 2, "velocity": 66}, {"time": 944, "pitch": 53, "duration": 4, "velocity": 68}, {"time": 947, "pitch": 60, "duration": 4, "velocity": 67}, {"time": 947, "pitch": 65, "duration": 4, "velocity": 90}, {"time": 947, "pitch": 69, "duration": 4, "velocity": 82}, {"time": 953, "pitch": 60, "duration": 1, "velocity": 81}, {"time": 953, "pitch": 65, "duration": 1, "velocity": 74}, {"time": 953, "pitch": 69, "duration": 1, "velocity": 72}, {"time": 959, "pitch": 39, "duration": 37, "velocity": 63}, {"time": 959, "pitch": 63, "duration": 8, "velocity": 58}, {"time": 959, "pitch": 67, "duration": 6, "velocity": 62}, {"time": 959, "pitch": 70, "duration": 7, "velocity": 59}, {"time": 965, "pitch": 46, "duration": 30, "velocity": 33}, {"time": 971, "pitch": 51, "duration": 5, "velocity": 62}, {"time": 971, "pitch": 63, "duration": 3, "velocity": 82}, {"time": 971, "pitch": 67, "duration": 2, "velocity": 72}, {"time": 971, "pitch": 70, "duration": 3, "velocity": 62}, {"time": 977, "pitch": 51, "duration": 5, "velocity": 66}, {"time": 980, "pitch": 63, "duration": 1, "velocity": 88}, {"time": 980, "pitch": 67, "duration": 1, "velocity": 92}, {"time": 980, "pitch": 70, "duration": 1, "velocity": 69}, {"time": 983, "pitch": 51, "duration": 5, "velocity": 45}, {"time": 986, "pitch": 63, "duration": 1, "velocity": 89}, {"time": 986, "pitch": 67, "duration": 1, "velocity": 93}, {"time": 986, "pitch": 70, "duration": 1, "velocity": 76}, {"time": 992, "pitch": 51, "duration": 5, "velocity": 77}, {"time": 995, "pitch": 63, "duration": 2, "velocity": 92}, {"time": 995, "pitch": 67, "duration": 1, "velocity": 102}, {"time": 995, "pitch": 70, "duration": 2, "velocity": 86}, {"time": 1001, "pitch": 63, "duration": 2, "velocity": 96}, {"time": 1007, "pitch": 41, "duration": 42, "velocity": 68}, {"time": 1007, "pitch": 60, "duration": 8, "velocity": 72}, {"time": 1007, "pitch": 65, "duration": 7, "velocity": 81}, {"time": 1007, "pitch": 69, "duration": 7, "velocity": 74}, {"time": 1013, "pitch": 48, "duration": 8, "velocity": 43}, {"time": 1019, "pitch": 53, "duration": 18, "velocity": 77}, {"time": 1019, "pitch": 60, "duration": 2, "velocity": 77}, {"time": 1019, "pitch": 65, "duration": 1, "velocity": 75}, {"time": 1019, "pitch": 69, "duration": 1, "velocity": 68}, {"time": 1025, "pitch": 48, "duration": 29, "velocity": 35}, {"time": 1028, "pitch": 60, "duration": 2, "velocity": 66}, {"time": 1028, "pitch": 65, "duration": 1, "velocity": 71}, {"time": 1028, "pitch": 69, "duration": 1, "velocity": 62}, {"time": 1034, "pitch": 60, "duration": 1, "velocity": 69}, {"time": 1034, "pitch": 65, "duration": 1, "velocity": 69}, {"time": 1034, "pitch": 69, "duration": 1, "velocity": 63}, {"time": 1040, "pitch": 53, "duration": 4, "velocity": 58}, {"time": 1043, "pitch": 60, "duration": 3, "velocity": 83}, {"time": 1043, "pitch": 65, "duration": 3, "velocity": 86}, {"time": 1043, "pitch": 69, "duration": 3, "velocity": 81}, {"time": 1046, "pitch": 53, "duration": 2, "velocity": 59}, {"time": 1049, "pitch": 60, "duration": 1, "velocity": 55}, {"time": 1049, "pitch": 65, "duration": 3, "velocity": 82}, {"time": 1049, "pitch": 69, "duration": 1, "velocity": 69}, {"time": 1055, "pitch": 43, "duration": 44, "velocity": 74}, {"time": 1055, "pitch": 62, "duration": 7, "velocity": 83}, {"time": 1055, "pitch": 67, "duration": 7, "velocity": 81}, {"time": 1055, "pitch": 70, "duration": 7, "velocity": 86}, {"time": 1061, "pitch": 50, "duration": 8, "velocity": 42}, {"time": 1067, "pitch": 55, "duration": 18, "velocity": 69}, {"time": 1067, "pitch": 62, "duration": 2, "velocity": 79}, {"time": 1067, "pitch": 67, "duration": 1, "velocity": 76}, {"time": 1067, "pitch": 70, "duration": 2, "velocity": 85}, {"time": 1073, "pitch": 50, "duration": 20, "velocity": 42}, {"time": 1076, "pitch": 62, "duration": 2, "velocity": 75}, {"time": 1076, "pitch": 67, "duration": 1, "velocity": 76}, {"time": 1076, "pitch": 70, "duration": 1, "velocity": 79}, {"time": 1082, "pitch": 62, "duration": 6, "velocity": 77}, {"time": 1082, "pitch": 67, "duration": 6, "velocity": 78}, {"time": 1082, "pitch": 70, "duration": 6, "velocity": 82}, {"time": 1088, "pitch": 55, "duration": 6, "velocity": 69}, {"time": 1091, "pitch": 62, "duration": 6, "velocity": 79}, {"time": 1091, "pitch": 67, "duration": 6, "velocity": 95}, {"time": 1091, "pitch": 70, "duration": 5, "velocity": 107}, {"time": 1097, "pitch": 50, "duration": 5, "velocity": 68}, {"time": 1103, "pitch": 41, "duration": 37, "velocity": 76}, {"time": 1103, "pitch": 60, "duration": 7, "velocity": 78}, {"time": 1103, "pitch": 65, "duration": 7, "velocity": 81}, {"time": 1103, "pitch": 69, "duration": 7, "velocity": 74}, {"time": 1109, "pitch": 48, "duration": 8, "velocity": 44}, {"time": 1115, "pitch": 53, "duration": 17, "velocity": 65}, {"time": 1115, "pitch": 60, "duration": 2, "velocity": 78}, {"time": 1115, "pitch": 65, "duration": 2, "velocity": 86}, {"time": 1115, "pitch": 69, "duration": 2, "velocity": 77}, {"time": 1121, "pitch": 48, "duration": 19, "velocity": 38}, {"time": 1124, "pitch": 60, "duration": 2, "velocity": 78}, {"time": 1124, "pitch": 65, "duration": 1, "velocity": 82}, {"time": 1124, "pitch": 69, "duration": 1, "velocity": 75}, {"time": 1130, "pitch": 60, "duration": 2, "velocity": 79}, {"time": 1130, "pitch": 65, "duration": 1, "velocity": 83}, {"time": 1130, "pitch": 69, "duration": 1, "velocity": 75}, {"time": 1136, "pitch": 53, "duration": 4, "velocity": 63}, {"time": 1139, "pitch": 60, "duration": 4, "velocity": 77}, {"time": 1139, "pitch": 65, "duration": 4, "velocity": 88}, {"time": 1139, "pitch": 69, "duration": 4, "velocity": 83}, {"time": 1145, "pitch": 60, "duration": 2, "velocity": 88}, {"time": 1145, "pitch": 69, "duration": 1, "velocity": 34}, {"time": 1151, "pitch": 39, "duration": 45, "velocity": 72}, {"time": 1151, "pitch": 58, "duration": 4, "velocity": 82}, {"time": 1151, "pitch": 63, "duration": 3, "velocity": 64}, {"time": 1151, "pitch": 67, "duration": 3, "velocity": 68}, {"time": 1157, "pitch": 51, "duration": 8, "velocity": 55}, {"time": 1163, "pitch": 58, "duration": 2, "velocity": 92}, {"time": 1163, "pitch": 63, "duration": 1, "velocity": 82}, {"time": 1163, "pitch": 67, "duration": 1, "velocity": 43}, {"time": 1169, "pitch": 46, "duration": 9, "velocity": 57}, {"time": 1169, "pitch": 51, "duration": 9, "velocity": 55}, {"time": 1172, "pitch": 58, "duration": 23, "velocity": 82}, {"time": 1172, "pitch": 63, "duration": 23, "velocity": 72}, {"time": 1172, "pitch": 67, "duration": 24, "velocity": 58}, {"time": 1199, "pitch": 41, "duration": 43, "velocity": 72}, {"time": 1199, "pitch": 60, "duration": 6, "velocity": 68}, {"time": 1199, "pitch": 65, "duration": 6, "velocity": 64}, {"time": 1199, "pitch": 69, "duration": 6, "velocity": 56}, {"time": 1205, "pitch": 48, "duration": 8, "velocity": 44}, {"time": 1211, "pitch": 53, "duration": 18, "velocity": 64}, {"time": 1211, "pitch": 60, "duration": 1, "velocity": 73}, {"time": 1211, "pitch": 65, "duration": 1, "velocity": 81}, {"time": 1211, "pitch": 69, "duration": 1, "velocity": 69}, {"time": 1217, "pitch": 48, "duration": 30, "velocity": 40}, {"time": 1220, "pitch": 60, "duration": 1, "velocity": 70}, {"time": 1220, "pitch": 65, "duration": 1, "velocity": 74}, {"time": 1220, "pitch": 69, "duration": 1, "velocity": 64}, {"time": 1226, "pitch": 60, "duration": 1, "velocity": 69}, {"time": 1226, "pitch": 65, "duration": 1, "velocity": 71}, {"time": 1226, "pitch": 69, "duration": 1, "velocity": 66}, {"time": 1232, "pitch": 53, "duration": 6, "velocity": 42}, {"time": 1235, "pitch": 60, "duration": 9, "velocity": 70}, {"time": 1235, "pitch": 65, "duration": 11, "velocity": 78}, {"time": 1235, "pitch": 69, "duration": 7, "velocity": 70}, {"time": 1241, "pitch": 53, "duration": 6, "velocity": 58}, {"time": 1247, "pitch": 43, "duration": 41, "velocity": 66}, {"time": 1247, "pitch": 62, "duration": 7, "velocity": 59}, {"time": 1247, "pitch": 67, "duration": 7, "velocity": 59}, {"time": 1247, "pitch": 70, "duration": 7, "velocity": 62}, {"time": 1253, "pitch": 50, "duration": 8, "velocity": 59}, {"time": 1259, "pitch": 55, "duration": 17, "velocity": 70}, {"time": 1259, "pitch": 62, "duration": 2, "velocity": 72}, {"time": 1259, "pitch": 67, "duration": 1, "velocity": 63}, {"time": 1259, "pitch": 70, "duration": 2, "velocity": 58}, {"time": 1265, "pitch": 50, "duration": 22, "velocity": 38}, {"time": 1268, "pitch": 62, "duration": 1, "velocity": 73}, {"time": 1268, "pitch": 67, "duration": 1, "velocity": 79}, {"time": 1268, "pitch": 70, "duration": 1, "velocity": 78}, {"time": 1274, "pitch": 62, "duration": 1, "velocity": 74}, {"time": 1274, "pitch": 67, "duration": 1, "velocity": 77}, {"time": 1274, "pitch": 70, "duration": 1, "velocity": 79}, {"time": 1280, "pitch": 55, "duration": 4, "velocity": 69}, {"time": 1283, "pitch": 67, "duration": 6, "velocity": 86}, {"time": 1283, "pitch": 70, "duration": 6, "velocity": 95}, {"time": 1286, "pitch": 55, "duration": 2, "velocity": 77}, {"time": 1289, "pitch": 62, "duration": 5, "velocity": 92}, {"time": 1295, "pitch": 41, "duration": 37, "velocity": 67}, {"time": 1295, "pitch": 65, "duration": 7, "velocity": 73}, {"time": 1295, "pitch": 69, "duration": 7, "velocity": 70}, {"time": 1301, "pitch": 48, "duration": 8, "velocity": 40}, {"time": 1307, "pitch": 53, "duration": 18, "velocity": 76}, {"time": 1307, "pitch": 60, "duration": 2, "velocity": 82}, {"time": 1307, "pitch": 65, "duration": 1, "velocity": 72}, {"time": 1307, "pitch": 69, "duration": 2, "velocity": 69}, {"time": 1313, "pitch": 48, "duration": 19, "velocity": 40}, {"time": 1316, "pitch": 60, "duration": 2, "velocity": 67}, {"time": 1316, "pitch": 65, "duration": 1, "velocity": 69}, {"time": 1316, "pitch": 69, "duration": 1, "velocity": 66}, {"time": 1322, "pitch": 60, "duration": 2, "velocity": 69}, {"time": 1322, "pitch": 65, "duration": 1, "velocity": 55}, {"time": 1322, "pitch": 69, "duration": 2, "velocity": 66}, {"time": 1328, "pitch": 53, "duration": 4, "velocity": 68}, {"time": 1331, "pitch": 60, "duration": 4, "velocity": 67}, {"time": 1331, "pitch": 65, "duration": 4, "velocity": 90}, {"time": 1331, "pitch": 69, "duration": 4, "velocity": 82}, {"time": 1337, "pitch": 60, "duration": 1, "velocity": 81}, {"time": 1337, "pitch": 65, "duration": 1, "velocity": 74}, {"time": 1337, "pitch": 69, "duration": 1, "velocity": 72}, {"time": 1343, "pitch": 39, "duration": 37, "velocity": 63}, {"time": 1343, "pitch": 63, "duration": 8, "velocity": 58}, {"time": 1343, "pitch": 67, "duration": 6, "velocity": 62}, {"time": 1343, "pitch": 70, "duration": 7, "velocity": 59}, {"time": 1349, "pitch": 46, "duration": 30, "velocity": 33}, {"time": 1355, "pitch": 51, "duration": 5, "velocity": 62}, {"time": 1355, "pitch": 63, "duration": 3, "velocity": 82}, {"time": 1355, "pitch": 67, "duration": 2, "velocity": 72}, {"time": 1355, "pitch": 70, "duration": 3, "velocity": 62}, {"time": 1361, "pitch": 51, "duration": 5, "velocity": 66}, {"time": 1364, "pitch": 63, "duration": 1, "velocity": 88}, {"time": 1364, "pitch": 67, "duration": 1, "velocity": 92}, {"time": 1364, "pitch": 70, "duration": 1, "velocity": 69}, {"time": 1367, "pitch": 51, "duration": 5, "velocity": 45}, {"time": 1370, "pitch": 63, "duration": 1, "velocity": 89}, {"time": 1370, "pitch": 67, "duration": 1, "velocity": 93}, {"time": 1370, "pitch": 70, "duration": 1, "velocity": 76}, {"time": 1376, "pitch": 51, "duration": 5, "velocity": 77}, {"time": 1379, "pitch": 63, "duration": 2, "velocity": 92}, {"time": 1379, "pitch": 67, "duration": 1, "velocity": 102}, {"time": 1379, "pitch": 70, "duration": 2, "velocity": 86}, {"time": 1385, "pitch": 63, "duration": 2, "velocity": 96}, {"time": 1391, "pitch": 41, "duration": 42, "velocity": 68}, {"time": 1391, "pitch": 60, "duration": 8, "velocity": 72}, {"time": 1391, "pitch": 65, "duration": 7, "velocity": 81}, {"time": 1391, "pitch": 69, "duration": 7, "velocity": 74}, {"time": 1397, "pitch": 48, "duration": 8, "velocity": 43}, {"time": 1403, "pitch": 53, "duration": 18, "velocity": 77}, {"time": 1403, "pitch": 60, "duration": 2, "velocity": 77}, {"time": 1403, "pitch": 65, "duration": 1, "velocity": 75}, {"time": 1403, "pitch": 69, "duration": 1, "velocity": 68}, {"time": 1409, "pitch": 48, "duration": 29, "velocity": 35}, {"time": 1412, "pitch": 60, "duration": 2, "velocity": 66}, {"time": 1412, "pitch": 65, "duration": 1, "velocity": 71}, {"time": 1412, "pitch": 69, "duration": 1, "velocity": 62}, {"time": 1418, "pitch": 60, "duration": 1, "velocity": 69}, {"time": 1418, "pitch": 65, "duration": 1, "velocity": 69}, {"time": 1418, "pitch": 69, "duration": 1, "velocity": 63}, {"time": 1424, "pitch": 53, "duration": 4, "velocity": 58}, {"time": 1427, "pitch": 60, "duration": 3, "velocity": 83}, {"time": 1427, "pitch": 65, "duration": 3, "velocity": 86}, {"time": 1427, "pitch": 69, "duration": 3, "velocity": 81}, {"time": 1430, "pitch": 53, "duration": 2, "velocity": 59}, {"time": 1433, "pitch": 60, "duration": 1, "velocity": 55}, {"time": 1433, "pitch": 65, "duration": 3, "velocity": 82}, {"time": 1433, "pitch": 69, "duration": 1, "velocity": 69}, {"time": 1439, "pitch": 43, "duration": 44, "velocity": 74}, {"time": 1439, "pitch": 62, "duration": 7, "velocity": 83}, {"time": 1439, "pitch": 67, "duration": 7, "velocity": 81}, {"time": 1439, "pitch": 70, "duration": 7, "velocity": 86}, {"time": 1445, "pitch": 50, "duration": 8, "velocity": 42}, {"time": 1451, "pitch": 55, "duration": 18, "velocity": 69}, {"time": 1451, "pitch": 62, "duration": 2, "velocity": 79}, {"time": 1451, "pitch": 67, "duration": 1, "velocity": 76}, {"time": 1451, "pitch": 70, "duration": 2, "velocity": 85}, {"time": 1457, "pitch": 50, "duration": 20, "velocity": 42}, {"time": 1460, "pitch": 62, "duration": 2, "velocity": 75}, {"time": 1460, "pitch": 67, "duration": 1, "velocity": 76}, {"time": 1460, "pitch": 70, "duration": 1, "velocity": 79}, {"time": 1466, "pitch": 62, "duration": 6, "velocity": 77}, {"time": 1466, "pitch": 67, "duration": 6, "velocity": 78}, {"time": 1466, "pitch": 70, "duration": 6, "velocity": 82}, {"time": 1472, "pitch": 55, "duration": 6, "velocity": 69}, {"time": 1475, "pitch": 62, "duration": 6, "velocity": 79}, {"time": 1475, "pitch": 67, "duration": 6, "velocity": 95}, {"time": 1475, "pitch": 70, "duration": 5, "velocity": 107}, {"time": 1481, "pitch": 50, "duration": 5, "velocity": 68}, {"time": 1487, "pitch": 41, "duration": 37, "velocity": 76}, {"time": 1487, "pitch": 60, "duration": 7, "velocity": 78}, {"time": 1487, "pitch": 65, "duration": 7, "velocity": 81}, {"time": 1487, "pitch": 69, "duration": 7, "velocity": 74}, {"time": 1493, "pitch": 48, "duration": 8, "velocity": 44}, {"time": 1499, "pitch": 53, "duration": 17, "velocity": 65}, {"time": 1499, "pitch": 60, "duration": 2, "velocity": 78}, {"time": 1499, "pitch": 65, "duration": 2, "velocity": 86}, {"time": 1499, "pitch": 69, "duration": 2, "velocity": 77}, {"time": 1505, "pitch": 48, "duration": 19, "velocity": 38}, {"time": 1508, "pitch": 60, "duration": 2, "velocity": 78}, {"time": 1508, "pitch": 65, "duration": 1, "velocity": 82}, {"time": 1508, "pitch": 69, "duration": 1, "velocity": 75}, {"time": 1514, "pitch": 60, "duration": 2, "velocity": 79}, {"time": 1514, "pitch": 65, "duration": 1, "velocity": 83}, {"time": 1514, "pitch": 69, "duration": 1, "velocity": 75}, {"time": 1520, "pitch": 53, "duration": 4, "velocity": 63}, {"time": 1523, "pitch": 60, "duration": 4, "velocity": 77}, {"time": 1523, "pitch": 65, "duration": 4, "velocity": 88}, {"time": 1523, "pitch": 69, "duration": 4, "velocity": 83}, {"time": 1529, "pitch": 60, "duration": 2, "velocity": 88}, {"time": 1529, "pitch": 69, "duration": 1, "velocity": 34}, {"time": 1535, "pitch": 39, "duration": 48, "velocity": 93}, {"time": 1535, "pitch": 63, "duration": 3, "velocity": 79}, {"time": 1535, "pitch": 67, "duration": 2, "velocity": 71}, {"time": 1535, "pitch": 70, "duration": 3, "velocity": 72}, {"time": 1541, "pitch": 51, "duration": 9, "velocity": 52}, {"time": 1547, "pitch": 63, "duration": 1, "velocity": 73}, {"time": 1547, "pitch": 67, "duration": 1, "velocity": 69}, {"time": 1547, "pitch": 70, "duration": 1, "velocity": 60}, {"time": 1553, "pitch": 51, "duration": 12, "velocity": 55}, {"time": 1556, "pitch": 63, "duration": 1, "velocity": 81}, {"time": 1556, "pitch": 67, "duration": 1, "velocity": 79}, {"time": 1556, "pitch": 70, "duration": 1, "velocity": 66}, {"time": 1562, "pitch": 63, "duration": 1, "velocity": 76}, {"time": 1562, "pitch": 67, "duration": 1, "velocity": 73}, {"time": 1562, "pitch": 70, "duration": 1, "velocity": 51}, {"time": 1568, "pitch": 51, "duration": 14, "velocity": 53}, {"time": 1571, "pitch": 63, "duration": 1, "velocity": 89}, {"time": 1571, "pitch": 67, "duration": 1, "velocity": 93}, {"time": 1571, "pitch": 70, "duration": 1, "velocity": 76}, {"time": 1577, "pitch": 63, "duration": 1, "velocity": 99}, {"time": 1577, "pitch": 67, "duration": 1, "velocity": 99}, {"time": 1577, "pitch": 70, "duration": 1, "velocity": 97}, {"time": 1580, "pitch": 63, "duration": 1, "velocity": 86}, {"time": 1580, "pitch": 67, "duration": 1, "velocity": 88}, {"time": 1580, "pitch": 70, "duration": 1, "velocity": 79}, {"time": 1583, "pitch": 46, "duration": 15, "velocity": 100}, {"time": 1586, "pitch": 53, "duration": 11, "velocity": 65}, {"time": 1589, "pitch": 58, "duration": 7, "velocity": 97}, {"time": 1592, "pitch": 62, "duration": 5, "velocity": 92}, {"time": 1595, "pitch": 70, "duration": 4, "velocity": 127}, {"time": 1598, "pitch": 65, "duration": 4, "velocity": 95}, {"time": 1601, "pitch": 62, "duration": 4, "velocity": 95}, {"time": 1604, "pitch": 65, "duration": 4, "velocity": 69}, {"time": 1607, "pitch": 41, "duration": 22, "velocity": 71}, {"time": 1610, "pitch": 48, "duration": 20, "velocity": 56}, {"time": 1613, "pitch": 53, "duration": 7, "velocity": 90}, {"time": 1616, "pitch": 60, "duration": 6, "velocity": 76}, {"time": 1619, "pitch": 69, "duration": 11, "velocity": 100}, {"time": 1622, "pitch": 53, "duration": 2, "velocity": 86}, {"time": 1625, "pitch": 65, "duration": 5, "velocity": 76}, {"time": 1628, "pitch": 60, "duration": 4, "velocity": 92}, {"time": 1631, "pitch": 43, "duration": 17, "velocity": 79}, {"time": 1634, "pitch": 50, "duration": 14, "velocity": 72}, {"time": 1637, "pitch": 55, "duration": 7, "velocity": 85}, {"time": 1640, "pitch": 62, "duration": 6, "velocity": 82}, {"time": 1643, "pitch": 70, "duration": 11, "velocity": 117}, {"time": 1646, "pitch": 55, "duration": 1, "velocity": 86}, {"time": 1649, "pitch": 67, "duration": 5, "velocity": 62}, {"time": 1652, "pitch": 62, "duration": 3, "velocity": 95}, {"time": 1655, "pitch": 39, "duration": 16, "velocity": 78}, {"time": 1658, "pitch": 46, "duration": 13, "velocity": 75}, {"time": 1661, "pitch": 51, "duration": 7, "velocity": 90}, {"time": 1664, "pitch": 63, "duration": 5, "velocity": 85}, {"time": 1667, "pitch": 70, "duration": 10, "velocity": 122}, {"time": 1670, "pitch": 51, "duration": 2, "velocity": 93}, {"time": 1673, "pitch": 67, "duration": 4, "velocity": 41}, {"time": 1676, "pitch": 63, "duration": 3, "velocity": 99}, {"time": 1679, "pitch": 46, "duration": 18, "velocity": 74}, {"time": 1682, "pitch": 53, "duration": 13, "velocity": 63}, {"time": 1685, "pitch": 58, "duration": 7, "velocity": 99}, {"time": 1688, "pitch": 62, "duration": 5, "velocity": 73}, {"time": 1691, "pitch": 70, "duration": 8, "velocity": 117}, {"time": 1694, "pitch": 58, "duration": 2, "velocity": 97}, {"time": 1697, "pitch": 65, "duration": 5, "velocity": 83}, {"time": 1700, "pitch": 62, "duration": 3, "velocity": 95}, {"time": 1703, "pitch": 41, "duration": 16, "velocity": 72}, {"time": 1706, "pitch": 48, "duration": 13, "velocity": 65}, {"time": 1709, "pitch": 53, "duration": 7, "velocity": 86}, {"time": 1712, "pitch": 60, "duration": 7, "velocity": 90}, {"time": 1715, "pitch": 69, "duration": 11, "velocity": 92}, {"time": 1718, "pitch": 53, "duration": 1, "velocity": 72}, {"time": 1721, "pitch": 65, "duration": 5, "velocity": 79}, {"time": 1724, "pitch": 60, "duration": 3, "velocity": 83}, {"time": 1727, "pitch": 39, "duration": 40, "velocity": 70}, {"time": 1730, "pitch": 46, "duration": 36, "velocity": 52}, {"time": 1733, "pitch": 51, "duration": 7, "velocity": 93}, {"time": 1736, "pitch": 63, "duration": 6, "velocity": 86}, {"time": 1739, "pitch": 70, "duration": 5, "velocity": 112}, {"time": 1742, "pitch": 51, "duration": 8, "velocity": 86}, {"time": 1745, "pitch": 67, "duration": 2, "velocity": 63}, {"time": 1745, "pitch": 70, "duration": 2, "velocity": 40}, {"time": 1748, "pitch": 63, "duration": 4, "velocity": 93}, {"time": 1748, "pitch": 67, "duration": 2, "velocity": 83}, {"time": 1748, "pitch": 70, "duration": 4, "velocity": 99}, {"time": 1754, "pitch": 63, "duration": 6, "velocity": 75}, {"time": 1754, "pitch": 67, "duration": 5, "velocity": 69}, {"time": 1754, "pitch": 70, "duration": 6, "velocity": 72}, {"time": 1760, "pitch": 51, "duration": 4, "velocity": 85}, {"time": 1763, "pitch": 63, "duration": 4, "velocity": 96}, {"time": 1763, "pitch": 67, "duration": 3, "velocity": 117}, {"time": 1763, "pitch": 70, "duration": 4, "velocity": 107}, {"time": 1766, "pitch": 51, "duration": 2, "velocity": 96}, {"time": 1769, "pitch": 67, "duration": 2, "velocity": 107}, {"time": 1769, "pitch": 70, "duration": 5, "velocity": 107}, {"time": 1772, "pitch": 63, "duration": 2, "velocity": 107}, {"time": 1772, "pitch": 67, "duration": 1, "velocity": 33}, {"time": 1775, "pitch": 46, "duration": 17, "velocity": 57}, {"time": 1778, "pitch": 53, "duration": 13, "velocity": 67}, {"time": 1781, "pitch": 58, "duration": 7, "velocity": 96}, {"time": 1784, "pitch": 62, "duration": 6, "velocity": 83}, {"time": 1787, "pitch": 70, "duration": 7, "velocity": 117}, {"time": 1790, "pitch": 58, "duration": 1, "velocity": 93}, {"time": 1793, "pitch": 65, "duration": 4, "velocity": 83}, {"time": 1796, "pitch": 62, "duration": 3, "velocity": 93}, {"time": 1799, "pitch": 41, "duration": 22, "velocity": 72}, {"time": 1802, "pitch": 48, "duration": 21, "velocity": 59}, {"time": 1805, "pitch": 53, "duration": 7, "velocity": 86}, {"time": 1808, "pitch": 60, "duration": 9, "velocity": 81}, {"time": 1811, "pitch": 69, "duration": 12, "velocity": 99}, {"time": 1814, "pitch": 53, "duration": 3, "velocity": 73}, {"time": 1817, "pitch": 65, "duration": 5, "velocity": 89}, {"time": 1820, "pitch": 60, "duration": 4, "velocity": 90}, {"time": 1823, "pitch": 43, "duration": 16, "velocity": 72}, {"time": 1826, "pitch": 50, "duration": 13, "velocity": 72}, {"time": 1829, "pitch": 55, "duration": 7, "velocity": 88}, {"time": 1832, "pitch": 62, "duration": 5, "velocity": 93}, {"time": 1835, "pitch": 70, "duration": 12, "velocity": 117}, {"time": 1838, "pitch": 55, "duration": 1, "velocity": 83}, {"time": 1841, "pitch": 67, "duration": 5, "velocity": 64}, {"time": 1844, "pitch": 62, "duration": 3, "velocity": 95}, {"time": 1847, "pitch": 39, "duration": 17, "velocity": 86}, {"time": 1850, "pitch": 46, "duration": 14, "velocity": 50}, {"time": 1853, "pitch": 51, "duration": 7, "velocity": 89}, {"time": 1856, "pitch": 63, "duration": 5, "velocity": 97}, {"time": 1859, "pitch": 70, "duration": 11, "velocity": 100}, {"time": 1862, "pitch": 51, "duration": 4, "velocity": 86}, {"time": 1865, "pitch": 63, "duration": 5, "velocity": 107}, {"time": 1868, "pitch": 67, "duration": 3, "velocity": 72}, {"time": 1871, "pitch": 46, "duration": 19, "velocity": 88}, {"time": 1874, "pitch": 53, "duration": 15, "velocity": 60}, {"time": 1877, "pitch": 58, "duration": 7, "velocity": 93}, {"time": 1880, "pitch": 65, "duration": 4, "velocity": 81}, {"time": 1883, "pitch": 70, "duration": 7, "velocity": 97}, {"time": 1886, "pitch": 58, "duration": 3, "velocity": 90}, {"time": 1889, "pitch": 65, "duration": 5, "velocity": 82}, {"time": 1892, "pitch": 70, "duration": 2, "velocity": 99}, {"time": 1895, "pitch": 41, "duration": 16, "velocity": 39}, {"time": 1898, "pitch": 48, "duration": 13, "velocity": 72}, {"time": 1901, "pitch": 53, "duration": 7, "velocity": 72}, {"time": 1904, "pitch": 60, "duration": 7, "velocity": 76}, {"time": 1907, "pitch": 69, "duration": 12, "velocity": 97}, {"time": 1910, "pitch": 53, "duration": 2, "velocity": 88}, {"time": 1913, "pitch": 65, "duration": 6, "velocity": 74}, {"time": 1916, "pitch": 60, "duration": 3, "velocity": 82}, {"time": 1919, "pitch": 39, "duration": 41, "velocity": 81}, {"time": 1922, "pitch": 46, "duration": 38, "velocity": 56}, {"time": 1925, "pitch": 51, "duration": 7, "velocity": 89}, {"time": 1928, "pitch": 63, "duration": 11, "velocity": 59}, {"time": 1931, "pitch": 67, "duration": 6, "velocity": 66}, {"time": 1931, "pitch": 70, "duration": 7, "velocity": 90}, {"time": 1937, "pitch": 51, "duration": 11, "velocity": 61}, {"time": 1940, "pitch": 63, "duration": 2, "velocity": 72}, {"time": 1940, "pitch": 67, "duration": 1, "velocity": 69}, {"time": 1940, "pitch": 70, "duration": 2, "velocity": 66}, {"time": 1946, "pitch": 63, "duration": 6, "velocity": 75}, {"time": 1946, "pitch": 67, "duration": 4, "velocity": 69}, {"time": 1946, "pitch": 70, "duration": 4, "velocity": 55}, {"time": 1952, "pitch": 51, "duration": 4, "velocity": 66}, {"time": 1955, "pitch": 63, "duration": 4, "velocity": 95}, {"time": 1955, "pitch": 67, "duration": 3, "velocity": 99}, {"time": 1955, "pitch": 70, "duration": 4, "velocity": 89}, {"time": 1958, "pitch": 51, "duration": 3, "velocity": 73}, {"time": 1961, "pitch": 63, "duration": 2, "velocity": 93}, {"time": 1961, "pitch": 67, "duration": 2, "velocity": 102}, {"time": 1961, "pitch": 70, "duration": 3, "velocity": 100}, {"time": 1967, "pitch": 41, "duration": 37, "velocity": 85}, {"time": 1970, "pitch": 48, "duration": 34, "velocity": 96}, {"time": 1973, "pitch": 53, "duration": 8, "velocity": 72}, {"time": 1976, "pitch": 60, "duration": 7, "velocity": 54}, {"time": 1979, "pitch": 65, "duration": 4, "velocity": 77}, {"time": 1979, "pitch": 69, "duration": 4, "velocity": 88}, {"time": 1985, "pitch": 53, "duration": 11, "velocity": 74}, {"time": 1988, "pitch": 60, "duration": 2, "velocity": 67}, {"time": 1988, "pitch": 65, "duration": 2, "velocity": 72}, {"time": 1988, "pitch": 69, "duration": 2, "velocity": 68}, {"time": 1994, "pitch": 65, "duration": 2, "velocity": 70}, {"time": 1994, "pitch": 69, "duration": 2, "velocity": 68}, {"time": 2000, "pitch": 53, "duration": 3, "velocity": 41}, {"time": 2003, "pitch": 60, "duration": 2, "velocity": 78}, {"time": 2003, "pitch": 65, "duration": 2, "velocity": 85}, {"time": 2003, "pitch": 69, "duration": 2, "velocity": 77}, {"time": 2009, "pitch": 60, "duration": 1, "velocity": 83}, {"time": 2009, "pitch": 65, "duration": 1, "velocity": 77}, {"time": 2009, "pitch": 69, "duration": 1, "velocity": 66}, {"time": 2015, "pitch": 39, "duration": 36, "velocity": 85}, {"time": 2015, "pitch": 63, "duration": 11, "velocity": 81}, {"time": 2015, "pitch": 67, "duration": 8, "velocity": 66}, {"time": 2015, "pitch": 70, "duration": 10, "velocity": 75}, {"time": 2021, "pitch": 46, "duration": 29, "velocity": 31}, {"time": 2024, "pitch": 51, "duration": 4, "velocity": 29}, {"time": 2027, "pitch": 63, "duration": 3, "velocity": 85}, {"time": 2027, "pitch": 67, "duration": 2, "velocity": 72}, {"time": 2027, "pitch": 70, "duration": 2, "velocity": 77}, {"time": 2033, "pitch": 51, "duration": 12, "velocity": 52}, {"time": 2036, "pitch": 63, "duration": 1, "velocity": 93}, {"time": 2036, "pitch": 67, "duration": 1, "velocity": 95}, {"time": 2036, "pitch": 70, "duration": 1, "velocity": 89}, {"time": 2042, "pitch": 63, "duration": 1, "velocity": 89}, {"time": 2042, "pitch": 67, "duration": 1, "velocity": 96}, {"time": 2042, "pitch": 70, "duration": 1, "velocity": 81}, {"time": 2048, "pitch": 51, "duration": 3, "velocity": 56}, {"time": 2051, "pitch": 63, "duration": 1, "velocity": 97}, {"time": 2051, "pitch": 67, "duration": 1, "velocity": 102}, {"time": 2051, "pitch": 70, "duration": 1, "velocity": 97}, {"time": 2057, "pitch": 63, "duration": 1, "velocity": 89}, {"time": 2057, "pitch": 70, "duration": 1, "velocity": 79}, {"time": 2063, "pitch": 41, "duration": 40, "velocity": 73}, {"time": 2063, "pitch": 60, "duration": 7, "velocity": 92}, {"time": 2063, "pitch": 65, "duration": 6, "velocity": 90}, {"time": 2063, "pitch": 69, "duration": 6, "velocity": 86}, {"time": 2069, "pitch": 48, "duration": 32, "velocity": 56}, {"time": 2072, "pitch": 53, "duration": 5, "velocity": 46}, {"time": 2075, "pitch": 60, "duration": 2, "velocity": 72}, {"time": 2075, "pitch": 65, "duration": 2, "velocity": 75}, {"time": 2075, "pitch": 69, "duration": 2, "velocity": 69}, {"time": 2081, "pitch": 53, "duration": 6, "velocity": 52}, {"time": 2084, "pitch": 60, "duration": 6, "velocity": 66}, {"time": 2084, "pitch": 65, "duration": 7, "velocity": 66}, {"time": 2090, "pitch": 53, "duration": 5, "velocity": 67}, {"time": 2093, "pitch": 60, "duration": 9, "velocity": 78}, {"time": 2096, "pitch": 53, "duration": 3, "velocity": 72}, {"time": 2099, "pitch": 69, "duration": 12, "velocity": 107}, {"time": 2102, "pitch": 48, "duration": 1, "velocity": 39}, {"time": 2102, "pitch": 53, "duration": 1, "velocity": 72}, {"time": 2105, "pitch": 65, "duration": 6, "velocity": 83}, {"time": 2108, "pitch": 60, "duration": 3, "velocity": 74}, {"time": 2111, "pitch": 39, "duration": 41, "velocity": 81}, {"time": 2114, "pitch": 46, "duration": 38, "velocity": 34}, {"time": 2117, "pitch": 51, "duration": 7, "velocity": 86}, {"time": 2120, "pitch": 63, "duration": 18, "velocity": 57}, {"time": 2123, "pitch": 70, "duration": 3, "velocity": 117}, {"time": 2129, "pitch": 51, "duration": 8, "velocity": 81}, {"time": 2132, "pitch": 67, "duration": 7, "velocity": 67}, {"time": 2132, "pitch": 70, "duration": 10, "velocity": 61}, {"time": 2138, "pitch": 51, "duration": 14, "velocity": 72}, {"time": 2141, "pitch": 63, "duration": 2, "velocity": 44}, {"time": 2147, "pitch": 70, "duration": 3, "velocity": 1}, {"time": 2159, "pitch": 41, "duration": 43, "velocity": 64}, {"time": 2159, "pitch": 60, "duration": 9, "velocity": 75}, {"time": 2159, "pitch": 65, "duration": 8, "velocity": 71}, {"time": 2159, "pitch": 69, "duration": 8, "velocity": 68}, {"time": 2165, "pitch": 48, "duration": 42, "velocity": 58}, {"time": 2168, "pitch": 53, "duration": 5, "velocity": 71}, {"time": 2171, "pitch": 65, "duration": 1, "velocity": 85}, {"time": 2171, "pitch": 69, "duration": 2, "velocity": 79}, {"time": 2177, "pitch": 53, "duration": 6, "velocity": 68}, {"time": 2180, "pitch": 65, "duration": 8, "velocity": 77}, {"time": 2180, "pitch": 69, "duration": 8, "velocity": 78}, {"time": 2186, "pitch": 53, "duration": 9, "velocity": 81}, {"time": 2195, "pitch": 65, "duration": 11, "velocity": 92}, {"time": 2195, "pitch": 69, "duration": 7, "velocity": 92}, {"time": 2198, "pitch": 53, "duration": 2, "velocity": 64}, {"time": 2201, "pitch": 60, "duration": 4, "velocity": 79}, {"time": 2207, "pitch": 43, "duration": 42, "velocity": 68}, {"time": 2207, "pitch": 62, "duration": 8, "velocity": 85}, {"time": 2207, "pitch": 67, "duration": 7, "velocity": 66}, {"time": 2207, "pitch": 70, "duration": 7, "velocity": 58}, {"time": 2213, "pitch": 50, "duration": 31, "velocity": 55}, {"time": 2219, "pitch": 62, "duration": 2, "velocity": 81}, {"time": 2219, "pitch": 67, "duration": 1, "velocity": 82}, {"time": 2219, "pitch": 70, "duration": 2, "velocity": 89}, {"time": 2225, "pitch": 55, "duration": 11, "velocity": 53}, {"time": 2228, "pitch": 62, "duration": 2, "velocity": 75}, {"time": 2228, "pitch": 67, "duration": 2, "velocity": 77}, {"time": 2228, "pitch": 70, "duration": 2, "velocity": 76}, {"time": 2234, "pitch": 67, "duration": 7, "velocity": 89}, {"time": 2234, "pitch": 70, "duration": 7, "velocity": 96}, {"time": 2237, "pitch": 62, "duration": 2, "velocity": 35}, {"time": 2240, "pitch": 55, "duration": 4, "velocity": 79}, {"time": 2243, "pitch": 67, "duration": 7, "velocity": 95}, {"time": 2243, "pitch": 70, "duration": 6, "velocity": 107}, {"time": 2246, "pitch": 50, "duration": 2, "velocity": 64}, {"time": 2249, "pitch": 62, "duration": 5, "velocity": 88}, {"time": 2255, "pitch": 41, "duration": 36, "velocity": 66}, {"time": 2255, "pitch": 65, "duration": 11, "velocity": 89}, {"time": 2255, "pitch": 69, "duration": 11, "velocity": 85}, {"time": 2261, "pitch": 48, "duration": 29, "velocity": 49}, {"time": 2264, "pitch": 60, "duration": 1, "velocity": 27}, {"time": 2267, "pitch": 60, "duration": 2, "velocity": 81}, {"time": 2267, "pitch": 65, "duration": 2, "velocity": 76}, {"time": 2267, "pitch": 69, "duration": 2, "velocity": 70}, {"time": 2273, "pitch": 53, "duration": 11, "velocity": 67}, {"time": 2276, "pitch": 60, "duration": 2, "velocity": 72}, {"time": 2276, "pitch": 65, "duration": 2, "velocity": 73}, {"time": 2276, "pitch": 69, "duration": 2, "velocity": 62}, {"time": 2282, "pitch": 60, "duration": 2, "velocity": 71}, {"time": 2282, "pitch": 65, "duration": 2, "velocity": 74}, {"time": 2282, "pitch": 69, "duration": 2, "velocity": 65}, {"time": 2288, "pitch": 53, "duration": 2, "velocity": 76}, {"time": 2291, "pitch": 65, "duration": 6, "velocity": 89}, {"time": 2291, "pitch": 69, "duration": 6, "velocity": 89}, {"time": 2297, "pitch": 60, "duration": 3, "velocity": 73}, {"time": 2303, "pitch": 39, "duration": 40, "velocity": 88}, {"time": 2303, "pitch": 63, "duration": 4, "velocity": 86}, {"time": 2303, "pitch": 67, "duration": 4, "velocity": 76}, {"time": 2306, "pitch": 46, "duration": 37, "velocity": 38}, {"time": 2309, "pitch": 51, "duration": 7, "velocity": 88}, {"time": 2312, "pitch": 58, "duration": 3, "velocity": 69}, {"time": 2315, "pitch": 58, "duration": 2, "velocity": 66}, {"time": 2315, "pitch": 63, "duration": 2, "velocity": 72}, {"time": 2315, "pitch": 67, "duration": 2, "velocity": 79}, {"time": 2321, "pitch": 51, "duration": 11, "velocity": 68}, {"time": 2324, "pitch": 58, "duration": 4, "velocity": 85}, {"time": 2324, "pitch": 63, "duration": 4, "velocity": 66}, {"time": 2324, "pitch": 67, "duration": 4, "velocity": 60}, {"time": 2330, "pitch": 58, "duration": 6, "velocity": 83}, {"time": 2330, "pitch": 63, "duration": 6, "velocity": 78}, {"time": 2330, "pitch": 67, "duration": 4, "velocity": 63}, {"time": 2336, "pitch": 51, "duration": 4, "velocity": 58}, {"time": 2339, "pitch": 58, "duration": 1, "velocity": 58}, {"time": 2339, "pitch": 63, "duration": 8, "velocity": 81}, {"time": 2339, "pitch": 67, "duration": 5, "velocity": 69}, {"time": 2342, "pitch": 51, "duration": 2, "velocity": 73}, {"time": 2351, "pitch": 41, "duration": 43, "velocity": 68}, {"time": 2351, "pitch": 60, "duration": 7, "velocity": 64}, {"time": 2351, "pitch": 65, "duration": 7, "velocity": 65}, {"time": 2351, "pitch": 69, "duration": 7, "velocity": 66}, {"time": 2357, "pitch": 48, "duration": 42, "velocity": 51}, {"time": 2360, "pitch": 53, "duration": 6, "velocity": 72}, {"time": 2363, "pitch": 65, "duration": 8, "velocity": 90}, {"time": 2363, "pitch": 69, "duration": 8, "velocity": 86}, {"time": 2369, "pitch": 53, "duration": 10, "velocity": 69}, {"time": 2372, "pitch": 60, "duration": 1, "velocity": 52}, {"time": 2372, "pitch": 65, "duration": 2, "velocity": 72}, {"time": 2372, "pitch": 69, "duration": 2, "velocity": 72}, {"time": 2378, "pitch": 65, "duration": 8, "velocity": 81}, {"time": 2378, "pitch": 69, "duration": 8, "velocity": 79}, {"time": 2381, "pitch": 60, "duration": 8, "velocity": 57}, {"time": 2384, "pitch": 53, "duration": 4, "velocity": 69}, {"time": 2387, "pitch": 65, "duration": 6, "velocity": 82}, {"time": 2387, "pitch": 69, "duration": 6, "velocity": 82}, {"time": 2390, "pitch": 53, "duration": 2, "velocity": 65}, {"time": 2393, "pitch": 60, "duration": 3, "velocity": 77}, {"time": 2399, "pitch": 43, "duration": 42, "velocity": 60}, {"time": 2399, "pitch": 62, "duration": 11, "velocity": 82}, {"time": 2399, "pitch": 67, "duration": 11, "velocity": 74}, {"time": 2399, "pitch": 70, "duration": 10, "velocity": 70}, {"time": 2405, "pitch": 50, "duration": 35, "velocity": 48}, {"time": 2408, "pitch": 55, "duration": 6, "velocity": 69}, {"time": 2411, "pitch": 62, "duration": 8, "velocity": 74}, {"time": 2411, "pitch": 67, "duration": 8, "velocity": 82}, {"time": 2411, "pitch": 70, "duration": 7, "velocity": 92}, {"time": 2417, "pitch": 55, "duration": 8, "velocity": 69}, {"time": 2420, "pitch": 62, "duration": 1, "velocity": 47}, {"time": 2420, "pitch": 67, "duration": 12, "velocity": 82}, {"time": 2420, "pitch": 70, "duration": 12, "velocity": 97}, {"time": 2426, "pitch": 62, "duration": 6, "velocity": 86}, {"time": 2432, "pitch": 55, "duration": 4, "velocity": 69}, {"time": 2435, "pitch": 67, "duration": 7, "velocity": 89}, {"time": 2435, "pitch": 70, "duration": 6, "velocity": 100}, {"time": 2438, "pitch": 55, "duration": 2, "velocity": 68}, {"time": 2441, "pitch": 62, "duration": 6, "velocity": 83}, {"time": 2447, "pitch": 41, "duration": 35, "velocity": 63}, {"time": 2447, "pitch": 65, "duration": 11, "velocity": 81}, {"time": 2447, "pitch": 69, "duration": 11, "velocity": 81}, {"time": 2453, "pitch": 48, "duration": 28, "velocity": 54}, {"time": 2456, "pitch": 53, "duration": 5, "velocity": 52}, {"time": 2459, "pitch": 60, "duration": 8, "velocity": 53}, {"time": 2459, "pitch": 65, "duration": 7, "velocity": 82}, {"time": 2459, "pitch": 69, "duration": 7, "velocity": 75}, {"time": 2465, "pitch": 53, "duration": 10, "velocity": 66}, {"time": 2468, "pitch": 60, "duration": 4, "velocity": 51}, {"time": 2468, "pitch": 65, "duration": 4, "velocity": 73}, {"time": 2468, "pitch": 69, "duration": 4, "velocity": 71}, {"time": 2474, "pitch": 60, "duration": 7, "velocity": 64}, {"time": 2474, "pitch": 65, "duration": 7, "velocity": 65}, {"time": 2474, "pitch": 69, "duration": 7, "velocity": 63}, {"time": 2480, "pitch": 53, "duration": 2, "velocity": 74}, {"time": 2483, "pitch": 60, "duration": 4, "velocity": 76}, {"time": 2483, "pitch": 65, "duration": 2, "velocity": 83}, {"time": 2483, "pitch": 69, "duration": 4, "velocity": 78}, {"time": 2489, "pitch": 60, "duration": 1, "velocity": 64}, {"time": 2489, "pitch": 65, "duration": 1, "velocity": 69}, {"time": 2489, "pitch": 69, "duration": 1, "velocity": 56}, {"time": 2495, "pitch": 39, "duration": 48, "velocity": 77}, {"time": 2495, "pitch": 63, "duration": 10, "velocity": 66}, {"time": 2495, "pitch": 67, "duration": 6, "velocity": 65}, {"time": 2495, "pitch": 70, "duration": 7, "velocity": 59}, {"time": 2501, "pitch": 46, "duration": 42, "velocity": 50}, {"time": 2504, "pitch": 51, "duration": 3, "velocity": 37}, {"time": 2507, "pitch": 63, "duration": 7, "velocity": 81}, {"time": 2507, "pitch": 67, "duration": 5, "velocity": 74}, {"time": 2507, "pitch": 70, "duration": 6, "velocity": 71}, {"time": 2513, "pitch": 51, "duration": 30, "velocity": 44}, {"time": 2516, "pitch": 63, "duration": 3, "velocity": 66}, {"time": 2516, "pitch": 67, "duration": 1, "velocity": 58}, {"time": 2516, "pitch": 70, "duration": 2, "velocity": 62}, {"time": 2543, "pitch": 41, "duration": 43, "velocity": 72}, {"time": 2543, "pitch": 60, "duration": 6, "velocity": 68}, {"time": 2543, "pitch": 65, "duration": 6, "velocity": 64}, {"time": 2543, "pitch": 69, "duration": 6, "velocity": 56}, {"time": 2549, "pitch": 48, "duration": 8, "velocity": 44}, {"time": 2555, "pitch": 53, "duration": 18, "velocity": 64}, {"time": 2555, "pitch": 60, "duration": 1, "velocity": 73}, {"time": 2555, "pitch": 65, "duration": 1, "velocity": 81}, {"time": 2555, "pitch": 69, "duration": 1, "velocity": 69}, {"time": 2561, "pitch": 48, "duration": 30, "velocity": 40}, {"time": 2564, "pitch": 60, "duration": 1, "velocity": 70}, {"time": 2564, "pitch": 65, "duration": 1, "velocity": 74}, {"time": 2564, "pitch": 69, "duration": 1, "velocity": 64}, {"time": 2570, "pitch": 60, "duration": 1, "velocity": 69}, {"time": 2570, "pitch": 65, "duration": 1, "velocity": 71}, {"time": 2570, "pitch": 69, "duration": 1, "velocity": 66}, {"time": 2576, "pitch": 53, "duration": 6, "velocity": 42}, {"time": 2579, "pitch": 60, "duration": 9, "velocity": 70}, {"time": 2579, "pitch": 65, "duration": 11, "velocity": 78}, {"time": 2579, "pitch": 69, "duration": 7, "velocity": 70}, {"time": 2585, "pitch": 53, "duration": 6, "velocity": 58}, {"time": 2591, "pitch": 43, "duration": 41, "velocity": 66}, {"time": 2591, "pitch": 62, "duration": 7, "velocity": 59}, {"time": 2591, "pitch": 67, "duration": 7, "velocity": 59}, {"time": 2591, "pitch": 70, "duration": 7, "velocity": 62}, {"time": 2597, "pitch": 50, "duration": 8, "velocity": 59}, {"time": 2603, "pitch": 55, "duration": 17, "velocity": 70}, {"time": 2603, "pitch": 62, "duration": 2, "velocity": 72}, {"time": 2603, "pitch": 67, "duration": 1, "velocity": 63}, {"time": 2603, "pitch": 70, "duration": 2, "velocity": 58}, {"time": 2609, "pitch": 50, "duration": 22, "velocity": 38}, {"time": 2612, "pitch": 62, "duration": 1, "velocity": 73}, {"time": 2612, "pitch": 67, "duration": 1, "velocity": 79}, {"time": 2612, "pitch": 70, "duration": 1, "velocity": 78}, {"time": 2618, "pitch": 62, "duration": 1, "velocity": 74}, {"time": 2618, "pitch": 67, "duration": 1, "velocity": 77}, {"time": 2618, "pitch": 70, "duration": 1, "velocity": 79}, {"time": 2624, "pitch": 55, "duration": 4, "velocity": 69}, {"time": 2627, "pitch": 67, "duration": 6, "velocity": 86}, {"time": 2627, "pitch": 70, "duration": 6, "velocity": 95}, {"time": 2630, "pitch": 55, "duration": 2, "velocity": 77}, {"time": 2633, "pitch": 62, "duration": 5, "velocity": 92}, {"time": 2639, "pitch": 41, "duration": 37, "velocity": 67}, {"time": 2639, "pitch": 65, "duration": 7, "velocity": 73}, {"time": 2639, "pitch": 69, "duration": 7, "velocity": 70}, {"time": 2645, "pitch": 48, "duration": 8, "velocity": 40}, {"time": 2651, "pitch": 53, "duration": 18, "velocity": 76}, {"time": 2651, "pitch": 60, "duration": 2, "velocity": 82}, {"time": 2651, "pitch": 65, "duration": 1, "velocity": 72}, {"time": 2651, "pitch": 69, "duration": 2, "velocity": 69}, {"time": 2657, "pitch": 48, "duration": 19, "velocity": 40}, {"time": 2660, "pitch": 60, "duration": 2, "velocity": 67}, {"time": 2660, "pitch": 65, "duration": 1, "velocity": 69}, {"time": 2660, "pitch": 69, "duration": 1, "velocity": 66}, {"time": 2666, "pitch": 60, "duration": 2, "velocity": 69}, {"time": 2666, "pitch": 65, "duration": 1, "velocity": 55}, {"time": 2666, "pitch": 69, "duration": 2, "velocity": 66}, {"time": 2672, "pitch": 53, "duration": 4, "velocity": 68}, {"time": 2675, "pitch": 60, "duration": 4, "velocity": 67}, {"time": 2675, "pitch": 65, "duration": 4, "velocity": 90}, {"time": 2675, "pitch": 69, "duration": 4, "velocity": 82}, {"time": 2681, "pitch": 60, "duration": 1, "velocity": 81}, {"time": 2681, "pitch": 65, "duration": 1, "velocity": 74}, {"time": 2681, "pitch": 69, "duration": 1, "velocity": 72}, {"time": 2687, "pitch": 39, "duration": 37, "velocity": 63}, {"time": 2687, "pitch": 63, "duration": 8, "velocity": 58}, {"time": 2687, "pitch": 67, "duration": 6, "velocity": 62}, {"time": 2687, "pitch": 70, "duration": 7, "velocity": 59}, {"time": 2693, "pitch": 46, "duration": 30, "velocity": 33}, {"time": 2699, "pitch": 51, "duration": 5, "velocity": 62}, {"time": 2699, "pitch": 63, "duration": 3, "velocity": 82}, {"time": 2699, "pitch": 67, "duration": 2, "velocity": 72}, {"time": 2699, "pitch": 70, "duration": 3, "velocity": 62}, {"time": 2705, "pitch": 51, "duration": 5, "velocity": 66}, {"time": 2708, "pitch": 63, "duration": 1, "velocity": 88}, {"time": 2708, "pitch": 67, "duration": 1, "velocity": 92}, {"time": 2708, "pitch": 70, "duration": 1, "velocity": 69}, {"time": 2711, "pitch": 51, "duration": 5, "velocity": 45}, {"time": 2714, "pitch": 63, "duration": 1, "velocity": 89}, {"time": 2714, "pitch": 67, "duration": 1, "velocity": 93}, {"time": 2714, "pitch": 70, "duration": 1, "velocity": 76}, {"time": 2720, "pitch": 51, "duration": 5, "velocity": 77}, {"time": 2723, "pitch": 63, "duration": 2, "velocity": 92}, {"time": 2723, "pitch": 67, "duration": 1, "velocity": 102}, {"time": 2723, "pitch": 70, "duration": 2, "velocity": 86}, {"time": 2729, "pitch": 63, "duration": 2, "velocity": 96}, {"time": 2735, "pitch": 41, "duration": 42, "velocity": 68}, {"time": 2735, "pitch": 60, "duration": 8, "velocity": 72}, {"time": 2735, "pitch": 65, "duration": 7, "velocity": 81}, {"time": 2735, "pitch": 69, "duration": 7, "velocity": 74}, {"time": 2741, "pitch": 48, "duration": 8, "velocity": 43}, {"time": 2747, "pitch": 53, "duration": 18, "velocity": 77}, {"time": 2747, "pitch": 60, "duration": 2, "velocity": 77}, {"time": 2747, "pitch": 65, "duration": 1, "velocity": 75}, {"time": 2747, "pitch": 69, "duration": 1, "velocity": 68}, {"time": 2753, "pitch": 48, "duration": 29, "velocity": 35}, {"time": 2756, "pitch": 60, "duration": 2, "velocity": 66}, {"time": 2756, "pitch": 65, "duration": 1, "velocity": 71}, {"time": 2756, "pitch": 69, "duration": 1, "velocity": 62}, {"time": 2762, "pitch": 60, "duration": 1, "velocity": 69}, {"time": 2762, "pitch": 65, "duration": 1, "velocity": 69}, {"time": 2762, "pitch": 69, "duration": 1, "velocity": 63}, {"time": 2768, "pitch": 53, "duration": 4, "velocity": 58}, {"time": 2771, "pitch": 60, "duration": 3, "velocity": 83}, {"time": 2771, "pitch": 65, "duration": 3, "velocity": 86}, {"time": 2771, "pitch": 69, "duration": 3, "velocity": 81}, {"time": 2774, "pitch": 53, "duration": 2, "velocity": 59}, {"time": 2777, "pitch": 60, "duration": 1, "velocity": 55}, {"time": 2777, "pitch": 65, "duration": 3, "velocity": 82}, {"time": 2777, "pitch": 69, "duration": 1, "velocity": 69}, {"time": 2783, "pitch": 43, "duration": 44, "velocity": 74}, {"time": 2783, "pitch": 62, "duration": 7, "velocity": 83}, {"time": 2783, "pitch": 67, "duration": 7, "velocity": 81}, {"time": 2783, "pitch": 70, "duration": 7, "velocity": 86}, {"time": 2789, "pitch": 50, "duration": 8, "velocity": 42}, {"time": 2795, "pitch": 55, "duration": 18, "velocity": 69}, {"time": 2795, "pitch": 62, "duration": 2, "velocity": 79}, {"time": 2795, "pitch": 67, "duration": 1, "velocity": 76}, {"time": 2795, "pitch": 70, "duration": 2, "velocity": 85}, {"time": 2801, "pitch": 50, "duration": 20, "velocity": 42}, {"time": 2804, "pitch": 62, "duration": 2, "velocity": 75}, {"time": 2804, "pitch": 67, "duration": 1, "velocity": 76}, {"time": 2804, "pitch": 70, "duration": 1, "velocity": 79}, {"time": 2810, "pitch": 62, "duration": 6, "velocity": 77}, {"time": 2810, "pitch": 67, "duration": 6, "velocity": 78}, {"time": 2810, "pitch": 70, "duration": 6, "velocity": 82}, {"time": 2816, "pitch": 55, "duration": 6, "velocity": 69}, {"time": 2819, "pitch": 62, "duration": 6, "velocity": 79}, {"time": 2819, "pitch": 67, "duration": 6, "velocity": 95}, {"time": 2819, "pitch": 70, "duration": 5, "velocity": 107}, {"time": 2825, "pitch": 50, "duration": 5, "velocity": 68}, {"time": 2831, "pitch": 41, "duration": 37, "velocity": 76}, {"time": 2831, "pitch": 60, "duration": 7, "velocity": 78}, {"time": 2831, "pitch": 65, "duration": 7, "velocity": 81}, {"time": 2831, "pitch": 69, "duration": 7, "velocity": 74}, {"time": 2837, "pitch": 48, "duration": 8, "velocity": 44}, {"time": 2843, "pitch": 53, "duration": 17, "velocity": 65}, {"time": 2843, "pitch": 60, "duration": 2, "velocity": 78}, {"time": 2843, "pitch": 65, "duration": 2, "velocity": 86}, {"time": 2843, "pitch": 69, "duration": 2, "velocity": 77}, {"time": 2849, "pitch": 48, "duration": 19, "velocity": 38}, {"time": 2852, "pitch": 60, "duration": 2, "velocity": 78}, {"time": 2852, "pitch": 65, "duration": 1, "velocity": 82}, {"time": 2852, "pitch": 69, "duration": 1, "velocity": 75}, {"time": 2858, "pitch": 60, "duration": 2, "velocity": 79}, {"time": 2858, "pitch": 65, "duration": 1, "velocity": 83}, {"time": 2858, "pitch": 69, "duration": 1, "velocity": 75}, {"time": 2864, "pitch": 53, "duration": 4, "velocity": 63}, {"time": 2867, "pitch": 60, "duration": 4, "velocity": 77}, {"time": 2867, "pitch": 65, "duration": 4, "velocity": 88}, {"time": 2867, "pitch": 69, "duration": 4, "velocity": 83}, {"time": 2873, "pitch": 60, "duration": 2, "velocity": 88}, {"time": 2873, "pitch": 69, "duration": 1, "velocity": 34}, {"time": 2879, "pitch": 39, "duration": 48, "velocity": 93}, {"time": 2879, "pitch": 63, "duration": 3, "velocity": 79}, {"time": 2879, "pitch": 67, "duration": 2, "velocity": 71}, {"time": 2879, "pitch": 70, "duration": 3, "velocity": 72}, {"time": 2885, "pitch": 51, "duration": 9, "velocity": 52}, {"time": 2891, "pitch": 63, "duration": 1, "velocity": 73}, {"time": 2891, "pitch": 67, "duration": 1, "velocity": 69}, {"time": 2891, "pitch": 70, "duration": 1, "velocity": 60}, {"time": 2897, "pitch": 51, "duration": 12, "velocity": 55}, {"time": 2900, "pitch": 63, "duration": 1, "velocity": 81}, {"time": 2900, "pitch": 67, "duration": 1, "velocity": 79}, {"time": 2900, "pitch": 70, "duration": 1, "velocity": 66}, {"time": 2906, "pitch": 63, "duration": 1, "velocity": 76}, {"time": 2906, "pitch": 67, "duration": 1, "velocity": 73}, {"time": 2906, "pitch": 70, "duration": 1, "velocity": 51}, {"time": 2912, "pitch": 51, "duration": 14, "velocity": 53}, {"time": 2915, "pitch": 63, "duration": 1, "velocity": 89}, {"time": 2915, "pitch": 67, "duration": 1, "velocity": 93}, {"time": 2915, "pitch": 70, "duration": 1, "velocity": 76}, {"time": 2921, "pitch": 63, "duration": 1, "velocity": 99}, {"time": 2921, "pitch": 67, "duration": 1, "velocity": 99}, {"time": 2921, "pitch": 70, "duration": 1, "velocity": 97}, {"time": 2924, "pitch": 63, "duration": 1, "velocity": 86}, {"time": 2924, "pitch": 67, "duration": 1, "velocity": 88}, {"time": 2924, "pitch": 70, "duration": 1, "velocity": 79}, {"time": 2927, "pitch": 46, "duration": 15, "velocity": 100}, {"time": 2930, "pitch": 53, "duration": 11, "velocity": 65}, {"time": 2933, "pitch": 58, "duration": 7, "velocity": 97}, {"time": 2936, "pitch": 62, "duration": 5, "velocity": 92}, {"time": 2939, "pitch": 70, "duration": 4, "velocity": 127}, {"time": 2942, "pitch": 65, "duration": 4, "velocity": 95}, {"time": 2945, "pitch": 62, "duration": 4, "velocity": 95}, {"time": 2948, "pitch": 65, "duration": 4, "velocity": 69}, {"time": 2951, "pitch": 41, "duration": 22, "velocity": 71}, {"time": 2954, "pitch": 48, "duration": 20, "velocity": 56}, {"time": 2957, "pitch": 53, "duration": 7, "velocity": 90}, {"time": 2960, "pitch": 60, "duration": 6, "velocity": 76}, {"time": 2963, "pitch": 69, "duration": 11, "velocity": 100}, {"time": 2966, "pitch": 53, "duration": 2, "velocity": 86}, {"time": 2969, "pitch": 65, "duration": 5, "velocity": 76}, {"time": 2972, "pitch": 60, "duration": 4, "velocity": 92}, {"time": 2975, "pitch": 43, "duration": 17, "velocity": 79}, {"time": 2978, "pitch": 50, "duration": 14, "velocity": 72}, {"time": 2981, "pitch": 55, "duration": 7, "velocity": 85}, {"time": 2984, "pitch": 62, "duration": 6, "velocity": 82}, {"time": 2987, "pitch": 70, "duration": 11, "velocity": 117}, {"time": 2990, "pitch": 55, "duration": 1, "velocity": 86}, {"time": 2993, "pitch": 67, "duration": 5, "velocity": 62}, {"time": 2996, "pitch": 62, "duration": 3, "velocity": 95}, {"time": 2999, "pitch": 39, "duration": 16, "velocity": 78}, {"time": 3002, "pitch": 46, "duration": 13, "velocity": 75}, {"time": 3005, "pitch": 51, "duration": 7, "velocity": 90}, {"time": 3008, "pitch": 63, "duration": 5, "velocity": 85}, {"time": 3011, "pitch": 70, "duration": 10, "velocity": 122}, {"time": 3014, "pitch": 51, "duration": 2, "velocity": 93}, {"time": 3017, "pitch": 67, "duration": 4, "velocity": 41}, {"time": 3020, "pitch": 63, "duration": 3, "velocity": 99}, {"time": 3023, "pitch": 46, "duration": 18, "velocity": 74}, {"time": 3026, "pitch": 53, "duration": 13, "velocity": 63}, {"time": 3029, "pitch": 58, "duration": 7, "velocity": 99}, {"time": 3032, "pitch": 62, "duration": 5, "velocity": 73}, {"time": 3035, "pitch": 70, "duration": 8, "velocity": 117}, {"time": 3038, "pitch": 58, "duration": 2, "velocity": 97}, {"time": 3041, "pitch": 65, "duration": 5, "velocity": 83}, {"time": 3044, "pitch": 62, "duration": 3, "velocity": 95}, {"time": 3047, "pitch": 41, "duration": 16, "velocity": 72}, {"time": 3050, "pitch": 48, "duration": 13, "velocity": 65}, {"time": 3053, "pitch": 53, "duration": 7, "velocity": 86}, {"time": 3056, "pitch": 60, "duration": 7, "velocity": 90}, {"time": 3059, "pitch": 69, "duration": 11, "velocity": 92}, {"time": 3062, "pitch": 53, "duration": 1, "velocity": 72}, {"time": 3065, "pitch": 65, "duration": 5, "velocity": 79}, {"time": 3068, "pitch": 60, "duration": 3, "velocity": 83}, {"time": 3071, "pitch": 39, "duration": 40, "velocity": 70}, {"time": 3074, "pitch": 46, "duration": 36, "velocity": 52}, {"time": 3077, "pitch": 51, "duration": 7, "velocity": 93}, {"time": 3080, "pitch": 63, "duration": 6, "velocity": 86}, {"time": 3083, "pitch": 70, "duration": 5, "velocity": 112}, {"time": 3086, "pitch": 51, "duration": 8, "velocity": 86}, {"time": 3089, "pitch": 67, "duration": 2, "velocity": 63}, {"time": 3089, "pitch": 70, "duration": 2, "velocity": 40}, {"time": 3092, "pitch": 63, "duration": 4, "velocity": 93}, {"time": 3092, "pitch": 67, "duration": 2, "velocity": 83}, {"time": 3092, "pitch": 70, "duration": 4, "velocity": 99}, {"time": 3098, "pitch": 63, "duration": 6, "velocity": 75}, {"time": 3098, "pitch": 67, "duration": 5, "velocity": 69}, {"time": 3098, "pitch": 70, "duration": 6, "velocity": 72}, {"time": 3104, "pitch": 51, "duration": 4, "velocity": 85}, {"time": 3107, "pitch": 63, "duration": 4, "velocity": 96}, {"time": 3107, "pitch": 67, "duration": 3, "velocity": 117}, {"time": 3107, "pitch": 70, "duration": 4, "velocity": 107}, {"time": 3110, "pitch": 51, "duration": 2, "velocity": 96}, {"time": 3113, "pitch": 67, "duration": 2, "velocity": 107}, {"time": 3113, "pitch": 70, "duration": 5, "velocity": 107}, {"time": 3116, "pitch": 63, "duration": 2, "velocity": 107}, {"time": 3116, "pitch": 67, "duration": 1, "velocity": 33}, {"time": 3119, "pitch": 46, "duration": 17, "velocity": 57}, {"time": 3122, "pitch": 53, "duration": 13, "velocity": 67}, {"time": 3125, "pitch": 58, "duration": 7, "velocity": 96}, {"time": 3128, "pitch": 62, "duration": 6, "velocity": 83}, {"time": 3131, "pitch": 70, "duration": 7, "velocity": 117}, {"time": 3134, "pitch": 58, "duration": 1, "velocity": 93}, {"time": 3137, "pitch": 65, "duration": 4, "velocity": 83}, {"time": 3140, "pitch": 62, "duration": 3, "velocity": 93}, {"time": 3143, "pitch": 41, "duration": 22, "velocity": 72}, {"time": 3146, "pitch": 48, "duration": 21, "velocity": 59}, {"time": 3149, "pitch": 53, "duration": 7, "velocity": 86}, {"time": 3152, "pitch": 60, "duration": 9, "velocity": 81}, {"time": 3155, "pitch": 69, "duration": 12, "velocity": 99}, {"time": 3158, "pitch": 53, "duration": 3, "velocity": 73}, {"time": 3161, "pitch": 65, "duration": 5, "velocity": 89}, {"time": 3164, "pitch": 60, "duration": 4, "velocity": 90}, {"time": 3167, "pitch": 43, "duration": 16, "velocity": 72}, {"time": 3170, "pitch": 50, "duration": 13, "velocity": 72}, {"time": 3173, "pitch": 55, "duration": 7, "velocity": 88}, {"time": 3176, "pitch": 62, "duration": 5, "velocity": 93}, {"time": 3179, "pitch": 70, "duration": 12, "velocity": 117}, {"time": 3182, "pitch": 55, "duration": 1, "velocity": 83}, {"time": 3185, "pitch": 67, "duration": 5, "velocity": 64}, {"time": 3188, "pitch": 62, "duration": 3, "velocity": 95}, {"time": 3191, "pitch": 39, "duration": 17, "velocity": 86}, {"time": 3194, "pitch": 46, "duration": 14, "velocity": 50}, {"time": 3197, "pitch": 51, "duration": 7, "velocity": 89}, {"time": 3200, "pitch": 63, "duration": 5, "velocity": 97}, {"time": 3203, "pitch": 70, "duration": 11, "velocity": 100}, {"time": 3206, "pitch": 51, "duration": 4, "velocity": 86}, {"time": 3209, "pitch": 63, "duration": 5, "velocity": 107}, {"time": 3212, "pitch": 67, "duration": 3, "velocity": 72}, {"time": 3215, "pitch": 46, "duration": 19, "velocity": 88}, {"time": 3218, "pitch": 53, "duration": 15, "velocity": 60}, {"time": 3221, "pitch": 58, "duration": 7, "velocity": 93}, {"time": 3224, "pitch": 65, "duration": 4, "velocity": 81}, {"time": 3227, "pitch": 70, "duration": 7, "velocity": 97}, {"time": 3230, "pitch": 58, "duration": 3, "velocity": 90}, {"time": 3233, "pitch": 65, "duration": 5, "velocity": 82}, {"time": 3236, "pitch": 70, "duration": 2, "velocity": 99}, {"time": 3239, "pitch": 41, "duration": 16, "velocity": 39}, {"time": 3242, "pitch": 48, "duration": 13, "velocity": 72}, {"time": 3245, "pitch": 53, "duration": 7, "velocity": 72}, {"time": 3248, "pitch": 60, "duration": 7, "velocity": 76}, {"time": 3251, "pitch": 69, "duration": 12, "velocity": 97}, {"time": 3254, "pitch": 53, "duration": 2, "velocity": 88}, {"time": 3257, "pitch": 65, "duration": 6, "velocity": 74}, {"time": 3260, "pitch": 60, "duration": 3, "velocity": 82}, {"time": 3263, "pitch": 39, "duration": 41, "velocity": 81}, {"time": 3266, "pitch": 46, "duration": 38, "velocity": 56}, {"time": 3269, "pitch": 51, "duration": 7, "velocity": 89}, {"time": 3272, "pitch": 63, "duration": 11, "velocity": 59}, {"time": 3275, "pitch": 67, "duration": 6, "velocity": 66}, {"time": 3275, "pitch": 70, "duration": 7, "velocity": 90}, {"time": 3281, "pitch": 51, "duration": 11, "velocity": 61}, {"time": 3284, "pitch": 63, "duration": 2, "velocity": 72}, {"time": 3284, "pitch": 67, "duration": 1, "velocity": 69}, {"time": 3284, "pitch": 70, "duration": 2, "velocity": 66}, {"time": 3290, "pitch": 63, "duration": 6, "velocity": 75}, {"time": 3290, "pitch": 67, "duration": 4, "velocity": 69}, {"time": 3290, "pitch": 70, "duration": 4, "velocity": 55}, {"time": 3296, "pitch": 51, "duration": 4, "velocity": 66}, {"time": 3299, "pitch": 63, "duration": 4, "velocity": 95}, {"time": 3299, "pitch": 67, "duration": 3, "velocity": 99}, {"time": 3299, "pitch": 70, "duration": 4, "velocity": 89}, {"time": 3302, "pitch": 51, "duration": 3, "velocity": 73}, {"time": 3305, "pitch": 63, "duration": 2, "velocity": 93}, {"time": 3305, "pitch": 67, "duration": 2, "velocity": 102}, {"time": 3305, "pitch": 70, "duration": 3, "velocity": 100}, {"time": 3311, "pitch": 41, "duration": 37, "velocity": 85}, {"time": 3314, "pitch": 48, "duration": 34, "velocity": 96}, {"time": 3317, "pitch": 53, "duration": 8, "velocity": 72}, {"time": 3320, "pitch": 60, "duration": 7, "velocity": 54}, {"time": 3323, "pitch": 65, "duration": 4, "velocity": 77}, {"time": 3323, "pitch": 69, "duration": 4, "velocity": 88}, {"time": 3329, "pitch": 53, "duration": 11, "velocity": 74}, {"time": 3332, "pitch": 60, "duration": 2, "velocity": 67}, {"time": 3332, "pitch": 65, "duration": 2, "velocity": 72}, {"time": 3332, "pitch": 69, "duration": 2, "velocity": 68}, {"time": 3338, "pitch": 65, "duration": 2, "velocity": 70}, {"time": 3338, "pitch": 69, "duration": 2, "velocity": 68}, {"time": 3344, "pitch": 53, "duration": 3, "velocity": 41}, {"time": 3347, "pitch": 60, "duration": 2, "velocity": 78}, {"time": 3347, "pitch": 65, "duration": 2, "velocity": 85}, {"time": 3347, "pitch": 69, "duration": 2, "velocity": 77}, {"time": 3353, "pitch": 60, "duration": 1, "velocity": 83}, {"time": 3353, "pitch": 65, "duration": 1, "velocity": 77}, {"time": 3353, "pitch": 69, "duration": 1, "velocity": 66}, {"time": 3359, "pitch": 39, "duration": 36, "velocity": 85}, {"time": 3359, "pitch": 63, "duration": 11, "velocity": 81}, {"time": 3359, "pitch": 67, "duration": 8, "velocity": 66}, {"time": 3359, "pitch": 70, "duration": 10, "velocity": 75}, {"time": 3365, "pitch": 46, "duration": 29, "velocity": 31}, {"time": 3368, "pitch": 51, "duration": 4, "velocity": 29}, {"time": 3371, "pitch": 63, "duration": 3, "velocity": 85}, {"time": 3371, "pitch": 67, "duration": 2, "velocity": 72}, {"time": 3371, "pitch": 70, "duration": 2, "velocity": 77}, {"time": 3377, "pitch": 51, "duration": 12, "velocity": 52}, {"time": 3380, "pitch": 63, "duration": 1, "velocity": 93}, {"time": 3380, "pitch": 67, "duration": 1, "velocity": 95}, {"time": 3380, "pitch": 70, "duration": 1, "velocity": 89}, {"time": 3386, "pitch": 63, "duration": 1, "velocity": 89}, {"time": 3386, "pitch": 67, "duration": 1, "velocity": 96}, {"time": 3386, "pitch": 70, "duration": 1, "velocity": 81}, {"time": 3392, "pitch": 51, "duration": 3, "velocity": 56}, {"time": 3395, "pitch": 63, "duration": 1, "velocity": 97}, {"time": 3395, "pitch": 67, "duration": 1, "velocity": 102}, {"time": 3395, "pitch": 70, "duration": 1, "velocity": 97}, {"time": 3401, "pitch": 63, "duration": 1, "velocity": 89}, {"time": 3401, "pitch": 70, "duration": 1, "velocity": 79}, {"time": 3407, "pitch": 41, "duration": 40, "velocity": 73}, {"time": 3407, "pitch": 60, "duration": 7, "velocity": 92}, {"time": 3407, "pitch": 65, "duration": 6, "velocity": 90}, {"time": 3407, "pitch": 69, "duration": 6, "velocity": 86}, {"time": 3413, "pitch": 48, "duration": 32, "velocity": 56}, {"time": 3416, "pitch": 53, "duration": 5, "velocity": 46}, {"time": 3419, "pitch": 60, "duration": 2, "velocity": 72}, {"time": 3419, "pitch": 65, "duration": 2, "velocity": 75}, {"time": 3419, "pitch": 69, "duration": 2, "velocity": 69}, {"time": 3425, "pitch": 53, "duration": 6, "velocity": 52}, {"time": 3428, "pitch": 60, "duration": 6, "velocity": 66}, {"time": 3428, "pitch": 65, "duration": 7, "velocity": 66}, {"time": 3434, "pitch": 53, "duration": 5, "velocity": 67}, {"time": 3437, "pitch": 60, "duration": 9, "velocity": 78}, {"time": 3440, "pitch": 53, "duration": 3, "velocity": 72}, {"time": 3443, "pitch": 69, "duration": 12, "velocity": 107}, {"time": 3446, "pitch": 48, "duration": 1, "velocity": 39}, {"time": 3446, "pitch": 53, "duration": 1, "velocity": 72}, {"time": 3449, "pitch": 65, "duration": 6, "velocity": 83}, {"time": 3452, "pitch": 60, "duration": 3, "velocity": 74}, {"time": 3455, "pitch": 39, "duration": 41, "velocity": 81}, {"time": 3458, "pitch": 46, "duration": 38, "velocity": 34}, {"time": 3461, "pitch": 51, "duration": 7, "velocity": 86}, {"time": 3464, "pitch": 63, "duration": 18, "velocity": 57}, {"time": 3467, "pitch": 70, "duration": 3, "velocity": 117}, {"time": 3473, "pitch": 51, "duration": 8, "velocity": 81}, {"time": 3476, "pitch": 67, "duration": 7, "velocity": 67}, {"time": 3476, "pitch": 70, "duration": 10, "velocity": 61}, {"time": 3482, "pitch": 51, "duration": 14, "velocity": 72}, {"time": 3485, "pitch": 63, "duration": 2, "velocity": 44}, {"time": 3491, "pitch": 70, "duration": 3, "velocity": 1}, {"time": 3503, "pitch": 46, "duration": 15, "velocity": 100}, {"time": 3506, "pitch": 53, "duration": 11, "velocity": 65}, {"time": 3509, "pitch": 58, "duration": 7, "velocity": 97}, {"time": 3512, "pitch": 62, "duration": 5, "velocity": 92}, {"time": 3515, "pitch": 70, "duration": 4, "velocity": 127}, {"time": 3518, "pitch": 65, "duration": 4, "velocity": 95}, {"time": 3521, "pitch": 62, "duration": 4, "velocity": 95}, {"time": 3524, "pitch": 65, "duration": 4, "velocity": 69}, {"time": 3527, "pitch": 41, "duration": 22, "velocity": 71}, {"time": 3530, "pitch": 48, "duration": 20, "velocity": 56}, {"time": 3533, "pitch": 53, "duration": 7, "velocity": 90}, {"time": 3536, "pitch": 60, "duration": 6, "velocity": 76}, {"time": 3539, "pitch": 69, "duration": 11, "velocity": 100}, {"time": 3542, "pitch": 53, "duration": 2, "velocity": 86}, {"time": 3545, "pitch": 65, "duration": 5, "velocity": 76}, {"time": 3548, "pitch": 60, "duration": 4, "velocity": 92}, {"time": 3551, "pitch": 43, "duration": 17, "velocity": 79}, {"time": 3554, "pitch": 50, "duration": 14, "velocity": 72}, {"time": 3557, "pitch": 55, "duration": 7, "velocity": 85}, {"time": 3560, "pitch": 62, "duration": 6, "velocity": 82}, {"time": 3563, "pitch": 70, "duration": 11, "velocity": 117}, {"time": 3566, "pitch": 55, "duration": 1, "velocity": 86}, {"time": 3569, "pitch": 67, "duration": 5, "velocity": 62}, {"time": 3572, "pitch": 62, "duration": 3, "velocity": 95}, {"time": 3575, "pitch": 39, "duration": 16, "velocity": 78}, {"time": 3578, "pitch": 46, "duration": 13, "velocity": 75}, {"time": 3581, "pitch": 51, "duration": 7, "velocity": 90}, {"time": 3584, "pitch": 63, "duration": 5, "velocity": 85}, {"time": 3587, "pitch": 70, "duration": 10, "velocity": 122}, {"time": 3590, "pitch": 51, "duration": 2, "velocity": 93}, {"time": 3593, "pitch": 67, "duration": 4, "velocity": 41}, {"time": 3596, "pitch": 63, "duration": 3, "velocity": 99}, {"time": 3599, "pitch": 46, "duration": 18, "velocity": 74}, {"time": 3602, "pitch": 53, "duration": 13, "velocity": 63}, {"time": 3605, "pitch": 58, "duration": 7, "velocity": 99}, {"time": 3608, "pitch": 62, "duration": 5, "velocity": 73}, {"time": 3611, "pitch": 70, "duration": 8, "velocity": 117}, {"time": 3614, "pitch": 58, "duration": 2, "velocity": 97}, {"time": 3617, "pitch": 65, "duration": 5, "velocity": 83}, {"time": 3620, "pitch": 62, "duration": 3, "velocity": 95}, {"time": 3623, "pitch": 41, "duration": 16, "velocity": 72}, {"time": 3626, "pitch": 48, "duration": 13, "velocity": 65}, {"time": 3629, "pitch": 53, "duration": 7, "velocity": 86}, {"time": 3632, "pitch": 60, "duration": 7, "velocity": 90}, {"time": 3635, "pitch": 69, "duration": 11, "velocity": 92}, {"time": 3638, "pitch": 53, "duration": 1, "velocity": 72}, {"time": 3641, "pitch": 65, "duration": 5, "velocity": 79}, {"time": 3644, "pitch": 60, "duration": 3, "velocity": 83}, {"time": 3647, "pitch": 39, "duration": 40, "velocity": 70}, {"time": 3650, "pitch": 46, "duration": 36, "velocity": 52}, {"time": 3653, "pitch": 51, "duration": 7, "velocity": 93}, {"time": 3656, "pitch": 63, "duration": 6, "velocity": 86}, {"time": 3659, "pitch": 70, "duration": 5, "velocity": 112}, {"time": 3662, "pitch": 51, "duration": 8, "velocity": 86}, {"time": 3665, "pitch": 67, "duration": 2, "velocity": 63}, {"time": 3665, "pitch": 70, "duration": 2, "velocity": 40}, {"time": 3668, "pitch": 63, "duration": 4, "velocity": 93}, {"time": 3668, "pitch": 67, "duration": 2, "velocity": 83}, {"time": 3668, "pitch": 70, "duration": 4, "velocity": 99}, {"time": 3674, "pitch": 63, "duration": 6, "velocity": 75}, {"time": 3674, "pitch": 67, "duration": 5, "velocity": 69}, {"time": 3674, "pitch": 70, "duration": 6, "velocity": 72}, {"time": 3680, "pitch": 51, "duration": 4, "velocity": 85}, {"time": 3683, "pitch": 63, "duration": 4, "velocity": 96}, {"time": 3683, "pitch": 67, "duration": 3, "velocity": 117}, {"time": 3683, "pitch": 70, "duration": 4, "velocity": 107}, {"time": 3686, "pitch": 51, "duration": 2, "velocity": 96}, {"time": 3689, "pitch": 67, "duration": 2, "velocity": 107}, {"time": 3689, "pitch": 70, "duration": 5, "velocity": 107}, {"time": 3692, "pitch": 63, "duration": 2, "velocity": 107}, {"time": 3692, "pitch": 67, "duration": 1, "velocity": 33}, {"time": 3695, "pitch": 46, "duration": 17, "velocity": 57}, {"time": 3698, "pitch": 53, "duration": 13, "velocity": 67}, {"time": 3701, "pitch": 58, "duration": 7, "velocity": 96}, {"time": 3704, "pitch": 62, "duration": 6, "velocity": 83}, {"time": 3707, "pitch": 70, "duration": 7, "velocity": 117}, {"time": 3710, "pitch": 58, "duration": 1, "velocity": 93}, {"time": 3713, "pitch": 65, "duration": 4, "velocity": 83}, {"time": 3716, "pitch": 62, "duration": 3, "velocity": 93}, {"time": 3719, "pitch": 41, "duration": 22, "velocity": 72}, {"time": 3722, "pitch": 48, "duration": 21, "velocity": 59}, {"time": 3725, "pitch": 53, "duration": 7, "velocity": 86}, {"time": 3728, "pitch": 60, "duration": 9, "velocity": 81}, {"time": 3731, "pitch": 69, "duration": 12, "velocity": 99}, {"time": 3734, "pitch": 53, "duration": 3, "velocity": 73}, {"time": 3737, "pitch": 65, "duration": 5, "velocity": 89}, {"time": 3740, "pitch": 60, "duration": 4, "velocity": 90}, {"time": 3743, "pitch": 43, "duration": 16, "velocity": 72}, {"time": 3746, "pitch": 50, "duration": 13, "velocity": 72}, {"time": 3749, "pitch": 55, "duration": 7, "velocity": 88}, {"time": 3752, "pitch": 62, "duration": 5, "velocity": 93}, {"time": 3755, "pitch": 70, "duration": 12, "velocity": 117}, {"time": 3758, "pitch": 55, "duration": 1, "velocity": 83}, {"time": 3761, "pitch": 67, "duration": 5, "velocity": 64}, {"time": 3764, "pitch": 62, "duration": 3, "velocity": 95}, {"time": 3767, "pitch": 39, "duration": 17, "velocity": 86}, {"time": 3770, "pitch": 46, "duration": 14, "velocity": 50}, {"time": 3773, "pitch": 51, "duration": 7, "velocity": 89}, {"time": 3776, "pitch": 63, "duration": 5, "velocity": 97}, {"time": 3779, "pitch": 70, "duration": 11, "velocity": 100}, {"time": 3782, "pitch": 51, "duration": 4, "velocity": 86}, {"time": 3785, "pitch": 63, "duration": 5, "velocity": 107}, {"time": 3788, "pitch": 67, "duration": 3, "velocity": 72}, {"time": 3791, "pitch": 46, "duration": 19, "velocity": 88}, {"time": 3794, "pitch": 53, "duration": 15, "velocity": 60}, {"time": 3797, "pitch": 58, "duration": 7, "velocity": 93}, {"time": 3800, "pitch": 65, "duration": 4, "velocity": 81}, {"time": 3803, "pitch": 70, "duration": 7, "velocity": 97}, {"time": 3806, "pitch": 58, "duration": 3, "velocity": 90}, {"time": 3809, "pitch": 65, "duration": 5, "velocity": 82}, {"time": 3812, "pitch": 70, "duration": 2, "velocity": 99}, {"time": 3815, "pitch": 41, "duration": 16, "velocity": 39}, {"time": 3818, "pitch": 48, "duration": 13, "velocity": 72}, {"time": 3821, "pitch": 53, "duration": 7, "velocity": 72}, {"time": 3824, "pitch": 60, "duration": 7, "velocity": 76}, {"time": 3827, "pitch": 69, "duration": 12, "velocity": 97}, {"time": 3830, "pitch": 53, "duration": 2, "velocity": 88}, {"time": 3833, "pitch": 65, "duration": 6, "velocity": 74}, {"time": 3836, "pitch": 60, "duration": 3, "velocity": 82}, {"time": 3839, "pitch": 39, "duration": 41, "velocity": 81}, {"time": 3842, "pitch": 46, "duration": 38, "velocity": 56}, {"time": 3845, "pitch": 51, "duration": 7, "velocity": 89}, {"time": 3848, "pitch": 63, "duration": 11, "velocity": 59}, {"time": 3851, "pitch": 67, "duration": 6, "velocity": 66}, {"time": 3851, "pitch": 70, "duration": 7, "velocity": 90}, {"time": 3857, "pitch": 51, "duration": 11, "velocity": 61}, {"time": 3860, "pitch": 63, "duration": 2, "velocity": 72}, {"time": 3860, "pitch": 67, "duration": 1, "velocity": 69}, {"time": 3860, "pitch": 70, "duration": 2, "velocity": 66}, {"time": 3866, "pitch": 63, "duration": 6, "velocity": 75}, {"time": 3866, "pitch": 67, "duration": 4, "velocity": 69}, {"time": 3866, "pitch": 70, "duration": 4, "velocity": 55}, {"time": 3872, "pitch": 51, "duration": 4, "velocity": 66}, {"time": 3875, "pitch": 63, "duration": 4, "velocity": 95}, {"time": 3875, "pitch": 67, "duration": 3, "velocity": 99}, {"time": 3875, "pitch": 70, "duration": 4, "velocity": 89}, {"time": 3878, "pitch": 51, "duration": 3, "velocity": 73}, {"time": 3881, "pitch": 63, "duration": 2, "velocity": 93}, {"time": 3881, "pitch": 67, "duration": 2, "velocity": 102}, {"time": 3881, "pitch": 70, "duration": 3, "velocity": 100}, {"time": 3887, "pitch": 41, "duration": 37, "velocity": 85}, {"time": 3890, "pitch": 48, "duration": 34, "velocity": 96}, {"time": 3893, "pitch": 53, "duration": 8, "velocity": 72}, {"time": 3896, "pitch": 60, "duration": 7, "velocity": 54}, {"time": 3899, "pitch": 65, "duration": 4, "velocity": 77}, {"time": 3899, "pitch": 69, "duration": 4, "velocity": 88}, {"time": 3905, "pitch": 53, "duration": 11, "velocity": 74}, {"time": 3908, "pitch": 60, "duration": 2, "velocity": 67}, {"time": 3908, "pitch": 65, "duration": 2, "velocity": 72}, {"time": 3908, "pitch": 69, "duration": 2, "velocity": 68}, {"time": 3914, "pitch": 65, "duration": 2, "velocity": 70}, {"time": 3914, "pitch": 69, "duration": 2, "velocity": 68}, {"time": 3920, "pitch": 53, "duration": 3, "velocity": 41}, {"time": 3923, "pitch": 60, "duration": 2, "velocity": 78}, {"time": 3923, "pitch": 65, "duration": 2, "velocity": 85}, {"time": 3923, "pitch": 69, "duration": 2, "velocity": 77}, {"time": 3929, "pitch": 60, "duration": 1, "velocity": 83}, {"time": 3929, "pitch": 65, "duration": 1, "velocity": 77}, {"time": 3929, "pitch": 69, "duration": 1, "velocity": 66}, {"time": 3935, "pitch": 39, "duration": 36, "velocity": 85}, {"time": 3935, "pitch": 63, "duration": 11, "velocity": 81}, {"time": 3935, "pitch": 67, "duration": 8, "velocity": 66}, {"time": 3935, "pitch": 70, "duration": 10, "velocity": 75}, {"time": 3941, "pitch": 46, "duration": 29, "velocity": 31}, {"time": 3944, "pitch": 51, "duration": 4, "velocity": 29}, {"time": 3947, "pitch": 63, "duration": 3, "velocity": 85}, {"time": 3947, "pitch": 67, "duration": 2, "velocity": 72}, {"time": 3947, "pitch": 70, "duration": 2, "velocity": 77}, {"time": 3953, "pitch": 51, "duration": 12, "velocity": 52}, {"time": 3956, "pitch": 63, "duration": 1, "velocity": 93}, {"time": 3956, "pitch": 67, "duration": 1, "velocity": 95}, {"time": 3956, "pitch": 70, "duration": 1, "velocity": 89}, {"time": 3962, "pitch": 63, "duration": 1, "velocity": 89}, {"time": 3962, "pitch": 67, "duration": 1, "velocity": 96}, {"time": 3962, "pitch": 70, "duration": 1, "velocity": 81}, {"time": 3968, "pitch": 51, "duration": 3, "velocity": 56}, {"time": 3971, "pitch": 63, "duration": 1, "velocity": 97}, {"time": 3971, "pitch": 67, "duration": 1, "velocity": 102}, {"time": 3971, "pitch": 70, "duration": 1, "velocity": 97}, {"time": 3977, "pitch": 63, "duration": 1, "velocity": 89}, {"time": 3977, "pitch": 70, "duration": 1, "velocity": 79}, {"time": 3983, "pitch": 41, "duration": 40, "velocity": 73}, {"time": 3983, "pitch": 60, "duration": 7, "velocity": 92}, {"time": 3983, "pitch": 65, "duration": 6, "velocity": 90}, {"time": 3983, "pitch": 69, "duration": 6, "velocity": 86}, {"time": 3989, "pitch": 48, "duration": 32, "velocity": 56}, {"time": 3992, "pitch": 53, "duration": 5, "velocity": 46}, {"time": 3995, "pitch": 60, "duration": 2, "velocity": 72}, {"time": 3995, "pitch": 65, "duration": 2, "velocity": 75}, {"time": 3995, "pitch": 69, "duration": 2, "velocity": 69}, {"time": 4001, "pitch": 53, "duration": 6, "velocity": 52}, {"time": 4004, "pitch": 60, "duration": 6, "velocity": 66}, {"time": 4004, "pitch": 65, "duration": 7, "velocity": 66}, {"time": 4010, "pitch": 53, "duration": 5, "velocity": 67}, {"time": 4013, "pitch": 60, "duration": 9, "velocity": 78}, {"time": 4016, "pitch": 53, "duration": 3, "velocity": 72}, {"time": 4019, "pitch": 69, "duration": 12, "velocity": 107}, {"time": 4022, "pitch": 48, "duration": 1, "velocity": 39}, {"time": 4022, "pitch": 53, "duration": 1, "velocity": 72}, {"time": 4025, "pitch": 65, "duration": 6, "velocity": 83}, {"time": 4028, "pitch": 60, "duration": 3, "velocity": 74}, {"time": 4031, "pitch": 39, "duration": 14, "velocity": 66}, {"time": 4031, "pitch": 51, "duration": 13, "velocity": 74}, {"time": 4031, "pitch": 63, "duration": 10, "velocity": 88}, {"time": 4031, "pitch": 67, "duration": 10, "velocity": 71}, {"time": 4031, "pitch": 70, "duration": 10, "velocity": 82}, {"time": 4037, "pitch": 46, "duration": 6, "velocity": 29}, {"time": 4043, "pitch": 63, "duration": 1, "velocity": 88}, {"time": 4043, "pitch": 67, "duration": 1, "velocity": 74}, {"time": 4043, "pitch": 70, "duration": 1, "velocity": 77}, {"time": 4049, "pitch": 39, "duration": 1, "velocity": 48}, {"time": 4049, "pitch": 46, "duration": 1, "velocity": 46}, {"time": 4049, "pitch": 51, "duration": 1, "velocity": 61}, {"time": 4052, "pitch": 39, "duration": 26, "velocity": 56}, {"time": 4052, "pitch": 46, "duration": 26, "velocity": 77}, {"time": 4052, "pitch": 51, "duration": 26, "velocity": 79}, {"time": 4052, "pitch": 63, "duration": 26, "velocity": 72}, {"time": 4052, "pitch": 67, "duration": 27, "velocity": 59}, {"time": 4052, "pitch": 70, "duration": 27, "velocity": 63}, {"time": 4079, "pitch": 41, "duration": 42, "velocity": 73}, {"time": 4079, "pitch": 65, "duration": 8, "velocity": 68}, {"time": 4079, "pitch": 69, "duration": 8, "velocity": 56}, {"time": 4082, "pitch": 48, "duration": 43, "velocity": 66}, {"time": 4085, "pitch": 53, "duration": 7, "velocity": 77}, {"time": 4088, "pitch": 60, "duration": 4, "velocity": 57}, {"time": 4091, "pitch": 65, "duration": 1, "velocity": 85}, {"time": 4091, "pitch": 69, "duration": 1, "velocity": 82}, {"time": 4097, "pitch": 53, "duration": 11, "velocity": 52}, {"time": 4100, "pitch": 65, "duration": 2, "velocity": 66}, {"time": 4100, "pitch": 69, "duration": 2, "velocity": 59}, {"time": 4106, "pitch": 65, "duration": 3, "velocity": 63}, {"time": 4106, "pitch": 69, "duration": 3, "velocity": 59}, {"time": 4109, "pitch": 60, "duration": 3, "velocity": 33}, {"time": 4112, "pitch": 53, "duration": 5, "velocity": 64}, {"time": 4115, "pitch": 65, "duration": 1, "velocity": 71}, {"time": 4115, "pitch": 69, "duration": 13, "velocity": 75}, {"time": 4118, "pitch": 53, "duration": 3, "velocity": 67}, {"time": 4121, "pitch": 60, "duration": 6, "velocity": 66}, {"time": 4124, "pitch": 65, "duration": 3, "velocity": 62}, {"time": 4127, "pitch": 43, "duration": 39, "velocity": 60}, {"time": 4130, "pitch": 50, "duration": 35, "velocity": 75}, {"time": 4133, "pitch": 55, "duration": 7, "velocity": 66}, {"time": 4136, "pitch": 62, "duration": 5, "velocity": 53}, {"time": 4139, "pitch": 67, "duration": 3, "velocity": 73}, {"time": 4139, "pitch": 70, "duration": 6, "velocity": 88}, {"time": 4145, "pitch": 55, "duration": 10, "velocity": 66}, {"time": 4148, "pitch": 67, "duration": 4, "velocity": 78}, {"time": 4148, "pitch": 70, "duration": 4, "velocity": 79}, {"time": 4154, "pitch": 67, "duration": 7, "velocity": 81}, {"time": 4154, "pitch": 70, "duration": 7, "velocity": 96}, {"time": 4157, "pitch": 62, "duration": 4, "velocity": 52}, {"time": 4160, "pitch": 55, "duration": 3, "velocity": 85}, {"time": 4163, "pitch": 67, "duration": 7, "velocity": 93}, {"time": 4163, "pitch": 70, "duration": 11, "velocity": 95}, {"time": 4169, "pitch": 62, "duration": 6, "velocity": 72}, {"time": 4172, "pitch": 67, "duration": 3, "velocity": 71}, {"time": 4175, "pitch": 41, "duration": 40, "velocity": 62}, {"time": 4178, "pitch": 48, "duration": 37, "velocity": 61}, {"time": 4181, "pitch": 53, "duration": 8, "velocity": 74}, {"time": 4184, "pitch": 60, "duration": 4, "velocity": 74}, {"time": 4187, "pitch": 65, "duration": 6, "velocity": 82}, {"time": 4187, "pitch": 69, "duration": 6, "velocity": 76}, {"time": 4193, "pitch": 53, "duration": 12, "velocity": 76}, {"time": 4196, "pitch": 65, "duration": 2, "velocity": 71}, {"time": 4196, "pitch": 69, "duration": 2, "velocity": 70}, {"time": 4202, "pitch": 65, "duration": 7, "velocity": 78}, {"time": 4202, "pitch": 69, "duration": 7, "velocity": 74}, {"time": 4205, "pitch": 60, "duration": 5, "velocity": 60}, {"time": 4208, "pitch": 53, "duration": 4, "velocity": 78}, {"time": 4211, "pitch": 69, "duration": 12, "velocity": 89}, {"time": 4214, "pitch": 53, "duration": 1, "velocity": 77}, {"time": 4217, "pitch": 60, "duration": 6, "velocity": 82}, {"time": 4220, "pitch": 65, "duration": 2, "velocity": 60}, {"time": 4223, "pitch": 39, "duration": 40, "velocity": 74}, {"time": 4226, "pitch": 46, "duration": 36, "velocity": 32}, {"time": 4229, "pitch": 51, "duration": 7, "velocity": 81}, {"time": 4232, "pitch": 55, "duration": 4, "velocity": 67}, {"time": 4235, "pitch": 58, "duration": 1, "velocity": 90}, {"time": 4235, "pitch": 63, "duration": 2, "velocity": 99}, {"time": 4241, "pitch": 51, "duration": 5, "velocity": 68}, {"time": 4244, "pitch": 58, "duration": 1, "velocity": 79}, {"time": 4244, "pitch": 63, "duration": 1, "velocity": 96}, {"time": 4250, "pitch": 51, "duration": 10, "velocity": 63}, {"time": 4256, "pitch": 63, "duration": 2, "velocity": 71}, {"time": 4256, "pitch": 67, "duration": 1, "velocity": 61}, {"time": 4256, "pitch": 70, "duration": 1, "velocity": 40}, {"time": 4259, "pitch": 63, "duration": 3, "velocity": 85}, {"time": 4259, "pitch": 67, "duration": 3, "velocity": 92}, {"time": 4259, "pitch": 70, "duration": 4, "velocity": 93}, {"time": 4262, "pitch": 51, "duration": 2, "velocity": 85}, {"time": 4265, "pitch": 63, "duration": 5, "velocity": 88}, {"time": 4268, "pitch": 67, "duration": 2, "velocity": 66}, {"time": 4268, "pitch": 70, "duration": 2, "velocity": 72}, {"time": 4271, "pitch": 41, "duration": 43, "velocity": 69}, {"time": 4274, "pitch": 48, "duration": 43, "velocity": 58}, {"time": 4277, "pitch": 53, "duration": 9, "velocity": 72}, {"time": 4280, "pitch": 60, "duration": 6, "velocity": 69}, {"time": 4283, "pitch": 65, "duration": 2, "velocity": 83}, {"time": 4283, "pitch": 69, "duration": 2, "velocity": 82}, {"time": 4289, "pitch": 53, "duration": 13, "velocity": 63}, {"time": 4292, "pitch": 60, "duration": 2, "velocity": 66}, {"time": 4292, "pitch": 65, "duration": 1, "velocity": 70}, {"time": 4292, "pitch": 69, "duration": 2, "velocity": 74}, {"time": 4298, "pitch": 65, "duration": 7, "velocity": 76}, {"time": 4298, "pitch": 69, "duration": 6, "velocity": 72}, {"time": 4301, "pitch": 60, "duration": 5, "velocity": 55}, {"time": 4304, "pitch": 53, "duration": 4, "velocity": 71}, {"time": 4307, "pitch": 65, "duration": 7, "velocity": 74}, {"time": 4307, "pitch": 69, "duration": 12, "velocity": 74}, {"time": 4310, "pitch": 53, "duration": 2, "velocity": 74}, {"time": 4313, "pitch": 60, "duration": 6, "velocity": 76}, {"time": 4316, "pitch": 65, "duration": 2, "velocity": 67}, {"time": 4319, "pitch": 43, "duration": 39, "velocity": 59}, {"time": 4322, "pitch": 50, "duration": 35, "velocity": 71}, {"time": 4325, "pitch": 55, "duration": 8, "velocity": 82}, {"time": 4328, "pitch": 62, "duration": 5, "velocity": 71}, {"time": 4331, "pitch": 67, "duration": 1, "velocity": 79}, {"time": 4331, "pitch": 70, "duration": 1, "velocity": 92}, {"time": 4337, "pitch": 55, "duration": 12, "velocity": 62}, {"time": 4340, "pitch": 62, "duration": 2, "velocity": 71}, {"time": 4340, "pitch": 67, "duration": 1, "velocity": 81}, {"time": 4340, "pitch": 70, "duration": 2, "velocity": 76}, {"time": 4346, "pitch": 67, "duration": 5, "velocity": 85}, {"time": 4346, "pitch": 70, "duration": 5, "velocity": 85}, {"time": 4349, "pitch": 62, "duration": 7, "velocity": 71}, {"time": 4352, "pitch": 55, "duration": 3, "velocity": 72}, {"time": 4355, "pitch": 70, "duration": 12, "velocity": 93}, {"time": 4358, "pitch": 67, "duration": 3, "velocity": 46}, {"time": 4361, "pitch": 62, "duration": 6, "velocity": 72}, {"time": 4364, "pitch": 67, "duration": 3, "velocity": 65}, {"time": 4367, "pitch": 41, "duration": 35, "velocity": 69}, {"time": 4370, "pitch": 48, "duration": 32, "velocity": 49}, {"time": 4373, "pitch": 53, "duration": 9, "velocity": 71}, {"time": 4376, "pitch": 60, "duration": 7, "velocity": 66}, {"time": 4379, "pitch": 65, "duration": 3, "velocity": 75}, {"time": 4379, "pitch": 69, "duration": 3, "velocity": 77}, {"time": 4385, "pitch": 53, "duration": 11, "velocity": 69}, {"time": 4388, "pitch": 60, "duration": 2, "velocity": 72}, {"time": 4388, "pitch": 65, "duration": 2, "velocity": 72}, {"time": 4388, "pitch": 69, "duration": 2, "velocity": 68}, {"time": 4394, "pitch": 60, "duration": 1, "velocity": 69}, {"time": 4394, "pitch": 65, "duration": 1, "velocity": 73}, {"time": 4394, "pitch": 69, "duration": 1, "velocity": 65}, {"time": 4400, "pitch": 53, "duration": 2, "velocity": 67}, {"time": 4403, "pitch": 65, "duration": 6, "velocity": 79}, {"time": 4403, "pitch": 69, "duration": 7, "velocity": 75}, {"time": 4409, "pitch": 60, "duration": 1, "velocity": 69}, {"time": 4415, "pitch": 39, "duration": 20, "velocity": 83}, {"time": 4415, "pitch": 63, "duration": 7, "velocity": 53}, {"time": 4415, "pitch": 67, "duration": 6, "velocity": 56}, {"time": 4415, "pitch": 70, "duration": 7, "velocity": 55}, {"time": 4421, "pitch": 46, "duration": 14, "velocity": 42}, {"time": 4427, "pitch": 63, "duration": 7, "velocity": 68}, {"time": 4427, "pitch": 67, "duration": 6, "velocity": 57}, {"time": 4427, "pitch": 70, "duration": 6, "velocity": 57}, {"time": 4433, "pitch": 51, "duration": 1, "velocity": 34}, {"time": 4436, "pitch": 39, "duration": 50, "velocity": 59}, {"time": 4436, "pitch": 46, "duration": 49, "velocity": 62}, {"time": 4436, "pitch": 51, "duration": 50, "velocity": 63}, {"time": 4436, "pitch": 63, "duration": 50, "velocity": 73}, {"time": 4436, "pitch": 67, "duration": 50, "velocity": 69}, {"time": 4436, "pitch": 70, "duration": 50, "velocity": 71}], "annotations": [{"time": 48, "annotation": {"number": 64, "value": 127}, "group": "control_change"}, {"time": 93, "annotation": {"number": 64, "value": 0}, "group": "control_change"}, {"time": 95, "annotation": {"number": 64, "value": 127}, "group": "control_change"}, {"time": 98, "annotation": {"number": 64, "value": 0}, "group": "control_change"}, {"time": 107, "annotation": {"number": 64, "value": 127}, "group": "control_change"}, {"time": 112, "annotation": {"number": 64, "value": 0}, "group": "control_change"}, {"time": 117, "annotation": {"number": 64, "value": 127}, "group": "control_change"}, {"time": 124, "annotation": {"number": 64, "value": 0}, "group": "control_change"}, {"time": 143, "annotation": {"number": 64, "value": 127}, "group": "control_change"}, {"time": 187, "annotation": {"number": 64, "value": 0}, "group": "control_change"}, {"time": 191, "annotation": {"number": 64, "value": 127}, "group": "control_change"}, {"time": 201, "annotation": {"number": 64, "value": 0}, "group": "control_change"}, {"time": 203, "annotation": {"number": 64, "value": 127}, "group": "control_change"}, {"time": 237, "annotation": {"number": 64, "value": 0}, "group": "control_change"}, {"time": 240, "annotation": {"number": 64, "value": 127}, "group": "control_change"}, {"time": 250, "annotation": {"number": 64, "value": 0}, "group": "control_change"}, {"time": 253, "annotation": {"number": 64, "value": 127}, "group": "control_change"}, {"time": 285, "annotation": {"number": 64, "value": 0}, "group": "control_change"}, {"time": 287, "annotation": {"number": 64, "value": 127}, "group": "control_change"}, {"time": 290, "annotation": {"number": 64, "value": 0}, "group": "control_change"}, {"time": 299, "annotation": {"number": 64, "value": 127}, "group": "control_change"}, {"time": 304, "annotation": {"number": 64, "value": 0}, "group": "control_change"}, {"time": 309, "annotation": {"number": 64, "value": 127}, "group": "control_change"}, {"time": 316, "annotation": {"number": 64, "value": 0}, "group": "control_change"}, {"time": 335, "annotation": {"number": 64, "value": 127}, "group": "control_change"}, {"time": 379, "annotation": {"number": 64, "value": 0}, "group": "control_change"}, {"time": 383, "annotation": {"number": 64, "value": 127}, "group": "control_change"}, {"time": 386, "annotation": {"number": 64, "value": 0}, "group": "control_change"}, {"time": 395, "annotation": {"number": 64, "value": 127}, "group": "control_change"}, {"time": 400, "annotation": {"number": 64, "value": 0}, "group": "control_change"}, {"time": 405, "annotation": {"number": 64, "value": 127}, "group": "control_change"}, {"time": 412, "annotation": {"number": 64, "value": 0}, "group": "control_change"}, {"time": 431, "annotation": {"number": 64, "value": 127}, "group": "control_change"}, {"time": 442, "annotation": {"number": 64, "value": 0}, "group": "control_change"}, {"time": 442, "annotation": {"number": 64, "value": 127}, "group": "control_change"}, {"time": 477, "annotation": {"number": 64, "value": 0}, "group": "control_change"}, {"time": 479, "annotation": {"number": 64, "value": 127}, "group": "control_change"}, {"time": 525, "annotation": {"number": 64, "value": 0}, "group": "control_change"}, {"time": 526, "annotation": {"number": 64, "value": 127}, "group": "control_change"}, {"time": 547, "annotation": {"number": 64, "value": 0}, "group": "control_change"}, {"time": 548, "annotation": {"number": 64, "value": 127}, "group": "control_change"}, {"time": 551, "annotation": {"number": 64, "value": 0}, "group": "control_change"}, {"time": 551, "annotation": {"number": 64, "value": 127}, "group": "control_change"}, {"time": 573, "annotation": {"number": 64, "value": 0}, "group": "control_change"}, {"time": 574, "annotation": {"number": 64, "value": 127}, "group": "control_change"}, {"time": 586, "annotation": {"number": 64, "value": 0}, "group": "control_change"}, {"time": 586, "annotation": {"number": 64, "value": 127}, "group": "control_change"}, {"time": 621, "annotation": {"number": 64, "value": 0}, "group": "control_change"}, {"time": 623, "annotation": {"number": 64, "value": 127}, "group": "control_change"}, {"time": 669, "annotation": {"number": 64, "value": 0}, "group": "control_change"}, {"time": 670, "annotation": {"number": 64, "value": 127}, "group": "control_change"}, {"time": 717, "annotation": {"number": 64, "value": 0}, "group": "control_change"}, {"time": 719, "annotation": {"number": 64, "value": 127}, "group": "control_change"}, {"time": 765, "annotation": {"number": 64, "value": 0}, "group": "control_change"}, {"time": 766, "annotation": {"number": 64, "value": 127}, "group": "control_change"}, {"time": 767, "annotation": {"number": 64, "value": 127}, "group": "control_change"}, {"time": 786, "annotation": {"number": 64, "value": 0}, "group": "control_change"}, {"time": 815, "annotation": {"number": 64, "value": 127}, "group": "control_change"}, {"time": 861, "annotation": {"number": 64, "value": 0}, "group": "control_change"}, {"time": 863, "annotation": {"number": 64, "value": 127}, "group": "control_change"}, {"time": 909, "annotation": {"number": 64, "value": 0}, "group": "control_change"}, {"time": 911, "annotation": {"number": 64, "value": 127}, "group": "control_change"}, {"time": 958, "annotation": {"number": 64, "value": 0}, "group": "control_change"}, {"time": 959, "annotation": {"number": 64, "value": 127}, "group": "control_change"}, {"time": 1005, "annotation": {"number": 64, "value": 0}, "group": "control_change"}, {"time": 1006, "annotation": {"number": 64, "value": 127}, "group": "control_change"}, {"time": 1052, "annotation": {"number": 64, "value": 0}, "group": "control_change"}, {"time": 1054, "annotation": {"number": 64, "value": 127}, "group": "control_change"}, {"time": 1101, "annotation": {"number": 64, "value": 0}, "group": "control_change"}, {"time": 1103, "annotation": {"number": 64, "value": 127}, "group": "control_change"}, {"time": 1149, "annotation": {"number": 64, "value": 0}, "group": "control_change"}, {"time": 1151, "annotation": {"number": 64, "value": 127}, "group": "control_change"}, {"time": 1172, "annotation": {"number": 64, "value": 0}, "group": "control_change"}, {"time": 1245, "annotation": {"number": 64, "value": 0}, "group": "control_change"}, {"time": 1247, "annotation": {"number": 64, "value": 127}, "group": "control_change"}, {"time": 1293, "annotation": {"number": 64, "value": 0}, "group": "control_change"}, {"time": 1295, "annotation": {"number": 64, "value": 127}, "group": "control_change"}, {"time": 1342, "annotation": {"number": 64, "value": 0}, "group": "control_change"}, {"time": 1343, "annotation": {"number": 64, "value": 127}, "group": "control_change"}, {"time": 1389, "annotation": {"number": 64, "value": 0}, "group": "control_change"}, {"time": 1390, "annotation": {"number": 64, "value": 127}, "group": "control_change"}, {"time": 1436, "annotation": {"number": 64, "value": 0}, "group": "control_change"}, {"time": 1438, "annotation": {"number": 64, "value": 127}, "group": "control_change"}, {"time": 1485, "annotation": {"number": 64, "value": 0}, "group": "control_change"}, {"time": 1487, "annotation": {"number": 64, "value": 127}, "group": "control_change"}, {"time": 1533, "annotation": {"number": 64, "value": 0}, "group": "control_change"}, {"time": 1535, "annotation": {"number": 64, "value": 127}, "group": "control_change"}, {"time": 1581, "annotation": {"number": 64, "value": 127}, "group": "control_change"}, {"time": 1581, "annotation": {"number": 64, "value": 0}, "group": "control_change"}, {"time": 1583, "annotation": {"number": 64, "value": 127}, "group": "control_change"}, {"time": 1605, "annotation": {"number": 64, "value": 0}, "group": "control_change"}, {"time": 1607, "annotation": {"number": 64, "value": 127}, "group": "control_change"}, {"time": 1629, "annotation": {"number": 64, "value": 0}, "group": "control_change"}, {"time": 1630, "annotation": {"number": 64, "value": 127}, "group": "control_change"}, {"time": 1654, "annotation": {"number": 64, "value": 0}, "group": "control_change"}, {"time": 1655, "annotation": {"number": 64, "value": 127}, "group": "control_change"}, {"time": 1677, "annotation": {"number": 64, "value": 0}, "group": "control_change"}, {"time": 1679, "annotation": {"number": 64, "value": 127}, "group": "control_change"}, {"time": 1701, "annotation": {"number": 64, "value": 0}, "group": "control_change"}, {"time": 1703, "annotation": {"number": 64, "value": 127}, "group": "control_change"}, {"time": 1725, "annotation": {"number": 64, "value": 0}, "group": "control_change"}, {"time": 1727, "annotation": {"number": 64, "value": 127}, "group": "control_change"}, {"time": 1749, "annotation": {"number": 64, "value": 0}, "group": "control_change"}, {"time": 1750, "annotation": {"number": 64, "value": 127}, "group": "control_change"}, {"time": 1773, "annotation": {"number": 64, "value": 0}, "group": "control_change"}, {"time": 1775, "annotation": {"number": 64, "value": 127}, "group": "control_change"}, {"time": 1798, "annotation": {"number": 64, "value": 0}, "group": "control_change"}, {"time": 1799, "annotation": {"number": 64, "value": 127}, "group": "control_change"}, {"time": 1821, "annotation": {"number": 64, "value": 0}, "group": "control_change"}, {"time": 1823, "annotation": {"number": 64, "value": 127}, "group": "control_change"}, {"time": 1846, "annotation": {"number": 64, "value": 0}, "group": "control_change"}, {"time": 1847, "annotation": {"number": 64, "value": 127}, "group": "control_change"}, {"time": 1870, "annotation": {"number": 64, "value": 0}, "group": "control_change"}, {"time": 1872, "annotation": {"number": 64, "value": 127}, "group": "control_change"}, {"time": 1894, "annotation": {"number": 64, "value": 0}, "group": "control_change"}, {"time": 1895, "annotation": {"number": 64, "value": 127}, "group": "control_change"}, {"time": 1917, "annotation": {"number": 64, "value": 0}, "group": "control_change"}, {"time": 1919, "annotation": {"number": 64, "value": 127}, "group": "control_change"}, {"time": 1967, "annotation": {"number": 64, "value": 0}, "group": "control_change"}, {"time": 1968, "annotation": {"number": 64, "value": 127}, "group": "control_change"}, {"time": 2013, "annotation": {"number": 64, "value": 0}, "group": "control_change"}, {"time": 2015, "annotation": {"number": 64, "value": 127}, "group": "control_change"}, {"time": 2061, "annotation": {"number": 64, "value": 0}, "group": "control_change"}, {"time": 2062, "annotation": {"number": 64, "value": 127}, "group": "control_change"}, {"time": 2109, "annotation": {"number": 64, "value": 0}, "group": "control_change"}, {"time": 2111, "annotation": {"number": 64, "value": 127}, "group": "control_change"}, {"time": 2157, "annotation": {"number": 64, "value": 0}, "group": "control_change"}, {"time": 2160, "annotation": {"number": 64, "value": 127}, "group": "control_change"}, {"time": 2205, "annotation": {"number": 64, "value": 0}, "group": "control_change"}, {"time": 2207, "annotation": {"number": 64, "value": 127}, "group": "control_change"}, {"time": 2253, "annotation": {"number": 64, "value": 0}, "group": "control_change"}, {"time": 2254, "annotation": {"number": 64, "value": 127}, "group": "control_change"}, {"time": 2301, "annotation": {"number": 64, "value": 0}, "group": "control_change"}, {"time": 2302, "annotation": {"number": 64, "value": 127}, "group": "control_change"}, {"time": 2349, "annotation": {"number": 64, "value": 0}, "group": "control_change"}, {"time": 2350, "annotation": {"number": 64, "value": 127}, "group": "control_change"}, {"time": 2396, "annotation": {"number": 64, "value": 0}, "group": "control_change"}, {"time": 2398, "annotation": {"number": 64, "value": 127}, "group": "control_change"}, {"time": 2445, "annotation": {"number": 64, "value": 0}, "group": "control_change"}, {"time": 2446, "annotation": {"number": 64, "value": 127}, "group": "control_change"}, {"time": 2493, "annotation": {"number": 64, "value": 0}, "group": "control_change"}, {"time": 2495, "annotation": {"number": 64, "value": 127}, "group": "control_change"}, {"time": 2537, "annotation": {"number": 64, "value": 0}, "group": "control_change"}, {"time": 2589, "annotation": {"number": 64, "value": 0}, "group": "control_change"}, {"time": 2591, "annotation": {"number": 64, "value": 127}, "group": "control_change"}, {"time": 2637, "annotation": {"number": 64, "value": 0}, "group": "control_change"}, {"time": 2639, "annotation": {"number": 64, "value": 127}, "group": "control_change"}, {"time": 2686, "annotation": {"number": 64, "value": 0}, "group": "control_change"}, {"time": 2687, "annotation": {"number": 64, "value": 127}, "group": "control_change"}, {"time": 2733, "annotation": {"number": 64, "value": 0}, "group": "control_change"}, {"time": 2734, "annotation": {"number": 64, "value": 127}, "group": "control_change"}, {"time": 2780, "annotation": {"number": 64, "value": 0}, "group": "control_change"}, {"time": 2782, "annotation": {"number": 64, "value": 127}, "group": "control_change"}, {"time": 2829, "annotation": {"number": 64, "value": 0}, "group": "control_change"}, {"time": 2831, "annotation": {"number": 64, "value": 127}, "group": "control_change"}, {"time": 2877, "annotation": {"number": 64, "value": 0}, "group": "control_change"}, {"time": 2879, "annotation": {"number": 64, "value": 127}, "group": "control_change"}, {"time": 2925, "annotation": {"number": 64, "value": 127}, "group": "control_change"}, {"time": 2925, "annotation": {"number": 64, "value": 0}, "group": "control_change"}, {"time": 2927, "annotation": {"number": 64, "value": 127}, "group": "control_change"}, {"time": 2949, "annotation": {"number": 64, "value": 0}, "group": "control_change"}, {"time": 2951, "annotation": {"number": 64, "value": 127}, "group": "control_change"}, {"time": 2973, "annotation": {"number": 64, "value": 0}, "group": "control_change"}, {"time": 2974, "annotation": {"number": 64, "value": 127}, "group": "control_change"}, {"time": 2998, "annotation": {"number": 64, "value": 0}, "group": "control_change"}, {"time": 2999, "annotation": {"number": 64, "value": 127}, "group": "control_change"}, {"time": 3021, "annotation": {"number": 64, "value": 0}, "group": "control_change"}, {"time": 3023, "annotation": {"number": 64, "value": 127}, "group": "control_change"}, {"time": 3045, "annotation": {"number": 64, "value": 0}, "group": "control_change"}, {"time": 3047, "annotation": {"number": 64, "value": 127}, "group": "control_change"}, {"time": 3069, "annotation": {"number": 64, "value": 0}, "group": "control_change"}, {"time": 3071, "annotation": {"number": 64, "value": 127}, "group": "control_change"}, {"time": 3093, "annotation": {"number": 64, "value": 0}, "group": "control_change"}, {"time": 3094, "annotation": {"number": 64, "value": 127}, "group": "control_change"}, {"time": 3117, "annotation": {"number": 64, "value": 0}, "group": "control_change"}, {"time": 3119, "annotation": {"number": 64, "value": 127}, "group": "control_change"}, {"time": 3142, "annotation": {"number": 64, "value": 0}, "group": "control_change"}, {"time": 3143, "annotation": {"number": 64, "value": 127}, "group": "control_change"}, {"time": 3165, "annotation": {"number": 64, "value": 0}, "group": "control_change"}, {"time": 3167, "annotation": {"number": 64, "value": 127}, "group": "control_change"}, {"time": 3190, "annotation": {"number": 64, "value": 0}, "group": "control_change"}, {"time": 3191, "annotation": {"number": 64, "value": 127}, "group": "control_change"}, {"time": 3214, "annotation": {"number": 64, "value": 0}, "group": "control_change"}, {"time": 3216, "annotation": {"number": 64, "value": 127}, "group": "control_change"}, {"time": 3238, "annotation": {"number": 64, "value": 0}, "group": "control_change"}, {"time": 3239, "annotation": {"number": 64, "value": 127}, "group": "control_change"}, {"time": 3261, "annotation": {"number": 64, "value": 0}, "group": "control_change"}, {"time": 3263, "annotation": {"number": 64, "value": 127}, "group": "control_change"}, {"time": 3311, "annotation": {"number": 64, "value": 0}, "group": "control_change"}, {"time": 3312, "annotation": {"number": 64, "value": 127}, "group": "control_change"}, {"time": 3357, "annotation": {"number": 64, "value": 0}, "group": "control_change"}, {"time": 3359, "annotation": {"number": 64, "value": 127}, "group": "control_change"}, {"time": 3405, "annotation": {"number": 64, "value": 0}, "group": "control_change"}, {"time": 3406, "annotation": {"number": 64, "value": 127}, "group": "control_change"}, {"time": 3453, "annotation": {"number": 64, "value": 0}, "group": "control_change"}, {"time": 3455, "annotation": {"number": 64, "value": 127}, "group": "control_change"}, {"time": 3501, "annotation": {"number": 64, "value": 0}, "group": "control_change"}, {"time": 3503, "annotation": {"number": 64, "value": 127}, "group": "control_change"}, {"time": 3525, "annotation": {"number": 64, "value": 0}, "group": "control_change"}, {"time": 3527, "annotation": {"number": 64, "value": 127}, "group": "control_change"}, {"time": 3549, "annotation": {"number": 64, "value": 0}, "group": "control_change"}, {"time": 3550, "annotation": {"number": 64, "value": 127}, "group": "control_change"}, {"time": 3574, "annotation": {"number": 64, "value": 0}, "group": "control_change"}, {"time": 3575, "annotation": {"number": 64, "value": 127}, "group": "control_change"}, {"time": 3597, "annotation": {"number": 64, "value": 0}, "group": "control_change"}, {"time": 3599, "annotation": {"number": 64, "value": 127}, "group": "control_change"}, {"time": 3621, "annotation": {"number": 64, "value": 0}, "group": "control_change"}, {"time": 3623, "annotation": {"number": 64, "value": 127}, "group": "control_change"}, {"time": 3645, "annotation": {"number": 64, "value": 0}, "group": "control_change"}, {"time": 3647, "annotation": {"number": 64, "value": 127}, "group": "control_change"}, {"time": 3669, "annotation": {"number": 64, "value": 0}, "group": "control_change"}, {"time": 3670, "annotation": {"number": 64, "value": 127}, "group": "control_change"}, {"time": 3693, "annotation": {"number": 64, "value": 0}, "group": "control_change"}, {"time": 3695, "annotation": {"number": 64, "value": 127}, "group": "control_change"}, {"time": 3718, "annotation": {"number": 64, "value": 0}, "group": "control_change"}, {"time": 3719, "annotation": {"number": 64, "value": 127}, "group": "control_change"}, {"time": 3741, "annotation": {"number": 64, "value": 0}, "group": "control_change"}, {"time": 3743, "annotation": {"number": 64, "value": 127}, "group": "control_change"}, {"time": 3766, "annotation": {"number": 64, "value": 0}, "group": "control_change"}, {"time": 3767, "annotation": {"number": 64, "value": 127}, "group": "control_change"}, {"time": 3790, "annotation": {"number": 64, "value": 0}, "group": "control_change"}, {"time": 3792, "annotation": {"number": 64, "value": 127}, "group": "control_change"}, {"time": 3814, "annotation": {"number": 64, "value": 0}, "group": "control_change"}, {"time": 3815, "annotation": {"number": 64, "value": 127}, "group": "control_change"}, {"time": 3837, "annotation": {"number": 64, "value": 0}, "group": "control_change"}, {"time": 3839, "annotation": {"number": 64, "value": 127}, "group": "control_change"}, {"time": 3887, "annotation": {"number": 64, "value": 0}, "group": "control_change"}, {"time": 3888, "annotation": {"number": 64, "value": 127}, "group": "control_change"}, {"time": 3933, "annotation": {"number": 64, "value": 0}, "group": "control_change"}, {"time": 3935, "annotation": {"number": 64, "value": 127}, "group": "control_change"}, {"time": 3981, "annotation": {"number": 64, "value": 0}, "group": "control_change"}, {"time": 3982, "annotation": {"number": 64, "value": 127}, "group": "control_change"}, {"time": 4029, "annotation": {"number": 64, "value": 0}, "group": "control_change"}, {"time": 4031, "annotation": {"number": 64, "value": 127}, "group": "control_change"}, {"time": 4051, "annotation": {"number": 64, "value": 0}, "group": "control_change"}, {"time": 4066, "annotation": {"number": 64, "value": 127}, "group": "control_change"}, {"time": 4072, "annotation": {"number": 64, "value": 0}, "group": "control_change"}, {"time": 4079, "annotation": {"number": 64, "value": 127}, "group": "control_change"}, {"time": 4125, "annotation": {"number": 64, "value": 0}, "group": "control_change"}, {"time": 4126, "annotation": {"number": 64, "value": 127}, "group": "control_change"}, {"time": 4173, "annotation": {"number": 64, "value": 0}, "group": "control_change"}, {"time": 4175, "annotation": {"number": 64, "value": 127}, "group": "control_change"}, {"time": 4269, "annotation": {"number": 64, "value": 0}, "group": "control_change"}, {"time": 4270, "annotation": {"number": 64, "value": 127}, "group": "control_change"}, {"time": 4317, "annotation": {"number": 64, "value": 0}, "group": "control_change"}, {"time": 4319, "annotation": {"number": 64, "value": 127}, "group": "control_change"}, {"time": 4365, "annotation": {"number": 64, "value": 0}, "group": "control_change"}, {"time": 4366, "annotation": {"number": 64, "value": 127}, "group": "control_change"}, {"time": 4369, "annotation": {"number": 64, "value": 0}, "group": "control_change"}, {"time": 4370, "annotation": {"number": 64, "value": 127}, "group": "control_change"}, {"time": 4434, "annotation": {"number": 64, "value": 0}, "group": "control_change"}, {"time": 4477, "annotation": {"number": 64, "value": 127}, "group": "control_change"}, {"time": 4506, "annotation": {"number": 64, "value": 0}, "group": "control_change"}, {"time": 4507, "annotation": {"number": 64, "value": 127}, "group": "control_change"}, {"time": 4508, "annotation": {"number": 64, "value": 0}, "group": "control_change"}, {"time": 4509, "annotation": {"number": 64, "value": 127}, "group": "control_change"}, {"time": 4510, "annotation": {"number": 64, "value": 0}, "group": "control_change"}]}]}