{"metadata": {"schema_version": "0.2", "title": "None", "source_filename": "482.mid", "source_format": "midi"}, "resolution": 12, "tempos": [{"time": 0, "qpm": 89.00004005001803}], "time_signatures": [{"time": 0, "numerator": 1, "denominator": 4}], "tracks": [{"program": 0, "is_drum": false, "name": "MELODY", "notes": [{"time": 423, "pitch": 58, "duration": 5, "velocity": 83}, {"time": 429, "pitch": 63, "duration": 4, "velocity": 82}, {"time": 435, "pitch": 63, "duration": 10, "velocity": 90}, {"time": 447, "pitch": 65, "duration": 9, "velocity": 86}, {"time": 459, "pitch": 65, "duration": 9, "velocity": 83}, {"time": 471, "pitch": 65, "duration": 5, "velocity": 75}, {"time": 477, "pitch": 70, "duration": 6, "velocity": 97}, {"time": 483, "pitch": 67, "duration": 10, "velocity": 76}, {"time": 489, "pitch": 65, "duration": 5, "velocity": 81}, {"time": 495, "pitch": 63, "duration": 16, "velocity": 58}, {"time": 525, "pitch": 58, "duration": 4, "velocity": 73}, {"time": 531, "pitch": 63, "duration": 4, "velocity": 82}, {"time": 537, "pitch": 63, "duration": 8, "velocity": 88}, {"time": 549, "pitch": 63, "duration": 7, "velocity": 58}, {"time": 555, "pitch": 65, "duration": 7, "velocity": 66}, {"time": 564, "pitch": 65, "duration": 10, "velocity": 66}, {"time": 573, "pitch": 68, "duration": 10, "velocity": 90}, {"time": 585, "pitch": 67, "duration": 15, "velocity": 79}, {"time": 615, "pitch": 58, "duration": 6, "velocity": 62}, {"time": 621, "pitch": 63, "duration": 4, "velocity": 75}, {"time": 627, "pitch": 63, "duration": 10, "velocity": 79}, {"time": 639, "pitch": 63, "duration": 5, "velocity": 63}, {"time": 645, "pitch": 65, "duration": 4, "velocity": 69}, {"time": 651, "pitch": 65, "duration": 10, "velocity": 78}, {"time": 663, "pitch": 65, "duration": 4, "velocity": 77}, {"time": 669, "pitch": 70, "duration": 5, "velocity": 72}, {"time": 675, "pitch": 67, "duration": 4, "velocity": 59}, {"time": 681, "pitch": 67, "duration": 4, "velocity": 27}, {"time": 687, "pitch": 63, "duration": 17, "velocity": 72}, {"time": 717, "pitch": 67, "duration": 3, "velocity": 86}, {"time": 720, "pitch": 70, "duration": 3, "velocity": 77}, {"time": 723, "pitch": 72, "duration": 8, "velocity": 85}, {"time": 732, "pitch": 72, "duration": 6, "velocity": 90}, {"time": 741, "pitch": 75, "duration": 8, "velocity": 92}, {"time": 753, "pitch": 75, "duration": 3, "velocity": 92}, {"time": 759, "pitch": 75, "duration": 4, "velocity": 100}, {"time": 765, "pitch": 75, "duration": 4, "velocity": 90}, {"time": 771, "pitch": 72, "duration": 9, "velocity": 81}, {"time": 780, "pitch": 70, "duration": 16, "velocity": 74}, {"time": 807, "pitch": 70, "duration": 4, "velocity": 89}, {"time": 813, "pitch": 77, "duration": 10, "velocity": 96}, {"time": 825, "pitch": 75, "duration": 20, "velocity": 92}, {"time": 855, "pitch": 63, "duration": 4, "velocity": 85}, {"time": 861, "pitch": 72, "duration": 11, "velocity": 78}, {"time": 873, "pitch": 70, "duration": 19, "velocity": 83}, {"time": 903, "pitch": 58, "duration": 7, "velocity": 79}, {"time": 909, "pitch": 67, "duration": 6, "velocity": 69}, {"time": 915, "pitch": 65, "duration": 15, "velocity": 69}, {"time": 933, "pitch": 65, "duration": 3, "velocity": 79}, {"time": 939, "pitch": 65, "duration": 10, "velocity": 79}, {"time": 957, "pitch": 63, "duration": 5, "velocity": 86}, {"time": 963, "pitch": 62, "duration": 8, "velocity": 67}, {"time": 969, "pitch": 60, "duration": 23, "velocity": 66}, {"time": 999, "pitch": 70, "duration": 5, "velocity": 99}, {"time": 1005, "pitch": 77, "duration": 7, "velocity": 97}, {"time": 1017, "pitch": 75, "duration": 16, "velocity": 107}, {"time": 1047, "pitch": 63, "duration": 7, "velocity": 90}, {"time": 1053, "pitch": 72, "duration": 12, "velocity": 70}, {"time": 1065, "pitch": 70, "duration": 23, "velocity": 73}, {"time": 1095, "pitch": 58, "duration": 8, "velocity": 79}, {"time": 1101, "pitch": 67, "duration": 7, "velocity": 67}, {"time": 1107, "pitch": 65, "duration": 17, "velocity": 65}, {"time": 1125, "pitch": 65, "duration": 4, "velocity": 72}, {"time": 1131, "pitch": 65, "duration": 14, "velocity": 88}, {"time": 1143, "pitch": 63, "duration": 5, "velocity": 93}, {"time": 1149, "pitch": 65, "duration": 6, "velocity": 66}, {"time": 1155, "pitch": 63, "duration": 32, "velocity": 67}, {"time": 1191, "pitch": 58, "duration": 4, "velocity": 86}, {"time": 1197, "pitch": 63, "duration": 3, "velocity": 71}, {"time": 1203, "pitch": 63, "duration": 10, "velocity": 85}, {"time": 1215, "pitch": 63, "duration": 6, "velocity": 81}, {"time": 1221, "pitch": 65, "duration": 3, "velocity": 81}, {"time": 1227, "pitch": 65, "duration": 9, "velocity": 90}, {"time": 1239, "pitch": 65, "duration": 5, "velocity": 93}, {"time": 1245, "pitch": 70, "duration": 5, "velocity": 92}, {"time": 1251, "pitch": 67, "duration": 5, "velocity": 88}, {"time": 1257, "pitch": 65, "duration": 7, "velocity": 75}, {"time": 1263, "pitch": 63, "duration": 14, "velocity": 90}, {"time": 1293, "pitch": 58, "duration": 6, "velocity": 64}, {"time": 1299, "pitch": 63, "duration": 5, "velocity": 89}, {"time": 1305, "pitch": 63, "duration": 8, "velocity": 89}, {"time": 1317, "pitch": 63, "duration": 6, "velocity": 75}, {"time": 1323, "pitch": 65, "duration": 5, "velocity": 85}, {"time": 1329, "pitch": 65, "duration": 9, "velocity": 88}, {"time": 1341, "pitch": 67, "duration": 6, "velocity": 65}, {"time": 1347, "pitch": 68, "duration": 8, "velocity": 86}, {"time": 1353, "pitch": 67, "duration": 26, "velocity": 77}, {"time": 1383, "pitch": 58, "duration": 6, "velocity": 82}, {"time": 1389, "pitch": 63, "duration": 4, "velocity": 78}, {"time": 1395, "pitch": 63, "duration": 10, "velocity": 89}, {"time": 1407, "pitch": 63, "duration": 5, "velocity": 92}, {"time": 1413, "pitch": 65, "duration": 5, "velocity": 75}, {"time": 1419, "pitch": 65, "duration": 8, "velocity": 90}, {"time": 1431, "pitch": 65, "duration": 6, "velocity": 70}, {"time": 1437, "pitch": 70, "duration": 6, "velocity": 88}, {"time": 1443, "pitch": 67, "duration": 6, "velocity": 74}, {"time": 1449, "pitch": 65, "duration": 7, "velocity": 68}, {"time": 1455, "pitch": 63, "duration": 18, "velocity": 82}, {"time": 1485, "pitch": 67, "duration": 3, "velocity": 76}, {"time": 1488, "pitch": 70, "duration": 3, "velocity": 83}, {"time": 1491, "pitch": 72, "duration": 7, "velocity": 85}, {"time": 1500, "pitch": 72, "duration": 6, "velocity": 77}, {"time": 1509, "pitch": 75, "duration": 7, "velocity": 96}, {"time": 1521, "pitch": 75, "duration": 3, "velocity": 97}, {"time": 1527, "pitch": 75, "duration": 2, "velocity": 93}, {"time": 1533, "pitch": 75, "duration": 9, "velocity": 89}, {"time": 1545, "pitch": 72, "duration": 6, "velocity": 88}, {"time": 1551, "pitch": 70, "duration": 18, "velocity": 95}, {"time": 1575, "pitch": 70, "duration": 5, "velocity": 99}, {"time": 1581, "pitch": 77, "duration": 7, "velocity": 97}, {"time": 1593, "pitch": 75, "duration": 16, "velocity": 107}, {"time": 1623, "pitch": 63, "duration": 7, "velocity": 90}, {"time": 1629, "pitch": 72, "duration": 12, "velocity": 70}, {"time": 1641, "pitch": 70, "duration": 23, "velocity": 73}, {"time": 1671, "pitch": 58, "duration": 8, "velocity": 79}, {"time": 1677, "pitch": 67, "duration": 7, "velocity": 67}, {"time": 1683, "pitch": 65, "duration": 17, "velocity": 65}, {"time": 1701, "pitch": 65, "duration": 4, "velocity": 72}, {"time": 1707, "pitch": 65, "duration": 14, "velocity": 88}, {"time": 1725, "pitch": 63, "duration": 6, "velocity": 99}, {"time": 1731, "pitch": 62, "duration": 6, "velocity": 71}, {"time": 1737, "pitch": 60, "duration": 21, "velocity": 79}, {"time": 1767, "pitch": 70, "duration": 5, "velocity": 99}, {"time": 1773, "pitch": 77, "duration": 7, "velocity": 97}, {"time": 1785, "pitch": 75, "duration": 16, "velocity": 107}, {"time": 1815, "pitch": 63, "duration": 7, "velocity": 90}, {"time": 1821, "pitch": 72, "duration": 12, "velocity": 70}, {"time": 1833, "pitch": 70, "duration": 23, "velocity": 73}, {"time": 1863, "pitch": 58, "duration": 8, "velocity": 79}, {"time": 1869, "pitch": 67, "duration": 7, "velocity": 67}, {"time": 1875, "pitch": 65, "duration": 17, "velocity": 65}, {"time": 1893, "pitch": 65, "duration": 4, "velocity": 72}, {"time": 1899, "pitch": 65, "duration": 14, "velocity": 88}, {"time": 1911, "pitch": 63, "duration": 5, "velocity": 93}, {"time": 1917, "pitch": 65, "duration": 6, "velocity": 66}, {"time": 1923, "pitch": 63, "duration": 32, "velocity": 67}, {"time": 1971, "pitch": 67, "duration": 27, "velocity": 112}, {"time": 2004, "pitch": 67, "duration": 3, "velocity": 100}, {"time": 2007, "pitch": 65, "duration": 5, "velocity": 95}, {"time": 2013, "pitch": 63, "duration": 5, "velocity": 93}, {"time": 2019, "pitch": 65, "duration": 6, "velocity": 95}, {"time": 2025, "pitch": 70, "duration": 2, "velocity": 112}, {"time": 2031, "pitch": 70, "duration": 15, "velocity": 122}, {"time": 2055, "pitch": 72, "duration": 5, "velocity": 97}, {"time": 2061, "pitch": 74, "duration": 4, "velocity": 100}, {"time": 2067, "pitch": 75, "duration": 15, "velocity": 122}, {"time": 2097, "pitch": 75, "duration": 6, "velocity": 102}, {"time": 2109, "pitch": 74, "duration": 5, "velocity": 112}, {"time": 2115, "pitch": 72, "duration": 5, "velocity": 100}, {"time": 2121, "pitch": 67, "duration": 15, "velocity": 96}, {"time": 2145, "pitch": 70, "duration": 1, "velocity": 82}, {"time": 2148, "pitch": 70, "duration": 1, "velocity": 78}, {"time": 2151, "pitch": 70, "duration": 3, "velocity": 77}, {"time": 2157, "pitch": 77, "duration": 9, "velocity": 102}, {"time": 2169, "pitch": 75, "duration": 19, "velocity": 99}, {"time": 2193, "pitch": 63, "duration": 1, "velocity": 90}, {"time": 2196, "pitch": 63, "duration": 1, "velocity": 75}, {"time": 2199, "pitch": 63, "duration": 2, "velocity": 117}, {"time": 2205, "pitch": 72, "duration": 10, "velocity": 107}, {"time": 2217, "pitch": 70, "duration": 17, "velocity": 97}, {"time": 2247, "pitch": 68, "duration": 5, "velocity": 107}, {"time": 2253, "pitch": 67, "duration": 5, "velocity": 88}, {"time": 2259, "pitch": 65, "duration": 23, "velocity": 102}, {"time": 2289, "pitch": 65, "duration": 4, "velocity": 102}, {"time": 2295, "pitch": 67, "duration": 7, "velocity": 97}, {"time": 2301, "pitch": 65, "duration": 2, "velocity": 72}, {"time": 2307, "pitch": 65, "duration": 24, "velocity": 100}, {"time": 2355, "pitch": 67, "duration": 27, "velocity": 112}, {"time": 2385, "pitch": 67, "duration": 1, "velocity": 107}, {"time": 2388, "pitch": 67, "duration": 3, "velocity": 100}, {"time": 2391, "pitch": 65, "duration": 5, "velocity": 95}, {"time": 2397, "pitch": 63, "duration": 5, "velocity": 93}, {"time": 2403, "pitch": 65, "duration": 6, "velocity": 95}, {"time": 2409, "pitch": 70, "duration": 2, "velocity": 112}, {"time": 2415, "pitch": 70, "duration": 15, "velocity": 122}, {"time": 2439, "pitch": 72, "duration": 5, "velocity": 97}, {"time": 2445, "pitch": 74, "duration": 4, "velocity": 100}, {"time": 2451, "pitch": 75, "duration": 24, "velocity": 122}, {"time": 2481, "pitch": 75, "duration": 6, "velocity": 102}, {"time": 2493, "pitch": 74, "duration": 5, "velocity": 112}, {"time": 2499, "pitch": 72, "duration": 5, "velocity": 100}, {"time": 2505, "pitch": 70, "duration": 2, "velocity": 112}, {"time": 2511, "pitch": 67, "duration": 10, "velocity": 100}, {"time": 2529, "pitch": 70, "duration": 1, "velocity": 82}, {"time": 2532, "pitch": 70, "duration": 1, "velocity": 78}, {"time": 2535, "pitch": 70, "duration": 3, "velocity": 77}, {"time": 2541, "pitch": 77, "duration": 9, "velocity": 102}, {"time": 2553, "pitch": 75, "duration": 19, "velocity": 99}, {"time": 2577, "pitch": 63, "duration": 1, "velocity": 90}, {"time": 2580, "pitch": 63, "duration": 1, "velocity": 75}, {"time": 2583, "pitch": 63, "duration": 2, "velocity": 117}, {"time": 2589, "pitch": 72, "duration": 10, "velocity": 107}, {"time": 2601, "pitch": 70, "duration": 30, "velocity": 97}, {"time": 2631, "pitch": 68, "duration": 5, "velocity": 107}, {"time": 2637, "pitch": 67, "duration": 5, "velocity": 88}, {"time": 2643, "pitch": 65, "duration": 17, "velocity": 102}, {"time": 2661, "pitch": 65, "duration": 3, "velocity": 102}, {"time": 2667, "pitch": 65, "duration": 7, "velocity": 97}, {"time": 2679, "pitch": 63, "duration": 6, "velocity": 100}, {"time": 2685, "pitch": 65, "duration": 6, "velocity": 97}, {"time": 2691, "pitch": 63, "duration": 33, "velocity": 102}, {"time": 2727, "pitch": 58, "duration": 3, "velocity": 117}, {"time": 2733, "pitch": 63, "duration": 2, "velocity": 99}, {"time": 2739, "pitch": 63, "duration": 8, "velocity": 96}, {"time": 2751, "pitch": 63, "duration": 6, "velocity": 102}, {"time": 2760, "pitch": 65, "duration": 1, "velocity": 89}, {"time": 2763, "pitch": 65, "duration": 9, "velocity": 97}, {"time": 2775, "pitch": 70, "duration": 4, "velocity": 117}, {"time": 2784, "pitch": 67, "duration": 1, "velocity": 92}, {"time": 2787, "pitch": 67, "duration": 4, "velocity": 83}, {"time": 2793, "pitch": 63, "duration": 16, "velocity": 95}, {"time": 2823, "pitch": 58, "duration": 6, "velocity": 96}, {"time": 2835, "pitch": 63, "duration": 8, "velocity": 117}, {"time": 2847, "pitch": 63, "duration": 5, "velocity": 97}, {"time": 2856, "pitch": 63, "duration": 2, "velocity": 99}, {"time": 2859, "pitch": 65, "duration": 7, "velocity": 97}, {"time": 2871, "pitch": 67, "duration": 4, "velocity": 107}, {"time": 2880, "pitch": 68, "duration": 3, "velocity": 99}, {"time": 2883, "pitch": 67, "duration": 36, "velocity": 89}, {"time": 2919, "pitch": 58, "duration": 6, "velocity": 96}, {"time": 2931, "pitch": 63, "duration": 8, "velocity": 117}, {"time": 2943, "pitch": 63, "duration": 5, "velocity": 97}, {"time": 2952, "pitch": 63, "duration": 2, "velocity": 99}, {"time": 2955, "pitch": 65, "duration": 7, "velocity": 97}, {"time": 2967, "pitch": 70, "duration": 4, "velocity": 97}, {"time": 2976, "pitch": 67, "duration": 1, "velocity": 95}, {"time": 2979, "pitch": 67, "duration": 3, "velocity": 85}, {"time": 2985, "pitch": 63, "duration": 18, "velocity": 97}, {"time": 3015, "pitch": 67, "duration": 5, "velocity": 102}, {"time": 3021, "pitch": 70, "duration": 5, "velocity": 100}, {"time": 3027, "pitch": 72, "duration": 6, "velocity": 112}, {"time": 3039, "pitch": 72, "duration": 5, "velocity": 107}, {"time": 3045, "pitch": 75, "duration": 1, "velocity": 107}, {"time": 3051, "pitch": 75, "duration": 6, "velocity": 112}, {"time": 3063, "pitch": 75, "duration": 7, "velocity": 107}, {"time": 3072, "pitch": 72, "duration": 2, "velocity": 102}, {"time": 3075, "pitch": 74, "duration": 3, "velocity": 112}, {"time": 3081, "pitch": 70, "duration": 21, "velocity": 102}, {"time": 3111, "pitch": 70, "duration": 5, "velocity": 99}, {"time": 3117, "pitch": 77, "duration": 7, "velocity": 97}, {"time": 3129, "pitch": 75, "duration": 16, "velocity": 107}, {"time": 3159, "pitch": 63, "duration": 7, "velocity": 90}, {"time": 3165, "pitch": 72, "duration": 12, "velocity": 70}, {"time": 3177, "pitch": 70, "duration": 23, "velocity": 73}, {"time": 3207, "pitch": 58, "duration": 8, "velocity": 79}, {"time": 3213, "pitch": 67, "duration": 7, "velocity": 67}, {"time": 3219, "pitch": 65, "duration": 17, "velocity": 65}, {"time": 3237, "pitch": 65, "duration": 4, "velocity": 72}, {"time": 3243, "pitch": 65, "duration": 14, "velocity": 88}, {"time": 3261, "pitch": 63, "duration": 6, "velocity": 99}, {"time": 3267, "pitch": 62, "duration": 6, "velocity": 71}, {"time": 3273, "pitch": 60, "duration": 21, "velocity": 79}, {"time": 3303, "pitch": 70, "duration": 5, "velocity": 99}, {"time": 3309, "pitch": 77, "duration": 7, "velocity": 97}, {"time": 3321, "pitch": 75, "duration": 16, "velocity": 107}, {"time": 3351, "pitch": 63, "duration": 7, "velocity": 90}, {"time": 3357, "pitch": 72, "duration": 12, "velocity": 70}, {"time": 3369, "pitch": 70, "duration": 23, "velocity": 73}, {"time": 3399, "pitch": 58, "duration": 8, "velocity": 79}, {"time": 3405, "pitch": 67, "duration": 7, "velocity": 67}, {"time": 3411, "pitch": 65, "duration": 17, "velocity": 65}, {"time": 3429, "pitch": 65, "duration": 4, "velocity": 72}, {"time": 3435, "pitch": 65, "duration": 14, "velocity": 88}, {"time": 3447, "pitch": 63, "duration": 5, "velocity": 93}, {"time": 3453, "pitch": 65, "duration": 6, "velocity": 66}, {"time": 3459, "pitch": 63, "duration": 32, "velocity": 67}, {"time": 3507, "pitch": 67, "duration": 27, "velocity": 112}, {"time": 3540, "pitch": 67, "duration": 3, "velocity": 100}, {"time": 3543, "pitch": 65, "duration": 5, "velocity": 95}, {"time": 3549, "pitch": 63, "duration": 5, "velocity": 93}, {"time": 3555, "pitch": 65, "duration": 6, "velocity": 95}, {"time": 3561, "pitch": 70, "duration": 2, "velocity": 112}, {"time": 3567, "pitch": 70, "duration": 15, "velocity": 122}, {"time": 3591, "pitch": 72, "duration": 5, "velocity": 97}, {"time": 3597, "pitch": 74, "duration": 4, "velocity": 100}, {"time": 3603, "pitch": 75, "duration": 15, "velocity": 122}, {"time": 3633, "pitch": 75, "duration": 6, "velocity": 102}, {"time": 3645, "pitch": 74, "duration": 5, "velocity": 112}, {"time": 3651, "pitch": 72, "duration": 5, "velocity": 100}, {"time": 3657, "pitch": 67, "duration": 15, "velocity": 96}, {"time": 3681, "pitch": 70, "duration": 1, "velocity": 82}, {"time": 3684, "pitch": 70, "duration": 1, "velocity": 78}, {"time": 3687, "pitch": 70, "duration": 3, "velocity": 77}, {"time": 3693, "pitch": 77, "duration": 9, "velocity": 102}, {"time": 3705, "pitch": 75, "duration": 19, "velocity": 99}, {"time": 3729, "pitch": 63, "duration": 1, "velocity": 90}, {"time": 3732, "pitch": 63, "duration": 1, "velocity": 75}, {"time": 3735, "pitch": 63, "duration": 2, "velocity": 117}, {"time": 3741, "pitch": 72, "duration": 10, "velocity": 107}, {"time": 3753, "pitch": 70, "duration": 17, "velocity": 97}, {"time": 3783, "pitch": 68, "duration": 5, "velocity": 107}, {"time": 3789, "pitch": 67, "duration": 5, "velocity": 88}, {"time": 3795, "pitch": 65, "duration": 23, "velocity": 102}, {"time": 3825, "pitch": 65, "duration": 4, "velocity": 102}, {"time": 3831, "pitch": 67, "duration": 7, "velocity": 97}, {"time": 3837, "pitch": 65, "duration": 2, "velocity": 72}, {"time": 3843, "pitch": 65, "duration": 24, "velocity": 100}, {"time": 3891, "pitch": 67, "duration": 27, "velocity": 112}, {"time": 3921, "pitch": 67, "duration": 1, "velocity": 107}, {"time": 3924, "pitch": 67, "duration": 3, "velocity": 100}, {"time": 3927, "pitch": 65, "duration": 5, "velocity": 95}, {"time": 3933, "pitch": 63, "duration": 5, "velocity": 93}, {"time": 3939, "pitch": 65, "duration": 6, "velocity": 95}, {"time": 3945, "pitch": 70, "duration": 2, "velocity": 112}, {"time": 3951, "pitch": 70, "duration": 15, "velocity": 122}, {"time": 3975, "pitch": 72, "duration": 5, "velocity": 97}, {"time": 3981, "pitch": 74, "duration": 4, "velocity": 100}, {"time": 3987, "pitch": 75, "duration": 24, "velocity": 122}, {"time": 4017, "pitch": 75, "duration": 6, "velocity": 102}, {"time": 4029, "pitch": 74, "duration": 5, "velocity": 112}, {"time": 4035, "pitch": 72, "duration": 5, "velocity": 100}, {"time": 4041, "pitch": 70, "duration": 2, "velocity": 112}, {"time": 4047, "pitch": 67, "duration": 10, "velocity": 100}, {"time": 4065, "pitch": 70, "duration": 1, "velocity": 82}, {"time": 4068, "pitch": 70, "duration": 1, "velocity": 78}, {"time": 4071, "pitch": 70, "duration": 3, "velocity": 77}, {"time": 4077, "pitch": 77, "duration": 9, "velocity": 102}, {"time": 4089, "pitch": 75, "duration": 19, "velocity": 99}, {"time": 4113, "pitch": 63, "duration": 1, "velocity": 90}, {"time": 4116, "pitch": 63, "duration": 1, "velocity": 75}, {"time": 4119, "pitch": 63, "duration": 2, "velocity": 117}, {"time": 4125, "pitch": 72, "duration": 10, "velocity": 107}, {"time": 4137, "pitch": 70, "duration": 30, "velocity": 97}, {"time": 4167, "pitch": 58, "duration": 5, "velocity": 107}, {"time": 4173, "pitch": 67, "duration": 5, "velocity": 88}, {"time": 4179, "pitch": 65, "duration": 17, "velocity": 102}, {"time": 4197, "pitch": 65, "duration": 3, "velocity": 102}, {"time": 4203, "pitch": 65, "duration": 7, "velocity": 97}, {"time": 4215, "pitch": 63, "duration": 6, "velocity": 100}, {"time": 4221, "pitch": 65, "duration": 6, "velocity": 97}, {"time": 4227, "pitch": 63, "duration": 33, "velocity": 102}, {"time": 4257, "pitch": 70, "duration": 1, "velocity": 112}, {"time": 4260, "pitch": 70, "duration": 1, "velocity": 93}, {"time": 4263, "pitch": 70, "duration": 2, "velocity": 107}, {"time": 4269, "pitch": 77, "duration": 7, "velocity": 100}, {"time": 4281, "pitch": 75, "duration": 13, "velocity": 112}, {"time": 4305, "pitch": 63, "duration": 1, "velocity": 99}, {"time": 4308, "pitch": 63, "duration": 1, "velocity": 72}, {"time": 4311, "pitch": 63, "duration": 2, "velocity": 71}, {"time": 4317, "pitch": 72, "duration": 9, "velocity": 102}, {"time": 4329, "pitch": 70, "duration": 18, "velocity": 107}, {"time": 4359, "pitch": 58, "duration": 5, "velocity": 112}, {"time": 4365, "pitch": 67, "duration": 6, "velocity": 100}, {"time": 4374, "pitch": 65, "duration": 15, "velocity": 127}, {"time": 4395, "pitch": 65, "duration": 5, "velocity": 107}, {"time": 4403, "pitch": 65, "duration": 26, "velocity": 112}, {"time": 4427, "pitch": 63, "duration": 10, "velocity": 102}, {"time": 4437, "pitch": 65, "duration": 21, "velocity": 82}, {"time": 4458, "pitch": 63, "duration": 77, "velocity": 97}]}, {"program": 0, "is_drum": false, "name": "BRIDGE", "notes": [{"time": 3, "pitch": 67, "duration": 26, "velocity": 99}, {"time": 33, "pitch": 68, "duration": 3, "velocity": 127}, {"time": 36, "pitch": 67, "duration": 2, "velocity": 89}, {"time": 39, "pitch": 65, "duration": 5, "velocity": 100}, {"time": 45, "pitch": 63, "duration": 5, "velocity": 88}, {"time": 51, "pitch": 65, "duration": 13, "velocity": 99}, {"time": 63, "pitch": 70, "duration": 4, "velocity": 112}, {"time": 69, "pitch": 70, "duration": 15, "velocity": 122}, {"time": 87, "pitch": 72, "duration": 5, "velocity": 96}, {"time": 93, "pitch": 74, "duration": 5, "velocity": 90}, {"time": 99, "pitch": 75, "duration": 14, "velocity": 100}, {"time": 117, "pitch": 75, "duration": 1, "velocity": 112}, {"time": 120, "pitch": 75, "duration": 1, "velocity": 85}, {"time": 123, "pitch": 75, "duration": 2, "velocity": 99}, {"time": 129, "pitch": 75, "duration": 5, "velocity": 112}, {"time": 135, "pitch": 74, "duration": 5, "velocity": 100}, {"time": 144, "pitch": 70, "duration": 3, "velocity": 90}, {"time": 147, "pitch": 67, "duration": 6, "velocity": 85}, {"time": 153, "pitch": 70, "duration": 1, "velocity": 93}, {"time": 159, "pitch": 70, "duration": 7, "velocity": 107}, {"time": 168, "pitch": 68, "duration": 2, "velocity": 83}, {"time": 171, "pitch": 67, "duration": 12, "velocity": 67}, {"time": 177, "pitch": 70, "duration": 3, "velocity": 85}, {"time": 183, "pitch": 70, "duration": 4, "velocity": 93}, {"time": 189, "pitch": 77, "duration": 5, "velocity": 97}, {"time": 195, "pitch": 75, "duration": 22, "velocity": 99}, {"time": 225, "pitch": 63, "duration": 4, "velocity": 99}, {"time": 231, "pitch": 63, "duration": 3, "velocity": 93}, {"time": 237, "pitch": 72, "duration": 4, "velocity": 90}, {"time": 243, "pitch": 70, "duration": 23, "velocity": 100}, {"time": 273, "pitch": 58, "duration": 4, "velocity": 83}, {"time": 279, "pitch": 63, "duration": 4, "velocity": 102}, {"time": 285, "pitch": 67, "duration": 4, "velocity": 95}, {"time": 291, "pitch": 65, "duration": 12, "velocity": 112}, {"time": 321, "pitch": 58, "duration": 4, "velocity": 92}, {"time": 327, "pitch": 60, "duration": 4, "velocity": 88}, {"time": 333, "pitch": 65, "duration": 5, "velocity": 93}, {"time": 339, "pitch": 63, "duration": 48, "velocity": 72}, {"time": 1359, "pitch": 72, "duration": 11, "velocity": 127}, {"time": 1371, "pitch": 70, "duration": 24, "velocity": 102}, {"time": 1455, "pitch": 58, "duration": 11, "velocity": 100}, {"time": 1467, "pitch": 70, "duration": 23, "velocity": 92}, {"time": 1599, "pitch": 84, "duration": 9, "velocity": 102}, {"time": 1611, "pitch": 79, "duration": 10, "velocity": 90}, {"time": 1623, "pitch": 77, "duration": 5, "velocity": 82}, {"time": 1629, "pitch": 75, "duration": 6, "velocity": 75}, {"time": 1635, "pitch": 74, "duration": 29, "velocity": 89}, {"time": 1665, "pitch": 75, "duration": 5, "velocity": 97}, {"time": 1671, "pitch": 77, "duration": 6, "velocity": 83}, {"time": 1677, "pitch": 70, "duration": 5, "velocity": 70}, {"time": 1683, "pitch": 72, "duration": 24, "velocity": 83}, {"time": 1743, "pitch": 72, "duration": 6, "velocity": 100}, {"time": 1749, "pitch": 75, "duration": 6, "velocity": 83}, {"time": 1755, "pitch": 77, "duration": 6, "velocity": 92}, {"time": 1761, "pitch": 79, "duration": 7, "velocity": 79}, {"time": 1767, "pitch": 82, "duration": 7, "velocity": 95}, {"time": 1773, "pitch": 87, "duration": 6, "velocity": 102}, {"time": 1779, "pitch": 84, "duration": 33, "velocity": 93}, {"time": 1959, "pitch": 75, "duration": 3, "velocity": 112}, {"time": 1962, "pitch": 70, "duration": 4, "velocity": 75}, {"time": 1965, "pitch": 75, "duration": 3, "velocity": 107}, {"time": 1968, "pitch": 77, "duration": 4, "velocity": 86}, {"time": 1971, "pitch": 79, "duration": 33, "velocity": 85}, {"time": 2175, "pitch": 72, "duration": 1, "velocity": 100}, {"time": 2175, "pitch": 75, "duration": 1, "velocity": 99}, {"time": 2181, "pitch": 72, "duration": 1, "velocity": 93}, {"time": 2181, "pitch": 75, "duration": 1, "velocity": 92}, {"time": 2187, "pitch": 72, "duration": 17, "velocity": 100}, {"time": 2187, "pitch": 75, "duration": 17, "velocity": 107}, {"time": 2223, "pitch": 75, "duration": 1, "velocity": 89}, {"time": 2223, "pitch": 79, "duration": 1, "velocity": 78}, {"time": 2229, "pitch": 75, "duration": 1, "velocity": 100}, {"time": 2229, "pitch": 79, "duration": 1, "velocity": 75}, {"time": 2235, "pitch": 75, "duration": 17, "velocity": 99}, {"time": 2235, "pitch": 79, "duration": 18, "velocity": 82}, {"time": 2307, "pitch": 70, "duration": 36, "velocity": 112}, {"time": 2307, "pitch": 74, "duration": 37, "velocity": 85}, {"time": 2409, "pitch": 70, "duration": 1, "velocity": 102}, {"time": 2409, "pitch": 74, "duration": 1, "velocity": 88}, {"time": 2415, "pitch": 70, "duration": 33, "velocity": 117}, {"time": 2415, "pitch": 74, "duration": 33, "velocity": 93}, {"time": 2553, "pitch": 75, "duration": 1, "velocity": 107}, {"time": 2553, "pitch": 79, "duration": 1, "velocity": 83}, {"time": 2559, "pitch": 75, "duration": 1, "velocity": 99}, {"time": 2559, "pitch": 79, "duration": 1, "velocity": 76}, {"time": 2565, "pitch": 75, "duration": 1, "velocity": 102}, {"time": 2565, "pitch": 79, "duration": 1, "velocity": 83}, {"time": 2571, "pitch": 75, "duration": 19, "velocity": 112}, {"time": 2571, "pitch": 79, "duration": 19, "velocity": 88}, {"time": 2739, "pitch": 67, "duration": 23, "velocity": 99}, {"time": 2763, "pitch": 65, "duration": 21, "velocity": 97}, {"time": 2787, "pitch": 67, "duration": 12, "velocity": 100}, {"time": 2799, "pitch": 72, "duration": 7, "velocity": 92}, {"time": 2808, "pitch": 70, "duration": 1, "velocity": 93}, {"time": 2811, "pitch": 70, "duration": 23, "velocity": 107}, {"time": 2835, "pitch": 68, "duration": 22, "velocity": 117}, {"time": 2859, "pitch": 65, "duration": 19, "velocity": 99}, {"time": 2883, "pitch": 67, "duration": 11, "velocity": 100}, {"time": 2895, "pitch": 72, "duration": 7, "velocity": 102}, {"time": 2904, "pitch": 70, "duration": 1, "velocity": 117}, {"time": 2907, "pitch": 70, "duration": 22, "velocity": 112}, {"time": 2931, "pitch": 67, "duration": 22, "velocity": 102}, {"time": 2955, "pitch": 65, "duration": 22, "velocity": 88}, {"time": 2979, "pitch": 67, "duration": 8, "velocity": 97}, {"time": 2985, "pitch": 67, "duration": 2, "velocity": 90}, {"time": 2991, "pitch": 72, "duration": 7, "velocity": 102}, {"time": 3000, "pitch": 70, "duration": 1, "velocity": 102}, {"time": 3003, "pitch": 70, "duration": 22, "velocity": 117}, {"time": 3015, "pitch": 67, "duration": 7, "velocity": 100}, {"time": 3021, "pitch": 70, "duration": 4, "velocity": 102}, {"time": 3027, "pitch": 72, "duration": 24, "velocity": 122}, {"time": 3051, "pitch": 75, "duration": 10, "velocity": 122}, {"time": 3063, "pitch": 72, "duration": 11, "velocity": 112}, {"time": 3075, "pitch": 74, "duration": 36, "velocity": 127}, {"time": 3135, "pitch": 84, "duration": 9, "velocity": 102}, {"time": 3147, "pitch": 79, "duration": 10, "velocity": 90}, {"time": 3159, "pitch": 77, "duration": 5, "velocity": 82}, {"time": 3165, "pitch": 75, "duration": 6, "velocity": 75}, {"time": 3171, "pitch": 74, "duration": 29, "velocity": 89}, {"time": 3201, "pitch": 75, "duration": 5, "velocity": 97}, {"time": 3207, "pitch": 77, "duration": 6, "velocity": 83}, {"time": 3213, "pitch": 70, "duration": 5, "velocity": 70}, {"time": 3219, "pitch": 72, "duration": 24, "velocity": 83}, {"time": 3279, "pitch": 72, "duration": 6, "velocity": 100}, {"time": 3285, "pitch": 75, "duration": 6, "velocity": 83}, {"time": 3291, "pitch": 77, "duration": 6, "velocity": 92}, {"time": 3297, "pitch": 79, "duration": 7, "velocity": 79}, {"time": 3303, "pitch": 82, "duration": 7, "velocity": 95}, {"time": 3309, "pitch": 87, "duration": 6, "velocity": 102}, {"time": 3315, "pitch": 84, "duration": 33, "velocity": 93}, {"time": 3495, "pitch": 75, "duration": 3, "velocity": 100}, {"time": 3498, "pitch": 70, "duration": 3, "velocity": 86}, {"time": 3501, "pitch": 75, "duration": 3, "velocity": 72}, {"time": 3504, "pitch": 77, "duration": 4, "velocity": 81}, {"time": 3507, "pitch": 79, "duration": 41, "velocity": 107}, {"time": 3711, "pitch": 72, "duration": 1, "velocity": 100}, {"time": 3711, "pitch": 75, "duration": 1, "velocity": 99}, {"time": 3717, "pitch": 72, "duration": 1, "velocity": 93}, {"time": 3717, "pitch": 75, "duration": 1, "velocity": 92}, {"time": 3723, "pitch": 72, "duration": 17, "velocity": 100}, {"time": 3723, "pitch": 75, "duration": 17, "velocity": 107}, {"time": 3759, "pitch": 75, "duration": 1, "velocity": 89}, {"time": 3759, "pitch": 79, "duration": 1, "velocity": 78}, {"time": 3765, "pitch": 75, "duration": 1, "velocity": 100}, {"time": 3765, "pitch": 79, "duration": 1, "velocity": 75}, {"time": 3771, "pitch": 75, "duration": 17, "velocity": 99}, {"time": 3771, "pitch": 79, "duration": 18, "velocity": 82}, {"time": 3843, "pitch": 70, "duration": 36, "velocity": 112}, {"time": 3843, "pitch": 74, "duration": 37, "velocity": 85}, {"time": 3945, "pitch": 70, "duration": 1, "velocity": 102}, {"time": 3945, "pitch": 74, "duration": 1, "velocity": 88}, {"time": 3951, "pitch": 70, "duration": 33, "velocity": 117}, {"time": 3951, "pitch": 74, "duration": 33, "velocity": 93}, {"time": 4089, "pitch": 75, "duration": 1, "velocity": 107}, {"time": 4089, "pitch": 79, "duration": 1, "velocity": 83}, {"time": 4095, "pitch": 75, "duration": 1, "velocity": 99}, {"time": 4095, "pitch": 79, "duration": 1, "velocity": 76}, {"time": 4101, "pitch": 75, "duration": 1, "velocity": 102}, {"time": 4101, "pitch": 79, "duration": 1, "velocity": 83}, {"time": 4107, "pitch": 75, "duration": 19, "velocity": 112}, {"time": 4107, "pitch": 79, "duration": 19, "velocity": 88}, {"time": 4456, "pitch": 67, "duration": 23, "velocity": 112}, {"time": 4480, "pitch": 70, "duration": 4, "velocity": 127}, {"time": 4486, "pitch": 70, "duration": 13, "velocity": 127}, {"time": 4498, "pitch": 68, "duration": 39, "velocity": 127}, {"time": 4539, "pitch": 71, "duration": 17, "velocity": 100}, {"time": 4539, "pitch": 75, "duration": 17, "velocity": 112}, {"time": 4554, "pitch": 77, "duration": 19, "velocity": 107}, {"time": 4556, "pitch": 73, "duration": 18, "velocity": 117}, {"time": 4573, "pitch": 79, "duration": 97, "velocity": 127}, {"time": 4573, "pitch": 75, "duration": 92, "velocity": 122}]}, {"program": 0, "is_drum": false, "name": "PIANO", "notes": [{"time": 3, "pitch": 39, "duration": 37, "velocity": 86}, {"time": 9, "pitch": 46, "duration": 30, "velocity": 48}, {"time": 15, "pitch": 63, "duration": 6, "velocity": 67}, {"time": 21, "pitch": 51, "duration": 7, "velocity": 33}, {"time": 27, "pitch": 63, "duration": 8, "velocity": 66}, {"time": 27, "pitch": 67, "duration": 23, "velocity": 64}, {"time": 33, "pitch": 51, "duration": 8, "velocity": 43}, {"time": 39, "pitch": 58, "duration": 7, "velocity": 89}, {"time": 45, "pitch": 63, "duration": 6, "velocity": 42}, {"time": 51, "pitch": 46, "duration": 37, "velocity": 68}, {"time": 57, "pitch": 53, "duration": 30, "velocity": 42}, {"time": 63, "pitch": 62, "duration": 14, "velocity": 71}, {"time": 69, "pitch": 58, "duration": 8, "velocity": 59}, {"time": 75, "pitch": 65, "duration": 13, "velocity": 64}, {"time": 75, "pitch": 70, "duration": 22, "velocity": 67}, {"time": 81, "pitch": 58, "duration": 6, "velocity": 81}, {"time": 87, "pitch": 62, "duration": 13, "velocity": 99}, {"time": 93, "pitch": 65, "duration": 6, "velocity": 44}, {"time": 99, "pitch": 36, "duration": 15, "velocity": 63}, {"time": 105, "pitch": 43, "duration": 9, "velocity": 60}, {"time": 111, "pitch": 60, "duration": 12, "velocity": 75}, {"time": 111, "pitch": 63, "duration": 12, "velocity": 83}, {"time": 117, "pitch": 55, "duration": 6, "velocity": 56}, {"time": 123, "pitch": 46, "duration": 21, "velocity": 48}, {"time": 129, "pitch": 53, "duration": 13, "velocity": 42}, {"time": 135, "pitch": 58, "duration": 9, "velocity": 78}, {"time": 141, "pitch": 65, "duration": 5, "velocity": 70}, {"time": 147, "pitch": 43, "duration": 36, "velocity": 73}, {"time": 153, "pitch": 50, "duration": 30, "velocity": 55}, {"time": 159, "pitch": 55, "duration": 16, "velocity": 72}, {"time": 165, "pitch": 58, "duration": 7, "velocity": 76}, {"time": 171, "pitch": 62, "duration": 23, "velocity": 88}, {"time": 177, "pitch": 55, "duration": 3, "velocity": 64}, {"time": 183, "pitch": 58, "duration": 11, "velocity": 89}, {"time": 189, "pitch": 55, "duration": 5, "velocity": 69}, {"time": 195, "pitch": 44, "duration": 36, "velocity": 66}, {"time": 201, "pitch": 51, "duration": 30, "velocity": 53}, {"time": 207, "pitch": 56, "duration": 14, "velocity": 60}, {"time": 213, "pitch": 60, "duration": 8, "velocity": 61}, {"time": 219, "pitch": 63, "duration": 13, "velocity": 90}, {"time": 219, "pitch": 68, "duration": 20, "velocity": 96}, {"time": 225, "pitch": 56, "duration": 7, "velocity": 70}, {"time": 231, "pitch": 60, "duration": 11, "velocity": 93}, {"time": 237, "pitch": 63, "duration": 4, "velocity": 68}, {"time": 243, "pitch": 39, "duration": 32, "velocity": 90}, {"time": 249, "pitch": 51, "duration": 9, "velocity": 82}, {"time": 249, "pitch": 53, "duration": 1, "velocity": 52}, {"time": 255, "pitch": 55, "duration": 13, "velocity": 70}, {"time": 261, "pitch": 51, "duration": 8, "velocity": 54}, {"time": 267, "pitch": 58, "duration": 13, "velocity": 92}, {"time": 267, "pitch": 63, "duration": 20, "velocity": 90}, {"time": 273, "pitch": 51, "duration": 5, "velocity": 81}, {"time": 279, "pitch": 55, "duration": 11, "velocity": 69}, {"time": 285, "pitch": 58, "duration": 5, "velocity": 83}, {"time": 291, "pitch": 46, "duration": 22, "velocity": 88}, {"time": 297, "pitch": 53, "duration": 8, "velocity": 42}, {"time": 303, "pitch": 58, "duration": 7, "velocity": 79}, {"time": 303, "pitch": 62, "duration": 7, "velocity": 75}, {"time": 306, "pitch": 53, "duration": 2, "velocity": 26}, {"time": 315, "pitch": 44, "duration": 11, "velocity": 69}, {"time": 327, "pitch": 41, "duration": 7, "velocity": 58}, {"time": 339, "pitch": 39, "duration": 45, "velocity": 68}, {"time": 345, "pitch": 46, "duration": 42, "velocity": 66}, {"time": 351, "pitch": 51, "duration": 15, "velocity": 75}, {"time": 357, "pitch": 55, "duration": 8, "velocity": 54}, {"time": 363, "pitch": 58, "duration": 43, "velocity": 73}, {"time": 363, "pitch": 63, "duration": 44, "velocity": 81}, {"time": 369, "pitch": 51, "duration": 28, "velocity": 27}, {"time": 375, "pitch": 55, "duration": 25, "velocity": 65}, {"time": 387, "pitch": 39, "duration": 44, "velocity": 58}, {"time": 393, "pitch": 46, "duration": 39, "velocity": 27}, {"time": 399, "pitch": 51, "duration": 33, "velocity": 56}, {"time": 405, "pitch": 55, "duration": 34, "velocity": 46}, {"time": 411, "pitch": 58, "duration": 39, "velocity": 48}, {"time": 411, "pitch": 63, "duration": 35, "velocity": 59}, {"time": 435, "pitch": 39, "duration": 16, "velocity": 59}, {"time": 441, "pitch": 46, "duration": 8, "velocity": 33}, {"time": 447, "pitch": 51, "duration": 8, "velocity": 86}, {"time": 453, "pitch": 55, "duration": 1, "velocity": 31}, {"time": 453, "pitch": 63, "duration": 6, "velocity": 99}, {"time": 459, "pitch": 46, "duration": 16, "velocity": 77}, {"time": 465, "pitch": 50, "duration": 11, "velocity": 64}, {"time": 471, "pitch": 53, "duration": 5, "velocity": 58}, {"time": 471, "pitch": 62, "duration": 12, "velocity": 72}, {"time": 477, "pitch": 58, "duration": 6, "velocity": 41}, {"time": 483, "pitch": 39, "duration": 40, "velocity": 58}, {"time": 489, "pitch": 46, "duration": 33, "velocity": 44}, {"time": 495, "pitch": 51, "duration": 14, "velocity": 58}, {"time": 501, "pitch": 55, "duration": 9, "velocity": 37}, {"time": 507, "pitch": 63, "duration": 23, "velocity": 96}, {"time": 513, "pitch": 51, "duration": 14, "velocity": 50}, {"time": 519, "pitch": 58, "duration": 10, "velocity": 66}, {"time": 525, "pitch": 55, "duration": 6, "velocity": 62}, {"time": 531, "pitch": 44, "duration": 21, "velocity": 56}, {"time": 537, "pitch": 56, "duration": 9, "velocity": 57}, {"time": 543, "pitch": 63, "duration": 11, "velocity": 78}, {"time": 549, "pitch": 56, "duration": 6, "velocity": 45}, {"time": 555, "pitch": 46, "duration": 12, "velocity": 66}, {"time": 561, "pitch": 58, "duration": 20, "velocity": 61}, {"time": 567, "pitch": 62, "duration": 14, "velocity": 66}, {"time": 573, "pitch": 65, "duration": 7, "velocity": 49}, {"time": 579, "pitch": 39, "duration": 44, "velocity": 61}, {"time": 585, "pitch": 46, "duration": 42, "velocity": 45}, {"time": 591, "pitch": 51, "duration": 15, "velocity": 63}, {"time": 597, "pitch": 55, "duration": 12, "velocity": 57}, {"time": 603, "pitch": 63, "duration": 24, "velocity": 93}, {"time": 609, "pitch": 51, "duration": 16, "velocity": 69}, {"time": 615, "pitch": 58, "duration": 11, "velocity": 72}, {"time": 621, "pitch": 55, "duration": 6, "velocity": 58}, {"time": 627, "pitch": 39, "duration": 18, "velocity": 59}, {"time": 633, "pitch": 46, "duration": 12, "velocity": 54}, {"time": 639, "pitch": 51, "duration": 10, "velocity": 86}, {"time": 645, "pitch": 63, "duration": 7, "velocity": 78}, {"time": 651, "pitch": 46, "duration": 18, "velocity": 67}, {"time": 657, "pitch": 50, "duration": 13, "velocity": 54}, {"time": 663, "pitch": 53, "duration": 6, "velocity": 66}, {"time": 669, "pitch": 62, "duration": 8, "velocity": 74}, {"time": 675, "pitch": 39, "duration": 38, "velocity": 54}, {"time": 681, "pitch": 46, "duration": 32, "velocity": 61}, {"time": 687, "pitch": 51, "duration": 14, "velocity": 68}, {"time": 693, "pitch": 55, "duration": 7, "velocity": 54}, {"time": 699, "pitch": 58, "duration": 14, "velocity": 60}, {"time": 699, "pitch": 63, "duration": 24, "velocity": 58}, {"time": 705, "pitch": 51, "duration": 8, "velocity": 45}, {"time": 711, "pitch": 55, "duration": 12, "velocity": 60}, {"time": 717, "pitch": 58, "duration": 6, "velocity": 63}, {"time": 723, "pitch": 48, "duration": 12, "velocity": 60}, {"time": 729, "pitch": 55, "duration": 7, "velocity": 53}, {"time": 729, "pitch": 60, "duration": 7, "velocity": 69}, {"time": 729, "pitch": 63, "duration": 5, "velocity": 64}, {"time": 735, "pitch": 46, "duration": 10, "velocity": 53}, {"time": 741, "pitch": 58, "duration": 5, "velocity": 51}, {"time": 741, "pitch": 62, "duration": 6, "velocity": 43}, {"time": 747, "pitch": 44, "duration": 21, "velocity": 76}, {"time": 753, "pitch": 56, "duration": 11, "velocity": 59}, {"time": 759, "pitch": 63, "duration": 10, "velocity": 81}, {"time": 765, "pitch": 60, "duration": 4, "velocity": 65}, {"time": 771, "pitch": 46, "duration": 46, "velocity": 69}, {"time": 777, "pitch": 58, "duration": 7, "velocity": 64}, {"time": 783, "pitch": 62, "duration": 15, "velocity": 68}, {"time": 789, "pitch": 58, "duration": 8, "velocity": 59}, {"time": 795, "pitch": 65, "duration": 23, "velocity": 75}, {"time": 801, "pitch": 58, "duration": 8, "velocity": 67}, {"time": 807, "pitch": 62, "duration": 12, "velocity": 73}, {"time": 813, "pitch": 58, "duration": 8, "velocity": 59}, {"time": 819, "pitch": 48, "duration": 48, "velocity": 86}, {"time": 825, "pitch": 55, "duration": 8, "velocity": 71}, {"time": 831, "pitch": 60, "duration": 6, "velocity": 93}, {"time": 837, "pitch": 55, "duration": 8, "velocity": 74}, {"time": 843, "pitch": 63, "duration": 9, "velocity": 112}, {"time": 849, "pitch": 60, "duration": 17, "velocity": 96}, {"time": 855, "pitch": 55, "duration": 10, "velocity": 78}, {"time": 867, "pitch": 43, "duration": 47, "velocity": 68}, {"time": 873, "pitch": 50, "duration": 31, "velocity": 45}, {"time": 879, "pitch": 55, "duration": 15, "velocity": 95}, {"time": 885, "pitch": 62, "duration": 11, "velocity": 76}, {"time": 891, "pitch": 67, "duration": 13, "velocity": 96}, {"time": 891, "pitch": 70, "duration": 24, "velocity": 112}, {"time": 897, "pitch": 55, "duration": 6, "velocity": 63}, {"time": 903, "pitch": 62, "duration": 15, "velocity": 60}, {"time": 909, "pitch": 67, "duration": 7, "velocity": 71}, {"time": 915, "pitch": 41, "duration": 19, "velocity": 56}, {"time": 921, "pitch": 48, "duration": 13, "velocity": 57}, {"time": 927, "pitch": 53, "duration": 7, "velocity": 69}, {"time": 933, "pitch": 60, "duration": 6, "velocity": 59}, {"time": 933, "pitch": 65, "duration": 6, "velocity": 69}, {"time": 933, "pitch": 68, "duration": 5, "velocity": 61}, {"time": 939, "pitch": 39, "duration": 20, "velocity": 83}, {"time": 942, "pitch": 51, "duration": 13, "velocity": 61}, {"time": 951, "pitch": 67, "duration": 12, "velocity": 68}, {"time": 957, "pitch": 63, "duration": 6, "velocity": 61}, {"time": 963, "pitch": 36, "duration": 34, "velocity": 72}, {"time": 969, "pitch": 43, "duration": 28, "velocity": 44}, {"time": 975, "pitch": 48, "duration": 15, "velocity": 53}, {"time": 981, "pitch": 55, "duration": 8, "velocity": 56}, {"time": 987, "pitch": 60, "duration": 15, "velocity": 77}, {"time": 987, "pitch": 63, "duration": 24, "velocity": 79}, {"time": 993, "pitch": 48, "duration": 7, "velocity": 64}, {"time": 999, "pitch": 55, "duration": 12, "velocity": 90}, {"time": 1005, "pitch": 60, "duration": 6, "velocity": 90}, {"time": 1011, "pitch": 44, "duration": 35, "velocity": 93}, {"time": 1017, "pitch": 51, "duration": 28, "velocity": 63}, {"time": 1023, "pitch": 56, "duration": 13, "velocity": 100}, {"time": 1029, "pitch": 60, "duration": 9, "velocity": 89}, {"time": 1035, "pitch": 63, "duration": 13, "velocity": 66}, {"time": 1035, "pitch": 68, "duration": 24, "velocity": 112}, {"time": 1041, "pitch": 56, "duration": 3, "velocity": 85}, {"time": 1047, "pitch": 60, "duration": 13, "velocity": 92}, {"time": 1053, "pitch": 63, "duration": 7, "velocity": 90}, {"time": 1059, "pitch": 39, "duration": 35, "velocity": 77}, {"time": 1065, "pitch": 46, "duration": 25, "velocity": 64}, {"time": 1071, "pitch": 51, "duration": 14, "velocity": 89}, {"time": 1077, "pitch": 55, "duration": 8, "velocity": 70}, {"time": 1083, "pitch": 58, "duration": 13, "velocity": 93}, {"time": 1083, "pitch": 63, "duration": 23, "velocity": 99}, {"time": 1089, "pitch": 51, "duration": 8, "velocity": 73}, {"time": 1095, "pitch": 55, "duration": 13, "velocity": 92}, {"time": 1101, "pitch": 58, "duration": 7, "velocity": 66}, {"time": 1107, "pitch": 46, "duration": 35, "velocity": 76}, {"time": 1113, "pitch": 50, "duration": 28, "velocity": 52}, {"time": 1119, "pitch": 53, "duration": 15, "velocity": 63}, {"time": 1125, "pitch": 58, "duration": 9, "velocity": 50}, {"time": 1131, "pitch": 62, "duration": 25, "velocity": 69}, {"time": 1137, "pitch": 53, "duration": 5, "velocity": 56}, {"time": 1143, "pitch": 58, "duration": 13, "velocity": 72}, {"time": 1152, "pitch": 39, "duration": 48, "velocity": 68}, {"time": 1161, "pitch": 46, "duration": 42, "velocity": 44}, {"time": 1167, "pitch": 51, "duration": 14, "velocity": 75}, {"time": 1173, "pitch": 55, "duration": 13, "velocity": 37}, {"time": 1179, "pitch": 63, "duration": 25, "velocity": 92}, {"time": 1185, "pitch": 51, "duration": 18, "velocity": 53}, {"time": 1191, "pitch": 58, "duration": 12, "velocity": 58}, {"time": 1197, "pitch": 55, "duration": 7, "velocity": 52}, {"time": 1203, "pitch": 39, "duration": 16, "velocity": 59}, {"time": 1209, "pitch": 46, "duration": 8, "velocity": 33}, {"time": 1215, "pitch": 51, "duration": 8, "velocity": 86}, {"time": 1221, "pitch": 55, "duration": 1, "velocity": 31}, {"time": 1221, "pitch": 63, "duration": 6, "velocity": 99}, {"time": 1227, "pitch": 46, "duration": 16, "velocity": 77}, {"time": 1233, "pitch": 50, "duration": 11, "velocity": 64}, {"time": 1239, "pitch": 53, "duration": 5, "velocity": 58}, {"time": 1239, "pitch": 62, "duration": 12, "velocity": 72}, {"time": 1245, "pitch": 58, "duration": 6, "velocity": 41}, {"time": 1251, "pitch": 39, "duration": 40, "velocity": 58}, {"time": 1257, "pitch": 46, "duration": 33, "velocity": 44}, {"time": 1263, "pitch": 51, "duration": 14, "velocity": 58}, {"time": 1269, "pitch": 55, "duration": 9, "velocity": 37}, {"time": 1275, "pitch": 63, "duration": 23, "velocity": 96}, {"time": 1281, "pitch": 51, "duration": 14, "velocity": 50}, {"time": 1287, "pitch": 58, "duration": 10, "velocity": 66}, {"time": 1293, "pitch": 55, "duration": 6, "velocity": 62}, {"time": 1299, "pitch": 44, "duration": 21, "velocity": 56}, {"time": 1305, "pitch": 56, "duration": 9, "velocity": 57}, {"time": 1311, "pitch": 63, "duration": 11, "velocity": 78}, {"time": 1317, "pitch": 56, "duration": 6, "velocity": 45}, {"time": 1323, "pitch": 46, "duration": 12, "velocity": 66}, {"time": 1329, "pitch": 58, "duration": 20, "velocity": 61}, {"time": 1335, "pitch": 62, "duration": 14, "velocity": 66}, {"time": 1341, "pitch": 65, "duration": 7, "velocity": 49}, {"time": 1347, "pitch": 39, "duration": 44, "velocity": 61}, {"time": 1353, "pitch": 46, "duration": 42, "velocity": 45}, {"time": 1359, "pitch": 51, "duration": 15, "velocity": 63}, {"time": 1365, "pitch": 55, "duration": 12, "velocity": 57}, {"time": 1371, "pitch": 63, "duration": 24, "velocity": 93}, {"time": 1377, "pitch": 51, "duration": 16, "velocity": 69}, {"time": 1383, "pitch": 58, "duration": 11, "velocity": 72}, {"time": 1389, "pitch": 55, "duration": 6, "velocity": 58}, {"time": 1395, "pitch": 39, "duration": 18, "velocity": 59}, {"time": 1401, "pitch": 46, "duration": 12, "velocity": 54}, {"time": 1407, "pitch": 51, "duration": 10, "velocity": 86}, {"time": 1413, "pitch": 63, "duration": 7, "velocity": 78}, {"time": 1419, "pitch": 46, "duration": 18, "velocity": 67}, {"time": 1425, "pitch": 50, "duration": 13, "velocity": 54}, {"time": 1431, "pitch": 53, "duration": 6, "velocity": 66}, {"time": 1437, "pitch": 62, "duration": 8, "velocity": 74}, {"time": 1443, "pitch": 39, "duration": 38, "velocity": 54}, {"time": 1449, "pitch": 46, "duration": 32, "velocity": 61}, {"time": 1455, "pitch": 51, "duration": 14, "velocity": 68}, {"time": 1461, "pitch": 55, "duration": 7, "velocity": 54}, {"time": 1467, "pitch": 58, "duration": 14, "velocity": 60}, {"time": 1467, "pitch": 63, "duration": 24, "velocity": 58}, {"time": 1473, "pitch": 51, "duration": 8, "velocity": 45}, {"time": 1479, "pitch": 55, "duration": 12, "velocity": 60}, {"time": 1485, "pitch": 58, "duration": 6, "velocity": 63}, {"time": 1491, "pitch": 48, "duration": 12, "velocity": 60}, {"time": 1497, "pitch": 55, "duration": 7, "velocity": 53}, {"time": 1497, "pitch": 60, "duration": 7, "velocity": 69}, {"time": 1497, "pitch": 63, "duration": 5, "velocity": 64}, {"time": 1503, "pitch": 46, "duration": 10, "velocity": 53}, {"time": 1509, "pitch": 58, "duration": 5, "velocity": 51}, {"time": 1509, "pitch": 62, "duration": 6, "velocity": 43}, {"time": 1515, "pitch": 44, "duration": 21, "velocity": 76}, {"time": 1521, "pitch": 56, "duration": 11, "velocity": 59}, {"time": 1527, "pitch": 63, "duration": 10, "velocity": 81}, {"time": 1533, "pitch": 60, "duration": 4, "velocity": 65}, {"time": 1539, "pitch": 46, "duration": 46, "velocity": 69}, {"time": 1545, "pitch": 58, "duration": 7, "velocity": 64}, {"time": 1551, "pitch": 62, "duration": 15, "velocity": 68}, {"time": 1557, "pitch": 58, "duration": 8, "velocity": 59}, {"time": 1563, "pitch": 65, "duration": 23, "velocity": 75}, {"time": 1569, "pitch": 58, "duration": 8, "velocity": 67}, {"time": 1575, "pitch": 62, "duration": 12, "velocity": 73}, {"time": 1581, "pitch": 58, "duration": 8, "velocity": 59}, {"time": 1587, "pitch": 48, "duration": 48, "velocity": 86}, {"time": 1593, "pitch": 55, "duration": 8, "velocity": 71}, {"time": 1599, "pitch": 60, "duration": 6, "velocity": 93}, {"time": 1605, "pitch": 55, "duration": 8, "velocity": 74}, {"time": 1611, "pitch": 63, "duration": 9, "velocity": 112}, {"time": 1617, "pitch": 60, "duration": 17, "velocity": 96}, {"time": 1623, "pitch": 55, "duration": 10, "velocity": 78}, {"time": 1635, "pitch": 43, "duration": 47, "velocity": 68}, {"time": 1641, "pitch": 50, "duration": 31, "velocity": 45}, {"time": 1647, "pitch": 55, "duration": 15, "velocity": 95}, {"time": 1653, "pitch": 62, "duration": 11, "velocity": 76}, {"time": 1659, "pitch": 67, "duration": 13, "velocity": 96}, {"time": 1659, "pitch": 70, "duration": 24, "velocity": 112}, {"time": 1665, "pitch": 55, "duration": 6, "velocity": 63}, {"time": 1671, "pitch": 62, "duration": 15, "velocity": 60}, {"time": 1677, "pitch": 67, "duration": 7, "velocity": 71}, {"time": 1683, "pitch": 41, "duration": 19, "velocity": 56}, {"time": 1689, "pitch": 48, "duration": 13, "velocity": 57}, {"time": 1695, "pitch": 53, "duration": 7, "velocity": 69}, {"time": 1701, "pitch": 60, "duration": 6, "velocity": 59}, {"time": 1701, "pitch": 65, "duration": 6, "velocity": 69}, {"time": 1701, "pitch": 68, "duration": 5, "velocity": 61}, {"time": 1707, "pitch": 39, "duration": 20, "velocity": 83}, {"time": 1710, "pitch": 51, "duration": 13, "velocity": 61}, {"time": 1719, "pitch": 67, "duration": 12, "velocity": 68}, {"time": 1725, "pitch": 63, "duration": 6, "velocity": 61}, {"time": 1731, "pitch": 36, "duration": 34, "velocity": 72}, {"time": 1737, "pitch": 43, "duration": 28, "velocity": 44}, {"time": 1743, "pitch": 48, "duration": 15, "velocity": 53}, {"time": 1749, "pitch": 55, "duration": 8, "velocity": 56}, {"time": 1755, "pitch": 60, "duration": 15, "velocity": 77}, {"time": 1755, "pitch": 63, "duration": 24, "velocity": 79}, {"time": 1761, "pitch": 48, "duration": 7, "velocity": 64}, {"time": 1767, "pitch": 55, "duration": 12, "velocity": 90}, {"time": 1773, "pitch": 60, "duration": 6, "velocity": 90}, {"time": 1779, "pitch": 44, "duration": 35, "velocity": 93}, {"time": 1785, "pitch": 51, "duration": 28, "velocity": 63}, {"time": 1791, "pitch": 56, "duration": 13, "velocity": 100}, {"time": 1797, "pitch": 60, "duration": 9, "velocity": 89}, {"time": 1803, "pitch": 63, "duration": 13, "velocity": 66}, {"time": 1803, "pitch": 68, "duration": 24, "velocity": 112}, {"time": 1809, "pitch": 56, "duration": 3, "velocity": 85}, {"time": 1815, "pitch": 60, "duration": 13, "velocity": 92}, {"time": 1821, "pitch": 63, "duration": 7, "velocity": 90}, {"time": 1827, "pitch": 39, "duration": 35, "velocity": 77}, {"time": 1833, "pitch": 46, "duration": 25, "velocity": 64}, {"time": 1839, "pitch": 51, "duration": 14, "velocity": 89}, {"time": 1845, "pitch": 55, "duration": 8, "velocity": 70}, {"time": 1851, "pitch": 58, "duration": 13, "velocity": 93}, {"time": 1851, "pitch": 63, "duration": 23, "velocity": 99}, {"time": 1857, "pitch": 51, "duration": 8, "velocity": 73}, {"time": 1863, "pitch": 55, "duration": 13, "velocity": 92}, {"time": 1869, "pitch": 58, "duration": 7, "velocity": 66}, {"time": 1875, "pitch": 46, "duration": 35, "velocity": 76}, {"time": 1881, "pitch": 50, "duration": 28, "velocity": 52}, {"time": 1887, "pitch": 53, "duration": 15, "velocity": 63}, {"time": 1893, "pitch": 58, "duration": 9, "velocity": 50}, {"time": 1899, "pitch": 62, "duration": 25, "velocity": 69}, {"time": 1905, "pitch": 53, "duration": 5, "velocity": 56}, {"time": 1911, "pitch": 58, "duration": 13, "velocity": 72}, {"time": 1920, "pitch": 39, "duration": 48, "velocity": 68}, {"time": 1929, "pitch": 46, "duration": 42, "velocity": 44}, {"time": 1935, "pitch": 51, "duration": 14, "velocity": 75}, {"time": 1941, "pitch": 55, "duration": 13, "velocity": 37}, {"time": 1947, "pitch": 63, "duration": 25, "velocity": 92}, {"time": 1953, "pitch": 51, "duration": 18, "velocity": 53}, {"time": 1959, "pitch": 58, "duration": 12, "velocity": 58}, {"time": 1965, "pitch": 55, "duration": 7, "velocity": 52}, {"time": 1971, "pitch": 39, "duration": 14, "velocity": 44}, {"time": 1977, "pitch": 46, "duration": 9, "velocity": 57}, {"time": 1983, "pitch": 55, "duration": 15, "velocity": 73}, {"time": 1983, "pitch": 58, "duration": 14, "velocity": 88}, {"time": 1983, "pitch": 63, "duration": 15, "velocity": 76}, {"time": 1989, "pitch": 39, "duration": 2, "velocity": 74}, {"time": 1995, "pitch": 39, "duration": 13, "velocity": 82}, {"time": 2001, "pitch": 55, "duration": 8, "velocity": 72}, {"time": 2007, "pitch": 58, "duration": 11, "velocity": 85}, {"time": 2007, "pitch": 63, "duration": 10, "velocity": 107}, {"time": 2013, "pitch": 55, "duration": 6, "velocity": 76}, {"time": 2019, "pitch": 46, "duration": 14, "velocity": 100}, {"time": 2025, "pitch": 50, "duration": 9, "velocity": 57}, {"time": 2031, "pitch": 58, "duration": 13, "velocity": 112}, {"time": 2031, "pitch": 62, "duration": 14, "velocity": 89}, {"time": 2031, "pitch": 65, "duration": 14, "velocity": 76}, {"time": 2037, "pitch": 46, "duration": 2, "velocity": 73}, {"time": 2043, "pitch": 46, "duration": 14, "velocity": 93}, {"time": 2049, "pitch": 58, "duration": 9, "velocity": 86}, {"time": 2049, "pitch": 62, "duration": 9, "velocity": 78}, {"time": 2049, "pitch": 65, "duration": 9, "velocity": 63}, {"time": 2061, "pitch": 58, "duration": 7, "velocity": 90}, {"time": 2061, "pitch": 62, "duration": 6, "velocity": 72}, {"time": 2061, "pitch": 65, "duration": 5, "velocity": 59}, {"time": 2067, "pitch": 36, "duration": 15, "velocity": 72}, {"time": 2079, "pitch": 55, "duration": 14, "velocity": 67}, {"time": 2079, "pitch": 60, "duration": 14, "velocity": 88}, {"time": 2079, "pitch": 63, "duration": 14, "velocity": 92}, {"time": 2085, "pitch": 36, "duration": 2, "velocity": 86}, {"time": 2091, "pitch": 36, "duration": 12, "velocity": 83}, {"time": 2097, "pitch": 55, "duration": 6, "velocity": 85}, {"time": 2097, "pitch": 60, "duration": 9, "velocity": 102}, {"time": 2097, "pitch": 63, "duration": 9, "velocity": 112}, {"time": 2103, "pitch": 48, "duration": 11, "velocity": 61}, {"time": 2109, "pitch": 55, "duration": 5, "velocity": 75}, {"time": 2109, "pitch": 60, "duration": 5, "velocity": 95}, {"time": 2109, "pitch": 63, "duration": 5, "velocity": 90}, {"time": 2115, "pitch": 43, "duration": 15, "velocity": 69}, {"time": 2121, "pitch": 50, "duration": 9, "velocity": 72}, {"time": 2127, "pitch": 58, "duration": 14, "velocity": 112}, {"time": 2127, "pitch": 62, "duration": 14, "velocity": 95}, {"time": 2133, "pitch": 43, "duration": 2, "velocity": 77}, {"time": 2139, "pitch": 43, "duration": 14, "velocity": 99}, {"time": 2145, "pitch": 55, "duration": 4, "velocity": 89}, {"time": 2145, "pitch": 58, "duration": 4, "velocity": 107}, {"time": 2145, "pitch": 62, "duration": 4, "velocity": 86}, {"time": 2151, "pitch": 58, "duration": 11, "velocity": 102}, {"time": 2151, "pitch": 62, "duration": 11, "velocity": 93}, {"time": 2157, "pitch": 55, "duration": 5, "velocity": 86}, {"time": 2163, "pitch": 44, "duration": 15, "velocity": 83}, {"time": 2169, "pitch": 51, "duration": 8, "velocity": 26}, {"time": 2175, "pitch": 60, "duration": 25, "velocity": 86}, {"time": 2175, "pitch": 63, "duration": 15, "velocity": 100}, {"time": 2181, "pitch": 44, "duration": 22, "velocity": 82}, {"time": 2193, "pitch": 51, "duration": 7, "velocity": 40}, {"time": 2193, "pitch": 63, "duration": 23, "velocity": 112}, {"time": 2199, "pitch": 56, "duration": 3, "velocity": 83}, {"time": 2199, "pitch": 68, "duration": 16, "velocity": 122}, {"time": 2205, "pitch": 60, "duration": 10, "velocity": 93}, {"time": 2211, "pitch": 39, "duration": 15, "velocity": 74}, {"time": 2217, "pitch": 46, "duration": 11, "velocity": 55}, {"time": 2223, "pitch": 51, "duration": 4, "velocity": 72}, {"time": 2223, "pitch": 55, "duration": 21, "velocity": 74}, {"time": 2223, "pitch": 58, "duration": 21, "velocity": 112}, {"time": 2229, "pitch": 39, "duration": 2, "velocity": 79}, {"time": 2235, "pitch": 39, "duration": 17, "velocity": 93}, {"time": 2241, "pitch": 51, "duration": 11, "velocity": 90}, {"time": 2247, "pitch": 58, "duration": 11, "velocity": 112}, {"time": 2247, "pitch": 63, "duration": 12, "velocity": 112}, {"time": 2253, "pitch": 55, "duration": 6, "velocity": 92}, {"time": 2259, "pitch": 41, "duration": 14, "velocity": 85}, {"time": 2265, "pitch": 48, "duration": 9, "velocity": 59}, {"time": 2271, "pitch": 57, "duration": 21, "velocity": 93}, {"time": 2271, "pitch": 60, "duration": 21, "velocity": 97}, {"time": 2277, "pitch": 41, "duration": 2, "velocity": 64}, {"time": 2283, "pitch": 41, "duration": 18, "velocity": 69}, {"time": 2289, "pitch": 48, "duration": 12, "velocity": 66}, {"time": 2295, "pitch": 53, "duration": 11, "velocity": 78}, {"time": 2295, "pitch": 60, "duration": 12, "velocity": 99}, {"time": 2295, "pitch": 65, "duration": 12, "velocity": 88}, {"time": 2301, "pitch": 57, "duration": 8, "velocity": 82}, {"time": 2307, "pitch": 46, "duration": 15, "velocity": 99}, {"time": 2313, "pitch": 50, "duration": 8, "velocity": 72}, {"time": 2316, "pitch": 63, "duration": 1, "velocity": 18}, {"time": 2319, "pitch": 53, "duration": 12, "velocity": 96}, {"time": 2319, "pitch": 58, "duration": 13, "velocity": 102}, {"time": 2319, "pitch": 62, "duration": 12, "velocity": 89}, {"time": 2319, "pitch": 65, "duration": 9, "velocity": 86}, {"time": 2325, "pitch": 46, "duration": 2, "velocity": 112}, {"time": 2331, "pitch": 46, "duration": 20, "velocity": 117}, {"time": 2331, "pitch": 65, "duration": 1, "velocity": 31}, {"time": 2337, "pitch": 58, "duration": 3, "velocity": 117}, {"time": 2337, "pitch": 70, "duration": 3, "velocity": 102}, {"time": 2343, "pitch": 60, "duration": 3, "velocity": 100}, {"time": 2343, "pitch": 72, "duration": 3, "velocity": 96}, {"time": 2349, "pitch": 62, "duration": 5, "velocity": 100}, {"time": 2349, "pitch": 74, "duration": 5, "velocity": 112}, {"time": 2355, "pitch": 39, "duration": 15, "velocity": 96}, {"time": 2361, "pitch": 51, "duration": 9, "velocity": 78}, {"time": 2367, "pitch": 58, "duration": 20, "velocity": 102}, {"time": 2367, "pitch": 63, "duration": 21, "velocity": 107}, {"time": 2373, "pitch": 39, "duration": 2, "velocity": 75}, {"time": 2379, "pitch": 39, "duration": 13, "velocity": 82}, {"time": 2385, "pitch": 51, "duration": 11, "velocity": 81}, {"time": 2391, "pitch": 58, "duration": 12, "velocity": 99}, {"time": 2391, "pitch": 63, "duration": 8, "velocity": 100}, {"time": 2397, "pitch": 55, "duration": 7, "velocity": 93}, {"time": 2403, "pitch": 46, "duration": 14, "velocity": 97}, {"time": 2409, "pitch": 50, "duration": 8, "velocity": 53}, {"time": 2415, "pitch": 58, "duration": 15, "velocity": 102}, {"time": 2415, "pitch": 62, "duration": 16, "velocity": 89}, {"time": 2415, "pitch": 65, "duration": 17, "velocity": 75}, {"time": 2421, "pitch": 46, "duration": 2, "velocity": 60}, {"time": 2421, "pitch": 50, "duration": 1, "velocity": 47}, {"time": 2421, "pitch": 53, "duration": 2, "velocity": 63}, {"time": 2427, "pitch": 46, "duration": 12, "velocity": 66}, {"time": 2427, "pitch": 53, "duration": 12, "velocity": 74}, {"time": 2433, "pitch": 58, "duration": 7, "velocity": 83}, {"time": 2439, "pitch": 62, "duration": 14, "velocity": 83}, {"time": 2439, "pitch": 65, "duration": 13, "velocity": 92}, {"time": 2445, "pitch": 58, "duration": 12, "velocity": 97}, {"time": 2451, "pitch": 36, "duration": 15, "velocity": 77}, {"time": 2457, "pitch": 43, "duration": 10, "velocity": 43}, {"time": 2463, "pitch": 55, "duration": 17, "velocity": 73}, {"time": 2463, "pitch": 60, "duration": 18, "velocity": 83}, {"time": 2463, "pitch": 63, "duration": 18, "velocity": 92}, {"time": 2469, "pitch": 36, "duration": 2, "velocity": 83}, {"time": 2475, "pitch": 36, "duration": 13, "velocity": 85}, {"time": 2481, "pitch": 43, "duration": 9, "velocity": 73}, {"time": 2487, "pitch": 60, "duration": 12, "velocity": 89}, {"time": 2487, "pitch": 63, "duration": 12, "velocity": 97}, {"time": 2493, "pitch": 55, "duration": 7, "velocity": 88}, {"time": 2499, "pitch": 43, "duration": 15, "velocity": 75}, {"time": 2505, "pitch": 50, "duration": 11, "velocity": 59}, {"time": 2511, "pitch": 58, "duration": 16, "velocity": 99}, {"time": 2511, "pitch": 62, "duration": 15, "velocity": 92}, {"time": 2517, "pitch": 43, "duration": 2, "velocity": 85}, {"time": 2523, "pitch": 43, "duration": 12, "velocity": 83}, {"time": 2529, "pitch": 55, "duration": 7, "velocity": 93}, {"time": 2535, "pitch": 58, "duration": 12, "velocity": 102}, {"time": 2535, "pitch": 62, "duration": 12, "velocity": 93}, {"time": 2541, "pitch": 55, "duration": 6, "velocity": 81}, {"time": 2547, "pitch": 44, "duration": 14, "velocity": 92}, {"time": 2553, "pitch": 51, "duration": 12, "velocity": 36}, {"time": 2559, "pitch": 56, "duration": 5, "velocity": 83}, {"time": 2559, "pitch": 60, "duration": 22, "velocity": 81}, {"time": 2559, "pitch": 63, "duration": 21, "velocity": 97}, {"time": 2565, "pitch": 44, "duration": 2, "velocity": 86}, {"time": 2571, "pitch": 44, "duration": 14, "velocity": 96}, {"time": 2577, "pitch": 56, "duration": 6, "velocity": 93}, {"time": 2583, "pitch": 63, "duration": 11, "velocity": 112}, {"time": 2583, "pitch": 68, "duration": 11, "velocity": 112}, {"time": 2589, "pitch": 60, "duration": 6, "velocity": 86}, {"time": 2595, "pitch": 39, "duration": 15, "velocity": 89}, {"time": 2601, "pitch": 51, "duration": 9, "velocity": 71}, {"time": 2607, "pitch": 55, "duration": 13, "velocity": 59}, {"time": 2607, "pitch": 58, "duration": 20, "velocity": 107}, {"time": 2607, "pitch": 63, "duration": 20, "velocity": 100}, {"time": 2613, "pitch": 39, "duration": 2, "velocity": 95}, {"time": 2619, "pitch": 39, "duration": 14, "velocity": 96}, {"time": 2625, "pitch": 51, "duration": 9, "velocity": 93}, {"time": 2631, "pitch": 58, "duration": 11, "velocity": 112}, {"time": 2631, "pitch": 63, "duration": 12, "velocity": 117}, {"time": 2637, "pitch": 55, "duration": 5, "velocity": 92}, {"time": 2643, "pitch": 46, "duration": 14, "velocity": 102}, {"time": 2649, "pitch": 50, "duration": 9, "velocity": 66}, {"time": 2655, "pitch": 58, "duration": 13, "velocity": 89}, {"time": 2655, "pitch": 62, "duration": 13, "velocity": 78}, {"time": 2655, "pitch": 65, "duration": 12, "velocity": 71}, {"time": 2661, "pitch": 46, "duration": 2, "velocity": 86}, {"time": 2667, "pitch": 46, "duration": 15, "velocity": 85}, {"time": 2673, "pitch": 53, "duration": 10, "velocity": 78}, {"time": 2673, "pitch": 58, "duration": 11, "velocity": 93}, {"time": 2673, "pitch": 62, "duration": 10, "velocity": 86}, {"time": 2673, "pitch": 65, "duration": 10, "velocity": 55}, {"time": 2685, "pitch": 53, "duration": 6, "velocity": 71}, {"time": 2685, "pitch": 58, "duration": 6, "velocity": 82}, {"time": 2685, "pitch": 62, "duration": 6, "velocity": 75}, {"time": 2685, "pitch": 65, "duration": 5, "velocity": 52}, {"time": 2691, "pitch": 39, "duration": 15, "velocity": 76}, {"time": 2697, "pitch": 46, "duration": 9, "velocity": 27}, {"time": 2703, "pitch": 51, "duration": 3, "velocity": 40}, {"time": 2703, "pitch": 55, "duration": 14, "velocity": 74}, {"time": 2703, "pitch": 58, "duration": 14, "velocity": 96}, {"time": 2703, "pitch": 63, "duration": 14, "velocity": 86}, {"time": 2709, "pitch": 39, "duration": 2, "velocity": 86}, {"time": 2715, "pitch": 39, "duration": 21, "velocity": 86}, {"time": 2721, "pitch": 55, "duration": 9, "velocity": 74}, {"time": 2721, "pitch": 58, "duration": 9, "velocity": 107}, {"time": 2721, "pitch": 63, "duration": 10, "velocity": 96}, {"time": 2733, "pitch": 55, "duration": 4, "velocity": 72}, {"time": 2733, "pitch": 58, "duration": 5, "velocity": 90}, {"time": 2733, "pitch": 63, "duration": 5, "velocity": 88}, {"time": 2739, "pitch": 39, "duration": 15, "velocity": 90}, {"time": 2745, "pitch": 51, "duration": 9, "velocity": 52}, {"time": 2751, "pitch": 67, "duration": 6, "velocity": 93}, {"time": 2751, "pitch": 70, "duration": 7, "velocity": 99}, {"time": 2757, "pitch": 39, "duration": 6, "velocity": 90}, {"time": 2763, "pitch": 46, "duration": 22, "velocity": 95}, {"time": 2769, "pitch": 53, "duration": 8, "velocity": 53}, {"time": 2775, "pitch": 58, "duration": 12, "velocity": 93}, {"time": 2775, "pitch": 62, "duration": 10, "velocity": 93}, {"time": 2781, "pitch": 53, "duration": 6, "velocity": 77}, {"time": 2787, "pitch": 39, "duration": 15, "velocity": 71}, {"time": 2793, "pitch": 51, "duration": 9, "velocity": 82}, {"time": 2799, "pitch": 55, "duration": 20, "velocity": 71}, {"time": 2799, "pitch": 58, "duration": 21, "velocity": 95}, {"time": 2799, "pitch": 63, "duration": 21, "velocity": 86}, {"time": 2805, "pitch": 39, "duration": 2, "velocity": 89}, {"time": 2811, "pitch": 39, "duration": 14, "velocity": 100}, {"time": 2817, "pitch": 51, "duration": 13, "velocity": 97}, {"time": 2823, "pitch": 58, "duration": 9, "velocity": 112}, {"time": 2823, "pitch": 63, "duration": 11, "velocity": 112}, {"time": 2829, "pitch": 55, "duration": 6, "velocity": 79}, {"time": 2835, "pitch": 44, "duration": 3, "velocity": 68}, {"time": 2841, "pitch": 44, "duration": 15, "velocity": 82}, {"time": 2847, "pitch": 60, "duration": 11, "velocity": 93}, {"time": 2847, "pitch": 63, "duration": 12, "velocity": 96}, {"time": 2853, "pitch": 56, "duration": 6, "velocity": 90}, {"time": 2859, "pitch": 46, "duration": 2, "velocity": 86}, {"time": 2865, "pitch": 46, "duration": 11, "velocity": 96}, {"time": 2871, "pitch": 58, "duration": 13, "velocity": 95}, {"time": 2871, "pitch": 62, "duration": 12, "velocity": 89}, {"time": 2877, "pitch": 53, "duration": 6, "velocity": 78}, {"time": 2883, "pitch": 39, "duration": 14, "velocity": 81}, {"time": 2889, "pitch": 51, "duration": 8, "velocity": 78}, {"time": 2895, "pitch": 55, "duration": 20, "velocity": 68}, {"time": 2895, "pitch": 58, "duration": 20, "velocity": 92}, {"time": 2895, "pitch": 63, "duration": 20, "velocity": 86}, {"time": 2901, "pitch": 39, "duration": 2, "velocity": 85}, {"time": 2907, "pitch": 39, "duration": 21, "velocity": 97}, {"time": 2913, "pitch": 51, "duration": 16, "velocity": 96}, {"time": 2919, "pitch": 58, "duration": 12, "velocity": 122}, {"time": 2919, "pitch": 63, "duration": 12, "velocity": 122}, {"time": 2925, "pitch": 55, "duration": 6, "velocity": 92}, {"time": 2931, "pitch": 39, "duration": 14, "velocity": 99}, {"time": 2937, "pitch": 51, "duration": 8, "velocity": 72}, {"time": 2943, "pitch": 55, "duration": 10, "velocity": 79}, {"time": 2943, "pitch": 58, "duration": 9, "velocity": 107}, {"time": 2943, "pitch": 63, "duration": 9, "velocity": 97}, {"time": 2949, "pitch": 39, "duration": 6, "velocity": 99}, {"time": 2955, "pitch": 46, "duration": 17, "velocity": 72}, {"time": 2961, "pitch": 53, "duration": 7, "velocity": 63}, {"time": 2967, "pitch": 58, "duration": 12, "velocity": 95}, {"time": 2967, "pitch": 62, "duration": 10, "velocity": 96}, {"time": 2973, "pitch": 53, "duration": 6, "velocity": 82}, {"time": 2979, "pitch": 39, "duration": 2, "velocity": 93}, {"time": 2985, "pitch": 39, "duration": 18, "velocity": 93}, {"time": 2991, "pitch": 51, "duration": 14, "velocity": 64}, {"time": 2991, "pitch": 58, "duration": 21, "velocity": 99}, {"time": 2991, "pitch": 63, "duration": 21, "velocity": 99}, {"time": 2997, "pitch": 55, "duration": 15, "velocity": 70}, {"time": 3003, "pitch": 39, "duration": 12, "velocity": 79}, {"time": 3009, "pitch": 51, "duration": 14, "velocity": 86}, {"time": 3015, "pitch": 58, "duration": 10, "velocity": 100}, {"time": 3015, "pitch": 63, "duration": 11, "velocity": 100}, {"time": 3021, "pitch": 55, "duration": 5, "velocity": 81}, {"time": 3027, "pitch": 44, "duration": 15, "velocity": 96}, {"time": 3033, "pitch": 56, "duration": 4, "velocity": 75}, {"time": 3039, "pitch": 56, "duration": 14, "velocity": 64}, {"time": 3039, "pitch": 60, "duration": 13, "velocity": 93}, {"time": 3039, "pitch": 63, "duration": 14, "velocity": 107}, {"time": 3045, "pitch": 44, "duration": 2, "velocity": 78}, {"time": 3051, "pitch": 44, "duration": 22, "velocity": 95}, {"time": 3057, "pitch": 56, "duration": 5, "velocity": 66}, {"time": 3063, "pitch": 60, "duration": 10, "velocity": 82}, {"time": 3063, "pitch": 63, "duration": 11, "velocity": 95}, {"time": 3069, "pitch": 56, "duration": 5, "velocity": 86}, {"time": 3075, "pitch": 46, "duration": 15, "velocity": 93}, {"time": 3081, "pitch": 53, "duration": 22, "velocity": 78}, {"time": 3087, "pitch": 58, "duration": 15, "velocity": 112}, {"time": 3087, "pitch": 62, "duration": 15, "velocity": 102}, {"time": 3093, "pitch": 46, "duration": 2, "velocity": 122}, {"time": 3099, "pitch": 46, "duration": 24, "velocity": 99}, {"time": 3105, "pitch": 53, "duration": 5, "velocity": 89}, {"time": 3105, "pitch": 58, "duration": 5, "velocity": 107}, {"time": 3105, "pitch": 62, "duration": 5, "velocity": 96}, {"time": 3111, "pitch": 53, "duration": 4, "velocity": 63}, {"time": 3111, "pitch": 58, "duration": 4, "velocity": 100}, {"time": 3111, "pitch": 62, "duration": 4, "velocity": 93}, {"time": 3117, "pitch": 53, "duration": 5, "velocity": 86}, {"time": 3117, "pitch": 58, "duration": 5, "velocity": 112}, {"time": 3117, "pitch": 62, "duration": 6, "velocity": 100}, {"time": 3123, "pitch": 48, "duration": 48, "velocity": 86}, {"time": 3129, "pitch": 55, "duration": 8, "velocity": 71}, {"time": 3135, "pitch": 60, "duration": 6, "velocity": 93}, {"time": 3141, "pitch": 55, "duration": 8, "velocity": 74}, {"time": 3147, "pitch": 63, "duration": 9, "velocity": 112}, {"time": 3153, "pitch": 60, "duration": 17, "velocity": 96}, {"time": 3159, "pitch": 55, "duration": 10, "velocity": 78}, {"time": 3171, "pitch": 43, "duration": 47, "velocity": 68}, {"time": 3177, "pitch": 50, "duration": 31, "velocity": 45}, {"time": 3183, "pitch": 55, "duration": 15, "velocity": 95}, {"time": 3189, "pitch": 62, "duration": 11, "velocity": 76}, {"time": 3195, "pitch": 67, "duration": 13, "velocity": 96}, {"time": 3195, "pitch": 70, "duration": 24, "velocity": 112}, {"time": 3201, "pitch": 55, "duration": 6, "velocity": 63}, {"time": 3207, "pitch": 62, "duration": 15, "velocity": 60}, {"time": 3213, "pitch": 67, "duration": 7, "velocity": 71}, {"time": 3219, "pitch": 41, "duration": 19, "velocity": 56}, {"time": 3225, "pitch": 48, "duration": 13, "velocity": 57}, {"time": 3231, "pitch": 53, "duration": 7, "velocity": 69}, {"time": 3237, "pitch": 60, "duration": 6, "velocity": 59}, {"time": 3237, "pitch": 65, "duration": 6, "velocity": 69}, {"time": 3237, "pitch": 68, "duration": 5, "velocity": 61}, {"time": 3243, "pitch": 39, "duration": 20, "velocity": 83}, {"time": 3246, "pitch": 51, "duration": 13, "velocity": 61}, {"time": 3255, "pitch": 67, "duration": 12, "velocity": 68}, {"time": 3261, "pitch": 63, "duration": 6, "velocity": 61}, {"time": 3267, "pitch": 36, "duration": 34, "velocity": 72}, {"time": 3273, "pitch": 43, "duration": 28, "velocity": 44}, {"time": 3279, "pitch": 48, "duration": 15, "velocity": 53}, {"time": 3285, "pitch": 55, "duration": 8, "velocity": 56}, {"time": 3291, "pitch": 60, "duration": 15, "velocity": 77}, {"time": 3291, "pitch": 63, "duration": 24, "velocity": 79}, {"time": 3297, "pitch": 48, "duration": 7, "velocity": 64}, {"time": 3303, "pitch": 55, "duration": 12, "velocity": 90}, {"time": 3309, "pitch": 60, "duration": 6, "velocity": 90}, {"time": 3315, "pitch": 44, "duration": 35, "velocity": 93}, {"time": 3321, "pitch": 51, "duration": 28, "velocity": 63}, {"time": 3327, "pitch": 56, "duration": 13, "velocity": 100}, {"time": 3333, "pitch": 60, "duration": 9, "velocity": 89}, {"time": 3339, "pitch": 63, "duration": 13, "velocity": 66}, {"time": 3339, "pitch": 68, "duration": 24, "velocity": 112}, {"time": 3345, "pitch": 56, "duration": 3, "velocity": 85}, {"time": 3351, "pitch": 60, "duration": 13, "velocity": 92}, {"time": 3357, "pitch": 63, "duration": 7, "velocity": 90}, {"time": 3363, "pitch": 39, "duration": 35, "velocity": 77}, {"time": 3369, "pitch": 46, "duration": 25, "velocity": 64}, {"time": 3375, "pitch": 51, "duration": 14, "velocity": 89}, {"time": 3381, "pitch": 55, "duration": 8, "velocity": 70}, {"time": 3387, "pitch": 58, "duration": 13, "velocity": 93}, {"time": 3387, "pitch": 63, "duration": 23, "velocity": 99}, {"time": 3393, "pitch": 51, "duration": 8, "velocity": 73}, {"time": 3399, "pitch": 55, "duration": 13, "velocity": 92}, {"time": 3405, "pitch": 58, "duration": 7, "velocity": 66}, {"time": 3411, "pitch": 46, "duration": 35, "velocity": 76}, {"time": 3417, "pitch": 50, "duration": 28, "velocity": 52}, {"time": 3423, "pitch": 53, "duration": 15, "velocity": 63}, {"time": 3429, "pitch": 58, "duration": 9, "velocity": 50}, {"time": 3435, "pitch": 62, "duration": 25, "velocity": 69}, {"time": 3441, "pitch": 53, "duration": 5, "velocity": 56}, {"time": 3447, "pitch": 58, "duration": 13, "velocity": 72}, {"time": 3456, "pitch": 39, "duration": 48, "velocity": 68}, {"time": 3465, "pitch": 46, "duration": 42, "velocity": 44}, {"time": 3471, "pitch": 51, "duration": 14, "velocity": 75}, {"time": 3477, "pitch": 55, "duration": 13, "velocity": 37}, {"time": 3483, "pitch": 63, "duration": 25, "velocity": 92}, {"time": 3489, "pitch": 51, "duration": 18, "velocity": 53}, {"time": 3495, "pitch": 58, "duration": 12, "velocity": 58}, {"time": 3501, "pitch": 55, "duration": 7, "velocity": 52}, {"time": 3507, "pitch": 39, "duration": 14, "velocity": 44}, {"time": 3513, "pitch": 46, "duration": 9, "velocity": 57}, {"time": 3519, "pitch": 55, "duration": 15, "velocity": 73}, {"time": 3519, "pitch": 58, "duration": 14, "velocity": 88}, {"time": 3519, "pitch": 63, "duration": 15, "velocity": 76}, {"time": 3525, "pitch": 39, "duration": 2, "velocity": 74}, {"time": 3531, "pitch": 39, "duration": 13, "velocity": 82}, {"time": 3537, "pitch": 55, "duration": 8, "velocity": 72}, {"time": 3543, "pitch": 58, "duration": 11, "velocity": 85}, {"time": 3543, "pitch": 63, "duration": 10, "velocity": 107}, {"time": 3549, "pitch": 55, "duration": 6, "velocity": 76}, {"time": 3555, "pitch": 46, "duration": 14, "velocity": 100}, {"time": 3561, "pitch": 50, "duration": 9, "velocity": 57}, {"time": 3567, "pitch": 58, "duration": 13, "velocity": 112}, {"time": 3567, "pitch": 62, "duration": 14, "velocity": 89}, {"time": 3567, "pitch": 65, "duration": 14, "velocity": 76}, {"time": 3573, "pitch": 46, "duration": 2, "velocity": 73}, {"time": 3579, "pitch": 46, "duration": 14, "velocity": 93}, {"time": 3585, "pitch": 58, "duration": 9, "velocity": 86}, {"time": 3585, "pitch": 62, "duration": 9, "velocity": 78}, {"time": 3585, "pitch": 65, "duration": 9, "velocity": 63}, {"time": 3597, "pitch": 58, "duration": 7, "velocity": 90}, {"time": 3597, "pitch": 62, "duration": 6, "velocity": 72}, {"time": 3597, "pitch": 65, "duration": 5, "velocity": 59}, {"time": 3603, "pitch": 36, "duration": 15, "velocity": 72}, {"time": 3615, "pitch": 55, "duration": 14, "velocity": 67}, {"time": 3615, "pitch": 60, "duration": 14, "velocity": 88}, {"time": 3615, "pitch": 63, "duration": 14, "velocity": 92}, {"time": 3621, "pitch": 36, "duration": 2, "velocity": 86}, {"time": 3627, "pitch": 36, "duration": 12, "velocity": 83}, {"time": 3633, "pitch": 55, "duration": 6, "velocity": 85}, {"time": 3633, "pitch": 60, "duration": 9, "velocity": 102}, {"time": 3633, "pitch": 63, "duration": 9, "velocity": 112}, {"time": 3639, "pitch": 48, "duration": 11, "velocity": 61}, {"time": 3645, "pitch": 55, "duration": 5, "velocity": 75}, {"time": 3645, "pitch": 60, "duration": 5, "velocity": 95}, {"time": 3645, "pitch": 63, "duration": 5, "velocity": 90}, {"time": 3651, "pitch": 43, "duration": 15, "velocity": 69}, {"time": 3657, "pitch": 50, "duration": 9, "velocity": 72}, {"time": 3663, "pitch": 58, "duration": 14, "velocity": 112}, {"time": 3663, "pitch": 62, "duration": 14, "velocity": 95}, {"time": 3669, "pitch": 43, "duration": 2, "velocity": 77}, {"time": 3675, "pitch": 43, "duration": 14, "velocity": 99}, {"time": 3681, "pitch": 55, "duration": 4, "velocity": 89}, {"time": 3681, "pitch": 58, "duration": 4, "velocity": 107}, {"time": 3681, "pitch": 62, "duration": 4, "velocity": 86}, {"time": 3687, "pitch": 58, "duration": 11, "velocity": 102}, {"time": 3687, "pitch": 62, "duration": 11, "velocity": 93}, {"time": 3693, "pitch": 55, "duration": 5, "velocity": 86}, {"time": 3699, "pitch": 44, "duration": 15, "velocity": 83}, {"time": 3705, "pitch": 51, "duration": 8, "velocity": 26}, {"time": 3711, "pitch": 60, "duration": 25, "velocity": 86}, {"time": 3711, "pitch": 63, "duration": 15, "velocity": 100}, {"time": 3717, "pitch": 44, "duration": 22, "velocity": 82}, {"time": 3729, "pitch": 51, "duration": 7, "velocity": 40}, {"time": 3729, "pitch": 63, "duration": 23, "velocity": 112}, {"time": 3735, "pitch": 56, "duration": 3, "velocity": 83}, {"time": 3735, "pitch": 68, "duration": 16, "velocity": 122}, {"time": 3741, "pitch": 60, "duration": 10, "velocity": 93}, {"time": 3747, "pitch": 39, "duration": 15, "velocity": 74}, {"time": 3753, "pitch": 46, "duration": 11, "velocity": 55}, {"time": 3759, "pitch": 51, "duration": 4, "velocity": 72}, {"time": 3759, "pitch": 55, "duration": 21, "velocity": 74}, {"time": 3759, "pitch": 58, "duration": 21, "velocity": 112}, {"time": 3765, "pitch": 39, "duration": 2, "velocity": 79}, {"time": 3771, "pitch": 39, "duration": 17, "velocity": 93}, {"time": 3777, "pitch": 51, "duration": 11, "velocity": 90}, {"time": 3783, "pitch": 58, "duration": 11, "velocity": 112}, {"time": 3783, "pitch": 63, "duration": 12, "velocity": 112}, {"time": 3789, "pitch": 55, "duration": 6, "velocity": 92}, {"time": 3795, "pitch": 41, "duration": 14, "velocity": 85}, {"time": 3801, "pitch": 48, "duration": 9, "velocity": 59}, {"time": 3807, "pitch": 57, "duration": 21, "velocity": 93}, {"time": 3807, "pitch": 60, "duration": 21, "velocity": 97}, {"time": 3813, "pitch": 41, "duration": 2, "velocity": 64}, {"time": 3819, "pitch": 41, "duration": 18, "velocity": 69}, {"time": 3825, "pitch": 48, "duration": 12, "velocity": 66}, {"time": 3831, "pitch": 53, "duration": 11, "velocity": 78}, {"time": 3831, "pitch": 60, "duration": 12, "velocity": 99}, {"time": 3831, "pitch": 65, "duration": 12, "velocity": 88}, {"time": 3837, "pitch": 57, "duration": 8, "velocity": 82}, {"time": 3843, "pitch": 46, "duration": 15, "velocity": 99}, {"time": 3849, "pitch": 50, "duration": 8, "velocity": 72}, {"time": 3852, "pitch": 63, "duration": 1, "velocity": 18}, {"time": 3855, "pitch": 53, "duration": 12, "velocity": 96}, {"time": 3855, "pitch": 58, "duration": 13, "velocity": 102}, {"time": 3855, "pitch": 62, "duration": 12, "velocity": 89}, {"time": 3855, "pitch": 65, "duration": 9, "velocity": 86}, {"time": 3861, "pitch": 46, "duration": 2, "velocity": 112}, {"time": 3867, "pitch": 46, "duration": 20, "velocity": 117}, {"time": 3867, "pitch": 65, "duration": 1, "velocity": 31}, {"time": 3873, "pitch": 58, "duration": 3, "velocity": 117}, {"time": 3873, "pitch": 70, "duration": 3, "velocity": 102}, {"time": 3879, "pitch": 60, "duration": 3, "velocity": 100}, {"time": 3879, "pitch": 72, "duration": 3, "velocity": 96}, {"time": 3885, "pitch": 62, "duration": 5, "velocity": 100}, {"time": 3885, "pitch": 74, "duration": 5, "velocity": 112}, {"time": 3891, "pitch": 39, "duration": 15, "velocity": 96}, {"time": 3897, "pitch": 51, "duration": 9, "velocity": 78}, {"time": 3903, "pitch": 58, "duration": 20, "velocity": 102}, {"time": 3903, "pitch": 63, "duration": 21, "velocity": 107}, {"time": 3909, "pitch": 39, "duration": 2, "velocity": 75}, {"time": 3915, "pitch": 39, "duration": 13, "velocity": 82}, {"time": 3921, "pitch": 51, "duration": 11, "velocity": 81}, {"time": 3927, "pitch": 58, "duration": 12, "velocity": 99}, {"time": 3927, "pitch": 63, "duration": 8, "velocity": 100}, {"time": 3933, "pitch": 55, "duration": 7, "velocity": 93}, {"time": 3939, "pitch": 46, "duration": 14, "velocity": 97}, {"time": 3945, "pitch": 50, "duration": 8, "velocity": 53}, {"time": 3951, "pitch": 58, "duration": 15, "velocity": 102}, {"time": 3951, "pitch": 62, "duration": 16, "velocity": 89}, {"time": 3951, "pitch": 65, "duration": 17, "velocity": 75}, {"time": 3957, "pitch": 46, "duration": 2, "velocity": 60}, {"time": 3957, "pitch": 50, "duration": 1, "velocity": 47}, {"time": 3957, "pitch": 53, "duration": 2, "velocity": 63}, {"time": 3963, "pitch": 46, "duration": 12, "velocity": 66}, {"time": 3963, "pitch": 53, "duration": 12, "velocity": 74}, {"time": 3969, "pitch": 58, "duration": 7, "velocity": 83}, {"time": 3975, "pitch": 62, "duration": 14, "velocity": 83}, {"time": 3975, "pitch": 65, "duration": 13, "velocity": 92}, {"time": 3981, "pitch": 58, "duration": 12, "velocity": 97}, {"time": 3987, "pitch": 36, "duration": 15, "velocity": 77}, {"time": 3993, "pitch": 43, "duration": 10, "velocity": 43}, {"time": 3999, "pitch": 55, "duration": 17, "velocity": 73}, {"time": 3999, "pitch": 60, "duration": 18, "velocity": 83}, {"time": 3999, "pitch": 63, "duration": 18, "velocity": 92}, {"time": 4005, "pitch": 36, "duration": 2, "velocity": 83}, {"time": 4011, "pitch": 36, "duration": 13, "velocity": 85}, {"time": 4017, "pitch": 43, "duration": 9, "velocity": 73}, {"time": 4023, "pitch": 60, "duration": 12, "velocity": 89}, {"time": 4023, "pitch": 63, "duration": 12, "velocity": 97}, {"time": 4029, "pitch": 55, "duration": 7, "velocity": 88}, {"time": 4035, "pitch": 43, "duration": 15, "velocity": 75}, {"time": 4041, "pitch": 50, "duration": 11, "velocity": 59}, {"time": 4047, "pitch": 58, "duration": 16, "velocity": 99}, {"time": 4047, "pitch": 62, "duration": 15, "velocity": 92}, {"time": 4053, "pitch": 43, "duration": 2, "velocity": 85}, {"time": 4059, "pitch": 43, "duration": 12, "velocity": 83}, {"time": 4065, "pitch": 55, "duration": 7, "velocity": 93}, {"time": 4071, "pitch": 58, "duration": 12, "velocity": 102}, {"time": 4071, "pitch": 62, "duration": 12, "velocity": 93}, {"time": 4077, "pitch": 55, "duration": 6, "velocity": 81}, {"time": 4083, "pitch": 44, "duration": 14, "velocity": 92}, {"time": 4089, "pitch": 51, "duration": 12, "velocity": 36}, {"time": 4095, "pitch": 56, "duration": 5, "velocity": 83}, {"time": 4095, "pitch": 60, "duration": 22, "velocity": 81}, {"time": 4095, "pitch": 63, "duration": 21, "velocity": 97}, {"time": 4101, "pitch": 44, "duration": 2, "velocity": 86}, {"time": 4107, "pitch": 44, "duration": 14, "velocity": 96}, {"time": 4113, "pitch": 56, "duration": 6, "velocity": 93}, {"time": 4119, "pitch": 63, "duration": 11, "velocity": 112}, {"time": 4119, "pitch": 68, "duration": 11, "velocity": 112}, {"time": 4125, "pitch": 60, "duration": 6, "velocity": 86}, {"time": 4131, "pitch": 39, "duration": 15, "velocity": 89}, {"time": 4137, "pitch": 51, "duration": 9, "velocity": 71}, {"time": 4143, "pitch": 55, "duration": 13, "velocity": 59}, {"time": 4143, "pitch": 58, "duration": 20, "velocity": 107}, {"time": 4143, "pitch": 63, "duration": 20, "velocity": 100}, {"time": 4149, "pitch": 39, "duration": 2, "velocity": 95}, {"time": 4155, "pitch": 39, "duration": 14, "velocity": 96}, {"time": 4161, "pitch": 51, "duration": 9, "velocity": 93}, {"time": 4167, "pitch": 58, "duration": 11, "velocity": 112}, {"time": 4167, "pitch": 63, "duration": 12, "velocity": 117}, {"time": 4173, "pitch": 55, "duration": 5, "velocity": 92}, {"time": 4179, "pitch": 46, "duration": 14, "velocity": 102}, {"time": 4185, "pitch": 50, "duration": 9, "velocity": 66}, {"time": 4191, "pitch": 58, "duration": 13, "velocity": 89}, {"time": 4191, "pitch": 62, "duration": 13, "velocity": 78}, {"time": 4191, "pitch": 65, "duration": 12, "velocity": 71}, {"time": 4197, "pitch": 46, "duration": 2, "velocity": 86}, {"time": 4203, "pitch": 46, "duration": 15, "velocity": 85}, {"time": 4209, "pitch": 53, "duration": 10, "velocity": 78}, {"time": 4209, "pitch": 58, "duration": 11, "velocity": 93}, {"time": 4209, "pitch": 62, "duration": 10, "velocity": 86}, {"time": 4209, "pitch": 65, "duration": 10, "velocity": 55}, {"time": 4221, "pitch": 53, "duration": 6, "velocity": 71}, {"time": 4221, "pitch": 58, "duration": 6, "velocity": 82}, {"time": 4221, "pitch": 62, "duration": 6, "velocity": 75}, {"time": 4221, "pitch": 65, "duration": 5, "velocity": 52}, {"time": 4227, "pitch": 39, "duration": 15, "velocity": 77}, {"time": 4233, "pitch": 51, "duration": 9, "velocity": 52}, {"time": 4239, "pitch": 58, "duration": 14, "velocity": 90}, {"time": 4239, "pitch": 63, "duration": 14, "velocity": 88}, {"time": 4239, "pitch": 67, "duration": 14, "velocity": 66}, {"time": 4245, "pitch": 39, "duration": 2, "velocity": 72}, {"time": 4251, "pitch": 39, "duration": 22, "velocity": 82}, {"time": 4257, "pitch": 58, "duration": 7, "velocity": 96}, {"time": 4263, "pitch": 63, "duration": 11, "velocity": 100}, {"time": 4263, "pitch": 67, "duration": 11, "velocity": 82}, {"time": 4269, "pitch": 58, "duration": 5, "velocity": 102}, {"time": 4275, "pitch": 44, "duration": 15, "velocity": 83}, {"time": 4281, "pitch": 51, "duration": 11, "velocity": 56}, {"time": 4287, "pitch": 56, "duration": 5, "velocity": 51}, {"time": 4287, "pitch": 60, "duration": 19, "velocity": 74}, {"time": 4287, "pitch": 63, "duration": 20, "velocity": 81}, {"time": 4293, "pitch": 44, "duration": 2, "velocity": 97}, {"time": 4299, "pitch": 44, "duration": 13, "velocity": 93}, {"time": 4305, "pitch": 56, "duration": 5, "velocity": 83}, {"time": 4311, "pitch": 63, "duration": 12, "velocity": 102}, {"time": 4311, "pitch": 68, "duration": 12, "velocity": 99}, {"time": 4317, "pitch": 60, "duration": 6, "velocity": 90}, {"time": 4323, "pitch": 39, "duration": 16, "velocity": 89}, {"time": 4329, "pitch": 46, "duration": 10, "velocity": 52}, {"time": 4335, "pitch": 58, "duration": 20, "velocity": 102}, {"time": 4335, "pitch": 63, "duration": 20, "velocity": 97}, {"time": 4341, "pitch": 39, "duration": 2, "velocity": 59}, {"time": 4341, "pitch": 46, "duration": 2, "velocity": 57}, {"time": 4341, "pitch": 51, "duration": 2, "velocity": 69}, {"time": 4347, "pitch": 39, "duration": 20, "velocity": 69}, {"time": 4347, "pitch": 51, "duration": 24, "velocity": 90}, {"time": 4353, "pitch": 55, "duration": 7, "velocity": 74}, {"time": 4359, "pitch": 58, "duration": 13, "velocity": 100}, {"time": 4359, "pitch": 63, "duration": 12, "velocity": 100}, {"time": 4368, "pitch": 55, "duration": 6, "velocity": 83}, {"time": 4374, "pitch": 46, "duration": 17, "velocity": 86}, {"time": 4380, "pitch": 50, "duration": 10, "velocity": 55}, {"time": 4389, "pitch": 58, "duration": 14, "velocity": 117}, {"time": 4389, "pitch": 62, "duration": 14, "velocity": 96}, {"time": 4389, "pitch": 65, "duration": 14, "velocity": 85}, {"time": 4395, "pitch": 46, "duration": 5, "velocity": 77}, {"time": 4395, "pitch": 50, "duration": 5, "velocity": 66}, {"time": 4395, "pitch": 53, "duration": 4, "velocity": 70}, {"time": 4404, "pitch": 46, "duration": 51, "velocity": 99}, {"time": 4404, "pitch": 50, "duration": 50, "velocity": 76}, {"time": 4404, "pitch": 53, "duration": 50, "velocity": 73}, {"time": 4458, "pitch": 51, "duration": 16, "velocity": 83}, {"time": 4458, "pitch": 39, "duration": 17, "velocity": 92}, {"time": 4458, "pitch": 63, "duration": 16, "velocity": 93}, {"time": 4458, "pitch": 58, "duration": 16, "velocity": 96}, {"time": 4458, "pitch": 67, "duration": 16, "velocity": 56}, {"time": 4477, "pitch": 58, "duration": 4, "velocity": 74}, {"time": 4477, "pitch": 39, "duration": 5, "velocity": 69}, {"time": 4477, "pitch": 51, "duration": 4, "velocity": 72}, {"time": 4477, "pitch": 63, "duration": 4, "velocity": 43}, {"time": 4477, "pitch": 67, "duration": 4, "velocity": 52}, {"time": 4484, "pitch": 39, "duration": 8, "velocity": 73}, {"time": 4484, "pitch": 63, "duration": 4, "velocity": 102}, {"time": 4484, "pitch": 58, "duration": 4, "velocity": 99}, {"time": 4484, "pitch": 51, "duration": 4, "velocity": 86}, {"time": 4484, "pitch": 67, "duration": 4, "velocity": 75}, {"time": 4490, "pitch": 51, "duration": 5, "velocity": 99}, {"time": 4490, "pitch": 58, "duration": 4, "velocity": 100}, {"time": 4491, "pitch": 67, "duration": 1, "velocity": 40}, {"time": 4498, "pitch": 60, "duration": 18, "velocity": 92}, {"time": 4498, "pitch": 56, "duration": 18, "velocity": 97}, {"time": 4498, "pitch": 63, "duration": 18, "velocity": 93}, {"time": 4498, "pitch": 44, "duration": 19, "velocity": 102}, {"time": 4518, "pitch": 56, "duration": 5, "velocity": 60}, {"time": 4518, "pitch": 44, "duration": 6, "velocity": 62}, {"time": 4518, "pitch": 60, "duration": 5, "velocity": 66}, {"time": 4519, "pitch": 63, "duration": 4, "velocity": 64}, {"time": 4525, "pitch": 44, "duration": 12, "velocity": 107}, {"time": 4526, "pitch": 60, "duration": 7, "velocity": 127}, {"time": 4526, "pitch": 63, "duration": 7, "velocity": 127}, {"time": 4526, "pitch": 56, "duration": 5, "velocity": 107}, {"time": 4538, "pitch": 63, "duration": 13, "velocity": 122}, {"time": 4538, "pitch": 59, "duration": 13, "velocity": 97}, {"time": 4538, "pitch": 66, "duration": 13, "velocity": 107}, {"time": 4538, "pitch": 47, "duration": 13, "velocity": 107}, {"time": 4553, "pitch": 49, "duration": 9, "velocity": 96}, {"time": 4554, "pitch": 65, "duration": 7, "velocity": 102}, {"time": 4554, "pitch": 61, "duration": 8, "velocity": 112}, {"time": 4554, "pitch": 68, "duration": 7, "velocity": 112}, {"time": 4572, "pitch": 39, "duration": 112, "velocity": 117}, {"time": 4572, "pitch": 51, "duration": 112, "velocity": 117}, {"time": 4572, "pitch": 58, "duration": 112, "velocity": 127}, {"time": 4572, "pitch": 63, "duration": 111, "velocity": 127}, {"time": 4572, "pitch": 67, "duration": 111, "velocity": 99}], "annotations": [{"time": 3, "annotation": {"number": 64, "value": 127}, "group": "control_change"}, {"time": 49, "annotation": {"number": 64, "value": 0}, "group": "control_change"}, {"time": 51, "annotation": {"number": 64, "value": 127}, "group": "control_change"}, {"time": 96, "annotation": {"number": 64, "value": 0}, "group": "control_change"}, {"time": 99, "annotation": {"number": 64, "value": 127}, "group": "control_change"}, {"time": 120, "annotation": {"number": 64, "value": 0}, "group": "control_change"}, {"time": 123, "annotation": {"number": 64, "value": 127}, "group": "control_change"}, {"time": 131, "annotation": {"number": 64, "value": 0}, "group": "control_change"}, {"time": 136, "annotation": {"number": 64, "value": 127}, "group": "control_change"}, {"time": 142, "annotation": {"number": 64, "value": 0}, "group": "control_change"}, {"time": 148, "annotation": {"number": 64, "value": 127}, "group": "control_change"}, {"time": 191, "annotation": {"number": 64, "value": 0}, "group": "control_change"}, {"time": 194, "annotation": {"number": 64, "value": 127}, "group": "control_change"}, {"time": 238, "annotation": {"number": 64, "value": 0}, "group": "control_change"}, {"time": 254, "annotation": {"number": 64, "value": 127}, "group": "control_change"}, {"time": 287, "annotation": {"number": 64, "value": 0}, "group": "control_change"}, {"time": 304, "annotation": {"number": 64, "value": 127}, "group": "control_change"}, {"time": 309, "annotation": {"number": 64, "value": 0}, "group": "control_change"}, {"time": 316, "annotation": {"number": 64, "value": 127}, "group": "control_change"}, {"time": 319, "annotation": {"number": 64, "value": 0}, "group": "control_change"}, {"time": 339, "annotation": {"number": 64, "value": 127}, "group": "control_change"}, {"time": 382, "annotation": {"number": 64, "value": 0}, "group": "control_change"}, {"time": 387, "annotation": {"number": 64, "value": 127}, "group": "control_change"}, {"time": 428, "annotation": {"number": 64, "value": 0}, "group": "control_change"}, {"time": 436, "annotation": {"number": 64, "value": 127}, "group": "control_change"}, {"time": 456, "annotation": {"number": 64, "value": 0}, "group": "control_change"}, {"time": 459, "annotation": {"number": 64, "value": 127}, "group": "control_change"}, {"time": 478, "annotation": {"number": 64, "value": 0}, "group": "control_change"}, {"time": 484, "annotation": {"number": 64, "value": 127}, "group": "control_change"}, {"time": 526, "annotation": {"number": 64, "value": 0}, "group": "control_change"}, {"time": 531, "annotation": {"number": 64, "value": 127}, "group": "control_change"}, {"time": 548, "annotation": {"number": 64, "value": 0}, "group": "control_change"}, {"time": 555, "annotation": {"number": 64, "value": 127}, "group": "control_change"}, {"time": 574, "annotation": {"number": 64, "value": 0}, "group": "control_change"}, {"time": 579, "annotation": {"number": 64, "value": 127}, "group": "control_change"}, {"time": 622, "annotation": {"number": 64, "value": 0}, "group": "control_change"}, {"time": 628, "annotation": {"number": 64, "value": 127}, "group": "control_change"}, {"time": 648, "annotation": {"number": 64, "value": 0}, "group": "control_change"}, {"time": 651, "annotation": {"number": 64, "value": 127}, "group": "control_change"}, {"time": 670, "annotation": {"number": 64, "value": 0}, "group": "control_change"}, {"time": 674, "annotation": {"number": 64, "value": 127}, "group": "control_change"}, {"time": 718, "annotation": {"number": 64, "value": 0}, "group": "control_change"}, {"time": 723, "annotation": {"number": 64, "value": 127}, "group": "control_change"}, {"time": 746, "annotation": {"number": 64, "value": 127}, "group": "control_change"}, {"time": 767, "annotation": {"number": 64, "value": 0}, "group": "control_change"}, {"time": 771, "annotation": {"number": 64, "value": 127}, "group": "control_change"}, {"time": 814, "annotation": {"number": 64, "value": 0}, "group": "control_change"}, {"time": 819, "annotation": {"number": 64, "value": 127}, "group": "control_change"}, {"time": 862, "annotation": {"number": 64, "value": 0}, "group": "control_change"}, {"time": 867, "annotation": {"number": 64, "value": 127}, "group": "control_change"}, {"time": 911, "annotation": {"number": 64, "value": 0}, "group": "control_change"}, {"time": 917, "annotation": {"number": 64, "value": 127}, "group": "control_change"}, {"time": 937, "annotation": {"number": 64, "value": 0}, "group": "control_change"}, {"time": 962, "annotation": {"number": 64, "value": 127}, "group": "control_change"}, {"time": 1006, "annotation": {"number": 64, "value": 0}, "group": "control_change"}, {"time": 1012, "annotation": {"number": 64, "value": 127}, "group": "control_change"}, {"time": 1054, "annotation": {"number": 64, "value": 0}, "group": "control_change"}, {"time": 1060, "annotation": {"number": 64, "value": 127}, "group": "control_change"}, {"time": 1097, "annotation": {"number": 64, "value": 0}, "group": "control_change"}, {"time": 1108, "annotation": {"number": 64, "value": 127}, "group": "control_change"}, {"time": 1129, "annotation": {"number": 64, "value": 0}, "group": "control_change"}, {"time": 1135, "annotation": {"number": 64, "value": 127}, "group": "control_change"}, {"time": 1146, "annotation": {"number": 64, "value": 0}, "group": "control_change"}, {"time": 1155, "annotation": {"number": 64, "value": 127}, "group": "control_change"}, {"time": 1195, "annotation": {"number": 64, "value": 0}, "group": "control_change"}, {"time": 1204, "annotation": {"number": 64, "value": 127}, "group": "control_change"}, {"time": 1224, "annotation": {"number": 64, "value": 0}, "group": "control_change"}, {"time": 1227, "annotation": {"number": 64, "value": 127}, "group": "control_change"}, {"time": 1246, "annotation": {"number": 64, "value": 0}, "group": "control_change"}, {"time": 1252, "annotation": {"number": 64, "value": 127}, "group": "control_change"}, {"time": 1294, "annotation": {"number": 64, "value": 0}, "group": "control_change"}, {"time": 1299, "annotation": {"number": 64, "value": 127}, "group": "control_change"}, {"time": 1316, "annotation": {"number": 64, "value": 0}, "group": "control_change"}, {"time": 1323, "annotation": {"number": 64, "value": 127}, "group": "control_change"}, {"time": 1342, "annotation": {"number": 64, "value": 0}, "group": "control_change"}, {"time": 1347, "annotation": {"number": 64, "value": 127}, "group": "control_change"}, {"time": 1390, "annotation": {"number": 64, "value": 0}, "group": "control_change"}, {"time": 1396, "annotation": {"number": 64, "value": 127}, "group": "control_change"}, {"time": 1416, "annotation": {"number": 64, "value": 0}, "group": "control_change"}, {"time": 1419, "annotation": {"number": 64, "value": 127}, "group": "control_change"}, {"time": 1438, "annotation": {"number": 64, "value": 0}, "group": "control_change"}, {"time": 1442, "annotation": {"number": 64, "value": 127}, "group": "control_change"}, {"time": 1486, "annotation": {"number": 64, "value": 0}, "group": "control_change"}, {"time": 1491, "annotation": {"number": 64, "value": 127}, "group": "control_change"}, {"time": 1514, "annotation": {"number": 64, "value": 127}, "group": "control_change"}, {"time": 1535, "annotation": {"number": 64, "value": 0}, "group": "control_change"}, {"time": 1539, "annotation": {"number": 64, "value": 127}, "group": "control_change"}, {"time": 1582, "annotation": {"number": 64, "value": 0}, "group": "control_change"}, {"time": 1587, "annotation": {"number": 64, "value": 127}, "group": "control_change"}, {"time": 1630, "annotation": {"number": 64, "value": 0}, "group": "control_change"}, {"time": 1635, "annotation": {"number": 64, "value": 127}, "group": "control_change"}, {"time": 1679, "annotation": {"number": 64, "value": 0}, "group": "control_change"}, {"time": 1685, "annotation": {"number": 64, "value": 127}, "group": "control_change"}, {"time": 1705, "annotation": {"number": 64, "value": 0}, "group": "control_change"}, {"time": 1730, "annotation": {"number": 64, "value": 127}, "group": "control_change"}, {"time": 1774, "annotation": {"number": 64, "value": 0}, "group": "control_change"}, {"time": 1780, "annotation": {"number": 64, "value": 127}, "group": "control_change"}, {"time": 1822, "annotation": {"number": 64, "value": 0}, "group": "control_change"}, {"time": 1828, "annotation": {"number": 64, "value": 127}, "group": "control_change"}, {"time": 1865, "annotation": {"number": 64, "value": 0}, "group": "control_change"}, {"time": 1876, "annotation": {"number": 64, "value": 127}, "group": "control_change"}, {"time": 1897, "annotation": {"number": 64, "value": 0}, "group": "control_change"}, {"time": 1903, "annotation": {"number": 64, "value": 127}, "group": "control_change"}, {"time": 1914, "annotation": {"number": 64, "value": 0}, "group": "control_change"}, {"time": 1923, "annotation": {"number": 64, "value": 127}, "group": "control_change"}, {"time": 1963, "annotation": {"number": 64, "value": 0}, "group": "control_change"}, {"time": 1972, "annotation": {"number": 64, "value": 127}, "group": "control_change"}, {"time": 1978, "annotation": {"number": 64, "value": 0}, "group": "control_change"}, {"time": 1995, "annotation": {"number": 64, "value": 127}, "group": "control_change"}, {"time": 2016, "annotation": {"number": 64, "value": 0}, "group": "control_change"}, {"time": 2044, "annotation": {"number": 64, "value": 127}, "group": "control_change"}, {"time": 2063, "annotation": {"number": 64, "value": 0}, "group": "control_change"}, {"time": 2066, "annotation": {"number": 64, "value": 127}, "group": "control_change"}, {"time": 2081, "annotation": {"number": 64, "value": 0}, "group": "control_change"}, {"time": 2087, "annotation": {"number": 64, "value": 127}, "group": "control_change"}, {"time": 2088, "annotation": {"number": 64, "value": 0}, "group": "control_change"}, {"time": 2091, "annotation": {"number": 64, "value": 127}, "group": "control_change"}, {"time": 2112, "annotation": {"number": 64, "value": 0}, "group": "control_change"}, {"time": 2115, "annotation": {"number": 64, "value": 127}, "group": "control_change"}, {"time": 2129, "annotation": {"number": 64, "value": 0}, "group": "control_change"}, {"time": 2140, "annotation": {"number": 64, "value": 127}, "group": "control_change"}, {"time": 2143, "annotation": {"number": 64, "value": 0}, "group": "control_change"}, {"time": 2151, "annotation": {"number": 64, "value": 127}, "group": "control_change"}, {"time": 2157, "annotation": {"number": 64, "value": 0}, "group": "control_change"}, {"time": 2163, "annotation": {"number": 64, "value": 127}, "group": "control_change"}, {"time": 2164, "annotation": {"number": 64, "value": 0}, "group": "control_change"}, {"time": 2187, "annotation": {"number": 64, "value": 127}, "group": "control_change"}, {"time": 2208, "annotation": {"number": 64, "value": 0}, "group": "control_change"}, {"time": 2211, "annotation": {"number": 64, "value": 127}, "group": "control_change"}, {"time": 2225, "annotation": {"number": 64, "value": 0}, "group": "control_change"}, {"time": 2230, "annotation": {"number": 64, "value": 127}, "group": "control_change"}, {"time": 2232, "annotation": {"number": 64, "value": 0}, "group": "control_change"}, {"time": 2236, "annotation": {"number": 64, "value": 127}, "group": "control_change"}, {"time": 2254, "annotation": {"number": 64, "value": 0}, "group": "control_change"}, {"time": 2259, "annotation": {"number": 64, "value": 127}, "group": "control_change"}, {"time": 2272, "annotation": {"number": 64, "value": 0}, "group": "control_change"}, {"time": 2287, "annotation": {"number": 64, "value": 127}, "group": "control_change"}, {"time": 2302, "annotation": {"number": 64, "value": 0}, "group": "control_change"}, {"time": 2308, "annotation": {"number": 64, "value": 127}, "group": "control_change"}, {"time": 2314, "annotation": {"number": 64, "value": 0}, "group": "control_change"}, {"time": 2335, "annotation": {"number": 64, "value": 127}, "group": "control_change"}, {"time": 2351, "annotation": {"number": 64, "value": 0}, "group": "control_change"}, {"time": 2354, "annotation": {"number": 64, "value": 127}, "group": "control_change"}, {"time": 2369, "annotation": {"number": 64, "value": 0}, "group": "control_change"}, {"time": 2372, "annotation": {"number": 64, "value": 127}, "group": "control_change"}, {"time": 2376, "annotation": {"number": 64, "value": 0}, "group": "control_change"}, {"time": 2379, "annotation": {"number": 64, "value": 127}, "group": "control_change"}, {"time": 2399, "annotation": {"number": 64, "value": 0}, "group": "control_change"}, {"time": 2406, "annotation": {"number": 64, "value": 127}, "group": "control_change"}, {"time": 2416, "annotation": {"number": 64, "value": 0}, "group": "control_change"}, {"time": 2427, "annotation": {"number": 64, "value": 127}, "group": "control_change"}, {"time": 2447, "annotation": {"number": 64, "value": 0}, "group": "control_change"}, {"time": 2451, "annotation": {"number": 64, "value": 127}, "group": "control_change"}, {"time": 2465, "annotation": {"number": 64, "value": 0}, "group": "control_change"}, {"time": 2470, "annotation": {"number": 64, "value": 127}, "group": "control_change"}, {"time": 2472, "annotation": {"number": 64, "value": 0}, "group": "control_change"}, {"time": 2475, "annotation": {"number": 64, "value": 127}, "group": "control_change"}, {"time": 2481, "annotation": {"number": 64, "value": 0}, "group": "control_change"}, {"time": 2484, "annotation": {"number": 64, "value": 127}, "group": "control_change"}, {"time": 2494, "annotation": {"number": 64, "value": 0}, "group": "control_change"}, {"time": 2499, "annotation": {"number": 64, "value": 127}, "group": "control_change"}, {"time": 2511, "annotation": {"number": 64, "value": 0}, "group": "control_change"}, {"time": 2523, "annotation": {"number": 64, "value": 127}, "group": "control_change"}, {"time": 2543, "annotation": {"number": 64, "value": 0}, "group": "control_change"}, {"time": 2547, "annotation": {"number": 64, "value": 127}, "group": "control_change"}, {"time": 2559, "annotation": {"number": 64, "value": 0}, "group": "control_change"}, {"time": 2572, "annotation": {"number": 64, "value": 127}, "group": "control_change"}, {"time": 2591, "annotation": {"number": 64, "value": 0}, "group": "control_change"}, {"time": 2594, "annotation": {"number": 64, "value": 127}, "group": "control_change"}, {"time": 2609, "annotation": {"number": 64, "value": 0}, "group": "control_change"}, {"time": 2613, "annotation": {"number": 64, "value": 127}, "group": "control_change"}, {"time": 2614, "annotation": {"number": 64, "value": 0}, "group": "control_change"}, {"time": 2644, "annotation": {"number": 64, "value": 127}, "group": "control_change"}, {"time": 2657, "annotation": {"number": 64, "value": 0}, "group": "control_change"}, {"time": 2661, "annotation": {"number": 64, "value": 127}, "group": "control_change"}, {"time": 2677, "annotation": {"number": 64, "value": 0}, "group": "control_change"}, {"time": 2677, "annotation": {"number": 64, "value": 127}, "group": "control_change"}, {"time": 2686, "annotation": {"number": 64, "value": 0}, "group": "control_change"}, {"time": 2690, "annotation": {"number": 64, "value": 127}, "group": "control_change"}, {"time": 2703, "annotation": {"number": 64, "value": 0}, "group": "control_change"}, {"time": 2870, "annotation": {"number": 64, "value": 127}, "group": "control_change"}, {"time": 2877, "annotation": {"number": 64, "value": 0}, "group": "control_change"}, {"time": 2884, "annotation": {"number": 64, "value": 127}, "group": "control_change"}, {"time": 2886, "annotation": {"number": 64, "value": 0}, "group": "control_change"}, {"time": 2921, "annotation": {"number": 64, "value": 127}, "group": "control_change"}, {"time": 2924, "annotation": {"number": 64, "value": 0}, "group": "control_change"}, {"time": 2935, "annotation": {"number": 64, "value": 127}, "group": "control_change"}, {"time": 2936, "annotation": {"number": 64, "value": 0}, "group": "control_change"}, {"time": 2956, "annotation": {"number": 64, "value": 127}, "group": "control_change"}, {"time": 2973, "annotation": {"number": 64, "value": 0}, "group": "control_change"}, {"time": 3003, "annotation": {"number": 64, "value": 127}, "group": "control_change"}, {"time": 3004, "annotation": {"number": 64, "value": 0}, "group": "control_change"}, {"time": 3099, "annotation": {"number": 64, "value": 127}, "group": "control_change"}, {"time": 3110, "annotation": {"number": 64, "value": 0}, "group": "control_change"}, {"time": 3123, "annotation": {"number": 64, "value": 127}, "group": "control_change"}, {"time": 3166, "annotation": {"number": 64, "value": 0}, "group": "control_change"}, {"time": 3171, "annotation": {"number": 64, "value": 127}, "group": "control_change"}, {"time": 3215, "annotation": {"number": 64, "value": 0}, "group": "control_change"}, {"time": 3221, "annotation": {"number": 64, "value": 127}, "group": "control_change"}, {"time": 3241, "annotation": {"number": 64, "value": 0}, "group": "control_change"}, {"time": 3266, "annotation": {"number": 64, "value": 127}, "group": "control_change"}, {"time": 3310, "annotation": {"number": 64, "value": 0}, "group": "control_change"}, {"time": 3316, "annotation": {"number": 64, "value": 127}, "group": "control_change"}, {"time": 3358, "annotation": {"number": 64, "value": 0}, "group": "control_change"}, {"time": 3364, "annotation": {"number": 64, "value": 127}, "group": "control_change"}, {"time": 3401, "annotation": {"number": 64, "value": 0}, "group": "control_change"}, {"time": 3412, "annotation": {"number": 64, "value": 127}, "group": "control_change"}, {"time": 3433, "annotation": {"number": 64, "value": 0}, "group": "control_change"}, {"time": 3439, "annotation": {"number": 64, "value": 127}, "group": "control_change"}, {"time": 3450, "annotation": {"number": 64, "value": 0}, "group": "control_change"}, {"time": 3459, "annotation": {"number": 64, "value": 127}, "group": "control_change"}, {"time": 3499, "annotation": {"number": 64, "value": 0}, "group": "control_change"}, {"time": 3508, "annotation": {"number": 64, "value": 127}, "group": "control_change"}, {"time": 3514, "annotation": {"number": 64, "value": 0}, "group": "control_change"}, {"time": 3531, "annotation": {"number": 64, "value": 127}, "group": "control_change"}, {"time": 3552, "annotation": {"number": 64, "value": 0}, "group": "control_change"}, {"time": 3580, "annotation": {"number": 64, "value": 127}, "group": "control_change"}, {"time": 3599, "annotation": {"number": 64, "value": 0}, "group": "control_change"}, {"time": 3602, "annotation": {"number": 64, "value": 127}, "group": "control_change"}, {"time": 3617, "annotation": {"number": 64, "value": 0}, "group": "control_change"}, {"time": 3623, "annotation": {"number": 64, "value": 127}, "group": "control_change"}, {"time": 3624, "annotation": {"number": 64, "value": 0}, "group": "control_change"}, {"time": 3627, "annotation": {"number": 64, "value": 127}, "group": "control_change"}, {"time": 3648, "annotation": {"number": 64, "value": 0}, "group": "control_change"}, {"time": 3651, "annotation": {"number": 64, "value": 127}, "group": "control_change"}, {"time": 3665, "annotation": {"number": 64, "value": 0}, "group": "control_change"}, {"time": 3676, "annotation": {"number": 64, "value": 127}, "group": "control_change"}, {"time": 3679, "annotation": {"number": 64, "value": 0}, "group": "control_change"}, {"time": 3687, "annotation": {"number": 64, "value": 127}, "group": "control_change"}, {"time": 3693, "annotation": {"number": 64, "value": 0}, "group": "control_change"}, {"time": 3699, "annotation": {"number": 64, "value": 127}, "group": "control_change"}, {"time": 3700, "annotation": {"number": 64, "value": 0}, "group": "control_change"}, {"time": 3723, "annotation": {"number": 64, "value": 127}, "group": "control_change"}, {"time": 3744, "annotation": {"number": 64, "value": 0}, "group": "control_change"}, {"time": 3747, "annotation": {"number": 64, "value": 127}, "group": "control_change"}, {"time": 3761, "annotation": {"number": 64, "value": 0}, "group": "control_change"}, {"time": 3766, "annotation": {"number": 64, "value": 127}, "group": "control_change"}, {"time": 3768, "annotation": {"number": 64, "value": 0}, "group": "control_change"}, {"time": 3772, "annotation": {"number": 64, "value": 127}, "group": "control_change"}, {"time": 3790, "annotation": {"number": 64, "value": 0}, "group": "control_change"}, {"time": 3795, "annotation": {"number": 64, "value": 127}, "group": "control_change"}, {"time": 3808, "annotation": {"number": 64, "value": 0}, "group": "control_change"}, {"time": 3823, "annotation": {"number": 64, "value": 127}, "group": "control_change"}, {"time": 3838, "annotation": {"number": 64, "value": 0}, "group": "control_change"}, {"time": 3844, "annotation": {"number": 64, "value": 127}, "group": "control_change"}, {"time": 3850, "annotation": {"number": 64, "value": 0}, "group": "control_change"}, {"time": 3871, "annotation": {"number": 64, "value": 127}, "group": "control_change"}, {"time": 3887, "annotation": {"number": 64, "value": 0}, "group": "control_change"}, {"time": 3890, "annotation": {"number": 64, "value": 127}, "group": "control_change"}, {"time": 3905, "annotation": {"number": 64, "value": 0}, "group": "control_change"}, {"time": 3908, "annotation": {"number": 64, "value": 127}, "group": "control_change"}, {"time": 3912, "annotation": {"number": 64, "value": 0}, "group": "control_change"}, {"time": 3915, "annotation": {"number": 64, "value": 127}, "group": "control_change"}, {"time": 3935, "annotation": {"number": 64, "value": 0}, "group": "control_change"}, {"time": 3942, "annotation": {"number": 64, "value": 127}, "group": "control_change"}, {"time": 3952, "annotation": {"number": 64, "value": 0}, "group": "control_change"}, {"time": 3963, "annotation": {"number": 64, "value": 127}, "group": "control_change"}, {"time": 3983, "annotation": {"number": 64, "value": 0}, "group": "control_change"}, {"time": 3987, "annotation": {"number": 64, "value": 127}, "group": "control_change"}, {"time": 4001, "annotation": {"number": 64, "value": 0}, "group": "control_change"}, {"time": 4006, "annotation": {"number": 64, "value": 127}, "group": "control_change"}, {"time": 4008, "annotation": {"number": 64, "value": 0}, "group": "control_change"}, {"time": 4011, "annotation": {"number": 64, "value": 127}, "group": "control_change"}, {"time": 4017, "annotation": {"number": 64, "value": 0}, "group": "control_change"}, {"time": 4020, "annotation": {"number": 64, "value": 127}, "group": "control_change"}, {"time": 4030, "annotation": {"number": 64, "value": 0}, "group": "control_change"}, {"time": 4035, "annotation": {"number": 64, "value": 127}, "group": "control_change"}, {"time": 4047, "annotation": {"number": 64, "value": 0}, "group": "control_change"}, {"time": 4059, "annotation": {"number": 64, "value": 127}, "group": "control_change"}, {"time": 4079, "annotation": {"number": 64, "value": 0}, "group": "control_change"}, {"time": 4083, "annotation": {"number": 64, "value": 127}, "group": "control_change"}, {"time": 4095, "annotation": {"number": 64, "value": 0}, "group": "control_change"}, {"time": 4108, "annotation": {"number": 64, "value": 127}, "group": "control_change"}, {"time": 4127, "annotation": {"number": 64, "value": 0}, "group": "control_change"}, {"time": 4130, "annotation": {"number": 64, "value": 127}, "group": "control_change"}, {"time": 4145, "annotation": {"number": 64, "value": 0}, "group": "control_change"}, {"time": 4149, "annotation": {"number": 64, "value": 127}, "group": "control_change"}, {"time": 4150, "annotation": {"number": 64, "value": 0}, "group": "control_change"}, {"time": 4180, "annotation": {"number": 64, "value": 127}, "group": "control_change"}, {"time": 4193, "annotation": {"number": 64, "value": 0}, "group": "control_change"}, {"time": 4197, "annotation": {"number": 64, "value": 127}, "group": "control_change"}, {"time": 4213, "annotation": {"number": 64, "value": 0}, "group": "control_change"}, {"time": 4213, "annotation": {"number": 64, "value": 127}, "group": "control_change"}, {"time": 4222, "annotation": {"number": 64, "value": 0}, "group": "control_change"}, {"time": 4226, "annotation": {"number": 64, "value": 127}, "group": "control_change"}, {"time": 4260, "annotation": {"number": 64, "value": 0}, "group": "control_change"}, {"time": 4275, "annotation": {"number": 64, "value": 127}, "group": "control_change"}, {"time": 4293, "annotation": {"number": 64, "value": 0}, "group": "control_change"}, {"time": 4302, "annotation": {"number": 64, "value": 127}, "group": "control_change"}, {"time": 4319, "annotation": {"number": 64, "value": 0}, "group": "control_change"}, {"time": 4323, "annotation": {"number": 64, "value": 127}, "group": "control_change"}, {"time": 4371, "annotation": {"number": 64, "value": 0}, "group": "control_change"}, {"time": 4377, "annotation": {"number": 64, "value": 127}, "group": "control_change"}, {"time": 4400, "annotation": {"number": 64, "value": 0}, "group": "control_change"}, {"time": 4462, "annotation": {"number": 64, "value": 127}, "group": "control_change"}, {"time": 4495, "annotation": {"number": 64, "value": 0}, "group": "control_change"}, {"time": 4500, "annotation": {"number": 64, "value": 127}, "group": "control_change"}, {"time": 4536, "annotation": {"number": 64, "value": 0}, "group": "control_change"}, {"time": 4542, "annotation": {"number": 64, "value": 127}, "group": "control_change"}, {"time": 4554, "annotation": {"number": 64, "value": 127}, "group": "control_change"}, {"time": 4571, "annotation": {"number": 64, "value": 0}, "group": "control_change"}, {"time": 4583, "annotation": {"number": 64, "value": 127}, "group": "control_change"}, {"time": 4693, "annotation": {"number": 64, "value": 0}, "group": "control_change"}, {"time": 4697, "annotation": {"number": 64, "value": 127}, "group": "control_change"}, {"time": 4697, "annotation": {"number": 64, "value": 0}, "group": "control_change"}]}]}