{"metadata": {"schema_version": "0.2", "title": "None", "source_filename": "483.mid", "source_format": "midi"}, "resolution": 12, "tempos": [{"time": 0, "qpm": 58.500115537728185}], "time_signatures": [{"time": 0, "numerator": 1, "denominator": 4}], "tracks": [{"program": 0, "is_drum": false, "name": "MELODY", "notes": [{"time": 447, "pitch": 63, "duration": 4, "velocity": 102}, {"time": 453, "pitch": 63, "duration": 1, "velocity": 112}, {"time": 456, "pitch": 63, "duration": 3, "velocity": 107}, {"time": 459, "pitch": 61, "duration": 1, "velocity": 122}, {"time": 462, "pitch": 61, "duration": 2, "velocity": 112}, {"time": 465, "pitch": 63, "duration": 1, "velocity": 107}, {"time": 468, "pitch": 61, "duration": 2, "velocity": 102}, {"time": 471, "pitch": 59, "duration": 1, "velocity": 78}, {"time": 474, "pitch": 58, "duration": 3, "velocity": 100}, {"time": 477, "pitch": 59, "duration": 8, "velocity": 83}, {"time": 489, "pitch": 59, "duration": 2, "velocity": 83}, {"time": 492, "pitch": 54, "duration": 3, "velocity": 75}, {"time": 495, "pitch": 54, "duration": 1, "velocity": 86}, {"time": 501, "pitch": 59, "duration": 5, "velocity": 99}, {"time": 513, "pitch": 59, "duration": 2, "velocity": 78}, {"time": 516, "pitch": 54, "duration": 1, "velocity": 72}, {"time": 519, "pitch": 54, "duration": 1, "velocity": 70}, {"time": 522, "pitch": 54, "duration": 1, "velocity": 85}, {"time": 525, "pitch": 59, "duration": 2, "velocity": 93}, {"time": 528, "pitch": 61, "duration": 5, "velocity": 99}, {"time": 543, "pitch": 63, "duration": 1, "velocity": 107}, {"time": 546, "pitch": 63, "duration": 1, "velocity": 99}, {"time": 549, "pitch": 63, "duration": 1, "velocity": 100}, {"time": 552, "pitch": 63, "duration": 2, "velocity": 122}, {"time": 555, "pitch": 61, "duration": 1, "velocity": 89}, {"time": 558, "pitch": 61, "duration": 2, "velocity": 117}, {"time": 561, "pitch": 63, "duration": 1, "velocity": 112}, {"time": 564, "pitch": 61, "duration": 2, "velocity": 112}, {"time": 567, "pitch": 59, "duration": 1, "velocity": 86}, {"time": 570, "pitch": 58, "duration": 2, "velocity": 96}, {"time": 573, "pitch": 59, "duration": 4, "velocity": 88}, {"time": 585, "pitch": 59, "duration": 2, "velocity": 83}, {"time": 588, "pitch": 54, "duration": 2, "velocity": 75}, {"time": 591, "pitch": 54, "duration": 1, "velocity": 92}, {"time": 597, "pitch": 59, "duration": 5, "velocity": 93}, {"time": 606, "pitch": 59, "duration": 1, "velocity": 88}, {"time": 609, "pitch": 59, "duration": 1, "velocity": 82}, {"time": 612, "pitch": 54, "duration": 2, "velocity": 90}, {"time": 615, "pitch": 54, "duration": 1, "velocity": 86}, {"time": 621, "pitch": 61, "duration": 7, "velocity": 107}, {"time": 639, "pitch": 63, "duration": 1, "velocity": 93}, {"time": 642, "pitch": 63, "duration": 1, "velocity": 97}, {"time": 645, "pitch": 63, "duration": 1, "velocity": 100}, {"time": 648, "pitch": 63, "duration": 1, "velocity": 122}, {"time": 651, "pitch": 61, "duration": 1, "velocity": 90}, {"time": 654, "pitch": 61, "duration": 1, "velocity": 100}, {"time": 657, "pitch": 63, "duration": 1, "velocity": 89}, {"time": 660, "pitch": 61, "duration": 1, "velocity": 100}, {"time": 663, "pitch": 59, "duration": 1, "velocity": 85}, {"time": 666, "pitch": 58, "duration": 2, "velocity": 93}, {"time": 669, "pitch": 59, "duration": 5, "velocity": 89}, {"time": 681, "pitch": 59, "duration": 1, "velocity": 83}, {"time": 684, "pitch": 54, "duration": 3, "velocity": 95}, {"time": 690, "pitch": 54, "duration": 2, "velocity": 96}, {"time": 693, "pitch": 59, "duration": 5, "velocity": 95}, {"time": 699, "pitch": 59, "duration": 1, "velocity": 107}, {"time": 705, "pitch": 59, "duration": 1, "velocity": 92}, {"time": 708, "pitch": 54, "duration": 4, "velocity": 86}, {"time": 714, "pitch": 54, "duration": 2, "velocity": 86}, {"time": 717, "pitch": 61, "duration": 4, "velocity": 107}, {"time": 723, "pitch": 61, "duration": 2, "velocity": 127}, {"time": 735, "pitch": 63, "duration": 1, "velocity": 112}, {"time": 738, "pitch": 63, "duration": 1, "velocity": 95}, {"time": 741, "pitch": 63, "duration": 1, "velocity": 107}, {"time": 744, "pitch": 63, "duration": 1, "velocity": 107}, {"time": 747, "pitch": 61, "duration": 1, "velocity": 96}, {"time": 750, "pitch": 61, "duration": 1, "velocity": 100}, {"time": 753, "pitch": 63, "duration": 1, "velocity": 89}, {"time": 756, "pitch": 61, "duration": 1, "velocity": 112}, {"time": 759, "pitch": 59, "duration": 3, "velocity": 93}, {"time": 762, "pitch": 58, "duration": 2, "velocity": 93}, {"time": 765, "pitch": 59, "duration": 5, "velocity": 95}, {"time": 777, "pitch": 59, "duration": 2, "velocity": 89}, {"time": 780, "pitch": 54, "duration": 2, "velocity": 89}, {"time": 783, "pitch": 54, "duration": 1, "velocity": 88}, {"time": 789, "pitch": 59, "duration": 7, "velocity": 92}, {"time": 801, "pitch": 54, "duration": 1, "velocity": 92}, {"time": 804, "pitch": 61, "duration": 1, "velocity": 100}, {"time": 807, "pitch": 61, "duration": 1, "velocity": 107}, {"time": 810, "pitch": 61, "duration": 1, "velocity": 122}, {"time": 813, "pitch": 59, "duration": 1, "velocity": 95}, {"time": 816, "pitch": 63, "duration": 3, "velocity": 107}, {"time": 819, "pitch": 61, "duration": 1, "velocity": 102}, {"time": 822, "pitch": 61, "duration": 5, "velocity": 112}, {"time": 828, "pitch": 59, "duration": 6, "velocity": 96}, {"time": 834, "pitch": 63, "duration": 1, "velocity": 127}, {"time": 837, "pitch": 63, "duration": 1, "velocity": 102}, {"time": 840, "pitch": 61, "duration": 2, "velocity": 107}, {"time": 843, "pitch": 59, "duration": 1, "velocity": 83}, {"time": 846, "pitch": 59, "duration": 6, "velocity": 97}, {"time": 858, "pitch": 63, "duration": 1, "velocity": 112}, {"time": 861, "pitch": 63, "duration": 1, "velocity": 100}, {"time": 864, "pitch": 66, "duration": 2, "velocity": 100}, {"time": 867, "pitch": 61, "duration": 2, "velocity": 95}, {"time": 870, "pitch": 59, "duration": 6, "velocity": 100}, {"time": 876, "pitch": 59, "duration": 1, "velocity": 99}, {"time": 882, "pitch": 56, "duration": 2, "velocity": 97}, {"time": 885, "pitch": 59, "duration": 4, "velocity": 97}, {"time": 891, "pitch": 59, "duration": 2, "velocity": 92}, {"time": 894, "pitch": 54, "duration": 1, "velocity": 88}, {"time": 897, "pitch": 54, "duration": 1, "velocity": 70}, {"time": 900, "pitch": 61, "duration": 2, "velocity": 97}, {"time": 903, "pitch": 61, "duration": 1, "velocity": 107}, {"time": 906, "pitch": 61, "duration": 1, "velocity": 112}, {"time": 909, "pitch": 59, "duration": 1, "velocity": 86}, {"time": 912, "pitch": 63, "duration": 4, "velocity": 112}, {"time": 918, "pitch": 63, "duration": 7, "velocity": 112}, {"time": 930, "pitch": 63, "duration": 1, "velocity": 102}, {"time": 933, "pitch": 63, "duration": 1, "velocity": 99}, {"time": 936, "pitch": 61, "duration": 2, "velocity": 112}, {"time": 939, "pitch": 59, "duration": 1, "velocity": 82}, {"time": 942, "pitch": 59, "duration": 4, "velocity": 96}, {"time": 954, "pitch": 63, "duration": 1, "velocity": 102}, {"time": 957, "pitch": 63, "duration": 1, "velocity": 112}, {"time": 960, "pitch": 66, "duration": 1, "velocity": 117}, {"time": 963, "pitch": 63, "duration": 1, "velocity": 97}, {"time": 966, "pitch": 59, "duration": 5, "velocity": 96}, {"time": 975, "pitch": 54, "duration": 1, "velocity": 92}, {"time": 978, "pitch": 59, "duration": 1, "velocity": 112}, {"time": 981, "pitch": 59, "duration": 1, "velocity": 89}, {"time": 984, "pitch": 59, "duration": 1, "velocity": 92}, {"time": 987, "pitch": 59, "duration": 1, "velocity": 127}, {"time": 993, "pitch": 54, "duration": 1, "velocity": 96}, {"time": 996, "pitch": 61, "duration": 1, "velocity": 97}, {"time": 999, "pitch": 61, "duration": 1, "velocity": 107}, {"time": 1002, "pitch": 61, "duration": 1, "velocity": 117}, {"time": 1005, "pitch": 59, "duration": 1, "velocity": 90}, {"time": 1008, "pitch": 63, "duration": 4, "velocity": 122}, {"time": 1014, "pitch": 63, "duration": 5, "velocity": 127}, {"time": 1020, "pitch": 64, "duration": 1, "velocity": 102}, {"time": 1023, "pitch": 64, "duration": 1, "velocity": 93}, {"time": 1026, "pitch": 64, "duration": 1, "velocity": 93}, {"time": 1029, "pitch": 64, "duration": 1, "velocity": 97}, {"time": 1032, "pitch": 66, "duration": 4, "velocity": 117}, {"time": 1038, "pitch": 66, "duration": 3, "velocity": 117}, {"time": 1044, "pitch": 63, "duration": 2, "velocity": 117}, {"time": 1047, "pitch": 61, "duration": 1, "velocity": 100}, {"time": 1050, "pitch": 61, "duration": 1, "velocity": 127}, {"time": 1053, "pitch": 59, "duration": 1, "velocity": 99}, {"time": 1056, "pitch": 61, "duration": 3, "velocity": 122}, {"time": 1068, "pitch": 63, "duration": 1, "velocity": 122}, {"time": 1071, "pitch": 63, "duration": 1, "velocity": 102}, {"time": 1074, "pitch": 63, "duration": 1, "velocity": 97}, {"time": 1077, "pitch": 63, "duration": 1, "velocity": 112}, {"time": 1080, "pitch": 66, "duration": 5, "velocity": 127}, {"time": 1086, "pitch": 68, "duration": 3, "velocity": 127}, {"time": 1092, "pitch": 59, "duration": 4, "velocity": 122}, {"time": 1098, "pitch": 58, "duration": 4, "velocity": 112}, {"time": 1104, "pitch": 56, "duration": 5, "velocity": 112}, {"time": 1116, "pitch": 64, "duration": 1, "velocity": 99}, {"time": 1119, "pitch": 64, "duration": 1, "velocity": 86}, {"time": 1122, "pitch": 64, "duration": 1, "velocity": 95}, {"time": 1125, "pitch": 64, "duration": 1, "velocity": 93}, {"time": 1128, "pitch": 66, "duration": 4, "velocity": 127}, {"time": 1134, "pitch": 66, "duration": 1, "velocity": 127}, {"time": 1137, "pitch": 66, "duration": 1, "velocity": 117}, {"time": 1140, "pitch": 63, "duration": 3, "velocity": 122}, {"time": 1143, "pitch": 61, "duration": 1, "velocity": 79}, {"time": 1146, "pitch": 61, "duration": 2, "velocity": 112}, {"time": 1149, "pitch": 59, "duration": 3, "velocity": 82}, {"time": 1152, "pitch": 61, "duration": 4, "velocity": 112}, {"time": 1158, "pitch": 59, "duration": 2, "velocity": 99}, {"time": 1161, "pitch": 61, "duration": 1, "velocity": 99}, {"time": 1164, "pitch": 63, "duration": 4, "velocity": 122}, {"time": 1170, "pitch": 66, "duration": 4, "velocity": 100}, {"time": 1176, "pitch": 61, "duration": 6, "velocity": 112}, {"time": 1182, "pitch": 66, "duration": 5, "velocity": 122}, {"time": 1191, "pitch": 59, "duration": 15, "velocity": 95}, {"time": 1455, "pitch": 63, "duration": 4, "velocity": 102}, {"time": 1461, "pitch": 63, "duration": 1, "velocity": 112}, {"time": 1464, "pitch": 63, "duration": 3, "velocity": 107}, {"time": 1467, "pitch": 61, "duration": 1, "velocity": 122}, {"time": 1470, "pitch": 61, "duration": 2, "velocity": 112}, {"time": 1473, "pitch": 63, "duration": 1, "velocity": 107}, {"time": 1476, "pitch": 61, "duration": 2, "velocity": 102}, {"time": 1479, "pitch": 59, "duration": 1, "velocity": 78}, {"time": 1482, "pitch": 58, "duration": 3, "velocity": 100}, {"time": 1485, "pitch": 59, "duration": 8, "velocity": 83}, {"time": 1497, "pitch": 59, "duration": 2, "velocity": 83}, {"time": 1500, "pitch": 54, "duration": 3, "velocity": 75}, {"time": 1503, "pitch": 54, "duration": 1, "velocity": 86}, {"time": 1509, "pitch": 59, "duration": 5, "velocity": 99}, {"time": 1521, "pitch": 59, "duration": 2, "velocity": 78}, {"time": 1524, "pitch": 54, "duration": 1, "velocity": 72}, {"time": 1527, "pitch": 54, "duration": 1, "velocity": 70}, {"time": 1530, "pitch": 54, "duration": 1, "velocity": 85}, {"time": 1533, "pitch": 59, "duration": 2, "velocity": 93}, {"time": 1536, "pitch": 61, "duration": 5, "velocity": 99}, {"time": 1551, "pitch": 63, "duration": 1, "velocity": 107}, {"time": 1554, "pitch": 63, "duration": 1, "velocity": 99}, {"time": 1557, "pitch": 63, "duration": 1, "velocity": 100}, {"time": 1560, "pitch": 63, "duration": 2, "velocity": 122}, {"time": 1563, "pitch": 61, "duration": 1, "velocity": 89}, {"time": 1566, "pitch": 61, "duration": 2, "velocity": 117}, {"time": 1569, "pitch": 63, "duration": 1, "velocity": 112}, {"time": 1572, "pitch": 61, "duration": 2, "velocity": 112}, {"time": 1575, "pitch": 59, "duration": 1, "velocity": 86}, {"time": 1578, "pitch": 58, "duration": 2, "velocity": 96}, {"time": 1581, "pitch": 59, "duration": 4, "velocity": 88}, {"time": 1593, "pitch": 59, "duration": 2, "velocity": 83}, {"time": 1596, "pitch": 54, "duration": 2, "velocity": 75}, {"time": 1599, "pitch": 54, "duration": 1, "velocity": 92}, {"time": 1605, "pitch": 59, "duration": 5, "velocity": 93}, {"time": 1614, "pitch": 59, "duration": 1, "velocity": 88}, {"time": 1617, "pitch": 59, "duration": 1, "velocity": 82}, {"time": 1620, "pitch": 54, "duration": 2, "velocity": 90}, {"time": 1623, "pitch": 54, "duration": 1, "velocity": 86}, {"time": 1629, "pitch": 61, "duration": 7, "velocity": 107}, {"time": 1647, "pitch": 63, "duration": 1, "velocity": 93}, {"time": 1650, "pitch": 63, "duration": 1, "velocity": 97}, {"time": 1653, "pitch": 63, "duration": 1, "velocity": 100}, {"time": 1656, "pitch": 63, "duration": 1, "velocity": 122}, {"time": 1659, "pitch": 61, "duration": 1, "velocity": 90}, {"time": 1662, "pitch": 61, "duration": 1, "velocity": 100}, {"time": 1665, "pitch": 63, "duration": 1, "velocity": 89}, {"time": 1668, "pitch": 61, "duration": 1, "velocity": 100}, {"time": 1671, "pitch": 59, "duration": 1, "velocity": 85}, {"time": 1674, "pitch": 58, "duration": 2, "velocity": 93}, {"time": 1677, "pitch": 59, "duration": 5, "velocity": 89}, {"time": 1689, "pitch": 59, "duration": 1, "velocity": 83}, {"time": 1692, "pitch": 54, "duration": 3, "velocity": 95}, {"time": 1698, "pitch": 54, "duration": 2, "velocity": 96}, {"time": 1701, "pitch": 59, "duration": 5, "velocity": 95}, {"time": 1707, "pitch": 59, "duration": 1, "velocity": 107}, {"time": 1713, "pitch": 59, "duration": 1, "velocity": 92}, {"time": 1716, "pitch": 54, "duration": 4, "velocity": 86}, {"time": 1722, "pitch": 54, "duration": 2, "velocity": 86}, {"time": 1725, "pitch": 61, "duration": 4, "velocity": 107}, {"time": 1731, "pitch": 61, "duration": 2, "velocity": 127}, {"time": 1743, "pitch": 63, "duration": 1, "velocity": 112}, {"time": 1746, "pitch": 63, "duration": 1, "velocity": 95}, {"time": 1749, "pitch": 63, "duration": 1, "velocity": 107}, {"time": 1752, "pitch": 63, "duration": 1, "velocity": 107}, {"time": 1755, "pitch": 61, "duration": 1, "velocity": 96}, {"time": 1758, "pitch": 61, "duration": 1, "velocity": 100}, {"time": 1761, "pitch": 63, "duration": 1, "velocity": 89}, {"time": 1764, "pitch": 61, "duration": 1, "velocity": 112}, {"time": 1767, "pitch": 59, "duration": 3, "velocity": 93}, {"time": 1770, "pitch": 58, "duration": 2, "velocity": 93}, {"time": 1773, "pitch": 59, "duration": 5, "velocity": 95}, {"time": 1785, "pitch": 59, "duration": 2, "velocity": 89}, {"time": 1788, "pitch": 54, "duration": 2, "velocity": 89}, {"time": 1791, "pitch": 54, "duration": 1, "velocity": 88}, {"time": 1797, "pitch": 59, "duration": 7, "velocity": 92}, {"time": 1809, "pitch": 54, "duration": 1, "velocity": 92}, {"time": 1812, "pitch": 61, "duration": 1, "velocity": 100}, {"time": 1815, "pitch": 61, "duration": 1, "velocity": 107}, {"time": 1818, "pitch": 61, "duration": 1, "velocity": 122}, {"time": 1821, "pitch": 59, "duration": 1, "velocity": 95}, {"time": 1824, "pitch": 63, "duration": 3, "velocity": 107}, {"time": 1827, "pitch": 61, "duration": 1, "velocity": 102}, {"time": 1830, "pitch": 61, "duration": 5, "velocity": 112}, {"time": 1836, "pitch": 59, "duration": 6, "velocity": 96}, {"time": 1842, "pitch": 63, "duration": 1, "velocity": 127}, {"time": 1845, "pitch": 63, "duration": 1, "velocity": 102}, {"time": 1848, "pitch": 61, "duration": 2, "velocity": 107}, {"time": 1851, "pitch": 59, "duration": 1, "velocity": 83}, {"time": 1854, "pitch": 59, "duration": 6, "velocity": 97}, {"time": 1866, "pitch": 63, "duration": 1, "velocity": 112}, {"time": 1869, "pitch": 63, "duration": 1, "velocity": 100}, {"time": 1872, "pitch": 66, "duration": 2, "velocity": 100}, {"time": 1875, "pitch": 61, "duration": 2, "velocity": 95}, {"time": 1878, "pitch": 59, "duration": 6, "velocity": 100}, {"time": 1884, "pitch": 59, "duration": 1, "velocity": 99}, {"time": 1890, "pitch": 56, "duration": 2, "velocity": 97}, {"time": 1893, "pitch": 59, "duration": 4, "velocity": 97}, {"time": 1899, "pitch": 59, "duration": 2, "velocity": 92}, {"time": 1902, "pitch": 54, "duration": 1, "velocity": 88}, {"time": 1905, "pitch": 54, "duration": 1, "velocity": 70}, {"time": 1908, "pitch": 61, "duration": 2, "velocity": 97}, {"time": 1911, "pitch": 61, "duration": 1, "velocity": 107}, {"time": 1914, "pitch": 61, "duration": 1, "velocity": 112}, {"time": 1917, "pitch": 59, "duration": 1, "velocity": 86}, {"time": 1920, "pitch": 63, "duration": 4, "velocity": 112}, {"time": 1926, "pitch": 63, "duration": 7, "velocity": 112}, {"time": 1938, "pitch": 63, "duration": 1, "velocity": 102}, {"time": 1941, "pitch": 63, "duration": 1, "velocity": 99}, {"time": 1944, "pitch": 61, "duration": 2, "velocity": 112}, {"time": 1947, "pitch": 59, "duration": 1, "velocity": 82}, {"time": 1950, "pitch": 59, "duration": 4, "velocity": 96}, {"time": 1962, "pitch": 63, "duration": 1, "velocity": 102}, {"time": 1965, "pitch": 63, "duration": 1, "velocity": 112}, {"time": 1968, "pitch": 66, "duration": 1, "velocity": 117}, {"time": 1971, "pitch": 63, "duration": 1, "velocity": 97}, {"time": 1974, "pitch": 59, "duration": 5, "velocity": 96}, {"time": 1983, "pitch": 54, "duration": 1, "velocity": 92}, {"time": 1986, "pitch": 59, "duration": 1, "velocity": 112}, {"time": 1989, "pitch": 59, "duration": 1, "velocity": 89}, {"time": 1992, "pitch": 59, "duration": 1, "velocity": 92}, {"time": 1995, "pitch": 59, "duration": 1, "velocity": 127}, {"time": 2001, "pitch": 54, "duration": 1, "velocity": 96}, {"time": 2004, "pitch": 61, "duration": 1, "velocity": 97}, {"time": 2007, "pitch": 61, "duration": 1, "velocity": 107}, {"time": 2010, "pitch": 61, "duration": 1, "velocity": 117}, {"time": 2013, "pitch": 59, "duration": 1, "velocity": 90}, {"time": 2016, "pitch": 63, "duration": 4, "velocity": 122}, {"time": 2022, "pitch": 63, "duration": 5, "velocity": 127}, {"time": 2028, "pitch": 64, "duration": 1, "velocity": 102}, {"time": 2031, "pitch": 64, "duration": 1, "velocity": 93}, {"time": 2034, "pitch": 64, "duration": 1, "velocity": 93}, {"time": 2037, "pitch": 64, "duration": 1, "velocity": 97}, {"time": 2040, "pitch": 66, "duration": 4, "velocity": 117}, {"time": 2046, "pitch": 66, "duration": 3, "velocity": 117}, {"time": 2052, "pitch": 63, "duration": 2, "velocity": 117}, {"time": 2055, "pitch": 61, "duration": 1, "velocity": 100}, {"time": 2058, "pitch": 61, "duration": 1, "velocity": 127}, {"time": 2061, "pitch": 59, "duration": 1, "velocity": 99}, {"time": 2064, "pitch": 61, "duration": 3, "velocity": 122}, {"time": 2076, "pitch": 63, "duration": 1, "velocity": 122}, {"time": 2079, "pitch": 63, "duration": 1, "velocity": 102}, {"time": 2082, "pitch": 63, "duration": 1, "velocity": 97}, {"time": 2085, "pitch": 63, "duration": 1, "velocity": 112}, {"time": 2088, "pitch": 66, "duration": 5, "velocity": 127}, {"time": 2094, "pitch": 68, "duration": 3, "velocity": 127}, {"time": 2100, "pitch": 59, "duration": 4, "velocity": 122}, {"time": 2106, "pitch": 58, "duration": 4, "velocity": 112}, {"time": 2112, "pitch": 56, "duration": 5, "velocity": 112}, {"time": 2124, "pitch": 64, "duration": 1, "velocity": 99}, {"time": 2127, "pitch": 64, "duration": 1, "velocity": 86}, {"time": 2130, "pitch": 64, "duration": 1, "velocity": 95}, {"time": 2133, "pitch": 64, "duration": 1, "velocity": 93}, {"time": 2136, "pitch": 66, "duration": 4, "velocity": 127}, {"time": 2142, "pitch": 66, "duration": 1, "velocity": 127}, {"time": 2145, "pitch": 66, "duration": 1, "velocity": 117}, {"time": 2148, "pitch": 63, "duration": 3, "velocity": 122}, {"time": 2151, "pitch": 61, "duration": 1, "velocity": 79}, {"time": 2154, "pitch": 61, "duration": 2, "velocity": 112}, {"time": 2157, "pitch": 59, "duration": 3, "velocity": 82}, {"time": 2160, "pitch": 61, "duration": 4, "velocity": 112}, {"time": 2166, "pitch": 59, "duration": 2, "velocity": 99}, {"time": 2169, "pitch": 61, "duration": 1, "velocity": 99}, {"time": 2172, "pitch": 63, "duration": 4, "velocity": 122}, {"time": 2178, "pitch": 66, "duration": 4, "velocity": 100}, {"time": 2184, "pitch": 61, "duration": 6, "velocity": 112}, {"time": 2190, "pitch": 66, "duration": 5, "velocity": 122}, {"time": 2199, "pitch": 59, "duration": 9, "velocity": 95}, {"time": 2208, "pitch": 59, "duration": 3, "velocity": 97}, {"time": 2211, "pitch": 61, "duration": 3, "velocity": 97}, {"time": 2214, "pitch": 63, "duration": 5, "velocity": 122}, {"time": 2220, "pitch": 64, "duration": 1, "velocity": 112}, {"time": 2223, "pitch": 64, "duration": 1, "velocity": 83}, {"time": 2226, "pitch": 64, "duration": 1, "velocity": 89}, {"time": 2229, "pitch": 64, "duration": 1, "velocity": 97}, {"time": 2232, "pitch": 66, "duration": 4, "velocity": 117}, {"time": 2238, "pitch": 66, "duration": 2, "velocity": 112}, {"time": 2241, "pitch": 66, "duration": 1, "velocity": 112}, {"time": 2244, "pitch": 63, "duration": 2, "velocity": 127}, {"time": 2247, "pitch": 61, "duration": 1, "velocity": 96}, {"time": 2250, "pitch": 61, "duration": 3, "velocity": 117}, {"time": 2253, "pitch": 59, "duration": 2, "velocity": 96}, {"time": 2256, "pitch": 63, "duration": 4, "velocity": 100}, {"time": 2259, "pitch": 61, "duration": 8, "velocity": 107}, {"time": 2268, "pitch": 63, "duration": 1, "velocity": 122}, {"time": 2271, "pitch": 63, "duration": 1, "velocity": 107}, {"time": 2274, "pitch": 63, "duration": 1, "velocity": 100}, {"time": 2277, "pitch": 63, "duration": 1, "velocity": 107}, {"time": 2280, "pitch": 66, "duration": 5, "velocity": 127}, {"time": 2286, "pitch": 68, "duration": 2, "velocity": 127}, {"time": 2292, "pitch": 59, "duration": 4, "velocity": 107}, {"time": 2298, "pitch": 58, "duration": 5, "velocity": 117}, {"time": 2304, "pitch": 56, "duration": 8, "velocity": 107}, {"time": 2316, "pitch": 64, "duration": 1, "velocity": 112}, {"time": 2319, "pitch": 64, "duration": 1, "velocity": 99}, {"time": 2322, "pitch": 64, "duration": 1, "velocity": 93}, {"time": 2325, "pitch": 64, "duration": 1, "velocity": 96}, {"time": 2328, "pitch": 66, "duration": 3, "velocity": 127}, {"time": 2334, "pitch": 66, "duration": 1, "velocity": 117}, {"time": 2337, "pitch": 66, "duration": 1, "velocity": 117}, {"time": 2340, "pitch": 63, "duration": 2, "velocity": 127}, {"time": 2343, "pitch": 61, "duration": 1, "velocity": 88}, {"time": 2346, "pitch": 61, "duration": 2, "velocity": 107}, {"time": 2349, "pitch": 59, "duration": 3, "velocity": 92}, {"time": 2352, "pitch": 63, "duration": 3, "velocity": 127}, {"time": 2355, "pitch": 61, "duration": 8, "velocity": 112}, {"time": 2370, "pitch": 63, "duration": 1, "velocity": 127}, {"time": 2373, "pitch": 63, "duration": 1, "velocity": 117}, {"time": 2376, "pitch": 61, "duration": 3, "velocity": 117}, {"time": 2382, "pitch": 63, "duration": 3, "velocity": 127}, {"time": 2388, "pitch": 61, "duration": 4, "velocity": 127}, {"time": 2394, "pitch": 59, "duration": 3, "velocity": 99}, {"time": 2397, "pitch": 56, "duration": 3, "velocity": 102}, {"time": 2400, "pitch": 59, "duration": 9, "velocity": 90}, {"time": 2418, "pitch": 68, "duration": 1, "velocity": 117}, {"time": 2421, "pitch": 66, "duration": 5, "velocity": 122}, {"time": 2430, "pitch": 63, "duration": 2, "velocity": 127}, {"time": 2433, "pitch": 61, "duration": 5, "velocity": 96}, {"time": 2442, "pitch": 59, "duration": 1, "velocity": 96}, {"time": 2445, "pitch": 59, "duration": 10, "velocity": 99}, {"time": 2466, "pitch": 54, "duration": 2, "velocity": 96}, {"time": 2469, "pitch": 56, "duration": 3, "velocity": 92}, {"time": 2475, "pitch": 59, "duration": 3, "velocity": 93}, {"time": 2478, "pitch": 54, "duration": 3, "velocity": 83}, {"time": 2484, "pitch": 61, "duration": 7, "velocity": 97}, {"time": 2493, "pitch": 63, "duration": 1, "velocity": 102}, {"time": 2494, "pitch": 61, "duration": 1, "velocity": 82}, {"time": 2496, "pitch": 59, "duration": 2, "velocity": 78}, {"time": 2497, "pitch": 61, "duration": 3, "velocity": 100}, {"time": 2500, "pitch": 63, "duration": 5, "velocity": 107}, {"time": 2511, "pitch": 56, "duration": 1, "velocity": 83}, {"time": 2514, "pitch": 68, "duration": 1, "velocity": 112}, {"time": 2517, "pitch": 66, "duration": 7, "velocity": 112}, {"time": 2526, "pitch": 63, "duration": 1, "velocity": 107}, {"time": 2529, "pitch": 61, "duration": 9, "velocity": 112}, {"time": 2541, "pitch": 59, "duration": 7, "velocity": 112}, {"time": 2562, "pitch": 66, "duration": 1, "velocity": 117}, {"time": 2565, "pitch": 66, "duration": 1, "velocity": 100}, {"time": 2568, "pitch": 66, "duration": 2, "velocity": 127}, {"time": 2571, "pitch": 63, "duration": 1, "velocity": 100}, {"time": 2574, "pitch": 63, "duration": 3, "velocity": 122}, {"time": 2577, "pitch": 66, "duration": 25, "velocity": 127}, {"time": 2604, "pitch": 64, "duration": 1, "velocity": 107}, {"time": 2607, "pitch": 64, "duration": 1, "velocity": 99}, {"time": 2610, "pitch": 64, "duration": 1, "velocity": 96}, {"time": 2613, "pitch": 64, "duration": 1, "velocity": 102}, {"time": 2616, "pitch": 66, "duration": 4, "velocity": 127}, {"time": 2622, "pitch": 66, "duration": 1, "velocity": 127}, {"time": 2625, "pitch": 66, "duration": 1, "velocity": 122}, {"time": 2628, "pitch": 63, "duration": 2, "velocity": 127}, {"time": 2631, "pitch": 61, "duration": 1, "velocity": 97}, {"time": 2634, "pitch": 61, "duration": 2, "velocity": 127}, {"time": 2637, "pitch": 59, "duration": 1, "velocity": 92}, {"time": 2640, "pitch": 61, "duration": 4, "velocity": 127}, {"time": 2652, "pitch": 63, "duration": 1, "velocity": 122}, {"time": 2655, "pitch": 63, "duration": 1, "velocity": 112}, {"time": 2658, "pitch": 63, "duration": 1, "velocity": 100}, {"time": 2661, "pitch": 63, "duration": 1, "velocity": 112}, {"time": 2664, "pitch": 66, "duration": 3, "velocity": 127}, {"time": 2670, "pitch": 68, "duration": 3, "velocity": 112}, {"time": 2676, "pitch": 59, "duration": 7, "velocity": 117}, {"time": 2682, "pitch": 58, "duration": 4, "velocity": 117}, {"time": 2688, "pitch": 56, "duration": 6, "velocity": 99}, {"time": 2688, "pitch": 68, "duration": 2, "velocity": 127}, {"time": 2691, "pitch": 66, "duration": 1, "velocity": 97}, {"time": 2694, "pitch": 66, "duration": 2, "velocity": 117}, {"time": 2697, "pitch": 61, "duration": 9, "velocity": 107}, {"time": 2700, "pitch": 64, "duration": 1, "velocity": 112}, {"time": 2703, "pitch": 64, "duration": 1, "velocity": 95}, {"time": 2706, "pitch": 64, "duration": 1, "velocity": 95}, {"time": 2709, "pitch": 64, "duration": 1, "velocity": 96}, {"time": 2712, "pitch": 66, "duration": 4, "velocity": 127}, {"time": 2718, "pitch": 66, "duration": 1, "velocity": 127}, {"time": 2721, "pitch": 66, "duration": 1, "velocity": 122}, {"time": 2724, "pitch": 63, "duration": 2, "velocity": 127}, {"time": 2727, "pitch": 61, "duration": 1, "velocity": 97}, {"time": 2730, "pitch": 61, "duration": 2, "velocity": 127}, {"time": 2733, "pitch": 59, "duration": 1, "velocity": 92}, {"time": 2736, "pitch": 61, "duration": 4, "velocity": 127}, {"time": 2736, "pitch": 71, "duration": 2, "velocity": 122}, {"time": 2739, "pitch": 70, "duration": 1, "velocity": 96}, {"time": 2742, "pitch": 59, "duration": 2, "velocity": 107}, {"time": 2742, "pitch": 68, "duration": 1, "velocity": 112}, {"time": 2745, "pitch": 61, "duration": 1, "velocity": 117}, {"time": 2745, "pitch": 70, "duration": 3, "velocity": 112}, {"time": 2748, "pitch": 63, "duration": 4, "velocity": 117}, {"time": 2751, "pitch": 66, "duration": 2, "velocity": 117}, {"time": 2754, "pitch": 66, "duration": 4, "velocity": 122}, {"time": 2760, "pitch": 61, "duration": 4, "velocity": 117}, {"time": 2766, "pitch": 66, "duration": 5, "velocity": 117}, {"time": 2772, "pitch": 59, "duration": 7, "velocity": 107}, {"time": 2781, "pitch": 66, "duration": 1, "velocity": 112}, {"time": 2784, "pitch": 59, "duration": 3, "velocity": 100}, {"time": 2784, "pitch": 63, "duration": 2, "velocity": 107}, {"time": 2787, "pitch": 61, "duration": 2, "velocity": 102}, {"time": 2787, "pitch": 64, "duration": 3, "velocity": 93}, {"time": 2790, "pitch": 63, "duration": 3, "velocity": 112}, {"time": 2790, "pitch": 66, "duration": 2, "velocity": 117}, {"time": 2793, "pitch": 66, "duration": 3, "velocity": 102}, {"time": 2793, "pitch": 71, "duration": 16, "velocity": 127}, {"time": 2796, "pitch": 64, "duration": 1, "velocity": 102}, {"time": 2799, "pitch": 64, "duration": 1, "velocity": 93}, {"time": 2802, "pitch": 64, "duration": 1, "velocity": 99}, {"time": 2805, "pitch": 64, "duration": 2, "velocity": 102}, {"time": 2808, "pitch": 66, "duration": 4, "velocity": 122}, {"time": 2814, "pitch": 66, "duration": 1, "velocity": 127}, {"time": 2814, "pitch": 68, "duration": 3, "velocity": 100}, {"time": 2817, "pitch": 66, "duration": 1, "velocity": 117}, {"time": 2817, "pitch": 75, "duration": 7, "velocity": 112}, {"time": 2820, "pitch": 63, "duration": 2, "velocity": 122}, {"time": 2823, "pitch": 61, "duration": 1, "velocity": 100}, {"time": 2826, "pitch": 61, "duration": 2, "velocity": 117}, {"time": 2826, "pitch": 68, "duration": 2, "velocity": 100}, {"time": 2829, "pitch": 59, "duration": 2, "velocity": 99}, {"time": 2829, "pitch": 71, "duration": 4, "velocity": 95}, {"time": 2832, "pitch": 63, "duration": 2, "velocity": 127}, {"time": 2835, "pitch": 61, "duration": 6, "velocity": 112}, {"time": 2835, "pitch": 73, "duration": 3, "velocity": 127}, {"time": 2844, "pitch": 63, "duration": 1, "velocity": 127}, {"time": 2847, "pitch": 63, "duration": 1, "velocity": 107}, {"time": 2850, "pitch": 63, "duration": 1, "velocity": 112}, {"time": 2850, "pitch": 75, "duration": 3, "velocity": 102}, {"time": 2853, "pitch": 63, "duration": 1, "velocity": 112}, {"time": 2853, "pitch": 73, "duration": 5, "velocity": 95}, {"time": 2856, "pitch": 66, "duration": 3, "velocity": 127}, {"time": 2862, "pitch": 68, "duration": 3, "velocity": 112}, {"time": 2862, "pitch": 73, "duration": 3, "velocity": 127}, {"time": 2865, "pitch": 71, "duration": 12, "velocity": 93}, {"time": 2868, "pitch": 59, "duration": 5, "velocity": 117}, {"time": 2874, "pitch": 58, "duration": 4, "velocity": 112}, {"time": 2880, "pitch": 56, "duration": 5, "velocity": 112}, {"time": 2880, "pitch": 63, "duration": 2, "velocity": 117}, {"time": 2883, "pitch": 64, "duration": 2, "velocity": 97}, {"time": 2886, "pitch": 63, "duration": 1, "velocity": 112}, {"time": 2889, "pitch": 64, "duration": 1, "velocity": 100}, {"time": 2892, "pitch": 64, "duration": 1, "velocity": 102}, {"time": 2892, "pitch": 66, "duration": 12, "velocity": 122}, {"time": 2895, "pitch": 64, "duration": 1, "velocity": 93}, {"time": 2898, "pitch": 64, "duration": 1, "velocity": 99}, {"time": 2901, "pitch": 64, "duration": 2, "velocity": 102}, {"time": 2904, "pitch": 66, "duration": 4, "velocity": 122}, {"time": 2910, "pitch": 66, "duration": 1, "velocity": 127}, {"time": 2913, "pitch": 66, "duration": 1, "velocity": 117}, {"time": 2916, "pitch": 63, "duration": 2, "velocity": 122}, {"time": 2919, "pitch": 61, "duration": 1, "velocity": 100}, {"time": 2922, "pitch": 61, "duration": 2, "velocity": 117}, {"time": 2925, "pitch": 59, "duration": 2, "velocity": 99}, {"time": 2928, "pitch": 61, "duration": 4, "velocity": 112}, {"time": 2931, "pitch": 59, "duration": 3, "velocity": 90}, {"time": 2934, "pitch": 68, "duration": 3, "velocity": 117}, {"time": 2937, "pitch": 66, "duration": 7, "velocity": 117}, {"time": 2946, "pitch": 63, "duration": 1, "velocity": 112}, {"time": 2949, "pitch": 63, "duration": 7, "velocity": 107}, {"time": 2958, "pitch": 61, "duration": 1, "velocity": 90}, {"time": 2961, "pitch": 61, "duration": 6, "velocity": 112}, {"time": 2967, "pitch": 59, "duration": 11, "velocity": 67}, {"time": 2988, "pitch": 64, "duration": 1, "velocity": 88}, {"time": 2991, "pitch": 64, "duration": 1, "velocity": 76}, {"time": 2994, "pitch": 64, "duration": 1, "velocity": 82}, {"time": 2997, "pitch": 64, "duration": 2, "velocity": 77}, {"time": 3000, "pitch": 66, "duration": 3, "velocity": 89}, {"time": 3006, "pitch": 66, "duration": 1, "velocity": 112}, {"time": 3009, "pitch": 66, "duration": 2, "velocity": 107}, {"time": 3012, "pitch": 63, "duration": 3, "velocity": 102}, {"time": 3015, "pitch": 61, "duration": 1, "velocity": 93}, {"time": 3018, "pitch": 61, "duration": 3, "velocity": 99}, {"time": 3021, "pitch": 59, "duration": 3, "velocity": 81}, {"time": 3024, "pitch": 61, "duration": 6, "velocity": 96}, {"time": 3036, "pitch": 63, "duration": 1, "velocity": 92}, {"time": 3039, "pitch": 63, "duration": 1, "velocity": 77}, {"time": 3042, "pitch": 63, "duration": 1, "velocity": 73}, {"time": 3045, "pitch": 63, "duration": 1, "velocity": 81}, {"time": 3048, "pitch": 66, "duration": 4, "velocity": 90}, {"time": 3054, "pitch": 68, "duration": 5, "velocity": 90}, {"time": 3060, "pitch": 59, "duration": 5, "velocity": 69}, {"time": 3066, "pitch": 58, "duration": 6, "velocity": 76}, {"time": 3072, "pitch": 56, "duration": 7, "velocity": 73}, {"time": 3084, "pitch": 64, "duration": 1, "velocity": 72}, {"time": 3087, "pitch": 64, "duration": 1, "velocity": 59}, {"time": 3090, "pitch": 64, "duration": 1, "velocity": 61}, {"time": 3093, "pitch": 64, "duration": 1, "velocity": 55}, {"time": 3096, "pitch": 66, "duration": 3, "velocity": 77}, {"time": 3102, "pitch": 66, "duration": 1, "velocity": 90}, {"time": 3105, "pitch": 66, "duration": 1, "velocity": 37}, {"time": 3108, "pitch": 63, "duration": 3, "velocity": 70}, {"time": 3111, "pitch": 61, "duration": 1, "velocity": 50}, {"time": 3114, "pitch": 61, "duration": 3, "velocity": 35}, {"time": 3117, "pitch": 59, "duration": 3, "velocity": 55}, {"time": 3120, "pitch": 61, "duration": 9, "velocity": 62}, {"time": 3132, "pitch": 63, "duration": 1, "velocity": 56}, {"time": 3135, "pitch": 63, "duration": 1, "velocity": 46}, {"time": 3138, "pitch": 63, "duration": 1, "velocity": 49}, {"time": 3141, "pitch": 63, "duration": 1, "velocity": 39}], "annotations": [{"time": 0, "annotation": {"number": 7, "value": 101}, "group": "control_change"}, {"time": 2927, "annotation": {"number": 7, "value": 101}, "group": "control_change"}, {"time": 2930, "annotation": {"number": 7, "value": 100}, "group": "control_change"}, {"time": 2932, "annotation": {"number": 7, "value": 99}, "group": "control_change"}, {"time": 2935, "annotation": {"number": 7, "value": 98}, "group": "control_change"}, {"time": 2937, "annotation": {"number": 7, "value": 96}, "group": "control_change"}, {"time": 2940, "annotation": {"number": 7, "value": 95}, "group": "control_change"}, {"time": 2942, "annotation": {"number": 7, "value": 94}, "group": "control_change"}, {"time": 2945, "annotation": {"number": 7, "value": 93}, "group": "control_change"}, {"time": 2947, "annotation": {"number": 7, "value": 92}, "group": "control_change"}, {"time": 2950, "annotation": {"number": 7, "value": 91}, "group": "control_change"}, {"time": 2952, "annotation": {"number": 7, "value": 89}, "group": "control_change"}, {"time": 2955, "annotation": {"number": 7, "value": 88}, "group": "control_change"}, {"time": 2957, "annotation": {"number": 7, "value": 87}, "group": "control_change"}, {"time": 2960, "annotation": {"number": 7, "value": 86}, "group": "control_change"}, {"time": 2962, "annotation": {"number": 7, "value": 85}, "group": "control_change"}, {"time": 2965, "annotation": {"number": 7, "value": 84}, "group": "control_change"}, {"time": 2967, "annotation": {"number": 7, "value": 82}, "group": "control_change"}, {"time": 2970, "annotation": {"number": 7, "value": 81}, "group": "control_change"}, {"time": 2972, "annotation": {"number": 7, "value": 80}, "group": "control_change"}, {"time": 2975, "annotation": {"number": 7, "value": 79}, "group": "control_change"}, {"time": 2977, "annotation": {"number": 7, "value": 78}, "group": "control_change"}, {"time": 2980, "annotation": {"number": 7, "value": 77}, "group": "control_change"}, {"time": 2982, "annotation": {"number": 7, "value": 75}, "group": "control_change"}, {"time": 2985, "annotation": {"number": 7, "value": 74}, "group": "control_change"}, {"time": 2987, "annotation": {"number": 7, "value": 73}, "group": "control_change"}, {"time": 2990, "annotation": {"number": 7, "value": 72}, "group": "control_change"}, {"time": 2992, "annotation": {"number": 7, "value": 71}, "group": "control_change"}, {"time": 2995, "annotation": {"number": 7, "value": 70}, "group": "control_change"}, {"time": 2997, "annotation": {"number": 7, "value": 68}, "group": "control_change"}, {"time": 3000, "annotation": {"number": 7, "value": 67}, "group": "control_change"}, {"time": 3002, "annotation": {"number": 7, "value": 66}, "group": "control_change"}, {"time": 3005, "annotation": {"number": 7, "value": 65}, "group": "control_change"}, {"time": 3007, "annotation": {"number": 7, "value": 64}, "group": "control_change"}, {"time": 3010, "annotation": {"number": 7, "value": 63}, "group": "control_change"}, {"time": 3012, "annotation": {"number": 7, "value": 61}, "group": "control_change"}, {"time": 3015, "annotation": {"number": 7, "value": 60}, "group": "control_change"}, {"time": 3017, "annotation": {"number": 7, "value": 59}, "group": "control_change"}, {"time": 3020, "annotation": {"number": 7, "value": 58}, "group": "control_change"}, {"time": 3022, "annotation": {"number": 7, "value": 57}, "group": "control_change"}, {"time": 3025, "annotation": {"number": 7, "value": 56}, "group": "control_change"}, {"time": 3027, "annotation": {"number": 7, "value": 54}, "group": "control_change"}, {"time": 3030, "annotation": {"number": 7, "value": 53}, "group": "control_change"}, {"time": 3032, "annotation": {"number": 7, "value": 52}, "group": "control_change"}, {"time": 3035, "annotation": {"number": 7, "value": 51}, "group": "control_change"}, {"time": 3037, "annotation": {"number": 7, "value": 50}, "group": "control_change"}, {"time": 3040, "annotation": {"number": 7, "value": 49}, "group": "control_change"}, {"time": 3042, "annotation": {"number": 7, "value": 47}, "group": "control_change"}, {"time": 3045, "annotation": {"number": 7, "value": 46}, "group": "control_change"}, {"time": 3047, "annotation": {"number": 7, "value": 45}, "group": "control_change"}, {"time": 3050, "annotation": {"number": 7, "value": 44}, "group": "control_change"}, {"time": 3052, "annotation": {"number": 7, "value": 43}, "group": "control_change"}, {"time": 3055, "annotation": {"number": 7, "value": 42}, "group": "control_change"}, {"time": 3057, "annotation": {"number": 7, "value": 40}, "group": "control_change"}, {"time": 3060, "annotation": {"number": 7, "value": 39}, "group": "control_change"}, {"time": 3062, "annotation": {"number": 7, "value": 38}, "group": "control_change"}, {"time": 3065, "annotation": {"number": 7, "value": 37}, "group": "control_change"}, {"time": 3067, "annotation": {"number": 7, "value": 36}, "group": "control_change"}, {"time": 3070, "annotation": {"number": 7, "value": 35}, "group": "control_change"}, {"time": 3072, "annotation": {"number": 7, "value": 33}, "group": "control_change"}, {"time": 3075, "annotation": {"number": 7, "value": 32}, "group": "control_change"}, {"time": 3077, "annotation": {"number": 7, "value": 31}, "group": "control_change"}, {"time": 3080, "annotation": {"number": 7, "value": 30}, "group": "control_change"}, {"time": 3082, "annotation": {"number": 7, "value": 29}, "group": "control_change"}, {"time": 3085, "annotation": {"number": 7, "value": 28}, "group": "control_change"}, {"time": 3087, "annotation": {"number": 7, "value": 26}, "group": "control_change"}, {"time": 3090, "annotation": {"number": 7, "value": 25}, "group": "control_change"}, {"time": 3092, "annotation": {"number": 7, "value": 24}, "group": "control_change"}, {"time": 3095, "annotation": {"number": 7, "value": 23}, "group": "control_change"}, {"time": 3097, "annotation": {"number": 7, "value": 22}, "group": "control_change"}, {"time": 3100, "annotation": {"number": 7, "value": 21}, "group": "control_change"}, {"time": 3102, "annotation": {"number": 7, "value": 19}, "group": "control_change"}, {"time": 3105, "annotation": {"number": 7, "value": 18}, "group": "control_change"}, {"time": 3107, "annotation": {"number": 7, "value": 17}, "group": "control_change"}, {"time": 3110, "annotation": {"number": 7, "value": 16}, "group": "control_change"}, {"time": 3112, "annotation": {"number": 7, "value": 15}, "group": "control_change"}, {"time": 3115, "annotation": {"number": 7, "value": 14}, "group": "control_change"}, {"time": 3117, "annotation": {"number": 7, "value": 12}, "group": "control_change"}, {"time": 3120, "annotation": {"number": 7, "value": 11}, "group": "control_change"}, {"time": 3122, "annotation": {"number": 7, "value": 10}, "group": "control_change"}, {"time": 3125, "annotation": {"number": 7, "value": 9}, "group": "control_change"}, {"time": 3127, "annotation": {"number": 7, "value": 8}, "group": "control_change"}, {"time": 3130, "annotation": {"number": 7, "value": 7}, "group": "control_change"}, {"time": 3132, "annotation": {"number": 7, "value": 5}, "group": "control_change"}, {"time": 3135, "annotation": {"number": 7, "value": 4}, "group": "control_change"}, {"time": 3137, "annotation": {"number": 7, "value": 3}, "group": "control_change"}, {"time": 3140, "annotation": {"number": 7, "value": 2}, "group": "control_change"}, {"time": 3142, "annotation": {"number": 7, "value": 1}, "group": "control_change"}, {"time": 3144, "annotation": {"number": 7, "value": 0}, "group": "control_change"}]}, {"program": 0, "is_drum": false, "name": "BRIDGE", "notes": [{"time": 36, "pitch": 75, "duration": 3, "velocity": 97}, {"time": 39, "pitch": 66, "duration": 4, "velocity": 78}, {"time": 42, "pitch": 73, "duration": 3, "velocity": 38}, {"time": 45, "pitch": 75, "duration": 8, "velocity": 99}, {"time": 52, "pitch": 66, "duration": 4, "velocity": 58}, {"time": 57, "pitch": 66, "duration": 2, "velocity": 77}, {"time": 58, "pitch": 73, "duration": 2, "velocity": 55}, {"time": 60, "pitch": 71, "duration": 19, "velocity": 73}, {"time": 81, "pitch": 70, "duration": 2, "velocity": 96}, {"time": 82, "pitch": 71, "duration": 2, "velocity": 81}, {"time": 84, "pitch": 66, "duration": 15, "velocity": 82}, {"time": 99, "pitch": 78, "duration": 10, "velocity": 107}, {"time": 108, "pitch": 66, "duration": 12, "velocity": 83}, {"time": 117, "pitch": 73, "duration": 13, "velocity": 100}, {"time": 132, "pitch": 75, "duration": 3, "velocity": 89}, {"time": 135, "pitch": 66, "duration": 3, "velocity": 89}, {"time": 138, "pitch": 73, "duration": 3, "velocity": 50}, {"time": 141, "pitch": 75, "duration": 6, "velocity": 97}, {"time": 147, "pitch": 66, "duration": 6, "velocity": 93}, {"time": 152, "pitch": 70, "duration": 1, "velocity": 51}, {"time": 153, "pitch": 71, "duration": 1, "velocity": 60}, {"time": 154, "pitch": 73, "duration": 2, "velocity": 73}, {"time": 155, "pitch": 71, "duration": 25, "velocity": 75}, {"time": 183, "pitch": 66, "duration": 6, "velocity": 93}, {"time": 186, "pitch": 78, "duration": 4, "velocity": 100}, {"time": 189, "pitch": 90, "duration": 22, "velocity": 95}, {"time": 207, "pitch": 73, "duration": 3, "velocity": 89}, {"time": 210, "pitch": 78, "duration": 5, "velocity": 67}, {"time": 213, "pitch": 90, "duration": 15, "velocity": 100}, {"time": 228, "pitch": 75, "duration": 3, "velocity": 117}, {"time": 231, "pitch": 76, "duration": 4, "velocity": 72}, {"time": 234, "pitch": 75, "duration": 3, "velocity": 107}, {"time": 237, "pitch": 73, "duration": 5, "velocity": 97}, {"time": 243, "pitch": 66, "duration": 7, "velocity": 93}, {"time": 252, "pitch": 71, "duration": 3, "velocity": 96}, {"time": 255, "pitch": 70, "duration": 3, "velocity": 88}, {"time": 258, "pitch": 71, "duration": 2, "velocity": 82}, {"time": 261, "pitch": 78, "duration": 7, "velocity": 107}, {"time": 267, "pitch": 76, "duration": 6, "velocity": 102}, {"time": 276, "pitch": 75, "duration": 6, "velocity": 112}, {"time": 282, "pitch": 73, "duration": 2, "velocity": 99}, {"time": 285, "pitch": 71, "duration": 9, "velocity": 95}, {"time": 297, "pitch": 71, "duration": 2, "velocity": 92}, {"time": 300, "pitch": 73, "duration": 5, "velocity": 100}, {"time": 306, "pitch": 71, "duration": 3, "velocity": 88}, {"time": 309, "pitch": 70, "duration": 8, "velocity": 102}, {"time": 324, "pitch": 75, "duration": 3, "velocity": 127}, {"time": 327, "pitch": 76, "duration": 3, "velocity": 75}, {"time": 330, "pitch": 75, "duration": 3, "velocity": 112}, {"time": 333, "pitch": 73, "duration": 5, "velocity": 96}, {"time": 339, "pitch": 66, "duration": 6, "velocity": 102}, {"time": 348, "pitch": 71, "duration": 3, "velocity": 107}, {"time": 351, "pitch": 70, "duration": 1, "velocity": 88}, {"time": 354, "pitch": 71, "duration": 3, "velocity": 89}, {"time": 357, "pitch": 78, "duration": 7, "velocity": 97}, {"time": 363, "pitch": 71, "duration": 3, "velocity": 97}, {"time": 366, "pitch": 80, "duration": 3, "velocity": 112}, {"time": 369, "pitch": 78, "duration": 12, "velocity": 127}, {"time": 387, "pitch": 71, "duration": 3, "velocity": 88}, {"time": 390, "pitch": 80, "duration": 2, "velocity": 102}, {"time": 393, "pitch": 78, "duration": 17, "velocity": 122}, {"time": 405, "pitch": 76, "duration": 3, "velocity": 89}, {"time": 408, "pitch": 75, "duration": 4, "velocity": 88}, {"time": 411, "pitch": 76, "duration": 3, "velocity": 78}, {"time": 414, "pitch": 78, "duration": 20, "velocity": 107}, {"time": 615, "pitch": 90, "duration": 3, "velocity": 100}, {"time": 618, "pitch": 78, "duration": 5, "velocity": 95}, {"time": 627, "pitch": 59, "duration": 4, "velocity": 89}, {"time": 630, "pitch": 63, "duration": 3, "velocity": 93}, {"time": 633, "pitch": 64, "duration": 3, "velocity": 85}, {"time": 636, "pitch": 63, "duration": 16, "velocity": 95}, {"time": 669, "pitch": 71, "duration": 1, "velocity": 77}, {"time": 672, "pitch": 71, "duration": 4, "velocity": 107}, {"time": 676, "pitch": 70, "duration": 5, "velocity": 95}, {"time": 681, "pitch": 68, "duration": 2, "velocity": 92}, {"time": 684, "pitch": 66, "duration": 7, "velocity": 95}, {"time": 723, "pitch": 64, "duration": 3, "velocity": 95}, {"time": 726, "pitch": 63, "duration": 3, "velocity": 100}, {"time": 729, "pitch": 59, "duration": 2, "velocity": 82}, {"time": 732, "pitch": 59, "duration": 9, "velocity": 85}, {"time": 771, "pitch": 78, "duration": 3, "velocity": 100}, {"time": 774, "pitch": 73, "duration": 3, "velocity": 96}, {"time": 777, "pitch": 71, "duration": 3, "velocity": 82}, {"time": 780, "pitch": 73, "duration": 15, "velocity": 82}, {"time": 786, "pitch": 75, "duration": 14, "velocity": 90}, {"time": 819, "pitch": 73, "duration": 3, "velocity": 86}, {"time": 819, "pitch": 82, "duration": 2, "velocity": 86}, {"time": 822, "pitch": 75, "duration": 2, "velocity": 96}, {"time": 822, "pitch": 83, "duration": 3, "velocity": 92}, {"time": 825, "pitch": 76, "duration": 3, "velocity": 86}, {"time": 825, "pitch": 85, "duration": 3, "velocity": 112}, {"time": 828, "pitch": 78, "duration": 14, "velocity": 117}, {"time": 828, "pitch": 87, "duration": 8, "velocity": 117}, {"time": 912, "pitch": 67, "duration": 4, "velocity": 92}, {"time": 912, "pitch": 70, "duration": 3, "velocity": 112}, {"time": 915, "pitch": 68, "duration": 4, "velocity": 90}, {"time": 915, "pitch": 71, "duration": 5, "velocity": 95}, {"time": 921, "pitch": 70, "duration": 4, "velocity": 95}, {"time": 921, "pitch": 73, "duration": 3, "velocity": 97}, {"time": 924, "pitch": 68, "duration": 14, "velocity": 81}, {"time": 924, "pitch": 71, "duration": 6, "velocity": 85}, {"time": 1011, "pitch": 75, "duration": 2, "velocity": 90}, {"time": 1011, "pitch": 87, "duration": 2, "velocity": 112}, {"time": 1014, "pitch": 76, "duration": 2, "velocity": 90}, {"time": 1014, "pitch": 88, "duration": 3, "velocity": 81}, {"time": 1017, "pitch": 78, "duration": 3, "velocity": 97}, {"time": 1017, "pitch": 90, "duration": 3, "velocity": 102}, {"time": 1020, "pitch": 76, "duration": 13, "velocity": 100}, {"time": 1020, "pitch": 88, "duration": 7, "velocity": 96}, {"time": 1053, "pitch": 71, "duration": 2, "velocity": 92}, {"time": 1056, "pitch": 73, "duration": 3, "velocity": 100}, {"time": 1059, "pitch": 75, "duration": 2, "velocity": 102}, {"time": 1065, "pitch": 76, "duration": 2, "velocity": 89}, {"time": 1068, "pitch": 75, "duration": 11, "velocity": 112}, {"time": 1100, "pitch": 95, "duration": 2, "velocity": 88}, {"time": 1102, "pitch": 90, "duration": 2, "velocity": 75}, {"time": 1103, "pitch": 83, "duration": 5, "velocity": 81}, {"time": 1107, "pitch": 78, "duration": 3, "velocity": 86}, {"time": 1113, "pitch": 71, "duration": 10, "velocity": 86}, {"time": 1119, "pitch": 68, "duration": 2, "velocity": 99}, {"time": 1122, "pitch": 70, "duration": 1, "velocity": 99}, {"time": 1125, "pitch": 71, "duration": 3, "velocity": 86}, {"time": 1128, "pitch": 66, "duration": 5, "velocity": 97}, {"time": 1148, "pitch": 70, "duration": 1, "velocity": 72}, {"time": 1150, "pitch": 71, "duration": 2, "velocity": 89}, {"time": 1151, "pitch": 73, "duration": 4, "velocity": 83}, {"time": 1155, "pitch": 75, "duration": 3, "velocity": 95}, {"time": 1157, "pitch": 66, "duration": 3, "velocity": 97}, {"time": 1159, "pitch": 76, "duration": 3, "velocity": 82}, {"time": 1160, "pitch": 68, "duration": 4, "velocity": 92}, {"time": 1163, "pitch": 75, "duration": 9, "velocity": 97}, {"time": 1163, "pitch": 66, "duration": 10, "velocity": 83}, {"time": 1197, "pitch": 83, "duration": 1, "velocity": 82}, {"time": 1200, "pitch": 90, "duration": 3, "velocity": 89}, {"time": 1203, "pitch": 85, "duration": 4, "velocity": 97}, {"time": 1209, "pitch": 83, "duration": 4, "velocity": 88}, {"time": 1212, "pitch": 75, "duration": 4, "velocity": 112}, {"time": 1218, "pitch": 75, "duration": 1, "velocity": 100}, {"time": 1221, "pitch": 75, "duration": 4, "velocity": 100}, {"time": 1227, "pitch": 75, "duration": 3, "velocity": 95}, {"time": 1232, "pitch": 71, "duration": 2, "velocity": 90}, {"time": 1234, "pitch": 68, "duration": 1, "velocity": 95}, {"time": 1235, "pitch": 71, "duration": 6, "velocity": 85}, {"time": 1240, "pitch": 73, "duration": 7, "velocity": 93}, {"time": 1257, "pitch": 71, "duration": 2, "velocity": 40}, {"time": 1258, "pitch": 73, "duration": 2, "velocity": 83}, {"time": 1259, "pitch": 75, "duration": 4, "velocity": 100}, {"time": 1263, "pitch": 70, "duration": 4, "velocity": 89}, {"time": 1268, "pitch": 70, "duration": 2, "velocity": 92}, {"time": 1270, "pitch": 71, "duration": 2, "velocity": 70}, {"time": 1271, "pitch": 70, "duration": 6, "velocity": 97}, {"time": 1277, "pitch": 68, "duration": 1, "velocity": 100}, {"time": 1278, "pitch": 69, "duration": 1, "velocity": 100}, {"time": 1278, "pitch": 70, "duration": 2, "velocity": 127}, {"time": 1280, "pitch": 68, "duration": 2, "velocity": 112}, {"time": 1282, "pitch": 66, "duration": 2, "velocity": 71}, {"time": 1284, "pitch": 68, "duration": 3, "velocity": 102}, {"time": 1287, "pitch": 66, "duration": 12, "velocity": 76}, {"time": 1298, "pitch": 66, "duration": 1, "velocity": 122}, {"time": 1301, "pitch": 66, "duration": 2, "velocity": 90}, {"time": 1304, "pitch": 66, "duration": 3, "velocity": 112}, {"time": 1307, "pitch": 75, "duration": 2, "velocity": 102}, {"time": 1309, "pitch": 66, "duration": 3, "velocity": 76}, {"time": 1312, "pitch": 75, "duration": 1, "velocity": 88}, {"time": 1313, "pitch": 66, "duration": 2, "velocity": 86}, {"time": 1315, "pitch": 78, "duration": 3, "velocity": 96}, {"time": 1318, "pitch": 66, "duration": 2, "velocity": 90}, {"time": 1320, "pitch": 75, "duration": 1, "velocity": 92}, {"time": 1322, "pitch": 66, "duration": 2, "velocity": 66}, {"time": 1324, "pitch": 75, "duration": 2, "velocity": 85}, {"time": 1326, "pitch": 66, "duration": 2, "velocity": 85}, {"time": 1329, "pitch": 76, "duration": 1, "velocity": 88}, {"time": 1330, "pitch": 66, "duration": 2, "velocity": 93}, {"time": 1332, "pitch": 73, "duration": 2, "velocity": 100}, {"time": 1334, "pitch": 66, "duration": 3, "velocity": 107}, {"time": 1336, "pitch": 75, "duration": 2, "velocity": 93}, {"time": 1338, "pitch": 66, "duration": 2, "velocity": 86}, {"time": 1341, "pitch": 76, "duration": 2, "velocity": 92}, {"time": 1344, "pitch": 75, "duration": 2, "velocity": 112}, {"time": 1347, "pitch": 73, "duration": 3, "velocity": 107}, {"time": 1351, "pitch": 71, "duration": 2, "velocity": 86}, {"time": 1353, "pitch": 70, "duration": 2, "velocity": 99}, {"time": 1355, "pitch": 71, "duration": 2, "velocity": 89}, {"time": 1358, "pitch": 66, "duration": 2, "velocity": 96}, {"time": 1360, "pitch": 73, "duration": 2, "velocity": 93}, {"time": 1362, "pitch": 66, "duration": 2, "velocity": 92}, {"time": 1364, "pitch": 75, "duration": 1, "velocity": 97}, {"time": 1366, "pitch": 66, "duration": 2, "velocity": 72}, {"time": 1368, "pitch": 73, "duration": 1, "velocity": 83}, {"time": 1370, "pitch": 66, "duration": 2, "velocity": 95}, {"time": 1372, "pitch": 71, "duration": 2, "velocity": 89}, {"time": 1374, "pitch": 66, "duration": 2, "velocity": 88}, {"time": 1376, "pitch": 73, "duration": 2, "velocity": 100}, {"time": 1378, "pitch": 66, "duration": 2, "velocity": 89}, {"time": 1380, "pitch": 75, "duration": 2, "velocity": 107}, {"time": 1384, "pitch": 73, "duration": 10, "velocity": 122}, {"time": 1394, "pitch": 73, "duration": 2, "velocity": 107}, {"time": 1396, "pitch": 71, "duration": 2, "velocity": 79}, {"time": 1397, "pitch": 70, "duration": 3, "velocity": 86}, {"time": 1400, "pitch": 71, "duration": 4, "velocity": 79}, {"time": 1403, "pitch": 73, "duration": 7, "velocity": 100}, {"time": 1406, "pitch": 66, "duration": 4, "velocity": 93}, {"time": 1409, "pitch": 78, "duration": 2, "velocity": 100}, {"time": 1413, "pitch": 78, "duration": 38, "velocity": 100}, {"time": 1623, "pitch": 90, "duration": 3, "velocity": 100}, {"time": 1626, "pitch": 78, "duration": 5, "velocity": 95}, {"time": 1632, "pitch": 64, "duration": 2, "velocity": 97}, {"time": 1634, "pitch": 63, "duration": 3, "velocity": 96}, {"time": 1637, "pitch": 61, "duration": 3, "velocity": 86}, {"time": 1640, "pitch": 59, "duration": 3, "velocity": 75}, {"time": 1643, "pitch": 63, "duration": 11, "velocity": 96}, {"time": 1652, "pitch": 63, "duration": 2, "velocity": 93}, {"time": 1655, "pitch": 61, "duration": 5, "velocity": 99}, {"time": 1661, "pitch": 66, "duration": 7, "velocity": 93}, {"time": 1667, "pitch": 68, "duration": 7, "velocity": 100}, {"time": 1677, "pitch": 71, "duration": 1, "velocity": 77}, {"time": 1680, "pitch": 71, "duration": 4, "velocity": 107}, {"time": 1684, "pitch": 70, "duration": 5, "velocity": 95}, {"time": 1689, "pitch": 68, "duration": 2, "velocity": 92}, {"time": 1692, "pitch": 66, "duration": 7, "velocity": 95}, {"time": 1731, "pitch": 64, "duration": 3, "velocity": 95}, {"time": 1734, "pitch": 63, "duration": 3, "velocity": 100}, {"time": 1737, "pitch": 59, "duration": 2, "velocity": 82}, {"time": 1740, "pitch": 59, "duration": 9, "velocity": 85}, {"time": 1779, "pitch": 78, "duration": 3, "velocity": 100}, {"time": 1782, "pitch": 73, "duration": 3, "velocity": 96}, {"time": 1785, "pitch": 71, "duration": 3, "velocity": 82}, {"time": 1788, "pitch": 73, "duration": 15, "velocity": 82}, {"time": 1794, "pitch": 75, "duration": 14, "velocity": 90}, {"time": 1827, "pitch": 73, "duration": 3, "velocity": 86}, {"time": 1827, "pitch": 82, "duration": 2, "velocity": 86}, {"time": 1830, "pitch": 75, "duration": 2, "velocity": 96}, {"time": 1830, "pitch": 83, "duration": 3, "velocity": 92}, {"time": 1833, "pitch": 76, "duration": 3, "velocity": 86}, {"time": 1833, "pitch": 85, "duration": 3, "velocity": 112}, {"time": 1836, "pitch": 78, "duration": 14, "velocity": 117}, {"time": 1836, "pitch": 87, "duration": 8, "velocity": 117}, {"time": 1920, "pitch": 67, "duration": 4, "velocity": 92}, {"time": 1920, "pitch": 70, "duration": 3, "velocity": 112}, {"time": 1923, "pitch": 68, "duration": 4, "velocity": 90}, {"time": 1923, "pitch": 71, "duration": 5, "velocity": 95}, {"time": 1929, "pitch": 70, "duration": 4, "velocity": 95}, {"time": 1929, "pitch": 73, "duration": 3, "velocity": 97}, {"time": 1932, "pitch": 68, "duration": 14, "velocity": 81}, {"time": 1932, "pitch": 71, "duration": 6, "velocity": 85}, {"time": 2019, "pitch": 75, "duration": 2, "velocity": 90}, {"time": 2019, "pitch": 87, "duration": 2, "velocity": 112}, {"time": 2022, "pitch": 76, "duration": 2, "velocity": 90}, {"time": 2022, "pitch": 88, "duration": 3, "velocity": 81}, {"time": 2025, "pitch": 78, "duration": 3, "velocity": 97}, {"time": 2025, "pitch": 90, "duration": 3, "velocity": 102}, {"time": 2028, "pitch": 76, "duration": 13, "velocity": 100}, {"time": 2028, "pitch": 88, "duration": 7, "velocity": 96}, {"time": 2061, "pitch": 71, "duration": 2, "velocity": 92}, {"time": 2064, "pitch": 73, "duration": 3, "velocity": 100}, {"time": 2067, "pitch": 75, "duration": 2, "velocity": 102}, {"time": 2073, "pitch": 76, "duration": 2, "velocity": 89}, {"time": 2076, "pitch": 75, "duration": 11, "velocity": 112}, {"time": 2108, "pitch": 95, "duration": 2, "velocity": 88}, {"time": 2110, "pitch": 90, "duration": 2, "velocity": 75}, {"time": 2111, "pitch": 83, "duration": 5, "velocity": 81}, {"time": 2115, "pitch": 78, "duration": 3, "velocity": 86}, {"time": 2121, "pitch": 71, "duration": 10, "velocity": 86}, {"time": 2127, "pitch": 68, "duration": 2, "velocity": 99}, {"time": 2130, "pitch": 70, "duration": 1, "velocity": 99}, {"time": 2133, "pitch": 71, "duration": 3, "velocity": 86}, {"time": 2136, "pitch": 66, "duration": 5, "velocity": 97}, {"time": 2156, "pitch": 70, "duration": 1, "velocity": 72}, {"time": 2158, "pitch": 71, "duration": 2, "velocity": 89}, {"time": 2159, "pitch": 73, "duration": 4, "velocity": 83}, {"time": 2163, "pitch": 75, "duration": 3, "velocity": 95}, {"time": 2165, "pitch": 66, "duration": 3, "velocity": 97}, {"time": 2167, "pitch": 76, "duration": 3, "velocity": 82}, {"time": 2168, "pitch": 68, "duration": 4, "velocity": 92}, {"time": 2171, "pitch": 75, "duration": 9, "velocity": 97}, {"time": 2171, "pitch": 66, "duration": 10, "velocity": 83}, {"time": 2300, "pitch": 95, "duration": 2, "velocity": 93}, {"time": 2301, "pitch": 90, "duration": 3, "velocity": 82}, {"time": 2303, "pitch": 83, "duration": 8, "velocity": 78}, {"time": 2307, "pitch": 78, "duration": 5, "velocity": 93}, {"time": 2312, "pitch": 71, "duration": 16, "velocity": 73}, {"time": 2345, "pitch": 73, "duration": 3, "velocity": 99}, {"time": 2348, "pitch": 71, "duration": 3, "velocity": 76}, {"time": 2351, "pitch": 73, "duration": 3, "velocity": 95}, {"time": 2355, "pitch": 75, "duration": 3, "velocity": 90}, {"time": 2360, "pitch": 76, "duration": 3, "velocity": 82}, {"time": 2363, "pitch": 75, "duration": 17, "velocity": 112}, {"time": 2396, "pitch": 78, "duration": 3, "velocity": 74}, {"time": 2398, "pitch": 83, "duration": 1, "velocity": 56}, {"time": 2399, "pitch": 90, "duration": 4, "velocity": 99}, {"time": 2400, "pitch": 78, "duration": 1, "velocity": 42}, {"time": 2403, "pitch": 83, "duration": 5, "velocity": 59}, {"time": 2408, "pitch": 78, "duration": 5, "velocity": 92}, {"time": 2411, "pitch": 87, "duration": 17, "velocity": 100}, {"time": 2447, "pitch": 75, "duration": 3, "velocity": 102}, {"time": 2451, "pitch": 73, "duration": 3, "velocity": 81}, {"time": 2456, "pitch": 73, "duration": 2, "velocity": 90}, {"time": 2457, "pitch": 75, "duration": 2, "velocity": 89}, {"time": 2459, "pitch": 71, "duration": 16, "velocity": 85}, {"time": 2495, "pitch": 70, "duration": 4, "velocity": 93}, {"time": 2500, "pitch": 71, "duration": 3, "velocity": 82}, {"time": 2504, "pitch": 73, "duration": 4, "velocity": 83}, {"time": 2507, "pitch": 71, "duration": 19, "velocity": 85}, {"time": 2595, "pitch": 75, "duration": 1, "velocity": 85}, {"time": 2595, "pitch": 87, "duration": 1, "velocity": 95}, {"time": 2597, "pitch": 76, "duration": 2, "velocity": 95}, {"time": 2598, "pitch": 88, "duration": 2, "velocity": 93}, {"time": 2600, "pitch": 78, "duration": 4, "velocity": 102}, {"time": 2600, "pitch": 90, "duration": 3, "velocity": 90}], "annotations": [{"time": 0, "annotation": {"number": 7, "value": 101}, "group": "control_change"}, {"time": 2926, "annotation": {"number": 7, "value": 101}, "group": "control_change"}, {"time": 2929, "annotation": {"number": 7, "value": 100}, "group": "control_change"}, {"time": 2931, "annotation": {"number": 7, "value": 99}, "group": "control_change"}, {"time": 2934, "annotation": {"number": 7, "value": 98}, "group": "control_change"}, {"time": 2936, "annotation": {"number": 7, "value": 97}, "group": "control_change"}, {"time": 2939, "annotation": {"number": 7, "value": 95}, "group": "control_change"}, {"time": 2941, "annotation": {"number": 7, "value": 94}, "group": "control_change"}, {"time": 2944, "annotation": {"number": 7, "value": 93}, "group": "control_change"}, {"time": 2946, "annotation": {"number": 7, "value": 92}, "group": "control_change"}, {"time": 2949, "annotation": {"number": 7, "value": 91}, "group": "control_change"}, {"time": 2951, "annotation": {"number": 7, "value": 90}, "group": "control_change"}, {"time": 2954, "annotation": {"number": 7, "value": 89}, "group": "control_change"}, {"time": 2956, "annotation": {"number": 7, "value": 87}, "group": "control_change"}, {"time": 2959, "annotation": {"number": 7, "value": 86}, "group": "control_change"}, {"time": 2961, "annotation": {"number": 7, "value": 85}, "group": "control_change"}, {"time": 2964, "annotation": {"number": 7, "value": 84}, "group": "control_change"}, {"time": 2966, "annotation": {"number": 7, "value": 83}, "group": "control_change"}, {"time": 2969, "annotation": {"number": 7, "value": 82}, "group": "control_change"}, {"time": 2971, "annotation": {"number": 7, "value": 81}, "group": "control_change"}, {"time": 2974, "annotation": {"number": 7, "value": 80}, "group": "control_change"}, {"time": 2976, "annotation": {"number": 7, "value": 78}, "group": "control_change"}, {"time": 2979, "annotation": {"number": 7, "value": 77}, "group": "control_change"}, {"time": 2981, "annotation": {"number": 7, "value": 76}, "group": "control_change"}, {"time": 2984, "annotation": {"number": 7, "value": 75}, "group": "control_change"}, {"time": 2986, "annotation": {"number": 7, "value": 74}, "group": "control_change"}, {"time": 2989, "annotation": {"number": 7, "value": 73}, "group": "control_change"}, {"time": 2991, "annotation": {"number": 7, "value": 72}, "group": "control_change"}, {"time": 2994, "annotation": {"number": 7, "value": 71}, "group": "control_change"}, {"time": 2996, "annotation": {"number": 7, "value": 69}, "group": "control_change"}, {"time": 2999, "annotation": {"number": 7, "value": 68}, "group": "control_change"}, {"time": 3001, "annotation": {"number": 7, "value": 67}, "group": "control_change"}, {"time": 3004, "annotation": {"number": 7, "value": 66}, "group": "control_change"}, {"time": 3006, "annotation": {"number": 7, "value": 65}, "group": "control_change"}, {"time": 3009, "annotation": {"number": 7, "value": 64}, "group": "control_change"}, {"time": 3011, "annotation": {"number": 7, "value": 63}, "group": "control_change"}, {"time": 3014, "annotation": {"number": 7, "value": 62}, "group": "control_change"}, {"time": 3016, "annotation": {"number": 7, "value": 60}, "group": "control_change"}, {"time": 3019, "annotation": {"number": 7, "value": 59}, "group": "control_change"}, {"time": 3021, "annotation": {"number": 7, "value": 58}, "group": "control_change"}, {"time": 3024, "annotation": {"number": 7, "value": 57}, "group": "control_change"}, {"time": 3026, "annotation": {"number": 7, "value": 56}, "group": "control_change"}, {"time": 3029, "annotation": {"number": 7, "value": 55}, "group": "control_change"}, {"time": 3031, "annotation": {"number": 7, "value": 54}, "group": "control_change"}, {"time": 3034, "annotation": {"number": 7, "value": 53}, "group": "control_change"}, {"time": 3036, "annotation": {"number": 7, "value": 51}, "group": "control_change"}, {"time": 3039, "annotation": {"number": 7, "value": 50}, "group": "control_change"}, {"time": 3041, "annotation": {"number": 7, "value": 49}, "group": "control_change"}, {"time": 3044, "annotation": {"number": 7, "value": 48}, "group": "control_change"}, {"time": 3046, "annotation": {"number": 7, "value": 47}, "group": "control_change"}, {"time": 3049, "annotation": {"number": 7, "value": 46}, "group": "control_change"}, {"time": 3051, "annotation": {"number": 7, "value": 45}, "group": "control_change"}, {"time": 3054, "annotation": {"number": 7, "value": 44}, "group": "control_change"}, {"time": 3056, "annotation": {"number": 7, "value": 42}, "group": "control_change"}, {"time": 3059, "annotation": {"number": 7, "value": 41}, "group": "control_change"}, {"time": 3061, "annotation": {"number": 7, "value": 40}, "group": "control_change"}, {"time": 3064, "annotation": {"number": 7, "value": 39}, "group": "control_change"}, {"time": 3066, "annotation": {"number": 7, "value": 38}, "group": "control_change"}, {"time": 3069, "annotation": {"number": 7, "value": 37}, "group": "control_change"}, {"time": 3071, "annotation": {"number": 7, "value": 36}, "group": "control_change"}, {"time": 3074, "annotation": {"number": 7, "value": 35}, "group": "control_change"}, {"time": 3076, "annotation": {"number": 7, "value": 33}, "group": "control_change"}, {"time": 3079, "annotation": {"number": 7, "value": 32}, "group": "control_change"}, {"time": 3081, "annotation": {"number": 7, "value": 31}, "group": "control_change"}, {"time": 3084, "annotation": {"number": 7, "value": 30}, "group": "control_change"}, {"time": 3086, "annotation": {"number": 7, "value": 29}, "group": "control_change"}, {"time": 3089, "annotation": {"number": 7, "value": 28}, "group": "control_change"}, {"time": 3091, "annotation": {"number": 7, "value": 27}, "group": "control_change"}, {"time": 3094, "annotation": {"number": 7, "value": 26}, "group": "control_change"}, {"time": 3096, "annotation": {"number": 7, "value": 24}, "group": "control_change"}, {"time": 3099, "annotation": {"number": 7, "value": 23}, "group": "control_change"}, {"time": 3101, "annotation": {"number": 7, "value": 22}, "group": "control_change"}, {"time": 3104, "annotation": {"number": 7, "value": 21}, "group": "control_change"}, {"time": 3106, "annotation": {"number": 7, "value": 20}, "group": "control_change"}, {"time": 3109, "annotation": {"number": 7, "value": 19}, "group": "control_change"}, {"time": 3111, "annotation": {"number": 7, "value": 18}, "group": "control_change"}, {"time": 3114, "annotation": {"number": 7, "value": 17}, "group": "control_change"}, {"time": 3116, "annotation": {"number": 7, "value": 15}, "group": "control_change"}, {"time": 3119, "annotation": {"number": 7, "value": 14}, "group": "control_change"}, {"time": 3121, "annotation": {"number": 7, "value": 13}, "group": "control_change"}, {"time": 3124, "annotation": {"number": 7, "value": 12}, "group": "control_change"}, {"time": 3126, "annotation": {"number": 7, "value": 11}, "group": "control_change"}, {"time": 3129, "annotation": {"number": 7, "value": 10}, "group": "control_change"}, {"time": 3131, "annotation": {"number": 7, "value": 9}, "group": "control_change"}, {"time": 3134, "annotation": {"number": 7, "value": 8}, "group": "control_change"}, {"time": 3136, "annotation": {"number": 7, "value": 6}, "group": "control_change"}, {"time": 3139, "annotation": {"number": 7, "value": 5}, "group": "control_change"}, {"time": 3141, "annotation": {"number": 7, "value": 4}, "group": "control_change"}, {"time": 3144, "annotation": {"number": 7, "value": 3}, "group": "control_change"}]}, {"program": 0, "is_drum": false, "name": "PIANO", "notes": [{"time": 36, "pitch": 47, "duration": 8, "velocity": 72}, {"time": 39, "pitch": 54, "duration": 6, "velocity": 47}, {"time": 42, "pitch": 59, "duration": 5, "velocity": 63}, {"time": 45, "pitch": 66, "duration": 3, "velocity": 83}, {"time": 48, "pitch": 46, "duration": 8, "velocity": 82}, {"time": 51, "pitch": 58, "duration": 8, "velocity": 53}, {"time": 54, "pitch": 61, "duration": 5, "velocity": 41}, {"time": 57, "pitch": 66, "duration": 3, "velocity": 63}, {"time": 60, "pitch": 44, "duration": 18, "velocity": 59}, {"time": 63, "pitch": 56, "duration": 10, "velocity": 44}, {"time": 66, "pitch": 59, "duration": 13, "velocity": 52}, {"time": 69, "pitch": 68, "duration": 15, "velocity": 86}, {"time": 75, "pitch": 56, "duration": 2, "velocity": 32}, {"time": 78, "pitch": 63, "duration": 5, "velocity": 54}, {"time": 84, "pitch": 40, "duration": 15, "velocity": 71}, {"time": 87, "pitch": 47, "duration": 12, "velocity": 41}, {"time": 90, "pitch": 52, "duration": 9, "velocity": 57}, {"time": 93, "pitch": 59, "duration": 9, "velocity": 37}, {"time": 93, "pitch": 68, "duration": 9, "velocity": 70}, {"time": 108, "pitch": 42, "duration": 17, "velocity": 69}, {"time": 108, "pitch": 58, "duration": 12, "velocity": 56}, {"time": 108, "pitch": 61, "duration": 10, "velocity": 49}, {"time": 108, "pitch": 66, "duration": 10, "velocity": 55}, {"time": 120, "pitch": 61, "duration": 7, "velocity": 37}, {"time": 120, "pitch": 66, "duration": 12, "velocity": 62}, {"time": 123, "pitch": 54, "duration": 4, "velocity": 53}, {"time": 126, "pitch": 58, "duration": 6, "velocity": 71}, {"time": 129, "pitch": 61, "duration": 3, "velocity": 53}, {"time": 132, "pitch": 47, "duration": 7, "velocity": 68}, {"time": 135, "pitch": 54, "duration": 5, "velocity": 48}, {"time": 138, "pitch": 59, "duration": 5, "velocity": 89}, {"time": 141, "pitch": 66, "duration": 3, "velocity": 90}, {"time": 144, "pitch": 46, "duration": 10, "velocity": 75}, {"time": 147, "pitch": 58, "duration": 4, "velocity": 64}, {"time": 150, "pitch": 63, "duration": 6, "velocity": 74}, {"time": 156, "pitch": 44, "duration": 20, "velocity": 67}, {"time": 159, "pitch": 56, "duration": 15, "velocity": 78}, {"time": 162, "pitch": 59, "duration": 19, "velocity": 50}, {"time": 165, "pitch": 63, "duration": 15, "velocity": 56}, {"time": 165, "pitch": 68, "duration": 14, "velocity": 31}, {"time": 180, "pitch": 40, "duration": 15, "velocity": 66}, {"time": 183, "pitch": 47, "duration": 13, "velocity": 47}, {"time": 186, "pitch": 52, "duration": 11, "velocity": 66}, {"time": 189, "pitch": 56, "duration": 15, "velocity": 69}, {"time": 189, "pitch": 59, "duration": 15, "velocity": 66}, {"time": 189, "pitch": 64, "duration": 15, "velocity": 66}, {"time": 204, "pitch": 42, "duration": 17, "velocity": 72}, {"time": 207, "pitch": 49, "duration": 13, "velocity": 28}, {"time": 210, "pitch": 54, "duration": 7, "velocity": 58}, {"time": 213, "pitch": 58, "duration": 6, "velocity": 66}, {"time": 213, "pitch": 61, "duration": 14, "velocity": 71}, {"time": 213, "pitch": 66, "duration": 14, "velocity": 64}, {"time": 219, "pitch": 54, "duration": 4, "velocity": 59}, {"time": 222, "pitch": 58, "duration": 5, "velocity": 65}, {"time": 228, "pitch": 47, "duration": 8, "velocity": 75}, {"time": 231, "pitch": 54, "duration": 7, "velocity": 68}, {"time": 234, "pitch": 59, "duration": 5, "velocity": 83}, {"time": 237, "pitch": 66, "duration": 3, "velocity": 90}, {"time": 240, "pitch": 46, "duration": 10, "velocity": 73}, {"time": 243, "pitch": 58, "duration": 4, "velocity": 75}, {"time": 246, "pitch": 66, "duration": 5, "velocity": 85}, {"time": 249, "pitch": 58, "duration": 2, "velocity": 79}, {"time": 252, "pitch": 44, "duration": 18, "velocity": 68}, {"time": 255, "pitch": 56, "duration": 9, "velocity": 69}, {"time": 258, "pitch": 59, "duration": 4, "velocity": 64}, {"time": 261, "pitch": 63, "duration": 16, "velocity": 85}, {"time": 261, "pitch": 68, "duration": 14, "velocity": 89}, {"time": 267, "pitch": 56, "duration": 2, "velocity": 50}, {"time": 270, "pitch": 59, "duration": 10, "velocity": 74}, {"time": 276, "pitch": 40, "duration": 15, "velocity": 73}, {"time": 279, "pitch": 47, "duration": 13, "velocity": 50}, {"time": 282, "pitch": 52, "duration": 6, "velocity": 79}, {"time": 285, "pitch": 59, "duration": 1, "velocity": 40}, {"time": 285, "pitch": 64, "duration": 14, "velocity": 75}, {"time": 285, "pitch": 68, "duration": 15, "velocity": 66}, {"time": 291, "pitch": 52, "duration": 2, "velocity": 78}, {"time": 294, "pitch": 59, "duration": 6, "velocity": 71}, {"time": 300, "pitch": 42, "duration": 17, "velocity": 79}, {"time": 303, "pitch": 49, "duration": 14, "velocity": 69}, {"time": 306, "pitch": 54, "duration": 6, "velocity": 79}, {"time": 309, "pitch": 58, "duration": 6, "velocity": 86}, {"time": 309, "pitch": 61, "duration": 15, "velocity": 90}, {"time": 309, "pitch": 66, "duration": 15, "velocity": 81}, {"time": 315, "pitch": 54, "duration": 4, "velocity": 77}, {"time": 318, "pitch": 58, "duration": 4, "velocity": 83}, {"time": 324, "pitch": 47, "duration": 8, "velocity": 73}, {"time": 327, "pitch": 54, "duration": 5, "velocity": 85}, {"time": 330, "pitch": 59, "duration": 5, "velocity": 66}, {"time": 333, "pitch": 46, "duration": 1, "velocity": 36}, {"time": 333, "pitch": 66, "duration": 4, "velocity": 96}, {"time": 336, "pitch": 46, "duration": 10, "velocity": 77}, {"time": 339, "pitch": 58, "duration": 4, "velocity": 82}, {"time": 342, "pitch": 66, "duration": 5, "velocity": 77}, {"time": 345, "pitch": 58, "duration": 2, "velocity": 69}, {"time": 348, "pitch": 44, "duration": 18, "velocity": 77}, {"time": 351, "pitch": 56, "duration": 9, "velocity": 69}, {"time": 354, "pitch": 59, "duration": 9, "velocity": 63}, {"time": 357, "pitch": 63, "duration": 16, "velocity": 85}, {"time": 357, "pitch": 68, "duration": 14, "velocity": 88}, {"time": 363, "pitch": 56, "duration": 2, "velocity": 59}, {"time": 366, "pitch": 59, "duration": 8, "velocity": 57}, {"time": 372, "pitch": 40, "duration": 16, "velocity": 81}, {"time": 375, "pitch": 47, "duration": 13, "velocity": 47}, {"time": 378, "pitch": 52, "duration": 7, "velocity": 72}, {"time": 381, "pitch": 59, "duration": 5, "velocity": 47}, {"time": 381, "pitch": 64, "duration": 15, "velocity": 72}, {"time": 381, "pitch": 68, "duration": 15, "velocity": 66}, {"time": 387, "pitch": 52, "duration": 3, "velocity": 48}, {"time": 390, "pitch": 59, "duration": 6, "velocity": 68}, {"time": 396, "pitch": 42, "duration": 22, "velocity": 70}, {"time": 399, "pitch": 49, "duration": 20, "velocity": 50}, {"time": 402, "pitch": 54, "duration": 17, "velocity": 73}, {"time": 405, "pitch": 58, "duration": 15, "velocity": 68}, {"time": 408, "pitch": 61, "duration": 12, "velocity": 59}, {"time": 408, "pitch": 66, "duration": 12, "velocity": 63}, {"time": 420, "pitch": 42, "duration": 15, "velocity": 66}, {"time": 420, "pitch": 54, "duration": 16, "velocity": 58}, {"time": 420, "pitch": 61, "duration": 1, "velocity": 78}, {"time": 420, "pitch": 66, "duration": 1, "velocity": 59}, {"time": 420, "pitch": 70, "duration": 17, "velocity": 60}, {"time": 444, "pitch": 47, "duration": 8, "velocity": 69}, {"time": 447, "pitch": 54, "duration": 3, "velocity": 47}, {"time": 450, "pitch": 59, "duration": 4, "velocity": 69}, {"time": 453, "pitch": 66, "duration": 3, "velocity": 85}, {"time": 456, "pitch": 46, "duration": 11, "velocity": 63}, {"time": 459, "pitch": 58, "duration": 4, "velocity": 64}, {"time": 462, "pitch": 66, "duration": 6, "velocity": 75}, {"time": 468, "pitch": 44, "duration": 18, "velocity": 71}, {"time": 471, "pitch": 56, "duration": 14, "velocity": 48}, {"time": 474, "pitch": 59, "duration": 25, "velocity": 45}, {"time": 477, "pitch": 63, "duration": 21, "velocity": 58}, {"time": 477, "pitch": 68, "duration": 15, "velocity": 69}, {"time": 492, "pitch": 40, "duration": 14, "velocity": 65}, {"time": 495, "pitch": 47, "duration": 12, "velocity": 53}, {"time": 498, "pitch": 52, "duration": 10, "velocity": 70}, {"time": 501, "pitch": 59, "duration": 5, "velocity": 37}, {"time": 501, "pitch": 64, "duration": 14, "velocity": 77}, {"time": 501, "pitch": 68, "duration": 15, "velocity": 83}, {"time": 510, "pitch": 59, "duration": 7, "velocity": 15}, {"time": 516, "pitch": 42, "duration": 18, "velocity": 58}, {"time": 519, "pitch": 49, "duration": 14, "velocity": 52}, {"time": 522, "pitch": 54, "duration": 5, "velocity": 73}, {"time": 525, "pitch": 61, "duration": 6, "velocity": 92}, {"time": 525, "pitch": 66, "duration": 15, "velocity": 73}, {"time": 528, "pitch": 58, "duration": 8, "velocity": 74}, {"time": 531, "pitch": 54, "duration": 4, "velocity": 76}, {"time": 534, "pitch": 61, "duration": 5, "velocity": 42}, {"time": 540, "pitch": 47, "duration": 7, "velocity": 77}, {"time": 543, "pitch": 59, "duration": 7, "velocity": 57}, {"time": 546, "pitch": 66, "duration": 5, "velocity": 99}, {"time": 549, "pitch": 63, "duration": 3, "velocity": 62}, {"time": 552, "pitch": 46, "duration": 8, "velocity": 86}, {"time": 555, "pitch": 58, "duration": 5, "velocity": 70}, {"time": 558, "pitch": 66, "duration": 6, "velocity": 86}, {"time": 564, "pitch": 44, "duration": 19, "velocity": 73}, {"time": 567, "pitch": 56, "duration": 15, "velocity": 67}, {"time": 570, "pitch": 59, "duration": 19, "velocity": 58}, {"time": 573, "pitch": 63, "duration": 15, "velocity": 59}, {"time": 573, "pitch": 68, "duration": 15, "velocity": 79}, {"time": 588, "pitch": 40, "duration": 17, "velocity": 65}, {"time": 591, "pitch": 47, "duration": 14, "velocity": 52}, {"time": 594, "pitch": 52, "duration": 7, "velocity": 86}, {"time": 597, "pitch": 64, "duration": 15, "velocity": 75}, {"time": 597, "pitch": 68, "duration": 15, "velocity": 85}, {"time": 603, "pitch": 52, "duration": 3, "velocity": 69}, {"time": 606, "pitch": 59, "duration": 6, "velocity": 75}, {"time": 612, "pitch": 42, "duration": 16, "velocity": 71}, {"time": 615, "pitch": 49, "duration": 14, "velocity": 69}, {"time": 618, "pitch": 54, "duration": 6, "velocity": 92}, {"time": 621, "pitch": 58, "duration": 4, "velocity": 97}, {"time": 624, "pitch": 61, "duration": 12, "velocity": 86}, {"time": 624, "pitch": 66, "duration": 11, "velocity": 93}, {"time": 627, "pitch": 54, "duration": 4, "velocity": 78}, {"time": 630, "pitch": 58, "duration": 5, "velocity": 88}, {"time": 636, "pitch": 47, "duration": 10, "velocity": 82}, {"time": 639, "pitch": 59, "duration": 7, "velocity": 77}, {"time": 642, "pitch": 66, "duration": 5, "velocity": 112}, {"time": 645, "pitch": 63, "duration": 3, "velocity": 89}, {"time": 648, "pitch": 46, "duration": 6, "velocity": 89}, {"time": 651, "pitch": 58, "duration": 9, "velocity": 79}, {"time": 654, "pitch": 66, "duration": 6, "velocity": 83}, {"time": 660, "pitch": 44, "duration": 17, "velocity": 72}, {"time": 663, "pitch": 56, "duration": 13, "velocity": 67}, {"time": 666, "pitch": 59, "duration": 10, "velocity": 65}, {"time": 669, "pitch": 63, "duration": 16, "velocity": 76}, {"time": 669, "pitch": 68, "duration": 14, "velocity": 90}, {"time": 678, "pitch": 59, "duration": 6, "velocity": 76}, {"time": 684, "pitch": 40, "duration": 17, "velocity": 67}, {"time": 687, "pitch": 47, "duration": 14, "velocity": 38}, {"time": 690, "pitch": 52, "duration": 7, "velocity": 76}, {"time": 693, "pitch": 59, "duration": 6, "velocity": 76}, {"time": 693, "pitch": 64, "duration": 15, "velocity": 77}, {"time": 693, "pitch": 68, "duration": 16, "velocity": 70}, {"time": 699, "pitch": 52, "duration": 3, "velocity": 48}, {"time": 702, "pitch": 59, "duration": 6, "velocity": 79}, {"time": 708, "pitch": 42, "duration": 16, "velocity": 79}, {"time": 711, "pitch": 49, "duration": 13, "velocity": 47}, {"time": 714, "pitch": 54, "duration": 5, "velocity": 83}, {"time": 717, "pitch": 61, "duration": 4, "velocity": 81}, {"time": 717, "pitch": 66, "duration": 14, "velocity": 88}, {"time": 717, "pitch": 70, "duration": 14, "velocity": 88}, {"time": 723, "pitch": 54, "duration": 4, "velocity": 72}, {"time": 726, "pitch": 61, "duration": 6, "velocity": 93}, {"time": 732, "pitch": 47, "duration": 9, "velocity": 77}, {"time": 735, "pitch": 54, "duration": 6, "velocity": 56}, {"time": 738, "pitch": 59, "duration": 5, "velocity": 72}, {"time": 741, "pitch": 63, "duration": 3, "velocity": 83}, {"time": 741, "pitch": 66, "duration": 3, "velocity": 93}, {"time": 744, "pitch": 46, "duration": 11, "velocity": 92}, {"time": 747, "pitch": 58, "duration": 4, "velocity": 77}, {"time": 750, "pitch": 66, "duration": 6, "velocity": 96}, {"time": 756, "pitch": 44, "duration": 17, "velocity": 88}, {"time": 759, "pitch": 56, "duration": 9, "velocity": 81}, {"time": 762, "pitch": 59, "duration": 9, "velocity": 58}, {"time": 765, "pitch": 63, "duration": 14, "velocity": 86}, {"time": 765, "pitch": 68, "duration": 15, "velocity": 95}, {"time": 771, "pitch": 56, "duration": 1, "velocity": 59}, {"time": 774, "pitch": 59, "duration": 6, "velocity": 83}, {"time": 780, "pitch": 40, "duration": 17, "velocity": 75}, {"time": 783, "pitch": 47, "duration": 15, "velocity": 42}, {"time": 786, "pitch": 52, "duration": 7, "velocity": 76}, {"time": 789, "pitch": 59, "duration": 6, "velocity": 67}, {"time": 789, "pitch": 64, "duration": 15, "velocity": 83}, {"time": 789, "pitch": 68, "duration": 15, "velocity": 89}, {"time": 795, "pitch": 52, "duration": 3, "velocity": 47}, {"time": 798, "pitch": 59, "duration": 5, "velocity": 74}, {"time": 804, "pitch": 42, "duration": 23, "velocity": 63}, {"time": 807, "pitch": 49, "duration": 20, "velocity": 56}, {"time": 810, "pitch": 54, "duration": 5, "velocity": 81}, {"time": 813, "pitch": 61, "duration": 5, "velocity": 97}, {"time": 813, "pitch": 66, "duration": 14, "velocity": 96}, {"time": 813, "pitch": 70, "duration": 15, "velocity": 93}, {"time": 819, "pitch": 54, "duration": 8, "velocity": 85}, {"time": 822, "pitch": 61, "duration": 5, "velocity": 112}, {"time": 828, "pitch": 47, "duration": 11, "velocity": 78}, {"time": 831, "pitch": 59, "duration": 8, "velocity": 75}, {"time": 834, "pitch": 66, "duration": 7, "velocity": 112}, {"time": 840, "pitch": 46, "duration": 7, "velocity": 72}, {"time": 843, "pitch": 58, "duration": 8, "velocity": 78}, {"time": 846, "pitch": 66, "duration": 5, "velocity": 67}, {"time": 852, "pitch": 44, "duration": 8, "velocity": 81}, {"time": 855, "pitch": 56, "duration": 4, "velocity": 88}, {"time": 858, "pitch": 59, "duration": 5, "velocity": 82}, {"time": 864, "pitch": 42, "duration": 10, "velocity": 72}, {"time": 867, "pitch": 54, "duration": 8, "velocity": 76}, {"time": 870, "pitch": 58, "duration": 4, "velocity": 43}, {"time": 870, "pitch": 61, "duration": 5, "velocity": 92}, {"time": 876, "pitch": 40, "duration": 10, "velocity": 65}, {"time": 879, "pitch": 47, "duration": 7, "velocity": 44}, {"time": 882, "pitch": 52, "duration": 4, "velocity": 72}, {"time": 885, "pitch": 59, "duration": 2, "velocity": 70}, {"time": 885, "pitch": 64, "duration": 2, "velocity": 71}, {"time": 885, "pitch": 68, "duration": 2, "velocity": 67}, {"time": 888, "pitch": 39, "duration": 7, "velocity": 93}, {"time": 891, "pitch": 51, "duration": 8, "velocity": 68}, {"time": 894, "pitch": 63, "duration": 6, "velocity": 71}, {"time": 894, "pitch": 66, "duration": 5, "velocity": 81}, {"time": 894, "pitch": 70, "duration": 5, "velocity": 77}, {"time": 900, "pitch": 42, "duration": 13, "velocity": 78}, {"time": 903, "pitch": 54, "duration": 7, "velocity": 85}, {"time": 906, "pitch": 58, "duration": 6, "velocity": 65}, {"time": 909, "pitch": 61, "duration": 3, "velocity": 58}, {"time": 909, "pitch": 66, "duration": 3, "velocity": 65}, {"time": 912, "pitch": 43, "duration": 6, "velocity": 66}, {"time": 912, "pitch": 55, "duration": 10, "velocity": 89}, {"time": 924, "pitch": 44, "duration": 10, "velocity": 82}, {"time": 927, "pitch": 56, "duration": 6, "velocity": 72}, {"time": 930, "pitch": 59, "duration": 6, "velocity": 59}, {"time": 933, "pitch": 63, "duration": 3, "velocity": 90}, {"time": 933, "pitch": 68, "duration": 3, "velocity": 102}, {"time": 936, "pitch": 42, "duration": 11, "velocity": 88}, {"time": 939, "pitch": 54, "duration": 2, "velocity": 48}, {"time": 939, "pitch": 56, "duration": 1, "velocity": 27}, {"time": 942, "pitch": 58, "duration": 5, "velocity": 45}, {"time": 942, "pitch": 61, "duration": 5, "velocity": 59}, {"time": 945, "pitch": 54, "duration": 2, "velocity": 90}, {"time": 948, "pitch": 40, "duration": 8, "velocity": 64}, {"time": 951, "pitch": 47, "duration": 6, "velocity": 42}, {"time": 954, "pitch": 52, "duration": 3, "velocity": 76}, {"time": 957, "pitch": 59, "duration": 2, "velocity": 72}, {"time": 957, "pitch": 64, "duration": 2, "velocity": 70}, {"time": 957, "pitch": 68, "duration": 2, "velocity": 61}, {"time": 960, "pitch": 39, "duration": 9, "velocity": 89}, {"time": 963, "pitch": 51, "duration": 7, "velocity": 74}, {"time": 966, "pitch": 66, "duration": 5, "velocity": 88}, {"time": 966, "pitch": 70, "duration": 6, "velocity": 69}, {"time": 969, "pitch": 63, "duration": 2, "velocity": 90}, {"time": 972, "pitch": 37, "duration": 18, "velocity": 67}, {"time": 975, "pitch": 49, "duration": 9, "velocity": 58}, {"time": 978, "pitch": 52, "duration": 13, "velocity": 60}, {"time": 981, "pitch": 56, "duration": 8, "velocity": 81}, {"time": 981, "pitch": 61, "duration": 8, "velocity": 95}, {"time": 987, "pitch": 49, "duration": 7, "velocity": 62}, {"time": 990, "pitch": 56, "duration": 5, "velocity": 73}, {"time": 990, "pitch": 61, "duration": 5, "velocity": 88}, {"time": 993, "pitch": 52, "duration": 2, "velocity": 62}, {"time": 996, "pitch": 42, "duration": 23, "velocity": 69}, {"time": 999, "pitch": 49, "duration": 19, "velocity": 29}, {"time": 1002, "pitch": 54, "duration": 4, "velocity": 90}, {"time": 1005, "pitch": 58, "duration": 7, "velocity": 92}, {"time": 1005, "pitch": 61, "duration": 7, "velocity": 93}, {"time": 1005, "pitch": 66, "duration": 7, "velocity": 76}, {"time": 1011, "pitch": 54, "duration": 8, "velocity": 92}, {"time": 1014, "pitch": 61, "duration": 5, "velocity": 107}, {"time": 1014, "pitch": 66, "duration": 5, "velocity": 96}, {"time": 1017, "pitch": 58, "duration": 2, "velocity": 90}, {"time": 1020, "pitch": 37, "duration": 8, "velocity": 85}, {"time": 1023, "pitch": 49, "duration": 8, "velocity": 72}, {"time": 1026, "pitch": 64, "duration": 5, "velocity": 83}, {"time": 1026, "pitch": 68, "duration": 5, "velocity": 96}, {"time": 1029, "pitch": 61, "duration": 3, "velocity": 86}, {"time": 1032, "pitch": 39, "duration": 7, "velocity": 92}, {"time": 1035, "pitch": 51, "duration": 7, "velocity": 85}, {"time": 1038, "pitch": 66, "duration": 4, "velocity": 102}, {"time": 1038, "pitch": 70, "duration": 4, "velocity": 95}, {"time": 1041, "pitch": 63, "duration": 2, "velocity": 73}, {"time": 1044, "pitch": 46, "duration": 14, "velocity": 81}, {"time": 1044, "pitch": 61, "duration": 7, "velocity": 89}, {"time": 1044, "pitch": 66, "duration": 7, "velocity": 66}, {"time": 1044, "pitch": 70, "duration": 5, "velocity": 68}, {"time": 1053, "pitch": 61, "duration": 7, "velocity": 85}, {"time": 1053, "pitch": 66, "duration": 7, "velocity": 93}, {"time": 1053, "pitch": 70, "duration": 7, "velocity": 86}, {"time": 1059, "pitch": 46, "duration": 3, "velocity": 55}, {"time": 1062, "pitch": 61, "duration": 1, "velocity": 37}, {"time": 1062, "pitch": 66, "duration": 4, "velocity": 96}, {"time": 1062, "pitch": 70, "duration": 4, "velocity": 93}, {"time": 1065, "pitch": 61, "duration": 2, "velocity": 33}, {"time": 1068, "pitch": 47, "duration": 9, "velocity": 76}, {"time": 1071, "pitch": 59, "duration": 7, "velocity": 81}, {"time": 1074, "pitch": 66, "duration": 5, "velocity": 117}, {"time": 1077, "pitch": 63, "duration": 3, "velocity": 69}, {"time": 1080, "pitch": 46, "duration": 11, "velocity": 92}, {"time": 1083, "pitch": 58, "duration": 7, "velocity": 70}, {"time": 1086, "pitch": 66, "duration": 4, "velocity": 93}, {"time": 1089, "pitch": 63, "duration": 3, "velocity": 66}, {"time": 1092, "pitch": 44, "duration": 18, "velocity": 88}, {"time": 1095, "pitch": 56, "duration": 8, "velocity": 70}, {"time": 1098, "pitch": 59, "duration": 9, "velocity": 65}, {"time": 1101, "pitch": 63, "duration": 12, "velocity": 90}, {"time": 1101, "pitch": 68, "duration": 13, "velocity": 95}, {"time": 1107, "pitch": 56, "duration": 2, "velocity": 61}, {"time": 1110, "pitch": 59, "duration": 4, "velocity": 79}, {"time": 1116, "pitch": 49, "duration": 12, "velocity": 90}, {"time": 1119, "pitch": 61, "duration": 4, "velocity": 77}, {"time": 1122, "pitch": 64, "duration": 1, "velocity": 58}, {"time": 1122, "pitch": 68, "duration": 4, "velocity": 93}, {"time": 1125, "pitch": 61, "duration": 2, "velocity": 82}, {"time": 1128, "pitch": 51, "duration": 6, "velocity": 81}, {"time": 1131, "pitch": 58, "duration": 4, "velocity": 63}, {"time": 1134, "pitch": 63, "duration": 5, "velocity": 81}, {"time": 1134, "pitch": 66, "duration": 5, "velocity": 97}, {"time": 1140, "pitch": 46, "duration": 14, "velocity": 83}, {"time": 1140, "pitch": 58, "duration": 7, "velocity": 89}, {"time": 1140, "pitch": 61, "duration": 7, "velocity": 77}, {"time": 1140, "pitch": 66, "duration": 6, "velocity": 52}, {"time": 1149, "pitch": 58, "duration": 7, "velocity": 90}, {"time": 1149, "pitch": 61, "duration": 7, "velocity": 88}, {"time": 1149, "pitch": 66, "duration": 7, "velocity": 79}, {"time": 1155, "pitch": 46, "duration": 2, "velocity": 44}, {"time": 1158, "pitch": 61, "duration": 5, "velocity": 99}, {"time": 1158, "pitch": 66, "duration": 5, "velocity": 89}, {"time": 1164, "pitch": 47, "duration": 8, "velocity": 74}, {"time": 1167, "pitch": 54, "duration": 5, "velocity": 76}, {"time": 1170, "pitch": 59, "duration": 5, "velocity": 65}, {"time": 1173, "pitch": 63, "duration": 3, "velocity": 72}, {"time": 1173, "pitch": 66, "duration": 2, "velocity": 90}, {"time": 1176, "pitch": 46, "duration": 7, "velocity": 77}, {"time": 1179, "pitch": 58, "duration": 4, "velocity": 73}, {"time": 1182, "pitch": 66, "duration": 5, "velocity": 96}, {"time": 1188, "pitch": 44, "duration": 18, "velocity": 89}, {"time": 1191, "pitch": 56, "duration": 8, "velocity": 74}, {"time": 1194, "pitch": 59, "duration": 8, "velocity": 45}, {"time": 1197, "pitch": 63, "duration": 14, "velocity": 100}, {"time": 1203, "pitch": 56, "duration": 2, "velocity": 88}, {"time": 1206, "pitch": 59, "duration": 6, "velocity": 82}, {"time": 1212, "pitch": 37, "duration": 22, "velocity": 81}, {"time": 1215, "pitch": 49, "duration": 10, "velocity": 70}, {"time": 1218, "pitch": 61, "duration": 11, "velocity": 64}, {"time": 1221, "pitch": 64, "duration": 6, "velocity": 61}, {"time": 1221, "pitch": 68, "duration": 7, "velocity": 90}, {"time": 1227, "pitch": 49, "duration": 8, "velocity": 77}, {"time": 1230, "pitch": 61, "duration": 1, "velocity": 36}, {"time": 1230, "pitch": 64, "duration": 1, "velocity": 63}, {"time": 1230, "pitch": 68, "duration": 2, "velocity": 55}, {"time": 1233, "pitch": 61, "duration": 1, "velocity": 42}, {"time": 1236, "pitch": 37, "duration": 16, "velocity": 83}, {"time": 1236, "pitch": 61, "duration": 7, "velocity": 70}, {"time": 1236, "pitch": 65, "duration": 6, "velocity": 74}, {"time": 1236, "pitch": 68, "duration": 6, "velocity": 72}, {"time": 1242, "pitch": 49, "duration": 6, "velocity": 77}, {"time": 1245, "pitch": 61, "duration": 7, "velocity": 88}, {"time": 1245, "pitch": 65, "duration": 13, "velocity": 85}, {"time": 1245, "pitch": 68, "duration": 12, "velocity": 88}, {"time": 1251, "pitch": 49, "duration": 3, "velocity": 69}, {"time": 1254, "pitch": 61, "duration": 5, "velocity": 73}, {"time": 1260, "pitch": 46, "duration": 22, "velocity": 85}, {"time": 1260, "pitch": 63, "duration": 8, "velocity": 74}, {"time": 1260, "pitch": 70, "duration": 8, "velocity": 62}, {"time": 1266, "pitch": 53, "duration": 18, "velocity": 47}, {"time": 1269, "pitch": 63, "duration": 7, "velocity": 81}, {"time": 1269, "pitch": 70, "duration": 22, "velocity": 71}, {"time": 1275, "pitch": 58, "duration": 22, "velocity": 53}, {"time": 1278, "pitch": 63, "duration": 14, "velocity": 79}, {"time": 1284, "pitch": 46, "duration": 17, "velocity": 69}, {"time": 1290, "pitch": 53, "duration": 9, "velocity": 40}, {"time": 1293, "pitch": 63, "duration": 7, "velocity": 93}, {"time": 1293, "pitch": 70, "duration": 10, "velocity": 90}, {"time": 1299, "pitch": 58, "duration": 1, "velocity": 55}, {"time": 1302, "pitch": 63, "duration": 2, "velocity": 97}, {"time": 1308, "pitch": 37, "duration": 8, "velocity": 95}, {"time": 1308, "pitch": 61, "duration": 6, "velocity": 93}, {"time": 1308, "pitch": 64, "duration": 6, "velocity": 77}, {"time": 1308, "pitch": 68, "duration": 7, "velocity": 90}, {"time": 1314, "pitch": 49, "duration": 5, "velocity": 81}, {"time": 1320, "pitch": 39, "duration": 5, "velocity": 89}, {"time": 1320, "pitch": 63, "duration": 7, "velocity": 95}, {"time": 1320, "pitch": 66, "duration": 6, "velocity": 93}, {"time": 1320, "pitch": 70, "duration": 6, "velocity": 72}, {"time": 1332, "pitch": 46, "duration": 17, "velocity": 75}, {"time": 1332, "pitch": 58, "duration": 8, "velocity": 74}, {"time": 1332, "pitch": 61, "duration": 7, "velocity": 53}, {"time": 1332, "pitch": 64, "duration": 7, "velocity": 69}, {"time": 1332, "pitch": 68, "duration": 7, "velocity": 72}, {"time": 1341, "pitch": 58, "duration": 6, "velocity": 63}, {"time": 1341, "pitch": 61, "duration": 10, "velocity": 90}, {"time": 1341, "pitch": 64, "duration": 9, "velocity": 83}, {"time": 1341, "pitch": 68, "duration": 9, "velocity": 83}, {"time": 1350, "pitch": 58, "duration": 1, "velocity": 86}, {"time": 1356, "pitch": 40, "duration": 16, "velocity": 83}, {"time": 1356, "pitch": 59, "duration": 7, "velocity": 90}, {"time": 1356, "pitch": 64, "duration": 10, "velocity": 90}, {"time": 1356, "pitch": 68, "duration": 10, "velocity": 93}, {"time": 1359, "pitch": 47, "duration": 14, "velocity": 55}, {"time": 1362, "pitch": 52, "duration": 7, "velocity": 78}, {"time": 1365, "pitch": 59, "duration": 5, "velocity": 81}, {"time": 1368, "pitch": 64, "duration": 6, "velocity": 88}, {"time": 1368, "pitch": 68, "duration": 7, "velocity": 96}, {"time": 1371, "pitch": 52, "duration": 3, "velocity": 83}, {"time": 1374, "pitch": 59, "duration": 1, "velocity": 86}, {"time": 1380, "pitch": 42, "duration": 22, "velocity": 89}, {"time": 1383, "pitch": 49, "duration": 19, "velocity": 42}, {"time": 1386, "pitch": 54, "duration": 6, "velocity": 100}, {"time": 1389, "pitch": 66, "duration": 4, "velocity": 78}, {"time": 1392, "pitch": 70, "duration": 7, "velocity": 97}, {"time": 1392, "pitch": 73, "duration": 8, "velocity": 112}, {"time": 1395, "pitch": 54, "duration": 9, "velocity": 90}, {"time": 1398, "pitch": 66, "duration": 6, "velocity": 97}, {"time": 1401, "pitch": 70, "duration": 3, "velocity": 58}, {"time": 1401, "pitch": 73, "duration": 3, "velocity": 43}, {"time": 1404, "pitch": 42, "duration": 48, "velocity": 55}, {"time": 1404, "pitch": 49, "duration": 48, "velocity": 66}, {"time": 1404, "pitch": 54, "duration": 48, "velocity": 69}, {"time": 1404, "pitch": 61, "duration": 48, "velocity": 88}, {"time": 1404, "pitch": 66, "duration": 48, "velocity": 74}, {"time": 1404, "pitch": 70, "duration": 48, "velocity": 63}, {"time": 1452, "pitch": 47, "duration": 8, "velocity": 69}, {"time": 1455, "pitch": 54, "duration": 3, "velocity": 47}, {"time": 1458, "pitch": 59, "duration": 4, "velocity": 69}, {"time": 1461, "pitch": 66, "duration": 3, "velocity": 85}, {"time": 1464, "pitch": 46, "duration": 11, "velocity": 63}, {"time": 1467, "pitch": 58, "duration": 4, "velocity": 64}, {"time": 1470, "pitch": 66, "duration": 6, "velocity": 75}, {"time": 1476, "pitch": 44, "duration": 18, "velocity": 71}, {"time": 1479, "pitch": 56, "duration": 14, "velocity": 48}, {"time": 1482, "pitch": 59, "duration": 25, "velocity": 45}, {"time": 1485, "pitch": 63, "duration": 21, "velocity": 58}, {"time": 1485, "pitch": 68, "duration": 15, "velocity": 69}, {"time": 1500, "pitch": 40, "duration": 14, "velocity": 65}, {"time": 1503, "pitch": 47, "duration": 12, "velocity": 53}, {"time": 1506, "pitch": 52, "duration": 10, "velocity": 70}, {"time": 1509, "pitch": 59, "duration": 5, "velocity": 37}, {"time": 1509, "pitch": 64, "duration": 14, "velocity": 77}, {"time": 1509, "pitch": 68, "duration": 15, "velocity": 83}, {"time": 1518, "pitch": 59, "duration": 7, "velocity": 15}, {"time": 1524, "pitch": 42, "duration": 18, "velocity": 58}, {"time": 1527, "pitch": 49, "duration": 14, "velocity": 52}, {"time": 1530, "pitch": 54, "duration": 5, "velocity": 73}, {"time": 1533, "pitch": 61, "duration": 6, "velocity": 92}, {"time": 1533, "pitch": 66, "duration": 15, "velocity": 73}, {"time": 1536, "pitch": 58, "duration": 8, "velocity": 74}, {"time": 1539, "pitch": 54, "duration": 4, "velocity": 76}, {"time": 1542, "pitch": 61, "duration": 5, "velocity": 42}, {"time": 1548, "pitch": 47, "duration": 7, "velocity": 77}, {"time": 1551, "pitch": 59, "duration": 7, "velocity": 57}, {"time": 1554, "pitch": 66, "duration": 5, "velocity": 99}, {"time": 1557, "pitch": 63, "duration": 3, "velocity": 62}, {"time": 1560, "pitch": 46, "duration": 8, "velocity": 86}, {"time": 1563, "pitch": 58, "duration": 5, "velocity": 70}, {"time": 1566, "pitch": 66, "duration": 6, "velocity": 86}, {"time": 1572, "pitch": 44, "duration": 19, "velocity": 73}, {"time": 1575, "pitch": 56, "duration": 15, "velocity": 67}, {"time": 1578, "pitch": 59, "duration": 19, "velocity": 58}, {"time": 1581, "pitch": 63, "duration": 15, "velocity": 59}, {"time": 1581, "pitch": 68, "duration": 15, "velocity": 79}, {"time": 1596, "pitch": 40, "duration": 17, "velocity": 65}, {"time": 1599, "pitch": 47, "duration": 14, "velocity": 52}, {"time": 1602, "pitch": 52, "duration": 7, "velocity": 86}, {"time": 1605, "pitch": 64, "duration": 15, "velocity": 75}, {"time": 1605, "pitch": 68, "duration": 15, "velocity": 85}, {"time": 1611, "pitch": 52, "duration": 3, "velocity": 69}, {"time": 1614, "pitch": 59, "duration": 6, "velocity": 75}, {"time": 1620, "pitch": 42, "duration": 16, "velocity": 71}, {"time": 1623, "pitch": 49, "duration": 14, "velocity": 69}, {"time": 1626, "pitch": 54, "duration": 6, "velocity": 92}, {"time": 1629, "pitch": 58, "duration": 4, "velocity": 97}, {"time": 1632, "pitch": 61, "duration": 12, "velocity": 86}, {"time": 1632, "pitch": 66, "duration": 11, "velocity": 93}, {"time": 1635, "pitch": 54, "duration": 4, "velocity": 78}, {"time": 1638, "pitch": 58, "duration": 5, "velocity": 88}, {"time": 1644, "pitch": 47, "duration": 10, "velocity": 82}, {"time": 1647, "pitch": 59, "duration": 7, "velocity": 77}, {"time": 1650, "pitch": 66, "duration": 5, "velocity": 112}, {"time": 1653, "pitch": 63, "duration": 3, "velocity": 89}, {"time": 1656, "pitch": 46, "duration": 6, "velocity": 89}, {"time": 1659, "pitch": 58, "duration": 9, "velocity": 79}, {"time": 1662, "pitch": 66, "duration": 6, "velocity": 83}, {"time": 1668, "pitch": 44, "duration": 17, "velocity": 72}, {"time": 1671, "pitch": 56, "duration": 13, "velocity": 67}, {"time": 1674, "pitch": 59, "duration": 10, "velocity": 65}, {"time": 1677, "pitch": 63, "duration": 16, "velocity": 76}, {"time": 1677, "pitch": 68, "duration": 14, "velocity": 90}, {"time": 1686, "pitch": 59, "duration": 6, "velocity": 76}, {"time": 1692, "pitch": 40, "duration": 17, "velocity": 67}, {"time": 1695, "pitch": 47, "duration": 14, "velocity": 38}, {"time": 1698, "pitch": 52, "duration": 7, "velocity": 76}, {"time": 1701, "pitch": 59, "duration": 6, "velocity": 76}, {"time": 1701, "pitch": 64, "duration": 15, "velocity": 77}, {"time": 1701, "pitch": 68, "duration": 16, "velocity": 70}, {"time": 1707, "pitch": 52, "duration": 3, "velocity": 48}, {"time": 1710, "pitch": 59, "duration": 6, "velocity": 79}, {"time": 1716, "pitch": 42, "duration": 16, "velocity": 79}, {"time": 1719, "pitch": 49, "duration": 13, "velocity": 47}, {"time": 1722, "pitch": 54, "duration": 5, "velocity": 83}, {"time": 1725, "pitch": 61, "duration": 4, "velocity": 81}, {"time": 1725, "pitch": 66, "duration": 14, "velocity": 88}, {"time": 1725, "pitch": 70, "duration": 14, "velocity": 88}, {"time": 1731, "pitch": 54, "duration": 4, "velocity": 72}, {"time": 1734, "pitch": 61, "duration": 6, "velocity": 93}, {"time": 1740, "pitch": 47, "duration": 9, "velocity": 77}, {"time": 1743, "pitch": 54, "duration": 6, "velocity": 56}, {"time": 1746, "pitch": 59, "duration": 5, "velocity": 72}, {"time": 1749, "pitch": 63, "duration": 3, "velocity": 83}, {"time": 1749, "pitch": 66, "duration": 3, "velocity": 93}, {"time": 1752, "pitch": 46, "duration": 11, "velocity": 92}, {"time": 1755, "pitch": 58, "duration": 4, "velocity": 77}, {"time": 1758, "pitch": 66, "duration": 6, "velocity": 96}, {"time": 1764, "pitch": 44, "duration": 17, "velocity": 88}, {"time": 1767, "pitch": 56, "duration": 9, "velocity": 81}, {"time": 1770, "pitch": 59, "duration": 9, "velocity": 58}, {"time": 1773, "pitch": 63, "duration": 14, "velocity": 86}, {"time": 1773, "pitch": 68, "duration": 15, "velocity": 95}, {"time": 1779, "pitch": 56, "duration": 1, "velocity": 59}, {"time": 1782, "pitch": 59, "duration": 6, "velocity": 83}, {"time": 1788, "pitch": 40, "duration": 17, "velocity": 75}, {"time": 1791, "pitch": 47, "duration": 15, "velocity": 42}, {"time": 1794, "pitch": 52, "duration": 7, "velocity": 76}, {"time": 1797, "pitch": 59, "duration": 6, "velocity": 67}, {"time": 1797, "pitch": 64, "duration": 15, "velocity": 83}, {"time": 1797, "pitch": 68, "duration": 15, "velocity": 89}, {"time": 1803, "pitch": 52, "duration": 3, "velocity": 47}, {"time": 1806, "pitch": 59, "duration": 5, "velocity": 74}, {"time": 1812, "pitch": 42, "duration": 23, "velocity": 63}, {"time": 1815, "pitch": 49, "duration": 20, "velocity": 56}, {"time": 1818, "pitch": 54, "duration": 5, "velocity": 81}, {"time": 1821, "pitch": 61, "duration": 5, "velocity": 97}, {"time": 1821, "pitch": 66, "duration": 14, "velocity": 96}, {"time": 1821, "pitch": 70, "duration": 15, "velocity": 93}, {"time": 1827, "pitch": 54, "duration": 8, "velocity": 85}, {"time": 1830, "pitch": 61, "duration": 5, "velocity": 112}, {"time": 1836, "pitch": 47, "duration": 11, "velocity": 78}, {"time": 1839, "pitch": 59, "duration": 8, "velocity": 75}, {"time": 1842, "pitch": 66, "duration": 7, "velocity": 112}, {"time": 1848, "pitch": 46, "duration": 7, "velocity": 72}, {"time": 1851, "pitch": 58, "duration": 8, "velocity": 78}, {"time": 1854, "pitch": 66, "duration": 5, "velocity": 67}, {"time": 1860, "pitch": 44, "duration": 8, "velocity": 81}, {"time": 1863, "pitch": 56, "duration": 4, "velocity": 88}, {"time": 1866, "pitch": 59, "duration": 5, "velocity": 82}, {"time": 1872, "pitch": 42, "duration": 10, "velocity": 72}, {"time": 1875, "pitch": 54, "duration": 8, "velocity": 76}, {"time": 1878, "pitch": 58, "duration": 4, "velocity": 43}, {"time": 1878, "pitch": 61, "duration": 5, "velocity": 92}, {"time": 1884, "pitch": 40, "duration": 10, "velocity": 65}, {"time": 1887, "pitch": 47, "duration": 7, "velocity": 44}, {"time": 1890, "pitch": 52, "duration": 4, "velocity": 72}, {"time": 1893, "pitch": 59, "duration": 2, "velocity": 70}, {"time": 1893, "pitch": 64, "duration": 2, "velocity": 71}, {"time": 1893, "pitch": 68, "duration": 2, "velocity": 67}, {"time": 1896, "pitch": 39, "duration": 7, "velocity": 93}, {"time": 1899, "pitch": 51, "duration": 8, "velocity": 68}, {"time": 1902, "pitch": 63, "duration": 6, "velocity": 71}, {"time": 1902, "pitch": 66, "duration": 5, "velocity": 81}, {"time": 1902, "pitch": 70, "duration": 5, "velocity": 77}, {"time": 1908, "pitch": 42, "duration": 13, "velocity": 78}, {"time": 1911, "pitch": 54, "duration": 7, "velocity": 85}, {"time": 1914, "pitch": 58, "duration": 6, "velocity": 65}, {"time": 1917, "pitch": 61, "duration": 3, "velocity": 58}, {"time": 1917, "pitch": 66, "duration": 3, "velocity": 65}, {"time": 1920, "pitch": 43, "duration": 6, "velocity": 66}, {"time": 1920, "pitch": 55, "duration": 10, "velocity": 89}, {"time": 1932, "pitch": 44, "duration": 10, "velocity": 82}, {"time": 1935, "pitch": 56, "duration": 6, "velocity": 72}, {"time": 1938, "pitch": 59, "duration": 6, "velocity": 59}, {"time": 1941, "pitch": 63, "duration": 3, "velocity": 90}, {"time": 1941, "pitch": 68, "duration": 3, "velocity": 102}, {"time": 1944, "pitch": 42, "duration": 11, "velocity": 88}, {"time": 1947, "pitch": 54, "duration": 2, "velocity": 48}, {"time": 1947, "pitch": 56, "duration": 1, "velocity": 27}, {"time": 1950, "pitch": 58, "duration": 5, "velocity": 45}, {"time": 1950, "pitch": 61, "duration": 5, "velocity": 59}, {"time": 1953, "pitch": 54, "duration": 2, "velocity": 90}, {"time": 1956, "pitch": 40, "duration": 8, "velocity": 64}, {"time": 1959, "pitch": 47, "duration": 6, "velocity": 42}, {"time": 1962, "pitch": 52, "duration": 3, "velocity": 76}, {"time": 1965, "pitch": 59, "duration": 2, "velocity": 72}, {"time": 1965, "pitch": 64, "duration": 2, "velocity": 70}, {"time": 1965, "pitch": 68, "duration": 2, "velocity": 61}, {"time": 1968, "pitch": 39, "duration": 9, "velocity": 89}, {"time": 1971, "pitch": 51, "duration": 7, "velocity": 74}, {"time": 1974, "pitch": 66, "duration": 5, "velocity": 88}, {"time": 1974, "pitch": 70, "duration": 6, "velocity": 69}, {"time": 1977, "pitch": 63, "duration": 2, "velocity": 90}, {"time": 1980, "pitch": 37, "duration": 18, "velocity": 67}, {"time": 1983, "pitch": 49, "duration": 9, "velocity": 58}, {"time": 1986, "pitch": 52, "duration": 13, "velocity": 60}, {"time": 1989, "pitch": 56, "duration": 8, "velocity": 81}, {"time": 1989, "pitch": 61, "duration": 8, "velocity": 95}, {"time": 1995, "pitch": 49, "duration": 7, "velocity": 62}, {"time": 1998, "pitch": 56, "duration": 5, "velocity": 73}, {"time": 1998, "pitch": 61, "duration": 5, "velocity": 88}, {"time": 2001, "pitch": 52, "duration": 2, "velocity": 62}, {"time": 2004, "pitch": 42, "duration": 23, "velocity": 69}, {"time": 2007, "pitch": 49, "duration": 19, "velocity": 29}, {"time": 2010, "pitch": 54, "duration": 4, "velocity": 90}, {"time": 2013, "pitch": 58, "duration": 7, "velocity": 92}, {"time": 2013, "pitch": 61, "duration": 7, "velocity": 93}, {"time": 2013, "pitch": 66, "duration": 7, "velocity": 76}, {"time": 2019, "pitch": 54, "duration": 8, "velocity": 92}, {"time": 2022, "pitch": 61, "duration": 5, "velocity": 107}, {"time": 2022, "pitch": 66, "duration": 5, "velocity": 96}, {"time": 2025, "pitch": 58, "duration": 2, "velocity": 90}, {"time": 2028, "pitch": 37, "duration": 8, "velocity": 85}, {"time": 2031, "pitch": 49, "duration": 8, "velocity": 72}, {"time": 2034, "pitch": 64, "duration": 5, "velocity": 83}, {"time": 2034, "pitch": 68, "duration": 5, "velocity": 96}, {"time": 2037, "pitch": 61, "duration": 3, "velocity": 86}, {"time": 2040, "pitch": 39, "duration": 7, "velocity": 92}, {"time": 2043, "pitch": 51, "duration": 7, "velocity": 85}, {"time": 2046, "pitch": 66, "duration": 4, "velocity": 102}, {"time": 2046, "pitch": 70, "duration": 4, "velocity": 95}, {"time": 2049, "pitch": 63, "duration": 2, "velocity": 73}, {"time": 2052, "pitch": 46, "duration": 14, "velocity": 81}, {"time": 2052, "pitch": 61, "duration": 7, "velocity": 89}, {"time": 2052, "pitch": 66, "duration": 7, "velocity": 66}, {"time": 2052, "pitch": 70, "duration": 5, "velocity": 68}, {"time": 2061, "pitch": 61, "duration": 7, "velocity": 85}, {"time": 2061, "pitch": 66, "duration": 7, "velocity": 93}, {"time": 2061, "pitch": 70, "duration": 7, "velocity": 86}, {"time": 2067, "pitch": 46, "duration": 3, "velocity": 55}, {"time": 2070, "pitch": 61, "duration": 1, "velocity": 37}, {"time": 2070, "pitch": 66, "duration": 4, "velocity": 96}, {"time": 2070, "pitch": 70, "duration": 4, "velocity": 93}, {"time": 2073, "pitch": 61, "duration": 2, "velocity": 33}, {"time": 2076, "pitch": 47, "duration": 9, "velocity": 76}, {"time": 2079, "pitch": 59, "duration": 7, "velocity": 81}, {"time": 2082, "pitch": 66, "duration": 5, "velocity": 117}, {"time": 2085, "pitch": 63, "duration": 3, "velocity": 69}, {"time": 2088, "pitch": 46, "duration": 11, "velocity": 92}, {"time": 2091, "pitch": 58, "duration": 7, "velocity": 70}, {"time": 2094, "pitch": 66, "duration": 4, "velocity": 93}, {"time": 2097, "pitch": 63, "duration": 3, "velocity": 66}, {"time": 2100, "pitch": 44, "duration": 18, "velocity": 88}, {"time": 2103, "pitch": 56, "duration": 8, "velocity": 70}, {"time": 2106, "pitch": 59, "duration": 9, "velocity": 65}, {"time": 2109, "pitch": 63, "duration": 12, "velocity": 90}, {"time": 2109, "pitch": 68, "duration": 13, "velocity": 95}, {"time": 2115, "pitch": 56, "duration": 2, "velocity": 61}, {"time": 2118, "pitch": 59, "duration": 4, "velocity": 79}, {"time": 2124, "pitch": 49, "duration": 12, "velocity": 90}, {"time": 2127, "pitch": 61, "duration": 4, "velocity": 77}, {"time": 2130, "pitch": 64, "duration": 1, "velocity": 58}, {"time": 2130, "pitch": 68, "duration": 4, "velocity": 93}, {"time": 2133, "pitch": 61, "duration": 2, "velocity": 82}, {"time": 2136, "pitch": 51, "duration": 6, "velocity": 81}, {"time": 2139, "pitch": 58, "duration": 4, "velocity": 63}, {"time": 2142, "pitch": 63, "duration": 5, "velocity": 81}, {"time": 2142, "pitch": 66, "duration": 5, "velocity": 97}, {"time": 2148, "pitch": 46, "duration": 14, "velocity": 83}, {"time": 2148, "pitch": 58, "duration": 7, "velocity": 89}, {"time": 2148, "pitch": 61, "duration": 7, "velocity": 77}, {"time": 2148, "pitch": 66, "duration": 6, "velocity": 52}, {"time": 2157, "pitch": 58, "duration": 7, "velocity": 90}, {"time": 2157, "pitch": 61, "duration": 7, "velocity": 88}, {"time": 2157, "pitch": 66, "duration": 7, "velocity": 79}, {"time": 2163, "pitch": 46, "duration": 2, "velocity": 44}, {"time": 2166, "pitch": 61, "duration": 5, "velocity": 99}, {"time": 2166, "pitch": 66, "duration": 5, "velocity": 89}, {"time": 2172, "pitch": 47, "duration": 8, "velocity": 74}, {"time": 2175, "pitch": 54, "duration": 5, "velocity": 76}, {"time": 2178, "pitch": 59, "duration": 5, "velocity": 65}, {"time": 2181, "pitch": 63, "duration": 3, "velocity": 72}, {"time": 2181, "pitch": 66, "duration": 2, "velocity": 90}, {"time": 2184, "pitch": 46, "duration": 7, "velocity": 77}, {"time": 2187, "pitch": 58, "duration": 4, "velocity": 73}, {"time": 2190, "pitch": 66, "duration": 5, "velocity": 96}, {"time": 2196, "pitch": 44, "duration": 18, "velocity": 89}, {"time": 2199, "pitch": 56, "duration": 8, "velocity": 74}, {"time": 2202, "pitch": 59, "duration": 8, "velocity": 45}, {"time": 2205, "pitch": 63, "duration": 14, "velocity": 100}, {"time": 2211, "pitch": 56, "duration": 2, "velocity": 88}, {"time": 2214, "pitch": 59, "duration": 6, "velocity": 82}, {"time": 2220, "pitch": 37, "duration": 8, "velocity": 85}, {"time": 2223, "pitch": 49, "duration": 8, "velocity": 72}, {"time": 2226, "pitch": 64, "duration": 5, "velocity": 83}, {"time": 2226, "pitch": 68, "duration": 5, "velocity": 96}, {"time": 2229, "pitch": 61, "duration": 3, "velocity": 86}, {"time": 2232, "pitch": 39, "duration": 7, "velocity": 92}, {"time": 2235, "pitch": 51, "duration": 7, "velocity": 85}, {"time": 2238, "pitch": 66, "duration": 4, "velocity": 102}, {"time": 2238, "pitch": 70, "duration": 4, "velocity": 95}, {"time": 2241, "pitch": 63, "duration": 2, "velocity": 73}, {"time": 2244, "pitch": 46, "duration": 14, "velocity": 81}, {"time": 2244, "pitch": 61, "duration": 7, "velocity": 89}, {"time": 2244, "pitch": 66, "duration": 7, "velocity": 66}, {"time": 2244, "pitch": 70, "duration": 5, "velocity": 68}, {"time": 2253, "pitch": 61, "duration": 7, "velocity": 85}, {"time": 2253, "pitch": 66, "duration": 7, "velocity": 93}, {"time": 2253, "pitch": 70, "duration": 7, "velocity": 86}, {"time": 2259, "pitch": 46, "duration": 3, "velocity": 55}, {"time": 2262, "pitch": 61, "duration": 1, "velocity": 37}, {"time": 2262, "pitch": 66, "duration": 4, "velocity": 96}, {"time": 2262, "pitch": 70, "duration": 4, "velocity": 93}, {"time": 2265, "pitch": 61, "duration": 2, "velocity": 33}, {"time": 2268, "pitch": 47, "duration": 9, "velocity": 76}, {"time": 2271, "pitch": 59, "duration": 7, "velocity": 81}, {"time": 2274, "pitch": 66, "duration": 5, "velocity": 117}, {"time": 2277, "pitch": 63, "duration": 3, "velocity": 69}, {"time": 2280, "pitch": 46, "duration": 11, "velocity": 92}, {"time": 2283, "pitch": 58, "duration": 7, "velocity": 70}, {"time": 2286, "pitch": 66, "duration": 4, "velocity": 93}, {"time": 2289, "pitch": 63, "duration": 3, "velocity": 66}, {"time": 2292, "pitch": 44, "duration": 18, "velocity": 88}, {"time": 2295, "pitch": 56, "duration": 8, "velocity": 70}, {"time": 2298, "pitch": 59, "duration": 9, "velocity": 65}, {"time": 2301, "pitch": 63, "duration": 12, "velocity": 90}, {"time": 2301, "pitch": 68, "duration": 13, "velocity": 95}, {"time": 2307, "pitch": 56, "duration": 2, "velocity": 61}, {"time": 2310, "pitch": 59, "duration": 4, "velocity": 79}, {"time": 2316, "pitch": 49, "duration": 12, "velocity": 90}, {"time": 2319, "pitch": 61, "duration": 4, "velocity": 77}, {"time": 2322, "pitch": 64, "duration": 1, "velocity": 58}, {"time": 2322, "pitch": 68, "duration": 4, "velocity": 93}, {"time": 2325, "pitch": 61, "duration": 2, "velocity": 82}, {"time": 2328, "pitch": 51, "duration": 6, "velocity": 81}, {"time": 2331, "pitch": 58, "duration": 4, "velocity": 63}, {"time": 2334, "pitch": 63, "duration": 5, "velocity": 81}, {"time": 2334, "pitch": 66, "duration": 5, "velocity": 97}, {"time": 2340, "pitch": 46, "duration": 14, "velocity": 83}, {"time": 2340, "pitch": 58, "duration": 7, "velocity": 89}, {"time": 2340, "pitch": 61, "duration": 7, "velocity": 77}, {"time": 2340, "pitch": 66, "duration": 6, "velocity": 52}, {"time": 2349, "pitch": 58, "duration": 7, "velocity": 90}, {"time": 2349, "pitch": 61, "duration": 7, "velocity": 88}, {"time": 2349, "pitch": 66, "duration": 7, "velocity": 79}, {"time": 2355, "pitch": 46, "duration": 2, "velocity": 44}, {"time": 2358, "pitch": 61, "duration": 5, "velocity": 99}, {"time": 2358, "pitch": 66, "duration": 5, "velocity": 89}, {"time": 2364, "pitch": 47, "duration": 8, "velocity": 74}, {"time": 2367, "pitch": 54, "duration": 5, "velocity": 76}, {"time": 2370, "pitch": 59, "duration": 5, "velocity": 65}, {"time": 2373, "pitch": 63, "duration": 3, "velocity": 72}, {"time": 2373, "pitch": 66, "duration": 2, "velocity": 90}, {"time": 2376, "pitch": 46, "duration": 7, "velocity": 77}, {"time": 2379, "pitch": 58, "duration": 4, "velocity": 73}, {"time": 2382, "pitch": 66, "duration": 5, "velocity": 96}, {"time": 2388, "pitch": 44, "duration": 18, "velocity": 89}, {"time": 2391, "pitch": 56, "duration": 8, "velocity": 74}, {"time": 2394, "pitch": 59, "duration": 8, "velocity": 45}, {"time": 2397, "pitch": 63, "duration": 14, "velocity": 100}, {"time": 2403, "pitch": 56, "duration": 2, "velocity": 88}, {"time": 2406, "pitch": 59, "duration": 6, "velocity": 82}, {"time": 2412, "pitch": 47, "duration": 11, "velocity": 78}, {"time": 2415, "pitch": 59, "duration": 8, "velocity": 75}, {"time": 2418, "pitch": 66, "duration": 7, "velocity": 112}, {"time": 2424, "pitch": 46, "duration": 7, "velocity": 72}, {"time": 2427, "pitch": 58, "duration": 8, "velocity": 78}, {"time": 2430, "pitch": 66, "duration": 5, "velocity": 67}, {"time": 2436, "pitch": 44, "duration": 8, "velocity": 81}, {"time": 2439, "pitch": 56, "duration": 4, "velocity": 88}, {"time": 2442, "pitch": 59, "duration": 5, "velocity": 82}, {"time": 2448, "pitch": 42, "duration": 10, "velocity": 72}, {"time": 2451, "pitch": 54, "duration": 8, "velocity": 76}, {"time": 2454, "pitch": 58, "duration": 4, "velocity": 43}, {"time": 2454, "pitch": 61, "duration": 5, "velocity": 92}, {"time": 2460, "pitch": 40, "duration": 10, "velocity": 65}, {"time": 2463, "pitch": 47, "duration": 7, "velocity": 44}, {"time": 2466, "pitch": 52, "duration": 4, "velocity": 72}, {"time": 2469, "pitch": 59, "duration": 2, "velocity": 70}, {"time": 2469, "pitch": 64, "duration": 2, "velocity": 71}, {"time": 2469, "pitch": 68, "duration": 2, "velocity": 67}, {"time": 2472, "pitch": 39, "duration": 7, "velocity": 93}, {"time": 2475, "pitch": 51, "duration": 8, "velocity": 68}, {"time": 2478, "pitch": 63, "duration": 6, "velocity": 71}, {"time": 2478, "pitch": 66, "duration": 5, "velocity": 81}, {"time": 2478, "pitch": 70, "duration": 5, "velocity": 77}, {"time": 2484, "pitch": 42, "duration": 13, "velocity": 78}, {"time": 2487, "pitch": 54, "duration": 7, "velocity": 85}, {"time": 2490, "pitch": 58, "duration": 6, "velocity": 65}, {"time": 2493, "pitch": 61, "duration": 3, "velocity": 58}, {"time": 2493, "pitch": 66, "duration": 3, "velocity": 65}, {"time": 2496, "pitch": 43, "duration": 6, "velocity": 66}, {"time": 2496, "pitch": 55, "duration": 10, "velocity": 89}, {"time": 2508, "pitch": 44, "duration": 10, "velocity": 82}, {"time": 2511, "pitch": 56, "duration": 6, "velocity": 72}, {"time": 2514, "pitch": 59, "duration": 6, "velocity": 59}, {"time": 2517, "pitch": 63, "duration": 3, "velocity": 90}, {"time": 2517, "pitch": 68, "duration": 3, "velocity": 102}, {"time": 2520, "pitch": 42, "duration": 11, "velocity": 88}, {"time": 2523, "pitch": 54, "duration": 2, "velocity": 48}, {"time": 2523, "pitch": 56, "duration": 1, "velocity": 27}, {"time": 2526, "pitch": 58, "duration": 5, "velocity": 45}, {"time": 2526, "pitch": 61, "duration": 5, "velocity": 59}, {"time": 2529, "pitch": 54, "duration": 2, "velocity": 90}, {"time": 2532, "pitch": 40, "duration": 8, "velocity": 64}, {"time": 2535, "pitch": 47, "duration": 6, "velocity": 42}, {"time": 2538, "pitch": 52, "duration": 3, "velocity": 76}, {"time": 2541, "pitch": 59, "duration": 2, "velocity": 72}, {"time": 2541, "pitch": 64, "duration": 2, "velocity": 70}, {"time": 2541, "pitch": 68, "duration": 2, "velocity": 61}, {"time": 2544, "pitch": 39, "duration": 9, "velocity": 89}, {"time": 2547, "pitch": 51, "duration": 7, "velocity": 74}, {"time": 2550, "pitch": 66, "duration": 5, "velocity": 88}, {"time": 2550, "pitch": 70, "duration": 6, "velocity": 69}, {"time": 2553, "pitch": 63, "duration": 2, "velocity": 90}, {"time": 2556, "pitch": 37, "duration": 18, "velocity": 67}, {"time": 2559, "pitch": 49, "duration": 9, "velocity": 58}, {"time": 2562, "pitch": 52, "duration": 13, "velocity": 60}, {"time": 2565, "pitch": 56, "duration": 8, "velocity": 81}, {"time": 2565, "pitch": 61, "duration": 8, "velocity": 95}, {"time": 2571, "pitch": 49, "duration": 7, "velocity": 62}, {"time": 2574, "pitch": 56, "duration": 5, "velocity": 73}, {"time": 2574, "pitch": 61, "duration": 5, "velocity": 88}, {"time": 2577, "pitch": 52, "duration": 2, "velocity": 62}, {"time": 2580, "pitch": 42, "duration": 23, "velocity": 69}, {"time": 2583, "pitch": 49, "duration": 19, "velocity": 29}, {"time": 2586, "pitch": 54, "duration": 4, "velocity": 90}, {"time": 2589, "pitch": 58, "duration": 7, "velocity": 92}, {"time": 2589, "pitch": 61, "duration": 7, "velocity": 93}, {"time": 2589, "pitch": 66, "duration": 7, "velocity": 76}, {"time": 2595, "pitch": 54, "duration": 8, "velocity": 92}, {"time": 2598, "pitch": 61, "duration": 5, "velocity": 107}, {"time": 2598, "pitch": 66, "duration": 5, "velocity": 96}, {"time": 2601, "pitch": 58, "duration": 2, "velocity": 90}, {"time": 2604, "pitch": 37, "duration": 8, "velocity": 85}, {"time": 2607, "pitch": 49, "duration": 8, "velocity": 72}, {"time": 2610, "pitch": 64, "duration": 5, "velocity": 83}, {"time": 2610, "pitch": 68, "duration": 5, "velocity": 96}, {"time": 2613, "pitch": 61, "duration": 3, "velocity": 86}, {"time": 2616, "pitch": 39, "duration": 7, "velocity": 92}, {"time": 2619, "pitch": 51, "duration": 7, "velocity": 85}, {"time": 2622, "pitch": 66, "duration": 4, "velocity": 102}, {"time": 2622, "pitch": 70, "duration": 4, "velocity": 95}, {"time": 2625, "pitch": 63, "duration": 2, "velocity": 73}, {"time": 2628, "pitch": 46, "duration": 14, "velocity": 81}, {"time": 2628, "pitch": 61, "duration": 7, "velocity": 89}, {"time": 2628, "pitch": 66, "duration": 7, "velocity": 66}, {"time": 2628, "pitch": 70, "duration": 5, "velocity": 68}, {"time": 2637, "pitch": 61, "duration": 7, "velocity": 85}, {"time": 2637, "pitch": 66, "duration": 7, "velocity": 93}, {"time": 2637, "pitch": 70, "duration": 7, "velocity": 86}, {"time": 2643, "pitch": 46, "duration": 3, "velocity": 55}, {"time": 2646, "pitch": 61, "duration": 1, "velocity": 37}, {"time": 2646, "pitch": 66, "duration": 4, "velocity": 96}, {"time": 2646, "pitch": 70, "duration": 4, "velocity": 93}, {"time": 2649, "pitch": 61, "duration": 2, "velocity": 33}, {"time": 2652, "pitch": 47, "duration": 9, "velocity": 76}, {"time": 2655, "pitch": 59, "duration": 7, "velocity": 81}, {"time": 2658, "pitch": 66, "duration": 5, "velocity": 117}, {"time": 2661, "pitch": 63, "duration": 3, "velocity": 69}, {"time": 2664, "pitch": 46, "duration": 11, "velocity": 92}, {"time": 2667, "pitch": 58, "duration": 7, "velocity": 70}, {"time": 2670, "pitch": 66, "duration": 4, "velocity": 93}, {"time": 2673, "pitch": 63, "duration": 3, "velocity": 66}, {"time": 2676, "pitch": 44, "duration": 18, "velocity": 88}, {"time": 2679, "pitch": 56, "duration": 8, "velocity": 70}, {"time": 2682, "pitch": 59, "duration": 9, "velocity": 65}, {"time": 2685, "pitch": 63, "duration": 12, "velocity": 90}, {"time": 2685, "pitch": 68, "duration": 13, "velocity": 95}, {"time": 2691, "pitch": 56, "duration": 2, "velocity": 61}, {"time": 2694, "pitch": 59, "duration": 4, "velocity": 79}, {"time": 2700, "pitch": 49, "duration": 12, "velocity": 90}, {"time": 2703, "pitch": 61, "duration": 4, "velocity": 77}, {"time": 2706, "pitch": 64, "duration": 1, "velocity": 58}, {"time": 2706, "pitch": 68, "duration": 4, "velocity": 93}, {"time": 2709, "pitch": 61, "duration": 2, "velocity": 82}, {"time": 2712, "pitch": 51, "duration": 6, "velocity": 81}, {"time": 2715, "pitch": 58, "duration": 4, "velocity": 63}, {"time": 2718, "pitch": 63, "duration": 5, "velocity": 81}, {"time": 2718, "pitch": 66, "duration": 5, "velocity": 97}, {"time": 2724, "pitch": 46, "duration": 14, "velocity": 83}, {"time": 2724, "pitch": 58, "duration": 7, "velocity": 89}, {"time": 2724, "pitch": 61, "duration": 7, "velocity": 77}, {"time": 2724, "pitch": 66, "duration": 6, "velocity": 52}, {"time": 2733, "pitch": 58, "duration": 7, "velocity": 90}, {"time": 2733, "pitch": 61, "duration": 7, "velocity": 88}, {"time": 2733, "pitch": 66, "duration": 7, "velocity": 79}, {"time": 2739, "pitch": 46, "duration": 2, "velocity": 44}, {"time": 2742, "pitch": 61, "duration": 5, "velocity": 99}, {"time": 2742, "pitch": 66, "duration": 5, "velocity": 89}, {"time": 2748, "pitch": 47, "duration": 8, "velocity": 74}, {"time": 2751, "pitch": 54, "duration": 5, "velocity": 76}, {"time": 2754, "pitch": 59, "duration": 5, "velocity": 65}, {"time": 2757, "pitch": 63, "duration": 3, "velocity": 72}, {"time": 2757, "pitch": 66, "duration": 2, "velocity": 90}, {"time": 2760, "pitch": 46, "duration": 7, "velocity": 77}, {"time": 2763, "pitch": 58, "duration": 4, "velocity": 73}, {"time": 2766, "pitch": 66, "duration": 5, "velocity": 96}, {"time": 2772, "pitch": 44, "duration": 18, "velocity": 89}, {"time": 2775, "pitch": 56, "duration": 8, "velocity": 74}, {"time": 2778, "pitch": 59, "duration": 8, "velocity": 45}, {"time": 2781, "pitch": 63, "duration": 14, "velocity": 100}, {"time": 2787, "pitch": 56, "duration": 2, "velocity": 88}, {"time": 2790, "pitch": 59, "duration": 6, "velocity": 82}, {"time": 2796, "pitch": 37, "duration": 8, "velocity": 85}, {"time": 2799, "pitch": 49, "duration": 8, "velocity": 72}, {"time": 2802, "pitch": 64, "duration": 5, "velocity": 83}, {"time": 2802, "pitch": 68, "duration": 5, "velocity": 96}, {"time": 2805, "pitch": 61, "duration": 3, "velocity": 86}, {"time": 2808, "pitch": 39, "duration": 7, "velocity": 92}, {"time": 2811, "pitch": 51, "duration": 7, "velocity": 85}, {"time": 2814, "pitch": 66, "duration": 4, "velocity": 102}, {"time": 2814, "pitch": 70, "duration": 4, "velocity": 95}, {"time": 2817, "pitch": 63, "duration": 2, "velocity": 73}, {"time": 2820, "pitch": 46, "duration": 14, "velocity": 81}, {"time": 2820, "pitch": 61, "duration": 7, "velocity": 89}, {"time": 2820, "pitch": 66, "duration": 7, "velocity": 66}, {"time": 2820, "pitch": 70, "duration": 5, "velocity": 68}, {"time": 2829, "pitch": 61, "duration": 7, "velocity": 85}, {"time": 2829, "pitch": 66, "duration": 7, "velocity": 93}, {"time": 2829, "pitch": 70, "duration": 7, "velocity": 86}, {"time": 2835, "pitch": 46, "duration": 3, "velocity": 55}, {"time": 2838, "pitch": 61, "duration": 1, "velocity": 37}, {"time": 2838, "pitch": 66, "duration": 4, "velocity": 96}, {"time": 2838, "pitch": 70, "duration": 4, "velocity": 93}, {"time": 2841, "pitch": 61, "duration": 2, "velocity": 33}, {"time": 2844, "pitch": 47, "duration": 9, "velocity": 76}, {"time": 2847, "pitch": 59, "duration": 7, "velocity": 81}, {"time": 2850, "pitch": 66, "duration": 5, "velocity": 117}, {"time": 2853, "pitch": 63, "duration": 3, "velocity": 69}, {"time": 2856, "pitch": 46, "duration": 11, "velocity": 92}, {"time": 2859, "pitch": 58, "duration": 7, "velocity": 70}, {"time": 2862, "pitch": 66, "duration": 4, "velocity": 93}, {"time": 2865, "pitch": 63, "duration": 3, "velocity": 66}, {"time": 2868, "pitch": 44, "duration": 18, "velocity": 88}, {"time": 2871, "pitch": 56, "duration": 8, "velocity": 70}, {"time": 2874, "pitch": 59, "duration": 9, "velocity": 65}, {"time": 2877, "pitch": 63, "duration": 12, "velocity": 90}, {"time": 2877, "pitch": 68, "duration": 13, "velocity": 95}, {"time": 2883, "pitch": 56, "duration": 2, "velocity": 61}, {"time": 2886, "pitch": 59, "duration": 4, "velocity": 79}, {"time": 2892, "pitch": 49, "duration": 12, "velocity": 90}, {"time": 2895, "pitch": 61, "duration": 4, "velocity": 77}, {"time": 2898, "pitch": 64, "duration": 1, "velocity": 58}, {"time": 2898, "pitch": 68, "duration": 4, "velocity": 93}, {"time": 2901, "pitch": 61, "duration": 2, "velocity": 82}, {"time": 2904, "pitch": 51, "duration": 6, "velocity": 81}, {"time": 2907, "pitch": 58, "duration": 4, "velocity": 63}, {"time": 2910, "pitch": 63, "duration": 5, "velocity": 81}, {"time": 2910, "pitch": 66, "duration": 5, "velocity": 97}, {"time": 2916, "pitch": 46, "duration": 14, "velocity": 83}, {"time": 2916, "pitch": 58, "duration": 7, "velocity": 89}, {"time": 2916, "pitch": 61, "duration": 7, "velocity": 77}, {"time": 2916, "pitch": 66, "duration": 6, "velocity": 52}, {"time": 2925, "pitch": 58, "duration": 7, "velocity": 90}, {"time": 2925, "pitch": 61, "duration": 7, "velocity": 88}, {"time": 2925, "pitch": 66, "duration": 7, "velocity": 79}, {"time": 2931, "pitch": 46, "duration": 2, "velocity": 44}, {"time": 2934, "pitch": 61, "duration": 5, "velocity": 99}, {"time": 2934, "pitch": 66, "duration": 5, "velocity": 89}, {"time": 2940, "pitch": 47, "duration": 8, "velocity": 74}, {"time": 2943, "pitch": 54, "duration": 5, "velocity": 76}, {"time": 2946, "pitch": 59, "duration": 5, "velocity": 65}, {"time": 2949, "pitch": 63, "duration": 3, "velocity": 72}, {"time": 2949, "pitch": 66, "duration": 2, "velocity": 90}, {"time": 2952, "pitch": 46, "duration": 7, "velocity": 77}, {"time": 2955, "pitch": 58, "duration": 4, "velocity": 73}, {"time": 2958, "pitch": 66, "duration": 5, "velocity": 96}, {"time": 2964, "pitch": 44, "duration": 18, "velocity": 89}, {"time": 2967, "pitch": 56, "duration": 8, "velocity": 74}, {"time": 2970, "pitch": 59, "duration": 8, "velocity": 45}, {"time": 2973, "pitch": 63, "duration": 14, "velocity": 100}, {"time": 2979, "pitch": 56, "duration": 2, "velocity": 88}, {"time": 2982, "pitch": 59, "duration": 6, "velocity": 82}, {"time": 2988, "pitch": 37, "duration": 8, "velocity": 85}, {"time": 2991, "pitch": 49, "duration": 8, "velocity": 72}, {"time": 2994, "pitch": 64, "duration": 5, "velocity": 83}, {"time": 2994, "pitch": 68, "duration": 5, "velocity": 96}, {"time": 2997, "pitch": 61, "duration": 3, "velocity": 86}, {"time": 3000, "pitch": 39, "duration": 7, "velocity": 92}, {"time": 3003, "pitch": 51, "duration": 7, "velocity": 85}, {"time": 3006, "pitch": 66, "duration": 4, "velocity": 102}, {"time": 3006, "pitch": 70, "duration": 4, "velocity": 95}, {"time": 3009, "pitch": 63, "duration": 2, "velocity": 73}, {"time": 3012, "pitch": 46, "duration": 14, "velocity": 81}, {"time": 3012, "pitch": 61, "duration": 7, "velocity": 89}, {"time": 3012, "pitch": 66, "duration": 7, "velocity": 66}, {"time": 3012, "pitch": 70, "duration": 5, "velocity": 68}, {"time": 3021, "pitch": 61, "duration": 7, "velocity": 85}, {"time": 3021, "pitch": 66, "duration": 7, "velocity": 93}, {"time": 3021, "pitch": 70, "duration": 7, "velocity": 86}, {"time": 3027, "pitch": 46, "duration": 3, "velocity": 55}, {"time": 3030, "pitch": 61, "duration": 1, "velocity": 37}, {"time": 3030, "pitch": 66, "duration": 4, "velocity": 96}, {"time": 3030, "pitch": 70, "duration": 4, "velocity": 93}, {"time": 3033, "pitch": 61, "duration": 2, "velocity": 33}, {"time": 3036, "pitch": 47, "duration": 9, "velocity": 76}, {"time": 3039, "pitch": 59, "duration": 7, "velocity": 81}, {"time": 3042, "pitch": 66, "duration": 5, "velocity": 117}, {"time": 3045, "pitch": 63, "duration": 3, "velocity": 69}, {"time": 3048, "pitch": 46, "duration": 11, "velocity": 92}, {"time": 3051, "pitch": 58, "duration": 7, "velocity": 70}, {"time": 3054, "pitch": 66, "duration": 4, "velocity": 93}, {"time": 3057, "pitch": 63, "duration": 3, "velocity": 66}, {"time": 3060, "pitch": 44, "duration": 18, "velocity": 88}, {"time": 3063, "pitch": 56, "duration": 8, "velocity": 70}, {"time": 3066, "pitch": 59, "duration": 9, "velocity": 65}, {"time": 3069, "pitch": 63, "duration": 12, "velocity": 90}, {"time": 3069, "pitch": 68, "duration": 13, "velocity": 95}, {"time": 3075, "pitch": 56, "duration": 2, "velocity": 61}, {"time": 3078, "pitch": 59, "duration": 4, "velocity": 79}, {"time": 3084, "pitch": 49, "duration": 12, "velocity": 90}, {"time": 3087, "pitch": 61, "duration": 4, "velocity": 77}, {"time": 3090, "pitch": 64, "duration": 1, "velocity": 58}, {"time": 3090, "pitch": 68, "duration": 4, "velocity": 93}, {"time": 3093, "pitch": 61, "duration": 2, "velocity": 82}, {"time": 3096, "pitch": 51, "duration": 6, "velocity": 81}, {"time": 3099, "pitch": 58, "duration": 4, "velocity": 63}, {"time": 3102, "pitch": 63, "duration": 5, "velocity": 81}, {"time": 3102, "pitch": 66, "duration": 5, "velocity": 97}, {"time": 3108, "pitch": 46, "duration": 14, "velocity": 83}, {"time": 3108, "pitch": 58, "duration": 7, "velocity": 89}, {"time": 3108, "pitch": 61, "duration": 7, "velocity": 77}, {"time": 3108, "pitch": 66, "duration": 6, "velocity": 52}, {"time": 3117, "pitch": 58, "duration": 7, "velocity": 90}, {"time": 3117, "pitch": 61, "duration": 7, "velocity": 88}, {"time": 3117, "pitch": 66, "duration": 7, "velocity": 79}, {"time": 3123, "pitch": 46, "duration": 2, "velocity": 44}, {"time": 3126, "pitch": 61, "duration": 5, "velocity": 99}, {"time": 3126, "pitch": 66, "duration": 5, "velocity": 89}, {"time": 3132, "pitch": 47, "duration": 8, "velocity": 74}, {"time": 3135, "pitch": 54, "duration": 5, "velocity": 76}, {"time": 3138, "pitch": 59, "duration": 5, "velocity": 65}, {"time": 3141, "pitch": 63, "duration": 3, "velocity": 72}, {"time": 3141, "pitch": 66, "duration": 2, "velocity": 90}, {"time": 3144, "pitch": 46, "duration": 7, "velocity": 77}, {"time": 3147, "pitch": 58, "duration": 4, "velocity": 73}, {"time": 3150, "pitch": 66, "duration": 5, "velocity": 96}], "annotations": [{"time": 0, "annotation": {"number": 7, "value": 101}, "group": "control_change"}, {"time": 35, "annotation": {"number": 64, "value": 127}, "group": "control_change"}, {"time": 58, "annotation": {"number": 64, "value": 0}, "group": "control_change"}, {"time": 60, "annotation": {"number": 64, "value": 127}, "group": "control_change"}, {"time": 82, "annotation": {"number": 64, "value": 0}, "group": "control_change"}, {"time": 84, "annotation": {"number": 64, "value": 127}, "group": "control_change"}, {"time": 106, "annotation": {"number": 64, "value": 0}, "group": "control_change"}, {"time": 108, "annotation": {"number": 64, "value": 127}, "group": "control_change"}, {"time": 129, "annotation": {"number": 64, "value": 0}, "group": "control_change"}, {"time": 132, "annotation": {"number": 64, "value": 127}, "group": "control_change"}, {"time": 142, "annotation": {"number": 64, "value": 0}, "group": "control_change"}, {"time": 144, "annotation": {"number": 64, "value": 127}, "group": "control_change"}, {"time": 153, "annotation": {"number": 64, "value": 0}, "group": "control_change"}, {"time": 156, "annotation": {"number": 64, "value": 127}, "group": "control_change"}, {"time": 178, "annotation": {"number": 64, "value": 0}, "group": "control_change"}, {"time": 180, "annotation": {"number": 64, "value": 127}, "group": "control_change"}, {"time": 203, "annotation": {"number": 64, "value": 0}, "group": "control_change"}, {"time": 204, "annotation": {"number": 64, "value": 127}, "group": "control_change"}, {"time": 226, "annotation": {"number": 64, "value": 0}, "group": "control_change"}, {"time": 228, "annotation": {"number": 64, "value": 127}, "group": "control_change"}, {"time": 238, "annotation": {"number": 64, "value": 0}, "group": "control_change"}, {"time": 240, "annotation": {"number": 64, "value": 127}, "group": "control_change"}, {"time": 249, "annotation": {"number": 64, "value": 0}, "group": "control_change"}, {"time": 252, "annotation": {"number": 64, "value": 127}, "group": "control_change"}, {"time": 274, "annotation": {"number": 64, "value": 0}, "group": "control_change"}, {"time": 276, "annotation": {"number": 64, "value": 127}, "group": "control_change"}, {"time": 297, "annotation": {"number": 64, "value": 0}, "group": "control_change"}, {"time": 299, "annotation": {"number": 64, "value": 127}, "group": "control_change"}, {"time": 321, "annotation": {"number": 64, "value": 0}, "group": "control_change"}, {"time": 324, "annotation": {"number": 64, "value": 127}, "group": "control_change"}, {"time": 334, "annotation": {"number": 64, "value": 0}, "group": "control_change"}, {"time": 336, "annotation": {"number": 64, "value": 127}, "group": "control_change"}, {"time": 345, "annotation": {"number": 64, "value": 0}, "group": "control_change"}, {"time": 348, "annotation": {"number": 64, "value": 127}, "group": "control_change"}, {"time": 369, "annotation": {"number": 64, "value": 0}, "group": "control_change"}, {"time": 372, "annotation": {"number": 64, "value": 127}, "group": "control_change"}, {"time": 393, "annotation": {"number": 64, "value": 0}, "group": "control_change"}, {"time": 396, "annotation": {"number": 64, "value": 127}, "group": "control_change"}, {"time": 418, "annotation": {"number": 64, "value": 0}, "group": "control_change"}, {"time": 431, "annotation": {"number": 64, "value": 127}, "group": "control_change"}, {"time": 442, "annotation": {"number": 64, "value": 0}, "group": "control_change"}, {"time": 444, "annotation": {"number": 64, "value": 127}, "group": "control_change"}, {"time": 456, "annotation": {"number": 64, "value": 0}, "group": "control_change"}, {"time": 468, "annotation": {"number": 64, "value": 127}, "group": "control_change"}, {"time": 489, "annotation": {"number": 64, "value": 0}, "group": "control_change"}, {"time": 492, "annotation": {"number": 64, "value": 127}, "group": "control_change"}, {"time": 514, "annotation": {"number": 64, "value": 0}, "group": "control_change"}, {"time": 516, "annotation": {"number": 64, "value": 127}, "group": "control_change"}, {"time": 537, "annotation": {"number": 64, "value": 0}, "group": "control_change"}, {"time": 540, "annotation": {"number": 64, "value": 127}, "group": "control_change"}, {"time": 550, "annotation": {"number": 64, "value": 0}, "group": "control_change"}, {"time": 553, "annotation": {"number": 64, "value": 127}, "group": "control_change"}, {"time": 562, "annotation": {"number": 64, "value": 0}, "group": "control_change"}, {"time": 564, "annotation": {"number": 64, "value": 127}, "group": "control_change"}, {"time": 585, "annotation": {"number": 64, "value": 0}, "group": "control_change"}, {"time": 588, "annotation": {"number": 64, "value": 127}, "group": "control_change"}, {"time": 609, "annotation": {"number": 64, "value": 0}, "group": "control_change"}, {"time": 612, "annotation": {"number": 64, "value": 127}, "group": "control_change"}, {"time": 634, "annotation": {"number": 64, "value": 0}, "group": "control_change"}, {"time": 635, "annotation": {"number": 64, "value": 127}, "group": "control_change"}, {"time": 646, "annotation": {"number": 64, "value": 0}, "group": "control_change"}, {"time": 650, "annotation": {"number": 64, "value": 127}, "group": "control_change"}, {"time": 658, "annotation": {"number": 64, "value": 0}, "group": "control_change"}, {"time": 660, "annotation": {"number": 64, "value": 127}, "group": "control_change"}, {"time": 681, "annotation": {"number": 64, "value": 0}, "group": "control_change"}, {"time": 683, "annotation": {"number": 64, "value": 127}, "group": "control_change"}, {"time": 706, "annotation": {"number": 64, "value": 0}, "group": "control_change"}, {"time": 708, "annotation": {"number": 64, "value": 127}, "group": "control_change"}, {"time": 729, "annotation": {"number": 64, "value": 0}, "group": "control_change"}, {"time": 731, "annotation": {"number": 64, "value": 127}, "group": "control_change"}, {"time": 753, "annotation": {"number": 64, "value": 0}, "group": "control_change"}, {"time": 756, "annotation": {"number": 64, "value": 127}, "group": "control_change"}, {"time": 777, "annotation": {"number": 64, "value": 0}, "group": "control_change"}, {"time": 780, "annotation": {"number": 64, "value": 127}, "group": "control_change"}, {"time": 801, "annotation": {"number": 64, "value": 0}, "group": "control_change"}, {"time": 803, "annotation": {"number": 64, "value": 127}, "group": "control_change"}, {"time": 825, "annotation": {"number": 64, "value": 0}, "group": "control_change"}, {"time": 828, "annotation": {"number": 64, "value": 127}, "group": "control_change"}, {"time": 850, "annotation": {"number": 64, "value": 0}, "group": "control_change"}, {"time": 852, "annotation": {"number": 64, "value": 127}, "group": "control_change"}, {"time": 867, "annotation": {"number": 64, "value": 0}, "group": "control_change"}, {"time": 876, "annotation": {"number": 64, "value": 127}, "group": "control_change"}, {"time": 887, "annotation": {"number": 64, "value": 0}, "group": "control_change"}, {"time": 891, "annotation": {"number": 64, "value": 127}, "group": "control_change"}, {"time": 897, "annotation": {"number": 64, "value": 0}, "group": "control_change"}, {"time": 900, "annotation": {"number": 64, "value": 127}, "group": "control_change"}, {"time": 912, "annotation": {"number": 64, "value": 127}, "group": "control_change"}, {"time": 913, "annotation": {"number": 64, "value": 0}, "group": "control_change"}, {"time": 920, "annotation": {"number": 64, "value": 0}, "group": "control_change"}, {"time": 924, "annotation": {"number": 64, "value": 127}, "group": "control_change"}, {"time": 935, "annotation": {"number": 64, "value": 0}, "group": "control_change"}, {"time": 938, "annotation": {"number": 64, "value": 127}, "group": "control_change"}, {"time": 946, "annotation": {"number": 64, "value": 0}, "group": "control_change"}, {"time": 948, "annotation": {"number": 64, "value": 127}, "group": "control_change"}, {"time": 959, "annotation": {"number": 64, "value": 0}, "group": "control_change"}, {"time": 961, "annotation": {"number": 64, "value": 127}, "group": "control_change"}, {"time": 970, "annotation": {"number": 64, "value": 0}, "group": "control_change"}, {"time": 971, "annotation": {"number": 64, "value": 127}, "group": "control_change"}, {"time": 993, "annotation": {"number": 64, "value": 0}, "group": "control_change"}, {"time": 996, "annotation": {"number": 64, "value": 127}, "group": "control_change"}, {"time": 1016, "annotation": {"number": 64, "value": 0}, "group": "control_change"}, {"time": 1019, "annotation": {"number": 64, "value": 127}, "group": "control_change"}, {"time": 1030, "annotation": {"number": 64, "value": 0}, "group": "control_change"}, {"time": 1032, "annotation": {"number": 64, "value": 127}, "group": "control_change"}, {"time": 1042, "annotation": {"number": 64, "value": 0}, "group": "control_change"}, {"time": 1043, "annotation": {"number": 64, "value": 127}, "group": "control_change"}, {"time": 1066, "annotation": {"number": 64, "value": 0}, "group": "control_change"}, {"time": 1068, "annotation": {"number": 64, "value": 127}, "group": "control_change"}, {"time": 1089, "annotation": {"number": 64, "value": 0}, "group": "control_change"}, {"time": 1092, "annotation": {"number": 64, "value": 127}, "group": "control_change"}, {"time": 1114, "annotation": {"number": 64, "value": 0}, "group": "control_change"}, {"time": 1116, "annotation": {"number": 64, "value": 127}, "group": "control_change"}, {"time": 1126, "annotation": {"number": 64, "value": 0}, "group": "control_change"}, {"time": 1128, "annotation": {"number": 64, "value": 127}, "group": "control_change"}, {"time": 1137, "annotation": {"number": 64, "value": 0}, "group": "control_change"}, {"time": 1139, "annotation": {"number": 64, "value": 127}, "group": "control_change"}, {"time": 1140, "annotation": {"number": 64, "value": 127}, "group": "control_change"}, {"time": 1162, "annotation": {"number": 64, "value": 0}, "group": "control_change"}, {"time": 1164, "annotation": {"number": 64, "value": 127}, "group": "control_change"}, {"time": 1185, "annotation": {"number": 64, "value": 0}, "group": "control_change"}, {"time": 1187, "annotation": {"number": 64, "value": 127}, "group": "control_change"}, {"time": 1210, "annotation": {"number": 64, "value": 0}, "group": "control_change"}, {"time": 1212, "annotation": {"number": 64, "value": 127}, "group": "control_change"}, {"time": 1234, "annotation": {"number": 64, "value": 0}, "group": "control_change"}, {"time": 1235, "annotation": {"number": 64, "value": 127}, "group": "control_change"}, {"time": 1258, "annotation": {"number": 64, "value": 0}, "group": "control_change"}, {"time": 1259, "annotation": {"number": 64, "value": 127}, "group": "control_change"}, {"time": 1260, "annotation": {"number": 64, "value": 127}, "group": "control_change"}, {"time": 1282, "annotation": {"number": 64, "value": 0}, "group": "control_change"}, {"time": 1283, "annotation": {"number": 64, "value": 127}, "group": "control_change"}, {"time": 1306, "annotation": {"number": 64, "value": 0}, "group": "control_change"}, {"time": 1308, "annotation": {"number": 64, "value": 127}, "group": "control_change"}, {"time": 1318, "annotation": {"number": 64, "value": 0}, "group": "control_change"}, {"time": 1320, "annotation": {"number": 64, "value": 127}, "group": "control_change"}, {"time": 1330, "annotation": {"number": 64, "value": 0}, "group": "control_change"}, {"time": 1332, "annotation": {"number": 64, "value": 127}, "group": "control_change"}, {"time": 1354, "annotation": {"number": 64, "value": 0}, "group": "control_change"}, {"time": 1356, "annotation": {"number": 64, "value": 127}, "group": "control_change"}, {"time": 1378, "annotation": {"number": 64, "value": 0}, "group": "control_change"}, {"time": 1380, "annotation": {"number": 64, "value": 127}, "group": "control_change"}, {"time": 1402, "annotation": {"number": 64, "value": 0}, "group": "control_change"}, {"time": 1404, "annotation": {"number": 64, "value": 127}, "group": "control_change"}, {"time": 1425, "annotation": {"number": 64, "value": 0}, "group": "control_change"}, {"time": 1452, "annotation": {"number": 64, "value": 127}, "group": "control_change"}, {"time": 1464, "annotation": {"number": 64, "value": 0}, "group": "control_change"}, {"time": 1476, "annotation": {"number": 64, "value": 127}, "group": "control_change"}, {"time": 1497, "annotation": {"number": 64, "value": 0}, "group": "control_change"}, {"time": 1500, "annotation": {"number": 64, "value": 127}, "group": "control_change"}, {"time": 1522, "annotation": {"number": 64, "value": 0}, "group": "control_change"}, {"time": 1524, "annotation": {"number": 64, "value": 127}, "group": "control_change"}, {"time": 1545, "annotation": {"number": 64, "value": 0}, "group": "control_change"}, {"time": 1548, "annotation": {"number": 64, "value": 127}, "group": "control_change"}, {"time": 1558, "annotation": {"number": 64, "value": 0}, "group": "control_change"}, {"time": 1561, "annotation": {"number": 64, "value": 127}, "group": "control_change"}, {"time": 1570, "annotation": {"number": 64, "value": 0}, "group": "control_change"}, {"time": 1572, "annotation": {"number": 64, "value": 127}, "group": "control_change"}, {"time": 1593, "annotation": {"number": 64, "value": 0}, "group": "control_change"}, {"time": 1596, "annotation": {"number": 64, "value": 127}, "group": "control_change"}, {"time": 1617, "annotation": {"number": 64, "value": 0}, "group": "control_change"}, {"time": 1620, "annotation": {"number": 64, "value": 127}, "group": "control_change"}, {"time": 1642, "annotation": {"number": 64, "value": 0}, "group": "control_change"}, {"time": 1643, "annotation": {"number": 64, "value": 127}, "group": "control_change"}, {"time": 1654, "annotation": {"number": 64, "value": 0}, "group": "control_change"}, {"time": 1658, "annotation": {"number": 64, "value": 127}, "group": "control_change"}, {"time": 1666, "annotation": {"number": 64, "value": 0}, "group": "control_change"}, {"time": 1668, "annotation": {"number": 64, "value": 127}, "group": "control_change"}, {"time": 1689, "annotation": {"number": 64, "value": 0}, "group": "control_change"}, {"time": 1691, "annotation": {"number": 64, "value": 127}, "group": "control_change"}, {"time": 1714, "annotation": {"number": 64, "value": 0}, "group": "control_change"}, {"time": 1716, "annotation": {"number": 64, "value": 127}, "group": "control_change"}, {"time": 1737, "annotation": {"number": 64, "value": 0}, "group": "control_change"}, {"time": 1739, "annotation": {"number": 64, "value": 127}, "group": "control_change"}, {"time": 1761, "annotation": {"number": 64, "value": 0}, "group": "control_change"}, {"time": 1764, "annotation": {"number": 64, "value": 127}, "group": "control_change"}, {"time": 1785, "annotation": {"number": 64, "value": 0}, "group": "control_change"}, {"time": 1788, "annotation": {"number": 64, "value": 127}, "group": "control_change"}, {"time": 1809, "annotation": {"number": 64, "value": 0}, "group": "control_change"}, {"time": 1811, "annotation": {"number": 64, "value": 127}, "group": "control_change"}, {"time": 1833, "annotation": {"number": 64, "value": 0}, "group": "control_change"}, {"time": 1836, "annotation": {"number": 64, "value": 127}, "group": "control_change"}, {"time": 1858, "annotation": {"number": 64, "value": 0}, "group": "control_change"}, {"time": 1860, "annotation": {"number": 64, "value": 127}, "group": "control_change"}, {"time": 1875, "annotation": {"number": 64, "value": 0}, "group": "control_change"}, {"time": 1884, "annotation": {"number": 64, "value": 127}, "group": "control_change"}, {"time": 1895, "annotation": {"number": 64, "value": 0}, "group": "control_change"}, {"time": 1899, "annotation": {"number": 64, "value": 127}, "group": "control_change"}, {"time": 1905, "annotation": {"number": 64, "value": 0}, "group": "control_change"}, {"time": 1908, "annotation": {"number": 64, "value": 127}, "group": "control_change"}, {"time": 1920, "annotation": {"number": 64, "value": 127}, "group": "control_change"}, {"time": 1921, "annotation": {"number": 64, "value": 0}, "group": "control_change"}, {"time": 1928, "annotation": {"number": 64, "value": 0}, "group": "control_change"}, {"time": 1932, "annotation": {"number": 64, "value": 127}, "group": "control_change"}, {"time": 1943, "annotation": {"number": 64, "value": 0}, "group": "control_change"}, {"time": 1946, "annotation": {"number": 64, "value": 127}, "group": "control_change"}, {"time": 1954, "annotation": {"number": 64, "value": 0}, "group": "control_change"}, {"time": 1956, "annotation": {"number": 64, "value": 127}, "group": "control_change"}, {"time": 1967, "annotation": {"number": 64, "value": 0}, "group": "control_change"}, {"time": 1969, "annotation": {"number": 64, "value": 127}, "group": "control_change"}, {"time": 1978, "annotation": {"number": 64, "value": 0}, "group": "control_change"}, {"time": 1979, "annotation": {"number": 64, "value": 127}, "group": "control_change"}, {"time": 2001, "annotation": {"number": 64, "value": 0}, "group": "control_change"}, {"time": 2004, "annotation": {"number": 64, "value": 127}, "group": "control_change"}, {"time": 2024, "annotation": {"number": 64, "value": 0}, "group": "control_change"}, {"time": 2027, "annotation": {"number": 64, "value": 127}, "group": "control_change"}, {"time": 2038, "annotation": {"number": 64, "value": 0}, "group": "control_change"}, {"time": 2040, "annotation": {"number": 64, "value": 127}, "group": "control_change"}, {"time": 2050, "annotation": {"number": 64, "value": 0}, "group": "control_change"}, {"time": 2051, "annotation": {"number": 64, "value": 127}, "group": "control_change"}, {"time": 2074, "annotation": {"number": 64, "value": 0}, "group": "control_change"}, {"time": 2076, "annotation": {"number": 64, "value": 127}, "group": "control_change"}, {"time": 2097, "annotation": {"number": 64, "value": 0}, "group": "control_change"}, {"time": 2100, "annotation": {"number": 64, "value": 127}, "group": "control_change"}, {"time": 2122, "annotation": {"number": 64, "value": 0}, "group": "control_change"}, {"time": 2124, "annotation": {"number": 64, "value": 127}, "group": "control_change"}, {"time": 2134, "annotation": {"number": 64, "value": 0}, "group": "control_change"}, {"time": 2136, "annotation": {"number": 64, "value": 127}, "group": "control_change"}, {"time": 2145, "annotation": {"number": 64, "value": 0}, "group": "control_change"}, {"time": 2147, "annotation": {"number": 64, "value": 127}, "group": "control_change"}, {"time": 2148, "annotation": {"number": 64, "value": 127}, "group": "control_change"}, {"time": 2170, "annotation": {"number": 64, "value": 0}, "group": "control_change"}, {"time": 2172, "annotation": {"number": 64, "value": 127}, "group": "control_change"}, {"time": 2193, "annotation": {"number": 64, "value": 0}, "group": "control_change"}, {"time": 2195, "annotation": {"number": 64, "value": 127}, "group": "control_change"}, {"time": 2218, "annotation": {"number": 64, "value": 0}, "group": "control_change"}, {"time": 2230, "annotation": {"number": 64, "value": 0}, "group": "control_change"}, {"time": 2232, "annotation": {"number": 64, "value": 127}, "group": "control_change"}, {"time": 2242, "annotation": {"number": 64, "value": 0}, "group": "control_change"}, {"time": 2243, "annotation": {"number": 64, "value": 127}, "group": "control_change"}, {"time": 2266, "annotation": {"number": 64, "value": 0}, "group": "control_change"}, {"time": 2268, "annotation": {"number": 64, "value": 127}, "group": "control_change"}, {"time": 2289, "annotation": {"number": 64, "value": 0}, "group": "control_change"}, {"time": 2292, "annotation": {"number": 64, "value": 127}, "group": "control_change"}, {"time": 2314, "annotation": {"number": 64, "value": 0}, "group": "control_change"}, {"time": 2316, "annotation": {"number": 64, "value": 127}, "group": "control_change"}, {"time": 2326, "annotation": {"number": 64, "value": 0}, "group": "control_change"}, {"time": 2328, "annotation": {"number": 64, "value": 127}, "group": "control_change"}, {"time": 2337, "annotation": {"number": 64, "value": 0}, "group": "control_change"}, {"time": 2339, "annotation": {"number": 64, "value": 127}, "group": "control_change"}, {"time": 2340, "annotation": {"number": 64, "value": 127}, "group": "control_change"}, {"time": 2362, "annotation": {"number": 64, "value": 0}, "group": "control_change"}, {"time": 2364, "annotation": {"number": 64, "value": 127}, "group": "control_change"}, {"time": 2385, "annotation": {"number": 64, "value": 0}, "group": "control_change"}, {"time": 2387, "annotation": {"number": 64, "value": 127}, "group": "control_change"}, {"time": 2410, "annotation": {"number": 64, "value": 0}, "group": "control_change"}, {"time": 2412, "annotation": {"number": 64, "value": 127}, "group": "control_change"}, {"time": 2434, "annotation": {"number": 64, "value": 0}, "group": "control_change"}, {"time": 2436, "annotation": {"number": 64, "value": 127}, "group": "control_change"}, {"time": 2451, "annotation": {"number": 64, "value": 0}, "group": "control_change"}, {"time": 2460, "annotation": {"number": 64, "value": 127}, "group": "control_change"}, {"time": 2471, "annotation": {"number": 64, "value": 0}, "group": "control_change"}, {"time": 2475, "annotation": {"number": 64, "value": 127}, "group": "control_change"}, {"time": 2481, "annotation": {"number": 64, "value": 0}, "group": "control_change"}, {"time": 2484, "annotation": {"number": 64, "value": 127}, "group": "control_change"}, {"time": 2496, "annotation": {"number": 64, "value": 127}, "group": "control_change"}, {"time": 2497, "annotation": {"number": 64, "value": 0}, "group": "control_change"}, {"time": 2504, "annotation": {"number": 64, "value": 0}, "group": "control_change"}, {"time": 2508, "annotation": {"number": 64, "value": 127}, "group": "control_change"}, {"time": 2519, "annotation": {"number": 64, "value": 0}, "group": "control_change"}, {"time": 2522, "annotation": {"number": 64, "value": 127}, "group": "control_change"}, {"time": 2530, "annotation": {"number": 64, "value": 0}, "group": "control_change"}, {"time": 2532, "annotation": {"number": 64, "value": 127}, "group": "control_change"}, {"time": 2543, "annotation": {"number": 64, "value": 0}, "group": "control_change"}, {"time": 2545, "annotation": {"number": 64, "value": 127}, "group": "control_change"}, {"time": 2554, "annotation": {"number": 64, "value": 0}, "group": "control_change"}, {"time": 2555, "annotation": {"number": 64, "value": 127}, "group": "control_change"}, {"time": 2577, "annotation": {"number": 64, "value": 0}, "group": "control_change"}, {"time": 2580, "annotation": {"number": 64, "value": 127}, "group": "control_change"}, {"time": 2600, "annotation": {"number": 64, "value": 0}, "group": "control_change"}, {"time": 2603, "annotation": {"number": 64, "value": 127}, "group": "control_change"}, {"time": 2614, "annotation": {"number": 64, "value": 0}, "group": "control_change"}, {"time": 2616, "annotation": {"number": 64, "value": 127}, "group": "control_change"}, {"time": 2626, "annotation": {"number": 64, "value": 0}, "group": "control_change"}, {"time": 2627, "annotation": {"number": 64, "value": 127}, "group": "control_change"}, {"time": 2650, "annotation": {"number": 64, "value": 0}, "group": "control_change"}, {"time": 2652, "annotation": {"number": 64, "value": 127}, "group": "control_change"}, {"time": 2673, "annotation": {"number": 64, "value": 0}, "group": "control_change"}, {"time": 2676, "annotation": {"number": 64, "value": 127}, "group": "control_change"}, {"time": 2698, "annotation": {"number": 64, "value": 0}, "group": "control_change"}, {"time": 2700, "annotation": {"number": 64, "value": 127}, "group": "control_change"}, {"time": 2710, "annotation": {"number": 64, "value": 0}, "group": "control_change"}, {"time": 2712, "annotation": {"number": 64, "value": 127}, "group": "control_change"}, {"time": 2721, "annotation": {"number": 64, "value": 0}, "group": "control_change"}, {"time": 2723, "annotation": {"number": 64, "value": 127}, "group": "control_change"}, {"time": 2724, "annotation": {"number": 64, "value": 127}, "group": "control_change"}, {"time": 2746, "annotation": {"number": 64, "value": 0}, "group": "control_change"}, {"time": 2748, "annotation": {"number": 64, "value": 127}, "group": "control_change"}, {"time": 2769, "annotation": {"number": 64, "value": 0}, "group": "control_change"}, {"time": 2771, "annotation": {"number": 64, "value": 127}, "group": "control_change"}, {"time": 2794, "annotation": {"number": 64, "value": 0}, "group": "control_change"}, {"time": 2806, "annotation": {"number": 64, "value": 0}, "group": "control_change"}, {"time": 2808, "annotation": {"number": 64, "value": 127}, "group": "control_change"}, {"time": 2818, "annotation": {"number": 64, "value": 0}, "group": "control_change"}, {"time": 2819, "annotation": {"number": 64, "value": 127}, "group": "control_change"}, {"time": 2842, "annotation": {"number": 64, "value": 0}, "group": "control_change"}, {"time": 2844, "annotation": {"number": 64, "value": 127}, "group": "control_change"}, {"time": 2865, "annotation": {"number": 64, "value": 0}, "group": "control_change"}, {"time": 2868, "annotation": {"number": 64, "value": 127}, "group": "control_change"}, {"time": 2890, "annotation": {"number": 64, "value": 0}, "group": "control_change"}, {"time": 2892, "annotation": {"number": 64, "value": 127}, "group": "control_change"}, {"time": 2902, "annotation": {"number": 64, "value": 0}, "group": "control_change"}, {"time": 2904, "annotation": {"number": 64, "value": 127}, "group": "control_change"}, {"time": 2913, "annotation": {"number": 64, "value": 0}, "group": "control_change"}, {"time": 2915, "annotation": {"number": 64, "value": 127}, "group": "control_change"}, {"time": 2916, "annotation": {"number": 64, "value": 127}, "group": "control_change"}, {"time": 2926, "annotation": {"number": 7, "value": 101}, "group": "control_change"}, {"time": 2929, "annotation": {"number": 7, "value": 100}, "group": "control_change"}, {"time": 2931, "annotation": {"number": 7, "value": 99}, "group": "control_change"}, {"time": 2934, "annotation": {"number": 7, "value": 97}, "group": "control_change"}, {"time": 2936, "annotation": {"number": 7, "value": 96}, "group": "control_change"}, {"time": 2938, "annotation": {"number": 64, "value": 0}, "group": "control_change"}, {"time": 2939, "annotation": {"number": 7, "value": 95}, "group": "control_change"}, {"time": 2940, "annotation": {"number": 64, "value": 127}, "group": "control_change"}, {"time": 2941, "annotation": {"number": 7, "value": 94}, "group": "control_change"}, {"time": 2944, "annotation": {"number": 7, "value": 92}, "group": "control_change"}, {"time": 2946, "annotation": {"number": 7, "value": 91}, "group": "control_change"}, {"time": 2949, "annotation": {"number": 7, "value": 90}, "group": "control_change"}, {"time": 2951, "annotation": {"number": 7, "value": 89}, "group": "control_change"}, {"time": 2954, "annotation": {"number": 7, "value": 88}, "group": "control_change"}, {"time": 2956, "annotation": {"number": 7, "value": 86}, "group": "control_change"}, {"time": 2959, "annotation": {"number": 7, "value": 85}, "group": "control_change"}, {"time": 2961, "annotation": {"number": 64, "value": 0}, "group": "control_change"}, {"time": 2961, "annotation": {"number": 7, "value": 84}, "group": "control_change"}, {"time": 2963, "annotation": {"number": 64, "value": 127}, "group": "control_change"}, {"time": 2964, "annotation": {"number": 7, "value": 83}, "group": "control_change"}, {"time": 2966, "annotation": {"number": 7, "value": 81}, "group": "control_change"}, {"time": 2969, "annotation": {"number": 7, "value": 80}, "group": "control_change"}, {"time": 2971, "annotation": {"number": 7, "value": 79}, "group": "control_change"}, {"time": 2974, "annotation": {"number": 7, "value": 78}, "group": "control_change"}, {"time": 2976, "annotation": {"number": 7, "value": 76}, "group": "control_change"}, {"time": 2979, "annotation": {"number": 7, "value": 75}, "group": "control_change"}, {"time": 2981, "annotation": {"number": 7, "value": 74}, "group": "control_change"}, {"time": 2984, "annotation": {"number": 7, "value": 73}, "group": "control_change"}, {"time": 2986, "annotation": {"number": 64, "value": 0}, "group": "control_change"}, {"time": 2986, "annotation": {"number": 7, "value": 72}, "group": "control_change"}, {"time": 2989, "annotation": {"number": 7, "value": 70}, "group": "control_change"}, {"time": 2991, "annotation": {"number": 7, "value": 69}, "group": "control_change"}, {"time": 2994, "annotation": {"number": 7, "value": 68}, "group": "control_change"}, {"time": 2996, "annotation": {"number": 7, "value": 67}, "group": "control_change"}, {"time": 2998, "annotation": {"number": 64, "value": 0}, "group": "control_change"}, {"time": 2999, "annotation": {"number": 7, "value": 65}, "group": "control_change"}, {"time": 3000, "annotation": {"number": 64, "value": 127}, "group": "control_change"}, {"time": 3001, "annotation": {"number": 7, "value": 64}, "group": "control_change"}, {"time": 3004, "annotation": {"number": 7, "value": 63}, "group": "control_change"}, {"time": 3006, "annotation": {"number": 7, "value": 62}, "group": "control_change"}, {"time": 3009, "annotation": {"number": 7, "value": 61}, "group": "control_change"}, {"time": 3010, "annotation": {"number": 64, "value": 0}, "group": "control_change"}, {"time": 3011, "annotation": {"number": 7, "value": 59}, "group": "control_change"}, {"time": 3011, "annotation": {"number": 64, "value": 127}, "group": "control_change"}, {"time": 3014, "annotation": {"number": 7, "value": 58}, "group": "control_change"}, {"time": 3016, "annotation": {"number": 7, "value": 57}, "group": "control_change"}, {"time": 3019, "annotation": {"number": 7, "value": 56}, "group": "control_change"}, {"time": 3021, "annotation": {"number": 7, "value": 54}, "group": "control_change"}, {"time": 3024, "annotation": {"number": 7, "value": 53}, "group": "control_change"}, {"time": 3026, "annotation": {"number": 7, "value": 52}, "group": "control_change"}, {"time": 3029, "annotation": {"number": 7, "value": 51}, "group": "control_change"}, {"time": 3031, "annotation": {"number": 7, "value": 49}, "group": "control_change"}, {"time": 3034, "annotation": {"number": 7, "value": 48}, "group": "control_change"}, {"time": 3034, "annotation": {"number": 64, "value": 0}, "group": "control_change"}, {"time": 3036, "annotation": {"number": 64, "value": 127}, "group": "control_change"}, {"time": 3036, "annotation": {"number": 7, "value": 47}, "group": "control_change"}, {"time": 3039, "annotation": {"number": 7, "value": 46}, "group": "control_change"}, {"time": 3041, "annotation": {"number": 7, "value": 45}, "group": "control_change"}, {"time": 3044, "annotation": {"number": 7, "value": 43}, "group": "control_change"}, {"time": 3046, "annotation": {"number": 7, "value": 42}, "group": "control_change"}, {"time": 3049, "annotation": {"number": 7, "value": 41}, "group": "control_change"}, {"time": 3051, "annotation": {"number": 7, "value": 40}, "group": "control_change"}, {"time": 3054, "annotation": {"number": 7, "value": 38}, "group": "control_change"}, {"time": 3056, "annotation": {"number": 7, "value": 37}, "group": "control_change"}, {"time": 3057, "annotation": {"number": 64, "value": 0}, "group": "control_change"}, {"time": 3059, "annotation": {"number": 7, "value": 36}, "group": "control_change"}, {"time": 3060, "annotation": {"number": 64, "value": 127}, "group": "control_change"}, {"time": 3061, "annotation": {"number": 7, "value": 35}, "group": "control_change"}, {"time": 3064, "annotation": {"number": 7, "value": 34}, "group": "control_change"}, {"time": 3066, "annotation": {"number": 7, "value": 32}, "group": "control_change"}, {"time": 3069, "annotation": {"number": 7, "value": 31}, "group": "control_change"}, {"time": 3071, "annotation": {"number": 7, "value": 30}, "group": "control_change"}, {"time": 3074, "annotation": {"number": 7, "value": 29}, "group": "control_change"}, {"time": 3076, "annotation": {"number": 7, "value": 27}, "group": "control_change"}, {"time": 3079, "annotation": {"number": 7, "value": 26}, "group": "control_change"}, {"time": 3081, "annotation": {"number": 7, "value": 25}, "group": "control_change"}, {"time": 3082, "annotation": {"number": 64, "value": 0}, "group": "control_change"}, {"time": 3084, "annotation": {"number": 64, "value": 127}, "group": "control_change"}, {"time": 3084, "annotation": {"number": 7, "value": 24}, "group": "control_change"}, {"time": 3086, "annotation": {"number": 7, "value": 23}, "group": "control_change"}, {"time": 3089, "annotation": {"number": 7, "value": 21}, "group": "control_change"}, {"time": 3091, "annotation": {"number": 7, "value": 20}, "group": "control_change"}, {"time": 3094, "annotation": {"number": 7, "value": 19}, "group": "control_change"}, {"time": 3094, "annotation": {"number": 64, "value": 0}, "group": "control_change"}, {"time": 3096, "annotation": {"number": 7, "value": 18}, "group": "control_change"}, {"time": 3096, "annotation": {"number": 64, "value": 127}, "group": "control_change"}, {"time": 3099, "annotation": {"number": 7, "value": 16}, "group": "control_change"}, {"time": 3101, "annotation": {"number": 7, "value": 15}, "group": "control_change"}, {"time": 3104, "annotation": {"number": 7, "value": 14}, "group": "control_change"}, {"time": 3105, "annotation": {"number": 64, "value": 0}, "group": "control_change"}, {"time": 3106, "annotation": {"number": 7, "value": 13}, "group": "control_change"}, {"time": 3107, "annotation": {"number": 64, "value": 127}, "group": "control_change"}, {"time": 3108, "annotation": {"number": 64, "value": 127}, "group": "control_change"}, {"time": 3109, "annotation": {"number": 7, "value": 11}, "group": "control_change"}, {"time": 3111, "annotation": {"number": 7, "value": 10}, "group": "control_change"}, {"time": 3114, "annotation": {"number": 7, "value": 9}, "group": "control_change"}, {"time": 3116, "annotation": {"number": 7, "value": 8}, "group": "control_change"}, {"time": 3119, "annotation": {"number": 7, "value": 7}, "group": "control_change"}, {"time": 3121, "annotation": {"number": 7, "value": 5}, "group": "control_change"}, {"time": 3124, "annotation": {"number": 7, "value": 4}, "group": "control_change"}, {"time": 3126, "annotation": {"number": 7, "value": 3}, "group": "control_change"}, {"time": 3129, "annotation": {"number": 7, "value": 2}, "group": "control_change"}, {"time": 3130, "annotation": {"number": 64, "value": 0}, "group": "control_change"}, {"time": 3131, "annotation": {"number": 7, "value": 0}, "group": "control_change"}, {"time": 3132, "annotation": {"number": 64, "value": 127}, "group": "control_change"}, {"time": 3132, "annotation": {"number": 7, "value": 0}, "group": "control_change"}, {"time": 3153, "annotation": {"number": 64, "value": 0}, "group": "control_change"}, {"time": 3155, "annotation": {"number": 64, "value": 127}, "group": "control_change"}]}]}