{"metadata": {"schema_version": "0.2", "title": "None", "source_filename": "484.mid", "source_format": "midi"}, "resolution": 12, "tempos": [{"time": 0, "qpm": 65.99999340000066}, {"time": 144, "qpm": 67.00002903334591}, {"time": 312, "qpm": 66.5999926740008}, {"time": 480, "qpm": 68.0000725334107}, {"time": 504, "qpm": 67.5000675000675}, {"time": 540, "qpm": 67.00002903334591}, {"time": 588, "qpm": 67.5000675000675}, {"time": 612, "qpm": 66.5999926740008}, {"time": 636, "qpm": 68.0000725334107}, {"time": 696, "qpm": 67.00002903334591}, {"time": 720, "qpm": 68.0000725334107}, {"time": 732, "qpm": 65.99999340000066}, {"time": 744, "qpm": 64.99999458333379}, {"time": 768, "qpm": 65.50003820835562}, {"time": 816, "qpm": 67.00002903334591}, {"time": 924, "qpm": 65.99999340000066}, {"time": 936, "qpm": 64.0}, {"time": 960, "qpm": 64.99999458333379}, {"time": 984, "qpm": 65.99999340000066}, {"time": 1032, "qpm": 68.0000725334107}, {"time": 1056, "qpm": 66.50004710420004}, {"time": 1152, "qpm": 68.20010821083837}, {"time": 1224, "qpm": 68.0000725334107}, {"time": 1272, "qpm": 67.00002903334591}, {"time": 1332, "qpm": 67.5000675000675}, {"time": 1344, "qpm": 68.0000725334107}, {"time": 1368, "qpm": 68.50011017101052}, {"time": 1524, "qpm": 68.0000725334107}, {"time": 1728, "qpm": 68.50011017101052}, {"time": 1764, "qpm": 66.90007359008095}, {"time": 1848, "qpm": 68.0000725334107}], "time_signatures": [{"time": 0, "numerator": 1, "denominator": 4}], "tracks": [{"program": 0, "is_drum": false, "name": "MELODY", "notes": [{"time": 262, "pitch": 64, "duration": 6, "velocity": 88}, {"time": 268, "pitch": 57, "duration": 13, "velocity": 88}, {"time": 280, "pitch": 64, "duration": 6, "velocity": 88}, {"time": 286, "pitch": 62, "duration": 22, "velocity": 88}, {"time": 307, "pitch": 60, "duration": 4, "velocity": 88}, {"time": 310, "pitch": 64, "duration": 3, "velocity": 88}, {"time": 313, "pitch": 64, "duration": 12, "velocity": 88}, {"time": 325, "pitch": 60, "duration": 3, "velocity": 88}, {"time": 328, "pitch": 59, "duration": 3, "velocity": 88}, {"time": 331, "pitch": 60, "duration": 24, "velocity": 88}, {"time": 355, "pitch": 57, "duration": 4, "velocity": 88}, {"time": 358, "pitch": 64, "duration": 6, "velocity": 88}, {"time": 364, "pitch": 57, "duration": 6, "velocity": 88}, {"time": 370, "pitch": 64, "duration": 6, "velocity": 88}, {"time": 376, "pitch": 62, "duration": 13, "velocity": 88}, {"time": 388, "pitch": 60, "duration": 7, "velocity": 88}, {"time": 394, "pitch": 67, "duration": 9, "velocity": 88}, {"time": 403, "pitch": 62, "duration": 4, "velocity": 88}, {"time": 406, "pitch": 64, "duration": 24, "velocity": 88}, {"time": 451, "pitch": 57, "duration": 4, "velocity": 88}, {"time": 454, "pitch": 64, "duration": 6, "velocity": 88}, {"time": 460, "pitch": 57, "duration": 6, "velocity": 88}, {"time": 466, "pitch": 64, "duration": 5, "velocity": 88}, {"time": 472, "pitch": 64, "duration": 3, "velocity": 88}, {"time": 475, "pitch": 62, "duration": 10, "velocity": 88}, {"time": 484, "pitch": 62, "duration": 1, "velocity": 88}, {"time": 502, "pitch": 62, "duration": 10, "velocity": 91}, {"time": 514, "pitch": 60, "duration": 6, "velocity": 91}, {"time": 520, "pitch": 59, "duration": 3, "velocity": 91}, {"time": 523, "pitch": 60, "duration": 22, "velocity": 91}, {"time": 547, "pitch": 57, "duration": 3, "velocity": 88}, {"time": 550, "pitch": 64, "duration": 6, "velocity": 88}, {"time": 556, "pitch": 57, "duration": 6, "velocity": 88}, {"time": 562, "pitch": 64, "duration": 5, "velocity": 88}, {"time": 568, "pitch": 64, "duration": 3, "velocity": 88}, {"time": 571, "pitch": 62, "duration": 7, "velocity": 88}, {"time": 580, "pitch": 59, "duration": 11, "velocity": 88}, {"time": 592, "pitch": 60, "duration": 6, "velocity": 88}, {"time": 598, "pitch": 57, "duration": 12, "velocity": 88}, {"time": 646, "pitch": 64, "duration": 6, "velocity": 86}, {"time": 652, "pitch": 57, "duration": 12, "velocity": 86}, {"time": 664, "pitch": 64, "duration": 6, "velocity": 86}, {"time": 670, "pitch": 62, "duration": 21, "velocity": 86}, {"time": 691, "pitch": 60, "duration": 3, "velocity": 86}, {"time": 694, "pitch": 64, "duration": 4, "velocity": 86}, {"time": 700, "pitch": 64, "duration": 3, "velocity": 86}, {"time": 703, "pitch": 59, "duration": 2, "velocity": 86}, {"time": 706, "pitch": 59, "duration": 4, "velocity": 86}, {"time": 712, "pitch": 59, "duration": 3, "velocity": 86}, {"time": 715, "pitch": 60, "duration": 18, "velocity": 82}, {"time": 736, "pitch": 57, "duration": 2, "velocity": 82}, {"time": 739, "pitch": 57, "duration": 2, "velocity": 82}, {"time": 742, "pitch": 64, "duration": 6, "velocity": 82}, {"time": 748, "pitch": 64, "duration": 3, "velocity": 82}, {"time": 754, "pitch": 64, "duration": 5, "velocity": 82}, {"time": 760, "pitch": 57, "duration": 6, "velocity": 82}, {"time": 766, "pitch": 62, "duration": 6, "velocity": 82}, {"time": 772, "pitch": 60, "duration": 4, "velocity": 82}, {"time": 778, "pitch": 60, "duration": 6, "velocity": 82}, {"time": 784, "pitch": 67, "duration": 6, "velocity": 82}, {"time": 787, "pitch": 64, "duration": 25, "velocity": 82}, {"time": 832, "pitch": 57, "duration": 2, "velocity": 82}, {"time": 835, "pitch": 57, "duration": 3, "velocity": 82}, {"time": 838, "pitch": 64, "duration": 2, "velocity": 82}, {"time": 844, "pitch": 64, "duration": 3, "velocity": 82}, {"time": 850, "pitch": 64, "duration": 6, "velocity": 82}, {"time": 856, "pitch": 57, "duration": 6, "velocity": 82}, {"time": 862, "pitch": 64, "duration": 6, "velocity": 82}, {"time": 868, "pitch": 62, "duration": 5, "velocity": 82}, {"time": 871, "pitch": 62, "duration": 2, "velocity": 82}, {"time": 886, "pitch": 62, "duration": 6, "velocity": 82}, {"time": 892, "pitch": 59, "duration": 4, "velocity": 82}, {"time": 898, "pitch": 59, "duration": 6, "velocity": 82}, {"time": 904, "pitch": 60, "duration": 3, "velocity": 82}, {"time": 907, "pitch": 60, "duration": 1, "velocity": 82}, {"time": 931, "pitch": 57, "duration": 6, "velocity": 82}, {"time": 934, "pitch": 64, "duration": 5, "velocity": 82}, {"time": 940, "pitch": 64, "duration": 3, "velocity": 82}, {"time": 946, "pitch": 64, "duration": 6, "velocity": 82}, {"time": 952, "pitch": 57, "duration": 7, "velocity": 82}, {"time": 958, "pitch": 62, "duration": 9, "velocity": 82}, {"time": 967, "pitch": 59, "duration": 10, "velocity": 82}, {"time": 976, "pitch": 60, "duration": 6, "velocity": 82}, {"time": 982, "pitch": 57, "duration": 19, "velocity": 82}, {"time": 1030, "pitch": 64, "duration": 3, "velocity": 82}, {"time": 1036, "pitch": 64, "duration": 11, "velocity": 82}, {"time": 1048, "pitch": 69, "duration": 7, "velocity": 82}, {"time": 1054, "pitch": 67, "duration": 16, "velocity": 82}, {"time": 1072, "pitch": 62, "duration": 1, "velocity": 82}, {"time": 1075, "pitch": 62, "duration": 2, "velocity": 82}, {"time": 1078, "pitch": 64, "duration": 12, "velocity": 82}, {"time": 1090, "pitch": 62, "duration": 6, "velocity": 82}, {"time": 1096, "pitch": 59, "duration": 6, "velocity": 82}, {"time": 1102, "pitch": 60, "duration": 13, "velocity": 82}, {"time": 1120, "pitch": 57, "duration": 2, "velocity": 82}, {"time": 1123, "pitch": 57, "duration": 3, "velocity": 82}, {"time": 1126, "pitch": 69, "duration": 5, "velocity": 82}, {"time": 1135, "pitch": 69, "duration": 3, "velocity": 82}, {"time": 1138, "pitch": 67, "duration": 10, "velocity": 82}, {"time": 1138, "pitch": 69, "duration": 1, "velocity": 82}, {"time": 1150, "pitch": 64, "duration": 13, "velocity": 82}, {"time": 1162, "pitch": 62, "duration": 7, "velocity": 82}, {"time": 1168, "pitch": 64, "duration": 15, "velocity": 84}, {"time": 1222, "pitch": 64, "duration": 4, "velocity": 84}, {"time": 1228, "pitch": 64, "duration": 10, "velocity": 84}, {"time": 1240, "pitch": 69, "duration": 5, "velocity": 84}, {"time": 1246, "pitch": 67, "duration": 18, "velocity": 84}, {"time": 1264, "pitch": 62, "duration": 6, "velocity": 84}, {"time": 1270, "pitch": 64, "duration": 12, "velocity": 84}, {"time": 1282, "pitch": 67, "duration": 5, "velocity": 84}, {"time": 1288, "pitch": 59, "duration": 6, "velocity": 84}, {"time": 1294, "pitch": 60, "duration": 14, "velocity": 84}, {"time": 1312, "pitch": 57, "duration": 2, "velocity": 84}, {"time": 1315, "pitch": 57, "duration": 2, "velocity": 84}, {"time": 1318, "pitch": 64, "duration": 6, "velocity": 84}, {"time": 1324, "pitch": 57, "duration": 7, "velocity": 84}, {"time": 1330, "pitch": 64, "duration": 7, "velocity": 84}, {"time": 1336, "pitch": 62, "duration": 4, "velocity": 84}, {"time": 1342, "pitch": 62, "duration": 12, "velocity": 84}, {"time": 1354, "pitch": 59, "duration": 6, "velocity": 84}, {"time": 1360, "pitch": 55, "duration": 6, "velocity": 84}, {"time": 1366, "pitch": 60, "duration": 25, "velocity": 84}, {"time": 1414, "pitch": 64, "duration": 6, "velocity": 84}, {"time": 1420, "pitch": 57, "duration": 12, "velocity": 84}, {"time": 1432, "pitch": 64, "duration": 7, "velocity": 84}, {"time": 1438, "pitch": 62, "duration": 16, "velocity": 84}, {"time": 1456, "pitch": 60, "duration": 1, "velocity": 84}, {"time": 1459, "pitch": 60, "duration": 2, "velocity": 84}, {"time": 1462, "pitch": 64, "duration": 6, "velocity": 84}, {"time": 1468, "pitch": 65, "duration": 7, "velocity": 84}, {"time": 1474, "pitch": 62, "duration": 6, "velocity": 84}, {"time": 1480, "pitch": 59, "duration": 7, "velocity": 84}, {"time": 1486, "pitch": 60, "duration": 13, "velocity": 84}, {"time": 1504, "pitch": 57, "duration": 2, "velocity": 84}, {"time": 1507, "pitch": 57, "duration": 3, "velocity": 84}, {"time": 1510, "pitch": 69, "duration": 4, "velocity": 84}, {"time": 1516, "pitch": 69, "duration": 3, "velocity": 84}, {"time": 1522, "pitch": 69, "duration": 2, "velocity": 84}, {"time": 1525, "pitch": 69, "duration": 10, "velocity": 84}, {"time": 1534, "pitch": 67, "duration": 10, "velocity": 84}, {"time": 1543, "pitch": 62, "duration": 4, "velocity": 84}, {"time": 1546, "pitch": 67, "duration": 6, "velocity": 84}, {"time": 1552, "pitch": 62, "duration": 4, "velocity": 84}, {"time": 1555, "pitch": 64, "duration": 26, "velocity": 84}, {"time": 1606, "pitch": 64, "duration": 4, "velocity": 84}, {"time": 1612, "pitch": 64, "duration": 12, "velocity": 84}, {"time": 1624, "pitch": 69, "duration": 7, "velocity": 84}, {"time": 1630, "pitch": 67, "duration": 17, "velocity": 84}, {"time": 1648, "pitch": 62, "duration": 7, "velocity": 84}, {"time": 1654, "pitch": 64, "duration": 12, "velocity": 84}, {"time": 1666, "pitch": 67, "duration": 5, "velocity": 84}, {"time": 1672, "pitch": 59, "duration": 7, "velocity": 84}, {"time": 1678, "pitch": 60, "duration": 18, "velocity": 84}, {"time": 1696, "pitch": 57, "duration": 2, "velocity": 84}, {"time": 1699, "pitch": 57, "duration": 3, "velocity": 84}, {"time": 1702, "pitch": 64, "duration": 6, "velocity": 84}, {"time": 1708, "pitch": 57, "duration": 6, "velocity": 84}, {"time": 1714, "pitch": 64, "duration": 7, "velocity": 84}, {"time": 1720, "pitch": 62, "duration": 4, "velocity": 84}, {"time": 1726, "pitch": 62, "duration": 9, "velocity": 84}, {"time": 1735, "pitch": 60, "duration": 2, "velocity": 84}, {"time": 1738, "pitch": 60, "duration": 6, "velocity": 84}, {"time": 1744, "pitch": 59, "duration": 7, "velocity": 84}, {"time": 1750, "pitch": 60, "duration": 36, "velocity": 84}, {"time": 1798, "pitch": 64, "duration": 7, "velocity": 84}, {"time": 1804, "pitch": 57, "duration": 12, "velocity": 82}, {"time": 1816, "pitch": 64, "duration": 6, "velocity": 82}, {"time": 1822, "pitch": 62, "duration": 16, "velocity": 82}, {"time": 1840, "pitch": 60, "duration": 2, "velocity": 82}, {"time": 1843, "pitch": 60, "duration": 2, "velocity": 82}, {"time": 1846, "pitch": 64, "duration": 9, "velocity": 82}, {"time": 1855, "pitch": 65, "duration": 3, "velocity": 82}, {"time": 1858, "pitch": 62, "duration": 6, "velocity": 82}, {"time": 1864, "pitch": 59, "duration": 7, "velocity": 82}, {"time": 1870, "pitch": 60, "duration": 16, "velocity": 82}, {"time": 1888, "pitch": 57, "duration": 2, "velocity": 82}, {"time": 1891, "pitch": 57, "duration": 2, "velocity": 82}, {"time": 1894, "pitch": 69, "duration": 3, "velocity": 82}, {"time": 1900, "pitch": 69, "duration": 3, "velocity": 82}, {"time": 1906, "pitch": 69, "duration": 2, "velocity": 82}, {"time": 1909, "pitch": 69, "duration": 9, "velocity": 82}, {"time": 1918, "pitch": 67, "duration": 13, "velocity": 82}, {"time": 1930, "pitch": 62, "duration": 6, "velocity": 82}, {"time": 1933, "pitch": 67, "duration": 6, "velocity": 82}, {"time": 1942, "pitch": 64, "duration": 32, "velocity": 82}, {"time": 1990, "pitch": 64, "duration": 4, "velocity": 82}, {"time": 1996, "pitch": 64, "duration": 13, "velocity": 82}, {"time": 2008, "pitch": 69, "duration": 7, "velocity": 82}, {"time": 2014, "pitch": 67, "duration": 19, "velocity": 82}, {"time": 2032, "pitch": 62, "duration": 7, "velocity": 81}, {"time": 2038, "pitch": 64, "duration": 13, "velocity": 81}, {"time": 2050, "pitch": 67, "duration": 6, "velocity": 81}, {"time": 2056, "pitch": 59, "duration": 7, "velocity": 81}, {"time": 2062, "pitch": 60, "duration": 17, "velocity": 81}, {"time": 2077, "pitch": 57, "duration": 3, "velocity": 81}, {"time": 2080, "pitch": 57, "duration": 2, "velocity": 81}, {"time": 2083, "pitch": 64, "duration": 6, "velocity": 81}, {"time": 2089, "pitch": 57, "duration": 4, "velocity": 81}, {"time": 2095, "pitch": 57, "duration": 3, "velocity": 81}, {"time": 2101, "pitch": 57, "duration": 6, "velocity": 81}, {"time": 2110, "pitch": 62, "duration": 8, "velocity": 81}, {"time": 2116, "pitch": 64, "duration": 8, "velocity": 81}, {"time": 2122, "pitch": 62, "duration": 51, "velocity": 81}, {"time": 2182, "pitch": 62, "duration": 13, "velocity": 81}, {"time": 2194, "pitch": 59, "duration": 12, "velocity": 81}, {"time": 2206, "pitch": 60, "duration": 10, "velocity": 81}, {"time": 2218, "pitch": 60, "duration": 48, "velocity": 82}, {"time": 2266, "pitch": 59, "duration": 12, "velocity": 82}, {"time": 2278, "pitch": 60, "duration": 4, "velocity": 82}, {"time": 2281, "pitch": 59, "duration": 8, "velocity": 82}, {"time": 2290, "pitch": 57, "duration": 45, "velocity": 81}]}, {"program": 0, "is_drum": false, "name": "PIANO", "notes": [{"time": 70, "pitch": 41, "duration": 19, "velocity": 52}, {"time": 76, "pitch": 48, "duration": 18, "velocity": 50}, {"time": 79, "pitch": 57, "duration": 6, "velocity": 66}, {"time": 82, "pitch": 65, "duration": 15, "velocity": 89}, {"time": 85, "pitch": 53, "duration": 4, "velocity": 42}, {"time": 88, "pitch": 60, "duration": 9, "velocity": 58}, {"time": 91, "pitch": 57, "duration": 5, "velocity": 70}, {"time": 94, "pitch": 43, "duration": 20, "velocity": 65}, {"time": 100, "pitch": 50, "duration": 8, "velocity": 52}, {"time": 103, "pitch": 55, "duration": 6, "velocity": 55}, {"time": 106, "pitch": 62, "duration": 13, "velocity": 90}, {"time": 109, "pitch": 50, "duration": 4, "velocity": 48}, {"time": 112, "pitch": 59, "duration": 6, "velocity": 59}, {"time": 115, "pitch": 55, "duration": 3, "velocity": 72}, {"time": 118, "pitch": 45, "duration": 22, "velocity": 76}, {"time": 124, "pitch": 52, "duration": 7, "velocity": 58}, {"time": 127, "pitch": 57, "duration": 5, "velocity": 58}, {"time": 130, "pitch": 64, "duration": 22, "velocity": 86}, {"time": 133, "pitch": 52, "duration": 9, "velocity": 48}, {"time": 136, "pitch": 60, "duration": 16, "velocity": 55}, {"time": 139, "pitch": 57, "duration": 11, "velocity": 64}, {"time": 142, "pitch": 45, "duration": 19, "velocity": 71}, {"time": 148, "pitch": 52, "duration": 8, "velocity": 47}, {"time": 151, "pitch": 57, "duration": 6, "velocity": 54}, {"time": 154, "pitch": 64, "duration": 13, "velocity": 89}, {"time": 157, "pitch": 52, "duration": 3, "velocity": 53}, {"time": 160, "pitch": 60, "duration": 7, "velocity": 83}, {"time": 163, "pitch": 57, "duration": 4, "velocity": 71}, {"time": 166, "pitch": 41, "duration": 19, "velocity": 72}, {"time": 172, "pitch": 48, "duration": 17, "velocity": 48}, {"time": 175, "pitch": 57, "duration": 5, "velocity": 69}, {"time": 178, "pitch": 65, "duration": 13, "velocity": 92}, {"time": 181, "pitch": 53, "duration": 3, "velocity": 44}, {"time": 184, "pitch": 60, "duration": 7, "velocity": 69}, {"time": 187, "pitch": 57, "duration": 4, "velocity": 71}, {"time": 190, "pitch": 43, "duration": 19, "velocity": 71}, {"time": 196, "pitch": 50, "duration": 18, "velocity": 55}, {"time": 199, "pitch": 59, "duration": 5, "velocity": 70}, {"time": 202, "pitch": 67, "duration": 13, "velocity": 89}, {"time": 205, "pitch": 55, "duration": 3, "velocity": 43}, {"time": 208, "pitch": 62, "duration": 7, "velocity": 66}, {"time": 211, "pitch": 59, "duration": 4, "velocity": 52}, {"time": 214, "pitch": 45, "duration": 20, "velocity": 63}, {"time": 220, "pitch": 52, "duration": 15, "velocity": 44}, {"time": 223, "pitch": 57, "duration": 5, "velocity": 42}, {"time": 226, "pitch": 60, "duration": 7, "velocity": 69}, {"time": 229, "pitch": 57, "duration": 3, "velocity": 49}, {"time": 232, "pitch": 64, "duration": 31, "velocity": 75}, {"time": 235, "pitch": 60, "duration": 27, "velocity": 57}, {"time": 238, "pitch": 45, "duration": 25, "velocity": 39}, {"time": 238, "pitch": 52, "duration": 25, "velocity": 48}, {"time": 238, "pitch": 57, "duration": 25, "velocity": 78}, {"time": 262, "pitch": 53, "duration": 18, "velocity": 82}, {"time": 268, "pitch": 60, "duration": 18, "velocity": 47}, {"time": 274, "pitch": 65, "duration": 4, "velocity": 53}, {"time": 274, "pitch": 72, "duration": 14, "velocity": 76}, {"time": 280, "pitch": 69, "duration": 9, "velocity": 70}, {"time": 286, "pitch": 55, "duration": 18, "velocity": 65}, {"time": 292, "pitch": 62, "duration": 12, "velocity": 60}, {"time": 298, "pitch": 71, "duration": 14, "velocity": 65}, {"time": 298, "pitch": 74, "duration": 13, "velocity": 63}, {"time": 304, "pitch": 67, "duration": 8, "velocity": 51}, {"time": 310, "pitch": 52, "duration": 16, "velocity": 69}, {"time": 316, "pitch": 59, "duration": 12, "velocity": 52}, {"time": 322, "pitch": 64, "duration": 5, "velocity": 45}, {"time": 322, "pitch": 71, "duration": 13, "velocity": 62}, {"time": 322, "pitch": 76, "duration": 14, "velocity": 56}, {"time": 334, "pitch": 57, "duration": 20, "velocity": 69}, {"time": 340, "pitch": 64, "duration": 8, "velocity": 66}, {"time": 346, "pitch": 72, "duration": 8, "velocity": 74}, {"time": 349, "pitch": 64, "duration": 4, "velocity": 61}, {"time": 352, "pitch": 69, "duration": 7, "velocity": 75}, {"time": 355, "pitch": 72, "duration": 4, "velocity": 63}, {"time": 358, "pitch": 53, "duration": 18, "velocity": 71}, {"time": 364, "pitch": 60, "duration": 17, "velocity": 53}, {"time": 370, "pitch": 65, "duration": 6, "velocity": 45}, {"time": 370, "pitch": 72, "duration": 14, "velocity": 70}, {"time": 376, "pitch": 69, "duration": 10, "velocity": 66}, {"time": 382, "pitch": 55, "duration": 15, "velocity": 61}, {"time": 388, "pitch": 62, "duration": 8, "velocity": 51}, {"time": 394, "pitch": 71, "duration": 12, "velocity": 67}, {"time": 394, "pitch": 74, "duration": 12, "velocity": 67}, {"time": 400, "pitch": 67, "duration": 8, "velocity": 53}, {"time": 406, "pitch": 60, "duration": 24, "velocity": 60}, {"time": 412, "pitch": 67, "duration": 8, "velocity": 57}, {"time": 418, "pitch": 72, "duration": 19, "velocity": 69}, {"time": 418, "pitch": 76, "duration": 22, "velocity": 69}, {"time": 424, "pitch": 67, "duration": 9, "velocity": 64}, {"time": 430, "pitch": 60, "duration": 23, "velocity": 53}, {"time": 436, "pitch": 67, "duration": 7, "velocity": 65}, {"time": 442, "pitch": 72, "duration": 8, "velocity": 71}, {"time": 442, "pitch": 76, "duration": 13, "velocity": 76}, {"time": 448, "pitch": 71, "duration": 6, "velocity": 59}, {"time": 451, "pitch": 72, "duration": 4, "velocity": 60}, {"time": 454, "pitch": 53, "duration": 18, "velocity": 61}, {"time": 460, "pitch": 60, "duration": 18, "velocity": 53}, {"time": 466, "pitch": 65, "duration": 4, "velocity": 48}, {"time": 466, "pitch": 72, "duration": 13, "velocity": 62}, {"time": 472, "pitch": 69, "duration": 8, "velocity": 58}, {"time": 478, "pitch": 55, "duration": 18, "velocity": 59}, {"time": 484, "pitch": 62, "duration": 11, "velocity": 36}, {"time": 490, "pitch": 67, "duration": 4, "velocity": 48}, {"time": 490, "pitch": 71, "duration": 2, "velocity": 48}, {"time": 490, "pitch": 74, "duration": 13, "velocity": 68}, {"time": 496, "pitch": 71, "duration": 7, "velocity": 58}, {"time": 502, "pitch": 52, "duration": 15, "velocity": 66}, {"time": 508, "pitch": 59, "duration": 11, "velocity": 52}, {"time": 514, "pitch": 64, "duration": 4, "velocity": 56}, {"time": 514, "pitch": 71, "duration": 12, "velocity": 62}, {"time": 514, "pitch": 76, "duration": 13, "velocity": 57}, {"time": 520, "pitch": 67, "duration": 6, "velocity": 55}, {"time": 526, "pitch": 57, "duration": 16, "velocity": 64}, {"time": 532, "pitch": 64, "duration": 10, "velocity": 63}, {"time": 538, "pitch": 69, "duration": 3, "velocity": 59}, {"time": 538, "pitch": 72, "duration": 4, "velocity": 64}, {"time": 538, "pitch": 76, "duration": 8, "velocity": 62}, {"time": 541, "pitch": 71, "duration": 9, "velocity": 69}, {"time": 544, "pitch": 72, "duration": 7, "velocity": 57}, {"time": 547, "pitch": 76, "duration": 4, "velocity": 63}, {"time": 550, "pitch": 53, "duration": 16, "velocity": 65}, {"time": 556, "pitch": 60, "duration": 15, "velocity": 55}, {"time": 562, "pitch": 65, "duration": 4, "velocity": 49}, {"time": 562, "pitch": 72, "duration": 12, "velocity": 69}, {"time": 568, "pitch": 69, "duration": 6, "velocity": 62}, {"time": 574, "pitch": 55, "duration": 20, "velocity": 59}, {"time": 580, "pitch": 62, "duration": 18, "velocity": 52}, {"time": 586, "pitch": 71, "duration": 12, "velocity": 68}, {"time": 586, "pitch": 74, "duration": 12, "velocity": 67}, {"time": 592, "pitch": 67, "duration": 6, "velocity": 61}, {"time": 598, "pitch": 57, "duration": 22, "velocity": 56}, {"time": 604, "pitch": 64, "duration": 18, "velocity": 47}, {"time": 610, "pitch": 69, "duration": 7, "velocity": 51}, {"time": 610, "pitch": 72, "duration": 36, "velocity": 59}, {"time": 610, "pitch": 76, "duration": 36, "velocity": 55}, {"time": 616, "pitch": 71, "duration": 20, "velocity": 56}, {"time": 622, "pitch": 57, "duration": 22, "velocity": 66}, {"time": 646, "pitch": 41, "duration": 18, "velocity": 82}, {"time": 652, "pitch": 48, "duration": 18, "velocity": 47}, {"time": 658, "pitch": 53, "duration": 4, "velocity": 53}, {"time": 658, "pitch": 60, "duration": 14, "velocity": 76}, {"time": 664, "pitch": 57, "duration": 9, "velocity": 70}, {"time": 670, "pitch": 43, "duration": 18, "velocity": 65}, {"time": 676, "pitch": 50, "duration": 12, "velocity": 60}, {"time": 682, "pitch": 59, "duration": 14, "velocity": 65}, {"time": 682, "pitch": 62, "duration": 13, "velocity": 63}, {"time": 688, "pitch": 55, "duration": 8, "velocity": 51}, {"time": 694, "pitch": 40, "duration": 16, "velocity": 69}, {"time": 700, "pitch": 47, "duration": 12, "velocity": 52}, {"time": 706, "pitch": 52, "duration": 5, "velocity": 45}, {"time": 706, "pitch": 59, "duration": 13, "velocity": 62}, {"time": 706, "pitch": 64, "duration": 14, "velocity": 56}, {"time": 718, "pitch": 45, "duration": 20, "velocity": 69}, {"time": 724, "pitch": 52, "duration": 8, "velocity": 66}, {"time": 730, "pitch": 60, "duration": 8, "velocity": 74}, {"time": 733, "pitch": 52, "duration": 4, "velocity": 61}, {"time": 736, "pitch": 57, "duration": 7, "velocity": 75}, {"time": 739, "pitch": 60, "duration": 4, "velocity": 63}, {"time": 742, "pitch": 41, "duration": 18, "velocity": 71}, {"time": 748, "pitch": 48, "duration": 17, "velocity": 53}, {"time": 754, "pitch": 53, "duration": 6, "velocity": 45}, {"time": 754, "pitch": 60, "duration": 14, "velocity": 70}, {"time": 760, "pitch": 57, "duration": 10, "velocity": 66}, {"time": 766, "pitch": 43, "duration": 15, "velocity": 61}, {"time": 772, "pitch": 50, "duration": 8, "velocity": 51}, {"time": 778, "pitch": 59, "duration": 12, "velocity": 67}, {"time": 778, "pitch": 62, "duration": 12, "velocity": 67}, {"time": 784, "pitch": 55, "duration": 8, "velocity": 53}, {"time": 790, "pitch": 48, "duration": 24, "velocity": 60}, {"time": 796, "pitch": 55, "duration": 8, "velocity": 57}, {"time": 802, "pitch": 60, "duration": 19, "velocity": 69}, {"time": 802, "pitch": 64, "duration": 22, "velocity": 69}, {"time": 808, "pitch": 55, "duration": 9, "velocity": 64}, {"time": 814, "pitch": 48, "duration": 23, "velocity": 53}, {"time": 820, "pitch": 55, "duration": 7, "velocity": 65}, {"time": 826, "pitch": 60, "duration": 8, "velocity": 71}, {"time": 826, "pitch": 64, "duration": 13, "velocity": 76}, {"time": 832, "pitch": 59, "duration": 6, "velocity": 59}, {"time": 835, "pitch": 60, "duration": 4, "velocity": 60}, {"time": 838, "pitch": 41, "duration": 18, "velocity": 61}, {"time": 844, "pitch": 48, "duration": 18, "velocity": 53}, {"time": 850, "pitch": 53, "duration": 4, "velocity": 48}, {"time": 850, "pitch": 60, "duration": 13, "velocity": 62}, {"time": 856, "pitch": 57, "duration": 8, "velocity": 58}, {"time": 862, "pitch": 43, "duration": 18, "velocity": 59}, {"time": 868, "pitch": 50, "duration": 11, "velocity": 36}, {"time": 874, "pitch": 55, "duration": 4, "velocity": 48}, {"time": 874, "pitch": 59, "duration": 2, "velocity": 48}, {"time": 874, "pitch": 62, "duration": 13, "velocity": 68}, {"time": 880, "pitch": 59, "duration": 7, "velocity": 58}, {"time": 886, "pitch": 40, "duration": 15, "velocity": 66}, {"time": 892, "pitch": 47, "duration": 11, "velocity": 52}, {"time": 898, "pitch": 52, "duration": 4, "velocity": 56}, {"time": 898, "pitch": 59, "duration": 12, "velocity": 62}, {"time": 898, "pitch": 64, "duration": 13, "velocity": 57}, {"time": 904, "pitch": 55, "duration": 6, "velocity": 55}, {"time": 910, "pitch": 45, "duration": 16, "velocity": 64}, {"time": 916, "pitch": 52, "duration": 10, "velocity": 63}, {"time": 922, "pitch": 57, "duration": 3, "velocity": 59}, {"time": 922, "pitch": 60, "duration": 4, "velocity": 64}, {"time": 922, "pitch": 64, "duration": 8, "velocity": 62}, {"time": 925, "pitch": 59, "duration": 9, "velocity": 69}, {"time": 928, "pitch": 60, "duration": 7, "velocity": 57}, {"time": 931, "pitch": 64, "duration": 4, "velocity": 63}, {"time": 934, "pitch": 41, "duration": 16, "velocity": 65}, {"time": 940, "pitch": 48, "duration": 15, "velocity": 55}, {"time": 946, "pitch": 53, "duration": 4, "velocity": 49}, {"time": 946, "pitch": 60, "duration": 12, "velocity": 69}, {"time": 952, "pitch": 57, "duration": 6, "velocity": 62}, {"time": 958, "pitch": 43, "duration": 20, "velocity": 59}, {"time": 964, "pitch": 50, "duration": 18, "velocity": 52}, {"time": 970, "pitch": 59, "duration": 12, "velocity": 68}, {"time": 970, "pitch": 62, "duration": 12, "velocity": 67}, {"time": 976, "pitch": 55, "duration": 6, "velocity": 61}, {"time": 982, "pitch": 45, "duration": 22, "velocity": 56}, {"time": 988, "pitch": 52, "duration": 18, "velocity": 47}, {"time": 994, "pitch": 57, "duration": 7, "velocity": 51}, {"time": 994, "pitch": 60, "duration": 36, "velocity": 59}, {"time": 994, "pitch": 64, "duration": 36, "velocity": 55}, {"time": 1000, "pitch": 59, "duration": 20, "velocity": 56}, {"time": 1006, "pitch": 45, "duration": 22, "velocity": 66}, {"time": 1030, "pitch": 41, "duration": 16, "velocity": 92}, {"time": 1036, "pitch": 48, "duration": 12, "velocity": 39}, {"time": 1036, "pitch": 57, "duration": 7, "velocity": 72}, {"time": 1042, "pitch": 53, "duration": 3, "velocity": 45}, {"time": 1042, "pitch": 60, "duration": 13, "velocity": 92}, {"time": 1042, "pitch": 65, "duration": 12, "velocity": 86}, {"time": 1048, "pitch": 41, "duration": 5, "velocity": 85}, {"time": 1054, "pitch": 43, "duration": 16, "velocity": 85}, {"time": 1060, "pitch": 50, "duration": 7, "velocity": 60}, {"time": 1066, "pitch": 59, "duration": 13, "velocity": 85}, {"time": 1066, "pitch": 62, "duration": 13, "velocity": 89}, {"time": 1072, "pitch": 55, "duration": 7, "velocity": 92}, {"time": 1078, "pitch": 40, "duration": 15, "velocity": 90}, {"time": 1084, "pitch": 47, "duration": 11, "velocity": 42}, {"time": 1090, "pitch": 52, "duration": 3, "velocity": 45}, {"time": 1090, "pitch": 59, "duration": 12, "velocity": 90}, {"time": 1090, "pitch": 64, "duration": 12, "velocity": 88}, {"time": 1096, "pitch": 40, "duration": 4, "velocity": 95}, {"time": 1102, "pitch": 45, "duration": 18, "velocity": 82}, {"time": 1108, "pitch": 52, "duration": 8, "velocity": 55}, {"time": 1114, "pitch": 60, "duration": 16, "velocity": 92}, {"time": 1114, "pitch": 64, "duration": 16, "velocity": 89}, {"time": 1117, "pitch": 52, "duration": 2, "velocity": 63}, {"time": 1120, "pitch": 57, "duration": 7, "velocity": 89}, {"time": 1126, "pitch": 41, "duration": 15, "velocity": 86}, {"time": 1132, "pitch": 48, "duration": 11, "velocity": 76}, {"time": 1138, "pitch": 57, "duration": 10, "velocity": 93}, {"time": 1138, "pitch": 60, "duration": 10, "velocity": 90}, {"time": 1144, "pitch": 41, "duration": 5, "velocity": 78}, {"time": 1150, "pitch": 43, "duration": 20, "velocity": 81}, {"time": 1156, "pitch": 50, "duration": 7, "velocity": 53}, {"time": 1162, "pitch": 59, "duration": 13, "velocity": 77}, {"time": 1162, "pitch": 62, "duration": 13, "velocity": 77}, {"time": 1165, "pitch": 50, "duration": 4, "velocity": 57}, {"time": 1168, "pitch": 55, "duration": 8, "velocity": 76}, {"time": 1174, "pitch": 48, "duration": 16, "velocity": 90}, {"time": 1180, "pitch": 55, "duration": 22, "velocity": 52}, {"time": 1186, "pitch": 60, "duration": 20, "velocity": 85}, {"time": 1186, "pitch": 64, "duration": 21, "velocity": 86}, {"time": 1192, "pitch": 48, "duration": 3, "velocity": 70}, {"time": 1198, "pitch": 48, "duration": 15, "velocity": 107}, {"time": 1204, "pitch": 55, "duration": 7, "velocity": 59}, {"time": 1210, "pitch": 60, "duration": 7, "velocity": 92}, {"time": 1210, "pitch": 64, "duration": 11, "velocity": 83}, {"time": 1213, "pitch": 47, "duration": 9, "velocity": 90}, {"time": 1216, "pitch": 59, "duration": 4, "velocity": 70}, {"time": 1219, "pitch": 60, "duration": 3, "velocity": 96}, {"time": 1222, "pitch": 41, "duration": 16, "velocity": 92}, {"time": 1228, "pitch": 48, "duration": 12, "velocity": 39}, {"time": 1228, "pitch": 57, "duration": 7, "velocity": 72}, {"time": 1234, "pitch": 53, "duration": 3, "velocity": 45}, {"time": 1234, "pitch": 60, "duration": 13, "velocity": 92}, {"time": 1234, "pitch": 65, "duration": 12, "velocity": 86}, {"time": 1240, "pitch": 41, "duration": 5, "velocity": 85}, {"time": 1246, "pitch": 43, "duration": 16, "velocity": 85}, {"time": 1252, "pitch": 50, "duration": 7, "velocity": 60}, {"time": 1258, "pitch": 59, "duration": 13, "velocity": 85}, {"time": 1258, "pitch": 62, "duration": 13, "velocity": 89}, {"time": 1264, "pitch": 55, "duration": 7, "velocity": 92}, {"time": 1270, "pitch": 40, "duration": 15, "velocity": 90}, {"time": 1276, "pitch": 47, "duration": 11, "velocity": 42}, {"time": 1282, "pitch": 52, "duration": 3, "velocity": 45}, {"time": 1282, "pitch": 59, "duration": 12, "velocity": 90}, {"time": 1282, "pitch": 64, "duration": 12, "velocity": 88}, {"time": 1288, "pitch": 40, "duration": 4, "velocity": 95}, {"time": 1294, "pitch": 45, "duration": 18, "velocity": 82}, {"time": 1300, "pitch": 52, "duration": 8, "velocity": 55}, {"time": 1306, "pitch": 60, "duration": 16, "velocity": 92}, {"time": 1306, "pitch": 64, "duration": 16, "velocity": 89}, {"time": 1309, "pitch": 52, "duration": 2, "velocity": 63}, {"time": 1312, "pitch": 57, "duration": 7, "velocity": 89}, {"time": 1318, "pitch": 41, "duration": 15, "velocity": 86}, {"time": 1324, "pitch": 48, "duration": 11, "velocity": 76}, {"time": 1330, "pitch": 57, "duration": 10, "velocity": 93}, {"time": 1330, "pitch": 60, "duration": 10, "velocity": 90}, {"time": 1336, "pitch": 41, "duration": 5, "velocity": 78}, {"time": 1342, "pitch": 43, "duration": 20, "velocity": 81}, {"time": 1348, "pitch": 50, "duration": 7, "velocity": 53}, {"time": 1354, "pitch": 59, "duration": 13, "velocity": 77}, {"time": 1354, "pitch": 62, "duration": 13, "velocity": 77}, {"time": 1357, "pitch": 50, "duration": 4, "velocity": 57}, {"time": 1360, "pitch": 55, "duration": 8, "velocity": 76}, {"time": 1366, "pitch": 48, "duration": 16, "velocity": 90}, {"time": 1372, "pitch": 55, "duration": 22, "velocity": 52}, {"time": 1378, "pitch": 60, "duration": 20, "velocity": 85}, {"time": 1378, "pitch": 64, "duration": 21, "velocity": 86}, {"time": 1384, "pitch": 48, "duration": 3, "velocity": 70}, {"time": 1390, "pitch": 48, "duration": 15, "velocity": 107}, {"time": 1396, "pitch": 55, "duration": 7, "velocity": 59}, {"time": 1402, "pitch": 60, "duration": 7, "velocity": 92}, {"time": 1402, "pitch": 64, "duration": 11, "velocity": 83}, {"time": 1405, "pitch": 47, "duration": 9, "velocity": 90}, {"time": 1408, "pitch": 59, "duration": 4, "velocity": 70}, {"time": 1411, "pitch": 60, "duration": 3, "velocity": 96}, {"time": 1414, "pitch": 41, "duration": 16, "velocity": 92}, {"time": 1420, "pitch": 48, "duration": 12, "velocity": 39}, {"time": 1420, "pitch": 57, "duration": 7, "velocity": 72}, {"time": 1426, "pitch": 53, "duration": 3, "velocity": 45}, {"time": 1426, "pitch": 60, "duration": 13, "velocity": 92}, {"time": 1426, "pitch": 65, "duration": 12, "velocity": 86}, {"time": 1432, "pitch": 41, "duration": 5, "velocity": 85}, {"time": 1438, "pitch": 43, "duration": 16, "velocity": 85}, {"time": 1444, "pitch": 50, "duration": 7, "velocity": 60}, {"time": 1450, "pitch": 59, "duration": 13, "velocity": 85}, {"time": 1450, "pitch": 62, "duration": 13, "velocity": 89}, {"time": 1456, "pitch": 55, "duration": 7, "velocity": 92}, {"time": 1462, "pitch": 40, "duration": 15, "velocity": 90}, {"time": 1468, "pitch": 47, "duration": 11, "velocity": 42}, {"time": 1474, "pitch": 52, "duration": 3, "velocity": 45}, {"time": 1474, "pitch": 59, "duration": 12, "velocity": 90}, {"time": 1474, "pitch": 64, "duration": 12, "velocity": 88}, {"time": 1480, "pitch": 40, "duration": 4, "velocity": 95}, {"time": 1486, "pitch": 45, "duration": 18, "velocity": 82}, {"time": 1492, "pitch": 52, "duration": 8, "velocity": 55}, {"time": 1498, "pitch": 60, "duration": 16, "velocity": 92}, {"time": 1498, "pitch": 64, "duration": 16, "velocity": 89}, {"time": 1501, "pitch": 52, "duration": 2, "velocity": 63}, {"time": 1504, "pitch": 57, "duration": 7, "velocity": 89}, {"time": 1510, "pitch": 41, "duration": 15, "velocity": 86}, {"time": 1516, "pitch": 48, "duration": 11, "velocity": 76}, {"time": 1522, "pitch": 57, "duration": 10, "velocity": 93}, {"time": 1522, "pitch": 60, "duration": 10, "velocity": 90}, {"time": 1528, "pitch": 41, "duration": 5, "velocity": 78}, {"time": 1534, "pitch": 43, "duration": 20, "velocity": 81}, {"time": 1540, "pitch": 50, "duration": 7, "velocity": 53}, {"time": 1546, "pitch": 59, "duration": 13, "velocity": 77}, {"time": 1546, "pitch": 62, "duration": 13, "velocity": 77}, {"time": 1549, "pitch": 50, "duration": 4, "velocity": 57}, {"time": 1552, "pitch": 55, "duration": 8, "velocity": 76}, {"time": 1558, "pitch": 48, "duration": 16, "velocity": 90}, {"time": 1564, "pitch": 55, "duration": 22, "velocity": 52}, {"time": 1570, "pitch": 60, "duration": 20, "velocity": 85}, {"time": 1570, "pitch": 64, "duration": 21, "velocity": 86}, {"time": 1576, "pitch": 48, "duration": 3, "velocity": 70}, {"time": 1582, "pitch": 48, "duration": 15, "velocity": 107}, {"time": 1588, "pitch": 55, "duration": 7, "velocity": 59}, {"time": 1594, "pitch": 60, "duration": 7, "velocity": 92}, {"time": 1594, "pitch": 64, "duration": 11, "velocity": 83}, {"time": 1597, "pitch": 47, "duration": 9, "velocity": 90}, {"time": 1600, "pitch": 59, "duration": 4, "velocity": 70}, {"time": 1603, "pitch": 60, "duration": 3, "velocity": 96}, {"time": 1606, "pitch": 41, "duration": 16, "velocity": 92}, {"time": 1612, "pitch": 48, "duration": 12, "velocity": 39}, {"time": 1612, "pitch": 57, "duration": 7, "velocity": 72}, {"time": 1618, "pitch": 53, "duration": 3, "velocity": 45}, {"time": 1618, "pitch": 60, "duration": 13, "velocity": 92}, {"time": 1618, "pitch": 65, "duration": 12, "velocity": 86}, {"time": 1624, "pitch": 41, "duration": 5, "velocity": 85}, {"time": 1630, "pitch": 43, "duration": 16, "velocity": 85}, {"time": 1636, "pitch": 50, "duration": 7, "velocity": 60}, {"time": 1642, "pitch": 59, "duration": 13, "velocity": 85}, {"time": 1642, "pitch": 62, "duration": 13, "velocity": 89}, {"time": 1648, "pitch": 55, "duration": 7, "velocity": 92}, {"time": 1654, "pitch": 40, "duration": 15, "velocity": 90}, {"time": 1660, "pitch": 47, "duration": 11, "velocity": 42}, {"time": 1666, "pitch": 52, "duration": 3, "velocity": 45}, {"time": 1666, "pitch": 59, "duration": 12, "velocity": 90}, {"time": 1666, "pitch": 64, "duration": 12, "velocity": 88}, {"time": 1672, "pitch": 40, "duration": 4, "velocity": 95}, {"time": 1678, "pitch": 45, "duration": 18, "velocity": 82}, {"time": 1684, "pitch": 52, "duration": 8, "velocity": 55}, {"time": 1690, "pitch": 60, "duration": 16, "velocity": 92}, {"time": 1690, "pitch": 64, "duration": 16, "velocity": 89}, {"time": 1693, "pitch": 52, "duration": 2, "velocity": 63}, {"time": 1696, "pitch": 57, "duration": 7, "velocity": 89}, {"time": 1702, "pitch": 41, "duration": 15, "velocity": 86}, {"time": 1708, "pitch": 48, "duration": 11, "velocity": 76}, {"time": 1714, "pitch": 57, "duration": 10, "velocity": 93}, {"time": 1714, "pitch": 60, "duration": 10, "velocity": 90}, {"time": 1720, "pitch": 41, "duration": 5, "velocity": 78}, {"time": 1726, "pitch": 43, "duration": 20, "velocity": 81}, {"time": 1732, "pitch": 50, "duration": 7, "velocity": 53}, {"time": 1738, "pitch": 59, "duration": 12, "velocity": 77}, {"time": 1738, "pitch": 62, "duration": 12, "velocity": 77}, {"time": 1741, "pitch": 50, "duration": 4, "velocity": 57}, {"time": 1744, "pitch": 55, "duration": 6, "velocity": 76}, {"time": 1750, "pitch": 36, "duration": 19, "velocity": 73}, {"time": 1750, "pitch": 55, "duration": 14, "velocity": 53}, {"time": 1750, "pitch": 60, "duration": 11, "velocity": 62}, {"time": 1750, "pitch": 64, "duration": 11, "velocity": 66}, {"time": 1756, "pitch": 43, "duration": 14, "velocity": 52}, {"time": 1762, "pitch": 60, "duration": 6, "velocity": 67}, {"time": 1762, "pitch": 64, "duration": 7, "velocity": 79}, {"time": 1765, "pitch": 48, "duration": 5, "velocity": 66}, {"time": 1768, "pitch": 55, "duration": 26, "velocity": 70}, {"time": 1774, "pitch": 36, "duration": 21, "velocity": 46}, {"time": 1774, "pitch": 48, "duration": 20, "velocity": 55}, {"time": 1774, "pitch": 60, "duration": 20, "velocity": 65}, {"time": 1774, "pitch": 64, "duration": 21, "velocity": 69}, {"time": 1798, "pitch": 41, "duration": 18, "velocity": 66}, {"time": 1804, "pitch": 48, "duration": 18, "velocity": 44}, {"time": 1810, "pitch": 53, "duration": 5, "velocity": 50}, {"time": 1810, "pitch": 60, "duration": 13, "velocity": 67}, {"time": 1816, "pitch": 57, "duration": 9, "velocity": 66}, {"time": 1822, "pitch": 43, "duration": 17, "velocity": 69}, {"time": 1828, "pitch": 50, "duration": 9, "velocity": 59}, {"time": 1834, "pitch": 59, "duration": 13, "velocity": 66}, {"time": 1834, "pitch": 62, "duration": 13, "velocity": 65}, {"time": 1840, "pitch": 55, "duration": 8, "velocity": 53}, {"time": 1846, "pitch": 40, "duration": 15, "velocity": 65}, {"time": 1852, "pitch": 47, "duration": 10, "velocity": 44}, {"time": 1858, "pitch": 52, "duration": 5, "velocity": 46}, {"time": 1858, "pitch": 59, "duration": 12, "velocity": 65}, {"time": 1858, "pitch": 64, "duration": 14, "velocity": 66}, {"time": 1864, "pitch": 55, "duration": 7, "velocity": 58}, {"time": 1870, "pitch": 45, "duration": 19, "velocity": 70}, {"time": 1876, "pitch": 52, "duration": 8, "velocity": 60}, {"time": 1882, "pitch": 60, "duration": 13, "velocity": 81}, {"time": 1882, "pitch": 64, "duration": 13, "velocity": 77}, {"time": 1885, "pitch": 52, "duration": 2, "velocity": 55}, {"time": 1888, "pitch": 57, "duration": 6, "velocity": 67}, {"time": 1894, "pitch": 41, "duration": 18, "velocity": 74}, {"time": 1900, "pitch": 48, "duration": 17, "velocity": 47}, {"time": 1906, "pitch": 53, "duration": 5, "velocity": 47}, {"time": 1906, "pitch": 57, "duration": 2, "velocity": 54}, {"time": 1906, "pitch": 60, "duration": 13, "velocity": 74}, {"time": 1912, "pitch": 57, "duration": 7, "velocity": 61}, {"time": 1918, "pitch": 43, "duration": 19, "velocity": 65}, {"time": 1924, "pitch": 50, "duration": 13, "velocity": 39}, {"time": 1930, "pitch": 59, "duration": 13, "velocity": 72}, {"time": 1930, "pitch": 62, "duration": 13, "velocity": 72}, {"time": 1936, "pitch": 55, "duration": 11, "velocity": 68}, {"time": 1942, "pitch": 48, "duration": 22, "velocity": 69}, {"time": 1948, "pitch": 55, "duration": 8, "velocity": 74}, {"time": 1954, "pitch": 60, "duration": 11, "velocity": 75}, {"time": 1954, "pitch": 64, "duration": 11, "velocity": 78}, {"time": 1960, "pitch": 55, "duration": 6, "velocity": 66}, {"time": 1966, "pitch": 48, "duration": 14, "velocity": 56}, {"time": 1966, "pitch": 55, "duration": 12, "velocity": 59}, {"time": 1966, "pitch": 60, "duration": 11, "velocity": 57}, {"time": 1966, "pitch": 64, "duration": 11, "velocity": 59}, {"time": 1978, "pitch": 60, "duration": 7, "velocity": 86}, {"time": 1978, "pitch": 64, "duration": 16, "velocity": 88}, {"time": 1981, "pitch": 48, "duration": 3, "velocity": 59}, {"time": 1984, "pitch": 55, "duration": 5, "velocity": 86}, {"time": 1987, "pitch": 60, "duration": 5, "velocity": 66}, {"time": 1990, "pitch": 41, "duration": 17, "velocity": 63}, {"time": 1996, "pitch": 48, "duration": 14, "velocity": 44}, {"time": 2002, "pitch": 53, "duration": 4, "velocity": 60}, {"time": 2002, "pitch": 60, "duration": 13, "velocity": 71}, {"time": 2002, "pitch": 65, "duration": 13, "velocity": 68}, {"time": 2008, "pitch": 57, "duration": 7, "velocity": 63}, {"time": 2014, "pitch": 43, "duration": 14, "velocity": 62}, {"time": 2020, "pitch": 50, "duration": 7, "velocity": 40}, {"time": 2026, "pitch": 59, "duration": 13, "velocity": 70}, {"time": 2026, "pitch": 62, "duration": 12, "velocity": 69}, {"time": 2038, "pitch": 40, "duration": 20, "velocity": 70}, {"time": 2044, "pitch": 47, "duration": 16, "velocity": 38}, {"time": 2047, "pitch": 64, "duration": 16, "velocity": 92}, {"time": 2053, "pitch": 52, "duration": 4, "velocity": 44}, {"time": 2056, "pitch": 59, "duration": 6, "velocity": 60}, {"time": 2059, "pitch": 55, "duration": 3, "velocity": 66}, {"time": 2062, "pitch": 45, "duration": 19, "velocity": 66}, {"time": 2068, "pitch": 52, "duration": 8, "velocity": 58}, {"time": 2071, "pitch": 64, "duration": 17, "velocity": 95}, {"time": 2077, "pitch": 52, "duration": 3, "velocity": 42}, {"time": 2080, "pitch": 60, "duration": 7, "velocity": 66}, {"time": 2083, "pitch": 57, "duration": 4, "velocity": 68}, {"time": 2086, "pitch": 41, "duration": 18, "velocity": 62}, {"time": 2092, "pitch": 48, "duration": 19, "velocity": 40}, {"time": 2095, "pitch": 60, "duration": 16, "velocity": 70}, {"time": 2104, "pitch": 57, "duration": 7, "velocity": 63}, {"time": 2110, "pitch": 43, "duration": 73, "velocity": 66}, {"time": 2116, "pitch": 50, "duration": 66, "velocity": 49}, {"time": 2125, "pitch": 55, "duration": 60, "velocity": 44}, {"time": 2125, "pitch": 59, "duration": 60, "velocity": 55}, {"time": 2125, "pitch": 62, "duration": 60, "velocity": 56}, {"time": 2224, "pitch": 41, "duration": 18, "velocity": 86}, {"time": 2230, "pitch": 48, "duration": 18, "velocity": 42}, {"time": 2233, "pitch": 53, "duration": 4, "velocity": 59}, {"time": 2235, "pitch": 57, "duration": 7, "velocity": 75}, {"time": 2238, "pitch": 53, "duration": 3, "velocity": 56}, {"time": 2242, "pitch": 60, "duration": 6, "velocity": 67}, {"time": 2244, "pitch": 57, "duration": 4, "velocity": 69}, {"time": 2248, "pitch": 43, "duration": 18, "velocity": 63}, {"time": 2253, "pitch": 50, "duration": 8, "velocity": 58}, {"time": 2260, "pitch": 59, "duration": 7, "velocity": 79}, {"time": 2263, "pitch": 50, "duration": 2, "velocity": 54}, {"time": 2266, "pitch": 55, "duration": 6, "velocity": 66}, {"time": 2269, "pitch": 59, "duration": 3, "velocity": 64}, {"time": 2272, "pitch": 40, "duration": 17, "velocity": 73}, {"time": 2277, "pitch": 47, "duration": 13, "velocity": 37}, {"time": 2280, "pitch": 64, "duration": 16, "velocity": 78}, {"time": 2286, "pitch": 52, "duration": 4, "velocity": 44}, {"time": 2289, "pitch": 59, "duration": 6, "velocity": 68}, {"time": 2292, "pitch": 55, "duration": 3, "velocity": 69}, {"time": 2295, "pitch": 45, "duration": 19, "velocity": 68}, {"time": 2301, "pitch": 52, "duration": 8, "velocity": 47}, {"time": 2304, "pitch": 60, "duration": 4, "velocity": 61}, {"time": 2308, "pitch": 64, "duration": 12, "velocity": 92}, {"time": 2311, "pitch": 52, "duration": 2, "velocity": 55}, {"time": 2314, "pitch": 60, "duration": 6, "velocity": 76}, {"time": 2317, "pitch": 57, "duration": 3, "velocity": 74}, {"time": 2320, "pitch": 41, "duration": 18, "velocity": 74}, {"time": 2326, "pitch": 48, "duration": 17, "velocity": 33}, {"time": 2329, "pitch": 57, "duration": 4, "velocity": 77}, {"time": 2332, "pitch": 60, "duration": 7, "velocity": 78}, {"time": 2335, "pitch": 53, "duration": 3, "velocity": 55}, {"time": 2338, "pitch": 57, "duration": 5, "velocity": 79}, {"time": 2341, "pitch": 60, "duration": 4, "velocity": 65}, {"time": 2344, "pitch": 43, "duration": 23, "velocity": 68}, {"time": 2350, "pitch": 50, "duration": 17, "velocity": 44}, {"time": 2354, "pitch": 55, "duration": 4, "velocity": 50}, {"time": 2357, "pitch": 59, "duration": 15, "velocity": 85}, {"time": 2365, "pitch": 55, "duration": 10, "velocity": 67}, {"time": 2378, "pitch": 45, "duration": 54, "velocity": 69}, {"time": 2382, "pitch": 52, "duration": 49, "velocity": 49}, {"time": 2387, "pitch": 57, "duration": 44, "velocity": 63}, {"time": 2392, "pitch": 60, "duration": 39, "velocity": 50}, {"time": 2398, "pitch": 64, "duration": 33, "velocity": 57}, {"time": 2403, "pitch": 69, "duration": 28, "velocity": 66}], "annotations": [{"time": 70, "annotation": {"number": 64, "value": 127}, "group": "control_change"}, {"time": 92, "annotation": {"number": 64, "value": 0}, "group": "control_change"}, {"time": 94, "annotation": {"number": 64, "value": 127}, "group": "control_change"}, {"time": 95, "annotation": {"number": 64, "value": 127}, "group": "control_change"}, {"time": 116, "annotation": {"number": 64, "value": 0}, "group": "control_change"}, {"time": 118, "annotation": {"number": 64, "value": 127}, "group": "control_change"}, {"time": 140, "annotation": {"number": 64, "value": 0}, "group": "control_change"}, {"time": 142, "annotation": {"number": 64, "value": 127}, "group": "control_change"}, {"time": 164, "annotation": {"number": 64, "value": 0}, "group": "control_change"}, {"time": 166, "annotation": {"number": 64, "value": 127}, "group": "control_change"}, {"time": 188, "annotation": {"number": 64, "value": 0}, "group": "control_change"}, {"time": 191, "annotation": {"number": 64, "value": 127}, "group": "control_change"}, {"time": 211, "annotation": {"number": 64, "value": 0}, "group": "control_change"}, {"time": 214, "annotation": {"number": 64, "value": 127}, "group": "control_change"}, {"time": 237, "annotation": {"number": 64, "value": 0}, "group": "control_change"}, {"time": 263, "annotation": {"number": 64, "value": 127}, "group": "control_change"}, {"time": 284, "annotation": {"number": 64, "value": 0}, "group": "control_change"}, {"time": 286, "annotation": {"number": 64, "value": 127}, "group": "control_change"}, {"time": 309, "annotation": {"number": 64, "value": 0}, "group": "control_change"}, {"time": 311, "annotation": {"number": 64, "value": 127}, "group": "control_change"}, {"time": 332, "annotation": {"number": 64, "value": 0}, "group": "control_change"}, {"time": 334, "annotation": {"number": 64, "value": 127}, "group": "control_change"}, {"time": 335, "annotation": {"number": 64, "value": 127}, "group": "control_change"}, {"time": 357, "annotation": {"number": 64, "value": 0}, "group": "control_change"}, {"time": 359, "annotation": {"number": 64, "value": 127}, "group": "control_change"}, {"time": 380, "annotation": {"number": 64, "value": 0}, "group": "control_change"}, {"time": 383, "annotation": {"number": 64, "value": 127}, "group": "control_change"}, {"time": 403, "annotation": {"number": 64, "value": 0}, "group": "control_change"}, {"time": 406, "annotation": {"number": 64, "value": 127}, "group": "control_change"}, {"time": 428, "annotation": {"number": 64, "value": 0}, "group": "control_change"}, {"time": 431, "annotation": {"number": 64, "value": 127}, "group": "control_change"}, {"time": 452, "annotation": {"number": 64, "value": 0}, "group": "control_change"}, {"time": 455, "annotation": {"number": 64, "value": 127}, "group": "control_change"}, {"time": 477, "annotation": {"number": 64, "value": 0}, "group": "control_change"}, {"time": 479, "annotation": {"number": 64, "value": 127}, "group": "control_change"}, {"time": 501, "annotation": {"number": 64, "value": 0}, "group": "control_change"}, {"time": 503, "annotation": {"number": 64, "value": 127}, "group": "control_change"}, {"time": 525, "annotation": {"number": 64, "value": 0}, "group": "control_change"}, {"time": 527, "annotation": {"number": 64, "value": 127}, "group": "control_change"}, {"time": 549, "annotation": {"number": 64, "value": 0}, "group": "control_change"}, {"time": 551, "annotation": {"number": 64, "value": 127}, "group": "control_change"}, {"time": 572, "annotation": {"number": 64, "value": 0}, "group": "control_change"}, {"time": 574, "annotation": {"number": 64, "value": 127}, "group": "control_change"}, {"time": 596, "annotation": {"number": 64, "value": 0}, "group": "control_change"}, {"time": 598, "annotation": {"number": 64, "value": 127}, "group": "control_change"}, {"time": 619, "annotation": {"number": 64, "value": 0}, "group": "control_change"}, {"time": 622, "annotation": {"number": 64, "value": 127}, "group": "control_change"}, {"time": 622, "annotation": {"number": 64, "value": 0}, "group": "control_change"}, {"time": 644, "annotation": {"number": 64, "value": 0}, "group": "control_change"}, {"time": 646, "annotation": {"number": 64, "value": 127}, "group": "control_change"}, {"time": 647, "annotation": {"number": 64, "value": 127}, "group": "control_change"}, {"time": 668, "annotation": {"number": 64, "value": 0}, "group": "control_change"}, {"time": 670, "annotation": {"number": 64, "value": 127}, "group": "control_change"}, {"time": 693, "annotation": {"number": 64, "value": 0}, "group": "control_change"}, {"time": 695, "annotation": {"number": 64, "value": 127}, "group": "control_change"}, {"time": 716, "annotation": {"number": 64, "value": 0}, "group": "control_change"}, {"time": 718, "annotation": {"number": 64, "value": 127}, "group": "control_change"}, {"time": 719, "annotation": {"number": 64, "value": 127}, "group": "control_change"}, {"time": 741, "annotation": {"number": 64, "value": 0}, "group": "control_change"}, {"time": 743, "annotation": {"number": 64, "value": 127}, "group": "control_change"}, {"time": 764, "annotation": {"number": 64, "value": 0}, "group": "control_change"}, {"time": 767, "annotation": {"number": 64, "value": 127}, "group": "control_change"}, {"time": 787, "annotation": {"number": 64, "value": 0}, "group": "control_change"}, {"time": 790, "annotation": {"number": 64, "value": 127}, "group": "control_change"}, {"time": 812, "annotation": {"number": 64, "value": 0}, "group": "control_change"}, {"time": 815, "annotation": {"number": 64, "value": 127}, "group": "control_change"}, {"time": 836, "annotation": {"number": 64, "value": 0}, "group": "control_change"}, {"time": 839, "annotation": {"number": 64, "value": 127}, "group": "control_change"}, {"time": 861, "annotation": {"number": 64, "value": 0}, "group": "control_change"}, {"time": 863, "annotation": {"number": 64, "value": 127}, "group": "control_change"}, {"time": 885, "annotation": {"number": 64, "value": 0}, "group": "control_change"}, {"time": 887, "annotation": {"number": 64, "value": 127}, "group": "control_change"}, {"time": 909, "annotation": {"number": 64, "value": 0}, "group": "control_change"}, {"time": 911, "annotation": {"number": 64, "value": 127}, "group": "control_change"}, {"time": 933, "annotation": {"number": 64, "value": 0}, "group": "control_change"}, {"time": 935, "annotation": {"number": 64, "value": 127}, "group": "control_change"}, {"time": 956, "annotation": {"number": 64, "value": 0}, "group": "control_change"}, {"time": 958, "annotation": {"number": 64, "value": 127}, "group": "control_change"}, {"time": 980, "annotation": {"number": 64, "value": 0}, "group": "control_change"}, {"time": 982, "annotation": {"number": 64, "value": 127}, "group": "control_change"}, {"time": 1003, "annotation": {"number": 64, "value": 0}, "group": "control_change"}, {"time": 1006, "annotation": {"number": 64, "value": 127}, "group": "control_change"}, {"time": 1006, "annotation": {"number": 64, "value": 0}, "group": "control_change"}, {"time": 1028, "annotation": {"number": 64, "value": 0}, "group": "control_change"}, {"time": 1030, "annotation": {"number": 64, "value": 127}, "group": "control_change"}, {"time": 1031, "annotation": {"number": 64, "value": 127}, "group": "control_change"}, {"time": 1045, "annotation": {"number": 64, "value": 0}, "group": "control_change"}, {"time": 1049, "annotation": {"number": 64, "value": 127}, "group": "control_change"}, {"time": 1053, "annotation": {"number": 64, "value": 0}, "group": "control_change"}, {"time": 1055, "annotation": {"number": 64, "value": 127}, "group": "control_change"}, {"time": 1076, "annotation": {"number": 64, "value": 0}, "group": "control_change"}, {"time": 1079, "annotation": {"number": 64, "value": 127}, "group": "control_change"}, {"time": 1093, "annotation": {"number": 64, "value": 0}, "group": "control_change"}, {"time": 1096, "annotation": {"number": 64, "value": 127}, "group": "control_change"}, {"time": 1100, "annotation": {"number": 64, "value": 0}, "group": "control_change"}, {"time": 1103, "annotation": {"number": 64, "value": 127}, "group": "control_change"}, {"time": 1125, "annotation": {"number": 64, "value": 0}, "group": "control_change"}, {"time": 1127, "annotation": {"number": 64, "value": 127}, "group": "control_change"}, {"time": 1142, "annotation": {"number": 64, "value": 0}, "group": "control_change"}, {"time": 1144, "annotation": {"number": 64, "value": 127}, "group": "control_change"}, {"time": 1148, "annotation": {"number": 64, "value": 0}, "group": "control_change"}, {"time": 1150, "annotation": {"number": 64, "value": 127}, "group": "control_change"}, {"time": 1171, "annotation": {"number": 64, "value": 0}, "group": "control_change"}, {"time": 1172, "annotation": {"number": 64, "value": 0}, "group": "control_change"}, {"time": 1174, "annotation": {"number": 64, "value": 127}, "group": "control_change"}, {"time": 1190, "annotation": {"number": 64, "value": 0}, "group": "control_change"}, {"time": 1193, "annotation": {"number": 64, "value": 127}, "group": "control_change"}, {"time": 1193, "annotation": {"number": 64, "value": 0}, "group": "control_change"}, {"time": 1197, "annotation": {"number": 64, "value": 0}, "group": "control_change"}, {"time": 1199, "annotation": {"number": 64, "value": 127}, "group": "control_change"}, {"time": 1221, "annotation": {"number": 64, "value": 0}, "group": "control_change"}, {"time": 1223, "annotation": {"number": 64, "value": 127}, "group": "control_change"}, {"time": 1237, "annotation": {"number": 64, "value": 0}, "group": "control_change"}, {"time": 1241, "annotation": {"number": 64, "value": 127}, "group": "control_change"}, {"time": 1245, "annotation": {"number": 64, "value": 0}, "group": "control_change"}, {"time": 1247, "annotation": {"number": 64, "value": 127}, "group": "control_change"}, {"time": 1268, "annotation": {"number": 64, "value": 0}, "group": "control_change"}, {"time": 1271, "annotation": {"number": 64, "value": 127}, "group": "control_change"}, {"time": 1285, "annotation": {"number": 64, "value": 0}, "group": "control_change"}, {"time": 1288, "annotation": {"number": 64, "value": 127}, "group": "control_change"}, {"time": 1292, "annotation": {"number": 64, "value": 0}, "group": "control_change"}, {"time": 1295, "annotation": {"number": 64, "value": 127}, "group": "control_change"}, {"time": 1317, "annotation": {"number": 64, "value": 0}, "group": "control_change"}, {"time": 1319, "annotation": {"number": 64, "value": 127}, "group": "control_change"}, {"time": 1334, "annotation": {"number": 64, "value": 0}, "group": "control_change"}, {"time": 1336, "annotation": {"number": 64, "value": 127}, "group": "control_change"}, {"time": 1340, "annotation": {"number": 64, "value": 0}, "group": "control_change"}, {"time": 1342, "annotation": {"number": 64, "value": 127}, "group": "control_change"}, {"time": 1363, "annotation": {"number": 64, "value": 0}, "group": "control_change"}, {"time": 1364, "annotation": {"number": 64, "value": 0}, "group": "control_change"}, {"time": 1366, "annotation": {"number": 64, "value": 127}, "group": "control_change"}, {"time": 1382, "annotation": {"number": 64, "value": 0}, "group": "control_change"}, {"time": 1385, "annotation": {"number": 64, "value": 127}, "group": "control_change"}, {"time": 1385, "annotation": {"number": 64, "value": 0}, "group": "control_change"}, {"time": 1389, "annotation": {"number": 64, "value": 0}, "group": "control_change"}, {"time": 1391, "annotation": {"number": 64, "value": 127}, "group": "control_change"}, {"time": 1413, "annotation": {"number": 64, "value": 0}, "group": "control_change"}, {"time": 1415, "annotation": {"number": 64, "value": 127}, "group": "control_change"}, {"time": 1429, "annotation": {"number": 64, "value": 0}, "group": "control_change"}, {"time": 1433, "annotation": {"number": 64, "value": 127}, "group": "control_change"}, {"time": 1437, "annotation": {"number": 64, "value": 0}, "group": "control_change"}, {"time": 1439, "annotation": {"number": 64, "value": 127}, "group": "control_change"}, {"time": 1460, "annotation": {"number": 64, "value": 0}, "group": "control_change"}, {"time": 1463, "annotation": {"number": 64, "value": 127}, "group": "control_change"}, {"time": 1477, "annotation": {"number": 64, "value": 0}, "group": "control_change"}, {"time": 1480, "annotation": {"number": 64, "value": 127}, "group": "control_change"}, {"time": 1484, "annotation": {"number": 64, "value": 0}, "group": "control_change"}, {"time": 1487, "annotation": {"number": 64, "value": 127}, "group": "control_change"}, {"time": 1509, "annotation": {"number": 64, "value": 0}, "group": "control_change"}, {"time": 1511, "annotation": {"number": 64, "value": 127}, "group": "control_change"}, {"time": 1526, "annotation": {"number": 64, "value": 0}, "group": "control_change"}, {"time": 1528, "annotation": {"number": 64, "value": 127}, "group": "control_change"}, {"time": 1532, "annotation": {"number": 64, "value": 0}, "group": "control_change"}, {"time": 1534, "annotation": {"number": 64, "value": 127}, "group": "control_change"}, {"time": 1555, "annotation": {"number": 64, "value": 0}, "group": "control_change"}, {"time": 1556, "annotation": {"number": 64, "value": 0}, "group": "control_change"}, {"time": 1558, "annotation": {"number": 64, "value": 127}, "group": "control_change"}, {"time": 1574, "annotation": {"number": 64, "value": 0}, "group": "control_change"}, {"time": 1577, "annotation": {"number": 64, "value": 127}, "group": "control_change"}, {"time": 1577, "annotation": {"number": 64, "value": 0}, "group": "control_change"}, {"time": 1581, "annotation": {"number": 64, "value": 0}, "group": "control_change"}, {"time": 1583, "annotation": {"number": 64, "value": 127}, "group": "control_change"}, {"time": 1605, "annotation": {"number": 64, "value": 0}, "group": "control_change"}, {"time": 1607, "annotation": {"number": 64, "value": 127}, "group": "control_change"}, {"time": 1621, "annotation": {"number": 64, "value": 0}, "group": "control_change"}, {"time": 1625, "annotation": {"number": 64, "value": 127}, "group": "control_change"}, {"time": 1629, "annotation": {"number": 64, "value": 0}, "group": "control_change"}, {"time": 1631, "annotation": {"number": 64, "value": 127}, "group": "control_change"}, {"time": 1652, "annotation": {"number": 64, "value": 0}, "group": "control_change"}, {"time": 1655, "annotation": {"number": 64, "value": 127}, "group": "control_change"}, {"time": 1669, "annotation": {"number": 64, "value": 0}, "group": "control_change"}, {"time": 1672, "annotation": {"number": 64, "value": 127}, "group": "control_change"}, {"time": 1676, "annotation": {"number": 64, "value": 0}, "group": "control_change"}, {"time": 1679, "annotation": {"number": 64, "value": 127}, "group": "control_change"}, {"time": 1701, "annotation": {"number": 64, "value": 0}, "group": "control_change"}, {"time": 1703, "annotation": {"number": 64, "value": 127}, "group": "control_change"}, {"time": 1718, "annotation": {"number": 64, "value": 0}, "group": "control_change"}, {"time": 1720, "annotation": {"number": 64, "value": 127}, "group": "control_change"}, {"time": 1724, "annotation": {"number": 64, "value": 0}, "group": "control_change"}, {"time": 1726, "annotation": {"number": 64, "value": 127}, "group": "control_change"}, {"time": 1747, "annotation": {"number": 64, "value": 0}, "group": "control_change"}, {"time": 1748, "annotation": {"number": 64, "value": 0}, "group": "control_change"}, {"time": 1750, "annotation": {"number": 64, "value": 127}, "group": "control_change"}, {"time": 1751, "annotation": {"number": 64, "value": 127}, "group": "control_change"}, {"time": 1773, "annotation": {"number": 64, "value": 0}, "group": "control_change"}, {"time": 1798, "annotation": {"number": 64, "value": 127}, "group": "control_change"}, {"time": 1831, "annotation": {"number": 64, "value": 0}, "group": "control_change"}, {"time": 1834, "annotation": {"number": 64, "value": 127}, "group": "control_change"}, {"time": 1844, "annotation": {"number": 64, "value": 0}, "group": "control_change"}, {"time": 1846, "annotation": {"number": 64, "value": 127}, "group": "control_change"}, {"time": 1867, "annotation": {"number": 64, "value": 0}, "group": "control_change"}, {"time": 1871, "annotation": {"number": 64, "value": 127}, "group": "control_change"}, {"time": 1891, "annotation": {"number": 64, "value": 0}, "group": "control_change"}, {"time": 1894, "annotation": {"number": 64, "value": 127}, "group": "control_change"}, {"time": 1895, "annotation": {"number": 64, "value": 127}, "group": "control_change"}, {"time": 1914, "annotation": {"number": 64, "value": 0}, "group": "control_change"}, {"time": 1918, "annotation": {"number": 64, "value": 127}, "group": "control_change"}, {"time": 1939, "annotation": {"number": 64, "value": 0}, "group": "control_change"}, {"time": 1942, "annotation": {"number": 64, "value": 127}, "group": "control_change"}, {"time": 1942, "annotation": {"number": 64, "value": 0}, "group": "control_change"}, {"time": 1965, "annotation": {"number": 64, "value": 0}, "group": "control_change"}, {"time": 1966, "annotation": {"number": 64, "value": 127}, "group": "control_change"}, {"time": 1966, "annotation": {"number": 64, "value": 0}, "group": "control_change"}, {"time": 1987, "annotation": {"number": 64, "value": 0}, "group": "control_change"}, {"time": 1990, "annotation": {"number": 64, "value": 127}, "group": "control_change"}, {"time": 2010, "annotation": {"number": 64, "value": 0}, "group": "control_change"}, {"time": 2011, "annotation": {"number": 64, "value": 0}, "group": "control_change"}, {"time": 2014, "annotation": {"number": 64, "value": 127}, "group": "control_change"}, {"time": 2035, "annotation": {"number": 64, "value": 0}, "group": "control_change"}, {"time": 2038, "annotation": {"number": 64, "value": 127}, "group": "control_change"}, {"time": 2060, "annotation": {"number": 64, "value": 0}, "group": "control_change"}, {"time": 2063, "annotation": {"number": 64, "value": 127}, "group": "control_change"}, {"time": 2084, "annotation": {"number": 64, "value": 0}, "group": "control_change"}, {"time": 2085, "annotation": {"number": 64, "value": 0}, "group": "control_change"}, {"time": 2087, "annotation": {"number": 64, "value": 127}, "group": "control_change"}, {"time": 2108, "annotation": {"number": 64, "value": 0}, "group": "control_change"}, {"time": 2112, "annotation": {"number": 64, "value": 127}, "group": "control_change"}, {"time": 2183, "annotation": {"number": 64, "value": 0}, "group": "control_change"}, {"time": 2226, "annotation": {"number": 64, "value": 127}, "group": "control_change"}, {"time": 2246, "annotation": {"number": 64, "value": 0}, "group": "control_change"}, {"time": 2248, "annotation": {"number": 64, "value": 127}, "group": "control_change"}, {"time": 2248, "annotation": {"number": 64, "value": 0}, "group": "control_change"}, {"time": 2270, "annotation": {"number": 64, "value": 0}, "group": "control_change"}, {"time": 2272, "annotation": {"number": 64, "value": 127}, "group": "control_change"}, {"time": 2292, "annotation": {"number": 64, "value": 0}, "group": "control_change"}, {"time": 2293, "annotation": {"number": 64, "value": 0}, "group": "control_change"}, {"time": 2295, "annotation": {"number": 64, "value": 127}, "group": "control_change"}, {"time": 2296, "annotation": {"number": 64, "value": 127}, "group": "control_change"}, {"time": 2296, "annotation": {"number": 64, "value": 0}, "group": "control_change"}, {"time": 2317, "annotation": {"number": 64, "value": 0}, "group": "control_change"}, {"time": 2320, "annotation": {"number": 64, "value": 127}, "group": "control_change"}, {"time": 2341, "annotation": {"number": 64, "value": 0}, "group": "control_change"}, {"time": 2344, "annotation": {"number": 64, "value": 127}, "group": "control_change"}, {"time": 2421, "annotation": {"number": 64, "value": 0}, "group": "control_change"}, {"time": 2425, "annotation": {"number": 64, "value": 127}, "group": "control_change"}, {"time": 2430, "annotation": {"number": 64, "value": 0}, "group": "control_change"}]}]}