{"metadata": {"schema_version": "0.2", "title": "None", "source_filename": "485.mid", "source_format": "midi"}, "resolution": 12, "tempos": [{"time": 0, "qpm": 50.499992004167936}, {"time": 120, "qpm": 50.0}, {"time": 132, "qpm": 44.000011733336464}, {"time": 156, "qpm": 50.0}, {"time": 168, "qpm": 58.00004253336452}, {"time": 192, "qpm": 50.599989374002234}, {"time": 252, "qpm": 52.000006933334255}, {"time": 276, "qpm": 50.99998215000625}, {"time": 432, "qpm": 48.0}, {"time": 444, "qpm": 45.000011250002814}, {"time": 456, "qpm": 45.99999386666749}, {"time": 468, "qpm": 36.00001440000576}, {"time": 480, "qpm": 50.0}, {"time": 492, "qpm": 50.99998215000625}, {"time": 750, "qpm": 68.20010821083837}, {"time": 1116, "qpm": 68.1000980641412}], "time_signatures": [{"time": 0, "numerator": 1, "denominator": 4}], "tracks": [{"program": 4, "is_drum": false, "name": "MELODY", "notes": [{"time": 157, "pitch": 71, "duration": 6, "velocity": 86}, {"time": 163, "pitch": 69, "duration": 5, "velocity": 63}, {"time": 168, "pitch": 67, "duration": 5, "velocity": 59}, {"time": 172, "pitch": 71, "duration": 27, "velocity": 72}, {"time": 204, "pitch": 71, "duration": 4, "velocity": 89}, {"time": 208, "pitch": 69, "duration": 4, "velocity": 73}, {"time": 213, "pitch": 67, "duration": 5, "velocity": 69}, {"time": 218, "pitch": 66, "duration": 23, "velocity": 61}, {"time": 243, "pitch": 67, "duration": 2, "velocity": 71}, {"time": 247, "pitch": 64, "duration": 14, "velocity": 73}, {"time": 260, "pitch": 76, "duration": 2, "velocity": 75}, {"time": 265, "pitch": 76, "duration": 8, "velocity": 76}, {"time": 277, "pitch": 76, "duration": 1, "velocity": 77}, {"time": 282, "pitch": 74, "duration": 3, "velocity": 77}, {"time": 285, "pitch": 71, "duration": 5, "velocity": 53}, {"time": 290, "pitch": 74, "duration": 16, "velocity": 63}, {"time": 311, "pitch": 74, "duration": 3, "velocity": 79}, {"time": 314, "pitch": 78, "duration": 4, "velocity": 77}, {"time": 317, "pitch": 79, "duration": 6, "velocity": 78}, {"time": 323, "pitch": 72, "duration": 13, "velocity": 74}, {"time": 345, "pitch": 71, "duration": 3, "velocity": 71}, {"time": 348, "pitch": 76, "duration": 5, "velocity": 67}, {"time": 352, "pitch": 78, "duration": 6, "velocity": 77}, {"time": 358, "pitch": 74, "duration": 22, "velocity": 67}, {"time": 381, "pitch": 74, "duration": 3, "velocity": 72}, {"time": 384, "pitch": 72, "duration": 3, "velocity": 74}, {"time": 387, "pitch": 71, "duration": 4, "velocity": 70}, {"time": 390, "pitch": 76, "duration": 18, "velocity": 74}, {"time": 418, "pitch": 76, "duration": 4, "velocity": 79}, {"time": 422, "pitch": 74, "duration": 4, "velocity": 74}, {"time": 427, "pitch": 72, "duration": 2, "velocity": 73}, {"time": 431, "pitch": 71, "duration": 11, "velocity": 69}, {"time": 446, "pitch": 69, "duration": 8, "velocity": 78}, {"time": 453, "pitch": 71, "duration": 3, "velocity": 76}, {"time": 456, "pitch": 69, "duration": 2, "velocity": 58}, {"time": 458, "pitch": 67, "duration": 3, "velocity": 61}, {"time": 461, "pitch": 71, "duration": 16, "velocity": 63}, {"time": 490, "pitch": 71, "duration": 3, "velocity": 75}, {"time": 493, "pitch": 69, "duration": 3, "velocity": 74}, {"time": 496, "pitch": 67, "duration": 6, "velocity": 68}, {"time": 501, "pitch": 66, "duration": 17, "velocity": 66}, {"time": 527, "pitch": 66, "duration": 4, "velocity": 66}, {"time": 532, "pitch": 67, "duration": 3, "velocity": 59}, {"time": 536, "pitch": 67, "duration": 5, "velocity": 69}, {"time": 541, "pitch": 64, "duration": 10, "velocity": 71}, {"time": 551, "pitch": 76, "duration": 3, "velocity": 73}, {"time": 555, "pitch": 76, "duration": 4, "velocity": 79}, {"time": 564, "pitch": 76, "duration": 3, "velocity": 76}, {"time": 569, "pitch": 74, "duration": 3, "velocity": 74}, {"time": 572, "pitch": 71, "duration": 4, "velocity": 63}, {"time": 576, "pitch": 74, "duration": 17, "velocity": 60}, {"time": 597, "pitch": 74, "duration": 4, "velocity": 69}, {"time": 600, "pitch": 78, "duration": 4, "velocity": 88}, {"time": 603, "pitch": 79, "duration": 5, "velocity": 62}, {"time": 609, "pitch": 72, "duration": 13, "velocity": 74}, {"time": 633, "pitch": 69, "duration": 3, "velocity": 79}, {"time": 636, "pitch": 76, "duration": 3, "velocity": 74}, {"time": 639, "pitch": 78, "duration": 5, "velocity": 95}, {"time": 645, "pitch": 74, "duration": 8, "velocity": 73}, {"time": 656, "pitch": 81, "duration": 3, "velocity": 77}, {"time": 659, "pitch": 79, "duration": 9, "velocity": 72}, {"time": 669, "pitch": 76, "duration": 3, "velocity": 71}, {"time": 672, "pitch": 78, "duration": 3, "velocity": 65}, {"time": 675, "pitch": 79, "duration": 1, "velocity": 71}, {"time": 678, "pitch": 79, "duration": 5, "velocity": 82}, {"time": 693, "pitch": 72, "duration": 1, "velocity": 72}, {"time": 696, "pitch": 72, "duration": 7, "velocity": 77}, {"time": 705, "pitch": 76, "duration": 3, "velocity": 72}, {"time": 708, "pitch": 78, "duration": 4, "velocity": 79}, {"time": 713, "pitch": 79, "duration": 2, "velocity": 89}, {"time": 717, "pitch": 81, "duration": 21, "velocity": 90}, {"time": 741, "pitch": 74, "duration": 5, "velocity": 92}, {"time": 750, "pitch": 83, "duration": 11, "velocity": 88}, {"time": 768, "pitch": 76, "duration": 2, "velocity": 88}, {"time": 774, "pitch": 76, "duration": 9, "velocity": 95}, {"time": 786, "pitch": 76, "duration": 3, "velocity": 85}, {"time": 790, "pitch": 78, "duration": 3, "velocity": 88}, {"time": 794, "pitch": 79, "duration": 2, "velocity": 66}, {"time": 798, "pitch": 81, "duration": 5, "velocity": 89}, {"time": 803, "pitch": 83, "duration": 6, "velocity": 86}, {"time": 810, "pitch": 81, "duration": 4, "velocity": 89}, {"time": 816, "pitch": 74, "duration": 3, "velocity": 79}, {"time": 819, "pitch": 79, "duration": 16, "velocity": 79}, {"time": 840, "pitch": 76, "duration": 2, "velocity": 86}, {"time": 843, "pitch": 78, "duration": 3, "velocity": 79}, {"time": 846, "pitch": 79, "duration": 11, "velocity": 90}, {"time": 863, "pitch": 72, "duration": 4, "velocity": 85}, {"time": 870, "pitch": 72, "duration": 7, "velocity": 89}, {"time": 882, "pitch": 79, "duration": 3, "velocity": 92}, {"time": 886, "pitch": 78, "duration": 4, "velocity": 83}, {"time": 890, "pitch": 76, "duration": 2, "velocity": 67}, {"time": 894, "pitch": 76, "duration": 12, "velocity": 83}, {"time": 906, "pitch": 74, "duration": 10, "velocity": 82}, {"time": 918, "pitch": 84, "duration": 9, "velocity": 107}, {"time": 930, "pitch": 83, "duration": 4, "velocity": 97}, {"time": 936, "pitch": 86, "duration": 3, "velocity": 112}, {"time": 942, "pitch": 83, "duration": 8, "velocity": 107}, {"time": 948, "pitch": 76, "duration": 2, "velocity": 85}, {"time": 951, "pitch": 76, "duration": 8, "velocity": 95}, {"time": 978, "pitch": 83, "duration": 2, "velocity": 100}, {"time": 982, "pitch": 81, "duration": 3, "velocity": 90}, {"time": 986, "pitch": 79, "duration": 3, "velocity": 74}, {"time": 990, "pitch": 81, "duration": 5, "velocity": 95}, {"time": 996, "pitch": 74, "duration": 1, "velocity": 96}, {"time": 999, "pitch": 74, "duration": 9, "velocity": 99}, {"time": 1008, "pitch": 81, "duration": 5, "velocity": 102}, {"time": 1014, "pitch": 79, "duration": 9, "velocity": 99}, {"time": 1030, "pitch": 76, "duration": 2, "velocity": 102}, {"time": 1035, "pitch": 78, "duration": 2, "velocity": 96}, {"time": 1038, "pitch": 79, "duration": 8, "velocity": 96}, {"time": 1079, "pitch": 76, "duration": 2, "velocity": 92}, {"time": 1083, "pitch": 78, "duration": 3, "velocity": 92}, {"time": 1089, "pitch": 79, "duration": 13, "velocity": 85}, {"time": 1506, "pitch": 71, "duration": 5, "velocity": 82}, {"time": 1510, "pitch": 69, "duration": 4, "velocity": 66}, {"time": 1514, "pitch": 67, "duration": 4, "velocity": 66}, {"time": 1518, "pitch": 71, "duration": 24, "velocity": 71}, {"time": 1554, "pitch": 71, "duration": 3, "velocity": 92}, {"time": 1558, "pitch": 69, "duration": 3, "velocity": 79}, {"time": 1566, "pitch": 67, "duration": 4, "velocity": 77}, {"time": 1570, "pitch": 66, "duration": 25, "velocity": 74}, {"time": 1606, "pitch": 67, "duration": 2, "velocity": 70}, {"time": 1614, "pitch": 64, "duration": 18, "velocity": 75}, {"time": 1630, "pitch": 76, "duration": 3, "velocity": 75}, {"time": 1638, "pitch": 76, "duration": 12, "velocity": 81}, {"time": 1650, "pitch": 76, "duration": 3, "velocity": 88}, {"time": 1658, "pitch": 74, "duration": 3, "velocity": 78}, {"time": 1662, "pitch": 71, "duration": 6, "velocity": 79}, {"time": 1670, "pitch": 74, "duration": 19, "velocity": 70}, {"time": 1698, "pitch": 74, "duration": 4, "velocity": 85}, {"time": 1702, "pitch": 78, "duration": 4, "velocity": 93}, {"time": 1706, "pitch": 79, "duration": 6, "velocity": 83}, {"time": 1714, "pitch": 72, "duration": 18, "velocity": 83}, {"time": 1746, "pitch": 69, "duration": 8, "velocity": 83}, {"time": 1750, "pitch": 76, "duration": 4, "velocity": 76}, {"time": 1758, "pitch": 78, "duration": 8, "velocity": 82}, {"time": 1766, "pitch": 74, "duration": 15, "velocity": 76}, {"time": 1794, "pitch": 74, "duration": 4, "velocity": 96}, {"time": 1798, "pitch": 72, "duration": 4, "velocity": 78}, {"time": 1802, "pitch": 71, "duration": 4, "velocity": 82}, {"time": 1806, "pitch": 76, "duration": 17, "velocity": 86}, {"time": 1842, "pitch": 76, "duration": 3, "velocity": 96}, {"time": 1846, "pitch": 74, "duration": 4, "velocity": 79}, {"time": 1850, "pitch": 72, "duration": 2, "velocity": 59}, {"time": 1854, "pitch": 71, "duration": 20, "velocity": 90}, {"time": 1874, "pitch": 69, "duration": 3, "velocity": 78}, {"time": 1878, "pitch": 69, "duration": 5, "velocity": 78}, {"time": 1891, "pitch": 71, "duration": 4, "velocity": 95}, {"time": 1896, "pitch": 69, "duration": 3, "velocity": 71}, {"time": 1900, "pitch": 67, "duration": 8, "velocity": 85}, {"time": 1908, "pitch": 71, "duration": 17, "velocity": 75}, {"time": 1938, "pitch": 71, "duration": 3, "velocity": 92}, {"time": 1942, "pitch": 69, "duration": 3, "velocity": 79}, {"time": 1950, "pitch": 67, "duration": 4, "velocity": 77}, {"time": 1954, "pitch": 66, "duration": 25, "velocity": 74}, {"time": 1986, "pitch": 66, "duration": 5, "velocity": 86}, {"time": 1994, "pitch": 67, "duration": 3, "velocity": 89}, {"time": 1998, "pitch": 64, "duration": 18, "velocity": 75}, {"time": 2017, "pitch": 76, "duration": 3, "velocity": 83}, {"time": 2022, "pitch": 76, "duration": 4, "velocity": 88}, {"time": 2034, "pitch": 76, "duration": 3, "velocity": 88}, {"time": 2042, "pitch": 74, "duration": 3, "velocity": 78}, {"time": 2046, "pitch": 71, "duration": 6, "velocity": 79}, {"time": 2054, "pitch": 74, "duration": 19, "velocity": 70}, {"time": 2082, "pitch": 74, "duration": 4, "velocity": 85}, {"time": 2086, "pitch": 78, "duration": 4, "velocity": 93}, {"time": 2090, "pitch": 79, "duration": 6, "velocity": 83}, {"time": 2098, "pitch": 72, "duration": 18, "velocity": 83}, {"time": 2130, "pitch": 69, "duration": 8, "velocity": 83}, {"time": 2134, "pitch": 76, "duration": 4, "velocity": 76}, {"time": 2138, "pitch": 78, "duration": 8, "velocity": 82}, {"time": 2146, "pitch": 74, "duration": 15, "velocity": 76}, {"time": 2160, "pitch": 81, "duration": 6, "velocity": 81}, {"time": 2167, "pitch": 79, "duration": 8, "velocity": 90}, {"time": 2178, "pitch": 76, "duration": 3, "velocity": 89}, {"time": 2182, "pitch": 78, "duration": 3, "velocity": 88}, {"time": 2186, "pitch": 79, "duration": 2, "velocity": 90}, {"time": 2190, "pitch": 79, "duration": 12, "velocity": 95}, {"time": 2209, "pitch": 72, "duration": 2, "velocity": 92}, {"time": 2214, "pitch": 72, "duration": 5, "velocity": 96}, {"time": 2226, "pitch": 76, "duration": 3, "velocity": 97}, {"time": 2230, "pitch": 78, "duration": 2, "velocity": 92}, {"time": 2234, "pitch": 79, "duration": 2, "velocity": 92}, {"time": 2238, "pitch": 81, "duration": 27, "velocity": 107}, {"time": 2274, "pitch": 74, "duration": 11, "velocity": 107}, {"time": 2286, "pitch": 83, "duration": 11, "velocity": 88}, {"time": 2304, "pitch": 76, "duration": 2, "velocity": 88}, {"time": 2310, "pitch": 76, "duration": 9, "velocity": 95}, {"time": 2322, "pitch": 76, "duration": 3, "velocity": 85}, {"time": 2326, "pitch": 78, "duration": 3, "velocity": 88}, {"time": 2330, "pitch": 79, "duration": 2, "velocity": 66}, {"time": 2334, "pitch": 81, "duration": 5, "velocity": 89}, {"time": 2339, "pitch": 83, "duration": 6, "velocity": 86}, {"time": 2346, "pitch": 81, "duration": 4, "velocity": 89}, {"time": 2352, "pitch": 74, "duration": 3, "velocity": 79}, {"time": 2355, "pitch": 79, "duration": 16, "velocity": 79}, {"time": 2376, "pitch": 76, "duration": 2, "velocity": 86}, {"time": 2379, "pitch": 78, "duration": 3, "velocity": 79}, {"time": 2382, "pitch": 79, "duration": 11, "velocity": 90}, {"time": 2399, "pitch": 72, "duration": 4, "velocity": 85}, {"time": 2406, "pitch": 72, "duration": 7, "velocity": 89}, {"time": 2418, "pitch": 79, "duration": 3, "velocity": 92}, {"time": 2422, "pitch": 78, "duration": 4, "velocity": 83}, {"time": 2426, "pitch": 76, "duration": 2, "velocity": 67}, {"time": 2430, "pitch": 76, "duration": 12, "velocity": 83}, {"time": 2442, "pitch": 74, "duration": 10, "velocity": 82}, {"time": 2454, "pitch": 84, "duration": 9, "velocity": 107}, {"time": 2466, "pitch": 83, "duration": 4, "velocity": 97}, {"time": 2472, "pitch": 86, "duration": 3, "velocity": 112}, {"time": 2478, "pitch": 83, "duration": 8, "velocity": 107}, {"time": 2484, "pitch": 76, "duration": 2, "velocity": 85}, {"time": 2487, "pitch": 76, "duration": 8, "velocity": 95}, {"time": 2514, "pitch": 83, "duration": 2, "velocity": 100}, {"time": 2518, "pitch": 81, "duration": 3, "velocity": 90}, {"time": 2522, "pitch": 79, "duration": 3, "velocity": 74}, {"time": 2526, "pitch": 81, "duration": 5, "velocity": 95}, {"time": 2532, "pitch": 74, "duration": 1, "velocity": 96}, {"time": 2535, "pitch": 74, "duration": 9, "velocity": 99}, {"time": 2544, "pitch": 81, "duration": 5, "velocity": 102}, {"time": 2550, "pitch": 79, "duration": 9, "velocity": 99}, {"time": 2566, "pitch": 76, "duration": 2, "velocity": 102}, {"time": 2571, "pitch": 78, "duration": 2, "velocity": 96}, {"time": 2574, "pitch": 79, "duration": 8, "velocity": 96}, {"time": 2610, "pitch": 76, "duration": 6, "velocity": 97}, {"time": 2616, "pitch": 78, "duration": 6, "velocity": 78}, {"time": 2622, "pitch": 79, "duration": 35, "velocity": 96}, {"time": 2658, "pitch": 74, "duration": 9, "velocity": 117}, {"time": 2670, "pitch": 83, "duration": 11, "velocity": 88}, {"time": 2688, "pitch": 76, "duration": 2, "velocity": 88}, {"time": 2694, "pitch": 76, "duration": 9, "velocity": 95}, {"time": 2706, "pitch": 76, "duration": 3, "velocity": 85}, {"time": 2710, "pitch": 78, "duration": 3, "velocity": 88}, {"time": 2714, "pitch": 79, "duration": 2, "velocity": 66}, {"time": 2718, "pitch": 81, "duration": 5, "velocity": 89}, {"time": 2723, "pitch": 83, "duration": 6, "velocity": 86}, {"time": 2730, "pitch": 81, "duration": 4, "velocity": 89}, {"time": 2736, "pitch": 74, "duration": 3, "velocity": 79}, {"time": 2739, "pitch": 79, "duration": 16, "velocity": 79}, {"time": 2760, "pitch": 76, "duration": 2, "velocity": 86}, {"time": 2763, "pitch": 78, "duration": 3, "velocity": 79}, {"time": 2766, "pitch": 79, "duration": 11, "velocity": 90}, {"time": 2783, "pitch": 72, "duration": 4, "velocity": 85}, {"time": 2790, "pitch": 72, "duration": 7, "velocity": 89}, {"time": 2802, "pitch": 79, "duration": 3, "velocity": 92}, {"time": 2806, "pitch": 78, "duration": 4, "velocity": 83}, {"time": 2810, "pitch": 76, "duration": 2, "velocity": 67}, {"time": 2814, "pitch": 76, "duration": 12, "velocity": 83}, {"time": 2826, "pitch": 74, "duration": 10, "velocity": 82}, {"time": 2838, "pitch": 84, "duration": 9, "velocity": 107}, {"time": 2850, "pitch": 83, "duration": 4, "velocity": 97}, {"time": 2856, "pitch": 86, "duration": 3, "velocity": 112}, {"time": 2862, "pitch": 83, "duration": 8, "velocity": 107}, {"time": 2868, "pitch": 76, "duration": 2, "velocity": 85}, {"time": 2871, "pitch": 76, "duration": 8, "velocity": 95}, {"time": 2898, "pitch": 83, "duration": 2, "velocity": 100}, {"time": 2902, "pitch": 81, "duration": 3, "velocity": 90}, {"time": 2906, "pitch": 79, "duration": 3, "velocity": 74}, {"time": 2910, "pitch": 81, "duration": 5, "velocity": 95}, {"time": 2916, "pitch": 74, "duration": 1, "velocity": 96}, {"time": 2919, "pitch": 74, "duration": 9, "velocity": 99}, {"time": 2928, "pitch": 81, "duration": 5, "velocity": 102}, {"time": 2934, "pitch": 79, "duration": 9, "velocity": 99}, {"time": 2950, "pitch": 76, "duration": 2, "velocity": 102}, {"time": 2955, "pitch": 78, "duration": 2, "velocity": 96}, {"time": 2958, "pitch": 79, "duration": 8, "velocity": 96}, {"time": 3005, "pitch": 76, "duration": 13, "velocity": 81}, {"time": 3017, "pitch": 78, "duration": 31, "velocity": 82}, {"time": 3048, "pitch": 79, "duration": 65, "velocity": 81}]}, {"program": 0, "is_drum": false, "name": "PIANO", "notes": [{"time": 18, "pitch": 48, "duration": 17, "velocity": 65}, {"time": 21, "pitch": 55, "duration": 15, "velocity": 51}, {"time": 24, "pitch": 60, "duration": 8, "velocity": 52}, {"time": 27, "pitch": 67, "duration": 3, "velocity": 56}, {"time": 30, "pitch": 64, "duration": 3, "velocity": 51}, {"time": 33, "pitch": 67, "duration": 6, "velocity": 51}, {"time": 36, "pitch": 48, "duration": 13, "velocity": 52}, {"time": 39, "pitch": 55, "duration": 9, "velocity": 52}, {"time": 42, "pitch": 60, "duration": 4, "velocity": 57}, {"time": 45, "pitch": 67, "duration": 9, "velocity": 72}, {"time": 48, "pitch": 64, "duration": 6, "velocity": 40}, {"time": 50, "pitch": 60, "duration": 4, "velocity": 51}, {"time": 54, "pitch": 47, "duration": 17, "velocity": 52}, {"time": 57, "pitch": 54, "duration": 15, "velocity": 46}, {"time": 59, "pitch": 59, "duration": 6, "velocity": 50}, {"time": 62, "pitch": 66, "duration": 15, "velocity": 75}, {"time": 66, "pitch": 62, "duration": 10, "velocity": 41}, {"time": 69, "pitch": 59, "duration": 6, "velocity": 43}, {"time": 72, "pitch": 47, "duration": 17, "velocity": 58}, {"time": 75, "pitch": 54, "duration": 9, "velocity": 51}, {"time": 78, "pitch": 59, "duration": 4, "velocity": 44}, {"time": 80, "pitch": 66, "duration": 10, "velocity": 92}, {"time": 84, "pitch": 62, "duration": 6, "velocity": 54}, {"time": 87, "pitch": 59, "duration": 3, "velocity": 46}, {"time": 90, "pitch": 45, "duration": 17, "velocity": 59}, {"time": 93, "pitch": 52, "duration": 14, "velocity": 41}, {"time": 95, "pitch": 57, "duration": 5, "velocity": 49}, {"time": 98, "pitch": 64, "duration": 10, "velocity": 85}, {"time": 102, "pitch": 60, "duration": 6, "velocity": 40}, {"time": 105, "pitch": 57, "duration": 3, "velocity": 53}, {"time": 108, "pitch": 45, "duration": 13, "velocity": 67}, {"time": 110, "pitch": 52, "duration": 14, "velocity": 55}, {"time": 114, "pitch": 57, "duration": 4, "velocity": 47}, {"time": 116, "pitch": 64, "duration": 8, "velocity": 88}, {"time": 119, "pitch": 60, "duration": 6, "velocity": 47}, {"time": 122, "pitch": 57, "duration": 3, "velocity": 56}, {"time": 125, "pitch": 50, "duration": 19, "velocity": 56}, {"time": 128, "pitch": 57, "duration": 9, "velocity": 42}, {"time": 132, "pitch": 62, "duration": 3, "velocity": 55}, {"time": 135, "pitch": 66, "duration": 31, "velocity": 85}, {"time": 138, "pitch": 62, "duration": 28, "velocity": 61}, {"time": 142, "pitch": 57, "duration": 24, "velocity": 55}, {"time": 147, "pitch": 50, "duration": 18, "velocity": 40}, {"time": 173, "pitch": 43, "duration": 35, "velocity": 56}, {"time": 177, "pitch": 50, "duration": 32, "velocity": 33}, {"time": 180, "pitch": 55, "duration": 30, "velocity": 41}, {"time": 184, "pitch": 59, "duration": 5, "velocity": 55}, {"time": 187, "pitch": 62, "duration": 30, "velocity": 48}, {"time": 196, "pitch": 59, "duration": 17, "velocity": 1}, {"time": 214, "pitch": 47, "duration": 26, "velocity": 65}, {"time": 217, "pitch": 54, "duration": 27, "velocity": 51}, {"time": 220, "pitch": 59, "duration": 8, "velocity": 39}, {"time": 224, "pitch": 66, "duration": 22, "velocity": 56}, {"time": 227, "pitch": 62, "duration": 20, "velocity": 40}, {"time": 231, "pitch": 59, "duration": 15, "velocity": 34}, {"time": 245, "pitch": 48, "duration": 31, "velocity": 69}, {"time": 250, "pitch": 55, "duration": 25, "velocity": 48}, {"time": 254, "pitch": 60, "duration": 30, "velocity": 44}, {"time": 257, "pitch": 64, "duration": 26, "velocity": 49}, {"time": 262, "pitch": 67, "duration": 21, "velocity": 51}, {"time": 281, "pitch": 47, "duration": 30, "velocity": 33}, {"time": 285, "pitch": 54, "duration": 25, "velocity": 50}, {"time": 289, "pitch": 59, "duration": 12, "velocity": 36}, {"time": 291, "pitch": 62, "duration": 4, "velocity": 45}, {"time": 294, "pitch": 66, "duration": 20, "velocity": 66}, {"time": 300, "pitch": 62, "duration": 14, "velocity": 40}, {"time": 303, "pitch": 59, "duration": 11, "velocity": 37}, {"time": 316, "pitch": 45, "duration": 13, "velocity": 66}, {"time": 320, "pitch": 52, "duration": 9, "velocity": 37}, {"time": 323, "pitch": 57, "duration": 7, "velocity": 47}, {"time": 326, "pitch": 64, "duration": 9, "velocity": 59}, {"time": 329, "pitch": 60, "duration": 7, "velocity": 57}, {"time": 333, "pitch": 57, "duration": 3, "velocity": 59}, {"time": 336, "pitch": 38, "duration": 12, "velocity": 48}, {"time": 339, "pitch": 45, "duration": 9, "velocity": 35}, {"time": 342, "pitch": 50, "duration": 7, "velocity": 34}, {"time": 345, "pitch": 57, "duration": 10, "velocity": 47}, {"time": 348, "pitch": 66, "duration": 7, "velocity": 68}, {"time": 351, "pitch": 62, "duration": 4, "velocity": 46}, {"time": 354, "pitch": 47, "duration": 14, "velocity": 51}, {"time": 357, "pitch": 54, "duration": 10, "velocity": 61}, {"time": 360, "pitch": 59, "duration": 7, "velocity": 43}, {"time": 363, "pitch": 66, "duration": 8, "velocity": 74}, {"time": 366, "pitch": 62, "duration": 16, "velocity": 64}, {"time": 369, "pitch": 59, "duration": 8, "velocity": 55}, {"time": 374, "pitch": 40, "duration": 13, "velocity": 63}, {"time": 377, "pitch": 47, "duration": 11, "velocity": 55}, {"time": 381, "pitch": 52, "duration": 9, "velocity": 58}, {"time": 384, "pitch": 67, "duration": 6, "velocity": 76}, {"time": 387, "pitch": 64, "duration": 4, "velocity": 56}, {"time": 390, "pitch": 45, "duration": 21, "velocity": 68}, {"time": 393, "pitch": 52, "duration": 17, "velocity": 35}, {"time": 396, "pitch": 57, "duration": 5, "velocity": 61}, {"time": 398, "pitch": 60, "duration": 7, "velocity": 57}, {"time": 402, "pitch": 64, "duration": 13, "velocity": 70}, {"time": 405, "pitch": 57, "duration": 11, "velocity": 47}, {"time": 408, "pitch": 60, "duration": 8, "velocity": 63}, {"time": 414, "pitch": 38, "duration": 26, "velocity": 66}, {"time": 417, "pitch": 45, "duration": 25, "velocity": 48}, {"time": 419, "pitch": 50, "duration": 26, "velocity": 40}, {"time": 422, "pitch": 57, "duration": 11, "velocity": 45}, {"time": 425, "pitch": 66, "duration": 18, "velocity": 76}, {"time": 432, "pitch": 62, "duration": 12, "velocity": 50}, {"time": 445, "pitch": 38, "duration": 10, "velocity": 36}, {"time": 446, "pitch": 45, "duration": 9, "velocity": 38}, {"time": 447, "pitch": 57, "duration": 17, "velocity": 39}, {"time": 447, "pitch": 50, "duration": 10, "velocity": 38}, {"time": 447, "pitch": 62, "duration": 28, "velocity": 35}, {"time": 448, "pitch": 66, "duration": 17, "velocity": 39}, {"time": 461, "pitch": 43, "duration": 22, "velocity": 50}, {"time": 464, "pitch": 50, "duration": 30, "velocity": 34}, {"time": 467, "pitch": 55, "duration": 30, "velocity": 45}, {"time": 471, "pitch": 59, "duration": 29, "velocity": 43}, {"time": 475, "pitch": 67, "duration": 25, "velocity": 63}, {"time": 480, "pitch": 62, "duration": 21, "velocity": 51}, {"time": 498, "pitch": 47, "duration": 32, "velocity": 56}, {"time": 502, "pitch": 54, "duration": 32, "velocity": 56}, {"time": 505, "pitch": 59, "duration": 7, "velocity": 44}, {"time": 507, "pitch": 66, "duration": 27, "velocity": 79}, {"time": 510, "pitch": 62, "duration": 7, "velocity": 52}, {"time": 516, "pitch": 59, "duration": 18, "velocity": 48}, {"time": 535, "pitch": 48, "duration": 21, "velocity": 74}, {"time": 538, "pitch": 55, "duration": 20, "velocity": 58}, {"time": 541, "pitch": 60, "duration": 7, "velocity": 56}, {"time": 544, "pitch": 64, "duration": 3, "velocity": 57}, {"time": 546, "pitch": 67, "duration": 28, "velocity": 71}, {"time": 549, "pitch": 60, "duration": 4, "velocity": 45}, {"time": 552, "pitch": 64, "duration": 22, "velocity": 53}, {"time": 555, "pitch": 60, "duration": 20, "velocity": 42}, {"time": 558, "pitch": 48, "duration": 11, "velocity": 53}, {"time": 573, "pitch": 47, "duration": 28, "velocity": 66}, {"time": 576, "pitch": 54, "duration": 23, "velocity": 50}, {"time": 579, "pitch": 59, "duration": 7, "velocity": 48}, {"time": 582, "pitch": 66, "duration": 7, "velocity": 89}, {"time": 585, "pitch": 62, "duration": 21, "velocity": 49}, {"time": 588, "pitch": 59, "duration": 5, "velocity": 44}, {"time": 592, "pitch": 66, "duration": 14, "velocity": 66}, {"time": 603, "pitch": 45, "duration": 13, "velocity": 68}, {"time": 606, "pitch": 52, "duration": 9, "velocity": 58}, {"time": 609, "pitch": 57, "duration": 7, "velocity": 48}, {"time": 612, "pitch": 60, "duration": 10, "velocity": 56}, {"time": 615, "pitch": 64, "duration": 7, "velocity": 74}, {"time": 618, "pitch": 57, "duration": 4, "velocity": 62}, {"time": 621, "pitch": 38, "duration": 13, "velocity": 43}, {"time": 624, "pitch": 45, "duration": 11, "velocity": 38}, {"time": 627, "pitch": 50, "duration": 9, "velocity": 45}, {"time": 630, "pitch": 57, "duration": 11, "velocity": 63}, {"time": 633, "pitch": 66, "duration": 10, "velocity": 86}, {"time": 640, "pitch": 47, "duration": 17, "velocity": 63}, {"time": 643, "pitch": 54, "duration": 13, "velocity": 53}, {"time": 646, "pitch": 59, "duration": 11, "velocity": 39}, {"time": 649, "pitch": 62, "duration": 5, "velocity": 52}, {"time": 651, "pitch": 66, "duration": 12, "velocity": 85}, {"time": 657, "pitch": 62, "duration": 5, "velocity": 54}, {"time": 659, "pitch": 59, "duration": 5, "velocity": 31}, {"time": 662, "pitch": 40, "duration": 12, "velocity": 39}, {"time": 664, "pitch": 47, "duration": 10, "velocity": 53}, {"time": 667, "pitch": 52, "duration": 10, "velocity": 69}, {"time": 670, "pitch": 59, "duration": 9, "velocity": 69}, {"time": 672, "pitch": 67, "duration": 7, "velocity": 95}, {"time": 675, "pitch": 64, "duration": 4, "velocity": 53}, {"time": 678, "pitch": 45, "duration": 15, "velocity": 59}, {"time": 681, "pitch": 52, "duration": 11, "velocity": 40}, {"time": 684, "pitch": 57, "duration": 14, "velocity": 51}, {"time": 687, "pitch": 60, "duration": 12, "velocity": 66}, {"time": 690, "pitch": 64, "duration": 8, "velocity": 68}, {"time": 696, "pitch": 38, "duration": 17, "velocity": 50}, {"time": 703, "pitch": 45, "duration": 11, "velocity": 59}, {"time": 707, "pitch": 50, "duration": 20, "velocity": 41}, {"time": 708, "pitch": 62, "duration": 17, "velocity": 65}, {"time": 708, "pitch": 57, "duration": 1, "velocity": 55}, {"time": 708, "pitch": 66, "duration": 16, "velocity": 63}, {"time": 714, "pitch": 38, "duration": 16, "velocity": 66}, {"time": 719, "pitch": 45, "duration": 12, "velocity": 43}, {"time": 723, "pitch": 57, "duration": 4, "velocity": 51}, {"time": 726, "pitch": 62, "duration": 5, "velocity": 68}, {"time": 726, "pitch": 66, "duration": 5, "velocity": 74}, {"time": 729, "pitch": 50, "duration": 2, "velocity": 30}, {"time": 732, "pitch": 50, "duration": 9, "velocity": 66}, {"time": 732, "pitch": 66, "duration": 9, "velocity": 65}, {"time": 732, "pitch": 62, "duration": 9, "velocity": 69}, {"time": 732, "pitch": 38, "duration": 9, "velocity": 58}, {"time": 732, "pitch": 57, "duration": 9, "velocity": 67}, {"time": 741, "pitch": 50, "duration": 4, "velocity": 61}, {"time": 741, "pitch": 62, "duration": 5, "velocity": 55}, {"time": 741, "pitch": 69, "duration": 5, "velocity": 54}, {"time": 741, "pitch": 66, "duration": 5, "velocity": 54}, {"time": 750, "pitch": 48, "duration": 23, "velocity": 59}, {"time": 754, "pitch": 55, "duration": 10, "velocity": 50}, {"time": 758, "pitch": 60, "duration": 5, "velocity": 52}, {"time": 762, "pitch": 64, "duration": 20, "velocity": 69}, {"time": 762, "pitch": 67, "duration": 21, "velocity": 69}, {"time": 771, "pitch": 60, "duration": 10, "velocity": 38}, {"time": 774, "pitch": 48, "duration": 18, "velocity": 69}, {"time": 780, "pitch": 55, "duration": 7, "velocity": 49}, {"time": 786, "pitch": 67, "duration": 12, "velocity": 96}, {"time": 789, "pitch": 55, "duration": 3, "velocity": 47}, {"time": 792, "pitch": 64, "duration": 6, "velocity": 73}, {"time": 795, "pitch": 60, "duration": 4, "velocity": 64}, {"time": 798, "pitch": 47, "duration": 18, "velocity": 69}, {"time": 804, "pitch": 54, "duration": 7, "velocity": 50}, {"time": 810, "pitch": 66, "duration": 10, "velocity": 93}, {"time": 810, "pitch": 62, "duration": 7, "velocity": 63}, {"time": 813, "pitch": 54, "duration": 2, "velocity": 45}, {"time": 816, "pitch": 59, "duration": 7, "velocity": 72}, {"time": 819, "pitch": 62, "duration": 2, "velocity": 62}, {"time": 821, "pitch": 40, "duration": 17, "velocity": 58}, {"time": 824, "pitch": 47, "duration": 15, "velocity": 37}, {"time": 828, "pitch": 52, "duration": 6, "velocity": 67}, {"time": 830, "pitch": 59, "duration": 8, "velocity": 69}, {"time": 834, "pitch": 67, "duration": 11, "velocity": 92}, {"time": 837, "pitch": 52, "duration": 6, "velocity": 66}, {"time": 840, "pitch": 64, "duration": 6, "velocity": 73}, {"time": 843, "pitch": 59, "duration": 3, "velocity": 69}, {"time": 846, "pitch": 45, "duration": 16, "velocity": 61}, {"time": 849, "pitch": 52, "duration": 9, "velocity": 54}, {"time": 852, "pitch": 57, "duration": 5, "velocity": 66}, {"time": 855, "pitch": 60, "duration": 3, "velocity": 63}, {"time": 858, "pitch": 64, "duration": 11, "velocity": 95}, {"time": 860, "pitch": 52, "duration": 2, "velocity": 58}, {"time": 864, "pitch": 60, "duration": 4, "velocity": 74}, {"time": 867, "pitch": 57, "duration": 4, "velocity": 65}, {"time": 869, "pitch": 38, "duration": 17, "velocity": 56}, {"time": 872, "pitch": 45, "duration": 14, "velocity": 45}, {"time": 876, "pitch": 50, "duration": 6, "velocity": 74}, {"time": 878, "pitch": 57, "duration": 6, "velocity": 70}, {"time": 881, "pitch": 66, "duration": 11, "velocity": 107}, {"time": 884, "pitch": 50, "duration": 8, "velocity": 69}, {"time": 888, "pitch": 62, "duration": 6, "velocity": 53}, {"time": 891, "pitch": 57, "duration": 3, "velocity": 89}, {"time": 893, "pitch": 43, "duration": 22, "velocity": 63}, {"time": 897, "pitch": 50, "duration": 19, "velocity": 41}, {"time": 900, "pitch": 55, "duration": 6, "velocity": 65}, {"time": 902, "pitch": 59, "duration": 4, "velocity": 70}, {"time": 906, "pitch": 62, "duration": 7, "velocity": 65}, {"time": 909, "pitch": 55, "duration": 3, "velocity": 81}, {"time": 912, "pitch": 59, "duration": 5, "velocity": 82}, {"time": 915, "pitch": 62, "duration": 3, "velocity": 83}, {"time": 918, "pitch": 41, "duration": 17, "velocity": 74}, {"time": 924, "pitch": 55, "duration": 7, "velocity": 72}, {"time": 924, "pitch": 53, "duration": 11, "velocity": 54}, {"time": 927, "pitch": 59, "duration": 10, "velocity": 62}, {"time": 930, "pitch": 62, "duration": 11, "velocity": 99}, {"time": 933, "pitch": 53, "duration": 2, "velocity": 75}, {"time": 936, "pitch": 55, "duration": 6, "velocity": 99}, {"time": 939, "pitch": 59, "duration": 3, "velocity": 90}, {"time": 942, "pitch": 36, "duration": 22, "velocity": 69}, {"time": 945, "pitch": 43, "duration": 21, "velocity": 56}, {"time": 948, "pitch": 48, "duration": 7, "velocity": 67}, {"time": 951, "pitch": 55, "duration": 21, "velocity": 68}, {"time": 954, "pitch": 64, "duration": 20, "velocity": 85}, {"time": 957, "pitch": 48, "duration": 10, "velocity": 86}, {"time": 960, "pitch": 60, "duration": 12, "velocity": 77}, {"time": 963, "pitch": 59, "duration": 10, "velocity": 72}, {"time": 966, "pitch": 36, "duration": 16, "velocity": 71}, {"time": 969, "pitch": 43, "duration": 13, "velocity": 46}, {"time": 972, "pitch": 48, "duration": 7, "velocity": 71}, {"time": 975, "pitch": 55, "duration": 13, "velocity": 75}, {"time": 978, "pitch": 64, "duration": 12, "velocity": 92}, {"time": 981, "pitch": 48, "duration": 3, "velocity": 86}, {"time": 984, "pitch": 60, "duration": 6, "velocity": 75}, {"time": 987, "pitch": 59, "duration": 3, "velocity": 77}, {"time": 990, "pitch": 47, "duration": 18, "velocity": 72}, {"time": 992, "pitch": 54, "duration": 11, "velocity": 58}, {"time": 996, "pitch": 59, "duration": 6, "velocity": 56}, {"time": 999, "pitch": 62, "duration": 3, "velocity": 46}, {"time": 1002, "pitch": 66, "duration": 8, "velocity": 97}, {"time": 1002, "pitch": 62, "duration": 2, "velocity": 38}, {"time": 1005, "pitch": 54, "duration": 2, "velocity": 78}, {"time": 1008, "pitch": 59, "duration": 10, "velocity": 81}, {"time": 1011, "pitch": 64, "duration": 4, "velocity": 85}, {"time": 1014, "pitch": 40, "duration": 16, "velocity": 71}, {"time": 1017, "pitch": 47, "duration": 14, "velocity": 69}, {"time": 1020, "pitch": 52, "duration": 6, "velocity": 72}, {"time": 1023, "pitch": 59, "duration": 6, "velocity": 72}, {"time": 1026, "pitch": 67, "duration": 12, "velocity": 90}, {"time": 1029, "pitch": 52, "duration": 7, "velocity": 77}, {"time": 1032, "pitch": 64, "duration": 6, "velocity": 66}, {"time": 1035, "pitch": 59, "duration": 3, "velocity": 66}, {"time": 1038, "pitch": 45, "duration": 17, "velocity": 78}, {"time": 1044, "pitch": 52, "duration": 7, "velocity": 42}, {"time": 1050, "pitch": 64, "duration": 9, "velocity": 79}, {"time": 1050, "pitch": 60, "duration": 7, "velocity": 66}, {"time": 1053, "pitch": 52, "duration": 1, "velocity": 57}, {"time": 1056, "pitch": 57, "duration": 5, "velocity": 70}, {"time": 1059, "pitch": 60, "duration": 1, "velocity": 46}, {"time": 1062, "pitch": 38, "duration": 36, "velocity": 74}, {"time": 1062, "pitch": 57, "duration": 35, "velocity": 63}, {"time": 1062, "pitch": 66, "duration": 36, "velocity": 100}, {"time": 1062, "pitch": 62, "duration": 35, "velocity": 82}, {"time": 1098, "pitch": 41, "duration": 7, "velocity": 70}, {"time": 1098, "pitch": 53, "duration": 16, "velocity": 85}, {"time": 1098, "pitch": 57, "duration": 7, "velocity": 86}, {"time": 1098, "pitch": 64, "duration": 7, "velocity": 76}, {"time": 1098, "pitch": 60, "duration": 7, "velocity": 83}, {"time": 1110, "pitch": 51, "duration": 8, "velocity": 59}, {"time": 1110, "pitch": 58, "duration": 8, "velocity": 55}, {"time": 1110, "pitch": 39, "duration": 8, "velocity": 63}, {"time": 1110, "pitch": 55, "duration": 8, "velocity": 68}, {"time": 1110, "pitch": 62, "duration": 8, "velocity": 56}, {"time": 1122, "pitch": 64, "duration": 6, "velocity": 79}, {"time": 1122, "pitch": 71, "duration": 5, "velocity": 71}, {"time": 1123, "pitch": 67, "duration": 4, "velocity": 75}, {"time": 1123, "pitch": 55, "duration": 7, "velocity": 67}, {"time": 1123, "pitch": 59, "duration": 7, "velocity": 60}, {"time": 1123, "pitch": 52, "duration": 7, "velocity": 65}, {"time": 1123, "pitch": 38, "duration": 7, "velocity": 81}, {"time": 1123, "pitch": 62, "duration": 7, "velocity": 58}, {"time": 1134, "pitch": 36, "duration": 22, "velocity": 82}, {"time": 1140, "pitch": 43, "duration": 18, "velocity": 59}, {"time": 1146, "pitch": 60, "duration": 7, "velocity": 71}, {"time": 1146, "pitch": 64, "duration": 20, "velocity": 71}, {"time": 1149, "pitch": 48, "duration": 9, "velocity": 41}, {"time": 1152, "pitch": 55, "duration": 13, "velocity": 58}, {"time": 1155, "pitch": 60, "duration": 11, "velocity": 58}, {"time": 1157, "pitch": 36, "duration": 16, "velocity": 52}, {"time": 1161, "pitch": 43, "duration": 13, "velocity": 37}, {"time": 1164, "pitch": 48, "duration": 6, "velocity": 60}, {"time": 1167, "pitch": 55, "duration": 6, "velocity": 63}, {"time": 1170, "pitch": 64, "duration": 8, "velocity": 102}, {"time": 1173, "pitch": 48, "duration": 2, "velocity": 78}, {"time": 1176, "pitch": 60, "duration": 5, "velocity": 78}, {"time": 1179, "pitch": 64, "duration": 3, "velocity": 66}, {"time": 1182, "pitch": 47, "duration": 13, "velocity": 65}, {"time": 1188, "pitch": 54, "duration": 6, "velocity": 60}, {"time": 1194, "pitch": 66, "duration": 4, "velocity": 122}, {"time": 1194, "pitch": 62, "duration": 4, "velocity": 86}, {"time": 1200, "pitch": 62, "duration": 2, "velocity": 78}, {"time": 1200, "pitch": 66, "duration": 2, "velocity": 83}, {"time": 1200, "pitch": 59, "duration": 2, "velocity": 74}, {"time": 1203, "pitch": 40, "duration": 19, "velocity": 74}, {"time": 1203, "pitch": 64, "duration": 14, "velocity": 75}, {"time": 1203, "pitch": 59, "duration": 14, "velocity": 66}, {"time": 1203, "pitch": 67, "duration": 13, "velocity": 92}, {"time": 1212, "pitch": 47, "duration": 7, "velocity": 58}, {"time": 1218, "pitch": 67, "duration": 11, "velocity": 97}, {"time": 1221, "pitch": 47, "duration": 2, "velocity": 66}, {"time": 1224, "pitch": 64, "duration": 6, "velocity": 66}, {"time": 1227, "pitch": 59, "duration": 4, "velocity": 81}, {"time": 1229, "pitch": 45, "duration": 15, "velocity": 71}, {"time": 1236, "pitch": 52, "duration": 8, "velocity": 55}, {"time": 1242, "pitch": 64, "duration": 6, "velocity": 81}, {"time": 1242, "pitch": 60, "duration": 7, "velocity": 67}, {"time": 1248, "pitch": 57, "duration": 16, "velocity": 83}, {"time": 1251, "pitch": 66, "duration": 13, "velocity": 85}, {"time": 1251, "pitch": 38, "duration": 18, "velocity": 66}, {"time": 1251, "pitch": 62, "duration": 13, "velocity": 69}, {"time": 1259, "pitch": 45, "duration": 8, "velocity": 50}, {"time": 1266, "pitch": 66, "duration": 11, "velocity": 107}, {"time": 1266, "pitch": 62, "duration": 7, "velocity": 95}, {"time": 1269, "pitch": 45, "duration": 1, "velocity": 47}, {"time": 1272, "pitch": 57, "duration": 5, "velocity": 83}, {"time": 1275, "pitch": 62, "duration": 3, "velocity": 76}, {"time": 1277, "pitch": 43, "duration": 23, "velocity": 77}, {"time": 1280, "pitch": 50, "duration": 22, "velocity": 63}, {"time": 1284, "pitch": 55, "duration": 6, "velocity": 70}, {"time": 1286, "pitch": 59, "duration": 5, "velocity": 76}, {"time": 1290, "pitch": 62, "duration": 7, "velocity": 77}, {"time": 1292, "pitch": 55, "duration": 4, "velocity": 68}, {"time": 1295, "pitch": 59, "duration": 11, "velocity": 77}, {"time": 1299, "pitch": 65, "duration": 7, "velocity": 92}, {"time": 1299, "pitch": 62, "duration": 7, "velocity": 88}, {"time": 1305, "pitch": 43, "duration": 12, "velocity": 64}, {"time": 1310, "pitch": 65, "duration": 2, "velocity": 49}, {"time": 1310, "pitch": 59, "duration": 2, "velocity": 38}, {"time": 1310, "pitch": 62, "duration": 2, "velocity": 58}, {"time": 1313, "pitch": 65, "duration": 4, "velocity": 88}, {"time": 1314, "pitch": 59, "duration": 3, "velocity": 83}, {"time": 1314, "pitch": 62, "duration": 3, "velocity": 95}, {"time": 1318, "pitch": 62, "duration": 3, "velocity": 82}, {"time": 1318, "pitch": 59, "duration": 3, "velocity": 81}, {"time": 1318, "pitch": 65, "duration": 3, "velocity": 88}, {"time": 1322, "pitch": 62, "duration": 3, "velocity": 77}, {"time": 1323, "pitch": 65, "duration": 2, "velocity": 70}, {"time": 1323, "pitch": 59, "duration": 3, "velocity": 73}, {"time": 1326, "pitch": 36, "duration": 20, "velocity": 76}, {"time": 1332, "pitch": 43, "duration": 8, "velocity": 64}, {"time": 1335, "pitch": 55, "duration": 5, "velocity": 52}, {"time": 1338, "pitch": 64, "duration": 8, "velocity": 93}, {"time": 1341, "pitch": 43, "duration": 5, "velocity": 27}, {"time": 1344, "pitch": 55, "duration": 2, "velocity": 82}, {"time": 1344, "pitch": 60, "duration": 2, "velocity": 51}, {"time": 1347, "pitch": 36, "duration": 19, "velocity": 67}, {"time": 1347, "pitch": 64, "duration": 13, "velocity": 74}, {"time": 1347, "pitch": 60, "duration": 13, "velocity": 79}, {"time": 1347, "pitch": 55, "duration": 14, "velocity": 69}, {"time": 1356, "pitch": 43, "duration": 7, "velocity": 52}, {"time": 1362, "pitch": 60, "duration": 7, "velocity": 66}, {"time": 1362, "pitch": 64, "duration": 12, "velocity": 76}, {"time": 1362, "pitch": 55, "duration": 2, "velocity": 31}, {"time": 1364, "pitch": 43, "duration": 2, "velocity": 64}, {"time": 1368, "pitch": 55, "duration": 5, "velocity": 74}, {"time": 1371, "pitch": 60, "duration": 3, "velocity": 58}, {"time": 1373, "pitch": 47, "duration": 15, "velocity": 65}, {"time": 1380, "pitch": 54, "duration": 6, "velocity": 53}, {"time": 1386, "pitch": 66, "duration": 6, "velocity": 88}, {"time": 1386, "pitch": 62, "duration": 8, "velocity": 68}, {"time": 1392, "pitch": 59, "duration": 18, "velocity": 73}, {"time": 1395, "pitch": 40, "duration": 19, "velocity": 69}, {"time": 1395, "pitch": 64, "duration": 14, "velocity": 68}, {"time": 1395, "pitch": 67, "duration": 13, "velocity": 77}, {"time": 1404, "pitch": 47, "duration": 11, "velocity": 33}, {"time": 1410, "pitch": 64, "duration": 7, "velocity": 81}, {"time": 1410, "pitch": 67, "duration": 11, "velocity": 81}, {"time": 1413, "pitch": 52, "duration": 6, "velocity": 52}, {"time": 1416, "pitch": 59, "duration": 6, "velocity": 75}, {"time": 1419, "pitch": 64, "duration": 3, "velocity": 63}, {"time": 1421, "pitch": 45, "duration": 23, "velocity": 70}, {"time": 1425, "pitch": 52, "duration": 9, "velocity": 53}, {"time": 1428, "pitch": 57, "duration": 8, "velocity": 62}, {"time": 1431, "pitch": 60, "duration": 4, "velocity": 54}, {"time": 1434, "pitch": 64, "duration": 17, "velocity": 83}, {"time": 1437, "pitch": 52, "duration": 8, "velocity": 39}, {"time": 1440, "pitch": 60, "duration": 12, "velocity": 69}, {"time": 1443, "pitch": 57, "duration": 5, "velocity": 69}, {"time": 1445, "pitch": 45, "duration": 18, "velocity": 69}, {"time": 1449, "pitch": 52, "duration": 9, "velocity": 61}, {"time": 1452, "pitch": 57, "duration": 7, "velocity": 64}, {"time": 1455, "pitch": 60, "duration": 2, "velocity": 50}, {"time": 1458, "pitch": 60, "duration": 6, "velocity": 66}, {"time": 1458, "pitch": 64, "duration": 6, "velocity": 93}, {"time": 1461, "pitch": 52, "duration": 1, "velocity": 59}, {"time": 1464, "pitch": 57, "duration": 3, "velocity": 74}, {"time": 1470, "pitch": 57, "duration": 46, "velocity": 76}, {"time": 1470, "pitch": 53, "duration": 56, "velocity": 85}, {"time": 1470, "pitch": 60, "duration": 46, "velocity": 73}, {"time": 1470, "pitch": 64, "duration": 11, "velocity": 67}, {"time": 1470, "pitch": 41, "duration": 45, "velocity": 72}, {"time": 1482, "pitch": 64, "duration": 34, "velocity": 52}, {"time": 1493, "pitch": 48, "duration": 22, "velocity": 24}, {"time": 1518, "pitch": 43, "duration": 22, "velocity": 68}, {"time": 1522, "pitch": 50, "duration": 19, "velocity": 56}, {"time": 1526, "pitch": 55, "duration": 9, "velocity": 38}, {"time": 1530, "pitch": 62, "duration": 22, "velocity": 83}, {"time": 1534, "pitch": 59, "duration": 19, "velocity": 36}, {"time": 1538, "pitch": 55, "duration": 15, "velocity": 37}, {"time": 1542, "pitch": 43, "duration": 14, "velocity": 48}, {"time": 1550, "pitch": 50, "duration": 6, "velocity": 34}, {"time": 1554, "pitch": 62, "duration": 12, "velocity": 69}, {"time": 1558, "pitch": 55, "duration": 8, "velocity": 55}, {"time": 1562, "pitch": 59, "duration": 5, "velocity": 51}, {"time": 1566, "pitch": 47, "duration": 22, "velocity": 54}, {"time": 1570, "pitch": 54, "duration": 19, "velocity": 39}, {"time": 1574, "pitch": 59, "duration": 18, "velocity": 45}, {"time": 1578, "pitch": 66, "duration": 22, "velocity": 86}, {"time": 1585, "pitch": 62, "duration": 15, "velocity": 52}, {"time": 1590, "pitch": 47, "duration": 17, "velocity": 44}, {"time": 1598, "pitch": 54, "duration": 7, "velocity": 37}, {"time": 1602, "pitch": 66, "duration": 11, "velocity": 95}, {"time": 1606, "pitch": 62, "duration": 8, "velocity": 42}, {"time": 1610, "pitch": 59, "duration": 4, "velocity": 55}, {"time": 1614, "pitch": 36, "duration": 22, "velocity": 61}, {"time": 1618, "pitch": 43, "duration": 20, "velocity": 34}, {"time": 1622, "pitch": 48, "duration": 5, "velocity": 40}, {"time": 1626, "pitch": 64, "duration": 21, "velocity": 73}, {"time": 1630, "pitch": 48, "duration": 8, "velocity": 53}, {"time": 1633, "pitch": 60, "duration": 15, "velocity": 51}, {"time": 1637, "pitch": 36, "duration": 16, "velocity": 62}, {"time": 1646, "pitch": 48, "duration": 8, "velocity": 52}, {"time": 1650, "pitch": 64, "duration": 12, "velocity": 75}, {"time": 1654, "pitch": 55, "duration": 6, "velocity": 64}, {"time": 1658, "pitch": 60, "duration": 4, "velocity": 56}, {"time": 1662, "pitch": 47, "duration": 22, "velocity": 54}, {"time": 1666, "pitch": 54, "duration": 10, "velocity": 44}, {"time": 1670, "pitch": 59, "duration": 9, "velocity": 42}, {"time": 1674, "pitch": 66, "duration": 22, "velocity": 82}, {"time": 1678, "pitch": 54, "duration": 8, "velocity": 51}, {"time": 1682, "pitch": 62, "duration": 14, "velocity": 48}, {"time": 1686, "pitch": 47, "duration": 17, "velocity": 51}, {"time": 1694, "pitch": 54, "duration": 6, "velocity": 42}, {"time": 1698, "pitch": 66, "duration": 12, "velocity": 90}, {"time": 1702, "pitch": 62, "duration": 9, "velocity": 47}, {"time": 1706, "pitch": 59, "duration": 5, "velocity": 51}, {"time": 1710, "pitch": 45, "duration": 18, "velocity": 58}, {"time": 1714, "pitch": 52, "duration": 9, "velocity": 44}, {"time": 1718, "pitch": 57, "duration": 17, "velocity": 52}, {"time": 1722, "pitch": 64, "duration": 12, "velocity": 79}, {"time": 1726, "pitch": 52, "duration": 1, "velocity": 45}, {"time": 1730, "pitch": 60, "duration": 4, "velocity": 50}, {"time": 1734, "pitch": 38, "duration": 18, "velocity": 61}, {"time": 1738, "pitch": 45, "duration": 14, "velocity": 29}, {"time": 1742, "pitch": 50, "duration": 6, "velocity": 41}, {"time": 1746, "pitch": 66, "duration": 13, "velocity": 92}, {"time": 1750, "pitch": 50, "duration": 4, "velocity": 55}, {"time": 1754, "pitch": 62, "duration": 5, "velocity": 60}, {"time": 1758, "pitch": 47, "duration": 19, "velocity": 63}, {"time": 1762, "pitch": 54, "duration": 10, "velocity": 45}, {"time": 1766, "pitch": 59, "duration": 8, "velocity": 54}, {"time": 1770, "pitch": 66, "duration": 9, "velocity": 90}, {"time": 1774, "pitch": 54, "duration": 2, "velocity": 55}, {"time": 1777, "pitch": 62, "duration": 5, "velocity": 64}, {"time": 1781, "pitch": 40, "duration": 16, "velocity": 61}, {"time": 1786, "pitch": 47, "duration": 10, "velocity": 42}, {"time": 1790, "pitch": 52, "duration": 9, "velocity": 56}, {"time": 1794, "pitch": 67, "duration": 12, "velocity": 83}, {"time": 1798, "pitch": 64, "duration": 8, "velocity": 54}, {"time": 1802, "pitch": 59, "duration": 4, "velocity": 56}, {"time": 1806, "pitch": 48, "duration": 21, "velocity": 72}, {"time": 1810, "pitch": 55, "duration": 11, "velocity": 48}, {"time": 1814, "pitch": 60, "duration": 7, "velocity": 59}, {"time": 1818, "pitch": 67, "duration": 22, "velocity": 81}, {"time": 1822, "pitch": 55, "duration": 8, "velocity": 56}, {"time": 1825, "pitch": 60, "duration": 16, "velocity": 59}, {"time": 1826, "pitch": 64, "duration": 14, "velocity": 38}, {"time": 1829, "pitch": 48, "duration": 14, "velocity": 68}, {"time": 1838, "pitch": 55, "duration": 5, "velocity": 46}, {"time": 1842, "pitch": 67, "duration": 13, "velocity": 85}, {"time": 1842, "pitch": 64, "duration": 3, "velocity": 63}, {"time": 1846, "pitch": 60, "duration": 9, "velocity": 63}, {"time": 1850, "pitch": 64, "duration": 4, "velocity": 48}, {"time": 1854, "pitch": 38, "duration": 22, "velocity": 61}, {"time": 1858, "pitch": 45, "duration": 19, "velocity": 52}, {"time": 1862, "pitch": 50, "duration": 5, "velocity": 63}, {"time": 1866, "pitch": 66, "duration": 9, "velocity": 79}, {"time": 1866, "pitch": 62, "duration": 9, "velocity": 71}, {"time": 1870, "pitch": 50, "duration": 31, "velocity": 68}, {"time": 1873, "pitch": 57, "duration": 4, "velocity": 68}, {"time": 1877, "pitch": 38, "duration": 24, "velocity": 61}, {"time": 1878, "pitch": 57, "duration": 23, "velocity": 63}, {"time": 1878, "pitch": 66, "duration": 23, "velocity": 75}, {"time": 1878, "pitch": 62, "duration": 23, "velocity": 78}, {"time": 1902, "pitch": 43, "duration": 22, "velocity": 68}, {"time": 1906, "pitch": 50, "duration": 19, "velocity": 56}, {"time": 1910, "pitch": 55, "duration": 9, "velocity": 38}, {"time": 1914, "pitch": 62, "duration": 22, "velocity": 83}, {"time": 1918, "pitch": 59, "duration": 19, "velocity": 36}, {"time": 1922, "pitch": 55, "duration": 15, "velocity": 37}, {"time": 1926, "pitch": 43, "duration": 14, "velocity": 48}, {"time": 1934, "pitch": 50, "duration": 6, "velocity": 34}, {"time": 1938, "pitch": 62, "duration": 12, "velocity": 69}, {"time": 1942, "pitch": 55, "duration": 8, "velocity": 55}, {"time": 1946, "pitch": 59, "duration": 5, "velocity": 51}, {"time": 1950, "pitch": 47, "duration": 22, "velocity": 54}, {"time": 1954, "pitch": 54, "duration": 19, "velocity": 39}, {"time": 1958, "pitch": 59, "duration": 18, "velocity": 45}, {"time": 1962, "pitch": 66, "duration": 22, "velocity": 86}, {"time": 1969, "pitch": 62, "duration": 15, "velocity": 52}, {"time": 1974, "pitch": 47, "duration": 17, "velocity": 44}, {"time": 1982, "pitch": 54, "duration": 7, "velocity": 37}, {"time": 1986, "pitch": 66, "duration": 11, "velocity": 95}, {"time": 1990, "pitch": 62, "duration": 8, "velocity": 42}, {"time": 1994, "pitch": 59, "duration": 4, "velocity": 55}, {"time": 1998, "pitch": 36, "duration": 22, "velocity": 61}, {"time": 2002, "pitch": 43, "duration": 20, "velocity": 34}, {"time": 2006, "pitch": 48, "duration": 5, "velocity": 40}, {"time": 2010, "pitch": 64, "duration": 21, "velocity": 73}, {"time": 2014, "pitch": 48, "duration": 8, "velocity": 53}, {"time": 2017, "pitch": 60, "duration": 15, "velocity": 51}, {"time": 2021, "pitch": 36, "duration": 16, "velocity": 62}, {"time": 2030, "pitch": 48, "duration": 8, "velocity": 52}, {"time": 2034, "pitch": 64, "duration": 12, "velocity": 75}, {"time": 2038, "pitch": 55, "duration": 6, "velocity": 64}, {"time": 2042, "pitch": 60, "duration": 4, "velocity": 56}, {"time": 2046, "pitch": 47, "duration": 22, "velocity": 54}, {"time": 2050, "pitch": 54, "duration": 10, "velocity": 44}, {"time": 2054, "pitch": 59, "duration": 9, "velocity": 42}, {"time": 2058, "pitch": 66, "duration": 22, "velocity": 82}, {"time": 2062, "pitch": 54, "duration": 8, "velocity": 51}, {"time": 2066, "pitch": 62, "duration": 14, "velocity": 48}, {"time": 2070, "pitch": 47, "duration": 17, "velocity": 51}, {"time": 2078, "pitch": 54, "duration": 6, "velocity": 42}, {"time": 2082, "pitch": 66, "duration": 12, "velocity": 90}, {"time": 2086, "pitch": 62, "duration": 9, "velocity": 47}, {"time": 2090, "pitch": 59, "duration": 5, "velocity": 51}, {"time": 2094, "pitch": 45, "duration": 18, "velocity": 58}, {"time": 2098, "pitch": 52, "duration": 9, "velocity": 44}, {"time": 2102, "pitch": 57, "duration": 17, "velocity": 52}, {"time": 2106, "pitch": 64, "duration": 12, "velocity": 79}, {"time": 2110, "pitch": 52, "duration": 1, "velocity": 45}, {"time": 2114, "pitch": 60, "duration": 4, "velocity": 50}, {"time": 2118, "pitch": 38, "duration": 18, "velocity": 61}, {"time": 2122, "pitch": 45, "duration": 14, "velocity": 29}, {"time": 2126, "pitch": 50, "duration": 6, "velocity": 41}, {"time": 2130, "pitch": 66, "duration": 13, "velocity": 92}, {"time": 2134, "pitch": 50, "duration": 4, "velocity": 55}, {"time": 2138, "pitch": 62, "duration": 5, "velocity": 60}, {"time": 2142, "pitch": 47, "duration": 19, "velocity": 63}, {"time": 2146, "pitch": 54, "duration": 10, "velocity": 45}, {"time": 2150, "pitch": 59, "duration": 8, "velocity": 54}, {"time": 2154, "pitch": 66, "duration": 9, "velocity": 90}, {"time": 2158, "pitch": 54, "duration": 2, "velocity": 55}, {"time": 2161, "pitch": 62, "duration": 5, "velocity": 64}, {"time": 2165, "pitch": 40, "duration": 16, "velocity": 61}, {"time": 2170, "pitch": 47, "duration": 10, "velocity": 42}, {"time": 2174, "pitch": 52, "duration": 9, "velocity": 56}, {"time": 2178, "pitch": 67, "duration": 12, "velocity": 83}, {"time": 2182, "pitch": 64, "duration": 8, "velocity": 54}, {"time": 2186, "pitch": 59, "duration": 4, "velocity": 56}, {"time": 2190, "pitch": 45, "duration": 22, "velocity": 69}, {"time": 2194, "pitch": 52, "duration": 8, "velocity": 41}, {"time": 2198, "pitch": 57, "duration": 10, "velocity": 58}, {"time": 2202, "pitch": 64, "duration": 22, "velocity": 92}, {"time": 2206, "pitch": 52, "duration": 9, "velocity": 39}, {"time": 2210, "pitch": 57, "duration": 10, "velocity": 23}, {"time": 2210, "pitch": 60, "duration": 14, "velocity": 64}, {"time": 2214, "pitch": 45, "duration": 17, "velocity": 68}, {"time": 2218, "pitch": 52, "duration": 9, "velocity": 56}, {"time": 2222, "pitch": 57, "duration": 10, "velocity": 60}, {"time": 2226, "pitch": 64, "duration": 9, "velocity": 99}, {"time": 2230, "pitch": 52, "duration": 1, "velocity": 37}, {"time": 2234, "pitch": 57, "duration": 3, "velocity": 76}, {"time": 2238, "pitch": 38, "duration": 23, "velocity": 75}, {"time": 2238, "pitch": 57, "duration": 18, "velocity": 78}, {"time": 2238, "pitch": 62, "duration": 11, "velocity": 82}, {"time": 2238, "pitch": 66, "duration": 11, "velocity": 90}, {"time": 2242, "pitch": 45, "duration": 19, "velocity": 48}, {"time": 2246, "pitch": 50, "duration": 6, "velocity": 82}, {"time": 2250, "pitch": 62, "duration": 11, "velocity": 85}, {"time": 2250, "pitch": 66, "duration": 10, "velocity": 90}, {"time": 2254, "pitch": 50, "duration": 6, "velocity": 60}, {"time": 2258, "pitch": 57, "duration": 3, "velocity": 60}, {"time": 2262, "pitch": 38, "duration": 1, "velocity": 49}, {"time": 2262, "pitch": 45, "duration": 2, "velocity": 62}, {"time": 2262, "pitch": 50, "duration": 2, "velocity": 73}, {"time": 2262, "pitch": 57, "duration": 2, "velocity": 76}, {"time": 2262, "pitch": 62, "duration": 2, "velocity": 73}, {"time": 2262, "pitch": 66, "duration": 2, "velocity": 72}, {"time": 2266, "pitch": 38, "duration": 1, "velocity": 47}, {"time": 2266, "pitch": 45, "duration": 2, "velocity": 57}, {"time": 2266, "pitch": 50, "duration": 2, "velocity": 69}, {"time": 2266, "pitch": 57, "duration": 2, "velocity": 60}, {"time": 2266, "pitch": 62, "duration": 2, "velocity": 59}, {"time": 2266, "pitch": 66, "duration": 2, "velocity": 60}, {"time": 2270, "pitch": 38, "duration": 1, "velocity": 47}, {"time": 2270, "pitch": 45, "duration": 2, "velocity": 73}, {"time": 2270, "pitch": 50, "duration": 2, "velocity": 70}, {"time": 2270, "pitch": 57, "duration": 2, "velocity": 76}, {"time": 2270, "pitch": 62, "duration": 2, "velocity": 79}, {"time": 2270, "pitch": 66, "duration": 2, "velocity": 76}, {"time": 2274, "pitch": 38, "duration": 2, "velocity": 66}, {"time": 2274, "pitch": 45, "duration": 2, "velocity": 83}, {"time": 2274, "pitch": 50, "duration": 3, "velocity": 86}, {"time": 2274, "pitch": 57, "duration": 3, "velocity": 85}, {"time": 2274, "pitch": 62, "duration": 3, "velocity": 92}, {"time": 2274, "pitch": 66, "duration": 3, "velocity": 97}, {"time": 2286, "pitch": 36, "duration": 22, "velocity": 77}, {"time": 2289, "pitch": 43, "duration": 21, "velocity": 44}, {"time": 2292, "pitch": 48, "duration": 6, "velocity": 52}, {"time": 2295, "pitch": 55, "duration": 22, "velocity": 52}, {"time": 2298, "pitch": 64, "duration": 21, "velocity": 75}, {"time": 2301, "pitch": 48, "duration": 10, "velocity": 39}, {"time": 2304, "pitch": 59, "duration": 13, "velocity": 45}, {"time": 2307, "pitch": 60, "duration": 9, "velocity": 59}, {"time": 2310, "pitch": 36, "duration": 17, "velocity": 59}, {"time": 2313, "pitch": 43, "duration": 14, "velocity": 37}, {"time": 2316, "pitch": 48, "duration": 7, "velocity": 56}, {"time": 2319, "pitch": 55, "duration": 5, "velocity": 70}, {"time": 2322, "pitch": 64, "duration": 12, "velocity": 73}, {"time": 2325, "pitch": 48, "duration": 3, "velocity": 43}, {"time": 2328, "pitch": 59, "duration": 5, "velocity": 50}, {"time": 2331, "pitch": 60, "duration": 3, "velocity": 56}, {"time": 2334, "pitch": 47, "duration": 17, "velocity": 61}, {"time": 2337, "pitch": 54, "duration": 10, "velocity": 56}, {"time": 2340, "pitch": 59, "duration": 8, "velocity": 58}, {"time": 2343, "pitch": 62, "duration": 3, "velocity": 49}, {"time": 2346, "pitch": 66, "duration": 9, "velocity": 93}, {"time": 2349, "pitch": 54, "duration": 2, "velocity": 73}, {"time": 2352, "pitch": 62, "duration": 5, "velocity": 75}, {"time": 2355, "pitch": 59, "duration": 3, "velocity": 71}, {"time": 2358, "pitch": 40, "duration": 17, "velocity": 66}, {"time": 2361, "pitch": 47, "duration": 15, "velocity": 56}, {"time": 2364, "pitch": 52, "duration": 7, "velocity": 69}, {"time": 2367, "pitch": 59, "duration": 7, "velocity": 81}, {"time": 2370, "pitch": 67, "duration": 12, "velocity": 89}, {"time": 2373, "pitch": 52, "duration": 5, "velocity": 60}, {"time": 2376, "pitch": 64, "duration": 6, "velocity": 66}, {"time": 2379, "pitch": 59, "duration": 3, "velocity": 70}, {"time": 2382, "pitch": 45, "duration": 18, "velocity": 70}, {"time": 2385, "pitch": 52, "duration": 9, "velocity": 50}, {"time": 2388, "pitch": 57, "duration": 4, "velocity": 60}, {"time": 2391, "pitch": 60, "duration": 5, "velocity": 71}, {"time": 2394, "pitch": 64, "duration": 11, "velocity": 89}, {"time": 2397, "pitch": 52, "duration": 2, "velocity": 59}, {"time": 2400, "pitch": 60, "duration": 5, "velocity": 83}, {"time": 2403, "pitch": 57, "duration": 4, "velocity": 62}, {"time": 2406, "pitch": 38, "duration": 17, "velocity": 70}, {"time": 2409, "pitch": 45, "duration": 14, "velocity": 37}, {"time": 2412, "pitch": 50, "duration": 7, "velocity": 72}, {"time": 2415, "pitch": 57, "duration": 7, "velocity": 76}, {"time": 2418, "pitch": 66, "duration": 11, "velocity": 102}, {"time": 2421, "pitch": 50, "duration": 8, "velocity": 81}, {"time": 2424, "pitch": 62, "duration": 6, "velocity": 63}, {"time": 2427, "pitch": 57, "duration": 3, "velocity": 82}, {"time": 2430, "pitch": 43, "duration": 23, "velocity": 72}, {"time": 2433, "pitch": 50, "duration": 21, "velocity": 48}, {"time": 2436, "pitch": 55, "duration": 6, "velocity": 83}, {"time": 2439, "pitch": 59, "duration": 5, "velocity": 82}, {"time": 2442, "pitch": 62, "duration": 7, "velocity": 100}, {"time": 2445, "pitch": 55, "duration": 7, "velocity": 82}, {"time": 2448, "pitch": 59, "duration": 5, "velocity": 93}, {"time": 2451, "pitch": 62, "duration": 2, "velocity": 79}, {"time": 2454, "pitch": 43, "duration": 18, "velocity": 85}, {"time": 2454, "pitch": 59, "duration": 7, "velocity": 75}, {"time": 2454, "pitch": 62, "duration": 9, "velocity": 82}, {"time": 2454, "pitch": 65, "duration": 9, "velocity": 83}, {"time": 2457, "pitch": 50, "duration": 14, "velocity": 43}, {"time": 2460, "pitch": 53, "duration": 16, "velocity": 70}, {"time": 2463, "pitch": 59, "duration": 5, "velocity": 81}, {"time": 2466, "pitch": 62, "duration": 7, "velocity": 74}, {"time": 2466, "pitch": 65, "duration": 11, "velocity": 82}, {"time": 2469, "pitch": 53, "duration": 7, "velocity": 81}, {"time": 2472, "pitch": 59, "duration": 6, "velocity": 88}, {"time": 2475, "pitch": 62, "duration": 3, "velocity": 68}, {"time": 2478, "pitch": 36, "duration": 16, "velocity": 85}, {"time": 2481, "pitch": 43, "duration": 13, "velocity": 59}, {"time": 2484, "pitch": 48, "duration": 9, "velocity": 78}, {"time": 2487, "pitch": 55, "duration": 4, "velocity": 49}, {"time": 2490, "pitch": 64, "duration": 4, "velocity": 93}, {"time": 2493, "pitch": 55, "duration": 2, "velocity": 68}, {"time": 2496, "pitch": 36, "duration": 2, "velocity": 58}, {"time": 2496, "pitch": 48, "duration": 2, "velocity": 85}, {"time": 2496, "pitch": 55, "duration": 2, "velocity": 64}, {"time": 2496, "pitch": 60, "duration": 2, "velocity": 72}, {"time": 2496, "pitch": 64, "duration": 2, "velocity": 72}, {"time": 2499, "pitch": 36, "duration": 19, "velocity": 66}, {"time": 2499, "pitch": 48, "duration": 16, "velocity": 88}, {"time": 2499, "pitch": 55, "duration": 14, "velocity": 83}, {"time": 2499, "pitch": 60, "duration": 13, "velocity": 83}, {"time": 2499, "pitch": 64, "duration": 13, "velocity": 77}, {"time": 2508, "pitch": 43, "duration": 11, "velocity": 43}, {"time": 2514, "pitch": 55, "duration": 2, "velocity": 29}, {"time": 2514, "pitch": 60, "duration": 8, "velocity": 89}, {"time": 2514, "pitch": 64, "duration": 12, "velocity": 95}, {"time": 2517, "pitch": 48, "duration": 3, "velocity": 77}, {"time": 2520, "pitch": 55, "duration": 5, "velocity": 89}, {"time": 2523, "pitch": 60, "duration": 3, "velocity": 63}, {"time": 2526, "pitch": 47, "duration": 13, "velocity": 83}, {"time": 2529, "pitch": 54, "duration": 10, "velocity": 72}, {"time": 2532, "pitch": 59, "duration": 4, "velocity": 66}, {"time": 2534, "pitch": 66, "duration": 4, "velocity": 89}, {"time": 2537, "pitch": 59, "duration": 2, "velocity": 86}, {"time": 2540, "pitch": 66, "duration": 7, "velocity": 96}, {"time": 2540, "pitch": 59, "duration": 8, "velocity": 69}, {"time": 2540, "pitch": 62, "duration": 8, "velocity": 86}, {"time": 2540, "pitch": 47, "duration": 6, "velocity": 79}, {"time": 2550, "pitch": 64, "duration": 8, "velocity": 74}, {"time": 2550, "pitch": 40, "duration": 11, "velocity": 75}, {"time": 2550, "pitch": 59, "duration": 9, "velocity": 71}, {"time": 2550, "pitch": 67, "duration": 8, "velocity": 72}, {"time": 2556, "pitch": 47, "duration": 5, "velocity": 54}, {"time": 2562, "pitch": 47, "duration": 5, "velocity": 48}, {"time": 2562, "pitch": 67, "duration": 3, "velocity": 83}, {"time": 2562, "pitch": 59, "duration": 3, "velocity": 83}, {"time": 2562, "pitch": 64, "duration": 3, "velocity": 90}, {"time": 2562, "pitch": 52, "duration": 10, "velocity": 93}, {"time": 2562, "pitch": 40, "duration": 4, "velocity": 47}, {"time": 2566, "pitch": 59, "duration": 3, "velocity": 79}, {"time": 2566, "pitch": 64, "duration": 3, "velocity": 89}, {"time": 2566, "pitch": 67, "duration": 3, "velocity": 86}, {"time": 2570, "pitch": 59, "duration": 4, "velocity": 78}, {"time": 2570, "pitch": 67, "duration": 3, "velocity": 73}, {"time": 2570, "pitch": 64, "duration": 4, "velocity": 81}, {"time": 2573, "pitch": 45, "duration": 23, "velocity": 77}, {"time": 2580, "pitch": 52, "duration": 7, "velocity": 57}, {"time": 2583, "pitch": 57, "duration": 5, "velocity": 65}, {"time": 2586, "pitch": 64, "duration": 11, "velocity": 93}, {"time": 2589, "pitch": 52, "duration": 8, "velocity": 36}, {"time": 2592, "pitch": 60, "duration": 5, "velocity": 72}, {"time": 2595, "pitch": 57, "duration": 2, "velocity": 85}, {"time": 2598, "pitch": 57, "duration": 26, "velocity": 77}, {"time": 2598, "pitch": 62, "duration": 26, "velocity": 82}, {"time": 2598, "pitch": 60, "duration": 26, "velocity": 86}, {"time": 2598, "pitch": 66, "duration": 27, "velocity": 81}, {"time": 2598, "pitch": 45, "duration": 26, "velocity": 62}, {"time": 2598, "pitch": 50, "duration": 26, "velocity": 67}, {"time": 2598, "pitch": 38, "duration": 27, "velocity": 55}, {"time": 2634, "pitch": 65, "duration": 11, "velocity": 74}, {"time": 2634, "pitch": 62, "duration": 11, "velocity": 79}, {"time": 2634, "pitch": 41, "duration": 11, "velocity": 86}, {"time": 2634, "pitch": 59, "duration": 11, "velocity": 89}, {"time": 2634, "pitch": 55, "duration": 11, "velocity": 74}, {"time": 2634, "pitch": 53, "duration": 11, "velocity": 72}, {"time": 2646, "pitch": 58, "duration": 12, "velocity": 68}, {"time": 2646, "pitch": 39, "duration": 12, "velocity": 67}, {"time": 2646, "pitch": 51, "duration": 12, "velocity": 85}, {"time": 2646, "pitch": 50, "duration": 12, "velocity": 70}, {"time": 2646, "pitch": 55, "duration": 12, "velocity": 68}, {"time": 2658, "pitch": 54, "duration": 9, "velocity": 88}, {"time": 2658, "pitch": 60, "duration": 10, "velocity": 73}, {"time": 2658, "pitch": 50, "duration": 1, "velocity": 81}, {"time": 2658, "pitch": 57, "duration": 10, "velocity": 75}, {"time": 2658, "pitch": 38, "duration": 10, "velocity": 63}, {"time": 2670, "pitch": 36, "duration": 21, "velocity": 76}, {"time": 2673, "pitch": 43, "duration": 20, "velocity": 43}, {"time": 2676, "pitch": 48, "duration": 6, "velocity": 67}, {"time": 2679, "pitch": 55, "duration": 6, "velocity": 52}, {"time": 2682, "pitch": 64, "duration": 18, "velocity": 95}, {"time": 2685, "pitch": 48, "duration": 10, "velocity": 70}, {"time": 2688, "pitch": 60, "duration": 12, "velocity": 61}, {"time": 2691, "pitch": 55, "duration": 4, "velocity": 64}, {"time": 2694, "pitch": 36, "duration": 16, "velocity": 63}, {"time": 2697, "pitch": 43, "duration": 14, "velocity": 49}, {"time": 2700, "pitch": 48, "duration": 7, "velocity": 72}, {"time": 2703, "pitch": 59, "duration": 5, "velocity": 79}, {"time": 2706, "pitch": 64, "duration": 12, "velocity": 92}, {"time": 2709, "pitch": 48, "duration": 4, "velocity": 64}, {"time": 2712, "pitch": 60, "duration": 6, "velocity": 76}, {"time": 2715, "pitch": 59, "duration": 4, "velocity": 56}, {"time": 2718, "pitch": 47, "duration": 19, "velocity": 68}, {"time": 2721, "pitch": 54, "duration": 10, "velocity": 56}, {"time": 2724, "pitch": 59, "duration": 8, "velocity": 59}, {"time": 2727, "pitch": 62, "duration": 5, "velocity": 48}, {"time": 2730, "pitch": 66, "duration": 11, "velocity": 93}, {"time": 2733, "pitch": 54, "duration": 3, "velocity": 65}, {"time": 2736, "pitch": 59, "duration": 7, "velocity": 78}, {"time": 2739, "pitch": 62, "duration": 3, "velocity": 60}, {"time": 2742, "pitch": 40, "duration": 16, "velocity": 58}, {"time": 2745, "pitch": 47, "duration": 13, "velocity": 76}, {"time": 2748, "pitch": 52, "duration": 7, "velocity": 69}, {"time": 2751, "pitch": 59, "duration": 5, "velocity": 67}, {"time": 2754, "pitch": 67, "duration": 11, "velocity": 97}, {"time": 2757, "pitch": 52, "duration": 5, "velocity": 82}, {"time": 2760, "pitch": 64, "duration": 5, "velocity": 69}, {"time": 2763, "pitch": 59, "duration": 3, "velocity": 83}, {"time": 2766, "pitch": 45, "duration": 18, "velocity": 63}, {"time": 2769, "pitch": 52, "duration": 10, "velocity": 41}, {"time": 2772, "pitch": 57, "duration": 3, "velocity": 69}, {"time": 2775, "pitch": 60, "duration": 4, "velocity": 63}, {"time": 2778, "pitch": 64, "duration": 11, "velocity": 95}, {"time": 2781, "pitch": 52, "duration": 2, "velocity": 68}, {"time": 2784, "pitch": 60, "duration": 5, "velocity": 72}, {"time": 2787, "pitch": 57, "duration": 3, "velocity": 75}, {"time": 2790, "pitch": 38, "duration": 17, "velocity": 67}, {"time": 2793, "pitch": 45, "duration": 14, "velocity": 48}, {"time": 2796, "pitch": 50, "duration": 7, "velocity": 75}, {"time": 2799, "pitch": 57, "duration": 7, "velocity": 76}, {"time": 2802, "pitch": 66, "duration": 11, "velocity": 117}, {"time": 2805, "pitch": 50, "duration": 7, "velocity": 85}, {"time": 2808, "pitch": 62, "duration": 7, "velocity": 86}, {"time": 2811, "pitch": 57, "duration": 3, "velocity": 77}, {"time": 2814, "pitch": 43, "duration": 23, "velocity": 72}, {"time": 2817, "pitch": 50, "duration": 21, "velocity": 58}, {"time": 2820, "pitch": 55, "duration": 6, "velocity": 76}, {"time": 2823, "pitch": 59, "duration": 5, "velocity": 82}, {"time": 2826, "pitch": 62, "duration": 7, "velocity": 102}, {"time": 2829, "pitch": 55, "duration": 6, "velocity": 93}, {"time": 2832, "pitch": 59, "duration": 5, "velocity": 88}, {"time": 2835, "pitch": 62, "duration": 2, "velocity": 70}, {"time": 2835, "pitch": 65, "duration": 2, "velocity": 74}, {"time": 2838, "pitch": 43, "duration": 18, "velocity": 92}, {"time": 2838, "pitch": 59, "duration": 10, "velocity": 92}, {"time": 2838, "pitch": 62, "duration": 10, "velocity": 96}, {"time": 2838, "pitch": 65, "duration": 10, "velocity": 97}, {"time": 2844, "pitch": 50, "duration": 11, "velocity": 60}, {"time": 2847, "pitch": 55, "duration": 3, "velocity": 79}, {"time": 2850, "pitch": 59, "duration": 4, "velocity": 93}, {"time": 2850, "pitch": 62, "duration": 7, "velocity": 99}, {"time": 2850, "pitch": 65, "duration": 12, "velocity": 100}, {"time": 2853, "pitch": 55, "duration": 2, "velocity": 99}, {"time": 2856, "pitch": 59, "duration": 6, "velocity": 89}, {"time": 2859, "pitch": 62, "duration": 3, "velocity": 90}, {"time": 2862, "pitch": 36, "duration": 16, "velocity": 71}, {"time": 2862, "pitch": 55, "duration": 7, "velocity": 72}, {"time": 2862, "pitch": 60, "duration": 10, "velocity": 75}, {"time": 2862, "pitch": 64, "duration": 10, "velocity": 72}, {"time": 2865, "pitch": 43, "duration": 13, "velocity": 45}, {"time": 2868, "pitch": 48, "duration": 9, "velocity": 82}, {"time": 2871, "pitch": 55, "duration": 4, "velocity": 65}, {"time": 2874, "pitch": 64, "duration": 4, "velocity": 90}, {"time": 2876, "pitch": 55, "duration": 2, "velocity": 65}, {"time": 2880, "pitch": 55, "duration": 1, "velocity": 66}, {"time": 2880, "pitch": 64, "duration": 1, "velocity": 70}, {"time": 2880, "pitch": 60, "duration": 1, "velocity": 72}, {"time": 2880, "pitch": 48, "duration": 1, "velocity": 78}, {"time": 2880, "pitch": 36, "duration": 1, "velocity": 53}, {"time": 2883, "pitch": 36, "duration": 18, "velocity": 59}, {"time": 2883, "pitch": 55, "duration": 7, "velocity": 81}, {"time": 2883, "pitch": 48, "duration": 15, "velocity": 92}, {"time": 2883, "pitch": 60, "duration": 9, "velocity": 83}, {"time": 2883, "pitch": 64, "duration": 12, "velocity": 74}, {"time": 2891, "pitch": 55, "duration": 5, "velocity": 64}, {"time": 2894, "pitch": 43, "duration": 8, "velocity": 34}, {"time": 2897, "pitch": 64, "duration": 8, "velocity": 88}, {"time": 2897, "pitch": 60, "duration": 11, "velocity": 89}, {"time": 2897, "pitch": 55, "duration": 2, "velocity": 35}, {"time": 2900, "pitch": 48, "duration": 3, "velocity": 81}, {"time": 2904, "pitch": 55, "duration": 2, "velocity": 89}, {"time": 2910, "pitch": 47, "duration": 12, "velocity": 68}, {"time": 2910, "pitch": 66, "duration": 12, "velocity": 68}, {"time": 2910, "pitch": 59, "duration": 12, "velocity": 70}, {"time": 2910, "pitch": 62, "duration": 12, "velocity": 76}, {"time": 2915, "pitch": 54, "duration": 8, "velocity": 44}, {"time": 2924, "pitch": 66, "duration": 6, "velocity": 95}, {"time": 2924, "pitch": 59, "duration": 7, "velocity": 76}, {"time": 2924, "pitch": 62, "duration": 7, "velocity": 88}, {"time": 2924, "pitch": 47, "duration": 6, "velocity": 71}, {"time": 2933, "pitch": 40, "duration": 11, "velocity": 77}, {"time": 2933, "pitch": 64, "duration": 11, "velocity": 75}, {"time": 2933, "pitch": 59, "duration": 11, "velocity": 75}, {"time": 2933, "pitch": 67, "duration": 11, "velocity": 73}, {"time": 2946, "pitch": 59, "duration": 3, "velocity": 81}, {"time": 2946, "pitch": 67, "duration": 3, "velocity": 83}, {"time": 2946, "pitch": 64, "duration": 2, "velocity": 89}, {"time": 2946, "pitch": 52, "duration": 2, "velocity": 76}, {"time": 2946, "pitch": 40, "duration": 3, "velocity": 58}, {"time": 2950, "pitch": 40, "duration": 3, "velocity": 53}, {"time": 2950, "pitch": 59, "duration": 3, "velocity": 83}, {"time": 2950, "pitch": 67, "duration": 3, "velocity": 82}, {"time": 2950, "pitch": 64, "duration": 3, "velocity": 85}, {"time": 2950, "pitch": 52, "duration": 2, "velocity": 83}, {"time": 2954, "pitch": 59, "duration": 2, "velocity": 88}, {"time": 2954, "pitch": 52, "duration": 3, "velocity": 89}, {"time": 2954, "pitch": 64, "duration": 2, "velocity": 69}, {"time": 2954, "pitch": 67, "duration": 1, "velocity": 52}, {"time": 2958, "pitch": 45, "duration": 24, "velocity": 82}, {"time": 2958, "pitch": 60, "duration": 10, "velocity": 79}, {"time": 2958, "pitch": 57, "duration": 10, "velocity": 82}, {"time": 2958, "pitch": 64, "duration": 10, "velocity": 85}, {"time": 2964, "pitch": 52, "duration": 7, "velocity": 55}, {"time": 2970, "pitch": 64, "duration": 13, "velocity": 81}, {"time": 2970, "pitch": 60, "duration": 7, "velocity": 79}, {"time": 2973, "pitch": 52, "duration": 9, "velocity": 48}, {"time": 2976, "pitch": 57, "duration": 6, "velocity": 83}, {"time": 2979, "pitch": 60, "duration": 3, "velocity": 73}, {"time": 2982, "pitch": 66, "duration": 61, "velocity": 62}, {"time": 2982, "pitch": 57, "duration": 1, "velocity": 65}, {"time": 2982, "pitch": 38, "duration": 61, "velocity": 71}, {"time": 2982, "pitch": 62, "duration": 61, "velocity": 66}, {"time": 2988, "pitch": 45, "duration": 55, "velocity": 37}, {"time": 2994, "pitch": 50, "duration": 49, "velocity": 44}, {"time": 3048, "pitch": 79, "duration": 5, "velocity": 78}, {"time": 3053, "pitch": 43, "duration": 49, "velocity": 44}, {"time": 3053, "pitch": 55, "duration": 49, "velocity": 36}, {"time": 3053, "pitch": 62, "duration": 49, "velocity": 37}, {"time": 3053, "pitch": 59, "duration": 49, "velocity": 40}, {"time": 3054, "pitch": 74, "duration": 23, "velocity": 73}, {"time": 3065, "pitch": 74, "duration": 12, "velocity": 74}, {"time": 3065, "pitch": 86, "duration": 38, "velocity": 81}, {"time": 3097, "pitch": 72, "duration": 11, "velocity": 83}, {"time": 3098, "pitch": 60, "duration": 51, "velocity": 55}, {"time": 3099, "pitch": 55, "duration": 3, "velocity": 37}, {"time": 3099, "pitch": 64, "duration": 50, "velocity": 42}, {"time": 3099, "pitch": 36, "duration": 50, "velocity": 35}, {"time": 3099, "pitch": 48, "duration": 50, "velocity": 33}, {"time": 3110, "pitch": 72, "duration": 7, "velocity": 71}, {"time": 3117, "pitch": 74, "duration": 33, "velocity": 64}, {"time": 3149, "pitch": 60, "duration": 1, "velocity": 39}, {"time": 3149, "pitch": 41, "duration": 52, "velocity": 34}, {"time": 3149, "pitch": 65, "duration": 19, "velocity": 38}, {"time": 3149, "pitch": 53, "duration": 51, "velocity": 40}, {"time": 3149, "pitch": 69, "duration": 52, "velocity": 35}, {"time": 3150, "pitch": 48, "duration": 51, "velocity": 40}, {"time": 3150, "pitch": 67, "duration": 8, "velocity": 82}, {"time": 3156, "pitch": 72, "duration": 6, "velocity": 54}, {"time": 3162, "pitch": 65, "duration": 6, "velocity": 58}, {"time": 3168, "pitch": 67, "duration": 27, "velocity": 53}, {"time": 3195, "pitch": 69, "duration": 6, "velocity": 36}, {"time": 3201, "pitch": 67, "duration": 11, "velocity": 43}, {"time": 3202, "pitch": 69, "duration": 76, "velocity": 55}, {"time": 3203, "pitch": 71, "duration": 81, "velocity": 59}, {"time": 3204, "pitch": 55, "duration": 88, "velocity": 44}, {"time": 3204, "pitch": 50, "duration": 87, "velocity": 38}, {"time": 3204, "pitch": 74, "duration": 81, "velocity": 88}, {"time": 3204, "pitch": 43, "duration": 87, "velocity": 32}, {"time": 3205, "pitch": 59, "duration": 87, "velocity": 43}, {"time": 3206, "pitch": 62, "duration": 86, "velocity": 61}], "annotations": [{"time": 23, "annotation": {"number": 64, "value": 127}, "group": "control_change"}, {"time": 35, "annotation": {"number": 64, "value": 0}, "group": "control_change"}, {"time": 37, "annotation": {"number": 64, "value": 127}, "group": "control_change"}, {"time": 52, "annotation": {"number": 64, "value": 0}, "group": "control_change"}, {"time": 55, "annotation": {"number": 64, "value": 127}, "group": "control_change"}, {"time": 70, "annotation": {"number": 64, "value": 0}, "group": "control_change"}, {"time": 73, "annotation": {"number": 64, "value": 127}, "group": "control_change"}, {"time": 87, "annotation": {"number": 64, "value": 0}, "group": "control_change"}, {"time": 91, "annotation": {"number": 64, "value": 127}, "group": "control_change"}, {"time": 107, "annotation": {"number": 64, "value": 0}, "group": "control_change"}, {"time": 115, "annotation": {"number": 64, "value": 127}, "group": "control_change"}, {"time": 123, "annotation": {"number": 64, "value": 0}, "group": "control_change"}, {"time": 174, "annotation": {"number": 64, "value": 127}, "group": "control_change"}, {"time": 215, "annotation": {"number": 64, "value": 0}, "group": "control_change"}, {"time": 218, "annotation": {"number": 64, "value": 127}, "group": "control_change"}, {"time": 243, "annotation": {"number": 64, "value": 0}, "group": "control_change"}, {"time": 258, "annotation": {"number": 64, "value": 127}, "group": "control_change"}, {"time": 279, "annotation": {"number": 64, "value": 0}, "group": "control_change"}, {"time": 285, "annotation": {"number": 64, "value": 127}, "group": "control_change"}, {"time": 317, "annotation": {"number": 64, "value": 127}, "group": "control_change"}, {"time": 335, "annotation": {"number": 64, "value": 0}, "group": "control_change"}, {"time": 337, "annotation": {"number": 64, "value": 127}, "group": "control_change"}, {"time": 352, "annotation": {"number": 64, "value": 0}, "group": "control_change"}, {"time": 356, "annotation": {"number": 64, "value": 127}, "group": "control_change"}, {"time": 371, "annotation": {"number": 64, "value": 0}, "group": "control_change"}, {"time": 379, "annotation": {"number": 64, "value": 127}, "group": "control_change"}, {"time": 389, "annotation": {"number": 64, "value": 0}, "group": "control_change"}, {"time": 402, "annotation": {"number": 64, "value": 127}, "group": "control_change"}, {"time": 412, "annotation": {"number": 64, "value": 0}, "group": "control_change"}, {"time": 425, "annotation": {"number": 64, "value": 127}, "group": "control_change"}, {"time": 435, "annotation": {"number": 64, "value": 0}, "group": "control_change"}, {"time": 449, "annotation": {"number": 64, "value": 127}, "group": "control_change"}, {"time": 460, "annotation": {"number": 64, "value": 0}, "group": "control_change"}, {"time": 500, "annotation": {"number": 64, "value": 127}, "group": "control_change"}, {"time": 534, "annotation": {"number": 64, "value": 0}, "group": "control_change"}, {"time": 537, "annotation": {"number": 64, "value": 127}, "group": "control_change"}, {"time": 572, "annotation": {"number": 64, "value": 0}, "group": "control_change"}, {"time": 574, "annotation": {"number": 64, "value": 127}, "group": "control_change"}, {"time": 603, "annotation": {"number": 64, "value": 0}, "group": "control_change"}, {"time": 612, "annotation": {"number": 64, "value": 127}, "group": "control_change"}, {"time": 619, "annotation": {"number": 64, "value": 0}, "group": "control_change"}, {"time": 624, "annotation": {"number": 64, "value": 127}, "group": "control_change"}, {"time": 639, "annotation": {"number": 64, "value": 0}, "group": "control_change"}, {"time": 642, "annotation": {"number": 64, "value": 127}, "group": "control_change"}, {"time": 660, "annotation": {"number": 64, "value": 0}, "group": "control_change"}, {"time": 663, "annotation": {"number": 64, "value": 127}, "group": "control_change"}, {"time": 676, "annotation": {"number": 64, "value": 0}, "group": "control_change"}, {"time": 679, "annotation": {"number": 64, "value": 127}, "group": "control_change"}, {"time": 695, "annotation": {"number": 64, "value": 0}, "group": "control_change"}, {"time": 742, "annotation": {"number": 64, "value": 127}, "group": "control_change"}, {"time": 744, "annotation": {"number": 64, "value": 0}, "group": "control_change"}, {"time": 750, "annotation": {"number": 64, "value": 127}, "group": "control_change"}, {"time": 772, "annotation": {"number": 64, "value": 0}, "group": "control_change"}, {"time": 774, "annotation": {"number": 64, "value": 127}, "group": "control_change"}, {"time": 784, "annotation": {"number": 64, "value": 0}, "group": "control_change"}, {"time": 798, "annotation": {"number": 64, "value": 127}, "group": "control_change"}, {"time": 819, "annotation": {"number": 64, "value": 0}, "group": "control_change"}, {"time": 822, "annotation": {"number": 64, "value": 127}, "group": "control_change"}, {"time": 843, "annotation": {"number": 64, "value": 0}, "group": "control_change"}, {"time": 847, "annotation": {"number": 64, "value": 127}, "group": "control_change"}, {"time": 867, "annotation": {"number": 64, "value": 0}, "group": "control_change"}, {"time": 870, "annotation": {"number": 64, "value": 127}, "group": "control_change"}, {"time": 891, "annotation": {"number": 64, "value": 0}, "group": "control_change"}, {"time": 894, "annotation": {"number": 64, "value": 127}, "group": "control_change"}, {"time": 916, "annotation": {"number": 64, "value": 0}, "group": "control_change"}, {"time": 918, "annotation": {"number": 64, "value": 127}, "group": "control_change"}, {"time": 940, "annotation": {"number": 64, "value": 0}, "group": "control_change"}, {"time": 942, "annotation": {"number": 64, "value": 127}, "group": "control_change"}, {"time": 964, "annotation": {"number": 64, "value": 0}, "group": "control_change"}, {"time": 966, "annotation": {"number": 64, "value": 127}, "group": "control_change"}, {"time": 988, "annotation": {"number": 64, "value": 0}, "group": "control_change"}, {"time": 990, "annotation": {"number": 64, "value": 127}, "group": "control_change"}, {"time": 1002, "annotation": {"number": 64, "value": 0}, "group": "control_change"}, {"time": 1003, "annotation": {"number": 64, "value": 127}, "group": "control_change"}, {"time": 1011, "annotation": {"number": 64, "value": 0}, "group": "control_change"}, {"time": 1014, "annotation": {"number": 64, "value": 127}, "group": "control_change"}, {"time": 1036, "annotation": {"number": 64, "value": 0}, "group": "control_change"}, {"time": 1038, "annotation": {"number": 64, "value": 127}, "group": "control_change"}, {"time": 1060, "annotation": {"number": 64, "value": 0}, "group": "control_change"}, {"time": 1062, "annotation": {"number": 64, "value": 127}, "group": "control_change"}, {"time": 1095, "annotation": {"number": 64, "value": 0}, "group": "control_change"}, {"time": 1135, "annotation": {"number": 64, "value": 127}, "group": "control_change"}, {"time": 1156, "annotation": {"number": 64, "value": 0}, "group": "control_change"}, {"time": 1158, "annotation": {"number": 64, "value": 127}, "group": "control_change"}, {"time": 1180, "annotation": {"number": 64, "value": 0}, "group": "control_change"}, {"time": 1182, "annotation": {"number": 64, "value": 127}, "group": "control_change"}, {"time": 1194, "annotation": {"number": 64, "value": 0}, "group": "control_change"}, {"time": 1195, "annotation": {"number": 64, "value": 127}, "group": "control_change"}, {"time": 1202, "annotation": {"number": 64, "value": 0}, "group": "control_change"}, {"time": 1207, "annotation": {"number": 64, "value": 127}, "group": "control_change"}, {"time": 1228, "annotation": {"number": 64, "value": 0}, "group": "control_change"}, {"time": 1230, "annotation": {"number": 64, "value": 127}, "group": "control_change"}, {"time": 1241, "annotation": {"number": 64, "value": 0}, "group": "control_change"}, {"time": 1242, "annotation": {"number": 64, "value": 127}, "group": "control_change"}, {"time": 1250, "annotation": {"number": 64, "value": 0}, "group": "control_change"}, {"time": 1253, "annotation": {"number": 64, "value": 127}, "group": "control_change"}, {"time": 1276, "annotation": {"number": 64, "value": 0}, "group": "control_change"}, {"time": 1278, "annotation": {"number": 64, "value": 127}, "group": "control_change"}, {"time": 1300, "annotation": {"number": 64, "value": 0}, "group": "control_change"}, {"time": 1302, "annotation": {"number": 64, "value": 127}, "group": "control_change"}, {"time": 1325, "annotation": {"number": 64, "value": 0}, "group": "control_change"}, {"time": 1327, "annotation": {"number": 64, "value": 127}, "group": "control_change"}, {"time": 1348, "annotation": {"number": 64, "value": 0}, "group": "control_change"}, {"time": 1350, "annotation": {"number": 64, "value": 127}, "group": "control_change"}, {"time": 1372, "annotation": {"number": 64, "value": 0}, "group": "control_change"}, {"time": 1374, "annotation": {"number": 64, "value": 127}, "group": "control_change"}, {"time": 1386, "annotation": {"number": 64, "value": 0}, "group": "control_change"}, {"time": 1386, "annotation": {"number": 64, "value": 127}, "group": "control_change"}, {"time": 1394, "annotation": {"number": 64, "value": 0}, "group": "control_change"}, {"time": 1396, "annotation": {"number": 64, "value": 127}, "group": "control_change"}, {"time": 1420, "annotation": {"number": 64, "value": 0}, "group": "control_change"}, {"time": 1422, "annotation": {"number": 64, "value": 127}, "group": "control_change"}, {"time": 1445, "annotation": {"number": 64, "value": 0}, "group": "control_change"}, {"time": 1446, "annotation": {"number": 64, "value": 127}, "group": "control_change"}, {"time": 1468, "annotation": {"number": 64, "value": 0}, "group": "control_change"}, {"time": 1470, "annotation": {"number": 64, "value": 127}, "group": "control_change"}, {"time": 1515, "annotation": {"number": 64, "value": 0}, "group": "control_change"}, {"time": 1519, "annotation": {"number": 64, "value": 127}, "group": "control_change"}, {"time": 1540, "annotation": {"number": 64, "value": 0}, "group": "control_change"}, {"time": 1543, "annotation": {"number": 64, "value": 127}, "group": "control_change"}, {"time": 1565, "annotation": {"number": 64, "value": 0}, "group": "control_change"}, {"time": 1566, "annotation": {"number": 64, "value": 127}, "group": "control_change"}, {"time": 1589, "annotation": {"number": 64, "value": 0}, "group": "control_change"}, {"time": 1590, "annotation": {"number": 64, "value": 127}, "group": "control_change"}, {"time": 1612, "annotation": {"number": 64, "value": 0}, "group": "control_change"}, {"time": 1614, "annotation": {"number": 64, "value": 127}, "group": "control_change"}, {"time": 1636, "annotation": {"number": 64, "value": 0}, "group": "control_change"}, {"time": 1638, "annotation": {"number": 64, "value": 127}, "group": "control_change"}, {"time": 1661, "annotation": {"number": 64, "value": 0}, "group": "control_change"}, {"time": 1662, "annotation": {"number": 64, "value": 127}, "group": "control_change"}, {"time": 1684, "annotation": {"number": 64, "value": 0}, "group": "control_change"}, {"time": 1686, "annotation": {"number": 64, "value": 127}, "group": "control_change"}, {"time": 1709, "annotation": {"number": 64, "value": 0}, "group": "control_change"}, {"time": 1710, "annotation": {"number": 64, "value": 127}, "group": "control_change"}, {"time": 1733, "annotation": {"number": 64, "value": 0}, "group": "control_change"}, {"time": 1734, "annotation": {"number": 64, "value": 127}, "group": "control_change"}, {"time": 1757, "annotation": {"number": 64, "value": 0}, "group": "control_change"}, {"time": 1758, "annotation": {"number": 64, "value": 127}, "group": "control_change"}, {"time": 1780, "annotation": {"number": 64, "value": 0}, "group": "control_change"}, {"time": 1782, "annotation": {"number": 64, "value": 127}, "group": "control_change"}, {"time": 1805, "annotation": {"number": 64, "value": 0}, "group": "control_change"}, {"time": 1808, "annotation": {"number": 64, "value": 127}, "group": "control_change"}, {"time": 1828, "annotation": {"number": 64, "value": 0}, "group": "control_change"}, {"time": 1830, "annotation": {"number": 64, "value": 127}, "group": "control_change"}, {"time": 1852, "annotation": {"number": 64, "value": 0}, "group": "control_change"}, {"time": 1854, "annotation": {"number": 64, "value": 127}, "group": "control_change"}, {"time": 1876, "annotation": {"number": 64, "value": 0}, "group": "control_change"}, {"time": 1878, "annotation": {"number": 64, "value": 127}, "group": "control_change"}, {"time": 1898, "annotation": {"number": 64, "value": 0}, "group": "control_change"}, {"time": 1903, "annotation": {"number": 64, "value": 127}, "group": "control_change"}, {"time": 1924, "annotation": {"number": 64, "value": 0}, "group": "control_change"}, {"time": 1927, "annotation": {"number": 64, "value": 127}, "group": "control_change"}, {"time": 1949, "annotation": {"number": 64, "value": 0}, "group": "control_change"}, {"time": 1950, "annotation": {"number": 64, "value": 127}, "group": "control_change"}, {"time": 1973, "annotation": {"number": 64, "value": 0}, "group": "control_change"}, {"time": 1974, "annotation": {"number": 64, "value": 127}, "group": "control_change"}, {"time": 1996, "annotation": {"number": 64, "value": 0}, "group": "control_change"}, {"time": 1998, "annotation": {"number": 64, "value": 127}, "group": "control_change"}, {"time": 2020, "annotation": {"number": 64, "value": 0}, "group": "control_change"}, {"time": 2022, "annotation": {"number": 64, "value": 127}, "group": "control_change"}, {"time": 2045, "annotation": {"number": 64, "value": 0}, "group": "control_change"}, {"time": 2046, "annotation": {"number": 64, "value": 127}, "group": "control_change"}, {"time": 2068, "annotation": {"number": 64, "value": 0}, "group": "control_change"}, {"time": 2070, "annotation": {"number": 64, "value": 127}, "group": "control_change"}, {"time": 2093, "annotation": {"number": 64, "value": 0}, "group": "control_change"}, {"time": 2094, "annotation": {"number": 64, "value": 127}, "group": "control_change"}, {"time": 2117, "annotation": {"number": 64, "value": 0}, "group": "control_change"}, {"time": 2118, "annotation": {"number": 64, "value": 127}, "group": "control_change"}, {"time": 2141, "annotation": {"number": 64, "value": 0}, "group": "control_change"}, {"time": 2142, "annotation": {"number": 64, "value": 127}, "group": "control_change"}, {"time": 2164, "annotation": {"number": 64, "value": 0}, "group": "control_change"}, {"time": 2166, "annotation": {"number": 64, "value": 127}, "group": "control_change"}, {"time": 2189, "annotation": {"number": 64, "value": 0}, "group": "control_change"}, {"time": 2190, "annotation": {"number": 64, "value": 127}, "group": "control_change"}, {"time": 2211, "annotation": {"number": 64, "value": 0}, "group": "control_change"}, {"time": 2214, "annotation": {"number": 64, "value": 127}, "group": "control_change"}, {"time": 2236, "annotation": {"number": 64, "value": 0}, "group": "control_change"}, {"time": 2238, "annotation": {"number": 64, "value": 127}, "group": "control_change"}, {"time": 2261, "annotation": {"number": 64, "value": 0}, "group": "control_change"}, {"time": 2267, "annotation": {"number": 64, "value": 127}, "group": "control_change"}, {"time": 2269, "annotation": {"number": 64, "value": 0}, "group": "control_change"}, {"time": 2287, "annotation": {"number": 64, "value": 127}, "group": "control_change"}, {"time": 2309, "annotation": {"number": 64, "value": 0}, "group": "control_change"}, {"time": 2310, "annotation": {"number": 64, "value": 127}, "group": "control_change"}, {"time": 2333, "annotation": {"number": 64, "value": 0}, "group": "control_change"}, {"time": 2335, "annotation": {"number": 64, "value": 127}, "group": "control_change"}, {"time": 2356, "annotation": {"number": 64, "value": 0}, "group": "control_change"}, {"time": 2358, "annotation": {"number": 64, "value": 127}, "group": "control_change"}, {"time": 2381, "annotation": {"number": 64, "value": 0}, "group": "control_change"}, {"time": 2382, "annotation": {"number": 64, "value": 127}, "group": "control_change"}, {"time": 2405, "annotation": {"number": 64, "value": 0}, "group": "control_change"}, {"time": 2407, "annotation": {"number": 64, "value": 127}, "group": "control_change"}, {"time": 2429, "annotation": {"number": 64, "value": 0}, "group": "control_change"}, {"time": 2431, "annotation": {"number": 64, "value": 127}, "group": "control_change"}, {"time": 2453, "annotation": {"number": 64, "value": 0}, "group": "control_change"}, {"time": 2455, "annotation": {"number": 64, "value": 127}, "group": "control_change"}, {"time": 2477, "annotation": {"number": 64, "value": 0}, "group": "control_change"}, {"time": 2479, "annotation": {"number": 64, "value": 127}, "group": "control_change"}, {"time": 2494, "annotation": {"number": 64, "value": 0}, "group": "control_change"}, {"time": 2501, "annotation": {"number": 64, "value": 127}, "group": "control_change"}, {"time": 2524, "annotation": {"number": 64, "value": 0}, "group": "control_change"}, {"time": 2526, "annotation": {"number": 64, "value": 127}, "group": "control_change"}, {"time": 2536, "annotation": {"number": 64, "value": 0}, "group": "control_change"}, {"time": 2549, "annotation": {"number": 64, "value": 127}, "group": "control_change"}, {"time": 2572, "annotation": {"number": 64, "value": 0}, "group": "control_change"}, {"time": 2574, "annotation": {"number": 64, "value": 127}, "group": "control_change"}, {"time": 2596, "annotation": {"number": 64, "value": 0}, "group": "control_change"}, {"time": 2671, "annotation": {"number": 64, "value": 127}, "group": "control_change"}, {"time": 2692, "annotation": {"number": 64, "value": 0}, "group": "control_change"}, {"time": 2694, "annotation": {"number": 64, "value": 127}, "group": "control_change"}, {"time": 2717, "annotation": {"number": 64, "value": 0}, "group": "control_change"}, {"time": 2718, "annotation": {"number": 64, "value": 127}, "group": "control_change"}, {"time": 2741, "annotation": {"number": 64, "value": 0}, "group": "control_change"}, {"time": 2742, "annotation": {"number": 64, "value": 127}, "group": "control_change"}, {"time": 2764, "annotation": {"number": 64, "value": 0}, "group": "control_change"}, {"time": 2766, "annotation": {"number": 64, "value": 127}, "group": "control_change"}, {"time": 2788, "annotation": {"number": 64, "value": 0}, "group": "control_change"}, {"time": 2790, "annotation": {"number": 64, "value": 127}, "group": "control_change"}, {"time": 2812, "annotation": {"number": 64, "value": 0}, "group": "control_change"}, {"time": 2814, "annotation": {"number": 64, "value": 127}, "group": "control_change"}, {"time": 2837, "annotation": {"number": 64, "value": 0}, "group": "control_change"}, {"time": 2839, "annotation": {"number": 64, "value": 127}, "group": "control_change"}, {"time": 2861, "annotation": {"number": 64, "value": 0}, "group": "control_change"}, {"time": 2862, "annotation": {"number": 64, "value": 127}, "group": "control_change"}, {"time": 2879, "annotation": {"number": 64, "value": 0}, "group": "control_change"}, {"time": 2885, "annotation": {"number": 64, "value": 127}, "group": "control_change"}, {"time": 2908, "annotation": {"number": 64, "value": 0}, "group": "control_change"}, {"time": 2910, "annotation": {"number": 64, "value": 127}, "group": "control_change"}, {"time": 2921, "annotation": {"number": 64, "value": 0}, "group": "control_change"}, {"time": 2933, "annotation": {"number": 64, "value": 127}, "group": "control_change"}, {"time": 2944, "annotation": {"number": 64, "value": 0}, "group": "control_change"}, {"time": 2946, "annotation": {"number": 64, "value": 127}, "group": "control_change"}, {"time": 2956, "annotation": {"number": 64, "value": 0}, "group": "control_change"}, {"time": 2958, "annotation": {"number": 64, "value": 127}, "group": "control_change"}, {"time": 2979, "annotation": {"number": 64, "value": 0}, "group": "control_change"}, {"time": 2989, "annotation": {"number": 64, "value": 127}, "group": "control_change"}, {"time": 3038, "annotation": {"number": 64, "value": 0}, "group": "control_change"}]}]}