{"metadata": {"schema_version": "0.2", "title": "None", "source_filename": "486.mid", "source_format": "midi"}, "resolution": 12, "tempos": [{"time": 0, "qpm": 70.00007000007}], "time_signatures": [{"time": 0, "numerator": 1, "denominator": 4}], "tracks": [{"program": 0, "is_drum": false, "name": "MELODY", "notes": [{"time": 426, "pitch": 60, "duration": 5, "velocity": 81}, {"time": 432, "pitch": 63, "duration": 2, "velocity": 86}, {"time": 435, "pitch": 63, "duration": 7, "velocity": 79}, {"time": 444, "pitch": 65, "duration": 6, "velocity": 86}, {"time": 450, "pitch": 63, "duration": 14, "velocity": 90}, {"time": 474, "pitch": 58, "duration": 5, "velocity": 95}, {"time": 480, "pitch": 60, "duration": 10, "velocity": 77}, {"time": 492, "pitch": 58, "duration": 6, "velocity": 77}, {"time": 498, "pitch": 56, "duration": 17, "velocity": 65}, {"time": 522, "pitch": 56, "duration": 5, "velocity": 92}, {"time": 528, "pitch": 58, "duration": 5, "velocity": 72}, {"time": 534, "pitch": 60, "duration": 6, "velocity": 78}, {"time": 540, "pitch": 68, "duration": 6, "velocity": 99}, {"time": 546, "pitch": 67, "duration": 9, "velocity": 93}, {"time": 552, "pitch": 65, "duration": 10, "velocity": 89}, {"time": 564, "pitch": 67, "duration": 3, "velocity": 96}, {"time": 567, "pitch": 65, "duration": 3, "velocity": 76}, {"time": 570, "pitch": 63, "duration": 26, "velocity": 83}, {"time": 618, "pitch": 65, "duration": 6, "velocity": 93}, {"time": 624, "pitch": 68, "duration": 10, "velocity": 97}, {"time": 636, "pitch": 70, "duration": 6, "velocity": 99}, {"time": 642, "pitch": 68, "duration": 12, "velocity": 90}, {"time": 666, "pitch": 63, "duration": 5, "velocity": 92}, {"time": 672, "pitch": 65, "duration": 11, "velocity": 78}, {"time": 684, "pitch": 63, "duration": 6, "velocity": 88}, {"time": 690, "pitch": 60, "duration": 13, "velocity": 75}, {"time": 714, "pitch": 58, "duration": 3, "velocity": 96}, {"time": 720, "pitch": 60, "duration": 4, "velocity": 77}, {"time": 726, "pitch": 63, "duration": 4, "velocity": 92}, {"time": 732, "pitch": 60, "duration": 5, "velocity": 88}, {"time": 738, "pitch": 60, "duration": 6, "velocity": 92}, {"time": 744, "pitch": 58, "duration": 11, "velocity": 72}, {"time": 756, "pitch": 56, "duration": 6, "velocity": 89}, {"time": 762, "pitch": 58, "duration": 34, "velocity": 78}, {"time": 810, "pitch": 60, "duration": 6, "velocity": 97}, {"time": 816, "pitch": 63, "duration": 10, "velocity": 93}, {"time": 828, "pitch": 65, "duration": 5, "velocity": 100}, {"time": 834, "pitch": 63, "duration": 14, "velocity": 95}, {"time": 858, "pitch": 58, "duration": 5, "velocity": 95}, {"time": 864, "pitch": 60, "duration": 10, "velocity": 77}, {"time": 876, "pitch": 58, "duration": 6, "velocity": 77}, {"time": 882, "pitch": 56, "duration": 17, "velocity": 65}, {"time": 906, "pitch": 56, "duration": 5, "velocity": 92}, {"time": 912, "pitch": 58, "duration": 5, "velocity": 72}, {"time": 918, "pitch": 60, "duration": 6, "velocity": 78}, {"time": 924, "pitch": 68, "duration": 6, "velocity": 99}, {"time": 930, "pitch": 67, "duration": 9, "velocity": 93}, {"time": 936, "pitch": 65, "duration": 10, "velocity": 89}, {"time": 948, "pitch": 60, "duration": 6, "velocity": 97}, {"time": 954, "pitch": 63, "duration": 30, "velocity": 117}, {"time": 1002, "pitch": 65, "duration": 6, "velocity": 93}, {"time": 1008, "pitch": 68, "duration": 10, "velocity": 97}, {"time": 1020, "pitch": 70, "duration": 6, "velocity": 99}, {"time": 1026, "pitch": 68, "duration": 12, "velocity": 90}, {"time": 1050, "pitch": 63, "duration": 5, "velocity": 92}, {"time": 1056, "pitch": 65, "duration": 11, "velocity": 78}, {"time": 1068, "pitch": 63, "duration": 6, "velocity": 88}, {"time": 1074, "pitch": 60, "duration": 13, "velocity": 75}, {"time": 1098, "pitch": 58, "duration": 3, "velocity": 96}, {"time": 1104, "pitch": 60, "duration": 4, "velocity": 77}, {"time": 1110, "pitch": 63, "duration": 4, "velocity": 92}, {"time": 1116, "pitch": 65, "duration": 4, "velocity": 96}, {"time": 1122, "pitch": 60, "duration": 5, "velocity": 92}, {"time": 1128, "pitch": 58, "duration": 9, "velocity": 78}, {"time": 1140, "pitch": 60, "duration": 5, "velocity": 95}, {"time": 1146, "pitch": 56, "duration": 29, "velocity": 76}, {"time": 1182, "pitch": 70, "duration": 6, "velocity": 127}, {"time": 1188, "pitch": 72, "duration": 3, "velocity": 102}, {"time": 1191, "pitch": 70, "duration": 2, "velocity": 122}, {"time": 1194, "pitch": 68, "duration": 15, "velocity": 127}, {"time": 1212, "pitch": 70, "duration": 3, "velocity": 127}, {"time": 1218, "pitch": 72, "duration": 3, "velocity": 127}, {"time": 1224, "pitch": 67, "duration": 5, "velocity": 127}, {"time": 1230, "pitch": 65, "duration": 4, "velocity": 127}, {"time": 1236, "pitch": 60, "duration": 5, "velocity": 107}, {"time": 1242, "pitch": 63, "duration": 17, "velocity": 122}, {"time": 1278, "pitch": 68, "duration": 4, "velocity": 127}, {"time": 1284, "pitch": 67, "duration": 5, "velocity": 112}, {"time": 1290, "pitch": 65, "duration": 10, "velocity": 99}, {"time": 1302, "pitch": 65, "duration": 4, "velocity": 99}, {"time": 1308, "pitch": 63, "duration": 4, "velocity": 99}, {"time": 1314, "pitch": 65, "duration": 5, "velocity": 102}, {"time": 1320, "pitch": 60, "duration": 5, "velocity": 102}, {"time": 1326, "pitch": 63, "duration": 8, "velocity": 117}, {"time": 1332, "pitch": 60, "duration": 5, "velocity": 95}, {"time": 1338, "pitch": 58, "duration": 19, "velocity": 97}, {"time": 1374, "pitch": 60, "duration": 5, "velocity": 100}, {"time": 1380, "pitch": 58, "duration": 5, "velocity": 122}, {"time": 1386, "pitch": 56, "duration": 8, "velocity": 107}, {"time": 1404, "pitch": 58, "duration": 4, "velocity": 99}, {"time": 1410, "pitch": 60, "duration": 4, "velocity": 102}, {"time": 1416, "pitch": 68, "duration": 4, "velocity": 112}, {"time": 1422, "pitch": 67, "duration": 5, "velocity": 99}, {"time": 1428, "pitch": 63, "duration": 4, "velocity": 107}, {"time": 1434, "pitch": 65, "duration": 23, "velocity": 102}, {"time": 1470, "pitch": 70, "duration": 4, "velocity": 122}, {"time": 1476, "pitch": 68, "duration": 4, "velocity": 117}, {"time": 1482, "pitch": 70, "duration": 9, "velocity": 127}, {"time": 1494, "pitch": 70, "duration": 4, "velocity": 112}, {"time": 1500, "pitch": 68, "duration": 4, "velocity": 122}, {"time": 1506, "pitch": 60, "duration": 5, "velocity": 112}, {"time": 1512, "pitch": 60, "duration": 4, "velocity": 107}, {"time": 1518, "pitch": 67, "duration": 4, "velocity": 99}, {"time": 1524, "pitch": 65, "duration": 5, "velocity": 97}, {"time": 1530, "pitch": 63, "duration": 21, "velocity": 99}, {"time": 1566, "pitch": 70, "duration": 5, "velocity": 127}, {"time": 1572, "pitch": 72, "duration": 2, "velocity": 107}, {"time": 1575, "pitch": 70, "duration": 3, "velocity": 107}, {"time": 1578, "pitch": 68, "duration": 13, "velocity": 117}, {"time": 1596, "pitch": 70, "duration": 4, "velocity": 127}, {"time": 1602, "pitch": 72, "duration": 4, "velocity": 122}, {"time": 1608, "pitch": 67, "duration": 5, "velocity": 122}, {"time": 1614, "pitch": 65, "duration": 4, "velocity": 112}, {"time": 1620, "pitch": 63, "duration": 5, "velocity": 112}, {"time": 1626, "pitch": 65, "duration": 14, "velocity": 107}, {"time": 1662, "pitch": 65, "duration": 4, "velocity": 100}, {"time": 1668, "pitch": 68, "duration": 4, "velocity": 117}, {"time": 1674, "pitch": 70, "duration": 4, "velocity": 122}, {"time": 1686, "pitch": 70, "duration": 3, "velocity": 127}, {"time": 1692, "pitch": 72, "duration": 4, "velocity": 117}, {"time": 1698, "pitch": 70, "duration": 4, "velocity": 127}, {"time": 1704, "pitch": 67, "duration": 4, "velocity": 100}, {"time": 1710, "pitch": 60, "duration": 4, "velocity": 107}, {"time": 1716, "pitch": 65, "duration": 5, "velocity": 100}, {"time": 1722, "pitch": 63, "duration": 11, "velocity": 122}, {"time": 1758, "pitch": 56, "duration": 4, "velocity": 97}, {"time": 1764, "pitch": 58, "duration": 3, "velocity": 112}, {"time": 1770, "pitch": 60, "duration": 13, "velocity": 122}, {"time": 1788, "pitch": 63, "duration": 4, "velocity": 122}, {"time": 1794, "pitch": 63, "duration": 4, "velocity": 117}, {"time": 1800, "pitch": 68, "duration": 3, "velocity": 117}, {"time": 1806, "pitch": 67, "duration": 3, "velocity": 107}, {"time": 1812, "pitch": 63, "duration": 3, "velocity": 102}, {"time": 1818, "pitch": 65, "duration": 20, "velocity": 117}, {"time": 1854, "pitch": 65, "duration": 4, "velocity": 102}, {"time": 1860, "pitch": 68, "duration": 4, "velocity": 107}, {"time": 1866, "pitch": 70, "duration": 1, "velocity": 122}, {"time": 1872, "pitch": 70, "duration": 4, "velocity": 127}, {"time": 1884, "pitch": 67, "duration": 4, "velocity": 99}, {"time": 1890, "pitch": 65, "duration": 9, "velocity": 99}, {"time": 1902, "pitch": 63, "duration": 4, "velocity": 95}, {"time": 1908, "pitch": 65, "duration": 4, "velocity": 99}, {"time": 1914, "pitch": 68, "duration": 31, "velocity": 112}, {"time": 2346, "pitch": 60, "duration": 6, "velocity": 97}, {"time": 2352, "pitch": 63, "duration": 10, "velocity": 93}, {"time": 2364, "pitch": 65, "duration": 5, "velocity": 100}, {"time": 2370, "pitch": 63, "duration": 14, "velocity": 95}, {"time": 2394, "pitch": 58, "duration": 5, "velocity": 95}, {"time": 2400, "pitch": 60, "duration": 10, "velocity": 77}, {"time": 2412, "pitch": 58, "duration": 6, "velocity": 77}, {"time": 2418, "pitch": 56, "duration": 17, "velocity": 65}, {"time": 2442, "pitch": 56, "duration": 5, "velocity": 92}, {"time": 2448, "pitch": 58, "duration": 5, "velocity": 72}, {"time": 2454, "pitch": 60, "duration": 6, "velocity": 78}, {"time": 2460, "pitch": 68, "duration": 6, "velocity": 99}, {"time": 2466, "pitch": 67, "duration": 9, "velocity": 93}, {"time": 2472, "pitch": 65, "duration": 10, "velocity": 89}, {"time": 2484, "pitch": 60, "duration": 6, "velocity": 97}, {"time": 2490, "pitch": 63, "duration": 30, "velocity": 117}, {"time": 2538, "pitch": 65, "duration": 6, "velocity": 93}, {"time": 2544, "pitch": 68, "duration": 10, "velocity": 97}, {"time": 2556, "pitch": 70, "duration": 6, "velocity": 99}, {"time": 2562, "pitch": 68, "duration": 12, "velocity": 90}, {"time": 2586, "pitch": 63, "duration": 5, "velocity": 92}, {"time": 2592, "pitch": 65, "duration": 11, "velocity": 78}, {"time": 2604, "pitch": 63, "duration": 6, "velocity": 88}, {"time": 2610, "pitch": 60, "duration": 13, "velocity": 75}, {"time": 2634, "pitch": 58, "duration": 3, "velocity": 96}, {"time": 2640, "pitch": 60, "duration": 4, "velocity": 77}, {"time": 2646, "pitch": 63, "duration": 4, "velocity": 92}, {"time": 2652, "pitch": 65, "duration": 4, "velocity": 96}, {"time": 2658, "pitch": 60, "duration": 5, "velocity": 92}, {"time": 2664, "pitch": 58, "duration": 9, "velocity": 78}, {"time": 2676, "pitch": 60, "duration": 5, "velocity": 95}, {"time": 2682, "pitch": 56, "duration": 29, "velocity": 76}, {"time": 2718, "pitch": 70, "duration": 6, "velocity": 127}, {"time": 2724, "pitch": 72, "duration": 3, "velocity": 102}, {"time": 2727, "pitch": 70, "duration": 2, "velocity": 122}, {"time": 2730, "pitch": 68, "duration": 15, "velocity": 127}, {"time": 2748, "pitch": 70, "duration": 3, "velocity": 127}, {"time": 2754, "pitch": 72, "duration": 3, "velocity": 127}, {"time": 2760, "pitch": 67, "duration": 5, "velocity": 127}, {"time": 2766, "pitch": 65, "duration": 4, "velocity": 127}, {"time": 2772, "pitch": 60, "duration": 5, "velocity": 107}, {"time": 2778, "pitch": 63, "duration": 17, "velocity": 122}, {"time": 2814, "pitch": 68, "duration": 4, "velocity": 127}, {"time": 2820, "pitch": 67, "duration": 5, "velocity": 112}, {"time": 2826, "pitch": 65, "duration": 10, "velocity": 99}, {"time": 2838, "pitch": 65, "duration": 4, "velocity": 99}, {"time": 2844, "pitch": 63, "duration": 4, "velocity": 99}, {"time": 2850, "pitch": 65, "duration": 5, "velocity": 102}, {"time": 2856, "pitch": 60, "duration": 5, "velocity": 102}, {"time": 2862, "pitch": 63, "duration": 8, "velocity": 117}, {"time": 2868, "pitch": 60, "duration": 5, "velocity": 95}, {"time": 2874, "pitch": 58, "duration": 19, "velocity": 97}, {"time": 2910, "pitch": 60, "duration": 5, "velocity": 100}, {"time": 2916, "pitch": 58, "duration": 5, "velocity": 122}, {"time": 2922, "pitch": 56, "duration": 8, "velocity": 107}, {"time": 2940, "pitch": 58, "duration": 4, "velocity": 99}, {"time": 2946, "pitch": 60, "duration": 4, "velocity": 102}, {"time": 2952, "pitch": 68, "duration": 4, "velocity": 112}, {"time": 2958, "pitch": 67, "duration": 5, "velocity": 99}, {"time": 2964, "pitch": 63, "duration": 4, "velocity": 107}, {"time": 2970, "pitch": 65, "duration": 23, "velocity": 102}, {"time": 3006, "pitch": 70, "duration": 4, "velocity": 122}, {"time": 3012, "pitch": 68, "duration": 4, "velocity": 117}, {"time": 3018, "pitch": 70, "duration": 9, "velocity": 127}, {"time": 3030, "pitch": 70, "duration": 4, "velocity": 112}, {"time": 3036, "pitch": 68, "duration": 4, "velocity": 122}, {"time": 3042, "pitch": 60, "duration": 5, "velocity": 112}, {"time": 3048, "pitch": 60, "duration": 4, "velocity": 107}, {"time": 3054, "pitch": 67, "duration": 4, "velocity": 99}, {"time": 3060, "pitch": 65, "duration": 5, "velocity": 97}, {"time": 3066, "pitch": 63, "duration": 21, "velocity": 99}, {"time": 3102, "pitch": 70, "duration": 5, "velocity": 127}, {"time": 3108, "pitch": 72, "duration": 2, "velocity": 107}, {"time": 3111, "pitch": 70, "duration": 3, "velocity": 107}, {"time": 3114, "pitch": 68, "duration": 13, "velocity": 117}, {"time": 3132, "pitch": 70, "duration": 4, "velocity": 127}, {"time": 3138, "pitch": 72, "duration": 4, "velocity": 122}, {"time": 3144, "pitch": 67, "duration": 5, "velocity": 122}, {"time": 3150, "pitch": 65, "duration": 4, "velocity": 112}, {"time": 3156, "pitch": 63, "duration": 5, "velocity": 112}, {"time": 3162, "pitch": 65, "duration": 14, "velocity": 107}, {"time": 3198, "pitch": 65, "duration": 4, "velocity": 100}, {"time": 3204, "pitch": 68, "duration": 4, "velocity": 117}, {"time": 3210, "pitch": 70, "duration": 4, "velocity": 122}, {"time": 3222, "pitch": 70, "duration": 3, "velocity": 127}, {"time": 3228, "pitch": 72, "duration": 4, "velocity": 117}, {"time": 3234, "pitch": 70, "duration": 4, "velocity": 127}, {"time": 3240, "pitch": 67, "duration": 4, "velocity": 100}, {"time": 3246, "pitch": 60, "duration": 4, "velocity": 107}, {"time": 3252, "pitch": 65, "duration": 5, "velocity": 100}, {"time": 3258, "pitch": 63, "duration": 11, "velocity": 122}, {"time": 3294, "pitch": 56, "duration": 4, "velocity": 97}, {"time": 3300, "pitch": 58, "duration": 3, "velocity": 112}, {"time": 3306, "pitch": 60, "duration": 13, "velocity": 122}, {"time": 3324, "pitch": 63, "duration": 4, "velocity": 122}, {"time": 3330, "pitch": 63, "duration": 4, "velocity": 117}, {"time": 3336, "pitch": 68, "duration": 3, "velocity": 117}, {"time": 3342, "pitch": 67, "duration": 3, "velocity": 107}, {"time": 3348, "pitch": 63, "duration": 3, "velocity": 102}, {"time": 3354, "pitch": 65, "duration": 20, "velocity": 117}, {"time": 3390, "pitch": 65, "duration": 4, "velocity": 102}, {"time": 3396, "pitch": 68, "duration": 4, "velocity": 107}, {"time": 3402, "pitch": 70, "duration": 1, "velocity": 122}, {"time": 3408, "pitch": 70, "duration": 3, "velocity": 122}, {"time": 3420, "pitch": 67, "duration": 4, "velocity": 99}, {"time": 3426, "pitch": 65, "duration": 9, "velocity": 99}, {"time": 3438, "pitch": 63, "duration": 4, "velocity": 95}, {"time": 3444, "pitch": 65, "duration": 4, "velocity": 99}, {"time": 3450, "pitch": 68, "duration": 31, "velocity": 112}, {"time": 3486, "pitch": 70, "duration": 6, "velocity": 127}, {"time": 3492, "pitch": 72, "duration": 3, "velocity": 102}, {"time": 3495, "pitch": 70, "duration": 2, "velocity": 122}, {"time": 3498, "pitch": 68, "duration": 15, "velocity": 127}, {"time": 3516, "pitch": 70, "duration": 3, "velocity": 127}, {"time": 3522, "pitch": 72, "duration": 3, "velocity": 127}, {"time": 3528, "pitch": 67, "duration": 5, "velocity": 127}, {"time": 3534, "pitch": 65, "duration": 4, "velocity": 127}, {"time": 3540, "pitch": 60, "duration": 5, "velocity": 107}, {"time": 3546, "pitch": 63, "duration": 17, "velocity": 122}, {"time": 3582, "pitch": 68, "duration": 4, "velocity": 127}, {"time": 3588, "pitch": 67, "duration": 5, "velocity": 112}, {"time": 3594, "pitch": 65, "duration": 10, "velocity": 99}, {"time": 3606, "pitch": 65, "duration": 4, "velocity": 99}, {"time": 3612, "pitch": 63, "duration": 4, "velocity": 99}, {"time": 3618, "pitch": 65, "duration": 5, "velocity": 102}, {"time": 3624, "pitch": 60, "duration": 5, "velocity": 102}, {"time": 3630, "pitch": 63, "duration": 8, "velocity": 117}, {"time": 3636, "pitch": 60, "duration": 5, "velocity": 95}, {"time": 3642, "pitch": 58, "duration": 19, "velocity": 97}, {"time": 3678, "pitch": 60, "duration": 5, "velocity": 100}, {"time": 3684, "pitch": 58, "duration": 5, "velocity": 122}, {"time": 3690, "pitch": 56, "duration": 8, "velocity": 107}, {"time": 3708, "pitch": 58, "duration": 4, "velocity": 99}, {"time": 3714, "pitch": 60, "duration": 4, "velocity": 102}, {"time": 3720, "pitch": 68, "duration": 4, "velocity": 112}, {"time": 3726, "pitch": 67, "duration": 5, "velocity": 99}, {"time": 3732, "pitch": 63, "duration": 4, "velocity": 107}, {"time": 3738, "pitch": 65, "duration": 23, "velocity": 102}, {"time": 3774, "pitch": 70, "duration": 4, "velocity": 122}, {"time": 3780, "pitch": 68, "duration": 4, "velocity": 117}, {"time": 3786, "pitch": 70, "duration": 9, "velocity": 127}, {"time": 3798, "pitch": 70, "duration": 4, "velocity": 112}, {"time": 3804, "pitch": 68, "duration": 4, "velocity": 122}, {"time": 3810, "pitch": 60, "duration": 5, "velocity": 112}, {"time": 3816, "pitch": 60, "duration": 4, "velocity": 107}, {"time": 3822, "pitch": 67, "duration": 4, "velocity": 99}, {"time": 3828, "pitch": 65, "duration": 5, "velocity": 97}, {"time": 3834, "pitch": 63, "duration": 21, "velocity": 99}, {"time": 3870, "pitch": 70, "duration": 5, "velocity": 127}, {"time": 3876, "pitch": 72, "duration": 2, "velocity": 107}, {"time": 3879, "pitch": 70, "duration": 3, "velocity": 107}, {"time": 3882, "pitch": 68, "duration": 13, "velocity": 117}, {"time": 3900, "pitch": 70, "duration": 4, "velocity": 127}, {"time": 3906, "pitch": 72, "duration": 4, "velocity": 122}, {"time": 3912, "pitch": 67, "duration": 5, "velocity": 122}, {"time": 3918, "pitch": 65, "duration": 4, "velocity": 112}, {"time": 3924, "pitch": 63, "duration": 5, "velocity": 112}, {"time": 3930, "pitch": 65, "duration": 14, "velocity": 107}, {"time": 3966, "pitch": 65, "duration": 4, "velocity": 100}, {"time": 3972, "pitch": 68, "duration": 4, "velocity": 117}, {"time": 3978, "pitch": 70, "duration": 4, "velocity": 122}, {"time": 3990, "pitch": 70, "duration": 3, "velocity": 127}, {"time": 3996, "pitch": 72, "duration": 4, "velocity": 117}, {"time": 4002, "pitch": 70, "duration": 4, "velocity": 127}, {"time": 4008, "pitch": 67, "duration": 4, "velocity": 100}, {"time": 4014, "pitch": 60, "duration": 4, "velocity": 107}, {"time": 4020, "pitch": 65, "duration": 5, "velocity": 100}, {"time": 4026, "pitch": 63, "duration": 11, "velocity": 122}, {"time": 4062, "pitch": 56, "duration": 4, "velocity": 97}, {"time": 4068, "pitch": 58, "duration": 3, "velocity": 112}, {"time": 4074, "pitch": 60, "duration": 13, "velocity": 122}, {"time": 4092, "pitch": 63, "duration": 4, "velocity": 122}, {"time": 4098, "pitch": 63, "duration": 4, "velocity": 117}, {"time": 4104, "pitch": 68, "duration": 3, "velocity": 117}, {"time": 4110, "pitch": 67, "duration": 3, "velocity": 107}, {"time": 4116, "pitch": 63, "duration": 3, "velocity": 102}, {"time": 4122, "pitch": 65, "duration": 20, "velocity": 117}, {"time": 4158, "pitch": 65, "duration": 4, "velocity": 102}, {"time": 4164, "pitch": 68, "duration": 4, "velocity": 107}, {"time": 4170, "pitch": 70, "duration": 3, "velocity": 122}, {"time": 4176, "pitch": 70, "duration": 3, "velocity": 127}, {"time": 4188, "pitch": 67, "duration": 4, "velocity": 99}, {"time": 4194, "pitch": 65, "duration": 9, "velocity": 99}, {"time": 4206, "pitch": 63, "duration": 4, "velocity": 95}, {"time": 4212, "pitch": 65, "duration": 4, "velocity": 99}, {"time": 4218, "pitch": 68, "duration": 31, "velocity": 112}, {"time": 4254, "pitch": 65, "duration": 5, "velocity": 112}, {"time": 4260, "pitch": 68, "duration": 4, "velocity": 122}, {"time": 4266, "pitch": 70, "duration": 4, "velocity": 127}, {"time": 4272, "pitch": 70, "duration": 4, "velocity": 127}, {"time": 4284, "pitch": 67, "duration": 5, "velocity": 97}, {"time": 4290, "pitch": 65, "duration": 12, "velocity": 112}, {"time": 4305, "pitch": 63, "duration": 9, "velocity": 96}, {"time": 4314, "pitch": 65, "duration": 20, "velocity": 85}, {"time": 4338, "pitch": 65, "duration": 4, "velocity": 83}, {"time": 4342, "pitch": 68, "duration": 39, "velocity": 100}]}, {"program": 0, "is_drum": false, "name": "BRIDGE", "notes": [{"time": 30, "pitch": 80, "duration": 6, "velocity": 99}, {"time": 36, "pitch": 82, "duration": 5, "velocity": 88}, {"time": 42, "pitch": 84, "duration": 11, "velocity": 96}, {"time": 48, "pitch": 82, "duration": 5, "velocity": 102}, {"time": 54, "pitch": 84, "duration": 6, "velocity": 92}, {"time": 60, "pitch": 89, "duration": 6, "velocity": 93}, {"time": 66, "pitch": 87, "duration": 16, "velocity": 99}, {"time": 78, "pitch": 84, "duration": 5, "velocity": 102}, {"time": 84, "pitch": 82, "duration": 4, "velocity": 90}, {"time": 90, "pitch": 82, "duration": 5, "velocity": 100}, {"time": 96, "pitch": 84, "duration": 6, "velocity": 85}, {"time": 102, "pitch": 80, "duration": 12, "velocity": 92}, {"time": 108, "pitch": 82, "duration": 5, "velocity": 95}, {"time": 114, "pitch": 77, "duration": 12, "velocity": 83}, {"time": 120, "pitch": 70, "duration": 6, "velocity": 100}, {"time": 126, "pitch": 68, "duration": 6, "velocity": 82}, {"time": 132, "pitch": 70, "duration": 3, "velocity": 92}, {"time": 135, "pitch": 68, "duration": 3, "velocity": 81}, {"time": 138, "pitch": 65, "duration": 10, "velocity": 85}, {"time": 138, "pitch": 77, "duration": 6, "velocity": 92}, {"time": 144, "pitch": 80, "duration": 6, "velocity": 95}, {"time": 150, "pitch": 82, "duration": 6, "velocity": 97}, {"time": 156, "pitch": 84, "duration": 6, "velocity": 93}, {"time": 162, "pitch": 82, "duration": 11, "velocity": 89}, {"time": 174, "pitch": 80, "duration": 5, "velocity": 102}, {"time": 180, "pitch": 77, "duration": 6, "velocity": 81}, {"time": 186, "pitch": 75, "duration": 15, "velocity": 85}, {"time": 192, "pitch": 77, "duration": 5, "velocity": 90}, {"time": 198, "pitch": 82, "duration": 6, "velocity": 88}, {"time": 204, "pitch": 84, "duration": 6, "velocity": 92}, {"time": 210, "pitch": 87, "duration": 11, "velocity": 102}, {"time": 216, "pitch": 67, "duration": 5, "velocity": 92}, {"time": 222, "pitch": 68, "duration": 5, "velocity": 97}, {"time": 228, "pitch": 70, "duration": 4, "velocity": 112}, {"time": 234, "pitch": 72, "duration": 5, "velocity": 100}, {"time": 240, "pitch": 70, "duration": 6, "velocity": 95}, {"time": 246, "pitch": 72, "duration": 6, "velocity": 97}, {"time": 252, "pitch": 75, "duration": 5, "velocity": 107}, {"time": 258, "pitch": 77, "duration": 11, "velocity": 102}, {"time": 282, "pitch": 75, "duration": 10, "velocity": 112}, {"time": 294, "pitch": 72, "duration": 5, "velocity": 99}, {"time": 300, "pitch": 70, "duration": 5, "velocity": 89}, {"time": 306, "pitch": 72, "duration": 14, "velocity": 102}, {"time": 330, "pitch": 65, "duration": 5, "velocity": 99}, {"time": 336, "pitch": 68, "duration": 5, "velocity": 100}, {"time": 342, "pitch": 70, "duration": 5, "velocity": 112}, {"time": 348, "pitch": 72, "duration": 6, "velocity": 89}, {"time": 354, "pitch": 70, "duration": 11, "velocity": 102}, {"time": 372, "pitch": 68, "duration": 5, "velocity": 96}, {"time": 378, "pitch": 75, "duration": 27, "velocity": 102}, {"time": 396, "pitch": 65, "duration": 5, "velocity": 86}, {"time": 402, "pitch": 67, "duration": 20, "velocity": 99}, {"time": 588, "pitch": 75, "duration": 4, "velocity": 93}, {"time": 591, "pitch": 77, "duration": 3, "velocity": 78}, {"time": 594, "pitch": 82, "duration": 14, "velocity": 100}, {"time": 606, "pitch": 75, "duration": 5, "velocity": 88}, {"time": 612, "pitch": 70, "duration": 10, "velocity": 75}, {"time": 762, "pitch": 58, "duration": 5, "velocity": 92}, {"time": 768, "pitch": 63, "duration": 6, "velocity": 95}, {"time": 774, "pitch": 68, "duration": 6, "velocity": 97}, {"time": 780, "pitch": 72, "duration": 5, "velocity": 99}, {"time": 786, "pitch": 70, "duration": 8, "velocity": 96}, {"time": 790, "pitch": 70, "duration": 4, "velocity": 88}, {"time": 794, "pitch": 72, "duration": 2, "velocity": 62}, {"time": 796, "pitch": 70, "duration": 2, "velocity": 65}, {"time": 797, "pitch": 68, "duration": 6, "velocity": 71}, {"time": 803, "pitch": 65, "duration": 6, "velocity": 69}, {"time": 810, "pitch": 68, "duration": 17, "velocity": 95}, {"time": 959, "pitch": 68, "duration": 5, "velocity": 127}, {"time": 965, "pitch": 67, "duration": 6, "velocity": 112}, {"time": 971, "pitch": 65, "duration": 6, "velocity": 96}, {"time": 977, "pitch": 63, "duration": 10, "velocity": 99}, {"time": 980, "pitch": 67, "duration": 3, "velocity": 90}, {"time": 983, "pitch": 68, "duration": 2, "velocity": 92}, {"time": 986, "pitch": 75, "duration": 2, "velocity": 122}, {"time": 992, "pitch": 68, "duration": 3, "velocity": 112}, {"time": 995, "pitch": 67, "duration": 2, "velocity": 95}, {"time": 998, "pitch": 63, "duration": 3, "velocity": 112}, {"time": 1001, "pitch": 65, "duration": 15, "velocity": 75}, {"time": 1151, "pitch": 60, "duration": 4, "velocity": 89}, {"time": 1157, "pitch": 60, "duration": 5, "velocity": 93}, {"time": 1163, "pitch": 68, "duration": 5, "velocity": 102}, {"time": 1169, "pitch": 65, "duration": 2, "velocity": 99}, {"time": 1172, "pitch": 60, "duration": 4, "velocity": 99}, {"time": 1175, "pitch": 61, "duration": 4, "velocity": 90}, {"time": 1178, "pitch": 63, "duration": 2, "velocity": 107}, {"time": 1181, "pitch": 65, "duration": 4, "velocity": 107}, {"time": 1184, "pitch": 67, "duration": 4, "velocity": 95}, {"time": 1187, "pitch": 68, "duration": 4, "velocity": 117}, {"time": 1190, "pitch": 70, "duration": 3, "velocity": 122}, {"time": 1193, "pitch": 68, "duration": 16, "velocity": 127}, {"time": 1247, "pitch": 70, "duration": 5, "velocity": 112}, {"time": 1253, "pitch": 67, "duration": 9, "velocity": 102}, {"time": 1262, "pitch": 65, "duration": 4, "velocity": 102}, {"time": 1265, "pitch": 67, "duration": 13, "velocity": 100}, {"time": 1442, "pitch": 56, "duration": 2, "velocity": 95}, {"time": 1445, "pitch": 56, "duration": 4, "velocity": 95}, {"time": 1451, "pitch": 65, "duration": 4, "velocity": 99}, {"time": 1454, "pitch": 63, "duration": 2, "velocity": 112}, {"time": 1457, "pitch": 65, "duration": 12, "velocity": 102}, {"time": 1535, "pitch": 65, "duration": 5, "velocity": 99}, {"time": 1541, "pitch": 67, "duration": 3, "velocity": 107}, {"time": 1547, "pitch": 67, "duration": 3, "velocity": 102}, {"time": 1550, "pitch": 68, "duration": 2, "velocity": 102}, {"time": 1553, "pitch": 70, "duration": 13, "velocity": 122}, {"time": 1635, "pitch": 67, "duration": 1, "velocity": 81}, {"time": 1638, "pitch": 68, "duration": 5, "velocity": 107}, {"time": 1643, "pitch": 67, "duration": 6, "velocity": 93}, {"time": 1649, "pitch": 65, "duration": 15, "velocity": 85}, {"time": 1728, "pitch": 70, "duration": 5, "velocity": 102}, {"time": 1733, "pitch": 68, "duration": 4, "velocity": 93}, {"time": 1739, "pitch": 73, "duration": 2, "velocity": 117}, {"time": 1742, "pitch": 72, "duration": 3, "velocity": 86}, {"time": 1745, "pitch": 75, "duration": 12, "velocity": 122}, {"time": 1931, "pitch": 61, "duration": 5, "velocity": 112}, {"time": 1937, "pitch": 60, "duration": 14, "velocity": 92}, {"time": 1955, "pitch": 65, "duration": 4, "velocity": 90}, {"time": 1959, "pitch": 67, "duration": 2, "velocity": 93}, {"time": 1962, "pitch": 68, "duration": 7, "velocity": 96}, {"time": 1967, "pitch": 67, "duration": 3, "velocity": 71}, {"time": 1970, "pitch": 68, "duration": 8, "velocity": 81}, {"time": 1979, "pitch": 67, "duration": 4, "velocity": 62}, {"time": 1982, "pitch": 68, "duration": 6, "velocity": 86}, {"time": 1988, "pitch": 67, "duration": 3, "velocity": 70}, {"time": 1991, "pitch": 65, "duration": 6, "velocity": 72}, {"time": 2003, "pitch": 65, "duration": 3, "velocity": 88}, {"time": 2006, "pitch": 68, "duration": 3, "velocity": 99}, {"time": 2009, "pitch": 67, "duration": 6, "velocity": 92}, {"time": 2015, "pitch": 68, "duration": 3, "velocity": 97}, {"time": 2018, "pitch": 67, "duration": 6, "velocity": 79}, {"time": 2027, "pitch": 63, "duration": 3, "velocity": 95}, {"time": 2030, "pitch": 65, "duration": 3, "velocity": 77}, {"time": 2033, "pitch": 60, "duration": 15, "velocity": 92}, {"time": 2045, "pitch": 58, "duration": 4, "velocity": 97}, {"time": 2051, "pitch": 58, "duration": 3, "velocity": 93}, {"time": 2054, "pitch": 61, "duration": 2, "velocity": 97}, {"time": 2057, "pitch": 61, "duration": 12, "velocity": 102}, {"time": 2070, "pitch": 61, "duration": 2, "velocity": 122}, {"time": 2073, "pitch": 63, "duration": 2, "velocity": 99}, {"time": 2079, "pitch": 61, "duration": 2, "velocity": 107}, {"time": 2082, "pitch": 65, "duration": 11, "velocity": 96}, {"time": 2100, "pitch": 65, "duration": 3, "velocity": 93}, {"time": 2103, "pitch": 68, "duration": 3, "velocity": 90}, {"time": 2106, "pitch": 67, "duration": 5, "velocity": 93}, {"time": 2112, "pitch": 68, "duration": 5, "velocity": 107}, {"time": 2118, "pitch": 70, "duration": 4, "velocity": 117}, {"time": 2124, "pitch": 72, "duration": 4, "velocity": 102}, {"time": 2130, "pitch": 70, "duration": 11, "velocity": 117}, {"time": 2130, "pitch": 75, "duration": 1, "velocity": 79}, {"time": 2154, "pitch": 77, "duration": 5, "velocity": 117}, {"time": 2160, "pitch": 80, "duration": 5, "velocity": 117}, {"time": 2166, "pitch": 82, "duration": 5, "velocity": 127}, {"time": 2172, "pitch": 82, "duration": 1, "velocity": 55}, {"time": 2172, "pitch": 84, "duration": 5, "velocity": 112}, {"time": 2178, "pitch": 77, "duration": 8, "velocity": 107}, {"time": 2202, "pitch": 70, "duration": 5, "velocity": 127}, {"time": 2208, "pitch": 72, "duration": 5, "velocity": 102}, {"time": 2214, "pitch": 75, "duration": 5, "velocity": 107}, {"time": 2220, "pitch": 70, "duration": 5, "velocity": 100}, {"time": 2226, "pitch": 72, "duration": 13, "velocity": 112}, {"time": 2250, "pitch": 70, "duration": 5, "velocity": 117}, {"time": 2256, "pitch": 68, "duration": 5, "velocity": 112}, {"time": 2262, "pitch": 65, "duration": 6, "velocity": 102}, {"time": 2268, "pitch": 72, "duration": 5, "velocity": 112}, {"time": 2274, "pitch": 70, "duration": 13, "velocity": 127}, {"time": 2292, "pitch": 72, "duration": 5, "velocity": 112}, {"time": 2298, "pitch": 73, "duration": 12, "velocity": 127}, {"time": 2316, "pitch": 75, "duration": 28, "velocity": 127}, {"time": 2495, "pitch": 68, "duration": 5, "velocity": 127}, {"time": 2501, "pitch": 67, "duration": 6, "velocity": 112}, {"time": 2507, "pitch": 65, "duration": 6, "velocity": 96}, {"time": 2513, "pitch": 63, "duration": 10, "velocity": 99}, {"time": 2516, "pitch": 67, "duration": 3, "velocity": 90}, {"time": 2519, "pitch": 68, "duration": 2, "velocity": 92}, {"time": 2522, "pitch": 75, "duration": 2, "velocity": 122}, {"time": 2528, "pitch": 68, "duration": 3, "velocity": 112}, {"time": 2531, "pitch": 67, "duration": 2, "velocity": 95}, {"time": 2534, "pitch": 63, "duration": 3, "velocity": 112}, {"time": 2537, "pitch": 65, "duration": 15, "velocity": 75}, {"time": 2687, "pitch": 60, "duration": 4, "velocity": 89}, {"time": 2693, "pitch": 60, "duration": 5, "velocity": 93}, {"time": 2699, "pitch": 68, "duration": 5, "velocity": 102}, {"time": 2705, "pitch": 65, "duration": 2, "velocity": 99}, {"time": 2708, "pitch": 60, "duration": 4, "velocity": 99}, {"time": 2711, "pitch": 61, "duration": 4, "velocity": 90}, {"time": 2714, "pitch": 63, "duration": 2, "velocity": 107}, {"time": 2717, "pitch": 65, "duration": 4, "velocity": 107}, {"time": 2720, "pitch": 67, "duration": 4, "velocity": 95}, {"time": 2723, "pitch": 68, "duration": 4, "velocity": 117}, {"time": 2726, "pitch": 70, "duration": 3, "velocity": 122}, {"time": 2729, "pitch": 68, "duration": 16, "velocity": 127}, {"time": 2783, "pitch": 70, "duration": 5, "velocity": 112}, {"time": 2789, "pitch": 67, "duration": 9, "velocity": 102}, {"time": 2798, "pitch": 65, "duration": 4, "velocity": 102}, {"time": 2801, "pitch": 67, "duration": 13, "velocity": 100}, {"time": 2978, "pitch": 56, "duration": 2, "velocity": 95}, {"time": 2981, "pitch": 56, "duration": 4, "velocity": 95}, {"time": 2987, "pitch": 65, "duration": 4, "velocity": 99}, {"time": 2990, "pitch": 63, "duration": 2, "velocity": 112}, {"time": 2993, "pitch": 65, "duration": 12, "velocity": 102}, {"time": 3071, "pitch": 65, "duration": 5, "velocity": 99}, {"time": 3077, "pitch": 67, "duration": 3, "velocity": 107}, {"time": 3083, "pitch": 67, "duration": 3, "velocity": 102}, {"time": 3086, "pitch": 68, "duration": 2, "velocity": 102}, {"time": 3089, "pitch": 70, "duration": 13, "velocity": 122}, {"time": 3171, "pitch": 67, "duration": 1, "velocity": 81}, {"time": 3174, "pitch": 68, "duration": 5, "velocity": 107}, {"time": 3179, "pitch": 67, "duration": 6, "velocity": 93}, {"time": 3185, "pitch": 65, "duration": 15, "velocity": 85}, {"time": 3264, "pitch": 70, "duration": 5, "velocity": 102}, {"time": 3269, "pitch": 68, "duration": 4, "velocity": 93}, {"time": 3275, "pitch": 73, "duration": 2, "velocity": 117}, {"time": 3278, "pitch": 72, "duration": 3, "velocity": 86}, {"time": 3281, "pitch": 75, "duration": 12, "velocity": 122}, {"time": 3360, "pitch": 68, "duration": 4, "velocity": 107}, {"time": 3366, "pitch": 68, "duration": 5, "velocity": 127}, {"time": 3372, "pitch": 67, "duration": 6, "velocity": 102}, {"time": 3378, "pitch": 65, "duration": 10, "velocity": 99}, {"time": 3551, "pitch": 70, "duration": 5, "velocity": 112}, {"time": 3557, "pitch": 67, "duration": 9, "velocity": 102}, {"time": 3566, "pitch": 65, "duration": 4, "velocity": 102}, {"time": 3569, "pitch": 67, "duration": 13, "velocity": 100}, {"time": 3746, "pitch": 56, "duration": 2, "velocity": 95}, {"time": 3749, "pitch": 56, "duration": 4, "velocity": 95}, {"time": 3755, "pitch": 65, "duration": 4, "velocity": 99}, {"time": 3758, "pitch": 63, "duration": 2, "velocity": 112}, {"time": 3761, "pitch": 65, "duration": 12, "velocity": 102}, {"time": 3839, "pitch": 65, "duration": 5, "velocity": 99}, {"time": 3845, "pitch": 67, "duration": 3, "velocity": 107}, {"time": 3851, "pitch": 67, "duration": 3, "velocity": 102}, {"time": 3854, "pitch": 68, "duration": 2, "velocity": 102}, {"time": 3857, "pitch": 70, "duration": 13, "velocity": 122}, {"time": 3939, "pitch": 67, "duration": 1, "velocity": 81}, {"time": 3942, "pitch": 68, "duration": 5, "velocity": 107}, {"time": 3947, "pitch": 67, "duration": 6, "velocity": 93}, {"time": 3953, "pitch": 65, "duration": 15, "velocity": 85}, {"time": 4032, "pitch": 70, "duration": 5, "velocity": 102}, {"time": 4037, "pitch": 68, "duration": 4, "velocity": 93}, {"time": 4043, "pitch": 73, "duration": 2, "velocity": 117}, {"time": 4046, "pitch": 72, "duration": 3, "velocity": 86}, {"time": 4049, "pitch": 75, "duration": 12, "velocity": 122}, {"time": 4224, "pitch": 60, "duration": 12, "velocity": 90}, {"time": 4236, "pitch": 61, "duration": 5, "velocity": 97}, {"time": 4242, "pitch": 60, "duration": 19, "velocity": 92}, {"time": 4326, "pitch": 65, "duration": 5, "velocity": 97}, {"time": 4331, "pitch": 67, "duration": 6, "velocity": 93}, {"time": 4337, "pitch": 68, "duration": 10, "velocity": 97}, {"time": 4344, "pitch": 72, "duration": 3, "velocity": 107}, {"time": 4349, "pitch": 72, "duration": 5, "velocity": 112}, {"time": 4355, "pitch": 70, "duration": 3, "velocity": 112}, {"time": 4357, "pitch": 68, "duration": 4, "velocity": 82}, {"time": 4361, "pitch": 70, "duration": 11, "velocity": 112}, {"time": 4375, "pitch": 70, "duration": 11, "velocity": 100}, {"time": 4385, "pitch": 63, "duration": 22, "velocity": 77}, {"time": 4401, "pitch": 68, "duration": 7, "velocity": 96}, {"time": 4407, "pitch": 67, "duration": 5, "velocity": 68}, {"time": 4411, "pitch": 68, "duration": 38, "velocity": 82}]}, {"program": 0, "is_drum": false, "name": "PIANO", "notes": [{"time": 42, "pitch": 44, "duration": 34, "velocity": 81}, {"time": 48, "pitch": 51, "duration": 27, "velocity": 44}, {"time": 54, "pitch": 56, "duration": 19, "velocity": 59}, {"time": 60, "pitch": 60, "duration": 44, "velocity": 44}, {"time": 66, "pitch": 63, "duration": 33, "velocity": 56}, {"time": 66, "pitch": 68, "duration": 21, "velocity": 54}, {"time": 90, "pitch": 41, "duration": 32, "velocity": 74}, {"time": 96, "pitch": 48, "duration": 25, "velocity": 51}, {"time": 102, "pitch": 53, "duration": 17, "velocity": 59}, {"time": 108, "pitch": 60, "duration": 23, "velocity": 48}, {"time": 114, "pitch": 65, "duration": 16, "velocity": 49}, {"time": 114, "pitch": 68, "duration": 17, "velocity": 53}, {"time": 138, "pitch": 37, "duration": 21, "velocity": 72}, {"time": 144, "pitch": 49, "duration": 15, "velocity": 62}, {"time": 150, "pitch": 61, "duration": 36, "velocity": 77}, {"time": 156, "pitch": 65, "duration": 5, "velocity": 53}, {"time": 162, "pitch": 65, "duration": 23, "velocity": 76}, {"time": 162, "pitch": 68, "duration": 24, "velocity": 79}, {"time": 186, "pitch": 39, "duration": 41, "velocity": 74}, {"time": 192, "pitch": 46, "duration": 34, "velocity": 50}, {"time": 198, "pitch": 51, "duration": 28, "velocity": 69}, {"time": 204, "pitch": 55, "duration": 28, "velocity": 64}, {"time": 210, "pitch": 58, "duration": 22, "velocity": 78}, {"time": 210, "pitch": 63, "duration": 22, "velocity": 92}, {"time": 234, "pitch": 37, "duration": 37, "velocity": 90}, {"time": 240, "pitch": 44, "duration": 30, "velocity": 40}, {"time": 246, "pitch": 49, "duration": 22, "velocity": 59}, {"time": 252, "pitch": 53, "duration": 13, "velocity": 72}, {"time": 258, "pitch": 56, "duration": 24, "velocity": 79}, {"time": 258, "pitch": 61, "duration": 24, "velocity": 88}, {"time": 270, "pitch": 53, "duration": 12, "velocity": 70}, {"time": 282, "pitch": 36, "duration": 19, "velocity": 77}, {"time": 288, "pitch": 43, "duration": 14, "velocity": 55}, {"time": 294, "pitch": 48, "duration": 12, "velocity": 63}, {"time": 300, "pitch": 55, "duration": 6, "velocity": 69}, {"time": 306, "pitch": 41, "duration": 13, "velocity": 66}, {"time": 312, "pitch": 48, "duration": 8, "velocity": 54}, {"time": 318, "pitch": 56, "duration": 10, "velocity": 81}, {"time": 318, "pitch": 60, "duration": 10, "velocity": 82}, {"time": 324, "pitch": 53, "duration": 5, "velocity": 64}, {"time": 330, "pitch": 46, "duration": 38, "velocity": 95}, {"time": 336, "pitch": 58, "duration": 7, "velocity": 78}, {"time": 342, "pitch": 61, "duration": 37, "velocity": 96}, {"time": 348, "pitch": 58, "duration": 12, "velocity": 75}, {"time": 354, "pitch": 65, "duration": 24, "velocity": 81}, {"time": 366, "pitch": 58, "duration": 13, "velocity": 89}, {"time": 378, "pitch": 39, "duration": 36, "velocity": 78}, {"time": 384, "pitch": 46, "duration": 30, "velocity": 62}, {"time": 390, "pitch": 51, "duration": 26, "velocity": 86}, {"time": 396, "pitch": 55, "duration": 28, "velocity": 74}, {"time": 402, "pitch": 58, "duration": 22, "velocity": 76}, {"time": 402, "pitch": 63, "duration": 22, "velocity": 85}, {"time": 426, "pitch": 44, "duration": 37, "velocity": 96}, {"time": 432, "pitch": 51, "duration": 30, "velocity": 52}, {"time": 438, "pitch": 56, "duration": 17, "velocity": 72}, {"time": 444, "pitch": 60, "duration": 8, "velocity": 79}, {"time": 450, "pitch": 63, "duration": 13, "velocity": 66}, {"time": 450, "pitch": 68, "duration": 24, "velocity": 75}, {"time": 456, "pitch": 56, "duration": 5, "velocity": 37}, {"time": 462, "pitch": 60, "duration": 13, "velocity": 72}, {"time": 474, "pitch": 41, "duration": 37, "velocity": 68}, {"time": 480, "pitch": 48, "duration": 31, "velocity": 56}, {"time": 486, "pitch": 53, "duration": 16, "velocity": 77}, {"time": 492, "pitch": 56, "duration": 8, "velocity": 70}, {"time": 498, "pitch": 60, "duration": 14, "velocity": 68}, {"time": 498, "pitch": 65, "duration": 25, "velocity": 63}, {"time": 504, "pitch": 53, "duration": 4, "velocity": 46}, {"time": 510, "pitch": 56, "duration": 13, "velocity": 70}, {"time": 516, "pitch": 60, "duration": 6, "velocity": 64}, {"time": 522, "pitch": 37, "duration": 36, "velocity": 88}, {"time": 528, "pitch": 44, "duration": 29, "velocity": 32}, {"time": 534, "pitch": 49, "duration": 14, "velocity": 70}, {"time": 540, "pitch": 53, "duration": 7, "velocity": 53}, {"time": 546, "pitch": 56, "duration": 13, "velocity": 82}, {"time": 546, "pitch": 61, "duration": 25, "velocity": 95}, {"time": 552, "pitch": 49, "duration": 8, "velocity": 39}, {"time": 558, "pitch": 53, "duration": 12, "velocity": 74}, {"time": 564, "pitch": 56, "duration": 6, "velocity": 58}, {"time": 570, "pitch": 39, "duration": 39, "velocity": 88}, {"time": 576, "pitch": 46, "duration": 33, "velocity": 41}, {"time": 582, "pitch": 51, "duration": 15, "velocity": 85}, {"time": 588, "pitch": 55, "duration": 11, "velocity": 63}, {"time": 594, "pitch": 58, "duration": 12, "velocity": 90}, {"time": 594, "pitch": 63, "duration": 24, "velocity": 95}, {"time": 600, "pitch": 51, "duration": 7, "velocity": 78}, {"time": 606, "pitch": 55, "duration": 11, "velocity": 93}, {"time": 612, "pitch": 58, "duration": 6, "velocity": 58}, {"time": 618, "pitch": 37, "duration": 40, "velocity": 85}, {"time": 624, "pitch": 44, "duration": 33, "velocity": 31}, {"time": 630, "pitch": 49, "duration": 16, "velocity": 61}, {"time": 636, "pitch": 53, "duration": 19, "velocity": 55}, {"time": 642, "pitch": 56, "duration": 11, "velocity": 67}, {"time": 642, "pitch": 61, "duration": 10, "velocity": 88}, {"time": 648, "pitch": 49, "duration": 8, "velocity": 40}, {"time": 654, "pitch": 56, "duration": 11, "velocity": 73}, {"time": 654, "pitch": 61, "duration": 12, "velocity": 102}, {"time": 660, "pitch": 53, "duration": 6, "velocity": 67}, {"time": 666, "pitch": 36, "duration": 17, "velocity": 70}, {"time": 672, "pitch": 43, "duration": 12, "velocity": 65}, {"time": 678, "pitch": 48, "duration": 11, "velocity": 82}, {"time": 684, "pitch": 55, "duration": 6, "velocity": 81}, {"time": 690, "pitch": 41, "duration": 13, "velocity": 70}, {"time": 696, "pitch": 48, "duration": 8, "velocity": 63}, {"time": 702, "pitch": 56, "duration": 11, "velocity": 85}, {"time": 702, "pitch": 60, "duration": 11, "velocity": 73}, {"time": 708, "pitch": 53, "duration": 5, "velocity": 62}, {"time": 714, "pitch": 46, "duration": 37, "velocity": 89}, {"time": 720, "pitch": 53, "duration": 30, "velocity": 57}, {"time": 726, "pitch": 58, "duration": 16, "velocity": 72}, {"time": 732, "pitch": 61, "duration": 19, "velocity": 86}, {"time": 738, "pitch": 65, "duration": 24, "velocity": 78}, {"time": 744, "pitch": 58, "duration": 5, "velocity": 55}, {"time": 750, "pitch": 70, "duration": 12, "velocity": 72}, {"time": 756, "pitch": 61, "duration": 7, "velocity": 50}, {"time": 762, "pitch": 39, "duration": 42, "velocity": 78}, {"time": 768, "pitch": 46, "duration": 37, "velocity": 59}, {"time": 774, "pitch": 51, "duration": 15, "velocity": 95}, {"time": 780, "pitch": 55, "duration": 7, "velocity": 72}, {"time": 786, "pitch": 58, "duration": 14, "velocity": 93}, {"time": 786, "pitch": 63, "duration": 23, "velocity": 88}, {"time": 792, "pitch": 51, "duration": 16, "velocity": 78}, {"time": 798, "pitch": 55, "duration": 10, "velocity": 99}, {"time": 804, "pitch": 58, "duration": 5, "velocity": 102}, {"time": 810, "pitch": 44, "duration": 38, "velocity": 78}, {"time": 816, "pitch": 51, "duration": 31, "velocity": 58}, {"time": 822, "pitch": 56, "duration": 15, "velocity": 85}, {"time": 828, "pitch": 60, "duration": 7, "velocity": 76}, {"time": 834, "pitch": 63, "duration": 13, "velocity": 72}, {"time": 834, "pitch": 68, "duration": 24, "velocity": 93}, {"time": 840, "pitch": 56, "duration": 6, "velocity": 68}, {"time": 846, "pitch": 60, "duration": 27, "velocity": 82}, {"time": 852, "pitch": 63, "duration": 6, "velocity": 66}, {"time": 858, "pitch": 41, "duration": 36, "velocity": 72}, {"time": 864, "pitch": 48, "duration": 30, "velocity": 42}, {"time": 870, "pitch": 53, "duration": 14, "velocity": 81}, {"time": 876, "pitch": 60, "duration": 7, "velocity": 82}, {"time": 882, "pitch": 65, "duration": 10, "velocity": 74}, {"time": 882, "pitch": 68, "duration": 25, "velocity": 89}, {"time": 888, "pitch": 53, "duration": 5, "velocity": 53}, {"time": 894, "pitch": 60, "duration": 7, "velocity": 95}, {"time": 900, "pitch": 65, "duration": 6, "velocity": 88}, {"time": 903, "pitch": 60, "duration": 4, "velocity": 86}, {"time": 906, "pitch": 37, "duration": 36, "velocity": 86}, {"time": 912, "pitch": 44, "duration": 30, "velocity": 33}, {"time": 918, "pitch": 53, "duration": 13, "velocity": 82}, {"time": 924, "pitch": 49, "duration": 8, "velocity": 75}, {"time": 930, "pitch": 56, "duration": 13, "velocity": 92}, {"time": 930, "pitch": 61, "duration": 24, "velocity": 102}, {"time": 936, "pitch": 49, "duration": 9, "velocity": 83}, {"time": 942, "pitch": 53, "duration": 11, "velocity": 97}, {"time": 948, "pitch": 56, "duration": 6, "velocity": 81}, {"time": 954, "pitch": 39, "duration": 40, "velocity": 88}, {"time": 960, "pitch": 46, "duration": 33, "velocity": 43}, {"time": 966, "pitch": 51, "duration": 14, "velocity": 99}, {"time": 972, "pitch": 55, "duration": 11, "velocity": 89}, {"time": 978, "pitch": 58, "duration": 12, "velocity": 112}, {"time": 978, "pitch": 63, "duration": 24, "velocity": 117}, {"time": 984, "pitch": 51, "duration": 6, "velocity": 102}, {"time": 990, "pitch": 55, "duration": 6, "velocity": 107}, {"time": 993, "pitch": 51, "duration": 1, "velocity": 93}, {"time": 996, "pitch": 58, "duration": 5, "velocity": 117}, {"time": 999, "pitch": 55, "duration": 3, "velocity": 96}, {"time": 1002, "pitch": 37, "duration": 39, "velocity": 82}, {"time": 1005, "pitch": 44, "duration": 33, "velocity": 59}, {"time": 1008, "pitch": 49, "duration": 8, "velocity": 92}, {"time": 1011, "pitch": 53, "duration": 28, "velocity": 56}, {"time": 1014, "pitch": 56, "duration": 10, "velocity": 99}, {"time": 1020, "pitch": 49, "duration": 9, "velocity": 81}, {"time": 1026, "pitch": 56, "duration": 10, "velocity": 90}, {"time": 1026, "pitch": 61, "duration": 23, "velocity": 97}, {"time": 1032, "pitch": 49, "duration": 6, "velocity": 81}, {"time": 1038, "pitch": 56, "duration": 11, "velocity": 107}, {"time": 1044, "pitch": 53, "duration": 6, "velocity": 88}, {"time": 1050, "pitch": 36, "duration": 19, "velocity": 82}, {"time": 1056, "pitch": 43, "duration": 14, "velocity": 42}, {"time": 1062, "pitch": 48, "duration": 12, "velocity": 85}, {"time": 1068, "pitch": 55, "duration": 6, "velocity": 95}, {"time": 1074, "pitch": 41, "duration": 15, "velocity": 78}, {"time": 1080, "pitch": 48, "duration": 9, "velocity": 67}, {"time": 1086, "pitch": 56, "duration": 10, "velocity": 100}, {"time": 1086, "pitch": 60, "duration": 11, "velocity": 88}, {"time": 1092, "pitch": 53, "duration": 5, "velocity": 86}, {"time": 1098, "pitch": 46, "duration": 18, "velocity": 96}, {"time": 1104, "pitch": 53, "duration": 12, "velocity": 59}, {"time": 1110, "pitch": 58, "duration": 6, "velocity": 93}, {"time": 1116, "pitch": 61, "duration": 5, "velocity": 107}, {"time": 1122, "pitch": 39, "duration": 14, "velocity": 97}, {"time": 1128, "pitch": 51, "duration": 11, "velocity": 86}, {"time": 1134, "pitch": 58, "duration": 12, "velocity": 88}, {"time": 1134, "pitch": 63, "duration": 12, "velocity": 93}, {"time": 1140, "pitch": 55, "duration": 1, "velocity": 58}, {"time": 1146, "pitch": 44, "duration": 23, "velocity": 89}, {"time": 1152, "pitch": 51, "duration": 16, "velocity": 53}, {"time": 1158, "pitch": 56, "duration": 11, "velocity": 99}, {"time": 1164, "pitch": 63, "duration": 5, "velocity": 83}, {"time": 1164, "pitch": 68, "duration": 5, "velocity": 99}, {"time": 1170, "pitch": 37, "duration": 4, "velocity": 48}, {"time": 1170, "pitch": 49, "duration": 6, "velocity": 93}, {"time": 1170, "pitch": 61, "duration": 9, "velocity": 90}, {"time": 1170, "pitch": 65, "duration": 9, "velocity": 71}, {"time": 1170, "pitch": 68, "duration": 7, "velocity": 77}, {"time": 1182, "pitch": 39, "duration": 4, "velocity": 82}, {"time": 1182, "pitch": 51, "duration": 5, "velocity": 79}, {"time": 1182, "pitch": 63, "duration": 12, "velocity": 92}, {"time": 1182, "pitch": 67, "duration": 11, "velocity": 85}, {"time": 1182, "pitch": 70, "duration": 11, "velocity": 96}, {"time": 1194, "pitch": 44, "duration": 22, "velocity": 83}, {"time": 1197, "pitch": 51, "duration": 20, "velocity": 58}, {"time": 1200, "pitch": 56, "duration": 6, "velocity": 97}, {"time": 1203, "pitch": 60, "duration": 5, "velocity": 82}, {"time": 1206, "pitch": 68, "duration": 14, "velocity": 117}, {"time": 1209, "pitch": 56, "duration": 9, "velocity": 88}, {"time": 1212, "pitch": 63, "duration": 8, "velocity": 97}, {"time": 1215, "pitch": 60, "duration": 6, "velocity": 93}, {"time": 1218, "pitch": 44, "duration": 17, "velocity": 88}, {"time": 1221, "pitch": 51, "duration": 12, "velocity": 49}, {"time": 1224, "pitch": 56, "duration": 6, "velocity": 90}, {"time": 1227, "pitch": 60, "duration": 6, "velocity": 92}, {"time": 1230, "pitch": 68, "duration": 10, "velocity": 122}, {"time": 1233, "pitch": 56, "duration": 1, "velocity": 86}, {"time": 1236, "pitch": 63, "duration": 5, "velocity": 117}, {"time": 1239, "pitch": 60, "duration": 3, "velocity": 97}, {"time": 1242, "pitch": 36, "duration": 21, "velocity": 83}, {"time": 1245, "pitch": 43, "duration": 21, "velocity": 66}, {"time": 1248, "pitch": 48, "duration": 6, "velocity": 82}, {"time": 1251, "pitch": 55, "duration": 6, "velocity": 86}, {"time": 1254, "pitch": 63, "duration": 12, "velocity": 117}, {"time": 1257, "pitch": 48, "duration": 10, "velocity": 86}, {"time": 1260, "pitch": 60, "duration": 6, "velocity": 88}, {"time": 1263, "pitch": 55, "duration": 3, "velocity": 97}, {"time": 1266, "pitch": 36, "duration": 15, "velocity": 86}, {"time": 1269, "pitch": 43, "duration": 13, "velocity": 63}, {"time": 1272, "pitch": 48, "duration": 6, "velocity": 85}, {"time": 1275, "pitch": 63, "duration": 2, "velocity": 96}, {"time": 1275, "pitch": 67, "duration": 1, "velocity": 88}, {"time": 1278, "pitch": 63, "duration": 5, "velocity": 112}, {"time": 1278, "pitch": 67, "duration": 10, "velocity": 96}, {"time": 1281, "pitch": 48, "duration": 1, "velocity": 92}, {"time": 1284, "pitch": 60, "duration": 4, "velocity": 112}, {"time": 1287, "pitch": 63, "duration": 3, "velocity": 117}, {"time": 1290, "pitch": 37, "duration": 22, "velocity": 88}, {"time": 1293, "pitch": 44, "duration": 20, "velocity": 70}, {"time": 1296, "pitch": 49, "duration": 5, "velocity": 93}, {"time": 1299, "pitch": 53, "duration": 4, "velocity": 77}, {"time": 1302, "pitch": 56, "duration": 7, "velocity": 117}, {"time": 1305, "pitch": 49, "duration": 10, "velocity": 93}, {"time": 1308, "pitch": 53, "duration": 8, "velocity": 89}, {"time": 1311, "pitch": 56, "duration": 11, "velocity": 45}, {"time": 1311, "pitch": 61, "duration": 9, "velocity": 107}, {"time": 1314, "pitch": 37, "duration": 15, "velocity": 90}, {"time": 1317, "pitch": 44, "duration": 13, "velocity": 93}, {"time": 1320, "pitch": 49, "duration": 6, "velocity": 96}, {"time": 1323, "pitch": 53, "duration": 5, "velocity": 90}, {"time": 1326, "pitch": 61, "duration": 11, "velocity": 127}, {"time": 1329, "pitch": 49, "duration": 3, "velocity": 97}, {"time": 1332, "pitch": 56, "duration": 5, "velocity": 93}, {"time": 1335, "pitch": 53, "duration": 3, "velocity": 89}, {"time": 1338, "pitch": 39, "duration": 21, "velocity": 73}, {"time": 1341, "pitch": 46, "duration": 19, "velocity": 30}, {"time": 1344, "pitch": 51, "duration": 6, "velocity": 89}, {"time": 1347, "pitch": 55, "duration": 3, "velocity": 86}, {"time": 1350, "pitch": 58, "duration": 6, "velocity": 99}, {"time": 1350, "pitch": 63, "duration": 12, "velocity": 112}, {"time": 1353, "pitch": 51, "duration": 9, "velocity": 95}, {"time": 1356, "pitch": 55, "duration": 6, "velocity": 92}, {"time": 1359, "pitch": 58, "duration": 3, "velocity": 90}, {"time": 1362, "pitch": 39, "duration": 16, "velocity": 81}, {"time": 1365, "pitch": 46, "duration": 13, "velocity": 78}, {"time": 1368, "pitch": 51, "duration": 6, "velocity": 97}, {"time": 1371, "pitch": 63, "duration": 1, "velocity": 92}, {"time": 1371, "pitch": 67, "duration": 1, "velocity": 93}, {"time": 1371, "pitch": 70, "duration": 1, "velocity": 92}, {"time": 1374, "pitch": 67, "duration": 6, "velocity": 102}, {"time": 1374, "pitch": 70, "duration": 11, "velocity": 95}, {"time": 1377, "pitch": 51, "duration": 1, "velocity": 99}, {"time": 1380, "pitch": 63, "duration": 4, "velocity": 112}, {"time": 1383, "pitch": 67, "duration": 2, "velocity": 50}, {"time": 1386, "pitch": 37, "duration": 22, "velocity": 77}, {"time": 1389, "pitch": 44, "duration": 20, "velocity": 63}, {"time": 1392, "pitch": 49, "duration": 6, "velocity": 88}, {"time": 1395, "pitch": 53, "duration": 3, "velocity": 67}, {"time": 1398, "pitch": 56, "duration": 6, "velocity": 88}, {"time": 1398, "pitch": 61, "duration": 14, "velocity": 99}, {"time": 1401, "pitch": 49, "duration": 10, "velocity": 92}, {"time": 1404, "pitch": 53, "duration": 5, "velocity": 75}, {"time": 1407, "pitch": 56, "duration": 4, "velocity": 102}, {"time": 1410, "pitch": 37, "duration": 15, "velocity": 86}, {"time": 1413, "pitch": 44, "duration": 12, "velocity": 39}, {"time": 1416, "pitch": 49, "duration": 6, "velocity": 93}, {"time": 1419, "pitch": 53, "duration": 4, "velocity": 90}, {"time": 1422, "pitch": 61, "duration": 10, "velocity": 117}, {"time": 1425, "pitch": 49, "duration": 2, "velocity": 92}, {"time": 1428, "pitch": 56, "duration": 4, "velocity": 81}, {"time": 1431, "pitch": 53, "duration": 2, "velocity": 93}, {"time": 1434, "pitch": 41, "duration": 22, "velocity": 69}, {"time": 1437, "pitch": 48, "duration": 22, "velocity": 53}, {"time": 1440, "pitch": 53, "duration": 6, "velocity": 76}, {"time": 1443, "pitch": 56, "duration": 4, "velocity": 69}, {"time": 1446, "pitch": 65, "duration": 20, "velocity": 72}, {"time": 1449, "pitch": 53, "duration": 3, "velocity": 85}, {"time": 1452, "pitch": 56, "duration": 7, "velocity": 79}, {"time": 1455, "pitch": 60, "duration": 10, "velocity": 76}, {"time": 1458, "pitch": 41, "duration": 16, "velocity": 66}, {"time": 1461, "pitch": 48, "duration": 13, "velocity": 78}, {"time": 1464, "pitch": 53, "duration": 7, "velocity": 85}, {"time": 1467, "pitch": 56, "duration": 4, "velocity": 72}, {"time": 1470, "pitch": 60, "duration": 3, "velocity": 34}, {"time": 1470, "pitch": 65, "duration": 11, "velocity": 65}, {"time": 1473, "pitch": 53, "duration": 3, "velocity": 71}, {"time": 1476, "pitch": 56, "duration": 4, "velocity": 97}, {"time": 1479, "pitch": 60, "duration": 2, "velocity": 63}, {"time": 1482, "pitch": 46, "duration": 22, "velocity": 107}, {"time": 1485, "pitch": 53, "duration": 20, "velocity": 60}, {"time": 1488, "pitch": 58, "duration": 6, "velocity": 99}, {"time": 1491, "pitch": 61, "duration": 4, "velocity": 85}, {"time": 1494, "pitch": 65, "duration": 8, "velocity": 82}, {"time": 1497, "pitch": 58, "duration": 12, "velocity": 93}, {"time": 1500, "pitch": 61, "duration": 13, "velocity": 90}, {"time": 1503, "pitch": 65, "duration": 10, "velocity": 35}, {"time": 1503, "pitch": 70, "duration": 10, "velocity": 86}, {"time": 1506, "pitch": 46, "duration": 16, "velocity": 70}, {"time": 1509, "pitch": 53, "duration": 13, "velocity": 66}, {"time": 1512, "pitch": 58, "duration": 6, "velocity": 85}, {"time": 1515, "pitch": 61, "duration": 4, "velocity": 96}, {"time": 1518, "pitch": 65, "duration": 6, "velocity": 81}, {"time": 1518, "pitch": 70, "duration": 11, "velocity": 122}, {"time": 1521, "pitch": 58, "duration": 1, "velocity": 99}, {"time": 1524, "pitch": 61, "duration": 3, "velocity": 122}, {"time": 1527, "pitch": 65, "duration": 3, "velocity": 58}, {"time": 1530, "pitch": 39, "duration": 22, "velocity": 75}, {"time": 1533, "pitch": 46, "duration": 20, "velocity": 66}, {"time": 1536, "pitch": 51, "duration": 6, "velocity": 93}, {"time": 1539, "pitch": 55, "duration": 4, "velocity": 83}, {"time": 1542, "pitch": 58, "duration": 6, "velocity": 100}, {"time": 1542, "pitch": 63, "duration": 6, "velocity": 117}, {"time": 1545, "pitch": 51, "duration": 10, "velocity": 99}, {"time": 1548, "pitch": 55, "duration": 7, "velocity": 107}, {"time": 1551, "pitch": 58, "duration": 10, "velocity": 107}, {"time": 1551, "pitch": 63, "duration": 10, "velocity": 117}, {"time": 1554, "pitch": 39, "duration": 16, "velocity": 89}, {"time": 1557, "pitch": 46, "duration": 12, "velocity": 99}, {"time": 1560, "pitch": 51, "duration": 6, "velocity": 107}, {"time": 1563, "pitch": 55, "duration": 4, "velocity": 97}, {"time": 1566, "pitch": 58, "duration": 6, "velocity": 112}, {"time": 1566, "pitch": 63, "duration": 11, "velocity": 127}, {"time": 1569, "pitch": 51, "duration": 3, "velocity": 100}, {"time": 1572, "pitch": 55, "duration": 4, "velocity": 102}, {"time": 1575, "pitch": 58, "duration": 2, "velocity": 127}, {"time": 1578, "pitch": 44, "duration": 22, "velocity": 85}, {"time": 1581, "pitch": 51, "duration": 20, "velocity": 85}, {"time": 1584, "pitch": 56, "duration": 6, "velocity": 97}, {"time": 1587, "pitch": 60, "duration": 3, "velocity": 82}, {"time": 1590, "pitch": 63, "duration": 6, "velocity": 86}, {"time": 1590, "pitch": 68, "duration": 21, "velocity": 117}, {"time": 1593, "pitch": 56, "duration": 10, "velocity": 97}, {"time": 1596, "pitch": 60, "duration": 12, "velocity": 90}, {"time": 1599, "pitch": 63, "duration": 12, "velocity": 117}, {"time": 1602, "pitch": 44, "duration": 17, "velocity": 89}, {"time": 1605, "pitch": 51, "duration": 13, "velocity": 85}, {"time": 1608, "pitch": 56, "duration": 6, "velocity": 97}, {"time": 1611, "pitch": 60, "duration": 6, "velocity": 89}, {"time": 1614, "pitch": 68, "duration": 9, "velocity": 127}, {"time": 1617, "pitch": 56, "duration": 2, "velocity": 95}, {"time": 1620, "pitch": 63, "duration": 4, "velocity": 112}, {"time": 1623, "pitch": 60, "duration": 10, "velocity": 99}, {"time": 1626, "pitch": 41, "duration": 22, "velocity": 64}, {"time": 1629, "pitch": 48, "duration": 22, "velocity": 62}, {"time": 1632, "pitch": 53, "duration": 7, "velocity": 93}, {"time": 1635, "pitch": 60, "duration": 7, "velocity": 96}, {"time": 1638, "pitch": 68, "duration": 13, "velocity": 127}, {"time": 1641, "pitch": 53, "duration": 3, "velocity": 89}, {"time": 1644, "pitch": 65, "duration": 9, "velocity": 99}, {"time": 1647, "pitch": 60, "duration": 10, "velocity": 93}, {"time": 1650, "pitch": 41, "duration": 16, "velocity": 64}, {"time": 1653, "pitch": 48, "duration": 13, "velocity": 69}, {"time": 1656, "pitch": 53, "duration": 7, "velocity": 92}, {"time": 1659, "pitch": 60, "duration": 7, "velocity": 64}, {"time": 1662, "pitch": 68, "duration": 10, "velocity": 127}, {"time": 1665, "pitch": 53, "duration": 3, "velocity": 78}, {"time": 1668, "pitch": 65, "duration": 5, "velocity": 112}, {"time": 1671, "pitch": 60, "duration": 2, "velocity": 95}, {"time": 1674, "pitch": 46, "duration": 21, "velocity": 90}, {"time": 1677, "pitch": 53, "duration": 21, "velocity": 59}, {"time": 1680, "pitch": 58, "duration": 6, "velocity": 89}, {"time": 1683, "pitch": 61, "duration": 4, "velocity": 93}, {"time": 1686, "pitch": 65, "duration": 7, "velocity": 67}, {"time": 1689, "pitch": 58, "duration": 12, "velocity": 93}, {"time": 1692, "pitch": 61, "duration": 13, "velocity": 83}, {"time": 1695, "pitch": 65, "duration": 11, "velocity": 38}, {"time": 1695, "pitch": 70, "duration": 11, "velocity": 107}, {"time": 1698, "pitch": 46, "duration": 14, "velocity": 76}, {"time": 1701, "pitch": 53, "duration": 11, "velocity": 70}, {"time": 1704, "pitch": 58, "duration": 6, "velocity": 88}, {"time": 1707, "pitch": 61, "duration": 5, "velocity": 100}, {"time": 1710, "pitch": 70, "duration": 11, "velocity": 127}, {"time": 1713, "pitch": 61, "duration": 3, "velocity": 66}, {"time": 1716, "pitch": 65, "duration": 4, "velocity": 66}, {"time": 1719, "pitch": 61, "duration": 3, "velocity": 102}, {"time": 1722, "pitch": 39, "duration": 22, "velocity": 85}, {"time": 1725, "pitch": 46, "duration": 20, "velocity": 37}, {"time": 1728, "pitch": 51, "duration": 6, "velocity": 89}, {"time": 1731, "pitch": 55, "duration": 6, "velocity": 83}, {"time": 1734, "pitch": 63, "duration": 13, "velocity": 117}, {"time": 1737, "pitch": 51, "duration": 11, "velocity": 83}, {"time": 1740, "pitch": 58, "duration": 7, "velocity": 107}, {"time": 1743, "pitch": 55, "duration": 4, "velocity": 86}, {"time": 1746, "pitch": 39, "duration": 16, "velocity": 83}, {"time": 1749, "pitch": 46, "duration": 13, "velocity": 37}, {"time": 1752, "pitch": 51, "duration": 6, "velocity": 85}, {"time": 1755, "pitch": 55, "duration": 9, "velocity": 72}, {"time": 1758, "pitch": 63, "duration": 11, "velocity": 102}, {"time": 1761, "pitch": 51, "duration": 1, "velocity": 77}, {"time": 1764, "pitch": 58, "duration": 4, "velocity": 83}, {"time": 1767, "pitch": 55, "duration": 4, "velocity": 69}, {"time": 1770, "pitch": 36, "duration": 22, "velocity": 76}, {"time": 1773, "pitch": 43, "duration": 21, "velocity": 64}, {"time": 1776, "pitch": 48, "duration": 6, "velocity": 77}, {"time": 1779, "pitch": 55, "duration": 6, "velocity": 72}, {"time": 1782, "pitch": 63, "duration": 13, "velocity": 99}, {"time": 1785, "pitch": 48, "duration": 3, "velocity": 71}, {"time": 1788, "pitch": 60, "duration": 7, "velocity": 92}, {"time": 1791, "pitch": 55, "duration": 7, "velocity": 86}, {"time": 1794, "pitch": 36, "duration": 16, "velocity": 57}, {"time": 1797, "pitch": 43, "duration": 14, "velocity": 66}, {"time": 1800, "pitch": 48, "duration": 6, "velocity": 81}, {"time": 1803, "pitch": 55, "duration": 5, "velocity": 79}, {"time": 1806, "pitch": 63, "duration": 11, "velocity": 112}, {"time": 1809, "pitch": 48, "duration": 7, "velocity": 83}, {"time": 1812, "pitch": 60, "duration": 5, "velocity": 89}, {"time": 1815, "pitch": 55, "duration": 2, "velocity": 93}, {"time": 1818, "pitch": 41, "duration": 22, "velocity": 86}, {"time": 1821, "pitch": 48, "duration": 21, "velocity": 56}, {"time": 1824, "pitch": 53, "duration": 7, "velocity": 79}, {"time": 1827, "pitch": 60, "duration": 4, "velocity": 75}, {"time": 1830, "pitch": 68, "duration": 19, "velocity": 102}, {"time": 1833, "pitch": 53, "duration": 3, "velocity": 86}, {"time": 1836, "pitch": 65, "duration": 13, "velocity": 89}, {"time": 1839, "pitch": 60, "duration": 10, "velocity": 96}, {"time": 1842, "pitch": 41, "duration": 18, "velocity": 65}, {"time": 1845, "pitch": 48, "duration": 16, "velocity": 74}, {"time": 1848, "pitch": 53, "duration": 6, "velocity": 93}, {"time": 1851, "pitch": 60, "duration": 3, "velocity": 96}, {"time": 1854, "pitch": 65, "duration": 7, "velocity": 99}, {"time": 1854, "pitch": 68, "duration": 7, "velocity": 122}, {"time": 1857, "pitch": 53, "duration": 6, "velocity": 93}, {"time": 1860, "pitch": 60, "duration": 4, "velocity": 107}, {"time": 1863, "pitch": 65, "duration": 2, "velocity": 89}, {"time": 1863, "pitch": 68, "duration": 3, "velocity": 89}, {"time": 1866, "pitch": 46, "duration": 14, "velocity": 73}, {"time": 1869, "pitch": 58, "duration": 9, "velocity": 96}, {"time": 1872, "pitch": 61, "duration": 6, "velocity": 95}, {"time": 1875, "pitch": 65, "duration": 5, "velocity": 81}, {"time": 1878, "pitch": 70, "duration": 11, "velocity": 97}, {"time": 1881, "pitch": 61, "duration": 3, "velocity": 97}, {"time": 1884, "pitch": 65, "duration": 5, "velocity": 51}, {"time": 1887, "pitch": 61, "duration": 3, "velocity": 112}, {"time": 1890, "pitch": 39, "duration": 24, "velocity": 96}, {"time": 1902, "pitch": 46, "duration": 10, "velocity": 38}, {"time": 1902, "pitch": 51, "duration": 11, "velocity": 58}, {"time": 1902, "pitch": 55, "duration": 11, "velocity": 64}, {"time": 1902, "pitch": 58, "duration": 11, "velocity": 71}, {"time": 1902, "pitch": 63, "duration": 11, "velocity": 63}, {"time": 1962, "pitch": 37, "duration": 37, "velocity": 79}, {"time": 1968, "pitch": 44, "duration": 30, "velocity": 53}, {"time": 1974, "pitch": 49, "duration": 16, "velocity": 88}, {"time": 1980, "pitch": 53, "duration": 18, "velocity": 61}, {"time": 1986, "pitch": 61, "duration": 24, "velocity": 72}, {"time": 1998, "pitch": 56, "duration": 11, "velocity": 61}, {"time": 2004, "pitch": 53, "duration": 6, "velocity": 63}, {"time": 2010, "pitch": 36, "duration": 34, "velocity": 77}, {"time": 2016, "pitch": 43, "duration": 28, "velocity": 52}, {"time": 2022, "pitch": 48, "duration": 14, "velocity": 60}, {"time": 2028, "pitch": 55, "duration": 7, "velocity": 67}, {"time": 2034, "pitch": 60, "duration": 13, "velocity": 83}, {"time": 2034, "pitch": 63, "duration": 24, "velocity": 81}, {"time": 2040, "pitch": 48, "duration": 6, "velocity": 45}, {"time": 2046, "pitch": 55, "duration": 8, "velocity": 79}, {"time": 2052, "pitch": 60, "duration": 5, "velocity": 64}, {"time": 2058, "pitch": 46, "duration": 37, "velocity": 78}, {"time": 2064, "pitch": 53, "duration": 30, "velocity": 48}, {"time": 2070, "pitch": 58, "duration": 14, "velocity": 69}, {"time": 2076, "pitch": 61, "duration": 9, "velocity": 82}, {"time": 2082, "pitch": 65, "duration": 13, "velocity": 71}, {"time": 2082, "pitch": 70, "duration": 25, "velocity": 72}, {"time": 2088, "pitch": 58, "duration": 5, "velocity": 76}, {"time": 2094, "pitch": 61, "duration": 13, "velocity": 93}, {"time": 2100, "pitch": 65, "duration": 6, "velocity": 72}, {"time": 2106, "pitch": 39, "duration": 40, "velocity": 83}, {"time": 2112, "pitch": 46, "duration": 34, "velocity": 62}, {"time": 2118, "pitch": 51, "duration": 14, "velocity": 100}, {"time": 2124, "pitch": 55, "duration": 11, "velocity": 83}, {"time": 2130, "pitch": 58, "duration": 10, "velocity": 107}, {"time": 2130, "pitch": 63, "duration": 24, "velocity": 122}, {"time": 2136, "pitch": 51, "duration": 6, "velocity": 85}, {"time": 2142, "pitch": 58, "duration": 6, "velocity": 127}, {"time": 2145, "pitch": 51, "duration": 1, "velocity": 99}, {"time": 2148, "pitch": 55, "duration": 5, "velocity": 102}, {"time": 2151, "pitch": 58, "duration": 3, "velocity": 127}, {"time": 2154, "pitch": 37, "duration": 23, "velocity": 93}, {"time": 2157, "pitch": 44, "duration": 21, "velocity": 71}, {"time": 2160, "pitch": 49, "duration": 6, "velocity": 93}, {"time": 2163, "pitch": 53, "duration": 6, "velocity": 79}, {"time": 2166, "pitch": 61, "duration": 20, "velocity": 117}, {"time": 2169, "pitch": 49, "duration": 13, "velocity": 93}, {"time": 2172, "pitch": 56, "duration": 14, "velocity": 99}, {"time": 2175, "pitch": 53, "duration": 9, "velocity": 82}, {"time": 2178, "pitch": 37, "duration": 17, "velocity": 74}, {"time": 2181, "pitch": 44, "duration": 12, "velocity": 36}, {"time": 2184, "pitch": 49, "duration": 6, "velocity": 89}, {"time": 2187, "pitch": 53, "duration": 7, "velocity": 90}, {"time": 2190, "pitch": 61, "duration": 11, "velocity": 112}, {"time": 2193, "pitch": 49, "duration": 2, "velocity": 85}, {"time": 2196, "pitch": 56, "duration": 5, "velocity": 92}, {"time": 2199, "pitch": 53, "duration": 3, "velocity": 89}, {"time": 2202, "pitch": 36, "duration": 17, "velocity": 69}, {"time": 2205, "pitch": 43, "duration": 14, "velocity": 60}, {"time": 2208, "pitch": 48, "duration": 6, "velocity": 95}, {"time": 2211, "pitch": 55, "duration": 6, "velocity": 86}, {"time": 2214, "pitch": 63, "duration": 10, "velocity": 117}, {"time": 2217, "pitch": 48, "duration": 7, "velocity": 86}, {"time": 2220, "pitch": 60, "duration": 5, "velocity": 99}, {"time": 2223, "pitch": 55, "duration": 2, "velocity": 93}, {"time": 2226, "pitch": 41, "duration": 15, "velocity": 79}, {"time": 2229, "pitch": 48, "duration": 12, "velocity": 62}, {"time": 2232, "pitch": 53, "duration": 6, "velocity": 92}, {"time": 2235, "pitch": 60, "duration": 7, "velocity": 99}, {"time": 2238, "pitch": 68, "duration": 12, "velocity": 127}, {"time": 2241, "pitch": 53, "duration": 2, "velocity": 86}, {"time": 2244, "pitch": 65, "duration": 6, "velocity": 92}, {"time": 2247, "pitch": 60, "duration": 3, "velocity": 96}, {"time": 2250, "pitch": 46, "duration": 22, "velocity": 86}, {"time": 2253, "pitch": 53, "duration": 21, "velocity": 58}, {"time": 2256, "pitch": 58, "duration": 7, "velocity": 96}, {"time": 2259, "pitch": 61, "duration": 4, "velocity": 78}, {"time": 2262, "pitch": 65, "duration": 6, "velocity": 68}, {"time": 2262, "pitch": 70, "duration": 20, "velocity": 102}, {"time": 2265, "pitch": 58, "duration": 11, "velocity": 96}, {"time": 2268, "pitch": 61, "duration": 12, "velocity": 100}, {"time": 2271, "pitch": 65, "duration": 10, "velocity": 55}, {"time": 2274, "pitch": 46, "duration": 11, "velocity": 95}, {"time": 2277, "pitch": 53, "duration": 7, "velocity": 56}, {"time": 2280, "pitch": 58, "duration": 4, "velocity": 92}, {"time": 2283, "pitch": 61, "duration": 3, "velocity": 97}, {"time": 2286, "pitch": 65, "duration": 6, "velocity": 63}, {"time": 2286, "pitch": 70, "duration": 11, "velocity": 107}, {"time": 2292, "pitch": 48, "duration": 4, "velocity": 97}, {"time": 2292, "pitch": 60, "duration": 5, "velocity": 92}, {"time": 2298, "pitch": 37, "duration": 16, "velocity": 122}, {"time": 2298, "pitch": 61, "duration": 6, "velocity": 99}, {"time": 2304, "pitch": 49, "duration": 9, "velocity": 93}, {"time": 2316, "pitch": 39, "duration": 29, "velocity": 99}, {"time": 2316, "pitch": 51, "duration": 29, "velocity": 100}, {"time": 2316, "pitch": 55, "duration": 29, "velocity": 89}, {"time": 2316, "pitch": 58, "duration": 29, "velocity": 97}, {"time": 2346, "pitch": 44, "duration": 38, "velocity": 78}, {"time": 2352, "pitch": 51, "duration": 31, "velocity": 58}, {"time": 2358, "pitch": 56, "duration": 15, "velocity": 85}, {"time": 2364, "pitch": 60, "duration": 7, "velocity": 76}, {"time": 2370, "pitch": 63, "duration": 13, "velocity": 72}, {"time": 2370, "pitch": 68, "duration": 24, "velocity": 93}, {"time": 2376, "pitch": 56, "duration": 6, "velocity": 68}, {"time": 2382, "pitch": 60, "duration": 27, "velocity": 82}, {"time": 2388, "pitch": 63, "duration": 6, "velocity": 66}, {"time": 2394, "pitch": 41, "duration": 36, "velocity": 72}, {"time": 2400, "pitch": 48, "duration": 30, "velocity": 42}, {"time": 2406, "pitch": 53, "duration": 14, "velocity": 81}, {"time": 2412, "pitch": 60, "duration": 7, "velocity": 82}, {"time": 2418, "pitch": 65, "duration": 10, "velocity": 74}, {"time": 2418, "pitch": 68, "duration": 25, "velocity": 89}, {"time": 2424, "pitch": 53, "duration": 5, "velocity": 53}, {"time": 2430, "pitch": 60, "duration": 7, "velocity": 95}, {"time": 2436, "pitch": 65, "duration": 6, "velocity": 88}, {"time": 2439, "pitch": 60, "duration": 4, "velocity": 86}, {"time": 2442, "pitch": 37, "duration": 36, "velocity": 86}, {"time": 2448, "pitch": 44, "duration": 30, "velocity": 33}, {"time": 2454, "pitch": 53, "duration": 13, "velocity": 82}, {"time": 2460, "pitch": 49, "duration": 8, "velocity": 75}, {"time": 2466, "pitch": 56, "duration": 13, "velocity": 92}, {"time": 2466, "pitch": 61, "duration": 24, "velocity": 102}, {"time": 2472, "pitch": 49, "duration": 9, "velocity": 83}, {"time": 2478, "pitch": 53, "duration": 11, "velocity": 97}, {"time": 2484, "pitch": 56, "duration": 6, "velocity": 81}, {"time": 2490, "pitch": 39, "duration": 40, "velocity": 88}, {"time": 2496, "pitch": 46, "duration": 33, "velocity": 43}, {"time": 2502, "pitch": 51, "duration": 14, "velocity": 99}, {"time": 2508, "pitch": 55, "duration": 11, "velocity": 89}, {"time": 2514, "pitch": 58, "duration": 12, "velocity": 112}, {"time": 2514, "pitch": 63, "duration": 24, "velocity": 117}, {"time": 2520, "pitch": 51, "duration": 6, "velocity": 102}, {"time": 2526, "pitch": 55, "duration": 6, "velocity": 107}, {"time": 2529, "pitch": 51, "duration": 1, "velocity": 93}, {"time": 2532, "pitch": 58, "duration": 5, "velocity": 117}, {"time": 2535, "pitch": 55, "duration": 3, "velocity": 96}, {"time": 2538, "pitch": 37, "duration": 39, "velocity": 82}, {"time": 2541, "pitch": 44, "duration": 33, "velocity": 59}, {"time": 2544, "pitch": 49, "duration": 8, "velocity": 92}, {"time": 2547, "pitch": 53, "duration": 28, "velocity": 56}, {"time": 2550, "pitch": 56, "duration": 10, "velocity": 99}, {"time": 2556, "pitch": 49, "duration": 9, "velocity": 81}, {"time": 2562, "pitch": 56, "duration": 10, "velocity": 90}, {"time": 2562, "pitch": 61, "duration": 23, "velocity": 97}, {"time": 2568, "pitch": 49, "duration": 6, "velocity": 81}, {"time": 2574, "pitch": 56, "duration": 11, "velocity": 107}, {"time": 2580, "pitch": 53, "duration": 6, "velocity": 88}, {"time": 2586, "pitch": 36, "duration": 19, "velocity": 82}, {"time": 2592, "pitch": 43, "duration": 14, "velocity": 42}, {"time": 2598, "pitch": 48, "duration": 12, "velocity": 85}, {"time": 2604, "pitch": 55, "duration": 6, "velocity": 95}, {"time": 2610, "pitch": 41, "duration": 15, "velocity": 78}, {"time": 2616, "pitch": 48, "duration": 9, "velocity": 67}, {"time": 2622, "pitch": 56, "duration": 10, "velocity": 100}, {"time": 2622, "pitch": 60, "duration": 11, "velocity": 88}, {"time": 2628, "pitch": 53, "duration": 5, "velocity": 86}, {"time": 2634, "pitch": 46, "duration": 18, "velocity": 96}, {"time": 2640, "pitch": 53, "duration": 12, "velocity": 59}, {"time": 2646, "pitch": 58, "duration": 6, "velocity": 93}, {"time": 2652, "pitch": 61, "duration": 5, "velocity": 107}, {"time": 2658, "pitch": 39, "duration": 14, "velocity": 97}, {"time": 2664, "pitch": 51, "duration": 11, "velocity": 86}, {"time": 2670, "pitch": 58, "duration": 12, "velocity": 88}, {"time": 2670, "pitch": 63, "duration": 12, "velocity": 93}, {"time": 2676, "pitch": 55, "duration": 1, "velocity": 58}, {"time": 2682, "pitch": 44, "duration": 23, "velocity": 89}, {"time": 2688, "pitch": 51, "duration": 16, "velocity": 53}, {"time": 2694, "pitch": 56, "duration": 11, "velocity": 99}, {"time": 2700, "pitch": 63, "duration": 5, "velocity": 83}, {"time": 2700, "pitch": 68, "duration": 5, "velocity": 99}, {"time": 2706, "pitch": 37, "duration": 4, "velocity": 48}, {"time": 2706, "pitch": 49, "duration": 6, "velocity": 93}, {"time": 2706, "pitch": 61, "duration": 9, "velocity": 90}, {"time": 2706, "pitch": 65, "duration": 9, "velocity": 71}, {"time": 2706, "pitch": 68, "duration": 7, "velocity": 77}, {"time": 2718, "pitch": 39, "duration": 4, "velocity": 82}, {"time": 2718, "pitch": 51, "duration": 5, "velocity": 79}, {"time": 2718, "pitch": 63, "duration": 12, "velocity": 92}, {"time": 2718, "pitch": 67, "duration": 11, "velocity": 85}, {"time": 2718, "pitch": 70, "duration": 11, "velocity": 96}, {"time": 2730, "pitch": 44, "duration": 22, "velocity": 83}, {"time": 2733, "pitch": 51, "duration": 20, "velocity": 58}, {"time": 2736, "pitch": 56, "duration": 6, "velocity": 97}, {"time": 2739, "pitch": 60, "duration": 5, "velocity": 82}, {"time": 2742, "pitch": 68, "duration": 14, "velocity": 117}, {"time": 2745, "pitch": 56, "duration": 9, "velocity": 88}, {"time": 2748, "pitch": 63, "duration": 8, "velocity": 97}, {"time": 2751, "pitch": 60, "duration": 6, "velocity": 93}, {"time": 2754, "pitch": 44, "duration": 17, "velocity": 88}, {"time": 2757, "pitch": 51, "duration": 12, "velocity": 49}, {"time": 2760, "pitch": 56, "duration": 6, "velocity": 90}, {"time": 2763, "pitch": 60, "duration": 6, "velocity": 92}, {"time": 2766, "pitch": 68, "duration": 10, "velocity": 122}, {"time": 2769, "pitch": 56, "duration": 1, "velocity": 86}, {"time": 2772, "pitch": 63, "duration": 5, "velocity": 117}, {"time": 2775, "pitch": 60, "duration": 3, "velocity": 97}, {"time": 2778, "pitch": 36, "duration": 21, "velocity": 83}, {"time": 2781, "pitch": 43, "duration": 21, "velocity": 66}, {"time": 2784, "pitch": 48, "duration": 6, "velocity": 82}, {"time": 2787, "pitch": 55, "duration": 6, "velocity": 86}, {"time": 2790, "pitch": 63, "duration": 12, "velocity": 117}, {"time": 2793, "pitch": 48, "duration": 10, "velocity": 86}, {"time": 2796, "pitch": 60, "duration": 6, "velocity": 88}, {"time": 2799, "pitch": 55, "duration": 3, "velocity": 97}, {"time": 2802, "pitch": 36, "duration": 15, "velocity": 86}, {"time": 2805, "pitch": 43, "duration": 13, "velocity": 63}, {"time": 2808, "pitch": 48, "duration": 6, "velocity": 85}, {"time": 2811, "pitch": 63, "duration": 2, "velocity": 96}, {"time": 2811, "pitch": 67, "duration": 1, "velocity": 88}, {"time": 2814, "pitch": 63, "duration": 5, "velocity": 112}, {"time": 2814, "pitch": 67, "duration": 10, "velocity": 96}, {"time": 2817, "pitch": 48, "duration": 1, "velocity": 92}, {"time": 2820, "pitch": 60, "duration": 4, "velocity": 112}, {"time": 2823, "pitch": 63, "duration": 3, "velocity": 117}, {"time": 2826, "pitch": 37, "duration": 22, "velocity": 88}, {"time": 2829, "pitch": 44, "duration": 20, "velocity": 70}, {"time": 2832, "pitch": 49, "duration": 5, "velocity": 93}, {"time": 2835, "pitch": 53, "duration": 4, "velocity": 77}, {"time": 2838, "pitch": 56, "duration": 7, "velocity": 117}, {"time": 2841, "pitch": 49, "duration": 10, "velocity": 93}, {"time": 2844, "pitch": 53, "duration": 8, "velocity": 89}, {"time": 2847, "pitch": 56, "duration": 11, "velocity": 45}, {"time": 2847, "pitch": 61, "duration": 9, "velocity": 107}, {"time": 2850, "pitch": 37, "duration": 15, "velocity": 90}, {"time": 2853, "pitch": 44, "duration": 13, "velocity": 93}, {"time": 2856, "pitch": 49, "duration": 6, "velocity": 96}, {"time": 2859, "pitch": 53, "duration": 5, "velocity": 90}, {"time": 2862, "pitch": 61, "duration": 11, "velocity": 127}, {"time": 2865, "pitch": 49, "duration": 3, "velocity": 97}, {"time": 2868, "pitch": 56, "duration": 5, "velocity": 93}, {"time": 2871, "pitch": 53, "duration": 3, "velocity": 89}, {"time": 2874, "pitch": 39, "duration": 21, "velocity": 73}, {"time": 2877, "pitch": 46, "duration": 19, "velocity": 30}, {"time": 2880, "pitch": 51, "duration": 6, "velocity": 89}, {"time": 2883, "pitch": 55, "duration": 3, "velocity": 86}, {"time": 2886, "pitch": 58, "duration": 6, "velocity": 99}, {"time": 2886, "pitch": 63, "duration": 12, "velocity": 112}, {"time": 2889, "pitch": 51, "duration": 9, "velocity": 95}, {"time": 2892, "pitch": 55, "duration": 6, "velocity": 92}, {"time": 2895, "pitch": 58, "duration": 3, "velocity": 90}, {"time": 2898, "pitch": 39, "duration": 16, "velocity": 81}, {"time": 2901, "pitch": 46, "duration": 13, "velocity": 78}, {"time": 2904, "pitch": 51, "duration": 6, "velocity": 97}, {"time": 2907, "pitch": 63, "duration": 1, "velocity": 92}, {"time": 2907, "pitch": 67, "duration": 1, "velocity": 93}, {"time": 2907, "pitch": 70, "duration": 1, "velocity": 92}, {"time": 2910, "pitch": 67, "duration": 6, "velocity": 102}, {"time": 2910, "pitch": 70, "duration": 11, "velocity": 95}, {"time": 2913, "pitch": 51, "duration": 1, "velocity": 99}, {"time": 2916, "pitch": 63, "duration": 4, "velocity": 112}, {"time": 2919, "pitch": 67, "duration": 2, "velocity": 50}, {"time": 2922, "pitch": 37, "duration": 22, "velocity": 77}, {"time": 2925, "pitch": 44, "duration": 20, "velocity": 63}, {"time": 2928, "pitch": 49, "duration": 6, "velocity": 88}, {"time": 2931, "pitch": 53, "duration": 3, "velocity": 67}, {"time": 2934, "pitch": 56, "duration": 6, "velocity": 88}, {"time": 2934, "pitch": 61, "duration": 14, "velocity": 99}, {"time": 2937, "pitch": 49, "duration": 10, "velocity": 92}, {"time": 2940, "pitch": 53, "duration": 5, "velocity": 75}, {"time": 2943, "pitch": 56, "duration": 4, "velocity": 102}, {"time": 2946, "pitch": 37, "duration": 15, "velocity": 86}, {"time": 2949, "pitch": 44, "duration": 12, "velocity": 39}, {"time": 2952, "pitch": 49, "duration": 6, "velocity": 93}, {"time": 2955, "pitch": 53, "duration": 4, "velocity": 90}, {"time": 2958, "pitch": 61, "duration": 10, "velocity": 117}, {"time": 2961, "pitch": 49, "duration": 2, "velocity": 92}, {"time": 2964, "pitch": 56, "duration": 4, "velocity": 81}, {"time": 2967, "pitch": 53, "duration": 2, "velocity": 93}, {"time": 2970, "pitch": 41, "duration": 22, "velocity": 69}, {"time": 2973, "pitch": 48, "duration": 22, "velocity": 53}, {"time": 2976, "pitch": 53, "duration": 6, "velocity": 76}, {"time": 2979, "pitch": 56, "duration": 4, "velocity": 69}, {"time": 2982, "pitch": 65, "duration": 20, "velocity": 72}, {"time": 2985, "pitch": 53, "duration": 3, "velocity": 85}, {"time": 2988, "pitch": 56, "duration": 7, "velocity": 79}, {"time": 2991, "pitch": 60, "duration": 10, "velocity": 76}, {"time": 2994, "pitch": 41, "duration": 16, "velocity": 66}, {"time": 2997, "pitch": 48, "duration": 13, "velocity": 78}, {"time": 3000, "pitch": 53, "duration": 7, "velocity": 85}, {"time": 3003, "pitch": 56, "duration": 4, "velocity": 72}, {"time": 3006, "pitch": 60, "duration": 3, "velocity": 34}, {"time": 3006, "pitch": 65, "duration": 11, "velocity": 65}, {"time": 3009, "pitch": 53, "duration": 3, "velocity": 71}, {"time": 3012, "pitch": 56, "duration": 4, "velocity": 97}, {"time": 3015, "pitch": 60, "duration": 2, "velocity": 63}, {"time": 3018, "pitch": 46, "duration": 22, "velocity": 107}, {"time": 3021, "pitch": 53, "duration": 20, "velocity": 60}, {"time": 3024, "pitch": 58, "duration": 6, "velocity": 99}, {"time": 3027, "pitch": 61, "duration": 4, "velocity": 85}, {"time": 3030, "pitch": 65, "duration": 8, "velocity": 82}, {"time": 3033, "pitch": 58, "duration": 12, "velocity": 93}, {"time": 3036, "pitch": 61, "duration": 13, "velocity": 90}, {"time": 3039, "pitch": 65, "duration": 10, "velocity": 35}, {"time": 3039, "pitch": 70, "duration": 10, "velocity": 86}, {"time": 3042, "pitch": 46, "duration": 16, "velocity": 70}, {"time": 3045, "pitch": 53, "duration": 13, "velocity": 66}, {"time": 3048, "pitch": 58, "duration": 6, "velocity": 85}, {"time": 3051, "pitch": 61, "duration": 4, "velocity": 96}, {"time": 3054, "pitch": 65, "duration": 6, "velocity": 81}, {"time": 3054, "pitch": 70, "duration": 11, "velocity": 122}, {"time": 3057, "pitch": 58, "duration": 1, "velocity": 99}, {"time": 3060, "pitch": 61, "duration": 3, "velocity": 122}, {"time": 3063, "pitch": 65, "duration": 3, "velocity": 58}, {"time": 3066, "pitch": 39, "duration": 22, "velocity": 75}, {"time": 3069, "pitch": 46, "duration": 20, "velocity": 66}, {"time": 3072, "pitch": 51, "duration": 6, "velocity": 93}, {"time": 3075, "pitch": 55, "duration": 4, "velocity": 83}, {"time": 3078, "pitch": 58, "duration": 6, "velocity": 100}, {"time": 3078, "pitch": 63, "duration": 6, "velocity": 117}, {"time": 3081, "pitch": 51, "duration": 10, "velocity": 99}, {"time": 3084, "pitch": 55, "duration": 7, "velocity": 107}, {"time": 3087, "pitch": 58, "duration": 10, "velocity": 107}, {"time": 3087, "pitch": 63, "duration": 10, "velocity": 117}, {"time": 3090, "pitch": 39, "duration": 16, "velocity": 89}, {"time": 3093, "pitch": 46, "duration": 12, "velocity": 99}, {"time": 3096, "pitch": 51, "duration": 6, "velocity": 107}, {"time": 3099, "pitch": 55, "duration": 4, "velocity": 97}, {"time": 3102, "pitch": 58, "duration": 6, "velocity": 112}, {"time": 3102, "pitch": 63, "duration": 11, "velocity": 127}, {"time": 3105, "pitch": 51, "duration": 3, "velocity": 100}, {"time": 3108, "pitch": 55, "duration": 4, "velocity": 102}, {"time": 3111, "pitch": 58, "duration": 2, "velocity": 127}, {"time": 3114, "pitch": 44, "duration": 22, "velocity": 85}, {"time": 3117, "pitch": 51, "duration": 20, "velocity": 85}, {"time": 3120, "pitch": 56, "duration": 6, "velocity": 97}, {"time": 3123, "pitch": 60, "duration": 3, "velocity": 82}, {"time": 3126, "pitch": 63, "duration": 6, "velocity": 86}, {"time": 3126, "pitch": 68, "duration": 21, "velocity": 117}, {"time": 3129, "pitch": 56, "duration": 10, "velocity": 97}, {"time": 3132, "pitch": 60, "duration": 12, "velocity": 90}, {"time": 3135, "pitch": 63, "duration": 12, "velocity": 117}, {"time": 3138, "pitch": 44, "duration": 17, "velocity": 89}, {"time": 3141, "pitch": 51, "duration": 13, "velocity": 85}, {"time": 3144, "pitch": 56, "duration": 6, "velocity": 97}, {"time": 3147, "pitch": 60, "duration": 6, "velocity": 89}, {"time": 3150, "pitch": 68, "duration": 9, "velocity": 127}, {"time": 3153, "pitch": 56, "duration": 2, "velocity": 95}, {"time": 3156, "pitch": 63, "duration": 4, "velocity": 112}, {"time": 3159, "pitch": 60, "duration": 10, "velocity": 99}, {"time": 3162, "pitch": 41, "duration": 22, "velocity": 64}, {"time": 3165, "pitch": 48, "duration": 22, "velocity": 62}, {"time": 3168, "pitch": 53, "duration": 7, "velocity": 93}, {"time": 3171, "pitch": 60, "duration": 7, "velocity": 96}, {"time": 3174, "pitch": 68, "duration": 13, "velocity": 127}, {"time": 3177, "pitch": 53, "duration": 3, "velocity": 89}, {"time": 3180, "pitch": 65, "duration": 9, "velocity": 99}, {"time": 3183, "pitch": 60, "duration": 10, "velocity": 93}, {"time": 3186, "pitch": 41, "duration": 16, "velocity": 64}, {"time": 3189, "pitch": 48, "duration": 13, "velocity": 69}, {"time": 3192, "pitch": 53, "duration": 7, "velocity": 92}, {"time": 3195, "pitch": 60, "duration": 7, "velocity": 64}, {"time": 3198, "pitch": 68, "duration": 10, "velocity": 127}, {"time": 3201, "pitch": 53, "duration": 3, "velocity": 78}, {"time": 3204, "pitch": 65, "duration": 5, "velocity": 112}, {"time": 3207, "pitch": 60, "duration": 2, "velocity": 95}, {"time": 3210, "pitch": 46, "duration": 21, "velocity": 90}, {"time": 3213, "pitch": 53, "duration": 21, "velocity": 59}, {"time": 3216, "pitch": 58, "duration": 6, "velocity": 89}, {"time": 3219, "pitch": 61, "duration": 4, "velocity": 93}, {"time": 3222, "pitch": 65, "duration": 7, "velocity": 67}, {"time": 3225, "pitch": 58, "duration": 12, "velocity": 93}, {"time": 3228, "pitch": 61, "duration": 13, "velocity": 83}, {"time": 3231, "pitch": 65, "duration": 11, "velocity": 38}, {"time": 3231, "pitch": 70, "duration": 11, "velocity": 107}, {"time": 3234, "pitch": 46, "duration": 14, "velocity": 76}, {"time": 3237, "pitch": 53, "duration": 11, "velocity": 70}, {"time": 3240, "pitch": 58, "duration": 6, "velocity": 88}, {"time": 3243, "pitch": 61, "duration": 5, "velocity": 100}, {"time": 3246, "pitch": 70, "duration": 11, "velocity": 127}, {"time": 3249, "pitch": 61, "duration": 3, "velocity": 66}, {"time": 3252, "pitch": 65, "duration": 4, "velocity": 66}, {"time": 3255, "pitch": 61, "duration": 3, "velocity": 102}, {"time": 3258, "pitch": 39, "duration": 22, "velocity": 85}, {"time": 3261, "pitch": 46, "duration": 20, "velocity": 37}, {"time": 3264, "pitch": 51, "duration": 6, "velocity": 89}, {"time": 3267, "pitch": 55, "duration": 6, "velocity": 83}, {"time": 3270, "pitch": 63, "duration": 13, "velocity": 117}, {"time": 3273, "pitch": 51, "duration": 11, "velocity": 83}, {"time": 3276, "pitch": 58, "duration": 7, "velocity": 107}, {"time": 3279, "pitch": 55, "duration": 4, "velocity": 86}, {"time": 3282, "pitch": 39, "duration": 16, "velocity": 83}, {"time": 3285, "pitch": 46, "duration": 13, "velocity": 37}, {"time": 3288, "pitch": 51, "duration": 6, "velocity": 85}, {"time": 3291, "pitch": 55, "duration": 9, "velocity": 72}, {"time": 3294, "pitch": 63, "duration": 11, "velocity": 102}, {"time": 3297, "pitch": 51, "duration": 1, "velocity": 77}, {"time": 3300, "pitch": 58, "duration": 4, "velocity": 83}, {"time": 3303, "pitch": 55, "duration": 4, "velocity": 69}, {"time": 3306, "pitch": 36, "duration": 22, "velocity": 76}, {"time": 3309, "pitch": 43, "duration": 21, "velocity": 64}, {"time": 3312, "pitch": 48, "duration": 6, "velocity": 77}, {"time": 3315, "pitch": 55, "duration": 6, "velocity": 72}, {"time": 3318, "pitch": 63, "duration": 13, "velocity": 99}, {"time": 3321, "pitch": 48, "duration": 3, "velocity": 71}, {"time": 3324, "pitch": 60, "duration": 7, "velocity": 92}, {"time": 3327, "pitch": 55, "duration": 7, "velocity": 86}, {"time": 3330, "pitch": 36, "duration": 16, "velocity": 57}, {"time": 3333, "pitch": 43, "duration": 14, "velocity": 66}, {"time": 3336, "pitch": 48, "duration": 6, "velocity": 81}, {"time": 3339, "pitch": 55, "duration": 5, "velocity": 79}, {"time": 3342, "pitch": 63, "duration": 11, "velocity": 112}, {"time": 3345, "pitch": 48, "duration": 7, "velocity": 83}, {"time": 3348, "pitch": 60, "duration": 5, "velocity": 89}, {"time": 3351, "pitch": 55, "duration": 2, "velocity": 93}, {"time": 3354, "pitch": 41, "duration": 22, "velocity": 86}, {"time": 3357, "pitch": 48, "duration": 21, "velocity": 56}, {"time": 3360, "pitch": 53, "duration": 7, "velocity": 79}, {"time": 3363, "pitch": 60, "duration": 4, "velocity": 75}, {"time": 3366, "pitch": 68, "duration": 19, "velocity": 102}, {"time": 3369, "pitch": 53, "duration": 3, "velocity": 86}, {"time": 3372, "pitch": 65, "duration": 13, "velocity": 89}, {"time": 3375, "pitch": 60, "duration": 10, "velocity": 96}, {"time": 3378, "pitch": 41, "duration": 18, "velocity": 65}, {"time": 3381, "pitch": 48, "duration": 16, "velocity": 74}, {"time": 3384, "pitch": 53, "duration": 6, "velocity": 93}, {"time": 3387, "pitch": 60, "duration": 3, "velocity": 96}, {"time": 3390, "pitch": 65, "duration": 7, "velocity": 99}, {"time": 3390, "pitch": 68, "duration": 7, "velocity": 122}, {"time": 3393, "pitch": 53, "duration": 6, "velocity": 93}, {"time": 3396, "pitch": 60, "duration": 4, "velocity": 107}, {"time": 3399, "pitch": 65, "duration": 2, "velocity": 89}, {"time": 3399, "pitch": 68, "duration": 3, "velocity": 89}, {"time": 3402, "pitch": 46, "duration": 14, "velocity": 73}, {"time": 3405, "pitch": 58, "duration": 9, "velocity": 96}, {"time": 3408, "pitch": 61, "duration": 6, "velocity": 95}, {"time": 3411, "pitch": 65, "duration": 5, "velocity": 81}, {"time": 3414, "pitch": 70, "duration": 11, "velocity": 97}, {"time": 3417, "pitch": 61, "duration": 3, "velocity": 97}, {"time": 3420, "pitch": 65, "duration": 5, "velocity": 51}, {"time": 3423, "pitch": 61, "duration": 3, "velocity": 112}, {"time": 3426, "pitch": 39, "duration": 24, "velocity": 96}, {"time": 3438, "pitch": 46, "duration": 10, "velocity": 38}, {"time": 3438, "pitch": 51, "duration": 11, "velocity": 58}, {"time": 3438, "pitch": 55, "duration": 11, "velocity": 64}, {"time": 3438, "pitch": 58, "duration": 11, "velocity": 71}, {"time": 3438, "pitch": 63, "duration": 11, "velocity": 63}, {"time": 3450, "pitch": 44, "duration": 43, "velocity": 43}, {"time": 3450, "pitch": 51, "duration": 44, "velocity": 58}, {"time": 3450, "pitch": 56, "duration": 43, "velocity": 89}, {"time": 3450, "pitch": 60, "duration": 44, "velocity": 88}, {"time": 3450, "pitch": 63, "duration": 44, "velocity": 99}, {"time": 3450, "pitch": 68, "duration": 44, "velocity": 95}, {"time": 3498, "pitch": 44, "duration": 37, "velocity": 73}, {"time": 3504, "pitch": 51, "duration": 30, "velocity": 66}, {"time": 3510, "pitch": 56, "duration": 14, "velocity": 93}, {"time": 3516, "pitch": 60, "duration": 7, "velocity": 68}, {"time": 3522, "pitch": 63, "duration": 14, "velocity": 56}, {"time": 3522, "pitch": 68, "duration": 25, "velocity": 97}, {"time": 3528, "pitch": 56, "duration": 6, "velocity": 66}, {"time": 3534, "pitch": 60, "duration": 14, "velocity": 66}, {"time": 3540, "pitch": 63, "duration": 8, "velocity": 58}, {"time": 3546, "pitch": 36, "duration": 34, "velocity": 71}, {"time": 3552, "pitch": 43, "duration": 29, "velocity": 61}, {"time": 3558, "pitch": 48, "duration": 15, "velocity": 75}, {"time": 3564, "pitch": 55, "duration": 14, "velocity": 73}, {"time": 3570, "pitch": 60, "duration": 10, "velocity": 74}, {"time": 3570, "pitch": 63, "duration": 25, "velocity": 78}, {"time": 3576, "pitch": 48, "duration": 5, "velocity": 52}, {"time": 3582, "pitch": 55, "duration": 11, "velocity": 86}, {"time": 3588, "pitch": 60, "duration": 6, "velocity": 102}, {"time": 3594, "pitch": 37, "duration": 36, "velocity": 77}, {"time": 3600, "pitch": 44, "duration": 31, "velocity": 58}, {"time": 3606, "pitch": 49, "duration": 13, "velocity": 82}, {"time": 3612, "pitch": 61, "duration": 6, "velocity": 79}, {"time": 3618, "pitch": 65, "duration": 12, "velocity": 76}, {"time": 3618, "pitch": 68, "duration": 27, "velocity": 97}, {"time": 3624, "pitch": 49, "duration": 7, "velocity": 58}, {"time": 3630, "pitch": 61, "duration": 15, "velocity": 89}, {"time": 3636, "pitch": 65, "duration": 8, "velocity": 61}, {"time": 3642, "pitch": 39, "duration": 35, "velocity": 77}, {"time": 3648, "pitch": 46, "duration": 27, "velocity": 66}, {"time": 3654, "pitch": 51, "duration": 13, "velocity": 96}, {"time": 3660, "pitch": 55, "duration": 7, "velocity": 89}, {"time": 3666, "pitch": 58, "duration": 13, "velocity": 79}, {"time": 3666, "pitch": 63, "duration": 25, "velocity": 102}, {"time": 3669, "pitch": 51, "duration": 4, "velocity": 72}, {"time": 3678, "pitch": 55, "duration": 13, "velocity": 73}, {"time": 3690, "pitch": 37, "duration": 38, "velocity": 71}, {"time": 3696, "pitch": 44, "duration": 32, "velocity": 47}, {"time": 3702, "pitch": 49, "duration": 14, "velocity": 77}, {"time": 3708, "pitch": 61, "duration": 7, "velocity": 71}, {"time": 3714, "pitch": 65, "duration": 12, "velocity": 75}, {"time": 3714, "pitch": 68, "duration": 13, "velocity": 61}, {"time": 3720, "pitch": 49, "duration": 10, "velocity": 66}, {"time": 3726, "pitch": 61, "duration": 13, "velocity": 86}, {"time": 3732, "pitch": 68, "duration": 8, "velocity": 96}, {"time": 3738, "pitch": 41, "duration": 34, "velocity": 72}, {"time": 3744, "pitch": 48, "duration": 28, "velocity": 56}, {"time": 3750, "pitch": 53, "duration": 15, "velocity": 92}, {"time": 3756, "pitch": 60, "duration": 7, "velocity": 86}, {"time": 3762, "pitch": 65, "duration": 13, "velocity": 83}, {"time": 3762, "pitch": 68, "duration": 24, "velocity": 97}, {"time": 3768, "pitch": 53, "duration": 6, "velocity": 64}, {"time": 3774, "pitch": 60, "duration": 12, "velocity": 95}, {"time": 3780, "pitch": 65, "duration": 5, "velocity": 69}, {"time": 3786, "pitch": 46, "duration": 36, "velocity": 74}, {"time": 3792, "pitch": 53, "duration": 29, "velocity": 58}, {"time": 3798, "pitch": 58, "duration": 15, "velocity": 93}, {"time": 3804, "pitch": 61, "duration": 12, "velocity": 86}, {"time": 3810, "pitch": 65, "duration": 12, "velocity": 71}, {"time": 3810, "pitch": 70, "duration": 24, "velocity": 89}, {"time": 3816, "pitch": 58, "duration": 4, "velocity": 73}, {"time": 3822, "pitch": 61, "duration": 12, "velocity": 112}, {"time": 3828, "pitch": 65, "duration": 6, "velocity": 68}, {"time": 3834, "pitch": 39, "duration": 8, "velocity": 75}, {"time": 3834, "pitch": 39, "duration": 8, "velocity": 90}, {"time": 3837, "pitch": 46, "duration": 20, "velocity": 66}, {"time": 3840, "pitch": 51, "duration": 6, "velocity": 93}, {"time": 3843, "pitch": 55, "duration": 4, "velocity": 83}, {"time": 3846, "pitch": 58, "duration": 6, "velocity": 100}, {"time": 3846, "pitch": 63, "duration": 6, "velocity": 117}, {"time": 3849, "pitch": 51, "duration": 10, "velocity": 99}, {"time": 3852, "pitch": 55, "duration": 7, "velocity": 107}, {"time": 3855, "pitch": 58, "duration": 10, "velocity": 107}, {"time": 3855, "pitch": 63, "duration": 10, "velocity": 117}, {"time": 3858, "pitch": 39, "duration": 16, "velocity": 89}, {"time": 3861, "pitch": 46, "duration": 12, "velocity": 99}, {"time": 3864, "pitch": 51, "duration": 6, "velocity": 107}, {"time": 3867, "pitch": 55, "duration": 4, "velocity": 97}, {"time": 3870, "pitch": 58, "duration": 6, "velocity": 112}, {"time": 3870, "pitch": 63, "duration": 11, "velocity": 127}, {"time": 3873, "pitch": 51, "duration": 3, "velocity": 100}, {"time": 3876, "pitch": 55, "duration": 4, "velocity": 102}, {"time": 3879, "pitch": 58, "duration": 2, "velocity": 127}, {"time": 3882, "pitch": 44, "duration": 22, "velocity": 85}, {"time": 3885, "pitch": 51, "duration": 20, "velocity": 85}, {"time": 3888, "pitch": 56, "duration": 6, "velocity": 97}, {"time": 3891, "pitch": 60, "duration": 3, "velocity": 82}, {"time": 3894, "pitch": 63, "duration": 6, "velocity": 86}, {"time": 3894, "pitch": 68, "duration": 21, "velocity": 117}, {"time": 3897, "pitch": 56, "duration": 10, "velocity": 97}, {"time": 3900, "pitch": 60, "duration": 12, "velocity": 90}, {"time": 3903, "pitch": 63, "duration": 12, "velocity": 117}, {"time": 3906, "pitch": 44, "duration": 17, "velocity": 89}, {"time": 3909, "pitch": 51, "duration": 13, "velocity": 85}, {"time": 3912, "pitch": 56, "duration": 6, "velocity": 97}, {"time": 3915, "pitch": 60, "duration": 6, "velocity": 89}, {"time": 3918, "pitch": 68, "duration": 9, "velocity": 127}, {"time": 3921, "pitch": 56, "duration": 2, "velocity": 95}, {"time": 3924, "pitch": 63, "duration": 4, "velocity": 112}, {"time": 3927, "pitch": 60, "duration": 10, "velocity": 99}, {"time": 3930, "pitch": 41, "duration": 22, "velocity": 64}, {"time": 3933, "pitch": 48, "duration": 22, "velocity": 62}, {"time": 3936, "pitch": 53, "duration": 7, "velocity": 93}, {"time": 3939, "pitch": 60, "duration": 7, "velocity": 96}, {"time": 3942, "pitch": 68, "duration": 13, "velocity": 127}, {"time": 3945, "pitch": 53, "duration": 3, "velocity": 89}, {"time": 3948, "pitch": 65, "duration": 9, "velocity": 99}, {"time": 3951, "pitch": 60, "duration": 10, "velocity": 93}, {"time": 3954, "pitch": 41, "duration": 16, "velocity": 64}, {"time": 3957, "pitch": 48, "duration": 13, "velocity": 69}, {"time": 3960, "pitch": 53, "duration": 7, "velocity": 92}, {"time": 3963, "pitch": 60, "duration": 7, "velocity": 64}, {"time": 3966, "pitch": 68, "duration": 10, "velocity": 127}, {"time": 3969, "pitch": 53, "duration": 3, "velocity": 78}, {"time": 3972, "pitch": 65, "duration": 5, "velocity": 112}, {"time": 3975, "pitch": 60, "duration": 2, "velocity": 95}, {"time": 3978, "pitch": 46, "duration": 21, "velocity": 90}, {"time": 3981, "pitch": 53, "duration": 21, "velocity": 59}, {"time": 3984, "pitch": 58, "duration": 6, "velocity": 89}, {"time": 3987, "pitch": 61, "duration": 4, "velocity": 93}, {"time": 3990, "pitch": 65, "duration": 7, "velocity": 67}, {"time": 3993, "pitch": 58, "duration": 12, "velocity": 93}, {"time": 3996, "pitch": 61, "duration": 13, "velocity": 83}, {"time": 3999, "pitch": 65, "duration": 11, "velocity": 38}, {"time": 3999, "pitch": 70, "duration": 11, "velocity": 107}, {"time": 4002, "pitch": 46, "duration": 14, "velocity": 76}, {"time": 4005, "pitch": 53, "duration": 11, "velocity": 70}, {"time": 4008, "pitch": 58, "duration": 6, "velocity": 88}, {"time": 4011, "pitch": 61, "duration": 5, "velocity": 100}, {"time": 4014, "pitch": 70, "duration": 11, "velocity": 127}, {"time": 4017, "pitch": 61, "duration": 3, "velocity": 66}, {"time": 4020, "pitch": 65, "duration": 4, "velocity": 66}, {"time": 4023, "pitch": 61, "duration": 3, "velocity": 102}, {"time": 4026, "pitch": 39, "duration": 22, "velocity": 85}, {"time": 4029, "pitch": 46, "duration": 20, "velocity": 37}, {"time": 4032, "pitch": 51, "duration": 6, "velocity": 89}, {"time": 4035, "pitch": 55, "duration": 6, "velocity": 83}, {"time": 4038, "pitch": 63, "duration": 13, "velocity": 117}, {"time": 4041, "pitch": 51, "duration": 11, "velocity": 83}, {"time": 4044, "pitch": 58, "duration": 7, "velocity": 107}, {"time": 4047, "pitch": 55, "duration": 4, "velocity": 86}, {"time": 4050, "pitch": 39, "duration": 16, "velocity": 83}, {"time": 4053, "pitch": 46, "duration": 13, "velocity": 37}, {"time": 4056, "pitch": 51, "duration": 6, "velocity": 85}, {"time": 4059, "pitch": 55, "duration": 9, "velocity": 72}, {"time": 4062, "pitch": 63, "duration": 11, "velocity": 102}, {"time": 4065, "pitch": 51, "duration": 1, "velocity": 77}, {"time": 4068, "pitch": 58, "duration": 4, "velocity": 83}, {"time": 4071, "pitch": 55, "duration": 4, "velocity": 69}, {"time": 4074, "pitch": 36, "duration": 22, "velocity": 76}, {"time": 4077, "pitch": 43, "duration": 21, "velocity": 64}, {"time": 4080, "pitch": 48, "duration": 6, "velocity": 77}, {"time": 4083, "pitch": 55, "duration": 6, "velocity": 72}, {"time": 4086, "pitch": 63, "duration": 13, "velocity": 99}, {"time": 4089, "pitch": 48, "duration": 3, "velocity": 71}, {"time": 4092, "pitch": 60, "duration": 7, "velocity": 92}, {"time": 4095, "pitch": 55, "duration": 7, "velocity": 86}, {"time": 4098, "pitch": 36, "duration": 16, "velocity": 57}, {"time": 4101, "pitch": 43, "duration": 14, "velocity": 66}, {"time": 4104, "pitch": 48, "duration": 6, "velocity": 81}, {"time": 4107, "pitch": 55, "duration": 5, "velocity": 79}, {"time": 4110, "pitch": 63, "duration": 11, "velocity": 112}, {"time": 4113, "pitch": 48, "duration": 7, "velocity": 83}, {"time": 4116, "pitch": 60, "duration": 5, "velocity": 89}, {"time": 4119, "pitch": 55, "duration": 2, "velocity": 93}, {"time": 4122, "pitch": 41, "duration": 22, "velocity": 86}, {"time": 4125, "pitch": 48, "duration": 21, "velocity": 56}, {"time": 4128, "pitch": 53, "duration": 7, "velocity": 79}, {"time": 4131, "pitch": 60, "duration": 4, "velocity": 75}, {"time": 4134, "pitch": 68, "duration": 19, "velocity": 102}, {"time": 4137, "pitch": 53, "duration": 3, "velocity": 86}, {"time": 4140, "pitch": 65, "duration": 13, "velocity": 89}, {"time": 4143, "pitch": 60, "duration": 10, "velocity": 96}, {"time": 4146, "pitch": 41, "duration": 18, "velocity": 65}, {"time": 4149, "pitch": 48, "duration": 16, "velocity": 74}, {"time": 4152, "pitch": 53, "duration": 6, "velocity": 93}, {"time": 4155, "pitch": 60, "duration": 3, "velocity": 96}, {"time": 4158, "pitch": 65, "duration": 7, "velocity": 99}, {"time": 4158, "pitch": 68, "duration": 7, "velocity": 122}, {"time": 4161, "pitch": 53, "duration": 6, "velocity": 93}, {"time": 4164, "pitch": 60, "duration": 4, "velocity": 107}, {"time": 4167, "pitch": 65, "duration": 2, "velocity": 89}, {"time": 4167, "pitch": 68, "duration": 3, "velocity": 89}, {"time": 4170, "pitch": 46, "duration": 14, "velocity": 73}, {"time": 4173, "pitch": 58, "duration": 9, "velocity": 96}, {"time": 4176, "pitch": 61, "duration": 6, "velocity": 95}, {"time": 4179, "pitch": 65, "duration": 5, "velocity": 81}, {"time": 4182, "pitch": 70, "duration": 11, "velocity": 97}, {"time": 4185, "pitch": 61, "duration": 3, "velocity": 97}, {"time": 4188, "pitch": 65, "duration": 5, "velocity": 51}, {"time": 4191, "pitch": 61, "duration": 3, "velocity": 112}, {"time": 4194, "pitch": 39, "duration": 24, "velocity": 96}, {"time": 4206, "pitch": 46, "duration": 10, "velocity": 38}, {"time": 4206, "pitch": 51, "duration": 11, "velocity": 58}, {"time": 4206, "pitch": 55, "duration": 11, "velocity": 64}, {"time": 4206, "pitch": 58, "duration": 11, "velocity": 71}, {"time": 4206, "pitch": 63, "duration": 11, "velocity": 63}, {"time": 4218, "pitch": 44, "duration": 22, "velocity": 127}, {"time": 4224, "pitch": 56, "duration": 6, "velocity": 95}, {"time": 4230, "pitch": 60, "duration": 7, "velocity": 96}, {"time": 4233, "pitch": 56, "duration": 8, "velocity": 96}, {"time": 4236, "pitch": 68, "duration": 29, "velocity": 102}, {"time": 4239, "pitch": 63, "duration": 25, "velocity": 96}, {"time": 4242, "pitch": 44, "duration": 23, "velocity": 90}, {"time": 4242, "pitch": 56, "duration": 22, "velocity": 65}, {"time": 4242, "pitch": 60, "duration": 22, "velocity": 112}, {"time": 4265, "pitch": 65, "duration": 21, "velocity": 53}, {"time": 4265, "pitch": 46, "duration": 19, "velocity": 70}, {"time": 4265, "pitch": 73, "duration": 20, "velocity": 85}, {"time": 4265, "pitch": 58, "duration": 17, "velocity": 56}, {"time": 4265, "pitch": 70, "duration": 20, "velocity": 66}, {"time": 4289, "pitch": 39, "duration": 28, "velocity": 58}, {"time": 4289, "pitch": 63, "duration": 39, "velocity": 69}, {"time": 4289, "pitch": 67, "duration": 39, "velocity": 63}, {"time": 4290, "pitch": 70, "duration": 39, "velocity": 62}, {"time": 4293, "pitch": 51, "duration": 27, "velocity": 36}, {"time": 4337, "pitch": 61, "duration": 5, "velocity": 55}, {"time": 4337, "pitch": 37, "duration": 17, "velocity": 92}, {"time": 4337, "pitch": 65, "duration": 18, "velocity": 69}, {"time": 4337, "pitch": 68, "duration": 20, "velocity": 48}, {"time": 4343, "pitch": 49, "duration": 19, "velocity": 74}, {"time": 4349, "pitch": 61, "duration": 8, "velocity": 86}, {"time": 4361, "pitch": 39, "duration": 22, "velocity": 74}, {"time": 4361, "pitch": 63, "duration": 16, "velocity": 40}, {"time": 4361, "pitch": 67, "duration": 28, "velocity": 52}, {"time": 4361, "pitch": 70, "duration": 12, "velocity": 52}, {"time": 4368, "pitch": 51, "duration": 18, "velocity": 77}, {"time": 4374, "pitch": 70, "duration": 15, "velocity": 61}, {"time": 4386, "pitch": 63, "duration": 4, "velocity": 25}, {"time": 4400, "pitch": 44, "duration": 88, "velocity": 37}, {"time": 4402, "pitch": 56, "duration": 84, "velocity": 59}, {"time": 4403, "pitch": 60, "duration": 20, "velocity": 58}, {"time": 4403, "pitch": 51, "duration": 83, "velocity": 33}, {"time": 4404, "pitch": 63, "duration": 20, "velocity": 77}, {"time": 4405, "pitch": 68, "duration": 20, "velocity": 75}, {"time": 4427, "pitch": 68, "duration": 8, "velocity": 37}, {"time": 4432, "pitch": 72, "duration": 4, "velocity": 72}, {"time": 4435, "pitch": 75, "duration": 1, "velocity": 64}, {"time": 4440, "pitch": 80, "duration": 56, "velocity": 63}, {"time": 4444, "pitch": 84, "duration": 52, "velocity": 62}, {"time": 4452, "pitch": 87, "duration": 44, "velocity": 43}, {"time": 4459, "pitch": 92, "duration": 37, "velocity": 74}, {"time": 4479, "pitch": 92, "duration": 17, "velocity": 51}, {"time": 4480, "pitch": 96, "duration": 26, "velocity": 55}, {"time": 4481, "pitch": 99, "duration": 25, "velocity": 64}], "annotations": [{"time": 42, "annotation": {"number": 64, "value": 127}, "group": "control_change"}, {"time": 88, "annotation": {"number": 64, "value": 0}, "group": "control_change"}, {"time": 90, "annotation": {"number": 64, "value": 127}, "group": "control_change"}, {"time": 136, "annotation": {"number": 64, "value": 0}, "group": "control_change"}, {"time": 137, "annotation": {"number": 64, "value": 127}, "group": "control_change"}, {"time": 184, "annotation": {"number": 64, "value": 0}, "group": "control_change"}, {"time": 185, "annotation": {"number": 64, "value": 127}, "group": "control_change"}, {"time": 230, "annotation": {"number": 64, "value": 0}, "group": "control_change"}, {"time": 234, "annotation": {"number": 64, "value": 127}, "group": "control_change"}, {"time": 280, "annotation": {"number": 64, "value": 0}, "group": "control_change"}, {"time": 283, "annotation": {"number": 64, "value": 127}, "group": "control_change"}, {"time": 304, "annotation": {"number": 64, "value": 0}, "group": "control_change"}, {"time": 308, "annotation": {"number": 64, "value": 127}, "group": "control_change"}, {"time": 326, "annotation": {"number": 64, "value": 0}, "group": "control_change"}, {"time": 330, "annotation": {"number": 64, "value": 127}, "group": "control_change"}, {"time": 375, "annotation": {"number": 64, "value": 0}, "group": "control_change"}, {"time": 378, "annotation": {"number": 64, "value": 127}, "group": "control_change"}, {"time": 424, "annotation": {"number": 64, "value": 0}, "group": "control_change"}, {"time": 426, "annotation": {"number": 64, "value": 127}, "group": "control_change"}, {"time": 471, "annotation": {"number": 64, "value": 0}, "group": "control_change"}, {"time": 474, "annotation": {"number": 64, "value": 127}, "group": "control_change"}, {"time": 616, "annotation": {"number": 64, "value": 0}, "group": "control_change"}, {"time": 618, "annotation": {"number": 64, "value": 127}, "group": "control_change"}, {"time": 664, "annotation": {"number": 64, "value": 0}, "group": "control_change"}, {"time": 666, "annotation": {"number": 64, "value": 127}, "group": "control_change"}, {"time": 688, "annotation": {"number": 64, "value": 0}, "group": "control_change"}, {"time": 690, "annotation": {"number": 64, "value": 127}, "group": "control_change"}, {"time": 712, "annotation": {"number": 64, "value": 0}, "group": "control_change"}, {"time": 714, "annotation": {"number": 64, "value": 127}, "group": "control_change"}, {"time": 759, "annotation": {"number": 64, "value": 0}, "group": "control_change"}, {"time": 762, "annotation": {"number": 64, "value": 127}, "group": "control_change"}, {"time": 806, "annotation": {"number": 64, "value": 0}, "group": "control_change"}, {"time": 810, "annotation": {"number": 64, "value": 127}, "group": "control_change"}, {"time": 855, "annotation": {"number": 64, "value": 0}, "group": "control_change"}, {"time": 858, "annotation": {"number": 64, "value": 127}, "group": "control_change"}, {"time": 902, "annotation": {"number": 64, "value": 0}, "group": "control_change"}, {"time": 905, "annotation": {"number": 64, "value": 127}, "group": "control_change"}, {"time": 951, "annotation": {"number": 64, "value": 0}, "group": "control_change"}, {"time": 953, "annotation": {"number": 64, "value": 127}, "group": "control_change"}, {"time": 999, "annotation": {"number": 64, "value": 0}, "group": "control_change"}, {"time": 1001, "annotation": {"number": 64, "value": 127}, "group": "control_change"}, {"time": 1048, "annotation": {"number": 64, "value": 0}, "group": "control_change"}, {"time": 1050, "annotation": {"number": 64, "value": 127}, "group": "control_change"}, {"time": 1071, "annotation": {"number": 64, "value": 0}, "group": "control_change"}, {"time": 1074, "annotation": {"number": 64, "value": 127}, "group": "control_change"}, {"time": 1096, "annotation": {"number": 64, "value": 0}, "group": "control_change"}, {"time": 1097, "annotation": {"number": 64, "value": 127}, "group": "control_change"}, {"time": 1120, "annotation": {"number": 64, "value": 0}, "group": "control_change"}, {"time": 1121, "annotation": {"number": 64, "value": 127}, "group": "control_change"}, {"time": 1145, "annotation": {"number": 64, "value": 0}, "group": "control_change"}, {"time": 1145, "annotation": {"number": 64, "value": 127}, "group": "control_change"}, {"time": 1167, "annotation": {"number": 64, "value": 0}, "group": "control_change"}, {"time": 1169, "annotation": {"number": 64, "value": 127}, "group": "control_change"}, {"time": 1180, "annotation": {"number": 64, "value": 0}, "group": "control_change"}, {"time": 1193, "annotation": {"number": 64, "value": 127}, "group": "control_change"}, {"time": 1214, "annotation": {"number": 64, "value": 0}, "group": "control_change"}, {"time": 1217, "annotation": {"number": 64, "value": 127}, "group": "control_change"}, {"time": 1240, "annotation": {"number": 64, "value": 0}, "group": "control_change"}, {"time": 1241, "annotation": {"number": 64, "value": 127}, "group": "control_change"}, {"time": 1263, "annotation": {"number": 64, "value": 0}, "group": "control_change"}, {"time": 1265, "annotation": {"number": 64, "value": 127}, "group": "control_change"}, {"time": 1287, "annotation": {"number": 64, "value": 0}, "group": "control_change"}, {"time": 1289, "annotation": {"number": 64, "value": 127}, "group": "control_change"}, {"time": 1311, "annotation": {"number": 64, "value": 0}, "group": "control_change"}, {"time": 1313, "annotation": {"number": 64, "value": 127}, "group": "control_change"}, {"time": 1336, "annotation": {"number": 64, "value": 0}, "group": "control_change"}, {"time": 1337, "annotation": {"number": 64, "value": 127}, "group": "control_change"}, {"time": 1359, "annotation": {"number": 64, "value": 0}, "group": "control_change"}, {"time": 1361, "annotation": {"number": 64, "value": 127}, "group": "control_change"}, {"time": 1384, "annotation": {"number": 64, "value": 0}, "group": "control_change"}, {"time": 1385, "annotation": {"number": 64, "value": 127}, "group": "control_change"}, {"time": 1407, "annotation": {"number": 64, "value": 0}, "group": "control_change"}, {"time": 1409, "annotation": {"number": 64, "value": 127}, "group": "control_change"}, {"time": 1431, "annotation": {"number": 64, "value": 0}, "group": "control_change"}, {"time": 1433, "annotation": {"number": 64, "value": 127}, "group": "control_change"}, {"time": 1455, "annotation": {"number": 64, "value": 0}, "group": "control_change"}, {"time": 1457, "annotation": {"number": 64, "value": 127}, "group": "control_change"}, {"time": 1480, "annotation": {"number": 64, "value": 0}, "group": "control_change"}, {"time": 1481, "annotation": {"number": 64, "value": 127}, "group": "control_change"}, {"time": 1504, "annotation": {"number": 64, "value": 0}, "group": "control_change"}, {"time": 1506, "annotation": {"number": 64, "value": 127}, "group": "control_change"}, {"time": 1527, "annotation": {"number": 64, "value": 0}, "group": "control_change"}, {"time": 1529, "annotation": {"number": 64, "value": 127}, "group": "control_change"}, {"time": 1551, "annotation": {"number": 64, "value": 0}, "group": "control_change"}, {"time": 1553, "annotation": {"number": 64, "value": 127}, "group": "control_change"}, {"time": 1575, "annotation": {"number": 64, "value": 0}, "group": "control_change"}, {"time": 1577, "annotation": {"number": 64, "value": 127}, "group": "control_change"}, {"time": 1599, "annotation": {"number": 64, "value": 0}, "group": "control_change"}, {"time": 1601, "annotation": {"number": 64, "value": 127}, "group": "control_change"}, {"time": 1623, "annotation": {"number": 64, "value": 0}, "group": "control_change"}, {"time": 1625, "annotation": {"number": 64, "value": 127}, "group": "control_change"}, {"time": 1648, "annotation": {"number": 64, "value": 0}, "group": "control_change"}, {"time": 1649, "annotation": {"number": 64, "value": 127}, "group": "control_change"}, {"time": 1672, "annotation": {"number": 64, "value": 0}, "group": "control_change"}, {"time": 1674, "annotation": {"number": 64, "value": 127}, "group": "control_change"}, {"time": 1695, "annotation": {"number": 64, "value": 0}, "group": "control_change"}, {"time": 1697, "annotation": {"number": 64, "value": 127}, "group": "control_change"}, {"time": 1720, "annotation": {"number": 64, "value": 0}, "group": "control_change"}, {"time": 1721, "annotation": {"number": 64, "value": 127}, "group": "control_change"}, {"time": 1743, "annotation": {"number": 64, "value": 0}, "group": "control_change"}, {"time": 1745, "annotation": {"number": 64, "value": 127}, "group": "control_change"}, {"time": 1767, "annotation": {"number": 64, "value": 0}, "group": "control_change"}, {"time": 1769, "annotation": {"number": 64, "value": 127}, "group": "control_change"}, {"time": 1791, "annotation": {"number": 64, "value": 0}, "group": "control_change"}, {"time": 1793, "annotation": {"number": 64, "value": 127}, "group": "control_change"}, {"time": 1815, "annotation": {"number": 64, "value": 0}, "group": "control_change"}, {"time": 1817, "annotation": {"number": 64, "value": 127}, "group": "control_change"}, {"time": 1839, "annotation": {"number": 64, "value": 0}, "group": "control_change"}, {"time": 1841, "annotation": {"number": 64, "value": 127}, "group": "control_change"}, {"time": 1863, "annotation": {"number": 64, "value": 0}, "group": "control_change"}, {"time": 1866, "annotation": {"number": 64, "value": 127}, "group": "control_change"}, {"time": 1887, "annotation": {"number": 64, "value": 0}, "group": "control_change"}, {"time": 1889, "annotation": {"number": 64, "value": 127}, "group": "control_change"}, {"time": 1910, "annotation": {"number": 64, "value": 0}, "group": "control_change"}, {"time": 1961, "annotation": {"number": 64, "value": 127}, "group": "control_change"}, {"time": 2007, "annotation": {"number": 64, "value": 0}, "group": "control_change"}, {"time": 2009, "annotation": {"number": 64, "value": 127}, "group": "control_change"}, {"time": 2055, "annotation": {"number": 64, "value": 0}, "group": "control_change"}, {"time": 2057, "annotation": {"number": 64, "value": 127}, "group": "control_change"}, {"time": 2104, "annotation": {"number": 64, "value": 0}, "group": "control_change"}, {"time": 2105, "annotation": {"number": 64, "value": 127}, "group": "control_change"}, {"time": 2128, "annotation": {"number": 64, "value": 0}, "group": "control_change"}, {"time": 2129, "annotation": {"number": 64, "value": 127}, "group": "control_change"}, {"time": 2151, "annotation": {"number": 64, "value": 0}, "group": "control_change"}, {"time": 2152, "annotation": {"number": 64, "value": 127}, "group": "control_change"}, {"time": 2176, "annotation": {"number": 64, "value": 0}, "group": "control_change"}, {"time": 2177, "annotation": {"number": 64, "value": 127}, "group": "control_change"}, {"time": 2199, "annotation": {"number": 64, "value": 0}, "group": "control_change"}, {"time": 2201, "annotation": {"number": 64, "value": 127}, "group": "control_change"}, {"time": 2223, "annotation": {"number": 64, "value": 0}, "group": "control_change"}, {"time": 2225, "annotation": {"number": 64, "value": 127}, "group": "control_change"}, {"time": 2247, "annotation": {"number": 64, "value": 0}, "group": "control_change"}, {"time": 2249, "annotation": {"number": 64, "value": 127}, "group": "control_change"}, {"time": 2271, "annotation": {"number": 64, "value": 0}, "group": "control_change"}, {"time": 2274, "annotation": {"number": 64, "value": 127}, "group": "control_change"}, {"time": 2295, "annotation": {"number": 64, "value": 0}, "group": "control_change"}, {"time": 2297, "annotation": {"number": 64, "value": 127}, "group": "control_change"}, {"time": 2311, "annotation": {"number": 64, "value": 0}, "group": "control_change"}, {"time": 2346, "annotation": {"number": 64, "value": 127}, "group": "control_change"}, {"time": 2391, "annotation": {"number": 64, "value": 0}, "group": "control_change"}, {"time": 2394, "annotation": {"number": 64, "value": 127}, "group": "control_change"}, {"time": 2438, "annotation": {"number": 64, "value": 0}, "group": "control_change"}, {"time": 2441, "annotation": {"number": 64, "value": 127}, "group": "control_change"}, {"time": 2487, "annotation": {"number": 64, "value": 0}, "group": "control_change"}, {"time": 2489, "annotation": {"number": 64, "value": 127}, "group": "control_change"}, {"time": 2535, "annotation": {"number": 64, "value": 0}, "group": "control_change"}, {"time": 2537, "annotation": {"number": 64, "value": 127}, "group": "control_change"}, {"time": 2584, "annotation": {"number": 64, "value": 0}, "group": "control_change"}, {"time": 2586, "annotation": {"number": 64, "value": 127}, "group": "control_change"}, {"time": 2607, "annotation": {"number": 64, "value": 0}, "group": "control_change"}, {"time": 2610, "annotation": {"number": 64, "value": 127}, "group": "control_change"}, {"time": 2632, "annotation": {"number": 64, "value": 0}, "group": "control_change"}, {"time": 2633, "annotation": {"number": 64, "value": 127}, "group": "control_change"}, {"time": 2656, "annotation": {"number": 64, "value": 0}, "group": "control_change"}, {"time": 2657, "annotation": {"number": 64, "value": 127}, "group": "control_change"}, {"time": 2681, "annotation": {"number": 64, "value": 0}, "group": "control_change"}, {"time": 2681, "annotation": {"number": 64, "value": 127}, "group": "control_change"}, {"time": 2703, "annotation": {"number": 64, "value": 0}, "group": "control_change"}, {"time": 2705, "annotation": {"number": 64, "value": 127}, "group": "control_change"}, {"time": 2716, "annotation": {"number": 64, "value": 0}, "group": "control_change"}, {"time": 2729, "annotation": {"number": 64, "value": 127}, "group": "control_change"}, {"time": 2750, "annotation": {"number": 64, "value": 0}, "group": "control_change"}, {"time": 2753, "annotation": {"number": 64, "value": 127}, "group": "control_change"}, {"time": 2776, "annotation": {"number": 64, "value": 0}, "group": "control_change"}, {"time": 2777, "annotation": {"number": 64, "value": 127}, "group": "control_change"}, {"time": 2799, "annotation": {"number": 64, "value": 0}, "group": "control_change"}, {"time": 2801, "annotation": {"number": 64, "value": 127}, "group": "control_change"}, {"time": 2823, "annotation": {"number": 64, "value": 0}, "group": "control_change"}, {"time": 2825, "annotation": {"number": 64, "value": 127}, "group": "control_change"}, {"time": 2847, "annotation": {"number": 64, "value": 0}, "group": "control_change"}, {"time": 2849, "annotation": {"number": 64, "value": 127}, "group": "control_change"}, {"time": 2872, "annotation": {"number": 64, "value": 0}, "group": "control_change"}, {"time": 2873, "annotation": {"number": 64, "value": 127}, "group": "control_change"}, {"time": 2895, "annotation": {"number": 64, "value": 0}, "group": "control_change"}, {"time": 2897, "annotation": {"number": 64, "value": 127}, "group": "control_change"}, {"time": 2920, "annotation": {"number": 64, "value": 0}, "group": "control_change"}, {"time": 2921, "annotation": {"number": 64, "value": 127}, "group": "control_change"}, {"time": 2943, "annotation": {"number": 64, "value": 0}, "group": "control_change"}, {"time": 2945, "annotation": {"number": 64, "value": 127}, "group": "control_change"}, {"time": 2967, "annotation": {"number": 64, "value": 0}, "group": "control_change"}, {"time": 2969, "annotation": {"number": 64, "value": 127}, "group": "control_change"}, {"time": 2991, "annotation": {"number": 64, "value": 0}, "group": "control_change"}, {"time": 2993, "annotation": {"number": 64, "value": 127}, "group": "control_change"}, {"time": 3016, "annotation": {"number": 64, "value": 0}, "group": "control_change"}, {"time": 3017, "annotation": {"number": 64, "value": 127}, "group": "control_change"}, {"time": 3040, "annotation": {"number": 64, "value": 0}, "group": "control_change"}, {"time": 3042, "annotation": {"number": 64, "value": 127}, "group": "control_change"}, {"time": 3063, "annotation": {"number": 64, "value": 0}, "group": "control_change"}, {"time": 3065, "annotation": {"number": 64, "value": 127}, "group": "control_change"}, {"time": 3087, "annotation": {"number": 64, "value": 0}, "group": "control_change"}, {"time": 3089, "annotation": {"number": 64, "value": 127}, "group": "control_change"}, {"time": 3111, "annotation": {"number": 64, "value": 0}, "group": "control_change"}, {"time": 3113, "annotation": {"number": 64, "value": 127}, "group": "control_change"}, {"time": 3135, "annotation": {"number": 64, "value": 0}, "group": "control_change"}, {"time": 3137, "annotation": {"number": 64, "value": 127}, "group": "control_change"}, {"time": 3159, "annotation": {"number": 64, "value": 0}, "group": "control_change"}, {"time": 3161, "annotation": {"number": 64, "value": 127}, "group": "control_change"}, {"time": 3184, "annotation": {"number": 64, "value": 0}, "group": "control_change"}, {"time": 3185, "annotation": {"number": 64, "value": 127}, "group": "control_change"}, {"time": 3208, "annotation": {"number": 64, "value": 0}, "group": "control_change"}, {"time": 3210, "annotation": {"number": 64, "value": 127}, "group": "control_change"}, {"time": 3231, "annotation": {"number": 64, "value": 0}, "group": "control_change"}, {"time": 3233, "annotation": {"number": 64, "value": 127}, "group": "control_change"}, {"time": 3256, "annotation": {"number": 64, "value": 0}, "group": "control_change"}, {"time": 3257, "annotation": {"number": 64, "value": 127}, "group": "control_change"}, {"time": 3279, "annotation": {"number": 64, "value": 0}, "group": "control_change"}, {"time": 3281, "annotation": {"number": 64, "value": 127}, "group": "control_change"}, {"time": 3303, "annotation": {"number": 64, "value": 0}, "group": "control_change"}, {"time": 3305, "annotation": {"number": 64, "value": 127}, "group": "control_change"}, {"time": 3327, "annotation": {"number": 64, "value": 0}, "group": "control_change"}, {"time": 3329, "annotation": {"number": 64, "value": 127}, "group": "control_change"}, {"time": 3351, "annotation": {"number": 64, "value": 0}, "group": "control_change"}, {"time": 3353, "annotation": {"number": 64, "value": 127}, "group": "control_change"}, {"time": 3375, "annotation": {"number": 64, "value": 0}, "group": "control_change"}, {"time": 3377, "annotation": {"number": 64, "value": 127}, "group": "control_change"}, {"time": 3399, "annotation": {"number": 64, "value": 0}, "group": "control_change"}, {"time": 3402, "annotation": {"number": 64, "value": 127}, "group": "control_change"}, {"time": 3423, "annotation": {"number": 64, "value": 0}, "group": "control_change"}, {"time": 3425, "annotation": {"number": 64, "value": 127}, "group": "control_change"}, {"time": 3446, "annotation": {"number": 64, "value": 0}, "group": "control_change"}, {"time": 3451, "annotation": {"number": 64, "value": 127}, "group": "control_change"}, {"time": 3472, "annotation": {"number": 64, "value": 0}, "group": "control_change"}, {"time": 3474, "annotation": {"number": 64, "value": 127}, "group": "control_change"}, {"time": 3483, "annotation": {"number": 64, "value": 0}, "group": "control_change"}, {"time": 3498, "annotation": {"number": 64, "value": 127}, "group": "control_change"}, {"time": 3544, "annotation": {"number": 64, "value": 0}, "group": "control_change"}, {"time": 3546, "annotation": {"number": 64, "value": 127}, "group": "control_change"}, {"time": 3591, "annotation": {"number": 64, "value": 0}, "group": "control_change"}, {"time": 3594, "annotation": {"number": 64, "value": 127}, "group": "control_change"}, {"time": 3639, "annotation": {"number": 64, "value": 0}, "group": "control_change"}, {"time": 3642, "annotation": {"number": 64, "value": 127}, "group": "control_change"}, {"time": 3688, "annotation": {"number": 64, "value": 0}, "group": "control_change"}, {"time": 3690, "annotation": {"number": 64, "value": 127}, "group": "control_change"}, {"time": 3736, "annotation": {"number": 64, "value": 0}, "group": "control_change"}, {"time": 3738, "annotation": {"number": 64, "value": 127}, "group": "control_change"}, {"time": 3783, "annotation": {"number": 64, "value": 0}, "group": "control_change"}, {"time": 3786, "annotation": {"number": 64, "value": 127}, "group": "control_change"}, {"time": 3831, "annotation": {"number": 64, "value": 0}, "group": "control_change"}, {"time": 3833, "annotation": {"number": 64, "value": 127}, "group": "control_change"}, {"time": 3841, "annotation": {"number": 64, "value": 0}, "group": "control_change"}, {"time": 3855, "annotation": {"number": 64, "value": 0}, "group": "control_change"}, {"time": 3857, "annotation": {"number": 64, "value": 127}, "group": "control_change"}, {"time": 3879, "annotation": {"number": 64, "value": 0}, "group": "control_change"}, {"time": 3881, "annotation": {"number": 64, "value": 127}, "group": "control_change"}, {"time": 3903, "annotation": {"number": 64, "value": 0}, "group": "control_change"}, {"time": 3905, "annotation": {"number": 64, "value": 127}, "group": "control_change"}, {"time": 3927, "annotation": {"number": 64, "value": 0}, "group": "control_change"}, {"time": 3929, "annotation": {"number": 64, "value": 127}, "group": "control_change"}, {"time": 3952, "annotation": {"number": 64, "value": 0}, "group": "control_change"}, {"time": 3953, "annotation": {"number": 64, "value": 127}, "group": "control_change"}, {"time": 3976, "annotation": {"number": 64, "value": 0}, "group": "control_change"}, {"time": 3978, "annotation": {"number": 64, "value": 127}, "group": "control_change"}, {"time": 3999, "annotation": {"number": 64, "value": 0}, "group": "control_change"}, {"time": 4001, "annotation": {"number": 64, "value": 127}, "group": "control_change"}, {"time": 4024, "annotation": {"number": 64, "value": 0}, "group": "control_change"}, {"time": 4025, "annotation": {"number": 64, "value": 127}, "group": "control_change"}, {"time": 4047, "annotation": {"number": 64, "value": 0}, "group": "control_change"}, {"time": 4049, "annotation": {"number": 64, "value": 127}, "group": "control_change"}, {"time": 4071, "annotation": {"number": 64, "value": 0}, "group": "control_change"}, {"time": 4073, "annotation": {"number": 64, "value": 127}, "group": "control_change"}, {"time": 4095, "annotation": {"number": 64, "value": 0}, "group": "control_change"}, {"time": 4097, "annotation": {"number": 64, "value": 127}, "group": "control_change"}, {"time": 4119, "annotation": {"number": 64, "value": 0}, "group": "control_change"}, {"time": 4121, "annotation": {"number": 64, "value": 127}, "group": "control_change"}, {"time": 4143, "annotation": {"number": 64, "value": 0}, "group": "control_change"}, {"time": 4145, "annotation": {"number": 64, "value": 127}, "group": "control_change"}, {"time": 4167, "annotation": {"number": 64, "value": 0}, "group": "control_change"}, {"time": 4170, "annotation": {"number": 64, "value": 127}, "group": "control_change"}, {"time": 4191, "annotation": {"number": 64, "value": 0}, "group": "control_change"}, {"time": 4193, "annotation": {"number": 64, "value": 127}, "group": "control_change"}, {"time": 4214, "annotation": {"number": 64, "value": 0}, "group": "control_change"}, {"time": 4218, "annotation": {"number": 64, "value": 127}, "group": "control_change"}, {"time": 4241, "annotation": {"number": 64, "value": 0}, "group": "control_change"}, {"time": 4266, "annotation": {"number": 64, "value": 127}, "group": "control_change"}, {"time": 4289, "annotation": {"number": 64, "value": 0}, "group": "control_change"}, {"time": 4303, "annotation": {"number": 64, "value": 127}, "group": "control_change"}, {"time": 4341, "annotation": {"number": 64, "value": 127}, "group": "control_change"}, {"time": 4360, "annotation": {"number": 64, "value": 0}, "group": "control_change"}, {"time": 4363, "annotation": {"number": 64, "value": 127}, "group": "control_change"}, {"time": 4405, "annotation": {"number": 64, "value": 0}, "group": "control_change"}, {"time": 4421, "annotation": {"number": 64, "value": 127}, "group": "control_change"}, {"time": 4461, "annotation": {"number": 64, "value": 127}, "group": "control_change"}, {"time": 4483, "annotation": {"number": 64, "value": 0}, "group": "control_change"}, {"time": 4495, "annotation": {"number": 64, "value": 127}, "group": "control_change"}, {"time": 4521, "annotation": {"number": 64, "value": 0}, "group": "control_change"}, {"time": 4522, "annotation": {"number": 64, "value": 127}, "group": "control_change"}, {"time": 4525, "annotation": {"number": 64, "value": 0}, "group": "control_change"}, {"time": 4526, "annotation": {"number": 64, "value": 127}, "group": "control_change"}, {"time": 4528, "annotation": {"number": 64, "value": 0}, "group": "control_change"}]}]}