{"metadata": {"schema_version": "0.2", "title": "None", "source_filename": "487.mid", "source_format": "midi"}, "resolution": 12, "tempos": [{"time": 0, "qpm": 84.000084000084}, {"time": 2304, "qpm": 90.99995298335763}, {"time": 2316, "qpm": 84.000084000084}], "time_signatures": [{"time": 0, "numerator": 1, "denominator": 4}], "tracks": [{"program": 0, "is_drum": false, "name": "MELODY", "notes": [{"time": 711, "pitch": 75, "duration": 3, "velocity": 117}, {"time": 717, "pitch": 75, "duration": 2, "velocity": 127}, {"time": 720, "pitch": 75, "duration": 4, "velocity": 112}, {"time": 729, "pitch": 74, "duration": 4, "velocity": 127}, {"time": 735, "pitch": 75, "duration": 3, "velocity": 122}, {"time": 738, "pitch": 74, "duration": 3, "velocity": 96}, {"time": 744, "pitch": 70, "duration": 6, "velocity": 112}, {"time": 753, "pitch": 72, "duration": 4, "velocity": 127}, {"time": 759, "pitch": 70, "duration": 2, "velocity": 112}, {"time": 762, "pitch": 70, "duration": 3, "velocity": 102}, {"time": 771, "pitch": 72, "duration": 6, "velocity": 112}, {"time": 777, "pitch": 67, "duration": 7, "velocity": 102}, {"time": 807, "pitch": 75, "duration": 4, "velocity": 127}, {"time": 813, "pitch": 75, "duration": 2, "velocity": 127}, {"time": 816, "pitch": 75, "duration": 5, "velocity": 127}, {"time": 825, "pitch": 74, "duration": 4, "velocity": 127}, {"time": 831, "pitch": 75, "duration": 3, "velocity": 122}, {"time": 834, "pitch": 74, "duration": 3, "velocity": 102}, {"time": 840, "pitch": 70, "duration": 6, "velocity": 127}, {"time": 849, "pitch": 72, "duration": 5, "velocity": 117}, {"time": 855, "pitch": 79, "duration": 3, "velocity": 117}, {"time": 861, "pitch": 79, "duration": 3, "velocity": 122}, {"time": 867, "pitch": 70, "duration": 4, "velocity": 112}, {"time": 873, "pitch": 72, "duration": 16, "velocity": 122}, {"time": 903, "pitch": 75, "duration": 2, "velocity": 127}, {"time": 906, "pitch": 75, "duration": 2, "velocity": 112}, {"time": 909, "pitch": 75, "duration": 3, "velocity": 122}, {"time": 921, "pitch": 74, "duration": 4, "velocity": 127}, {"time": 927, "pitch": 75, "duration": 2, "velocity": 117}, {"time": 930, "pitch": 74, "duration": 4, "velocity": 106}, {"time": 936, "pitch": 70, "duration": 5, "velocity": 117}, {"time": 945, "pitch": 72, "duration": 4, "velocity": 122}, {"time": 951, "pitch": 70, "duration": 2, "velocity": 117}, {"time": 954, "pitch": 70, "duration": 4, "velocity": 107}, {"time": 963, "pitch": 72, "duration": 8, "velocity": 127}, {"time": 969, "pitch": 67, "duration": 7, "velocity": 97}, {"time": 978, "pitch": 68, "duration": 2, "velocity": 102}, {"time": 980, "pitch": 67, "duration": 2, "velocity": 90}, {"time": 981, "pitch": 65, "duration": 8, "velocity": 92}, {"time": 999, "pitch": 63, "duration": 2, "velocity": 100}, {"time": 1002, "pitch": 63, "duration": 1, "velocity": 90}, {"time": 1005, "pitch": 63, "duration": 2, "velocity": 96}, {"time": 1008, "pitch": 75, "duration": 7, "velocity": 127}, {"time": 1017, "pitch": 74, "duration": 5, "velocity": 127}, {"time": 1023, "pitch": 75, "duration": 2, "velocity": 122}, {"time": 1026, "pitch": 74, "duration": 5, "velocity": 122}, {"time": 1035, "pitch": 70, "duration": 5, "velocity": 127}, {"time": 1041, "pitch": 72, "duration": 5, "velocity": 117}, {"time": 1050, "pitch": 79, "duration": 5, "velocity": 127}, {"time": 1059, "pitch": 70, "duration": 5, "velocity": 127}, {"time": 1065, "pitch": 72, "duration": 15, "velocity": 117}, {"time": 1095, "pitch": 75, "duration": 2, "velocity": 112}, {"time": 1098, "pitch": 75, "duration": 2, "velocity": 122}, {"time": 1101, "pitch": 75, "duration": 3, "velocity": 127}, {"time": 1113, "pitch": 74, "duration": 4, "velocity": 127}, {"time": 1119, "pitch": 74, "duration": 5, "velocity": 127}, {"time": 1125, "pitch": 74, "duration": 3, "velocity": 127}, {"time": 1131, "pitch": 72, "duration": 2, "velocity": 122}, {"time": 1134, "pitch": 70, "duration": 2, "velocity": 112}, {"time": 1137, "pitch": 72, "duration": 5, "velocity": 117}, {"time": 1143, "pitch": 70, "duration": 2, "velocity": 122}, {"time": 1146, "pitch": 70, "duration": 4, "velocity": 100}, {"time": 1155, "pitch": 72, "duration": 5, "velocity": 117}, {"time": 1161, "pitch": 67, "duration": 11, "velocity": 107}, {"time": 1191, "pitch": 75, "duration": 2, "velocity": 127}, {"time": 1194, "pitch": 75, "duration": 2, "velocity": 99}, {"time": 1197, "pitch": 75, "duration": 2, "velocity": 127}, {"time": 1200, "pitch": 75, "duration": 3, "velocity": 127}, {"time": 1206, "pitch": 75, "duration": 2, "velocity": 127}, {"time": 1209, "pitch": 74, "duration": 4, "velocity": 127}, {"time": 1215, "pitch": 75, "duration": 2, "velocity": 127}, {"time": 1218, "pitch": 74, "duration": 4, "velocity": 127}, {"time": 1224, "pitch": 70, "duration": 7, "velocity": 127}, {"time": 1233, "pitch": 72, "duration": 6, "velocity": 127}, {"time": 1242, "pitch": 79, "duration": 5, "velocity": 122}, {"time": 1251, "pitch": 70, "duration": 5, "velocity": 117}, {"time": 1257, "pitch": 72, "duration": 19, "velocity": 117}, {"time": 1287, "pitch": 75, "duration": 2, "velocity": 112}, {"time": 1290, "pitch": 75, "duration": 2, "velocity": 122}, {"time": 1293, "pitch": 75, "duration": 3, "velocity": 127}, {"time": 1305, "pitch": 74, "duration": 4, "velocity": 122}, {"time": 1311, "pitch": 75, "duration": 2, "velocity": 122}, {"time": 1314, "pitch": 74, "duration": 4, "velocity": 99}, {"time": 1320, "pitch": 70, "duration": 6, "velocity": 127}, {"time": 1329, "pitch": 72, "duration": 5, "velocity": 117}, {"time": 1335, "pitch": 70, "duration": 2, "velocity": 122}, {"time": 1338, "pitch": 70, "duration": 4, "velocity": 100}, {"time": 1347, "pitch": 72, "duration": 5, "velocity": 117}, {"time": 1353, "pitch": 67, "duration": 11, "velocity": 107}, {"time": 1383, "pitch": 63, "duration": 1, "velocity": 127}, {"time": 1386, "pitch": 63, "duration": 2, "velocity": 90}, {"time": 1389, "pitch": 63, "duration": 2, "velocity": 127}, {"time": 1392, "pitch": 75, "duration": 4, "velocity": 117}, {"time": 1401, "pitch": 74, "duration": 4, "velocity": 127}, {"time": 1407, "pitch": 75, "duration": 3, "velocity": 127}, {"time": 1410, "pitch": 74, "duration": 3, "velocity": 122}, {"time": 1416, "pitch": 70, "duration": 7, "velocity": 127}, {"time": 1425, "pitch": 72, "duration": 6, "velocity": 112}, {"time": 1434, "pitch": 79, "duration": 5, "velocity": 112}, {"time": 1443, "pitch": 70, "duration": 4, "velocity": 127}, {"time": 1449, "pitch": 72, "duration": 12, "velocity": 122}, {"time": 1509, "pitch": 79, "duration": 6, "velocity": 117}, {"time": 1515, "pitch": 82, "duration": 5, "velocity": 127}, {"time": 1521, "pitch": 84, "duration": 9, "velocity": 127}, {"time": 1533, "pitch": 87, "duration": 9, "velocity": 127}, {"time": 1545, "pitch": 86, "duration": 9, "velocity": 127}, {"time": 1557, "pitch": 82, "duration": 6, "velocity": 127}, {"time": 1563, "pitch": 86, "duration": 5, "velocity": 127}, {"time": 1569, "pitch": 86, "duration": 12, "velocity": 127}, {"time": 1581, "pitch": 84, "duration": 13, "velocity": 127}, {"time": 1605, "pitch": 79, "duration": 5, "velocity": 112}, {"time": 1611, "pitch": 82, "duration": 5, "velocity": 122}, {"time": 1617, "pitch": 84, "duration": 9, "velocity": 127}, {"time": 1629, "pitch": 87, "duration": 8, "velocity": 127}, {"time": 1641, "pitch": 84, "duration": 8, "velocity": 127}, {"time": 1653, "pitch": 77, "duration": 6, "velocity": 127}, {"time": 1659, "pitch": 82, "duration": 4, "velocity": 127}, {"time": 1665, "pitch": 82, "duration": 12, "velocity": 127}, {"time": 1677, "pitch": 79, "duration": 17, "velocity": 122}, {"time": 1713, "pitch": 84, "duration": 10, "velocity": 127}, {"time": 1725, "pitch": 91, "duration": 10, "velocity": 127}, {"time": 1737, "pitch": 89, "duration": 8, "velocity": 127}, {"time": 1749, "pitch": 84, "duration": 4, "velocity": 122}, {"time": 1755, "pitch": 87, "duration": 3, "velocity": 127}, {"time": 1758, "pitch": 84, "duration": 3, "velocity": 97}, {"time": 1761, "pitch": 82, "duration": 7, "velocity": 127}, {"time": 1767, "pitch": 79, "duration": 6, "velocity": 117}, {"time": 1773, "pitch": 82, "duration": 18, "velocity": 127}, {"time": 1809, "pitch": 91, "duration": 8, "velocity": 112}, {"time": 1821, "pitch": 89, "duration": 8, "velocity": 127}, {"time": 1833, "pitch": 87, "duration": 7, "velocity": 127}, {"time": 1845, "pitch": 82, "duration": 6, "velocity": 127}, {"time": 1851, "pitch": 87, "duration": 6, "velocity": 127}, {"time": 1857, "pitch": 84, "duration": 36, "velocity": 127}, {"time": 1893, "pitch": 79, "duration": 6, "velocity": 117}, {"time": 1899, "pitch": 82, "duration": 5, "velocity": 127}, {"time": 1905, "pitch": 84, "duration": 9, "velocity": 127}, {"time": 1917, "pitch": 87, "duration": 9, "velocity": 127}, {"time": 1929, "pitch": 86, "duration": 9, "velocity": 127}, {"time": 1941, "pitch": 82, "duration": 6, "velocity": 127}, {"time": 1947, "pitch": 86, "duration": 5, "velocity": 127}, {"time": 1953, "pitch": 86, "duration": 12, "velocity": 127}, {"time": 1965, "pitch": 84, "duration": 18, "velocity": 127}, {"time": 1989, "pitch": 79, "duration": 5, "velocity": 112}, {"time": 1995, "pitch": 82, "duration": 5, "velocity": 122}, {"time": 2001, "pitch": 84, "duration": 9, "velocity": 127}, {"time": 2013, "pitch": 87, "duration": 8, "velocity": 127}, {"time": 2025, "pitch": 84, "duration": 8, "velocity": 127}, {"time": 2037, "pitch": 77, "duration": 6, "velocity": 127}, {"time": 2043, "pitch": 82, "duration": 4, "velocity": 127}, {"time": 2049, "pitch": 82, "duration": 12, "velocity": 127}, {"time": 2061, "pitch": 79, "duration": 24, "velocity": 122}, {"time": 2097, "pitch": 84, "duration": 10, "velocity": 127}, {"time": 2109, "pitch": 91, "duration": 10, "velocity": 127}, {"time": 2121, "pitch": 89, "duration": 8, "velocity": 127}, {"time": 2133, "pitch": 84, "duration": 4, "velocity": 122}, {"time": 2139, "pitch": 87, "duration": 3, "velocity": 127}, {"time": 2142, "pitch": 84, "duration": 3, "velocity": 97}, {"time": 2145, "pitch": 82, "duration": 7, "velocity": 127}, {"time": 2151, "pitch": 79, "duration": 6, "velocity": 117}, {"time": 2157, "pitch": 82, "duration": 31, "velocity": 127}, {"time": 2193, "pitch": 91, "duration": 8, "velocity": 112}, {"time": 2205, "pitch": 89, "duration": 8, "velocity": 127}, {"time": 2217, "pitch": 87, "duration": 7, "velocity": 127}, {"time": 2229, "pitch": 82, "duration": 6, "velocity": 127}, {"time": 2235, "pitch": 87, "duration": 6, "velocity": 127}, {"time": 2241, "pitch": 84, "duration": 36, "velocity": 127}, {"time": 2679, "pitch": 75, "duration": 2, "velocity": 112}, {"time": 2682, "pitch": 75, "duration": 2, "velocity": 122}, {"time": 2685, "pitch": 75, "duration": 3, "velocity": 127}, {"time": 2697, "pitch": 74, "duration": 4, "velocity": 127}, {"time": 2703, "pitch": 74, "duration": 5, "velocity": 127}, {"time": 2709, "pitch": 74, "duration": 3, "velocity": 127}, {"time": 2715, "pitch": 72, "duration": 2, "velocity": 122}, {"time": 2718, "pitch": 70, "duration": 2, "velocity": 112}, {"time": 2721, "pitch": 72, "duration": 5, "velocity": 117}, {"time": 2727, "pitch": 70, "duration": 2, "velocity": 122}, {"time": 2730, "pitch": 70, "duration": 4, "velocity": 100}, {"time": 2739, "pitch": 72, "duration": 5, "velocity": 117}, {"time": 2745, "pitch": 67, "duration": 11, "velocity": 107}, {"time": 2775, "pitch": 75, "duration": 2, "velocity": 127}, {"time": 2778, "pitch": 75, "duration": 2, "velocity": 99}, {"time": 2781, "pitch": 75, "duration": 2, "velocity": 127}, {"time": 2784, "pitch": 75, "duration": 3, "velocity": 127}, {"time": 2790, "pitch": 75, "duration": 2, "velocity": 127}, {"time": 2793, "pitch": 74, "duration": 4, "velocity": 127}, {"time": 2799, "pitch": 75, "duration": 2, "velocity": 127}, {"time": 2802, "pitch": 74, "duration": 4, "velocity": 127}, {"time": 2808, "pitch": 70, "duration": 7, "velocity": 127}, {"time": 2817, "pitch": 72, "duration": 6, "velocity": 127}, {"time": 2826, "pitch": 79, "duration": 5, "velocity": 122}, {"time": 2835, "pitch": 70, "duration": 5, "velocity": 117}, {"time": 2841, "pitch": 72, "duration": 19, "velocity": 117}, {"time": 2871, "pitch": 75, "duration": 2, "velocity": 112}, {"time": 2874, "pitch": 75, "duration": 2, "velocity": 122}, {"time": 2877, "pitch": 75, "duration": 3, "velocity": 127}, {"time": 2889, "pitch": 74, "duration": 4, "velocity": 122}, {"time": 2895, "pitch": 75, "duration": 2, "velocity": 122}, {"time": 2898, "pitch": 74, "duration": 4, "velocity": 99}, {"time": 2904, "pitch": 70, "duration": 6, "velocity": 127}, {"time": 2913, "pitch": 72, "duration": 5, "velocity": 117}, {"time": 2919, "pitch": 70, "duration": 2, "velocity": 122}, {"time": 2922, "pitch": 70, "duration": 4, "velocity": 100}, {"time": 2931, "pitch": 72, "duration": 5, "velocity": 117}, {"time": 2937, "pitch": 67, "duration": 11, "velocity": 107}, {"time": 2967, "pitch": 63, "duration": 1, "velocity": 127}, {"time": 2970, "pitch": 63, "duration": 2, "velocity": 90}, {"time": 2973, "pitch": 63, "duration": 2, "velocity": 127}, {"time": 2976, "pitch": 75, "duration": 4, "velocity": 117}, {"time": 2985, "pitch": 74, "duration": 4, "velocity": 127}, {"time": 2991, "pitch": 75, "duration": 3, "velocity": 127}, {"time": 2994, "pitch": 74, "duration": 3, "velocity": 122}, {"time": 3000, "pitch": 70, "duration": 7, "velocity": 127}, {"time": 3009, "pitch": 72, "duration": 6, "velocity": 112}, {"time": 3018, "pitch": 79, "duration": 5, "velocity": 112}, {"time": 3027, "pitch": 70, "duration": 4, "velocity": 127}, {"time": 3033, "pitch": 72, "duration": 12, "velocity": 122}, {"time": 3069, "pitch": 79, "duration": 6, "velocity": 117}, {"time": 3075, "pitch": 82, "duration": 5, "velocity": 127}, {"time": 3081, "pitch": 84, "duration": 9, "velocity": 127}, {"time": 3093, "pitch": 87, "duration": 9, "velocity": 127}, {"time": 3105, "pitch": 86, "duration": 9, "velocity": 127}, {"time": 3117, "pitch": 82, "duration": 6, "velocity": 127}, {"time": 3123, "pitch": 86, "duration": 5, "velocity": 127}, {"time": 3129, "pitch": 86, "duration": 12, "velocity": 127}, {"time": 3141, "pitch": 84, "duration": 13, "velocity": 127}, {"time": 3165, "pitch": 79, "duration": 5, "velocity": 112}, {"time": 3171, "pitch": 82, "duration": 5, "velocity": 122}, {"time": 3177, "pitch": 84, "duration": 9, "velocity": 127}, {"time": 3189, "pitch": 87, "duration": 8, "velocity": 127}, {"time": 3201, "pitch": 84, "duration": 8, "velocity": 127}, {"time": 3213, "pitch": 77, "duration": 6, "velocity": 127}, {"time": 3219, "pitch": 82, "duration": 4, "velocity": 127}, {"time": 3225, "pitch": 82, "duration": 12, "velocity": 127}, {"time": 3237, "pitch": 79, "duration": 17, "velocity": 122}, {"time": 3273, "pitch": 84, "duration": 10, "velocity": 127}, {"time": 3285, "pitch": 91, "duration": 10, "velocity": 127}, {"time": 3297, "pitch": 89, "duration": 8, "velocity": 127}, {"time": 3309, "pitch": 84, "duration": 4, "velocity": 122}, {"time": 3315, "pitch": 87, "duration": 3, "velocity": 127}, {"time": 3318, "pitch": 84, "duration": 3, "velocity": 97}, {"time": 3321, "pitch": 82, "duration": 7, "velocity": 127}, {"time": 3327, "pitch": 79, "duration": 6, "velocity": 117}, {"time": 3333, "pitch": 82, "duration": 18, "velocity": 127}, {"time": 3369, "pitch": 91, "duration": 8, "velocity": 112}, {"time": 3381, "pitch": 89, "duration": 8, "velocity": 127}, {"time": 3393, "pitch": 87, "duration": 7, "velocity": 127}, {"time": 3405, "pitch": 82, "duration": 6, "velocity": 127}, {"time": 3411, "pitch": 87, "duration": 6, "velocity": 127}, {"time": 3417, "pitch": 84, "duration": 36, "velocity": 127}, {"time": 3453, "pitch": 79, "duration": 6, "velocity": 117}, {"time": 3459, "pitch": 82, "duration": 5, "velocity": 127}, {"time": 3465, "pitch": 84, "duration": 9, "velocity": 127}, {"time": 3477, "pitch": 87, "duration": 9, "velocity": 127}, {"time": 3489, "pitch": 86, "duration": 9, "velocity": 127}, {"time": 3501, "pitch": 82, "duration": 6, "velocity": 127}, {"time": 3507, "pitch": 86, "duration": 5, "velocity": 127}, {"time": 3513, "pitch": 86, "duration": 12, "velocity": 127}, {"time": 3525, "pitch": 84, "duration": 18, "velocity": 127}, {"time": 3549, "pitch": 79, "duration": 5, "velocity": 112}, {"time": 3555, "pitch": 82, "duration": 5, "velocity": 122}, {"time": 3561, "pitch": 84, "duration": 9, "velocity": 127}, {"time": 3573, "pitch": 87, "duration": 8, "velocity": 127}, {"time": 3585, "pitch": 84, "duration": 8, "velocity": 127}, {"time": 3597, "pitch": 77, "duration": 6, "velocity": 127}, {"time": 3603, "pitch": 82, "duration": 4, "velocity": 127}, {"time": 3609, "pitch": 82, "duration": 12, "velocity": 127}, {"time": 3621, "pitch": 79, "duration": 24, "velocity": 122}, {"time": 3657, "pitch": 84, "duration": 10, "velocity": 127}, {"time": 3669, "pitch": 91, "duration": 10, "velocity": 127}, {"time": 3681, "pitch": 89, "duration": 8, "velocity": 127}, {"time": 3693, "pitch": 84, "duration": 4, "velocity": 122}, {"time": 3699, "pitch": 87, "duration": 3, "velocity": 127}, {"time": 3702, "pitch": 84, "duration": 3, "velocity": 97}, {"time": 3705, "pitch": 82, "duration": 7, "velocity": 127}, {"time": 3711, "pitch": 79, "duration": 6, "velocity": 117}, {"time": 3717, "pitch": 82, "duration": 31, "velocity": 127}, {"time": 3753, "pitch": 91, "duration": 8, "velocity": 112}, {"time": 3765, "pitch": 89, "duration": 8, "velocity": 127}, {"time": 3777, "pitch": 87, "duration": 7, "velocity": 127}, {"time": 3789, "pitch": 82, "duration": 6, "velocity": 127}, {"time": 3795, "pitch": 87, "duration": 6, "velocity": 127}, {"time": 3801, "pitch": 84, "duration": 24, "velocity": 127}, {"time": 3837, "pitch": 79, "duration": 5, "velocity": 112}, {"time": 3843, "pitch": 82, "duration": 5, "velocity": 122}, {"time": 3849, "pitch": 84, "duration": 9, "velocity": 127}, {"time": 3861, "pitch": 87, "duration": 8, "velocity": 127}, {"time": 3873, "pitch": 84, "duration": 8, "velocity": 127}, {"time": 3885, "pitch": 77, "duration": 6, "velocity": 127}, {"time": 3891, "pitch": 82, "duration": 4, "velocity": 127}, {"time": 3897, "pitch": 82, "duration": 12, "velocity": 127}, {"time": 3909, "pitch": 79, "duration": 17, "velocity": 122}, {"time": 3945, "pitch": 84, "duration": 10, "velocity": 127}, {"time": 3957, "pitch": 91, "duration": 10, "velocity": 127}, {"time": 3969, "pitch": 89, "duration": 8, "velocity": 127}, {"time": 3981, "pitch": 84, "duration": 4, "velocity": 122}, {"time": 3987, "pitch": 87, "duration": 3, "velocity": 127}, {"time": 3990, "pitch": 84, "duration": 3, "velocity": 97}, {"time": 3993, "pitch": 82, "duration": 7, "velocity": 127}, {"time": 3999, "pitch": 79, "duration": 6, "velocity": 117}, {"time": 4005, "pitch": 82, "duration": 18, "velocity": 127}, {"time": 4041, "pitch": 91, "duration": 8, "velocity": 112}, {"time": 4053, "pitch": 89, "duration": 8, "velocity": 127}, {"time": 4065, "pitch": 87, "duration": 7, "velocity": 127}, {"time": 4077, "pitch": 82, "duration": 6, "velocity": 127}, {"time": 4083, "pitch": 87, "duration": 6, "velocity": 127}, {"time": 4089, "pitch": 84, "duration": 36, "velocity": 127}, {"time": 4125, "pitch": 79, "duration": 6, "velocity": 117}, {"time": 4131, "pitch": 82, "duration": 5, "velocity": 127}, {"time": 4137, "pitch": 84, "duration": 9, "velocity": 127}, {"time": 4149, "pitch": 87, "duration": 9, "velocity": 127}, {"time": 4161, "pitch": 86, "duration": 9, "velocity": 127}, {"time": 4173, "pitch": 82, "duration": 6, "velocity": 127}, {"time": 4179, "pitch": 86, "duration": 5, "velocity": 127}, {"time": 4185, "pitch": 86, "duration": 12, "velocity": 127}, {"time": 4197, "pitch": 84, "duration": 18, "velocity": 127}]}, {"program": 0, "is_drum": false, "name": "PIANO", "notes": [{"time": 309, "pitch": 55, "duration": 5, "velocity": 107}, {"time": 309, "pitch": 67, "duration": 6, "velocity": 112}, {"time": 315, "pitch": 58, "duration": 6, "velocity": 100}, {"time": 315, "pitch": 70, "duration": 6, "velocity": 117}, {"time": 321, "pitch": 48, "duration": 20, "velocity": 97}, {"time": 324, "pitch": 55, "duration": 17, "velocity": 88}, {"time": 327, "pitch": 60, "duration": 8, "velocity": 88}, {"time": 330, "pitch": 67, "duration": 5, "velocity": 36}, {"time": 333, "pitch": 72, "duration": 7, "velocity": 97}, {"time": 333, "pitch": 75, "duration": 11, "velocity": 107}, {"time": 336, "pitch": 60, "duration": 4, "velocity": 82}, {"time": 339, "pitch": 67, "duration": 6, "velocity": 90}, {"time": 342, "pitch": 72, "duration": 3, "velocity": 96}, {"time": 345, "pitch": 46, "duration": 17, "velocity": 117}, {"time": 348, "pitch": 58, "duration": 4, "velocity": 97}, {"time": 351, "pitch": 65, "duration": 8, "velocity": 88}, {"time": 354, "pitch": 58, "duration": 4, "velocity": 93}, {"time": 357, "pitch": 70, "duration": 7, "velocity": 73}, {"time": 357, "pitch": 74, "duration": 12, "velocity": 93}, {"time": 360, "pitch": 58, "duration": 2, "velocity": 89}, {"time": 363, "pitch": 65, "duration": 7, "velocity": 96}, {"time": 366, "pitch": 70, "duration": 4, "velocity": 81}, {"time": 369, "pitch": 44, "duration": 21, "velocity": 82}, {"time": 372, "pitch": 51, "duration": 17, "velocity": 54}, {"time": 375, "pitch": 56, "duration": 7, "velocity": 89}, {"time": 378, "pitch": 60, "duration": 4, "velocity": 85}, {"time": 381, "pitch": 63, "duration": 7, "velocity": 100}, {"time": 381, "pitch": 68, "duration": 11, "velocity": 92}, {"time": 384, "pitch": 56, "duration": 4, "velocity": 96}, {"time": 387, "pitch": 60, "duration": 6, "velocity": 96}, {"time": 390, "pitch": 63, "duration": 3, "velocity": 100}, {"time": 393, "pitch": 43, "duration": 19, "velocity": 76}, {"time": 396, "pitch": 50, "duration": 11, "velocity": 76}, {"time": 399, "pitch": 55, "duration": 5, "velocity": 99}, {"time": 402, "pitch": 58, "duration": 3, "velocity": 97}, {"time": 405, "pitch": 62, "duration": 11, "velocity": 107}, {"time": 408, "pitch": 50, "duration": 3, "velocity": 96}, {"time": 411, "pitch": 58, "duration": 5, "velocity": 117}, {"time": 414, "pitch": 55, "duration": 2, "velocity": 97}, {"time": 417, "pitch": 48, "duration": 18, "velocity": 86}, {"time": 420, "pitch": 55, "duration": 10, "velocity": 95}, {"time": 423, "pitch": 60, "duration": 4, "velocity": 102}, {"time": 426, "pitch": 63, "duration": 3, "velocity": 112}, {"time": 429, "pitch": 67, "duration": 11, "velocity": 102}, {"time": 432, "pitch": 55, "duration": 3, "velocity": 92}, {"time": 435, "pitch": 63, "duration": 5, "velocity": 127}, {"time": 438, "pitch": 60, "duration": 5, "velocity": 97}, {"time": 441, "pitch": 46, "duration": 18, "velocity": 96}, {"time": 444, "pitch": 53, "duration": 14, "velocity": 68}, {"time": 447, "pitch": 58, "duration": 7, "velocity": 102}, {"time": 450, "pitch": 62, "duration": 6, "velocity": 89}, {"time": 453, "pitch": 70, "duration": 12, "velocity": 112}, {"time": 456, "pitch": 58, "duration": 3, "velocity": 117}, {"time": 459, "pitch": 65, "duration": 6, "velocity": 99}, {"time": 462, "pitch": 62, "duration": 3, "velocity": 102}, {"time": 465, "pitch": 44, "duration": 22, "velocity": 82}, {"time": 468, "pitch": 51, "duration": 17, "velocity": 71}, {"time": 471, "pitch": 56, "duration": 7, "velocity": 88}, {"time": 474, "pitch": 60, "duration": 4, "velocity": 93}, {"time": 477, "pitch": 63, "duration": 6, "velocity": 122}, {"time": 480, "pitch": 56, "duration": 4, "velocity": 99}, {"time": 483, "pitch": 60, "duration": 6, "velocity": 97}, {"time": 486, "pitch": 63, "duration": 3, "velocity": 122}, {"time": 489, "pitch": 43, "duration": 23, "velocity": 76}, {"time": 492, "pitch": 50, "duration": 10, "velocity": 89}, {"time": 495, "pitch": 55, "duration": 6, "velocity": 93}, {"time": 498, "pitch": 58, "duration": 3, "velocity": 100}, {"time": 501, "pitch": 62, "duration": 13, "velocity": 100}, {"time": 504, "pitch": 50, "duration": 7, "velocity": 90}, {"time": 507, "pitch": 58, "duration": 7, "velocity": 112}, {"time": 510, "pitch": 55, "duration": 4, "velocity": 99}, {"time": 513, "pitch": 48, "duration": 17, "velocity": 93}, {"time": 516, "pitch": 55, "duration": 10, "velocity": 97}, {"time": 519, "pitch": 60, "duration": 4, "velocity": 85}, {"time": 522, "pitch": 63, "duration": 3, "velocity": 112}, {"time": 525, "pitch": 67, "duration": 12, "velocity": 95}, {"time": 528, "pitch": 55, "duration": 2, "velocity": 89}, {"time": 531, "pitch": 63, "duration": 5, "velocity": 122}, {"time": 534, "pitch": 60, "duration": 4, "velocity": 97}, {"time": 537, "pitch": 46, "duration": 18, "velocity": 95}, {"time": 540, "pitch": 53, "duration": 14, "velocity": 70}, {"time": 543, "pitch": 58, "duration": 7, "velocity": 95}, {"time": 546, "pitch": 62, "duration": 6, "velocity": 93}, {"time": 549, "pitch": 70, "duration": 10, "velocity": 122}, {"time": 552, "pitch": 58, "duration": 2, "velocity": 102}, {"time": 555, "pitch": 65, "duration": 5, "velocity": 90}, {"time": 558, "pitch": 62, "duration": 3, "velocity": 107}, {"time": 561, "pitch": 44, "duration": 18, "velocity": 90}, {"time": 564, "pitch": 51, "duration": 14, "velocity": 72}, {"time": 567, "pitch": 56, "duration": 7, "velocity": 92}, {"time": 570, "pitch": 60, "duration": 3, "velocity": 92}, {"time": 573, "pitch": 63, "duration": 6, "velocity": 112}, {"time": 576, "pitch": 56, "duration": 2, "velocity": 100}, {"time": 579, "pitch": 60, "duration": 6, "velocity": 96}, {"time": 582, "pitch": 63, "duration": 3, "velocity": 112}, {"time": 585, "pitch": 43, "duration": 18, "velocity": 78}, {"time": 588, "pitch": 50, "duration": 10, "velocity": 88}, {"time": 591, "pitch": 55, "duration": 4, "velocity": 81}, {"time": 594, "pitch": 58, "duration": 3, "velocity": 102}, {"time": 597, "pitch": 62, "duration": 11, "velocity": 97}, {"time": 600, "pitch": 50, "duration": 3, "velocity": 92}, {"time": 603, "pitch": 58, "duration": 5, "velocity": 117}, {"time": 606, "pitch": 55, "duration": 3, "velocity": 96}, {"time": 609, "pitch": 48, "duration": 17, "velocity": 81}, {"time": 612, "pitch": 55, "duration": 10, "velocity": 95}, {"time": 615, "pitch": 60, "duration": 4, "velocity": 85}, {"time": 618, "pitch": 63, "duration": 3, "velocity": 100}, {"time": 621, "pitch": 67, "duration": 11, "velocity": 100}, {"time": 624, "pitch": 55, "duration": 2, "velocity": 78}, {"time": 627, "pitch": 63, "duration": 5, "velocity": 117}, {"time": 630, "pitch": 60, "duration": 3, "velocity": 95}, {"time": 633, "pitch": 46, "duration": 17, "velocity": 78}, {"time": 636, "pitch": 53, "duration": 14, "velocity": 38}, {"time": 639, "pitch": 58, "duration": 7, "velocity": 102}, {"time": 642, "pitch": 62, "duration": 4, "velocity": 93}, {"time": 645, "pitch": 65, "duration": 6, "velocity": 102}, {"time": 648, "pitch": 58, "duration": 2, "velocity": 102}, {"time": 651, "pitch": 62, "duration": 4, "velocity": 107}, {"time": 654, "pitch": 65, "duration": 3, "velocity": 97}, {"time": 657, "pitch": 44, "duration": 20, "velocity": 93}, {"time": 660, "pitch": 51, "duration": 15, "velocity": 35}, {"time": 663, "pitch": 56, "duration": 6, "velocity": 102}, {"time": 666, "pitch": 60, "duration": 3, "velocity": 90}, {"time": 669, "pitch": 63, "duration": 7, "velocity": 107}, {"time": 672, "pitch": 56, "duration": 4, "velocity": 100}, {"time": 675, "pitch": 60, "duration": 5, "velocity": 107}, {"time": 678, "pitch": 63, "duration": 2, "velocity": 107}, {"time": 681, "pitch": 43, "duration": 23, "velocity": 56}, {"time": 681, "pitch": 50, "duration": 23, "velocity": 76}, {"time": 681, "pitch": 55, "duration": 14, "velocity": 93}, {"time": 681, "pitch": 62, "duration": 23, "velocity": 95}, {"time": 681, "pitch": 67, "duration": 23, "velocity": 102}, {"time": 681, "pitch": 70, "duration": 23, "velocity": 117}, {"time": 705, "pitch": 48, "duration": 20, "velocity": 96}, {"time": 711, "pitch": 55, "duration": 8, "velocity": 66}, {"time": 717, "pitch": 60, "duration": 6, "velocity": 65}, {"time": 717, "pitch": 63, "duration": 12, "velocity": 93}, {"time": 717, "pitch": 67, "duration": 12, "velocity": 83}, {"time": 726, "pitch": 60, "duration": 4, "velocity": 63}, {"time": 729, "pitch": 46, "duration": 17, "velocity": 112}, {"time": 735, "pitch": 58, "duration": 6, "velocity": 74}, {"time": 741, "pitch": 58, "duration": 4, "velocity": 71}, {"time": 741, "pitch": 62, "duration": 13, "velocity": 88}, {"time": 741, "pitch": 65, "duration": 13, "velocity": 82}, {"time": 750, "pitch": 58, "duration": 4, "velocity": 71}, {"time": 753, "pitch": 44, "duration": 15, "velocity": 78}, {"time": 759, "pitch": 51, "duration": 9, "velocity": 48}, {"time": 765, "pitch": 60, "duration": 5, "velocity": 66}, {"time": 765, "pitch": 63, "duration": 13, "velocity": 117}, {"time": 774, "pitch": 60, "duration": 4, "velocity": 70}, {"time": 777, "pitch": 39, "duration": 15, "velocity": 82}, {"time": 783, "pitch": 46, "duration": 9, "velocity": 33}, {"time": 789, "pitch": 51, "duration": 5, "velocity": 86}, {"time": 789, "pitch": 58, "duration": 4, "velocity": 90}, {"time": 789, "pitch": 63, "duration": 7, "velocity": 90}, {"time": 792, "pitch": 55, "duration": 5, "velocity": 79}, {"time": 795, "pitch": 58, "duration": 5, "velocity": 90}, {"time": 798, "pitch": 63, "duration": 4, "velocity": 85}, {"time": 801, "pitch": 48, "duration": 15, "velocity": 86}, {"time": 807, "pitch": 55, "duration": 8, "velocity": 61}, {"time": 813, "pitch": 63, "duration": 12, "velocity": 95}, {"time": 813, "pitch": 67, "duration": 13, "velocity": 83}, {"time": 822, "pitch": 60, "duration": 4, "velocity": 92}, {"time": 825, "pitch": 46, "duration": 17, "velocity": 76}, {"time": 831, "pitch": 53, "duration": 11, "velocity": 57}, {"time": 837, "pitch": 58, "duration": 5, "velocity": 68}, {"time": 837, "pitch": 65, "duration": 12, "velocity": 71}, {"time": 837, "pitch": 70, "duration": 12, "velocity": 83}, {"time": 843, "pitch": 62, "duration": 6, "velocity": 83}, {"time": 849, "pitch": 44, "duration": 11, "velocity": 86}, {"time": 855, "pitch": 56, "duration": 6, "velocity": 68}, {"time": 855, "pitch": 63, "duration": 5, "velocity": 73}, {"time": 861, "pitch": 46, "duration": 7, "velocity": 86}, {"time": 867, "pitch": 58, "duration": 6, "velocity": 86}, {"time": 867, "pitch": 62, "duration": 7, "velocity": 85}, {"time": 873, "pitch": 48, "duration": 21, "velocity": 82}, {"time": 876, "pitch": 55, "duration": 10, "velocity": 55}, {"time": 879, "pitch": 60, "duration": 6, "velocity": 82}, {"time": 882, "pitch": 62, "duration": 4, "velocity": 56}, {"time": 885, "pitch": 67, "duration": 13, "velocity": 107}, {"time": 888, "pitch": 55, "duration": 9, "velocity": 74}, {"time": 891, "pitch": 63, "duration": 8, "velocity": 93}, {"time": 894, "pitch": 62, "duration": 3, "velocity": 79}, {"time": 897, "pitch": 48, "duration": 17, "velocity": 93}, {"time": 903, "pitch": 55, "duration": 10, "velocity": 57}, {"time": 909, "pitch": 63, "duration": 13, "velocity": 97}, {"time": 909, "pitch": 67, "duration": 14, "velocity": 88}, {"time": 918, "pitch": 60, "duration": 5, "velocity": 72}, {"time": 921, "pitch": 46, "duration": 16, "velocity": 90}, {"time": 927, "pitch": 53, "duration": 9, "velocity": 52}, {"time": 933, "pitch": 65, "duration": 13, "velocity": 74}, {"time": 933, "pitch": 70, "duration": 13, "velocity": 73}, {"time": 939, "pitch": 62, "duration": 7, "velocity": 70}, {"time": 945, "pitch": 44, "duration": 15, "velocity": 67}, {"time": 951, "pitch": 51, "duration": 8, "velocity": 60}, {"time": 957, "pitch": 60, "duration": 12, "velocity": 90}, {"time": 957, "pitch": 63, "duration": 12, "velocity": 95}, {"time": 963, "pitch": 56, "duration": 5, "velocity": 60}, {"time": 969, "pitch": 39, "duration": 17, "velocity": 75}, {"time": 975, "pitch": 46, "duration": 10, "velocity": 47}, {"time": 981, "pitch": 51, "duration": 5, "velocity": 75}, {"time": 981, "pitch": 58, "duration": 7, "velocity": 95}, {"time": 981, "pitch": 63, "duration": 12, "velocity": 93}, {"time": 987, "pitch": 55, "duration": 5, "velocity": 85}, {"time": 990, "pitch": 58, "duration": 3, "velocity": 75}, {"time": 993, "pitch": 48, "duration": 13, "velocity": 72}, {"time": 999, "pitch": 55, "duration": 6, "velocity": 59}, {"time": 1005, "pitch": 63, "duration": 13, "velocity": 95}, {"time": 1005, "pitch": 67, "duration": 12, "velocity": 79}, {"time": 1011, "pitch": 60, "duration": 7, "velocity": 66}, {"time": 1017, "pitch": 46, "duration": 16, "velocity": 95}, {"time": 1023, "pitch": 53, "duration": 9, "velocity": 40}, {"time": 1029, "pitch": 58, "duration": 3, "velocity": 62}, {"time": 1029, "pitch": 65, "duration": 10, "velocity": 66}, {"time": 1029, "pitch": 70, "duration": 11, "velocity": 70}, {"time": 1035, "pitch": 62, "duration": 5, "velocity": 69}, {"time": 1041, "pitch": 44, "duration": 11, "velocity": 72}, {"time": 1047, "pitch": 56, "duration": 6, "velocity": 52}, {"time": 1047, "pitch": 63, "duration": 5, "velocity": 66}, {"time": 1053, "pitch": 46, "duration": 7, "velocity": 75}, {"time": 1059, "pitch": 58, "duration": 6, "velocity": 92}, {"time": 1059, "pitch": 62, "duration": 7, "velocity": 74}, {"time": 1065, "pitch": 48, "duration": 22, "velocity": 73}, {"time": 1071, "pitch": 55, "duration": 9, "velocity": 68}, {"time": 1074, "pitch": 60, "duration": 5, "velocity": 85}, {"time": 1077, "pitch": 62, "duration": 8, "velocity": 89}, {"time": 1080, "pitch": 55, "duration": 7, "velocity": 75}, {"time": 1083, "pitch": 63, "duration": 5, "velocity": 79}, {"time": 1086, "pitch": 67, "duration": 2, "velocity": 69}, {"time": 1089, "pitch": 48, "duration": 20, "velocity": 96}, {"time": 1095, "pitch": 55, "duration": 8, "velocity": 66}, {"time": 1101, "pitch": 60, "duration": 6, "velocity": 65}, {"time": 1101, "pitch": 63, "duration": 12, "velocity": 93}, {"time": 1101, "pitch": 67, "duration": 12, "velocity": 83}, {"time": 1110, "pitch": 60, "duration": 4, "velocity": 63}, {"time": 1113, "pitch": 46, "duration": 17, "velocity": 112}, {"time": 1119, "pitch": 58, "duration": 6, "velocity": 74}, {"time": 1125, "pitch": 58, "duration": 4, "velocity": 71}, {"time": 1125, "pitch": 62, "duration": 13, "velocity": 88}, {"time": 1125, "pitch": 65, "duration": 13, "velocity": 82}, {"time": 1134, "pitch": 58, "duration": 4, "velocity": 71}, {"time": 1137, "pitch": 44, "duration": 15, "velocity": 78}, {"time": 1143, "pitch": 51, "duration": 9, "velocity": 48}, {"time": 1149, "pitch": 60, "duration": 5, "velocity": 66}, {"time": 1149, "pitch": 63, "duration": 13, "velocity": 117}, {"time": 1158, "pitch": 60, "duration": 4, "velocity": 70}, {"time": 1161, "pitch": 39, "duration": 15, "velocity": 82}, {"time": 1167, "pitch": 46, "duration": 9, "velocity": 33}, {"time": 1173, "pitch": 51, "duration": 5, "velocity": 86}, {"time": 1173, "pitch": 58, "duration": 4, "velocity": 90}, {"time": 1173, "pitch": 63, "duration": 7, "velocity": 90}, {"time": 1176, "pitch": 55, "duration": 5, "velocity": 79}, {"time": 1179, "pitch": 58, "duration": 5, "velocity": 90}, {"time": 1182, "pitch": 63, "duration": 4, "velocity": 85}, {"time": 1185, "pitch": 48, "duration": 15, "velocity": 86}, {"time": 1191, "pitch": 55, "duration": 8, "velocity": 61}, {"time": 1197, "pitch": 63, "duration": 12, "velocity": 95}, {"time": 1197, "pitch": 67, "duration": 13, "velocity": 83}, {"time": 1206, "pitch": 60, "duration": 4, "velocity": 92}, {"time": 1209, "pitch": 46, "duration": 17, "velocity": 76}, {"time": 1215, "pitch": 53, "duration": 11, "velocity": 57}, {"time": 1221, "pitch": 58, "duration": 5, "velocity": 68}, {"time": 1221, "pitch": 65, "duration": 12, "velocity": 71}, {"time": 1221, "pitch": 70, "duration": 12, "velocity": 83}, {"time": 1227, "pitch": 62, "duration": 6, "velocity": 83}, {"time": 1233, "pitch": 44, "duration": 11, "velocity": 86}, {"time": 1239, "pitch": 56, "duration": 6, "velocity": 68}, {"time": 1239, "pitch": 63, "duration": 5, "velocity": 73}, {"time": 1245, "pitch": 46, "duration": 7, "velocity": 86}, {"time": 1251, "pitch": 58, "duration": 6, "velocity": 86}, {"time": 1251, "pitch": 62, "duration": 7, "velocity": 85}, {"time": 1257, "pitch": 48, "duration": 21, "velocity": 82}, {"time": 1260, "pitch": 55, "duration": 10, "velocity": 55}, {"time": 1263, "pitch": 60, "duration": 6, "velocity": 82}, {"time": 1266, "pitch": 62, "duration": 4, "velocity": 56}, {"time": 1269, "pitch": 67, "duration": 13, "velocity": 107}, {"time": 1272, "pitch": 55, "duration": 9, "velocity": 74}, {"time": 1275, "pitch": 63, "duration": 8, "velocity": 93}, {"time": 1278, "pitch": 62, "duration": 3, "velocity": 79}, {"time": 1281, "pitch": 48, "duration": 17, "velocity": 93}, {"time": 1287, "pitch": 55, "duration": 10, "velocity": 57}, {"time": 1293, "pitch": 63, "duration": 13, "velocity": 97}, {"time": 1293, "pitch": 67, "duration": 14, "velocity": 88}, {"time": 1302, "pitch": 60, "duration": 5, "velocity": 72}, {"time": 1305, "pitch": 46, "duration": 16, "velocity": 90}, {"time": 1311, "pitch": 53, "duration": 9, "velocity": 52}, {"time": 1317, "pitch": 65, "duration": 13, "velocity": 74}, {"time": 1317, "pitch": 70, "duration": 13, "velocity": 73}, {"time": 1323, "pitch": 62, "duration": 7, "velocity": 70}, {"time": 1329, "pitch": 44, "duration": 15, "velocity": 67}, {"time": 1335, "pitch": 51, "duration": 8, "velocity": 60}, {"time": 1341, "pitch": 60, "duration": 12, "velocity": 90}, {"time": 1341, "pitch": 63, "duration": 12, "velocity": 95}, {"time": 1347, "pitch": 56, "duration": 5, "velocity": 60}, {"time": 1353, "pitch": 39, "duration": 17, "velocity": 75}, {"time": 1359, "pitch": 46, "duration": 10, "velocity": 47}, {"time": 1365, "pitch": 51, "duration": 5, "velocity": 75}, {"time": 1365, "pitch": 58, "duration": 7, "velocity": 95}, {"time": 1365, "pitch": 63, "duration": 12, "velocity": 93}, {"time": 1371, "pitch": 55, "duration": 5, "velocity": 85}, {"time": 1374, "pitch": 58, "duration": 3, "velocity": 75}, {"time": 1377, "pitch": 48, "duration": 13, "velocity": 72}, {"time": 1383, "pitch": 55, "duration": 6, "velocity": 59}, {"time": 1389, "pitch": 63, "duration": 13, "velocity": 95}, {"time": 1389, "pitch": 67, "duration": 12, "velocity": 79}, {"time": 1395, "pitch": 60, "duration": 7, "velocity": 66}, {"time": 1401, "pitch": 46, "duration": 16, "velocity": 95}, {"time": 1407, "pitch": 53, "duration": 9, "velocity": 40}, {"time": 1413, "pitch": 58, "duration": 3, "velocity": 62}, {"time": 1413, "pitch": 65, "duration": 10, "velocity": 66}, {"time": 1413, "pitch": 70, "duration": 11, "velocity": 70}, {"time": 1419, "pitch": 62, "duration": 5, "velocity": 69}, {"time": 1425, "pitch": 44, "duration": 11, "velocity": 72}, {"time": 1431, "pitch": 56, "duration": 6, "velocity": 52}, {"time": 1431, "pitch": 63, "duration": 5, "velocity": 66}, {"time": 1437, "pitch": 46, "duration": 7, "velocity": 75}, {"time": 1443, "pitch": 58, "duration": 6, "velocity": 92}, {"time": 1443, "pitch": 62, "duration": 6, "velocity": 74}, {"time": 1449, "pitch": 36, "duration": 22, "velocity": 86}, {"time": 1452, "pitch": 43, "duration": 17, "velocity": 52}, {"time": 1455, "pitch": 48, "duration": 7, "velocity": 79}, {"time": 1458, "pitch": 60, "duration": 5, "velocity": 78}, {"time": 1461, "pitch": 67, "duration": 7, "velocity": 100}, {"time": 1464, "pitch": 48, "duration": 5, "velocity": 100}, {"time": 1467, "pitch": 63, "duration": 4, "velocity": 122}, {"time": 1470, "pitch": 43, "duration": 1, "velocity": 32}, {"time": 1470, "pitch": 60, "duration": 3, "velocity": 95}, {"time": 1473, "pitch": 36, "duration": 6, "velocity": 71}, {"time": 1473, "pitch": 43, "duration": 6, "velocity": 97}, {"time": 1473, "pitch": 48, "duration": 6, "velocity": 112}, {"time": 1473, "pitch": 60, "duration": 6, "velocity": 90}, {"time": 1473, "pitch": 63, "duration": 6, "velocity": 127}, {"time": 1473, "pitch": 67, "duration": 6, "velocity": 97}, {"time": 1521, "pitch": 36, "duration": 16, "velocity": 95}, {"time": 1524, "pitch": 43, "duration": 13, "velocity": 95}, {"time": 1527, "pitch": 48, "duration": 6, "velocity": 96}, {"time": 1530, "pitch": 55, "duration": 5, "velocity": 88}, {"time": 1533, "pitch": 63, "duration": 12, "velocity": 127}, {"time": 1536, "pitch": 48, "duration": 3, "velocity": 99}, {"time": 1539, "pitch": 60, "duration": 6, "velocity": 93}, {"time": 1542, "pitch": 55, "duration": 3, "velocity": 100}, {"time": 1545, "pitch": 43, "duration": 19, "velocity": 89}, {"time": 1548, "pitch": 50, "duration": 15, "velocity": 81}, {"time": 1551, "pitch": 55, "duration": 6, "velocity": 99}, {"time": 1554, "pitch": 62, "duration": 7, "velocity": 90}, {"time": 1557, "pitch": 70, "duration": 10, "velocity": 127}, {"time": 1560, "pitch": 55, "duration": 2, "velocity": 97}, {"time": 1563, "pitch": 67, "duration": 5, "velocity": 122}, {"time": 1566, "pitch": 62, "duration": 3, "velocity": 102}, {"time": 1569, "pitch": 36, "duration": 23, "velocity": 81}, {"time": 1572, "pitch": 43, "duration": 20, "velocity": 92}, {"time": 1575, "pitch": 48, "duration": 7, "velocity": 99}, {"time": 1578, "pitch": 55, "duration": 6, "velocity": 90}, {"time": 1581, "pitch": 63, "duration": 13, "velocity": 127}, {"time": 1584, "pitch": 48, "duration": 8, "velocity": 107}, {"time": 1587, "pitch": 60, "duration": 6, "velocity": 112}, {"time": 1590, "pitch": 55, "duration": 5, "velocity": 100}, {"time": 1593, "pitch": 36, "duration": 16, "velocity": 97}, {"time": 1596, "pitch": 43, "duration": 12, "velocity": 95}, {"time": 1599, "pitch": 48, "duration": 6, "velocity": 100}, {"time": 1602, "pitch": 55, "duration": 5, "velocity": 107}, {"time": 1605, "pitch": 63, "duration": 12, "velocity": 127}, {"time": 1608, "pitch": 48, "duration": 3, "velocity": 117}, {"time": 1611, "pitch": 60, "duration": 6, "velocity": 107}, {"time": 1614, "pitch": 55, "duration": 3, "velocity": 99}, {"time": 1617, "pitch": 44, "duration": 22, "velocity": 102}, {"time": 1620, "pitch": 51, "duration": 19, "velocity": 76}, {"time": 1623, "pitch": 56, "duration": 7, "velocity": 112}, {"time": 1626, "pitch": 60, "duration": 5, "velocity": 97}, {"time": 1629, "pitch": 68, "duration": 12, "velocity": 127}, {"time": 1632, "pitch": 56, "duration": 7, "velocity": 102}, {"time": 1635, "pitch": 63, "duration": 6, "velocity": 117}, {"time": 1638, "pitch": 60, "duration": 3, "velocity": 100}, {"time": 1641, "pitch": 44, "duration": 20, "velocity": 82}, {"time": 1644, "pitch": 51, "duration": 14, "velocity": 50}, {"time": 1647, "pitch": 56, "duration": 7, "velocity": 102}, {"time": 1650, "pitch": 60, "duration": 7, "velocity": 93}, {"time": 1653, "pitch": 68, "duration": 11, "velocity": 122}, {"time": 1656, "pitch": 56, "duration": 3, "velocity": 107}, {"time": 1659, "pitch": 63, "duration": 6, "velocity": 96}, {"time": 1662, "pitch": 60, "duration": 4, "velocity": 96}, {"time": 1665, "pitch": 43, "duration": 22, "velocity": 85}, {"time": 1668, "pitch": 50, "duration": 10, "velocity": 77}, {"time": 1671, "pitch": 55, "duration": 5, "velocity": 85}, {"time": 1674, "pitch": 58, "duration": 3, "velocity": 97}, {"time": 1677, "pitch": 62, "duration": 11, "velocity": 99}, {"time": 1680, "pitch": 50, "duration": 8, "velocity": 99}, {"time": 1683, "pitch": 58, "duration": 5, "velocity": 107}, {"time": 1686, "pitch": 55, "duration": 3, "velocity": 97}, {"time": 1689, "pitch": 43, "duration": 19, "velocity": 89}, {"time": 1692, "pitch": 50, "duration": 15, "velocity": 81}, {"time": 1695, "pitch": 55, "duration": 7, "velocity": 95}, {"time": 1698, "pitch": 62, "duration": 3, "velocity": 75}, {"time": 1698, "pitch": 67, "duration": 2, "velocity": 92}, {"time": 1698, "pitch": 70, "duration": 2, "velocity": 99}, {"time": 1701, "pitch": 67, "duration": 5, "velocity": 93}, {"time": 1701, "pitch": 70, "duration": 12, "velocity": 112}, {"time": 1704, "pitch": 55, "duration": 3, "velocity": 102}, {"time": 1707, "pitch": 62, "duration": 6, "velocity": 107}, {"time": 1710, "pitch": 67, "duration": 3, "velocity": 97}, {"time": 1713, "pitch": 41, "duration": 23, "velocity": 89}, {"time": 1716, "pitch": 48, "duration": 22, "velocity": 85}, {"time": 1719, "pitch": 53, "duration": 7, "velocity": 88}, {"time": 1722, "pitch": 60, "duration": 5, "velocity": 86}, {"time": 1725, "pitch": 65, "duration": 1, "velocity": 55}, {"time": 1725, "pitch": 68, "duration": 13, "velocity": 127}, {"time": 1728, "pitch": 53, "duration": 3, "velocity": 99}, {"time": 1731, "pitch": 60, "duration": 6, "velocity": 93}, {"time": 1734, "pitch": 65, "duration": 4, "velocity": 100}, {"time": 1737, "pitch": 41, "duration": 23, "velocity": 85}, {"time": 1740, "pitch": 48, "duration": 20, "velocity": 93}, {"time": 1743, "pitch": 53, "duration": 7, "velocity": 92}, {"time": 1746, "pitch": 60, "duration": 4, "velocity": 96}, {"time": 1749, "pitch": 65, "duration": 7, "velocity": 96}, {"time": 1749, "pitch": 68, "duration": 11, "velocity": 107}, {"time": 1752, "pitch": 53, "duration": 3, "velocity": 93}, {"time": 1755, "pitch": 60, "duration": 6, "velocity": 99}, {"time": 1758, "pitch": 65, "duration": 4, "velocity": 102}, {"time": 1761, "pitch": 43, "duration": 23, "velocity": 92}, {"time": 1764, "pitch": 50, "duration": 20, "velocity": 82}, {"time": 1767, "pitch": 55, "duration": 7, "velocity": 97}, {"time": 1770, "pitch": 62, "duration": 4, "velocity": 96}, {"time": 1773, "pitch": 67, "duration": 5, "velocity": 96}, {"time": 1773, "pitch": 70, "duration": 14, "velocity": 112}, {"time": 1776, "pitch": 55, "duration": 4, "velocity": 96}, {"time": 1779, "pitch": 62, "duration": 8, "velocity": 96}, {"time": 1782, "pitch": 67, "duration": 4, "velocity": 97}, {"time": 1785, "pitch": 43, "duration": 16, "velocity": 64}, {"time": 1788, "pitch": 50, "duration": 14, "velocity": 93}, {"time": 1791, "pitch": 55, "duration": 7, "velocity": 99}, {"time": 1794, "pitch": 62, "duration": 6, "velocity": 95}, {"time": 1797, "pitch": 70, "duration": 11, "velocity": 127}, {"time": 1800, "pitch": 55, "duration": 2, "velocity": 102}, {"time": 1803, "pitch": 67, "duration": 5, "velocity": 97}, {"time": 1806, "pitch": 62, "duration": 3, "velocity": 100}, {"time": 1809, "pitch": 44, "duration": 17, "velocity": 86}, {"time": 1812, "pitch": 51, "duration": 13, "velocity": 89}, {"time": 1815, "pitch": 56, "duration": 6, "velocity": 100}, {"time": 1818, "pitch": 60, "duration": 5, "velocity": 95}, {"time": 1821, "pitch": 68, "duration": 11, "velocity": 122}, {"time": 1824, "pitch": 56, "duration": 3, "velocity": 97}, {"time": 1827, "pitch": 63, "duration": 5, "velocity": 127}, {"time": 1830, "pitch": 60, "duration": 3, "velocity": 100}, {"time": 1833, "pitch": 46, "duration": 18, "velocity": 93}, {"time": 1836, "pitch": 53, "duration": 14, "velocity": 72}, {"time": 1839, "pitch": 58, "duration": 7, "velocity": 97}, {"time": 1842, "pitch": 62, "duration": 3, "velocity": 88}, {"time": 1845, "pitch": 65, "duration": 6, "velocity": 112}, {"time": 1848, "pitch": 58, "duration": 2, "velocity": 112}, {"time": 1851, "pitch": 62, "duration": 5, "velocity": 102}, {"time": 1854, "pitch": 65, "duration": 3, "velocity": 99}, {"time": 1857, "pitch": 36, "duration": 23, "velocity": 79}, {"time": 1860, "pitch": 43, "duration": 20, "velocity": 93}, {"time": 1863, "pitch": 48, "duration": 7, "velocity": 86}, {"time": 1866, "pitch": 55, "duration": 9, "velocity": 92}, {"time": 1869, "pitch": 63, "duration": 13, "velocity": 122}, {"time": 1872, "pitch": 48, "duration": 5, "velocity": 90}, {"time": 1875, "pitch": 60, "duration": 6, "velocity": 100}, {"time": 1878, "pitch": 55, "duration": 4, "velocity": 102}, {"time": 1881, "pitch": 36, "duration": 22, "velocity": 96}, {"time": 1884, "pitch": 43, "duration": 21, "velocity": 100}, {"time": 1887, "pitch": 48, "duration": 7, "velocity": 112}, {"time": 1890, "pitch": 60, "duration": 2, "velocity": 93}, {"time": 1890, "pitch": 63, "duration": 2, "velocity": 112}, {"time": 1890, "pitch": 67, "duration": 2, "velocity": 88}, {"time": 1893, "pitch": 63, "duration": 12, "velocity": 112}, {"time": 1893, "pitch": 67, "duration": 12, "velocity": 96}, {"time": 1896, "pitch": 48, "duration": 2, "velocity": 37}, {"time": 1899, "pitch": 60, "duration": 6, "velocity": 112}, {"time": 1905, "pitch": 36, "duration": 17, "velocity": 97}, {"time": 1908, "pitch": 43, "duration": 15, "velocity": 92}, {"time": 1911, "pitch": 48, "duration": 7, "velocity": 97}, {"time": 1914, "pitch": 55, "duration": 5, "velocity": 97}, {"time": 1917, "pitch": 63, "duration": 11, "velocity": 127}, {"time": 1920, "pitch": 48, "duration": 5, "velocity": 88}, {"time": 1923, "pitch": 60, "duration": 5, "velocity": 107}, {"time": 1926, "pitch": 55, "duration": 3, "velocity": 102}, {"time": 1929, "pitch": 43, "duration": 18, "velocity": 89}, {"time": 1932, "pitch": 50, "duration": 14, "velocity": 88}, {"time": 1935, "pitch": 55, "duration": 7, "velocity": 93}, {"time": 1938, "pitch": 62, "duration": 6, "velocity": 99}, {"time": 1941, "pitch": 70, "duration": 11, "velocity": 127}, {"time": 1944, "pitch": 55, "duration": 2, "velocity": 96}, {"time": 1947, "pitch": 67, "duration": 5, "velocity": 96}, {"time": 1950, "pitch": 62, "duration": 4, "velocity": 112}, {"time": 1953, "pitch": 36, "duration": 22, "velocity": 70}, {"time": 1956, "pitch": 43, "duration": 21, "velocity": 89}, {"time": 1959, "pitch": 48, "duration": 6, "velocity": 92}, {"time": 1962, "pitch": 55, "duration": 7, "velocity": 77}, {"time": 1965, "pitch": 63, "duration": 13, "velocity": 117}, {"time": 1968, "pitch": 48, "duration": 3, "velocity": 96}, {"time": 1971, "pitch": 60, "duration": 6, "velocity": 100}, {"time": 1974, "pitch": 55, "duration": 3, "velocity": 92}, {"time": 1977, "pitch": 36, "duration": 17, "velocity": 78}, {"time": 1980, "pitch": 43, "duration": 14, "velocity": 93}, {"time": 1983, "pitch": 48, "duration": 7, "velocity": 90}, {"time": 1986, "pitch": 60, "duration": 2, "velocity": 92}, {"time": 1986, "pitch": 63, "duration": 2, "velocity": 122}, {"time": 1986, "pitch": 67, "duration": 2, "velocity": 95}, {"time": 1989, "pitch": 63, "duration": 6, "velocity": 117}, {"time": 1989, "pitch": 67, "duration": 12, "velocity": 96}, {"time": 1992, "pitch": 48, "duration": 3, "velocity": 102}, {"time": 1995, "pitch": 60, "duration": 5, "velocity": 122}, {"time": 1998, "pitch": 63, "duration": 4, "velocity": 127}, {"time": 2001, "pitch": 44, "duration": 19, "velocity": 72}, {"time": 2004, "pitch": 51, "duration": 14, "velocity": 43}, {"time": 2007, "pitch": 56, "duration": 6, "velocity": 97}, {"time": 2010, "pitch": 60, "duration": 5, "velocity": 92}, {"time": 2013, "pitch": 68, "duration": 12, "velocity": 117}, {"time": 2016, "pitch": 56, "duration": 3, "velocity": 100}, {"time": 2019, "pitch": 63, "duration": 5, "velocity": 117}, {"time": 2022, "pitch": 60, "duration": 2, "velocity": 93}, {"time": 2025, "pitch": 44, "duration": 19, "velocity": 85}, {"time": 2028, "pitch": 51, "duration": 15, "velocity": 66}, {"time": 2031, "pitch": 56, "duration": 7, "velocity": 96}, {"time": 2034, "pitch": 60, "duration": 7, "velocity": 93}, {"time": 2037, "pitch": 68, "duration": 12, "velocity": 107}, {"time": 2040, "pitch": 56, "duration": 3, "velocity": 92}, {"time": 2043, "pitch": 63, "duration": 6, "velocity": 95}, {"time": 2046, "pitch": 60, "duration": 3, "velocity": 81}, {"time": 2049, "pitch": 43, "duration": 23, "velocity": 66}, {"time": 2052, "pitch": 50, "duration": 10, "velocity": 65}, {"time": 2055, "pitch": 55, "duration": 6, "velocity": 90}, {"time": 2058, "pitch": 58, "duration": 3, "velocity": 112}, {"time": 2061, "pitch": 62, "duration": 12, "velocity": 102}, {"time": 2064, "pitch": 50, "duration": 9, "velocity": 72}, {"time": 2067, "pitch": 58, "duration": 6, "velocity": 100}, {"time": 2070, "pitch": 55, "duration": 4, "velocity": 88}, {"time": 2073, "pitch": 43, "duration": 18, "velocity": 85}, {"time": 2076, "pitch": 50, "duration": 15, "velocity": 79}, {"time": 2079, "pitch": 55, "duration": 7, "velocity": 93}, {"time": 2082, "pitch": 62, "duration": 5, "velocity": 90}, {"time": 2082, "pitch": 67, "duration": 2, "velocity": 95}, {"time": 2082, "pitch": 70, "duration": 2, "velocity": 102}, {"time": 2085, "pitch": 67, "duration": 5, "velocity": 93}, {"time": 2085, "pitch": 70, "duration": 12, "velocity": 112}, {"time": 2088, "pitch": 55, "duration": 3, "velocity": 95}, {"time": 2091, "pitch": 62, "duration": 7, "velocity": 93}, {"time": 2094, "pitch": 67, "duration": 3, "velocity": 83}, {"time": 2097, "pitch": 41, "duration": 23, "velocity": 71}, {"time": 2100, "pitch": 48, "duration": 22, "velocity": 66}, {"time": 2103, "pitch": 53, "duration": 7, "velocity": 86}, {"time": 2106, "pitch": 60, "duration": 5, "velocity": 79}, {"time": 2109, "pitch": 65, "duration": 7, "velocity": 93}, {"time": 2109, "pitch": 68, "duration": 10, "velocity": 112}, {"time": 2112, "pitch": 53, "duration": 3, "velocity": 90}, {"time": 2115, "pitch": 60, "duration": 10, "velocity": 90}, {"time": 2118, "pitch": 65, "duration": 4, "velocity": 92}, {"time": 2121, "pitch": 41, "duration": 22, "velocity": 83}, {"time": 2124, "pitch": 48, "duration": 21, "velocity": 90}, {"time": 2127, "pitch": 53, "duration": 7, "velocity": 82}, {"time": 2130, "pitch": 60, "duration": 6, "velocity": 81}, {"time": 2133, "pitch": 68, "duration": 12, "velocity": 117}, {"time": 2136, "pitch": 53, "duration": 3, "velocity": 97}, {"time": 2139, "pitch": 65, "duration": 5, "velocity": 97}, {"time": 2142, "pitch": 60, "duration": 4, "velocity": 93}, {"time": 2145, "pitch": 43, "duration": 22, "velocity": 78}, {"time": 2148, "pitch": 50, "duration": 21, "velocity": 83}, {"time": 2151, "pitch": 55, "duration": 6, "velocity": 92}, {"time": 2154, "pitch": 62, "duration": 7, "velocity": 82}, {"time": 2157, "pitch": 70, "duration": 13, "velocity": 117}, {"time": 2160, "pitch": 55, "duration": 3, "velocity": 96}, {"time": 2163, "pitch": 67, "duration": 6, "velocity": 88}, {"time": 2166, "pitch": 62, "duration": 4, "velocity": 99}, {"time": 2169, "pitch": 43, "duration": 16, "velocity": 79}, {"time": 2172, "pitch": 50, "duration": 14, "velocity": 73}, {"time": 2175, "pitch": 55, "duration": 7, "velocity": 107}, {"time": 2178, "pitch": 62, "duration": 5, "velocity": 92}, {"time": 2181, "pitch": 70, "duration": 12, "velocity": 107}, {"time": 2184, "pitch": 55, "duration": 3, "velocity": 93}, {"time": 2187, "pitch": 67, "duration": 5, "velocity": 88}, {"time": 2190, "pitch": 62, "duration": 3, "velocity": 92}, {"time": 2193, "pitch": 44, "duration": 18, "velocity": 78}, {"time": 2196, "pitch": 51, "duration": 13, "velocity": 35}, {"time": 2199, "pitch": 56, "duration": 7, "velocity": 89}, {"time": 2202, "pitch": 60, "duration": 5, "velocity": 86}, {"time": 2205, "pitch": 68, "duration": 11, "velocity": 107}, {"time": 2208, "pitch": 56, "duration": 5, "velocity": 96}, {"time": 2211, "pitch": 63, "duration": 5, "velocity": 107}, {"time": 2214, "pitch": 60, "duration": 3, "velocity": 90}, {"time": 2217, "pitch": 46, "duration": 18, "velocity": 90}, {"time": 2220, "pitch": 53, "duration": 13, "velocity": 46}, {"time": 2223, "pitch": 58, "duration": 7, "velocity": 95}, {"time": 2226, "pitch": 62, "duration": 3, "velocity": 83}, {"time": 2229, "pitch": 65, "duration": 6, "velocity": 102}, {"time": 2232, "pitch": 58, "duration": 3, "velocity": 99}, {"time": 2235, "pitch": 62, "duration": 4, "velocity": 102}, {"time": 2238, "pitch": 65, "duration": 3, "velocity": 97}, {"time": 2241, "pitch": 48, "duration": 19, "velocity": 70}, {"time": 2244, "pitch": 55, "duration": 11, "velocity": 92}, {"time": 2247, "pitch": 60, "duration": 5, "velocity": 96}, {"time": 2250, "pitch": 63, "duration": 4, "velocity": 107}, {"time": 2253, "pitch": 67, "duration": 13, "velocity": 97}, {"time": 2256, "pitch": 55, "duration": 3, "velocity": 95}, {"time": 2259, "pitch": 63, "duration": 9, "velocity": 117}, {"time": 2262, "pitch": 60, "duration": 1, "velocity": 58}, {"time": 2262, "pitch": 62, "duration": 1, "velocity": 53}, {"time": 2265, "pitch": 36, "duration": 23, "velocity": 99}, {"time": 2289, "pitch": 44, "duration": 17, "velocity": 82}, {"time": 2292, "pitch": 51, "duration": 13, "velocity": 79}, {"time": 2295, "pitch": 56, "duration": 6, "velocity": 96}, {"time": 2298, "pitch": 60, "duration": 5, "velocity": 92}, {"time": 2301, "pitch": 68, "duration": 11, "velocity": 112}, {"time": 2304, "pitch": 56, "duration": 3, "velocity": 99}, {"time": 2307, "pitch": 63, "duration": 5, "velocity": 96}, {"time": 2310, "pitch": 60, "duration": 3, "velocity": 83}, {"time": 2313, "pitch": 46, "duration": 17, "velocity": 95}, {"time": 2316, "pitch": 53, "duration": 14, "velocity": 63}, {"time": 2319, "pitch": 58, "duration": 7, "velocity": 76}, {"time": 2322, "pitch": 62, "duration": 5, "velocity": 90}, {"time": 2325, "pitch": 65, "duration": 7, "velocity": 102}, {"time": 2328, "pitch": 58, "duration": 3, "velocity": 100}, {"time": 2331, "pitch": 62, "duration": 5, "velocity": 107}, {"time": 2334, "pitch": 65, "duration": 4, "velocity": 99}, {"time": 2337, "pitch": 48, "duration": 23, "velocity": 73}, {"time": 2340, "pitch": 55, "duration": 11, "velocity": 95}, {"time": 2343, "pitch": 60, "duration": 4, "velocity": 96}, {"time": 2346, "pitch": 63, "duration": 2, "velocity": 93}, {"time": 2346, "pitch": 67, "duration": 2, "velocity": 72}, {"time": 2349, "pitch": 63, "duration": 4, "velocity": 100}, {"time": 2349, "pitch": 67, "duration": 6, "velocity": 90}, {"time": 2352, "pitch": 55, "duration": 9, "velocity": 92}, {"time": 2355, "pitch": 62, "duration": 3, "velocity": 96}, {"time": 2355, "pitch": 65, "duration": 4, "velocity": 86}, {"time": 2358, "pitch": 63, "duration": 4, "velocity": 107}, {"time": 2358, "pitch": 67, "duration": 6, "velocity": 85}, {"time": 2361, "pitch": 48, "duration": 17, "velocity": 75}, {"time": 2364, "pitch": 55, "duration": 10, "velocity": 96}, {"time": 2367, "pitch": 60, "duration": 3, "velocity": 93}, {"time": 2370, "pitch": 63, "duration": 3, "velocity": 112}, {"time": 2373, "pitch": 67, "duration": 11, "velocity": 96}, {"time": 2376, "pitch": 55, "duration": 2, "velocity": 90}, {"time": 2379, "pitch": 63, "duration": 6, "velocity": 127}, {"time": 2382, "pitch": 60, "duration": 3, "velocity": 99}, {"time": 2385, "pitch": 44, "duration": 17, "velocity": 88}, {"time": 2388, "pitch": 51, "duration": 13, "velocity": 92}, {"time": 2391, "pitch": 56, "duration": 6, "velocity": 93}, {"time": 2394, "pitch": 60, "duration": 5, "velocity": 100}, {"time": 2397, "pitch": 68, "duration": 11, "velocity": 117}, {"time": 2400, "pitch": 56, "duration": 7, "velocity": 107}, {"time": 2403, "pitch": 63, "duration": 5, "velocity": 112}, {"time": 2406, "pitch": 60, "duration": 3, "velocity": 89}, {"time": 2409, "pitch": 46, "duration": 18, "velocity": 83}, {"time": 2412, "pitch": 53, "duration": 13, "velocity": 50}, {"time": 2415, "pitch": 58, "duration": 6, "velocity": 93}, {"time": 2418, "pitch": 62, "duration": 4, "velocity": 93}, {"time": 2421, "pitch": 65, "duration": 7, "velocity": 99}, {"time": 2424, "pitch": 58, "duration": 2, "velocity": 107}, {"time": 2427, "pitch": 62, "duration": 6, "velocity": 99}, {"time": 2430, "pitch": 65, "duration": 3, "velocity": 93}, {"time": 2433, "pitch": 36, "duration": 22, "velocity": 78}, {"time": 2436, "pitch": 43, "duration": 21, "velocity": 86}, {"time": 2439, "pitch": 48, "duration": 6, "velocity": 88}, {"time": 2442, "pitch": 55, "duration": 7, "velocity": 89}, {"time": 2445, "pitch": 63, "duration": 13, "velocity": 122}, {"time": 2448, "pitch": 48, "duration": 4, "velocity": 99}, {"time": 2451, "pitch": 55, "duration": 3, "velocity": 37}, {"time": 2451, "pitch": 60, "duration": 7, "velocity": 95}, {"time": 2454, "pitch": 55, "duration": 4, "velocity": 100}, {"time": 2457, "pitch": 36, "duration": 16, "velocity": 92}, {"time": 2460, "pitch": 43, "duration": 13, "velocity": 90}, {"time": 2463, "pitch": 48, "duration": 7, "velocity": 96}, {"time": 2466, "pitch": 60, "duration": 1, "velocity": 86}, {"time": 2466, "pitch": 63, "duration": 2, "velocity": 107}, {"time": 2466, "pitch": 67, "duration": 2, "velocity": 93}, {"time": 2469, "pitch": 63, "duration": 7, "velocity": 127}, {"time": 2469, "pitch": 67, "duration": 12, "velocity": 100}, {"time": 2472, "pitch": 48, "duration": 3, "velocity": 97}, {"time": 2475, "pitch": 60, "duration": 4, "velocity": 112}, {"time": 2478, "pitch": 63, "duration": 4, "velocity": 117}, {"time": 2481, "pitch": 44, "duration": 17, "velocity": 67}, {"time": 2484, "pitch": 51, "duration": 13, "velocity": 70}, {"time": 2487, "pitch": 56, "duration": 7, "velocity": 95}, {"time": 2490, "pitch": 60, "duration": 5, "velocity": 93}, {"time": 2493, "pitch": 68, "duration": 11, "velocity": 127}, {"time": 2496, "pitch": 56, "duration": 7, "velocity": 99}, {"time": 2499, "pitch": 63, "duration": 5, "velocity": 112}, {"time": 2502, "pitch": 60, "duration": 3, "velocity": 102}, {"time": 2505, "pitch": 46, "duration": 18, "velocity": 83}, {"time": 2508, "pitch": 53, "duration": 14, "velocity": 37}, {"time": 2511, "pitch": 58, "duration": 7, "velocity": 95}, {"time": 2514, "pitch": 62, "duration": 5, "velocity": 97}, {"time": 2517, "pitch": 70, "duration": 11, "velocity": 112}, {"time": 2520, "pitch": 58, "duration": 3, "velocity": 112}, {"time": 2523, "pitch": 65, "duration": 5, "velocity": 95}, {"time": 2526, "pitch": 62, "duration": 3, "velocity": 97}, {"time": 2529, "pitch": 48, "duration": 23, "velocity": 73}, {"time": 2532, "pitch": 55, "duration": 10, "velocity": 82}, {"time": 2535, "pitch": 60, "duration": 5, "velocity": 93}, {"time": 2538, "pitch": 62, "duration": 4, "velocity": 102}, {"time": 2541, "pitch": 67, "duration": 12, "velocity": 107}, {"time": 2544, "pitch": 55, "duration": 9, "velocity": 92}, {"time": 2547, "pitch": 63, "duration": 5, "velocity": 107}, {"time": 2550, "pitch": 62, "duration": 3, "velocity": 112}, {"time": 2553, "pitch": 48, "duration": 17, "velocity": 96}, {"time": 2556, "pitch": 55, "duration": 10, "velocity": 72}, {"time": 2559, "pitch": 60, "duration": 4, "velocity": 99}, {"time": 2562, "pitch": 62, "duration": 3, "velocity": 100}, {"time": 2565, "pitch": 67, "duration": 11, "velocity": 102}, {"time": 2568, "pitch": 55, "duration": 2, "velocity": 89}, {"time": 2571, "pitch": 63, "duration": 5, "velocity": 127}, {"time": 2574, "pitch": 60, "duration": 3, "velocity": 97}, {"time": 2577, "pitch": 44, "duration": 17, "velocity": 70}, {"time": 2580, "pitch": 51, "duration": 14, "velocity": 96}, {"time": 2583, "pitch": 56, "duration": 6, "velocity": 93}, {"time": 2586, "pitch": 60, "duration": 5, "velocity": 96}, {"time": 2589, "pitch": 68, "duration": 11, "velocity": 117}, {"time": 2592, "pitch": 56, "duration": 5, "velocity": 95}, {"time": 2595, "pitch": 63, "duration": 5, "velocity": 112}, {"time": 2598, "pitch": 60, "duration": 3, "velocity": 95}, {"time": 2601, "pitch": 46, "duration": 18, "velocity": 79}, {"time": 2604, "pitch": 53, "duration": 13, "velocity": 72}, {"time": 2607, "pitch": 58, "duration": 6, "velocity": 96}, {"time": 2610, "pitch": 62, "duration": 4, "velocity": 95}, {"time": 2613, "pitch": 65, "duration": 7, "velocity": 100}, {"time": 2616, "pitch": 58, "duration": 2, "velocity": 107}, {"time": 2619, "pitch": 62, "duration": 5, "velocity": 102}, {"time": 2622, "pitch": 65, "duration": 3, "velocity": 81}, {"time": 2625, "pitch": 36, "duration": 22, "velocity": 72}, {"time": 2628, "pitch": 43, "duration": 20, "velocity": 92}, {"time": 2631, "pitch": 48, "duration": 7, "velocity": 83}, {"time": 2634, "pitch": 55, "duration": 6, "velocity": 85}, {"time": 2637, "pitch": 63, "duration": 7, "velocity": 117}, {"time": 2640, "pitch": 48, "duration": 4, "velocity": 100}, {"time": 2643, "pitch": 60, "duration": 5, "velocity": 102}, {"time": 2646, "pitch": 55, "duration": 27, "velocity": 100}, {"time": 2649, "pitch": 36, "duration": 24, "velocity": 72}, {"time": 2649, "pitch": 43, "duration": 24, "velocity": 69}, {"time": 2649, "pitch": 48, "duration": 24, "velocity": 100}, {"time": 2649, "pitch": 60, "duration": 24, "velocity": 97}, {"time": 2649, "pitch": 63, "duration": 24, "velocity": 127}, {"time": 2673, "pitch": 48, "duration": 20, "velocity": 96}, {"time": 2679, "pitch": 55, "duration": 8, "velocity": 66}, {"time": 2685, "pitch": 60, "duration": 6, "velocity": 65}, {"time": 2685, "pitch": 63, "duration": 12, "velocity": 93}, {"time": 2685, "pitch": 67, "duration": 12, "velocity": 83}, {"time": 2694, "pitch": 60, "duration": 4, "velocity": 63}, {"time": 2697, "pitch": 46, "duration": 17, "velocity": 112}, {"time": 2703, "pitch": 58, "duration": 6, "velocity": 74}, {"time": 2709, "pitch": 58, "duration": 4, "velocity": 71}, {"time": 2709, "pitch": 62, "duration": 13, "velocity": 88}, {"time": 2709, "pitch": 65, "duration": 13, "velocity": 82}, {"time": 2718, "pitch": 58, "duration": 4, "velocity": 71}, {"time": 2721, "pitch": 44, "duration": 15, "velocity": 78}, {"time": 2727, "pitch": 51, "duration": 9, "velocity": 48}, {"time": 2733, "pitch": 60, "duration": 5, "velocity": 66}, {"time": 2733, "pitch": 63, "duration": 13, "velocity": 117}, {"time": 2742, "pitch": 60, "duration": 4, "velocity": 70}, {"time": 2745, "pitch": 39, "duration": 15, "velocity": 82}, {"time": 2751, "pitch": 46, "duration": 9, "velocity": 33}, {"time": 2757, "pitch": 51, "duration": 5, "velocity": 86}, {"time": 2757, "pitch": 58, "duration": 4, "velocity": 90}, {"time": 2757, "pitch": 63, "duration": 7, "velocity": 90}, {"time": 2760, "pitch": 55, "duration": 5, "velocity": 79}, {"time": 2763, "pitch": 58, "duration": 5, "velocity": 90}, {"time": 2766, "pitch": 63, "duration": 4, "velocity": 85}, {"time": 2769, "pitch": 48, "duration": 15, "velocity": 86}, {"time": 2775, "pitch": 55, "duration": 8, "velocity": 61}, {"time": 2781, "pitch": 63, "duration": 12, "velocity": 95}, {"time": 2781, "pitch": 67, "duration": 13, "velocity": 83}, {"time": 2790, "pitch": 60, "duration": 4, "velocity": 92}, {"time": 2793, "pitch": 46, "duration": 17, "velocity": 76}, {"time": 2799, "pitch": 53, "duration": 11, "velocity": 57}, {"time": 2805, "pitch": 58, "duration": 5, "velocity": 68}, {"time": 2805, "pitch": 65, "duration": 12, "velocity": 71}, {"time": 2805, "pitch": 70, "duration": 12, "velocity": 83}, {"time": 2811, "pitch": 62, "duration": 6, "velocity": 83}, {"time": 2817, "pitch": 44, "duration": 11, "velocity": 86}, {"time": 2823, "pitch": 56, "duration": 6, "velocity": 68}, {"time": 2823, "pitch": 63, "duration": 5, "velocity": 73}, {"time": 2829, "pitch": 46, "duration": 7, "velocity": 86}, {"time": 2835, "pitch": 58, "duration": 6, "velocity": 86}, {"time": 2835, "pitch": 62, "duration": 7, "velocity": 85}, {"time": 2841, "pitch": 48, "duration": 21, "velocity": 82}, {"time": 2844, "pitch": 55, "duration": 10, "velocity": 55}, {"time": 2847, "pitch": 60, "duration": 6, "velocity": 82}, {"time": 2850, "pitch": 62, "duration": 4, "velocity": 56}, {"time": 2853, "pitch": 67, "duration": 13, "velocity": 107}, {"time": 2856, "pitch": 55, "duration": 9, "velocity": 74}, {"time": 2859, "pitch": 63, "duration": 8, "velocity": 93}, {"time": 2862, "pitch": 62, "duration": 3, "velocity": 79}, {"time": 2865, "pitch": 48, "duration": 17, "velocity": 93}, {"time": 2871, "pitch": 55, "duration": 10, "velocity": 57}, {"time": 2877, "pitch": 63, "duration": 13, "velocity": 97}, {"time": 2877, "pitch": 67, "duration": 14, "velocity": 88}, {"time": 2886, "pitch": 60, "duration": 5, "velocity": 72}, {"time": 2889, "pitch": 46, "duration": 16, "velocity": 90}, {"time": 2895, "pitch": 53, "duration": 9, "velocity": 52}, {"time": 2901, "pitch": 65, "duration": 13, "velocity": 74}, {"time": 2901, "pitch": 70, "duration": 13, "velocity": 73}, {"time": 2907, "pitch": 62, "duration": 7, "velocity": 70}, {"time": 2913, "pitch": 44, "duration": 15, "velocity": 67}, {"time": 2919, "pitch": 51, "duration": 8, "velocity": 60}, {"time": 2925, "pitch": 60, "duration": 12, "velocity": 90}, {"time": 2925, "pitch": 63, "duration": 12, "velocity": 95}, {"time": 2931, "pitch": 56, "duration": 5, "velocity": 60}, {"time": 2937, "pitch": 39, "duration": 17, "velocity": 75}, {"time": 2943, "pitch": 46, "duration": 10, "velocity": 47}, {"time": 2949, "pitch": 51, "duration": 5, "velocity": 75}, {"time": 2949, "pitch": 58, "duration": 7, "velocity": 95}, {"time": 2949, "pitch": 63, "duration": 12, "velocity": 93}, {"time": 2955, "pitch": 55, "duration": 5, "velocity": 85}, {"time": 2958, "pitch": 58, "duration": 3, "velocity": 75}, {"time": 2961, "pitch": 48, "duration": 13, "velocity": 72}, {"time": 2967, "pitch": 55, "duration": 6, "velocity": 59}, {"time": 2973, "pitch": 63, "duration": 13, "velocity": 95}, {"time": 2973, "pitch": 67, "duration": 12, "velocity": 79}, {"time": 2979, "pitch": 60, "duration": 7, "velocity": 66}, {"time": 2985, "pitch": 46, "duration": 16, "velocity": 95}, {"time": 2991, "pitch": 53, "duration": 9, "velocity": 40}, {"time": 2997, "pitch": 58, "duration": 3, "velocity": 62}, {"time": 2997, "pitch": 65, "duration": 10, "velocity": 66}, {"time": 2997, "pitch": 70, "duration": 11, "velocity": 70}, {"time": 3003, "pitch": 62, "duration": 5, "velocity": 69}, {"time": 3009, "pitch": 44, "duration": 11, "velocity": 72}, {"time": 3015, "pitch": 56, "duration": 6, "velocity": 52}, {"time": 3015, "pitch": 63, "duration": 5, "velocity": 66}, {"time": 3021, "pitch": 46, "duration": 7, "velocity": 75}, {"time": 3027, "pitch": 58, "duration": 6, "velocity": 92}, {"time": 3027, "pitch": 62, "duration": 6, "velocity": 74}, {"time": 3033, "pitch": 36, "duration": 22, "velocity": 86}, {"time": 3036, "pitch": 43, "duration": 17, "velocity": 52}, {"time": 3039, "pitch": 48, "duration": 7, "velocity": 79}, {"time": 3042, "pitch": 60, "duration": 5, "velocity": 78}, {"time": 3045, "pitch": 67, "duration": 7, "velocity": 100}, {"time": 3048, "pitch": 48, "duration": 5, "velocity": 100}, {"time": 3051, "pitch": 63, "duration": 4, "velocity": 122}, {"time": 3054, "pitch": 43, "duration": 1, "velocity": 32}, {"time": 3054, "pitch": 60, "duration": 3, "velocity": 95}, {"time": 3057, "pitch": 36, "duration": 6, "velocity": 71}, {"time": 3057, "pitch": 43, "duration": 6, "velocity": 97}, {"time": 3057, "pitch": 48, "duration": 6, "velocity": 112}, {"time": 3057, "pitch": 60, "duration": 6, "velocity": 90}, {"time": 3057, "pitch": 63, "duration": 6, "velocity": 127}, {"time": 3057, "pitch": 67, "duration": 6, "velocity": 97}, {"time": 3081, "pitch": 36, "duration": 16, "velocity": 95}, {"time": 3084, "pitch": 43, "duration": 13, "velocity": 95}, {"time": 3087, "pitch": 48, "duration": 6, "velocity": 96}, {"time": 3090, "pitch": 55, "duration": 5, "velocity": 88}, {"time": 3093, "pitch": 63, "duration": 12, "velocity": 127}, {"time": 3096, "pitch": 48, "duration": 3, "velocity": 99}, {"time": 3099, "pitch": 60, "duration": 6, "velocity": 93}, {"time": 3102, "pitch": 55, "duration": 3, "velocity": 100}, {"time": 3105, "pitch": 43, "duration": 19, "velocity": 89}, {"time": 3108, "pitch": 50, "duration": 15, "velocity": 81}, {"time": 3111, "pitch": 55, "duration": 6, "velocity": 99}, {"time": 3114, "pitch": 62, "duration": 7, "velocity": 90}, {"time": 3117, "pitch": 70, "duration": 10, "velocity": 127}, {"time": 3120, "pitch": 55, "duration": 2, "velocity": 97}, {"time": 3123, "pitch": 67, "duration": 5, "velocity": 122}, {"time": 3126, "pitch": 62, "duration": 3, "velocity": 102}, {"time": 3129, "pitch": 36, "duration": 23, "velocity": 81}, {"time": 3132, "pitch": 43, "duration": 20, "velocity": 92}, {"time": 3135, "pitch": 48, "duration": 7, "velocity": 99}, {"time": 3138, "pitch": 55, "duration": 6, "velocity": 90}, {"time": 3141, "pitch": 63, "duration": 13, "velocity": 127}, {"time": 3144, "pitch": 48, "duration": 8, "velocity": 107}, {"time": 3147, "pitch": 60, "duration": 6, "velocity": 112}, {"time": 3150, "pitch": 55, "duration": 5, "velocity": 100}, {"time": 3153, "pitch": 36, "duration": 16, "velocity": 97}, {"time": 3156, "pitch": 43, "duration": 12, "velocity": 95}, {"time": 3159, "pitch": 48, "duration": 6, "velocity": 100}, {"time": 3162, "pitch": 55, "duration": 5, "velocity": 107}, {"time": 3165, "pitch": 63, "duration": 12, "velocity": 127}, {"time": 3168, "pitch": 48, "duration": 3, "velocity": 117}, {"time": 3171, "pitch": 60, "duration": 6, "velocity": 107}, {"time": 3174, "pitch": 55, "duration": 3, "velocity": 99}, {"time": 3177, "pitch": 44, "duration": 22, "velocity": 102}, {"time": 3180, "pitch": 51, "duration": 19, "velocity": 76}, {"time": 3183, "pitch": 56, "duration": 7, "velocity": 112}, {"time": 3186, "pitch": 60, "duration": 5, "velocity": 97}, {"time": 3189, "pitch": 68, "duration": 12, "velocity": 127}, {"time": 3192, "pitch": 56, "duration": 7, "velocity": 102}, {"time": 3195, "pitch": 63, "duration": 6, "velocity": 117}, {"time": 3198, "pitch": 60, "duration": 3, "velocity": 100}, {"time": 3201, "pitch": 44, "duration": 20, "velocity": 82}, {"time": 3204, "pitch": 51, "duration": 14, "velocity": 50}, {"time": 3207, "pitch": 56, "duration": 7, "velocity": 102}, {"time": 3210, "pitch": 60, "duration": 7, "velocity": 93}, {"time": 3213, "pitch": 68, "duration": 11, "velocity": 122}, {"time": 3216, "pitch": 56, "duration": 3, "velocity": 107}, {"time": 3219, "pitch": 63, "duration": 6, "velocity": 96}, {"time": 3222, "pitch": 60, "duration": 4, "velocity": 96}, {"time": 3225, "pitch": 43, "duration": 22, "velocity": 85}, {"time": 3228, "pitch": 50, "duration": 10, "velocity": 77}, {"time": 3231, "pitch": 55, "duration": 5, "velocity": 85}, {"time": 3234, "pitch": 58, "duration": 3, "velocity": 97}, {"time": 3237, "pitch": 62, "duration": 11, "velocity": 99}, {"time": 3240, "pitch": 50, "duration": 8, "velocity": 99}, {"time": 3243, "pitch": 58, "duration": 5, "velocity": 107}, {"time": 3246, "pitch": 55, "duration": 3, "velocity": 97}, {"time": 3249, "pitch": 43, "duration": 19, "velocity": 89}, {"time": 3252, "pitch": 50, "duration": 15, "velocity": 81}, {"time": 3255, "pitch": 55, "duration": 7, "velocity": 95}, {"time": 3258, "pitch": 62, "duration": 3, "velocity": 75}, {"time": 3258, "pitch": 67, "duration": 2, "velocity": 92}, {"time": 3258, "pitch": 70, "duration": 2, "velocity": 99}, {"time": 3261, "pitch": 67, "duration": 5, "velocity": 93}, {"time": 3261, "pitch": 70, "duration": 12, "velocity": 112}, {"time": 3264, "pitch": 55, "duration": 3, "velocity": 102}, {"time": 3267, "pitch": 62, "duration": 6, "velocity": 107}, {"time": 3270, "pitch": 67, "duration": 3, "velocity": 97}, {"time": 3273, "pitch": 41, "duration": 23, "velocity": 89}, {"time": 3276, "pitch": 48, "duration": 22, "velocity": 85}, {"time": 3279, "pitch": 53, "duration": 7, "velocity": 88}, {"time": 3282, "pitch": 60, "duration": 5, "velocity": 86}, {"time": 3285, "pitch": 65, "duration": 1, "velocity": 55}, {"time": 3285, "pitch": 68, "duration": 13, "velocity": 127}, {"time": 3288, "pitch": 53, "duration": 3, "velocity": 99}, {"time": 3291, "pitch": 60, "duration": 6, "velocity": 93}, {"time": 3294, "pitch": 65, "duration": 4, "velocity": 100}, {"time": 3297, "pitch": 41, "duration": 23, "velocity": 85}, {"time": 3300, "pitch": 48, "duration": 20, "velocity": 93}, {"time": 3303, "pitch": 53, "duration": 7, "velocity": 92}, {"time": 3306, "pitch": 60, "duration": 4, "velocity": 96}, {"time": 3309, "pitch": 65, "duration": 7, "velocity": 96}, {"time": 3309, "pitch": 68, "duration": 11, "velocity": 107}, {"time": 3312, "pitch": 53, "duration": 3, "velocity": 93}, {"time": 3315, "pitch": 60, "duration": 6, "velocity": 99}, {"time": 3318, "pitch": 65, "duration": 4, "velocity": 102}, {"time": 3321, "pitch": 43, "duration": 23, "velocity": 92}, {"time": 3324, "pitch": 50, "duration": 20, "velocity": 82}, {"time": 3327, "pitch": 55, "duration": 7, "velocity": 97}, {"time": 3330, "pitch": 62, "duration": 4, "velocity": 96}, {"time": 3333, "pitch": 67, "duration": 5, "velocity": 96}, {"time": 3333, "pitch": 70, "duration": 14, "velocity": 112}, {"time": 3336, "pitch": 55, "duration": 4, "velocity": 96}, {"time": 3339, "pitch": 62, "duration": 8, "velocity": 96}, {"time": 3342, "pitch": 67, "duration": 4, "velocity": 97}, {"time": 3345, "pitch": 43, "duration": 16, "velocity": 64}, {"time": 3348, "pitch": 50, "duration": 14, "velocity": 93}, {"time": 3351, "pitch": 55, "duration": 7, "velocity": 99}, {"time": 3354, "pitch": 62, "duration": 6, "velocity": 95}, {"time": 3357, "pitch": 70, "duration": 11, "velocity": 127}, {"time": 3360, "pitch": 55, "duration": 2, "velocity": 102}, {"time": 3363, "pitch": 67, "duration": 5, "velocity": 97}, {"time": 3366, "pitch": 62, "duration": 3, "velocity": 100}, {"time": 3369, "pitch": 44, "duration": 17, "velocity": 86}, {"time": 3372, "pitch": 51, "duration": 13, "velocity": 89}, {"time": 3375, "pitch": 56, "duration": 6, "velocity": 100}, {"time": 3378, "pitch": 60, "duration": 5, "velocity": 95}, {"time": 3381, "pitch": 68, "duration": 11, "velocity": 122}, {"time": 3384, "pitch": 56, "duration": 3, "velocity": 97}, {"time": 3387, "pitch": 63, "duration": 5, "velocity": 127}, {"time": 3390, "pitch": 60, "duration": 3, "velocity": 100}, {"time": 3393, "pitch": 46, "duration": 18, "velocity": 93}, {"time": 3396, "pitch": 53, "duration": 14, "velocity": 72}, {"time": 3399, "pitch": 58, "duration": 7, "velocity": 97}, {"time": 3402, "pitch": 62, "duration": 3, "velocity": 88}, {"time": 3405, "pitch": 65, "duration": 6, "velocity": 112}, {"time": 3408, "pitch": 58, "duration": 2, "velocity": 112}, {"time": 3411, "pitch": 62, "duration": 5, "velocity": 102}, {"time": 3414, "pitch": 65, "duration": 3, "velocity": 99}, {"time": 3417, "pitch": 36, "duration": 23, "velocity": 79}, {"time": 3420, "pitch": 43, "duration": 20, "velocity": 93}, {"time": 3423, "pitch": 48, "duration": 7, "velocity": 86}, {"time": 3426, "pitch": 55, "duration": 9, "velocity": 92}, {"time": 3429, "pitch": 63, "duration": 13, "velocity": 122}, {"time": 3432, "pitch": 48, "duration": 5, "velocity": 90}, {"time": 3435, "pitch": 60, "duration": 6, "velocity": 100}, {"time": 3438, "pitch": 55, "duration": 4, "velocity": 102}, {"time": 3441, "pitch": 36, "duration": 22, "velocity": 96}, {"time": 3444, "pitch": 43, "duration": 21, "velocity": 100}, {"time": 3447, "pitch": 48, "duration": 7, "velocity": 112}, {"time": 3450, "pitch": 60, "duration": 2, "velocity": 93}, {"time": 3450, "pitch": 63, "duration": 2, "velocity": 112}, {"time": 3450, "pitch": 67, "duration": 2, "velocity": 88}, {"time": 3453, "pitch": 63, "duration": 12, "velocity": 112}, {"time": 3453, "pitch": 67, "duration": 12, "velocity": 96}, {"time": 3456, "pitch": 48, "duration": 2, "velocity": 37}, {"time": 3459, "pitch": 60, "duration": 6, "velocity": 112}, {"time": 3465, "pitch": 36, "duration": 17, "velocity": 97}, {"time": 3468, "pitch": 43, "duration": 15, "velocity": 92}, {"time": 3471, "pitch": 48, "duration": 7, "velocity": 97}, {"time": 3474, "pitch": 55, "duration": 5, "velocity": 97}, {"time": 3477, "pitch": 63, "duration": 11, "velocity": 127}, {"time": 3480, "pitch": 48, "duration": 5, "velocity": 88}, {"time": 3483, "pitch": 60, "duration": 5, "velocity": 107}, {"time": 3486, "pitch": 55, "duration": 3, "velocity": 102}, {"time": 3489, "pitch": 43, "duration": 18, "velocity": 89}, {"time": 3492, "pitch": 50, "duration": 14, "velocity": 88}, {"time": 3495, "pitch": 55, "duration": 7, "velocity": 93}, {"time": 3498, "pitch": 62, "duration": 6, "velocity": 99}, {"time": 3501, "pitch": 70, "duration": 11, "velocity": 127}, {"time": 3504, "pitch": 55, "duration": 2, "velocity": 96}, {"time": 3507, "pitch": 67, "duration": 5, "velocity": 96}, {"time": 3510, "pitch": 62, "duration": 4, "velocity": 112}, {"time": 3513, "pitch": 36, "duration": 22, "velocity": 70}, {"time": 3516, "pitch": 43, "duration": 21, "velocity": 89}, {"time": 3519, "pitch": 48, "duration": 6, "velocity": 92}, {"time": 3522, "pitch": 55, "duration": 7, "velocity": 77}, {"time": 3525, "pitch": 63, "duration": 13, "velocity": 117}, {"time": 3528, "pitch": 48, "duration": 3, "velocity": 96}, {"time": 3531, "pitch": 60, "duration": 6, "velocity": 100}, {"time": 3534, "pitch": 55, "duration": 3, "velocity": 92}, {"time": 3537, "pitch": 36, "duration": 17, "velocity": 78}, {"time": 3540, "pitch": 43, "duration": 14, "velocity": 93}, {"time": 3543, "pitch": 48, "duration": 7, "velocity": 90}, {"time": 3546, "pitch": 60, "duration": 2, "velocity": 92}, {"time": 3546, "pitch": 63, "duration": 2, "velocity": 122}, {"time": 3546, "pitch": 67, "duration": 2, "velocity": 95}, {"time": 3549, "pitch": 63, "duration": 6, "velocity": 117}, {"time": 3549, "pitch": 67, "duration": 12, "velocity": 96}, {"time": 3552, "pitch": 48, "duration": 3, "velocity": 102}, {"time": 3555, "pitch": 60, "duration": 5, "velocity": 122}, {"time": 3558, "pitch": 63, "duration": 4, "velocity": 127}, {"time": 3561, "pitch": 44, "duration": 19, "velocity": 72}, {"time": 3564, "pitch": 51, "duration": 14, "velocity": 43}, {"time": 3567, "pitch": 56, "duration": 6, "velocity": 97}, {"time": 3570, "pitch": 60, "duration": 5, "velocity": 92}, {"time": 3573, "pitch": 68, "duration": 12, "velocity": 117}, {"time": 3576, "pitch": 56, "duration": 3, "velocity": 100}, {"time": 3579, "pitch": 63, "duration": 5, "velocity": 117}, {"time": 3582, "pitch": 60, "duration": 2, "velocity": 93}, {"time": 3585, "pitch": 44, "duration": 19, "velocity": 85}, {"time": 3588, "pitch": 51, "duration": 15, "velocity": 66}, {"time": 3591, "pitch": 56, "duration": 7, "velocity": 96}, {"time": 3594, "pitch": 60, "duration": 7, "velocity": 93}, {"time": 3597, "pitch": 68, "duration": 12, "velocity": 107}, {"time": 3600, "pitch": 56, "duration": 3, "velocity": 92}, {"time": 3603, "pitch": 63, "duration": 6, "velocity": 95}, {"time": 3606, "pitch": 60, "duration": 3, "velocity": 81}, {"time": 3609, "pitch": 43, "duration": 23, "velocity": 66}, {"time": 3612, "pitch": 50, "duration": 10, "velocity": 65}, {"time": 3615, "pitch": 55, "duration": 6, "velocity": 90}, {"time": 3618, "pitch": 58, "duration": 3, "velocity": 112}, {"time": 3621, "pitch": 62, "duration": 12, "velocity": 102}, {"time": 3624, "pitch": 50, "duration": 9, "velocity": 72}, {"time": 3627, "pitch": 58, "duration": 6, "velocity": 100}, {"time": 3630, "pitch": 55, "duration": 4, "velocity": 88}, {"time": 3633, "pitch": 43, "duration": 18, "velocity": 85}, {"time": 3636, "pitch": 50, "duration": 15, "velocity": 79}, {"time": 3639, "pitch": 55, "duration": 7, "velocity": 93}, {"time": 3642, "pitch": 62, "duration": 5, "velocity": 90}, {"time": 3642, "pitch": 67, "duration": 2, "velocity": 95}, {"time": 3642, "pitch": 70, "duration": 2, "velocity": 102}, {"time": 3645, "pitch": 67, "duration": 5, "velocity": 93}, {"time": 3645, "pitch": 70, "duration": 12, "velocity": 112}, {"time": 3648, "pitch": 55, "duration": 3, "velocity": 95}, {"time": 3651, "pitch": 62, "duration": 7, "velocity": 93}, {"time": 3654, "pitch": 67, "duration": 3, "velocity": 83}, {"time": 3657, "pitch": 41, "duration": 23, "velocity": 71}, {"time": 3660, "pitch": 48, "duration": 22, "velocity": 66}, {"time": 3663, "pitch": 53, "duration": 7, "velocity": 86}, {"time": 3666, "pitch": 60, "duration": 5, "velocity": 79}, {"time": 3669, "pitch": 65, "duration": 7, "velocity": 93}, {"time": 3669, "pitch": 68, "duration": 10, "velocity": 112}, {"time": 3672, "pitch": 53, "duration": 3, "velocity": 90}, {"time": 3675, "pitch": 60, "duration": 10, "velocity": 90}, {"time": 3678, "pitch": 65, "duration": 4, "velocity": 92}, {"time": 3681, "pitch": 41, "duration": 22, "velocity": 83}, {"time": 3684, "pitch": 48, "duration": 21, "velocity": 90}, {"time": 3687, "pitch": 53, "duration": 7, "velocity": 82}, {"time": 3690, "pitch": 60, "duration": 6, "velocity": 81}, {"time": 3693, "pitch": 68, "duration": 12, "velocity": 117}, {"time": 3696, "pitch": 53, "duration": 3, "velocity": 97}, {"time": 3699, "pitch": 65, "duration": 5, "velocity": 97}, {"time": 3702, "pitch": 60, "duration": 4, "velocity": 93}, {"time": 3705, "pitch": 43, "duration": 22, "velocity": 78}, {"time": 3708, "pitch": 50, "duration": 21, "velocity": 83}, {"time": 3711, "pitch": 55, "duration": 6, "velocity": 92}, {"time": 3714, "pitch": 62, "duration": 7, "velocity": 82}, {"time": 3717, "pitch": 70, "duration": 13, "velocity": 117}, {"time": 3720, "pitch": 55, "duration": 3, "velocity": 96}, {"time": 3723, "pitch": 67, "duration": 6, "velocity": 88}, {"time": 3726, "pitch": 62, "duration": 4, "velocity": 99}, {"time": 3729, "pitch": 43, "duration": 16, "velocity": 79}, {"time": 3732, "pitch": 50, "duration": 14, "velocity": 73}, {"time": 3735, "pitch": 55, "duration": 7, "velocity": 107}, {"time": 3738, "pitch": 62, "duration": 5, "velocity": 92}, {"time": 3741, "pitch": 70, "duration": 12, "velocity": 107}, {"time": 3744, "pitch": 55, "duration": 3, "velocity": 93}, {"time": 3747, "pitch": 67, "duration": 5, "velocity": 88}, {"time": 3750, "pitch": 62, "duration": 3, "velocity": 92}, {"time": 3753, "pitch": 44, "duration": 18, "velocity": 78}, {"time": 3756, "pitch": 51, "duration": 13, "velocity": 35}, {"time": 3759, "pitch": 56, "duration": 7, "velocity": 89}, {"time": 3762, "pitch": 60, "duration": 5, "velocity": 86}, {"time": 3765, "pitch": 68, "duration": 11, "velocity": 107}, {"time": 3768, "pitch": 56, "duration": 5, "velocity": 96}, {"time": 3771, "pitch": 63, "duration": 5, "velocity": 107}, {"time": 3774, "pitch": 60, "duration": 3, "velocity": 90}, {"time": 3777, "pitch": 46, "duration": 18, "velocity": 90}, {"time": 3780, "pitch": 53, "duration": 13, "velocity": 46}, {"time": 3783, "pitch": 58, "duration": 7, "velocity": 95}, {"time": 3786, "pitch": 62, "duration": 3, "velocity": 83}, {"time": 3789, "pitch": 65, "duration": 6, "velocity": 102}, {"time": 3792, "pitch": 58, "duration": 3, "velocity": 99}, {"time": 3795, "pitch": 62, "duration": 4, "velocity": 102}, {"time": 3798, "pitch": 65, "duration": 3, "velocity": 97}, {"time": 3801, "pitch": 48, "duration": 19, "velocity": 70}, {"time": 3804, "pitch": 55, "duration": 11, "velocity": 92}, {"time": 3807, "pitch": 60, "duration": 5, "velocity": 96}, {"time": 3810, "pitch": 63, "duration": 4, "velocity": 107}, {"time": 3813, "pitch": 67, "duration": 12, "velocity": 97}, {"time": 3816, "pitch": 55, "duration": 3, "velocity": 95}, {"time": 3819, "pitch": 63, "duration": 6, "velocity": 117}, {"time": 3822, "pitch": 60, "duration": 1, "velocity": 58}, {"time": 3822, "pitch": 62, "duration": 1, "velocity": 53}, {"time": 3825, "pitch": 36, "duration": 10, "velocity": 61}, {"time": 3825, "pitch": 43, "duration": 9, "velocity": 79}, {"time": 3825, "pitch": 48, "duration": 8, "velocity": 102}, {"time": 3825, "pitch": 60, "duration": 9, "velocity": 97}, {"time": 3825, "pitch": 63, "duration": 9, "velocity": 107}, {"time": 3825, "pitch": 67, "duration": 10, "velocity": 93}, {"time": 3849, "pitch": 48, "duration": 17, "velocity": 95}, {"time": 3852, "pitch": 55, "duration": 10, "velocity": 89}, {"time": 3855, "pitch": 60, "duration": 4, "velocity": 95}, {"time": 3858, "pitch": 63, "duration": 3, "velocity": 97}, {"time": 3861, "pitch": 67, "duration": 11, "velocity": 96}, {"time": 3864, "pitch": 55, "duration": 2, "velocity": 90}, {"time": 3867, "pitch": 63, "duration": 5, "velocity": 102}, {"time": 3870, "pitch": 60, "duration": 4, "velocity": 93}, {"time": 3873, "pitch": 43, "duration": 18, "velocity": 88}, {"time": 3876, "pitch": 50, "duration": 14, "velocity": 85}, {"time": 3879, "pitch": 55, "duration": 7, "velocity": 86}, {"time": 3882, "pitch": 62, "duration": 5, "velocity": 86}, {"time": 3885, "pitch": 70, "duration": 11, "velocity": 112}, {"time": 3888, "pitch": 55, "duration": 2, "velocity": 78}, {"time": 3891, "pitch": 67, "duration": 5, "velocity": 100}, {"time": 3894, "pitch": 62, "duration": 3, "velocity": 97}, {"time": 3897, "pitch": 36, "duration": 23, "velocity": 83}, {"time": 3900, "pitch": 43, "duration": 21, "velocity": 90}, {"time": 3903, "pitch": 48, "duration": 6, "velocity": 78}, {"time": 3906, "pitch": 55, "duration": 5, "velocity": 89}, {"time": 3909, "pitch": 63, "duration": 14, "velocity": 112}, {"time": 3912, "pitch": 48, "duration": 10, "velocity": 95}, {"time": 3915, "pitch": 60, "duration": 5, "velocity": 96}, {"time": 3918, "pitch": 55, "duration": 7, "velocity": 90}, {"time": 3921, "pitch": 36, "duration": 16, "velocity": 66}, {"time": 3924, "pitch": 43, "duration": 13, "velocity": 66}, {"time": 3927, "pitch": 48, "duration": 7, "velocity": 95}, {"time": 3930, "pitch": 55, "duration": 5, "velocity": 82}, {"time": 3933, "pitch": 63, "duration": 12, "velocity": 117}, {"time": 3936, "pitch": 48, "duration": 3, "velocity": 93}, {"time": 3939, "pitch": 60, "duration": 6, "velocity": 92}, {"time": 3942, "pitch": 55, "duration": 3, "velocity": 95}, {"time": 3945, "pitch": 44, "duration": 22, "velocity": 93}, {"time": 3948, "pitch": 51, "duration": 20, "velocity": 52}, {"time": 3951, "pitch": 56, "duration": 7, "velocity": 99}, {"time": 3954, "pitch": 60, "duration": 6, "velocity": 90}, {"time": 3957, "pitch": 68, "duration": 11, "velocity": 122}, {"time": 3960, "pitch": 56, "duration": 11, "velocity": 97}, {"time": 3963, "pitch": 63, "duration": 7, "velocity": 102}, {"time": 3966, "pitch": 60, "duration": 5, "velocity": 95}, {"time": 3969, "pitch": 44, "duration": 19, "velocity": 82}, {"time": 3972, "pitch": 51, "duration": 14, "velocity": 57}, {"time": 3975, "pitch": 56, "duration": 7, "velocity": 100}, {"time": 3978, "pitch": 60, "duration": 5, "velocity": 89}, {"time": 3981, "pitch": 68, "duration": 11, "velocity": 117}, {"time": 3984, "pitch": 56, "duration": 3, "velocity": 99}, {"time": 3987, "pitch": 63, "duration": 5, "velocity": 107}, {"time": 3990, "pitch": 60, "duration": 4, "velocity": 95}, {"time": 3993, "pitch": 43, "duration": 22, "velocity": 65}, {"time": 3996, "pitch": 50, "duration": 21, "velocity": 81}, {"time": 3999, "pitch": 55, "duration": 7, "velocity": 92}, {"time": 4002, "pitch": 62, "duration": 7, "velocity": 96}, {"time": 4005, "pitch": 70, "duration": 20, "velocity": 112}, {"time": 4008, "pitch": 55, "duration": 3, "velocity": 92}, {"time": 4011, "pitch": 67, "duration": 14, "velocity": 107}, {"time": 4014, "pitch": 62, "duration": 11, "velocity": 97}, {"time": 4017, "pitch": 43, "duration": 18, "velocity": 69}, {"time": 4020, "pitch": 50, "duration": 11, "velocity": 85}, {"time": 4023, "pitch": 55, "duration": 5, "velocity": 93}, {"time": 4026, "pitch": 67, "duration": 2, "velocity": 92}, {"time": 4026, "pitch": 70, "duration": 2, "velocity": 127}, {"time": 4029, "pitch": 67, "duration": 7, "velocity": 86}, {"time": 4029, "pitch": 70, "duration": 12, "velocity": 93}, {"time": 4032, "pitch": 50, "duration": 3, "velocity": 93}, {"time": 4035, "pitch": 62, "duration": 7, "velocity": 97}, {"time": 4038, "pitch": 67, "duration": 3, "velocity": 93}, {"time": 4041, "pitch": 41, "duration": 23, "velocity": 75}, {"time": 4044, "pitch": 48, "duration": 22, "velocity": 92}, {"time": 4047, "pitch": 53, "duration": 7, "velocity": 86}, {"time": 4050, "pitch": 60, "duration": 5, "velocity": 68}, {"time": 4053, "pitch": 65, "duration": 6, "velocity": 97}, {"time": 4053, "pitch": 68, "duration": 14, "velocity": 107}, {"time": 4056, "pitch": 53, "duration": 2, "velocity": 82}, {"time": 4059, "pitch": 60, "duration": 14, "velocity": 86}, {"time": 4062, "pitch": 65, "duration": 5, "velocity": 88}, {"time": 4065, "pitch": 41, "duration": 22, "velocity": 76}, {"time": 4068, "pitch": 48, "duration": 20, "velocity": 79}, {"time": 4071, "pitch": 53, "duration": 7, "velocity": 75}, {"time": 4074, "pitch": 60, "duration": 6, "velocity": 69}, {"time": 4077, "pitch": 68, "duration": 11, "velocity": 112}, {"time": 4080, "pitch": 53, "duration": 3, "velocity": 77}, {"time": 4083, "pitch": 65, "duration": 5, "velocity": 97}, {"time": 4086, "pitch": 60, "duration": 5, "velocity": 93}, {"time": 4089, "pitch": 43, "duration": 22, "velocity": 83}, {"time": 4092, "pitch": 50, "duration": 21, "velocity": 68}, {"time": 4095, "pitch": 55, "duration": 6, "velocity": 90}, {"time": 4098, "pitch": 62, "duration": 6, "velocity": 86}, {"time": 4101, "pitch": 70, "duration": 11, "velocity": 102}, {"time": 4104, "pitch": 55, "duration": 3, "velocity": 97}, {"time": 4107, "pitch": 67, "duration": 5, "velocity": 97}, {"time": 4110, "pitch": 62, "duration": 5, "velocity": 96}, {"time": 4113, "pitch": 43, "duration": 16, "velocity": 82}, {"time": 4116, "pitch": 50, "duration": 14, "velocity": 89}, {"time": 4119, "pitch": 55, "duration": 6, "velocity": 95}, {"time": 4122, "pitch": 62, "duration": 5, "velocity": 95}, {"time": 4125, "pitch": 70, "duration": 11, "velocity": 112}, {"time": 4128, "pitch": 55, "duration": 3, "velocity": 100}, {"time": 4131, "pitch": 67, "duration": 4, "velocity": 99}, {"time": 4134, "pitch": 62, "duration": 3, "velocity": 100}, {"time": 4137, "pitch": 44, "duration": 17, "velocity": 83}, {"time": 4140, "pitch": 51, "duration": 14, "velocity": 45}, {"time": 4143, "pitch": 56, "duration": 6, "velocity": 95}, {"time": 4146, "pitch": 60, "duration": 5, "velocity": 89}, {"time": 4149, "pitch": 68, "duration": 11, "velocity": 102}, {"time": 4152, "pitch": 56, "duration": 7, "velocity": 93}, {"time": 4155, "pitch": 63, "duration": 5, "velocity": 102}, {"time": 4158, "pitch": 60, "duration": 3, "velocity": 93}, {"time": 4161, "pitch": 46, "duration": 18, "velocity": 89}, {"time": 4164, "pitch": 53, "duration": 14, "velocity": 59}, {"time": 4167, "pitch": 58, "duration": 7, "velocity": 96}, {"time": 4170, "pitch": 62, "duration": 5, "velocity": 89}, {"time": 4173, "pitch": 70, "duration": 11, "velocity": 99}, {"time": 4176, "pitch": 58, "duration": 3, "velocity": 107}, {"time": 4179, "pitch": 65, "duration": 5, "velocity": 97}, {"time": 4182, "pitch": 62, "duration": 3, "velocity": 102}, {"time": 4185, "pitch": 36, "duration": 17, "velocity": 78}, {"time": 4188, "pitch": 43, "duration": 14, "velocity": 83}, {"time": 4191, "pitch": 48, "duration": 7, "velocity": 86}, {"time": 4194, "pitch": 55, "duration": 6, "velocity": 95}, {"time": 4197, "pitch": 63, "duration": 7, "velocity": 102}, {"time": 4200, "pitch": 48, "duration": 4, "velocity": 97}, {"time": 4203, "pitch": 60, "duration": 5, "velocity": 102}, {"time": 4206, "pitch": 63, "duration": 3, "velocity": 102}, {"time": 4209, "pitch": 48, "duration": 24, "velocity": 86}, {"time": 4209, "pitch": 55, "duration": 24, "velocity": 96}, {"time": 4247, "pitch": 65, "duration": 77, "velocity": 49}, {"time": 4247, "pitch": 62, "duration": 77, "velocity": 44}, {"time": 4247, "pitch": 69, "duration": 78, "velocity": 43}, {"time": 4320, "pitch": 58, "duration": 52, "velocity": 63}, {"time": 4320, "pitch": 65, "duration": 4, "velocity": 42}, {"time": 4320, "pitch": 62, "duration": 4, "velocity": 49}, {"time": 4398, "pitch": 57, "duration": 55, "velocity": 50}, {"time": 4398, "pitch": 60, "duration": 55, "velocity": 52}, {"time": 4398, "pitch": 64, "duration": 55, "velocity": 49}, {"time": 4458, "pitch": 62, "duration": 63, "velocity": 35}, {"time": 4458, "pitch": 55, "duration": 62, "velocity": 37}, {"time": 4458, "pitch": 58, "duration": 62, "velocity": 55}, {"time": 4545, "pitch": 41, "duration": 82, "velocity": 38}, {"time": 4545, "pitch": 60, "duration": 83, "velocity": 44}, {"time": 4545, "pitch": 53, "duration": 82, "velocity": 42}, {"time": 4545, "pitch": 57, "duration": 83, "velocity": 41}, {"time": 4562, "pitch": 48, "duration": 66, "velocity": 32}], "annotations": [{"time": 322, "annotation": {"number": 64, "value": 127}, "group": "control_change"}, {"time": 343, "annotation": {"number": 64, "value": 0}, "group": "control_change"}, {"time": 346, "annotation": {"number": 64, "value": 127}, "group": "control_change"}, {"time": 367, "annotation": {"number": 64, "value": 0}, "group": "control_change"}, {"time": 369, "annotation": {"number": 64, "value": 127}, "group": "control_change"}, {"time": 391, "annotation": {"number": 64, "value": 0}, "group": "control_change"}, {"time": 393, "annotation": {"number": 64, "value": 127}, "group": "control_change"}, {"time": 415, "annotation": {"number": 64, "value": 0}, "group": "control_change"}, {"time": 417, "annotation": {"number": 64, "value": 127}, "group": "control_change"}, {"time": 439, "annotation": {"number": 64, "value": 0}, "group": "control_change"}, {"time": 441, "annotation": {"number": 64, "value": 127}, "group": "control_change"}, {"time": 463, "annotation": {"number": 64, "value": 0}, "group": "control_change"}, {"time": 465, "annotation": {"number": 64, "value": 127}, "group": "control_change"}, {"time": 487, "annotation": {"number": 64, "value": 0}, "group": "control_change"}, {"time": 489, "annotation": {"number": 64, "value": 127}, "group": "control_change"}, {"time": 510, "annotation": {"number": 64, "value": 0}, "group": "control_change"}, {"time": 516, "annotation": {"number": 64, "value": 127}, "group": "control_change"}, {"time": 520, "annotation": {"number": 64, "value": 0}, "group": "control_change"}, {"time": 522, "annotation": {"number": 64, "value": 127}, "group": "control_change"}, {"time": 535, "annotation": {"number": 64, "value": 0}, "group": "control_change"}, {"time": 538, "annotation": {"number": 64, "value": 127}, "group": "control_change"}, {"time": 559, "annotation": {"number": 64, "value": 0}, "group": "control_change"}, {"time": 560, "annotation": {"number": 64, "value": 127}, "group": "control_change"}, {"time": 562, "annotation": {"number": 64, "value": 127}, "group": "control_change"}, {"time": 582, "annotation": {"number": 64, "value": 0}, "group": "control_change"}, {"time": 584, "annotation": {"number": 64, "value": 127}, "group": "control_change"}, {"time": 606, "annotation": {"number": 64, "value": 0}, "group": "control_change"}, {"time": 608, "annotation": {"number": 64, "value": 127}, "group": "control_change"}, {"time": 630, "annotation": {"number": 64, "value": 0}, "group": "control_change"}, {"time": 632, "annotation": {"number": 64, "value": 127}, "group": "control_change"}, {"time": 654, "annotation": {"number": 64, "value": 0}, "group": "control_change"}, {"time": 657, "annotation": {"number": 64, "value": 127}, "group": "control_change"}, {"time": 679, "annotation": {"number": 64, "value": 0}, "group": "control_change"}, {"time": 687, "annotation": {"number": 64, "value": 127}, "group": "control_change"}, {"time": 689, "annotation": {"number": 64, "value": 0}, "group": "control_change"}, {"time": 692, "annotation": {"number": 64, "value": 127}, "group": "control_change"}, {"time": 703, "annotation": {"number": 64, "value": 0}, "group": "control_change"}, {"time": 712, "annotation": {"number": 64, "value": 127}, "group": "control_change"}, {"time": 714, "annotation": {"number": 64, "value": 0}, "group": "control_change"}, {"time": 717, "annotation": {"number": 64, "value": 127}, "group": "control_change"}, {"time": 727, "annotation": {"number": 64, "value": 0}, "group": "control_change"}, {"time": 730, "annotation": {"number": 64, "value": 127}, "group": "control_change"}, {"time": 750, "annotation": {"number": 64, "value": 0}, "group": "control_change"}, {"time": 753, "annotation": {"number": 64, "value": 127}, "group": "control_change"}, {"time": 775, "annotation": {"number": 64, "value": 0}, "group": "control_change"}, {"time": 777, "annotation": {"number": 64, "value": 127}, "group": "control_change"}, {"time": 799, "annotation": {"number": 64, "value": 0}, "group": "control_change"}, {"time": 802, "annotation": {"number": 64, "value": 127}, "group": "control_change"}, {"time": 823, "annotation": {"number": 64, "value": 0}, "group": "control_change"}, {"time": 825, "annotation": {"number": 64, "value": 127}, "group": "control_change"}, {"time": 847, "annotation": {"number": 64, "value": 0}, "group": "control_change"}, {"time": 850, "annotation": {"number": 64, "value": 127}, "group": "control_change"}, {"time": 859, "annotation": {"number": 64, "value": 0}, "group": "control_change"}, {"time": 862, "annotation": {"number": 64, "value": 127}, "group": "control_change"}, {"time": 871, "annotation": {"number": 64, "value": 0}, "group": "control_change"}, {"time": 874, "annotation": {"number": 64, "value": 127}, "group": "control_change"}, {"time": 894, "annotation": {"number": 64, "value": 0}, "group": "control_change"}, {"time": 897, "annotation": {"number": 64, "value": 127}, "group": "control_change"}, {"time": 919, "annotation": {"number": 64, "value": 0}, "group": "control_change"}, {"time": 921, "annotation": {"number": 64, "value": 127}, "group": "control_change"}, {"time": 943, "annotation": {"number": 64, "value": 0}, "group": "control_change"}, {"time": 946, "annotation": {"number": 64, "value": 127}, "group": "control_change"}, {"time": 967, "annotation": {"number": 64, "value": 0}, "group": "control_change"}, {"time": 969, "annotation": {"number": 64, "value": 127}, "group": "control_change"}, {"time": 991, "annotation": {"number": 64, "value": 0}, "group": "control_change"}, {"time": 994, "annotation": {"number": 64, "value": 127}, "group": "control_change"}, {"time": 1015, "annotation": {"number": 64, "value": 0}, "group": "control_change"}, {"time": 1018, "annotation": {"number": 64, "value": 127}, "group": "control_change"}, {"time": 1039, "annotation": {"number": 64, "value": 0}, "group": "control_change"}, {"time": 1041, "annotation": {"number": 64, "value": 127}, "group": "control_change"}, {"time": 1051, "annotation": {"number": 64, "value": 0}, "group": "control_change"}, {"time": 1053, "annotation": {"number": 64, "value": 127}, "group": "control_change"}, {"time": 1063, "annotation": {"number": 64, "value": 0}, "group": "control_change"}, {"time": 1066, "annotation": {"number": 64, "value": 127}, "group": "control_change"}, {"time": 1087, "annotation": {"number": 64, "value": 0}, "group": "control_change"}, {"time": 1096, "annotation": {"number": 64, "value": 127}, "group": "control_change"}, {"time": 1098, "annotation": {"number": 64, "value": 0}, "group": "control_change"}, {"time": 1101, "annotation": {"number": 64, "value": 127}, "group": "control_change"}, {"time": 1111, "annotation": {"number": 64, "value": 0}, "group": "control_change"}, {"time": 1114, "annotation": {"number": 64, "value": 127}, "group": "control_change"}, {"time": 1134, "annotation": {"number": 64, "value": 0}, "group": "control_change"}, {"time": 1137, "annotation": {"number": 64, "value": 127}, "group": "control_change"}, {"time": 1159, "annotation": {"number": 64, "value": 0}, "group": "control_change"}, {"time": 1161, "annotation": {"number": 64, "value": 127}, "group": "control_change"}, {"time": 1183, "annotation": {"number": 64, "value": 0}, "group": "control_change"}, {"time": 1186, "annotation": {"number": 64, "value": 127}, "group": "control_change"}, {"time": 1207, "annotation": {"number": 64, "value": 0}, "group": "control_change"}, {"time": 1209, "annotation": {"number": 64, "value": 127}, "group": "control_change"}, {"time": 1231, "annotation": {"number": 64, "value": 0}, "group": "control_change"}, {"time": 1234, "annotation": {"number": 64, "value": 127}, "group": "control_change"}, {"time": 1243, "annotation": {"number": 64, "value": 0}, "group": "control_change"}, {"time": 1246, "annotation": {"number": 64, "value": 127}, "group": "control_change"}, {"time": 1255, "annotation": {"number": 64, "value": 0}, "group": "control_change"}, {"time": 1258, "annotation": {"number": 64, "value": 127}, "group": "control_change"}, {"time": 1278, "annotation": {"number": 64, "value": 0}, "group": "control_change"}, {"time": 1281, "annotation": {"number": 64, "value": 127}, "group": "control_change"}, {"time": 1303, "annotation": {"number": 64, "value": 0}, "group": "control_change"}, {"time": 1305, "annotation": {"number": 64, "value": 127}, "group": "control_change"}, {"time": 1327, "annotation": {"number": 64, "value": 0}, "group": "control_change"}, {"time": 1330, "annotation": {"number": 64, "value": 127}, "group": "control_change"}, {"time": 1351, "annotation": {"number": 64, "value": 0}, "group": "control_change"}, {"time": 1353, "annotation": {"number": 64, "value": 127}, "group": "control_change"}, {"time": 1375, "annotation": {"number": 64, "value": 0}, "group": "control_change"}, {"time": 1378, "annotation": {"number": 64, "value": 127}, "group": "control_change"}, {"time": 1399, "annotation": {"number": 64, "value": 0}, "group": "control_change"}, {"time": 1402, "annotation": {"number": 64, "value": 127}, "group": "control_change"}, {"time": 1423, "annotation": {"number": 64, "value": 0}, "group": "control_change"}, {"time": 1425, "annotation": {"number": 64, "value": 127}, "group": "control_change"}, {"time": 1435, "annotation": {"number": 64, "value": 0}, "group": "control_change"}, {"time": 1437, "annotation": {"number": 64, "value": 127}, "group": "control_change"}, {"time": 1447, "annotation": {"number": 64, "value": 0}, "group": "control_change"}, {"time": 1450, "annotation": {"number": 64, "value": 127}, "group": "control_change"}, {"time": 1472, "annotation": {"number": 64, "value": 0}, "group": "control_change"}, {"time": 1504, "annotation": {"number": 64, "value": 127}, "group": "control_change"}, {"time": 1506, "annotation": {"number": 64, "value": 0}, "group": "control_change"}, {"time": 1522, "annotation": {"number": 64, "value": 127}, "group": "control_change"}, {"time": 1543, "annotation": {"number": 64, "value": 0}, "group": "control_change"}, {"time": 1545, "annotation": {"number": 64, "value": 127}, "group": "control_change"}, {"time": 1566, "annotation": {"number": 64, "value": 0}, "group": "control_change"}, {"time": 1569, "annotation": {"number": 64, "value": 127}, "group": "control_change"}, {"time": 1591, "annotation": {"number": 64, "value": 0}, "group": "control_change"}, {"time": 1593, "annotation": {"number": 64, "value": 127}, "group": "control_change"}, {"time": 1615, "annotation": {"number": 64, "value": 0}, "group": "control_change"}, {"time": 1618, "annotation": {"number": 64, "value": 127}, "group": "control_change"}, {"time": 1639, "annotation": {"number": 64, "value": 0}, "group": "control_change"}, {"time": 1641, "annotation": {"number": 64, "value": 127}, "group": "control_change"}, {"time": 1644, "annotation": {"number": 64, "value": 0}, "group": "control_change"}, {"time": 1645, "annotation": {"number": 64, "value": 127}, "group": "control_change"}, {"time": 1663, "annotation": {"number": 64, "value": 0}, "group": "control_change"}, {"time": 1665, "annotation": {"number": 64, "value": 127}, "group": "control_change"}, {"time": 1686, "annotation": {"number": 64, "value": 0}, "group": "control_change"}, {"time": 1688, "annotation": {"number": 64, "value": 127}, "group": "control_change"}, {"time": 1711, "annotation": {"number": 64, "value": 0}, "group": "control_change"}, {"time": 1713, "annotation": {"number": 64, "value": 127}, "group": "control_change"}, {"time": 1735, "annotation": {"number": 64, "value": 0}, "group": "control_change"}, {"time": 1737, "annotation": {"number": 64, "value": 127}, "group": "control_change"}, {"time": 1758, "annotation": {"number": 64, "value": 0}, "group": "control_change"}, {"time": 1761, "annotation": {"number": 64, "value": 127}, "group": "control_change"}, {"time": 1782, "annotation": {"number": 64, "value": 0}, "group": "control_change"}, {"time": 1785, "annotation": {"number": 64, "value": 127}, "group": "control_change"}, {"time": 1807, "annotation": {"number": 64, "value": 0}, "group": "control_change"}, {"time": 1809, "annotation": {"number": 64, "value": 127}, "group": "control_change"}, {"time": 1830, "annotation": {"number": 64, "value": 0}, "group": "control_change"}, {"time": 1833, "annotation": {"number": 64, "value": 127}, "group": "control_change"}, {"time": 1855, "annotation": {"number": 64, "value": 0}, "group": "control_change"}, {"time": 1857, "annotation": {"number": 64, "value": 127}, "group": "control_change"}, {"time": 1878, "annotation": {"number": 64, "value": 0}, "group": "control_change"}, {"time": 1881, "annotation": {"number": 64, "value": 127}, "group": "control_change"}, {"time": 1902, "annotation": {"number": 64, "value": 0}, "group": "control_change"}, {"time": 1906, "annotation": {"number": 64, "value": 127}, "group": "control_change"}, {"time": 1927, "annotation": {"number": 64, "value": 0}, "group": "control_change"}, {"time": 1929, "annotation": {"number": 64, "value": 127}, "group": "control_change"}, {"time": 1951, "annotation": {"number": 64, "value": 0}, "group": "control_change"}, {"time": 1953, "annotation": {"number": 64, "value": 127}, "group": "control_change"}, {"time": 1974, "annotation": {"number": 64, "value": 0}, "group": "control_change"}, {"time": 1976, "annotation": {"number": 64, "value": 127}, "group": "control_change"}, {"time": 1999, "annotation": {"number": 64, "value": 0}, "group": "control_change"}, {"time": 2001, "annotation": {"number": 64, "value": 127}, "group": "control_change"}, {"time": 2023, "annotation": {"number": 64, "value": 0}, "group": "control_change"}, {"time": 2026, "annotation": {"number": 64, "value": 127}, "group": "control_change"}, {"time": 2046, "annotation": {"number": 64, "value": 0}, "group": "control_change"}, {"time": 2049, "annotation": {"number": 64, "value": 127}, "group": "control_change"}, {"time": 2070, "annotation": {"number": 64, "value": 0}, "group": "control_change"}, {"time": 2073, "annotation": {"number": 64, "value": 127}, "group": "control_change"}, {"time": 2095, "annotation": {"number": 64, "value": 0}, "group": "control_change"}, {"time": 2097, "annotation": {"number": 64, "value": 127}, "group": "control_change"}, {"time": 2119, "annotation": {"number": 64, "value": 0}, "group": "control_change"}, {"time": 2122, "annotation": {"number": 64, "value": 127}, "group": "control_change"}, {"time": 2143, "annotation": {"number": 64, "value": 0}, "group": "control_change"}, {"time": 2145, "annotation": {"number": 64, "value": 127}, "group": "control_change"}, {"time": 2167, "annotation": {"number": 64, "value": 0}, "group": "control_change"}, {"time": 2169, "annotation": {"number": 64, "value": 127}, "group": "control_change"}, {"time": 2191, "annotation": {"number": 64, "value": 0}, "group": "control_change"}, {"time": 2193, "annotation": {"number": 64, "value": 127}, "group": "control_change"}, {"time": 2215, "annotation": {"number": 64, "value": 0}, "group": "control_change"}, {"time": 2218, "annotation": {"number": 64, "value": 127}, "group": "control_change"}, {"time": 2238, "annotation": {"number": 64, "value": 0}, "group": "control_change"}, {"time": 2241, "annotation": {"number": 64, "value": 127}, "group": "control_change"}, {"time": 2263, "annotation": {"number": 64, "value": 0}, "group": "control_change"}, {"time": 2292, "annotation": {"number": 64, "value": 127}, "group": "control_change"}, {"time": 2295, "annotation": {"number": 64, "value": 0}, "group": "control_change"}, {"time": 2295, "annotation": {"number": 64, "value": 127}, "group": "control_change"}, {"time": 2312, "annotation": {"number": 64, "value": 0}, "group": "control_change"}, {"time": 2315, "annotation": {"number": 64, "value": 127}, "group": "control_change"}, {"time": 2335, "annotation": {"number": 64, "value": 0}, "group": "control_change"}, {"time": 2338, "annotation": {"number": 64, "value": 127}, "group": "control_change"}, {"time": 2359, "annotation": {"number": 64, "value": 0}, "group": "control_change"}, {"time": 2362, "annotation": {"number": 64, "value": 127}, "group": "control_change"}, {"time": 2383, "annotation": {"number": 64, "value": 0}, "group": "control_change"}, {"time": 2386, "annotation": {"number": 64, "value": 127}, "group": "control_change"}, {"time": 2407, "annotation": {"number": 64, "value": 0}, "group": "control_change"}, {"time": 2410, "annotation": {"number": 64, "value": 127}, "group": "control_change"}, {"time": 2432, "annotation": {"number": 64, "value": 0}, "group": "control_change"}, {"time": 2434, "annotation": {"number": 64, "value": 127}, "group": "control_change"}, {"time": 2455, "annotation": {"number": 64, "value": 0}, "group": "control_change"}, {"time": 2457, "annotation": {"number": 64, "value": 127}, "group": "control_change"}, {"time": 2480, "annotation": {"number": 64, "value": 0}, "group": "control_change"}, {"time": 2482, "annotation": {"number": 64, "value": 127}, "group": "control_change"}, {"time": 2503, "annotation": {"number": 64, "value": 0}, "group": "control_change"}, {"time": 2506, "annotation": {"number": 64, "value": 127}, "group": "control_change"}, {"time": 2527, "annotation": {"number": 64, "value": 0}, "group": "control_change"}, {"time": 2530, "annotation": {"number": 64, "value": 127}, "group": "control_change"}, {"time": 2551, "annotation": {"number": 64, "value": 0}, "group": "control_change"}, {"time": 2553, "annotation": {"number": 64, "value": 127}, "group": "control_change"}, {"time": 2575, "annotation": {"number": 64, "value": 0}, "group": "control_change"}, {"time": 2578, "annotation": {"number": 64, "value": 127}, "group": "control_change"}, {"time": 2600, "annotation": {"number": 64, "value": 0}, "group": "control_change"}, {"time": 2602, "annotation": {"number": 64, "value": 127}, "group": "control_change"}, {"time": 2623, "annotation": {"number": 64, "value": 0}, "group": "control_change"}, {"time": 2626, "annotation": {"number": 64, "value": 127}, "group": "control_change"}, {"time": 2649, "annotation": {"number": 64, "value": 0}, "group": "control_change"}, {"time": 2680, "annotation": {"number": 64, "value": 127}, "group": "control_change"}, {"time": 2682, "annotation": {"number": 64, "value": 0}, "group": "control_change"}, {"time": 2685, "annotation": {"number": 64, "value": 127}, "group": "control_change"}, {"time": 2695, "annotation": {"number": 64, "value": 0}, "group": "control_change"}, {"time": 2698, "annotation": {"number": 64, "value": 127}, "group": "control_change"}, {"time": 2718, "annotation": {"number": 64, "value": 0}, "group": "control_change"}, {"time": 2721, "annotation": {"number": 64, "value": 127}, "group": "control_change"}, {"time": 2743, "annotation": {"number": 64, "value": 0}, "group": "control_change"}, {"time": 2745, "annotation": {"number": 64, "value": 127}, "group": "control_change"}, {"time": 2767, "annotation": {"number": 64, "value": 0}, "group": "control_change"}, {"time": 2770, "annotation": {"number": 64, "value": 127}, "group": "control_change"}, {"time": 2791, "annotation": {"number": 64, "value": 0}, "group": "control_change"}, {"time": 2793, "annotation": {"number": 64, "value": 127}, "group": "control_change"}, {"time": 2815, "annotation": {"number": 64, "value": 0}, "group": "control_change"}, {"time": 2818, "annotation": {"number": 64, "value": 127}, "group": "control_change"}, {"time": 2827, "annotation": {"number": 64, "value": 0}, "group": "control_change"}, {"time": 2830, "annotation": {"number": 64, "value": 127}, "group": "control_change"}, {"time": 2839, "annotation": {"number": 64, "value": 0}, "group": "control_change"}, {"time": 2842, "annotation": {"number": 64, "value": 127}, "group": "control_change"}, {"time": 2862, "annotation": {"number": 64, "value": 0}, "group": "control_change"}, {"time": 2865, "annotation": {"number": 64, "value": 127}, "group": "control_change"}, {"time": 2887, "annotation": {"number": 64, "value": 0}, "group": "control_change"}, {"time": 2889, "annotation": {"number": 64, "value": 127}, "group": "control_change"}, {"time": 2911, "annotation": {"number": 64, "value": 0}, "group": "control_change"}, {"time": 2914, "annotation": {"number": 64, "value": 127}, "group": "control_change"}, {"time": 2935, "annotation": {"number": 64, "value": 0}, "group": "control_change"}, {"time": 2937, "annotation": {"number": 64, "value": 127}, "group": "control_change"}, {"time": 2959, "annotation": {"number": 64, "value": 0}, "group": "control_change"}, {"time": 2962, "annotation": {"number": 64, "value": 127}, "group": "control_change"}, {"time": 2983, "annotation": {"number": 64, "value": 0}, "group": "control_change"}, {"time": 2986, "annotation": {"number": 64, "value": 127}, "group": "control_change"}, {"time": 3007, "annotation": {"number": 64, "value": 0}, "group": "control_change"}, {"time": 3009, "annotation": {"number": 64, "value": 127}, "group": "control_change"}, {"time": 3019, "annotation": {"number": 64, "value": 0}, "group": "control_change"}, {"time": 3021, "annotation": {"number": 64, "value": 127}, "group": "control_change"}, {"time": 3031, "annotation": {"number": 64, "value": 0}, "group": "control_change"}, {"time": 3034, "annotation": {"number": 64, "value": 127}, "group": "control_change"}, {"time": 3056, "annotation": {"number": 64, "value": 0}, "group": "control_change"}, {"time": 3082, "annotation": {"number": 64, "value": 127}, "group": "control_change"}, {"time": 3103, "annotation": {"number": 64, "value": 0}, "group": "control_change"}, {"time": 3105, "annotation": {"number": 64, "value": 127}, "group": "control_change"}, {"time": 3126, "annotation": {"number": 64, "value": 0}, "group": "control_change"}, {"time": 3129, "annotation": {"number": 64, "value": 127}, "group": "control_change"}, {"time": 3151, "annotation": {"number": 64, "value": 0}, "group": "control_change"}, {"time": 3153, "annotation": {"number": 64, "value": 127}, "group": "control_change"}, {"time": 3175, "annotation": {"number": 64, "value": 0}, "group": "control_change"}, {"time": 3178, "annotation": {"number": 64, "value": 127}, "group": "control_change"}, {"time": 3199, "annotation": {"number": 64, "value": 0}, "group": "control_change"}, {"time": 3201, "annotation": {"number": 64, "value": 127}, "group": "control_change"}, {"time": 3204, "annotation": {"number": 64, "value": 0}, "group": "control_change"}, {"time": 3205, "annotation": {"number": 64, "value": 127}, "group": "control_change"}, {"time": 3223, "annotation": {"number": 64, "value": 0}, "group": "control_change"}, {"time": 3225, "annotation": {"number": 64, "value": 127}, "group": "control_change"}, {"time": 3246, "annotation": {"number": 64, "value": 0}, "group": "control_change"}, {"time": 3248, "annotation": {"number": 64, "value": 127}, "group": "control_change"}, {"time": 3271, "annotation": {"number": 64, "value": 0}, "group": "control_change"}, {"time": 3273, "annotation": {"number": 64, "value": 127}, "group": "control_change"}, {"time": 3295, "annotation": {"number": 64, "value": 0}, "group": "control_change"}, {"time": 3297, "annotation": {"number": 64, "value": 127}, "group": "control_change"}, {"time": 3318, "annotation": {"number": 64, "value": 0}, "group": "control_change"}, {"time": 3321, "annotation": {"number": 64, "value": 127}, "group": "control_change"}, {"time": 3342, "annotation": {"number": 64, "value": 0}, "group": "control_change"}, {"time": 3345, "annotation": {"number": 64, "value": 127}, "group": "control_change"}, {"time": 3367, "annotation": {"number": 64, "value": 0}, "group": "control_change"}, {"time": 3369, "annotation": {"number": 64, "value": 127}, "group": "control_change"}, {"time": 3390, "annotation": {"number": 64, "value": 0}, "group": "control_change"}, {"time": 3393, "annotation": {"number": 64, "value": 127}, "group": "control_change"}, {"time": 3415, "annotation": {"number": 64, "value": 0}, "group": "control_change"}, {"time": 3417, "annotation": {"number": 64, "value": 127}, "group": "control_change"}, {"time": 3438, "annotation": {"number": 64, "value": 0}, "group": "control_change"}, {"time": 3441, "annotation": {"number": 64, "value": 127}, "group": "control_change"}, {"time": 3462, "annotation": {"number": 64, "value": 0}, "group": "control_change"}, {"time": 3466, "annotation": {"number": 64, "value": 127}, "group": "control_change"}, {"time": 3487, "annotation": {"number": 64, "value": 0}, "group": "control_change"}, {"time": 3489, "annotation": {"number": 64, "value": 127}, "group": "control_change"}, {"time": 3511, "annotation": {"number": 64, "value": 0}, "group": "control_change"}, {"time": 3513, "annotation": {"number": 64, "value": 127}, "group": "control_change"}, {"time": 3534, "annotation": {"number": 64, "value": 0}, "group": "control_change"}, {"time": 3536, "annotation": {"number": 64, "value": 127}, "group": "control_change"}, {"time": 3559, "annotation": {"number": 64, "value": 0}, "group": "control_change"}, {"time": 3561, "annotation": {"number": 64, "value": 127}, "group": "control_change"}, {"time": 3583, "annotation": {"number": 64, "value": 0}, "group": "control_change"}, {"time": 3586, "annotation": {"number": 64, "value": 127}, "group": "control_change"}, {"time": 3606, "annotation": {"number": 64, "value": 0}, "group": "control_change"}, {"time": 3609, "annotation": {"number": 64, "value": 127}, "group": "control_change"}, {"time": 3630, "annotation": {"number": 64, "value": 0}, "group": "control_change"}, {"time": 3633, "annotation": {"number": 64, "value": 127}, "group": "control_change"}, {"time": 3655, "annotation": {"number": 64, "value": 0}, "group": "control_change"}, {"time": 3657, "annotation": {"number": 64, "value": 127}, "group": "control_change"}, {"time": 3679, "annotation": {"number": 64, "value": 0}, "group": "control_change"}, {"time": 3682, "annotation": {"number": 64, "value": 127}, "group": "control_change"}, {"time": 3703, "annotation": {"number": 64, "value": 0}, "group": "control_change"}, {"time": 3705, "annotation": {"number": 64, "value": 127}, "group": "control_change"}, {"time": 3727, "annotation": {"number": 64, "value": 0}, "group": "control_change"}, {"time": 3729, "annotation": {"number": 64, "value": 127}, "group": "control_change"}, {"time": 3751, "annotation": {"number": 64, "value": 0}, "group": "control_change"}, {"time": 3753, "annotation": {"number": 64, "value": 127}, "group": "control_change"}, {"time": 3775, "annotation": {"number": 64, "value": 0}, "group": "control_change"}, {"time": 3778, "annotation": {"number": 64, "value": 127}, "group": "control_change"}, {"time": 3798, "annotation": {"number": 64, "value": 0}, "group": "control_change"}, {"time": 3801, "annotation": {"number": 64, "value": 127}, "group": "control_change"}, {"time": 3823, "annotation": {"number": 64, "value": 0}, "group": "control_change"}, {"time": 3841, "annotation": {"number": 64, "value": 127}, "group": "control_change"}, {"time": 3843, "annotation": {"number": 64, "value": 0}, "group": "control_change"}, {"time": 3853, "annotation": {"number": 64, "value": 127}, "group": "control_change"}, {"time": 3870, "annotation": {"number": 64, "value": 0}, "group": "control_change"}, {"time": 3873, "annotation": {"number": 64, "value": 127}, "group": "control_change"}, {"time": 3894, "annotation": {"number": 64, "value": 0}, "group": "control_change"}, {"time": 3897, "annotation": {"number": 64, "value": 127}, "group": "control_change"}, {"time": 3918, "annotation": {"number": 64, "value": 0}, "group": "control_change"}, {"time": 3920, "annotation": {"number": 64, "value": 127}, "group": "control_change"}, {"time": 3943, "annotation": {"number": 64, "value": 0}, "group": "control_change"}, {"time": 3945, "annotation": {"number": 64, "value": 127}, "group": "control_change"}, {"time": 3967, "annotation": {"number": 64, "value": 0}, "group": "control_change"}, {"time": 3969, "annotation": {"number": 64, "value": 127}, "group": "control_change"}, {"time": 3991, "annotation": {"number": 64, "value": 0}, "group": "control_change"}, {"time": 3993, "annotation": {"number": 64, "value": 127}, "group": "control_change"}, {"time": 4014, "annotation": {"number": 64, "value": 0}, "group": "control_change"}, {"time": 4017, "annotation": {"number": 64, "value": 127}, "group": "control_change"}, {"time": 4038, "annotation": {"number": 64, "value": 0}, "group": "control_change"}, {"time": 4041, "annotation": {"number": 64, "value": 127}, "group": "control_change"}, {"time": 4063, "annotation": {"number": 64, "value": 0}, "group": "control_change"}, {"time": 4065, "annotation": {"number": 64, "value": 127}, "group": "control_change"}, {"time": 4086, "annotation": {"number": 64, "value": 0}, "group": "control_change"}, {"time": 4089, "annotation": {"number": 64, "value": 127}, "group": "control_change"}, {"time": 4110, "annotation": {"number": 64, "value": 0}, "group": "control_change"}, {"time": 4112, "annotation": {"number": 64, "value": 127}, "group": "control_change"}, {"time": 4135, "annotation": {"number": 64, "value": 0}, "group": "control_change"}, {"time": 4137, "annotation": {"number": 64, "value": 127}, "group": "control_change"}, {"time": 4159, "annotation": {"number": 64, "value": 0}, "group": "control_change"}, {"time": 4161, "annotation": {"number": 64, "value": 127}, "group": "control_change"}, {"time": 4183, "annotation": {"number": 64, "value": 0}, "group": "control_change"}, {"time": 4185, "annotation": {"number": 64, "value": 127}, "group": "control_change"}, {"time": 4206, "annotation": {"number": 64, "value": 0}, "group": "control_change"}, {"time": 4279, "annotation": {"number": 64, "value": 127}, "group": "control_change"}, {"time": 4323, "annotation": {"number": 64, "value": 0}, "group": "control_change"}, {"time": 4328, "annotation": {"number": 64, "value": 127}, "group": "control_change"}, {"time": 4399, "annotation": {"number": 64, "value": 0}, "group": "control_change"}, {"time": 4455, "annotation": {"number": 64, "value": 127}, "group": "control_change"}, {"time": 4544, "annotation": {"number": 64, "value": 0}, "group": "control_change"}, {"time": 4565, "annotation": {"number": 64, "value": 127}, "group": "control_change"}, {"time": 4622, "annotation": {"number": 64, "value": 0}, "group": "control_change"}]}]}