{"metadata": {"schema_version": "0.2", "title": "None", "source_filename": "488.mid", "source_format": "midi"}, "resolution": 12, "tempos": [{"time": 0, "qpm": 70.00007000007}], "time_signatures": [{"time": 0, "numerator": 1, "denominator": 4}], "tracks": [{"program": 4, "is_drum": false, "name": "MELODY", "notes": [{"time": 403, "pitch": 66, "duration": 5, "velocity": 99}, {"time": 409, "pitch": 66, "duration": 4, "velocity": 81}, {"time": 415, "pitch": 66, "duration": 4, "velocity": 79}, {"time": 421, "pitch": 70, "duration": 5, "velocity": 92}, {"time": 427, "pitch": 68, "duration": 5, "velocity": 93}, {"time": 433, "pitch": 66, "duration": 6, "velocity": 81}, {"time": 439, "pitch": 65, "duration": 6, "velocity": 74}, {"time": 445, "pitch": 65, "duration": 1, "velocity": 70}, {"time": 451, "pitch": 63, "duration": 37, "velocity": 97}, {"time": 499, "pitch": 68, "duration": 4, "velocity": 93}, {"time": 505, "pitch": 63, "duration": 4, "velocity": 93}, {"time": 511, "pitch": 68, "duration": 3, "velocity": 99}, {"time": 517, "pitch": 71, "duration": 4, "velocity": 102}, {"time": 523, "pitch": 70, "duration": 5, "velocity": 102}, {"time": 529, "pitch": 68, "duration": 2, "velocity": 102}, {"time": 535, "pitch": 66, "duration": 3, "velocity": 92}, {"time": 541, "pitch": 66, "duration": 3, "velocity": 95}, {"time": 547, "pitch": 65, "duration": 3, "velocity": 100}, {"time": 550, "pitch": 63, "duration": 3, "velocity": 73}, {"time": 553, "pitch": 61, "duration": 27, "velocity": 95}, {"time": 595, "pitch": 70, "duration": 2, "velocity": 97}, {"time": 601, "pitch": 70, "duration": 3, "velocity": 100}, {"time": 607, "pitch": 70, "duration": 3, "velocity": 99}, {"time": 613, "pitch": 73, "duration": 3, "velocity": 99}, {"time": 619, "pitch": 71, "duration": 3, "velocity": 102}, {"time": 625, "pitch": 70, "duration": 2, "velocity": 100}, {"time": 631, "pitch": 70, "duration": 3, "velocity": 96}, {"time": 637, "pitch": 69, "duration": 3, "velocity": 96}, {"time": 643, "pitch": 68, "duration": 6, "velocity": 90}, {"time": 679, "pitch": 63, "duration": 3, "velocity": 89}, {"time": 682, "pitch": 66, "duration": 2, "velocity": 78}, {"time": 685, "pitch": 66, "duration": 3, "velocity": 89}, {"time": 691, "pitch": 65, "duration": 10, "velocity": 90}, {"time": 703, "pitch": 63, "duration": 20, "velocity": 71}, {"time": 727, "pitch": 63, "duration": 11, "velocity": 88}, {"time": 739, "pitch": 58, "duration": 29, "velocity": 92}, {"time": 787, "pitch": 66, "duration": 5, "velocity": 102}, {"time": 793, "pitch": 61, "duration": 6, "velocity": 86}, {"time": 799, "pitch": 66, "duration": 5, "velocity": 97}, {"time": 805, "pitch": 70, "duration": 5, "velocity": 117}, {"time": 811, "pitch": 68, "duration": 6, "velocity": 107}, {"time": 817, "pitch": 66, "duration": 4, "velocity": 92}, {"time": 823, "pitch": 65, "duration": 7, "velocity": 107}, {"time": 829, "pitch": 65, "duration": 1, "velocity": 112}, {"time": 835, "pitch": 63, "duration": 21, "velocity": 100}, {"time": 883, "pitch": 68, "duration": 3, "velocity": 122}, {"time": 889, "pitch": 68, "duration": 3, "velocity": 107}, {"time": 895, "pitch": 68, "duration": 4, "velocity": 112}, {"time": 901, "pitch": 71, "duration": 4, "velocity": 127}, {"time": 907, "pitch": 70, "duration": 5, "velocity": 122}, {"time": 913, "pitch": 68, "duration": 3, "velocity": 117}, {"time": 919, "pitch": 66, "duration": 3, "velocity": 102}, {"time": 925, "pitch": 66, "duration": 3, "velocity": 99}, {"time": 931, "pitch": 65, "duration": 5, "velocity": 100}, {"time": 934, "pitch": 63, "duration": 2, "velocity": 95}, {"time": 937, "pitch": 61, "duration": 14, "velocity": 86}, {"time": 979, "pitch": 70, "duration": 2, "velocity": 112}, {"time": 985, "pitch": 70, "duration": 3, "velocity": 102}, {"time": 991, "pitch": 70, "duration": 3, "velocity": 112}, {"time": 997, "pitch": 73, "duration": 3, "velocity": 122}, {"time": 1003, "pitch": 71, "duration": 3, "velocity": 112}, {"time": 1009, "pitch": 70, "duration": 5, "velocity": 122}, {"time": 1015, "pitch": 70, "duration": 3, "velocity": 117}, {"time": 1021, "pitch": 69, "duration": 2, "velocity": 112}, {"time": 1027, "pitch": 68, "duration": 19, "velocity": 112}, {"time": 1063, "pitch": 66, "duration": 1, "velocity": 92}, {"time": 1066, "pitch": 66, "duration": 1, "velocity": 85}, {"time": 1069, "pitch": 66, "duration": 2, "velocity": 97}, {"time": 1075, "pitch": 65, "duration": 6, "velocity": 117}, {"time": 1081, "pitch": 61, "duration": 3, "velocity": 75}, {"time": 1084, "pitch": 63, "duration": 25, "velocity": 85}, {"time": 1111, "pitch": 66, "duration": 11, "velocity": 93}, {"time": 1123, "pitch": 63, "duration": 32, "velocity": 96}, {"time": 1159, "pitch": 70, "duration": 3, "velocity": 107}, {"time": 1162, "pitch": 71, "duration": 2, "velocity": 95}, {"time": 1165, "pitch": 73, "duration": 4, "velocity": 112}, {"time": 1171, "pitch": 75, "duration": 15, "velocity": 127}, {"time": 1189, "pitch": 78, "duration": 4, "velocity": 127}, {"time": 1195, "pitch": 77, "duration": 10, "velocity": 127}, {"time": 1213, "pitch": 73, "duration": 5, "velocity": 127}, {"time": 1219, "pitch": 70, "duration": 7, "velocity": 112}, {"time": 1225, "pitch": 70, "duration": 1, "velocity": 107}, {"time": 1231, "pitch": 70, "duration": 3, "velocity": 102}, {"time": 1237, "pitch": 77, "duration": 6, "velocity": 127}, {"time": 1243, "pitch": 75, "duration": 13, "velocity": 127}, {"time": 1261, "pitch": 68, "duration": 2, "velocity": 122}, {"time": 1264, "pitch": 70, "duration": 2, "velocity": 97}, {"time": 1267, "pitch": 71, "duration": 13, "velocity": 117}, {"time": 1285, "pitch": 75, "duration": 3, "velocity": 127}, {"time": 1291, "pitch": 73, "duration": 4, "velocity": 122}, {"time": 1297, "pitch": 71, "duration": 7, "velocity": 112}, {"time": 1309, "pitch": 70, "duration": 3, "velocity": 127}, {"time": 1312, "pitch": 68, "duration": 3, "velocity": 102}, {"time": 1315, "pitch": 70, "duration": 3, "velocity": 127}, {"time": 1318, "pitch": 71, "duration": 2, "velocity": 112}, {"time": 1321, "pitch": 70, "duration": 21, "velocity": 99}, {"time": 1351, "pitch": 70, "duration": 2, "velocity": 112}, {"time": 1354, "pitch": 71, "duration": 2, "velocity": 112}, {"time": 1357, "pitch": 73, "duration": 4, "velocity": 117}, {"time": 1363, "pitch": 75, "duration": 12, "velocity": 127}, {"time": 1381, "pitch": 78, "duration": 4, "velocity": 127}, {"time": 1387, "pitch": 77, "duration": 13, "velocity": 127}, {"time": 1405, "pitch": 73, "duration": 3, "velocity": 122}, {"time": 1411, "pitch": 70, "duration": 3, "velocity": 112}, {"time": 1417, "pitch": 70, "duration": 4, "velocity": 102}, {"time": 1423, "pitch": 70, "duration": 3, "velocity": 102}, {"time": 1429, "pitch": 77, "duration": 5, "velocity": 127}, {"time": 1435, "pitch": 75, "duration": 8, "velocity": 127}, {"time": 1453, "pitch": 68, "duration": 2, "velocity": 102}, {"time": 1456, "pitch": 70, "duration": 2, "velocity": 100}, {"time": 1459, "pitch": 71, "duration": 12, "velocity": 117}, {"time": 1477, "pitch": 75, "duration": 5, "velocity": 127}, {"time": 1483, "pitch": 73, "duration": 7, "velocity": 127}, {"time": 1489, "pitch": 71, "duration": 7, "velocity": 122}, {"time": 1501, "pitch": 70, "duration": 3, "velocity": 122}, {"time": 1504, "pitch": 68, "duration": 2, "velocity": 99}, {"time": 1507, "pitch": 70, "duration": 7, "velocity": 117}, {"time": 1513, "pitch": 70, "duration": 1, "velocity": 127}, {"time": 1543, "pitch": 70, "duration": 2, "velocity": 122}, {"time": 1546, "pitch": 71, "duration": 2, "velocity": 127}, {"time": 1549, "pitch": 73, "duration": 3, "velocity": 122}, {"time": 1555, "pitch": 75, "duration": 10, "velocity": 127}, {"time": 1573, "pitch": 71, "duration": 3, "velocity": 127}, {"time": 1576, "pitch": 70, "duration": 2, "velocity": 102}, {"time": 1579, "pitch": 68, "duration": 10, "velocity": 112}, {"time": 1603, "pitch": 73, "duration": 4, "velocity": 127}, {"time": 1609, "pitch": 73, "duration": 4, "velocity": 102}, {"time": 1615, "pitch": 73, "duration": 4, "velocity": 112}, {"time": 1621, "pitch": 77, "duration": 5, "velocity": 127}, {"time": 1627, "pitch": 75, "duration": 15, "velocity": 127}, {"time": 1645, "pitch": 68, "duration": 2, "velocity": 102}, {"time": 1648, "pitch": 70, "duration": 2, "velocity": 97}, {"time": 1651, "pitch": 71, "duration": 10, "velocity": 127}, {"time": 1669, "pitch": 75, "duration": 3, "velocity": 127}, {"time": 1675, "pitch": 73, "duration": 4, "velocity": 127}, {"time": 1681, "pitch": 71, "duration": 3, "velocity": 127}, {"time": 1693, "pitch": 70, "duration": 3, "velocity": 127}, {"time": 1696, "pitch": 68, "duration": 2, "velocity": 117}, {"time": 1699, "pitch": 66, "duration": 26, "velocity": 112}, {"time": 2179, "pitch": 66, "duration": 5, "velocity": 102}, {"time": 2185, "pitch": 61, "duration": 6, "velocity": 86}, {"time": 2191, "pitch": 66, "duration": 5, "velocity": 97}, {"time": 2197, "pitch": 70, "duration": 5, "velocity": 117}, {"time": 2203, "pitch": 68, "duration": 6, "velocity": 107}, {"time": 2209, "pitch": 66, "duration": 4, "velocity": 92}, {"time": 2215, "pitch": 65, "duration": 7, "velocity": 107}, {"time": 2221, "pitch": 65, "duration": 1, "velocity": 112}, {"time": 2227, "pitch": 63, "duration": 21, "velocity": 100}, {"time": 2275, "pitch": 68, "duration": 3, "velocity": 122}, {"time": 2281, "pitch": 68, "duration": 3, "velocity": 107}, {"time": 2287, "pitch": 68, "duration": 4, "velocity": 112}, {"time": 2293, "pitch": 71, "duration": 4, "velocity": 127}, {"time": 2299, "pitch": 70, "duration": 5, "velocity": 122}, {"time": 2305, "pitch": 68, "duration": 3, "velocity": 117}, {"time": 2311, "pitch": 66, "duration": 3, "velocity": 102}, {"time": 2317, "pitch": 66, "duration": 3, "velocity": 99}, {"time": 2323, "pitch": 65, "duration": 5, "velocity": 100}, {"time": 2326, "pitch": 63, "duration": 2, "velocity": 95}, {"time": 2329, "pitch": 61, "duration": 14, "velocity": 86}, {"time": 2371, "pitch": 70, "duration": 2, "velocity": 112}, {"time": 2377, "pitch": 70, "duration": 3, "velocity": 102}, {"time": 2383, "pitch": 70, "duration": 3, "velocity": 112}, {"time": 2389, "pitch": 73, "duration": 3, "velocity": 122}, {"time": 2395, "pitch": 71, "duration": 3, "velocity": 112}, {"time": 2401, "pitch": 70, "duration": 5, "velocity": 122}, {"time": 2407, "pitch": 70, "duration": 3, "velocity": 117}, {"time": 2413, "pitch": 69, "duration": 2, "velocity": 112}, {"time": 2419, "pitch": 68, "duration": 19, "velocity": 112}, {"time": 2455, "pitch": 66, "duration": 1, "velocity": 92}, {"time": 2458, "pitch": 66, "duration": 1, "velocity": 85}, {"time": 2461, "pitch": 66, "duration": 2, "velocity": 97}, {"time": 2467, "pitch": 65, "duration": 6, "velocity": 117}, {"time": 2473, "pitch": 61, "duration": 3, "velocity": 75}, {"time": 2476, "pitch": 63, "duration": 25, "velocity": 85}, {"time": 2503, "pitch": 66, "duration": 11, "velocity": 93}, {"time": 2515, "pitch": 63, "duration": 32, "velocity": 96}, {"time": 2551, "pitch": 70, "duration": 3, "velocity": 107}, {"time": 2554, "pitch": 71, "duration": 2, "velocity": 95}, {"time": 2557, "pitch": 73, "duration": 4, "velocity": 112}, {"time": 2563, "pitch": 75, "duration": 15, "velocity": 127}, {"time": 2581, "pitch": 78, "duration": 4, "velocity": 127}, {"time": 2587, "pitch": 77, "duration": 10, "velocity": 127}, {"time": 2605, "pitch": 73, "duration": 5, "velocity": 127}, {"time": 2611, "pitch": 70, "duration": 7, "velocity": 112}, {"time": 2617, "pitch": 70, "duration": 1, "velocity": 107}, {"time": 2623, "pitch": 70, "duration": 3, "velocity": 102}, {"time": 2629, "pitch": 77, "duration": 6, "velocity": 127}, {"time": 2635, "pitch": 75, "duration": 13, "velocity": 127}, {"time": 2653, "pitch": 68, "duration": 2, "velocity": 122}, {"time": 2656, "pitch": 70, "duration": 2, "velocity": 97}, {"time": 2659, "pitch": 71, "duration": 13, "velocity": 117}, {"time": 2677, "pitch": 75, "duration": 3, "velocity": 127}, {"time": 2683, "pitch": 73, "duration": 4, "velocity": 122}, {"time": 2689, "pitch": 71, "duration": 7, "velocity": 112}, {"time": 2701, "pitch": 70, "duration": 3, "velocity": 127}, {"time": 2704, "pitch": 68, "duration": 3, "velocity": 102}, {"time": 2707, "pitch": 70, "duration": 3, "velocity": 127}, {"time": 2710, "pitch": 71, "duration": 2, "velocity": 112}, {"time": 2713, "pitch": 70, "duration": 21, "velocity": 99}, {"time": 2743, "pitch": 70, "duration": 2, "velocity": 112}, {"time": 2746, "pitch": 71, "duration": 2, "velocity": 112}, {"time": 2749, "pitch": 73, "duration": 4, "velocity": 117}, {"time": 2755, "pitch": 75, "duration": 12, "velocity": 127}, {"time": 2773, "pitch": 78, "duration": 4, "velocity": 127}, {"time": 2779, "pitch": 77, "duration": 13, "velocity": 127}, {"time": 2797, "pitch": 73, "duration": 3, "velocity": 122}, {"time": 2803, "pitch": 70, "duration": 3, "velocity": 112}, {"time": 2809, "pitch": 70, "duration": 4, "velocity": 102}, {"time": 2815, "pitch": 70, "duration": 3, "velocity": 102}, {"time": 2821, "pitch": 77, "duration": 5, "velocity": 127}, {"time": 2827, "pitch": 75, "duration": 8, "velocity": 127}, {"time": 2845, "pitch": 68, "duration": 2, "velocity": 102}, {"time": 2848, "pitch": 70, "duration": 2, "velocity": 100}, {"time": 2851, "pitch": 71, "duration": 12, "velocity": 117}, {"time": 2869, "pitch": 75, "duration": 5, "velocity": 127}, {"time": 2875, "pitch": 73, "duration": 7, "velocity": 127}, {"time": 2881, "pitch": 71, "duration": 7, "velocity": 122}, {"time": 2893, "pitch": 70, "duration": 3, "velocity": 122}, {"time": 2896, "pitch": 68, "duration": 2, "velocity": 99}, {"time": 2899, "pitch": 70, "duration": 7, "velocity": 117}, {"time": 2905, "pitch": 70, "duration": 1, "velocity": 127}, {"time": 2935, "pitch": 70, "duration": 2, "velocity": 122}, {"time": 2938, "pitch": 71, "duration": 2, "velocity": 127}, {"time": 2941, "pitch": 73, "duration": 3, "velocity": 122}, {"time": 2947, "pitch": 75, "duration": 10, "velocity": 127}, {"time": 2965, "pitch": 71, "duration": 3, "velocity": 127}, {"time": 2968, "pitch": 70, "duration": 2, "velocity": 102}, {"time": 2971, "pitch": 68, "duration": 10, "velocity": 112}, {"time": 2995, "pitch": 73, "duration": 4, "velocity": 127}, {"time": 3001, "pitch": 73, "duration": 4, "velocity": 102}, {"time": 3007, "pitch": 73, "duration": 4, "velocity": 112}, {"time": 3013, "pitch": 77, "duration": 5, "velocity": 127}, {"time": 3019, "pitch": 75, "duration": 15, "velocity": 127}, {"time": 3037, "pitch": 68, "duration": 2, "velocity": 102}, {"time": 3040, "pitch": 70, "duration": 2, "velocity": 97}, {"time": 3043, "pitch": 71, "duration": 10, "velocity": 127}, {"time": 3061, "pitch": 75, "duration": 3, "velocity": 127}, {"time": 3067, "pitch": 73, "duration": 4, "velocity": 127}, {"time": 3073, "pitch": 71, "duration": 3, "velocity": 127}, {"time": 3085, "pitch": 70, "duration": 3, "velocity": 127}, {"time": 3088, "pitch": 68, "duration": 2, "velocity": 117}, {"time": 3091, "pitch": 66, "duration": 26, "velocity": 112}]}, {"program": 0, "is_drum": false, "name": "PIANO", "notes": [{"time": 19, "pitch": 42, "duration": 40, "velocity": 45}, {"time": 25, "pitch": 49, "duration": 35, "velocity": 34}, {"time": 31, "pitch": 54, "duration": 33, "velocity": 27}, {"time": 37, "pitch": 61, "duration": 30, "velocity": 31}, {"time": 43, "pitch": 66, "duration": 24, "velocity": 27}, {"time": 43, "pitch": 70, "duration": 24, "velocity": 33}, {"time": 67, "pitch": 44, "duration": 36, "velocity": 40}, {"time": 73, "pitch": 51, "duration": 30, "velocity": 33}, {"time": 79, "pitch": 56, "duration": 23, "velocity": 28}, {"time": 85, "pitch": 58, "duration": 6, "velocity": 28}, {"time": 91, "pitch": 59, "duration": 20, "velocity": 25}, {"time": 91, "pitch": 63, "duration": 16, "velocity": 24}, {"time": 115, "pitch": 47, "duration": 32, "velocity": 46}, {"time": 115, "pitch": 59, "duration": 7, "velocity": 31}, {"time": 115, "pitch": 63, "duration": 8, "velocity": 33}, {"time": 115, "pitch": 66, "duration": 8, "velocity": 33}, {"time": 121, "pitch": 54, "duration": 24, "velocity": 33}, {"time": 127, "pitch": 59, "duration": 29, "velocity": 35}, {"time": 133, "pitch": 63, "duration": 24, "velocity": 27}, {"time": 139, "pitch": 66, "duration": 11, "velocity": 31}, {"time": 163, "pitch": 42, "duration": 47, "velocity": 38}, {"time": 163, "pitch": 61, "duration": 47, "velocity": 31}, {"time": 163, "pitch": 66, "duration": 13, "velocity": 31}, {"time": 163, "pitch": 70, "duration": 13, "velocity": 31}, {"time": 169, "pitch": 49, "duration": 40, "velocity": 31}, {"time": 175, "pitch": 54, "duration": 29, "velocity": 37}, {"time": 181, "pitch": 66, "duration": 29, "velocity": 30}, {"time": 187, "pitch": 70, "duration": 23, "velocity": 34}, {"time": 211, "pitch": 42, "duration": 43, "velocity": 75}, {"time": 217, "pitch": 49, "duration": 7, "velocity": 45}, {"time": 223, "pitch": 54, "duration": 10, "velocity": 76}, {"time": 223, "pitch": 66, "duration": 7, "velocity": 81}, {"time": 223, "pitch": 70, "duration": 22, "velocity": 71}, {"time": 229, "pitch": 49, "duration": 29, "velocity": 43}, {"time": 232, "pitch": 61, "duration": 14, "velocity": 85}, {"time": 232, "pitch": 66, "duration": 14, "velocity": 42}, {"time": 241, "pitch": 54, "duration": 7, "velocity": 65}, {"time": 247, "pitch": 66, "duration": 13, "velocity": 82}, {"time": 247, "pitch": 70, "duration": 13, "velocity": 86}, {"time": 250, "pitch": 54, "duration": 3, "velocity": 57}, {"time": 253, "pitch": 61, "duration": 6, "velocity": 77}, {"time": 259, "pitch": 44, "duration": 40, "velocity": 77}, {"time": 265, "pitch": 51, "duration": 9, "velocity": 52}, {"time": 271, "pitch": 59, "duration": 7, "velocity": 86}, {"time": 277, "pitch": 51, "duration": 8, "velocity": 55}, {"time": 280, "pitch": 59, "duration": 12, "velocity": 71}, {"time": 280, "pitch": 63, "duration": 12, "velocity": 66}, {"time": 289, "pitch": 51, "duration": 7, "velocity": 64}, {"time": 292, "pitch": 56, "duration": 4, "velocity": 59}, {"time": 295, "pitch": 63, "duration": 13, "velocity": 89}, {"time": 298, "pitch": 51, "duration": 2, "velocity": 66}, {"time": 301, "pitch": 59, "duration": 6, "velocity": 72}, {"time": 304, "pitch": 56, "duration": 3, "velocity": 76}, {"time": 307, "pitch": 35, "duration": 44, "velocity": 69}, {"time": 313, "pitch": 42, "duration": 41, "velocity": 41}, {"time": 319, "pitch": 54, "duration": 10, "velocity": 72}, {"time": 319, "pitch": 59, "duration": 8, "velocity": 75}, {"time": 325, "pitch": 47, "duration": 9, "velocity": 52}, {"time": 328, "pitch": 59, "duration": 13, "velocity": 70}, {"time": 328, "pitch": 63, "duration": 13, "velocity": 72}, {"time": 334, "pitch": 54, "duration": 9, "velocity": 61}, {"time": 340, "pitch": 47, "duration": 4, "velocity": 63}, {"time": 343, "pitch": 59, "duration": 8, "velocity": 78}, {"time": 343, "pitch": 63, "duration": 8, "velocity": 76}, {"time": 346, "pitch": 47, "duration": 2, "velocity": 66}, {"time": 349, "pitch": 54, "duration": 5, "velocity": 69}, {"time": 355, "pitch": 35, "duration": 37, "velocity": 66}, {"time": 355, "pitch": 47, "duration": 1, "velocity": 39}, {"time": 355, "pitch": 54, "duration": 36, "velocity": 65}, {"time": 355, "pitch": 59, "duration": 37, "velocity": 68}, {"time": 355, "pitch": 63, "duration": 37, "velocity": 69}, {"time": 367, "pitch": 42, "duration": 25, "velocity": 35}, {"time": 367, "pitch": 47, "duration": 28, "velocity": 35}, {"time": 403, "pitch": 42, "duration": 37, "velocity": 70}, {"time": 403, "pitch": 54, "duration": 36, "velocity": 77}, {"time": 403, "pitch": 58, "duration": 36, "velocity": 79}, {"time": 403, "pitch": 61, "duration": 36, "velocity": 71}, {"time": 403, "pitch": 65, "duration": 36, "velocity": 73}, {"time": 451, "pitch": 44, "duration": 45, "velocity": 75}, {"time": 457, "pitch": 51, "duration": 42, "velocity": 43}, {"time": 463, "pitch": 59, "duration": 6, "velocity": 60}, {"time": 463, "pitch": 63, "duration": 9, "velocity": 65}, {"time": 463, "pitch": 68, "duration": 18, "velocity": 59}, {"time": 469, "pitch": 56, "duration": 7, "velocity": 56}, {"time": 472, "pitch": 59, "duration": 17, "velocity": 83}, {"time": 478, "pitch": 56, "duration": 4, "velocity": 69}, {"time": 481, "pitch": 63, "duration": 7, "velocity": 57}, {"time": 484, "pitch": 56, "duration": 6, "velocity": 56}, {"time": 487, "pitch": 68, "duration": 19, "velocity": 82}, {"time": 493, "pitch": 63, "duration": 11, "velocity": 53}, {"time": 496, "pitch": 59, "duration": 6, "velocity": 41}, {"time": 499, "pitch": 44, "duration": 41, "velocity": 61}, {"time": 505, "pitch": 51, "duration": 31, "velocity": 57}, {"time": 511, "pitch": 59, "duration": 22, "velocity": 68}, {"time": 511, "pitch": 63, "duration": 22, "velocity": 66}, {"time": 517, "pitch": 56, "duration": 9, "velocity": 58}, {"time": 523, "pitch": 68, "duration": 10, "velocity": 69}, {"time": 529, "pitch": 56, "duration": 5, "velocity": 72}, {"time": 535, "pitch": 63, "duration": 12, "velocity": 79}, {"time": 535, "pitch": 68, "duration": 12, "velocity": 89}, {"time": 538, "pitch": 51, "duration": 1, "velocity": 36}, {"time": 541, "pitch": 59, "duration": 6, "velocity": 66}, {"time": 547, "pitch": 37, "duration": 40, "velocity": 72}, {"time": 553, "pitch": 44, "duration": 35, "velocity": 52}, {"time": 559, "pitch": 56, "duration": 8, "velocity": 72}, {"time": 559, "pitch": 61, "duration": 7, "velocity": 76}, {"time": 559, "pitch": 65, "duration": 7, "velocity": 68}, {"time": 565, "pitch": 49, "duration": 9, "velocity": 58}, {"time": 568, "pitch": 56, "duration": 3, "velocity": 51}, {"time": 568, "pitch": 61, "duration": 13, "velocity": 69}, {"time": 568, "pitch": 65, "duration": 13, "velocity": 62}, {"time": 577, "pitch": 56, "duration": 7, "velocity": 35}, {"time": 580, "pitch": 49, "duration": 4, "velocity": 41}, {"time": 583, "pitch": 61, "duration": 7, "velocity": 82}, {"time": 583, "pitch": 65, "duration": 12, "velocity": 89}, {"time": 586, "pitch": 49, "duration": 3, "velocity": 83}, {"time": 589, "pitch": 56, "duration": 6, "velocity": 77}, {"time": 592, "pitch": 61, "duration": 4, "velocity": 66}, {"time": 595, "pitch": 46, "duration": 43, "velocity": 79}, {"time": 601, "pitch": 53, "duration": 35, "velocity": 52}, {"time": 607, "pitch": 61, "duration": 7, "velocity": 66}, {"time": 607, "pitch": 65, "duration": 9, "velocity": 70}, {"time": 607, "pitch": 70, "duration": 10, "velocity": 66}, {"time": 613, "pitch": 58, "duration": 9, "velocity": 78}, {"time": 619, "pitch": 61, "duration": 10, "velocity": 59}, {"time": 619, "pitch": 65, "duration": 7, "velocity": 63}, {"time": 619, "pitch": 70, "duration": 8, "velocity": 63}, {"time": 625, "pitch": 58, "duration": 7, "velocity": 67}, {"time": 631, "pitch": 70, "duration": 12, "velocity": 99}, {"time": 634, "pitch": 58, "duration": 2, "velocity": 66}, {"time": 637, "pitch": 65, "duration": 6, "velocity": 72}, {"time": 640, "pitch": 61, "duration": 4, "velocity": 69}, {"time": 643, "pitch": 44, "duration": 42, "velocity": 76}, {"time": 649, "pitch": 51, "duration": 8, "velocity": 58}, {"time": 655, "pitch": 63, "duration": 8, "velocity": 79}, {"time": 661, "pitch": 51, "duration": 6, "velocity": 37}, {"time": 664, "pitch": 56, "duration": 10, "velocity": 63}, {"time": 664, "pitch": 59, "duration": 13, "velocity": 60}, {"time": 664, "pitch": 63, "duration": 13, "velocity": 58}, {"time": 673, "pitch": 51, "duration": 6, "velocity": 38}, {"time": 679, "pitch": 59, "duration": 6, "velocity": 81}, {"time": 679, "pitch": 63, "duration": 13, "velocity": 88}, {"time": 682, "pitch": 51, "duration": 2, "velocity": 72}, {"time": 685, "pitch": 56, "duration": 5, "velocity": 82}, {"time": 688, "pitch": 58, "duration": 3, "velocity": 69}, {"time": 691, "pitch": 35, "duration": 40, "velocity": 76}, {"time": 697, "pitch": 42, "duration": 33, "velocity": 47}, {"time": 703, "pitch": 54, "duration": 19, "velocity": 70}, {"time": 703, "pitch": 59, "duration": 7, "velocity": 68}, {"time": 703, "pitch": 63, "duration": 22, "velocity": 66}, {"time": 709, "pitch": 47, "duration": 8, "velocity": 53}, {"time": 712, "pitch": 59, "duration": 13, "velocity": 61}, {"time": 721, "pitch": 47, "duration": 7, "velocity": 58}, {"time": 727, "pitch": 59, "duration": 12, "velocity": 89}, {"time": 727, "pitch": 63, "duration": 12, "velocity": 88}, {"time": 730, "pitch": 47, "duration": 4, "velocity": 60}, {"time": 733, "pitch": 54, "duration": 5, "velocity": 69}, {"time": 739, "pitch": 42, "duration": 44, "velocity": 82}, {"time": 745, "pitch": 49, "duration": 38, "velocity": 51}, {"time": 751, "pitch": 58, "duration": 7, "velocity": 75}, {"time": 751, "pitch": 61, "duration": 7, "velocity": 79}, {"time": 757, "pitch": 54, "duration": 9, "velocity": 61}, {"time": 760, "pitch": 58, "duration": 13, "velocity": 69}, {"time": 760, "pitch": 61, "duration": 13, "velocity": 66}, {"time": 769, "pitch": 54, "duration": 7, "velocity": 41}, {"time": 775, "pitch": 61, "duration": 7, "velocity": 79}, {"time": 778, "pitch": 54, "duration": 6, "velocity": 66}, {"time": 781, "pitch": 58, "duration": 4, "velocity": 67}, {"time": 787, "pitch": 42, "duration": 37, "velocity": 70}, {"time": 787, "pitch": 54, "duration": 36, "velocity": 77}, {"time": 787, "pitch": 58, "duration": 36, "velocity": 79}, {"time": 787, "pitch": 61, "duration": 36, "velocity": 71}, {"time": 787, "pitch": 65, "duration": 36, "velocity": 73}, {"time": 835, "pitch": 44, "duration": 45, "velocity": 75}, {"time": 841, "pitch": 51, "duration": 42, "velocity": 43}, {"time": 847, "pitch": 59, "duration": 6, "velocity": 60}, {"time": 847, "pitch": 63, "duration": 9, "velocity": 65}, {"time": 847, "pitch": 68, "duration": 18, "velocity": 59}, {"time": 853, "pitch": 56, "duration": 7, "velocity": 56}, {"time": 856, "pitch": 59, "duration": 17, "velocity": 83}, {"time": 862, "pitch": 56, "duration": 4, "velocity": 69}, {"time": 865, "pitch": 63, "duration": 7, "velocity": 57}, {"time": 868, "pitch": 56, "duration": 6, "velocity": 56}, {"time": 871, "pitch": 68, "duration": 19, "velocity": 82}, {"time": 877, "pitch": 63, "duration": 11, "velocity": 53}, {"time": 880, "pitch": 59, "duration": 6, "velocity": 41}, {"time": 883, "pitch": 44, "duration": 41, "velocity": 61}, {"time": 889, "pitch": 51, "duration": 31, "velocity": 57}, {"time": 895, "pitch": 59, "duration": 22, "velocity": 68}, {"time": 895, "pitch": 63, "duration": 22, "velocity": 66}, {"time": 901, "pitch": 56, "duration": 9, "velocity": 58}, {"time": 907, "pitch": 68, "duration": 10, "velocity": 69}, {"time": 913, "pitch": 56, "duration": 5, "velocity": 72}, {"time": 919, "pitch": 63, "duration": 12, "velocity": 79}, {"time": 919, "pitch": 68, "duration": 12, "velocity": 89}, {"time": 922, "pitch": 51, "duration": 1, "velocity": 36}, {"time": 925, "pitch": 59, "duration": 6, "velocity": 66}, {"time": 931, "pitch": 37, "duration": 40, "velocity": 72}, {"time": 937, "pitch": 44, "duration": 35, "velocity": 52}, {"time": 943, "pitch": 56, "duration": 8, "velocity": 72}, {"time": 943, "pitch": 61, "duration": 7, "velocity": 76}, {"time": 943, "pitch": 65, "duration": 7, "velocity": 68}, {"time": 949, "pitch": 49, "duration": 9, "velocity": 58}, {"time": 952, "pitch": 56, "duration": 3, "velocity": 51}, {"time": 952, "pitch": 61, "duration": 13, "velocity": 69}, {"time": 952, "pitch": 65, "duration": 13, "velocity": 62}, {"time": 961, "pitch": 56, "duration": 7, "velocity": 35}, {"time": 964, "pitch": 49, "duration": 4, "velocity": 41}, {"time": 967, "pitch": 61, "duration": 7, "velocity": 82}, {"time": 967, "pitch": 65, "duration": 12, "velocity": 89}, {"time": 970, "pitch": 49, "duration": 3, "velocity": 83}, {"time": 973, "pitch": 56, "duration": 6, "velocity": 77}, {"time": 976, "pitch": 61, "duration": 4, "velocity": 66}, {"time": 979, "pitch": 46, "duration": 43, "velocity": 79}, {"time": 985, "pitch": 53, "duration": 35, "velocity": 52}, {"time": 991, "pitch": 61, "duration": 7, "velocity": 66}, {"time": 991, "pitch": 65, "duration": 9, "velocity": 70}, {"time": 991, "pitch": 70, "duration": 10, "velocity": 66}, {"time": 997, "pitch": 58, "duration": 9, "velocity": 78}, {"time": 1003, "pitch": 61, "duration": 10, "velocity": 59}, {"time": 1003, "pitch": 65, "duration": 7, "velocity": 63}, {"time": 1003, "pitch": 70, "duration": 8, "velocity": 63}, {"time": 1009, "pitch": 58, "duration": 7, "velocity": 67}, {"time": 1015, "pitch": 70, "duration": 12, "velocity": 99}, {"time": 1018, "pitch": 58, "duration": 2, "velocity": 66}, {"time": 1021, "pitch": 65, "duration": 6, "velocity": 72}, {"time": 1024, "pitch": 61, "duration": 4, "velocity": 69}, {"time": 1027, "pitch": 44, "duration": 42, "velocity": 76}, {"time": 1033, "pitch": 51, "duration": 8, "velocity": 58}, {"time": 1039, "pitch": 63, "duration": 8, "velocity": 79}, {"time": 1045, "pitch": 51, "duration": 6, "velocity": 37}, {"time": 1048, "pitch": 56, "duration": 10, "velocity": 63}, {"time": 1048, "pitch": 59, "duration": 13, "velocity": 60}, {"time": 1048, "pitch": 63, "duration": 13, "velocity": 58}, {"time": 1057, "pitch": 51, "duration": 6, "velocity": 38}, {"time": 1063, "pitch": 59, "duration": 6, "velocity": 81}, {"time": 1063, "pitch": 63, "duration": 13, "velocity": 88}, {"time": 1066, "pitch": 51, "duration": 2, "velocity": 72}, {"time": 1069, "pitch": 56, "duration": 5, "velocity": 82}, {"time": 1072, "pitch": 58, "duration": 3, "velocity": 69}, {"time": 1075, "pitch": 35, "duration": 40, "velocity": 76}, {"time": 1081, "pitch": 42, "duration": 33, "velocity": 47}, {"time": 1087, "pitch": 54, "duration": 19, "velocity": 70}, {"time": 1087, "pitch": 59, "duration": 7, "velocity": 68}, {"time": 1087, "pitch": 63, "duration": 22, "velocity": 66}, {"time": 1093, "pitch": 47, "duration": 8, "velocity": 53}, {"time": 1096, "pitch": 59, "duration": 13, "velocity": 61}, {"time": 1105, "pitch": 47, "duration": 7, "velocity": 58}, {"time": 1111, "pitch": 59, "duration": 12, "velocity": 89}, {"time": 1111, "pitch": 63, "duration": 12, "velocity": 88}, {"time": 1114, "pitch": 47, "duration": 4, "velocity": 60}, {"time": 1117, "pitch": 54, "duration": 5, "velocity": 69}, {"time": 1123, "pitch": 39, "duration": 40, "velocity": 69}, {"time": 1123, "pitch": 63, "duration": 6, "velocity": 75}, {"time": 1123, "pitch": 66, "duration": 6, "velocity": 76}, {"time": 1123, "pitch": 70, "duration": 6, "velocity": 74}, {"time": 1129, "pitch": 46, "duration": 34, "velocity": 52}, {"time": 1135, "pitch": 58, "duration": 8, "velocity": 72}, {"time": 1135, "pitch": 63, "duration": 7, "velocity": 83}, {"time": 1135, "pitch": 66, "duration": 7, "velocity": 81}, {"time": 1141, "pitch": 51, "duration": 10, "velocity": 88}, {"time": 1144, "pitch": 63, "duration": 4, "velocity": 89}, {"time": 1144, "pitch": 66, "duration": 4, "velocity": 77}, {"time": 1150, "pitch": 63, "duration": 8, "velocity": 82}, {"time": 1150, "pitch": 66, "duration": 8, "velocity": 72}, {"time": 1153, "pitch": 58, "duration": 4, "velocity": 42}, {"time": 1156, "pitch": 51, "duration": 4, "velocity": 73}, {"time": 1159, "pitch": 66, "duration": 11, "velocity": 127}, {"time": 1162, "pitch": 51, "duration": 3, "velocity": 96}, {"time": 1165, "pitch": 63, "duration": 5, "velocity": 100}, {"time": 1168, "pitch": 58, "duration": 2, "velocity": 97}, {"time": 1171, "pitch": 44, "duration": 19, "velocity": 97}, {"time": 1174, "pitch": 51, "duration": 14, "velocity": 95}, {"time": 1177, "pitch": 56, "duration": 7, "velocity": 107}, {"time": 1180, "pitch": 63, "duration": 5, "velocity": 117}, {"time": 1183, "pitch": 71, "duration": 10, "velocity": 127}, {"time": 1186, "pitch": 56, "duration": 2, "velocity": 112}, {"time": 1189, "pitch": 68, "duration": 4, "velocity": 102}, {"time": 1192, "pitch": 63, "duration": 3, "velocity": 99}, {"time": 1195, "pitch": 37, "duration": 16, "velocity": 78}, {"time": 1198, "pitch": 44, "duration": 13, "velocity": 95}, {"time": 1201, "pitch": 49, "duration": 6, "velocity": 95}, {"time": 1204, "pitch": 56, "duration": 5, "velocity": 96}, {"time": 1207, "pitch": 65, "duration": 12, "velocity": 122}, {"time": 1210, "pitch": 49, "duration": 3, "velocity": 92}, {"time": 1213, "pitch": 56, "duration": 4, "velocity": 100}, {"time": 1216, "pitch": 61, "duration": 2, "velocity": 100}, {"time": 1219, "pitch": 46, "duration": 17, "velocity": 76}, {"time": 1222, "pitch": 53, "duration": 10, "velocity": 82}, {"time": 1225, "pitch": 58, "duration": 3, "velocity": 95}, {"time": 1228, "pitch": 61, "duration": 3, "velocity": 112}, {"time": 1231, "pitch": 65, "duration": 9, "velocity": 127}, {"time": 1234, "pitch": 53, "duration": 2, "velocity": 107}, {"time": 1237, "pitch": 61, "duration": 4, "velocity": 96}, {"time": 1240, "pitch": 58, "duration": 5, "velocity": 100}, {"time": 1243, "pitch": 39, "duration": 17, "velocity": 82}, {"time": 1246, "pitch": 46, "duration": 14, "velocity": 89}, {"time": 1249, "pitch": 51, "duration": 7, "velocity": 93}, {"time": 1252, "pitch": 58, "duration": 5, "velocity": 95}, {"time": 1255, "pitch": 66, "duration": 12, "velocity": 100}, {"time": 1258, "pitch": 51, "duration": 4, "velocity": 97}, {"time": 1261, "pitch": 63, "duration": 6, "velocity": 86}, {"time": 1264, "pitch": 58, "duration": 3, "velocity": 93}, {"time": 1267, "pitch": 44, "duration": 18, "velocity": 93}, {"time": 1270, "pitch": 51, "duration": 14, "velocity": 69}, {"time": 1273, "pitch": 56, "duration": 7, "velocity": 92}, {"time": 1276, "pitch": 63, "duration": 5, "velocity": 83}, {"time": 1279, "pitch": 68, "duration": 6, "velocity": 82}, {"time": 1279, "pitch": 71, "duration": 11, "velocity": 95}, {"time": 1282, "pitch": 56, "duration": 1, "velocity": 99}, {"time": 1285, "pitch": 63, "duration": 6, "velocity": 96}, {"time": 1288, "pitch": 68, "duration": 2, "velocity": 82}, {"time": 1291, "pitch": 37, "duration": 18, "velocity": 78}, {"time": 1294, "pitch": 44, "duration": 14, "velocity": 59}, {"time": 1297, "pitch": 49, "duration": 7, "velocity": 77}, {"time": 1300, "pitch": 61, "duration": 4, "velocity": 96}, {"time": 1303, "pitch": 65, "duration": 11, "velocity": 89}, {"time": 1306, "pitch": 49, "duration": 8, "velocity": 86}, {"time": 1309, "pitch": 61, "duration": 6, "velocity": 95}, {"time": 1312, "pitch": 68, "duration": 3, "velocity": 93}, {"time": 1315, "pitch": 42, "duration": 45, "velocity": 71}, {"time": 1318, "pitch": 49, "duration": 44, "velocity": 69}, {"time": 1321, "pitch": 54, "duration": 7, "velocity": 85}, {"time": 1324, "pitch": 61, "duration": 3, "velocity": 92}, {"time": 1327, "pitch": 66, "duration": 7, "velocity": 99}, {"time": 1327, "pitch": 70, "duration": 7, "velocity": 102}, {"time": 1333, "pitch": 54, "duration": 12, "velocity": 88}, {"time": 1336, "pitch": 61, "duration": 4, "velocity": 89}, {"time": 1336, "pitch": 66, "duration": 4, "velocity": 86}, {"time": 1336, "pitch": 70, "duration": 4, "velocity": 82}, {"time": 1342, "pitch": 66, "duration": 7, "velocity": 95}, {"time": 1342, "pitch": 70, "duration": 7, "velocity": 96}, {"time": 1345, "pitch": 61, "duration": 4, "velocity": 78}, {"time": 1348, "pitch": 54, "duration": 4, "velocity": 89}, {"time": 1351, "pitch": 66, "duration": 7, "velocity": 99}, {"time": 1351, "pitch": 70, "duration": 7, "velocity": 102}, {"time": 1354, "pitch": 54, "duration": 3, "velocity": 96}, {"time": 1357, "pitch": 61, "duration": 5, "velocity": 99}, {"time": 1360, "pitch": 66, "duration": 3, "velocity": 89}, {"time": 1360, "pitch": 70, "duration": 3, "velocity": 92}, {"time": 1363, "pitch": 44, "duration": 17, "velocity": 90}, {"time": 1366, "pitch": 51, "duration": 14, "velocity": 76}, {"time": 1369, "pitch": 56, "duration": 7, "velocity": 95}, {"time": 1372, "pitch": 59, "duration": 5, "velocity": 88}, {"time": 1375, "pitch": 68, "duration": 11, "velocity": 99}, {"time": 1378, "pitch": 56, "duration": 2, "velocity": 93}, {"time": 1381, "pitch": 63, "duration": 5, "velocity": 90}, {"time": 1384, "pitch": 59, "duration": 3, "velocity": 100}, {"time": 1387, "pitch": 37, "duration": 16, "velocity": 68}, {"time": 1390, "pitch": 44, "duration": 14, "velocity": 88}, {"time": 1393, "pitch": 49, "duration": 7, "velocity": 97}, {"time": 1396, "pitch": 56, "duration": 5, "velocity": 97}, {"time": 1399, "pitch": 65, "duration": 12, "velocity": 112}, {"time": 1402, "pitch": 49, "duration": 3, "velocity": 93}, {"time": 1405, "pitch": 61, "duration": 6, "velocity": 88}, {"time": 1408, "pitch": 56, "duration": 3, "velocity": 88}, {"time": 1411, "pitch": 46, "duration": 17, "velocity": 81}, {"time": 1414, "pitch": 53, "duration": 11, "velocity": 83}, {"time": 1417, "pitch": 58, "duration": 4, "velocity": 96}, {"time": 1420, "pitch": 61, "duration": 4, "velocity": 95}, {"time": 1423, "pitch": 65, "duration": 10, "velocity": 107}, {"time": 1426, "pitch": 53, "duration": 2, "velocity": 102}, {"time": 1429, "pitch": 61, "duration": 4, "velocity": 95}, {"time": 1432, "pitch": 58, "duration": 5, "velocity": 92}, {"time": 1435, "pitch": 39, "duration": 17, "velocity": 75}, {"time": 1438, "pitch": 46, "duration": 14, "velocity": 95}, {"time": 1441, "pitch": 51, "duration": 7, "velocity": 92}, {"time": 1444, "pitch": 58, "duration": 7, "velocity": 89}, {"time": 1447, "pitch": 66, "duration": 12, "velocity": 100}, {"time": 1450, "pitch": 51, "duration": 5, "velocity": 88}, {"time": 1453, "pitch": 63, "duration": 6, "velocity": 85}, {"time": 1456, "pitch": 58, "duration": 3, "velocity": 93}, {"time": 1459, "pitch": 44, "duration": 18, "velocity": 73}, {"time": 1462, "pitch": 51, "duration": 14, "velocity": 72}, {"time": 1465, "pitch": 56, "duration": 7, "velocity": 86}, {"time": 1468, "pitch": 59, "duration": 5, "velocity": 79}, {"time": 1471, "pitch": 68, "duration": 12, "velocity": 85}, {"time": 1474, "pitch": 56, "duration": 2, "velocity": 92}, {"time": 1477, "pitch": 63, "duration": 6, "velocity": 77}, {"time": 1480, "pitch": 59, "duration": 3, "velocity": 97}, {"time": 1483, "pitch": 37, "duration": 18, "velocity": 73}, {"time": 1486, "pitch": 44, "duration": 15, "velocity": 78}, {"time": 1489, "pitch": 49, "duration": 8, "velocity": 96}, {"time": 1492, "pitch": 56, "duration": 7, "velocity": 89}, {"time": 1495, "pitch": 65, "duration": 11, "velocity": 127}, {"time": 1498, "pitch": 49, "duration": 7, "velocity": 89}, {"time": 1501, "pitch": 61, "duration": 5, "velocity": 83}, {"time": 1504, "pitch": 56, "duration": 3, "velocity": 90}, {"time": 1507, "pitch": 42, "duration": 22, "velocity": 78}, {"time": 1510, "pitch": 49, "duration": 21, "velocity": 72}, {"time": 1513, "pitch": 54, "duration": 7, "velocity": 90}, {"time": 1516, "pitch": 61, "duration": 6, "velocity": 89}, {"time": 1519, "pitch": 70, "duration": 22, "velocity": 102}, {"time": 1522, "pitch": 54, "duration": 12, "velocity": 95}, {"time": 1525, "pitch": 66, "duration": 16, "velocity": 97}, {"time": 1528, "pitch": 61, "duration": 9, "velocity": 86}, {"time": 1531, "pitch": 42, "duration": 24, "velocity": 72}, {"time": 1534, "pitch": 49, "duration": 20, "velocity": 61}, {"time": 1537, "pitch": 54, "duration": 7, "velocity": 79}, {"time": 1540, "pitch": 61, "duration": 5, "velocity": 89}, {"time": 1543, "pitch": 66, "duration": 12, "velocity": 100}, {"time": 1543, "pitch": 70, "duration": 12, "velocity": 100}, {"time": 1546, "pitch": 54, "duration": 6, "velocity": 99}, {"time": 1549, "pitch": 61, "duration": 6, "velocity": 89}, {"time": 1555, "pitch": 44, "duration": 17, "velocity": 83}, {"time": 1558, "pitch": 51, "duration": 10, "velocity": 79}, {"time": 1561, "pitch": 56, "duration": 5, "velocity": 92}, {"time": 1564, "pitch": 59, "duration": 6, "velocity": 93}, {"time": 1567, "pitch": 68, "duration": 11, "velocity": 102}, {"time": 1570, "pitch": 51, "duration": 2, "velocity": 73}, {"time": 1573, "pitch": 63, "duration": 5, "velocity": 78}, {"time": 1576, "pitch": 59, "duration": 4, "velocity": 86}, {"time": 1579, "pitch": 37, "duration": 16, "velocity": 77}, {"time": 1582, "pitch": 44, "duration": 13, "velocity": 65}, {"time": 1585, "pitch": 49, "duration": 7, "velocity": 88}, {"time": 1588, "pitch": 56, "duration": 6, "velocity": 93}, {"time": 1591, "pitch": 65, "duration": 12, "velocity": 100}, {"time": 1594, "pitch": 49, "duration": 3, "velocity": 88}, {"time": 1597, "pitch": 56, "duration": 4, "velocity": 90}, {"time": 1600, "pitch": 61, "duration": 3, "velocity": 90}, {"time": 1603, "pitch": 46, "duration": 18, "velocity": 73}, {"time": 1606, "pitch": 53, "duration": 11, "velocity": 79}, {"time": 1609, "pitch": 58, "duration": 4, "velocity": 88}, {"time": 1612, "pitch": 61, "duration": 17, "velocity": 96}, {"time": 1615, "pitch": 65, "duration": 14, "velocity": 107}, {"time": 1618, "pitch": 53, "duration": 2, "velocity": 90}, {"time": 1621, "pitch": 58, "duration": 7, "velocity": 89}, {"time": 1627, "pitch": 39, "duration": 16, "velocity": 70}, {"time": 1630, "pitch": 46, "duration": 14, "velocity": 88}, {"time": 1633, "pitch": 51, "duration": 7, "velocity": 88}, {"time": 1636, "pitch": 58, "duration": 7, "velocity": 83}, {"time": 1639, "pitch": 66, "duration": 11, "velocity": 83}, {"time": 1642, "pitch": 51, "duration": 4, "velocity": 89}, {"time": 1645, "pitch": 63, "duration": 5, "velocity": 89}, {"time": 1648, "pitch": 58, "duration": 3, "velocity": 88}, {"time": 1651, "pitch": 44, "duration": 18, "velocity": 69}, {"time": 1654, "pitch": 51, "duration": 10, "velocity": 62}, {"time": 1657, "pitch": 56, "duration": 5, "velocity": 90}, {"time": 1660, "pitch": 59, "duration": 4, "velocity": 89}, {"time": 1663, "pitch": 68, "duration": 11, "velocity": 93}, {"time": 1666, "pitch": 51, "duration": 2, "velocity": 78}, {"time": 1669, "pitch": 63, "duration": 5, "velocity": 72}, {"time": 1672, "pitch": 59, "duration": 3, "velocity": 97}, {"time": 1675, "pitch": 37, "duration": 16, "velocity": 58}, {"time": 1678, "pitch": 44, "duration": 13, "velocity": 89}, {"time": 1681, "pitch": 49, "duration": 7, "velocity": 85}, {"time": 1684, "pitch": 56, "duration": 7, "velocity": 83}, {"time": 1687, "pitch": 65, "duration": 12, "velocity": 107}, {"time": 1690, "pitch": 49, "duration": 4, "velocity": 85}, {"time": 1693, "pitch": 61, "duration": 5, "velocity": 72}, {"time": 1696, "pitch": 56, "duration": 2, "velocity": 92}, {"time": 1699, "pitch": 42, "duration": 22, "velocity": 72}, {"time": 1702, "pitch": 49, "duration": 22, "velocity": 69}, {"time": 1705, "pitch": 54, "duration": 7, "velocity": 81}, {"time": 1708, "pitch": 61, "duration": 10, "velocity": 89}, {"time": 1711, "pitch": 70, "duration": 20, "velocity": 93}, {"time": 1714, "pitch": 54, "duration": 13, "velocity": 86}, {"time": 1717, "pitch": 68, "duration": 14, "velocity": 90}, {"time": 1720, "pitch": 61, "duration": 10, "velocity": 61}, {"time": 1723, "pitch": 42, "duration": 22, "velocity": 81}, {"time": 1726, "pitch": 49, "duration": 68, "velocity": 50}, {"time": 1729, "pitch": 54, "duration": 6, "velocity": 69}, {"time": 1732, "pitch": 61, "duration": 4, "velocity": 53}, {"time": 1735, "pitch": 66, "duration": 7, "velocity": 66}, {"time": 1735, "pitch": 70, "duration": 22, "velocity": 71}, {"time": 1738, "pitch": 54, "duration": 24, "velocity": 74}, {"time": 1741, "pitch": 61, "duration": 16, "velocity": 74}, {"time": 1744, "pitch": 66, "duration": 13, "velocity": 58}, {"time": 1747, "pitch": 42, "duration": 46, "velocity": 60}, {"time": 1759, "pitch": 61, "duration": 36, "velocity": 58}, {"time": 1759, "pitch": 66, "duration": 8, "velocity": 58}, {"time": 1759, "pitch": 70, "duration": 8, "velocity": 59}, {"time": 1765, "pitch": 54, "duration": 28, "velocity": 53}, {"time": 1768, "pitch": 66, "duration": 27, "velocity": 32}, {"time": 1768, "pitch": 70, "duration": 27, "velocity": 30}, {"time": 1795, "pitch": 42, "duration": 39, "velocity": 78}, {"time": 1801, "pitch": 49, "duration": 33, "velocity": 56}, {"time": 1807, "pitch": 54, "duration": 15, "velocity": 71}, {"time": 1813, "pitch": 61, "duration": 19, "velocity": 63}, {"time": 1819, "pitch": 66, "duration": 9, "velocity": 68}, {"time": 1819, "pitch": 70, "duration": 24, "velocity": 72}, {"time": 1825, "pitch": 54, "duration": 6, "velocity": 62}, {"time": 1831, "pitch": 66, "duration": 12, "velocity": 67}, {"time": 1837, "pitch": 61, "duration": 6, "velocity": 78}, {"time": 1843, "pitch": 44, "duration": 39, "velocity": 89}, {"time": 1849, "pitch": 51, "duration": 32, "velocity": 46}, {"time": 1855, "pitch": 56, "duration": 16, "velocity": 92}, {"time": 1861, "pitch": 59, "duration": 21, "velocity": 81}, {"time": 1867, "pitch": 63, "duration": 10, "velocity": 64}, {"time": 1867, "pitch": 68, "duration": 10, "velocity": 68}, {"time": 1873, "pitch": 56, "duration": 8, "velocity": 72}, {"time": 1879, "pitch": 63, "duration": 7, "velocity": 85}, {"time": 1879, "pitch": 68, "duration": 7, "velocity": 90}, {"time": 1885, "pitch": 59, "duration": 7, "velocity": 61}, {"time": 1891, "pitch": 35, "duration": 37, "velocity": 83}, {"time": 1897, "pitch": 42, "duration": 31, "velocity": 48}, {"time": 1903, "pitch": 54, "duration": 23, "velocity": 81}, {"time": 1903, "pitch": 59, "duration": 11, "velocity": 83}, {"time": 1903, "pitch": 62, "duration": 11, "velocity": 86}, {"time": 1909, "pitch": 47, "duration": 10, "velocity": 66}, {"time": 1915, "pitch": 59, "duration": 11, "velocity": 82}, {"time": 1915, "pitch": 62, "duration": 11, "velocity": 89}, {"time": 1921, "pitch": 47, "duration": 7, "velocity": 46}, {"time": 1927, "pitch": 59, "duration": 12, "velocity": 92}, {"time": 1927, "pitch": 62, "duration": 12, "velocity": 97}, {"time": 1933, "pitch": 54, "duration": 5, "velocity": 71}, {"time": 1939, "pitch": 42, "duration": 39, "velocity": 89}, {"time": 1945, "pitch": 49, "duration": 33, "velocity": 50}, {"time": 1951, "pitch": 54, "duration": 15, "velocity": 99}, {"time": 1957, "pitch": 61, "duration": 20, "velocity": 79}, {"time": 1963, "pitch": 66, "duration": 10, "velocity": 92}, {"time": 1963, "pitch": 70, "duration": 10, "velocity": 97}, {"time": 1969, "pitch": 54, "duration": 5, "velocity": 90}, {"time": 1975, "pitch": 70, "duration": 11, "velocity": 100}, {"time": 1981, "pitch": 61, "duration": 6, "velocity": 92}, {"time": 1987, "pitch": 39, "duration": 22, "velocity": 86}, {"time": 1990, "pitch": 46, "duration": 21, "velocity": 66}, {"time": 1993, "pitch": 51, "duration": 7, "velocity": 77}, {"time": 1996, "pitch": 55, "duration": 4, "velocity": 69}, {"time": 1999, "pitch": 63, "duration": 14, "velocity": 72}, {"time": 2002, "pitch": 51, "duration": 3, "velocity": 73}, {"time": 2005, "pitch": 55, "duration": 7, "velocity": 82}, {"time": 2008, "pitch": 58, "duration": 4, "velocity": 58}, {"time": 2011, "pitch": 39, "duration": 17, "velocity": 74}, {"time": 2017, "pitch": 46, "duration": 11, "velocity": 42}, {"time": 2023, "pitch": 51, "duration": 11, "velocity": 85}, {"time": 2023, "pitch": 67, "duration": 13, "velocity": 127}, {"time": 2023, "pitch": 70, "duration": 13, "velocity": 100}, {"time": 2029, "pitch": 63, "duration": 7, "velocity": 86}, {"time": 2035, "pitch": 44, "duration": 36, "velocity": 85}, {"time": 2041, "pitch": 51, "duration": 8, "velocity": 73}, {"time": 2047, "pitch": 56, "duration": 11, "velocity": 95}, {"time": 2047, "pitch": 60, "duration": 11, "velocity": 99}, {"time": 2047, "pitch": 63, "duration": 11, "velocity": 86}, {"time": 2053, "pitch": 51, "duration": 9, "velocity": 81}, {"time": 2059, "pitch": 56, "duration": 11, "velocity": 78}, {"time": 2059, "pitch": 60, "duration": 11, "velocity": 90}, {"time": 2059, "pitch": 63, "duration": 11, "velocity": 76}, {"time": 2065, "pitch": 51, "duration": 6, "velocity": 78}, {"time": 2071, "pitch": 60, "duration": 5, "velocity": 99}, {"time": 2071, "pitch": 63, "duration": 5, "velocity": 92}, {"time": 2083, "pitch": 50, "duration": 17, "velocity": 71}, {"time": 2083, "pitch": 62, "duration": 11, "velocity": 89}, {"time": 2083, "pitch": 65, "duration": 11, "velocity": 82}, {"time": 2083, "pitch": 68, "duration": 7, "velocity": 69}, {"time": 2095, "pitch": 62, "duration": 7, "velocity": 86}, {"time": 2095, "pitch": 65, "duration": 9, "velocity": 73}, {"time": 2095, "pitch": 68, "duration": 7, "velocity": 56}, {"time": 2107, "pitch": 46, "duration": 13, "velocity": 76}, {"time": 2107, "pitch": 58, "duration": 11, "velocity": 77}, {"time": 2107, "pitch": 61, "duration": 10, "velocity": 75}, {"time": 2107, "pitch": 65, "duration": 10, "velocity": 90}, {"time": 2113, "pitch": 53, "duration": 5, "velocity": 46}, {"time": 2119, "pitch": 61, "duration": 11, "velocity": 92}, {"time": 2119, "pitch": 65, "duration": 7, "velocity": 100}, {"time": 2125, "pitch": 58, "duration": 6, "velocity": 73}, {"time": 2131, "pitch": 35, "duration": 18, "velocity": 59}, {"time": 2137, "pitch": 42, "duration": 15, "velocity": 56}, {"time": 2143, "pitch": 47, "duration": 4, "velocity": 72}, {"time": 2143, "pitch": 59, "duration": 10, "velocity": 69}, {"time": 2143, "pitch": 63, "duration": 6, "velocity": 69}, {"time": 2149, "pitch": 54, "duration": 3, "velocity": 77}, {"time": 2155, "pitch": 37, "duration": 24, "velocity": 33}, {"time": 2155, "pitch": 44, "duration": 24, "velocity": 59}, {"time": 2155, "pitch": 49, "duration": 12, "velocity": 75}, {"time": 2155, "pitch": 56, "duration": 24, "velocity": 56}, {"time": 2155, "pitch": 61, "duration": 24, "velocity": 74}, {"time": 2155, "pitch": 65, "duration": 24, "velocity": 73}, {"time": 2179, "pitch": 42, "duration": 37, "velocity": 70}, {"time": 2179, "pitch": 54, "duration": 36, "velocity": 77}, {"time": 2179, "pitch": 58, "duration": 36, "velocity": 79}, {"time": 2179, "pitch": 61, "duration": 36, "velocity": 71}, {"time": 2179, "pitch": 65, "duration": 36, "velocity": 73}, {"time": 2227, "pitch": 44, "duration": 45, "velocity": 75}, {"time": 2233, "pitch": 51, "duration": 42, "velocity": 43}, {"time": 2239, "pitch": 59, "duration": 6, "velocity": 60}, {"time": 2239, "pitch": 63, "duration": 9, "velocity": 65}, {"time": 2239, "pitch": 68, "duration": 18, "velocity": 59}, {"time": 2245, "pitch": 56, "duration": 7, "velocity": 56}, {"time": 2248, "pitch": 59, "duration": 17, "velocity": 83}, {"time": 2254, "pitch": 56, "duration": 4, "velocity": 69}, {"time": 2257, "pitch": 63, "duration": 7, "velocity": 57}, {"time": 2260, "pitch": 56, "duration": 6, "velocity": 56}, {"time": 2263, "pitch": 68, "duration": 19, "velocity": 82}, {"time": 2269, "pitch": 63, "duration": 11, "velocity": 53}, {"time": 2272, "pitch": 59, "duration": 6, "velocity": 41}, {"time": 2275, "pitch": 44, "duration": 41, "velocity": 61}, {"time": 2281, "pitch": 51, "duration": 31, "velocity": 57}, {"time": 2287, "pitch": 59, "duration": 22, "velocity": 68}, {"time": 2287, "pitch": 63, "duration": 22, "velocity": 66}, {"time": 2293, "pitch": 56, "duration": 9, "velocity": 58}, {"time": 2299, "pitch": 68, "duration": 10, "velocity": 69}, {"time": 2305, "pitch": 56, "duration": 5, "velocity": 72}, {"time": 2311, "pitch": 63, "duration": 12, "velocity": 79}, {"time": 2311, "pitch": 68, "duration": 12, "velocity": 89}, {"time": 2314, "pitch": 51, "duration": 1, "velocity": 36}, {"time": 2317, "pitch": 59, "duration": 6, "velocity": 66}, {"time": 2323, "pitch": 37, "duration": 40, "velocity": 72}, {"time": 2329, "pitch": 44, "duration": 35, "velocity": 52}, {"time": 2335, "pitch": 56, "duration": 8, "velocity": 72}, {"time": 2335, "pitch": 61, "duration": 7, "velocity": 76}, {"time": 2335, "pitch": 65, "duration": 7, "velocity": 68}, {"time": 2341, "pitch": 49, "duration": 9, "velocity": 58}, {"time": 2344, "pitch": 56, "duration": 3, "velocity": 51}, {"time": 2344, "pitch": 61, "duration": 13, "velocity": 69}, {"time": 2344, "pitch": 65, "duration": 13, "velocity": 62}, {"time": 2353, "pitch": 56, "duration": 7, "velocity": 35}, {"time": 2356, "pitch": 49, "duration": 4, "velocity": 41}, {"time": 2359, "pitch": 61, "duration": 7, "velocity": 82}, {"time": 2359, "pitch": 65, "duration": 12, "velocity": 89}, {"time": 2362, "pitch": 49, "duration": 3, "velocity": 83}, {"time": 2365, "pitch": 56, "duration": 6, "velocity": 77}, {"time": 2368, "pitch": 61, "duration": 4, "velocity": 66}, {"time": 2371, "pitch": 46, "duration": 43, "velocity": 79}, {"time": 2377, "pitch": 53, "duration": 35, "velocity": 52}, {"time": 2383, "pitch": 61, "duration": 7, "velocity": 66}, {"time": 2383, "pitch": 65, "duration": 9, "velocity": 70}, {"time": 2383, "pitch": 70, "duration": 10, "velocity": 66}, {"time": 2389, "pitch": 58, "duration": 9, "velocity": 78}, {"time": 2395, "pitch": 61, "duration": 10, "velocity": 59}, {"time": 2395, "pitch": 65, "duration": 7, "velocity": 63}, {"time": 2395, "pitch": 70, "duration": 8, "velocity": 63}, {"time": 2401, "pitch": 58, "duration": 7, "velocity": 67}, {"time": 2407, "pitch": 70, "duration": 12, "velocity": 99}, {"time": 2410, "pitch": 58, "duration": 2, "velocity": 66}, {"time": 2413, "pitch": 65, "duration": 6, "velocity": 72}, {"time": 2416, "pitch": 61, "duration": 4, "velocity": 69}, {"time": 2419, "pitch": 44, "duration": 42, "velocity": 76}, {"time": 2425, "pitch": 51, "duration": 8, "velocity": 58}, {"time": 2431, "pitch": 63, "duration": 8, "velocity": 79}, {"time": 2437, "pitch": 51, "duration": 6, "velocity": 37}, {"time": 2440, "pitch": 56, "duration": 10, "velocity": 63}, {"time": 2440, "pitch": 59, "duration": 13, "velocity": 60}, {"time": 2440, "pitch": 63, "duration": 13, "velocity": 58}, {"time": 2449, "pitch": 51, "duration": 6, "velocity": 38}, {"time": 2455, "pitch": 59, "duration": 6, "velocity": 81}, {"time": 2455, "pitch": 63, "duration": 13, "velocity": 88}, {"time": 2458, "pitch": 51, "duration": 2, "velocity": 72}, {"time": 2461, "pitch": 56, "duration": 5, "velocity": 82}, {"time": 2464, "pitch": 58, "duration": 3, "velocity": 69}, {"time": 2467, "pitch": 35, "duration": 40, "velocity": 76}, {"time": 2473, "pitch": 42, "duration": 33, "velocity": 47}, {"time": 2479, "pitch": 54, "duration": 19, "velocity": 70}, {"time": 2479, "pitch": 59, "duration": 7, "velocity": 68}, {"time": 2479, "pitch": 63, "duration": 22, "velocity": 66}, {"time": 2485, "pitch": 47, "duration": 8, "velocity": 53}, {"time": 2488, "pitch": 59, "duration": 13, "velocity": 61}, {"time": 2497, "pitch": 47, "duration": 7, "velocity": 58}, {"time": 2503, "pitch": 59, "duration": 12, "velocity": 89}, {"time": 2503, "pitch": 63, "duration": 12, "velocity": 88}, {"time": 2506, "pitch": 47, "duration": 4, "velocity": 60}, {"time": 2509, "pitch": 54, "duration": 5, "velocity": 69}, {"time": 2515, "pitch": 39, "duration": 40, "velocity": 69}, {"time": 2515, "pitch": 63, "duration": 6, "velocity": 75}, {"time": 2515, "pitch": 66, "duration": 6, "velocity": 76}, {"time": 2515, "pitch": 70, "duration": 6, "velocity": 74}, {"time": 2521, "pitch": 46, "duration": 34, "velocity": 52}, {"time": 2527, "pitch": 58, "duration": 8, "velocity": 72}, {"time": 2527, "pitch": 63, "duration": 7, "velocity": 83}, {"time": 2527, "pitch": 66, "duration": 7, "velocity": 81}, {"time": 2533, "pitch": 51, "duration": 10, "velocity": 88}, {"time": 2536, "pitch": 63, "duration": 4, "velocity": 89}, {"time": 2536, "pitch": 66, "duration": 4, "velocity": 77}, {"time": 2542, "pitch": 63, "duration": 8, "velocity": 82}, {"time": 2542, "pitch": 66, "duration": 8, "velocity": 72}, {"time": 2545, "pitch": 58, "duration": 4, "velocity": 42}, {"time": 2548, "pitch": 51, "duration": 4, "velocity": 73}, {"time": 2551, "pitch": 66, "duration": 11, "velocity": 127}, {"time": 2554, "pitch": 51, "duration": 3, "velocity": 96}, {"time": 2557, "pitch": 63, "duration": 5, "velocity": 100}, {"time": 2560, "pitch": 58, "duration": 2, "velocity": 97}, {"time": 2563, "pitch": 44, "duration": 19, "velocity": 97}, {"time": 2566, "pitch": 51, "duration": 14, "velocity": 95}, {"time": 2569, "pitch": 56, "duration": 7, "velocity": 107}, {"time": 2572, "pitch": 63, "duration": 5, "velocity": 117}, {"time": 2575, "pitch": 71, "duration": 10, "velocity": 127}, {"time": 2578, "pitch": 56, "duration": 2, "velocity": 112}, {"time": 2581, "pitch": 68, "duration": 4, "velocity": 102}, {"time": 2584, "pitch": 63, "duration": 3, "velocity": 99}, {"time": 2587, "pitch": 37, "duration": 16, "velocity": 78}, {"time": 2590, "pitch": 44, "duration": 13, "velocity": 95}, {"time": 2593, "pitch": 49, "duration": 6, "velocity": 95}, {"time": 2596, "pitch": 56, "duration": 5, "velocity": 96}, {"time": 2599, "pitch": 65, "duration": 12, "velocity": 122}, {"time": 2602, "pitch": 49, "duration": 3, "velocity": 92}, {"time": 2605, "pitch": 56, "duration": 4, "velocity": 100}, {"time": 2608, "pitch": 61, "duration": 2, "velocity": 100}, {"time": 2611, "pitch": 46, "duration": 17, "velocity": 76}, {"time": 2614, "pitch": 53, "duration": 10, "velocity": 82}, {"time": 2617, "pitch": 58, "duration": 3, "velocity": 95}, {"time": 2620, "pitch": 61, "duration": 3, "velocity": 112}, {"time": 2623, "pitch": 65, "duration": 9, "velocity": 127}, {"time": 2626, "pitch": 53, "duration": 2, "velocity": 107}, {"time": 2629, "pitch": 61, "duration": 4, "velocity": 96}, {"time": 2632, "pitch": 58, "duration": 5, "velocity": 100}, {"time": 2635, "pitch": 39, "duration": 17, "velocity": 82}, {"time": 2638, "pitch": 46, "duration": 14, "velocity": 89}, {"time": 2641, "pitch": 51, "duration": 7, "velocity": 93}, {"time": 2644, "pitch": 58, "duration": 5, "velocity": 95}, {"time": 2647, "pitch": 66, "duration": 12, "velocity": 100}, {"time": 2650, "pitch": 51, "duration": 4, "velocity": 97}, {"time": 2653, "pitch": 63, "duration": 6, "velocity": 86}, {"time": 2656, "pitch": 58, "duration": 3, "velocity": 93}, {"time": 2659, "pitch": 44, "duration": 18, "velocity": 93}, {"time": 2662, "pitch": 51, "duration": 14, "velocity": 69}, {"time": 2665, "pitch": 56, "duration": 7, "velocity": 92}, {"time": 2668, "pitch": 63, "duration": 5, "velocity": 83}, {"time": 2671, "pitch": 68, "duration": 6, "velocity": 82}, {"time": 2671, "pitch": 71, "duration": 11, "velocity": 95}, {"time": 2674, "pitch": 56, "duration": 1, "velocity": 99}, {"time": 2677, "pitch": 63, "duration": 6, "velocity": 96}, {"time": 2680, "pitch": 68, "duration": 2, "velocity": 82}, {"time": 2683, "pitch": 37, "duration": 18, "velocity": 78}, {"time": 2686, "pitch": 44, "duration": 14, "velocity": 59}, {"time": 2689, "pitch": 49, "duration": 7, "velocity": 77}, {"time": 2692, "pitch": 61, "duration": 4, "velocity": 96}, {"time": 2695, "pitch": 65, "duration": 11, "velocity": 89}, {"time": 2698, "pitch": 49, "duration": 8, "velocity": 86}, {"time": 2701, "pitch": 61, "duration": 6, "velocity": 95}, {"time": 2704, "pitch": 68, "duration": 3, "velocity": 93}, {"time": 2707, "pitch": 42, "duration": 45, "velocity": 71}, {"time": 2710, "pitch": 49, "duration": 44, "velocity": 69}, {"time": 2713, "pitch": 54, "duration": 7, "velocity": 85}, {"time": 2716, "pitch": 61, "duration": 3, "velocity": 92}, {"time": 2719, "pitch": 66, "duration": 7, "velocity": 99}, {"time": 2719, "pitch": 70, "duration": 7, "velocity": 102}, {"time": 2725, "pitch": 54, "duration": 12, "velocity": 88}, {"time": 2728, "pitch": 61, "duration": 4, "velocity": 89}, {"time": 2728, "pitch": 66, "duration": 4, "velocity": 86}, {"time": 2728, "pitch": 70, "duration": 4, "velocity": 82}, {"time": 2734, "pitch": 66, "duration": 7, "velocity": 95}, {"time": 2734, "pitch": 70, "duration": 7, "velocity": 96}, {"time": 2737, "pitch": 61, "duration": 4, "velocity": 78}, {"time": 2740, "pitch": 54, "duration": 4, "velocity": 89}, {"time": 2743, "pitch": 66, "duration": 7, "velocity": 99}, {"time": 2743, "pitch": 70, "duration": 7, "velocity": 102}, {"time": 2746, "pitch": 54, "duration": 3, "velocity": 96}, {"time": 2749, "pitch": 61, "duration": 5, "velocity": 99}, {"time": 2752, "pitch": 66, "duration": 3, "velocity": 89}, {"time": 2752, "pitch": 70, "duration": 3, "velocity": 92}, {"time": 2755, "pitch": 44, "duration": 17, "velocity": 90}, {"time": 2758, "pitch": 51, "duration": 14, "velocity": 76}, {"time": 2761, "pitch": 56, "duration": 7, "velocity": 95}, {"time": 2764, "pitch": 59, "duration": 5, "velocity": 88}, {"time": 2767, "pitch": 68, "duration": 11, "velocity": 99}, {"time": 2770, "pitch": 56, "duration": 2, "velocity": 93}, {"time": 2773, "pitch": 63, "duration": 5, "velocity": 90}, {"time": 2776, "pitch": 59, "duration": 3, "velocity": 100}, {"time": 2779, "pitch": 37, "duration": 16, "velocity": 68}, {"time": 2782, "pitch": 44, "duration": 14, "velocity": 88}, {"time": 2785, "pitch": 49, "duration": 7, "velocity": 97}, {"time": 2788, "pitch": 56, "duration": 5, "velocity": 97}, {"time": 2791, "pitch": 65, "duration": 12, "velocity": 112}, {"time": 2794, "pitch": 49, "duration": 3, "velocity": 93}, {"time": 2797, "pitch": 61, "duration": 6, "velocity": 88}, {"time": 2800, "pitch": 56, "duration": 3, "velocity": 88}, {"time": 2803, "pitch": 46, "duration": 17, "velocity": 81}, {"time": 2806, "pitch": 53, "duration": 11, "velocity": 83}, {"time": 2809, "pitch": 58, "duration": 4, "velocity": 96}, {"time": 2812, "pitch": 61, "duration": 4, "velocity": 95}, {"time": 2815, "pitch": 65, "duration": 10, "velocity": 107}, {"time": 2818, "pitch": 53, "duration": 2, "velocity": 102}, {"time": 2821, "pitch": 61, "duration": 4, "velocity": 95}, {"time": 2824, "pitch": 58, "duration": 5, "velocity": 92}, {"time": 2827, "pitch": 39, "duration": 17, "velocity": 75}, {"time": 2830, "pitch": 46, "duration": 14, "velocity": 95}, {"time": 2833, "pitch": 51, "duration": 7, "velocity": 92}, {"time": 2836, "pitch": 58, "duration": 7, "velocity": 89}, {"time": 2839, "pitch": 66, "duration": 12, "velocity": 100}, {"time": 2842, "pitch": 51, "duration": 5, "velocity": 88}, {"time": 2845, "pitch": 63, "duration": 6, "velocity": 85}, {"time": 2848, "pitch": 58, "duration": 3, "velocity": 93}, {"time": 2851, "pitch": 44, "duration": 18, "velocity": 73}, {"time": 2854, "pitch": 51, "duration": 14, "velocity": 72}, {"time": 2857, "pitch": 56, "duration": 7, "velocity": 86}, {"time": 2860, "pitch": 59, "duration": 5, "velocity": 79}, {"time": 2863, "pitch": 68, "duration": 12, "velocity": 85}, {"time": 2866, "pitch": 56, "duration": 2, "velocity": 92}, {"time": 2869, "pitch": 63, "duration": 6, "velocity": 77}, {"time": 2872, "pitch": 59, "duration": 3, "velocity": 97}, {"time": 2875, "pitch": 37, "duration": 18, "velocity": 73}, {"time": 2878, "pitch": 44, "duration": 15, "velocity": 78}, {"time": 2881, "pitch": 49, "duration": 8, "velocity": 96}, {"time": 2884, "pitch": 56, "duration": 7, "velocity": 89}, {"time": 2887, "pitch": 65, "duration": 11, "velocity": 127}, {"time": 2890, "pitch": 49, "duration": 7, "velocity": 89}, {"time": 2893, "pitch": 61, "duration": 5, "velocity": 83}, {"time": 2896, "pitch": 56, "duration": 3, "velocity": 90}, {"time": 2899, "pitch": 42, "duration": 22, "velocity": 78}, {"time": 2902, "pitch": 49, "duration": 21, "velocity": 72}, {"time": 2905, "pitch": 54, "duration": 7, "velocity": 90}, {"time": 2908, "pitch": 61, "duration": 6, "velocity": 89}, {"time": 2911, "pitch": 70, "duration": 22, "velocity": 102}, {"time": 2914, "pitch": 54, "duration": 12, "velocity": 95}, {"time": 2917, "pitch": 66, "duration": 16, "velocity": 97}, {"time": 2920, "pitch": 61, "duration": 9, "velocity": 86}, {"time": 2923, "pitch": 42, "duration": 24, "velocity": 72}, {"time": 2926, "pitch": 49, "duration": 20, "velocity": 61}, {"time": 2929, "pitch": 54, "duration": 7, "velocity": 79}, {"time": 2932, "pitch": 61, "duration": 5, "velocity": 89}, {"time": 2935, "pitch": 66, "duration": 12, "velocity": 100}, {"time": 2935, "pitch": 70, "duration": 12, "velocity": 100}, {"time": 2938, "pitch": 54, "duration": 6, "velocity": 99}, {"time": 2941, "pitch": 61, "duration": 6, "velocity": 89}, {"time": 2947, "pitch": 44, "duration": 17, "velocity": 83}, {"time": 2950, "pitch": 51, "duration": 10, "velocity": 79}, {"time": 2953, "pitch": 56, "duration": 5, "velocity": 92}, {"time": 2956, "pitch": 59, "duration": 6, "velocity": 93}, {"time": 2959, "pitch": 68, "duration": 11, "velocity": 102}, {"time": 2962, "pitch": 51, "duration": 2, "velocity": 73}, {"time": 2965, "pitch": 63, "duration": 5, "velocity": 78}, {"time": 2968, "pitch": 59, "duration": 4, "velocity": 86}, {"time": 2971, "pitch": 37, "duration": 16, "velocity": 77}, {"time": 2974, "pitch": 44, "duration": 13, "velocity": 65}, {"time": 2977, "pitch": 49, "duration": 7, "velocity": 88}, {"time": 2980, "pitch": 56, "duration": 6, "velocity": 93}, {"time": 2983, "pitch": 65, "duration": 12, "velocity": 100}, {"time": 2986, "pitch": 49, "duration": 3, "velocity": 88}, {"time": 2989, "pitch": 56, "duration": 4, "velocity": 90}, {"time": 2992, "pitch": 61, "duration": 3, "velocity": 90}, {"time": 2995, "pitch": 46, "duration": 18, "velocity": 73}, {"time": 2998, "pitch": 53, "duration": 11, "velocity": 79}, {"time": 3001, "pitch": 58, "duration": 4, "velocity": 88}, {"time": 3004, "pitch": 61, "duration": 17, "velocity": 96}, {"time": 3007, "pitch": 65, "duration": 14, "velocity": 107}, {"time": 3010, "pitch": 53, "duration": 2, "velocity": 90}, {"time": 3013, "pitch": 58, "duration": 7, "velocity": 89}, {"time": 3019, "pitch": 39, "duration": 16, "velocity": 70}, {"time": 3022, "pitch": 46, "duration": 14, "velocity": 88}, {"time": 3025, "pitch": 51, "duration": 7, "velocity": 88}, {"time": 3028, "pitch": 58, "duration": 7, "velocity": 83}, {"time": 3031, "pitch": 66, "duration": 11, "velocity": 83}, {"time": 3034, "pitch": 51, "duration": 4, "velocity": 89}, {"time": 3037, "pitch": 63, "duration": 5, "velocity": 89}, {"time": 3040, "pitch": 58, "duration": 3, "velocity": 88}, {"time": 3043, "pitch": 44, "duration": 18, "velocity": 69}, {"time": 3046, "pitch": 51, "duration": 10, "velocity": 62}, {"time": 3049, "pitch": 56, "duration": 5, "velocity": 90}, {"time": 3052, "pitch": 59, "duration": 4, "velocity": 89}, {"time": 3055, "pitch": 68, "duration": 11, "velocity": 93}, {"time": 3058, "pitch": 51, "duration": 2, "velocity": 78}, {"time": 3061, "pitch": 63, "duration": 5, "velocity": 72}, {"time": 3064, "pitch": 59, "duration": 3, "velocity": 97}, {"time": 3067, "pitch": 37, "duration": 16, "velocity": 58}, {"time": 3070, "pitch": 44, "duration": 13, "velocity": 89}, {"time": 3073, "pitch": 49, "duration": 7, "velocity": 85}, {"time": 3076, "pitch": 56, "duration": 7, "velocity": 83}, {"time": 3079, "pitch": 65, "duration": 12, "velocity": 107}, {"time": 3082, "pitch": 49, "duration": 4, "velocity": 85}, {"time": 3085, "pitch": 61, "duration": 5, "velocity": 72}, {"time": 3088, "pitch": 56, "duration": 2, "velocity": 92}, {"time": 3091, "pitch": 42, "duration": 22, "velocity": 72}, {"time": 3094, "pitch": 49, "duration": 22, "velocity": 69}, {"time": 3097, "pitch": 54, "duration": 7, "velocity": 81}, {"time": 3100, "pitch": 61, "duration": 10, "velocity": 89}, {"time": 3103, "pitch": 70, "duration": 20, "velocity": 93}, {"time": 3106, "pitch": 54, "duration": 13, "velocity": 86}, {"time": 3109, "pitch": 68, "duration": 14, "velocity": 90}, {"time": 3112, "pitch": 61, "duration": 10, "velocity": 61}, {"time": 3115, "pitch": 42, "duration": 22, "velocity": 81}, {"time": 3118, "pitch": 49, "duration": 21, "velocity": 50}, {"time": 3121, "pitch": 54, "duration": 6, "velocity": 69}, {"time": 3124, "pitch": 61, "duration": 4, "velocity": 53}, {"time": 3127, "pitch": 66, "duration": 7, "velocity": 66}, {"time": 3127, "pitch": 70, "duration": 12, "velocity": 71}, {"time": 3130, "pitch": 54, "duration": 9, "velocity": 74}, {"time": 3133, "pitch": 61, "duration": 6, "velocity": 74}, {"time": 3136, "pitch": 66, "duration": 3, "velocity": 58}, {"time": 3139, "pitch": 42, "duration": 45, "velocity": 45}, {"time": 3139, "pitch": 49, "duration": 47, "velocity": 40}, {"time": 3139, "pitch": 54, "duration": 47, "velocity": 36}, {"time": 3139, "pitch": 61, "duration": 48, "velocity": 43}, {"time": 3139, "pitch": 66, "duration": 48, "velocity": 47}, {"time": 3139, "pitch": 70, "duration": 48, "velocity": 46}, {"time": 3187, "pitch": 42, "duration": 38, "velocity": 69}, {"time": 3193, "pitch": 49, "duration": 34, "velocity": 55}, {"time": 3199, "pitch": 54, "duration": 15, "velocity": 82}, {"time": 3205, "pitch": 61, "duration": 25, "velocity": 56}, {"time": 3211, "pitch": 66, "duration": 12, "velocity": 82}, {"time": 3217, "pitch": 54, "duration": 6, "velocity": 65}, {"time": 3223, "pitch": 70, "duration": 13, "velocity": 88}, {"time": 3229, "pitch": 66, "duration": 7, "velocity": 59}, {"time": 3232, "pitch": 61, "duration": 4, "velocity": 75}, {"time": 3235, "pitch": 44, "duration": 40, "velocity": 81}, {"time": 3241, "pitch": 51, "duration": 31, "velocity": 42}, {"time": 3247, "pitch": 59, "duration": 16, "velocity": 83}, {"time": 3253, "pitch": 56, "duration": 6, "velocity": 44}, {"time": 3256, "pitch": 63, "duration": 9, "velocity": 69}, {"time": 3262, "pitch": 56, "duration": 4, "velocity": 67}, {"time": 3265, "pitch": 59, "duration": 7, "velocity": 66}, {"time": 3268, "pitch": 56, "duration": 4, "velocity": 88}, {"time": 3271, "pitch": 63, "duration": 1, "velocity": 63}, {"time": 3271, "pitch": 68, "duration": 11, "velocity": 97}, {"time": 3274, "pitch": 51, "duration": 1, "velocity": 68}, {"time": 3277, "pitch": 63, "duration": 6, "velocity": 72}, {"time": 3280, "pitch": 59, "duration": 3, "velocity": 72}, {"time": 3283, "pitch": 35, "duration": 47, "velocity": 70}, {"time": 3289, "pitch": 42, "duration": 39, "velocity": 52}, {"time": 3295, "pitch": 54, "duration": 12, "velocity": 69}, {"time": 3295, "pitch": 59, "duration": 9, "velocity": 72}, {"time": 3301, "pitch": 47, "duration": 10, "velocity": 59}, {"time": 3304, "pitch": 59, "duration": 13, "velocity": 66}, {"time": 3304, "pitch": 63, "duration": 13, "velocity": 79}, {"time": 3310, "pitch": 54, "duration": 8, "velocity": 69}, {"time": 3316, "pitch": 47, "duration": 4, "velocity": 48}, {"time": 3319, "pitch": 59, "duration": 11, "velocity": 93}, {"time": 3319, "pitch": 63, "duration": 11, "velocity": 82}, {"time": 3322, "pitch": 47, "duration": 4, "velocity": 67}, {"time": 3325, "pitch": 54, "duration": 5, "velocity": 79}, {"time": 3331, "pitch": 42, "duration": 44, "velocity": 97}, {"time": 3337, "pitch": 49, "duration": 41, "velocity": 55}, {"time": 3343, "pitch": 61, "duration": 8, "velocity": 72}, {"time": 3343, "pitch": 66, "duration": 7, "velocity": 72}, {"time": 3343, "pitch": 70, "duration": 8, "velocity": 67}, {"time": 3349, "pitch": 54, "duration": 7, "velocity": 55}, {"time": 3352, "pitch": 61, "duration": 4, "velocity": 64}, {"time": 3352, "pitch": 66, "duration": 13, "velocity": 67}, {"time": 3352, "pitch": 70, "duration": 13, "velocity": 59}, {"time": 3358, "pitch": 61, "duration": 8, "velocity": 68}, {"time": 3364, "pitch": 54, "duration": 4, "velocity": 72}, {"time": 3367, "pitch": 61, "duration": 1, "velocity": 33}, {"time": 3367, "pitch": 70, "duration": 18, "velocity": 89}, {"time": 3370, "pitch": 54, "duration": 3, "velocity": 59}, {"time": 3373, "pitch": 68, "duration": 12, "velocity": 66}, {"time": 3379, "pitch": 42, "duration": 42, "velocity": 66}, {"time": 3385, "pitch": 49, "duration": 41, "velocity": 40}, {"time": 3391, "pitch": 61, "duration": 12, "velocity": 69}, {"time": 3391, "pitch": 66, "duration": 11, "velocity": 69}, {"time": 3391, "pitch": 70, "duration": 11, "velocity": 58}, {"time": 3397, "pitch": 54, "duration": 8, "velocity": 35}, {"time": 3403, "pitch": 61, "duration": 13, "velocity": 65}, {"time": 3403, "pitch": 66, "duration": 10, "velocity": 68}, {"time": 3403, "pitch": 70, "duration": 10, "velocity": 67}, {"time": 3409, "pitch": 54, "duration": 6, "velocity": 59}, {"time": 3415, "pitch": 70, "duration": 12, "velocity": 82}, {"time": 3418, "pitch": 54, "duration": 2, "velocity": 67}, {"time": 3421, "pitch": 66, "duration": 6, "velocity": 68}, {"time": 3424, "pitch": 61, "duration": 3, "velocity": 62}, {"time": 3427, "pitch": 44, "duration": 42, "velocity": 68}, {"time": 3433, "pitch": 51, "duration": 9, "velocity": 56}, {"time": 3439, "pitch": 56, "duration": 10, "velocity": 48}, {"time": 3439, "pitch": 59, "duration": 7, "velocity": 67}, {"time": 3439, "pitch": 63, "duration": 7, "velocity": 67}, {"time": 3445, "pitch": 51, "duration": 23, "velocity": 56}, {"time": 3448, "pitch": 59, "duration": 1, "velocity": 63}, {"time": 3448, "pitch": 63, "duration": 2, "velocity": 66}, {"time": 3457, "pitch": 56, "duration": 7, "velocity": 45}, {"time": 3460, "pitch": 63, "duration": 5, "velocity": 58}, {"time": 3463, "pitch": 68, "duration": 7, "velocity": 79}, {"time": 3463, "pitch": 71, "duration": 12, "velocity": 81}, {"time": 3466, "pitch": 56, "duration": 1, "velocity": 70}, {"time": 3469, "pitch": 63, "duration": 6, "velocity": 73}, {"time": 3472, "pitch": 68, "duration": 3, "velocity": 61}, {"time": 3475, "pitch": 35, "duration": 48, "velocity": 71}, {"time": 3481, "pitch": 42, "duration": 40, "velocity": 46}, {"time": 3487, "pitch": 59, "duration": 7, "velocity": 71}, {"time": 3487, "pitch": 63, "duration": 7, "velocity": 66}, {"time": 3487, "pitch": 66, "duration": 7, "velocity": 64}, {"time": 3493, "pitch": 47, "duration": 11, "velocity": 41}, {"time": 3496, "pitch": 59, "duration": 3, "velocity": 60}, {"time": 3496, "pitch": 63, "duration": 5, "velocity": 63}, {"time": 3496, "pitch": 66, "duration": 5, "velocity": 65}, {"time": 3502, "pitch": 59, "duration": 8, "velocity": 67}, {"time": 3502, "pitch": 63, "duration": 7, "velocity": 69}, {"time": 3502, "pitch": 66, "duration": 7, "velocity": 68}, {"time": 3508, "pitch": 47, "duration": 4, "velocity": 47}, {"time": 3511, "pitch": 63, "duration": 11, "velocity": 79}, {"time": 3511, "pitch": 66, "duration": 11, "velocity": 85}, {"time": 3514, "pitch": 47, "duration": 8, "velocity": 61}, {"time": 3517, "pitch": 59, "duration": 6, "velocity": 72}, {"time": 3523, "pitch": 35, "duration": 42, "velocity": 64}, {"time": 3523, "pitch": 59, "duration": 10, "velocity": 51}, {"time": 3523, "pitch": 63, "duration": 9, "velocity": 48}, {"time": 3523, "pitch": 66, "duration": 10, "velocity": 38}, {"time": 3523, "pitch": 70, "duration": 10, "velocity": 47}, {"time": 3529, "pitch": 42, "duration": 36, "velocity": 36}, {"time": 3535, "pitch": 59, "duration": 7, "velocity": 63}, {"time": 3535, "pitch": 63, "duration": 7, "velocity": 61}, {"time": 3535, "pitch": 66, "duration": 7, "velocity": 56}, {"time": 3535, "pitch": 70, "duration": 6, "velocity": 56}, {"time": 3541, "pitch": 47, "duration": 10, "velocity": 35}, {"time": 3544, "pitch": 59, "duration": 5, "velocity": 63}, {"time": 3544, "pitch": 63, "duration": 5, "velocity": 62}, {"time": 3544, "pitch": 66, "duration": 5, "velocity": 55}, {"time": 3544, "pitch": 70, "duration": 4, "velocity": 55}, {"time": 3550, "pitch": 59, "duration": 8, "velocity": 60}, {"time": 3550, "pitch": 63, "duration": 7, "velocity": 57}, {"time": 3550, "pitch": 66, "duration": 7, "velocity": 56}, {"time": 3550, "pitch": 70, "duration": 7, "velocity": 56}, {"time": 3556, "pitch": 47, "duration": 4, "velocity": 52}, {"time": 3559, "pitch": 59, "duration": 2, "velocity": 38}, {"time": 3559, "pitch": 63, "duration": 7, "velocity": 66}, {"time": 3559, "pitch": 66, "duration": 8, "velocity": 65}, {"time": 3559, "pitch": 70, "duration": 8, "velocity": 64}, {"time": 3562, "pitch": 47, "duration": 4, "velocity": 66}, {"time": 3565, "pitch": 59, "duration": 23, "velocity": 59}, {"time": 3571, "pitch": 35, "duration": 17, "velocity": 59}, {"time": 3571, "pitch": 42, "duration": 17, "velocity": 48}, {"time": 3571, "pitch": 47, "duration": 17, "velocity": 52}, {"time": 3571, "pitch": 63, "duration": 17, "velocity": 55}, {"time": 3571, "pitch": 66, "duration": 17, "velocity": 59}, {"time": 3571, "pitch": 70, "duration": 17, "velocity": 65}], "annotations": [{"time": 21, "annotation": {"number": 64, "value": 127}, "group": "control_change"}, {"time": 66, "annotation": {"number": 64, "value": 0}, "group": "control_change"}, {"time": 67, "annotation": {"number": 64, "value": 127}, "group": "control_change"}, {"time": 113, "annotation": {"number": 64, "value": 0}, "group": "control_change"}, {"time": 115, "annotation": {"number": 64, "value": 127}, "group": "control_change"}, {"time": 161, "annotation": {"number": 64, "value": 0}, "group": "control_change"}, {"time": 163, "annotation": {"number": 64, "value": 127}, "group": "control_change"}, {"time": 206, "annotation": {"number": 64, "value": 0}, "group": "control_change"}, {"time": 211, "annotation": {"number": 64, "value": 127}, "group": "control_change"}, {"time": 257, "annotation": {"number": 64, "value": 0}, "group": "control_change"}, {"time": 259, "annotation": {"number": 64, "value": 127}, "group": "control_change"}, {"time": 305, "annotation": {"number": 64, "value": 0}, "group": "control_change"}, {"time": 307, "annotation": {"number": 64, "value": 127}, "group": "control_change"}, {"time": 328, "annotation": {"number": 64, "value": 0}, "group": "control_change"}, {"time": 329, "annotation": {"number": 64, "value": 127}, "group": "control_change"}, {"time": 353, "annotation": {"number": 64, "value": 0}, "group": "control_change"}, {"time": 355, "annotation": {"number": 64, "value": 127}, "group": "control_change"}, {"time": 402, "annotation": {"number": 64, "value": 0}, "group": "control_change"}, {"time": 403, "annotation": {"number": 64, "value": 127}, "group": "control_change"}, {"time": 451, "annotation": {"number": 64, "value": 0}, "group": "control_change"}, {"time": 464, "annotation": {"number": 64, "value": 127}, "group": "control_change"}, {"time": 496, "annotation": {"number": 64, "value": 0}, "group": "control_change"}, {"time": 498, "annotation": {"number": 64, "value": 127}, "group": "control_change"}, {"time": 544, "annotation": {"number": 64, "value": 0}, "group": "control_change"}, {"time": 545, "annotation": {"number": 64, "value": 0}, "group": "control_change"}, {"time": 547, "annotation": {"number": 64, "value": 127}, "group": "control_change"}, {"time": 593, "annotation": {"number": 64, "value": 0}, "group": "control_change"}, {"time": 595, "annotation": {"number": 64, "value": 127}, "group": "control_change"}, {"time": 641, "annotation": {"number": 64, "value": 0}, "group": "control_change"}, {"time": 642, "annotation": {"number": 64, "value": 127}, "group": "control_change"}, {"time": 689, "annotation": {"number": 64, "value": 0}, "group": "control_change"}, {"time": 691, "annotation": {"number": 64, "value": 127}, "group": "control_change"}, {"time": 736, "annotation": {"number": 64, "value": 0}, "group": "control_change"}, {"time": 738, "annotation": {"number": 64, "value": 127}, "group": "control_change"}, {"time": 785, "annotation": {"number": 64, "value": 0}, "group": "control_change"}, {"time": 787, "annotation": {"number": 64, "value": 127}, "group": "control_change"}, {"time": 835, "annotation": {"number": 64, "value": 0}, "group": "control_change"}, {"time": 848, "annotation": {"number": 64, "value": 127}, "group": "control_change"}, {"time": 880, "annotation": {"number": 64, "value": 0}, "group": "control_change"}, {"time": 882, "annotation": {"number": 64, "value": 127}, "group": "control_change"}, {"time": 928, "annotation": {"number": 64, "value": 0}, "group": "control_change"}, {"time": 929, "annotation": {"number": 64, "value": 0}, "group": "control_change"}, {"time": 931, "annotation": {"number": 64, "value": 127}, "group": "control_change"}, {"time": 977, "annotation": {"number": 64, "value": 0}, "group": "control_change"}, {"time": 979, "annotation": {"number": 64, "value": 127}, "group": "control_change"}, {"time": 1025, "annotation": {"number": 64, "value": 0}, "group": "control_change"}, {"time": 1026, "annotation": {"number": 64, "value": 127}, "group": "control_change"}, {"time": 1073, "annotation": {"number": 64, "value": 0}, "group": "control_change"}, {"time": 1075, "annotation": {"number": 64, "value": 127}, "group": "control_change"}, {"time": 1120, "annotation": {"number": 64, "value": 0}, "group": "control_change"}, {"time": 1122, "annotation": {"number": 64, "value": 127}, "group": "control_change"}, {"time": 1124, "annotation": {"number": 64, "value": 127}, "group": "control_change"}, {"time": 1168, "annotation": {"number": 64, "value": 0}, "group": "control_change"}, {"time": 1171, "annotation": {"number": 64, "value": 127}, "group": "control_change"}, {"time": 1193, "annotation": {"number": 64, "value": 0}, "group": "control_change"}, {"time": 1194, "annotation": {"number": 64, "value": 127}, "group": "control_change"}, {"time": 1216, "annotation": {"number": 64, "value": 0}, "group": "control_change"}, {"time": 1218, "annotation": {"number": 64, "value": 127}, "group": "control_change"}, {"time": 1240, "annotation": {"number": 64, "value": 0}, "group": "control_change"}, {"time": 1243, "annotation": {"number": 64, "value": 127}, "group": "control_change"}, {"time": 1264, "annotation": {"number": 64, "value": 0}, "group": "control_change"}, {"time": 1266, "annotation": {"number": 64, "value": 127}, "group": "control_change"}, {"time": 1288, "annotation": {"number": 64, "value": 0}, "group": "control_change"}, {"time": 1290, "annotation": {"number": 64, "value": 127}, "group": "control_change"}, {"time": 1312, "annotation": {"number": 64, "value": 0}, "group": "control_change"}, {"time": 1314, "annotation": {"number": 64, "value": 127}, "group": "control_change"}, {"time": 1335, "annotation": {"number": 64, "value": 0}, "group": "control_change"}, {"time": 1336, "annotation": {"number": 64, "value": 127}, "group": "control_change"}, {"time": 1348, "annotation": {"number": 64, "value": 0}, "group": "control_change"}, {"time": 1350, "annotation": {"number": 64, "value": 127}, "group": "control_change"}, {"time": 1360, "annotation": {"number": 64, "value": 0}, "group": "control_change"}, {"time": 1362, "annotation": {"number": 64, "value": 127}, "group": "control_change"}, {"time": 1384, "annotation": {"number": 64, "value": 0}, "group": "control_change"}, {"time": 1386, "annotation": {"number": 64, "value": 127}, "group": "control_change"}, {"time": 1408, "annotation": {"number": 64, "value": 0}, "group": "control_change"}, {"time": 1411, "annotation": {"number": 64, "value": 127}, "group": "control_change"}, {"time": 1432, "annotation": {"number": 64, "value": 0}, "group": "control_change"}, {"time": 1435, "annotation": {"number": 64, "value": 127}, "group": "control_change"}, {"time": 1456, "annotation": {"number": 64, "value": 0}, "group": "control_change"}, {"time": 1458, "annotation": {"number": 64, "value": 127}, "group": "control_change"}, {"time": 1481, "annotation": {"number": 64, "value": 0}, "group": "control_change"}, {"time": 1483, "annotation": {"number": 64, "value": 127}, "group": "control_change"}, {"time": 1505, "annotation": {"number": 64, "value": 0}, "group": "control_change"}, {"time": 1507, "annotation": {"number": 64, "value": 127}, "group": "control_change"}, {"time": 1529, "annotation": {"number": 64, "value": 0}, "group": "control_change"}, {"time": 1530, "annotation": {"number": 64, "value": 127}, "group": "control_change"}, {"time": 1552, "annotation": {"number": 64, "value": 0}, "group": "control_change"}, {"time": 1555, "annotation": {"number": 64, "value": 127}, "group": "control_change"}, {"time": 1576, "annotation": {"number": 64, "value": 0}, "group": "control_change"}, {"time": 1578, "annotation": {"number": 64, "value": 127}, "group": "control_change"}, {"time": 1600, "annotation": {"number": 64, "value": 0}, "group": "control_change"}, {"time": 1602, "annotation": {"number": 64, "value": 127}, "group": "control_change"}, {"time": 1625, "annotation": {"number": 64, "value": 0}, "group": "control_change"}, {"time": 1627, "annotation": {"number": 64, "value": 127}, "group": "control_change"}, {"time": 1648, "annotation": {"number": 64, "value": 0}, "group": "control_change"}, {"time": 1650, "annotation": {"number": 64, "value": 127}, "group": "control_change"}, {"time": 1673, "annotation": {"number": 64, "value": 0}, "group": "control_change"}, {"time": 1675, "annotation": {"number": 64, "value": 127}, "group": "control_change"}, {"time": 1697, "annotation": {"number": 64, "value": 0}, "group": "control_change"}, {"time": 1699, "annotation": {"number": 64, "value": 127}, "group": "control_change"}, {"time": 1721, "annotation": {"number": 64, "value": 0}, "group": "control_change"}, {"time": 1723, "annotation": {"number": 64, "value": 127}, "group": "control_change"}, {"time": 1744, "annotation": {"number": 64, "value": 0}, "group": "control_change"}, {"time": 1746, "annotation": {"number": 64, "value": 127}, "group": "control_change"}, {"time": 1792, "annotation": {"number": 64, "value": 0}, "group": "control_change"}, {"time": 1795, "annotation": {"number": 64, "value": 127}, "group": "control_change"}, {"time": 1841, "annotation": {"number": 64, "value": 0}, "group": "control_change"}, {"time": 1843, "annotation": {"number": 64, "value": 127}, "group": "control_change"}, {"time": 1890, "annotation": {"number": 64, "value": 0}, "group": "control_change"}, {"time": 1891, "annotation": {"number": 64, "value": 127}, "group": "control_change"}, {"time": 1937, "annotation": {"number": 64, "value": 0}, "group": "control_change"}, {"time": 1939, "annotation": {"number": 64, "value": 127}, "group": "control_change"}, {"time": 1985, "annotation": {"number": 64, "value": 0}, "group": "control_change"}, {"time": 1987, "annotation": {"number": 64, "value": 127}, "group": "control_change"}, {"time": 2033, "annotation": {"number": 64, "value": 0}, "group": "control_change"}, {"time": 2035, "annotation": {"number": 64, "value": 127}, "group": "control_change"}, {"time": 2081, "annotation": {"number": 64, "value": 0}, "group": "control_change"}, {"time": 2083, "annotation": {"number": 64, "value": 127}, "group": "control_change"}, {"time": 2105, "annotation": {"number": 64, "value": 0}, "group": "control_change"}, {"time": 2107, "annotation": {"number": 64, "value": 127}, "group": "control_change"}, {"time": 2129, "annotation": {"number": 64, "value": 0}, "group": "control_change"}, {"time": 2131, "annotation": {"number": 64, "value": 127}, "group": "control_change"}, {"time": 2153, "annotation": {"number": 64, "value": 0}, "group": "control_change"}, {"time": 2179, "annotation": {"number": 64, "value": 127}, "group": "control_change"}, {"time": 2227, "annotation": {"number": 64, "value": 0}, "group": "control_change"}, {"time": 2240, "annotation": {"number": 64, "value": 127}, "group": "control_change"}, {"time": 2272, "annotation": {"number": 64, "value": 0}, "group": "control_change"}, {"time": 2274, "annotation": {"number": 64, "value": 127}, "group": "control_change"}, {"time": 2320, "annotation": {"number": 64, "value": 0}, "group": "control_change"}, {"time": 2321, "annotation": {"number": 64, "value": 0}, "group": "control_change"}, {"time": 2323, "annotation": {"number": 64, "value": 127}, "group": "control_change"}, {"time": 2369, "annotation": {"number": 64, "value": 0}, "group": "control_change"}, {"time": 2371, "annotation": {"number": 64, "value": 127}, "group": "control_change"}, {"time": 2417, "annotation": {"number": 64, "value": 0}, "group": "control_change"}, {"time": 2418, "annotation": {"number": 64, "value": 127}, "group": "control_change"}, {"time": 2465, "annotation": {"number": 64, "value": 0}, "group": "control_change"}, {"time": 2467, "annotation": {"number": 64, "value": 127}, "group": "control_change"}, {"time": 2512, "annotation": {"number": 64, "value": 0}, "group": "control_change"}, {"time": 2514, "annotation": {"number": 64, "value": 127}, "group": "control_change"}, {"time": 2516, "annotation": {"number": 64, "value": 127}, "group": "control_change"}, {"time": 2560, "annotation": {"number": 64, "value": 0}, "group": "control_change"}, {"time": 2563, "annotation": {"number": 64, "value": 127}, "group": "control_change"}, {"time": 2585, "annotation": {"number": 64, "value": 0}, "group": "control_change"}, {"time": 2586, "annotation": {"number": 64, "value": 127}, "group": "control_change"}, {"time": 2608, "annotation": {"number": 64, "value": 0}, "group": "control_change"}, {"time": 2610, "annotation": {"number": 64, "value": 127}, "group": "control_change"}, {"time": 2632, "annotation": {"number": 64, "value": 0}, "group": "control_change"}, {"time": 2635, "annotation": {"number": 64, "value": 127}, "group": "control_change"}, {"time": 2656, "annotation": {"number": 64, "value": 0}, "group": "control_change"}, {"time": 2658, "annotation": {"number": 64, "value": 127}, "group": "control_change"}, {"time": 2680, "annotation": {"number": 64, "value": 0}, "group": "control_change"}, {"time": 2682, "annotation": {"number": 64, "value": 127}, "group": "control_change"}, {"time": 2704, "annotation": {"number": 64, "value": 0}, "group": "control_change"}, {"time": 2706, "annotation": {"number": 64, "value": 127}, "group": "control_change"}, {"time": 2727, "annotation": {"number": 64, "value": 0}, "group": "control_change"}, {"time": 2728, "annotation": {"number": 64, "value": 127}, "group": "control_change"}, {"time": 2740, "annotation": {"number": 64, "value": 0}, "group": "control_change"}, {"time": 2742, "annotation": {"number": 64, "value": 127}, "group": "control_change"}, {"time": 2752, "annotation": {"number": 64, "value": 0}, "group": "control_change"}, {"time": 2754, "annotation": {"number": 64, "value": 127}, "group": "control_change"}, {"time": 2776, "annotation": {"number": 64, "value": 0}, "group": "control_change"}, {"time": 2778, "annotation": {"number": 64, "value": 127}, "group": "control_change"}, {"time": 2800, "annotation": {"number": 64, "value": 0}, "group": "control_change"}, {"time": 2803, "annotation": {"number": 64, "value": 127}, "group": "control_change"}, {"time": 2824, "annotation": {"number": 64, "value": 0}, "group": "control_change"}, {"time": 2827, "annotation": {"number": 64, "value": 127}, "group": "control_change"}, {"time": 2848, "annotation": {"number": 64, "value": 0}, "group": "control_change"}, {"time": 2850, "annotation": {"number": 64, "value": 127}, "group": "control_change"}, {"time": 2873, "annotation": {"number": 64, "value": 0}, "group": "control_change"}, {"time": 2875, "annotation": {"number": 64, "value": 127}, "group": "control_change"}, {"time": 2897, "annotation": {"number": 64, "value": 0}, "group": "control_change"}, {"time": 2899, "annotation": {"number": 64, "value": 127}, "group": "control_change"}, {"time": 2921, "annotation": {"number": 64, "value": 0}, "group": "control_change"}, {"time": 2922, "annotation": {"number": 64, "value": 127}, "group": "control_change"}, {"time": 2944, "annotation": {"number": 64, "value": 0}, "group": "control_change"}, {"time": 2947, "annotation": {"number": 64, "value": 127}, "group": "control_change"}, {"time": 2968, "annotation": {"number": 64, "value": 0}, "group": "control_change"}, {"time": 2970, "annotation": {"number": 64, "value": 127}, "group": "control_change"}, {"time": 2992, "annotation": {"number": 64, "value": 0}, "group": "control_change"}, {"time": 2994, "annotation": {"number": 64, "value": 127}, "group": "control_change"}, {"time": 3017, "annotation": {"number": 64, "value": 0}, "group": "control_change"}, {"time": 3019, "annotation": {"number": 64, "value": 127}, "group": "control_change"}, {"time": 3040, "annotation": {"number": 64, "value": 0}, "group": "control_change"}, {"time": 3042, "annotation": {"number": 64, "value": 127}, "group": "control_change"}, {"time": 3065, "annotation": {"number": 64, "value": 0}, "group": "control_change"}, {"time": 3067, "annotation": {"number": 64, "value": 127}, "group": "control_change"}, {"time": 3089, "annotation": {"number": 64, "value": 0}, "group": "control_change"}, {"time": 3091, "annotation": {"number": 64, "value": 127}, "group": "control_change"}, {"time": 3113, "annotation": {"number": 64, "value": 0}, "group": "control_change"}, {"time": 3115, "annotation": {"number": 64, "value": 127}, "group": "control_change"}, {"time": 3136, "annotation": {"number": 64, "value": 0}, "group": "control_change"}, {"time": 3138, "annotation": {"number": 64, "value": 127}, "group": "control_change"}, {"time": 3146, "annotation": {"number": 64, "value": 127}, "group": "control_change"}, {"time": 3184, "annotation": {"number": 64, "value": 0}, "group": "control_change"}, {"time": 3187, "annotation": {"number": 64, "value": 127}, "group": "control_change"}, {"time": 3233, "annotation": {"number": 64, "value": 0}, "group": "control_change"}, {"time": 3235, "annotation": {"number": 64, "value": 127}, "group": "control_change"}, {"time": 3281, "annotation": {"number": 64, "value": 0}, "group": "control_change"}, {"time": 3282, "annotation": {"number": 64, "value": 127}, "group": "control_change"}, {"time": 3327, "annotation": {"number": 64, "value": 0}, "group": "control_change"}, {"time": 3337, "annotation": {"number": 64, "value": 127}, "group": "control_change"}, {"time": 3377, "annotation": {"number": 64, "value": 0}, "group": "control_change"}, {"time": 3378, "annotation": {"number": 64, "value": 127}, "group": "control_change"}, {"time": 3424, "annotation": {"number": 64, "value": 0}, "group": "control_change"}, {"time": 3426, "annotation": {"number": 64, "value": 127}, "group": "control_change"}, {"time": 3473, "annotation": {"number": 64, "value": 0}, "group": "control_change"}, {"time": 3474, "annotation": {"number": 64, "value": 127}, "group": "control_change"}, {"time": 3519, "annotation": {"number": 64, "value": 0}, "group": "control_change"}, {"time": 3524, "annotation": {"number": 64, "value": 127}, "group": "control_change"}, {"time": 3569, "annotation": {"number": 64, "value": 0}, "group": "control_change"}, {"time": 3576, "annotation": {"number": 64, "value": 127}, "group": "control_change"}, {"time": 3628, "annotation": {"number": 64, "value": 0}, "group": "control_change"}, {"time": 3628, "annotation": {"number": 64, "value": 127}, "group": "control_change"}, {"time": 3640, "annotation": {"number": 64, "value": 0}, "group": "control_change"}]}]}