{"metadata": {"schema_version": "0.2", "title": "None", "source_filename": "489.mid", "source_format": "midi"}, "resolution": 12, "tempos": [{"time": 0, "qpm": 69.00009660013524}], "time_signatures": [{"time": 0, "numerator": 1, "denominator": 4}], "tracks": [{"program": 4, "is_drum": false, "name": "MELODY", "notes": [{"time": 377, "pitch": 57, "duration": 5, "velocity": 72}, {"time": 383, "pitch": 64, "duration": 5, "velocity": 79}, {"time": 389, "pitch": 66, "duration": 2, "velocity": 97}, {"time": 392, "pitch": 66, "duration": 7, "velocity": 96}, {"time": 401, "pitch": 64, "duration": 4, "velocity": 92}, {"time": 404, "pitch": 66, "duration": 6, "velocity": 112}, {"time": 410, "pitch": 64, "duration": 4, "velocity": 83}, {"time": 416, "pitch": 57, "duration": 8, "velocity": 92}, {"time": 428, "pitch": 54, "duration": 2, "velocity": 79}, {"time": 431, "pitch": 61, "duration": 6, "velocity": 81}, {"time": 437, "pitch": 62, "duration": 2, "velocity": 69}, {"time": 440, "pitch": 62, "duration": 7, "velocity": 82}, {"time": 449, "pitch": 61, "duration": 4, "velocity": 95}, {"time": 452, "pitch": 62, "duration": 7, "velocity": 93}, {"time": 458, "pitch": 61, "duration": 5, "velocity": 107}, {"time": 464, "pitch": 54, "duration": 8, "velocity": 83}, {"time": 476, "pitch": 54, "duration": 2, "velocity": 92}, {"time": 479, "pitch": 66, "duration": 5, "velocity": 96}, {"time": 485, "pitch": 67, "duration": 1, "velocity": 90}, {"time": 488, "pitch": 67, "duration": 8, "velocity": 95}, {"time": 497, "pitch": 66, "duration": 1, "velocity": 95}, {"time": 500, "pitch": 67, "duration": 6, "velocity": 88}, {"time": 509, "pitch": 66, "duration": 4, "velocity": 93}, {"time": 515, "pitch": 59, "duration": 5, "velocity": 89}, {"time": 521, "pitch": 62, "duration": 3, "velocity": 95}, {"time": 527, "pitch": 62, "duration": 2, "velocity": 99}, {"time": 533, "pitch": 62, "duration": 1, "velocity": 89}, {"time": 536, "pitch": 62, "duration": 1, "velocity": 90}, {"time": 542, "pitch": 64, "duration": 1, "velocity": 90}, {"time": 545, "pitch": 66, "duration": 6, "velocity": 100}, {"time": 551, "pitch": 64, "duration": 12, "velocity": 92}, {"time": 572, "pitch": 57, "duration": 2, "velocity": 86}, {"time": 575, "pitch": 64, "duration": 5, "velocity": 93}, {"time": 581, "pitch": 66, "duration": 5, "velocity": 92}, {"time": 584, "pitch": 66, "duration": 2, "velocity": 100}, {"time": 593, "pitch": 64, "duration": 1, "velocity": 93}, {"time": 596, "pitch": 66, "duration": 4, "velocity": 99}, {"time": 602, "pitch": 64, "duration": 4, "velocity": 89}, {"time": 608, "pitch": 57, "duration": 5, "velocity": 86}, {"time": 620, "pitch": 54, "duration": 2, "velocity": 83}, {"time": 623, "pitch": 61, "duration": 5, "velocity": 96}, {"time": 629, "pitch": 62, "duration": 3, "velocity": 89}, {"time": 635, "pitch": 62, "duration": 3, "velocity": 95}, {"time": 641, "pitch": 61, "duration": 2, "velocity": 97}, {"time": 644, "pitch": 62, "duration": 5, "velocity": 92}, {"time": 650, "pitch": 64, "duration": 3, "velocity": 99}, {"time": 656, "pitch": 66, "duration": 7, "velocity": 102}, {"time": 668, "pitch": 59, "duration": 1, "velocity": 92}, {"time": 671, "pitch": 66, "duration": 4, "velocity": 107}, {"time": 677, "pitch": 67, "duration": 1, "velocity": 92}, {"time": 680, "pitch": 67, "duration": 5, "velocity": 100}, {"time": 689, "pitch": 66, "duration": 1, "velocity": 102}, {"time": 692, "pitch": 67, "duration": 5, "velocity": 97}, {"time": 701, "pitch": 66, "duration": 5, "velocity": 97}, {"time": 707, "pitch": 59, "duration": 4, "velocity": 95}, {"time": 713, "pitch": 62, "duration": 4, "velocity": 107}, {"time": 719, "pitch": 62, "duration": 4, "velocity": 100}, {"time": 725, "pitch": 62, "duration": 1, "velocity": 89}, {"time": 728, "pitch": 62, "duration": 3, "velocity": 97}, {"time": 734, "pitch": 64, "duration": 1, "velocity": 89}, {"time": 737, "pitch": 66, "duration": 8, "velocity": 117}, {"time": 743, "pitch": 64, "duration": 9, "velocity": 97}, {"time": 755, "pitch": 66, "duration": 4, "velocity": 102}, {"time": 761, "pitch": 67, "duration": 4, "velocity": 96}, {"time": 767, "pitch": 69, "duration": 9, "velocity": 107}, {"time": 776, "pitch": 69, "duration": 5, "velocity": 102}, {"time": 785, "pitch": 69, "duration": 1, "velocity": 117}, {"time": 788, "pitch": 69, "duration": 5, "velocity": 117}, {"time": 797, "pitch": 67, "duration": 1, "velocity": 95}, {"time": 800, "pitch": 67, "duration": 5, "velocity": 100}, {"time": 806, "pitch": 66, "duration": 6, "velocity": 97}, {"time": 815, "pitch": 66, "duration": 16, "velocity": 107}, {"time": 851, "pitch": 64, "duration": 4, "velocity": 93}, {"time": 857, "pitch": 66, "duration": 4, "velocity": 100}, {"time": 863, "pitch": 67, "duration": 4, "velocity": 112}, {"time": 872, "pitch": 67, "duration": 5, "velocity": 112}, {"time": 881, "pitch": 67, "duration": 1, "velocity": 100}, {"time": 884, "pitch": 67, "duration": 6, "velocity": 107}, {"time": 893, "pitch": 66, "duration": 5, "velocity": 99}, {"time": 899, "pitch": 59, "duration": 6, "velocity": 96}, {"time": 905, "pitch": 62, "duration": 4, "velocity": 99}, {"time": 911, "pitch": 62, "duration": 7, "velocity": 95}, {"time": 920, "pitch": 64, "duration": 7, "velocity": 102}, {"time": 929, "pitch": 66, "duration": 6, "velocity": 96}, {"time": 935, "pitch": 64, "duration": 7, "velocity": 92}, {"time": 947, "pitch": 66, "duration": 4, "velocity": 127}, {"time": 953, "pitch": 67, "duration": 3, "velocity": 93}, {"time": 959, "pitch": 69, "duration": 5, "velocity": 117}, {"time": 968, "pitch": 69, "duration": 6, "velocity": 102}, {"time": 977, "pitch": 69, "duration": 1, "velocity": 102}, {"time": 980, "pitch": 69, "duration": 4, "velocity": 112}, {"time": 989, "pitch": 67, "duration": 1, "velocity": 93}, {"time": 992, "pitch": 67, "duration": 4, "velocity": 100}, {"time": 998, "pitch": 66, "duration": 3, "velocity": 102}, {"time": 1004, "pitch": 66, "duration": 1, "velocity": 102}, {"time": 1007, "pitch": 66, "duration": 4, "velocity": 117}, {"time": 1013, "pitch": 66, "duration": 2, "velocity": 102}, {"time": 1016, "pitch": 66, "duration": 5, "velocity": 112}, {"time": 1022, "pitch": 67, "duration": 7, "velocity": 97}, {"time": 1031, "pitch": 66, "duration": 5, "velocity": 102}, {"time": 1043, "pitch": 64, "duration": 4, "velocity": 99}, {"time": 1049, "pitch": 66, "duration": 1, "velocity": 95}, {"time": 1052, "pitch": 67, "duration": 8, "velocity": 86}, {"time": 1067, "pitch": 59, "duration": 5, "velocity": 95}, {"time": 1073, "pitch": 62, "duration": 4, "velocity": 92}, {"time": 1079, "pitch": 62, "duration": 9, "velocity": 100}, {"time": 1091, "pitch": 61, "duration": 11, "velocity": 96}, {"time": 1103, "pitch": 62, "duration": 17, "velocity": 96}, {"time": 1193, "pitch": 57, "duration": 5, "velocity": 72}, {"time": 1199, "pitch": 64, "duration": 5, "velocity": 79}, {"time": 1205, "pitch": 66, "duration": 2, "velocity": 97}, {"time": 1208, "pitch": 66, "duration": 7, "velocity": 96}, {"time": 1217, "pitch": 64, "duration": 4, "velocity": 92}, {"time": 1220, "pitch": 66, "duration": 6, "velocity": 112}, {"time": 1226, "pitch": 64, "duration": 4, "velocity": 83}, {"time": 1232, "pitch": 57, "duration": 8, "velocity": 92}, {"time": 1244, "pitch": 54, "duration": 2, "velocity": 79}, {"time": 1247, "pitch": 61, "duration": 6, "velocity": 81}, {"time": 1253, "pitch": 62, "duration": 2, "velocity": 69}, {"time": 1256, "pitch": 62, "duration": 7, "velocity": 82}, {"time": 1265, "pitch": 61, "duration": 4, "velocity": 95}, {"time": 1268, "pitch": 62, "duration": 7, "velocity": 93}, {"time": 1274, "pitch": 61, "duration": 5, "velocity": 107}, {"time": 1280, "pitch": 54, "duration": 8, "velocity": 83}, {"time": 1292, "pitch": 54, "duration": 2, "velocity": 92}, {"time": 1295, "pitch": 66, "duration": 5, "velocity": 96}, {"time": 1301, "pitch": 67, "duration": 1, "velocity": 90}, {"time": 1304, "pitch": 67, "duration": 8, "velocity": 95}, {"time": 1313, "pitch": 66, "duration": 1, "velocity": 95}, {"time": 1316, "pitch": 67, "duration": 6, "velocity": 88}, {"time": 1325, "pitch": 66, "duration": 4, "velocity": 93}, {"time": 1331, "pitch": 59, "duration": 5, "velocity": 89}, {"time": 1337, "pitch": 62, "duration": 3, "velocity": 95}, {"time": 1343, "pitch": 62, "duration": 2, "velocity": 99}, {"time": 1349, "pitch": 62, "duration": 1, "velocity": 89}, {"time": 1352, "pitch": 62, "duration": 1, "velocity": 90}, {"time": 1358, "pitch": 64, "duration": 1, "velocity": 90}, {"time": 1361, "pitch": 66, "duration": 6, "velocity": 100}, {"time": 1367, "pitch": 64, "duration": 12, "velocity": 92}, {"time": 1388, "pitch": 57, "duration": 2, "velocity": 86}, {"time": 1391, "pitch": 64, "duration": 5, "velocity": 93}, {"time": 1397, "pitch": 66, "duration": 5, "velocity": 92}, {"time": 1400, "pitch": 66, "duration": 2, "velocity": 100}, {"time": 1409, "pitch": 64, "duration": 1, "velocity": 93}, {"time": 1412, "pitch": 66, "duration": 4, "velocity": 99}, {"time": 1418, "pitch": 64, "duration": 4, "velocity": 89}, {"time": 1424, "pitch": 57, "duration": 5, "velocity": 86}, {"time": 1436, "pitch": 54, "duration": 2, "velocity": 83}, {"time": 1439, "pitch": 61, "duration": 5, "velocity": 96}, {"time": 1445, "pitch": 62, "duration": 3, "velocity": 89}, {"time": 1451, "pitch": 62, "duration": 3, "velocity": 95}, {"time": 1457, "pitch": 61, "duration": 2, "velocity": 97}, {"time": 1460, "pitch": 62, "duration": 5, "velocity": 92}, {"time": 1466, "pitch": 64, "duration": 3, "velocity": 99}, {"time": 1472, "pitch": 66, "duration": 7, "velocity": 102}, {"time": 1484, "pitch": 59, "duration": 1, "velocity": 92}, {"time": 1487, "pitch": 66, "duration": 4, "velocity": 107}, {"time": 1493, "pitch": 67, "duration": 1, "velocity": 92}, {"time": 1496, "pitch": 67, "duration": 5, "velocity": 100}, {"time": 1505, "pitch": 66, "duration": 1, "velocity": 102}, {"time": 1508, "pitch": 67, "duration": 5, "velocity": 97}, {"time": 1517, "pitch": 66, "duration": 5, "velocity": 97}, {"time": 1523, "pitch": 59, "duration": 4, "velocity": 95}, {"time": 1529, "pitch": 62, "duration": 4, "velocity": 107}, {"time": 1535, "pitch": 62, "duration": 4, "velocity": 100}, {"time": 1541, "pitch": 62, "duration": 1, "velocity": 89}, {"time": 1544, "pitch": 62, "duration": 3, "velocity": 97}, {"time": 1550, "pitch": 64, "duration": 1, "velocity": 89}, {"time": 1553, "pitch": 66, "duration": 8, "velocity": 117}, {"time": 1559, "pitch": 64, "duration": 9, "velocity": 97}, {"time": 1571, "pitch": 66, "duration": 4, "velocity": 102}, {"time": 1577, "pitch": 67, "duration": 4, "velocity": 96}, {"time": 1583, "pitch": 69, "duration": 9, "velocity": 107}, {"time": 1592, "pitch": 69, "duration": 5, "velocity": 102}, {"time": 1601, "pitch": 69, "duration": 1, "velocity": 117}, {"time": 1604, "pitch": 69, "duration": 5, "velocity": 117}, {"time": 1613, "pitch": 67, "duration": 1, "velocity": 95}, {"time": 1616, "pitch": 67, "duration": 5, "velocity": 100}, {"time": 1622, "pitch": 66, "duration": 6, "velocity": 97}, {"time": 1631, "pitch": 66, "duration": 16, "velocity": 107}, {"time": 1667, "pitch": 64, "duration": 4, "velocity": 93}, {"time": 1673, "pitch": 66, "duration": 4, "velocity": 100}, {"time": 1679, "pitch": 67, "duration": 4, "velocity": 112}, {"time": 1688, "pitch": 67, "duration": 5, "velocity": 112}, {"time": 1697, "pitch": 67, "duration": 1, "velocity": 100}, {"time": 1700, "pitch": 67, "duration": 6, "velocity": 107}, {"time": 1709, "pitch": 66, "duration": 5, "velocity": 99}, {"time": 1715, "pitch": 59, "duration": 6, "velocity": 96}, {"time": 1721, "pitch": 62, "duration": 4, "velocity": 99}, {"time": 1727, "pitch": 62, "duration": 7, "velocity": 95}, {"time": 1736, "pitch": 64, "duration": 7, "velocity": 102}, {"time": 1745, "pitch": 66, "duration": 6, "velocity": 96}, {"time": 1751, "pitch": 64, "duration": 7, "velocity": 92}, {"time": 1763, "pitch": 66, "duration": 4, "velocity": 127}, {"time": 1769, "pitch": 67, "duration": 3, "velocity": 93}, {"time": 1775, "pitch": 69, "duration": 5, "velocity": 117}, {"time": 1784, "pitch": 69, "duration": 6, "velocity": 102}, {"time": 1793, "pitch": 69, "duration": 1, "velocity": 102}, {"time": 1796, "pitch": 69, "duration": 4, "velocity": 112}, {"time": 1805, "pitch": 67, "duration": 1, "velocity": 93}, {"time": 1808, "pitch": 67, "duration": 4, "velocity": 100}, {"time": 1814, "pitch": 66, "duration": 3, "velocity": 102}, {"time": 1820, "pitch": 66, "duration": 1, "velocity": 102}, {"time": 1823, "pitch": 66, "duration": 4, "velocity": 117}, {"time": 1829, "pitch": 66, "duration": 2, "velocity": 102}, {"time": 1832, "pitch": 66, "duration": 5, "velocity": 112}, {"time": 1838, "pitch": 67, "duration": 7, "velocity": 97}, {"time": 1847, "pitch": 66, "duration": 5, "velocity": 102}, {"time": 1859, "pitch": 64, "duration": 4, "velocity": 99}, {"time": 1865, "pitch": 66, "duration": 1, "velocity": 95}, {"time": 1868, "pitch": 67, "duration": 8, "velocity": 86}, {"time": 1883, "pitch": 59, "duration": 5, "velocity": 95}, {"time": 1889, "pitch": 62, "duration": 4, "velocity": 92}, {"time": 1895, "pitch": 62, "duration": 9, "velocity": 100}, {"time": 1907, "pitch": 61, "duration": 11, "velocity": 96}, {"time": 1919, "pitch": 62, "duration": 17, "velocity": 96}, {"time": 2381, "pitch": 57, "duration": 4, "velocity": 97}, {"time": 2387, "pitch": 66, "duration": 4, "velocity": 97}, {"time": 2393, "pitch": 67, "duration": 5, "velocity": 112}, {"time": 2399, "pitch": 69, "duration": 10, "velocity": 100}, {"time": 2408, "pitch": 69, "duration": 1, "velocity": 107}, {"time": 2417, "pitch": 69, "duration": 1, "velocity": 117}, {"time": 2420, "pitch": 69, "duration": 6, "velocity": 117}, {"time": 2429, "pitch": 67, "duration": 1, "velocity": 100}, {"time": 2432, "pitch": 67, "duration": 6, "velocity": 107}, {"time": 2441, "pitch": 66, "duration": 4, "velocity": 99}, {"time": 2447, "pitch": 66, "duration": 5, "velocity": 112}, {"time": 2483, "pitch": 64, "duration": 4, "velocity": 112}, {"time": 2489, "pitch": 66, "duration": 4, "velocity": 117}, {"time": 2495, "pitch": 67, "duration": 5, "velocity": 122}, {"time": 2504, "pitch": 67, "duration": 7, "velocity": 107}, {"time": 2513, "pitch": 67, "duration": 1, "velocity": 96}, {"time": 2516, "pitch": 67, "duration": 5, "velocity": 102}, {"time": 2525, "pitch": 66, "duration": 5, "velocity": 100}, {"time": 2531, "pitch": 59, "duration": 5, "velocity": 97}, {"time": 2537, "pitch": 62, "duration": 5, "velocity": 107}, {"time": 2543, "pitch": 62, "duration": 8, "velocity": 122}, {"time": 2549, "pitch": 64, "duration": 4, "velocity": 102}, {"time": 2555, "pitch": 66, "duration": 5, "velocity": 107}, {"time": 2564, "pitch": 64, "duration": 6, "velocity": 100}, {"time": 2576, "pitch": 57, "duration": 2, "velocity": 93}, {"time": 2579, "pitch": 66, "duration": 4, "velocity": 102}, {"time": 2585, "pitch": 67, "duration": 4, "velocity": 96}, {"time": 2591, "pitch": 69, "duration": 9, "velocity": 107}, {"time": 2600, "pitch": 69, "duration": 5, "velocity": 102}, {"time": 2609, "pitch": 69, "duration": 1, "velocity": 117}, {"time": 2612, "pitch": 69, "duration": 5, "velocity": 117}, {"time": 2621, "pitch": 67, "duration": 1, "velocity": 95}, {"time": 2624, "pitch": 67, "duration": 5, "velocity": 100}, {"time": 2630, "pitch": 66, "duration": 3, "velocity": 99}, {"time": 2636, "pitch": 66, "duration": 1, "velocity": 102}, {"time": 2639, "pitch": 60, "duration": 13, "velocity": 97}, {"time": 2639, "pitch": 66, "duration": 5, "velocity": 117}, {"time": 2645, "pitch": 66, "duration": 1, "velocity": 97}, {"time": 2648, "pitch": 66, "duration": 4, "velocity": 90}, {"time": 2654, "pitch": 67, "duration": 6, "velocity": 95}, {"time": 2663, "pitch": 66, "duration": 9, "velocity": 95}, {"time": 2675, "pitch": 64, "duration": 4, "velocity": 93}, {"time": 2681, "pitch": 66, "duration": 4, "velocity": 100}, {"time": 2684, "pitch": 67, "duration": 12, "velocity": 89}, {"time": 2696, "pitch": 59, "duration": 1, "velocity": 86}, {"time": 2699, "pitch": 59, "duration": 5, "velocity": 90}, {"time": 2705, "pitch": 62, "duration": 4, "velocity": 82}, {"time": 2711, "pitch": 62, "duration": 6, "velocity": 97}, {"time": 2723, "pitch": 65, "duration": 2, "velocity": 112}, {"time": 2726, "pitch": 64, "duration": 7, "velocity": 89}, {"time": 2735, "pitch": 62, "duration": 32, "velocity": 90}, {"time": 2771, "pitch": 66, "duration": 4, "velocity": 127}, {"time": 2777, "pitch": 67, "duration": 3, "velocity": 93}, {"time": 2783, "pitch": 69, "duration": 5, "velocity": 117}, {"time": 2792, "pitch": 69, "duration": 6, "velocity": 102}, {"time": 2801, "pitch": 69, "duration": 1, "velocity": 102}, {"time": 2804, "pitch": 69, "duration": 4, "velocity": 112}, {"time": 2813, "pitch": 67, "duration": 1, "velocity": 93}, {"time": 2816, "pitch": 67, "duration": 4, "velocity": 100}, {"time": 2822, "pitch": 66, "duration": 5, "velocity": 102}, {"time": 2831, "pitch": 66, "duration": 4, "velocity": 117}, {"time": 2837, "pitch": 66, "duration": 2, "velocity": 102}, {"time": 2840, "pitch": 66, "duration": 5, "velocity": 112}, {"time": 2846, "pitch": 67, "duration": 7, "velocity": 97}, {"time": 2855, "pitch": 66, "duration": 5, "velocity": 102}, {"time": 2867, "pitch": 64, "duration": 4, "velocity": 99}, {"time": 2873, "pitch": 66, "duration": 1, "velocity": 95}, {"time": 2876, "pitch": 67, "duration": 8, "velocity": 86}, {"time": 2888, "pitch": 59, "duration": 3, "velocity": 95}, {"time": 2891, "pitch": 59, "duration": 1, "velocity": 95}, {"time": 2897, "pitch": 62, "duration": 4, "velocity": 92}, {"time": 2903, "pitch": 62, "duration": 9, "velocity": 100}, {"time": 2915, "pitch": 61, "duration": 11, "velocity": 96}, {"time": 2927, "pitch": 69, "duration": 9, "velocity": 117}, {"time": 2939, "pitch": 64, "duration": 4, "velocity": 100}, {"time": 2945, "pitch": 69, "duration": 4, "velocity": 102}, {"time": 2951, "pitch": 67, "duration": 8, "velocity": 117}, {"time": 2963, "pitch": 66, "duration": 6, "velocity": 122}, {"time": 2975, "pitch": 67, "duration": 4, "velocity": 99}, {"time": 2981, "pitch": 66, "duration": 4, "velocity": 107}, {"time": 2987, "pitch": 59, "duration": 4, "velocity": 100}, {"time": 2993, "pitch": 62, "duration": 3, "velocity": 122}, {"time": 2999, "pitch": 62, "duration": 9, "velocity": 107}, {"time": 3011, "pitch": 66, "duration": 4, "velocity": 112}, {"time": 3014, "pitch": 64, "duration": 4, "velocity": 88}, {"time": 3023, "pitch": 62, "duration": 17, "velocity": 96}]}, {"program": 0, "is_drum": false, "name": "PIANO", "notes": [{"time": 143, "pitch": 45, "duration": 49, "velocity": 79}, {"time": 143, "pitch": 57, "duration": 6, "velocity": 92}, {"time": 149, "pitch": 59, "duration": 6, "velocity": 68}, {"time": 155, "pitch": 57, "duration": 6, "velocity": 75}, {"time": 161, "pitch": 59, "duration": 5, "velocity": 72}, {"time": 167, "pitch": 57, "duration": 5, "velocity": 92}, {"time": 173, "pitch": 59, "duration": 5, "velocity": 77}, {"time": 179, "pitch": 57, "duration": 6, "velocity": 70}, {"time": 185, "pitch": 59, "duration": 6, "velocity": 70}, {"time": 191, "pitch": 50, "duration": 22, "velocity": 64}, {"time": 197, "pitch": 57, "duration": 7, "velocity": 57}, {"time": 203, "pitch": 62, "duration": 18, "velocity": 71}, {"time": 209, "pitch": 57, "duration": 8, "velocity": 56}, {"time": 215, "pitch": 50, "duration": 23, "velocity": 57}, {"time": 221, "pitch": 57, "duration": 7, "velocity": 51}, {"time": 227, "pitch": 62, "duration": 14, "velocity": 61}, {"time": 227, "pitch": 66, "duration": 13, "velocity": 70}, {"time": 233, "pitch": 57, "duration": 7, "velocity": 48}, {"time": 239, "pitch": 50, "duration": 23, "velocity": 68}, {"time": 245, "pitch": 57, "duration": 7, "velocity": 46}, {"time": 251, "pitch": 62, "duration": 20, "velocity": 56}, {"time": 251, "pitch": 66, "duration": 19, "velocity": 68}, {"time": 257, "pitch": 57, "duration": 9, "velocity": 48}, {"time": 263, "pitch": 50, "duration": 21, "velocity": 57}, {"time": 269, "pitch": 57, "duration": 7, "velocity": 54}, {"time": 275, "pitch": 62, "duration": 19, "velocity": 64}, {"time": 275, "pitch": 66, "duration": 21, "velocity": 66}, {"time": 281, "pitch": 57, "duration": 9, "velocity": 58}, {"time": 287, "pitch": 50, "duration": 15, "velocity": 82}, {"time": 293, "pitch": 57, "duration": 7, "velocity": 56}, {"time": 299, "pitch": 62, "duration": 19, "velocity": 66}, {"time": 299, "pitch": 66, "duration": 18, "velocity": 65}, {"time": 305, "pitch": 50, "duration": 4, "velocity": 59}, {"time": 311, "pitch": 50, "duration": 21, "velocity": 72}, {"time": 317, "pitch": 57, "duration": 7, "velocity": 69}, {"time": 323, "pitch": 62, "duration": 7, "velocity": 67}, {"time": 323, "pitch": 66, "duration": 22, "velocity": 60}, {"time": 329, "pitch": 57, "duration": 7, "velocity": 73}, {"time": 332, "pitch": 62, "duration": 10, "velocity": 55}, {"time": 335, "pitch": 50, "duration": 22, "velocity": 72}, {"time": 341, "pitch": 57, "duration": 7, "velocity": 48}, {"time": 347, "pitch": 62, "duration": 22, "velocity": 62}, {"time": 347, "pitch": 66, "duration": 22, "velocity": 58}, {"time": 353, "pitch": 57, "duration": 9, "velocity": 54}, {"time": 359, "pitch": 50, "duration": 22, "velocity": 69}, {"time": 365, "pitch": 57, "duration": 17, "velocity": 49}, {"time": 371, "pitch": 62, "duration": 2, "velocity": 27}, {"time": 383, "pitch": 38, "duration": 14, "velocity": 74}, {"time": 389, "pitch": 45, "duration": 14, "velocity": 53}, {"time": 395, "pitch": 50, "duration": 4, "velocity": 55}, {"time": 395, "pitch": 62, "duration": 22, "velocity": 78}, {"time": 395, "pitch": 66, "duration": 22, "velocity": 93}, {"time": 401, "pitch": 38, "duration": 3, "velocity": 41}, {"time": 407, "pitch": 38, "duration": 16, "velocity": 76}, {"time": 413, "pitch": 45, "duration": 10, "velocity": 48}, {"time": 419, "pitch": 50, "duration": 7, "velocity": 61}, {"time": 419, "pitch": 66, "duration": 15, "velocity": 89}, {"time": 425, "pitch": 57, "duration": 6, "velocity": 76}, {"time": 431, "pitch": 47, "duration": 16, "velocity": 68}, {"time": 437, "pitch": 54, "duration": 12, "velocity": 53}, {"time": 443, "pitch": 59, "duration": 18, "velocity": 30}, {"time": 443, "pitch": 62, "duration": 18, "velocity": 67}, {"time": 443, "pitch": 66, "duration": 18, "velocity": 88}, {"time": 449, "pitch": 47, "duration": 4, "velocity": 63}, {"time": 455, "pitch": 47, "duration": 17, "velocity": 72}, {"time": 461, "pitch": 54, "duration": 9, "velocity": 66}, {"time": 467, "pitch": 66, "duration": 8, "velocity": 99}, {"time": 473, "pitch": 59, "duration": 6, "velocity": 72}, {"time": 479, "pitch": 36, "duration": 15, "velocity": 85}, {"time": 485, "pitch": 43, "duration": 12, "velocity": 43}, {"time": 491, "pitch": 55, "duration": 16, "velocity": 26}, {"time": 491, "pitch": 64, "duration": 19, "velocity": 77}, {"time": 497, "pitch": 36, "duration": 4, "velocity": 65}, {"time": 503, "pitch": 36, "duration": 14, "velocity": 63}, {"time": 509, "pitch": 55, "duration": 7, "velocity": 74}, {"time": 515, "pitch": 60, "duration": 12, "velocity": 75}, {"time": 515, "pitch": 64, "duration": 14, "velocity": 83}, {"time": 521, "pitch": 55, "duration": 6, "velocity": 73}, {"time": 527, "pitch": 45, "duration": 15, "velocity": 79}, {"time": 533, "pitch": 52, "duration": 10, "velocity": 82}, {"time": 539, "pitch": 57, "duration": 14, "velocity": 67}, {"time": 539, "pitch": 61, "duration": 17, "velocity": 75}, {"time": 539, "pitch": 64, "duration": 19, "velocity": 72}, {"time": 545, "pitch": 45, "duration": 4, "velocity": 73}, {"time": 551, "pitch": 45, "duration": 18, "velocity": 89}, {"time": 557, "pitch": 52, "duration": 7, "velocity": 53}, {"time": 560, "pitch": 57, "duration": 6, "velocity": 82}, {"time": 563, "pitch": 64, "duration": 12, "velocity": 102}, {"time": 566, "pitch": 52, "duration": 2, "velocity": 73}, {"time": 569, "pitch": 61, "duration": 5, "velocity": 95}, {"time": 572, "pitch": 57, "duration": 12, "velocity": 75}, {"time": 575, "pitch": 38, "duration": 22, "velocity": 79}, {"time": 581, "pitch": 45, "duration": 18, "velocity": 50}, {"time": 587, "pitch": 50, "duration": 9, "velocity": 46}, {"time": 587, "pitch": 62, "duration": 22, "velocity": 72}, {"time": 587, "pitch": 66, "duration": 22, "velocity": 93}, {"time": 593, "pitch": 57, "duration": 17, "velocity": 73}, {"time": 599, "pitch": 38, "duration": 13, "velocity": 81}, {"time": 605, "pitch": 45, "duration": 12, "velocity": 60}, {"time": 611, "pitch": 50, "duration": 3, "velocity": 77}, {"time": 611, "pitch": 62, "duration": 12, "velocity": 69}, {"time": 611, "pitch": 66, "duration": 14, "velocity": 107}, {"time": 617, "pitch": 38, "duration": 3, "velocity": 85}, {"time": 623, "pitch": 47, "duration": 16, "velocity": 86}, {"time": 629, "pitch": 54, "duration": 11, "velocity": 72}, {"time": 635, "pitch": 62, "duration": 17, "velocity": 67}, {"time": 635, "pitch": 66, "duration": 16, "velocity": 100}, {"time": 641, "pitch": 47, "duration": 4, "velocity": 82}, {"time": 647, "pitch": 47, "duration": 13, "velocity": 82}, {"time": 653, "pitch": 59, "duration": 8, "velocity": 77}, {"time": 659, "pitch": 66, "duration": 11, "velocity": 112}, {"time": 662, "pitch": 62, "duration": 8, "velocity": 51}, {"time": 665, "pitch": 59, "duration": 6, "velocity": 77}, {"time": 671, "pitch": 36, "duration": 13, "velocity": 82}, {"time": 677, "pitch": 43, "duration": 10, "velocity": 50}, {"time": 683, "pitch": 60, "duration": 18, "velocity": 74}, {"time": 683, "pitch": 64, "duration": 18, "velocity": 69}, {"time": 689, "pitch": 36, "duration": 4, "velocity": 69}, {"time": 695, "pitch": 36, "duration": 15, "velocity": 89}, {"time": 701, "pitch": 55, "duration": 16, "velocity": 63}, {"time": 707, "pitch": 64, "duration": 13, "velocity": 93}, {"time": 713, "pitch": 60, "duration": 6, "velocity": 64}, {"time": 719, "pitch": 45, "duration": 14, "velocity": 83}, {"time": 725, "pitch": 52, "duration": 10, "velocity": 64}, {"time": 731, "pitch": 57, "duration": 19, "velocity": 68}, {"time": 731, "pitch": 64, "duration": 20, "velocity": 77}, {"time": 737, "pitch": 45, "duration": 4, "velocity": 88}, {"time": 743, "pitch": 45, "duration": 20, "velocity": 89}, {"time": 749, "pitch": 52, "duration": 7, "velocity": 64}, {"time": 752, "pitch": 57, "duration": 4, "velocity": 71}, {"time": 755, "pitch": 64, "duration": 11, "velocity": 97}, {"time": 758, "pitch": 52, "duration": 5, "velocity": 82}, {"time": 761, "pitch": 61, "duration": 5, "velocity": 92}, {"time": 764, "pitch": 57, "duration": 3, "velocity": 88}, {"time": 767, "pitch": 42, "duration": 19, "velocity": 85}, {"time": 770, "pitch": 49, "duration": 20, "velocity": 54}, {"time": 773, "pitch": 54, "duration": 6, "velocity": 63}, {"time": 776, "pitch": 57, "duration": 6, "velocity": 73}, {"time": 779, "pitch": 66, "duration": 11, "velocity": 92}, {"time": 782, "pitch": 61, "duration": 4, "velocity": 67}, {"time": 785, "pitch": 57, "duration": 8, "velocity": 71}, {"time": 788, "pitch": 61, "duration": 4, "velocity": 71}, {"time": 791, "pitch": 42, "duration": 17, "velocity": 74}, {"time": 794, "pitch": 49, "duration": 13, "velocity": 35}, {"time": 797, "pitch": 54, "duration": 6, "velocity": 81}, {"time": 800, "pitch": 57, "duration": 6, "velocity": 83}, {"time": 803, "pitch": 66, "duration": 12, "velocity": 95}, {"time": 806, "pitch": 54, "duration": 4, "velocity": 83}, {"time": 809, "pitch": 61, "duration": 5, "velocity": 88}, {"time": 812, "pitch": 57, "duration": 3, "velocity": 82}, {"time": 815, "pitch": 47, "duration": 16, "velocity": 69}, {"time": 818, "pitch": 54, "duration": 13, "velocity": 83}, {"time": 821, "pitch": 59, "duration": 7, "velocity": 78}, {"time": 824, "pitch": 63, "duration": 3, "velocity": 86}, {"time": 827, "pitch": 66, "duration": 15, "velocity": 102}, {"time": 830, "pitch": 63, "duration": 13, "velocity": 95}, {"time": 833, "pitch": 47, "duration": 4, "velocity": 69}, {"time": 839, "pitch": 47, "duration": 17, "velocity": 75}, {"time": 842, "pitch": 54, "duration": 11, "velocity": 77}, {"time": 845, "pitch": 59, "duration": 7, "velocity": 72}, {"time": 848, "pitch": 63, "duration": 5, "velocity": 68}, {"time": 851, "pitch": 66, "duration": 10, "velocity": 93}, {"time": 854, "pitch": 54, "duration": 1, "velocity": 74}, {"time": 857, "pitch": 63, "duration": 5, "velocity": 93}, {"time": 860, "pitch": 59, "duration": 3, "velocity": 76}, {"time": 863, "pitch": 40, "duration": 18, "velocity": 85}, {"time": 866, "pitch": 47, "duration": 16, "velocity": 68}, {"time": 869, "pitch": 52, "duration": 6, "velocity": 85}, {"time": 872, "pitch": 59, "duration": 5, "velocity": 83}, {"time": 875, "pitch": 67, "duration": 15, "velocity": 86}, {"time": 878, "pitch": 52, "duration": 3, "velocity": 72}, {"time": 881, "pitch": 64, "duration": 8, "velocity": 86}, {"time": 884, "pitch": 59, "duration": 5, "velocity": 78}, {"time": 887, "pitch": 39, "duration": 20, "velocity": 66}, {"time": 893, "pitch": 52, "duration": 6, "velocity": 72}, {"time": 896, "pitch": 59, "duration": 4, "velocity": 66}, {"time": 899, "pitch": 67, "duration": 10, "velocity": 89}, {"time": 902, "pitch": 52, "duration": 4, "velocity": 59}, {"time": 905, "pitch": 64, "duration": 4, "velocity": 71}, {"time": 908, "pitch": 59, "duration": 2, "velocity": 71}, {"time": 911, "pitch": 38, "duration": 15, "velocity": 75}, {"time": 914, "pitch": 45, "duration": 13, "velocity": 86}, {"time": 917, "pitch": 50, "duration": 6, "velocity": 79}, {"time": 920, "pitch": 57, "duration": 6, "velocity": 78}, {"time": 923, "pitch": 66, "duration": 10, "velocity": 107}, {"time": 926, "pitch": 50, "duration": 3, "velocity": 61}, {"time": 929, "pitch": 62, "duration": 6, "velocity": 64}, {"time": 932, "pitch": 57, "duration": 3, "velocity": 78}, {"time": 935, "pitch": 45, "duration": 19, "velocity": 77}, {"time": 938, "pitch": 52, "duration": 10, "velocity": 72}, {"time": 941, "pitch": 57, "duration": 4, "velocity": 79}, {"time": 944, "pitch": 64, "duration": 14, "velocity": 102}, {"time": 947, "pitch": 61, "duration": 6, "velocity": 95}, {"time": 950, "pitch": 52, "duration": 3, "velocity": 73}, {"time": 953, "pitch": 57, "duration": 5, "velocity": 92}, {"time": 956, "pitch": 61, "duration": 3, "velocity": 78}, {"time": 959, "pitch": 42, "duration": 22, "velocity": 89}, {"time": 962, "pitch": 49, "duration": 20, "velocity": 34}, {"time": 965, "pitch": 54, "duration": 6, "velocity": 83}, {"time": 968, "pitch": 57, "duration": 5, "velocity": 93}, {"time": 971, "pitch": 66, "duration": 15, "velocity": 89}, {"time": 974, "pitch": 54, "duration": 9, "velocity": 75}, {"time": 977, "pitch": 61, "duration": 8, "velocity": 63}, {"time": 980, "pitch": 57, "duration": 6, "velocity": 74}, {"time": 983, "pitch": 42, "duration": 17, "velocity": 83}, {"time": 986, "pitch": 49, "duration": 14, "velocity": 35}, {"time": 989, "pitch": 54, "duration": 7, "velocity": 70}, {"time": 992, "pitch": 57, "duration": 6, "velocity": 85}, {"time": 995, "pitch": 66, "duration": 12, "velocity": 102}, {"time": 998, "pitch": 54, "duration": 3, "velocity": 82}, {"time": 1001, "pitch": 61, "duration": 5, "velocity": 86}, {"time": 1004, "pitch": 57, "duration": 2, "velocity": 85}, {"time": 1007, "pitch": 47, "duration": 16, "velocity": 78}, {"time": 1010, "pitch": 54, "duration": 14, "velocity": 79}, {"time": 1013, "pitch": 59, "duration": 3, "velocity": 79}, {"time": 1016, "pitch": 63, "duration": 17, "velocity": 90}, {"time": 1019, "pitch": 66, "duration": 14, "velocity": 99}, {"time": 1022, "pitch": 59, "duration": 10, "velocity": 75}, {"time": 1025, "pitch": 47, "duration": 4, "velocity": 79}, {"time": 1031, "pitch": 47, "duration": 16, "velocity": 85}, {"time": 1034, "pitch": 59, "duration": 9, "velocity": 69}, {"time": 1037, "pitch": 63, "duration": 17, "velocity": 78}, {"time": 1043, "pitch": 66, "duration": 12, "velocity": 99}, {"time": 1055, "pitch": 40, "duration": 17, "velocity": 70}, {"time": 1058, "pitch": 47, "duration": 14, "velocity": 63}, {"time": 1061, "pitch": 52, "duration": 6, "velocity": 79}, {"time": 1064, "pitch": 59, "duration": 4, "velocity": 77}, {"time": 1067, "pitch": 67, "duration": 13, "velocity": 92}, {"time": 1070, "pitch": 52, "duration": 9, "velocity": 72}, {"time": 1079, "pitch": 45, "duration": 15, "velocity": 73}, {"time": 1082, "pitch": 52, "duration": 9, "velocity": 50}, {"time": 1085, "pitch": 57, "duration": 19, "velocity": 66}, {"time": 1091, "pitch": 64, "duration": 12, "velocity": 81}, {"time": 1103, "pitch": 38, "duration": 15, "velocity": 65}, {"time": 1106, "pitch": 45, "duration": 15, "velocity": 44}, {"time": 1109, "pitch": 50, "duration": 6, "velocity": 63}, {"time": 1112, "pitch": 57, "duration": 43, "velocity": 74}, {"time": 1115, "pitch": 66, "duration": 22, "velocity": 96}, {"time": 1121, "pitch": 38, "duration": 3, "velocity": 85}, {"time": 1127, "pitch": 38, "duration": 19, "velocity": 69}, {"time": 1139, "pitch": 66, "duration": 17, "velocity": 88}, {"time": 1145, "pitch": 62, "duration": 9, "velocity": 43}, {"time": 1151, "pitch": 38, "duration": 14, "velocity": 63}, {"time": 1157, "pitch": 45, "duration": 10, "velocity": 50}, {"time": 1163, "pitch": 57, "duration": 1, "velocity": 35}, {"time": 1163, "pitch": 62, "duration": 19, "velocity": 70}, {"time": 1163, "pitch": 66, "duration": 18, "velocity": 65}, {"time": 1169, "pitch": 38, "duration": 4, "velocity": 57}, {"time": 1175, "pitch": 38, "duration": 19, "velocity": 73}, {"time": 1181, "pitch": 57, "duration": 7, "velocity": 55}, {"time": 1187, "pitch": 62, "duration": 10, "velocity": 73}, {"time": 1187, "pitch": 66, "duration": 11, "velocity": 78}, {"time": 1199, "pitch": 38, "duration": 14, "velocity": 74}, {"time": 1205, "pitch": 45, "duration": 14, "velocity": 53}, {"time": 1211, "pitch": 50, "duration": 4, "velocity": 55}, {"time": 1211, "pitch": 62, "duration": 22, "velocity": 78}, {"time": 1211, "pitch": 66, "duration": 22, "velocity": 93}, {"time": 1217, "pitch": 38, "duration": 3, "velocity": 41}, {"time": 1223, "pitch": 38, "duration": 16, "velocity": 76}, {"time": 1229, "pitch": 45, "duration": 10, "velocity": 48}, {"time": 1235, "pitch": 50, "duration": 7, "velocity": 61}, {"time": 1235, "pitch": 66, "duration": 15, "velocity": 89}, {"time": 1241, "pitch": 57, "duration": 6, "velocity": 76}, {"time": 1247, "pitch": 47, "duration": 16, "velocity": 68}, {"time": 1253, "pitch": 54, "duration": 12, "velocity": 53}, {"time": 1259, "pitch": 59, "duration": 18, "velocity": 30}, {"time": 1259, "pitch": 62, "duration": 18, "velocity": 67}, {"time": 1259, "pitch": 66, "duration": 18, "velocity": 88}, {"time": 1265, "pitch": 47, "duration": 4, "velocity": 63}, {"time": 1271, "pitch": 47, "duration": 17, "velocity": 72}, {"time": 1277, "pitch": 54, "duration": 9, "velocity": 66}, {"time": 1283, "pitch": 66, "duration": 8, "velocity": 99}, {"time": 1289, "pitch": 59, "duration": 6, "velocity": 72}, {"time": 1295, "pitch": 36, "duration": 15, "velocity": 85}, {"time": 1301, "pitch": 43, "duration": 12, "velocity": 43}, {"time": 1307, "pitch": 55, "duration": 16, "velocity": 26}, {"time": 1307, "pitch": 64, "duration": 19, "velocity": 77}, {"time": 1313, "pitch": 36, "duration": 4, "velocity": 65}, {"time": 1319, "pitch": 36, "duration": 14, "velocity": 63}, {"time": 1325, "pitch": 55, "duration": 7, "velocity": 74}, {"time": 1331, "pitch": 60, "duration": 12, "velocity": 75}, {"time": 1331, "pitch": 64, "duration": 14, "velocity": 83}, {"time": 1337, "pitch": 55, "duration": 6, "velocity": 73}, {"time": 1343, "pitch": 45, "duration": 15, "velocity": 79}, {"time": 1349, "pitch": 52, "duration": 10, "velocity": 82}, {"time": 1355, "pitch": 57, "duration": 14, "velocity": 67}, {"time": 1355, "pitch": 61, "duration": 17, "velocity": 75}, {"time": 1355, "pitch": 64, "duration": 19, "velocity": 72}, {"time": 1361, "pitch": 45, "duration": 4, "velocity": 73}, {"time": 1367, "pitch": 45, "duration": 18, "velocity": 89}, {"time": 1373, "pitch": 52, "duration": 7, "velocity": 53}, {"time": 1376, "pitch": 57, "duration": 6, "velocity": 82}, {"time": 1379, "pitch": 64, "duration": 12, "velocity": 102}, {"time": 1382, "pitch": 52, "duration": 2, "velocity": 73}, {"time": 1385, "pitch": 61, "duration": 5, "velocity": 95}, {"time": 1388, "pitch": 57, "duration": 12, "velocity": 75}, {"time": 1391, "pitch": 38, "duration": 22, "velocity": 79}, {"time": 1397, "pitch": 45, "duration": 18, "velocity": 50}, {"time": 1403, "pitch": 50, "duration": 9, "velocity": 46}, {"time": 1403, "pitch": 62, "duration": 22, "velocity": 72}, {"time": 1403, "pitch": 66, "duration": 22, "velocity": 93}, {"time": 1409, "pitch": 57, "duration": 17, "velocity": 73}, {"time": 1415, "pitch": 38, "duration": 13, "velocity": 81}, {"time": 1421, "pitch": 45, "duration": 12, "velocity": 60}, {"time": 1427, "pitch": 50, "duration": 3, "velocity": 77}, {"time": 1427, "pitch": 62, "duration": 12, "velocity": 69}, {"time": 1427, "pitch": 66, "duration": 14, "velocity": 107}, {"time": 1433, "pitch": 38, "duration": 3, "velocity": 85}, {"time": 1439, "pitch": 47, "duration": 16, "velocity": 86}, {"time": 1445, "pitch": 54, "duration": 11, "velocity": 72}, {"time": 1451, "pitch": 62, "duration": 17, "velocity": 67}, {"time": 1451, "pitch": 66, "duration": 16, "velocity": 100}, {"time": 1457, "pitch": 47, "duration": 4, "velocity": 82}, {"time": 1463, "pitch": 47, "duration": 13, "velocity": 82}, {"time": 1469, "pitch": 59, "duration": 8, "velocity": 77}, {"time": 1475, "pitch": 66, "duration": 11, "velocity": 112}, {"time": 1478, "pitch": 62, "duration": 8, "velocity": 51}, {"time": 1481, "pitch": 59, "duration": 6, "velocity": 77}, {"time": 1487, "pitch": 36, "duration": 13, "velocity": 82}, {"time": 1493, "pitch": 43, "duration": 10, "velocity": 50}, {"time": 1499, "pitch": 60, "duration": 18, "velocity": 74}, {"time": 1499, "pitch": 64, "duration": 18, "velocity": 69}, {"time": 1505, "pitch": 36, "duration": 4, "velocity": 69}, {"time": 1511, "pitch": 36, "duration": 15, "velocity": 89}, {"time": 1517, "pitch": 55, "duration": 16, "velocity": 63}, {"time": 1523, "pitch": 64, "duration": 13, "velocity": 93}, {"time": 1529, "pitch": 60, "duration": 6, "velocity": 64}, {"time": 1535, "pitch": 45, "duration": 14, "velocity": 83}, {"time": 1541, "pitch": 52, "duration": 10, "velocity": 64}, {"time": 1547, "pitch": 57, "duration": 19, "velocity": 68}, {"time": 1547, "pitch": 64, "duration": 20, "velocity": 77}, {"time": 1553, "pitch": 45, "duration": 4, "velocity": 88}, {"time": 1559, "pitch": 45, "duration": 20, "velocity": 89}, {"time": 1565, "pitch": 52, "duration": 7, "velocity": 64}, {"time": 1568, "pitch": 57, "duration": 4, "velocity": 71}, {"time": 1571, "pitch": 64, "duration": 11, "velocity": 97}, {"time": 1574, "pitch": 52, "duration": 5, "velocity": 82}, {"time": 1577, "pitch": 61, "duration": 5, "velocity": 92}, {"time": 1580, "pitch": 57, "duration": 3, "velocity": 88}, {"time": 1583, "pitch": 42, "duration": 19, "velocity": 85}, {"time": 1586, "pitch": 49, "duration": 20, "velocity": 54}, {"time": 1589, "pitch": 54, "duration": 6, "velocity": 63}, {"time": 1592, "pitch": 57, "duration": 6, "velocity": 73}, {"time": 1595, "pitch": 66, "duration": 11, "velocity": 92}, {"time": 1598, "pitch": 61, "duration": 4, "velocity": 67}, {"time": 1601, "pitch": 57, "duration": 8, "velocity": 71}, {"time": 1604, "pitch": 61, "duration": 4, "velocity": 71}, {"time": 1607, "pitch": 42, "duration": 17, "velocity": 74}, {"time": 1610, "pitch": 49, "duration": 13, "velocity": 35}, {"time": 1613, "pitch": 54, "duration": 6, "velocity": 81}, {"time": 1616, "pitch": 57, "duration": 6, "velocity": 83}, {"time": 1619, "pitch": 66, "duration": 12, "velocity": 95}, {"time": 1622, "pitch": 54, "duration": 4, "velocity": 83}, {"time": 1625, "pitch": 61, "duration": 5, "velocity": 88}, {"time": 1628, "pitch": 57, "duration": 3, "velocity": 82}, {"time": 1631, "pitch": 47, "duration": 16, "velocity": 69}, {"time": 1634, "pitch": 54, "duration": 13, "velocity": 83}, {"time": 1637, "pitch": 59, "duration": 7, "velocity": 78}, {"time": 1640, "pitch": 63, "duration": 3, "velocity": 86}, {"time": 1643, "pitch": 66, "duration": 15, "velocity": 102}, {"time": 1646, "pitch": 63, "duration": 13, "velocity": 95}, {"time": 1649, "pitch": 47, "duration": 4, "velocity": 69}, {"time": 1655, "pitch": 47, "duration": 17, "velocity": 75}, {"time": 1658, "pitch": 54, "duration": 11, "velocity": 77}, {"time": 1661, "pitch": 59, "duration": 7, "velocity": 72}, {"time": 1664, "pitch": 63, "duration": 5, "velocity": 68}, {"time": 1667, "pitch": 66, "duration": 10, "velocity": 93}, {"time": 1670, "pitch": 54, "duration": 1, "velocity": 74}, {"time": 1673, "pitch": 63, "duration": 5, "velocity": 93}, {"time": 1676, "pitch": 59, "duration": 3, "velocity": 76}, {"time": 1679, "pitch": 40, "duration": 18, "velocity": 85}, {"time": 1682, "pitch": 47, "duration": 16, "velocity": 68}, {"time": 1685, "pitch": 52, "duration": 6, "velocity": 85}, {"time": 1688, "pitch": 59, "duration": 5, "velocity": 83}, {"time": 1691, "pitch": 67, "duration": 15, "velocity": 86}, {"time": 1694, "pitch": 52, "duration": 3, "velocity": 72}, {"time": 1697, "pitch": 64, "duration": 8, "velocity": 86}, {"time": 1700, "pitch": 59, "duration": 5, "velocity": 78}, {"time": 1703, "pitch": 39, "duration": 20, "velocity": 66}, {"time": 1709, "pitch": 52, "duration": 6, "velocity": 72}, {"time": 1712, "pitch": 59, "duration": 4, "velocity": 66}, {"time": 1715, "pitch": 67, "duration": 10, "velocity": 89}, {"time": 1718, "pitch": 52, "duration": 4, "velocity": 59}, {"time": 1721, "pitch": 64, "duration": 4, "velocity": 71}, {"time": 1724, "pitch": 59, "duration": 2, "velocity": 71}, {"time": 1727, "pitch": 38, "duration": 15, "velocity": 75}, {"time": 1730, "pitch": 45, "duration": 13, "velocity": 86}, {"time": 1733, "pitch": 50, "duration": 6, "velocity": 79}, {"time": 1736, "pitch": 57, "duration": 6, "velocity": 78}, {"time": 1739, "pitch": 66, "duration": 10, "velocity": 107}, {"time": 1742, "pitch": 50, "duration": 3, "velocity": 61}, {"time": 1745, "pitch": 62, "duration": 6, "velocity": 64}, {"time": 1748, "pitch": 57, "duration": 3, "velocity": 78}, {"time": 1751, "pitch": 45, "duration": 19, "velocity": 77}, {"time": 1754, "pitch": 52, "duration": 10, "velocity": 72}, {"time": 1757, "pitch": 57, "duration": 4, "velocity": 79}, {"time": 1760, "pitch": 64, "duration": 14, "velocity": 102}, {"time": 1763, "pitch": 61, "duration": 6, "velocity": 95}, {"time": 1766, "pitch": 52, "duration": 3, "velocity": 73}, {"time": 1769, "pitch": 57, "duration": 5, "velocity": 92}, {"time": 1772, "pitch": 61, "duration": 3, "velocity": 78}, {"time": 1775, "pitch": 42, "duration": 22, "velocity": 89}, {"time": 1778, "pitch": 49, "duration": 20, "velocity": 34}, {"time": 1781, "pitch": 54, "duration": 6, "velocity": 83}, {"time": 1784, "pitch": 57, "duration": 5, "velocity": 93}, {"time": 1787, "pitch": 66, "duration": 15, "velocity": 89}, {"time": 1790, "pitch": 54, "duration": 9, "velocity": 75}, {"time": 1793, "pitch": 61, "duration": 8, "velocity": 63}, {"time": 1796, "pitch": 57, "duration": 6, "velocity": 74}, {"time": 1799, "pitch": 42, "duration": 17, "velocity": 83}, {"time": 1802, "pitch": 49, "duration": 14, "velocity": 35}, {"time": 1805, "pitch": 54, "duration": 7, "velocity": 70}, {"time": 1808, "pitch": 57, "duration": 6, "velocity": 85}, {"time": 1811, "pitch": 66, "duration": 12, "velocity": 102}, {"time": 1814, "pitch": 54, "duration": 3, "velocity": 82}, {"time": 1817, "pitch": 61, "duration": 5, "velocity": 86}, {"time": 1820, "pitch": 57, "duration": 2, "velocity": 85}, {"time": 1823, "pitch": 47, "duration": 16, "velocity": 78}, {"time": 1826, "pitch": 54, "duration": 14, "velocity": 79}, {"time": 1829, "pitch": 59, "duration": 3, "velocity": 79}, {"time": 1832, "pitch": 63, "duration": 17, "velocity": 90}, {"time": 1835, "pitch": 66, "duration": 14, "velocity": 99}, {"time": 1838, "pitch": 59, "duration": 10, "velocity": 75}, {"time": 1841, "pitch": 47, "duration": 4, "velocity": 79}, {"time": 1847, "pitch": 47, "duration": 16, "velocity": 85}, {"time": 1850, "pitch": 59, "duration": 9, "velocity": 69}, {"time": 1853, "pitch": 63, "duration": 17, "velocity": 78}, {"time": 1859, "pitch": 66, "duration": 12, "velocity": 99}, {"time": 1871, "pitch": 40, "duration": 17, "velocity": 70}, {"time": 1874, "pitch": 47, "duration": 14, "velocity": 63}, {"time": 1877, "pitch": 52, "duration": 6, "velocity": 79}, {"time": 1880, "pitch": 59, "duration": 4, "velocity": 77}, {"time": 1883, "pitch": 67, "duration": 13, "velocity": 92}, {"time": 1886, "pitch": 52, "duration": 9, "velocity": 72}, {"time": 1895, "pitch": 45, "duration": 15, "velocity": 73}, {"time": 1898, "pitch": 52, "duration": 9, "velocity": 50}, {"time": 1901, "pitch": 57, "duration": 18, "velocity": 66}, {"time": 1907, "pitch": 64, "duration": 12, "velocity": 81}, {"time": 1919, "pitch": 38, "duration": 45, "velocity": 82}, {"time": 1925, "pitch": 45, "duration": 43, "velocity": 56}, {"time": 1931, "pitch": 57, "duration": 25, "velocity": 59}, {"time": 1931, "pitch": 62, "duration": 9, "velocity": 65}, {"time": 1931, "pitch": 66, "duration": 10, "velocity": 56}, {"time": 1937, "pitch": 50, "duration": 9, "velocity": 65}, {"time": 1943, "pitch": 62, "duration": 10, "velocity": 74}, {"time": 1949, "pitch": 50, "duration": 16, "velocity": 66}, {"time": 1955, "pitch": 66, "duration": 21, "velocity": 107}, {"time": 1961, "pitch": 62, "duration": 15, "velocity": 59}, {"time": 1967, "pitch": 38, "duration": 48, "velocity": 72}, {"time": 1973, "pitch": 45, "duration": 41, "velocity": 56}, {"time": 1979, "pitch": 66, "duration": 36, "velocity": 99}, {"time": 1985, "pitch": 50, "duration": 9, "velocity": 53}, {"time": 1991, "pitch": 57, "duration": 13, "velocity": 45}, {"time": 1991, "pitch": 62, "duration": 7, "velocity": 59}, {"time": 1997, "pitch": 50, "duration": 11, "velocity": 46}, {"time": 2003, "pitch": 62, "duration": 11, "velocity": 59}, {"time": 2009, "pitch": 57, "duration": 6, "velocity": 59}, {"time": 2015, "pitch": 40, "duration": 22, "velocity": 78}, {"time": 2021, "pitch": 47, "duration": 16, "velocity": 52}, {"time": 2027, "pitch": 52, "duration": 10, "velocity": 43}, {"time": 2027, "pitch": 64, "duration": 13, "velocity": 69}, {"time": 2033, "pitch": 59, "duration": 6, "velocity": 48}, {"time": 2039, "pitch": 45, "duration": 15, "velocity": 79}, {"time": 2045, "pitch": 52, "duration": 8, "velocity": 66}, {"time": 2051, "pitch": 64, "duration": 9, "velocity": 78}, {"time": 2057, "pitch": 61, "duration": 8, "velocity": 57}, {"time": 2063, "pitch": 42, "duration": 16, "velocity": 63}, {"time": 2069, "pitch": 49, "duration": 10, "velocity": 47}, {"time": 2075, "pitch": 54, "duration": 6, "velocity": 47}, {"time": 2075, "pitch": 61, "duration": 12, "velocity": 72}, {"time": 2075, "pitch": 66, "duration": 13, "velocity": 64}, {"time": 2081, "pitch": 57, "duration": 6, "velocity": 55}, {"time": 2087, "pitch": 47, "duration": 19, "velocity": 69}, {"time": 2093, "pitch": 54, "duration": 8, "velocity": 66}, {"time": 2099, "pitch": 63, "duration": 12, "velocity": 83}, {"time": 2099, "pitch": 66, "duration": 1, "velocity": 82}, {"time": 2102, "pitch": 54, "duration": 3, "velocity": 74}, {"time": 2105, "pitch": 59, "duration": 6, "velocity": 63}, {"time": 2108, "pitch": 66, "duration": 3, "velocity": 74}, {"time": 2111, "pitch": 40, "duration": 14, "velocity": 67}, {"time": 2114, "pitch": 47, "duration": 12, "velocity": 61}, {"time": 2117, "pitch": 52, "duration": 13, "velocity": 69}, {"time": 2120, "pitch": 59, "duration": 15, "velocity": 57}, {"time": 2123, "pitch": 67, "duration": 12, "velocity": 81}, {"time": 2129, "pitch": 64, "duration": 6, "velocity": 58}, {"time": 2135, "pitch": 45, "duration": 15, "velocity": 77}, {"time": 2141, "pitch": 52, "duration": 7, "velocity": 55}, {"time": 2147, "pitch": 61, "duration": 9, "velocity": 86}, {"time": 2153, "pitch": 57, "duration": 8, "velocity": 65}, {"time": 2159, "pitch": 38, "duration": 22, "velocity": 67}, {"time": 2165, "pitch": 45, "duration": 19, "velocity": 40}, {"time": 2171, "pitch": 50, "duration": 19, "velocity": 45}, {"time": 2171, "pitch": 62, "duration": 21, "velocity": 69}, {"time": 2171, "pitch": 66, "duration": 21, "velocity": 83}, {"time": 2177, "pitch": 57, "duration": 30, "velocity": 51}, {"time": 2183, "pitch": 38, "duration": 22, "velocity": 69}, {"time": 2189, "pitch": 45, "duration": 17, "velocity": 53}, {"time": 2195, "pitch": 50, "duration": 5, "velocity": 69}, {"time": 2195, "pitch": 66, "duration": 13, "velocity": 100}, {"time": 2201, "pitch": 62, "duration": 6, "velocity": 59}, {"time": 2207, "pitch": 40, "duration": 16, "velocity": 78}, {"time": 2213, "pitch": 47, "duration": 10, "velocity": 56}, {"time": 2219, "pitch": 52, "duration": 10, "velocity": 65}, {"time": 2219, "pitch": 64, "duration": 12, "velocity": 69}, {"time": 2219, "pitch": 67, "duration": 12, "velocity": 67}, {"time": 2225, "pitch": 59, "duration": 6, "velocity": 66}, {"time": 2231, "pitch": 45, "duration": 14, "velocity": 77}, {"time": 2237, "pitch": 52, "duration": 8, "velocity": 66}, {"time": 2243, "pitch": 61, "duration": 13, "velocity": 88}, {"time": 2243, "pitch": 64, "duration": 11, "velocity": 69}, {"time": 2249, "pitch": 57, "duration": 6, "velocity": 66}, {"time": 2255, "pitch": 42, "duration": 17, "velocity": 83}, {"time": 2261, "pitch": 49, "duration": 10, "velocity": 63}, {"time": 2267, "pitch": 54, "duration": 6, "velocity": 58}, {"time": 2267, "pitch": 61, "duration": 13, "velocity": 82}, {"time": 2267, "pitch": 66, "duration": 13, "velocity": 39}, {"time": 2273, "pitch": 57, "duration": 6, "velocity": 56}, {"time": 2279, "pitch": 47, "duration": 15, "velocity": 66}, {"time": 2285, "pitch": 54, "duration": 7, "velocity": 53}, {"time": 2291, "pitch": 63, "duration": 12, "velocity": 78}, {"time": 2297, "pitch": 59, "duration": 8, "velocity": 73}, {"time": 2297, "pitch": 66, "duration": 7, "velocity": 55}, {"time": 2303, "pitch": 40, "duration": 15, "velocity": 63}, {"time": 2309, "pitch": 47, "duration": 10, "velocity": 53}, {"time": 2315, "pitch": 52, "duration": 9, "velocity": 52}, {"time": 2315, "pitch": 64, "duration": 11, "velocity": 66}, {"time": 2315, "pitch": 67, "duration": 11, "velocity": 64}, {"time": 2321, "pitch": 59, "duration": 7, "velocity": 63}, {"time": 2327, "pitch": 45, "duration": 15, "velocity": 72}, {"time": 2333, "pitch": 52, "duration": 7, "velocity": 62}, {"time": 2339, "pitch": 61, "duration": 12, "velocity": 79}, {"time": 2339, "pitch": 64, "duration": 12, "velocity": 60}, {"time": 2345, "pitch": 57, "duration": 6, "velocity": 66}, {"time": 2351, "pitch": 38, "duration": 22, "velocity": 72}, {"time": 2357, "pitch": 45, "duration": 19, "velocity": 46}, {"time": 2363, "pitch": 50, "duration": 26, "velocity": 56}, {"time": 2363, "pitch": 62, "duration": 21, "velocity": 69}, {"time": 2363, "pitch": 66, "duration": 21, "velocity": 76}, {"time": 2369, "pitch": 57, "duration": 17, "velocity": 69}, {"time": 2375, "pitch": 38, "duration": 22, "velocity": 63}, {"time": 2381, "pitch": 45, "duration": 14, "velocity": 37}, {"time": 2387, "pitch": 62, "duration": 11, "velocity": 78}, {"time": 2387, "pitch": 66, "duration": 11, "velocity": 89}, {"time": 2393, "pitch": 57, "duration": 5, "velocity": 69}, {"time": 2399, "pitch": 42, "duration": 18, "velocity": 99}, {"time": 2405, "pitch": 54, "duration": 9, "velocity": 62}, {"time": 2411, "pitch": 57, "duration": 3, "velocity": 66}, {"time": 2411, "pitch": 60, "duration": 19, "velocity": 89}, {"time": 2414, "pitch": 54, "duration": 2, "velocity": 29}, {"time": 2417, "pitch": 57, "duration": 8, "velocity": 77}, {"time": 2423, "pitch": 45, "duration": 15, "velocity": 79}, {"time": 2429, "pitch": 57, "duration": 7, "velocity": 72}, {"time": 2435, "pitch": 60, "duration": 12, "velocity": 72}, {"time": 2435, "pitch": 63, "duration": 13, "velocity": 88}, {"time": 2441, "pitch": 57, "duration": 7, "velocity": 57}, {"time": 2447, "pitch": 47, "duration": 22, "velocity": 78}, {"time": 2453, "pitch": 54, "duration": 18, "velocity": 65}, {"time": 2459, "pitch": 59, "duration": 22, "velocity": 45}, {"time": 2459, "pitch": 63, "duration": 21, "velocity": 66}, {"time": 2459, "pitch": 66, "duration": 36, "velocity": 70}, {"time": 2471, "pitch": 47, "duration": 15, "velocity": 71}, {"time": 2477, "pitch": 54, "duration": 7, "velocity": 53}, {"time": 2483, "pitch": 63, "duration": 13, "velocity": 95}, {"time": 2489, "pitch": 59, "duration": 12, "velocity": 69}, {"time": 2495, "pitch": 40, "duration": 17, "velocity": 74}, {"time": 2501, "pitch": 47, "duration": 8, "velocity": 49}, {"time": 2507, "pitch": 64, "duration": 14, "velocity": 78}, {"time": 2507, "pitch": 67, "duration": 15, "velocity": 82}, {"time": 2513, "pitch": 59, "duration": 9, "velocity": 83}, {"time": 2519, "pitch": 39, "duration": 20, "velocity": 79}, {"time": 2525, "pitch": 59, "duration": 7, "velocity": 72}, {"time": 2531, "pitch": 64, "duration": 10, "velocity": 85}, {"time": 2537, "pitch": 59, "duration": 4, "velocity": 66}, {"time": 2543, "pitch": 38, "duration": 14, "velocity": 75}, {"time": 2549, "pitch": 45, "duration": 9, "velocity": 48}, {"time": 2555, "pitch": 62, "duration": 12, "velocity": 83}, {"time": 2555, "pitch": 66, "duration": 12, "velocity": 96}, {"time": 2561, "pitch": 57, "duration": 10, "velocity": 58}, {"time": 2567, "pitch": 45, "duration": 19, "velocity": 79}, {"time": 2573, "pitch": 52, "duration": 12, "velocity": 75}, {"time": 2579, "pitch": 61, "duration": 10, "velocity": 88}, {"time": 2579, "pitch": 64, "duration": 11, "velocity": 73}, {"time": 2585, "pitch": 57, "duration": 5, "velocity": 81}, {"time": 2591, "pitch": 42, "duration": 22, "velocity": 93}, {"time": 2591, "pitch": 57, "duration": 11, "velocity": 66}, {"time": 2591, "pitch": 60, "duration": 10, "velocity": 74}, {"time": 2597, "pitch": 54, "duration": 20, "velocity": 79}, {"time": 2603, "pitch": 60, "duration": 23, "velocity": 88}, {"time": 2609, "pitch": 57, "duration": 16, "velocity": 75}, {"time": 2615, "pitch": 42, "duration": 17, "velocity": 72}, {"time": 2621, "pitch": 54, "duration": 8, "velocity": 54}, {"time": 2627, "pitch": 57, "duration": 9, "velocity": 74}, {"time": 2627, "pitch": 60, "duration": 10, "velocity": 76}, {"time": 2633, "pitch": 54, "duration": 1, "velocity": 62}, {"time": 2639, "pitch": 47, "duration": 22, "velocity": 79}, {"time": 2645, "pitch": 54, "duration": 18, "velocity": 63}, {"time": 2651, "pitch": 63, "duration": 21, "velocity": 97}, {"time": 2657, "pitch": 59, "duration": 18, "velocity": 69}, {"time": 2663, "pitch": 47, "duration": 14, "velocity": 64}, {"time": 2663, "pitch": 66, "duration": 24, "velocity": 64}, {"time": 2669, "pitch": 54, "duration": 6, "velocity": 51}, {"time": 2675, "pitch": 63, "duration": 13, "velocity": 83}, {"time": 2681, "pitch": 59, "duration": 8, "velocity": 58}, {"time": 2687, "pitch": 40, "duration": 19, "velocity": 72}, {"time": 2693, "pitch": 47, "duration": 14, "velocity": 42}, {"time": 2699, "pitch": 64, "duration": 11, "velocity": 66}, {"time": 2699, "pitch": 67, "duration": 12, "velocity": 63}, {"time": 2705, "pitch": 59, "duration": 5, "velocity": 56}, {"time": 2711, "pitch": 45, "duration": 13, "velocity": 81}, {"time": 2717, "pitch": 57, "duration": 7, "velocity": 77}, {"time": 2723, "pitch": 61, "duration": 12, "velocity": 68}, {"time": 2723, "pitch": 64, "duration": 12, "velocity": 74}, {"time": 2723, "pitch": 67, "duration": 12, "velocity": 76}, {"time": 2735, "pitch": 38, "duration": 38, "velocity": 66}, {"time": 2741, "pitch": 45, "duration": 33, "velocity": 61}, {"time": 2747, "pitch": 62, "duration": 11, "velocity": 85}, {"time": 2753, "pitch": 50, "duration": 9, "velocity": 62}, {"time": 2759, "pitch": 57, "duration": 11, "velocity": 76}, {"time": 2759, "pitch": 62, "duration": 10, "velocity": 76}, {"time": 2759, "pitch": 66, "duration": 23, "velocity": 83}, {"time": 2765, "pitch": 50, "duration": 10, "velocity": 55}, {"time": 2771, "pitch": 62, "duration": 12, "velocity": 97}, {"time": 2777, "pitch": 57, "duration": 8, "velocity": 64}, {"time": 2783, "pitch": 42, "duration": 22, "velocity": 97}, {"time": 2789, "pitch": 54, "duration": 9, "velocity": 61}, {"time": 2795, "pitch": 57, "duration": 10, "velocity": 97}, {"time": 2801, "pitch": 54, "duration": 8, "velocity": 65}, {"time": 2807, "pitch": 42, "duration": 16, "velocity": 71}, {"time": 2807, "pitch": 57, "duration": 11, "velocity": 78}, {"time": 2807, "pitch": 60, "duration": 11, "velocity": 78}, {"time": 2813, "pitch": 54, "duration": 8, "velocity": 50}, {"time": 2819, "pitch": 57, "duration": 11, "velocity": 48}, {"time": 2819, "pitch": 60, "duration": 11, "velocity": 81}, {"time": 2831, "pitch": 47, "duration": 39, "velocity": 73}, {"time": 2837, "pitch": 54, "duration": 31, "velocity": 79}, {"time": 2843, "pitch": 63, "duration": 9, "velocity": 88}, {"time": 2849, "pitch": 59, "duration": 18, "velocity": 67}, {"time": 2855, "pitch": 63, "duration": 11, "velocity": 68}, {"time": 2855, "pitch": 66, "duration": 11, "velocity": 69}, {"time": 2867, "pitch": 63, "duration": 13, "velocity": 66}, {"time": 2867, "pitch": 66, "duration": 13, "velocity": 74}, {"time": 2873, "pitch": 59, "duration": 16, "velocity": 61}, {"time": 2879, "pitch": 40, "duration": 18, "velocity": 78}, {"time": 2885, "pitch": 47, "duration": 12, "velocity": 50}, {"time": 2891, "pitch": 52, "duration": 6, "velocity": 73}, {"time": 2891, "pitch": 64, "duration": 11, "velocity": 72}, {"time": 2891, "pitch": 67, "duration": 12, "velocity": 65}, {"time": 2897, "pitch": 59, "duration": 6, "velocity": 67}, {"time": 2903, "pitch": 45, "duration": 15, "velocity": 86}, {"time": 2909, "pitch": 52, "duration": 7, "velocity": 60}, {"time": 2915, "pitch": 57, "duration": 12, "velocity": 66}, {"time": 2915, "pitch": 61, "duration": 12, "velocity": 81}, {"time": 2915, "pitch": 64, "duration": 12, "velocity": 68}, {"time": 2927, "pitch": 42, "duration": 13, "velocity": 77}, {"time": 2927, "pitch": 57, "duration": 10, "velocity": 76}, {"time": 2927, "pitch": 60, "duration": 10, "velocity": 77}, {"time": 2933, "pitch": 54, "duration": 10, "velocity": 77}, {"time": 2939, "pitch": 57, "duration": 3, "velocity": 66}, {"time": 2939, "pitch": 60, "duration": 12, "velocity": 85}, {"time": 2945, "pitch": 57, "duration": 3, "velocity": 63}, {"time": 2951, "pitch": 47, "duration": 22, "velocity": 76}, {"time": 2957, "pitch": 54, "duration": 15, "velocity": 78}, {"time": 2963, "pitch": 59, "duration": 3, "velocity": 83}, {"time": 2963, "pitch": 63, "duration": 11, "velocity": 86}, {"time": 2963, "pitch": 66, "duration": 12, "velocity": 83}, {"time": 2969, "pitch": 59, "duration": 5, "velocity": 70}, {"time": 2975, "pitch": 40, "duration": 16, "velocity": 78}, {"time": 2981, "pitch": 47, "duration": 11, "velocity": 58}, {"time": 2987, "pitch": 52, "duration": 11, "velocity": 60}, {"time": 2987, "pitch": 64, "duration": 12, "velocity": 77}, {"time": 2987, "pitch": 67, "duration": 12, "velocity": 75}, {"time": 2993, "pitch": 59, "duration": 7, "velocity": 58}, {"time": 2999, "pitch": 45, "duration": 19, "velocity": 81}, {"time": 3005, "pitch": 52, "duration": 12, "velocity": 55}, {"time": 3011, "pitch": 57, "duration": 13, "velocity": 58}, {"time": 3011, "pitch": 61, "duration": 14, "velocity": 73}, {"time": 3011, "pitch": 64, "duration": 13, "velocity": 69}, {"time": 3023, "pitch": 38, "duration": 45, "velocity": 75}, {"time": 3029, "pitch": 45, "duration": 42, "velocity": 55}, {"time": 3035, "pitch": 57, "duration": 25, "velocity": 59}, {"time": 3041, "pitch": 50, "duration": 8, "velocity": 51}, {"time": 3047, "pitch": 62, "duration": 9, "velocity": 69}, {"time": 3053, "pitch": 50, "duration": 11, "velocity": 56}, {"time": 3059, "pitch": 62, "duration": 21, "velocity": 69}, {"time": 3059, "pitch": 66, "duration": 22, "velocity": 78}, {"time": 3065, "pitch": 57, "duration": 16, "velocity": 56}, {"time": 3071, "pitch": 38, "duration": 46, "velocity": 68}, {"time": 3077, "pitch": 45, "duration": 43, "velocity": 55}, {"time": 3083, "pitch": 57, "duration": 10, "velocity": 50}, {"time": 3083, "pitch": 62, "duration": 19, "velocity": 83}, {"time": 3083, "pitch": 66, "duration": 58, "velocity": 89}, {"time": 3089, "pitch": 50, "duration": 10, "velocity": 56}, {"time": 3095, "pitch": 57, "duration": 13, "velocity": 71}, {"time": 3101, "pitch": 50, "duration": 30, "velocity": 60}, {"time": 3107, "pitch": 62, "duration": 19, "velocity": 86}, {"time": 3113, "pitch": 57, "duration": 42, "velocity": 56}, {"time": 3119, "pitch": 38, "duration": 44, "velocity": 69}, {"time": 3125, "pitch": 45, "duration": 42, "velocity": 41}, {"time": 3131, "pitch": 62, "duration": 10, "velocity": 78}, {"time": 3137, "pitch": 50, "duration": 8, "velocity": 58}, {"time": 3143, "pitch": 62, "duration": 8, "velocity": 63}, {"time": 3143, "pitch": 66, "duration": 24, "velocity": 58}, {"time": 3149, "pitch": 50, "duration": 18, "velocity": 65}, {"time": 3155, "pitch": 62, "duration": 12, "velocity": 79}, {"time": 3161, "pitch": 57, "duration": 6, "velocity": 56}, {"time": 3167, "pitch": 38, "duration": 19, "velocity": 79}, {"time": 3173, "pitch": 45, "duration": 14, "velocity": 47}, {"time": 3180, "pitch": 50, "duration": 6, "velocity": 78}, {"time": 3185, "pitch": 57, "duration": 3, "velocity": 69}, {"time": 3189, "pitch": 38, "duration": 26, "velocity": 46}, {"time": 3190, "pitch": 45, "duration": 24, "velocity": 40}, {"time": 3190, "pitch": 50, "duration": 24, "velocity": 56}, {"time": 3190, "pitch": 57, "duration": 25, "velocity": 68}, {"time": 3191, "pitch": 62, "duration": 23, "velocity": 56}, {"time": 3193, "pitch": 66, "duration": 22, "velocity": 73}], "annotations": [{"time": 191, "annotation": {"number": 64, "value": 127}, "group": "control_change"}, {"time": 214, "annotation": {"number": 64, "value": 0}, "group": "control_change"}, {"time": 215, "annotation": {"number": 64, "value": 127}, "group": "control_change"}, {"time": 236, "annotation": {"number": 64, "value": 0}, "group": "control_change"}, {"time": 240, "annotation": {"number": 64, "value": 127}, "group": "control_change"}, {"time": 285, "annotation": {"number": 64, "value": 0}, "group": "control_change"}, {"time": 286, "annotation": {"number": 64, "value": 127}, "group": "control_change"}, {"time": 309, "annotation": {"number": 64, "value": 0}, "group": "control_change"}, {"time": 311, "annotation": {"number": 64, "value": 127}, "group": "control_change"}, {"time": 332, "annotation": {"number": 64, "value": 0}, "group": "control_change"}, {"time": 335, "annotation": {"number": 64, "value": 127}, "group": "control_change"}, {"time": 380, "annotation": {"number": 64, "value": 0}, "group": "control_change"}, {"time": 383, "annotation": {"number": 64, "value": 127}, "group": "control_change"}, {"time": 398, "annotation": {"number": 64, "value": 0}, "group": "control_change"}, {"time": 401, "annotation": {"number": 64, "value": 127}, "group": "control_change"}, {"time": 406, "annotation": {"number": 64, "value": 0}, "group": "control_change"}, {"time": 407, "annotation": {"number": 64, "value": 127}, "group": "control_change"}, {"time": 429, "annotation": {"number": 64, "value": 0}, "group": "control_change"}, {"time": 431, "annotation": {"number": 64, "value": 127}, "group": "control_change"}, {"time": 447, "annotation": {"number": 64, "value": 0}, "group": "control_change"}, {"time": 449, "annotation": {"number": 64, "value": 127}, "group": "control_change"}, {"time": 454, "annotation": {"number": 64, "value": 0}, "group": "control_change"}, {"time": 455, "annotation": {"number": 64, "value": 127}, "group": "control_change"}, {"time": 477, "annotation": {"number": 64, "value": 0}, "group": "control_change"}, {"time": 479, "annotation": {"number": 64, "value": 127}, "group": "control_change"}, {"time": 495, "annotation": {"number": 64, "value": 0}, "group": "control_change"}, {"time": 497, "annotation": {"number": 64, "value": 127}, "group": "control_change"}, {"time": 502, "annotation": {"number": 64, "value": 0}, "group": "control_change"}, {"time": 503, "annotation": {"number": 64, "value": 127}, "group": "control_change"}, {"time": 525, "annotation": {"number": 64, "value": 0}, "group": "control_change"}, {"time": 527, "annotation": {"number": 64, "value": 127}, "group": "control_change"}, {"time": 543, "annotation": {"number": 64, "value": 0}, "group": "control_change"}, {"time": 545, "annotation": {"number": 64, "value": 127}, "group": "control_change"}, {"time": 550, "annotation": {"number": 64, "value": 0}, "group": "control_change"}, {"time": 551, "annotation": {"number": 64, "value": 127}, "group": "control_change"}, {"time": 573, "annotation": {"number": 64, "value": 0}, "group": "control_change"}, {"time": 575, "annotation": {"number": 64, "value": 127}, "group": "control_change"}, {"time": 597, "annotation": {"number": 64, "value": 0}, "group": "control_change"}, {"time": 599, "annotation": {"number": 64, "value": 127}, "group": "control_change"}, {"time": 615, "annotation": {"number": 64, "value": 0}, "group": "control_change"}, {"time": 617, "annotation": {"number": 64, "value": 127}, "group": "control_change"}, {"time": 621, "annotation": {"number": 64, "value": 0}, "group": "control_change"}, {"time": 623, "annotation": {"number": 64, "value": 127}, "group": "control_change"}, {"time": 645, "annotation": {"number": 64, "value": 0}, "group": "control_change"}, {"time": 647, "annotation": {"number": 64, "value": 127}, "group": "control_change"}, {"time": 669, "annotation": {"number": 64, "value": 0}, "group": "control_change"}, {"time": 671, "annotation": {"number": 64, "value": 127}, "group": "control_change"}, {"time": 687, "annotation": {"number": 64, "value": 0}, "group": "control_change"}, {"time": 688, "annotation": {"number": 64, "value": 127}, "group": "control_change"}, {"time": 693, "annotation": {"number": 64, "value": 0}, "group": "control_change"}, {"time": 695, "annotation": {"number": 64, "value": 127}, "group": "control_change"}, {"time": 717, "annotation": {"number": 64, "value": 0}, "group": "control_change"}, {"time": 719, "annotation": {"number": 64, "value": 127}, "group": "control_change"}, {"time": 735, "annotation": {"number": 64, "value": 0}, "group": "control_change"}, {"time": 737, "annotation": {"number": 64, "value": 127}, "group": "control_change"}, {"time": 741, "annotation": {"number": 64, "value": 0}, "group": "control_change"}, {"time": 743, "annotation": {"number": 64, "value": 127}, "group": "control_change"}, {"time": 764, "annotation": {"number": 64, "value": 0}, "group": "control_change"}, {"time": 767, "annotation": {"number": 64, "value": 127}, "group": "control_change"}, {"time": 783, "annotation": {"number": 64, "value": 0}, "group": "control_change"}, {"time": 785, "annotation": {"number": 64, "value": 127}, "group": "control_change"}, {"time": 789, "annotation": {"number": 64, "value": 0}, "group": "control_change"}, {"time": 791, "annotation": {"number": 64, "value": 127}, "group": "control_change"}, {"time": 813, "annotation": {"number": 64, "value": 0}, "group": "control_change"}, {"time": 815, "annotation": {"number": 64, "value": 127}, "group": "control_change"}, {"time": 831, "annotation": {"number": 64, "value": 0}, "group": "control_change"}, {"time": 833, "annotation": {"number": 64, "value": 127}, "group": "control_change"}, {"time": 837, "annotation": {"number": 64, "value": 0}, "group": "control_change"}, {"time": 838, "annotation": {"number": 64, "value": 127}, "group": "control_change"}, {"time": 860, "annotation": {"number": 64, "value": 0}, "group": "control_change"}, {"time": 862, "annotation": {"number": 64, "value": 127}, "group": "control_change"}, {"time": 863, "annotation": {"number": 64, "value": 127}, "group": "control_change"}, {"time": 885, "annotation": {"number": 64, "value": 0}, "group": "control_change"}, {"time": 887, "annotation": {"number": 64, "value": 127}, "group": "control_change"}, {"time": 907, "annotation": {"number": 64, "value": 0}, "group": "control_change"}, {"time": 911, "annotation": {"number": 64, "value": 127}, "group": "control_change"}, {"time": 931, "annotation": {"number": 64, "value": 0}, "group": "control_change"}, {"time": 934, "annotation": {"number": 64, "value": 127}, "group": "control_change"}, {"time": 956, "annotation": {"number": 64, "value": 0}, "group": "control_change"}, {"time": 959, "annotation": {"number": 64, "value": 127}, "group": "control_change"}, {"time": 981, "annotation": {"number": 64, "value": 0}, "group": "control_change"}, {"time": 983, "annotation": {"number": 64, "value": 127}, "group": "control_change"}, {"time": 1005, "annotation": {"number": 64, "value": 0}, "group": "control_change"}, {"time": 1007, "annotation": {"number": 64, "value": 127}, "group": "control_change"}, {"time": 1023, "annotation": {"number": 64, "value": 0}, "group": "control_change"}, {"time": 1025, "annotation": {"number": 64, "value": 127}, "group": "control_change"}, {"time": 1029, "annotation": {"number": 64, "value": 0}, "group": "control_change"}, {"time": 1031, "annotation": {"number": 64, "value": 127}, "group": "control_change"}, {"time": 1052, "annotation": {"number": 64, "value": 0}, "group": "control_change"}, {"time": 1054, "annotation": {"number": 64, "value": 127}, "group": "control_change"}, {"time": 1076, "annotation": {"number": 64, "value": 0}, "group": "control_change"}, {"time": 1078, "annotation": {"number": 64, "value": 127}, "group": "control_change"}, {"time": 1101, "annotation": {"number": 64, "value": 0}, "group": "control_change"}, {"time": 1102, "annotation": {"number": 64, "value": 127}, "group": "control_change"}, {"time": 1119, "annotation": {"number": 64, "value": 0}, "group": "control_change"}, {"time": 1121, "annotation": {"number": 64, "value": 127}, "group": "control_change"}, {"time": 1125, "annotation": {"number": 64, "value": 0}, "group": "control_change"}, {"time": 1127, "annotation": {"number": 64, "value": 127}, "group": "control_change"}, {"time": 1149, "annotation": {"number": 64, "value": 0}, "group": "control_change"}, {"time": 1151, "annotation": {"number": 64, "value": 127}, "group": "control_change"}, {"time": 1171, "annotation": {"number": 64, "value": 0}, "group": "control_change"}, {"time": 1175, "annotation": {"number": 64, "value": 127}, "group": "control_change"}, {"time": 1190, "annotation": {"number": 64, "value": 0}, "group": "control_change"}, {"time": 1214, "annotation": {"number": 64, "value": 0}, "group": "control_change"}, {"time": 1217, "annotation": {"number": 64, "value": 127}, "group": "control_change"}, {"time": 1222, "annotation": {"number": 64, "value": 0}, "group": "control_change"}, {"time": 1223, "annotation": {"number": 64, "value": 127}, "group": "control_change"}, {"time": 1245, "annotation": {"number": 64, "value": 0}, "group": "control_change"}, {"time": 1247, "annotation": {"number": 64, "value": 127}, "group": "control_change"}, {"time": 1263, "annotation": {"number": 64, "value": 0}, "group": "control_change"}, {"time": 1265, "annotation": {"number": 64, "value": 127}, "group": "control_change"}, {"time": 1270, "annotation": {"number": 64, "value": 0}, "group": "control_change"}, {"time": 1271, "annotation": {"number": 64, "value": 127}, "group": "control_change"}, {"time": 1293, "annotation": {"number": 64, "value": 0}, "group": "control_change"}, {"time": 1295, "annotation": {"number": 64, "value": 127}, "group": "control_change"}, {"time": 1311, "annotation": {"number": 64, "value": 0}, "group": "control_change"}, {"time": 1313, "annotation": {"number": 64, "value": 127}, "group": "control_change"}, {"time": 1318, "annotation": {"number": 64, "value": 0}, "group": "control_change"}, {"time": 1319, "annotation": {"number": 64, "value": 127}, "group": "control_change"}, {"time": 1341, "annotation": {"number": 64, "value": 0}, "group": "control_change"}, {"time": 1343, "annotation": {"number": 64, "value": 127}, "group": "control_change"}, {"time": 1359, "annotation": {"number": 64, "value": 0}, "group": "control_change"}, {"time": 1361, "annotation": {"number": 64, "value": 127}, "group": "control_change"}, {"time": 1366, "annotation": {"number": 64, "value": 0}, "group": "control_change"}, {"time": 1367, "annotation": {"number": 64, "value": 127}, "group": "control_change"}, {"time": 1389, "annotation": {"number": 64, "value": 0}, "group": "control_change"}, {"time": 1391, "annotation": {"number": 64, "value": 127}, "group": "control_change"}, {"time": 1413, "annotation": {"number": 64, "value": 0}, "group": "control_change"}, {"time": 1415, "annotation": {"number": 64, "value": 127}, "group": "control_change"}, {"time": 1431, "annotation": {"number": 64, "value": 0}, "group": "control_change"}, {"time": 1433, "annotation": {"number": 64, "value": 127}, "group": "control_change"}, {"time": 1437, "annotation": {"number": 64, "value": 0}, "group": "control_change"}, {"time": 1439, "annotation": {"number": 64, "value": 127}, "group": "control_change"}, {"time": 1461, "annotation": {"number": 64, "value": 0}, "group": "control_change"}, {"time": 1463, "annotation": {"number": 64, "value": 127}, "group": "control_change"}, {"time": 1485, "annotation": {"number": 64, "value": 0}, "group": "control_change"}, {"time": 1487, "annotation": {"number": 64, "value": 127}, "group": "control_change"}, {"time": 1503, "annotation": {"number": 64, "value": 0}, "group": "control_change"}, {"time": 1504, "annotation": {"number": 64, "value": 127}, "group": "control_change"}, {"time": 1509, "annotation": {"number": 64, "value": 0}, "group": "control_change"}, {"time": 1511, "annotation": {"number": 64, "value": 127}, "group": "control_change"}, {"time": 1533, "annotation": {"number": 64, "value": 0}, "group": "control_change"}, {"time": 1535, "annotation": {"number": 64, "value": 127}, "group": "control_change"}, {"time": 1551, "annotation": {"number": 64, "value": 0}, "group": "control_change"}, {"time": 1553, "annotation": {"number": 64, "value": 127}, "group": "control_change"}, {"time": 1557, "annotation": {"number": 64, "value": 0}, "group": "control_change"}, {"time": 1559, "annotation": {"number": 64, "value": 127}, "group": "control_change"}, {"time": 1580, "annotation": {"number": 64, "value": 0}, "group": "control_change"}, {"time": 1583, "annotation": {"number": 64, "value": 127}, "group": "control_change"}, {"time": 1599, "annotation": {"number": 64, "value": 0}, "group": "control_change"}, {"time": 1601, "annotation": {"number": 64, "value": 127}, "group": "control_change"}, {"time": 1605, "annotation": {"number": 64, "value": 0}, "group": "control_change"}, {"time": 1607, "annotation": {"number": 64, "value": 127}, "group": "control_change"}, {"time": 1629, "annotation": {"number": 64, "value": 0}, "group": "control_change"}, {"time": 1631, "annotation": {"number": 64, "value": 127}, "group": "control_change"}, {"time": 1647, "annotation": {"number": 64, "value": 0}, "group": "control_change"}, {"time": 1649, "annotation": {"number": 64, "value": 127}, "group": "control_change"}, {"time": 1653, "annotation": {"number": 64, "value": 0}, "group": "control_change"}, {"time": 1654, "annotation": {"number": 64, "value": 127}, "group": "control_change"}, {"time": 1676, "annotation": {"number": 64, "value": 0}, "group": "control_change"}, {"time": 1678, "annotation": {"number": 64, "value": 127}, "group": "control_change"}, {"time": 1679, "annotation": {"number": 64, "value": 127}, "group": "control_change"}, {"time": 1701, "annotation": {"number": 64, "value": 0}, "group": "control_change"}, {"time": 1703, "annotation": {"number": 64, "value": 127}, "group": "control_change"}, {"time": 1723, "annotation": {"number": 64, "value": 0}, "group": "control_change"}, {"time": 1727, "annotation": {"number": 64, "value": 127}, "group": "control_change"}, {"time": 1747, "annotation": {"number": 64, "value": 0}, "group": "control_change"}, {"time": 1750, "annotation": {"number": 64, "value": 127}, "group": "control_change"}, {"time": 1772, "annotation": {"number": 64, "value": 0}, "group": "control_change"}, {"time": 1775, "annotation": {"number": 64, "value": 127}, "group": "control_change"}, {"time": 1797, "annotation": {"number": 64, "value": 0}, "group": "control_change"}, {"time": 1799, "annotation": {"number": 64, "value": 127}, "group": "control_change"}, {"time": 1821, "annotation": {"number": 64, "value": 0}, "group": "control_change"}, {"time": 1823, "annotation": {"number": 64, "value": 127}, "group": "control_change"}, {"time": 1839, "annotation": {"number": 64, "value": 0}, "group": "control_change"}, {"time": 1841, "annotation": {"number": 64, "value": 127}, "group": "control_change"}, {"time": 1845, "annotation": {"number": 64, "value": 0}, "group": "control_change"}, {"time": 1847, "annotation": {"number": 64, "value": 127}, "group": "control_change"}, {"time": 1868, "annotation": {"number": 64, "value": 0}, "group": "control_change"}, {"time": 1870, "annotation": {"number": 64, "value": 127}, "group": "control_change"}, {"time": 1892, "annotation": {"number": 64, "value": 0}, "group": "control_change"}, {"time": 1894, "annotation": {"number": 64, "value": 127}, "group": "control_change"}, {"time": 1917, "annotation": {"number": 64, "value": 0}, "group": "control_change"}, {"time": 1918, "annotation": {"number": 64, "value": 127}, "group": "control_change"}, {"time": 1919, "annotation": {"number": 64, "value": 127}, "group": "control_change"}, {"time": 1965, "annotation": {"number": 64, "value": 0}, "group": "control_change"}, {"time": 1966, "annotation": {"number": 64, "value": 127}, "group": "control_change"}, {"time": 2009, "annotation": {"number": 64, "value": 0}, "group": "control_change"}, {"time": 2014, "annotation": {"number": 64, "value": 127}, "group": "control_change"}, {"time": 2038, "annotation": {"number": 64, "value": 0}, "group": "control_change"}, {"time": 2043, "annotation": {"number": 64, "value": 127}, "group": "control_change"}, {"time": 2061, "annotation": {"number": 64, "value": 0}, "group": "control_change"}, {"time": 2063, "annotation": {"number": 64, "value": 127}, "group": "control_change"}, {"time": 2085, "annotation": {"number": 64, "value": 0}, "group": "control_change"}, {"time": 2087, "annotation": {"number": 64, "value": 127}, "group": "control_change"}, {"time": 2109, "annotation": {"number": 64, "value": 0}, "group": "control_change"}, {"time": 2111, "annotation": {"number": 64, "value": 127}, "group": "control_change"}, {"time": 2133, "annotation": {"number": 64, "value": 0}, "group": "control_change"}, {"time": 2135, "annotation": {"number": 64, "value": 127}, "group": "control_change"}, {"time": 2157, "annotation": {"number": 64, "value": 0}, "group": "control_change"}, {"time": 2159, "annotation": {"number": 64, "value": 127}, "group": "control_change"}, {"time": 2181, "annotation": {"number": 64, "value": 0}, "group": "control_change"}, {"time": 2183, "annotation": {"number": 64, "value": 127}, "group": "control_change"}, {"time": 2205, "annotation": {"number": 64, "value": 0}, "group": "control_change"}, {"time": 2207, "annotation": {"number": 64, "value": 127}, "group": "control_change"}, {"time": 2229, "annotation": {"number": 64, "value": 0}, "group": "control_change"}, {"time": 2231, "annotation": {"number": 64, "value": 127}, "group": "control_change"}, {"time": 2253, "annotation": {"number": 64, "value": 0}, "group": "control_change"}, {"time": 2255, "annotation": {"number": 64, "value": 127}, "group": "control_change"}, {"time": 2277, "annotation": {"number": 64, "value": 0}, "group": "control_change"}, {"time": 2279, "annotation": {"number": 64, "value": 127}, "group": "control_change"}, {"time": 2301, "annotation": {"number": 64, "value": 0}, "group": "control_change"}, {"time": 2302, "annotation": {"number": 64, "value": 127}, "group": "control_change"}, {"time": 2324, "annotation": {"number": 64, "value": 0}, "group": "control_change"}, {"time": 2326, "annotation": {"number": 64, "value": 127}, "group": "control_change"}, {"time": 2349, "annotation": {"number": 64, "value": 0}, "group": "control_change"}, {"time": 2351, "annotation": {"number": 64, "value": 127}, "group": "control_change"}, {"time": 2373, "annotation": {"number": 64, "value": 0}, "group": "control_change"}, {"time": 2375, "annotation": {"number": 64, "value": 127}, "group": "control_change"}, {"time": 2376, "annotation": {"number": 64, "value": 0}, "group": "control_change"}, {"time": 2399, "annotation": {"number": 64, "value": 127}, "group": "control_change"}, {"time": 2421, "annotation": {"number": 64, "value": 0}, "group": "control_change"}, {"time": 2423, "annotation": {"number": 64, "value": 127}, "group": "control_change"}, {"time": 2445, "annotation": {"number": 64, "value": 0}, "group": "control_change"}, {"time": 2447, "annotation": {"number": 64, "value": 127}, "group": "control_change"}, {"time": 2469, "annotation": {"number": 64, "value": 0}, "group": "control_change"}, {"time": 2471, "annotation": {"number": 64, "value": 127}, "group": "control_change"}, {"time": 2493, "annotation": {"number": 64, "value": 0}, "group": "control_change"}, {"time": 2495, "annotation": {"number": 64, "value": 127}, "group": "control_change"}, {"time": 2517, "annotation": {"number": 64, "value": 0}, "group": "control_change"}, {"time": 2518, "annotation": {"number": 64, "value": 127}, "group": "control_change"}, {"time": 2539, "annotation": {"number": 64, "value": 0}, "group": "control_change"}, {"time": 2542, "annotation": {"number": 64, "value": 127}, "group": "control_change"}, {"time": 2565, "annotation": {"number": 64, "value": 0}, "group": "control_change"}, {"time": 2567, "annotation": {"number": 64, "value": 127}, "group": "control_change"}, {"time": 2585, "annotation": {"number": 64, "value": 0}, "group": "control_change"}, {"time": 2591, "annotation": {"number": 64, "value": 127}, "group": "control_change"}, {"time": 2612, "annotation": {"number": 64, "value": 0}, "group": "control_change"}, {"time": 2615, "annotation": {"number": 64, "value": 127}, "group": "control_change"}, {"time": 2637, "annotation": {"number": 64, "value": 0}, "group": "control_change"}, {"time": 2638, "annotation": {"number": 64, "value": 127}, "group": "control_change"}, {"time": 2661, "annotation": {"number": 64, "value": 0}, "group": "control_change"}, {"time": 2662, "annotation": {"number": 64, "value": 127}, "group": "control_change"}, {"time": 2684, "annotation": {"number": 64, "value": 0}, "group": "control_change"}, {"time": 2687, "annotation": {"number": 64, "value": 127}, "group": "control_change"}, {"time": 2709, "annotation": {"number": 64, "value": 0}, "group": "control_change"}, {"time": 2711, "annotation": {"number": 64, "value": 127}, "group": "control_change"}, {"time": 2733, "annotation": {"number": 64, "value": 0}, "group": "control_change"}, {"time": 2735, "annotation": {"number": 64, "value": 127}, "group": "control_change"}, {"time": 2757, "annotation": {"number": 64, "value": 0}, "group": "control_change"}, {"time": 2758, "annotation": {"number": 64, "value": 127}, "group": "control_change"}, {"time": 2780, "annotation": {"number": 64, "value": 0}, "group": "control_change"}, {"time": 2782, "annotation": {"number": 64, "value": 127}, "group": "control_change"}, {"time": 2805, "annotation": {"number": 64, "value": 0}, "group": "control_change"}, {"time": 2806, "annotation": {"number": 64, "value": 127}, "group": "control_change"}, {"time": 2829, "annotation": {"number": 64, "value": 0}, "group": "control_change"}, {"time": 2831, "annotation": {"number": 64, "value": 127}, "group": "control_change"}, {"time": 2852, "annotation": {"number": 64, "value": 0}, "group": "control_change"}, {"time": 2854, "annotation": {"number": 64, "value": 127}, "group": "control_change"}, {"time": 2877, "annotation": {"number": 64, "value": 0}, "group": "control_change"}, {"time": 2879, "annotation": {"number": 64, "value": 127}, "group": "control_change"}, {"time": 2901, "annotation": {"number": 64, "value": 0}, "group": "control_change"}, {"time": 2904, "annotation": {"number": 64, "value": 127}, "group": "control_change"}, {"time": 2925, "annotation": {"number": 64, "value": 0}, "group": "control_change"}, {"time": 2926, "annotation": {"number": 64, "value": 127}, "group": "control_change"}, {"time": 2949, "annotation": {"number": 64, "value": 0}, "group": "control_change"}, {"time": 2951, "annotation": {"number": 64, "value": 127}, "group": "control_change"}, {"time": 2973, "annotation": {"number": 64, "value": 0}, "group": "control_change"}, {"time": 2975, "annotation": {"number": 64, "value": 127}, "group": "control_change"}, {"time": 2997, "annotation": {"number": 64, "value": 0}, "group": "control_change"}, {"time": 2999, "annotation": {"number": 64, "value": 127}, "group": "control_change"}, {"time": 3021, "annotation": {"number": 64, "value": 0}, "group": "control_change"}, {"time": 3023, "annotation": {"number": 64, "value": 127}, "group": "control_change"}, {"time": 3069, "annotation": {"number": 64, "value": 0}, "group": "control_change"}, {"time": 3071, "annotation": {"number": 64, "value": 127}, "group": "control_change"}, {"time": 3094, "annotation": {"number": 64, "value": 0}, "group": "control_change"}, {"time": 3095, "annotation": {"number": 64, "value": 127}, "group": "control_change"}, {"time": 3117, "annotation": {"number": 64, "value": 0}, "group": "control_change"}, {"time": 3119, "annotation": {"number": 64, "value": 127}, "group": "control_change"}, {"time": 3141, "annotation": {"number": 64, "value": 0}, "group": "control_change"}, {"time": 3143, "annotation": {"number": 64, "value": 127}, "group": "control_change"}, {"time": 3165, "annotation": {"number": 64, "value": 0}, "group": "control_change"}, {"time": 3166, "annotation": {"number": 64, "value": 127}, "group": "control_change"}, {"time": 3167, "annotation": {"number": 64, "value": 127}, "group": "control_change"}, {"time": 3189, "annotation": {"number": 64, "value": 0}, "group": "control_change"}, {"time": 3192, "annotation": {"number": 64, "value": 127}, "group": "control_change"}, {"time": 3254, "annotation": {"number": 64, "value": 0}, "group": "control_change"}, {"time": 3255, "annotation": {"number": 64, "value": 127}, "group": "control_change"}, {"time": 3261, "annotation": {"number": 64, "value": 0}, "group": "control_change"}]}]}