{"metadata": {"schema_version": "0.2", "title": "None", "source_filename": "490.mid", "source_format": "midi"}, "resolution": 12, "tempos": [{"time": 0, "qpm": 61.00003456668625}], "time_signatures": [{"time": 0, "numerator": 1, "denominator": 4}], "tracks": [{"program": 0, "is_drum": false, "name": "MELODY", "notes": [{"time": 263, "pitch": 69, "duration": 1, "velocity": 94}, {"time": 266, "pitch": 76, "duration": 2, "velocity": 94}, {"time": 269, "pitch": 74, "duration": 1, "velocity": 97}, {"time": 272, "pitch": 76, "duration": 2, "velocity": 98}, {"time": 275, "pitch": 74, "duration": 1, "velocity": 99}, {"time": 278, "pitch": 76, "duration": 2, "velocity": 97}, {"time": 281, "pitch": 81, "duration": 1, "velocity": 97}, {"time": 284, "pitch": 76, "duration": 1, "velocity": 94}, {"time": 287, "pitch": 74, "duration": 1, "velocity": 99}, {"time": 290, "pitch": 73, "duration": 2, "velocity": 93}, {"time": 293, "pitch": 74, "duration": 1, "velocity": 95}, {"time": 296, "pitch": 73, "duration": 2, "velocity": 97}, {"time": 299, "pitch": 69, "duration": 8, "velocity": 94}, {"time": 311, "pitch": 66, "duration": 1, "velocity": 99}, {"time": 314, "pitch": 73, "duration": 2, "velocity": 94}, {"time": 317, "pitch": 73, "duration": 1, "velocity": 95}, {"time": 320, "pitch": 73, "duration": 1, "velocity": 92}, {"time": 323, "pitch": 73, "duration": 1, "velocity": 92}, {"time": 326, "pitch": 73, "duration": 2, "velocity": 99}, {"time": 329, "pitch": 71, "duration": 1, "velocity": 96}, {"time": 332, "pitch": 71, "duration": 1, "velocity": 98}, {"time": 335, "pitch": 73, "duration": 1, "velocity": 95}, {"time": 338, "pitch": 74, "duration": 2, "velocity": 84}, {"time": 341, "pitch": 76, "duration": 6, "velocity": 101}, {"time": 347, "pitch": 78, "duration": 9, "velocity": 94}, {"time": 359, "pitch": 74, "duration": 2, "velocity": 98}, {"time": 362, "pitch": 71, "duration": 1, "velocity": 99}, {"time": 365, "pitch": 71, "duration": 1, "velocity": 92}, {"time": 368, "pitch": 71, "duration": 1, "velocity": 94}, {"time": 371, "pitch": 71, "duration": 1, "velocity": 93}, {"time": 374, "pitch": 71, "duration": 2, "velocity": 96}, {"time": 377, "pitch": 79, "duration": 8, "velocity": 96}, {"time": 386, "pitch": 78, "duration": 4, "velocity": 96}, {"time": 392, "pitch": 76, "duration": 2, "velocity": 92}, {"time": 395, "pitch": 78, "duration": 7, "velocity": 94}, {"time": 407, "pitch": 69, "duration": 1, "velocity": 94}, {"time": 410, "pitch": 76, "duration": 2, "velocity": 101}, {"time": 413, "pitch": 78, "duration": 2, "velocity": 97}, {"time": 416, "pitch": 76, "duration": 1, "velocity": 103}, {"time": 419, "pitch": 78, "duration": 2, "velocity": 92}, {"time": 422, "pitch": 76, "duration": 1, "velocity": 108}, {"time": 425, "pitch": 74, "duration": 6, "velocity": 97}, {"time": 431, "pitch": 74, "duration": 1, "velocity": 92}, {"time": 434, "pitch": 71, "duration": 4, "velocity": 103}, {"time": 440, "pitch": 78, "duration": 2, "velocity": 99}, {"time": 443, "pitch": 76, "duration": 9, "velocity": 103}, {"time": 455, "pitch": 69, "duration": 2, "velocity": 96}, {"time": 458, "pitch": 76, "duration": 1, "velocity": 98}, {"time": 461, "pitch": 74, "duration": 1, "velocity": 91}, {"time": 464, "pitch": 76, "duration": 1, "velocity": 96}, {"time": 467, "pitch": 74, "duration": 1, "velocity": 96}, {"time": 470, "pitch": 76, "duration": 1, "velocity": 93}, {"time": 473, "pitch": 81, "duration": 1, "velocity": 92}, {"time": 476, "pitch": 76, "duration": 1, "velocity": 93}, {"time": 479, "pitch": 74, "duration": 1, "velocity": 96}, {"time": 482, "pitch": 73, "duration": 1, "velocity": 92}, {"time": 485, "pitch": 74, "duration": 1, "velocity": 95}, {"time": 488, "pitch": 73, "duration": 2, "velocity": 103}, {"time": 491, "pitch": 69, "duration": 6, "velocity": 95}, {"time": 503, "pitch": 66, "duration": 1, "velocity": 94}, {"time": 506, "pitch": 73, "duration": 1, "velocity": 80}, {"time": 509, "pitch": 73, "duration": 1, "velocity": 94}, {"time": 512, "pitch": 73, "duration": 1, "velocity": 94}, {"time": 515, "pitch": 73, "duration": 1, "velocity": 96}, {"time": 518, "pitch": 73, "duration": 2, "velocity": 103}, {"time": 521, "pitch": 71, "duration": 1, "velocity": 94}, {"time": 524, "pitch": 71, "duration": 2, "velocity": 93}, {"time": 527, "pitch": 73, "duration": 1, "velocity": 93}, {"time": 530, "pitch": 74, "duration": 1, "velocity": 97}, {"time": 533, "pitch": 76, "duration": 3, "velocity": 98}, {"time": 539, "pitch": 78, "duration": 5, "velocity": 96}, {"time": 551, "pitch": 74, "duration": 1, "velocity": 101}, {"time": 554, "pitch": 71, "duration": 1, "velocity": 98}, {"time": 557, "pitch": 71, "duration": 1, "velocity": 94}, {"time": 560, "pitch": 71, "duration": 1, "velocity": 92}, {"time": 563, "pitch": 71, "duration": 1, "velocity": 93}, {"time": 566, "pitch": 71, "duration": 1, "velocity": 88}, {"time": 569, "pitch": 79, "duration": 8, "velocity": 94}, {"time": 578, "pitch": 78, "duration": 4, "velocity": 98}, {"time": 584, "pitch": 76, "duration": 1, "velocity": 96}, {"time": 587, "pitch": 78, "duration": 6, "velocity": 98}, {"time": 599, "pitch": 69, "duration": 1, "velocity": 94}, {"time": 602, "pitch": 76, "duration": 2, "velocity": 93}, {"time": 605, "pitch": 74, "duration": 1, "velocity": 103}, {"time": 608, "pitch": 76, "duration": 2, "velocity": 98}, {"time": 611, "pitch": 74, "duration": 1, "velocity": 98}, {"time": 614, "pitch": 77, "duration": 4, "velocity": 93}, {"time": 620, "pitch": 76, "duration": 2, "velocity": 93}, {"time": 623, "pitch": 74, "duration": 2, "velocity": 99}, {"time": 626, "pitch": 74, "duration": 1, "velocity": 81}, {"time": 629, "pitch": 78, "duration": 4, "velocity": 96}, {"time": 635, "pitch": 74, "duration": 15, "velocity": 98}, {"time": 668, "pitch": 76, "duration": 2, "velocity": 93}, {"time": 671, "pitch": 74, "duration": 1, "velocity": 99}, {"time": 674, "pitch": 81, "duration": 6, "velocity": 96}, {"time": 680, "pitch": 78, "duration": 1, "velocity": 93}, {"time": 683, "pitch": 78, "duration": 6, "velocity": 89}, {"time": 692, "pitch": 78, "duration": 1, "velocity": 94}, {"time": 695, "pitch": 78, "duration": 1, "velocity": 92}, {"time": 698, "pitch": 78, "duration": 2, "velocity": 98}, {"time": 701, "pitch": 76, "duration": 2, "velocity": 95}, {"time": 704, "pitch": 74, "duration": 1, "velocity": 96}, {"time": 707, "pitch": 69, "duration": 6, "velocity": 93}, {"time": 719, "pitch": 69, "duration": 1, "velocity": 94}, {"time": 722, "pitch": 74, "duration": 1, "velocity": 96}, {"time": 725, "pitch": 73, "duration": 2, "velocity": 101}, {"time": 728, "pitch": 71, "duration": 2, "velocity": 93}, {"time": 731, "pitch": 73, "duration": 1, "velocity": 97}, {"time": 734, "pitch": 74, "duration": 2, "velocity": 94}, {"time": 740, "pitch": 73, "duration": 2, "velocity": 92}, {"time": 743, "pitch": 71, "duration": 1, "velocity": 94}, {"time": 746, "pitch": 69, "duration": 4, "velocity": 94}, {"time": 752, "pitch": 78, "duration": 2, "velocity": 95}, {"time": 755, "pitch": 78, "duration": 6, "velocity": 89}, {"time": 767, "pitch": 78, "duration": 1, "velocity": 99}, {"time": 770, "pitch": 76, "duration": 4, "velocity": 94}, {"time": 776, "pitch": 78, "duration": 1, "velocity": 99}, {"time": 779, "pitch": 79, "duration": 4, "velocity": 95}, {"time": 785, "pitch": 76, "duration": 6, "velocity": 94}, {"time": 794, "pitch": 78, "duration": 4, "velocity": 94}, {"time": 800, "pitch": 76, "duration": 1, "velocity": 94}, {"time": 803, "pitch": 76, "duration": 4, "velocity": 97}, {"time": 809, "pitch": 74, "duration": 3, "velocity": 103}, {"time": 818, "pitch": 79, "duration": 3, "velocity": 96}, {"time": 822, "pitch": 78, "duration": 3, "velocity": 95}, {"time": 826, "pitch": 74, "duration": 2, "velocity": 103}, {"time": 829, "pitch": 71, "duration": 4, "velocity": 99}, {"time": 835, "pitch": 69, "duration": 2, "velocity": 94}, {"time": 838, "pitch": 78, "duration": 4, "velocity": 95}, {"time": 844, "pitch": 76, "duration": 8, "velocity": 99}, {"time": 860, "pitch": 76, "duration": 2, "velocity": 93}, {"time": 863, "pitch": 74, "duration": 1, "velocity": 99}, {"time": 866, "pitch": 81, "duration": 6, "velocity": 96}, {"time": 872, "pitch": 78, "duration": 1, "velocity": 93}, {"time": 875, "pitch": 78, "duration": 6, "velocity": 89}, {"time": 887, "pitch": 78, "duration": 2, "velocity": 96}, {"time": 890, "pitch": 76, "duration": 2, "velocity": 96}, {"time": 893, "pitch": 78, "duration": 4, "velocity": 93}, {"time": 899, "pitch": 78, "duration": 9, "velocity": 98}, {"time": 911, "pitch": 69, "duration": 1, "velocity": 94}, {"time": 914, "pitch": 74, "duration": 1, "velocity": 96}, {"time": 917, "pitch": 73, "duration": 2, "velocity": 101}, {"time": 920, "pitch": 71, "duration": 2, "velocity": 93}, {"time": 923, "pitch": 73, "duration": 1, "velocity": 97}, {"time": 926, "pitch": 74, "duration": 2, "velocity": 94}, {"time": 932, "pitch": 73, "duration": 2, "velocity": 92}, {"time": 935, "pitch": 71, "duration": 1, "velocity": 94}, {"time": 938, "pitch": 69, "duration": 4, "velocity": 94}, {"time": 944, "pitch": 78, "duration": 2, "velocity": 95}, {"time": 947, "pitch": 78, "duration": 6, "velocity": 89}, {"time": 959, "pitch": 78, "duration": 1, "velocity": 99}, {"time": 962, "pitch": 76, "duration": 4, "velocity": 94}, {"time": 968, "pitch": 78, "duration": 1, "velocity": 99}, {"time": 971, "pitch": 79, "duration": 4, "velocity": 95}, {"time": 977, "pitch": 76, "duration": 6, "velocity": 94}, {"time": 986, "pitch": 78, "duration": 4, "velocity": 94}, {"time": 992, "pitch": 76, "duration": 1, "velocity": 94}, {"time": 995, "pitch": 76, "duration": 4, "velocity": 97}, {"time": 1001, "pitch": 74, "duration": 3, "velocity": 103}, {"time": 1010, "pitch": 79, "duration": 3, "velocity": 96}, {"time": 1014, "pitch": 78, "duration": 3, "velocity": 95}, {"time": 1018, "pitch": 79, "duration": 2, "velocity": 103}, {"time": 1022, "pitch": 74, "duration": 6, "velocity": 99}, {"time": 1028, "pitch": 73, "duration": 6, "velocity": 94}, {"time": 1034, "pitch": 74, "duration": 24, "velocity": 99}, {"time": 1463, "pitch": 69, "duration": 2, "velocity": 96}, {"time": 1466, "pitch": 76, "duration": 1, "velocity": 98}, {"time": 1469, "pitch": 74, "duration": 1, "velocity": 91}, {"time": 1472, "pitch": 76, "duration": 1, "velocity": 96}, {"time": 1475, "pitch": 74, "duration": 1, "velocity": 96}, {"time": 1478, "pitch": 76, "duration": 1, "velocity": 93}, {"time": 1481, "pitch": 81, "duration": 1, "velocity": 92}, {"time": 1484, "pitch": 76, "duration": 1, "velocity": 93}, {"time": 1487, "pitch": 74, "duration": 1, "velocity": 96}, {"time": 1490, "pitch": 73, "duration": 1, "velocity": 92}, {"time": 1493, "pitch": 74, "duration": 1, "velocity": 95}, {"time": 1496, "pitch": 73, "duration": 2, "velocity": 103}, {"time": 1499, "pitch": 69, "duration": 6, "velocity": 95}, {"time": 1511, "pitch": 66, "duration": 1, "velocity": 94}, {"time": 1514, "pitch": 73, "duration": 1, "velocity": 80}, {"time": 1517, "pitch": 73, "duration": 1, "velocity": 94}, {"time": 1520, "pitch": 73, "duration": 1, "velocity": 94}, {"time": 1523, "pitch": 73, "duration": 1, "velocity": 96}, {"time": 1526, "pitch": 73, "duration": 2, "velocity": 103}, {"time": 1529, "pitch": 71, "duration": 1, "velocity": 94}, {"time": 1532, "pitch": 71, "duration": 2, "velocity": 93}, {"time": 1535, "pitch": 73, "duration": 1, "velocity": 93}, {"time": 1538, "pitch": 74, "duration": 1, "velocity": 97}, {"time": 1541, "pitch": 76, "duration": 3, "velocity": 98}, {"time": 1547, "pitch": 78, "duration": 5, "velocity": 96}, {"time": 1559, "pitch": 74, "duration": 1, "velocity": 101}, {"time": 1562, "pitch": 71, "duration": 1, "velocity": 98}, {"time": 1565, "pitch": 71, "duration": 1, "velocity": 94}, {"time": 1568, "pitch": 71, "duration": 1, "velocity": 92}, {"time": 1571, "pitch": 71, "duration": 1, "velocity": 93}, {"time": 1574, "pitch": 71, "duration": 1, "velocity": 88}, {"time": 1577, "pitch": 79, "duration": 8, "velocity": 94}, {"time": 1586, "pitch": 78, "duration": 4, "velocity": 98}, {"time": 1592, "pitch": 76, "duration": 1, "velocity": 96}, {"time": 1595, "pitch": 78, "duration": 6, "velocity": 98}, {"time": 1607, "pitch": 69, "duration": 1, "velocity": 94}, {"time": 1610, "pitch": 76, "duration": 2, "velocity": 93}, {"time": 1613, "pitch": 74, "duration": 1, "velocity": 103}, {"time": 1616, "pitch": 76, "duration": 2, "velocity": 98}, {"time": 1619, "pitch": 74, "duration": 1, "velocity": 98}, {"time": 1622, "pitch": 77, "duration": 4, "velocity": 93}, {"time": 1628, "pitch": 76, "duration": 2, "velocity": 93}, {"time": 1631, "pitch": 74, "duration": 2, "velocity": 99}, {"time": 1634, "pitch": 74, "duration": 1, "velocity": 81}, {"time": 1637, "pitch": 78, "duration": 4, "velocity": 96}, {"time": 1643, "pitch": 74, "duration": 15, "velocity": 98}, {"time": 1676, "pitch": 76, "duration": 2, "velocity": 93}, {"time": 1679, "pitch": 74, "duration": 1, "velocity": 99}, {"time": 1682, "pitch": 81, "duration": 6, "velocity": 96}, {"time": 1688, "pitch": 78, "duration": 1, "velocity": 93}, {"time": 1691, "pitch": 78, "duration": 6, "velocity": 89}, {"time": 1700, "pitch": 78, "duration": 1, "velocity": 94}, {"time": 1703, "pitch": 78, "duration": 1, "velocity": 92}, {"time": 1706, "pitch": 78, "duration": 2, "velocity": 98}, {"time": 1709, "pitch": 76, "duration": 2, "velocity": 95}, {"time": 1712, "pitch": 74, "duration": 1, "velocity": 96}, {"time": 1715, "pitch": 69, "duration": 6, "velocity": 93}, {"time": 1727, "pitch": 69, "duration": 1, "velocity": 94}, {"time": 1730, "pitch": 74, "duration": 1, "velocity": 96}, {"time": 1733, "pitch": 73, "duration": 2, "velocity": 101}, {"time": 1736, "pitch": 71, "duration": 2, "velocity": 93}, {"time": 1739, "pitch": 73, "duration": 1, "velocity": 97}, {"time": 1742, "pitch": 74, "duration": 2, "velocity": 94}, {"time": 1748, "pitch": 73, "duration": 2, "velocity": 92}, {"time": 1751, "pitch": 71, "duration": 1, "velocity": 94}, {"time": 1754, "pitch": 69, "duration": 4, "velocity": 94}, {"time": 1760, "pitch": 78, "duration": 2, "velocity": 95}, {"time": 1763, "pitch": 78, "duration": 6, "velocity": 89}, {"time": 1775, "pitch": 78, "duration": 1, "velocity": 99}, {"time": 1778, "pitch": 76, "duration": 4, "velocity": 94}, {"time": 1784, "pitch": 78, "duration": 1, "velocity": 99}, {"time": 1787, "pitch": 79, "duration": 4, "velocity": 95}, {"time": 1793, "pitch": 76, "duration": 6, "velocity": 94}, {"time": 1802, "pitch": 78, "duration": 4, "velocity": 94}, {"time": 1808, "pitch": 76, "duration": 1, "velocity": 94}, {"time": 1811, "pitch": 76, "duration": 4, "velocity": 97}, {"time": 1817, "pitch": 74, "duration": 3, "velocity": 103}, {"time": 1826, "pitch": 79, "duration": 3, "velocity": 96}, {"time": 1830, "pitch": 78, "duration": 3, "velocity": 95}, {"time": 1834, "pitch": 74, "duration": 2, "velocity": 103}, {"time": 1837, "pitch": 71, "duration": 4, "velocity": 99}, {"time": 1843, "pitch": 69, "duration": 2, "velocity": 94}, {"time": 1846, "pitch": 78, "duration": 4, "velocity": 95}, {"time": 1852, "pitch": 76, "duration": 8, "velocity": 99}, {"time": 1868, "pitch": 76, "duration": 2, "velocity": 93}, {"time": 1871, "pitch": 74, "duration": 1, "velocity": 99}, {"time": 1874, "pitch": 81, "duration": 6, "velocity": 96}, {"time": 1880, "pitch": 78, "duration": 1, "velocity": 93}, {"time": 1883, "pitch": 78, "duration": 6, "velocity": 89}, {"time": 1895, "pitch": 78, "duration": 2, "velocity": 96}, {"time": 1898, "pitch": 76, "duration": 2, "velocity": 96}, {"time": 1901, "pitch": 78, "duration": 4, "velocity": 93}, {"time": 1907, "pitch": 78, "duration": 9, "velocity": 98}, {"time": 1919, "pitch": 69, "duration": 1, "velocity": 94}, {"time": 1922, "pitch": 74, "duration": 1, "velocity": 96}, {"time": 1925, "pitch": 73, "duration": 2, "velocity": 101}, {"time": 1928, "pitch": 71, "duration": 2, "velocity": 93}, {"time": 1931, "pitch": 73, "duration": 1, "velocity": 97}, {"time": 1934, "pitch": 74, "duration": 2, "velocity": 94}, {"time": 1940, "pitch": 73, "duration": 2, "velocity": 92}, {"time": 1943, "pitch": 71, "duration": 1, "velocity": 94}, {"time": 1946, "pitch": 69, "duration": 4, "velocity": 94}, {"time": 1952, "pitch": 78, "duration": 2, "velocity": 95}, {"time": 1955, "pitch": 78, "duration": 6, "velocity": 89}, {"time": 1967, "pitch": 78, "duration": 1, "velocity": 99}, {"time": 1970, "pitch": 76, "duration": 4, "velocity": 94}, {"time": 1976, "pitch": 78, "duration": 1, "velocity": 99}, {"time": 1979, "pitch": 79, "duration": 4, "velocity": 95}, {"time": 1985, "pitch": 76, "duration": 6, "velocity": 94}, {"time": 1994, "pitch": 78, "duration": 4, "velocity": 94}, {"time": 2000, "pitch": 76, "duration": 1, "velocity": 94}, {"time": 2003, "pitch": 76, "duration": 4, "velocity": 97}, {"time": 2009, "pitch": 74, "duration": 3, "velocity": 103}, {"time": 2018, "pitch": 79, "duration": 3, "velocity": 96}, {"time": 2022, "pitch": 78, "duration": 3, "velocity": 95}, {"time": 2026, "pitch": 79, "duration": 2, "velocity": 103}, {"time": 2030, "pitch": 74, "duration": 6, "velocity": 99}, {"time": 2036, "pitch": 73, "duration": 6, "velocity": 94}, {"time": 2042, "pitch": 74, "duration": 24, "velocity": 99}, {"time": 2084, "pitch": 76, "duration": 2, "velocity": 93}, {"time": 2087, "pitch": 74, "duration": 1, "velocity": 99}, {"time": 2090, "pitch": 81, "duration": 6, "velocity": 96}, {"time": 2096, "pitch": 78, "duration": 1, "velocity": 93}, {"time": 2099, "pitch": 78, "duration": 6, "velocity": 89}, {"time": 2108, "pitch": 78, "duration": 1, "velocity": 94}, {"time": 2111, "pitch": 78, "duration": 1, "velocity": 92}, {"time": 2114, "pitch": 78, "duration": 2, "velocity": 98}, {"time": 2117, "pitch": 76, "duration": 2, "velocity": 95}, {"time": 2120, "pitch": 74, "duration": 1, "velocity": 96}, {"time": 2123, "pitch": 69, "duration": 6, "velocity": 93}, {"time": 2135, "pitch": 69, "duration": 1, "velocity": 94}, {"time": 2138, "pitch": 74, "duration": 1, "velocity": 96}, {"time": 2141, "pitch": 73, "duration": 2, "velocity": 101}, {"time": 2144, "pitch": 71, "duration": 2, "velocity": 93}, {"time": 2147, "pitch": 73, "duration": 1, "velocity": 97}, {"time": 2150, "pitch": 74, "duration": 2, "velocity": 94}, {"time": 2156, "pitch": 73, "duration": 2, "velocity": 92}, {"time": 2159, "pitch": 71, "duration": 1, "velocity": 94}, {"time": 2162, "pitch": 69, "duration": 4, "velocity": 94}, {"time": 2168, "pitch": 78, "duration": 2, "velocity": 95}, {"time": 2171, "pitch": 78, "duration": 6, "velocity": 89}, {"time": 2183, "pitch": 78, "duration": 1, "velocity": 99}, {"time": 2186, "pitch": 76, "duration": 4, "velocity": 94}, {"time": 2192, "pitch": 78, "duration": 1, "velocity": 99}, {"time": 2195, "pitch": 79, "duration": 4, "velocity": 95}, {"time": 2201, "pitch": 76, "duration": 6, "velocity": 94}, {"time": 2210, "pitch": 78, "duration": 4, "velocity": 94}, {"time": 2216, "pitch": 76, "duration": 1, "velocity": 94}, {"time": 2219, "pitch": 76, "duration": 4, "velocity": 97}, {"time": 2225, "pitch": 74, "duration": 3, "velocity": 103}, {"time": 2234, "pitch": 79, "duration": 3, "velocity": 96}, {"time": 2238, "pitch": 78, "duration": 3, "velocity": 95}, {"time": 2242, "pitch": 74, "duration": 2, "velocity": 103}, {"time": 2245, "pitch": 71, "duration": 4, "velocity": 99}, {"time": 2251, "pitch": 69, "duration": 2, "velocity": 94}, {"time": 2254, "pitch": 78, "duration": 4, "velocity": 95}, {"time": 2260, "pitch": 76, "duration": 8, "velocity": 99}, {"time": 2276, "pitch": 76, "duration": 2, "velocity": 93}, {"time": 2279, "pitch": 74, "duration": 1, "velocity": 99}, {"time": 2282, "pitch": 81, "duration": 6, "velocity": 96}, {"time": 2288, "pitch": 78, "duration": 1, "velocity": 93}, {"time": 2291, "pitch": 78, "duration": 6, "velocity": 89}, {"time": 2303, "pitch": 78, "duration": 2, "velocity": 96}, {"time": 2306, "pitch": 76, "duration": 2, "velocity": 96}, {"time": 2309, "pitch": 78, "duration": 4, "velocity": 93}, {"time": 2315, "pitch": 78, "duration": 9, "velocity": 98}, {"time": 2327, "pitch": 69, "duration": 1, "velocity": 94}, {"time": 2330, "pitch": 74, "duration": 1, "velocity": 96}, {"time": 2333, "pitch": 73, "duration": 2, "velocity": 101}, {"time": 2336, "pitch": 71, "duration": 2, "velocity": 93}, {"time": 2339, "pitch": 73, "duration": 1, "velocity": 97}, {"time": 2342, "pitch": 74, "duration": 2, "velocity": 94}, {"time": 2348, "pitch": 73, "duration": 2, "velocity": 92}, {"time": 2351, "pitch": 71, "duration": 1, "velocity": 94}, {"time": 2354, "pitch": 69, "duration": 4, "velocity": 94}, {"time": 2360, "pitch": 78, "duration": 2, "velocity": 95}, {"time": 2363, "pitch": 78, "duration": 6, "velocity": 89}, {"time": 2375, "pitch": 78, "duration": 1, "velocity": 99}, {"time": 2378, "pitch": 76, "duration": 4, "velocity": 94}, {"time": 2384, "pitch": 78, "duration": 1, "velocity": 99}, {"time": 2387, "pitch": 79, "duration": 4, "velocity": 95}, {"time": 2393, "pitch": 76, "duration": 6, "velocity": 94}, {"time": 2402, "pitch": 78, "duration": 4, "velocity": 94}, {"time": 2408, "pitch": 76, "duration": 1, "velocity": 94}, {"time": 2411, "pitch": 76, "duration": 4, "velocity": 97}, {"time": 2417, "pitch": 74, "duration": 3, "velocity": 103}, {"time": 2426, "pitch": 79, "duration": 3, "velocity": 96}, {"time": 2430, "pitch": 78, "duration": 3, "velocity": 95}, {"time": 2434, "pitch": 79, "duration": 2, "velocity": 103}, {"time": 2438, "pitch": 74, "duration": 6, "velocity": 99}, {"time": 2444, "pitch": 73, "duration": 6, "velocity": 94}, {"time": 2450, "pitch": 74, "duration": 24, "velocity": 99}]}, {"program": 0, "is_drum": false, "name": "BRIDGE", "notes": [{"time": 50, "pitch": 79, "duration": 11, "velocity": 101}, {"time": 62, "pitch": 74, "duration": 6, "velocity": 108}, {"time": 68, "pitch": 79, "duration": 5, "velocity": 99}, {"time": 74, "pitch": 78, "duration": 11, "velocity": 109}, {"time": 86, "pitch": 74, "duration": 10, "velocity": 109}, {"time": 98, "pitch": 79, "duration": 10, "velocity": 98}, {"time": 110, "pitch": 74, "duration": 5, "velocity": 109}, {"time": 116, "pitch": 79, "duration": 4, "velocity": 99}, {"time": 122, "pitch": 78, "duration": 19, "velocity": 98}, {"time": 146, "pitch": 79, "duration": 12, "velocity": 96}, {"time": 158, "pitch": 81, "duration": 5, "velocity": 103}, {"time": 164, "pitch": 79, "duration": 6, "velocity": 99}, {"time": 170, "pitch": 78, "duration": 11, "velocity": 99}, {"time": 182, "pitch": 74, "duration": 10, "velocity": 106}, {"time": 194, "pitch": 76, "duration": 11, "velocity": 106}, {"time": 206, "pitch": 78, "duration": 6, "velocity": 113}, {"time": 212, "pitch": 79, "duration": 6, "velocity": 97}, {"time": 218, "pitch": 76, "duration": 24, "velocity": 106}, {"time": 269, "pitch": 69, "duration": 3, "velocity": 80}, {"time": 272, "pitch": 78, "duration": 4, "velocity": 81}, {"time": 275, "pitch": 76, "duration": 6, "velocity": 87}, {"time": 281, "pitch": 74, "duration": 7, "velocity": 93}, {"time": 293, "pitch": 69, "duration": 3, "velocity": 62}, {"time": 296, "pitch": 78, "duration": 4, "velocity": 77}, {"time": 299, "pitch": 76, "duration": 6, "velocity": 88}, {"time": 305, "pitch": 74, "duration": 6, "velocity": 92}, {"time": 317, "pitch": 69, "duration": 3, "velocity": 80}, {"time": 320, "pitch": 78, "duration": 4, "velocity": 81}, {"time": 323, "pitch": 76, "duration": 6, "velocity": 87}, {"time": 329, "pitch": 74, "duration": 7, "velocity": 93}, {"time": 341, "pitch": 69, "duration": 3, "velocity": 62}, {"time": 344, "pitch": 78, "duration": 4, "velocity": 77}, {"time": 347, "pitch": 76, "duration": 6, "velocity": 88}, {"time": 353, "pitch": 74, "duration": 6, "velocity": 92}, {"time": 461, "pitch": 69, "duration": 3, "velocity": 80}, {"time": 464, "pitch": 78, "duration": 4, "velocity": 81}, {"time": 467, "pitch": 76, "duration": 6, "velocity": 87}, {"time": 473, "pitch": 74, "duration": 7, "velocity": 93}, {"time": 485, "pitch": 69, "duration": 3, "velocity": 62}, {"time": 488, "pitch": 78, "duration": 4, "velocity": 77}, {"time": 491, "pitch": 76, "duration": 6, "velocity": 88}, {"time": 497, "pitch": 74, "duration": 6, "velocity": 92}, {"time": 509, "pitch": 69, "duration": 3, "velocity": 80}, {"time": 512, "pitch": 78, "duration": 4, "velocity": 81}, {"time": 515, "pitch": 76, "duration": 6, "velocity": 87}, {"time": 521, "pitch": 74, "duration": 7, "velocity": 93}, {"time": 533, "pitch": 69, "duration": 3, "velocity": 62}, {"time": 536, "pitch": 78, "duration": 4, "velocity": 77}, {"time": 539, "pitch": 76, "duration": 6, "velocity": 88}, {"time": 545, "pitch": 74, "duration": 6, "velocity": 92}, {"time": 635, "pitch": 81, "duration": 3, "velocity": 92}, {"time": 638, "pitch": 76, "duration": 3, "velocity": 85}, {"time": 641, "pitch": 78, "duration": 3, "velocity": 97}, {"time": 644, "pitch": 74, "duration": 5, "velocity": 99}, {"time": 650, "pitch": 69, "duration": 3, "velocity": 87}, {"time": 653, "pitch": 72, "duration": 4, "velocity": 89}, {"time": 656, "pitch": 76, "duration": 3, "velocity": 91}, {"time": 659, "pitch": 79, "duration": 6, "velocity": 99}, {"time": 665, "pitch": 76, "duration": 3, "velocity": 97}, {"time": 668, "pitch": 72, "duration": 4, "velocity": 88}, {"time": 674, "pitch": 62, "duration": 22, "velocity": 84}, {"time": 674, "pitch": 66, "duration": 22, "velocity": 84}, {"time": 698, "pitch": 69, "duration": 24, "velocity": 88}, {"time": 722, "pitch": 71, "duration": 22, "velocity": 82}, {"time": 746, "pitch": 69, "duration": 21, "velocity": 79}, {"time": 842, "pitch": 69, "duration": 4, "velocity": 85}, {"time": 842, "pitch": 73, "duration": 4, "velocity": 83}, {"time": 848, "pitch": 69, "duration": 1, "velocity": 86}, {"time": 848, "pitch": 73, "duration": 2, "velocity": 80}, {"time": 851, "pitch": 71, "duration": 5, "velocity": 92}, {"time": 851, "pitch": 74, "duration": 4, "velocity": 94}, {"time": 857, "pitch": 73, "duration": 8, "velocity": 86}, {"time": 857, "pitch": 76, "duration": 8, "velocity": 94}, {"time": 866, "pitch": 62, "duration": 22, "velocity": 84}, {"time": 866, "pitch": 66, "duration": 22, "velocity": 84}, {"time": 890, "pitch": 69, "duration": 24, "velocity": 88}, {"time": 914, "pitch": 71, "duration": 22, "velocity": 82}, {"time": 938, "pitch": 69, "duration": 21, "velocity": 79}, {"time": 962, "pitch": 71, "duration": 19, "velocity": 82}, {"time": 962, "pitch": 76, "duration": 20, "velocity": 85}, {"time": 998, "pitch": 74, "duration": 12, "velocity": 92}, {"time": 1010, "pitch": 70, "duration": 22, "velocity": 88}, {"time": 1034, "pitch": 62, "duration": 3, "velocity": 88}, {"time": 1037, "pitch": 66, "duration": 3, "velocity": 82}, {"time": 1040, "pitch": 67, "duration": 3, "velocity": 88}, {"time": 1043, "pitch": 71, "duration": 6, "velocity": 93}, {"time": 1049, "pitch": 69, "duration": 6, "velocity": 84}, {"time": 1055, "pitch": 67, "duration": 3, "velocity": 79}, {"time": 1058, "pitch": 79, "duration": 11, "velocity": 101}, {"time": 1058, "pitch": 83, "duration": 11, "velocity": 101}, {"time": 1070, "pitch": 74, "duration": 6, "velocity": 108}, {"time": 1070, "pitch": 79, "duration": 6, "velocity": 108}, {"time": 1076, "pitch": 79, "duration": 5, "velocity": 99}, {"time": 1076, "pitch": 83, "duration": 5, "velocity": 99}, {"time": 1082, "pitch": 78, "duration": 11, "velocity": 109}, {"time": 1082, "pitch": 81, "duration": 11, "velocity": 109}, {"time": 1094, "pitch": 74, "duration": 10, "velocity": 109}, {"time": 1094, "pitch": 78, "duration": 10, "velocity": 109}, {"time": 1106, "pitch": 79, "duration": 10, "velocity": 98}, {"time": 1106, "pitch": 83, "duration": 10, "velocity": 98}, {"time": 1118, "pitch": 74, "duration": 5, "velocity": 109}, {"time": 1118, "pitch": 79, "duration": 5, "velocity": 109}, {"time": 1124, "pitch": 79, "duration": 4, "velocity": 99}, {"time": 1124, "pitch": 83, "duration": 4, "velocity": 99}, {"time": 1130, "pitch": 78, "duration": 19, "velocity": 98}, {"time": 1130, "pitch": 81, "duration": 19, "velocity": 98}, {"time": 1154, "pitch": 79, "duration": 12, "velocity": 96}, {"time": 1154, "pitch": 83, "duration": 12, "velocity": 96}, {"time": 1166, "pitch": 81, "duration": 5, "velocity": 103}, {"time": 1166, "pitch": 85, "duration": 5, "velocity": 103}, {"time": 1172, "pitch": 79, "duration": 6, "velocity": 99}, {"time": 1172, "pitch": 83, "duration": 6, "velocity": 99}, {"time": 1178, "pitch": 78, "duration": 9, "velocity": 99}, {"time": 1178, "pitch": 81, "duration": 9, "velocity": 99}, {"time": 1187, "pitch": 76, "duration": 6, "velocity": 114}, {"time": 1187, "pitch": 79, "duration": 6, "velocity": 114}, {"time": 1193, "pitch": 74, "duration": 7, "velocity": 106}, {"time": 1193, "pitch": 78, "duration": 7, "velocity": 106}, {"time": 1202, "pitch": 76, "duration": 11, "velocity": 106}, {"time": 1202, "pitch": 79, "duration": 11, "velocity": 106}, {"time": 1214, "pitch": 78, "duration": 6, "velocity": 113}, {"time": 1214, "pitch": 81, "duration": 6, "velocity": 113}, {"time": 1220, "pitch": 79, "duration": 6, "velocity": 97}, {"time": 1220, "pitch": 83, "duration": 6, "velocity": 97}, {"time": 1226, "pitch": 76, "duration": 24, "velocity": 106}, {"time": 1226, "pitch": 81, "duration": 24, "velocity": 106}, {"time": 1250, "pitch": 71, "duration": 5, "velocity": 96}, {"time": 1256, "pitch": 70, "duration": 2, "velocity": 95}, {"time": 1259, "pitch": 70, "duration": 4, "velocity": 93}, {"time": 1265, "pitch": 78, "duration": 3, "velocity": 94}, {"time": 1268, "pitch": 76, "duration": 2, "velocity": 93}, {"time": 1271, "pitch": 74, "duration": 8, "velocity": 103}, {"time": 1280, "pitch": 69, "duration": 1, "velocity": 93}, {"time": 1283, "pitch": 69, "duration": 12, "velocity": 94}, {"time": 1298, "pitch": 70, "duration": 4, "velocity": 96}, {"time": 1304, "pitch": 67, "duration": 2, "velocity": 97}, {"time": 1307, "pitch": 67, "duration": 4, "velocity": 91}, {"time": 1313, "pitch": 74, "duration": 6, "velocity": 99}, {"time": 1319, "pitch": 69, "duration": 18, "velocity": 93}, {"time": 1348, "pitch": 69, "duration": 3, "velocity": 90}, {"time": 1350, "pitch": 70, "duration": 2, "velocity": 101}, {"time": 1353, "pitch": 78, "duration": 2, "velocity": 103}, {"time": 1355, "pitch": 81, "duration": 3, "velocity": 96}, {"time": 1358, "pitch": 79, "duration": 6, "velocity": 96}, {"time": 1364, "pitch": 76, "duration": 3, "velocity": 98}, {"time": 1367, "pitch": 79, "duration": 3, "velocity": 94}, {"time": 1370, "pitch": 78, "duration": 6, "velocity": 94}, {"time": 1376, "pitch": 78, "duration": 3, "velocity": 94}, {"time": 1379, "pitch": 76, "duration": 5, "velocity": 103}, {"time": 1385, "pitch": 74, "duration": 8, "velocity": 99}, {"time": 1394, "pitch": 76, "duration": 7, "velocity": 96}, {"time": 1402, "pitch": 76, "duration": 2, "velocity": 101}, {"time": 1406, "pitch": 76, "duration": 4, "velocity": 108}, {"time": 1411, "pitch": 78, "duration": 3, "velocity": 98}, {"time": 1415, "pitch": 79, "duration": 2, "velocity": 98}, {"time": 1418, "pitch": 78, "duration": 5, "velocity": 99}, {"time": 1423, "pitch": 76, "duration": 9, "velocity": 108}, {"time": 1434, "pitch": 67, "duration": 2, "velocity": 94}, {"time": 1436, "pitch": 71, "duration": 2, "velocity": 94}, {"time": 1438, "pitch": 74, "duration": 4, "velocity": 98}, {"time": 1442, "pitch": 73, "duration": 4, "velocity": 103}, {"time": 1446, "pitch": 71, "duration": 4, "velocity": 94}, {"time": 1451, "pitch": 69, "duration": 16, "velocity": 94}, {"time": 1469, "pitch": 69, "duration": 3, "velocity": 80}, {"time": 1472, "pitch": 78, "duration": 4, "velocity": 81}, {"time": 1475, "pitch": 76, "duration": 6, "velocity": 87}, {"time": 1481, "pitch": 74, "duration": 7, "velocity": 93}, {"time": 1493, "pitch": 69, "duration": 3, "velocity": 62}, {"time": 1496, "pitch": 78, "duration": 4, "velocity": 77}, {"time": 1499, "pitch": 76, "duration": 6, "velocity": 88}, {"time": 1505, "pitch": 74, "duration": 6, "velocity": 92}, {"time": 1517, "pitch": 69, "duration": 3, "velocity": 80}, {"time": 1520, "pitch": 78, "duration": 4, "velocity": 81}, {"time": 1523, "pitch": 76, "duration": 6, "velocity": 87}, {"time": 1529, "pitch": 74, "duration": 7, "velocity": 93}, {"time": 1541, "pitch": 69, "duration": 3, "velocity": 62}, {"time": 1544, "pitch": 78, "duration": 4, "velocity": 77}, {"time": 1547, "pitch": 76, "duration": 6, "velocity": 88}, {"time": 1553, "pitch": 74, "duration": 6, "velocity": 92}, {"time": 1643, "pitch": 81, "duration": 3, "velocity": 92}, {"time": 1646, "pitch": 76, "duration": 3, "velocity": 85}, {"time": 1649, "pitch": 78, "duration": 3, "velocity": 97}, {"time": 1652, "pitch": 74, "duration": 5, "velocity": 99}, {"time": 1658, "pitch": 69, "duration": 3, "velocity": 87}, {"time": 1661, "pitch": 72, "duration": 4, "velocity": 89}, {"time": 1664, "pitch": 76, "duration": 3, "velocity": 91}, {"time": 1667, "pitch": 79, "duration": 6, "velocity": 99}, {"time": 1673, "pitch": 76, "duration": 3, "velocity": 97}, {"time": 1676, "pitch": 72, "duration": 4, "velocity": 88}, {"time": 1682, "pitch": 62, "duration": 22, "velocity": 84}, {"time": 1682, "pitch": 66, "duration": 22, "velocity": 84}, {"time": 1706, "pitch": 69, "duration": 24, "velocity": 88}, {"time": 1730, "pitch": 71, "duration": 22, "velocity": 82}, {"time": 1754, "pitch": 69, "duration": 21, "velocity": 79}, {"time": 1850, "pitch": 69, "duration": 4, "velocity": 85}, {"time": 1850, "pitch": 73, "duration": 4, "velocity": 83}, {"time": 1856, "pitch": 69, "duration": 1, "velocity": 86}, {"time": 1856, "pitch": 73, "duration": 2, "velocity": 80}, {"time": 1859, "pitch": 71, "duration": 5, "velocity": 92}, {"time": 1859, "pitch": 74, "duration": 4, "velocity": 94}, {"time": 1865, "pitch": 73, "duration": 8, "velocity": 86}, {"time": 1865, "pitch": 76, "duration": 8, "velocity": 94}, {"time": 1874, "pitch": 62, "duration": 22, "velocity": 84}, {"time": 1874, "pitch": 66, "duration": 22, "velocity": 84}, {"time": 1898, "pitch": 69, "duration": 24, "velocity": 88}, {"time": 1922, "pitch": 71, "duration": 22, "velocity": 82}, {"time": 1946, "pitch": 69, "duration": 21, "velocity": 79}, {"time": 1970, "pitch": 71, "duration": 19, "velocity": 82}, {"time": 1970, "pitch": 76, "duration": 20, "velocity": 85}, {"time": 2006, "pitch": 74, "duration": 12, "velocity": 92}, {"time": 2018, "pitch": 70, "duration": 22, "velocity": 88}, {"time": 2042, "pitch": 62, "duration": 3, "velocity": 88}, {"time": 2045, "pitch": 66, "duration": 3, "velocity": 82}, {"time": 2048, "pitch": 67, "duration": 3, "velocity": 88}, {"time": 2051, "pitch": 71, "duration": 6, "velocity": 93}, {"time": 2057, "pitch": 69, "duration": 6, "velocity": 84}, {"time": 2063, "pitch": 67, "duration": 3, "velocity": 79}, {"time": 2066, "pitch": 69, "duration": 3, "velocity": 98}, {"time": 2069, "pitch": 72, "duration": 4, "velocity": 91}, {"time": 2072, "pitch": 76, "duration": 3, "velocity": 88}, {"time": 2075, "pitch": 79, "duration": 8, "velocity": 92}, {"time": 2081, "pitch": 76, "duration": 3, "velocity": 93}, {"time": 2084, "pitch": 72, "duration": 3, "velocity": 92}, {"time": 2087, "pitch": 69, "duration": 2, "velocity": 92}, {"time": 2090, "pitch": 62, "duration": 22, "velocity": 84}, {"time": 2090, "pitch": 66, "duration": 22, "velocity": 84}, {"time": 2114, "pitch": 69, "duration": 24, "velocity": 88}, {"time": 2138, "pitch": 71, "duration": 22, "velocity": 82}, {"time": 2162, "pitch": 69, "duration": 21, "velocity": 79}, {"time": 2186, "pitch": 76, "duration": 22, "velocity": 94}, {"time": 2210, "pitch": 78, "duration": 18, "velocity": 93}, {"time": 2228, "pitch": 74, "duration": 4, "velocity": 96}, {"time": 2234, "pitch": 74, "duration": 17, "velocity": 94}, {"time": 2258, "pitch": 69, "duration": 4, "velocity": 85}, {"time": 2258, "pitch": 73, "duration": 4, "velocity": 83}, {"time": 2264, "pitch": 69, "duration": 1, "velocity": 86}, {"time": 2264, "pitch": 73, "duration": 2, "velocity": 80}, {"time": 2267, "pitch": 71, "duration": 5, "velocity": 92}, {"time": 2267, "pitch": 74, "duration": 4, "velocity": 94}, {"time": 2273, "pitch": 73, "duration": 8, "velocity": 86}, {"time": 2273, "pitch": 76, "duration": 8, "velocity": 94}, {"time": 2282, "pitch": 62, "duration": 22, "velocity": 84}, {"time": 2282, "pitch": 66, "duration": 22, "velocity": 84}, {"time": 2306, "pitch": 69, "duration": 24, "velocity": 88}, {"time": 2330, "pitch": 71, "duration": 22, "velocity": 82}, {"time": 2354, "pitch": 69, "duration": 21, "velocity": 79}, {"time": 2378, "pitch": 71, "duration": 19, "velocity": 82}, {"time": 2378, "pitch": 76, "duration": 20, "velocity": 85}, {"time": 2414, "pitch": 74, "duration": 12, "velocity": 92}, {"time": 2426, "pitch": 70, "duration": 22, "velocity": 88}, {"time": 2450, "pitch": 62, "duration": 3, "velocity": 88}, {"time": 2453, "pitch": 66, "duration": 3, "velocity": 82}, {"time": 2456, "pitch": 67, "duration": 3, "velocity": 88}, {"time": 2459, "pitch": 71, "duration": 6, "velocity": 93}, {"time": 2465, "pitch": 69, "duration": 6, "velocity": 84}, {"time": 2471, "pitch": 67, "duration": 3, "velocity": 79}, {"time": 2474, "pitch": 79, "duration": 11, "velocity": 101}, {"time": 2474, "pitch": 83, "duration": 11, "velocity": 101}, {"time": 2486, "pitch": 74, "duration": 6, "velocity": 108}, {"time": 2486, "pitch": 79, "duration": 6, "velocity": 108}, {"time": 2492, "pitch": 79, "duration": 5, "velocity": 99}, {"time": 2492, "pitch": 83, "duration": 5, "velocity": 99}, {"time": 2498, "pitch": 78, "duration": 11, "velocity": 109}, {"time": 2498, "pitch": 81, "duration": 11, "velocity": 109}, {"time": 2510, "pitch": 74, "duration": 10, "velocity": 109}, {"time": 2510, "pitch": 78, "duration": 10, "velocity": 109}, {"time": 2522, "pitch": 79, "duration": 10, "velocity": 98}, {"time": 2522, "pitch": 83, "duration": 10, "velocity": 98}, {"time": 2534, "pitch": 74, "duration": 5, "velocity": 109}, {"time": 2534, "pitch": 79, "duration": 5, "velocity": 109}, {"time": 2540, "pitch": 79, "duration": 4, "velocity": 99}, {"time": 2540, "pitch": 83, "duration": 4, "velocity": 99}, {"time": 2546, "pitch": 78, "duration": 19, "velocity": 98}, {"time": 2546, "pitch": 81, "duration": 19, "velocity": 98}, {"time": 2570, "pitch": 79, "duration": 12, "velocity": 96}, {"time": 2570, "pitch": 83, "duration": 12, "velocity": 96}, {"time": 2582, "pitch": 81, "duration": 5, "velocity": 103}, {"time": 2582, "pitch": 86, "duration": 5, "velocity": 103}, {"time": 2588, "pitch": 79, "duration": 6, "velocity": 99}, {"time": 2588, "pitch": 83, "duration": 6, "velocity": 99}, {"time": 2594, "pitch": 78, "duration": 11, "velocity": 99}, {"time": 2594, "pitch": 81, "duration": 12, "velocity": 99}, {"time": 2606, "pitch": 74, "duration": 10, "velocity": 106}, {"time": 2606, "pitch": 78, "duration": 10, "velocity": 106}, {"time": 2618, "pitch": 76, "duration": 11, "velocity": 106}, {"time": 2618, "pitch": 79, "duration": 11, "velocity": 106}, {"time": 2630, "pitch": 78, "duration": 6, "velocity": 113}, {"time": 2630, "pitch": 81, "duration": 6, "velocity": 113}, {"time": 2636, "pitch": 79, "duration": 5, "velocity": 97}, {"time": 2636, "pitch": 83, "duration": 6, "velocity": 97}, {"time": 2642, "pitch": 76, "duration": 24, "velocity": 106}, {"time": 2642, "pitch": 79, "duration": 24, "velocity": 106}, {"time": 2666, "pitch": 79, "duration": 1, "velocity": 101}, {"time": 2666, "pitch": 83, "duration": 11, "velocity": 101}, {"time": 2678, "pitch": 74, "duration": 6, "velocity": 108}, {"time": 2678, "pitch": 79, "duration": 6, "velocity": 108}, {"time": 2684, "pitch": 79, "duration": 5, "velocity": 99}, {"time": 2684, "pitch": 83, "duration": 5, "velocity": 99}, {"time": 2690, "pitch": 78, "duration": 11, "velocity": 109}, {"time": 2690, "pitch": 81, "duration": 11, "velocity": 109}, {"time": 2702, "pitch": 74, "duration": 10, "velocity": 109}, {"time": 2702, "pitch": 78, "duration": 10, "velocity": 109}, {"time": 2714, "pitch": 79, "duration": 10, "velocity": 98}, {"time": 2714, "pitch": 83, "duration": 10, "velocity": 98}, {"time": 2726, "pitch": 74, "duration": 5, "velocity": 109}, {"time": 2726, "pitch": 79, "duration": 5, "velocity": 109}, {"time": 2732, "pitch": 79, "duration": 4, "velocity": 99}, {"time": 2732, "pitch": 83, "duration": 4, "velocity": 99}, {"time": 2738, "pitch": 78, "duration": 19, "velocity": 98}, {"time": 2738, "pitch": 81, "duration": 19, "velocity": 98}, {"time": 2762, "pitch": 79, "duration": 12, "velocity": 96}, {"time": 2762, "pitch": 83, "duration": 12, "velocity": 96}, {"time": 2774, "pitch": 81, "duration": 5, "velocity": 103}, {"time": 2774, "pitch": 86, "duration": 5, "velocity": 103}, {"time": 2780, "pitch": 79, "duration": 6, "velocity": 99}, {"time": 2780, "pitch": 83, "duration": 6, "velocity": 99}, {"time": 2786, "pitch": 78, "duration": 11, "velocity": 99}, {"time": 2786, "pitch": 81, "duration": 12, "velocity": 99}, {"time": 2798, "pitch": 74, "duration": 10, "velocity": 106}, {"time": 2798, "pitch": 78, "duration": 10, "velocity": 106}, {"time": 2809, "pitch": 72, "duration": 12, "velocity": 106}, {"time": 2810, "pitch": 76, "duration": 11, "velocity": 106}, {"time": 2822, "pitch": 74, "duration": 6, "velocity": 113}, {"time": 2822, "pitch": 78, "duration": 6, "velocity": 113}, {"time": 2828, "pitch": 76, "duration": 6, "velocity": 97}, {"time": 2828, "pitch": 79, "duration": 6, "velocity": 97}, {"time": 2833, "pitch": 73, "duration": 25, "velocity": 106}, {"time": 2834, "pitch": 76, "duration": 24, "velocity": 106}]}, {"program": 0, "is_drum": false, "name": "PIANO", "notes": [{"time": 50, "pitch": 43, "duration": 24, "velocity": 93}, {"time": 53, "pitch": 50, "duration": 21, "velocity": 85}, {"time": 56, "pitch": 55, "duration": 3, "velocity": 91}, {"time": 59, "pitch": 57, "duration": 3, "velocity": 86}, {"time": 62, "pitch": 58, "duration": 3, "velocity": 95}, {"time": 65, "pitch": 66, "duration": 3, "velocity": 106}, {"time": 68, "pitch": 64, "duration": 3, "velocity": 93}, {"time": 71, "pitch": 62, "duration": 3, "velocity": 98}, {"time": 74, "pitch": 50, "duration": 1, "velocity": 94}, {"time": 77, "pitch": 57, "duration": 12, "velocity": 85}, {"time": 80, "pitch": 62, "duration": 3, "velocity": 86}, {"time": 83, "pitch": 69, "duration": 16, "velocity": 96}, {"time": 89, "pitch": 62, "duration": 4, "velocity": 92}, {"time": 92, "pitch": 57, "duration": 4, "velocity": 88}, {"time": 95, "pitch": 62, "duration": 3, "velocity": 84}, {"time": 98, "pitch": 43, "duration": 21, "velocity": 93}, {"time": 101, "pitch": 50, "duration": 18, "velocity": 89}, {"time": 104, "pitch": 55, "duration": 4, "velocity": 92}, {"time": 107, "pitch": 57, "duration": 3, "velocity": 86}, {"time": 110, "pitch": 58, "duration": 1, "velocity": 98}, {"time": 113, "pitch": 66, "duration": 1, "velocity": 93}, {"time": 116, "pitch": 64, "duration": 3, "velocity": 97}, {"time": 119, "pitch": 62, "duration": 2, "velocity": 91}, {"time": 122, "pitch": 50, "duration": 23, "velocity": 96}, {"time": 125, "pitch": 57, "duration": 20, "velocity": 81}, {"time": 128, "pitch": 62, "duration": 4, "velocity": 91}, {"time": 131, "pitch": 69, "duration": 10, "velocity": 98}, {"time": 137, "pitch": 66, "duration": 4, "velocity": 97}, {"time": 140, "pitch": 62, "duration": 6, "velocity": 86}, {"time": 146, "pitch": 43, "duration": 21, "velocity": 94}, {"time": 149, "pitch": 50, "duration": 18, "velocity": 87}, {"time": 152, "pitch": 55, "duration": 5, "velocity": 85}, {"time": 155, "pitch": 57, "duration": 6, "velocity": 86}, {"time": 161, "pitch": 58, "duration": 6, "velocity": 88}, {"time": 164, "pitch": 55, "duration": 3, "velocity": 85}, {"time": 167, "pitch": 62, "duration": 4, "velocity": 92}, {"time": 170, "pitch": 50, "duration": 7, "velocity": 96}, {"time": 170, "pitch": 62, "duration": 1, "velocity": 94}, {"time": 173, "pitch": 57, "duration": 5, "velocity": 88}, {"time": 176, "pitch": 62, "duration": 1, "velocity": 88}, {"time": 179, "pitch": 49, "duration": 4, "velocity": 96}, {"time": 179, "pitch": 61, "duration": 5, "velocity": 91}, {"time": 185, "pitch": 47, "duration": 7, "velocity": 95}, {"time": 185, "pitch": 59, "duration": 8, "velocity": 87}, {"time": 185, "pitch": 62, "duration": 8, "velocity": 90}, {"time": 194, "pitch": 48, "duration": 18, "velocity": 92}, {"time": 194, "pitch": 60, "duration": 3, "velocity": 83}, {"time": 194, "pitch": 64, "duration": 6, "velocity": 87}, {"time": 197, "pitch": 55, "duration": 8, "velocity": 86}, {"time": 200, "pitch": 60, "duration": 3, "velocity": 81}, {"time": 203, "pitch": 64, "duration": 4, "velocity": 95}, {"time": 206, "pitch": 55, "duration": 5, "velocity": 74}, {"time": 209, "pitch": 67, "duration": 4, "velocity": 96}, {"time": 212, "pitch": 60, "duration": 3, "velocity": 86}, {"time": 215, "pitch": 64, "duration": 4, "velocity": 92}, {"time": 218, "pitch": 45, "duration": 6, "velocity": 93}, {"time": 221, "pitch": 52, "duration": 14, "velocity": 70}, {"time": 224, "pitch": 69, "duration": 9, "velocity": 83}, {"time": 226, "pitch": 45, "duration": 14, "velocity": 93}, {"time": 230, "pitch": 59, "duration": 6, "velocity": 94}, {"time": 233, "pitch": 67, "duration": 3, "velocity": 92}, {"time": 236, "pitch": 62, "duration": 4, "velocity": 93}, {"time": 242, "pitch": 49, "duration": 19, "velocity": 84}, {"time": 245, "pitch": 58, "duration": 2, "velocity": 85}, {"time": 248, "pitch": 61, "duration": 2, "velocity": 88}, {"time": 251, "pitch": 64, "duration": 3, "velocity": 86}, {"time": 254, "pitch": 67, "duration": 12, "velocity": 88}, {"time": 266, "pitch": 50, "duration": 21, "velocity": 94}, {"time": 269, "pitch": 57, "duration": 19, "velocity": 79}, {"time": 272, "pitch": 62, "duration": 2, "velocity": 86}, {"time": 275, "pitch": 66, "duration": 1, "velocity": 101}, {"time": 281, "pitch": 64, "duration": 1, "velocity": 93}, {"time": 284, "pitch": 62, "duration": 9, "velocity": 93}, {"time": 290, "pitch": 50, "duration": 16, "velocity": 96}, {"time": 293, "pitch": 57, "duration": 13, "velocity": 80}, {"time": 296, "pitch": 62, "duration": 2, "velocity": 92}, {"time": 299, "pitch": 64, "duration": 2, "velocity": 92}, {"time": 305, "pitch": 66, "duration": 3, "velocity": 95}, {"time": 308, "pitch": 64, "duration": 1, "velocity": 99}, {"time": 314, "pitch": 47, "duration": 22, "velocity": 90}, {"time": 314, "pitch": 59, "duration": 3, "velocity": 86}, {"time": 314, "pitch": 62, "duration": 6, "velocity": 88}, {"time": 317, "pitch": 54, "duration": 19, "velocity": 77}, {"time": 320, "pitch": 59, "duration": 1, "velocity": 88}, {"time": 323, "pitch": 61, "duration": 1, "velocity": 94}, {"time": 329, "pitch": 62, "duration": 1, "velocity": 87}, {"time": 338, "pitch": 47, "duration": 15, "velocity": 94}, {"time": 338, "pitch": 59, "duration": 3, "velocity": 83}, {"time": 338, "pitch": 62, "duration": 3, "velocity": 88}, {"time": 341, "pitch": 54, "duration": 12, "velocity": 80}, {"time": 344, "pitch": 59, "duration": 1, "velocity": 91}, {"time": 347, "pitch": 61, "duration": 1, "velocity": 103}, {"time": 353, "pitch": 62, "duration": 3, "velocity": 94}, {"time": 356, "pitch": 61, "duration": 2, "velocity": 106}, {"time": 359, "pitch": 62, "duration": 6, "velocity": 88}, {"time": 362, "pitch": 43, "duration": 19, "velocity": 92}, {"time": 365, "pitch": 50, "duration": 9, "velocity": 86}, {"time": 368, "pitch": 55, "duration": 1, "velocity": 97}, {"time": 371, "pitch": 55, "duration": 6, "velocity": 95}, {"time": 371, "pitch": 62, "duration": 9, "velocity": 93}, {"time": 377, "pitch": 50, "duration": 4, "velocity": 86}, {"time": 380, "pitch": 55, "duration": 3, "velocity": 93}, {"time": 383, "pitch": 62, "duration": 5, "velocity": 82}, {"time": 386, "pitch": 50, "duration": 19, "velocity": 93}, {"time": 389, "pitch": 57, "duration": 4, "velocity": 87}, {"time": 392, "pitch": 62, "duration": 4, "velocity": 87}, {"time": 395, "pitch": 64, "duration": 2, "velocity": 95}, {"time": 401, "pitch": 66, "duration": 3, "velocity": 95}, {"time": 404, "pitch": 62, "duration": 3, "velocity": 88}, {"time": 407, "pitch": 57, "duration": 2, "velocity": 83}, {"time": 410, "pitch": 48, "duration": 17, "velocity": 96}, {"time": 413, "pitch": 55, "duration": 13, "velocity": 83}, {"time": 416, "pitch": 60, "duration": 4, "velocity": 92}, {"time": 419, "pitch": 67, "duration": 5, "velocity": 96}, {"time": 425, "pitch": 64, "duration": 2, "velocity": 97}, {"time": 428, "pitch": 60, "duration": 3, "velocity": 92}, {"time": 431, "pitch": 67, "duration": 13, "velocity": 92}, {"time": 434, "pitch": 45, "duration": 20, "velocity": 93}, {"time": 437, "pitch": 52, "duration": 13, "velocity": 83}, {"time": 440, "pitch": 61, "duration": 2, "velocity": 88}, {"time": 443, "pitch": 57, "duration": 5, "velocity": 86}, {"time": 449, "pitch": 64, "duration": 7, "velocity": 94}, {"time": 452, "pitch": 52, "duration": 2, "velocity": 85}, {"time": 455, "pitch": 57, "duration": 1, "velocity": 80}, {"time": 458, "pitch": 50, "duration": 21, "velocity": 99}, {"time": 461, "pitch": 57, "duration": 19, "velocity": 78}, {"time": 464, "pitch": 62, "duration": 3, "velocity": 81}, {"time": 467, "pitch": 64, "duration": 5, "velocity": 94}, {"time": 473, "pitch": 66, "duration": 3, "velocity": 98}, {"time": 479, "pitch": 62, "duration": 6, "velocity": 86}, {"time": 482, "pitch": 50, "duration": 17, "velocity": 94}, {"time": 485, "pitch": 57, "duration": 13, "velocity": 78}, {"time": 488, "pitch": 62, "duration": 1, "velocity": 80}, {"time": 491, "pitch": 62, "duration": 3, "velocity": 92}, {"time": 491, "pitch": 69, "duration": 3, "velocity": 94}, {"time": 497, "pitch": 62, "duration": 2, "velocity": 88}, {"time": 497, "pitch": 66, "duration": 3, "velocity": 94}, {"time": 506, "pitch": 47, "duration": 21, "velocity": 90}, {"time": 506, "pitch": 59, "duration": 4, "velocity": 86}, {"time": 506, "pitch": 62, "duration": 5, "velocity": 86}, {"time": 509, "pitch": 54, "duration": 18, "velocity": 84}, {"time": 512, "pitch": 59, "duration": 2, "velocity": 92}, {"time": 515, "pitch": 61, "duration": 1, "velocity": 97}, {"time": 521, "pitch": 62, "duration": 2, "velocity": 91}, {"time": 527, "pitch": 59, "duration": 5, "velocity": 95}, {"time": 530, "pitch": 47, "duration": 16, "velocity": 94}, {"time": 533, "pitch": 54, "duration": 11, "velocity": 82}, {"time": 536, "pitch": 59, "duration": 2, "velocity": 91}, {"time": 539, "pitch": 61, "duration": 5, "velocity": 94}, {"time": 545, "pitch": 62, "duration": 2, "velocity": 92}, {"time": 551, "pitch": 59, "duration": 1, "velocity": 77}, {"time": 554, "pitch": 43, "duration": 18, "velocity": 92}, {"time": 554, "pitch": 55, "duration": 3, "velocity": 93}, {"time": 554, "pitch": 59, "duration": 6, "velocity": 92}, {"time": 557, "pitch": 50, "duration": 15, "velocity": 82}, {"time": 560, "pitch": 55, "duration": 2, "velocity": 88}, {"time": 563, "pitch": 55, "duration": 3, "velocity": 93}, {"time": 563, "pitch": 62, "duration": 3, "velocity": 90}, {"time": 569, "pitch": 55, "duration": 2, "velocity": 93}, {"time": 569, "pitch": 59, "duration": 2, "velocity": 93}, {"time": 578, "pitch": 50, "duration": 17, "velocity": 97}, {"time": 578, "pitch": 57, "duration": 1, "velocity": 88}, {"time": 578, "pitch": 62, "duration": 3, "velocity": 91}, {"time": 581, "pitch": 57, "duration": 3, "velocity": 85}, {"time": 584, "pitch": 62, "duration": 3, "velocity": 87}, {"time": 587, "pitch": 66, "duration": 6, "velocity": 97}, {"time": 593, "pitch": 62, "duration": 2, "velocity": 93}, {"time": 596, "pitch": 57, "duration": 1, "velocity": 88}, {"time": 602, "pitch": 43, "duration": 19, "velocity": 93}, {"time": 602, "pitch": 55, "duration": 2, "velocity": 86}, {"time": 602, "pitch": 58, "duration": 5, "velocity": 84}, {"time": 605, "pitch": 50, "duration": 16, "velocity": 83}, {"time": 608, "pitch": 55, "duration": 4, "velocity": 94}, {"time": 611, "pitch": 58, "duration": 3, "velocity": 94}, {"time": 614, "pitch": 62, "duration": 3, "velocity": 91}, {"time": 617, "pitch": 67, "duration": 4, "velocity": 92}, {"time": 620, "pitch": 62, "duration": 5, "velocity": 84}, {"time": 626, "pitch": 50, "duration": 16, "velocity": 98}, {"time": 629, "pitch": 57, "duration": 12, "velocity": 78}, {"time": 632, "pitch": 62, "duration": 3, "velocity": 83}, {"time": 635, "pitch": 64, "duration": 4, "velocity": 95}, {"time": 641, "pitch": 66, "duration": 3, "velocity": 108}, {"time": 644, "pitch": 62, "duration": 1, "velocity": 92}, {"time": 650, "pitch": 45, "duration": 24, "velocity": 92}, {"time": 650, "pitch": 57, "duration": 3, "velocity": 88}, {"time": 650, "pitch": 60, "duration": 4, "velocity": 87}, {"time": 653, "pitch": 52, "duration": 21, "velocity": 86}, {"time": 656, "pitch": 57, "duration": 4, "velocity": 83}, {"time": 659, "pitch": 60, "duration": 3, "velocity": 87}, {"time": 662, "pitch": 64, "duration": 6, "velocity": 94}, {"time": 665, "pitch": 60, "duration": 3, "velocity": 89}, {"time": 668, "pitch": 69, "duration": 5, "velocity": 97}, {"time": 671, "pitch": 64, "duration": 3, "velocity": 90}, {"time": 674, "pitch": 50, "duration": 20, "velocity": 96}, {"time": 677, "pitch": 57, "duration": 10, "velocity": 81}, {"time": 680, "pitch": 62, "duration": 3, "velocity": 94}, {"time": 683, "pitch": 64, "duration": 2, "velocity": 93}, {"time": 686, "pitch": 66, "duration": 1, "velocity": 108}, {"time": 689, "pitch": 57, "duration": 5, "velocity": 86}, {"time": 692, "pitch": 62, "duration": 6, "velocity": 88}, {"time": 698, "pitch": 54, "duration": 15, "velocity": 93}, {"time": 698, "pitch": 69, "duration": 7, "velocity": 92}, {"time": 704, "pitch": 61, "duration": 3, "velocity": 88}, {"time": 707, "pitch": 66, "duration": 7, "velocity": 103}, {"time": 713, "pitch": 61, "duration": 3, "velocity": 84}, {"time": 716, "pitch": 69, "duration": 6, "velocity": 93}, {"time": 719, "pitch": 61, "duration": 3, "velocity": 88}, {"time": 722, "pitch": 43, "duration": 21, "velocity": 93}, {"time": 725, "pitch": 50, "duration": 10, "velocity": 80}, {"time": 728, "pitch": 55, "duration": 4, "velocity": 94}, {"time": 731, "pitch": 62, "duration": 5, "velocity": 96}, {"time": 737, "pitch": 50, "duration": 6, "velocity": 88}, {"time": 740, "pitch": 55, "duration": 4, "velocity": 95}, {"time": 743, "pitch": 62, "duration": 3, "velocity": 94}, {"time": 746, "pitch": 50, "duration": 20, "velocity": 98}, {"time": 749, "pitch": 57, "duration": 4, "velocity": 91}, {"time": 752, "pitch": 62, "duration": 3, "velocity": 86}, {"time": 755, "pitch": 64, "duration": 4, "velocity": 95}, {"time": 761, "pitch": 62, "duration": 3, "velocity": 93}, {"time": 764, "pitch": 57, "duration": 3, "velocity": 91}, {"time": 767, "pitch": 66, "duration": 2, "velocity": 89}, {"time": 770, "pitch": 52, "duration": 14, "velocity": 96}, {"time": 773, "pitch": 59, "duration": 4, "velocity": 81}, {"time": 776, "pitch": 64, "duration": 3, "velocity": 85}, {"time": 779, "pitch": 67, "duration": 6, "velocity": 94}, {"time": 785, "pitch": 64, "duration": 3, "velocity": 93}, {"time": 788, "pitch": 59, "duration": 1, "velocity": 92}, {"time": 794, "pitch": 47, "duration": 14, "velocity": 94}, {"time": 794, "pitch": 59, "duration": 3, "velocity": 92}, {"time": 794, "pitch": 62, "duration": 6, "velocity": 92}, {"time": 797, "pitch": 54, "duration": 10, "velocity": 76}, {"time": 800, "pitch": 59, "duration": 4, "velocity": 93}, {"time": 803, "pitch": 66, "duration": 6, "velocity": 99}, {"time": 809, "pitch": 62, "duration": 3, "velocity": 98}, {"time": 812, "pitch": 59, "duration": 2, "velocity": 89}, {"time": 818, "pitch": 43, "duration": 21, "velocity": 93}, {"time": 818, "pitch": 55, "duration": 3, "velocity": 88}, {"time": 818, "pitch": 62, "duration": 6, "velocity": 90}, {"time": 821, "pitch": 50, "duration": 10, "velocity": 88}, {"time": 824, "pitch": 55, "duration": 4, "velocity": 89}, {"time": 827, "pitch": 59, "duration": 9, "velocity": 98}, {"time": 833, "pitch": 50, "duration": 7, "velocity": 89}, {"time": 836, "pitch": 55, "duration": 3, "velocity": 93}, {"time": 839, "pitch": 62, "duration": 2, "velocity": 86}, {"time": 842, "pitch": 45, "duration": 21, "velocity": 95}, {"time": 845, "pitch": 52, "duration": 18, "velocity": 85}, {"time": 848, "pitch": 55, "duration": 1, "velocity": 79}, {"time": 848, "pitch": 57, "duration": 1, "velocity": 80}, {"time": 851, "pitch": 59, "duration": 4, "velocity": 103}, {"time": 857, "pitch": 57, "duration": 2, "velocity": 89}, {"time": 857, "pitch": 61, "duration": 2, "velocity": 99}, {"time": 866, "pitch": 50, "duration": 19, "velocity": 97}, {"time": 866, "pitch": 57, "duration": 2, "velocity": 86}, {"time": 866, "pitch": 62, "duration": 3, "velocity": 92}, {"time": 869, "pitch": 57, "duration": 3, "velocity": 83}, {"time": 872, "pitch": 62, "duration": 2, "velocity": 85}, {"time": 875, "pitch": 64, "duration": 2, "velocity": 99}, {"time": 881, "pitch": 66, "duration": 6, "velocity": 95}, {"time": 887, "pitch": 57, "duration": 1, "velocity": 77}, {"time": 890, "pitch": 42, "duration": 18, "velocity": 97}, {"time": 890, "pitch": 66, "duration": 3, "velocity": 93}, {"time": 893, "pitch": 49, "duration": 16, "velocity": 82}, {"time": 899, "pitch": 61, "duration": 3, "velocity": 97}, {"time": 905, "pitch": 57, "duration": 3, "velocity": 86}, {"time": 908, "pitch": 66, "duration": 4, "velocity": 97}, {"time": 911, "pitch": 57, "duration": 2, "velocity": 86}, {"time": 914, "pitch": 43, "duration": 21, "velocity": 91}, {"time": 917, "pitch": 50, "duration": 13, "velocity": 91}, {"time": 920, "pitch": 55, "duration": 3, "velocity": 94}, {"time": 923, "pitch": 59, "duration": 3, "velocity": 94}, {"time": 929, "pitch": 55, "duration": 2, "velocity": 87}, {"time": 929, "pitch": 59, "duration": 2, "velocity": 93}, {"time": 929, "pitch": 62, "duration": 2, "velocity": 88}, {"time": 932, "pitch": 50, "duration": 3, "velocity": 89}, {"time": 935, "pitch": 55, "duration": 2, "velocity": 96}, {"time": 938, "pitch": 50, "duration": 19, "velocity": 93}, {"time": 941, "pitch": 57, "duration": 4, "velocity": 88}, {"time": 944, "pitch": 62, "duration": 2, "velocity": 92}, {"time": 947, "pitch": 64, "duration": 1, "velocity": 97}, {"time": 953, "pitch": 66, "duration": 3, "velocity": 94}, {"time": 956, "pitch": 62, "duration": 2, "velocity": 85}, {"time": 959, "pitch": 57, "duration": 1, "velocity": 76}, {"time": 962, "pitch": 52, "duration": 12, "velocity": 94}, {"time": 962, "pitch": 59, "duration": 2, "velocity": 91}, {"time": 962, "pitch": 64, "duration": 3, "velocity": 91}, {"time": 965, "pitch": 59, "duration": 3, "velocity": 86}, {"time": 968, "pitch": 64, "duration": 1, "velocity": 75}, {"time": 971, "pitch": 67, "duration": 4, "velocity": 93}, {"time": 977, "pitch": 64, "duration": 1, "velocity": 99}, {"time": 986, "pitch": 47, "duration": 15, "velocity": 93}, {"time": 986, "pitch": 59, "duration": 3, "velocity": 92}, {"time": 986, "pitch": 62, "duration": 5, "velocity": 95}, {"time": 989, "pitch": 54, "duration": 10, "velocity": 75}, {"time": 992, "pitch": 59, "duration": 1, "velocity": 87}, {"time": 995, "pitch": 66, "duration": 6, "velocity": 97}, {"time": 1001, "pitch": 62, "duration": 2, "velocity": 93}, {"time": 1004, "pitch": 59, "duration": 1, "velocity": 91}, {"time": 1010, "pitch": 43, "duration": 21, "velocity": 94}, {"time": 1010, "pitch": 55, "duration": 10, "velocity": 87}, {"time": 1010, "pitch": 62, "duration": 6, "velocity": 90}, {"time": 1013, "pitch": 50, "duration": 17, "velocity": 86}, {"time": 1016, "pitch": 58, "duration": 4, "velocity": 88}, {"time": 1019, "pitch": 67, "duration": 5, "velocity": 92}, {"time": 1025, "pitch": 62, "duration": 3, "velocity": 93}, {"time": 1028, "pitch": 58, "duration": 4, "velocity": 95}, {"time": 1031, "pitch": 55, "duration": 2, "velocity": 90}, {"time": 1034, "pitch": 50, "duration": 21, "velocity": 97}, {"time": 1037, "pitch": 57, "duration": 3, "velocity": 83}, {"time": 1040, "pitch": 62, "duration": 3, "velocity": 87}, {"time": 1043, "pitch": 64, "duration": 1, "velocity": 95}, {"time": 1049, "pitch": 66, "duration": 3, "velocity": 101}, {"time": 1052, "pitch": 62, "duration": 2, "velocity": 81}, {"time": 1055, "pitch": 57, "duration": 3, "velocity": 91}, {"time": 1058, "pitch": 43, "duration": 24, "velocity": 93}, {"time": 1061, "pitch": 50, "duration": 21, "velocity": 85}, {"time": 1064, "pitch": 55, "duration": 3, "velocity": 91}, {"time": 1067, "pitch": 57, "duration": 3, "velocity": 86}, {"time": 1070, "pitch": 58, "duration": 3, "velocity": 95}, {"time": 1073, "pitch": 66, "duration": 3, "velocity": 106}, {"time": 1076, "pitch": 64, "duration": 3, "velocity": 93}, {"time": 1079, "pitch": 62, "duration": 3, "velocity": 98}, {"time": 1082, "pitch": 50, "duration": 1, "velocity": 94}, {"time": 1085, "pitch": 57, "duration": 12, "velocity": 85}, {"time": 1088, "pitch": 62, "duration": 3, "velocity": 86}, {"time": 1091, "pitch": 69, "duration": 16, "velocity": 96}, {"time": 1097, "pitch": 62, "duration": 4, "velocity": 92}, {"time": 1100, "pitch": 57, "duration": 4, "velocity": 88}, {"time": 1103, "pitch": 62, "duration": 3, "velocity": 84}, {"time": 1106, "pitch": 43, "duration": 21, "velocity": 93}, {"time": 1109, "pitch": 50, "duration": 18, "velocity": 89}, {"time": 1112, "pitch": 55, "duration": 4, "velocity": 92}, {"time": 1115, "pitch": 57, "duration": 3, "velocity": 86}, {"time": 1118, "pitch": 58, "duration": 1, "velocity": 98}, {"time": 1121, "pitch": 66, "duration": 1, "velocity": 93}, {"time": 1124, "pitch": 64, "duration": 3, "velocity": 97}, {"time": 1127, "pitch": 62, "duration": 2, "velocity": 91}, {"time": 1130, "pitch": 50, "duration": 23, "velocity": 96}, {"time": 1133, "pitch": 57, "duration": 20, "velocity": 81}, {"time": 1136, "pitch": 62, "duration": 4, "velocity": 91}, {"time": 1139, "pitch": 69, "duration": 10, "velocity": 98}, {"time": 1145, "pitch": 66, "duration": 4, "velocity": 97}, {"time": 1148, "pitch": 62, "duration": 6, "velocity": 86}, {"time": 1154, "pitch": 43, "duration": 21, "velocity": 94}, {"time": 1157, "pitch": 50, "duration": 18, "velocity": 87}, {"time": 1160, "pitch": 55, "duration": 5, "velocity": 85}, {"time": 1163, "pitch": 57, "duration": 6, "velocity": 86}, {"time": 1169, "pitch": 58, "duration": 6, "velocity": 88}, {"time": 1172, "pitch": 55, "duration": 3, "velocity": 85}, {"time": 1175, "pitch": 62, "duration": 4, "velocity": 92}, {"time": 1178, "pitch": 50, "duration": 7, "velocity": 96}, {"time": 1178, "pitch": 62, "duration": 1, "velocity": 94}, {"time": 1181, "pitch": 57, "duration": 5, "velocity": 88}, {"time": 1184, "pitch": 62, "duration": 1, "velocity": 88}, {"time": 1187, "pitch": 49, "duration": 4, "velocity": 96}, {"time": 1187, "pitch": 61, "duration": 5, "velocity": 91}, {"time": 1193, "pitch": 47, "duration": 7, "velocity": 95}, {"time": 1193, "pitch": 59, "duration": 8, "velocity": 87}, {"time": 1193, "pitch": 62, "duration": 8, "velocity": 90}, {"time": 1202, "pitch": 48, "duration": 18, "velocity": 92}, {"time": 1202, "pitch": 60, "duration": 3, "velocity": 83}, {"time": 1202, "pitch": 64, "duration": 6, "velocity": 87}, {"time": 1205, "pitch": 55, "duration": 8, "velocity": 86}, {"time": 1208, "pitch": 60, "duration": 3, "velocity": 81}, {"time": 1211, "pitch": 64, "duration": 4, "velocity": 95}, {"time": 1214, "pitch": 55, "duration": 5, "velocity": 74}, {"time": 1217, "pitch": 67, "duration": 4, "velocity": 96}, {"time": 1220, "pitch": 60, "duration": 3, "velocity": 86}, {"time": 1223, "pitch": 64, "duration": 4, "velocity": 92}, {"time": 1226, "pitch": 45, "duration": 17, "velocity": 93}, {"time": 1229, "pitch": 52, "duration": 14, "velocity": 70}, {"time": 1232, "pitch": 57, "duration": 9, "velocity": 83}, {"time": 1235, "pitch": 61, "duration": 6, "velocity": 94}, {"time": 1241, "pitch": 64, "duration": 3, "velocity": 92}, {"time": 1244, "pitch": 61, "duration": 4, "velocity": 93}, {"time": 1250, "pitch": 43, "duration": 24, "velocity": 93}, {"time": 1253, "pitch": 50, "duration": 21, "velocity": 85}, {"time": 1256, "pitch": 55, "duration": 3, "velocity": 91}, {"time": 1259, "pitch": 57, "duration": 3, "velocity": 86}, {"time": 1262, "pitch": 58, "duration": 3, "velocity": 95}, {"time": 1265, "pitch": 66, "duration": 3, "velocity": 106}, {"time": 1268, "pitch": 64, "duration": 3, "velocity": 93}, {"time": 1271, "pitch": 62, "duration": 3, "velocity": 98}, {"time": 1274, "pitch": 50, "duration": 1, "velocity": 94}, {"time": 1277, "pitch": 57, "duration": 12, "velocity": 85}, {"time": 1280, "pitch": 62, "duration": 3, "velocity": 86}, {"time": 1283, "pitch": 69, "duration": 16, "velocity": 96}, {"time": 1289, "pitch": 62, "duration": 4, "velocity": 92}, {"time": 1292, "pitch": 57, "duration": 4, "velocity": 88}, {"time": 1295, "pitch": 62, "duration": 3, "velocity": 84}, {"time": 1298, "pitch": 43, "duration": 21, "velocity": 93}, {"time": 1301, "pitch": 50, "duration": 18, "velocity": 89}, {"time": 1304, "pitch": 55, "duration": 4, "velocity": 92}, {"time": 1307, "pitch": 57, "duration": 3, "velocity": 86}, {"time": 1310, "pitch": 58, "duration": 1, "velocity": 98}, {"time": 1313, "pitch": 66, "duration": 1, "velocity": 93}, {"time": 1316, "pitch": 64, "duration": 3, "velocity": 97}, {"time": 1319, "pitch": 62, "duration": 2, "velocity": 91}, {"time": 1322, "pitch": 50, "duration": 23, "velocity": 96}, {"time": 1325, "pitch": 57, "duration": 20, "velocity": 81}, {"time": 1328, "pitch": 62, "duration": 4, "velocity": 91}, {"time": 1331, "pitch": 69, "duration": 10, "velocity": 98}, {"time": 1337, "pitch": 66, "duration": 4, "velocity": 97}, {"time": 1340, "pitch": 62, "duration": 6, "velocity": 86}, {"time": 1346, "pitch": 43, "duration": 21, "velocity": 94}, {"time": 1349, "pitch": 50, "duration": 18, "velocity": 87}, {"time": 1352, "pitch": 55, "duration": 5, "velocity": 85}, {"time": 1355, "pitch": 57, "duration": 6, "velocity": 86}, {"time": 1361, "pitch": 58, "duration": 6, "velocity": 88}, {"time": 1364, "pitch": 55, "duration": 3, "velocity": 85}, {"time": 1367, "pitch": 62, "duration": 4, "velocity": 92}, {"time": 1370, "pitch": 50, "duration": 7, "velocity": 96}, {"time": 1370, "pitch": 62, "duration": 1, "velocity": 94}, {"time": 1373, "pitch": 57, "duration": 5, "velocity": 88}, {"time": 1376, "pitch": 62, "duration": 1, "velocity": 88}, {"time": 1379, "pitch": 49, "duration": 4, "velocity": 96}, {"time": 1379, "pitch": 61, "duration": 5, "velocity": 91}, {"time": 1385, "pitch": 47, "duration": 7, "velocity": 95}, {"time": 1385, "pitch": 59, "duration": 8, "velocity": 87}, {"time": 1385, "pitch": 62, "duration": 8, "velocity": 90}, {"time": 1394, "pitch": 48, "duration": 18, "velocity": 92}, {"time": 1394, "pitch": 60, "duration": 3, "velocity": 83}, {"time": 1394, "pitch": 64, "duration": 6, "velocity": 87}, {"time": 1397, "pitch": 55, "duration": 8, "velocity": 86}, {"time": 1400, "pitch": 60, "duration": 3, "velocity": 81}, {"time": 1403, "pitch": 64, "duration": 4, "velocity": 95}, {"time": 1406, "pitch": 55, "duration": 5, "velocity": 74}, {"time": 1409, "pitch": 67, "duration": 4, "velocity": 96}, {"time": 1412, "pitch": 60, "duration": 3, "velocity": 86}, {"time": 1415, "pitch": 64, "duration": 4, "velocity": 92}, {"time": 1418, "pitch": 45, "duration": 17, "velocity": 93}, {"time": 1421, "pitch": 52, "duration": 14, "velocity": 70}, {"time": 1424, "pitch": 57, "duration": 9, "velocity": 83}, {"time": 1427, "pitch": 61, "duration": 6, "velocity": 94}, {"time": 1433, "pitch": 64, "duration": 3, "velocity": 92}, {"time": 1436, "pitch": 61, "duration": 4, "velocity": 93}, {"time": 1442, "pitch": 49, "duration": 19, "velocity": 84}, {"time": 1442, "pitch": 61, "duration": 2, "velocity": 85}, {"time": 1445, "pitch": 64, "duration": 2, "velocity": 88}, {"time": 1448, "pitch": 67, "duration": 2, "velocity": 86}, {"time": 1451, "pitch": 69, "duration": 12, "velocity": 88}, {"time": 1466, "pitch": 50, "duration": 21, "velocity": 99}, {"time": 1469, "pitch": 57, "duration": 19, "velocity": 78}, {"time": 1472, "pitch": 62, "duration": 3, "velocity": 81}, {"time": 1475, "pitch": 64, "duration": 5, "velocity": 94}, {"time": 1481, "pitch": 66, "duration": 3, "velocity": 98}, {"time": 1487, "pitch": 62, "duration": 6, "velocity": 86}, {"time": 1490, "pitch": 50, "duration": 17, "velocity": 94}, {"time": 1493, "pitch": 57, "duration": 13, "velocity": 78}, {"time": 1496, "pitch": 62, "duration": 1, "velocity": 80}, {"time": 1499, "pitch": 62, "duration": 3, "velocity": 92}, {"time": 1499, "pitch": 69, "duration": 3, "velocity": 94}, {"time": 1505, "pitch": 62, "duration": 2, "velocity": 88}, {"time": 1505, "pitch": 66, "duration": 3, "velocity": 94}, {"time": 1514, "pitch": 47, "duration": 21, "velocity": 90}, {"time": 1514, "pitch": 59, "duration": 4, "velocity": 86}, {"time": 1514, "pitch": 62, "duration": 5, "velocity": 86}, {"time": 1517, "pitch": 54, "duration": 18, "velocity": 84}, {"time": 1520, "pitch": 59, "duration": 2, "velocity": 92}, {"time": 1523, "pitch": 61, "duration": 1, "velocity": 97}, {"time": 1529, "pitch": 62, "duration": 2, "velocity": 91}, {"time": 1535, "pitch": 59, "duration": 5, "velocity": 95}, {"time": 1538, "pitch": 47, "duration": 16, "velocity": 94}, {"time": 1541, "pitch": 54, "duration": 11, "velocity": 82}, {"time": 1544, "pitch": 59, "duration": 2, "velocity": 91}, {"time": 1547, "pitch": 61, "duration": 5, "velocity": 94}, {"time": 1553, "pitch": 62, "duration": 2, "velocity": 92}, {"time": 1559, "pitch": 59, "duration": 1, "velocity": 77}, {"time": 1562, "pitch": 43, "duration": 18, "velocity": 92}, {"time": 1562, "pitch": 55, "duration": 3, "velocity": 93}, {"time": 1562, "pitch": 59, "duration": 6, "velocity": 92}, {"time": 1565, "pitch": 50, "duration": 15, "velocity": 82}, {"time": 1568, "pitch": 55, "duration": 2, "velocity": 88}, {"time": 1571, "pitch": 55, "duration": 3, "velocity": 93}, {"time": 1571, "pitch": 62, "duration": 3, "velocity": 90}, {"time": 1577, "pitch": 55, "duration": 2, "velocity": 93}, {"time": 1577, "pitch": 59, "duration": 2, "velocity": 93}, {"time": 1586, "pitch": 50, "duration": 17, "velocity": 97}, {"time": 1586, "pitch": 57, "duration": 1, "velocity": 88}, {"time": 1586, "pitch": 62, "duration": 3, "velocity": 91}, {"time": 1589, "pitch": 57, "duration": 3, "velocity": 85}, {"time": 1592, "pitch": 62, "duration": 3, "velocity": 87}, {"time": 1595, "pitch": 66, "duration": 6, "velocity": 97}, {"time": 1601, "pitch": 62, "duration": 2, "velocity": 93}, {"time": 1604, "pitch": 57, "duration": 1, "velocity": 88}, {"time": 1610, "pitch": 43, "duration": 19, "velocity": 93}, {"time": 1610, "pitch": 55, "duration": 2, "velocity": 86}, {"time": 1610, "pitch": 58, "duration": 5, "velocity": 84}, {"time": 1613, "pitch": 50, "duration": 16, "velocity": 83}, {"time": 1616, "pitch": 55, "duration": 4, "velocity": 94}, {"time": 1619, "pitch": 58, "duration": 3, "velocity": 94}, {"time": 1622, "pitch": 62, "duration": 3, "velocity": 91}, {"time": 1625, "pitch": 67, "duration": 4, "velocity": 92}, {"time": 1628, "pitch": 62, "duration": 5, "velocity": 84}, {"time": 1634, "pitch": 50, "duration": 16, "velocity": 98}, {"time": 1637, "pitch": 57, "duration": 12, "velocity": 78}, {"time": 1640, "pitch": 62, "duration": 3, "velocity": 83}, {"time": 1643, "pitch": 64, "duration": 4, "velocity": 95}, {"time": 1649, "pitch": 66, "duration": 3, "velocity": 108}, {"time": 1652, "pitch": 62, "duration": 1, "velocity": 92}, {"time": 1658, "pitch": 45, "duration": 24, "velocity": 92}, {"time": 1658, "pitch": 57, "duration": 3, "velocity": 88}, {"time": 1658, "pitch": 60, "duration": 4, "velocity": 87}, {"time": 1661, "pitch": 52, "duration": 21, "velocity": 86}, {"time": 1664, "pitch": 57, "duration": 4, "velocity": 83}, {"time": 1667, "pitch": 60, "duration": 3, "velocity": 87}, {"time": 1670, "pitch": 64, "duration": 6, "velocity": 94}, {"time": 1673, "pitch": 60, "duration": 3, "velocity": 89}, {"time": 1676, "pitch": 69, "duration": 5, "velocity": 97}, {"time": 1679, "pitch": 64, "duration": 3, "velocity": 90}, {"time": 1682, "pitch": 50, "duration": 20, "velocity": 96}, {"time": 1685, "pitch": 57, "duration": 10, "velocity": 81}, {"time": 1688, "pitch": 62, "duration": 3, "velocity": 94}, {"time": 1691, "pitch": 64, "duration": 2, "velocity": 93}, {"time": 1694, "pitch": 66, "duration": 1, "velocity": 108}, {"time": 1697, "pitch": 57, "duration": 5, "velocity": 86}, {"time": 1700, "pitch": 62, "duration": 6, "velocity": 88}, {"time": 1706, "pitch": 54, "duration": 15, "velocity": 93}, {"time": 1706, "pitch": 69, "duration": 7, "velocity": 92}, {"time": 1712, "pitch": 61, "duration": 3, "velocity": 88}, {"time": 1715, "pitch": 66, "duration": 7, "velocity": 103}, {"time": 1721, "pitch": 61, "duration": 3, "velocity": 84}, {"time": 1724, "pitch": 69, "duration": 6, "velocity": 93}, {"time": 1727, "pitch": 61, "duration": 3, "velocity": 88}, {"time": 1730, "pitch": 43, "duration": 21, "velocity": 93}, {"time": 1733, "pitch": 50, "duration": 10, "velocity": 80}, {"time": 1736, "pitch": 55, "duration": 4, "velocity": 94}, {"time": 1739, "pitch": 62, "duration": 5, "velocity": 96}, {"time": 1745, "pitch": 50, "duration": 6, "velocity": 88}, {"time": 1748, "pitch": 55, "duration": 4, "velocity": 95}, {"time": 1751, "pitch": 62, "duration": 3, "velocity": 94}, {"time": 1754, "pitch": 50, "duration": 20, "velocity": 98}, {"time": 1757, "pitch": 57, "duration": 4, "velocity": 91}, {"time": 1760, "pitch": 62, "duration": 3, "velocity": 86}, {"time": 1763, "pitch": 64, "duration": 4, "velocity": 95}, {"time": 1769, "pitch": 62, "duration": 3, "velocity": 93}, {"time": 1772, "pitch": 57, "duration": 3, "velocity": 91}, {"time": 1775, "pitch": 66, "duration": 2, "velocity": 89}, {"time": 1778, "pitch": 52, "duration": 14, "velocity": 96}, {"time": 1781, "pitch": 59, "duration": 4, "velocity": 81}, {"time": 1784, "pitch": 64, "duration": 3, "velocity": 85}, {"time": 1787, "pitch": 67, "duration": 6, "velocity": 94}, {"time": 1793, "pitch": 64, "duration": 3, "velocity": 93}, {"time": 1796, "pitch": 59, "duration": 1, "velocity": 92}, {"time": 1802, "pitch": 47, "duration": 14, "velocity": 94}, {"time": 1802, "pitch": 59, "duration": 3, "velocity": 92}, {"time": 1802, "pitch": 62, "duration": 6, "velocity": 92}, {"time": 1805, "pitch": 54, "duration": 10, "velocity": 76}, {"time": 1808, "pitch": 59, "duration": 4, "velocity": 93}, {"time": 1811, "pitch": 66, "duration": 6, "velocity": 99}, {"time": 1817, "pitch": 62, "duration": 3, "velocity": 98}, {"time": 1820, "pitch": 59, "duration": 2, "velocity": 89}, {"time": 1826, "pitch": 43, "duration": 21, "velocity": 93}, {"time": 1826, "pitch": 55, "duration": 3, "velocity": 88}, {"time": 1826, "pitch": 62, "duration": 6, "velocity": 90}, {"time": 1829, "pitch": 50, "duration": 10, "velocity": 88}, {"time": 1832, "pitch": 55, "duration": 4, "velocity": 89}, {"time": 1835, "pitch": 59, "duration": 9, "velocity": 98}, {"time": 1841, "pitch": 50, "duration": 7, "velocity": 89}, {"time": 1844, "pitch": 55, "duration": 3, "velocity": 93}, {"time": 1847, "pitch": 62, "duration": 2, "velocity": 86}, {"time": 1850, "pitch": 45, "duration": 21, "velocity": 95}, {"time": 1853, "pitch": 52, "duration": 18, "velocity": 85}, {"time": 1856, "pitch": 55, "duration": 1, "velocity": 79}, {"time": 1856, "pitch": 57, "duration": 1, "velocity": 80}, {"time": 1859, "pitch": 59, "duration": 4, "velocity": 103}, {"time": 1865, "pitch": 57, "duration": 2, "velocity": 89}, {"time": 1865, "pitch": 61, "duration": 2, "velocity": 99}, {"time": 1874, "pitch": 50, "duration": 19, "velocity": 97}, {"time": 1874, "pitch": 57, "duration": 2, "velocity": 86}, {"time": 1874, "pitch": 62, "duration": 3, "velocity": 92}, {"time": 1877, "pitch": 57, "duration": 3, "velocity": 83}, {"time": 1880, "pitch": 62, "duration": 2, "velocity": 85}, {"time": 1883, "pitch": 64, "duration": 2, "velocity": 99}, {"time": 1889, "pitch": 66, "duration": 6, "velocity": 95}, {"time": 1895, "pitch": 57, "duration": 1, "velocity": 77}, {"time": 1898, "pitch": 42, "duration": 18, "velocity": 97}, {"time": 1898, "pitch": 66, "duration": 3, "velocity": 93}, {"time": 1901, "pitch": 49, "duration": 16, "velocity": 82}, {"time": 1907, "pitch": 61, "duration": 3, "velocity": 97}, {"time": 1913, "pitch": 57, "duration": 3, "velocity": 86}, {"time": 1916, "pitch": 66, "duration": 4, "velocity": 97}, {"time": 1919, "pitch": 57, "duration": 2, "velocity": 86}, {"time": 1922, "pitch": 43, "duration": 21, "velocity": 91}, {"time": 1925, "pitch": 50, "duration": 13, "velocity": 91}, {"time": 1928, "pitch": 55, "duration": 3, "velocity": 94}, {"time": 1931, "pitch": 59, "duration": 3, "velocity": 94}, {"time": 1937, "pitch": 55, "duration": 2, "velocity": 87}, {"time": 1937, "pitch": 59, "duration": 2, "velocity": 93}, {"time": 1937, "pitch": 62, "duration": 2, "velocity": 88}, {"time": 1940, "pitch": 50, "duration": 3, "velocity": 89}, {"time": 1943, "pitch": 55, "duration": 2, "velocity": 96}, {"time": 1946, "pitch": 50, "duration": 19, "velocity": 93}, {"time": 1949, "pitch": 57, "duration": 4, "velocity": 88}, {"time": 1952, "pitch": 62, "duration": 2, "velocity": 92}, {"time": 1955, "pitch": 64, "duration": 1, "velocity": 97}, {"time": 1961, "pitch": 66, "duration": 3, "velocity": 94}, {"time": 1964, "pitch": 62, "duration": 2, "velocity": 85}, {"time": 1967, "pitch": 57, "duration": 1, "velocity": 76}, {"time": 1970, "pitch": 52, "duration": 12, "velocity": 94}, {"time": 1970, "pitch": 59, "duration": 2, "velocity": 91}, {"time": 1970, "pitch": 64, "duration": 3, "velocity": 91}, {"time": 1973, "pitch": 59, "duration": 3, "velocity": 86}, {"time": 1976, "pitch": 64, "duration": 1, "velocity": 75}, {"time": 1979, "pitch": 67, "duration": 4, "velocity": 93}, {"time": 1985, "pitch": 64, "duration": 1, "velocity": 99}, {"time": 1994, "pitch": 47, "duration": 15, "velocity": 93}, {"time": 1994, "pitch": 59, "duration": 3, "velocity": 92}, {"time": 1994, "pitch": 62, "duration": 5, "velocity": 95}, {"time": 1997, "pitch": 54, "duration": 10, "velocity": 75}, {"time": 2000, "pitch": 59, "duration": 1, "velocity": 87}, {"time": 2003, "pitch": 66, "duration": 6, "velocity": 97}, {"time": 2009, "pitch": 62, "duration": 2, "velocity": 93}, {"time": 2012, "pitch": 59, "duration": 1, "velocity": 91}, {"time": 2018, "pitch": 43, "duration": 21, "velocity": 94}, {"time": 2018, "pitch": 55, "duration": 10, "velocity": 87}, {"time": 2018, "pitch": 62, "duration": 6, "velocity": 90}, {"time": 2021, "pitch": 50, "duration": 17, "velocity": 86}, {"time": 2024, "pitch": 58, "duration": 4, "velocity": 88}, {"time": 2027, "pitch": 67, "duration": 5, "velocity": 92}, {"time": 2033, "pitch": 62, "duration": 3, "velocity": 93}, {"time": 2036, "pitch": 58, "duration": 4, "velocity": 95}, {"time": 2039, "pitch": 55, "duration": 2, "velocity": 90}, {"time": 2042, "pitch": 50, "duration": 21, "velocity": 97}, {"time": 2045, "pitch": 57, "duration": 3, "velocity": 83}, {"time": 2048, "pitch": 62, "duration": 3, "velocity": 87}, {"time": 2051, "pitch": 64, "duration": 1, "velocity": 95}, {"time": 2057, "pitch": 66, "duration": 3, "velocity": 101}, {"time": 2060, "pitch": 62, "duration": 2, "velocity": 81}, {"time": 2063, "pitch": 57, "duration": 3, "velocity": 91}, {"time": 2066, "pitch": 45, "duration": 24, "velocity": 95}, {"time": 2066, "pitch": 57, "duration": 1, "velocity": 85}, {"time": 2066, "pitch": 60, "duration": 6, "velocity": 87}, {"time": 2069, "pitch": 52, "duration": 7, "velocity": 85}, {"time": 2072, "pitch": 57, "duration": 2, "velocity": 89}, {"time": 2075, "pitch": 57, "duration": 4, "velocity": 90}, {"time": 2075, "pitch": 60, "duration": 3, "velocity": 93}, {"time": 2075, "pitch": 64, "duration": 3, "velocity": 94}, {"time": 2078, "pitch": 52, "duration": 5, "velocity": 75}, {"time": 2081, "pitch": 57, "duration": 3, "velocity": 86}, {"time": 2081, "pitch": 60, "duration": 7, "velocity": 85}, {"time": 2081, "pitch": 64, "duration": 8, "velocity": 93}, {"time": 2084, "pitch": 52, "duration": 6, "velocity": 86}, {"time": 2087, "pitch": 57, "duration": 3, "velocity": 86}, {"time": 2090, "pitch": 50, "duration": 20, "velocity": 96}, {"time": 2093, "pitch": 57, "duration": 10, "velocity": 81}, {"time": 2096, "pitch": 62, "duration": 3, "velocity": 94}, {"time": 2099, "pitch": 64, "duration": 2, "velocity": 93}, {"time": 2102, "pitch": 66, "duration": 1, "velocity": 108}, {"time": 2105, "pitch": 57, "duration": 5, "velocity": 86}, {"time": 2108, "pitch": 62, "duration": 6, "velocity": 88}, {"time": 2114, "pitch": 54, "duration": 15, "velocity": 93}, {"time": 2114, "pitch": 69, "duration": 7, "velocity": 92}, {"time": 2120, "pitch": 61, "duration": 3, "velocity": 88}, {"time": 2123, "pitch": 66, "duration": 7, "velocity": 103}, {"time": 2129, "pitch": 61, "duration": 3, "velocity": 84}, {"time": 2132, "pitch": 69, "duration": 6, "velocity": 93}, {"time": 2135, "pitch": 61, "duration": 3, "velocity": 88}, {"time": 2138, "pitch": 43, "duration": 21, "velocity": 93}, {"time": 2141, "pitch": 50, "duration": 10, "velocity": 80}, {"time": 2144, "pitch": 55, "duration": 4, "velocity": 94}, {"time": 2147, "pitch": 62, "duration": 5, "velocity": 96}, {"time": 2153, "pitch": 50, "duration": 6, "velocity": 88}, {"time": 2156, "pitch": 55, "duration": 4, "velocity": 95}, {"time": 2159, "pitch": 62, "duration": 3, "velocity": 94}, {"time": 2162, "pitch": 50, "duration": 20, "velocity": 98}, {"time": 2165, "pitch": 57, "duration": 4, "velocity": 91}, {"time": 2168, "pitch": 62, "duration": 3, "velocity": 86}, {"time": 2171, "pitch": 64, "duration": 4, "velocity": 95}, {"time": 2177, "pitch": 62, "duration": 3, "velocity": 93}, {"time": 2180, "pitch": 57, "duration": 3, "velocity": 91}, {"time": 2183, "pitch": 66, "duration": 2, "velocity": 89}, {"time": 2186, "pitch": 52, "duration": 14, "velocity": 96}, {"time": 2189, "pitch": 59, "duration": 4, "velocity": 81}, {"time": 2192, "pitch": 64, "duration": 3, "velocity": 85}, {"time": 2195, "pitch": 67, "duration": 6, "velocity": 94}, {"time": 2201, "pitch": 64, "duration": 3, "velocity": 93}, {"time": 2204, "pitch": 59, "duration": 1, "velocity": 92}, {"time": 2210, "pitch": 47, "duration": 14, "velocity": 94}, {"time": 2210, "pitch": 59, "duration": 3, "velocity": 92}, {"time": 2210, "pitch": 62, "duration": 6, "velocity": 92}, {"time": 2213, "pitch": 54, "duration": 10, "velocity": 76}, {"time": 2216, "pitch": 59, "duration": 4, "velocity": 93}, {"time": 2219, "pitch": 66, "duration": 6, "velocity": 99}, {"time": 2225, "pitch": 62, "duration": 3, "velocity": 98}, {"time": 2228, "pitch": 59, "duration": 2, "velocity": 89}, {"time": 2234, "pitch": 43, "duration": 21, "velocity": 93}, {"time": 2234, "pitch": 55, "duration": 3, "velocity": 88}, {"time": 2234, "pitch": 62, "duration": 6, "velocity": 90}, {"time": 2237, "pitch": 50, "duration": 10, "velocity": 88}, {"time": 2240, "pitch": 55, "duration": 4, "velocity": 89}, {"time": 2243, "pitch": 59, "duration": 9, "velocity": 98}, {"time": 2249, "pitch": 50, "duration": 7, "velocity": 89}, {"time": 2252, "pitch": 55, "duration": 3, "velocity": 93}, {"time": 2255, "pitch": 62, "duration": 2, "velocity": 86}, {"time": 2258, "pitch": 45, "duration": 21, "velocity": 95}, {"time": 2261, "pitch": 52, "duration": 18, "velocity": 85}, {"time": 2264, "pitch": 55, "duration": 1, "velocity": 79}, {"time": 2264, "pitch": 57, "duration": 1, "velocity": 80}, {"time": 2267, "pitch": 59, "duration": 4, "velocity": 103}, {"time": 2273, "pitch": 57, "duration": 2, "velocity": 89}, {"time": 2273, "pitch": 61, "duration": 2, "velocity": 99}, {"time": 2282, "pitch": 50, "duration": 19, "velocity": 97}, {"time": 2282, "pitch": 57, "duration": 2, "velocity": 86}, {"time": 2282, "pitch": 62, "duration": 3, "velocity": 92}, {"time": 2285, "pitch": 57, "duration": 3, "velocity": 83}, {"time": 2288, "pitch": 62, "duration": 2, "velocity": 85}, {"time": 2291, "pitch": 64, "duration": 2, "velocity": 99}, {"time": 2297, "pitch": 66, "duration": 6, "velocity": 95}, {"time": 2303, "pitch": 57, "duration": 1, "velocity": 77}, {"time": 2306, "pitch": 42, "duration": 18, "velocity": 97}, {"time": 2306, "pitch": 66, "duration": 3, "velocity": 93}, {"time": 2309, "pitch": 49, "duration": 16, "velocity": 82}, {"time": 2315, "pitch": 61, "duration": 3, "velocity": 97}, {"time": 2321, "pitch": 57, "duration": 3, "velocity": 86}, {"time": 2324, "pitch": 66, "duration": 4, "velocity": 97}, {"time": 2327, "pitch": 57, "duration": 2, "velocity": 86}, {"time": 2330, "pitch": 43, "duration": 21, "velocity": 91}, {"time": 2333, "pitch": 50, "duration": 13, "velocity": 91}, {"time": 2336, "pitch": 55, "duration": 3, "velocity": 94}, {"time": 2339, "pitch": 59, "duration": 3, "velocity": 94}, {"time": 2345, "pitch": 55, "duration": 2, "velocity": 87}, {"time": 2345, "pitch": 59, "duration": 2, "velocity": 93}, {"time": 2345, "pitch": 62, "duration": 2, "velocity": 88}, {"time": 2348, "pitch": 50, "duration": 3, "velocity": 89}, {"time": 2351, "pitch": 55, "duration": 2, "velocity": 96}, {"time": 2354, "pitch": 50, "duration": 19, "velocity": 93}, {"time": 2357, "pitch": 57, "duration": 4, "velocity": 88}, {"time": 2360, "pitch": 62, "duration": 2, "velocity": 92}, {"time": 2363, "pitch": 64, "duration": 1, "velocity": 97}, {"time": 2369, "pitch": 66, "duration": 3, "velocity": 94}, {"time": 2372, "pitch": 62, "duration": 2, "velocity": 85}, {"time": 2375, "pitch": 57, "duration": 1, "velocity": 76}, {"time": 2378, "pitch": 52, "duration": 12, "velocity": 94}, {"time": 2378, "pitch": 59, "duration": 2, "velocity": 91}, {"time": 2378, "pitch": 64, "duration": 3, "velocity": 91}, {"time": 2381, "pitch": 59, "duration": 3, "velocity": 86}, {"time": 2384, "pitch": 64, "duration": 1, "velocity": 75}, {"time": 2387, "pitch": 67, "duration": 4, "velocity": 93}, {"time": 2393, "pitch": 64, "duration": 1, "velocity": 99}, {"time": 2402, "pitch": 47, "duration": 15, "velocity": 93}, {"time": 2402, "pitch": 59, "duration": 3, "velocity": 92}, {"time": 2402, "pitch": 62, "duration": 5, "velocity": 95}, {"time": 2405, "pitch": 54, "duration": 10, "velocity": 75}, {"time": 2408, "pitch": 59, "duration": 1, "velocity": 87}, {"time": 2411, "pitch": 66, "duration": 6, "velocity": 97}, {"time": 2417, "pitch": 62, "duration": 2, "velocity": 93}, {"time": 2420, "pitch": 59, "duration": 1, "velocity": 91}, {"time": 2426, "pitch": 43, "duration": 21, "velocity": 94}, {"time": 2426, "pitch": 55, "duration": 10, "velocity": 87}, {"time": 2426, "pitch": 62, "duration": 6, "velocity": 90}, {"time": 2429, "pitch": 50, "duration": 17, "velocity": 86}, {"time": 2432, "pitch": 58, "duration": 4, "velocity": 88}, {"time": 2435, "pitch": 67, "duration": 5, "velocity": 92}, {"time": 2441, "pitch": 62, "duration": 3, "velocity": 93}, {"time": 2444, "pitch": 58, "duration": 4, "velocity": 95}, {"time": 2447, "pitch": 55, "duration": 2, "velocity": 90}, {"time": 2450, "pitch": 50, "duration": 21, "velocity": 97}, {"time": 2453, "pitch": 57, "duration": 3, "velocity": 83}, {"time": 2456, "pitch": 62, "duration": 3, "velocity": 87}, {"time": 2459, "pitch": 64, "duration": 1, "velocity": 95}, {"time": 2465, "pitch": 66, "duration": 3, "velocity": 101}, {"time": 2468, "pitch": 62, "duration": 2, "velocity": 81}, {"time": 2471, "pitch": 57, "duration": 3, "velocity": 91}, {"time": 2474, "pitch": 43, "duration": 24, "velocity": 93}, {"time": 2477, "pitch": 50, "duration": 21, "velocity": 85}, {"time": 2480, "pitch": 55, "duration": 3, "velocity": 91}, {"time": 2483, "pitch": 57, "duration": 3, "velocity": 86}, {"time": 2486, "pitch": 58, "duration": 3, "velocity": 95}, {"time": 2489, "pitch": 66, "duration": 3, "velocity": 106}, {"time": 2492, "pitch": 64, "duration": 3, "velocity": 93}, {"time": 2495, "pitch": 62, "duration": 3, "velocity": 98}, {"time": 2498, "pitch": 50, "duration": 1, "velocity": 94}, {"time": 2501, "pitch": 57, "duration": 12, "velocity": 85}, {"time": 2504, "pitch": 62, "duration": 3, "velocity": 86}, {"time": 2507, "pitch": 69, "duration": 16, "velocity": 96}, {"time": 2513, "pitch": 62, "duration": 4, "velocity": 92}, {"time": 2516, "pitch": 57, "duration": 4, "velocity": 88}, {"time": 2519, "pitch": 62, "duration": 3, "velocity": 84}, {"time": 2522, "pitch": 43, "duration": 21, "velocity": 93}, {"time": 2525, "pitch": 50, "duration": 18, "velocity": 89}, {"time": 2528, "pitch": 55, "duration": 4, "velocity": 92}, {"time": 2531, "pitch": 57, "duration": 3, "velocity": 86}, {"time": 2534, "pitch": 58, "duration": 1, "velocity": 98}, {"time": 2537, "pitch": 66, "duration": 1, "velocity": 93}, {"time": 2540, "pitch": 64, "duration": 3, "velocity": 97}, {"time": 2543, "pitch": 62, "duration": 2, "velocity": 91}, {"time": 2546, "pitch": 50, "duration": 23, "velocity": 96}, {"time": 2549, "pitch": 57, "duration": 20, "velocity": 81}, {"time": 2552, "pitch": 62, "duration": 4, "velocity": 91}, {"time": 2555, "pitch": 69, "duration": 10, "velocity": 98}, {"time": 2561, "pitch": 66, "duration": 4, "velocity": 97}, {"time": 2564, "pitch": 62, "duration": 6, "velocity": 86}, {"time": 2570, "pitch": 43, "duration": 21, "velocity": 94}, {"time": 2573, "pitch": 50, "duration": 18, "velocity": 87}, {"time": 2576, "pitch": 55, "duration": 5, "velocity": 85}, {"time": 2579, "pitch": 57, "duration": 6, "velocity": 86}, {"time": 2585, "pitch": 58, "duration": 6, "velocity": 88}, {"time": 2588, "pitch": 55, "duration": 3, "velocity": 85}, {"time": 2591, "pitch": 62, "duration": 4, "velocity": 92}, {"time": 2594, "pitch": 50, "duration": 7, "velocity": 96}, {"time": 2594, "pitch": 62, "duration": 1, "velocity": 94}, {"time": 2597, "pitch": 57, "duration": 5, "velocity": 88}, {"time": 2600, "pitch": 62, "duration": 1, "velocity": 88}, {"time": 2603, "pitch": 49, "duration": 4, "velocity": 96}, {"time": 2603, "pitch": 61, "duration": 5, "velocity": 91}, {"time": 2609, "pitch": 47, "duration": 7, "velocity": 95}, {"time": 2609, "pitch": 59, "duration": 8, "velocity": 87}, {"time": 2609, "pitch": 62, "duration": 8, "velocity": 90}, {"time": 2618, "pitch": 48, "duration": 18, "velocity": 92}, {"time": 2618, "pitch": 60, "duration": 3, "velocity": 83}, {"time": 2618, "pitch": 64, "duration": 6, "velocity": 87}, {"time": 2621, "pitch": 55, "duration": 8, "velocity": 86}, {"time": 2624, "pitch": 60, "duration": 3, "velocity": 81}, {"time": 2627, "pitch": 64, "duration": 4, "velocity": 95}, {"time": 2630, "pitch": 55, "duration": 5, "velocity": 74}, {"time": 2633, "pitch": 67, "duration": 4, "velocity": 96}, {"time": 2636, "pitch": 60, "duration": 3, "velocity": 86}, {"time": 2639, "pitch": 64, "duration": 4, "velocity": 92}, {"time": 2642, "pitch": 45, "duration": 17, "velocity": 93}, {"time": 2645, "pitch": 52, "duration": 14, "velocity": 70}, {"time": 2648, "pitch": 57, "duration": 9, "velocity": 83}, {"time": 2651, "pitch": 61, "duration": 6, "velocity": 94}, {"time": 2657, "pitch": 64, "duration": 3, "velocity": 92}, {"time": 2660, "pitch": 61, "duration": 4, "velocity": 93}, {"time": 2666, "pitch": 43, "duration": 24, "velocity": 93}, {"time": 2669, "pitch": 50, "duration": 21, "velocity": 85}, {"time": 2672, "pitch": 55, "duration": 3, "velocity": 91}, {"time": 2675, "pitch": 57, "duration": 3, "velocity": 86}, {"time": 2678, "pitch": 58, "duration": 3, "velocity": 95}, {"time": 2681, "pitch": 66, "duration": 3, "velocity": 106}, {"time": 2684, "pitch": 64, "duration": 3, "velocity": 93}, {"time": 2687, "pitch": 62, "duration": 3, "velocity": 98}, {"time": 2690, "pitch": 50, "duration": 1, "velocity": 94}, {"time": 2693, "pitch": 57, "duration": 12, "velocity": 85}, {"time": 2696, "pitch": 62, "duration": 3, "velocity": 86}, {"time": 2699, "pitch": 69, "duration": 16, "velocity": 96}, {"time": 2705, "pitch": 62, "duration": 4, "velocity": 92}, {"time": 2708, "pitch": 57, "duration": 4, "velocity": 88}, {"time": 2711, "pitch": 62, "duration": 3, "velocity": 84}, {"time": 2714, "pitch": 43, "duration": 21, "velocity": 93}, {"time": 2717, "pitch": 50, "duration": 18, "velocity": 89}, {"time": 2720, "pitch": 55, "duration": 4, "velocity": 92}, {"time": 2723, "pitch": 57, "duration": 3, "velocity": 86}, {"time": 2726, "pitch": 58, "duration": 1, "velocity": 98}, {"time": 2729, "pitch": 66, "duration": 1, "velocity": 93}, {"time": 2732, "pitch": 64, "duration": 3, "velocity": 97}, {"time": 2735, "pitch": 62, "duration": 2, "velocity": 91}, {"time": 2738, "pitch": 50, "duration": 23, "velocity": 96}, {"time": 2741, "pitch": 57, "duration": 20, "velocity": 81}, {"time": 2744, "pitch": 62, "duration": 4, "velocity": 91}, {"time": 2747, "pitch": 69, "duration": 10, "velocity": 98}, {"time": 2753, "pitch": 66, "duration": 4, "velocity": 97}, {"time": 2756, "pitch": 62, "duration": 6, "velocity": 86}, {"time": 2762, "pitch": 43, "duration": 21, "velocity": 94}, {"time": 2765, "pitch": 50, "duration": 18, "velocity": 87}, {"time": 2768, "pitch": 55, "duration": 5, "velocity": 85}, {"time": 2771, "pitch": 57, "duration": 6, "velocity": 86}, {"time": 2777, "pitch": 58, "duration": 6, "velocity": 88}, {"time": 2780, "pitch": 55, "duration": 3, "velocity": 85}, {"time": 2783, "pitch": 62, "duration": 4, "velocity": 92}, {"time": 2786, "pitch": 50, "duration": 7, "velocity": 96}, {"time": 2786, "pitch": 62, "duration": 1, "velocity": 94}, {"time": 2789, "pitch": 57, "duration": 5, "velocity": 88}, {"time": 2792, "pitch": 62, "duration": 1, "velocity": 88}, {"time": 2795, "pitch": 49, "duration": 4, "velocity": 96}, {"time": 2795, "pitch": 61, "duration": 5, "velocity": 91}, {"time": 2801, "pitch": 47, "duration": 7, "velocity": 95}, {"time": 2801, "pitch": 59, "duration": 8, "velocity": 87}, {"time": 2801, "pitch": 62, "duration": 8, "velocity": 90}, {"time": 2810, "pitch": 48, "duration": 18, "velocity": 92}, {"time": 2810, "pitch": 60, "duration": 3, "velocity": 83}, {"time": 2810, "pitch": 64, "duration": 6, "velocity": 87}, {"time": 2813, "pitch": 55, "duration": 8, "velocity": 86}, {"time": 2816, "pitch": 60, "duration": 3, "velocity": 81}, {"time": 2819, "pitch": 64, "duration": 4, "velocity": 95}, {"time": 2822, "pitch": 55, "duration": 5, "velocity": 74}, {"time": 2825, "pitch": 67, "duration": 4, "velocity": 96}, {"time": 2828, "pitch": 60, "duration": 3, "velocity": 86}, {"time": 2831, "pitch": 64, "duration": 4, "velocity": 92}, {"time": 2834, "pitch": 45, "duration": 17, "velocity": 93}, {"time": 2837, "pitch": 52, "duration": 14, "velocity": 70}, {"time": 2840, "pitch": 57, "duration": 9, "velocity": 83}, {"time": 2843, "pitch": 61, "duration": 6, "velocity": 94}, {"time": 2849, "pitch": 64, "duration": 3, "velocity": 92}, {"time": 2852, "pitch": 61, "duration": 4, "velocity": 93}, {"time": 2858, "pitch": 43, "duration": 24, "velocity": 93}, {"time": 2861, "pitch": 50, "duration": 21, "velocity": 85}, {"time": 2864, "pitch": 55, "duration": 3, "velocity": 91}, {"time": 2867, "pitch": 57, "duration": 3, "velocity": 86}, {"time": 2870, "pitch": 58, "duration": 3, "velocity": 95}, {"time": 2873, "pitch": 66, "duration": 3, "velocity": 106}, {"time": 2876, "pitch": 64, "duration": 3, "velocity": 93}, {"time": 2879, "pitch": 62, "duration": 3, "velocity": 98}, {"time": 2882, "pitch": 50, "duration": 1, "velocity": 94}, {"time": 2885, "pitch": 57, "duration": 12, "velocity": 85}, {"time": 2888, "pitch": 62, "duration": 3, "velocity": 86}, {"time": 2891, "pitch": 69, "duration": 16, "velocity": 96}, {"time": 2897, "pitch": 62, "duration": 4, "velocity": 92}, {"time": 2900, "pitch": 57, "duration": 4, "velocity": 88}, {"time": 2903, "pitch": 62, "duration": 3, "velocity": 84}, {"time": 2906, "pitch": 43, "duration": 26, "velocity": 95}, {"time": 2909, "pitch": 50, "duration": 22, "velocity": 85}, {"time": 2912, "pitch": 55, "duration": 4, "velocity": 90}, {"time": 2915, "pitch": 57, "duration": 3, "velocity": 93}, {"time": 2918, "pitch": 58, "duration": 1, "velocity": 103}, {"time": 2922, "pitch": 66, "duration": 1, "velocity": 108}, {"time": 2926, "pitch": 64, "duration": 1, "velocity": 96}, {"time": 2931, "pitch": 62, "duration": 7, "velocity": 101}, {"time": 2935, "pitch": 50, "duration": 52, "velocity": 96}, {"time": 2939, "pitch": 57, "duration": 48, "velocity": 80}, {"time": 2943, "pitch": 62, "duration": 7, "velocity": 74}, {"time": 2948, "pitch": 71, "duration": 6, "velocity": 92}, {"time": 2954, "pitch": 69, "duration": 3, "velocity": 79}, {"time": 2959, "pitch": 69, "duration": 8, "velocity": 88}, {"time": 2969, "pitch": 69, "duration": 16, "velocity": 72}, {"time": 2971, "pitch": 74, "duration": 15, "velocity": 92}], "annotations": [{"time": 49, "annotation": {"number": 64, "value": 127}, "group": "control_change"}, {"time": 72, "annotation": {"number": 64, "value": 0}, "group": "control_change"}, {"time": 106, "annotation": {"number": 64, "value": 127}, "group": "control_change"}, {"time": 120, "annotation": {"number": 64, "value": 0}, "group": "control_change"}, {"time": 170, "annotation": {"number": 64, "value": 127}, "group": "control_change"}, {"time": 179, "annotation": {"number": 64, "value": 0}, "group": "control_change"}, {"time": 180, "annotation": {"number": 64, "value": 127}, "group": "control_change"}, {"time": 191, "annotation": {"number": 64, "value": 0}, "group": "control_change"}, {"time": 194, "annotation": {"number": 64, "value": 127}, "group": "control_change"}, {"time": 216, "annotation": {"number": 64, "value": 0}, "group": "control_change"}, {"time": 220, "annotation": {"number": 64, "value": 127}, "group": "control_change"}, {"time": 241, "annotation": {"number": 64, "value": 0}, "group": "control_change"}, {"time": 243, "annotation": {"number": 64, "value": 127}, "group": "control_change"}, {"time": 265, "annotation": {"number": 64, "value": 0}, "group": "control_change"}, {"time": 266, "annotation": {"number": 64, "value": 127}, "group": "control_change"}, {"time": 288, "annotation": {"number": 64, "value": 0}, "group": "control_change"}, {"time": 292, "annotation": {"number": 64, "value": 127}, "group": "control_change"}, {"time": 314, "annotation": {"number": 64, "value": 0}, "group": "control_change"}, {"time": 317, "annotation": {"number": 64, "value": 127}, "group": "control_change"}, {"time": 337, "annotation": {"number": 64, "value": 0}, "group": "control_change"}, {"time": 340, "annotation": {"number": 64, "value": 127}, "group": "control_change"}, {"time": 359, "annotation": {"number": 64, "value": 0}, "group": "control_change"}, {"time": 363, "annotation": {"number": 64, "value": 127}, "group": "control_change"}, {"time": 384, "annotation": {"number": 64, "value": 0}, "group": "control_change"}, {"time": 387, "annotation": {"number": 64, "value": 127}, "group": "control_change"}, {"time": 408, "annotation": {"number": 64, "value": 0}, "group": "control_change"}, {"time": 411, "annotation": {"number": 64, "value": 127}, "group": "control_change"}, {"time": 431, "annotation": {"number": 64, "value": 0}, "group": "control_change"}, {"time": 436, "annotation": {"number": 64, "value": 127}, "group": "control_change"}, {"time": 457, "annotation": {"number": 64, "value": 0}, "group": "control_change"}, {"time": 460, "annotation": {"number": 64, "value": 127}, "group": "control_change"}, {"time": 480, "annotation": {"number": 64, "value": 0}, "group": "control_change"}, {"time": 485, "annotation": {"number": 64, "value": 127}, "group": "control_change"}, {"time": 505, "annotation": {"number": 64, "value": 0}, "group": "control_change"}, {"time": 509, "annotation": {"number": 64, "value": 127}, "group": "control_change"}, {"time": 509, "annotation": {"number": 64, "value": 0}, "group": "control_change"}, {"time": 528, "annotation": {"number": 64, "value": 0}, "group": "control_change"}, {"time": 531, "annotation": {"number": 64, "value": 127}, "group": "control_change"}, {"time": 553, "annotation": {"number": 64, "value": 0}, "group": "control_change"}, {"time": 557, "annotation": {"number": 64, "value": 127}, "group": "control_change"}, {"time": 577, "annotation": {"number": 64, "value": 0}, "group": "control_change"}, {"time": 581, "annotation": {"number": 64, "value": 127}, "group": "control_change"}, {"time": 600, "annotation": {"number": 64, "value": 0}, "group": "control_change"}, {"time": 604, "annotation": {"number": 64, "value": 127}, "group": "control_change"}, {"time": 626, "annotation": {"number": 64, "value": 0}, "group": "control_change"}, {"time": 629, "annotation": {"number": 64, "value": 127}, "group": "control_change"}, {"time": 649, "annotation": {"number": 64, "value": 0}, "group": "control_change"}, {"time": 653, "annotation": {"number": 64, "value": 127}, "group": "control_change"}, {"time": 653, "annotation": {"number": 64, "value": 0}, "group": "control_change"}, {"time": 671, "annotation": {"number": 64, "value": 0}, "group": "control_change"}, {"time": 678, "annotation": {"number": 64, "value": 127}, "group": "control_change"}, {"time": 698, "annotation": {"number": 64, "value": 0}, "group": "control_change"}, {"time": 699, "annotation": {"number": 64, "value": 127}, "group": "control_change"}, {"time": 718, "annotation": {"number": 64, "value": 0}, "group": "control_change"}, {"time": 721, "annotation": {"number": 64, "value": 127}, "group": "control_change"}, {"time": 743, "annotation": {"number": 64, "value": 0}, "group": "control_change"}, {"time": 746, "annotation": {"number": 64, "value": 127}, "group": "control_change"}, {"time": 767, "annotation": {"number": 64, "value": 0}, "group": "control_change"}, {"time": 769, "annotation": {"number": 64, "value": 127}, "group": "control_change"}, {"time": 792, "annotation": {"number": 64, "value": 0}, "group": "control_change"}, {"time": 796, "annotation": {"number": 64, "value": 127}, "group": "control_change"}, {"time": 817, "annotation": {"number": 64, "value": 0}, "group": "control_change"}, {"time": 821, "annotation": {"number": 64, "value": 127}, "group": "control_change"}, {"time": 840, "annotation": {"number": 64, "value": 0}, "group": "control_change"}, {"time": 843, "annotation": {"number": 64, "value": 127}, "group": "control_change"}, {"time": 863, "annotation": {"number": 64, "value": 0}, "group": "control_change"}, {"time": 868, "annotation": {"number": 64, "value": 127}, "group": "control_change"}, {"time": 888, "annotation": {"number": 64, "value": 0}, "group": "control_change"}, {"time": 890, "annotation": {"number": 64, "value": 127}, "group": "control_change"}, {"time": 912, "annotation": {"number": 64, "value": 0}, "group": "control_change"}, {"time": 914, "annotation": {"number": 64, "value": 127}, "group": "control_change"}, {"time": 936, "annotation": {"number": 64, "value": 0}, "group": "control_change"}, {"time": 940, "annotation": {"number": 64, "value": 127}, "group": "control_change"}, {"time": 960, "annotation": {"number": 64, "value": 0}, "group": "control_change"}, {"time": 962, "annotation": {"number": 64, "value": 127}, "group": "control_change"}, {"time": 984, "annotation": {"number": 64, "value": 0}, "group": "control_change"}, {"time": 988, "annotation": {"number": 64, "value": 127}, "group": "control_change"}, {"time": 1008, "annotation": {"number": 64, "value": 0}, "group": "control_change"}, {"time": 1013, "annotation": {"number": 64, "value": 127}, "group": "control_change"}, {"time": 1032, "annotation": {"number": 64, "value": 0}, "group": "control_change"}, {"time": 1035, "annotation": {"number": 64, "value": 127}, "group": "control_change"}, {"time": 1057, "annotation": {"number": 64, "value": 0}, "group": "control_change"}, {"time": 1080, "annotation": {"number": 64, "value": 0}, "group": "control_change"}, {"time": 1114, "annotation": {"number": 64, "value": 127}, "group": "control_change"}, {"time": 1128, "annotation": {"number": 64, "value": 0}, "group": "control_change"}, {"time": 1178, "annotation": {"number": 64, "value": 127}, "group": "control_change"}, {"time": 1187, "annotation": {"number": 64, "value": 0}, "group": "control_change"}, {"time": 1188, "annotation": {"number": 64, "value": 127}, "group": "control_change"}, {"time": 1199, "annotation": {"number": 64, "value": 0}, "group": "control_change"}, {"time": 1202, "annotation": {"number": 64, "value": 127}, "group": "control_change"}, {"time": 1224, "annotation": {"number": 64, "value": 0}, "group": "control_change"}, {"time": 1228, "annotation": {"number": 64, "value": 127}, "group": "control_change"}, {"time": 1249, "annotation": {"number": 64, "value": 0}, "group": "control_change"}, {"time": 1272, "annotation": {"number": 64, "value": 0}, "group": "control_change"}, {"time": 1306, "annotation": {"number": 64, "value": 127}, "group": "control_change"}, {"time": 1320, "annotation": {"number": 64, "value": 0}, "group": "control_change"}, {"time": 1370, "annotation": {"number": 64, "value": 127}, "group": "control_change"}, {"time": 1379, "annotation": {"number": 64, "value": 0}, "group": "control_change"}, {"time": 1380, "annotation": {"number": 64, "value": 127}, "group": "control_change"}, {"time": 1391, "annotation": {"number": 64, "value": 0}, "group": "control_change"}, {"time": 1394, "annotation": {"number": 64, "value": 127}, "group": "control_change"}, {"time": 1416, "annotation": {"number": 64, "value": 0}, "group": "control_change"}, {"time": 1420, "annotation": {"number": 64, "value": 127}, "group": "control_change"}, {"time": 1441, "annotation": {"number": 64, "value": 0}, "group": "control_change"}, {"time": 1443, "annotation": {"number": 64, "value": 127}, "group": "control_change"}, {"time": 1465, "annotation": {"number": 64, "value": 0}, "group": "control_change"}, {"time": 1468, "annotation": {"number": 64, "value": 127}, "group": "control_change"}, {"time": 1488, "annotation": {"number": 64, "value": 0}, "group": "control_change"}, {"time": 1493, "annotation": {"number": 64, "value": 127}, "group": "control_change"}, {"time": 1513, "annotation": {"number": 64, "value": 0}, "group": "control_change"}, {"time": 1517, "annotation": {"number": 64, "value": 127}, "group": "control_change"}, {"time": 1517, "annotation": {"number": 64, "value": 0}, "group": "control_change"}, {"time": 1536, "annotation": {"number": 64, "value": 0}, "group": "control_change"}, {"time": 1539, "annotation": {"number": 64, "value": 127}, "group": "control_change"}, {"time": 1561, "annotation": {"number": 64, "value": 0}, "group": "control_change"}, {"time": 1565, "annotation": {"number": 64, "value": 127}, "group": "control_change"}, {"time": 1585, "annotation": {"number": 64, "value": 0}, "group": "control_change"}, {"time": 1589, "annotation": {"number": 64, "value": 127}, "group": "control_change"}, {"time": 1608, "annotation": {"number": 64, "value": 0}, "group": "control_change"}, {"time": 1612, "annotation": {"number": 64, "value": 127}, "group": "control_change"}, {"time": 1634, "annotation": {"number": 64, "value": 0}, "group": "control_change"}, {"time": 1637, "annotation": {"number": 64, "value": 127}, "group": "control_change"}, {"time": 1657, "annotation": {"number": 64, "value": 0}, "group": "control_change"}, {"time": 1661, "annotation": {"number": 64, "value": 127}, "group": "control_change"}, {"time": 1661, "annotation": {"number": 64, "value": 0}, "group": "control_change"}, {"time": 1679, "annotation": {"number": 64, "value": 0}, "group": "control_change"}, {"time": 1686, "annotation": {"number": 64, "value": 127}, "group": "control_change"}, {"time": 1706, "annotation": {"number": 64, "value": 0}, "group": "control_change"}, {"time": 1707, "annotation": {"number": 64, "value": 127}, "group": "control_change"}, {"time": 1726, "annotation": {"number": 64, "value": 0}, "group": "control_change"}, {"time": 1729, "annotation": {"number": 64, "value": 127}, "group": "control_change"}, {"time": 1751, "annotation": {"number": 64, "value": 0}, "group": "control_change"}, {"time": 1754, "annotation": {"number": 64, "value": 127}, "group": "control_change"}, {"time": 1775, "annotation": {"number": 64, "value": 0}, "group": "control_change"}, {"time": 1777, "annotation": {"number": 64, "value": 127}, "group": "control_change"}, {"time": 1800, "annotation": {"number": 64, "value": 0}, "group": "control_change"}, {"time": 1804, "annotation": {"number": 64, "value": 127}, "group": "control_change"}, {"time": 1825, "annotation": {"number": 64, "value": 0}, "group": "control_change"}, {"time": 1829, "annotation": {"number": 64, "value": 127}, "group": "control_change"}, {"time": 1848, "annotation": {"number": 64, "value": 0}, "group": "control_change"}, {"time": 1851, "annotation": {"number": 64, "value": 127}, "group": "control_change"}, {"time": 1871, "annotation": {"number": 64, "value": 0}, "group": "control_change"}, {"time": 1876, "annotation": {"number": 64, "value": 127}, "group": "control_change"}, {"time": 1896, "annotation": {"number": 64, "value": 0}, "group": "control_change"}, {"time": 1898, "annotation": {"number": 64, "value": 127}, "group": "control_change"}, {"time": 1920, "annotation": {"number": 64, "value": 0}, "group": "control_change"}, {"time": 1922, "annotation": {"number": 64, "value": 127}, "group": "control_change"}, {"time": 1944, "annotation": {"number": 64, "value": 0}, "group": "control_change"}, {"time": 1948, "annotation": {"number": 64, "value": 127}, "group": "control_change"}, {"time": 1968, "annotation": {"number": 64, "value": 0}, "group": "control_change"}, {"time": 1970, "annotation": {"number": 64, "value": 127}, "group": "control_change"}, {"time": 1992, "annotation": {"number": 64, "value": 0}, "group": "control_change"}, {"time": 1996, "annotation": {"number": 64, "value": 127}, "group": "control_change"}, {"time": 2016, "annotation": {"number": 64, "value": 0}, "group": "control_change"}, {"time": 2021, "annotation": {"number": 64, "value": 127}, "group": "control_change"}, {"time": 2040, "annotation": {"number": 64, "value": 0}, "group": "control_change"}, {"time": 2043, "annotation": {"number": 64, "value": 127}, "group": "control_change"}, {"time": 2065, "annotation": {"number": 64, "value": 0}, "group": "control_change"}, {"time": 2068, "annotation": {"number": 64, "value": 127}, "group": "control_change"}, {"time": 2068, "annotation": {"number": 64, "value": 0}, "group": "control_change"}, {"time": 2087, "annotation": {"number": 64, "value": 0}, "group": "control_change"}, {"time": 2094, "annotation": {"number": 64, "value": 127}, "group": "control_change"}, {"time": 2114, "annotation": {"number": 64, "value": 0}, "group": "control_change"}, {"time": 2115, "annotation": {"number": 64, "value": 127}, "group": "control_change"}, {"time": 2134, "annotation": {"number": 64, "value": 0}, "group": "control_change"}, {"time": 2137, "annotation": {"number": 64, "value": 127}, "group": "control_change"}, {"time": 2159, "annotation": {"number": 64, "value": 0}, "group": "control_change"}, {"time": 2162, "annotation": {"number": 64, "value": 127}, "group": "control_change"}, {"time": 2183, "annotation": {"number": 64, "value": 0}, "group": "control_change"}, {"time": 2185, "annotation": {"number": 64, "value": 127}, "group": "control_change"}, {"time": 2208, "annotation": {"number": 64, "value": 0}, "group": "control_change"}, {"time": 2212, "annotation": {"number": 64, "value": 127}, "group": "control_change"}, {"time": 2233, "annotation": {"number": 64, "value": 0}, "group": "control_change"}, {"time": 2237, "annotation": {"number": 64, "value": 127}, "group": "control_change"}, {"time": 2256, "annotation": {"number": 64, "value": 0}, "group": "control_change"}, {"time": 2259, "annotation": {"number": 64, "value": 127}, "group": "control_change"}, {"time": 2279, "annotation": {"number": 64, "value": 0}, "group": "control_change"}, {"time": 2284, "annotation": {"number": 64, "value": 127}, "group": "control_change"}, {"time": 2304, "annotation": {"number": 64, "value": 0}, "group": "control_change"}, {"time": 2306, "annotation": {"number": 64, "value": 127}, "group": "control_change"}, {"time": 2328, "annotation": {"number": 64, "value": 0}, "group": "control_change"}, {"time": 2330, "annotation": {"number": 64, "value": 127}, "group": "control_change"}, {"time": 2352, "annotation": {"number": 64, "value": 0}, "group": "control_change"}, {"time": 2356, "annotation": {"number": 64, "value": 127}, "group": "control_change"}, {"time": 2376, "annotation": {"number": 64, "value": 0}, "group": "control_change"}, {"time": 2378, "annotation": {"number": 64, "value": 127}, "group": "control_change"}, {"time": 2400, "annotation": {"number": 64, "value": 0}, "group": "control_change"}, {"time": 2404, "annotation": {"number": 64, "value": 127}, "group": "control_change"}, {"time": 2424, "annotation": {"number": 64, "value": 0}, "group": "control_change"}, {"time": 2429, "annotation": {"number": 64, "value": 127}, "group": "control_change"}, {"time": 2448, "annotation": {"number": 64, "value": 0}, "group": "control_change"}, {"time": 2451, "annotation": {"number": 64, "value": 127}, "group": "control_change"}, {"time": 2473, "annotation": {"number": 64, "value": 0}, "group": "control_change"}, {"time": 2496, "annotation": {"number": 64, "value": 0}, "group": "control_change"}, {"time": 2530, "annotation": {"number": 64, "value": 127}, "group": "control_change"}, {"time": 2544, "annotation": {"number": 64, "value": 0}, "group": "control_change"}, {"time": 2594, "annotation": {"number": 64, "value": 127}, "group": "control_change"}, {"time": 2603, "annotation": {"number": 64, "value": 0}, "group": "control_change"}, {"time": 2604, "annotation": {"number": 64, "value": 127}, "group": "control_change"}, {"time": 2615, "annotation": {"number": 64, "value": 0}, "group": "control_change"}, {"time": 2618, "annotation": {"number": 64, "value": 127}, "group": "control_change"}, {"time": 2640, "annotation": {"number": 64, "value": 0}, "group": "control_change"}, {"time": 2644, "annotation": {"number": 64, "value": 127}, "group": "control_change"}, {"time": 2665, "annotation": {"number": 64, "value": 0}, "group": "control_change"}, {"time": 2688, "annotation": {"number": 64, "value": 0}, "group": "control_change"}, {"time": 2722, "annotation": {"number": 64, "value": 127}, "group": "control_change"}, {"time": 2736, "annotation": {"number": 64, "value": 0}, "group": "control_change"}, {"time": 2786, "annotation": {"number": 64, "value": 127}, "group": "control_change"}, {"time": 2795, "annotation": {"number": 64, "value": 0}, "group": "control_change"}, {"time": 2796, "annotation": {"number": 64, "value": 127}, "group": "control_change"}, {"time": 2807, "annotation": {"number": 64, "value": 0}, "group": "control_change"}, {"time": 2810, "annotation": {"number": 64, "value": 127}, "group": "control_change"}, {"time": 2832, "annotation": {"number": 64, "value": 0}, "group": "control_change"}, {"time": 2836, "annotation": {"number": 64, "value": 127}, "group": "control_change"}, {"time": 2857, "annotation": {"number": 64, "value": 0}, "group": "control_change"}, {"time": 2880, "annotation": {"number": 64, "value": 0}, "group": "control_change"}, {"time": 2909, "annotation": {"number": 64, "value": 127}, "group": "control_change"}, {"time": 2935, "annotation": {"number": 64, "value": 0}, "group": "control_change"}, {"time": 2942, "annotation": {"number": 64, "value": 127}, "group": "control_change"}, {"time": 3019, "annotation": {"number": 64, "value": 0}, "group": "control_change"}]}]}