{"metadata": {"schema_version": "0.2", "title": "None", "source_filename": "491.mid", "source_format": "midi"}, "resolution": 12, "tempos": [{"time": 0, "qpm": 90.00009000009}, {"time": 432, "qpm": 89.80006016604031}, {"time": 863, "qpm": 90.00009000009}, {"time": 1560, "qpm": 89.80006016604031}, {"time": 1752, "qpm": 90.00009000009}, {"time": 2579, "qpm": 89.80006016604031}, {"time": 3240, "qpm": 90.00009000009}], "time_signatures": [{"time": 0, "numerator": 1, "denominator": 4}], "tracks": [{"program": 4, "is_drum": false, "name": "MELODY", "notes": [{"time": 96, "pitch": 65, "duration": 10, "velocity": 96}, {"time": 108, "pitch": 72, "duration": 5, "velocity": 92}, {"time": 114, "pitch": 70, "duration": 4, "velocity": 90}, {"time": 120, "pitch": 72, "duration": 18, "velocity": 93}, {"time": 144, "pitch": 77, "duration": 9, "velocity": 91}, {"time": 156, "pitch": 72, "duration": 5, "velocity": 89}, {"time": 162, "pitch": 70, "duration": 4, "velocity": 93}, {"time": 168, "pitch": 72, "duration": 20, "velocity": 93}, {"time": 192, "pitch": 68, "duration": 4, "velocity": 91}, {"time": 198, "pitch": 68, "duration": 5, "velocity": 89}, {"time": 204, "pitch": 68, "duration": 4, "velocity": 93}, {"time": 210, "pitch": 68, "duration": 4, "velocity": 92}, {"time": 216, "pitch": 70, "duration": 4, "velocity": 91}, {"time": 222, "pitch": 70, "duration": 4, "velocity": 91}, {"time": 228, "pitch": 68, "duration": 4, "velocity": 100}, {"time": 234, "pitch": 70, "duration": 4, "velocity": 93}, {"time": 240, "pitch": 72, "duration": 3, "velocity": 97}, {"time": 243, "pitch": 70, "duration": 3, "velocity": 97}, {"time": 246, "pitch": 72, "duration": 26, "velocity": 90}, {"time": 486, "pitch": 72, "duration": 3, "velocity": 96}, {"time": 492, "pitch": 72, "duration": 3, "velocity": 94}, {"time": 498, "pitch": 70, "duration": 4, "velocity": 91}, {"time": 504, "pitch": 72, "duration": 10, "velocity": 93}, {"time": 516, "pitch": 75, "duration": 4, "velocity": 93}, {"time": 522, "pitch": 77, "duration": 5, "velocity": 91}, {"time": 528, "pitch": 72, "duration": 3, "velocity": 97}, {"time": 531, "pitch": 70, "duration": 3, "velocity": 97}, {"time": 534, "pitch": 72, "duration": 21, "velocity": 100}, {"time": 576, "pitch": 80, "duration": 4, "velocity": 98}, {"time": 582, "pitch": 77, "duration": 3, "velocity": 91}, {"time": 588, "pitch": 75, "duration": 4, "velocity": 100}, {"time": 594, "pitch": 72, "duration": 4, "velocity": 91}, {"time": 600, "pitch": 70, "duration": 4, "velocity": 95}, {"time": 606, "pitch": 68, "duration": 4, "velocity": 91}, {"time": 612, "pitch": 65, "duration": 5, "velocity": 93}, {"time": 618, "pitch": 75, "duration": 8, "velocity": 95}, {"time": 627, "pitch": 72, "duration": 4, "velocity": 97}, {"time": 630, "pitch": 70, "duration": 27, "velocity": 95}, {"time": 672, "pitch": 77, "duration": 14, "velocity": 98}, {"time": 690, "pitch": 72, "duration": 4, "velocity": 93}, {"time": 696, "pitch": 70, "duration": 9, "velocity": 95}, {"time": 708, "pitch": 65, "duration": 5, "velocity": 95}, {"time": 714, "pitch": 75, "duration": 10, "velocity": 95}, {"time": 726, "pitch": 70, "duration": 6, "velocity": 97}, {"time": 732, "pitch": 72, "duration": 23, "velocity": 90}, {"time": 768, "pitch": 70, "duration": 3, "velocity": 103}, {"time": 774, "pitch": 70, "duration": 3, "velocity": 95}, {"time": 780, "pitch": 70, "duration": 3, "velocity": 100}, {"time": 786, "pitch": 72, "duration": 4, "velocity": 93}, {"time": 792, "pitch": 75, "duration": 9, "velocity": 94}, {"time": 804, "pitch": 72, "duration": 3, "velocity": 93}, {"time": 810, "pitch": 75, "duration": 4, "velocity": 95}, {"time": 816, "pitch": 77, "duration": 44, "velocity": 93}, {"time": 864, "pitch": 77, "duration": 9, "velocity": 91}, {"time": 876, "pitch": 72, "duration": 4, "velocity": 94}, {"time": 882, "pitch": 77, "duration": 3, "velocity": 94}, {"time": 888, "pitch": 75, "duration": 2, "velocity": 103}, {"time": 894, "pitch": 72, "duration": 2, "velocity": 91}, {"time": 897, "pitch": 70, "duration": 1, "velocity": 94}, {"time": 900, "pitch": 72, "duration": 10, "velocity": 93}, {"time": 912, "pitch": 80, "duration": 8, "velocity": 93}, {"time": 924, "pitch": 72, "duration": 4, "velocity": 96}, {"time": 930, "pitch": 80, "duration": 3, "velocity": 100}, {"time": 936, "pitch": 77, "duration": 2, "velocity": 96}, {"time": 939, "pitch": 80, "duration": 2, "velocity": 100}, {"time": 942, "pitch": 77, "duration": 1, "velocity": 93}, {"time": 945, "pitch": 75, "duration": 1, "velocity": 100}, {"time": 948, "pitch": 77, "duration": 9, "velocity": 93}, {"time": 960, "pitch": 80, "duration": 3, "velocity": 91}, {"time": 966, "pitch": 80, "duration": 3, "velocity": 94}, {"time": 972, "pitch": 80, "duration": 3, "velocity": 100}, {"time": 978, "pitch": 80, "duration": 4, "velocity": 95}, {"time": 984, "pitch": 82, "duration": 5, "velocity": 93}, {"time": 990, "pitch": 84, "duration": 3, "velocity": 84}, {"time": 993, "pitch": 82, "duration": 2, "velocity": 98}, {"time": 996, "pitch": 80, "duration": 2, "velocity": 106}, {"time": 1002, "pitch": 82, "duration": 3, "velocity": 96}, {"time": 1008, "pitch": 84, "duration": 3, "velocity": 97}, {"time": 1011, "pitch": 82, "duration": 3, "velocity": 97}, {"time": 1014, "pitch": 84, "duration": 33, "velocity": 98}, {"time": 1056, "pitch": 72, "duration": 5, "velocity": 96}, {"time": 1062, "pitch": 80, "duration": 4, "velocity": 94}, {"time": 1068, "pitch": 77, "duration": 5, "velocity": 89}, {"time": 1074, "pitch": 75, "duration": 5, "velocity": 95}, {"time": 1080, "pitch": 75, "duration": 3, "velocity": 97}, {"time": 1083, "pitch": 72, "duration": 16, "velocity": 96}, {"time": 1104, "pitch": 77, "duration": 5, "velocity": 92}, {"time": 1110, "pitch": 84, "duration": 4, "velocity": 95}, {"time": 1116, "pitch": 82, "duration": 4, "velocity": 95}, {"time": 1122, "pitch": 80, "duration": 4, "velocity": 93}, {"time": 1128, "pitch": 80, "duration": 3, "velocity": 97}, {"time": 1131, "pitch": 77, "duration": 17, "velocity": 95}, {"time": 1152, "pitch": 80, "duration": 2, "velocity": 93}, {"time": 1158, "pitch": 80, "duration": 3, "velocity": 94}, {"time": 1164, "pitch": 80, "duration": 3, "velocity": 94}, {"time": 1170, "pitch": 80, "duration": 4, "velocity": 96}, {"time": 1176, "pitch": 82, "duration": 4, "velocity": 93}, {"time": 1182, "pitch": 82, "duration": 3, "velocity": 80}, {"time": 1188, "pitch": 80, "duration": 4, "velocity": 93}, {"time": 1194, "pitch": 82, "duration": 4, "velocity": 93}, {"time": 1200, "pitch": 84, "duration": 3, "velocity": 97}, {"time": 1203, "pitch": 82, "duration": 2, "velocity": 97}, {"time": 1206, "pitch": 84, "duration": 36, "velocity": 93}, {"time": 1242, "pitch": 82, "duration": 2, "velocity": 97}, {"time": 1245, "pitch": 80, "duration": 2, "velocity": 97}, {"time": 1248, "pitch": 82, "duration": 3, "velocity": 100}, {"time": 1254, "pitch": 82, "duration": 14, "velocity": 91}, {"time": 1272, "pitch": 79, "duration": 3, "velocity": 91}, {"time": 1278, "pitch": 79, "duration": 18, "velocity": 98}, {"time": 1302, "pitch": 75, "duration": 9, "velocity": 96}, {"time": 1314, "pitch": 75, "duration": 4, "velocity": 93}, {"time": 1320, "pitch": 75, "duration": 10, "velocity": 96}, {"time": 1332, "pitch": 72, "duration": 5, "velocity": 93}, {"time": 1338, "pitch": 75, "duration": 4, "velocity": 92}, {"time": 1344, "pitch": 77, "duration": 3, "velocity": 97}, {"time": 1347, "pitch": 75, "duration": 3, "velocity": 97}, {"time": 1350, "pitch": 77, "duration": 42, "velocity": 90}, {"time": 1782, "pitch": 72, "duration": 3, "velocity": 96}, {"time": 1788, "pitch": 72, "duration": 3, "velocity": 94}, {"time": 1794, "pitch": 70, "duration": 4, "velocity": 91}, {"time": 1800, "pitch": 72, "duration": 10, "velocity": 93}, {"time": 1812, "pitch": 75, "duration": 4, "velocity": 93}, {"time": 1818, "pitch": 77, "duration": 5, "velocity": 91}, {"time": 1824, "pitch": 72, "duration": 3, "velocity": 97}, {"time": 1827, "pitch": 70, "duration": 3, "velocity": 97}, {"time": 1830, "pitch": 72, "duration": 21, "velocity": 100}, {"time": 1872, "pitch": 80, "duration": 4, "velocity": 98}, {"time": 1878, "pitch": 77, "duration": 3, "velocity": 91}, {"time": 1884, "pitch": 75, "duration": 4, "velocity": 100}, {"time": 1890, "pitch": 72, "duration": 4, "velocity": 91}, {"time": 1896, "pitch": 70, "duration": 4, "velocity": 95}, {"time": 1902, "pitch": 68, "duration": 4, "velocity": 91}, {"time": 1908, "pitch": 65, "duration": 5, "velocity": 93}, {"time": 1914, "pitch": 75, "duration": 12, "velocity": 95}, {"time": 1926, "pitch": 72, "duration": 27, "velocity": 95}, {"time": 1968, "pitch": 77, "duration": 14, "velocity": 98}, {"time": 1986, "pitch": 72, "duration": 4, "velocity": 93}, {"time": 1992, "pitch": 70, "duration": 9, "velocity": 95}, {"time": 2004, "pitch": 65, "duration": 5, "velocity": 95}, {"time": 2010, "pitch": 75, "duration": 5, "velocity": 95}, {"time": 2016, "pitch": 72, "duration": 3, "velocity": 97}, {"time": 2019, "pitch": 70, "duration": 2, "velocity": 97}, {"time": 2022, "pitch": 72, "duration": 29, "velocity": 90}, {"time": 2064, "pitch": 70, "duration": 3, "velocity": 103}, {"time": 2070, "pitch": 70, "duration": 3, "velocity": 95}, {"time": 2076, "pitch": 70, "duration": 3, "velocity": 100}, {"time": 2082, "pitch": 72, "duration": 4, "velocity": 93}, {"time": 2088, "pitch": 75, "duration": 9, "velocity": 94}, {"time": 2100, "pitch": 72, "duration": 3, "velocity": 93}, {"time": 2106, "pitch": 75, "duration": 4, "velocity": 95}, {"time": 2112, "pitch": 75, "duration": 2, "velocity": 97}, {"time": 2115, "pitch": 77, "duration": 41, "velocity": 93}, {"time": 2160, "pitch": 77, "duration": 9, "velocity": 91}, {"time": 2172, "pitch": 72, "duration": 4, "velocity": 94}, {"time": 2178, "pitch": 77, "duration": 3, "velocity": 94}, {"time": 2184, "pitch": 75, "duration": 2, "velocity": 103}, {"time": 2190, "pitch": 72, "duration": 2, "velocity": 91}, {"time": 2193, "pitch": 70, "duration": 1, "velocity": 94}, {"time": 2196, "pitch": 72, "duration": 10, "velocity": 93}, {"time": 2208, "pitch": 80, "duration": 8, "velocity": 93}, {"time": 2220, "pitch": 72, "duration": 4, "velocity": 96}, {"time": 2226, "pitch": 80, "duration": 3, "velocity": 100}, {"time": 2232, "pitch": 77, "duration": 2, "velocity": 96}, {"time": 2235, "pitch": 80, "duration": 2, "velocity": 100}, {"time": 2238, "pitch": 77, "duration": 1, "velocity": 93}, {"time": 2241, "pitch": 75, "duration": 1, "velocity": 100}, {"time": 2244, "pitch": 77, "duration": 9, "velocity": 93}, {"time": 2256, "pitch": 80, "duration": 3, "velocity": 91}, {"time": 2262, "pitch": 80, "duration": 3, "velocity": 94}, {"time": 2268, "pitch": 80, "duration": 3, "velocity": 100}, {"time": 2274, "pitch": 80, "duration": 4, "velocity": 95}, {"time": 2280, "pitch": 82, "duration": 5, "velocity": 93}, {"time": 2286, "pitch": 84, "duration": 3, "velocity": 84}, {"time": 2289, "pitch": 82, "duration": 2, "velocity": 98}, {"time": 2292, "pitch": 80, "duration": 2, "velocity": 106}, {"time": 2298, "pitch": 82, "duration": 3, "velocity": 96}, {"time": 2304, "pitch": 84, "duration": 3, "velocity": 97}, {"time": 2307, "pitch": 82, "duration": 3, "velocity": 97}, {"time": 2310, "pitch": 84, "duration": 33, "velocity": 98}, {"time": 2352, "pitch": 72, "duration": 5, "velocity": 96}, {"time": 2358, "pitch": 80, "duration": 4, "velocity": 94}, {"time": 2364, "pitch": 77, "duration": 5, "velocity": 89}, {"time": 2370, "pitch": 75, "duration": 5, "velocity": 95}, {"time": 2376, "pitch": 75, "duration": 3, "velocity": 97}, {"time": 2379, "pitch": 72, "duration": 16, "velocity": 96}, {"time": 2400, "pitch": 77, "duration": 5, "velocity": 92}, {"time": 2406, "pitch": 84, "duration": 4, "velocity": 95}, {"time": 2412, "pitch": 82, "duration": 4, "velocity": 95}, {"time": 2418, "pitch": 80, "duration": 4, "velocity": 93}, {"time": 2424, "pitch": 80, "duration": 3, "velocity": 97}, {"time": 2427, "pitch": 77, "duration": 17, "velocity": 95}, {"time": 2448, "pitch": 80, "duration": 2, "velocity": 93}, {"time": 2454, "pitch": 80, "duration": 3, "velocity": 94}, {"time": 2460, "pitch": 80, "duration": 3, "velocity": 94}, {"time": 2466, "pitch": 80, "duration": 4, "velocity": 96}, {"time": 2472, "pitch": 82, "duration": 4, "velocity": 93}, {"time": 2478, "pitch": 82, "duration": 3, "velocity": 80}, {"time": 2484, "pitch": 80, "duration": 4, "velocity": 93}, {"time": 2490, "pitch": 82, "duration": 4, "velocity": 93}, {"time": 2496, "pitch": 84, "duration": 3, "velocity": 97}, {"time": 2499, "pitch": 82, "duration": 3, "velocity": 97}, {"time": 2502, "pitch": 84, "duration": 36, "velocity": 93}, {"time": 2538, "pitch": 82, "duration": 3, "velocity": 97}, {"time": 2541, "pitch": 80, "duration": 3, "velocity": 97}, {"time": 2544, "pitch": 82, "duration": 3, "velocity": 100}, {"time": 2550, "pitch": 82, "duration": 14, "velocity": 91}, {"time": 2568, "pitch": 79, "duration": 3, "velocity": 91}, {"time": 2574, "pitch": 79, "duration": 18, "velocity": 98}, {"time": 2598, "pitch": 75, "duration": 9, "velocity": 96}, {"time": 2610, "pitch": 75, "duration": 4, "velocity": 93}, {"time": 2616, "pitch": 75, "duration": 10, "velocity": 96}, {"time": 2628, "pitch": 72, "duration": 5, "velocity": 93}, {"time": 2634, "pitch": 75, "duration": 4, "velocity": 92}, {"time": 2640, "pitch": 77, "duration": 3, "velocity": 97}, {"time": 2643, "pitch": 75, "duration": 3, "velocity": 97}, {"time": 2646, "pitch": 77, "duration": 42, "velocity": 90}, {"time": 3072, "pitch": 77, "duration": 9, "velocity": 91}, {"time": 3084, "pitch": 72, "duration": 4, "velocity": 94}, {"time": 3090, "pitch": 77, "duration": 3, "velocity": 94}, {"time": 3096, "pitch": 75, "duration": 2, "velocity": 103}, {"time": 3102, "pitch": 72, "duration": 2, "velocity": 91}, {"time": 3105, "pitch": 70, "duration": 1, "velocity": 94}, {"time": 3108, "pitch": 72, "duration": 10, "velocity": 93}, {"time": 3120, "pitch": 80, "duration": 8, "velocity": 93}, {"time": 3132, "pitch": 72, "duration": 4, "velocity": 96}, {"time": 3138, "pitch": 80, "duration": 3, "velocity": 100}, {"time": 3144, "pitch": 77, "duration": 2, "velocity": 96}, {"time": 3147, "pitch": 80, "duration": 2, "velocity": 100}, {"time": 3150, "pitch": 77, "duration": 1, "velocity": 93}, {"time": 3153, "pitch": 75, "duration": 1, "velocity": 100}, {"time": 3156, "pitch": 77, "duration": 9, "velocity": 93}, {"time": 3168, "pitch": 80, "duration": 3, "velocity": 91}, {"time": 3174, "pitch": 80, "duration": 3, "velocity": 94}, {"time": 3180, "pitch": 80, "duration": 3, "velocity": 100}, {"time": 3186, "pitch": 80, "duration": 4, "velocity": 95}, {"time": 3192, "pitch": 82, "duration": 5, "velocity": 93}, {"time": 3198, "pitch": 84, "duration": 3, "velocity": 84}, {"time": 3201, "pitch": 82, "duration": 2, "velocity": 98}, {"time": 3204, "pitch": 80, "duration": 2, "velocity": 106}, {"time": 3210, "pitch": 82, "duration": 3, "velocity": 96}, {"time": 3216, "pitch": 84, "duration": 3, "velocity": 97}, {"time": 3219, "pitch": 82, "duration": 3, "velocity": 97}, {"time": 3222, "pitch": 84, "duration": 33, "velocity": 98}, {"time": 3264, "pitch": 72, "duration": 5, "velocity": 96}, {"time": 3270, "pitch": 80, "duration": 4, "velocity": 94}, {"time": 3276, "pitch": 77, "duration": 5, "velocity": 89}, {"time": 3282, "pitch": 75, "duration": 5, "velocity": 95}, {"time": 3288, "pitch": 75, "duration": 3, "velocity": 97}, {"time": 3291, "pitch": 72, "duration": 16, "velocity": 96}, {"time": 3312, "pitch": 77, "duration": 5, "velocity": 92}, {"time": 3318, "pitch": 84, "duration": 4, "velocity": 95}, {"time": 3324, "pitch": 82, "duration": 4, "velocity": 95}, {"time": 3330, "pitch": 80, "duration": 4, "velocity": 93}, {"time": 3336, "pitch": 80, "duration": 3, "velocity": 97}, {"time": 3339, "pitch": 77, "duration": 17, "velocity": 95}, {"time": 3360, "pitch": 80, "duration": 2, "velocity": 93}, {"time": 3366, "pitch": 80, "duration": 3, "velocity": 94}, {"time": 3372, "pitch": 80, "duration": 3, "velocity": 94}, {"time": 3378, "pitch": 80, "duration": 4, "velocity": 96}, {"time": 3384, "pitch": 82, "duration": 4, "velocity": 93}, {"time": 3390, "pitch": 82, "duration": 3, "velocity": 80}, {"time": 3396, "pitch": 80, "duration": 4, "velocity": 93}, {"time": 3402, "pitch": 82, "duration": 4, "velocity": 93}, {"time": 3408, "pitch": 84, "duration": 3, "velocity": 97}, {"time": 3411, "pitch": 82, "duration": 3, "velocity": 97}, {"time": 3414, "pitch": 84, "duration": 38, "velocity": 93}, {"time": 3456, "pitch": 82, "duration": 3, "velocity": 100}, {"time": 3462, "pitch": 82, "duration": 14, "velocity": 91}, {"time": 3480, "pitch": 79, "duration": 3, "velocity": 91}, {"time": 3486, "pitch": 79, "duration": 18, "velocity": 98}, {"time": 3510, "pitch": 75, "duration": 9, "velocity": 96}, {"time": 3522, "pitch": 75, "duration": 4, "velocity": 93}, {"time": 3528, "pitch": 75, "duration": 10, "velocity": 96}, {"time": 3540, "pitch": 72, "duration": 5, "velocity": 93}, {"time": 3546, "pitch": 75, "duration": 4, "velocity": 92}, {"time": 3552, "pitch": 77, "duration": 3, "velocity": 97}, {"time": 3555, "pitch": 75, "duration": 3, "velocity": 97}, {"time": 3558, "pitch": 77, "duration": 42, "velocity": 90}, {"time": 3600, "pitch": 65, "duration": 10, "velocity": 96}, {"time": 3612, "pitch": 72, "duration": 5, "velocity": 92}, {"time": 3618, "pitch": 70, "duration": 4, "velocity": 90}, {"time": 3624, "pitch": 72, "duration": 18, "velocity": 93}, {"time": 3648, "pitch": 77, "duration": 9, "velocity": 91}, {"time": 3660, "pitch": 72, "duration": 5, "velocity": 89}, {"time": 3666, "pitch": 70, "duration": 4, "velocity": 93}, {"time": 3672, "pitch": 72, "duration": 20, "velocity": 93}, {"time": 3704, "pitch": 75, "duration": 11, "velocity": 100}, {"time": 3718, "pitch": 75, "duration": 5, "velocity": 96}, {"time": 3726, "pitch": 75, "duration": 18, "velocity": 100}, {"time": 3744, "pitch": 72, "duration": 7, "velocity": 96}, {"time": 3753, "pitch": 75, "duration": 6, "velocity": 93}, {"time": 3761, "pitch": 77, "duration": 50, "velocity": 89}]}, {"program": 0, "is_drum": false, "name": "PIANO", "notes": [{"time": 0, "pitch": 41, "duration": 8, "velocity": 90}, {"time": 6, "pitch": 60, "duration": 3, "velocity": 91}, {"time": 6, "pitch": 65, "duration": 2, "velocity": 92}, {"time": 12, "pitch": 41, "duration": 7, "velocity": 90}, {"time": 18, "pitch": 60, "duration": 2, "velocity": 92}, {"time": 18, "pitch": 65, "duration": 2, "velocity": 95}, {"time": 24, "pitch": 41, "duration": 8, "velocity": 86}, {"time": 30, "pitch": 60, "duration": 3, "velocity": 91}, {"time": 30, "pitch": 65, "duration": 2, "velocity": 92}, {"time": 36, "pitch": 41, "duration": 8, "velocity": 90}, {"time": 42, "pitch": 60, "duration": 3, "velocity": 91}, {"time": 42, "pitch": 65, "duration": 2, "velocity": 92}, {"time": 48, "pitch": 41, "duration": 7, "velocity": 90}, {"time": 54, "pitch": 60, "duration": 2, "velocity": 92}, {"time": 54, "pitch": 65, "duration": 2, "velocity": 95}, {"time": 60, "pitch": 41, "duration": 8, "velocity": 86}, {"time": 66, "pitch": 60, "duration": 2, "velocity": 93}, {"time": 66, "pitch": 65, "duration": 2, "velocity": 94}, {"time": 72, "pitch": 41, "duration": 8, "velocity": 90}, {"time": 78, "pitch": 60, "duration": 2, "velocity": 93}, {"time": 78, "pitch": 65, "duration": 2, "velocity": 94}, {"time": 84, "pitch": 41, "duration": 8, "velocity": 91}, {"time": 90, "pitch": 60, "duration": 3, "velocity": 93}, {"time": 90, "pitch": 65, "duration": 2, "velocity": 94}, {"time": 96, "pitch": 41, "duration": 7, "velocity": 90}, {"time": 102, "pitch": 53, "duration": 3, "velocity": 91}, {"time": 102, "pitch": 56, "duration": 3, "velocity": 100}, {"time": 102, "pitch": 60, "duration": 3, "velocity": 92}, {"time": 108, "pitch": 41, "duration": 8, "velocity": 85}, {"time": 114, "pitch": 53, "duration": 2, "velocity": 91}, {"time": 114, "pitch": 56, "duration": 2, "velocity": 105}, {"time": 114, "pitch": 60, "duration": 3, "velocity": 90}, {"time": 120, "pitch": 41, "duration": 8, "velocity": 85}, {"time": 126, "pitch": 53, "duration": 2, "velocity": 90}, {"time": 126, "pitch": 56, "duration": 2, "velocity": 98}, {"time": 126, "pitch": 60, "duration": 3, "velocity": 90}, {"time": 132, "pitch": 41, "duration": 8, "velocity": 85}, {"time": 138, "pitch": 53, "duration": 2, "velocity": 90}, {"time": 138, "pitch": 56, "duration": 2, "velocity": 105}, {"time": 138, "pitch": 60, "duration": 3, "velocity": 90}, {"time": 144, "pitch": 41, "duration": 8, "velocity": 87}, {"time": 150, "pitch": 53, "duration": 2, "velocity": 89}, {"time": 150, "pitch": 56, "duration": 2, "velocity": 95}, {"time": 150, "pitch": 60, "duration": 3, "velocity": 90}, {"time": 156, "pitch": 41, "duration": 8, "velocity": 87}, {"time": 162, "pitch": 53, "duration": 2, "velocity": 91}, {"time": 162, "pitch": 56, "duration": 2, "velocity": 98}, {"time": 162, "pitch": 60, "duration": 3, "velocity": 91}, {"time": 168, "pitch": 41, "duration": 7, "velocity": 87}, {"time": 174, "pitch": 53, "duration": 3, "velocity": 90}, {"time": 174, "pitch": 56, "duration": 2, "velocity": 103}, {"time": 174, "pitch": 60, "duration": 4, "velocity": 90}, {"time": 180, "pitch": 41, "duration": 7, "velocity": 89}, {"time": 186, "pitch": 53, "duration": 4, "velocity": 92}, {"time": 186, "pitch": 56, "duration": 3, "velocity": 103}, {"time": 186, "pitch": 60, "duration": 5, "velocity": 91}, {"time": 192, "pitch": 37, "duration": 7, "velocity": 93}, {"time": 198, "pitch": 49, "duration": 4, "velocity": 94}, {"time": 198, "pitch": 56, "duration": 3, "velocity": 89}, {"time": 204, "pitch": 37, "duration": 9, "velocity": 85}, {"time": 210, "pitch": 49, "duration": 3, "velocity": 92}, {"time": 210, "pitch": 56, "duration": 3, "velocity": 91}, {"time": 216, "pitch": 39, "duration": 8, "velocity": 89}, {"time": 222, "pitch": 51, "duration": 3, "velocity": 93}, {"time": 222, "pitch": 55, "duration": 3, "velocity": 94}, {"time": 222, "pitch": 58, "duration": 3, "velocity": 89}, {"time": 228, "pitch": 39, "duration": 8, "velocity": 82}, {"time": 234, "pitch": 51, "duration": 3, "velocity": 93}, {"time": 234, "pitch": 55, "duration": 3, "velocity": 92}, {"time": 234, "pitch": 58, "duration": 4, "velocity": 89}, {"time": 240, "pitch": 41, "duration": 8, "velocity": 91}, {"time": 246, "pitch": 53, "duration": 2, "velocity": 89}, {"time": 246, "pitch": 56, "duration": 2, "velocity": 98}, {"time": 246, "pitch": 60, "duration": 3, "velocity": 91}, {"time": 252, "pitch": 41, "duration": 8, "velocity": 89}, {"time": 258, "pitch": 53, "duration": 4, "velocity": 88}, {"time": 258, "pitch": 56, "duration": 4, "velocity": 94}, {"time": 258, "pitch": 60, "duration": 4, "velocity": 89}, {"time": 264, "pitch": 41, "duration": 10, "velocity": 88}, {"time": 270, "pitch": 53, "duration": 7, "velocity": 90}, {"time": 270, "pitch": 56, "duration": 6, "velocity": 100}, {"time": 270, "pitch": 60, "duration": 6, "velocity": 90}, {"time": 276, "pitch": 41, "duration": 8, "velocity": 90}, {"time": 282, "pitch": 53, "duration": 2, "velocity": 90}, {"time": 282, "pitch": 56, "duration": 2, "velocity": 100}, {"time": 282, "pitch": 60, "duration": 2, "velocity": 90}, {"time": 288, "pitch": 41, "duration": 8, "velocity": 91}, {"time": 294, "pitch": 53, "duration": 4, "velocity": 90}, {"time": 294, "pitch": 56, "duration": 3, "velocity": 105}, {"time": 294, "pitch": 60, "duration": 4, "velocity": 91}, {"time": 300, "pitch": 36, "duration": 8, "velocity": 89}, {"time": 306, "pitch": 53, "duration": 3, "velocity": 90}, {"time": 306, "pitch": 56, "duration": 3, "velocity": 100}, {"time": 306, "pitch": 60, "duration": 3, "velocity": 93}, {"time": 312, "pitch": 41, "duration": 9, "velocity": 91}, {"time": 318, "pitch": 53, "duration": 3, "velocity": 91}, {"time": 318, "pitch": 56, "duration": 3, "velocity": 100}, {"time": 318, "pitch": 60, "duration": 3, "velocity": 91}, {"time": 324, "pitch": 44, "duration": 8, "velocity": 93}, {"time": 330, "pitch": 53, "duration": 3, "velocity": 89}, {"time": 330, "pitch": 56, "duration": 3, "velocity": 95}, {"time": 330, "pitch": 60, "duration": 4, "velocity": 91}, {"time": 336, "pitch": 46, "duration": 8, "velocity": 96}, {"time": 342, "pitch": 53, "duration": 2, "velocity": 90}, {"time": 342, "pitch": 58, "duration": 2, "velocity": 91}, {"time": 342, "pitch": 61, "duration": 2, "velocity": 91}, {"time": 348, "pitch": 41, "duration": 8, "velocity": 91}, {"time": 354, "pitch": 53, "duration": 3, "velocity": 90}, {"time": 354, "pitch": 58, "duration": 3, "velocity": 94}, {"time": 354, "pitch": 61, "duration": 3, "velocity": 94}, {"time": 360, "pitch": 46, "duration": 9, "velocity": 103}, {"time": 366, "pitch": 53, "duration": 3, "velocity": 90}, {"time": 366, "pitch": 58, "duration": 3, "velocity": 94}, {"time": 366, "pitch": 61, "duration": 3, "velocity": 94}, {"time": 372, "pitch": 44, "duration": 8, "velocity": 98}, {"time": 378, "pitch": 53, "duration": 2, "velocity": 90}, {"time": 378, "pitch": 58, "duration": 2, "velocity": 92}, {"time": 378, "pitch": 61, "duration": 3, "velocity": 93}, {"time": 384, "pitch": 48, "duration": 23, "velocity": 98}, {"time": 384, "pitch": 55, "duration": 23, "velocity": 89}, {"time": 384, "pitch": 60, "duration": 23, "velocity": 95}, {"time": 408, "pitch": 48, "duration": 21, "velocity": 95}, {"time": 408, "pitch": 55, "duration": 24, "velocity": 90}, {"time": 408, "pitch": 60, "duration": 23, "velocity": 96}, {"time": 408, "pitch": 63, "duration": 23, "velocity": 91}, {"time": 432, "pitch": 41, "duration": 7, "velocity": 84}, {"time": 438, "pitch": 53, "duration": 3, "velocity": 89}, {"time": 438, "pitch": 56, "duration": 2, "velocity": 96}, {"time": 438, "pitch": 60, "duration": 3, "velocity": 89}, {"time": 444, "pitch": 41, "duration": 7, "velocity": 89}, {"time": 450, "pitch": 53, "duration": 3, "velocity": 91}, {"time": 450, "pitch": 56, "duration": 2, "velocity": 105}, {"time": 450, "pitch": 60, "duration": 3, "velocity": 91}, {"time": 456, "pitch": 41, "duration": 7, "velocity": 90}, {"time": 462, "pitch": 53, "duration": 3, "velocity": 91}, {"time": 462, "pitch": 56, "duration": 2, "velocity": 105}, {"time": 462, "pitch": 60, "duration": 3, "velocity": 90}, {"time": 468, "pitch": 41, "duration": 8, "velocity": 87}, {"time": 474, "pitch": 53, "duration": 3, "velocity": 91}, {"time": 474, "pitch": 56, "duration": 2, "velocity": 106}, {"time": 474, "pitch": 60, "duration": 3, "velocity": 92}, {"time": 480, "pitch": 41, "duration": 20, "velocity": 91}, {"time": 486, "pitch": 53, "duration": 7, "velocity": 89}, {"time": 486, "pitch": 56, "duration": 7, "velocity": 100}, {"time": 486, "pitch": 60, "duration": 7, "velocity": 91}, {"time": 492, "pitch": 48, "duration": 7, "velocity": 80}, {"time": 498, "pitch": 53, "duration": 2, "velocity": 89}, {"time": 498, "pitch": 56, "duration": 2, "velocity": 100}, {"time": 498, "pitch": 60, "duration": 2, "velocity": 94}, {"time": 504, "pitch": 41, "duration": 8, "velocity": 89}, {"time": 510, "pitch": 53, "duration": 3, "velocity": 89}, {"time": 510, "pitch": 56, "duration": 2, "velocity": 96}, {"time": 510, "pitch": 60, "duration": 3, "velocity": 91}, {"time": 516, "pitch": 48, "duration": 9, "velocity": 90}, {"time": 522, "pitch": 53, "duration": 4, "velocity": 88}, {"time": 522, "pitch": 56, "duration": 3, "velocity": 98}, {"time": 522, "pitch": 60, "duration": 4, "velocity": 91}, {"time": 528, "pitch": 41, "duration": 11, "velocity": 91}, {"time": 534, "pitch": 53, "duration": 7, "velocity": 90}, {"time": 534, "pitch": 56, "duration": 6, "velocity": 95}, {"time": 534, "pitch": 60, "duration": 6, "velocity": 90}, {"time": 540, "pitch": 48, "duration": 6, "velocity": 87}, {"time": 546, "pitch": 53, "duration": 2, "velocity": 89}, {"time": 546, "pitch": 56, "duration": 2, "velocity": 96}, {"time": 546, "pitch": 60, "duration": 2, "velocity": 90}, {"time": 552, "pitch": 41, "duration": 10, "velocity": 90}, {"time": 558, "pitch": 53, "duration": 8, "velocity": 90}, {"time": 558, "pitch": 56, "duration": 8, "velocity": 100}, {"time": 558, "pitch": 60, "duration": 8, "velocity": 91}, {"time": 564, "pitch": 48, "duration": 7, "velocity": 89}, {"time": 570, "pitch": 53, "duration": 3, "velocity": 91}, {"time": 570, "pitch": 56, "duration": 3, "velocity": 103}, {"time": 570, "pitch": 60, "duration": 4, "velocity": 92}, {"time": 576, "pitch": 44, "duration": 9, "velocity": 93}, {"time": 582, "pitch": 56, "duration": 8, "velocity": 91}, {"time": 582, "pitch": 60, "duration": 7, "velocity": 89}, {"time": 582, "pitch": 63, "duration": 7, "velocity": 90}, {"time": 588, "pitch": 51, "duration": 7, "velocity": 89}, {"time": 594, "pitch": 56, "duration": 4, "velocity": 90}, {"time": 594, "pitch": 60, "duration": 4, "velocity": 90}, {"time": 594, "pitch": 63, "duration": 4, "velocity": 90}, {"time": 600, "pitch": 46, "duration": 11, "velocity": 93}, {"time": 606, "pitch": 53, "duration": 7, "velocity": 90}, {"time": 606, "pitch": 58, "duration": 6, "velocity": 90}, {"time": 606, "pitch": 61, "duration": 6, "velocity": 90}, {"time": 612, "pitch": 41, "duration": 9, "velocity": 91}, {"time": 618, "pitch": 53, "duration": 4, "velocity": 89}, {"time": 618, "pitch": 58, "duration": 3, "velocity": 92}, {"time": 618, "pitch": 61, "duration": 3, "velocity": 91}, {"time": 624, "pitch": 46, "duration": 12, "velocity": 103}, {"time": 630, "pitch": 53, "duration": 6, "velocity": 90}, {"time": 630, "pitch": 58, "duration": 6, "velocity": 91}, {"time": 630, "pitch": 61, "duration": 6, "velocity": 95}, {"time": 636, "pitch": 41, "duration": 8, "velocity": 90}, {"time": 642, "pitch": 53, "duration": 2, "velocity": 89}, {"time": 642, "pitch": 58, "duration": 2, "velocity": 93}, {"time": 642, "pitch": 61, "duration": 2, "velocity": 95}, {"time": 648, "pitch": 46, "duration": 9, "velocity": 91}, {"time": 654, "pitch": 53, "duration": 8, "velocity": 90}, {"time": 654, "pitch": 58, "duration": 7, "velocity": 96}, {"time": 654, "pitch": 61, "duration": 7, "velocity": 96}, {"time": 660, "pitch": 46, "duration": 8, "velocity": 91}, {"time": 666, "pitch": 53, "duration": 3, "velocity": 90}, {"time": 666, "pitch": 58, "duration": 3, "velocity": 92}, {"time": 666, "pitch": 61, "duration": 3, "velocity": 92}, {"time": 672, "pitch": 41, "duration": 8, "velocity": 91}, {"time": 678, "pitch": 53, "duration": 7, "velocity": 90}, {"time": 678, "pitch": 56, "duration": 7, "velocity": 100}, {"time": 678, "pitch": 60, "duration": 7, "velocity": 90}, {"time": 684, "pitch": 48, "duration": 9, "velocity": 90}, {"time": 690, "pitch": 53, "duration": 3, "velocity": 94}, {"time": 690, "pitch": 56, "duration": 3, "velocity": 100}, {"time": 690, "pitch": 60, "duration": 3, "velocity": 94}, {"time": 696, "pitch": 46, "duration": 10, "velocity": 96}, {"time": 702, "pitch": 53, "duration": 8, "velocity": 90}, {"time": 702, "pitch": 58, "duration": 8, "velocity": 91}, {"time": 702, "pitch": 61, "duration": 8, "velocity": 94}, {"time": 708, "pitch": 46, "duration": 8, "velocity": 90}, {"time": 714, "pitch": 53, "duration": 3, "velocity": 91}, {"time": 714, "pitch": 58, "duration": 3, "velocity": 95}, {"time": 714, "pitch": 61, "duration": 3, "velocity": 95}, {"time": 720, "pitch": 41, "duration": 8, "velocity": 89}, {"time": 726, "pitch": 53, "duration": 3, "velocity": 89}, {"time": 726, "pitch": 56, "duration": 3, "velocity": 100}, {"time": 726, "pitch": 60, "duration": 3, "velocity": 91}, {"time": 732, "pitch": 48, "duration": 9, "velocity": 91}, {"time": 738, "pitch": 53, "duration": 6, "velocity": 92}, {"time": 738, "pitch": 56, "duration": 6, "velocity": 105}, {"time": 738, "pitch": 60, "duration": 6, "velocity": 91}, {"time": 744, "pitch": 41, "duration": 8, "velocity": 93}, {"time": 750, "pitch": 53, "duration": 8, "velocity": 90}, {"time": 750, "pitch": 56, "duration": 8, "velocity": 100}, {"time": 750, "pitch": 60, "duration": 8, "velocity": 92}, {"time": 756, "pitch": 48, "duration": 7, "velocity": 91}, {"time": 762, "pitch": 53, "duration": 3, "velocity": 91}, {"time": 762, "pitch": 56, "duration": 2, "velocity": 96}, {"time": 762, "pitch": 60, "duration": 3, "velocity": 91}, {"time": 768, "pitch": 46, "duration": 11, "velocity": 96}, {"time": 774, "pitch": 53, "duration": 8, "velocity": 89}, {"time": 774, "pitch": 58, "duration": 8, "velocity": 91}, {"time": 774, "pitch": 61, "duration": 8, "velocity": 91}, {"time": 780, "pitch": 41, "duration": 8, "velocity": 92}, {"time": 786, "pitch": 53, "duration": 5, "velocity": 90}, {"time": 786, "pitch": 58, "duration": 4, "velocity": 94}, {"time": 786, "pitch": 61, "duration": 5, "velocity": 94}, {"time": 792, "pitch": 48, "duration": 12, "velocity": 96}, {"time": 798, "pitch": 55, "duration": 9, "velocity": 90}, {"time": 798, "pitch": 60, "duration": 8, "velocity": 91}, {"time": 798, "pitch": 63, "duration": 9, "velocity": 90}, {"time": 804, "pitch": 43, "duration": 9, "velocity": 91}, {"time": 810, "pitch": 55, "duration": 4, "velocity": 91}, {"time": 810, "pitch": 60, "duration": 4, "velocity": 95}, {"time": 810, "pitch": 63, "duration": 4, "velocity": 93}, {"time": 816, "pitch": 41, "duration": 7, "velocity": 93}, {"time": 822, "pitch": 53, "duration": 7, "velocity": 93}, {"time": 822, "pitch": 56, "duration": 7, "velocity": 105}, {"time": 822, "pitch": 60, "duration": 7, "velocity": 93}, {"time": 828, "pitch": 48, "duration": 7, "velocity": 91}, {"time": 834, "pitch": 53, "duration": 3, "velocity": 91}, {"time": 834, "pitch": 56, "duration": 3, "velocity": 105}, {"time": 834, "pitch": 60, "duration": 3, "velocity": 93}, {"time": 840, "pitch": 41, "duration": 8, "velocity": 91}, {"time": 846, "pitch": 53, "duration": 7, "velocity": 89}, {"time": 846, "pitch": 56, "duration": 7, "velocity": 93}, {"time": 846, "pitch": 60, "duration": 7, "velocity": 91}, {"time": 852, "pitch": 48, "duration": 2, "velocity": 90}, {"time": 858, "pitch": 41, "duration": 2, "velocity": 94}, {"time": 858, "pitch": 53, "duration": 2, "velocity": 95}, {"time": 858, "pitch": 56, "duration": 2, "velocity": 100}, {"time": 858, "pitch": 60, "duration": 3, "velocity": 93}, {"time": 864, "pitch": 41, "duration": 10, "velocity": 93}, {"time": 870, "pitch": 53, "duration": 9, "velocity": 87}, {"time": 870, "pitch": 56, "duration": 8, "velocity": 96}, {"time": 870, "pitch": 60, "duration": 8, "velocity": 92}, {"time": 876, "pitch": 48, "duration": 8, "velocity": 93}, {"time": 882, "pitch": 53, "duration": 3, "velocity": 90}, {"time": 882, "pitch": 56, "duration": 4, "velocity": 93}, {"time": 882, "pitch": 60, "duration": 5, "velocity": 91}, {"time": 888, "pitch": 39, "duration": 8, "velocity": 73}, {"time": 894, "pitch": 51, "duration": 6, "velocity": 92}, {"time": 894, "pitch": 55, "duration": 5, "velocity": 94}, {"time": 900, "pitch": 36, "duration": 8, "velocity": 105}, {"time": 906, "pitch": 48, "duration": 4, "velocity": 90}, {"time": 906, "pitch": 51, "duration": 4, "velocity": 89}, {"time": 906, "pitch": 55, "duration": 4, "velocity": 94}, {"time": 912, "pitch": 44, "duration": 10, "velocity": 100}, {"time": 918, "pitch": 56, "duration": 6, "velocity": 89}, {"time": 918, "pitch": 60, "duration": 6, "velocity": 91}, {"time": 918, "pitch": 63, "duration": 6, "velocity": 91}, {"time": 924, "pitch": 51, "duration": 9, "velocity": 89}, {"time": 930, "pitch": 56, "duration": 2, "velocity": 89}, {"time": 930, "pitch": 60, "duration": 4, "velocity": 89}, {"time": 930, "pitch": 63, "duration": 7, "velocity": 91}, {"time": 936, "pitch": 44, "duration": 14, "velocity": 94}, {"time": 942, "pitch": 56, "duration": 8, "velocity": 91}, {"time": 942, "pitch": 60, "duration": 7, "velocity": 90}, {"time": 942, "pitch": 63, "duration": 8, "velocity": 89}, {"time": 948, "pitch": 51, "duration": 8, "velocity": 85}, {"time": 954, "pitch": 56, "duration": 3, "velocity": 90}, {"time": 954, "pitch": 60, "duration": 3, "velocity": 90}, {"time": 954, "pitch": 63, "duration": 3, "velocity": 90}, {"time": 960, "pitch": 44, "duration": 14, "velocity": 98}, {"time": 966, "pitch": 56, "duration": 6, "velocity": 89}, {"time": 966, "pitch": 60, "duration": 5, "velocity": 89}, {"time": 972, "pitch": 51, "duration": 10, "velocity": 96}, {"time": 978, "pitch": 56, "duration": 4, "velocity": 98}, {"time": 978, "pitch": 60, "duration": 1, "velocity": 74}, {"time": 978, "pitch": 63, "duration": 1, "velocity": 78}, {"time": 984, "pitch": 46, "duration": 11, "velocity": 92}, {"time": 990, "pitch": 53, "duration": 8, "velocity": 91}, {"time": 990, "pitch": 58, "duration": 7, "velocity": 92}, {"time": 990, "pitch": 61, "duration": 7, "velocity": 92}, {"time": 996, "pitch": 41, "duration": 9, "velocity": 90}, {"time": 1002, "pitch": 53, "duration": 3, "velocity": 89}, {"time": 1002, "pitch": 58, "duration": 3, "velocity": 95}, {"time": 1002, "pitch": 61, "duration": 4, "velocity": 91}, {"time": 1008, "pitch": 48, "duration": 3, "velocity": 94}, {"time": 1008, "pitch": 55, "duration": 2, "velocity": 90}, {"time": 1008, "pitch": 60, "duration": 2, "velocity": 90}, {"time": 1014, "pitch": 48, "duration": 5, "velocity": 105}, {"time": 1014, "pitch": 55, "duration": 5, "velocity": 95}, {"time": 1014, "pitch": 60, "duration": 4, "velocity": 106}, {"time": 1023, "pitch": 48, "duration": 5, "velocity": 106}, {"time": 1023, "pitch": 55, "duration": 3, "velocity": 91}, {"time": 1023, "pitch": 60, "duration": 3, "velocity": 94}, {"time": 1032, "pitch": 48, "duration": 4, "velocity": 110}, {"time": 1032, "pitch": 55, "duration": 4, "velocity": 90}, {"time": 1032, "pitch": 60, "duration": 3, "velocity": 90}, {"time": 1044, "pitch": 48, "duration": 5, "velocity": 105}, {"time": 1044, "pitch": 55, "duration": 4, "velocity": 90}, {"time": 1044, "pitch": 60, "duration": 4, "velocity": 90}, {"time": 1044, "pitch": 67, "duration": 4, "velocity": 89}, {"time": 1056, "pitch": 41, "duration": 13, "velocity": 94}, {"time": 1062, "pitch": 53, "duration": 7, "velocity": 91}, {"time": 1062, "pitch": 56, "duration": 8, "velocity": 103}, {"time": 1062, "pitch": 60, "duration": 8, "velocity": 90}, {"time": 1068, "pitch": 48, "duration": 9, "velocity": 95}, {"time": 1074, "pitch": 53, "duration": 3, "velocity": 90}, {"time": 1074, "pitch": 56, "duration": 3, "velocity": 100}, {"time": 1074, "pitch": 60, "duration": 4, "velocity": 91}, {"time": 1080, "pitch": 41, "duration": 11, "velocity": 93}, {"time": 1086, "pitch": 53, "duration": 9, "velocity": 94}, {"time": 1086, "pitch": 56, "duration": 9, "velocity": 105}, {"time": 1086, "pitch": 60, "duration": 9, "velocity": 94}, {"time": 1092, "pitch": 48, "duration": 9, "velocity": 105}, {"time": 1098, "pitch": 53, "duration": 1, "velocity": 92}, {"time": 1098, "pitch": 56, "duration": 4, "velocity": 105}, {"time": 1098, "pitch": 60, "duration": 5, "velocity": 93}, {"time": 1101, "pitch": 53, "duration": 3, "velocity": 92}, {"time": 1104, "pitch": 46, "duration": 12, "velocity": 103}, {"time": 1110, "pitch": 53, "duration": 7, "velocity": 91}, {"time": 1110, "pitch": 58, "duration": 7, "velocity": 93}, {"time": 1110, "pitch": 61, "duration": 6, "velocity": 92}, {"time": 1116, "pitch": 41, "duration": 9, "velocity": 91}, {"time": 1122, "pitch": 53, "duration": 4, "velocity": 92}, {"time": 1122, "pitch": 58, "duration": 3, "velocity": 100}, {"time": 1122, "pitch": 61, "duration": 4, "velocity": 98}, {"time": 1128, "pitch": 41, "duration": 8, "velocity": 91}, {"time": 1134, "pitch": 53, "duration": 9, "velocity": 89}, {"time": 1134, "pitch": 56, "duration": 10, "velocity": 96}, {"time": 1134, "pitch": 60, "duration": 9, "velocity": 90}, {"time": 1140, "pitch": 48, "duration": 8, "velocity": 92}, {"time": 1146, "pitch": 53, "duration": 3, "velocity": 91}, {"time": 1146, "pitch": 56, "duration": 3, "velocity": 98}, {"time": 1146, "pitch": 60, "duration": 4, "velocity": 92}, {"time": 1152, "pitch": 44, "duration": 22, "velocity": 93}, {"time": 1158, "pitch": 56, "duration": 9, "velocity": 90}, {"time": 1158, "pitch": 60, "duration": 10, "velocity": 88}, {"time": 1158, "pitch": 63, "duration": 16, "velocity": 90}, {"time": 1164, "pitch": 51, "duration": 8, "velocity": 76}, {"time": 1170, "pitch": 56, "duration": 4, "velocity": 95}, {"time": 1170, "pitch": 60, "duration": 1, "velocity": 82}, {"time": 1176, "pitch": 46, "duration": 20, "velocity": 93}, {"time": 1182, "pitch": 53, "duration": 8, "velocity": 92}, {"time": 1182, "pitch": 58, "duration": 8, "velocity": 95}, {"time": 1182, "pitch": 61, "duration": 8, "velocity": 96}, {"time": 1194, "pitch": 53, "duration": 5, "velocity": 93}, {"time": 1194, "pitch": 58, "duration": 5, "velocity": 100}, {"time": 1194, "pitch": 61, "duration": 5, "velocity": 100}, {"time": 1200, "pitch": 41, "duration": 3, "velocity": 87}, {"time": 1200, "pitch": 60, "duration": 6, "velocity": 93}, {"time": 1200, "pitch": 65, "duration": 7, "velocity": 90}, {"time": 1224, "pitch": 53, "duration": 14, "velocity": 89}, {"time": 1224, "pitch": 60, "duration": 13, "velocity": 83}, {"time": 1224, "pitch": 65, "duration": 5, "velocity": 85}, {"time": 1224, "pitch": 68, "duration": 6, "velocity": 93}, {"time": 1236, "pitch": 65, "duration": 3, "velocity": 85}, {"time": 1236, "pitch": 68, "duration": 4, "velocity": 94}, {"time": 1236, "pitch": 72, "duration": 4, "velocity": 90}, {"time": 1248, "pitch": 46, "duration": 3, "velocity": 98}, {"time": 1248, "pitch": 53, "duration": 3, "velocity": 90}, {"time": 1248, "pitch": 58, "duration": 3, "velocity": 92}, {"time": 1248, "pitch": 61, "duration": 4, "velocity": 92}, {"time": 1254, "pitch": 46, "duration": 15, "velocity": 105}, {"time": 1254, "pitch": 53, "duration": 9, "velocity": 94}, {"time": 1254, "pitch": 58, "duration": 14, "velocity": 103}, {"time": 1254, "pitch": 61, "duration": 15, "velocity": 100}, {"time": 1272, "pitch": 43, "duration": 4, "velocity": 91}, {"time": 1272, "pitch": 55, "duration": 3, "velocity": 88}, {"time": 1272, "pitch": 58, "duration": 3, "velocity": 92}, {"time": 1272, "pitch": 61, "duration": 3, "velocity": 92}, {"time": 1278, "pitch": 43, "duration": 16, "velocity": 91}, {"time": 1278, "pitch": 55, "duration": 15, "velocity": 92}, {"time": 1278, "pitch": 58, "duration": 15, "velocity": 100}, {"time": 1278, "pitch": 61, "duration": 15, "velocity": 98}, {"time": 1302, "pitch": 36, "duration": 5, "velocity": 83}, {"time": 1302, "pitch": 48, "duration": 5, "velocity": 89}, {"time": 1302, "pitch": 60, "duration": 5, "velocity": 93}, {"time": 1302, "pitch": 63, "duration": 5, "velocity": 106}, {"time": 1302, "pitch": 67, "duration": 5, "velocity": 91}, {"time": 1314, "pitch": 36, "duration": 3, "velocity": 84}, {"time": 1314, "pitch": 48, "duration": 3, "velocity": 90}, {"time": 1314, "pitch": 60, "duration": 3, "velocity": 89}, {"time": 1314, "pitch": 63, "duration": 3, "velocity": 93}, {"time": 1314, "pitch": 67, "duration": 3, "velocity": 87}, {"time": 1320, "pitch": 36, "duration": 23, "velocity": 83}, {"time": 1320, "pitch": 48, "duration": 23, "velocity": 89}, {"time": 1320, "pitch": 60, "duration": 23, "velocity": 89}, {"time": 1320, "pitch": 63, "duration": 23, "velocity": 100}, {"time": 1320, "pitch": 67, "duration": 23, "velocity": 89}, {"time": 1344, "pitch": 41, "duration": 8, "velocity": 93}, {"time": 1350, "pitch": 53, "duration": 2, "velocity": 90}, {"time": 1350, "pitch": 56, "duration": 2, "velocity": 103}, {"time": 1350, "pitch": 60, "duration": 3, "velocity": 91}, {"time": 1356, "pitch": 41, "duration": 8, "velocity": 89}, {"time": 1362, "pitch": 53, "duration": 2, "velocity": 92}, {"time": 1362, "pitch": 56, "duration": 2, "velocity": 105}, {"time": 1362, "pitch": 60, "duration": 2, "velocity": 91}, {"time": 1368, "pitch": 41, "duration": 9, "velocity": 85}, {"time": 1374, "pitch": 53, "duration": 6, "velocity": 92}, {"time": 1374, "pitch": 56, "duration": 6, "velocity": 106}, {"time": 1374, "pitch": 60, "duration": 6, "velocity": 91}, {"time": 1380, "pitch": 41, "duration": 8, "velocity": 91}, {"time": 1386, "pitch": 53, "duration": 2, "velocity": 92}, {"time": 1386, "pitch": 56, "duration": 2, "velocity": 105}, {"time": 1386, "pitch": 60, "duration": 2, "velocity": 95}, {"time": 1390, "pitch": 53, "duration": 32, "velocity": 89}, {"time": 1391, "pitch": 41, "duration": 31, "velocity": 94}, {"time": 1391, "pitch": 56, "duration": 32, "velocity": 81}, {"time": 1392, "pitch": 60, "duration": 31, "velocity": 89}, {"time": 1393, "pitch": 65, "duration": 31, "velocity": 81}, {"time": 1437, "pitch": 60, "duration": 31, "velocity": 79}, {"time": 1438, "pitch": 63, "duration": 29, "velocity": 83}, {"time": 1439, "pitch": 36, "duration": 12, "velocity": 90}, {"time": 1439, "pitch": 67, "duration": 28, "velocity": 78}, {"time": 1440, "pitch": 72, "duration": 27, "velocity": 86}, {"time": 1485, "pitch": 53, "duration": 30, "velocity": 80}, {"time": 1486, "pitch": 58, "duration": 30, "velocity": 90}, {"time": 1487, "pitch": 46, "duration": 32, "velocity": 94}, {"time": 1488, "pitch": 61, "duration": 29, "velocity": 91}, {"time": 1532, "pitch": 60, "duration": 16, "velocity": 74}, {"time": 1532, "pitch": 72, "duration": 2, "velocity": 69}, {"time": 1533, "pitch": 65, "duration": 16, "velocity": 74}, {"time": 1534, "pitch": 68, "duration": 15, "velocity": 71}, {"time": 1535, "pitch": 41, "duration": 13, "velocity": 90}, {"time": 1536, "pitch": 72, "duration": 12, "velocity": 90}, {"time": 1584, "pitch": 41, "duration": 8, "velocity": 91}, {"time": 1590, "pitch": 53, "duration": 4, "velocity": 90}, {"time": 1590, "pitch": 56, "duration": 3, "velocity": 105}, {"time": 1590, "pitch": 60, "duration": 4, "velocity": 91}, {"time": 1596, "pitch": 36, "duration": 8, "velocity": 89}, {"time": 1602, "pitch": 53, "duration": 3, "velocity": 90}, {"time": 1602, "pitch": 56, "duration": 3, "velocity": 100}, {"time": 1602, "pitch": 60, "duration": 3, "velocity": 93}, {"time": 1608, "pitch": 41, "duration": 9, "velocity": 91}, {"time": 1614, "pitch": 53, "duration": 3, "velocity": 91}, {"time": 1614, "pitch": 56, "duration": 3, "velocity": 100}, {"time": 1614, "pitch": 60, "duration": 3, "velocity": 91}, {"time": 1620, "pitch": 44, "duration": 8, "velocity": 93}, {"time": 1626, "pitch": 53, "duration": 3, "velocity": 89}, {"time": 1626, "pitch": 56, "duration": 3, "velocity": 95}, {"time": 1626, "pitch": 60, "duration": 4, "velocity": 91}, {"time": 1632, "pitch": 46, "duration": 8, "velocity": 96}, {"time": 1638, "pitch": 53, "duration": 2, "velocity": 90}, {"time": 1638, "pitch": 58, "duration": 2, "velocity": 91}, {"time": 1638, "pitch": 61, "duration": 2, "velocity": 91}, {"time": 1644, "pitch": 41, "duration": 8, "velocity": 91}, {"time": 1650, "pitch": 53, "duration": 3, "velocity": 90}, {"time": 1650, "pitch": 58, "duration": 3, "velocity": 94}, {"time": 1650, "pitch": 61, "duration": 3, "velocity": 94}, {"time": 1656, "pitch": 46, "duration": 9, "velocity": 103}, {"time": 1662, "pitch": 53, "duration": 3, "velocity": 90}, {"time": 1662, "pitch": 58, "duration": 3, "velocity": 94}, {"time": 1662, "pitch": 61, "duration": 3, "velocity": 94}, {"time": 1668, "pitch": 44, "duration": 8, "velocity": 98}, {"time": 1674, "pitch": 53, "duration": 2, "velocity": 90}, {"time": 1674, "pitch": 58, "duration": 2, "velocity": 92}, {"time": 1674, "pitch": 61, "duration": 3, "velocity": 93}, {"time": 1680, "pitch": 48, "duration": 23, "velocity": 98}, {"time": 1680, "pitch": 55, "duration": 23, "velocity": 89}, {"time": 1680, "pitch": 60, "duration": 23, "velocity": 95}, {"time": 1704, "pitch": 48, "duration": 21, "velocity": 95}, {"time": 1704, "pitch": 55, "duration": 24, "velocity": 90}, {"time": 1704, "pitch": 60, "duration": 23, "velocity": 96}, {"time": 1704, "pitch": 63, "duration": 23, "velocity": 91}, {"time": 1728, "pitch": 41, "duration": 7, "velocity": 84}, {"time": 1734, "pitch": 53, "duration": 3, "velocity": 89}, {"time": 1734, "pitch": 56, "duration": 2, "velocity": 96}, {"time": 1734, "pitch": 60, "duration": 3, "velocity": 89}, {"time": 1740, "pitch": 41, "duration": 7, "velocity": 89}, {"time": 1746, "pitch": 53, "duration": 3, "velocity": 91}, {"time": 1746, "pitch": 56, "duration": 2, "velocity": 105}, {"time": 1746, "pitch": 60, "duration": 3, "velocity": 91}, {"time": 1752, "pitch": 41, "duration": 7, "velocity": 90}, {"time": 1758, "pitch": 53, "duration": 3, "velocity": 91}, {"time": 1758, "pitch": 56, "duration": 2, "velocity": 105}, {"time": 1758, "pitch": 60, "duration": 3, "velocity": 90}, {"time": 1764, "pitch": 41, "duration": 8, "velocity": 87}, {"time": 1770, "pitch": 53, "duration": 3, "velocity": 91}, {"time": 1770, "pitch": 56, "duration": 2, "velocity": 106}, {"time": 1770, "pitch": 60, "duration": 3, "velocity": 92}, {"time": 1776, "pitch": 41, "duration": 20, "velocity": 91}, {"time": 1782, "pitch": 53, "duration": 7, "velocity": 89}, {"time": 1782, "pitch": 56, "duration": 7, "velocity": 100}, {"time": 1782, "pitch": 60, "duration": 7, "velocity": 91}, {"time": 1788, "pitch": 48, "duration": 7, "velocity": 80}, {"time": 1794, "pitch": 53, "duration": 2, "velocity": 89}, {"time": 1794, "pitch": 56, "duration": 2, "velocity": 100}, {"time": 1794, "pitch": 60, "duration": 2, "velocity": 94}, {"time": 1800, "pitch": 41, "duration": 8, "velocity": 89}, {"time": 1806, "pitch": 53, "duration": 3, "velocity": 89}, {"time": 1806, "pitch": 56, "duration": 2, "velocity": 96}, {"time": 1806, "pitch": 60, "duration": 3, "velocity": 91}, {"time": 1812, "pitch": 48, "duration": 9, "velocity": 90}, {"time": 1818, "pitch": 53, "duration": 4, "velocity": 88}, {"time": 1818, "pitch": 56, "duration": 3, "velocity": 98}, {"time": 1818, "pitch": 60, "duration": 4, "velocity": 91}, {"time": 1824, "pitch": 41, "duration": 11, "velocity": 91}, {"time": 1830, "pitch": 53, "duration": 7, "velocity": 90}, {"time": 1830, "pitch": 56, "duration": 6, "velocity": 95}, {"time": 1830, "pitch": 60, "duration": 6, "velocity": 90}, {"time": 1836, "pitch": 48, "duration": 6, "velocity": 87}, {"time": 1842, "pitch": 53, "duration": 2, "velocity": 89}, {"time": 1842, "pitch": 56, "duration": 2, "velocity": 96}, {"time": 1842, "pitch": 60, "duration": 2, "velocity": 90}, {"time": 1848, "pitch": 41, "duration": 10, "velocity": 90}, {"time": 1854, "pitch": 53, "duration": 8, "velocity": 90}, {"time": 1854, "pitch": 56, "duration": 8, "velocity": 100}, {"time": 1854, "pitch": 60, "duration": 8, "velocity": 91}, {"time": 1860, "pitch": 48, "duration": 7, "velocity": 89}, {"time": 1866, "pitch": 53, "duration": 3, "velocity": 91}, {"time": 1866, "pitch": 56, "duration": 3, "velocity": 103}, {"time": 1866, "pitch": 60, "duration": 4, "velocity": 92}, {"time": 1872, "pitch": 44, "duration": 9, "velocity": 93}, {"time": 1878, "pitch": 56, "duration": 8, "velocity": 91}, {"time": 1878, "pitch": 60, "duration": 7, "velocity": 89}, {"time": 1878, "pitch": 63, "duration": 7, "velocity": 90}, {"time": 1884, "pitch": 51, "duration": 7, "velocity": 89}, {"time": 1890, "pitch": 56, "duration": 4, "velocity": 90}, {"time": 1890, "pitch": 60, "duration": 4, "velocity": 90}, {"time": 1890, "pitch": 63, "duration": 4, "velocity": 90}, {"time": 1896, "pitch": 46, "duration": 11, "velocity": 93}, {"time": 1902, "pitch": 53, "duration": 7, "velocity": 90}, {"time": 1902, "pitch": 58, "duration": 6, "velocity": 90}, {"time": 1902, "pitch": 61, "duration": 6, "velocity": 90}, {"time": 1908, "pitch": 41, "duration": 9, "velocity": 91}, {"time": 1914, "pitch": 53, "duration": 4, "velocity": 89}, {"time": 1914, "pitch": 58, "duration": 3, "velocity": 92}, {"time": 1914, "pitch": 61, "duration": 3, "velocity": 91}, {"time": 1920, "pitch": 46, "duration": 12, "velocity": 103}, {"time": 1926, "pitch": 53, "duration": 6, "velocity": 90}, {"time": 1926, "pitch": 58, "duration": 6, "velocity": 91}, {"time": 1926, "pitch": 61, "duration": 6, "velocity": 95}, {"time": 1932, "pitch": 41, "duration": 8, "velocity": 90}, {"time": 1938, "pitch": 53, "duration": 2, "velocity": 89}, {"time": 1938, "pitch": 58, "duration": 2, "velocity": 93}, {"time": 1938, "pitch": 61, "duration": 2, "velocity": 95}, {"time": 1944, "pitch": 46, "duration": 9, "velocity": 91}, {"time": 1950, "pitch": 53, "duration": 8, "velocity": 90}, {"time": 1950, "pitch": 58, "duration": 7, "velocity": 96}, {"time": 1950, "pitch": 61, "duration": 7, "velocity": 96}, {"time": 1956, "pitch": 46, "duration": 8, "velocity": 91}, {"time": 1962, "pitch": 53, "duration": 3, "velocity": 90}, {"time": 1962, "pitch": 58, "duration": 3, "velocity": 92}, {"time": 1962, "pitch": 61, "duration": 3, "velocity": 92}, {"time": 1968, "pitch": 41, "duration": 8, "velocity": 91}, {"time": 1974, "pitch": 53, "duration": 7, "velocity": 90}, {"time": 1974, "pitch": 56, "duration": 7, "velocity": 100}, {"time": 1974, "pitch": 60, "duration": 7, "velocity": 90}, {"time": 1980, "pitch": 48, "duration": 9, "velocity": 90}, {"time": 1986, "pitch": 53, "duration": 3, "velocity": 94}, {"time": 1986, "pitch": 56, "duration": 3, "velocity": 100}, {"time": 1986, "pitch": 60, "duration": 3, "velocity": 94}, {"time": 1992, "pitch": 46, "duration": 10, "velocity": 96}, {"time": 1998, "pitch": 53, "duration": 8, "velocity": 90}, {"time": 1998, "pitch": 58, "duration": 8, "velocity": 91}, {"time": 1998, "pitch": 61, "duration": 8, "velocity": 94}, {"time": 2004, "pitch": 46, "duration": 8, "velocity": 90}, {"time": 2010, "pitch": 53, "duration": 3, "velocity": 91}, {"time": 2010, "pitch": 58, "duration": 3, "velocity": 95}, {"time": 2010, "pitch": 61, "duration": 3, "velocity": 95}, {"time": 2016, "pitch": 41, "duration": 8, "velocity": 89}, {"time": 2022, "pitch": 53, "duration": 3, "velocity": 89}, {"time": 2022, "pitch": 56, "duration": 3, "velocity": 100}, {"time": 2022, "pitch": 60, "duration": 3, "velocity": 91}, {"time": 2028, "pitch": 48, "duration": 9, "velocity": 91}, {"time": 2034, "pitch": 53, "duration": 6, "velocity": 92}, {"time": 2034, "pitch": 56, "duration": 6, "velocity": 105}, {"time": 2034, "pitch": 60, "duration": 6, "velocity": 91}, {"time": 2040, "pitch": 41, "duration": 8, "velocity": 93}, {"time": 2046, "pitch": 53, "duration": 8, "velocity": 90}, {"time": 2046, "pitch": 56, "duration": 8, "velocity": 100}, {"time": 2046, "pitch": 60, "duration": 8, "velocity": 92}, {"time": 2052, "pitch": 48, "duration": 7, "velocity": 91}, {"time": 2058, "pitch": 53, "duration": 3, "velocity": 91}, {"time": 2058, "pitch": 56, "duration": 2, "velocity": 96}, {"time": 2058, "pitch": 60, "duration": 3, "velocity": 91}, {"time": 2064, "pitch": 46, "duration": 11, "velocity": 96}, {"time": 2070, "pitch": 53, "duration": 8, "velocity": 89}, {"time": 2070, "pitch": 58, "duration": 8, "velocity": 91}, {"time": 2070, "pitch": 61, "duration": 8, "velocity": 91}, {"time": 2076, "pitch": 41, "duration": 8, "velocity": 92}, {"time": 2082, "pitch": 53, "duration": 5, "velocity": 90}, {"time": 2082, "pitch": 58, "duration": 4, "velocity": 94}, {"time": 2082, "pitch": 61, "duration": 5, "velocity": 94}, {"time": 2088, "pitch": 48, "duration": 12, "velocity": 96}, {"time": 2094, "pitch": 55, "duration": 9, "velocity": 90}, {"time": 2094, "pitch": 60, "duration": 8, "velocity": 91}, {"time": 2094, "pitch": 63, "duration": 9, "velocity": 90}, {"time": 2100, "pitch": 43, "duration": 9, "velocity": 91}, {"time": 2106, "pitch": 55, "duration": 4, "velocity": 91}, {"time": 2106, "pitch": 60, "duration": 4, "velocity": 95}, {"time": 2106, "pitch": 63, "duration": 4, "velocity": 93}, {"time": 2112, "pitch": 41, "duration": 7, "velocity": 93}, {"time": 2118, "pitch": 53, "duration": 7, "velocity": 93}, {"time": 2118, "pitch": 56, "duration": 7, "velocity": 105}, {"time": 2118, "pitch": 60, "duration": 7, "velocity": 93}, {"time": 2124, "pitch": 48, "duration": 7, "velocity": 91}, {"time": 2130, "pitch": 53, "duration": 3, "velocity": 91}, {"time": 2130, "pitch": 56, "duration": 3, "velocity": 105}, {"time": 2130, "pitch": 60, "duration": 3, "velocity": 93}, {"time": 2136, "pitch": 41, "duration": 8, "velocity": 91}, {"time": 2142, "pitch": 53, "duration": 7, "velocity": 89}, {"time": 2142, "pitch": 56, "duration": 7, "velocity": 93}, {"time": 2142, "pitch": 60, "duration": 7, "velocity": 91}, {"time": 2148, "pitch": 48, "duration": 2, "velocity": 90}, {"time": 2154, "pitch": 41, "duration": 2, "velocity": 94}, {"time": 2154, "pitch": 53, "duration": 2, "velocity": 95}, {"time": 2154, "pitch": 56, "duration": 2, "velocity": 100}, {"time": 2154, "pitch": 60, "duration": 3, "velocity": 93}, {"time": 2160, "pitch": 41, "duration": 10, "velocity": 93}, {"time": 2166, "pitch": 53, "duration": 9, "velocity": 87}, {"time": 2166, "pitch": 56, "duration": 8, "velocity": 96}, {"time": 2166, "pitch": 60, "duration": 8, "velocity": 92}, {"time": 2172, "pitch": 48, "duration": 8, "velocity": 93}, {"time": 2178, "pitch": 53, "duration": 3, "velocity": 90}, {"time": 2178, "pitch": 56, "duration": 4, "velocity": 93}, {"time": 2178, "pitch": 60, "duration": 5, "velocity": 91}, {"time": 2184, "pitch": 39, "duration": 8, "velocity": 73}, {"time": 2190, "pitch": 51, "duration": 6, "velocity": 92}, {"time": 2190, "pitch": 55, "duration": 5, "velocity": 94}, {"time": 2196, "pitch": 36, "duration": 8, "velocity": 105}, {"time": 2202, "pitch": 48, "duration": 4, "velocity": 90}, {"time": 2202, "pitch": 51, "duration": 4, "velocity": 89}, {"time": 2202, "pitch": 55, "duration": 4, "velocity": 94}, {"time": 2208, "pitch": 44, "duration": 10, "velocity": 100}, {"time": 2214, "pitch": 56, "duration": 6, "velocity": 89}, {"time": 2214, "pitch": 60, "duration": 6, "velocity": 91}, {"time": 2214, "pitch": 63, "duration": 6, "velocity": 91}, {"time": 2220, "pitch": 51, "duration": 9, "velocity": 89}, {"time": 2226, "pitch": 56, "duration": 2, "velocity": 89}, {"time": 2226, "pitch": 60, "duration": 4, "velocity": 89}, {"time": 2226, "pitch": 63, "duration": 7, "velocity": 91}, {"time": 2232, "pitch": 44, "duration": 14, "velocity": 94}, {"time": 2238, "pitch": 56, "duration": 8, "velocity": 91}, {"time": 2238, "pitch": 60, "duration": 7, "velocity": 90}, {"time": 2238, "pitch": 63, "duration": 8, "velocity": 89}, {"time": 2244, "pitch": 51, "duration": 8, "velocity": 85}, {"time": 2250, "pitch": 56, "duration": 3, "velocity": 90}, {"time": 2250, "pitch": 60, "duration": 3, "velocity": 90}, {"time": 2250, "pitch": 63, "duration": 3, "velocity": 90}, {"time": 2256, "pitch": 44, "duration": 14, "velocity": 98}, {"time": 2262, "pitch": 56, "duration": 6, "velocity": 89}, {"time": 2262, "pitch": 60, "duration": 5, "velocity": 89}, {"time": 2268, "pitch": 51, "duration": 10, "velocity": 96}, {"time": 2274, "pitch": 56, "duration": 4, "velocity": 98}, {"time": 2274, "pitch": 60, "duration": 1, "velocity": 74}, {"time": 2274, "pitch": 63, "duration": 1, "velocity": 78}, {"time": 2280, "pitch": 46, "duration": 11, "velocity": 92}, {"time": 2286, "pitch": 53, "duration": 8, "velocity": 91}, {"time": 2286, "pitch": 58, "duration": 7, "velocity": 92}, {"time": 2286, "pitch": 61, "duration": 7, "velocity": 92}, {"time": 2292, "pitch": 41, "duration": 9, "velocity": 90}, {"time": 2298, "pitch": 53, "duration": 3, "velocity": 89}, {"time": 2298, "pitch": 58, "duration": 3, "velocity": 95}, {"time": 2298, "pitch": 61, "duration": 4, "velocity": 91}, {"time": 2304, "pitch": 48, "duration": 3, "velocity": 94}, {"time": 2304, "pitch": 55, "duration": 2, "velocity": 90}, {"time": 2304, "pitch": 60, "duration": 2, "velocity": 90}, {"time": 2310, "pitch": 48, "duration": 5, "velocity": 105}, {"time": 2310, "pitch": 55, "duration": 5, "velocity": 95}, {"time": 2310, "pitch": 60, "duration": 4, "velocity": 106}, {"time": 2319, "pitch": 48, "duration": 5, "velocity": 106}, {"time": 2319, "pitch": 55, "duration": 3, "velocity": 91}, {"time": 2319, "pitch": 60, "duration": 3, "velocity": 94}, {"time": 2328, "pitch": 48, "duration": 4, "velocity": 110}, {"time": 2328, "pitch": 55, "duration": 4, "velocity": 90}, {"time": 2328, "pitch": 60, "duration": 3, "velocity": 90}, {"time": 2340, "pitch": 48, "duration": 5, "velocity": 105}, {"time": 2340, "pitch": 55, "duration": 4, "velocity": 90}, {"time": 2340, "pitch": 60, "duration": 4, "velocity": 90}, {"time": 2340, "pitch": 67, "duration": 4, "velocity": 89}, {"time": 2352, "pitch": 41, "duration": 13, "velocity": 94}, {"time": 2358, "pitch": 53, "duration": 7, "velocity": 91}, {"time": 2358, "pitch": 56, "duration": 8, "velocity": 103}, {"time": 2358, "pitch": 60, "duration": 8, "velocity": 90}, {"time": 2364, "pitch": 48, "duration": 9, "velocity": 95}, {"time": 2370, "pitch": 53, "duration": 3, "velocity": 90}, {"time": 2370, "pitch": 56, "duration": 3, "velocity": 100}, {"time": 2370, "pitch": 60, "duration": 4, "velocity": 91}, {"time": 2376, "pitch": 41, "duration": 11, "velocity": 93}, {"time": 2382, "pitch": 53, "duration": 9, "velocity": 94}, {"time": 2382, "pitch": 56, "duration": 9, "velocity": 105}, {"time": 2382, "pitch": 60, "duration": 9, "velocity": 94}, {"time": 2388, "pitch": 48, "duration": 9, "velocity": 105}, {"time": 2394, "pitch": 53, "duration": 1, "velocity": 92}, {"time": 2394, "pitch": 56, "duration": 4, "velocity": 105}, {"time": 2394, "pitch": 60, "duration": 5, "velocity": 93}, {"time": 2397, "pitch": 53, "duration": 3, "velocity": 92}, {"time": 2400, "pitch": 46, "duration": 12, "velocity": 103}, {"time": 2406, "pitch": 53, "duration": 7, "velocity": 91}, {"time": 2406, "pitch": 58, "duration": 7, "velocity": 93}, {"time": 2406, "pitch": 61, "duration": 6, "velocity": 92}, {"time": 2412, "pitch": 41, "duration": 9, "velocity": 91}, {"time": 2418, "pitch": 53, "duration": 4, "velocity": 92}, {"time": 2418, "pitch": 58, "duration": 3, "velocity": 100}, {"time": 2418, "pitch": 61, "duration": 4, "velocity": 98}, {"time": 2424, "pitch": 41, "duration": 8, "velocity": 91}, {"time": 2430, "pitch": 53, "duration": 9, "velocity": 89}, {"time": 2430, "pitch": 56, "duration": 10, "velocity": 96}, {"time": 2430, "pitch": 60, "duration": 9, "velocity": 90}, {"time": 2436, "pitch": 48, "duration": 8, "velocity": 92}, {"time": 2442, "pitch": 53, "duration": 3, "velocity": 91}, {"time": 2442, "pitch": 56, "duration": 3, "velocity": 98}, {"time": 2442, "pitch": 60, "duration": 4, "velocity": 92}, {"time": 2448, "pitch": 44, "duration": 22, "velocity": 93}, {"time": 2454, "pitch": 56, "duration": 9, "velocity": 90}, {"time": 2454, "pitch": 60, "duration": 10, "velocity": 88}, {"time": 2454, "pitch": 63, "duration": 16, "velocity": 90}, {"time": 2460, "pitch": 51, "duration": 8, "velocity": 76}, {"time": 2466, "pitch": 56, "duration": 4, "velocity": 95}, {"time": 2466, "pitch": 60, "duration": 1, "velocity": 82}, {"time": 2472, "pitch": 46, "duration": 20, "velocity": 93}, {"time": 2478, "pitch": 53, "duration": 8, "velocity": 92}, {"time": 2478, "pitch": 58, "duration": 8, "velocity": 95}, {"time": 2478, "pitch": 61, "duration": 8, "velocity": 96}, {"time": 2490, "pitch": 53, "duration": 5, "velocity": 93}, {"time": 2490, "pitch": 58, "duration": 5, "velocity": 100}, {"time": 2490, "pitch": 61, "duration": 5, "velocity": 100}, {"time": 2496, "pitch": 41, "duration": 3, "velocity": 87}, {"time": 2496, "pitch": 60, "duration": 6, "velocity": 93}, {"time": 2496, "pitch": 65, "duration": 7, "velocity": 90}, {"time": 2520, "pitch": 53, "duration": 14, "velocity": 89}, {"time": 2520, "pitch": 60, "duration": 13, "velocity": 83}, {"time": 2520, "pitch": 65, "duration": 5, "velocity": 85}, {"time": 2520, "pitch": 68, "duration": 6, "velocity": 93}, {"time": 2532, "pitch": 65, "duration": 3, "velocity": 85}, {"time": 2532, "pitch": 68, "duration": 4, "velocity": 94}, {"time": 2532, "pitch": 72, "duration": 4, "velocity": 90}, {"time": 2544, "pitch": 46, "duration": 3, "velocity": 98}, {"time": 2544, "pitch": 53, "duration": 3, "velocity": 90}, {"time": 2544, "pitch": 58, "duration": 3, "velocity": 92}, {"time": 2544, "pitch": 61, "duration": 4, "velocity": 92}, {"time": 2550, "pitch": 46, "duration": 15, "velocity": 105}, {"time": 2550, "pitch": 53, "duration": 9, "velocity": 94}, {"time": 2550, "pitch": 58, "duration": 14, "velocity": 103}, {"time": 2550, "pitch": 61, "duration": 15, "velocity": 100}, {"time": 2568, "pitch": 43, "duration": 4, "velocity": 91}, {"time": 2568, "pitch": 55, "duration": 3, "velocity": 88}, {"time": 2568, "pitch": 58, "duration": 3, "velocity": 92}, {"time": 2568, "pitch": 61, "duration": 3, "velocity": 92}, {"time": 2574, "pitch": 43, "duration": 16, "velocity": 91}, {"time": 2574, "pitch": 55, "duration": 15, "velocity": 92}, {"time": 2574, "pitch": 58, "duration": 15, "velocity": 100}, {"time": 2574, "pitch": 61, "duration": 15, "velocity": 98}, {"time": 2598, "pitch": 36, "duration": 5, "velocity": 83}, {"time": 2598, "pitch": 48, "duration": 5, "velocity": 89}, {"time": 2598, "pitch": 60, "duration": 5, "velocity": 93}, {"time": 2598, "pitch": 63, "duration": 5, "velocity": 106}, {"time": 2598, "pitch": 67, "duration": 5, "velocity": 91}, {"time": 2610, "pitch": 36, "duration": 3, "velocity": 84}, {"time": 2610, "pitch": 48, "duration": 3, "velocity": 90}, {"time": 2610, "pitch": 60, "duration": 3, "velocity": 89}, {"time": 2610, "pitch": 63, "duration": 3, "velocity": 93}, {"time": 2610, "pitch": 67, "duration": 3, "velocity": 87}, {"time": 2616, "pitch": 36, "duration": 23, "velocity": 83}, {"time": 2616, "pitch": 48, "duration": 23, "velocity": 89}, {"time": 2616, "pitch": 60, "duration": 23, "velocity": 89}, {"time": 2616, "pitch": 63, "duration": 23, "velocity": 100}, {"time": 2616, "pitch": 67, "duration": 23, "velocity": 89}, {"time": 2640, "pitch": 41, "duration": 8, "velocity": 93}, {"time": 2646, "pitch": 53, "duration": 2, "velocity": 90}, {"time": 2646, "pitch": 56, "duration": 2, "velocity": 103}, {"time": 2646, "pitch": 60, "duration": 3, "velocity": 91}, {"time": 2652, "pitch": 41, "duration": 8, "velocity": 89}, {"time": 2658, "pitch": 53, "duration": 2, "velocity": 92}, {"time": 2658, "pitch": 56, "duration": 2, "velocity": 105}, {"time": 2658, "pitch": 60, "duration": 2, "velocity": 91}, {"time": 2664, "pitch": 41, "duration": 9, "velocity": 85}, {"time": 2670, "pitch": 53, "duration": 6, "velocity": 92}, {"time": 2670, "pitch": 56, "duration": 6, "velocity": 106}, {"time": 2670, "pitch": 60, "duration": 6, "velocity": 91}, {"time": 2676, "pitch": 41, "duration": 8, "velocity": 91}, {"time": 2682, "pitch": 53, "duration": 2, "velocity": 92}, {"time": 2682, "pitch": 56, "duration": 2, "velocity": 105}, {"time": 2682, "pitch": 60, "duration": 2, "velocity": 95}, {"time": 2688, "pitch": 41, "duration": 20, "velocity": 91}, {"time": 2694, "pitch": 53, "duration": 7, "velocity": 89}, {"time": 2694, "pitch": 56, "duration": 7, "velocity": 100}, {"time": 2694, "pitch": 60, "duration": 7, "velocity": 91}, {"time": 2700, "pitch": 48, "duration": 7, "velocity": 80}, {"time": 2706, "pitch": 53, "duration": 2, "velocity": 89}, {"time": 2706, "pitch": 56, "duration": 2, "velocity": 100}, {"time": 2706, "pitch": 60, "duration": 2, "velocity": 94}, {"time": 2712, "pitch": 41, "duration": 8, "velocity": 89}, {"time": 2718, "pitch": 53, "duration": 3, "velocity": 89}, {"time": 2718, "pitch": 56, "duration": 2, "velocity": 96}, {"time": 2718, "pitch": 60, "duration": 3, "velocity": 91}, {"time": 2724, "pitch": 48, "duration": 9, "velocity": 90}, {"time": 2730, "pitch": 53, "duration": 4, "velocity": 88}, {"time": 2730, "pitch": 56, "duration": 3, "velocity": 98}, {"time": 2730, "pitch": 60, "duration": 4, "velocity": 91}, {"time": 2736, "pitch": 41, "duration": 11, "velocity": 91}, {"time": 2742, "pitch": 53, "duration": 7, "velocity": 90}, {"time": 2742, "pitch": 56, "duration": 6, "velocity": 95}, {"time": 2742, "pitch": 60, "duration": 6, "velocity": 90}, {"time": 2748, "pitch": 48, "duration": 6, "velocity": 87}, {"time": 2754, "pitch": 53, "duration": 2, "velocity": 89}, {"time": 2754, "pitch": 56, "duration": 2, "velocity": 96}, {"time": 2754, "pitch": 60, "duration": 2, "velocity": 90}, {"time": 2760, "pitch": 41, "duration": 10, "velocity": 90}, {"time": 2766, "pitch": 53, "duration": 8, "velocity": 90}, {"time": 2766, "pitch": 56, "duration": 8, "velocity": 100}, {"time": 2766, "pitch": 60, "duration": 8, "velocity": 91}, {"time": 2772, "pitch": 48, "duration": 7, "velocity": 89}, {"time": 2778, "pitch": 53, "duration": 3, "velocity": 91}, {"time": 2778, "pitch": 56, "duration": 3, "velocity": 103}, {"time": 2778, "pitch": 60, "duration": 4, "velocity": 92}, {"time": 2784, "pitch": 44, "duration": 9, "velocity": 93}, {"time": 2790, "pitch": 56, "duration": 8, "velocity": 91}, {"time": 2790, "pitch": 60, "duration": 7, "velocity": 89}, {"time": 2790, "pitch": 63, "duration": 7, "velocity": 90}, {"time": 2796, "pitch": 51, "duration": 7, "velocity": 89}, {"time": 2802, "pitch": 56, "duration": 4, "velocity": 90}, {"time": 2802, "pitch": 60, "duration": 4, "velocity": 90}, {"time": 2802, "pitch": 63, "duration": 4, "velocity": 90}, {"time": 2808, "pitch": 46, "duration": 11, "velocity": 93}, {"time": 2814, "pitch": 53, "duration": 7, "velocity": 90}, {"time": 2814, "pitch": 58, "duration": 6, "velocity": 90}, {"time": 2814, "pitch": 61, "duration": 6, "velocity": 90}, {"time": 2820, "pitch": 41, "duration": 9, "velocity": 91}, {"time": 2826, "pitch": 53, "duration": 4, "velocity": 89}, {"time": 2826, "pitch": 58, "duration": 3, "velocity": 92}, {"time": 2826, "pitch": 61, "duration": 3, "velocity": 91}, {"time": 2832, "pitch": 46, "duration": 12, "velocity": 103}, {"time": 2838, "pitch": 53, "duration": 6, "velocity": 90}, {"time": 2838, "pitch": 58, "duration": 6, "velocity": 91}, {"time": 2838, "pitch": 61, "duration": 6, "velocity": 95}, {"time": 2844, "pitch": 41, "duration": 8, "velocity": 90}, {"time": 2850, "pitch": 53, "duration": 2, "velocity": 89}, {"time": 2850, "pitch": 58, "duration": 2, "velocity": 93}, {"time": 2850, "pitch": 61, "duration": 2, "velocity": 95}, {"time": 2856, "pitch": 46, "duration": 9, "velocity": 91}, {"time": 2862, "pitch": 53, "duration": 8, "velocity": 90}, {"time": 2862, "pitch": 58, "duration": 7, "velocity": 96}, {"time": 2862, "pitch": 61, "duration": 7, "velocity": 96}, {"time": 2868, "pitch": 46, "duration": 8, "velocity": 91}, {"time": 2874, "pitch": 53, "duration": 3, "velocity": 90}, {"time": 2874, "pitch": 58, "duration": 3, "velocity": 92}, {"time": 2874, "pitch": 61, "duration": 3, "velocity": 92}, {"time": 2880, "pitch": 41, "duration": 8, "velocity": 91}, {"time": 2886, "pitch": 53, "duration": 7, "velocity": 90}, {"time": 2886, "pitch": 56, "duration": 7, "velocity": 100}, {"time": 2886, "pitch": 60, "duration": 7, "velocity": 90}, {"time": 2892, "pitch": 48, "duration": 9, "velocity": 90}, {"time": 2898, "pitch": 53, "duration": 3, "velocity": 94}, {"time": 2898, "pitch": 56, "duration": 3, "velocity": 100}, {"time": 2898, "pitch": 60, "duration": 3, "velocity": 94}, {"time": 2904, "pitch": 46, "duration": 10, "velocity": 96}, {"time": 2910, "pitch": 53, "duration": 8, "velocity": 90}, {"time": 2910, "pitch": 58, "duration": 8, "velocity": 91}, {"time": 2910, "pitch": 61, "duration": 8, "velocity": 94}, {"time": 2916, "pitch": 46, "duration": 8, "velocity": 90}, {"time": 2922, "pitch": 53, "duration": 3, "velocity": 91}, {"time": 2922, "pitch": 58, "duration": 3, "velocity": 95}, {"time": 2922, "pitch": 61, "duration": 3, "velocity": 95}, {"time": 2928, "pitch": 41, "duration": 8, "velocity": 89}, {"time": 2934, "pitch": 53, "duration": 3, "velocity": 89}, {"time": 2934, "pitch": 56, "duration": 3, "velocity": 100}, {"time": 2934, "pitch": 60, "duration": 3, "velocity": 91}, {"time": 2940, "pitch": 48, "duration": 9, "velocity": 91}, {"time": 2946, "pitch": 53, "duration": 6, "velocity": 92}, {"time": 2946, "pitch": 56, "duration": 6, "velocity": 105}, {"time": 2946, "pitch": 60, "duration": 6, "velocity": 91}, {"time": 2952, "pitch": 41, "duration": 8, "velocity": 93}, {"time": 2958, "pitch": 53, "duration": 8, "velocity": 90}, {"time": 2958, "pitch": 56, "duration": 8, "velocity": 100}, {"time": 2958, "pitch": 60, "duration": 8, "velocity": 92}, {"time": 2964, "pitch": 48, "duration": 7, "velocity": 91}, {"time": 2970, "pitch": 53, "duration": 3, "velocity": 91}, {"time": 2970, "pitch": 56, "duration": 2, "velocity": 96}, {"time": 2970, "pitch": 60, "duration": 3, "velocity": 91}, {"time": 2976, "pitch": 46, "duration": 11, "velocity": 96}, {"time": 2982, "pitch": 53, "duration": 8, "velocity": 89}, {"time": 2982, "pitch": 58, "duration": 8, "velocity": 91}, {"time": 2982, "pitch": 61, "duration": 8, "velocity": 91}, {"time": 2988, "pitch": 41, "duration": 8, "velocity": 92}, {"time": 2994, "pitch": 53, "duration": 5, "velocity": 90}, {"time": 2994, "pitch": 58, "duration": 4, "velocity": 94}, {"time": 2994, "pitch": 61, "duration": 5, "velocity": 94}, {"time": 3000, "pitch": 48, "duration": 12, "velocity": 96}, {"time": 3006, "pitch": 55, "duration": 9, "velocity": 90}, {"time": 3006, "pitch": 60, "duration": 8, "velocity": 91}, {"time": 3006, "pitch": 63, "duration": 9, "velocity": 90}, {"time": 3012, "pitch": 43, "duration": 9, "velocity": 91}, {"time": 3018, "pitch": 55, "duration": 4, "velocity": 91}, {"time": 3018, "pitch": 60, "duration": 4, "velocity": 95}, {"time": 3018, "pitch": 63, "duration": 4, "velocity": 93}, {"time": 3024, "pitch": 41, "duration": 7, "velocity": 93}, {"time": 3030, "pitch": 53, "duration": 7, "velocity": 93}, {"time": 3030, "pitch": 56, "duration": 7, "velocity": 105}, {"time": 3030, "pitch": 60, "duration": 7, "velocity": 93}, {"time": 3036, "pitch": 48, "duration": 7, "velocity": 91}, {"time": 3042, "pitch": 53, "duration": 3, "velocity": 91}, {"time": 3042, "pitch": 56, "duration": 3, "velocity": 105}, {"time": 3042, "pitch": 60, "duration": 3, "velocity": 93}, {"time": 3048, "pitch": 41, "duration": 8, "velocity": 91}, {"time": 3054, "pitch": 53, "duration": 7, "velocity": 89}, {"time": 3054, "pitch": 56, "duration": 7, "velocity": 93}, {"time": 3054, "pitch": 60, "duration": 7, "velocity": 91}, {"time": 3060, "pitch": 48, "duration": 2, "velocity": 90}, {"time": 3066, "pitch": 41, "duration": 2, "velocity": 94}, {"time": 3066, "pitch": 53, "duration": 2, "velocity": 95}, {"time": 3066, "pitch": 56, "duration": 2, "velocity": 100}, {"time": 3066, "pitch": 60, "duration": 3, "velocity": 93}, {"time": 3072, "pitch": 41, "duration": 10, "velocity": 93}, {"time": 3078, "pitch": 53, "duration": 9, "velocity": 87}, {"time": 3078, "pitch": 56, "duration": 8, "velocity": 96}, {"time": 3078, "pitch": 60, "duration": 8, "velocity": 92}, {"time": 3084, "pitch": 48, "duration": 8, "velocity": 93}, {"time": 3090, "pitch": 53, "duration": 3, "velocity": 90}, {"time": 3090, "pitch": 56, "duration": 4, "velocity": 93}, {"time": 3090, "pitch": 60, "duration": 5, "velocity": 91}, {"time": 3096, "pitch": 39, "duration": 8, "velocity": 73}, {"time": 3102, "pitch": 51, "duration": 6, "velocity": 92}, {"time": 3102, "pitch": 55, "duration": 5, "velocity": 94}, {"time": 3108, "pitch": 36, "duration": 8, "velocity": 105}, {"time": 3114, "pitch": 48, "duration": 4, "velocity": 90}, {"time": 3114, "pitch": 51, "duration": 4, "velocity": 89}, {"time": 3114, "pitch": 55, "duration": 4, "velocity": 94}, {"time": 3120, "pitch": 44, "duration": 10, "velocity": 100}, {"time": 3126, "pitch": 56, "duration": 6, "velocity": 89}, {"time": 3126, "pitch": 60, "duration": 6, "velocity": 91}, {"time": 3126, "pitch": 63, "duration": 6, "velocity": 91}, {"time": 3132, "pitch": 51, "duration": 9, "velocity": 89}, {"time": 3138, "pitch": 56, "duration": 2, "velocity": 89}, {"time": 3138, "pitch": 60, "duration": 4, "velocity": 89}, {"time": 3138, "pitch": 63, "duration": 7, "velocity": 91}, {"time": 3144, "pitch": 44, "duration": 14, "velocity": 94}, {"time": 3150, "pitch": 56, "duration": 8, "velocity": 91}, {"time": 3150, "pitch": 60, "duration": 7, "velocity": 90}, {"time": 3150, "pitch": 63, "duration": 8, "velocity": 89}, {"time": 3156, "pitch": 51, "duration": 8, "velocity": 85}, {"time": 3162, "pitch": 56, "duration": 3, "velocity": 90}, {"time": 3162, "pitch": 60, "duration": 3, "velocity": 90}, {"time": 3162, "pitch": 63, "duration": 3, "velocity": 90}, {"time": 3168, "pitch": 44, "duration": 14, "velocity": 98}, {"time": 3174, "pitch": 56, "duration": 6, "velocity": 89}, {"time": 3174, "pitch": 60, "duration": 5, "velocity": 89}, {"time": 3180, "pitch": 51, "duration": 10, "velocity": 96}, {"time": 3186, "pitch": 56, "duration": 4, "velocity": 98}, {"time": 3186, "pitch": 60, "duration": 1, "velocity": 74}, {"time": 3186, "pitch": 63, "duration": 1, "velocity": 78}, {"time": 3192, "pitch": 46, "duration": 11, "velocity": 92}, {"time": 3198, "pitch": 53, "duration": 8, "velocity": 91}, {"time": 3198, "pitch": 58, "duration": 7, "velocity": 92}, {"time": 3198, "pitch": 61, "duration": 7, "velocity": 92}, {"time": 3204, "pitch": 41, "duration": 9, "velocity": 90}, {"time": 3210, "pitch": 53, "duration": 3, "velocity": 89}, {"time": 3210, "pitch": 58, "duration": 3, "velocity": 95}, {"time": 3210, "pitch": 61, "duration": 4, "velocity": 91}, {"time": 3216, "pitch": 48, "duration": 3, "velocity": 94}, {"time": 3216, "pitch": 55, "duration": 2, "velocity": 90}, {"time": 3216, "pitch": 60, "duration": 2, "velocity": 90}, {"time": 3222, "pitch": 48, "duration": 5, "velocity": 105}, {"time": 3222, "pitch": 55, "duration": 5, "velocity": 95}, {"time": 3222, "pitch": 60, "duration": 4, "velocity": 106}, {"time": 3231, "pitch": 48, "duration": 5, "velocity": 106}, {"time": 3231, "pitch": 55, "duration": 3, "velocity": 91}, {"time": 3231, "pitch": 60, "duration": 3, "velocity": 94}, {"time": 3240, "pitch": 48, "duration": 4, "velocity": 110}, {"time": 3240, "pitch": 55, "duration": 4, "velocity": 90}, {"time": 3240, "pitch": 60, "duration": 3, "velocity": 90}, {"time": 3252, "pitch": 48, "duration": 5, "velocity": 105}, {"time": 3252, "pitch": 55, "duration": 4, "velocity": 90}, {"time": 3252, "pitch": 60, "duration": 4, "velocity": 90}, {"time": 3252, "pitch": 67, "duration": 4, "velocity": 89}, {"time": 3264, "pitch": 41, "duration": 13, "velocity": 94}, {"time": 3270, "pitch": 53, "duration": 7, "velocity": 91}, {"time": 3270, "pitch": 56, "duration": 8, "velocity": 103}, {"time": 3270, "pitch": 60, "duration": 8, "velocity": 90}, {"time": 3276, "pitch": 48, "duration": 9, "velocity": 95}, {"time": 3282, "pitch": 53, "duration": 3, "velocity": 90}, {"time": 3282, "pitch": 56, "duration": 3, "velocity": 100}, {"time": 3282, "pitch": 60, "duration": 4, "velocity": 91}, {"time": 3288, "pitch": 41, "duration": 11, "velocity": 93}, {"time": 3294, "pitch": 53, "duration": 9, "velocity": 94}, {"time": 3294, "pitch": 56, "duration": 9, "velocity": 105}, {"time": 3294, "pitch": 60, "duration": 9, "velocity": 94}, {"time": 3300, "pitch": 48, "duration": 9, "velocity": 105}, {"time": 3306, "pitch": 53, "duration": 1, "velocity": 92}, {"time": 3306, "pitch": 56, "duration": 4, "velocity": 105}, {"time": 3306, "pitch": 60, "duration": 5, "velocity": 93}, {"time": 3309, "pitch": 53, "duration": 3, "velocity": 92}, {"time": 3312, "pitch": 46, "duration": 12, "velocity": 103}, {"time": 3318, "pitch": 53, "duration": 7, "velocity": 91}, {"time": 3318, "pitch": 58, "duration": 7, "velocity": 93}, {"time": 3318, "pitch": 61, "duration": 6, "velocity": 92}, {"time": 3324, "pitch": 41, "duration": 9, "velocity": 91}, {"time": 3330, "pitch": 53, "duration": 4, "velocity": 92}, {"time": 3330, "pitch": 58, "duration": 3, "velocity": 100}, {"time": 3330, "pitch": 61, "duration": 4, "velocity": 98}, {"time": 3336, "pitch": 41, "duration": 8, "velocity": 91}, {"time": 3342, "pitch": 53, "duration": 9, "velocity": 89}, {"time": 3342, "pitch": 56, "duration": 10, "velocity": 96}, {"time": 3342, "pitch": 60, "duration": 9, "velocity": 90}, {"time": 3348, "pitch": 48, "duration": 8, "velocity": 92}, {"time": 3354, "pitch": 53, "duration": 3, "velocity": 91}, {"time": 3354, "pitch": 56, "duration": 3, "velocity": 98}, {"time": 3354, "pitch": 60, "duration": 4, "velocity": 92}, {"time": 3360, "pitch": 44, "duration": 22, "velocity": 93}, {"time": 3366, "pitch": 56, "duration": 9, "velocity": 90}, {"time": 3366, "pitch": 60, "duration": 10, "velocity": 88}, {"time": 3366, "pitch": 63, "duration": 16, "velocity": 90}, {"time": 3372, "pitch": 51, "duration": 8, "velocity": 76}, {"time": 3378, "pitch": 56, "duration": 4, "velocity": 95}, {"time": 3378, "pitch": 60, "duration": 1, "velocity": 82}, {"time": 3384, "pitch": 46, "duration": 20, "velocity": 93}, {"time": 3390, "pitch": 53, "duration": 8, "velocity": 92}, {"time": 3390, "pitch": 58, "duration": 8, "velocity": 95}, {"time": 3390, "pitch": 61, "duration": 8, "velocity": 96}, {"time": 3402, "pitch": 53, "duration": 5, "velocity": 93}, {"time": 3402, "pitch": 58, "duration": 5, "velocity": 100}, {"time": 3402, "pitch": 61, "duration": 5, "velocity": 100}, {"time": 3408, "pitch": 41, "duration": 3, "velocity": 87}, {"time": 3408, "pitch": 60, "duration": 6, "velocity": 93}, {"time": 3408, "pitch": 65, "duration": 7, "velocity": 90}, {"time": 3432, "pitch": 53, "duration": 14, "velocity": 89}, {"time": 3432, "pitch": 60, "duration": 13, "velocity": 83}, {"time": 3432, "pitch": 65, "duration": 5, "velocity": 85}, {"time": 3432, "pitch": 68, "duration": 6, "velocity": 93}, {"time": 3444, "pitch": 65, "duration": 3, "velocity": 85}, {"time": 3444, "pitch": 68, "duration": 4, "velocity": 94}, {"time": 3444, "pitch": 72, "duration": 4, "velocity": 90}, {"time": 3456, "pitch": 46, "duration": 3, "velocity": 98}, {"time": 3456, "pitch": 53, "duration": 3, "velocity": 90}, {"time": 3456, "pitch": 58, "duration": 3, "velocity": 92}, {"time": 3456, "pitch": 61, "duration": 4, "velocity": 92}, {"time": 3462, "pitch": 46, "duration": 15, "velocity": 105}, {"time": 3462, "pitch": 53, "duration": 9, "velocity": 94}, {"time": 3462, "pitch": 58, "duration": 14, "velocity": 103}, {"time": 3462, "pitch": 61, "duration": 15, "velocity": 100}, {"time": 3480, "pitch": 43, "duration": 4, "velocity": 91}, {"time": 3480, "pitch": 55, "duration": 3, "velocity": 88}, {"time": 3480, "pitch": 58, "duration": 3, "velocity": 92}, {"time": 3480, "pitch": 61, "duration": 3, "velocity": 92}, {"time": 3486, "pitch": 43, "duration": 16, "velocity": 91}, {"time": 3486, "pitch": 55, "duration": 15, "velocity": 92}, {"time": 3486, "pitch": 58, "duration": 15, "velocity": 100}, {"time": 3486, "pitch": 61, "duration": 15, "velocity": 98}, {"time": 3510, "pitch": 36, "duration": 5, "velocity": 83}, {"time": 3510, "pitch": 48, "duration": 5, "velocity": 89}, {"time": 3510, "pitch": 60, "duration": 5, "velocity": 93}, {"time": 3510, "pitch": 63, "duration": 5, "velocity": 106}, {"time": 3510, "pitch": 67, "duration": 5, "velocity": 91}, {"time": 3522, "pitch": 36, "duration": 3, "velocity": 84}, {"time": 3522, "pitch": 48, "duration": 3, "velocity": 90}, {"time": 3522, "pitch": 60, "duration": 3, "velocity": 89}, {"time": 3522, "pitch": 63, "duration": 3, "velocity": 93}, {"time": 3522, "pitch": 67, "duration": 3, "velocity": 87}, {"time": 3528, "pitch": 36, "duration": 23, "velocity": 83}, {"time": 3528, "pitch": 48, "duration": 23, "velocity": 89}, {"time": 3528, "pitch": 60, "duration": 23, "velocity": 89}, {"time": 3528, "pitch": 63, "duration": 23, "velocity": 100}, {"time": 3528, "pitch": 67, "duration": 23, "velocity": 89}, {"time": 3552, "pitch": 41, "duration": 8, "velocity": 93}, {"time": 3558, "pitch": 53, "duration": 2, "velocity": 90}, {"time": 3558, "pitch": 56, "duration": 2, "velocity": 103}, {"time": 3558, "pitch": 60, "duration": 3, "velocity": 91}, {"time": 3564, "pitch": 41, "duration": 8, "velocity": 89}, {"time": 3570, "pitch": 53, "duration": 2, "velocity": 92}, {"time": 3570, "pitch": 56, "duration": 2, "velocity": 105}, {"time": 3570, "pitch": 60, "duration": 2, "velocity": 91}, {"time": 3576, "pitch": 41, "duration": 9, "velocity": 85}, {"time": 3582, "pitch": 53, "duration": 6, "velocity": 92}, {"time": 3582, "pitch": 56, "duration": 6, "velocity": 106}, {"time": 3582, "pitch": 60, "duration": 6, "velocity": 91}, {"time": 3588, "pitch": 41, "duration": 8, "velocity": 91}, {"time": 3594, "pitch": 53, "duration": 2, "velocity": 92}, {"time": 3594, "pitch": 56, "duration": 2, "velocity": 105}, {"time": 3594, "pitch": 60, "duration": 2, "velocity": 95}, {"time": 3600, "pitch": 41, "duration": 7, "velocity": 90}, {"time": 3606, "pitch": 53, "duration": 3, "velocity": 91}, {"time": 3606, "pitch": 56, "duration": 3, "velocity": 100}, {"time": 3606, "pitch": 60, "duration": 3, "velocity": 92}, {"time": 3612, "pitch": 41, "duration": 8, "velocity": 85}, {"time": 3618, "pitch": 53, "duration": 2, "velocity": 91}, {"time": 3618, "pitch": 56, "duration": 2, "velocity": 105}, {"time": 3618, "pitch": 60, "duration": 3, "velocity": 90}, {"time": 3624, "pitch": 41, "duration": 8, "velocity": 85}, {"time": 3630, "pitch": 53, "duration": 2, "velocity": 90}, {"time": 3630, "pitch": 56, "duration": 2, "velocity": 98}, {"time": 3630, "pitch": 60, "duration": 3, "velocity": 90}, {"time": 3636, "pitch": 41, "duration": 8, "velocity": 85}, {"time": 3642, "pitch": 53, "duration": 2, "velocity": 90}, {"time": 3642, "pitch": 56, "duration": 2, "velocity": 105}, {"time": 3642, "pitch": 60, "duration": 3, "velocity": 90}, {"time": 3648, "pitch": 41, "duration": 8, "velocity": 87}, {"time": 3654, "pitch": 53, "duration": 2, "velocity": 89}, {"time": 3654, "pitch": 56, "duration": 2, "velocity": 95}, {"time": 3654, "pitch": 60, "duration": 3, "velocity": 90}, {"time": 3660, "pitch": 41, "duration": 8, "velocity": 87}, {"time": 3666, "pitch": 53, "duration": 2, "velocity": 91}, {"time": 3666, "pitch": 56, "duration": 2, "velocity": 98}, {"time": 3666, "pitch": 60, "duration": 3, "velocity": 91}, {"time": 3672, "pitch": 41, "duration": 7, "velocity": 87}, {"time": 3678, "pitch": 53, "duration": 3, "velocity": 90}, {"time": 3678, "pitch": 56, "duration": 2, "velocity": 103}, {"time": 3678, "pitch": 60, "duration": 4, "velocity": 90}, {"time": 3684, "pitch": 41, "duration": 7, "velocity": 89}, {"time": 3690, "pitch": 53, "duration": 4, "velocity": 92}, {"time": 3690, "pitch": 56, "duration": 3, "velocity": 103}, {"time": 3690, "pitch": 60, "duration": 5, "velocity": 91}, {"time": 3695, "pitch": 60, "duration": 22, "velocity": 85}, {"time": 3696, "pitch": 63, "duration": 21, "velocity": 86}, {"time": 3696, "pitch": 36, "duration": 45, "velocity": 91}, {"time": 3697, "pitch": 67, "duration": 21, "velocity": 79}, {"time": 3697, "pitch": 72, "duration": 18, "velocity": 79}, {"time": 3721, "pitch": 60, "duration": 5, "velocity": 78}, {"time": 3722, "pitch": 63, "duration": 17, "velocity": 81}, {"time": 3724, "pitch": 67, "duration": 16, "velocity": 87}, {"time": 3761, "pitch": 41, "duration": 66, "velocity": 98}, {"time": 3766, "pitch": 48, "duration": 61, "velocity": 83}, {"time": 3770, "pitch": 53, "duration": 16, "velocity": 83}, {"time": 3774, "pitch": 56, "duration": 12, "velocity": 89}, {"time": 3779, "pitch": 60, "duration": 8, "velocity": 84}, {"time": 3784, "pitch": 65, "duration": 4, "velocity": 77}, {"time": 3791, "pitch": 68, "duration": 5, "velocity": 85}, {"time": 3791, "pitch": 65, "duration": 5, "velocity": 78}, {"time": 3800, "pitch": 72, "duration": 8, "velocity": 90}, {"time": 3800, "pitch": 65, "duration": 6, "velocity": 89}, {"time": 3809, "pitch": 65, "duration": 2, "velocity": 76}, {"time": 3811, "pitch": 72, "duration": 1, "velocity": 78}, {"time": 3812, "pitch": 77, "duration": 2, "velocity": 86}], "annotations": [{"time": 292, "annotation": {"number": 64, "value": 127}, "group": "control_change"}, {"time": 295, "annotation": {"number": 64, "value": 0}, "group": "control_change"}, {"time": 1199, "annotation": {"number": 64, "value": 127}, "group": "control_change"}, {"time": 1245, "annotation": {"number": 64, "value": 0}, "group": "control_change"}, {"time": 1393, "annotation": {"number": 64, "value": 127}, "group": "control_change"}, {"time": 1434, "annotation": {"number": 64, "value": 0}, "group": "control_change"}, {"time": 1439, "annotation": {"number": 64, "value": 127}, "group": "control_change"}, {"time": 1483, "annotation": {"number": 64, "value": 0}, "group": "control_change"}, {"time": 1488, "annotation": {"number": 64, "value": 127}, "group": "control_change"}, {"time": 1531, "annotation": {"number": 64, "value": 0}, "group": "control_change"}, {"time": 1535, "annotation": {"number": 64, "value": 127}, "group": "control_change"}, {"time": 1581, "annotation": {"number": 64, "value": 0}, "group": "control_change"}, {"time": 1588, "annotation": {"number": 64, "value": 127}, "group": "control_change"}, {"time": 1591, "annotation": {"number": 64, "value": 0}, "group": "control_change"}, {"time": 2495, "annotation": {"number": 64, "value": 127}, "group": "control_change"}, {"time": 2541, "annotation": {"number": 64, "value": 0}, "group": "control_change"}, {"time": 3407, "annotation": {"number": 64, "value": 127}, "group": "control_change"}, {"time": 3453, "annotation": {"number": 64, "value": 0}, "group": "control_change"}, {"time": 3697, "annotation": {"number": 64, "value": 127}, "group": "control_change"}, {"time": 3697, "annotation": {"number": 64, "value": 0}, "group": "control_change"}, {"time": 3758, "annotation": {"number": 64, "value": 0}, "group": "control_change"}, {"time": 3763, "annotation": {"number": 64, "value": 127}, "group": "control_change"}, {"time": 3880, "annotation": {"number": 64, "value": 0}, "group": "control_change"}]}]}