{"metadata": {"schema_version": "0.2", "title": "None", "source_filename": "492.mid", "source_format": "midi"}, "resolution": 12, "tempos": [{"time": 0, "qpm": 87.00002175000543}], "time_signatures": [{"time": 0, "numerator": 1, "denominator": 4}], "tracks": [{"program": 4, "is_drum": false, "name": "MELODY", "notes": [{"time": 427, "pitch": 64, "duration": 4, "velocity": 90}, {"time": 433, "pitch": 66, "duration": 5, "velocity": 85}, {"time": 439, "pitch": 68, "duration": 14, "velocity": 86}, {"time": 457, "pitch": 66, "duration": 4, "velocity": 87}, {"time": 463, "pitch": 68, "duration": 4, "velocity": 83}, {"time": 469, "pitch": 71, "duration": 4, "velocity": 86}, {"time": 475, "pitch": 76, "duration": 3, "velocity": 92}, {"time": 481, "pitch": 73, "duration": 10, "velocity": 84}, {"time": 493, "pitch": 71, "duration": 26, "velocity": 87}, {"time": 523, "pitch": 73, "duration": 4, "velocity": 86}, {"time": 529, "pitch": 76, "duration": 3, "velocity": 83}, {"time": 535, "pitch": 73, "duration": 15, "velocity": 82}, {"time": 553, "pitch": 73, "duration": 2, "velocity": 88}, {"time": 556, "pitch": 71, "duration": 2, "velocity": 84}, {"time": 559, "pitch": 68, "duration": 4, "velocity": 92}, {"time": 565, "pitch": 71, "duration": 4, "velocity": 84}, {"time": 571, "pitch": 71, "duration": 4, "velocity": 83}, {"time": 577, "pitch": 68, "duration": 5, "velocity": 87}, {"time": 583, "pitch": 66, "duration": 25, "velocity": 85}, {"time": 619, "pitch": 66, "duration": 4, "velocity": 84}, {"time": 625, "pitch": 68, "duration": 3, "velocity": 82}, {"time": 631, "pitch": 71, "duration": 8, "velocity": 84}, {"time": 649, "pitch": 71, "duration": 2, "velocity": 85}, {"time": 652, "pitch": 68, "duration": 1, "velocity": 88}, {"time": 655, "pitch": 66, "duration": 4, "velocity": 88}, {"time": 661, "pitch": 68, "duration": 3, "velocity": 86}, {"time": 667, "pitch": 64, "duration": 4, "velocity": 90}, {"time": 673, "pitch": 66, "duration": 3, "velocity": 82}, {"time": 676, "pitch": 64, "duration": 3, "velocity": 82}, {"time": 679, "pitch": 61, "duration": 24, "velocity": 80}, {"time": 715, "pitch": 61, "duration": 4, "velocity": 92}, {"time": 721, "pitch": 68, "duration": 4, "velocity": 88}, {"time": 727, "pitch": 66, "duration": 14, "velocity": 83}, {"time": 745, "pitch": 64, "duration": 5, "velocity": 81}, {"time": 751, "pitch": 61, "duration": 5, "velocity": 88}, {"time": 757, "pitch": 64, "duration": 3, "velocity": 83}, {"time": 763, "pitch": 64, "duration": 3, "velocity": 82}, {"time": 769, "pitch": 68, "duration": 4, "velocity": 85}, {"time": 775, "pitch": 66, "duration": 32, "velocity": 82}, {"time": 811, "pitch": 64, "duration": 4, "velocity": 90}, {"time": 817, "pitch": 66, "duration": 5, "velocity": 85}, {"time": 823, "pitch": 68, "duration": 14, "velocity": 86}, {"time": 841, "pitch": 66, "duration": 4, "velocity": 87}, {"time": 847, "pitch": 68, "duration": 4, "velocity": 83}, {"time": 853, "pitch": 71, "duration": 4, "velocity": 86}, {"time": 859, "pitch": 76, "duration": 3, "velocity": 92}, {"time": 865, "pitch": 73, "duration": 10, "velocity": 84}, {"time": 877, "pitch": 71, "duration": 26, "velocity": 87}, {"time": 907, "pitch": 73, "duration": 4, "velocity": 86}, {"time": 913, "pitch": 76, "duration": 3, "velocity": 83}, {"time": 919, "pitch": 73, "duration": 15, "velocity": 82}, {"time": 937, "pitch": 73, "duration": 2, "velocity": 88}, {"time": 940, "pitch": 71, "duration": 2, "velocity": 84}, {"time": 943, "pitch": 68, "duration": 4, "velocity": 92}, {"time": 949, "pitch": 71, "duration": 4, "velocity": 84}, {"time": 955, "pitch": 71, "duration": 4, "velocity": 83}, {"time": 961, "pitch": 68, "duration": 5, "velocity": 87}, {"time": 967, "pitch": 66, "duration": 25, "velocity": 85}, {"time": 1003, "pitch": 66, "duration": 4, "velocity": 84}, {"time": 1009, "pitch": 68, "duration": 3, "velocity": 82}, {"time": 1015, "pitch": 71, "duration": 8, "velocity": 84}, {"time": 1024, "pitch": 71, "duration": 2, "velocity": 85}, {"time": 1027, "pitch": 71, "duration": 6, "velocity": 85}, {"time": 1033, "pitch": 68, "duration": 6, "velocity": 88}, {"time": 1039, "pitch": 66, "duration": 4, "velocity": 88}, {"time": 1045, "pitch": 68, "duration": 9, "velocity": 86}, {"time": 1057, "pitch": 66, "duration": 3, "velocity": 82}, {"time": 1060, "pitch": 64, "duration": 3, "velocity": 82}, {"time": 1063, "pitch": 61, "duration": 24, "velocity": 80}, {"time": 1099, "pitch": 61, "duration": 4, "velocity": 92}, {"time": 1105, "pitch": 68, "duration": 4, "velocity": 88}, {"time": 1111, "pitch": 66, "duration": 14, "velocity": 83}, {"time": 1129, "pitch": 66, "duration": 2, "velocity": 85}, {"time": 1132, "pitch": 64, "duration": 2, "velocity": 84}, {"time": 1135, "pitch": 66, "duration": 5, "velocity": 86}, {"time": 1141, "pitch": 64, "duration": 1, "velocity": 88}, {"time": 1144, "pitch": 66, "duration": 7, "velocity": 83}, {"time": 1153, "pitch": 73, "duration": 5, "velocity": 88}, {"time": 1159, "pitch": 71, "duration": 31, "velocity": 83}, {"time": 1195, "pitch": 71, "duration": 4, "velocity": 88}, {"time": 1201, "pitch": 73, "duration": 4, "velocity": 85}, {"time": 1207, "pitch": 80, "duration": 7, "velocity": 97}, {"time": 1216, "pitch": 78, "duration": 6, "velocity": 92}, {"time": 1225, "pitch": 76, "duration": 3, "velocity": 87}, {"time": 1231, "pitch": 76, "duration": 4, "velocity": 87}, {"time": 1237, "pitch": 68, "duration": 4, "velocity": 92}, {"time": 1243, "pitch": 73, "duration": 4, "velocity": 88}, {"time": 1249, "pitch": 75, "duration": 2, "velocity": 86}, {"time": 1252, "pitch": 73, "duration": 1, "velocity": 86}, {"time": 1255, "pitch": 71, "duration": 32, "velocity": 83}, {"time": 1291, "pitch": 71, "duration": 4, "velocity": 88}, {"time": 1297, "pitch": 73, "duration": 4, "velocity": 85}, {"time": 1303, "pitch": 76, "duration": 7, "velocity": 85}, {"time": 1312, "pitch": 73, "duration": 7, "velocity": 87}, {"time": 1321, "pitch": 73, "duration": 2, "velocity": 85}, {"time": 1324, "pitch": 71, "duration": 2, "velocity": 83}, {"time": 1327, "pitch": 68, "duration": 4, "velocity": 86}, {"time": 1333, "pitch": 71, "duration": 3, "velocity": 84}, {"time": 1339, "pitch": 71, "duration": 4, "velocity": 85}, {"time": 1345, "pitch": 68, "duration": 4, "velocity": 83}, {"time": 1351, "pitch": 66, "duration": 31, "velocity": 85}, {"time": 1387, "pitch": 66, "duration": 4, "velocity": 88}, {"time": 1393, "pitch": 68, "duration": 4, "velocity": 83}, {"time": 1399, "pitch": 71, "duration": 6, "velocity": 87}, {"time": 1408, "pitch": 71, "duration": 2, "velocity": 82}, {"time": 1411, "pitch": 71, "duration": 3, "velocity": 86}, {"time": 1417, "pitch": 68, "duration": 4, "velocity": 82}, {"time": 1423, "pitch": 68, "duration": 4, "velocity": 85}, {"time": 1429, "pitch": 71, "duration": 9, "velocity": 83}, {"time": 1441, "pitch": 66, "duration": 2, "velocity": 84}, {"time": 1444, "pitch": 64, "duration": 1, "velocity": 82}, {"time": 1447, "pitch": 61, "duration": 30, "velocity": 85}, {"time": 1489, "pitch": 61, "duration": 2, "velocity": 86}, {"time": 1492, "pitch": 68, "duration": 2, "velocity": 83}, {"time": 1495, "pitch": 66, "duration": 6, "velocity": 88}, {"time": 1504, "pitch": 66, "duration": 1, "velocity": 87}, {"time": 1507, "pitch": 66, "duration": 4, "velocity": 88}, {"time": 1513, "pitch": 68, "duration": 4, "velocity": 92}, {"time": 1519, "pitch": 78, "duration": 4, "velocity": 90}, {"time": 1525, "pitch": 78, "duration": 1, "velocity": 82}, {"time": 1528, "pitch": 78, "duration": 7, "velocity": 83}, {"time": 1537, "pitch": 73, "duration": 4, "velocity": 84}, {"time": 1543, "pitch": 71, "duration": 31, "velocity": 85}, {"time": 1579, "pitch": 71, "duration": 4, "velocity": 88}, {"time": 1585, "pitch": 73, "duration": 4, "velocity": 85}, {"time": 1591, "pitch": 80, "duration": 7, "velocity": 97}, {"time": 1600, "pitch": 78, "duration": 6, "velocity": 92}, {"time": 1609, "pitch": 76, "duration": 3, "velocity": 87}, {"time": 1615, "pitch": 76, "duration": 4, "velocity": 87}, {"time": 1621, "pitch": 68, "duration": 4, "velocity": 92}, {"time": 1627, "pitch": 73, "duration": 4, "velocity": 88}, {"time": 1633, "pitch": 75, "duration": 2, "velocity": 86}, {"time": 1636, "pitch": 73, "duration": 1, "velocity": 86}, {"time": 1639, "pitch": 71, "duration": 32, "velocity": 83}, {"time": 1675, "pitch": 71, "duration": 4, "velocity": 88}, {"time": 1681, "pitch": 73, "duration": 4, "velocity": 85}, {"time": 1687, "pitch": 76, "duration": 7, "velocity": 85}, {"time": 1696, "pitch": 73, "duration": 7, "velocity": 87}, {"time": 1705, "pitch": 73, "duration": 2, "velocity": 85}, {"time": 1708, "pitch": 71, "duration": 2, "velocity": 83}, {"time": 1711, "pitch": 68, "duration": 4, "velocity": 86}, {"time": 1717, "pitch": 71, "duration": 3, "velocity": 84}, {"time": 1723, "pitch": 71, "duration": 4, "velocity": 85}, {"time": 1729, "pitch": 68, "duration": 4, "velocity": 83}, {"time": 1735, "pitch": 66, "duration": 31, "velocity": 85}, {"time": 1771, "pitch": 66, "duration": 4, "velocity": 88}, {"time": 1777, "pitch": 68, "duration": 4, "velocity": 83}, {"time": 1783, "pitch": 71, "duration": 6, "velocity": 87}, {"time": 1792, "pitch": 71, "duration": 2, "velocity": 82}, {"time": 1795, "pitch": 71, "duration": 3, "velocity": 86}, {"time": 1801, "pitch": 71, "duration": 3, "velocity": 82}, {"time": 1804, "pitch": 68, "duration": 3, "velocity": 82}, {"time": 1807, "pitch": 68, "duration": 4, "velocity": 85}, {"time": 1813, "pitch": 71, "duration": 9, "velocity": 83}, {"time": 1825, "pitch": 66, "duration": 2, "velocity": 84}, {"time": 1828, "pitch": 64, "duration": 1, "velocity": 82}, {"time": 1831, "pitch": 61, "duration": 30, "velocity": 85}, {"time": 1867, "pitch": 61, "duration": 3, "velocity": 86}, {"time": 1873, "pitch": 68, "duration": 3, "velocity": 83}, {"time": 1879, "pitch": 66, "duration": 12, "velocity": 88}, {"time": 1897, "pitch": 68, "duration": 2, "velocity": 88}, {"time": 1900, "pitch": 71, "duration": 2, "velocity": 82}, {"time": 1903, "pitch": 68, "duration": 7, "velocity": 90}, {"time": 1912, "pitch": 66, "duration": 7, "velocity": 85}, {"time": 1921, "pitch": 61, "duration": 4, "velocity": 86}, {"time": 1927, "pitch": 64, "duration": 46, "velocity": 85}, {"time": 2347, "pitch": 64, "duration": 4, "velocity": 90}, {"time": 2353, "pitch": 66, "duration": 5, "velocity": 85}, {"time": 2359, "pitch": 68, "duration": 14, "velocity": 86}, {"time": 2377, "pitch": 66, "duration": 4, "velocity": 87}, {"time": 2383, "pitch": 68, "duration": 4, "velocity": 83}, {"time": 2389, "pitch": 71, "duration": 4, "velocity": 86}, {"time": 2395, "pitch": 76, "duration": 3, "velocity": 92}, {"time": 2401, "pitch": 73, "duration": 10, "velocity": 84}, {"time": 2413, "pitch": 71, "duration": 26, "velocity": 87}, {"time": 2443, "pitch": 73, "duration": 4, "velocity": 86}, {"time": 2449, "pitch": 76, "duration": 3, "velocity": 83}, {"time": 2455, "pitch": 73, "duration": 15, "velocity": 82}, {"time": 2473, "pitch": 73, "duration": 2, "velocity": 88}, {"time": 2476, "pitch": 71, "duration": 2, "velocity": 84}, {"time": 2479, "pitch": 68, "duration": 4, "velocity": 92}, {"time": 2485, "pitch": 71, "duration": 4, "velocity": 84}, {"time": 2491, "pitch": 71, "duration": 4, "velocity": 83}, {"time": 2497, "pitch": 68, "duration": 5, "velocity": 87}, {"time": 2503, "pitch": 66, "duration": 25, "velocity": 85}, {"time": 2539, "pitch": 66, "duration": 4, "velocity": 84}, {"time": 2545, "pitch": 68, "duration": 3, "velocity": 82}, {"time": 2551, "pitch": 71, "duration": 8, "velocity": 84}, {"time": 2560, "pitch": 71, "duration": 2, "velocity": 85}, {"time": 2563, "pitch": 71, "duration": 6, "velocity": 85}, {"time": 2569, "pitch": 68, "duration": 6, "velocity": 88}, {"time": 2575, "pitch": 66, "duration": 4, "velocity": 88}, {"time": 2581, "pitch": 68, "duration": 9, "velocity": 86}, {"time": 2593, "pitch": 66, "duration": 3, "velocity": 82}, {"time": 2596, "pitch": 64, "duration": 3, "velocity": 82}, {"time": 2599, "pitch": 61, "duration": 24, "velocity": 80}, {"time": 2635, "pitch": 61, "duration": 4, "velocity": 92}, {"time": 2641, "pitch": 68, "duration": 4, "velocity": 88}, {"time": 2647, "pitch": 66, "duration": 14, "velocity": 83}, {"time": 2665, "pitch": 66, "duration": 2, "velocity": 85}, {"time": 2668, "pitch": 64, "duration": 2, "velocity": 84}, {"time": 2671, "pitch": 66, "duration": 5, "velocity": 86}, {"time": 2677, "pitch": 64, "duration": 1, "velocity": 88}, {"time": 2680, "pitch": 66, "duration": 7, "velocity": 83}, {"time": 2689, "pitch": 73, "duration": 5, "velocity": 88}, {"time": 2695, "pitch": 71, "duration": 31, "velocity": 83}, {"time": 2731, "pitch": 71, "duration": 4, "velocity": 88}, {"time": 2737, "pitch": 73, "duration": 4, "velocity": 85}, {"time": 2743, "pitch": 80, "duration": 7, "velocity": 97}, {"time": 2752, "pitch": 78, "duration": 6, "velocity": 92}, {"time": 2761, "pitch": 76, "duration": 3, "velocity": 87}, {"time": 2767, "pitch": 76, "duration": 4, "velocity": 87}, {"time": 2773, "pitch": 68, "duration": 4, "velocity": 92}, {"time": 2779, "pitch": 73, "duration": 4, "velocity": 88}, {"time": 2785, "pitch": 75, "duration": 2, "velocity": 86}, {"time": 2788, "pitch": 73, "duration": 1, "velocity": 86}, {"time": 2791, "pitch": 71, "duration": 32, "velocity": 83}, {"time": 2827, "pitch": 71, "duration": 4, "velocity": 88}, {"time": 2833, "pitch": 73, "duration": 4, "velocity": 85}, {"time": 2839, "pitch": 76, "duration": 7, "velocity": 85}, {"time": 2848, "pitch": 73, "duration": 7, "velocity": 87}, {"time": 2857, "pitch": 73, "duration": 2, "velocity": 85}, {"time": 2860, "pitch": 71, "duration": 2, "velocity": 83}, {"time": 2863, "pitch": 68, "duration": 4, "velocity": 86}, {"time": 2869, "pitch": 71, "duration": 3, "velocity": 84}, {"time": 2875, "pitch": 71, "duration": 4, "velocity": 85}, {"time": 2881, "pitch": 68, "duration": 4, "velocity": 83}, {"time": 2887, "pitch": 66, "duration": 31, "velocity": 85}, {"time": 2923, "pitch": 66, "duration": 4, "velocity": 88}, {"time": 2929, "pitch": 68, "duration": 4, "velocity": 83}, {"time": 2935, "pitch": 71, "duration": 6, "velocity": 87}, {"time": 2944, "pitch": 71, "duration": 2, "velocity": 82}, {"time": 2947, "pitch": 71, "duration": 3, "velocity": 86}, {"time": 2953, "pitch": 68, "duration": 4, "velocity": 82}, {"time": 2959, "pitch": 68, "duration": 4, "velocity": 85}, {"time": 2965, "pitch": 71, "duration": 9, "velocity": 83}, {"time": 2977, "pitch": 66, "duration": 2, "velocity": 84}, {"time": 2980, "pitch": 64, "duration": 1, "velocity": 82}, {"time": 2983, "pitch": 61, "duration": 30, "velocity": 85}, {"time": 3025, "pitch": 61, "duration": 2, "velocity": 86}, {"time": 3028, "pitch": 68, "duration": 2, "velocity": 83}, {"time": 3031, "pitch": 66, "duration": 6, "velocity": 88}, {"time": 3040, "pitch": 66, "duration": 1, "velocity": 87}, {"time": 3043, "pitch": 66, "duration": 4, "velocity": 88}, {"time": 3049, "pitch": 68, "duration": 4, "velocity": 92}, {"time": 3055, "pitch": 78, "duration": 4, "velocity": 90}, {"time": 3061, "pitch": 78, "duration": 1, "velocity": 82}, {"time": 3064, "pitch": 78, "duration": 7, "velocity": 83}, {"time": 3073, "pitch": 73, "duration": 4, "velocity": 84}, {"time": 3079, "pitch": 71, "duration": 31, "velocity": 85}, {"time": 3115, "pitch": 71, "duration": 4, "velocity": 88}, {"time": 3121, "pitch": 73, "duration": 4, "velocity": 85}, {"time": 3127, "pitch": 80, "duration": 7, "velocity": 97}, {"time": 3136, "pitch": 78, "duration": 6, "velocity": 92}, {"time": 3145, "pitch": 76, "duration": 3, "velocity": 87}, {"time": 3151, "pitch": 76, "duration": 4, "velocity": 87}, {"time": 3157, "pitch": 68, "duration": 4, "velocity": 92}, {"time": 3163, "pitch": 73, "duration": 4, "velocity": 88}, {"time": 3169, "pitch": 75, "duration": 2, "velocity": 86}, {"time": 3172, "pitch": 73, "duration": 1, "velocity": 86}, {"time": 3175, "pitch": 71, "duration": 32, "velocity": 83}, {"time": 3211, "pitch": 71, "duration": 4, "velocity": 88}, {"time": 3217, "pitch": 73, "duration": 4, "velocity": 85}, {"time": 3223, "pitch": 76, "duration": 7, "velocity": 85}, {"time": 3232, "pitch": 73, "duration": 7, "velocity": 87}, {"time": 3241, "pitch": 73, "duration": 2, "velocity": 85}, {"time": 3244, "pitch": 71, "duration": 2, "velocity": 83}, {"time": 3247, "pitch": 68, "duration": 4, "velocity": 86}, {"time": 3253, "pitch": 71, "duration": 3, "velocity": 84}, {"time": 3259, "pitch": 71, "duration": 4, "velocity": 85}, {"time": 3265, "pitch": 68, "duration": 4, "velocity": 83}, {"time": 3271, "pitch": 66, "duration": 31, "velocity": 85}, {"time": 3307, "pitch": 66, "duration": 4, "velocity": 88}, {"time": 3313, "pitch": 68, "duration": 4, "velocity": 83}, {"time": 3319, "pitch": 71, "duration": 6, "velocity": 87}, {"time": 3328, "pitch": 71, "duration": 2, "velocity": 82}, {"time": 3331, "pitch": 71, "duration": 3, "velocity": 86}, {"time": 3337, "pitch": 71, "duration": 3, "velocity": 82}, {"time": 3340, "pitch": 68, "duration": 3, "velocity": 82}, {"time": 3343, "pitch": 68, "duration": 4, "velocity": 85}, {"time": 3349, "pitch": 71, "duration": 9, "velocity": 83}, {"time": 3361, "pitch": 66, "duration": 2, "velocity": 84}, {"time": 3364, "pitch": 64, "duration": 1, "velocity": 82}, {"time": 3367, "pitch": 61, "duration": 30, "velocity": 85}, {"time": 3403, "pitch": 61, "duration": 3, "velocity": 86}, {"time": 3409, "pitch": 68, "duration": 3, "velocity": 83}, {"time": 3415, "pitch": 66, "duration": 12, "velocity": 88}, {"time": 3433, "pitch": 68, "duration": 2, "velocity": 88}, {"time": 3436, "pitch": 71, "duration": 2, "velocity": 82}, {"time": 3439, "pitch": 68, "duration": 7, "velocity": 90}, {"time": 3448, "pitch": 66, "duration": 7, "velocity": 85}, {"time": 3457, "pitch": 61, "duration": 4, "velocity": 86}, {"time": 3463, "pitch": 64, "duration": 33, "velocity": 85}, {"time": 3499, "pitch": 71, "duration": 4, "velocity": 88}, {"time": 3505, "pitch": 73, "duration": 4, "velocity": 85}, {"time": 3511, "pitch": 80, "duration": 7, "velocity": 97}, {"time": 3520, "pitch": 78, "duration": 6, "velocity": 92}, {"time": 3529, "pitch": 76, "duration": 3, "velocity": 87}, {"time": 3535, "pitch": 76, "duration": 4, "velocity": 87}, {"time": 3541, "pitch": 68, "duration": 4, "velocity": 92}, {"time": 3547, "pitch": 73, "duration": 4, "velocity": 88}, {"time": 3553, "pitch": 75, "duration": 2, "velocity": 86}, {"time": 3556, "pitch": 73, "duration": 1, "velocity": 86}, {"time": 3559, "pitch": 71, "duration": 32, "velocity": 83}, {"time": 3595, "pitch": 71, "duration": 4, "velocity": 88}, {"time": 3601, "pitch": 73, "duration": 4, "velocity": 85}, {"time": 3607, "pitch": 76, "duration": 7, "velocity": 85}, {"time": 3616, "pitch": 73, "duration": 7, "velocity": 87}, {"time": 3625, "pitch": 73, "duration": 2, "velocity": 85}, {"time": 3628, "pitch": 71, "duration": 2, "velocity": 83}, {"time": 3631, "pitch": 68, "duration": 4, "velocity": 86}, {"time": 3637, "pitch": 71, "duration": 3, "velocity": 84}, {"time": 3643, "pitch": 71, "duration": 4, "velocity": 85}, {"time": 3649, "pitch": 68, "duration": 4, "velocity": 83}, {"time": 3655, "pitch": 66, "duration": 31, "velocity": 85}, {"time": 3691, "pitch": 66, "duration": 4, "velocity": 88}, {"time": 3697, "pitch": 68, "duration": 4, "velocity": 83}, {"time": 3703, "pitch": 71, "duration": 6, "velocity": 87}, {"time": 3712, "pitch": 71, "duration": 2, "velocity": 82}, {"time": 3715, "pitch": 71, "duration": 3, "velocity": 86}, {"time": 3721, "pitch": 68, "duration": 4, "velocity": 82}, {"time": 3727, "pitch": 68, "duration": 4, "velocity": 85}, {"time": 3733, "pitch": 71, "duration": 9, "velocity": 83}, {"time": 3745, "pitch": 66, "duration": 2, "velocity": 84}, {"time": 3748, "pitch": 64, "duration": 1, "velocity": 82}, {"time": 3751, "pitch": 61, "duration": 30, "velocity": 85}, {"time": 3793, "pitch": 61, "duration": 2, "velocity": 86}, {"time": 3796, "pitch": 68, "duration": 2, "velocity": 83}, {"time": 3799, "pitch": 66, "duration": 6, "velocity": 88}, {"time": 3808, "pitch": 66, "duration": 1, "velocity": 87}, {"time": 3811, "pitch": 66, "duration": 4, "velocity": 88}, {"time": 3817, "pitch": 68, "duration": 4, "velocity": 92}, {"time": 3823, "pitch": 78, "duration": 4, "velocity": 90}, {"time": 3829, "pitch": 78, "duration": 1, "velocity": 82}, {"time": 3832, "pitch": 78, "duration": 7, "velocity": 83}, {"time": 3841, "pitch": 73, "duration": 4, "velocity": 84}, {"time": 3847, "pitch": 71, "duration": 31, "velocity": 85}, {"time": 3883, "pitch": 71, "duration": 4, "velocity": 88}, {"time": 3889, "pitch": 73, "duration": 4, "velocity": 85}, {"time": 3895, "pitch": 80, "duration": 7, "velocity": 97}, {"time": 3904, "pitch": 78, "duration": 6, "velocity": 92}, {"time": 3913, "pitch": 76, "duration": 3, "velocity": 87}, {"time": 3919, "pitch": 76, "duration": 4, "velocity": 87}, {"time": 3925, "pitch": 68, "duration": 4, "velocity": 92}, {"time": 3931, "pitch": 73, "duration": 4, "velocity": 88}, {"time": 3937, "pitch": 75, "duration": 2, "velocity": 86}, {"time": 3940, "pitch": 73, "duration": 1, "velocity": 86}, {"time": 3943, "pitch": 71, "duration": 32, "velocity": 83}, {"time": 3979, "pitch": 71, "duration": 4, "velocity": 88}, {"time": 3985, "pitch": 73, "duration": 4, "velocity": 85}, {"time": 3991, "pitch": 76, "duration": 7, "velocity": 85}, {"time": 4000, "pitch": 73, "duration": 7, "velocity": 87}, {"time": 4009, "pitch": 73, "duration": 2, "velocity": 85}, {"time": 4012, "pitch": 71, "duration": 2, "velocity": 83}, {"time": 4015, "pitch": 68, "duration": 4, "velocity": 86}, {"time": 4021, "pitch": 71, "duration": 3, "velocity": 84}, {"time": 4027, "pitch": 71, "duration": 4, "velocity": 85}, {"time": 4033, "pitch": 68, "duration": 4, "velocity": 83}, {"time": 4039, "pitch": 66, "duration": 31, "velocity": 85}, {"time": 4075, "pitch": 66, "duration": 4, "velocity": 88}, {"time": 4081, "pitch": 68, "duration": 4, "velocity": 83}, {"time": 4087, "pitch": 71, "duration": 6, "velocity": 87}, {"time": 4096, "pitch": 71, "duration": 2, "velocity": 82}, {"time": 4099, "pitch": 71, "duration": 3, "velocity": 86}, {"time": 4105, "pitch": 71, "duration": 3, "velocity": 82}, {"time": 4108, "pitch": 68, "duration": 3, "velocity": 82}, {"time": 4111, "pitch": 68, "duration": 4, "velocity": 85}, {"time": 4117, "pitch": 71, "duration": 9, "velocity": 83}, {"time": 4129, "pitch": 66, "duration": 2, "velocity": 84}, {"time": 4132, "pitch": 64, "duration": 1, "velocity": 82}, {"time": 4135, "pitch": 61, "duration": 30, "velocity": 85}, {"time": 4171, "pitch": 61, "duration": 3, "velocity": 86}, {"time": 4177, "pitch": 68, "duration": 3, "velocity": 83}, {"time": 4183, "pitch": 66, "duration": 12, "velocity": 88}, {"time": 4201, "pitch": 68, "duration": 2, "velocity": 88}, {"time": 4204, "pitch": 71, "duration": 2, "velocity": 82}, {"time": 4207, "pitch": 68, "duration": 7, "velocity": 90}, {"time": 4216, "pitch": 66, "duration": 7, "velocity": 85}, {"time": 4225, "pitch": 61, "duration": 4, "velocity": 86}, {"time": 4231, "pitch": 64, "duration": 46, "velocity": 85}]}, {"program": 0, "is_drum": false, "name": "PIANO", "notes": [{"time": 55, "pitch": 40, "duration": 38, "velocity": 82}, {"time": 55, "pitch": 64, "duration": 7, "velocity": 80}, {"time": 55, "pitch": 68, "duration": 13, "velocity": 80}, {"time": 61, "pitch": 47, "duration": 21, "velocity": 69}, {"time": 67, "pitch": 64, "duration": 8, "velocity": 88}, {"time": 73, "pitch": 68, "duration": 3, "velocity": 88}, {"time": 79, "pitch": 64, "duration": 5, "velocity": 81}, {"time": 79, "pitch": 68, "duration": 7, "velocity": 82}, {"time": 79, "pitch": 71, "duration": 10, "velocity": 82}, {"time": 85, "pitch": 47, "duration": 9, "velocity": 67}, {"time": 91, "pitch": 64, "duration": 2, "velocity": 88}, {"time": 103, "pitch": 49, "duration": 36, "velocity": 82}, {"time": 103, "pitch": 61, "duration": 7, "velocity": 81}, {"time": 103, "pitch": 64, "duration": 12, "velocity": 82}, {"time": 109, "pitch": 56, "duration": 21, "velocity": 69}, {"time": 115, "pitch": 61, "duration": 8, "velocity": 86}, {"time": 121, "pitch": 64, "duration": 3, "velocity": 79}, {"time": 127, "pitch": 61, "duration": 9, "velocity": 79}, {"time": 127, "pitch": 68, "duration": 10, "velocity": 82}, {"time": 133, "pitch": 56, "duration": 6, "velocity": 66}, {"time": 139, "pitch": 61, "duration": 3, "velocity": 83}, {"time": 139, "pitch": 64, "duration": 3, "velocity": 85}, {"time": 151, "pitch": 42, "duration": 33, "velocity": 82}, {"time": 151, "pitch": 54, "duration": 7, "velocity": 79}, {"time": 151, "pitch": 57, "duration": 12, "velocity": 81}, {"time": 157, "pitch": 49, "duration": 27, "velocity": 70}, {"time": 163, "pitch": 54, "duration": 11, "velocity": 87}, {"time": 169, "pitch": 57, "duration": 7, "velocity": 73}, {"time": 175, "pitch": 61, "duration": 20, "velocity": 90}, {"time": 181, "pitch": 57, "duration": 14, "velocity": 81}, {"time": 187, "pitch": 49, "duration": 8, "velocity": 84}, {"time": 187, "pitch": 54, "duration": 4, "velocity": 62}, {"time": 193, "pitch": 54, "duration": 6, "velocity": 86}, {"time": 199, "pitch": 47, "duration": 43, "velocity": 83}, {"time": 205, "pitch": 59, "duration": 9, "velocity": 82}, {"time": 211, "pitch": 54, "duration": 14, "velocity": 71}, {"time": 217, "pitch": 59, "duration": 5, "velocity": 84}, {"time": 223, "pitch": 59, "duration": 7, "velocity": 83}, {"time": 223, "pitch": 63, "duration": 7, "velocity": 81}, {"time": 229, "pitch": 54, "duration": 9, "velocity": 77}, {"time": 235, "pitch": 59, "duration": 5, "velocity": 83}, {"time": 235, "pitch": 63, "duration": 10, "velocity": 88}, {"time": 235, "pitch": 66, "duration": 11, "velocity": 81}, {"time": 241, "pitch": 51, "duration": 2, "velocity": 86}, {"time": 241, "pitch": 59, "duration": 4, "velocity": 86}, {"time": 247, "pitch": 40, "duration": 38, "velocity": 82}, {"time": 247, "pitch": 52, "duration": 5, "velocity": 79}, {"time": 247, "pitch": 64, "duration": 7, "velocity": 82}, {"time": 253, "pitch": 47, "duration": 20, "velocity": 76}, {"time": 259, "pitch": 59, "duration": 8, "velocity": 70}, {"time": 265, "pitch": 64, "duration": 3, "velocity": 81}, {"time": 271, "pitch": 59, "duration": 7, "velocity": 81}, {"time": 271, "pitch": 64, "duration": 7, "velocity": 83}, {"time": 271, "pitch": 68, "duration": 18, "velocity": 82}, {"time": 277, "pitch": 47, "duration": 9, "velocity": 81}, {"time": 283, "pitch": 59, "duration": 7, "velocity": 88}, {"time": 289, "pitch": 64, "duration": 2, "velocity": 82}, {"time": 295, "pitch": 49, "duration": 28, "velocity": 87}, {"time": 295, "pitch": 61, "duration": 8, "velocity": 72}, {"time": 295, "pitch": 64, "duration": 12, "velocity": 82}, {"time": 301, "pitch": 56, "duration": 22, "velocity": 70}, {"time": 307, "pitch": 61, "duration": 7, "velocity": 83}, {"time": 313, "pitch": 64, "duration": 3, "velocity": 83}, {"time": 319, "pitch": 61, "duration": 7, "velocity": 83}, {"time": 319, "pitch": 68, "duration": 7, "velocity": 84}, {"time": 325, "pitch": 64, "duration": 4, "velocity": 79}, {"time": 331, "pitch": 37, "duration": 3, "velocity": 82}, {"time": 331, "pitch": 61, "duration": 7, "velocity": 88}, {"time": 331, "pitch": 64, "duration": 1, "velocity": 82}, {"time": 331, "pitch": 68, "duration": 1, "velocity": 65}, {"time": 337, "pitch": 64, "duration": 1, "velocity": 72}, {"time": 343, "pitch": 42, "duration": 15, "velocity": 84}, {"time": 343, "pitch": 54, "duration": 8, "velocity": 70}, {"time": 343, "pitch": 57, "duration": 12, "velocity": 73}, {"time": 349, "pitch": 49, "duration": 9, "velocity": 69}, {"time": 355, "pitch": 54, "duration": 9, "velocity": 85}, {"time": 361, "pitch": 57, "duration": 5, "velocity": 69}, {"time": 367, "pitch": 47, "duration": 15, "velocity": 84}, {"time": 373, "pitch": 54, "duration": 7, "velocity": 82}, {"time": 379, "pitch": 59, "duration": 9, "velocity": 87}, {"time": 385, "pitch": 63, "duration": 4, "velocity": 78}, {"time": 391, "pitch": 40, "duration": 2, "velocity": 83}, {"time": 391, "pitch": 59, "duration": 5, "velocity": 81}, {"time": 391, "pitch": 64, "duration": 6, "velocity": 82}, {"time": 397, "pitch": 52, "duration": 33, "velocity": 73}, {"time": 403, "pitch": 56, "duration": 14, "velocity": 83}, {"time": 406, "pitch": 59, "duration": 24, "velocity": 80}, {"time": 409, "pitch": 64, "duration": 8, "velocity": 82}, {"time": 412, "pitch": 68, "duration": 5, "velocity": 83}, {"time": 415, "pitch": 71, "duration": 8, "velocity": 81}, {"time": 421, "pitch": 56, "duration": 8, "velocity": 64}, {"time": 427, "pitch": 64, "duration": 10, "velocity": 81}, {"time": 427, "pitch": 68, "duration": 7, "velocity": 77}, {"time": 427, "pitch": 71, "duration": 9, "velocity": 81}, {"time": 427, "pitch": 76, "duration": 5, "velocity": 74}, {"time": 439, "pitch": 40, "duration": 40, "velocity": 86}, {"time": 445, "pitch": 47, "duration": 35, "velocity": 69}, {"time": 451, "pitch": 56, "duration": 7, "velocity": 95}, {"time": 457, "pitch": 52, "duration": 7, "velocity": 82}, {"time": 463, "pitch": 56, "duration": 6, "velocity": 75}, {"time": 463, "pitch": 59, "duration": 8, "velocity": 80}, {"time": 469, "pitch": 52, "duration": 7, "velocity": 79}, {"time": 475, "pitch": 64, "duration": 14, "velocity": 86}, {"time": 481, "pitch": 52, "duration": 5, "velocity": 86}, {"time": 487, "pitch": 47, "duration": 41, "velocity": 84}, {"time": 493, "pitch": 59, "duration": 8, "velocity": 77}, {"time": 499, "pitch": 63, "duration": 7, "velocity": 82}, {"time": 505, "pitch": 54, "duration": 8, "velocity": 71}, {"time": 511, "pitch": 59, "duration": 8, "velocity": 81}, {"time": 511, "pitch": 66, "duration": 7, "velocity": 76}, {"time": 517, "pitch": 54, "duration": 7, "velocity": 65}, {"time": 523, "pitch": 59, "duration": 1, "velocity": 72}, {"time": 523, "pitch": 63, "duration": 5, "velocity": 83}, {"time": 535, "pitch": 37, "duration": 36, "velocity": 84}, {"time": 541, "pitch": 61, "duration": 7, "velocity": 82}, {"time": 547, "pitch": 64, "duration": 7, "velocity": 81}, {"time": 553, "pitch": 61, "duration": 3, "velocity": 82}, {"time": 559, "pitch": 61, "duration": 9, "velocity": 90}, {"time": 559, "pitch": 68, "duration": 9, "velocity": 84}, {"time": 565, "pitch": 44, "duration": 7, "velocity": 70}, {"time": 571, "pitch": 61, "duration": 3, "velocity": 84}, {"time": 571, "pitch": 64, "duration": 6, "velocity": 88}, {"time": 577, "pitch": 61, "duration": 2, "velocity": 76}, {"time": 583, "pitch": 47, "duration": 37, "velocity": 80}, {"time": 583, "pitch": 59, "duration": 7, "velocity": 82}, {"time": 583, "pitch": 63, "duration": 9, "velocity": 75}, {"time": 589, "pitch": 54, "duration": 7, "velocity": 68}, {"time": 595, "pitch": 59, "duration": 8, "velocity": 95}, {"time": 601, "pitch": 54, "duration": 8, "velocity": 74}, {"time": 607, "pitch": 59, "duration": 13, "velocity": 83}, {"time": 607, "pitch": 66, "duration": 12, "velocity": 70}, {"time": 613, "pitch": 54, "duration": 6, "velocity": 72}, {"time": 619, "pitch": 63, "duration": 5, "velocity": 83}, {"time": 631, "pitch": 44, "duration": 38, "velocity": 82}, {"time": 631, "pitch": 56, "duration": 7, "velocity": 76}, {"time": 631, "pitch": 59, "duration": 12, "velocity": 81}, {"time": 637, "pitch": 51, "duration": 9, "velocity": 72}, {"time": 643, "pitch": 56, "duration": 8, "velocity": 85}, {"time": 649, "pitch": 59, "duration": 3, "velocity": 77}, {"time": 655, "pitch": 63, "duration": 7, "velocity": 83}, {"time": 661, "pitch": 51, "duration": 8, "velocity": 57}, {"time": 667, "pitch": 56, "duration": 2, "velocity": 81}, {"time": 667, "pitch": 59, "duration": 2, "velocity": 81}, {"time": 679, "pitch": 37, "duration": 39, "velocity": 81}, {"time": 679, "pitch": 61, "duration": 6, "velocity": 78}, {"time": 679, "pitch": 64, "duration": 13, "velocity": 83}, {"time": 685, "pitch": 44, "duration": 9, "velocity": 67}, {"time": 691, "pitch": 61, "duration": 18, "velocity": 83}, {"time": 697, "pitch": 44, "duration": 9, "velocity": 56}, {"time": 703, "pitch": 68, "duration": 8, "velocity": 87}, {"time": 709, "pitch": 44, "duration": 9, "velocity": 63}, {"time": 715, "pitch": 61, "duration": 4, "velocity": 85}, {"time": 715, "pitch": 64, "duration": 4, "velocity": 88}, {"time": 715, "pitch": 68, "duration": 4, "velocity": 81}, {"time": 721, "pitch": 37, "duration": 2, "velocity": 81}, {"time": 727, "pitch": 42, "duration": 37, "velocity": 79}, {"time": 727, "pitch": 54, "duration": 8, "velocity": 75}, {"time": 727, "pitch": 57, "duration": 13, "velocity": 74}, {"time": 733, "pitch": 49, "duration": 9, "velocity": 68}, {"time": 739, "pitch": 54, "duration": 24, "velocity": 86}, {"time": 745, "pitch": 49, "duration": 8, "velocity": 64}, {"time": 751, "pitch": 61, "duration": 12, "velocity": 84}, {"time": 757, "pitch": 49, "duration": 7, "velocity": 68}, {"time": 763, "pitch": 57, "duration": 7, "velocity": 76}, {"time": 769, "pitch": 54, "duration": 6, "velocity": 88}, {"time": 775, "pitch": 47, "duration": 49, "velocity": 83}, {"time": 781, "pitch": 59, "duration": 8, "velocity": 78}, {"time": 787, "pitch": 54, "duration": 14, "velocity": 75}, {"time": 793, "pitch": 59, "duration": 4, "velocity": 85}, {"time": 799, "pitch": 59, "duration": 1, "velocity": 69}, {"time": 799, "pitch": 63, "duration": 7, "velocity": 87}, {"time": 799, "pitch": 66, "duration": 7, "velocity": 86}, {"time": 805, "pitch": 54, "duration": 18, "velocity": 74}, {"time": 805, "pitch": 59, "duration": 3, "velocity": 48}, {"time": 811, "pitch": 63, "duration": 4, "velocity": 81}, {"time": 811, "pitch": 66, "duration": 4, "velocity": 77}, {"time": 811, "pitch": 71, "duration": 3, "velocity": 83}, {"time": 817, "pitch": 69, "duration": 5, "velocity": 82}, {"time": 823, "pitch": 40, "duration": 40, "velocity": 86}, {"time": 829, "pitch": 47, "duration": 35, "velocity": 69}, {"time": 835, "pitch": 56, "duration": 7, "velocity": 95}, {"time": 841, "pitch": 52, "duration": 7, "velocity": 82}, {"time": 847, "pitch": 56, "duration": 6, "velocity": 75}, {"time": 847, "pitch": 59, "duration": 8, "velocity": 80}, {"time": 853, "pitch": 52, "duration": 7, "velocity": 79}, {"time": 859, "pitch": 64, "duration": 14, "velocity": 86}, {"time": 865, "pitch": 52, "duration": 5, "velocity": 86}, {"time": 871, "pitch": 47, "duration": 41, "velocity": 84}, {"time": 877, "pitch": 59, "duration": 8, "velocity": 77}, {"time": 883, "pitch": 63, "duration": 7, "velocity": 82}, {"time": 889, "pitch": 54, "duration": 8, "velocity": 71}, {"time": 895, "pitch": 59, "duration": 8, "velocity": 81}, {"time": 895, "pitch": 66, "duration": 7, "velocity": 76}, {"time": 901, "pitch": 54, "duration": 7, "velocity": 65}, {"time": 907, "pitch": 59, "duration": 1, "velocity": 72}, {"time": 907, "pitch": 63, "duration": 5, "velocity": 83}, {"time": 919, "pitch": 37, "duration": 36, "velocity": 84}, {"time": 925, "pitch": 61, "duration": 7, "velocity": 82}, {"time": 931, "pitch": 64, "duration": 7, "velocity": 81}, {"time": 937, "pitch": 61, "duration": 3, "velocity": 82}, {"time": 943, "pitch": 61, "duration": 9, "velocity": 90}, {"time": 943, "pitch": 68, "duration": 9, "velocity": 84}, {"time": 949, "pitch": 44, "duration": 7, "velocity": 70}, {"time": 955, "pitch": 61, "duration": 3, "velocity": 84}, {"time": 955, "pitch": 64, "duration": 6, "velocity": 88}, {"time": 961, "pitch": 61, "duration": 2, "velocity": 76}, {"time": 967, "pitch": 47, "duration": 37, "velocity": 80}, {"time": 967, "pitch": 59, "duration": 7, "velocity": 82}, {"time": 967, "pitch": 63, "duration": 9, "velocity": 75}, {"time": 973, "pitch": 54, "duration": 7, "velocity": 68}, {"time": 979, "pitch": 59, "duration": 8, "velocity": 95}, {"time": 985, "pitch": 54, "duration": 8, "velocity": 74}, {"time": 991, "pitch": 59, "duration": 13, "velocity": 83}, {"time": 991, "pitch": 66, "duration": 12, "velocity": 70}, {"time": 997, "pitch": 54, "duration": 6, "velocity": 72}, {"time": 1003, "pitch": 63, "duration": 5, "velocity": 83}, {"time": 1015, "pitch": 44, "duration": 38, "velocity": 82}, {"time": 1015, "pitch": 56, "duration": 7, "velocity": 76}, {"time": 1015, "pitch": 59, "duration": 12, "velocity": 81}, {"time": 1021, "pitch": 51, "duration": 9, "velocity": 72}, {"time": 1027, "pitch": 56, "duration": 8, "velocity": 85}, {"time": 1033, "pitch": 59, "duration": 3, "velocity": 77}, {"time": 1039, "pitch": 63, "duration": 7, "velocity": 83}, {"time": 1045, "pitch": 51, "duration": 8, "velocity": 57}, {"time": 1051, "pitch": 56, "duration": 2, "velocity": 81}, {"time": 1051, "pitch": 59, "duration": 2, "velocity": 81}, {"time": 1063, "pitch": 37, "duration": 39, "velocity": 81}, {"time": 1063, "pitch": 61, "duration": 6, "velocity": 78}, {"time": 1063, "pitch": 64, "duration": 13, "velocity": 83}, {"time": 1069, "pitch": 44, "duration": 9, "velocity": 67}, {"time": 1075, "pitch": 61, "duration": 18, "velocity": 83}, {"time": 1081, "pitch": 44, "duration": 9, "velocity": 56}, {"time": 1087, "pitch": 68, "duration": 8, "velocity": 87}, {"time": 1093, "pitch": 44, "duration": 9, "velocity": 63}, {"time": 1099, "pitch": 61, "duration": 4, "velocity": 85}, {"time": 1099, "pitch": 64, "duration": 4, "velocity": 88}, {"time": 1099, "pitch": 68, "duration": 4, "velocity": 81}, {"time": 1105, "pitch": 37, "duration": 2, "velocity": 81}, {"time": 1111, "pitch": 42, "duration": 37, "velocity": 79}, {"time": 1111, "pitch": 54, "duration": 8, "velocity": 75}, {"time": 1111, "pitch": 57, "duration": 13, "velocity": 74}, {"time": 1117, "pitch": 49, "duration": 9, "velocity": 68}, {"time": 1123, "pitch": 54, "duration": 24, "velocity": 86}, {"time": 1129, "pitch": 49, "duration": 8, "velocity": 64}, {"time": 1135, "pitch": 61, "duration": 12, "velocity": 84}, {"time": 1141, "pitch": 49, "duration": 7, "velocity": 68}, {"time": 1147, "pitch": 57, "duration": 7, "velocity": 76}, {"time": 1153, "pitch": 54, "duration": 6, "velocity": 88}, {"time": 1159, "pitch": 47, "duration": 49, "velocity": 83}, {"time": 1165, "pitch": 59, "duration": 8, "velocity": 78}, {"time": 1171, "pitch": 54, "duration": 14, "velocity": 75}, {"time": 1177, "pitch": 59, "duration": 4, "velocity": 85}, {"time": 1183, "pitch": 59, "duration": 1, "velocity": 69}, {"time": 1183, "pitch": 63, "duration": 7, "velocity": 87}, {"time": 1183, "pitch": 66, "duration": 7, "velocity": 86}, {"time": 1189, "pitch": 54, "duration": 18, "velocity": 74}, {"time": 1189, "pitch": 59, "duration": 3, "velocity": 48}, {"time": 1195, "pitch": 63, "duration": 4, "velocity": 81}, {"time": 1195, "pitch": 66, "duration": 4, "velocity": 77}, {"time": 1195, "pitch": 71, "duration": 3, "velocity": 83}, {"time": 1201, "pitch": 69, "duration": 5, "velocity": 82}, {"time": 1207, "pitch": 40, "duration": 38, "velocity": 85}, {"time": 1207, "pitch": 52, "duration": 8, "velocity": 82}, {"time": 1207, "pitch": 56, "duration": 7, "velocity": 77}, {"time": 1207, "pitch": 59, "duration": 7, "velocity": 82}, {"time": 1213, "pitch": 47, "duration": 7, "velocity": 64}, {"time": 1219, "pitch": 52, "duration": 4, "velocity": 87}, {"time": 1219, "pitch": 56, "duration": 4, "velocity": 90}, {"time": 1219, "pitch": 59, "duration": 4, "velocity": 85}, {"time": 1225, "pitch": 47, "duration": 7, "velocity": 69}, {"time": 1228, "pitch": 52, "duration": 4, "velocity": 82}, {"time": 1231, "pitch": 56, "duration": 4, "velocity": 85}, {"time": 1234, "pitch": 59, "duration": 2, "velocity": 80}, {"time": 1243, "pitch": 52, "duration": 5, "velocity": 82}, {"time": 1243, "pitch": 56, "duration": 5, "velocity": 86}, {"time": 1243, "pitch": 59, "duration": 6, "velocity": 83}, {"time": 1243, "pitch": 64, "duration": 11, "velocity": 82}, {"time": 1249, "pitch": 47, "duration": 2, "velocity": 74}, {"time": 1252, "pitch": 52, "duration": 3, "velocity": 78}, {"time": 1255, "pitch": 47, "duration": 15, "velocity": 86}, {"time": 1267, "pitch": 59, "duration": 4, "velocity": 86}, {"time": 1267, "pitch": 66, "duration": 4, "velocity": 83}, {"time": 1273, "pitch": 54, "duration": 3, "velocity": 58}, {"time": 1276, "pitch": 59, "duration": 3, "velocity": 85}, {"time": 1276, "pitch": 63, "duration": 2, "velocity": 84}, {"time": 1276, "pitch": 66, "duration": 3, "velocity": 75}, {"time": 1279, "pitch": 51, "duration": 3, "velocity": 54}, {"time": 1282, "pitch": 54, "duration": 10, "velocity": 75}, {"time": 1285, "pitch": 59, "duration": 5, "velocity": 82}, {"time": 1288, "pitch": 63, "duration": 2, "velocity": 90}, {"time": 1291, "pitch": 59, "duration": 4, "velocity": 80}, {"time": 1291, "pitch": 63, "duration": 5, "velocity": 81}, {"time": 1291, "pitch": 71, "duration": 6, "velocity": 84}, {"time": 1297, "pitch": 51, "duration": 2, "velocity": 75}, {"time": 1303, "pitch": 49, "duration": 15, "velocity": 85}, {"time": 1303, "pitch": 61, "duration": 7, "velocity": 72}, {"time": 1303, "pitch": 64, "duration": 6, "velocity": 82}, {"time": 1309, "pitch": 56, "duration": 8, "velocity": 60}, {"time": 1315, "pitch": 61, "duration": 3, "velocity": 82}, {"time": 1315, "pitch": 68, "duration": 2, "velocity": 81}, {"time": 1324, "pitch": 61, "duration": 3, "velocity": 82}, {"time": 1324, "pitch": 64, "duration": 4, "velocity": 85}, {"time": 1330, "pitch": 49, "duration": 4, "velocity": 77}, {"time": 1333, "pitch": 56, "duration": 6, "velocity": 86}, {"time": 1336, "pitch": 61, "duration": 2, "velocity": 81}, {"time": 1339, "pitch": 61, "duration": 4, "velocity": 82}, {"time": 1339, "pitch": 64, "duration": 6, "velocity": 95}, {"time": 1339, "pitch": 68, "duration": 10, "velocity": 82}, {"time": 1345, "pitch": 61, "duration": 6, "velocity": 81}, {"time": 1351, "pitch": 47, "duration": 14, "velocity": 82}, {"time": 1357, "pitch": 59, "duration": 3, "velocity": 81}, {"time": 1363, "pitch": 59, "duration": 3, "velocity": 86}, {"time": 1363, "pitch": 66, "duration": 3, "velocity": 83}, {"time": 1369, "pitch": 54, "duration": 3, "velocity": 44}, {"time": 1372, "pitch": 59, "duration": 2, "velocity": 82}, {"time": 1372, "pitch": 63, "duration": 2, "velocity": 84}, {"time": 1375, "pitch": 51, "duration": 3, "velocity": 68}, {"time": 1378, "pitch": 54, "duration": 8, "velocity": 74}, {"time": 1381, "pitch": 59, "duration": 4, "velocity": 92}, {"time": 1387, "pitch": 59, "duration": 4, "velocity": 87}, {"time": 1387, "pitch": 66, "duration": 5, "velocity": 81}, {"time": 1393, "pitch": 54, "duration": 2, "velocity": 76}, {"time": 1399, "pitch": 44, "duration": 24, "velocity": 88}, {"time": 1405, "pitch": 56, "duration": 3, "velocity": 81}, {"time": 1411, "pitch": 56, "duration": 3, "velocity": 87}, {"time": 1411, "pitch": 63, "duration": 3, "velocity": 81}, {"time": 1417, "pitch": 51, "duration": 4, "velocity": 53}, {"time": 1420, "pitch": 56, "duration": 3, "velocity": 83}, {"time": 1420, "pitch": 59, "duration": 3, "velocity": 82}, {"time": 1423, "pitch": 51, "duration": 2, "velocity": 60}, {"time": 1426, "pitch": 56, "duration": 3, "velocity": 84}, {"time": 1429, "pitch": 59, "duration": 3, "velocity": 77}, {"time": 1435, "pitch": 56, "duration": 3, "velocity": 84}, {"time": 1435, "pitch": 59, "duration": 3, "velocity": 86}, {"time": 1435, "pitch": 63, "duration": 3, "velocity": 82}, {"time": 1447, "pitch": 49, "duration": 43, "velocity": 81}, {"time": 1447, "pitch": 61, "duration": 7, "velocity": 78}, {"time": 1447, "pitch": 64, "duration": 7, "velocity": 82}, {"time": 1447, "pitch": 68, "duration": 7, "velocity": 73}, {"time": 1453, "pitch": 56, "duration": 8, "velocity": 64}, {"time": 1459, "pitch": 61, "duration": 3, "velocity": 87}, {"time": 1459, "pitch": 68, "duration": 3, "velocity": 83}, {"time": 1468, "pitch": 61, "duration": 1, "velocity": 71}, {"time": 1468, "pitch": 64, "duration": 1, "velocity": 74}, {"time": 1471, "pitch": 61, "duration": 6, "velocity": 77}, {"time": 1471, "pitch": 64, "duration": 6, "velocity": 84}, {"time": 1477, "pitch": 56, "duration": 6, "velocity": 60}, {"time": 1480, "pitch": 61, "duration": 1, "velocity": 81}, {"time": 1480, "pitch": 68, "duration": 1, "velocity": 73}, {"time": 1483, "pitch": 61, "duration": 6, "velocity": 82}, {"time": 1483, "pitch": 68, "duration": 11, "velocity": 83}, {"time": 1489, "pitch": 56, "duration": 2, "velocity": 81}, {"time": 1492, "pitch": 61, "duration": 3, "velocity": 73}, {"time": 1495, "pitch": 42, "duration": 34, "velocity": 86}, {"time": 1501, "pitch": 54, "duration": 3, "velocity": 78}, {"time": 1507, "pitch": 54, "duration": 5, "velocity": 85}, {"time": 1507, "pitch": 57, "duration": 4, "velocity": 81}, {"time": 1513, "pitch": 49, "duration": 5, "velocity": 47}, {"time": 1516, "pitch": 54, "duration": 4, "velocity": 82}, {"time": 1516, "pitch": 61, "duration": 3, "velocity": 82}, {"time": 1519, "pitch": 49, "duration": 7, "velocity": 69}, {"time": 1525, "pitch": 54, "duration": 5, "velocity": 86}, {"time": 1525, "pitch": 57, "duration": 6, "velocity": 86}, {"time": 1531, "pitch": 49, "duration": 2, "velocity": 82}, {"time": 1534, "pitch": 54, "duration": 5, "velocity": 88}, {"time": 1537, "pitch": 57, "duration": 3, "velocity": 81}, {"time": 1540, "pitch": 61, "duration": 2, "velocity": 82}, {"time": 1543, "pitch": 47, "duration": 19, "velocity": 83}, {"time": 1549, "pitch": 59, "duration": 3, "velocity": 81}, {"time": 1555, "pitch": 59, "duration": 6, "velocity": 87}, {"time": 1555, "pitch": 63, "duration": 7, "velocity": 92}, {"time": 1555, "pitch": 66, "duration": 10, "velocity": 88}, {"time": 1561, "pitch": 51, "duration": 3, "velocity": 61}, {"time": 1564, "pitch": 59, "duration": 1, "velocity": 88}, {"time": 1567, "pitch": 45, "duration": 9, "velocity": 83}, {"time": 1570, "pitch": 52, "duration": 7, "velocity": 82}, {"time": 1573, "pitch": 57, "duration": 5, "velocity": 87}, {"time": 1576, "pitch": 61, "duration": 3, "velocity": 87}, {"time": 1579, "pitch": 47, "duration": 13, "velocity": 85}, {"time": 1582, "pitch": 54, "duration": 2, "velocity": 70}, {"time": 1585, "pitch": 59, "duration": 4, "velocity": 83}, {"time": 1588, "pitch": 63, "duration": 2, "velocity": 83}, {"time": 1591, "pitch": 40, "duration": 38, "velocity": 85}, {"time": 1591, "pitch": 52, "duration": 8, "velocity": 82}, {"time": 1591, "pitch": 56, "duration": 7, "velocity": 77}, {"time": 1591, "pitch": 59, "duration": 7, "velocity": 82}, {"time": 1597, "pitch": 47, "duration": 7, "velocity": 64}, {"time": 1603, "pitch": 52, "duration": 4, "velocity": 87}, {"time": 1603, "pitch": 56, "duration": 4, "velocity": 90}, {"time": 1603, "pitch": 59, "duration": 4, "velocity": 85}, {"time": 1609, "pitch": 47, "duration": 7, "velocity": 69}, {"time": 1612, "pitch": 52, "duration": 4, "velocity": 82}, {"time": 1615, "pitch": 56, "duration": 4, "velocity": 85}, {"time": 1618, "pitch": 59, "duration": 2, "velocity": 80}, {"time": 1627, "pitch": 52, "duration": 5, "velocity": 82}, {"time": 1627, "pitch": 56, "duration": 5, "velocity": 86}, {"time": 1627, "pitch": 59, "duration": 6, "velocity": 83}, {"time": 1627, "pitch": 64, "duration": 11, "velocity": 82}, {"time": 1633, "pitch": 47, "duration": 2, "velocity": 74}, {"time": 1636, "pitch": 52, "duration": 3, "velocity": 78}, {"time": 1639, "pitch": 47, "duration": 15, "velocity": 86}, {"time": 1651, "pitch": 59, "duration": 4, "velocity": 86}, {"time": 1651, "pitch": 66, "duration": 4, "velocity": 83}, {"time": 1657, "pitch": 54, "duration": 3, "velocity": 58}, {"time": 1660, "pitch": 59, "duration": 3, "velocity": 85}, {"time": 1660, "pitch": 63, "duration": 2, "velocity": 84}, {"time": 1660, "pitch": 66, "duration": 3, "velocity": 75}, {"time": 1663, "pitch": 51, "duration": 3, "velocity": 54}, {"time": 1666, "pitch": 54, "duration": 10, "velocity": 75}, {"time": 1669, "pitch": 59, "duration": 5, "velocity": 82}, {"time": 1672, "pitch": 63, "duration": 2, "velocity": 90}, {"time": 1675, "pitch": 59, "duration": 4, "velocity": 80}, {"time": 1675, "pitch": 63, "duration": 5, "velocity": 81}, {"time": 1675, "pitch": 71, "duration": 6, "velocity": 84}, {"time": 1681, "pitch": 51, "duration": 2, "velocity": 75}, {"time": 1687, "pitch": 49, "duration": 15, "velocity": 85}, {"time": 1687, "pitch": 61, "duration": 7, "velocity": 72}, {"time": 1687, "pitch": 64, "duration": 6, "velocity": 82}, {"time": 1693, "pitch": 56, "duration": 8, "velocity": 60}, {"time": 1699, "pitch": 61, "duration": 3, "velocity": 82}, {"time": 1699, "pitch": 68, "duration": 2, "velocity": 81}, {"time": 1708, "pitch": 61, "duration": 3, "velocity": 82}, {"time": 1708, "pitch": 64, "duration": 4, "velocity": 85}, {"time": 1714, "pitch": 49, "duration": 4, "velocity": 77}, {"time": 1717, "pitch": 56, "duration": 6, "velocity": 86}, {"time": 1720, "pitch": 61, "duration": 2, "velocity": 81}, {"time": 1723, "pitch": 61, "duration": 4, "velocity": 82}, {"time": 1723, "pitch": 64, "duration": 6, "velocity": 95}, {"time": 1723, "pitch": 68, "duration": 10, "velocity": 82}, {"time": 1729, "pitch": 61, "duration": 6, "velocity": 81}, {"time": 1735, "pitch": 47, "duration": 14, "velocity": 82}, {"time": 1741, "pitch": 59, "duration": 3, "velocity": 81}, {"time": 1747, "pitch": 59, "duration": 3, "velocity": 86}, {"time": 1747, "pitch": 66, "duration": 3, "velocity": 83}, {"time": 1753, "pitch": 54, "duration": 3, "velocity": 44}, {"time": 1756, "pitch": 59, "duration": 2, "velocity": 82}, {"time": 1756, "pitch": 63, "duration": 2, "velocity": 84}, {"time": 1759, "pitch": 51, "duration": 3, "velocity": 68}, {"time": 1762, "pitch": 54, "duration": 8, "velocity": 74}, {"time": 1765, "pitch": 59, "duration": 4, "velocity": 92}, {"time": 1771, "pitch": 59, "duration": 4, "velocity": 87}, {"time": 1771, "pitch": 66, "duration": 5, "velocity": 81}, {"time": 1777, "pitch": 54, "duration": 2, "velocity": 76}, {"time": 1783, "pitch": 44, "duration": 24, "velocity": 88}, {"time": 1789, "pitch": 56, "duration": 3, "velocity": 81}, {"time": 1795, "pitch": 56, "duration": 3, "velocity": 87}, {"time": 1795, "pitch": 63, "duration": 3, "velocity": 81}, {"time": 1801, "pitch": 51, "duration": 4, "velocity": 53}, {"time": 1804, "pitch": 56, "duration": 3, "velocity": 83}, {"time": 1804, "pitch": 59, "duration": 3, "velocity": 82}, {"time": 1807, "pitch": 51, "duration": 2, "velocity": 60}, {"time": 1810, "pitch": 56, "duration": 3, "velocity": 84}, {"time": 1813, "pitch": 59, "duration": 3, "velocity": 77}, {"time": 1819, "pitch": 56, "duration": 3, "velocity": 84}, {"time": 1819, "pitch": 59, "duration": 3, "velocity": 86}, {"time": 1819, "pitch": 63, "duration": 3, "velocity": 82}, {"time": 1831, "pitch": 49, "duration": 43, "velocity": 81}, {"time": 1831, "pitch": 61, "duration": 7, "velocity": 78}, {"time": 1831, "pitch": 64, "duration": 7, "velocity": 82}, {"time": 1831, "pitch": 68, "duration": 7, "velocity": 73}, {"time": 1837, "pitch": 56, "duration": 8, "velocity": 64}, {"time": 1843, "pitch": 61, "duration": 3, "velocity": 87}, {"time": 1843, "pitch": 68, "duration": 3, "velocity": 83}, {"time": 1852, "pitch": 61, "duration": 1, "velocity": 71}, {"time": 1852, "pitch": 64, "duration": 1, "velocity": 74}, {"time": 1855, "pitch": 61, "duration": 6, "velocity": 77}, {"time": 1855, "pitch": 64, "duration": 6, "velocity": 84}, {"time": 1861, "pitch": 56, "duration": 6, "velocity": 60}, {"time": 1864, "pitch": 61, "duration": 1, "velocity": 81}, {"time": 1864, "pitch": 68, "duration": 1, "velocity": 73}, {"time": 1867, "pitch": 61, "duration": 6, "velocity": 82}, {"time": 1867, "pitch": 68, "duration": 11, "velocity": 83}, {"time": 1873, "pitch": 56, "duration": 2, "velocity": 81}, {"time": 1876, "pitch": 61, "duration": 3, "velocity": 73}, {"time": 1879, "pitch": 42, "duration": 14, "velocity": 85}, {"time": 1879, "pitch": 54, "duration": 8, "velocity": 81}, {"time": 1879, "pitch": 61, "duration": 1, "velocity": 75}, {"time": 1885, "pitch": 49, "duration": 8, "velocity": 84}, {"time": 1891, "pitch": 54, "duration": 4, "velocity": 85}, {"time": 1891, "pitch": 57, "duration": 7, "velocity": 84}, {"time": 1891, "pitch": 61, "duration": 10, "velocity": 85}, {"time": 1897, "pitch": 49, "duration": 2, "velocity": 83}, {"time": 1900, "pitch": 54, "duration": 3, "velocity": 87}, {"time": 1903, "pitch": 47, "duration": 14, "velocity": 86}, {"time": 1909, "pitch": 59, "duration": 3, "velocity": 86}, {"time": 1915, "pitch": 59, "duration": 3, "velocity": 90}, {"time": 1915, "pitch": 63, "duration": 4, "velocity": 87}, {"time": 1915, "pitch": 66, "duration": 7, "velocity": 83}, {"time": 1921, "pitch": 59, "duration": 4, "velocity": 82}, {"time": 1927, "pitch": 40, "duration": 49, "velocity": 85}, {"time": 1927, "pitch": 59, "duration": 3, "velocity": 83}, {"time": 1927, "pitch": 64, "duration": 3, "velocity": 84}, {"time": 1933, "pitch": 47, "duration": 8, "velocity": 70}, {"time": 1939, "pitch": 52, "duration": 6, "velocity": 86}, {"time": 1939, "pitch": 59, "duration": 3, "velocity": 85}, {"time": 1942, "pitch": 47, "duration": 9, "velocity": 67}, {"time": 1948, "pitch": 52, "duration": 1, "velocity": 78}, {"time": 1948, "pitch": 56, "duration": 1, "velocity": 76}, {"time": 1948, "pitch": 59, "duration": 2, "velocity": 81}, {"time": 1951, "pitch": 52, "duration": 8, "velocity": 81}, {"time": 1951, "pitch": 56, "duration": 7, "velocity": 81}, {"time": 1951, "pitch": 59, "duration": 9, "velocity": 82}, {"time": 1957, "pitch": 47, "duration": 19, "velocity": 77}, {"time": 1963, "pitch": 52, "duration": 3, "velocity": 87}, {"time": 1963, "pitch": 64, "duration": 7, "velocity": 85}, {"time": 1969, "pitch": 59, "duration": 6, "velocity": 79}, {"time": 1975, "pitch": 40, "duration": 1, "velocity": 84}, {"time": 1975, "pitch": 59, "duration": 1, "velocity": 83}, {"time": 1975, "pitch": 68, "duration": 4, "velocity": 81}, {"time": 1981, "pitch": 47, "duration": 20, "velocity": 75}, {"time": 1987, "pitch": 68, "duration": 5, "velocity": 98}, {"time": 1993, "pitch": 64, "duration": 3, "velocity": 85}, {"time": 1999, "pitch": 64, "duration": 5, "velocity": 86}, {"time": 1999, "pitch": 68, "duration": 5, "velocity": 86}, {"time": 1999, "pitch": 71, "duration": 6, "velocity": 86}, {"time": 2005, "pitch": 47, "duration": 8, "velocity": 74}, {"time": 2008, "pitch": 64, "duration": 2, "velocity": 90}, {"time": 2011, "pitch": 64, "duration": 3, "velocity": 82}, {"time": 2011, "pitch": 68, "duration": 11, "velocity": 92}, {"time": 2011, "pitch": 71, "duration": 11, "velocity": 86}, {"time": 2011, "pitch": 76, "duration": 12, "velocity": 84}, {"time": 2017, "pitch": 64, "duration": 7, "velocity": 83}, {"time": 2023, "pitch": 49, "duration": 40, "velocity": 83}, {"time": 2029, "pitch": 56, "duration": 10, "velocity": 68}, {"time": 2035, "pitch": 61, "duration": 3, "velocity": 86}, {"time": 2035, "pitch": 68, "duration": 3, "velocity": 83}, {"time": 2041, "pitch": 56, "duration": 4, "velocity": 49}, {"time": 2044, "pitch": 61, "duration": 3, "velocity": 83}, {"time": 2044, "pitch": 64, "duration": 3, "velocity": 85}, {"time": 2047, "pitch": 56, "duration": 4, "velocity": 63}, {"time": 2050, "pitch": 61, "duration": 3, "velocity": 87}, {"time": 2053, "pitch": 56, "duration": 9, "velocity": 74}, {"time": 2059, "pitch": 61, "duration": 5, "velocity": 82}, {"time": 2059, "pitch": 68, "duration": 12, "velocity": 83}, {"time": 2065, "pitch": 56, "duration": 2, "velocity": 70}, {"time": 2068, "pitch": 61, "duration": 4, "velocity": 78}, {"time": 2071, "pitch": 42, "duration": 39, "velocity": 86}, {"time": 2077, "pitch": 49, "duration": 24, "velocity": 69}, {"time": 2083, "pitch": 54, "duration": 4, "velocity": 82}, {"time": 2083, "pitch": 57, "duration": 3, "velocity": 81}, {"time": 2092, "pitch": 54, "duration": 3, "velocity": 83}, {"time": 2092, "pitch": 61, "duration": 3, "velocity": 83}, {"time": 2098, "pitch": 57, "duration": 3, "velocity": 81}, {"time": 2101, "pitch": 54, "duration": 3, "velocity": 85}, {"time": 2107, "pitch": 54, "duration": 5, "velocity": 87}, {"time": 2107, "pitch": 61, "duration": 9, "velocity": 83}, {"time": 2113, "pitch": 49, "duration": 1, "velocity": 80}, {"time": 2116, "pitch": 54, "duration": 3, "velocity": 84}, {"time": 2119, "pitch": 47, "duration": 47, "velocity": 83}, {"time": 2125, "pitch": 59, "duration": 4, "velocity": 84}, {"time": 2131, "pitch": 59, "duration": 6, "velocity": 84}, {"time": 2131, "pitch": 63, "duration": 4, "velocity": 87}, {"time": 2131, "pitch": 66, "duration": 4, "velocity": 84}, {"time": 2137, "pitch": 54, "duration": 4, "velocity": 75}, {"time": 2140, "pitch": 59, "duration": 4, "velocity": 80}, {"time": 2140, "pitch": 63, "duration": 4, "velocity": 78}, {"time": 2140, "pitch": 66, "duration": 4, "velocity": 76}, {"time": 2140, "pitch": 69, "duration": 5, "velocity": 82}, {"time": 2143, "pitch": 54, "duration": 4, "velocity": 78}, {"time": 2146, "pitch": 59, "duration": 4, "velocity": 86}, {"time": 2149, "pitch": 63, "duration": 3, "velocity": 73}, {"time": 2149, "pitch": 66, "duration": 3, "velocity": 75}, {"time": 2155, "pitch": 59, "duration": 1, "velocity": 61}, {"time": 2155, "pitch": 63, "duration": 10, "velocity": 77}, {"time": 2155, "pitch": 71, "duration": 10, "velocity": 87}, {"time": 2161, "pitch": 59, "duration": 6, "velocity": 81}, {"time": 2167, "pitch": 40, "duration": 39, "velocity": 84}, {"time": 2167, "pitch": 59, "duration": 1, "velocity": 83}, {"time": 2167, "pitch": 68, "duration": 4, "velocity": 81}, {"time": 2173, "pitch": 47, "duration": 20, "velocity": 75}, {"time": 2179, "pitch": 68, "duration": 5, "velocity": 98}, {"time": 2185, "pitch": 64, "duration": 3, "velocity": 85}, {"time": 2191, "pitch": 64, "duration": 5, "velocity": 86}, {"time": 2191, "pitch": 68, "duration": 5, "velocity": 86}, {"time": 2191, "pitch": 71, "duration": 6, "velocity": 86}, {"time": 2197, "pitch": 47, "duration": 8, "velocity": 74}, {"time": 2200, "pitch": 64, "duration": 2, "velocity": 90}, {"time": 2203, "pitch": 64, "duration": 3, "velocity": 82}, {"time": 2203, "pitch": 68, "duration": 11, "velocity": 92}, {"time": 2203, "pitch": 71, "duration": 11, "velocity": 86}, {"time": 2203, "pitch": 76, "duration": 12, "velocity": 84}, {"time": 2209, "pitch": 64, "duration": 7, "velocity": 83}, {"time": 2215, "pitch": 49, "duration": 40, "velocity": 83}, {"time": 2221, "pitch": 56, "duration": 10, "velocity": 68}, {"time": 2227, "pitch": 61, "duration": 3, "velocity": 86}, {"time": 2227, "pitch": 68, "duration": 3, "velocity": 83}, {"time": 2233, "pitch": 56, "duration": 4, "velocity": 49}, {"time": 2236, "pitch": 61, "duration": 3, "velocity": 83}, {"time": 2236, "pitch": 64, "duration": 3, "velocity": 85}, {"time": 2239, "pitch": 56, "duration": 4, "velocity": 63}, {"time": 2242, "pitch": 61, "duration": 3, "velocity": 87}, {"time": 2245, "pitch": 56, "duration": 9, "velocity": 74}, {"time": 2251, "pitch": 61, "duration": 5, "velocity": 82}, {"time": 2251, "pitch": 68, "duration": 12, "velocity": 83}, {"time": 2257, "pitch": 56, "duration": 2, "velocity": 70}, {"time": 2260, "pitch": 61, "duration": 4, "velocity": 78}, {"time": 2263, "pitch": 42, "duration": 11, "velocity": 88}, {"time": 2269, "pitch": 49, "duration": 6, "velocity": 75}, {"time": 2272, "pitch": 54, "duration": 4, "velocity": 84}, {"time": 2275, "pitch": 61, "duration": 2, "velocity": 88}, {"time": 2278, "pitch": 54, "duration": 4, "velocity": 92}, {"time": 2281, "pitch": 57, "duration": 4, "velocity": 82}, {"time": 2284, "pitch": 61, "duration": 2, "velocity": 81}, {"time": 2287, "pitch": 47, "duration": 13, "velocity": 82}, {"time": 2293, "pitch": 54, "duration": 6, "velocity": 72}, {"time": 2299, "pitch": 59, "duration": 3, "velocity": 83}, {"time": 2299, "pitch": 63, "duration": 6, "velocity": 83}, {"time": 2299, "pitch": 66, "duration": 7, "velocity": 86}, {"time": 2305, "pitch": 59, "duration": 4, "velocity": 80}, {"time": 2311, "pitch": 40, "duration": 23, "velocity": 84}, {"time": 2311, "pitch": 59, "duration": 7, "velocity": 81}, {"time": 2311, "pitch": 64, "duration": 6, "velocity": 82}, {"time": 2317, "pitch": 47, "duration": 4, "velocity": 62}, {"time": 2320, "pitch": 59, "duration": 4, "velocity": 82}, {"time": 2320, "pitch": 64, "duration": 4, "velocity": 88}, {"time": 2320, "pitch": 68, "duration": 6, "velocity": 88}, {"time": 2323, "pitch": 47, "duration": 10, "velocity": 70}, {"time": 2326, "pitch": 59, "duration": 2, "velocity": 77}, {"time": 2326, "pitch": 64, "duration": 4, "velocity": 82}, {"time": 2329, "pitch": 59, "duration": 3, "velocity": 81}, {"time": 2335, "pitch": 40, "duration": 24, "velocity": 81}, {"time": 2335, "pitch": 59, "duration": 9, "velocity": 82}, {"time": 2335, "pitch": 64, "duration": 10, "velocity": 84}, {"time": 2341, "pitch": 47, "duration": 18, "velocity": 73}, {"time": 2347, "pitch": 59, "duration": 3, "velocity": 78}, {"time": 2347, "pitch": 68, "duration": 12, "velocity": 79}, {"time": 2353, "pitch": 59, "duration": 6, "velocity": 81}, {"time": 2359, "pitch": 40, "duration": 1, "velocity": 86}, {"time": 2365, "pitch": 47, "duration": 35, "velocity": 69}, {"time": 2371, "pitch": 56, "duration": 7, "velocity": 95}, {"time": 2377, "pitch": 52, "duration": 7, "velocity": 82}, {"time": 2383, "pitch": 56, "duration": 6, "velocity": 75}, {"time": 2383, "pitch": 59, "duration": 8, "velocity": 80}, {"time": 2389, "pitch": 52, "duration": 7, "velocity": 79}, {"time": 2395, "pitch": 64, "duration": 14, "velocity": 86}, {"time": 2401, "pitch": 52, "duration": 5, "velocity": 86}, {"time": 2407, "pitch": 47, "duration": 41, "velocity": 84}, {"time": 2413, "pitch": 59, "duration": 8, "velocity": 77}, {"time": 2419, "pitch": 63, "duration": 7, "velocity": 82}, {"time": 2425, "pitch": 54, "duration": 8, "velocity": 71}, {"time": 2431, "pitch": 59, "duration": 8, "velocity": 81}, {"time": 2431, "pitch": 66, "duration": 7, "velocity": 76}, {"time": 2437, "pitch": 54, "duration": 7, "velocity": 65}, {"time": 2443, "pitch": 59, "duration": 1, "velocity": 72}, {"time": 2443, "pitch": 63, "duration": 5, "velocity": 83}, {"time": 2455, "pitch": 37, "duration": 36, "velocity": 84}, {"time": 2461, "pitch": 61, "duration": 7, "velocity": 82}, {"time": 2467, "pitch": 64, "duration": 7, "velocity": 81}, {"time": 2473, "pitch": 61, "duration": 3, "velocity": 82}, {"time": 2479, "pitch": 61, "duration": 9, "velocity": 90}, {"time": 2479, "pitch": 68, "duration": 9, "velocity": 84}, {"time": 2485, "pitch": 44, "duration": 7, "velocity": 70}, {"time": 2491, "pitch": 61, "duration": 3, "velocity": 84}, {"time": 2491, "pitch": 64, "duration": 6, "velocity": 88}, {"time": 2497, "pitch": 61, "duration": 2, "velocity": 76}, {"time": 2503, "pitch": 47, "duration": 37, "velocity": 80}, {"time": 2503, "pitch": 59, "duration": 7, "velocity": 82}, {"time": 2503, "pitch": 63, "duration": 9, "velocity": 75}, {"time": 2509, "pitch": 54, "duration": 7, "velocity": 68}, {"time": 2515, "pitch": 59, "duration": 8, "velocity": 95}, {"time": 2521, "pitch": 54, "duration": 8, "velocity": 74}, {"time": 2527, "pitch": 59, "duration": 13, "velocity": 83}, {"time": 2527, "pitch": 66, "duration": 12, "velocity": 70}, {"time": 2533, "pitch": 54, "duration": 6, "velocity": 72}, {"time": 2539, "pitch": 63, "duration": 5, "velocity": 83}, {"time": 2551, "pitch": 44, "duration": 38, "velocity": 82}, {"time": 2551, "pitch": 56, "duration": 7, "velocity": 76}, {"time": 2551, "pitch": 59, "duration": 12, "velocity": 81}, {"time": 2557, "pitch": 51, "duration": 9, "velocity": 72}, {"time": 2563, "pitch": 56, "duration": 8, "velocity": 85}, {"time": 2569, "pitch": 59, "duration": 3, "velocity": 77}, {"time": 2575, "pitch": 63, "duration": 7, "velocity": 83}, {"time": 2581, "pitch": 51, "duration": 8, "velocity": 57}, {"time": 2587, "pitch": 56, "duration": 2, "velocity": 81}, {"time": 2587, "pitch": 59, "duration": 2, "velocity": 81}, {"time": 2599, "pitch": 37, "duration": 39, "velocity": 81}, {"time": 2599, "pitch": 61, "duration": 6, "velocity": 78}, {"time": 2599, "pitch": 64, "duration": 13, "velocity": 83}, {"time": 2605, "pitch": 44, "duration": 9, "velocity": 67}, {"time": 2611, "pitch": 61, "duration": 18, "velocity": 83}, {"time": 2617, "pitch": 44, "duration": 9, "velocity": 56}, {"time": 2623, "pitch": 68, "duration": 8, "velocity": 87}, {"time": 2629, "pitch": 44, "duration": 9, "velocity": 63}, {"time": 2635, "pitch": 61, "duration": 4, "velocity": 85}, {"time": 2635, "pitch": 64, "duration": 4, "velocity": 88}, {"time": 2635, "pitch": 68, "duration": 4, "velocity": 81}, {"time": 2641, "pitch": 37, "duration": 2, "velocity": 81}, {"time": 2647, "pitch": 42, "duration": 37, "velocity": 79}, {"time": 2647, "pitch": 54, "duration": 8, "velocity": 75}, {"time": 2647, "pitch": 57, "duration": 13, "velocity": 74}, {"time": 2653, "pitch": 49, "duration": 9, "velocity": 68}, {"time": 2659, "pitch": 54, "duration": 24, "velocity": 86}, {"time": 2665, "pitch": 49, "duration": 8, "velocity": 64}, {"time": 2671, "pitch": 61, "duration": 12, "velocity": 84}, {"time": 2677, "pitch": 49, "duration": 7, "velocity": 68}, {"time": 2683, "pitch": 57, "duration": 7, "velocity": 76}, {"time": 2689, "pitch": 54, "duration": 6, "velocity": 88}, {"time": 2695, "pitch": 47, "duration": 49, "velocity": 83}, {"time": 2701, "pitch": 59, "duration": 8, "velocity": 78}, {"time": 2707, "pitch": 54, "duration": 14, "velocity": 75}, {"time": 2713, "pitch": 59, "duration": 4, "velocity": 85}, {"time": 2719, "pitch": 59, "duration": 1, "velocity": 69}, {"time": 2719, "pitch": 63, "duration": 7, "velocity": 87}, {"time": 2719, "pitch": 66, "duration": 7, "velocity": 86}, {"time": 2725, "pitch": 54, "duration": 18, "velocity": 74}, {"time": 2725, "pitch": 59, "duration": 3, "velocity": 48}, {"time": 2731, "pitch": 63, "duration": 4, "velocity": 81}, {"time": 2731, "pitch": 66, "duration": 4, "velocity": 77}, {"time": 2731, "pitch": 71, "duration": 3, "velocity": 83}, {"time": 2737, "pitch": 69, "duration": 5, "velocity": 82}, {"time": 2743, "pitch": 40, "duration": 38, "velocity": 85}, {"time": 2743, "pitch": 52, "duration": 8, "velocity": 82}, {"time": 2743, "pitch": 56, "duration": 7, "velocity": 77}, {"time": 2743, "pitch": 59, "duration": 7, "velocity": 82}, {"time": 2749, "pitch": 47, "duration": 7, "velocity": 64}, {"time": 2755, "pitch": 52, "duration": 4, "velocity": 87}, {"time": 2755, "pitch": 56, "duration": 4, "velocity": 90}, {"time": 2755, "pitch": 59, "duration": 4, "velocity": 85}, {"time": 2761, "pitch": 47, "duration": 7, "velocity": 69}, {"time": 2764, "pitch": 52, "duration": 4, "velocity": 82}, {"time": 2767, "pitch": 56, "duration": 4, "velocity": 85}, {"time": 2770, "pitch": 59, "duration": 2, "velocity": 80}, {"time": 2779, "pitch": 52, "duration": 5, "velocity": 82}, {"time": 2779, "pitch": 56, "duration": 5, "velocity": 86}, {"time": 2779, "pitch": 59, "duration": 6, "velocity": 83}, {"time": 2779, "pitch": 64, "duration": 11, "velocity": 82}, {"time": 2785, "pitch": 47, "duration": 2, "velocity": 74}, {"time": 2788, "pitch": 52, "duration": 3, "velocity": 78}, {"time": 2791, "pitch": 47, "duration": 15, "velocity": 86}, {"time": 2803, "pitch": 59, "duration": 4, "velocity": 86}, {"time": 2803, "pitch": 66, "duration": 4, "velocity": 83}, {"time": 2809, "pitch": 54, "duration": 3, "velocity": 58}, {"time": 2812, "pitch": 59, "duration": 3, "velocity": 85}, {"time": 2812, "pitch": 63, "duration": 2, "velocity": 84}, {"time": 2812, "pitch": 66, "duration": 3, "velocity": 75}, {"time": 2815, "pitch": 51, "duration": 3, "velocity": 54}, {"time": 2818, "pitch": 54, "duration": 10, "velocity": 75}, {"time": 2821, "pitch": 59, "duration": 5, "velocity": 82}, {"time": 2824, "pitch": 63, "duration": 2, "velocity": 90}, {"time": 2827, "pitch": 59, "duration": 4, "velocity": 80}, {"time": 2827, "pitch": 63, "duration": 5, "velocity": 81}, {"time": 2827, "pitch": 71, "duration": 6, "velocity": 84}, {"time": 2833, "pitch": 51, "duration": 2, "velocity": 75}, {"time": 2839, "pitch": 49, "duration": 15, "velocity": 85}, {"time": 2839, "pitch": 61, "duration": 7, "velocity": 72}, {"time": 2839, "pitch": 64, "duration": 6, "velocity": 82}, {"time": 2845, "pitch": 56, "duration": 8, "velocity": 60}, {"time": 2851, "pitch": 61, "duration": 3, "velocity": 82}, {"time": 2851, "pitch": 68, "duration": 2, "velocity": 81}, {"time": 2860, "pitch": 61, "duration": 3, "velocity": 82}, {"time": 2860, "pitch": 64, "duration": 4, "velocity": 85}, {"time": 2866, "pitch": 49, "duration": 4, "velocity": 77}, {"time": 2869, "pitch": 56, "duration": 6, "velocity": 86}, {"time": 2872, "pitch": 61, "duration": 2, "velocity": 81}, {"time": 2875, "pitch": 61, "duration": 4, "velocity": 82}, {"time": 2875, "pitch": 64, "duration": 6, "velocity": 95}, {"time": 2875, "pitch": 68, "duration": 10, "velocity": 82}, {"time": 2881, "pitch": 61, "duration": 6, "velocity": 81}, {"time": 2887, "pitch": 47, "duration": 14, "velocity": 82}, {"time": 2893, "pitch": 59, "duration": 3, "velocity": 81}, {"time": 2899, "pitch": 59, "duration": 3, "velocity": 86}, {"time": 2899, "pitch": 66, "duration": 3, "velocity": 83}, {"time": 2905, "pitch": 54, "duration": 3, "velocity": 44}, {"time": 2908, "pitch": 59, "duration": 2, "velocity": 82}, {"time": 2908, "pitch": 63, "duration": 2, "velocity": 84}, {"time": 2911, "pitch": 51, "duration": 3, "velocity": 68}, {"time": 2914, "pitch": 54, "duration": 8, "velocity": 74}, {"time": 2917, "pitch": 59, "duration": 4, "velocity": 92}, {"time": 2923, "pitch": 59, "duration": 4, "velocity": 87}, {"time": 2923, "pitch": 66, "duration": 5, "velocity": 81}, {"time": 2929, "pitch": 54, "duration": 2, "velocity": 76}, {"time": 2935, "pitch": 44, "duration": 24, "velocity": 88}, {"time": 2941, "pitch": 56, "duration": 3, "velocity": 81}, {"time": 2947, "pitch": 56, "duration": 3, "velocity": 87}, {"time": 2947, "pitch": 63, "duration": 3, "velocity": 81}, {"time": 2953, "pitch": 51, "duration": 4, "velocity": 53}, {"time": 2956, "pitch": 56, "duration": 3, "velocity": 83}, {"time": 2956, "pitch": 59, "duration": 3, "velocity": 82}, {"time": 2959, "pitch": 51, "duration": 2, "velocity": 60}, {"time": 2962, "pitch": 56, "duration": 3, "velocity": 84}, {"time": 2965, "pitch": 59, "duration": 3, "velocity": 77}, {"time": 2971, "pitch": 56, "duration": 3, "velocity": 84}, {"time": 2971, "pitch": 59, "duration": 3, "velocity": 86}, {"time": 2971, "pitch": 63, "duration": 3, "velocity": 82}, {"time": 2983, "pitch": 49, "duration": 43, "velocity": 81}, {"time": 2983, "pitch": 61, "duration": 7, "velocity": 78}, {"time": 2983, "pitch": 64, "duration": 7, "velocity": 82}, {"time": 2983, "pitch": 68, "duration": 7, "velocity": 73}, {"time": 2989, "pitch": 56, "duration": 8, "velocity": 64}, {"time": 2995, "pitch": 61, "duration": 3, "velocity": 87}, {"time": 2995, "pitch": 68, "duration": 3, "velocity": 83}, {"time": 3004, "pitch": 61, "duration": 1, "velocity": 71}, {"time": 3004, "pitch": 64, "duration": 1, "velocity": 74}, {"time": 3007, "pitch": 61, "duration": 6, "velocity": 77}, {"time": 3007, "pitch": 64, "duration": 6, "velocity": 84}, {"time": 3013, "pitch": 56, "duration": 6, "velocity": 60}, {"time": 3016, "pitch": 61, "duration": 1, "velocity": 81}, {"time": 3016, "pitch": 68, "duration": 1, "velocity": 73}, {"time": 3019, "pitch": 61, "duration": 6, "velocity": 82}, {"time": 3019, "pitch": 68, "duration": 11, "velocity": 83}, {"time": 3025, "pitch": 56, "duration": 2, "velocity": 81}, {"time": 3028, "pitch": 61, "duration": 3, "velocity": 73}, {"time": 3031, "pitch": 42, "duration": 34, "velocity": 86}, {"time": 3037, "pitch": 54, "duration": 3, "velocity": 78}, {"time": 3043, "pitch": 54, "duration": 5, "velocity": 85}, {"time": 3043, "pitch": 57, "duration": 4, "velocity": 81}, {"time": 3049, "pitch": 49, "duration": 5, "velocity": 47}, {"time": 3052, "pitch": 54, "duration": 4, "velocity": 82}, {"time": 3052, "pitch": 61, "duration": 3, "velocity": 82}, {"time": 3055, "pitch": 49, "duration": 7, "velocity": 69}, {"time": 3061, "pitch": 54, "duration": 5, "velocity": 86}, {"time": 3061, "pitch": 57, "duration": 6, "velocity": 86}, {"time": 3067, "pitch": 49, "duration": 2, "velocity": 82}, {"time": 3070, "pitch": 54, "duration": 5, "velocity": 88}, {"time": 3073, "pitch": 57, "duration": 3, "velocity": 81}, {"time": 3076, "pitch": 61, "duration": 2, "velocity": 82}, {"time": 3079, "pitch": 47, "duration": 19, "velocity": 83}, {"time": 3085, "pitch": 59, "duration": 3, "velocity": 81}, {"time": 3091, "pitch": 59, "duration": 6, "velocity": 87}, {"time": 3091, "pitch": 63, "duration": 7, "velocity": 92}, {"time": 3091, "pitch": 66, "duration": 10, "velocity": 88}, {"time": 3097, "pitch": 51, "duration": 3, "velocity": 61}, {"time": 3100, "pitch": 59, "duration": 1, "velocity": 88}, {"time": 3103, "pitch": 45, "duration": 9, "velocity": 83}, {"time": 3106, "pitch": 52, "duration": 7, "velocity": 82}, {"time": 3109, "pitch": 57, "duration": 5, "velocity": 87}, {"time": 3112, "pitch": 61, "duration": 3, "velocity": 87}, {"time": 3115, "pitch": 47, "duration": 13, "velocity": 85}, {"time": 3118, "pitch": 54, "duration": 2, "velocity": 70}, {"time": 3121, "pitch": 59, "duration": 4, "velocity": 83}, {"time": 3124, "pitch": 63, "duration": 2, "velocity": 83}, {"time": 3127, "pitch": 40, "duration": 38, "velocity": 85}, {"time": 3127, "pitch": 52, "duration": 8, "velocity": 82}, {"time": 3127, "pitch": 56, "duration": 7, "velocity": 77}, {"time": 3127, "pitch": 59, "duration": 7, "velocity": 82}, {"time": 3133, "pitch": 47, "duration": 7, "velocity": 64}, {"time": 3139, "pitch": 52, "duration": 4, "velocity": 87}, {"time": 3139, "pitch": 56, "duration": 4, "velocity": 90}, {"time": 3139, "pitch": 59, "duration": 4, "velocity": 85}, {"time": 3145, "pitch": 47, "duration": 7, "velocity": 69}, {"time": 3148, "pitch": 52, "duration": 4, "velocity": 82}, {"time": 3151, "pitch": 56, "duration": 4, "velocity": 85}, {"time": 3154, "pitch": 59, "duration": 2, "velocity": 80}, {"time": 3163, "pitch": 52, "duration": 5, "velocity": 82}, {"time": 3163, "pitch": 56, "duration": 5, "velocity": 86}, {"time": 3163, "pitch": 59, "duration": 6, "velocity": 83}, {"time": 3163, "pitch": 64, "duration": 11, "velocity": 82}, {"time": 3169, "pitch": 47, "duration": 2, "velocity": 74}, {"time": 3172, "pitch": 52, "duration": 3, "velocity": 78}, {"time": 3175, "pitch": 47, "duration": 15, "velocity": 86}, {"time": 3187, "pitch": 59, "duration": 4, "velocity": 86}, {"time": 3187, "pitch": 66, "duration": 4, "velocity": 83}, {"time": 3193, "pitch": 54, "duration": 3, "velocity": 58}, {"time": 3196, "pitch": 59, "duration": 3, "velocity": 85}, {"time": 3196, "pitch": 63, "duration": 2, "velocity": 84}, {"time": 3196, "pitch": 66, "duration": 3, "velocity": 75}, {"time": 3199, "pitch": 51, "duration": 3, "velocity": 54}, {"time": 3202, "pitch": 54, "duration": 10, "velocity": 75}, {"time": 3205, "pitch": 59, "duration": 5, "velocity": 82}, {"time": 3208, "pitch": 63, "duration": 2, "velocity": 90}, {"time": 3211, "pitch": 59, "duration": 4, "velocity": 80}, {"time": 3211, "pitch": 63, "duration": 5, "velocity": 81}, {"time": 3211, "pitch": 71, "duration": 6, "velocity": 84}, {"time": 3217, "pitch": 51, "duration": 2, "velocity": 75}, {"time": 3223, "pitch": 49, "duration": 15, "velocity": 85}, {"time": 3223, "pitch": 61, "duration": 7, "velocity": 72}, {"time": 3223, "pitch": 64, "duration": 6, "velocity": 82}, {"time": 3229, "pitch": 56, "duration": 8, "velocity": 60}, {"time": 3235, "pitch": 61, "duration": 3, "velocity": 82}, {"time": 3235, "pitch": 68, "duration": 2, "velocity": 81}, {"time": 3244, "pitch": 61, "duration": 3, "velocity": 82}, {"time": 3244, "pitch": 64, "duration": 4, "velocity": 85}, {"time": 3250, "pitch": 49, "duration": 4, "velocity": 77}, {"time": 3253, "pitch": 56, "duration": 6, "velocity": 86}, {"time": 3256, "pitch": 61, "duration": 2, "velocity": 81}, {"time": 3259, "pitch": 61, "duration": 4, "velocity": 82}, {"time": 3259, "pitch": 64, "duration": 6, "velocity": 95}, {"time": 3259, "pitch": 68, "duration": 10, "velocity": 82}, {"time": 3265, "pitch": 61, "duration": 6, "velocity": 81}, {"time": 3271, "pitch": 47, "duration": 14, "velocity": 82}, {"time": 3277, "pitch": 59, "duration": 3, "velocity": 81}, {"time": 3283, "pitch": 59, "duration": 3, "velocity": 86}, {"time": 3283, "pitch": 66, "duration": 3, "velocity": 83}, {"time": 3289, "pitch": 54, "duration": 3, "velocity": 44}, {"time": 3292, "pitch": 59, "duration": 2, "velocity": 82}, {"time": 3292, "pitch": 63, "duration": 2, "velocity": 84}, {"time": 3295, "pitch": 51, "duration": 3, "velocity": 68}, {"time": 3298, "pitch": 54, "duration": 8, "velocity": 74}, {"time": 3301, "pitch": 59, "duration": 4, "velocity": 92}, {"time": 3307, "pitch": 59, "duration": 4, "velocity": 87}, {"time": 3307, "pitch": 66, "duration": 5, "velocity": 81}, {"time": 3313, "pitch": 54, "duration": 2, "velocity": 76}, {"time": 3319, "pitch": 44, "duration": 24, "velocity": 88}, {"time": 3325, "pitch": 56, "duration": 3, "velocity": 81}, {"time": 3331, "pitch": 56, "duration": 3, "velocity": 87}, {"time": 3331, "pitch": 63, "duration": 3, "velocity": 81}, {"time": 3337, "pitch": 51, "duration": 4, "velocity": 53}, {"time": 3340, "pitch": 56, "duration": 3, "velocity": 83}, {"time": 3340, "pitch": 59, "duration": 3, "velocity": 82}, {"time": 3343, "pitch": 51, "duration": 2, "velocity": 60}, {"time": 3346, "pitch": 56, "duration": 3, "velocity": 84}, {"time": 3349, "pitch": 59, "duration": 3, "velocity": 77}, {"time": 3355, "pitch": 56, "duration": 3, "velocity": 84}, {"time": 3355, "pitch": 59, "duration": 3, "velocity": 86}, {"time": 3355, "pitch": 63, "duration": 3, "velocity": 82}, {"time": 3367, "pitch": 49, "duration": 43, "velocity": 81}, {"time": 3367, "pitch": 61, "duration": 7, "velocity": 78}, {"time": 3367, "pitch": 64, "duration": 7, "velocity": 82}, {"time": 3367, "pitch": 68, "duration": 7, "velocity": 73}, {"time": 3373, "pitch": 56, "duration": 8, "velocity": 64}, {"time": 3379, "pitch": 61, "duration": 3, "velocity": 87}, {"time": 3379, "pitch": 68, "duration": 3, "velocity": 83}, {"time": 3388, "pitch": 61, "duration": 1, "velocity": 71}, {"time": 3388, "pitch": 64, "duration": 1, "velocity": 74}, {"time": 3391, "pitch": 61, "duration": 6, "velocity": 77}, {"time": 3391, "pitch": 64, "duration": 6, "velocity": 84}, {"time": 3397, "pitch": 56, "duration": 6, "velocity": 60}, {"time": 3400, "pitch": 61, "duration": 1, "velocity": 81}, {"time": 3400, "pitch": 68, "duration": 1, "velocity": 73}, {"time": 3403, "pitch": 61, "duration": 6, "velocity": 82}, {"time": 3403, "pitch": 68, "duration": 11, "velocity": 83}, {"time": 3409, "pitch": 56, "duration": 2, "velocity": 81}, {"time": 3412, "pitch": 61, "duration": 3, "velocity": 73}, {"time": 3415, "pitch": 42, "duration": 14, "velocity": 85}, {"time": 3415, "pitch": 54, "duration": 8, "velocity": 81}, {"time": 3415, "pitch": 61, "duration": 1, "velocity": 75}, {"time": 3421, "pitch": 49, "duration": 8, "velocity": 84}, {"time": 3427, "pitch": 54, "duration": 4, "velocity": 85}, {"time": 3427, "pitch": 57, "duration": 7, "velocity": 84}, {"time": 3427, "pitch": 61, "duration": 10, "velocity": 85}, {"time": 3433, "pitch": 49, "duration": 2, "velocity": 83}, {"time": 3436, "pitch": 54, "duration": 3, "velocity": 87}, {"time": 3439, "pitch": 47, "duration": 14, "velocity": 86}, {"time": 3445, "pitch": 59, "duration": 3, "velocity": 86}, {"time": 3451, "pitch": 59, "duration": 3, "velocity": 90}, {"time": 3451, "pitch": 63, "duration": 4, "velocity": 87}, {"time": 3451, "pitch": 66, "duration": 7, "velocity": 83}, {"time": 3457, "pitch": 59, "duration": 4, "velocity": 82}, {"time": 3463, "pitch": 40, "duration": 45, "velocity": 85}, {"time": 3463, "pitch": 59, "duration": 3, "velocity": 83}, {"time": 3463, "pitch": 64, "duration": 3, "velocity": 84}, {"time": 3469, "pitch": 47, "duration": 8, "velocity": 70}, {"time": 3475, "pitch": 52, "duration": 6, "velocity": 86}, {"time": 3475, "pitch": 59, "duration": 3, "velocity": 85}, {"time": 3478, "pitch": 47, "duration": 9, "velocity": 67}, {"time": 3484, "pitch": 52, "duration": 1, "velocity": 78}, {"time": 3484, "pitch": 56, "duration": 1, "velocity": 76}, {"time": 3484, "pitch": 59, "duration": 2, "velocity": 81}, {"time": 3487, "pitch": 52, "duration": 8, "velocity": 81}, {"time": 3487, "pitch": 56, "duration": 7, "velocity": 81}, {"time": 3487, "pitch": 59, "duration": 9, "velocity": 82}, {"time": 3493, "pitch": 47, "duration": 15, "velocity": 77}, {"time": 3499, "pitch": 52, "duration": 3, "velocity": 87}, {"time": 3499, "pitch": 64, "duration": 7, "velocity": 85}, {"time": 3505, "pitch": 59, "duration": 6, "velocity": 79}, {"time": 3511, "pitch": 45, "duration": 4, "velocity": 83}, {"time": 3511, "pitch": 52, "duration": 3, "velocity": 82}, {"time": 3511, "pitch": 57, "duration": 3, "velocity": 79}, {"time": 3511, "pitch": 61, "duration": 3, "velocity": 82}, {"time": 3511, "pitch": 64, "duration": 3, "velocity": 83}, {"time": 3517, "pitch": 45, "duration": 3, "velocity": 82}, {"time": 3517, "pitch": 52, "duration": 2, "velocity": 87}, {"time": 3517, "pitch": 57, "duration": 2, "velocity": 82}, {"time": 3517, "pitch": 61, "duration": 2, "velocity": 85}, {"time": 3517, "pitch": 64, "duration": 2, "velocity": 85}, {"time": 3538, "pitch": 57, "duration": 19, "velocity": 78}, {"time": 3539, "pitch": 61, "duration": 18, "velocity": 75}, {"time": 3540, "pitch": 45, "duration": 17, "velocity": 83}, {"time": 3540, "pitch": 64, "duration": 17, "velocity": 77}, {"time": 3540, "pitch": 69, "duration": 17, "velocity": 82}, {"time": 3559, "pitch": 47, "duration": 15, "velocity": 86}, {"time": 3571, "pitch": 59, "duration": 4, "velocity": 86}, {"time": 3571, "pitch": 66, "duration": 4, "velocity": 83}, {"time": 3577, "pitch": 54, "duration": 3, "velocity": 58}, {"time": 3580, "pitch": 59, "duration": 3, "velocity": 85}, {"time": 3580, "pitch": 63, "duration": 2, "velocity": 84}, {"time": 3580, "pitch": 66, "duration": 3, "velocity": 75}, {"time": 3583, "pitch": 51, "duration": 3, "velocity": 54}, {"time": 3586, "pitch": 54, "duration": 10, "velocity": 75}, {"time": 3589, "pitch": 59, "duration": 5, "velocity": 82}, {"time": 3592, "pitch": 63, "duration": 2, "velocity": 90}, {"time": 3595, "pitch": 59, "duration": 4, "velocity": 80}, {"time": 3595, "pitch": 63, "duration": 5, "velocity": 81}, {"time": 3595, "pitch": 71, "duration": 6, "velocity": 84}, {"time": 3601, "pitch": 51, "duration": 2, "velocity": 75}, {"time": 3607, "pitch": 49, "duration": 15, "velocity": 85}, {"time": 3607, "pitch": 61, "duration": 7, "velocity": 72}, {"time": 3607, "pitch": 64, "duration": 6, "velocity": 82}, {"time": 3613, "pitch": 56, "duration": 8, "velocity": 60}, {"time": 3619, "pitch": 61, "duration": 3, "velocity": 82}, {"time": 3619, "pitch": 68, "duration": 2, "velocity": 81}, {"time": 3628, "pitch": 61, "duration": 3, "velocity": 82}, {"time": 3628, "pitch": 64, "duration": 4, "velocity": 85}, {"time": 3634, "pitch": 49, "duration": 4, "velocity": 77}, {"time": 3637, "pitch": 56, "duration": 6, "velocity": 86}, {"time": 3640, "pitch": 61, "duration": 2, "velocity": 81}, {"time": 3643, "pitch": 61, "duration": 4, "velocity": 82}, {"time": 3643, "pitch": 64, "duration": 6, "velocity": 95}, {"time": 3643, "pitch": 68, "duration": 10, "velocity": 82}, {"time": 3649, "pitch": 61, "duration": 6, "velocity": 81}, {"time": 3655, "pitch": 47, "duration": 14, "velocity": 82}, {"time": 3661, "pitch": 59, "duration": 3, "velocity": 81}, {"time": 3667, "pitch": 59, "duration": 3, "velocity": 86}, {"time": 3667, "pitch": 66, "duration": 3, "velocity": 83}, {"time": 3673, "pitch": 54, "duration": 3, "velocity": 44}, {"time": 3676, "pitch": 59, "duration": 2, "velocity": 82}, {"time": 3676, "pitch": 63, "duration": 2, "velocity": 84}, {"time": 3679, "pitch": 51, "duration": 3, "velocity": 68}, {"time": 3682, "pitch": 54, "duration": 8, "velocity": 74}, {"time": 3685, "pitch": 59, "duration": 4, "velocity": 92}, {"time": 3691, "pitch": 59, "duration": 4, "velocity": 87}, {"time": 3691, "pitch": 66, "duration": 5, "velocity": 81}, {"time": 3697, "pitch": 54, "duration": 2, "velocity": 76}, {"time": 3703, "pitch": 44, "duration": 24, "velocity": 88}, {"time": 3709, "pitch": 56, "duration": 3, "velocity": 81}, {"time": 3715, "pitch": 56, "duration": 3, "velocity": 87}, {"time": 3715, "pitch": 63, "duration": 3, "velocity": 81}, {"time": 3721, "pitch": 51, "duration": 4, "velocity": 53}, {"time": 3724, "pitch": 56, "duration": 3, "velocity": 83}, {"time": 3724, "pitch": 59, "duration": 3, "velocity": 82}, {"time": 3727, "pitch": 51, "duration": 2, "velocity": 60}, {"time": 3730, "pitch": 56, "duration": 3, "velocity": 84}, {"time": 3733, "pitch": 59, "duration": 3, "velocity": 77}, {"time": 3739, "pitch": 56, "duration": 3, "velocity": 84}, {"time": 3739, "pitch": 59, "duration": 3, "velocity": 86}, {"time": 3739, "pitch": 63, "duration": 3, "velocity": 82}, {"time": 3751, "pitch": 49, "duration": 43, "velocity": 81}, {"time": 3751, "pitch": 61, "duration": 7, "velocity": 78}, {"time": 3751, "pitch": 64, "duration": 7, "velocity": 82}, {"time": 3751, "pitch": 68, "duration": 7, "velocity": 73}, {"time": 3757, "pitch": 56, "duration": 8, "velocity": 64}, {"time": 3763, "pitch": 61, "duration": 3, "velocity": 87}, {"time": 3763, "pitch": 68, "duration": 3, "velocity": 83}, {"time": 3772, "pitch": 61, "duration": 1, "velocity": 71}, {"time": 3772, "pitch": 64, "duration": 1, "velocity": 74}, {"time": 3775, "pitch": 61, "duration": 6, "velocity": 77}, {"time": 3775, "pitch": 64, "duration": 6, "velocity": 84}, {"time": 3781, "pitch": 56, "duration": 6, "velocity": 60}, {"time": 3784, "pitch": 61, "duration": 1, "velocity": 81}, {"time": 3784, "pitch": 68, "duration": 1, "velocity": 73}, {"time": 3787, "pitch": 61, "duration": 6, "velocity": 82}, {"time": 3787, "pitch": 68, "duration": 11, "velocity": 83}, {"time": 3793, "pitch": 56, "duration": 2, "velocity": 81}, {"time": 3796, "pitch": 61, "duration": 3, "velocity": 73}, {"time": 3799, "pitch": 42, "duration": 34, "velocity": 86}, {"time": 3805, "pitch": 54, "duration": 3, "velocity": 78}, {"time": 3811, "pitch": 54, "duration": 5, "velocity": 85}, {"time": 3811, "pitch": 57, "duration": 4, "velocity": 81}, {"time": 3817, "pitch": 49, "duration": 5, "velocity": 47}, {"time": 3820, "pitch": 54, "duration": 4, "velocity": 82}, {"time": 3820, "pitch": 61, "duration": 3, "velocity": 82}, {"time": 3823, "pitch": 49, "duration": 7, "velocity": 69}, {"time": 3829, "pitch": 54, "duration": 5, "velocity": 86}, {"time": 3829, "pitch": 57, "duration": 6, "velocity": 86}, {"time": 3835, "pitch": 49, "duration": 2, "velocity": 82}, {"time": 3838, "pitch": 54, "duration": 5, "velocity": 88}, {"time": 3841, "pitch": 57, "duration": 3, "velocity": 81}, {"time": 3844, "pitch": 61, "duration": 2, "velocity": 82}, {"time": 3847, "pitch": 47, "duration": 19, "velocity": 83}, {"time": 3853, "pitch": 59, "duration": 3, "velocity": 81}, {"time": 3859, "pitch": 59, "duration": 6, "velocity": 87}, {"time": 3859, "pitch": 63, "duration": 7, "velocity": 92}, {"time": 3859, "pitch": 66, "duration": 10, "velocity": 88}, {"time": 3865, "pitch": 51, "duration": 3, "velocity": 61}, {"time": 3868, "pitch": 59, "duration": 1, "velocity": 88}, {"time": 3871, "pitch": 45, "duration": 9, "velocity": 83}, {"time": 3874, "pitch": 52, "duration": 7, "velocity": 82}, {"time": 3877, "pitch": 57, "duration": 5, "velocity": 87}, {"time": 3880, "pitch": 61, "duration": 3, "velocity": 87}, {"time": 3883, "pitch": 47, "duration": 13, "velocity": 85}, {"time": 3886, "pitch": 54, "duration": 2, "velocity": 70}, {"time": 3889, "pitch": 59, "duration": 4, "velocity": 83}, {"time": 3892, "pitch": 63, "duration": 2, "velocity": 83}, {"time": 3895, "pitch": 40, "duration": 38, "velocity": 85}, {"time": 3895, "pitch": 52, "duration": 8, "velocity": 82}, {"time": 3895, "pitch": 56, "duration": 7, "velocity": 77}, {"time": 3895, "pitch": 59, "duration": 7, "velocity": 82}, {"time": 3901, "pitch": 47, "duration": 7, "velocity": 64}, {"time": 3907, "pitch": 52, "duration": 4, "velocity": 87}, {"time": 3907, "pitch": 56, "duration": 4, "velocity": 90}, {"time": 3907, "pitch": 59, "duration": 4, "velocity": 85}, {"time": 3913, "pitch": 47, "duration": 7, "velocity": 69}, {"time": 3916, "pitch": 52, "duration": 4, "velocity": 82}, {"time": 3919, "pitch": 56, "duration": 4, "velocity": 85}, {"time": 3922, "pitch": 59, "duration": 2, "velocity": 80}, {"time": 3931, "pitch": 52, "duration": 5, "velocity": 82}, {"time": 3931, "pitch": 56, "duration": 5, "velocity": 86}, {"time": 3931, "pitch": 59, "duration": 6, "velocity": 83}, {"time": 3931, "pitch": 64, "duration": 11, "velocity": 82}, {"time": 3937, "pitch": 47, "duration": 2, "velocity": 74}, {"time": 3940, "pitch": 52, "duration": 3, "velocity": 78}, {"time": 3943, "pitch": 47, "duration": 15, "velocity": 86}, {"time": 3955, "pitch": 59, "duration": 4, "velocity": 86}, {"time": 3955, "pitch": 66, "duration": 4, "velocity": 83}, {"time": 3961, "pitch": 54, "duration": 3, "velocity": 58}, {"time": 3964, "pitch": 59, "duration": 3, "velocity": 85}, {"time": 3964, "pitch": 63, "duration": 2, "velocity": 84}, {"time": 3964, "pitch": 66, "duration": 3, "velocity": 75}, {"time": 3967, "pitch": 51, "duration": 3, "velocity": 54}, {"time": 3970, "pitch": 54, "duration": 10, "velocity": 75}, {"time": 3973, "pitch": 59, "duration": 5, "velocity": 82}, {"time": 3976, "pitch": 63, "duration": 2, "velocity": 90}, {"time": 3979, "pitch": 59, "duration": 4, "velocity": 80}, {"time": 3979, "pitch": 63, "duration": 5, "velocity": 81}, {"time": 3979, "pitch": 71, "duration": 6, "velocity": 84}, {"time": 3985, "pitch": 51, "duration": 2, "velocity": 75}, {"time": 3991, "pitch": 49, "duration": 15, "velocity": 85}, {"time": 3991, "pitch": 61, "duration": 7, "velocity": 72}, {"time": 3991, "pitch": 64, "duration": 6, "velocity": 82}, {"time": 3997, "pitch": 56, "duration": 8, "velocity": 60}, {"time": 4003, "pitch": 61, "duration": 3, "velocity": 82}, {"time": 4003, "pitch": 68, "duration": 2, "velocity": 81}, {"time": 4012, "pitch": 61, "duration": 3, "velocity": 82}, {"time": 4012, "pitch": 64, "duration": 4, "velocity": 85}, {"time": 4018, "pitch": 49, "duration": 4, "velocity": 77}, {"time": 4021, "pitch": 56, "duration": 6, "velocity": 86}, {"time": 4024, "pitch": 61, "duration": 2, "velocity": 81}, {"time": 4027, "pitch": 61, "duration": 4, "velocity": 82}, {"time": 4027, "pitch": 64, "duration": 6, "velocity": 95}, {"time": 4027, "pitch": 68, "duration": 10, "velocity": 82}, {"time": 4033, "pitch": 61, "duration": 6, "velocity": 81}, {"time": 4039, "pitch": 47, "duration": 14, "velocity": 82}, {"time": 4045, "pitch": 59, "duration": 3, "velocity": 81}, {"time": 4051, "pitch": 59, "duration": 3, "velocity": 86}, {"time": 4051, "pitch": 66, "duration": 3, "velocity": 83}, {"time": 4057, "pitch": 54, "duration": 3, "velocity": 44}, {"time": 4060, "pitch": 59, "duration": 2, "velocity": 82}, {"time": 4060, "pitch": 63, "duration": 2, "velocity": 84}, {"time": 4063, "pitch": 51, "duration": 3, "velocity": 68}, {"time": 4066, "pitch": 54, "duration": 8, "velocity": 74}, {"time": 4069, "pitch": 59, "duration": 4, "velocity": 92}, {"time": 4075, "pitch": 59, "duration": 4, "velocity": 87}, {"time": 4075, "pitch": 66, "duration": 5, "velocity": 81}, {"time": 4081, "pitch": 54, "duration": 2, "velocity": 76}, {"time": 4087, "pitch": 44, "duration": 24, "velocity": 88}, {"time": 4093, "pitch": 56, "duration": 3, "velocity": 81}, {"time": 4099, "pitch": 56, "duration": 3, "velocity": 87}, {"time": 4099, "pitch": 63, "duration": 3, "velocity": 81}, {"time": 4105, "pitch": 51, "duration": 4, "velocity": 53}, {"time": 4108, "pitch": 56, "duration": 3, "velocity": 83}, {"time": 4108, "pitch": 59, "duration": 3, "velocity": 82}, {"time": 4111, "pitch": 51, "duration": 2, "velocity": 60}, {"time": 4114, "pitch": 56, "duration": 3, "velocity": 84}, {"time": 4117, "pitch": 59, "duration": 3, "velocity": 77}, {"time": 4123, "pitch": 56, "duration": 3, "velocity": 84}, {"time": 4123, "pitch": 59, "duration": 3, "velocity": 86}, {"time": 4123, "pitch": 63, "duration": 3, "velocity": 82}, {"time": 4135, "pitch": 49, "duration": 43, "velocity": 81}, {"time": 4135, "pitch": 61, "duration": 7, "velocity": 78}, {"time": 4135, "pitch": 64, "duration": 7, "velocity": 82}, {"time": 4135, "pitch": 68, "duration": 7, "velocity": 73}, {"time": 4141, "pitch": 56, "duration": 8, "velocity": 64}, {"time": 4147, "pitch": 61, "duration": 3, "velocity": 87}, {"time": 4147, "pitch": 68, "duration": 3, "velocity": 83}, {"time": 4156, "pitch": 61, "duration": 1, "velocity": 71}, {"time": 4156, "pitch": 64, "duration": 1, "velocity": 74}, {"time": 4159, "pitch": 61, "duration": 6, "velocity": 77}, {"time": 4159, "pitch": 64, "duration": 6, "velocity": 84}, {"time": 4165, "pitch": 56, "duration": 6, "velocity": 60}, {"time": 4168, "pitch": 61, "duration": 1, "velocity": 81}, {"time": 4168, "pitch": 68, "duration": 1, "velocity": 73}, {"time": 4171, "pitch": 61, "duration": 6, "velocity": 82}, {"time": 4171, "pitch": 68, "duration": 11, "velocity": 83}, {"time": 4177, "pitch": 56, "duration": 2, "velocity": 81}, {"time": 4180, "pitch": 61, "duration": 3, "velocity": 73}, {"time": 4183, "pitch": 42, "duration": 14, "velocity": 85}, {"time": 4183, "pitch": 54, "duration": 8, "velocity": 81}, {"time": 4183, "pitch": 61, "duration": 1, "velocity": 75}, {"time": 4189, "pitch": 49, "duration": 8, "velocity": 84}, {"time": 4195, "pitch": 54, "duration": 4, "velocity": 85}, {"time": 4195, "pitch": 57, "duration": 7, "velocity": 84}, {"time": 4195, "pitch": 61, "duration": 10, "velocity": 85}, {"time": 4201, "pitch": 49, "duration": 2, "velocity": 83}, {"time": 4204, "pitch": 54, "duration": 3, "velocity": 87}, {"time": 4207, "pitch": 47, "duration": 14, "velocity": 86}, {"time": 4213, "pitch": 59, "duration": 3, "velocity": 86}, {"time": 4219, "pitch": 59, "duration": 3, "velocity": 90}, {"time": 4219, "pitch": 63, "duration": 4, "velocity": 87}, {"time": 4219, "pitch": 66, "duration": 7, "velocity": 83}, {"time": 4225, "pitch": 59, "duration": 4, "velocity": 82}, {"time": 4231, "pitch": 40, "duration": 49, "velocity": 85}, {"time": 4231, "pitch": 59, "duration": 3, "velocity": 83}, {"time": 4231, "pitch": 64, "duration": 3, "velocity": 84}, {"time": 4237, "pitch": 47, "duration": 8, "velocity": 70}, {"time": 4243, "pitch": 52, "duration": 6, "velocity": 86}, {"time": 4243, "pitch": 59, "duration": 3, "velocity": 85}, {"time": 4246, "pitch": 47, "duration": 9, "velocity": 67}, {"time": 4252, "pitch": 52, "duration": 1, "velocity": 78}, {"time": 4252, "pitch": 56, "duration": 1, "velocity": 76}, {"time": 4252, "pitch": 59, "duration": 2, "velocity": 81}, {"time": 4255, "pitch": 52, "duration": 8, "velocity": 81}, {"time": 4255, "pitch": 56, "duration": 7, "velocity": 81}, {"time": 4255, "pitch": 59, "duration": 9, "velocity": 82}, {"time": 4261, "pitch": 47, "duration": 19, "velocity": 77}, {"time": 4267, "pitch": 52, "duration": 3, "velocity": 87}, {"time": 4267, "pitch": 64, "duration": 7, "velocity": 85}, {"time": 4273, "pitch": 59, "duration": 6, "velocity": 79}, {"time": 4279, "pitch": 40, "duration": 1, "velocity": 82}, {"time": 4279, "pitch": 64, "duration": 7, "velocity": 80}, {"time": 4279, "pitch": 68, "duration": 13, "velocity": 80}, {"time": 4285, "pitch": 47, "duration": 21, "velocity": 69}, {"time": 4291, "pitch": 64, "duration": 8, "velocity": 88}, {"time": 4297, "pitch": 68, "duration": 3, "velocity": 88}, {"time": 4303, "pitch": 64, "duration": 5, "velocity": 81}, {"time": 4303, "pitch": 68, "duration": 7, "velocity": 82}, {"time": 4303, "pitch": 71, "duration": 10, "velocity": 82}, {"time": 4309, "pitch": 47, "duration": 9, "velocity": 67}, {"time": 4315, "pitch": 64, "duration": 2, "velocity": 88}, {"time": 4327, "pitch": 49, "duration": 36, "velocity": 82}, {"time": 4327, "pitch": 61, "duration": 7, "velocity": 81}, {"time": 4327, "pitch": 64, "duration": 12, "velocity": 82}, {"time": 4333, "pitch": 56, "duration": 21, "velocity": 69}, {"time": 4339, "pitch": 61, "duration": 8, "velocity": 86}, {"time": 4345, "pitch": 64, "duration": 3, "velocity": 79}, {"time": 4351, "pitch": 61, "duration": 9, "velocity": 79}, {"time": 4351, "pitch": 68, "duration": 10, "velocity": 82}, {"time": 4357, "pitch": 56, "duration": 6, "velocity": 66}, {"time": 4363, "pitch": 61, "duration": 3, "velocity": 83}, {"time": 4363, "pitch": 64, "duration": 3, "velocity": 85}, {"time": 4375, "pitch": 42, "duration": 33, "velocity": 82}, {"time": 4375, "pitch": 54, "duration": 7, "velocity": 79}, {"time": 4375, "pitch": 57, "duration": 12, "velocity": 81}, {"time": 4381, "pitch": 49, "duration": 27, "velocity": 70}, {"time": 4387, "pitch": 54, "duration": 11, "velocity": 87}, {"time": 4393, "pitch": 57, "duration": 7, "velocity": 73}, {"time": 4399, "pitch": 61, "duration": 20, "velocity": 90}, {"time": 4405, "pitch": 57, "duration": 14, "velocity": 81}, {"time": 4411, "pitch": 49, "duration": 8, "velocity": 84}, {"time": 4411, "pitch": 54, "duration": 4, "velocity": 62}, {"time": 4417, "pitch": 54, "duration": 6, "velocity": 86}, {"time": 4423, "pitch": 47, "duration": 43, "velocity": 83}, {"time": 4429, "pitch": 59, "duration": 9, "velocity": 82}, {"time": 4435, "pitch": 54, "duration": 14, "velocity": 71}, {"time": 4441, "pitch": 59, "duration": 5, "velocity": 84}, {"time": 4447, "pitch": 59, "duration": 7, "velocity": 83}, {"time": 4447, "pitch": 63, "duration": 7, "velocity": 81}, {"time": 4453, "pitch": 54, "duration": 9, "velocity": 77}, {"time": 4459, "pitch": 59, "duration": 5, "velocity": 83}, {"time": 4459, "pitch": 63, "duration": 10, "velocity": 88}, {"time": 4459, "pitch": 66, "duration": 11, "velocity": 81}, {"time": 4465, "pitch": 51, "duration": 2, "velocity": 86}, {"time": 4465, "pitch": 59, "duration": 4, "velocity": 86}, {"time": 4471, "pitch": 40, "duration": 38, "velocity": 82}, {"time": 4471, "pitch": 52, "duration": 5, "velocity": 79}, {"time": 4471, "pitch": 64, "duration": 7, "velocity": 82}, {"time": 4477, "pitch": 47, "duration": 20, "velocity": 76}, {"time": 4483, "pitch": 59, "duration": 8, "velocity": 70}, {"time": 4489, "pitch": 64, "duration": 3, "velocity": 81}, {"time": 4495, "pitch": 59, "duration": 7, "velocity": 81}, {"time": 4495, "pitch": 64, "duration": 7, "velocity": 83}, {"time": 4495, "pitch": 68, "duration": 18, "velocity": 82}, {"time": 4501, "pitch": 47, "duration": 9, "velocity": 81}, {"time": 4507, "pitch": 59, "duration": 7, "velocity": 88}, {"time": 4513, "pitch": 64, "duration": 2, "velocity": 82}, {"time": 4519, "pitch": 49, "duration": 28, "velocity": 87}, {"time": 4519, "pitch": 61, "duration": 8, "velocity": 72}, {"time": 4519, "pitch": 64, "duration": 12, "velocity": 82}, {"time": 4525, "pitch": 56, "duration": 22, "velocity": 70}, {"time": 4531, "pitch": 61, "duration": 7, "velocity": 83}, {"time": 4537, "pitch": 64, "duration": 3, "velocity": 83}, {"time": 4543, "pitch": 61, "duration": 7, "velocity": 83}, {"time": 4543, "pitch": 68, "duration": 7, "velocity": 84}, {"time": 4549, "pitch": 64, "duration": 4, "velocity": 79}, {"time": 4555, "pitch": 37, "duration": 3, "velocity": 82}, {"time": 4555, "pitch": 61, "duration": 7, "velocity": 88}, {"time": 4555, "pitch": 64, "duration": 1, "velocity": 82}, {"time": 4555, "pitch": 68, "duration": 1, "velocity": 65}, {"time": 4561, "pitch": 64, "duration": 1, "velocity": 72}, {"time": 4567, "pitch": 42, "duration": 15, "velocity": 84}, {"time": 4567, "pitch": 54, "duration": 8, "velocity": 70}, {"time": 4567, "pitch": 57, "duration": 12, "velocity": 73}, {"time": 4573, "pitch": 49, "duration": 9, "velocity": 69}, {"time": 4579, "pitch": 54, "duration": 9, "velocity": 85}, {"time": 4585, "pitch": 57, "duration": 5, "velocity": 69}, {"time": 4591, "pitch": 47, "duration": 15, "velocity": 84}, {"time": 4597, "pitch": 54, "duration": 7, "velocity": 82}, {"time": 4603, "pitch": 59, "duration": 9, "velocity": 87}, {"time": 4609, "pitch": 63, "duration": 4, "velocity": 78}, {"time": 4615, "pitch": 40, "duration": 2, "velocity": 83}, {"time": 4615, "pitch": 59, "duration": 5, "velocity": 81}, {"time": 4615, "pitch": 64, "duration": 6, "velocity": 82}, {"time": 4621, "pitch": 52, "duration": 33, "velocity": 73}, {"time": 4627, "pitch": 56, "duration": 14, "velocity": 83}, {"time": 4630, "pitch": 59, "duration": 24, "velocity": 80}, {"time": 4633, "pitch": 64, "duration": 8, "velocity": 82}, {"time": 4636, "pitch": 68, "duration": 5, "velocity": 83}, {"time": 4639, "pitch": 71, "duration": 8, "velocity": 81}, {"time": 4645, "pitch": 56, "duration": 8, "velocity": 64}, {"time": 4651, "pitch": 64, "duration": 10, "velocity": 81}, {"time": 4651, "pitch": 68, "duration": 7, "velocity": 77}, {"time": 4651, "pitch": 71, "duration": 9, "velocity": 81}, {"time": 4651, "pitch": 76, "duration": 5, "velocity": 74}, {"time": 4660, "pitch": 52, "duration": 43, "velocity": 73}, {"time": 4661, "pitch": 56, "duration": 42, "velocity": 70}, {"time": 4662, "pitch": 40, "duration": 43, "velocity": 83}, {"time": 4663, "pitch": 59, "duration": 41, "velocity": 70}, {"time": 4663, "pitch": 64, "duration": 41, "velocity": 69}], "annotations": [{"time": 55, "annotation": {"number": 64, "value": 127}, "group": "control_change"}, {"time": 55, "annotation": {"number": 64, "value": 0}, "group": "control_change"}, {"time": 100, "annotation": {"number": 64, "value": 0}, "group": "control_change"}, {"time": 107, "annotation": {"number": 64, "value": 127}, "group": "control_change"}, {"time": 150, "annotation": {"number": 64, "value": 0}, "group": "control_change"}, {"time": 158, "annotation": {"number": 64, "value": 127}, "group": "control_change"}, {"time": 198, "annotation": {"number": 64, "value": 0}, "group": "control_change"}, {"time": 201, "annotation": {"number": 64, "value": 127}, "group": "control_change"}, {"time": 246, "annotation": {"number": 64, "value": 0}, "group": "control_change"}, {"time": 246, "annotation": {"number": 64, "value": 127}, "group": "control_change"}, {"time": 294, "annotation": {"number": 64, "value": 0}, "group": "control_change"}, {"time": 300, "annotation": {"number": 64, "value": 127}, "group": "control_change"}, {"time": 344, "annotation": {"number": 64, "value": 0}, "group": "control_change"}, {"time": 348, "annotation": {"number": 64, "value": 127}, "group": "control_change"}, {"time": 365, "annotation": {"number": 64, "value": 0}, "group": "control_change"}, {"time": 367, "annotation": {"number": 64, "value": 127}, "group": "control_change"}, {"time": 387, "annotation": {"number": 64, "value": 0}, "group": "control_change"}, {"time": 390, "annotation": {"number": 64, "value": 127}, "group": "control_change"}, {"time": 436, "annotation": {"number": 64, "value": 0}, "group": "control_change"}, {"time": 439, "annotation": {"number": 64, "value": 127}, "group": "control_change"}, {"time": 484, "annotation": {"number": 64, "value": 0}, "group": "control_change"}, {"time": 488, "annotation": {"number": 64, "value": 127}, "group": "control_change"}, {"time": 533, "annotation": {"number": 64, "value": 0}, "group": "control_change"}, {"time": 536, "annotation": {"number": 64, "value": 127}, "group": "control_change"}, {"time": 581, "annotation": {"number": 64, "value": 0}, "group": "control_change"}, {"time": 587, "annotation": {"number": 64, "value": 127}, "group": "control_change"}, {"time": 630, "annotation": {"number": 64, "value": 0}, "group": "control_change"}, {"time": 638, "annotation": {"number": 64, "value": 127}, "group": "control_change"}, {"time": 678, "annotation": {"number": 64, "value": 0}, "group": "control_change"}, {"time": 682, "annotation": {"number": 64, "value": 127}, "group": "control_change"}, {"time": 726, "annotation": {"number": 64, "value": 0}, "group": "control_change"}, {"time": 735, "annotation": {"number": 64, "value": 127}, "group": "control_change"}, {"time": 773, "annotation": {"number": 64, "value": 0}, "group": "control_change"}, {"time": 776, "annotation": {"number": 64, "value": 127}, "group": "control_change"}, {"time": 821, "annotation": {"number": 64, "value": 0}, "group": "control_change"}, {"time": 823, "annotation": {"number": 64, "value": 127}, "group": "control_change"}, {"time": 868, "annotation": {"number": 64, "value": 0}, "group": "control_change"}, {"time": 872, "annotation": {"number": 64, "value": 127}, "group": "control_change"}, {"time": 917, "annotation": {"number": 64, "value": 0}, "group": "control_change"}, {"time": 920, "annotation": {"number": 64, "value": 127}, "group": "control_change"}, {"time": 965, "annotation": {"number": 64, "value": 0}, "group": "control_change"}, {"time": 971, "annotation": {"number": 64, "value": 127}, "group": "control_change"}, {"time": 1014, "annotation": {"number": 64, "value": 0}, "group": "control_change"}, {"time": 1022, "annotation": {"number": 64, "value": 127}, "group": "control_change"}, {"time": 1062, "annotation": {"number": 64, "value": 0}, "group": "control_change"}, {"time": 1066, "annotation": {"number": 64, "value": 127}, "group": "control_change"}, {"time": 1110, "annotation": {"number": 64, "value": 0}, "group": "control_change"}, {"time": 1119, "annotation": {"number": 64, "value": 127}, "group": "control_change"}, {"time": 1157, "annotation": {"number": 64, "value": 0}, "group": "control_change"}, {"time": 1160, "annotation": {"number": 64, "value": 127}, "group": "control_change"}, {"time": 1205, "annotation": {"number": 64, "value": 0}, "group": "control_change"}, {"time": 1208, "annotation": {"number": 64, "value": 127}, "group": "control_change"}, {"time": 1208, "annotation": {"number": 64, "value": 0}, "group": "control_change"}, {"time": 1252, "annotation": {"number": 64, "value": 0}, "group": "control_change"}, {"time": 1255, "annotation": {"number": 64, "value": 127}, "group": "control_change"}, {"time": 1300, "annotation": {"number": 64, "value": 0}, "group": "control_change"}, {"time": 1303, "annotation": {"number": 64, "value": 127}, "group": "control_change"}, {"time": 1348, "annotation": {"number": 64, "value": 0}, "group": "control_change"}, {"time": 1351, "annotation": {"number": 64, "value": 127}, "group": "control_change"}, {"time": 1398, "annotation": {"number": 64, "value": 0}, "group": "control_change"}, {"time": 1400, "annotation": {"number": 64, "value": 127}, "group": "control_change"}, {"time": 1445, "annotation": {"number": 64, "value": 0}, "group": "control_change"}, {"time": 1452, "annotation": {"number": 64, "value": 127}, "group": "control_change"}, {"time": 1492, "annotation": {"number": 64, "value": 0}, "group": "control_change"}, {"time": 1494, "annotation": {"number": 64, "value": 127}, "group": "control_change"}, {"time": 1539, "annotation": {"number": 64, "value": 0}, "group": "control_change"}, {"time": 1542, "annotation": {"number": 64, "value": 127}, "group": "control_change"}, {"time": 1565, "annotation": {"number": 64, "value": 0}, "group": "control_change"}, {"time": 1568, "annotation": {"number": 64, "value": 127}, "group": "control_change"}, {"time": 1577, "annotation": {"number": 64, "value": 0}, "group": "control_change"}, {"time": 1579, "annotation": {"number": 64, "value": 127}, "group": "control_change"}, {"time": 1589, "annotation": {"number": 64, "value": 0}, "group": "control_change"}, {"time": 1592, "annotation": {"number": 64, "value": 127}, "group": "control_change"}, {"time": 1592, "annotation": {"number": 64, "value": 0}, "group": "control_change"}, {"time": 1636, "annotation": {"number": 64, "value": 0}, "group": "control_change"}, {"time": 1639, "annotation": {"number": 64, "value": 127}, "group": "control_change"}, {"time": 1684, "annotation": {"number": 64, "value": 0}, "group": "control_change"}, {"time": 1687, "annotation": {"number": 64, "value": 127}, "group": "control_change"}, {"time": 1732, "annotation": {"number": 64, "value": 0}, "group": "control_change"}, {"time": 1735, "annotation": {"number": 64, "value": 127}, "group": "control_change"}, {"time": 1782, "annotation": {"number": 64, "value": 0}, "group": "control_change"}, {"time": 1784, "annotation": {"number": 64, "value": 127}, "group": "control_change"}, {"time": 1829, "annotation": {"number": 64, "value": 0}, "group": "control_change"}, {"time": 1836, "annotation": {"number": 64, "value": 127}, "group": "control_change"}, {"time": 1876, "annotation": {"number": 64, "value": 0}, "group": "control_change"}, {"time": 1878, "annotation": {"number": 64, "value": 127}, "group": "control_change"}, {"time": 1880, "annotation": {"number": 64, "value": 127}, "group": "control_change"}, {"time": 1900, "annotation": {"number": 64, "value": 0}, "group": "control_change"}, {"time": 1903, "annotation": {"number": 64, "value": 127}, "group": "control_change"}, {"time": 1924, "annotation": {"number": 64, "value": 0}, "group": "control_change"}, {"time": 1927, "annotation": {"number": 64, "value": 127}, "group": "control_change"}, {"time": 1973, "annotation": {"number": 64, "value": 0}, "group": "control_change"}, {"time": 2021, "annotation": {"number": 64, "value": 0}, "group": "control_change"}, {"time": 2023, "annotation": {"number": 64, "value": 127}, "group": "control_change"}, {"time": 2069, "annotation": {"number": 64, "value": 0}, "group": "control_change"}, {"time": 2072, "annotation": {"number": 64, "value": 127}, "group": "control_change"}, {"time": 2116, "annotation": {"number": 64, "value": 0}, "group": "control_change"}, {"time": 2119, "annotation": {"number": 64, "value": 127}, "group": "control_change"}, {"time": 2165, "annotation": {"number": 64, "value": 0}, "group": "control_change"}, {"time": 2213, "annotation": {"number": 64, "value": 0}, "group": "control_change"}, {"time": 2215, "annotation": {"number": 64, "value": 127}, "group": "control_change"}, {"time": 2261, "annotation": {"number": 64, "value": 0}, "group": "control_change"}, {"time": 2262, "annotation": {"number": 64, "value": 127}, "group": "control_change"}, {"time": 2282, "annotation": {"number": 64, "value": 0}, "group": "control_change"}, {"time": 2284, "annotation": {"number": 64, "value": 127}, "group": "control_change"}, {"time": 2307, "annotation": {"number": 64, "value": 0}, "group": "control_change"}, {"time": 2310, "annotation": {"number": 64, "value": 127}, "group": "control_change"}, {"time": 2354, "annotation": {"number": 64, "value": 0}, "group": "control_change"}, {"time": 2359, "annotation": {"number": 64, "value": 127}, "group": "control_change"}, {"time": 2404, "annotation": {"number": 64, "value": 0}, "group": "control_change"}, {"time": 2408, "annotation": {"number": 64, "value": 127}, "group": "control_change"}, {"time": 2453, "annotation": {"number": 64, "value": 0}, "group": "control_change"}, {"time": 2456, "annotation": {"number": 64, "value": 127}, "group": "control_change"}, {"time": 2501, "annotation": {"number": 64, "value": 0}, "group": "control_change"}, {"time": 2507, "annotation": {"number": 64, "value": 127}, "group": "control_change"}, {"time": 2550, "annotation": {"number": 64, "value": 0}, "group": "control_change"}, {"time": 2558, "annotation": {"number": 64, "value": 127}, "group": "control_change"}, {"time": 2598, "annotation": {"number": 64, "value": 0}, "group": "control_change"}, {"time": 2602, "annotation": {"number": 64, "value": 127}, "group": "control_change"}, {"time": 2646, "annotation": {"number": 64, "value": 0}, "group": "control_change"}, {"time": 2655, "annotation": {"number": 64, "value": 127}, "group": "control_change"}, {"time": 2693, "annotation": {"number": 64, "value": 0}, "group": "control_change"}, {"time": 2696, "annotation": {"number": 64, "value": 127}, "group": "control_change"}, {"time": 2741, "annotation": {"number": 64, "value": 0}, "group": "control_change"}, {"time": 2744, "annotation": {"number": 64, "value": 127}, "group": "control_change"}, {"time": 2744, "annotation": {"number": 64, "value": 0}, "group": "control_change"}, {"time": 2788, "annotation": {"number": 64, "value": 0}, "group": "control_change"}, {"time": 2791, "annotation": {"number": 64, "value": 127}, "group": "control_change"}, {"time": 2836, "annotation": {"number": 64, "value": 0}, "group": "control_change"}, {"time": 2839, "annotation": {"number": 64, "value": 127}, "group": "control_change"}, {"time": 2884, "annotation": {"number": 64, "value": 0}, "group": "control_change"}, {"time": 2887, "annotation": {"number": 64, "value": 127}, "group": "control_change"}, {"time": 2934, "annotation": {"number": 64, "value": 0}, "group": "control_change"}, {"time": 2936, "annotation": {"number": 64, "value": 127}, "group": "control_change"}, {"time": 2981, "annotation": {"number": 64, "value": 0}, "group": "control_change"}, {"time": 2988, "annotation": {"number": 64, "value": 127}, "group": "control_change"}, {"time": 3028, "annotation": {"number": 64, "value": 0}, "group": "control_change"}, {"time": 3030, "annotation": {"number": 64, "value": 127}, "group": "control_change"}, {"time": 3075, "annotation": {"number": 64, "value": 0}, "group": "control_change"}, {"time": 3078, "annotation": {"number": 64, "value": 127}, "group": "control_change"}, {"time": 3101, "annotation": {"number": 64, "value": 0}, "group": "control_change"}, {"time": 3104, "annotation": {"number": 64, "value": 127}, "group": "control_change"}, {"time": 3113, "annotation": {"number": 64, "value": 0}, "group": "control_change"}, {"time": 3115, "annotation": {"number": 64, "value": 127}, "group": "control_change"}, {"time": 3125, "annotation": {"number": 64, "value": 0}, "group": "control_change"}, {"time": 3128, "annotation": {"number": 64, "value": 127}, "group": "control_change"}, {"time": 3128, "annotation": {"number": 64, "value": 0}, "group": "control_change"}, {"time": 3172, "annotation": {"number": 64, "value": 0}, "group": "control_change"}, {"time": 3175, "annotation": {"number": 64, "value": 127}, "group": "control_change"}, {"time": 3220, "annotation": {"number": 64, "value": 0}, "group": "control_change"}, {"time": 3223, "annotation": {"number": 64, "value": 127}, "group": "control_change"}, {"time": 3268, "annotation": {"number": 64, "value": 0}, "group": "control_change"}, {"time": 3271, "annotation": {"number": 64, "value": 127}, "group": "control_change"}, {"time": 3318, "annotation": {"number": 64, "value": 0}, "group": "control_change"}, {"time": 3320, "annotation": {"number": 64, "value": 127}, "group": "control_change"}, {"time": 3365, "annotation": {"number": 64, "value": 0}, "group": "control_change"}, {"time": 3372, "annotation": {"number": 64, "value": 127}, "group": "control_change"}, {"time": 3412, "annotation": {"number": 64, "value": 0}, "group": "control_change"}, {"time": 3414, "annotation": {"number": 64, "value": 127}, "group": "control_change"}, {"time": 3416, "annotation": {"number": 64, "value": 127}, "group": "control_change"}, {"time": 3436, "annotation": {"number": 64, "value": 0}, "group": "control_change"}, {"time": 3439, "annotation": {"number": 64, "value": 127}, "group": "control_change"}, {"time": 3460, "annotation": {"number": 64, "value": 0}, "group": "control_change"}, {"time": 3463, "annotation": {"number": 64, "value": 127}, "group": "control_change"}, {"time": 3509, "annotation": {"number": 64, "value": 0}, "group": "control_change"}, {"time": 3510, "annotation": {"number": 64, "value": 127}, "group": "control_change"}, {"time": 3517, "annotation": {"number": 64, "value": 0}, "group": "control_change"}, {"time": 3559, "annotation": {"number": 64, "value": 127}, "group": "control_change"}, {"time": 3604, "annotation": {"number": 64, "value": 0}, "group": "control_change"}, {"time": 3607, "annotation": {"number": 64, "value": 127}, "group": "control_change"}, {"time": 3652, "annotation": {"number": 64, "value": 0}, "group": "control_change"}, {"time": 3655, "annotation": {"number": 64, "value": 127}, "group": "control_change"}, {"time": 3702, "annotation": {"number": 64, "value": 0}, "group": "control_change"}, {"time": 3704, "annotation": {"number": 64, "value": 127}, "group": "control_change"}, {"time": 3749, "annotation": {"number": 64, "value": 0}, "group": "control_change"}, {"time": 3756, "annotation": {"number": 64, "value": 127}, "group": "control_change"}, {"time": 3796, "annotation": {"number": 64, "value": 0}, "group": "control_change"}, {"time": 3798, "annotation": {"number": 64, "value": 127}, "group": "control_change"}, {"time": 3843, "annotation": {"number": 64, "value": 0}, "group": "control_change"}, {"time": 3846, "annotation": {"number": 64, "value": 127}, "group": "control_change"}, {"time": 3869, "annotation": {"number": 64, "value": 0}, "group": "control_change"}, {"time": 3872, "annotation": {"number": 64, "value": 127}, "group": "control_change"}, {"time": 3881, "annotation": {"number": 64, "value": 0}, "group": "control_change"}, {"time": 3883, "annotation": {"number": 64, "value": 127}, "group": "control_change"}, {"time": 3893, "annotation": {"number": 64, "value": 0}, "group": "control_change"}, {"time": 3896, "annotation": {"number": 64, "value": 127}, "group": "control_change"}, {"time": 3896, "annotation": {"number": 64, "value": 0}, "group": "control_change"}, {"time": 3940, "annotation": {"number": 64, "value": 0}, "group": "control_change"}, {"time": 3943, "annotation": {"number": 64, "value": 127}, "group": "control_change"}, {"time": 3988, "annotation": {"number": 64, "value": 0}, "group": "control_change"}, {"time": 3991, "annotation": {"number": 64, "value": 127}, "group": "control_change"}, {"time": 4036, "annotation": {"number": 64, "value": 0}, "group": "control_change"}, {"time": 4039, "annotation": {"number": 64, "value": 127}, "group": "control_change"}, {"time": 4086, "annotation": {"number": 64, "value": 0}, "group": "control_change"}, {"time": 4088, "annotation": {"number": 64, "value": 127}, "group": "control_change"}, {"time": 4133, "annotation": {"number": 64, "value": 0}, "group": "control_change"}, {"time": 4140, "annotation": {"number": 64, "value": 127}, "group": "control_change"}, {"time": 4180, "annotation": {"number": 64, "value": 0}, "group": "control_change"}, {"time": 4182, "annotation": {"number": 64, "value": 127}, "group": "control_change"}, {"time": 4184, "annotation": {"number": 64, "value": 127}, "group": "control_change"}, {"time": 4204, "annotation": {"number": 64, "value": 0}, "group": "control_change"}, {"time": 4207, "annotation": {"number": 64, "value": 127}, "group": "control_change"}, {"time": 4228, "annotation": {"number": 64, "value": 0}, "group": "control_change"}, {"time": 4231, "annotation": {"number": 64, "value": 127}, "group": "control_change"}, {"time": 4277, "annotation": {"number": 64, "value": 0}, "group": "control_change"}, {"time": 4279, "annotation": {"number": 64, "value": 127}, "group": "control_change"}, {"time": 4279, "annotation": {"number": 64, "value": 0}, "group": "control_change"}, {"time": 4324, "annotation": {"number": 64, "value": 0}, "group": "control_change"}, {"time": 4331, "annotation": {"number": 64, "value": 127}, "group": "control_change"}, {"time": 4374, "annotation": {"number": 64, "value": 0}, "group": "control_change"}, {"time": 4382, "annotation": {"number": 64, "value": 127}, "group": "control_change"}, {"time": 4422, "annotation": {"number": 64, "value": 0}, "group": "control_change"}, {"time": 4425, "annotation": {"number": 64, "value": 127}, "group": "control_change"}, {"time": 4470, "annotation": {"number": 64, "value": 0}, "group": "control_change"}, {"time": 4470, "annotation": {"number": 64, "value": 127}, "group": "control_change"}, {"time": 4518, "annotation": {"number": 64, "value": 0}, "group": "control_change"}, {"time": 4524, "annotation": {"number": 64, "value": 127}, "group": "control_change"}, {"time": 4568, "annotation": {"number": 64, "value": 0}, "group": "control_change"}, {"time": 4572, "annotation": {"number": 64, "value": 127}, "group": "control_change"}, {"time": 4589, "annotation": {"number": 64, "value": 0}, "group": "control_change"}, {"time": 4591, "annotation": {"number": 64, "value": 127}, "group": "control_change"}, {"time": 4611, "annotation": {"number": 64, "value": 0}, "group": "control_change"}, {"time": 4614, "annotation": {"number": 64, "value": 127}, "group": "control_change"}, {"time": 4660, "annotation": {"number": 64, "value": 0}, "group": "control_change"}, {"time": 4662, "annotation": {"number": 64, "value": 127}, "group": "control_change"}, {"time": 4764, "annotation": {"number": 64, "value": 0}, "group": "control_change"}]}]}