{"metadata": {"schema_version": "0.2", "title": "None", "source_filename": "493.mid", "source_format": "midi"}, "resolution": 12, "tempos": [{"time": 0, "qpm": 60.0}], "time_signatures": [{"time": 0, "numerator": 1, "denominator": 4}], "tracks": [{"program": 4, "is_drum": false, "name": "MELODY", "notes": [{"time": 200, "pitch": 72, "duration": 4, "velocity": 94}, {"time": 206, "pitch": 71, "duration": 1, "velocity": 99}, {"time": 209, "pitch": 72, "duration": 25, "velocity": 99}, {"time": 254, "pitch": 72, "duration": 1, "velocity": 93}, {"time": 257, "pitch": 74, "duration": 1, "velocity": 93}, {"time": 260, "pitch": 71, "duration": 4, "velocity": 89}, {"time": 266, "pitch": 67, "duration": 2, "velocity": 88}, {"time": 269, "pitch": 71, "duration": 19, "velocity": 89}, {"time": 302, "pitch": 69, "duration": 2, "velocity": 87}, {"time": 305, "pitch": 65, "duration": 2, "velocity": 84}, {"time": 308, "pitch": 69, "duration": 17, "velocity": 90}, {"time": 344, "pitch": 69, "duration": 2, "velocity": 90}, {"time": 347, "pitch": 72, "duration": 6, "velocity": 93}, {"time": 356, "pitch": 67, "duration": 3, "velocity": 86}, {"time": 362, "pitch": 60, "duration": 2, "velocity": 86}, {"time": 365, "pitch": 62, "duration": 22, "velocity": 89}, {"time": 392, "pitch": 62, "duration": 4, "velocity": 90}, {"time": 398, "pitch": 64, "duration": 2, "velocity": 89}, {"time": 401, "pitch": 62, "duration": 2, "velocity": 88}, {"time": 404, "pitch": 64, "duration": 2, "velocity": 92}, {"time": 410, "pitch": 64, "duration": 19, "velocity": 90}, {"time": 437, "pitch": 64, "duration": 2, "velocity": 92}, {"time": 440, "pitch": 74, "duration": 4, "velocity": 95}, {"time": 446, "pitch": 72, "duration": 2, "velocity": 88}, {"time": 449, "pitch": 71, "duration": 2, "velocity": 88}, {"time": 452, "pitch": 72, "duration": 22, "velocity": 89}, {"time": 494, "pitch": 74, "duration": 2, "velocity": 93}, {"time": 497, "pitch": 76, "duration": 2, "velocity": 88}, {"time": 500, "pitch": 74, "duration": 4, "velocity": 93}, {"time": 506, "pitch": 72, "duration": 19, "velocity": 91}, {"time": 530, "pitch": 69, "duration": 2, "velocity": 90}, {"time": 533, "pitch": 71, "duration": 6, "velocity": 89}, {"time": 539, "pitch": 72, "duration": 4, "velocity": 89}, {"time": 545, "pitch": 72, "duration": 2, "velocity": 89}, {"time": 548, "pitch": 67, "duration": 22, "velocity": 88}, {"time": 584, "pitch": 72, "duration": 4, "velocity": 94}, {"time": 590, "pitch": 71, "duration": 1, "velocity": 99}, {"time": 593, "pitch": 72, "duration": 25, "velocity": 99}, {"time": 638, "pitch": 72, "duration": 1, "velocity": 93}, {"time": 641, "pitch": 74, "duration": 1, "velocity": 93}, {"time": 644, "pitch": 76, "duration": 6, "velocity": 92}, {"time": 653, "pitch": 71, "duration": 2, "velocity": 90}, {"time": 656, "pitch": 71, "duration": 5, "velocity": 90}, {"time": 662, "pitch": 69, "duration": 2, "velocity": 89}, {"time": 665, "pitch": 67, "duration": 2, "velocity": 89}, {"time": 668, "pitch": 71, "duration": 12, "velocity": 89}, {"time": 686, "pitch": 69, "duration": 2, "velocity": 87}, {"time": 689, "pitch": 65, "duration": 2, "velocity": 84}, {"time": 692, "pitch": 69, "duration": 17, "velocity": 90}, {"time": 734, "pitch": 69, "duration": 3, "velocity": 90}, {"time": 737, "pitch": 72, "duration": 2, "velocity": 90}, {"time": 740, "pitch": 67, "duration": 3, "velocity": 89}, {"time": 746, "pitch": 60, "duration": 2, "velocity": 89}, {"time": 749, "pitch": 62, "duration": 4, "velocity": 88}, {"time": 755, "pitch": 64, "duration": 4, "velocity": 90}, {"time": 761, "pitch": 62, "duration": 13, "velocity": 90}, {"time": 776, "pitch": 62, "duration": 4, "velocity": 90}, {"time": 782, "pitch": 64, "duration": 2, "velocity": 89}, {"time": 785, "pitch": 62, "duration": 2, "velocity": 88}, {"time": 788, "pitch": 62, "duration": 2, "velocity": 92}, {"time": 794, "pitch": 64, "duration": 19, "velocity": 90}, {"time": 821, "pitch": 64, "duration": 2, "velocity": 92}, {"time": 824, "pitch": 74, "duration": 4, "velocity": 95}, {"time": 830, "pitch": 72, "duration": 2, "velocity": 88}, {"time": 833, "pitch": 71, "duration": 2, "velocity": 88}, {"time": 836, "pitch": 71, "duration": 3, "velocity": 88}, {"time": 842, "pitch": 72, "duration": 22, "velocity": 89}, {"time": 872, "pitch": 72, "duration": 4, "velocity": 92}, {"time": 878, "pitch": 74, "duration": 2, "velocity": 93}, {"time": 881, "pitch": 76, "duration": 2, "velocity": 88}, {"time": 884, "pitch": 74, "duration": 4, "velocity": 93}, {"time": 890, "pitch": 72, "duration": 19, "velocity": 91}, {"time": 917, "pitch": 69, "duration": 1, "velocity": 92}, {"time": 920, "pitch": 69, "duration": 5, "velocity": 89}, {"time": 926, "pitch": 71, "duration": 2, "velocity": 91}, {"time": 929, "pitch": 72, "duration": 4, "velocity": 90}, {"time": 935, "pitch": 74, "duration": 20, "velocity": 93}, {"time": 968, "pitch": 72, "duration": 4, "velocity": 94}, {"time": 974, "pitch": 74, "duration": 2, "velocity": 97}, {"time": 977, "pitch": 76, "duration": 24, "velocity": 94}, {"time": 1016, "pitch": 72, "duration": 4, "velocity": 94}, {"time": 1022, "pitch": 74, "duration": 2, "velocity": 97}, {"time": 1025, "pitch": 76, "duration": 24, "velocity": 94}, {"time": 1070, "pitch": 79, "duration": 2, "velocity": 95}, {"time": 1073, "pitch": 79, "duration": 1, "velocity": 93}, {"time": 1076, "pitch": 79, "duration": 4, "velocity": 95}, {"time": 1082, "pitch": 77, "duration": 2, "velocity": 90}, {"time": 1085, "pitch": 77, "duration": 11, "velocity": 92}, {"time": 1100, "pitch": 77, "duration": 4, "velocity": 99}, {"time": 1106, "pitch": 76, "duration": 5, "velocity": 95}, {"time": 1112, "pitch": 74, "duration": 4, "velocity": 99}, {"time": 1118, "pitch": 72, "duration": 2, "velocity": 93}, {"time": 1121, "pitch": 74, "duration": 18, "velocity": 99}, {"time": 1160, "pitch": 74, "duration": 5, "velocity": 99}, {"time": 1166, "pitch": 72, "duration": 2, "velocity": 92}, {"time": 1169, "pitch": 76, "duration": 23, "velocity": 90}, {"time": 1208, "pitch": 76, "duration": 6, "velocity": 97}, {"time": 1214, "pitch": 83, "duration": 12, "velocity": 99}, {"time": 1226, "pitch": 79, "duration": 22, "velocity": 84}, {"time": 1262, "pitch": 79, "duration": 2, "velocity": 92}, {"time": 1265, "pitch": 79, "duration": 2, "velocity": 92}, {"time": 1268, "pitch": 79, "duration": 5, "velocity": 97}, {"time": 1274, "pitch": 77, "duration": 1, "velocity": 88}, {"time": 1277, "pitch": 77, "duration": 13, "velocity": 95}, {"time": 1292, "pitch": 77, "duration": 8, "velocity": 97}, {"time": 1301, "pitch": 76, "duration": 5, "velocity": 92}, {"time": 1307, "pitch": 74, "duration": 5, "velocity": 99}, {"time": 1313, "pitch": 72, "duration": 2, "velocity": 87}, {"time": 1316, "pitch": 74, "duration": 23, "velocity": 99}, {"time": 1346, "pitch": 67, "duration": 4, "velocity": 93}, {"time": 1352, "pitch": 76, "duration": 4, "velocity": 95}, {"time": 1358, "pitch": 71, "duration": 2, "velocity": 93}, {"time": 1361, "pitch": 74, "duration": 8, "velocity": 104}, {"time": 1370, "pitch": 72, "duration": 33, "velocity": 88}, {"time": 1544, "pitch": 72, "duration": 4, "velocity": 94}, {"time": 1550, "pitch": 71, "duration": 1, "velocity": 99}, {"time": 1553, "pitch": 72, "duration": 25, "velocity": 99}, {"time": 1598, "pitch": 72, "duration": 1, "velocity": 93}, {"time": 1601, "pitch": 74, "duration": 1, "velocity": 93}, {"time": 1604, "pitch": 76, "duration": 6, "velocity": 92}, {"time": 1613, "pitch": 71, "duration": 2, "velocity": 90}, {"time": 1616, "pitch": 71, "duration": 5, "velocity": 90}, {"time": 1622, "pitch": 69, "duration": 2, "velocity": 89}, {"time": 1625, "pitch": 67, "duration": 2, "velocity": 89}, {"time": 1628, "pitch": 71, "duration": 12, "velocity": 89}, {"time": 1646, "pitch": 69, "duration": 2, "velocity": 87}, {"time": 1649, "pitch": 65, "duration": 2, "velocity": 84}, {"time": 1652, "pitch": 69, "duration": 17, "velocity": 90}, {"time": 1694, "pitch": 69, "duration": 3, "velocity": 90}, {"time": 1697, "pitch": 72, "duration": 2, "velocity": 90}, {"time": 1700, "pitch": 67, "duration": 3, "velocity": 89}, {"time": 1706, "pitch": 60, "duration": 2, "velocity": 89}, {"time": 1709, "pitch": 62, "duration": 4, "velocity": 88}, {"time": 1715, "pitch": 64, "duration": 4, "velocity": 90}, {"time": 1721, "pitch": 62, "duration": 13, "velocity": 90}, {"time": 1736, "pitch": 62, "duration": 4, "velocity": 90}, {"time": 1742, "pitch": 64, "duration": 2, "velocity": 89}, {"time": 1745, "pitch": 62, "duration": 2, "velocity": 88}, {"time": 1748, "pitch": 62, "duration": 2, "velocity": 92}, {"time": 1754, "pitch": 64, "duration": 19, "velocity": 90}, {"time": 1781, "pitch": 64, "duration": 2, "velocity": 92}, {"time": 1784, "pitch": 74, "duration": 4, "velocity": 95}, {"time": 1790, "pitch": 72, "duration": 2, "velocity": 88}, {"time": 1793, "pitch": 71, "duration": 2, "velocity": 88}, {"time": 1796, "pitch": 71, "duration": 3, "velocity": 88}, {"time": 1802, "pitch": 72, "duration": 22, "velocity": 89}, {"time": 1832, "pitch": 72, "duration": 4, "velocity": 92}, {"time": 1838, "pitch": 74, "duration": 2, "velocity": 93}, {"time": 1841, "pitch": 76, "duration": 2, "velocity": 88}, {"time": 1844, "pitch": 74, "duration": 4, "velocity": 93}, {"time": 1850, "pitch": 72, "duration": 19, "velocity": 91}, {"time": 1877, "pitch": 69, "duration": 1, "velocity": 92}, {"time": 1880, "pitch": 69, "duration": 5, "velocity": 89}, {"time": 1886, "pitch": 71, "duration": 2, "velocity": 91}, {"time": 1889, "pitch": 72, "duration": 4, "velocity": 90}, {"time": 1895, "pitch": 74, "duration": 20, "velocity": 93}, {"time": 1928, "pitch": 72, "duration": 4, "velocity": 94}, {"time": 1934, "pitch": 74, "duration": 2, "velocity": 97}, {"time": 1937, "pitch": 76, "duration": 24, "velocity": 94}, {"time": 1976, "pitch": 72, "duration": 4, "velocity": 94}, {"time": 1982, "pitch": 74, "duration": 2, "velocity": 97}, {"time": 1985, "pitch": 76, "duration": 24, "velocity": 94}, {"time": 2030, "pitch": 79, "duration": 2, "velocity": 95}, {"time": 2033, "pitch": 79, "duration": 1, "velocity": 93}, {"time": 2036, "pitch": 79, "duration": 4, "velocity": 95}, {"time": 2042, "pitch": 77, "duration": 2, "velocity": 90}, {"time": 2045, "pitch": 77, "duration": 11, "velocity": 92}, {"time": 2060, "pitch": 77, "duration": 4, "velocity": 99}, {"time": 2066, "pitch": 76, "duration": 5, "velocity": 95}, {"time": 2072, "pitch": 74, "duration": 4, "velocity": 99}, {"time": 2078, "pitch": 72, "duration": 2, "velocity": 93}, {"time": 2081, "pitch": 74, "duration": 18, "velocity": 99}, {"time": 2120, "pitch": 74, "duration": 5, "velocity": 99}, {"time": 2126, "pitch": 72, "duration": 2, "velocity": 92}, {"time": 2129, "pitch": 76, "duration": 23, "velocity": 90}, {"time": 2168, "pitch": 76, "duration": 6, "velocity": 97}, {"time": 2174, "pitch": 83, "duration": 12, "velocity": 99}, {"time": 2186, "pitch": 79, "duration": 22, "velocity": 84}, {"time": 2222, "pitch": 79, "duration": 2, "velocity": 92}, {"time": 2225, "pitch": 79, "duration": 2, "velocity": 92}, {"time": 2228, "pitch": 79, "duration": 5, "velocity": 97}, {"time": 2234, "pitch": 77, "duration": 1, "velocity": 88}, {"time": 2237, "pitch": 77, "duration": 13, "velocity": 95}, {"time": 2252, "pitch": 77, "duration": 8, "velocity": 97}, {"time": 2261, "pitch": 76, "duration": 5, "velocity": 92}, {"time": 2267, "pitch": 74, "duration": 5, "velocity": 99}, {"time": 2273, "pitch": 72, "duration": 2, "velocity": 87}, {"time": 2276, "pitch": 74, "duration": 23, "velocity": 99}, {"time": 2312, "pitch": 72, "duration": 4, "velocity": 94}, {"time": 2318, "pitch": 74, "duration": 2, "velocity": 97}, {"time": 2321, "pitch": 76, "duration": 24, "velocity": 94}, {"time": 2360, "pitch": 72, "duration": 4, "velocity": 94}, {"time": 2366, "pitch": 74, "duration": 2, "velocity": 97}, {"time": 2369, "pitch": 76, "duration": 24, "velocity": 94}, {"time": 2414, "pitch": 79, "duration": 2, "velocity": 95}, {"time": 2417, "pitch": 79, "duration": 1, "velocity": 93}, {"time": 2420, "pitch": 79, "duration": 4, "velocity": 95}, {"time": 2426, "pitch": 77, "duration": 2, "velocity": 90}, {"time": 2429, "pitch": 77, "duration": 11, "velocity": 92}, {"time": 2444, "pitch": 77, "duration": 4, "velocity": 99}, {"time": 2450, "pitch": 76, "duration": 5, "velocity": 95}, {"time": 2456, "pitch": 74, "duration": 4, "velocity": 99}, {"time": 2462, "pitch": 72, "duration": 2, "velocity": 93}, {"time": 2465, "pitch": 74, "duration": 18, "velocity": 99}, {"time": 2504, "pitch": 74, "duration": 5, "velocity": 99}, {"time": 2510, "pitch": 72, "duration": 2, "velocity": 92}, {"time": 2513, "pitch": 76, "duration": 23, "velocity": 90}, {"time": 2552, "pitch": 76, "duration": 6, "velocity": 97}, {"time": 2558, "pitch": 83, "duration": 12, "velocity": 99}, {"time": 2570, "pitch": 79, "duration": 22, "velocity": 84}, {"time": 2606, "pitch": 79, "duration": 2, "velocity": 92}, {"time": 2609, "pitch": 79, "duration": 2, "velocity": 92}, {"time": 2612, "pitch": 79, "duration": 5, "velocity": 97}, {"time": 2618, "pitch": 77, "duration": 1, "velocity": 88}, {"time": 2621, "pitch": 77, "duration": 13, "velocity": 95}, {"time": 2636, "pitch": 77, "duration": 8, "velocity": 97}, {"time": 2645, "pitch": 76, "duration": 5, "velocity": 92}, {"time": 2651, "pitch": 74, "duration": 5, "velocity": 99}, {"time": 2657, "pitch": 72, "duration": 2, "velocity": 87}, {"time": 2660, "pitch": 74, "duration": 23, "velocity": 99}, {"time": 2690, "pitch": 67, "duration": 4, "velocity": 93}, {"time": 2696, "pitch": 76, "duration": 4, "velocity": 95}, {"time": 2702, "pitch": 71, "duration": 2, "velocity": 93}, {"time": 2705, "pitch": 74, "duration": 8, "velocity": 104}, {"time": 2714, "pitch": 72, "duration": 33, "velocity": 88}]}, {"program": 0, "is_drum": false, "name": "PIANO", "notes": [{"time": 20, "pitch": 48, "duration": 40, "velocity": 89}, {"time": 20, "pitch": 60, "duration": 8, "velocity": 82}, {"time": 20, "pitch": 64, "duration": 7, "velocity": 86}, {"time": 32, "pitch": 60, "duration": 1, "velocity": 92}, {"time": 32, "pitch": 67, "duration": 1, "velocity": 89}, {"time": 38, "pitch": 55, "duration": 4, "velocity": 45}, {"time": 41, "pitch": 60, "duration": 2, "velocity": 87}, {"time": 41, "pitch": 67, "duration": 2, "velocity": 81}, {"time": 44, "pitch": 55, "duration": 4, "velocity": 62}, {"time": 47, "pitch": 60, "duration": 2, "velocity": 69}, {"time": 50, "pitch": 55, "duration": 7, "velocity": 77}, {"time": 53, "pitch": 60, "duration": 1, "velocity": 77}, {"time": 56, "pitch": 60, "duration": 3, "velocity": 90}, {"time": 56, "pitch": 64, "duration": 3, "velocity": 92}, {"time": 68, "pitch": 40, "duration": 39, "velocity": 88}, {"time": 68, "pitch": 59, "duration": 6, "velocity": 82}, {"time": 68, "pitch": 67, "duration": 6, "velocity": 84}, {"time": 80, "pitch": 59, "duration": 1, "velocity": 55}, {"time": 80, "pitch": 64, "duration": 1, "velocity": 90}, {"time": 80, "pitch": 67, "duration": 2, "velocity": 87}, {"time": 83, "pitch": 47, "duration": 22, "velocity": 67}, {"time": 86, "pitch": 59, "duration": 1, "velocity": 77}, {"time": 89, "pitch": 59, "duration": 5, "velocity": 87}, {"time": 89, "pitch": 64, "duration": 5, "velocity": 87}, {"time": 101, "pitch": 59, "duration": 1, "velocity": 78}, {"time": 104, "pitch": 59, "duration": 2, "velocity": 92}, {"time": 104, "pitch": 67, "duration": 4, "velocity": 86}, {"time": 110, "pitch": 59, "duration": 1, "velocity": 84}, {"time": 110, "pitch": 64, "duration": 1, "velocity": 88}, {"time": 116, "pitch": 41, "duration": 39, "velocity": 89}, {"time": 116, "pitch": 57, "duration": 6, "velocity": 80}, {"time": 116, "pitch": 60, "duration": 6, "velocity": 83}, {"time": 122, "pitch": 48, "duration": 31, "velocity": 57}, {"time": 125, "pitch": 57, "duration": 4, "velocity": 81}, {"time": 128, "pitch": 65, "duration": 4, "velocity": 93}, {"time": 131, "pitch": 57, "duration": 2, "velocity": 84}, {"time": 140, "pitch": 57, "duration": 6, "velocity": 79}, {"time": 140, "pitch": 60, "duration": 6, "velocity": 81}, {"time": 152, "pitch": 57, "duration": 1, "velocity": 88}, {"time": 152, "pitch": 65, "duration": 6, "velocity": 89}, {"time": 155, "pitch": 57, "duration": 3, "velocity": 87}, {"time": 158, "pitch": 60, "duration": 1, "velocity": 81}, {"time": 164, "pitch": 43, "duration": 22, "velocity": 89}, {"time": 164, "pitch": 55, "duration": 6, "velocity": 84}, {"time": 164, "pitch": 62, "duration": 9, "velocity": 85}, {"time": 170, "pitch": 50, "duration": 15, "velocity": 76}, {"time": 173, "pitch": 55, "duration": 6, "velocity": 82}, {"time": 176, "pitch": 62, "duration": 4, "velocity": 77}, {"time": 179, "pitch": 67, "duration": 4, "velocity": 84}, {"time": 182, "pitch": 55, "duration": 3, "velocity": 73}, {"time": 188, "pitch": 43, "duration": 14, "velocity": 82}, {"time": 188, "pitch": 55, "duration": 9, "velocity": 76}, {"time": 188, "pitch": 62, "duration": 6, "velocity": 65}, {"time": 194, "pitch": 50, "duration": 8, "velocity": 55}, {"time": 200, "pitch": 55, "duration": 2, "velocity": 89}, {"time": 200, "pitch": 62, "duration": 2, "velocity": 87}, {"time": 212, "pitch": 48, "duration": 22, "velocity": 90}, {"time": 212, "pitch": 60, "duration": 6, "velocity": 81}, {"time": 212, "pitch": 67, "duration": 5, "velocity": 82}, {"time": 218, "pitch": 55, "duration": 7, "velocity": 67}, {"time": 224, "pitch": 60, "duration": 2, "velocity": 84}, {"time": 224, "pitch": 67, "duration": 3, "velocity": 88}, {"time": 227, "pitch": 55, "duration": 6, "velocity": 73}, {"time": 230, "pitch": 60, "duration": 1, "velocity": 78}, {"time": 233, "pitch": 60, "duration": 13, "velocity": 84}, {"time": 233, "pitch": 67, "duration": 13, "velocity": 85}, {"time": 242, "pitch": 48, "duration": 12, "velocity": 53}, {"time": 245, "pitch": 55, "duration": 8, "velocity": 80}, {"time": 248, "pitch": 60, "duration": 3, "velocity": 92}, {"time": 251, "pitch": 62, "duration": 4, "velocity": 94}, {"time": 260, "pitch": 40, "duration": 43, "velocity": 88}, {"time": 260, "pitch": 64, "duration": 7, "velocity": 89}, {"time": 266, "pitch": 47, "duration": 21, "velocity": 55}, {"time": 275, "pitch": 59, "duration": 2, "velocity": 88}, {"time": 275, "pitch": 67, "duration": 2, "velocity": 82}, {"time": 281, "pitch": 59, "duration": 1, "velocity": 84}, {"time": 284, "pitch": 59, "duration": 3, "velocity": 89}, {"time": 284, "pitch": 64, "duration": 6, "velocity": 87}, {"time": 290, "pitch": 47, "duration": 4, "velocity": 66}, {"time": 293, "pitch": 59, "duration": 4, "velocity": 88}, {"time": 293, "pitch": 62, "duration": 7, "velocity": 88}, {"time": 296, "pitch": 47, "duration": 1, "velocity": 68}, {"time": 299, "pitch": 47, "duration": 4, "velocity": 79}, {"time": 302, "pitch": 59, "duration": 2, "velocity": 93}, {"time": 305, "pitch": 62, "duration": 2, "velocity": 88}, {"time": 308, "pitch": 45, "duration": 23, "velocity": 88}, {"time": 308, "pitch": 57, "duration": 7, "velocity": 84}, {"time": 308, "pitch": 60, "duration": 7, "velocity": 89}, {"time": 314, "pitch": 52, "duration": 7, "velocity": 74}, {"time": 320, "pitch": 57, "duration": 3, "velocity": 85}, {"time": 320, "pitch": 60, "duration": 5, "velocity": 91}, {"time": 323, "pitch": 52, "duration": 8, "velocity": 73}, {"time": 329, "pitch": 60, "duration": 9, "velocity": 94}, {"time": 332, "pitch": 45, "duration": 21, "velocity": 89}, {"time": 335, "pitch": 52, "duration": 8, "velocity": 83}, {"time": 338, "pitch": 55, "duration": 2, "velocity": 90}, {"time": 341, "pitch": 55, "duration": 6, "velocity": 94}, {"time": 341, "pitch": 60, "duration": 9, "velocity": 91}, {"time": 350, "pitch": 52, "duration": 2, "velocity": 76}, {"time": 353, "pitch": 57, "duration": 8, "velocity": 87}, {"time": 356, "pitch": 38, "duration": 22, "velocity": 89}, {"time": 356, "pitch": 62, "duration": 5, "velocity": 87}, {"time": 362, "pitch": 45, "duration": 10, "velocity": 68}, {"time": 365, "pitch": 57, "duration": 2, "velocity": 76}, {"time": 371, "pitch": 57, "duration": 2, "velocity": 88}, {"time": 371, "pitch": 65, "duration": 10, "velocity": 92}, {"time": 374, "pitch": 45, "duration": 4, "velocity": 72}, {"time": 377, "pitch": 57, "duration": 5, "velocity": 82}, {"time": 380, "pitch": 38, "duration": 15, "velocity": 88}, {"time": 383, "pitch": 45, "duration": 7, "velocity": 76}, {"time": 386, "pitch": 57, "duration": 1, "velocity": 75}, {"time": 389, "pitch": 57, "duration": 5, "velocity": 93}, {"time": 389, "pitch": 62, "duration": 4, "velocity": 93}, {"time": 392, "pitch": 45, "duration": 3, "velocity": 72}, {"time": 395, "pitch": 57, "duration": 2, "velocity": 89}, {"time": 395, "pitch": 65, "duration": 4, "velocity": 90}, {"time": 404, "pitch": 40, "duration": 21, "velocity": 90}, {"time": 404, "pitch": 59, "duration": 6, "velocity": 80}, {"time": 404, "pitch": 64, "duration": 6, "velocity": 78}, {"time": 410, "pitch": 47, "duration": 16, "velocity": 67}, {"time": 413, "pitch": 59, "duration": 1, "velocity": 74}, {"time": 416, "pitch": 59, "duration": 4, "velocity": 92}, {"time": 416, "pitch": 67, "duration": 5, "velocity": 88}, {"time": 422, "pitch": 59, "duration": 1, "velocity": 49}, {"time": 425, "pitch": 59, "duration": 7, "velocity": 91}, {"time": 425, "pitch": 64, "duration": 9, "velocity": 91}, {"time": 428, "pitch": 40, "duration": 17, "velocity": 89}, {"time": 431, "pitch": 47, "duration": 14, "velocity": 80}, {"time": 434, "pitch": 59, "duration": 1, "velocity": 83}, {"time": 437, "pitch": 59, "duration": 8, "velocity": 90}, {"time": 437, "pitch": 64, "duration": 8, "velocity": 92}, {"time": 446, "pitch": 62, "duration": 2, "velocity": 95}, {"time": 452, "pitch": 45, "duration": 41, "velocity": 88}, {"time": 452, "pitch": 57, "duration": 6, "velocity": 82}, {"time": 452, "pitch": 60, "duration": 6, "velocity": 84}, {"time": 458, "pitch": 52, "duration": 7, "velocity": 69}, {"time": 461, "pitch": 57, "duration": 2, "velocity": 69}, {"time": 464, "pitch": 57, "duration": 3, "velocity": 91}, {"time": 464, "pitch": 60, "duration": 5, "velocity": 91}, {"time": 467, "pitch": 52, "duration": 1, "velocity": 72}, {"time": 470, "pitch": 52, "duration": 5, "velocity": 73}, {"time": 473, "pitch": 55, "duration": 2, "velocity": 88}, {"time": 473, "pitch": 59, "duration": 2, "velocity": 90}, {"time": 476, "pitch": 52, "duration": 4, "velocity": 75}, {"time": 479, "pitch": 57, "duration": 3, "velocity": 87}, {"time": 479, "pitch": 60, "duration": 4, "velocity": 89}, {"time": 482, "pitch": 52, "duration": 8, "velocity": 82}, {"time": 485, "pitch": 57, "duration": 2, "velocity": 77}, {"time": 488, "pitch": 57, "duration": 5, "velocity": 90}, {"time": 488, "pitch": 60, "duration": 5, "velocity": 88}, {"time": 488, "pitch": 64, "duration": 5, "velocity": 99}, {"time": 491, "pitch": 52, "duration": 1, "velocity": 58}, {"time": 494, "pitch": 45, "duration": 2, "velocity": 88}, {"time": 500, "pitch": 38, "duration": 35, "velocity": 90}, {"time": 500, "pitch": 57, "duration": 6, "velocity": 84}, {"time": 500, "pitch": 65, "duration": 10, "velocity": 88}, {"time": 506, "pitch": 45, "duration": 22, "velocity": 61}, {"time": 509, "pitch": 57, "duration": 1, "velocity": 76}, {"time": 512, "pitch": 57, "duration": 3, "velocity": 89}, {"time": 512, "pitch": 65, "duration": 5, "velocity": 90}, {"time": 521, "pitch": 64, "duration": 6, "velocity": 97}, {"time": 527, "pitch": 65, "duration": 7, "velocity": 92}, {"time": 530, "pitch": 45, "duration": 5, "velocity": 83}, {"time": 533, "pitch": 57, "duration": 2, "velocity": 79}, {"time": 536, "pitch": 38, "duration": 6, "velocity": 93}, {"time": 536, "pitch": 57, "duration": 5, "velocity": 89}, {"time": 536, "pitch": 60, "duration": 6, "velocity": 92}, {"time": 542, "pitch": 57, "duration": 4, "velocity": 80}, {"time": 548, "pitch": 43, "duration": 23, "velocity": 88}, {"time": 548, "pitch": 62, "duration": 9, "velocity": 87}, {"time": 554, "pitch": 50, "duration": 10, "velocity": 69}, {"time": 557, "pitch": 55, "duration": 4, "velocity": 74}, {"time": 560, "pitch": 62, "duration": 4, "velocity": 84}, {"time": 563, "pitch": 67, "duration": 8, "velocity": 90}, {"time": 566, "pitch": 50, "duration": 4, "velocity": 81}, {"time": 569, "pitch": 55, "duration": 2, "velocity": 75}, {"time": 572, "pitch": 43, "duration": 24, "velocity": 88}, {"time": 572, "pitch": 55, "duration": 6, "velocity": 88}, {"time": 572, "pitch": 62, "duration": 7, "velocity": 84}, {"time": 578, "pitch": 50, "duration": 8, "velocity": 71}, {"time": 581, "pitch": 55, "duration": 1, "velocity": 81}, {"time": 584, "pitch": 55, "duration": 10, "velocity": 94}, {"time": 584, "pitch": 62, "duration": 11, "velocity": 90}, {"time": 590, "pitch": 50, "duration": 6, "velocity": 87}, {"time": 596, "pitch": 48, "duration": 22, "velocity": 90}, {"time": 596, "pitch": 60, "duration": 6, "velocity": 81}, {"time": 596, "pitch": 67, "duration": 5, "velocity": 82}, {"time": 602, "pitch": 55, "duration": 7, "velocity": 67}, {"time": 608, "pitch": 60, "duration": 2, "velocity": 84}, {"time": 608, "pitch": 67, "duration": 3, "velocity": 88}, {"time": 611, "pitch": 55, "duration": 6, "velocity": 73}, {"time": 614, "pitch": 60, "duration": 1, "velocity": 78}, {"time": 617, "pitch": 60, "duration": 13, "velocity": 84}, {"time": 617, "pitch": 67, "duration": 13, "velocity": 85}, {"time": 626, "pitch": 48, "duration": 12, "velocity": 53}, {"time": 629, "pitch": 55, "duration": 8, "velocity": 80}, {"time": 632, "pitch": 60, "duration": 3, "velocity": 92}, {"time": 635, "pitch": 62, "duration": 4, "velocity": 94}, {"time": 644, "pitch": 40, "duration": 43, "velocity": 88}, {"time": 644, "pitch": 64, "duration": 7, "velocity": 89}, {"time": 650, "pitch": 47, "duration": 21, "velocity": 55}, {"time": 659, "pitch": 59, "duration": 2, "velocity": 88}, {"time": 659, "pitch": 67, "duration": 2, "velocity": 82}, {"time": 665, "pitch": 59, "duration": 1, "velocity": 84}, {"time": 668, "pitch": 59, "duration": 3, "velocity": 89}, {"time": 668, "pitch": 64, "duration": 6, "velocity": 87}, {"time": 674, "pitch": 47, "duration": 4, "velocity": 66}, {"time": 677, "pitch": 59, "duration": 4, "velocity": 88}, {"time": 677, "pitch": 62, "duration": 7, "velocity": 88}, {"time": 680, "pitch": 47, "duration": 1, "velocity": 68}, {"time": 683, "pitch": 47, "duration": 4, "velocity": 79}, {"time": 686, "pitch": 59, "duration": 2, "velocity": 93}, {"time": 689, "pitch": 62, "duration": 2, "velocity": 88}, {"time": 692, "pitch": 45, "duration": 23, "velocity": 88}, {"time": 692, "pitch": 57, "duration": 7, "velocity": 84}, {"time": 692, "pitch": 60, "duration": 7, "velocity": 89}, {"time": 698, "pitch": 52, "duration": 7, "velocity": 74}, {"time": 704, "pitch": 57, "duration": 3, "velocity": 85}, {"time": 704, "pitch": 60, "duration": 5, "velocity": 91}, {"time": 707, "pitch": 52, "duration": 8, "velocity": 73}, {"time": 713, "pitch": 60, "duration": 9, "velocity": 94}, {"time": 716, "pitch": 45, "duration": 21, "velocity": 89}, {"time": 719, "pitch": 52, "duration": 8, "velocity": 83}, {"time": 722, "pitch": 55, "duration": 2, "velocity": 90}, {"time": 725, "pitch": 55, "duration": 6, "velocity": 94}, {"time": 725, "pitch": 60, "duration": 9, "velocity": 91}, {"time": 734, "pitch": 52, "duration": 2, "velocity": 76}, {"time": 737, "pitch": 57, "duration": 8, "velocity": 87}, {"time": 740, "pitch": 38, "duration": 22, "velocity": 89}, {"time": 740, "pitch": 62, "duration": 5, "velocity": 87}, {"time": 746, "pitch": 45, "duration": 10, "velocity": 68}, {"time": 749, "pitch": 57, "duration": 2, "velocity": 76}, {"time": 755, "pitch": 57, "duration": 2, "velocity": 88}, {"time": 755, "pitch": 65, "duration": 10, "velocity": 92}, {"time": 758, "pitch": 45, "duration": 4, "velocity": 72}, {"time": 761, "pitch": 57, "duration": 5, "velocity": 82}, {"time": 764, "pitch": 38, "duration": 15, "velocity": 88}, {"time": 767, "pitch": 45, "duration": 7, "velocity": 76}, {"time": 770, "pitch": 57, "duration": 1, "velocity": 75}, {"time": 773, "pitch": 57, "duration": 5, "velocity": 93}, {"time": 773, "pitch": 62, "duration": 4, "velocity": 93}, {"time": 776, "pitch": 45, "duration": 3, "velocity": 72}, {"time": 779, "pitch": 57, "duration": 2, "velocity": 89}, {"time": 779, "pitch": 65, "duration": 4, "velocity": 90}, {"time": 788, "pitch": 40, "duration": 21, "velocity": 90}, {"time": 788, "pitch": 59, "duration": 6, "velocity": 80}, {"time": 788, "pitch": 64, "duration": 6, "velocity": 78}, {"time": 794, "pitch": 47, "duration": 16, "velocity": 67}, {"time": 797, "pitch": 59, "duration": 1, "velocity": 74}, {"time": 800, "pitch": 59, "duration": 4, "velocity": 92}, {"time": 800, "pitch": 67, "duration": 5, "velocity": 88}, {"time": 806, "pitch": 59, "duration": 1, "velocity": 49}, {"time": 809, "pitch": 59, "duration": 7, "velocity": 91}, {"time": 809, "pitch": 64, "duration": 9, "velocity": 91}, {"time": 812, "pitch": 40, "duration": 17, "velocity": 89}, {"time": 815, "pitch": 47, "duration": 14, "velocity": 80}, {"time": 818, "pitch": 59, "duration": 1, "velocity": 83}, {"time": 821, "pitch": 59, "duration": 8, "velocity": 90}, {"time": 821, "pitch": 64, "duration": 8, "velocity": 92}, {"time": 830, "pitch": 62, "duration": 2, "velocity": 95}, {"time": 836, "pitch": 45, "duration": 41, "velocity": 88}, {"time": 836, "pitch": 57, "duration": 6, "velocity": 82}, {"time": 836, "pitch": 60, "duration": 6, "velocity": 84}, {"time": 842, "pitch": 52, "duration": 7, "velocity": 69}, {"time": 845, "pitch": 57, "duration": 2, "velocity": 69}, {"time": 848, "pitch": 57, "duration": 3, "velocity": 91}, {"time": 848, "pitch": 60, "duration": 5, "velocity": 91}, {"time": 851, "pitch": 52, "duration": 1, "velocity": 72}, {"time": 854, "pitch": 52, "duration": 5, "velocity": 73}, {"time": 857, "pitch": 55, "duration": 2, "velocity": 88}, {"time": 857, "pitch": 59, "duration": 2, "velocity": 90}, {"time": 860, "pitch": 52, "duration": 4, "velocity": 75}, {"time": 863, "pitch": 57, "duration": 3, "velocity": 87}, {"time": 863, "pitch": 60, "duration": 4, "velocity": 89}, {"time": 866, "pitch": 52, "duration": 8, "velocity": 82}, {"time": 869, "pitch": 57, "duration": 2, "velocity": 77}, {"time": 872, "pitch": 57, "duration": 5, "velocity": 90}, {"time": 872, "pitch": 60, "duration": 5, "velocity": 88}, {"time": 872, "pitch": 64, "duration": 5, "velocity": 99}, {"time": 875, "pitch": 52, "duration": 1, "velocity": 58}, {"time": 878, "pitch": 45, "duration": 2, "velocity": 88}, {"time": 884, "pitch": 38, "duration": 35, "velocity": 90}, {"time": 884, "pitch": 57, "duration": 6, "velocity": 84}, {"time": 884, "pitch": 65, "duration": 10, "velocity": 88}, {"time": 890, "pitch": 45, "duration": 22, "velocity": 61}, {"time": 893, "pitch": 57, "duration": 1, "velocity": 76}, {"time": 896, "pitch": 57, "duration": 3, "velocity": 89}, {"time": 896, "pitch": 65, "duration": 5, "velocity": 90}, {"time": 905, "pitch": 64, "duration": 6, "velocity": 97}, {"time": 911, "pitch": 65, "duration": 7, "velocity": 92}, {"time": 914, "pitch": 45, "duration": 5, "velocity": 83}, {"time": 917, "pitch": 57, "duration": 2, "velocity": 79}, {"time": 920, "pitch": 38, "duration": 6, "velocity": 93}, {"time": 920, "pitch": 57, "duration": 5, "velocity": 89}, {"time": 920, "pitch": 60, "duration": 6, "velocity": 92}, {"time": 926, "pitch": 57, "duration": 4, "velocity": 80}, {"time": 932, "pitch": 43, "duration": 23, "velocity": 88}, {"time": 932, "pitch": 62, "duration": 9, "velocity": 87}, {"time": 938, "pitch": 50, "duration": 10, "velocity": 69}, {"time": 941, "pitch": 55, "duration": 4, "velocity": 74}, {"time": 944, "pitch": 62, "duration": 4, "velocity": 84}, {"time": 947, "pitch": 67, "duration": 8, "velocity": 90}, {"time": 950, "pitch": 50, "duration": 4, "velocity": 81}, {"time": 953, "pitch": 55, "duration": 2, "velocity": 75}, {"time": 956, "pitch": 43, "duration": 24, "velocity": 88}, {"time": 956, "pitch": 55, "duration": 6, "velocity": 88}, {"time": 956, "pitch": 62, "duration": 7, "velocity": 84}, {"time": 962, "pitch": 50, "duration": 8, "velocity": 71}, {"time": 965, "pitch": 55, "duration": 1, "velocity": 81}, {"time": 968, "pitch": 55, "duration": 10, "velocity": 94}, {"time": 968, "pitch": 62, "duration": 11, "velocity": 90}, {"time": 974, "pitch": 50, "duration": 6, "velocity": 87}, {"time": 980, "pitch": 48, "duration": 22, "velocity": 87}, {"time": 980, "pitch": 60, "duration": 10, "velocity": 88}, {"time": 980, "pitch": 64, "duration": 10, "velocity": 89}, {"time": 986, "pitch": 55, "duration": 8, "velocity": 77}, {"time": 992, "pitch": 60, "duration": 6, "velocity": 90}, {"time": 992, "pitch": 64, "duration": 5, "velocity": 91}, {"time": 992, "pitch": 67, "duration": 6, "velocity": 90}, {"time": 998, "pitch": 55, "duration": 5, "velocity": 72}, {"time": 1001, "pitch": 60, "duration": 5, "velocity": 95}, {"time": 1001, "pitch": 67, "duration": 6, "velocity": 88}, {"time": 1004, "pitch": 48, "duration": 19, "velocity": 75}, {"time": 1010, "pitch": 60, "duration": 7, "velocity": 102}, {"time": 1013, "pitch": 64, "duration": 4, "velocity": 104}, {"time": 1016, "pitch": 55, "duration": 4, "velocity": 81}, {"time": 1019, "pitch": 60, "duration": 3, "velocity": 90}, {"time": 1019, "pitch": 64, "duration": 3, "velocity": 97}, {"time": 1019, "pitch": 67, "duration": 4, "velocity": 90}, {"time": 1022, "pitch": 55, "duration": 1, "velocity": 84}, {"time": 1028, "pitch": 40, "duration": 22, "velocity": 88}, {"time": 1028, "pitch": 67, "duration": 7, "velocity": 84}, {"time": 1034, "pitch": 47, "duration": 16, "velocity": 75}, {"time": 1037, "pitch": 59, "duration": 1, "velocity": 77}, {"time": 1040, "pitch": 59, "duration": 1, "velocity": 88}, {"time": 1040, "pitch": 67, "duration": 2, "velocity": 89}, {"time": 1043, "pitch": 59, "duration": 2, "velocity": 95}, {"time": 1043, "pitch": 67, "duration": 2, "velocity": 90}, {"time": 1049, "pitch": 59, "duration": 7, "velocity": 90}, {"time": 1049, "pitch": 64, "duration": 7, "velocity": 90}, {"time": 1052, "pitch": 40, "duration": 20, "velocity": 90}, {"time": 1055, "pitch": 47, "duration": 7, "velocity": 80}, {"time": 1058, "pitch": 59, "duration": 1, "velocity": 90}, {"time": 1061, "pitch": 59, "duration": 7, "velocity": 95}, {"time": 1061, "pitch": 64, "duration": 7, "velocity": 94}, {"time": 1070, "pitch": 59, "duration": 2, "velocity": 91}, {"time": 1070, "pitch": 64, "duration": 5, "velocity": 94}, {"time": 1076, "pitch": 41, "duration": 22, "velocity": 89}, {"time": 1076, "pitch": 60, "duration": 3, "velocity": 85}, {"time": 1076, "pitch": 64, "duration": 6, "velocity": 89}, {"time": 1082, "pitch": 48, "duration": 7, "velocity": 72}, {"time": 1085, "pitch": 57, "duration": 1, "velocity": 76}, {"time": 1088, "pitch": 57, "duration": 2, "velocity": 92}, {"time": 1088, "pitch": 60, "duration": 1, "velocity": 94}, {"time": 1091, "pitch": 57, "duration": 4, "velocity": 91}, {"time": 1091, "pitch": 60, "duration": 3, "velocity": 99}, {"time": 1100, "pitch": 41, "duration": 18, "velocity": 89}, {"time": 1103, "pitch": 48, "duration": 7, "velocity": 74}, {"time": 1106, "pitch": 57, "duration": 1, "velocity": 71}, {"time": 1109, "pitch": 57, "duration": 4, "velocity": 88}, {"time": 1109, "pitch": 60, "duration": 4, "velocity": 90}, {"time": 1109, "pitch": 65, "duration": 4, "velocity": 89}, {"time": 1112, "pitch": 48, "duration": 5, "velocity": 72}, {"time": 1115, "pitch": 57, "duration": 3, "velocity": 89}, {"time": 1115, "pitch": 60, "duration": 3, "velocity": 90}, {"time": 1124, "pitch": 43, "duration": 22, "velocity": 88}, {"time": 1124, "pitch": 55, "duration": 6, "velocity": 83}, {"time": 1124, "pitch": 59, "duration": 8, "velocity": 82}, {"time": 1124, "pitch": 62, "duration": 7, "velocity": 83}, {"time": 1130, "pitch": 50, "duration": 10, "velocity": 69}, {"time": 1133, "pitch": 55, "duration": 4, "velocity": 80}, {"time": 1139, "pitch": 55, "duration": 1, "velocity": 61}, {"time": 1139, "pitch": 67, "duration": 3, "velocity": 90}, {"time": 1142, "pitch": 50, "duration": 4, "velocity": 82}, {"time": 1145, "pitch": 55, "duration": 2, "velocity": 82}, {"time": 1148, "pitch": 43, "duration": 17, "velocity": 88}, {"time": 1148, "pitch": 55, "duration": 5, "velocity": 81}, {"time": 1148, "pitch": 59, "duration": 6, "velocity": 89}, {"time": 1148, "pitch": 62, "duration": 6, "velocity": 88}, {"time": 1154, "pitch": 50, "duration": 4, "velocity": 66}, {"time": 1157, "pitch": 55, "duration": 3, "velocity": 92}, {"time": 1157, "pitch": 67, "duration": 2, "velocity": 89}, {"time": 1160, "pitch": 50, "duration": 4, "velocity": 78}, {"time": 1163, "pitch": 55, "duration": 1, "velocity": 83}, {"time": 1163, "pitch": 59, "duration": 3, "velocity": 91}, {"time": 1163, "pitch": 62, "duration": 8, "velocity": 89}, {"time": 1169, "pitch": 55, "duration": 1, "velocity": 86}, {"time": 1172, "pitch": 48, "duration": 14, "velocity": 88}, {"time": 1172, "pitch": 55, "duration": 4, "velocity": 89}, {"time": 1172, "pitch": 60, "duration": 8, "velocity": 85}, {"time": 1178, "pitch": 55, "duration": 1, "velocity": 65}, {"time": 1184, "pitch": 55, "duration": 2, "velocity": 92}, {"time": 1184, "pitch": 64, "duration": 4, "velocity": 93}, {"time": 1187, "pitch": 55, "duration": 3, "velocity": 82}, {"time": 1193, "pitch": 55, "duration": 4, "velocity": 84}, {"time": 1193, "pitch": 60, "duration": 4, "velocity": 89}, {"time": 1193, "pitch": 64, "duration": 7, "velocity": 89}, {"time": 1196, "pitch": 48, "duration": 19, "velocity": 89}, {"time": 1199, "pitch": 55, "duration": 3, "velocity": 84}, {"time": 1205, "pitch": 55, "duration": 3, "velocity": 91}, {"time": 1205, "pitch": 64, "duration": 4, "velocity": 104}, {"time": 1211, "pitch": 55, "duration": 4, "velocity": 89}, {"time": 1211, "pitch": 62, "duration": 3, "velocity": 89}, {"time": 1214, "pitch": 60, "duration": 3, "velocity": 83}, {"time": 1217, "pitch": 62, "duration": 4, "velocity": 79}, {"time": 1220, "pitch": 40, "duration": 22, "velocity": 92}, {"time": 1220, "pitch": 64, "duration": 7, "velocity": 90}, {"time": 1226, "pitch": 47, "duration": 16, "velocity": 73}, {"time": 1232, "pitch": 59, "duration": 2, "velocity": 89}, {"time": 1232, "pitch": 67, "duration": 3, "velocity": 88}, {"time": 1235, "pitch": 59, "duration": 2, "velocity": 80}, {"time": 1241, "pitch": 59, "duration": 7, "velocity": 90}, {"time": 1241, "pitch": 64, "duration": 9, "velocity": 90}, {"time": 1244, "pitch": 40, "duration": 20, "velocity": 89}, {"time": 1247, "pitch": 47, "duration": 8, "velocity": 77}, {"time": 1250, "pitch": 59, "duration": 8, "velocity": 88}, {"time": 1253, "pitch": 64, "duration": 4, "velocity": 95}, {"time": 1256, "pitch": 47, "duration": 2, "velocity": 46}, {"time": 1259, "pitch": 59, "duration": 3, "velocity": 93}, {"time": 1259, "pitch": 64, "duration": 3, "velocity": 97}, {"time": 1259, "pitch": 67, "duration": 6, "velocity": 89}, {"time": 1262, "pitch": 47, "duration": 5, "velocity": 80}, {"time": 1265, "pitch": 59, "duration": 1, "velocity": 86}, {"time": 1265, "pitch": 64, "duration": 1, "velocity": 58}, {"time": 1268, "pitch": 41, "duration": 22, "velocity": 88}, {"time": 1268, "pitch": 60, "duration": 7, "velocity": 84}, {"time": 1268, "pitch": 65, "duration": 7, "velocity": 89}, {"time": 1274, "pitch": 48, "duration": 17, "velocity": 75}, {"time": 1280, "pitch": 60, "duration": 3, "velocity": 89}, {"time": 1280, "pitch": 69, "duration": 3, "velocity": 90}, {"time": 1283, "pitch": 65, "duration": 2, "velocity": 82}, {"time": 1289, "pitch": 60, "duration": 6, "velocity": 89}, {"time": 1289, "pitch": 65, "duration": 8, "velocity": 86}, {"time": 1292, "pitch": 41, "duration": 21, "velocity": 84}, {"time": 1295, "pitch": 48, "duration": 7, "velocity": 75}, {"time": 1298, "pitch": 60, "duration": 1, "velocity": 76}, {"time": 1301, "pitch": 60, "duration": 9, "velocity": 95}, {"time": 1301, "pitch": 65, "duration": 11, "velocity": 94}, {"time": 1310, "pitch": 48, "duration": 4, "velocity": 89}, {"time": 1313, "pitch": 60, "duration": 1, "velocity": 83}, {"time": 1316, "pitch": 43, "duration": 22, "velocity": 88}, {"time": 1316, "pitch": 67, "duration": 12, "velocity": 85}, {"time": 1322, "pitch": 50, "duration": 16, "velocity": 76}, {"time": 1325, "pitch": 55, "duration": 7, "velocity": 86}, {"time": 1328, "pitch": 62, "duration": 4, "velocity": 88}, {"time": 1331, "pitch": 67, "duration": 4, "velocity": 90}, {"time": 1337, "pitch": 55, "duration": 7, "velocity": 89}, {"time": 1337, "pitch": 62, "duration": 7, "velocity": 89}, {"time": 1337, "pitch": 67, "duration": 7, "velocity": 89}, {"time": 1340, "pitch": 43, "duration": 18, "velocity": 88}, {"time": 1343, "pitch": 50, "duration": 7, "velocity": 78}, {"time": 1346, "pitch": 55, "duration": 1, "velocity": 81}, {"time": 1349, "pitch": 55, "duration": 4, "velocity": 97}, {"time": 1349, "pitch": 62, "duration": 4, "velocity": 93}, {"time": 1352, "pitch": 50, "duration": 5, "velocity": 85}, {"time": 1355, "pitch": 55, "duration": 4, "velocity": 92}, {"time": 1355, "pitch": 62, "duration": 5, "velocity": 92}, {"time": 1364, "pitch": 48, "duration": 38, "velocity": 88}, {"time": 1364, "pitch": 60, "duration": 8, "velocity": 78}, {"time": 1364, "pitch": 64, "duration": 8, "velocity": 86}, {"time": 1370, "pitch": 55, "duration": 7, "velocity": 78}, {"time": 1376, "pitch": 60, "duration": 2, "velocity": 90}, {"time": 1376, "pitch": 64, "duration": 2, "velocity": 99}, {"time": 1379, "pitch": 55, "duration": 7, "velocity": 74}, {"time": 1382, "pitch": 60, "duration": 1, "velocity": 68}, {"time": 1385, "pitch": 60, "duration": 4, "velocity": 89}, {"time": 1385, "pitch": 67, "duration": 3, "velocity": 86}, {"time": 1388, "pitch": 55, "duration": 4, "velocity": 76}, {"time": 1391, "pitch": 60, "duration": 6, "velocity": 84}, {"time": 1391, "pitch": 64, "duration": 7, "velocity": 90}, {"time": 1397, "pitch": 55, "duration": 5, "velocity": 62}, {"time": 1400, "pitch": 60, "duration": 3, "velocity": 94}, {"time": 1400, "pitch": 64, "duration": 6, "velocity": 99}, {"time": 1406, "pitch": 59, "duration": 1, "velocity": 88}, {"time": 1412, "pitch": 47, "duration": 15, "velocity": 88}, {"time": 1412, "pitch": 59, "duration": 3, "velocity": 88}, {"time": 1412, "pitch": 64, "duration": 7, "velocity": 90}, {"time": 1418, "pitch": 59, "duration": 3, "velocity": 79}, {"time": 1424, "pitch": 64, "duration": 2, "velocity": 89}, {"time": 1424, "pitch": 67, "duration": 2, "velocity": 89}, {"time": 1427, "pitch": 59, "duration": 1, "velocity": 70}, {"time": 1430, "pitch": 64, "duration": 1, "velocity": 78}, {"time": 1433, "pitch": 59, "duration": 5, "velocity": 93}, {"time": 1433, "pitch": 64, "duration": 5, "velocity": 94}, {"time": 1433, "pitch": 67, "duration": 5, "velocity": 89}, {"time": 1439, "pitch": 59, "duration": 2, "velocity": 84}, {"time": 1439, "pitch": 64, "duration": 5, "velocity": 89}, {"time": 1439, "pitch": 69, "duration": 6, "velocity": 87}, {"time": 1445, "pitch": 59, "duration": 2, "velocity": 88}, {"time": 1448, "pitch": 47, "duration": 6, "velocity": 86}, {"time": 1448, "pitch": 59, "duration": 3, "velocity": 84}, {"time": 1448, "pitch": 64, "duration": 6, "velocity": 89}, {"time": 1448, "pitch": 67, "duration": 5, "velocity": 88}, {"time": 1454, "pitch": 59, "duration": 4, "velocity": 89}, {"time": 1457, "pitch": 64, "duration": 1, "velocity": 83}, {"time": 1460, "pitch": 45, "duration": 40, "velocity": 89}, {"time": 1460, "pitch": 57, "duration": 7, "velocity": 82}, {"time": 1460, "pitch": 60, "duration": 9, "velocity": 90}, {"time": 1466, "pitch": 52, "duration": 10, "velocity": 77}, {"time": 1469, "pitch": 55, "duration": 1, "velocity": 82}, {"time": 1472, "pitch": 55, "duration": 2, "velocity": 90}, {"time": 1472, "pitch": 60, "duration": 2, "velocity": 90}, {"time": 1475, "pitch": 55, "duration": 3, "velocity": 92}, {"time": 1475, "pitch": 60, "duration": 3, "velocity": 99}, {"time": 1478, "pitch": 52, "duration": 10, "velocity": 83}, {"time": 1481, "pitch": 57, "duration": 4, "velocity": 88}, {"time": 1481, "pitch": 60, "duration": 4, "velocity": 90}, {"time": 1481, "pitch": 64, "duration": 4, "velocity": 97}, {"time": 1487, "pitch": 57, "duration": 5, "velocity": 84}, {"time": 1487, "pitch": 60, "duration": 6, "velocity": 86}, {"time": 1493, "pitch": 52, "duration": 4, "velocity": 76}, {"time": 1496, "pitch": 57, "duration": 3, "velocity": 93}, {"time": 1496, "pitch": 60, "duration": 4, "velocity": 104}, {"time": 1499, "pitch": 52, "duration": 2, "velocity": 75}, {"time": 1502, "pitch": 45, "duration": 4, "velocity": 89}, {"time": 1505, "pitch": 57, "duration": 5, "velocity": 90}, {"time": 1505, "pitch": 60, "duration": 1, "velocity": 74}, {"time": 1508, "pitch": 43, "duration": 22, "velocity": 90}, {"time": 1511, "pitch": 50, "duration": 7, "velocity": 73}, {"time": 1514, "pitch": 55, "duration": 2, "velocity": 88}, {"time": 1517, "pitch": 55, "duration": 5, "velocity": 90}, {"time": 1517, "pitch": 62, "duration": 5, "velocity": 94}, {"time": 1520, "pitch": 50, "duration": 5, "velocity": 66}, {"time": 1523, "pitch": 55, "duration": 3, "velocity": 92}, {"time": 1523, "pitch": 62, "duration": 2, "velocity": 90}, {"time": 1523, "pitch": 67, "duration": 3, "velocity": 88}, {"time": 1529, "pitch": 55, "duration": 1, "velocity": 74}, {"time": 1532, "pitch": 43, "duration": 25, "velocity": 89}, {"time": 1532, "pitch": 55, "duration": 3, "velocity": 86}, {"time": 1532, "pitch": 62, "duration": 4, "velocity": 86}, {"time": 1535, "pitch": 50, "duration": 7, "velocity": 77}, {"time": 1538, "pitch": 55, "duration": 1, "velocity": 80}, {"time": 1541, "pitch": 55, "duration": 4, "velocity": 89}, {"time": 1541, "pitch": 59, "duration": 4, "velocity": 89}, {"time": 1541, "pitch": 62, "duration": 4, "velocity": 89}, {"time": 1544, "pitch": 50, "duration": 5, "velocity": 80}, {"time": 1547, "pitch": 55, "duration": 5, "velocity": 89}, {"time": 1550, "pitch": 50, "duration": 7, "velocity": 86}, {"time": 1556, "pitch": 48, "duration": 22, "velocity": 90}, {"time": 1556, "pitch": 60, "duration": 6, "velocity": 81}, {"time": 1556, "pitch": 67, "duration": 5, "velocity": 82}, {"time": 1562, "pitch": 55, "duration": 7, "velocity": 67}, {"time": 1568, "pitch": 60, "duration": 2, "velocity": 84}, {"time": 1568, "pitch": 67, "duration": 3, "velocity": 88}, {"time": 1571, "pitch": 55, "duration": 6, "velocity": 73}, {"time": 1574, "pitch": 60, "duration": 1, "velocity": 78}, {"time": 1577, "pitch": 60, "duration": 13, "velocity": 84}, {"time": 1577, "pitch": 67, "duration": 13, "velocity": 85}, {"time": 1586, "pitch": 48, "duration": 12, "velocity": 53}, {"time": 1589, "pitch": 55, "duration": 8, "velocity": 80}, {"time": 1592, "pitch": 60, "duration": 3, "velocity": 92}, {"time": 1595, "pitch": 62, "duration": 4, "velocity": 94}, {"time": 1604, "pitch": 40, "duration": 43, "velocity": 88}, {"time": 1604, "pitch": 64, "duration": 7, "velocity": 89}, {"time": 1610, "pitch": 47, "duration": 21, "velocity": 55}, {"time": 1619, "pitch": 59, "duration": 2, "velocity": 88}, {"time": 1619, "pitch": 67, "duration": 2, "velocity": 82}, {"time": 1625, "pitch": 59, "duration": 1, "velocity": 84}, {"time": 1628, "pitch": 59, "duration": 3, "velocity": 89}, {"time": 1628, "pitch": 64, "duration": 6, "velocity": 87}, {"time": 1634, "pitch": 47, "duration": 4, "velocity": 66}, {"time": 1637, "pitch": 59, "duration": 4, "velocity": 88}, {"time": 1637, "pitch": 62, "duration": 7, "velocity": 88}, {"time": 1640, "pitch": 47, "duration": 1, "velocity": 68}, {"time": 1643, "pitch": 47, "duration": 4, "velocity": 79}, {"time": 1646, "pitch": 59, "duration": 2, "velocity": 93}, {"time": 1649, "pitch": 62, "duration": 2, "velocity": 88}, {"time": 1652, "pitch": 45, "duration": 23, "velocity": 88}, {"time": 1652, "pitch": 57, "duration": 7, "velocity": 84}, {"time": 1652, "pitch": 60, "duration": 7, "velocity": 89}, {"time": 1658, "pitch": 52, "duration": 7, "velocity": 74}, {"time": 1664, "pitch": 57, "duration": 3, "velocity": 85}, {"time": 1664, "pitch": 60, "duration": 5, "velocity": 91}, {"time": 1667, "pitch": 52, "duration": 8, "velocity": 73}, {"time": 1673, "pitch": 60, "duration": 9, "velocity": 94}, {"time": 1676, "pitch": 45, "duration": 21, "velocity": 89}, {"time": 1679, "pitch": 52, "duration": 8, "velocity": 83}, {"time": 1682, "pitch": 55, "duration": 2, "velocity": 90}, {"time": 1685, "pitch": 55, "duration": 6, "velocity": 94}, {"time": 1685, "pitch": 60, "duration": 9, "velocity": 91}, {"time": 1694, "pitch": 52, "duration": 2, "velocity": 76}, {"time": 1697, "pitch": 57, "duration": 8, "velocity": 87}, {"time": 1700, "pitch": 38, "duration": 22, "velocity": 89}, {"time": 1700, "pitch": 62, "duration": 5, "velocity": 87}, {"time": 1706, "pitch": 45, "duration": 10, "velocity": 68}, {"time": 1709, "pitch": 57, "duration": 2, "velocity": 76}, {"time": 1715, "pitch": 57, "duration": 2, "velocity": 88}, {"time": 1715, "pitch": 65, "duration": 10, "velocity": 92}, {"time": 1718, "pitch": 45, "duration": 4, "velocity": 72}, {"time": 1721, "pitch": 57, "duration": 5, "velocity": 82}, {"time": 1724, "pitch": 38, "duration": 15, "velocity": 88}, {"time": 1727, "pitch": 45, "duration": 7, "velocity": 76}, {"time": 1730, "pitch": 57, "duration": 1, "velocity": 75}, {"time": 1733, "pitch": 57, "duration": 5, "velocity": 93}, {"time": 1733, "pitch": 62, "duration": 4, "velocity": 93}, {"time": 1736, "pitch": 45, "duration": 3, "velocity": 72}, {"time": 1739, "pitch": 57, "duration": 2, "velocity": 89}, {"time": 1739, "pitch": 65, "duration": 4, "velocity": 90}, {"time": 1748, "pitch": 40, "duration": 21, "velocity": 90}, {"time": 1748, "pitch": 59, "duration": 6, "velocity": 80}, {"time": 1748, "pitch": 64, "duration": 6, "velocity": 78}, {"time": 1754, "pitch": 47, "duration": 16, "velocity": 67}, {"time": 1757, "pitch": 59, "duration": 1, "velocity": 74}, {"time": 1760, "pitch": 59, "duration": 4, "velocity": 92}, {"time": 1760, "pitch": 67, "duration": 5, "velocity": 88}, {"time": 1766, "pitch": 59, "duration": 1, "velocity": 49}, {"time": 1769, "pitch": 59, "duration": 7, "velocity": 91}, {"time": 1769, "pitch": 64, "duration": 9, "velocity": 91}, {"time": 1772, "pitch": 40, "duration": 17, "velocity": 89}, {"time": 1775, "pitch": 47, "duration": 14, "velocity": 80}, {"time": 1778, "pitch": 59, "duration": 1, "velocity": 83}, {"time": 1781, "pitch": 59, "duration": 8, "velocity": 90}, {"time": 1781, "pitch": 64, "duration": 8, "velocity": 92}, {"time": 1790, "pitch": 62, "duration": 2, "velocity": 95}, {"time": 1796, "pitch": 45, "duration": 41, "velocity": 88}, {"time": 1796, "pitch": 57, "duration": 6, "velocity": 82}, {"time": 1796, "pitch": 60, "duration": 6, "velocity": 84}, {"time": 1802, "pitch": 52, "duration": 7, "velocity": 69}, {"time": 1805, "pitch": 57, "duration": 2, "velocity": 69}, {"time": 1808, "pitch": 57, "duration": 3, "velocity": 91}, {"time": 1808, "pitch": 60, "duration": 5, "velocity": 91}, {"time": 1811, "pitch": 52, "duration": 1, "velocity": 72}, {"time": 1814, "pitch": 52, "duration": 5, "velocity": 73}, {"time": 1817, "pitch": 55, "duration": 2, "velocity": 88}, {"time": 1817, "pitch": 59, "duration": 2, "velocity": 90}, {"time": 1820, "pitch": 52, "duration": 4, "velocity": 75}, {"time": 1823, "pitch": 57, "duration": 3, "velocity": 87}, {"time": 1823, "pitch": 60, "duration": 4, "velocity": 89}, {"time": 1826, "pitch": 52, "duration": 8, "velocity": 82}, {"time": 1829, "pitch": 57, "duration": 2, "velocity": 77}, {"time": 1832, "pitch": 57, "duration": 5, "velocity": 90}, {"time": 1832, "pitch": 60, "duration": 5, "velocity": 88}, {"time": 1832, "pitch": 64, "duration": 5, "velocity": 99}, {"time": 1835, "pitch": 52, "duration": 1, "velocity": 58}, {"time": 1838, "pitch": 45, "duration": 2, "velocity": 88}, {"time": 1844, "pitch": 38, "duration": 35, "velocity": 90}, {"time": 1844, "pitch": 57, "duration": 6, "velocity": 84}, {"time": 1844, "pitch": 65, "duration": 10, "velocity": 88}, {"time": 1850, "pitch": 45, "duration": 22, "velocity": 61}, {"time": 1853, "pitch": 57, "duration": 1, "velocity": 76}, {"time": 1856, "pitch": 57, "duration": 3, "velocity": 89}, {"time": 1856, "pitch": 65, "duration": 5, "velocity": 90}, {"time": 1865, "pitch": 64, "duration": 6, "velocity": 97}, {"time": 1871, "pitch": 65, "duration": 7, "velocity": 92}, {"time": 1874, "pitch": 45, "duration": 5, "velocity": 83}, {"time": 1877, "pitch": 57, "duration": 2, "velocity": 79}, {"time": 1880, "pitch": 38, "duration": 6, "velocity": 93}, {"time": 1880, "pitch": 57, "duration": 5, "velocity": 89}, {"time": 1880, "pitch": 60, "duration": 6, "velocity": 92}, {"time": 1886, "pitch": 57, "duration": 4, "velocity": 80}, {"time": 1892, "pitch": 43, "duration": 23, "velocity": 88}, {"time": 1892, "pitch": 62, "duration": 9, "velocity": 87}, {"time": 1898, "pitch": 50, "duration": 10, "velocity": 69}, {"time": 1901, "pitch": 55, "duration": 4, "velocity": 74}, {"time": 1904, "pitch": 62, "duration": 4, "velocity": 84}, {"time": 1907, "pitch": 67, "duration": 8, "velocity": 90}, {"time": 1910, "pitch": 50, "duration": 4, "velocity": 81}, {"time": 1913, "pitch": 55, "duration": 2, "velocity": 75}, {"time": 1916, "pitch": 43, "duration": 24, "velocity": 88}, {"time": 1916, "pitch": 55, "duration": 6, "velocity": 88}, {"time": 1916, "pitch": 62, "duration": 7, "velocity": 84}, {"time": 1922, "pitch": 50, "duration": 8, "velocity": 71}, {"time": 1925, "pitch": 55, "duration": 1, "velocity": 81}, {"time": 1928, "pitch": 55, "duration": 10, "velocity": 94}, {"time": 1928, "pitch": 62, "duration": 11, "velocity": 90}, {"time": 1934, "pitch": 50, "duration": 6, "velocity": 87}, {"time": 1940, "pitch": 48, "duration": 22, "velocity": 87}, {"time": 1940, "pitch": 60, "duration": 10, "velocity": 88}, {"time": 1940, "pitch": 64, "duration": 10, "velocity": 89}, {"time": 1946, "pitch": 55, "duration": 8, "velocity": 77}, {"time": 1952, "pitch": 60, "duration": 6, "velocity": 90}, {"time": 1952, "pitch": 64, "duration": 5, "velocity": 91}, {"time": 1952, "pitch": 67, "duration": 6, "velocity": 90}, {"time": 1958, "pitch": 55, "duration": 5, "velocity": 72}, {"time": 1961, "pitch": 60, "duration": 5, "velocity": 95}, {"time": 1961, "pitch": 67, "duration": 6, "velocity": 88}, {"time": 1964, "pitch": 48, "duration": 19, "velocity": 75}, {"time": 1970, "pitch": 60, "duration": 7, "velocity": 102}, {"time": 1973, "pitch": 64, "duration": 4, "velocity": 104}, {"time": 1976, "pitch": 55, "duration": 4, "velocity": 81}, {"time": 1979, "pitch": 60, "duration": 3, "velocity": 90}, {"time": 1979, "pitch": 64, "duration": 3, "velocity": 97}, {"time": 1979, "pitch": 67, "duration": 4, "velocity": 90}, {"time": 1982, "pitch": 55, "duration": 1, "velocity": 84}, {"time": 1988, "pitch": 40, "duration": 22, "velocity": 88}, {"time": 1988, "pitch": 67, "duration": 7, "velocity": 84}, {"time": 1994, "pitch": 47, "duration": 16, "velocity": 75}, {"time": 1997, "pitch": 59, "duration": 1, "velocity": 77}, {"time": 2000, "pitch": 59, "duration": 1, "velocity": 88}, {"time": 2000, "pitch": 67, "duration": 2, "velocity": 89}, {"time": 2003, "pitch": 59, "duration": 2, "velocity": 95}, {"time": 2003, "pitch": 67, "duration": 2, "velocity": 90}, {"time": 2009, "pitch": 59, "duration": 7, "velocity": 90}, {"time": 2009, "pitch": 64, "duration": 7, "velocity": 90}, {"time": 2012, "pitch": 40, "duration": 20, "velocity": 90}, {"time": 2015, "pitch": 47, "duration": 7, "velocity": 80}, {"time": 2018, "pitch": 59, "duration": 1, "velocity": 90}, {"time": 2021, "pitch": 59, "duration": 7, "velocity": 95}, {"time": 2021, "pitch": 64, "duration": 7, "velocity": 94}, {"time": 2030, "pitch": 59, "duration": 2, "velocity": 91}, {"time": 2030, "pitch": 64, "duration": 5, "velocity": 94}, {"time": 2036, "pitch": 41, "duration": 22, "velocity": 89}, {"time": 2036, "pitch": 60, "duration": 3, "velocity": 85}, {"time": 2036, "pitch": 64, "duration": 6, "velocity": 89}, {"time": 2042, "pitch": 48, "duration": 7, "velocity": 72}, {"time": 2045, "pitch": 57, "duration": 1, "velocity": 76}, {"time": 2048, "pitch": 57, "duration": 2, "velocity": 92}, {"time": 2048, "pitch": 60, "duration": 1, "velocity": 94}, {"time": 2051, "pitch": 57, "duration": 4, "velocity": 91}, {"time": 2051, "pitch": 60, "duration": 3, "velocity": 99}, {"time": 2060, "pitch": 41, "duration": 18, "velocity": 89}, {"time": 2063, "pitch": 48, "duration": 7, "velocity": 74}, {"time": 2066, "pitch": 57, "duration": 1, "velocity": 71}, {"time": 2069, "pitch": 57, "duration": 4, "velocity": 88}, {"time": 2069, "pitch": 60, "duration": 4, "velocity": 90}, {"time": 2069, "pitch": 65, "duration": 4, "velocity": 89}, {"time": 2072, "pitch": 48, "duration": 5, "velocity": 72}, {"time": 2075, "pitch": 57, "duration": 3, "velocity": 89}, {"time": 2075, "pitch": 60, "duration": 3, "velocity": 90}, {"time": 2084, "pitch": 43, "duration": 22, "velocity": 88}, {"time": 2084, "pitch": 55, "duration": 6, "velocity": 83}, {"time": 2084, "pitch": 59, "duration": 8, "velocity": 82}, {"time": 2084, "pitch": 62, "duration": 7, "velocity": 83}, {"time": 2090, "pitch": 50, "duration": 10, "velocity": 69}, {"time": 2093, "pitch": 55, "duration": 4, "velocity": 80}, {"time": 2099, "pitch": 55, "duration": 1, "velocity": 61}, {"time": 2099, "pitch": 67, "duration": 3, "velocity": 90}, {"time": 2102, "pitch": 50, "duration": 4, "velocity": 82}, {"time": 2105, "pitch": 55, "duration": 2, "velocity": 82}, {"time": 2108, "pitch": 43, "duration": 17, "velocity": 88}, {"time": 2108, "pitch": 55, "duration": 5, "velocity": 81}, {"time": 2108, "pitch": 59, "duration": 6, "velocity": 89}, {"time": 2108, "pitch": 62, "duration": 6, "velocity": 88}, {"time": 2114, "pitch": 50, "duration": 4, "velocity": 66}, {"time": 2117, "pitch": 55, "duration": 3, "velocity": 92}, {"time": 2117, "pitch": 67, "duration": 2, "velocity": 89}, {"time": 2120, "pitch": 50, "duration": 4, "velocity": 78}, {"time": 2123, "pitch": 55, "duration": 1, "velocity": 83}, {"time": 2123, "pitch": 59, "duration": 3, "velocity": 91}, {"time": 2123, "pitch": 62, "duration": 8, "velocity": 89}, {"time": 2129, "pitch": 55, "duration": 1, "velocity": 86}, {"time": 2132, "pitch": 48, "duration": 14, "velocity": 88}, {"time": 2132, "pitch": 55, "duration": 4, "velocity": 89}, {"time": 2132, "pitch": 60, "duration": 8, "velocity": 85}, {"time": 2138, "pitch": 55, "duration": 1, "velocity": 65}, {"time": 2144, "pitch": 55, "duration": 2, "velocity": 92}, {"time": 2144, "pitch": 64, "duration": 4, "velocity": 93}, {"time": 2147, "pitch": 55, "duration": 3, "velocity": 82}, {"time": 2153, "pitch": 55, "duration": 4, "velocity": 84}, {"time": 2153, "pitch": 60, "duration": 4, "velocity": 89}, {"time": 2153, "pitch": 64, "duration": 7, "velocity": 89}, {"time": 2156, "pitch": 48, "duration": 19, "velocity": 89}, {"time": 2159, "pitch": 55, "duration": 3, "velocity": 84}, {"time": 2165, "pitch": 55, "duration": 3, "velocity": 91}, {"time": 2165, "pitch": 64, "duration": 4, "velocity": 104}, {"time": 2171, "pitch": 55, "duration": 4, "velocity": 89}, {"time": 2171, "pitch": 62, "duration": 3, "velocity": 89}, {"time": 2174, "pitch": 60, "duration": 3, "velocity": 83}, {"time": 2177, "pitch": 62, "duration": 4, "velocity": 79}, {"time": 2180, "pitch": 40, "duration": 22, "velocity": 92}, {"time": 2180, "pitch": 64, "duration": 7, "velocity": 90}, {"time": 2186, "pitch": 47, "duration": 16, "velocity": 73}, {"time": 2192, "pitch": 59, "duration": 2, "velocity": 89}, {"time": 2192, "pitch": 67, "duration": 3, "velocity": 88}, {"time": 2195, "pitch": 59, "duration": 2, "velocity": 80}, {"time": 2201, "pitch": 59, "duration": 7, "velocity": 90}, {"time": 2201, "pitch": 64, "duration": 9, "velocity": 90}, {"time": 2204, "pitch": 40, "duration": 20, "velocity": 89}, {"time": 2207, "pitch": 47, "duration": 8, "velocity": 77}, {"time": 2210, "pitch": 59, "duration": 8, "velocity": 88}, {"time": 2213, "pitch": 64, "duration": 4, "velocity": 95}, {"time": 2216, "pitch": 47, "duration": 2, "velocity": 46}, {"time": 2219, "pitch": 59, "duration": 3, "velocity": 93}, {"time": 2219, "pitch": 64, "duration": 3, "velocity": 97}, {"time": 2219, "pitch": 67, "duration": 6, "velocity": 89}, {"time": 2222, "pitch": 47, "duration": 5, "velocity": 80}, {"time": 2225, "pitch": 59, "duration": 1, "velocity": 86}, {"time": 2225, "pitch": 64, "duration": 1, "velocity": 58}, {"time": 2228, "pitch": 41, "duration": 22, "velocity": 88}, {"time": 2228, "pitch": 60, "duration": 7, "velocity": 84}, {"time": 2228, "pitch": 65, "duration": 7, "velocity": 89}, {"time": 2234, "pitch": 48, "duration": 17, "velocity": 75}, {"time": 2240, "pitch": 60, "duration": 3, "velocity": 89}, {"time": 2240, "pitch": 69, "duration": 3, "velocity": 90}, {"time": 2243, "pitch": 65, "duration": 2, "velocity": 82}, {"time": 2249, "pitch": 60, "duration": 6, "velocity": 89}, {"time": 2249, "pitch": 65, "duration": 8, "velocity": 86}, {"time": 2252, "pitch": 41, "duration": 21, "velocity": 84}, {"time": 2255, "pitch": 48, "duration": 7, "velocity": 75}, {"time": 2258, "pitch": 60, "duration": 1, "velocity": 76}, {"time": 2261, "pitch": 60, "duration": 9, "velocity": 95}, {"time": 2261, "pitch": 65, "duration": 11, "velocity": 94}, {"time": 2270, "pitch": 48, "duration": 4, "velocity": 89}, {"time": 2273, "pitch": 60, "duration": 1, "velocity": 83}, {"time": 2276, "pitch": 43, "duration": 22, "velocity": 88}, {"time": 2276, "pitch": 67, "duration": 12, "velocity": 85}, {"time": 2282, "pitch": 50, "duration": 16, "velocity": 76}, {"time": 2285, "pitch": 55, "duration": 7, "velocity": 86}, {"time": 2288, "pitch": 62, "duration": 4, "velocity": 88}, {"time": 2291, "pitch": 67, "duration": 4, "velocity": 90}, {"time": 2297, "pitch": 55, "duration": 7, "velocity": 89}, {"time": 2297, "pitch": 62, "duration": 7, "velocity": 89}, {"time": 2297, "pitch": 67, "duration": 7, "velocity": 89}, {"time": 2300, "pitch": 43, "duration": 18, "velocity": 88}, {"time": 2303, "pitch": 50, "duration": 7, "velocity": 78}, {"time": 2306, "pitch": 55, "duration": 1, "velocity": 81}, {"time": 2309, "pitch": 55, "duration": 4, "velocity": 97}, {"time": 2309, "pitch": 62, "duration": 4, "velocity": 93}, {"time": 2312, "pitch": 50, "duration": 5, "velocity": 85}, {"time": 2315, "pitch": 55, "duration": 4, "velocity": 92}, {"time": 2315, "pitch": 62, "duration": 5, "velocity": 92}, {"time": 2324, "pitch": 48, "duration": 22, "velocity": 87}, {"time": 2324, "pitch": 60, "duration": 10, "velocity": 88}, {"time": 2324, "pitch": 64, "duration": 10, "velocity": 89}, {"time": 2330, "pitch": 55, "duration": 8, "velocity": 77}, {"time": 2336, "pitch": 60, "duration": 6, "velocity": 90}, {"time": 2336, "pitch": 64, "duration": 5, "velocity": 91}, {"time": 2336, "pitch": 67, "duration": 6, "velocity": 90}, {"time": 2342, "pitch": 55, "duration": 5, "velocity": 72}, {"time": 2345, "pitch": 60, "duration": 5, "velocity": 95}, {"time": 2345, "pitch": 67, "duration": 6, "velocity": 88}, {"time": 2348, "pitch": 48, "duration": 19, "velocity": 75}, {"time": 2354, "pitch": 60, "duration": 7, "velocity": 102}, {"time": 2357, "pitch": 64, "duration": 4, "velocity": 104}, {"time": 2360, "pitch": 55, "duration": 4, "velocity": 81}, {"time": 2363, "pitch": 60, "duration": 3, "velocity": 90}, {"time": 2363, "pitch": 64, "duration": 3, "velocity": 97}, {"time": 2363, "pitch": 67, "duration": 4, "velocity": 90}, {"time": 2366, "pitch": 55, "duration": 1, "velocity": 84}, {"time": 2372, "pitch": 40, "duration": 22, "velocity": 88}, {"time": 2372, "pitch": 67, "duration": 7, "velocity": 84}, {"time": 2378, "pitch": 47, "duration": 16, "velocity": 75}, {"time": 2381, "pitch": 59, "duration": 1, "velocity": 77}, {"time": 2384, "pitch": 59, "duration": 1, "velocity": 88}, {"time": 2384, "pitch": 67, "duration": 2, "velocity": 89}, {"time": 2387, "pitch": 59, "duration": 2, "velocity": 95}, {"time": 2387, "pitch": 67, "duration": 2, "velocity": 90}, {"time": 2393, "pitch": 59, "duration": 7, "velocity": 90}, {"time": 2393, "pitch": 64, "duration": 7, "velocity": 90}, {"time": 2396, "pitch": 40, "duration": 20, "velocity": 90}, {"time": 2399, "pitch": 47, "duration": 7, "velocity": 80}, {"time": 2402, "pitch": 59, "duration": 1, "velocity": 90}, {"time": 2405, "pitch": 59, "duration": 7, "velocity": 95}, {"time": 2405, "pitch": 64, "duration": 7, "velocity": 94}, {"time": 2414, "pitch": 59, "duration": 2, "velocity": 91}, {"time": 2414, "pitch": 64, "duration": 5, "velocity": 94}, {"time": 2420, "pitch": 41, "duration": 22, "velocity": 89}, {"time": 2420, "pitch": 60, "duration": 3, "velocity": 85}, {"time": 2420, "pitch": 64, "duration": 6, "velocity": 89}, {"time": 2426, "pitch": 48, "duration": 7, "velocity": 72}, {"time": 2429, "pitch": 57, "duration": 1, "velocity": 76}, {"time": 2432, "pitch": 57, "duration": 2, "velocity": 92}, {"time": 2432, "pitch": 60, "duration": 1, "velocity": 94}, {"time": 2435, "pitch": 57, "duration": 4, "velocity": 91}, {"time": 2435, "pitch": 60, "duration": 3, "velocity": 99}, {"time": 2444, "pitch": 41, "duration": 18, "velocity": 89}, {"time": 2447, "pitch": 48, "duration": 7, "velocity": 74}, {"time": 2450, "pitch": 57, "duration": 1, "velocity": 71}, {"time": 2453, "pitch": 57, "duration": 4, "velocity": 88}, {"time": 2453, "pitch": 60, "duration": 4, "velocity": 90}, {"time": 2453, "pitch": 65, "duration": 4, "velocity": 89}, {"time": 2456, "pitch": 48, "duration": 5, "velocity": 72}, {"time": 2459, "pitch": 57, "duration": 3, "velocity": 89}, {"time": 2459, "pitch": 60, "duration": 3, "velocity": 90}, {"time": 2468, "pitch": 43, "duration": 22, "velocity": 88}, {"time": 2468, "pitch": 55, "duration": 6, "velocity": 83}, {"time": 2468, "pitch": 59, "duration": 8, "velocity": 82}, {"time": 2468, "pitch": 62, "duration": 7, "velocity": 83}, {"time": 2474, "pitch": 50, "duration": 10, "velocity": 69}, {"time": 2477, "pitch": 55, "duration": 4, "velocity": 80}, {"time": 2483, "pitch": 55, "duration": 1, "velocity": 61}, {"time": 2483, "pitch": 67, "duration": 3, "velocity": 90}, {"time": 2486, "pitch": 50, "duration": 4, "velocity": 82}, {"time": 2489, "pitch": 55, "duration": 2, "velocity": 82}, {"time": 2492, "pitch": 43, "duration": 17, "velocity": 88}, {"time": 2492, "pitch": 55, "duration": 5, "velocity": 81}, {"time": 2492, "pitch": 59, "duration": 6, "velocity": 89}, {"time": 2492, "pitch": 62, "duration": 6, "velocity": 88}, {"time": 2498, "pitch": 50, "duration": 4, "velocity": 66}, {"time": 2501, "pitch": 55, "duration": 3, "velocity": 92}, {"time": 2501, "pitch": 67, "duration": 2, "velocity": 89}, {"time": 2504, "pitch": 50, "duration": 4, "velocity": 78}, {"time": 2507, "pitch": 55, "duration": 1, "velocity": 83}, {"time": 2507, "pitch": 59, "duration": 3, "velocity": 91}, {"time": 2507, "pitch": 62, "duration": 8, "velocity": 89}, {"time": 2513, "pitch": 55, "duration": 1, "velocity": 86}, {"time": 2516, "pitch": 48, "duration": 14, "velocity": 88}, {"time": 2516, "pitch": 55, "duration": 4, "velocity": 89}, {"time": 2516, "pitch": 60, "duration": 8, "velocity": 85}, {"time": 2522, "pitch": 55, "duration": 1, "velocity": 65}, {"time": 2528, "pitch": 55, "duration": 2, "velocity": 92}, {"time": 2528, "pitch": 64, "duration": 4, "velocity": 93}, {"time": 2531, "pitch": 55, "duration": 3, "velocity": 82}, {"time": 2537, "pitch": 55, "duration": 4, "velocity": 84}, {"time": 2537, "pitch": 60, "duration": 4, "velocity": 89}, {"time": 2537, "pitch": 64, "duration": 7, "velocity": 89}, {"time": 2540, "pitch": 48, "duration": 19, "velocity": 89}, {"time": 2543, "pitch": 55, "duration": 3, "velocity": 84}, {"time": 2549, "pitch": 55, "duration": 3, "velocity": 91}, {"time": 2549, "pitch": 64, "duration": 4, "velocity": 104}, {"time": 2555, "pitch": 55, "duration": 4, "velocity": 89}, {"time": 2555, "pitch": 62, "duration": 3, "velocity": 89}, {"time": 2558, "pitch": 60, "duration": 3, "velocity": 83}, {"time": 2561, "pitch": 62, "duration": 4, "velocity": 79}, {"time": 2564, "pitch": 40, "duration": 22, "velocity": 92}, {"time": 2564, "pitch": 64, "duration": 7, "velocity": 90}, {"time": 2570, "pitch": 47, "duration": 16, "velocity": 73}, {"time": 2576, "pitch": 59, "duration": 2, "velocity": 89}, {"time": 2576, "pitch": 67, "duration": 3, "velocity": 88}, {"time": 2579, "pitch": 59, "duration": 2, "velocity": 80}, {"time": 2585, "pitch": 59, "duration": 7, "velocity": 90}, {"time": 2585, "pitch": 64, "duration": 9, "velocity": 90}, {"time": 2588, "pitch": 40, "duration": 20, "velocity": 89}, {"time": 2591, "pitch": 47, "duration": 8, "velocity": 77}, {"time": 2594, "pitch": 59, "duration": 8, "velocity": 88}, {"time": 2597, "pitch": 64, "duration": 4, "velocity": 95}, {"time": 2600, "pitch": 47, "duration": 2, "velocity": 46}, {"time": 2603, "pitch": 59, "duration": 3, "velocity": 93}, {"time": 2603, "pitch": 64, "duration": 3, "velocity": 97}, {"time": 2603, "pitch": 67, "duration": 6, "velocity": 89}, {"time": 2606, "pitch": 47, "duration": 5, "velocity": 80}, {"time": 2609, "pitch": 59, "duration": 1, "velocity": 86}, {"time": 2609, "pitch": 64, "duration": 1, "velocity": 58}, {"time": 2612, "pitch": 41, "duration": 22, "velocity": 88}, {"time": 2612, "pitch": 60, "duration": 7, "velocity": 84}, {"time": 2612, "pitch": 65, "duration": 7, "velocity": 89}, {"time": 2618, "pitch": 48, "duration": 17, "velocity": 75}, {"time": 2624, "pitch": 60, "duration": 3, "velocity": 89}, {"time": 2624, "pitch": 69, "duration": 3, "velocity": 90}, {"time": 2627, "pitch": 65, "duration": 2, "velocity": 82}, {"time": 2633, "pitch": 60, "duration": 6, "velocity": 89}, {"time": 2633, "pitch": 65, "duration": 8, "velocity": 86}, {"time": 2636, "pitch": 41, "duration": 21, "velocity": 84}, {"time": 2639, "pitch": 48, "duration": 7, "velocity": 75}, {"time": 2642, "pitch": 60, "duration": 1, "velocity": 76}, {"time": 2645, "pitch": 60, "duration": 9, "velocity": 95}, {"time": 2645, "pitch": 65, "duration": 11, "velocity": 94}, {"time": 2654, "pitch": 48, "duration": 4, "velocity": 89}, {"time": 2657, "pitch": 60, "duration": 1, "velocity": 83}, {"time": 2660, "pitch": 43, "duration": 22, "velocity": 88}, {"time": 2660, "pitch": 67, "duration": 12, "velocity": 85}, {"time": 2666, "pitch": 50, "duration": 16, "velocity": 76}, {"time": 2669, "pitch": 55, "duration": 7, "velocity": 86}, {"time": 2672, "pitch": 62, "duration": 4, "velocity": 88}, {"time": 2675, "pitch": 67, "duration": 4, "velocity": 90}, {"time": 2681, "pitch": 55, "duration": 7, "velocity": 89}, {"time": 2681, "pitch": 62, "duration": 7, "velocity": 89}, {"time": 2681, "pitch": 67, "duration": 7, "velocity": 89}, {"time": 2684, "pitch": 43, "duration": 18, "velocity": 88}, {"time": 2687, "pitch": 50, "duration": 7, "velocity": 78}, {"time": 2690, "pitch": 55, "duration": 1, "velocity": 81}, {"time": 2693, "pitch": 55, "duration": 4, "velocity": 97}, {"time": 2693, "pitch": 62, "duration": 4, "velocity": 93}, {"time": 2696, "pitch": 50, "duration": 5, "velocity": 85}, {"time": 2699, "pitch": 55, "duration": 4, "velocity": 92}, {"time": 2699, "pitch": 62, "duration": 5, "velocity": 92}, {"time": 2708, "pitch": 48, "duration": 38, "velocity": 88}, {"time": 2708, "pitch": 60, "duration": 8, "velocity": 78}, {"time": 2708, "pitch": 64, "duration": 8, "velocity": 86}, {"time": 2714, "pitch": 55, "duration": 7, "velocity": 78}, {"time": 2720, "pitch": 60, "duration": 2, "velocity": 90}, {"time": 2720, "pitch": 64, "duration": 2, "velocity": 99}, {"time": 2723, "pitch": 55, "duration": 7, "velocity": 74}, {"time": 2726, "pitch": 60, "duration": 1, "velocity": 68}, {"time": 2729, "pitch": 60, "duration": 4, "velocity": 89}, {"time": 2729, "pitch": 67, "duration": 3, "velocity": 86}, {"time": 2732, "pitch": 55, "duration": 4, "velocity": 76}, {"time": 2735, "pitch": 60, "duration": 6, "velocity": 84}, {"time": 2735, "pitch": 64, "duration": 7, "velocity": 90}, {"time": 2741, "pitch": 55, "duration": 5, "velocity": 62}, {"time": 2744, "pitch": 60, "duration": 3, "velocity": 94}, {"time": 2744, "pitch": 64, "duration": 6, "velocity": 99}, {"time": 2750, "pitch": 59, "duration": 1, "velocity": 88}, {"time": 2756, "pitch": 47, "duration": 15, "velocity": 88}, {"time": 2756, "pitch": 59, "duration": 3, "velocity": 88}, {"time": 2756, "pitch": 64, "duration": 7, "velocity": 90}, {"time": 2762, "pitch": 59, "duration": 3, "velocity": 79}, {"time": 2768, "pitch": 64, "duration": 2, "velocity": 89}, {"time": 2768, "pitch": 67, "duration": 2, "velocity": 89}, {"time": 2771, "pitch": 59, "duration": 1, "velocity": 70}, {"time": 2774, "pitch": 64, "duration": 1, "velocity": 78}, {"time": 2777, "pitch": 59, "duration": 5, "velocity": 93}, {"time": 2777, "pitch": 64, "duration": 5, "velocity": 94}, {"time": 2777, "pitch": 67, "duration": 5, "velocity": 89}, {"time": 2783, "pitch": 59, "duration": 2, "velocity": 84}, {"time": 2783, "pitch": 64, "duration": 5, "velocity": 89}, {"time": 2783, "pitch": 69, "duration": 6, "velocity": 87}, {"time": 2789, "pitch": 59, "duration": 2, "velocity": 88}, {"time": 2792, "pitch": 47, "duration": 6, "velocity": 86}, {"time": 2792, "pitch": 59, "duration": 3, "velocity": 84}, {"time": 2792, "pitch": 64, "duration": 6, "velocity": 89}, {"time": 2792, "pitch": 67, "duration": 5, "velocity": 88}, {"time": 2798, "pitch": 59, "duration": 4, "velocity": 89}, {"time": 2801, "pitch": 64, "duration": 1, "velocity": 83}, {"time": 2804, "pitch": 45, "duration": 40, "velocity": 89}, {"time": 2804, "pitch": 57, "duration": 7, "velocity": 82}, {"time": 2804, "pitch": 60, "duration": 9, "velocity": 90}, {"time": 2810, "pitch": 52, "duration": 10, "velocity": 77}, {"time": 2813, "pitch": 55, "duration": 1, "velocity": 82}, {"time": 2816, "pitch": 55, "duration": 2, "velocity": 90}, {"time": 2816, "pitch": 60, "duration": 2, "velocity": 90}, {"time": 2819, "pitch": 55, "duration": 3, "velocity": 92}, {"time": 2819, "pitch": 60, "duration": 3, "velocity": 99}, {"time": 2822, "pitch": 52, "duration": 10, "velocity": 83}, {"time": 2825, "pitch": 57, "duration": 4, "velocity": 88}, {"time": 2825, "pitch": 60, "duration": 4, "velocity": 90}, {"time": 2825, "pitch": 64, "duration": 4, "velocity": 97}, {"time": 2831, "pitch": 57, "duration": 5, "velocity": 84}, {"time": 2831, "pitch": 60, "duration": 6, "velocity": 86}, {"time": 2837, "pitch": 52, "duration": 4, "velocity": 76}, {"time": 2840, "pitch": 57, "duration": 3, "velocity": 93}, {"time": 2840, "pitch": 60, "duration": 4, "velocity": 104}, {"time": 2843, "pitch": 52, "duration": 2, "velocity": 75}, {"time": 2846, "pitch": 45, "duration": 4, "velocity": 89}, {"time": 2849, "pitch": 57, "duration": 5, "velocity": 90}, {"time": 2849, "pitch": 60, "duration": 1, "velocity": 74}, {"time": 2852, "pitch": 43, "duration": 22, "velocity": 90}, {"time": 2855, "pitch": 50, "duration": 7, "velocity": 73}, {"time": 2858, "pitch": 55, "duration": 2, "velocity": 88}, {"time": 2861, "pitch": 55, "duration": 5, "velocity": 90}, {"time": 2861, "pitch": 62, "duration": 5, "velocity": 94}, {"time": 2864, "pitch": 50, "duration": 5, "velocity": 66}, {"time": 2867, "pitch": 55, "duration": 3, "velocity": 92}, {"time": 2867, "pitch": 62, "duration": 2, "velocity": 90}, {"time": 2867, "pitch": 67, "duration": 3, "velocity": 88}, {"time": 2873, "pitch": 55, "duration": 1, "velocity": 74}, {"time": 2876, "pitch": 43, "duration": 25, "velocity": 89}, {"time": 2876, "pitch": 55, "duration": 3, "velocity": 86}, {"time": 2876, "pitch": 62, "duration": 4, "velocity": 86}, {"time": 2879, "pitch": 50, "duration": 7, "velocity": 77}, {"time": 2882, "pitch": 55, "duration": 1, "velocity": 80}, {"time": 2885, "pitch": 55, "duration": 4, "velocity": 89}, {"time": 2885, "pitch": 59, "duration": 4, "velocity": 89}, {"time": 2885, "pitch": 62, "duration": 4, "velocity": 89}, {"time": 2888, "pitch": 50, "duration": 5, "velocity": 80}, {"time": 2891, "pitch": 55, "duration": 5, "velocity": 89}, {"time": 2894, "pitch": 50, "duration": 7, "velocity": 86}, {"time": 2900, "pitch": 48, "duration": 40, "velocity": 89}, {"time": 2900, "pitch": 60, "duration": 8, "velocity": 82}, {"time": 2900, "pitch": 64, "duration": 7, "velocity": 86}, {"time": 2912, "pitch": 60, "duration": 1, "velocity": 92}, {"time": 2912, "pitch": 67, "duration": 1, "velocity": 89}, {"time": 2918, "pitch": 55, "duration": 4, "velocity": 45}, {"time": 2921, "pitch": 60, "duration": 2, "velocity": 87}, {"time": 2921, "pitch": 67, "duration": 2, "velocity": 81}, {"time": 2924, "pitch": 55, "duration": 4, "velocity": 62}, {"time": 2927, "pitch": 60, "duration": 2, "velocity": 69}, {"time": 2930, "pitch": 55, "duration": 7, "velocity": 77}, {"time": 2933, "pitch": 60, "duration": 1, "velocity": 77}, {"time": 2936, "pitch": 60, "duration": 3, "velocity": 90}, {"time": 2936, "pitch": 64, "duration": 3, "velocity": 92}, {"time": 2948, "pitch": 40, "duration": 39, "velocity": 88}, {"time": 2948, "pitch": 59, "duration": 6, "velocity": 82}, {"time": 2948, "pitch": 67, "duration": 6, "velocity": 84}, {"time": 2960, "pitch": 59, "duration": 1, "velocity": 55}, {"time": 2960, "pitch": 64, "duration": 1, "velocity": 90}, {"time": 2960, "pitch": 67, "duration": 2, "velocity": 87}, {"time": 2963, "pitch": 47, "duration": 22, "velocity": 67}, {"time": 2966, "pitch": 59, "duration": 1, "velocity": 77}, {"time": 2969, "pitch": 59, "duration": 5, "velocity": 87}, {"time": 2969, "pitch": 64, "duration": 5, "velocity": 87}, {"time": 2981, "pitch": 59, "duration": 1, "velocity": 78}, {"time": 2984, "pitch": 59, "duration": 2, "velocity": 92}, {"time": 2984, "pitch": 67, "duration": 4, "velocity": 86}, {"time": 2990, "pitch": 59, "duration": 1, "velocity": 84}, {"time": 2990, "pitch": 64, "duration": 1, "velocity": 88}, {"time": 2996, "pitch": 41, "duration": 39, "velocity": 89}, {"time": 2996, "pitch": 57, "duration": 6, "velocity": 80}, {"time": 2996, "pitch": 60, "duration": 6, "velocity": 83}, {"time": 3002, "pitch": 48, "duration": 31, "velocity": 57}, {"time": 3005, "pitch": 57, "duration": 4, "velocity": 81}, {"time": 3008, "pitch": 65, "duration": 4, "velocity": 93}, {"time": 3011, "pitch": 57, "duration": 2, "velocity": 84}, {"time": 3020, "pitch": 57, "duration": 6, "velocity": 79}, {"time": 3020, "pitch": 60, "duration": 6, "velocity": 81}, {"time": 3032, "pitch": 57, "duration": 1, "velocity": 88}, {"time": 3032, "pitch": 65, "duration": 6, "velocity": 89}, {"time": 3035, "pitch": 57, "duration": 3, "velocity": 87}, {"time": 3038, "pitch": 60, "duration": 1, "velocity": 81}, {"time": 3044, "pitch": 43, "duration": 22, "velocity": 89}, {"time": 3044, "pitch": 55, "duration": 6, "velocity": 84}, {"time": 3044, "pitch": 62, "duration": 9, "velocity": 85}, {"time": 3050, "pitch": 50, "duration": 15, "velocity": 76}, {"time": 3053, "pitch": 55, "duration": 6, "velocity": 82}, {"time": 3056, "pitch": 62, "duration": 4, "velocity": 77}, {"time": 3059, "pitch": 67, "duration": 4, "velocity": 84}, {"time": 3062, "pitch": 55, "duration": 3, "velocity": 73}, {"time": 3068, "pitch": 43, "duration": 14, "velocity": 82}, {"time": 3068, "pitch": 55, "duration": 9, "velocity": 76}, {"time": 3068, "pitch": 62, "duration": 6, "velocity": 65}, {"time": 3074, "pitch": 50, "duration": 8, "velocity": 55}, {"time": 3080, "pitch": 55, "duration": 2, "velocity": 89}, {"time": 3080, "pitch": 62, "duration": 2, "velocity": 87}, {"time": 3091, "pitch": 55, "duration": 15, "velocity": 77}, {"time": 3092, "pitch": 60, "duration": 14, "velocity": 77}, {"time": 3092, "pitch": 48, "duration": 11, "velocity": 82}, {"time": 3093, "pitch": 64, "duration": 14, "velocity": 70}], "annotations": [{"time": 21, "annotation": {"number": 64, "value": 127}, "group": "control_change"}, {"time": 21, "annotation": {"number": 64, "value": 0}, "group": "control_change"}, {"time": 66, "annotation": {"number": 64, "value": 0}, "group": "control_change"}, {"time": 69, "annotation": {"number": 64, "value": 127}, "group": "control_change"}, {"time": 115, "annotation": {"number": 64, "value": 0}, "group": "control_change"}, {"time": 118, "annotation": {"number": 64, "value": 127}, "group": "control_change"}, {"time": 163, "annotation": {"number": 64, "value": 0}, "group": "control_change"}, {"time": 168, "annotation": {"number": 64, "value": 127}, "group": "control_change"}, {"time": 210, "annotation": {"number": 64, "value": 0}, "group": "control_change"}, {"time": 213, "annotation": {"number": 64, "value": 127}, "group": "control_change"}, {"time": 259, "annotation": {"number": 64, "value": 0}, "group": "control_change"}, {"time": 261, "annotation": {"number": 64, "value": 127}, "group": "control_change"}, {"time": 306, "annotation": {"number": 64, "value": 0}, "group": "control_change"}, {"time": 313, "annotation": {"number": 64, "value": 127}, "group": "control_change"}, {"time": 334, "annotation": {"number": 64, "value": 0}, "group": "control_change"}, {"time": 336, "annotation": {"number": 64, "value": 127}, "group": "control_change"}, {"time": 354, "annotation": {"number": 64, "value": 0}, "group": "control_change"}, {"time": 357, "annotation": {"number": 64, "value": 127}, "group": "control_change"}, {"time": 379, "annotation": {"number": 64, "value": 0}, "group": "control_change"}, {"time": 381, "annotation": {"number": 64, "value": 127}, "group": "control_change"}, {"time": 404, "annotation": {"number": 64, "value": 0}, "group": "control_change"}, {"time": 406, "annotation": {"number": 64, "value": 127}, "group": "control_change"}, {"time": 428, "annotation": {"number": 64, "value": 0}, "group": "control_change"}, {"time": 429, "annotation": {"number": 64, "value": 127}, "group": "control_change"}, {"time": 450, "annotation": {"number": 64, "value": 0}, "group": "control_change"}, {"time": 455, "annotation": {"number": 64, "value": 127}, "group": "control_change"}, {"time": 486, "annotation": {"number": 64, "value": 0}, "group": "control_change"}, {"time": 487, "annotation": {"number": 64, "value": 127}, "group": "control_change"}, {"time": 499, "annotation": {"number": 64, "value": 0}, "group": "control_change"}, {"time": 505, "annotation": {"number": 64, "value": 127}, "group": "control_change"}, {"time": 536, "annotation": {"number": 64, "value": 0}, "group": "control_change"}, {"time": 537, "annotation": {"number": 64, "value": 127}, "group": "control_change"}, {"time": 547, "annotation": {"number": 64, "value": 0}, "group": "control_change"}, {"time": 552, "annotation": {"number": 64, "value": 127}, "group": "control_change"}, {"time": 572, "annotation": {"number": 64, "value": 0}, "group": "control_change"}, {"time": 573, "annotation": {"number": 64, "value": 127}, "group": "control_change"}, {"time": 593, "annotation": {"number": 64, "value": 0}, "group": "control_change"}, {"time": 597, "annotation": {"number": 64, "value": 127}, "group": "control_change"}, {"time": 643, "annotation": {"number": 64, "value": 0}, "group": "control_change"}, {"time": 645, "annotation": {"number": 64, "value": 127}, "group": "control_change"}, {"time": 690, "annotation": {"number": 64, "value": 0}, "group": "control_change"}, {"time": 697, "annotation": {"number": 64, "value": 127}, "group": "control_change"}, {"time": 718, "annotation": {"number": 64, "value": 0}, "group": "control_change"}, {"time": 720, "annotation": {"number": 64, "value": 127}, "group": "control_change"}, {"time": 738, "annotation": {"number": 64, "value": 0}, "group": "control_change"}, {"time": 741, "annotation": {"number": 64, "value": 127}, "group": "control_change"}, {"time": 763, "annotation": {"number": 64, "value": 0}, "group": "control_change"}, {"time": 765, "annotation": {"number": 64, "value": 127}, "group": "control_change"}, {"time": 788, "annotation": {"number": 64, "value": 0}, "group": "control_change"}, {"time": 790, "annotation": {"number": 64, "value": 127}, "group": "control_change"}, {"time": 812, "annotation": {"number": 64, "value": 0}, "group": "control_change"}, {"time": 813, "annotation": {"number": 64, "value": 127}, "group": "control_change"}, {"time": 834, "annotation": {"number": 64, "value": 0}, "group": "control_change"}, {"time": 839, "annotation": {"number": 64, "value": 127}, "group": "control_change"}, {"time": 870, "annotation": {"number": 64, "value": 0}, "group": "control_change"}, {"time": 871, "annotation": {"number": 64, "value": 127}, "group": "control_change"}, {"time": 883, "annotation": {"number": 64, "value": 0}, "group": "control_change"}, {"time": 889, "annotation": {"number": 64, "value": 127}, "group": "control_change"}, {"time": 920, "annotation": {"number": 64, "value": 0}, "group": "control_change"}, {"time": 921, "annotation": {"number": 64, "value": 127}, "group": "control_change"}, {"time": 931, "annotation": {"number": 64, "value": 0}, "group": "control_change"}, {"time": 936, "annotation": {"number": 64, "value": 127}, "group": "control_change"}, {"time": 956, "annotation": {"number": 64, "value": 0}, "group": "control_change"}, {"time": 957, "annotation": {"number": 64, "value": 127}, "group": "control_change"}, {"time": 977, "annotation": {"number": 64, "value": 0}, "group": "control_change"}, {"time": 982, "annotation": {"number": 64, "value": 127}, "group": "control_change"}, {"time": 1028, "annotation": {"number": 64, "value": 0}, "group": "control_change"}, {"time": 1029, "annotation": {"number": 64, "value": 127}, "group": "control_change"}, {"time": 1050, "annotation": {"number": 64, "value": 0}, "group": "control_change"}, {"time": 1051, "annotation": {"number": 64, "value": 127}, "group": "control_change"}, {"time": 1075, "annotation": {"number": 64, "value": 0}, "group": "control_change"}, {"time": 1076, "annotation": {"number": 64, "value": 127}, "group": "control_change"}, {"time": 1100, "annotation": {"number": 64, "value": 0}, "group": "control_change"}, {"time": 1101, "annotation": {"number": 64, "value": 127}, "group": "control_change"}, {"time": 1122, "annotation": {"number": 64, "value": 0}, "group": "control_change"}, {"time": 1129, "annotation": {"number": 64, "value": 127}, "group": "control_change"}, {"time": 1170, "annotation": {"number": 64, "value": 0}, "group": "control_change"}, {"time": 1176, "annotation": {"number": 64, "value": 127}, "group": "control_change"}, {"time": 1218, "annotation": {"number": 64, "value": 0}, "group": "control_change"}, {"time": 1220, "annotation": {"number": 64, "value": 127}, "group": "control_change"}, {"time": 1250, "annotation": {"number": 64, "value": 0}, "group": "control_change"}, {"time": 1251, "annotation": {"number": 64, "value": 127}, "group": "control_change"}, {"time": 1268, "annotation": {"number": 64, "value": 0}, "group": "control_change"}, {"time": 1269, "annotation": {"number": 64, "value": 127}, "group": "control_change"}, {"time": 1315, "annotation": {"number": 64, "value": 0}, "group": "control_change"}, {"time": 1317, "annotation": {"number": 64, "value": 127}, "group": "control_change"}, {"time": 1339, "annotation": {"number": 64, "value": 0}, "group": "control_change"}, {"time": 1340, "annotation": {"number": 64, "value": 127}, "group": "control_change"}, {"time": 1363, "annotation": {"number": 64, "value": 0}, "group": "control_change"}, {"time": 1369, "annotation": {"number": 64, "value": 127}, "group": "control_change"}, {"time": 1412, "annotation": {"number": 64, "value": 0}, "group": "control_change"}, {"time": 1413, "annotation": {"number": 64, "value": 127}, "group": "control_change"}, {"time": 1459, "annotation": {"number": 64, "value": 0}, "group": "control_change"}, {"time": 1465, "annotation": {"number": 64, "value": 127}, "group": "control_change"}, {"time": 1506, "annotation": {"number": 64, "value": 0}, "group": "control_change"}, {"time": 1508, "annotation": {"number": 64, "value": 127}, "group": "control_change"}, {"time": 1531, "annotation": {"number": 64, "value": 0}, "group": "control_change"}, {"time": 1532, "annotation": {"number": 64, "value": 127}, "group": "control_change"}, {"time": 1553, "annotation": {"number": 64, "value": 0}, "group": "control_change"}, {"time": 1557, "annotation": {"number": 64, "value": 127}, "group": "control_change"}, {"time": 1603, "annotation": {"number": 64, "value": 0}, "group": "control_change"}, {"time": 1605, "annotation": {"number": 64, "value": 127}, "group": "control_change"}, {"time": 1650, "annotation": {"number": 64, "value": 0}, "group": "control_change"}, {"time": 1657, "annotation": {"number": 64, "value": 127}, "group": "control_change"}, {"time": 1678, "annotation": {"number": 64, "value": 0}, "group": "control_change"}, {"time": 1680, "annotation": {"number": 64, "value": 127}, "group": "control_change"}, {"time": 1698, "annotation": {"number": 64, "value": 0}, "group": "control_change"}, {"time": 1701, "annotation": {"number": 64, "value": 127}, "group": "control_change"}, {"time": 1723, "annotation": {"number": 64, "value": 0}, "group": "control_change"}, {"time": 1725, "annotation": {"number": 64, "value": 127}, "group": "control_change"}, {"time": 1748, "annotation": {"number": 64, "value": 0}, "group": "control_change"}, {"time": 1750, "annotation": {"number": 64, "value": 127}, "group": "control_change"}, {"time": 1772, "annotation": {"number": 64, "value": 0}, "group": "control_change"}, {"time": 1773, "annotation": {"number": 64, "value": 127}, "group": "control_change"}, {"time": 1794, "annotation": {"number": 64, "value": 0}, "group": "control_change"}, {"time": 1799, "annotation": {"number": 64, "value": 127}, "group": "control_change"}, {"time": 1830, "annotation": {"number": 64, "value": 0}, "group": "control_change"}, {"time": 1831, "annotation": {"number": 64, "value": 127}, "group": "control_change"}, {"time": 1843, "annotation": {"number": 64, "value": 0}, "group": "control_change"}, {"time": 1849, "annotation": {"number": 64, "value": 127}, "group": "control_change"}, {"time": 1880, "annotation": {"number": 64, "value": 0}, "group": "control_change"}, {"time": 1881, "annotation": {"number": 64, "value": 127}, "group": "control_change"}, {"time": 1891, "annotation": {"number": 64, "value": 0}, "group": "control_change"}, {"time": 1896, "annotation": {"number": 64, "value": 127}, "group": "control_change"}, {"time": 1916, "annotation": {"number": 64, "value": 0}, "group": "control_change"}, {"time": 1917, "annotation": {"number": 64, "value": 127}, "group": "control_change"}, {"time": 1937, "annotation": {"number": 64, "value": 0}, "group": "control_change"}, {"time": 1942, "annotation": {"number": 64, "value": 127}, "group": "control_change"}, {"time": 1988, "annotation": {"number": 64, "value": 0}, "group": "control_change"}, {"time": 1989, "annotation": {"number": 64, "value": 127}, "group": "control_change"}, {"time": 2010, "annotation": {"number": 64, "value": 0}, "group": "control_change"}, {"time": 2011, "annotation": {"number": 64, "value": 127}, "group": "control_change"}, {"time": 2035, "annotation": {"number": 64, "value": 0}, "group": "control_change"}, {"time": 2036, "annotation": {"number": 64, "value": 127}, "group": "control_change"}, {"time": 2060, "annotation": {"number": 64, "value": 0}, "group": "control_change"}, {"time": 2061, "annotation": {"number": 64, "value": 127}, "group": "control_change"}, {"time": 2082, "annotation": {"number": 64, "value": 0}, "group": "control_change"}, {"time": 2089, "annotation": {"number": 64, "value": 127}, "group": "control_change"}, {"time": 2130, "annotation": {"number": 64, "value": 0}, "group": "control_change"}, {"time": 2136, "annotation": {"number": 64, "value": 127}, "group": "control_change"}, {"time": 2178, "annotation": {"number": 64, "value": 0}, "group": "control_change"}, {"time": 2180, "annotation": {"number": 64, "value": 127}, "group": "control_change"}, {"time": 2210, "annotation": {"number": 64, "value": 0}, "group": "control_change"}, {"time": 2211, "annotation": {"number": 64, "value": 127}, "group": "control_change"}, {"time": 2228, "annotation": {"number": 64, "value": 0}, "group": "control_change"}, {"time": 2229, "annotation": {"number": 64, "value": 127}, "group": "control_change"}, {"time": 2275, "annotation": {"number": 64, "value": 0}, "group": "control_change"}, {"time": 2277, "annotation": {"number": 64, "value": 127}, "group": "control_change"}, {"time": 2299, "annotation": {"number": 64, "value": 0}, "group": "control_change"}, {"time": 2300, "annotation": {"number": 64, "value": 127}, "group": "control_change"}, {"time": 2323, "annotation": {"number": 64, "value": 0}, "group": "control_change"}, {"time": 2326, "annotation": {"number": 64, "value": 127}, "group": "control_change"}, {"time": 2372, "annotation": {"number": 64, "value": 0}, "group": "control_change"}, {"time": 2373, "annotation": {"number": 64, "value": 127}, "group": "control_change"}, {"time": 2394, "annotation": {"number": 64, "value": 0}, "group": "control_change"}, {"time": 2395, "annotation": {"number": 64, "value": 127}, "group": "control_change"}, {"time": 2419, "annotation": {"number": 64, "value": 0}, "group": "control_change"}, {"time": 2420, "annotation": {"number": 64, "value": 127}, "group": "control_change"}, {"time": 2444, "annotation": {"number": 64, "value": 0}, "group": "control_change"}, {"time": 2445, "annotation": {"number": 64, "value": 127}, "group": "control_change"}, {"time": 2466, "annotation": {"number": 64, "value": 0}, "group": "control_change"}, {"time": 2473, "annotation": {"number": 64, "value": 127}, "group": "control_change"}, {"time": 2514, "annotation": {"number": 64, "value": 0}, "group": "control_change"}, {"time": 2520, "annotation": {"number": 64, "value": 127}, "group": "control_change"}, {"time": 2562, "annotation": {"number": 64, "value": 0}, "group": "control_change"}, {"time": 2564, "annotation": {"number": 64, "value": 127}, "group": "control_change"}, {"time": 2594, "annotation": {"number": 64, "value": 0}, "group": "control_change"}, {"time": 2595, "annotation": {"number": 64, "value": 127}, "group": "control_change"}, {"time": 2612, "annotation": {"number": 64, "value": 0}, "group": "control_change"}, {"time": 2613, "annotation": {"number": 64, "value": 127}, "group": "control_change"}, {"time": 2659, "annotation": {"number": 64, "value": 0}, "group": "control_change"}, {"time": 2661, "annotation": {"number": 64, "value": 127}, "group": "control_change"}, {"time": 2683, "annotation": {"number": 64, "value": 0}, "group": "control_change"}, {"time": 2684, "annotation": {"number": 64, "value": 127}, "group": "control_change"}, {"time": 2707, "annotation": {"number": 64, "value": 0}, "group": "control_change"}, {"time": 2713, "annotation": {"number": 64, "value": 127}, "group": "control_change"}, {"time": 2756, "annotation": {"number": 64, "value": 0}, "group": "control_change"}, {"time": 2757, "annotation": {"number": 64, "value": 127}, "group": "control_change"}, {"time": 2803, "annotation": {"number": 64, "value": 0}, "group": "control_change"}, {"time": 2809, "annotation": {"number": 64, "value": 127}, "group": "control_change"}, {"time": 2850, "annotation": {"number": 64, "value": 0}, "group": "control_change"}, {"time": 2852, "annotation": {"number": 64, "value": 127}, "group": "control_change"}, {"time": 2875, "annotation": {"number": 64, "value": 0}, "group": "control_change"}, {"time": 2876, "annotation": {"number": 64, "value": 127}, "group": "control_change"}, {"time": 2897, "annotation": {"number": 64, "value": 0}, "group": "control_change"}, {"time": 2901, "annotation": {"number": 64, "value": 127}, "group": "control_change"}, {"time": 2901, "annotation": {"number": 64, "value": 0}, "group": "control_change"}, {"time": 2946, "annotation": {"number": 64, "value": 0}, "group": "control_change"}, {"time": 2949, "annotation": {"number": 64, "value": 127}, "group": "control_change"}, {"time": 2995, "annotation": {"number": 64, "value": 0}, "group": "control_change"}, {"time": 2998, "annotation": {"number": 64, "value": 127}, "group": "control_change"}, {"time": 3043, "annotation": {"number": 64, "value": 0}, "group": "control_change"}, {"time": 3048, "annotation": {"number": 64, "value": 127}, "group": "control_change"}, {"time": 3090, "annotation": {"number": 64, "value": 0}, "group": "control_change"}, {"time": 3092, "annotation": {"number": 64, "value": 127}, "group": "control_change"}, {"time": 3146, "annotation": {"number": 64, "value": 0}, "group": "control_change"}]}]}