{"metadata": {"schema_version": "0.2", "title": "None", "source_filename": "494.mid", "source_format": "midi"}, "resolution": 12, "tempos": [{"time": 0, "qpm": 64.8000648000648}, {"time": 372, "qpm": 65.00013541694878}, {"time": 588, "qpm": 65.50003820835562}, {"time": 672, "qpm": 65.40001373400288}, {"time": 720, "qpm": 65.00013541694878}, {"time": 859, "qpm": 64.8000648000648}, {"time": 948, "qpm": 64.70007203274686}, {"time": 972, "qpm": 65.00013541694878}], "time_signatures": [{"time": 0, "numerator": 1, "denominator": 4}], "tracks": [{"program": 0, "is_drum": false, "name": "MELODY", "notes": [{"time": 217, "pitch": 72, "duration": 23, "velocity": 94}, {"time": 247, "pitch": 67, "duration": 1, "velocity": 87}, {"time": 250, "pitch": 67, "duration": 3, "velocity": 93}, {"time": 253, "pitch": 79, "duration": 2, "velocity": 97}, {"time": 256, "pitch": 76, "duration": 2, "velocity": 92}, {"time": 259, "pitch": 74, "duration": 2, "velocity": 93}, {"time": 262, "pitch": 72, "duration": 3, "velocity": 92}, {"time": 265, "pitch": 71, "duration": 22, "velocity": 93}, {"time": 295, "pitch": 72, "duration": 2, "velocity": 93}, {"time": 298, "pitch": 79, "duration": 1, "velocity": 93}, {"time": 301, "pitch": 79, "duration": 1, "velocity": 93}, {"time": 304, "pitch": 79, "duration": 1, "velocity": 93}, {"time": 307, "pitch": 79, "duration": 1, "velocity": 98}, {"time": 310, "pitch": 72, "duration": 2, "velocity": 93}, {"time": 313, "pitch": 69, "duration": 22, "velocity": 93}, {"time": 343, "pitch": 69, "duration": 2, "velocity": 96}, {"time": 346, "pitch": 72, "duration": 1, "velocity": 96}, {"time": 349, "pitch": 72, "duration": 1, "velocity": 94}, {"time": 352, "pitch": 72, "duration": 1, "velocity": 88}, {"time": 355, "pitch": 72, "duration": 2, "velocity": 91}, {"time": 358, "pitch": 69, "duration": 2, "velocity": 96}, {"time": 361, "pitch": 76, "duration": 18, "velocity": 93}, {"time": 379, "pitch": 74, "duration": 1, "velocity": 103}, {"time": 382, "pitch": 76, "duration": 2, "velocity": 98}, {"time": 385, "pitch": 74, "duration": 1, "velocity": 101}, {"time": 388, "pitch": 72, "duration": 1, "velocity": 92}, {"time": 391, "pitch": 67, "duration": 16, "velocity": 92}, {"time": 409, "pitch": 72, "duration": 13, "velocity": 98}, {"time": 439, "pitch": 67, "duration": 1, "velocity": 98}, {"time": 442, "pitch": 72, "duration": 2, "velocity": 99}, {"time": 445, "pitch": 79, "duration": 1, "velocity": 96}, {"time": 448, "pitch": 76, "duration": 1, "velocity": 94}, {"time": 451, "pitch": 74, "duration": 2, "velocity": 94}, {"time": 454, "pitch": 72, "duration": 1, "velocity": 92}, {"time": 457, "pitch": 79, "duration": 23, "velocity": 94}, {"time": 487, "pitch": 72, "duration": 1, "velocity": 99}, {"time": 490, "pitch": 72, "duration": 2, "velocity": 103}, {"time": 493, "pitch": 83, "duration": 1, "velocity": 96}, {"time": 496, "pitch": 83, "duration": 1, "velocity": 96}, {"time": 499, "pitch": 83, "duration": 1, "velocity": 95}, {"time": 502, "pitch": 83, "duration": 2, "velocity": 93}, {"time": 505, "pitch": 81, "duration": 20, "velocity": 96}, {"time": 535, "pitch": 79, "duration": 1, "velocity": 92}, {"time": 538, "pitch": 79, "duration": 1, "velocity": 94}, {"time": 541, "pitch": 79, "duration": 1, "velocity": 96}, {"time": 544, "pitch": 79, "duration": 1, "velocity": 94}, {"time": 547, "pitch": 79, "duration": 1, "velocity": 97}, {"time": 550, "pitch": 76, "duration": 1, "velocity": 93}, {"time": 553, "pitch": 74, "duration": 24, "velocity": 106}, {"time": 589, "pitch": 74, "duration": 4, "velocity": 109}, {"time": 595, "pitch": 76, "duration": 4, "velocity": 106}, {"time": 601, "pitch": 77, "duration": 11, "velocity": 96}, {"time": 613, "pitch": 76, "duration": 5, "velocity": 103}, {"time": 619, "pitch": 74, "duration": 5, "velocity": 109}, {"time": 625, "pitch": 77, "duration": 6, "velocity": 103}, {"time": 631, "pitch": 76, "duration": 2, "velocity": 99}, {"time": 634, "pitch": 74, "duration": 7, "velocity": 109}, {"time": 643, "pitch": 74, "duration": 1, "velocity": 106}, {"time": 646, "pitch": 77, "duration": 2, "velocity": 99}, {"time": 649, "pitch": 76, "duration": 6, "velocity": 99}, {"time": 655, "pitch": 74, "duration": 4, "velocity": 99}, {"time": 661, "pitch": 74, "duration": 4, "velocity": 99}, {"time": 667, "pitch": 72, "duration": 4, "velocity": 95}, {"time": 673, "pitch": 76, "duration": 4, "velocity": 99}, {"time": 679, "pitch": 74, "duration": 2, "velocity": 99}, {"time": 682, "pitch": 72, "duration": 6, "velocity": 94}, {"time": 688, "pitch": 72, "duration": 1, "velocity": 98}, {"time": 691, "pitch": 74, "duration": 1, "velocity": 99}, {"time": 694, "pitch": 76, "duration": 2, "velocity": 95}, {"time": 697, "pitch": 74, "duration": 5, "velocity": 103}, {"time": 703, "pitch": 72, "duration": 4, "velocity": 94}, {"time": 709, "pitch": 72, "duration": 5, "velocity": 93}, {"time": 715, "pitch": 71, "duration": 4, "velocity": 97}, {"time": 721, "pitch": 74, "duration": 4, "velocity": 101}, {"time": 727, "pitch": 72, "duration": 2, "velocity": 93}, {"time": 730, "pitch": 71, "duration": 4, "velocity": 95}, {"time": 736, "pitch": 74, "duration": 1, "velocity": 98}, {"time": 739, "pitch": 72, "duration": 2, "velocity": 93}, {"time": 742, "pitch": 74, "duration": 1, "velocity": 99}, {"time": 745, "pitch": 72, "duration": 5, "velocity": 106}, {"time": 751, "pitch": 71, "duration": 5, "velocity": 99}, {"time": 757, "pitch": 72, "duration": 4, "velocity": 99}, {"time": 763, "pitch": 74, "duration": 2, "velocity": 94}, {"time": 766, "pitch": 76, "duration": 17, "velocity": 97}, {"time": 787, "pitch": 74, "duration": 1, "velocity": 109}, {"time": 790, "pitch": 76, "duration": 2, "velocity": 103}, {"time": 793, "pitch": 77, "duration": 10, "velocity": 98}, {"time": 805, "pitch": 76, "duration": 4, "velocity": 113}, {"time": 811, "pitch": 74, "duration": 5, "velocity": 108}, {"time": 817, "pitch": 81, "duration": 4, "velocity": 99}, {"time": 823, "pitch": 77, "duration": 2, "velocity": 94}, {"time": 826, "pitch": 74, "duration": 6, "velocity": 109}, {"time": 832, "pitch": 81, "duration": 2, "velocity": 92}, {"time": 835, "pitch": 83, "duration": 1, "velocity": 90}, {"time": 838, "pitch": 84, "duration": 2, "velocity": 99}, {"time": 841, "pitch": 83, "duration": 5, "velocity": 106}, {"time": 847, "pitch": 81, "duration": 4, "velocity": 96}, {"time": 853, "pitch": 81, "duration": 4, "velocity": 94}, {"time": 859, "pitch": 76, "duration": 4, "velocity": 103}, {"time": 865, "pitch": 84, "duration": 5, "velocity": 103}, {"time": 871, "pitch": 83, "duration": 2, "velocity": 99}, {"time": 874, "pitch": 81, "duration": 4, "velocity": 96}, {"time": 880, "pitch": 81, "duration": 1, "velocity": 93}, {"time": 883, "pitch": 83, "duration": 1, "velocity": 96}, {"time": 886, "pitch": 84, "duration": 2, "velocity": 96}, {"time": 889, "pitch": 83, "duration": 13, "velocity": 99}, {"time": 907, "pitch": 81, "duration": 4, "velocity": 95}, {"time": 913, "pitch": 81, "duration": 8, "velocity": 98}, {"time": 922, "pitch": 80, "duration": 8, "velocity": 99}, {"time": 931, "pitch": 81, "duration": 4, "velocity": 95}, {"time": 937, "pitch": 83, "duration": 24, "velocity": 94}, {"time": 967, "pitch": 88, "duration": 4, "velocity": 97}, {"time": 973, "pitch": 76, "duration": 4, "velocity": 106}, {"time": 979, "pitch": 79, "duration": 5, "velocity": 99}, {"time": 985, "pitch": 86, "duration": 5, "velocity": 99}, {"time": 991, "pitch": 88, "duration": 3, "velocity": 94}, {"time": 997, "pitch": 88, "duration": 13, "velocity": 106}, {"time": 1015, "pitch": 88, "duration": 4, "velocity": 98}, {"time": 1021, "pitch": 76, "duration": 4, "velocity": 98}, {"time": 1027, "pitch": 79, "duration": 4, "velocity": 99}, {"time": 1033, "pitch": 86, "duration": 4, "velocity": 103}, {"time": 1039, "pitch": 88, "duration": 2, "velocity": 99}, {"time": 1045, "pitch": 88, "duration": 15, "velocity": 103}, {"time": 1063, "pitch": 88, "duration": 5, "velocity": 93}, {"time": 1069, "pitch": 91, "duration": 4, "velocity": 98}, {"time": 1075, "pitch": 88, "duration": 3, "velocity": 99}, {"time": 1081, "pitch": 88, "duration": 5, "velocity": 108}, {"time": 1087, "pitch": 89, "duration": 3, "velocity": 96}, {"time": 1093, "pitch": 89, "duration": 8, "velocity": 98}, {"time": 1102, "pitch": 81, "duration": 2, "velocity": 94}, {"time": 1105, "pitch": 88, "duration": 4, "velocity": 108}, {"time": 1111, "pitch": 89, "duration": 1, "velocity": 94}, {"time": 1114, "pitch": 89, "duration": 7, "velocity": 99}, {"time": 1123, "pitch": 81, "duration": 5, "velocity": 82}, {"time": 1129, "pitch": 79, "duration": 24, "velocity": 92}, {"time": 1159, "pitch": 88, "duration": 4, "velocity": 97}, {"time": 1165, "pitch": 76, "duration": 4, "velocity": 106}, {"time": 1171, "pitch": 79, "duration": 5, "velocity": 99}, {"time": 1177, "pitch": 86, "duration": 5, "velocity": 99}, {"time": 1183, "pitch": 88, "duration": 3, "velocity": 94}, {"time": 1189, "pitch": 88, "duration": 13, "velocity": 106}, {"time": 1207, "pitch": 88, "duration": 4, "velocity": 98}, {"time": 1213, "pitch": 86, "duration": 4, "velocity": 98}, {"time": 1219, "pitch": 84, "duration": 4, "velocity": 99}, {"time": 1225, "pitch": 83, "duration": 4, "velocity": 103}, {"time": 1231, "pitch": 91, "duration": 2, "velocity": 99}, {"time": 1237, "pitch": 91, "duration": 15, "velocity": 103}, {"time": 1255, "pitch": 91, "duration": 5, "velocity": 93}, {"time": 1261, "pitch": 89, "duration": 4, "velocity": 98}, {"time": 1267, "pitch": 88, "duration": 3, "velocity": 99}, {"time": 1273, "pitch": 91, "duration": 5, "velocity": 108}, {"time": 1279, "pitch": 89, "duration": 3, "velocity": 96}, {"time": 1282, "pitch": 89, "duration": 11, "velocity": 98}, {"time": 1294, "pitch": 88, "duration": 2, "velocity": 94}, {"time": 1297, "pitch": 91, "duration": 4, "velocity": 108}, {"time": 1303, "pitch": 89, "duration": 1, "velocity": 94}, {"time": 1306, "pitch": 89, "duration": 7, "velocity": 99}, {"time": 1315, "pitch": 81, "duration": 5, "velocity": 82}, {"time": 1321, "pitch": 88, "duration": 24, "velocity": 92}, {"time": 1351, "pitch": 86, "duration": 1, "velocity": 103}, {"time": 1354, "pitch": 88, "duration": 1, "velocity": 109}, {"time": 1357, "pitch": 91, "duration": 2, "velocity": 108}, {"time": 1360, "pitch": 88, "duration": 2, "velocity": 106}, {"time": 1363, "pitch": 86, "duration": 2, "velocity": 109}, {"time": 1366, "pitch": 84, "duration": 2, "velocity": 103}, {"time": 1369, "pitch": 84, "duration": 25, "velocity": 96}, {"time": 1561, "pitch": 72, "duration": 23, "velocity": 94}, {"time": 1591, "pitch": 67, "duration": 1, "velocity": 87}, {"time": 1594, "pitch": 67, "duration": 3, "velocity": 93}, {"time": 1597, "pitch": 79, "duration": 2, "velocity": 97}, {"time": 1600, "pitch": 76, "duration": 2, "velocity": 92}, {"time": 1603, "pitch": 74, "duration": 2, "velocity": 93}, {"time": 1606, "pitch": 72, "duration": 3, "velocity": 92}, {"time": 1609, "pitch": 71, "duration": 22, "velocity": 93}, {"time": 1639, "pitch": 72, "duration": 2, "velocity": 93}, {"time": 1642, "pitch": 79, "duration": 1, "velocity": 93}, {"time": 1645, "pitch": 79, "duration": 1, "velocity": 93}, {"time": 1648, "pitch": 79, "duration": 1, "velocity": 93}, {"time": 1651, "pitch": 79, "duration": 1, "velocity": 98}, {"time": 1654, "pitch": 72, "duration": 2, "velocity": 93}, {"time": 1657, "pitch": 69, "duration": 22, "velocity": 93}, {"time": 1687, "pitch": 69, "duration": 2, "velocity": 96}, {"time": 1690, "pitch": 72, "duration": 1, "velocity": 96}, {"time": 1693, "pitch": 72, "duration": 1, "velocity": 94}, {"time": 1696, "pitch": 72, "duration": 1, "velocity": 88}, {"time": 1699, "pitch": 72, "duration": 2, "velocity": 91}, {"time": 1702, "pitch": 69, "duration": 2, "velocity": 96}, {"time": 1705, "pitch": 76, "duration": 18, "velocity": 93}, {"time": 1723, "pitch": 74, "duration": 1, "velocity": 103}, {"time": 1726, "pitch": 76, "duration": 2, "velocity": 98}, {"time": 1729, "pitch": 74, "duration": 1, "velocity": 101}, {"time": 1732, "pitch": 72, "duration": 1, "velocity": 92}, {"time": 1735, "pitch": 67, "duration": 16, "velocity": 92}, {"time": 1753, "pitch": 72, "duration": 13, "velocity": 98}, {"time": 1783, "pitch": 67, "duration": 1, "velocity": 98}, {"time": 1786, "pitch": 72, "duration": 2, "velocity": 99}, {"time": 1789, "pitch": 79, "duration": 1, "velocity": 96}, {"time": 1792, "pitch": 76, "duration": 1, "velocity": 94}, {"time": 1795, "pitch": 74, "duration": 2, "velocity": 94}, {"time": 1798, "pitch": 72, "duration": 1, "velocity": 92}, {"time": 1801, "pitch": 79, "duration": 23, "velocity": 94}, {"time": 1831, "pitch": 72, "duration": 1, "velocity": 99}, {"time": 1834, "pitch": 72, "duration": 2, "velocity": 103}, {"time": 1837, "pitch": 83, "duration": 1, "velocity": 96}, {"time": 1840, "pitch": 83, "duration": 1, "velocity": 96}, {"time": 1843, "pitch": 83, "duration": 1, "velocity": 95}, {"time": 1846, "pitch": 83, "duration": 2, "velocity": 93}, {"time": 1849, "pitch": 81, "duration": 20, "velocity": 96}, {"time": 1879, "pitch": 79, "duration": 1, "velocity": 92}, {"time": 1882, "pitch": 79, "duration": 1, "velocity": 94}, {"time": 1885, "pitch": 79, "duration": 1, "velocity": 96}, {"time": 1888, "pitch": 79, "duration": 1, "velocity": 94}, {"time": 1891, "pitch": 79, "duration": 1, "velocity": 97}, {"time": 1894, "pitch": 76, "duration": 1, "velocity": 93}, {"time": 1897, "pitch": 74, "duration": 24, "velocity": 106}, {"time": 1933, "pitch": 74, "duration": 4, "velocity": 109}, {"time": 1939, "pitch": 76, "duration": 4, "velocity": 106}, {"time": 1945, "pitch": 77, "duration": 11, "velocity": 96}, {"time": 1957, "pitch": 76, "duration": 5, "velocity": 103}, {"time": 1963, "pitch": 74, "duration": 5, "velocity": 109}, {"time": 1969, "pitch": 77, "duration": 6, "velocity": 103}, {"time": 1975, "pitch": 76, "duration": 2, "velocity": 99}, {"time": 1978, "pitch": 74, "duration": 7, "velocity": 109}, {"time": 1987, "pitch": 74, "duration": 1, "velocity": 106}, {"time": 1990, "pitch": 77, "duration": 2, "velocity": 99}, {"time": 1993, "pitch": 76, "duration": 6, "velocity": 99}, {"time": 1999, "pitch": 74, "duration": 4, "velocity": 99}, {"time": 2005, "pitch": 74, "duration": 4, "velocity": 99}, {"time": 2011, "pitch": 72, "duration": 4, "velocity": 95}, {"time": 2017, "pitch": 76, "duration": 4, "velocity": 99}, {"time": 2023, "pitch": 74, "duration": 2, "velocity": 99}, {"time": 2026, "pitch": 72, "duration": 6, "velocity": 94}, {"time": 2032, "pitch": 72, "duration": 1, "velocity": 98}, {"time": 2035, "pitch": 74, "duration": 1, "velocity": 99}, {"time": 2038, "pitch": 76, "duration": 2, "velocity": 95}, {"time": 2041, "pitch": 74, "duration": 5, "velocity": 103}, {"time": 2047, "pitch": 72, "duration": 4, "velocity": 94}, {"time": 2053, "pitch": 72, "duration": 5, "velocity": 93}, {"time": 2059, "pitch": 71, "duration": 4, "velocity": 97}, {"time": 2065, "pitch": 74, "duration": 4, "velocity": 101}, {"time": 2071, "pitch": 72, "duration": 2, "velocity": 93}, {"time": 2074, "pitch": 71, "duration": 4, "velocity": 95}, {"time": 2080, "pitch": 74, "duration": 1, "velocity": 98}, {"time": 2083, "pitch": 72, "duration": 2, "velocity": 93}, {"time": 2086, "pitch": 74, "duration": 1, "velocity": 99}, {"time": 2089, "pitch": 72, "duration": 5, "velocity": 106}, {"time": 2095, "pitch": 71, "duration": 5, "velocity": 99}, {"time": 2101, "pitch": 72, "duration": 4, "velocity": 99}, {"time": 2107, "pitch": 74, "duration": 2, "velocity": 94}, {"time": 2110, "pitch": 76, "duration": 17, "velocity": 97}, {"time": 2131, "pitch": 74, "duration": 1, "velocity": 109}, {"time": 2134, "pitch": 76, "duration": 2, "velocity": 103}, {"time": 2137, "pitch": 77, "duration": 10, "velocity": 98}, {"time": 2149, "pitch": 76, "duration": 4, "velocity": 113}, {"time": 2155, "pitch": 74, "duration": 5, "velocity": 108}, {"time": 2161, "pitch": 81, "duration": 4, "velocity": 99}, {"time": 2167, "pitch": 77, "duration": 2, "velocity": 94}, {"time": 2170, "pitch": 74, "duration": 6, "velocity": 109}, {"time": 2176, "pitch": 81, "duration": 2, "velocity": 92}, {"time": 2179, "pitch": 83, "duration": 1, "velocity": 90}, {"time": 2182, "pitch": 84, "duration": 2, "velocity": 99}, {"time": 2185, "pitch": 83, "duration": 5, "velocity": 106}, {"time": 2191, "pitch": 81, "duration": 4, "velocity": 96}, {"time": 2197, "pitch": 81, "duration": 4, "velocity": 94}, {"time": 2203, "pitch": 76, "duration": 4, "velocity": 103}, {"time": 2209, "pitch": 84, "duration": 5, "velocity": 103}, {"time": 2215, "pitch": 83, "duration": 2, "velocity": 99}, {"time": 2218, "pitch": 81, "duration": 4, "velocity": 96}, {"time": 2224, "pitch": 81, "duration": 1, "velocity": 93}, {"time": 2227, "pitch": 83, "duration": 1, "velocity": 96}, {"time": 2230, "pitch": 84, "duration": 2, "velocity": 96}, {"time": 2233, "pitch": 83, "duration": 13, "velocity": 99}, {"time": 2251, "pitch": 81, "duration": 4, "velocity": 95}, {"time": 2257, "pitch": 81, "duration": 8, "velocity": 98}, {"time": 2266, "pitch": 80, "duration": 8, "velocity": 99}, {"time": 2275, "pitch": 81, "duration": 4, "velocity": 95}, {"time": 2281, "pitch": 83, "duration": 24, "velocity": 94}, {"time": 2311, "pitch": 88, "duration": 4, "velocity": 97}, {"time": 2317, "pitch": 76, "duration": 4, "velocity": 106}, {"time": 2323, "pitch": 79, "duration": 5, "velocity": 99}, {"time": 2329, "pitch": 86, "duration": 5, "velocity": 99}, {"time": 2335, "pitch": 88, "duration": 3, "velocity": 94}, {"time": 2341, "pitch": 88, "duration": 13, "velocity": 106}, {"time": 2359, "pitch": 88, "duration": 4, "velocity": 98}, {"time": 2365, "pitch": 76, "duration": 4, "velocity": 98}, {"time": 2371, "pitch": 79, "duration": 4, "velocity": 99}, {"time": 2377, "pitch": 86, "duration": 4, "velocity": 103}, {"time": 2383, "pitch": 88, "duration": 2, "velocity": 99}, {"time": 2389, "pitch": 88, "duration": 15, "velocity": 103}, {"time": 2407, "pitch": 88, "duration": 5, "velocity": 93}, {"time": 2413, "pitch": 91, "duration": 4, "velocity": 98}, {"time": 2419, "pitch": 88, "duration": 3, "velocity": 99}, {"time": 2425, "pitch": 88, "duration": 5, "velocity": 108}, {"time": 2431, "pitch": 89, "duration": 3, "velocity": 96}, {"time": 2437, "pitch": 89, "duration": 8, "velocity": 98}, {"time": 2446, "pitch": 81, "duration": 2, "velocity": 94}, {"time": 2449, "pitch": 88, "duration": 4, "velocity": 108}, {"time": 2455, "pitch": 89, "duration": 1, "velocity": 94}, {"time": 2458, "pitch": 89, "duration": 7, "velocity": 99}, {"time": 2467, "pitch": 81, "duration": 5, "velocity": 82}, {"time": 2473, "pitch": 79, "duration": 24, "velocity": 92}, {"time": 2503, "pitch": 88, "duration": 4, "velocity": 97}, {"time": 2509, "pitch": 76, "duration": 4, "velocity": 106}, {"time": 2515, "pitch": 79, "duration": 5, "velocity": 99}, {"time": 2521, "pitch": 86, "duration": 5, "velocity": 99}, {"time": 2527, "pitch": 88, "duration": 3, "velocity": 94}, {"time": 2533, "pitch": 88, "duration": 13, "velocity": 106}, {"time": 2551, "pitch": 88, "duration": 4, "velocity": 98}, {"time": 2557, "pitch": 86, "duration": 4, "velocity": 98}, {"time": 2563, "pitch": 84, "duration": 4, "velocity": 99}, {"time": 2569, "pitch": 83, "duration": 4, "velocity": 103}, {"time": 2575, "pitch": 91, "duration": 2, "velocity": 99}, {"time": 2581, "pitch": 91, "duration": 15, "velocity": 103}, {"time": 2599, "pitch": 91, "duration": 5, "velocity": 93}, {"time": 2605, "pitch": 89, "duration": 4, "velocity": 98}, {"time": 2611, "pitch": 88, "duration": 3, "velocity": 99}, {"time": 2617, "pitch": 91, "duration": 5, "velocity": 108}, {"time": 2623, "pitch": 89, "duration": 3, "velocity": 96}, {"time": 2626, "pitch": 89, "duration": 11, "velocity": 98}, {"time": 2638, "pitch": 88, "duration": 2, "velocity": 94}, {"time": 2641, "pitch": 91, "duration": 4, "velocity": 108}, {"time": 2647, "pitch": 89, "duration": 1, "velocity": 94}, {"time": 2650, "pitch": 89, "duration": 7, "velocity": 99}, {"time": 2659, "pitch": 81, "duration": 5, "velocity": 82}, {"time": 2665, "pitch": 88, "duration": 24, "velocity": 92}, {"time": 2695, "pitch": 86, "duration": 1, "velocity": 103}, {"time": 2698, "pitch": 88, "duration": 1, "velocity": 109}, {"time": 2701, "pitch": 91, "duration": 2, "velocity": 108}, {"time": 2704, "pitch": 88, "duration": 2, "velocity": 106}, {"time": 2707, "pitch": 86, "duration": 2, "velocity": 109}, {"time": 2710, "pitch": 84, "duration": 2, "velocity": 103}, {"time": 2713, "pitch": 84, "duration": 25, "velocity": 96}]}, {"program": 0, "is_drum": false, "name": "BRIDGE", "notes": [{"time": 25, "pitch": 72, "duration": 2, "velocity": 101}, {"time": 28, "pitch": 71, "duration": 3, "velocity": 96}, {"time": 31, "pitch": 72, "duration": 5, "velocity": 96}, {"time": 37, "pitch": 72, "duration": 12, "velocity": 96}, {"time": 49, "pitch": 60, "duration": 12, "velocity": 95}, {"time": 61, "pitch": 48, "duration": 12, "velocity": 94}, {"time": 73, "pitch": 71, "duration": 3, "velocity": 103}, {"time": 76, "pitch": 64, "duration": 3, "velocity": 95}, {"time": 79, "pitch": 71, "duration": 12, "velocity": 93}, {"time": 85, "pitch": 64, "duration": 11, "velocity": 93}, {"time": 97, "pitch": 57, "duration": 15, "velocity": 92}, {"time": 118, "pitch": 57, "duration": 3, "velocity": 83}, {"time": 121, "pitch": 69, "duration": 3, "velocity": 98}, {"time": 124, "pitch": 67, "duration": 3, "velocity": 78}, {"time": 127, "pitch": 69, "duration": 18, "velocity": 92}, {"time": 151, "pitch": 57, "duration": 3, "velocity": 93}, {"time": 154, "pitch": 60, "duration": 6, "velocity": 91}, {"time": 160, "pitch": 57, "duration": 6, "velocity": 94}, {"time": 166, "pitch": 55, "duration": 20, "velocity": 93}, {"time": 169, "pitch": 72, "duration": 3, "velocity": 92}, {"time": 172, "pitch": 71, "duration": 3, "velocity": 87}, {"time": 175, "pitch": 72, "duration": 17, "velocity": 86}, {"time": 205, "pitch": 67, "duration": 3, "velocity": 95}, {"time": 208, "pitch": 64, "duration": 3, "velocity": 92}, {"time": 211, "pitch": 62, "duration": 6, "velocity": 92}, {"time": 217, "pitch": 60, "duration": 17, "velocity": 87}, {"time": 229, "pitch": 72, "duration": 11, "velocity": 92}, {"time": 241, "pitch": 60, "duration": 10, "velocity": 93}, {"time": 277, "pitch": 64, "duration": 13, "velocity": 88}, {"time": 289, "pitch": 57, "duration": 13, "velocity": 89}, {"time": 301, "pitch": 64, "duration": 11, "velocity": 92}, {"time": 313, "pitch": 57, "duration": 10, "velocity": 92}, {"time": 325, "pitch": 60, "duration": 12, "velocity": 93}, {"time": 337, "pitch": 53, "duration": 23, "velocity": 81}, {"time": 373, "pitch": 64, "duration": 12, "velocity": 92}, {"time": 385, "pitch": 62, "duration": 6, "velocity": 86}, {"time": 391, "pitch": 55, "duration": 7, "velocity": 93}, {"time": 397, "pitch": 62, "duration": 6, "velocity": 94}, {"time": 403, "pitch": 55, "duration": 6, "velocity": 101}, {"time": 409, "pitch": 64, "duration": 6, "velocity": 97}, {"time": 415, "pitch": 55, "duration": 7, "velocity": 93}, {"time": 421, "pitch": 64, "duration": 10, "velocity": 93}, {"time": 433, "pitch": 67, "duration": 16, "velocity": 93}, {"time": 445, "pitch": 64, "duration": 11, "velocity": 93}, {"time": 457, "pitch": 67, "duration": 6, "velocity": 88}, {"time": 463, "pitch": 59, "duration": 6, "velocity": 90}, {"time": 469, "pitch": 67, "duration": 10, "velocity": 92}, {"time": 481, "pitch": 64, "duration": 12, "velocity": 91}, {"time": 493, "pitch": 59, "duration": 11, "velocity": 87}, {"time": 505, "pitch": 57, "duration": 7, "velocity": 80}, {"time": 511, "pitch": 60, "duration": 7, "velocity": 92}, {"time": 517, "pitch": 65, "duration": 13, "velocity": 81}, {"time": 529, "pitch": 69, "duration": 20, "velocity": 87}, {"time": 559, "pitch": 67, "duration": 4, "velocity": 91}, {"time": 562, "pitch": 72, "duration": 3, "velocity": 92}, {"time": 565, "pitch": 74, "duration": 3, "velocity": 93}, {"time": 568, "pitch": 79, "duration": 7, "velocity": 97}, {"time": 577, "pitch": 79, "duration": 23, "velocity": 94}, {"time": 601, "pitch": 74, "duration": 25, "velocity": 89}, {"time": 601, "pitch": 77, "duration": 26, "velocity": 79}, {"time": 643, "pitch": 77, "duration": 5, "velocity": 87}, {"time": 649, "pitch": 76, "duration": 40, "velocity": 88}, {"time": 691, "pitch": 71, "duration": 3, "velocity": 91}, {"time": 694, "pitch": 69, "duration": 3, "velocity": 79}, {"time": 697, "pitch": 71, "duration": 20, "velocity": 86}, {"time": 769, "pitch": 81, "duration": 3, "velocity": 95}, {"time": 772, "pitch": 76, "duration": 3, "velocity": 90}, {"time": 775, "pitch": 81, "duration": 3, "velocity": 85}, {"time": 781, "pitch": 81, "duration": 3, "velocity": 98}, {"time": 784, "pitch": 79, "duration": 3, "velocity": 94}, {"time": 787, "pitch": 77, "duration": 3, "velocity": 93}, {"time": 790, "pitch": 76, "duration": 3, "velocity": 95}, {"time": 793, "pitch": 77, "duration": 23, "velocity": 93}, {"time": 841, "pitch": 72, "duration": 24, "velocity": 84}, {"time": 841, "pitch": 76, "duration": 24, "velocity": 92}, {"time": 865, "pitch": 81, "duration": 22, "velocity": 89}, {"time": 985, "pitch": 72, "duration": 25, "velocity": 86}, {"time": 985, "pitch": 79, "duration": 24, "velocity": 86}, {"time": 1009, "pitch": 76, "duration": 12, "velocity": 87}, {"time": 1021, "pitch": 72, "duration": 11, "velocity": 92}, {"time": 1033, "pitch": 71, "duration": 25, "velocity": 87}, {"time": 1057, "pitch": 79, "duration": 12, "velocity": 93}, {"time": 1069, "pitch": 74, "duration": 11, "velocity": 93}, {"time": 1081, "pitch": 72, "duration": 22, "velocity": 84}, {"time": 1105, "pitch": 69, "duration": 22, "velocity": 84}, {"time": 1105, "pitch": 72, "duration": 22, "velocity": 87}, {"time": 1129, "pitch": 67, "duration": 20, "velocity": 86}, {"time": 1129, "pitch": 71, "duration": 22, "velocity": 92}, {"time": 1147, "pitch": 74, "duration": 6, "velocity": 93}, {"time": 1153, "pitch": 79, "duration": 19, "velocity": 93}, {"time": 1177, "pitch": 76, "duration": 19, "velocity": 93}, {"time": 1195, "pitch": 67, "duration": 27, "velocity": 93}, {"time": 1201, "pitch": 76, "duration": 22, "velocity": 87}, {"time": 1243, "pitch": 79, "duration": 6, "velocity": 93}, {"time": 1249, "pitch": 76, "duration": 12, "velocity": 88}, {"time": 1261, "pitch": 67, "duration": 8, "velocity": 81}, {"time": 1261, "pitch": 71, "duration": 10, "velocity": 90}, {"time": 1273, "pitch": 69, "duration": 22, "velocity": 85}, {"time": 1309, "pitch": 72, "duration": 12, "velocity": 88}, {"time": 1321, "pitch": 67, "duration": 23, "velocity": 82}, {"time": 1339, "pitch": 74, "duration": 28, "velocity": 77}, {"time": 1345, "pitch": 79, "duration": 22, "velocity": 84}, {"time": 1375, "pitch": 67, "duration": 5, "velocity": 94}, {"time": 1381, "pitch": 67, "duration": 14, "velocity": 93}, {"time": 1381, "pitch": 74, "duration": 14, "velocity": 94}, {"time": 1399, "pitch": 62, "duration": 4, "velocity": 99}, {"time": 1402, "pitch": 64, "duration": 3, "velocity": 101}, {"time": 1405, "pitch": 67, "duration": 3, "velocity": 99}, {"time": 1408, "pitch": 64, "duration": 3, "velocity": 98}, {"time": 1411, "pitch": 62, "duration": 3, "velocity": 97}, {"time": 1414, "pitch": 60, "duration": 2, "velocity": 97}, {"time": 1417, "pitch": 59, "duration": 13, "velocity": 92}, {"time": 1429, "pitch": 67, "duration": 13, "velocity": 92}, {"time": 1429, "pitch": 71, "duration": 13, "velocity": 94}, {"time": 1447, "pitch": 59, "duration": 3, "velocity": 99}, {"time": 1450, "pitch": 64, "duration": 5, "velocity": 101}, {"time": 1456, "pitch": 59, "duration": 6, "velocity": 103}, {"time": 1462, "pitch": 57, "duration": 15, "velocity": 106}, {"time": 1477, "pitch": 69, "duration": 13, "velocity": 88}, {"time": 1477, "pitch": 72, "duration": 13, "velocity": 93}, {"time": 1495, "pitch": 57, "duration": 3, "velocity": 93}, {"time": 1498, "pitch": 60, "duration": 5, "velocity": 97}, {"time": 1504, "pitch": 57, "duration": 6, "velocity": 96}, {"time": 1510, "pitch": 55, "duration": 24, "velocity": 99}, {"time": 1525, "pitch": 67, "duration": 13, "velocity": 87}, {"time": 1525, "pitch": 74, "duration": 13, "velocity": 93}, {"time": 1543, "pitch": 62, "duration": 3, "velocity": 95}, {"time": 1546, "pitch": 67, "duration": 5, "velocity": 92}, {"time": 1552, "pitch": 64, "duration": 6, "velocity": 94}, {"time": 1558, "pitch": 62, "duration": 3, "velocity": 93}, {"time": 1561, "pitch": 60, "duration": 12, "velocity": 94}, {"time": 1573, "pitch": 64, "duration": 6, "velocity": 96}, {"time": 1579, "pitch": 67, "duration": 6, "velocity": 94}, {"time": 1585, "pitch": 74, "duration": 23, "velocity": 89}, {"time": 1609, "pitch": 71, "duration": 24, "velocity": 92}, {"time": 1633, "pitch": 69, "duration": 24, "velocity": 92}, {"time": 1669, "pitch": 69, "duration": 36, "velocity": 94}, {"time": 1723, "pitch": 69, "duration": 6, "velocity": 92}, {"time": 1729, "pitch": 67, "duration": 11, "velocity": 94}, {"time": 1741, "pitch": 62, "duration": 11, "velocity": 92}, {"time": 1753, "pitch": 64, "duration": 13, "velocity": 94}, {"time": 1765, "pitch": 76, "duration": 6, "velocity": 90}, {"time": 1771, "pitch": 74, "duration": 6, "velocity": 95}, {"time": 1777, "pitch": 76, "duration": 24, "velocity": 93}, {"time": 1813, "pitch": 67, "duration": 10, "velocity": 92}, {"time": 1825, "pitch": 64, "duration": 12, "velocity": 91}, {"time": 1837, "pitch": 59, "duration": 11, "velocity": 87}, {"time": 1849, "pitch": 57, "duration": 7, "velocity": 80}, {"time": 1855, "pitch": 60, "duration": 7, "velocity": 92}, {"time": 1861, "pitch": 65, "duration": 13, "velocity": 81}, {"time": 1873, "pitch": 69, "duration": 20, "velocity": 87}, {"time": 1903, "pitch": 72, "duration": 5, "velocity": 96}, {"time": 1909, "pitch": 72, "duration": 6, "velocity": 96}, {"time": 1915, "pitch": 74, "duration": 6, "velocity": 95}, {"time": 1921, "pitch": 67, "duration": 22, "velocity": 86}, {"time": 1921, "pitch": 71, "duration": 22, "velocity": 92}, {"time": 1945, "pitch": 74, "duration": 25, "velocity": 89}, {"time": 1945, "pitch": 77, "duration": 26, "velocity": 79}, {"time": 1987, "pitch": 77, "duration": 5, "velocity": 87}, {"time": 1993, "pitch": 76, "duration": 40, "velocity": 88}, {"time": 2035, "pitch": 71, "duration": 3, "velocity": 91}, {"time": 2038, "pitch": 69, "duration": 3, "velocity": 79}, {"time": 2041, "pitch": 71, "duration": 20, "velocity": 86}, {"time": 2113, "pitch": 81, "duration": 3, "velocity": 95}, {"time": 2116, "pitch": 76, "duration": 3, "velocity": 90}, {"time": 2119, "pitch": 81, "duration": 3, "velocity": 85}, {"time": 2125, "pitch": 81, "duration": 3, "velocity": 98}, {"time": 2128, "pitch": 79, "duration": 3, "velocity": 94}, {"time": 2131, "pitch": 77, "duration": 3, "velocity": 93}, {"time": 2134, "pitch": 76, "duration": 3, "velocity": 95}, {"time": 2137, "pitch": 77, "duration": 23, "velocity": 93}, {"time": 2185, "pitch": 72, "duration": 24, "velocity": 84}, {"time": 2185, "pitch": 76, "duration": 24, "velocity": 92}, {"time": 2209, "pitch": 81, "duration": 18, "velocity": 89}, {"time": 2227, "pitch": 81, "duration": 6, "velocity": 94}, {"time": 2233, "pitch": 83, "duration": 12, "velocity": 97}, {"time": 2245, "pitch": 81, "duration": 6, "velocity": 98}, {"time": 2251, "pitch": 84, "duration": 4, "velocity": 98}, {"time": 2257, "pitch": 84, "duration": 8, "velocity": 101}, {"time": 2266, "pitch": 83, "duration": 8, "velocity": 96}, {"time": 2275, "pitch": 81, "duration": 5, "velocity": 94}, {"time": 2281, "pitch": 83, "duration": 19, "velocity": 97}, {"time": 2299, "pitch": 81, "duration": 5, "velocity": 94}, {"time": 2305, "pitch": 79, "duration": 22, "velocity": 99}, {"time": 2329, "pitch": 79, "duration": 16, "velocity": 89}, {"time": 2329, "pitch": 84, "duration": 18, "velocity": 94}, {"time": 2347, "pitch": 79, "duration": 17, "velocity": 85}, {"time": 2353, "pitch": 86, "duration": 12, "velocity": 93}, {"time": 2365, "pitch": 84, "duration": 12, "velocity": 93}, {"time": 2377, "pitch": 83, "duration": 18, "velocity": 86}, {"time": 2395, "pitch": 79, "duration": 7, "velocity": 87}, {"time": 2401, "pitch": 83, "duration": 6, "velocity": 93}, {"time": 2407, "pitch": 84, "duration": 6, "velocity": 92}, {"time": 2413, "pitch": 83, "duration": 11, "velocity": 86}, {"time": 2425, "pitch": 81, "duration": 18, "velocity": 95}, {"time": 2443, "pitch": 79, "duration": 6, "velocity": 85}, {"time": 2449, "pitch": 77, "duration": 21, "velocity": 81}, {"time": 2449, "pitch": 81, "duration": 22, "velocity": 84}, {"time": 2473, "pitch": 79, "duration": 19, "velocity": 93}, {"time": 2491, "pitch": 84, "duration": 5, "velocity": 94}, {"time": 2497, "pitch": 88, "duration": 12, "velocity": 98}, {"time": 2509, "pitch": 86, "duration": 12, "velocity": 96}, {"time": 2521, "pitch": 84, "duration": 27, "velocity": 93}, {"time": 2545, "pitch": 86, "duration": 6, "velocity": 93}, {"time": 2551, "pitch": 84, "duration": 6, "velocity": 86}, {"time": 2557, "pitch": 86, "duration": 6, "velocity": 93}, {"time": 2563, "pitch": 84, "duration": 6, "velocity": 93}, {"time": 2569, "pitch": 91, "duration": 24, "velocity": 98}, {"time": 2593, "pitch": 83, "duration": 23, "velocity": 93}, {"time": 2617, "pitch": 84, "duration": 18, "velocity": 95}, {"time": 2635, "pitch": 81, "duration": 6, "velocity": 93}, {"time": 2641, "pitch": 84, "duration": 12, "velocity": 94}, {"time": 2653, "pitch": 89, "duration": 5, "velocity": 101}, {"time": 2659, "pitch": 88, "duration": 7, "velocity": 96}, {"time": 2665, "pitch": 86, "duration": 47, "velocity": 92}, {"time": 2719, "pitch": 67, "duration": 5, "velocity": 94}, {"time": 2725, "pitch": 67, "duration": 14, "velocity": 93}, {"time": 2725, "pitch": 74, "duration": 14, "velocity": 94}, {"time": 2743, "pitch": 62, "duration": 4, "velocity": 99}, {"time": 2746, "pitch": 64, "duration": 3, "velocity": 101}, {"time": 2749, "pitch": 67, "duration": 3, "velocity": 99}, {"time": 2752, "pitch": 64, "duration": 3, "velocity": 98}, {"time": 2755, "pitch": 62, "duration": 3, "velocity": 97}, {"time": 2758, "pitch": 60, "duration": 2, "velocity": 97}, {"time": 2761, "pitch": 59, "duration": 13, "velocity": 92}, {"time": 2773, "pitch": 67, "duration": 13, "velocity": 92}, {"time": 2773, "pitch": 71, "duration": 13, "velocity": 94}, {"time": 2791, "pitch": 59, "duration": 3, "velocity": 99}, {"time": 2794, "pitch": 64, "duration": 5, "velocity": 101}, {"time": 2800, "pitch": 59, "duration": 6, "velocity": 103}, {"time": 2806, "pitch": 57, "duration": 15, "velocity": 106}, {"time": 2821, "pitch": 69, "duration": 13, "velocity": 88}, {"time": 2821, "pitch": 72, "duration": 13, "velocity": 93}, {"time": 2845, "pitch": 64, "duration": 11, "velocity": 98}, {"time": 2856, "pitch": 60, "duration": 11, "velocity": 93}, {"time": 2869, "pitch": 60, "duration": 41, "velocity": 94}]}, {"program": 0, "is_drum": false, "name": "PIANO", "notes": [{"time": 25, "pitch": 48, "duration": 43, "velocity": 98}, {"time": 31, "pitch": 55, "duration": 7, "velocity": 92}, {"time": 37, "pitch": 64, "duration": 6, "velocity": 91}, {"time": 55, "pitch": 55, "duration": 7, "velocity": 74}, {"time": 61, "pitch": 60, "duration": 2, "velocity": 85}, {"time": 61, "pitch": 64, "duration": 6, "velocity": 93}, {"time": 67, "pitch": 59, "duration": 5, "velocity": 80}, {"time": 73, "pitch": 45, "duration": 39, "velocity": 92}, {"time": 73, "pitch": 60, "duration": 9, "velocity": 89}, {"time": 79, "pitch": 52, "duration": 19, "velocity": 81}, {"time": 85, "pitch": 64, "duration": 3, "velocity": 91}, {"time": 97, "pitch": 57, "duration": 8, "velocity": 69}, {"time": 97, "pitch": 60, "duration": 7, "velocity": 80}, {"time": 109, "pitch": 64, "duration": 6, "velocity": 98}, {"time": 115, "pitch": 57, "duration": 1, "velocity": 84}, {"time": 121, "pitch": 41, "duration": 41, "velocity": 93}, {"time": 121, "pitch": 53, "duration": 11, "velocity": 85}, {"time": 121, "pitch": 60, "duration": 10, "velocity": 88}, {"time": 127, "pitch": 48, "duration": 8, "velocity": 78}, {"time": 133, "pitch": 57, "duration": 5, "velocity": 86}, {"time": 145, "pitch": 57, "duration": 1, "velocity": 37}, {"time": 145, "pitch": 65, "duration": 4, "velocity": 92}, {"time": 151, "pitch": 48, "duration": 11, "velocity": 66}, {"time": 157, "pitch": 53, "duration": 6, "velocity": 93}, {"time": 157, "pitch": 60, "duration": 7, "velocity": 89}, {"time": 169, "pitch": 48, "duration": 37, "velocity": 91}, {"time": 169, "pitch": 55, "duration": 4, "velocity": 87}, {"time": 169, "pitch": 60, "duration": 13, "velocity": 84}, {"time": 175, "pitch": 55, "duration": 7, "velocity": 87}, {"time": 181, "pitch": 64, "duration": 8, "velocity": 93}, {"time": 193, "pitch": 60, "duration": 6, "velocity": 75}, {"time": 199, "pitch": 55, "duration": 4, "velocity": 74}, {"time": 205, "pitch": 60, "duration": 5, "velocity": 87}, {"time": 205, "pitch": 64, "duration": 5, "velocity": 92}, {"time": 217, "pitch": 48, "duration": 44, "velocity": 92}, {"time": 217, "pitch": 55, "duration": 4, "velocity": 86}, {"time": 217, "pitch": 60, "duration": 17, "velocity": 87}, {"time": 223, "pitch": 55, "duration": 6, "velocity": 74}, {"time": 229, "pitch": 64, "duration": 8, "velocity": 92}, {"time": 241, "pitch": 60, "duration": 7, "velocity": 81}, {"time": 247, "pitch": 55, "duration": 8, "velocity": 80}, {"time": 253, "pitch": 60, "duration": 4, "velocity": 93}, {"time": 253, "pitch": 64, "duration": 12, "velocity": 94}, {"time": 265, "pitch": 45, "duration": 38, "velocity": 83}, {"time": 265, "pitch": 57, "duration": 8, "velocity": 79}, {"time": 265, "pitch": 60, "duration": 21, "velocity": 84}, {"time": 271, "pitch": 52, "duration": 32, "velocity": 87}, {"time": 283, "pitch": 57, "duration": 9, "velocity": 83}, {"time": 289, "pitch": 64, "duration": 4, "velocity": 92}, {"time": 301, "pitch": 57, "duration": 3, "velocity": 88}, {"time": 301, "pitch": 60, "duration": 5, "velocity": 88}, {"time": 313, "pitch": 41, "duration": 42, "velocity": 92}, {"time": 313, "pitch": 60, "duration": 12, "velocity": 86}, {"time": 319, "pitch": 48, "duration": 9, "velocity": 81}, {"time": 325, "pitch": 53, "duration": 13, "velocity": 90}, {"time": 331, "pitch": 48, "duration": 24, "velocity": 71}, {"time": 337, "pitch": 60, "duration": 1, "velocity": 68}, {"time": 337, "pitch": 65, "duration": 19, "velocity": 89}, {"time": 343, "pitch": 53, "duration": 4, "velocity": 80}, {"time": 349, "pitch": 60, "duration": 7, "velocity": 90}, {"time": 361, "pitch": 45, "duration": 19, "velocity": 92}, {"time": 361, "pitch": 60, "duration": 12, "velocity": 90}, {"time": 367, "pitch": 52, "duration": 17, "velocity": 85}, {"time": 373, "pitch": 57, "duration": 5, "velocity": 94}, {"time": 385, "pitch": 43, "duration": 16, "velocity": 91}, {"time": 385, "pitch": 55, "duration": 12, "velocity": 87}, {"time": 385, "pitch": 59, "duration": 12, "velocity": 88}, {"time": 391, "pitch": 50, "duration": 10, "velocity": 84}, {"time": 397, "pitch": 62, "duration": 6, "velocity": 92}, {"time": 403, "pitch": 55, "duration": 10, "velocity": 94}, {"time": 409, "pitch": 36, "duration": 4, "velocity": 88}, {"time": 409, "pitch": 60, "duration": 15, "velocity": 86}, {"time": 415, "pitch": 55, "duration": 6, "velocity": 78}, {"time": 421, "pitch": 64, "duration": 18, "velocity": 92}, {"time": 427, "pitch": 55, "duration": 6, "velocity": 75}, {"time": 433, "pitch": 60, "duration": 5, "velocity": 83}, {"time": 439, "pitch": 48, "duration": 10, "velocity": 67}, {"time": 445, "pitch": 60, "duration": 6, "velocity": 95}, {"time": 445, "pitch": 64, "duration": 6, "velocity": 97}, {"time": 451, "pitch": 55, "duration": 1, "velocity": 79}, {"time": 457, "pitch": 52, "duration": 18, "velocity": 93}, {"time": 457, "pitch": 59, "duration": 13, "velocity": 89}, {"time": 457, "pitch": 64, "duration": 8, "velocity": 91}, {"time": 469, "pitch": 67, "duration": 6, "velocity": 92}, {"time": 475, "pitch": 59, "duration": 7, "velocity": 81}, {"time": 481, "pitch": 64, "duration": 5, "velocity": 95}, {"time": 493, "pitch": 59, "duration": 3, "velocity": 94}, {"time": 493, "pitch": 64, "duration": 5, "velocity": 96}, {"time": 499, "pitch": 62, "duration": 5, "velocity": 92}, {"time": 505, "pitch": 41, "duration": 41, "velocity": 93}, {"time": 505, "pitch": 57, "duration": 4, "velocity": 84}, {"time": 505, "pitch": 60, "duration": 10, "velocity": 87}, {"time": 511, "pitch": 48, "duration": 9, "velocity": 80}, {"time": 517, "pitch": 53, "duration": 22, "velocity": 97}, {"time": 523, "pitch": 48, "duration": 23, "velocity": 80}, {"time": 529, "pitch": 60, "duration": 10, "velocity": 87}, {"time": 541, "pitch": 53, "duration": 3, "velocity": 91}, {"time": 541, "pitch": 60, "duration": 6, "velocity": 93}, {"time": 541, "pitch": 65, "duration": 12, "velocity": 91}, {"time": 547, "pitch": 53, "duration": 2, "velocity": 86}, {"time": 553, "pitch": 43, "duration": 21, "velocity": 93}, {"time": 553, "pitch": 55, "duration": 8, "velocity": 88}, {"time": 553, "pitch": 62, "duration": 12, "velocity": 87}, {"time": 559, "pitch": 50, "duration": 15, "velocity": 88}, {"time": 565, "pitch": 55, "duration": 9, "velocity": 106}, {"time": 571, "pitch": 62, "duration": 4, "velocity": 86}, {"time": 577, "pitch": 43, "duration": 20, "velocity": 94}, {"time": 577, "pitch": 55, "duration": 7, "velocity": 88}, {"time": 577, "pitch": 62, "duration": 9, "velocity": 92}, {"time": 577, "pitch": 67, "duration": 9, "velocity": 88}, {"time": 583, "pitch": 50, "duration": 7, "velocity": 79}, {"time": 589, "pitch": 62, "duration": 6, "velocity": 101}, {"time": 592, "pitch": 50, "duration": 6, "velocity": 95}, {"time": 595, "pitch": 55, "duration": 3, "velocity": 96}, {"time": 598, "pitch": 62, "duration": 2, "velocity": 86}, {"time": 601, "pitch": 50, "duration": 46, "velocity": 94}, {"time": 601, "pitch": 57, "duration": 12, "velocity": 87}, {"time": 601, "pitch": 62, "duration": 12, "velocity": 90}, {"time": 613, "pitch": 65, "duration": 12, "velocity": 94}, {"time": 619, "pitch": 53, "duration": 27, "velocity": 78}, {"time": 622, "pitch": 57, "duration": 4, "velocity": 88}, {"time": 625, "pitch": 62, "duration": 7, "velocity": 92}, {"time": 637, "pitch": 57, "duration": 6, "velocity": 95}, {"time": 637, "pitch": 65, "duration": 6, "velocity": 94}, {"time": 643, "pitch": 64, "duration": 3, "velocity": 94}, {"time": 646, "pitch": 62, "duration": 4, "velocity": 88}, {"time": 649, "pitch": 45, "duration": 41, "velocity": 90}, {"time": 649, "pitch": 64, "duration": 11, "velocity": 93}, {"time": 655, "pitch": 52, "duration": 8, "velocity": 80}, {"time": 661, "pitch": 57, "duration": 5, "velocity": 92}, {"time": 661, "pitch": 60, "duration": 5, "velocity": 94}, {"time": 667, "pitch": 52, "duration": 7, "velocity": 80}, {"time": 673, "pitch": 57, "duration": 6, "velocity": 84}, {"time": 673, "pitch": 64, "duration": 6, "velocity": 86}, {"time": 679, "pitch": 52, "duration": 7, "velocity": 76}, {"time": 685, "pitch": 60, "duration": 6, "velocity": 108}, {"time": 688, "pitch": 52, "duration": 3, "velocity": 94}, {"time": 691, "pitch": 57, "duration": 6, "velocity": 86}, {"time": 697, "pitch": 40, "duration": 22, "velocity": 96}, {"time": 697, "pitch": 59, "duration": 12, "velocity": 92}, {"time": 703, "pitch": 47, "duration": 10, "velocity": 80}, {"time": 709, "pitch": 56, "duration": 6, "velocity": 103}, {"time": 715, "pitch": 52, "duration": 3, "velocity": 94}, {"time": 721, "pitch": 52, "duration": 5, "velocity": 98}, {"time": 721, "pitch": 59, "duration": 5, "velocity": 92}, {"time": 727, "pitch": 47, "duration": 8, "velocity": 77}, {"time": 733, "pitch": 50, "duration": 4, "velocity": 94}, {"time": 733, "pitch": 56, "duration": 4, "velocity": 93}, {"time": 739, "pitch": 40, "duration": 1, "velocity": 83}, {"time": 745, "pitch": 45, "duration": 20, "velocity": 94}, {"time": 745, "pitch": 57, "duration": 10, "velocity": 88}, {"time": 745, "pitch": 60, "duration": 11, "velocity": 89}, {"time": 751, "pitch": 52, "duration": 8, "velocity": 86}, {"time": 757, "pitch": 59, "duration": 10, "velocity": 108}, {"time": 763, "pitch": 52, "duration": 5, "velocity": 79}, {"time": 769, "pitch": 45, "duration": 18, "velocity": 95}, {"time": 769, "pitch": 57, "duration": 6, "velocity": 92}, {"time": 769, "pitch": 60, "duration": 5, "velocity": 94}, {"time": 775, "pitch": 52, "duration": 7, "velocity": 81}, {"time": 778, "pitch": 57, "duration": 2, "velocity": 77}, {"time": 781, "pitch": 57, "duration": 3, "velocity": 95}, {"time": 781, "pitch": 69, "duration": 11, "velocity": 93}, {"time": 784, "pitch": 52, "duration": 4, "velocity": 101}, {"time": 793, "pitch": 38, "duration": 14, "velocity": 99}, {"time": 799, "pitch": 45, "duration": 8, "velocity": 83}, {"time": 802, "pitch": 62, "duration": 1, "velocity": 83}, {"time": 805, "pitch": 62, "duration": 4, "velocity": 94}, {"time": 805, "pitch": 65, "duration": 8, "velocity": 93}, {"time": 817, "pitch": 50, "duration": 18, "velocity": 92}, {"time": 817, "pitch": 57, "duration": 3, "velocity": 87}, {"time": 817, "pitch": 65, "duration": 9, "velocity": 92}, {"time": 823, "pitch": 57, "duration": 7, "velocity": 86}, {"time": 829, "pitch": 62, "duration": 5, "velocity": 97}, {"time": 841, "pitch": 45, "duration": 21, "velocity": 92}, {"time": 841, "pitch": 57, "duration": 6, "velocity": 85}, {"time": 841, "pitch": 60, "duration": 6, "velocity": 89}, {"time": 841, "pitch": 64, "duration": 7, "velocity": 93}, {"time": 847, "pitch": 52, "duration": 16, "velocity": 82}, {"time": 853, "pitch": 60, "duration": 4, "velocity": 97}, {"time": 859, "pitch": 59, "duration": 3, "velocity": 92}, {"time": 862, "pitch": 60, "duration": 3, "velocity": 92}, {"time": 865, "pitch": 45, "duration": 14, "velocity": 93}, {"time": 865, "pitch": 57, "duration": 9, "velocity": 93}, {"time": 871, "pitch": 52, "duration": 9, "velocity": 85}, {"time": 877, "pitch": 57, "duration": 2, "velocity": 93}, {"time": 877, "pitch": 60, "duration": 2, "velocity": 99}, {"time": 877, "pitch": 64, "duration": 2, "velocity": 91}, {"time": 889, "pitch": 42, "duration": 13, "velocity": 92}, {"time": 889, "pitch": 54, "duration": 3, "velocity": 90}, {"time": 889, "pitch": 57, "duration": 7, "velocity": 91}, {"time": 889, "pitch": 64, "duration": 7, "velocity": 94}, {"time": 901, "pitch": 54, "duration": 2, "velocity": 93}, {"time": 901, "pitch": 57, "duration": 2, "velocity": 92}, {"time": 901, "pitch": 64, "duration": 3, "velocity": 95}, {"time": 913, "pitch": 47, "duration": 17, "velocity": 95}, {"time": 913, "pitch": 59, "duration": 6, "velocity": 93}, {"time": 913, "pitch": 63, "duration": 13, "velocity": 92}, {"time": 919, "pitch": 54, "duration": 9, "velocity": 84}, {"time": 925, "pitch": 57, "duration": 8, "velocity": 97}, {"time": 931, "pitch": 63, "duration": 5, "velocity": 94}, {"time": 937, "pitch": 38, "duration": 17, "velocity": 95}, {"time": 937, "pitch": 57, "duration": 7, "velocity": 87}, {"time": 937, "pitch": 65, "duration": 10, "velocity": 93}, {"time": 943, "pitch": 45, "duration": 10, "velocity": 86}, {"time": 946, "pitch": 57, "duration": 4, "velocity": 94}, {"time": 949, "pitch": 62, "duration": 3, "velocity": 94}, {"time": 952, "pitch": 65, "duration": 6, "velocity": 101}, {"time": 955, "pitch": 57, "duration": 3, "velocity": 94}, {"time": 961, "pitch": 43, "duration": 21, "velocity": 94}, {"time": 961, "pitch": 55, "duration": 4, "velocity": 94}, {"time": 961, "pitch": 62, "duration": 5, "velocity": 93}, {"time": 964, "pitch": 50, "duration": 10, "velocity": 93}, {"time": 967, "pitch": 55, "duration": 4, "velocity": 97}, {"time": 970, "pitch": 62, "duration": 2, "velocity": 92}, {"time": 973, "pitch": 55, "duration": 4, "velocity": 103}, {"time": 973, "pitch": 62, "duration": 4, "velocity": 98}, {"time": 973, "pitch": 67, "duration": 4, "velocity": 94}, {"time": 976, "pitch": 50, "duration": 6, "velocity": 93}, {"time": 979, "pitch": 65, "duration": 6, "velocity": 96}, {"time": 985, "pitch": 48, "duration": 21, "velocity": 97}, {"time": 985, "pitch": 64, "duration": 8, "velocity": 94}, {"time": 991, "pitch": 52, "duration": 15, "velocity": 86}, {"time": 997, "pitch": 55, "duration": 4, "velocity": 92}, {"time": 997, "pitch": 62, "duration": 5, "velocity": 95}, {"time": 1003, "pitch": 60, "duration": 2, "velocity": 94}, {"time": 1009, "pitch": 48, "duration": 14, "velocity": 88}, {"time": 1009, "pitch": 55, "duration": 3, "velocity": 92}, {"time": 1009, "pitch": 64, "duration": 7, "velocity": 93}, {"time": 1021, "pitch": 55, "duration": 3, "velocity": 98}, {"time": 1021, "pitch": 60, "duration": 3, "velocity": 103}, {"time": 1027, "pitch": 48, "duration": 2, "velocity": 95}, {"time": 1033, "pitch": 40, "duration": 22, "velocity": 92}, {"time": 1033, "pitch": 59, "duration": 7, "velocity": 90}, {"time": 1033, "pitch": 64, "duration": 6, "velocity": 95}, {"time": 1039, "pitch": 47, "duration": 15, "velocity": 79}, {"time": 1045, "pitch": 59, "duration": 5, "velocity": 96}, {"time": 1045, "pitch": 67, "duration": 6, "velocity": 92}, {"time": 1051, "pitch": 64, "duration": 4, "velocity": 88}, {"time": 1057, "pitch": 40, "duration": 16, "velocity": 86}, {"time": 1057, "pitch": 59, "duration": 8, "velocity": 86}, {"time": 1057, "pitch": 67, "duration": 9, "velocity": 88}, {"time": 1063, "pitch": 47, "duration": 9, "velocity": 76}, {"time": 1069, "pitch": 59, "duration": 4, "velocity": 95}, {"time": 1069, "pitch": 64, "duration": 7, "velocity": 101}, {"time": 1081, "pitch": 50, "duration": 17, "velocity": 96}, {"time": 1081, "pitch": 57, "duration": 3, "velocity": 87}, {"time": 1081, "pitch": 62, "duration": 8, "velocity": 88}, {"time": 1087, "pitch": 57, "duration": 7, "velocity": 91}, {"time": 1093, "pitch": 65, "duration": 3, "velocity": 94}, {"time": 1099, "pitch": 62, "duration": 3, "velocity": 92}, {"time": 1102, "pitch": 64, "duration": 3, "velocity": 94}, {"time": 1105, "pitch": 41, "duration": 17, "velocity": 92}, {"time": 1105, "pitch": 65, "duration": 12, "velocity": 96}, {"time": 1111, "pitch": 48, "duration": 11, "velocity": 84}, {"time": 1117, "pitch": 53, "duration": 6, "velocity": 92}, {"time": 1117, "pitch": 60, "duration": 6, "velocity": 90}, {"time": 1123, "pitch": 57, "duration": 5, "velocity": 87}, {"time": 1129, "pitch": 43, "duration": 22, "velocity": 94}, {"time": 1129, "pitch": 55, "duration": 6, "velocity": 89}, {"time": 1129, "pitch": 59, "duration": 5, "velocity": 88}, {"time": 1135, "pitch": 50, "duration": 16, "velocity": 87}, {"time": 1138, "pitch": 55, "duration": 3, "velocity": 89}, {"time": 1141, "pitch": 62, "duration": 6, "velocity": 93}, {"time": 1144, "pitch": 55, "duration": 3, "velocity": 93}, {"time": 1147, "pitch": 67, "duration": 4, "velocity": 97}, {"time": 1150, "pitch": 55, "duration": 2, "velocity": 92}, {"time": 1153, "pitch": 43, "duration": 17, "velocity": 97}, {"time": 1153, "pitch": 55, "duration": 3, "velocity": 99}, {"time": 1153, "pitch": 62, "duration": 4, "velocity": 94}, {"time": 1156, "pitch": 50, "duration": 6, "velocity": 87}, {"time": 1159, "pitch": 55, "duration": 4, "velocity": 96}, {"time": 1162, "pitch": 50, "duration": 1, "velocity": 83}, {"time": 1165, "pitch": 55, "duration": 9, "velocity": 109}, {"time": 1165, "pitch": 59, "duration": 6, "velocity": 106}, {"time": 1171, "pitch": 43, "duration": 4, "velocity": 94}, {"time": 1177, "pitch": 48, "duration": 20, "velocity": 98}, {"time": 1177, "pitch": 55, "duration": 3, "velocity": 99}, {"time": 1177, "pitch": 64, "duration": 8, "velocity": 96}, {"time": 1183, "pitch": 55, "duration": 5, "velocity": 93}, {"time": 1189, "pitch": 62, "duration": 6, "velocity": 103}, {"time": 1195, "pitch": 60, "duration": 3, "velocity": 101}, {"time": 1198, "pitch": 55, "duration": 2, "velocity": 93}, {"time": 1201, "pitch": 48, "duration": 18, "velocity": 101}, {"time": 1201, "pitch": 55, "duration": 3, "velocity": 93}, {"time": 1201, "pitch": 64, "duration": 10, "velocity": 94}, {"time": 1207, "pitch": 55, "duration": 5, "velocity": 89}, {"time": 1213, "pitch": 60, "duration": 3, "velocity": 99}, {"time": 1219, "pitch": 62, "duration": 5, "velocity": 98}, {"time": 1225, "pitch": 40, "duration": 22, "velocity": 96}, {"time": 1225, "pitch": 64, "duration": 10, "velocity": 99}, {"time": 1228, "pitch": 47, "duration": 18, "velocity": 83}, {"time": 1231, "pitch": 55, "duration": 3, "velocity": 87}, {"time": 1234, "pitch": 52, "duration": 3, "velocity": 94}, {"time": 1237, "pitch": 59, "duration": 6, "velocity": 95}, {"time": 1240, "pitch": 52, "duration": 3, "velocity": 92}, {"time": 1243, "pitch": 55, "duration": 3, "velocity": 86}, {"time": 1246, "pitch": 52, "duration": 2, "velocity": 61}, {"time": 1249, "pitch": 40, "duration": 15, "velocity": 95}, {"time": 1249, "pitch": 52, "duration": 9, "velocity": 59}, {"time": 1249, "pitch": 55, "duration": 8, "velocity": 85}, {"time": 1249, "pitch": 64, "duration": 7, "velocity": 94}, {"time": 1255, "pitch": 47, "duration": 7, "velocity": 79}, {"time": 1261, "pitch": 52, "duration": 1, "velocity": 97}, {"time": 1261, "pitch": 55, "duration": 2, "velocity": 99}, {"time": 1261, "pitch": 59, "duration": 2, "velocity": 97}, {"time": 1273, "pitch": 38, "duration": 3, "velocity": 94}, {"time": 1273, "pitch": 57, "duration": 13, "velocity": 91}, {"time": 1273, "pitch": 65, "duration": 15, "velocity": 91}, {"time": 1279, "pitch": 45, "duration": 15, "velocity": 90}, {"time": 1285, "pitch": 53, "duration": 9, "velocity": 93}, {"time": 1288, "pitch": 57, "duration": 4, "velocity": 96}, {"time": 1291, "pitch": 62, "duration": 3, "velocity": 96}, {"time": 1294, "pitch": 65, "duration": 27, "velocity": 87}, {"time": 1297, "pitch": 41, "duration": 17, "velocity": 94}, {"time": 1303, "pitch": 48, "duration": 11, "velocity": 84}, {"time": 1309, "pitch": 60, "duration": 7, "velocity": 93}, {"time": 1315, "pitch": 53, "duration": 2, "velocity": 95}, {"time": 1321, "pitch": 43, "duration": 22, "velocity": 94}, {"time": 1321, "pitch": 55, "duration": 7, "velocity": 87}, {"time": 1321, "pitch": 62, "duration": 11, "velocity": 85}, {"time": 1327, "pitch": 50, "duration": 15, "velocity": 89}, {"time": 1333, "pitch": 55, "duration": 4, "velocity": 92}, {"time": 1336, "pitch": 62, "duration": 4, "velocity": 87}, {"time": 1339, "pitch": 67, "duration": 4, "velocity": 88}, {"time": 1345, "pitch": 43, "duration": 20, "velocity": 93}, {"time": 1345, "pitch": 55, "duration": 8, "velocity": 86}, {"time": 1345, "pitch": 62, "duration": 8, "velocity": 88}, {"time": 1369, "pitch": 48, "duration": 6, "velocity": 93}, {"time": 1369, "pitch": 55, "duration": 4, "velocity": 90}, {"time": 1369, "pitch": 60, "duration": 7, "velocity": 91}, {"time": 1375, "pitch": 43, "duration": 16, "velocity": 78}, {"time": 1375, "pitch": 55, "duration": 3, "velocity": 83}, {"time": 1381, "pitch": 55, "duration": 4, "velocity": 97}, {"time": 1381, "pitch": 62, "duration": 12, "velocity": 93}, {"time": 1387, "pitch": 55, "duration": 4, "velocity": 88}, {"time": 1393, "pitch": 48, "duration": 11, "velocity": 92}, {"time": 1393, "pitch": 55, "duration": 3, "velocity": 86}, {"time": 1393, "pitch": 60, "duration": 7, "velocity": 89}, {"time": 1399, "pitch": 55, "duration": 4, "velocity": 91}, {"time": 1405, "pitch": 55, "duration": 2, "velocity": 95}, {"time": 1405, "pitch": 62, "duration": 9, "velocity": 95}, {"time": 1411, "pitch": 55, "duration": 3, "velocity": 87}, {"time": 1417, "pitch": 45, "duration": 2, "velocity": 92}, {"time": 1417, "pitch": 55, "duration": 2, "velocity": 93}, {"time": 1417, "pitch": 60, "duration": 8, "velocity": 92}, {"time": 1423, "pitch": 40, "duration": 5, "velocity": 50}, {"time": 1423, "pitch": 52, "duration": 4, "velocity": 87}, {"time": 1429, "pitch": 52, "duration": 12, "velocity": 101}, {"time": 1429, "pitch": 59, "duration": 12, "velocity": 94}, {"time": 1441, "pitch": 45, "duration": 14, "velocity": 91}, {"time": 1441, "pitch": 57, "duration": 7, "velocity": 89}, {"time": 1447, "pitch": 52, "duration": 10, "velocity": 77}, {"time": 1453, "pitch": 57, "duration": 6, "velocity": 94}, {"time": 1453, "pitch": 60, "duration": 8, "velocity": 94}, {"time": 1459, "pitch": 45, "duration": 2, "velocity": 88}, {"time": 1465, "pitch": 41, "duration": 15, "velocity": 92}, {"time": 1465, "pitch": 53, "duration": 7, "velocity": 89}, {"time": 1465, "pitch": 60, "duration": 7, "velocity": 89}, {"time": 1471, "pitch": 48, "duration": 7, "velocity": 78}, {"time": 1477, "pitch": 53, "duration": 1, "velocity": 82}, {"time": 1477, "pitch": 57, "duration": 6, "velocity": 95}, {"time": 1477, "pitch": 60, "duration": 7, "velocity": 96}, {"time": 1483, "pitch": 41, "duration": 21, "velocity": 91}, {"time": 1489, "pitch": 48, "duration": 14, "velocity": 91}, {"time": 1489, "pitch": 53, "duration": 9, "velocity": 93}, {"time": 1489, "pitch": 60, "duration": 7, "velocity": 93}, {"time": 1501, "pitch": 53, "duration": 5, "velocity": 93}, {"time": 1501, "pitch": 57, "duration": 4, "velocity": 98}, {"time": 1501, "pitch": 60, "duration": 5, "velocity": 99}, {"time": 1513, "pitch": 48, "duration": 17, "velocity": 97}, {"time": 1513, "pitch": 55, "duration": 6, "velocity": 94}, {"time": 1513, "pitch": 60, "duration": 6, "velocity": 94}, {"time": 1519, "pitch": 52, "duration": 11, "velocity": 71}, {"time": 1525, "pitch": 55, "duration": 1, "velocity": 71}, {"time": 1525, "pitch": 60, "duration": 6, "velocity": 99}, {"time": 1525, "pitch": 64, "duration": 10, "velocity": 103}, {"time": 1531, "pitch": 43, "duration": 7, "velocity": 78}, {"time": 1537, "pitch": 48, "duration": 19, "velocity": 93}, {"time": 1537, "pitch": 55, "duration": 15, "velocity": 92}, {"time": 1537, "pitch": 60, "duration": 10, "velocity": 90}, {"time": 1549, "pitch": 60, "duration": 6, "velocity": 91}, {"time": 1549, "pitch": 64, "duration": 9, "velocity": 94}, {"time": 1555, "pitch": 55, "duration": 4, "velocity": 81}, {"time": 1561, "pitch": 48, "duration": 44, "velocity": 92}, {"time": 1561, "pitch": 55, "duration": 4, "velocity": 86}, {"time": 1561, "pitch": 60, "duration": 17, "velocity": 87}, {"time": 1567, "pitch": 55, "duration": 6, "velocity": 74}, {"time": 1573, "pitch": 64, "duration": 8, "velocity": 92}, {"time": 1585, "pitch": 60, "duration": 7, "velocity": 81}, {"time": 1591, "pitch": 55, "duration": 8, "velocity": 80}, {"time": 1597, "pitch": 60, "duration": 4, "velocity": 93}, {"time": 1597, "pitch": 64, "duration": 12, "velocity": 94}, {"time": 1609, "pitch": 45, "duration": 38, "velocity": 83}, {"time": 1609, "pitch": 57, "duration": 8, "velocity": 79}, {"time": 1609, "pitch": 60, "duration": 21, "velocity": 84}, {"time": 1615, "pitch": 52, "duration": 32, "velocity": 87}, {"time": 1627, "pitch": 57, "duration": 9, "velocity": 83}, {"time": 1633, "pitch": 64, "duration": 4, "velocity": 92}, {"time": 1645, "pitch": 57, "duration": 3, "velocity": 88}, {"time": 1645, "pitch": 60, "duration": 5, "velocity": 88}, {"time": 1657, "pitch": 41, "duration": 42, "velocity": 92}, {"time": 1657, "pitch": 60, "duration": 12, "velocity": 86}, {"time": 1663, "pitch": 48, "duration": 9, "velocity": 81}, {"time": 1669, "pitch": 53, "duration": 13, "velocity": 90}, {"time": 1675, "pitch": 48, "duration": 24, "velocity": 71}, {"time": 1681, "pitch": 60, "duration": 1, "velocity": 68}, {"time": 1681, "pitch": 65, "duration": 19, "velocity": 89}, {"time": 1687, "pitch": 53, "duration": 4, "velocity": 80}, {"time": 1693, "pitch": 60, "duration": 7, "velocity": 90}, {"time": 1705, "pitch": 45, "duration": 19, "velocity": 92}, {"time": 1705, "pitch": 60, "duration": 12, "velocity": 90}, {"time": 1711, "pitch": 52, "duration": 17, "velocity": 85}, {"time": 1717, "pitch": 57, "duration": 5, "velocity": 94}, {"time": 1729, "pitch": 43, "duration": 16, "velocity": 91}, {"time": 1729, "pitch": 55, "duration": 12, "velocity": 87}, {"time": 1729, "pitch": 59, "duration": 12, "velocity": 88}, {"time": 1735, "pitch": 50, "duration": 10, "velocity": 84}, {"time": 1741, "pitch": 62, "duration": 6, "velocity": 92}, {"time": 1747, "pitch": 55, "duration": 10, "velocity": 94}, {"time": 1753, "pitch": 36, "duration": 4, "velocity": 88}, {"time": 1753, "pitch": 60, "duration": 15, "velocity": 86}, {"time": 1759, "pitch": 55, "duration": 6, "velocity": 78}, {"time": 1765, "pitch": 64, "duration": 18, "velocity": 92}, {"time": 1771, "pitch": 55, "duration": 6, "velocity": 75}, {"time": 1777, "pitch": 60, "duration": 5, "velocity": 83}, {"time": 1783, "pitch": 48, "duration": 10, "velocity": 67}, {"time": 1789, "pitch": 60, "duration": 6, "velocity": 95}, {"time": 1789, "pitch": 64, "duration": 6, "velocity": 97}, {"time": 1795, "pitch": 55, "duration": 1, "velocity": 79}, {"time": 1801, "pitch": 52, "duration": 18, "velocity": 93}, {"time": 1801, "pitch": 59, "duration": 13, "velocity": 89}, {"time": 1801, "pitch": 64, "duration": 8, "velocity": 91}, {"time": 1813, "pitch": 67, "duration": 6, "velocity": 92}, {"time": 1819, "pitch": 59, "duration": 7, "velocity": 81}, {"time": 1825, "pitch": 64, "duration": 5, "velocity": 95}, {"time": 1837, "pitch": 59, "duration": 3, "velocity": 94}, {"time": 1837, "pitch": 64, "duration": 5, "velocity": 96}, {"time": 1843, "pitch": 62, "duration": 5, "velocity": 92}, {"time": 1849, "pitch": 41, "duration": 41, "velocity": 93}, {"time": 1849, "pitch": 57, "duration": 4, "velocity": 84}, {"time": 1849, "pitch": 60, "duration": 10, "velocity": 87}, {"time": 1855, "pitch": 48, "duration": 9, "velocity": 80}, {"time": 1861, "pitch": 53, "duration": 22, "velocity": 97}, {"time": 1867, "pitch": 48, "duration": 23, "velocity": 80}, {"time": 1873, "pitch": 60, "duration": 10, "velocity": 87}, {"time": 1885, "pitch": 53, "duration": 3, "velocity": 91}, {"time": 1885, "pitch": 60, "duration": 6, "velocity": 93}, {"time": 1885, "pitch": 65, "duration": 12, "velocity": 91}, {"time": 1891, "pitch": 53, "duration": 2, "velocity": 86}, {"time": 1897, "pitch": 43, "duration": 21, "velocity": 93}, {"time": 1897, "pitch": 55, "duration": 8, "velocity": 88}, {"time": 1897, "pitch": 62, "duration": 12, "velocity": 87}, {"time": 1903, "pitch": 50, "duration": 15, "velocity": 88}, {"time": 1909, "pitch": 55, "duration": 9, "velocity": 106}, {"time": 1915, "pitch": 62, "duration": 4, "velocity": 86}, {"time": 1921, "pitch": 43, "duration": 20, "velocity": 94}, {"time": 1921, "pitch": 55, "duration": 7, "velocity": 88}, {"time": 1921, "pitch": 62, "duration": 9, "velocity": 92}, {"time": 1921, "pitch": 67, "duration": 9, "velocity": 88}, {"time": 1927, "pitch": 50, "duration": 7, "velocity": 79}, {"time": 1933, "pitch": 62, "duration": 6, "velocity": 101}, {"time": 1936, "pitch": 50, "duration": 6, "velocity": 95}, {"time": 1939, "pitch": 55, "duration": 3, "velocity": 96}, {"time": 1942, "pitch": 62, "duration": 2, "velocity": 86}, {"time": 1945, "pitch": 50, "duration": 46, "velocity": 94}, {"time": 1945, "pitch": 57, "duration": 12, "velocity": 87}, {"time": 1945, "pitch": 62, "duration": 12, "velocity": 90}, {"time": 1957, "pitch": 65, "duration": 12, "velocity": 94}, {"time": 1963, "pitch": 53, "duration": 27, "velocity": 78}, {"time": 1966, "pitch": 57, "duration": 4, "velocity": 88}, {"time": 1969, "pitch": 62, "duration": 7, "velocity": 92}, {"time": 1981, "pitch": 57, "duration": 6, "velocity": 95}, {"time": 1981, "pitch": 65, "duration": 6, "velocity": 94}, {"time": 1987, "pitch": 64, "duration": 3, "velocity": 94}, {"time": 1990, "pitch": 62, "duration": 4, "velocity": 88}, {"time": 1993, "pitch": 45, "duration": 41, "velocity": 90}, {"time": 1993, "pitch": 64, "duration": 11, "velocity": 93}, {"time": 1999, "pitch": 52, "duration": 8, "velocity": 80}, {"time": 2005, "pitch": 57, "duration": 5, "velocity": 92}, {"time": 2005, "pitch": 60, "duration": 5, "velocity": 94}, {"time": 2011, "pitch": 52, "duration": 7, "velocity": 80}, {"time": 2017, "pitch": 57, "duration": 6, "velocity": 84}, {"time": 2017, "pitch": 64, "duration": 6, "velocity": 86}, {"time": 2023, "pitch": 52, "duration": 7, "velocity": 76}, {"time": 2029, "pitch": 60, "duration": 6, "velocity": 108}, {"time": 2032, "pitch": 52, "duration": 3, "velocity": 94}, {"time": 2035, "pitch": 57, "duration": 6, "velocity": 86}, {"time": 2041, "pitch": 40, "duration": 22, "velocity": 96}, {"time": 2041, "pitch": 59, "duration": 12, "velocity": 92}, {"time": 2047, "pitch": 47, "duration": 10, "velocity": 80}, {"time": 2053, "pitch": 56, "duration": 6, "velocity": 103}, {"time": 2059, "pitch": 52, "duration": 3, "velocity": 94}, {"time": 2065, "pitch": 52, "duration": 5, "velocity": 98}, {"time": 2065, "pitch": 59, "duration": 5, "velocity": 92}, {"time": 2071, "pitch": 47, "duration": 8, "velocity": 77}, {"time": 2077, "pitch": 50, "duration": 4, "velocity": 94}, {"time": 2077, "pitch": 56, "duration": 4, "velocity": 93}, {"time": 2083, "pitch": 40, "duration": 1, "velocity": 83}, {"time": 2089, "pitch": 45, "duration": 20, "velocity": 94}, {"time": 2089, "pitch": 57, "duration": 10, "velocity": 88}, {"time": 2089, "pitch": 60, "duration": 11, "velocity": 89}, {"time": 2095, "pitch": 52, "duration": 8, "velocity": 86}, {"time": 2101, "pitch": 59, "duration": 10, "velocity": 108}, {"time": 2107, "pitch": 52, "duration": 5, "velocity": 79}, {"time": 2113, "pitch": 45, "duration": 18, "velocity": 95}, {"time": 2113, "pitch": 57, "duration": 6, "velocity": 92}, {"time": 2113, "pitch": 60, "duration": 5, "velocity": 94}, {"time": 2119, "pitch": 52, "duration": 7, "velocity": 81}, {"time": 2122, "pitch": 57, "duration": 2, "velocity": 77}, {"time": 2125, "pitch": 57, "duration": 3, "velocity": 95}, {"time": 2125, "pitch": 69, "duration": 11, "velocity": 93}, {"time": 2128, "pitch": 52, "duration": 4, "velocity": 101}, {"time": 2137, "pitch": 38, "duration": 14, "velocity": 99}, {"time": 2143, "pitch": 45, "duration": 8, "velocity": 83}, {"time": 2146, "pitch": 62, "duration": 1, "velocity": 83}, {"time": 2149, "pitch": 62, "duration": 4, "velocity": 94}, {"time": 2149, "pitch": 65, "duration": 8, "velocity": 93}, {"time": 2161, "pitch": 50, "duration": 18, "velocity": 92}, {"time": 2161, "pitch": 57, "duration": 3, "velocity": 87}, {"time": 2161, "pitch": 65, "duration": 9, "velocity": 92}, {"time": 2167, "pitch": 57, "duration": 7, "velocity": 86}, {"time": 2173, "pitch": 62, "duration": 5, "velocity": 97}, {"time": 2185, "pitch": 45, "duration": 21, "velocity": 92}, {"time": 2185, "pitch": 57, "duration": 6, "velocity": 85}, {"time": 2185, "pitch": 60, "duration": 6, "velocity": 89}, {"time": 2185, "pitch": 64, "duration": 7, "velocity": 93}, {"time": 2191, "pitch": 52, "duration": 16, "velocity": 82}, {"time": 2197, "pitch": 60, "duration": 4, "velocity": 97}, {"time": 2203, "pitch": 59, "duration": 3, "velocity": 92}, {"time": 2206, "pitch": 60, "duration": 3, "velocity": 92}, {"time": 2209, "pitch": 45, "duration": 14, "velocity": 93}, {"time": 2209, "pitch": 57, "duration": 9, "velocity": 93}, {"time": 2215, "pitch": 52, "duration": 9, "velocity": 85}, {"time": 2221, "pitch": 57, "duration": 2, "velocity": 93}, {"time": 2221, "pitch": 60, "duration": 2, "velocity": 99}, {"time": 2221, "pitch": 64, "duration": 2, "velocity": 91}, {"time": 2233, "pitch": 42, "duration": 13, "velocity": 92}, {"time": 2233, "pitch": 54, "duration": 3, "velocity": 90}, {"time": 2233, "pitch": 57, "duration": 7, "velocity": 91}, {"time": 2233, "pitch": 64, "duration": 7, "velocity": 94}, {"time": 2245, "pitch": 54, "duration": 2, "velocity": 93}, {"time": 2245, "pitch": 57, "duration": 2, "velocity": 92}, {"time": 2245, "pitch": 64, "duration": 3, "velocity": 95}, {"time": 2257, "pitch": 47, "duration": 17, "velocity": 95}, {"time": 2257, "pitch": 59, "duration": 6, "velocity": 93}, {"time": 2257, "pitch": 63, "duration": 13, "velocity": 92}, {"time": 2263, "pitch": 54, "duration": 9, "velocity": 84}, {"time": 2269, "pitch": 57, "duration": 8, "velocity": 97}, {"time": 2275, "pitch": 63, "duration": 5, "velocity": 94}, {"time": 2281, "pitch": 38, "duration": 17, "velocity": 95}, {"time": 2281, "pitch": 57, "duration": 7, "velocity": 87}, {"time": 2281, "pitch": 65, "duration": 10, "velocity": 93}, {"time": 2287, "pitch": 45, "duration": 10, "velocity": 86}, {"time": 2290, "pitch": 57, "duration": 4, "velocity": 94}, {"time": 2293, "pitch": 62, "duration": 3, "velocity": 94}, {"time": 2296, "pitch": 65, "duration": 6, "velocity": 101}, {"time": 2299, "pitch": 57, "duration": 3, "velocity": 94}, {"time": 2305, "pitch": 43, "duration": 21, "velocity": 94}, {"time": 2305, "pitch": 55, "duration": 4, "velocity": 94}, {"time": 2305, "pitch": 62, "duration": 5, "velocity": 93}, {"time": 2308, "pitch": 50, "duration": 10, "velocity": 93}, {"time": 2311, "pitch": 55, "duration": 4, "velocity": 97}, {"time": 2314, "pitch": 62, "duration": 2, "velocity": 92}, {"time": 2317, "pitch": 55, "duration": 4, "velocity": 103}, {"time": 2317, "pitch": 62, "duration": 4, "velocity": 98}, {"time": 2317, "pitch": 67, "duration": 4, "velocity": 94}, {"time": 2320, "pitch": 50, "duration": 6, "velocity": 93}, {"time": 2323, "pitch": 65, "duration": 6, "velocity": 96}, {"time": 2329, "pitch": 48, "duration": 21, "velocity": 97}, {"time": 2329, "pitch": 64, "duration": 8, "velocity": 94}, {"time": 2335, "pitch": 52, "duration": 15, "velocity": 86}, {"time": 2341, "pitch": 55, "duration": 4, "velocity": 92}, {"time": 2341, "pitch": 62, "duration": 5, "velocity": 95}, {"time": 2347, "pitch": 60, "duration": 2, "velocity": 94}, {"time": 2353, "pitch": 48, "duration": 14, "velocity": 88}, {"time": 2353, "pitch": 55, "duration": 3, "velocity": 92}, {"time": 2353, "pitch": 64, "duration": 7, "velocity": 93}, {"time": 2365, "pitch": 55, "duration": 3, "velocity": 98}, {"time": 2365, "pitch": 60, "duration": 3, "velocity": 103}, {"time": 2371, "pitch": 48, "duration": 2, "velocity": 95}, {"time": 2377, "pitch": 40, "duration": 22, "velocity": 92}, {"time": 2377, "pitch": 59, "duration": 7, "velocity": 90}, {"time": 2377, "pitch": 64, "duration": 6, "velocity": 95}, {"time": 2383, "pitch": 47, "duration": 15, "velocity": 79}, {"time": 2389, "pitch": 59, "duration": 5, "velocity": 96}, {"time": 2389, "pitch": 67, "duration": 6, "velocity": 92}, {"time": 2395, "pitch": 64, "duration": 4, "velocity": 88}, {"time": 2401, "pitch": 40, "duration": 16, "velocity": 86}, {"time": 2401, "pitch": 59, "duration": 8, "velocity": 86}, {"time": 2401, "pitch": 67, "duration": 9, "velocity": 88}, {"time": 2407, "pitch": 47, "duration": 9, "velocity": 76}, {"time": 2413, "pitch": 59, "duration": 4, "velocity": 95}, {"time": 2413, "pitch": 64, "duration": 7, "velocity": 101}, {"time": 2425, "pitch": 50, "duration": 17, "velocity": 96}, {"time": 2425, "pitch": 57, "duration": 3, "velocity": 87}, {"time": 2425, "pitch": 62, "duration": 8, "velocity": 88}, {"time": 2431, "pitch": 57, "duration": 7, "velocity": 91}, {"time": 2437, "pitch": 65, "duration": 3, "velocity": 94}, {"time": 2443, "pitch": 62, "duration": 3, "velocity": 92}, {"time": 2446, "pitch": 64, "duration": 3, "velocity": 94}, {"time": 2449, "pitch": 41, "duration": 17, "velocity": 92}, {"time": 2449, "pitch": 65, "duration": 12, "velocity": 96}, {"time": 2455, "pitch": 48, "duration": 11, "velocity": 84}, {"time": 2461, "pitch": 53, "duration": 6, "velocity": 92}, {"time": 2461, "pitch": 60, "duration": 6, "velocity": 90}, {"time": 2467, "pitch": 57, "duration": 5, "velocity": 87}, {"time": 2473, "pitch": 43, "duration": 22, "velocity": 94}, {"time": 2473, "pitch": 55, "duration": 6, "velocity": 89}, {"time": 2473, "pitch": 59, "duration": 5, "velocity": 88}, {"time": 2479, "pitch": 50, "duration": 16, "velocity": 87}, {"time": 2482, "pitch": 55, "duration": 3, "velocity": 89}, {"time": 2485, "pitch": 62, "duration": 6, "velocity": 93}, {"time": 2488, "pitch": 55, "duration": 3, "velocity": 93}, {"time": 2491, "pitch": 67, "duration": 4, "velocity": 97}, {"time": 2494, "pitch": 55, "duration": 2, "velocity": 92}, {"time": 2497, "pitch": 43, "duration": 17, "velocity": 97}, {"time": 2497, "pitch": 55, "duration": 3, "velocity": 99}, {"time": 2497, "pitch": 62, "duration": 4, "velocity": 94}, {"time": 2500, "pitch": 50, "duration": 6, "velocity": 87}, {"time": 2503, "pitch": 55, "duration": 4, "velocity": 96}, {"time": 2506, "pitch": 50, "duration": 1, "velocity": 83}, {"time": 2509, "pitch": 55, "duration": 9, "velocity": 109}, {"time": 2509, "pitch": 59, "duration": 6, "velocity": 106}, {"time": 2515, "pitch": 43, "duration": 4, "velocity": 94}, {"time": 2521, "pitch": 48, "duration": 20, "velocity": 98}, {"time": 2521, "pitch": 55, "duration": 3, "velocity": 99}, {"time": 2521, "pitch": 64, "duration": 8, "velocity": 96}, {"time": 2527, "pitch": 55, "duration": 5, "velocity": 93}, {"time": 2533, "pitch": 62, "duration": 6, "velocity": 103}, {"time": 2539, "pitch": 60, "duration": 3, "velocity": 101}, {"time": 2542, "pitch": 55, "duration": 2, "velocity": 93}, {"time": 2545, "pitch": 48, "duration": 18, "velocity": 101}, {"time": 2545, "pitch": 55, "duration": 3, "velocity": 93}, {"time": 2545, "pitch": 64, "duration": 10, "velocity": 94}, {"time": 2551, "pitch": 55, "duration": 5, "velocity": 89}, {"time": 2557, "pitch": 60, "duration": 3, "velocity": 99}, {"time": 2563, "pitch": 62, "duration": 5, "velocity": 98}, {"time": 2569, "pitch": 40, "duration": 22, "velocity": 96}, {"time": 2569, "pitch": 64, "duration": 10, "velocity": 99}, {"time": 2572, "pitch": 47, "duration": 18, "velocity": 83}, {"time": 2575, "pitch": 55, "duration": 3, "velocity": 87}, {"time": 2578, "pitch": 52, "duration": 3, "velocity": 94}, {"time": 2581, "pitch": 59, "duration": 6, "velocity": 95}, {"time": 2584, "pitch": 52, "duration": 3, "velocity": 92}, {"time": 2587, "pitch": 55, "duration": 3, "velocity": 86}, {"time": 2590, "pitch": 52, "duration": 2, "velocity": 61}, {"time": 2593, "pitch": 40, "duration": 15, "velocity": 95}, {"time": 2593, "pitch": 52, "duration": 9, "velocity": 59}, {"time": 2593, "pitch": 55, "duration": 8, "velocity": 85}, {"time": 2593, "pitch": 64, "duration": 7, "velocity": 94}, {"time": 2599, "pitch": 47, "duration": 7, "velocity": 79}, {"time": 2605, "pitch": 52, "duration": 1, "velocity": 97}, {"time": 2605, "pitch": 55, "duration": 2, "velocity": 99}, {"time": 2605, "pitch": 59, "duration": 2, "velocity": 97}, {"time": 2617, "pitch": 38, "duration": 3, "velocity": 94}, {"time": 2617, "pitch": 57, "duration": 13, "velocity": 91}, {"time": 2617, "pitch": 65, "duration": 15, "velocity": 91}, {"time": 2623, "pitch": 45, "duration": 15, "velocity": 90}, {"time": 2629, "pitch": 53, "duration": 9, "velocity": 93}, {"time": 2632, "pitch": 57, "duration": 4, "velocity": 96}, {"time": 2635, "pitch": 62, "duration": 3, "velocity": 96}, {"time": 2638, "pitch": 65, "duration": 27, "velocity": 87}, {"time": 2641, "pitch": 41, "duration": 17, "velocity": 94}, {"time": 2647, "pitch": 48, "duration": 11, "velocity": 84}, {"time": 2653, "pitch": 60, "duration": 7, "velocity": 93}, {"time": 2659, "pitch": 53, "duration": 2, "velocity": 95}, {"time": 2665, "pitch": 43, "duration": 22, "velocity": 94}, {"time": 2665, "pitch": 55, "duration": 7, "velocity": 87}, {"time": 2665, "pitch": 62, "duration": 11, "velocity": 85}, {"time": 2671, "pitch": 50, "duration": 15, "velocity": 89}, {"time": 2677, "pitch": 55, "duration": 4, "velocity": 92}, {"time": 2680, "pitch": 62, "duration": 4, "velocity": 87}, {"time": 2683, "pitch": 67, "duration": 4, "velocity": 88}, {"time": 2689, "pitch": 43, "duration": 20, "velocity": 93}, {"time": 2689, "pitch": 55, "duration": 8, "velocity": 86}, {"time": 2689, "pitch": 62, "duration": 8, "velocity": 88}, {"time": 2713, "pitch": 48, "duration": 6, "velocity": 93}, {"time": 2713, "pitch": 55, "duration": 4, "velocity": 90}, {"time": 2713, "pitch": 60, "duration": 7, "velocity": 91}, {"time": 2719, "pitch": 43, "duration": 16, "velocity": 78}, {"time": 2719, "pitch": 55, "duration": 3, "velocity": 83}, {"time": 2725, "pitch": 55, "duration": 4, "velocity": 97}, {"time": 2725, "pitch": 62, "duration": 12, "velocity": 93}, {"time": 2731, "pitch": 55, "duration": 4, "velocity": 88}, {"time": 2737, "pitch": 48, "duration": 11, "velocity": 92}, {"time": 2737, "pitch": 55, "duration": 3, "velocity": 86}, {"time": 2737, "pitch": 60, "duration": 7, "velocity": 89}, {"time": 2743, "pitch": 55, "duration": 4, "velocity": 91}, {"time": 2749, "pitch": 55, "duration": 2, "velocity": 95}, {"time": 2749, "pitch": 62, "duration": 9, "velocity": 95}, {"time": 2755, "pitch": 55, "duration": 3, "velocity": 87}, {"time": 2761, "pitch": 45, "duration": 2, "velocity": 92}, {"time": 2761, "pitch": 55, "duration": 2, "velocity": 93}, {"time": 2761, "pitch": 60, "duration": 8, "velocity": 92}, {"time": 2767, "pitch": 40, "duration": 5, "velocity": 50}, {"time": 2767, "pitch": 52, "duration": 4, "velocity": 87}, {"time": 2773, "pitch": 52, "duration": 12, "velocity": 101}, {"time": 2773, "pitch": 59, "duration": 12, "velocity": 94}, {"time": 2785, "pitch": 45, "duration": 14, "velocity": 91}, {"time": 2785, "pitch": 57, "duration": 7, "velocity": 89}, {"time": 2791, "pitch": 52, "duration": 10, "velocity": 77}, {"time": 2797, "pitch": 57, "duration": 6, "velocity": 94}, {"time": 2797, "pitch": 60, "duration": 8, "velocity": 94}, {"time": 2803, "pitch": 45, "duration": 2, "velocity": 88}, {"time": 2808, "pitch": 41, "duration": 22, "velocity": 91}, {"time": 2809, "pitch": 53, "duration": 20, "velocity": 84}, {"time": 2809, "pitch": 57, "duration": 13, "velocity": 86}, {"time": 2814, "pitch": 48, "duration": 9, "velocity": 83}, {"time": 2821, "pitch": 60, "duration": 11, "velocity": 93}, {"time": 2827, "pitch": 48, "duration": 6, "velocity": 73}, {"time": 2832, "pitch": 53, "duration": 10, "velocity": 86}, {"time": 2833, "pitch": 57, "duration": 17, "velocity": 86}, {"time": 2833, "pitch": 41, "duration": 20, "velocity": 86}, {"time": 2834, "pitch": 60, "duration": 25, "velocity": 87}, {"time": 2834, "pitch": 65, "duration": 26, "velocity": 82}, {"time": 2840, "pitch": 48, "duration": 12, "velocity": 82}, {"time": 2847, "pitch": 53, "duration": 13, "velocity": 89}, {"time": 2866, "pitch": 36, "duration": 1, "velocity": 91}, {"time": 2871, "pitch": 48, "duration": 36, "velocity": 88}, {"time": 2874, "pitch": 55, "duration": 17, "velocity": 81}, {"time": 2877, "pitch": 62, "duration": 8, "velocity": 80}, {"time": 2881, "pitch": 64, "duration": 7, "velocity": 74}, {"time": 2885, "pitch": 67, "duration": 23, "velocity": 78}, {"time": 2890, "pitch": 60, "duration": 19, "velocity": 64}], "annotations": [{"time": 25, "annotation": {"number": 64, "value": 127}, "group": "control_change"}, {"time": 72, "annotation": {"number": 64, "value": 0}, "group": "control_change"}, {"time": 78, "annotation": {"number": 64, "value": 127}, "group": "control_change"}, {"time": 120, "annotation": {"number": 64, "value": 0}, "group": "control_change"}, {"time": 127, "annotation": {"number": 64, "value": 127}, "group": "control_change"}, {"time": 167, "annotation": {"number": 64, "value": 0}, "group": "control_change"}, {"time": 169, "annotation": {"number": 64, "value": 127}, "group": "control_change"}, {"time": 215, "annotation": {"number": 64, "value": 0}, "group": "control_change"}, {"time": 220, "annotation": {"number": 64, "value": 127}, "group": "control_change"}, {"time": 265, "annotation": {"number": 64, "value": 0}, "group": "control_change"}, {"time": 272, "annotation": {"number": 64, "value": 127}, "group": "control_change"}, {"time": 312, "annotation": {"number": 64, "value": 0}, "group": "control_change"}, {"time": 319, "annotation": {"number": 64, "value": 127}, "group": "control_change"}, {"time": 368, "annotation": {"number": 64, "value": 127}, "group": "control_change"}, {"time": 368, "annotation": {"number": 64, "value": 0}, "group": "control_change"}, {"time": 384, "annotation": {"number": 64, "value": 0}, "group": "control_change"}, {"time": 390, "annotation": {"number": 64, "value": 127}, "group": "control_change"}, {"time": 406, "annotation": {"number": 64, "value": 0}, "group": "control_change"}, {"time": 408, "annotation": {"number": 64, "value": 127}, "group": "control_change"}, {"time": 457, "annotation": {"number": 64, "value": 0}, "group": "control_change"}, {"time": 462, "annotation": {"number": 64, "value": 127}, "group": "control_change"}, {"time": 502, "annotation": {"number": 64, "value": 0}, "group": "control_change"}, {"time": 509, "annotation": {"number": 64, "value": 127}, "group": "control_change"}, {"time": 551, "annotation": {"number": 64, "value": 0}, "group": "control_change"}, {"time": 559, "annotation": {"number": 64, "value": 127}, "group": "control_change"}, {"time": 600, "annotation": {"number": 64, "value": 0}, "group": "control_change"}, {"time": 606, "annotation": {"number": 64, "value": 127}, "group": "control_change"}, {"time": 646, "annotation": {"number": 64, "value": 0}, "group": "control_change"}, {"time": 653, "annotation": {"number": 64, "value": 127}, "group": "control_change"}, {"time": 696, "annotation": {"number": 64, "value": 0}, "group": "control_change"}, {"time": 702, "annotation": {"number": 64, "value": 127}, "group": "control_change"}, {"time": 745, "annotation": {"number": 64, "value": 0}, "group": "control_change"}, {"time": 751, "annotation": {"number": 64, "value": 127}, "group": "control_change"}, {"time": 768, "annotation": {"number": 64, "value": 0}, "group": "control_change"}, {"time": 771, "annotation": {"number": 64, "value": 127}, "group": "control_change"}, {"time": 792, "annotation": {"number": 64, "value": 0}, "group": "control_change"}, {"time": 794, "annotation": {"number": 64, "value": 127}, "group": "control_change"}, {"time": 816, "annotation": {"number": 64, "value": 0}, "group": "control_change"}, {"time": 821, "annotation": {"number": 64, "value": 127}, "group": "control_change"}, {"time": 839, "annotation": {"number": 64, "value": 0}, "group": "control_change"}, {"time": 846, "annotation": {"number": 64, "value": 127}, "group": "control_change"}, {"time": 864, "annotation": {"number": 64, "value": 0}, "group": "control_change"}, {"time": 870, "annotation": {"number": 64, "value": 127}, "group": "control_change"}, {"time": 888, "annotation": {"number": 64, "value": 0}, "group": "control_change"}, {"time": 891, "annotation": {"number": 64, "value": 127}, "group": "control_change"}, {"time": 913, "annotation": {"number": 64, "value": 0}, "group": "control_change"}, {"time": 916, "annotation": {"number": 64, "value": 127}, "group": "control_change"}, {"time": 936, "annotation": {"number": 64, "value": 0}, "group": "control_change"}, {"time": 937, "annotation": {"number": 64, "value": 127}, "group": "control_change"}, {"time": 961, "annotation": {"number": 64, "value": 0}, "group": "control_change"}, {"time": 965, "annotation": {"number": 64, "value": 127}, "group": "control_change"}, {"time": 984, "annotation": {"number": 64, "value": 0}, "group": "control_change"}, {"time": 989, "annotation": {"number": 64, "value": 127}, "group": "control_change"}, {"time": 1032, "annotation": {"number": 64, "value": 0}, "group": "control_change"}, {"time": 1037, "annotation": {"number": 64, "value": 127}, "group": "control_change"}, {"time": 1057, "annotation": {"number": 64, "value": 0}, "group": "control_change"}, {"time": 1062, "annotation": {"number": 64, "value": 127}, "group": "control_change"}, {"time": 1080, "annotation": {"number": 64, "value": 0}, "group": "control_change"}, {"time": 1085, "annotation": {"number": 64, "value": 127}, "group": "control_change"}, {"time": 1102, "annotation": {"number": 64, "value": 0}, "group": "control_change"}, {"time": 1107, "annotation": {"number": 64, "value": 127}, "group": "control_change"}, {"time": 1128, "annotation": {"number": 64, "value": 0}, "group": "control_change"}, {"time": 1133, "annotation": {"number": 64, "value": 127}, "group": "control_change"}, {"time": 1152, "annotation": {"number": 64, "value": 0}, "group": "control_change"}, {"time": 1154, "annotation": {"number": 64, "value": 127}, "group": "control_change"}, {"time": 1175, "annotation": {"number": 64, "value": 0}, "group": "control_change"}, {"time": 1181, "annotation": {"number": 64, "value": 127}, "group": "control_change"}, {"time": 1201, "annotation": {"number": 64, "value": 0}, "group": "control_change"}, {"time": 1203, "annotation": {"number": 64, "value": 127}, "group": "control_change"}, {"time": 1222, "annotation": {"number": 64, "value": 0}, "group": "control_change"}, {"time": 1227, "annotation": {"number": 64, "value": 127}, "group": "control_change"}, {"time": 1249, "annotation": {"number": 64, "value": 0}, "group": "control_change"}, {"time": 1251, "annotation": {"number": 64, "value": 127}, "group": "control_change"}, {"time": 1270, "annotation": {"number": 64, "value": 0}, "group": "control_change"}, {"time": 1272, "annotation": {"number": 64, "value": 127}, "group": "control_change"}, {"time": 1296, "annotation": {"number": 64, "value": 0}, "group": "control_change"}, {"time": 1303, "annotation": {"number": 64, "value": 127}, "group": "control_change"}, {"time": 1321, "annotation": {"number": 64, "value": 0}, "group": "control_change"}, {"time": 1327, "annotation": {"number": 64, "value": 127}, "group": "control_change"}, {"time": 1367, "annotation": {"number": 64, "value": 0}, "group": "control_change"}, {"time": 1393, "annotation": {"number": 64, "value": 0}, "group": "control_change"}, {"time": 1398, "annotation": {"number": 64, "value": 127}, "group": "control_change"}, {"time": 1416, "annotation": {"number": 64, "value": 0}, "group": "control_change"}, {"time": 1418, "annotation": {"number": 64, "value": 127}, "group": "control_change"}, {"time": 1439, "annotation": {"number": 64, "value": 0}, "group": "control_change"}, {"time": 1442, "annotation": {"number": 64, "value": 127}, "group": "control_change"}, {"time": 1463, "annotation": {"number": 64, "value": 0}, "group": "control_change"}, {"time": 1469, "annotation": {"number": 64, "value": 127}, "group": "control_change"}, {"time": 1490, "annotation": {"number": 64, "value": 0}, "group": "control_change"}, {"time": 1491, "annotation": {"number": 64, "value": 127}, "group": "control_change"}, {"time": 1511, "annotation": {"number": 64, "value": 0}, "group": "control_change"}, {"time": 1514, "annotation": {"number": 64, "value": 127}, "group": "control_change"}, {"time": 1537, "annotation": {"number": 64, "value": 0}, "group": "control_change"}, {"time": 1549, "annotation": {"number": 64, "value": 127}, "group": "control_change"}, {"time": 1559, "annotation": {"number": 64, "value": 0}, "group": "control_change"}, {"time": 1564, "annotation": {"number": 64, "value": 127}, "group": "control_change"}, {"time": 1609, "annotation": {"number": 64, "value": 0}, "group": "control_change"}, {"time": 1616, "annotation": {"number": 64, "value": 127}, "group": "control_change"}, {"time": 1656, "annotation": {"number": 64, "value": 0}, "group": "control_change"}, {"time": 1663, "annotation": {"number": 64, "value": 127}, "group": "control_change"}, {"time": 1712, "annotation": {"number": 64, "value": 127}, "group": "control_change"}, {"time": 1712, "annotation": {"number": 64, "value": 0}, "group": "control_change"}, {"time": 1728, "annotation": {"number": 64, "value": 0}, "group": "control_change"}, {"time": 1734, "annotation": {"number": 64, "value": 127}, "group": "control_change"}, {"time": 1750, "annotation": {"number": 64, "value": 0}, "group": "control_change"}, {"time": 1752, "annotation": {"number": 64, "value": 127}, "group": "control_change"}, {"time": 1801, "annotation": {"number": 64, "value": 0}, "group": "control_change"}, {"time": 1806, "annotation": {"number": 64, "value": 127}, "group": "control_change"}, {"time": 1846, "annotation": {"number": 64, "value": 0}, "group": "control_change"}, {"time": 1853, "annotation": {"number": 64, "value": 127}, "group": "control_change"}, {"time": 1895, "annotation": {"number": 64, "value": 0}, "group": "control_change"}, {"time": 1903, "annotation": {"number": 64, "value": 127}, "group": "control_change"}, {"time": 1944, "annotation": {"number": 64, "value": 0}, "group": "control_change"}, {"time": 1950, "annotation": {"number": 64, "value": 127}, "group": "control_change"}, {"time": 1990, "annotation": {"number": 64, "value": 0}, "group": "control_change"}, {"time": 1997, "annotation": {"number": 64, "value": 127}, "group": "control_change"}, {"time": 2040, "annotation": {"number": 64, "value": 0}, "group": "control_change"}, {"time": 2046, "annotation": {"number": 64, "value": 127}, "group": "control_change"}, {"time": 2089, "annotation": {"number": 64, "value": 0}, "group": "control_change"}, {"time": 2095, "annotation": {"number": 64, "value": 127}, "group": "control_change"}, {"time": 2112, "annotation": {"number": 64, "value": 0}, "group": "control_change"}, {"time": 2115, "annotation": {"number": 64, "value": 127}, "group": "control_change"}, {"time": 2136, "annotation": {"number": 64, "value": 0}, "group": "control_change"}, {"time": 2138, "annotation": {"number": 64, "value": 127}, "group": "control_change"}, {"time": 2160, "annotation": {"number": 64, "value": 0}, "group": "control_change"}, {"time": 2165, "annotation": {"number": 64, "value": 127}, "group": "control_change"}, {"time": 2183, "annotation": {"number": 64, "value": 0}, "group": "control_change"}, {"time": 2190, "annotation": {"number": 64, "value": 127}, "group": "control_change"}, {"time": 2208, "annotation": {"number": 64, "value": 0}, "group": "control_change"}, {"time": 2214, "annotation": {"number": 64, "value": 127}, "group": "control_change"}, {"time": 2232, "annotation": {"number": 64, "value": 0}, "group": "control_change"}, {"time": 2235, "annotation": {"number": 64, "value": 127}, "group": "control_change"}, {"time": 2257, "annotation": {"number": 64, "value": 0}, "group": "control_change"}, {"time": 2260, "annotation": {"number": 64, "value": 127}, "group": "control_change"}, {"time": 2280, "annotation": {"number": 64, "value": 0}, "group": "control_change"}, {"time": 2281, "annotation": {"number": 64, "value": 127}, "group": "control_change"}, {"time": 2305, "annotation": {"number": 64, "value": 0}, "group": "control_change"}, {"time": 2309, "annotation": {"number": 64, "value": 127}, "group": "control_change"}, {"time": 2328, "annotation": {"number": 64, "value": 0}, "group": "control_change"}, {"time": 2333, "annotation": {"number": 64, "value": 127}, "group": "control_change"}, {"time": 2376, "annotation": {"number": 64, "value": 0}, "group": "control_change"}, {"time": 2381, "annotation": {"number": 64, "value": 127}, "group": "control_change"}, {"time": 2401, "annotation": {"number": 64, "value": 0}, "group": "control_change"}, {"time": 2406, "annotation": {"number": 64, "value": 127}, "group": "control_change"}, {"time": 2424, "annotation": {"number": 64, "value": 0}, "group": "control_change"}, {"time": 2429, "annotation": {"number": 64, "value": 127}, "group": "control_change"}, {"time": 2446, "annotation": {"number": 64, "value": 0}, "group": "control_change"}, {"time": 2451, "annotation": {"number": 64, "value": 127}, "group": "control_change"}, {"time": 2472, "annotation": {"number": 64, "value": 0}, "group": "control_change"}, {"time": 2477, "annotation": {"number": 64, "value": 127}, "group": "control_change"}, {"time": 2496, "annotation": {"number": 64, "value": 0}, "group": "control_change"}, {"time": 2498, "annotation": {"number": 64, "value": 127}, "group": "control_change"}, {"time": 2519, "annotation": {"number": 64, "value": 0}, "group": "control_change"}, {"time": 2525, "annotation": {"number": 64, "value": 127}, "group": "control_change"}, {"time": 2545, "annotation": {"number": 64, "value": 0}, "group": "control_change"}, {"time": 2547, "annotation": {"number": 64, "value": 127}, "group": "control_change"}, {"time": 2566, "annotation": {"number": 64, "value": 0}, "group": "control_change"}, {"time": 2571, "annotation": {"number": 64, "value": 127}, "group": "control_change"}, {"time": 2593, "annotation": {"number": 64, "value": 0}, "group": "control_change"}, {"time": 2595, "annotation": {"number": 64, "value": 127}, "group": "control_change"}, {"time": 2614, "annotation": {"number": 64, "value": 0}, "group": "control_change"}, {"time": 2616, "annotation": {"number": 64, "value": 127}, "group": "control_change"}, {"time": 2640, "annotation": {"number": 64, "value": 0}, "group": "control_change"}, {"time": 2647, "annotation": {"number": 64, "value": 127}, "group": "control_change"}, {"time": 2665, "annotation": {"number": 64, "value": 0}, "group": "control_change"}, {"time": 2671, "annotation": {"number": 64, "value": 127}, "group": "control_change"}, {"time": 2711, "annotation": {"number": 64, "value": 0}, "group": "control_change"}, {"time": 2737, "annotation": {"number": 64, "value": 0}, "group": "control_change"}, {"time": 2742, "annotation": {"number": 64, "value": 127}, "group": "control_change"}, {"time": 2760, "annotation": {"number": 64, "value": 0}, "group": "control_change"}, {"time": 2762, "annotation": {"number": 64, "value": 127}, "group": "control_change"}, {"time": 2783, "annotation": {"number": 64, "value": 0}, "group": "control_change"}, {"time": 2786, "annotation": {"number": 64, "value": 127}, "group": "control_change"}, {"time": 2807, "annotation": {"number": 64, "value": 0}, "group": "control_change"}, {"time": 2812, "annotation": {"number": 64, "value": 127}, "group": "control_change"}, {"time": 2862, "annotation": {"number": 64, "value": 0}, "group": "control_change"}, {"time": 2863, "annotation": {"number": 64, "value": 127}, "group": "control_change"}, {"time": 2928, "annotation": {"number": 64, "value": 0}, "group": "control_change"}]}]}