{"metadata": {"schema_version": "0.2", "title": "None", "source_filename": "495.mid", "source_format": "midi"}, "resolution": 12, "tempos": [{"time": 0, "qpm": 128.0}], "time_signatures": [{"time": 0, "numerator": 1, "denominator": 4}], "tracks": [{"program": 0, "is_drum": false, "name": "MELODY", "notes": [{"time": 643, "pitch": 70, "duration": 10, "velocity": 95}, {"time": 655, "pitch": 73, "duration": 3, "velocity": 90}, {"time": 661, "pitch": 73, "duration": 5, "velocity": 94}, {"time": 667, "pitch": 70, "duration": 4, "velocity": 90}, {"time": 673, "pitch": 75, "duration": 8, "velocity": 92}, {"time": 685, "pitch": 75, "duration": 9, "velocity": 94}, {"time": 697, "pitch": 75, "duration": 7, "velocity": 94}, {"time": 709, "pitch": 73, "duration": 4, "velocity": 91}, {"time": 715, "pitch": 77, "duration": 9, "velocity": 90}, {"time": 727, "pitch": 75, "duration": 9, "velocity": 99}, {"time": 739, "pitch": 70, "duration": 9, "velocity": 89}, {"time": 751, "pitch": 73, "duration": 4, "velocity": 87}, {"time": 757, "pitch": 73, "duration": 5, "velocity": 89}, {"time": 763, "pitch": 70, "duration": 4, "velocity": 89}, {"time": 769, "pitch": 73, "duration": 9, "velocity": 89}, {"time": 781, "pitch": 73, "duration": 10, "velocity": 93}, {"time": 793, "pitch": 73, "duration": 3, "velocity": 89}, {"time": 799, "pitch": 73, "duration": 6, "velocity": 89}, {"time": 811, "pitch": 70, "duration": 19, "velocity": 92}, {"time": 835, "pitch": 70, "duration": 10, "velocity": 88}, {"time": 847, "pitch": 73, "duration": 3, "velocity": 85}, {"time": 853, "pitch": 73, "duration": 5, "velocity": 84}, {"time": 859, "pitch": 70, "duration": 6, "velocity": 88}, {"time": 865, "pitch": 75, "duration": 8, "velocity": 90}, {"time": 877, "pitch": 75, "duration": 9, "velocity": 92}, {"time": 889, "pitch": 75, "duration": 9, "velocity": 92}, {"time": 901, "pitch": 73, "duration": 4, "velocity": 90}, {"time": 907, "pitch": 77, "duration": 9, "velocity": 90}, {"time": 919, "pitch": 75, "duration": 9, "velocity": 90}, {"time": 931, "pitch": 70, "duration": 3, "velocity": 89}, {"time": 937, "pitch": 70, "duration": 5, "velocity": 88}, {"time": 943, "pitch": 73, "duration": 3, "velocity": 89}, {"time": 949, "pitch": 73, "duration": 4, "velocity": 90}, {"time": 955, "pitch": 70, "duration": 4, "velocity": 88}, {"time": 961, "pitch": 73, "duration": 18, "velocity": 93}, {"time": 1027, "pitch": 70, "duration": 10, "velocity": 95}, {"time": 1039, "pitch": 73, "duration": 3, "velocity": 90}, {"time": 1045, "pitch": 73, "duration": 5, "velocity": 94}, {"time": 1051, "pitch": 70, "duration": 4, "velocity": 90}, {"time": 1057, "pitch": 75, "duration": 8, "velocity": 92}, {"time": 1069, "pitch": 75, "duration": 9, "velocity": 94}, {"time": 1081, "pitch": 75, "duration": 7, "velocity": 94}, {"time": 1093, "pitch": 73, "duration": 4, "velocity": 91}, {"time": 1099, "pitch": 77, "duration": 9, "velocity": 90}, {"time": 1111, "pitch": 75, "duration": 9, "velocity": 99}, {"time": 1123, "pitch": 70, "duration": 9, "velocity": 89}, {"time": 1135, "pitch": 73, "duration": 4, "velocity": 87}, {"time": 1141, "pitch": 73, "duration": 5, "velocity": 89}, {"time": 1147, "pitch": 70, "duration": 4, "velocity": 89}, {"time": 1153, "pitch": 73, "duration": 9, "velocity": 89}, {"time": 1165, "pitch": 73, "duration": 10, "velocity": 93}, {"time": 1177, "pitch": 73, "duration": 3, "velocity": 89}, {"time": 1183, "pitch": 73, "duration": 6, "velocity": 89}, {"time": 1195, "pitch": 70, "duration": 19, "velocity": 92}, {"time": 1219, "pitch": 70, "duration": 10, "velocity": 88}, {"time": 1231, "pitch": 73, "duration": 3, "velocity": 85}, {"time": 1237, "pitch": 73, "duration": 5, "velocity": 84}, {"time": 1243, "pitch": 70, "duration": 6, "velocity": 88}, {"time": 1249, "pitch": 75, "duration": 8, "velocity": 90}, {"time": 1261, "pitch": 75, "duration": 9, "velocity": 92}, {"time": 1273, "pitch": 75, "duration": 9, "velocity": 92}, {"time": 1285, "pitch": 73, "duration": 4, "velocity": 90}, {"time": 1291, "pitch": 77, "duration": 9, "velocity": 90}, {"time": 1303, "pitch": 75, "duration": 9, "velocity": 90}, {"time": 1315, "pitch": 70, "duration": 3, "velocity": 89}, {"time": 1321, "pitch": 70, "duration": 5, "velocity": 88}, {"time": 1327, "pitch": 73, "duration": 3, "velocity": 89}, {"time": 1333, "pitch": 73, "duration": 4, "velocity": 90}, {"time": 1339, "pitch": 70, "duration": 4, "velocity": 88}, {"time": 1345, "pitch": 73, "duration": 18, "velocity": 93}, {"time": 1411, "pitch": 77, "duration": 10, "velocity": 94}, {"time": 1423, "pitch": 80, "duration": 4, "velocity": 86}, {"time": 1429, "pitch": 80, "duration": 4, "velocity": 88}, {"time": 1435, "pitch": 77, "duration": 4, "velocity": 91}, {"time": 1441, "pitch": 82, "duration": 9, "velocity": 88}, {"time": 1453, "pitch": 82, "duration": 9, "velocity": 88}, {"time": 1465, "pitch": 82, "duration": 9, "velocity": 88}, {"time": 1477, "pitch": 82, "duration": 3, "velocity": 79}, {"time": 1483, "pitch": 82, "duration": 9, "velocity": 89}, {"time": 1495, "pitch": 80, "duration": 8, "velocity": 89}, {"time": 1507, "pitch": 80, "duration": 9, "velocity": 81}, {"time": 1519, "pitch": 80, "duration": 3, "velocity": 90}, {"time": 1525, "pitch": 80, "duration": 4, "velocity": 88}, {"time": 1531, "pitch": 77, "duration": 4, "velocity": 89}, {"time": 1537, "pitch": 80, "duration": 8, "velocity": 89}, {"time": 1549, "pitch": 80, "duration": 9, "velocity": 90}, {"time": 1561, "pitch": 80, "duration": 9, "velocity": 89}, {"time": 1573, "pitch": 80, "duration": 5, "velocity": 87}, {"time": 1579, "pitch": 77, "duration": 20, "velocity": 92}, {"time": 1603, "pitch": 77, "duration": 10, "velocity": 94}, {"time": 1615, "pitch": 80, "duration": 4, "velocity": 86}, {"time": 1621, "pitch": 80, "duration": 4, "velocity": 88}, {"time": 1627, "pitch": 77, "duration": 4, "velocity": 91}, {"time": 1633, "pitch": 82, "duration": 9, "velocity": 88}, {"time": 1645, "pitch": 82, "duration": 9, "velocity": 88}, {"time": 1657, "pitch": 82, "duration": 9, "velocity": 88}, {"time": 1669, "pitch": 82, "duration": 3, "velocity": 79}, {"time": 1675, "pitch": 82, "duration": 9, "velocity": 89}, {"time": 1687, "pitch": 80, "duration": 8, "velocity": 89}, {"time": 1699, "pitch": 80, "duration": 9, "velocity": 81}, {"time": 1711, "pitch": 80, "duration": 3, "velocity": 90}, {"time": 1717, "pitch": 80, "duration": 4, "velocity": 88}, {"time": 1723, "pitch": 77, "duration": 4, "velocity": 89}, {"time": 1729, "pitch": 80, "duration": 8, "velocity": 89}, {"time": 1741, "pitch": 80, "duration": 9, "velocity": 90}, {"time": 1753, "pitch": 80, "duration": 9, "velocity": 89}, {"time": 1765, "pitch": 80, "duration": 5, "velocity": 87}, {"time": 1771, "pitch": 82, "duration": 20, "velocity": 92}, {"time": 1795, "pitch": 77, "duration": 9, "velocity": 92}, {"time": 1807, "pitch": 75, "duration": 3, "velocity": 93}, {"time": 1813, "pitch": 75, "duration": 3, "velocity": 88}, {"time": 1819, "pitch": 73, "duration": 3, "velocity": 88}, {"time": 1825, "pitch": 75, "duration": 14, "velocity": 90}, {"time": 1843, "pitch": 77, "duration": 9, "velocity": 88}, {"time": 1855, "pitch": 75, "duration": 4, "velocity": 90}, {"time": 1861, "pitch": 75, "duration": 4, "velocity": 90}, {"time": 1867, "pitch": 73, "duration": 4, "velocity": 88}, {"time": 1873, "pitch": 75, "duration": 13, "velocity": 90}, {"time": 1891, "pitch": 77, "duration": 10, "velocity": 90}, {"time": 1903, "pitch": 75, "duration": 3, "velocity": 94}, {"time": 1909, "pitch": 75, "duration": 4, "velocity": 89}, {"time": 1915, "pitch": 73, "duration": 4, "velocity": 89}, {"time": 1921, "pitch": 73, "duration": 31, "velocity": 92}, {"time": 1987, "pitch": 77, "duration": 8, "velocity": 91}, {"time": 1999, "pitch": 75, "duration": 3, "velocity": 89}, {"time": 2005, "pitch": 75, "duration": 4, "velocity": 92}, {"time": 2011, "pitch": 73, "duration": 4, "velocity": 86}, {"time": 2017, "pitch": 75, "duration": 15, "velocity": 92}, {"time": 2035, "pitch": 77, "duration": 9, "velocity": 90}, {"time": 2047, "pitch": 75, "duration": 3, "velocity": 90}, {"time": 2053, "pitch": 75, "duration": 4, "velocity": 89}, {"time": 2059, "pitch": 73, "duration": 4, "velocity": 88}, {"time": 2065, "pitch": 75, "duration": 14, "velocity": 90}, {"time": 2083, "pitch": 77, "duration": 10, "velocity": 88}, {"time": 2095, "pitch": 75, "duration": 3, "velocity": 90}, {"time": 2101, "pitch": 75, "duration": 3, "velocity": 94}, {"time": 2107, "pitch": 73, "duration": 3, "velocity": 89}, {"time": 2113, "pitch": 73, "duration": 45, "velocity": 89}, {"time": 2179, "pitch": 70, "duration": 10, "velocity": 95}, {"time": 2191, "pitch": 73, "duration": 3, "velocity": 90}, {"time": 2197, "pitch": 73, "duration": 5, "velocity": 94}, {"time": 2203, "pitch": 70, "duration": 4, "velocity": 90}, {"time": 2209, "pitch": 75, "duration": 8, "velocity": 92}, {"time": 2221, "pitch": 75, "duration": 9, "velocity": 94}, {"time": 2233, "pitch": 75, "duration": 7, "velocity": 94}, {"time": 2245, "pitch": 73, "duration": 4, "velocity": 91}, {"time": 2251, "pitch": 77, "duration": 9, "velocity": 90}, {"time": 2263, "pitch": 75, "duration": 9, "velocity": 99}, {"time": 2275, "pitch": 70, "duration": 9, "velocity": 89}, {"time": 2287, "pitch": 73, "duration": 4, "velocity": 87}, {"time": 2293, "pitch": 73, "duration": 5, "velocity": 89}, {"time": 2299, "pitch": 70, "duration": 4, "velocity": 89}, {"time": 2305, "pitch": 73, "duration": 9, "velocity": 89}, {"time": 2317, "pitch": 73, "duration": 10, "velocity": 93}, {"time": 2329, "pitch": 73, "duration": 3, "velocity": 89}, {"time": 2335, "pitch": 73, "duration": 6, "velocity": 89}, {"time": 2347, "pitch": 70, "duration": 19, "velocity": 92}, {"time": 2371, "pitch": 70, "duration": 10, "velocity": 88}, {"time": 2383, "pitch": 73, "duration": 3, "velocity": 85}, {"time": 2389, "pitch": 73, "duration": 5, "velocity": 84}, {"time": 2395, "pitch": 70, "duration": 6, "velocity": 88}, {"time": 2401, "pitch": 75, "duration": 8, "velocity": 90}, {"time": 2413, "pitch": 75, "duration": 9, "velocity": 92}, {"time": 2425, "pitch": 75, "duration": 9, "velocity": 92}, {"time": 2437, "pitch": 73, "duration": 4, "velocity": 90}, {"time": 2443, "pitch": 77, "duration": 9, "velocity": 90}, {"time": 2455, "pitch": 75, "duration": 9, "velocity": 90}, {"time": 2467, "pitch": 70, "duration": 3, "velocity": 89}, {"time": 2473, "pitch": 70, "duration": 5, "velocity": 88}, {"time": 2479, "pitch": 73, "duration": 3, "velocity": 89}, {"time": 2485, "pitch": 73, "duration": 4, "velocity": 90}, {"time": 2491, "pitch": 70, "duration": 4, "velocity": 88}, {"time": 2497, "pitch": 73, "duration": 18, "velocity": 93}, {"time": 2563, "pitch": 77, "duration": 10, "velocity": 94}, {"time": 2575, "pitch": 80, "duration": 4, "velocity": 86}, {"time": 2581, "pitch": 80, "duration": 4, "velocity": 88}, {"time": 2587, "pitch": 77, "duration": 4, "velocity": 91}, {"time": 2593, "pitch": 82, "duration": 9, "velocity": 88}, {"time": 2605, "pitch": 82, "duration": 9, "velocity": 88}, {"time": 2617, "pitch": 82, "duration": 9, "velocity": 88}, {"time": 2629, "pitch": 82, "duration": 3, "velocity": 79}, {"time": 2635, "pitch": 82, "duration": 9, "velocity": 89}, {"time": 2647, "pitch": 80, "duration": 8, "velocity": 89}, {"time": 2659, "pitch": 80, "duration": 9, "velocity": 81}, {"time": 2671, "pitch": 80, "duration": 3, "velocity": 90}, {"time": 2677, "pitch": 80, "duration": 4, "velocity": 88}, {"time": 2683, "pitch": 77, "duration": 4, "velocity": 89}, {"time": 2689, "pitch": 80, "duration": 8, "velocity": 89}, {"time": 2701, "pitch": 80, "duration": 9, "velocity": 90}, {"time": 2713, "pitch": 80, "duration": 9, "velocity": 89}, {"time": 2725, "pitch": 80, "duration": 5, "velocity": 87}, {"time": 2731, "pitch": 77, "duration": 20, "velocity": 92}, {"time": 2755, "pitch": 77, "duration": 10, "velocity": 94}, {"time": 2767, "pitch": 80, "duration": 4, "velocity": 86}, {"time": 2773, "pitch": 80, "duration": 4, "velocity": 88}, {"time": 2779, "pitch": 77, "duration": 4, "velocity": 91}, {"time": 2785, "pitch": 82, "duration": 9, "velocity": 88}, {"time": 2797, "pitch": 82, "duration": 9, "velocity": 88}, {"time": 2809, "pitch": 82, "duration": 9, "velocity": 88}, {"time": 2821, "pitch": 82, "duration": 3, "velocity": 79}, {"time": 2827, "pitch": 82, "duration": 9, "velocity": 89}, {"time": 2839, "pitch": 80, "duration": 8, "velocity": 89}, {"time": 2851, "pitch": 80, "duration": 9, "velocity": 81}, {"time": 2863, "pitch": 80, "duration": 3, "velocity": 90}, {"time": 2869, "pitch": 80, "duration": 4, "velocity": 88}, {"time": 2875, "pitch": 77, "duration": 4, "velocity": 89}, {"time": 2881, "pitch": 80, "duration": 8, "velocity": 89}, {"time": 2893, "pitch": 80, "duration": 9, "velocity": 90}, {"time": 2905, "pitch": 80, "duration": 9, "velocity": 89}, {"time": 2917, "pitch": 80, "duration": 5, "velocity": 87}, {"time": 2923, "pitch": 82, "duration": 20, "velocity": 92}, {"time": 2947, "pitch": 77, "duration": 9, "velocity": 92}, {"time": 2959, "pitch": 75, "duration": 3, "velocity": 93}, {"time": 2965, "pitch": 75, "duration": 3, "velocity": 88}, {"time": 2971, "pitch": 73, "duration": 3, "velocity": 88}, {"time": 2977, "pitch": 75, "duration": 14, "velocity": 90}, {"time": 2995, "pitch": 77, "duration": 9, "velocity": 88}, {"time": 3007, "pitch": 75, "duration": 4, "velocity": 90}, {"time": 3013, "pitch": 75, "duration": 4, "velocity": 90}, {"time": 3019, "pitch": 73, "duration": 4, "velocity": 88}, {"time": 3025, "pitch": 75, "duration": 13, "velocity": 90}, {"time": 3043, "pitch": 77, "duration": 10, "velocity": 90}, {"time": 3055, "pitch": 75, "duration": 3, "velocity": 94}, {"time": 3061, "pitch": 75, "duration": 4, "velocity": 89}, {"time": 3067, "pitch": 73, "duration": 4, "velocity": 89}, {"time": 3073, "pitch": 73, "duration": 31, "velocity": 92}, {"time": 3139, "pitch": 77, "duration": 8, "velocity": 91}, {"time": 3151, "pitch": 75, "duration": 3, "velocity": 89}, {"time": 3157, "pitch": 75, "duration": 4, "velocity": 92}, {"time": 3163, "pitch": 73, "duration": 4, "velocity": 86}, {"time": 3169, "pitch": 75, "duration": 15, "velocity": 92}, {"time": 3187, "pitch": 77, "duration": 9, "velocity": 90}, {"time": 3199, "pitch": 75, "duration": 3, "velocity": 90}, {"time": 3205, "pitch": 75, "duration": 4, "velocity": 89}, {"time": 3211, "pitch": 73, "duration": 4, "velocity": 88}, {"time": 3217, "pitch": 75, "duration": 14, "velocity": 90}, {"time": 3235, "pitch": 77, "duration": 10, "velocity": 88}, {"time": 3247, "pitch": 75, "duration": 3, "velocity": 90}, {"time": 3253, "pitch": 75, "duration": 3, "velocity": 94}, {"time": 3259, "pitch": 73, "duration": 3, "velocity": 89}, {"time": 3265, "pitch": 73, "duration": 45, "velocity": 89}, {"time": 3715, "pitch": 70, "duration": 10, "velocity": 95}, {"time": 3727, "pitch": 73, "duration": 3, "velocity": 90}, {"time": 3733, "pitch": 73, "duration": 5, "velocity": 94}, {"time": 3739, "pitch": 70, "duration": 4, "velocity": 90}, {"time": 3745, "pitch": 75, "duration": 8, "velocity": 92}, {"time": 3757, "pitch": 75, "duration": 9, "velocity": 94}, {"time": 3769, "pitch": 75, "duration": 7, "velocity": 94}, {"time": 3781, "pitch": 73, "duration": 4, "velocity": 91}, {"time": 3787, "pitch": 77, "duration": 9, "velocity": 90}, {"time": 3799, "pitch": 75, "duration": 9, "velocity": 99}, {"time": 3811, "pitch": 70, "duration": 9, "velocity": 89}, {"time": 3823, "pitch": 73, "duration": 4, "velocity": 87}, {"time": 3829, "pitch": 73, "duration": 5, "velocity": 89}, {"time": 3835, "pitch": 70, "duration": 4, "velocity": 89}, {"time": 3841, "pitch": 73, "duration": 9, "velocity": 89}, {"time": 3853, "pitch": 73, "duration": 10, "velocity": 93}, {"time": 3865, "pitch": 73, "duration": 3, "velocity": 89}, {"time": 3871, "pitch": 73, "duration": 6, "velocity": 89}, {"time": 3883, "pitch": 70, "duration": 19, "velocity": 92}, {"time": 3907, "pitch": 70, "duration": 10, "velocity": 88}, {"time": 3919, "pitch": 73, "duration": 3, "velocity": 85}, {"time": 3925, "pitch": 73, "duration": 5, "velocity": 84}, {"time": 3931, "pitch": 70, "duration": 6, "velocity": 88}, {"time": 3937, "pitch": 75, "duration": 8, "velocity": 90}, {"time": 3949, "pitch": 75, "duration": 9, "velocity": 92}, {"time": 3961, "pitch": 75, "duration": 9, "velocity": 92}, {"time": 3973, "pitch": 73, "duration": 4, "velocity": 90}, {"time": 3979, "pitch": 77, "duration": 9, "velocity": 90}, {"time": 3991, "pitch": 75, "duration": 9, "velocity": 90}, {"time": 4003, "pitch": 70, "duration": 3, "velocity": 89}, {"time": 4009, "pitch": 70, "duration": 5, "velocity": 88}, {"time": 4015, "pitch": 73, "duration": 3, "velocity": 89}, {"time": 4021, "pitch": 73, "duration": 4, "velocity": 90}, {"time": 4027, "pitch": 70, "duration": 4, "velocity": 88}, {"time": 4033, "pitch": 73, "duration": 18, "velocity": 93}, {"time": 4099, "pitch": 77, "duration": 10, "velocity": 94}, {"time": 4111, "pitch": 80, "duration": 4, "velocity": 86}, {"time": 4117, "pitch": 80, "duration": 4, "velocity": 88}, {"time": 4123, "pitch": 77, "duration": 4, "velocity": 91}, {"time": 4129, "pitch": 82, "duration": 9, "velocity": 88}, {"time": 4141, "pitch": 82, "duration": 9, "velocity": 88}, {"time": 4153, "pitch": 82, "duration": 9, "velocity": 88}, {"time": 4165, "pitch": 82, "duration": 3, "velocity": 79}, {"time": 4171, "pitch": 82, "duration": 9, "velocity": 89}, {"time": 4183, "pitch": 80, "duration": 8, "velocity": 89}, {"time": 4195, "pitch": 80, "duration": 9, "velocity": 81}, {"time": 4207, "pitch": 80, "duration": 3, "velocity": 90}, {"time": 4213, "pitch": 80, "duration": 4, "velocity": 88}, {"time": 4219, "pitch": 77, "duration": 4, "velocity": 89}, {"time": 4225, "pitch": 80, "duration": 8, "velocity": 89}, {"time": 4237, "pitch": 80, "duration": 9, "velocity": 90}, {"time": 4249, "pitch": 80, "duration": 9, "velocity": 89}, {"time": 4261, "pitch": 80, "duration": 5, "velocity": 87}, {"time": 4267, "pitch": 77, "duration": 20, "velocity": 92}, {"time": 4291, "pitch": 77, "duration": 10, "velocity": 94}, {"time": 4303, "pitch": 80, "duration": 4, "velocity": 86}, {"time": 4309, "pitch": 80, "duration": 4, "velocity": 88}, {"time": 4315, "pitch": 77, "duration": 4, "velocity": 91}, {"time": 4321, "pitch": 82, "duration": 9, "velocity": 88}, {"time": 4333, "pitch": 82, "duration": 9, "velocity": 88}, {"time": 4345, "pitch": 82, "duration": 9, "velocity": 88}, {"time": 4357, "pitch": 82, "duration": 3, "velocity": 79}, {"time": 4363, "pitch": 82, "duration": 9, "velocity": 89}, {"time": 4375, "pitch": 80, "duration": 8, "velocity": 89}, {"time": 4387, "pitch": 80, "duration": 9, "velocity": 81}, {"time": 4399, "pitch": 80, "duration": 3, "velocity": 90}, {"time": 4405, "pitch": 80, "duration": 4, "velocity": 88}, {"time": 4411, "pitch": 77, "duration": 4, "velocity": 89}, {"time": 4417, "pitch": 80, "duration": 8, "velocity": 89}, {"time": 4429, "pitch": 80, "duration": 9, "velocity": 90}, {"time": 4441, "pitch": 80, "duration": 9, "velocity": 89}, {"time": 4453, "pitch": 80, "duration": 5, "velocity": 87}, {"time": 4459, "pitch": 82, "duration": 20, "velocity": 92}, {"time": 4483, "pitch": 77, "duration": 9, "velocity": 92}, {"time": 4495, "pitch": 75, "duration": 3, "velocity": 93}, {"time": 4501, "pitch": 75, "duration": 3, "velocity": 88}, {"time": 4507, "pitch": 73, "duration": 3, "velocity": 88}, {"time": 4513, "pitch": 75, "duration": 14, "velocity": 90}, {"time": 4531, "pitch": 77, "duration": 9, "velocity": 88}, {"time": 4543, "pitch": 75, "duration": 4, "velocity": 90}, {"time": 4549, "pitch": 75, "duration": 4, "velocity": 90}, {"time": 4555, "pitch": 73, "duration": 4, "velocity": 88}, {"time": 4561, "pitch": 75, "duration": 13, "velocity": 90}, {"time": 4579, "pitch": 77, "duration": 10, "velocity": 90}, {"time": 4591, "pitch": 75, "duration": 3, "velocity": 94}, {"time": 4597, "pitch": 75, "duration": 4, "velocity": 89}, {"time": 4603, "pitch": 73, "duration": 4, "velocity": 89}, {"time": 4609, "pitch": 73, "duration": 31, "velocity": 92}, {"time": 4675, "pitch": 77, "duration": 8, "velocity": 91}, {"time": 4687, "pitch": 75, "duration": 3, "velocity": 89}, {"time": 4693, "pitch": 75, "duration": 4, "velocity": 92}, {"time": 4699, "pitch": 73, "duration": 4, "velocity": 86}, {"time": 4705, "pitch": 75, "duration": 15, "velocity": 92}, {"time": 4723, "pitch": 77, "duration": 9, "velocity": 90}, {"time": 4735, "pitch": 75, "duration": 3, "velocity": 90}, {"time": 4741, "pitch": 75, "duration": 4, "velocity": 89}, {"time": 4747, "pitch": 73, "duration": 4, "velocity": 88}, {"time": 4753, "pitch": 75, "duration": 14, "velocity": 90}, {"time": 4771, "pitch": 77, "duration": 10, "velocity": 88}, {"time": 4783, "pitch": 75, "duration": 3, "velocity": 90}, {"time": 4789, "pitch": 75, "duration": 3, "velocity": 94}, {"time": 4795, "pitch": 73, "duration": 3, "velocity": 89}, {"time": 4801, "pitch": 73, "duration": 45, "velocity": 89}, {"time": 4867, "pitch": 77, "duration": 10, "velocity": 94}, {"time": 4879, "pitch": 80, "duration": 4, "velocity": 86}, {"time": 4885, "pitch": 80, "duration": 4, "velocity": 88}, {"time": 4891, "pitch": 77, "duration": 4, "velocity": 91}, {"time": 4897, "pitch": 82, "duration": 9, "velocity": 88}, {"time": 4909, "pitch": 82, "duration": 9, "velocity": 88}, {"time": 4921, "pitch": 82, "duration": 9, "velocity": 88}, {"time": 4933, "pitch": 82, "duration": 3, "velocity": 79}, {"time": 4939, "pitch": 82, "duration": 9, "velocity": 89}, {"time": 4951, "pitch": 80, "duration": 8, "velocity": 89}, {"time": 4963, "pitch": 80, "duration": 9, "velocity": 81}, {"time": 4975, "pitch": 80, "duration": 3, "velocity": 90}, {"time": 4981, "pitch": 80, "duration": 4, "velocity": 88}, {"time": 4987, "pitch": 77, "duration": 4, "velocity": 89}, {"time": 4993, "pitch": 80, "duration": 8, "velocity": 89}, {"time": 5005, "pitch": 80, "duration": 9, "velocity": 90}, {"time": 5017, "pitch": 80, "duration": 9, "velocity": 89}, {"time": 5029, "pitch": 80, "duration": 5, "velocity": 87}, {"time": 5035, "pitch": 77, "duration": 20, "velocity": 92}, {"time": 5059, "pitch": 77, "duration": 10, "velocity": 94}, {"time": 5071, "pitch": 80, "duration": 4, "velocity": 86}, {"time": 5077, "pitch": 80, "duration": 4, "velocity": 88}, {"time": 5083, "pitch": 77, "duration": 4, "velocity": 91}, {"time": 5089, "pitch": 82, "duration": 9, "velocity": 88}, {"time": 5101, "pitch": 82, "duration": 9, "velocity": 88}, {"time": 5113, "pitch": 82, "duration": 9, "velocity": 88}, {"time": 5125, "pitch": 82, "duration": 3, "velocity": 79}, {"time": 5131, "pitch": 82, "duration": 9, "velocity": 89}, {"time": 5143, "pitch": 80, "duration": 8, "velocity": 89}, {"time": 5155, "pitch": 80, "duration": 9, "velocity": 81}, {"time": 5167, "pitch": 80, "duration": 3, "velocity": 90}, {"time": 5173, "pitch": 80, "duration": 4, "velocity": 88}, {"time": 5179, "pitch": 77, "duration": 4, "velocity": 89}, {"time": 5185, "pitch": 80, "duration": 8, "velocity": 89}, {"time": 5197, "pitch": 80, "duration": 9, "velocity": 90}, {"time": 5209, "pitch": 80, "duration": 9, "velocity": 89}, {"time": 5221, "pitch": 80, "duration": 5, "velocity": 87}, {"time": 5227, "pitch": 82, "duration": 20, "velocity": 92}, {"time": 5251, "pitch": 77, "duration": 9, "velocity": 92}, {"time": 5263, "pitch": 75, "duration": 3, "velocity": 93}, {"time": 5269, "pitch": 75, "duration": 3, "velocity": 88}, {"time": 5275, "pitch": 73, "duration": 3, "velocity": 88}, {"time": 5281, "pitch": 75, "duration": 14, "velocity": 90}, {"time": 5299, "pitch": 77, "duration": 9, "velocity": 88}, {"time": 5311, "pitch": 75, "duration": 4, "velocity": 90}, {"time": 5317, "pitch": 75, "duration": 4, "velocity": 90}, {"time": 5323, "pitch": 73, "duration": 4, "velocity": 88}, {"time": 5329, "pitch": 75, "duration": 13, "velocity": 90}, {"time": 5347, "pitch": 77, "duration": 10, "velocity": 90}, {"time": 5359, "pitch": 75, "duration": 3, "velocity": 94}, {"time": 5365, "pitch": 75, "duration": 4, "velocity": 89}, {"time": 5371, "pitch": 73, "duration": 4, "velocity": 89}, {"time": 5377, "pitch": 73, "duration": 31, "velocity": 92}, {"time": 5443, "pitch": 77, "duration": 8, "velocity": 91}, {"time": 5455, "pitch": 75, "duration": 3, "velocity": 89}, {"time": 5461, "pitch": 75, "duration": 4, "velocity": 92}, {"time": 5467, "pitch": 73, "duration": 4, "velocity": 86}, {"time": 5473, "pitch": 75, "duration": 15, "velocity": 92}, {"time": 5491, "pitch": 77, "duration": 9, "velocity": 90}, {"time": 5503, "pitch": 75, "duration": 3, "velocity": 90}, {"time": 5509, "pitch": 75, "duration": 4, "velocity": 89}, {"time": 5515, "pitch": 73, "duration": 4, "velocity": 88}, {"time": 5521, "pitch": 75, "duration": 14, "velocity": 90}, {"time": 5539, "pitch": 77, "duration": 10, "velocity": 88}, {"time": 5551, "pitch": 75, "duration": 3, "velocity": 90}, {"time": 5557, "pitch": 75, "duration": 3, "velocity": 94}, {"time": 5563, "pitch": 73, "duration": 3, "velocity": 89}, {"time": 5569, "pitch": 73, "duration": 45, "velocity": 89}]}, {"program": 0, "is_drum": false, "name": "PIANO", "notes": [{"time": 286, "pitch": 54, "duration": 44, "velocity": 77}, {"time": 287, "pitch": 42, "duration": 46, "velocity": 88}, {"time": 288, "pitch": 58, "duration": 48, "velocity": 70}, {"time": 289, "pitch": 61, "duration": 45, "velocity": 77}, {"time": 333, "pitch": 56, "duration": 44, "velocity": 80}, {"time": 336, "pitch": 44, "duration": 45, "velocity": 84}, {"time": 336, "pitch": 60, "duration": 40, "velocity": 72}, {"time": 336, "pitch": 63, "duration": 42, "velocity": 33}, {"time": 382, "pitch": 56, "duration": 44, "velocity": 74}, {"time": 384, "pitch": 49, "duration": 46, "velocity": 83}, {"time": 384, "pitch": 61, "duration": 44, "velocity": 76}, {"time": 385, "pitch": 65, "duration": 43, "velocity": 80}, {"time": 431, "pitch": 58, "duration": 48, "velocity": 68}, {"time": 432, "pitch": 46, "duration": 47, "velocity": 88}, {"time": 432, "pitch": 61, "duration": 47, "velocity": 78}, {"time": 434, "pitch": 65, "duration": 45, "velocity": 81}, {"time": 481, "pitch": 39, "duration": 33, "velocity": 90}, {"time": 481, "pitch": 58, "duration": 5, "velocity": 84}, {"time": 481, "pitch": 66, "duration": 9, "velocity": 86}, {"time": 487, "pitch": 46, "duration": 26, "velocity": 77}, {"time": 493, "pitch": 58, "duration": 3, "velocity": 84}, {"time": 499, "pitch": 58, "duration": 7, "velocity": 89}, {"time": 499, "pitch": 63, "duration": 9, "velocity": 94}, {"time": 499, "pitch": 66, "duration": 13, "velocity": 92}, {"time": 511, "pitch": 58, "duration": 3, "velocity": 81}, {"time": 517, "pitch": 58, "duration": 2, "velocity": 88}, {"time": 517, "pitch": 63, "duration": 6, "velocity": 92}, {"time": 517, "pitch": 66, "duration": 7, "velocity": 89}, {"time": 523, "pitch": 58, "duration": 2, "velocity": 81}, {"time": 529, "pitch": 44, "duration": 45, "velocity": 89}, {"time": 529, "pitch": 56, "duration": 7, "velocity": 85}, {"time": 529, "pitch": 60, "duration": 9, "velocity": 90}, {"time": 535, "pitch": 51, "duration": 38, "velocity": 79}, {"time": 541, "pitch": 56, "duration": 3, "velocity": 89}, {"time": 547, "pitch": 56, "duration": 4, "velocity": 91}, {"time": 547, "pitch": 60, "duration": 3, "velocity": 91}, {"time": 547, "pitch": 63, "duration": 4, "velocity": 89}, {"time": 559, "pitch": 56, "duration": 4, "velocity": 88}, {"time": 565, "pitch": 56, "duration": 3, "velocity": 90}, {"time": 565, "pitch": 60, "duration": 4, "velocity": 90}, {"time": 565, "pitch": 63, "duration": 8, "velocity": 89}, {"time": 571, "pitch": 56, "duration": 3, "velocity": 87}, {"time": 577, "pitch": 49, "duration": 40, "velocity": 90}, {"time": 577, "pitch": 56, "duration": 12, "velocity": 89}, {"time": 577, "pitch": 61, "duration": 15, "velocity": 91}, {"time": 577, "pitch": 65, "duration": 4, "velocity": 91}, {"time": 589, "pitch": 53, "duration": 32, "velocity": 80}, {"time": 595, "pitch": 56, "duration": 8, "velocity": 86}, {"time": 595, "pitch": 61, "duration": 13, "velocity": 88}, {"time": 607, "pitch": 56, "duration": 3, "velocity": 84}, {"time": 613, "pitch": 56, "duration": 3, "velocity": 90}, {"time": 613, "pitch": 61, "duration": 8, "velocity": 94}, {"time": 613, "pitch": 65, "duration": 8, "velocity": 94}, {"time": 619, "pitch": 56, "duration": 3, "velocity": 86}, {"time": 625, "pitch": 46, "duration": 46, "velocity": 89}, {"time": 625, "pitch": 58, "duration": 7, "velocity": 84}, {"time": 625, "pitch": 61, "duration": 13, "velocity": 89}, {"time": 631, "pitch": 53, "duration": 40, "velocity": 80}, {"time": 637, "pitch": 58, "duration": 3, "velocity": 79}, {"time": 643, "pitch": 58, "duration": 5, "velocity": 89}, {"time": 643, "pitch": 61, "duration": 6, "velocity": 91}, {"time": 643, "pitch": 65, "duration": 5, "velocity": 91}, {"time": 655, "pitch": 58, "duration": 3, "velocity": 77}, {"time": 661, "pitch": 58, "duration": 3, "velocity": 88}, {"time": 661, "pitch": 61, "duration": 8, "velocity": 88}, {"time": 661, "pitch": 65, "duration": 8, "velocity": 89}, {"time": 667, "pitch": 58, "duration": 3, "velocity": 77}, {"time": 673, "pitch": 51, "duration": 37, "velocity": 89}, {"time": 673, "pitch": 63, "duration": 14, "velocity": 89}, {"time": 673, "pitch": 66, "duration": 14, "velocity": 89}, {"time": 679, "pitch": 54, "duration": 30, "velocity": 73}, {"time": 685, "pitch": 58, "duration": 3, "velocity": 80}, {"time": 691, "pitch": 58, "duration": 7, "velocity": 90}, {"time": 691, "pitch": 63, "duration": 14, "velocity": 92}, {"time": 691, "pitch": 66, "duration": 14, "velocity": 90}, {"time": 703, "pitch": 58, "duration": 3, "velocity": 80}, {"time": 709, "pitch": 58, "duration": 4, "velocity": 83}, {"time": 709, "pitch": 63, "duration": 6, "velocity": 90}, {"time": 709, "pitch": 66, "duration": 6, "velocity": 89}, {"time": 715, "pitch": 58, "duration": 2, "velocity": 72}, {"time": 721, "pitch": 44, "duration": 16, "velocity": 89}, {"time": 721, "pitch": 56, "duration": 6, "velocity": 91}, {"time": 721, "pitch": 60, "duration": 7, "velocity": 88}, {"time": 721, "pitch": 63, "duration": 7, "velocity": 89}, {"time": 727, "pitch": 51, "duration": 9, "velocity": 79}, {"time": 733, "pitch": 56, "duration": 3, "velocity": 79}, {"time": 739, "pitch": 44, "duration": 26, "velocity": 88}, {"time": 739, "pitch": 51, "duration": 26, "velocity": 88}, {"time": 739, "pitch": 56, "duration": 8, "velocity": 89}, {"time": 739, "pitch": 60, "duration": 13, "velocity": 89}, {"time": 739, "pitch": 63, "duration": 14, "velocity": 89}, {"time": 751, "pitch": 56, "duration": 3, "velocity": 84}, {"time": 757, "pitch": 56, "duration": 3, "velocity": 90}, {"time": 757, "pitch": 60, "duration": 5, "velocity": 95}, {"time": 757, "pitch": 63, "duration": 8, "velocity": 90}, {"time": 763, "pitch": 56, "duration": 3, "velocity": 84}, {"time": 769, "pitch": 49, "duration": 32, "velocity": 88}, {"time": 769, "pitch": 56, "duration": 4, "velocity": 88}, {"time": 769, "pitch": 61, "duration": 9, "velocity": 89}, {"time": 769, "pitch": 65, "duration": 14, "velocity": 92}, {"time": 775, "pitch": 56, "duration": 9, "velocity": 77}, {"time": 787, "pitch": 56, "duration": 6, "velocity": 91}, {"time": 787, "pitch": 61, "duration": 13, "velocity": 89}, {"time": 787, "pitch": 65, "duration": 13, "velocity": 92}, {"time": 799, "pitch": 56, "duration": 3, "velocity": 87}, {"time": 805, "pitch": 49, "duration": 7, "velocity": 97}, {"time": 805, "pitch": 56, "duration": 3, "velocity": 88}, {"time": 805, "pitch": 61, "duration": 8, "velocity": 91}, {"time": 805, "pitch": 65, "duration": 8, "velocity": 91}, {"time": 811, "pitch": 56, "duration": 3, "velocity": 83}, {"time": 817, "pitch": 46, "duration": 47, "velocity": 89}, {"time": 817, "pitch": 58, "duration": 6, "velocity": 83}, {"time": 817, "pitch": 61, "duration": 7, "velocity": 83}, {"time": 817, "pitch": 65, "duration": 7, "velocity": 89}, {"time": 823, "pitch": 53, "duration": 41, "velocity": 79}, {"time": 829, "pitch": 58, "duration": 3, "velocity": 76}, {"time": 835, "pitch": 58, "duration": 7, "velocity": 89}, {"time": 835, "pitch": 61, "duration": 9, "velocity": 93}, {"time": 835, "pitch": 65, "duration": 9, "velocity": 91}, {"time": 847, "pitch": 58, "duration": 2, "velocity": 75}, {"time": 853, "pitch": 58, "duration": 4, "velocity": 87}, {"time": 853, "pitch": 61, "duration": 9, "velocity": 90}, {"time": 853, "pitch": 65, "duration": 9, "velocity": 89}, {"time": 859, "pitch": 58, "duration": 4, "velocity": 85}, {"time": 865, "pitch": 51, "duration": 37, "velocity": 89}, {"time": 865, "pitch": 63, "duration": 14, "velocity": 89}, {"time": 865, "pitch": 66, "duration": 14, "velocity": 89}, {"time": 871, "pitch": 54, "duration": 30, "velocity": 73}, {"time": 877, "pitch": 58, "duration": 3, "velocity": 80}, {"time": 883, "pitch": 58, "duration": 7, "velocity": 90}, {"time": 883, "pitch": 63, "duration": 14, "velocity": 92}, {"time": 883, "pitch": 66, "duration": 14, "velocity": 90}, {"time": 895, "pitch": 58, "duration": 3, "velocity": 80}, {"time": 901, "pitch": 58, "duration": 4, "velocity": 83}, {"time": 901, "pitch": 63, "duration": 6, "velocity": 90}, {"time": 901, "pitch": 66, "duration": 6, "velocity": 89}, {"time": 907, "pitch": 58, "duration": 2, "velocity": 72}, {"time": 913, "pitch": 44, "duration": 16, "velocity": 89}, {"time": 913, "pitch": 56, "duration": 6, "velocity": 91}, {"time": 913, "pitch": 60, "duration": 7, "velocity": 88}, {"time": 913, "pitch": 63, "duration": 7, "velocity": 89}, {"time": 919, "pitch": 51, "duration": 9, "velocity": 79}, {"time": 925, "pitch": 56, "duration": 3, "velocity": 79}, {"time": 931, "pitch": 44, "duration": 26, "velocity": 88}, {"time": 931, "pitch": 51, "duration": 26, "velocity": 88}, {"time": 931, "pitch": 56, "duration": 8, "velocity": 89}, {"time": 931, "pitch": 60, "duration": 13, "velocity": 89}, {"time": 931, "pitch": 63, "duration": 14, "velocity": 89}, {"time": 943, "pitch": 56, "duration": 3, "velocity": 84}, {"time": 949, "pitch": 56, "duration": 3, "velocity": 90}, {"time": 949, "pitch": 60, "duration": 5, "velocity": 95}, {"time": 949, "pitch": 63, "duration": 8, "velocity": 90}, {"time": 955, "pitch": 56, "duration": 3, "velocity": 84}, {"time": 961, "pitch": 49, "duration": 32, "velocity": 88}, {"time": 961, "pitch": 56, "duration": 4, "velocity": 88}, {"time": 961, "pitch": 61, "duration": 9, "velocity": 89}, {"time": 961, "pitch": 65, "duration": 14, "velocity": 92}, {"time": 967, "pitch": 56, "duration": 9, "velocity": 77}, {"time": 979, "pitch": 56, "duration": 6, "velocity": 91}, {"time": 979, "pitch": 61, "duration": 13, "velocity": 89}, {"time": 979, "pitch": 65, "duration": 13, "velocity": 92}, {"time": 991, "pitch": 56, "duration": 3, "velocity": 87}, {"time": 997, "pitch": 49, "duration": 7, "velocity": 97}, {"time": 997, "pitch": 56, "duration": 3, "velocity": 88}, {"time": 997, "pitch": 61, "duration": 8, "velocity": 91}, {"time": 997, "pitch": 65, "duration": 8, "velocity": 91}, {"time": 1003, "pitch": 56, "duration": 3, "velocity": 83}, {"time": 1009, "pitch": 46, "duration": 47, "velocity": 89}, {"time": 1009, "pitch": 58, "duration": 6, "velocity": 83}, {"time": 1009, "pitch": 61, "duration": 7, "velocity": 83}, {"time": 1009, "pitch": 65, "duration": 7, "velocity": 89}, {"time": 1015, "pitch": 53, "duration": 41, "velocity": 79}, {"time": 1021, "pitch": 58, "duration": 3, "velocity": 76}, {"time": 1027, "pitch": 58, "duration": 7, "velocity": 89}, {"time": 1027, "pitch": 61, "duration": 9, "velocity": 93}, {"time": 1027, "pitch": 65, "duration": 9, "velocity": 91}, {"time": 1039, "pitch": 58, "duration": 2, "velocity": 75}, {"time": 1045, "pitch": 58, "duration": 4, "velocity": 87}, {"time": 1045, "pitch": 61, "duration": 9, "velocity": 90}, {"time": 1045, "pitch": 65, "duration": 9, "velocity": 89}, {"time": 1051, "pitch": 58, "duration": 4, "velocity": 85}, {"time": 1057, "pitch": 39, "duration": 33, "velocity": 90}, {"time": 1057, "pitch": 58, "duration": 5, "velocity": 84}, {"time": 1057, "pitch": 66, "duration": 9, "velocity": 86}, {"time": 1063, "pitch": 46, "duration": 26, "velocity": 77}, {"time": 1069, "pitch": 58, "duration": 3, "velocity": 84}, {"time": 1075, "pitch": 58, "duration": 7, "velocity": 89}, {"time": 1075, "pitch": 63, "duration": 9, "velocity": 94}, {"time": 1075, "pitch": 66, "duration": 13, "velocity": 92}, {"time": 1087, "pitch": 58, "duration": 3, "velocity": 81}, {"time": 1093, "pitch": 58, "duration": 2, "velocity": 88}, {"time": 1093, "pitch": 63, "duration": 6, "velocity": 92}, {"time": 1093, "pitch": 66, "duration": 7, "velocity": 89}, {"time": 1099, "pitch": 58, "duration": 2, "velocity": 81}, {"time": 1105, "pitch": 44, "duration": 45, "velocity": 89}, {"time": 1105, "pitch": 56, "duration": 7, "velocity": 85}, {"time": 1105, "pitch": 60, "duration": 9, "velocity": 90}, {"time": 1111, "pitch": 51, "duration": 38, "velocity": 79}, {"time": 1117, "pitch": 56, "duration": 3, "velocity": 89}, {"time": 1123, "pitch": 56, "duration": 4, "velocity": 91}, {"time": 1123, "pitch": 60, "duration": 3, "velocity": 91}, {"time": 1123, "pitch": 63, "duration": 4, "velocity": 89}, {"time": 1135, "pitch": 56, "duration": 4, "velocity": 88}, {"time": 1141, "pitch": 56, "duration": 3, "velocity": 90}, {"time": 1141, "pitch": 60, "duration": 4, "velocity": 90}, {"time": 1141, "pitch": 63, "duration": 8, "velocity": 89}, {"time": 1147, "pitch": 56, "duration": 3, "velocity": 87}, {"time": 1153, "pitch": 49, "duration": 40, "velocity": 90}, {"time": 1153, "pitch": 56, "duration": 12, "velocity": 89}, {"time": 1153, "pitch": 61, "duration": 15, "velocity": 91}, {"time": 1153, "pitch": 65, "duration": 4, "velocity": 91}, {"time": 1165, "pitch": 53, "duration": 32, "velocity": 80}, {"time": 1171, "pitch": 56, "duration": 8, "velocity": 86}, {"time": 1171, "pitch": 61, "duration": 13, "velocity": 88}, {"time": 1183, "pitch": 56, "duration": 3, "velocity": 84}, {"time": 1189, "pitch": 56, "duration": 3, "velocity": 90}, {"time": 1189, "pitch": 61, "duration": 8, "velocity": 94}, {"time": 1189, "pitch": 65, "duration": 8, "velocity": 94}, {"time": 1195, "pitch": 56, "duration": 3, "velocity": 86}, {"time": 1201, "pitch": 46, "duration": 46, "velocity": 89}, {"time": 1201, "pitch": 58, "duration": 7, "velocity": 84}, {"time": 1201, "pitch": 61, "duration": 13, "velocity": 89}, {"time": 1207, "pitch": 53, "duration": 40, "velocity": 80}, {"time": 1213, "pitch": 58, "duration": 3, "velocity": 79}, {"time": 1219, "pitch": 58, "duration": 5, "velocity": 89}, {"time": 1219, "pitch": 61, "duration": 6, "velocity": 91}, {"time": 1219, "pitch": 65, "duration": 5, "velocity": 91}, {"time": 1231, "pitch": 58, "duration": 3, "velocity": 77}, {"time": 1237, "pitch": 58, "duration": 3, "velocity": 88}, {"time": 1237, "pitch": 61, "duration": 8, "velocity": 88}, {"time": 1237, "pitch": 65, "duration": 8, "velocity": 89}, {"time": 1243, "pitch": 58, "duration": 3, "velocity": 77}, {"time": 1249, "pitch": 51, "duration": 37, "velocity": 89}, {"time": 1249, "pitch": 63, "duration": 14, "velocity": 89}, {"time": 1249, "pitch": 66, "duration": 14, "velocity": 89}, {"time": 1255, "pitch": 54, "duration": 30, "velocity": 73}, {"time": 1261, "pitch": 58, "duration": 3, "velocity": 80}, {"time": 1267, "pitch": 58, "duration": 7, "velocity": 90}, {"time": 1267, "pitch": 63, "duration": 14, "velocity": 92}, {"time": 1267, "pitch": 66, "duration": 14, "velocity": 90}, {"time": 1279, "pitch": 58, "duration": 3, "velocity": 80}, {"time": 1285, "pitch": 58, "duration": 4, "velocity": 83}, {"time": 1285, "pitch": 63, "duration": 6, "velocity": 90}, {"time": 1285, "pitch": 66, "duration": 6, "velocity": 89}, {"time": 1291, "pitch": 58, "duration": 2, "velocity": 72}, {"time": 1297, "pitch": 44, "duration": 16, "velocity": 89}, {"time": 1297, "pitch": 56, "duration": 6, "velocity": 91}, {"time": 1297, "pitch": 60, "duration": 7, "velocity": 88}, {"time": 1297, "pitch": 63, "duration": 7, "velocity": 89}, {"time": 1303, "pitch": 51, "duration": 9, "velocity": 79}, {"time": 1309, "pitch": 56, "duration": 3, "velocity": 79}, {"time": 1315, "pitch": 44, "duration": 26, "velocity": 88}, {"time": 1315, "pitch": 51, "duration": 26, "velocity": 88}, {"time": 1315, "pitch": 56, "duration": 8, "velocity": 89}, {"time": 1315, "pitch": 60, "duration": 13, "velocity": 89}, {"time": 1315, "pitch": 63, "duration": 14, "velocity": 89}, {"time": 1327, "pitch": 56, "duration": 3, "velocity": 84}, {"time": 1333, "pitch": 56, "duration": 3, "velocity": 90}, {"time": 1333, "pitch": 60, "duration": 5, "velocity": 95}, {"time": 1333, "pitch": 63, "duration": 8, "velocity": 90}, {"time": 1339, "pitch": 56, "duration": 3, "velocity": 84}, {"time": 1345, "pitch": 49, "duration": 32, "velocity": 88}, {"time": 1345, "pitch": 56, "duration": 4, "velocity": 88}, {"time": 1345, "pitch": 61, "duration": 9, "velocity": 89}, {"time": 1345, "pitch": 65, "duration": 14, "velocity": 92}, {"time": 1351, "pitch": 56, "duration": 9, "velocity": 77}, {"time": 1363, "pitch": 56, "duration": 6, "velocity": 91}, {"time": 1363, "pitch": 61, "duration": 13, "velocity": 89}, {"time": 1363, "pitch": 65, "duration": 13, "velocity": 92}, {"time": 1375, "pitch": 56, "duration": 3, "velocity": 87}, {"time": 1381, "pitch": 49, "duration": 7, "velocity": 97}, {"time": 1381, "pitch": 56, "duration": 3, "velocity": 88}, {"time": 1381, "pitch": 61, "duration": 8, "velocity": 91}, {"time": 1381, "pitch": 65, "duration": 8, "velocity": 91}, {"time": 1387, "pitch": 56, "duration": 3, "velocity": 83}, {"time": 1393, "pitch": 46, "duration": 47, "velocity": 89}, {"time": 1393, "pitch": 58, "duration": 6, "velocity": 83}, {"time": 1393, "pitch": 61, "duration": 7, "velocity": 83}, {"time": 1393, "pitch": 65, "duration": 7, "velocity": 89}, {"time": 1399, "pitch": 53, "duration": 41, "velocity": 79}, {"time": 1405, "pitch": 58, "duration": 3, "velocity": 76}, {"time": 1411, "pitch": 58, "duration": 7, "velocity": 89}, {"time": 1411, "pitch": 61, "duration": 9, "velocity": 93}, {"time": 1411, "pitch": 65, "duration": 9, "velocity": 91}, {"time": 1423, "pitch": 58, "duration": 2, "velocity": 75}, {"time": 1429, "pitch": 58, "duration": 4, "velocity": 87}, {"time": 1429, "pitch": 61, "duration": 9, "velocity": 90}, {"time": 1429, "pitch": 65, "duration": 9, "velocity": 89}, {"time": 1435, "pitch": 58, "duration": 4, "velocity": 85}, {"time": 1441, "pitch": 51, "duration": 15, "velocity": 90}, {"time": 1441, "pitch": 63, "duration": 15, "velocity": 83}, {"time": 1441, "pitch": 66, "duration": 15, "velocity": 86}, {"time": 1453, "pitch": 58, "duration": 8, "velocity": 88}, {"time": 1459, "pitch": 51, "duration": 13, "velocity": 97}, {"time": 1459, "pitch": 63, "duration": 14, "velocity": 89}, {"time": 1459, "pitch": 66, "duration": 14, "velocity": 89}, {"time": 1471, "pitch": 58, "duration": 4, "velocity": 90}, {"time": 1477, "pitch": 51, "duration": 3, "velocity": 92}, {"time": 1477, "pitch": 63, "duration": 7, "velocity": 89}, {"time": 1477, "pitch": 66, "duration": 8, "velocity": 89}, {"time": 1483, "pitch": 58, "duration": 3, "velocity": 88}, {"time": 1489, "pitch": 44, "duration": 14, "velocity": 89}, {"time": 1489, "pitch": 60, "duration": 13, "velocity": 82}, {"time": 1489, "pitch": 63, "duration": 13, "velocity": 88}, {"time": 1501, "pitch": 56, "duration": 5, "velocity": 85}, {"time": 1507, "pitch": 44, "duration": 13, "velocity": 89}, {"time": 1507, "pitch": 60, "duration": 13, "velocity": 87}, {"time": 1507, "pitch": 63, "duration": 13, "velocity": 89}, {"time": 1519, "pitch": 56, "duration": 6, "velocity": 89}, {"time": 1525, "pitch": 44, "duration": 8, "velocity": 88}, {"time": 1525, "pitch": 60, "duration": 7, "velocity": 84}, {"time": 1525, "pitch": 63, "duration": 8, "velocity": 89}, {"time": 1531, "pitch": 56, "duration": 7, "velocity": 89}, {"time": 1537, "pitch": 49, "duration": 16, "velocity": 89}, {"time": 1537, "pitch": 61, "duration": 13, "velocity": 85}, {"time": 1537, "pitch": 65, "duration": 13, "velocity": 89}, {"time": 1549, "pitch": 56, "duration": 8, "velocity": 84}, {"time": 1555, "pitch": 49, "duration": 16, "velocity": 99}, {"time": 1555, "pitch": 61, "duration": 14, "velocity": 90}, {"time": 1555, "pitch": 65, "duration": 14, "velocity": 93}, {"time": 1567, "pitch": 56, "duration": 7, "velocity": 90}, {"time": 1573, "pitch": 49, "duration": 9, "velocity": 99}, {"time": 1573, "pitch": 61, "duration": 9, "velocity": 89}, {"time": 1573, "pitch": 65, "duration": 9, "velocity": 90}, {"time": 1579, "pitch": 56, "duration": 4, "velocity": 88}, {"time": 1585, "pitch": 46, "duration": 16, "velocity": 91}, {"time": 1585, "pitch": 61, "duration": 14, "velocity": 90}, {"time": 1585, "pitch": 65, "duration": 14, "velocity": 94}, {"time": 1597, "pitch": 58, "duration": 6, "velocity": 82}, {"time": 1603, "pitch": 46, "duration": 13, "velocity": 91}, {"time": 1603, "pitch": 61, "duration": 13, "velocity": 89}, {"time": 1603, "pitch": 65, "duration": 12, "velocity": 93}, {"time": 1615, "pitch": 58, "duration": 7, "velocity": 83}, {"time": 1621, "pitch": 46, "duration": 9, "velocity": 90}, {"time": 1621, "pitch": 61, "duration": 7, "velocity": 93}, {"time": 1621, "pitch": 65, "duration": 8, "velocity": 92}, {"time": 1627, "pitch": 58, "duration": 7, "velocity": 88}, {"time": 1633, "pitch": 51, "duration": 16, "velocity": 92}, {"time": 1633, "pitch": 63, "duration": 14, "velocity": 90}, {"time": 1633, "pitch": 66, "duration": 13, "velocity": 88}, {"time": 1645, "pitch": 58, "duration": 8, "velocity": 89}, {"time": 1651, "pitch": 51, "duration": 14, "velocity": 104}, {"time": 1651, "pitch": 63, "duration": 14, "velocity": 89}, {"time": 1651, "pitch": 66, "duration": 14, "velocity": 90}, {"time": 1663, "pitch": 58, "duration": 7, "velocity": 89}, {"time": 1669, "pitch": 51, "duration": 7, "velocity": 104}, {"time": 1669, "pitch": 63, "duration": 7, "velocity": 90}, {"time": 1669, "pitch": 66, "duration": 7, "velocity": 90}, {"time": 1675, "pitch": 58, "duration": 4, "velocity": 89}, {"time": 1681, "pitch": 44, "duration": 18, "velocity": 90}, {"time": 1681, "pitch": 56, "duration": 11, "velocity": 84}, {"time": 1681, "pitch": 60, "duration": 11, "velocity": 88}, {"time": 1693, "pitch": 51, "duration": 5, "velocity": 84}, {"time": 1699, "pitch": 44, "duration": 13, "velocity": 91}, {"time": 1699, "pitch": 51, "duration": 13, "velocity": 95}, {"time": 1699, "pitch": 56, "duration": 7, "velocity": 90}, {"time": 1699, "pitch": 60, "duration": 13, "velocity": 91}, {"time": 1699, "pitch": 63, "duration": 14, "velocity": 91}, {"time": 1711, "pitch": 56, "duration": 4, "velocity": 88}, {"time": 1717, "pitch": 44, "duration": 8, "velocity": 89}, {"time": 1717, "pitch": 60, "duration": 6, "velocity": 89}, {"time": 1717, "pitch": 63, "duration": 7, "velocity": 89}, {"time": 1723, "pitch": 56, "duration": 9, "velocity": 88}, {"time": 1729, "pitch": 49, "duration": 14, "velocity": 99}, {"time": 1729, "pitch": 61, "duration": 13, "velocity": 89}, {"time": 1729, "pitch": 65, "duration": 13, "velocity": 93}, {"time": 1741, "pitch": 56, "duration": 4, "velocity": 88}, {"time": 1747, "pitch": 49, "duration": 15, "velocity": 95}, {"time": 1747, "pitch": 61, "duration": 14, "velocity": 91}, {"time": 1747, "pitch": 65, "duration": 15, "velocity": 93}, {"time": 1759, "pitch": 56, "duration": 5, "velocity": 84}, {"time": 1765, "pitch": 49, "duration": 7, "velocity": 94}, {"time": 1765, "pitch": 61, "duration": 8, "velocity": 93}, {"time": 1765, "pitch": 65, "duration": 9, "velocity": 93}, {"time": 1771, "pitch": 56, "duration": 3, "velocity": 88}, {"time": 1777, "pitch": 46, "duration": 15, "velocity": 91}, {"time": 1777, "pitch": 58, "duration": 12, "velocity": 84}, {"time": 1777, "pitch": 61, "duration": 13, "velocity": 89}, {"time": 1777, "pitch": 65, "duration": 13, "velocity": 93}, {"time": 1789, "pitch": 53, "duration": 3, "velocity": 79}, {"time": 1795, "pitch": 46, "duration": 8, "velocity": 90}, {"time": 1795, "pitch": 53, "duration": 8, "velocity": 92}, {"time": 1795, "pitch": 58, "duration": 6, "velocity": 90}, {"time": 1795, "pitch": 61, "duration": 9, "velocity": 93}, {"time": 1795, "pitch": 65, "duration": 13, "velocity": 86}, {"time": 1807, "pitch": 58, "duration": 3, "velocity": 89}, {"time": 1813, "pitch": 46, "duration": 11, "velocity": 89}, {"time": 1813, "pitch": 53, "duration": 10, "velocity": 88}, {"time": 1813, "pitch": 58, "duration": 3, "velocity": 87}, {"time": 1813, "pitch": 61, "duration": 9, "velocity": 86}, {"time": 1819, "pitch": 58, "duration": 4, "velocity": 87}, {"time": 1825, "pitch": 51, "duration": 15, "velocity": 90}, {"time": 1825, "pitch": 63, "duration": 15, "velocity": 83}, {"time": 1825, "pitch": 66, "duration": 15, "velocity": 86}, {"time": 1837, "pitch": 58, "duration": 8, "velocity": 88}, {"time": 1843, "pitch": 51, "duration": 13, "velocity": 97}, {"time": 1843, "pitch": 63, "duration": 14, "velocity": 89}, {"time": 1843, "pitch": 66, "duration": 14, "velocity": 89}, {"time": 1855, "pitch": 58, "duration": 4, "velocity": 90}, {"time": 1861, "pitch": 51, "duration": 3, "velocity": 92}, {"time": 1861, "pitch": 63, "duration": 7, "velocity": 89}, {"time": 1861, "pitch": 66, "duration": 8, "velocity": 89}, {"time": 1867, "pitch": 58, "duration": 3, "velocity": 88}, {"time": 1873, "pitch": 44, "duration": 14, "velocity": 89}, {"time": 1873, "pitch": 60, "duration": 13, "velocity": 82}, {"time": 1873, "pitch": 63, "duration": 13, "velocity": 88}, {"time": 1885, "pitch": 56, "duration": 5, "velocity": 85}, {"time": 1891, "pitch": 44, "duration": 13, "velocity": 89}, {"time": 1891, "pitch": 60, "duration": 13, "velocity": 87}, {"time": 1891, "pitch": 63, "duration": 13, "velocity": 89}, {"time": 1903, "pitch": 56, "duration": 6, "velocity": 89}, {"time": 1909, "pitch": 44, "duration": 8, "velocity": 88}, {"time": 1909, "pitch": 60, "duration": 7, "velocity": 84}, {"time": 1909, "pitch": 63, "duration": 8, "velocity": 89}, {"time": 1915, "pitch": 56, "duration": 7, "velocity": 89}, {"time": 1921, "pitch": 49, "duration": 16, "velocity": 89}, {"time": 1921, "pitch": 61, "duration": 13, "velocity": 85}, {"time": 1921, "pitch": 65, "duration": 13, "velocity": 89}, {"time": 1933, "pitch": 56, "duration": 8, "velocity": 84}, {"time": 1939, "pitch": 49, "duration": 16, "velocity": 99}, {"time": 1939, "pitch": 61, "duration": 14, "velocity": 90}, {"time": 1939, "pitch": 65, "duration": 14, "velocity": 93}, {"time": 1951, "pitch": 56, "duration": 7, "velocity": 90}, {"time": 1957, "pitch": 49, "duration": 9, "velocity": 99}, {"time": 1957, "pitch": 61, "duration": 9, "velocity": 89}, {"time": 1957, "pitch": 65, "duration": 9, "velocity": 90}, {"time": 1963, "pitch": 56, "duration": 4, "velocity": 88}, {"time": 1969, "pitch": 46, "duration": 16, "velocity": 91}, {"time": 1969, "pitch": 61, "duration": 14, "velocity": 90}, {"time": 1969, "pitch": 65, "duration": 14, "velocity": 94}, {"time": 1981, "pitch": 58, "duration": 6, "velocity": 82}, {"time": 1987, "pitch": 46, "duration": 13, "velocity": 91}, {"time": 1987, "pitch": 61, "duration": 13, "velocity": 89}, {"time": 1987, "pitch": 65, "duration": 12, "velocity": 93}, {"time": 1999, "pitch": 58, "duration": 7, "velocity": 83}, {"time": 2005, "pitch": 46, "duration": 9, "velocity": 90}, {"time": 2005, "pitch": 61, "duration": 7, "velocity": 93}, {"time": 2005, "pitch": 65, "duration": 8, "velocity": 92}, {"time": 2011, "pitch": 58, "duration": 7, "velocity": 88}, {"time": 2017, "pitch": 51, "duration": 16, "velocity": 92}, {"time": 2017, "pitch": 63, "duration": 14, "velocity": 90}, {"time": 2017, "pitch": 66, "duration": 13, "velocity": 88}, {"time": 2029, "pitch": 58, "duration": 8, "velocity": 89}, {"time": 2035, "pitch": 51, "duration": 14, "velocity": 104}, {"time": 2035, "pitch": 63, "duration": 14, "velocity": 89}, {"time": 2035, "pitch": 66, "duration": 14, "velocity": 90}, {"time": 2047, "pitch": 58, "duration": 7, "velocity": 89}, {"time": 2053, "pitch": 51, "duration": 7, "velocity": 104}, {"time": 2053, "pitch": 63, "duration": 7, "velocity": 90}, {"time": 2053, "pitch": 66, "duration": 7, "velocity": 90}, {"time": 2059, "pitch": 58, "duration": 4, "velocity": 89}, {"time": 2065, "pitch": 44, "duration": 18, "velocity": 90}, {"time": 2065, "pitch": 56, "duration": 11, "velocity": 84}, {"time": 2065, "pitch": 60, "duration": 11, "velocity": 88}, {"time": 2077, "pitch": 51, "duration": 5, "velocity": 84}, {"time": 2083, "pitch": 44, "duration": 13, "velocity": 91}, {"time": 2083, "pitch": 51, "duration": 13, "velocity": 95}, {"time": 2083, "pitch": 56, "duration": 7, "velocity": 90}, {"time": 2083, "pitch": 60, "duration": 13, "velocity": 91}, {"time": 2083, "pitch": 63, "duration": 14, "velocity": 91}, {"time": 2095, "pitch": 56, "duration": 4, "velocity": 88}, {"time": 2101, "pitch": 44, "duration": 8, "velocity": 89}, {"time": 2101, "pitch": 60, "duration": 6, "velocity": 89}, {"time": 2101, "pitch": 63, "duration": 7, "velocity": 89}, {"time": 2107, "pitch": 56, "duration": 9, "velocity": 88}, {"time": 2113, "pitch": 49, "duration": 14, "velocity": 99}, {"time": 2113, "pitch": 61, "duration": 13, "velocity": 89}, {"time": 2113, "pitch": 65, "duration": 13, "velocity": 93}, {"time": 2125, "pitch": 56, "duration": 4, "velocity": 88}, {"time": 2131, "pitch": 49, "duration": 15, "velocity": 95}, {"time": 2131, "pitch": 61, "duration": 14, "velocity": 91}, {"time": 2131, "pitch": 65, "duration": 15, "velocity": 93}, {"time": 2143, "pitch": 56, "duration": 5, "velocity": 84}, {"time": 2149, "pitch": 49, "duration": 7, "velocity": 94}, {"time": 2149, "pitch": 61, "duration": 8, "velocity": 93}, {"time": 2149, "pitch": 65, "duration": 9, "velocity": 93}, {"time": 2155, "pitch": 56, "duration": 3, "velocity": 88}, {"time": 2161, "pitch": 46, "duration": 15, "velocity": 91}, {"time": 2161, "pitch": 58, "duration": 12, "velocity": 84}, {"time": 2161, "pitch": 61, "duration": 13, "velocity": 89}, {"time": 2161, "pitch": 65, "duration": 13, "velocity": 93}, {"time": 2173, "pitch": 53, "duration": 3, "velocity": 79}, {"time": 2179, "pitch": 46, "duration": 8, "velocity": 90}, {"time": 2179, "pitch": 53, "duration": 8, "velocity": 92}, {"time": 2179, "pitch": 58, "duration": 6, "velocity": 90}, {"time": 2179, "pitch": 61, "duration": 9, "velocity": 93}, {"time": 2179, "pitch": 65, "duration": 13, "velocity": 86}, {"time": 2191, "pitch": 58, "duration": 3, "velocity": 89}, {"time": 2197, "pitch": 46, "duration": 11, "velocity": 89}, {"time": 2197, "pitch": 53, "duration": 10, "velocity": 88}, {"time": 2197, "pitch": 58, "duration": 3, "velocity": 87}, {"time": 2197, "pitch": 61, "duration": 9, "velocity": 86}, {"time": 2203, "pitch": 58, "duration": 4, "velocity": 87}, {"time": 2209, "pitch": 39, "duration": 33, "velocity": 90}, {"time": 2209, "pitch": 58, "duration": 5, "velocity": 84}, {"time": 2209, "pitch": 66, "duration": 9, "velocity": 86}, {"time": 2215, "pitch": 46, "duration": 26, "velocity": 77}, {"time": 2221, "pitch": 58, "duration": 3, "velocity": 84}, {"time": 2227, "pitch": 58, "duration": 7, "velocity": 89}, {"time": 2227, "pitch": 63, "duration": 9, "velocity": 94}, {"time": 2227, "pitch": 66, "duration": 13, "velocity": 92}, {"time": 2239, "pitch": 58, "duration": 3, "velocity": 81}, {"time": 2245, "pitch": 58, "duration": 2, "velocity": 88}, {"time": 2245, "pitch": 63, "duration": 6, "velocity": 92}, {"time": 2245, "pitch": 66, "duration": 7, "velocity": 89}, {"time": 2251, "pitch": 58, "duration": 2, "velocity": 81}, {"time": 2257, "pitch": 44, "duration": 45, "velocity": 89}, {"time": 2257, "pitch": 56, "duration": 7, "velocity": 85}, {"time": 2257, "pitch": 60, "duration": 9, "velocity": 90}, {"time": 2263, "pitch": 51, "duration": 38, "velocity": 79}, {"time": 2269, "pitch": 56, "duration": 3, "velocity": 89}, {"time": 2275, "pitch": 56, "duration": 4, "velocity": 91}, {"time": 2275, "pitch": 60, "duration": 3, "velocity": 91}, {"time": 2275, "pitch": 63, "duration": 4, "velocity": 89}, {"time": 2287, "pitch": 56, "duration": 4, "velocity": 88}, {"time": 2293, "pitch": 56, "duration": 3, "velocity": 90}, {"time": 2293, "pitch": 60, "duration": 4, "velocity": 90}, {"time": 2293, "pitch": 63, "duration": 8, "velocity": 89}, {"time": 2299, "pitch": 56, "duration": 3, "velocity": 87}, {"time": 2305, "pitch": 49, "duration": 40, "velocity": 90}, {"time": 2305, "pitch": 56, "duration": 12, "velocity": 89}, {"time": 2305, "pitch": 61, "duration": 15, "velocity": 91}, {"time": 2305, "pitch": 65, "duration": 4, "velocity": 91}, {"time": 2317, "pitch": 53, "duration": 32, "velocity": 80}, {"time": 2323, "pitch": 56, "duration": 8, "velocity": 86}, {"time": 2323, "pitch": 61, "duration": 13, "velocity": 88}, {"time": 2335, "pitch": 56, "duration": 3, "velocity": 84}, {"time": 2341, "pitch": 56, "duration": 3, "velocity": 90}, {"time": 2341, "pitch": 61, "duration": 8, "velocity": 94}, {"time": 2341, "pitch": 65, "duration": 8, "velocity": 94}, {"time": 2347, "pitch": 56, "duration": 3, "velocity": 86}, {"time": 2353, "pitch": 46, "duration": 46, "velocity": 89}, {"time": 2353, "pitch": 58, "duration": 7, "velocity": 84}, {"time": 2353, "pitch": 61, "duration": 13, "velocity": 89}, {"time": 2359, "pitch": 53, "duration": 40, "velocity": 80}, {"time": 2365, "pitch": 58, "duration": 3, "velocity": 79}, {"time": 2371, "pitch": 58, "duration": 5, "velocity": 89}, {"time": 2371, "pitch": 61, "duration": 6, "velocity": 91}, {"time": 2371, "pitch": 65, "duration": 5, "velocity": 91}, {"time": 2383, "pitch": 58, "duration": 3, "velocity": 77}, {"time": 2389, "pitch": 58, "duration": 3, "velocity": 88}, {"time": 2389, "pitch": 61, "duration": 8, "velocity": 88}, {"time": 2389, "pitch": 65, "duration": 8, "velocity": 89}, {"time": 2395, "pitch": 58, "duration": 3, "velocity": 77}, {"time": 2401, "pitch": 51, "duration": 37, "velocity": 89}, {"time": 2401, "pitch": 63, "duration": 14, "velocity": 89}, {"time": 2401, "pitch": 66, "duration": 14, "velocity": 89}, {"time": 2407, "pitch": 54, "duration": 30, "velocity": 73}, {"time": 2413, "pitch": 58, "duration": 3, "velocity": 80}, {"time": 2419, "pitch": 58, "duration": 7, "velocity": 90}, {"time": 2419, "pitch": 63, "duration": 14, "velocity": 92}, {"time": 2419, "pitch": 66, "duration": 14, "velocity": 90}, {"time": 2431, "pitch": 58, "duration": 3, "velocity": 80}, {"time": 2437, "pitch": 58, "duration": 4, "velocity": 83}, {"time": 2437, "pitch": 63, "duration": 6, "velocity": 90}, {"time": 2437, "pitch": 66, "duration": 6, "velocity": 89}, {"time": 2443, "pitch": 58, "duration": 2, "velocity": 72}, {"time": 2449, "pitch": 44, "duration": 16, "velocity": 89}, {"time": 2449, "pitch": 56, "duration": 6, "velocity": 91}, {"time": 2449, "pitch": 60, "duration": 7, "velocity": 88}, {"time": 2449, "pitch": 63, "duration": 7, "velocity": 89}, {"time": 2455, "pitch": 51, "duration": 9, "velocity": 79}, {"time": 2461, "pitch": 56, "duration": 3, "velocity": 79}, {"time": 2467, "pitch": 44, "duration": 26, "velocity": 88}, {"time": 2467, "pitch": 51, "duration": 26, "velocity": 88}, {"time": 2467, "pitch": 56, "duration": 8, "velocity": 89}, {"time": 2467, "pitch": 60, "duration": 13, "velocity": 89}, {"time": 2467, "pitch": 63, "duration": 14, "velocity": 89}, {"time": 2479, "pitch": 56, "duration": 3, "velocity": 84}, {"time": 2485, "pitch": 56, "duration": 3, "velocity": 90}, {"time": 2485, "pitch": 60, "duration": 5, "velocity": 95}, {"time": 2485, "pitch": 63, "duration": 8, "velocity": 90}, {"time": 2491, "pitch": 56, "duration": 3, "velocity": 84}, {"time": 2497, "pitch": 49, "duration": 32, "velocity": 88}, {"time": 2497, "pitch": 56, "duration": 4, "velocity": 88}, {"time": 2497, "pitch": 61, "duration": 9, "velocity": 89}, {"time": 2497, "pitch": 65, "duration": 14, "velocity": 92}, {"time": 2503, "pitch": 56, "duration": 9, "velocity": 77}, {"time": 2515, "pitch": 56, "duration": 6, "velocity": 91}, {"time": 2515, "pitch": 61, "duration": 13, "velocity": 89}, {"time": 2515, "pitch": 65, "duration": 13, "velocity": 92}, {"time": 2527, "pitch": 56, "duration": 3, "velocity": 87}, {"time": 2533, "pitch": 49, "duration": 7, "velocity": 97}, {"time": 2533, "pitch": 56, "duration": 3, "velocity": 88}, {"time": 2533, "pitch": 61, "duration": 8, "velocity": 91}, {"time": 2533, "pitch": 65, "duration": 8, "velocity": 91}, {"time": 2539, "pitch": 56, "duration": 3, "velocity": 83}, {"time": 2545, "pitch": 46, "duration": 47, "velocity": 89}, {"time": 2545, "pitch": 58, "duration": 6, "velocity": 83}, {"time": 2545, "pitch": 61, "duration": 7, "velocity": 83}, {"time": 2545, "pitch": 65, "duration": 7, "velocity": 89}, {"time": 2551, "pitch": 53, "duration": 41, "velocity": 79}, {"time": 2557, "pitch": 58, "duration": 3, "velocity": 76}, {"time": 2563, "pitch": 58, "duration": 7, "velocity": 89}, {"time": 2563, "pitch": 61, "duration": 9, "velocity": 93}, {"time": 2563, "pitch": 65, "duration": 9, "velocity": 91}, {"time": 2575, "pitch": 58, "duration": 2, "velocity": 75}, {"time": 2581, "pitch": 58, "duration": 4, "velocity": 87}, {"time": 2581, "pitch": 61, "duration": 9, "velocity": 90}, {"time": 2581, "pitch": 65, "duration": 9, "velocity": 89}, {"time": 2587, "pitch": 58, "duration": 4, "velocity": 85}, {"time": 2593, "pitch": 51, "duration": 15, "velocity": 90}, {"time": 2593, "pitch": 63, "duration": 15, "velocity": 83}, {"time": 2593, "pitch": 66, "duration": 15, "velocity": 86}, {"time": 2605, "pitch": 58, "duration": 8, "velocity": 88}, {"time": 2611, "pitch": 51, "duration": 13, "velocity": 97}, {"time": 2611, "pitch": 63, "duration": 14, "velocity": 89}, {"time": 2611, "pitch": 66, "duration": 14, "velocity": 89}, {"time": 2623, "pitch": 58, "duration": 4, "velocity": 90}, {"time": 2629, "pitch": 51, "duration": 3, "velocity": 92}, {"time": 2629, "pitch": 63, "duration": 7, "velocity": 89}, {"time": 2629, "pitch": 66, "duration": 8, "velocity": 89}, {"time": 2635, "pitch": 58, "duration": 3, "velocity": 88}, {"time": 2641, "pitch": 44, "duration": 14, "velocity": 89}, {"time": 2641, "pitch": 60, "duration": 13, "velocity": 82}, {"time": 2641, "pitch": 63, "duration": 13, "velocity": 88}, {"time": 2653, "pitch": 56, "duration": 5, "velocity": 85}, {"time": 2659, "pitch": 44, "duration": 13, "velocity": 89}, {"time": 2659, "pitch": 60, "duration": 13, "velocity": 87}, {"time": 2659, "pitch": 63, "duration": 13, "velocity": 89}, {"time": 2671, "pitch": 56, "duration": 6, "velocity": 89}, {"time": 2677, "pitch": 44, "duration": 8, "velocity": 88}, {"time": 2677, "pitch": 60, "duration": 7, "velocity": 84}, {"time": 2677, "pitch": 63, "duration": 8, "velocity": 89}, {"time": 2683, "pitch": 56, "duration": 7, "velocity": 89}, {"time": 2689, "pitch": 49, "duration": 16, "velocity": 89}, {"time": 2689, "pitch": 61, "duration": 13, "velocity": 85}, {"time": 2689, "pitch": 65, "duration": 13, "velocity": 89}, {"time": 2701, "pitch": 56, "duration": 8, "velocity": 84}, {"time": 2707, "pitch": 49, "duration": 16, "velocity": 99}, {"time": 2707, "pitch": 61, "duration": 14, "velocity": 90}, {"time": 2707, "pitch": 65, "duration": 14, "velocity": 93}, {"time": 2719, "pitch": 56, "duration": 7, "velocity": 90}, {"time": 2725, "pitch": 49, "duration": 9, "velocity": 99}, {"time": 2725, "pitch": 61, "duration": 9, "velocity": 89}, {"time": 2725, "pitch": 65, "duration": 9, "velocity": 90}, {"time": 2731, "pitch": 56, "duration": 4, "velocity": 88}, {"time": 2737, "pitch": 46, "duration": 16, "velocity": 91}, {"time": 2737, "pitch": 61, "duration": 14, "velocity": 90}, {"time": 2737, "pitch": 65, "duration": 14, "velocity": 94}, {"time": 2749, "pitch": 58, "duration": 6, "velocity": 82}, {"time": 2755, "pitch": 46, "duration": 13, "velocity": 91}, {"time": 2755, "pitch": 61, "duration": 13, "velocity": 89}, {"time": 2755, "pitch": 65, "duration": 12, "velocity": 93}, {"time": 2767, "pitch": 58, "duration": 7, "velocity": 83}, {"time": 2773, "pitch": 46, "duration": 9, "velocity": 90}, {"time": 2773, "pitch": 61, "duration": 7, "velocity": 93}, {"time": 2773, "pitch": 65, "duration": 8, "velocity": 92}, {"time": 2779, "pitch": 58, "duration": 7, "velocity": 88}, {"time": 2785, "pitch": 51, "duration": 16, "velocity": 92}, {"time": 2785, "pitch": 63, "duration": 14, "velocity": 90}, {"time": 2785, "pitch": 66, "duration": 13, "velocity": 88}, {"time": 2797, "pitch": 58, "duration": 8, "velocity": 89}, {"time": 2803, "pitch": 51, "duration": 14, "velocity": 104}, {"time": 2803, "pitch": 63, "duration": 14, "velocity": 89}, {"time": 2803, "pitch": 66, "duration": 14, "velocity": 90}, {"time": 2815, "pitch": 58, "duration": 7, "velocity": 89}, {"time": 2821, "pitch": 51, "duration": 7, "velocity": 104}, {"time": 2821, "pitch": 63, "duration": 7, "velocity": 90}, {"time": 2821, "pitch": 66, "duration": 7, "velocity": 90}, {"time": 2827, "pitch": 58, "duration": 4, "velocity": 89}, {"time": 2833, "pitch": 44, "duration": 18, "velocity": 90}, {"time": 2833, "pitch": 56, "duration": 11, "velocity": 84}, {"time": 2833, "pitch": 60, "duration": 11, "velocity": 88}, {"time": 2845, "pitch": 51, "duration": 5, "velocity": 84}, {"time": 2851, "pitch": 44, "duration": 13, "velocity": 91}, {"time": 2851, "pitch": 51, "duration": 13, "velocity": 95}, {"time": 2851, "pitch": 56, "duration": 7, "velocity": 90}, {"time": 2851, "pitch": 60, "duration": 13, "velocity": 91}, {"time": 2851, "pitch": 63, "duration": 14, "velocity": 91}, {"time": 2863, "pitch": 56, "duration": 4, "velocity": 88}, {"time": 2869, "pitch": 44, "duration": 8, "velocity": 89}, {"time": 2869, "pitch": 60, "duration": 6, "velocity": 89}, {"time": 2869, "pitch": 63, "duration": 7, "velocity": 89}, {"time": 2875, "pitch": 56, "duration": 9, "velocity": 88}, {"time": 2881, "pitch": 49, "duration": 14, "velocity": 99}, {"time": 2881, "pitch": 61, "duration": 13, "velocity": 89}, {"time": 2881, "pitch": 65, "duration": 13, "velocity": 93}, {"time": 2893, "pitch": 56, "duration": 4, "velocity": 88}, {"time": 2899, "pitch": 49, "duration": 15, "velocity": 95}, {"time": 2899, "pitch": 61, "duration": 14, "velocity": 91}, {"time": 2899, "pitch": 65, "duration": 15, "velocity": 93}, {"time": 2911, "pitch": 56, "duration": 5, "velocity": 84}, {"time": 2917, "pitch": 49, "duration": 7, "velocity": 94}, {"time": 2917, "pitch": 61, "duration": 8, "velocity": 93}, {"time": 2917, "pitch": 65, "duration": 9, "velocity": 93}, {"time": 2923, "pitch": 56, "duration": 3, "velocity": 88}, {"time": 2929, "pitch": 46, "duration": 15, "velocity": 91}, {"time": 2929, "pitch": 58, "duration": 12, "velocity": 84}, {"time": 2929, "pitch": 61, "duration": 13, "velocity": 89}, {"time": 2929, "pitch": 65, "duration": 13, "velocity": 93}, {"time": 2941, "pitch": 53, "duration": 3, "velocity": 79}, {"time": 2947, "pitch": 46, "duration": 8, "velocity": 90}, {"time": 2947, "pitch": 53, "duration": 8, "velocity": 92}, {"time": 2947, "pitch": 58, "duration": 6, "velocity": 90}, {"time": 2947, "pitch": 61, "duration": 9, "velocity": 93}, {"time": 2947, "pitch": 65, "duration": 13, "velocity": 86}, {"time": 2959, "pitch": 58, "duration": 3, "velocity": 89}, {"time": 2965, "pitch": 46, "duration": 11, "velocity": 89}, {"time": 2965, "pitch": 53, "duration": 10, "velocity": 88}, {"time": 2965, "pitch": 58, "duration": 3, "velocity": 87}, {"time": 2965, "pitch": 61, "duration": 9, "velocity": 86}, {"time": 2971, "pitch": 58, "duration": 4, "velocity": 87}, {"time": 2977, "pitch": 51, "duration": 15, "velocity": 90}, {"time": 2977, "pitch": 63, "duration": 15, "velocity": 83}, {"time": 2977, "pitch": 66, "duration": 15, "velocity": 86}, {"time": 2989, "pitch": 58, "duration": 8, "velocity": 88}, {"time": 2995, "pitch": 51, "duration": 13, "velocity": 97}, {"time": 2995, "pitch": 63, "duration": 14, "velocity": 89}, {"time": 2995, "pitch": 66, "duration": 14, "velocity": 89}, {"time": 3007, "pitch": 58, "duration": 4, "velocity": 90}, {"time": 3013, "pitch": 51, "duration": 3, "velocity": 92}, {"time": 3013, "pitch": 63, "duration": 7, "velocity": 89}, {"time": 3013, "pitch": 66, "duration": 8, "velocity": 89}, {"time": 3019, "pitch": 58, "duration": 3, "velocity": 88}, {"time": 3025, "pitch": 44, "duration": 14, "velocity": 89}, {"time": 3025, "pitch": 60, "duration": 13, "velocity": 82}, {"time": 3025, "pitch": 63, "duration": 13, "velocity": 88}, {"time": 3037, "pitch": 56, "duration": 5, "velocity": 85}, {"time": 3043, "pitch": 44, "duration": 13, "velocity": 89}, {"time": 3043, "pitch": 60, "duration": 13, "velocity": 87}, {"time": 3043, "pitch": 63, "duration": 13, "velocity": 89}, {"time": 3055, "pitch": 56, "duration": 6, "velocity": 89}, {"time": 3061, "pitch": 44, "duration": 8, "velocity": 88}, {"time": 3061, "pitch": 60, "duration": 7, "velocity": 84}, {"time": 3061, "pitch": 63, "duration": 8, "velocity": 89}, {"time": 3067, "pitch": 56, "duration": 7, "velocity": 89}, {"time": 3073, "pitch": 49, "duration": 16, "velocity": 89}, {"time": 3073, "pitch": 61, "duration": 13, "velocity": 85}, {"time": 3073, "pitch": 65, "duration": 13, "velocity": 89}, {"time": 3085, "pitch": 56, "duration": 8, "velocity": 84}, {"time": 3091, "pitch": 49, "duration": 16, "velocity": 99}, {"time": 3091, "pitch": 61, "duration": 14, "velocity": 90}, {"time": 3091, "pitch": 65, "duration": 14, "velocity": 93}, {"time": 3103, "pitch": 56, "duration": 7, "velocity": 90}, {"time": 3109, "pitch": 49, "duration": 9, "velocity": 99}, {"time": 3109, "pitch": 61, "duration": 9, "velocity": 89}, {"time": 3109, "pitch": 65, "duration": 9, "velocity": 90}, {"time": 3115, "pitch": 56, "duration": 4, "velocity": 88}, {"time": 3121, "pitch": 46, "duration": 16, "velocity": 91}, {"time": 3121, "pitch": 61, "duration": 14, "velocity": 90}, {"time": 3121, "pitch": 65, "duration": 14, "velocity": 94}, {"time": 3133, "pitch": 58, "duration": 6, "velocity": 82}, {"time": 3139, "pitch": 46, "duration": 13, "velocity": 91}, {"time": 3139, "pitch": 61, "duration": 13, "velocity": 89}, {"time": 3139, "pitch": 65, "duration": 12, "velocity": 93}, {"time": 3151, "pitch": 58, "duration": 7, "velocity": 83}, {"time": 3157, "pitch": 46, "duration": 9, "velocity": 90}, {"time": 3157, "pitch": 61, "duration": 7, "velocity": 93}, {"time": 3157, "pitch": 65, "duration": 8, "velocity": 92}, {"time": 3163, "pitch": 58, "duration": 7, "velocity": 88}, {"time": 3169, "pitch": 51, "duration": 16, "velocity": 92}, {"time": 3169, "pitch": 63, "duration": 14, "velocity": 90}, {"time": 3169, "pitch": 66, "duration": 13, "velocity": 88}, {"time": 3181, "pitch": 58, "duration": 8, "velocity": 89}, {"time": 3187, "pitch": 51, "duration": 14, "velocity": 104}, {"time": 3187, "pitch": 63, "duration": 14, "velocity": 89}, {"time": 3187, "pitch": 66, "duration": 14, "velocity": 90}, {"time": 3199, "pitch": 58, "duration": 7, "velocity": 89}, {"time": 3205, "pitch": 51, "duration": 7, "velocity": 104}, {"time": 3205, "pitch": 63, "duration": 7, "velocity": 90}, {"time": 3205, "pitch": 66, "duration": 7, "velocity": 90}, {"time": 3211, "pitch": 58, "duration": 4, "velocity": 89}, {"time": 3217, "pitch": 44, "duration": 18, "velocity": 90}, {"time": 3217, "pitch": 56, "duration": 11, "velocity": 84}, {"time": 3217, "pitch": 60, "duration": 11, "velocity": 88}, {"time": 3229, "pitch": 51, "duration": 5, "velocity": 84}, {"time": 3235, "pitch": 44, "duration": 13, "velocity": 91}, {"time": 3235, "pitch": 51, "duration": 13, "velocity": 95}, {"time": 3235, "pitch": 56, "duration": 7, "velocity": 90}, {"time": 3235, "pitch": 60, "duration": 13, "velocity": 91}, {"time": 3235, "pitch": 63, "duration": 14, "velocity": 91}, {"time": 3247, "pitch": 56, "duration": 4, "velocity": 88}, {"time": 3253, "pitch": 44, "duration": 8, "velocity": 89}, {"time": 3253, "pitch": 60, "duration": 6, "velocity": 89}, {"time": 3253, "pitch": 63, "duration": 7, "velocity": 89}, {"time": 3259, "pitch": 56, "duration": 9, "velocity": 88}, {"time": 3265, "pitch": 49, "duration": 14, "velocity": 99}, {"time": 3265, "pitch": 61, "duration": 13, "velocity": 89}, {"time": 3265, "pitch": 65, "duration": 13, "velocity": 93}, {"time": 3277, "pitch": 56, "duration": 4, "velocity": 88}, {"time": 3283, "pitch": 49, "duration": 15, "velocity": 95}, {"time": 3283, "pitch": 61, "duration": 14, "velocity": 91}, {"time": 3283, "pitch": 65, "duration": 15, "velocity": 93}, {"time": 3295, "pitch": 56, "duration": 5, "velocity": 84}, {"time": 3301, "pitch": 49, "duration": 7, "velocity": 94}, {"time": 3301, "pitch": 61, "duration": 8, "velocity": 93}, {"time": 3301, "pitch": 65, "duration": 9, "velocity": 93}, {"time": 3307, "pitch": 56, "duration": 3, "velocity": 88}, {"time": 3313, "pitch": 46, "duration": 15, "velocity": 91}, {"time": 3313, "pitch": 58, "duration": 12, "velocity": 84}, {"time": 3313, "pitch": 61, "duration": 13, "velocity": 89}, {"time": 3313, "pitch": 65, "duration": 13, "velocity": 93}, {"time": 3325, "pitch": 53, "duration": 3, "velocity": 79}, {"time": 3331, "pitch": 46, "duration": 8, "velocity": 90}, {"time": 3331, "pitch": 53, "duration": 8, "velocity": 92}, {"time": 3331, "pitch": 58, "duration": 6, "velocity": 90}, {"time": 3331, "pitch": 61, "duration": 9, "velocity": 93}, {"time": 3331, "pitch": 65, "duration": 13, "velocity": 86}, {"time": 3343, "pitch": 58, "duration": 3, "velocity": 89}, {"time": 3349, "pitch": 46, "duration": 11, "velocity": 89}, {"time": 3349, "pitch": 53, "duration": 10, "velocity": 88}, {"time": 3349, "pitch": 58, "duration": 3, "velocity": 87}, {"time": 3349, "pitch": 61, "duration": 9, "velocity": 86}, {"time": 3355, "pitch": 58, "duration": 4, "velocity": 87}, {"time": 3361, "pitch": 39, "duration": 33, "velocity": 90}, {"time": 3361, "pitch": 58, "duration": 5, "velocity": 84}, {"time": 3361, "pitch": 66, "duration": 9, "velocity": 86}, {"time": 3367, "pitch": 46, "duration": 26, "velocity": 77}, {"time": 3373, "pitch": 58, "duration": 3, "velocity": 84}, {"time": 3379, "pitch": 58, "duration": 7, "velocity": 89}, {"time": 3379, "pitch": 63, "duration": 9, "velocity": 94}, {"time": 3379, "pitch": 66, "duration": 13, "velocity": 92}, {"time": 3391, "pitch": 58, "duration": 3, "velocity": 81}, {"time": 3397, "pitch": 58, "duration": 2, "velocity": 88}, {"time": 3397, "pitch": 63, "duration": 6, "velocity": 92}, {"time": 3397, "pitch": 66, "duration": 7, "velocity": 89}, {"time": 3403, "pitch": 58, "duration": 2, "velocity": 81}, {"time": 3409, "pitch": 44, "duration": 45, "velocity": 89}, {"time": 3409, "pitch": 56, "duration": 7, "velocity": 85}, {"time": 3409, "pitch": 60, "duration": 9, "velocity": 90}, {"time": 3415, "pitch": 51, "duration": 38, "velocity": 79}, {"time": 3421, "pitch": 56, "duration": 3, "velocity": 89}, {"time": 3427, "pitch": 56, "duration": 4, "velocity": 91}, {"time": 3427, "pitch": 60, "duration": 3, "velocity": 91}, {"time": 3427, "pitch": 63, "duration": 4, "velocity": 89}, {"time": 3439, "pitch": 56, "duration": 4, "velocity": 88}, {"time": 3445, "pitch": 56, "duration": 3, "velocity": 90}, {"time": 3445, "pitch": 60, "duration": 4, "velocity": 90}, {"time": 3445, "pitch": 63, "duration": 8, "velocity": 89}, {"time": 3451, "pitch": 56, "duration": 3, "velocity": 87}, {"time": 3457, "pitch": 49, "duration": 40, "velocity": 90}, {"time": 3457, "pitch": 56, "duration": 12, "velocity": 89}, {"time": 3457, "pitch": 61, "duration": 15, "velocity": 91}, {"time": 3457, "pitch": 65, "duration": 4, "velocity": 91}, {"time": 3469, "pitch": 53, "duration": 32, "velocity": 80}, {"time": 3475, "pitch": 56, "duration": 8, "velocity": 86}, {"time": 3475, "pitch": 61, "duration": 13, "velocity": 88}, {"time": 3487, "pitch": 56, "duration": 3, "velocity": 84}, {"time": 3493, "pitch": 56, "duration": 3, "velocity": 90}, {"time": 3493, "pitch": 61, "duration": 8, "velocity": 94}, {"time": 3493, "pitch": 65, "duration": 8, "velocity": 94}, {"time": 3499, "pitch": 56, "duration": 3, "velocity": 86}, {"time": 3505, "pitch": 46, "duration": 46, "velocity": 89}, {"time": 3505, "pitch": 58, "duration": 7, "velocity": 84}, {"time": 3505, "pitch": 61, "duration": 13, "velocity": 89}, {"time": 3511, "pitch": 53, "duration": 40, "velocity": 80}, {"time": 3517, "pitch": 58, "duration": 3, "velocity": 79}, {"time": 3523, "pitch": 58, "duration": 5, "velocity": 89}, {"time": 3523, "pitch": 61, "duration": 6, "velocity": 91}, {"time": 3523, "pitch": 65, "duration": 5, "velocity": 91}, {"time": 3535, "pitch": 58, "duration": 3, "velocity": 77}, {"time": 3541, "pitch": 58, "duration": 3, "velocity": 88}, {"time": 3541, "pitch": 61, "duration": 8, "velocity": 88}, {"time": 3541, "pitch": 65, "duration": 8, "velocity": 89}, {"time": 3547, "pitch": 58, "duration": 3, "velocity": 77}, {"time": 3553, "pitch": 39, "duration": 33, "velocity": 90}, {"time": 3553, "pitch": 58, "duration": 5, "velocity": 84}, {"time": 3553, "pitch": 66, "duration": 9, "velocity": 86}, {"time": 3559, "pitch": 46, "duration": 26, "velocity": 77}, {"time": 3565, "pitch": 58, "duration": 3, "velocity": 84}, {"time": 3571, "pitch": 58, "duration": 7, "velocity": 89}, {"time": 3571, "pitch": 63, "duration": 9, "velocity": 94}, {"time": 3571, "pitch": 66, "duration": 13, "velocity": 92}, {"time": 3583, "pitch": 58, "duration": 3, "velocity": 81}, {"time": 3589, "pitch": 58, "duration": 2, "velocity": 88}, {"time": 3589, "pitch": 63, "duration": 6, "velocity": 92}, {"time": 3589, "pitch": 66, "duration": 7, "velocity": 89}, {"time": 3595, "pitch": 58, "duration": 2, "velocity": 81}, {"time": 3601, "pitch": 44, "duration": 45, "velocity": 89}, {"time": 3601, "pitch": 56, "duration": 7, "velocity": 85}, {"time": 3601, "pitch": 60, "duration": 9, "velocity": 90}, {"time": 3607, "pitch": 51, "duration": 38, "velocity": 79}, {"time": 3613, "pitch": 56, "duration": 3, "velocity": 89}, {"time": 3619, "pitch": 56, "duration": 4, "velocity": 91}, {"time": 3619, "pitch": 60, "duration": 3, "velocity": 91}, {"time": 3619, "pitch": 63, "duration": 4, "velocity": 89}, {"time": 3631, "pitch": 56, "duration": 4, "velocity": 88}, {"time": 3637, "pitch": 56, "duration": 3, "velocity": 90}, {"time": 3637, "pitch": 60, "duration": 4, "velocity": 90}, {"time": 3637, "pitch": 63, "duration": 8, "velocity": 89}, {"time": 3643, "pitch": 56, "duration": 3, "velocity": 87}, {"time": 3649, "pitch": 49, "duration": 40, "velocity": 90}, {"time": 3649, "pitch": 56, "duration": 12, "velocity": 89}, {"time": 3649, "pitch": 61, "duration": 15, "velocity": 91}, {"time": 3649, "pitch": 65, "duration": 4, "velocity": 91}, {"time": 3661, "pitch": 53, "duration": 32, "velocity": 80}, {"time": 3667, "pitch": 56, "duration": 8, "velocity": 86}, {"time": 3667, "pitch": 61, "duration": 13, "velocity": 88}, {"time": 3679, "pitch": 56, "duration": 3, "velocity": 84}, {"time": 3685, "pitch": 56, "duration": 3, "velocity": 90}, {"time": 3685, "pitch": 61, "duration": 8, "velocity": 94}, {"time": 3685, "pitch": 65, "duration": 8, "velocity": 94}, {"time": 3691, "pitch": 56, "duration": 3, "velocity": 86}, {"time": 3697, "pitch": 46, "duration": 46, "velocity": 89}, {"time": 3697, "pitch": 58, "duration": 7, "velocity": 84}, {"time": 3697, "pitch": 61, "duration": 13, "velocity": 89}, {"time": 3703, "pitch": 53, "duration": 40, "velocity": 80}, {"time": 3709, "pitch": 58, "duration": 3, "velocity": 79}, {"time": 3715, "pitch": 58, "duration": 5, "velocity": 89}, {"time": 3715, "pitch": 61, "duration": 6, "velocity": 91}, {"time": 3715, "pitch": 65, "duration": 5, "velocity": 91}, {"time": 3727, "pitch": 58, "duration": 3, "velocity": 77}, {"time": 3733, "pitch": 58, "duration": 3, "velocity": 88}, {"time": 3733, "pitch": 61, "duration": 8, "velocity": 88}, {"time": 3733, "pitch": 65, "duration": 8, "velocity": 89}, {"time": 3739, "pitch": 58, "duration": 3, "velocity": 77}, {"time": 3745, "pitch": 39, "duration": 33, "velocity": 90}, {"time": 3745, "pitch": 58, "duration": 5, "velocity": 84}, {"time": 3745, "pitch": 66, "duration": 9, "velocity": 86}, {"time": 3751, "pitch": 46, "duration": 26, "velocity": 77}, {"time": 3757, "pitch": 58, "duration": 3, "velocity": 84}, {"time": 3763, "pitch": 58, "duration": 7, "velocity": 89}, {"time": 3763, "pitch": 63, "duration": 9, "velocity": 94}, {"time": 3763, "pitch": 66, "duration": 13, "velocity": 92}, {"time": 3775, "pitch": 58, "duration": 3, "velocity": 81}, {"time": 3781, "pitch": 58, "duration": 2, "velocity": 88}, {"time": 3781, "pitch": 63, "duration": 6, "velocity": 92}, {"time": 3781, "pitch": 66, "duration": 7, "velocity": 89}, {"time": 3787, "pitch": 58, "duration": 2, "velocity": 81}, {"time": 3793, "pitch": 44, "duration": 45, "velocity": 89}, {"time": 3793, "pitch": 56, "duration": 7, "velocity": 85}, {"time": 3793, "pitch": 60, "duration": 9, "velocity": 90}, {"time": 3799, "pitch": 51, "duration": 38, "velocity": 79}, {"time": 3805, "pitch": 56, "duration": 3, "velocity": 89}, {"time": 3811, "pitch": 56, "duration": 4, "velocity": 91}, {"time": 3811, "pitch": 60, "duration": 3, "velocity": 91}, {"time": 3811, "pitch": 63, "duration": 4, "velocity": 89}, {"time": 3823, "pitch": 56, "duration": 4, "velocity": 88}, {"time": 3829, "pitch": 56, "duration": 3, "velocity": 90}, {"time": 3829, "pitch": 60, "duration": 4, "velocity": 90}, {"time": 3829, "pitch": 63, "duration": 8, "velocity": 89}, {"time": 3835, "pitch": 56, "duration": 3, "velocity": 87}, {"time": 3841, "pitch": 49, "duration": 40, "velocity": 90}, {"time": 3841, "pitch": 56, "duration": 12, "velocity": 89}, {"time": 3841, "pitch": 61, "duration": 15, "velocity": 91}, {"time": 3841, "pitch": 65, "duration": 4, "velocity": 91}, {"time": 3853, "pitch": 53, "duration": 32, "velocity": 80}, {"time": 3859, "pitch": 56, "duration": 8, "velocity": 86}, {"time": 3859, "pitch": 61, "duration": 13, "velocity": 88}, {"time": 3871, "pitch": 56, "duration": 3, "velocity": 84}, {"time": 3877, "pitch": 56, "duration": 3, "velocity": 90}, {"time": 3877, "pitch": 61, "duration": 8, "velocity": 94}, {"time": 3877, "pitch": 65, "duration": 8, "velocity": 94}, {"time": 3883, "pitch": 56, "duration": 3, "velocity": 86}, {"time": 3889, "pitch": 46, "duration": 46, "velocity": 89}, {"time": 3889, "pitch": 58, "duration": 7, "velocity": 84}, {"time": 3889, "pitch": 61, "duration": 13, "velocity": 89}, {"time": 3895, "pitch": 53, "duration": 40, "velocity": 80}, {"time": 3901, "pitch": 58, "duration": 3, "velocity": 79}, {"time": 3907, "pitch": 58, "duration": 5, "velocity": 89}, {"time": 3907, "pitch": 61, "duration": 6, "velocity": 91}, {"time": 3907, "pitch": 65, "duration": 5, "velocity": 91}, {"time": 3919, "pitch": 58, "duration": 3, "velocity": 77}, {"time": 3925, "pitch": 58, "duration": 3, "velocity": 88}, {"time": 3925, "pitch": 61, "duration": 8, "velocity": 88}, {"time": 3925, "pitch": 65, "duration": 8, "velocity": 89}, {"time": 3931, "pitch": 58, "duration": 3, "velocity": 77}, {"time": 3937, "pitch": 51, "duration": 37, "velocity": 89}, {"time": 3937, "pitch": 63, "duration": 14, "velocity": 89}, {"time": 3937, "pitch": 66, "duration": 14, "velocity": 89}, {"time": 3943, "pitch": 54, "duration": 30, "velocity": 73}, {"time": 3949, "pitch": 58, "duration": 3, "velocity": 80}, {"time": 3955, "pitch": 58, "duration": 7, "velocity": 90}, {"time": 3955, "pitch": 63, "duration": 14, "velocity": 92}, {"time": 3955, "pitch": 66, "duration": 14, "velocity": 90}, {"time": 3967, "pitch": 58, "duration": 3, "velocity": 80}, {"time": 3973, "pitch": 58, "duration": 4, "velocity": 83}, {"time": 3973, "pitch": 63, "duration": 6, "velocity": 90}, {"time": 3973, "pitch": 66, "duration": 6, "velocity": 89}, {"time": 3979, "pitch": 58, "duration": 2, "velocity": 72}, {"time": 3985, "pitch": 44, "duration": 16, "velocity": 89}, {"time": 3985, "pitch": 56, "duration": 6, "velocity": 91}, {"time": 3985, "pitch": 60, "duration": 7, "velocity": 88}, {"time": 3985, "pitch": 63, "duration": 7, "velocity": 89}, {"time": 3991, "pitch": 51, "duration": 9, "velocity": 79}, {"time": 3997, "pitch": 56, "duration": 3, "velocity": 79}, {"time": 4003, "pitch": 44, "duration": 26, "velocity": 88}, {"time": 4003, "pitch": 51, "duration": 26, "velocity": 88}, {"time": 4003, "pitch": 56, "duration": 8, "velocity": 89}, {"time": 4003, "pitch": 60, "duration": 13, "velocity": 89}, {"time": 4003, "pitch": 63, "duration": 14, "velocity": 89}, {"time": 4015, "pitch": 56, "duration": 3, "velocity": 84}, {"time": 4021, "pitch": 56, "duration": 3, "velocity": 90}, {"time": 4021, "pitch": 60, "duration": 5, "velocity": 95}, {"time": 4021, "pitch": 63, "duration": 8, "velocity": 90}, {"time": 4027, "pitch": 56, "duration": 3, "velocity": 84}, {"time": 4033, "pitch": 49, "duration": 32, "velocity": 88}, {"time": 4033, "pitch": 56, "duration": 4, "velocity": 88}, {"time": 4033, "pitch": 61, "duration": 9, "velocity": 89}, {"time": 4033, "pitch": 65, "duration": 14, "velocity": 92}, {"time": 4039, "pitch": 56, "duration": 9, "velocity": 77}, {"time": 4051, "pitch": 56, "duration": 6, "velocity": 91}, {"time": 4051, "pitch": 61, "duration": 13, "velocity": 89}, {"time": 4051, "pitch": 65, "duration": 13, "velocity": 92}, {"time": 4063, "pitch": 56, "duration": 3, "velocity": 87}, {"time": 4069, "pitch": 49, "duration": 7, "velocity": 97}, {"time": 4069, "pitch": 56, "duration": 3, "velocity": 88}, {"time": 4069, "pitch": 61, "duration": 8, "velocity": 91}, {"time": 4069, "pitch": 65, "duration": 8, "velocity": 91}, {"time": 4075, "pitch": 56, "duration": 3, "velocity": 83}, {"time": 4081, "pitch": 46, "duration": 47, "velocity": 89}, {"time": 4081, "pitch": 58, "duration": 6, "velocity": 83}, {"time": 4081, "pitch": 61, "duration": 7, "velocity": 83}, {"time": 4081, "pitch": 65, "duration": 7, "velocity": 89}, {"time": 4087, "pitch": 53, "duration": 41, "velocity": 79}, {"time": 4093, "pitch": 58, "duration": 3, "velocity": 76}, {"time": 4099, "pitch": 58, "duration": 7, "velocity": 89}, {"time": 4099, "pitch": 61, "duration": 9, "velocity": 93}, {"time": 4099, "pitch": 65, "duration": 9, "velocity": 91}, {"time": 4111, "pitch": 58, "duration": 2, "velocity": 75}, {"time": 4117, "pitch": 58, "duration": 4, "velocity": 87}, {"time": 4117, "pitch": 61, "duration": 9, "velocity": 90}, {"time": 4117, "pitch": 65, "duration": 9, "velocity": 89}, {"time": 4123, "pitch": 58, "duration": 4, "velocity": 85}, {"time": 4129, "pitch": 51, "duration": 15, "velocity": 90}, {"time": 4129, "pitch": 63, "duration": 15, "velocity": 83}, {"time": 4129, "pitch": 66, "duration": 15, "velocity": 86}, {"time": 4141, "pitch": 58, "duration": 8, "velocity": 88}, {"time": 4147, "pitch": 51, "duration": 13, "velocity": 97}, {"time": 4147, "pitch": 63, "duration": 14, "velocity": 89}, {"time": 4147, "pitch": 66, "duration": 14, "velocity": 89}, {"time": 4159, "pitch": 58, "duration": 4, "velocity": 90}, {"time": 4165, "pitch": 51, "duration": 3, "velocity": 92}, {"time": 4165, "pitch": 63, "duration": 7, "velocity": 89}, {"time": 4165, "pitch": 66, "duration": 8, "velocity": 89}, {"time": 4171, "pitch": 58, "duration": 3, "velocity": 88}, {"time": 4177, "pitch": 44, "duration": 14, "velocity": 89}, {"time": 4177, "pitch": 60, "duration": 13, "velocity": 82}, {"time": 4177, "pitch": 63, "duration": 13, "velocity": 88}, {"time": 4189, "pitch": 56, "duration": 5, "velocity": 85}, {"time": 4195, "pitch": 44, "duration": 13, "velocity": 89}, {"time": 4195, "pitch": 60, "duration": 13, "velocity": 87}, {"time": 4195, "pitch": 63, "duration": 13, "velocity": 89}, {"time": 4207, "pitch": 56, "duration": 6, "velocity": 89}, {"time": 4213, "pitch": 44, "duration": 8, "velocity": 88}, {"time": 4213, "pitch": 60, "duration": 7, "velocity": 84}, {"time": 4213, "pitch": 63, "duration": 8, "velocity": 89}, {"time": 4219, "pitch": 56, "duration": 7, "velocity": 89}, {"time": 4225, "pitch": 49, "duration": 16, "velocity": 89}, {"time": 4225, "pitch": 61, "duration": 13, "velocity": 85}, {"time": 4225, "pitch": 65, "duration": 13, "velocity": 89}, {"time": 4237, "pitch": 56, "duration": 8, "velocity": 84}, {"time": 4243, "pitch": 49, "duration": 16, "velocity": 99}, {"time": 4243, "pitch": 61, "duration": 14, "velocity": 90}, {"time": 4243, "pitch": 65, "duration": 14, "velocity": 93}, {"time": 4255, "pitch": 56, "duration": 7, "velocity": 90}, {"time": 4261, "pitch": 49, "duration": 9, "velocity": 99}, {"time": 4261, "pitch": 61, "duration": 9, "velocity": 89}, {"time": 4261, "pitch": 65, "duration": 9, "velocity": 90}, {"time": 4267, "pitch": 56, "duration": 4, "velocity": 88}, {"time": 4273, "pitch": 46, "duration": 16, "velocity": 91}, {"time": 4273, "pitch": 61, "duration": 14, "velocity": 90}, {"time": 4273, "pitch": 65, "duration": 14, "velocity": 94}, {"time": 4285, "pitch": 58, "duration": 6, "velocity": 82}, {"time": 4291, "pitch": 46, "duration": 13, "velocity": 91}, {"time": 4291, "pitch": 61, "duration": 13, "velocity": 89}, {"time": 4291, "pitch": 65, "duration": 12, "velocity": 93}, {"time": 4303, "pitch": 58, "duration": 7, "velocity": 83}, {"time": 4309, "pitch": 46, "duration": 9, "velocity": 90}, {"time": 4309, "pitch": 61, "duration": 7, "velocity": 93}, {"time": 4309, "pitch": 65, "duration": 8, "velocity": 92}, {"time": 4315, "pitch": 58, "duration": 7, "velocity": 88}, {"time": 4321, "pitch": 51, "duration": 16, "velocity": 92}, {"time": 4321, "pitch": 63, "duration": 14, "velocity": 90}, {"time": 4321, "pitch": 66, "duration": 13, "velocity": 88}, {"time": 4333, "pitch": 58, "duration": 8, "velocity": 89}, {"time": 4339, "pitch": 51, "duration": 14, "velocity": 104}, {"time": 4339, "pitch": 63, "duration": 14, "velocity": 89}, {"time": 4339, "pitch": 66, "duration": 14, "velocity": 90}, {"time": 4351, "pitch": 58, "duration": 7, "velocity": 89}, {"time": 4357, "pitch": 51, "duration": 7, "velocity": 104}, {"time": 4357, "pitch": 63, "duration": 7, "velocity": 90}, {"time": 4357, "pitch": 66, "duration": 7, "velocity": 90}, {"time": 4363, "pitch": 58, "duration": 4, "velocity": 89}, {"time": 4369, "pitch": 44, "duration": 18, "velocity": 90}, {"time": 4369, "pitch": 56, "duration": 11, "velocity": 84}, {"time": 4369, "pitch": 60, "duration": 11, "velocity": 88}, {"time": 4381, "pitch": 51, "duration": 5, "velocity": 84}, {"time": 4387, "pitch": 44, "duration": 13, "velocity": 91}, {"time": 4387, "pitch": 51, "duration": 13, "velocity": 95}, {"time": 4387, "pitch": 56, "duration": 7, "velocity": 90}, {"time": 4387, "pitch": 60, "duration": 13, "velocity": 91}, {"time": 4387, "pitch": 63, "duration": 14, "velocity": 91}, {"time": 4399, "pitch": 56, "duration": 4, "velocity": 88}, {"time": 4405, "pitch": 44, "duration": 8, "velocity": 89}, {"time": 4405, "pitch": 60, "duration": 6, "velocity": 89}, {"time": 4405, "pitch": 63, "duration": 7, "velocity": 89}, {"time": 4411, "pitch": 56, "duration": 9, "velocity": 88}, {"time": 4417, "pitch": 49, "duration": 14, "velocity": 99}, {"time": 4417, "pitch": 61, "duration": 13, "velocity": 89}, {"time": 4417, "pitch": 65, "duration": 13, "velocity": 93}, {"time": 4429, "pitch": 56, "duration": 4, "velocity": 88}, {"time": 4435, "pitch": 49, "duration": 15, "velocity": 95}, {"time": 4435, "pitch": 61, "duration": 14, "velocity": 91}, {"time": 4435, "pitch": 65, "duration": 15, "velocity": 93}, {"time": 4447, "pitch": 56, "duration": 5, "velocity": 84}, {"time": 4453, "pitch": 49, "duration": 7, "velocity": 94}, {"time": 4453, "pitch": 61, "duration": 8, "velocity": 93}, {"time": 4453, "pitch": 65, "duration": 9, "velocity": 93}, {"time": 4459, "pitch": 56, "duration": 3, "velocity": 88}, {"time": 4465, "pitch": 46, "duration": 15, "velocity": 91}, {"time": 4465, "pitch": 58, "duration": 12, "velocity": 84}, {"time": 4465, "pitch": 61, "duration": 13, "velocity": 89}, {"time": 4465, "pitch": 65, "duration": 13, "velocity": 93}, {"time": 4477, "pitch": 53, "duration": 3, "velocity": 79}, {"time": 4483, "pitch": 46, "duration": 8, "velocity": 90}, {"time": 4483, "pitch": 53, "duration": 8, "velocity": 92}, {"time": 4483, "pitch": 58, "duration": 6, "velocity": 90}, {"time": 4483, "pitch": 61, "duration": 9, "velocity": 93}, {"time": 4483, "pitch": 65, "duration": 13, "velocity": 86}, {"time": 4495, "pitch": 58, "duration": 3, "velocity": 89}, {"time": 4501, "pitch": 46, "duration": 11, "velocity": 89}, {"time": 4501, "pitch": 53, "duration": 10, "velocity": 88}, {"time": 4501, "pitch": 58, "duration": 3, "velocity": 87}, {"time": 4501, "pitch": 61, "duration": 9, "velocity": 86}, {"time": 4507, "pitch": 58, "duration": 4, "velocity": 87}, {"time": 4513, "pitch": 51, "duration": 15, "velocity": 90}, {"time": 4513, "pitch": 63, "duration": 15, "velocity": 83}, {"time": 4513, "pitch": 66, "duration": 15, "velocity": 86}, {"time": 4525, "pitch": 58, "duration": 8, "velocity": 88}, {"time": 4531, "pitch": 51, "duration": 13, "velocity": 97}, {"time": 4531, "pitch": 63, "duration": 14, "velocity": 89}, {"time": 4531, "pitch": 66, "duration": 14, "velocity": 89}, {"time": 4543, "pitch": 58, "duration": 4, "velocity": 90}, {"time": 4549, "pitch": 51, "duration": 3, "velocity": 92}, {"time": 4549, "pitch": 63, "duration": 7, "velocity": 89}, {"time": 4549, "pitch": 66, "duration": 8, "velocity": 89}, {"time": 4555, "pitch": 58, "duration": 3, "velocity": 88}, {"time": 4561, "pitch": 44, "duration": 14, "velocity": 89}, {"time": 4561, "pitch": 60, "duration": 13, "velocity": 82}, {"time": 4561, "pitch": 63, "duration": 13, "velocity": 88}, {"time": 4573, "pitch": 56, "duration": 5, "velocity": 85}, {"time": 4579, "pitch": 44, "duration": 13, "velocity": 89}, {"time": 4579, "pitch": 60, "duration": 13, "velocity": 87}, {"time": 4579, "pitch": 63, "duration": 13, "velocity": 89}, {"time": 4591, "pitch": 56, "duration": 6, "velocity": 89}, {"time": 4597, "pitch": 44, "duration": 8, "velocity": 88}, {"time": 4597, "pitch": 60, "duration": 7, "velocity": 84}, {"time": 4597, "pitch": 63, "duration": 8, "velocity": 89}, {"time": 4603, "pitch": 56, "duration": 7, "velocity": 89}, {"time": 4609, "pitch": 49, "duration": 16, "velocity": 89}, {"time": 4609, "pitch": 61, "duration": 13, "velocity": 85}, {"time": 4609, "pitch": 65, "duration": 13, "velocity": 89}, {"time": 4621, "pitch": 56, "duration": 8, "velocity": 84}, {"time": 4627, "pitch": 49, "duration": 16, "velocity": 99}, {"time": 4627, "pitch": 61, "duration": 14, "velocity": 90}, {"time": 4627, "pitch": 65, "duration": 14, "velocity": 93}, {"time": 4639, "pitch": 56, "duration": 7, "velocity": 90}, {"time": 4645, "pitch": 49, "duration": 9, "velocity": 99}, {"time": 4645, "pitch": 61, "duration": 9, "velocity": 89}, {"time": 4645, "pitch": 65, "duration": 9, "velocity": 90}, {"time": 4651, "pitch": 56, "duration": 4, "velocity": 88}, {"time": 4657, "pitch": 46, "duration": 16, "velocity": 91}, {"time": 4657, "pitch": 61, "duration": 14, "velocity": 90}, {"time": 4657, "pitch": 65, "duration": 14, "velocity": 94}, {"time": 4669, "pitch": 58, "duration": 6, "velocity": 82}, {"time": 4675, "pitch": 46, "duration": 13, "velocity": 91}, {"time": 4675, "pitch": 61, "duration": 13, "velocity": 89}, {"time": 4675, "pitch": 65, "duration": 12, "velocity": 93}, {"time": 4687, "pitch": 58, "duration": 7, "velocity": 83}, {"time": 4693, "pitch": 46, "duration": 9, "velocity": 90}, {"time": 4693, "pitch": 61, "duration": 7, "velocity": 93}, {"time": 4693, "pitch": 65, "duration": 8, "velocity": 92}, {"time": 4699, "pitch": 58, "duration": 7, "velocity": 88}, {"time": 4705, "pitch": 51, "duration": 16, "velocity": 92}, {"time": 4705, "pitch": 63, "duration": 14, "velocity": 90}, {"time": 4705, "pitch": 66, "duration": 13, "velocity": 88}, {"time": 4717, "pitch": 58, "duration": 8, "velocity": 89}, {"time": 4723, "pitch": 51, "duration": 14, "velocity": 104}, {"time": 4723, "pitch": 63, "duration": 14, "velocity": 89}, {"time": 4723, "pitch": 66, "duration": 14, "velocity": 90}, {"time": 4735, "pitch": 58, "duration": 7, "velocity": 89}, {"time": 4741, "pitch": 51, "duration": 7, "velocity": 104}, {"time": 4741, "pitch": 63, "duration": 7, "velocity": 90}, {"time": 4741, "pitch": 66, "duration": 7, "velocity": 90}, {"time": 4747, "pitch": 58, "duration": 4, "velocity": 89}, {"time": 4753, "pitch": 44, "duration": 18, "velocity": 90}, {"time": 4753, "pitch": 56, "duration": 11, "velocity": 84}, {"time": 4753, "pitch": 60, "duration": 11, "velocity": 88}, {"time": 4765, "pitch": 51, "duration": 5, "velocity": 84}, {"time": 4771, "pitch": 44, "duration": 13, "velocity": 91}, {"time": 4771, "pitch": 51, "duration": 13, "velocity": 95}, {"time": 4771, "pitch": 56, "duration": 7, "velocity": 90}, {"time": 4771, "pitch": 60, "duration": 13, "velocity": 91}, {"time": 4771, "pitch": 63, "duration": 14, "velocity": 91}, {"time": 4783, "pitch": 56, "duration": 4, "velocity": 88}, {"time": 4789, "pitch": 44, "duration": 8, "velocity": 89}, {"time": 4789, "pitch": 60, "duration": 6, "velocity": 89}, {"time": 4789, "pitch": 63, "duration": 7, "velocity": 89}, {"time": 4795, "pitch": 56, "duration": 9, "velocity": 88}, {"time": 4801, "pitch": 49, "duration": 14, "velocity": 99}, {"time": 4801, "pitch": 61, "duration": 13, "velocity": 89}, {"time": 4801, "pitch": 65, "duration": 13, "velocity": 93}, {"time": 4813, "pitch": 56, "duration": 4, "velocity": 88}, {"time": 4819, "pitch": 49, "duration": 15, "velocity": 95}, {"time": 4819, "pitch": 61, "duration": 14, "velocity": 91}, {"time": 4819, "pitch": 65, "duration": 15, "velocity": 93}, {"time": 4831, "pitch": 56, "duration": 5, "velocity": 84}, {"time": 4837, "pitch": 49, "duration": 7, "velocity": 94}, {"time": 4837, "pitch": 61, "duration": 8, "velocity": 93}, {"time": 4837, "pitch": 65, "duration": 9, "velocity": 93}, {"time": 4843, "pitch": 56, "duration": 3, "velocity": 88}, {"time": 4849, "pitch": 46, "duration": 15, "velocity": 91}, {"time": 4849, "pitch": 58, "duration": 12, "velocity": 84}, {"time": 4849, "pitch": 61, "duration": 13, "velocity": 89}, {"time": 4849, "pitch": 65, "duration": 13, "velocity": 93}, {"time": 4861, "pitch": 53, "duration": 3, "velocity": 79}, {"time": 4867, "pitch": 46, "duration": 8, "velocity": 90}, {"time": 4867, "pitch": 53, "duration": 8, "velocity": 92}, {"time": 4867, "pitch": 58, "duration": 6, "velocity": 90}, {"time": 4867, "pitch": 61, "duration": 9, "velocity": 93}, {"time": 4867, "pitch": 65, "duration": 13, "velocity": 86}, {"time": 4879, "pitch": 58, "duration": 3, "velocity": 89}, {"time": 4885, "pitch": 46, "duration": 11, "velocity": 89}, {"time": 4885, "pitch": 53, "duration": 10, "velocity": 88}, {"time": 4885, "pitch": 58, "duration": 3, "velocity": 87}, {"time": 4885, "pitch": 61, "duration": 9, "velocity": 86}, {"time": 4891, "pitch": 58, "duration": 4, "velocity": 87}, {"time": 4897, "pitch": 51, "duration": 15, "velocity": 90}, {"time": 4897, "pitch": 63, "duration": 15, "velocity": 83}, {"time": 4897, "pitch": 66, "duration": 15, "velocity": 86}, {"time": 4909, "pitch": 58, "duration": 8, "velocity": 88}, {"time": 4915, "pitch": 51, "duration": 13, "velocity": 97}, {"time": 4915, "pitch": 63, "duration": 14, "velocity": 89}, {"time": 4915, "pitch": 66, "duration": 14, "velocity": 89}, {"time": 4927, "pitch": 58, "duration": 4, "velocity": 90}, {"time": 4933, "pitch": 51, "duration": 3, "velocity": 92}, {"time": 4933, "pitch": 63, "duration": 7, "velocity": 89}, {"time": 4933, "pitch": 66, "duration": 8, "velocity": 89}, {"time": 4939, "pitch": 58, "duration": 3, "velocity": 88}, {"time": 4945, "pitch": 44, "duration": 14, "velocity": 89}, {"time": 4945, "pitch": 60, "duration": 13, "velocity": 82}, {"time": 4945, "pitch": 63, "duration": 13, "velocity": 88}, {"time": 4957, "pitch": 56, "duration": 5, "velocity": 85}, {"time": 4963, "pitch": 44, "duration": 13, "velocity": 89}, {"time": 4963, "pitch": 60, "duration": 13, "velocity": 87}, {"time": 4963, "pitch": 63, "duration": 13, "velocity": 89}, {"time": 4975, "pitch": 56, "duration": 6, "velocity": 89}, {"time": 4981, "pitch": 44, "duration": 8, "velocity": 88}, {"time": 4981, "pitch": 60, "duration": 7, "velocity": 84}, {"time": 4981, "pitch": 63, "duration": 8, "velocity": 89}, {"time": 4987, "pitch": 56, "duration": 7, "velocity": 89}, {"time": 4993, "pitch": 49, "duration": 16, "velocity": 89}, {"time": 4993, "pitch": 61, "duration": 13, "velocity": 85}, {"time": 4993, "pitch": 65, "duration": 13, "velocity": 89}, {"time": 5005, "pitch": 56, "duration": 8, "velocity": 84}, {"time": 5011, "pitch": 49, "duration": 16, "velocity": 99}, {"time": 5011, "pitch": 61, "duration": 14, "velocity": 90}, {"time": 5011, "pitch": 65, "duration": 14, "velocity": 93}, {"time": 5023, "pitch": 56, "duration": 7, "velocity": 90}, {"time": 5029, "pitch": 49, "duration": 9, "velocity": 99}, {"time": 5029, "pitch": 61, "duration": 9, "velocity": 89}, {"time": 5029, "pitch": 65, "duration": 9, "velocity": 90}, {"time": 5035, "pitch": 56, "duration": 4, "velocity": 88}, {"time": 5041, "pitch": 46, "duration": 16, "velocity": 91}, {"time": 5041, "pitch": 61, "duration": 14, "velocity": 90}, {"time": 5041, "pitch": 65, "duration": 14, "velocity": 94}, {"time": 5053, "pitch": 58, "duration": 6, "velocity": 82}, {"time": 5059, "pitch": 46, "duration": 13, "velocity": 91}, {"time": 5059, "pitch": 61, "duration": 13, "velocity": 89}, {"time": 5059, "pitch": 65, "duration": 12, "velocity": 93}, {"time": 5071, "pitch": 58, "duration": 7, "velocity": 83}, {"time": 5077, "pitch": 46, "duration": 9, "velocity": 90}, {"time": 5077, "pitch": 61, "duration": 7, "velocity": 93}, {"time": 5077, "pitch": 65, "duration": 8, "velocity": 92}, {"time": 5083, "pitch": 58, "duration": 7, "velocity": 88}, {"time": 5089, "pitch": 51, "duration": 16, "velocity": 92}, {"time": 5089, "pitch": 63, "duration": 14, "velocity": 90}, {"time": 5089, "pitch": 66, "duration": 13, "velocity": 88}, {"time": 5101, "pitch": 58, "duration": 8, "velocity": 89}, {"time": 5107, "pitch": 51, "duration": 14, "velocity": 104}, {"time": 5107, "pitch": 63, "duration": 14, "velocity": 89}, {"time": 5107, "pitch": 66, "duration": 14, "velocity": 90}, {"time": 5119, "pitch": 58, "duration": 7, "velocity": 89}, {"time": 5125, "pitch": 51, "duration": 7, "velocity": 104}, {"time": 5125, "pitch": 63, "duration": 7, "velocity": 90}, {"time": 5125, "pitch": 66, "duration": 7, "velocity": 90}, {"time": 5131, "pitch": 58, "duration": 4, "velocity": 89}, {"time": 5137, "pitch": 44, "duration": 18, "velocity": 90}, {"time": 5137, "pitch": 56, "duration": 11, "velocity": 84}, {"time": 5137, "pitch": 60, "duration": 11, "velocity": 88}, {"time": 5149, "pitch": 51, "duration": 5, "velocity": 84}, {"time": 5155, "pitch": 44, "duration": 13, "velocity": 91}, {"time": 5155, "pitch": 51, "duration": 13, "velocity": 95}, {"time": 5155, "pitch": 56, "duration": 7, "velocity": 90}, {"time": 5155, "pitch": 60, "duration": 13, "velocity": 91}, {"time": 5155, "pitch": 63, "duration": 14, "velocity": 91}, {"time": 5167, "pitch": 56, "duration": 4, "velocity": 88}, {"time": 5173, "pitch": 44, "duration": 8, "velocity": 89}, {"time": 5173, "pitch": 60, "duration": 6, "velocity": 89}, {"time": 5173, "pitch": 63, "duration": 7, "velocity": 89}, {"time": 5179, "pitch": 56, "duration": 9, "velocity": 88}, {"time": 5185, "pitch": 49, "duration": 14, "velocity": 99}, {"time": 5185, "pitch": 61, "duration": 13, "velocity": 89}, {"time": 5185, "pitch": 65, "duration": 13, "velocity": 93}, {"time": 5197, "pitch": 56, "duration": 4, "velocity": 88}, {"time": 5203, "pitch": 49, "duration": 15, "velocity": 95}, {"time": 5203, "pitch": 61, "duration": 14, "velocity": 91}, {"time": 5203, "pitch": 65, "duration": 15, "velocity": 93}, {"time": 5215, "pitch": 56, "duration": 5, "velocity": 84}, {"time": 5221, "pitch": 49, "duration": 7, "velocity": 94}, {"time": 5221, "pitch": 61, "duration": 8, "velocity": 93}, {"time": 5221, "pitch": 65, "duration": 9, "velocity": 93}, {"time": 5227, "pitch": 56, "duration": 3, "velocity": 88}, {"time": 5233, "pitch": 46, "duration": 15, "velocity": 91}, {"time": 5233, "pitch": 58, "duration": 12, "velocity": 84}, {"time": 5233, "pitch": 61, "duration": 13, "velocity": 89}, {"time": 5233, "pitch": 65, "duration": 13, "velocity": 93}, {"time": 5245, "pitch": 53, "duration": 3, "velocity": 79}, {"time": 5251, "pitch": 46, "duration": 8, "velocity": 90}, {"time": 5251, "pitch": 53, "duration": 8, "velocity": 92}, {"time": 5251, "pitch": 58, "duration": 6, "velocity": 90}, {"time": 5251, "pitch": 61, "duration": 9, "velocity": 93}, {"time": 5251, "pitch": 65, "duration": 13, "velocity": 86}, {"time": 5263, "pitch": 58, "duration": 3, "velocity": 89}, {"time": 5269, "pitch": 46, "duration": 11, "velocity": 89}, {"time": 5269, "pitch": 53, "duration": 10, "velocity": 88}, {"time": 5269, "pitch": 58, "duration": 3, "velocity": 87}, {"time": 5269, "pitch": 61, "duration": 9, "velocity": 86}, {"time": 5275, "pitch": 58, "duration": 4, "velocity": 87}, {"time": 5281, "pitch": 51, "duration": 15, "velocity": 90}, {"time": 5281, "pitch": 63, "duration": 15, "velocity": 83}, {"time": 5281, "pitch": 66, "duration": 15, "velocity": 86}, {"time": 5293, "pitch": 58, "duration": 8, "velocity": 88}, {"time": 5299, "pitch": 51, "duration": 13, "velocity": 97}, {"time": 5299, "pitch": 63, "duration": 14, "velocity": 89}, {"time": 5299, "pitch": 66, "duration": 14, "velocity": 89}, {"time": 5311, "pitch": 58, "duration": 4, "velocity": 90}, {"time": 5317, "pitch": 51, "duration": 3, "velocity": 92}, {"time": 5317, "pitch": 63, "duration": 7, "velocity": 89}, {"time": 5317, "pitch": 66, "duration": 8, "velocity": 89}, {"time": 5323, "pitch": 58, "duration": 3, "velocity": 88}, {"time": 5329, "pitch": 44, "duration": 14, "velocity": 89}, {"time": 5329, "pitch": 60, "duration": 13, "velocity": 82}, {"time": 5329, "pitch": 63, "duration": 13, "velocity": 88}, {"time": 5341, "pitch": 56, "duration": 5, "velocity": 85}, {"time": 5347, "pitch": 44, "duration": 13, "velocity": 89}, {"time": 5347, "pitch": 60, "duration": 13, "velocity": 87}, {"time": 5347, "pitch": 63, "duration": 13, "velocity": 89}, {"time": 5359, "pitch": 56, "duration": 6, "velocity": 89}, {"time": 5365, "pitch": 44, "duration": 8, "velocity": 88}, {"time": 5365, "pitch": 60, "duration": 7, "velocity": 84}, {"time": 5365, "pitch": 63, "duration": 8, "velocity": 89}, {"time": 5371, "pitch": 56, "duration": 7, "velocity": 89}, {"time": 5377, "pitch": 49, "duration": 16, "velocity": 89}, {"time": 5377, "pitch": 61, "duration": 13, "velocity": 85}, {"time": 5377, "pitch": 65, "duration": 13, "velocity": 89}, {"time": 5389, "pitch": 56, "duration": 8, "velocity": 84}, {"time": 5395, "pitch": 49, "duration": 16, "velocity": 99}, {"time": 5395, "pitch": 61, "duration": 14, "velocity": 90}, {"time": 5395, "pitch": 65, "duration": 14, "velocity": 93}, {"time": 5407, "pitch": 56, "duration": 7, "velocity": 90}, {"time": 5413, "pitch": 49, "duration": 9, "velocity": 99}, {"time": 5413, "pitch": 61, "duration": 9, "velocity": 89}, {"time": 5413, "pitch": 65, "duration": 9, "velocity": 90}, {"time": 5419, "pitch": 56, "duration": 4, "velocity": 88}, {"time": 5425, "pitch": 46, "duration": 16, "velocity": 91}, {"time": 5425, "pitch": 61, "duration": 14, "velocity": 90}, {"time": 5425, "pitch": 65, "duration": 14, "velocity": 94}, {"time": 5437, "pitch": 58, "duration": 6, "velocity": 82}, {"time": 5443, "pitch": 46, "duration": 13, "velocity": 91}, {"time": 5443, "pitch": 61, "duration": 13, "velocity": 89}, {"time": 5443, "pitch": 65, "duration": 12, "velocity": 93}, {"time": 5455, "pitch": 58, "duration": 7, "velocity": 83}, {"time": 5461, "pitch": 46, "duration": 9, "velocity": 90}, {"time": 5461, "pitch": 61, "duration": 7, "velocity": 93}, {"time": 5461, "pitch": 65, "duration": 8, "velocity": 92}, {"time": 5467, "pitch": 58, "duration": 7, "velocity": 88}, {"time": 5473, "pitch": 51, "duration": 16, "velocity": 92}, {"time": 5473, "pitch": 63, "duration": 14, "velocity": 90}, {"time": 5473, "pitch": 66, "duration": 13, "velocity": 88}, {"time": 5485, "pitch": 58, "duration": 8, "velocity": 89}, {"time": 5491, "pitch": 51, "duration": 14, "velocity": 104}, {"time": 5491, "pitch": 63, "duration": 14, "velocity": 89}, {"time": 5491, "pitch": 66, "duration": 14, "velocity": 90}, {"time": 5503, "pitch": 58, "duration": 7, "velocity": 89}, {"time": 5509, "pitch": 51, "duration": 7, "velocity": 104}, {"time": 5509, "pitch": 63, "duration": 7, "velocity": 90}, {"time": 5509, "pitch": 66, "duration": 7, "velocity": 90}, {"time": 5515, "pitch": 58, "duration": 4, "velocity": 89}, {"time": 5521, "pitch": 44, "duration": 18, "velocity": 90}, {"time": 5521, "pitch": 56, "duration": 11, "velocity": 84}, {"time": 5521, "pitch": 60, "duration": 11, "velocity": 88}, {"time": 5533, "pitch": 51, "duration": 5, "velocity": 84}, {"time": 5539, "pitch": 44, "duration": 13, "velocity": 91}, {"time": 5539, "pitch": 51, "duration": 13, "velocity": 95}, {"time": 5539, "pitch": 56, "duration": 7, "velocity": 90}, {"time": 5539, "pitch": 60, "duration": 13, "velocity": 91}, {"time": 5539, "pitch": 63, "duration": 14, "velocity": 91}, {"time": 5551, "pitch": 56, "duration": 4, "velocity": 88}, {"time": 5557, "pitch": 44, "duration": 8, "velocity": 89}, {"time": 5557, "pitch": 60, "duration": 6, "velocity": 89}, {"time": 5557, "pitch": 63, "duration": 7, "velocity": 89}, {"time": 5563, "pitch": 56, "duration": 9, "velocity": 88}, {"time": 5569, "pitch": 49, "duration": 14, "velocity": 99}, {"time": 5569, "pitch": 61, "duration": 13, "velocity": 89}, {"time": 5569, "pitch": 65, "duration": 13, "velocity": 93}, {"time": 5581, "pitch": 56, "duration": 4, "velocity": 88}, {"time": 5587, "pitch": 49, "duration": 15, "velocity": 95}, {"time": 5587, "pitch": 61, "duration": 14, "velocity": 91}, {"time": 5587, "pitch": 65, "duration": 15, "velocity": 93}, {"time": 5599, "pitch": 56, "duration": 5, "velocity": 84}, {"time": 5605, "pitch": 49, "duration": 7, "velocity": 94}, {"time": 5605, "pitch": 61, "duration": 8, "velocity": 93}, {"time": 5605, "pitch": 65, "duration": 9, "velocity": 93}, {"time": 5611, "pitch": 56, "duration": 3, "velocity": 88}, {"time": 5614, "pitch": 56, "duration": 1, "velocity": 83}, {"time": 5615, "pitch": 61, "duration": 87, "velocity": 82}, {"time": 5616, "pitch": 49, "duration": 87, "velocity": 97}, {"time": 5617, "pitch": 65, "duration": 85, "velocity": 88}], "annotations": [{"time": 483, "annotation": {"number": 64, "value": 127}, "group": "control_change"}, {"time": 529, "annotation": {"number": 64, "value": 0}, "group": "control_change"}, {"time": 533, "annotation": {"number": 64, "value": 127}, "group": "control_change"}, {"time": 574, "annotation": {"number": 64, "value": 0}, "group": "control_change"}, {"time": 578, "annotation": {"number": 64, "value": 127}, "group": "control_change"}, {"time": 622, "annotation": {"number": 64, "value": 0}, "group": "control_change"}, {"time": 626, "annotation": {"number": 64, "value": 127}, "group": "control_change"}, {"time": 669, "annotation": {"number": 64, "value": 0}, "group": "control_change"}, {"time": 677, "annotation": {"number": 64, "value": 127}, "group": "control_change"}, {"time": 720, "annotation": {"number": 64, "value": 0}, "group": "control_change"}, {"time": 725, "annotation": {"number": 64, "value": 127}, "group": "control_change"}, {"time": 766, "annotation": {"number": 64, "value": 0}, "group": "control_change"}, {"time": 770, "annotation": {"number": 64, "value": 127}, "group": "control_change"}, {"time": 815, "annotation": {"number": 64, "value": 0}, "group": "control_change"}, {"time": 819, "annotation": {"number": 64, "value": 127}, "group": "control_change"}, {"time": 862, "annotation": {"number": 64, "value": 0}, "group": "control_change"}, {"time": 869, "annotation": {"number": 64, "value": 127}, "group": "control_change"}, {"time": 912, "annotation": {"number": 64, "value": 0}, "group": "control_change"}, {"time": 917, "annotation": {"number": 64, "value": 127}, "group": "control_change"}, {"time": 958, "annotation": {"number": 64, "value": 0}, "group": "control_change"}, {"time": 962, "annotation": {"number": 64, "value": 127}, "group": "control_change"}, {"time": 1007, "annotation": {"number": 64, "value": 0}, "group": "control_change"}, {"time": 1011, "annotation": {"number": 64, "value": 127}, "group": "control_change"}, {"time": 1054, "annotation": {"number": 64, "value": 0}, "group": "control_change"}, {"time": 1059, "annotation": {"number": 64, "value": 127}, "group": "control_change"}, {"time": 1105, "annotation": {"number": 64, "value": 0}, "group": "control_change"}, {"time": 1109, "annotation": {"number": 64, "value": 127}, "group": "control_change"}, {"time": 1150, "annotation": {"number": 64, "value": 0}, "group": "control_change"}, {"time": 1154, "annotation": {"number": 64, "value": 127}, "group": "control_change"}, {"time": 1198, "annotation": {"number": 64, "value": 0}, "group": "control_change"}, {"time": 1202, "annotation": {"number": 64, "value": 127}, "group": "control_change"}, {"time": 1245, "annotation": {"number": 64, "value": 0}, "group": "control_change"}, {"time": 1253, "annotation": {"number": 64, "value": 127}, "group": "control_change"}, {"time": 1296, "annotation": {"number": 64, "value": 0}, "group": "control_change"}, {"time": 1301, "annotation": {"number": 64, "value": 127}, "group": "control_change"}, {"time": 1342, "annotation": {"number": 64, "value": 0}, "group": "control_change"}, {"time": 1346, "annotation": {"number": 64, "value": 127}, "group": "control_change"}, {"time": 1391, "annotation": {"number": 64, "value": 0}, "group": "control_change"}, {"time": 1395, "annotation": {"number": 64, "value": 127}, "group": "control_change"}, {"time": 1438, "annotation": {"number": 64, "value": 0}, "group": "control_change"}, {"time": 1453, "annotation": {"number": 64, "value": 127}, "group": "control_change"}, {"time": 1487, "annotation": {"number": 64, "value": 0}, "group": "control_change"}, {"time": 1499, "annotation": {"number": 64, "value": 127}, "group": "control_change"}, {"time": 1531, "annotation": {"number": 64, "value": 0}, "group": "control_change"}, {"time": 1596, "annotation": {"number": 64, "value": 127}, "group": "control_change"}, {"time": 1627, "annotation": {"number": 64, "value": 0}, "group": "control_change"}, {"time": 1668, "annotation": {"number": 64, "value": 127}, "group": "control_change"}, {"time": 1728, "annotation": {"number": 64, "value": 0}, "group": "control_change"}, {"time": 1739, "annotation": {"number": 64, "value": 127}, "group": "control_change"}, {"time": 1774, "annotation": {"number": 64, "value": 0}, "group": "control_change"}, {"time": 1779, "annotation": {"number": 64, "value": 127}, "group": "control_change"}, {"time": 1815, "annotation": {"number": 64, "value": 0}, "group": "control_change"}, {"time": 1837, "annotation": {"number": 64, "value": 127}, "group": "control_change"}, {"time": 1871, "annotation": {"number": 64, "value": 0}, "group": "control_change"}, {"time": 1883, "annotation": {"number": 64, "value": 127}, "group": "control_change"}, {"time": 1915, "annotation": {"number": 64, "value": 0}, "group": "control_change"}, {"time": 1980, "annotation": {"number": 64, "value": 127}, "group": "control_change"}, {"time": 2011, "annotation": {"number": 64, "value": 0}, "group": "control_change"}, {"time": 2052, "annotation": {"number": 64, "value": 127}, "group": "control_change"}, {"time": 2112, "annotation": {"number": 64, "value": 0}, "group": "control_change"}, {"time": 2123, "annotation": {"number": 64, "value": 127}, "group": "control_change"}, {"time": 2158, "annotation": {"number": 64, "value": 0}, "group": "control_change"}, {"time": 2163, "annotation": {"number": 64, "value": 127}, "group": "control_change"}, {"time": 2199, "annotation": {"number": 64, "value": 0}, "group": "control_change"}, {"time": 2211, "annotation": {"number": 64, "value": 127}, "group": "control_change"}, {"time": 2257, "annotation": {"number": 64, "value": 0}, "group": "control_change"}, {"time": 2261, "annotation": {"number": 64, "value": 127}, "group": "control_change"}, {"time": 2302, "annotation": {"number": 64, "value": 0}, "group": "control_change"}, {"time": 2306, "annotation": {"number": 64, "value": 127}, "group": "control_change"}, {"time": 2350, "annotation": {"number": 64, "value": 0}, "group": "control_change"}, {"time": 2354, "annotation": {"number": 64, "value": 127}, "group": "control_change"}, {"time": 2397, "annotation": {"number": 64, "value": 0}, "group": "control_change"}, {"time": 2405, "annotation": {"number": 64, "value": 127}, "group": "control_change"}, {"time": 2448, "annotation": {"number": 64, "value": 0}, "group": "control_change"}, {"time": 2453, "annotation": {"number": 64, "value": 127}, "group": "control_change"}, {"time": 2494, "annotation": {"number": 64, "value": 0}, "group": "control_change"}, {"time": 2498, "annotation": {"number": 64, "value": 127}, "group": "control_change"}, {"time": 2543, "annotation": {"number": 64, "value": 0}, "group": "control_change"}, {"time": 2547, "annotation": {"number": 64, "value": 127}, "group": "control_change"}, {"time": 2590, "annotation": {"number": 64, "value": 0}, "group": "control_change"}, {"time": 2605, "annotation": {"number": 64, "value": 127}, "group": "control_change"}, {"time": 2639, "annotation": {"number": 64, "value": 0}, "group": "control_change"}, {"time": 2651, "annotation": {"number": 64, "value": 127}, "group": "control_change"}, {"time": 2683, "annotation": {"number": 64, "value": 0}, "group": "control_change"}, {"time": 2748, "annotation": {"number": 64, "value": 127}, "group": "control_change"}, {"time": 2779, "annotation": {"number": 64, "value": 0}, "group": "control_change"}, {"time": 2820, "annotation": {"number": 64, "value": 127}, "group": "control_change"}, {"time": 2880, "annotation": {"number": 64, "value": 0}, "group": "control_change"}, {"time": 2891, "annotation": {"number": 64, "value": 127}, "group": "control_change"}, {"time": 2926, "annotation": {"number": 64, "value": 0}, "group": "control_change"}, {"time": 2931, "annotation": {"number": 64, "value": 127}, "group": "control_change"}, {"time": 2967, "annotation": {"number": 64, "value": 0}, "group": "control_change"}, {"time": 2989, "annotation": {"number": 64, "value": 127}, "group": "control_change"}, {"time": 3023, "annotation": {"number": 64, "value": 0}, "group": "control_change"}, {"time": 3035, "annotation": {"number": 64, "value": 127}, "group": "control_change"}, {"time": 3067, "annotation": {"number": 64, "value": 0}, "group": "control_change"}, {"time": 3132, "annotation": {"number": 64, "value": 127}, "group": "control_change"}, {"time": 3163, "annotation": {"number": 64, "value": 0}, "group": "control_change"}, {"time": 3204, "annotation": {"number": 64, "value": 127}, "group": "control_change"}, {"time": 3264, "annotation": {"number": 64, "value": 0}, "group": "control_change"}, {"time": 3275, "annotation": {"number": 64, "value": 127}, "group": "control_change"}, {"time": 3310, "annotation": {"number": 64, "value": 0}, "group": "control_change"}, {"time": 3315, "annotation": {"number": 64, "value": 127}, "group": "control_change"}, {"time": 3351, "annotation": {"number": 64, "value": 0}, "group": "control_change"}, {"time": 3363, "annotation": {"number": 64, "value": 127}, "group": "control_change"}, {"time": 3409, "annotation": {"number": 64, "value": 0}, "group": "control_change"}, {"time": 3413, "annotation": {"number": 64, "value": 127}, "group": "control_change"}, {"time": 3454, "annotation": {"number": 64, "value": 0}, "group": "control_change"}, {"time": 3458, "annotation": {"number": 64, "value": 127}, "group": "control_change"}, {"time": 3502, "annotation": {"number": 64, "value": 0}, "group": "control_change"}, {"time": 3506, "annotation": {"number": 64, "value": 127}, "group": "control_change"}, {"time": 3549, "annotation": {"number": 64, "value": 0}, "group": "control_change"}, {"time": 3555, "annotation": {"number": 64, "value": 127}, "group": "control_change"}, {"time": 3601, "annotation": {"number": 64, "value": 0}, "group": "control_change"}, {"time": 3605, "annotation": {"number": 64, "value": 127}, "group": "control_change"}, {"time": 3646, "annotation": {"number": 64, "value": 0}, "group": "control_change"}, {"time": 3650, "annotation": {"number": 64, "value": 127}, "group": "control_change"}, {"time": 3694, "annotation": {"number": 64, "value": 0}, "group": "control_change"}, {"time": 3698, "annotation": {"number": 64, "value": 127}, "group": "control_change"}, {"time": 3741, "annotation": {"number": 64, "value": 0}, "group": "control_change"}, {"time": 3747, "annotation": {"number": 64, "value": 127}, "group": "control_change"}, {"time": 3793, "annotation": {"number": 64, "value": 0}, "group": "control_change"}, {"time": 3797, "annotation": {"number": 64, "value": 127}, "group": "control_change"}, {"time": 3838, "annotation": {"number": 64, "value": 0}, "group": "control_change"}, {"time": 3842, "annotation": {"number": 64, "value": 127}, "group": "control_change"}, {"time": 3886, "annotation": {"number": 64, "value": 0}, "group": "control_change"}, {"time": 3890, "annotation": {"number": 64, "value": 127}, "group": "control_change"}, {"time": 3933, "annotation": {"number": 64, "value": 0}, "group": "control_change"}, {"time": 3941, "annotation": {"number": 64, "value": 127}, "group": "control_change"}, {"time": 3984, "annotation": {"number": 64, "value": 0}, "group": "control_change"}, {"time": 3989, "annotation": {"number": 64, "value": 127}, "group": "control_change"}, {"time": 4030, "annotation": {"number": 64, "value": 0}, "group": "control_change"}, {"time": 4034, "annotation": {"number": 64, "value": 127}, "group": "control_change"}, {"time": 4079, "annotation": {"number": 64, "value": 0}, "group": "control_change"}, {"time": 4083, "annotation": {"number": 64, "value": 127}, "group": "control_change"}, {"time": 4126, "annotation": {"number": 64, "value": 0}, "group": "control_change"}, {"time": 4141, "annotation": {"number": 64, "value": 127}, "group": "control_change"}, {"time": 4175, "annotation": {"number": 64, "value": 0}, "group": "control_change"}, {"time": 4187, "annotation": {"number": 64, "value": 127}, "group": "control_change"}, {"time": 4219, "annotation": {"number": 64, "value": 0}, "group": "control_change"}, {"time": 4284, "annotation": {"number": 64, "value": 127}, "group": "control_change"}, {"time": 4315, "annotation": {"number": 64, "value": 0}, "group": "control_change"}, {"time": 4356, "annotation": {"number": 64, "value": 127}, "group": "control_change"}, {"time": 4416, "annotation": {"number": 64, "value": 0}, "group": "control_change"}, {"time": 4427, "annotation": {"number": 64, "value": 127}, "group": "control_change"}, {"time": 4462, "annotation": {"number": 64, "value": 0}, "group": "control_change"}, {"time": 4467, "annotation": {"number": 64, "value": 127}, "group": "control_change"}, {"time": 4503, "annotation": {"number": 64, "value": 0}, "group": "control_change"}, {"time": 4525, "annotation": {"number": 64, "value": 127}, "group": "control_change"}, {"time": 4559, "annotation": {"number": 64, "value": 0}, "group": "control_change"}, {"time": 4571, "annotation": {"number": 64, "value": 127}, "group": "control_change"}, {"time": 4603, "annotation": {"number": 64, "value": 0}, "group": "control_change"}, {"time": 4668, "annotation": {"number": 64, "value": 127}, "group": "control_change"}, {"time": 4699, "annotation": {"number": 64, "value": 0}, "group": "control_change"}, {"time": 4740, "annotation": {"number": 64, "value": 127}, "group": "control_change"}, {"time": 4800, "annotation": {"number": 64, "value": 0}, "group": "control_change"}, {"time": 4811, "annotation": {"number": 64, "value": 127}, "group": "control_change"}, {"time": 4846, "annotation": {"number": 64, "value": 0}, "group": "control_change"}, {"time": 4851, "annotation": {"number": 64, "value": 127}, "group": "control_change"}, {"time": 4887, "annotation": {"number": 64, "value": 0}, "group": "control_change"}, {"time": 4909, "annotation": {"number": 64, "value": 127}, "group": "control_change"}, {"time": 4943, "annotation": {"number": 64, "value": 0}, "group": "control_change"}, {"time": 4955, "annotation": {"number": 64, "value": 127}, "group": "control_change"}, {"time": 4987, "annotation": {"number": 64, "value": 0}, "group": "control_change"}, {"time": 5052, "annotation": {"number": 64, "value": 127}, "group": "control_change"}, {"time": 5083, "annotation": {"number": 64, "value": 0}, "group": "control_change"}, {"time": 5124, "annotation": {"number": 64, "value": 127}, "group": "control_change"}, {"time": 5184, "annotation": {"number": 64, "value": 0}, "group": "control_change"}, {"time": 5195, "annotation": {"number": 64, "value": 127}, "group": "control_change"}, {"time": 5230, "annotation": {"number": 64, "value": 0}, "group": "control_change"}, {"time": 5235, "annotation": {"number": 64, "value": 127}, "group": "control_change"}, {"time": 5271, "annotation": {"number": 64, "value": 0}, "group": "control_change"}, {"time": 5293, "annotation": {"number": 64, "value": 127}, "group": "control_change"}, {"time": 5327, "annotation": {"number": 64, "value": 0}, "group": "control_change"}, {"time": 5339, "annotation": {"number": 64, "value": 127}, "group": "control_change"}, {"time": 5371, "annotation": {"number": 64, "value": 0}, "group": "control_change"}, {"time": 5436, "annotation": {"number": 64, "value": 127}, "group": "control_change"}, {"time": 5467, "annotation": {"number": 64, "value": 0}, "group": "control_change"}, {"time": 5508, "annotation": {"number": 64, "value": 127}, "group": "control_change"}, {"time": 5568, "annotation": {"number": 64, "value": 0}, "group": "control_change"}, {"time": 5579, "annotation": {"number": 64, "value": 127}, "group": "control_change"}, {"time": 5614, "annotation": {"number": 64, "value": 0}, "group": "control_change"}]}]}