{"metadata": {"schema_version": "0.2", "title": "None", "source_filename": "496.mid", "source_format": "midi"}, "resolution": 12, "tempos": [{"time": 0, "qpm": 85.00004250002125}], "time_signatures": [{"time": 0, "numerator": 1, "denominator": 4}], "tracks": [{"program": 0, "is_drum": false, "name": "MELODY", "notes": [{"time": 446, "pitch": 76, "duration": 5, "velocity": 90}, {"time": 452, "pitch": 76, "duration": 5, "velocity": 92}, {"time": 458, "pitch": 74, "duration": 15, "velocity": 93}, {"time": 476, "pitch": 71, "duration": 13, "velocity": 90}, {"time": 488, "pitch": 72, "duration": 28, "velocity": 92}, {"time": 542, "pitch": 76, "duration": 5, "velocity": 89}, {"time": 548, "pitch": 76, "duration": 5, "velocity": 92}, {"time": 554, "pitch": 74, "duration": 5, "velocity": 92}, {"time": 560, "pitch": 72, "duration": 5, "velocity": 92}, {"time": 566, "pitch": 74, "duration": 5, "velocity": 90}, {"time": 572, "pitch": 79, "duration": 10, "velocity": 90}, {"time": 584, "pitch": 76, "duration": 30, "velocity": 90}, {"time": 638, "pitch": 81, "duration": 4, "velocity": 86}, {"time": 644, "pitch": 81, "duration": 4, "velocity": 84}, {"time": 650, "pitch": 79, "duration": 9, "velocity": 94}, {"time": 662, "pitch": 76, "duration": 5, "velocity": 89}, {"time": 668, "pitch": 74, "duration": 5, "velocity": 88}, {"time": 674, "pitch": 76, "duration": 11, "velocity": 88}, {"time": 686, "pitch": 74, "duration": 11, "velocity": 88}, {"time": 698, "pitch": 72, "duration": 11, "velocity": 90}, {"time": 722, "pitch": 76, "duration": 9, "velocity": 90}, {"time": 734, "pitch": 74, "duration": 5, "velocity": 89}, {"time": 740, "pitch": 72, "duration": 4, "velocity": 89}, {"time": 746, "pitch": 74, "duration": 9, "velocity": 92}, {"time": 758, "pitch": 71, "duration": 10, "velocity": 86}, {"time": 770, "pitch": 69, "duration": 34, "velocity": 88}, {"time": 830, "pitch": 76, "duration": 5, "velocity": 90}, {"time": 836, "pitch": 76, "duration": 5, "velocity": 92}, {"time": 842, "pitch": 74, "duration": 15, "velocity": 93}, {"time": 860, "pitch": 71, "duration": 13, "velocity": 90}, {"time": 872, "pitch": 72, "duration": 28, "velocity": 92}, {"time": 926, "pitch": 76, "duration": 5, "velocity": 89}, {"time": 932, "pitch": 76, "duration": 5, "velocity": 92}, {"time": 938, "pitch": 74, "duration": 5, "velocity": 92}, {"time": 944, "pitch": 72, "duration": 5, "velocity": 92}, {"time": 950, "pitch": 74, "duration": 5, "velocity": 90}, {"time": 956, "pitch": 79, "duration": 10, "velocity": 90}, {"time": 968, "pitch": 76, "duration": 30, "velocity": 90}, {"time": 1022, "pitch": 81, "duration": 4, "velocity": 86}, {"time": 1028, "pitch": 81, "duration": 4, "velocity": 84}, {"time": 1034, "pitch": 79, "duration": 9, "velocity": 94}, {"time": 1046, "pitch": 76, "duration": 5, "velocity": 89}, {"time": 1052, "pitch": 74, "duration": 5, "velocity": 88}, {"time": 1058, "pitch": 76, "duration": 11, "velocity": 88}, {"time": 1070, "pitch": 74, "duration": 11, "velocity": 88}, {"time": 1082, "pitch": 72, "duration": 11, "velocity": 90}, {"time": 1106, "pitch": 76, "duration": 9, "velocity": 90}, {"time": 1118, "pitch": 74, "duration": 5, "velocity": 89}, {"time": 1124, "pitch": 72, "duration": 4, "velocity": 89}, {"time": 1130, "pitch": 74, "duration": 18, "velocity": 92}, {"time": 1148, "pitch": 72, "duration": 6, "velocity": 86}, {"time": 1154, "pitch": 72, "duration": 34, "velocity": 88}, {"time": 1262, "pitch": 76, "duration": 6, "velocity": 92}, {"time": 1268, "pitch": 79, "duration": 5, "velocity": 89}, {"time": 1274, "pitch": 81, "duration": 10, "velocity": 89}, {"time": 1286, "pitch": 84, "duration": 10, "velocity": 90}, {"time": 1298, "pitch": 83, "duration": 14, "velocity": 90}, {"time": 1316, "pitch": 79, "duration": 6, "velocity": 89}, {"time": 1322, "pitch": 76, "duration": 19, "velocity": 92}, {"time": 1340, "pitch": 72, "duration": 5, "velocity": 89}, {"time": 1346, "pitch": 72, "duration": 17, "velocity": 88}, {"time": 1364, "pitch": 81, "duration": 5, "velocity": 86}, {"time": 1370, "pitch": 81, "duration": 5, "velocity": 89}, {"time": 1376, "pitch": 79, "duration": 4, "velocity": 83}, {"time": 1382, "pitch": 76, "duration": 5, "velocity": 95}, {"time": 1388, "pitch": 74, "duration": 5, "velocity": 89}, {"time": 1394, "pitch": 76, "duration": 27, "velocity": 94}, {"time": 1454, "pitch": 76, "duration": 4, "velocity": 94}, {"time": 1460, "pitch": 79, "duration": 4, "velocity": 89}, {"time": 1466, "pitch": 81, "duration": 11, "velocity": 89}, {"time": 1478, "pitch": 84, "duration": 11, "velocity": 89}, {"time": 1490, "pitch": 83, "duration": 10, "velocity": 94}, {"time": 1508, "pitch": 76, "duration": 6, "velocity": 90}, {"time": 1514, "pitch": 84, "duration": 14, "velocity": 92}, {"time": 1532, "pitch": 76, "duration": 5, "velocity": 90}, {"time": 1538, "pitch": 74, "duration": 12, "velocity": 97}, {"time": 1556, "pitch": 81, "duration": 4, "velocity": 90}, {"time": 1562, "pitch": 81, "duration": 4, "velocity": 89}, {"time": 1568, "pitch": 79, "duration": 4, "velocity": 92}, {"time": 1574, "pitch": 76, "duration": 5, "velocity": 92}, {"time": 1580, "pitch": 74, "duration": 10, "velocity": 94}, {"time": 1592, "pitch": 72, "duration": 39, "velocity": 90}, {"time": 1838, "pitch": 76, "duration": 5, "velocity": 90}, {"time": 1844, "pitch": 76, "duration": 5, "velocity": 92}, {"time": 1850, "pitch": 74, "duration": 15, "velocity": 93}, {"time": 1868, "pitch": 71, "duration": 13, "velocity": 90}, {"time": 1880, "pitch": 72, "duration": 28, "velocity": 92}, {"time": 1934, "pitch": 76, "duration": 5, "velocity": 89}, {"time": 1940, "pitch": 76, "duration": 5, "velocity": 92}, {"time": 1946, "pitch": 74, "duration": 5, "velocity": 92}, {"time": 1952, "pitch": 72, "duration": 5, "velocity": 92}, {"time": 1958, "pitch": 74, "duration": 5, "velocity": 90}, {"time": 1964, "pitch": 79, "duration": 10, "velocity": 90}, {"time": 1976, "pitch": 76, "duration": 30, "velocity": 90}, {"time": 2030, "pitch": 81, "duration": 4, "velocity": 86}, {"time": 2036, "pitch": 81, "duration": 4, "velocity": 84}, {"time": 2042, "pitch": 79, "duration": 9, "velocity": 94}, {"time": 2054, "pitch": 76, "duration": 5, "velocity": 89}, {"time": 2060, "pitch": 74, "duration": 5, "velocity": 88}, {"time": 2066, "pitch": 76, "duration": 11, "velocity": 88}, {"time": 2078, "pitch": 74, "duration": 11, "velocity": 88}, {"time": 2090, "pitch": 72, "duration": 11, "velocity": 90}, {"time": 2114, "pitch": 76, "duration": 9, "velocity": 90}, {"time": 2126, "pitch": 74, "duration": 5, "velocity": 89}, {"time": 2132, "pitch": 72, "duration": 4, "velocity": 89}, {"time": 2138, "pitch": 74, "duration": 9, "velocity": 92}, {"time": 2150, "pitch": 71, "duration": 10, "velocity": 86}, {"time": 2162, "pitch": 69, "duration": 34, "velocity": 88}, {"time": 2222, "pitch": 76, "duration": 5, "velocity": 90}, {"time": 2228, "pitch": 76, "duration": 5, "velocity": 92}, {"time": 2234, "pitch": 74, "duration": 15, "velocity": 93}, {"time": 2252, "pitch": 71, "duration": 13, "velocity": 90}, {"time": 2264, "pitch": 72, "duration": 28, "velocity": 92}, {"time": 2318, "pitch": 76, "duration": 5, "velocity": 89}, {"time": 2324, "pitch": 76, "duration": 5, "velocity": 92}, {"time": 2330, "pitch": 74, "duration": 5, "velocity": 92}, {"time": 2336, "pitch": 72, "duration": 5, "velocity": 92}, {"time": 2342, "pitch": 74, "duration": 5, "velocity": 90}, {"time": 2348, "pitch": 79, "duration": 10, "velocity": 90}, {"time": 2360, "pitch": 76, "duration": 30, "velocity": 90}, {"time": 2414, "pitch": 81, "duration": 4, "velocity": 86}, {"time": 2420, "pitch": 81, "duration": 4, "velocity": 84}, {"time": 2426, "pitch": 79, "duration": 9, "velocity": 94}, {"time": 2438, "pitch": 76, "duration": 5, "velocity": 89}, {"time": 2444, "pitch": 74, "duration": 5, "velocity": 88}, {"time": 2450, "pitch": 76, "duration": 11, "velocity": 88}, {"time": 2462, "pitch": 74, "duration": 11, "velocity": 88}, {"time": 2474, "pitch": 72, "duration": 11, "velocity": 90}, {"time": 2498, "pitch": 76, "duration": 9, "velocity": 90}, {"time": 2510, "pitch": 74, "duration": 5, "velocity": 89}, {"time": 2516, "pitch": 72, "duration": 4, "velocity": 89}, {"time": 2522, "pitch": 74, "duration": 18, "velocity": 92}, {"time": 2540, "pitch": 72, "duration": 6, "velocity": 86}, {"time": 2546, "pitch": 72, "duration": 34, "velocity": 88}, {"time": 2654, "pitch": 76, "duration": 6, "velocity": 92}, {"time": 2660, "pitch": 79, "duration": 5, "velocity": 89}, {"time": 2666, "pitch": 81, "duration": 10, "velocity": 89}, {"time": 2678, "pitch": 84, "duration": 10, "velocity": 90}, {"time": 2690, "pitch": 83, "duration": 14, "velocity": 90}, {"time": 2708, "pitch": 79, "duration": 6, "velocity": 89}, {"time": 2714, "pitch": 76, "duration": 19, "velocity": 92}, {"time": 2732, "pitch": 72, "duration": 5, "velocity": 89}, {"time": 2738, "pitch": 72, "duration": 17, "velocity": 88}, {"time": 2756, "pitch": 81, "duration": 5, "velocity": 86}, {"time": 2762, "pitch": 81, "duration": 5, "velocity": 89}, {"time": 2768, "pitch": 79, "duration": 4, "velocity": 83}, {"time": 2774, "pitch": 76, "duration": 5, "velocity": 95}, {"time": 2780, "pitch": 74, "duration": 5, "velocity": 89}, {"time": 2786, "pitch": 76, "duration": 27, "velocity": 94}, {"time": 2846, "pitch": 76, "duration": 4, "velocity": 94}, {"time": 2852, "pitch": 79, "duration": 4, "velocity": 89}, {"time": 2858, "pitch": 81, "duration": 11, "velocity": 89}, {"time": 2870, "pitch": 84, "duration": 11, "velocity": 89}, {"time": 2882, "pitch": 83, "duration": 10, "velocity": 94}, {"time": 2900, "pitch": 76, "duration": 6, "velocity": 90}, {"time": 2906, "pitch": 84, "duration": 14, "velocity": 92}, {"time": 2924, "pitch": 76, "duration": 5, "velocity": 90}, {"time": 2930, "pitch": 74, "duration": 12, "velocity": 97}, {"time": 2948, "pitch": 81, "duration": 4, "velocity": 90}, {"time": 2954, "pitch": 81, "duration": 4, "velocity": 89}, {"time": 2960, "pitch": 79, "duration": 4, "velocity": 92}, {"time": 2966, "pitch": 76, "duration": 5, "velocity": 92}, {"time": 2972, "pitch": 74, "duration": 10, "velocity": 94}, {"time": 2984, "pitch": 72, "duration": 39, "velocity": 90}, {"time": 3038, "pitch": 76, "duration": 6, "velocity": 92}, {"time": 3044, "pitch": 79, "duration": 5, "velocity": 89}, {"time": 3050, "pitch": 81, "duration": 10, "velocity": 89}, {"time": 3062, "pitch": 84, "duration": 10, "velocity": 90}, {"time": 3074, "pitch": 83, "duration": 14, "velocity": 90}, {"time": 3092, "pitch": 79, "duration": 6, "velocity": 89}, {"time": 3098, "pitch": 76, "duration": 19, "velocity": 92}, {"time": 3116, "pitch": 72, "duration": 5, "velocity": 89}, {"time": 3122, "pitch": 72, "duration": 17, "velocity": 88}, {"time": 3140, "pitch": 81, "duration": 5, "velocity": 86}, {"time": 3146, "pitch": 81, "duration": 5, "velocity": 89}, {"time": 3152, "pitch": 79, "duration": 4, "velocity": 83}, {"time": 3158, "pitch": 76, "duration": 5, "velocity": 95}, {"time": 3164, "pitch": 74, "duration": 5, "velocity": 89}, {"time": 3170, "pitch": 76, "duration": 27, "velocity": 94}, {"time": 3230, "pitch": 76, "duration": 4, "velocity": 94}, {"time": 3236, "pitch": 79, "duration": 4, "velocity": 89}, {"time": 3242, "pitch": 81, "duration": 11, "velocity": 89}, {"time": 3254, "pitch": 84, "duration": 11, "velocity": 89}, {"time": 3266, "pitch": 83, "duration": 10, "velocity": 94}, {"time": 3284, "pitch": 76, "duration": 6, "velocity": 90}, {"time": 3290, "pitch": 84, "duration": 14, "velocity": 92}, {"time": 3308, "pitch": 76, "duration": 5, "velocity": 90}, {"time": 3314, "pitch": 74, "duration": 12, "velocity": 97}, {"time": 3332, "pitch": 81, "duration": 4, "velocity": 90}, {"time": 3338, "pitch": 81, "duration": 4, "velocity": 89}, {"time": 3344, "pitch": 79, "duration": 4, "velocity": 92}, {"time": 3350, "pitch": 76, "duration": 5, "velocity": 92}, {"time": 3356, "pitch": 74, "duration": 10, "velocity": 94}, {"time": 3368, "pitch": 72, "duration": 39, "velocity": 90}, {"time": 3422, "pitch": 76, "duration": 6, "velocity": 92}, {"time": 3428, "pitch": 79, "duration": 5, "velocity": 89}, {"time": 3434, "pitch": 81, "duration": 10, "velocity": 89}, {"time": 3446, "pitch": 84, "duration": 10, "velocity": 90}, {"time": 3458, "pitch": 83, "duration": 14, "velocity": 90}, {"time": 3476, "pitch": 76, "duration": 6, "velocity": 89}, {"time": 3482, "pitch": 84, "duration": 19, "velocity": 92}, {"time": 3500, "pitch": 76, "duration": 5, "velocity": 89}, {"time": 3506, "pitch": 74, "duration": 17, "velocity": 88}, {"time": 3524, "pitch": 81, "duration": 5, "velocity": 86}, {"time": 3530, "pitch": 81, "duration": 5, "velocity": 89}, {"time": 3536, "pitch": 79, "duration": 4, "velocity": 83}, {"time": 3542, "pitch": 76, "duration": 5, "velocity": 95}, {"time": 3548, "pitch": 74, "duration": 5, "velocity": 89}, {"time": 3554, "pitch": 72, "duration": 27, "velocity": 94}, {"time": 3614, "pitch": 76, "duration": 5, "velocity": 90}, {"time": 3620, "pitch": 76, "duration": 5, "velocity": 92}, {"time": 3626, "pitch": 74, "duration": 15, "velocity": 93}, {"time": 3644, "pitch": 71, "duration": 13, "velocity": 90}, {"time": 3656, "pitch": 72, "duration": 28, "velocity": 92}, {"time": 3710, "pitch": 76, "duration": 5, "velocity": 89}, {"time": 3716, "pitch": 76, "duration": 5, "velocity": 92}, {"time": 3722, "pitch": 74, "duration": 12, "velocity": 92}, {"time": 3740, "pitch": 79, "duration": 10, "velocity": 90}, {"time": 3752, "pitch": 76, "duration": 30, "velocity": 90}, {"time": 3806, "pitch": 81, "duration": 9, "velocity": 86}, {"time": 3818, "pitch": 79, "duration": 9, "velocity": 94}, {"time": 3830, "pitch": 76, "duration": 5, "velocity": 89}, {"time": 3836, "pitch": 74, "duration": 5, "velocity": 88}, {"time": 3842, "pitch": 76, "duration": 11, "velocity": 88}, {"time": 3854, "pitch": 74, "duration": 11, "velocity": 88}, {"time": 3866, "pitch": 72, "duration": 11, "velocity": 90}, {"time": 3890, "pitch": 76, "duration": 9, "velocity": 90}, {"time": 3902, "pitch": 74, "duration": 5, "velocity": 89}, {"time": 3908, "pitch": 72, "duration": 4, "velocity": 89}, {"time": 3914, "pitch": 74, "duration": 18, "velocity": 92}, {"time": 3945, "pitch": 71, "duration": 9, "velocity": 93}, {"time": 3957, "pitch": 69, "duration": 47, "velocity": 88}]}, {"program": 0, "is_drum": false, "name": "BRIDGE", "notes": [{"time": 50, "pitch": 69, "duration": 24, "velocity": 87}, {"time": 50, "pitch": 76, "duration": 13, "velocity": 99}, {"time": 65, "pitch": 74, "duration": 3, "velocity": 102}, {"time": 68, "pitch": 76, "duration": 3, "velocity": 94}, {"time": 71, "pitch": 79, "duration": 3, "velocity": 97}, {"time": 74, "pitch": 71, "duration": 24, "velocity": 81}, {"time": 74, "pitch": 76, "duration": 15, "velocity": 97}, {"time": 89, "pitch": 74, "duration": 2, "velocity": 99}, {"time": 92, "pitch": 76, "duration": 3, "velocity": 94}, {"time": 95, "pitch": 79, "duration": 3, "velocity": 92}, {"time": 98, "pitch": 72, "duration": 36, "velocity": 85}, {"time": 98, "pitch": 76, "duration": 14, "velocity": 97}, {"time": 113, "pitch": 74, "duration": 3, "velocity": 95}, {"time": 116, "pitch": 76, "duration": 3, "velocity": 90}, {"time": 119, "pitch": 79, "duration": 3, "velocity": 90}, {"time": 122, "pitch": 76, "duration": 10, "velocity": 99}, {"time": 134, "pitch": 84, "duration": 4, "velocity": 94}, {"time": 137, "pitch": 83, "duration": 4, "velocity": 89}, {"time": 140, "pitch": 81, "duration": 3, "velocity": 90}, {"time": 143, "pitch": 79, "duration": 2, "velocity": 95}, {"time": 146, "pitch": 60, "duration": 22, "velocity": 74}, {"time": 146, "pitch": 64, "duration": 22, "velocity": 88}, {"time": 146, "pitch": 76, "duration": 13, "velocity": 97}, {"time": 161, "pitch": 74, "duration": 2, "velocity": 104}, {"time": 164, "pitch": 76, "duration": 3, "velocity": 94}, {"time": 167, "pitch": 79, "duration": 2, "velocity": 95}, {"time": 170, "pitch": 59, "duration": 20, "velocity": 78}, {"time": 170, "pitch": 62, "duration": 21, "velocity": 81}, {"time": 170, "pitch": 76, "duration": 14, "velocity": 99}, {"time": 185, "pitch": 74, "duration": 2, "velocity": 92}, {"time": 188, "pitch": 76, "duration": 3, "velocity": 92}, {"time": 191, "pitch": 79, "duration": 2, "velocity": 92}, {"time": 194, "pitch": 55, "duration": 39, "velocity": 80}, {"time": 194, "pitch": 60, "duration": 40, "velocity": 83}, {"time": 194, "pitch": 76, "duration": 18, "velocity": 97}, {"time": 230, "pitch": 72, "duration": 5, "velocity": 90}, {"time": 236, "pitch": 74, "duration": 5, "velocity": 99}, {"time": 242, "pitch": 45, "duration": 24, "velocity": 84}, {"time": 242, "pitch": 76, "duration": 21, "velocity": 91}, {"time": 266, "pitch": 47, "duration": 22, "velocity": 64}, {"time": 266, "pitch": 74, "duration": 22, "velocity": 95}, {"time": 290, "pitch": 45, "duration": 9, "velocity": 82}, {"time": 290, "pitch": 84, "duration": 5, "velocity": 91}, {"time": 296, "pitch": 83, "duration": 5, "velocity": 82}, {"time": 302, "pitch": 43, "duration": 11, "velocity": 82}, {"time": 302, "pitch": 81, "duration": 5, "velocity": 93}, {"time": 308, "pitch": 79, "duration": 5, "velocity": 91}, {"time": 314, "pitch": 42, "duration": 24, "velocity": 82}, {"time": 314, "pitch": 81, "duration": 16, "velocity": 93}, {"time": 332, "pitch": 72, "duration": 6, "velocity": 90}, {"time": 338, "pitch": 69, "duration": 14, "velocity": 92}, {"time": 356, "pitch": 84, "duration": 5, "velocity": 102}, {"time": 362, "pitch": 81, "duration": 10, "velocity": 92}, {"time": 374, "pitch": 79, "duration": 6, "velocity": 94}, {"time": 380, "pitch": 84, "duration": 6, "velocity": 102}, {"time": 386, "pitch": 81, "duration": 45, "velocity": 95}, {"time": 434, "pitch": 76, "duration": 13, "velocity": 88}, {"time": 449, "pitch": 74, "duration": 2, "velocity": 89}, {"time": 452, "pitch": 76, "duration": 3, "velocity": 89}, {"time": 455, "pitch": 79, "duration": 3, "velocity": 85}, {"time": 458, "pitch": 76, "duration": 14, "velocity": 90}, {"time": 473, "pitch": 74, "duration": 2, "velocity": 89}, {"time": 476, "pitch": 76, "duration": 2, "velocity": 88}, {"time": 479, "pitch": 79, "duration": 3, "velocity": 76}, {"time": 482, "pitch": 76, "duration": 20, "velocity": 92}, {"time": 497, "pitch": 74, "duration": 2, "velocity": 86}, {"time": 500, "pitch": 76, "duration": 2, "velocity": 88}, {"time": 503, "pitch": 79, "duration": 2, "velocity": 89}, {"time": 506, "pitch": 76, "duration": 10, "velocity": 84}, {"time": 518, "pitch": 84, "duration": 3, "velocity": 92}, {"time": 521, "pitch": 83, "duration": 2, "velocity": 82}, {"time": 524, "pitch": 81, "duration": 3, "velocity": 67}, {"time": 527, "pitch": 79, "duration": 2, "velocity": 87}, {"time": 530, "pitch": 76, "duration": 12, "velocity": 91}, {"time": 545, "pitch": 74, "duration": 2, "velocity": 91}, {"time": 548, "pitch": 76, "duration": 2, "velocity": 90}, {"time": 551, "pitch": 81, "duration": 2, "velocity": 86}, {"time": 554, "pitch": 76, "duration": 13, "velocity": 90}, {"time": 569, "pitch": 74, "duration": 2, "velocity": 90}, {"time": 572, "pitch": 76, "duration": 3, "velocity": 83}, {"time": 575, "pitch": 79, "duration": 2, "velocity": 89}, {"time": 578, "pitch": 76, "duration": 12, "velocity": 94}, {"time": 626, "pitch": 76, "duration": 13, "velocity": 88}, {"time": 641, "pitch": 74, "duration": 2, "velocity": 89}, {"time": 644, "pitch": 76, "duration": 3, "velocity": 89}, {"time": 647, "pitch": 81, "duration": 3, "velocity": 85}, {"time": 650, "pitch": 76, "duration": 14, "velocity": 90}, {"time": 665, "pitch": 74, "duration": 2, "velocity": 89}, {"time": 668, "pitch": 76, "duration": 2, "velocity": 88}, {"time": 671, "pitch": 81, "duration": 3, "velocity": 76}, {"time": 674, "pitch": 76, "duration": 12, "velocity": 92}, {"time": 686, "pitch": 74, "duration": 10, "velocity": 89}, {"time": 698, "pitch": 72, "duration": 18, "velocity": 80}, {"time": 737, "pitch": 64, "duration": 4, "velocity": 89}, {"time": 740, "pitch": 65, "duration": 3, "velocity": 92}, {"time": 743, "pitch": 72, "duration": 3, "velocity": 76}, {"time": 746, "pitch": 74, "duration": 10, "velocity": 83}, {"time": 764, "pitch": 71, "duration": 9, "velocity": 83}, {"time": 776, "pitch": 62, "duration": 12, "velocity": 76}, {"time": 782, "pitch": 64, "duration": 8, "velocity": 86}, {"time": 788, "pitch": 69, "duration": 13, "velocity": 84}, {"time": 794, "pitch": 61, "duration": 7, "velocity": 75}, {"time": 800, "pitch": 62, "duration": 12, "velocity": 81}, {"time": 806, "pitch": 64, "duration": 6, "velocity": 77}, {"time": 812, "pitch": 69, "duration": 6, "velocity": 82}, {"time": 818, "pitch": 57, "duration": 24, "velocity": 78}, {"time": 818, "pitch": 76, "duration": 4, "velocity": 88}, {"time": 821, "pitch": 74, "duration": 3, "velocity": 88}, {"time": 824, "pitch": 76, "duration": 3, "velocity": 81}, {"time": 827, "pitch": 74, "duration": 3, "velocity": 82}, {"time": 830, "pitch": 76, "duration": 3, "velocity": 80}, {"time": 833, "pitch": 74, "duration": 3, "velocity": 78}, {"time": 836, "pitch": 76, "duration": 4, "velocity": 79}, {"time": 839, "pitch": 74, "duration": 4, "velocity": 83}, {"time": 842, "pitch": 59, "duration": 22, "velocity": 69}, {"time": 842, "pitch": 76, "duration": 4, "velocity": 81}, {"time": 848, "pitch": 71, "duration": 2, "velocity": 84}, {"time": 851, "pitch": 72, "duration": 3, "velocity": 81}, {"time": 854, "pitch": 74, "duration": 2, "velocity": 88}, {"time": 860, "pitch": 71, "duration": 3, "velocity": 84}, {"time": 863, "pitch": 72, "duration": 3, "velocity": 83}, {"time": 866, "pitch": 57, "duration": 37, "velocity": 79}, {"time": 872, "pitch": 72, "duration": 3, "velocity": 83}, {"time": 875, "pitch": 74, "duration": 3, "velocity": 81}, {"time": 878, "pitch": 76, "duration": 3, "velocity": 77}, {"time": 881, "pitch": 74, "duration": 3, "velocity": 81}, {"time": 884, "pitch": 76, "duration": 2, "velocity": 89}, {"time": 887, "pitch": 79, "duration": 2, "velocity": 84}, {"time": 890, "pitch": 76, "duration": 2, "velocity": 88}, {"time": 896, "pitch": 71, "duration": 3, "velocity": 88}, {"time": 899, "pitch": 74, "duration": 3, "velocity": 89}, {"time": 902, "pitch": 59, "duration": 7, "velocity": 79}, {"time": 902, "pitch": 72, "duration": 3, "velocity": 76}, {"time": 905, "pitch": 71, "duration": 4, "velocity": 80}, {"time": 908, "pitch": 60, "duration": 7, "velocity": 79}, {"time": 908, "pitch": 69, "duration": 3, "velocity": 87}, {"time": 911, "pitch": 67, "duration": 2, "velocity": 79}, {"time": 914, "pitch": 57, "duration": 24, "velocity": 83}, {"time": 914, "pitch": 76, "duration": 4, "velocity": 88}, {"time": 917, "pitch": 74, "duration": 3, "velocity": 88}, {"time": 920, "pitch": 76, "duration": 3, "velocity": 81}, {"time": 923, "pitch": 74, "duration": 3, "velocity": 82}, {"time": 926, "pitch": 76, "duration": 3, "velocity": 80}, {"time": 929, "pitch": 74, "duration": 3, "velocity": 78}, {"time": 932, "pitch": 76, "duration": 4, "velocity": 79}, {"time": 935, "pitch": 74, "duration": 4, "velocity": 83}, {"time": 938, "pitch": 55, "duration": 24, "velocity": 80}, {"time": 938, "pitch": 76, "duration": 4, "velocity": 81}, {"time": 944, "pitch": 71, "duration": 2, "velocity": 84}, {"time": 947, "pitch": 72, "duration": 3, "velocity": 81}, {"time": 950, "pitch": 74, "duration": 2, "velocity": 88}, {"time": 956, "pitch": 71, "duration": 3, "velocity": 84}, {"time": 959, "pitch": 72, "duration": 3, "velocity": 83}, {"time": 962, "pitch": 60, "duration": 24, "velocity": 81}, {"time": 968, "pitch": 72, "duration": 3, "velocity": 84}, {"time": 974, "pitch": 74, "duration": 4, "velocity": 86}, {"time": 980, "pitch": 72, "duration": 3, "velocity": 82}, {"time": 983, "pitch": 76, "duration": 6, "velocity": 81}, {"time": 986, "pitch": 64, "duration": 12, "velocity": 85}, {"time": 998, "pitch": 62, "duration": 8, "velocity": 88}, {"time": 1004, "pitch": 60, "duration": 7, "velocity": 81}, {"time": 1010, "pitch": 57, "duration": 23, "velocity": 79}, {"time": 1034, "pitch": 59, "duration": 23, "velocity": 81}, {"time": 1058, "pitch": 60, "duration": 13, "velocity": 74}, {"time": 1058, "pitch": 76, "duration": 10, "velocity": 81}, {"time": 1070, "pitch": 59, "duration": 13, "velocity": 77}, {"time": 1070, "pitch": 74, "duration": 11, "velocity": 80}, {"time": 1082, "pitch": 57, "duration": 24, "velocity": 78}, {"time": 1082, "pitch": 72, "duration": 12, "velocity": 77}, {"time": 1160, "pitch": 65, "duration": 4, "velocity": 83}, {"time": 1166, "pitch": 67, "duration": 6, "velocity": 81}, {"time": 1172, "pitch": 74, "duration": 6, "velocity": 88}, {"time": 1178, "pitch": 72, "duration": 24, "velocity": 81}, {"time": 1208, "pitch": 55, "duration": 8, "velocity": 75}, {"time": 1214, "pitch": 60, "duration": 7, "velocity": 83}, {"time": 1220, "pitch": 62, "duration": 7, "velocity": 81}, {"time": 1226, "pitch": 64, "duration": 7, "velocity": 81}, {"time": 1232, "pitch": 65, "duration": 7, "velocity": 88}, {"time": 1238, "pitch": 67, "duration": 12, "velocity": 84}, {"time": 1250, "pitch": 64, "duration": 22, "velocity": 81}, {"time": 1250, "pitch": 76, "duration": 4, "velocity": 54}, {"time": 1253, "pitch": 74, "duration": 4, "velocity": 54}, {"time": 1256, "pitch": 72, "duration": 3, "velocity": 52}, {"time": 1259, "pitch": 74, "duration": 3, "velocity": 51}, {"time": 1262, "pitch": 76, "duration": 4, "velocity": 49}, {"time": 1265, "pitch": 74, "duration": 3, "velocity": 49}, {"time": 1268, "pitch": 72, "duration": 3, "velocity": 57}, {"time": 1271, "pitch": 74, "duration": 3, "velocity": 57}, {"time": 1274, "pitch": 65, "duration": 23, "velocity": 84}, {"time": 1274, "pitch": 77, "duration": 3, "velocity": 48}, {"time": 1277, "pitch": 72, "duration": 4, "velocity": 50}, {"time": 1280, "pitch": 71, "duration": 3, "velocity": 49}, {"time": 1283, "pitch": 72, "duration": 3, "velocity": 45}, {"time": 1286, "pitch": 77, "duration": 4, "velocity": 46}, {"time": 1289, "pitch": 72, "duration": 4, "velocity": 48}, {"time": 1292, "pitch": 71, "duration": 3, "velocity": 44}, {"time": 1295, "pitch": 72, "duration": 2, "velocity": 50}, {"time": 1298, "pitch": 64, "duration": 19, "velocity": 84}, {"time": 1301, "pitch": 71, "duration": 3, "velocity": 53}, {"time": 1304, "pitch": 67, "duration": 3, "velocity": 51}, {"time": 1307, "pitch": 71, "duration": 3, "velocity": 46}, {"time": 1310, "pitch": 67, "duration": 4, "velocity": 47}, {"time": 1313, "pitch": 71, "duration": 3, "velocity": 48}, {"time": 1316, "pitch": 62, "duration": 7, "velocity": 81}, {"time": 1316, "pitch": 74, "duration": 3, "velocity": 55}, {"time": 1319, "pitch": 71, "duration": 3, "velocity": 57}, {"time": 1322, "pitch": 60, "duration": 21, "velocity": 81}, {"time": 1325, "pitch": 72, "duration": 3, "velocity": 53}, {"time": 1328, "pitch": 71, "duration": 3, "velocity": 44}, {"time": 1331, "pitch": 72, "duration": 2, "velocity": 55}, {"time": 1334, "pitch": 72, "duration": 4, "velocity": 52}, {"time": 1337, "pitch": 74, "duration": 3, "velocity": 50}, {"time": 1340, "pitch": 76, "duration": 3, "velocity": 53}, {"time": 1343, "pitch": 72, "duration": 3, "velocity": 36}, {"time": 1346, "pitch": 57, "duration": 21, "velocity": 74}, {"time": 1346, "pitch": 60, "duration": 23, "velocity": 80}, {"time": 1346, "pitch": 76, "duration": 3, "velocity": 54}, {"time": 1349, "pitch": 74, "duration": 3, "velocity": 45}, {"time": 1352, "pitch": 72, "duration": 2, "velocity": 42}, {"time": 1355, "pitch": 72, "duration": 2, "velocity": 50}, {"time": 1358, "pitch": 76, "duration": 3, "velocity": 47}, {"time": 1361, "pitch": 74, "duration": 3, "velocity": 52}, {"time": 1364, "pitch": 72, "duration": 2, "velocity": 48}, {"time": 1367, "pitch": 72, "duration": 2, "velocity": 52}, {"time": 1370, "pitch": 59, "duration": 19, "velocity": 83}, {"time": 1370, "pitch": 81, "duration": 5, "velocity": 54}, {"time": 1373, "pitch": 79, "duration": 4, "velocity": 46}, {"time": 1376, "pitch": 76, "duration": 3, "velocity": 44}, {"time": 1379, "pitch": 74, "duration": 3, "velocity": 53}, {"time": 1382, "pitch": 81, "duration": 4, "velocity": 47}, {"time": 1385, "pitch": 79, "duration": 4, "velocity": 42}, {"time": 1388, "pitch": 57, "duration": 5, "velocity": 77}, {"time": 1388, "pitch": 76, "duration": 3, "velocity": 60}, {"time": 1391, "pitch": 74, "duration": 2, "velocity": 51}, {"time": 1394, "pitch": 55, "duration": 23, "velocity": 83}, {"time": 1397, "pitch": 76, "duration": 3, "velocity": 54}, {"time": 1400, "pitch": 74, "duration": 3, "velocity": 53}, {"time": 1403, "pitch": 76, "duration": 3, "velocity": 50}, {"time": 1406, "pitch": 74, "duration": 3, "velocity": 47}, {"time": 1409, "pitch": 76, "duration": 4, "velocity": 49}, {"time": 1412, "pitch": 77, "duration": 3, "velocity": 41}, {"time": 1415, "pitch": 76, "duration": 3, "velocity": 45}, {"time": 1418, "pitch": 60, "duration": 12, "velocity": 80}, {"time": 1418, "pitch": 64, "duration": 12, "velocity": 86}, {"time": 1418, "pitch": 77, "duration": 3, "velocity": 56}, {"time": 1421, "pitch": 76, "duration": 3, "velocity": 47}, {"time": 1424, "pitch": 74, "duration": 3, "velocity": 55}, {"time": 1427, "pitch": 76, "duration": 3, "velocity": 49}, {"time": 1430, "pitch": 67, "duration": 11, "velocity": 84}, {"time": 1430, "pitch": 77, "duration": 4, "velocity": 47}, {"time": 1433, "pitch": 76, "duration": 3, "velocity": 56}, {"time": 1436, "pitch": 74, "duration": 3, "velocity": 56}, {"time": 1439, "pitch": 76, "duration": 3, "velocity": 52}, {"time": 1442, "pitch": 69, "duration": 28, "velocity": 89}, {"time": 1442, "pitch": 76, "duration": 3, "velocity": 53}, {"time": 1445, "pitch": 74, "duration": 3, "velocity": 48}, {"time": 1448, "pitch": 72, "duration": 3, "velocity": 42}, {"time": 1451, "pitch": 74, "duration": 3, "velocity": 48}, {"time": 1454, "pitch": 76, "duration": 3, "velocity": 44}, {"time": 1457, "pitch": 74, "duration": 3, "velocity": 48}, {"time": 1460, "pitch": 72, "duration": 3, "velocity": 45}, {"time": 1463, "pitch": 81, "duration": 2, "velocity": 53}, {"time": 1466, "pitch": 67, "duration": 20, "velocity": 80}, {"time": 1466, "pitch": 74, "duration": 3, "velocity": 56}, {"time": 1469, "pitch": 72, "duration": 3, "velocity": 44}, {"time": 1472, "pitch": 71, "duration": 3, "velocity": 47}, {"time": 1475, "pitch": 72, "duration": 3, "velocity": 45}, {"time": 1478, "pitch": 74, "duration": 3, "velocity": 48}, {"time": 1481, "pitch": 72, "duration": 2, "velocity": 47}, {"time": 1484, "pitch": 71, "duration": 3, "velocity": 48}, {"time": 1487, "pitch": 74, "duration": 2, "velocity": 56}, {"time": 1490, "pitch": 56, "duration": 11, "velocity": 76}, {"time": 1490, "pitch": 76, "duration": 3, "velocity": 54}, {"time": 1493, "pitch": 74, "duration": 3, "velocity": 44}, {"time": 1496, "pitch": 72, "duration": 3, "velocity": 41}, {"time": 1499, "pitch": 74, "duration": 3, "velocity": 50}, {"time": 1502, "pitch": 59, "duration": 10, "velocity": 77}, {"time": 1502, "pitch": 76, "duration": 3, "velocity": 50}, {"time": 1505, "pitch": 74, "duration": 3, "velocity": 47}, {"time": 1508, "pitch": 72, "duration": 2, "velocity": 54}, {"time": 1511, "pitch": 76, "duration": 2, "velocity": 52}, {"time": 1514, "pitch": 60, "duration": 23, "velocity": 89}, {"time": 1514, "pitch": 76, "duration": 4, "velocity": 52}, {"time": 1520, "pitch": 69, "duration": 3, "velocity": 51}, {"time": 1523, "pitch": 71, "duration": 4, "velocity": 46}, {"time": 1526, "pitch": 72, "duration": 9, "velocity": 51}, {"time": 1538, "pitch": 62, "duration": 21, "velocity": 82}, {"time": 1562, "pitch": 55, "duration": 18, "velocity": 79}, {"time": 1562, "pitch": 62, "duration": 19, "velocity": 82}, {"time": 1562, "pitch": 74, "duration": 21, "velocity": 88}, {"time": 1586, "pitch": 60, "duration": 21, "velocity": 81}, {"time": 1586, "pitch": 65, "duration": 22, "velocity": 82}, {"time": 1592, "pitch": 74, "duration": 3, "velocity": 72}, {"time": 1595, "pitch": 72, "duration": 4, "velocity": 61}, {"time": 1598, "pitch": 79, "duration": 4, "velocity": 68}, {"time": 1601, "pitch": 76, "duration": 4, "velocity": 67}, {"time": 1604, "pitch": 74, "duration": 4, "velocity": 67}, {"time": 1607, "pitch": 72, "duration": 3, "velocity": 70}, {"time": 1610, "pitch": 60, "duration": 24, "velocity": 79}, {"time": 1610, "pitch": 64, "duration": 24, "velocity": 88}, {"time": 1610, "pitch": 72, "duration": 6, "velocity": 69}, {"time": 1616, "pitch": 72, "duration": 4, "velocity": 68}, {"time": 1619, "pitch": 74, "duration": 4, "velocity": 77}, {"time": 1622, "pitch": 79, "duration": 2, "velocity": 64}, {"time": 1625, "pitch": 81, "duration": 2, "velocity": 72}, {"time": 1628, "pitch": 84, "duration": 2, "velocity": 95}, {"time": 1631, "pitch": 86, "duration": 2, "velocity": 93}, {"time": 1634, "pitch": 88, "duration": 15, "velocity": 102}, {"time": 1649, "pitch": 86, "duration": 3, "velocity": 89}, {"time": 1652, "pitch": 88, "duration": 2, "velocity": 92}, {"time": 1655, "pitch": 91, "duration": 3, "velocity": 93}, {"time": 1658, "pitch": 88, "duration": 11, "velocity": 88}, {"time": 1673, "pitch": 86, "duration": 3, "velocity": 89}, {"time": 1676, "pitch": 88, "duration": 3, "velocity": 89}, {"time": 1679, "pitch": 93, "duration": 3, "velocity": 95}, {"time": 1682, "pitch": 88, "duration": 13, "velocity": 92}, {"time": 1688, "pitch": 57, "duration": 8, "velocity": 82}, {"time": 1694, "pitch": 59, "duration": 7, "velocity": 86}, {"time": 1694, "pitch": 83, "duration": 3, "velocity": 94}, {"time": 1697, "pitch": 84, "duration": 3, "velocity": 90}, {"time": 1700, "pitch": 60, "duration": 7, "velocity": 81}, {"time": 1700, "pitch": 86, "duration": 2, "velocity": 89}, {"time": 1703, "pitch": 91, "duration": 2, "velocity": 89}, {"time": 1706, "pitch": 88, "duration": 12, "velocity": 84}, {"time": 1718, "pitch": 76, "duration": 6, "velocity": 90}, {"time": 1724, "pitch": 79, "duration": 5, "velocity": 88}, {"time": 1724, "pitch": 84, "duration": 2, "velocity": 97}, {"time": 1727, "pitch": 86, "duration": 2, "velocity": 86}, {"time": 1730, "pitch": 81, "duration": 11, "velocity": 83}, {"time": 1730, "pitch": 88, "duration": 13, "velocity": 95}, {"time": 1742, "pitch": 76, "duration": 12, "velocity": 92}, {"time": 1745, "pitch": 81, "duration": 2, "velocity": 91}, {"time": 1748, "pitch": 88, "duration": 3, "velocity": 90}, {"time": 1751, "pitch": 81, "duration": 2, "velocity": 89}, {"time": 1754, "pitch": 74, "duration": 11, "velocity": 92}, {"time": 1754, "pitch": 86, "duration": 11, "velocity": 92}, {"time": 1766, "pitch": 67, "duration": 11, "velocity": 89}, {"time": 1766, "pitch": 84, "duration": 18, "velocity": 90}, {"time": 1778, "pitch": 72, "duration": 12, "velocity": 76}, {"time": 1790, "pitch": 67, "duration": 12, "velocity": 88}, {"time": 1790, "pitch": 76, "duration": 7, "velocity": 88}, {"time": 1796, "pitch": 77, "duration": 5, "velocity": 84}, {"time": 1802, "pitch": 72, "duration": 25, "velocity": 83}, {"time": 1802, "pitch": 79, "duration": 12, "velocity": 86}, {"time": 1814, "pitch": 79, "duration": 12, "velocity": 85}, {"time": 1826, "pitch": 64, "duration": 13, "velocity": 88}, {"time": 1841, "pitch": 62, "duration": 2, "velocity": 89}, {"time": 1844, "pitch": 64, "duration": 3, "velocity": 89}, {"time": 1847, "pitch": 67, "duration": 3, "velocity": 85}, {"time": 1850, "pitch": 64, "duration": 14, "velocity": 90}, {"time": 1865, "pitch": 62, "duration": 2, "velocity": 89}, {"time": 1868, "pitch": 64, "duration": 2, "velocity": 88}, {"time": 1871, "pitch": 67, "duration": 3, "velocity": 76}, {"time": 1874, "pitch": 64, "duration": 20, "velocity": 92}, {"time": 1889, "pitch": 62, "duration": 2, "velocity": 86}, {"time": 1892, "pitch": 64, "duration": 2, "velocity": 88}, {"time": 1895, "pitch": 67, "duration": 2, "velocity": 89}, {"time": 1898, "pitch": 64, "duration": 10, "velocity": 84}, {"time": 1910, "pitch": 72, "duration": 3, "velocity": 92}, {"time": 1913, "pitch": 71, "duration": 2, "velocity": 82}, {"time": 1916, "pitch": 69, "duration": 3, "velocity": 67}, {"time": 1919, "pitch": 67, "duration": 2, "velocity": 87}, {"time": 1922, "pitch": 64, "duration": 12, "velocity": 91}, {"time": 1937, "pitch": 62, "duration": 2, "velocity": 91}, {"time": 1940, "pitch": 64, "duration": 2, "velocity": 90}, {"time": 1943, "pitch": 69, "duration": 2, "velocity": 86}, {"time": 1946, "pitch": 64, "duration": 13, "velocity": 90}, {"time": 1961, "pitch": 62, "duration": 2, "velocity": 90}, {"time": 1964, "pitch": 64, "duration": 3, "velocity": 83}, {"time": 1967, "pitch": 67, "duration": 2, "velocity": 89}, {"time": 1970, "pitch": 64, "duration": 12, "velocity": 94}, {"time": 1994, "pitch": 64, "duration": 13, "velocity": 81}, {"time": 2006, "pitch": 62, "duration": 8, "velocity": 80}, {"time": 2012, "pitch": 64, "duration": 7, "velocity": 91}, {"time": 2018, "pitch": 57, "duration": 24, "velocity": 82}, {"time": 2018, "pitch": 64, "duration": 1, "velocity": 88}, {"time": 2033, "pitch": 62, "duration": 2, "velocity": 89}, {"time": 2036, "pitch": 64, "duration": 3, "velocity": 89}, {"time": 2039, "pitch": 69, "duration": 3, "velocity": 85}, {"time": 2042, "pitch": 64, "duration": 14, "velocity": 90}, {"time": 2057, "pitch": 62, "duration": 2, "velocity": 89}, {"time": 2060, "pitch": 64, "duration": 2, "velocity": 88}, {"time": 2063, "pitch": 69, "duration": 3, "velocity": 76}, {"time": 2066, "pitch": 64, "duration": 12, "velocity": 92}, {"time": 2078, "pitch": 62, "duration": 10, "velocity": 89}, {"time": 2090, "pitch": 60, "duration": 18, "velocity": 80}, {"time": 2120, "pitch": 52, "duration": 8, "velocity": 84}, {"time": 2126, "pitch": 53, "duration": 7, "velocity": 83}, {"time": 2129, "pitch": 64, "duration": 4, "velocity": 89}, {"time": 2132, "pitch": 60, "duration": 7, "velocity": 88}, {"time": 2132, "pitch": 65, "duration": 3, "velocity": 92}, {"time": 2135, "pitch": 72, "duration": 3, "velocity": 76}, {"time": 2138, "pitch": 59, "duration": 13, "velocity": 88}, {"time": 2138, "pitch": 74, "duration": 10, "velocity": 83}, {"time": 2150, "pitch": 55, "duration": 13, "velocity": 82}, {"time": 2156, "pitch": 71, "duration": 9, "velocity": 83}, {"time": 2162, "pitch": 57, "duration": 46, "velocity": 83}, {"time": 2168, "pitch": 62, "duration": 12, "velocity": 76}, {"time": 2174, "pitch": 64, "duration": 8, "velocity": 86}, {"time": 2180, "pitch": 69, "duration": 13, "velocity": 84}, {"time": 2186, "pitch": 61, "duration": 7, "velocity": 75}, {"time": 2192, "pitch": 62, "duration": 12, "velocity": 81}, {"time": 2198, "pitch": 64, "duration": 6, "velocity": 77}, {"time": 2204, "pitch": 69, "duration": 6, "velocity": 82}, {"time": 2210, "pitch": 57, "duration": 24, "velocity": 78}, {"time": 2210, "pitch": 76, "duration": 4, "velocity": 88}, {"time": 2213, "pitch": 74, "duration": 3, "velocity": 88}, {"time": 2216, "pitch": 76, "duration": 3, "velocity": 81}, {"time": 2219, "pitch": 74, "duration": 3, "velocity": 82}, {"time": 2222, "pitch": 76, "duration": 3, "velocity": 80}, {"time": 2225, "pitch": 74, "duration": 3, "velocity": 78}, {"time": 2228, "pitch": 76, "duration": 4, "velocity": 79}, {"time": 2231, "pitch": 74, "duration": 4, "velocity": 83}, {"time": 2234, "pitch": 59, "duration": 22, "velocity": 69}, {"time": 2234, "pitch": 76, "duration": 4, "velocity": 81}, {"time": 2240, "pitch": 71, "duration": 2, "velocity": 84}, {"time": 2243, "pitch": 72, "duration": 3, "velocity": 81}, {"time": 2246, "pitch": 74, "duration": 2, "velocity": 88}, {"time": 2252, "pitch": 71, "duration": 3, "velocity": 84}, {"time": 2255, "pitch": 72, "duration": 3, "velocity": 83}, {"time": 2258, "pitch": 57, "duration": 37, "velocity": 79}, {"time": 2264, "pitch": 72, "duration": 3, "velocity": 83}, {"time": 2267, "pitch": 74, "duration": 3, "velocity": 81}, {"time": 2270, "pitch": 76, "duration": 3, "velocity": 77}, {"time": 2273, "pitch": 74, "duration": 3, "velocity": 81}, {"time": 2276, "pitch": 76, "duration": 2, "velocity": 89}, {"time": 2279, "pitch": 79, "duration": 2, "velocity": 84}, {"time": 2282, "pitch": 76, "duration": 2, "velocity": 88}, {"time": 2288, "pitch": 71, "duration": 3, "velocity": 88}, {"time": 2291, "pitch": 74, "duration": 3, "velocity": 89}, {"time": 2294, "pitch": 59, "duration": 7, "velocity": 79}, {"time": 2294, "pitch": 72, "duration": 3, "velocity": 76}, {"time": 2297, "pitch": 71, "duration": 4, "velocity": 80}, {"time": 2300, "pitch": 60, "duration": 7, "velocity": 79}, {"time": 2300, "pitch": 69, "duration": 3, "velocity": 87}, {"time": 2303, "pitch": 67, "duration": 2, "velocity": 79}, {"time": 2306, "pitch": 57, "duration": 24, "velocity": 83}, {"time": 2306, "pitch": 76, "duration": 4, "velocity": 88}, {"time": 2309, "pitch": 74, "duration": 3, "velocity": 88}, {"time": 2312, "pitch": 76, "duration": 3, "velocity": 81}, {"time": 2315, "pitch": 74, "duration": 3, "velocity": 82}, {"time": 2318, "pitch": 76, "duration": 3, "velocity": 80}, {"time": 2321, "pitch": 74, "duration": 3, "velocity": 78}, {"time": 2324, "pitch": 76, "duration": 4, "velocity": 79}, {"time": 2327, "pitch": 74, "duration": 4, "velocity": 83}, {"time": 2330, "pitch": 55, "duration": 24, "velocity": 80}, {"time": 2330, "pitch": 76, "duration": 4, "velocity": 81}, {"time": 2336, "pitch": 71, "duration": 2, "velocity": 84}, {"time": 2339, "pitch": 72, "duration": 3, "velocity": 81}, {"time": 2342, "pitch": 74, "duration": 2, "velocity": 88}, {"time": 2348, "pitch": 71, "duration": 3, "velocity": 84}, {"time": 2351, "pitch": 72, "duration": 3, "velocity": 83}, {"time": 2354, "pitch": 60, "duration": 24, "velocity": 81}, {"time": 2360, "pitch": 72, "duration": 3, "velocity": 84}, {"time": 2366, "pitch": 74, "duration": 4, "velocity": 86}, {"time": 2372, "pitch": 72, "duration": 3, "velocity": 82}, {"time": 2375, "pitch": 76, "duration": 6, "velocity": 81}, {"time": 2378, "pitch": 64, "duration": 12, "velocity": 85}, {"time": 2390, "pitch": 62, "duration": 8, "velocity": 88}, {"time": 2396, "pitch": 60, "duration": 7, "velocity": 81}, {"time": 2402, "pitch": 57, "duration": 23, "velocity": 79}, {"time": 2426, "pitch": 59, "duration": 23, "velocity": 81}, {"time": 2450, "pitch": 60, "duration": 13, "velocity": 74}, {"time": 2450, "pitch": 76, "duration": 10, "velocity": 81}, {"time": 2462, "pitch": 59, "duration": 13, "velocity": 77}, {"time": 2462, "pitch": 74, "duration": 11, "velocity": 80}, {"time": 2474, "pitch": 57, "duration": 24, "velocity": 78}, {"time": 2474, "pitch": 72, "duration": 12, "velocity": 77}, {"time": 2498, "pitch": 64, "duration": 12, "velocity": 86}, {"time": 2510, "pitch": 62, "duration": 7, "velocity": 76}, {"time": 2516, "pitch": 60, "duration": 6, "velocity": 81}, {"time": 2522, "pitch": 62, "duration": 13, "velocity": 84}, {"time": 2534, "pitch": 59, "duration": 11, "velocity": 80}, {"time": 2546, "pitch": 60, "duration": 49, "velocity": 83}, {"time": 2552, "pitch": 65, "duration": 4, "velocity": 83}, {"time": 2558, "pitch": 67, "duration": 6, "velocity": 81}, {"time": 2564, "pitch": 74, "duration": 6, "velocity": 88}, {"time": 2570, "pitch": 72, "duration": 12, "velocity": 81}, {"time": 2576, "pitch": 65, "duration": 8, "velocity": 76}, {"time": 2582, "pitch": 67, "duration": 7, "velocity": 82}, {"time": 2588, "pitch": 74, "duration": 6, "velocity": 84}, {"time": 2594, "pitch": 72, "duration": 21, "velocity": 90}, {"time": 2600, "pitch": 55, "duration": 8, "velocity": 75}, {"time": 2606, "pitch": 60, "duration": 7, "velocity": 83}, {"time": 2612, "pitch": 62, "duration": 7, "velocity": 81}, {"time": 2618, "pitch": 64, "duration": 7, "velocity": 81}, {"time": 2624, "pitch": 65, "duration": 7, "velocity": 88}, {"time": 2630, "pitch": 67, "duration": 12, "velocity": 84}, {"time": 2642, "pitch": 76, "duration": 4, "velocity": 52}, {"time": 2642, "pitch": 100, "duration": 22, "velocity": 81}, {"time": 2645, "pitch": 74, "duration": 4, "velocity": 52}, {"time": 2648, "pitch": 72, "duration": 3, "velocity": 50}, {"time": 2651, "pitch": 74, "duration": 3, "velocity": 49}, {"time": 2654, "pitch": 76, "duration": 4, "velocity": 47}, {"time": 2657, "pitch": 74, "duration": 3, "velocity": 47}, {"time": 2660, "pitch": 72, "duration": 3, "velocity": 55}, {"time": 2663, "pitch": 74, "duration": 3, "velocity": 55}, {"time": 2666, "pitch": 77, "duration": 3, "velocity": 46}, {"time": 2666, "pitch": 101, "duration": 23, "velocity": 84}, {"time": 2669, "pitch": 72, "duration": 4, "velocity": 48}, {"time": 2672, "pitch": 71, "duration": 3, "velocity": 47}, {"time": 2675, "pitch": 72, "duration": 3, "velocity": 43}, {"time": 2678, "pitch": 77, "duration": 4, "velocity": 44}, {"time": 2681, "pitch": 72, "duration": 4, "velocity": 46}, {"time": 2684, "pitch": 71, "duration": 3, "velocity": 42}, {"time": 2687, "pitch": 72, "duration": 2, "velocity": 48}, {"time": 2690, "pitch": 100, "duration": 19, "velocity": 84}, {"time": 2693, "pitch": 71, "duration": 3, "velocity": 51}, {"time": 2696, "pitch": 67, "duration": 3, "velocity": 49}, {"time": 2699, "pitch": 71, "duration": 3, "velocity": 44}, {"time": 2702, "pitch": 67, "duration": 4, "velocity": 45}, {"time": 2705, "pitch": 71, "duration": 3, "velocity": 46}, {"time": 2708, "pitch": 74, "duration": 3, "velocity": 53}, {"time": 2708, "pitch": 98, "duration": 7, "velocity": 81}, {"time": 2711, "pitch": 71, "duration": 3, "velocity": 55}, {"time": 2714, "pitch": 96, "duration": 21, "velocity": 81}, {"time": 2717, "pitch": 72, "duration": 3, "velocity": 51}, {"time": 2720, "pitch": 71, "duration": 3, "velocity": 42}, {"time": 2723, "pitch": 72, "duration": 2, "velocity": 53}, {"time": 2726, "pitch": 72, "duration": 4, "velocity": 50}, {"time": 2729, "pitch": 74, "duration": 3, "velocity": 48}, {"time": 2732, "pitch": 76, "duration": 3, "velocity": 51}, {"time": 2735, "pitch": 72, "duration": 3, "velocity": 34}, {"time": 2738, "pitch": 76, "duration": 3, "velocity": 52}, {"time": 2738, "pitch": 93, "duration": 21, "velocity": 74}, {"time": 2738, "pitch": 96, "duration": 23, "velocity": 80}, {"time": 2741, "pitch": 74, "duration": 3, "velocity": 43}, {"time": 2744, "pitch": 72, "duration": 2, "velocity": 40}, {"time": 2747, "pitch": 72, "duration": 2, "velocity": 48}, {"time": 2750, "pitch": 76, "duration": 3, "velocity": 45}, {"time": 2753, "pitch": 74, "duration": 3, "velocity": 50}, {"time": 2756, "pitch": 72, "duration": 2, "velocity": 46}, {"time": 2759, "pitch": 72, "duration": 2, "velocity": 50}, {"time": 2762, "pitch": 81, "duration": 5, "velocity": 52}, {"time": 2762, "pitch": 95, "duration": 19, "velocity": 83}, {"time": 2765, "pitch": 79, "duration": 4, "velocity": 44}, {"time": 2768, "pitch": 76, "duration": 3, "velocity": 42}, {"time": 2771, "pitch": 74, "duration": 3, "velocity": 51}, {"time": 2774, "pitch": 81, "duration": 4, "velocity": 45}, {"time": 2777, "pitch": 79, "duration": 4, "velocity": 40}, {"time": 2780, "pitch": 76, "duration": 3, "velocity": 58}, {"time": 2780, "pitch": 93, "duration": 5, "velocity": 77}, {"time": 2783, "pitch": 74, "duration": 2, "velocity": 49}, {"time": 2786, "pitch": 91, "duration": 23, "velocity": 83}, {"time": 2789, "pitch": 76, "duration": 3, "velocity": 52}, {"time": 2792, "pitch": 74, "duration": 3, "velocity": 51}, {"time": 2795, "pitch": 76, "duration": 3, "velocity": 48}, {"time": 2798, "pitch": 74, "duration": 3, "velocity": 45}, {"time": 2801, "pitch": 76, "duration": 4, "velocity": 47}, {"time": 2804, "pitch": 77, "duration": 3, "velocity": 39}, {"time": 2807, "pitch": 76, "duration": 3, "velocity": 43}, {"time": 2810, "pitch": 77, "duration": 3, "velocity": 54}, {"time": 2810, "pitch": 96, "duration": 12, "velocity": 80}, {"time": 2810, "pitch": 100, "duration": 12, "velocity": 86}, {"time": 2813, "pitch": 76, "duration": 3, "velocity": 45}, {"time": 2816, "pitch": 74, "duration": 3, "velocity": 53}, {"time": 2819, "pitch": 76, "duration": 3, "velocity": 47}, {"time": 2822, "pitch": 77, "duration": 4, "velocity": 45}, {"time": 2822, "pitch": 103, "duration": 11, "velocity": 84}, {"time": 2825, "pitch": 76, "duration": 3, "velocity": 54}, {"time": 2828, "pitch": 74, "duration": 3, "velocity": 54}, {"time": 2831, "pitch": 76, "duration": 3, "velocity": 50}, {"time": 2834, "pitch": 76, "duration": 3, "velocity": 51}, {"time": 2834, "pitch": 105, "duration": 28, "velocity": 89}, {"time": 2837, "pitch": 74, "duration": 3, "velocity": 46}, {"time": 2840, "pitch": 72, "duration": 3, "velocity": 40}, {"time": 2843, "pitch": 74, "duration": 3, "velocity": 46}, {"time": 2846, "pitch": 76, "duration": 3, "velocity": 42}, {"time": 2849, "pitch": 74, "duration": 3, "velocity": 46}, {"time": 2852, "pitch": 72, "duration": 3, "velocity": 43}, {"time": 2855, "pitch": 81, "duration": 2, "velocity": 51}, {"time": 2858, "pitch": 74, "duration": 3, "velocity": 54}, {"time": 2858, "pitch": 103, "duration": 20, "velocity": 80}, {"time": 2861, "pitch": 72, "duration": 3, "velocity": 42}, {"time": 2864, "pitch": 71, "duration": 3, "velocity": 45}, {"time": 2867, "pitch": 72, "duration": 3, "velocity": 43}, {"time": 2870, "pitch": 74, "duration": 3, "velocity": 46}, {"time": 2873, "pitch": 72, "duration": 2, "velocity": 45}, {"time": 2876, "pitch": 71, "duration": 3, "velocity": 46}, {"time": 2879, "pitch": 74, "duration": 2, "velocity": 54}, {"time": 2882, "pitch": 76, "duration": 3, "velocity": 52}, {"time": 2882, "pitch": 92, "duration": 11, "velocity": 76}, {"time": 2885, "pitch": 74, "duration": 3, "velocity": 42}, {"time": 2888, "pitch": 72, "duration": 3, "velocity": 39}, {"time": 2891, "pitch": 74, "duration": 3, "velocity": 48}, {"time": 2894, "pitch": 76, "duration": 3, "velocity": 48}, {"time": 2894, "pitch": 95, "duration": 10, "velocity": 77}, {"time": 2897, "pitch": 74, "duration": 3, "velocity": 45}, {"time": 2900, "pitch": 72, "duration": 2, "velocity": 52}, {"time": 2903, "pitch": 76, "duration": 2, "velocity": 50}, {"time": 2906, "pitch": 76, "duration": 4, "velocity": 50}, {"time": 2906, "pitch": 96, "duration": 23, "velocity": 89}, {"time": 2912, "pitch": 69, "duration": 3, "velocity": 49}, {"time": 2915, "pitch": 71, "duration": 4, "velocity": 44}, {"time": 2918, "pitch": 72, "duration": 9, "velocity": 49}, {"time": 2930, "pitch": 98, "duration": 21, "velocity": 82}, {"time": 2954, "pitch": 74, "duration": 21, "velocity": 63}, {"time": 2954, "pitch": 91, "duration": 18, "velocity": 79}, {"time": 2954, "pitch": 98, "duration": 19, "velocity": 82}, {"time": 2978, "pitch": 96, "duration": 21, "velocity": 81}, {"time": 2978, "pitch": 101, "duration": 22, "velocity": 82}, {"time": 2984, "pitch": 74, "duration": 3, "velocity": 79}, {"time": 2987, "pitch": 72, "duration": 4, "velocity": 68}, {"time": 2990, "pitch": 79, "duration": 4, "velocity": 75}, {"time": 2993, "pitch": 76, "duration": 4, "velocity": 74}, {"time": 2996, "pitch": 74, "duration": 4, "velocity": 74}, {"time": 2999, "pitch": 72, "duration": 3, "velocity": 77}, {"time": 3002, "pitch": 72, "duration": 6, "velocity": 76}, {"time": 3002, "pitch": 96, "duration": 24, "velocity": 79}, {"time": 3002, "pitch": 100, "duration": 24, "velocity": 88}, {"time": 3008, "pitch": 72, "duration": 4, "velocity": 75}, {"time": 3011, "pitch": 74, "duration": 4, "velocity": 84}, {"time": 3014, "pitch": 79, "duration": 2, "velocity": 71}, {"time": 3017, "pitch": 81, "duration": 2, "velocity": 79}, {"time": 3026, "pitch": 76, "duration": 4, "velocity": 52}, {"time": 3026, "pitch": 100, "duration": 22, "velocity": 81}, {"time": 3029, "pitch": 74, "duration": 4, "velocity": 52}, {"time": 3032, "pitch": 72, "duration": 3, "velocity": 50}, {"time": 3035, "pitch": 74, "duration": 3, "velocity": 49}, {"time": 3038, "pitch": 76, "duration": 4, "velocity": 47}, {"time": 3041, "pitch": 74, "duration": 3, "velocity": 47}, {"time": 3044, "pitch": 72, "duration": 3, "velocity": 55}, {"time": 3047, "pitch": 74, "duration": 3, "velocity": 55}, {"time": 3050, "pitch": 77, "duration": 3, "velocity": 46}, {"time": 3050, "pitch": 101, "duration": 23, "velocity": 84}, {"time": 3053, "pitch": 72, "duration": 4, "velocity": 48}, {"time": 3056, "pitch": 71, "duration": 3, "velocity": 47}, {"time": 3059, "pitch": 72, "duration": 3, "velocity": 43}, {"time": 3062, "pitch": 77, "duration": 4, "velocity": 44}, {"time": 3065, "pitch": 72, "duration": 4, "velocity": 46}, {"time": 3068, "pitch": 71, "duration": 3, "velocity": 42}, {"time": 3071, "pitch": 72, "duration": 2, "velocity": 48}, {"time": 3074, "pitch": 100, "duration": 19, "velocity": 84}, {"time": 3077, "pitch": 71, "duration": 3, "velocity": 51}, {"time": 3080, "pitch": 67, "duration": 3, "velocity": 49}, {"time": 3083, "pitch": 71, "duration": 3, "velocity": 44}, {"time": 3086, "pitch": 67, "duration": 4, "velocity": 45}, {"time": 3089, "pitch": 71, "duration": 3, "velocity": 46}, {"time": 3092, "pitch": 74, "duration": 3, "velocity": 53}, {"time": 3092, "pitch": 98, "duration": 7, "velocity": 81}, {"time": 3095, "pitch": 71, "duration": 3, "velocity": 55}, {"time": 3098, "pitch": 96, "duration": 21, "velocity": 81}, {"time": 3101, "pitch": 72, "duration": 3, "velocity": 51}, {"time": 3104, "pitch": 71, "duration": 3, "velocity": 42}, {"time": 3107, "pitch": 72, "duration": 2, "velocity": 53}, {"time": 3110, "pitch": 72, "duration": 4, "velocity": 50}, {"time": 3113, "pitch": 74, "duration": 3, "velocity": 48}, {"time": 3116, "pitch": 76, "duration": 3, "velocity": 51}, {"time": 3119, "pitch": 72, "duration": 3, "velocity": 34}, {"time": 3122, "pitch": 76, "duration": 3, "velocity": 52}, {"time": 3122, "pitch": 93, "duration": 21, "velocity": 74}, {"time": 3122, "pitch": 96, "duration": 23, "velocity": 80}, {"time": 3125, "pitch": 74, "duration": 3, "velocity": 43}, {"time": 3128, "pitch": 72, "duration": 2, "velocity": 40}, {"time": 3131, "pitch": 72, "duration": 2, "velocity": 48}, {"time": 3134, "pitch": 76, "duration": 3, "velocity": 45}, {"time": 3137, "pitch": 74, "duration": 3, "velocity": 50}, {"time": 3140, "pitch": 72, "duration": 2, "velocity": 46}, {"time": 3143, "pitch": 72, "duration": 2, "velocity": 50}, {"time": 3146, "pitch": 81, "duration": 5, "velocity": 52}, {"time": 3146, "pitch": 95, "duration": 19, "velocity": 83}, {"time": 3149, "pitch": 79, "duration": 4, "velocity": 44}, {"time": 3152, "pitch": 76, "duration": 3, "velocity": 42}, {"time": 3155, "pitch": 74, "duration": 3, "velocity": 51}, {"time": 3158, "pitch": 81, "duration": 4, "velocity": 45}, {"time": 3161, "pitch": 79, "duration": 4, "velocity": 40}, {"time": 3164, "pitch": 76, "duration": 3, "velocity": 58}, {"time": 3164, "pitch": 93, "duration": 5, "velocity": 77}, {"time": 3167, "pitch": 74, "duration": 2, "velocity": 49}, {"time": 3170, "pitch": 91, "duration": 23, "velocity": 83}, {"time": 3173, "pitch": 76, "duration": 3, "velocity": 52}, {"time": 3176, "pitch": 74, "duration": 3, "velocity": 51}, {"time": 3179, "pitch": 76, "duration": 3, "velocity": 48}, {"time": 3182, "pitch": 74, "duration": 3, "velocity": 45}, {"time": 3185, "pitch": 76, "duration": 4, "velocity": 47}, {"time": 3188, "pitch": 77, "duration": 3, "velocity": 39}, {"time": 3191, "pitch": 76, "duration": 3, "velocity": 43}, {"time": 3194, "pitch": 77, "duration": 3, "velocity": 54}, {"time": 3194, "pitch": 96, "duration": 12, "velocity": 80}, {"time": 3194, "pitch": 100, "duration": 12, "velocity": 86}, {"time": 3197, "pitch": 76, "duration": 3, "velocity": 45}, {"time": 3200, "pitch": 74, "duration": 3, "velocity": 53}, {"time": 3203, "pitch": 76, "duration": 3, "velocity": 47}, {"time": 3206, "pitch": 77, "duration": 4, "velocity": 45}, {"time": 3206, "pitch": 103, "duration": 11, "velocity": 84}, {"time": 3209, "pitch": 76, "duration": 3, "velocity": 54}, {"time": 3212, "pitch": 74, "duration": 3, "velocity": 54}, {"time": 3215, "pitch": 76, "duration": 3, "velocity": 50}, {"time": 3218, "pitch": 76, "duration": 3, "velocity": 51}, {"time": 3218, "pitch": 105, "duration": 28, "velocity": 89}, {"time": 3221, "pitch": 74, "duration": 3, "velocity": 46}, {"time": 3224, "pitch": 72, "duration": 3, "velocity": 40}, {"time": 3227, "pitch": 74, "duration": 3, "velocity": 46}, {"time": 3230, "pitch": 76, "duration": 3, "velocity": 42}, {"time": 3233, "pitch": 74, "duration": 3, "velocity": 46}, {"time": 3236, "pitch": 72, "duration": 3, "velocity": 43}, {"time": 3239, "pitch": 81, "duration": 2, "velocity": 51}, {"time": 3242, "pitch": 74, "duration": 3, "velocity": 54}, {"time": 3242, "pitch": 103, "duration": 20, "velocity": 80}, {"time": 3245, "pitch": 72, "duration": 3, "velocity": 42}, {"time": 3248, "pitch": 71, "duration": 3, "velocity": 45}, {"time": 3251, "pitch": 72, "duration": 3, "velocity": 43}, {"time": 3254, "pitch": 74, "duration": 3, "velocity": 46}, {"time": 3257, "pitch": 72, "duration": 2, "velocity": 45}, {"time": 3260, "pitch": 71, "duration": 3, "velocity": 46}, {"time": 3263, "pitch": 74, "duration": 2, "velocity": 54}, {"time": 3266, "pitch": 76, "duration": 3, "velocity": 52}, {"time": 3266, "pitch": 92, "duration": 11, "velocity": 76}, {"time": 3269, "pitch": 74, "duration": 3, "velocity": 42}, {"time": 3272, "pitch": 72, "duration": 3, "velocity": 39}, {"time": 3275, "pitch": 74, "duration": 3, "velocity": 48}, {"time": 3278, "pitch": 76, "duration": 3, "velocity": 48}, {"time": 3278, "pitch": 95, "duration": 10, "velocity": 77}, {"time": 3281, "pitch": 74, "duration": 3, "velocity": 45}, {"time": 3284, "pitch": 72, "duration": 2, "velocity": 52}, {"time": 3287, "pitch": 76, "duration": 2, "velocity": 50}, {"time": 3290, "pitch": 76, "duration": 4, "velocity": 50}, {"time": 3290, "pitch": 96, "duration": 23, "velocity": 89}, {"time": 3296, "pitch": 69, "duration": 3, "velocity": 49}, {"time": 3299, "pitch": 71, "duration": 4, "velocity": 44}, {"time": 3302, "pitch": 72, "duration": 9, "velocity": 49}, {"time": 3314, "pitch": 98, "duration": 21, "velocity": 82}, {"time": 3338, "pitch": 74, "duration": 21, "velocity": 63}, {"time": 3338, "pitch": 91, "duration": 18, "velocity": 79}, {"time": 3338, "pitch": 98, "duration": 19, "velocity": 82}, {"time": 3362, "pitch": 96, "duration": 21, "velocity": 81}, {"time": 3362, "pitch": 101, "duration": 22, "velocity": 82}, {"time": 3368, "pitch": 74, "duration": 3, "velocity": 79}, {"time": 3371, "pitch": 72, "duration": 4, "velocity": 68}, {"time": 3374, "pitch": 79, "duration": 4, "velocity": 75}, {"time": 3377, "pitch": 76, "duration": 4, "velocity": 74}, {"time": 3380, "pitch": 74, "duration": 4, "velocity": 74}, {"time": 3383, "pitch": 72, "duration": 3, "velocity": 77}, {"time": 3386, "pitch": 72, "duration": 6, "velocity": 76}, {"time": 3386, "pitch": 96, "duration": 24, "velocity": 79}, {"time": 3386, "pitch": 100, "duration": 24, "velocity": 88}, {"time": 3392, "pitch": 72, "duration": 4, "velocity": 75}, {"time": 3395, "pitch": 74, "duration": 4, "velocity": 84}, {"time": 3398, "pitch": 79, "duration": 2, "velocity": 71}, {"time": 3401, "pitch": 81, "duration": 2, "velocity": 79}, {"time": 3410, "pitch": 76, "duration": 3, "velocity": 51}, {"time": 3410, "pitch": 105, "duration": 28, "velocity": 89}, {"time": 3413, "pitch": 74, "duration": 3, "velocity": 46}, {"time": 3416, "pitch": 72, "duration": 3, "velocity": 40}, {"time": 3419, "pitch": 74, "duration": 3, "velocity": 46}, {"time": 3422, "pitch": 76, "duration": 3, "velocity": 42}, {"time": 3425, "pitch": 74, "duration": 3, "velocity": 46}, {"time": 3428, "pitch": 72, "duration": 3, "velocity": 43}, {"time": 3431, "pitch": 81, "duration": 2, "velocity": 51}, {"time": 3434, "pitch": 74, "duration": 3, "velocity": 54}, {"time": 3434, "pitch": 103, "duration": 20, "velocity": 80}, {"time": 3437, "pitch": 72, "duration": 3, "velocity": 42}, {"time": 3440, "pitch": 71, "duration": 3, "velocity": 45}, {"time": 3443, "pitch": 72, "duration": 3, "velocity": 43}, {"time": 3446, "pitch": 74, "duration": 3, "velocity": 46}, {"time": 3449, "pitch": 72, "duration": 2, "velocity": 45}, {"time": 3452, "pitch": 71, "duration": 3, "velocity": 46}, {"time": 3455, "pitch": 74, "duration": 2, "velocity": 54}, {"time": 3458, "pitch": 76, "duration": 3, "velocity": 52}, {"time": 3458, "pitch": 92, "duration": 11, "velocity": 76}, {"time": 3461, "pitch": 74, "duration": 3, "velocity": 42}, {"time": 3464, "pitch": 72, "duration": 3, "velocity": 39}, {"time": 3467, "pitch": 74, "duration": 3, "velocity": 48}, {"time": 3470, "pitch": 76, "duration": 3, "velocity": 48}, {"time": 3470, "pitch": 95, "duration": 10, "velocity": 77}, {"time": 3473, "pitch": 74, "duration": 3, "velocity": 45}, {"time": 3476, "pitch": 72, "duration": 2, "velocity": 52}, {"time": 3479, "pitch": 76, "duration": 2, "velocity": 50}, {"time": 3482, "pitch": 76, "duration": 4, "velocity": 50}, {"time": 3482, "pitch": 96, "duration": 23, "velocity": 89}, {"time": 3488, "pitch": 69, "duration": 3, "velocity": 49}, {"time": 3491, "pitch": 71, "duration": 4, "velocity": 44}, {"time": 3494, "pitch": 72, "duration": 9, "velocity": 49}, {"time": 3506, "pitch": 98, "duration": 21, "velocity": 82}, {"time": 3530, "pitch": 74, "duration": 21, "velocity": 63}, {"time": 3530, "pitch": 91, "duration": 18, "velocity": 79}, {"time": 3530, "pitch": 98, "duration": 19, "velocity": 82}, {"time": 3554, "pitch": 96, "duration": 21, "velocity": 81}, {"time": 3554, "pitch": 101, "duration": 22, "velocity": 82}, {"time": 3560, "pitch": 74, "duration": 3, "velocity": 79}, {"time": 3563, "pitch": 72, "duration": 4, "velocity": 68}, {"time": 3566, "pitch": 79, "duration": 4, "velocity": 75}, {"time": 3569, "pitch": 76, "duration": 4, "velocity": 74}, {"time": 3572, "pitch": 74, "duration": 4, "velocity": 74}, {"time": 3575, "pitch": 72, "duration": 3, "velocity": 77}, {"time": 3578, "pitch": 72, "duration": 6, "velocity": 76}, {"time": 3578, "pitch": 96, "duration": 24, "velocity": 79}, {"time": 3578, "pitch": 100, "duration": 24, "velocity": 88}, {"time": 3602, "pitch": 76, "duration": 13, "velocity": 88}, {"time": 3617, "pitch": 74, "duration": 2, "velocity": 89}, {"time": 3620, "pitch": 76, "duration": 3, "velocity": 89}, {"time": 3623, "pitch": 79, "duration": 3, "velocity": 85}, {"time": 3626, "pitch": 76, "duration": 14, "velocity": 90}, {"time": 3641, "pitch": 74, "duration": 2, "velocity": 89}, {"time": 3644, "pitch": 76, "duration": 2, "velocity": 88}, {"time": 3647, "pitch": 79, "duration": 3, "velocity": 76}, {"time": 3650, "pitch": 76, "duration": 20, "velocity": 92}, {"time": 3665, "pitch": 74, "duration": 2, "velocity": 86}, {"time": 3668, "pitch": 76, "duration": 2, "velocity": 88}, {"time": 3671, "pitch": 79, "duration": 2, "velocity": 89}, {"time": 3674, "pitch": 76, "duration": 10, "velocity": 84}, {"time": 3686, "pitch": 84, "duration": 3, "velocity": 92}, {"time": 3689, "pitch": 83, "duration": 2, "velocity": 82}, {"time": 3692, "pitch": 81, "duration": 3, "velocity": 67}, {"time": 3695, "pitch": 79, "duration": 2, "velocity": 87}, {"time": 3698, "pitch": 76, "duration": 12, "velocity": 91}, {"time": 3713, "pitch": 74, "duration": 2, "velocity": 91}, {"time": 3716, "pitch": 76, "duration": 2, "velocity": 90}, {"time": 3719, "pitch": 81, "duration": 2, "velocity": 86}, {"time": 3722, "pitch": 76, "duration": 13, "velocity": 90}, {"time": 3737, "pitch": 74, "duration": 2, "velocity": 90}, {"time": 3740, "pitch": 76, "duration": 3, "velocity": 83}, {"time": 3743, "pitch": 79, "duration": 2, "velocity": 89}, {"time": 3746, "pitch": 76, "duration": 12, "velocity": 94}, {"time": 3794, "pitch": 76, "duration": 13, "velocity": 88}, {"time": 3809, "pitch": 74, "duration": 2, "velocity": 89}, {"time": 3812, "pitch": 76, "duration": 3, "velocity": 89}, {"time": 3815, "pitch": 81, "duration": 3, "velocity": 85}, {"time": 3818, "pitch": 76, "duration": 14, "velocity": 90}, {"time": 3833, "pitch": 74, "duration": 2, "velocity": 89}, {"time": 3836, "pitch": 76, "duration": 2, "velocity": 88}, {"time": 3839, "pitch": 81, "duration": 3, "velocity": 76}, {"time": 3842, "pitch": 76, "duration": 12, "velocity": 92}, {"time": 3854, "pitch": 74, "duration": 10, "velocity": 89}, {"time": 3866, "pitch": 72, "duration": 18, "velocity": 80}, {"time": 3905, "pitch": 64, "duration": 4, "velocity": 89}, {"time": 3908, "pitch": 65, "duration": 3, "velocity": 92}, {"time": 3911, "pitch": 72, "duration": 3, "velocity": 76}, {"time": 3914, "pitch": 74, "duration": 10, "velocity": 83}, {"time": 3932, "pitch": 71, "duration": 9, "velocity": 83}]}, {"program": 0, "is_drum": false, "name": "PIANO", "notes": [{"time": 50, "pitch": 53, "duration": 18, "velocity": 88}, {"time": 50, "pitch": 69, "duration": 14, "velocity": 78}, {"time": 56, "pitch": 60, "duration": 13, "velocity": 78}, {"time": 62, "pitch": 65, "duration": 6, "velocity": 85}, {"time": 74, "pitch": 55, "duration": 13, "velocity": 88}, {"time": 74, "pitch": 67, "duration": 7, "velocity": 78}, {"time": 74, "pitch": 71, "duration": 13, "velocity": 83}, {"time": 80, "pitch": 62, "duration": 7, "velocity": 76}, {"time": 86, "pitch": 67, "duration": 3, "velocity": 81}, {"time": 98, "pitch": 57, "duration": 23, "velocity": 75}, {"time": 98, "pitch": 64, "duration": 8, "velocity": 83}, {"time": 98, "pitch": 72, "duration": 15, "velocity": 85}, {"time": 104, "pitch": 60, "duration": 16, "velocity": 64}, {"time": 110, "pitch": 64, "duration": 8, "velocity": 89}, {"time": 122, "pitch": 64, "duration": 10, "velocity": 88}, {"time": 122, "pitch": 72, "duration": 15, "velocity": 84}, {"time": 146, "pitch": 53, "duration": 17, "velocity": 87}, {"time": 146, "pitch": 65, "duration": 8, "velocity": 73}, {"time": 146, "pitch": 69, "duration": 13, "velocity": 79}, {"time": 152, "pitch": 60, "duration": 13, "velocity": 78}, {"time": 158, "pitch": 65, "duration": 9, "velocity": 87}, {"time": 170, "pitch": 55, "duration": 13, "velocity": 85}, {"time": 170, "pitch": 67, "duration": 8, "velocity": 76}, {"time": 170, "pitch": 71, "duration": 13, "velocity": 80}, {"time": 176, "pitch": 62, "duration": 7, "velocity": 76}, {"time": 182, "pitch": 67, "duration": 3, "velocity": 78}, {"time": 194, "pitch": 48, "duration": 40, "velocity": 88}, {"time": 194, "pitch": 55, "duration": 5, "velocity": 84}, {"time": 194, "pitch": 60, "duration": 10, "velocity": 86}, {"time": 200, "pitch": 55, "duration": 8, "velocity": 83}, {"time": 206, "pitch": 60, "duration": 7, "velocity": 80}, {"time": 218, "pitch": 55, "duration": 3, "velocity": 84}, {"time": 218, "pitch": 64, "duration": 10, "velocity": 89}, {"time": 224, "pitch": 55, "duration": 3, "velocity": 76}, {"time": 230, "pitch": 55, "duration": 3, "velocity": 88}, {"time": 230, "pitch": 60, "duration": 6, "velocity": 87}, {"time": 236, "pitch": 55, "duration": 2, "velocity": 75}, {"time": 242, "pitch": 41, "duration": 21, "velocity": 88}, {"time": 242, "pitch": 53, "duration": 7, "velocity": 74}, {"time": 242, "pitch": 57, "duration": 9, "velocity": 81}, {"time": 248, "pitch": 48, "duration": 16, "velocity": 75}, {"time": 254, "pitch": 53, "duration": 8, "velocity": 80}, {"time": 260, "pitch": 57, "duration": 6, "velocity": 89}, {"time": 266, "pitch": 43, "duration": 22, "velocity": 90}, {"time": 266, "pitch": 55, "duration": 10, "velocity": 84}, {"time": 266, "pitch": 59, "duration": 10, "velocity": 88}, {"time": 272, "pitch": 50, "duration": 16, "velocity": 80}, {"time": 278, "pitch": 55, "duration": 7, "velocity": 88}, {"time": 278, "pitch": 59, "duration": 6, "velocity": 88}, {"time": 290, "pitch": 45, "duration": 10, "velocity": 88}, {"time": 290, "pitch": 57, "duration": 8, "velocity": 82}, {"time": 290, "pitch": 60, "duration": 13, "velocity": 88}, {"time": 293, "pitch": 52, "duration": 7, "velocity": 71}, {"time": 302, "pitch": 43, "duration": 10, "velocity": 83}, {"time": 302, "pitch": 55, "duration": 9, "velocity": 84}, {"time": 302, "pitch": 59, "duration": 8, "velocity": 84}, {"time": 305, "pitch": 50, "duration": 5, "velocity": 62}, {"time": 314, "pitch": 42, "duration": 16, "velocity": 88}, {"time": 314, "pitch": 54, "duration": 8, "velocity": 72}, {"time": 314, "pitch": 57, "duration": 10, "velocity": 72}, {"time": 320, "pitch": 48, "duration": 8, "velocity": 56}, {"time": 323, "pitch": 57, "duration": 1, "velocity": 81}, {"time": 326, "pitch": 54, "duration": 7, "velocity": 80}, {"time": 326, "pitch": 60, "duration": 10, "velocity": 80}, {"time": 336, "pitch": 57, "duration": 18, "velocity": 77}, {"time": 337, "pitch": 38, "duration": 18, "velocity": 90}, {"time": 337, "pitch": 62, "duration": 16, "velocity": 81}, {"time": 338, "pitch": 65, "duration": 16, "velocity": 84}, {"time": 360, "pitch": 55, "duration": 11, "velocity": 76}, {"time": 361, "pitch": 59, "duration": 10, "velocity": 80}, {"time": 361, "pitch": 43, "duration": 13, "velocity": 85}, {"time": 362, "pitch": 62, "duration": 10, "velocity": 82}, {"time": 386, "pitch": 57, "duration": 8, "velocity": 79}, {"time": 386, "pitch": 45, "duration": 22, "velocity": 88}, {"time": 392, "pitch": 52, "duration": 16, "velocity": 82}, {"time": 398, "pitch": 57, "duration": 7, "velocity": 91}, {"time": 404, "pitch": 62, "duration": 5, "velocity": 88}, {"time": 409, "pitch": 61, "duration": 8, "velocity": 78}, {"time": 410, "pitch": 57, "duration": 7, "velocity": 79}, {"time": 410, "pitch": 45, "duration": 24, "velocity": 84}, {"time": 416, "pitch": 52, "duration": 18, "velocity": 71}, {"time": 421, "pitch": 64, "duration": 13, "velocity": 80}, {"time": 421, "pitch": 57, "duration": 13, "velocity": 72}, {"time": 434, "pitch": 41, "duration": 21, "velocity": 87}, {"time": 434, "pitch": 53, "duration": 9, "velocity": 80}, {"time": 434, "pitch": 60, "duration": 17, "velocity": 83}, {"time": 440, "pitch": 48, "duration": 15, "velocity": 68}, {"time": 446, "pitch": 53, "duration": 6, "velocity": 77}, {"time": 458, "pitch": 43, "duration": 18, "velocity": 88}, {"time": 458, "pitch": 55, "duration": 8, "velocity": 84}, {"time": 458, "pitch": 59, "duration": 12, "velocity": 85}, {"time": 464, "pitch": 50, "duration": 12, "velocity": 74}, {"time": 470, "pitch": 55, "duration": 6, "velocity": 84}, {"time": 482, "pitch": 45, "duration": 42, "velocity": 88}, {"time": 482, "pitch": 57, "duration": 8, "velocity": 78}, {"time": 482, "pitch": 60, "duration": 9, "velocity": 83}, {"time": 488, "pitch": 52, "duration": 9, "velocity": 73}, {"time": 494, "pitch": 57, "duration": 10, "velocity": 88}, {"time": 500, "pitch": 52, "duration": 23, "velocity": 74}, {"time": 506, "pitch": 57, "duration": 9, "velocity": 81}, {"time": 506, "pitch": 60, "duration": 8, "velocity": 82}, {"time": 506, "pitch": 64, "duration": 7, "velocity": 85}, {"time": 518, "pitch": 57, "duration": 5, "velocity": 84}, {"time": 518, "pitch": 60, "duration": 5, "velocity": 88}, {"time": 530, "pitch": 41, "duration": 18, "velocity": 88}, {"time": 530, "pitch": 53, "duration": 8, "velocity": 76}, {"time": 530, "pitch": 57, "duration": 12, "velocity": 79}, {"time": 536, "pitch": 48, "duration": 12, "velocity": 71}, {"time": 542, "pitch": 53, "duration": 7, "velocity": 88}, {"time": 554, "pitch": 43, "duration": 21, "velocity": 88}, {"time": 554, "pitch": 55, "duration": 9, "velocity": 83}, {"time": 554, "pitch": 59, "duration": 10, "velocity": 82}, {"time": 560, "pitch": 50, "duration": 15, "velocity": 77}, {"time": 566, "pitch": 55, "duration": 7, "velocity": 84}, {"time": 572, "pitch": 59, "duration": 5, "velocity": 83}, {"time": 578, "pitch": 48, "duration": 39, "velocity": 85}, {"time": 578, "pitch": 55, "duration": 9, "velocity": 84}, {"time": 578, "pitch": 60, "duration": 13, "velocity": 84}, {"time": 584, "pitch": 52, "duration": 33, "velocity": 78}, {"time": 590, "pitch": 55, "duration": 8, "velocity": 90}, {"time": 602, "pitch": 55, "duration": 4, "velocity": 83}, {"time": 602, "pitch": 60, "duration": 8, "velocity": 84}, {"time": 602, "pitch": 64, "duration": 8, "velocity": 87}, {"time": 608, "pitch": 55, "duration": 10, "velocity": 81}, {"time": 614, "pitch": 60, "duration": 4, "velocity": 83}, {"time": 626, "pitch": 41, "duration": 21, "velocity": 85}, {"time": 626, "pitch": 53, "duration": 9, "velocity": 82}, {"time": 626, "pitch": 60, "duration": 13, "velocity": 85}, {"time": 632, "pitch": 48, "duration": 16, "velocity": 78}, {"time": 638, "pitch": 53, "duration": 6, "velocity": 86}, {"time": 650, "pitch": 43, "duration": 20, "velocity": 88}, {"time": 650, "pitch": 55, "duration": 8, "velocity": 83}, {"time": 650, "pitch": 59, "duration": 13, "velocity": 83}, {"time": 656, "pitch": 50, "duration": 16, "velocity": 79}, {"time": 662, "pitch": 55, "duration": 8, "velocity": 89}, {"time": 668, "pitch": 59, "duration": 7, "velocity": 88}, {"time": 674, "pitch": 45, "duration": 9, "velocity": 88}, {"time": 674, "pitch": 57, "duration": 8, "velocity": 79}, {"time": 674, "pitch": 60, "duration": 9, "velocity": 85}, {"time": 686, "pitch": 43, "duration": 12, "velocity": 87}, {"time": 686, "pitch": 55, "duration": 13, "velocity": 83}, {"time": 686, "pitch": 59, "duration": 9, "velocity": 88}, {"time": 698, "pitch": 42, "duration": 21, "velocity": 83}, {"time": 698, "pitch": 54, "duration": 22, "velocity": 74}, {"time": 698, "pitch": 57, "duration": 22, "velocity": 79}, {"time": 722, "pitch": 38, "duration": 21, "velocity": 90}, {"time": 722, "pitch": 57, "duration": 14, "velocity": 76}, {"time": 728, "pitch": 45, "duration": 16, "velocity": 81}, {"time": 734, "pitch": 50, "duration": 13, "velocity": 87}, {"time": 740, "pitch": 53, "duration": 8, "velocity": 85}, {"time": 746, "pitch": 43, "duration": 21, "velocity": 85}, {"time": 752, "pitch": 50, "duration": 16, "velocity": 80}, {"time": 758, "pitch": 55, "duration": 8, "velocity": 89}, {"time": 764, "pitch": 59, "duration": 6, "velocity": 85}, {"time": 770, "pitch": 45, "duration": 22, "velocity": 83}, {"time": 770, "pitch": 57, "duration": 10, "velocity": 77}, {"time": 770, "pitch": 62, "duration": 13, "velocity": 80}, {"time": 776, "pitch": 52, "duration": 16, "velocity": 78}, {"time": 782, "pitch": 57, "duration": 10, "velocity": 81}, {"time": 788, "pitch": 62, "duration": 4, "velocity": 69}, {"time": 794, "pitch": 45, "duration": 25, "velocity": 88}, {"time": 794, "pitch": 57, "duration": 10, "velocity": 80}, {"time": 794, "pitch": 61, "duration": 10, "velocity": 86}, {"time": 800, "pitch": 52, "duration": 9, "velocity": 81}, {"time": 806, "pitch": 57, "duration": 12, "velocity": 88}, {"time": 806, "pitch": 61, "duration": 12, "velocity": 86}, {"time": 806, "pitch": 64, "duration": 12, "velocity": 91}, {"time": 812, "pitch": 52, "duration": 7, "velocity": 84}, {"time": 818, "pitch": 41, "duration": 21, "velocity": 87}, {"time": 818, "pitch": 53, "duration": 9, "velocity": 80}, {"time": 818, "pitch": 60, "duration": 17, "velocity": 83}, {"time": 824, "pitch": 48, "duration": 15, "velocity": 68}, {"time": 830, "pitch": 53, "duration": 6, "velocity": 77}, {"time": 842, "pitch": 43, "duration": 18, "velocity": 88}, {"time": 842, "pitch": 55, "duration": 8, "velocity": 84}, {"time": 842, "pitch": 59, "duration": 12, "velocity": 85}, {"time": 848, "pitch": 50, "duration": 12, "velocity": 74}, {"time": 854, "pitch": 55, "duration": 6, "velocity": 84}, {"time": 866, "pitch": 45, "duration": 42, "velocity": 88}, {"time": 866, "pitch": 57, "duration": 8, "velocity": 78}, {"time": 866, "pitch": 60, "duration": 9, "velocity": 83}, {"time": 872, "pitch": 52, "duration": 9, "velocity": 73}, {"time": 878, "pitch": 57, "duration": 10, "velocity": 88}, {"time": 884, "pitch": 52, "duration": 23, "velocity": 74}, {"time": 890, "pitch": 57, "duration": 9, "velocity": 81}, {"time": 890, "pitch": 60, "duration": 8, "velocity": 82}, {"time": 890, "pitch": 64, "duration": 7, "velocity": 85}, {"time": 902, "pitch": 57, "duration": 5, "velocity": 84}, {"time": 902, "pitch": 60, "duration": 5, "velocity": 88}, {"time": 914, "pitch": 41, "duration": 18, "velocity": 88}, {"time": 914, "pitch": 53, "duration": 8, "velocity": 76}, {"time": 914, "pitch": 57, "duration": 12, "velocity": 79}, {"time": 920, "pitch": 48, "duration": 12, "velocity": 71}, {"time": 926, "pitch": 53, "duration": 7, "velocity": 88}, {"time": 938, "pitch": 43, "duration": 21, "velocity": 88}, {"time": 938, "pitch": 55, "duration": 9, "velocity": 83}, {"time": 938, "pitch": 59, "duration": 10, "velocity": 82}, {"time": 944, "pitch": 50, "duration": 15, "velocity": 77}, {"time": 950, "pitch": 55, "duration": 7, "velocity": 84}, {"time": 956, "pitch": 59, "duration": 5, "velocity": 83}, {"time": 962, "pitch": 48, "duration": 39, "velocity": 85}, {"time": 962, "pitch": 55, "duration": 9, "velocity": 84}, {"time": 962, "pitch": 60, "duration": 13, "velocity": 84}, {"time": 968, "pitch": 52, "duration": 33, "velocity": 78}, {"time": 974, "pitch": 55, "duration": 8, "velocity": 90}, {"time": 986, "pitch": 55, "duration": 4, "velocity": 83}, {"time": 986, "pitch": 60, "duration": 8, "velocity": 84}, {"time": 986, "pitch": 64, "duration": 8, "velocity": 87}, {"time": 992, "pitch": 55, "duration": 10, "velocity": 81}, {"time": 998, "pitch": 60, "duration": 4, "velocity": 83}, {"time": 1010, "pitch": 41, "duration": 21, "velocity": 85}, {"time": 1010, "pitch": 53, "duration": 9, "velocity": 82}, {"time": 1010, "pitch": 60, "duration": 13, "velocity": 85}, {"time": 1016, "pitch": 48, "duration": 16, "velocity": 78}, {"time": 1022, "pitch": 53, "duration": 6, "velocity": 86}, {"time": 1034, "pitch": 43, "duration": 20, "velocity": 88}, {"time": 1034, "pitch": 55, "duration": 8, "velocity": 83}, {"time": 1034, "pitch": 59, "duration": 13, "velocity": 83}, {"time": 1040, "pitch": 50, "duration": 16, "velocity": 79}, {"time": 1046, "pitch": 55, "duration": 8, "velocity": 89}, {"time": 1052, "pitch": 59, "duration": 7, "velocity": 88}, {"time": 1058, "pitch": 45, "duration": 9, "velocity": 88}, {"time": 1058, "pitch": 57, "duration": 8, "velocity": 79}, {"time": 1058, "pitch": 60, "duration": 9, "velocity": 85}, {"time": 1070, "pitch": 43, "duration": 12, "velocity": 87}, {"time": 1070, "pitch": 55, "duration": 13, "velocity": 83}, {"time": 1070, "pitch": 59, "duration": 9, "velocity": 88}, {"time": 1082, "pitch": 42, "duration": 21, "velocity": 83}, {"time": 1082, "pitch": 54, "duration": 22, "velocity": 74}, {"time": 1082, "pitch": 57, "duration": 22, "velocity": 79}, {"time": 1106, "pitch": 41, "duration": 21, "velocity": 88}, {"time": 1106, "pitch": 53, "duration": 9, "velocity": 83}, {"time": 1106, "pitch": 60, "duration": 19, "velocity": 84}, {"time": 1112, "pitch": 48, "duration": 15, "velocity": 72}, {"time": 1118, "pitch": 53, "duration": 7, "velocity": 88}, {"time": 1124, "pitch": 57, "duration": 7, "velocity": 88}, {"time": 1130, "pitch": 43, "duration": 17, "velocity": 90}, {"time": 1130, "pitch": 55, "duration": 10, "velocity": 85}, {"time": 1130, "pitch": 59, "duration": 12, "velocity": 88}, {"time": 1136, "pitch": 50, "duration": 9, "velocity": 73}, {"time": 1142, "pitch": 55, "duration": 19, "velocity": 93}, {"time": 1154, "pitch": 36, "duration": 2, "velocity": 84}, {"time": 1154, "pitch": 60, "duration": 8, "velocity": 82}, {"time": 1154, "pitch": 64, "duration": 10, "velocity": 88}, {"time": 1160, "pitch": 48, "duration": 36, "velocity": 88}, {"time": 1166, "pitch": 55, "duration": 15, "velocity": 83}, {"time": 1172, "pitch": 60, "duration": 4, "velocity": 82}, {"time": 1178, "pitch": 60, "duration": 8, "velocity": 82}, {"time": 1178, "pitch": 65, "duration": 6, "velocity": 82}, {"time": 1184, "pitch": 55, "duration": 8, "velocity": 74}, {"time": 1190, "pitch": 60, "duration": 4, "velocity": 80}, {"time": 1190, "pitch": 64, "duration": 6, "velocity": 87}, {"time": 1202, "pitch": 48, "duration": 49, "velocity": 94}, {"time": 1208, "pitch": 55, "duration": 34, "velocity": 80}, {"time": 1214, "pitch": 60, "duration": 7, "velocity": 85}, {"time": 1220, "pitch": 62, "duration": 3, "velocity": 90}, {"time": 1226, "pitch": 64, "duration": 8, "velocity": 99}, {"time": 1232, "pitch": 67, "duration": 4, "velocity": 90}, {"time": 1238, "pitch": 64, "duration": 12, "velocity": 90}, {"time": 1238, "pitch": 67, "duration": 12, "velocity": 88}, {"time": 1238, "pitch": 72, "duration": 13, "velocity": 89}, {"time": 1244, "pitch": 55, "duration": 7, "velocity": 94}, {"time": 1250, "pitch": 48, "duration": 1, "velocity": 90}, {"time": 1250, "pitch": 60, "duration": 8, "velocity": 83}, {"time": 1250, "pitch": 64, "duration": 10, "velocity": 89}, {"time": 1250, "pitch": 67, "duration": 14, "velocity": 84}, {"time": 1256, "pitch": 55, "duration": 8, "velocity": 77}, {"time": 1262, "pitch": 60, "duration": 9, "velocity": 97}, {"time": 1262, "pitch": 64, "duration": 1, "velocity": 67}, {"time": 1268, "pitch": 64, "duration": 4, "velocity": 94}, {"time": 1274, "pitch": 41, "duration": 19, "velocity": 89}, {"time": 1274, "pitch": 60, "duration": 8, "velocity": 89}, {"time": 1274, "pitch": 65, "duration": 9, "velocity": 88}, {"time": 1280, "pitch": 48, "duration": 13, "velocity": 71}, {"time": 1286, "pitch": 60, "duration": 3, "velocity": 89}, {"time": 1286, "pitch": 65, "duration": 7, "velocity": 91}, {"time": 1286, "pitch": 69, "duration": 9, "velocity": 84}, {"time": 1298, "pitch": 52, "duration": 15, "velocity": 88}, {"time": 1298, "pitch": 64, "duration": 4, "velocity": 88}, {"time": 1298, "pitch": 67, "duration": 9, "velocity": 87}, {"time": 1304, "pitch": 64, "duration": 5, "velocity": 88}, {"time": 1310, "pitch": 64, "duration": 2, "velocity": 88}, {"time": 1310, "pitch": 67, "duration": 6, "velocity": 94}, {"time": 1310, "pitch": 71, "duration": 7, "velocity": 91}, {"time": 1316, "pitch": 64, "duration": 2, "velocity": 83}, {"time": 1322, "pitch": 45, "duration": 21, "velocity": 88}, {"time": 1322, "pitch": 57, "duration": 10, "velocity": 82}, {"time": 1322, "pitch": 60, "duration": 8, "velocity": 82}, {"time": 1328, "pitch": 52, "duration": 14, "velocity": 79}, {"time": 1334, "pitch": 57, "duration": 2, "velocity": 80}, {"time": 1334, "pitch": 60, "duration": 7, "velocity": 95}, {"time": 1334, "pitch": 64, "duration": 8, "velocity": 97}, {"time": 1346, "pitch": 50, "duration": 17, "velocity": 92}, {"time": 1346, "pitch": 57, "duration": 5, "velocity": 83}, {"time": 1346, "pitch": 65, "duration": 14, "velocity": 88}, {"time": 1352, "pitch": 57, "duration": 8, "velocity": 86}, {"time": 1358, "pitch": 62, "duration": 6, "velocity": 91}, {"time": 1364, "pitch": 57, "duration": 3, "velocity": 84}, {"time": 1370, "pitch": 43, "duration": 16, "velocity": 89}, {"time": 1370, "pitch": 55, "duration": 10, "velocity": 84}, {"time": 1370, "pitch": 59, "duration": 13, "velocity": 86}, {"time": 1376, "pitch": 50, "duration": 9, "velocity": 82}, {"time": 1382, "pitch": 55, "duration": 10, "velocity": 97}, {"time": 1394, "pitch": 36, "duration": 23, "velocity": 86}, {"time": 1394, "pitch": 55, "duration": 5, "velocity": 92}, {"time": 1394, "pitch": 64, "duration": 14, "velocity": 90}, {"time": 1400, "pitch": 43, "duration": 16, "velocity": 75}, {"time": 1406, "pitch": 55, "duration": 11, "velocity": 93}, {"time": 1412, "pitch": 60, "duration": 5, "velocity": 93}, {"time": 1418, "pitch": 36, "duration": 20, "velocity": 89}, {"time": 1418, "pitch": 55, "duration": 7, "velocity": 89}, {"time": 1418, "pitch": 58, "duration": 8, "velocity": 88}, {"time": 1418, "pitch": 60, "duration": 8, "velocity": 89}, {"time": 1418, "pitch": 64, "duration": 9, "velocity": 94}, {"time": 1424, "pitch": 43, "duration": 9, "velocity": 82}, {"time": 1430, "pitch": 55, "duration": 6, "velocity": 93}, {"time": 1430, "pitch": 64, "duration": 13, "velocity": 99}, {"time": 1436, "pitch": 43, "duration": 3, "velocity": 83}, {"time": 1442, "pitch": 41, "duration": 20, "velocity": 90}, {"time": 1442, "pitch": 53, "duration": 13, "velocity": 88}, {"time": 1442, "pitch": 60, "duration": 9, "velocity": 86}, {"time": 1448, "pitch": 48, "duration": 14, "velocity": 88}, {"time": 1454, "pitch": 57, "duration": 7, "velocity": 90}, {"time": 1454, "pitch": 60, "duration": 10, "velocity": 91}, {"time": 1460, "pitch": 53, "duration": 4, "velocity": 73}, {"time": 1466, "pitch": 43, "duration": 16, "velocity": 89}, {"time": 1466, "pitch": 55, "duration": 13, "velocity": 84}, {"time": 1466, "pitch": 59, "duration": 9, "velocity": 84}, {"time": 1472, "pitch": 50, "duration": 9, "velocity": 79}, {"time": 1478, "pitch": 59, "duration": 6, "velocity": 92}, {"time": 1478, "pitch": 62, "duration": 6, "velocity": 90}, {"time": 1484, "pitch": 55, "duration": 2, "velocity": 92}, {"time": 1490, "pitch": 40, "duration": 15, "velocity": 92}, {"time": 1490, "pitch": 52, "duration": 11, "velocity": 86}, {"time": 1490, "pitch": 59, "duration": 9, "velocity": 85}, {"time": 1496, "pitch": 47, "duration": 8, "velocity": 80}, {"time": 1502, "pitch": 52, "duration": 2, "velocity": 85}, {"time": 1502, "pitch": 56, "duration": 6, "velocity": 92}, {"time": 1502, "pitch": 59, "duration": 9, "velocity": 92}, {"time": 1508, "pitch": 52, "duration": 2, "velocity": 88}, {"time": 1514, "pitch": 45, "duration": 22, "velocity": 89}, {"time": 1514, "pitch": 57, "duration": 11, "velocity": 82}, {"time": 1514, "pitch": 60, "duration": 10, "velocity": 84}, {"time": 1520, "pitch": 52, "duration": 13, "velocity": 81}, {"time": 1526, "pitch": 57, "duration": 4, "velocity": 88}, {"time": 1526, "pitch": 60, "duration": 7, "velocity": 91}, {"time": 1526, "pitch": 64, "duration": 7, "velocity": 90}, {"time": 1532, "pitch": 57, "duration": 9, "velocity": 86}, {"time": 1538, "pitch": 50, "duration": 15, "velocity": 89}, {"time": 1538, "pitch": 65, "duration": 16, "velocity": 91}, {"time": 1544, "pitch": 53, "duration": 10, "velocity": 71}, {"time": 1550, "pitch": 57, "duration": 5, "velocity": 89}, {"time": 1562, "pitch": 43, "duration": 22, "velocity": 88}, {"time": 1562, "pitch": 55, "duration": 7, "velocity": 86}, {"time": 1562, "pitch": 59, "duration": 8, "velocity": 84}, {"time": 1562, "pitch": 62, "duration": 9, "velocity": 87}, {"time": 1568, "pitch": 50, "duration": 16, "velocity": 81}, {"time": 1574, "pitch": 55, "duration": 10, "velocity": 93}, {"time": 1574, "pitch": 62, "duration": 2, "velocity": 33}, {"time": 1580, "pitch": 59, "duration": 5, "velocity": 89}, {"time": 1586, "pitch": 48, "duration": 49, "velocity": 93}, {"time": 1586, "pitch": 55, "duration": 6, "velocity": 87}, {"time": 1586, "pitch": 60, "duration": 8, "velocity": 84}, {"time": 1592, "pitch": 55, "duration": 5, "velocity": 88}, {"time": 1598, "pitch": 55, "duration": 2, "velocity": 63}, {"time": 1598, "pitch": 60, "duration": 10, "velocity": 94}, {"time": 1598, "pitch": 65, "duration": 8, "velocity": 89}, {"time": 1604, "pitch": 55, "duration": 8, "velocity": 92}, {"time": 1610, "pitch": 60, "duration": 8, "velocity": 70}, {"time": 1610, "pitch": 64, "duration": 9, "velocity": 85}, {"time": 1616, "pitch": 55, "duration": 5, "velocity": 81}, {"time": 1622, "pitch": 55, "duration": 4, "velocity": 84}, {"time": 1622, "pitch": 62, "duration": 12, "velocity": 84}, {"time": 1628, "pitch": 55, "duration": 6, "velocity": 88}, {"time": 1634, "pitch": 53, "duration": 18, "velocity": 88}, {"time": 1634, "pitch": 69, "duration": 14, "velocity": 78}, {"time": 1640, "pitch": 60, "duration": 13, "velocity": 78}, {"time": 1646, "pitch": 65, "duration": 6, "velocity": 85}, {"time": 1658, "pitch": 55, "duration": 13, "velocity": 88}, {"time": 1658, "pitch": 67, "duration": 7, "velocity": 78}, {"time": 1658, "pitch": 71, "duration": 13, "velocity": 83}, {"time": 1664, "pitch": 62, "duration": 7, "velocity": 76}, {"time": 1670, "pitch": 67, "duration": 3, "velocity": 81}, {"time": 1682, "pitch": 57, "duration": 23, "velocity": 75}, {"time": 1682, "pitch": 64, "duration": 8, "velocity": 83}, {"time": 1682, "pitch": 72, "duration": 15, "velocity": 85}, {"time": 1688, "pitch": 60, "duration": 16, "velocity": 64}, {"time": 1694, "pitch": 64, "duration": 8, "velocity": 89}, {"time": 1706, "pitch": 64, "duration": 10, "velocity": 88}, {"time": 1706, "pitch": 72, "duration": 15, "velocity": 84}, {"time": 1730, "pitch": 41, "duration": 21, "velocity": 88}, {"time": 1730, "pitch": 53, "duration": 13, "velocity": 83}, {"time": 1730, "pitch": 60, "duration": 13, "velocity": 85}, {"time": 1736, "pitch": 48, "duration": 14, "velocity": 77}, {"time": 1742, "pitch": 57, "duration": 8, "velocity": 87}, {"time": 1748, "pitch": 53, "duration": 3, "velocity": 89}, {"time": 1754, "pitch": 40, "duration": 20, "velocity": 89}, {"time": 1754, "pitch": 52, "duration": 13, "velocity": 88}, {"time": 1754, "pitch": 55, "duration": 10, "velocity": 84}, {"time": 1760, "pitch": 47, "duration": 16, "velocity": 83}, {"time": 1766, "pitch": 55, "duration": 7, "velocity": 89}, {"time": 1772, "pitch": 52, "duration": 4, "velocity": 93}, {"time": 1778, "pitch": 41, "duration": 19, "velocity": 89}, {"time": 1778, "pitch": 53, "duration": 14, "velocity": 82}, {"time": 1778, "pitch": 57, "duration": 14, "velocity": 79}, {"time": 1784, "pitch": 48, "duration": 13, "velocity": 81}, {"time": 1790, "pitch": 60, "duration": 7, "velocity": 89}, {"time": 1796, "pitch": 57, "duration": 8, "velocity": 84}, {"time": 1802, "pitch": 43, "duration": 3, "velocity": 88}, {"time": 1802, "pitch": 55, "duration": 4, "velocity": 82}, {"time": 1802, "pitch": 59, "duration": 6, "velocity": 83}, {"time": 1808, "pitch": 55, "duration": 17, "velocity": 81}, {"time": 1814, "pitch": 62, "duration": 12, "velocity": 84}, {"time": 1820, "pitch": 67, "duration": 7, "velocity": 79}, {"time": 1826, "pitch": 41, "duration": 21, "velocity": 87}, {"time": 1826, "pitch": 53, "duration": 9, "velocity": 80}, {"time": 1826, "pitch": 60, "duration": 17, "velocity": 83}, {"time": 1832, "pitch": 48, "duration": 15, "velocity": 68}, {"time": 1838, "pitch": 53, "duration": 6, "velocity": 77}, {"time": 1850, "pitch": 43, "duration": 18, "velocity": 88}, {"time": 1850, "pitch": 55, "duration": 8, "velocity": 84}, {"time": 1850, "pitch": 59, "duration": 12, "velocity": 85}, {"time": 1856, "pitch": 50, "duration": 12, "velocity": 74}, {"time": 1862, "pitch": 55, "duration": 6, "velocity": 84}, {"time": 1874, "pitch": 45, "duration": 42, "velocity": 88}, {"time": 1874, "pitch": 57, "duration": 8, "velocity": 78}, {"time": 1874, "pitch": 60, "duration": 9, "velocity": 83}, {"time": 1880, "pitch": 52, "duration": 9, "velocity": 73}, {"time": 1886, "pitch": 57, "duration": 10, "velocity": 88}, {"time": 1892, "pitch": 52, "duration": 23, "velocity": 74}, {"time": 1898, "pitch": 57, "duration": 9, "velocity": 81}, {"time": 1898, "pitch": 60, "duration": 8, "velocity": 82}, {"time": 1898, "pitch": 64, "duration": 7, "velocity": 85}, {"time": 1910, "pitch": 57, "duration": 5, "velocity": 84}, {"time": 1910, "pitch": 60, "duration": 5, "velocity": 88}, {"time": 1922, "pitch": 41, "duration": 18, "velocity": 88}, {"time": 1922, "pitch": 53, "duration": 8, "velocity": 76}, {"time": 1922, "pitch": 57, "duration": 12, "velocity": 79}, {"time": 1928, "pitch": 48, "duration": 12, "velocity": 71}, {"time": 1934, "pitch": 53, "duration": 7, "velocity": 88}, {"time": 1946, "pitch": 43, "duration": 21, "velocity": 88}, {"time": 1946, "pitch": 55, "duration": 9, "velocity": 83}, {"time": 1946, "pitch": 59, "duration": 10, "velocity": 82}, {"time": 1952, "pitch": 50, "duration": 15, "velocity": 77}, {"time": 1958, "pitch": 55, "duration": 7, "velocity": 84}, {"time": 1964, "pitch": 59, "duration": 5, "velocity": 83}, {"time": 1970, "pitch": 48, "duration": 39, "velocity": 85}, {"time": 1970, "pitch": 55, "duration": 9, "velocity": 84}, {"time": 1970, "pitch": 60, "duration": 13, "velocity": 84}, {"time": 1976, "pitch": 52, "duration": 33, "velocity": 78}, {"time": 1982, "pitch": 55, "duration": 8, "velocity": 90}, {"time": 1994, "pitch": 55, "duration": 4, "velocity": 83}, {"time": 1994, "pitch": 60, "duration": 8, "velocity": 84}, {"time": 1994, "pitch": 64, "duration": 8, "velocity": 87}, {"time": 2000, "pitch": 55, "duration": 10, "velocity": 81}, {"time": 2006, "pitch": 60, "duration": 4, "velocity": 83}, {"time": 2018, "pitch": 41, "duration": 21, "velocity": 85}, {"time": 2018, "pitch": 53, "duration": 9, "velocity": 82}, {"time": 2018, "pitch": 60, "duration": 13, "velocity": 85}, {"time": 2024, "pitch": 48, "duration": 16, "velocity": 78}, {"time": 2030, "pitch": 53, "duration": 6, "velocity": 86}, {"time": 2042, "pitch": 43, "duration": 20, "velocity": 88}, {"time": 2042, "pitch": 55, "duration": 8, "velocity": 83}, {"time": 2042, "pitch": 59, "duration": 13, "velocity": 83}, {"time": 2048, "pitch": 50, "duration": 16, "velocity": 79}, {"time": 2054, "pitch": 55, "duration": 8, "velocity": 89}, {"time": 2060, "pitch": 59, "duration": 7, "velocity": 88}, {"time": 2066, "pitch": 45, "duration": 9, "velocity": 88}, {"time": 2066, "pitch": 57, "duration": 8, "velocity": 79}, {"time": 2066, "pitch": 60, "duration": 9, "velocity": 85}, {"time": 2078, "pitch": 43, "duration": 12, "velocity": 87}, {"time": 2078, "pitch": 55, "duration": 13, "velocity": 83}, {"time": 2078, "pitch": 59, "duration": 9, "velocity": 88}, {"time": 2090, "pitch": 42, "duration": 21, "velocity": 83}, {"time": 2090, "pitch": 54, "duration": 22, "velocity": 74}, {"time": 2090, "pitch": 57, "duration": 22, "velocity": 79}, {"time": 2114, "pitch": 38, "duration": 21, "velocity": 90}, {"time": 2114, "pitch": 57, "duration": 14, "velocity": 76}, {"time": 2120, "pitch": 45, "duration": 16, "velocity": 81}, {"time": 2126, "pitch": 50, "duration": 13, "velocity": 87}, {"time": 2132, "pitch": 53, "duration": 8, "velocity": 85}, {"time": 2138, "pitch": 43, "duration": 21, "velocity": 85}, {"time": 2144, "pitch": 50, "duration": 16, "velocity": 80}, {"time": 2150, "pitch": 55, "duration": 8, "velocity": 89}, {"time": 2156, "pitch": 59, "duration": 6, "velocity": 85}, {"time": 2162, "pitch": 45, "duration": 22, "velocity": 83}, {"time": 2162, "pitch": 57, "duration": 10, "velocity": 77}, {"time": 2162, "pitch": 62, "duration": 13, "velocity": 80}, {"time": 2168, "pitch": 52, "duration": 16, "velocity": 78}, {"time": 2174, "pitch": 57, "duration": 10, "velocity": 81}, {"time": 2180, "pitch": 62, "duration": 4, "velocity": 69}, {"time": 2186, "pitch": 45, "duration": 25, "velocity": 88}, {"time": 2186, "pitch": 57, "duration": 10, "velocity": 80}, {"time": 2186, "pitch": 61, "duration": 10, "velocity": 86}, {"time": 2192, "pitch": 52, "duration": 9, "velocity": 81}, {"time": 2198, "pitch": 57, "duration": 12, "velocity": 88}, {"time": 2198, "pitch": 61, "duration": 12, "velocity": 86}, {"time": 2198, "pitch": 64, "duration": 12, "velocity": 91}, {"time": 2204, "pitch": 52, "duration": 7, "velocity": 84}, {"time": 2210, "pitch": 41, "duration": 21, "velocity": 87}, {"time": 2210, "pitch": 53, "duration": 9, "velocity": 80}, {"time": 2210, "pitch": 60, "duration": 17, "velocity": 83}, {"time": 2216, "pitch": 48, "duration": 15, "velocity": 68}, {"time": 2222, "pitch": 53, "duration": 6, "velocity": 77}, {"time": 2234, "pitch": 43, "duration": 18, "velocity": 88}, {"time": 2234, "pitch": 55, "duration": 8, "velocity": 84}, {"time": 2234, "pitch": 59, "duration": 12, "velocity": 85}, {"time": 2240, "pitch": 50, "duration": 12, "velocity": 74}, {"time": 2246, "pitch": 55, "duration": 6, "velocity": 84}, {"time": 2258, "pitch": 45, "duration": 42, "velocity": 88}, {"time": 2258, "pitch": 57, "duration": 8, "velocity": 78}, {"time": 2258, "pitch": 60, "duration": 9, "velocity": 83}, {"time": 2264, "pitch": 52, "duration": 9, "velocity": 73}, {"time": 2270, "pitch": 57, "duration": 10, "velocity": 88}, {"time": 2276, "pitch": 52, "duration": 23, "velocity": 74}, {"time": 2282, "pitch": 57, "duration": 9, "velocity": 81}, {"time": 2282, "pitch": 60, "duration": 8, "velocity": 82}, {"time": 2282, "pitch": 64, "duration": 7, "velocity": 85}, {"time": 2294, "pitch": 57, "duration": 5, "velocity": 84}, {"time": 2294, "pitch": 60, "duration": 5, "velocity": 88}, {"time": 2306, "pitch": 41, "duration": 18, "velocity": 88}, {"time": 2306, "pitch": 53, "duration": 8, "velocity": 76}, {"time": 2306, "pitch": 57, "duration": 12, "velocity": 79}, {"time": 2312, "pitch": 48, "duration": 12, "velocity": 71}, {"time": 2318, "pitch": 53, "duration": 7, "velocity": 88}, {"time": 2330, "pitch": 43, "duration": 21, "velocity": 88}, {"time": 2330, "pitch": 55, "duration": 9, "velocity": 83}, {"time": 2330, "pitch": 59, "duration": 10, "velocity": 82}, {"time": 2336, "pitch": 50, "duration": 15, "velocity": 77}, {"time": 2342, "pitch": 55, "duration": 7, "velocity": 84}, {"time": 2348, "pitch": 59, "duration": 5, "velocity": 83}, {"time": 2354, "pitch": 48, "duration": 39, "velocity": 85}, {"time": 2354, "pitch": 55, "duration": 9, "velocity": 84}, {"time": 2354, "pitch": 60, "duration": 13, "velocity": 84}, {"time": 2360, "pitch": 52, "duration": 33, "velocity": 78}, {"time": 2366, "pitch": 55, "duration": 8, "velocity": 90}, {"time": 2378, "pitch": 55, "duration": 4, "velocity": 83}, {"time": 2378, "pitch": 60, "duration": 8, "velocity": 84}, {"time": 2378, "pitch": 64, "duration": 8, "velocity": 87}, {"time": 2384, "pitch": 55, "duration": 10, "velocity": 81}, {"time": 2390, "pitch": 60, "duration": 4, "velocity": 83}, {"time": 2402, "pitch": 41, "duration": 21, "velocity": 85}, {"time": 2402, "pitch": 53, "duration": 9, "velocity": 82}, {"time": 2402, "pitch": 60, "duration": 13, "velocity": 85}, {"time": 2408, "pitch": 48, "duration": 16, "velocity": 78}, {"time": 2414, "pitch": 53, "duration": 6, "velocity": 86}, {"time": 2426, "pitch": 43, "duration": 20, "velocity": 88}, {"time": 2426, "pitch": 55, "duration": 8, "velocity": 83}, {"time": 2426, "pitch": 59, "duration": 13, "velocity": 83}, {"time": 2432, "pitch": 50, "duration": 16, "velocity": 79}, {"time": 2438, "pitch": 55, "duration": 8, "velocity": 89}, {"time": 2444, "pitch": 59, "duration": 7, "velocity": 88}, {"time": 2450, "pitch": 45, "duration": 9, "velocity": 88}, {"time": 2450, "pitch": 57, "duration": 8, "velocity": 79}, {"time": 2450, "pitch": 60, "duration": 9, "velocity": 85}, {"time": 2462, "pitch": 43, "duration": 12, "velocity": 87}, {"time": 2462, "pitch": 55, "duration": 13, "velocity": 83}, {"time": 2462, "pitch": 59, "duration": 9, "velocity": 88}, {"time": 2474, "pitch": 42, "duration": 21, "velocity": 83}, {"time": 2474, "pitch": 54, "duration": 22, "velocity": 74}, {"time": 2474, "pitch": 57, "duration": 22, "velocity": 79}, {"time": 2498, "pitch": 41, "duration": 21, "velocity": 88}, {"time": 2498, "pitch": 53, "duration": 9, "velocity": 83}, {"time": 2498, "pitch": 60, "duration": 19, "velocity": 84}, {"time": 2504, "pitch": 48, "duration": 15, "velocity": 72}, {"time": 2510, "pitch": 53, "duration": 7, "velocity": 88}, {"time": 2516, "pitch": 57, "duration": 7, "velocity": 88}, {"time": 2522, "pitch": 43, "duration": 17, "velocity": 90}, {"time": 2522, "pitch": 55, "duration": 10, "velocity": 85}, {"time": 2522, "pitch": 59, "duration": 12, "velocity": 88}, {"time": 2528, "pitch": 50, "duration": 9, "velocity": 73}, {"time": 2534, "pitch": 55, "duration": 19, "velocity": 93}, {"time": 2546, "pitch": 36, "duration": 2, "velocity": 84}, {"time": 2546, "pitch": 60, "duration": 8, "velocity": 82}, {"time": 2546, "pitch": 64, "duration": 10, "velocity": 88}, {"time": 2552, "pitch": 48, "duration": 36, "velocity": 88}, {"time": 2558, "pitch": 55, "duration": 15, "velocity": 83}, {"time": 2564, "pitch": 60, "duration": 4, "velocity": 82}, {"time": 2570, "pitch": 60, "duration": 8, "velocity": 82}, {"time": 2570, "pitch": 65, "duration": 6, "velocity": 82}, {"time": 2576, "pitch": 55, "duration": 8, "velocity": 74}, {"time": 2582, "pitch": 60, "duration": 4, "velocity": 80}, {"time": 2582, "pitch": 64, "duration": 6, "velocity": 87}, {"time": 2594, "pitch": 48, "duration": 49, "velocity": 94}, {"time": 2600, "pitch": 55, "duration": 34, "velocity": 80}, {"time": 2606, "pitch": 60, "duration": 7, "velocity": 85}, {"time": 2612, "pitch": 62, "duration": 3, "velocity": 90}, {"time": 2618, "pitch": 64, "duration": 8, "velocity": 99}, {"time": 2624, "pitch": 67, "duration": 4, "velocity": 90}, {"time": 2630, "pitch": 64, "duration": 12, "velocity": 90}, {"time": 2630, "pitch": 67, "duration": 12, "velocity": 88}, {"time": 2630, "pitch": 72, "duration": 13, "velocity": 89}, {"time": 2636, "pitch": 55, "duration": 7, "velocity": 94}, {"time": 2642, "pitch": 48, "duration": 1, "velocity": 90}, {"time": 2642, "pitch": 60, "duration": 8, "velocity": 83}, {"time": 2642, "pitch": 64, "duration": 10, "velocity": 89}, {"time": 2642, "pitch": 67, "duration": 14, "velocity": 84}, {"time": 2648, "pitch": 55, "duration": 8, "velocity": 77}, {"time": 2654, "pitch": 60, "duration": 9, "velocity": 97}, {"time": 2654, "pitch": 64, "duration": 1, "velocity": 67}, {"time": 2660, "pitch": 64, "duration": 4, "velocity": 94}, {"time": 2666, "pitch": 41, "duration": 19, "velocity": 89}, {"time": 2666, "pitch": 60, "duration": 8, "velocity": 89}, {"time": 2666, "pitch": 65, "duration": 9, "velocity": 88}, {"time": 2672, "pitch": 48, "duration": 13, "velocity": 71}, {"time": 2678, "pitch": 60, "duration": 3, "velocity": 89}, {"time": 2678, "pitch": 65, "duration": 7, "velocity": 91}, {"time": 2678, "pitch": 69, "duration": 9, "velocity": 84}, {"time": 2690, "pitch": 52, "duration": 15, "velocity": 88}, {"time": 2690, "pitch": 64, "duration": 4, "velocity": 88}, {"time": 2690, "pitch": 67, "duration": 9, "velocity": 87}, {"time": 2696, "pitch": 64, "duration": 5, "velocity": 88}, {"time": 2702, "pitch": 64, "duration": 2, "velocity": 88}, {"time": 2702, "pitch": 67, "duration": 6, "velocity": 94}, {"time": 2702, "pitch": 71, "duration": 7, "velocity": 91}, {"time": 2708, "pitch": 64, "duration": 2, "velocity": 83}, {"time": 2714, "pitch": 45, "duration": 21, "velocity": 88}, {"time": 2714, "pitch": 57, "duration": 10, "velocity": 82}, {"time": 2714, "pitch": 60, "duration": 8, "velocity": 82}, {"time": 2720, "pitch": 52, "duration": 14, "velocity": 79}, {"time": 2726, "pitch": 57, "duration": 2, "velocity": 80}, {"time": 2726, "pitch": 60, "duration": 7, "velocity": 95}, {"time": 2726, "pitch": 64, "duration": 8, "velocity": 97}, {"time": 2738, "pitch": 50, "duration": 17, "velocity": 92}, {"time": 2738, "pitch": 57, "duration": 5, "velocity": 83}, {"time": 2738, "pitch": 65, "duration": 14, "velocity": 88}, {"time": 2744, "pitch": 57, "duration": 8, "velocity": 86}, {"time": 2750, "pitch": 62, "duration": 6, "velocity": 91}, {"time": 2756, "pitch": 57, "duration": 3, "velocity": 84}, {"time": 2762, "pitch": 43, "duration": 16, "velocity": 89}, {"time": 2762, "pitch": 55, "duration": 10, "velocity": 84}, {"time": 2762, "pitch": 59, "duration": 13, "velocity": 86}, {"time": 2768, "pitch": 50, "duration": 9, "velocity": 82}, {"time": 2774, "pitch": 55, "duration": 10, "velocity": 97}, {"time": 2786, "pitch": 36, "duration": 23, "velocity": 86}, {"time": 2786, "pitch": 55, "duration": 5, "velocity": 92}, {"time": 2786, "pitch": 64, "duration": 14, "velocity": 90}, {"time": 2792, "pitch": 43, "duration": 16, "velocity": 75}, {"time": 2798, "pitch": 55, "duration": 11, "velocity": 93}, {"time": 2804, "pitch": 60, "duration": 5, "velocity": 93}, {"time": 2810, "pitch": 36, "duration": 20, "velocity": 89}, {"time": 2810, "pitch": 55, "duration": 7, "velocity": 89}, {"time": 2810, "pitch": 58, "duration": 8, "velocity": 88}, {"time": 2810, "pitch": 60, "duration": 8, "velocity": 89}, {"time": 2810, "pitch": 64, "duration": 9, "velocity": 94}, {"time": 2816, "pitch": 43, "duration": 9, "velocity": 82}, {"time": 2822, "pitch": 55, "duration": 6, "velocity": 93}, {"time": 2822, "pitch": 64, "duration": 13, "velocity": 99}, {"time": 2828, "pitch": 43, "duration": 3, "velocity": 83}, {"time": 2834, "pitch": 41, "duration": 20, "velocity": 90}, {"time": 2834, "pitch": 53, "duration": 13, "velocity": 88}, {"time": 2834, "pitch": 60, "duration": 9, "velocity": 86}, {"time": 2840, "pitch": 48, "duration": 14, "velocity": 88}, {"time": 2846, "pitch": 57, "duration": 7, "velocity": 90}, {"time": 2846, "pitch": 60, "duration": 10, "velocity": 91}, {"time": 2852, "pitch": 53, "duration": 4, "velocity": 73}, {"time": 2858, "pitch": 43, "duration": 16, "velocity": 89}, {"time": 2858, "pitch": 55, "duration": 13, "velocity": 84}, {"time": 2858, "pitch": 59, "duration": 9, "velocity": 84}, {"time": 2864, "pitch": 50, "duration": 9, "velocity": 79}, {"time": 2870, "pitch": 59, "duration": 6, "velocity": 92}, {"time": 2870, "pitch": 62, "duration": 6, "velocity": 90}, {"time": 2876, "pitch": 55, "duration": 2, "velocity": 92}, {"time": 2882, "pitch": 40, "duration": 15, "velocity": 92}, {"time": 2882, "pitch": 52, "duration": 11, "velocity": 86}, {"time": 2882, "pitch": 59, "duration": 9, "velocity": 85}, {"time": 2888, "pitch": 47, "duration": 8, "velocity": 80}, {"time": 2894, "pitch": 52, "duration": 2, "velocity": 85}, {"time": 2894, "pitch": 56, "duration": 6, "velocity": 92}, {"time": 2894, "pitch": 59, "duration": 9, "velocity": 92}, {"time": 2900, "pitch": 52, "duration": 2, "velocity": 88}, {"time": 2906, "pitch": 45, "duration": 22, "velocity": 89}, {"time": 2906, "pitch": 57, "duration": 11, "velocity": 82}, {"time": 2906, "pitch": 60, "duration": 10, "velocity": 84}, {"time": 2912, "pitch": 52, "duration": 13, "velocity": 81}, {"time": 2918, "pitch": 57, "duration": 4, "velocity": 88}, {"time": 2918, "pitch": 60, "duration": 7, "velocity": 91}, {"time": 2918, "pitch": 64, "duration": 7, "velocity": 90}, {"time": 2924, "pitch": 57, "duration": 9, "velocity": 86}, {"time": 2930, "pitch": 50, "duration": 15, "velocity": 89}, {"time": 2930, "pitch": 65, "duration": 16, "velocity": 91}, {"time": 2936, "pitch": 53, "duration": 10, "velocity": 71}, {"time": 2942, "pitch": 57, "duration": 5, "velocity": 89}, {"time": 2954, "pitch": 43, "duration": 22, "velocity": 88}, {"time": 2954, "pitch": 55, "duration": 7, "velocity": 86}, {"time": 2954, "pitch": 59, "duration": 8, "velocity": 84}, {"time": 2954, "pitch": 62, "duration": 9, "velocity": 87}, {"time": 2960, "pitch": 50, "duration": 16, "velocity": 81}, {"time": 2966, "pitch": 55, "duration": 10, "velocity": 93}, {"time": 2966, "pitch": 62, "duration": 2, "velocity": 33}, {"time": 2972, "pitch": 59, "duration": 5, "velocity": 89}, {"time": 2978, "pitch": 48, "duration": 49, "velocity": 93}, {"time": 2978, "pitch": 55, "duration": 6, "velocity": 87}, {"time": 2978, "pitch": 60, "duration": 8, "velocity": 84}, {"time": 2984, "pitch": 55, "duration": 5, "velocity": 88}, {"time": 2990, "pitch": 55, "duration": 2, "velocity": 63}, {"time": 2990, "pitch": 60, "duration": 10, "velocity": 94}, {"time": 2990, "pitch": 65, "duration": 8, "velocity": 89}, {"time": 2996, "pitch": 55, "duration": 8, "velocity": 92}, {"time": 3002, "pitch": 60, "duration": 8, "velocity": 70}, {"time": 3002, "pitch": 64, "duration": 9, "velocity": 85}, {"time": 3008, "pitch": 55, "duration": 5, "velocity": 81}, {"time": 3014, "pitch": 55, "duration": 4, "velocity": 84}, {"time": 3014, "pitch": 62, "duration": 12, "velocity": 84}, {"time": 3020, "pitch": 55, "duration": 6, "velocity": 88}, {"time": 3026, "pitch": 48, "duration": 1, "velocity": 90}, {"time": 3026, "pitch": 60, "duration": 8, "velocity": 83}, {"time": 3026, "pitch": 64, "duration": 10, "velocity": 89}, {"time": 3026, "pitch": 67, "duration": 14, "velocity": 84}, {"time": 3032, "pitch": 55, "duration": 8, "velocity": 77}, {"time": 3038, "pitch": 60, "duration": 9, "velocity": 97}, {"time": 3038, "pitch": 64, "duration": 1, "velocity": 67}, {"time": 3044, "pitch": 64, "duration": 4, "velocity": 94}, {"time": 3050, "pitch": 41, "duration": 19, "velocity": 89}, {"time": 3050, "pitch": 60, "duration": 8, "velocity": 89}, {"time": 3050, "pitch": 65, "duration": 9, "velocity": 88}, {"time": 3056, "pitch": 48, "duration": 13, "velocity": 71}, {"time": 3062, "pitch": 60, "duration": 3, "velocity": 89}, {"time": 3062, "pitch": 65, "duration": 7, "velocity": 91}, {"time": 3062, "pitch": 69, "duration": 9, "velocity": 84}, {"time": 3074, "pitch": 52, "duration": 15, "velocity": 88}, {"time": 3074, "pitch": 64, "duration": 4, "velocity": 88}, {"time": 3074, "pitch": 67, "duration": 9, "velocity": 87}, {"time": 3080, "pitch": 64, "duration": 5, "velocity": 88}, {"time": 3086, "pitch": 64, "duration": 2, "velocity": 88}, {"time": 3086, "pitch": 67, "duration": 6, "velocity": 94}, {"time": 3086, "pitch": 71, "duration": 7, "velocity": 91}, {"time": 3092, "pitch": 64, "duration": 2, "velocity": 83}, {"time": 3098, "pitch": 45, "duration": 21, "velocity": 88}, {"time": 3098, "pitch": 57, "duration": 10, "velocity": 82}, {"time": 3098, "pitch": 60, "duration": 8, "velocity": 82}, {"time": 3104, "pitch": 52, "duration": 14, "velocity": 79}, {"time": 3110, "pitch": 57, "duration": 2, "velocity": 80}, {"time": 3110, "pitch": 60, "duration": 7, "velocity": 95}, {"time": 3110, "pitch": 64, "duration": 8, "velocity": 97}, {"time": 3122, "pitch": 50, "duration": 17, "velocity": 92}, {"time": 3122, "pitch": 57, "duration": 5, "velocity": 83}, {"time": 3122, "pitch": 65, "duration": 14, "velocity": 88}, {"time": 3128, "pitch": 57, "duration": 8, "velocity": 86}, {"time": 3134, "pitch": 62, "duration": 6, "velocity": 91}, {"time": 3140, "pitch": 57, "duration": 3, "velocity": 84}, {"time": 3146, "pitch": 43, "duration": 16, "velocity": 89}, {"time": 3146, "pitch": 55, "duration": 10, "velocity": 84}, {"time": 3146, "pitch": 59, "duration": 13, "velocity": 86}, {"time": 3152, "pitch": 50, "duration": 9, "velocity": 82}, {"time": 3158, "pitch": 55, "duration": 10, "velocity": 97}, {"time": 3170, "pitch": 36, "duration": 23, "velocity": 86}, {"time": 3170, "pitch": 55, "duration": 5, "velocity": 92}, {"time": 3170, "pitch": 64, "duration": 14, "velocity": 90}, {"time": 3176, "pitch": 43, "duration": 16, "velocity": 75}, {"time": 3182, "pitch": 55, "duration": 11, "velocity": 93}, {"time": 3188, "pitch": 60, "duration": 5, "velocity": 93}, {"time": 3194, "pitch": 36, "duration": 20, "velocity": 89}, {"time": 3194, "pitch": 55, "duration": 7, "velocity": 89}, {"time": 3194, "pitch": 58, "duration": 8, "velocity": 88}, {"time": 3194, "pitch": 60, "duration": 8, "velocity": 89}, {"time": 3194, "pitch": 64, "duration": 9, "velocity": 94}, {"time": 3200, "pitch": 43, "duration": 9, "velocity": 82}, {"time": 3206, "pitch": 55, "duration": 6, "velocity": 93}, {"time": 3206, "pitch": 64, "duration": 13, "velocity": 99}, {"time": 3212, "pitch": 43, "duration": 3, "velocity": 83}, {"time": 3218, "pitch": 41, "duration": 20, "velocity": 90}, {"time": 3218, "pitch": 53, "duration": 13, "velocity": 88}, {"time": 3218, "pitch": 60, "duration": 9, "velocity": 86}, {"time": 3224, "pitch": 48, "duration": 14, "velocity": 88}, {"time": 3230, "pitch": 57, "duration": 7, "velocity": 90}, {"time": 3230, "pitch": 60, "duration": 10, "velocity": 91}, {"time": 3236, "pitch": 53, "duration": 4, "velocity": 73}, {"time": 3242, "pitch": 43, "duration": 16, "velocity": 89}, {"time": 3242, "pitch": 55, "duration": 13, "velocity": 84}, {"time": 3242, "pitch": 59, "duration": 9, "velocity": 84}, {"time": 3248, "pitch": 50, "duration": 9, "velocity": 79}, {"time": 3254, "pitch": 59, "duration": 6, "velocity": 92}, {"time": 3254, "pitch": 62, "duration": 6, "velocity": 90}, {"time": 3260, "pitch": 55, "duration": 2, "velocity": 92}, {"time": 3266, "pitch": 40, "duration": 15, "velocity": 92}, {"time": 3266, "pitch": 52, "duration": 11, "velocity": 86}, {"time": 3266, "pitch": 59, "duration": 9, "velocity": 85}, {"time": 3272, "pitch": 47, "duration": 8, "velocity": 80}, {"time": 3278, "pitch": 52, "duration": 2, "velocity": 85}, {"time": 3278, "pitch": 56, "duration": 6, "velocity": 92}, {"time": 3278, "pitch": 59, "duration": 9, "velocity": 92}, {"time": 3284, "pitch": 52, "duration": 2, "velocity": 88}, {"time": 3290, "pitch": 45, "duration": 22, "velocity": 89}, {"time": 3290, "pitch": 57, "duration": 11, "velocity": 82}, {"time": 3290, "pitch": 60, "duration": 10, "velocity": 84}, {"time": 3296, "pitch": 52, "duration": 13, "velocity": 81}, {"time": 3302, "pitch": 57, "duration": 4, "velocity": 88}, {"time": 3302, "pitch": 60, "duration": 7, "velocity": 91}, {"time": 3302, "pitch": 64, "duration": 7, "velocity": 90}, {"time": 3308, "pitch": 57, "duration": 9, "velocity": 86}, {"time": 3314, "pitch": 50, "duration": 15, "velocity": 89}, {"time": 3314, "pitch": 65, "duration": 16, "velocity": 91}, {"time": 3320, "pitch": 53, "duration": 10, "velocity": 71}, {"time": 3326, "pitch": 57, "duration": 5, "velocity": 89}, {"time": 3338, "pitch": 43, "duration": 22, "velocity": 88}, {"time": 3338, "pitch": 55, "duration": 7, "velocity": 86}, {"time": 3338, "pitch": 59, "duration": 8, "velocity": 84}, {"time": 3338, "pitch": 62, "duration": 9, "velocity": 87}, {"time": 3344, "pitch": 50, "duration": 16, "velocity": 81}, {"time": 3350, "pitch": 55, "duration": 10, "velocity": 93}, {"time": 3350, "pitch": 62, "duration": 2, "velocity": 33}, {"time": 3356, "pitch": 59, "duration": 5, "velocity": 89}, {"time": 3362, "pitch": 48, "duration": 49, "velocity": 93}, {"time": 3362, "pitch": 55, "duration": 6, "velocity": 87}, {"time": 3362, "pitch": 60, "duration": 8, "velocity": 84}, {"time": 3368, "pitch": 55, "duration": 5, "velocity": 88}, {"time": 3374, "pitch": 55, "duration": 2, "velocity": 63}, {"time": 3374, "pitch": 60, "duration": 10, "velocity": 94}, {"time": 3374, "pitch": 65, "duration": 8, "velocity": 89}, {"time": 3380, "pitch": 55, "duration": 8, "velocity": 92}, {"time": 3386, "pitch": 60, "duration": 8, "velocity": 70}, {"time": 3386, "pitch": 64, "duration": 9, "velocity": 85}, {"time": 3392, "pitch": 55, "duration": 5, "velocity": 81}, {"time": 3398, "pitch": 55, "duration": 4, "velocity": 84}, {"time": 3398, "pitch": 62, "duration": 12, "velocity": 84}, {"time": 3404, "pitch": 55, "duration": 6, "velocity": 88}, {"time": 3410, "pitch": 41, "duration": 20, "velocity": 90}, {"time": 3410, "pitch": 53, "duration": 13, "velocity": 88}, {"time": 3410, "pitch": 60, "duration": 9, "velocity": 86}, {"time": 3416, "pitch": 48, "duration": 14, "velocity": 88}, {"time": 3422, "pitch": 57, "duration": 7, "velocity": 90}, {"time": 3422, "pitch": 60, "duration": 10, "velocity": 91}, {"time": 3428, "pitch": 53, "duration": 4, "velocity": 73}, {"time": 3434, "pitch": 43, "duration": 16, "velocity": 89}, {"time": 3434, "pitch": 55, "duration": 13, "velocity": 84}, {"time": 3434, "pitch": 59, "duration": 9, "velocity": 84}, {"time": 3440, "pitch": 50, "duration": 9, "velocity": 79}, {"time": 3446, "pitch": 59, "duration": 6, "velocity": 92}, {"time": 3446, "pitch": 62, "duration": 6, "velocity": 90}, {"time": 3452, "pitch": 55, "duration": 2, "velocity": 92}, {"time": 3458, "pitch": 40, "duration": 15, "velocity": 92}, {"time": 3458, "pitch": 52, "duration": 11, "velocity": 86}, {"time": 3458, "pitch": 59, "duration": 9, "velocity": 85}, {"time": 3464, "pitch": 47, "duration": 8, "velocity": 80}, {"time": 3470, "pitch": 52, "duration": 2, "velocity": 85}, {"time": 3470, "pitch": 56, "duration": 6, "velocity": 92}, {"time": 3470, "pitch": 59, "duration": 9, "velocity": 92}, {"time": 3476, "pitch": 52, "duration": 2, "velocity": 88}, {"time": 3482, "pitch": 45, "duration": 22, "velocity": 89}, {"time": 3482, "pitch": 57, "duration": 11, "velocity": 82}, {"time": 3482, "pitch": 60, "duration": 10, "velocity": 84}, {"time": 3488, "pitch": 52, "duration": 13, "velocity": 81}, {"time": 3494, "pitch": 57, "duration": 4, "velocity": 88}, {"time": 3494, "pitch": 60, "duration": 7, "velocity": 91}, {"time": 3494, "pitch": 64, "duration": 7, "velocity": 90}, {"time": 3500, "pitch": 57, "duration": 9, "velocity": 86}, {"time": 3506, "pitch": 50, "duration": 15, "velocity": 89}, {"time": 3506, "pitch": 65, "duration": 16, "velocity": 91}, {"time": 3512, "pitch": 53, "duration": 10, "velocity": 71}, {"time": 3518, "pitch": 57, "duration": 5, "velocity": 89}, {"time": 3530, "pitch": 43, "duration": 22, "velocity": 88}, {"time": 3530, "pitch": 55, "duration": 7, "velocity": 86}, {"time": 3530, "pitch": 59, "duration": 8, "velocity": 84}, {"time": 3530, "pitch": 62, "duration": 9, "velocity": 87}, {"time": 3536, "pitch": 50, "duration": 16, "velocity": 81}, {"time": 3542, "pitch": 55, "duration": 10, "velocity": 93}, {"time": 3542, "pitch": 62, "duration": 2, "velocity": 33}, {"time": 3548, "pitch": 59, "duration": 5, "velocity": 89}, {"time": 3554, "pitch": 48, "duration": 49, "velocity": 93}, {"time": 3554, "pitch": 55, "duration": 6, "velocity": 87}, {"time": 3554, "pitch": 60, "duration": 8, "velocity": 84}, {"time": 3560, "pitch": 55, "duration": 5, "velocity": 88}, {"time": 3566, "pitch": 55, "duration": 2, "velocity": 63}, {"time": 3566, "pitch": 60, "duration": 10, "velocity": 94}, {"time": 3566, "pitch": 65, "duration": 8, "velocity": 89}, {"time": 3572, "pitch": 55, "duration": 8, "velocity": 92}, {"time": 3578, "pitch": 60, "duration": 8, "velocity": 70}, {"time": 3578, "pitch": 64, "duration": 9, "velocity": 85}, {"time": 3584, "pitch": 55, "duration": 5, "velocity": 81}, {"time": 3590, "pitch": 55, "duration": 4, "velocity": 84}, {"time": 3590, "pitch": 62, "duration": 12, "velocity": 84}, {"time": 3596, "pitch": 55, "duration": 6, "velocity": 88}, {"time": 3602, "pitch": 41, "duration": 21, "velocity": 87}, {"time": 3602, "pitch": 53, "duration": 9, "velocity": 80}, {"time": 3602, "pitch": 60, "duration": 17, "velocity": 83}, {"time": 3608, "pitch": 48, "duration": 15, "velocity": 68}, {"time": 3614, "pitch": 53, "duration": 6, "velocity": 77}, {"time": 3626, "pitch": 43, "duration": 18, "velocity": 88}, {"time": 3626, "pitch": 55, "duration": 8, "velocity": 84}, {"time": 3626, "pitch": 59, "duration": 12, "velocity": 85}, {"time": 3632, "pitch": 50, "duration": 12, "velocity": 74}, {"time": 3638, "pitch": 55, "duration": 6, "velocity": 84}, {"time": 3650, "pitch": 45, "duration": 42, "velocity": 88}, {"time": 3650, "pitch": 57, "duration": 8, "velocity": 78}, {"time": 3650, "pitch": 60, "duration": 9, "velocity": 83}, {"time": 3656, "pitch": 52, "duration": 9, "velocity": 73}, {"time": 3662, "pitch": 57, "duration": 10, "velocity": 88}, {"time": 3668, "pitch": 52, "duration": 23, "velocity": 74}, {"time": 3674, "pitch": 57, "duration": 9, "velocity": 81}, {"time": 3674, "pitch": 60, "duration": 8, "velocity": 82}, {"time": 3674, "pitch": 64, "duration": 7, "velocity": 85}, {"time": 3686, "pitch": 57, "duration": 5, "velocity": 84}, {"time": 3686, "pitch": 60, "duration": 5, "velocity": 88}, {"time": 3698, "pitch": 41, "duration": 18, "velocity": 88}, {"time": 3698, "pitch": 53, "duration": 8, "velocity": 76}, {"time": 3698, "pitch": 57, "duration": 12, "velocity": 79}, {"time": 3704, "pitch": 48, "duration": 12, "velocity": 71}, {"time": 3710, "pitch": 53, "duration": 7, "velocity": 88}, {"time": 3722, "pitch": 43, "duration": 21, "velocity": 88}, {"time": 3722, "pitch": 55, "duration": 9, "velocity": 83}, {"time": 3722, "pitch": 59, "duration": 10, "velocity": 82}, {"time": 3728, "pitch": 50, "duration": 15, "velocity": 77}, {"time": 3734, "pitch": 55, "duration": 7, "velocity": 84}, {"time": 3740, "pitch": 59, "duration": 5, "velocity": 83}, {"time": 3746, "pitch": 48, "duration": 39, "velocity": 85}, {"time": 3746, "pitch": 55, "duration": 9, "velocity": 84}, {"time": 3746, "pitch": 60, "duration": 13, "velocity": 84}, {"time": 3752, "pitch": 52, "duration": 33, "velocity": 78}, {"time": 3758, "pitch": 55, "duration": 8, "velocity": 90}, {"time": 3770, "pitch": 55, "duration": 4, "velocity": 83}, {"time": 3770, "pitch": 60, "duration": 8, "velocity": 84}, {"time": 3770, "pitch": 64, "duration": 8, "velocity": 87}, {"time": 3776, "pitch": 55, "duration": 10, "velocity": 81}, {"time": 3782, "pitch": 60, "duration": 4, "velocity": 83}, {"time": 3794, "pitch": 41, "duration": 21, "velocity": 85}, {"time": 3794, "pitch": 53, "duration": 9, "velocity": 82}, {"time": 3794, "pitch": 60, "duration": 13, "velocity": 85}, {"time": 3800, "pitch": 48, "duration": 16, "velocity": 78}, {"time": 3806, "pitch": 53, "duration": 6, "velocity": 86}, {"time": 3818, "pitch": 43, "duration": 20, "velocity": 88}, {"time": 3818, "pitch": 55, "duration": 8, "velocity": 83}, {"time": 3818, "pitch": 59, "duration": 13, "velocity": 83}, {"time": 3824, "pitch": 50, "duration": 16, "velocity": 79}, {"time": 3830, "pitch": 55, "duration": 8, "velocity": 89}, {"time": 3836, "pitch": 59, "duration": 7, "velocity": 88}, {"time": 3842, "pitch": 45, "duration": 9, "velocity": 88}, {"time": 3842, "pitch": 57, "duration": 8, "velocity": 79}, {"time": 3842, "pitch": 60, "duration": 9, "velocity": 85}, {"time": 3854, "pitch": 43, "duration": 12, "velocity": 87}, {"time": 3854, "pitch": 55, "duration": 13, "velocity": 83}, {"time": 3854, "pitch": 59, "duration": 9, "velocity": 88}, {"time": 3866, "pitch": 42, "duration": 21, "velocity": 83}, {"time": 3866, "pitch": 54, "duration": 22, "velocity": 74}, {"time": 3866, "pitch": 57, "duration": 22, "velocity": 79}, {"time": 3888, "pitch": 57, "duration": 1, "velocity": 74}, {"time": 3889, "pitch": 62, "duration": 14, "velocity": 76}, {"time": 3889, "pitch": 50, "duration": 15, "velocity": 82}, {"time": 3890, "pitch": 65, "duration": 14, "velocity": 81}, {"time": 3912, "pitch": 55, "duration": 25, "velocity": 74}, {"time": 3914, "pitch": 59, "duration": 23, "velocity": 82}, {"time": 3915, "pitch": 43, "duration": 23, "velocity": 85}, {"time": 3915, "pitch": 62, "duration": 22, "velocity": 70}, {"time": 3916, "pitch": 67, "duration": 22, "velocity": 80}, {"time": 3944, "pitch": 41, "duration": 5, "velocity": 90}, {"time": 3947, "pitch": 48, "duration": 3, "velocity": 76}, {"time": 3949, "pitch": 53, "duration": 3, "velocity": 77}, {"time": 3951, "pitch": 57, "duration": 3, "velocity": 76}, {"time": 3953, "pitch": 60, "duration": 2, "velocity": 77}, {"time": 3956, "pitch": 53, "duration": 79, "velocity": 89}, {"time": 3959, "pitch": 60, "duration": 76, "velocity": 80}, {"time": 3963, "pitch": 64, "duration": 4, "velocity": 88}, {"time": 3968, "pitch": 69, "duration": 6, "velocity": 84}, {"time": 3977, "pitch": 67, "duration": 5, "velocity": 76}, {"time": 3985, "pitch": 69, "duration": 11, "velocity": 69}, {"time": 4007, "pitch": 64, "duration": 2, "velocity": 79}, {"time": 4010, "pitch": 76, "duration": 3, "velocity": 88}, {"time": 4015, "pitch": 74, "duration": 3, "velocity": 83}, {"time": 4019, "pitch": 79, "duration": 3, "velocity": 77}, {"time": 4024, "pitch": 76, "duration": 22, "velocity": 73}], "annotations": [{"time": 56, "annotation": {"number": 64, "value": 127}, "group": "control_change"}, {"time": 72, "annotation": {"number": 64, "value": 0}, "group": "control_change"}, {"time": 80, "annotation": {"number": 64, "value": 127}, "group": "control_change"}, {"time": 80, "annotation": {"number": 64, "value": 0}, "group": "control_change"}, {"time": 96, "annotation": {"number": 64, "value": 0}, "group": "control_change"}, {"time": 103, "annotation": {"number": 64, "value": 127}, "group": "control_change"}, {"time": 147, "annotation": {"number": 64, "value": 0}, "group": "control_change"}, {"time": 154, "annotation": {"number": 64, "value": 127}, "group": "control_change"}, {"time": 169, "annotation": {"number": 64, "value": 0}, "group": "control_change"}, {"time": 176, "annotation": {"number": 64, "value": 127}, "group": "control_change"}, {"time": 193, "annotation": {"number": 64, "value": 0}, "group": "control_change"}, {"time": 200, "annotation": {"number": 64, "value": 127}, "group": "control_change"}, {"time": 200, "annotation": {"number": 64, "value": 0}, "group": "control_change"}, {"time": 201, "annotation": {"number": 64, "value": 127}, "group": "control_change"}, {"time": 240, "annotation": {"number": 64, "value": 0}, "group": "control_change"}, {"time": 249, "annotation": {"number": 64, "value": 127}, "group": "control_change"}, {"time": 265, "annotation": {"number": 64, "value": 0}, "group": "control_change"}, {"time": 271, "annotation": {"number": 64, "value": 127}, "group": "control_change"}, {"time": 289, "annotation": {"number": 64, "value": 0}, "group": "control_change"}, {"time": 289, "annotation": {"number": 64, "value": 127}, "group": "control_change"}, {"time": 302, "annotation": {"number": 64, "value": 0}, "group": "control_change"}, {"time": 305, "annotation": {"number": 64, "value": 127}, "group": "control_change"}, {"time": 314, "annotation": {"number": 64, "value": 0}, "group": "control_change"}, {"time": 318, "annotation": {"number": 64, "value": 127}, "group": "control_change"}, {"time": 336, "annotation": {"number": 64, "value": 0}, "group": "control_change"}, {"time": 349, "annotation": {"number": 64, "value": 127}, "group": "control_change"}, {"time": 360, "annotation": {"number": 64, "value": 0}, "group": "control_change"}, {"time": 363, "annotation": {"number": 64, "value": 127}, "group": "control_change"}, {"time": 385, "annotation": {"number": 64, "value": 0}, "group": "control_change"}, {"time": 388, "annotation": {"number": 64, "value": 127}, "group": "control_change"}, {"time": 431, "annotation": {"number": 64, "value": 0}, "group": "control_change"}, {"time": 440, "annotation": {"number": 64, "value": 127}, "group": "control_change"}, {"time": 458, "annotation": {"number": 64, "value": 0}, "group": "control_change"}, {"time": 464, "annotation": {"number": 64, "value": 127}, "group": "control_change"}, {"time": 481, "annotation": {"number": 64, "value": 0}, "group": "control_change"}, {"time": 488, "annotation": {"number": 64, "value": 127}, "group": "control_change"}, {"time": 529, "annotation": {"number": 64, "value": 0}, "group": "control_change"}, {"time": 536, "annotation": {"number": 64, "value": 127}, "group": "control_change"}, {"time": 553, "annotation": {"number": 64, "value": 0}, "group": "control_change"}, {"time": 560, "annotation": {"number": 64, "value": 127}, "group": "control_change"}, {"time": 577, "annotation": {"number": 64, "value": 0}, "group": "control_change"}, {"time": 584, "annotation": {"number": 64, "value": 127}, "group": "control_change"}, {"time": 625, "annotation": {"number": 64, "value": 0}, "group": "control_change"}, {"time": 632, "annotation": {"number": 64, "value": 127}, "group": "control_change"}, {"time": 651, "annotation": {"number": 64, "value": 0}, "group": "control_change"}, {"time": 657, "annotation": {"number": 64, "value": 127}, "group": "control_change"}, {"time": 672, "annotation": {"number": 64, "value": 0}, "group": "control_change"}, {"time": 678, "annotation": {"number": 64, "value": 127}, "group": "control_change"}, {"time": 686, "annotation": {"number": 64, "value": 0}, "group": "control_change"}, {"time": 713, "annotation": {"number": 64, "value": 127}, "group": "control_change"}, {"time": 715, "annotation": {"number": 64, "value": 0}, "group": "control_change"}, {"time": 745, "annotation": {"number": 64, "value": 127}, "group": "control_change"}, {"time": 768, "annotation": {"number": 64, "value": 0}, "group": "control_change"}, {"time": 776, "annotation": {"number": 64, "value": 127}, "group": "control_change"}, {"time": 813, "annotation": {"number": 64, "value": 0}, "group": "control_change"}, {"time": 824, "annotation": {"number": 64, "value": 127}, "group": "control_change"}, {"time": 842, "annotation": {"number": 64, "value": 0}, "group": "control_change"}, {"time": 848, "annotation": {"number": 64, "value": 127}, "group": "control_change"}, {"time": 865, "annotation": {"number": 64, "value": 0}, "group": "control_change"}, {"time": 872, "annotation": {"number": 64, "value": 127}, "group": "control_change"}, {"time": 913, "annotation": {"number": 64, "value": 0}, "group": "control_change"}, {"time": 920, "annotation": {"number": 64, "value": 127}, "group": "control_change"}, {"time": 937, "annotation": {"number": 64, "value": 0}, "group": "control_change"}, {"time": 944, "annotation": {"number": 64, "value": 127}, "group": "control_change"}, {"time": 961, "annotation": {"number": 64, "value": 0}, "group": "control_change"}, {"time": 968, "annotation": {"number": 64, "value": 127}, "group": "control_change"}, {"time": 1009, "annotation": {"number": 64, "value": 0}, "group": "control_change"}, {"time": 1016, "annotation": {"number": 64, "value": 127}, "group": "control_change"}, {"time": 1035, "annotation": {"number": 64, "value": 0}, "group": "control_change"}, {"time": 1041, "annotation": {"number": 64, "value": 127}, "group": "control_change"}, {"time": 1056, "annotation": {"number": 64, "value": 0}, "group": "control_change"}, {"time": 1062, "annotation": {"number": 64, "value": 127}, "group": "control_change"}, {"time": 1070, "annotation": {"number": 64, "value": 0}, "group": "control_change"}, {"time": 1097, "annotation": {"number": 64, "value": 127}, "group": "control_change"}, {"time": 1099, "annotation": {"number": 64, "value": 0}, "group": "control_change"}, {"time": 1112, "annotation": {"number": 64, "value": 127}, "group": "control_change"}, {"time": 1128, "annotation": {"number": 64, "value": 0}, "group": "control_change"}, {"time": 1135, "annotation": {"number": 64, "value": 127}, "group": "control_change"}, {"time": 1151, "annotation": {"number": 64, "value": 0}, "group": "control_change"}, {"time": 1154, "annotation": {"number": 64, "value": 127}, "group": "control_change"}, {"time": 1202, "annotation": {"number": 64, "value": 0}, "group": "control_change"}, {"time": 1205, "annotation": {"number": 64, "value": 127}, "group": "control_change"}, {"time": 1247, "annotation": {"number": 64, "value": 0}, "group": "control_change"}, {"time": 1252, "annotation": {"number": 64, "value": 127}, "group": "control_change"}, {"time": 1272, "annotation": {"number": 64, "value": 0}, "group": "control_change"}, {"time": 1276, "annotation": {"number": 64, "value": 127}, "group": "control_change"}, {"time": 1298, "annotation": {"number": 64, "value": 0}, "group": "control_change"}, {"time": 1302, "annotation": {"number": 64, "value": 127}, "group": "control_change"}, {"time": 1322, "annotation": {"number": 64, "value": 0}, "group": "control_change"}, {"time": 1328, "annotation": {"number": 64, "value": 127}, "group": "control_change"}, {"time": 1346, "annotation": {"number": 64, "value": 0}, "group": "control_change"}, {"time": 1349, "annotation": {"number": 64, "value": 127}, "group": "control_change"}, {"time": 1351, "annotation": {"number": 64, "value": 127}, "group": "control_change"}, {"time": 1358, "annotation": {"number": 64, "value": 0}, "group": "control_change"}, {"time": 1371, "annotation": {"number": 64, "value": 0}, "group": "control_change"}, {"time": 1376, "annotation": {"number": 64, "value": 127}, "group": "control_change"}, {"time": 1391, "annotation": {"number": 64, "value": 0}, "group": "control_change"}, {"time": 1395, "annotation": {"number": 64, "value": 127}, "group": "control_change"}, {"time": 1417, "annotation": {"number": 64, "value": 0}, "group": "control_change"}, {"time": 1419, "annotation": {"number": 64, "value": 127}, "group": "control_change"}, {"time": 1442, "annotation": {"number": 64, "value": 0}, "group": "control_change"}, {"time": 1443, "annotation": {"number": 64, "value": 127}, "group": "control_change"}, {"time": 1467, "annotation": {"number": 64, "value": 0}, "group": "control_change"}, {"time": 1473, "annotation": {"number": 64, "value": 127}, "group": "control_change"}, {"time": 1490, "annotation": {"number": 64, "value": 0}, "group": "control_change"}, {"time": 1495, "annotation": {"number": 64, "value": 127}, "group": "control_change"}, {"time": 1515, "annotation": {"number": 64, "value": 0}, "group": "control_change"}, {"time": 1520, "annotation": {"number": 64, "value": 127}, "group": "control_change"}, {"time": 1536, "annotation": {"number": 64, "value": 0}, "group": "control_change"}, {"time": 1542, "annotation": {"number": 64, "value": 127}, "group": "control_change"}, {"time": 1560, "annotation": {"number": 64, "value": 0}, "group": "control_change"}, {"time": 1567, "annotation": {"number": 64, "value": 127}, "group": "control_change"}, {"time": 1586, "annotation": {"number": 64, "value": 0}, "group": "control_change"}, {"time": 1589, "annotation": {"number": 64, "value": 127}, "group": "control_change"}, {"time": 1633, "annotation": {"number": 64, "value": 0}, "group": "control_change"}, {"time": 1640, "annotation": {"number": 64, "value": 127}, "group": "control_change"}, {"time": 1656, "annotation": {"number": 64, "value": 0}, "group": "control_change"}, {"time": 1664, "annotation": {"number": 64, "value": 127}, "group": "control_change"}, {"time": 1664, "annotation": {"number": 64, "value": 0}, "group": "control_change"}, {"time": 1680, "annotation": {"number": 64, "value": 0}, "group": "control_change"}, {"time": 1687, "annotation": {"number": 64, "value": 127}, "group": "control_change"}, {"time": 1732, "annotation": {"number": 64, "value": 127}, "group": "control_change"}, {"time": 1755, "annotation": {"number": 64, "value": 0}, "group": "control_change"}, {"time": 1760, "annotation": {"number": 64, "value": 127}, "group": "control_change"}, {"time": 1777, "annotation": {"number": 64, "value": 0}, "group": "control_change"}, {"time": 1782, "annotation": {"number": 64, "value": 127}, "group": "control_change"}, {"time": 1799, "annotation": {"number": 64, "value": 0}, "group": "control_change"}, {"time": 1802, "annotation": {"number": 64, "value": 127}, "group": "control_change"}, {"time": 1824, "annotation": {"number": 64, "value": 0}, "group": "control_change"}, {"time": 1832, "annotation": {"number": 64, "value": 127}, "group": "control_change"}, {"time": 1850, "annotation": {"number": 64, "value": 0}, "group": "control_change"}, {"time": 1856, "annotation": {"number": 64, "value": 127}, "group": "control_change"}, {"time": 1873, "annotation": {"number": 64, "value": 0}, "group": "control_change"}, {"time": 1880, "annotation": {"number": 64, "value": 127}, "group": "control_change"}, {"time": 1921, "annotation": {"number": 64, "value": 0}, "group": "control_change"}, {"time": 1928, "annotation": {"number": 64, "value": 127}, "group": "control_change"}, {"time": 1945, "annotation": {"number": 64, "value": 0}, "group": "control_change"}, {"time": 1952, "annotation": {"number": 64, "value": 127}, "group": "control_change"}, {"time": 1969, "annotation": {"number": 64, "value": 0}, "group": "control_change"}, {"time": 1976, "annotation": {"number": 64, "value": 127}, "group": "control_change"}, {"time": 2017, "annotation": {"number": 64, "value": 0}, "group": "control_change"}, {"time": 2024, "annotation": {"number": 64, "value": 127}, "group": "control_change"}, {"time": 2043, "annotation": {"number": 64, "value": 0}, "group": "control_change"}, {"time": 2049, "annotation": {"number": 64, "value": 127}, "group": "control_change"}, {"time": 2064, "annotation": {"number": 64, "value": 0}, "group": "control_change"}, {"time": 2070, "annotation": {"number": 64, "value": 127}, "group": "control_change"}, {"time": 2078, "annotation": {"number": 64, "value": 0}, "group": "control_change"}, {"time": 2105, "annotation": {"number": 64, "value": 127}, "group": "control_change"}, {"time": 2107, "annotation": {"number": 64, "value": 0}, "group": "control_change"}, {"time": 2137, "annotation": {"number": 64, "value": 127}, "group": "control_change"}, {"time": 2160, "annotation": {"number": 64, "value": 0}, "group": "control_change"}, {"time": 2168, "annotation": {"number": 64, "value": 127}, "group": "control_change"}, {"time": 2205, "annotation": {"number": 64, "value": 0}, "group": "control_change"}, {"time": 2216, "annotation": {"number": 64, "value": 127}, "group": "control_change"}, {"time": 2234, "annotation": {"number": 64, "value": 0}, "group": "control_change"}, {"time": 2240, "annotation": {"number": 64, "value": 127}, "group": "control_change"}, {"time": 2257, "annotation": {"number": 64, "value": 0}, "group": "control_change"}, {"time": 2264, "annotation": {"number": 64, "value": 127}, "group": "control_change"}, {"time": 2305, "annotation": {"number": 64, "value": 0}, "group": "control_change"}, {"time": 2312, "annotation": {"number": 64, "value": 127}, "group": "control_change"}, {"time": 2329, "annotation": {"number": 64, "value": 0}, "group": "control_change"}, {"time": 2336, "annotation": {"number": 64, "value": 127}, "group": "control_change"}, {"time": 2353, "annotation": {"number": 64, "value": 0}, "group": "control_change"}, {"time": 2360, "annotation": {"number": 64, "value": 127}, "group": "control_change"}, {"time": 2401, "annotation": {"number": 64, "value": 0}, "group": "control_change"}, {"time": 2408, "annotation": {"number": 64, "value": 127}, "group": "control_change"}, {"time": 2427, "annotation": {"number": 64, "value": 0}, "group": "control_change"}, {"time": 2433, "annotation": {"number": 64, "value": 127}, "group": "control_change"}, {"time": 2448, "annotation": {"number": 64, "value": 0}, "group": "control_change"}, {"time": 2454, "annotation": {"number": 64, "value": 127}, "group": "control_change"}, {"time": 2462, "annotation": {"number": 64, "value": 0}, "group": "control_change"}, {"time": 2489, "annotation": {"number": 64, "value": 127}, "group": "control_change"}, {"time": 2491, "annotation": {"number": 64, "value": 0}, "group": "control_change"}, {"time": 2504, "annotation": {"number": 64, "value": 127}, "group": "control_change"}, {"time": 2520, "annotation": {"number": 64, "value": 0}, "group": "control_change"}, {"time": 2527, "annotation": {"number": 64, "value": 127}, "group": "control_change"}, {"time": 2543, "annotation": {"number": 64, "value": 0}, "group": "control_change"}, {"time": 2546, "annotation": {"number": 64, "value": 127}, "group": "control_change"}, {"time": 2594, "annotation": {"number": 64, "value": 0}, "group": "control_change"}, {"time": 2597, "annotation": {"number": 64, "value": 127}, "group": "control_change"}, {"time": 2639, "annotation": {"number": 64, "value": 0}, "group": "control_change"}, {"time": 2644, "annotation": {"number": 64, "value": 127}, "group": "control_change"}, {"time": 2664, "annotation": {"number": 64, "value": 0}, "group": "control_change"}, {"time": 2668, "annotation": {"number": 64, "value": 127}, "group": "control_change"}, {"time": 2690, "annotation": {"number": 64, "value": 0}, "group": "control_change"}, {"time": 2694, "annotation": {"number": 64, "value": 127}, "group": "control_change"}, {"time": 2714, "annotation": {"number": 64, "value": 0}, "group": "control_change"}, {"time": 2720, "annotation": {"number": 64, "value": 127}, "group": "control_change"}, {"time": 2738, "annotation": {"number": 64, "value": 0}, "group": "control_change"}, {"time": 2741, "annotation": {"number": 64, "value": 127}, "group": "control_change"}, {"time": 2743, "annotation": {"number": 64, "value": 127}, "group": "control_change"}, {"time": 2750, "annotation": {"number": 64, "value": 0}, "group": "control_change"}, {"time": 2763, "annotation": {"number": 64, "value": 0}, "group": "control_change"}, {"time": 2768, "annotation": {"number": 64, "value": 127}, "group": "control_change"}, {"time": 2783, "annotation": {"number": 64, "value": 0}, "group": "control_change"}, {"time": 2787, "annotation": {"number": 64, "value": 127}, "group": "control_change"}, {"time": 2809, "annotation": {"number": 64, "value": 0}, "group": "control_change"}, {"time": 2811, "annotation": {"number": 64, "value": 127}, "group": "control_change"}, {"time": 2834, "annotation": {"number": 64, "value": 0}, "group": "control_change"}, {"time": 2835, "annotation": {"number": 64, "value": 127}, "group": "control_change"}, {"time": 2859, "annotation": {"number": 64, "value": 0}, "group": "control_change"}, {"time": 2865, "annotation": {"number": 64, "value": 127}, "group": "control_change"}, {"time": 2882, "annotation": {"number": 64, "value": 0}, "group": "control_change"}, {"time": 2887, "annotation": {"number": 64, "value": 127}, "group": "control_change"}, {"time": 2907, "annotation": {"number": 64, "value": 0}, "group": "control_change"}, {"time": 2912, "annotation": {"number": 64, "value": 127}, "group": "control_change"}, {"time": 2928, "annotation": {"number": 64, "value": 0}, "group": "control_change"}, {"time": 2934, "annotation": {"number": 64, "value": 127}, "group": "control_change"}, {"time": 2952, "annotation": {"number": 64, "value": 0}, "group": "control_change"}, {"time": 2959, "annotation": {"number": 64, "value": 127}, "group": "control_change"}, {"time": 2978, "annotation": {"number": 64, "value": 0}, "group": "control_change"}, {"time": 2981, "annotation": {"number": 64, "value": 127}, "group": "control_change"}, {"time": 3025, "annotation": {"number": 64, "value": 0}, "group": "control_change"}, {"time": 3028, "annotation": {"number": 64, "value": 127}, "group": "control_change"}, {"time": 3048, "annotation": {"number": 64, "value": 0}, "group": "control_change"}, {"time": 3052, "annotation": {"number": 64, "value": 127}, "group": "control_change"}, {"time": 3074, "annotation": {"number": 64, "value": 0}, "group": "control_change"}, {"time": 3078, "annotation": {"number": 64, "value": 127}, "group": "control_change"}, {"time": 3098, "annotation": {"number": 64, "value": 0}, "group": "control_change"}, {"time": 3104, "annotation": {"number": 64, "value": 127}, "group": "control_change"}, {"time": 3122, "annotation": {"number": 64, "value": 0}, "group": "control_change"}, {"time": 3125, "annotation": {"number": 64, "value": 127}, "group": "control_change"}, {"time": 3127, "annotation": {"number": 64, "value": 127}, "group": "control_change"}, {"time": 3134, "annotation": {"number": 64, "value": 0}, "group": "control_change"}, {"time": 3147, "annotation": {"number": 64, "value": 0}, "group": "control_change"}, {"time": 3152, "annotation": {"number": 64, "value": 127}, "group": "control_change"}, {"time": 3167, "annotation": {"number": 64, "value": 0}, "group": "control_change"}, {"time": 3171, "annotation": {"number": 64, "value": 127}, "group": "control_change"}, {"time": 3193, "annotation": {"number": 64, "value": 0}, "group": "control_change"}, {"time": 3195, "annotation": {"number": 64, "value": 127}, "group": "control_change"}, {"time": 3218, "annotation": {"number": 64, "value": 0}, "group": "control_change"}, {"time": 3219, "annotation": {"number": 64, "value": 127}, "group": "control_change"}, {"time": 3243, "annotation": {"number": 64, "value": 0}, "group": "control_change"}, {"time": 3249, "annotation": {"number": 64, "value": 127}, "group": "control_change"}, {"time": 3266, "annotation": {"number": 64, "value": 0}, "group": "control_change"}, {"time": 3271, "annotation": {"number": 64, "value": 127}, "group": "control_change"}, {"time": 3291, "annotation": {"number": 64, "value": 0}, "group": "control_change"}, {"time": 3296, "annotation": {"number": 64, "value": 127}, "group": "control_change"}, {"time": 3312, "annotation": {"number": 64, "value": 0}, "group": "control_change"}, {"time": 3318, "annotation": {"number": 64, "value": 127}, "group": "control_change"}, {"time": 3336, "annotation": {"number": 64, "value": 0}, "group": "control_change"}, {"time": 3343, "annotation": {"number": 64, "value": 127}, "group": "control_change"}, {"time": 3362, "annotation": {"number": 64, "value": 0}, "group": "control_change"}, {"time": 3365, "annotation": {"number": 64, "value": 127}, "group": "control_change"}, {"time": 3409, "annotation": {"number": 64, "value": 0}, "group": "control_change"}, {"time": 3411, "annotation": {"number": 64, "value": 127}, "group": "control_change"}, {"time": 3435, "annotation": {"number": 64, "value": 0}, "group": "control_change"}, {"time": 3441, "annotation": {"number": 64, "value": 127}, "group": "control_change"}, {"time": 3458, "annotation": {"number": 64, "value": 0}, "group": "control_change"}, {"time": 3463, "annotation": {"number": 64, "value": 127}, "group": "control_change"}, {"time": 3483, "annotation": {"number": 64, "value": 0}, "group": "control_change"}, {"time": 3488, "annotation": {"number": 64, "value": 127}, "group": "control_change"}, {"time": 3504, "annotation": {"number": 64, "value": 0}, "group": "control_change"}, {"time": 3510, "annotation": {"number": 64, "value": 127}, "group": "control_change"}, {"time": 3528, "annotation": {"number": 64, "value": 0}, "group": "control_change"}, {"time": 3535, "annotation": {"number": 64, "value": 127}, "group": "control_change"}, {"time": 3554, "annotation": {"number": 64, "value": 0}, "group": "control_change"}, {"time": 3557, "annotation": {"number": 64, "value": 127}, "group": "control_change"}, {"time": 3601, "annotation": {"number": 64, "value": 0}, "group": "control_change"}, {"time": 3608, "annotation": {"number": 64, "value": 127}, "group": "control_change"}, {"time": 3626, "annotation": {"number": 64, "value": 0}, "group": "control_change"}, {"time": 3632, "annotation": {"number": 64, "value": 127}, "group": "control_change"}, {"time": 3649, "annotation": {"number": 64, "value": 0}, "group": "control_change"}, {"time": 3656, "annotation": {"number": 64, "value": 127}, "group": "control_change"}, {"time": 3697, "annotation": {"number": 64, "value": 0}, "group": "control_change"}, {"time": 3704, "annotation": {"number": 64, "value": 127}, "group": "control_change"}, {"time": 3721, "annotation": {"number": 64, "value": 0}, "group": "control_change"}, {"time": 3728, "annotation": {"number": 64, "value": 127}, "group": "control_change"}, {"time": 3745, "annotation": {"number": 64, "value": 0}, "group": "control_change"}, {"time": 3752, "annotation": {"number": 64, "value": 127}, "group": "control_change"}, {"time": 3793, "annotation": {"number": 64, "value": 0}, "group": "control_change"}, {"time": 3800, "annotation": {"number": 64, "value": 127}, "group": "control_change"}, {"time": 3819, "annotation": {"number": 64, "value": 0}, "group": "control_change"}, {"time": 3825, "annotation": {"number": 64, "value": 127}, "group": "control_change"}, {"time": 3840, "annotation": {"number": 64, "value": 0}, "group": "control_change"}, {"time": 3846, "annotation": {"number": 64, "value": 127}, "group": "control_change"}, {"time": 3854, "annotation": {"number": 64, "value": 0}, "group": "control_change"}, {"time": 3881, "annotation": {"number": 64, "value": 127}, "group": "control_change"}, {"time": 3883, "annotation": {"number": 64, "value": 0}, "group": "control_change"}, {"time": 3890, "annotation": {"number": 64, "value": 127}, "group": "control_change"}, {"time": 3913, "annotation": {"number": 64, "value": 0}, "group": "control_change"}, {"time": 3946, "annotation": {"number": 64, "value": 127}, "group": "control_change"}, {"time": 4080, "annotation": {"number": 64, "value": 0}, "group": "control_change"}]}]}