{"metadata": {"schema_version": "0.2", "title": "None", "source_filename": "497.mid", "source_format": "midi"}, "resolution": 12, "tempos": [{"time": 0, "qpm": 68.0000725334107}, {"time": 720, "qpm": 68.30002379117495}, {"time": 804, "qpm": 68.0000725334107}, {"time": 1008, "qpm": 68.2000306900138}, {"time": 1188, "qpm": 68.0000725334107}], "time_signatures": [{"time": 0, "numerator": 1, "denominator": 4}], "tracks": [{"program": 0, "is_drum": false, "name": "MELODY", "notes": [{"time": 409, "pitch": 64, "duration": 4, "velocity": 90}, {"time": 415, "pitch": 64, "duration": 9, "velocity": 91}, {"time": 427, "pitch": 66, "duration": 2, "velocity": 82}, {"time": 430, "pitch": 69, "duration": 2, "velocity": 82}, {"time": 433, "pitch": 71, "duration": 4, "velocity": 85}, {"time": 439, "pitch": 71, "duration": 8, "velocity": 85}, {"time": 451, "pitch": 69, "duration": 1, "velocity": 87}, {"time": 454, "pitch": 71, "duration": 2, "velocity": 87}, {"time": 457, "pitch": 73, "duration": 4, "velocity": 85}, {"time": 463, "pitch": 76, "duration": 4, "velocity": 86}, {"time": 469, "pitch": 73, "duration": 3, "velocity": 86}, {"time": 472, "pitch": 71, "duration": 2, "velocity": 80}, {"time": 475, "pitch": 69, "duration": 5, "velocity": 83}, {"time": 481, "pitch": 66, "duration": 12, "velocity": 85}, {"time": 505, "pitch": 64, "duration": 4, "velocity": 89}, {"time": 511, "pitch": 64, "duration": 10, "velocity": 88}, {"time": 523, "pitch": 66, "duration": 2, "velocity": 85}, {"time": 526, "pitch": 69, "duration": 2, "velocity": 84}, {"time": 529, "pitch": 71, "duration": 12, "velocity": 86}, {"time": 547, "pitch": 69, "duration": 2, "velocity": 85}, {"time": 550, "pitch": 71, "duration": 2, "velocity": 86}, {"time": 553, "pitch": 73, "duration": 4, "velocity": 87}, {"time": 559, "pitch": 76, "duration": 4, "velocity": 86}, {"time": 565, "pitch": 73, "duration": 2, "velocity": 85}, {"time": 568, "pitch": 71, "duration": 2, "velocity": 85}, {"time": 571, "pitch": 69, "duration": 5, "velocity": 82}, {"time": 577, "pitch": 66, "duration": 14, "velocity": 79}, {"time": 601, "pitch": 69, "duration": 4, "velocity": 85}, {"time": 607, "pitch": 69, "duration": 7, "velocity": 86}, {"time": 616, "pitch": 73, "duration": 4, "velocity": 84}, {"time": 622, "pitch": 73, "duration": 2, "velocity": 84}, {"time": 625, "pitch": 73, "duration": 4, "velocity": 85}, {"time": 631, "pitch": 71, "duration": 8, "velocity": 88}, {"time": 643, "pitch": 73, "duration": 2, "velocity": 80}, {"time": 646, "pitch": 76, "duration": 1, "velocity": 89}, {"time": 649, "pitch": 78, "duration": 4, "velocity": 87}, {"time": 655, "pitch": 76, "duration": 3, "velocity": 88}, {"time": 661, "pitch": 76, "duration": 2, "velocity": 85}, {"time": 664, "pitch": 76, "duration": 4, "velocity": 88}, {"time": 670, "pitch": 71, "duration": 2, "velocity": 84}, {"time": 673, "pitch": 73, "duration": 13, "velocity": 78}, {"time": 694, "pitch": 69, "duration": 2, "velocity": 86}, {"time": 697, "pitch": 71, "duration": 4, "velocity": 85}, {"time": 703, "pitch": 71, "duration": 4, "velocity": 87}, {"time": 709, "pitch": 71, "duration": 2, "velocity": 87}, {"time": 712, "pitch": 69, "duration": 5, "velocity": 86}, {"time": 718, "pitch": 73, "duration": 8, "velocity": 85}, {"time": 727, "pitch": 71, "duration": 5, "velocity": 88}, {"time": 736, "pitch": 69, "duration": 5, "velocity": 84}, {"time": 742, "pitch": 66, "duration": 3, "velocity": 82}, {"time": 745, "pitch": 64, "duration": 36, "velocity": 86}, {"time": 793, "pitch": 64, "duration": 4, "velocity": 90}, {"time": 799, "pitch": 64, "duration": 9, "velocity": 91}, {"time": 811, "pitch": 66, "duration": 2, "velocity": 82}, {"time": 814, "pitch": 69, "duration": 2, "velocity": 82}, {"time": 817, "pitch": 71, "duration": 4, "velocity": 85}, {"time": 823, "pitch": 71, "duration": 8, "velocity": 85}, {"time": 835, "pitch": 69, "duration": 1, "velocity": 87}, {"time": 838, "pitch": 71, "duration": 2, "velocity": 87}, {"time": 841, "pitch": 73, "duration": 4, "velocity": 85}, {"time": 847, "pitch": 76, "duration": 4, "velocity": 86}, {"time": 853, "pitch": 73, "duration": 3, "velocity": 86}, {"time": 856, "pitch": 71, "duration": 2, "velocity": 80}, {"time": 859, "pitch": 69, "duration": 5, "velocity": 83}, {"time": 865, "pitch": 66, "duration": 12, "velocity": 85}, {"time": 889, "pitch": 64, "duration": 4, "velocity": 89}, {"time": 895, "pitch": 64, "duration": 10, "velocity": 88}, {"time": 907, "pitch": 66, "duration": 2, "velocity": 85}, {"time": 910, "pitch": 69, "duration": 2, "velocity": 84}, {"time": 913, "pitch": 71, "duration": 6, "velocity": 86}, {"time": 919, "pitch": 71, "duration": 6, "velocity": 86}, {"time": 931, "pitch": 69, "duration": 2, "velocity": 85}, {"time": 934, "pitch": 71, "duration": 2, "velocity": 86}, {"time": 937, "pitch": 73, "duration": 4, "velocity": 87}, {"time": 943, "pitch": 76, "duration": 4, "velocity": 86}, {"time": 949, "pitch": 73, "duration": 2, "velocity": 85}, {"time": 952, "pitch": 71, "duration": 2, "velocity": 85}, {"time": 955, "pitch": 69, "duration": 5, "velocity": 82}, {"time": 961, "pitch": 66, "duration": 14, "velocity": 79}, {"time": 985, "pitch": 69, "duration": 4, "velocity": 85}, {"time": 991, "pitch": 69, "duration": 6, "velocity": 86}, {"time": 997, "pitch": 69, "duration": 2, "velocity": 84}, {"time": 1000, "pitch": 73, "duration": 4, "velocity": 84}, {"time": 1006, "pitch": 73, "duration": 2, "velocity": 84}, {"time": 1009, "pitch": 73, "duration": 4, "velocity": 85}, {"time": 1015, "pitch": 71, "duration": 8, "velocity": 88}, {"time": 1027, "pitch": 73, "duration": 2, "velocity": 80}, {"time": 1030, "pitch": 76, "duration": 1, "velocity": 89}, {"time": 1033, "pitch": 78, "duration": 4, "velocity": 87}, {"time": 1039, "pitch": 76, "duration": 3, "velocity": 88}, {"time": 1045, "pitch": 76, "duration": 2, "velocity": 85}, {"time": 1048, "pitch": 76, "duration": 4, "velocity": 88}, {"time": 1054, "pitch": 71, "duration": 2, "velocity": 84}, {"time": 1057, "pitch": 73, "duration": 13, "velocity": 78}, {"time": 1078, "pitch": 69, "duration": 2, "velocity": 86}, {"time": 1081, "pitch": 71, "duration": 4, "velocity": 85}, {"time": 1087, "pitch": 71, "duration": 4, "velocity": 87}, {"time": 1093, "pitch": 71, "duration": 2, "velocity": 87}, {"time": 1096, "pitch": 69, "duration": 5, "velocity": 86}, {"time": 1102, "pitch": 69, "duration": 3, "velocity": 86}, {"time": 1105, "pitch": 73, "duration": 6, "velocity": 85}, {"time": 1111, "pitch": 71, "duration": 5, "velocity": 88}, {"time": 1120, "pitch": 71, "duration": 9, "velocity": 84}, {"time": 1129, "pitch": 69, "duration": 36, "velocity": 86}, {"time": 1183, "pitch": 78, "duration": 4, "velocity": 91}, {"time": 1189, "pitch": 78, "duration": 4, "velocity": 91}, {"time": 1195, "pitch": 76, "duration": 2, "velocity": 91}, {"time": 1198, "pitch": 78, "duration": 8, "velocity": 89}, {"time": 1207, "pitch": 73, "duration": 7, "velocity": 95}, {"time": 1219, "pitch": 73, "duration": 1, "velocity": 88}, {"time": 1222, "pitch": 76, "duration": 2, "velocity": 90}, {"time": 1225, "pitch": 78, "duration": 4, "velocity": 95}, {"time": 1231, "pitch": 76, "duration": 1, "velocity": 89}, {"time": 1234, "pitch": 76, "duration": 1, "velocity": 91}, {"time": 1237, "pitch": 76, "duration": 2, "velocity": 88}, {"time": 1240, "pitch": 78, "duration": 8, "velocity": 88}, {"time": 1249, "pitch": 76, "duration": 20, "velocity": 90}, {"time": 1279, "pitch": 78, "duration": 4, "velocity": 90}, {"time": 1285, "pitch": 78, "duration": 4, "velocity": 87}, {"time": 1291, "pitch": 76, "duration": 1, "velocity": 88}, {"time": 1294, "pitch": 76, "duration": 2, "velocity": 86}, {"time": 1297, "pitch": 78, "duration": 4, "velocity": 85}, {"time": 1303, "pitch": 76, "duration": 4, "velocity": 93}, {"time": 1309, "pitch": 73, "duration": 2, "velocity": 85}, {"time": 1312, "pitch": 71, "duration": 1, "velocity": 88}, {"time": 1315, "pitch": 69, "duration": 5, "velocity": 86}, {"time": 1321, "pitch": 71, "duration": 23, "velocity": 88}, {"time": 1375, "pitch": 78, "duration": 4, "velocity": 86}, {"time": 1381, "pitch": 78, "duration": 4, "velocity": 85}, {"time": 1387, "pitch": 76, "duration": 2, "velocity": 85}, {"time": 1390, "pitch": 78, "duration": 7, "velocity": 86}, {"time": 1399, "pitch": 76, "duration": 8, "velocity": 90}, {"time": 1411, "pitch": 73, "duration": 2, "velocity": 84}, {"time": 1414, "pitch": 76, "duration": 2, "velocity": 89}, {"time": 1417, "pitch": 78, "duration": 4, "velocity": 83}, {"time": 1423, "pitch": 76, "duration": 3, "velocity": 91}, {"time": 1429, "pitch": 73, "duration": 4, "velocity": 88}, {"time": 1432, "pitch": 71, "duration": 1, "velocity": 85}, {"time": 1435, "pitch": 69, "duration": 1, "velocity": 83}, {"time": 1438, "pitch": 69, "duration": 16, "velocity": 88}, {"time": 1474, "pitch": 69, "duration": 2, "velocity": 80}, {"time": 1477, "pitch": 71, "duration": 4, "velocity": 84}, {"time": 1483, "pitch": 73, "duration": 2, "velocity": 82}, {"time": 1486, "pitch": 71, "duration": 4, "velocity": 85}, {"time": 1492, "pitch": 69, "duration": 11, "velocity": 85}, {"time": 1507, "pitch": 73, "duration": 2, "velocity": 86}, {"time": 1510, "pitch": 76, "duration": 1, "velocity": 95}, {"time": 1513, "pitch": 78, "duration": 4, "velocity": 84}, {"time": 1519, "pitch": 76, "duration": 3, "velocity": 86}, {"time": 1525, "pitch": 76, "duration": 1, "velocity": 86}, {"time": 1528, "pitch": 78, "duration": 7, "velocity": 85}, {"time": 1537, "pitch": 78, "duration": 6, "velocity": 86}, {"time": 1543, "pitch": 76, "duration": 32, "velocity": 85}, {"time": 1585, "pitch": 64, "duration": 4, "velocity": 90}, {"time": 1591, "pitch": 64, "duration": 9, "velocity": 91}, {"time": 1603, "pitch": 66, "duration": 2, "velocity": 82}, {"time": 1606, "pitch": 69, "duration": 2, "velocity": 82}, {"time": 1609, "pitch": 71, "duration": 4, "velocity": 85}, {"time": 1615, "pitch": 71, "duration": 8, "velocity": 85}, {"time": 1624, "pitch": 71, "duration": 3, "velocity": 85}, {"time": 1627, "pitch": 69, "duration": 1, "velocity": 87}, {"time": 1630, "pitch": 71, "duration": 2, "velocity": 87}, {"time": 1633, "pitch": 73, "duration": 4, "velocity": 85}, {"time": 1639, "pitch": 76, "duration": 4, "velocity": 86}, {"time": 1645, "pitch": 73, "duration": 3, "velocity": 86}, {"time": 1648, "pitch": 71, "duration": 2, "velocity": 80}, {"time": 1651, "pitch": 69, "duration": 5, "velocity": 83}, {"time": 1657, "pitch": 66, "duration": 12, "velocity": 85}, {"time": 1681, "pitch": 64, "duration": 4, "velocity": 89}, {"time": 1687, "pitch": 64, "duration": 10, "velocity": 88}, {"time": 1699, "pitch": 66, "duration": 2, "velocity": 85}, {"time": 1702, "pitch": 69, "duration": 2, "velocity": 84}, {"time": 1705, "pitch": 71, "duration": 9, "velocity": 86}, {"time": 1720, "pitch": 71, "duration": 3, "velocity": 86}, {"time": 1723, "pitch": 69, "duration": 2, "velocity": 85}, {"time": 1726, "pitch": 71, "duration": 2, "velocity": 86}, {"time": 1729, "pitch": 73, "duration": 4, "velocity": 87}, {"time": 1735, "pitch": 76, "duration": 4, "velocity": 86}, {"time": 1741, "pitch": 73, "duration": 2, "velocity": 85}, {"time": 1744, "pitch": 71, "duration": 2, "velocity": 85}, {"time": 1747, "pitch": 69, "duration": 5, "velocity": 82}, {"time": 1753, "pitch": 66, "duration": 14, "velocity": 79}, {"time": 1777, "pitch": 69, "duration": 4, "velocity": 85}, {"time": 1783, "pitch": 69, "duration": 6, "velocity": 86}, {"time": 1789, "pitch": 69, "duration": 2, "velocity": 84}, {"time": 1792, "pitch": 73, "duration": 4, "velocity": 84}, {"time": 1798, "pitch": 73, "duration": 2, "velocity": 84}, {"time": 1801, "pitch": 73, "duration": 4, "velocity": 85}, {"time": 1807, "pitch": 71, "duration": 8, "velocity": 88}, {"time": 1819, "pitch": 73, "duration": 2, "velocity": 80}, {"time": 1822, "pitch": 76, "duration": 1, "velocity": 89}, {"time": 1825, "pitch": 78, "duration": 4, "velocity": 87}, {"time": 1831, "pitch": 76, "duration": 3, "velocity": 88}, {"time": 1834, "pitch": 76, "duration": 3, "velocity": 88}, {"time": 1837, "pitch": 76, "duration": 2, "velocity": 85}, {"time": 1840, "pitch": 76, "duration": 4, "velocity": 88}, {"time": 1846, "pitch": 71, "duration": 2, "velocity": 84}, {"time": 1849, "pitch": 73, "duration": 13, "velocity": 78}, {"time": 1879, "pitch": 69, "duration": 3, "velocity": 87}, {"time": 1882, "pitch": 69, "duration": 9, "velocity": 87}, {"time": 1891, "pitch": 73, "duration": 3, "velocity": 86}, {"time": 1894, "pitch": 73, "duration": 6, "velocity": 85}, {"time": 1903, "pitch": 71, "duration": 9, "velocity": 88}, {"time": 1915, "pitch": 71, "duration": 6, "velocity": 84}, {"time": 1921, "pitch": 69, "duration": 36, "velocity": 86}, {"time": 2359, "pitch": 78, "duration": 4, "velocity": 91}, {"time": 2365, "pitch": 78, "duration": 4, "velocity": 91}, {"time": 2371, "pitch": 76, "duration": 2, "velocity": 91}, {"time": 2374, "pitch": 78, "duration": 8, "velocity": 89}, {"time": 2383, "pitch": 73, "duration": 7, "velocity": 95}, {"time": 2395, "pitch": 73, "duration": 1, "velocity": 88}, {"time": 2398, "pitch": 76, "duration": 2, "velocity": 90}, {"time": 2401, "pitch": 78, "duration": 4, "velocity": 95}, {"time": 2407, "pitch": 76, "duration": 1, "velocity": 89}, {"time": 2410, "pitch": 76, "duration": 1, "velocity": 91}, {"time": 2413, "pitch": 76, "duration": 2, "velocity": 88}, {"time": 2416, "pitch": 78, "duration": 8, "velocity": 88}, {"time": 2425, "pitch": 76, "duration": 20, "velocity": 90}, {"time": 2455, "pitch": 78, "duration": 4, "velocity": 90}, {"time": 2461, "pitch": 78, "duration": 4, "velocity": 87}, {"time": 2467, "pitch": 76, "duration": 1, "velocity": 88}, {"time": 2470, "pitch": 76, "duration": 2, "velocity": 86}, {"time": 2473, "pitch": 78, "duration": 4, "velocity": 85}, {"time": 2479, "pitch": 76, "duration": 4, "velocity": 93}, {"time": 2485, "pitch": 73, "duration": 2, "velocity": 85}, {"time": 2488, "pitch": 71, "duration": 1, "velocity": 88}, {"time": 2491, "pitch": 69, "duration": 5, "velocity": 86}, {"time": 2497, "pitch": 71, "duration": 23, "velocity": 88}, {"time": 2551, "pitch": 78, "duration": 4, "velocity": 86}, {"time": 2557, "pitch": 78, "duration": 4, "velocity": 85}, {"time": 2563, "pitch": 76, "duration": 2, "velocity": 85}, {"time": 2566, "pitch": 78, "duration": 7, "velocity": 86}, {"time": 2575, "pitch": 76, "duration": 8, "velocity": 90}, {"time": 2587, "pitch": 73, "duration": 2, "velocity": 84}, {"time": 2590, "pitch": 76, "duration": 2, "velocity": 89}, {"time": 2593, "pitch": 78, "duration": 4, "velocity": 83}, {"time": 2599, "pitch": 76, "duration": 3, "velocity": 91}, {"time": 2605, "pitch": 73, "duration": 4, "velocity": 88}, {"time": 2608, "pitch": 71, "duration": 1, "velocity": 85}, {"time": 2611, "pitch": 69, "duration": 1, "velocity": 83}, {"time": 2614, "pitch": 69, "duration": 16, "velocity": 88}, {"time": 2650, "pitch": 69, "duration": 2, "velocity": 80}, {"time": 2653, "pitch": 71, "duration": 4, "velocity": 84}, {"time": 2659, "pitch": 73, "duration": 2, "velocity": 82}, {"time": 2662, "pitch": 71, "duration": 4, "velocity": 85}, {"time": 2668, "pitch": 69, "duration": 11, "velocity": 85}, {"time": 2683, "pitch": 73, "duration": 2, "velocity": 86}, {"time": 2686, "pitch": 76, "duration": 1, "velocity": 95}, {"time": 2689, "pitch": 78, "duration": 4, "velocity": 84}, {"time": 2695, "pitch": 76, "duration": 3, "velocity": 86}, {"time": 2701, "pitch": 76, "duration": 1, "velocity": 86}, {"time": 2704, "pitch": 78, "duration": 7, "velocity": 85}, {"time": 2713, "pitch": 78, "duration": 6, "velocity": 86}, {"time": 2719, "pitch": 76, "duration": 32, "velocity": 85}, {"time": 2761, "pitch": 64, "duration": 4, "velocity": 90}, {"time": 2767, "pitch": 64, "duration": 9, "velocity": 91}, {"time": 2779, "pitch": 66, "duration": 2, "velocity": 82}, {"time": 2782, "pitch": 69, "duration": 2, "velocity": 82}, {"time": 2785, "pitch": 71, "duration": 4, "velocity": 85}, {"time": 2791, "pitch": 71, "duration": 8, "velocity": 85}, {"time": 2800, "pitch": 71, "duration": 3, "velocity": 85}, {"time": 2803, "pitch": 69, "duration": 1, "velocity": 87}, {"time": 2806, "pitch": 71, "duration": 2, "velocity": 87}, {"time": 2809, "pitch": 73, "duration": 4, "velocity": 85}, {"time": 2815, "pitch": 76, "duration": 4, "velocity": 86}, {"time": 2821, "pitch": 73, "duration": 3, "velocity": 86}, {"time": 2824, "pitch": 71, "duration": 2, "velocity": 80}, {"time": 2827, "pitch": 69, "duration": 5, "velocity": 83}, {"time": 2833, "pitch": 66, "duration": 12, "velocity": 85}, {"time": 2857, "pitch": 64, "duration": 4, "velocity": 89}, {"time": 2863, "pitch": 64, "duration": 10, "velocity": 88}, {"time": 2875, "pitch": 66, "duration": 2, "velocity": 85}, {"time": 2878, "pitch": 69, "duration": 2, "velocity": 84}, {"time": 2881, "pitch": 71, "duration": 9, "velocity": 86}, {"time": 2896, "pitch": 71, "duration": 3, "velocity": 86}, {"time": 2899, "pitch": 69, "duration": 2, "velocity": 85}, {"time": 2902, "pitch": 71, "duration": 2, "velocity": 86}, {"time": 2905, "pitch": 73, "duration": 4, "velocity": 87}, {"time": 2911, "pitch": 76, "duration": 4, "velocity": 86}, {"time": 2917, "pitch": 73, "duration": 2, "velocity": 85}, {"time": 2920, "pitch": 71, "duration": 2, "velocity": 85}, {"time": 2923, "pitch": 69, "duration": 5, "velocity": 82}, {"time": 2929, "pitch": 66, "duration": 14, "velocity": 79}, {"time": 2953, "pitch": 69, "duration": 4, "velocity": 85}, {"time": 2959, "pitch": 69, "duration": 6, "velocity": 86}, {"time": 2965, "pitch": 69, "duration": 2, "velocity": 84}, {"time": 2968, "pitch": 73, "duration": 4, "velocity": 84}, {"time": 2974, "pitch": 73, "duration": 2, "velocity": 84}, {"time": 2977, "pitch": 73, "duration": 4, "velocity": 85}, {"time": 2983, "pitch": 71, "duration": 8, "velocity": 88}, {"time": 2995, "pitch": 73, "duration": 2, "velocity": 80}, {"time": 2998, "pitch": 76, "duration": 1, "velocity": 89}, {"time": 3001, "pitch": 78, "duration": 4, "velocity": 87}, {"time": 3007, "pitch": 76, "duration": 3, "velocity": 88}, {"time": 3010, "pitch": 76, "duration": 3, "velocity": 88}, {"time": 3013, "pitch": 76, "duration": 2, "velocity": 85}, {"time": 3016, "pitch": 76, "duration": 4, "velocity": 88}, {"time": 3022, "pitch": 71, "duration": 2, "velocity": 84}, {"time": 3025, "pitch": 73, "duration": 13, "velocity": 78}, {"time": 3055, "pitch": 69, "duration": 3, "velocity": 87}, {"time": 3058, "pitch": 69, "duration": 9, "velocity": 87}, {"time": 3067, "pitch": 73, "duration": 3, "velocity": 86}, {"time": 3070, "pitch": 73, "duration": 6, "velocity": 85}, {"time": 3079, "pitch": 71, "duration": 9, "velocity": 88}, {"time": 3091, "pitch": 71, "duration": 3, "velocity": 84}, {"time": 3094, "pitch": 71, "duration": 9, "velocity": 84}, {"time": 3103, "pitch": 69, "duration": 36, "velocity": 86}, {"time": 3152, "pitch": 69, "duration": 4, "velocity": 83}, {"time": 3158, "pitch": 69, "duration": 7, "velocity": 84}, {"time": 3166, "pitch": 73, "duration": 3, "velocity": 79}, {"time": 3170, "pitch": 73, "duration": 5, "velocity": 84}, {"time": 3177, "pitch": 71, "duration": 24, "velocity": 80}, {"time": 3215, "pitch": 71, "duration": 4, "velocity": 79}, {"time": 3220, "pitch": 71, "duration": 9, "velocity": 85}, {"time": 3228, "pitch": 69, "duration": 49, "velocity": 81}]}, {"program": 0, "is_drum": false, "name": "BRIDGE", "notes": [{"time": 217, "pitch": 74, "duration": 12, "velocity": 83}, {"time": 217, "pitch": 78, "duration": 12, "velocity": 76}, {"time": 229, "pitch": 76, "duration": 5, "velocity": 85}, {"time": 229, "pitch": 80, "duration": 7, "velocity": 89}, {"time": 235, "pitch": 78, "duration": 6, "velocity": 80}, {"time": 235, "pitch": 81, "duration": 6, "velocity": 85}, {"time": 241, "pitch": 76, "duration": 11, "velocity": 79}, {"time": 241, "pitch": 83, "duration": 10, "velocity": 85}, {"time": 253, "pitch": 76, "duration": 4, "velocity": 80}, {"time": 253, "pitch": 80, "duration": 6, "velocity": 89}, {"time": 259, "pitch": 74, "duration": 5, "velocity": 84}, {"time": 259, "pitch": 78, "duration": 6, "velocity": 89}, {"time": 265, "pitch": 73, "duration": 5, "velocity": 82}, {"time": 265, "pitch": 76, "duration": 6, "velocity": 86}, {"time": 271, "pitch": 76, "duration": 11, "velocity": 83}, {"time": 271, "pitch": 83, "duration": 13, "velocity": 88}, {"time": 283, "pitch": 78, "duration": 3, "velocity": 86}, {"time": 283, "pitch": 81, "duration": 3, "velocity": 82}, {"time": 286, "pitch": 76, "duration": 2, "velocity": 79}, {"time": 286, "pitch": 80, "duration": 2, "velocity": 79}, {"time": 289, "pitch": 78, "duration": 21, "velocity": 80}, {"time": 289, "pitch": 81, "duration": 22, "velocity": 84}, {"time": 319, "pitch": 74, "duration": 5, "velocity": 86}, {"time": 319, "pitch": 81, "duration": 4, "velocity": 80}, {"time": 325, "pitch": 74, "duration": 5, "velocity": 84}, {"time": 325, "pitch": 81, "duration": 5, "velocity": 86}, {"time": 331, "pitch": 78, "duration": 4, "velocity": 82}, {"time": 331, "pitch": 85, "duration": 4, "velocity": 90}, {"time": 337, "pitch": 78, "duration": 5, "velocity": 76}, {"time": 337, "pitch": 85, "duration": 5, "velocity": 86}, {"time": 343, "pitch": 76, "duration": 11, "velocity": 86}, {"time": 343, "pitch": 83, "duration": 10, "velocity": 88}, {"time": 355, "pitch": 74, "duration": 4, "velocity": 83}, {"time": 355, "pitch": 83, "duration": 4, "velocity": 87}, {"time": 361, "pitch": 74, "duration": 5, "velocity": 85}, {"time": 361, "pitch": 83, "duration": 5, "velocity": 86}, {"time": 367, "pitch": 73, "duration": 18, "velocity": 73}, {"time": 367, "pitch": 81, "duration": 18, "velocity": 86}, {"time": 388, "pitch": 76, "duration": 3, "velocity": 84}, {"time": 391, "pitch": 74, "duration": 3, "velocity": 86}, {"time": 394, "pitch": 73, "duration": 3, "velocity": 85}, {"time": 397, "pitch": 71, "duration": 2, "velocity": 84}, {"time": 400, "pitch": 66, "duration": 2, "velocity": 82}, {"time": 403, "pitch": 64, "duration": 3, "velocity": 89}, {"time": 406, "pitch": 59, "duration": 3, "velocity": 83}, {"time": 409, "pitch": 57, "duration": 12, "velocity": 74}, {"time": 493, "pitch": 64, "duration": 4, "velocity": 86}, {"time": 496, "pitch": 66, "duration": 2, "velocity": 83}, {"time": 499, "pitch": 71, "duration": 3, "velocity": 79}, {"time": 502, "pitch": 66, "duration": 3, "velocity": 77}, {"time": 505, "pitch": 69, "duration": 21, "velocity": 78}, {"time": 649, "pitch": 81, "duration": 11, "velocity": 78}, {"time": 661, "pitch": 80, "duration": 10, "velocity": 77}, {"time": 673, "pitch": 78, "duration": 18, "velocity": 76}, {"time": 760, "pitch": 88, "duration": 3, "velocity": 83}, {"time": 763, "pitch": 93, "duration": 3, "velocity": 89}, {"time": 766, "pitch": 92, "duration": 16, "velocity": 90}, {"time": 793, "pitch": 69, "duration": 20, "velocity": 73}, {"time": 793, "pitch": 73, "duration": 23, "velocity": 71}, {"time": 817, "pitch": 71, "duration": 23, "velocity": 67}, {"time": 817, "pitch": 74, "duration": 23, "velocity": 78}, {"time": 841, "pitch": 73, "duration": 20, "velocity": 63}, {"time": 841, "pitch": 76, "duration": 20, "velocity": 79}, {"time": 865, "pitch": 69, "duration": 21, "velocity": 69}, {"time": 865, "pitch": 74, "duration": 21, "velocity": 74}, {"time": 874, "pitch": 81, "duration": 3, "velocity": 84}, {"time": 877, "pitch": 86, "duration": 3, "velocity": 87}, {"time": 880, "pitch": 85, "duration": 3, "velocity": 95}, {"time": 883, "pitch": 83, "duration": 6, "velocity": 87}, {"time": 889, "pitch": 69, "duration": 21, "velocity": 67}, {"time": 889, "pitch": 73, "duration": 20, "velocity": 70}, {"time": 889, "pitch": 85, "duration": 18, "velocity": 85}, {"time": 913, "pitch": 71, "duration": 24, "velocity": 74}, {"time": 913, "pitch": 74, "duration": 24, "velocity": 81}, {"time": 937, "pitch": 73, "duration": 19, "velocity": 59}, {"time": 937, "pitch": 76, "duration": 20, "velocity": 77}, {"time": 961, "pitch": 74, "duration": 11, "velocity": 71}, {"time": 961, "pitch": 78, "duration": 9, "velocity": 66}, {"time": 967, "pitch": 78, "duration": 3, "velocity": 84}, {"time": 970, "pitch": 81, "duration": 3, "velocity": 78}, {"time": 973, "pitch": 86, "duration": 3, "velocity": 87}, {"time": 976, "pitch": 85, "duration": 9, "velocity": 89}, {"time": 985, "pitch": 83, "duration": 20, "velocity": 83}, {"time": 997, "pitch": 78, "duration": 12, "velocity": 88}, {"time": 1009, "pitch": 80, "duration": 6, "velocity": 93}, {"time": 1015, "pitch": 81, "duration": 7, "velocity": 85}, {"time": 1021, "pitch": 83, "duration": 12, "velocity": 89}, {"time": 1033, "pitch": 85, "duration": 13, "velocity": 87}, {"time": 1045, "pitch": 83, "duration": 13, "velocity": 88}, {"time": 1057, "pitch": 81, "duration": 22, "velocity": 85}, {"time": 1069, "pitch": 69, "duration": 3, "velocity": 78}, {"time": 1072, "pitch": 68, "duration": 4, "velocity": 84}, {"time": 1075, "pitch": 66, "duration": 6, "velocity": 72}, {"time": 1081, "pitch": 69, "duration": 21, "velocity": 73}, {"time": 1081, "pitch": 74, "duration": 21, "velocity": 83}, {"time": 1105, "pitch": 71, "duration": 22, "velocity": 72}, {"time": 1105, "pitch": 76, "duration": 5, "velocity": 77}, {"time": 1105, "pitch": 76, "duration": 5, "velocity": 85}, {"time": 1111, "pitch": 78, "duration": 6, "velocity": 86}, {"time": 1117, "pitch": 80, "duration": 10, "velocity": 85}, {"time": 1129, "pitch": 81, "duration": 23, "velocity": 85}, {"time": 1159, "pitch": 69, "duration": 3, "velocity": 86}, {"time": 1162, "pitch": 71, "duration": 3, "velocity": 88}, {"time": 1165, "pitch": 73, "duration": 3, "velocity": 86}, {"time": 1168, "pitch": 76, "duration": 3, "velocity": 100}, {"time": 1171, "pitch": 78, "duration": 3, "velocity": 85}, {"time": 1174, "pitch": 80, "duration": 3, "velocity": 88}, {"time": 1177, "pitch": 81, "duration": 23, "velocity": 87}, {"time": 1225, "pitch": 80, "duration": 26, "velocity": 87}, {"time": 1261, "pitch": 73, "duration": 3, "velocity": 86}, {"time": 1264, "pitch": 76, "duration": 3, "velocity": 90}, {"time": 1267, "pitch": 78, "duration": 3, "velocity": 87}, {"time": 1270, "pitch": 80, "duration": 3, "velocity": 93}, {"time": 1273, "pitch": 78, "duration": 24, "velocity": 82}, {"time": 1297, "pitch": 76, "duration": 22, "velocity": 85}, {"time": 1321, "pitch": 74, "duration": 3, "velocity": 91}, {"time": 1324, "pitch": 73, "duration": 3, "velocity": 95}, {"time": 1327, "pitch": 71, "duration": 2, "velocity": 85}, {"time": 1330, "pitch": 69, "duration": 3, "velocity": 86}, {"time": 1333, "pitch": 71, "duration": 3, "velocity": 89}, {"time": 1336, "pitch": 73, "duration": 3, "velocity": 87}, {"time": 1339, "pitch": 74, "duration": 4, "velocity": 90}, {"time": 1348, "pitch": 68, "duration": 3, "velocity": 86}, {"time": 1351, "pitch": 69, "duration": 3, "velocity": 79}, {"time": 1354, "pitch": 71, "duration": 3, "velocity": 84}, {"time": 1357, "pitch": 73, "duration": 3, "velocity": 85}, {"time": 1360, "pitch": 74, "duration": 3, "velocity": 86}, {"time": 1363, "pitch": 76, "duration": 3, "velocity": 87}, {"time": 1366, "pitch": 77, "duration": 4, "velocity": 86}, {"time": 1369, "pitch": 78, "duration": 24, "velocity": 87}, {"time": 1393, "pitch": 80, "duration": 24, "velocity": 85}, {"time": 1417, "pitch": 74, "duration": 24, "velocity": 84}, {"time": 1417, "pitch": 81, "duration": 46, "velocity": 84}, {"time": 1441, "pitch": 75, "duration": 22, "velocity": 72}, {"time": 1464, "pitch": 71, "duration": 49, "velocity": 70}, {"time": 1464, "pitch": 74, "duration": 49, "velocity": 84}, {"time": 1465, "pitch": 78, "duration": 48, "velocity": 68}, {"time": 1537, "pitch": 56, "duration": 6, "velocity": 86}, {"time": 1537, "pitch": 68, "duration": 5, "velocity": 86}, {"time": 1546, "pitch": 57, "duration": 5, "velocity": 84}, {"time": 1546, "pitch": 69, "duration": 4, "velocity": 85}, {"time": 1555, "pitch": 59, "duration": 5, "velocity": 90}, {"time": 1555, "pitch": 71, "duration": 5, "velocity": 85}, {"time": 1564, "pitch": 61, "duration": 6, "velocity": 91}, {"time": 1564, "pitch": 73, "duration": 6, "velocity": 86}, {"time": 1573, "pitch": 62, "duration": 4, "velocity": 86}, {"time": 1573, "pitch": 74, "duration": 4, "velocity": 86}, {"time": 1579, "pitch": 64, "duration": 5, "velocity": 91}, {"time": 1579, "pitch": 76, "duration": 4, "velocity": 90}, {"time": 1585, "pitch": 76, "duration": 18, "velocity": 84}, {"time": 1603, "pitch": 74, "duration": 3, "velocity": 84}, {"time": 1606, "pitch": 76, "duration": 3, "velocity": 85}, {"time": 1609, "pitch": 78, "duration": 17, "velocity": 80}, {"time": 1627, "pitch": 76, "duration": 2, "velocity": 85}, {"time": 1630, "pitch": 78, "duration": 2, "velocity": 80}, {"time": 1633, "pitch": 80, "duration": 19, "velocity": 83}, {"time": 1654, "pitch": 80, "duration": 3, "velocity": 73}, {"time": 1657, "pitch": 90, "duration": 1, "velocity": 88}, {"time": 1660, "pitch": 88, "duration": 2, "velocity": 85}, {"time": 1663, "pitch": 86, "duration": 1, "velocity": 87}, {"time": 1666, "pitch": 85, "duration": 1, "velocity": 98}, {"time": 1669, "pitch": 83, "duration": 1, "velocity": 85}, {"time": 1672, "pitch": 68, "duration": 3, "velocity": 73}, {"time": 1672, "pitch": 81, "duration": 1, "velocity": 89}, {"time": 1675, "pitch": 69, "duration": 3, "velocity": 82}, {"time": 1675, "pitch": 80, "duration": 2, "velocity": 81}, {"time": 1678, "pitch": 71, "duration": 3, "velocity": 82}, {"time": 1678, "pitch": 78, "duration": 3, "velocity": 84}, {"time": 1681, "pitch": 73, "duration": 18, "velocity": 75}, {"time": 1681, "pitch": 76, "duration": 11, "velocity": 84}, {"time": 1699, "pitch": 71, "duration": 3, "velocity": 86}, {"time": 1702, "pitch": 73, "duration": 2, "velocity": 81}, {"time": 1705, "pitch": 74, "duration": 18, "velocity": 88}, {"time": 1723, "pitch": 73, "duration": 3, "velocity": 88}, {"time": 1726, "pitch": 74, "duration": 2, "velocity": 87}, {"time": 1729, "pitch": 76, "duration": 24, "velocity": 84}, {"time": 1753, "pitch": 74, "duration": 6, "velocity": 79}, {"time": 1753, "pitch": 86, "duration": 6, "velocity": 79}, {"time": 1759, "pitch": 73, "duration": 6, "velocity": 79}, {"time": 1759, "pitch": 85, "duration": 6, "velocity": 85}, {"time": 1765, "pitch": 71, "duration": 12, "velocity": 85}, {"time": 1765, "pitch": 83, "duration": 6, "velocity": 79}, {"time": 1771, "pitch": 85, "duration": 2, "velocity": 84}, {"time": 1774, "pitch": 88, "duration": 2, "velocity": 85}, {"time": 1777, "pitch": 69, "duration": 24, "velocity": 82}, {"time": 1777, "pitch": 86, "duration": 21, "velocity": 76}, {"time": 1801, "pitch": 71, "duration": 18, "velocity": 84}, {"time": 1825, "pitch": 73, "duration": 11, "velocity": 85}, {"time": 1837, "pitch": 71, "duration": 12, "velocity": 83}, {"time": 1849, "pitch": 69, "duration": 24, "velocity": 84}, {"time": 1867, "pitch": 85, "duration": 4, "velocity": 86}, {"time": 1873, "pitch": 74, "duration": 21, "velocity": 84}, {"time": 1873, "pitch": 78, "duration": 23, "velocity": 76}, {"time": 1873, "pitch": 81, "duration": 19, "velocity": 72}, {"time": 1873, "pitch": 86, "duration": 20, "velocity": 78}, {"time": 1897, "pitch": 76, "duration": 18, "velocity": 83}, {"time": 1915, "pitch": 74, "duration": 6, "velocity": 85}, {"time": 1921, "pitch": 69, "duration": 47, "velocity": 77}, {"time": 1921, "pitch": 73, "duration": 47, "velocity": 75}, {"time": 1969, "pitch": 73, "duration": 7, "velocity": 86}, {"time": 1975, "pitch": 64, "duration": 7, "velocity": 87}, {"time": 1981, "pitch": 69, "duration": 6, "velocity": 86}, {"time": 1987, "pitch": 73, "duration": 6, "velocity": 93}, {"time": 1993, "pitch": 74, "duration": 7, "velocity": 98}, {"time": 1999, "pitch": 66, "duration": 6, "velocity": 87}, {"time": 2005, "pitch": 71, "duration": 6, "velocity": 82}, {"time": 2011, "pitch": 74, "duration": 4, "velocity": 93}, {"time": 2017, "pitch": 76, "duration": 5, "velocity": 88}, {"time": 2023, "pitch": 68, "duration": 5, "velocity": 88}, {"time": 2029, "pitch": 73, "duration": 5, "velocity": 90}, {"time": 2035, "pitch": 76, "duration": 5, "velocity": 87}, {"time": 2041, "pitch": 78, "duration": 5, "velocity": 91}, {"time": 2047, "pitch": 66, "duration": 5, "velocity": 80}, {"time": 2053, "pitch": 69, "duration": 6, "velocity": 74}, {"time": 2059, "pitch": 74, "duration": 5, "velocity": 90}, {"time": 2065, "pitch": 76, "duration": 6, "velocity": 84}, {"time": 2071, "pitch": 69, "duration": 4, "velocity": 79}, {"time": 2077, "pitch": 73, "duration": 5, "velocity": 84}, {"time": 2083, "pitch": 76, "duration": 5, "velocity": 86}, {"time": 2089, "pitch": 78, "duration": 5, "velocity": 78}, {"time": 2095, "pitch": 71, "duration": 6, "velocity": 80}, {"time": 2101, "pitch": 74, "duration": 4, "velocity": 86}, {"time": 2107, "pitch": 78, "duration": 5, "velocity": 86}, {"time": 2113, "pitch": 80, "duration": 6, "velocity": 88}, {"time": 2119, "pitch": 68, "duration": 5, "velocity": 87}, {"time": 2125, "pitch": 73, "duration": 5, "velocity": 79}, {"time": 2131, "pitch": 76, "duration": 5, "velocity": 85}, {"time": 2137, "pitch": 73, "duration": 11, "velocity": 88}, {"time": 2149, "pitch": 71, "duration": 2, "velocity": 80}, {"time": 2149, "pitch": 74, "duration": 2, "velocity": 86}, {"time": 2152, "pitch": 69, "duration": 7, "velocity": 83}, {"time": 2152, "pitch": 73, "duration": 9, "velocity": 87}, {"time": 2161, "pitch": 62, "duration": 24, "velocity": 80}, {"time": 2161, "pitch": 74, "duration": 5, "velocity": 98}, {"time": 2167, "pitch": 76, "duration": 6, "velocity": 91}, {"time": 2173, "pitch": 78, "duration": 5, "velocity": 91}, {"time": 2179, "pitch": 81, "duration": 6, "velocity": 93}, {"time": 2185, "pitch": 64, "duration": 18, "velocity": 84}, {"time": 2185, "pitch": 80, "duration": 6, "velocity": 90}, {"time": 2191, "pitch": 78, "duration": 7, "velocity": 101}, {"time": 2197, "pitch": 76, "duration": 6, "velocity": 95}, {"time": 2203, "pitch": 59, "duration": 5, "velocity": 85}, {"time": 2203, "pitch": 74, "duration": 6, "velocity": 91}, {"time": 2209, "pitch": 61, "duration": 12, "velocity": 76}, {"time": 2209, "pitch": 73, "duration": 5, "velocity": 88}, {"time": 2215, "pitch": 76, "duration": 5, "velocity": 91}, {"time": 2221, "pitch": 59, "duration": 12, "velocity": 84}, {"time": 2221, "pitch": 83, "duration": 9, "velocity": 91}, {"time": 2230, "pitch": 80, "duration": 2, "velocity": 88}, {"time": 2233, "pitch": 57, "duration": 20, "velocity": 79}, {"time": 2233, "pitch": 61, "duration": 21, "velocity": 79}, {"time": 2233, "pitch": 81, "duration": 13, "velocity": 85}, {"time": 2248, "pitch": 76, "duration": 3, "velocity": 87}, {"time": 2251, "pitch": 74, "duration": 3, "velocity": 95}, {"time": 2254, "pitch": 73, "duration": 4, "velocity": 85}, {"time": 2257, "pitch": 62, "duration": 22, "velocity": 78}, {"time": 2257, "pitch": 74, "duration": 15, "velocity": 95}, {"time": 2275, "pitch": 78, "duration": 6, "velocity": 89}, {"time": 2281, "pitch": 64, "duration": 12, "velocity": 86}, {"time": 2281, "pitch": 76, "duration": 16, "velocity": 95}, {"time": 2293, "pitch": 59, "duration": 11, "velocity": 80}, {"time": 2299, "pitch": 80, "duration": 6, "velocity": 98}, {"time": 2305, "pitch": 57, "duration": 18, "velocity": 80}, {"time": 2305, "pitch": 81, "duration": 41, "velocity": 87}, {"time": 2323, "pitch": 59, "duration": 6, "velocity": 79}, {"time": 2329, "pitch": 57, "duration": 23, "velocity": 83}, {"time": 2329, "pitch": 61, "duration": 23, "velocity": 77}, {"time": 2335, "pitch": 69, "duration": 4, "velocity": 86}, {"time": 2338, "pitch": 71, "duration": 3, "velocity": 81}, {"time": 2341, "pitch": 64, "duration": 12, "velocity": 84}, {"time": 2341, "pitch": 73, "duration": 3, "velocity": 85}, {"time": 2344, "pitch": 76, "duration": 3, "velocity": 91}, {"time": 2347, "pitch": 78, "duration": 3, "velocity": 90}, {"time": 2350, "pitch": 80, "duration": 3, "velocity": 84}, {"time": 2353, "pitch": 81, "duration": 23, "velocity": 87}, {"time": 2401, "pitch": 80, "duration": 26, "velocity": 87}, {"time": 2437, "pitch": 73, "duration": 3, "velocity": 86}, {"time": 2440, "pitch": 76, "duration": 3, "velocity": 90}, {"time": 2443, "pitch": 78, "duration": 3, "velocity": 87}, {"time": 2446, "pitch": 80, "duration": 3, "velocity": 93}, {"time": 2449, "pitch": 78, "duration": 24, "velocity": 82}, {"time": 2473, "pitch": 76, "duration": 22, "velocity": 85}, {"time": 2497, "pitch": 74, "duration": 3, "velocity": 91}, {"time": 2500, "pitch": 73, "duration": 3, "velocity": 95}, {"time": 2503, "pitch": 71, "duration": 2, "velocity": 85}, {"time": 2506, "pitch": 69, "duration": 3, "velocity": 86}, {"time": 2509, "pitch": 71, "duration": 3, "velocity": 89}, {"time": 2512, "pitch": 73, "duration": 3, "velocity": 87}, {"time": 2515, "pitch": 74, "duration": 4, "velocity": 90}, {"time": 2524, "pitch": 68, "duration": 3, "velocity": 86}, {"time": 2527, "pitch": 69, "duration": 3, "velocity": 79}, {"time": 2530, "pitch": 71, "duration": 3, "velocity": 84}, {"time": 2533, "pitch": 73, "duration": 3, "velocity": 85}, {"time": 2536, "pitch": 74, "duration": 3, "velocity": 86}, {"time": 2539, "pitch": 76, "duration": 3, "velocity": 87}, {"time": 2542, "pitch": 77, "duration": 4, "velocity": 86}, {"time": 2545, "pitch": 78, "duration": 24, "velocity": 87}, {"time": 2569, "pitch": 80, "duration": 24, "velocity": 85}, {"time": 2593, "pitch": 74, "duration": 24, "velocity": 84}, {"time": 2593, "pitch": 81, "duration": 46, "velocity": 84}, {"time": 2617, "pitch": 75, "duration": 22, "velocity": 72}, {"time": 2640, "pitch": 71, "duration": 49, "velocity": 70}, {"time": 2640, "pitch": 74, "duration": 49, "velocity": 84}, {"time": 2641, "pitch": 78, "duration": 48, "velocity": 68}, {"time": 2713, "pitch": 56, "duration": 6, "velocity": 86}, {"time": 2713, "pitch": 68, "duration": 5, "velocity": 86}, {"time": 2722, "pitch": 57, "duration": 5, "velocity": 84}, {"time": 2722, "pitch": 69, "duration": 4, "velocity": 85}, {"time": 2731, "pitch": 59, "duration": 5, "velocity": 90}, {"time": 2731, "pitch": 71, "duration": 5, "velocity": 85}, {"time": 2740, "pitch": 61, "duration": 6, "velocity": 91}, {"time": 2740, "pitch": 73, "duration": 6, "velocity": 86}, {"time": 2749, "pitch": 62, "duration": 4, "velocity": 86}, {"time": 2749, "pitch": 74, "duration": 4, "velocity": 86}, {"time": 2755, "pitch": 64, "duration": 5, "velocity": 91}, {"time": 2755, "pitch": 76, "duration": 4, "velocity": 90}, {"time": 2761, "pitch": 76, "duration": 18, "velocity": 84}, {"time": 2779, "pitch": 74, "duration": 3, "velocity": 84}, {"time": 2782, "pitch": 76, "duration": 3, "velocity": 85}, {"time": 2785, "pitch": 78, "duration": 17, "velocity": 80}, {"time": 2803, "pitch": 76, "duration": 2, "velocity": 85}, {"time": 2806, "pitch": 78, "duration": 2, "velocity": 80}, {"time": 2809, "pitch": 80, "duration": 19, "velocity": 83}, {"time": 2830, "pitch": 80, "duration": 3, "velocity": 73}, {"time": 2833, "pitch": 90, "duration": 1, "velocity": 88}, {"time": 2836, "pitch": 88, "duration": 2, "velocity": 85}, {"time": 2839, "pitch": 86, "duration": 1, "velocity": 87}, {"time": 2842, "pitch": 85, "duration": 1, "velocity": 98}, {"time": 2845, "pitch": 83, "duration": 1, "velocity": 85}, {"time": 2848, "pitch": 68, "duration": 3, "velocity": 73}, {"time": 2848, "pitch": 81, "duration": 1, "velocity": 89}, {"time": 2851, "pitch": 69, "duration": 3, "velocity": 82}, {"time": 2851, "pitch": 80, "duration": 2, "velocity": 81}, {"time": 2854, "pitch": 71, "duration": 3, "velocity": 82}, {"time": 2854, "pitch": 78, "duration": 3, "velocity": 84}, {"time": 2857, "pitch": 73, "duration": 18, "velocity": 75}, {"time": 2857, "pitch": 76, "duration": 11, "velocity": 84}, {"time": 2875, "pitch": 71, "duration": 3, "velocity": 86}, {"time": 2878, "pitch": 73, "duration": 2, "velocity": 81}, {"time": 2881, "pitch": 74, "duration": 18, "velocity": 88}, {"time": 2899, "pitch": 73, "duration": 3, "velocity": 88}, {"time": 2902, "pitch": 74, "duration": 2, "velocity": 87}, {"time": 2905, "pitch": 76, "duration": 24, "velocity": 84}, {"time": 2929, "pitch": 74, "duration": 6, "velocity": 79}, {"time": 2929, "pitch": 86, "duration": 6, "velocity": 79}, {"time": 2935, "pitch": 73, "duration": 6, "velocity": 79}, {"time": 2935, "pitch": 85, "duration": 6, "velocity": 85}, {"time": 2941, "pitch": 71, "duration": 12, "velocity": 85}, {"time": 2941, "pitch": 83, "duration": 6, "velocity": 79}, {"time": 2947, "pitch": 85, "duration": 2, "velocity": 84}, {"time": 2950, "pitch": 88, "duration": 2, "velocity": 85}, {"time": 2953, "pitch": 69, "duration": 24, "velocity": 82}, {"time": 2953, "pitch": 86, "duration": 21, "velocity": 76}, {"time": 2977, "pitch": 71, "duration": 18, "velocity": 84}, {"time": 3001, "pitch": 73, "duration": 11, "velocity": 85}, {"time": 3013, "pitch": 71, "duration": 12, "velocity": 83}, {"time": 3025, "pitch": 69, "duration": 24, "velocity": 84}, {"time": 3043, "pitch": 85, "duration": 4, "velocity": 86}, {"time": 3049, "pitch": 74, "duration": 21, "velocity": 84}, {"time": 3049, "pitch": 78, "duration": 23, "velocity": 76}, {"time": 3049, "pitch": 81, "duration": 19, "velocity": 72}, {"time": 3049, "pitch": 86, "duration": 20, "velocity": 78}, {"time": 3073, "pitch": 76, "duration": 18, "velocity": 83}, {"time": 3091, "pitch": 74, "duration": 6, "velocity": 85}, {"time": 3097, "pitch": 69, "duration": 47, "velocity": 77}, {"time": 3097, "pitch": 73, "duration": 47, "velocity": 75}, {"time": 3145, "pitch": 78, "duration": 13, "velocity": 83}, {"time": 3157, "pitch": 74, "duration": 9, "velocity": 81}, {"time": 3163, "pitch": 78, "duration": 8, "velocity": 72}, {"time": 3170, "pitch": 80, "duration": 52, "velocity": 81}, {"time": 3221, "pitch": 81, "duration": 44, "velocity": 71}, {"time": 3221, "pitch": 76, "duration": 33, "velocity": 67}, {"time": 3277, "pitch": 81, "duration": 12, "velocity": 80}, {"time": 3288, "pitch": 78, "duration": 19, "velocity": 70}, {"time": 3306, "pitch": 81, "duration": 7, "velocity": 79}, {"time": 3312, "pitch": 76, "duration": 25, "velocity": 79}, {"time": 3336, "pitch": 78, "duration": 24, "velocity": 73}, {"time": 3360, "pitch": 64, "duration": 7, "velocity": 91}, {"time": 3367, "pitch": 73, "duration": 20, "velocity": 95}, {"time": 3387, "pitch": 74, "duration": 16, "velocity": 101}, {"time": 3402, "pitch": 73, "duration": 11, "velocity": 86}, {"time": 3413, "pitch": 66, "duration": 9, "velocity": 84}, {"time": 3421, "pitch": 68, "duration": 12, "velocity": 85}, {"time": 3433, "pitch": 69, "duration": 76, "velocity": 88}]}, {"program": 0, "is_drum": false, "name": "PIANO", "notes": [{"time": 25, "pitch": 45, "duration": 21, "velocity": 84}, {"time": 31, "pitch": 52, "duration": 16, "velocity": 65}, {"time": 37, "pitch": 69, "duration": 14, "velocity": 84}, {"time": 40, "pitch": 64, "duration": 9, "velocity": 73}, {"time": 43, "pitch": 61, "duration": 6, "velocity": 70}, {"time": 46, "pitch": 57, "duration": 3, "velocity": 85}, {"time": 49, "pitch": 47, "duration": 24, "velocity": 85}, {"time": 55, "pitch": 54, "duration": 18, "velocity": 73}, {"time": 61, "pitch": 71, "duration": 5, "velocity": 86}, {"time": 64, "pitch": 66, "duration": 8, "velocity": 74}, {"time": 67, "pitch": 62, "duration": 5, "velocity": 77}, {"time": 70, "pitch": 59, "duration": 3, "velocity": 79}, {"time": 73, "pitch": 45, "duration": 21, "velocity": 84}, {"time": 79, "pitch": 52, "duration": 16, "velocity": 65}, {"time": 85, "pitch": 69, "duration": 14, "velocity": 84}, {"time": 88, "pitch": 64, "duration": 9, "velocity": 73}, {"time": 91, "pitch": 61, "duration": 6, "velocity": 70}, {"time": 94, "pitch": 57, "duration": 3, "velocity": 85}, {"time": 97, "pitch": 47, "duration": 24, "velocity": 85}, {"time": 103, "pitch": 54, "duration": 18, "velocity": 73}, {"time": 109, "pitch": 71, "duration": 5, "velocity": 86}, {"time": 112, "pitch": 66, "duration": 8, "velocity": 74}, {"time": 115, "pitch": 62, "duration": 5, "velocity": 77}, {"time": 118, "pitch": 59, "duration": 3, "velocity": 79}, {"time": 121, "pitch": 45, "duration": 21, "velocity": 84}, {"time": 127, "pitch": 52, "duration": 16, "velocity": 65}, {"time": 133, "pitch": 69, "duration": 14, "velocity": 84}, {"time": 136, "pitch": 64, "duration": 9, "velocity": 73}, {"time": 139, "pitch": 61, "duration": 6, "velocity": 70}, {"time": 142, "pitch": 57, "duration": 3, "velocity": 85}, {"time": 145, "pitch": 47, "duration": 24, "velocity": 85}, {"time": 151, "pitch": 54, "duration": 18, "velocity": 73}, {"time": 157, "pitch": 71, "duration": 5, "velocity": 86}, {"time": 160, "pitch": 66, "duration": 8, "velocity": 74}, {"time": 163, "pitch": 62, "duration": 5, "velocity": 77}, {"time": 166, "pitch": 59, "duration": 3, "velocity": 79}, {"time": 169, "pitch": 45, "duration": 2, "velocity": 84}, {"time": 169, "pitch": 57, "duration": 2, "velocity": 73}, {"time": 169, "pitch": 61, "duration": 2, "velocity": 78}, {"time": 175, "pitch": 47, "duration": 14, "velocity": 85}, {"time": 175, "pitch": 59, "duration": 15, "velocity": 75}, {"time": 175, "pitch": 62, "duration": 15, "velocity": 77}, {"time": 193, "pitch": 40, "duration": 17, "velocity": 88}, {"time": 199, "pitch": 47, "duration": 10, "velocity": 70}, {"time": 202, "pitch": 52, "duration": 15, "velocity": 84}, {"time": 205, "pitch": 56, "duration": 11, "velocity": 79}, {"time": 205, "pitch": 59, "duration": 11, "velocity": 83}, {"time": 205, "pitch": 64, "duration": 12, "velocity": 85}, {"time": 217, "pitch": 50, "duration": 18, "velocity": 86}, {"time": 217, "pitch": 62, "duration": 7, "velocity": 78}, {"time": 217, "pitch": 66, "duration": 9, "velocity": 80}, {"time": 223, "pitch": 57, "duration": 12, "velocity": 74}, {"time": 229, "pitch": 69, "duration": 7, "velocity": 86}, {"time": 232, "pitch": 62, "duration": 3, "velocity": 79}, {"time": 235, "pitch": 66, "duration": 6, "velocity": 77}, {"time": 238, "pitch": 62, "duration": 2, "velocity": 67}, {"time": 241, "pitch": 52, "duration": 16, "velocity": 85}, {"time": 241, "pitch": 68, "duration": 12, "velocity": 72}, {"time": 247, "pitch": 59, "duration": 10, "velocity": 73}, {"time": 253, "pitch": 64, "duration": 5, "velocity": 88}, {"time": 265, "pitch": 49, "duration": 19, "velocity": 84}, {"time": 265, "pitch": 61, "duration": 9, "velocity": 74}, {"time": 265, "pitch": 68, "duration": 9, "velocity": 74}, {"time": 271, "pitch": 56, "duration": 5, "velocity": 72}, {"time": 274, "pitch": 64, "duration": 5, "velocity": 80}, {"time": 277, "pitch": 61, "duration": 6, "velocity": 84}, {"time": 283, "pitch": 56, "duration": 2, "velocity": 78}, {"time": 286, "pitch": 61, "duration": 4, "velocity": 84}, {"time": 289, "pitch": 42, "duration": 17, "velocity": 86}, {"time": 295, "pitch": 49, "duration": 10, "velocity": 62}, {"time": 298, "pitch": 61, "duration": 9, "velocity": 90}, {"time": 304, "pitch": 57, "duration": 4, "velocity": 75}, {"time": 307, "pitch": 54, "duration": 4, "velocity": 79}, {"time": 310, "pitch": 61, "duration": 3, "velocity": 74}, {"time": 313, "pitch": 50, "duration": 17, "velocity": 84}, {"time": 319, "pitch": 62, "duration": 4, "velocity": 82}, {"time": 322, "pitch": 57, "duration": 4, "velocity": 74}, {"time": 325, "pitch": 66, "duration": 6, "velocity": 90}, {"time": 328, "pitch": 57, "duration": 4, "velocity": 84}, {"time": 331, "pitch": 62, "duration": 6, "velocity": 73}, {"time": 334, "pitch": 57, "duration": 2, "velocity": 68}, {"time": 337, "pitch": 40, "duration": 16, "velocity": 85}, {"time": 337, "pitch": 59, "duration": 1, "velocity": 73}, {"time": 337, "pitch": 64, "duration": 27, "velocity": 82}, {"time": 343, "pitch": 47, "duration": 9, "velocity": 74}, {"time": 349, "pitch": 52, "duration": 3, "velocity": 80}, {"time": 349, "pitch": 56, "duration": 10, "velocity": 76}, {"time": 349, "pitch": 59, "duration": 11, "velocity": 79}, {"time": 355, "pitch": 52, "duration": 5, "velocity": 84}, {"time": 361, "pitch": 45, "duration": 19, "velocity": 85}, {"time": 367, "pitch": 52, "duration": 11, "velocity": 78}, {"time": 373, "pitch": 59, "duration": 8, "velocity": 73}, {"time": 379, "pitch": 57, "duration": 4, "velocity": 78}, {"time": 385, "pitch": 45, "duration": 18, "velocity": 80}, {"time": 385, "pitch": 57, "duration": 5, "velocity": 70}, {"time": 385, "pitch": 61, "duration": 4, "velocity": 70}, {"time": 385, "pitch": 64, "duration": 5, "velocity": 79}, {"time": 391, "pitch": 52, "duration": 12, "velocity": 64}, {"time": 397, "pitch": 57, "duration": 4, "velocity": 64}, {"time": 397, "pitch": 61, "duration": 5, "velocity": 71}, {"time": 409, "pitch": 45, "duration": 19, "velocity": 85}, {"time": 415, "pitch": 52, "duration": 15, "velocity": 73}, {"time": 421, "pitch": 57, "duration": 6, "velocity": 83}, {"time": 421, "pitch": 64, "duration": 19, "velocity": 85}, {"time": 433, "pitch": 47, "duration": 19, "velocity": 85}, {"time": 439, "pitch": 54, "duration": 7, "velocity": 72}, {"time": 442, "pitch": 57, "duration": 3, "velocity": 84}, {"time": 445, "pitch": 62, "duration": 6, "velocity": 86}, {"time": 448, "pitch": 54, "duration": 3, "velocity": 73}, {"time": 457, "pitch": 45, "duration": 20, "velocity": 80}, {"time": 457, "pitch": 57, "duration": 7, "velocity": 74}, {"time": 457, "pitch": 61, "duration": 10, "velocity": 78}, {"time": 463, "pitch": 52, "duration": 16, "velocity": 74}, {"time": 466, "pitch": 57, "duration": 6, "velocity": 82}, {"time": 472, "pitch": 64, "duration": 8, "velocity": 89}, {"time": 475, "pitch": 57, "duration": 3, "velocity": 79}, {"time": 481, "pitch": 47, "duration": 18, "velocity": 85}, {"time": 481, "pitch": 62, "duration": 12, "velocity": 79}, {"time": 490, "pitch": 54, "duration": 8, "velocity": 75}, {"time": 493, "pitch": 57, "duration": 4, "velocity": 85}, {"time": 496, "pitch": 62, "duration": 3, "velocity": 85}, {"time": 499, "pitch": 64, "duration": 13, "velocity": 85}, {"time": 505, "pitch": 45, "duration": 17, "velocity": 84}, {"time": 511, "pitch": 52, "duration": 8, "velocity": 76}, {"time": 517, "pitch": 57, "duration": 4, "velocity": 77}, {"time": 517, "pitch": 61, "duration": 7, "velocity": 79}, {"time": 523, "pitch": 57, "duration": 2, "velocity": 73}, {"time": 529, "pitch": 47, "duration": 17, "velocity": 81}, {"time": 529, "pitch": 62, "duration": 9, "velocity": 80}, {"time": 535, "pitch": 54, "duration": 9, "velocity": 68}, {"time": 538, "pitch": 57, "duration": 6, "velocity": 78}, {"time": 544, "pitch": 62, "duration": 4, "velocity": 79}, {"time": 547, "pitch": 57, "duration": 1, "velocity": 76}, {"time": 553, "pitch": 45, "duration": 20, "velocity": 85}, {"time": 553, "pitch": 57, "duration": 9, "velocity": 76}, {"time": 553, "pitch": 61, "duration": 9, "velocity": 77}, {"time": 559, "pitch": 52, "duration": 15, "velocity": 73}, {"time": 562, "pitch": 64, "duration": 7, "velocity": 87}, {"time": 568, "pitch": 61, "duration": 4, "velocity": 86}, {"time": 571, "pitch": 57, "duration": 2, "velocity": 76}, {"time": 577, "pitch": 47, "duration": 19, "velocity": 79}, {"time": 577, "pitch": 59, "duration": 6, "velocity": 68}, {"time": 577, "pitch": 62, "duration": 9, "velocity": 75}, {"time": 583, "pitch": 54, "duration": 7, "velocity": 70}, {"time": 586, "pitch": 57, "duration": 1, "velocity": 72}, {"time": 589, "pitch": 57, "duration": 6, "velocity": 85}, {"time": 589, "pitch": 62, "duration": 7, "velocity": 85}, {"time": 601, "pitch": 50, "duration": 16, "velocity": 84}, {"time": 601, "pitch": 57, "duration": 4, "velocity": 77}, {"time": 601, "pitch": 62, "duration": 13, "velocity": 79}, {"time": 607, "pitch": 57, "duration": 7, "velocity": 75}, {"time": 613, "pitch": 66, "duration": 9, "velocity": 86}, {"time": 619, "pitch": 57, "duration": 4, "velocity": 68}, {"time": 622, "pitch": 62, "duration": 3, "velocity": 81}, {"time": 625, "pitch": 40, "duration": 16, "velocity": 86}, {"time": 625, "pitch": 64, "duration": 16, "velocity": 84}, {"time": 631, "pitch": 47, "duration": 9, "velocity": 69}, {"time": 634, "pitch": 52, "duration": 8, "velocity": 84}, {"time": 640, "pitch": 56, "duration": 6, "velocity": 91}, {"time": 643, "pitch": 64, "duration": 10, "velocity": 86}, {"time": 646, "pitch": 52, "duration": 2, "velocity": 86}, {"time": 649, "pitch": 45, "duration": 8, "velocity": 87}, {"time": 652, "pitch": 52, "duration": 8, "velocity": 70}, {"time": 655, "pitch": 57, "duration": 4, "velocity": 85}, {"time": 661, "pitch": 44, "duration": 7, "velocity": 79}, {"time": 661, "pitch": 56, "duration": 6, "velocity": 80}, {"time": 661, "pitch": 59, "duration": 6, "velocity": 76}, {"time": 673, "pitch": 42, "duration": 17, "velocity": 85}, {"time": 673, "pitch": 54, "duration": 9, "velocity": 80}, {"time": 673, "pitch": 61, "duration": 10, "velocity": 79}, {"time": 679, "pitch": 49, "duration": 10, "velocity": 58}, {"time": 682, "pitch": 57, "duration": 7, "velocity": 76}, {"time": 688, "pitch": 66, "duration": 9, "velocity": 81}, {"time": 691, "pitch": 54, "duration": 4, "velocity": 85}, {"time": 694, "pitch": 57, "duration": 2, "velocity": 84}, {"time": 697, "pitch": 49, "duration": 13, "velocity": 87}, {"time": 703, "pitch": 56, "duration": 7, "velocity": 69}, {"time": 709, "pitch": 61, "duration": 2, "velocity": 78}, {"time": 709, "pitch": 64, "duration": 11, "velocity": 84}, {"time": 709, "pitch": 68, "duration": 14, "velocity": 75}, {"time": 721, "pitch": 50, "duration": 8, "velocity": 89}, {"time": 724, "pitch": 57, "duration": 6, "velocity": 74}, {"time": 727, "pitch": 62, "duration": 5, "velocity": 83}, {"time": 730, "pitch": 66, "duration": 6, "velocity": 69}, {"time": 733, "pitch": 47, "duration": 10, "velocity": 86}, {"time": 736, "pitch": 59, "duration": 4, "velocity": 73}, {"time": 739, "pitch": 63, "duration": 3, "velocity": 72}, {"time": 742, "pitch": 59, "duration": 1, "velocity": 62}, {"time": 745, "pitch": 40, "duration": 22, "velocity": 84}, {"time": 745, "pitch": 59, "duration": 6, "velocity": 67}, {"time": 745, "pitch": 64, "duration": 9, "velocity": 78}, {"time": 751, "pitch": 47, "duration": 15, "velocity": 73}, {"time": 754, "pitch": 59, "duration": 6, "velocity": 81}, {"time": 760, "pitch": 64, "duration": 3, "velocity": 85}, {"time": 763, "pitch": 59, "duration": 4, "velocity": 77}, {"time": 766, "pitch": 64, "duration": 13, "velocity": 80}, {"time": 769, "pitch": 40, "duration": 23, "velocity": 84}, {"time": 769, "pitch": 59, "duration": 10, "velocity": 62}, {"time": 769, "pitch": 68, "duration": 10, "velocity": 77}, {"time": 781, "pitch": 59, "duration": 3, "velocity": 86}, {"time": 781, "pitch": 64, "duration": 12, "velocity": 89}, {"time": 787, "pitch": 59, "duration": 7, "velocity": 84}, {"time": 793, "pitch": 45, "duration": 19, "velocity": 84}, {"time": 793, "pitch": 57, "duration": 8, "velocity": 78}, {"time": 793, "pitch": 64, "duration": 1, "velocity": 84}, {"time": 799, "pitch": 52, "duration": 8, "velocity": 80}, {"time": 805, "pitch": 57, "duration": 6, "velocity": 80}, {"time": 805, "pitch": 61, "duration": 7, "velocity": 85}, {"time": 805, "pitch": 64, "duration": 10, "velocity": 87}, {"time": 811, "pitch": 52, "duration": 4, "velocity": 84}, {"time": 814, "pitch": 57, "duration": 2, "velocity": 84}, {"time": 817, "pitch": 47, "duration": 19, "velocity": 88}, {"time": 817, "pitch": 59, "duration": 6, "velocity": 84}, {"time": 817, "pitch": 62, "duration": 7, "velocity": 78}, {"time": 823, "pitch": 54, "duration": 8, "velocity": 80}, {"time": 826, "pitch": 59, "duration": 2, "velocity": 85}, {"time": 829, "pitch": 59, "duration": 7, "velocity": 86}, {"time": 829, "pitch": 62, "duration": 6, "velocity": 90}, {"time": 835, "pitch": 54, "duration": 5, "velocity": 81}, {"time": 841, "pitch": 49, "duration": 15, "velocity": 90}, {"time": 841, "pitch": 61, "duration": 5, "velocity": 84}, {"time": 841, "pitch": 64, "duration": 4, "velocity": 85}, {"time": 847, "pitch": 56, "duration": 7, "velocity": 78}, {"time": 853, "pitch": 61, "duration": 2, "velocity": 79}, {"time": 853, "pitch": 68, "duration": 7, "velocity": 93}, {"time": 856, "pitch": 56, "duration": 2, "velocity": 90}, {"time": 859, "pitch": 61, "duration": 3, "velocity": 86}, {"time": 865, "pitch": 50, "duration": 18, "velocity": 85}, {"time": 865, "pitch": 57, "duration": 3, "velocity": 77}, {"time": 865, "pitch": 62, "duration": 6, "velocity": 73}, {"time": 871, "pitch": 57, "duration": 4, "velocity": 84}, {"time": 874, "pitch": 62, "duration": 2, "velocity": 79}, {"time": 877, "pitch": 64, "duration": 5, "velocity": 93}, {"time": 883, "pitch": 62, "duration": 1, "velocity": 80}, {"time": 889, "pitch": 45, "duration": 20, "velocity": 85}, {"time": 889, "pitch": 57, "duration": 3, "velocity": 80}, {"time": 889, "pitch": 61, "duration": 6, "velocity": 78}, {"time": 892, "pitch": 52, "duration": 14, "velocity": 79}, {"time": 895, "pitch": 57, "duration": 2, "velocity": 80}, {"time": 898, "pitch": 59, "duration": 4, "velocity": 77}, {"time": 904, "pitch": 57, "duration": 2, "velocity": 80}, {"time": 904, "pitch": 61, "duration": 3, "velocity": 87}, {"time": 907, "pitch": 52, "duration": 5, "velocity": 84}, {"time": 913, "pitch": 47, "duration": 14, "velocity": 86}, {"time": 913, "pitch": 59, "duration": 6, "velocity": 78}, {"time": 913, "pitch": 62, "duration": 4, "velocity": 83}, {"time": 919, "pitch": 54, "duration": 7, "velocity": 74}, {"time": 925, "pitch": 59, "duration": 8, "velocity": 85}, {"time": 925, "pitch": 66, "duration": 3, "velocity": 85}, {"time": 937, "pitch": 37, "duration": 14, "velocity": 84}, {"time": 937, "pitch": 61, "duration": 10, "velocity": 82}, {"time": 937, "pitch": 68, "duration": 10, "velocity": 77}, {"time": 943, "pitch": 44, "duration": 8, "velocity": 85}, {"time": 946, "pitch": 64, "duration": 6, "velocity": 86}, {"time": 952, "pitch": 61, "duration": 3, "velocity": 85}, {"time": 955, "pitch": 68, "duration": 2, "velocity": 84}, {"time": 961, "pitch": 50, "duration": 16, "velocity": 85}, {"time": 961, "pitch": 57, "duration": 3, "velocity": 75}, {"time": 961, "pitch": 62, "duration": 6, "velocity": 80}, {"time": 967, "pitch": 57, "duration": 5, "velocity": 75}, {"time": 970, "pitch": 62, "duration": 3, "velocity": 85}, {"time": 976, "pitch": 57, "duration": 3, "velocity": 84}, {"time": 976, "pitch": 64, "duration": 4, "velocity": 84}, {"time": 979, "pitch": 62, "duration": 2, "velocity": 84}, {"time": 985, "pitch": 47, "duration": 20, "velocity": 84}, {"time": 985, "pitch": 59, "duration": 6, "velocity": 79}, {"time": 985, "pitch": 62, "duration": 9, "velocity": 84}, {"time": 991, "pitch": 54, "duration": 6, "velocity": 72}, {"time": 994, "pitch": 59, "duration": 7, "velocity": 85}, {"time": 1000, "pitch": 62, "duration": 6, "velocity": 87}, {"time": 1003, "pitch": 54, "duration": 2, "velocity": 80}, {"time": 1006, "pitch": 59, "duration": 5, "velocity": 85}, {"time": 1009, "pitch": 40, "duration": 18, "velocity": 87}, {"time": 1015, "pitch": 47, "duration": 11, "velocity": 76}, {"time": 1018, "pitch": 52, "duration": 6, "velocity": 86}, {"time": 1021, "pitch": 56, "duration": 5, "velocity": 88}, {"time": 1024, "pitch": 64, "duration": 11, "velocity": 89}, {"time": 1027, "pitch": 59, "duration": 4, "velocity": 82}, {"time": 1030, "pitch": 52, "duration": 3, "velocity": 86}, {"time": 1033, "pitch": 45, "duration": 7, "velocity": 89}, {"time": 1036, "pitch": 52, "duration": 9, "velocity": 82}, {"time": 1039, "pitch": 57, "duration": 4, "velocity": 86}, {"time": 1042, "pitch": 61, "duration": 1, "velocity": 85}, {"time": 1045, "pitch": 44, "duration": 9, "velocity": 85}, {"time": 1048, "pitch": 52, "duration": 6, "velocity": 82}, {"time": 1051, "pitch": 56, "duration": 5, "velocity": 85}, {"time": 1054, "pitch": 59, "duration": 2, "velocity": 78}, {"time": 1057, "pitch": 42, "duration": 11, "velocity": 80}, {"time": 1060, "pitch": 49, "duration": 9, "velocity": 75}, {"time": 1063, "pitch": 54, "duration": 4, "velocity": 84}, {"time": 1063, "pitch": 57, "duration": 2, "velocity": 79}, {"time": 1069, "pitch": 54, "duration": 7, "velocity": 80}, {"time": 1069, "pitch": 57, "duration": 8, "velocity": 83}, {"time": 1069, "pitch": 61, "duration": 10, "velocity": 83}, {"time": 1081, "pitch": 50, "duration": 15, "velocity": 84}, {"time": 1087, "pitch": 57, "duration": 4, "velocity": 89}, {"time": 1093, "pitch": 57, "duration": 3, "velocity": 85}, {"time": 1093, "pitch": 62, "duration": 7, "velocity": 85}, {"time": 1099, "pitch": 57, "duration": 4, "velocity": 79}, {"time": 1102, "pitch": 62, "duration": 4, "velocity": 80}, {"time": 1105, "pitch": 40, "duration": 13, "velocity": 84}, {"time": 1105, "pitch": 64, "duration": 18, "velocity": 85}, {"time": 1111, "pitch": 47, "duration": 7, "velocity": 79}, {"time": 1117, "pitch": 52, "duration": 3, "velocity": 85}, {"time": 1117, "pitch": 56, "duration": 5, "velocity": 76}, {"time": 1117, "pitch": 59, "duration": 5, "velocity": 80}, {"time": 1129, "pitch": 45, "duration": 22, "velocity": 85}, {"time": 1129, "pitch": 57, "duration": 7, "velocity": 82}, {"time": 1129, "pitch": 61, "duration": 8, "velocity": 85}, {"time": 1135, "pitch": 52, "duration": 7, "velocity": 79}, {"time": 1141, "pitch": 57, "duration": 3, "velocity": 87}, {"time": 1141, "pitch": 61, "duration": 4, "velocity": 100}, {"time": 1144, "pitch": 52, "duration": 7, "velocity": 86}, {"time": 1147, "pitch": 57, "duration": 4, "velocity": 84}, {"time": 1150, "pitch": 61, "duration": 1, "velocity": 75}, {"time": 1150, "pitch": 64, "duration": 2, "velocity": 84}, {"time": 1153, "pitch": 45, "duration": 16, "velocity": 88}, {"time": 1153, "pitch": 57, "duration": 6, "velocity": 82}, {"time": 1153, "pitch": 61, "duration": 6, "velocity": 83}, {"time": 1153, "pitch": 64, "duration": 7, "velocity": 84}, {"time": 1153, "pitch": 69, "duration": 6, "velocity": 86}, {"time": 1159, "pitch": 52, "duration": 8, "velocity": 84}, {"time": 1162, "pitch": 57, "duration": 2, "velocity": 84}, {"time": 1165, "pitch": 57, "duration": 3, "velocity": 93}, {"time": 1165, "pitch": 61, "duration": 3, "velocity": 101}, {"time": 1165, "pitch": 64, "duration": 3, "velocity": 98}, {"time": 1168, "pitch": 52, "duration": 2, "velocity": 84}, {"time": 1171, "pitch": 45, "duration": 1, "velocity": 87}, {"time": 1177, "pitch": 42, "duration": 22, "velocity": 91}, {"time": 1177, "pitch": 54, "duration": 3, "velocity": 84}, {"time": 1177, "pitch": 57, "duration": 3, "velocity": 85}, {"time": 1177, "pitch": 61, "duration": 7, "velocity": 84}, {"time": 1180, "pitch": 49, "duration": 20, "velocity": 73}, {"time": 1183, "pitch": 54, "duration": 4, "velocity": 85}, {"time": 1186, "pitch": 57, "duration": 1, "velocity": 79}, {"time": 1189, "pitch": 54, "duration": 6, "velocity": 78}, {"time": 1189, "pitch": 57, "duration": 1, "velocity": 84}, {"time": 1189, "pitch": 66, "duration": 4, "velocity": 90}, {"time": 1195, "pitch": 61, "duration": 3, "velocity": 87}, {"time": 1198, "pitch": 54, "duration": 2, "velocity": 86}, {"time": 1201, "pitch": 42, "duration": 16, "velocity": 90}, {"time": 1201, "pitch": 54, "duration": 4, "velocity": 72}, {"time": 1201, "pitch": 57, "duration": 6, "velocity": 85}, {"time": 1201, "pitch": 61, "duration": 4, "velocity": 74}, {"time": 1207, "pitch": 49, "duration": 7, "velocity": 80}, {"time": 1210, "pitch": 54, "duration": 1, "velocity": 81}, {"time": 1213, "pitch": 54, "duration": 3, "velocity": 89}, {"time": 1213, "pitch": 57, "duration": 3, "velocity": 88}, {"time": 1213, "pitch": 61, "duration": 3, "velocity": 85}, {"time": 1213, "pitch": 66, "duration": 5, "velocity": 86}, {"time": 1216, "pitch": 49, "duration": 2, "velocity": 79}, {"time": 1225, "pitch": 49, "duration": 15, "velocity": 93}, {"time": 1225, "pitch": 61, "duration": 3, "velocity": 87}, {"time": 1225, "pitch": 64, "duration": 5, "velocity": 88}, {"time": 1228, "pitch": 56, "duration": 10, "velocity": 75}, {"time": 1231, "pitch": 61, "duration": 3, "velocity": 79}, {"time": 1234, "pitch": 64, "duration": 1, "velocity": 74}, {"time": 1237, "pitch": 61, "duration": 3, "velocity": 91}, {"time": 1237, "pitch": 64, "duration": 4, "velocity": 100}, {"time": 1237, "pitch": 68, "duration": 4, "velocity": 95}, {"time": 1240, "pitch": 56, "duration": 2, "velocity": 75}, {"time": 1243, "pitch": 61, "duration": 4, "velocity": 84}, {"time": 1249, "pitch": 49, "duration": 14, "velocity": 88}, {"time": 1249, "pitch": 61, "duration": 7, "velocity": 83}, {"time": 1249, "pitch": 64, "duration": 7, "velocity": 85}, {"time": 1255, "pitch": 56, "duration": 6, "velocity": 80}, {"time": 1258, "pitch": 61, "duration": 1, "velocity": 75}, {"time": 1261, "pitch": 61, "duration": 3, "velocity": 93}, {"time": 1261, "pitch": 64, "duration": 4, "velocity": 98}, {"time": 1261, "pitch": 68, "duration": 4, "velocity": 84}, {"time": 1264, "pitch": 56, "duration": 1, "velocity": 84}, {"time": 1267, "pitch": 61, "duration": 1, "velocity": 88}, {"time": 1273, "pitch": 38, "duration": 16, "velocity": 88}, {"time": 1273, "pitch": 62, "duration": 4, "velocity": 84}, {"time": 1273, "pitch": 66, "duration": 3, "velocity": 84}, {"time": 1279, "pitch": 45, "duration": 7, "velocity": 72}, {"time": 1285, "pitch": 57, "duration": 2, "velocity": 85}, {"time": 1285, "pitch": 62, "duration": 4, "velocity": 87}, {"time": 1285, "pitch": 66, "duration": 5, "velocity": 85}, {"time": 1288, "pitch": 45, "duration": 2, "velocity": 85}, {"time": 1291, "pitch": 57, "duration": 1, "velocity": 93}, {"time": 1297, "pitch": 49, "duration": 14, "velocity": 95}, {"time": 1297, "pitch": 61, "duration": 7, "velocity": 77}, {"time": 1297, "pitch": 64, "duration": 6, "velocity": 88}, {"time": 1297, "pitch": 68, "duration": 6, "velocity": 84}, {"time": 1303, "pitch": 56, "duration": 7, "velocity": 69}, {"time": 1309, "pitch": 61, "duration": 3, "velocity": 93}, {"time": 1309, "pitch": 64, "duration": 4, "velocity": 101}, {"time": 1309, "pitch": 68, "duration": 5, "velocity": 90}, {"time": 1312, "pitch": 56, "duration": 2, "velocity": 82}, {"time": 1315, "pitch": 49, "duration": 1, "velocity": 81}, {"time": 1321, "pitch": 47, "duration": 15, "velocity": 89}, {"time": 1321, "pitch": 59, "duration": 7, "velocity": 81}, {"time": 1321, "pitch": 62, "duration": 8, "velocity": 84}, {"time": 1327, "pitch": 54, "duration": 7, "velocity": 69}, {"time": 1333, "pitch": 59, "duration": 3, "velocity": 91}, {"time": 1333, "pitch": 62, "duration": 4, "velocity": 93}, {"time": 1333, "pitch": 66, "duration": 4, "velocity": 95}, {"time": 1336, "pitch": 54, "duration": 2, "velocity": 84}, {"time": 1339, "pitch": 59, "duration": 4, "velocity": 93}, {"time": 1342, "pitch": 62, "duration": 2, "velocity": 88}, {"time": 1345, "pitch": 40, "duration": 18, "velocity": 90}, {"time": 1345, "pitch": 59, "duration": 2, "velocity": 86}, {"time": 1345, "pitch": 64, "duration": 2, "velocity": 93}, {"time": 1348, "pitch": 47, "duration": 7, "velocity": 80}, {"time": 1351, "pitch": 52, "duration": 2, "velocity": 87}, {"time": 1354, "pitch": 52, "duration": 4, "velocity": 88}, {"time": 1354, "pitch": 56, "duration": 3, "velocity": 89}, {"time": 1354, "pitch": 59, "duration": 4, "velocity": 90}, {"time": 1357, "pitch": 47, "duration": 4, "velocity": 86}, {"time": 1360, "pitch": 52, "duration": 3, "velocity": 98}, {"time": 1360, "pitch": 56, "duration": 7, "velocity": 105}, {"time": 1360, "pitch": 59, "duration": 8, "velocity": 95}, {"time": 1360, "pitch": 64, "duration": 9, "velocity": 93}, {"time": 1363, "pitch": 47, "duration": 1, "velocity": 85}, {"time": 1366, "pitch": 52, "duration": 2, "velocity": 100}, {"time": 1369, "pitch": 38, "duration": 16, "velocity": 95}, {"time": 1369, "pitch": 57, "duration": 8, "velocity": 86}, {"time": 1369, "pitch": 62, "duration": 8, "velocity": 88}, {"time": 1375, "pitch": 45, "duration": 7, "velocity": 76}, {"time": 1381, "pitch": 57, "duration": 3, "velocity": 87}, {"time": 1381, "pitch": 62, "duration": 4, "velocity": 93}, {"time": 1381, "pitch": 66, "duration": 5, "velocity": 90}, {"time": 1384, "pitch": 45, "duration": 1, "velocity": 86}, {"time": 1387, "pitch": 57, "duration": 1, "velocity": 91}, {"time": 1393, "pitch": 49, "duration": 14, "velocity": 98}, {"time": 1393, "pitch": 61, "duration": 8, "velocity": 84}, {"time": 1393, "pitch": 64, "duration": 7, "velocity": 86}, {"time": 1393, "pitch": 68, "duration": 7, "velocity": 79}, {"time": 1399, "pitch": 56, "duration": 7, "velocity": 68}, {"time": 1405, "pitch": 61, "duration": 3, "velocity": 98}, {"time": 1405, "pitch": 64, "duration": 3, "velocity": 105}, {"time": 1405, "pitch": 68, "duration": 3, "velocity": 90}, {"time": 1408, "pitch": 56, "duration": 2, "velocity": 93}, {"time": 1411, "pitch": 49, "duration": 1, "velocity": 85}, {"time": 1417, "pitch": 50, "duration": 17, "velocity": 91}, {"time": 1417, "pitch": 57, "duration": 2, "velocity": 82}, {"time": 1417, "pitch": 62, "duration": 4, "velocity": 84}, {"time": 1417, "pitch": 66, "duration": 6, "velocity": 84}, {"time": 1420, "pitch": 57, "duration": 5, "velocity": 79}, {"time": 1423, "pitch": 62, "duration": 3, "velocity": 74}, {"time": 1429, "pitch": 57, "duration": 3, "velocity": 86}, {"time": 1429, "pitch": 62, "duration": 6, "velocity": 90}, {"time": 1429, "pitch": 66, "duration": 6, "velocity": 91}, {"time": 1435, "pitch": 57, "duration": 2, "velocity": 89}, {"time": 1441, "pitch": 39, "duration": 12, "velocity": 64}, {"time": 1441, "pitch": 63, "duration": 23, "velocity": 75}, {"time": 1441, "pitch": 66, "duration": 22, "velocity": 80}, {"time": 1441, "pitch": 69, "duration": 22, "velocity": 77}, {"time": 1464, "pitch": 66, "duration": 9, "velocity": 78}, {"time": 1464, "pitch": 59, "duration": 10, "velocity": 78}, {"time": 1464, "pitch": 47, "duration": 41, "velocity": 84}, {"time": 1470, "pitch": 54, "duration": 9, "velocity": 56}, {"time": 1477, "pitch": 66, "duration": 8, "velocity": 85}, {"time": 1477, "pitch": 59, "duration": 3, "velocity": 85}, {"time": 1477, "pitch": 62, "duration": 5, "velocity": 84}, {"time": 1483, "pitch": 59, "duration": 1, "velocity": 65}, {"time": 1488, "pitch": 59, "duration": 4, "velocity": 83}, {"time": 1488, "pitch": 62, "duration": 5, "velocity": 78}, {"time": 1500, "pitch": 66, "duration": 7, "velocity": 86}, {"time": 1500, "pitch": 59, "duration": 3, "velocity": 85}, {"time": 1500, "pitch": 62, "duration": 5, "velocity": 89}, {"time": 1507, "pitch": 59, "duration": 3, "velocity": 72}, {"time": 1512, "pitch": 40, "duration": 20, "velocity": 84}, {"time": 1513, "pitch": 64, "duration": 4, "velocity": 80}, {"time": 1513, "pitch": 59, "duration": 3, "velocity": 79}, {"time": 1513, "pitch": 40, "duration": 19, "velocity": 86}, {"time": 1513, "pitch": 52, "duration": 7, "velocity": 83}, {"time": 1513, "pitch": 64, "duration": 4, "velocity": 85}, {"time": 1519, "pitch": 47, "duration": 12, "velocity": 74}, {"time": 1525, "pitch": 56, "duration": 2, "velocity": 86}, {"time": 1525, "pitch": 59, "duration": 2, "velocity": 87}, {"time": 1531, "pitch": 52, "duration": 4, "velocity": 90}, {"time": 1537, "pitch": 40, "duration": 48, "velocity": 88}, {"time": 1537, "pitch": 52, "duration": 7, "velocity": 89}, {"time": 1537, "pitch": 56, "duration": 6, "velocity": 86}, {"time": 1537, "pitch": 59, "duration": 7, "velocity": 85}, {"time": 1543, "pitch": 47, "duration": 14, "velocity": 73}, {"time": 1546, "pitch": 52, "duration": 4, "velocity": 89}, {"time": 1546, "pitch": 57, "duration": 4, "velocity": 84}, {"time": 1555, "pitch": 52, "duration": 5, "velocity": 93}, {"time": 1555, "pitch": 59, "duration": 4, "velocity": 90}, {"time": 1561, "pitch": 47, "duration": 5, "velocity": 74}, {"time": 1564, "pitch": 52, "duration": 3, "velocity": 91}, {"time": 1564, "pitch": 61, "duration": 4, "velocity": 86}, {"time": 1567, "pitch": 47, "duration": 16, "velocity": 66}, {"time": 1573, "pitch": 52, "duration": 3, "velocity": 86}, {"time": 1573, "pitch": 62, "duration": 3, "velocity": 88}, {"time": 1579, "pitch": 52, "duration": 5, "velocity": 98}, {"time": 1579, "pitch": 64, "duration": 5, "velocity": 95}, {"time": 1585, "pitch": 45, "duration": 19, "velocity": 84}, {"time": 1585, "pitch": 57, "duration": 8, "velocity": 78}, {"time": 1585, "pitch": 64, "duration": 7, "velocity": 84}, {"time": 1591, "pitch": 52, "duration": 8, "velocity": 80}, {"time": 1597, "pitch": 57, "duration": 6, "velocity": 80}, {"time": 1597, "pitch": 61, "duration": 7, "velocity": 85}, {"time": 1597, "pitch": 64, "duration": 10, "velocity": 87}, {"time": 1603, "pitch": 52, "duration": 4, "velocity": 84}, {"time": 1606, "pitch": 57, "duration": 2, "velocity": 84}, {"time": 1609, "pitch": 47, "duration": 19, "velocity": 88}, {"time": 1609, "pitch": 59, "duration": 6, "velocity": 84}, {"time": 1609, "pitch": 62, "duration": 7, "velocity": 78}, {"time": 1615, "pitch": 54, "duration": 8, "velocity": 80}, {"time": 1618, "pitch": 59, "duration": 2, "velocity": 85}, {"time": 1621, "pitch": 59, "duration": 7, "velocity": 86}, {"time": 1621, "pitch": 62, "duration": 6, "velocity": 90}, {"time": 1627, "pitch": 54, "duration": 5, "velocity": 81}, {"time": 1633, "pitch": 49, "duration": 15, "velocity": 90}, {"time": 1633, "pitch": 61, "duration": 5, "velocity": 84}, {"time": 1633, "pitch": 64, "duration": 4, "velocity": 85}, {"time": 1639, "pitch": 56, "duration": 7, "velocity": 78}, {"time": 1645, "pitch": 61, "duration": 2, "velocity": 79}, {"time": 1645, "pitch": 68, "duration": 7, "velocity": 93}, {"time": 1648, "pitch": 56, "duration": 2, "velocity": 90}, {"time": 1651, "pitch": 61, "duration": 3, "velocity": 86}, {"time": 1657, "pitch": 50, "duration": 18, "velocity": 85}, {"time": 1657, "pitch": 57, "duration": 3, "velocity": 77}, {"time": 1657, "pitch": 62, "duration": 6, "velocity": 73}, {"time": 1663, "pitch": 57, "duration": 4, "velocity": 84}, {"time": 1666, "pitch": 62, "duration": 2, "velocity": 79}, {"time": 1669, "pitch": 64, "duration": 5, "velocity": 93}, {"time": 1675, "pitch": 62, "duration": 1, "velocity": 80}, {"time": 1681, "pitch": 45, "duration": 20, "velocity": 85}, {"time": 1681, "pitch": 57, "duration": 3, "velocity": 80}, {"time": 1681, "pitch": 61, "duration": 6, "velocity": 78}, {"time": 1684, "pitch": 52, "duration": 14, "velocity": 79}, {"time": 1687, "pitch": 57, "duration": 2, "velocity": 80}, {"time": 1690, "pitch": 59, "duration": 4, "velocity": 77}, {"time": 1696, "pitch": 57, "duration": 2, "velocity": 80}, {"time": 1696, "pitch": 61, "duration": 3, "velocity": 87}, {"time": 1699, "pitch": 52, "duration": 5, "velocity": 84}, {"time": 1705, "pitch": 47, "duration": 14, "velocity": 86}, {"time": 1705, "pitch": 59, "duration": 6, "velocity": 78}, {"time": 1705, "pitch": 62, "duration": 4, "velocity": 83}, {"time": 1711, "pitch": 54, "duration": 7, "velocity": 74}, {"time": 1717, "pitch": 59, "duration": 8, "velocity": 85}, {"time": 1717, "pitch": 66, "duration": 3, "velocity": 85}, {"time": 1729, "pitch": 37, "duration": 14, "velocity": 84}, {"time": 1729, "pitch": 61, "duration": 10, "velocity": 82}, {"time": 1729, "pitch": 68, "duration": 10, "velocity": 77}, {"time": 1735, "pitch": 44, "duration": 8, "velocity": 85}, {"time": 1738, "pitch": 64, "duration": 6, "velocity": 86}, {"time": 1744, "pitch": 61, "duration": 3, "velocity": 85}, {"time": 1747, "pitch": 68, "duration": 2, "velocity": 84}, {"time": 1753, "pitch": 50, "duration": 16, "velocity": 85}, {"time": 1753, "pitch": 57, "duration": 3, "velocity": 75}, {"time": 1753, "pitch": 62, "duration": 6, "velocity": 80}, {"time": 1759, "pitch": 57, "duration": 5, "velocity": 75}, {"time": 1762, "pitch": 62, "duration": 3, "velocity": 85}, {"time": 1768, "pitch": 57, "duration": 3, "velocity": 84}, {"time": 1768, "pitch": 64, "duration": 4, "velocity": 84}, {"time": 1771, "pitch": 62, "duration": 2, "velocity": 84}, {"time": 1777, "pitch": 47, "duration": 20, "velocity": 84}, {"time": 1777, "pitch": 59, "duration": 6, "velocity": 79}, {"time": 1777, "pitch": 62, "duration": 9, "velocity": 84}, {"time": 1783, "pitch": 54, "duration": 6, "velocity": 72}, {"time": 1786, "pitch": 59, "duration": 7, "velocity": 85}, {"time": 1792, "pitch": 62, "duration": 6, "velocity": 87}, {"time": 1795, "pitch": 54, "duration": 2, "velocity": 80}, {"time": 1798, "pitch": 59, "duration": 5, "velocity": 85}, {"time": 1801, "pitch": 40, "duration": 18, "velocity": 87}, {"time": 1807, "pitch": 47, "duration": 11, "velocity": 76}, {"time": 1810, "pitch": 52, "duration": 6, "velocity": 86}, {"time": 1813, "pitch": 56, "duration": 5, "velocity": 88}, {"time": 1816, "pitch": 64, "duration": 11, "velocity": 89}, {"time": 1819, "pitch": 59, "duration": 4, "velocity": 82}, {"time": 1822, "pitch": 52, "duration": 3, "velocity": 86}, {"time": 1825, "pitch": 45, "duration": 7, "velocity": 89}, {"time": 1828, "pitch": 52, "duration": 9, "velocity": 82}, {"time": 1831, "pitch": 57, "duration": 4, "velocity": 86}, {"time": 1834, "pitch": 61, "duration": 1, "velocity": 85}, {"time": 1837, "pitch": 44, "duration": 9, "velocity": 85}, {"time": 1840, "pitch": 52, "duration": 6, "velocity": 82}, {"time": 1843, "pitch": 56, "duration": 5, "velocity": 85}, {"time": 1846, "pitch": 59, "duration": 2, "velocity": 78}, {"time": 1849, "pitch": 42, "duration": 11, "velocity": 80}, {"time": 1852, "pitch": 49, "duration": 9, "velocity": 75}, {"time": 1855, "pitch": 54, "duration": 4, "velocity": 84}, {"time": 1855, "pitch": 57, "duration": 2, "velocity": 79}, {"time": 1861, "pitch": 54, "duration": 7, "velocity": 80}, {"time": 1861, "pitch": 57, "duration": 8, "velocity": 83}, {"time": 1861, "pitch": 61, "duration": 10, "velocity": 83}, {"time": 1873, "pitch": 50, "duration": 15, "velocity": 84}, {"time": 1879, "pitch": 57, "duration": 4, "velocity": 89}, {"time": 1885, "pitch": 57, "duration": 3, "velocity": 85}, {"time": 1885, "pitch": 62, "duration": 7, "velocity": 85}, {"time": 1891, "pitch": 57, "duration": 4, "velocity": 79}, {"time": 1894, "pitch": 62, "duration": 4, "velocity": 80}, {"time": 1897, "pitch": 40, "duration": 13, "velocity": 84}, {"time": 1897, "pitch": 64, "duration": 18, "velocity": 85}, {"time": 1903, "pitch": 47, "duration": 7, "velocity": 79}, {"time": 1909, "pitch": 52, "duration": 3, "velocity": 85}, {"time": 1909, "pitch": 56, "duration": 5, "velocity": 76}, {"time": 1909, "pitch": 59, "duration": 5, "velocity": 80}, {"time": 1921, "pitch": 45, "duration": 22, "velocity": 85}, {"time": 1921, "pitch": 57, "duration": 7, "velocity": 82}, {"time": 1921, "pitch": 61, "duration": 8, "velocity": 85}, {"time": 1927, "pitch": 52, "duration": 7, "velocity": 79}, {"time": 1933, "pitch": 57, "duration": 3, "velocity": 87}, {"time": 1933, "pitch": 61, "duration": 4, "velocity": 100}, {"time": 1936, "pitch": 52, "duration": 7, "velocity": 86}, {"time": 1939, "pitch": 57, "duration": 4, "velocity": 84}, {"time": 1942, "pitch": 61, "duration": 1, "velocity": 75}, {"time": 1942, "pitch": 64, "duration": 2, "velocity": 84}, {"time": 1945, "pitch": 45, "duration": 16, "velocity": 88}, {"time": 1945, "pitch": 57, "duration": 6, "velocity": 82}, {"time": 1945, "pitch": 61, "duration": 6, "velocity": 83}, {"time": 1945, "pitch": 64, "duration": 7, "velocity": 84}, {"time": 1945, "pitch": 69, "duration": 6, "velocity": 86}, {"time": 1951, "pitch": 52, "duration": 8, "velocity": 84}, {"time": 1954, "pitch": 57, "duration": 2, "velocity": 84}, {"time": 1957, "pitch": 57, "duration": 3, "velocity": 93}, {"time": 1957, "pitch": 61, "duration": 3, "velocity": 101}, {"time": 1957, "pitch": 64, "duration": 3, "velocity": 98}, {"time": 1960, "pitch": 52, "duration": 2, "velocity": 84}, {"time": 1963, "pitch": 45, "duration": 1, "velocity": 87}, {"time": 1969, "pitch": 45, "duration": 18, "velocity": 84}, {"time": 1969, "pitch": 57, "duration": 7, "velocity": 77}, {"time": 1969, "pitch": 64, "duration": 7, "velocity": 84}, {"time": 1975, "pitch": 52, "duration": 7, "velocity": 73}, {"time": 1981, "pitch": 57, "duration": 3, "velocity": 84}, {"time": 1981, "pitch": 61, "duration": 5, "velocity": 90}, {"time": 1981, "pitch": 64, "duration": 6, "velocity": 87}, {"time": 1984, "pitch": 52, "duration": 7, "velocity": 79}, {"time": 1987, "pitch": 57, "duration": 4, "velocity": 78}, {"time": 1990, "pitch": 61, "duration": 2, "velocity": 90}, {"time": 1993, "pitch": 47, "duration": 18, "velocity": 85}, {"time": 1993, "pitch": 59, "duration": 6, "velocity": 82}, {"time": 1993, "pitch": 62, "duration": 5, "velocity": 85}, {"time": 1999, "pitch": 54, "duration": 7, "velocity": 73}, {"time": 2005, "pitch": 59, "duration": 3, "velocity": 89}, {"time": 2005, "pitch": 66, "duration": 6, "velocity": 86}, {"time": 2008, "pitch": 54, "duration": 3, "velocity": 76}, {"time": 2011, "pitch": 59, "duration": 4, "velocity": 85}, {"time": 2014, "pitch": 62, "duration": 2, "velocity": 81}, {"time": 2017, "pitch": 49, "duration": 18, "velocity": 88}, {"time": 2017, "pitch": 64, "duration": 6, "velocity": 88}, {"time": 2023, "pitch": 56, "duration": 7, "velocity": 72}, {"time": 2029, "pitch": 61, "duration": 7, "velocity": 79}, {"time": 2029, "pitch": 68, "duration": 9, "velocity": 83}, {"time": 2035, "pitch": 56, "duration": 2, "velocity": 85}, {"time": 2038, "pitch": 61, "duration": 1, "velocity": 84}, {"time": 2041, "pitch": 50, "duration": 16, "velocity": 82}, {"time": 2041, "pitch": 57, "duration": 4, "velocity": 73}, {"time": 2041, "pitch": 62, "duration": 7, "velocity": 80}, {"time": 2047, "pitch": 57, "duration": 4, "velocity": 82}, {"time": 2053, "pitch": 57, "duration": 1, "velocity": 87}, {"time": 2053, "pitch": 62, "duration": 3, "velocity": 88}, {"time": 2056, "pitch": 57, "duration": 5, "velocity": 85}, {"time": 2059, "pitch": 62, "duration": 3, "velocity": 77}, {"time": 2062, "pitch": 64, "duration": 2, "velocity": 76}, {"time": 2065, "pitch": 45, "duration": 17, "velocity": 85}, {"time": 2065, "pitch": 57, "duration": 7, "velocity": 73}, {"time": 2065, "pitch": 61, "duration": 7, "velocity": 72}, {"time": 2071, "pitch": 52, "duration": 7, "velocity": 76}, {"time": 2077, "pitch": 57, "duration": 3, "velocity": 85}, {"time": 2077, "pitch": 61, "duration": 6, "velocity": 91}, {"time": 2077, "pitch": 64, "duration": 7, "velocity": 88}, {"time": 2080, "pitch": 52, "duration": 7, "velocity": 82}, {"time": 2083, "pitch": 57, "duration": 4, "velocity": 83}, {"time": 2086, "pitch": 61, "duration": 2, "velocity": 86}, {"time": 2089, "pitch": 47, "duration": 18, "velocity": 86}, {"time": 2089, "pitch": 59, "duration": 7, "velocity": 85}, {"time": 2089, "pitch": 62, "duration": 6, "velocity": 85}, {"time": 2095, "pitch": 54, "duration": 7, "velocity": 71}, {"time": 2101, "pitch": 59, "duration": 3, "velocity": 86}, {"time": 2101, "pitch": 62, "duration": 6, "velocity": 88}, {"time": 2104, "pitch": 54, "duration": 5, "velocity": 79}, {"time": 2107, "pitch": 59, "duration": 4, "velocity": 80}, {"time": 2110, "pitch": 62, "duration": 2, "velocity": 73}, {"time": 2113, "pitch": 49, "duration": 15, "velocity": 83}, {"time": 2113, "pitch": 64, "duration": 8, "velocity": 86}, {"time": 2119, "pitch": 56, "duration": 9, "velocity": 73}, {"time": 2125, "pitch": 61, "duration": 3, "velocity": 95}, {"time": 2125, "pitch": 64, "duration": 7, "velocity": 90}, {"time": 2131, "pitch": 61, "duration": 2, "velocity": 75}, {"time": 2137, "pitch": 37, "duration": 2, "velocity": 77}, {"time": 2137, "pitch": 61, "duration": 3, "velocity": 74}, {"time": 2137, "pitch": 64, "duration": 3, "velocity": 84}, {"time": 2137, "pitch": 68, "duration": 3, "velocity": 77}, {"time": 2149, "pitch": 50, "duration": 3, "velocity": 84}, {"time": 2149, "pitch": 62, "duration": 3, "velocity": 80}, {"time": 2152, "pitch": 49, "duration": 7, "velocity": 89}, {"time": 2152, "pitch": 61, "duration": 6, "velocity": 98}, {"time": 2161, "pitch": 47, "duration": 17, "velocity": 86}, {"time": 2161, "pitch": 59, "duration": 8, "velocity": 82}, {"time": 2161, "pitch": 62, "duration": 8, "velocity": 85}, {"time": 2167, "pitch": 54, "duration": 7, "velocity": 74}, {"time": 2173, "pitch": 59, "duration": 3, "velocity": 86}, {"time": 2173, "pitch": 62, "duration": 4, "velocity": 93}, {"time": 2173, "pitch": 66, "duration": 4, "velocity": 86}, {"time": 2176, "pitch": 54, "duration": 2, "velocity": 83}, {"time": 2179, "pitch": 59, "duration": 5, "velocity": 85}, {"time": 2182, "pitch": 62, "duration": 3, "velocity": 85}, {"time": 2185, "pitch": 40, "duration": 18, "velocity": 85}, {"time": 2185, "pitch": 64, "duration": 5, "velocity": 84}, {"time": 2188, "pitch": 47, "duration": 9, "velocity": 73}, {"time": 2191, "pitch": 52, "duration": 5, "velocity": 86}, {"time": 2194, "pitch": 56, "duration": 3, "velocity": 80}, {"time": 2197, "pitch": 59, "duration": 9, "velocity": 88}, {"time": 2200, "pitch": 47, "duration": 4, "velocity": 78}, {"time": 2203, "pitch": 52, "duration": 4, "velocity": 85}, {"time": 2206, "pitch": 56, "duration": 3, "velocity": 73}, {"time": 2209, "pitch": 45, "duration": 7, "velocity": 86}, {"time": 2212, "pitch": 52, "duration": 10, "velocity": 77}, {"time": 2215, "pitch": 57, "duration": 6, "velocity": 87}, {"time": 2218, "pitch": 61, "duration": 2, "velocity": 85}, {"time": 2221, "pitch": 44, "duration": 7, "velocity": 86}, {"time": 2224, "pitch": 52, "duration": 4, "velocity": 82}, {"time": 2227, "pitch": 56, "duration": 3, "velocity": 87}, {"time": 2230, "pitch": 59, "duration": 3, "velocity": 82}, {"time": 2233, "pitch": 42, "duration": 9, "velocity": 85}, {"time": 2236, "pitch": 49, "duration": 7, "velocity": 75}, {"time": 2239, "pitch": 54, "duration": 4, "velocity": 77}, {"time": 2242, "pitch": 57, "duration": 3, "velocity": 72}, {"time": 2245, "pitch": 40, "duration": 9, "velocity": 87}, {"time": 2248, "pitch": 47, "duration": 6, "velocity": 73}, {"time": 2251, "pitch": 52, "duration": 6, "velocity": 84}, {"time": 2254, "pitch": 56, "duration": 3, "velocity": 77}, {"time": 2257, "pitch": 38, "duration": 19, "velocity": 86}, {"time": 2260, "pitch": 45, "duration": 11, "velocity": 70}, {"time": 2263, "pitch": 50, "duration": 4, "velocity": 81}, {"time": 2266, "pitch": 54, "duration": 2, "velocity": 79}, {"time": 2269, "pitch": 50, "duration": 5, "velocity": 85}, {"time": 2269, "pitch": 54, "duration": 5, "velocity": 79}, {"time": 2269, "pitch": 57, "duration": 6, "velocity": 81}, {"time": 2269, "pitch": 62, "duration": 7, "velocity": 85}, {"time": 2275, "pitch": 45, "duration": 4, "velocity": 75}, {"time": 2281, "pitch": 40, "duration": 14, "velocity": 85}, {"time": 2281, "pitch": 52, "duration": 13, "velocity": 79}, {"time": 2281, "pitch": 56, "duration": 8, "velocity": 69}, {"time": 2281, "pitch": 59, "duration": 9, "velocity": 78}, {"time": 2287, "pitch": 47, "duration": 7, "velocity": 69}, {"time": 2293, "pitch": 56, "duration": 4, "velocity": 86}, {"time": 2293, "pitch": 59, "duration": 5, "velocity": 85}, {"time": 2293, "pitch": 64, "duration": 6, "velocity": 85}, {"time": 2305, "pitch": 45, "duration": 20, "velocity": 83}, {"time": 2305, "pitch": 57, "duration": 10, "velocity": 74}, {"time": 2305, "pitch": 61, "duration": 8, "velocity": 72}, {"time": 2311, "pitch": 52, "duration": 7, "velocity": 74}, {"time": 2317, "pitch": 57, "duration": 5, "velocity": 80}, {"time": 2317, "pitch": 61, "duration": 6, "velocity": 85}, {"time": 2323, "pitch": 52, "duration": 3, "velocity": 76}, {"time": 2326, "pitch": 57, "duration": 1, "velocity": 68}, {"time": 2329, "pitch": 45, "duration": 23, "velocity": 89}, {"time": 2329, "pitch": 57, "duration": 6, "velocity": 86}, {"time": 2329, "pitch": 61, "duration": 6, "velocity": 89}, {"time": 2335, "pitch": 52, "duration": 7, "velocity": 84}, {"time": 2338, "pitch": 57, "duration": 1, "velocity": 84}, {"time": 2341, "pitch": 57, "duration": 3, "velocity": 91}, {"time": 2341, "pitch": 61, "duration": 4, "velocity": 105}, {"time": 2341, "pitch": 64, "duration": 4, "velocity": 100}, {"time": 2344, "pitch": 52, "duration": 8, "velocity": 95}, {"time": 2347, "pitch": 57, "duration": 6, "velocity": 88}, {"time": 2350, "pitch": 61, "duration": 2, "velocity": 101}, {"time": 2350, "pitch": 64, "duration": 2, "velocity": 86}, {"time": 2353, "pitch": 42, "duration": 22, "velocity": 91}, {"time": 2353, "pitch": 54, "duration": 3, "velocity": 84}, {"time": 2353, "pitch": 57, "duration": 1, "velocity": 85}, {"time": 2353, "pitch": 61, "duration": 7, "velocity": 84}, {"time": 2356, "pitch": 49, "duration": 20, "velocity": 73}, {"time": 2359, "pitch": 54, "duration": 4, "velocity": 85}, {"time": 2362, "pitch": 57, "duration": 1, "velocity": 79}, {"time": 2365, "pitch": 54, "duration": 6, "velocity": 78}, {"time": 2365, "pitch": 57, "duration": 1, "velocity": 84}, {"time": 2365, "pitch": 66, "duration": 4, "velocity": 90}, {"time": 2371, "pitch": 61, "duration": 3, "velocity": 87}, {"time": 2374, "pitch": 54, "duration": 2, "velocity": 86}, {"time": 2377, "pitch": 42, "duration": 16, "velocity": 90}, {"time": 2377, "pitch": 54, "duration": 4, "velocity": 72}, {"time": 2377, "pitch": 57, "duration": 6, "velocity": 85}, {"time": 2377, "pitch": 61, "duration": 4, "velocity": 74}, {"time": 2383, "pitch": 49, "duration": 7, "velocity": 80}, {"time": 2386, "pitch": 54, "duration": 1, "velocity": 81}, {"time": 2389, "pitch": 54, "duration": 3, "velocity": 89}, {"time": 2389, "pitch": 57, "duration": 3, "velocity": 88}, {"time": 2389, "pitch": 61, "duration": 3, "velocity": 85}, {"time": 2389, "pitch": 66, "duration": 5, "velocity": 86}, {"time": 2392, "pitch": 49, "duration": 2, "velocity": 79}, {"time": 2401, "pitch": 49, "duration": 15, "velocity": 93}, {"time": 2401, "pitch": 61, "duration": 3, "velocity": 87}, {"time": 2401, "pitch": 64, "duration": 5, "velocity": 88}, {"time": 2404, "pitch": 56, "duration": 10, "velocity": 75}, {"time": 2407, "pitch": 61, "duration": 3, "velocity": 79}, {"time": 2410, "pitch": 64, "duration": 1, "velocity": 74}, {"time": 2413, "pitch": 61, "duration": 3, "velocity": 91}, {"time": 2413, "pitch": 64, "duration": 4, "velocity": 100}, {"time": 2413, "pitch": 68, "duration": 4, "velocity": 95}, {"time": 2416, "pitch": 56, "duration": 2, "velocity": 75}, {"time": 2419, "pitch": 61, "duration": 4, "velocity": 84}, {"time": 2425, "pitch": 49, "duration": 14, "velocity": 88}, {"time": 2425, "pitch": 61, "duration": 7, "velocity": 83}, {"time": 2425, "pitch": 64, "duration": 7, "velocity": 85}, {"time": 2431, "pitch": 56, "duration": 6, "velocity": 80}, {"time": 2434, "pitch": 61, "duration": 1, "velocity": 75}, {"time": 2437, "pitch": 61, "duration": 3, "velocity": 93}, {"time": 2437, "pitch": 64, "duration": 4, "velocity": 98}, {"time": 2437, "pitch": 68, "duration": 4, "velocity": 84}, {"time": 2440, "pitch": 56, "duration": 1, "velocity": 84}, {"time": 2443, "pitch": 61, "duration": 1, "velocity": 88}, {"time": 2449, "pitch": 38, "duration": 16, "velocity": 88}, {"time": 2449, "pitch": 62, "duration": 4, "velocity": 84}, {"time": 2449, "pitch": 66, "duration": 3, "velocity": 84}, {"time": 2455, "pitch": 45, "duration": 7, "velocity": 72}, {"time": 2461, "pitch": 57, "duration": 2, "velocity": 85}, {"time": 2461, "pitch": 62, "duration": 4, "velocity": 87}, {"time": 2461, "pitch": 66, "duration": 5, "velocity": 85}, {"time": 2464, "pitch": 45, "duration": 2, "velocity": 85}, {"time": 2467, "pitch": 57, "duration": 1, "velocity": 93}, {"time": 2473, "pitch": 49, "duration": 14, "velocity": 95}, {"time": 2473, "pitch": 61, "duration": 7, "velocity": 77}, {"time": 2473, "pitch": 64, "duration": 6, "velocity": 88}, {"time": 2473, "pitch": 68, "duration": 6, "velocity": 84}, {"time": 2479, "pitch": 56, "duration": 7, "velocity": 69}, {"time": 2485, "pitch": 61, "duration": 3, "velocity": 93}, {"time": 2485, "pitch": 64, "duration": 4, "velocity": 101}, {"time": 2485, "pitch": 68, "duration": 5, "velocity": 90}, {"time": 2488, "pitch": 56, "duration": 2, "velocity": 82}, {"time": 2491, "pitch": 49, "duration": 1, "velocity": 81}, {"time": 2497, "pitch": 47, "duration": 15, "velocity": 89}, {"time": 2497, "pitch": 59, "duration": 7, "velocity": 81}, {"time": 2497, "pitch": 62, "duration": 8, "velocity": 84}, {"time": 2503, "pitch": 54, "duration": 7, "velocity": 69}, {"time": 2509, "pitch": 59, "duration": 3, "velocity": 91}, {"time": 2509, "pitch": 62, "duration": 4, "velocity": 93}, {"time": 2509, "pitch": 66, "duration": 4, "velocity": 95}, {"time": 2512, "pitch": 54, "duration": 2, "velocity": 84}, {"time": 2515, "pitch": 59, "duration": 4, "velocity": 93}, {"time": 2518, "pitch": 62, "duration": 2, "velocity": 88}, {"time": 2521, "pitch": 40, "duration": 18, "velocity": 90}, {"time": 2521, "pitch": 59, "duration": 2, "velocity": 86}, {"time": 2521, "pitch": 64, "duration": 2, "velocity": 93}, {"time": 2524, "pitch": 47, "duration": 7, "velocity": 80}, {"time": 2527, "pitch": 52, "duration": 2, "velocity": 87}, {"time": 2530, "pitch": 52, "duration": 4, "velocity": 88}, {"time": 2530, "pitch": 56, "duration": 3, "velocity": 89}, {"time": 2530, "pitch": 59, "duration": 4, "velocity": 90}, {"time": 2533, "pitch": 47, "duration": 4, "velocity": 86}, {"time": 2536, "pitch": 52, "duration": 3, "velocity": 98}, {"time": 2536, "pitch": 56, "duration": 7, "velocity": 105}, {"time": 2536, "pitch": 59, "duration": 8, "velocity": 95}, {"time": 2536, "pitch": 64, "duration": 9, "velocity": 93}, {"time": 2539, "pitch": 47, "duration": 1, "velocity": 85}, {"time": 2542, "pitch": 52, "duration": 2, "velocity": 100}, {"time": 2545, "pitch": 38, "duration": 16, "velocity": 95}, {"time": 2545, "pitch": 57, "duration": 8, "velocity": 86}, {"time": 2545, "pitch": 62, "duration": 8, "velocity": 88}, {"time": 2551, "pitch": 45, "duration": 7, "velocity": 76}, {"time": 2557, "pitch": 57, "duration": 3, "velocity": 87}, {"time": 2557, "pitch": 62, "duration": 4, "velocity": 93}, {"time": 2557, "pitch": 66, "duration": 5, "velocity": 90}, {"time": 2560, "pitch": 45, "duration": 1, "velocity": 86}, {"time": 2563, "pitch": 57, "duration": 1, "velocity": 91}, {"time": 2569, "pitch": 49, "duration": 14, "velocity": 98}, {"time": 2569, "pitch": 61, "duration": 8, "velocity": 84}, {"time": 2569, "pitch": 64, "duration": 7, "velocity": 86}, {"time": 2569, "pitch": 68, "duration": 7, "velocity": 79}, {"time": 2575, "pitch": 56, "duration": 7, "velocity": 68}, {"time": 2581, "pitch": 61, "duration": 3, "velocity": 98}, {"time": 2581, "pitch": 64, "duration": 3, "velocity": 105}, {"time": 2581, "pitch": 68, "duration": 3, "velocity": 90}, {"time": 2584, "pitch": 56, "duration": 2, "velocity": 93}, {"time": 2587, "pitch": 49, "duration": 1, "velocity": 85}, {"time": 2593, "pitch": 50, "duration": 17, "velocity": 91}, {"time": 2593, "pitch": 57, "duration": 2, "velocity": 82}, {"time": 2593, "pitch": 62, "duration": 4, "velocity": 84}, {"time": 2593, "pitch": 66, "duration": 6, "velocity": 84}, {"time": 2596, "pitch": 57, "duration": 5, "velocity": 79}, {"time": 2599, "pitch": 62, "duration": 3, "velocity": 74}, {"time": 2605, "pitch": 57, "duration": 3, "velocity": 86}, {"time": 2605, "pitch": 62, "duration": 6, "velocity": 90}, {"time": 2605, "pitch": 66, "duration": 6, "velocity": 91}, {"time": 2611, "pitch": 57, "duration": 2, "velocity": 89}, {"time": 2617, "pitch": 39, "duration": 12, "velocity": 64}, {"time": 2617, "pitch": 63, "duration": 23, "velocity": 75}, {"time": 2617, "pitch": 66, "duration": 22, "velocity": 80}, {"time": 2617, "pitch": 69, "duration": 22, "velocity": 77}, {"time": 2640, "pitch": 66, "duration": 9, "velocity": 78}, {"time": 2640, "pitch": 59, "duration": 10, "velocity": 78}, {"time": 2640, "pitch": 47, "duration": 41, "velocity": 84}, {"time": 2646, "pitch": 54, "duration": 9, "velocity": 56}, {"time": 2653, "pitch": 66, "duration": 8, "velocity": 85}, {"time": 2653, "pitch": 59, "duration": 3, "velocity": 85}, {"time": 2653, "pitch": 62, "duration": 5, "velocity": 84}, {"time": 2659, "pitch": 59, "duration": 1, "velocity": 65}, {"time": 2664, "pitch": 59, "duration": 4, "velocity": 83}, {"time": 2664, "pitch": 62, "duration": 5, "velocity": 78}, {"time": 2676, "pitch": 66, "duration": 7, "velocity": 86}, {"time": 2676, "pitch": 59, "duration": 3, "velocity": 85}, {"time": 2676, "pitch": 62, "duration": 5, "velocity": 89}, {"time": 2683, "pitch": 59, "duration": 3, "velocity": 72}, {"time": 2688, "pitch": 40, "duration": 20, "velocity": 84}, {"time": 2689, "pitch": 64, "duration": 4, "velocity": 80}, {"time": 2689, "pitch": 59, "duration": 3, "velocity": 79}, {"time": 2689, "pitch": 40, "duration": 19, "velocity": 86}, {"time": 2689, "pitch": 52, "duration": 7, "velocity": 83}, {"time": 2689, "pitch": 64, "duration": 4, "velocity": 85}, {"time": 2695, "pitch": 47, "duration": 12, "velocity": 74}, {"time": 2701, "pitch": 56, "duration": 2, "velocity": 86}, {"time": 2701, "pitch": 59, "duration": 2, "velocity": 87}, {"time": 2707, "pitch": 52, "duration": 4, "velocity": 90}, {"time": 2713, "pitch": 40, "duration": 48, "velocity": 88}, {"time": 2713, "pitch": 52, "duration": 7, "velocity": 89}, {"time": 2713, "pitch": 56, "duration": 6, "velocity": 86}, {"time": 2713, "pitch": 59, "duration": 7, "velocity": 85}, {"time": 2719, "pitch": 47, "duration": 14, "velocity": 73}, {"time": 2722, "pitch": 52, "duration": 4, "velocity": 89}, {"time": 2722, "pitch": 57, "duration": 4, "velocity": 84}, {"time": 2731, "pitch": 52, "duration": 5, "velocity": 93}, {"time": 2731, "pitch": 59, "duration": 4, "velocity": 90}, {"time": 2737, "pitch": 47, "duration": 5, "velocity": 74}, {"time": 2740, "pitch": 52, "duration": 3, "velocity": 91}, {"time": 2740, "pitch": 61, "duration": 4, "velocity": 86}, {"time": 2743, "pitch": 47, "duration": 16, "velocity": 66}, {"time": 2749, "pitch": 52, "duration": 3, "velocity": 86}, {"time": 2749, "pitch": 62, "duration": 3, "velocity": 88}, {"time": 2755, "pitch": 52, "duration": 5, "velocity": 98}, {"time": 2755, "pitch": 64, "duration": 5, "velocity": 95}, {"time": 2761, "pitch": 45, "duration": 19, "velocity": 84}, {"time": 2761, "pitch": 57, "duration": 8, "velocity": 78}, {"time": 2761, "pitch": 64, "duration": 7, "velocity": 84}, {"time": 2767, "pitch": 52, "duration": 8, "velocity": 80}, {"time": 2773, "pitch": 57, "duration": 6, "velocity": 80}, {"time": 2773, "pitch": 61, "duration": 7, "velocity": 85}, {"time": 2773, "pitch": 64, "duration": 10, "velocity": 87}, {"time": 2779, "pitch": 52, "duration": 4, "velocity": 84}, {"time": 2782, "pitch": 57, "duration": 2, "velocity": 84}, {"time": 2785, "pitch": 47, "duration": 19, "velocity": 88}, {"time": 2785, "pitch": 59, "duration": 6, "velocity": 84}, {"time": 2785, "pitch": 62, "duration": 7, "velocity": 78}, {"time": 2791, "pitch": 54, "duration": 8, "velocity": 80}, {"time": 2794, "pitch": 59, "duration": 2, "velocity": 85}, {"time": 2797, "pitch": 59, "duration": 7, "velocity": 86}, {"time": 2797, "pitch": 62, "duration": 6, "velocity": 90}, {"time": 2803, "pitch": 54, "duration": 5, "velocity": 81}, {"time": 2809, "pitch": 49, "duration": 15, "velocity": 90}, {"time": 2809, "pitch": 61, "duration": 5, "velocity": 84}, {"time": 2809, "pitch": 64, "duration": 4, "velocity": 85}, {"time": 2815, "pitch": 56, "duration": 7, "velocity": 78}, {"time": 2821, "pitch": 61, "duration": 2, "velocity": 79}, {"time": 2821, "pitch": 68, "duration": 7, "velocity": 93}, {"time": 2824, "pitch": 56, "duration": 2, "velocity": 90}, {"time": 2827, "pitch": 61, "duration": 3, "velocity": 86}, {"time": 2833, "pitch": 50, "duration": 18, "velocity": 85}, {"time": 2833, "pitch": 57, "duration": 3, "velocity": 77}, {"time": 2833, "pitch": 62, "duration": 6, "velocity": 73}, {"time": 2839, "pitch": 57, "duration": 4, "velocity": 84}, {"time": 2842, "pitch": 62, "duration": 2, "velocity": 79}, {"time": 2845, "pitch": 64, "duration": 5, "velocity": 93}, {"time": 2851, "pitch": 62, "duration": 1, "velocity": 80}, {"time": 2857, "pitch": 45, "duration": 20, "velocity": 85}, {"time": 2857, "pitch": 57, "duration": 3, "velocity": 80}, {"time": 2857, "pitch": 61, "duration": 6, "velocity": 78}, {"time": 2860, "pitch": 52, "duration": 14, "velocity": 79}, {"time": 2863, "pitch": 57, "duration": 2, "velocity": 80}, {"time": 2866, "pitch": 59, "duration": 4, "velocity": 77}, {"time": 2872, "pitch": 57, "duration": 2, "velocity": 80}, {"time": 2872, "pitch": 61, "duration": 3, "velocity": 87}, {"time": 2875, "pitch": 52, "duration": 5, "velocity": 84}, {"time": 2881, "pitch": 47, "duration": 14, "velocity": 86}, {"time": 2881, "pitch": 59, "duration": 6, "velocity": 78}, {"time": 2881, "pitch": 62, "duration": 4, "velocity": 83}, {"time": 2887, "pitch": 54, "duration": 7, "velocity": 74}, {"time": 2893, "pitch": 59, "duration": 8, "velocity": 85}, {"time": 2893, "pitch": 66, "duration": 3, "velocity": 85}, {"time": 2905, "pitch": 37, "duration": 14, "velocity": 84}, {"time": 2905, "pitch": 61, "duration": 10, "velocity": 82}, {"time": 2905, "pitch": 68, "duration": 10, "velocity": 77}, {"time": 2911, "pitch": 44, "duration": 8, "velocity": 85}, {"time": 2914, "pitch": 64, "duration": 6, "velocity": 86}, {"time": 2920, "pitch": 61, "duration": 3, "velocity": 85}, {"time": 2923, "pitch": 68, "duration": 2, "velocity": 84}, {"time": 2929, "pitch": 50, "duration": 16, "velocity": 85}, {"time": 2929, "pitch": 57, "duration": 3, "velocity": 75}, {"time": 2929, "pitch": 62, "duration": 6, "velocity": 80}, {"time": 2935, "pitch": 57, "duration": 5, "velocity": 75}, {"time": 2938, "pitch": 62, "duration": 3, "velocity": 85}, {"time": 2944, "pitch": 57, "duration": 3, "velocity": 84}, {"time": 2944, "pitch": 64, "duration": 4, "velocity": 84}, {"time": 2947, "pitch": 62, "duration": 2, "velocity": 84}, {"time": 2953, "pitch": 47, "duration": 20, "velocity": 84}, {"time": 2953, "pitch": 59, "duration": 6, "velocity": 79}, {"time": 2953, "pitch": 62, "duration": 9, "velocity": 84}, {"time": 2959, "pitch": 54, "duration": 6, "velocity": 72}, {"time": 2962, "pitch": 59, "duration": 7, "velocity": 85}, {"time": 2968, "pitch": 62, "duration": 6, "velocity": 87}, {"time": 2971, "pitch": 54, "duration": 2, "velocity": 80}, {"time": 2974, "pitch": 59, "duration": 5, "velocity": 85}, {"time": 2977, "pitch": 40, "duration": 18, "velocity": 87}, {"time": 2983, "pitch": 47, "duration": 11, "velocity": 76}, {"time": 2986, "pitch": 52, "duration": 6, "velocity": 86}, {"time": 2989, "pitch": 56, "duration": 5, "velocity": 88}, {"time": 2992, "pitch": 64, "duration": 11, "velocity": 89}, {"time": 2995, "pitch": 59, "duration": 4, "velocity": 82}, {"time": 2998, "pitch": 52, "duration": 3, "velocity": 86}, {"time": 3001, "pitch": 45, "duration": 7, "velocity": 89}, {"time": 3004, "pitch": 52, "duration": 9, "velocity": 82}, {"time": 3007, "pitch": 57, "duration": 4, "velocity": 86}, {"time": 3010, "pitch": 61, "duration": 1, "velocity": 85}, {"time": 3013, "pitch": 44, "duration": 9, "velocity": 85}, {"time": 3016, "pitch": 52, "duration": 6, "velocity": 82}, {"time": 3019, "pitch": 56, "duration": 5, "velocity": 85}, {"time": 3022, "pitch": 59, "duration": 2, "velocity": 78}, {"time": 3025, "pitch": 42, "duration": 11, "velocity": 80}, {"time": 3028, "pitch": 49, "duration": 9, "velocity": 75}, {"time": 3031, "pitch": 54, "duration": 4, "velocity": 84}, {"time": 3031, "pitch": 57, "duration": 2, "velocity": 79}, {"time": 3037, "pitch": 54, "duration": 7, "velocity": 80}, {"time": 3037, "pitch": 57, "duration": 8, "velocity": 83}, {"time": 3037, "pitch": 61, "duration": 10, "velocity": 83}, {"time": 3049, "pitch": 50, "duration": 15, "velocity": 84}, {"time": 3055, "pitch": 57, "duration": 4, "velocity": 89}, {"time": 3061, "pitch": 57, "duration": 3, "velocity": 85}, {"time": 3061, "pitch": 62, "duration": 7, "velocity": 85}, {"time": 3067, "pitch": 57, "duration": 4, "velocity": 79}, {"time": 3070, "pitch": 62, "duration": 4, "velocity": 80}, {"time": 3073, "pitch": 40, "duration": 13, "velocity": 84}, {"time": 3073, "pitch": 64, "duration": 18, "velocity": 85}, {"time": 3079, "pitch": 47, "duration": 7, "velocity": 79}, {"time": 3085, "pitch": 52, "duration": 3, "velocity": 85}, {"time": 3085, "pitch": 56, "duration": 5, "velocity": 76}, {"time": 3085, "pitch": 59, "duration": 5, "velocity": 80}, {"time": 3097, "pitch": 45, "duration": 22, "velocity": 85}, {"time": 3097, "pitch": 57, "duration": 7, "velocity": 82}, {"time": 3097, "pitch": 61, "duration": 8, "velocity": 85}, {"time": 3103, "pitch": 52, "duration": 7, "velocity": 79}, {"time": 3109, "pitch": 57, "duration": 3, "velocity": 87}, {"time": 3109, "pitch": 61, "duration": 4, "velocity": 100}, {"time": 3112, "pitch": 52, "duration": 7, "velocity": 86}, {"time": 3115, "pitch": 57, "duration": 4, "velocity": 84}, {"time": 3118, "pitch": 61, "duration": 1, "velocity": 75}, {"time": 3118, "pitch": 64, "duration": 2, "velocity": 84}, {"time": 3121, "pitch": 45, "duration": 16, "velocity": 88}, {"time": 3121, "pitch": 57, "duration": 6, "velocity": 82}, {"time": 3121, "pitch": 61, "duration": 6, "velocity": 83}, {"time": 3121, "pitch": 64, "duration": 7, "velocity": 84}, {"time": 3121, "pitch": 69, "duration": 6, "velocity": 86}, {"time": 3127, "pitch": 52, "duration": 8, "velocity": 84}, {"time": 3130, "pitch": 57, "duration": 2, "velocity": 84}, {"time": 3133, "pitch": 57, "duration": 3, "velocity": 93}, {"time": 3133, "pitch": 61, "duration": 3, "velocity": 101}, {"time": 3133, "pitch": 64, "duration": 3, "velocity": 98}, {"time": 3136, "pitch": 52, "duration": 2, "velocity": 84}, {"time": 3139, "pitch": 45, "duration": 1, "velocity": 87}, {"time": 3143, "pitch": 62, "duration": 17, "velocity": 73}, {"time": 3144, "pitch": 38, "duration": 17, "velocity": 84}, {"time": 3144, "pitch": 66, "duration": 16, "velocity": 73}, {"time": 3145, "pitch": 69, "duration": 15, "velocity": 73}, {"time": 3169, "pitch": 52, "duration": 9, "velocity": 69}, {"time": 3170, "pitch": 40, "duration": 34, "velocity": 85}, {"time": 3170, "pitch": 56, "duration": 14, "velocity": 78}, {"time": 3171, "pitch": 59, "duration": 43, "velocity": 69}, {"time": 3176, "pitch": 47, "duration": 28, "velocity": 67}, {"time": 3183, "pitch": 52, "duration": 31, "velocity": 84}, {"time": 3191, "pitch": 56, "duration": 6, "velocity": 93}, {"time": 3198, "pitch": 64, "duration": 22, "velocity": 84}, {"time": 3217, "pitch": 45, "duration": 21, "velocity": 84}, {"time": 3223, "pitch": 52, "duration": 16, "velocity": 65}, {"time": 3229, "pitch": 69, "duration": 14, "velocity": 84}, {"time": 3232, "pitch": 64, "duration": 9, "velocity": 73}, {"time": 3235, "pitch": 61, "duration": 6, "velocity": 70}, {"time": 3238, "pitch": 57, "duration": 3, "velocity": 85}, {"time": 3241, "pitch": 47, "duration": 24, "velocity": 85}, {"time": 3247, "pitch": 54, "duration": 18, "velocity": 73}, {"time": 3253, "pitch": 71, "duration": 5, "velocity": 86}, {"time": 3256, "pitch": 66, "duration": 8, "velocity": 74}, {"time": 3259, "pitch": 62, "duration": 5, "velocity": 77}, {"time": 3262, "pitch": 59, "duration": 3, "velocity": 79}, {"time": 3265, "pitch": 45, "duration": 21, "velocity": 84}, {"time": 3271, "pitch": 52, "duration": 16, "velocity": 65}, {"time": 3277, "pitch": 69, "duration": 14, "velocity": 84}, {"time": 3280, "pitch": 64, "duration": 9, "velocity": 73}, {"time": 3283, "pitch": 61, "duration": 6, "velocity": 70}, {"time": 3286, "pitch": 57, "duration": 3, "velocity": 85}, {"time": 3289, "pitch": 47, "duration": 24, "velocity": 85}, {"time": 3295, "pitch": 54, "duration": 18, "velocity": 73}, {"time": 3301, "pitch": 71, "duration": 5, "velocity": 86}, {"time": 3304, "pitch": 66, "duration": 8, "velocity": 74}, {"time": 3307, "pitch": 62, "duration": 5, "velocity": 77}, {"time": 3310, "pitch": 59, "duration": 3, "velocity": 79}, {"time": 3313, "pitch": 45, "duration": 21, "velocity": 84}, {"time": 3319, "pitch": 52, "duration": 16, "velocity": 65}, {"time": 3325, "pitch": 69, "duration": 14, "velocity": 84}, {"time": 3328, "pitch": 64, "duration": 9, "velocity": 73}, {"time": 3331, "pitch": 61, "duration": 6, "velocity": 70}, {"time": 3334, "pitch": 57, "duration": 3, "velocity": 85}, {"time": 3337, "pitch": 47, "duration": 24, "velocity": 85}, {"time": 3343, "pitch": 54, "duration": 18, "velocity": 73}, {"time": 3349, "pitch": 71, "duration": 5, "velocity": 86}, {"time": 3352, "pitch": 66, "duration": 8, "velocity": 74}, {"time": 3355, "pitch": 62, "duration": 5, "velocity": 77}, {"time": 3358, "pitch": 59, "duration": 3, "velocity": 79}, {"time": 3361, "pitch": 59, "duration": 1, "velocity": 78}, {"time": 3361, "pitch": 56, "duration": 3, "velocity": 71}, {"time": 3361, "pitch": 64, "duration": 3, "velocity": 80}, {"time": 3361, "pitch": 40, "duration": 5, "velocity": 88}, {"time": 3361, "pitch": 52, "duration": 3, "velocity": 81}, {"time": 3367, "pitch": 59, "duration": 18, "velocity": 80}, {"time": 3367, "pitch": 56, "duration": 18, "velocity": 76}, {"time": 3367, "pitch": 64, "duration": 18, "velocity": 83}, {"time": 3367, "pitch": 40, "duration": 41, "velocity": 86}, {"time": 3367, "pitch": 52, "duration": 16, "velocity": 83}, {"time": 3386, "pitch": 52, "duration": 24, "velocity": 80}, {"time": 3386, "pitch": 47, "duration": 22, "velocity": 72}, {"time": 3387, "pitch": 56, "duration": 24, "velocity": 74}, {"time": 3388, "pitch": 59, "duration": 23, "velocity": 73}, {"time": 3388, "pitch": 64, "duration": 26, "velocity": 79}, {"time": 3429, "pitch": 45, "duration": 79, "velocity": 86}, {"time": 3435, "pitch": 52, "duration": 73, "velocity": 73}, {"time": 3442, "pitch": 59, "duration": 8, "velocity": 82}, {"time": 3449, "pitch": 61, "duration": 6, "velocity": 86}, {"time": 3457, "pitch": 64, "duration": 3, "velocity": 85}, {"time": 3458, "pitch": 57, "duration": 2, "velocity": 71}, {"time": 3464, "pitch": 57, "duration": 2, "velocity": 51}, {"time": 3466, "pitch": 69, "duration": 2, "velocity": 85}, {"time": 3475, "pitch": 69, "duration": 2, "velocity": 64}, {"time": 3477, "pitch": 76, "duration": 2, "velocity": 75}, {"time": 3485, "pitch": 69, "duration": 1, "velocity": 72}, {"time": 3485, "pitch": 76, "duration": 1, "velocity": 78}, {"time": 3486, "pitch": 81, "duration": 2, "velocity": 80}, {"time": 3497, "pitch": 88, "duration": 1, "velocity": 69}, {"time": 3498, "pitch": 93, "duration": 1, "velocity": 73}], "annotations": [{"time": 25, "annotation": {"number": 64, "value": 127}, "group": "control_change"}, {"time": 48, "annotation": {"number": 64, "value": 0}, "group": "control_change"}, {"time": 53, "annotation": {"number": 64, "value": 127}, "group": "control_change"}, {"time": 69, "annotation": {"number": 64, "value": 0}, "group": "control_change"}, {"time": 73, "annotation": {"number": 64, "value": 127}, "group": "control_change"}, {"time": 96, "annotation": {"number": 64, "value": 0}, "group": "control_change"}, {"time": 101, "annotation": {"number": 64, "value": 127}, "group": "control_change"}, {"time": 117, "annotation": {"number": 64, "value": 0}, "group": "control_change"}, {"time": 121, "annotation": {"number": 64, "value": 127}, "group": "control_change"}, {"time": 144, "annotation": {"number": 64, "value": 0}, "group": "control_change"}, {"time": 149, "annotation": {"number": 64, "value": 127}, "group": "control_change"}, {"time": 165, "annotation": {"number": 64, "value": 0}, "group": "control_change"}, {"time": 170, "annotation": {"number": 64, "value": 127}, "group": "control_change"}, {"time": 170, "annotation": {"number": 64, "value": 0}, "group": "control_change"}, {"time": 194, "annotation": {"number": 64, "value": 127}, "group": "control_change"}, {"time": 214, "annotation": {"number": 64, "value": 0}, "group": "control_change"}, {"time": 217, "annotation": {"number": 64, "value": 127}, "group": "control_change"}, {"time": 240, "annotation": {"number": 64, "value": 0}, "group": "control_change"}, {"time": 246, "annotation": {"number": 64, "value": 127}, "group": "control_change"}, {"time": 264, "annotation": {"number": 64, "value": 0}, "group": "control_change"}, {"time": 270, "annotation": {"number": 64, "value": 127}, "group": "control_change"}, {"time": 288, "annotation": {"number": 64, "value": 0}, "group": "control_change"}, {"time": 291, "annotation": {"number": 64, "value": 127}, "group": "control_change"}, {"time": 312, "annotation": {"number": 64, "value": 0}, "group": "control_change"}, {"time": 314, "annotation": {"number": 64, "value": 127}, "group": "control_change"}, {"time": 336, "annotation": {"number": 64, "value": 0}, "group": "control_change"}, {"time": 338, "annotation": {"number": 64, "value": 127}, "group": "control_change"}, {"time": 359, "annotation": {"number": 64, "value": 0}, "group": "control_change"}, {"time": 363, "annotation": {"number": 64, "value": 127}, "group": "control_change"}, {"time": 409, "annotation": {"number": 64, "value": 127}, "group": "control_change"}, {"time": 433, "annotation": {"number": 64, "value": 0}, "group": "control_change"}, {"time": 437, "annotation": {"number": 64, "value": 127}, "group": "control_change"}, {"time": 456, "annotation": {"number": 64, "value": 0}, "group": "control_change"}, {"time": 462, "annotation": {"number": 64, "value": 127}, "group": "control_change"}, {"time": 480, "annotation": {"number": 64, "value": 0}, "group": "control_change"}, {"time": 484, "annotation": {"number": 64, "value": 127}, "group": "control_change"}, {"time": 504, "annotation": {"number": 64, "value": 0}, "group": "control_change"}, {"time": 509, "annotation": {"number": 64, "value": 127}, "group": "control_change"}, {"time": 528, "annotation": {"number": 64, "value": 0}, "group": "control_change"}, {"time": 534, "annotation": {"number": 64, "value": 127}, "group": "control_change"}, {"time": 552, "annotation": {"number": 64, "value": 0}, "group": "control_change"}, {"time": 557, "annotation": {"number": 64, "value": 127}, "group": "control_change"}, {"time": 576, "annotation": {"number": 64, "value": 0}, "group": "control_change"}, {"time": 578, "annotation": {"number": 64, "value": 127}, "group": "control_change"}, {"time": 601, "annotation": {"number": 64, "value": 127}, "group": "control_change"}, {"time": 603, "annotation": {"number": 64, "value": 0}, "group": "control_change"}, {"time": 623, "annotation": {"number": 64, "value": 0}, "group": "control_change"}, {"time": 626, "annotation": {"number": 64, "value": 127}, "group": "control_change"}, {"time": 646, "annotation": {"number": 64, "value": 0}, "group": "control_change"}, {"time": 649, "annotation": {"number": 64, "value": 127}, "group": "control_change"}, {"time": 659, "annotation": {"number": 64, "value": 0}, "group": "control_change"}, {"time": 661, "annotation": {"number": 64, "value": 127}, "group": "control_change"}, {"time": 672, "annotation": {"number": 64, "value": 0}, "group": "control_change"}, {"time": 677, "annotation": {"number": 64, "value": 127}, "group": "control_change"}, {"time": 695, "annotation": {"number": 64, "value": 0}, "group": "control_change"}, {"time": 697, "annotation": {"number": 64, "value": 127}, "group": "control_change"}, {"time": 720, "annotation": {"number": 64, "value": 0}, "group": "control_change"}, {"time": 723, "annotation": {"number": 64, "value": 127}, "group": "control_change"}, {"time": 733, "annotation": {"number": 64, "value": 0}, "group": "control_change"}, {"time": 735, "annotation": {"number": 64, "value": 127}, "group": "control_change"}, {"time": 743, "annotation": {"number": 64, "value": 0}, "group": "control_change"}, {"time": 745, "annotation": {"number": 64, "value": 127}, "group": "control_change"}, {"time": 768, "annotation": {"number": 64, "value": 0}, "group": "control_change"}, {"time": 769, "annotation": {"number": 64, "value": 127}, "group": "control_change"}, {"time": 787, "annotation": {"number": 64, "value": 0}, "group": "control_change"}, {"time": 793, "annotation": {"number": 64, "value": 0}, "group": "control_change"}, {"time": 793, "annotation": {"number": 64, "value": 127}, "group": "control_change"}, {"time": 815, "annotation": {"number": 64, "value": 0}, "group": "control_change"}, {"time": 818, "annotation": {"number": 64, "value": 127}, "group": "control_change"}, {"time": 839, "annotation": {"number": 64, "value": 0}, "group": "control_change"}, {"time": 841, "annotation": {"number": 64, "value": 127}, "group": "control_change"}, {"time": 866, "annotation": {"number": 64, "value": 0}, "group": "control_change"}, {"time": 868, "annotation": {"number": 64, "value": 127}, "group": "control_change"}, {"time": 887, "annotation": {"number": 64, "value": 0}, "group": "control_change"}, {"time": 891, "annotation": {"number": 64, "value": 127}, "group": "control_change"}, {"time": 912, "annotation": {"number": 64, "value": 0}, "group": "control_change"}, {"time": 914, "annotation": {"number": 64, "value": 127}, "group": "control_change"}, {"time": 935, "annotation": {"number": 64, "value": 0}, "group": "control_change"}, {"time": 937, "annotation": {"number": 64, "value": 127}, "group": "control_change"}, {"time": 961, "annotation": {"number": 64, "value": 0}, "group": "control_change"}, {"time": 965, "annotation": {"number": 64, "value": 127}, "group": "control_change"}, {"time": 983, "annotation": {"number": 64, "value": 0}, "group": "control_change"}, {"time": 989, "annotation": {"number": 64, "value": 127}, "group": "control_change"}, {"time": 1007, "annotation": {"number": 64, "value": 0}, "group": "control_change"}, {"time": 1010, "annotation": {"number": 64, "value": 127}, "group": "control_change"}, {"time": 1030, "annotation": {"number": 64, "value": 0}, "group": "control_change"}, {"time": 1033, "annotation": {"number": 64, "value": 127}, "group": "control_change"}, {"time": 1043, "annotation": {"number": 64, "value": 0}, "group": "control_change"}, {"time": 1045, "annotation": {"number": 64, "value": 127}, "group": "control_change"}, {"time": 1055, "annotation": {"number": 64, "value": 0}, "group": "control_change"}, {"time": 1057, "annotation": {"number": 64, "value": 127}, "group": "control_change"}, {"time": 1080, "annotation": {"number": 64, "value": 0}, "group": "control_change"}, {"time": 1083, "annotation": {"number": 64, "value": 127}, "group": "control_change"}, {"time": 1103, "annotation": {"number": 64, "value": 0}, "group": "control_change"}, {"time": 1106, "annotation": {"number": 64, "value": 127}, "group": "control_change"}, {"time": 1127, "annotation": {"number": 64, "value": 0}, "group": "control_change"}, {"time": 1133, "annotation": {"number": 64, "value": 127}, "group": "control_change"}, {"time": 1174, "annotation": {"number": 64, "value": 0}, "group": "control_change"}, {"time": 1177, "annotation": {"number": 64, "value": 127}, "group": "control_change"}, {"time": 1200, "annotation": {"number": 64, "value": 0}, "group": "control_change"}, {"time": 1201, "annotation": {"number": 64, "value": 127}, "group": "control_change"}, {"time": 1225, "annotation": {"number": 64, "value": 0}, "group": "control_change"}, {"time": 1227, "annotation": {"number": 64, "value": 127}, "group": "control_change"}, {"time": 1249, "annotation": {"number": 64, "value": 0}, "group": "control_change"}, {"time": 1251, "annotation": {"number": 64, "value": 127}, "group": "control_change"}, {"time": 1273, "annotation": {"number": 64, "value": 127}, "group": "control_change"}, {"time": 1273, "annotation": {"number": 64, "value": 0}, "group": "control_change"}, {"time": 1296, "annotation": {"number": 64, "value": 0}, "group": "control_change"}, {"time": 1300, "annotation": {"number": 64, "value": 127}, "group": "control_change"}, {"time": 1320, "annotation": {"number": 64, "value": 0}, "group": "control_change"}, {"time": 1326, "annotation": {"number": 64, "value": 127}, "group": "control_change"}, {"time": 1343, "annotation": {"number": 64, "value": 0}, "group": "control_change"}, {"time": 1345, "annotation": {"number": 64, "value": 127}, "group": "control_change"}, {"time": 1368, "annotation": {"number": 64, "value": 0}, "group": "control_change"}, {"time": 1369, "annotation": {"number": 64, "value": 127}, "group": "control_change"}, {"time": 1392, "annotation": {"number": 64, "value": 0}, "group": "control_change"}, {"time": 1396, "annotation": {"number": 64, "value": 127}, "group": "control_change"}, {"time": 1415, "annotation": {"number": 64, "value": 0}, "group": "control_change"}, {"time": 1418, "annotation": {"number": 64, "value": 127}, "group": "control_change"}, {"time": 1440, "annotation": {"number": 64, "value": 0}, "group": "control_change"}, {"time": 1441, "annotation": {"number": 64, "value": 127}, "group": "control_change"}, {"time": 1463, "annotation": {"number": 64, "value": 0}, "group": "control_change"}, {"time": 1465, "annotation": {"number": 64, "value": 127}, "group": "control_change"}, {"time": 1510, "annotation": {"number": 64, "value": 0}, "group": "control_change"}, {"time": 1513, "annotation": {"number": 64, "value": 127}, "group": "control_change"}, {"time": 1536, "annotation": {"number": 64, "value": 0}, "group": "control_change"}, {"time": 1542, "annotation": {"number": 64, "value": 127}, "group": "control_change"}, {"time": 1580, "annotation": {"number": 64, "value": 0}, "group": "control_change"}, {"time": 1585, "annotation": {"number": 64, "value": 0}, "group": "control_change"}, {"time": 1585, "annotation": {"number": 64, "value": 127}, "group": "control_change"}, {"time": 1607, "annotation": {"number": 64, "value": 0}, "group": "control_change"}, {"time": 1610, "annotation": {"number": 64, "value": 127}, "group": "control_change"}, {"time": 1631, "annotation": {"number": 64, "value": 0}, "group": "control_change"}, {"time": 1633, "annotation": {"number": 64, "value": 127}, "group": "control_change"}, {"time": 1658, "annotation": {"number": 64, "value": 0}, "group": "control_change"}, {"time": 1660, "annotation": {"number": 64, "value": 127}, "group": "control_change"}, {"time": 1679, "annotation": {"number": 64, "value": 0}, "group": "control_change"}, {"time": 1683, "annotation": {"number": 64, "value": 127}, "group": "control_change"}, {"time": 1704, "annotation": {"number": 64, "value": 0}, "group": "control_change"}, {"time": 1706, "annotation": {"number": 64, "value": 127}, "group": "control_change"}, {"time": 1727, "annotation": {"number": 64, "value": 0}, "group": "control_change"}, {"time": 1729, "annotation": {"number": 64, "value": 127}, "group": "control_change"}, {"time": 1753, "annotation": {"number": 64, "value": 0}, "group": "control_change"}, {"time": 1757, "annotation": {"number": 64, "value": 127}, "group": "control_change"}, {"time": 1775, "annotation": {"number": 64, "value": 0}, "group": "control_change"}, {"time": 1781, "annotation": {"number": 64, "value": 127}, "group": "control_change"}, {"time": 1799, "annotation": {"number": 64, "value": 0}, "group": "control_change"}, {"time": 1802, "annotation": {"number": 64, "value": 127}, "group": "control_change"}, {"time": 1822, "annotation": {"number": 64, "value": 0}, "group": "control_change"}, {"time": 1825, "annotation": {"number": 64, "value": 127}, "group": "control_change"}, {"time": 1835, "annotation": {"number": 64, "value": 0}, "group": "control_change"}, {"time": 1837, "annotation": {"number": 64, "value": 127}, "group": "control_change"}, {"time": 1847, "annotation": {"number": 64, "value": 0}, "group": "control_change"}, {"time": 1849, "annotation": {"number": 64, "value": 127}, "group": "control_change"}, {"time": 1872, "annotation": {"number": 64, "value": 0}, "group": "control_change"}, {"time": 1875, "annotation": {"number": 64, "value": 127}, "group": "control_change"}, {"time": 1895, "annotation": {"number": 64, "value": 0}, "group": "control_change"}, {"time": 1898, "annotation": {"number": 64, "value": 127}, "group": "control_change"}, {"time": 1919, "annotation": {"number": 64, "value": 0}, "group": "control_change"}, {"time": 1925, "annotation": {"number": 64, "value": 127}, "group": "control_change"}, {"time": 1966, "annotation": {"number": 64, "value": 0}, "group": "control_change"}, {"time": 1991, "annotation": {"number": 64, "value": 0}, "group": "control_change"}, {"time": 1994, "annotation": {"number": 64, "value": 127}, "group": "control_change"}, {"time": 2016, "annotation": {"number": 64, "value": 0}, "group": "control_change"}, {"time": 2018, "annotation": {"number": 64, "value": 127}, "group": "control_change"}, {"time": 2040, "annotation": {"number": 64, "value": 0}, "group": "control_change"}, {"time": 2044, "annotation": {"number": 64, "value": 127}, "group": "control_change"}, {"time": 2063, "annotation": {"number": 64, "value": 0}, "group": "control_change"}, {"time": 2067, "annotation": {"number": 64, "value": 127}, "group": "control_change"}, {"time": 2087, "annotation": {"number": 64, "value": 0}, "group": "control_change"}, {"time": 2090, "annotation": {"number": 64, "value": 127}, "group": "control_change"}, {"time": 2111, "annotation": {"number": 64, "value": 0}, "group": "control_change"}, {"time": 2114, "annotation": {"number": 64, "value": 127}, "group": "control_change"}, {"time": 2135, "annotation": {"number": 64, "value": 0}, "group": "control_change"}, {"time": 2136, "annotation": {"number": 64, "value": 127}, "group": "control_change"}, {"time": 2148, "annotation": {"number": 64, "value": 0}, "group": "control_change"}, {"time": 2163, "annotation": {"number": 64, "value": 127}, "group": "control_change"}, {"time": 2163, "annotation": {"number": 64, "value": 0}, "group": "control_change"}, {"time": 2183, "annotation": {"number": 64, "value": 0}, "group": "control_change"}, {"time": 2186, "annotation": {"number": 64, "value": 127}, "group": "control_change"}, {"time": 2206, "annotation": {"number": 64, "value": 0}, "group": "control_change"}, {"time": 2209, "annotation": {"number": 64, "value": 127}, "group": "control_change"}, {"time": 2218, "annotation": {"number": 64, "value": 0}, "group": "control_change"}, {"time": 2220, "annotation": {"number": 64, "value": 127}, "group": "control_change"}, {"time": 2230, "annotation": {"number": 64, "value": 0}, "group": "control_change"}, {"time": 2234, "annotation": {"number": 64, "value": 127}, "group": "control_change"}, {"time": 2244, "annotation": {"number": 64, "value": 0}, "group": "control_change"}, {"time": 2246, "annotation": {"number": 64, "value": 127}, "group": "control_change"}, {"time": 2255, "annotation": {"number": 64, "value": 0}, "group": "control_change"}, {"time": 2257, "annotation": {"number": 64, "value": 127}, "group": "control_change"}, {"time": 2278, "annotation": {"number": 64, "value": 0}, "group": "control_change"}, {"time": 2285, "annotation": {"number": 64, "value": 127}, "group": "control_change"}, {"time": 2303, "annotation": {"number": 64, "value": 0}, "group": "control_change"}, {"time": 2310, "annotation": {"number": 64, "value": 127}, "group": "control_change"}, {"time": 2350, "annotation": {"number": 64, "value": 0}, "group": "control_change"}, {"time": 2353, "annotation": {"number": 64, "value": 127}, "group": "control_change"}, {"time": 2376, "annotation": {"number": 64, "value": 0}, "group": "control_change"}, {"time": 2377, "annotation": {"number": 64, "value": 127}, "group": "control_change"}, {"time": 2401, "annotation": {"number": 64, "value": 0}, "group": "control_change"}, {"time": 2403, "annotation": {"number": 64, "value": 127}, "group": "control_change"}, {"time": 2425, "annotation": {"number": 64, "value": 0}, "group": "control_change"}, {"time": 2427, "annotation": {"number": 64, "value": 127}, "group": "control_change"}, {"time": 2449, "annotation": {"number": 64, "value": 127}, "group": "control_change"}, {"time": 2449, "annotation": {"number": 64, "value": 0}, "group": "control_change"}, {"time": 2472, "annotation": {"number": 64, "value": 0}, "group": "control_change"}, {"time": 2476, "annotation": {"number": 64, "value": 127}, "group": "control_change"}, {"time": 2496, "annotation": {"number": 64, "value": 0}, "group": "control_change"}, {"time": 2502, "annotation": {"number": 64, "value": 127}, "group": "control_change"}, {"time": 2519, "annotation": {"number": 64, "value": 0}, "group": "control_change"}, {"time": 2521, "annotation": {"number": 64, "value": 127}, "group": "control_change"}, {"time": 2544, "annotation": {"number": 64, "value": 0}, "group": "control_change"}, {"time": 2545, "annotation": {"number": 64, "value": 127}, "group": "control_change"}, {"time": 2568, "annotation": {"number": 64, "value": 0}, "group": "control_change"}, {"time": 2572, "annotation": {"number": 64, "value": 127}, "group": "control_change"}, {"time": 2591, "annotation": {"number": 64, "value": 0}, "group": "control_change"}, {"time": 2594, "annotation": {"number": 64, "value": 127}, "group": "control_change"}, {"time": 2616, "annotation": {"number": 64, "value": 0}, "group": "control_change"}, {"time": 2617, "annotation": {"number": 64, "value": 127}, "group": "control_change"}, {"time": 2639, "annotation": {"number": 64, "value": 0}, "group": "control_change"}, {"time": 2641, "annotation": {"number": 64, "value": 127}, "group": "control_change"}, {"time": 2686, "annotation": {"number": 64, "value": 0}, "group": "control_change"}, {"time": 2689, "annotation": {"number": 64, "value": 127}, "group": "control_change"}, {"time": 2712, "annotation": {"number": 64, "value": 0}, "group": "control_change"}, {"time": 2718, "annotation": {"number": 64, "value": 127}, "group": "control_change"}, {"time": 2756, "annotation": {"number": 64, "value": 0}, "group": "control_change"}, {"time": 2761, "annotation": {"number": 64, "value": 0}, "group": "control_change"}, {"time": 2761, "annotation": {"number": 64, "value": 127}, "group": "control_change"}, {"time": 2783, "annotation": {"number": 64, "value": 0}, "group": "control_change"}, {"time": 2786, "annotation": {"number": 64, "value": 127}, "group": "control_change"}, {"time": 2807, "annotation": {"number": 64, "value": 0}, "group": "control_change"}, {"time": 2809, "annotation": {"number": 64, "value": 127}, "group": "control_change"}, {"time": 2834, "annotation": {"number": 64, "value": 0}, "group": "control_change"}, {"time": 2836, "annotation": {"number": 64, "value": 127}, "group": "control_change"}, {"time": 2855, "annotation": {"number": 64, "value": 0}, "group": "control_change"}, {"time": 2859, "annotation": {"number": 64, "value": 127}, "group": "control_change"}, {"time": 2880, "annotation": {"number": 64, "value": 0}, "group": "control_change"}, {"time": 2882, "annotation": {"number": 64, "value": 127}, "group": "control_change"}, {"time": 2903, "annotation": {"number": 64, "value": 0}, "group": "control_change"}, {"time": 2905, "annotation": {"number": 64, "value": 127}, "group": "control_change"}, {"time": 2929, "annotation": {"number": 64, "value": 0}, "group": "control_change"}, {"time": 2933, "annotation": {"number": 64, "value": 127}, "group": "control_change"}, {"time": 2951, "annotation": {"number": 64, "value": 0}, "group": "control_change"}, {"time": 2957, "annotation": {"number": 64, "value": 127}, "group": "control_change"}, {"time": 2975, "annotation": {"number": 64, "value": 0}, "group": "control_change"}, {"time": 2978, "annotation": {"number": 64, "value": 127}, "group": "control_change"}, {"time": 2998, "annotation": {"number": 64, "value": 0}, "group": "control_change"}, {"time": 3001, "annotation": {"number": 64, "value": 127}, "group": "control_change"}, {"time": 3011, "annotation": {"number": 64, "value": 0}, "group": "control_change"}, {"time": 3013, "annotation": {"number": 64, "value": 127}, "group": "control_change"}, {"time": 3023, "annotation": {"number": 64, "value": 0}, "group": "control_change"}, {"time": 3025, "annotation": {"number": 64, "value": 127}, "group": "control_change"}, {"time": 3048, "annotation": {"number": 64, "value": 0}, "group": "control_change"}, {"time": 3051, "annotation": {"number": 64, "value": 127}, "group": "control_change"}, {"time": 3071, "annotation": {"number": 64, "value": 0}, "group": "control_change"}, {"time": 3074, "annotation": {"number": 64, "value": 127}, "group": "control_change"}, {"time": 3095, "annotation": {"number": 64, "value": 0}, "group": "control_change"}, {"time": 3101, "annotation": {"number": 64, "value": 127}, "group": "control_change"}, {"time": 3142, "annotation": {"number": 64, "value": 0}, "group": "control_change"}, {"time": 3144, "annotation": {"number": 64, "value": 127}, "group": "control_change"}, {"time": 3170, "annotation": {"number": 64, "value": 0}, "group": "control_change"}, {"time": 3178, "annotation": {"number": 64, "value": 127}, "group": "control_change"}, {"time": 3217, "annotation": {"number": 64, "value": 127}, "group": "control_change"}, {"time": 3240, "annotation": {"number": 64, "value": 0}, "group": "control_change"}, {"time": 3245, "annotation": {"number": 64, "value": 127}, "group": "control_change"}, {"time": 3261, "annotation": {"number": 64, "value": 0}, "group": "control_change"}, {"time": 3265, "annotation": {"number": 64, "value": 127}, "group": "control_change"}, {"time": 3288, "annotation": {"number": 64, "value": 0}, "group": "control_change"}, {"time": 3293, "annotation": {"number": 64, "value": 127}, "group": "control_change"}, {"time": 3309, "annotation": {"number": 64, "value": 0}, "group": "control_change"}, {"time": 3313, "annotation": {"number": 64, "value": 127}, "group": "control_change"}, {"time": 3336, "annotation": {"number": 64, "value": 0}, "group": "control_change"}, {"time": 3341, "annotation": {"number": 64, "value": 127}, "group": "control_change"}, {"time": 3357, "annotation": {"number": 64, "value": 0}, "group": "control_change"}, {"time": 3362, "annotation": {"number": 64, "value": 127}, "group": "control_change"}, {"time": 3365, "annotation": {"number": 64, "value": 0}, "group": "control_change"}, {"time": 3388, "annotation": {"number": 64, "value": 127}, "group": "control_change"}, {"time": 3429, "annotation": {"number": 64, "value": 0}, "group": "control_change"}, {"time": 3436, "annotation": {"number": 64, "value": 127}, "group": "control_change"}, {"time": 3522, "annotation": {"number": 64, "value": 0}, "group": "control_change"}]}]}