{"metadata": {"schema_version": "0.2", "title": "None", "source_filename": "498.mid", "source_format": "midi"}, "resolution": 12, "tempos": [{"time": 0, "qpm": 60.0}], "time_signatures": [{"time": 0, "numerator": 1, "denominator": 4}], "tracks": [{"program": 4, "is_drum": false, "name": "MELODY", "notes": [{"time": 239, "pitch": 62, "duration": 3, "velocity": 90}, {"time": 242, "pitch": 65, "duration": 1, "velocity": 84}, {"time": 245, "pitch": 65, "duration": 2, "velocity": 84}, {"time": 248, "pitch": 62, "duration": 2, "velocity": 83}, {"time": 251, "pitch": 65, "duration": 2, "velocity": 85}, {"time": 254, "pitch": 67, "duration": 5, "velocity": 84}, {"time": 260, "pitch": 67, "duration": 16, "velocity": 85}, {"time": 287, "pitch": 62, "duration": 3, "velocity": 84}, {"time": 290, "pitch": 65, "duration": 2, "velocity": 83}, {"time": 293, "pitch": 65, "duration": 3, "velocity": 84}, {"time": 296, "pitch": 62, "duration": 3, "velocity": 86}, {"time": 299, "pitch": 65, "duration": 3, "velocity": 85}, {"time": 302, "pitch": 69, "duration": 5, "velocity": 85}, {"time": 308, "pitch": 69, "duration": 21, "velocity": 87}, {"time": 335, "pitch": 62, "duration": 3, "velocity": 87}, {"time": 338, "pitch": 65, "duration": 2, "velocity": 81}, {"time": 341, "pitch": 65, "duration": 3, "velocity": 82}, {"time": 344, "pitch": 62, "duration": 3, "velocity": 84}, {"time": 347, "pitch": 65, "duration": 2, "velocity": 84}, {"time": 350, "pitch": 65, "duration": 2, "velocity": 79}, {"time": 353, "pitch": 67, "duration": 2, "velocity": 78}, {"time": 356, "pitch": 72, "duration": 8, "velocity": 84}, {"time": 365, "pitch": 69, "duration": 5, "velocity": 85}, {"time": 371, "pitch": 67, "duration": 6, "velocity": 83}, {"time": 377, "pitch": 65, "duration": 6, "velocity": 83}, {"time": 383, "pitch": 62, "duration": 2, "velocity": 85}, {"time": 386, "pitch": 65, "duration": 3, "velocity": 85}, {"time": 392, "pitch": 62, "duration": 3, "velocity": 85}, {"time": 395, "pitch": 65, "duration": 5, "velocity": 89}, {"time": 401, "pitch": 69, "duration": 2, "velocity": 85}, {"time": 404, "pitch": 69, "duration": 7, "velocity": 90}, {"time": 410, "pitch": 67, "duration": 19, "velocity": 83}, {"time": 431, "pitch": 62, "duration": 3, "velocity": 90}, {"time": 434, "pitch": 65, "duration": 1, "velocity": 84}, {"time": 437, "pitch": 65, "duration": 2, "velocity": 84}, {"time": 440, "pitch": 62, "duration": 2, "velocity": 83}, {"time": 443, "pitch": 65, "duration": 2, "velocity": 85}, {"time": 446, "pitch": 67, "duration": 5, "velocity": 84}, {"time": 452, "pitch": 67, "duration": 15, "velocity": 85}, {"time": 467, "pitch": 69, "duration": 9, "velocity": 84}, {"time": 476, "pitch": 69, "duration": 3, "velocity": 84}, {"time": 479, "pitch": 67, "duration": 3, "velocity": 84}, {"time": 482, "pitch": 65, "duration": 2, "velocity": 83}, {"time": 485, "pitch": 65, "duration": 3, "velocity": 84}, {"time": 488, "pitch": 62, "duration": 3, "velocity": 86}, {"time": 491, "pitch": 65, "duration": 3, "velocity": 85}, {"time": 494, "pitch": 72, "duration": 5, "velocity": 85}, {"time": 500, "pitch": 69, "duration": 21, "velocity": 87}, {"time": 527, "pitch": 62, "duration": 3, "velocity": 87}, {"time": 530, "pitch": 65, "duration": 2, "velocity": 81}, {"time": 533, "pitch": 65, "duration": 3, "velocity": 82}, {"time": 536, "pitch": 62, "duration": 3, "velocity": 84}, {"time": 539, "pitch": 65, "duration": 2, "velocity": 84}, {"time": 542, "pitch": 65, "duration": 2, "velocity": 79}, {"time": 545, "pitch": 67, "duration": 2, "velocity": 78}, {"time": 548, "pitch": 72, "duration": 8, "velocity": 84}, {"time": 557, "pitch": 69, "duration": 5, "velocity": 85}, {"time": 563, "pitch": 67, "duration": 6, "velocity": 83}, {"time": 569, "pitch": 65, "duration": 6, "velocity": 83}, {"time": 575, "pitch": 70, "duration": 3, "velocity": 89}, {"time": 578, "pitch": 69, "duration": 4, "velocity": 87}, {"time": 584, "pitch": 70, "duration": 2, "velocity": 86}, {"time": 587, "pitch": 70, "duration": 3, "velocity": 85}, {"time": 590, "pitch": 69, "duration": 5, "velocity": 89}, {"time": 596, "pitch": 70, "duration": 2, "velocity": 83}, {"time": 599, "pitch": 72, "duration": 24, "velocity": 87}, {"time": 635, "pitch": 69, "duration": 5, "velocity": 94}, {"time": 641, "pitch": 72, "duration": 5, "velocity": 90}, {"time": 647, "pitch": 77, "duration": 3, "velocity": 90}, {"time": 650, "pitch": 76, "duration": 2, "velocity": 85}, {"time": 653, "pitch": 74, "duration": 2, "velocity": 88}, {"time": 656, "pitch": 72, "duration": 2, "velocity": 87}, {"time": 659, "pitch": 72, "duration": 4, "velocity": 89}, {"time": 665, "pitch": 67, "duration": 3, "velocity": 83}, {"time": 668, "pitch": 65, "duration": 2, "velocity": 88}, {"time": 671, "pitch": 67, "duration": 2, "velocity": 85}, {"time": 674, "pitch": 67, "duration": 3, "velocity": 82}, {"time": 677, "pitch": 69, "duration": 5, "velocity": 84}, {"time": 683, "pitch": 69, "duration": 9, "velocity": 89}, {"time": 695, "pitch": 77, "duration": 3, "velocity": 90}, {"time": 698, "pitch": 76, "duration": 2, "velocity": 85}, {"time": 701, "pitch": 74, "duration": 2, "velocity": 88}, {"time": 704, "pitch": 72, "duration": 2, "velocity": 87}, {"time": 707, "pitch": 72, "duration": 4, "velocity": 89}, {"time": 713, "pitch": 67, "duration": 3, "velocity": 83}, {"time": 716, "pitch": 65, "duration": 2, "velocity": 88}, {"time": 719, "pitch": 67, "duration": 2, "velocity": 85}, {"time": 722, "pitch": 67, "duration": 3, "velocity": 82}, {"time": 725, "pitch": 69, "duration": 5, "velocity": 84}, {"time": 731, "pitch": 65, "duration": 9, "velocity": 89}, {"time": 743, "pitch": 77, "duration": 3, "velocity": 90}, {"time": 746, "pitch": 76, "duration": 2, "velocity": 85}, {"time": 749, "pitch": 74, "duration": 2, "velocity": 88}, {"time": 752, "pitch": 72, "duration": 2, "velocity": 87}, {"time": 755, "pitch": 72, "duration": 4, "velocity": 89}, {"time": 761, "pitch": 67, "duration": 3, "velocity": 83}, {"time": 764, "pitch": 65, "duration": 2, "velocity": 88}, {"time": 767, "pitch": 67, "duration": 2, "velocity": 85}, {"time": 770, "pitch": 67, "duration": 3, "velocity": 82}, {"time": 773, "pitch": 69, "duration": 5, "velocity": 84}, {"time": 779, "pitch": 69, "duration": 9, "velocity": 89}, {"time": 788, "pitch": 60, "duration": 2, "velocity": 85}, {"time": 791, "pitch": 70, "duration": 2, "velocity": 83}, {"time": 794, "pitch": 69, "duration": 2, "velocity": 83}, {"time": 797, "pitch": 70, "duration": 2, "velocity": 89}, {"time": 800, "pitch": 72, "duration": 5, "velocity": 84}, {"time": 806, "pitch": 69, "duration": 2, "velocity": 83}, {"time": 809, "pitch": 69, "duration": 3, "velocity": 84}, {"time": 812, "pitch": 69, "duration": 6, "velocity": 84}, {"time": 818, "pitch": 67, "duration": 7, "velocity": 78}, {"time": 827, "pitch": 69, "duration": 5, "velocity": 94}, {"time": 833, "pitch": 72, "duration": 5, "velocity": 90}, {"time": 839, "pitch": 77, "duration": 3, "velocity": 90}, {"time": 842, "pitch": 76, "duration": 2, "velocity": 85}, {"time": 845, "pitch": 74, "duration": 2, "velocity": 88}, {"time": 848, "pitch": 72, "duration": 2, "velocity": 87}, {"time": 851, "pitch": 72, "duration": 4, "velocity": 89}, {"time": 857, "pitch": 67, "duration": 3, "velocity": 83}, {"time": 860, "pitch": 65, "duration": 2, "velocity": 88}, {"time": 863, "pitch": 67, "duration": 2, "velocity": 85}, {"time": 866, "pitch": 67, "duration": 3, "velocity": 82}, {"time": 869, "pitch": 69, "duration": 5, "velocity": 84}, {"time": 875, "pitch": 69, "duration": 9, "velocity": 89}, {"time": 887, "pitch": 77, "duration": 3, "velocity": 90}, {"time": 890, "pitch": 76, "duration": 2, "velocity": 85}, {"time": 893, "pitch": 74, "duration": 2, "velocity": 88}, {"time": 896, "pitch": 72, "duration": 2, "velocity": 87}, {"time": 899, "pitch": 72, "duration": 4, "velocity": 89}, {"time": 905, "pitch": 67, "duration": 3, "velocity": 83}, {"time": 908, "pitch": 65, "duration": 2, "velocity": 88}, {"time": 911, "pitch": 67, "duration": 2, "velocity": 85}, {"time": 914, "pitch": 67, "duration": 3, "velocity": 82}, {"time": 917, "pitch": 69, "duration": 5, "velocity": 84}, {"time": 923, "pitch": 65, "duration": 9, "velocity": 89}, {"time": 935, "pitch": 77, "duration": 3, "velocity": 90}, {"time": 938, "pitch": 76, "duration": 2, "velocity": 85}, {"time": 941, "pitch": 74, "duration": 2, "velocity": 88}, {"time": 944, "pitch": 72, "duration": 2, "velocity": 87}, {"time": 947, "pitch": 72, "duration": 4, "velocity": 89}, {"time": 953, "pitch": 67, "duration": 3, "velocity": 83}, {"time": 956, "pitch": 65, "duration": 2, "velocity": 88}, {"time": 959, "pitch": 67, "duration": 2, "velocity": 85}, {"time": 962, "pitch": 67, "duration": 3, "velocity": 82}, {"time": 965, "pitch": 69, "duration": 5, "velocity": 84}, {"time": 971, "pitch": 69, "duration": 9, "velocity": 89}, {"time": 980, "pitch": 60, "duration": 2, "velocity": 85}, {"time": 983, "pitch": 70, "duration": 2, "velocity": 83}, {"time": 986, "pitch": 69, "duration": 3, "velocity": 83}, {"time": 992, "pitch": 65, "duration": 2, "velocity": 85}, {"time": 995, "pitch": 65, "duration": 2, "velocity": 85}, {"time": 998, "pitch": 67, "duration": 8, "velocity": 82}, {"time": 1007, "pitch": 65, "duration": 24, "velocity": 83}, {"time": 1247, "pitch": 62, "duration": 3, "velocity": 90}, {"time": 1250, "pitch": 65, "duration": 1, "velocity": 84}, {"time": 1253, "pitch": 65, "duration": 2, "velocity": 84}, {"time": 1256, "pitch": 62, "duration": 2, "velocity": 83}, {"time": 1259, "pitch": 65, "duration": 2, "velocity": 85}, {"time": 1262, "pitch": 67, "duration": 5, "velocity": 84}, {"time": 1268, "pitch": 67, "duration": 16, "velocity": 85}, {"time": 1295, "pitch": 62, "duration": 3, "velocity": 84}, {"time": 1298, "pitch": 65, "duration": 2, "velocity": 83}, {"time": 1301, "pitch": 65, "duration": 3, "velocity": 84}, {"time": 1304, "pitch": 62, "duration": 3, "velocity": 86}, {"time": 1307, "pitch": 65, "duration": 3, "velocity": 85}, {"time": 1310, "pitch": 69, "duration": 5, "velocity": 85}, {"time": 1316, "pitch": 69, "duration": 21, "velocity": 87}, {"time": 1343, "pitch": 62, "duration": 3, "velocity": 87}, {"time": 1346, "pitch": 65, "duration": 2, "velocity": 81}, {"time": 1349, "pitch": 65, "duration": 3, "velocity": 82}, {"time": 1352, "pitch": 62, "duration": 3, "velocity": 84}, {"time": 1355, "pitch": 65, "duration": 2, "velocity": 84}, {"time": 1358, "pitch": 65, "duration": 2, "velocity": 79}, {"time": 1361, "pitch": 67, "duration": 2, "velocity": 78}, {"time": 1364, "pitch": 72, "duration": 8, "velocity": 84}, {"time": 1373, "pitch": 69, "duration": 5, "velocity": 85}, {"time": 1379, "pitch": 67, "duration": 6, "velocity": 83}, {"time": 1385, "pitch": 65, "duration": 6, "velocity": 83}, {"time": 1391, "pitch": 62, "duration": 2, "velocity": 85}, {"time": 1394, "pitch": 65, "duration": 3, "velocity": 85}, {"time": 1400, "pitch": 62, "duration": 3, "velocity": 85}, {"time": 1403, "pitch": 65, "duration": 5, "velocity": 89}, {"time": 1409, "pitch": 69, "duration": 2, "velocity": 85}, {"time": 1412, "pitch": 69, "duration": 7, "velocity": 90}, {"time": 1418, "pitch": 67, "duration": 19, "velocity": 83}, {"time": 1439, "pitch": 62, "duration": 3, "velocity": 90}, {"time": 1442, "pitch": 65, "duration": 1, "velocity": 84}, {"time": 1445, "pitch": 65, "duration": 2, "velocity": 84}, {"time": 1448, "pitch": 62, "duration": 2, "velocity": 83}, {"time": 1451, "pitch": 65, "duration": 2, "velocity": 85}, {"time": 1454, "pitch": 67, "duration": 5, "velocity": 84}, {"time": 1460, "pitch": 67, "duration": 15, "velocity": 85}, {"time": 1475, "pitch": 69, "duration": 9, "velocity": 84}, {"time": 1484, "pitch": 69, "duration": 3, "velocity": 84}, {"time": 1487, "pitch": 67, "duration": 3, "velocity": 84}, {"time": 1490, "pitch": 65, "duration": 2, "velocity": 83}, {"time": 1493, "pitch": 65, "duration": 3, "velocity": 84}, {"time": 1496, "pitch": 62, "duration": 3, "velocity": 86}, {"time": 1499, "pitch": 65, "duration": 3, "velocity": 85}, {"time": 1502, "pitch": 72, "duration": 5, "velocity": 85}, {"time": 1508, "pitch": 69, "duration": 21, "velocity": 87}, {"time": 1535, "pitch": 62, "duration": 3, "velocity": 87}, {"time": 1538, "pitch": 65, "duration": 2, "velocity": 81}, {"time": 1541, "pitch": 65, "duration": 3, "velocity": 82}, {"time": 1544, "pitch": 62, "duration": 3, "velocity": 84}, {"time": 1547, "pitch": 65, "duration": 2, "velocity": 84}, {"time": 1550, "pitch": 65, "duration": 2, "velocity": 79}, {"time": 1553, "pitch": 67, "duration": 2, "velocity": 78}, {"time": 1556, "pitch": 72, "duration": 8, "velocity": 84}, {"time": 1565, "pitch": 69, "duration": 5, "velocity": 85}, {"time": 1571, "pitch": 67, "duration": 6, "velocity": 83}, {"time": 1577, "pitch": 65, "duration": 6, "velocity": 83}, {"time": 1583, "pitch": 70, "duration": 3, "velocity": 89}, {"time": 1586, "pitch": 69, "duration": 4, "velocity": 87}, {"time": 1592, "pitch": 70, "duration": 2, "velocity": 86}, {"time": 1595, "pitch": 70, "duration": 3, "velocity": 85}, {"time": 1598, "pitch": 69, "duration": 5, "velocity": 89}, {"time": 1604, "pitch": 70, "duration": 2, "velocity": 83}, {"time": 1607, "pitch": 72, "duration": 24, "velocity": 87}, {"time": 1643, "pitch": 69, "duration": 5, "velocity": 94}, {"time": 1649, "pitch": 72, "duration": 5, "velocity": 90}, {"time": 1655, "pitch": 77, "duration": 3, "velocity": 90}, {"time": 1658, "pitch": 76, "duration": 2, "velocity": 85}, {"time": 1661, "pitch": 74, "duration": 2, "velocity": 88}, {"time": 1664, "pitch": 72, "duration": 2, "velocity": 87}, {"time": 1667, "pitch": 72, "duration": 4, "velocity": 89}, {"time": 1673, "pitch": 67, "duration": 3, "velocity": 83}, {"time": 1676, "pitch": 65, "duration": 2, "velocity": 88}, {"time": 1679, "pitch": 67, "duration": 2, "velocity": 85}, {"time": 1682, "pitch": 67, "duration": 3, "velocity": 82}, {"time": 1685, "pitch": 69, "duration": 5, "velocity": 84}, {"time": 1691, "pitch": 69, "duration": 9, "velocity": 89}, {"time": 1703, "pitch": 77, "duration": 3, "velocity": 90}, {"time": 1706, "pitch": 76, "duration": 2, "velocity": 85}, {"time": 1709, "pitch": 74, "duration": 2, "velocity": 88}, {"time": 1712, "pitch": 72, "duration": 2, "velocity": 87}, {"time": 1715, "pitch": 72, "duration": 4, "velocity": 89}, {"time": 1721, "pitch": 67, "duration": 3, "velocity": 83}, {"time": 1724, "pitch": 65, "duration": 2, "velocity": 88}, {"time": 1727, "pitch": 67, "duration": 2, "velocity": 85}, {"time": 1730, "pitch": 67, "duration": 3, "velocity": 82}, {"time": 1733, "pitch": 69, "duration": 5, "velocity": 84}, {"time": 1739, "pitch": 65, "duration": 9, "velocity": 89}, {"time": 1751, "pitch": 77, "duration": 3, "velocity": 90}, {"time": 1754, "pitch": 76, "duration": 2, "velocity": 85}, {"time": 1757, "pitch": 74, "duration": 2, "velocity": 88}, {"time": 1760, "pitch": 72, "duration": 2, "velocity": 87}, {"time": 1763, "pitch": 72, "duration": 4, "velocity": 89}, {"time": 1769, "pitch": 67, "duration": 3, "velocity": 83}, {"time": 1772, "pitch": 65, "duration": 2, "velocity": 88}, {"time": 1775, "pitch": 67, "duration": 2, "velocity": 85}, {"time": 1778, "pitch": 67, "duration": 3, "velocity": 82}, {"time": 1781, "pitch": 69, "duration": 5, "velocity": 84}, {"time": 1787, "pitch": 69, "duration": 9, "velocity": 89}, {"time": 1796, "pitch": 60, "duration": 2, "velocity": 85}, {"time": 1799, "pitch": 70, "duration": 2, "velocity": 83}, {"time": 1802, "pitch": 69, "duration": 2, "velocity": 83}, {"time": 1805, "pitch": 70, "duration": 2, "velocity": 89}, {"time": 1808, "pitch": 72, "duration": 5, "velocity": 84}, {"time": 1814, "pitch": 69, "duration": 2, "velocity": 83}, {"time": 1817, "pitch": 69, "duration": 3, "velocity": 84}, {"time": 1820, "pitch": 69, "duration": 6, "velocity": 84}, {"time": 1826, "pitch": 67, "duration": 7, "velocity": 78}, {"time": 1835, "pitch": 69, "duration": 5, "velocity": 94}, {"time": 1841, "pitch": 72, "duration": 5, "velocity": 90}, {"time": 1847, "pitch": 77, "duration": 3, "velocity": 90}, {"time": 1850, "pitch": 76, "duration": 2, "velocity": 85}, {"time": 1853, "pitch": 74, "duration": 2, "velocity": 88}, {"time": 1856, "pitch": 72, "duration": 2, "velocity": 87}, {"time": 1859, "pitch": 72, "duration": 4, "velocity": 89}, {"time": 1865, "pitch": 67, "duration": 3, "velocity": 83}, {"time": 1868, "pitch": 65, "duration": 2, "velocity": 88}, {"time": 1871, "pitch": 67, "duration": 2, "velocity": 85}, {"time": 1874, "pitch": 67, "duration": 3, "velocity": 82}, {"time": 1877, "pitch": 69, "duration": 5, "velocity": 84}, {"time": 1883, "pitch": 69, "duration": 9, "velocity": 89}, {"time": 1895, "pitch": 77, "duration": 3, "velocity": 90}, {"time": 1898, "pitch": 76, "duration": 2, "velocity": 85}, {"time": 1901, "pitch": 74, "duration": 2, "velocity": 88}, {"time": 1904, "pitch": 72, "duration": 2, "velocity": 87}, {"time": 1907, "pitch": 72, "duration": 4, "velocity": 89}, {"time": 1913, "pitch": 67, "duration": 3, "velocity": 83}, {"time": 1916, "pitch": 65, "duration": 2, "velocity": 88}, {"time": 1919, "pitch": 67, "duration": 2, "velocity": 85}, {"time": 1922, "pitch": 67, "duration": 3, "velocity": 82}, {"time": 1925, "pitch": 69, "duration": 5, "velocity": 84}, {"time": 1931, "pitch": 65, "duration": 9, "velocity": 89}, {"time": 1943, "pitch": 77, "duration": 3, "velocity": 90}, {"time": 1946, "pitch": 76, "duration": 2, "velocity": 85}, {"time": 1949, "pitch": 74, "duration": 2, "velocity": 88}, {"time": 1952, "pitch": 72, "duration": 2, "velocity": 87}, {"time": 1955, "pitch": 72, "duration": 4, "velocity": 89}, {"time": 1961, "pitch": 67, "duration": 3, "velocity": 83}, {"time": 1964, "pitch": 65, "duration": 2, "velocity": 88}, {"time": 1967, "pitch": 67, "duration": 2, "velocity": 85}, {"time": 1970, "pitch": 67, "duration": 3, "velocity": 82}, {"time": 1973, "pitch": 69, "duration": 5, "velocity": 84}, {"time": 1979, "pitch": 69, "duration": 9, "velocity": 89}, {"time": 1988, "pitch": 60, "duration": 2, "velocity": 85}, {"time": 1991, "pitch": 70, "duration": 2, "velocity": 83}, {"time": 1994, "pitch": 69, "duration": 3, "velocity": 83}, {"time": 2000, "pitch": 65, "duration": 2, "velocity": 85}, {"time": 2003, "pitch": 65, "duration": 2, "velocity": 85}, {"time": 2006, "pitch": 67, "duration": 8, "velocity": 82}, {"time": 2015, "pitch": 65, "duration": 24, "velocity": 83}, {"time": 2051, "pitch": 69, "duration": 5, "velocity": 94}, {"time": 2057, "pitch": 72, "duration": 5, "velocity": 90}, {"time": 2063, "pitch": 77, "duration": 3, "velocity": 90}, {"time": 2066, "pitch": 76, "duration": 2, "velocity": 85}, {"time": 2069, "pitch": 74, "duration": 2, "velocity": 88}, {"time": 2072, "pitch": 72, "duration": 2, "velocity": 87}, {"time": 2075, "pitch": 72, "duration": 4, "velocity": 89}, {"time": 2081, "pitch": 67, "duration": 3, "velocity": 83}, {"time": 2084, "pitch": 65, "duration": 2, "velocity": 88}, {"time": 2087, "pitch": 67, "duration": 2, "velocity": 85}, {"time": 2090, "pitch": 67, "duration": 3, "velocity": 82}, {"time": 2093, "pitch": 69, "duration": 5, "velocity": 84}, {"time": 2099, "pitch": 69, "duration": 9, "velocity": 89}, {"time": 2111, "pitch": 77, "duration": 3, "velocity": 90}, {"time": 2114, "pitch": 76, "duration": 2, "velocity": 85}, {"time": 2117, "pitch": 74, "duration": 2, "velocity": 88}, {"time": 2120, "pitch": 72, "duration": 2, "velocity": 87}, {"time": 2123, "pitch": 72, "duration": 4, "velocity": 89}, {"time": 2129, "pitch": 67, "duration": 3, "velocity": 83}, {"time": 2132, "pitch": 65, "duration": 2, "velocity": 88}, {"time": 2135, "pitch": 67, "duration": 2, "velocity": 85}, {"time": 2138, "pitch": 67, "duration": 3, "velocity": 82}, {"time": 2141, "pitch": 69, "duration": 5, "velocity": 84}, {"time": 2147, "pitch": 65, "duration": 9, "velocity": 89}, {"time": 2159, "pitch": 77, "duration": 3, "velocity": 90}, {"time": 2162, "pitch": 76, "duration": 2, "velocity": 85}, {"time": 2165, "pitch": 74, "duration": 2, "velocity": 88}, {"time": 2168, "pitch": 72, "duration": 2, "velocity": 87}, {"time": 2171, "pitch": 72, "duration": 4, "velocity": 89}, {"time": 2177, "pitch": 67, "duration": 3, "velocity": 83}, {"time": 2180, "pitch": 65, "duration": 2, "velocity": 88}, {"time": 2183, "pitch": 67, "duration": 2, "velocity": 85}, {"time": 2186, "pitch": 67, "duration": 3, "velocity": 82}, {"time": 2189, "pitch": 69, "duration": 5, "velocity": 84}, {"time": 2195, "pitch": 69, "duration": 9, "velocity": 89}, {"time": 2204, "pitch": 60, "duration": 2, "velocity": 85}, {"time": 2207, "pitch": 70, "duration": 2, "velocity": 83}, {"time": 2210, "pitch": 69, "duration": 2, "velocity": 83}, {"time": 2213, "pitch": 70, "duration": 2, "velocity": 89}, {"time": 2216, "pitch": 72, "duration": 5, "velocity": 84}, {"time": 2222, "pitch": 69, "duration": 2, "velocity": 83}, {"time": 2225, "pitch": 69, "duration": 3, "velocity": 84}, {"time": 2228, "pitch": 69, "duration": 6, "velocity": 84}, {"time": 2234, "pitch": 67, "duration": 7, "velocity": 78}, {"time": 2243, "pitch": 69, "duration": 5, "velocity": 94}, {"time": 2249, "pitch": 72, "duration": 5, "velocity": 90}, {"time": 2255, "pitch": 77, "duration": 3, "velocity": 90}, {"time": 2258, "pitch": 76, "duration": 2, "velocity": 85}, {"time": 2261, "pitch": 74, "duration": 2, "velocity": 88}, {"time": 2264, "pitch": 72, "duration": 2, "velocity": 87}, {"time": 2267, "pitch": 72, "duration": 4, "velocity": 89}, {"time": 2273, "pitch": 67, "duration": 3, "velocity": 83}, {"time": 2276, "pitch": 65, "duration": 2, "velocity": 88}, {"time": 2279, "pitch": 67, "duration": 2, "velocity": 85}, {"time": 2282, "pitch": 67, "duration": 3, "velocity": 82}, {"time": 2285, "pitch": 69, "duration": 5, "velocity": 84}, {"time": 2291, "pitch": 69, "duration": 9, "velocity": 89}, {"time": 2303, "pitch": 77, "duration": 3, "velocity": 90}, {"time": 2306, "pitch": 76, "duration": 2, "velocity": 85}, {"time": 2309, "pitch": 74, "duration": 2, "velocity": 88}, {"time": 2312, "pitch": 72, "duration": 2, "velocity": 87}, {"time": 2315, "pitch": 72, "duration": 4, "velocity": 89}, {"time": 2321, "pitch": 67, "duration": 3, "velocity": 83}, {"time": 2324, "pitch": 65, "duration": 2, "velocity": 88}, {"time": 2327, "pitch": 67, "duration": 2, "velocity": 85}, {"time": 2330, "pitch": 67, "duration": 3, "velocity": 82}, {"time": 2333, "pitch": 69, "duration": 5, "velocity": 84}, {"time": 2339, "pitch": 65, "duration": 9, "velocity": 89}, {"time": 2351, "pitch": 77, "duration": 3, "velocity": 90}, {"time": 2354, "pitch": 76, "duration": 2, "velocity": 85}, {"time": 2357, "pitch": 74, "duration": 2, "velocity": 88}, {"time": 2360, "pitch": 72, "duration": 2, "velocity": 87}, {"time": 2363, "pitch": 72, "duration": 4, "velocity": 89}, {"time": 2369, "pitch": 67, "duration": 3, "velocity": 83}, {"time": 2372, "pitch": 65, "duration": 2, "velocity": 88}, {"time": 2375, "pitch": 67, "duration": 2, "velocity": 85}, {"time": 2378, "pitch": 67, "duration": 3, "velocity": 82}, {"time": 2381, "pitch": 69, "duration": 5, "velocity": 84}, {"time": 2387, "pitch": 69, "duration": 9, "velocity": 89}, {"time": 2396, "pitch": 60, "duration": 2, "velocity": 85}, {"time": 2399, "pitch": 70, "duration": 2, "velocity": 83}, {"time": 2402, "pitch": 69, "duration": 3, "velocity": 83}, {"time": 2408, "pitch": 65, "duration": 2, "velocity": 85}, {"time": 2411, "pitch": 65, "duration": 2, "velocity": 85}, {"time": 2414, "pitch": 67, "duration": 8, "velocity": 82}, {"time": 2423, "pitch": 65, "duration": 18, "velocity": 83}, {"time": 2443, "pitch": 60, "duration": 3, "velocity": 87}, {"time": 2447, "pitch": 70, "duration": 3, "velocity": 97}, {"time": 2450, "pitch": 69, "duration": 7, "velocity": 94}, {"time": 2457, "pitch": 65, "duration": 3, "velocity": 87}, {"time": 2461, "pitch": 65, "duration": 3, "velocity": 90}, {"time": 2464, "pitch": 67, "duration": 8, "velocity": 85}, {"time": 2472, "pitch": 65, "duration": 26, "velocity": 84}]}, {"program": 0, "is_drum": false, "name": "PIANO", "notes": [{"time": 23, "pitch": 41, "duration": 18, "velocity": 83}, {"time": 23, "pitch": 53, "duration": 16, "velocity": 74}, {"time": 23, "pitch": 60, "duration": 13, "velocity": 77}, {"time": 29, "pitch": 48, "duration": 12, "velocity": 68}, {"time": 32, "pitch": 65, "duration": 19, "velocity": 83}, {"time": 38, "pitch": 60, "duration": 9, "velocity": 78}, {"time": 41, "pitch": 53, "duration": 6, "velocity": 75}, {"time": 47, "pitch": 44, "duration": 17, "velocity": 85}, {"time": 50, "pitch": 51, "duration": 14, "velocity": 66}, {"time": 53, "pitch": 56, "duration": 2, "velocity": 70}, {"time": 56, "pitch": 56, "duration": 14, "velocity": 81}, {"time": 56, "pitch": 65, "duration": 15, "velocity": 81}, {"time": 71, "pitch": 46, "duration": 18, "velocity": 78}, {"time": 74, "pitch": 53, "duration": 5, "velocity": 79}, {"time": 77, "pitch": 58, "duration": 2, "velocity": 76}, {"time": 80, "pitch": 53, "duration": 28, "velocity": 83}, {"time": 80, "pitch": 58, "duration": 8, "velocity": 72}, {"time": 80, "pitch": 62, "duration": 10, "velocity": 77}, {"time": 95, "pitch": 41, "duration": 22, "velocity": 84}, {"time": 98, "pitch": 48, "duration": 19, "velocity": 77}, {"time": 101, "pitch": 60, "duration": 7, "velocity": 78}, {"time": 104, "pitch": 65, "duration": 16, "velocity": 82}, {"time": 110, "pitch": 60, "duration": 9, "velocity": 78}, {"time": 113, "pitch": 53, "duration": 6, "velocity": 67}, {"time": 119, "pitch": 50, "duration": 19, "velocity": 86}, {"time": 119, "pitch": 57, "duration": 11, "velocity": 78}, {"time": 119, "pitch": 65, "duration": 1, "velocity": 80}, {"time": 128, "pitch": 62, "duration": 7, "velocity": 87}, {"time": 134, "pitch": 57, "duration": 4, "velocity": 78}, {"time": 137, "pitch": 65, "duration": 12, "velocity": 79}, {"time": 140, "pitch": 57, "duration": 4, "velocity": 66}, {"time": 143, "pitch": 48, "duration": 17, "velocity": 77}, {"time": 149, "pitch": 60, "duration": 5, "velocity": 71}, {"time": 152, "pitch": 55, "duration": 7, "velocity": 78}, {"time": 158, "pitch": 64, "duration": 4, "velocity": 85}, {"time": 161, "pitch": 55, "duration": 2, "velocity": 72}, {"time": 167, "pitch": 46, "duration": 46, "velocity": 83}, {"time": 167, "pitch": 53, "duration": 4, "velocity": 77}, {"time": 167, "pitch": 58, "duration": 10, "velocity": 76}, {"time": 173, "pitch": 50, "duration": 7, "velocity": 41}, {"time": 176, "pitch": 62, "duration": 13, "velocity": 82}, {"time": 182, "pitch": 50, "duration": 32, "velocity": 72}, {"time": 185, "pitch": 53, "duration": 5, "velocity": 71}, {"time": 188, "pitch": 58, "duration": 2, "velocity": 76}, {"time": 191, "pitch": 53, "duration": 11, "velocity": 77}, {"time": 191, "pitch": 58, "duration": 11, "velocity": 75}, {"time": 191, "pitch": 62, "duration": 10, "velocity": 83}, {"time": 200, "pitch": 65, "duration": 13, "velocity": 83}, {"time": 203, "pitch": 62, "duration": 11, "velocity": 75}, {"time": 206, "pitch": 53, "duration": 4, "velocity": 76}, {"time": 209, "pitch": 58, "duration": 5, "velocity": 70}, {"time": 215, "pitch": 46, "duration": 13, "velocity": 74}, {"time": 215, "pitch": 53, "duration": 21, "velocity": 72}, {"time": 215, "pitch": 58, "duration": 21, "velocity": 70}, {"time": 215, "pitch": 62, "duration": 21, "velocity": 69}, {"time": 239, "pitch": 53, "duration": 19, "velocity": 85}, {"time": 239, "pitch": 65, "duration": 13, "velocity": 79}, {"time": 245, "pitch": 57, "duration": 13, "velocity": 64}, {"time": 248, "pitch": 72, "duration": 13, "velocity": 85}, {"time": 254, "pitch": 69, "duration": 13, "velocity": 83}, {"time": 257, "pitch": 60, "duration": 3, "velocity": 65}, {"time": 263, "pitch": 52, "duration": 17, "velocity": 83}, {"time": 266, "pitch": 60, "duration": 14, "velocity": 77}, {"time": 269, "pitch": 67, "duration": 7, "velocity": 75}, {"time": 272, "pitch": 72, "duration": 16, "velocity": 81}, {"time": 278, "pitch": 67, "duration": 3, "velocity": 77}, {"time": 287, "pitch": 50, "duration": 16, "velocity": 84}, {"time": 287, "pitch": 62, "duration": 10, "velocity": 75}, {"time": 287, "pitch": 65, "duration": 11, "velocity": 77}, {"time": 293, "pitch": 57, "duration": 6, "velocity": 61}, {"time": 296, "pitch": 69, "duration": 7, "velocity": 81}, {"time": 302, "pitch": 65, "duration": 4, "velocity": 79}, {"time": 305, "pitch": 62, "duration": 1, "velocity": 78}, {"time": 311, "pitch": 45, "duration": 16, "velocity": 83}, {"time": 311, "pitch": 55, "duration": 7, "velocity": 72}, {"time": 311, "pitch": 57, "duration": 7, "velocity": 71}, {"time": 311, "pitch": 60, "duration": 9, "velocity": 77}, {"time": 317, "pitch": 52, "duration": 10, "velocity": 61}, {"time": 320, "pitch": 55, "duration": 7, "velocity": 84}, {"time": 326, "pitch": 64, "duration": 6, "velocity": 86}, {"time": 329, "pitch": 55, "duration": 5, "velocity": 75}, {"time": 335, "pitch": 46, "duration": 20, "velocity": 83}, {"time": 335, "pitch": 58, "duration": 8, "velocity": 69}, {"time": 335, "pitch": 62, "duration": 10, "velocity": 78}, {"time": 341, "pitch": 53, "duration": 8, "velocity": 31}, {"time": 344, "pitch": 65, "duration": 10, "velocity": 83}, {"time": 350, "pitch": 62, "duration": 4, "velocity": 85}, {"time": 353, "pitch": 58, "duration": 4, "velocity": 79}, {"time": 356, "pitch": 62, "duration": 10, "velocity": 75}, {"time": 359, "pitch": 45, "duration": 11, "velocity": 85}, {"time": 362, "pitch": 52, "duration": 7, "velocity": 73}, {"time": 365, "pitch": 60, "duration": 3, "velocity": 78}, {"time": 371, "pitch": 50, "duration": 8, "velocity": 83}, {"time": 371, "pitch": 57, "duration": 8, "velocity": 78}, {"time": 371, "pitch": 62, "duration": 8, "velocity": 79}, {"time": 383, "pitch": 43, "duration": 21, "velocity": 84}, {"time": 383, "pitch": 55, "duration": 13, "velocity": 78}, {"time": 383, "pitch": 62, "duration": 12, "velocity": 82}, {"time": 386, "pitch": 50, "duration": 18, "velocity": 76}, {"time": 389, "pitch": 58, "duration": 6, "velocity": 77}, {"time": 392, "pitch": 67, "duration": 8, "velocity": 82}, {"time": 398, "pitch": 62, "duration": 9, "velocity": 79}, {"time": 401, "pitch": 55, "duration": 4, "velocity": 78}, {"time": 407, "pitch": 48, "duration": 19, "velocity": 85}, {"time": 407, "pitch": 55, "duration": 4, "velocity": 79}, {"time": 407, "pitch": 60, "duration": 6, "velocity": 77}, {"time": 413, "pitch": 55, "duration": 12, "velocity": 72}, {"time": 416, "pitch": 65, "duration": 3, "velocity": 84}, {"time": 419, "pitch": 64, "duration": 3, "velocity": 97}, {"time": 422, "pitch": 62, "duration": 2, "velocity": 83}, {"time": 425, "pitch": 60, "duration": 3, "velocity": 83}, {"time": 431, "pitch": 41, "duration": 17, "velocity": 83}, {"time": 431, "pitch": 53, "duration": 16, "velocity": 79}, {"time": 431, "pitch": 57, "duration": 16, "velocity": 76}, {"time": 437, "pitch": 48, "duration": 12, "velocity": 68}, {"time": 440, "pitch": 60, "duration": 7, "velocity": 80}, {"time": 446, "pitch": 65, "duration": 9, "velocity": 85}, {"time": 449, "pitch": 53, "duration": 3, "velocity": 79}, {"time": 455, "pitch": 48, "duration": 18, "velocity": 84}, {"time": 455, "pitch": 55, "duration": 16, "velocity": 79}, {"time": 455, "pitch": 60, "duration": 10, "velocity": 77}, {"time": 461, "pitch": 52, "duration": 12, "velocity": 57}, {"time": 464, "pitch": 64, "duration": 7, "velocity": 85}, {"time": 470, "pitch": 60, "duration": 4, "velocity": 84}, {"time": 473, "pitch": 55, "duration": 2, "velocity": 80}, {"time": 479, "pitch": 50, "duration": 16, "velocity": 84}, {"time": 479, "pitch": 57, "duration": 8, "velocity": 75}, {"time": 479, "pitch": 62, "duration": 10, "velocity": 81}, {"time": 485, "pitch": 53, "duration": 10, "velocity": 50}, {"time": 488, "pitch": 65, "duration": 7, "velocity": 86}, {"time": 494, "pitch": 62, "duration": 4, "velocity": 84}, {"time": 497, "pitch": 57, "duration": 2, "velocity": 73}, {"time": 503, "pitch": 45, "duration": 18, "velocity": 84}, {"time": 503, "pitch": 57, "duration": 4, "velocity": 76}, {"time": 503, "pitch": 60, "duration": 6, "velocity": 79}, {"time": 506, "pitch": 52, "duration": 16, "velocity": 76}, {"time": 509, "pitch": 57, "duration": 2, "velocity": 78}, {"time": 512, "pitch": 57, "duration": 8, "velocity": 78}, {"time": 512, "pitch": 64, "duration": 10, "velocity": 85}, {"time": 521, "pitch": 60, "duration": 2, "velocity": 84}, {"time": 527, "pitch": 46, "duration": 19, "velocity": 87}, {"time": 527, "pitch": 58, "duration": 8, "velocity": 72}, {"time": 527, "pitch": 62, "duration": 8, "velocity": 78}, {"time": 533, "pitch": 53, "duration": 8, "velocity": 69}, {"time": 536, "pitch": 58, "duration": 4, "velocity": 84}, {"time": 536, "pitch": 62, "duration": 4, "velocity": 85}, {"time": 536, "pitch": 65, "duration": 7, "velocity": 83}, {"time": 542, "pitch": 62, "duration": 7, "velocity": 83}, {"time": 545, "pitch": 58, "duration": 2, "velocity": 79}, {"time": 551, "pitch": 45, "duration": 11, "velocity": 83}, {"time": 551, "pitch": 57, "duration": 9, "velocity": 80}, {"time": 551, "pitch": 60, "duration": 11, "velocity": 83}, {"time": 563, "pitch": 50, "duration": 7, "velocity": 83}, {"time": 563, "pitch": 57, "duration": 7, "velocity": 83}, {"time": 563, "pitch": 62, "duration": 7, "velocity": 82}, {"time": 575, "pitch": 43, "duration": 21, "velocity": 84}, {"time": 575, "pitch": 58, "duration": 8, "velocity": 76}, {"time": 575, "pitch": 62, "duration": 10, "velocity": 83}, {"time": 578, "pitch": 50, "duration": 17, "velocity": 66}, {"time": 581, "pitch": 55, "duration": 5, "velocity": 79}, {"time": 587, "pitch": 58, "duration": 7, "velocity": 78}, {"time": 593, "pitch": 55, "duration": 3, "velocity": 69}, {"time": 599, "pitch": 48, "duration": 22, "velocity": 85}, {"time": 599, "pitch": 55, "duration": 7, "velocity": 78}, {"time": 599, "pitch": 60, "duration": 8, "velocity": 80}, {"time": 605, "pitch": 52, "duration": 16, "velocity": 72}, {"time": 608, "pitch": 55, "duration": 1, "velocity": 61}, {"time": 608, "pitch": 64, "duration": 7, "velocity": 86}, {"time": 614, "pitch": 60, "duration": 7, "velocity": 84}, {"time": 620, "pitch": 55, "duration": 2, "velocity": 78}, {"time": 623, "pitch": 48, "duration": 20, "velocity": 85}, {"time": 623, "pitch": 55, "duration": 23, "velocity": 85}, {"time": 623, "pitch": 60, "duration": 23, "velocity": 84}, {"time": 647, "pitch": 46, "duration": 20, "velocity": 87}, {"time": 647, "pitch": 65, "duration": 7, "velocity": 84}, {"time": 650, "pitch": 53, "duration": 11, "velocity": 77}, {"time": 653, "pitch": 58, "duration": 13, "velocity": 84}, {"time": 656, "pitch": 62, "duration": 13, "velocity": 87}, {"time": 656, "pitch": 65, "duration": 18, "velocity": 84}, {"time": 665, "pitch": 53, "duration": 3, "velocity": 84}, {"time": 668, "pitch": 58, "duration": 3, "velocity": 84}, {"time": 671, "pitch": 41, "duration": 18, "velocity": 84}, {"time": 674, "pitch": 48, "duration": 14, "velocity": 72}, {"time": 677, "pitch": 57, "duration": 7, "velocity": 84}, {"time": 680, "pitch": 60, "duration": 5, "velocity": 83}, {"time": 680, "pitch": 65, "duration": 14, "velocity": 85}, {"time": 686, "pitch": 57, "duration": 4, "velocity": 77}, {"time": 689, "pitch": 60, "duration": 2, "velocity": 84}, {"time": 695, "pitch": 46, "duration": 17, "velocity": 85}, {"time": 695, "pitch": 58, "duration": 4, "velocity": 79}, {"time": 695, "pitch": 62, "duration": 7, "velocity": 82}, {"time": 698, "pitch": 53, "duration": 14, "velocity": 74}, {"time": 701, "pitch": 58, "duration": 2, "velocity": 85}, {"time": 704, "pitch": 58, "duration": 4, "velocity": 88}, {"time": 704, "pitch": 62, "duration": 4, "velocity": 84}, {"time": 704, "pitch": 65, "duration": 8, "velocity": 84}, {"time": 710, "pitch": 62, "duration": 4, "velocity": 83}, {"time": 713, "pitch": 58, "duration": 2, "velocity": 83}, {"time": 719, "pitch": 41, "duration": 18, "velocity": 84}, {"time": 719, "pitch": 57, "duration": 4, "velocity": 76}, {"time": 719, "pitch": 60, "duration": 6, "velocity": 83}, {"time": 722, "pitch": 48, "duration": 15, "velocity": 81}, {"time": 725, "pitch": 57, "duration": 7, "velocity": 83}, {"time": 728, "pitch": 65, "duration": 7, "velocity": 83}, {"time": 734, "pitch": 60, "duration": 3, "velocity": 88}, {"time": 737, "pitch": 57, "duration": 3, "velocity": 77}, {"time": 743, "pitch": 46, "duration": 19, "velocity": 88}, {"time": 743, "pitch": 58, "duration": 4, "velocity": 79}, {"time": 743, "pitch": 62, "duration": 8, "velocity": 83}, {"time": 746, "pitch": 53, "duration": 15, "velocity": 69}, {"time": 749, "pitch": 58, "duration": 2, "velocity": 83}, {"time": 752, "pitch": 58, "duration": 4, "velocity": 76}, {"time": 752, "pitch": 62, "duration": 4, "velocity": 83}, {"time": 752, "pitch": 65, "duration": 7, "velocity": 78}, {"time": 758, "pitch": 62, "duration": 4, "velocity": 84}, {"time": 761, "pitch": 58, "duration": 1, "velocity": 85}, {"time": 767, "pitch": 41, "duration": 18, "velocity": 84}, {"time": 767, "pitch": 57, "duration": 3, "velocity": 78}, {"time": 767, "pitch": 60, "duration": 7, "velocity": 79}, {"time": 770, "pitch": 48, "duration": 16, "velocity": 75}, {"time": 773, "pitch": 57, "duration": 5, "velocity": 75}, {"time": 776, "pitch": 65, "duration": 7, "velocity": 88}, {"time": 782, "pitch": 60, "duration": 3, "velocity": 90}, {"time": 785, "pitch": 57, "duration": 1, "velocity": 79}, {"time": 791, "pitch": 43, "duration": 19, "velocity": 85}, {"time": 791, "pitch": 55, "duration": 14, "velocity": 84}, {"time": 791, "pitch": 62, "duration": 7, "velocity": 84}, {"time": 794, "pitch": 50, "duration": 16, "velocity": 81}, {"time": 797, "pitch": 58, "duration": 3, "velocity": 83}, {"time": 800, "pitch": 58, "duration": 2, "velocity": 56}, {"time": 800, "pitch": 67, "duration": 7, "velocity": 87}, {"time": 806, "pitch": 62, "duration": 8, "velocity": 84}, {"time": 809, "pitch": 58, "duration": 3, "velocity": 84}, {"time": 812, "pitch": 55, "duration": 3, "velocity": 73}, {"time": 815, "pitch": 48, "duration": 20, "velocity": 88}, {"time": 818, "pitch": 55, "duration": 8, "velocity": 75}, {"time": 821, "pitch": 60, "duration": 2, "velocity": 89}, {"time": 824, "pitch": 60, "duration": 3, "velocity": 89}, {"time": 824, "pitch": 65, "duration": 4, "velocity": 104}, {"time": 827, "pitch": 55, "duration": 4, "velocity": 81}, {"time": 830, "pitch": 60, "duration": 2, "velocity": 88}, {"time": 830, "pitch": 64, "duration": 4, "velocity": 92}, {"time": 833, "pitch": 55, "duration": 3, "velocity": 84}, {"time": 836, "pitch": 60, "duration": 4, "velocity": 97}, {"time": 839, "pitch": 46, "duration": 17, "velocity": 92}, {"time": 842, "pitch": 53, "duration": 14, "velocity": 74}, {"time": 845, "pitch": 58, "duration": 2, "velocity": 85}, {"time": 845, "pitch": 62, "duration": 1, "velocity": 58}, {"time": 848, "pitch": 58, "duration": 4, "velocity": 82}, {"time": 848, "pitch": 65, "duration": 5, "velocity": 84}, {"time": 854, "pitch": 62, "duration": 4, "velocity": 84}, {"time": 857, "pitch": 58, "duration": 2, "velocity": 83}, {"time": 863, "pitch": 41, "duration": 16, "velocity": 84}, {"time": 863, "pitch": 57, "duration": 4, "velocity": 78}, {"time": 863, "pitch": 60, "duration": 7, "velocity": 79}, {"time": 866, "pitch": 48, "duration": 13, "velocity": 75}, {"time": 869, "pitch": 57, "duration": 2, "velocity": 79}, {"time": 872, "pitch": 57, "duration": 4, "velocity": 79}, {"time": 872, "pitch": 65, "duration": 5, "velocity": 81}, {"time": 878, "pitch": 57, "duration": 3, "velocity": 86}, {"time": 878, "pitch": 60, "duration": 4, "velocity": 90}, {"time": 887, "pitch": 46, "duration": 18, "velocity": 92}, {"time": 887, "pitch": 58, "duration": 4, "velocity": 79}, {"time": 887, "pitch": 62, "duration": 7, "velocity": 81}, {"time": 890, "pitch": 53, "duration": 15, "velocity": 79}, {"time": 893, "pitch": 58, "duration": 2, "velocity": 77}, {"time": 896, "pitch": 58, "duration": 4, "velocity": 89}, {"time": 896, "pitch": 62, "duration": 4, "velocity": 87}, {"time": 896, "pitch": 65, "duration": 7, "velocity": 85}, {"time": 902, "pitch": 62, "duration": 4, "velocity": 85}, {"time": 905, "pitch": 58, "duration": 2, "velocity": 85}, {"time": 911, "pitch": 41, "duration": 19, "velocity": 84}, {"time": 911, "pitch": 57, "duration": 3, "velocity": 76}, {"time": 911, "pitch": 60, "duration": 7, "velocity": 85}, {"time": 914, "pitch": 48, "duration": 17, "velocity": 78}, {"time": 917, "pitch": 57, "duration": 2, "velocity": 71}, {"time": 920, "pitch": 57, "duration": 10, "velocity": 81}, {"time": 920, "pitch": 64, "duration": 3, "velocity": 83}, {"time": 920, "pitch": 65, "duration": 11, "velocity": 78}, {"time": 929, "pitch": 60, "duration": 4, "velocity": 85}, {"time": 932, "pitch": 57, "duration": 3, "velocity": 80}, {"time": 932, "pitch": 65, "duration": 4, "velocity": 46}, {"time": 935, "pitch": 46, "duration": 16, "velocity": 90}, {"time": 938, "pitch": 53, "duration": 13, "velocity": 74}, {"time": 941, "pitch": 58, "duration": 2, "velocity": 86}, {"time": 944, "pitch": 58, "duration": 6, "velocity": 84}, {"time": 944, "pitch": 62, "duration": 7, "velocity": 87}, {"time": 950, "pitch": 65, "duration": 4, "velocity": 85}, {"time": 953, "pitch": 62, "duration": 2, "velocity": 79}, {"time": 959, "pitch": 41, "duration": 19, "velocity": 85}, {"time": 959, "pitch": 53, "duration": 3, "velocity": 74}, {"time": 959, "pitch": 57, "duration": 5, "velocity": 73}, {"time": 962, "pitch": 48, "duration": 14, "velocity": 76}, {"time": 965, "pitch": 53, "duration": 2, "velocity": 77}, {"time": 968, "pitch": 53, "duration": 3, "velocity": 89}, {"time": 968, "pitch": 60, "duration": 3, "velocity": 86}, {"time": 974, "pitch": 53, "duration": 1, "velocity": 86}, {"time": 974, "pitch": 57, "duration": 5, "velocity": 87}, {"time": 977, "pitch": 48, "duration": 3, "velocity": 85}, {"time": 980, "pitch": 53, "duration": 4, "velocity": 92}, {"time": 983, "pitch": 43, "duration": 10, "velocity": 87}, {"time": 986, "pitch": 50, "duration": 7, "velocity": 79}, {"time": 989, "pitch": 55, "duration": 4, "velocity": 83}, {"time": 992, "pitch": 58, "duration": 4, "velocity": 87}, {"time": 995, "pitch": 48, "duration": 6, "velocity": 104}, {"time": 998, "pitch": 52, "duration": 4, "velocity": 78}, {"time": 1001, "pitch": 55, "duration": 2, "velocity": 89}, {"time": 1007, "pitch": 41, "duration": 21, "velocity": 84}, {"time": 1007, "pitch": 53, "duration": 7, "velocity": 79}, {"time": 1007, "pitch": 57, "duration": 10, "velocity": 81}, {"time": 1013, "pitch": 48, "duration": 8, "velocity": 71}, {"time": 1019, "pitch": 60, "duration": 8, "velocity": 86}, {"time": 1022, "pitch": 48, "duration": 6, "velocity": 79}, {"time": 1025, "pitch": 53, "duration": 7, "velocity": 80}, {"time": 1028, "pitch": 65, "duration": 4, "velocity": 83}, {"time": 1031, "pitch": 46, "duration": 17, "velocity": 85}, {"time": 1031, "pitch": 58, "duration": 4, "velocity": 75}, {"time": 1031, "pitch": 65, "duration": 1, "velocity": 83}, {"time": 1034, "pitch": 53, "duration": 12, "velocity": 74}, {"time": 1037, "pitch": 58, "duration": 3, "velocity": 76}, {"time": 1040, "pitch": 58, "duration": 8, "velocity": 73}, {"time": 1040, "pitch": 62, "duration": 8, "velocity": 83}, {"time": 1040, "pitch": 65, "duration": 10, "velocity": 84}, {"time": 1055, "pitch": 45, "duration": 18, "velocity": 84}, {"time": 1055, "pitch": 57, "duration": 4, "velocity": 81}, {"time": 1055, "pitch": 65, "duration": 7, "velocity": 83}, {"time": 1058, "pitch": 52, "duration": 15, "velocity": 75}, {"time": 1061, "pitch": 57, "duration": 2, "velocity": 83}, {"time": 1064, "pitch": 57, "duration": 10, "velocity": 86}, {"time": 1064, "pitch": 60, "duration": 9, "velocity": 90}, {"time": 1064, "pitch": 65, "duration": 17, "velocity": 84}, {"time": 1079, "pitch": 43, "duration": 17, "velocity": 84}, {"time": 1079, "pitch": 55, "duration": 4, "velocity": 79}, {"time": 1079, "pitch": 58, "duration": 7, "velocity": 76}, {"time": 1079, "pitch": 62, "duration": 7, "velocity": 83}, {"time": 1082, "pitch": 50, "duration": 14, "velocity": 76}, {"time": 1085, "pitch": 55, "duration": 12, "velocity": 77}, {"time": 1088, "pitch": 58, "duration": 8, "velocity": 79}, {"time": 1088, "pitch": 62, "duration": 8, "velocity": 84}, {"time": 1088, "pitch": 65, "duration": 9, "velocity": 82}, {"time": 1103, "pitch": 41, "duration": 16, "velocity": 84}, {"time": 1103, "pitch": 53, "duration": 8, "velocity": 77}, {"time": 1103, "pitch": 60, "duration": 8, "velocity": 79}, {"time": 1106, "pitch": 48, "duration": 13, "velocity": 75}, {"time": 1109, "pitch": 57, "duration": 2, "velocity": 79}, {"time": 1112, "pitch": 53, "duration": 4, "velocity": 80}, {"time": 1112, "pitch": 65, "duration": 10, "velocity": 87}, {"time": 1118, "pitch": 53, "duration": 3, "velocity": 85}, {"time": 1118, "pitch": 60, "duration": 3, "velocity": 83}, {"time": 1127, "pitch": 46, "duration": 22, "velocity": 84}, {"time": 1127, "pitch": 58, "duration": 4, "velocity": 76}, {"time": 1127, "pitch": 62, "duration": 7, "velocity": 81}, {"time": 1130, "pitch": 53, "duration": 23, "velocity": 72}, {"time": 1133, "pitch": 58, "duration": 2, "velocity": 81}, {"time": 1136, "pitch": 58, "duration": 9, "velocity": 86}, {"time": 1136, "pitch": 65, "duration": 12, "velocity": 84}, {"time": 1151, "pitch": 45, "duration": 17, "velocity": 84}, {"time": 1151, "pitch": 57, "duration": 4, "velocity": 79}, {"time": 1151, "pitch": 65, "duration": 7, "velocity": 84}, {"time": 1154, "pitch": 53, "duration": 14, "velocity": 75}, {"time": 1157, "pitch": 57, "duration": 2, "velocity": 83}, {"time": 1160, "pitch": 57, "duration": 8, "velocity": 85}, {"time": 1160, "pitch": 60, "duration": 7, "velocity": 89}, {"time": 1160, "pitch": 65, "duration": 14, "velocity": 84}, {"time": 1175, "pitch": 43, "duration": 20, "velocity": 84}, {"time": 1175, "pitch": 55, "duration": 4, "velocity": 76}, {"time": 1175, "pitch": 58, "duration": 7, "velocity": 81}, {"time": 1175, "pitch": 62, "duration": 8, "velocity": 83}, {"time": 1178, "pitch": 50, "duration": 9, "velocity": 73}, {"time": 1181, "pitch": 55, "duration": 2, "velocity": 74}, {"time": 1184, "pitch": 55, "duration": 7, "velocity": 84}, {"time": 1184, "pitch": 58, "duration": 9, "velocity": 85}, {"time": 1184, "pitch": 62, "duration": 10, "velocity": 87}, {"time": 1190, "pitch": 50, "duration": 4, "velocity": 81}, {"time": 1193, "pitch": 55, "duration": 2, "velocity": 88}, {"time": 1199, "pitch": 41, "duration": 3, "velocity": 83}, {"time": 1199, "pitch": 53, "duration": 3, "velocity": 86}, {"time": 1202, "pitch": 43, "duration": 4, "velocity": 70}, {"time": 1202, "pitch": 55, "duration": 4, "velocity": 84}, {"time": 1205, "pitch": 45, "duration": 2, "velocity": 87}, {"time": 1205, "pitch": 57, "duration": 2, "velocity": 84}, {"time": 1208, "pitch": 46, "duration": 37, "velocity": 78}, {"time": 1208, "pitch": 53, "duration": 36, "velocity": 79}, {"time": 1208, "pitch": 58, "duration": 36, "velocity": 83}, {"time": 1247, "pitch": 53, "duration": 19, "velocity": 85}, {"time": 1247, "pitch": 65, "duration": 13, "velocity": 79}, {"time": 1253, "pitch": 57, "duration": 13, "velocity": 64}, {"time": 1256, "pitch": 72, "duration": 13, "velocity": 85}, {"time": 1262, "pitch": 69, "duration": 13, "velocity": 83}, {"time": 1265, "pitch": 60, "duration": 3, "velocity": 65}, {"time": 1271, "pitch": 52, "duration": 17, "velocity": 83}, {"time": 1274, "pitch": 60, "duration": 14, "velocity": 77}, {"time": 1277, "pitch": 67, "duration": 7, "velocity": 75}, {"time": 1280, "pitch": 72, "duration": 16, "velocity": 81}, {"time": 1286, "pitch": 67, "duration": 3, "velocity": 77}, {"time": 1295, "pitch": 50, "duration": 16, "velocity": 84}, {"time": 1295, "pitch": 62, "duration": 10, "velocity": 75}, {"time": 1295, "pitch": 65, "duration": 11, "velocity": 77}, {"time": 1301, "pitch": 57, "duration": 6, "velocity": 61}, {"time": 1304, "pitch": 69, "duration": 7, "velocity": 81}, {"time": 1310, "pitch": 65, "duration": 4, "velocity": 79}, {"time": 1313, "pitch": 62, "duration": 1, "velocity": 78}, {"time": 1319, "pitch": 45, "duration": 16, "velocity": 83}, {"time": 1319, "pitch": 55, "duration": 7, "velocity": 72}, {"time": 1319, "pitch": 57, "duration": 7, "velocity": 71}, {"time": 1319, "pitch": 60, "duration": 9, "velocity": 77}, {"time": 1325, "pitch": 52, "duration": 10, "velocity": 61}, {"time": 1328, "pitch": 55, "duration": 7, "velocity": 84}, {"time": 1334, "pitch": 64, "duration": 6, "velocity": 86}, {"time": 1337, "pitch": 55, "duration": 5, "velocity": 75}, {"time": 1343, "pitch": 46, "duration": 20, "velocity": 83}, {"time": 1343, "pitch": 58, "duration": 8, "velocity": 69}, {"time": 1343, "pitch": 62, "duration": 10, "velocity": 78}, {"time": 1349, "pitch": 53, "duration": 8, "velocity": 31}, {"time": 1352, "pitch": 65, "duration": 10, "velocity": 83}, {"time": 1358, "pitch": 62, "duration": 4, "velocity": 85}, {"time": 1361, "pitch": 58, "duration": 4, "velocity": 79}, {"time": 1364, "pitch": 62, "duration": 10, "velocity": 75}, {"time": 1367, "pitch": 45, "duration": 11, "velocity": 85}, {"time": 1370, "pitch": 52, "duration": 7, "velocity": 73}, {"time": 1373, "pitch": 60, "duration": 3, "velocity": 78}, {"time": 1379, "pitch": 50, "duration": 8, "velocity": 83}, {"time": 1379, "pitch": 57, "duration": 8, "velocity": 78}, {"time": 1379, "pitch": 62, "duration": 8, "velocity": 79}, {"time": 1391, "pitch": 43, "duration": 21, "velocity": 84}, {"time": 1391, "pitch": 55, "duration": 13, "velocity": 78}, {"time": 1391, "pitch": 62, "duration": 12, "velocity": 82}, {"time": 1394, "pitch": 50, "duration": 18, "velocity": 76}, {"time": 1397, "pitch": 58, "duration": 6, "velocity": 77}, {"time": 1400, "pitch": 67, "duration": 8, "velocity": 82}, {"time": 1406, "pitch": 62, "duration": 9, "velocity": 79}, {"time": 1409, "pitch": 55, "duration": 4, "velocity": 78}, {"time": 1415, "pitch": 48, "duration": 19, "velocity": 85}, {"time": 1415, "pitch": 55, "duration": 4, "velocity": 79}, {"time": 1415, "pitch": 60, "duration": 6, "velocity": 77}, {"time": 1421, "pitch": 55, "duration": 12, "velocity": 72}, {"time": 1424, "pitch": 65, "duration": 3, "velocity": 84}, {"time": 1427, "pitch": 64, "duration": 3, "velocity": 97}, {"time": 1430, "pitch": 62, "duration": 2, "velocity": 83}, {"time": 1433, "pitch": 60, "duration": 3, "velocity": 83}, {"time": 1439, "pitch": 41, "duration": 17, "velocity": 83}, {"time": 1439, "pitch": 53, "duration": 16, "velocity": 79}, {"time": 1439, "pitch": 57, "duration": 16, "velocity": 76}, {"time": 1445, "pitch": 48, "duration": 12, "velocity": 68}, {"time": 1448, "pitch": 60, "duration": 7, "velocity": 80}, {"time": 1454, "pitch": 65, "duration": 9, "velocity": 85}, {"time": 1457, "pitch": 53, "duration": 3, "velocity": 79}, {"time": 1463, "pitch": 48, "duration": 18, "velocity": 84}, {"time": 1463, "pitch": 55, "duration": 16, "velocity": 79}, {"time": 1463, "pitch": 60, "duration": 10, "velocity": 77}, {"time": 1469, "pitch": 52, "duration": 12, "velocity": 57}, {"time": 1472, "pitch": 64, "duration": 7, "velocity": 85}, {"time": 1478, "pitch": 60, "duration": 4, "velocity": 84}, {"time": 1481, "pitch": 55, "duration": 2, "velocity": 80}, {"time": 1487, "pitch": 50, "duration": 16, "velocity": 84}, {"time": 1487, "pitch": 57, "duration": 8, "velocity": 75}, {"time": 1487, "pitch": 62, "duration": 10, "velocity": 81}, {"time": 1493, "pitch": 53, "duration": 10, "velocity": 50}, {"time": 1496, "pitch": 65, "duration": 7, "velocity": 86}, {"time": 1502, "pitch": 62, "duration": 4, "velocity": 84}, {"time": 1505, "pitch": 57, "duration": 2, "velocity": 73}, {"time": 1511, "pitch": 45, "duration": 18, "velocity": 84}, {"time": 1511, "pitch": 57, "duration": 4, "velocity": 76}, {"time": 1511, "pitch": 60, "duration": 6, "velocity": 79}, {"time": 1514, "pitch": 52, "duration": 16, "velocity": 76}, {"time": 1517, "pitch": 57, "duration": 2, "velocity": 78}, {"time": 1520, "pitch": 57, "duration": 8, "velocity": 78}, {"time": 1520, "pitch": 64, "duration": 10, "velocity": 85}, {"time": 1529, "pitch": 60, "duration": 2, "velocity": 84}, {"time": 1535, "pitch": 46, "duration": 19, "velocity": 87}, {"time": 1535, "pitch": 58, "duration": 8, "velocity": 72}, {"time": 1535, "pitch": 62, "duration": 8, "velocity": 78}, {"time": 1541, "pitch": 53, "duration": 8, "velocity": 69}, {"time": 1544, "pitch": 58, "duration": 4, "velocity": 84}, {"time": 1544, "pitch": 62, "duration": 4, "velocity": 85}, {"time": 1544, "pitch": 65, "duration": 7, "velocity": 83}, {"time": 1550, "pitch": 62, "duration": 7, "velocity": 83}, {"time": 1553, "pitch": 58, "duration": 2, "velocity": 79}, {"time": 1559, "pitch": 45, "duration": 11, "velocity": 83}, {"time": 1559, "pitch": 57, "duration": 9, "velocity": 80}, {"time": 1559, "pitch": 60, "duration": 11, "velocity": 83}, {"time": 1571, "pitch": 50, "duration": 7, "velocity": 83}, {"time": 1571, "pitch": 57, "duration": 7, "velocity": 83}, {"time": 1571, "pitch": 62, "duration": 7, "velocity": 82}, {"time": 1583, "pitch": 43, "duration": 21, "velocity": 84}, {"time": 1583, "pitch": 58, "duration": 8, "velocity": 76}, {"time": 1583, "pitch": 62, "duration": 10, "velocity": 83}, {"time": 1586, "pitch": 50, "duration": 17, "velocity": 66}, {"time": 1589, "pitch": 55, "duration": 5, "velocity": 79}, {"time": 1595, "pitch": 58, "duration": 7, "velocity": 78}, {"time": 1601, "pitch": 55, "duration": 3, "velocity": 69}, {"time": 1607, "pitch": 48, "duration": 22, "velocity": 85}, {"time": 1607, "pitch": 55, "duration": 7, "velocity": 78}, {"time": 1607, "pitch": 60, "duration": 8, "velocity": 80}, {"time": 1613, "pitch": 52, "duration": 16, "velocity": 72}, {"time": 1616, "pitch": 55, "duration": 1, "velocity": 61}, {"time": 1616, "pitch": 64, "duration": 7, "velocity": 86}, {"time": 1622, "pitch": 60, "duration": 7, "velocity": 84}, {"time": 1628, "pitch": 55, "duration": 2, "velocity": 78}, {"time": 1631, "pitch": 48, "duration": 20, "velocity": 85}, {"time": 1631, "pitch": 55, "duration": 23, "velocity": 85}, {"time": 1631, "pitch": 60, "duration": 23, "velocity": 84}, {"time": 1655, "pitch": 46, "duration": 20, "velocity": 87}, {"time": 1655, "pitch": 65, "duration": 7, "velocity": 84}, {"time": 1658, "pitch": 53, "duration": 11, "velocity": 77}, {"time": 1661, "pitch": 58, "duration": 13, "velocity": 84}, {"time": 1664, "pitch": 62, "duration": 13, "velocity": 87}, {"time": 1664, "pitch": 65, "duration": 18, "velocity": 84}, {"time": 1673, "pitch": 53, "duration": 3, "velocity": 84}, {"time": 1676, "pitch": 58, "duration": 3, "velocity": 84}, {"time": 1679, "pitch": 41, "duration": 18, "velocity": 84}, {"time": 1682, "pitch": 48, "duration": 14, "velocity": 72}, {"time": 1685, "pitch": 57, "duration": 7, "velocity": 84}, {"time": 1688, "pitch": 60, "duration": 5, "velocity": 83}, {"time": 1688, "pitch": 65, "duration": 14, "velocity": 85}, {"time": 1694, "pitch": 57, "duration": 4, "velocity": 77}, {"time": 1697, "pitch": 60, "duration": 2, "velocity": 84}, {"time": 1703, "pitch": 46, "duration": 17, "velocity": 85}, {"time": 1703, "pitch": 58, "duration": 4, "velocity": 79}, {"time": 1703, "pitch": 62, "duration": 7, "velocity": 82}, {"time": 1706, "pitch": 53, "duration": 14, "velocity": 74}, {"time": 1709, "pitch": 58, "duration": 2, "velocity": 85}, {"time": 1712, "pitch": 58, "duration": 4, "velocity": 88}, {"time": 1712, "pitch": 62, "duration": 4, "velocity": 84}, {"time": 1712, "pitch": 65, "duration": 8, "velocity": 84}, {"time": 1718, "pitch": 62, "duration": 4, "velocity": 83}, {"time": 1721, "pitch": 58, "duration": 2, "velocity": 83}, {"time": 1727, "pitch": 41, "duration": 18, "velocity": 84}, {"time": 1727, "pitch": 57, "duration": 4, "velocity": 76}, {"time": 1727, "pitch": 60, "duration": 6, "velocity": 83}, {"time": 1730, "pitch": 48, "duration": 15, "velocity": 81}, {"time": 1733, "pitch": 57, "duration": 7, "velocity": 83}, {"time": 1736, "pitch": 65, "duration": 7, "velocity": 83}, {"time": 1742, "pitch": 60, "duration": 3, "velocity": 88}, {"time": 1745, "pitch": 57, "duration": 3, "velocity": 77}, {"time": 1751, "pitch": 46, "duration": 19, "velocity": 88}, {"time": 1751, "pitch": 58, "duration": 4, "velocity": 79}, {"time": 1751, "pitch": 62, "duration": 8, "velocity": 83}, {"time": 1754, "pitch": 53, "duration": 15, "velocity": 69}, {"time": 1757, "pitch": 58, "duration": 2, "velocity": 83}, {"time": 1760, "pitch": 58, "duration": 4, "velocity": 76}, {"time": 1760, "pitch": 62, "duration": 4, "velocity": 83}, {"time": 1760, "pitch": 65, "duration": 7, "velocity": 78}, {"time": 1766, "pitch": 62, "duration": 4, "velocity": 84}, {"time": 1769, "pitch": 58, "duration": 1, "velocity": 85}, {"time": 1775, "pitch": 41, "duration": 18, "velocity": 84}, {"time": 1775, "pitch": 57, "duration": 3, "velocity": 78}, {"time": 1775, "pitch": 60, "duration": 7, "velocity": 79}, {"time": 1778, "pitch": 48, "duration": 16, "velocity": 75}, {"time": 1781, "pitch": 57, "duration": 5, "velocity": 75}, {"time": 1784, "pitch": 65, "duration": 7, "velocity": 88}, {"time": 1790, "pitch": 60, "duration": 3, "velocity": 90}, {"time": 1793, "pitch": 57, "duration": 1, "velocity": 79}, {"time": 1799, "pitch": 43, "duration": 19, "velocity": 85}, {"time": 1799, "pitch": 55, "duration": 14, "velocity": 84}, {"time": 1799, "pitch": 62, "duration": 7, "velocity": 84}, {"time": 1802, "pitch": 50, "duration": 16, "velocity": 81}, {"time": 1805, "pitch": 58, "duration": 3, "velocity": 83}, {"time": 1808, "pitch": 58, "duration": 2, "velocity": 56}, {"time": 1808, "pitch": 67, "duration": 7, "velocity": 87}, {"time": 1814, "pitch": 62, "duration": 8, "velocity": 84}, {"time": 1817, "pitch": 58, "duration": 3, "velocity": 84}, {"time": 1820, "pitch": 55, "duration": 3, "velocity": 73}, {"time": 1823, "pitch": 48, "duration": 20, "velocity": 88}, {"time": 1826, "pitch": 55, "duration": 8, "velocity": 75}, {"time": 1829, "pitch": 60, "duration": 2, "velocity": 89}, {"time": 1832, "pitch": 60, "duration": 3, "velocity": 89}, {"time": 1832, "pitch": 65, "duration": 4, "velocity": 104}, {"time": 1835, "pitch": 55, "duration": 4, "velocity": 81}, {"time": 1838, "pitch": 60, "duration": 2, "velocity": 88}, {"time": 1838, "pitch": 64, "duration": 4, "velocity": 92}, {"time": 1841, "pitch": 55, "duration": 3, "velocity": 84}, {"time": 1844, "pitch": 60, "duration": 4, "velocity": 97}, {"time": 1847, "pitch": 46, "duration": 17, "velocity": 92}, {"time": 1850, "pitch": 53, "duration": 14, "velocity": 74}, {"time": 1853, "pitch": 58, "duration": 2, "velocity": 85}, {"time": 1853, "pitch": 62, "duration": 1, "velocity": 58}, {"time": 1856, "pitch": 58, "duration": 4, "velocity": 82}, {"time": 1856, "pitch": 65, "duration": 5, "velocity": 84}, {"time": 1862, "pitch": 62, "duration": 4, "velocity": 84}, {"time": 1865, "pitch": 58, "duration": 2, "velocity": 83}, {"time": 1871, "pitch": 41, "duration": 16, "velocity": 84}, {"time": 1871, "pitch": 57, "duration": 4, "velocity": 78}, {"time": 1871, "pitch": 60, "duration": 7, "velocity": 79}, {"time": 1874, "pitch": 48, "duration": 13, "velocity": 75}, {"time": 1877, "pitch": 57, "duration": 2, "velocity": 79}, {"time": 1880, "pitch": 57, "duration": 4, "velocity": 79}, {"time": 1880, "pitch": 65, "duration": 5, "velocity": 81}, {"time": 1886, "pitch": 57, "duration": 3, "velocity": 86}, {"time": 1886, "pitch": 60, "duration": 4, "velocity": 90}, {"time": 1895, "pitch": 46, "duration": 18, "velocity": 92}, {"time": 1895, "pitch": 58, "duration": 4, "velocity": 79}, {"time": 1895, "pitch": 62, "duration": 7, "velocity": 81}, {"time": 1898, "pitch": 53, "duration": 15, "velocity": 79}, {"time": 1901, "pitch": 58, "duration": 2, "velocity": 77}, {"time": 1904, "pitch": 58, "duration": 4, "velocity": 89}, {"time": 1904, "pitch": 62, "duration": 4, "velocity": 87}, {"time": 1904, "pitch": 65, "duration": 7, "velocity": 85}, {"time": 1910, "pitch": 62, "duration": 4, "velocity": 85}, {"time": 1913, "pitch": 58, "duration": 2, "velocity": 85}, {"time": 1919, "pitch": 41, "duration": 19, "velocity": 84}, {"time": 1919, "pitch": 57, "duration": 3, "velocity": 76}, {"time": 1919, "pitch": 60, "duration": 7, "velocity": 85}, {"time": 1922, "pitch": 48, "duration": 17, "velocity": 78}, {"time": 1925, "pitch": 57, "duration": 2, "velocity": 71}, {"time": 1928, "pitch": 57, "duration": 10, "velocity": 81}, {"time": 1928, "pitch": 64, "duration": 3, "velocity": 83}, {"time": 1928, "pitch": 65, "duration": 11, "velocity": 78}, {"time": 1937, "pitch": 60, "duration": 4, "velocity": 85}, {"time": 1940, "pitch": 57, "duration": 3, "velocity": 80}, {"time": 1940, "pitch": 65, "duration": 4, "velocity": 46}, {"time": 1943, "pitch": 46, "duration": 16, "velocity": 90}, {"time": 1946, "pitch": 53, "duration": 13, "velocity": 74}, {"time": 1949, "pitch": 58, "duration": 2, "velocity": 86}, {"time": 1952, "pitch": 58, "duration": 6, "velocity": 84}, {"time": 1952, "pitch": 62, "duration": 7, "velocity": 87}, {"time": 1958, "pitch": 65, "duration": 4, "velocity": 85}, {"time": 1961, "pitch": 62, "duration": 2, "velocity": 79}, {"time": 1967, "pitch": 41, "duration": 19, "velocity": 85}, {"time": 1967, "pitch": 53, "duration": 3, "velocity": 74}, {"time": 1967, "pitch": 57, "duration": 5, "velocity": 73}, {"time": 1970, "pitch": 48, "duration": 14, "velocity": 76}, {"time": 1973, "pitch": 53, "duration": 2, "velocity": 77}, {"time": 1976, "pitch": 53, "duration": 3, "velocity": 89}, {"time": 1976, "pitch": 60, "duration": 3, "velocity": 86}, {"time": 1982, "pitch": 53, "duration": 1, "velocity": 86}, {"time": 1982, "pitch": 57, "duration": 5, "velocity": 87}, {"time": 1985, "pitch": 48, "duration": 3, "velocity": 85}, {"time": 1988, "pitch": 53, "duration": 4, "velocity": 92}, {"time": 1991, "pitch": 43, "duration": 10, "velocity": 87}, {"time": 1994, "pitch": 50, "duration": 7, "velocity": 79}, {"time": 1997, "pitch": 55, "duration": 4, "velocity": 83}, {"time": 2000, "pitch": 58, "duration": 4, "velocity": 87}, {"time": 2003, "pitch": 48, "duration": 6, "velocity": 104}, {"time": 2006, "pitch": 52, "duration": 4, "velocity": 78}, {"time": 2009, "pitch": 55, "duration": 2, "velocity": 89}, {"time": 2015, "pitch": 41, "duration": 21, "velocity": 84}, {"time": 2015, "pitch": 53, "duration": 7, "velocity": 79}, {"time": 2015, "pitch": 57, "duration": 10, "velocity": 81}, {"time": 2021, "pitch": 48, "duration": 8, "velocity": 71}, {"time": 2027, "pitch": 60, "duration": 8, "velocity": 86}, {"time": 2030, "pitch": 48, "duration": 6, "velocity": 79}, {"time": 2033, "pitch": 53, "duration": 7, "velocity": 80}, {"time": 2036, "pitch": 65, "duration": 4, "velocity": 83}, {"time": 2039, "pitch": 46, "duration": 8, "velocity": 94}, {"time": 2039, "pitch": 58, "duration": 4, "velocity": 84}, {"time": 2039, "pitch": 62, "duration": 7, "velocity": 86}, {"time": 2045, "pitch": 58, "duration": 4, "velocity": 87}, {"time": 2048, "pitch": 65, "duration": 3, "velocity": 84}, {"time": 2051, "pitch": 48, "duration": 13, "velocity": 94}, {"time": 2051, "pitch": 60, "duration": 4, "velocity": 77}, {"time": 2051, "pitch": 64, "duration": 4, "velocity": 87}, {"time": 2054, "pitch": 55, "duration": 10, "velocity": 83}, {"time": 2057, "pitch": 60, "duration": 7, "velocity": 100}, {"time": 2060, "pitch": 64, "duration": 3, "velocity": 104}, {"time": 2063, "pitch": 46, "duration": 20, "velocity": 87}, {"time": 2063, "pitch": 65, "duration": 7, "velocity": 84}, {"time": 2066, "pitch": 53, "duration": 11, "velocity": 77}, {"time": 2069, "pitch": 58, "duration": 13, "velocity": 84}, {"time": 2072, "pitch": 62, "duration": 13, "velocity": 87}, {"time": 2072, "pitch": 65, "duration": 18, "velocity": 84}, {"time": 2081, "pitch": 53, "duration": 3, "velocity": 84}, {"time": 2084, "pitch": 58, "duration": 3, "velocity": 84}, {"time": 2087, "pitch": 41, "duration": 18, "velocity": 84}, {"time": 2090, "pitch": 48, "duration": 14, "velocity": 72}, {"time": 2093, "pitch": 57, "duration": 7, "velocity": 84}, {"time": 2096, "pitch": 60, "duration": 5, "velocity": 83}, {"time": 2096, "pitch": 65, "duration": 14, "velocity": 85}, {"time": 2102, "pitch": 57, "duration": 4, "velocity": 77}, {"time": 2105, "pitch": 60, "duration": 2, "velocity": 84}, {"time": 2111, "pitch": 46, "duration": 17, "velocity": 85}, {"time": 2111, "pitch": 58, "duration": 4, "velocity": 79}, {"time": 2111, "pitch": 62, "duration": 7, "velocity": 82}, {"time": 2114, "pitch": 53, "duration": 14, "velocity": 74}, {"time": 2117, "pitch": 58, "duration": 2, "velocity": 85}, {"time": 2120, "pitch": 58, "duration": 4, "velocity": 88}, {"time": 2120, "pitch": 62, "duration": 4, "velocity": 84}, {"time": 2120, "pitch": 65, "duration": 8, "velocity": 84}, {"time": 2126, "pitch": 62, "duration": 4, "velocity": 83}, {"time": 2129, "pitch": 58, "duration": 2, "velocity": 83}, {"time": 2135, "pitch": 41, "duration": 18, "velocity": 84}, {"time": 2135, "pitch": 57, "duration": 4, "velocity": 76}, {"time": 2135, "pitch": 60, "duration": 6, "velocity": 83}, {"time": 2138, "pitch": 48, "duration": 15, "velocity": 81}, {"time": 2141, "pitch": 57, "duration": 7, "velocity": 83}, {"time": 2144, "pitch": 65, "duration": 7, "velocity": 83}, {"time": 2150, "pitch": 60, "duration": 3, "velocity": 88}, {"time": 2153, "pitch": 57, "duration": 3, "velocity": 77}, {"time": 2159, "pitch": 46, "duration": 19, "velocity": 88}, {"time": 2159, "pitch": 58, "duration": 4, "velocity": 79}, {"time": 2159, "pitch": 62, "duration": 8, "velocity": 83}, {"time": 2162, "pitch": 53, "duration": 15, "velocity": 69}, {"time": 2165, "pitch": 58, "duration": 2, "velocity": 83}, {"time": 2168, "pitch": 58, "duration": 4, "velocity": 76}, {"time": 2168, "pitch": 62, "duration": 4, "velocity": 83}, {"time": 2168, "pitch": 65, "duration": 7, "velocity": 78}, {"time": 2174, "pitch": 62, "duration": 4, "velocity": 84}, {"time": 2177, "pitch": 58, "duration": 1, "velocity": 85}, {"time": 2183, "pitch": 41, "duration": 18, "velocity": 84}, {"time": 2183, "pitch": 57, "duration": 3, "velocity": 78}, {"time": 2183, "pitch": 60, "duration": 7, "velocity": 79}, {"time": 2186, "pitch": 48, "duration": 16, "velocity": 75}, {"time": 2189, "pitch": 57, "duration": 5, "velocity": 75}, {"time": 2192, "pitch": 65, "duration": 7, "velocity": 88}, {"time": 2198, "pitch": 60, "duration": 3, "velocity": 90}, {"time": 2201, "pitch": 57, "duration": 1, "velocity": 79}, {"time": 2207, "pitch": 43, "duration": 19, "velocity": 85}, {"time": 2207, "pitch": 55, "duration": 14, "velocity": 84}, {"time": 2207, "pitch": 62, "duration": 7, "velocity": 84}, {"time": 2210, "pitch": 50, "duration": 16, "velocity": 81}, {"time": 2213, "pitch": 58, "duration": 3, "velocity": 83}, {"time": 2216, "pitch": 58, "duration": 2, "velocity": 56}, {"time": 2216, "pitch": 67, "duration": 7, "velocity": 87}, {"time": 2222, "pitch": 62, "duration": 8, "velocity": 84}, {"time": 2225, "pitch": 58, "duration": 3, "velocity": 84}, {"time": 2228, "pitch": 55, "duration": 3, "velocity": 73}, {"time": 2231, "pitch": 48, "duration": 20, "velocity": 88}, {"time": 2234, "pitch": 55, "duration": 8, "velocity": 75}, {"time": 2237, "pitch": 60, "duration": 2, "velocity": 89}, {"time": 2240, "pitch": 60, "duration": 3, "velocity": 89}, {"time": 2240, "pitch": 65, "duration": 4, "velocity": 104}, {"time": 2243, "pitch": 55, "duration": 4, "velocity": 81}, {"time": 2246, "pitch": 60, "duration": 2, "velocity": 88}, {"time": 2246, "pitch": 64, "duration": 4, "velocity": 92}, {"time": 2249, "pitch": 55, "duration": 3, "velocity": 84}, {"time": 2252, "pitch": 60, "duration": 4, "velocity": 97}, {"time": 2255, "pitch": 46, "duration": 17, "velocity": 92}, {"time": 2258, "pitch": 53, "duration": 14, "velocity": 74}, {"time": 2261, "pitch": 58, "duration": 2, "velocity": 85}, {"time": 2261, "pitch": 62, "duration": 1, "velocity": 58}, {"time": 2264, "pitch": 58, "duration": 4, "velocity": 82}, {"time": 2264, "pitch": 65, "duration": 5, "velocity": 84}, {"time": 2270, "pitch": 62, "duration": 4, "velocity": 84}, {"time": 2273, "pitch": 58, "duration": 2, "velocity": 83}, {"time": 2279, "pitch": 41, "duration": 16, "velocity": 84}, {"time": 2279, "pitch": 57, "duration": 4, "velocity": 78}, {"time": 2279, "pitch": 60, "duration": 7, "velocity": 79}, {"time": 2282, "pitch": 48, "duration": 13, "velocity": 75}, {"time": 2285, "pitch": 57, "duration": 2, "velocity": 79}, {"time": 2288, "pitch": 57, "duration": 4, "velocity": 79}, {"time": 2288, "pitch": 65, "duration": 5, "velocity": 81}, {"time": 2294, "pitch": 57, "duration": 3, "velocity": 86}, {"time": 2294, "pitch": 60, "duration": 4, "velocity": 90}, {"time": 2303, "pitch": 46, "duration": 18, "velocity": 92}, {"time": 2303, "pitch": 58, "duration": 4, "velocity": 79}, {"time": 2303, "pitch": 62, "duration": 7, "velocity": 81}, {"time": 2306, "pitch": 53, "duration": 15, "velocity": 79}, {"time": 2309, "pitch": 58, "duration": 2, "velocity": 77}, {"time": 2312, "pitch": 58, "duration": 4, "velocity": 89}, {"time": 2312, "pitch": 62, "duration": 4, "velocity": 87}, {"time": 2312, "pitch": 65, "duration": 7, "velocity": 85}, {"time": 2318, "pitch": 62, "duration": 4, "velocity": 85}, {"time": 2321, "pitch": 58, "duration": 2, "velocity": 85}, {"time": 2327, "pitch": 41, "duration": 19, "velocity": 84}, {"time": 2327, "pitch": 57, "duration": 3, "velocity": 76}, {"time": 2327, "pitch": 60, "duration": 7, "velocity": 85}, {"time": 2330, "pitch": 48, "duration": 17, "velocity": 78}, {"time": 2333, "pitch": 57, "duration": 2, "velocity": 71}, {"time": 2336, "pitch": 57, "duration": 10, "velocity": 81}, {"time": 2336, "pitch": 64, "duration": 3, "velocity": 83}, {"time": 2336, "pitch": 65, "duration": 11, "velocity": 78}, {"time": 2345, "pitch": 60, "duration": 4, "velocity": 85}, {"time": 2348, "pitch": 57, "duration": 3, "velocity": 80}, {"time": 2348, "pitch": 65, "duration": 4, "velocity": 46}, {"time": 2351, "pitch": 46, "duration": 16, "velocity": 90}, {"time": 2354, "pitch": 53, "duration": 13, "velocity": 74}, {"time": 2357, "pitch": 58, "duration": 2, "velocity": 86}, {"time": 2360, "pitch": 58, "duration": 6, "velocity": 84}, {"time": 2360, "pitch": 62, "duration": 7, "velocity": 87}, {"time": 2366, "pitch": 65, "duration": 4, "velocity": 85}, {"time": 2369, "pitch": 62, "duration": 2, "velocity": 79}, {"time": 2375, "pitch": 41, "duration": 19, "velocity": 85}, {"time": 2375, "pitch": 53, "duration": 3, "velocity": 74}, {"time": 2375, "pitch": 57, "duration": 5, "velocity": 73}, {"time": 2378, "pitch": 48, "duration": 14, "velocity": 76}, {"time": 2381, "pitch": 53, "duration": 2, "velocity": 77}, {"time": 2384, "pitch": 53, "duration": 3, "velocity": 89}, {"time": 2384, "pitch": 60, "duration": 3, "velocity": 86}, {"time": 2390, "pitch": 53, "duration": 1, "velocity": 86}, {"time": 2390, "pitch": 57, "duration": 5, "velocity": 87}, {"time": 2393, "pitch": 48, "duration": 3, "velocity": 85}, {"time": 2396, "pitch": 53, "duration": 4, "velocity": 92}, {"time": 2399, "pitch": 43, "duration": 10, "velocity": 87}, {"time": 2402, "pitch": 50, "duration": 7, "velocity": 79}, {"time": 2405, "pitch": 55, "duration": 4, "velocity": 83}, {"time": 2408, "pitch": 58, "duration": 4, "velocity": 87}, {"time": 2411, "pitch": 48, "duration": 6, "velocity": 104}, {"time": 2414, "pitch": 52, "duration": 4, "velocity": 78}, {"time": 2417, "pitch": 55, "duration": 2, "velocity": 89}, {"time": 2423, "pitch": 41, "duration": 21, "velocity": 84}, {"time": 2423, "pitch": 53, "duration": 7, "velocity": 79}, {"time": 2423, "pitch": 57, "duration": 10, "velocity": 81}, {"time": 2429, "pitch": 48, "duration": 8, "velocity": 71}, {"time": 2435, "pitch": 60, "duration": 8, "velocity": 86}, {"time": 2438, "pitch": 48, "duration": 6, "velocity": 79}, {"time": 2441, "pitch": 53, "duration": 7, "velocity": 80}, {"time": 2444, "pitch": 65, "duration": 4, "velocity": 83}, {"time": 2447, "pitch": 43, "duration": 12, "velocity": 84}, {"time": 2447, "pitch": 58, "duration": 7, "velocity": 74}, {"time": 2447, "pitch": 62, "duration": 10, "velocity": 79}, {"time": 2450, "pitch": 50, "duration": 7, "velocity": 75}, {"time": 2453, "pitch": 55, "duration": 4, "velocity": 85}, {"time": 2456, "pitch": 58, "duration": 2, "velocity": 84}, {"time": 2459, "pitch": 48, "duration": 11, "velocity": 84}, {"time": 2459, "pitch": 55, "duration": 9, "velocity": 79}, {"time": 2459, "pitch": 60, "duration": 8, "velocity": 80}, {"time": 2471, "pitch": 41, "duration": 38, "velocity": 84}, {"time": 2471, "pitch": 53, "duration": 11, "velocity": 75}, {"time": 2471, "pitch": 57, "duration": 8, "velocity": 77}, {"time": 2477, "pitch": 48, "duration": 9, "velocity": 73}, {"time": 2483, "pitch": 53, "duration": 7, "velocity": 69}, {"time": 2483, "pitch": 60, "duration": 5, "velocity": 84}, {"time": 2489, "pitch": 48, "duration": 20, "velocity": 73}, {"time": 2495, "pitch": 53, "duration": 35, "velocity": 72}, {"time": 2495, "pitch": 57, "duration": 36, "velocity": 69}, {"time": 2495, "pitch": 65, "duration": 36, "velocity": 70}, {"time": 2543, "pitch": 46, "duration": 17, "velocity": 85}, {"time": 2543, "pitch": 58, "duration": 4, "velocity": 75}, {"time": 2543, "pitch": 65, "duration": 7, "velocity": 83}, {"time": 2546, "pitch": 53, "duration": 12, "velocity": 74}, {"time": 2549, "pitch": 58, "duration": 3, "velocity": 76}, {"time": 2552, "pitch": 58, "duration": 8, "velocity": 73}, {"time": 2552, "pitch": 62, "duration": 8, "velocity": 83}, {"time": 2552, "pitch": 65, "duration": 10, "velocity": 84}, {"time": 2567, "pitch": 45, "duration": 18, "velocity": 84}, {"time": 2567, "pitch": 57, "duration": 4, "velocity": 81}, {"time": 2567, "pitch": 65, "duration": 7, "velocity": 83}, {"time": 2570, "pitch": 52, "duration": 15, "velocity": 75}, {"time": 2573, "pitch": 57, "duration": 2, "velocity": 83}, {"time": 2576, "pitch": 57, "duration": 10, "velocity": 86}, {"time": 2576, "pitch": 60, "duration": 9, "velocity": 90}, {"time": 2576, "pitch": 65, "duration": 17, "velocity": 84}, {"time": 2591, "pitch": 43, "duration": 17, "velocity": 84}, {"time": 2591, "pitch": 55, "duration": 4, "velocity": 79}, {"time": 2591, "pitch": 58, "duration": 7, "velocity": 76}, {"time": 2591, "pitch": 62, "duration": 7, "velocity": 83}, {"time": 2594, "pitch": 50, "duration": 14, "velocity": 76}, {"time": 2597, "pitch": 55, "duration": 12, "velocity": 77}, {"time": 2600, "pitch": 58, "duration": 8, "velocity": 79}, {"time": 2600, "pitch": 62, "duration": 8, "velocity": 84}, {"time": 2600, "pitch": 65, "duration": 9, "velocity": 82}, {"time": 2615, "pitch": 41, "duration": 16, "velocity": 84}, {"time": 2615, "pitch": 53, "duration": 8, "velocity": 77}, {"time": 2615, "pitch": 60, "duration": 8, "velocity": 79}, {"time": 2618, "pitch": 48, "duration": 13, "velocity": 75}, {"time": 2621, "pitch": 57, "duration": 2, "velocity": 79}, {"time": 2624, "pitch": 53, "duration": 4, "velocity": 80}, {"time": 2624, "pitch": 65, "duration": 10, "velocity": 87}, {"time": 2630, "pitch": 53, "duration": 3, "velocity": 85}, {"time": 2630, "pitch": 60, "duration": 3, "velocity": 83}, {"time": 2639, "pitch": 46, "duration": 22, "velocity": 84}, {"time": 2639, "pitch": 58, "duration": 4, "velocity": 76}, {"time": 2639, "pitch": 62, "duration": 7, "velocity": 81}, {"time": 2642, "pitch": 53, "duration": 23, "velocity": 72}, {"time": 2645, "pitch": 58, "duration": 2, "velocity": 81}, {"time": 2648, "pitch": 58, "duration": 9, "velocity": 86}, {"time": 2648, "pitch": 65, "duration": 12, "velocity": 84}, {"time": 2663, "pitch": 45, "duration": 17, "velocity": 84}, {"time": 2663, "pitch": 57, "duration": 4, "velocity": 79}, {"time": 2663, "pitch": 65, "duration": 7, "velocity": 84}, {"time": 2666, "pitch": 53, "duration": 14, "velocity": 75}, {"time": 2669, "pitch": 57, "duration": 2, "velocity": 83}, {"time": 2672, "pitch": 57, "duration": 8, "velocity": 85}, {"time": 2672, "pitch": 60, "duration": 7, "velocity": 89}, {"time": 2672, "pitch": 65, "duration": 14, "velocity": 84}, {"time": 2685, "pitch": 57, "duration": 7, "velocity": 70}, {"time": 2686, "pitch": 62, "duration": 5, "velocity": 77}, {"time": 2686, "pitch": 38, "duration": 5, "velocity": 86}, {"time": 2687, "pitch": 65, "duration": 9, "velocity": 79}, {"time": 2697, "pitch": 55, "duration": 12, "velocity": 73}, {"time": 2698, "pitch": 58, "duration": 12, "velocity": 78}, {"time": 2699, "pitch": 43, "duration": 7, "velocity": 84}, {"time": 2699, "pitch": 62, "duration": 12, "velocity": 80}, {"time": 2711, "pitch": 48, "duration": 30, "velocity": 87}, {"time": 2717, "pitch": 55, "duration": 23, "velocity": 83}, {"time": 2723, "pitch": 64, "duration": 8, "velocity": 85}, {"time": 2723, "pitch": 60, "duration": 7, "velocity": 83}, {"time": 2730, "pitch": 67, "duration": 4, "velocity": 83}, {"time": 2735, "pitch": 60, "duration": 3, "velocity": 69}, {"time": 2736, "pitch": 64, "duration": 5, "velocity": 80}, {"time": 2737, "pitch": 67, "duration": 4, "velocity": 64}, {"time": 2738, "pitch": 72, "duration": 4, "velocity": 70}, {"time": 2757, "pitch": 41, "duration": 40, "velocity": 84}, {"time": 2761, "pitch": 48, "duration": 36, "velocity": 72}, {"time": 2765, "pitch": 55, "duration": 3, "velocity": 68}, {"time": 2768, "pitch": 57, "duration": 17, "velocity": 68}, {"time": 2773, "pitch": 60, "duration": 13, "velocity": 58}], "annotations": [{"time": 28, "annotation": {"number": 64, "value": 127}, "group": "control_change"}, {"time": 28, "annotation": {"number": 64, "value": 0}, "group": "control_change"}, {"time": 47, "annotation": {"number": 64, "value": 0}, "group": "control_change"}, {"time": 49, "annotation": {"number": 64, "value": 127}, "group": "control_change"}, {"time": 70, "annotation": {"number": 64, "value": 0}, "group": "control_change"}, {"time": 72, "annotation": {"number": 64, "value": 127}, "group": "control_change"}, {"time": 94, "annotation": {"number": 64, "value": 0}, "group": "control_change"}, {"time": 96, "annotation": {"number": 64, "value": 127}, "group": "control_change"}, {"time": 118, "annotation": {"number": 64, "value": 0}, "group": "control_change"}, {"time": 125, "annotation": {"number": 64, "value": 127}, "group": "control_change"}, {"time": 142, "annotation": {"number": 64, "value": 0}, "group": "control_change"}, {"time": 145, "annotation": {"number": 64, "value": 127}, "group": "control_change"}, {"time": 166, "annotation": {"number": 64, "value": 0}, "group": "control_change"}, {"time": 168, "annotation": {"number": 64, "value": 127}, "group": "control_change"}, {"time": 235, "annotation": {"number": 64, "value": 0}, "group": "control_change"}, {"time": 240, "annotation": {"number": 64, "value": 127}, "group": "control_change"}, {"time": 240, "annotation": {"number": 64, "value": 0}, "group": "control_change"}, {"time": 263, "annotation": {"number": 64, "value": 0}, "group": "control_change"}, {"time": 264, "annotation": {"number": 64, "value": 127}, "group": "control_change"}, {"time": 286, "annotation": {"number": 64, "value": 0}, "group": "control_change"}, {"time": 292, "annotation": {"number": 64, "value": 127}, "group": "control_change"}, {"time": 312, "annotation": {"number": 64, "value": 0}, "group": "control_change"}, {"time": 315, "annotation": {"number": 64, "value": 127}, "group": "control_change"}, {"time": 334, "annotation": {"number": 64, "value": 0}, "group": "control_change"}, {"time": 339, "annotation": {"number": 64, "value": 127}, "group": "control_change"}, {"time": 358, "annotation": {"number": 64, "value": 0}, "group": "control_change"}, {"time": 360, "annotation": {"number": 64, "value": 127}, "group": "control_change"}, {"time": 370, "annotation": {"number": 64, "value": 0}, "group": "control_change"}, {"time": 375, "annotation": {"number": 64, "value": 127}, "group": "control_change"}, {"time": 382, "annotation": {"number": 64, "value": 0}, "group": "control_change"}, {"time": 387, "annotation": {"number": 64, "value": 127}, "group": "control_change"}, {"time": 406, "annotation": {"number": 64, "value": 0}, "group": "control_change"}, {"time": 408, "annotation": {"number": 64, "value": 127}, "group": "control_change"}, {"time": 430, "annotation": {"number": 64, "value": 0}, "group": "control_change"}, {"time": 437, "annotation": {"number": 64, "value": 127}, "group": "control_change"}, {"time": 456, "annotation": {"number": 64, "value": 0}, "group": "control_change"}, {"time": 460, "annotation": {"number": 64, "value": 127}, "group": "control_change"}, {"time": 478, "annotation": {"number": 64, "value": 0}, "group": "control_change"}, {"time": 484, "annotation": {"number": 64, "value": 127}, "group": "control_change"}, {"time": 503, "annotation": {"number": 64, "value": 0}, "group": "control_change"}, {"time": 507, "annotation": {"number": 64, "value": 127}, "group": "control_change"}, {"time": 527, "annotation": {"number": 64, "value": 0}, "group": "control_change"}, {"time": 532, "annotation": {"number": 64, "value": 127}, "group": "control_change"}, {"time": 551, "annotation": {"number": 64, "value": 0}, "group": "control_change"}, {"time": 553, "annotation": {"number": 64, "value": 127}, "group": "control_change"}, {"time": 562, "annotation": {"number": 64, "value": 0}, "group": "control_change"}, {"time": 564, "annotation": {"number": 64, "value": 127}, "group": "control_change"}, {"time": 574, "annotation": {"number": 64, "value": 0}, "group": "control_change"}, {"time": 579, "annotation": {"number": 64, "value": 127}, "group": "control_change"}, {"time": 598, "annotation": {"number": 64, "value": 0}, "group": "control_change"}, {"time": 600, "annotation": {"number": 64, "value": 127}, "group": "control_change"}, {"time": 622, "annotation": {"number": 64, "value": 0}, "group": "control_change"}, {"time": 623, "annotation": {"number": 64, "value": 127}, "group": "control_change"}, {"time": 644, "annotation": {"number": 64, "value": 0}, "group": "control_change"}, {"time": 647, "annotation": {"number": 64, "value": 127}, "group": "control_change"}, {"time": 647, "annotation": {"number": 64, "value": 0}, "group": "control_change"}, {"time": 669, "annotation": {"number": 64, "value": 0}, "group": "control_change"}, {"time": 671, "annotation": {"number": 64, "value": 127}, "group": "control_change"}, {"time": 695, "annotation": {"number": 64, "value": 0}, "group": "control_change"}, {"time": 698, "annotation": {"number": 64, "value": 127}, "group": "control_change"}, {"time": 720, "annotation": {"number": 64, "value": 0}, "group": "control_change"}, {"time": 723, "annotation": {"number": 64, "value": 127}, "group": "control_change"}, {"time": 743, "annotation": {"number": 64, "value": 0}, "group": "control_change"}, {"time": 746, "annotation": {"number": 64, "value": 127}, "group": "control_change"}, {"time": 767, "annotation": {"number": 64, "value": 0}, "group": "control_change"}, {"time": 770, "annotation": {"number": 64, "value": 127}, "group": "control_change"}, {"time": 790, "annotation": {"number": 64, "value": 0}, "group": "control_change"}, {"time": 794, "annotation": {"number": 64, "value": 127}, "group": "control_change"}, {"time": 814, "annotation": {"number": 64, "value": 0}, "group": "control_change"}, {"time": 816, "annotation": {"number": 64, "value": 127}, "group": "control_change"}, {"time": 837, "annotation": {"number": 64, "value": 0}, "group": "control_change"}, {"time": 841, "annotation": {"number": 64, "value": 127}, "group": "control_change"}, {"time": 864, "annotation": {"number": 64, "value": 0}, "group": "control_change"}, {"time": 866, "annotation": {"number": 64, "value": 127}, "group": "control_change"}, {"time": 887, "annotation": {"number": 64, "value": 0}, "group": "control_change"}, {"time": 891, "annotation": {"number": 64, "value": 127}, "group": "control_change"}, {"time": 911, "annotation": {"number": 64, "value": 0}, "group": "control_change"}, {"time": 914, "annotation": {"number": 64, "value": 127}, "group": "control_change"}, {"time": 934, "annotation": {"number": 64, "value": 0}, "group": "control_change"}, {"time": 937, "annotation": {"number": 64, "value": 127}, "group": "control_change"}, {"time": 959, "annotation": {"number": 64, "value": 0}, "group": "control_change"}, {"time": 962, "annotation": {"number": 64, "value": 127}, "group": "control_change"}, {"time": 981, "annotation": {"number": 64, "value": 0}, "group": "control_change"}, {"time": 985, "annotation": {"number": 64, "value": 127}, "group": "control_change"}, {"time": 985, "annotation": {"number": 64, "value": 0}, "group": "control_change"}, {"time": 994, "annotation": {"number": 64, "value": 0}, "group": "control_change"}, {"time": 997, "annotation": {"number": 64, "value": 127}, "group": "control_change"}, {"time": 1007, "annotation": {"number": 64, "value": 0}, "group": "control_change"}, {"time": 1012, "annotation": {"number": 64, "value": 127}, "group": "control_change"}, {"time": 1029, "annotation": {"number": 64, "value": 0}, "group": "control_change"}, {"time": 1031, "annotation": {"number": 64, "value": 127}, "group": "control_change"}, {"time": 1032, "annotation": {"number": 64, "value": 0}, "group": "control_change"}, {"time": 1032, "annotation": {"number": 64, "value": 127}, "group": "control_change"}, {"time": 1054, "annotation": {"number": 64, "value": 0}, "group": "control_change"}, {"time": 1056, "annotation": {"number": 64, "value": 127}, "group": "control_change"}, {"time": 1077, "annotation": {"number": 64, "value": 0}, "group": "control_change"}, {"time": 1080, "annotation": {"number": 64, "value": 127}, "group": "control_change"}, {"time": 1102, "annotation": {"number": 64, "value": 0}, "group": "control_change"}, {"time": 1104, "annotation": {"number": 64, "value": 127}, "group": "control_change"}, {"time": 1127, "annotation": {"number": 64, "value": 0}, "group": "control_change"}, {"time": 1129, "annotation": {"number": 64, "value": 127}, "group": "control_change"}, {"time": 1151, "annotation": {"number": 64, "value": 0}, "group": "control_change"}, {"time": 1152, "annotation": {"number": 64, "value": 127}, "group": "control_change"}, {"time": 1173, "annotation": {"number": 64, "value": 0}, "group": "control_change"}, {"time": 1177, "annotation": {"number": 64, "value": 127}, "group": "control_change"}, {"time": 1197, "annotation": {"number": 64, "value": 0}, "group": "control_change"}, {"time": 1248, "annotation": {"number": 64, "value": 127}, "group": "control_change"}, {"time": 1248, "annotation": {"number": 64, "value": 0}, "group": "control_change"}, {"time": 1271, "annotation": {"number": 64, "value": 0}, "group": "control_change"}, {"time": 1272, "annotation": {"number": 64, "value": 127}, "group": "control_change"}, {"time": 1294, "annotation": {"number": 64, "value": 0}, "group": "control_change"}, {"time": 1300, "annotation": {"number": 64, "value": 127}, "group": "control_change"}, {"time": 1320, "annotation": {"number": 64, "value": 0}, "group": "control_change"}, {"time": 1323, "annotation": {"number": 64, "value": 127}, "group": "control_change"}, {"time": 1342, "annotation": {"number": 64, "value": 0}, "group": "control_change"}, {"time": 1347, "annotation": {"number": 64, "value": 127}, "group": "control_change"}, {"time": 1366, "annotation": {"number": 64, "value": 0}, "group": "control_change"}, {"time": 1368, "annotation": {"number": 64, "value": 127}, "group": "control_change"}, {"time": 1378, "annotation": {"number": 64, "value": 0}, "group": "control_change"}, {"time": 1383, "annotation": {"number": 64, "value": 127}, "group": "control_change"}, {"time": 1390, "annotation": {"number": 64, "value": 0}, "group": "control_change"}, {"time": 1395, "annotation": {"number": 64, "value": 127}, "group": "control_change"}, {"time": 1414, "annotation": {"number": 64, "value": 0}, "group": "control_change"}, {"time": 1416, "annotation": {"number": 64, "value": 127}, "group": "control_change"}, {"time": 1438, "annotation": {"number": 64, "value": 0}, "group": "control_change"}, {"time": 1445, "annotation": {"number": 64, "value": 127}, "group": "control_change"}, {"time": 1464, "annotation": {"number": 64, "value": 0}, "group": "control_change"}, {"time": 1468, "annotation": {"number": 64, "value": 127}, "group": "control_change"}, {"time": 1486, "annotation": {"number": 64, "value": 0}, "group": "control_change"}, {"time": 1492, "annotation": {"number": 64, "value": 127}, "group": "control_change"}, {"time": 1511, "annotation": {"number": 64, "value": 0}, "group": "control_change"}, {"time": 1515, "annotation": {"number": 64, "value": 127}, "group": "control_change"}, {"time": 1535, "annotation": {"number": 64, "value": 0}, "group": "control_change"}, {"time": 1540, "annotation": {"number": 64, "value": 127}, "group": "control_change"}, {"time": 1559, "annotation": {"number": 64, "value": 0}, "group": "control_change"}, {"time": 1561, "annotation": {"number": 64, "value": 127}, "group": "control_change"}, {"time": 1570, "annotation": {"number": 64, "value": 0}, "group": "control_change"}, {"time": 1572, "annotation": {"number": 64, "value": 127}, "group": "control_change"}, {"time": 1582, "annotation": {"number": 64, "value": 0}, "group": "control_change"}, {"time": 1587, "annotation": {"number": 64, "value": 127}, "group": "control_change"}, {"time": 1606, "annotation": {"number": 64, "value": 0}, "group": "control_change"}, {"time": 1608, "annotation": {"number": 64, "value": 127}, "group": "control_change"}, {"time": 1630, "annotation": {"number": 64, "value": 0}, "group": "control_change"}, {"time": 1631, "annotation": {"number": 64, "value": 127}, "group": "control_change"}, {"time": 1652, "annotation": {"number": 64, "value": 0}, "group": "control_change"}, {"time": 1655, "annotation": {"number": 64, "value": 127}, "group": "control_change"}, {"time": 1655, "annotation": {"number": 64, "value": 0}, "group": "control_change"}, {"time": 1677, "annotation": {"number": 64, "value": 0}, "group": "control_change"}, {"time": 1679, "annotation": {"number": 64, "value": 127}, "group": "control_change"}, {"time": 1703, "annotation": {"number": 64, "value": 0}, "group": "control_change"}, {"time": 1706, "annotation": {"number": 64, "value": 127}, "group": "control_change"}, {"time": 1728, "annotation": {"number": 64, "value": 0}, "group": "control_change"}, {"time": 1731, "annotation": {"number": 64, "value": 127}, "group": "control_change"}, {"time": 1751, "annotation": {"number": 64, "value": 0}, "group": "control_change"}, {"time": 1754, "annotation": {"number": 64, "value": 127}, "group": "control_change"}, {"time": 1775, "annotation": {"number": 64, "value": 0}, "group": "control_change"}, {"time": 1778, "annotation": {"number": 64, "value": 127}, "group": "control_change"}, {"time": 1798, "annotation": {"number": 64, "value": 0}, "group": "control_change"}, {"time": 1802, "annotation": {"number": 64, "value": 127}, "group": "control_change"}, {"time": 1822, "annotation": {"number": 64, "value": 0}, "group": "control_change"}, {"time": 1824, "annotation": {"number": 64, "value": 127}, "group": "control_change"}, {"time": 1845, "annotation": {"number": 64, "value": 0}, "group": "control_change"}, {"time": 1849, "annotation": {"number": 64, "value": 127}, "group": "control_change"}, {"time": 1872, "annotation": {"number": 64, "value": 0}, "group": "control_change"}, {"time": 1874, "annotation": {"number": 64, "value": 127}, "group": "control_change"}, {"time": 1895, "annotation": {"number": 64, "value": 0}, "group": "control_change"}, {"time": 1899, "annotation": {"number": 64, "value": 127}, "group": "control_change"}, {"time": 1919, "annotation": {"number": 64, "value": 0}, "group": "control_change"}, {"time": 1922, "annotation": {"number": 64, "value": 127}, "group": "control_change"}, {"time": 1942, "annotation": {"number": 64, "value": 0}, "group": "control_change"}, {"time": 1945, "annotation": {"number": 64, "value": 127}, "group": "control_change"}, {"time": 1967, "annotation": {"number": 64, "value": 0}, "group": "control_change"}, {"time": 1970, "annotation": {"number": 64, "value": 127}, "group": "control_change"}, {"time": 1989, "annotation": {"number": 64, "value": 0}, "group": "control_change"}, {"time": 1993, "annotation": {"number": 64, "value": 127}, "group": "control_change"}, {"time": 1993, "annotation": {"number": 64, "value": 0}, "group": "control_change"}, {"time": 2002, "annotation": {"number": 64, "value": 0}, "group": "control_change"}, {"time": 2005, "annotation": {"number": 64, "value": 127}, "group": "control_change"}, {"time": 2015, "annotation": {"number": 64, "value": 0}, "group": "control_change"}, {"time": 2020, "annotation": {"number": 64, "value": 127}, "group": "control_change"}, {"time": 2037, "annotation": {"number": 64, "value": 0}, "group": "control_change"}, {"time": 2050, "annotation": {"number": 64, "value": 0}, "group": "control_change"}, {"time": 2052, "annotation": {"number": 64, "value": 127}, "group": "control_change"}, {"time": 2061, "annotation": {"number": 64, "value": 0}, "group": "control_change"}, {"time": 2063, "annotation": {"number": 64, "value": 127}, "group": "control_change"}, {"time": 2063, "annotation": {"number": 64, "value": 0}, "group": "control_change"}, {"time": 2085, "annotation": {"number": 64, "value": 0}, "group": "control_change"}, {"time": 2087, "annotation": {"number": 64, "value": 127}, "group": "control_change"}, {"time": 2111, "annotation": {"number": 64, "value": 0}, "group": "control_change"}, {"time": 2114, "annotation": {"number": 64, "value": 127}, "group": "control_change"}, {"time": 2136, "annotation": {"number": 64, "value": 0}, "group": "control_change"}, {"time": 2139, "annotation": {"number": 64, "value": 127}, "group": "control_change"}, {"time": 2159, "annotation": {"number": 64, "value": 0}, "group": "control_change"}, {"time": 2162, "annotation": {"number": 64, "value": 127}, "group": "control_change"}, {"time": 2183, "annotation": {"number": 64, "value": 0}, "group": "control_change"}, {"time": 2186, "annotation": {"number": 64, "value": 127}, "group": "control_change"}, {"time": 2206, "annotation": {"number": 64, "value": 0}, "group": "control_change"}, {"time": 2210, "annotation": {"number": 64, "value": 127}, "group": "control_change"}, {"time": 2230, "annotation": {"number": 64, "value": 0}, "group": "control_change"}, {"time": 2232, "annotation": {"number": 64, "value": 127}, "group": "control_change"}, {"time": 2253, "annotation": {"number": 64, "value": 0}, "group": "control_change"}, {"time": 2257, "annotation": {"number": 64, "value": 127}, "group": "control_change"}, {"time": 2280, "annotation": {"number": 64, "value": 0}, "group": "control_change"}, {"time": 2282, "annotation": {"number": 64, "value": 127}, "group": "control_change"}, {"time": 2303, "annotation": {"number": 64, "value": 0}, "group": "control_change"}, {"time": 2307, "annotation": {"number": 64, "value": 127}, "group": "control_change"}, {"time": 2327, "annotation": {"number": 64, "value": 0}, "group": "control_change"}, {"time": 2330, "annotation": {"number": 64, "value": 127}, "group": "control_change"}, {"time": 2350, "annotation": {"number": 64, "value": 0}, "group": "control_change"}, {"time": 2353, "annotation": {"number": 64, "value": 127}, "group": "control_change"}, {"time": 2375, "annotation": {"number": 64, "value": 0}, "group": "control_change"}, {"time": 2378, "annotation": {"number": 64, "value": 127}, "group": "control_change"}, {"time": 2397, "annotation": {"number": 64, "value": 0}, "group": "control_change"}, {"time": 2401, "annotation": {"number": 64, "value": 127}, "group": "control_change"}, {"time": 2401, "annotation": {"number": 64, "value": 0}, "group": "control_change"}, {"time": 2410, "annotation": {"number": 64, "value": 0}, "group": "control_change"}, {"time": 2413, "annotation": {"number": 64, "value": 127}, "group": "control_change"}, {"time": 2423, "annotation": {"number": 64, "value": 0}, "group": "control_change"}, {"time": 2428, "annotation": {"number": 64, "value": 127}, "group": "control_change"}, {"time": 2445, "annotation": {"number": 64, "value": 0}, "group": "control_change"}, {"time": 2445, "annotation": {"number": 64, "value": 127}, "group": "control_change"}, {"time": 2458, "annotation": {"number": 64, "value": 0}, "group": "control_change"}, {"time": 2463, "annotation": {"number": 64, "value": 127}, "group": "control_change"}, {"time": 2469, "annotation": {"number": 64, "value": 0}, "group": "control_change"}, {"time": 2476, "annotation": {"number": 64, "value": 127}, "group": "control_change"}, {"time": 2543, "annotation": {"number": 64, "value": 127}, "group": "control_change"}, {"time": 2544, "annotation": {"number": 64, "value": 0}, "group": "control_change"}, {"time": 2544, "annotation": {"number": 64, "value": 127}, "group": "control_change"}, {"time": 2566, "annotation": {"number": 64, "value": 0}, "group": "control_change"}, {"time": 2568, "annotation": {"number": 64, "value": 127}, "group": "control_change"}, {"time": 2589, "annotation": {"number": 64, "value": 0}, "group": "control_change"}, {"time": 2592, "annotation": {"number": 64, "value": 127}, "group": "control_change"}, {"time": 2614, "annotation": {"number": 64, "value": 0}, "group": "control_change"}, {"time": 2616, "annotation": {"number": 64, "value": 127}, "group": "control_change"}, {"time": 2639, "annotation": {"number": 64, "value": 0}, "group": "control_change"}, {"time": 2641, "annotation": {"number": 64, "value": 127}, "group": "control_change"}, {"time": 2663, "annotation": {"number": 64, "value": 0}, "group": "control_change"}, {"time": 2664, "annotation": {"number": 64, "value": 127}, "group": "control_change"}, {"time": 2685, "annotation": {"number": 64, "value": 0}, "group": "control_change"}, {"time": 2686, "annotation": {"number": 64, "value": 127}, "group": "control_change"}, {"time": 2696, "annotation": {"number": 64, "value": 0}, "group": "control_change"}, {"time": 2700, "annotation": {"number": 64, "value": 127}, "group": "control_change"}, {"time": 2710, "annotation": {"number": 64, "value": 0}, "group": "control_change"}, {"time": 2717, "annotation": {"number": 64, "value": 127}, "group": "control_change"}, {"time": 2758, "annotation": {"number": 64, "value": 0}, "group": "control_change"}, {"time": 2763, "annotation": {"number": 64, "value": 127}, "group": "control_change"}, {"time": 2816, "annotation": {"number": 64, "value": 0}, "group": "control_change"}]}]}