{"metadata": {"schema_version": "0.2", "title": "None", "source_filename": "499.mid", "source_format": "midi"}, "resolution": 12, "tempos": [{"time": 0, "qpm": 56.50010122934803}, {"time": 1080, "qpm": 56.20003465668804}, {"time": 1091, "qpm": 56.000029866682596}, {"time": 1128, "qpm": 56.50010122934803}, {"time": 1216, "qpm": 56.70000311850017}, {"time": 1320, "qpm": 56.50010122934803}], "time_signatures": [{"time": 0, "numerator": 1, "denominator": 4}], "tracks": [{"program": 4, "is_drum": false, "name": "MELODY", "notes": [{"time": 220, "pitch": 69, "duration": 2, "velocity": 90}, {"time": 223, "pitch": 71, "duration": 2, "velocity": 88}, {"time": 226, "pitch": 73, "duration": 5, "velocity": 87}, {"time": 232, "pitch": 69, "duration": 4, "velocity": 91}, {"time": 238, "pitch": 71, "duration": 5, "velocity": 92}, {"time": 244, "pitch": 69, "duration": 2, "velocity": 90}, {"time": 247, "pitch": 66, "duration": 5, "velocity": 89}, {"time": 253, "pitch": 71, "duration": 8, "velocity": 88}, {"time": 268, "pitch": 69, "duration": 5, "velocity": 88}, {"time": 274, "pitch": 69, "duration": 4, "velocity": 90}, {"time": 280, "pitch": 66, "duration": 4, "velocity": 90}, {"time": 286, "pitch": 64, "duration": 5, "velocity": 93}, {"time": 292, "pitch": 73, "duration": 2, "velocity": 85}, {"time": 295, "pitch": 73, "duration": 13, "velocity": 88}, {"time": 316, "pitch": 69, "duration": 2, "velocity": 86}, {"time": 319, "pitch": 71, "duration": 2, "velocity": 86}, {"time": 322, "pitch": 73, "duration": 4, "velocity": 88}, {"time": 328, "pitch": 69, "duration": 4, "velocity": 91}, {"time": 334, "pitch": 71, "duration": 5, "velocity": 90}, {"time": 340, "pitch": 73, "duration": 2, "velocity": 89}, {"time": 343, "pitch": 66, "duration": 8, "velocity": 90}, {"time": 352, "pitch": 66, "duration": 2, "velocity": 87}, {"time": 355, "pitch": 68, "duration": 2, "velocity": 90}, {"time": 358, "pitch": 69, "duration": 4, "velocity": 87}, {"time": 364, "pitch": 69, "duration": 2, "velocity": 88}, {"time": 367, "pitch": 69, "duration": 7, "velocity": 90}, {"time": 376, "pitch": 71, "duration": 6, "velocity": 88}, {"time": 382, "pitch": 71, "duration": 14, "velocity": 93}, {"time": 412, "pitch": 69, "duration": 2, "velocity": 90}, {"time": 415, "pitch": 71, "duration": 2, "velocity": 88}, {"time": 418, "pitch": 73, "duration": 5, "velocity": 87}, {"time": 424, "pitch": 69, "duration": 4, "velocity": 91}, {"time": 430, "pitch": 71, "duration": 5, "velocity": 92}, {"time": 436, "pitch": 69, "duration": 2, "velocity": 90}, {"time": 439, "pitch": 66, "duration": 5, "velocity": 89}, {"time": 445, "pitch": 71, "duration": 8, "velocity": 88}, {"time": 460, "pitch": 69, "duration": 5, "velocity": 88}, {"time": 466, "pitch": 69, "duration": 4, "velocity": 90}, {"time": 472, "pitch": 66, "duration": 4, "velocity": 90}, {"time": 478, "pitch": 64, "duration": 5, "velocity": 93}, {"time": 484, "pitch": 73, "duration": 2, "velocity": 85}, {"time": 487, "pitch": 73, "duration": 13, "velocity": 88}, {"time": 508, "pitch": 69, "duration": 2, "velocity": 86}, {"time": 511, "pitch": 71, "duration": 2, "velocity": 86}, {"time": 514, "pitch": 73, "duration": 4, "velocity": 88}, {"time": 520, "pitch": 69, "duration": 4, "velocity": 91}, {"time": 526, "pitch": 71, "duration": 5, "velocity": 90}, {"time": 532, "pitch": 69, "duration": 2, "velocity": 89}, {"time": 535, "pitch": 71, "duration": 8, "velocity": 90}, {"time": 544, "pitch": 66, "duration": 6, "velocity": 87}, {"time": 556, "pitch": 64, "duration": 3, "velocity": 90}, {"time": 562, "pitch": 64, "duration": 5, "velocity": 95}, {"time": 568, "pitch": 71, "duration": 3, "velocity": 88}, {"time": 571, "pitch": 71, "duration": 12, "velocity": 89}, {"time": 586, "pitch": 69, "duration": 2, "velocity": 93}, {"time": 589, "pitch": 71, "duration": 1, "velocity": 88}, {"time": 592, "pitch": 73, "duration": 2, "velocity": 93}, {"time": 595, "pitch": 69, "duration": 2, "velocity": 89}, {"time": 598, "pitch": 73, "duration": 24, "velocity": 92}, {"time": 622, "pitch": 71, "duration": 11, "velocity": 91}, {"time": 634, "pitch": 69, "duration": 2, "velocity": 88}, {"time": 637, "pitch": 71, "duration": 2, "velocity": 92}, {"time": 640, "pitch": 73, "duration": 2, "velocity": 93}, {"time": 643, "pitch": 69, "duration": 2, "velocity": 92}, {"time": 646, "pitch": 73, "duration": 5, "velocity": 92}, {"time": 652, "pitch": 73, "duration": 2, "velocity": 95}, {"time": 655, "pitch": 73, "duration": 4, "velocity": 90}, {"time": 661, "pitch": 80, "duration": 5, "velocity": 90}, {"time": 667, "pitch": 80, "duration": 6, "velocity": 93}, {"time": 682, "pitch": 78, "duration": 2, "velocity": 97}, {"time": 685, "pitch": 80, "duration": 1, "velocity": 93}, {"time": 688, "pitch": 81, "duration": 2, "velocity": 89}, {"time": 691, "pitch": 80, "duration": 2, "velocity": 93}, {"time": 694, "pitch": 81, "duration": 7, "velocity": 92}, {"time": 703, "pitch": 81, "duration": 8, "velocity": 95}, {"time": 712, "pitch": 74, "duration": 2, "velocity": 93}, {"time": 715, "pitch": 74, "duration": 11, "velocity": 102}, {"time": 730, "pitch": 76, "duration": 2, "velocity": 93}, {"time": 733, "pitch": 73, "duration": 2, "velocity": 86}, {"time": 736, "pitch": 69, "duration": 2, "velocity": 88}, {"time": 739, "pitch": 71, "duration": 2, "velocity": 87}, {"time": 742, "pitch": 73, "duration": 7, "velocity": 88}, {"time": 751, "pitch": 73, "duration": 8, "velocity": 91}, {"time": 760, "pitch": 71, "duration": 2, "velocity": 93}, {"time": 763, "pitch": 71, "duration": 8, "velocity": 93}, {"time": 772, "pitch": 76, "duration": 5, "velocity": 100}, {"time": 778, "pitch": 76, "duration": 4, "velocity": 91}, {"time": 784, "pitch": 78, "duration": 4, "velocity": 97}, {"time": 790, "pitch": 76, "duration": 4, "velocity": 93}, {"time": 796, "pitch": 69, "duration": 2, "velocity": 92}, {"time": 799, "pitch": 73, "duration": 8, "velocity": 93}, {"time": 808, "pitch": 74, "duration": 2, "velocity": 97}, {"time": 811, "pitch": 71, "duration": 7, "velocity": 95}, {"time": 820, "pitch": 76, "duration": 5, "velocity": 90}, {"time": 826, "pitch": 76, "duration": 4, "velocity": 95}, {"time": 832, "pitch": 78, "duration": 5, "velocity": 90}, {"time": 838, "pitch": 76, "duration": 4, "velocity": 90}, {"time": 844, "pitch": 64, "duration": 2, "velocity": 92}, {"time": 847, "pitch": 66, "duration": 8, "velocity": 87}, {"time": 856, "pitch": 68, "duration": 2, "velocity": 91}, {"time": 859, "pitch": 69, "duration": 7, "velocity": 87}, {"time": 868, "pitch": 76, "duration": 5, "velocity": 90}, {"time": 874, "pitch": 76, "duration": 4, "velocity": 93}, {"time": 880, "pitch": 78, "duration": 5, "velocity": 95}, {"time": 886, "pitch": 76, "duration": 5, "velocity": 90}, {"time": 892, "pitch": 69, "duration": 2, "velocity": 91}, {"time": 895, "pitch": 69, "duration": 9, "velocity": 91}, {"time": 910, "pitch": 76, "duration": 4, "velocity": 93}, {"time": 916, "pitch": 69, "duration": 2, "velocity": 88}, {"time": 919, "pitch": 69, "duration": 5, "velocity": 92}, {"time": 925, "pitch": 71, "duration": 5, "velocity": 90}, {"time": 931, "pitch": 73, "duration": 27, "velocity": 91}, {"time": 964, "pitch": 76, "duration": 5, "velocity": 100}, {"time": 970, "pitch": 76, "duration": 4, "velocity": 91}, {"time": 976, "pitch": 78, "duration": 4, "velocity": 97}, {"time": 982, "pitch": 76, "duration": 4, "velocity": 93}, {"time": 988, "pitch": 69, "duration": 2, "velocity": 92}, {"time": 991, "pitch": 73, "duration": 8, "velocity": 93}, {"time": 1000, "pitch": 74, "duration": 2, "velocity": 97}, {"time": 1003, "pitch": 71, "duration": 7, "velocity": 95}, {"time": 1012, "pitch": 76, "duration": 5, "velocity": 90}, {"time": 1018, "pitch": 76, "duration": 4, "velocity": 95}, {"time": 1024, "pitch": 78, "duration": 5, "velocity": 90}, {"time": 1030, "pitch": 80, "duration": 4, "velocity": 90}, {"time": 1036, "pitch": 81, "duration": 2, "velocity": 92}, {"time": 1039, "pitch": 83, "duration": 8, "velocity": 87}, {"time": 1048, "pitch": 80, "duration": 2, "velocity": 91}, {"time": 1051, "pitch": 81, "duration": 7, "velocity": 87}, {"time": 1072, "pitch": 78, "duration": 5, "velocity": 95}, {"time": 1078, "pitch": 76, "duration": 5, "velocity": 90}, {"time": 1084, "pitch": 69, "duration": 2, "velocity": 91}, {"time": 1087, "pitch": 69, "duration": 9, "velocity": 91}, {"time": 1096, "pitch": 69, "duration": 2, "velocity": 87}, {"time": 1099, "pitch": 71, "duration": 2, "velocity": 85}, {"time": 1102, "pitch": 74, "duration": 4, "velocity": 90}, {"time": 1108, "pitch": 73, "duration": 2, "velocity": 87}, {"time": 1111, "pitch": 69, "duration": 8, "velocity": 91}, {"time": 1120, "pitch": 71, "duration": 6, "velocity": 90}, {"time": 1126, "pitch": 69, "duration": 21, "velocity": 89}, {"time": 1324, "pitch": 69, "duration": 2, "velocity": 90}, {"time": 1327, "pitch": 71, "duration": 2, "velocity": 88}, {"time": 1330, "pitch": 73, "duration": 5, "velocity": 87}, {"time": 1336, "pitch": 69, "duration": 4, "velocity": 91}, {"time": 1342, "pitch": 71, "duration": 5, "velocity": 92}, {"time": 1348, "pitch": 69, "duration": 2, "velocity": 90}, {"time": 1351, "pitch": 66, "duration": 5, "velocity": 89}, {"time": 1357, "pitch": 71, "duration": 8, "velocity": 88}, {"time": 1372, "pitch": 69, "duration": 5, "velocity": 88}, {"time": 1378, "pitch": 69, "duration": 4, "velocity": 90}, {"time": 1384, "pitch": 66, "duration": 4, "velocity": 90}, {"time": 1390, "pitch": 64, "duration": 5, "velocity": 93}, {"time": 1396, "pitch": 73, "duration": 2, "velocity": 85}, {"time": 1399, "pitch": 73, "duration": 13, "velocity": 88}, {"time": 1420, "pitch": 69, "duration": 2, "velocity": 86}, {"time": 1423, "pitch": 71, "duration": 2, "velocity": 86}, {"time": 1426, "pitch": 73, "duration": 4, "velocity": 88}, {"time": 1432, "pitch": 69, "duration": 4, "velocity": 91}, {"time": 1438, "pitch": 71, "duration": 5, "velocity": 90}, {"time": 1444, "pitch": 73, "duration": 2, "velocity": 89}, {"time": 1447, "pitch": 66, "duration": 8, "velocity": 90}, {"time": 1456, "pitch": 66, "duration": 2, "velocity": 87}, {"time": 1459, "pitch": 68, "duration": 2, "velocity": 90}, {"time": 1462, "pitch": 69, "duration": 4, "velocity": 87}, {"time": 1468, "pitch": 69, "duration": 2, "velocity": 88}, {"time": 1471, "pitch": 69, "duration": 7, "velocity": 90}, {"time": 1480, "pitch": 71, "duration": 6, "velocity": 88}, {"time": 1486, "pitch": 71, "duration": 14, "velocity": 93}, {"time": 1516, "pitch": 69, "duration": 2, "velocity": 90}, {"time": 1519, "pitch": 71, "duration": 2, "velocity": 88}, {"time": 1522, "pitch": 73, "duration": 5, "velocity": 87}, {"time": 1528, "pitch": 69, "duration": 4, "velocity": 91}, {"time": 1534, "pitch": 71, "duration": 5, "velocity": 92}, {"time": 1540, "pitch": 69, "duration": 2, "velocity": 90}, {"time": 1543, "pitch": 66, "duration": 5, "velocity": 89}, {"time": 1549, "pitch": 71, "duration": 8, "velocity": 88}, {"time": 1564, "pitch": 69, "duration": 5, "velocity": 88}, {"time": 1570, "pitch": 69, "duration": 4, "velocity": 90}, {"time": 1576, "pitch": 66, "duration": 4, "velocity": 90}, {"time": 1582, "pitch": 64, "duration": 5, "velocity": 93}, {"time": 1588, "pitch": 73, "duration": 2, "velocity": 85}, {"time": 1591, "pitch": 73, "duration": 13, "velocity": 88}, {"time": 1612, "pitch": 69, "duration": 2, "velocity": 86}, {"time": 1615, "pitch": 71, "duration": 2, "velocity": 86}, {"time": 1618, "pitch": 73, "duration": 4, "velocity": 88}, {"time": 1624, "pitch": 69, "duration": 4, "velocity": 91}, {"time": 1630, "pitch": 71, "duration": 5, "velocity": 90}, {"time": 1636, "pitch": 69, "duration": 2, "velocity": 89}, {"time": 1639, "pitch": 71, "duration": 8, "velocity": 90}, {"time": 1648, "pitch": 66, "duration": 6, "velocity": 87}, {"time": 1660, "pitch": 64, "duration": 3, "velocity": 90}, {"time": 1666, "pitch": 64, "duration": 5, "velocity": 95}, {"time": 1672, "pitch": 71, "duration": 3, "velocity": 88}, {"time": 1675, "pitch": 71, "duration": 12, "velocity": 89}, {"time": 1690, "pitch": 69, "duration": 2, "velocity": 93}, {"time": 1693, "pitch": 71, "duration": 1, "velocity": 88}, {"time": 1696, "pitch": 73, "duration": 2, "velocity": 93}, {"time": 1699, "pitch": 69, "duration": 2, "velocity": 89}, {"time": 1702, "pitch": 73, "duration": 24, "velocity": 92}, {"time": 1726, "pitch": 71, "duration": 11, "velocity": 91}, {"time": 1738, "pitch": 69, "duration": 2, "velocity": 88}, {"time": 1741, "pitch": 71, "duration": 2, "velocity": 92}, {"time": 1744, "pitch": 73, "duration": 2, "velocity": 93}, {"time": 1747, "pitch": 69, "duration": 2, "velocity": 92}, {"time": 1750, "pitch": 73, "duration": 5, "velocity": 92}, {"time": 1756, "pitch": 73, "duration": 2, "velocity": 95}, {"time": 1759, "pitch": 73, "duration": 4, "velocity": 90}, {"time": 1765, "pitch": 80, "duration": 5, "velocity": 90}, {"time": 1771, "pitch": 80, "duration": 6, "velocity": 93}, {"time": 1786, "pitch": 78, "duration": 2, "velocity": 97}, {"time": 1789, "pitch": 80, "duration": 1, "velocity": 93}, {"time": 1792, "pitch": 81, "duration": 2, "velocity": 89}, {"time": 1795, "pitch": 80, "duration": 2, "velocity": 93}, {"time": 1798, "pitch": 81, "duration": 7, "velocity": 92}, {"time": 1807, "pitch": 81, "duration": 8, "velocity": 95}, {"time": 1816, "pitch": 74, "duration": 2, "velocity": 93}, {"time": 1819, "pitch": 74, "duration": 11, "velocity": 102}, {"time": 1834, "pitch": 76, "duration": 2, "velocity": 93}, {"time": 1837, "pitch": 73, "duration": 2, "velocity": 86}, {"time": 1840, "pitch": 69, "duration": 2, "velocity": 88}, {"time": 1843, "pitch": 71, "duration": 2, "velocity": 87}, {"time": 1846, "pitch": 73, "duration": 7, "velocity": 88}, {"time": 1855, "pitch": 73, "duration": 8, "velocity": 91}, {"time": 1864, "pitch": 71, "duration": 2, "velocity": 93}, {"time": 1867, "pitch": 71, "duration": 8, "velocity": 93}, {"time": 1876, "pitch": 76, "duration": 5, "velocity": 100}, {"time": 1882, "pitch": 76, "duration": 4, "velocity": 91}, {"time": 1888, "pitch": 78, "duration": 4, "velocity": 97}, {"time": 1894, "pitch": 76, "duration": 4, "velocity": 93}, {"time": 1900, "pitch": 69, "duration": 2, "velocity": 92}, {"time": 1903, "pitch": 73, "duration": 8, "velocity": 93}, {"time": 1912, "pitch": 74, "duration": 2, "velocity": 97}, {"time": 1915, "pitch": 71, "duration": 7, "velocity": 95}, {"time": 1924, "pitch": 76, "duration": 5, "velocity": 90}, {"time": 1930, "pitch": 76, "duration": 4, "velocity": 95}, {"time": 1936, "pitch": 78, "duration": 5, "velocity": 90}, {"time": 1942, "pitch": 76, "duration": 4, "velocity": 90}, {"time": 1948, "pitch": 64, "duration": 2, "velocity": 92}, {"time": 1951, "pitch": 66, "duration": 8, "velocity": 87}, {"time": 1960, "pitch": 68, "duration": 2, "velocity": 91}, {"time": 1963, "pitch": 69, "duration": 7, "velocity": 87}, {"time": 1972, "pitch": 76, "duration": 5, "velocity": 90}, {"time": 1978, "pitch": 76, "duration": 4, "velocity": 93}, {"time": 1984, "pitch": 78, "duration": 5, "velocity": 95}, {"time": 1990, "pitch": 76, "duration": 5, "velocity": 90}, {"time": 1996, "pitch": 69, "duration": 2, "velocity": 91}, {"time": 1999, "pitch": 69, "duration": 9, "velocity": 91}, {"time": 2014, "pitch": 76, "duration": 4, "velocity": 93}, {"time": 2020, "pitch": 69, "duration": 2, "velocity": 88}, {"time": 2023, "pitch": 69, "duration": 5, "velocity": 92}, {"time": 2029, "pitch": 71, "duration": 5, "velocity": 90}, {"time": 2035, "pitch": 73, "duration": 27, "velocity": 91}, {"time": 2068, "pitch": 76, "duration": 5, "velocity": 100}, {"time": 2074, "pitch": 76, "duration": 4, "velocity": 91}, {"time": 2080, "pitch": 78, "duration": 4, "velocity": 97}, {"time": 2086, "pitch": 76, "duration": 4, "velocity": 93}, {"time": 2092, "pitch": 69, "duration": 2, "velocity": 92}, {"time": 2095, "pitch": 73, "duration": 8, "velocity": 93}, {"time": 2104, "pitch": 74, "duration": 2, "velocity": 97}, {"time": 2107, "pitch": 71, "duration": 7, "velocity": 95}, {"time": 2116, "pitch": 76, "duration": 5, "velocity": 90}, {"time": 2122, "pitch": 76, "duration": 4, "velocity": 95}, {"time": 2128, "pitch": 78, "duration": 5, "velocity": 90}, {"time": 2134, "pitch": 80, "duration": 4, "velocity": 90}, {"time": 2140, "pitch": 81, "duration": 2, "velocity": 92}, {"time": 2143, "pitch": 83, "duration": 8, "velocity": 87}, {"time": 2152, "pitch": 80, "duration": 2, "velocity": 91}, {"time": 2155, "pitch": 81, "duration": 7, "velocity": 87}, {"time": 2176, "pitch": 78, "duration": 5, "velocity": 95}, {"time": 2182, "pitch": 76, "duration": 5, "velocity": 90}, {"time": 2188, "pitch": 69, "duration": 2, "velocity": 91}, {"time": 2191, "pitch": 69, "duration": 9, "velocity": 91}, {"time": 2200, "pitch": 69, "duration": 2, "velocity": 87}, {"time": 2203, "pitch": 71, "duration": 2, "velocity": 85}, {"time": 2206, "pitch": 74, "duration": 4, "velocity": 90}, {"time": 2212, "pitch": 73, "duration": 2, "velocity": 87}, {"time": 2215, "pitch": 69, "duration": 8, "velocity": 91}, {"time": 2224, "pitch": 71, "duration": 6, "velocity": 90}, {"time": 2230, "pitch": 69, "duration": 21, "velocity": 89}, {"time": 2433, "pitch": 73, "duration": 4, "velocity": 92}, {"time": 2438, "pitch": 73, "duration": 3, "velocity": 97}, {"time": 2442, "pitch": 76, "duration": 3, "velocity": 95}, {"time": 2446, "pitch": 76, "duration": 3, "velocity": 93}, {"time": 2450, "pitch": 76, "duration": 3, "velocity": 93}, {"time": 2454, "pitch": 81, "duration": 2, "velocity": 90}, {"time": 2458, "pitch": 81, "duration": 3, "velocity": 97}, {"time": 2462, "pitch": 81, "duration": 3, "velocity": 88}, {"time": 2466, "pitch": 83, "duration": 3, "velocity": 92}, {"time": 2470, "pitch": 85, "duration": 5, "velocity": 97}, {"time": 2476, "pitch": 85, "duration": 2, "velocity": 95}, {"time": 2479, "pitch": 85, "duration": 8, "velocity": 95}, {"time": 2488, "pitch": 83, "duration": 1, "velocity": 90}, {"time": 2491, "pitch": 83, "duration": 11, "velocity": 97}, {"time": 2506, "pitch": 80, "duration": 4, "velocity": 97}, {"time": 2512, "pitch": 81, "duration": 5, "velocity": 92}, {"time": 2518, "pitch": 83, "duration": 4, "velocity": 93}, {"time": 2524, "pitch": 80, "duration": 2, "velocity": 89}, {"time": 2527, "pitch": 76, "duration": 8, "velocity": 93}, {"time": 2536, "pitch": 83, "duration": 2, "velocity": 88}, {"time": 2539, "pitch": 83, "duration": 8, "velocity": 91}, {"time": 2548, "pitch": 81, "duration": 9, "velocity": 87}, {"time": 2560, "pitch": 78, "duration": 5, "velocity": 91}, {"time": 2566, "pitch": 76, "duration": 4, "velocity": 93}, {"time": 2572, "pitch": 69, "duration": 2, "velocity": 90}, {"time": 2575, "pitch": 69, "duration": 7, "velocity": 90}, {"time": 2584, "pitch": 69, "duration": 2, "velocity": 92}, {"time": 2587, "pitch": 71, "duration": 2, "velocity": 87}, {"time": 2590, "pitch": 74, "duration": 4, "velocity": 95}, {"time": 2596, "pitch": 73, "duration": 5, "velocity": 88}, {"time": 2602, "pitch": 69, "duration": 5, "velocity": 92}, {"time": 2608, "pitch": 71, "duration": 5, "velocity": 92}, {"time": 2614, "pitch": 69, "duration": 24, "velocity": 97}]}, {"program": 0, "is_drum": false, "name": "PIANO", "notes": [{"time": 22, "pitch": 50, "duration": 23, "velocity": 87}, {"time": 25, "pitch": 57, "duration": 21, "velocity": 80}, {"time": 28, "pitch": 61, "duration": 16, "velocity": 81}, {"time": 31, "pitch": 66, "duration": 15, "velocity": 86}, {"time": 46, "pitch": 50, "duration": 24, "velocity": 90}, {"time": 49, "pitch": 56, "duration": 20, "velocity": 74}, {"time": 52, "pitch": 59, "duration": 18, "velocity": 81}, {"time": 55, "pitch": 64, "duration": 15, "velocity": 86}, {"time": 70, "pitch": 49, "duration": 23, "velocity": 87}, {"time": 73, "pitch": 56, "duration": 20, "velocity": 77}, {"time": 76, "pitch": 59, "duration": 17, "velocity": 86}, {"time": 79, "pitch": 64, "duration": 15, "velocity": 92}, {"time": 94, "pitch": 42, "duration": 24, "velocity": 88}, {"time": 94, "pitch": 64, "duration": 25, "velocity": 88}, {"time": 97, "pitch": 49, "duration": 21, "velocity": 62}, {"time": 100, "pitch": 54, "duration": 4, "velocity": 74}, {"time": 103, "pitch": 56, "duration": 7, "velocity": 86}, {"time": 109, "pitch": 57, "duration": 9, "velocity": 84}, {"time": 116, "pitch": 57, "duration": 2, "velocity": 74}, {"time": 117, "pitch": 62, "duration": 7, "velocity": 83}, {"time": 117, "pitch": 47, "duration": 24, "velocity": 87}, {"time": 118, "pitch": 66, "duration": 10, "velocity": 80}, {"time": 120, "pitch": 54, "duration": 21, "velocity": 77}, {"time": 123, "pitch": 57, "duration": 18, "velocity": 84}, {"time": 126, "pitch": 61, "duration": 14, "velocity": 89}, {"time": 132, "pitch": 62, "duration": 9, "velocity": 75}, {"time": 141, "pitch": 60, "duration": 24, "velocity": 74}, {"time": 141, "pitch": 50, "duration": 25, "velocity": 88}, {"time": 142, "pitch": 65, "duration": 24, "velocity": 82}, {"time": 142, "pitch": 69, "duration": 24, "velocity": 82}, {"time": 165, "pitch": 45, "duration": 15, "velocity": 88}, {"time": 168, "pitch": 52, "duration": 12, "velocity": 79}, {"time": 171, "pitch": 59, "duration": 4, "velocity": 76}, {"time": 174, "pitch": 61, "duration": 6, "velocity": 80}, {"time": 180, "pitch": 64, "duration": 3, "velocity": 86}, {"time": 180, "pitch": 57, "duration": 3, "velocity": 76}, {"time": 188, "pitch": 57, "duration": 24, "velocity": 67}, {"time": 189, "pitch": 61, "duration": 23, "velocity": 72}, {"time": 189, "pitch": 64, "duration": 24, "velocity": 68}, {"time": 189, "pitch": 45, "duration": 23, "velocity": 75}, {"time": 190, "pitch": 69, "duration": 23, "velocity": 74}, {"time": 214, "pitch": 45, "duration": 20, "velocity": 87}, {"time": 214, "pitch": 57, "duration": 7, "velocity": 77}, {"time": 214, "pitch": 64, "duration": 6, "velocity": 86}, {"time": 220, "pitch": 52, "duration": 17, "velocity": 67}, {"time": 226, "pitch": 61, "duration": 7, "velocity": 88}, {"time": 226, "pitch": 64, "duration": 13, "velocity": 88}, {"time": 232, "pitch": 57, "duration": 2, "velocity": 84}, {"time": 238, "pitch": 47, "duration": 16, "velocity": 74}, {"time": 238, "pitch": 59, "duration": 9, "velocity": 75}, {"time": 238, "pitch": 63, "duration": 9, "velocity": 79}, {"time": 250, "pitch": 59, "duration": 2, "velocity": 87}, {"time": 250, "pitch": 63, "duration": 4, "velocity": 95}, {"time": 262, "pitch": 50, "duration": 14, "velocity": 82}, {"time": 262, "pitch": 57, "duration": 3, "velocity": 82}, {"time": 262, "pitch": 65, "duration": 7, "velocity": 86}, {"time": 268, "pitch": 57, "duration": 7, "velocity": 79}, {"time": 274, "pitch": 62, "duration": 3, "velocity": 87}, {"time": 274, "pitch": 65, "duration": 4, "velocity": 82}, {"time": 286, "pitch": 45, "duration": 6, "velocity": 85}, {"time": 286, "pitch": 61, "duration": 2, "velocity": 83}, {"time": 286, "pitch": 64, "duration": 9, "velocity": 87}, {"time": 298, "pitch": 44, "duration": 3, "velocity": 80}, {"time": 298, "pitch": 56, "duration": 4, "velocity": 72}, {"time": 298, "pitch": 59, "duration": 3, "velocity": 86}, {"time": 298, "pitch": 64, "duration": 6, "velocity": 88}, {"time": 310, "pitch": 42, "duration": 13, "velocity": 79}, {"time": 310, "pitch": 57, "duration": 11, "velocity": 76}, {"time": 310, "pitch": 61, "duration": 7, "velocity": 80}, {"time": 316, "pitch": 49, "duration": 7, "velocity": 70}, {"time": 322, "pitch": 57, "duration": 1, "velocity": 65}, {"time": 322, "pitch": 61, "duration": 7, "velocity": 95}, {"time": 322, "pitch": 66, "duration": 9, "velocity": 91}, {"time": 328, "pitch": 57, "duration": 2, "velocity": 87}, {"time": 334, "pitch": 47, "duration": 16, "velocity": 82}, {"time": 334, "pitch": 59, "duration": 10, "velocity": 80}, {"time": 334, "pitch": 62, "duration": 10, "velocity": 78}, {"time": 346, "pitch": 59, "duration": 4, "velocity": 89}, {"time": 346, "pitch": 62, "duration": 8, "velocity": 90}, {"time": 358, "pitch": 40, "duration": 21, "velocity": 88}, {"time": 358, "pitch": 62, "duration": 11, "velocity": 78}, {"time": 364, "pitch": 47, "duration": 13, "velocity": 73}, {"time": 370, "pitch": 59, "duration": 6, "velocity": 91}, {"time": 376, "pitch": 62, "duration": 5, "velocity": 93}, {"time": 382, "pitch": 40, "duration": 18, "velocity": 89}, {"time": 382, "pitch": 59, "duration": 4, "velocity": 85}, {"time": 382, "pitch": 64, "duration": 5, "velocity": 85}, {"time": 388, "pitch": 47, "duration": 12, "velocity": 64}, {"time": 391, "pitch": 64, "duration": 2, "velocity": 85}, {"time": 394, "pitch": 68, "duration": 3, "velocity": 88}, {"time": 397, "pitch": 69, "duration": 3, "velocity": 81}, {"time": 400, "pitch": 71, "duration": 4, "velocity": 87}, {"time": 406, "pitch": 45, "duration": 20, "velocity": 88}, {"time": 406, "pitch": 57, "duration": 9, "velocity": 76}, {"time": 406, "pitch": 64, "duration": 6, "velocity": 87}, {"time": 412, "pitch": 52, "duration": 15, "velocity": 74}, {"time": 418, "pitch": 57, "duration": 2, "velocity": 86}, {"time": 418, "pitch": 61, "duration": 6, "velocity": 87}, {"time": 418, "pitch": 64, "duration": 10, "velocity": 88}, {"time": 424, "pitch": 57, "duration": 2, "velocity": 80}, {"time": 430, "pitch": 47, "duration": 16, "velocity": 86}, {"time": 430, "pitch": 59, "duration": 8, "velocity": 81}, {"time": 430, "pitch": 63, "duration": 7, "velocity": 81}, {"time": 436, "pitch": 54, "duration": 8, "velocity": 66}, {"time": 442, "pitch": 63, "duration": 4, "velocity": 91}, {"time": 442, "pitch": 66, "duration": 4, "velocity": 88}, {"time": 454, "pitch": 50, "duration": 21, "velocity": 84}, {"time": 454, "pitch": 62, "duration": 7, "velocity": 86}, {"time": 454, "pitch": 65, "duration": 7, "velocity": 84}, {"time": 460, "pitch": 57, "duration": 8, "velocity": 84}, {"time": 466, "pitch": 62, "duration": 4, "velocity": 88}, {"time": 466, "pitch": 65, "duration": 7, "velocity": 88}, {"time": 472, "pitch": 59, "duration": 4, "velocity": 85}, {"time": 475, "pitch": 61, "duration": 4, "velocity": 72}, {"time": 478, "pitch": 45, "duration": 8, "velocity": 87}, {"time": 478, "pitch": 57, "duration": 6, "velocity": 75}, {"time": 484, "pitch": 52, "duration": 8, "velocity": 78}, {"time": 490, "pitch": 44, "duration": 7, "velocity": 85}, {"time": 490, "pitch": 56, "duration": 5, "velocity": 80}, {"time": 490, "pitch": 59, "duration": 6, "velocity": 86}, {"time": 496, "pitch": 56, "duration": 2, "velocity": 82}, {"time": 502, "pitch": 42, "duration": 13, "velocity": 86}, {"time": 502, "pitch": 57, "duration": 13, "velocity": 79}, {"time": 502, "pitch": 61, "duration": 8, "velocity": 80}, {"time": 508, "pitch": 49, "duration": 7, "velocity": 69}, {"time": 514, "pitch": 61, "duration": 9, "velocity": 97}, {"time": 514, "pitch": 66, "duration": 11, "velocity": 92}, {"time": 520, "pitch": 57, "duration": 3, "velocity": 91}, {"time": 526, "pitch": 47, "duration": 19, "velocity": 89}, {"time": 526, "pitch": 59, "duration": 7, "velocity": 85}, {"time": 526, "pitch": 63, "duration": 7, "velocity": 75}, {"time": 526, "pitch": 66, "duration": 6, "velocity": 75}, {"time": 532, "pitch": 54, "duration": 10, "velocity": 69}, {"time": 538, "pitch": 59, "duration": 3, "velocity": 86}, {"time": 538, "pitch": 63, "duration": 7, "velocity": 88}, {"time": 538, "pitch": 66, "duration": 10, "velocity": 87}, {"time": 544, "pitch": 59, "duration": 5, "velocity": 85}, {"time": 550, "pitch": 40, "duration": 20, "velocity": 91}, {"time": 550, "pitch": 52, "duration": 10, "velocity": 81}, {"time": 550, "pitch": 56, "duration": 9, "velocity": 82}, {"time": 550, "pitch": 59, "duration": 10, "velocity": 80}, {"time": 556, "pitch": 47, "duration": 14, "velocity": 80}, {"time": 562, "pitch": 52, "duration": 5, "velocity": 62}, {"time": 562, "pitch": 59, "duration": 6, "velocity": 87}, {"time": 568, "pitch": 56, "duration": 2, "velocity": 87}, {"time": 574, "pitch": 40, "duration": 15, "velocity": 92}, {"time": 574, "pitch": 52, "duration": 6, "velocity": 87}, {"time": 574, "pitch": 64, "duration": 5, "velocity": 87}, {"time": 580, "pitch": 47, "duration": 8, "velocity": 72}, {"time": 586, "pitch": 52, "duration": 11, "velocity": 95}, {"time": 586, "pitch": 56, "duration": 11, "velocity": 100}, {"time": 586, "pitch": 59, "duration": 11, "velocity": 93}, {"time": 586, "pitch": 64, "duration": 12, "velocity": 87}, {"time": 598, "pitch": 44, "duration": 15, "velocity": 92}, {"time": 598, "pitch": 59, "duration": 3, "velocity": 87}, {"time": 598, "pitch": 66, "duration": 8, "velocity": 81}, {"time": 604, "pitch": 59, "duration": 4, "velocity": 76}, {"time": 607, "pitch": 62, "duration": 1, "velocity": 77}, {"time": 610, "pitch": 59, "duration": 2, "velocity": 90}, {"time": 610, "pitch": 62, "duration": 3, "velocity": 91}, {"time": 610, "pitch": 66, "duration": 7, "velocity": 92}, {"time": 613, "pitch": 59, "duration": 5, "velocity": 86}, {"time": 616, "pitch": 62, "duration": 3, "velocity": 78}, {"time": 619, "pitch": 66, "duration": 6, "velocity": 80}, {"time": 622, "pitch": 49, "duration": 17, "velocity": 95}, {"time": 625, "pitch": 56, "duration": 11, "velocity": 86}, {"time": 628, "pitch": 61, "duration": 4, "velocity": 87}, {"time": 628, "pitch": 65, "duration": 2, "velocity": 78}, {"time": 631, "pitch": 61, "duration": 1, "velocity": 85}, {"time": 631, "pitch": 68, "duration": 8, "velocity": 92}, {"time": 634, "pitch": 56, "duration": 2, "velocity": 77}, {"time": 634, "pitch": 65, "duration": 7, "velocity": 87}, {"time": 640, "pitch": 61, "duration": 5, "velocity": 87}, {"time": 646, "pitch": 42, "duration": 16, "velocity": 95}, {"time": 646, "pitch": 61, "duration": 7, "velocity": 87}, {"time": 646, "pitch": 66, "duration": 7, "velocity": 86}, {"time": 649, "pitch": 49, "duration": 10, "velocity": 67}, {"time": 652, "pitch": 57, "duration": 4, "velocity": 77}, {"time": 655, "pitch": 61, "duration": 2, "velocity": 66}, {"time": 658, "pitch": 57, "duration": 4, "velocity": 88}, {"time": 658, "pitch": 61, "duration": 7, "velocity": 100}, {"time": 658, "pitch": 66, "duration": 7, "velocity": 87}, {"time": 661, "pitch": 49, "duration": 3, "velocity": 72}, {"time": 664, "pitch": 57, "duration": 3, "velocity": 87}, {"time": 670, "pitch": 40, "duration": 17, "velocity": 91}, {"time": 670, "pitch": 59, "duration": 3, "velocity": 86}, {"time": 670, "pitch": 68, "duration": 6, "velocity": 80}, {"time": 673, "pitch": 47, "duration": 7, "velocity": 77}, {"time": 676, "pitch": 59, "duration": 4, "velocity": 82}, {"time": 679, "pitch": 64, "duration": 4, "velocity": 87}, {"time": 682, "pitch": 47, "duration": 5, "velocity": 74}, {"time": 685, "pitch": 59, "duration": 2, "velocity": 88}, {"time": 685, "pitch": 64, "duration": 4, "velocity": 92}, {"time": 685, "pitch": 68, "duration": 7, "velocity": 89}, {"time": 688, "pitch": 59, "duration": 5, "velocity": 88}, {"time": 691, "pitch": 64, "duration": 3, "velocity": 83}, {"time": 694, "pitch": 47, "duration": 20, "velocity": 91}, {"time": 697, "pitch": 54, "duration": 7, "velocity": 74}, {"time": 700, "pitch": 59, "duration": 7, "velocity": 92}, {"time": 703, "pitch": 62, "duration": 6, "velocity": 86}, {"time": 706, "pitch": 54, "duration": 8, "velocity": 85}, {"time": 709, "pitch": 59, "duration": 2, "velocity": 85}, {"time": 712, "pitch": 62, "duration": 1, "velocity": 70}, {"time": 718, "pitch": 47, "duration": 19, "velocity": 87}, {"time": 718, "pitch": 59, "duration": 6, "velocity": 81}, {"time": 718, "pitch": 62, "duration": 10, "velocity": 81}, {"time": 718, "pitch": 66, "duration": 10, "velocity": 76}, {"time": 724, "pitch": 54, "duration": 10, "velocity": 70}, {"time": 727, "pitch": 59, "duration": 5, "velocity": 77}, {"time": 730, "pitch": 62, "duration": 1, "velocity": 65}, {"time": 730, "pitch": 66, "duration": 1, "velocity": 67}, {"time": 730, "pitch": 71, "duration": 9, "velocity": 87}, {"time": 733, "pitch": 66, "duration": 8, "velocity": 92}, {"time": 736, "pitch": 59, "duration": 6, "velocity": 95}, {"time": 739, "pitch": 62, "duration": 4, "velocity": 81}, {"time": 742, "pitch": 40, "duration": 22, "velocity": 92}, {"time": 745, "pitch": 47, "duration": 9, "velocity": 86}, {"time": 748, "pitch": 52, "duration": 4, "velocity": 87}, {"time": 751, "pitch": 57, "duration": 3, "velocity": 88}, {"time": 754, "pitch": 59, "duration": 3, "velocity": 93}, {"time": 757, "pitch": 52, "duration": 3, "velocity": 91}, {"time": 760, "pitch": 47, "duration": 5, "velocity": 90}, {"time": 763, "pitch": 52, "duration": 2, "velocity": 88}, {"time": 766, "pitch": 40, "duration": 18, "velocity": 95}, {"time": 766, "pitch": 52, "duration": 3, "velocity": 89}, {"time": 766, "pitch": 56, "duration": 4, "velocity": 75}, {"time": 766, "pitch": 64, "duration": 7, "velocity": 88}, {"time": 769, "pitch": 47, "duration": 8, "velocity": 86}, {"time": 772, "pitch": 52, "duration": 1, "velocity": 85}, {"time": 775, "pitch": 52, "duration": 7, "velocity": 103}, {"time": 775, "pitch": 59, "duration": 10, "velocity": 90}, {"time": 778, "pitch": 47, "duration": 5, "velocity": 89}, {"time": 781, "pitch": 56, "duration": 3, "velocity": 88}, {"time": 784, "pitch": 52, "duration": 4, "velocity": 103}, {"time": 787, "pitch": 64, "duration": 3, "velocity": 91}, {"time": 790, "pitch": 38, "duration": 1, "velocity": 90}, {"time": 790, "pitch": 62, "duration": 6, "velocity": 87}, {"time": 790, "pitch": 66, "duration": 5, "velocity": 88}, {"time": 793, "pitch": 50, "duration": 11, "velocity": 87}, {"time": 796, "pitch": 57, "duration": 7, "velocity": 87}, {"time": 799, "pitch": 62, "duration": 2, "velocity": 90}, {"time": 802, "pitch": 62, "duration": 4, "velocity": 95}, {"time": 802, "pitch": 66, "duration": 6, "velocity": 97}, {"time": 802, "pitch": 69, "duration": 7, "velocity": 95}, {"time": 805, "pitch": 57, "duration": 2, "velocity": 80}, {"time": 808, "pitch": 62, "duration": 4, "velocity": 86}, {"time": 811, "pitch": 66, "duration": 2, "velocity": 88}, {"time": 814, "pitch": 40, "duration": 19, "velocity": 90}, {"time": 814, "pitch": 64, "duration": 3, "velocity": 89}, {"time": 814, "pitch": 68, "duration": 4, "velocity": 89}, {"time": 817, "pitch": 47, "duration": 10, "velocity": 77}, {"time": 820, "pitch": 64, "duration": 2, "velocity": 88}, {"time": 823, "pitch": 68, "duration": 1, "velocity": 89}, {"time": 826, "pitch": 64, "duration": 3, "velocity": 95}, {"time": 826, "pitch": 68, "duration": 6, "velocity": 103}, {"time": 826, "pitch": 71, "duration": 7, "velocity": 93}, {"time": 829, "pitch": 47, "duration": 4, "velocity": 84}, {"time": 832, "pitch": 64, "duration": 5, "velocity": 97}, {"time": 835, "pitch": 68, "duration": 4, "velocity": 91}, {"time": 838, "pitch": 49, "duration": 15, "velocity": 100}, {"time": 841, "pitch": 56, "duration": 7, "velocity": 81}, {"time": 844, "pitch": 61, "duration": 2, "velocity": 80}, {"time": 847, "pitch": 61, "duration": 5, "velocity": 90}, {"time": 847, "pitch": 68, "duration": 4, "velocity": 90}, {"time": 850, "pitch": 56, "duration": 4, "velocity": 88}, {"time": 853, "pitch": 61, "duration": 2, "velocity": 91}, {"time": 853, "pitch": 64, "duration": 4, "velocity": 95}, {"time": 853, "pitch": 68, "duration": 4, "velocity": 77}, {"time": 856, "pitch": 61, "duration": 1, "velocity": 92}, {"time": 862, "pitch": 42, "duration": 16, "velocity": 93}, {"time": 862, "pitch": 57, "duration": 4, "velocity": 90}, {"time": 862, "pitch": 61, "duration": 6, "velocity": 89}, {"time": 865, "pitch": 49, "duration": 10, "velocity": 76}, {"time": 868, "pitch": 57, "duration": 4, "velocity": 86}, {"time": 871, "pitch": 61, "duration": 1, "velocity": 93}, {"time": 874, "pitch": 57, "duration": 3, "velocity": 93}, {"time": 874, "pitch": 61, "duration": 4, "velocity": 107}, {"time": 874, "pitch": 66, "duration": 5, "velocity": 100}, {"time": 877, "pitch": 49, "duration": 2, "velocity": 87}, {"time": 880, "pitch": 57, "duration": 3, "velocity": 88}, {"time": 883, "pitch": 61, "duration": 1, "velocity": 90}, {"time": 886, "pitch": 47, "duration": 17, "velocity": 92}, {"time": 886, "pitch": 59, "duration": 4, "velocity": 88}, {"time": 886, "pitch": 62, "duration": 7, "velocity": 88}, {"time": 889, "pitch": 54, "duration": 7, "velocity": 76}, {"time": 892, "pitch": 57, "duration": 2, "velocity": 81}, {"time": 895, "pitch": 57, "duration": 4, "velocity": 95}, {"time": 895, "pitch": 62, "duration": 5, "velocity": 93}, {"time": 898, "pitch": 54, "duration": 4, "velocity": 86}, {"time": 901, "pitch": 62, "duration": 1, "velocity": 79}, {"time": 901, "pitch": 66, "duration": 6, "velocity": 92}, {"time": 904, "pitch": 57, "duration": 4, "velocity": 88}, {"time": 907, "pitch": 62, "duration": 3, "velocity": 89}, {"time": 910, "pitch": 38, "duration": 9, "velocity": 92}, {"time": 910, "pitch": 62, "duration": 3, "velocity": 87}, {"time": 910, "pitch": 65, "duration": 4, "velocity": 95}, {"time": 910, "pitch": 71, "duration": 6, "velocity": 88}, {"time": 913, "pitch": 45, "duration": 6, "velocity": 78}, {"time": 916, "pitch": 62, "duration": 4, "velocity": 88}, {"time": 919, "pitch": 71, "duration": 9, "velocity": 87}, {"time": 922, "pitch": 40, "duration": 8, "velocity": 97}, {"time": 922, "pitch": 73, "duration": 3, "velocity": 97}, {"time": 925, "pitch": 47, "duration": 5, "velocity": 88}, {"time": 925, "pitch": 69, "duration": 6, "velocity": 84}, {"time": 928, "pitch": 64, "duration": 2, "velocity": 97}, {"time": 931, "pitch": 71, "duration": 3, "velocity": 89}, {"time": 934, "pitch": 45, "duration": 18, "velocity": 92}, {"time": 934, "pitch": 73, "duration": 6, "velocity": 88}, {"time": 937, "pitch": 52, "duration": 6, "velocity": 88}, {"time": 940, "pitch": 57, "duration": 1, "velocity": 89}, {"time": 943, "pitch": 59, "duration": 5, "velocity": 102}, {"time": 946, "pitch": 52, "duration": 4, "velocity": 87}, {"time": 949, "pitch": 57, "duration": 2, "velocity": 89}, {"time": 949, "pitch": 61, "duration": 2, "velocity": 93}, {"time": 955, "pitch": 57, "duration": 1, "velocity": 80}, {"time": 958, "pitch": 47, "duration": 9, "velocity": 89}, {"time": 958, "pitch": 59, "duration": 4, "velocity": 87}, {"time": 958, "pitch": 62, "duration": 6, "velocity": 91}, {"time": 964, "pitch": 59, "duration": 4, "velocity": 91}, {"time": 967, "pitch": 62, "duration": 2, "velocity": 86}, {"time": 970, "pitch": 49, "duration": 12, "velocity": 88}, {"time": 970, "pitch": 61, "duration": 4, "velocity": 91}, {"time": 970, "pitch": 64, "duration": 5, "velocity": 91}, {"time": 973, "pitch": 56, "duration": 9, "velocity": 86}, {"time": 976, "pitch": 61, "duration": 1, "velocity": 95}, {"time": 979, "pitch": 61, "duration": 3, "velocity": 79}, {"time": 979, "pitch": 64, "duration": 3, "velocity": 89}, {"time": 982, "pitch": 38, "duration": 1, "velocity": 90}, {"time": 982, "pitch": 62, "duration": 6, "velocity": 87}, {"time": 982, "pitch": 66, "duration": 5, "velocity": 88}, {"time": 985, "pitch": 50, "duration": 11, "velocity": 87}, {"time": 988, "pitch": 57, "duration": 7, "velocity": 87}, {"time": 991, "pitch": 62, "duration": 2, "velocity": 90}, {"time": 994, "pitch": 62, "duration": 4, "velocity": 95}, {"time": 994, "pitch": 66, "duration": 6, "velocity": 97}, {"time": 994, "pitch": 69, "duration": 7, "velocity": 95}, {"time": 997, "pitch": 57, "duration": 2, "velocity": 80}, {"time": 1000, "pitch": 62, "duration": 4, "velocity": 86}, {"time": 1003, "pitch": 66, "duration": 2, "velocity": 88}, {"time": 1006, "pitch": 40, "duration": 19, "velocity": 90}, {"time": 1006, "pitch": 64, "duration": 3, "velocity": 89}, {"time": 1006, "pitch": 68, "duration": 4, "velocity": 89}, {"time": 1009, "pitch": 47, "duration": 10, "velocity": 77}, {"time": 1012, "pitch": 64, "duration": 2, "velocity": 88}, {"time": 1015, "pitch": 68, "duration": 1, "velocity": 89}, {"time": 1018, "pitch": 64, "duration": 3, "velocity": 95}, {"time": 1018, "pitch": 68, "duration": 6, "velocity": 103}, {"time": 1018, "pitch": 71, "duration": 7, "velocity": 93}, {"time": 1021, "pitch": 47, "duration": 4, "velocity": 84}, {"time": 1024, "pitch": 64, "duration": 5, "velocity": 97}, {"time": 1027, "pitch": 68, "duration": 4, "velocity": 91}, {"time": 1030, "pitch": 49, "duration": 15, "velocity": 100}, {"time": 1033, "pitch": 56, "duration": 7, "velocity": 81}, {"time": 1036, "pitch": 61, "duration": 2, "velocity": 80}, {"time": 1039, "pitch": 61, "duration": 5, "velocity": 90}, {"time": 1039, "pitch": 68, "duration": 4, "velocity": 90}, {"time": 1042, "pitch": 56, "duration": 4, "velocity": 88}, {"time": 1045, "pitch": 61, "duration": 2, "velocity": 91}, {"time": 1045, "pitch": 64, "duration": 4, "velocity": 95}, {"time": 1045, "pitch": 68, "duration": 4, "velocity": 77}, {"time": 1048, "pitch": 61, "duration": 1, "velocity": 92}, {"time": 1054, "pitch": 42, "duration": 16, "velocity": 93}, {"time": 1054, "pitch": 57, "duration": 4, "velocity": 90}, {"time": 1054, "pitch": 61, "duration": 6, "velocity": 89}, {"time": 1057, "pitch": 49, "duration": 10, "velocity": 76}, {"time": 1060, "pitch": 57, "duration": 4, "velocity": 86}, {"time": 1063, "pitch": 61, "duration": 1, "velocity": 93}, {"time": 1066, "pitch": 57, "duration": 3, "velocity": 93}, {"time": 1066, "pitch": 61, "duration": 4, "velocity": 107}, {"time": 1066, "pitch": 66, "duration": 5, "velocity": 100}, {"time": 1069, "pitch": 49, "duration": 2, "velocity": 87}, {"time": 1072, "pitch": 57, "duration": 3, "velocity": 88}, {"time": 1075, "pitch": 61, "duration": 1, "velocity": 90}, {"time": 1078, "pitch": 47, "duration": 17, "velocity": 92}, {"time": 1078, "pitch": 59, "duration": 4, "velocity": 88}, {"time": 1078, "pitch": 62, "duration": 7, "velocity": 88}, {"time": 1081, "pitch": 54, "duration": 7, "velocity": 76}, {"time": 1084, "pitch": 57, "duration": 2, "velocity": 81}, {"time": 1087, "pitch": 57, "duration": 4, "velocity": 95}, {"time": 1087, "pitch": 62, "duration": 5, "velocity": 93}, {"time": 1090, "pitch": 54, "duration": 4, "velocity": 86}, {"time": 1093, "pitch": 62, "duration": 1, "velocity": 79}, {"time": 1093, "pitch": 66, "duration": 6, "velocity": 92}, {"time": 1096, "pitch": 57, "duration": 4, "velocity": 88}, {"time": 1099, "pitch": 62, "duration": 3, "velocity": 89}, {"time": 1102, "pitch": 40, "duration": 18, "velocity": 93}, {"time": 1102, "pitch": 59, "duration": 4, "velocity": 89}, {"time": 1102, "pitch": 64, "duration": 6, "velocity": 91}, {"time": 1105, "pitch": 47, "duration": 10, "velocity": 78}, {"time": 1108, "pitch": 59, "duration": 4, "velocity": 82}, {"time": 1111, "pitch": 64, "duration": 1, "velocity": 87}, {"time": 1114, "pitch": 59, "duration": 4, "velocity": 90}, {"time": 1114, "pitch": 64, "duration": 6, "velocity": 95}, {"time": 1114, "pitch": 71, "duration": 7, "velocity": 90}, {"time": 1117, "pitch": 47, "duration": 3, "velocity": 86}, {"time": 1120, "pitch": 59, "duration": 6, "velocity": 89}, {"time": 1123, "pitch": 71, "duration": 3, "velocity": 88}, {"time": 1126, "pitch": 45, "duration": 22, "velocity": 87}, {"time": 1126, "pitch": 57, "duration": 6, "velocity": 79}, {"time": 1126, "pitch": 61, "duration": 6, "velocity": 87}, {"time": 1126, "pitch": 64, "duration": 7, "velocity": 87}, {"time": 1132, "pitch": 52, "duration": 7, "velocity": 86}, {"time": 1138, "pitch": 57, "duration": 4, "velocity": 87}, {"time": 1138, "pitch": 61, "duration": 6, "velocity": 95}, {"time": 1138, "pitch": 64, "duration": 7, "velocity": 91}, {"time": 1141, "pitch": 52, "duration": 7, "velocity": 81}, {"time": 1144, "pitch": 57, "duration": 4, "velocity": 82}, {"time": 1150, "pitch": 45, "duration": 15, "velocity": 87}, {"time": 1150, "pitch": 57, "duration": 6, "velocity": 82}, {"time": 1150, "pitch": 61, "duration": 6, "velocity": 80}, {"time": 1156, "pitch": 52, "duration": 7, "velocity": 75}, {"time": 1162, "pitch": 57, "duration": 4, "velocity": 87}, {"time": 1162, "pitch": 61, "duration": 5, "velocity": 93}, {"time": 1162, "pitch": 64, "duration": 6, "velocity": 92}, {"time": 1165, "pitch": 52, "duration": 2, "velocity": 87}, {"time": 1168, "pitch": 45, "duration": 4, "velocity": 87}, {"time": 1174, "pitch": 47, "duration": 22, "velocity": 88}, {"time": 1174, "pitch": 59, "duration": 6, "velocity": 84}, {"time": 1174, "pitch": 63, "duration": 6, "velocity": 85}, {"time": 1180, "pitch": 54, "duration": 8, "velocity": 71}, {"time": 1186, "pitch": 59, "duration": 3, "velocity": 86}, {"time": 1186, "pitch": 63, "duration": 3, "velocity": 88}, {"time": 1186, "pitch": 66, "duration": 3, "velocity": 86}, {"time": 1192, "pitch": 54, "duration": 6, "velocity": 68}, {"time": 1198, "pitch": 47, "duration": 15, "velocity": 87}, {"time": 1198, "pitch": 59, "duration": 6, "velocity": 82}, {"time": 1198, "pitch": 63, "duration": 6, "velocity": 82}, {"time": 1198, "pitch": 66, "duration": 6, "velocity": 77}, {"time": 1204, "pitch": 54, "duration": 7, "velocity": 74}, {"time": 1210, "pitch": 59, "duration": 8, "velocity": 87}, {"time": 1210, "pitch": 63, "duration": 6, "velocity": 90}, {"time": 1210, "pitch": 66, "duration": 8, "velocity": 87}, {"time": 1210, "pitch": 69, "duration": 9, "velocity": 86}, {"time": 1216, "pitch": 47, "duration": 5, "velocity": 87}, {"time": 1222, "pitch": 47, "duration": 15, "velocity": 89}, {"time": 1222, "pitch": 59, "duration": 10, "velocity": 86}, {"time": 1222, "pitch": 62, "duration": 10, "velocity": 80}, {"time": 1228, "pitch": 54, "duration": 9, "velocity": 64}, {"time": 1234, "pitch": 59, "duration": 11, "velocity": 95}, {"time": 1234, "pitch": 62, "duration": 11, "velocity": 93}, {"time": 1240, "pitch": 47, "duration": 4, "velocity": 89}, {"time": 1246, "pitch": 47, "duration": 16, "velocity": 90}, {"time": 1246, "pitch": 59, "duration": 8, "velocity": 88}, {"time": 1246, "pitch": 62, "duration": 10, "velocity": 88}, {"time": 1252, "pitch": 54, "duration": 8, "velocity": 73}, {"time": 1258, "pitch": 59, "duration": 7, "velocity": 88}, {"time": 1258, "pitch": 62, "duration": 7, "velocity": 87}, {"time": 1258, "pitch": 66, "duration": 7, "velocity": 82}, {"time": 1258, "pitch": 69, "duration": 7, "velocity": 87}, {"time": 1270, "pitch": 45, "duration": 22, "velocity": 87}, {"time": 1270, "pitch": 57, "duration": 9, "velocity": 80}, {"time": 1270, "pitch": 64, "duration": 8, "velocity": 87}, {"time": 1276, "pitch": 52, "duration": 15, "velocity": 79}, {"time": 1282, "pitch": 57, "duration": 7, "velocity": 87}, {"time": 1282, "pitch": 61, "duration": 3, "velocity": 88}, {"time": 1288, "pitch": 59, "duration": 7, "velocity": 90}, {"time": 1294, "pitch": 40, "duration": 15, "velocity": 90}, {"time": 1294, "pitch": 52, "duration": 7, "velocity": 82}, {"time": 1294, "pitch": 64, "duration": 6, "velocity": 81}, {"time": 1300, "pitch": 47, "duration": 9, "velocity": 77}, {"time": 1306, "pitch": 52, "duration": 9, "velocity": 86}, {"time": 1306, "pitch": 56, "duration": 9, "velocity": 82}, {"time": 1318, "pitch": 45, "duration": 20, "velocity": 87}, {"time": 1318, "pitch": 57, "duration": 7, "velocity": 77}, {"time": 1318, "pitch": 64, "duration": 6, "velocity": 86}, {"time": 1324, "pitch": 52, "duration": 17, "velocity": 67}, {"time": 1330, "pitch": 61, "duration": 7, "velocity": 88}, {"time": 1330, "pitch": 64, "duration": 13, "velocity": 88}, {"time": 1336, "pitch": 57, "duration": 2, "velocity": 84}, {"time": 1342, "pitch": 47, "duration": 16, "velocity": 74}, {"time": 1342, "pitch": 59, "duration": 9, "velocity": 75}, {"time": 1342, "pitch": 63, "duration": 9, "velocity": 79}, {"time": 1354, "pitch": 59, "duration": 2, "velocity": 87}, {"time": 1354, "pitch": 63, "duration": 4, "velocity": 95}, {"time": 1366, "pitch": 50, "duration": 14, "velocity": 82}, {"time": 1366, "pitch": 57, "duration": 3, "velocity": 82}, {"time": 1366, "pitch": 65, "duration": 7, "velocity": 86}, {"time": 1372, "pitch": 57, "duration": 7, "velocity": 79}, {"time": 1378, "pitch": 62, "duration": 3, "velocity": 87}, {"time": 1378, "pitch": 65, "duration": 4, "velocity": 82}, {"time": 1390, "pitch": 45, "duration": 6, "velocity": 85}, {"time": 1390, "pitch": 61, "duration": 2, "velocity": 83}, {"time": 1390, "pitch": 64, "duration": 9, "velocity": 87}, {"time": 1402, "pitch": 44, "duration": 3, "velocity": 80}, {"time": 1402, "pitch": 56, "duration": 4, "velocity": 72}, {"time": 1402, "pitch": 59, "duration": 3, "velocity": 86}, {"time": 1402, "pitch": 64, "duration": 6, "velocity": 88}, {"time": 1414, "pitch": 42, "duration": 13, "velocity": 79}, {"time": 1414, "pitch": 57, "duration": 11, "velocity": 76}, {"time": 1414, "pitch": 61, "duration": 7, "velocity": 80}, {"time": 1420, "pitch": 49, "duration": 7, "velocity": 70}, {"time": 1426, "pitch": 57, "duration": 1, "velocity": 65}, {"time": 1426, "pitch": 61, "duration": 7, "velocity": 95}, {"time": 1426, "pitch": 66, "duration": 9, "velocity": 91}, {"time": 1432, "pitch": 57, "duration": 2, "velocity": 87}, {"time": 1438, "pitch": 47, "duration": 16, "velocity": 82}, {"time": 1438, "pitch": 59, "duration": 10, "velocity": 80}, {"time": 1438, "pitch": 62, "duration": 10, "velocity": 78}, {"time": 1450, "pitch": 59, "duration": 4, "velocity": 89}, {"time": 1450, "pitch": 62, "duration": 8, "velocity": 90}, {"time": 1462, "pitch": 40, "duration": 21, "velocity": 88}, {"time": 1462, "pitch": 62, "duration": 11, "velocity": 78}, {"time": 1468, "pitch": 47, "duration": 13, "velocity": 73}, {"time": 1474, "pitch": 59, "duration": 6, "velocity": 91}, {"time": 1480, "pitch": 62, "duration": 5, "velocity": 93}, {"time": 1486, "pitch": 40, "duration": 18, "velocity": 89}, {"time": 1486, "pitch": 59, "duration": 4, "velocity": 85}, {"time": 1486, "pitch": 64, "duration": 5, "velocity": 85}, {"time": 1492, "pitch": 47, "duration": 12, "velocity": 64}, {"time": 1495, "pitch": 64, "duration": 2, "velocity": 85}, {"time": 1498, "pitch": 68, "duration": 3, "velocity": 88}, {"time": 1501, "pitch": 69, "duration": 3, "velocity": 81}, {"time": 1504, "pitch": 71, "duration": 4, "velocity": 87}, {"time": 1510, "pitch": 45, "duration": 20, "velocity": 88}, {"time": 1510, "pitch": 57, "duration": 9, "velocity": 76}, {"time": 1510, "pitch": 64, "duration": 6, "velocity": 87}, {"time": 1516, "pitch": 52, "duration": 15, "velocity": 74}, {"time": 1522, "pitch": 57, "duration": 2, "velocity": 86}, {"time": 1522, "pitch": 61, "duration": 6, "velocity": 87}, {"time": 1522, "pitch": 64, "duration": 10, "velocity": 88}, {"time": 1528, "pitch": 57, "duration": 2, "velocity": 80}, {"time": 1534, "pitch": 47, "duration": 16, "velocity": 86}, {"time": 1534, "pitch": 59, "duration": 8, "velocity": 81}, {"time": 1534, "pitch": 63, "duration": 7, "velocity": 81}, {"time": 1540, "pitch": 54, "duration": 8, "velocity": 66}, {"time": 1546, "pitch": 63, "duration": 4, "velocity": 91}, {"time": 1546, "pitch": 66, "duration": 4, "velocity": 88}, {"time": 1558, "pitch": 50, "duration": 21, "velocity": 84}, {"time": 1558, "pitch": 62, "duration": 7, "velocity": 86}, {"time": 1558, "pitch": 65, "duration": 7, "velocity": 84}, {"time": 1564, "pitch": 57, "duration": 8, "velocity": 84}, {"time": 1570, "pitch": 62, "duration": 4, "velocity": 88}, {"time": 1570, "pitch": 65, "duration": 7, "velocity": 88}, {"time": 1576, "pitch": 59, "duration": 4, "velocity": 85}, {"time": 1579, "pitch": 61, "duration": 4, "velocity": 72}, {"time": 1582, "pitch": 45, "duration": 8, "velocity": 87}, {"time": 1582, "pitch": 57, "duration": 6, "velocity": 75}, {"time": 1588, "pitch": 52, "duration": 8, "velocity": 78}, {"time": 1594, "pitch": 44, "duration": 7, "velocity": 85}, {"time": 1594, "pitch": 56, "duration": 5, "velocity": 80}, {"time": 1594, "pitch": 59, "duration": 6, "velocity": 86}, {"time": 1600, "pitch": 56, "duration": 2, "velocity": 82}, {"time": 1606, "pitch": 42, "duration": 13, "velocity": 86}, {"time": 1606, "pitch": 57, "duration": 13, "velocity": 79}, {"time": 1606, "pitch": 61, "duration": 8, "velocity": 80}, {"time": 1612, "pitch": 49, "duration": 7, "velocity": 69}, {"time": 1618, "pitch": 61, "duration": 9, "velocity": 97}, {"time": 1618, "pitch": 66, "duration": 11, "velocity": 92}, {"time": 1624, "pitch": 57, "duration": 3, "velocity": 91}, {"time": 1630, "pitch": 47, "duration": 19, "velocity": 89}, {"time": 1630, "pitch": 59, "duration": 7, "velocity": 85}, {"time": 1630, "pitch": 63, "duration": 7, "velocity": 75}, {"time": 1630, "pitch": 66, "duration": 6, "velocity": 75}, {"time": 1636, "pitch": 54, "duration": 10, "velocity": 69}, {"time": 1642, "pitch": 59, "duration": 3, "velocity": 86}, {"time": 1642, "pitch": 63, "duration": 7, "velocity": 88}, {"time": 1642, "pitch": 66, "duration": 10, "velocity": 87}, {"time": 1648, "pitch": 59, "duration": 5, "velocity": 85}, {"time": 1654, "pitch": 40, "duration": 20, "velocity": 91}, {"time": 1654, "pitch": 52, "duration": 10, "velocity": 81}, {"time": 1654, "pitch": 56, "duration": 9, "velocity": 82}, {"time": 1654, "pitch": 59, "duration": 10, "velocity": 80}, {"time": 1660, "pitch": 47, "duration": 14, "velocity": 80}, {"time": 1666, "pitch": 52, "duration": 5, "velocity": 62}, {"time": 1666, "pitch": 59, "duration": 6, "velocity": 87}, {"time": 1672, "pitch": 56, "duration": 2, "velocity": 87}, {"time": 1678, "pitch": 40, "duration": 15, "velocity": 92}, {"time": 1678, "pitch": 52, "duration": 6, "velocity": 87}, {"time": 1678, "pitch": 64, "duration": 5, "velocity": 87}, {"time": 1684, "pitch": 47, "duration": 8, "velocity": 72}, {"time": 1690, "pitch": 52, "duration": 11, "velocity": 95}, {"time": 1690, "pitch": 56, "duration": 11, "velocity": 100}, {"time": 1690, "pitch": 59, "duration": 11, "velocity": 93}, {"time": 1690, "pitch": 64, "duration": 12, "velocity": 87}, {"time": 1702, "pitch": 44, "duration": 15, "velocity": 92}, {"time": 1702, "pitch": 59, "duration": 3, "velocity": 87}, {"time": 1702, "pitch": 66, "duration": 8, "velocity": 81}, {"time": 1708, "pitch": 59, "duration": 4, "velocity": 76}, {"time": 1711, "pitch": 62, "duration": 1, "velocity": 77}, {"time": 1714, "pitch": 59, "duration": 2, "velocity": 90}, {"time": 1714, "pitch": 62, "duration": 3, "velocity": 91}, {"time": 1714, "pitch": 66, "duration": 7, "velocity": 92}, {"time": 1717, "pitch": 59, "duration": 5, "velocity": 86}, {"time": 1720, "pitch": 62, "duration": 3, "velocity": 78}, {"time": 1723, "pitch": 66, "duration": 6, "velocity": 80}, {"time": 1726, "pitch": 49, "duration": 17, "velocity": 95}, {"time": 1729, "pitch": 56, "duration": 11, "velocity": 86}, {"time": 1732, "pitch": 61, "duration": 4, "velocity": 87}, {"time": 1732, "pitch": 65, "duration": 2, "velocity": 78}, {"time": 1735, "pitch": 61, "duration": 1, "velocity": 85}, {"time": 1735, "pitch": 68, "duration": 8, "velocity": 92}, {"time": 1738, "pitch": 56, "duration": 2, "velocity": 77}, {"time": 1738, "pitch": 65, "duration": 7, "velocity": 87}, {"time": 1744, "pitch": 61, "duration": 5, "velocity": 87}, {"time": 1750, "pitch": 42, "duration": 16, "velocity": 95}, {"time": 1750, "pitch": 61, "duration": 7, "velocity": 87}, {"time": 1750, "pitch": 66, "duration": 7, "velocity": 86}, {"time": 1753, "pitch": 49, "duration": 10, "velocity": 67}, {"time": 1756, "pitch": 57, "duration": 4, "velocity": 77}, {"time": 1759, "pitch": 61, "duration": 2, "velocity": 66}, {"time": 1762, "pitch": 57, "duration": 4, "velocity": 88}, {"time": 1762, "pitch": 61, "duration": 7, "velocity": 100}, {"time": 1762, "pitch": 66, "duration": 7, "velocity": 87}, {"time": 1765, "pitch": 49, "duration": 3, "velocity": 72}, {"time": 1768, "pitch": 57, "duration": 3, "velocity": 87}, {"time": 1774, "pitch": 40, "duration": 17, "velocity": 91}, {"time": 1774, "pitch": 59, "duration": 3, "velocity": 86}, {"time": 1774, "pitch": 68, "duration": 6, "velocity": 80}, {"time": 1777, "pitch": 47, "duration": 7, "velocity": 77}, {"time": 1780, "pitch": 59, "duration": 4, "velocity": 82}, {"time": 1783, "pitch": 64, "duration": 4, "velocity": 87}, {"time": 1786, "pitch": 47, "duration": 5, "velocity": 74}, {"time": 1789, "pitch": 59, "duration": 2, "velocity": 88}, {"time": 1789, "pitch": 64, "duration": 4, "velocity": 92}, {"time": 1789, "pitch": 68, "duration": 7, "velocity": 89}, {"time": 1792, "pitch": 59, "duration": 5, "velocity": 88}, {"time": 1795, "pitch": 64, "duration": 3, "velocity": 83}, {"time": 1798, "pitch": 47, "duration": 20, "velocity": 91}, {"time": 1801, "pitch": 54, "duration": 7, "velocity": 74}, {"time": 1804, "pitch": 59, "duration": 7, "velocity": 92}, {"time": 1807, "pitch": 62, "duration": 6, "velocity": 86}, {"time": 1810, "pitch": 54, "duration": 8, "velocity": 85}, {"time": 1813, "pitch": 59, "duration": 2, "velocity": 85}, {"time": 1816, "pitch": 62, "duration": 1, "velocity": 70}, {"time": 1822, "pitch": 47, "duration": 19, "velocity": 87}, {"time": 1822, "pitch": 59, "duration": 6, "velocity": 81}, {"time": 1822, "pitch": 62, "duration": 10, "velocity": 81}, {"time": 1822, "pitch": 66, "duration": 10, "velocity": 76}, {"time": 1828, "pitch": 54, "duration": 10, "velocity": 70}, {"time": 1831, "pitch": 59, "duration": 5, "velocity": 77}, {"time": 1834, "pitch": 62, "duration": 1, "velocity": 65}, {"time": 1834, "pitch": 66, "duration": 1, "velocity": 67}, {"time": 1834, "pitch": 71, "duration": 9, "velocity": 87}, {"time": 1837, "pitch": 66, "duration": 8, "velocity": 92}, {"time": 1840, "pitch": 59, "duration": 6, "velocity": 95}, {"time": 1843, "pitch": 62, "duration": 4, "velocity": 81}, {"time": 1846, "pitch": 40, "duration": 22, "velocity": 92}, {"time": 1849, "pitch": 47, "duration": 9, "velocity": 86}, {"time": 1852, "pitch": 52, "duration": 4, "velocity": 87}, {"time": 1855, "pitch": 57, "duration": 3, "velocity": 88}, {"time": 1858, "pitch": 59, "duration": 3, "velocity": 93}, {"time": 1861, "pitch": 52, "duration": 3, "velocity": 91}, {"time": 1864, "pitch": 47, "duration": 5, "velocity": 90}, {"time": 1867, "pitch": 52, "duration": 2, "velocity": 88}, {"time": 1870, "pitch": 40, "duration": 18, "velocity": 95}, {"time": 1870, "pitch": 52, "duration": 3, "velocity": 89}, {"time": 1870, "pitch": 56, "duration": 4, "velocity": 75}, {"time": 1870, "pitch": 64, "duration": 7, "velocity": 88}, {"time": 1873, "pitch": 47, "duration": 8, "velocity": 86}, {"time": 1876, "pitch": 52, "duration": 1, "velocity": 85}, {"time": 1879, "pitch": 52, "duration": 7, "velocity": 103}, {"time": 1879, "pitch": 59, "duration": 10, "velocity": 90}, {"time": 1882, "pitch": 47, "duration": 5, "velocity": 89}, {"time": 1885, "pitch": 56, "duration": 3, "velocity": 88}, {"time": 1888, "pitch": 52, "duration": 4, "velocity": 103}, {"time": 1891, "pitch": 64, "duration": 3, "velocity": 91}, {"time": 1894, "pitch": 38, "duration": 1, "velocity": 90}, {"time": 1894, "pitch": 62, "duration": 6, "velocity": 87}, {"time": 1894, "pitch": 66, "duration": 5, "velocity": 88}, {"time": 1897, "pitch": 50, "duration": 11, "velocity": 87}, {"time": 1900, "pitch": 57, "duration": 7, "velocity": 87}, {"time": 1903, "pitch": 62, "duration": 2, "velocity": 90}, {"time": 1906, "pitch": 62, "duration": 4, "velocity": 95}, {"time": 1906, "pitch": 66, "duration": 6, "velocity": 97}, {"time": 1906, "pitch": 69, "duration": 7, "velocity": 95}, {"time": 1909, "pitch": 57, "duration": 2, "velocity": 80}, {"time": 1912, "pitch": 62, "duration": 4, "velocity": 86}, {"time": 1915, "pitch": 66, "duration": 2, "velocity": 88}, {"time": 1918, "pitch": 40, "duration": 19, "velocity": 90}, {"time": 1918, "pitch": 64, "duration": 3, "velocity": 89}, {"time": 1918, "pitch": 68, "duration": 4, "velocity": 89}, {"time": 1921, "pitch": 47, "duration": 10, "velocity": 77}, {"time": 1924, "pitch": 64, "duration": 2, "velocity": 88}, {"time": 1927, "pitch": 68, "duration": 1, "velocity": 89}, {"time": 1930, "pitch": 64, "duration": 3, "velocity": 95}, {"time": 1930, "pitch": 68, "duration": 6, "velocity": 103}, {"time": 1930, "pitch": 71, "duration": 7, "velocity": 93}, {"time": 1933, "pitch": 47, "duration": 4, "velocity": 84}, {"time": 1936, "pitch": 64, "duration": 5, "velocity": 97}, {"time": 1939, "pitch": 68, "duration": 4, "velocity": 91}, {"time": 1942, "pitch": 49, "duration": 15, "velocity": 100}, {"time": 1945, "pitch": 56, "duration": 7, "velocity": 81}, {"time": 1948, "pitch": 61, "duration": 2, "velocity": 80}, {"time": 1951, "pitch": 61, "duration": 5, "velocity": 90}, {"time": 1951, "pitch": 68, "duration": 4, "velocity": 90}, {"time": 1954, "pitch": 56, "duration": 4, "velocity": 88}, {"time": 1957, "pitch": 61, "duration": 2, "velocity": 91}, {"time": 1957, "pitch": 64, "duration": 4, "velocity": 95}, {"time": 1957, "pitch": 68, "duration": 4, "velocity": 77}, {"time": 1960, "pitch": 61, "duration": 1, "velocity": 92}, {"time": 1966, "pitch": 42, "duration": 16, "velocity": 93}, {"time": 1966, "pitch": 57, "duration": 4, "velocity": 90}, {"time": 1966, "pitch": 61, "duration": 6, "velocity": 89}, {"time": 1969, "pitch": 49, "duration": 10, "velocity": 76}, {"time": 1972, "pitch": 57, "duration": 4, "velocity": 86}, {"time": 1975, "pitch": 61, "duration": 1, "velocity": 93}, {"time": 1978, "pitch": 57, "duration": 3, "velocity": 93}, {"time": 1978, "pitch": 61, "duration": 4, "velocity": 107}, {"time": 1978, "pitch": 66, "duration": 5, "velocity": 100}, {"time": 1981, "pitch": 49, "duration": 2, "velocity": 87}, {"time": 1984, "pitch": 57, "duration": 3, "velocity": 88}, {"time": 1987, "pitch": 61, "duration": 1, "velocity": 90}, {"time": 1990, "pitch": 47, "duration": 17, "velocity": 92}, {"time": 1990, "pitch": 59, "duration": 4, "velocity": 88}, {"time": 1990, "pitch": 62, "duration": 7, "velocity": 88}, {"time": 1993, "pitch": 54, "duration": 7, "velocity": 76}, {"time": 1996, "pitch": 57, "duration": 2, "velocity": 81}, {"time": 1999, "pitch": 57, "duration": 4, "velocity": 95}, {"time": 1999, "pitch": 62, "duration": 5, "velocity": 93}, {"time": 2002, "pitch": 54, "duration": 4, "velocity": 86}, {"time": 2005, "pitch": 62, "duration": 1, "velocity": 79}, {"time": 2005, "pitch": 66, "duration": 6, "velocity": 92}, {"time": 2008, "pitch": 57, "duration": 4, "velocity": 88}, {"time": 2011, "pitch": 62, "duration": 3, "velocity": 89}, {"time": 2014, "pitch": 38, "duration": 9, "velocity": 92}, {"time": 2014, "pitch": 62, "duration": 3, "velocity": 87}, {"time": 2014, "pitch": 65, "duration": 4, "velocity": 95}, {"time": 2014, "pitch": 71, "duration": 6, "velocity": 88}, {"time": 2017, "pitch": 45, "duration": 6, "velocity": 78}, {"time": 2020, "pitch": 62, "duration": 4, "velocity": 88}, {"time": 2023, "pitch": 71, "duration": 9, "velocity": 87}, {"time": 2026, "pitch": 40, "duration": 8, "velocity": 97}, {"time": 2026, "pitch": 73, "duration": 3, "velocity": 97}, {"time": 2029, "pitch": 47, "duration": 5, "velocity": 88}, {"time": 2029, "pitch": 69, "duration": 6, "velocity": 84}, {"time": 2032, "pitch": 64, "duration": 2, "velocity": 97}, {"time": 2035, "pitch": 71, "duration": 3, "velocity": 89}, {"time": 2038, "pitch": 45, "duration": 18, "velocity": 92}, {"time": 2038, "pitch": 73, "duration": 6, "velocity": 88}, {"time": 2041, "pitch": 52, "duration": 6, "velocity": 88}, {"time": 2044, "pitch": 57, "duration": 1, "velocity": 89}, {"time": 2047, "pitch": 59, "duration": 5, "velocity": 102}, {"time": 2050, "pitch": 52, "duration": 4, "velocity": 87}, {"time": 2053, "pitch": 57, "duration": 2, "velocity": 89}, {"time": 2053, "pitch": 61, "duration": 2, "velocity": 93}, {"time": 2059, "pitch": 57, "duration": 1, "velocity": 80}, {"time": 2062, "pitch": 47, "duration": 9, "velocity": 89}, {"time": 2062, "pitch": 59, "duration": 4, "velocity": 87}, {"time": 2062, "pitch": 62, "duration": 6, "velocity": 91}, {"time": 2068, "pitch": 59, "duration": 4, "velocity": 91}, {"time": 2071, "pitch": 62, "duration": 2, "velocity": 86}, {"time": 2074, "pitch": 49, "duration": 12, "velocity": 88}, {"time": 2074, "pitch": 61, "duration": 4, "velocity": 91}, {"time": 2074, "pitch": 64, "duration": 5, "velocity": 91}, {"time": 2077, "pitch": 56, "duration": 9, "velocity": 86}, {"time": 2080, "pitch": 61, "duration": 1, "velocity": 95}, {"time": 2083, "pitch": 61, "duration": 3, "velocity": 79}, {"time": 2083, "pitch": 64, "duration": 3, "velocity": 89}, {"time": 2086, "pitch": 38, "duration": 1, "velocity": 90}, {"time": 2086, "pitch": 62, "duration": 6, "velocity": 87}, {"time": 2086, "pitch": 66, "duration": 5, "velocity": 88}, {"time": 2089, "pitch": 50, "duration": 11, "velocity": 87}, {"time": 2092, "pitch": 57, "duration": 7, "velocity": 87}, {"time": 2095, "pitch": 62, "duration": 2, "velocity": 90}, {"time": 2098, "pitch": 62, "duration": 4, "velocity": 95}, {"time": 2098, "pitch": 66, "duration": 6, "velocity": 97}, {"time": 2098, "pitch": 69, "duration": 7, "velocity": 95}, {"time": 2101, "pitch": 57, "duration": 2, "velocity": 80}, {"time": 2104, "pitch": 62, "duration": 4, "velocity": 86}, {"time": 2107, "pitch": 66, "duration": 2, "velocity": 88}, {"time": 2110, "pitch": 40, "duration": 19, "velocity": 90}, {"time": 2110, "pitch": 64, "duration": 3, "velocity": 89}, {"time": 2110, "pitch": 68, "duration": 4, "velocity": 89}, {"time": 2113, "pitch": 47, "duration": 10, "velocity": 77}, {"time": 2116, "pitch": 64, "duration": 2, "velocity": 88}, {"time": 2119, "pitch": 68, "duration": 1, "velocity": 89}, {"time": 2122, "pitch": 64, "duration": 3, "velocity": 95}, {"time": 2122, "pitch": 68, "duration": 6, "velocity": 103}, {"time": 2122, "pitch": 71, "duration": 7, "velocity": 93}, {"time": 2125, "pitch": 47, "duration": 4, "velocity": 84}, {"time": 2128, "pitch": 64, "duration": 5, "velocity": 97}, {"time": 2131, "pitch": 68, "duration": 4, "velocity": 91}, {"time": 2134, "pitch": 49, "duration": 15, "velocity": 100}, {"time": 2137, "pitch": 56, "duration": 7, "velocity": 81}, {"time": 2140, "pitch": 61, "duration": 2, "velocity": 80}, {"time": 2143, "pitch": 61, "duration": 5, "velocity": 90}, {"time": 2143, "pitch": 68, "duration": 4, "velocity": 90}, {"time": 2146, "pitch": 56, "duration": 4, "velocity": 88}, {"time": 2149, "pitch": 61, "duration": 2, "velocity": 91}, {"time": 2149, "pitch": 64, "duration": 4, "velocity": 95}, {"time": 2149, "pitch": 68, "duration": 4, "velocity": 77}, {"time": 2152, "pitch": 61, "duration": 1, "velocity": 92}, {"time": 2158, "pitch": 42, "duration": 16, "velocity": 93}, {"time": 2158, "pitch": 57, "duration": 4, "velocity": 90}, {"time": 2158, "pitch": 61, "duration": 6, "velocity": 89}, {"time": 2161, "pitch": 49, "duration": 10, "velocity": 76}, {"time": 2164, "pitch": 57, "duration": 4, "velocity": 86}, {"time": 2167, "pitch": 61, "duration": 1, "velocity": 93}, {"time": 2170, "pitch": 57, "duration": 3, "velocity": 93}, {"time": 2170, "pitch": 61, "duration": 4, "velocity": 107}, {"time": 2170, "pitch": 66, "duration": 5, "velocity": 100}, {"time": 2173, "pitch": 49, "duration": 2, "velocity": 87}, {"time": 2176, "pitch": 57, "duration": 3, "velocity": 88}, {"time": 2179, "pitch": 61, "duration": 1, "velocity": 90}, {"time": 2182, "pitch": 47, "duration": 17, "velocity": 92}, {"time": 2182, "pitch": 59, "duration": 4, "velocity": 88}, {"time": 2182, "pitch": 62, "duration": 7, "velocity": 88}, {"time": 2185, "pitch": 54, "duration": 7, "velocity": 76}, {"time": 2188, "pitch": 57, "duration": 2, "velocity": 81}, {"time": 2191, "pitch": 57, "duration": 4, "velocity": 95}, {"time": 2191, "pitch": 62, "duration": 5, "velocity": 93}, {"time": 2194, "pitch": 54, "duration": 4, "velocity": 86}, {"time": 2197, "pitch": 62, "duration": 1, "velocity": 79}, {"time": 2197, "pitch": 66, "duration": 6, "velocity": 92}, {"time": 2200, "pitch": 57, "duration": 4, "velocity": 88}, {"time": 2203, "pitch": 62, "duration": 3, "velocity": 89}, {"time": 2206, "pitch": 40, "duration": 18, "velocity": 93}, {"time": 2206, "pitch": 59, "duration": 4, "velocity": 89}, {"time": 2206, "pitch": 64, "duration": 6, "velocity": 91}, {"time": 2209, "pitch": 47, "duration": 10, "velocity": 78}, {"time": 2212, "pitch": 59, "duration": 4, "velocity": 82}, {"time": 2215, "pitch": 64, "duration": 1, "velocity": 87}, {"time": 2218, "pitch": 59, "duration": 4, "velocity": 90}, {"time": 2218, "pitch": 64, "duration": 6, "velocity": 95}, {"time": 2218, "pitch": 71, "duration": 7, "velocity": 90}, {"time": 2221, "pitch": 47, "duration": 3, "velocity": 86}, {"time": 2224, "pitch": 59, "duration": 6, "velocity": 89}, {"time": 2227, "pitch": 71, "duration": 3, "velocity": 88}, {"time": 2230, "pitch": 45, "duration": 22, "velocity": 90}, {"time": 2230, "pitch": 57, "duration": 3, "velocity": 87}, {"time": 2230, "pitch": 61, "duration": 3, "velocity": 92}, {"time": 2230, "pitch": 64, "duration": 3, "velocity": 92}, {"time": 2233, "pitch": 52, "duration": 5, "velocity": 83}, {"time": 2236, "pitch": 57, "duration": 3, "velocity": 92}, {"time": 2239, "pitch": 52, "duration": 4, "velocity": 88}, {"time": 2242, "pitch": 57, "duration": 3, "velocity": 97}, {"time": 2242, "pitch": 59, "duration": 3, "velocity": 102}, {"time": 2245, "pitch": 52, "duration": 5, "velocity": 92}, {"time": 2248, "pitch": 57, "duration": 2, "velocity": 90}, {"time": 2251, "pitch": 61, "duration": 2, "velocity": 100}, {"time": 2254, "pitch": 45, "duration": 11, "velocity": 92}, {"time": 2254, "pitch": 57, "duration": 4, "velocity": 87}, {"time": 2254, "pitch": 61, "duration": 4, "velocity": 86}, {"time": 2254, "pitch": 64, "duration": 5, "velocity": 90}, {"time": 2257, "pitch": 52, "duration": 7, "velocity": 84}, {"time": 2260, "pitch": 57, "duration": 4, "velocity": 90}, {"time": 2263, "pitch": 61, "duration": 2, "velocity": 97}, {"time": 2266, "pitch": 45, "duration": 11, "velocity": 93}, {"time": 2266, "pitch": 57, "duration": 4, "velocity": 89}, {"time": 2266, "pitch": 61, "duration": 4, "velocity": 91}, {"time": 2266, "pitch": 64, "duration": 4, "velocity": 92}, {"time": 2272, "pitch": 57, "duration": 6, "velocity": 80}, {"time": 2272, "pitch": 64, "duration": 6, "velocity": 87}, {"time": 2278, "pitch": 38, "duration": 1, "velocity": 90}, {"time": 2278, "pitch": 62, "duration": 6, "velocity": 87}, {"time": 2278, "pitch": 66, "duration": 5, "velocity": 88}, {"time": 2281, "pitch": 50, "duration": 11, "velocity": 87}, {"time": 2284, "pitch": 57, "duration": 7, "velocity": 87}, {"time": 2287, "pitch": 62, "duration": 2, "velocity": 90}, {"time": 2290, "pitch": 62, "duration": 4, "velocity": 95}, {"time": 2290, "pitch": 66, "duration": 6, "velocity": 97}, {"time": 2290, "pitch": 69, "duration": 7, "velocity": 95}, {"time": 2293, "pitch": 57, "duration": 2, "velocity": 80}, {"time": 2296, "pitch": 62, "duration": 4, "velocity": 86}, {"time": 2299, "pitch": 66, "duration": 2, "velocity": 88}, {"time": 2302, "pitch": 40, "duration": 19, "velocity": 90}, {"time": 2302, "pitch": 64, "duration": 3, "velocity": 89}, {"time": 2302, "pitch": 68, "duration": 4, "velocity": 89}, {"time": 2305, "pitch": 47, "duration": 10, "velocity": 77}, {"time": 2308, "pitch": 64, "duration": 2, "velocity": 88}, {"time": 2311, "pitch": 68, "duration": 1, "velocity": 89}, {"time": 2314, "pitch": 64, "duration": 3, "velocity": 95}, {"time": 2314, "pitch": 68, "duration": 6, "velocity": 103}, {"time": 2314, "pitch": 71, "duration": 7, "velocity": 93}, {"time": 2317, "pitch": 47, "duration": 4, "velocity": 84}, {"time": 2320, "pitch": 64, "duration": 5, "velocity": 97}, {"time": 2323, "pitch": 68, "duration": 4, "velocity": 91}, {"time": 2326, "pitch": 49, "duration": 15, "velocity": 100}, {"time": 2329, "pitch": 56, "duration": 7, "velocity": 81}, {"time": 2332, "pitch": 61, "duration": 2, "velocity": 80}, {"time": 2335, "pitch": 61, "duration": 5, "velocity": 90}, {"time": 2335, "pitch": 68, "duration": 4, "velocity": 90}, {"time": 2338, "pitch": 56, "duration": 4, "velocity": 88}, {"time": 2341, "pitch": 61, "duration": 2, "velocity": 91}, {"time": 2341, "pitch": 64, "duration": 4, "velocity": 95}, {"time": 2341, "pitch": 68, "duration": 4, "velocity": 77}, {"time": 2344, "pitch": 61, "duration": 1, "velocity": 92}, {"time": 2350, "pitch": 42, "duration": 16, "velocity": 93}, {"time": 2350, "pitch": 57, "duration": 4, "velocity": 90}, {"time": 2350, "pitch": 61, "duration": 6, "velocity": 89}, {"time": 2353, "pitch": 49, "duration": 10, "velocity": 76}, {"time": 2356, "pitch": 57, "duration": 4, "velocity": 86}, {"time": 2359, "pitch": 61, "duration": 1, "velocity": 93}, {"time": 2362, "pitch": 57, "duration": 3, "velocity": 93}, {"time": 2362, "pitch": 61, "duration": 4, "velocity": 107}, {"time": 2362, "pitch": 66, "duration": 5, "velocity": 100}, {"time": 2365, "pitch": 49, "duration": 2, "velocity": 87}, {"time": 2368, "pitch": 57, "duration": 3, "velocity": 88}, {"time": 2371, "pitch": 61, "duration": 1, "velocity": 90}, {"time": 2374, "pitch": 47, "duration": 17, "velocity": 92}, {"time": 2374, "pitch": 59, "duration": 4, "velocity": 88}, {"time": 2374, "pitch": 62, "duration": 7, "velocity": 88}, {"time": 2377, "pitch": 54, "duration": 7, "velocity": 76}, {"time": 2380, "pitch": 57, "duration": 2, "velocity": 81}, {"time": 2383, "pitch": 57, "duration": 4, "velocity": 95}, {"time": 2383, "pitch": 62, "duration": 5, "velocity": 93}, {"time": 2386, "pitch": 54, "duration": 4, "velocity": 86}, {"time": 2389, "pitch": 62, "duration": 1, "velocity": 79}, {"time": 2389, "pitch": 66, "duration": 6, "velocity": 92}, {"time": 2392, "pitch": 57, "duration": 4, "velocity": 88}, {"time": 2395, "pitch": 62, "duration": 3, "velocity": 89}, {"time": 2398, "pitch": 40, "duration": 18, "velocity": 93}, {"time": 2398, "pitch": 59, "duration": 4, "velocity": 89}, {"time": 2398, "pitch": 64, "duration": 6, "velocity": 91}, {"time": 2401, "pitch": 47, "duration": 10, "velocity": 78}, {"time": 2404, "pitch": 59, "duration": 4, "velocity": 82}, {"time": 2407, "pitch": 64, "duration": 1, "velocity": 87}, {"time": 2410, "pitch": 59, "duration": 4, "velocity": 90}, {"time": 2410, "pitch": 64, "duration": 6, "velocity": 95}, {"time": 2410, "pitch": 71, "duration": 7, "velocity": 90}, {"time": 2413, "pitch": 47, "duration": 3, "velocity": 86}, {"time": 2416, "pitch": 59, "duration": 6, "velocity": 89}, {"time": 2419, "pitch": 71, "duration": 3, "velocity": 88}, {"time": 2422, "pitch": 45, "duration": 22, "velocity": 90}, {"time": 2422, "pitch": 57, "duration": 3, "velocity": 87}, {"time": 2422, "pitch": 61, "duration": 3, "velocity": 92}, {"time": 2422, "pitch": 64, "duration": 3, "velocity": 92}, {"time": 2425, "pitch": 52, "duration": 5, "velocity": 83}, {"time": 2428, "pitch": 57, "duration": 3, "velocity": 92}, {"time": 2431, "pitch": 52, "duration": 4, "velocity": 88}, {"time": 2434, "pitch": 57, "duration": 3, "velocity": 97}, {"time": 2434, "pitch": 59, "duration": 3, "velocity": 102}, {"time": 2437, "pitch": 52, "duration": 5, "velocity": 92}, {"time": 2440, "pitch": 57, "duration": 2, "velocity": 90}, {"time": 2443, "pitch": 61, "duration": 2, "velocity": 100}, {"time": 2446, "pitch": 47, "duration": 9, "velocity": 87}, {"time": 2446, "pitch": 59, "duration": 4, "velocity": 89}, {"time": 2446, "pitch": 62, "duration": 6, "velocity": 95}, {"time": 2449, "pitch": 54, "duration": 7, "velocity": 82}, {"time": 2452, "pitch": 59, "duration": 4, "velocity": 93}, {"time": 2455, "pitch": 62, "duration": 2, "velocity": 90}, {"time": 2458, "pitch": 49, "duration": 13, "velocity": 92}, {"time": 2458, "pitch": 64, "duration": 6, "velocity": 91}, {"time": 2461, "pitch": 56, "duration": 10, "velocity": 87}, {"time": 2464, "pitch": 61, "duration": 2, "velocity": 102}, {"time": 2467, "pitch": 61, "duration": 3, "velocity": 90}, {"time": 2467, "pitch": 64, "duration": 3, "velocity": 95}, {"time": 2470, "pitch": 38, "duration": 1, "velocity": 90}, {"time": 2470, "pitch": 62, "duration": 6, "velocity": 87}, {"time": 2470, "pitch": 66, "duration": 5, "velocity": 88}, {"time": 2473, "pitch": 50, "duration": 11, "velocity": 87}, {"time": 2476, "pitch": 57, "duration": 7, "velocity": 87}, {"time": 2479, "pitch": 62, "duration": 2, "velocity": 90}, {"time": 2482, "pitch": 62, "duration": 4, "velocity": 95}, {"time": 2482, "pitch": 66, "duration": 6, "velocity": 97}, {"time": 2482, "pitch": 69, "duration": 7, "velocity": 95}, {"time": 2485, "pitch": 57, "duration": 2, "velocity": 80}, {"time": 2488, "pitch": 62, "duration": 4, "velocity": 86}, {"time": 2491, "pitch": 66, "duration": 2, "velocity": 88}, {"time": 2494, "pitch": 40, "duration": 19, "velocity": 90}, {"time": 2494, "pitch": 64, "duration": 3, "velocity": 89}, {"time": 2494, "pitch": 68, "duration": 4, "velocity": 89}, {"time": 2497, "pitch": 47, "duration": 10, "velocity": 77}, {"time": 2500, "pitch": 64, "duration": 2, "velocity": 88}, {"time": 2503, "pitch": 68, "duration": 1, "velocity": 89}, {"time": 2506, "pitch": 64, "duration": 3, "velocity": 95}, {"time": 2506, "pitch": 68, "duration": 6, "velocity": 103}, {"time": 2506, "pitch": 71, "duration": 7, "velocity": 93}, {"time": 2509, "pitch": 47, "duration": 4, "velocity": 84}, {"time": 2512, "pitch": 64, "duration": 5, "velocity": 97}, {"time": 2515, "pitch": 68, "duration": 4, "velocity": 91}, {"time": 2518, "pitch": 49, "duration": 15, "velocity": 100}, {"time": 2521, "pitch": 56, "duration": 7, "velocity": 81}, {"time": 2524, "pitch": 61, "duration": 2, "velocity": 80}, {"time": 2527, "pitch": 61, "duration": 5, "velocity": 90}, {"time": 2527, "pitch": 68, "duration": 4, "velocity": 90}, {"time": 2530, "pitch": 56, "duration": 4, "velocity": 88}, {"time": 2533, "pitch": 61, "duration": 2, "velocity": 91}, {"time": 2533, "pitch": 64, "duration": 4, "velocity": 95}, {"time": 2533, "pitch": 68, "duration": 4, "velocity": 77}, {"time": 2536, "pitch": 61, "duration": 1, "velocity": 92}, {"time": 2542, "pitch": 42, "duration": 16, "velocity": 93}, {"time": 2542, "pitch": 57, "duration": 4, "velocity": 90}, {"time": 2542, "pitch": 61, "duration": 6, "velocity": 89}, {"time": 2545, "pitch": 49, "duration": 10, "velocity": 76}, {"time": 2548, "pitch": 57, "duration": 4, "velocity": 86}, {"time": 2551, "pitch": 61, "duration": 1, "velocity": 93}, {"time": 2554, "pitch": 57, "duration": 3, "velocity": 93}, {"time": 2554, "pitch": 61, "duration": 4, "velocity": 107}, {"time": 2554, "pitch": 66, "duration": 5, "velocity": 100}, {"time": 2557, "pitch": 49, "duration": 2, "velocity": 87}, {"time": 2560, "pitch": 57, "duration": 3, "velocity": 88}, {"time": 2563, "pitch": 61, "duration": 1, "velocity": 90}, {"time": 2566, "pitch": 47, "duration": 17, "velocity": 92}, {"time": 2566, "pitch": 59, "duration": 4, "velocity": 88}, {"time": 2566, "pitch": 62, "duration": 7, "velocity": 88}, {"time": 2569, "pitch": 54, "duration": 7, "velocity": 76}, {"time": 2572, "pitch": 57, "duration": 2, "velocity": 81}, {"time": 2575, "pitch": 57, "duration": 4, "velocity": 95}, {"time": 2575, "pitch": 62, "duration": 5, "velocity": 93}, {"time": 2578, "pitch": 54, "duration": 4, "velocity": 86}, {"time": 2581, "pitch": 62, "duration": 1, "velocity": 79}, {"time": 2581, "pitch": 66, "duration": 6, "velocity": 92}, {"time": 2584, "pitch": 57, "duration": 4, "velocity": 88}, {"time": 2587, "pitch": 62, "duration": 3, "velocity": 89}, {"time": 2590, "pitch": 40, "duration": 18, "velocity": 93}, {"time": 2590, "pitch": 59, "duration": 4, "velocity": 89}, {"time": 2590, "pitch": 64, "duration": 6, "velocity": 91}, {"time": 2593, "pitch": 47, "duration": 10, "velocity": 78}, {"time": 2596, "pitch": 59, "duration": 4, "velocity": 82}, {"time": 2599, "pitch": 64, "duration": 1, "velocity": 87}, {"time": 2602, "pitch": 59, "duration": 4, "velocity": 90}, {"time": 2602, "pitch": 64, "duration": 6, "velocity": 95}, {"time": 2602, "pitch": 71, "duration": 7, "velocity": 90}, {"time": 2605, "pitch": 47, "duration": 3, "velocity": 86}, {"time": 2608, "pitch": 59, "duration": 6, "velocity": 89}, {"time": 2611, "pitch": 71, "duration": 3, "velocity": 88}, {"time": 2614, "pitch": 45, "duration": 23, "velocity": 87}, {"time": 2614, "pitch": 57, "duration": 6, "velocity": 86}, {"time": 2614, "pitch": 61, "duration": 6, "velocity": 86}, {"time": 2614, "pitch": 69, "duration": 6, "velocity": 82}, {"time": 2620, "pitch": 52, "duration": 7, "velocity": 86}, {"time": 2623, "pitch": 57, "duration": 1, "velocity": 79}, {"time": 2626, "pitch": 57, "duration": 6, "velocity": 93}, {"time": 2626, "pitch": 61, "duration": 8, "velocity": 100}, {"time": 2626, "pitch": 64, "duration": 8, "velocity": 95}, {"time": 2632, "pitch": 52, "duration": 4, "velocity": 75}, {"time": 2635, "pitch": 57, "duration": 1, "velocity": 75}, {"time": 2638, "pitch": 45, "duration": 16, "velocity": 89}, {"time": 2638, "pitch": 57, "duration": 6, "velocity": 88}, {"time": 2638, "pitch": 61, "duration": 7, "velocity": 87}, {"time": 2644, "pitch": 52, "duration": 8, "velocity": 74}, {"time": 2647, "pitch": 57, "duration": 1, "velocity": 66}, {"time": 2650, "pitch": 57, "duration": 9, "velocity": 92}, {"time": 2650, "pitch": 61, "duration": 7, "velocity": 97}, {"time": 2650, "pitch": 64, "duration": 9, "velocity": 95}, {"time": 2656, "pitch": 45, "duration": 3, "velocity": 89}, {"time": 2662, "pitch": 38, "duration": 2, "velocity": 88}, {"time": 2662, "pitch": 62, "duration": 9, "velocity": 86}, {"time": 2662, "pitch": 65, "duration": 10, "velocity": 86}, {"time": 2674, "pitch": 50, "duration": 28, "velocity": 86}, {"time": 2674, "pitch": 62, "duration": 4, "velocity": 88}, {"time": 2674, "pitch": 65, "duration": 4, "velocity": 88}, {"time": 2677, "pitch": 57, "duration": 12, "velocity": 79}, {"time": 2680, "pitch": 62, "duration": 4, "velocity": 89}, {"time": 2683, "pitch": 65, "duration": 2, "velocity": 78}, {"time": 2686, "pitch": 62, "duration": 6, "velocity": 88}, {"time": 2686, "pitch": 65, "duration": 7, "velocity": 88}, {"time": 2686, "pitch": 69, "duration": 7, "velocity": 91}, {"time": 2692, "pitch": 57, "duration": 7, "velocity": 75}, {"time": 2695, "pitch": 62, "duration": 1, "velocity": 78}, {"time": 2698, "pitch": 62, "duration": 4, "velocity": 88}, {"time": 2698, "pitch": 65, "duration": 4, "velocity": 93}, {"time": 2698, "pitch": 69, "duration": 4, "velocity": 88}, {"time": 2698, "pitch": 74, "duration": 4, "velocity": 87}, {"time": 2701, "pitch": 57, "duration": 2, "velocity": 87}, {"time": 2704, "pitch": 62, "duration": 1, "velocity": 88}, {"time": 2710, "pitch": 45, "duration": 22, "velocity": 89}, {"time": 2710, "pitch": 57, "duration": 7, "velocity": 86}, {"time": 2710, "pitch": 61, "duration": 4, "velocity": 84}, {"time": 2713, "pitch": 52, "duration": 10, "velocity": 81}, {"time": 2716, "pitch": 59, "duration": 3, "velocity": 87}, {"time": 2719, "pitch": 61, "duration": 2, "velocity": 92}, {"time": 2722, "pitch": 57, "duration": 3, "velocity": 87}, {"time": 2722, "pitch": 61, "duration": 3, "velocity": 88}, {"time": 2722, "pitch": 64, "duration": 3, "velocity": 92}, {"time": 2725, "pitch": 52, "duration": 7, "velocity": 87}, {"time": 2728, "pitch": 57, "duration": 4, "velocity": 86}, {"time": 2731, "pitch": 64, "duration": 2, "velocity": 86}, {"time": 2734, "pitch": 45, "duration": 16, "velocity": 91}, {"time": 2734, "pitch": 57, "duration": 7, "velocity": 79}, {"time": 2734, "pitch": 61, "duration": 6, "velocity": 73}, {"time": 2734, "pitch": 64, "duration": 8, "velocity": 86}, {"time": 2734, "pitch": 69, "duration": 6, "velocity": 87}, {"time": 2740, "pitch": 52, "duration": 8, "velocity": 84}, {"time": 2743, "pitch": 57, "duration": 2, "velocity": 79}, {"time": 2746, "pitch": 57, "duration": 2, "velocity": 92}, {"time": 2746, "pitch": 61, "duration": 4, "velocity": 95}, {"time": 2746, "pitch": 64, "duration": 6, "velocity": 95}, {"time": 2746, "pitch": 69, "duration": 6, "velocity": 86}, {"time": 2749, "pitch": 57, "duration": 6, "velocity": 83}, {"time": 2752, "pitch": 61, "duration": 3, "velocity": 90}, {"time": 2758, "pitch": 38, "duration": 1, "velocity": 95}, {"time": 2758, "pitch": 57, "duration": 3, "velocity": 85}, {"time": 2758, "pitch": 62, "duration": 4, "velocity": 87}, {"time": 2761, "pitch": 50, "duration": 4, "velocity": 82}, {"time": 2764, "pitch": 57, "duration": 2, "velocity": 82}, {"time": 2767, "pitch": 62, "duration": 4, "velocity": 91}, {"time": 2770, "pitch": 69, "duration": 5, "velocity": 87}, {"time": 2773, "pitch": 62, "duration": 3, "velocity": 79}, {"time": 2780, "pitch": 62, "duration": 34, "velocity": 74}, {"time": 2781, "pitch": 69, "duration": 32, "velocity": 71}, {"time": 2782, "pitch": 38, "duration": 23, "velocity": 92}, {"time": 2782, "pitch": 74, "duration": 26, "velocity": 90}, {"time": 2818, "pitch": 45, "duration": 38, "velocity": 86}, {"time": 2821, "pitch": 52, "duration": 34, "velocity": 78}, {"time": 2823, "pitch": 59, "duration": 5, "velocity": 80}, {"time": 2825, "pitch": 61, "duration": 4, "velocity": 81}, {"time": 2828, "pitch": 64, "duration": 3, "velocity": 78}, {"time": 2830, "pitch": 57, "duration": 4, "velocity": 61}, {"time": 2833, "pitch": 69, "duration": 7, "velocity": 71}, {"time": 2837, "pitch": 57, "duration": 2, "velocity": 66}, {"time": 2848, "pitch": 69, "duration": 1, "velocity": 54}, {"time": 2849, "pitch": 81, "duration": 1, "velocity": 81}], "annotations": [{"time": 167, "annotation": {"number": 64, "value": 127}, "group": "control_change"}, {"time": 167, "annotation": {"number": 64, "value": 0}, "group": "control_change"}, {"time": 191, "annotation": {"number": 64, "value": 0}, "group": "control_change"}, {"time": 214, "annotation": {"number": 64, "value": 127}, "group": "control_change"}, {"time": 214, "annotation": {"number": 64, "value": 0}, "group": "control_change"}, {"time": 237, "annotation": {"number": 64, "value": 0}, "group": "control_change"}, {"time": 239, "annotation": {"number": 64, "value": 127}, "group": "control_change"}, {"time": 260, "annotation": {"number": 64, "value": 0}, "group": "control_change"}, {"time": 264, "annotation": {"number": 64, "value": 127}, "group": "control_change"}, {"time": 283, "annotation": {"number": 64, "value": 0}, "group": "control_change"}, {"time": 285, "annotation": {"number": 64, "value": 127}, "group": "control_change"}, {"time": 297, "annotation": {"number": 64, "value": 0}, "group": "control_change"}, {"time": 298, "annotation": {"number": 64, "value": 127}, "group": "control_change"}, {"time": 308, "annotation": {"number": 64, "value": 0}, "group": "control_change"}, {"time": 311, "annotation": {"number": 64, "value": 127}, "group": "control_change"}, {"time": 333, "annotation": {"number": 64, "value": 0}, "group": "control_change"}, {"time": 335, "annotation": {"number": 64, "value": 127}, "group": "control_change"}, {"time": 357, "annotation": {"number": 64, "value": 0}, "group": "control_change"}, {"time": 359, "annotation": {"number": 64, "value": 127}, "group": "control_change"}, {"time": 380, "annotation": {"number": 64, "value": 0}, "group": "control_change"}, {"time": 382, "annotation": {"number": 64, "value": 127}, "group": "control_change"}, {"time": 404, "annotation": {"number": 64, "value": 0}, "group": "control_change"}, {"time": 406, "annotation": {"number": 64, "value": 127}, "group": "control_change"}, {"time": 429, "annotation": {"number": 64, "value": 0}, "group": "control_change"}, {"time": 432, "annotation": {"number": 64, "value": 127}, "group": "control_change"}, {"time": 454, "annotation": {"number": 64, "value": 0}, "group": "control_change"}, {"time": 458, "annotation": {"number": 64, "value": 127}, "group": "control_change"}, {"time": 475, "annotation": {"number": 64, "value": 0}, "group": "control_change"}, {"time": 479, "annotation": {"number": 64, "value": 127}, "group": "control_change"}, {"time": 488, "annotation": {"number": 64, "value": 0}, "group": "control_change"}, {"time": 490, "annotation": {"number": 64, "value": 127}, "group": "control_change"}, {"time": 501, "annotation": {"number": 64, "value": 0}, "group": "control_change"}, {"time": 506, "annotation": {"number": 64, "value": 127}, "group": "control_change"}, {"time": 525, "annotation": {"number": 64, "value": 0}, "group": "control_change"}, {"time": 530, "annotation": {"number": 64, "value": 127}, "group": "control_change"}, {"time": 548, "annotation": {"number": 64, "value": 0}, "group": "control_change"}, {"time": 557, "annotation": {"number": 64, "value": 127}, "group": "control_change"}, {"time": 595, "annotation": {"number": 64, "value": 0}, "group": "control_change"}, {"time": 620, "annotation": {"number": 64, "value": 0}, "group": "control_change"}, {"time": 622, "annotation": {"number": 64, "value": 127}, "group": "control_change"}, {"time": 645, "annotation": {"number": 64, "value": 0}, "group": "control_change"}, {"time": 646, "annotation": {"number": 64, "value": 127}, "group": "control_change"}, {"time": 669, "annotation": {"number": 64, "value": 0}, "group": "control_change"}, {"time": 670, "annotation": {"number": 64, "value": 127}, "group": "control_change"}, {"time": 670, "annotation": {"number": 64, "value": 0}, "group": "control_change"}, {"time": 693, "annotation": {"number": 64, "value": 0}, "group": "control_change"}, {"time": 696, "annotation": {"number": 64, "value": 127}, "group": "control_change"}, {"time": 717, "annotation": {"number": 64, "value": 0}, "group": "control_change"}, {"time": 718, "annotation": {"number": 64, "value": 127}, "group": "control_change"}, {"time": 739, "annotation": {"number": 64, "value": 0}, "group": "control_change"}, {"time": 742, "annotation": {"number": 64, "value": 127}, "group": "control_change"}, {"time": 764, "annotation": {"number": 64, "value": 0}, "group": "control_change"}, {"time": 766, "annotation": {"number": 64, "value": 127}, "group": "control_change"}, {"time": 788, "annotation": {"number": 64, "value": 0}, "group": "control_change"}, {"time": 812, "annotation": {"number": 64, "value": 0}, "group": "control_change"}, {"time": 814, "annotation": {"number": 64, "value": 127}, "group": "control_change"}, {"time": 835, "annotation": {"number": 64, "value": 0}, "group": "control_change"}, {"time": 837, "annotation": {"number": 64, "value": 127}, "group": "control_change"}, {"time": 861, "annotation": {"number": 64, "value": 0}, "group": "control_change"}, {"time": 864, "annotation": {"number": 64, "value": 127}, "group": "control_change"}, {"time": 885, "annotation": {"number": 64, "value": 0}, "group": "control_change"}, {"time": 886, "annotation": {"number": 64, "value": 127}, "group": "control_change"}, {"time": 907, "annotation": {"number": 64, "value": 0}, "group": "control_change"}, {"time": 910, "annotation": {"number": 64, "value": 127}, "group": "control_change"}, {"time": 921, "annotation": {"number": 64, "value": 0}, "group": "control_change"}, {"time": 923, "annotation": {"number": 64, "value": 127}, "group": "control_change"}, {"time": 932, "annotation": {"number": 64, "value": 0}, "group": "control_change"}, {"time": 934, "annotation": {"number": 64, "value": 127}, "group": "control_change"}, {"time": 957, "annotation": {"number": 64, "value": 0}, "group": "control_change"}, {"time": 959, "annotation": {"number": 64, "value": 127}, "group": "control_change"}, {"time": 968, "annotation": {"number": 64, "value": 0}, "group": "control_change"}, {"time": 970, "annotation": {"number": 64, "value": 127}, "group": "control_change"}, {"time": 980, "annotation": {"number": 64, "value": 0}, "group": "control_change"}, {"time": 1004, "annotation": {"number": 64, "value": 0}, "group": "control_change"}, {"time": 1006, "annotation": {"number": 64, "value": 127}, "group": "control_change"}, {"time": 1027, "annotation": {"number": 64, "value": 0}, "group": "control_change"}, {"time": 1029, "annotation": {"number": 64, "value": 127}, "group": "control_change"}, {"time": 1053, "annotation": {"number": 64, "value": 0}, "group": "control_change"}, {"time": 1056, "annotation": {"number": 64, "value": 127}, "group": "control_change"}, {"time": 1077, "annotation": {"number": 64, "value": 0}, "group": "control_change"}, {"time": 1078, "annotation": {"number": 64, "value": 127}, "group": "control_change"}, {"time": 1099, "annotation": {"number": 64, "value": 0}, "group": "control_change"}, {"time": 1102, "annotation": {"number": 64, "value": 127}, "group": "control_change"}, {"time": 1123, "annotation": {"number": 64, "value": 0}, "group": "control_change"}, {"time": 1126, "annotation": {"number": 64, "value": 127}, "group": "control_change"}, {"time": 1149, "annotation": {"number": 64, "value": 0}, "group": "control_change"}, {"time": 1150, "annotation": {"number": 64, "value": 127}, "group": "control_change"}, {"time": 1173, "annotation": {"number": 64, "value": 0}, "group": "control_change"}, {"time": 1175, "annotation": {"number": 64, "value": 127}, "group": "control_change"}, {"time": 1196, "annotation": {"number": 64, "value": 0}, "group": "control_change"}, {"time": 1197, "annotation": {"number": 64, "value": 127}, "group": "control_change"}, {"time": 1221, "annotation": {"number": 64, "value": 0}, "group": "control_change"}, {"time": 1223, "annotation": {"number": 64, "value": 127}, "group": "control_change"}, {"time": 1245, "annotation": {"number": 64, "value": 0}, "group": "control_change"}, {"time": 1246, "annotation": {"number": 64, "value": 127}, "group": "control_change"}, {"time": 1269, "annotation": {"number": 64, "value": 0}, "group": "control_change"}, {"time": 1274, "annotation": {"number": 64, "value": 127}, "group": "control_change"}, {"time": 1293, "annotation": {"number": 64, "value": 0}, "group": "control_change"}, {"time": 1293, "annotation": {"number": 64, "value": 127}, "group": "control_change"}, {"time": 1314, "annotation": {"number": 64, "value": 0}, "group": "control_change"}, {"time": 1318, "annotation": {"number": 64, "value": 127}, "group": "control_change"}, {"time": 1318, "annotation": {"number": 64, "value": 0}, "group": "control_change"}, {"time": 1341, "annotation": {"number": 64, "value": 0}, "group": "control_change"}, {"time": 1343, "annotation": {"number": 64, "value": 127}, "group": "control_change"}, {"time": 1364, "annotation": {"number": 64, "value": 0}, "group": "control_change"}, {"time": 1368, "annotation": {"number": 64, "value": 127}, "group": "control_change"}, {"time": 1387, "annotation": {"number": 64, "value": 0}, "group": "control_change"}, {"time": 1389, "annotation": {"number": 64, "value": 127}, "group": "control_change"}, {"time": 1401, "annotation": {"number": 64, "value": 0}, "group": "control_change"}, {"time": 1402, "annotation": {"number": 64, "value": 127}, "group": "control_change"}, {"time": 1412, "annotation": {"number": 64, "value": 0}, "group": "control_change"}, {"time": 1415, "annotation": {"number": 64, "value": 127}, "group": "control_change"}, {"time": 1437, "annotation": {"number": 64, "value": 0}, "group": "control_change"}, {"time": 1439, "annotation": {"number": 64, "value": 127}, "group": "control_change"}, {"time": 1461, "annotation": {"number": 64, "value": 0}, "group": "control_change"}, {"time": 1463, "annotation": {"number": 64, "value": 127}, "group": "control_change"}, {"time": 1484, "annotation": {"number": 64, "value": 0}, "group": "control_change"}, {"time": 1486, "annotation": {"number": 64, "value": 127}, "group": "control_change"}, {"time": 1508, "annotation": {"number": 64, "value": 0}, "group": "control_change"}, {"time": 1510, "annotation": {"number": 64, "value": 127}, "group": "control_change"}, {"time": 1533, "annotation": {"number": 64, "value": 0}, "group": "control_change"}, {"time": 1536, "annotation": {"number": 64, "value": 127}, "group": "control_change"}, {"time": 1558, "annotation": {"number": 64, "value": 0}, "group": "control_change"}, {"time": 1562, "annotation": {"number": 64, "value": 127}, "group": "control_change"}, {"time": 1579, "annotation": {"number": 64, "value": 0}, "group": "control_change"}, {"time": 1583, "annotation": {"number": 64, "value": 127}, "group": "control_change"}, {"time": 1592, "annotation": {"number": 64, "value": 0}, "group": "control_change"}, {"time": 1594, "annotation": {"number": 64, "value": 127}, "group": "control_change"}, {"time": 1605, "annotation": {"number": 64, "value": 0}, "group": "control_change"}, {"time": 1610, "annotation": {"number": 64, "value": 127}, "group": "control_change"}, {"time": 1629, "annotation": {"number": 64, "value": 0}, "group": "control_change"}, {"time": 1634, "annotation": {"number": 64, "value": 127}, "group": "control_change"}, {"time": 1652, "annotation": {"number": 64, "value": 0}, "group": "control_change"}, {"time": 1661, "annotation": {"number": 64, "value": 127}, "group": "control_change"}, {"time": 1699, "annotation": {"number": 64, "value": 0}, "group": "control_change"}, {"time": 1724, "annotation": {"number": 64, "value": 0}, "group": "control_change"}, {"time": 1726, "annotation": {"number": 64, "value": 127}, "group": "control_change"}, {"time": 1749, "annotation": {"number": 64, "value": 0}, "group": "control_change"}, {"time": 1750, "annotation": {"number": 64, "value": 127}, "group": "control_change"}, {"time": 1773, "annotation": {"number": 64, "value": 0}, "group": "control_change"}, {"time": 1774, "annotation": {"number": 64, "value": 127}, "group": "control_change"}, {"time": 1774, "annotation": {"number": 64, "value": 0}, "group": "control_change"}, {"time": 1797, "annotation": {"number": 64, "value": 0}, "group": "control_change"}, {"time": 1800, "annotation": {"number": 64, "value": 127}, "group": "control_change"}, {"time": 1821, "annotation": {"number": 64, "value": 0}, "group": "control_change"}, {"time": 1822, "annotation": {"number": 64, "value": 127}, "group": "control_change"}, {"time": 1843, "annotation": {"number": 64, "value": 0}, "group": "control_change"}, {"time": 1846, "annotation": {"number": 64, "value": 127}, "group": "control_change"}, {"time": 1868, "annotation": {"number": 64, "value": 0}, "group": "control_change"}, {"time": 1870, "annotation": {"number": 64, "value": 127}, "group": "control_change"}, {"time": 1892, "annotation": {"number": 64, "value": 0}, "group": "control_change"}, {"time": 1916, "annotation": {"number": 64, "value": 0}, "group": "control_change"}, {"time": 1918, "annotation": {"number": 64, "value": 127}, "group": "control_change"}, {"time": 1939, "annotation": {"number": 64, "value": 0}, "group": "control_change"}, {"time": 1941, "annotation": {"number": 64, "value": 127}, "group": "control_change"}, {"time": 1965, "annotation": {"number": 64, "value": 0}, "group": "control_change"}, {"time": 1968, "annotation": {"number": 64, "value": 127}, "group": "control_change"}, {"time": 1989, "annotation": {"number": 64, "value": 0}, "group": "control_change"}, {"time": 1990, "annotation": {"number": 64, "value": 127}, "group": "control_change"}, {"time": 2011, "annotation": {"number": 64, "value": 0}, "group": "control_change"}, {"time": 2014, "annotation": {"number": 64, "value": 127}, "group": "control_change"}, {"time": 2025, "annotation": {"number": 64, "value": 0}, "group": "control_change"}, {"time": 2027, "annotation": {"number": 64, "value": 127}, "group": "control_change"}, {"time": 2036, "annotation": {"number": 64, "value": 0}, "group": "control_change"}, {"time": 2038, "annotation": {"number": 64, "value": 127}, "group": "control_change"}, {"time": 2061, "annotation": {"number": 64, "value": 0}, "group": "control_change"}, {"time": 2063, "annotation": {"number": 64, "value": 127}, "group": "control_change"}, {"time": 2072, "annotation": {"number": 64, "value": 0}, "group": "control_change"}, {"time": 2074, "annotation": {"number": 64, "value": 127}, "group": "control_change"}, {"time": 2084, "annotation": {"number": 64, "value": 0}, "group": "control_change"}, {"time": 2108, "annotation": {"number": 64, "value": 0}, "group": "control_change"}, {"time": 2110, "annotation": {"number": 64, "value": 127}, "group": "control_change"}, {"time": 2131, "annotation": {"number": 64, "value": 0}, "group": "control_change"}, {"time": 2133, "annotation": {"number": 64, "value": 127}, "group": "control_change"}, {"time": 2157, "annotation": {"number": 64, "value": 0}, "group": "control_change"}, {"time": 2160, "annotation": {"number": 64, "value": 127}, "group": "control_change"}, {"time": 2181, "annotation": {"number": 64, "value": 0}, "group": "control_change"}, {"time": 2182, "annotation": {"number": 64, "value": 127}, "group": "control_change"}, {"time": 2203, "annotation": {"number": 64, "value": 0}, "group": "control_change"}, {"time": 2206, "annotation": {"number": 64, "value": 127}, "group": "control_change"}, {"time": 2227, "annotation": {"number": 64, "value": 0}, "group": "control_change"}, {"time": 2231, "annotation": {"number": 64, "value": 127}, "group": "control_change"}, {"time": 2253, "annotation": {"number": 64, "value": 0}, "group": "control_change"}, {"time": 2255, "annotation": {"number": 64, "value": 127}, "group": "control_change"}, {"time": 2265, "annotation": {"number": 64, "value": 0}, "group": "control_change"}, {"time": 2266, "annotation": {"number": 64, "value": 127}, "group": "control_change"}, {"time": 2277, "annotation": {"number": 64, "value": 0}, "group": "control_change"}, {"time": 2300, "annotation": {"number": 64, "value": 0}, "group": "control_change"}, {"time": 2302, "annotation": {"number": 64, "value": 127}, "group": "control_change"}, {"time": 2323, "annotation": {"number": 64, "value": 0}, "group": "control_change"}, {"time": 2325, "annotation": {"number": 64, "value": 127}, "group": "control_change"}, {"time": 2349, "annotation": {"number": 64, "value": 0}, "group": "control_change"}, {"time": 2352, "annotation": {"number": 64, "value": 127}, "group": "control_change"}, {"time": 2373, "annotation": {"number": 64, "value": 0}, "group": "control_change"}, {"time": 2374, "annotation": {"number": 64, "value": 127}, "group": "control_change"}, {"time": 2395, "annotation": {"number": 64, "value": 0}, "group": "control_change"}, {"time": 2398, "annotation": {"number": 64, "value": 127}, "group": "control_change"}, {"time": 2419, "annotation": {"number": 64, "value": 0}, "group": "control_change"}, {"time": 2423, "annotation": {"number": 64, "value": 127}, "group": "control_change"}, {"time": 2445, "annotation": {"number": 64, "value": 0}, "group": "control_change"}, {"time": 2446, "annotation": {"number": 64, "value": 127}, "group": "control_change"}, {"time": 2457, "annotation": {"number": 64, "value": 0}, "group": "control_change"}, {"time": 2459, "annotation": {"number": 64, "value": 127}, "group": "control_change"}, {"time": 2469, "annotation": {"number": 64, "value": 0}, "group": "control_change"}, {"time": 2492, "annotation": {"number": 64, "value": 0}, "group": "control_change"}, {"time": 2494, "annotation": {"number": 64, "value": 127}, "group": "control_change"}, {"time": 2515, "annotation": {"number": 64, "value": 0}, "group": "control_change"}, {"time": 2517, "annotation": {"number": 64, "value": 127}, "group": "control_change"}, {"time": 2541, "annotation": {"number": 64, "value": 0}, "group": "control_change"}, {"time": 2544, "annotation": {"number": 64, "value": 127}, "group": "control_change"}, {"time": 2565, "annotation": {"number": 64, "value": 0}, "group": "control_change"}, {"time": 2566, "annotation": {"number": 64, "value": 127}, "group": "control_change"}, {"time": 2587, "annotation": {"number": 64, "value": 0}, "group": "control_change"}, {"time": 2590, "annotation": {"number": 64, "value": 127}, "group": "control_change"}, {"time": 2611, "annotation": {"number": 64, "value": 0}, "group": "control_change"}, {"time": 2613, "annotation": {"number": 64, "value": 127}, "group": "control_change"}, {"time": 2660, "annotation": {"number": 64, "value": 0}, "group": "control_change"}, {"time": 2662, "annotation": {"number": 64, "value": 127}, "group": "control_change"}, {"time": 2709, "annotation": {"number": 64, "value": 0}, "group": "control_change"}, {"time": 2714, "annotation": {"number": 64, "value": 127}, "group": "control_change"}, {"time": 2733, "annotation": {"number": 64, "value": 0}, "group": "control_change"}, {"time": 2734, "annotation": {"number": 64, "value": 127}, "group": "control_change"}, {"time": 2756, "annotation": {"number": 64, "value": 0}, "group": "control_change"}, {"time": 2758, "annotation": {"number": 64, "value": 127}, "group": "control_change"}, {"time": 2780, "annotation": {"number": 64, "value": 0}, "group": "control_change"}, {"time": 2782, "annotation": {"number": 64, "value": 127}, "group": "control_change"}, {"time": 2821, "annotation": {"number": 64, "value": 0}, "group": "control_change"}, {"time": 2822, "annotation": {"number": 64, "value": 127}, "group": "control_change"}, {"time": 2878, "annotation": {"number": 64, "value": 0}, "group": "control_change"}]}]}