{"metadata": {"schema_version": "0.2", "title": "None", "source_filename": "500.mid", "source_format": "midi"}, "resolution": 12, "tempos": [{"time": 0, "qpm": 75.0}, {"time": 420, "qpm": 76.00006586672374}, {"time": 444, "qpm": 75.0}, {"time": 623, "qpm": 75.49999874166669}, {"time": 756, "qpm": 75.0}, {"time": 828, "qpm": 75.25001818542106}, {"time": 1068, "qpm": 75.0}, {"time": 1548, "qpm": 75.49999874166669}, {"time": 1680, "qpm": 75.0}, {"time": 2004, "qpm": 75.20003208534702}, {"time": 2508, "qpm": 75.0}], "time_signatures": [{"time": 0, "numerator": 1, "denominator": 4}], "tracks": [{"program": 0, "is_drum": false, "name": "MELODY", "notes": [{"time": 430, "pitch": 76, "duration": 6, "velocity": 90}, {"time": 436, "pitch": 75, "duration": 6, "velocity": 90}, {"time": 442, "pitch": 73, "duration": 16, "velocity": 94}, {"time": 460, "pitch": 71, "duration": 5, "velocity": 85}, {"time": 466, "pitch": 68, "duration": 10, "velocity": 85}, {"time": 478, "pitch": 66, "duration": 5, "velocity": 84}, {"time": 484, "pitch": 68, "duration": 7, "velocity": 84}, {"time": 496, "pitch": 71, "duration": 6, "velocity": 81}, {"time": 502, "pitch": 68, "duration": 6, "velocity": 84}, {"time": 508, "pitch": 71, "duration": 6, "velocity": 87}, {"time": 514, "pitch": 73, "duration": 15, "velocity": 97}, {"time": 532, "pitch": 71, "duration": 2, "velocity": 84}, {"time": 535, "pitch": 73, "duration": 2, "velocity": 90}, {"time": 538, "pitch": 64, "duration": 16, "velocity": 84}, {"time": 556, "pitch": 66, "duration": 4, "velocity": 83}, {"time": 562, "pitch": 68, "duration": 5, "velocity": 88}, {"time": 568, "pitch": 71, "duration": 6, "velocity": 83}, {"time": 574, "pitch": 66, "duration": 6, "velocity": 78}, {"time": 580, "pitch": 68, "duration": 6, "velocity": 84}, {"time": 586, "pitch": 71, "duration": 32, "velocity": 84}, {"time": 622, "pitch": 68, "duration": 6, "velocity": 87}, {"time": 628, "pitch": 71, "duration": 6, "velocity": 84}, {"time": 634, "pitch": 73, "duration": 18, "velocity": 85}, {"time": 652, "pitch": 71, "duration": 6, "velocity": 84}, {"time": 658, "pitch": 73, "duration": 14, "velocity": 92}, {"time": 676, "pitch": 76, "duration": 5, "velocity": 85}, {"time": 682, "pitch": 78, "duration": 11, "velocity": 84}, {"time": 694, "pitch": 78, "duration": 4, "velocity": 87}, {"time": 700, "pitch": 75, "duration": 5, "velocity": 87}, {"time": 706, "pitch": 73, "duration": 10, "velocity": 84}, {"time": 718, "pitch": 73, "duration": 4, "velocity": 88}, {"time": 724, "pitch": 71, "duration": 4, "velocity": 87}, {"time": 730, "pitch": 68, "duration": 19, "velocity": 84}, {"time": 748, "pitch": 71, "duration": 5, "velocity": 84}, {"time": 754, "pitch": 66, "duration": 5, "velocity": 79}, {"time": 760, "pitch": 61, "duration": 5, "velocity": 83}, {"time": 766, "pitch": 64, "duration": 6, "velocity": 86}, {"time": 772, "pitch": 66, "duration": 5, "velocity": 84}, {"time": 778, "pitch": 68, "duration": 34, "velocity": 83}, {"time": 826, "pitch": 66, "duration": 15, "velocity": 85}, {"time": 844, "pitch": 68, "duration": 5, "velocity": 87}, {"time": 850, "pitch": 71, "duration": 12, "velocity": 84}, {"time": 862, "pitch": 68, "duration": 6, "velocity": 87}, {"time": 868, "pitch": 71, "duration": 8, "velocity": 89}, {"time": 880, "pitch": 71, "duration": 5, "velocity": 89}, {"time": 886, "pitch": 73, "duration": 5, "velocity": 92}, {"time": 892, "pitch": 68, "duration": 6, "velocity": 84}, {"time": 898, "pitch": 66, "duration": 12, "velocity": 83}, {"time": 910, "pitch": 68, "duration": 5, "velocity": 90}, {"time": 916, "pitch": 71, "duration": 5, "velocity": 87}, {"time": 922, "pitch": 73, "duration": 15, "velocity": 94}, {"time": 940, "pitch": 75, "duration": 4, "velocity": 87}, {"time": 946, "pitch": 73, "duration": 6, "velocity": 90}, {"time": 952, "pitch": 71, "duration": 6, "velocity": 83}, {"time": 958, "pitch": 73, "duration": 12, "velocity": 88}, {"time": 976, "pitch": 76, "duration": 4, "velocity": 84}, {"time": 982, "pitch": 78, "duration": 4, "velocity": 84}, {"time": 988, "pitch": 75, "duration": 4, "velocity": 83}, {"time": 994, "pitch": 73, "duration": 10, "velocity": 89}, {"time": 1006, "pitch": 71, "duration": 4, "velocity": 85}, {"time": 1012, "pitch": 73, "duration": 5, "velocity": 90}, {"time": 1018, "pitch": 76, "duration": 17, "velocity": 83}, {"time": 1036, "pitch": 73, "duration": 5, "velocity": 88}, {"time": 1042, "pitch": 76, "duration": 12, "velocity": 82}, {"time": 1054, "pitch": 80, "duration": 12, "velocity": 84}, {"time": 1066, "pitch": 78, "duration": 29, "velocity": 83}, {"time": 1096, "pitch": 76, "duration": 5, "velocity": 82}, {"time": 1102, "pitch": 73, "duration": 3, "velocity": 83}, {"time": 1108, "pitch": 71, "duration": 5, "velocity": 83}, {"time": 1114, "pitch": 66, "duration": 6, "velocity": 84}, {"time": 1120, "pitch": 68, "duration": 11, "velocity": 84}, {"time": 1132, "pitch": 71, "duration": 5, "velocity": 85}, {"time": 1138, "pitch": 73, "duration": 10, "velocity": 90}, {"time": 1150, "pitch": 76, "duration": 4, "velocity": 85}, {"time": 1156, "pitch": 73, "duration": 5, "velocity": 92}, {"time": 1162, "pitch": 71, "duration": 31, "velocity": 87}, {"time": 1198, "pitch": 76, "duration": 5, "velocity": 87}, {"time": 1204, "pitch": 75, "duration": 6, "velocity": 94}, {"time": 1210, "pitch": 73, "duration": 18, "velocity": 90}, {"time": 1228, "pitch": 71, "duration": 6, "velocity": 89}, {"time": 1234, "pitch": 68, "duration": 6, "velocity": 82}, {"time": 1240, "pitch": 66, "duration": 6, "velocity": 84}, {"time": 1246, "pitch": 68, "duration": 13, "velocity": 84}, {"time": 1264, "pitch": 71, "duration": 5, "velocity": 87}, {"time": 1270, "pitch": 68, "duration": 6, "velocity": 84}, {"time": 1276, "pitch": 71, "duration": 6, "velocity": 83}, {"time": 1282, "pitch": 73, "duration": 15, "velocity": 86}, {"time": 1300, "pitch": 73, "duration": 5, "velocity": 92}, {"time": 1306, "pitch": 64, "duration": 16, "velocity": 87}, {"time": 1330, "pitch": 68, "duration": 5, "velocity": 85}, {"time": 1336, "pitch": 71, "duration": 5, "velocity": 86}, {"time": 1342, "pitch": 66, "duration": 6, "velocity": 85}, {"time": 1348, "pitch": 68, "duration": 6, "velocity": 84}, {"time": 1354, "pitch": 71, "duration": 32, "velocity": 84}, {"time": 1390, "pitch": 68, "duration": 6, "velocity": 89}, {"time": 1396, "pitch": 71, "duration": 6, "velocity": 92}, {"time": 1402, "pitch": 73, "duration": 17, "velocity": 90}, {"time": 1420, "pitch": 71, "duration": 6, "velocity": 85}, {"time": 1426, "pitch": 73, "duration": 18, "velocity": 97}, {"time": 1444, "pitch": 76, "duration": 5, "velocity": 88}, {"time": 1450, "pitch": 78, "duration": 10, "velocity": 84}, {"time": 1462, "pitch": 78, "duration": 4, "velocity": 85}, {"time": 1468, "pitch": 75, "duration": 6, "velocity": 87}, {"time": 1474, "pitch": 73, "duration": 11, "velocity": 89}, {"time": 1486, "pitch": 73, "duration": 5, "velocity": 87}, {"time": 1492, "pitch": 71, "duration": 6, "velocity": 78}, {"time": 1498, "pitch": 68, "duration": 18, "velocity": 85}, {"time": 1516, "pitch": 71, "duration": 5, "velocity": 84}, {"time": 1522, "pitch": 66, "duration": 5, "velocity": 83}, {"time": 1528, "pitch": 61, "duration": 7, "velocity": 84}, {"time": 1534, "pitch": 64, "duration": 6, "velocity": 84}, {"time": 1540, "pitch": 66, "duration": 5, "velocity": 83}, {"time": 1546, "pitch": 68, "duration": 36, "velocity": 80}, {"time": 1594, "pitch": 66, "duration": 16, "velocity": 86}, {"time": 1612, "pitch": 68, "duration": 6, "velocity": 88}, {"time": 1618, "pitch": 71, "duration": 12, "velocity": 85}, {"time": 1630, "pitch": 68, "duration": 6, "velocity": 79}, {"time": 1636, "pitch": 71, "duration": 8, "velocity": 85}, {"time": 1648, "pitch": 71, "duration": 5, "velocity": 83}, {"time": 1654, "pitch": 73, "duration": 6, "velocity": 90}, {"time": 1660, "pitch": 68, "duration": 5, "velocity": 84}, {"time": 1666, "pitch": 66, "duration": 9, "velocity": 83}, {"time": 1678, "pitch": 68, "duration": 4, "velocity": 84}, {"time": 1684, "pitch": 71, "duration": 4, "velocity": 90}, {"time": 1690, "pitch": 73, "duration": 15, "velocity": 87}, {"time": 1708, "pitch": 75, "duration": 5, "velocity": 87}, {"time": 1714, "pitch": 73, "duration": 6, "velocity": 92}, {"time": 1720, "pitch": 71, "duration": 6, "velocity": 85}, {"time": 1726, "pitch": 73, "duration": 14, "velocity": 90}, {"time": 1744, "pitch": 76, "duration": 4, "velocity": 85}, {"time": 1750, "pitch": 78, "duration": 4, "velocity": 87}, {"time": 1756, "pitch": 75, "duration": 4, "velocity": 85}, {"time": 1762, "pitch": 73, "duration": 9, "velocity": 94}, {"time": 1774, "pitch": 71, "duration": 4, "velocity": 85}, {"time": 1780, "pitch": 73, "duration": 5, "velocity": 88}, {"time": 1786, "pitch": 76, "duration": 15, "velocity": 86}, {"time": 1804, "pitch": 73, "duration": 4, "velocity": 89}, {"time": 1810, "pitch": 76, "duration": 12, "velocity": 85}, {"time": 1822, "pitch": 80, "duration": 9, "velocity": 87}, {"time": 1834, "pitch": 78, "duration": 29, "velocity": 84}, {"time": 1864, "pitch": 76, "duration": 5, "velocity": 82}, {"time": 1870, "pitch": 73, "duration": 3, "velocity": 83}, {"time": 1876, "pitch": 71, "duration": 5, "velocity": 83}, {"time": 1882, "pitch": 66, "duration": 6, "velocity": 84}, {"time": 1888, "pitch": 68, "duration": 11, "velocity": 84}, {"time": 1900, "pitch": 71, "duration": 5, "velocity": 85}, {"time": 1906, "pitch": 73, "duration": 10, "velocity": 90}, {"time": 1918, "pitch": 76, "duration": 4, "velocity": 85}, {"time": 1924, "pitch": 73, "duration": 5, "velocity": 92}, {"time": 1930, "pitch": 71, "duration": 31, "velocity": 87}, {"time": 2362, "pitch": 66, "duration": 16, "velocity": 86}, {"time": 2380, "pitch": 68, "duration": 6, "velocity": 88}, {"time": 2386, "pitch": 71, "duration": 12, "velocity": 85}, {"time": 2398, "pitch": 68, "duration": 6, "velocity": 79}, {"time": 2404, "pitch": 71, "duration": 8, "velocity": 85}, {"time": 2416, "pitch": 71, "duration": 5, "velocity": 83}, {"time": 2422, "pitch": 73, "duration": 6, "velocity": 90}, {"time": 2428, "pitch": 68, "duration": 5, "velocity": 84}, {"time": 2434, "pitch": 66, "duration": 9, "velocity": 83}, {"time": 2446, "pitch": 68, "duration": 4, "velocity": 84}, {"time": 2452, "pitch": 71, "duration": 4, "velocity": 90}, {"time": 2458, "pitch": 73, "duration": 15, "velocity": 87}, {"time": 2476, "pitch": 75, "duration": 5, "velocity": 87}, {"time": 2482, "pitch": 73, "duration": 6, "velocity": 92}, {"time": 2488, "pitch": 71, "duration": 6, "velocity": 85}, {"time": 2494, "pitch": 73, "duration": 14, "velocity": 90}, {"time": 2512, "pitch": 76, "duration": 4, "velocity": 85}, {"time": 2518, "pitch": 78, "duration": 4, "velocity": 87}, {"time": 2524, "pitch": 75, "duration": 4, "velocity": 85}, {"time": 2530, "pitch": 73, "duration": 9, "velocity": 94}, {"time": 2542, "pitch": 71, "duration": 4, "velocity": 85}, {"time": 2548, "pitch": 73, "duration": 5, "velocity": 88}, {"time": 2554, "pitch": 76, "duration": 15, "velocity": 86}, {"time": 2572, "pitch": 73, "duration": 4, "velocity": 89}, {"time": 2578, "pitch": 76, "duration": 12, "velocity": 85}, {"time": 2590, "pitch": 80, "duration": 9, "velocity": 87}, {"time": 2602, "pitch": 78, "duration": 29, "velocity": 84}, {"time": 2632, "pitch": 76, "duration": 5, "velocity": 82}, {"time": 2638, "pitch": 73, "duration": 3, "velocity": 83}, {"time": 2644, "pitch": 71, "duration": 5, "velocity": 83}, {"time": 2650, "pitch": 66, "duration": 6, "velocity": 84}, {"time": 2656, "pitch": 68, "duration": 11, "velocity": 84}, {"time": 2668, "pitch": 71, "duration": 5, "velocity": 85}, {"time": 2674, "pitch": 73, "duration": 10, "velocity": 90}, {"time": 2686, "pitch": 76, "duration": 4, "velocity": 85}, {"time": 2692, "pitch": 73, "duration": 5, "velocity": 92}, {"time": 2698, "pitch": 71, "duration": 31, "velocity": 87}]}, {"program": 0, "is_drum": false, "name": "PIANO", "notes": [{"time": 10, "pitch": 49, "duration": 48, "velocity": 85}, {"time": 16, "pitch": 56, "duration": 8, "velocity": 69}, {"time": 22, "pitch": 61, "duration": 9, "velocity": 75}, {"time": 22, "pitch": 64, "duration": 10, "velocity": 76}, {"time": 28, "pitch": 56, "duration": 8, "velocity": 68}, {"time": 34, "pitch": 61, "duration": 9, "velocity": 79}, {"time": 34, "pitch": 66, "duration": 11, "velocity": 78}, {"time": 40, "pitch": 56, "duration": 7, "velocity": 69}, {"time": 46, "pitch": 61, "duration": 12, "velocity": 80}, {"time": 46, "pitch": 64, "duration": 12, "velocity": 79}, {"time": 52, "pitch": 56, "duration": 6, "velocity": 72}, {"time": 58, "pitch": 47, "duration": 47, "velocity": 85}, {"time": 64, "pitch": 56, "duration": 7, "velocity": 67}, {"time": 70, "pitch": 59, "duration": 10, "velocity": 80}, {"time": 70, "pitch": 64, "duration": 10, "velocity": 80}, {"time": 76, "pitch": 56, "duration": 8, "velocity": 72}, {"time": 82, "pitch": 59, "duration": 10, "velocity": 83}, {"time": 82, "pitch": 66, "duration": 11, "velocity": 77}, {"time": 88, "pitch": 56, "duration": 7, "velocity": 73}, {"time": 94, "pitch": 59, "duration": 11, "velocity": 83}, {"time": 94, "pitch": 64, "duration": 11, "velocity": 84}, {"time": 100, "pitch": 56, "duration": 6, "velocity": 77}, {"time": 106, "pitch": 45, "duration": 47, "velocity": 89}, {"time": 112, "pitch": 56, "duration": 8, "velocity": 77}, {"time": 118, "pitch": 59, "duration": 8, "velocity": 87}, {"time": 118, "pitch": 64, "duration": 8, "velocity": 89}, {"time": 124, "pitch": 56, "duration": 8, "velocity": 74}, {"time": 130, "pitch": 59, "duration": 9, "velocity": 83}, {"time": 130, "pitch": 66, "duration": 11, "velocity": 78}, {"time": 136, "pitch": 56, "duration": 7, "velocity": 69}, {"time": 142, "pitch": 59, "duration": 11, "velocity": 83}, {"time": 142, "pitch": 64, "duration": 10, "velocity": 82}, {"time": 148, "pitch": 56, "duration": 6, "velocity": 74}, {"time": 154, "pitch": 44, "duration": 46, "velocity": 87}, {"time": 160, "pitch": 54, "duration": 5, "velocity": 84}, {"time": 166, "pitch": 51, "duration": 5, "velocity": 76}, {"time": 166, "pitch": 54, "duration": 21, "velocity": 85}, {"time": 166, "pitch": 60, "duration": 10, "velocity": 81}, {"time": 172, "pitch": 51, "duration": 8, "velocity": 83}, {"time": 178, "pitch": 60, "duration": 9, "velocity": 84}, {"time": 178, "pitch": 63, "duration": 19, "velocity": 86}, {"time": 184, "pitch": 51, "duration": 7, "velocity": 72}, {"time": 190, "pitch": 54, "duration": 10, "velocity": 81}, {"time": 190, "pitch": 60, "duration": 10, "velocity": 78}, {"time": 196, "pitch": 51, "duration": 5, "velocity": 77}, {"time": 202, "pitch": 49, "duration": 48, "velocity": 85}, {"time": 208, "pitch": 56, "duration": 8, "velocity": 69}, {"time": 214, "pitch": 61, "duration": 9, "velocity": 75}, {"time": 214, "pitch": 64, "duration": 10, "velocity": 76}, {"time": 220, "pitch": 56, "duration": 8, "velocity": 68}, {"time": 226, "pitch": 61, "duration": 9, "velocity": 79}, {"time": 226, "pitch": 66, "duration": 11, "velocity": 78}, {"time": 232, "pitch": 56, "duration": 7, "velocity": 69}, {"time": 238, "pitch": 61, "duration": 12, "velocity": 80}, {"time": 238, "pitch": 64, "duration": 12, "velocity": 79}, {"time": 244, "pitch": 56, "duration": 6, "velocity": 72}, {"time": 250, "pitch": 47, "duration": 47, "velocity": 85}, {"time": 256, "pitch": 56, "duration": 7, "velocity": 67}, {"time": 262, "pitch": 59, "duration": 10, "velocity": 80}, {"time": 262, "pitch": 64, "duration": 10, "velocity": 80}, {"time": 268, "pitch": 56, "duration": 8, "velocity": 72}, {"time": 274, "pitch": 59, "duration": 10, "velocity": 83}, {"time": 274, "pitch": 66, "duration": 11, "velocity": 77}, {"time": 280, "pitch": 56, "duration": 7, "velocity": 73}, {"time": 286, "pitch": 59, "duration": 11, "velocity": 83}, {"time": 286, "pitch": 64, "duration": 11, "velocity": 84}, {"time": 292, "pitch": 56, "duration": 6, "velocity": 77}, {"time": 298, "pitch": 45, "duration": 47, "velocity": 89}, {"time": 304, "pitch": 56, "duration": 8, "velocity": 77}, {"time": 310, "pitch": 59, "duration": 8, "velocity": 87}, {"time": 310, "pitch": 64, "duration": 8, "velocity": 89}, {"time": 316, "pitch": 56, "duration": 8, "velocity": 74}, {"time": 322, "pitch": 59, "duration": 9, "velocity": 83}, {"time": 322, "pitch": 66, "duration": 11, "velocity": 78}, {"time": 328, "pitch": 56, "duration": 7, "velocity": 69}, {"time": 334, "pitch": 59, "duration": 11, "velocity": 83}, {"time": 334, "pitch": 64, "duration": 10, "velocity": 82}, {"time": 340, "pitch": 56, "duration": 6, "velocity": 74}, {"time": 345, "pitch": 60, "duration": 9, "velocity": 75}, {"time": 345, "pitch": 54, "duration": 8, "velocity": 83}, {"time": 346, "pitch": 44, "duration": 23, "velocity": 86}, {"time": 352, "pitch": 51, "duration": 17, "velocity": 84}, {"time": 358, "pitch": 54, "duration": 9, "velocity": 97}, {"time": 366, "pitch": 60, "duration": 9, "velocity": 89}, {"time": 372, "pitch": 44, "duration": 51, "velocity": 83}, {"time": 375, "pitch": 51, "duration": 47, "velocity": 78}, {"time": 376, "pitch": 56, "duration": 65, "velocity": 71}, {"time": 377, "pitch": 60, "duration": 64, "velocity": 83}, {"time": 379, "pitch": 63, "duration": 63, "velocity": 81}, {"time": 380, "pitch": 68, "duration": 48, "velocity": 72}, {"time": 442, "pitch": 49, "duration": 21, "velocity": 87}, {"time": 447, "pitch": 56, "duration": 20, "velocity": 72}, {"time": 452, "pitch": 61, "duration": 15, "velocity": 68}, {"time": 453, "pitch": 64, "duration": 19, "velocity": 74}, {"time": 454, "pitch": 68, "duration": 18, "velocity": 75}, {"time": 465, "pitch": 47, "duration": 16, "velocity": 82}, {"time": 471, "pitch": 56, "duration": 10, "velocity": 72}, {"time": 476, "pitch": 59, "duration": 7, "velocity": 72}, {"time": 478, "pitch": 68, "duration": 9, "velocity": 82}, {"time": 489, "pitch": 45, "duration": 24, "velocity": 83}, {"time": 496, "pitch": 52, "duration": 21, "velocity": 71}, {"time": 500, "pitch": 57, "duration": 16, "velocity": 69}, {"time": 501, "pitch": 61, "duration": 15, "velocity": 80}, {"time": 502, "pitch": 68, "duration": 15, "velocity": 78}, {"time": 514, "pitch": 44, "duration": 18, "velocity": 81}, {"time": 520, "pitch": 51, "duration": 12, "velocity": 79}, {"time": 526, "pitch": 63, "duration": 11, "velocity": 85}, {"time": 526, "pitch": 59, "duration": 9, "velocity": 76}, {"time": 526, "pitch": 56, "duration": 11, "velocity": 77}, {"time": 537, "pitch": 42, "duration": 21, "velocity": 84}, {"time": 543, "pitch": 49, "duration": 13, "velocity": 77}, {"time": 547, "pitch": 54, "duration": 17, "velocity": 76}, {"time": 548, "pitch": 57, "duration": 12, "velocity": 72}, {"time": 549, "pitch": 61, "duration": 17, "velocity": 75}, {"time": 550, "pitch": 66, "duration": 11, "velocity": 74}, {"time": 561, "pitch": 47, "duration": 16, "velocity": 87}, {"time": 567, "pitch": 51, "duration": 9, "velocity": 80}, {"time": 571, "pitch": 54, "duration": 3, "velocity": 73}, {"time": 572, "pitch": 59, "duration": 2, "velocity": 74}, {"time": 573, "pitch": 63, "duration": 2, "velocity": 84}, {"time": 585, "pitch": 40, "duration": 26, "velocity": 85}, {"time": 591, "pitch": 47, "duration": 20, "velocity": 79}, {"time": 597, "pitch": 59, "duration": 9, "velocity": 82}, {"time": 603, "pitch": 56, "duration": 8, "velocity": 75}, {"time": 609, "pitch": 64, "duration": 15, "velocity": 82}, {"time": 609, "pitch": 59, "duration": 14, "velocity": 82}, {"time": 634, "pitch": 45, "duration": 40, "velocity": 97}, {"time": 640, "pitch": 52, "duration": 40, "velocity": 84}, {"time": 646, "pitch": 61, "duration": 10, "velocity": 82}, {"time": 652, "pitch": 57, "duration": 5, "velocity": 72}, {"time": 658, "pitch": 57, "duration": 11, "velocity": 75}, {"time": 658, "pitch": 61, "duration": 10, "velocity": 81}, {"time": 658, "pitch": 64, "duration": 8, "velocity": 80}, {"time": 670, "pitch": 57, "duration": 3, "velocity": 78}, {"time": 670, "pitch": 61, "duration": 4, "velocity": 81}, {"time": 682, "pitch": 46, "duration": 42, "velocity": 86}, {"time": 682, "pitch": 58, "duration": 8, "velocity": 79}, {"time": 682, "pitch": 61, "duration": 12, "velocity": 84}, {"time": 688, "pitch": 52, "duration": 21, "velocity": 75}, {"time": 694, "pitch": 58, "duration": 14, "velocity": 84}, {"time": 706, "pitch": 64, "duration": 18, "velocity": 84}, {"time": 712, "pitch": 52, "duration": 12, "velocity": 70}, {"time": 718, "pitch": 61, "duration": 5, "velocity": 84}, {"time": 730, "pitch": 40, "duration": 21, "velocity": 84}, {"time": 730, "pitch": 59, "duration": 12, "velocity": 82}, {"time": 736, "pitch": 47, "duration": 15, "velocity": 77}, {"time": 742, "pitch": 52, "duration": 8, "velocity": 89}, {"time": 748, "pitch": 59, "duration": 4, "velocity": 84}, {"time": 754, "pitch": 47, "duration": 18, "velocity": 87}, {"time": 754, "pitch": 59, "duration": 10, "velocity": 84}, {"time": 760, "pitch": 51, "duration": 12, "velocity": 75}, {"time": 766, "pitch": 54, "duration": 6, "velocity": 86}, {"time": 772, "pitch": 59, "duration": 5, "velocity": 83}, {"time": 778, "pitch": 40, "duration": 40, "velocity": 83}, {"time": 778, "pitch": 59, "duration": 12, "velocity": 83}, {"time": 784, "pitch": 47, "duration": 19, "velocity": 84}, {"time": 790, "pitch": 63, "duration": 7, "velocity": 88}, {"time": 796, "pitch": 59, "duration": 6, "velocity": 84}, {"time": 802, "pitch": 56, "duration": 7, "velocity": 75}, {"time": 808, "pitch": 47, "duration": 8, "velocity": 68}, {"time": 814, "pitch": 52, "duration": 10, "velocity": 81}, {"time": 814, "pitch": 56, "duration": 10, "velocity": 84}, {"time": 814, "pitch": 59, "duration": 11, "velocity": 83}, {"time": 826, "pitch": 42, "duration": 18, "velocity": 85}, {"time": 826, "pitch": 54, "duration": 8, "velocity": 79}, {"time": 826, "pitch": 61, "duration": 7, "velocity": 82}, {"time": 832, "pitch": 49, "duration": 9, "velocity": 77}, {"time": 838, "pitch": 57, "duration": 6, "velocity": 90}, {"time": 844, "pitch": 54, "duration": 2, "velocity": 92}, {"time": 850, "pitch": 44, "duration": 18, "velocity": 84}, {"time": 850, "pitch": 54, "duration": 10, "velocity": 83}, {"time": 850, "pitch": 59, "duration": 9, "velocity": 83}, {"time": 856, "pitch": 51, "duration": 11, "velocity": 73}, {"time": 862, "pitch": 59, "duration": 5, "velocity": 88}, {"time": 862, "pitch": 63, "duration": 6, "velocity": 89}, {"time": 874, "pitch": 42, "duration": 22, "velocity": 85}, {"time": 874, "pitch": 57, "duration": 9, "velocity": 79}, {"time": 874, "pitch": 61, "duration": 10, "velocity": 82}, {"time": 880, "pitch": 49, "duration": 15, "velocity": 70}, {"time": 886, "pitch": 54, "duration": 7, "velocity": 84}, {"time": 892, "pitch": 57, "duration": 2, "velocity": 83}, {"time": 898, "pitch": 47, "duration": 14, "velocity": 84}, {"time": 898, "pitch": 54, "duration": 8, "velocity": 82}, {"time": 898, "pitch": 59, "duration": 8, "velocity": 84}, {"time": 904, "pitch": 51, "duration": 8, "velocity": 77}, {"time": 910, "pitch": 54, "duration": 4, "velocity": 83}, {"time": 910, "pitch": 59, "duration": 5, "velocity": 85}, {"time": 910, "pitch": 63, "duration": 6, "velocity": 85}, {"time": 922, "pitch": 37, "duration": 14, "velocity": 88}, {"time": 922, "pitch": 56, "duration": 13, "velocity": 78}, {"time": 922, "pitch": 61, "duration": 8, "velocity": 83}, {"time": 928, "pitch": 44, "duration": 7, "velocity": 70}, {"time": 934, "pitch": 61, "duration": 7, "velocity": 86}, {"time": 934, "pitch": 64, "duration": 6, "velocity": 84}, {"time": 940, "pitch": 56, "duration": 2, "velocity": 83}, {"time": 946, "pitch": 47, "duration": 13, "velocity": 94}, {"time": 946, "pitch": 54, "duration": 3, "velocity": 82}, {"time": 946, "pitch": 59, "duration": 7, "velocity": 81}, {"time": 952, "pitch": 54, "duration": 7, "velocity": 81}, {"time": 958, "pitch": 59, "duration": 5, "velocity": 86}, {"time": 958, "pitch": 63, "duration": 7, "velocity": 87}, {"time": 964, "pitch": 54, "duration": 2, "velocity": 77}, {"time": 970, "pitch": 45, "duration": 18, "velocity": 88}, {"time": 970, "pitch": 57, "duration": 6, "velocity": 73}, {"time": 970, "pitch": 61, "duration": 7, "velocity": 82}, {"time": 976, "pitch": 52, "duration": 11, "velocity": 81}, {"time": 982, "pitch": 57, "duration": 7, "velocity": 90}, {"time": 988, "pitch": 61, "duration": 5, "velocity": 85}, {"time": 994, "pitch": 44, "duration": 15, "velocity": 84}, {"time": 994, "pitch": 56, "duration": 7, "velocity": 76}, {"time": 994, "pitch": 59, "duration": 7, "velocity": 83}, {"time": 1000, "pitch": 51, "duration": 9, "velocity": 77}, {"time": 1006, "pitch": 56, "duration": 4, "velocity": 87}, {"time": 1018, "pitch": 42, "duration": 20, "velocity": 85}, {"time": 1018, "pitch": 54, "duration": 12, "velocity": 83}, {"time": 1018, "pitch": 61, "duration": 9, "velocity": 85}, {"time": 1024, "pitch": 49, "duration": 9, "velocity": 77}, {"time": 1030, "pitch": 57, "duration": 5, "velocity": 89}, {"time": 1036, "pitch": 49, "duration": 4, "velocity": 81}, {"time": 1042, "pitch": 42, "duration": 16, "velocity": 87}, {"time": 1042, "pitch": 54, "duration": 12, "velocity": 80}, {"time": 1042, "pitch": 58, "duration": 9, "velocity": 84}, {"time": 1042, "pitch": 61, "duration": 9, "velocity": 83}, {"time": 1048, "pitch": 49, "duration": 10, "velocity": 78}, {"time": 1054, "pitch": 58, "duration": 5, "velocity": 86}, {"time": 1054, "pitch": 61, "duration": 10, "velocity": 86}, {"time": 1054, "pitch": 66, "duration": 7, "velocity": 84}, {"time": 1060, "pitch": 54, "duration": 4, "velocity": 90}, {"time": 1066, "pitch": 35, "duration": 1, "velocity": 84}, {"time": 1066, "pitch": 54, "duration": 5, "velocity": 87}, {"time": 1066, "pitch": 59, "duration": 8, "velocity": 84}, {"time": 1072, "pitch": 47, "duration": 17, "velocity": 86}, {"time": 1078, "pitch": 54, "duration": 10, "velocity": 85}, {"time": 1081, "pitch": 59, "duration": 3, "velocity": 85}, {"time": 1084, "pitch": 61, "duration": 3, "velocity": 85}, {"time": 1087, "pitch": 63, "duration": 2, "velocity": 83}, {"time": 1090, "pitch": 47, "duration": 17, "velocity": 90}, {"time": 1090, "pitch": 59, "duration": 6, "velocity": 83}, {"time": 1090, "pitch": 63, "duration": 5, "velocity": 86}, {"time": 1090, "pitch": 66, "duration": 6, "velocity": 84}, {"time": 1096, "pitch": 54, "duration": 10, "velocity": 84}, {"time": 1102, "pitch": 59, "duration": 1, "velocity": 79}, {"time": 1102, "pitch": 63, "duration": 14, "velocity": 92}, {"time": 1102, "pitch": 66, "duration": 14, "velocity": 85}, {"time": 1108, "pitch": 59, "duration": 9, "velocity": 86}, {"time": 1114, "pitch": 40, "duration": 43, "velocity": 92}, {"time": 1120, "pitch": 47, "duration": 21, "velocity": 78}, {"time": 1126, "pitch": 56, "duration": 6, "velocity": 82}, {"time": 1132, "pitch": 52, "duration": 7, "velocity": 83}, {"time": 1138, "pitch": 56, "duration": 10, "velocity": 84}, {"time": 1138, "pitch": 59, "duration": 10, "velocity": 85}, {"time": 1144, "pitch": 47, "duration": 11, "velocity": 77}, {"time": 1147, "pitch": 52, "duration": 3, "velocity": 49}, {"time": 1150, "pitch": 56, "duration": 8, "velocity": 80}, {"time": 1150, "pitch": 59, "duration": 7, "velocity": 83}, {"time": 1150, "pitch": 64, "duration": 7, "velocity": 84}, {"time": 1156, "pitch": 52, "duration": 4, "velocity": 87}, {"time": 1162, "pitch": 40, "duration": 39, "velocity": 85}, {"time": 1162, "pitch": 52, "duration": 13, "velocity": 83}, {"time": 1162, "pitch": 56, "duration": 10, "velocity": 78}, {"time": 1168, "pitch": 47, "duration": 21, "velocity": 70}, {"time": 1174, "pitch": 56, "duration": 1, "velocity": 68}, {"time": 1174, "pitch": 59, "duration": 9, "velocity": 80}, {"time": 1180, "pitch": 52, "duration": 2, "velocity": 27}, {"time": 1180, "pitch": 56, "duration": 3, "velocity": 77}, {"time": 1186, "pitch": 52, "duration": 7, "velocity": 82}, {"time": 1186, "pitch": 56, "duration": 7, "velocity": 84}, {"time": 1186, "pitch": 59, "duration": 7, "velocity": 85}, {"time": 1186, "pitch": 64, "duration": 6, "velocity": 83}, {"time": 1192, "pitch": 47, "duration": 8, "velocity": 75}, {"time": 1198, "pitch": 56, "duration": 5, "velocity": 87}, {"time": 1198, "pitch": 59, "duration": 6, "velocity": 86}, {"time": 1204, "pitch": 40, "duration": 2, "velocity": 84}, {"time": 1210, "pitch": 37, "duration": 17, "velocity": 87}, {"time": 1210, "pitch": 56, "duration": 12, "velocity": 72}, {"time": 1210, "pitch": 61, "duration": 9, "velocity": 83}, {"time": 1216, "pitch": 44, "duration": 11, "velocity": 76}, {"time": 1222, "pitch": 61, "duration": 6, "velocity": 86}, {"time": 1222, "pitch": 64, "duration": 12, "velocity": 86}, {"time": 1228, "pitch": 56, "duration": 3, "velocity": 88}, {"time": 1234, "pitch": 47, "duration": 16, "velocity": 86}, {"time": 1234, "pitch": 59, "duration": 8, "velocity": 80}, {"time": 1240, "pitch": 54, "duration": 7, "velocity": 77}, {"time": 1246, "pitch": 59, "duration": 6, "velocity": 86}, {"time": 1246, "pitch": 63, "duration": 13, "velocity": 86}, {"time": 1252, "pitch": 54, "duration": 6, "velocity": 26}, {"time": 1258, "pitch": 45, "duration": 21, "velocity": 88}, {"time": 1258, "pitch": 57, "duration": 8, "velocity": 79}, {"time": 1264, "pitch": 52, "duration": 7, "velocity": 85}, {"time": 1270, "pitch": 61, "duration": 12, "velocity": 86}, {"time": 1276, "pitch": 52, "duration": 2, "velocity": 89}, {"time": 1282, "pitch": 44, "duration": 15, "velocity": 85}, {"time": 1282, "pitch": 59, "duration": 10, "velocity": 82}, {"time": 1288, "pitch": 51, "duration": 8, "velocity": 79}, {"time": 1294, "pitch": 56, "duration": 1, "velocity": 75}, {"time": 1294, "pitch": 59, "duration": 6, "velocity": 84}, {"time": 1294, "pitch": 63, "duration": 12, "velocity": 85}, {"time": 1300, "pitch": 56, "duration": 5, "velocity": 77}, {"time": 1306, "pitch": 42, "duration": 21, "velocity": 84}, {"time": 1306, "pitch": 57, "duration": 12, "velocity": 83}, {"time": 1312, "pitch": 49, "duration": 14, "velocity": 74}, {"time": 1318, "pitch": 61, "duration": 9, "velocity": 83}, {"time": 1324, "pitch": 54, "duration": 4, "velocity": 90}, {"time": 1330, "pitch": 47, "duration": 17, "velocity": 88}, {"time": 1330, "pitch": 54, "duration": 3, "velocity": 88}, {"time": 1330, "pitch": 59, "duration": 8, "velocity": 84}, {"time": 1336, "pitch": 54, "duration": 6, "velocity": 84}, {"time": 1342, "pitch": 63, "duration": 12, "velocity": 85}, {"time": 1348, "pitch": 54, "duration": 3, "velocity": 84}, {"time": 1354, "pitch": 40, "duration": 22, "velocity": 83}, {"time": 1354, "pitch": 56, "duration": 4, "velocity": 78}, {"time": 1354, "pitch": 59, "duration": 12, "velocity": 79}, {"time": 1360, "pitch": 47, "duration": 15, "velocity": 76}, {"time": 1366, "pitch": 52, "duration": 13, "velocity": 90}, {"time": 1372, "pitch": 56, "duration": 4, "velocity": 85}, {"time": 1378, "pitch": 40, "duration": 19, "velocity": 89}, {"time": 1378, "pitch": 56, "duration": 10, "velocity": 81}, {"time": 1378, "pitch": 59, "duration": 10, "velocity": 83}, {"time": 1384, "pitch": 47, "duration": 8, "velocity": 79}, {"time": 1387, "pitch": 52, "duration": 2, "velocity": 80}, {"time": 1390, "pitch": 52, "duration": 6, "velocity": 85}, {"time": 1390, "pitch": 56, "duration": 5, "velocity": 97}, {"time": 1390, "pitch": 59, "duration": 6, "velocity": 94}, {"time": 1390, "pitch": 64, "duration": 5, "velocity": 86}, {"time": 1396, "pitch": 47, "duration": 4, "velocity": 88}, {"time": 1402, "pitch": 45, "duration": 21, "velocity": 90}, {"time": 1402, "pitch": 57, "duration": 12, "velocity": 86}, {"time": 1408, "pitch": 49, "duration": 16, "velocity": 75}, {"time": 1414, "pitch": 61, "duration": 7, "velocity": 85}, {"time": 1420, "pitch": 52, "duration": 7, "velocity": 94}, {"time": 1426, "pitch": 45, "duration": 14, "velocity": 74}, {"time": 1426, "pitch": 57, "duration": 7, "velocity": 86}, {"time": 1432, "pitch": 52, "duration": 7, "velocity": 84}, {"time": 1438, "pitch": 57, "duration": 6, "velocity": 90}, {"time": 1438, "pitch": 61, "duration": 10, "velocity": 85}, {"time": 1444, "pitch": 52, "duration": 2, "velocity": 88}, {"time": 1450, "pitch": 46, "duration": 14, "velocity": 84}, {"time": 1450, "pitch": 58, "duration": 13, "velocity": 84}, {"time": 1450, "pitch": 64, "duration": 12, "velocity": 81}, {"time": 1456, "pitch": 52, "duration": 7, "velocity": 79}, {"time": 1462, "pitch": 61, "duration": 6, "velocity": 88}, {"time": 1468, "pitch": 58, "duration": 1, "velocity": 84}, {"time": 1474, "pitch": 42, "duration": 20, "velocity": 84}, {"time": 1474, "pitch": 54, "duration": 8, "velocity": 85}, {"time": 1474, "pitch": 61, "duration": 8, "velocity": 79}, {"time": 1480, "pitch": 49, "duration": 12, "velocity": 76}, {"time": 1486, "pitch": 54, "duration": 2, "velocity": 86}, {"time": 1486, "pitch": 58, "duration": 6, "velocity": 86}, {"time": 1492, "pitch": 54, "duration": 4, "velocity": 85}, {"time": 1498, "pitch": 47, "duration": 21, "velocity": 87}, {"time": 1498, "pitch": 54, "duration": 13, "velocity": 89}, {"time": 1498, "pitch": 59, "duration": 9, "velocity": 85}, {"time": 1504, "pitch": 51, "duration": 15, "velocity": 75}, {"time": 1510, "pitch": 59, "duration": 6, "velocity": 85}, {"time": 1510, "pitch": 63, "duration": 13, "velocity": 84}, {"time": 1516, "pitch": 54, "duration": 6, "velocity": 79}, {"time": 1522, "pitch": 42, "duration": 10, "velocity": 85}, {"time": 1528, "pitch": 49, "duration": 4, "velocity": 77}, {"time": 1534, "pitch": 47, "duration": 10, "velocity": 97}, {"time": 1534, "pitch": 54, "duration": 5, "velocity": 83}, {"time": 1534, "pitch": 59, "duration": 10, "velocity": 83}, {"time": 1540, "pitch": 54, "duration": 12, "velocity": 84}, {"time": 1546, "pitch": 40, "duration": 22, "velocity": 87}, {"time": 1552, "pitch": 47, "duration": 15, "velocity": 83}, {"time": 1558, "pitch": 52, "duration": 8, "velocity": 87}, {"time": 1564, "pitch": 56, "duration": 3, "velocity": 83}, {"time": 1570, "pitch": 40, "duration": 25, "velocity": 84}, {"time": 1570, "pitch": 52, "duration": 13, "velocity": 81}, {"time": 1570, "pitch": 59, "duration": 13, "velocity": 81}, {"time": 1576, "pitch": 56, "duration": 7, "velocity": 82}, {"time": 1582, "pitch": 64, "duration": 12, "velocity": 84}, {"time": 1585, "pitch": 59, "duration": 9, "velocity": 87}, {"time": 1588, "pitch": 52, "duration": 4, "velocity": 90}, {"time": 1591, "pitch": 47, "duration": 4, "velocity": 83}, {"time": 1594, "pitch": 42, "duration": 18, "velocity": 85}, {"time": 1594, "pitch": 54, "duration": 8, "velocity": 79}, {"time": 1594, "pitch": 61, "duration": 7, "velocity": 82}, {"time": 1600, "pitch": 49, "duration": 9, "velocity": 77}, {"time": 1606, "pitch": 57, "duration": 6, "velocity": 90}, {"time": 1612, "pitch": 54, "duration": 2, "velocity": 92}, {"time": 1618, "pitch": 44, "duration": 18, "velocity": 84}, {"time": 1618, "pitch": 54, "duration": 10, "velocity": 83}, {"time": 1618, "pitch": 59, "duration": 9, "velocity": 83}, {"time": 1624, "pitch": 51, "duration": 11, "velocity": 73}, {"time": 1630, "pitch": 59, "duration": 5, "velocity": 88}, {"time": 1630, "pitch": 63, "duration": 6, "velocity": 89}, {"time": 1642, "pitch": 42, "duration": 22, "velocity": 85}, {"time": 1642, "pitch": 57, "duration": 9, "velocity": 79}, {"time": 1642, "pitch": 61, "duration": 10, "velocity": 82}, {"time": 1648, "pitch": 49, "duration": 15, "velocity": 70}, {"time": 1654, "pitch": 54, "duration": 7, "velocity": 84}, {"time": 1660, "pitch": 57, "duration": 2, "velocity": 83}, {"time": 1666, "pitch": 47, "duration": 14, "velocity": 84}, {"time": 1666, "pitch": 54, "duration": 8, "velocity": 82}, {"time": 1666, "pitch": 59, "duration": 8, "velocity": 84}, {"time": 1672, "pitch": 51, "duration": 8, "velocity": 77}, {"time": 1678, "pitch": 54, "duration": 4, "velocity": 83}, {"time": 1678, "pitch": 59, "duration": 5, "velocity": 85}, {"time": 1678, "pitch": 63, "duration": 6, "velocity": 85}, {"time": 1690, "pitch": 37, "duration": 14, "velocity": 88}, {"time": 1690, "pitch": 56, "duration": 13, "velocity": 78}, {"time": 1690, "pitch": 61, "duration": 8, "velocity": 83}, {"time": 1696, "pitch": 44, "duration": 7, "velocity": 70}, {"time": 1702, "pitch": 61, "duration": 7, "velocity": 86}, {"time": 1702, "pitch": 64, "duration": 6, "velocity": 84}, {"time": 1708, "pitch": 56, "duration": 2, "velocity": 83}, {"time": 1714, "pitch": 47, "duration": 13, "velocity": 94}, {"time": 1714, "pitch": 54, "duration": 3, "velocity": 82}, {"time": 1714, "pitch": 59, "duration": 7, "velocity": 81}, {"time": 1720, "pitch": 54, "duration": 7, "velocity": 81}, {"time": 1726, "pitch": 59, "duration": 5, "velocity": 86}, {"time": 1726, "pitch": 63, "duration": 7, "velocity": 87}, {"time": 1732, "pitch": 54, "duration": 2, "velocity": 77}, {"time": 1738, "pitch": 45, "duration": 18, "velocity": 88}, {"time": 1738, "pitch": 57, "duration": 6, "velocity": 73}, {"time": 1738, "pitch": 61, "duration": 7, "velocity": 82}, {"time": 1744, "pitch": 52, "duration": 11, "velocity": 81}, {"time": 1750, "pitch": 57, "duration": 7, "velocity": 90}, {"time": 1756, "pitch": 61, "duration": 5, "velocity": 85}, {"time": 1762, "pitch": 44, "duration": 15, "velocity": 84}, {"time": 1762, "pitch": 56, "duration": 7, "velocity": 76}, {"time": 1762, "pitch": 59, "duration": 7, "velocity": 83}, {"time": 1768, "pitch": 51, "duration": 9, "velocity": 77}, {"time": 1774, "pitch": 56, "duration": 4, "velocity": 87}, {"time": 1786, "pitch": 42, "duration": 20, "velocity": 85}, {"time": 1786, "pitch": 54, "duration": 12, "velocity": 83}, {"time": 1786, "pitch": 61, "duration": 9, "velocity": 85}, {"time": 1792, "pitch": 49, "duration": 9, "velocity": 77}, {"time": 1798, "pitch": 57, "duration": 5, "velocity": 89}, {"time": 1804, "pitch": 49, "duration": 4, "velocity": 81}, {"time": 1810, "pitch": 42, "duration": 16, "velocity": 87}, {"time": 1810, "pitch": 54, "duration": 12, "velocity": 80}, {"time": 1810, "pitch": 58, "duration": 9, "velocity": 84}, {"time": 1810, "pitch": 61, "duration": 9, "velocity": 83}, {"time": 1816, "pitch": 49, "duration": 10, "velocity": 78}, {"time": 1822, "pitch": 58, "duration": 5, "velocity": 86}, {"time": 1822, "pitch": 61, "duration": 10, "velocity": 86}, {"time": 1822, "pitch": 66, "duration": 7, "velocity": 84}, {"time": 1828, "pitch": 54, "duration": 4, "velocity": 90}, {"time": 1834, "pitch": 35, "duration": 1, "velocity": 84}, {"time": 1834, "pitch": 54, "duration": 5, "velocity": 87}, {"time": 1834, "pitch": 59, "duration": 8, "velocity": 84}, {"time": 1840, "pitch": 47, "duration": 17, "velocity": 86}, {"time": 1846, "pitch": 54, "duration": 10, "velocity": 85}, {"time": 1849, "pitch": 59, "duration": 3, "velocity": 85}, {"time": 1852, "pitch": 61, "duration": 3, "velocity": 85}, {"time": 1855, "pitch": 63, "duration": 2, "velocity": 83}, {"time": 1858, "pitch": 47, "duration": 17, "velocity": 90}, {"time": 1858, "pitch": 59, "duration": 6, "velocity": 83}, {"time": 1858, "pitch": 63, "duration": 5, "velocity": 86}, {"time": 1858, "pitch": 66, "duration": 6, "velocity": 84}, {"time": 1864, "pitch": 54, "duration": 10, "velocity": 84}, {"time": 1870, "pitch": 59, "duration": 1, "velocity": 79}, {"time": 1870, "pitch": 63, "duration": 14, "velocity": 92}, {"time": 1870, "pitch": 66, "duration": 14, "velocity": 85}, {"time": 1876, "pitch": 59, "duration": 9, "velocity": 86}, {"time": 1882, "pitch": 40, "duration": 43, "velocity": 92}, {"time": 1888, "pitch": 47, "duration": 21, "velocity": 78}, {"time": 1894, "pitch": 56, "duration": 6, "velocity": 82}, {"time": 1900, "pitch": 52, "duration": 7, "velocity": 83}, {"time": 1906, "pitch": 56, "duration": 10, "velocity": 84}, {"time": 1906, "pitch": 59, "duration": 10, "velocity": 85}, {"time": 1912, "pitch": 47, "duration": 11, "velocity": 77}, {"time": 1915, "pitch": 52, "duration": 3, "velocity": 49}, {"time": 1918, "pitch": 56, "duration": 8, "velocity": 80}, {"time": 1918, "pitch": 59, "duration": 7, "velocity": 83}, {"time": 1918, "pitch": 64, "duration": 7, "velocity": 84}, {"time": 1924, "pitch": 52, "duration": 4, "velocity": 87}, {"time": 1930, "pitch": 40, "duration": 39, "velocity": 85}, {"time": 1930, "pitch": 52, "duration": 13, "velocity": 83}, {"time": 1930, "pitch": 56, "duration": 10, "velocity": 78}, {"time": 1936, "pitch": 47, "duration": 21, "velocity": 70}, {"time": 1942, "pitch": 56, "duration": 1, "velocity": 68}, {"time": 1942, "pitch": 59, "duration": 9, "velocity": 80}, {"time": 1948, "pitch": 52, "duration": 2, "velocity": 27}, {"time": 1948, "pitch": 56, "duration": 3, "velocity": 77}, {"time": 1954, "pitch": 52, "duration": 7, "velocity": 82}, {"time": 1954, "pitch": 56, "duration": 7, "velocity": 84}, {"time": 1954, "pitch": 59, "duration": 7, "velocity": 85}, {"time": 1954, "pitch": 64, "duration": 6, "velocity": 83}, {"time": 1960, "pitch": 47, "duration": 8, "velocity": 75}, {"time": 1966, "pitch": 56, "duration": 5, "velocity": 87}, {"time": 1966, "pitch": 59, "duration": 6, "velocity": 86}, {"time": 1972, "pitch": 40, "duration": 2, "velocity": 84}, {"time": 1978, "pitch": 37, "duration": 17, "velocity": 87}, {"time": 1978, "pitch": 56, "duration": 12, "velocity": 72}, {"time": 1978, "pitch": 61, "duration": 9, "velocity": 83}, {"time": 1984, "pitch": 44, "duration": 11, "velocity": 76}, {"time": 1990, "pitch": 61, "duration": 6, "velocity": 86}, {"time": 1990, "pitch": 64, "duration": 12, "velocity": 86}, {"time": 1996, "pitch": 56, "duration": 3, "velocity": 88}, {"time": 2002, "pitch": 47, "duration": 16, "velocity": 86}, {"time": 2002, "pitch": 59, "duration": 8, "velocity": 80}, {"time": 2008, "pitch": 54, "duration": 7, "velocity": 77}, {"time": 2014, "pitch": 59, "duration": 6, "velocity": 86}, {"time": 2014, "pitch": 63, "duration": 13, "velocity": 86}, {"time": 2020, "pitch": 54, "duration": 6, "velocity": 26}, {"time": 2026, "pitch": 45, "duration": 21, "velocity": 88}, {"time": 2026, "pitch": 57, "duration": 8, "velocity": 79}, {"time": 2032, "pitch": 52, "duration": 7, "velocity": 85}, {"time": 2038, "pitch": 61, "duration": 12, "velocity": 86}, {"time": 2044, "pitch": 52, "duration": 2, "velocity": 89}, {"time": 2050, "pitch": 44, "duration": 15, "velocity": 85}, {"time": 2050, "pitch": 59, "duration": 10, "velocity": 82}, {"time": 2056, "pitch": 51, "duration": 8, "velocity": 79}, {"time": 2062, "pitch": 56, "duration": 1, "velocity": 75}, {"time": 2062, "pitch": 59, "duration": 6, "velocity": 84}, {"time": 2062, "pitch": 63, "duration": 12, "velocity": 85}, {"time": 2068, "pitch": 56, "duration": 5, "velocity": 77}, {"time": 2074, "pitch": 42, "duration": 21, "velocity": 84}, {"time": 2074, "pitch": 57, "duration": 12, "velocity": 83}, {"time": 2080, "pitch": 49, "duration": 14, "velocity": 74}, {"time": 2086, "pitch": 61, "duration": 9, "velocity": 83}, {"time": 2092, "pitch": 54, "duration": 4, "velocity": 90}, {"time": 2098, "pitch": 47, "duration": 17, "velocity": 88}, {"time": 2098, "pitch": 54, "duration": 3, "velocity": 88}, {"time": 2098, "pitch": 59, "duration": 8, "velocity": 84}, {"time": 2104, "pitch": 54, "duration": 6, "velocity": 84}, {"time": 2110, "pitch": 63, "duration": 12, "velocity": 85}, {"time": 2116, "pitch": 54, "duration": 3, "velocity": 84}, {"time": 2122, "pitch": 40, "duration": 22, "velocity": 83}, {"time": 2122, "pitch": 56, "duration": 4, "velocity": 78}, {"time": 2122, "pitch": 59, "duration": 12, "velocity": 79}, {"time": 2128, "pitch": 47, "duration": 15, "velocity": 76}, {"time": 2134, "pitch": 52, "duration": 13, "velocity": 90}, {"time": 2140, "pitch": 56, "duration": 4, "velocity": 85}, {"time": 2146, "pitch": 40, "duration": 19, "velocity": 89}, {"time": 2146, "pitch": 56, "duration": 10, "velocity": 81}, {"time": 2146, "pitch": 59, "duration": 10, "velocity": 83}, {"time": 2152, "pitch": 47, "duration": 8, "velocity": 79}, {"time": 2155, "pitch": 52, "duration": 2, "velocity": 80}, {"time": 2158, "pitch": 52, "duration": 6, "velocity": 85}, {"time": 2158, "pitch": 56, "duration": 5, "velocity": 97}, {"time": 2158, "pitch": 59, "duration": 6, "velocity": 94}, {"time": 2158, "pitch": 64, "duration": 5, "velocity": 86}, {"time": 2164, "pitch": 47, "duration": 4, "velocity": 88}, {"time": 2170, "pitch": 45, "duration": 21, "velocity": 90}, {"time": 2170, "pitch": 57, "duration": 12, "velocity": 86}, {"time": 2176, "pitch": 49, "duration": 16, "velocity": 75}, {"time": 2182, "pitch": 61, "duration": 7, "velocity": 85}, {"time": 2188, "pitch": 52, "duration": 7, "velocity": 94}, {"time": 2194, "pitch": 45, "duration": 14, "velocity": 74}, {"time": 2194, "pitch": 57, "duration": 7, "velocity": 86}, {"time": 2200, "pitch": 52, "duration": 7, "velocity": 84}, {"time": 2206, "pitch": 57, "duration": 6, "velocity": 90}, {"time": 2206, "pitch": 61, "duration": 10, "velocity": 85}, {"time": 2212, "pitch": 52, "duration": 2, "velocity": 88}, {"time": 2218, "pitch": 46, "duration": 14, "velocity": 84}, {"time": 2218, "pitch": 58, "duration": 13, "velocity": 84}, {"time": 2218, "pitch": 64, "duration": 12, "velocity": 81}, {"time": 2224, "pitch": 52, "duration": 7, "velocity": 79}, {"time": 2230, "pitch": 61, "duration": 6, "velocity": 88}, {"time": 2236, "pitch": 58, "duration": 1, "velocity": 84}, {"time": 2242, "pitch": 42, "duration": 20, "velocity": 84}, {"time": 2242, "pitch": 54, "duration": 8, "velocity": 85}, {"time": 2242, "pitch": 61, "duration": 8, "velocity": 79}, {"time": 2248, "pitch": 49, "duration": 12, "velocity": 76}, {"time": 2254, "pitch": 54, "duration": 2, "velocity": 86}, {"time": 2254, "pitch": 58, "duration": 6, "velocity": 86}, {"time": 2260, "pitch": 54, "duration": 4, "velocity": 85}, {"time": 2266, "pitch": 47, "duration": 21, "velocity": 87}, {"time": 2266, "pitch": 54, "duration": 13, "velocity": 89}, {"time": 2266, "pitch": 59, "duration": 9, "velocity": 85}, {"time": 2272, "pitch": 51, "duration": 15, "velocity": 75}, {"time": 2278, "pitch": 59, "duration": 6, "velocity": 85}, {"time": 2278, "pitch": 63, "duration": 13, "velocity": 84}, {"time": 2284, "pitch": 54, "duration": 6, "velocity": 79}, {"time": 2290, "pitch": 42, "duration": 10, "velocity": 85}, {"time": 2296, "pitch": 49, "duration": 4, "velocity": 77}, {"time": 2302, "pitch": 47, "duration": 10, "velocity": 97}, {"time": 2302, "pitch": 54, "duration": 5, "velocity": 83}, {"time": 2302, "pitch": 59, "duration": 10, "velocity": 83}, {"time": 2308, "pitch": 54, "duration": 12, "velocity": 84}, {"time": 2314, "pitch": 40, "duration": 22, "velocity": 87}, {"time": 2320, "pitch": 47, "duration": 15, "velocity": 83}, {"time": 2326, "pitch": 52, "duration": 8, "velocity": 87}, {"time": 2332, "pitch": 56, "duration": 3, "velocity": 83}, {"time": 2338, "pitch": 40, "duration": 25, "velocity": 84}, {"time": 2338, "pitch": 52, "duration": 13, "velocity": 81}, {"time": 2338, "pitch": 59, "duration": 13, "velocity": 81}, {"time": 2344, "pitch": 56, "duration": 7, "velocity": 82}, {"time": 2350, "pitch": 64, "duration": 12, "velocity": 84}, {"time": 2353, "pitch": 59, "duration": 9, "velocity": 87}, {"time": 2356, "pitch": 52, "duration": 4, "velocity": 90}, {"time": 2359, "pitch": 47, "duration": 4, "velocity": 83}, {"time": 2362, "pitch": 42, "duration": 18, "velocity": 85}, {"time": 2362, "pitch": 54, "duration": 8, "velocity": 79}, {"time": 2362, "pitch": 61, "duration": 7, "velocity": 82}, {"time": 2368, "pitch": 49, "duration": 9, "velocity": 77}, {"time": 2374, "pitch": 57, "duration": 6, "velocity": 90}, {"time": 2380, "pitch": 54, "duration": 2, "velocity": 92}, {"time": 2386, "pitch": 44, "duration": 18, "velocity": 84}, {"time": 2386, "pitch": 54, "duration": 10, "velocity": 83}, {"time": 2386, "pitch": 59, "duration": 9, "velocity": 83}, {"time": 2392, "pitch": 51, "duration": 11, "velocity": 73}, {"time": 2398, "pitch": 59, "duration": 5, "velocity": 88}, {"time": 2398, "pitch": 63, "duration": 6, "velocity": 89}, {"time": 2410, "pitch": 42, "duration": 22, "velocity": 85}, {"time": 2410, "pitch": 57, "duration": 9, "velocity": 79}, {"time": 2410, "pitch": 61, "duration": 10, "velocity": 82}, {"time": 2416, "pitch": 49, "duration": 15, "velocity": 70}, {"time": 2422, "pitch": 54, "duration": 7, "velocity": 84}, {"time": 2428, "pitch": 57, "duration": 2, "velocity": 83}, {"time": 2434, "pitch": 47, "duration": 14, "velocity": 84}, {"time": 2434, "pitch": 54, "duration": 8, "velocity": 82}, {"time": 2434, "pitch": 59, "duration": 8, "velocity": 84}, {"time": 2440, "pitch": 51, "duration": 8, "velocity": 77}, {"time": 2446, "pitch": 54, "duration": 4, "velocity": 83}, {"time": 2446, "pitch": 59, "duration": 5, "velocity": 85}, {"time": 2446, "pitch": 63, "duration": 6, "velocity": 85}, {"time": 2458, "pitch": 37, "duration": 14, "velocity": 88}, {"time": 2458, "pitch": 56, "duration": 13, "velocity": 78}, {"time": 2458, "pitch": 61, "duration": 8, "velocity": 83}, {"time": 2464, "pitch": 44, "duration": 7, "velocity": 70}, {"time": 2470, "pitch": 61, "duration": 7, "velocity": 86}, {"time": 2470, "pitch": 64, "duration": 6, "velocity": 84}, {"time": 2476, "pitch": 56, "duration": 2, "velocity": 83}, {"time": 2482, "pitch": 47, "duration": 13, "velocity": 94}, {"time": 2482, "pitch": 54, "duration": 3, "velocity": 82}, {"time": 2482, "pitch": 59, "duration": 7, "velocity": 81}, {"time": 2488, "pitch": 54, "duration": 7, "velocity": 81}, {"time": 2494, "pitch": 59, "duration": 5, "velocity": 86}, {"time": 2494, "pitch": 63, "duration": 7, "velocity": 87}, {"time": 2500, "pitch": 54, "duration": 2, "velocity": 77}, {"time": 2506, "pitch": 45, "duration": 18, "velocity": 88}, {"time": 2506, "pitch": 57, "duration": 6, "velocity": 73}, {"time": 2506, "pitch": 61, "duration": 7, "velocity": 82}, {"time": 2512, "pitch": 52, "duration": 11, "velocity": 81}, {"time": 2518, "pitch": 57, "duration": 7, "velocity": 90}, {"time": 2524, "pitch": 61, "duration": 5, "velocity": 85}, {"time": 2530, "pitch": 44, "duration": 15, "velocity": 84}, {"time": 2530, "pitch": 56, "duration": 7, "velocity": 76}, {"time": 2530, "pitch": 59, "duration": 7, "velocity": 83}, {"time": 2536, "pitch": 51, "duration": 9, "velocity": 77}, {"time": 2542, "pitch": 56, "duration": 4, "velocity": 87}, {"time": 2554, "pitch": 42, "duration": 20, "velocity": 85}, {"time": 2554, "pitch": 54, "duration": 12, "velocity": 83}, {"time": 2554, "pitch": 61, "duration": 9, "velocity": 85}, {"time": 2560, "pitch": 49, "duration": 9, "velocity": 77}, {"time": 2566, "pitch": 57, "duration": 5, "velocity": 89}, {"time": 2572, "pitch": 49, "duration": 4, "velocity": 81}, {"time": 2578, "pitch": 42, "duration": 16, "velocity": 87}, {"time": 2578, "pitch": 54, "duration": 12, "velocity": 80}, {"time": 2578, "pitch": 58, "duration": 9, "velocity": 84}, {"time": 2578, "pitch": 61, "duration": 9, "velocity": 83}, {"time": 2584, "pitch": 49, "duration": 10, "velocity": 78}, {"time": 2590, "pitch": 58, "duration": 5, "velocity": 86}, {"time": 2590, "pitch": 61, "duration": 10, "velocity": 86}, {"time": 2590, "pitch": 66, "duration": 7, "velocity": 84}, {"time": 2596, "pitch": 54, "duration": 4, "velocity": 90}, {"time": 2602, "pitch": 35, "duration": 1, "velocity": 84}, {"time": 2602, "pitch": 54, "duration": 5, "velocity": 87}, {"time": 2602, "pitch": 59, "duration": 8, "velocity": 84}, {"time": 2608, "pitch": 47, "duration": 17, "velocity": 86}, {"time": 2614, "pitch": 54, "duration": 10, "velocity": 85}, {"time": 2617, "pitch": 59, "duration": 3, "velocity": 85}, {"time": 2620, "pitch": 61, "duration": 3, "velocity": 85}, {"time": 2623, "pitch": 63, "duration": 2, "velocity": 83}, {"time": 2626, "pitch": 47, "duration": 17, "velocity": 90}, {"time": 2626, "pitch": 59, "duration": 6, "velocity": 83}, {"time": 2626, "pitch": 63, "duration": 5, "velocity": 86}, {"time": 2626, "pitch": 66, "duration": 6, "velocity": 84}, {"time": 2632, "pitch": 54, "duration": 10, "velocity": 84}, {"time": 2638, "pitch": 59, "duration": 1, "velocity": 79}, {"time": 2638, "pitch": 63, "duration": 14, "velocity": 92}, {"time": 2638, "pitch": 66, "duration": 14, "velocity": 85}, {"time": 2644, "pitch": 59, "duration": 9, "velocity": 86}, {"time": 2650, "pitch": 40, "duration": 43, "velocity": 92}, {"time": 2656, "pitch": 47, "duration": 21, "velocity": 78}, {"time": 2662, "pitch": 56, "duration": 6, "velocity": 82}, {"time": 2668, "pitch": 52, "duration": 7, "velocity": 83}, {"time": 2674, "pitch": 56, "duration": 10, "velocity": 84}, {"time": 2674, "pitch": 59, "duration": 10, "velocity": 85}, {"time": 2680, "pitch": 47, "duration": 11, "velocity": 77}, {"time": 2683, "pitch": 52, "duration": 3, "velocity": 49}, {"time": 2686, "pitch": 56, "duration": 8, "velocity": 80}, {"time": 2686, "pitch": 59, "duration": 7, "velocity": 83}, {"time": 2686, "pitch": 64, "duration": 7, "velocity": 84}, {"time": 2692, "pitch": 52, "duration": 4, "velocity": 87}, {"time": 2698, "pitch": 40, "duration": 39, "velocity": 85}, {"time": 2698, "pitch": 52, "duration": 13, "velocity": 83}, {"time": 2698, "pitch": 56, "duration": 10, "velocity": 78}, {"time": 2704, "pitch": 47, "duration": 21, "velocity": 70}, {"time": 2710, "pitch": 56, "duration": 1, "velocity": 68}, {"time": 2710, "pitch": 59, "duration": 9, "velocity": 80}, {"time": 2716, "pitch": 52, "duration": 2, "velocity": 27}, {"time": 2716, "pitch": 56, "duration": 3, "velocity": 77}, {"time": 2722, "pitch": 52, "duration": 7, "velocity": 82}, {"time": 2722, "pitch": 56, "duration": 7, "velocity": 84}, {"time": 2722, "pitch": 59, "duration": 7, "velocity": 85}, {"time": 2722, "pitch": 64, "duration": 6, "velocity": 83}, {"time": 2728, "pitch": 47, "duration": 8, "velocity": 75}, {"time": 2734, "pitch": 56, "duration": 5, "velocity": 87}, {"time": 2734, "pitch": 59, "duration": 6, "velocity": 86}, {"time": 2740, "pitch": 40, "duration": 2, "velocity": 84}, {"time": 2746, "pitch": 37, "duration": 17, "velocity": 87}, {"time": 2746, "pitch": 56, "duration": 12, "velocity": 72}, {"time": 2746, "pitch": 61, "duration": 9, "velocity": 83}, {"time": 2752, "pitch": 44, "duration": 11, "velocity": 76}, {"time": 2758, "pitch": 61, "duration": 6, "velocity": 86}, {"time": 2758, "pitch": 64, "duration": 12, "velocity": 86}, {"time": 2764, "pitch": 56, "duration": 3, "velocity": 88}, {"time": 2770, "pitch": 47, "duration": 16, "velocity": 86}, {"time": 2770, "pitch": 59, "duration": 8, "velocity": 80}, {"time": 2776, "pitch": 54, "duration": 7, "velocity": 77}, {"time": 2782, "pitch": 59, "duration": 6, "velocity": 86}, {"time": 2782, "pitch": 63, "duration": 13, "velocity": 86}, {"time": 2788, "pitch": 54, "duration": 6, "velocity": 26}, {"time": 2792, "pitch": 61, "duration": 10, "velocity": 75}, {"time": 2793, "pitch": 64, "duration": 11, "velocity": 75}, {"time": 2793, "pitch": 37, "duration": 32, "velocity": 85}, {"time": 2794, "pitch": 68, "duration": 8, "velocity": 78}, {"time": 2794, "pitch": 73, "duration": 6, "velocity": 87}, {"time": 2800, "pitch": 44, "duration": 23, "velocity": 63}, {"time": 2807, "pitch": 61, "duration": 10, "velocity": 87}, {"time": 2813, "pitch": 64, "duration": 4, "velocity": 83}, {"time": 2820, "pitch": 64, "duration": 20, "velocity": 84}, {"time": 2820, "pitch": 68, "duration": 20, "velocity": 83}, {"time": 2820, "pitch": 61, "duration": 20, "velocity": 83}, {"time": 2844, "pitch": 61, "duration": 3, "velocity": 69}, {"time": 2845, "pitch": 64, "duration": 4, "velocity": 77}, {"time": 2845, "pitch": 49, "duration": 8, "velocity": 85}, {"time": 2846, "pitch": 68, "duration": 13, "velocity": 83}, {"time": 2857, "pitch": 59, "duration": 7, "velocity": 69}, {"time": 2858, "pitch": 63, "duration": 6, "velocity": 78}, {"time": 2859, "pitch": 47, "duration": 5, "velocity": 85}, {"time": 2859, "pitch": 66, "duration": 7, "velocity": 76}, {"time": 2872, "pitch": 57, "duration": 9, "velocity": 72}, {"time": 2873, "pitch": 45, "duration": 9, "velocity": 87}, {"time": 2873, "pitch": 61, "duration": 8, "velocity": 81}, {"time": 2874, "pitch": 64, "duration": 8, "velocity": 80}, {"time": 2881, "pitch": 52, "duration": 2, "velocity": 64}, {"time": 2888, "pitch": 59, "duration": 31, "velocity": 72}, {"time": 2889, "pitch": 63, "duration": 30, "velocity": 75}, {"time": 2889, "pitch": 35, "duration": 3, "velocity": 84}, {"time": 2890, "pitch": 66, "duration": 31, "velocity": 77}, {"time": 2919, "pitch": 40, "duration": 60, "velocity": 84}, {"time": 2924, "pitch": 47, "duration": 54, "velocity": 71}, {"time": 2927, "pitch": 52, "duration": 11, "velocity": 74}, {"time": 2930, "pitch": 56, "duration": 8, "velocity": 67}, {"time": 2934, "pitch": 59, "duration": 5, "velocity": 73}, {"time": 2938, "pitch": 63, "duration": 2, "velocity": 83}, {"time": 2942, "pitch": 64, "duration": 2, "velocity": 77}, {"time": 2948, "pitch": 68, "duration": 3, "velocity": 67}, {"time": 2954, "pitch": 71, "duration": 2, "velocity": 69}, {"time": 2961, "pitch": 75, "duration": 2, "velocity": 72}], "annotations": [{"time": 346, "annotation": {"number": 64, "value": 127}, "group": "control_change"}, {"time": 346, "annotation": {"number": 64, "value": 0}, "group": "control_change"}, {"time": 347, "annotation": {"number": 64, "value": 127}, "group": "control_change"}, {"time": 421, "annotation": {"number": 64, "value": 0}, "group": "control_change"}, {"time": 442, "annotation": {"number": 64, "value": 127}, "group": "control_change"}, {"time": 442, "annotation": {"number": 64, "value": 0}, "group": "control_change"}, {"time": 465, "annotation": {"number": 64, "value": 0}, "group": "control_change"}, {"time": 470, "annotation": {"number": 64, "value": 127}, "group": "control_change"}, {"time": 488, "annotation": {"number": 64, "value": 0}, "group": "control_change"}, {"time": 490, "annotation": {"number": 64, "value": 127}, "group": "control_change"}, {"time": 490, "annotation": {"number": 64, "value": 0}, "group": "control_change"}, {"time": 491, "annotation": {"number": 64, "value": 127}, "group": "control_change"}, {"time": 512, "annotation": {"number": 64, "value": 0}, "group": "control_change"}, {"time": 526, "annotation": {"number": 64, "value": 127}, "group": "control_change"}, {"time": 535, "annotation": {"number": 64, "value": 0}, "group": "control_change"}, {"time": 544, "annotation": {"number": 64, "value": 127}, "group": "control_change"}, {"time": 560, "annotation": {"number": 64, "value": 0}, "group": "control_change"}, {"time": 566, "annotation": {"number": 64, "value": 127}, "group": "control_change"}, {"time": 584, "annotation": {"number": 64, "value": 0}, "group": "control_change"}, {"time": 589, "annotation": {"number": 64, "value": 127}, "group": "control_change"}, {"time": 633, "annotation": {"number": 64, "value": 0}, "group": "control_change"}, {"time": 637, "annotation": {"number": 64, "value": 127}, "group": "control_change"}, {"time": 638, "annotation": {"number": 64, "value": 0}, "group": "control_change"}, {"time": 638, "annotation": {"number": 64, "value": 127}, "group": "control_change"}, {"time": 680, "annotation": {"number": 64, "value": 0}, "group": "control_change"}, {"time": 686, "annotation": {"number": 64, "value": 127}, "group": "control_change"}, {"time": 728, "annotation": {"number": 64, "value": 0}, "group": "control_change"}, {"time": 739, "annotation": {"number": 64, "value": 127}, "group": "control_change"}, {"time": 753, "annotation": {"number": 64, "value": 0}, "group": "control_change"}, {"time": 759, "annotation": {"number": 64, "value": 127}, "group": "control_change"}, {"time": 776, "annotation": {"number": 64, "value": 0}, "group": "control_change"}, {"time": 778, "annotation": {"number": 64, "value": 127}, "group": "control_change"}, {"time": 823, "annotation": {"number": 64, "value": 0}, "group": "control_change"}, {"time": 848, "annotation": {"number": 64, "value": 0}, "group": "control_change"}, {"time": 854, "annotation": {"number": 64, "value": 127}, "group": "control_change"}, {"time": 871, "annotation": {"number": 64, "value": 0}, "group": "control_change"}, {"time": 879, "annotation": {"number": 64, "value": 127}, "group": "control_change"}, {"time": 897, "annotation": {"number": 64, "value": 0}, "group": "control_change"}, {"time": 903, "annotation": {"number": 64, "value": 127}, "group": "control_change"}, {"time": 920, "annotation": {"number": 64, "value": 0}, "group": "control_change"}, {"time": 927, "annotation": {"number": 64, "value": 127}, "group": "control_change"}, {"time": 944, "annotation": {"number": 64, "value": 0}, "group": "control_change"}, {"time": 950, "annotation": {"number": 64, "value": 127}, "group": "control_change"}, {"time": 967, "annotation": {"number": 64, "value": 0}, "group": "control_change"}, {"time": 974, "annotation": {"number": 64, "value": 127}, "group": "control_change"}, {"time": 992, "annotation": {"number": 64, "value": 0}, "group": "control_change"}, {"time": 999, "annotation": {"number": 64, "value": 127}, "group": "control_change"}, {"time": 1016, "annotation": {"number": 64, "value": 0}, "group": "control_change"}, {"time": 1021, "annotation": {"number": 64, "value": 127}, "group": "control_change"}, {"time": 1040, "annotation": {"number": 64, "value": 0}, "group": "control_change"}, {"time": 1045, "annotation": {"number": 64, "value": 127}, "group": "control_change"}, {"time": 1062, "annotation": {"number": 64, "value": 0}, "group": "control_change"}, {"time": 1065, "annotation": {"number": 64, "value": 127}, "group": "control_change"}, {"time": 1089, "annotation": {"number": 64, "value": 0}, "group": "control_change"}, {"time": 1090, "annotation": {"number": 64, "value": 127}, "group": "control_change"}, {"time": 1110, "annotation": {"number": 64, "value": 0}, "group": "control_change"}, {"time": 1116, "annotation": {"number": 64, "value": 127}, "group": "control_change"}, {"time": 1141, "annotation": {"number": 64, "value": 0}, "group": "control_change"}, {"time": 1143, "annotation": {"number": 64, "value": 127}, "group": "control_change"}, {"time": 1160, "annotation": {"number": 64, "value": 0}, "group": "control_change"}, {"time": 1166, "annotation": {"number": 64, "value": 127}, "group": "control_change"}, {"time": 1211, "annotation": {"number": 64, "value": 0}, "group": "control_change"}, {"time": 1216, "annotation": {"number": 64, "value": 127}, "group": "control_change"}, {"time": 1234, "annotation": {"number": 64, "value": 0}, "group": "control_change"}, {"time": 1238, "annotation": {"number": 64, "value": 127}, "group": "control_change"}, {"time": 1257, "annotation": {"number": 64, "value": 0}, "group": "control_change"}, {"time": 1263, "annotation": {"number": 64, "value": 127}, "group": "control_change"}, {"time": 1282, "annotation": {"number": 64, "value": 0}, "group": "control_change"}, {"time": 1287, "annotation": {"number": 64, "value": 127}, "group": "control_change"}, {"time": 1304, "annotation": {"number": 64, "value": 0}, "group": "control_change"}, {"time": 1311, "annotation": {"number": 64, "value": 127}, "group": "control_change"}, {"time": 1328, "annotation": {"number": 64, "value": 0}, "group": "control_change"}, {"time": 1331, "annotation": {"number": 64, "value": 127}, "group": "control_change"}, {"time": 1351, "annotation": {"number": 64, "value": 0}, "group": "control_change"}, {"time": 1355, "annotation": {"number": 64, "value": 127}, "group": "control_change"}, {"time": 1355, "annotation": {"number": 64, "value": 0}, "group": "control_change"}, {"time": 1376, "annotation": {"number": 64, "value": 0}, "group": "control_change"}, {"time": 1378, "annotation": {"number": 64, "value": 127}, "group": "control_change"}, {"time": 1401, "annotation": {"number": 64, "value": 0}, "group": "control_change"}, {"time": 1407, "annotation": {"number": 64, "value": 127}, "group": "control_change"}, {"time": 1449, "annotation": {"number": 64, "value": 127}, "group": "control_change"}, {"time": 1450, "annotation": {"number": 64, "value": 0}, "group": "control_change"}, {"time": 1450, "annotation": {"number": 64, "value": 127}, "group": "control_change"}, {"time": 1473, "annotation": {"number": 64, "value": 0}, "group": "control_change"}, {"time": 1479, "annotation": {"number": 64, "value": 127}, "group": "control_change"}, {"time": 1496, "annotation": {"number": 64, "value": 0}, "group": "control_change"}, {"time": 1502, "annotation": {"number": 64, "value": 127}, "group": "control_change"}, {"time": 1519, "annotation": {"number": 64, "value": 0}, "group": "control_change"}, {"time": 1525, "annotation": {"number": 64, "value": 127}, "group": "control_change"}, {"time": 1534, "annotation": {"number": 64, "value": 0}, "group": "control_change"}, {"time": 1537, "annotation": {"number": 64, "value": 127}, "group": "control_change"}, {"time": 1546, "annotation": {"number": 64, "value": 0}, "group": "control_change"}, {"time": 1552, "annotation": {"number": 64, "value": 127}, "group": "control_change"}, {"time": 1590, "annotation": {"number": 64, "value": 0}, "group": "control_change"}, {"time": 1616, "annotation": {"number": 64, "value": 0}, "group": "control_change"}, {"time": 1622, "annotation": {"number": 64, "value": 127}, "group": "control_change"}, {"time": 1639, "annotation": {"number": 64, "value": 0}, "group": "control_change"}, {"time": 1647, "annotation": {"number": 64, "value": 127}, "group": "control_change"}, {"time": 1665, "annotation": {"number": 64, "value": 0}, "group": "control_change"}, {"time": 1671, "annotation": {"number": 64, "value": 127}, "group": "control_change"}, {"time": 1688, "annotation": {"number": 64, "value": 0}, "group": "control_change"}, {"time": 1695, "annotation": {"number": 64, "value": 127}, "group": "control_change"}, {"time": 1712, "annotation": {"number": 64, "value": 0}, "group": "control_change"}, {"time": 1718, "annotation": {"number": 64, "value": 127}, "group": "control_change"}, {"time": 1735, "annotation": {"number": 64, "value": 0}, "group": "control_change"}, {"time": 1742, "annotation": {"number": 64, "value": 127}, "group": "control_change"}, {"time": 1760, "annotation": {"number": 64, "value": 0}, "group": "control_change"}, {"time": 1767, "annotation": {"number": 64, "value": 127}, "group": "control_change"}, {"time": 1784, "annotation": {"number": 64, "value": 0}, "group": "control_change"}, {"time": 1789, "annotation": {"number": 64, "value": 127}, "group": "control_change"}, {"time": 1808, "annotation": {"number": 64, "value": 0}, "group": "control_change"}, {"time": 1813, "annotation": {"number": 64, "value": 127}, "group": "control_change"}, {"time": 1830, "annotation": {"number": 64, "value": 0}, "group": "control_change"}, {"time": 1833, "annotation": {"number": 64, "value": 127}, "group": "control_change"}, {"time": 1857, "annotation": {"number": 64, "value": 0}, "group": "control_change"}, {"time": 1858, "annotation": {"number": 64, "value": 127}, "group": "control_change"}, {"time": 1878, "annotation": {"number": 64, "value": 0}, "group": "control_change"}, {"time": 1884, "annotation": {"number": 64, "value": 127}, "group": "control_change"}, {"time": 1909, "annotation": {"number": 64, "value": 0}, "group": "control_change"}, {"time": 1911, "annotation": {"number": 64, "value": 127}, "group": "control_change"}, {"time": 1928, "annotation": {"number": 64, "value": 0}, "group": "control_change"}, {"time": 1934, "annotation": {"number": 64, "value": 127}, "group": "control_change"}, {"time": 1979, "annotation": {"number": 64, "value": 0}, "group": "control_change"}, {"time": 1984, "annotation": {"number": 64, "value": 127}, "group": "control_change"}, {"time": 2002, "annotation": {"number": 64, "value": 0}, "group": "control_change"}, {"time": 2006, "annotation": {"number": 64, "value": 127}, "group": "control_change"}, {"time": 2025, "annotation": {"number": 64, "value": 0}, "group": "control_change"}, {"time": 2031, "annotation": {"number": 64, "value": 127}, "group": "control_change"}, {"time": 2050, "annotation": {"number": 64, "value": 0}, "group": "control_change"}, {"time": 2055, "annotation": {"number": 64, "value": 127}, "group": "control_change"}, {"time": 2072, "annotation": {"number": 64, "value": 0}, "group": "control_change"}, {"time": 2079, "annotation": {"number": 64, "value": 127}, "group": "control_change"}, {"time": 2096, "annotation": {"number": 64, "value": 0}, "group": "control_change"}, {"time": 2099, "annotation": {"number": 64, "value": 127}, "group": "control_change"}, {"time": 2119, "annotation": {"number": 64, "value": 0}, "group": "control_change"}, {"time": 2123, "annotation": {"number": 64, "value": 127}, "group": "control_change"}, {"time": 2123, "annotation": {"number": 64, "value": 0}, "group": "control_change"}, {"time": 2144, "annotation": {"number": 64, "value": 0}, "group": "control_change"}, {"time": 2146, "annotation": {"number": 64, "value": 127}, "group": "control_change"}, {"time": 2169, "annotation": {"number": 64, "value": 0}, "group": "control_change"}, {"time": 2175, "annotation": {"number": 64, "value": 127}, "group": "control_change"}, {"time": 2217, "annotation": {"number": 64, "value": 127}, "group": "control_change"}, {"time": 2218, "annotation": {"number": 64, "value": 0}, "group": "control_change"}, {"time": 2218, "annotation": {"number": 64, "value": 127}, "group": "control_change"}, {"time": 2241, "annotation": {"number": 64, "value": 0}, "group": "control_change"}, {"time": 2247, "annotation": {"number": 64, "value": 127}, "group": "control_change"}, {"time": 2264, "annotation": {"number": 64, "value": 0}, "group": "control_change"}, {"time": 2270, "annotation": {"number": 64, "value": 127}, "group": "control_change"}, {"time": 2287, "annotation": {"number": 64, "value": 0}, "group": "control_change"}, {"time": 2293, "annotation": {"number": 64, "value": 127}, "group": "control_change"}, {"time": 2302, "annotation": {"number": 64, "value": 0}, "group": "control_change"}, {"time": 2305, "annotation": {"number": 64, "value": 127}, "group": "control_change"}, {"time": 2314, "annotation": {"number": 64, "value": 0}, "group": "control_change"}, {"time": 2320, "annotation": {"number": 64, "value": 127}, "group": "control_change"}, {"time": 2358, "annotation": {"number": 64, "value": 0}, "group": "control_change"}, {"time": 2384, "annotation": {"number": 64, "value": 0}, "group": "control_change"}, {"time": 2390, "annotation": {"number": 64, "value": 127}, "group": "control_change"}, {"time": 2407, "annotation": {"number": 64, "value": 0}, "group": "control_change"}, {"time": 2415, "annotation": {"number": 64, "value": 127}, "group": "control_change"}, {"time": 2433, "annotation": {"number": 64, "value": 0}, "group": "control_change"}, {"time": 2439, "annotation": {"number": 64, "value": 127}, "group": "control_change"}, {"time": 2456, "annotation": {"number": 64, "value": 0}, "group": "control_change"}, {"time": 2463, "annotation": {"number": 64, "value": 127}, "group": "control_change"}, {"time": 2480, "annotation": {"number": 64, "value": 0}, "group": "control_change"}, {"time": 2486, "annotation": {"number": 64, "value": 127}, "group": "control_change"}, {"time": 2503, "annotation": {"number": 64, "value": 0}, "group": "control_change"}, {"time": 2510, "annotation": {"number": 64, "value": 127}, "group": "control_change"}, {"time": 2528, "annotation": {"number": 64, "value": 0}, "group": "control_change"}, {"time": 2535, "annotation": {"number": 64, "value": 127}, "group": "control_change"}, {"time": 2552, "annotation": {"number": 64, "value": 0}, "group": "control_change"}, {"time": 2557, "annotation": {"number": 64, "value": 127}, "group": "control_change"}, {"time": 2576, "annotation": {"number": 64, "value": 0}, "group": "control_change"}, {"time": 2581, "annotation": {"number": 64, "value": 127}, "group": "control_change"}, {"time": 2598, "annotation": {"number": 64, "value": 0}, "group": "control_change"}, {"time": 2601, "annotation": {"number": 64, "value": 127}, "group": "control_change"}, {"time": 2625, "annotation": {"number": 64, "value": 0}, "group": "control_change"}, {"time": 2626, "annotation": {"number": 64, "value": 127}, "group": "control_change"}, {"time": 2646, "annotation": {"number": 64, "value": 0}, "group": "control_change"}, {"time": 2652, "annotation": {"number": 64, "value": 127}, "group": "control_change"}, {"time": 2677, "annotation": {"number": 64, "value": 0}, "group": "control_change"}, {"time": 2679, "annotation": {"number": 64, "value": 127}, "group": "control_change"}, {"time": 2696, "annotation": {"number": 64, "value": 0}, "group": "control_change"}, {"time": 2702, "annotation": {"number": 64, "value": 127}, "group": "control_change"}, {"time": 2747, "annotation": {"number": 64, "value": 0}, "group": "control_change"}, {"time": 2752, "annotation": {"number": 64, "value": 127}, "group": "control_change"}, {"time": 2770, "annotation": {"number": 64, "value": 0}, "group": "control_change"}, {"time": 2774, "annotation": {"number": 64, "value": 127}, "group": "control_change"}, {"time": 2793, "annotation": {"number": 64, "value": 0}, "group": "control_change"}, {"time": 2794, "annotation": {"number": 64, "value": 127}, "group": "control_change"}, {"time": 2841, "annotation": {"number": 64, "value": 0}, "group": "control_change"}, {"time": 2846, "annotation": {"number": 64, "value": 127}, "group": "control_change"}, {"time": 2856, "annotation": {"number": 64, "value": 0}, "group": "control_change"}, {"time": 2860, "annotation": {"number": 64, "value": 127}, "group": "control_change"}, {"time": 2871, "annotation": {"number": 64, "value": 0}, "group": "control_change"}, {"time": 2876, "annotation": {"number": 64, "value": 127}, "group": "control_change"}, {"time": 2876, "annotation": {"number": 64, "value": 0}, "group": "control_change"}, {"time": 2887, "annotation": {"number": 64, "value": 0}, "group": "control_change"}, {"time": 2890, "annotation": {"number": 64, "value": 127}, "group": "control_change"}, {"time": 2918, "annotation": {"number": 64, "value": 0}, "group": "control_change"}, {"time": 2922, "annotation": {"number": 64, "value": 127}, "group": "control_change"}]}]}