{"metadata": {"schema_version": "0.2", "title": "None", "source_filename": "501.mid", "source_format": "midi"}, "resolution": 12, "tempos": [{"time": 0, "qpm": 128.0}], "time_signatures": [{"time": 0, "numerator": 1, "denominator": 4}], "tracks": [{"program": 0, "is_drum": false, "name": "MELODY", "notes": [{"time": 1010, "pitch": 64, "duration": 5, "velocity": 90}, {"time": 1016, "pitch": 67, "duration": 9, "velocity": 78}, {"time": 1028, "pitch": 71, "duration": 9, "velocity": 87}, {"time": 1040, "pitch": 71, "duration": 4, "velocity": 88}, {"time": 1046, "pitch": 69, "duration": 5, "velocity": 83}, {"time": 1052, "pitch": 67, "duration": 3, "velocity": 84}, {"time": 1061, "pitch": 66, "duration": 4, "velocity": 90}, {"time": 1064, "pitch": 66, "duration": 1, "velocity": 78}, {"time": 1067, "pitch": 66, "duration": 8, "velocity": 78}, {"time": 1076, "pitch": 62, "duration": 6, "velocity": 85}, {"time": 1106, "pitch": 62, "duration": 6, "velocity": 89}, {"time": 1112, "pitch": 66, "duration": 7, "velocity": 86}, {"time": 1124, "pitch": 69, "duration": 7, "velocity": 84}, {"time": 1136, "pitch": 62, "duration": 3, "velocity": 84}, {"time": 1142, "pitch": 66, "duration": 4, "velocity": 82}, {"time": 1148, "pitch": 69, "duration": 3, "velocity": 84}, {"time": 1154, "pitch": 71, "duration": 5, "velocity": 85}, {"time": 1160, "pitch": 72, "duration": 3, "velocity": 84}, {"time": 1163, "pitch": 71, "duration": 4, "velocity": 79}, {"time": 1172, "pitch": 69, "duration": 5, "velocity": 84}, {"time": 1178, "pitch": 71, "duration": 16, "velocity": 84}, {"time": 1202, "pitch": 64, "duration": 3, "velocity": 90}, {"time": 1208, "pitch": 67, "duration": 10, "velocity": 86}, {"time": 1220, "pitch": 71, "duration": 8, "velocity": 87}, {"time": 1232, "pitch": 76, "duration": 5, "velocity": 84}, {"time": 1238, "pitch": 74, "duration": 3, "velocity": 90}, {"time": 1244, "pitch": 71, "duration": 3, "velocity": 84}, {"time": 1250, "pitch": 69, "duration": 5, "velocity": 85}, {"time": 1259, "pitch": 71, "duration": 3, "velocity": 78}, {"time": 1262, "pitch": 69, "duration": 4, "velocity": 82}, {"time": 1268, "pitch": 67, "duration": 3, "velocity": 86}, {"time": 1274, "pitch": 64, "duration": 9, "velocity": 90}, {"time": 1286, "pitch": 64, "duration": 4, "velocity": 88}, {"time": 1292, "pitch": 66, "duration": 4, "velocity": 83}, {"time": 1298, "pitch": 67, "duration": 9, "velocity": 82}, {"time": 1307, "pitch": 64, "duration": 6, "velocity": 90}, {"time": 1316, "pitch": 67, "duration": 4, "velocity": 80}, {"time": 1322, "pitch": 69, "duration": 7, "velocity": 85}, {"time": 1331, "pitch": 71, "duration": 7, "velocity": 86}, {"time": 1340, "pitch": 62, "duration": 5, "velocity": 85}, {"time": 1346, "pitch": 64, "duration": 29, "velocity": 85}, {"time": 1394, "pitch": 64, "duration": 5, "velocity": 90}, {"time": 1400, "pitch": 67, "duration": 9, "velocity": 78}, {"time": 1412, "pitch": 71, "duration": 9, "velocity": 87}, {"time": 1424, "pitch": 71, "duration": 4, "velocity": 88}, {"time": 1430, "pitch": 69, "duration": 5, "velocity": 83}, {"time": 1436, "pitch": 67, "duration": 3, "velocity": 84}, {"time": 1445, "pitch": 66, "duration": 4, "velocity": 90}, {"time": 1448, "pitch": 66, "duration": 1, "velocity": 78}, {"time": 1451, "pitch": 66, "duration": 8, "velocity": 78}, {"time": 1460, "pitch": 62, "duration": 6, "velocity": 85}, {"time": 1490, "pitch": 62, "duration": 6, "velocity": 89}, {"time": 1496, "pitch": 66, "duration": 7, "velocity": 86}, {"time": 1508, "pitch": 69, "duration": 7, "velocity": 84}, {"time": 1520, "pitch": 62, "duration": 3, "velocity": 84}, {"time": 1526, "pitch": 66, "duration": 4, "velocity": 82}, {"time": 1532, "pitch": 69, "duration": 3, "velocity": 84}, {"time": 1538, "pitch": 71, "duration": 5, "velocity": 85}, {"time": 1544, "pitch": 72, "duration": 3, "velocity": 84}, {"time": 1547, "pitch": 71, "duration": 4, "velocity": 79}, {"time": 1556, "pitch": 69, "duration": 5, "velocity": 84}, {"time": 1562, "pitch": 71, "duration": 16, "velocity": 84}, {"time": 1586, "pitch": 64, "duration": 3, "velocity": 90}, {"time": 1592, "pitch": 67, "duration": 10, "velocity": 86}, {"time": 1604, "pitch": 71, "duration": 8, "velocity": 87}, {"time": 1616, "pitch": 76, "duration": 5, "velocity": 84}, {"time": 1622, "pitch": 74, "duration": 3, "velocity": 90}, {"time": 1628, "pitch": 71, "duration": 3, "velocity": 84}, {"time": 1634, "pitch": 69, "duration": 5, "velocity": 85}, {"time": 1643, "pitch": 71, "duration": 3, "velocity": 78}, {"time": 1646, "pitch": 69, "duration": 4, "velocity": 82}, {"time": 1652, "pitch": 67, "duration": 3, "velocity": 86}, {"time": 1658, "pitch": 64, "duration": 9, "velocity": 90}, {"time": 1670, "pitch": 64, "duration": 4, "velocity": 88}, {"time": 1676, "pitch": 66, "duration": 4, "velocity": 83}, {"time": 1682, "pitch": 67, "duration": 9, "velocity": 82}, {"time": 1691, "pitch": 66, "duration": 6, "velocity": 90}, {"time": 1700, "pitch": 67, "duration": 4, "velocity": 80}, {"time": 1706, "pitch": 69, "duration": 7, "velocity": 85}, {"time": 1715, "pitch": 71, "duration": 7, "velocity": 86}, {"time": 1724, "pitch": 62, "duration": 5, "velocity": 85}, {"time": 1730, "pitch": 64, "duration": 29, "velocity": 85}, {"time": 1760, "pitch": 71, "duration": 3, "velocity": 92}, {"time": 1766, "pitch": 71, "duration": 5, "velocity": 85}, {"time": 1772, "pitch": 74, "duration": 4, "velocity": 89}, {"time": 1778, "pitch": 76, "duration": 7, "velocity": 83}, {"time": 1787, "pitch": 74, "duration": 6, "velocity": 88}, {"time": 1796, "pitch": 76, "duration": 4, "velocity": 84}, {"time": 1802, "pitch": 78, "duration": 7, "velocity": 84}, {"time": 1811, "pitch": 76, "duration": 5, "velocity": 84}, {"time": 1820, "pitch": 78, "duration": 4, "velocity": 87}, {"time": 1826, "pitch": 79, "duration": 6, "velocity": 84}, {"time": 1835, "pitch": 78, "duration": 6, "velocity": 84}, {"time": 1844, "pitch": 74, "duration": 5, "velocity": 81}, {"time": 1850, "pitch": 76, "duration": 7, "velocity": 84}, {"time": 1862, "pitch": 76, "duration": 4, "velocity": 85}, {"time": 1868, "pitch": 78, "duration": 4, "velocity": 78}, {"time": 1874, "pitch": 79, "duration": 6, "velocity": 84}, {"time": 1883, "pitch": 78, "duration": 5, "velocity": 84}, {"time": 1892, "pitch": 74, "duration": 4, "velocity": 86}, {"time": 1898, "pitch": 69, "duration": 7, "velocity": 85}, {"time": 1907, "pitch": 71, "duration": 6, "velocity": 85}, {"time": 1916, "pitch": 74, "duration": 5, "velocity": 85}, {"time": 1922, "pitch": 71, "duration": 26, "velocity": 87}, {"time": 1952, "pitch": 71, "duration": 3, "velocity": 85}, {"time": 1958, "pitch": 71, "duration": 4, "velocity": 87}, {"time": 1964, "pitch": 74, "duration": 4, "velocity": 88}, {"time": 1970, "pitch": 76, "duration": 7, "velocity": 87}, {"time": 1979, "pitch": 74, "duration": 4, "velocity": 85}, {"time": 1988, "pitch": 76, "duration": 4, "velocity": 84}, {"time": 1994, "pitch": 78, "duration": 7, "velocity": 87}, {"time": 2003, "pitch": 76, "duration": 5, "velocity": 85}, {"time": 2012, "pitch": 78, "duration": 4, "velocity": 85}, {"time": 2018, "pitch": 79, "duration": 6, "velocity": 85}, {"time": 2027, "pitch": 78, "duration": 7, "velocity": 92}, {"time": 2036, "pitch": 79, "duration": 4, "velocity": 87}, {"time": 2042, "pitch": 83, "duration": 7, "velocity": 84}, {"time": 2054, "pitch": 76, "duration": 4, "velocity": 87}, {"time": 2060, "pitch": 74, "duration": 4, "velocity": 90}, {"time": 2066, "pitch": 76, "duration": 4, "velocity": 87}, {"time": 2072, "pitch": 83, "duration": 4, "velocity": 84}, {"time": 2078, "pitch": 76, "duration": 3, "velocity": 83}, {"time": 2084, "pitch": 74, "duration": 3, "velocity": 87}, {"time": 2090, "pitch": 76, "duration": 9, "velocity": 85}, {"time": 2102, "pitch": 79, "duration": 15, "velocity": 83}, {"time": 2120, "pitch": 76, "duration": 36, "velocity": 87}, {"time": 2546, "pitch": 64, "duration": 5, "velocity": 90}, {"time": 2552, "pitch": 67, "duration": 9, "velocity": 78}, {"time": 2564, "pitch": 71, "duration": 9, "velocity": 87}, {"time": 2576, "pitch": 71, "duration": 4, "velocity": 88}, {"time": 2582, "pitch": 69, "duration": 5, "velocity": 83}, {"time": 2588, "pitch": 67, "duration": 3, "velocity": 84}, {"time": 2597, "pitch": 66, "duration": 4, "velocity": 90}, {"time": 2600, "pitch": 66, "duration": 1, "velocity": 78}, {"time": 2603, "pitch": 66, "duration": 8, "velocity": 78}, {"time": 2612, "pitch": 62, "duration": 6, "velocity": 85}, {"time": 2642, "pitch": 62, "duration": 6, "velocity": 89}, {"time": 2648, "pitch": 66, "duration": 7, "velocity": 86}, {"time": 2660, "pitch": 69, "duration": 7, "velocity": 84}, {"time": 2672, "pitch": 62, "duration": 3, "velocity": 84}, {"time": 2678, "pitch": 66, "duration": 4, "velocity": 82}, {"time": 2684, "pitch": 69, "duration": 3, "velocity": 84}, {"time": 2690, "pitch": 71, "duration": 5, "velocity": 85}, {"time": 2696, "pitch": 72, "duration": 3, "velocity": 84}, {"time": 2699, "pitch": 71, "duration": 4, "velocity": 79}, {"time": 2708, "pitch": 69, "duration": 5, "velocity": 84}, {"time": 2714, "pitch": 71, "duration": 16, "velocity": 84}, {"time": 2738, "pitch": 64, "duration": 3, "velocity": 90}, {"time": 2744, "pitch": 67, "duration": 10, "velocity": 86}, {"time": 2756, "pitch": 71, "duration": 8, "velocity": 87}, {"time": 2768, "pitch": 76, "duration": 5, "velocity": 84}, {"time": 2774, "pitch": 74, "duration": 3, "velocity": 90}, {"time": 2780, "pitch": 71, "duration": 3, "velocity": 84}, {"time": 2786, "pitch": 69, "duration": 5, "velocity": 85}, {"time": 2795, "pitch": 71, "duration": 3, "velocity": 78}, {"time": 2798, "pitch": 69, "duration": 4, "velocity": 82}, {"time": 2804, "pitch": 67, "duration": 3, "velocity": 86}, {"time": 2810, "pitch": 64, "duration": 9, "velocity": 90}, {"time": 2822, "pitch": 64, "duration": 4, "velocity": 88}, {"time": 2828, "pitch": 66, "duration": 4, "velocity": 83}, {"time": 2834, "pitch": 67, "duration": 9, "velocity": 82}, {"time": 2843, "pitch": 64, "duration": 6, "velocity": 90}, {"time": 2852, "pitch": 67, "duration": 4, "velocity": 80}, {"time": 2858, "pitch": 69, "duration": 7, "velocity": 85}, {"time": 2867, "pitch": 71, "duration": 7, "velocity": 86}, {"time": 2876, "pitch": 62, "duration": 5, "velocity": 85}, {"time": 2882, "pitch": 64, "duration": 29, "velocity": 85}, {"time": 2930, "pitch": 64, "duration": 5, "velocity": 90}, {"time": 2936, "pitch": 67, "duration": 9, "velocity": 78}, {"time": 2948, "pitch": 71, "duration": 9, "velocity": 87}, {"time": 2960, "pitch": 71, "duration": 4, "velocity": 88}, {"time": 2966, "pitch": 69, "duration": 5, "velocity": 83}, {"time": 2972, "pitch": 67, "duration": 3, "velocity": 84}, {"time": 2981, "pitch": 66, "duration": 4, "velocity": 90}, {"time": 2984, "pitch": 66, "duration": 1, "velocity": 78}, {"time": 2987, "pitch": 66, "duration": 8, "velocity": 78}, {"time": 2996, "pitch": 62, "duration": 6, "velocity": 85}, {"time": 3026, "pitch": 62, "duration": 6, "velocity": 89}, {"time": 3032, "pitch": 66, "duration": 7, "velocity": 86}, {"time": 3044, "pitch": 69, "duration": 7, "velocity": 84}, {"time": 3056, "pitch": 62, "duration": 3, "velocity": 84}, {"time": 3062, "pitch": 66, "duration": 4, "velocity": 82}, {"time": 3068, "pitch": 69, "duration": 3, "velocity": 84}, {"time": 3074, "pitch": 71, "duration": 5, "velocity": 85}, {"time": 3080, "pitch": 72, "duration": 3, "velocity": 84}, {"time": 3083, "pitch": 71, "duration": 4, "velocity": 79}, {"time": 3092, "pitch": 69, "duration": 5, "velocity": 84}, {"time": 3098, "pitch": 71, "duration": 16, "velocity": 84}, {"time": 3122, "pitch": 64, "duration": 3, "velocity": 90}, {"time": 3128, "pitch": 67, "duration": 10, "velocity": 86}, {"time": 3140, "pitch": 71, "duration": 8, "velocity": 87}, {"time": 3152, "pitch": 76, "duration": 5, "velocity": 84}, {"time": 3158, "pitch": 74, "duration": 3, "velocity": 90}, {"time": 3164, "pitch": 71, "duration": 3, "velocity": 84}, {"time": 3170, "pitch": 69, "duration": 5, "velocity": 85}, {"time": 3179, "pitch": 71, "duration": 3, "velocity": 78}, {"time": 3182, "pitch": 69, "duration": 4, "velocity": 82}, {"time": 3188, "pitch": 67, "duration": 3, "velocity": 86}, {"time": 3194, "pitch": 64, "duration": 9, "velocity": 90}, {"time": 3206, "pitch": 64, "duration": 4, "velocity": 88}, {"time": 3212, "pitch": 66, "duration": 4, "velocity": 83}, {"time": 3218, "pitch": 67, "duration": 9, "velocity": 82}, {"time": 3227, "pitch": 66, "duration": 6, "velocity": 90}, {"time": 3236, "pitch": 67, "duration": 4, "velocity": 80}, {"time": 3242, "pitch": 69, "duration": 7, "velocity": 85}, {"time": 3251, "pitch": 71, "duration": 7, "velocity": 86}, {"time": 3260, "pitch": 62, "duration": 5, "velocity": 85}, {"time": 3266, "pitch": 64, "duration": 29, "velocity": 85}, {"time": 3296, "pitch": 71, "duration": 3, "velocity": 92}, {"time": 3302, "pitch": 71, "duration": 5, "velocity": 85}, {"time": 3308, "pitch": 74, "duration": 4, "velocity": 89}, {"time": 3314, "pitch": 76, "duration": 7, "velocity": 83}, {"time": 3323, "pitch": 74, "duration": 6, "velocity": 88}, {"time": 3332, "pitch": 76, "duration": 4, "velocity": 84}, {"time": 3338, "pitch": 78, "duration": 7, "velocity": 84}, {"time": 3347, "pitch": 76, "duration": 5, "velocity": 84}, {"time": 3356, "pitch": 78, "duration": 4, "velocity": 87}, {"time": 3362, "pitch": 79, "duration": 6, "velocity": 84}, {"time": 3371, "pitch": 78, "duration": 6, "velocity": 84}, {"time": 3380, "pitch": 74, "duration": 5, "velocity": 81}, {"time": 3386, "pitch": 76, "duration": 7, "velocity": 84}, {"time": 3398, "pitch": 76, "duration": 4, "velocity": 85}, {"time": 3404, "pitch": 78, "duration": 4, "velocity": 78}, {"time": 3410, "pitch": 79, "duration": 6, "velocity": 84}, {"time": 3419, "pitch": 78, "duration": 5, "velocity": 84}, {"time": 3428, "pitch": 74, "duration": 4, "velocity": 86}, {"time": 3434, "pitch": 69, "duration": 7, "velocity": 85}, {"time": 3443, "pitch": 71, "duration": 6, "velocity": 85}, {"time": 3452, "pitch": 74, "duration": 5, "velocity": 85}, {"time": 3458, "pitch": 71, "duration": 26, "velocity": 87}, {"time": 3488, "pitch": 71, "duration": 3, "velocity": 85}, {"time": 3494, "pitch": 71, "duration": 4, "velocity": 87}, {"time": 3500, "pitch": 74, "duration": 4, "velocity": 88}, {"time": 3506, "pitch": 76, "duration": 7, "velocity": 87}, {"time": 3515, "pitch": 74, "duration": 4, "velocity": 85}, {"time": 3524, "pitch": 76, "duration": 4, "velocity": 84}, {"time": 3530, "pitch": 78, "duration": 7, "velocity": 87}, {"time": 3539, "pitch": 76, "duration": 5, "velocity": 85}, {"time": 3548, "pitch": 78, "duration": 4, "velocity": 85}, {"time": 3554, "pitch": 79, "duration": 6, "velocity": 85}, {"time": 3563, "pitch": 78, "duration": 7, "velocity": 92}, {"time": 3572, "pitch": 79, "duration": 4, "velocity": 87}, {"time": 3578, "pitch": 83, "duration": 7, "velocity": 84}, {"time": 3590, "pitch": 76, "duration": 4, "velocity": 87}, {"time": 3596, "pitch": 74, "duration": 4, "velocity": 90}, {"time": 3602, "pitch": 76, "duration": 4, "velocity": 87}, {"time": 3608, "pitch": 83, "duration": 4, "velocity": 84}, {"time": 3614, "pitch": 76, "duration": 3, "velocity": 83}, {"time": 3620, "pitch": 74, "duration": 3, "velocity": 87}, {"time": 3626, "pitch": 76, "duration": 9, "velocity": 85}, {"time": 3638, "pitch": 79, "duration": 15, "velocity": 83}, {"time": 3656, "pitch": 76, "duration": 36, "velocity": 87}, {"time": 4640, "pitch": 71, "duration": 3, "velocity": 92}, {"time": 4646, "pitch": 71, "duration": 5, "velocity": 85}, {"time": 4652, "pitch": 74, "duration": 4, "velocity": 89}, {"time": 4658, "pitch": 76, "duration": 7, "velocity": 83}, {"time": 4667, "pitch": 74, "duration": 6, "velocity": 88}, {"time": 4676, "pitch": 76, "duration": 4, "velocity": 84}, {"time": 4682, "pitch": 78, "duration": 7, "velocity": 84}, {"time": 4691, "pitch": 76, "duration": 5, "velocity": 84}, {"time": 4700, "pitch": 78, "duration": 4, "velocity": 87}, {"time": 4706, "pitch": 79, "duration": 6, "velocity": 84}, {"time": 4715, "pitch": 78, "duration": 6, "velocity": 84}, {"time": 4724, "pitch": 74, "duration": 5, "velocity": 81}, {"time": 4730, "pitch": 76, "duration": 7, "velocity": 84}, {"time": 4742, "pitch": 76, "duration": 4, "velocity": 85}, {"time": 4748, "pitch": 78, "duration": 4, "velocity": 78}, {"time": 4754, "pitch": 79, "duration": 6, "velocity": 84}, {"time": 4763, "pitch": 78, "duration": 5, "velocity": 84}, {"time": 4772, "pitch": 74, "duration": 4, "velocity": 86}, {"time": 4778, "pitch": 69, "duration": 7, "velocity": 85}, {"time": 4787, "pitch": 71, "duration": 6, "velocity": 85}, {"time": 4796, "pitch": 74, "duration": 5, "velocity": 85}, {"time": 4802, "pitch": 71, "duration": 26, "velocity": 87}, {"time": 4832, "pitch": 71, "duration": 3, "velocity": 85}, {"time": 4838, "pitch": 71, "duration": 4, "velocity": 87}, {"time": 4844, "pitch": 74, "duration": 4, "velocity": 88}, {"time": 4850, "pitch": 76, "duration": 7, "velocity": 87}, {"time": 4859, "pitch": 74, "duration": 4, "velocity": 85}, {"time": 4868, "pitch": 76, "duration": 4, "velocity": 84}, {"time": 4874, "pitch": 78, "duration": 7, "velocity": 87}, {"time": 4883, "pitch": 76, "duration": 5, "velocity": 85}, {"time": 4892, "pitch": 78, "duration": 4, "velocity": 85}, {"time": 4898, "pitch": 79, "duration": 6, "velocity": 85}, {"time": 4907, "pitch": 78, "duration": 7, "velocity": 92}, {"time": 4916, "pitch": 79, "duration": 4, "velocity": 87}, {"time": 4922, "pitch": 83, "duration": 7, "velocity": 84}, {"time": 4934, "pitch": 76, "duration": 4, "velocity": 87}, {"time": 4940, "pitch": 74, "duration": 4, "velocity": 90}, {"time": 4946, "pitch": 76, "duration": 4, "velocity": 87}, {"time": 4952, "pitch": 83, "duration": 4, "velocity": 84}, {"time": 4958, "pitch": 76, "duration": 3, "velocity": 83}, {"time": 4964, "pitch": 74, "duration": 3, "velocity": 87}, {"time": 4970, "pitch": 76, "duration": 9, "velocity": 85}, {"time": 4982, "pitch": 79, "duration": 15, "velocity": 83}, {"time": 5000, "pitch": 76, "duration": 18, "velocity": 87}, {"time": 5024, "pitch": 71, "duration": 3, "velocity": 92}, {"time": 5030, "pitch": 71, "duration": 5, "velocity": 85}, {"time": 5036, "pitch": 74, "duration": 4, "velocity": 89}, {"time": 5042, "pitch": 76, "duration": 7, "velocity": 83}, {"time": 5051, "pitch": 74, "duration": 6, "velocity": 88}, {"time": 5060, "pitch": 76, "duration": 4, "velocity": 84}, {"time": 5066, "pitch": 78, "duration": 7, "velocity": 84}, {"time": 5075, "pitch": 76, "duration": 5, "velocity": 84}, {"time": 5084, "pitch": 78, "duration": 4, "velocity": 87}, {"time": 5090, "pitch": 79, "duration": 6, "velocity": 84}, {"time": 5099, "pitch": 78, "duration": 6, "velocity": 84}, {"time": 5108, "pitch": 74, "duration": 5, "velocity": 81}, {"time": 5114, "pitch": 76, "duration": 7, "velocity": 84}, {"time": 5126, "pitch": 76, "duration": 4, "velocity": 85}, {"time": 5132, "pitch": 78, "duration": 4, "velocity": 78}, {"time": 5138, "pitch": 79, "duration": 6, "velocity": 84}, {"time": 5147, "pitch": 78, "duration": 5, "velocity": 84}, {"time": 5156, "pitch": 74, "duration": 4, "velocity": 86}, {"time": 5162, "pitch": 69, "duration": 7, "velocity": 85}, {"time": 5171, "pitch": 71, "duration": 6, "velocity": 85}, {"time": 5180, "pitch": 74, "duration": 5, "velocity": 85}, {"time": 5186, "pitch": 71, "duration": 26, "velocity": 87}, {"time": 5216, "pitch": 71, "duration": 3, "velocity": 85}, {"time": 5222, "pitch": 71, "duration": 4, "velocity": 87}, {"time": 5228, "pitch": 74, "duration": 4, "velocity": 88}, {"time": 5234, "pitch": 76, "duration": 7, "velocity": 87}, {"time": 5243, "pitch": 74, "duration": 4, "velocity": 85}, {"time": 5252, "pitch": 76, "duration": 4, "velocity": 84}, {"time": 5258, "pitch": 78, "duration": 7, "velocity": 87}, {"time": 5267, "pitch": 76, "duration": 5, "velocity": 85}, {"time": 5276, "pitch": 78, "duration": 4, "velocity": 85}, {"time": 5282, "pitch": 79, "duration": 6, "velocity": 85}, {"time": 5291, "pitch": 78, "duration": 7, "velocity": 92}, {"time": 5300, "pitch": 79, "duration": 4, "velocity": 87}, {"time": 5306, "pitch": 83, "duration": 7, "velocity": 84}, {"time": 5318, "pitch": 76, "duration": 4, "velocity": 87}, {"time": 5324, "pitch": 74, "duration": 4, "velocity": 90}, {"time": 5330, "pitch": 76, "duration": 4, "velocity": 87}, {"time": 5336, "pitch": 83, "duration": 4, "velocity": 84}, {"time": 5342, "pitch": 76, "duration": 3, "velocity": 83}, {"time": 5348, "pitch": 74, "duration": 3, "velocity": 87}, {"time": 5354, "pitch": 76, "duration": 9, "velocity": 85}, {"time": 5366, "pitch": 79, "duration": 15, "velocity": 83}, {"time": 5384, "pitch": 76, "duration": 36, "velocity": 87}]}, {"program": 0, "is_drum": false, "name": "PIANO", "notes": [{"time": 47, "pitch": 52, "duration": 18, "velocity": 74}, {"time": 50, "pitch": 55, "duration": 14, "velocity": 64}, {"time": 50, "pitch": 64, "duration": 14, "velocity": 84}, {"time": 50, "pitch": 40, "duration": 41, "velocity": 87}, {"time": 68, "pitch": 52, "duration": 3, "velocity": 84}, {"time": 68, "pitch": 55, "duration": 3, "velocity": 85}, {"time": 68, "pitch": 64, "duration": 3, "velocity": 86}, {"time": 86, "pitch": 64, "duration": 2, "velocity": 84}, {"time": 86, "pitch": 52, "duration": 3, "velocity": 83}, {"time": 86, "pitch": 55, "duration": 3, "velocity": 83}, {"time": 104, "pitch": 64, "duration": 3, "velocity": 89}, {"time": 104, "pitch": 52, "duration": 3, "velocity": 88}, {"time": 104, "pitch": 55, "duration": 3, "velocity": 89}, {"time": 116, "pitch": 40, "duration": 6, "velocity": 81}, {"time": 122, "pitch": 52, "duration": 3, "velocity": 86}, {"time": 122, "pitch": 55, "duration": 3, "velocity": 87}, {"time": 123, "pitch": 64, "duration": 3, "velocity": 86}, {"time": 134, "pitch": 52, "duration": 2, "velocity": 84}, {"time": 134, "pitch": 55, "duration": 2, "velocity": 85}, {"time": 135, "pitch": 64, "duration": 2, "velocity": 85}, {"time": 143, "pitch": 52, "duration": 9, "velocity": 76}, {"time": 146, "pitch": 55, "duration": 7, "velocity": 83}, {"time": 146, "pitch": 40, "duration": 40, "velocity": 89}, {"time": 147, "pitch": 64, "duration": 6, "velocity": 83}, {"time": 164, "pitch": 64, "duration": 2, "velocity": 85}, {"time": 164, "pitch": 52, "duration": 2, "velocity": 82}, {"time": 164, "pitch": 55, "duration": 2, "velocity": 81}, {"time": 182, "pitch": 64, "duration": 3, "velocity": 86}, {"time": 182, "pitch": 52, "duration": 3, "velocity": 87}, {"time": 182, "pitch": 55, "duration": 3, "velocity": 86}, {"time": 194, "pitch": 40, "duration": 17, "velocity": 84}, {"time": 200, "pitch": 64, "duration": 2, "velocity": 88}, {"time": 200, "pitch": 52, "duration": 2, "velocity": 87}, {"time": 200, "pitch": 55, "duration": 2, "velocity": 88}, {"time": 212, "pitch": 40, "duration": 8, "velocity": 90}, {"time": 218, "pitch": 52, "duration": 2, "velocity": 89}, {"time": 218, "pitch": 55, "duration": 2, "velocity": 87}, {"time": 219, "pitch": 64, "duration": 2, "velocity": 92}, {"time": 230, "pitch": 52, "duration": 2, "velocity": 89}, {"time": 230, "pitch": 55, "duration": 3, "velocity": 87}, {"time": 230, "pitch": 64, "duration": 4, "velocity": 86}, {"time": 236, "pitch": 52, "duration": 5, "velocity": 94}, {"time": 236, "pitch": 64, "duration": 2, "velocity": 71}, {"time": 239, "pitch": 52, "duration": 2, "velocity": 74}, {"time": 242, "pitch": 55, "duration": 14, "velocity": 64}, {"time": 242, "pitch": 64, "duration": 14, "velocity": 84}, {"time": 242, "pitch": 40, "duration": 41, "velocity": 87}, {"time": 260, "pitch": 52, "duration": 3, "velocity": 84}, {"time": 260, "pitch": 55, "duration": 3, "velocity": 85}, {"time": 260, "pitch": 64, "duration": 3, "velocity": 86}, {"time": 278, "pitch": 64, "duration": 2, "velocity": 84}, {"time": 278, "pitch": 52, "duration": 3, "velocity": 83}, {"time": 278, "pitch": 55, "duration": 3, "velocity": 83}, {"time": 296, "pitch": 64, "duration": 3, "velocity": 89}, {"time": 296, "pitch": 52, "duration": 3, "velocity": 88}, {"time": 296, "pitch": 55, "duration": 3, "velocity": 89}, {"time": 308, "pitch": 40, "duration": 6, "velocity": 81}, {"time": 314, "pitch": 52, "duration": 3, "velocity": 86}, {"time": 314, "pitch": 55, "duration": 3, "velocity": 87}, {"time": 315, "pitch": 64, "duration": 3, "velocity": 86}, {"time": 326, "pitch": 52, "duration": 2, "velocity": 84}, {"time": 326, "pitch": 55, "duration": 2, "velocity": 85}, {"time": 327, "pitch": 64, "duration": 2, "velocity": 85}, {"time": 335, "pitch": 52, "duration": 9, "velocity": 76}, {"time": 338, "pitch": 55, "duration": 7, "velocity": 83}, {"time": 338, "pitch": 40, "duration": 40, "velocity": 89}, {"time": 339, "pitch": 64, "duration": 6, "velocity": 83}, {"time": 356, "pitch": 64, "duration": 2, "velocity": 85}, {"time": 356, "pitch": 52, "duration": 2, "velocity": 82}, {"time": 356, "pitch": 55, "duration": 2, "velocity": 81}, {"time": 374, "pitch": 64, "duration": 3, "velocity": 86}, {"time": 374, "pitch": 52, "duration": 3, "velocity": 87}, {"time": 374, "pitch": 55, "duration": 3, "velocity": 86}, {"time": 386, "pitch": 40, "duration": 17, "velocity": 84}, {"time": 392, "pitch": 64, "duration": 2, "velocity": 88}, {"time": 392, "pitch": 52, "duration": 2, "velocity": 87}, {"time": 392, "pitch": 55, "duration": 2, "velocity": 88}, {"time": 404, "pitch": 40, "duration": 8, "velocity": 90}, {"time": 410, "pitch": 52, "duration": 2, "velocity": 89}, {"time": 410, "pitch": 55, "duration": 2, "velocity": 87}, {"time": 411, "pitch": 64, "duration": 2, "velocity": 92}, {"time": 422, "pitch": 52, "duration": 2, "velocity": 89}, {"time": 422, "pitch": 55, "duration": 3, "velocity": 87}, {"time": 422, "pitch": 64, "duration": 4, "velocity": 86}, {"time": 428, "pitch": 52, "duration": 5, "velocity": 94}, {"time": 428, "pitch": 64, "duration": 2, "velocity": 71}, {"time": 431, "pitch": 52, "duration": 2, "velocity": 74}, {"time": 434, "pitch": 55, "duration": 14, "velocity": 64}, {"time": 434, "pitch": 64, "duration": 14, "velocity": 84}, {"time": 434, "pitch": 40, "duration": 41, "velocity": 87}, {"time": 452, "pitch": 52, "duration": 3, "velocity": 84}, {"time": 452, "pitch": 55, "duration": 3, "velocity": 85}, {"time": 452, "pitch": 64, "duration": 3, "velocity": 86}, {"time": 470, "pitch": 64, "duration": 2, "velocity": 84}, {"time": 470, "pitch": 52, "duration": 3, "velocity": 83}, {"time": 470, "pitch": 55, "duration": 3, "velocity": 83}, {"time": 488, "pitch": 64, "duration": 3, "velocity": 89}, {"time": 488, "pitch": 52, "duration": 3, "velocity": 88}, {"time": 488, "pitch": 55, "duration": 3, "velocity": 89}, {"time": 500, "pitch": 40, "duration": 6, "velocity": 81}, {"time": 506, "pitch": 52, "duration": 3, "velocity": 86}, {"time": 506, "pitch": 55, "duration": 3, "velocity": 87}, {"time": 507, "pitch": 64, "duration": 3, "velocity": 86}, {"time": 518, "pitch": 52, "duration": 2, "velocity": 84}, {"time": 518, "pitch": 55, "duration": 2, "velocity": 85}, {"time": 519, "pitch": 64, "duration": 2, "velocity": 85}, {"time": 527, "pitch": 52, "duration": 9, "velocity": 76}, {"time": 530, "pitch": 55, "duration": 7, "velocity": 83}, {"time": 530, "pitch": 40, "duration": 40, "velocity": 89}, {"time": 531, "pitch": 64, "duration": 6, "velocity": 83}, {"time": 548, "pitch": 64, "duration": 2, "velocity": 85}, {"time": 548, "pitch": 52, "duration": 2, "velocity": 82}, {"time": 548, "pitch": 55, "duration": 2, "velocity": 81}, {"time": 566, "pitch": 64, "duration": 3, "velocity": 86}, {"time": 566, "pitch": 52, "duration": 3, "velocity": 87}, {"time": 566, "pitch": 55, "duration": 3, "velocity": 86}, {"time": 578, "pitch": 40, "duration": 17, "velocity": 84}, {"time": 584, "pitch": 64, "duration": 2, "velocity": 88}, {"time": 584, "pitch": 52, "duration": 2, "velocity": 87}, {"time": 584, "pitch": 55, "duration": 2, "velocity": 88}, {"time": 596, "pitch": 40, "duration": 8, "velocity": 90}, {"time": 602, "pitch": 52, "duration": 2, "velocity": 89}, {"time": 602, "pitch": 55, "duration": 2, "velocity": 87}, {"time": 603, "pitch": 64, "duration": 2, "velocity": 92}, {"time": 614, "pitch": 52, "duration": 2, "velocity": 89}, {"time": 614, "pitch": 55, "duration": 3, "velocity": 87}, {"time": 614, "pitch": 64, "duration": 4, "velocity": 86}, {"time": 620, "pitch": 52, "duration": 5, "velocity": 94}, {"time": 620, "pitch": 64, "duration": 2, "velocity": 71}, {"time": 626, "pitch": 52, "duration": 15, "velocity": 90}, {"time": 626, "pitch": 64, "duration": 15, "velocity": 84}, {"time": 626, "pitch": 67, "duration": 14, "velocity": 84}, {"time": 644, "pitch": 52, "duration": 6, "velocity": 89}, {"time": 644, "pitch": 59, "duration": 6, "velocity": 84}, {"time": 644, "pitch": 64, "duration": 15, "velocity": 83}, {"time": 644, "pitch": 67, "duration": 15, "velocity": 84}, {"time": 644, "pitch": 71, "duration": 15, "velocity": 84}, {"time": 656, "pitch": 52, "duration": 6, "velocity": 89}, {"time": 662, "pitch": 64, "duration": 3, "velocity": 85}, {"time": 662, "pitch": 67, "duration": 5, "velocity": 86}, {"time": 662, "pitch": 71, "duration": 6, "velocity": 88}, {"time": 668, "pitch": 64, "duration": 3, "velocity": 80}, {"time": 674, "pitch": 50, "duration": 16, "velocity": 87}, {"time": 674, "pitch": 62, "duration": 12, "velocity": 84}, {"time": 674, "pitch": 66, "duration": 12, "velocity": 87}, {"time": 674, "pitch": 69, "duration": 13, "velocity": 83}, {"time": 686, "pitch": 57, "duration": 4, "velocity": 69}, {"time": 692, "pitch": 50, "duration": 20, "velocity": 86}, {"time": 692, "pitch": 57, "duration": 19, "velocity": 82}, {"time": 692, "pitch": 62, "duration": 8, "velocity": 85}, {"time": 692, "pitch": 66, "duration": 9, "velocity": 90}, {"time": 692, "pitch": 69, "duration": 14, "velocity": 85}, {"time": 704, "pitch": 62, "duration": 3, "velocity": 84}, {"time": 710, "pitch": 62, "duration": 4, "velocity": 84}, {"time": 710, "pitch": 66, "duration": 4, "velocity": 85}, {"time": 710, "pitch": 69, "duration": 4, "velocity": 84}, {"time": 722, "pitch": 48, "duration": 19, "velocity": 87}, {"time": 722, "pitch": 60, "duration": 14, "velocity": 78}, {"time": 722, "pitch": 64, "duration": 14, "velocity": 85}, {"time": 734, "pitch": 55, "duration": 7, "velocity": 72}, {"time": 740, "pitch": 60, "duration": 14, "velocity": 84}, {"time": 740, "pitch": 64, "duration": 14, "velocity": 89}, {"time": 740, "pitch": 67, "duration": 13, "velocity": 83}, {"time": 752, "pitch": 48, "duration": 8, "velocity": 83}, {"time": 758, "pitch": 60, "duration": 3, "velocity": 84}, {"time": 758, "pitch": 64, "duration": 8, "velocity": 89}, {"time": 758, "pitch": 67, "duration": 9, "velocity": 85}, {"time": 764, "pitch": 60, "duration": 3, "velocity": 76}, {"time": 770, "pitch": 43, "duration": 40, "velocity": 83}, {"time": 770, "pitch": 62, "duration": 14, "velocity": 79}, {"time": 770, "pitch": 67, "duration": 14, "velocity": 77}, {"time": 782, "pitch": 50, "duration": 20, "velocity": 70}, {"time": 788, "pitch": 62, "duration": 6, "velocity": 85}, {"time": 788, "pitch": 67, "duration": 9, "velocity": 85}, {"time": 788, "pitch": 71, "duration": 14, "velocity": 85}, {"time": 800, "pitch": 62, "duration": 3, "velocity": 82}, {"time": 800, "pitch": 67, "duration": 2, "velocity": 65}, {"time": 806, "pitch": 62, "duration": 3, "velocity": 85}, {"time": 806, "pitch": 67, "duration": 9, "velocity": 84}, {"time": 806, "pitch": 71, "duration": 9, "velocity": 84}, {"time": 812, "pitch": 62, "duration": 3, "velocity": 79}, {"time": 818, "pitch": 40, "duration": 45, "velocity": 85}, {"time": 818, "pitch": 64, "duration": 13, "velocity": 83}, {"time": 818, "pitch": 67, "duration": 13, "velocity": 79}, {"time": 818, "pitch": 71, "duration": 14, "velocity": 80}, {"time": 830, "pitch": 47, "duration": 28, "velocity": 70}, {"time": 836, "pitch": 64, "duration": 8, "velocity": 85}, {"time": 836, "pitch": 67, "duration": 10, "velocity": 85}, {"time": 836, "pitch": 71, "duration": 11, "velocity": 87}, {"time": 848, "pitch": 64, "duration": 4, "velocity": 79}, {"time": 854, "pitch": 64, "duration": 4, "velocity": 85}, {"time": 854, "pitch": 67, "duration": 6, "velocity": 87}, {"time": 854, "pitch": 71, "duration": 10, "velocity": 85}, {"time": 860, "pitch": 64, "duration": 2, "velocity": 81}, {"time": 866, "pitch": 36, "duration": 29, "velocity": 83}, {"time": 866, "pitch": 60, "duration": 9, "velocity": 86}, {"time": 866, "pitch": 64, "duration": 13, "velocity": 85}, {"time": 866, "pitch": 67, "duration": 14, "velocity": 77}, {"time": 878, "pitch": 60, "duration": 2, "velocity": 66}, {"time": 884, "pitch": 60, "duration": 6, "velocity": 87}, {"time": 884, "pitch": 64, "duration": 13, "velocity": 94}, {"time": 884, "pitch": 67, "duration": 13, "velocity": 88}, {"time": 896, "pitch": 60, "duration": 3, "velocity": 85}, {"time": 902, "pitch": 60, "duration": 3, "velocity": 86}, {"time": 902, "pitch": 64, "duration": 3, "velocity": 94}, {"time": 902, "pitch": 67, "duration": 5, "velocity": 84}, {"time": 908, "pitch": 62, "duration": 2, "velocity": 50}, {"time": 914, "pitch": 38, "duration": 34, "velocity": 87}, {"time": 914, "pitch": 62, "duration": 7, "velocity": 79}, {"time": 914, "pitch": 66, "duration": 13, "velocity": 84}, {"time": 914, "pitch": 69, "duration": 13, "velocity": 83}, {"time": 926, "pitch": 62, "duration": 2, "velocity": 67}, {"time": 932, "pitch": 45, "duration": 15, "velocity": 74}, {"time": 932, "pitch": 62, "duration": 5, "velocity": 85}, {"time": 932, "pitch": 66, "duration": 9, "velocity": 92}, {"time": 932, "pitch": 69, "duration": 14, "velocity": 85}, {"time": 944, "pitch": 62, "duration": 3, "velocity": 78}, {"time": 950, "pitch": 62, "duration": 3, "velocity": 85}, {"time": 950, "pitch": 66, "duration": 8, "velocity": 94}, {"time": 950, "pitch": 69, "duration": 10, "velocity": 86}, {"time": 956, "pitch": 62, "duration": 3, "velocity": 79}, {"time": 962, "pitch": 40, "duration": 41, "velocity": 83}, {"time": 962, "pitch": 52, "duration": 40, "velocity": 78}, {"time": 962, "pitch": 64, "duration": 12, "velocity": 84}, {"time": 962, "pitch": 67, "duration": 12, "velocity": 83}, {"time": 962, "pitch": 71, "duration": 12, "velocity": 84}, {"time": 980, "pitch": 64, "duration": 5, "velocity": 89}, {"time": 980, "pitch": 67, "duration": 5, "velocity": 86}, {"time": 980, "pitch": 71, "duration": 6, "velocity": 90}, {"time": 992, "pitch": 64, "duration": 3, "velocity": 70}, {"time": 998, "pitch": 64, "duration": 3, "velocity": 87}, {"time": 998, "pitch": 67, "duration": 9, "velocity": 85}, {"time": 998, "pitch": 71, "duration": 10, "velocity": 86}, {"time": 1004, "pitch": 64, "duration": 5, "velocity": 87}, {"time": 1010, "pitch": 40, "duration": 17, "velocity": 86}, {"time": 1010, "pitch": 59, "duration": 4, "velocity": 83}, {"time": 1010, "pitch": 64, "duration": 7, "velocity": 84}, {"time": 1010, "pitch": 67, "duration": 9, "velocity": 77}, {"time": 1016, "pitch": 59, "duration": 4, "velocity": 82}, {"time": 1028, "pitch": 59, "duration": 4, "velocity": 87}, {"time": 1028, "pitch": 64, "duration": 4, "velocity": 90}, {"time": 1028, "pitch": 67, "duration": 5, "velocity": 83}, {"time": 1040, "pitch": 59, "duration": 4, "velocity": 67}, {"time": 1040, "pitch": 64, "duration": 2, "velocity": 65}, {"time": 1040, "pitch": 67, "duration": 2, "velocity": 58}, {"time": 1046, "pitch": 40, "duration": 3, "velocity": 83}, {"time": 1046, "pitch": 59, "duration": 3, "velocity": 86}, {"time": 1046, "pitch": 64, "duration": 4, "velocity": 88}, {"time": 1046, "pitch": 67, "duration": 6, "velocity": 84}, {"time": 1052, "pitch": 59, "duration": 3, "velocity": 83}, {"time": 1058, "pitch": 47, "duration": 22, "velocity": 77}, {"time": 1058, "pitch": 59, "duration": 9, "velocity": 82}, {"time": 1058, "pitch": 62, "duration": 13, "velocity": 74}, {"time": 1070, "pitch": 59, "duration": 3, "velocity": 84}, {"time": 1076, "pitch": 59, "duration": 5, "velocity": 87}, {"time": 1076, "pitch": 62, "duration": 5, "velocity": 85}, {"time": 1076, "pitch": 66, "duration": 6, "velocity": 84}, {"time": 1088, "pitch": 59, "duration": 3, "velocity": 85}, {"time": 1094, "pitch": 59, "duration": 3, "velocity": 84}, {"time": 1094, "pitch": 62, "duration": 5, "velocity": 87}, {"time": 1094, "pitch": 66, "duration": 8, "velocity": 85}, {"time": 1100, "pitch": 59, "duration": 2, "velocity": 72}, {"time": 1106, "pitch": 50, "duration": 37, "velocity": 85}, {"time": 1106, "pitch": 57, "duration": 6, "velocity": 84}, {"time": 1106, "pitch": 62, "duration": 14, "velocity": 83}, {"time": 1106, "pitch": 66, "duration": 14, "velocity": 78}, {"time": 1118, "pitch": 57, "duration": 4, "velocity": 67}, {"time": 1124, "pitch": 57, "duration": 7, "velocity": 84}, {"time": 1124, "pitch": 62, "duration": 14, "velocity": 85}, {"time": 1124, "pitch": 66, "duration": 14, "velocity": 83}, {"time": 1136, "pitch": 57, "duration": 3, "velocity": 80}, {"time": 1142, "pitch": 57, "duration": 3, "velocity": 84}, {"time": 1142, "pitch": 62, "duration": 7, "velocity": 87}, {"time": 1142, "pitch": 66, "duration": 7, "velocity": 85}, {"time": 1148, "pitch": 57, "duration": 3, "velocity": 75}, {"time": 1154, "pitch": 43, "duration": 15, "velocity": 83}, {"time": 1154, "pitch": 55, "duration": 12, "velocity": 84}, {"time": 1154, "pitch": 59, "duration": 12, "velocity": 87}, {"time": 1166, "pitch": 50, "duration": 4, "velocity": 76}, {"time": 1172, "pitch": 47, "duration": 21, "velocity": 88}, {"time": 1172, "pitch": 59, "duration": 7, "velocity": 80}, {"time": 1172, "pitch": 63, "duration": 14, "velocity": 77}, {"time": 1184, "pitch": 59, "duration": 3, "velocity": 85}, {"time": 1190, "pitch": 59, "duration": 3, "velocity": 86}, {"time": 1190, "pitch": 63, "duration": 5, "velocity": 88}, {"time": 1190, "pitch": 66, "duration": 8, "velocity": 83}, {"time": 1196, "pitch": 59, "duration": 4, "velocity": 84}, {"time": 1202, "pitch": 40, "duration": 32, "velocity": 88}, {"time": 1202, "pitch": 59, "duration": 5, "velocity": 84}, {"time": 1202, "pitch": 64, "duration": 13, "velocity": 89}, {"time": 1214, "pitch": 59, "duration": 3, "velocity": 79}, {"time": 1220, "pitch": 59, "duration": 4, "velocity": 84}, {"time": 1220, "pitch": 64, "duration": 13, "velocity": 92}, {"time": 1220, "pitch": 67, "duration": 14, "velocity": 84}, {"time": 1232, "pitch": 59, "duration": 3, "velocity": 84}, {"time": 1238, "pitch": 59, "duration": 3, "velocity": 86}, {"time": 1238, "pitch": 64, "duration": 5, "velocity": 89}, {"time": 1238, "pitch": 67, "duration": 6, "velocity": 83}, {"time": 1244, "pitch": 59, "duration": 3, "velocity": 83}, {"time": 1250, "pitch": 45, "duration": 34, "velocity": 84}, {"time": 1250, "pitch": 57, "duration": 13, "velocity": 83}, {"time": 1250, "pitch": 61, "duration": 10, "velocity": 80}, {"time": 1250, "pitch": 64, "duration": 11, "velocity": 84}, {"time": 1262, "pitch": 52, "duration": 20, "velocity": 73}, {"time": 1268, "pitch": 57, "duration": 6, "velocity": 87}, {"time": 1268, "pitch": 61, "duration": 8, "velocity": 92}, {"time": 1268, "pitch": 64, "duration": 13, "velocity": 88}, {"time": 1280, "pitch": 57, "duration": 3, "velocity": 75}, {"time": 1286, "pitch": 57, "duration": 3, "velocity": 85}, {"time": 1286, "pitch": 61, "duration": 6, "velocity": 92}, {"time": 1286, "pitch": 64, "duration": 9, "velocity": 87}, {"time": 1292, "pitch": 57, "duration": 3, "velocity": 80}, {"time": 1298, "pitch": 48, "duration": 21, "velocity": 87}, {"time": 1298, "pitch": 55, "duration": 6, "velocity": 84}, {"time": 1298, "pitch": 60, "duration": 8, "velocity": 85}, {"time": 1298, "pitch": 64, "duration": 8, "velocity": 85}, {"time": 1310, "pitch": 55, "duration": 2, "velocity": 84}, {"time": 1310, "pitch": 60, "duration": 7, "velocity": 94}, {"time": 1310, "pitch": 64, "duration": 10, "velocity": 90}, {"time": 1316, "pitch": 55, "duration": 2, "velocity": 82}, {"time": 1322, "pitch": 50, "duration": 17, "velocity": 88}, {"time": 1322, "pitch": 57, "duration": 3, "velocity": 79}, {"time": 1322, "pitch": 62, "duration": 10, "velocity": 84}, {"time": 1328, "pitch": 57, "duration": 4, "velocity": 72}, {"time": 1334, "pitch": 57, "duration": 3, "velocity": 78}, {"time": 1334, "pitch": 62, "duration": 8, "velocity": 82}, {"time": 1334, "pitch": 66, "duration": 8, "velocity": 84}, {"time": 1340, "pitch": 57, "duration": 2, "velocity": 72}, {"time": 1346, "pitch": 40, "duration": 49, "velocity": 87}, {"time": 1346, "pitch": 59, "duration": 6, "velocity": 83}, {"time": 1346, "pitch": 64, "duration": 14, "velocity": 87}, {"time": 1358, "pitch": 59, "duration": 4, "velocity": 83}, {"time": 1364, "pitch": 59, "duration": 5, "velocity": 86}, {"time": 1364, "pitch": 64, "duration": 8, "velocity": 92}, {"time": 1364, "pitch": 67, "duration": 8, "velocity": 85}, {"time": 1376, "pitch": 59, "duration": 4, "velocity": 82}, {"time": 1382, "pitch": 59, "duration": 2, "velocity": 87}, {"time": 1382, "pitch": 64, "duration": 10, "velocity": 94}, {"time": 1382, "pitch": 67, "duration": 10, "velocity": 86}, {"time": 1388, "pitch": 59, "duration": 5, "velocity": 87}, {"time": 1394, "pitch": 40, "duration": 1, "velocity": 86}, {"time": 1394, "pitch": 59, "duration": 4, "velocity": 83}, {"time": 1394, "pitch": 64, "duration": 7, "velocity": 84}, {"time": 1394, "pitch": 67, "duration": 9, "velocity": 77}, {"time": 1400, "pitch": 59, "duration": 4, "velocity": 82}, {"time": 1412, "pitch": 59, "duration": 4, "velocity": 87}, {"time": 1412, "pitch": 64, "duration": 4, "velocity": 90}, {"time": 1412, "pitch": 67, "duration": 5, "velocity": 83}, {"time": 1424, "pitch": 59, "duration": 4, "velocity": 67}, {"time": 1424, "pitch": 64, "duration": 2, "velocity": 65}, {"time": 1424, "pitch": 67, "duration": 2, "velocity": 58}, {"time": 1430, "pitch": 40, "duration": 3, "velocity": 83}, {"time": 1430, "pitch": 59, "duration": 3, "velocity": 86}, {"time": 1430, "pitch": 64, "duration": 4, "velocity": 88}, {"time": 1430, "pitch": 67, "duration": 6, "velocity": 84}, {"time": 1436, "pitch": 59, "duration": 3, "velocity": 83}, {"time": 1442, "pitch": 47, "duration": 22, "velocity": 77}, {"time": 1442, "pitch": 59, "duration": 9, "velocity": 82}, {"time": 1442, "pitch": 62, "duration": 13, "velocity": 74}, {"time": 1454, "pitch": 59, "duration": 3, "velocity": 84}, {"time": 1460, "pitch": 59, "duration": 5, "velocity": 87}, {"time": 1460, "pitch": 62, "duration": 5, "velocity": 85}, {"time": 1460, "pitch": 66, "duration": 6, "velocity": 84}, {"time": 1472, "pitch": 59, "duration": 3, "velocity": 85}, {"time": 1478, "pitch": 59, "duration": 3, "velocity": 84}, {"time": 1478, "pitch": 62, "duration": 5, "velocity": 87}, {"time": 1478, "pitch": 66, "duration": 8, "velocity": 85}, {"time": 1484, "pitch": 59, "duration": 2, "velocity": 72}, {"time": 1490, "pitch": 50, "duration": 37, "velocity": 85}, {"time": 1490, "pitch": 57, "duration": 6, "velocity": 84}, {"time": 1490, "pitch": 62, "duration": 14, "velocity": 83}, {"time": 1490, "pitch": 66, "duration": 14, "velocity": 78}, {"time": 1502, "pitch": 57, "duration": 4, "velocity": 67}, {"time": 1508, "pitch": 57, "duration": 7, "velocity": 84}, {"time": 1508, "pitch": 62, "duration": 14, "velocity": 85}, {"time": 1508, "pitch": 66, "duration": 14, "velocity": 83}, {"time": 1520, "pitch": 57, "duration": 3, "velocity": 80}, {"time": 1526, "pitch": 57, "duration": 3, "velocity": 84}, {"time": 1526, "pitch": 62, "duration": 7, "velocity": 87}, {"time": 1526, "pitch": 66, "duration": 7, "velocity": 85}, {"time": 1532, "pitch": 57, "duration": 3, "velocity": 75}, {"time": 1538, "pitch": 43, "duration": 15, "velocity": 83}, {"time": 1538, "pitch": 55, "duration": 12, "velocity": 84}, {"time": 1538, "pitch": 59, "duration": 12, "velocity": 87}, {"time": 1550, "pitch": 50, "duration": 4, "velocity": 76}, {"time": 1556, "pitch": 47, "duration": 21, "velocity": 88}, {"time": 1556, "pitch": 59, "duration": 7, "velocity": 80}, {"time": 1556, "pitch": 63, "duration": 14, "velocity": 77}, {"time": 1568, "pitch": 59, "duration": 3, "velocity": 85}, {"time": 1574, "pitch": 59, "duration": 3, "velocity": 86}, {"time": 1574, "pitch": 63, "duration": 5, "velocity": 88}, {"time": 1574, "pitch": 66, "duration": 8, "velocity": 83}, {"time": 1580, "pitch": 59, "duration": 4, "velocity": 84}, {"time": 1586, "pitch": 40, "duration": 32, "velocity": 88}, {"time": 1586, "pitch": 59, "duration": 5, "velocity": 84}, {"time": 1586, "pitch": 64, "duration": 13, "velocity": 89}, {"time": 1598, "pitch": 59, "duration": 3, "velocity": 79}, {"time": 1604, "pitch": 59, "duration": 4, "velocity": 84}, {"time": 1604, "pitch": 64, "duration": 13, "velocity": 92}, {"time": 1604, "pitch": 67, "duration": 14, "velocity": 84}, {"time": 1616, "pitch": 59, "duration": 3, "velocity": 84}, {"time": 1622, "pitch": 59, "duration": 3, "velocity": 86}, {"time": 1622, "pitch": 64, "duration": 5, "velocity": 89}, {"time": 1622, "pitch": 67, "duration": 6, "velocity": 83}, {"time": 1628, "pitch": 59, "duration": 3, "velocity": 83}, {"time": 1634, "pitch": 45, "duration": 34, "velocity": 84}, {"time": 1634, "pitch": 57, "duration": 13, "velocity": 83}, {"time": 1634, "pitch": 61, "duration": 10, "velocity": 80}, {"time": 1634, "pitch": 64, "duration": 11, "velocity": 84}, {"time": 1646, "pitch": 52, "duration": 20, "velocity": 73}, {"time": 1652, "pitch": 57, "duration": 6, "velocity": 87}, {"time": 1652, "pitch": 61, "duration": 8, "velocity": 92}, {"time": 1652, "pitch": 64, "duration": 13, "velocity": 88}, {"time": 1664, "pitch": 57, "duration": 3, "velocity": 75}, {"time": 1670, "pitch": 57, "duration": 3, "velocity": 85}, {"time": 1670, "pitch": 61, "duration": 6, "velocity": 92}, {"time": 1670, "pitch": 64, "duration": 9, "velocity": 87}, {"time": 1676, "pitch": 57, "duration": 3, "velocity": 80}, {"time": 1682, "pitch": 48, "duration": 21, "velocity": 87}, {"time": 1682, "pitch": 55, "duration": 6, "velocity": 84}, {"time": 1682, "pitch": 60, "duration": 8, "velocity": 85}, {"time": 1682, "pitch": 64, "duration": 8, "velocity": 85}, {"time": 1694, "pitch": 55, "duration": 2, "velocity": 84}, {"time": 1694, "pitch": 60, "duration": 7, "velocity": 94}, {"time": 1694, "pitch": 64, "duration": 10, "velocity": 90}, {"time": 1700, "pitch": 55, "duration": 2, "velocity": 82}, {"time": 1706, "pitch": 50, "duration": 17, "velocity": 88}, {"time": 1706, "pitch": 57, "duration": 3, "velocity": 79}, {"time": 1706, "pitch": 62, "duration": 10, "velocity": 84}, {"time": 1712, "pitch": 57, "duration": 4, "velocity": 72}, {"time": 1718, "pitch": 57, "duration": 3, "velocity": 78}, {"time": 1718, "pitch": 62, "duration": 8, "velocity": 82}, {"time": 1718, "pitch": 66, "duration": 8, "velocity": 84}, {"time": 1724, "pitch": 57, "duration": 2, "velocity": 72}, {"time": 1730, "pitch": 40, "duration": 49, "velocity": 87}, {"time": 1730, "pitch": 59, "duration": 6, "velocity": 83}, {"time": 1730, "pitch": 64, "duration": 14, "velocity": 87}, {"time": 1742, "pitch": 59, "duration": 4, "velocity": 83}, {"time": 1748, "pitch": 59, "duration": 5, "velocity": 86}, {"time": 1748, "pitch": 64, "duration": 8, "velocity": 92}, {"time": 1748, "pitch": 67, "duration": 8, "velocity": 85}, {"time": 1760, "pitch": 59, "duration": 4, "velocity": 82}, {"time": 1766, "pitch": 59, "duration": 2, "velocity": 87}, {"time": 1766, "pitch": 64, "duration": 10, "velocity": 94}, {"time": 1766, "pitch": 67, "duration": 10, "velocity": 86}, {"time": 1772, "pitch": 59, "duration": 5, "velocity": 87}, {"time": 1778, "pitch": 48, "duration": 22, "velocity": 89}, {"time": 1778, "pitch": 55, "duration": 4, "velocity": 83}, {"time": 1778, "pitch": 60, "duration": 8, "velocity": 76}, {"time": 1778, "pitch": 64, "duration": 9, "velocity": 85}, {"time": 1784, "pitch": 55, "duration": 3, "velocity": 83}, {"time": 1790, "pitch": 55, "duration": 3, "velocity": 85}, {"time": 1790, "pitch": 60, "duration": 5, "velocity": 89}, {"time": 1790, "pitch": 64, "duration": 8, "velocity": 89}, {"time": 1796, "pitch": 55, "duration": 2, "velocity": 84}, {"time": 1802, "pitch": 50, "duration": 13, "velocity": 88}, {"time": 1802, "pitch": 57, "duration": 11, "velocity": 76}, {"time": 1802, "pitch": 62, "duration": 9, "velocity": 84}, {"time": 1814, "pitch": 57, "duration": 2, "velocity": 73}, {"time": 1814, "pitch": 62, "duration": 8, "velocity": 84}, {"time": 1814, "pitch": 66, "duration": 8, "velocity": 77}, {"time": 1820, "pitch": 57, "duration": 3, "velocity": 83}, {"time": 1826, "pitch": 40, "duration": 16, "velocity": 85}, {"time": 1826, "pitch": 59, "duration": 8, "velocity": 85}, {"time": 1826, "pitch": 64, "duration": 9, "velocity": 89}, {"time": 1838, "pitch": 59, "duration": 3, "velocity": 84}, {"time": 1838, "pitch": 64, "duration": 2, "velocity": 51}, {"time": 1844, "pitch": 40, "duration": 2, "velocity": 84}, {"time": 1844, "pitch": 59, "duration": 4, "velocity": 89}, {"time": 1844, "pitch": 64, "duration": 13, "velocity": 97}, {"time": 1844, "pitch": 67, "duration": 13, "velocity": 84}, {"time": 1856, "pitch": 59, "duration": 4, "velocity": 82}, {"time": 1862, "pitch": 59, "duration": 3, "velocity": 89}, {"time": 1862, "pitch": 64, "duration": 4, "velocity": 94}, {"time": 1862, "pitch": 67, "duration": 5, "velocity": 86}, {"time": 1868, "pitch": 59, "duration": 2, "velocity": 84}, {"time": 1874, "pitch": 48, "duration": 18, "velocity": 86}, {"time": 1874, "pitch": 55, "duration": 4, "velocity": 85}, {"time": 1874, "pitch": 60, "duration": 9, "velocity": 85}, {"time": 1880, "pitch": 55, "duration": 4, "velocity": 79}, {"time": 1886, "pitch": 55, "duration": 1, "velocity": 76}, {"time": 1886, "pitch": 60, "duration": 8, "velocity": 88}, {"time": 1886, "pitch": 64, "duration": 9, "velocity": 90}, {"time": 1892, "pitch": 55, "duration": 3, "velocity": 84}, {"time": 1898, "pitch": 50, "duration": 18, "velocity": 85}, {"time": 1898, "pitch": 57, "duration": 4, "velocity": 79}, {"time": 1898, "pitch": 62, "duration": 9, "velocity": 83}, {"time": 1904, "pitch": 57, "duration": 4, "velocity": 78}, {"time": 1910, "pitch": 57, "duration": 1, "velocity": 68}, {"time": 1910, "pitch": 62, "duration": 7, "velocity": 84}, {"time": 1910, "pitch": 66, "duration": 7, "velocity": 79}, {"time": 1916, "pitch": 57, "duration": 3, "velocity": 75}, {"time": 1922, "pitch": 43, "duration": 14, "velocity": 84}, {"time": 1922, "pitch": 55, "duration": 6, "velocity": 83}, {"time": 1922, "pitch": 59, "duration": 8, "velocity": 84}, {"time": 1934, "pitch": 55, "duration": 3, "velocity": 83}, {"time": 1934, "pitch": 59, "duration": 2, "velocity": 85}, {"time": 1940, "pitch": 47, "duration": 22, "velocity": 85}, {"time": 1940, "pitch": 59, "duration": 9, "velocity": 87}, {"time": 1940, "pitch": 63, "duration": 10, "velocity": 87}, {"time": 1952, "pitch": 59, "duration": 3, "velocity": 84}, {"time": 1958, "pitch": 59, "duration": 3, "velocity": 87}, {"time": 1958, "pitch": 63, "duration": 5, "velocity": 84}, {"time": 1958, "pitch": 66, "duration": 7, "velocity": 83}, {"time": 1964, "pitch": 59, "duration": 2, "velocity": 83}, {"time": 1970, "pitch": 48, "duration": 20, "velocity": 92}, {"time": 1970, "pitch": 55, "duration": 5, "velocity": 83}, {"time": 1970, "pitch": 60, "duration": 9, "velocity": 85}, {"time": 1976, "pitch": 55, "duration": 4, "velocity": 78}, {"time": 1982, "pitch": 55, "duration": 1, "velocity": 70}, {"time": 1982, "pitch": 60, "duration": 4, "velocity": 88}, {"time": 1982, "pitch": 64, "duration": 8, "velocity": 88}, {"time": 1988, "pitch": 55, "duration": 3, "velocity": 85}, {"time": 1988, "pitch": 60, "duration": 2, "velocity": 66}, {"time": 1994, "pitch": 50, "duration": 21, "velocity": 88}, {"time": 1994, "pitch": 57, "duration": 3, "velocity": 83}, {"time": 1994, "pitch": 62, "duration": 9, "velocity": 83}, {"time": 2000, "pitch": 57, "duration": 4, "velocity": 82}, {"time": 2006, "pitch": 62, "duration": 8, "velocity": 80}, {"time": 2006, "pitch": 66, "duration": 7, "velocity": 83}, {"time": 2012, "pitch": 57, "duration": 4, "velocity": 76}, {"time": 2018, "pitch": 40, "duration": 11, "velocity": 88}, {"time": 2018, "pitch": 59, "duration": 4, "velocity": 85}, {"time": 2018, "pitch": 64, "duration": 7, "velocity": 90}, {"time": 2018, "pitch": 67, "duration": 8, "velocity": 85}, {"time": 2030, "pitch": 59, "duration": 2, "velocity": 80}, {"time": 2030, "pitch": 64, "duration": 7, "velocity": 88}, {"time": 2030, "pitch": 67, "duration": 7, "velocity": 84}, {"time": 2036, "pitch": 59, "duration": 1, "velocity": 71}, {"time": 2042, "pitch": 47, "duration": 13, "velocity": 85}, {"time": 2042, "pitch": 59, "duration": 5, "velocity": 81}, {"time": 2042, "pitch": 62, "duration": 8, "velocity": 84}, {"time": 2048, "pitch": 59, "duration": 2, "velocity": 73}, {"time": 2054, "pitch": 59, "duration": 2, "velocity": 85}, {"time": 2054, "pitch": 62, "duration": 6, "velocity": 85}, {"time": 2054, "pitch": 66, "duration": 6, "velocity": 86}, {"time": 2060, "pitch": 59, "duration": 2, "velocity": 71}, {"time": 2066, "pitch": 48, "duration": 21, "velocity": 88}, {"time": 2066, "pitch": 55, "duration": 10, "velocity": 81}, {"time": 2066, "pitch": 60, "duration": 10, "velocity": 83}, {"time": 2078, "pitch": 55, "duration": 4, "velocity": 87}, {"time": 2078, "pitch": 60, "duration": 7, "velocity": 92}, {"time": 2090, "pitch": 50, "duration": 16, "velocity": 97}, {"time": 2090, "pitch": 57, "duration": 7, "velocity": 83}, {"time": 2090, "pitch": 62, "duration": 8, "velocity": 88}, {"time": 2102, "pitch": 57, "duration": 3, "velocity": 87}, {"time": 2102, "pitch": 62, "duration": 7, "velocity": 89}, {"time": 2102, "pitch": 66, "duration": 8, "velocity": 92}, {"time": 2108, "pitch": 57, "duration": 2, "velocity": 77}, {"time": 2114, "pitch": 40, "duration": 48, "velocity": 92}, {"time": 2114, "pitch": 52, "duration": 8, "velocity": 85}, {"time": 2114, "pitch": 53, "duration": 2, "velocity": 77}, {"time": 2114, "pitch": 55, "duration": 8, "velocity": 82}, {"time": 2126, "pitch": 52, "duration": 3, "velocity": 83}, {"time": 2126, "pitch": 55, "duration": 7, "velocity": 84}, {"time": 2132, "pitch": 52, "duration": 2, "velocity": 77}, {"time": 2138, "pitch": 52, "duration": 2, "velocity": 75}, {"time": 2138, "pitch": 55, "duration": 1, "velocity": 73}, {"time": 2144, "pitch": 52, "duration": 3, "velocity": 83}, {"time": 2144, "pitch": 55, "duration": 3, "velocity": 85}, {"time": 2150, "pitch": 47, "duration": 12, "velocity": 70}, {"time": 2150, "pitch": 52, "duration": 5, "velocity": 89}, {"time": 2150, "pitch": 55, "duration": 9, "velocity": 99}, {"time": 2156, "pitch": 52, "duration": 3, "velocity": 82}, {"time": 2162, "pitch": 52, "duration": 15, "velocity": 90}, {"time": 2162, "pitch": 64, "duration": 15, "velocity": 84}, {"time": 2162, "pitch": 67, "duration": 14, "velocity": 84}, {"time": 2180, "pitch": 52, "duration": 6, "velocity": 89}, {"time": 2180, "pitch": 59, "duration": 6, "velocity": 84}, {"time": 2180, "pitch": 64, "duration": 15, "velocity": 83}, {"time": 2180, "pitch": 67, "duration": 15, "velocity": 84}, {"time": 2180, "pitch": 71, "duration": 15, "velocity": 84}, {"time": 2192, "pitch": 52, "duration": 6, "velocity": 89}, {"time": 2198, "pitch": 64, "duration": 3, "velocity": 85}, {"time": 2198, "pitch": 67, "duration": 5, "velocity": 86}, {"time": 2198, "pitch": 71, "duration": 6, "velocity": 88}, {"time": 2204, "pitch": 64, "duration": 3, "velocity": 80}, {"time": 2210, "pitch": 50, "duration": 16, "velocity": 87}, {"time": 2210, "pitch": 62, "duration": 12, "velocity": 84}, {"time": 2210, "pitch": 66, "duration": 12, "velocity": 87}, {"time": 2210, "pitch": 69, "duration": 13, "velocity": 83}, {"time": 2222, "pitch": 57, "duration": 4, "velocity": 69}, {"time": 2228, "pitch": 50, "duration": 20, "velocity": 86}, {"time": 2228, "pitch": 57, "duration": 19, "velocity": 82}, {"time": 2228, "pitch": 62, "duration": 8, "velocity": 85}, {"time": 2228, "pitch": 66, "duration": 9, "velocity": 90}, {"time": 2228, "pitch": 69, "duration": 14, "velocity": 85}, {"time": 2240, "pitch": 62, "duration": 3, "velocity": 84}, {"time": 2246, "pitch": 62, "duration": 4, "velocity": 84}, {"time": 2246, "pitch": 66, "duration": 4, "velocity": 85}, {"time": 2246, "pitch": 69, "duration": 4, "velocity": 84}, {"time": 2258, "pitch": 48, "duration": 19, "velocity": 87}, {"time": 2258, "pitch": 60, "duration": 14, "velocity": 78}, {"time": 2258, "pitch": 64, "duration": 14, "velocity": 85}, {"time": 2270, "pitch": 55, "duration": 7, "velocity": 72}, {"time": 2276, "pitch": 60, "duration": 14, "velocity": 84}, {"time": 2276, "pitch": 64, "duration": 14, "velocity": 89}, {"time": 2276, "pitch": 67, "duration": 13, "velocity": 83}, {"time": 2288, "pitch": 48, "duration": 8, "velocity": 83}, {"time": 2294, "pitch": 60, "duration": 3, "velocity": 84}, {"time": 2294, "pitch": 64, "duration": 8, "velocity": 89}, {"time": 2294, "pitch": 67, "duration": 9, "velocity": 85}, {"time": 2300, "pitch": 60, "duration": 3, "velocity": 76}, {"time": 2306, "pitch": 43, "duration": 40, "velocity": 83}, {"time": 2306, "pitch": 62, "duration": 14, "velocity": 79}, {"time": 2306, "pitch": 67, "duration": 14, "velocity": 77}, {"time": 2318, "pitch": 50, "duration": 20, "velocity": 70}, {"time": 2324, "pitch": 62, "duration": 6, "velocity": 85}, {"time": 2324, "pitch": 67, "duration": 9, "velocity": 85}, {"time": 2324, "pitch": 71, "duration": 14, "velocity": 85}, {"time": 2336, "pitch": 62, "duration": 3, "velocity": 82}, {"time": 2336, "pitch": 67, "duration": 2, "velocity": 65}, {"time": 2342, "pitch": 62, "duration": 3, "velocity": 85}, {"time": 2342, "pitch": 67, "duration": 9, "velocity": 84}, {"time": 2342, "pitch": 71, "duration": 9, "velocity": 84}, {"time": 2348, "pitch": 62, "duration": 3, "velocity": 79}, {"time": 2354, "pitch": 40, "duration": 45, "velocity": 85}, {"time": 2354, "pitch": 64, "duration": 13, "velocity": 83}, {"time": 2354, "pitch": 67, "duration": 13, "velocity": 79}, {"time": 2354, "pitch": 71, "duration": 14, "velocity": 80}, {"time": 2366, "pitch": 47, "duration": 28, "velocity": 70}, {"time": 2372, "pitch": 64, "duration": 8, "velocity": 85}, {"time": 2372, "pitch": 67, "duration": 10, "velocity": 85}, {"time": 2372, "pitch": 71, "duration": 11, "velocity": 87}, {"time": 2384, "pitch": 64, "duration": 4, "velocity": 79}, {"time": 2390, "pitch": 64, "duration": 4, "velocity": 85}, {"time": 2390, "pitch": 67, "duration": 6, "velocity": 87}, {"time": 2390, "pitch": 71, "duration": 10, "velocity": 85}, {"time": 2396, "pitch": 64, "duration": 2, "velocity": 81}, {"time": 2402, "pitch": 36, "duration": 29, "velocity": 83}, {"time": 2402, "pitch": 60, "duration": 9, "velocity": 86}, {"time": 2402, "pitch": 64, "duration": 13, "velocity": 85}, {"time": 2402, "pitch": 67, "duration": 14, "velocity": 77}, {"time": 2414, "pitch": 60, "duration": 2, "velocity": 66}, {"time": 2420, "pitch": 60, "duration": 6, "velocity": 87}, {"time": 2420, "pitch": 64, "duration": 13, "velocity": 94}, {"time": 2420, "pitch": 67, "duration": 13, "velocity": 88}, {"time": 2432, "pitch": 60, "duration": 3, "velocity": 85}, {"time": 2438, "pitch": 60, "duration": 3, "velocity": 86}, {"time": 2438, "pitch": 64, "duration": 3, "velocity": 94}, {"time": 2438, "pitch": 67, "duration": 5, "velocity": 84}, {"time": 2444, "pitch": 62, "duration": 2, "velocity": 50}, {"time": 2450, "pitch": 38, "duration": 34, "velocity": 87}, {"time": 2450, "pitch": 62, "duration": 7, "velocity": 79}, {"time": 2450, "pitch": 66, "duration": 13, "velocity": 84}, {"time": 2450, "pitch": 69, "duration": 13, "velocity": 83}, {"time": 2462, "pitch": 62, "duration": 2, "velocity": 67}, {"time": 2468, "pitch": 45, "duration": 15, "velocity": 74}, {"time": 2468, "pitch": 62, "duration": 5, "velocity": 85}, {"time": 2468, "pitch": 66, "duration": 9, "velocity": 92}, {"time": 2468, "pitch": 69, "duration": 14, "velocity": 85}, {"time": 2480, "pitch": 62, "duration": 3, "velocity": 78}, {"time": 2486, "pitch": 62, "duration": 3, "velocity": 85}, {"time": 2486, "pitch": 66, "duration": 8, "velocity": 94}, {"time": 2486, "pitch": 69, "duration": 10, "velocity": 86}, {"time": 2492, "pitch": 62, "duration": 3, "velocity": 79}, {"time": 2498, "pitch": 40, "duration": 41, "velocity": 83}, {"time": 2498, "pitch": 52, "duration": 40, "velocity": 78}, {"time": 2498, "pitch": 64, "duration": 12, "velocity": 84}, {"time": 2498, "pitch": 67, "duration": 12, "velocity": 83}, {"time": 2498, "pitch": 71, "duration": 12, "velocity": 84}, {"time": 2516, "pitch": 64, "duration": 5, "velocity": 89}, {"time": 2516, "pitch": 67, "duration": 5, "velocity": 86}, {"time": 2516, "pitch": 71, "duration": 6, "velocity": 90}, {"time": 2528, "pitch": 64, "duration": 3, "velocity": 70}, {"time": 2534, "pitch": 64, "duration": 3, "velocity": 87}, {"time": 2534, "pitch": 67, "duration": 9, "velocity": 85}, {"time": 2534, "pitch": 71, "duration": 10, "velocity": 86}, {"time": 2540, "pitch": 64, "duration": 5, "velocity": 87}, {"time": 2546, "pitch": 40, "duration": 17, "velocity": 86}, {"time": 2546, "pitch": 59, "duration": 4, "velocity": 83}, {"time": 2546, "pitch": 64, "duration": 7, "velocity": 84}, {"time": 2546, "pitch": 67, "duration": 9, "velocity": 77}, {"time": 2552, "pitch": 59, "duration": 4, "velocity": 82}, {"time": 2564, "pitch": 59, "duration": 4, "velocity": 87}, {"time": 2564, "pitch": 64, "duration": 4, "velocity": 90}, {"time": 2564, "pitch": 67, "duration": 5, "velocity": 83}, {"time": 2576, "pitch": 59, "duration": 4, "velocity": 67}, {"time": 2576, "pitch": 64, "duration": 2, "velocity": 65}, {"time": 2576, "pitch": 67, "duration": 2, "velocity": 58}, {"time": 2582, "pitch": 40, "duration": 3, "velocity": 83}, {"time": 2582, "pitch": 59, "duration": 3, "velocity": 86}, {"time": 2582, "pitch": 64, "duration": 4, "velocity": 88}, {"time": 2582, "pitch": 67, "duration": 6, "velocity": 84}, {"time": 2588, "pitch": 59, "duration": 3, "velocity": 83}, {"time": 2594, "pitch": 47, "duration": 22, "velocity": 77}, {"time": 2594, "pitch": 59, "duration": 9, "velocity": 82}, {"time": 2594, "pitch": 62, "duration": 13, "velocity": 74}, {"time": 2606, "pitch": 59, "duration": 3, "velocity": 84}, {"time": 2612, "pitch": 59, "duration": 5, "velocity": 87}, {"time": 2612, "pitch": 62, "duration": 5, "velocity": 85}, {"time": 2612, "pitch": 66, "duration": 6, "velocity": 84}, {"time": 2624, "pitch": 59, "duration": 3, "velocity": 85}, {"time": 2630, "pitch": 59, "duration": 3, "velocity": 84}, {"time": 2630, "pitch": 62, "duration": 5, "velocity": 87}, {"time": 2630, "pitch": 66, "duration": 8, "velocity": 85}, {"time": 2636, "pitch": 59, "duration": 2, "velocity": 72}, {"time": 2642, "pitch": 50, "duration": 37, "velocity": 85}, {"time": 2642, "pitch": 57, "duration": 6, "velocity": 84}, {"time": 2642, "pitch": 62, "duration": 14, "velocity": 83}, {"time": 2642, "pitch": 66, "duration": 14, "velocity": 78}, {"time": 2654, "pitch": 57, "duration": 4, "velocity": 67}, {"time": 2660, "pitch": 57, "duration": 7, "velocity": 84}, {"time": 2660, "pitch": 62, "duration": 14, "velocity": 85}, {"time": 2660, "pitch": 66, "duration": 14, "velocity": 83}, {"time": 2672, "pitch": 57, "duration": 3, "velocity": 80}, {"time": 2678, "pitch": 57, "duration": 3, "velocity": 84}, {"time": 2678, "pitch": 62, "duration": 7, "velocity": 87}, {"time": 2678, "pitch": 66, "duration": 7, "velocity": 85}, {"time": 2684, "pitch": 57, "duration": 3, "velocity": 75}, {"time": 2690, "pitch": 43, "duration": 15, "velocity": 83}, {"time": 2690, "pitch": 55, "duration": 12, "velocity": 84}, {"time": 2690, "pitch": 59, "duration": 12, "velocity": 87}, {"time": 2702, "pitch": 50, "duration": 4, "velocity": 76}, {"time": 2708, "pitch": 47, "duration": 21, "velocity": 88}, {"time": 2708, "pitch": 59, "duration": 7, "velocity": 80}, {"time": 2708, "pitch": 63, "duration": 14, "velocity": 77}, {"time": 2720, "pitch": 59, "duration": 3, "velocity": 85}, {"time": 2726, "pitch": 59, "duration": 3, "velocity": 86}, {"time": 2726, "pitch": 63, "duration": 5, "velocity": 88}, {"time": 2726, "pitch": 66, "duration": 8, "velocity": 83}, {"time": 2732, "pitch": 59, "duration": 4, "velocity": 84}, {"time": 2738, "pitch": 40, "duration": 32, "velocity": 88}, {"time": 2738, "pitch": 59, "duration": 5, "velocity": 84}, {"time": 2738, "pitch": 64, "duration": 13, "velocity": 89}, {"time": 2750, "pitch": 59, "duration": 3, "velocity": 79}, {"time": 2756, "pitch": 59, "duration": 4, "velocity": 84}, {"time": 2756, "pitch": 64, "duration": 13, "velocity": 92}, {"time": 2756, "pitch": 67, "duration": 14, "velocity": 84}, {"time": 2768, "pitch": 59, "duration": 3, "velocity": 84}, {"time": 2774, "pitch": 59, "duration": 3, "velocity": 86}, {"time": 2774, "pitch": 64, "duration": 5, "velocity": 89}, {"time": 2774, "pitch": 67, "duration": 6, "velocity": 83}, {"time": 2780, "pitch": 59, "duration": 3, "velocity": 83}, {"time": 2786, "pitch": 45, "duration": 34, "velocity": 84}, {"time": 2786, "pitch": 57, "duration": 13, "velocity": 83}, {"time": 2786, "pitch": 61, "duration": 10, "velocity": 80}, {"time": 2786, "pitch": 64, "duration": 11, "velocity": 84}, {"time": 2798, "pitch": 52, "duration": 20, "velocity": 73}, {"time": 2804, "pitch": 57, "duration": 6, "velocity": 87}, {"time": 2804, "pitch": 61, "duration": 8, "velocity": 92}, {"time": 2804, "pitch": 64, "duration": 13, "velocity": 88}, {"time": 2816, "pitch": 57, "duration": 3, "velocity": 75}, {"time": 2822, "pitch": 57, "duration": 3, "velocity": 85}, {"time": 2822, "pitch": 61, "duration": 6, "velocity": 92}, {"time": 2822, "pitch": 64, "duration": 9, "velocity": 87}, {"time": 2828, "pitch": 57, "duration": 3, "velocity": 80}, {"time": 2834, "pitch": 48, "duration": 21, "velocity": 87}, {"time": 2834, "pitch": 55, "duration": 6, "velocity": 84}, {"time": 2834, "pitch": 60, "duration": 8, "velocity": 85}, {"time": 2834, "pitch": 64, "duration": 8, "velocity": 85}, {"time": 2846, "pitch": 55, "duration": 2, "velocity": 84}, {"time": 2846, "pitch": 60, "duration": 7, "velocity": 94}, {"time": 2846, "pitch": 64, "duration": 10, "velocity": 90}, {"time": 2852, "pitch": 55, "duration": 2, "velocity": 82}, {"time": 2858, "pitch": 50, "duration": 17, "velocity": 88}, {"time": 2858, "pitch": 57, "duration": 3, "velocity": 79}, {"time": 2858, "pitch": 62, "duration": 10, "velocity": 84}, {"time": 2864, "pitch": 57, "duration": 4, "velocity": 72}, {"time": 2870, "pitch": 57, "duration": 3, "velocity": 78}, {"time": 2870, "pitch": 62, "duration": 8, "velocity": 82}, {"time": 2870, "pitch": 66, "duration": 8, "velocity": 84}, {"time": 2876, "pitch": 57, "duration": 2, "velocity": 72}, {"time": 2882, "pitch": 40, "duration": 49, "velocity": 87}, {"time": 2882, "pitch": 59, "duration": 6, "velocity": 83}, {"time": 2882, "pitch": 64, "duration": 14, "velocity": 87}, {"time": 2894, "pitch": 59, "duration": 4, "velocity": 83}, {"time": 2900, "pitch": 59, "duration": 5, "velocity": 86}, {"time": 2900, "pitch": 64, "duration": 8, "velocity": 92}, {"time": 2900, "pitch": 67, "duration": 8, "velocity": 85}, {"time": 2912, "pitch": 59, "duration": 4, "velocity": 82}, {"time": 2918, "pitch": 59, "duration": 2, "velocity": 87}, {"time": 2918, "pitch": 64, "duration": 10, "velocity": 94}, {"time": 2918, "pitch": 67, "duration": 10, "velocity": 86}, {"time": 2924, "pitch": 59, "duration": 5, "velocity": 87}, {"time": 2930, "pitch": 40, "duration": 1, "velocity": 86}, {"time": 2930, "pitch": 59, "duration": 4, "velocity": 83}, {"time": 2930, "pitch": 64, "duration": 7, "velocity": 84}, {"time": 2930, "pitch": 67, "duration": 9, "velocity": 77}, {"time": 2936, "pitch": 59, "duration": 4, "velocity": 82}, {"time": 2948, "pitch": 59, "duration": 4, "velocity": 87}, {"time": 2948, "pitch": 64, "duration": 4, "velocity": 90}, {"time": 2948, "pitch": 67, "duration": 5, "velocity": 83}, {"time": 2960, "pitch": 59, "duration": 4, "velocity": 67}, {"time": 2960, "pitch": 64, "duration": 2, "velocity": 65}, {"time": 2960, "pitch": 67, "duration": 2, "velocity": 58}, {"time": 2966, "pitch": 40, "duration": 3, "velocity": 83}, {"time": 2966, "pitch": 59, "duration": 3, "velocity": 86}, {"time": 2966, "pitch": 64, "duration": 4, "velocity": 88}, {"time": 2966, "pitch": 67, "duration": 6, "velocity": 84}, {"time": 2972, "pitch": 59, "duration": 3, "velocity": 83}, {"time": 2978, "pitch": 47, "duration": 22, "velocity": 77}, {"time": 2978, "pitch": 59, "duration": 9, "velocity": 82}, {"time": 2978, "pitch": 62, "duration": 13, "velocity": 74}, {"time": 2990, "pitch": 59, "duration": 3, "velocity": 84}, {"time": 2996, "pitch": 59, "duration": 5, "velocity": 87}, {"time": 2996, "pitch": 62, "duration": 5, "velocity": 85}, {"time": 2996, "pitch": 66, "duration": 6, "velocity": 84}, {"time": 3008, "pitch": 59, "duration": 3, "velocity": 85}, {"time": 3014, "pitch": 59, "duration": 3, "velocity": 84}, {"time": 3014, "pitch": 62, "duration": 5, "velocity": 87}, {"time": 3014, "pitch": 66, "duration": 8, "velocity": 85}, {"time": 3020, "pitch": 59, "duration": 2, "velocity": 72}, {"time": 3026, "pitch": 50, "duration": 37, "velocity": 85}, {"time": 3026, "pitch": 57, "duration": 6, "velocity": 84}, {"time": 3026, "pitch": 62, "duration": 14, "velocity": 83}, {"time": 3026, "pitch": 66, "duration": 14, "velocity": 78}, {"time": 3038, "pitch": 57, "duration": 4, "velocity": 67}, {"time": 3044, "pitch": 57, "duration": 7, "velocity": 84}, {"time": 3044, "pitch": 62, "duration": 14, "velocity": 85}, {"time": 3044, "pitch": 66, "duration": 14, "velocity": 83}, {"time": 3056, "pitch": 57, "duration": 3, "velocity": 80}, {"time": 3062, "pitch": 57, "duration": 3, "velocity": 84}, {"time": 3062, "pitch": 62, "duration": 7, "velocity": 87}, {"time": 3062, "pitch": 66, "duration": 7, "velocity": 85}, {"time": 3068, "pitch": 57, "duration": 3, "velocity": 75}, {"time": 3074, "pitch": 43, "duration": 15, "velocity": 83}, {"time": 3074, "pitch": 55, "duration": 12, "velocity": 84}, {"time": 3074, "pitch": 59, "duration": 12, "velocity": 87}, {"time": 3086, "pitch": 50, "duration": 4, "velocity": 76}, {"time": 3092, "pitch": 47, "duration": 21, "velocity": 88}, {"time": 3092, "pitch": 59, "duration": 7, "velocity": 80}, {"time": 3092, "pitch": 63, "duration": 14, "velocity": 77}, {"time": 3104, "pitch": 59, "duration": 3, "velocity": 85}, {"time": 3110, "pitch": 59, "duration": 3, "velocity": 86}, {"time": 3110, "pitch": 63, "duration": 5, "velocity": 88}, {"time": 3110, "pitch": 66, "duration": 8, "velocity": 83}, {"time": 3116, "pitch": 59, "duration": 4, "velocity": 84}, {"time": 3122, "pitch": 40, "duration": 32, "velocity": 88}, {"time": 3122, "pitch": 59, "duration": 5, "velocity": 84}, {"time": 3122, "pitch": 64, "duration": 13, "velocity": 89}, {"time": 3134, "pitch": 59, "duration": 3, "velocity": 79}, {"time": 3140, "pitch": 59, "duration": 4, "velocity": 84}, {"time": 3140, "pitch": 64, "duration": 13, "velocity": 92}, {"time": 3140, "pitch": 67, "duration": 14, "velocity": 84}, {"time": 3152, "pitch": 59, "duration": 3, "velocity": 84}, {"time": 3158, "pitch": 59, "duration": 3, "velocity": 86}, {"time": 3158, "pitch": 64, "duration": 5, "velocity": 89}, {"time": 3158, "pitch": 67, "duration": 6, "velocity": 83}, {"time": 3164, "pitch": 59, "duration": 3, "velocity": 83}, {"time": 3170, "pitch": 45, "duration": 34, "velocity": 84}, {"time": 3170, "pitch": 57, "duration": 13, "velocity": 83}, {"time": 3170, "pitch": 61, "duration": 10, "velocity": 80}, {"time": 3170, "pitch": 64, "duration": 11, "velocity": 84}, {"time": 3182, "pitch": 52, "duration": 20, "velocity": 73}, {"time": 3188, "pitch": 57, "duration": 6, "velocity": 87}, {"time": 3188, "pitch": 61, "duration": 8, "velocity": 92}, {"time": 3188, "pitch": 64, "duration": 13, "velocity": 88}, {"time": 3200, "pitch": 57, "duration": 3, "velocity": 75}, {"time": 3206, "pitch": 57, "duration": 3, "velocity": 85}, {"time": 3206, "pitch": 61, "duration": 6, "velocity": 92}, {"time": 3206, "pitch": 64, "duration": 9, "velocity": 87}, {"time": 3212, "pitch": 57, "duration": 3, "velocity": 80}, {"time": 3218, "pitch": 48, "duration": 21, "velocity": 87}, {"time": 3218, "pitch": 55, "duration": 6, "velocity": 84}, {"time": 3218, "pitch": 60, "duration": 8, "velocity": 85}, {"time": 3218, "pitch": 64, "duration": 8, "velocity": 85}, {"time": 3230, "pitch": 55, "duration": 2, "velocity": 84}, {"time": 3230, "pitch": 60, "duration": 7, "velocity": 94}, {"time": 3230, "pitch": 64, "duration": 10, "velocity": 90}, {"time": 3236, "pitch": 55, "duration": 2, "velocity": 82}, {"time": 3242, "pitch": 50, "duration": 17, "velocity": 88}, {"time": 3242, "pitch": 57, "duration": 3, "velocity": 79}, {"time": 3242, "pitch": 62, "duration": 10, "velocity": 84}, {"time": 3248, "pitch": 57, "duration": 4, "velocity": 72}, {"time": 3254, "pitch": 57, "duration": 3, "velocity": 78}, {"time": 3254, "pitch": 62, "duration": 8, "velocity": 82}, {"time": 3254, "pitch": 66, "duration": 8, "velocity": 84}, {"time": 3260, "pitch": 57, "duration": 2, "velocity": 72}, {"time": 3266, "pitch": 40, "duration": 49, "velocity": 87}, {"time": 3266, "pitch": 59, "duration": 6, "velocity": 83}, {"time": 3266, "pitch": 64, "duration": 14, "velocity": 87}, {"time": 3278, "pitch": 59, "duration": 4, "velocity": 83}, {"time": 3284, "pitch": 59, "duration": 5, "velocity": 86}, {"time": 3284, "pitch": 64, "duration": 8, "velocity": 92}, {"time": 3284, "pitch": 67, "duration": 8, "velocity": 85}, {"time": 3296, "pitch": 59, "duration": 4, "velocity": 82}, {"time": 3302, "pitch": 59, "duration": 2, "velocity": 87}, {"time": 3302, "pitch": 64, "duration": 10, "velocity": 94}, {"time": 3302, "pitch": 67, "duration": 10, "velocity": 86}, {"time": 3308, "pitch": 59, "duration": 5, "velocity": 87}, {"time": 3314, "pitch": 48, "duration": 22, "velocity": 89}, {"time": 3314, "pitch": 55, "duration": 4, "velocity": 83}, {"time": 3314, "pitch": 60, "duration": 8, "velocity": 76}, {"time": 3314, "pitch": 64, "duration": 9, "velocity": 85}, {"time": 3320, "pitch": 55, "duration": 3, "velocity": 83}, {"time": 3326, "pitch": 55, "duration": 3, "velocity": 85}, {"time": 3326, "pitch": 60, "duration": 5, "velocity": 89}, {"time": 3326, "pitch": 64, "duration": 8, "velocity": 89}, {"time": 3332, "pitch": 55, "duration": 2, "velocity": 84}, {"time": 3338, "pitch": 50, "duration": 13, "velocity": 88}, {"time": 3338, "pitch": 57, "duration": 11, "velocity": 76}, {"time": 3338, "pitch": 62, "duration": 9, "velocity": 84}, {"time": 3350, "pitch": 57, "duration": 2, "velocity": 73}, {"time": 3350, "pitch": 62, "duration": 8, "velocity": 84}, {"time": 3350, "pitch": 66, "duration": 8, "velocity": 77}, {"time": 3356, "pitch": 57, "duration": 3, "velocity": 83}, {"time": 3362, "pitch": 40, "duration": 16, "velocity": 85}, {"time": 3362, "pitch": 59, "duration": 8, "velocity": 85}, {"time": 3362, "pitch": 64, "duration": 9, "velocity": 89}, {"time": 3374, "pitch": 59, "duration": 3, "velocity": 84}, {"time": 3374, "pitch": 64, "duration": 2, "velocity": 51}, {"time": 3380, "pitch": 40, "duration": 2, "velocity": 84}, {"time": 3380, "pitch": 59, "duration": 4, "velocity": 89}, {"time": 3380, "pitch": 64, "duration": 13, "velocity": 97}, {"time": 3380, "pitch": 67, "duration": 13, "velocity": 84}, {"time": 3392, "pitch": 59, "duration": 4, "velocity": 82}, {"time": 3398, "pitch": 59, "duration": 3, "velocity": 89}, {"time": 3398, "pitch": 64, "duration": 4, "velocity": 94}, {"time": 3398, "pitch": 67, "duration": 5, "velocity": 86}, {"time": 3404, "pitch": 59, "duration": 2, "velocity": 84}, {"time": 3410, "pitch": 48, "duration": 18, "velocity": 86}, {"time": 3410, "pitch": 55, "duration": 4, "velocity": 85}, {"time": 3410, "pitch": 60, "duration": 9, "velocity": 85}, {"time": 3416, "pitch": 55, "duration": 4, "velocity": 79}, {"time": 3422, "pitch": 55, "duration": 1, "velocity": 76}, {"time": 3422, "pitch": 60, "duration": 8, "velocity": 88}, {"time": 3422, "pitch": 64, "duration": 9, "velocity": 90}, {"time": 3428, "pitch": 55, "duration": 3, "velocity": 84}, {"time": 3434, "pitch": 50, "duration": 18, "velocity": 85}, {"time": 3434, "pitch": 57, "duration": 4, "velocity": 79}, {"time": 3434, "pitch": 62, "duration": 9, "velocity": 83}, {"time": 3440, "pitch": 57, "duration": 4, "velocity": 78}, {"time": 3446, "pitch": 57, "duration": 1, "velocity": 68}, {"time": 3446, "pitch": 62, "duration": 7, "velocity": 84}, {"time": 3446, "pitch": 66, "duration": 7, "velocity": 79}, {"time": 3452, "pitch": 57, "duration": 3, "velocity": 75}, {"time": 3458, "pitch": 43, "duration": 14, "velocity": 84}, {"time": 3458, "pitch": 55, "duration": 6, "velocity": 83}, {"time": 3458, "pitch": 59, "duration": 8, "velocity": 84}, {"time": 3470, "pitch": 55, "duration": 3, "velocity": 83}, {"time": 3470, "pitch": 59, "duration": 2, "velocity": 85}, {"time": 3476, "pitch": 47, "duration": 22, "velocity": 85}, {"time": 3476, "pitch": 59, "duration": 9, "velocity": 87}, {"time": 3476, "pitch": 63, "duration": 10, "velocity": 87}, {"time": 3488, "pitch": 59, "duration": 3, "velocity": 84}, {"time": 3494, "pitch": 59, "duration": 3, "velocity": 87}, {"time": 3494, "pitch": 63, "duration": 5, "velocity": 84}, {"time": 3494, "pitch": 66, "duration": 7, "velocity": 83}, {"time": 3500, "pitch": 59, "duration": 2, "velocity": 83}, {"time": 3506, "pitch": 48, "duration": 20, "velocity": 92}, {"time": 3506, "pitch": 55, "duration": 5, "velocity": 83}, {"time": 3506, "pitch": 60, "duration": 9, "velocity": 85}, {"time": 3512, "pitch": 55, "duration": 4, "velocity": 78}, {"time": 3518, "pitch": 55, "duration": 1, "velocity": 70}, {"time": 3518, "pitch": 60, "duration": 4, "velocity": 88}, {"time": 3518, "pitch": 64, "duration": 8, "velocity": 88}, {"time": 3524, "pitch": 55, "duration": 3, "velocity": 85}, {"time": 3524, "pitch": 60, "duration": 2, "velocity": 66}, {"time": 3530, "pitch": 50, "duration": 21, "velocity": 88}, {"time": 3530, "pitch": 57, "duration": 3, "velocity": 83}, {"time": 3530, "pitch": 62, "duration": 9, "velocity": 83}, {"time": 3536, "pitch": 57, "duration": 4, "velocity": 82}, {"time": 3542, "pitch": 62, "duration": 8, "velocity": 80}, {"time": 3542, "pitch": 66, "duration": 7, "velocity": 83}, {"time": 3548, "pitch": 57, "duration": 4, "velocity": 76}, {"time": 3554, "pitch": 40, "duration": 11, "velocity": 88}, {"time": 3554, "pitch": 59, "duration": 4, "velocity": 85}, {"time": 3554, "pitch": 64, "duration": 7, "velocity": 90}, {"time": 3554, "pitch": 67, "duration": 8, "velocity": 85}, {"time": 3566, "pitch": 59, "duration": 2, "velocity": 80}, {"time": 3566, "pitch": 64, "duration": 7, "velocity": 88}, {"time": 3566, "pitch": 67, "duration": 7, "velocity": 84}, {"time": 3572, "pitch": 59, "duration": 1, "velocity": 71}, {"time": 3578, "pitch": 47, "duration": 13, "velocity": 85}, {"time": 3578, "pitch": 59, "duration": 5, "velocity": 81}, {"time": 3578, "pitch": 62, "duration": 8, "velocity": 84}, {"time": 3584, "pitch": 59, "duration": 2, "velocity": 73}, {"time": 3590, "pitch": 59, "duration": 2, "velocity": 85}, {"time": 3590, "pitch": 62, "duration": 6, "velocity": 85}, {"time": 3590, "pitch": 66, "duration": 6, "velocity": 86}, {"time": 3596, "pitch": 59, "duration": 2, "velocity": 71}, {"time": 3602, "pitch": 48, "duration": 21, "velocity": 88}, {"time": 3602, "pitch": 55, "duration": 10, "velocity": 81}, {"time": 3602, "pitch": 60, "duration": 10, "velocity": 83}, {"time": 3614, "pitch": 55, "duration": 4, "velocity": 87}, {"time": 3614, "pitch": 60, "duration": 7, "velocity": 92}, {"time": 3626, "pitch": 50, "duration": 16, "velocity": 97}, {"time": 3626, "pitch": 57, "duration": 7, "velocity": 83}, {"time": 3626, "pitch": 62, "duration": 8, "velocity": 88}, {"time": 3638, "pitch": 57, "duration": 3, "velocity": 87}, {"time": 3638, "pitch": 62, "duration": 7, "velocity": 89}, {"time": 3638, "pitch": 66, "duration": 8, "velocity": 92}, {"time": 3644, "pitch": 57, "duration": 2, "velocity": 77}, {"time": 3650, "pitch": 40, "duration": 48, "velocity": 92}, {"time": 3650, "pitch": 52, "duration": 8, "velocity": 85}, {"time": 3650, "pitch": 53, "duration": 2, "velocity": 77}, {"time": 3650, "pitch": 55, "duration": 8, "velocity": 82}, {"time": 3662, "pitch": 52, "duration": 3, "velocity": 83}, {"time": 3662, "pitch": 55, "duration": 7, "velocity": 84}, {"time": 3668, "pitch": 52, "duration": 2, "velocity": 77}, {"time": 3674, "pitch": 52, "duration": 2, "velocity": 75}, {"time": 3674, "pitch": 55, "duration": 1, "velocity": 73}, {"time": 3680, "pitch": 52, "duration": 3, "velocity": 83}, {"time": 3680, "pitch": 55, "duration": 3, "velocity": 85}, {"time": 3686, "pitch": 47, "duration": 12, "velocity": 70}, {"time": 3686, "pitch": 52, "duration": 5, "velocity": 89}, {"time": 3686, "pitch": 55, "duration": 9, "velocity": 99}, {"time": 3692, "pitch": 52, "duration": 3, "velocity": 82}, {"time": 3695, "pitch": 52, "duration": 18, "velocity": 74}, {"time": 3698, "pitch": 55, "duration": 14, "velocity": 64}, {"time": 3698, "pitch": 64, "duration": 14, "velocity": 84}, {"time": 3698, "pitch": 40, "duration": 41, "velocity": 87}, {"time": 3716, "pitch": 52, "duration": 3, "velocity": 84}, {"time": 3716, "pitch": 55, "duration": 3, "velocity": 85}, {"time": 3716, "pitch": 64, "duration": 3, "velocity": 86}, {"time": 3734, "pitch": 64, "duration": 2, "velocity": 84}, {"time": 3734, "pitch": 52, "duration": 3, "velocity": 83}, {"time": 3734, "pitch": 55, "duration": 3, "velocity": 83}, {"time": 3752, "pitch": 64, "duration": 3, "velocity": 89}, {"time": 3752, "pitch": 52, "duration": 3, "velocity": 88}, {"time": 3752, "pitch": 55, "duration": 3, "velocity": 89}, {"time": 3764, "pitch": 40, "duration": 6, "velocity": 81}, {"time": 3770, "pitch": 52, "duration": 3, "velocity": 86}, {"time": 3770, "pitch": 55, "duration": 3, "velocity": 87}, {"time": 3771, "pitch": 64, "duration": 3, "velocity": 86}, {"time": 3782, "pitch": 52, "duration": 2, "velocity": 84}, {"time": 3782, "pitch": 55, "duration": 2, "velocity": 85}, {"time": 3783, "pitch": 64, "duration": 2, "velocity": 85}, {"time": 3791, "pitch": 52, "duration": 9, "velocity": 76}, {"time": 3794, "pitch": 55, "duration": 7, "velocity": 83}, {"time": 3794, "pitch": 40, "duration": 40, "velocity": 89}, {"time": 3795, "pitch": 64, "duration": 6, "velocity": 83}, {"time": 3812, "pitch": 64, "duration": 2, "velocity": 85}, {"time": 3812, "pitch": 52, "duration": 2, "velocity": 82}, {"time": 3812, "pitch": 55, "duration": 2, "velocity": 81}, {"time": 3830, "pitch": 64, "duration": 3, "velocity": 86}, {"time": 3830, "pitch": 52, "duration": 3, "velocity": 87}, {"time": 3830, "pitch": 55, "duration": 3, "velocity": 86}, {"time": 3842, "pitch": 40, "duration": 17, "velocity": 84}, {"time": 3848, "pitch": 64, "duration": 2, "velocity": 88}, {"time": 3848, "pitch": 52, "duration": 2, "velocity": 87}, {"time": 3848, "pitch": 55, "duration": 2, "velocity": 88}, {"time": 3860, "pitch": 40, "duration": 8, "velocity": 90}, {"time": 3866, "pitch": 52, "duration": 2, "velocity": 89}, {"time": 3866, "pitch": 55, "duration": 2, "velocity": 87}, {"time": 3867, "pitch": 64, "duration": 2, "velocity": 92}, {"time": 3878, "pitch": 52, "duration": 2, "velocity": 89}, {"time": 3878, "pitch": 55, "duration": 3, "velocity": 87}, {"time": 3878, "pitch": 64, "duration": 4, "velocity": 86}, {"time": 3884, "pitch": 52, "duration": 5, "velocity": 94}, {"time": 3884, "pitch": 64, "duration": 2, "velocity": 71}, {"time": 3887, "pitch": 52, "duration": 2, "velocity": 74}, {"time": 3890, "pitch": 55, "duration": 14, "velocity": 64}, {"time": 3890, "pitch": 64, "duration": 14, "velocity": 84}, {"time": 3890, "pitch": 40, "duration": 41, "velocity": 87}, {"time": 3908, "pitch": 52, "duration": 3, "velocity": 84}, {"time": 3908, "pitch": 55, "duration": 3, "velocity": 85}, {"time": 3908, "pitch": 64, "duration": 3, "velocity": 86}, {"time": 3926, "pitch": 64, "duration": 2, "velocity": 84}, {"time": 3926, "pitch": 52, "duration": 3, "velocity": 83}, {"time": 3926, "pitch": 55, "duration": 3, "velocity": 83}, {"time": 3944, "pitch": 64, "duration": 3, "velocity": 89}, {"time": 3944, "pitch": 52, "duration": 3, "velocity": 88}, {"time": 3944, "pitch": 55, "duration": 3, "velocity": 89}, {"time": 3956, "pitch": 40, "duration": 6, "velocity": 81}, {"time": 3962, "pitch": 52, "duration": 3, "velocity": 86}, {"time": 3962, "pitch": 55, "duration": 3, "velocity": 87}, {"time": 3963, "pitch": 64, "duration": 3, "velocity": 86}, {"time": 3974, "pitch": 52, "duration": 2, "velocity": 84}, {"time": 3974, "pitch": 55, "duration": 2, "velocity": 85}, {"time": 3975, "pitch": 64, "duration": 2, "velocity": 85}, {"time": 3983, "pitch": 52, "duration": 9, "velocity": 76}, {"time": 3986, "pitch": 55, "duration": 7, "velocity": 83}, {"time": 3986, "pitch": 40, "duration": 40, "velocity": 89}, {"time": 3987, "pitch": 64, "duration": 6, "velocity": 83}, {"time": 4004, "pitch": 64, "duration": 2, "velocity": 85}, {"time": 4004, "pitch": 52, "duration": 2, "velocity": 82}, {"time": 4004, "pitch": 55, "duration": 2, "velocity": 81}, {"time": 4022, "pitch": 64, "duration": 3, "velocity": 86}, {"time": 4022, "pitch": 52, "duration": 3, "velocity": 87}, {"time": 4022, "pitch": 55, "duration": 3, "velocity": 86}, {"time": 4034, "pitch": 40, "duration": 17, "velocity": 84}, {"time": 4040, "pitch": 64, "duration": 2, "velocity": 88}, {"time": 4040, "pitch": 52, "duration": 2, "velocity": 87}, {"time": 4040, "pitch": 55, "duration": 2, "velocity": 88}, {"time": 4052, "pitch": 40, "duration": 8, "velocity": 90}, {"time": 4058, "pitch": 52, "duration": 2, "velocity": 89}, {"time": 4058, "pitch": 55, "duration": 2, "velocity": 87}, {"time": 4059, "pitch": 64, "duration": 2, "velocity": 92}, {"time": 4070, "pitch": 52, "duration": 2, "velocity": 89}, {"time": 4070, "pitch": 55, "duration": 3, "velocity": 87}, {"time": 4070, "pitch": 64, "duration": 4, "velocity": 86}, {"time": 4076, "pitch": 52, "duration": 5, "velocity": 94}, {"time": 4076, "pitch": 64, "duration": 2, "velocity": 71}, {"time": 4079, "pitch": 52, "duration": 2, "velocity": 74}, {"time": 4082, "pitch": 55, "duration": 14, "velocity": 64}, {"time": 4082, "pitch": 64, "duration": 14, "velocity": 84}, {"time": 4082, "pitch": 40, "duration": 41, "velocity": 87}, {"time": 4100, "pitch": 52, "duration": 3, "velocity": 84}, {"time": 4100, "pitch": 55, "duration": 3, "velocity": 85}, {"time": 4100, "pitch": 64, "duration": 3, "velocity": 86}, {"time": 4118, "pitch": 64, "duration": 2, "velocity": 84}, {"time": 4118, "pitch": 52, "duration": 3, "velocity": 83}, {"time": 4118, "pitch": 55, "duration": 3, "velocity": 83}, {"time": 4136, "pitch": 64, "duration": 3, "velocity": 89}, {"time": 4136, "pitch": 52, "duration": 3, "velocity": 88}, {"time": 4136, "pitch": 55, "duration": 3, "velocity": 89}, {"time": 4148, "pitch": 40, "duration": 6, "velocity": 81}, {"time": 4154, "pitch": 52, "duration": 3, "velocity": 86}, {"time": 4154, "pitch": 55, "duration": 3, "velocity": 87}, {"time": 4155, "pitch": 64, "duration": 3, "velocity": 86}, {"time": 4166, "pitch": 52, "duration": 2, "velocity": 84}, {"time": 4166, "pitch": 55, "duration": 2, "velocity": 85}, {"time": 4167, "pitch": 64, "duration": 2, "velocity": 85}, {"time": 4175, "pitch": 52, "duration": 9, "velocity": 76}, {"time": 4178, "pitch": 55, "duration": 7, "velocity": 83}, {"time": 4178, "pitch": 40, "duration": 40, "velocity": 89}, {"time": 4179, "pitch": 64, "duration": 6, "velocity": 83}, {"time": 4196, "pitch": 64, "duration": 2, "velocity": 85}, {"time": 4196, "pitch": 52, "duration": 2, "velocity": 82}, {"time": 4196, "pitch": 55, "duration": 2, "velocity": 81}, {"time": 4214, "pitch": 64, "duration": 3, "velocity": 86}, {"time": 4214, "pitch": 52, "duration": 3, "velocity": 87}, {"time": 4214, "pitch": 55, "duration": 3, "velocity": 86}, {"time": 4226, "pitch": 40, "duration": 17, "velocity": 84}, {"time": 4232, "pitch": 64, "duration": 2, "velocity": 88}, {"time": 4232, "pitch": 52, "duration": 2, "velocity": 87}, {"time": 4232, "pitch": 55, "duration": 2, "velocity": 88}, {"time": 4244, "pitch": 40, "duration": 8, "velocity": 90}, {"time": 4250, "pitch": 52, "duration": 2, "velocity": 89}, {"time": 4250, "pitch": 55, "duration": 2, "velocity": 87}, {"time": 4251, "pitch": 64, "duration": 2, "velocity": 92}, {"time": 4262, "pitch": 52, "duration": 2, "velocity": 89}, {"time": 4262, "pitch": 55, "duration": 3, "velocity": 87}, {"time": 4262, "pitch": 64, "duration": 4, "velocity": 86}, {"time": 4268, "pitch": 52, "duration": 5, "velocity": 94}, {"time": 4268, "pitch": 64, "duration": 2, "velocity": 71}, {"time": 4274, "pitch": 52, "duration": 15, "velocity": 90}, {"time": 4274, "pitch": 64, "duration": 15, "velocity": 84}, {"time": 4274, "pitch": 67, "duration": 14, "velocity": 84}, {"time": 4292, "pitch": 52, "duration": 6, "velocity": 89}, {"time": 4292, "pitch": 59, "duration": 6, "velocity": 84}, {"time": 4292, "pitch": 64, "duration": 15, "velocity": 83}, {"time": 4292, "pitch": 67, "duration": 15, "velocity": 84}, {"time": 4292, "pitch": 71, "duration": 15, "velocity": 84}, {"time": 4304, "pitch": 52, "duration": 6, "velocity": 89}, {"time": 4310, "pitch": 64, "duration": 3, "velocity": 85}, {"time": 4310, "pitch": 67, "duration": 5, "velocity": 86}, {"time": 4310, "pitch": 71, "duration": 6, "velocity": 88}, {"time": 4316, "pitch": 64, "duration": 3, "velocity": 80}, {"time": 4322, "pitch": 50, "duration": 16, "velocity": 87}, {"time": 4322, "pitch": 62, "duration": 12, "velocity": 84}, {"time": 4322, "pitch": 66, "duration": 12, "velocity": 87}, {"time": 4322, "pitch": 69, "duration": 13, "velocity": 83}, {"time": 4334, "pitch": 57, "duration": 4, "velocity": 69}, {"time": 4340, "pitch": 50, "duration": 20, "velocity": 86}, {"time": 4340, "pitch": 57, "duration": 19, "velocity": 82}, {"time": 4340, "pitch": 62, "duration": 8, "velocity": 85}, {"time": 4340, "pitch": 66, "duration": 9, "velocity": 90}, {"time": 4340, "pitch": 69, "duration": 14, "velocity": 85}, {"time": 4352, "pitch": 62, "duration": 3, "velocity": 84}, {"time": 4358, "pitch": 62, "duration": 4, "velocity": 84}, {"time": 4358, "pitch": 66, "duration": 4, "velocity": 85}, {"time": 4358, "pitch": 69, "duration": 4, "velocity": 84}, {"time": 4370, "pitch": 48, "duration": 19, "velocity": 87}, {"time": 4370, "pitch": 60, "duration": 14, "velocity": 78}, {"time": 4370, "pitch": 64, "duration": 14, "velocity": 85}, {"time": 4382, "pitch": 55, "duration": 7, "velocity": 72}, {"time": 4388, "pitch": 60, "duration": 14, "velocity": 84}, {"time": 4388, "pitch": 64, "duration": 14, "velocity": 89}, {"time": 4388, "pitch": 67, "duration": 13, "velocity": 83}, {"time": 4400, "pitch": 48, "duration": 8, "velocity": 83}, {"time": 4406, "pitch": 60, "duration": 3, "velocity": 84}, {"time": 4406, "pitch": 64, "duration": 8, "velocity": 89}, {"time": 4406, "pitch": 67, "duration": 9, "velocity": 85}, {"time": 4412, "pitch": 60, "duration": 3, "velocity": 76}, {"time": 4418, "pitch": 43, "duration": 40, "velocity": 83}, {"time": 4418, "pitch": 62, "duration": 14, "velocity": 79}, {"time": 4418, "pitch": 67, "duration": 14, "velocity": 77}, {"time": 4430, "pitch": 50, "duration": 20, "velocity": 70}, {"time": 4436, "pitch": 62, "duration": 6, "velocity": 85}, {"time": 4436, "pitch": 67, "duration": 9, "velocity": 85}, {"time": 4436, "pitch": 71, "duration": 14, "velocity": 85}, {"time": 4448, "pitch": 62, "duration": 3, "velocity": 82}, {"time": 4448, "pitch": 67, "duration": 2, "velocity": 65}, {"time": 4454, "pitch": 62, "duration": 3, "velocity": 85}, {"time": 4454, "pitch": 67, "duration": 9, "velocity": 84}, {"time": 4454, "pitch": 71, "duration": 9, "velocity": 84}, {"time": 4460, "pitch": 62, "duration": 3, "velocity": 79}, {"time": 4466, "pitch": 40, "duration": 45, "velocity": 85}, {"time": 4466, "pitch": 64, "duration": 13, "velocity": 83}, {"time": 4466, "pitch": 67, "duration": 13, "velocity": 79}, {"time": 4466, "pitch": 71, "duration": 14, "velocity": 80}, {"time": 4478, "pitch": 47, "duration": 28, "velocity": 70}, {"time": 4484, "pitch": 64, "duration": 8, "velocity": 85}, {"time": 4484, "pitch": 67, "duration": 10, "velocity": 85}, {"time": 4484, "pitch": 71, "duration": 11, "velocity": 87}, {"time": 4496, "pitch": 64, "duration": 4, "velocity": 79}, {"time": 4502, "pitch": 64, "duration": 4, "velocity": 85}, {"time": 4502, "pitch": 67, "duration": 6, "velocity": 87}, {"time": 4502, "pitch": 71, "duration": 10, "velocity": 85}, {"time": 4508, "pitch": 64, "duration": 2, "velocity": 81}, {"time": 4514, "pitch": 36, "duration": 29, "velocity": 83}, {"time": 4514, "pitch": 60, "duration": 9, "velocity": 86}, {"time": 4514, "pitch": 64, "duration": 13, "velocity": 85}, {"time": 4514, "pitch": 67, "duration": 14, "velocity": 77}, {"time": 4526, "pitch": 60, "duration": 2, "velocity": 66}, {"time": 4532, "pitch": 60, "duration": 6, "velocity": 87}, {"time": 4532, "pitch": 64, "duration": 13, "velocity": 94}, {"time": 4532, "pitch": 67, "duration": 13, "velocity": 88}, {"time": 4544, "pitch": 60, "duration": 3, "velocity": 85}, {"time": 4550, "pitch": 60, "duration": 3, "velocity": 86}, {"time": 4550, "pitch": 64, "duration": 3, "velocity": 94}, {"time": 4550, "pitch": 67, "duration": 5, "velocity": 84}, {"time": 4556, "pitch": 62, "duration": 2, "velocity": 50}, {"time": 4562, "pitch": 38, "duration": 34, "velocity": 87}, {"time": 4562, "pitch": 62, "duration": 7, "velocity": 79}, {"time": 4562, "pitch": 66, "duration": 13, "velocity": 84}, {"time": 4562, "pitch": 69, "duration": 13, "velocity": 83}, {"time": 4574, "pitch": 62, "duration": 2, "velocity": 67}, {"time": 4580, "pitch": 45, "duration": 15, "velocity": 74}, {"time": 4580, "pitch": 62, "duration": 5, "velocity": 85}, {"time": 4580, "pitch": 66, "duration": 9, "velocity": 92}, {"time": 4580, "pitch": 69, "duration": 14, "velocity": 85}, {"time": 4592, "pitch": 62, "duration": 3, "velocity": 78}, {"time": 4598, "pitch": 62, "duration": 3, "velocity": 85}, {"time": 4598, "pitch": 66, "duration": 8, "velocity": 94}, {"time": 4598, "pitch": 69, "duration": 10, "velocity": 86}, {"time": 4604, "pitch": 62, "duration": 3, "velocity": 79}, {"time": 4610, "pitch": 40, "duration": 41, "velocity": 83}, {"time": 4610, "pitch": 52, "duration": 40, "velocity": 78}, {"time": 4610, "pitch": 64, "duration": 12, "velocity": 84}, {"time": 4610, "pitch": 67, "duration": 12, "velocity": 83}, {"time": 4610, "pitch": 71, "duration": 12, "velocity": 84}, {"time": 4628, "pitch": 64, "duration": 5, "velocity": 89}, {"time": 4628, "pitch": 67, "duration": 5, "velocity": 86}, {"time": 4628, "pitch": 71, "duration": 6, "velocity": 90}, {"time": 4640, "pitch": 64, "duration": 3, "velocity": 70}, {"time": 4646, "pitch": 64, "duration": 3, "velocity": 87}, {"time": 4646, "pitch": 67, "duration": 9, "velocity": 85}, {"time": 4646, "pitch": 71, "duration": 10, "velocity": 86}, {"time": 4652, "pitch": 64, "duration": 5, "velocity": 87}, {"time": 4658, "pitch": 48, "duration": 22, "velocity": 89}, {"time": 4658, "pitch": 55, "duration": 4, "velocity": 83}, {"time": 4658, "pitch": 60, "duration": 8, "velocity": 76}, {"time": 4658, "pitch": 64, "duration": 9, "velocity": 85}, {"time": 4664, "pitch": 55, "duration": 3, "velocity": 83}, {"time": 4670, "pitch": 55, "duration": 3, "velocity": 85}, {"time": 4670, "pitch": 60, "duration": 5, "velocity": 89}, {"time": 4670, "pitch": 64, "duration": 8, "velocity": 89}, {"time": 4676, "pitch": 55, "duration": 2, "velocity": 84}, {"time": 4682, "pitch": 50, "duration": 13, "velocity": 88}, {"time": 4682, "pitch": 57, "duration": 11, "velocity": 76}, {"time": 4682, "pitch": 62, "duration": 9, "velocity": 84}, {"time": 4694, "pitch": 57, "duration": 2, "velocity": 73}, {"time": 4694, "pitch": 62, "duration": 8, "velocity": 84}, {"time": 4694, "pitch": 66, "duration": 8, "velocity": 77}, {"time": 4700, "pitch": 57, "duration": 3, "velocity": 83}, {"time": 4706, "pitch": 40, "duration": 16, "velocity": 85}, {"time": 4706, "pitch": 59, "duration": 8, "velocity": 85}, {"time": 4706, "pitch": 64, "duration": 9, "velocity": 89}, {"time": 4718, "pitch": 59, "duration": 3, "velocity": 84}, {"time": 4718, "pitch": 64, "duration": 2, "velocity": 51}, {"time": 4724, "pitch": 40, "duration": 2, "velocity": 84}, {"time": 4724, "pitch": 59, "duration": 4, "velocity": 89}, {"time": 4724, "pitch": 64, "duration": 13, "velocity": 97}, {"time": 4724, "pitch": 67, "duration": 13, "velocity": 84}, {"time": 4736, "pitch": 59, "duration": 4, "velocity": 82}, {"time": 4742, "pitch": 59, "duration": 3, "velocity": 89}, {"time": 4742, "pitch": 64, "duration": 4, "velocity": 94}, {"time": 4742, "pitch": 67, "duration": 5, "velocity": 86}, {"time": 4748, "pitch": 59, "duration": 2, "velocity": 84}, {"time": 4754, "pitch": 48, "duration": 18, "velocity": 86}, {"time": 4754, "pitch": 55, "duration": 4, "velocity": 85}, {"time": 4754, "pitch": 60, "duration": 9, "velocity": 85}, {"time": 4760, "pitch": 55, "duration": 4, "velocity": 79}, {"time": 4766, "pitch": 55, "duration": 1, "velocity": 76}, {"time": 4766, "pitch": 60, "duration": 8, "velocity": 88}, {"time": 4766, "pitch": 64, "duration": 9, "velocity": 90}, {"time": 4772, "pitch": 55, "duration": 3, "velocity": 84}, {"time": 4778, "pitch": 50, "duration": 18, "velocity": 85}, {"time": 4778, "pitch": 57, "duration": 4, "velocity": 79}, {"time": 4778, "pitch": 62, "duration": 9, "velocity": 83}, {"time": 4784, "pitch": 57, "duration": 4, "velocity": 78}, {"time": 4790, "pitch": 57, "duration": 1, "velocity": 68}, {"time": 4790, "pitch": 62, "duration": 7, "velocity": 84}, {"time": 4790, "pitch": 66, "duration": 7, "velocity": 79}, {"time": 4796, "pitch": 57, "duration": 3, "velocity": 75}, {"time": 4802, "pitch": 43, "duration": 14, "velocity": 84}, {"time": 4802, "pitch": 55, "duration": 6, "velocity": 83}, {"time": 4802, "pitch": 59, "duration": 8, "velocity": 84}, {"time": 4814, "pitch": 55, "duration": 3, "velocity": 83}, {"time": 4814, "pitch": 59, "duration": 2, "velocity": 85}, {"time": 4820, "pitch": 47, "duration": 22, "velocity": 85}, {"time": 4820, "pitch": 59, "duration": 9, "velocity": 87}, {"time": 4820, "pitch": 63, "duration": 10, "velocity": 87}, {"time": 4832, "pitch": 59, "duration": 3, "velocity": 84}, {"time": 4838, "pitch": 59, "duration": 3, "velocity": 87}, {"time": 4838, "pitch": 63, "duration": 5, "velocity": 84}, {"time": 4838, "pitch": 66, "duration": 7, "velocity": 83}, {"time": 4844, "pitch": 59, "duration": 2, "velocity": 83}, {"time": 4850, "pitch": 48, "duration": 20, "velocity": 92}, {"time": 4850, "pitch": 55, "duration": 5, "velocity": 83}, {"time": 4850, "pitch": 60, "duration": 9, "velocity": 85}, {"time": 4856, "pitch": 55, "duration": 4, "velocity": 78}, {"time": 4862, "pitch": 55, "duration": 1, "velocity": 70}, {"time": 4862, "pitch": 60, "duration": 4, "velocity": 88}, {"time": 4862, "pitch": 64, "duration": 8, "velocity": 88}, {"time": 4868, "pitch": 55, "duration": 3, "velocity": 85}, {"time": 4868, "pitch": 60, "duration": 2, "velocity": 66}, {"time": 4874, "pitch": 50, "duration": 21, "velocity": 88}, {"time": 4874, "pitch": 57, "duration": 3, "velocity": 83}, {"time": 4874, "pitch": 62, "duration": 9, "velocity": 83}, {"time": 4880, "pitch": 57, "duration": 4, "velocity": 82}, {"time": 4886, "pitch": 62, "duration": 8, "velocity": 80}, {"time": 4886, "pitch": 66, "duration": 7, "velocity": 83}, {"time": 4892, "pitch": 57, "duration": 4, "velocity": 76}, {"time": 4898, "pitch": 40, "duration": 11, "velocity": 88}, {"time": 4898, "pitch": 59, "duration": 4, "velocity": 85}, {"time": 4898, "pitch": 64, "duration": 7, "velocity": 90}, {"time": 4898, "pitch": 67, "duration": 8, "velocity": 85}, {"time": 4910, "pitch": 59, "duration": 2, "velocity": 80}, {"time": 4910, "pitch": 64, "duration": 7, "velocity": 88}, {"time": 4910, "pitch": 67, "duration": 7, "velocity": 84}, {"time": 4916, "pitch": 59, "duration": 1, "velocity": 71}, {"time": 4922, "pitch": 47, "duration": 13, "velocity": 85}, {"time": 4922, "pitch": 59, "duration": 5, "velocity": 81}, {"time": 4922, "pitch": 62, "duration": 8, "velocity": 84}, {"time": 4928, "pitch": 59, "duration": 2, "velocity": 73}, {"time": 4934, "pitch": 59, "duration": 2, "velocity": 85}, {"time": 4934, "pitch": 62, "duration": 6, "velocity": 85}, {"time": 4934, "pitch": 66, "duration": 6, "velocity": 86}, {"time": 4940, "pitch": 59, "duration": 2, "velocity": 71}, {"time": 4946, "pitch": 48, "duration": 21, "velocity": 88}, {"time": 4946, "pitch": 55, "duration": 10, "velocity": 81}, {"time": 4946, "pitch": 60, "duration": 10, "velocity": 83}, {"time": 4958, "pitch": 55, "duration": 4, "velocity": 87}, {"time": 4958, "pitch": 60, "duration": 7, "velocity": 92}, {"time": 4970, "pitch": 50, "duration": 16, "velocity": 97}, {"time": 4970, "pitch": 57, "duration": 7, "velocity": 83}, {"time": 4970, "pitch": 62, "duration": 8, "velocity": 88}, {"time": 4982, "pitch": 57, "duration": 3, "velocity": 87}, {"time": 4982, "pitch": 62, "duration": 7, "velocity": 89}, {"time": 4982, "pitch": 66, "duration": 8, "velocity": 92}, {"time": 4988, "pitch": 57, "duration": 2, "velocity": 77}, {"time": 4994, "pitch": 40, "duration": 48, "velocity": 92}, {"time": 4994, "pitch": 52, "duration": 8, "velocity": 85}, {"time": 4994, "pitch": 53, "duration": 2, "velocity": 77}, {"time": 4994, "pitch": 55, "duration": 8, "velocity": 82}, {"time": 5006, "pitch": 52, "duration": 3, "velocity": 83}, {"time": 5006, "pitch": 55, "duration": 7, "velocity": 84}, {"time": 5012, "pitch": 52, "duration": 2, "velocity": 77}, {"time": 5018, "pitch": 52, "duration": 2, "velocity": 75}, {"time": 5018, "pitch": 55, "duration": 1, "velocity": 73}, {"time": 5024, "pitch": 52, "duration": 3, "velocity": 83}, {"time": 5024, "pitch": 55, "duration": 3, "velocity": 85}, {"time": 5030, "pitch": 47, "duration": 12, "velocity": 70}, {"time": 5030, "pitch": 52, "duration": 5, "velocity": 89}, {"time": 5030, "pitch": 55, "duration": 9, "velocity": 99}, {"time": 5036, "pitch": 52, "duration": 3, "velocity": 82}, {"time": 5042, "pitch": 48, "duration": 22, "velocity": 89}, {"time": 5042, "pitch": 55, "duration": 4, "velocity": 83}, {"time": 5042, "pitch": 60, "duration": 8, "velocity": 76}, {"time": 5042, "pitch": 64, "duration": 9, "velocity": 85}, {"time": 5048, "pitch": 55, "duration": 3, "velocity": 83}, {"time": 5054, "pitch": 55, "duration": 3, "velocity": 85}, {"time": 5054, "pitch": 60, "duration": 5, "velocity": 89}, {"time": 5054, "pitch": 64, "duration": 8, "velocity": 89}, {"time": 5060, "pitch": 55, "duration": 2, "velocity": 84}, {"time": 5066, "pitch": 50, "duration": 13, "velocity": 88}, {"time": 5066, "pitch": 57, "duration": 11, "velocity": 76}, {"time": 5066, "pitch": 62, "duration": 9, "velocity": 84}, {"time": 5078, "pitch": 57, "duration": 2, "velocity": 73}, {"time": 5078, "pitch": 62, "duration": 8, "velocity": 84}, {"time": 5078, "pitch": 66, "duration": 8, "velocity": 77}, {"time": 5084, "pitch": 57, "duration": 3, "velocity": 83}, {"time": 5090, "pitch": 40, "duration": 16, "velocity": 85}, {"time": 5090, "pitch": 59, "duration": 8, "velocity": 85}, {"time": 5090, "pitch": 64, "duration": 9, "velocity": 89}, {"time": 5102, "pitch": 59, "duration": 3, "velocity": 84}, {"time": 5102, "pitch": 64, "duration": 2, "velocity": 51}, {"time": 5108, "pitch": 40, "duration": 2, "velocity": 84}, {"time": 5108, "pitch": 59, "duration": 4, "velocity": 89}, {"time": 5108, "pitch": 64, "duration": 13, "velocity": 97}, {"time": 5108, "pitch": 67, "duration": 13, "velocity": 84}, {"time": 5120, "pitch": 59, "duration": 4, "velocity": 82}, {"time": 5126, "pitch": 59, "duration": 3, "velocity": 89}, {"time": 5126, "pitch": 64, "duration": 4, "velocity": 94}, {"time": 5126, "pitch": 67, "duration": 5, "velocity": 86}, {"time": 5132, "pitch": 59, "duration": 2, "velocity": 84}, {"time": 5138, "pitch": 48, "duration": 18, "velocity": 86}, {"time": 5138, "pitch": 55, "duration": 4, "velocity": 85}, {"time": 5138, "pitch": 60, "duration": 9, "velocity": 85}, {"time": 5144, "pitch": 55, "duration": 4, "velocity": 79}, {"time": 5150, "pitch": 55, "duration": 1, "velocity": 76}, {"time": 5150, "pitch": 60, "duration": 8, "velocity": 88}, {"time": 5150, "pitch": 64, "duration": 9, "velocity": 90}, {"time": 5156, "pitch": 55, "duration": 3, "velocity": 84}, {"time": 5162, "pitch": 50, "duration": 18, "velocity": 85}, {"time": 5162, "pitch": 57, "duration": 4, "velocity": 79}, {"time": 5162, "pitch": 62, "duration": 9, "velocity": 83}, {"time": 5168, "pitch": 57, "duration": 4, "velocity": 78}, {"time": 5174, "pitch": 57, "duration": 1, "velocity": 68}, {"time": 5174, "pitch": 62, "duration": 7, "velocity": 84}, {"time": 5174, "pitch": 66, "duration": 7, "velocity": 79}, {"time": 5180, "pitch": 57, "duration": 3, "velocity": 75}, {"time": 5186, "pitch": 43, "duration": 14, "velocity": 84}, {"time": 5186, "pitch": 55, "duration": 6, "velocity": 83}, {"time": 5186, "pitch": 59, "duration": 8, "velocity": 84}, {"time": 5198, "pitch": 55, "duration": 3, "velocity": 83}, {"time": 5198, "pitch": 59, "duration": 2, "velocity": 85}, {"time": 5204, "pitch": 47, "duration": 22, "velocity": 85}, {"time": 5204, "pitch": 59, "duration": 9, "velocity": 87}, {"time": 5204, "pitch": 63, "duration": 10, "velocity": 87}, {"time": 5216, "pitch": 59, "duration": 3, "velocity": 84}, {"time": 5222, "pitch": 59, "duration": 3, "velocity": 87}, {"time": 5222, "pitch": 63, "duration": 5, "velocity": 84}, {"time": 5222, "pitch": 66, "duration": 7, "velocity": 83}, {"time": 5228, "pitch": 59, "duration": 2, "velocity": 83}, {"time": 5234, "pitch": 48, "duration": 20, "velocity": 92}, {"time": 5234, "pitch": 55, "duration": 5, "velocity": 83}, {"time": 5234, "pitch": 60, "duration": 9, "velocity": 85}, {"time": 5240, "pitch": 55, "duration": 4, "velocity": 78}, {"time": 5246, "pitch": 55, "duration": 1, "velocity": 70}, {"time": 5246, "pitch": 60, "duration": 4, "velocity": 88}, {"time": 5246, "pitch": 64, "duration": 8, "velocity": 88}, {"time": 5252, "pitch": 55, "duration": 3, "velocity": 85}, {"time": 5252, "pitch": 60, "duration": 2, "velocity": 66}, {"time": 5258, "pitch": 50, "duration": 21, "velocity": 88}, {"time": 5258, "pitch": 57, "duration": 3, "velocity": 83}, {"time": 5258, "pitch": 62, "duration": 9, "velocity": 83}, {"time": 5264, "pitch": 57, "duration": 4, "velocity": 82}, {"time": 5270, "pitch": 62, "duration": 8, "velocity": 80}, {"time": 5270, "pitch": 66, "duration": 7, "velocity": 83}, {"time": 5276, "pitch": 57, "duration": 4, "velocity": 76}, {"time": 5282, "pitch": 40, "duration": 11, "velocity": 88}, {"time": 5282, "pitch": 59, "duration": 4, "velocity": 85}, {"time": 5282, "pitch": 64, "duration": 7, "velocity": 90}, {"time": 5282, "pitch": 67, "duration": 8, "velocity": 85}, {"time": 5294, "pitch": 59, "duration": 2, "velocity": 80}, {"time": 5294, "pitch": 64, "duration": 7, "velocity": 88}, {"time": 5294, "pitch": 67, "duration": 7, "velocity": 84}, {"time": 5300, "pitch": 59, "duration": 1, "velocity": 71}, {"time": 5306, "pitch": 47, "duration": 13, "velocity": 85}, {"time": 5306, "pitch": 59, "duration": 5, "velocity": 81}, {"time": 5306, "pitch": 62, "duration": 8, "velocity": 84}, {"time": 5312, "pitch": 59, "duration": 2, "velocity": 73}, {"time": 5318, "pitch": 59, "duration": 2, "velocity": 85}, {"time": 5318, "pitch": 62, "duration": 6, "velocity": 85}, {"time": 5318, "pitch": 66, "duration": 6, "velocity": 86}, {"time": 5324, "pitch": 59, "duration": 2, "velocity": 71}, {"time": 5330, "pitch": 48, "duration": 21, "velocity": 88}, {"time": 5330, "pitch": 55, "duration": 10, "velocity": 81}, {"time": 5330, "pitch": 60, "duration": 10, "velocity": 83}, {"time": 5342, "pitch": 55, "duration": 4, "velocity": 87}, {"time": 5342, "pitch": 60, "duration": 7, "velocity": 92}, {"time": 5354, "pitch": 50, "duration": 16, "velocity": 97}, {"time": 5354, "pitch": 57, "duration": 7, "velocity": 83}, {"time": 5354, "pitch": 62, "duration": 8, "velocity": 88}, {"time": 5366, "pitch": 57, "duration": 3, "velocity": 87}, {"time": 5366, "pitch": 62, "duration": 7, "velocity": 89}, {"time": 5366, "pitch": 66, "duration": 8, "velocity": 92}, {"time": 5372, "pitch": 57, "duration": 2, "velocity": 77}, {"time": 5378, "pitch": 40, "duration": 48, "velocity": 92}, {"time": 5378, "pitch": 52, "duration": 8, "velocity": 85}, {"time": 5378, "pitch": 53, "duration": 2, "velocity": 77}, {"time": 5378, "pitch": 55, "duration": 8, "velocity": 82}, {"time": 5390, "pitch": 52, "duration": 3, "velocity": 83}, {"time": 5390, "pitch": 55, "duration": 7, "velocity": 84}, {"time": 5396, "pitch": 52, "duration": 2, "velocity": 77}, {"time": 5402, "pitch": 52, "duration": 2, "velocity": 75}, {"time": 5402, "pitch": 55, "duration": 1, "velocity": 73}, {"time": 5408, "pitch": 52, "duration": 3, "velocity": 83}, {"time": 5408, "pitch": 55, "duration": 3, "velocity": 85}, {"time": 5414, "pitch": 47, "duration": 12, "velocity": 70}, {"time": 5414, "pitch": 52, "duration": 5, "velocity": 89}, {"time": 5414, "pitch": 55, "duration": 9, "velocity": 99}, {"time": 5420, "pitch": 52, "duration": 3, "velocity": 82}, {"time": 5426, "pitch": 36, "duration": 11, "velocity": 85}, {"time": 5426, "pitch": 48, "duration": 7, "velocity": 83}, {"time": 5426, "pitch": 52, "duration": 8, "velocity": 84}, {"time": 5426, "pitch": 55, "duration": 9, "velocity": 83}, {"time": 5450, "pitch": 38, "duration": 3, "velocity": 88}, {"time": 5450, "pitch": 50, "duration": 5, "velocity": 79}, {"time": 5450, "pitch": 54, "duration": 6, "velocity": 75}, {"time": 5450, "pitch": 57, "duration": 7, "velocity": 80}, {"time": 5498, "pitch": 50, "duration": 10, "velocity": 92}, {"time": 5498, "pitch": 57, "duration": 10, "velocity": 79}, {"time": 5498, "pitch": 62, "duration": 10, "velocity": 84}, {"time": 5498, "pitch": 66, "duration": 11, "velocity": 83}, {"time": 5510, "pitch": 50, "duration": 12, "velocity": 100}, {"time": 5510, "pitch": 57, "duration": 11, "velocity": 83}, {"time": 5510, "pitch": 62, "duration": 11, "velocity": 87}, {"time": 5510, "pitch": 66, "duration": 12, "velocity": 85}, {"time": 5522, "pitch": 52, "duration": 15, "velocity": 90}, {"time": 5522, "pitch": 64, "duration": 15, "velocity": 84}, {"time": 5522, "pitch": 67, "duration": 14, "velocity": 84}, {"time": 5540, "pitch": 52, "duration": 6, "velocity": 89}, {"time": 5540, "pitch": 59, "duration": 6, "velocity": 84}, {"time": 5540, "pitch": 64, "duration": 15, "velocity": 83}, {"time": 5540, "pitch": 67, "duration": 15, "velocity": 84}, {"time": 5540, "pitch": 71, "duration": 15, "velocity": 84}, {"time": 5552, "pitch": 52, "duration": 6, "velocity": 89}, {"time": 5558, "pitch": 64, "duration": 3, "velocity": 85}, {"time": 5558, "pitch": 67, "duration": 5, "velocity": 86}, {"time": 5558, "pitch": 71, "duration": 6, "velocity": 88}, {"time": 5564, "pitch": 64, "duration": 3, "velocity": 80}, {"time": 5570, "pitch": 50, "duration": 16, "velocity": 87}, {"time": 5570, "pitch": 62, "duration": 12, "velocity": 84}, {"time": 5570, "pitch": 66, "duration": 12, "velocity": 87}, {"time": 5570, "pitch": 69, "duration": 13, "velocity": 83}, {"time": 5582, "pitch": 57, "duration": 4, "velocity": 69}, {"time": 5588, "pitch": 50, "duration": 20, "velocity": 86}, {"time": 5588, "pitch": 57, "duration": 19, "velocity": 82}, {"time": 5588, "pitch": 62, "duration": 8, "velocity": 85}, {"time": 5588, "pitch": 66, "duration": 9, "velocity": 90}, {"time": 5588, "pitch": 69, "duration": 14, "velocity": 85}, {"time": 5600, "pitch": 62, "duration": 3, "velocity": 84}, {"time": 5606, "pitch": 62, "duration": 4, "velocity": 84}, {"time": 5606, "pitch": 66, "duration": 4, "velocity": 85}, {"time": 5606, "pitch": 69, "duration": 4, "velocity": 84}, {"time": 5618, "pitch": 48, "duration": 19, "velocity": 87}, {"time": 5618, "pitch": 60, "duration": 14, "velocity": 78}, {"time": 5618, "pitch": 64, "duration": 14, "velocity": 85}, {"time": 5630, "pitch": 55, "duration": 7, "velocity": 72}, {"time": 5636, "pitch": 60, "duration": 14, "velocity": 84}, {"time": 5636, "pitch": 64, "duration": 14, "velocity": 89}, {"time": 5636, "pitch": 67, "duration": 13, "velocity": 83}, {"time": 5648, "pitch": 48, "duration": 8, "velocity": 83}, {"time": 5654, "pitch": 60, "duration": 3, "velocity": 84}, {"time": 5654, "pitch": 64, "duration": 8, "velocity": 89}, {"time": 5654, "pitch": 67, "duration": 9, "velocity": 85}, {"time": 5660, "pitch": 60, "duration": 3, "velocity": 76}, {"time": 5666, "pitch": 43, "duration": 40, "velocity": 83}, {"time": 5666, "pitch": 62, "duration": 14, "velocity": 79}, {"time": 5666, "pitch": 67, "duration": 14, "velocity": 77}, {"time": 5678, "pitch": 50, "duration": 20, "velocity": 70}, {"time": 5684, "pitch": 62, "duration": 6, "velocity": 85}, {"time": 5684, "pitch": 67, "duration": 9, "velocity": 85}, {"time": 5684, "pitch": 71, "duration": 14, "velocity": 85}, {"time": 5696, "pitch": 62, "duration": 3, "velocity": 82}, {"time": 5696, "pitch": 67, "duration": 2, "velocity": 65}, {"time": 5702, "pitch": 62, "duration": 3, "velocity": 85}, {"time": 5702, "pitch": 67, "duration": 9, "velocity": 84}, {"time": 5702, "pitch": 71, "duration": 9, "velocity": 84}, {"time": 5708, "pitch": 62, "duration": 3, "velocity": 79}, {"time": 5714, "pitch": 40, "duration": 45, "velocity": 85}, {"time": 5714, "pitch": 64, "duration": 13, "velocity": 83}, {"time": 5714, "pitch": 67, "duration": 13, "velocity": 79}, {"time": 5714, "pitch": 71, "duration": 14, "velocity": 80}, {"time": 5726, "pitch": 47, "duration": 28, "velocity": 70}, {"time": 5732, "pitch": 64, "duration": 8, "velocity": 85}, {"time": 5732, "pitch": 67, "duration": 10, "velocity": 85}, {"time": 5732, "pitch": 71, "duration": 11, "velocity": 87}, {"time": 5744, "pitch": 64, "duration": 4, "velocity": 79}, {"time": 5750, "pitch": 64, "duration": 4, "velocity": 85}, {"time": 5750, "pitch": 67, "duration": 6, "velocity": 87}, {"time": 5750, "pitch": 71, "duration": 10, "velocity": 85}, {"time": 5756, "pitch": 64, "duration": 2, "velocity": 81}, {"time": 5762, "pitch": 36, "duration": 29, "velocity": 83}, {"time": 5762, "pitch": 60, "duration": 9, "velocity": 86}, {"time": 5762, "pitch": 64, "duration": 13, "velocity": 85}, {"time": 5762, "pitch": 67, "duration": 14, "velocity": 77}, {"time": 5774, "pitch": 60, "duration": 2, "velocity": 66}, {"time": 5780, "pitch": 60, "duration": 6, "velocity": 87}, {"time": 5780, "pitch": 64, "duration": 13, "velocity": 94}, {"time": 5780, "pitch": 67, "duration": 13, "velocity": 88}, {"time": 5792, "pitch": 60, "duration": 3, "velocity": 85}, {"time": 5798, "pitch": 60, "duration": 3, "velocity": 86}, {"time": 5798, "pitch": 64, "duration": 3, "velocity": 94}, {"time": 5798, "pitch": 67, "duration": 5, "velocity": 84}, {"time": 5804, "pitch": 62, "duration": 2, "velocity": 50}, {"time": 5810, "pitch": 38, "duration": 66, "velocity": 87}, {"time": 5810, "pitch": 62, "duration": 7, "velocity": 79}, {"time": 5810, "pitch": 66, "duration": 13, "velocity": 84}, {"time": 5810, "pitch": 69, "duration": 13, "velocity": 83}, {"time": 5822, "pitch": 62, "duration": 2, "velocity": 67}, {"time": 5828, "pitch": 45, "duration": 47, "velocity": 74}, {"time": 5828, "pitch": 62, "duration": 5, "velocity": 85}, {"time": 5828, "pitch": 66, "duration": 9, "velocity": 92}, {"time": 5828, "pitch": 69, "duration": 14, "velocity": 85}, {"time": 5840, "pitch": 62, "duration": 3, "velocity": 78}, {"time": 5846, "pitch": 62, "duration": 3, "velocity": 85}, {"time": 5846, "pitch": 66, "duration": 8, "velocity": 94}, {"time": 5846, "pitch": 69, "duration": 10, "velocity": 86}, {"time": 5852, "pitch": 62, "duration": 3, "velocity": 79}, {"time": 5904, "pitch": 52, "duration": 95, "velocity": 75}, {"time": 5905, "pitch": 55, "duration": 95, "velocity": 78}, {"time": 5905, "pitch": 40, "duration": 95, "velocity": 86}, {"time": 5907, "pitch": 64, "duration": 94, "velocity": 49}], "annotations": [{"time": 51, "annotation": {"number": 64, "value": 127}, "group": "control_change"}, {"time": 141, "annotation": {"number": 64, "value": 0}, "group": "control_change"}, {"time": 148, "annotation": {"number": 64, "value": 127}, "group": "control_change"}, {"time": 238, "annotation": {"number": 64, "value": 0}, "group": "control_change"}, {"time": 243, "annotation": {"number": 64, "value": 127}, "group": "control_change"}, {"time": 333, "annotation": {"number": 64, "value": 0}, "group": "control_change"}, {"time": 340, "annotation": {"number": 64, "value": 127}, "group": "control_change"}, {"time": 430, "annotation": {"number": 64, "value": 0}, "group": "control_change"}, {"time": 435, "annotation": {"number": 64, "value": 127}, "group": "control_change"}, {"time": 525, "annotation": {"number": 64, "value": 0}, "group": "control_change"}, {"time": 532, "annotation": {"number": 64, "value": 127}, "group": "control_change"}, {"time": 622, "annotation": {"number": 64, "value": 0}, "group": "control_change"}, {"time": 629, "annotation": {"number": 64, "value": 127}, "group": "control_change"}, {"time": 672, "annotation": {"number": 64, "value": 0}, "group": "control_change"}, {"time": 678, "annotation": {"number": 64, "value": 127}, "group": "control_change"}, {"time": 720, "annotation": {"number": 64, "value": 0}, "group": "control_change"}, {"time": 733, "annotation": {"number": 64, "value": 127}, "group": "control_change"}, {"time": 769, "annotation": {"number": 64, "value": 0}, "group": "control_change"}, {"time": 780, "annotation": {"number": 64, "value": 127}, "group": "control_change"}, {"time": 815, "annotation": {"number": 64, "value": 0}, "group": "control_change"}, {"time": 820, "annotation": {"number": 64, "value": 127}, "group": "control_change"}, {"time": 864, "annotation": {"number": 64, "value": 0}, "group": "control_change"}, {"time": 869, "annotation": {"number": 64, "value": 127}, "group": "control_change"}, {"time": 912, "annotation": {"number": 64, "value": 0}, "group": "control_change"}, {"time": 916, "annotation": {"number": 64, "value": 127}, "group": "control_change"}, {"time": 959, "annotation": {"number": 64, "value": 0}, "group": "control_change"}, {"time": 963, "annotation": {"number": 64, "value": 127}, "group": "control_change"}, {"time": 1005, "annotation": {"number": 64, "value": 0}, "group": "control_change"}, {"time": 1011, "annotation": {"number": 64, "value": 127}, "group": "control_change"}, {"time": 1058, "annotation": {"number": 64, "value": 0}, "group": "control_change"}, {"time": 1063, "annotation": {"number": 64, "value": 127}, "group": "control_change"}, {"time": 1106, "annotation": {"number": 64, "value": 0}, "group": "control_change"}, {"time": 1113, "annotation": {"number": 64, "value": 127}, "group": "control_change"}, {"time": 1152, "annotation": {"number": 64, "value": 0}, "group": "control_change"}, {"time": 1156, "annotation": {"number": 64, "value": 127}, "group": "control_change"}, {"time": 1176, "annotation": {"number": 64, "value": 0}, "group": "control_change"}, {"time": 1179, "annotation": {"number": 64, "value": 127}, "group": "control_change"}, {"time": 1199, "annotation": {"number": 64, "value": 0}, "group": "control_change"}, {"time": 1203, "annotation": {"number": 64, "value": 127}, "group": "control_change"}, {"time": 1248, "annotation": {"number": 64, "value": 0}, "group": "control_change"}, {"time": 1253, "annotation": {"number": 64, "value": 127}, "group": "control_change"}, {"time": 1296, "annotation": {"number": 64, "value": 0}, "group": "control_change"}, {"time": 1300, "annotation": {"number": 64, "value": 127}, "group": "control_change"}, {"time": 1319, "annotation": {"number": 64, "value": 0}, "group": "control_change"}, {"time": 1323, "annotation": {"number": 64, "value": 127}, "group": "control_change"}, {"time": 1345, "annotation": {"number": 64, "value": 0}, "group": "control_change"}, {"time": 1348, "annotation": {"number": 64, "value": 127}, "group": "control_change"}, {"time": 1385, "annotation": {"number": 64, "value": 0}, "group": "control_change"}, {"time": 1395, "annotation": {"number": 64, "value": 127}, "group": "control_change"}, {"time": 1442, "annotation": {"number": 64, "value": 0}, "group": "control_change"}, {"time": 1447, "annotation": {"number": 64, "value": 127}, "group": "control_change"}, {"time": 1490, "annotation": {"number": 64, "value": 0}, "group": "control_change"}, {"time": 1497, "annotation": {"number": 64, "value": 127}, "group": "control_change"}, {"time": 1536, "annotation": {"number": 64, "value": 0}, "group": "control_change"}, {"time": 1540, "annotation": {"number": 64, "value": 127}, "group": "control_change"}, {"time": 1560, "annotation": {"number": 64, "value": 0}, "group": "control_change"}, {"time": 1563, "annotation": {"number": 64, "value": 127}, "group": "control_change"}, {"time": 1583, "annotation": {"number": 64, "value": 0}, "group": "control_change"}, {"time": 1587, "annotation": {"number": 64, "value": 127}, "group": "control_change"}, {"time": 1632, "annotation": {"number": 64, "value": 0}, "group": "control_change"}, {"time": 1637, "annotation": {"number": 64, "value": 127}, "group": "control_change"}, {"time": 1680, "annotation": {"number": 64, "value": 0}, "group": "control_change"}, {"time": 1684, "annotation": {"number": 64, "value": 127}, "group": "control_change"}, {"time": 1703, "annotation": {"number": 64, "value": 0}, "group": "control_change"}, {"time": 1707, "annotation": {"number": 64, "value": 127}, "group": "control_change"}, {"time": 1729, "annotation": {"number": 64, "value": 0}, "group": "control_change"}, {"time": 1732, "annotation": {"number": 64, "value": 127}, "group": "control_change"}, {"time": 1769, "annotation": {"number": 64, "value": 0}, "group": "control_change"}, {"time": 1803, "annotation": {"number": 64, "value": 0}, "group": "control_change"}, {"time": 1807, "annotation": {"number": 64, "value": 127}, "group": "control_change"}, {"time": 1824, "annotation": {"number": 64, "value": 0}, "group": "control_change"}, {"time": 1829, "annotation": {"number": 64, "value": 127}, "group": "control_change"}, {"time": 1871, "annotation": {"number": 64, "value": 0}, "group": "control_change"}, {"time": 1876, "annotation": {"number": 64, "value": 127}, "group": "control_change"}, {"time": 1895, "annotation": {"number": 64, "value": 0}, "group": "control_change"}, {"time": 1899, "annotation": {"number": 64, "value": 127}, "group": "control_change"}, {"time": 1922, "annotation": {"number": 64, "value": 0}, "group": "control_change"}, {"time": 1926, "annotation": {"number": 64, "value": 127}, "group": "control_change"}, {"time": 1969, "annotation": {"number": 64, "value": 0}, "group": "control_change"}, {"time": 1973, "annotation": {"number": 64, "value": 127}, "group": "control_change"}, {"time": 1992, "annotation": {"number": 64, "value": 0}, "group": "control_change"}, {"time": 1995, "annotation": {"number": 64, "value": 127}, "group": "control_change"}, {"time": 2017, "annotation": {"number": 64, "value": 127}, "group": "control_change"}, {"time": 2040, "annotation": {"number": 64, "value": 0}, "group": "control_change"}, {"time": 2043, "annotation": {"number": 64, "value": 127}, "group": "control_change"}, {"time": 2063, "annotation": {"number": 64, "value": 0}, "group": "control_change"}, {"time": 2066, "annotation": {"number": 64, "value": 127}, "group": "control_change"}, {"time": 2089, "annotation": {"number": 64, "value": 0}, "group": "control_change"}, {"time": 2092, "annotation": {"number": 64, "value": 127}, "group": "control_change"}, {"time": 2114, "annotation": {"number": 64, "value": 0}, "group": "control_change"}, {"time": 2119, "annotation": {"number": 64, "value": 127}, "group": "control_change"}, {"time": 2159, "annotation": {"number": 64, "value": 0}, "group": "control_change"}, {"time": 2165, "annotation": {"number": 64, "value": 127}, "group": "control_change"}, {"time": 2208, "annotation": {"number": 64, "value": 0}, "group": "control_change"}, {"time": 2214, "annotation": {"number": 64, "value": 127}, "group": "control_change"}, {"time": 2256, "annotation": {"number": 64, "value": 0}, "group": "control_change"}, {"time": 2269, "annotation": {"number": 64, "value": 127}, "group": "control_change"}, {"time": 2305, "annotation": {"number": 64, "value": 0}, "group": "control_change"}, {"time": 2316, "annotation": {"number": 64, "value": 127}, "group": "control_change"}, {"time": 2351, "annotation": {"number": 64, "value": 0}, "group": "control_change"}, {"time": 2356, "annotation": {"number": 64, "value": 127}, "group": "control_change"}, {"time": 2400, "annotation": {"number": 64, "value": 0}, "group": "control_change"}, {"time": 2405, "annotation": {"number": 64, "value": 127}, "group": "control_change"}, {"time": 2448, "annotation": {"number": 64, "value": 0}, "group": "control_change"}, {"time": 2452, "annotation": {"number": 64, "value": 127}, "group": "control_change"}, {"time": 2495, "annotation": {"number": 64, "value": 0}, "group": "control_change"}, {"time": 2499, "annotation": {"number": 64, "value": 127}, "group": "control_change"}, {"time": 2541, "annotation": {"number": 64, "value": 0}, "group": "control_change"}, {"time": 2547, "annotation": {"number": 64, "value": 127}, "group": "control_change"}, {"time": 2594, "annotation": {"number": 64, "value": 0}, "group": "control_change"}, {"time": 2599, "annotation": {"number": 64, "value": 127}, "group": "control_change"}, {"time": 2642, "annotation": {"number": 64, "value": 0}, "group": "control_change"}, {"time": 2649, "annotation": {"number": 64, "value": 127}, "group": "control_change"}, {"time": 2688, "annotation": {"number": 64, "value": 0}, "group": "control_change"}, {"time": 2692, "annotation": {"number": 64, "value": 127}, "group": "control_change"}, {"time": 2712, "annotation": {"number": 64, "value": 0}, "group": "control_change"}, {"time": 2715, "annotation": {"number": 64, "value": 127}, "group": "control_change"}, {"time": 2735, "annotation": {"number": 64, "value": 0}, "group": "control_change"}, {"time": 2739, "annotation": {"number": 64, "value": 127}, "group": "control_change"}, {"time": 2784, "annotation": {"number": 64, "value": 0}, "group": "control_change"}, {"time": 2789, "annotation": {"number": 64, "value": 127}, "group": "control_change"}, {"time": 2832, "annotation": {"number": 64, "value": 0}, "group": "control_change"}, {"time": 2836, "annotation": {"number": 64, "value": 127}, "group": "control_change"}, {"time": 2855, "annotation": {"number": 64, "value": 0}, "group": "control_change"}, {"time": 2859, "annotation": {"number": 64, "value": 127}, "group": "control_change"}, {"time": 2881, "annotation": {"number": 64, "value": 0}, "group": "control_change"}, {"time": 2884, "annotation": {"number": 64, "value": 127}, "group": "control_change"}, {"time": 2921, "annotation": {"number": 64, "value": 0}, "group": "control_change"}, {"time": 2931, "annotation": {"number": 64, "value": 127}, "group": "control_change"}, {"time": 2978, "annotation": {"number": 64, "value": 0}, "group": "control_change"}, {"time": 2983, "annotation": {"number": 64, "value": 127}, "group": "control_change"}, {"time": 3026, "annotation": {"number": 64, "value": 0}, "group": "control_change"}, {"time": 3033, "annotation": {"number": 64, "value": 127}, "group": "control_change"}, {"time": 3072, "annotation": {"number": 64, "value": 0}, "group": "control_change"}, {"time": 3076, "annotation": {"number": 64, "value": 127}, "group": "control_change"}, {"time": 3096, "annotation": {"number": 64, "value": 0}, "group": "control_change"}, {"time": 3099, "annotation": {"number": 64, "value": 127}, "group": "control_change"}, {"time": 3119, "annotation": {"number": 64, "value": 0}, "group": "control_change"}, {"time": 3123, "annotation": {"number": 64, "value": 127}, "group": "control_change"}, {"time": 3168, "annotation": {"number": 64, "value": 0}, "group": "control_change"}, {"time": 3173, "annotation": {"number": 64, "value": 127}, "group": "control_change"}, {"time": 3216, "annotation": {"number": 64, "value": 0}, "group": "control_change"}, {"time": 3220, "annotation": {"number": 64, "value": 127}, "group": "control_change"}, {"time": 3239, "annotation": {"number": 64, "value": 0}, "group": "control_change"}, {"time": 3243, "annotation": {"number": 64, "value": 127}, "group": "control_change"}, {"time": 3265, "annotation": {"number": 64, "value": 0}, "group": "control_change"}, {"time": 3268, "annotation": {"number": 64, "value": 127}, "group": "control_change"}, {"time": 3305, "annotation": {"number": 64, "value": 0}, "group": "control_change"}, {"time": 3339, "annotation": {"number": 64, "value": 0}, "group": "control_change"}, {"time": 3343, "annotation": {"number": 64, "value": 127}, "group": "control_change"}, {"time": 3360, "annotation": {"number": 64, "value": 0}, "group": "control_change"}, {"time": 3365, "annotation": {"number": 64, "value": 127}, "group": "control_change"}, {"time": 3407, "annotation": {"number": 64, "value": 0}, "group": "control_change"}, {"time": 3412, "annotation": {"number": 64, "value": 127}, "group": "control_change"}, {"time": 3431, "annotation": {"number": 64, "value": 0}, "group": "control_change"}, {"time": 3435, "annotation": {"number": 64, "value": 127}, "group": "control_change"}, {"time": 3458, "annotation": {"number": 64, "value": 0}, "group": "control_change"}, {"time": 3462, "annotation": {"number": 64, "value": 127}, "group": "control_change"}, {"time": 3505, "annotation": {"number": 64, "value": 0}, "group": "control_change"}, {"time": 3509, "annotation": {"number": 64, "value": 127}, "group": "control_change"}, {"time": 3528, "annotation": {"number": 64, "value": 0}, "group": "control_change"}, {"time": 3531, "annotation": {"number": 64, "value": 127}, "group": "control_change"}, {"time": 3553, "annotation": {"number": 64, "value": 127}, "group": "control_change"}, {"time": 3576, "annotation": {"number": 64, "value": 0}, "group": "control_change"}, {"time": 3579, "annotation": {"number": 64, "value": 127}, "group": "control_change"}, {"time": 3599, "annotation": {"number": 64, "value": 0}, "group": "control_change"}, {"time": 3602, "annotation": {"number": 64, "value": 127}, "group": "control_change"}, {"time": 3625, "annotation": {"number": 64, "value": 0}, "group": "control_change"}, {"time": 3628, "annotation": {"number": 64, "value": 127}, "group": "control_change"}, {"time": 3650, "annotation": {"number": 64, "value": 0}, "group": "control_change"}, {"time": 3655, "annotation": {"number": 64, "value": 127}, "group": "control_change"}, {"time": 3695, "annotation": {"number": 64, "value": 0}, "group": "control_change"}, {"time": 3699, "annotation": {"number": 64, "value": 127}, "group": "control_change"}, {"time": 3789, "annotation": {"number": 64, "value": 0}, "group": "control_change"}, {"time": 3796, "annotation": {"number": 64, "value": 127}, "group": "control_change"}, {"time": 3886, "annotation": {"number": 64, "value": 0}, "group": "control_change"}, {"time": 3891, "annotation": {"number": 64, "value": 127}, "group": "control_change"}, {"time": 3981, "annotation": {"number": 64, "value": 0}, "group": "control_change"}, {"time": 3988, "annotation": {"number": 64, "value": 127}, "group": "control_change"}, {"time": 4078, "annotation": {"number": 64, "value": 0}, "group": "control_change"}, {"time": 4083, "annotation": {"number": 64, "value": 127}, "group": "control_change"}, {"time": 4173, "annotation": {"number": 64, "value": 0}, "group": "control_change"}, {"time": 4180, "annotation": {"number": 64, "value": 127}, "group": "control_change"}, {"time": 4270, "annotation": {"number": 64, "value": 0}, "group": "control_change"}, {"time": 4277, "annotation": {"number": 64, "value": 127}, "group": "control_change"}, {"time": 4320, "annotation": {"number": 64, "value": 0}, "group": "control_change"}, {"time": 4326, "annotation": {"number": 64, "value": 127}, "group": "control_change"}, {"time": 4368, "annotation": {"number": 64, "value": 0}, "group": "control_change"}, {"time": 4381, "annotation": {"number": 64, "value": 127}, "group": "control_change"}, {"time": 4417, "annotation": {"number": 64, "value": 0}, "group": "control_change"}, {"time": 4428, "annotation": {"number": 64, "value": 127}, "group": "control_change"}, {"time": 4463, "annotation": {"number": 64, "value": 0}, "group": "control_change"}, {"time": 4468, "annotation": {"number": 64, "value": 127}, "group": "control_change"}, {"time": 4512, "annotation": {"number": 64, "value": 0}, "group": "control_change"}, {"time": 4517, "annotation": {"number": 64, "value": 127}, "group": "control_change"}, {"time": 4560, "annotation": {"number": 64, "value": 0}, "group": "control_change"}, {"time": 4564, "annotation": {"number": 64, "value": 127}, "group": "control_change"}, {"time": 4607, "annotation": {"number": 64, "value": 0}, "group": "control_change"}, {"time": 4611, "annotation": {"number": 64, "value": 127}, "group": "control_change"}, {"time": 4653, "annotation": {"number": 64, "value": 0}, "group": "control_change"}, {"time": 4683, "annotation": {"number": 64, "value": 0}, "group": "control_change"}, {"time": 4687, "annotation": {"number": 64, "value": 127}, "group": "control_change"}, {"time": 4704, "annotation": {"number": 64, "value": 0}, "group": "control_change"}, {"time": 4709, "annotation": {"number": 64, "value": 127}, "group": "control_change"}, {"time": 4751, "annotation": {"number": 64, "value": 0}, "group": "control_change"}, {"time": 4756, "annotation": {"number": 64, "value": 127}, "group": "control_change"}, {"time": 4775, "annotation": {"number": 64, "value": 0}, "group": "control_change"}, {"time": 4779, "annotation": {"number": 64, "value": 127}, "group": "control_change"}, {"time": 4802, "annotation": {"number": 64, "value": 0}, "group": "control_change"}, {"time": 4806, "annotation": {"number": 64, "value": 127}, "group": "control_change"}, {"time": 4849, "annotation": {"number": 64, "value": 0}, "group": "control_change"}, {"time": 4853, "annotation": {"number": 64, "value": 127}, "group": "control_change"}, {"time": 4872, "annotation": {"number": 64, "value": 0}, "group": "control_change"}, {"time": 4875, "annotation": {"number": 64, "value": 127}, "group": "control_change"}, {"time": 4897, "annotation": {"number": 64, "value": 127}, "group": "control_change"}, {"time": 4920, "annotation": {"number": 64, "value": 0}, "group": "control_change"}, {"time": 4923, "annotation": {"number": 64, "value": 127}, "group": "control_change"}, {"time": 4943, "annotation": {"number": 64, "value": 0}, "group": "control_change"}, {"time": 4946, "annotation": {"number": 64, "value": 127}, "group": "control_change"}, {"time": 4969, "annotation": {"number": 64, "value": 0}, "group": "control_change"}, {"time": 4972, "annotation": {"number": 64, "value": 127}, "group": "control_change"}, {"time": 4994, "annotation": {"number": 64, "value": 0}, "group": "control_change"}, {"time": 4999, "annotation": {"number": 64, "value": 127}, "group": "control_change"}, {"time": 5039, "annotation": {"number": 64, "value": 0}, "group": "control_change"}, {"time": 5067, "annotation": {"number": 64, "value": 0}, "group": "control_change"}, {"time": 5071, "annotation": {"number": 64, "value": 127}, "group": "control_change"}, {"time": 5088, "annotation": {"number": 64, "value": 0}, "group": "control_change"}, {"time": 5093, "annotation": {"number": 64, "value": 127}, "group": "control_change"}, {"time": 5135, "annotation": {"number": 64, "value": 0}, "group": "control_change"}, {"time": 5140, "annotation": {"number": 64, "value": 127}, "group": "control_change"}, {"time": 5159, "annotation": {"number": 64, "value": 0}, "group": "control_change"}, {"time": 5163, "annotation": {"number": 64, "value": 127}, "group": "control_change"}, {"time": 5186, "annotation": {"number": 64, "value": 0}, "group": "control_change"}, {"time": 5190, "annotation": {"number": 64, "value": 127}, "group": "control_change"}, {"time": 5233, "annotation": {"number": 64, "value": 0}, "group": "control_change"}, {"time": 5237, "annotation": {"number": 64, "value": 127}, "group": "control_change"}, {"time": 5256, "annotation": {"number": 64, "value": 0}, "group": "control_change"}, {"time": 5259, "annotation": {"number": 64, "value": 127}, "group": "control_change"}, {"time": 5281, "annotation": {"number": 64, "value": 127}, "group": "control_change"}, {"time": 5304, "annotation": {"number": 64, "value": 0}, "group": "control_change"}, {"time": 5307, "annotation": {"number": 64, "value": 127}, "group": "control_change"}, {"time": 5327, "annotation": {"number": 64, "value": 0}, "group": "control_change"}, {"time": 5330, "annotation": {"number": 64, "value": 127}, "group": "control_change"}, {"time": 5353, "annotation": {"number": 64, "value": 0}, "group": "control_change"}, {"time": 5356, "annotation": {"number": 64, "value": 127}, "group": "control_change"}, {"time": 5378, "annotation": {"number": 64, "value": 0}, "group": "control_change"}, {"time": 5383, "annotation": {"number": 64, "value": 127}, "group": "control_change"}, {"time": 5423, "annotation": {"number": 64, "value": 0}, "group": "control_change"}, {"time": 5427, "annotation": {"number": 64, "value": 127}, "group": "control_change"}, {"time": 5446, "annotation": {"number": 64, "value": 0}, "group": "control_change"}, {"time": 5450, "annotation": {"number": 64, "value": 127}, "group": "control_change"}, {"time": 5502, "annotation": {"number": 64, "value": 0}, "group": "control_change"}, {"time": 5525, "annotation": {"number": 64, "value": 127}, "group": "control_change"}, {"time": 5568, "annotation": {"number": 64, "value": 0}, "group": "control_change"}, {"time": 5574, "annotation": {"number": 64, "value": 127}, "group": "control_change"}, {"time": 5616, "annotation": {"number": 64, "value": 0}, "group": "control_change"}, {"time": 5629, "annotation": {"number": 64, "value": 127}, "group": "control_change"}, {"time": 5665, "annotation": {"number": 64, "value": 0}, "group": "control_change"}, {"time": 5676, "annotation": {"number": 64, "value": 127}, "group": "control_change"}, {"time": 5711, "annotation": {"number": 64, "value": 0}, "group": "control_change"}, {"time": 5716, "annotation": {"number": 64, "value": 127}, "group": "control_change"}, {"time": 5760, "annotation": {"number": 64, "value": 0}, "group": "control_change"}, {"time": 5765, "annotation": {"number": 64, "value": 127}, "group": "control_change"}, {"time": 5808, "annotation": {"number": 64, "value": 0}, "group": "control_change"}, {"time": 5812, "annotation": {"number": 64, "value": 127}, "group": "control_change"}, {"time": 5855, "annotation": {"number": 64, "value": 0}, "group": "control_change"}]}]}