{"metadata": {"schema_version": "0.2", "title": "None", "source_filename": "502.mid", "source_format": "midi"}, "resolution": 12, "tempos": [{"time": 0, "qpm": 115.00002875000719}, {"time": 1392, "qpm": 115.25008307610155}, {"time": 1932, "qpm": 115.00002875000719}], "time_signatures": [{"time": 0, "numerator": 1, "denominator": 4}], "tracks": [{"program": 4, "is_drum": false, "name": "MELODY", "notes": [{"time": 378, "pitch": 77, "duration": 4, "velocity": 90}, {"time": 384, "pitch": 76, "duration": 3, "velocity": 91}, {"time": 390, "pitch": 77, "duration": 4, "velocity": 91}, {"time": 396, "pitch": 70, "duration": 3, "velocity": 89}, {"time": 402, "pitch": 70, "duration": 16, "velocity": 88}, {"time": 420, "pitch": 70, "duration": 3, "velocity": 89}, {"time": 426, "pitch": 72, "duration": 3, "velocity": 87}, {"time": 432, "pitch": 73, "duration": 4, "velocity": 88}, {"time": 438, "pitch": 72, "duration": 3, "velocity": 91}, {"time": 444, "pitch": 72, "duration": 2, "velocity": 92}, {"time": 450, "pitch": 72, "duration": 4, "velocity": 88}, {"time": 456, "pitch": 71, "duration": 4, "velocity": 83}, {"time": 462, "pitch": 72, "duration": 6, "velocity": 88}, {"time": 480, "pitch": 70, "duration": 3, "velocity": 87}, {"time": 486, "pitch": 72, "duration": 3, "velocity": 90}, {"time": 492, "pitch": 66, "duration": 3, "velocity": 88}, {"time": 498, "pitch": 66, "duration": 12, "velocity": 87}, {"time": 516, "pitch": 66, "duration": 4, "velocity": 86}, {"time": 522, "pitch": 68, "duration": 3, "velocity": 88}, {"time": 528, "pitch": 70, "duration": 4, "velocity": 86}, {"time": 534, "pitch": 69, "duration": 4, "velocity": 87}, {"time": 540, "pitch": 73, "duration": 3, "velocity": 90}, {"time": 546, "pitch": 72, "duration": 3, "velocity": 80}, {"time": 552, "pitch": 71, "duration": 4, "velocity": 88}, {"time": 558, "pitch": 72, "duration": 4, "velocity": 87}, {"time": 564, "pitch": 77, "duration": 11, "velocity": 95}, {"time": 576, "pitch": 75, "duration": 3, "velocity": 93}, {"time": 582, "pitch": 77, "duration": 3, "velocity": 91}, {"time": 588, "pitch": 70, "duration": 3, "velocity": 88}, {"time": 594, "pitch": 70, "duration": 14, "velocity": 87}, {"time": 612, "pitch": 70, "duration": 3, "velocity": 90}, {"time": 618, "pitch": 72, "duration": 3, "velocity": 88}, {"time": 624, "pitch": 73, "duration": 4, "velocity": 87}, {"time": 630, "pitch": 72, "duration": 3, "velocity": 88}, {"time": 636, "pitch": 72, "duration": 3, "velocity": 88}, {"time": 642, "pitch": 72, "duration": 4, "velocity": 86}, {"time": 648, "pitch": 71, "duration": 3, "velocity": 86}, {"time": 654, "pitch": 72, "duration": 3, "velocity": 91}, {"time": 660, "pitch": 72, "duration": 3, "velocity": 87}, {"time": 666, "pitch": 72, "duration": 4, "velocity": 87}, {"time": 672, "pitch": 70, "duration": 4, "velocity": 88}, {"time": 678, "pitch": 72, "duration": 3, "velocity": 91}, {"time": 684, "pitch": 66, "duration": 20, "velocity": 88}, {"time": 708, "pitch": 66, "duration": 3, "velocity": 88}, {"time": 714, "pitch": 68, "duration": 3, "velocity": 87}, {"time": 720, "pitch": 70, "duration": 3, "velocity": 87}, {"time": 726, "pitch": 75, "duration": 9, "velocity": 91}, {"time": 738, "pitch": 73, "duration": 4, "velocity": 86}, {"time": 744, "pitch": 72, "duration": 3, "velocity": 70}, {"time": 750, "pitch": 73, "duration": 4, "velocity": 86}, {"time": 756, "pitch": 70, "duration": 3, "velocity": 87}, {"time": 762, "pitch": 72, "duration": 3, "velocity": 88}, {"time": 768, "pitch": 73, "duration": 3, "velocity": 88}, {"time": 774, "pitch": 82, "duration": 16, "velocity": 87}, {"time": 804, "pitch": 82, "duration": 2, "velocity": 87}, {"time": 810, "pitch": 84, "duration": 3, "velocity": 86}, {"time": 816, "pitch": 82, "duration": 3, "velocity": 87}, {"time": 822, "pitch": 81, "duration": 2, "velocity": 91}, {"time": 828, "pitch": 77, "duration": 3, "velocity": 92}, {"time": 834, "pitch": 77, "duration": 3, "velocity": 90}, {"time": 840, "pitch": 75, "duration": 3, "velocity": 90}, {"time": 846, "pitch": 77, "duration": 5, "velocity": 91}, {"time": 852, "pitch": 75, "duration": 3, "velocity": 93}, {"time": 858, "pitch": 77, "duration": 4, "velocity": 88}, {"time": 864, "pitch": 75, "duration": 3, "velocity": 92}, {"time": 870, "pitch": 77, "duration": 7, "velocity": 93}, {"time": 882, "pitch": 81, "duration": 9, "velocity": 93}, {"time": 900, "pitch": 81, "duration": 4, "velocity": 88}, {"time": 906, "pitch": 81, "duration": 4, "velocity": 81}, {"time": 912, "pitch": 81, "duration": 3, "velocity": 87}, {"time": 918, "pitch": 81, "duration": 3, "velocity": 88}, {"time": 924, "pitch": 82, "duration": 3, "velocity": 87}, {"time": 930, "pitch": 84, "duration": 3, "velocity": 90}, {"time": 936, "pitch": 81, "duration": 4, "velocity": 87}, {"time": 942, "pitch": 82, "duration": 4, "velocity": 86}, {"time": 948, "pitch": 77, "duration": 9, "velocity": 88}, {"time": 960, "pitch": 75, "duration": 3, "velocity": 95}, {"time": 966, "pitch": 77, "duration": 9, "velocity": 89}, {"time": 978, "pitch": 82, "duration": 13, "velocity": 87}, {"time": 996, "pitch": 82, "duration": 2, "velocity": 88}, {"time": 1002, "pitch": 84, "duration": 3, "velocity": 90}, {"time": 1008, "pitch": 82, "duration": 3, "velocity": 86}, {"time": 1014, "pitch": 81, "duration": 3, "velocity": 93}, {"time": 1020, "pitch": 77, "duration": 3, "velocity": 92}, {"time": 1026, "pitch": 77, "duration": 3, "velocity": 91}, {"time": 1032, "pitch": 76, "duration": 3, "velocity": 88}, {"time": 1038, "pitch": 77, "duration": 4, "velocity": 88}, {"time": 1044, "pitch": 75, "duration": 7, "velocity": 92}, {"time": 1056, "pitch": 75, "duration": 3, "velocity": 89}, {"time": 1062, "pitch": 77, "duration": 3, "velocity": 88}, {"time": 1068, "pitch": 70, "duration": 8, "velocity": 85}, {"time": 1080, "pitch": 70, "duration": 2, "velocity": 81}, {"time": 1086, "pitch": 70, "duration": 3, "velocity": 91}, {"time": 1092, "pitch": 72, "duration": 3, "velocity": 87}, {"time": 1098, "pitch": 73, "duration": 3, "velocity": 88}, {"time": 1104, "pitch": 72, "duration": 3, "velocity": 88}, {"time": 1110, "pitch": 72, "duration": 4, "velocity": 89}, {"time": 1116, "pitch": 70, "duration": 4, "velocity": 90}, {"time": 1128, "pitch": 70, "duration": 4, "velocity": 87}, {"time": 1134, "pitch": 70, "duration": 6, "velocity": 89}, {"time": 1146, "pitch": 77, "duration": 4, "velocity": 90}, {"time": 1152, "pitch": 76, "duration": 3, "velocity": 91}, {"time": 1158, "pitch": 77, "duration": 4, "velocity": 91}, {"time": 1164, "pitch": 70, "duration": 3, "velocity": 89}, {"time": 1170, "pitch": 70, "duration": 16, "velocity": 88}, {"time": 1188, "pitch": 70, "duration": 3, "velocity": 89}, {"time": 1194, "pitch": 72, "duration": 3, "velocity": 87}, {"time": 1200, "pitch": 73, "duration": 4, "velocity": 88}, {"time": 1206, "pitch": 72, "duration": 3, "velocity": 91}, {"time": 1212, "pitch": 72, "duration": 2, "velocity": 92}, {"time": 1218, "pitch": 72, "duration": 4, "velocity": 88}, {"time": 1224, "pitch": 71, "duration": 4, "velocity": 83}, {"time": 1230, "pitch": 72, "duration": 6, "velocity": 88}, {"time": 1248, "pitch": 70, "duration": 3, "velocity": 87}, {"time": 1254, "pitch": 72, "duration": 3, "velocity": 90}, {"time": 1260, "pitch": 66, "duration": 3, "velocity": 88}, {"time": 1266, "pitch": 66, "duration": 12, "velocity": 87}, {"time": 1284, "pitch": 66, "duration": 4, "velocity": 86}, {"time": 1290, "pitch": 68, "duration": 3, "velocity": 88}, {"time": 1296, "pitch": 70, "duration": 4, "velocity": 86}, {"time": 1302, "pitch": 73, "duration": 4, "velocity": 87}, {"time": 1308, "pitch": 73, "duration": 3, "velocity": 90}, {"time": 1314, "pitch": 73, "duration": 3, "velocity": 80}, {"time": 1320, "pitch": 72, "duration": 4, "velocity": 88}, {"time": 1326, "pitch": 73, "duration": 4, "velocity": 87}, {"time": 1332, "pitch": 77, "duration": 11, "velocity": 95}, {"time": 1344, "pitch": 75, "duration": 3, "velocity": 93}, {"time": 1350, "pitch": 77, "duration": 3, "velocity": 91}, {"time": 1356, "pitch": 70, "duration": 3, "velocity": 88}, {"time": 1362, "pitch": 70, "duration": 14, "velocity": 87}, {"time": 1380, "pitch": 70, "duration": 3, "velocity": 90}, {"time": 1386, "pitch": 72, "duration": 3, "velocity": 88}, {"time": 1392, "pitch": 73, "duration": 4, "velocity": 87}, {"time": 1398, "pitch": 77, "duration": 3, "velocity": 88}, {"time": 1404, "pitch": 72, "duration": 3, "velocity": 88}, {"time": 1410, "pitch": 72, "duration": 4, "velocity": 86}, {"time": 1416, "pitch": 73, "duration": 3, "velocity": 86}, {"time": 1422, "pitch": 72, "duration": 3, "velocity": 91}, {"time": 1428, "pitch": 70, "duration": 3, "velocity": 87}, {"time": 1434, "pitch": 72, "duration": 4, "velocity": 87}, {"time": 1440, "pitch": 70, "duration": 4, "velocity": 88}, {"time": 1446, "pitch": 73, "duration": 12, "velocity": 91}, {"time": 1458, "pitch": 66, "duration": 3, "velocity": 90}, {"time": 1464, "pitch": 66, "duration": 7, "velocity": 90}, {"time": 1476, "pitch": 66, "duration": 3, "velocity": 88}, {"time": 1482, "pitch": 68, "duration": 3, "velocity": 87}, {"time": 1488, "pitch": 70, "duration": 3, "velocity": 87}, {"time": 1494, "pitch": 75, "duration": 6, "velocity": 91}, {"time": 1500, "pitch": 73, "duration": 12, "velocity": 86}, {"time": 1512, "pitch": 72, "duration": 3, "velocity": 70}, {"time": 1518, "pitch": 73, "duration": 4, "velocity": 86}, {"time": 1524, "pitch": 70, "duration": 3, "velocity": 87}, {"time": 1530, "pitch": 72, "duration": 3, "velocity": 88}, {"time": 1536, "pitch": 73, "duration": 3, "velocity": 88}, {"time": 1542, "pitch": 82, "duration": 16, "velocity": 87}, {"time": 1572, "pitch": 82, "duration": 2, "velocity": 87}, {"time": 1578, "pitch": 84, "duration": 3, "velocity": 86}, {"time": 1584, "pitch": 82, "duration": 3, "velocity": 87}, {"time": 1590, "pitch": 80, "duration": 2, "velocity": 91}, {"time": 1596, "pitch": 77, "duration": 6, "velocity": 92}, {"time": 1608, "pitch": 75, "duration": 3, "velocity": 90}, {"time": 1614, "pitch": 77, "duration": 5, "velocity": 91}, {"time": 1620, "pitch": 77, "duration": 3, "velocity": 93}, {"time": 1626, "pitch": 77, "duration": 4, "velocity": 88}, {"time": 1632, "pitch": 75, "duration": 3, "velocity": 92}, {"time": 1638, "pitch": 77, "duration": 7, "velocity": 93}, {"time": 1650, "pitch": 81, "duration": 9, "velocity": 93}, {"time": 1668, "pitch": 81, "duration": 4, "velocity": 88}, {"time": 1674, "pitch": 81, "duration": 4, "velocity": 81}, {"time": 1680, "pitch": 81, "duration": 3, "velocity": 87}, {"time": 1686, "pitch": 81, "duration": 3, "velocity": 88}, {"time": 1692, "pitch": 82, "duration": 3, "velocity": 87}, {"time": 1698, "pitch": 84, "duration": 3, "velocity": 90}, {"time": 1704, "pitch": 81, "duration": 4, "velocity": 87}, {"time": 1710, "pitch": 82, "duration": 4, "velocity": 86}, {"time": 1716, "pitch": 77, "duration": 9, "velocity": 88}, {"time": 1728, "pitch": 75, "duration": 3, "velocity": 95}, {"time": 1734, "pitch": 77, "duration": 9, "velocity": 89}, {"time": 1746, "pitch": 82, "duration": 13, "velocity": 87}, {"time": 1764, "pitch": 82, "duration": 2, "velocity": 88}, {"time": 1770, "pitch": 84, "duration": 3, "velocity": 90}, {"time": 1776, "pitch": 82, "duration": 3, "velocity": 86}, {"time": 1782, "pitch": 80, "duration": 3, "velocity": 93}, {"time": 1788, "pitch": 77, "duration": 3, "velocity": 92}, {"time": 1800, "pitch": 76, "duration": 3, "velocity": 88}, {"time": 1806, "pitch": 77, "duration": 4, "velocity": 88}, {"time": 1812, "pitch": 77, "duration": 7, "velocity": 92}, {"time": 1824, "pitch": 75, "duration": 3, "velocity": 89}, {"time": 1830, "pitch": 77, "duration": 3, "velocity": 88}, {"time": 1836, "pitch": 72, "duration": 8, "velocity": 85}, {"time": 1848, "pitch": 71, "duration": 2, "velocity": 81}, {"time": 1854, "pitch": 72, "duration": 3, "velocity": 91}, {"time": 1860, "pitch": 71, "duration": 3, "velocity": 87}, {"time": 1866, "pitch": 72, "duration": 3, "velocity": 88}, {"time": 1872, "pitch": 72, "duration": 3, "velocity": 88}, {"time": 1878, "pitch": 77, "duration": 4, "velocity": 89}, {"time": 1884, "pitch": 70, "duration": 4, "velocity": 90}, {"time": 1896, "pitch": 69, "duration": 4, "velocity": 87}, {"time": 1902, "pitch": 70, "duration": 12, "velocity": 89}, {"time": 2292, "pitch": 70, "duration": 3, "velocity": 87}, {"time": 2298, "pitch": 72, "duration": 3, "velocity": 88}, {"time": 2304, "pitch": 73, "duration": 3, "velocity": 88}, {"time": 2310, "pitch": 82, "duration": 16, "velocity": 87}, {"time": 2340, "pitch": 82, "duration": 2, "velocity": 87}, {"time": 2346, "pitch": 84, "duration": 3, "velocity": 86}, {"time": 2352, "pitch": 82, "duration": 3, "velocity": 87}, {"time": 2358, "pitch": 81, "duration": 2, "velocity": 91}, {"time": 2364, "pitch": 77, "duration": 3, "velocity": 92}, {"time": 2370, "pitch": 77, "duration": 3, "velocity": 90}, {"time": 2376, "pitch": 75, "duration": 3, "velocity": 90}, {"time": 2382, "pitch": 77, "duration": 5, "velocity": 91}, {"time": 2388, "pitch": 75, "duration": 3, "velocity": 93}, {"time": 2394, "pitch": 77, "duration": 4, "velocity": 88}, {"time": 2400, "pitch": 75, "duration": 3, "velocity": 92}, {"time": 2406, "pitch": 77, "duration": 7, "velocity": 93}, {"time": 2418, "pitch": 81, "duration": 9, "velocity": 93}, {"time": 2436, "pitch": 81, "duration": 4, "velocity": 88}, {"time": 2442, "pitch": 81, "duration": 4, "velocity": 81}, {"time": 2448, "pitch": 81, "duration": 3, "velocity": 87}, {"time": 2454, "pitch": 81, "duration": 3, "velocity": 88}, {"time": 2460, "pitch": 82, "duration": 3, "velocity": 87}, {"time": 2466, "pitch": 84, "duration": 3, "velocity": 90}, {"time": 2472, "pitch": 81, "duration": 4, "velocity": 87}, {"time": 2478, "pitch": 82, "duration": 4, "velocity": 86}, {"time": 2484, "pitch": 77, "duration": 9, "velocity": 88}, {"time": 2496, "pitch": 75, "duration": 3, "velocity": 95}, {"time": 2502, "pitch": 77, "duration": 9, "velocity": 89}, {"time": 2514, "pitch": 82, "duration": 13, "velocity": 87}, {"time": 2532, "pitch": 82, "duration": 2, "velocity": 88}, {"time": 2538, "pitch": 84, "duration": 3, "velocity": 90}, {"time": 2544, "pitch": 82, "duration": 3, "velocity": 86}, {"time": 2550, "pitch": 81, "duration": 3, "velocity": 93}, {"time": 2556, "pitch": 77, "duration": 3, "velocity": 92}, {"time": 2562, "pitch": 77, "duration": 3, "velocity": 91}, {"time": 2568, "pitch": 76, "duration": 3, "velocity": 88}, {"time": 2574, "pitch": 77, "duration": 4, "velocity": 88}, {"time": 2580, "pitch": 75, "duration": 7, "velocity": 92}, {"time": 2592, "pitch": 75, "duration": 3, "velocity": 89}, {"time": 2598, "pitch": 77, "duration": 3, "velocity": 88}, {"time": 2604, "pitch": 72, "duration": 8, "velocity": 85}, {"time": 2616, "pitch": 72, "duration": 2, "velocity": 81}, {"time": 2622, "pitch": 72, "duration": 3, "velocity": 91}, {"time": 2628, "pitch": 71, "duration": 3, "velocity": 87}, {"time": 2634, "pitch": 72, "duration": 3, "velocity": 88}, {"time": 2640, "pitch": 72, "duration": 3, "velocity": 88}, {"time": 2646, "pitch": 77, "duration": 4, "velocity": 89}, {"time": 2652, "pitch": 70, "duration": 4, "velocity": 90}, {"time": 2664, "pitch": 69, "duration": 4, "velocity": 87}, {"time": 2670, "pitch": 70, "duration": 6, "velocity": 89}, {"time": 2676, "pitch": 70, "duration": 3, "velocity": 87}, {"time": 2682, "pitch": 72, "duration": 3, "velocity": 88}, {"time": 2688, "pitch": 73, "duration": 3, "velocity": 88}, {"time": 2694, "pitch": 82, "duration": 16, "velocity": 87}, {"time": 2724, "pitch": 82, "duration": 2, "velocity": 87}, {"time": 2730, "pitch": 84, "duration": 3, "velocity": 86}, {"time": 2736, "pitch": 82, "duration": 3, "velocity": 87}, {"time": 2742, "pitch": 80, "duration": 2, "velocity": 91}, {"time": 2748, "pitch": 77, "duration": 3, "velocity": 92}, {"time": 2760, "pitch": 75, "duration": 3, "velocity": 90}, {"time": 2766, "pitch": 77, "duration": 5, "velocity": 91}, {"time": 2772, "pitch": 77, "duration": 3, "velocity": 93}, {"time": 2778, "pitch": 77, "duration": 4, "velocity": 88}, {"time": 2784, "pitch": 75, "duration": 3, "velocity": 92}, {"time": 2790, "pitch": 77, "duration": 7, "velocity": 93}, {"time": 2802, "pitch": 81, "duration": 9, "velocity": 93}, {"time": 2820, "pitch": 81, "duration": 4, "velocity": 88}, {"time": 2826, "pitch": 81, "duration": 4, "velocity": 81}, {"time": 2832, "pitch": 81, "duration": 3, "velocity": 87}, {"time": 2838, "pitch": 81, "duration": 3, "velocity": 88}, {"time": 2844, "pitch": 82, "duration": 3, "velocity": 87}, {"time": 2850, "pitch": 84, "duration": 3, "velocity": 90}, {"time": 2856, "pitch": 81, "duration": 4, "velocity": 87}, {"time": 2862, "pitch": 82, "duration": 4, "velocity": 86}, {"time": 2868, "pitch": 77, "duration": 9, "velocity": 88}, {"time": 2880, "pitch": 75, "duration": 3, "velocity": 95}, {"time": 2886, "pitch": 77, "duration": 9, "velocity": 89}, {"time": 2898, "pitch": 82, "duration": 13, "velocity": 87}, {"time": 2916, "pitch": 82, "duration": 2, "velocity": 88}, {"time": 2922, "pitch": 84, "duration": 3, "velocity": 90}, {"time": 2928, "pitch": 82, "duration": 3, "velocity": 86}, {"time": 2934, "pitch": 80, "duration": 3, "velocity": 93}, {"time": 2940, "pitch": 77, "duration": 3, "velocity": 92}, {"time": 2946, "pitch": 77, "duration": 3, "velocity": 91}, {"time": 2952, "pitch": 76, "duration": 3, "velocity": 88}, {"time": 2958, "pitch": 77, "duration": 4, "velocity": 88}, {"time": 2964, "pitch": 77, "duration": 7, "velocity": 92}, {"time": 2976, "pitch": 75, "duration": 3, "velocity": 89}, {"time": 2982, "pitch": 77, "duration": 3, "velocity": 88}, {"time": 2988, "pitch": 72, "duration": 8, "velocity": 85}, {"time": 3000, "pitch": 71, "duration": 2, "velocity": 81}, {"time": 3006, "pitch": 72, "duration": 3, "velocity": 91}, {"time": 3012, "pitch": 72, "duration": 3, "velocity": 87}, {"time": 3018, "pitch": 73, "duration": 3, "velocity": 88}, {"time": 3024, "pitch": 72, "duration": 3, "velocity": 88}, {"time": 3030, "pitch": 77, "duration": 4, "velocity": 89}, {"time": 3036, "pitch": 70, "duration": 4, "velocity": 90}, {"time": 3048, "pitch": 69, "duration": 4, "velocity": 87}, {"time": 3054, "pitch": 70, "duration": 12, "velocity": 89}, {"time": 3450, "pitch": 77, "duration": 4, "velocity": 90}, {"time": 3456, "pitch": 76, "duration": 3, "velocity": 91}, {"time": 3462, "pitch": 77, "duration": 4, "velocity": 91}, {"time": 3468, "pitch": 70, "duration": 3, "velocity": 89}, {"time": 3474, "pitch": 70, "duration": 16, "velocity": 88}, {"time": 3492, "pitch": 70, "duration": 3, "velocity": 89}, {"time": 3498, "pitch": 72, "duration": 3, "velocity": 87}, {"time": 3504, "pitch": 73, "duration": 4, "velocity": 88}, {"time": 3510, "pitch": 72, "duration": 3, "velocity": 91}, {"time": 3516, "pitch": 72, "duration": 2, "velocity": 92}, {"time": 3522, "pitch": 72, "duration": 4, "velocity": 88}, {"time": 3528, "pitch": 71, "duration": 4, "velocity": 83}, {"time": 3534, "pitch": 72, "duration": 6, "velocity": 88}, {"time": 3552, "pitch": 70, "duration": 3, "velocity": 87}, {"time": 3558, "pitch": 72, "duration": 3, "velocity": 90}, {"time": 3564, "pitch": 66, "duration": 3, "velocity": 88}, {"time": 3570, "pitch": 66, "duration": 12, "velocity": 87}, {"time": 3588, "pitch": 66, "duration": 4, "velocity": 86}, {"time": 3594, "pitch": 68, "duration": 3, "velocity": 88}, {"time": 3600, "pitch": 70, "duration": 4, "velocity": 86}, {"time": 3606, "pitch": 73, "duration": 4, "velocity": 87}, {"time": 3612, "pitch": 73, "duration": 3, "velocity": 90}, {"time": 3618, "pitch": 73, "duration": 3, "velocity": 80}, {"time": 3624, "pitch": 72, "duration": 4, "velocity": 88}, {"time": 3630, "pitch": 73, "duration": 4, "velocity": 87}, {"time": 3636, "pitch": 77, "duration": 11, "velocity": 95}, {"time": 3648, "pitch": 75, "duration": 3, "velocity": 93}, {"time": 3654, "pitch": 77, "duration": 3, "velocity": 91}, {"time": 3660, "pitch": 70, "duration": 3, "velocity": 88}, {"time": 3666, "pitch": 70, "duration": 14, "velocity": 87}, {"time": 3684, "pitch": 70, "duration": 3, "velocity": 90}, {"time": 3690, "pitch": 72, "duration": 3, "velocity": 88}, {"time": 3696, "pitch": 73, "duration": 4, "velocity": 87}, {"time": 3702, "pitch": 77, "duration": 3, "velocity": 88}, {"time": 3708, "pitch": 72, "duration": 3, "velocity": 88}, {"time": 3714, "pitch": 72, "duration": 4, "velocity": 86}, {"time": 3720, "pitch": 73, "duration": 3, "velocity": 86}, {"time": 3726, "pitch": 72, "duration": 3, "velocity": 91}, {"time": 3732, "pitch": 70, "duration": 3, "velocity": 87}, {"time": 3738, "pitch": 72, "duration": 4, "velocity": 87}, {"time": 3744, "pitch": 70, "duration": 4, "velocity": 88}, {"time": 3750, "pitch": 73, "duration": 12, "velocity": 91}, {"time": 3762, "pitch": 66, "duration": 3, "velocity": 90}, {"time": 3768, "pitch": 66, "duration": 7, "velocity": 90}, {"time": 3780, "pitch": 66, "duration": 3, "velocity": 88}, {"time": 3786, "pitch": 68, "duration": 3, "velocity": 87}, {"time": 3792, "pitch": 70, "duration": 3, "velocity": 87}, {"time": 3798, "pitch": 75, "duration": 6, "velocity": 91}, {"time": 3804, "pitch": 73, "duration": 12, "velocity": 86}, {"time": 3816, "pitch": 72, "duration": 3, "velocity": 70}, {"time": 3822, "pitch": 73, "duration": 5, "velocity": 86}, {"time": 3827, "pitch": 70, "duration": 5, "velocity": 88}, {"time": 3834, "pitch": 70, "duration": 44, "velocity": 87}]}, {"program": 0, "is_drum": false, "name": "PIANO", "notes": [{"time": 4, "pitch": 58, "duration": 34, "velocity": 79}, {"time": 4, "pitch": 46, "duration": 31, "velocity": 86}, {"time": 5, "pitch": 61, "duration": 30, "velocity": 74}, {"time": 6, "pitch": 65, "duration": 82, "velocity": 75}, {"time": 51, "pitch": 53, "duration": 36, "velocity": 78}, {"time": 52, "pitch": 41, "duration": 39, "velocity": 86}, {"time": 52, "pitch": 57, "duration": 35, "velocity": 78}, {"time": 54, "pitch": 60, "duration": 35, "velocity": 45}, {"time": 100, "pitch": 54, "duration": 28, "velocity": 74}, {"time": 101, "pitch": 58, "duration": 28, "velocity": 75}, {"time": 101, "pitch": 42, "duration": 31, "velocity": 86}, {"time": 102, "pitch": 61, "duration": 27, "velocity": 64}, {"time": 146, "pitch": 53, "duration": 4, "velocity": 77}, {"time": 147, "pitch": 57, "duration": 4, "velocity": 70}, {"time": 148, "pitch": 41, "duration": 4, "velocity": 73}, {"time": 148, "pitch": 60, "duration": 3, "velocity": 74}, {"time": 150, "pitch": 65, "duration": 5, "velocity": 86}, {"time": 169, "pitch": 65, "duration": 26, "velocity": 76}, {"time": 171, "pitch": 69, "duration": 24, "velocity": 71}, {"time": 172, "pitch": 53, "duration": 12, "velocity": 83}, {"time": 172, "pitch": 60, "duration": 12, "velocity": 74}, {"time": 172, "pitch": 72, "duration": 23, "velocity": 64}, {"time": 173, "pitch": 77, "duration": 22, "velocity": 86}, {"time": 196, "pitch": 58, "duration": 34, "velocity": 79}, {"time": 196, "pitch": 46, "duration": 31, "velocity": 86}, {"time": 197, "pitch": 61, "duration": 30, "velocity": 74}, {"time": 198, "pitch": 65, "duration": 82, "velocity": 75}, {"time": 243, "pitch": 53, "duration": 36, "velocity": 78}, {"time": 244, "pitch": 41, "duration": 39, "velocity": 86}, {"time": 244, "pitch": 57, "duration": 35, "velocity": 78}, {"time": 246, "pitch": 60, "duration": 35, "velocity": 45}, {"time": 292, "pitch": 54, "duration": 28, "velocity": 74}, {"time": 293, "pitch": 58, "duration": 28, "velocity": 75}, {"time": 293, "pitch": 42, "duration": 31, "velocity": 86}, {"time": 294, "pitch": 61, "duration": 27, "velocity": 64}, {"time": 338, "pitch": 53, "duration": 4, "velocity": 77}, {"time": 339, "pitch": 57, "duration": 4, "velocity": 70}, {"time": 340, "pitch": 41, "duration": 4, "velocity": 73}, {"time": 340, "pitch": 60, "duration": 3, "velocity": 74}, {"time": 342, "pitch": 65, "duration": 5, "velocity": 86}, {"time": 361, "pitch": 65, "duration": 26, "velocity": 76}, {"time": 363, "pitch": 69, "duration": 24, "velocity": 71}, {"time": 364, "pitch": 53, "duration": 12, "velocity": 83}, {"time": 364, "pitch": 60, "duration": 12, "velocity": 74}, {"time": 364, "pitch": 72, "duration": 23, "velocity": 64}, {"time": 365, "pitch": 77, "duration": 22, "velocity": 86}, {"time": 390, "pitch": 46, "duration": 15, "velocity": 88}, {"time": 390, "pitch": 53, "duration": 10, "velocity": 86}, {"time": 390, "pitch": 58, "duration": 9, "velocity": 83}, {"time": 390, "pitch": 61, "duration": 10, "velocity": 87}, {"time": 414, "pitch": 46, "duration": 21, "velocity": 87}, {"time": 414, "pitch": 53, "duration": 18, "velocity": 87}, {"time": 414, "pitch": 58, "duration": 17, "velocity": 82}, {"time": 414, "pitch": 61, "duration": 21, "velocity": 87}, {"time": 438, "pitch": 41, "duration": 15, "velocity": 90}, {"time": 438, "pitch": 53, "duration": 14, "velocity": 87}, {"time": 438, "pitch": 57, "duration": 14, "velocity": 82}, {"time": 462, "pitch": 41, "duration": 18, "velocity": 92}, {"time": 462, "pitch": 53, "duration": 15, "velocity": 90}, {"time": 462, "pitch": 57, "duration": 16, "velocity": 91}, {"time": 486, "pitch": 39, "duration": 17, "velocity": 89}, {"time": 486, "pitch": 54, "duration": 16, "velocity": 82}, {"time": 486, "pitch": 58, "duration": 15, "velocity": 85}, {"time": 486, "pitch": 63, "duration": 15, "velocity": 86}, {"time": 510, "pitch": 39, "duration": 20, "velocity": 90}, {"time": 510, "pitch": 54, "duration": 17, "velocity": 86}, {"time": 510, "pitch": 58, "duration": 15, "velocity": 87}, {"time": 510, "pitch": 63, "duration": 20, "velocity": 86}, {"time": 534, "pitch": 41, "duration": 19, "velocity": 84}, {"time": 534, "pitch": 53, "duration": 17, "velocity": 86}, {"time": 534, "pitch": 57, "duration": 15, "velocity": 74}, {"time": 534, "pitch": 60, "duration": 17, "velocity": 82}, {"time": 558, "pitch": 41, "duration": 20, "velocity": 89}, {"time": 558, "pitch": 53, "duration": 18, "velocity": 86}, {"time": 558, "pitch": 57, "duration": 17, "velocity": 81}, {"time": 558, "pitch": 60, "duration": 19, "velocity": 83}, {"time": 558, "pitch": 65, "duration": 16, "velocity": 83}, {"time": 582, "pitch": 46, "duration": 12, "velocity": 87}, {"time": 582, "pitch": 53, "duration": 11, "velocity": 86}, {"time": 582, "pitch": 58, "duration": 11, "velocity": 82}, {"time": 582, "pitch": 61, "duration": 11, "velocity": 83}, {"time": 606, "pitch": 46, "duration": 17, "velocity": 92}, {"time": 606, "pitch": 53, "duration": 15, "velocity": 86}, {"time": 606, "pitch": 58, "duration": 14, "velocity": 84}, {"time": 606, "pitch": 61, "duration": 17, "velocity": 84}, {"time": 630, "pitch": 41, "duration": 15, "velocity": 88}, {"time": 630, "pitch": 53, "duration": 14, "velocity": 86}, {"time": 630, "pitch": 57, "duration": 14, "velocity": 79}, {"time": 630, "pitch": 60, "duration": 14, "velocity": 84}, {"time": 654, "pitch": 41, "duration": 18, "velocity": 88}, {"time": 654, "pitch": 53, "duration": 15, "velocity": 84}, {"time": 654, "pitch": 57, "duration": 15, "velocity": 82}, {"time": 654, "pitch": 60, "duration": 18, "velocity": 86}, {"time": 678, "pitch": 39, "duration": 16, "velocity": 89}, {"time": 678, "pitch": 54, "duration": 13, "velocity": 78}, {"time": 678, "pitch": 58, "duration": 13, "velocity": 82}, {"time": 678, "pitch": 63, "duration": 13, "velocity": 82}, {"time": 702, "pitch": 39, "duration": 17, "velocity": 88}, {"time": 702, "pitch": 54, "duration": 15, "velocity": 86}, {"time": 702, "pitch": 58, "duration": 14, "velocity": 88}, {"time": 702, "pitch": 63, "duration": 17, "velocity": 87}, {"time": 726, "pitch": 41, "duration": 15, "velocity": 89}, {"time": 726, "pitch": 53, "duration": 13, "velocity": 85}, {"time": 726, "pitch": 57, "duration": 13, "velocity": 75}, {"time": 726, "pitch": 60, "duration": 13, "velocity": 84}, {"time": 750, "pitch": 41, "duration": 17, "velocity": 87}, {"time": 750, "pitch": 53, "duration": 15, "velocity": 87}, {"time": 750, "pitch": 57, "duration": 16, "velocity": 87}, {"time": 750, "pitch": 60, "duration": 17, "velocity": 87}, {"time": 774, "pitch": 46, "duration": 20, "velocity": 86}, {"time": 774, "pitch": 58, "duration": 21, "velocity": 83}, {"time": 774, "pitch": 61, "duration": 19, "velocity": 87}, {"time": 798, "pitch": 46, "duration": 17, "velocity": 87}, {"time": 798, "pitch": 53, "duration": 17, "velocity": 86}, {"time": 798, "pitch": 58, "duration": 16, "velocity": 85}, {"time": 798, "pitch": 61, "duration": 14, "velocity": 90}, {"time": 798, "pitch": 65, "duration": 26, "velocity": 87}, {"time": 822, "pitch": 41, "duration": 20, "velocity": 88}, {"time": 822, "pitch": 53, "duration": 19, "velocity": 87}, {"time": 822, "pitch": 57, "duration": 19, "velocity": 77}, {"time": 822, "pitch": 60, "duration": 19, "velocity": 83}, {"time": 846, "pitch": 41, "duration": 21, "velocity": 88}, {"time": 846, "pitch": 53, "duration": 18, "velocity": 85}, {"time": 846, "pitch": 57, "duration": 16, "velocity": 86}, {"time": 846, "pitch": 60, "duration": 18, "velocity": 86}, {"time": 846, "pitch": 65, "duration": 12, "velocity": 79}, {"time": 870, "pitch": 46, "duration": 21, "velocity": 86}, {"time": 870, "pitch": 53, "duration": 20, "velocity": 86}, {"time": 870, "pitch": 58, "duration": 20, "velocity": 84}, {"time": 870, "pitch": 61, "duration": 20, "velocity": 83}, {"time": 894, "pitch": 46, "duration": 21, "velocity": 87}, {"time": 894, "pitch": 53, "duration": 16, "velocity": 88}, {"time": 894, "pitch": 58, "duration": 21, "velocity": 88}, {"time": 894, "pitch": 61, "duration": 21, "velocity": 87}, {"time": 918, "pitch": 48, "duration": 7, "velocity": 86}, {"time": 918, "pitch": 54, "duration": 7, "velocity": 82}, {"time": 918, "pitch": 60, "duration": 6, "velocity": 85}, {"time": 918, "pitch": 63, "duration": 6, "velocity": 84}, {"time": 918, "pitch": 66, "duration": 6, "velocity": 87}, {"time": 942, "pitch": 48, "duration": 10, "velocity": 87}, {"time": 942, "pitch": 54, "duration": 9, "velocity": 87}, {"time": 942, "pitch": 60, "duration": 9, "velocity": 83}, {"time": 942, "pitch": 63, "duration": 8, "velocity": 87}, {"time": 942, "pitch": 66, "duration": 11, "velocity": 85}, {"time": 966, "pitch": 46, "duration": 11, "velocity": 82}, {"time": 966, "pitch": 53, "duration": 9, "velocity": 76}, {"time": 966, "pitch": 58, "duration": 9, "velocity": 78}, {"time": 990, "pitch": 46, "duration": 14, "velocity": 91}, {"time": 990, "pitch": 53, "duration": 11, "velocity": 87}, {"time": 990, "pitch": 58, "duration": 11, "velocity": 87}, {"time": 990, "pitch": 61, "duration": 14, "velocity": 86}, {"time": 1014, "pitch": 41, "duration": 7, "velocity": 91}, {"time": 1014, "pitch": 53, "duration": 6, "velocity": 87}, {"time": 1014, "pitch": 57, "duration": 5, "velocity": 87}, {"time": 1014, "pitch": 60, "duration": 6, "velocity": 86}, {"time": 1038, "pitch": 41, "duration": 20, "velocity": 88}, {"time": 1038, "pitch": 53, "duration": 18, "velocity": 87}, {"time": 1038, "pitch": 57, "duration": 15, "velocity": 86}, {"time": 1038, "pitch": 60, "duration": 18, "velocity": 86}, {"time": 1038, "pitch": 65, "duration": 16, "velocity": 87}, {"time": 1062, "pitch": 46, "duration": 8, "velocity": 88}, {"time": 1062, "pitch": 53, "duration": 7, "velocity": 87}, {"time": 1062, "pitch": 58, "duration": 6, "velocity": 82}, {"time": 1062, "pitch": 61, "duration": 6, "velocity": 81}, {"time": 1086, "pitch": 46, "duration": 17, "velocity": 92}, {"time": 1086, "pitch": 53, "duration": 15, "velocity": 88}, {"time": 1086, "pitch": 58, "duration": 13, "velocity": 89}, {"time": 1086, "pitch": 61, "duration": 15, "velocity": 90}, {"time": 1110, "pitch": 41, "duration": 11, "velocity": 92}, {"time": 1110, "pitch": 53, "duration": 11, "velocity": 88}, {"time": 1110, "pitch": 57, "duration": 11, "velocity": 87}, {"time": 1110, "pitch": 60, "duration": 11, "velocity": 87}, {"time": 1134, "pitch": 41, "duration": 20, "velocity": 91}, {"time": 1134, "pitch": 53, "duration": 19, "velocity": 89}, {"time": 1134, "pitch": 57, "duration": 20, "velocity": 89}, {"time": 1134, "pitch": 60, "duration": 20, "velocity": 88}, {"time": 1134, "pitch": 65, "duration": 20, "velocity": 88}, {"time": 1158, "pitch": 46, "duration": 3, "velocity": 91}, {"time": 1158, "pitch": 58, "duration": 2, "velocity": 86}, {"time": 1158, "pitch": 61, "duration": 3, "velocity": 85}, {"time": 1164, "pitch": 53, "duration": 2, "velocity": 90}, {"time": 1170, "pitch": 46, "duration": 2, "velocity": 90}, {"time": 1170, "pitch": 58, "duration": 2, "velocity": 87}, {"time": 1170, "pitch": 61, "duration": 3, "velocity": 88}, {"time": 1182, "pitch": 46, "duration": 3, "velocity": 93}, {"time": 1182, "pitch": 58, "duration": 2, "velocity": 87}, {"time": 1182, "pitch": 61, "duration": 3, "velocity": 90}, {"time": 1188, "pitch": 53, "duration": 2, "velocity": 89}, {"time": 1194, "pitch": 46, "duration": 2, "velocity": 90}, {"time": 1194, "pitch": 58, "duration": 2, "velocity": 88}, {"time": 1194, "pitch": 61, "duration": 3, "velocity": 95}, {"time": 1206, "pitch": 41, "duration": 3, "velocity": 89}, {"time": 1206, "pitch": 56, "duration": 2, "velocity": 88}, {"time": 1206, "pitch": 60, "duration": 3, "velocity": 90}, {"time": 1212, "pitch": 53, "duration": 3, "velocity": 91}, {"time": 1218, "pitch": 41, "duration": 3, "velocity": 87}, {"time": 1218, "pitch": 48, "duration": 3, "velocity": 86}, {"time": 1218, "pitch": 53, "duration": 3, "velocity": 82}, {"time": 1218, "pitch": 56, "duration": 2, "velocity": 89}, {"time": 1218, "pitch": 60, "duration": 3, "velocity": 88}, {"time": 1230, "pitch": 41, "duration": 3, "velocity": 87}, {"time": 1230, "pitch": 48, "duration": 3, "velocity": 83}, {"time": 1230, "pitch": 56, "duration": 3, "velocity": 91}, {"time": 1230, "pitch": 60, "duration": 3, "velocity": 89}, {"time": 1236, "pitch": 53, "duration": 2, "velocity": 92}, {"time": 1242, "pitch": 41, "duration": 3, "velocity": 86}, {"time": 1242, "pitch": 48, "duration": 3, "velocity": 86}, {"time": 1242, "pitch": 56, "duration": 2, "velocity": 93}, {"time": 1242, "pitch": 60, "duration": 3, "velocity": 91}, {"time": 1254, "pitch": 39, "duration": 4, "velocity": 92}, {"time": 1254, "pitch": 51, "duration": 3, "velocity": 82}, {"time": 1254, "pitch": 58, "duration": 3, "velocity": 80}, {"time": 1260, "pitch": 51, "duration": 2, "velocity": 88}, {"time": 1266, "pitch": 39, "duration": 3, "velocity": 89}, {"time": 1266, "pitch": 46, "duration": 2, "velocity": 87}, {"time": 1266, "pitch": 51, "duration": 2, "velocity": 87}, {"time": 1266, "pitch": 54, "duration": 2, "velocity": 91}, {"time": 1266, "pitch": 58, "duration": 3, "velocity": 90}, {"time": 1278, "pitch": 39, "duration": 5, "velocity": 88}, {"time": 1278, "pitch": 54, "duration": 4, "velocity": 92}, {"time": 1278, "pitch": 58, "duration": 4, "velocity": 92}, {"time": 1284, "pitch": 51, "duration": 2, "velocity": 87}, {"time": 1290, "pitch": 39, "duration": 3, "velocity": 92}, {"time": 1290, "pitch": 54, "duration": 2, "velocity": 91}, {"time": 1290, "pitch": 58, "duration": 3, "velocity": 89}, {"time": 1302, "pitch": 46, "duration": 3, "velocity": 93}, {"time": 1302, "pitch": 58, "duration": 3, "velocity": 86}, {"time": 1302, "pitch": 61, "duration": 4, "velocity": 87}, {"time": 1308, "pitch": 53, "duration": 2, "velocity": 93}, {"time": 1314, "pitch": 46, "duration": 2, "velocity": 100}, {"time": 1314, "pitch": 58, "duration": 2, "velocity": 89}, {"time": 1314, "pitch": 61, "duration": 3, "velocity": 91}, {"time": 1326, "pitch": 46, "duration": 4, "velocity": 93}, {"time": 1326, "pitch": 58, "duration": 3, "velocity": 90}, {"time": 1326, "pitch": 61, "duration": 3, "velocity": 87}, {"time": 1332, "pitch": 53, "duration": 3, "velocity": 95}, {"time": 1338, "pitch": 46, "duration": 3, "velocity": 91}, {"time": 1338, "pitch": 58, "duration": 4, "velocity": 89}, {"time": 1338, "pitch": 61, "duration": 4, "velocity": 92}, {"time": 1350, "pitch": 46, "duration": 3, "velocity": 97}, {"time": 1350, "pitch": 58, "duration": 3, "velocity": 88}, {"time": 1350, "pitch": 61, "duration": 3, "velocity": 87}, {"time": 1356, "pitch": 53, "duration": 3, "velocity": 90}, {"time": 1362, "pitch": 46, "duration": 3, "velocity": 91}, {"time": 1362, "pitch": 58, "duration": 2, "velocity": 86}, {"time": 1362, "pitch": 61, "duration": 3, "velocity": 88}, {"time": 1374, "pitch": 46, "duration": 3, "velocity": 93}, {"time": 1374, "pitch": 58, "duration": 2, "velocity": 86}, {"time": 1374, "pitch": 61, "duration": 3, "velocity": 87}, {"time": 1380, "pitch": 53, "duration": 2, "velocity": 88}, {"time": 1386, "pitch": 46, "duration": 3, "velocity": 92}, {"time": 1386, "pitch": 58, "duration": 2, "velocity": 87}, {"time": 1386, "pitch": 61, "duration": 3, "velocity": 90}, {"time": 1392, "pitch": 53, "duration": 2, "velocity": 86}, {"time": 1398, "pitch": 41, "duration": 3, "velocity": 88}, {"time": 1398, "pitch": 56, "duration": 2, "velocity": 85}, {"time": 1398, "pitch": 60, "duration": 3, "velocity": 86}, {"time": 1404, "pitch": 53, "duration": 2, "velocity": 92}, {"time": 1410, "pitch": 41, "duration": 2, "velocity": 87}, {"time": 1410, "pitch": 56, "duration": 2, "velocity": 88}, {"time": 1410, "pitch": 60, "duration": 2, "velocity": 87}, {"time": 1422, "pitch": 41, "duration": 3, "velocity": 88}, {"time": 1422, "pitch": 56, "duration": 2, "velocity": 89}, {"time": 1422, "pitch": 60, "duration": 3, "velocity": 87}, {"time": 1428, "pitch": 53, "duration": 2, "velocity": 90}, {"time": 1434, "pitch": 41, "duration": 3, "velocity": 91}, {"time": 1434, "pitch": 56, "duration": 2, "velocity": 87}, {"time": 1434, "pitch": 60, "duration": 3, "velocity": 88}, {"time": 1446, "pitch": 39, "duration": 3, "velocity": 89}, {"time": 1446, "pitch": 54, "duration": 3, "velocity": 87}, {"time": 1446, "pitch": 58, "duration": 3, "velocity": 86}, {"time": 1452, "pitch": 51, "duration": 3, "velocity": 89}, {"time": 1458, "pitch": 39, "duration": 4, "velocity": 89}, {"time": 1458, "pitch": 54, "duration": 3, "velocity": 88}, {"time": 1458, "pitch": 58, "duration": 4, "velocity": 88}, {"time": 1470, "pitch": 39, "duration": 4, "velocity": 93}, {"time": 1470, "pitch": 54, "duration": 3, "velocity": 90}, {"time": 1470, "pitch": 58, "duration": 3, "velocity": 86}, {"time": 1476, "pitch": 51, "duration": 3, "velocity": 91}, {"time": 1482, "pitch": 39, "duration": 4, "velocity": 89}, {"time": 1482, "pitch": 54, "duration": 4, "velocity": 88}, {"time": 1482, "pitch": 58, "duration": 4, "velocity": 88}, {"time": 1488, "pitch": 51, "duration": 2, "velocity": 89}, {"time": 1494, "pitch": 46, "duration": 3, "velocity": 107}, {"time": 1494, "pitch": 53, "duration": 2, "velocity": 84}, {"time": 1494, "pitch": 58, "duration": 3, "velocity": 75}, {"time": 1494, "pitch": 61, "duration": 3, "velocity": 79}, {"time": 1500, "pitch": 53, "duration": 2, "velocity": 97}, {"time": 1506, "pitch": 46, "duration": 3, "velocity": 97}, {"time": 1506, "pitch": 58, "duration": 3, "velocity": 88}, {"time": 1506, "pitch": 61, "duration": 3, "velocity": 93}, {"time": 1518, "pitch": 46, "duration": 4, "velocity": 93}, {"time": 1518, "pitch": 58, "duration": 3, "velocity": 88}, {"time": 1518, "pitch": 61, "duration": 4, "velocity": 89}, {"time": 1524, "pitch": 53, "duration": 3, "velocity": 92}, {"time": 1530, "pitch": 46, "duration": 5, "velocity": 93}, {"time": 1530, "pitch": 58, "duration": 6, "velocity": 91}, {"time": 1530, "pitch": 61, "duration": 6, "velocity": 93}, {"time": 1536, "pitch": 53, "duration": 2, "velocity": 90}, {"time": 1542, "pitch": 42, "duration": 40, "velocity": 88}, {"time": 1542, "pitch": 58, "duration": 9, "velocity": 86}, {"time": 1542, "pitch": 61, "duration": 8, "velocity": 90}, {"time": 1554, "pitch": 58, "duration": 2, "velocity": 80}, {"time": 1554, "pitch": 61, "duration": 3, "velocity": 92}, {"time": 1554, "pitch": 66, "duration": 4, "velocity": 87}, {"time": 1566, "pitch": 58, "duration": 2, "velocity": 82}, {"time": 1566, "pitch": 61, "duration": 2, "velocity": 90}, {"time": 1566, "pitch": 66, "duration": 3, "velocity": 81}, {"time": 1578, "pitch": 58, "duration": 2, "velocity": 82}, {"time": 1578, "pitch": 61, "duration": 4, "velocity": 93}, {"time": 1578, "pitch": 66, "duration": 7, "velocity": 88}, {"time": 1584, "pitch": 58, "duration": 2, "velocity": 80}, {"time": 1590, "pitch": 49, "duration": 38, "velocity": 88}, {"time": 1590, "pitch": 56, "duration": 8, "velocity": 86}, {"time": 1590, "pitch": 61, "duration": 8, "velocity": 79}, {"time": 1590, "pitch": 65, "duration": 8, "velocity": 86}, {"time": 1602, "pitch": 56, "duration": 3, "velocity": 88}, {"time": 1602, "pitch": 61, "duration": 2, "velocity": 93}, {"time": 1602, "pitch": 65, "duration": 2, "velocity": 90}, {"time": 1614, "pitch": 56, "duration": 2, "velocity": 80}, {"time": 1614, "pitch": 61, "duration": 7, "velocity": 87}, {"time": 1614, "pitch": 65, "duration": 6, "velocity": 88}, {"time": 1620, "pitch": 56, "duration": 2, "velocity": 88}, {"time": 1626, "pitch": 56, "duration": 1, "velocity": 85}, {"time": 1626, "pitch": 61, "duration": 3, "velocity": 91}, {"time": 1626, "pitch": 65, "duration": 4, "velocity": 93}, {"time": 1638, "pitch": 41, "duration": 34, "velocity": 91}, {"time": 1638, "pitch": 60, "duration": 9, "velocity": 86}, {"time": 1638, "pitch": 65, "duration": 9, "velocity": 88}, {"time": 1650, "pitch": 60, "duration": 4, "velocity": 85}, {"time": 1650, "pitch": 65, "duration": 4, "velocity": 89}, {"time": 1650, "pitch": 69, "duration": 4, "velocity": 89}, {"time": 1662, "pitch": 65, "duration": 4, "velocity": 92}, {"time": 1662, "pitch": 69, "duration": 7, "velocity": 90}, {"time": 1668, "pitch": 60, "duration": 3, "velocity": 88}, {"time": 1674, "pitch": 65, "duration": 5, "velocity": 95}, {"time": 1674, "pitch": 69, "duration": 5, "velocity": 97}, {"time": 1680, "pitch": 60, "duration": 2, "velocity": 90}, {"time": 1686, "pitch": 46, "duration": 34, "velocity": 87}, {"time": 1686, "pitch": 58, "duration": 10, "velocity": 88}, {"time": 1686, "pitch": 61, "duration": 9, "velocity": 92}, {"time": 1698, "pitch": 61, "duration": 4, "velocity": 97}, {"time": 1698, "pitch": 65, "duration": 3, "velocity": 97}, {"time": 1710, "pitch": 58, "duration": 1, "velocity": 75}, {"time": 1710, "pitch": 61, "duration": 7, "velocity": 91}, {"time": 1710, "pitch": 65, "duration": 7, "velocity": 89}, {"time": 1716, "pitch": 58, "duration": 3, "velocity": 78}, {"time": 1722, "pitch": 58, "duration": 3, "velocity": 87}, {"time": 1722, "pitch": 61, "duration": 5, "velocity": 100}, {"time": 1722, "pitch": 65, "duration": 8, "velocity": 92}, {"time": 1728, "pitch": 58, "duration": 4, "velocity": 80}, {"time": 1728, "pitch": 61, "duration": 1, "velocity": 53}, {"time": 1734, "pitch": 42, "duration": 35, "velocity": 87}, {"time": 1734, "pitch": 58, "duration": 7, "velocity": 75}, {"time": 1734, "pitch": 61, "duration": 7, "velocity": 83}, {"time": 1734, "pitch": 66, "duration": 7, "velocity": 86}, {"time": 1746, "pitch": 58, "duration": 3, "velocity": 87}, {"time": 1746, "pitch": 61, "duration": 3, "velocity": 92}, {"time": 1746, "pitch": 66, "duration": 3, "velocity": 87}, {"time": 1758, "pitch": 61, "duration": 7, "velocity": 91}, {"time": 1758, "pitch": 66, "duration": 4, "velocity": 88}, {"time": 1764, "pitch": 58, "duration": 2, "velocity": 85}, {"time": 1770, "pitch": 61, "duration": 7, "velocity": 102}, {"time": 1770, "pitch": 66, "duration": 7, "velocity": 87}, {"time": 1776, "pitch": 58, "duration": 3, "velocity": 82}, {"time": 1782, "pitch": 49, "duration": 34, "velocity": 88}, {"time": 1782, "pitch": 56, "duration": 11, "velocity": 85}, {"time": 1782, "pitch": 61, "duration": 10, "velocity": 86}, {"time": 1794, "pitch": 61, "duration": 6, "velocity": 93}, {"time": 1794, "pitch": 65, "duration": 6, "velocity": 93}, {"time": 1806, "pitch": 61, "duration": 4, "velocity": 91}, {"time": 1806, "pitch": 65, "duration": 4, "velocity": 93}, {"time": 1812, "pitch": 56, "duration": 3, "velocity": 86}, {"time": 1812, "pitch": 61, "duration": 1, "velocity": 39}, {"time": 1818, "pitch": 56, "duration": 1, "velocity": 70}, {"time": 1818, "pitch": 61, "duration": 7, "velocity": 93}, {"time": 1818, "pitch": 65, "duration": 8, "velocity": 90}, {"time": 1824, "pitch": 56, "duration": 1, "velocity": 81}, {"time": 1830, "pitch": 41, "duration": 38, "velocity": 90}, {"time": 1830, "pitch": 60, "duration": 8, "velocity": 87}, {"time": 1830, "pitch": 65, "duration": 10, "velocity": 93}, {"time": 1842, "pitch": 60, "duration": 4, "velocity": 90}, {"time": 1842, "pitch": 65, "duration": 5, "velocity": 91}, {"time": 1842, "pitch": 69, "duration": 6, "velocity": 89}, {"time": 1854, "pitch": 65, "duration": 3, "velocity": 93}, {"time": 1854, "pitch": 69, "duration": 4, "velocity": 93}, {"time": 1860, "pitch": 60, "duration": 2, "velocity": 91}, {"time": 1866, "pitch": 60, "duration": 1, "velocity": 62}, {"time": 1866, "pitch": 65, "duration": 4, "velocity": 95}, {"time": 1866, "pitch": 69, "duration": 6, "velocity": 97}, {"time": 1872, "pitch": 60, "duration": 2, "velocity": 87}, {"time": 1878, "pitch": 46, "duration": 50, "velocity": 88}, {"time": 1878, "pitch": 58, "duration": 9, "velocity": 85}, {"time": 1878, "pitch": 61, "duration": 8, "velocity": 87}, {"time": 1890, "pitch": 61, "duration": 4, "velocity": 97}, {"time": 1890, "pitch": 65, "duration": 4, "velocity": 100}, {"time": 1902, "pitch": 61, "duration": 8, "velocity": 93}, {"time": 1902, "pitch": 65, "duration": 8, "velocity": 93}, {"time": 1908, "pitch": 58, "duration": 8, "velocity": 88}, {"time": 1914, "pitch": 61, "duration": 13, "velocity": 88}, {"time": 1914, "pitch": 65, "duration": 14, "velocity": 89}, {"time": 1920, "pitch": 58, "duration": 7, "velocity": 81}, {"time": 1926, "pitch": 46, "duration": 2, "velocity": 88}, {"time": 1926, "pitch": 61, "duration": 1, "velocity": 89}, {"time": 1926, "pitch": 65, "duration": 2, "velocity": 87}, {"time": 1932, "pitch": 58, "duration": 4, "velocity": 87}, {"time": 1938, "pitch": 61, "duration": 3, "velocity": 89}, {"time": 1938, "pitch": 65, "duration": 4, "velocity": 90}, {"time": 1944, "pitch": 58, "duration": 3, "velocity": 72}, {"time": 1950, "pitch": 61, "duration": 3, "velocity": 87}, {"time": 1950, "pitch": 65, "duration": 5, "velocity": 89}, {"time": 1956, "pitch": 58, "duration": 3, "velocity": 83}, {"time": 1962, "pitch": 61, "duration": 6, "velocity": 88}, {"time": 1962, "pitch": 65, "duration": 6, "velocity": 88}, {"time": 1968, "pitch": 58, "duration": 2, "velocity": 88}, {"time": 1974, "pitch": 41, "duration": 44, "velocity": 91}, {"time": 1974, "pitch": 53, "duration": 4, "velocity": 89}, {"time": 1974, "pitch": 57, "duration": 8, "velocity": 87}, {"time": 1974, "pitch": 60, "duration": 8, "velocity": 88}, {"time": 1980, "pitch": 53, "duration": 4, "velocity": 90}, {"time": 1986, "pitch": 57, "duration": 4, "velocity": 86}, {"time": 1986, "pitch": 60, "duration": 4, "velocity": 86}, {"time": 1992, "pitch": 53, "duration": 4, "velocity": 89}, {"time": 1998, "pitch": 57, "duration": 3, "velocity": 87}, {"time": 1998, "pitch": 60, "duration": 8, "velocity": 88}, {"time": 1998, "pitch": 65, "duration": 8, "velocity": 89}, {"time": 2004, "pitch": 53, "duration": 3, "velocity": 90}, {"time": 2010, "pitch": 57, "duration": 6, "velocity": 87}, {"time": 2010, "pitch": 60, "duration": 9, "velocity": 90}, {"time": 2010, "pitch": 65, "duration": 8, "velocity": 88}, {"time": 2016, "pitch": 53, "duration": 3, "velocity": 86}, {"time": 2022, "pitch": 39, "duration": 35, "velocity": 89}, {"time": 2022, "pitch": 63, "duration": 7, "velocity": 88}, {"time": 2022, "pitch": 66, "duration": 8, "velocity": 88}, {"time": 2028, "pitch": 58, "duration": 6, "velocity": 87}, {"time": 2034, "pitch": 63, "duration": 7, "velocity": 87}, {"time": 2034, "pitch": 66, "duration": 7, "velocity": 91}, {"time": 2040, "pitch": 58, "duration": 5, "velocity": 87}, {"time": 2046, "pitch": 63, "duration": 7, "velocity": 91}, {"time": 2046, "pitch": 66, "duration": 7, "velocity": 103}, {"time": 2052, "pitch": 58, "duration": 3, "velocity": 88}, {"time": 2058, "pitch": 63, "duration": 5, "velocity": 89}, {"time": 2058, "pitch": 66, "duration": 4, "velocity": 93}, {"time": 2064, "pitch": 58, "duration": 2, "velocity": 87}, {"time": 2070, "pitch": 41, "duration": 38, "velocity": 90}, {"time": 2070, "pitch": 53, "duration": 4, "velocity": 93}, {"time": 2070, "pitch": 57, "duration": 7, "velocity": 91}, {"time": 2070, "pitch": 60, "duration": 7, "velocity": 88}, {"time": 2076, "pitch": 53, "duration": 4, "velocity": 91}, {"time": 2082, "pitch": 57, "duration": 3, "velocity": 91}, {"time": 2082, "pitch": 60, "duration": 6, "velocity": 87}, {"time": 2088, "pitch": 53, "duration": 3, "velocity": 89}, {"time": 2094, "pitch": 57, "duration": 7, "velocity": 91}, {"time": 2094, "pitch": 60, "duration": 8, "velocity": 93}, {"time": 2094, "pitch": 65, "duration": 7, "velocity": 88}, {"time": 2100, "pitch": 53, "duration": 3, "velocity": 89}, {"time": 2106, "pitch": 57, "duration": 8, "velocity": 93}, {"time": 2106, "pitch": 60, "duration": 10, "velocity": 91}, {"time": 2106, "pitch": 65, "duration": 10, "velocity": 91}, {"time": 2112, "pitch": 53, "duration": 4, "velocity": 100}, {"time": 2118, "pitch": 46, "duration": 34, "velocity": 88}, {"time": 2118, "pitch": 61, "duration": 7, "velocity": 89}, {"time": 2118, "pitch": 65, "duration": 7, "velocity": 87}, {"time": 2124, "pitch": 58, "duration": 4, "velocity": 87}, {"time": 2130, "pitch": 61, "duration": 3, "velocity": 89}, {"time": 2130, "pitch": 65, "duration": 4, "velocity": 90}, {"time": 2136, "pitch": 58, "duration": 3, "velocity": 72}, {"time": 2142, "pitch": 61, "duration": 3, "velocity": 87}, {"time": 2142, "pitch": 65, "duration": 5, "velocity": 89}, {"time": 2148, "pitch": 58, "duration": 3, "velocity": 83}, {"time": 2154, "pitch": 61, "duration": 6, "velocity": 88}, {"time": 2154, "pitch": 65, "duration": 6, "velocity": 88}, {"time": 2160, "pitch": 58, "duration": 2, "velocity": 88}, {"time": 2166, "pitch": 41, "duration": 44, "velocity": 91}, {"time": 2166, "pitch": 53, "duration": 4, "velocity": 89}, {"time": 2166, "pitch": 57, "duration": 8, "velocity": 87}, {"time": 2166, "pitch": 60, "duration": 8, "velocity": 88}, {"time": 2172, "pitch": 53, "duration": 4, "velocity": 90}, {"time": 2178, "pitch": 57, "duration": 4, "velocity": 86}, {"time": 2178, "pitch": 60, "duration": 4, "velocity": 86}, {"time": 2184, "pitch": 53, "duration": 4, "velocity": 89}, {"time": 2190, "pitch": 57, "duration": 3, "velocity": 87}, {"time": 2190, "pitch": 60, "duration": 8, "velocity": 88}, {"time": 2190, "pitch": 65, "duration": 8, "velocity": 89}, {"time": 2196, "pitch": 53, "duration": 3, "velocity": 90}, {"time": 2202, "pitch": 57, "duration": 6, "velocity": 87}, {"time": 2202, "pitch": 60, "duration": 9, "velocity": 90}, {"time": 2202, "pitch": 65, "duration": 8, "velocity": 88}, {"time": 2208, "pitch": 53, "duration": 3, "velocity": 86}, {"time": 2214, "pitch": 39, "duration": 35, "velocity": 89}, {"time": 2214, "pitch": 63, "duration": 7, "velocity": 88}, {"time": 2214, "pitch": 66, "duration": 8, "velocity": 88}, {"time": 2220, "pitch": 58, "duration": 6, "velocity": 87}, {"time": 2226, "pitch": 63, "duration": 7, "velocity": 87}, {"time": 2226, "pitch": 66, "duration": 7, "velocity": 91}, {"time": 2232, "pitch": 58, "duration": 5, "velocity": 87}, {"time": 2238, "pitch": 63, "duration": 7, "velocity": 91}, {"time": 2238, "pitch": 66, "duration": 7, "velocity": 103}, {"time": 2244, "pitch": 58, "duration": 3, "velocity": 88}, {"time": 2250, "pitch": 63, "duration": 5, "velocity": 89}, {"time": 2250, "pitch": 66, "duration": 4, "velocity": 93}, {"time": 2256, "pitch": 58, "duration": 2, "velocity": 87}, {"time": 2262, "pitch": 41, "duration": 38, "velocity": 90}, {"time": 2262, "pitch": 53, "duration": 4, "velocity": 93}, {"time": 2262, "pitch": 57, "duration": 7, "velocity": 91}, {"time": 2262, "pitch": 60, "duration": 7, "velocity": 88}, {"time": 2268, "pitch": 53, "duration": 4, "velocity": 91}, {"time": 2274, "pitch": 57, "duration": 3, "velocity": 91}, {"time": 2274, "pitch": 60, "duration": 6, "velocity": 87}, {"time": 2280, "pitch": 53, "duration": 3, "velocity": 89}, {"time": 2286, "pitch": 57, "duration": 7, "velocity": 91}, {"time": 2286, "pitch": 60, "duration": 8, "velocity": 93}, {"time": 2286, "pitch": 65, "duration": 7, "velocity": 88}, {"time": 2292, "pitch": 53, "duration": 3, "velocity": 89}, {"time": 2298, "pitch": 57, "duration": 8, "velocity": 93}, {"time": 2298, "pitch": 60, "duration": 10, "velocity": 91}, {"time": 2298, "pitch": 65, "duration": 10, "velocity": 91}, {"time": 2304, "pitch": 53, "duration": 4, "velocity": 100}, {"time": 2310, "pitch": 42, "duration": 40, "velocity": 88}, {"time": 2310, "pitch": 58, "duration": 9, "velocity": 86}, {"time": 2310, "pitch": 61, "duration": 8, "velocity": 90}, {"time": 2322, "pitch": 58, "duration": 2, "velocity": 80}, {"time": 2322, "pitch": 61, "duration": 3, "velocity": 92}, {"time": 2322, "pitch": 66, "duration": 4, "velocity": 87}, {"time": 2334, "pitch": 58, "duration": 2, "velocity": 82}, {"time": 2334, "pitch": 61, "duration": 2, "velocity": 90}, {"time": 2334, "pitch": 66, "duration": 3, "velocity": 81}, {"time": 2346, "pitch": 58, "duration": 2, "velocity": 82}, {"time": 2346, "pitch": 61, "duration": 4, "velocity": 93}, {"time": 2346, "pitch": 66, "duration": 7, "velocity": 88}, {"time": 2352, "pitch": 58, "duration": 2, "velocity": 80}, {"time": 2358, "pitch": 49, "duration": 38, "velocity": 88}, {"time": 2358, "pitch": 56, "duration": 8, "velocity": 86}, {"time": 2358, "pitch": 61, "duration": 8, "velocity": 79}, {"time": 2358, "pitch": 65, "duration": 8, "velocity": 86}, {"time": 2370, "pitch": 56, "duration": 3, "velocity": 88}, {"time": 2370, "pitch": 61, "duration": 2, "velocity": 93}, {"time": 2370, "pitch": 65, "duration": 2, "velocity": 90}, {"time": 2382, "pitch": 56, "duration": 2, "velocity": 80}, {"time": 2382, "pitch": 61, "duration": 7, "velocity": 87}, {"time": 2382, "pitch": 65, "duration": 6, "velocity": 88}, {"time": 2388, "pitch": 56, "duration": 2, "velocity": 88}, {"time": 2394, "pitch": 56, "duration": 1, "velocity": 85}, {"time": 2394, "pitch": 61, "duration": 3, "velocity": 91}, {"time": 2394, "pitch": 65, "duration": 4, "velocity": 93}, {"time": 2406, "pitch": 41, "duration": 34, "velocity": 91}, {"time": 2406, "pitch": 60, "duration": 9, "velocity": 86}, {"time": 2406, "pitch": 65, "duration": 9, "velocity": 88}, {"time": 2418, "pitch": 60, "duration": 4, "velocity": 85}, {"time": 2418, "pitch": 65, "duration": 4, "velocity": 89}, {"time": 2418, "pitch": 69, "duration": 4, "velocity": 89}, {"time": 2430, "pitch": 65, "duration": 4, "velocity": 92}, {"time": 2430, "pitch": 69, "duration": 7, "velocity": 90}, {"time": 2436, "pitch": 60, "duration": 3, "velocity": 88}, {"time": 2442, "pitch": 65, "duration": 5, "velocity": 95}, {"time": 2442, "pitch": 69, "duration": 5, "velocity": 97}, {"time": 2448, "pitch": 60, "duration": 2, "velocity": 90}, {"time": 2454, "pitch": 46, "duration": 34, "velocity": 87}, {"time": 2454, "pitch": 58, "duration": 10, "velocity": 88}, {"time": 2454, "pitch": 61, "duration": 9, "velocity": 92}, {"time": 2466, "pitch": 61, "duration": 4, "velocity": 97}, {"time": 2466, "pitch": 65, "duration": 3, "velocity": 97}, {"time": 2478, "pitch": 58, "duration": 1, "velocity": 75}, {"time": 2478, "pitch": 61, "duration": 7, "velocity": 91}, {"time": 2478, "pitch": 65, "duration": 7, "velocity": 89}, {"time": 2484, "pitch": 58, "duration": 3, "velocity": 78}, {"time": 2490, "pitch": 58, "duration": 3, "velocity": 87}, {"time": 2490, "pitch": 61, "duration": 5, "velocity": 100}, {"time": 2490, "pitch": 65, "duration": 8, "velocity": 92}, {"time": 2496, "pitch": 58, "duration": 4, "velocity": 80}, {"time": 2496, "pitch": 61, "duration": 1, "velocity": 53}, {"time": 2502, "pitch": 42, "duration": 35, "velocity": 87}, {"time": 2502, "pitch": 58, "duration": 7, "velocity": 75}, {"time": 2502, "pitch": 61, "duration": 7, "velocity": 83}, {"time": 2502, "pitch": 66, "duration": 7, "velocity": 86}, {"time": 2514, "pitch": 58, "duration": 3, "velocity": 87}, {"time": 2514, "pitch": 61, "duration": 3, "velocity": 92}, {"time": 2514, "pitch": 66, "duration": 3, "velocity": 87}, {"time": 2526, "pitch": 61, "duration": 7, "velocity": 91}, {"time": 2526, "pitch": 66, "duration": 4, "velocity": 88}, {"time": 2532, "pitch": 58, "duration": 2, "velocity": 85}, {"time": 2538, "pitch": 61, "duration": 7, "velocity": 102}, {"time": 2538, "pitch": 66, "duration": 7, "velocity": 87}, {"time": 2544, "pitch": 58, "duration": 3, "velocity": 82}, {"time": 2550, "pitch": 49, "duration": 34, "velocity": 88}, {"time": 2550, "pitch": 56, "duration": 11, "velocity": 85}, {"time": 2550, "pitch": 61, "duration": 10, "velocity": 86}, {"time": 2562, "pitch": 61, "duration": 6, "velocity": 93}, {"time": 2562, "pitch": 65, "duration": 6, "velocity": 93}, {"time": 2574, "pitch": 61, "duration": 4, "velocity": 91}, {"time": 2574, "pitch": 65, "duration": 4, "velocity": 93}, {"time": 2580, "pitch": 56, "duration": 3, "velocity": 86}, {"time": 2580, "pitch": 61, "duration": 1, "velocity": 39}, {"time": 2586, "pitch": 56, "duration": 1, "velocity": 70}, {"time": 2586, "pitch": 61, "duration": 7, "velocity": 93}, {"time": 2586, "pitch": 65, "duration": 8, "velocity": 90}, {"time": 2592, "pitch": 56, "duration": 1, "velocity": 81}, {"time": 2598, "pitch": 41, "duration": 38, "velocity": 90}, {"time": 2598, "pitch": 60, "duration": 8, "velocity": 87}, {"time": 2598, "pitch": 65, "duration": 10, "velocity": 93}, {"time": 2610, "pitch": 60, "duration": 4, "velocity": 90}, {"time": 2610, "pitch": 65, "duration": 5, "velocity": 91}, {"time": 2610, "pitch": 69, "duration": 6, "velocity": 89}, {"time": 2622, "pitch": 65, "duration": 3, "velocity": 93}, {"time": 2622, "pitch": 69, "duration": 4, "velocity": 93}, {"time": 2628, "pitch": 60, "duration": 2, "velocity": 91}, {"time": 2634, "pitch": 60, "duration": 1, "velocity": 62}, {"time": 2634, "pitch": 65, "duration": 4, "velocity": 95}, {"time": 2634, "pitch": 69, "duration": 6, "velocity": 97}, {"time": 2640, "pitch": 60, "duration": 2, "velocity": 87}, {"time": 2646, "pitch": 46, "duration": 50, "velocity": 88}, {"time": 2646, "pitch": 58, "duration": 9, "velocity": 85}, {"time": 2646, "pitch": 61, "duration": 8, "velocity": 87}, {"time": 2658, "pitch": 61, "duration": 4, "velocity": 97}, {"time": 2658, "pitch": 65, "duration": 4, "velocity": 100}, {"time": 2670, "pitch": 61, "duration": 8, "velocity": 93}, {"time": 2670, "pitch": 65, "duration": 8, "velocity": 93}, {"time": 2676, "pitch": 58, "duration": 8, "velocity": 88}, {"time": 2682, "pitch": 61, "duration": 13, "velocity": 88}, {"time": 2682, "pitch": 65, "duration": 14, "velocity": 89}, {"time": 2688, "pitch": 58, "duration": 7, "velocity": 81}, {"time": 2694, "pitch": 42, "duration": 40, "velocity": 88}, {"time": 2694, "pitch": 58, "duration": 1, "velocity": 86}, {"time": 2694, "pitch": 61, "duration": 1, "velocity": 90}, {"time": 2706, "pitch": 58, "duration": 2, "velocity": 80}, {"time": 2706, "pitch": 61, "duration": 3, "velocity": 92}, {"time": 2706, "pitch": 66, "duration": 4, "velocity": 87}, {"time": 2718, "pitch": 58, "duration": 2, "velocity": 82}, {"time": 2718, "pitch": 61, "duration": 2, "velocity": 90}, {"time": 2718, "pitch": 66, "duration": 3, "velocity": 81}, {"time": 2730, "pitch": 58, "duration": 2, "velocity": 82}, {"time": 2730, "pitch": 61, "duration": 4, "velocity": 93}, {"time": 2730, "pitch": 66, "duration": 7, "velocity": 88}, {"time": 2736, "pitch": 58, "duration": 2, "velocity": 80}, {"time": 2742, "pitch": 49, "duration": 38, "velocity": 88}, {"time": 2742, "pitch": 56, "duration": 8, "velocity": 86}, {"time": 2742, "pitch": 61, "duration": 8, "velocity": 79}, {"time": 2742, "pitch": 65, "duration": 8, "velocity": 86}, {"time": 2754, "pitch": 56, "duration": 3, "velocity": 88}, {"time": 2754, "pitch": 61, "duration": 2, "velocity": 93}, {"time": 2754, "pitch": 65, "duration": 2, "velocity": 90}, {"time": 2766, "pitch": 56, "duration": 2, "velocity": 80}, {"time": 2766, "pitch": 61, "duration": 7, "velocity": 87}, {"time": 2766, "pitch": 65, "duration": 6, "velocity": 88}, {"time": 2772, "pitch": 56, "duration": 2, "velocity": 88}, {"time": 2778, "pitch": 56, "duration": 1, "velocity": 85}, {"time": 2778, "pitch": 61, "duration": 3, "velocity": 91}, {"time": 2778, "pitch": 65, "duration": 4, "velocity": 93}, {"time": 2790, "pitch": 41, "duration": 34, "velocity": 91}, {"time": 2790, "pitch": 60, "duration": 9, "velocity": 86}, {"time": 2790, "pitch": 65, "duration": 9, "velocity": 88}, {"time": 2802, "pitch": 60, "duration": 4, "velocity": 85}, {"time": 2802, "pitch": 65, "duration": 4, "velocity": 89}, {"time": 2802, "pitch": 69, "duration": 4, "velocity": 89}, {"time": 2814, "pitch": 65, "duration": 4, "velocity": 92}, {"time": 2814, "pitch": 69, "duration": 7, "velocity": 90}, {"time": 2820, "pitch": 60, "duration": 3, "velocity": 88}, {"time": 2826, "pitch": 65, "duration": 5, "velocity": 95}, {"time": 2826, "pitch": 69, "duration": 5, "velocity": 97}, {"time": 2832, "pitch": 60, "duration": 2, "velocity": 90}, {"time": 2838, "pitch": 46, "duration": 34, "velocity": 87}, {"time": 2838, "pitch": 58, "duration": 10, "velocity": 88}, {"time": 2838, "pitch": 61, "duration": 9, "velocity": 92}, {"time": 2850, "pitch": 61, "duration": 4, "velocity": 97}, {"time": 2850, "pitch": 65, "duration": 3, "velocity": 97}, {"time": 2862, "pitch": 58, "duration": 1, "velocity": 75}, {"time": 2862, "pitch": 61, "duration": 7, "velocity": 91}, {"time": 2862, "pitch": 65, "duration": 7, "velocity": 89}, {"time": 2868, "pitch": 58, "duration": 3, "velocity": 78}, {"time": 2874, "pitch": 58, "duration": 3, "velocity": 87}, {"time": 2874, "pitch": 61, "duration": 5, "velocity": 100}, {"time": 2874, "pitch": 65, "duration": 8, "velocity": 92}, {"time": 2880, "pitch": 58, "duration": 4, "velocity": 80}, {"time": 2880, "pitch": 61, "duration": 1, "velocity": 53}, {"time": 2886, "pitch": 42, "duration": 35, "velocity": 87}, {"time": 2886, "pitch": 58, "duration": 7, "velocity": 75}, {"time": 2886, "pitch": 61, "duration": 7, "velocity": 83}, {"time": 2886, "pitch": 66, "duration": 7, "velocity": 86}, {"time": 2898, "pitch": 58, "duration": 3, "velocity": 87}, {"time": 2898, "pitch": 61, "duration": 3, "velocity": 92}, {"time": 2898, "pitch": 66, "duration": 3, "velocity": 87}, {"time": 2910, "pitch": 61, "duration": 7, "velocity": 91}, {"time": 2910, "pitch": 66, "duration": 4, "velocity": 88}, {"time": 2916, "pitch": 58, "duration": 2, "velocity": 85}, {"time": 2922, "pitch": 61, "duration": 7, "velocity": 102}, {"time": 2922, "pitch": 66, "duration": 7, "velocity": 87}, {"time": 2928, "pitch": 58, "duration": 3, "velocity": 82}, {"time": 2934, "pitch": 49, "duration": 34, "velocity": 88}, {"time": 2934, "pitch": 56, "duration": 11, "velocity": 85}, {"time": 2934, "pitch": 61, "duration": 10, "velocity": 86}, {"time": 2946, "pitch": 61, "duration": 6, "velocity": 93}, {"time": 2946, "pitch": 65, "duration": 6, "velocity": 93}, {"time": 2958, "pitch": 61, "duration": 4, "velocity": 91}, {"time": 2958, "pitch": 65, "duration": 4, "velocity": 93}, {"time": 2964, "pitch": 56, "duration": 3, "velocity": 86}, {"time": 2964, "pitch": 61, "duration": 1, "velocity": 39}, {"time": 2970, "pitch": 56, "duration": 1, "velocity": 70}, {"time": 2970, "pitch": 61, "duration": 7, "velocity": 93}, {"time": 2970, "pitch": 65, "duration": 8, "velocity": 90}, {"time": 2976, "pitch": 56, "duration": 1, "velocity": 81}, {"time": 2982, "pitch": 41, "duration": 38, "velocity": 90}, {"time": 2982, "pitch": 60, "duration": 8, "velocity": 87}, {"time": 2982, "pitch": 65, "duration": 10, "velocity": 93}, {"time": 2994, "pitch": 60, "duration": 4, "velocity": 90}, {"time": 2994, "pitch": 65, "duration": 5, "velocity": 91}, {"time": 2994, "pitch": 69, "duration": 6, "velocity": 89}, {"time": 3006, "pitch": 65, "duration": 3, "velocity": 93}, {"time": 3006, "pitch": 69, "duration": 4, "velocity": 93}, {"time": 3012, "pitch": 60, "duration": 2, "velocity": 91}, {"time": 3018, "pitch": 60, "duration": 1, "velocity": 62}, {"time": 3018, "pitch": 65, "duration": 4, "velocity": 95}, {"time": 3018, "pitch": 69, "duration": 6, "velocity": 97}, {"time": 3024, "pitch": 60, "duration": 2, "velocity": 87}, {"time": 3030, "pitch": 46, "duration": 50, "velocity": 88}, {"time": 3030, "pitch": 58, "duration": 9, "velocity": 85}, {"time": 3030, "pitch": 61, "duration": 8, "velocity": 87}, {"time": 3042, "pitch": 61, "duration": 4, "velocity": 97}, {"time": 3042, "pitch": 65, "duration": 4, "velocity": 100}, {"time": 3054, "pitch": 61, "duration": 8, "velocity": 93}, {"time": 3054, "pitch": 65, "duration": 8, "velocity": 93}, {"time": 3060, "pitch": 58, "duration": 8, "velocity": 88}, {"time": 3066, "pitch": 61, "duration": 13, "velocity": 88}, {"time": 3066, "pitch": 65, "duration": 14, "velocity": 89}, {"time": 3072, "pitch": 58, "duration": 7, "velocity": 81}, {"time": 3074, "pitch": 58, "duration": 5, "velocity": 75}, {"time": 3076, "pitch": 46, "duration": 4, "velocity": 88}, {"time": 3076, "pitch": 61, "duration": 3, "velocity": 82}, {"time": 3077, "pitch": 65, "duration": 3, "velocity": 87}, {"time": 3077, "pitch": 70, "duration": 30, "velocity": 87}, {"time": 3124, "pitch": 53, "duration": 38, "velocity": 84}, {"time": 3125, "pitch": 57, "duration": 37, "velocity": 76}, {"time": 3125, "pitch": 41, "duration": 41, "velocity": 88}, {"time": 3127, "pitch": 60, "duration": 36, "velocity": 72}, {"time": 3171, "pitch": 54, "duration": 39, "velocity": 77}, {"time": 3172, "pitch": 58, "duration": 38, "velocity": 79}, {"time": 3173, "pitch": 42, "duration": 40, "velocity": 85}, {"time": 3173, "pitch": 61, "duration": 37, "velocity": 72}, {"time": 3174, "pitch": 66, "duration": 36, "velocity": 79}, {"time": 3219, "pitch": 53, "duration": 37, "velocity": 76}, {"time": 3220, "pitch": 57, "duration": 36, "velocity": 74}, {"time": 3220, "pitch": 41, "duration": 38, "velocity": 88}, {"time": 3221, "pitch": 60, "duration": 36, "velocity": 73}, {"time": 3222, "pitch": 65, "duration": 37, "velocity": 87}, {"time": 3268, "pitch": 58, "duration": 16, "velocity": 55}, {"time": 3268, "pitch": 61, "duration": 17, "velocity": 82}, {"time": 3269, "pitch": 46, "duration": 36, "velocity": 89}, {"time": 3269, "pitch": 65, "duration": 16, "velocity": 77}, {"time": 3270, "pitch": 70, "duration": 14, "velocity": 77}, {"time": 3281, "pitch": 53, "duration": 22, "velocity": 80}, {"time": 3288, "pitch": 58, "duration": 3, "velocity": 72}, {"time": 3293, "pitch": 61, "duration": 10, "velocity": 84}, {"time": 3293, "pitch": 65, "duration": 10, "velocity": 86}, {"time": 3293, "pitch": 58, "duration": 2, "velocity": 66}, {"time": 3316, "pitch": 53, "duration": 28, "velocity": 77}, {"time": 3317, "pitch": 57, "duration": 32, "velocity": 81}, {"time": 3317, "pitch": 60, "duration": 37, "velocity": 80}, {"time": 3317, "pitch": 41, "duration": 39, "velocity": 91}, {"time": 3341, "pitch": 48, "duration": 15, "velocity": 78}, {"time": 3348, "pitch": 53, "duration": 7, "velocity": 86}, {"time": 3353, "pitch": 57, "duration": 3, "velocity": 88}, {"time": 3363, "pitch": 54, "duration": 22, "velocity": 75}, {"time": 3364, "pitch": 58, "duration": 20, "velocity": 80}, {"time": 3365, "pitch": 42, "duration": 34, "velocity": 87}, {"time": 3365, "pitch": 61, "duration": 20, "velocity": 75}, {"time": 3366, "pitch": 66, "duration": 17, "velocity": 77}, {"time": 3389, "pitch": 58, "duration": 7, "velocity": 70}, {"time": 3389, "pitch": 61, "duration": 7, "velocity": 73}, {"time": 3395, "pitch": 54, "duration": 8, "velocity": 83}, {"time": 3402, "pitch": 58, "duration": 3, "velocity": 77}, {"time": 3413, "pitch": 41, "duration": 48, "velocity": 90}, {"time": 3413, "pitch": 60, "duration": 14, "velocity": 83}, {"time": 3413, "pitch": 57, "duration": 13, "velocity": 76}, {"time": 3414, "pitch": 53, "duration": 8, "velocity": 82}, {"time": 3420, "pitch": 48, "duration": 40, "velocity": 80}, {"time": 3425, "pitch": 53, "duration": 7, "velocity": 76}, {"time": 3431, "pitch": 57, "duration": 3, "velocity": 87}, {"time": 3438, "pitch": 65, "duration": 7, "velocity": 92}, {"time": 3438, "pitch": 60, "duration": 7, "velocity": 92}, {"time": 3438, "pitch": 57, "duration": 5, "velocity": 102}, {"time": 3438, "pitch": 53, "duration": 3, "velocity": 93}, {"time": 3443, "pitch": 53, "duration": 5, "velocity": 86}, {"time": 3449, "pitch": 57, "duration": 10, "velocity": 80}, {"time": 3449, "pitch": 60, "duration": 11, "velocity": 80}, {"time": 3455, "pitch": 53, "duration": 5, "velocity": 78}, {"time": 3458, "pitch": 58, "duration": 18, "velocity": 75}, {"time": 3460, "pitch": 61, "duration": 16, "velocity": 78}, {"time": 3460, "pitch": 46, "duration": 36, "velocity": 87}, {"time": 3461, "pitch": 65, "duration": 15, "velocity": 78}, {"time": 3486, "pitch": 65, "duration": 4, "velocity": 86}, {"time": 3486, "pitch": 58, "duration": 5, "velocity": 76}, {"time": 3498, "pitch": 61, "duration": 2, "velocity": 83}, {"time": 3498, "pitch": 58, "duration": 2, "velocity": 80}, {"time": 3510, "pitch": 41, "duration": 39, "velocity": 88}, {"time": 3510, "pitch": 53, "duration": 14, "velocity": 86}, {"time": 3534, "pitch": 65, "duration": 10, "velocity": 86}, {"time": 3534, "pitch": 53, "duration": 8, "velocity": 81}, {"time": 3546, "pitch": 60, "duration": 2, "velocity": 78}, {"time": 3546, "pitch": 53, "duration": 2, "velocity": 82}, {"time": 3556, "pitch": 51, "duration": 13, "velocity": 75}, {"time": 3557, "pitch": 39, "duration": 33, "velocity": 86}, {"time": 3557, "pitch": 54, "duration": 11, "velocity": 74}, {"time": 3579, "pitch": 51, "duration": 8, "velocity": 69}, {"time": 3580, "pitch": 54, "duration": 8, "velocity": 76}, {"time": 3581, "pitch": 58, "duration": 7, "velocity": 68}, {"time": 3581, "pitch": 63, "duration": 9, "velocity": 81}, {"time": 3605, "pitch": 46, "duration": 45, "velocity": 87}, {"time": 3605, "pitch": 58, "duration": 14, "velocity": 77}, {"time": 3605, "pitch": 61, "duration": 14, "velocity": 78}, {"time": 3628, "pitch": 58, "duration": 3, "velocity": 60}, {"time": 3629, "pitch": 61, "duration": 3, "velocity": 78}, {"time": 3629, "pitch": 65, "duration": 4, "velocity": 85}, {"time": 3651, "pitch": 70, "duration": 11, "velocity": 86}, {"time": 3653, "pitch": 65, "duration": 10, "velocity": 82}, {"time": 3653, "pitch": 61, "duration": 10, "velocity": 81}, {"time": 3653, "pitch": 46, "duration": 38, "velocity": 87}, {"time": 3654, "pitch": 58, "duration": 10, "velocity": 77}, {"time": 3675, "pitch": 58, "duration": 2, "velocity": 59}, {"time": 3677, "pitch": 61, "duration": 2, "velocity": 78}, {"time": 3677, "pitch": 65, "duration": 3, "velocity": 88}, {"time": 3689, "pitch": 61, "duration": 2, "velocity": 80}, {"time": 3689, "pitch": 58, "duration": 2, "velocity": 72}, {"time": 3701, "pitch": 41, "duration": 39, "velocity": 87}, {"time": 3702, "pitch": 53, "duration": 13, "velocity": 75}, {"time": 3702, "pitch": 56, "duration": 13, "velocity": 73}, {"time": 3722, "pitch": 53, "duration": 3, "velocity": 55}, {"time": 3724, "pitch": 56, "duration": 2, "velocity": 75}, {"time": 3725, "pitch": 65, "duration": 3, "velocity": 88}, {"time": 3737, "pitch": 60, "duration": 2, "velocity": 81}, {"time": 3737, "pitch": 53, "duration": 3, "velocity": 80}, {"time": 3748, "pitch": 51, "duration": 25, "velocity": 71}, {"time": 3749, "pitch": 54, "duration": 18, "velocity": 76}, {"time": 3749, "pitch": 39, "duration": 33, "velocity": 86}, {"time": 3771, "pitch": 54, "duration": 3, "velocity": 71}, {"time": 3773, "pitch": 58, "duration": 1, "velocity": 66}, {"time": 3773, "pitch": 63, "duration": 3, "velocity": 86}, {"time": 3794, "pitch": 58, "duration": 17, "velocity": 59}, {"time": 3796, "pitch": 61, "duration": 16, "velocity": 68}, {"time": 3797, "pitch": 46, "duration": 41, "velocity": 87}, {"time": 3798, "pitch": 65, "duration": 13, "velocity": 74}, {"time": 3822, "pitch": 65, "duration": 4, "velocity": 84}, {"time": 3822, "pitch": 58, "duration": 3, "velocity": 74}, {"time": 3833, "pitch": 61, "duration": 4, "velocity": 80}, {"time": 3833, "pitch": 58, "duration": 3, "velocity": 73}, {"time": 3839, "pitch": 58, "duration": 2, "velocity": 68}, {"time": 3842, "pitch": 58, "duration": 36, "velocity": 75}, {"time": 3844, "pitch": 46, "duration": 37, "velocity": 88}, {"time": 3844, "pitch": 61, "duration": 32, "velocity": 82}, {"time": 3845, "pitch": 65, "duration": 31, "velocity": 87}, {"time": 3845, "pitch": 70, "duration": 30, "velocity": 87}, {"time": 3892, "pitch": 53, "duration": 38, "velocity": 84}, {"time": 3893, "pitch": 57, "duration": 37, "velocity": 76}, {"time": 3893, "pitch": 41, "duration": 41, "velocity": 88}, {"time": 3895, "pitch": 60, "duration": 36, "velocity": 72}, {"time": 3939, "pitch": 54, "duration": 39, "velocity": 77}, {"time": 3940, "pitch": 58, "duration": 38, "velocity": 79}, {"time": 3941, "pitch": 42, "duration": 40, "velocity": 85}, {"time": 3941, "pitch": 61, "duration": 37, "velocity": 72}, {"time": 3942, "pitch": 66, "duration": 36, "velocity": 79}, {"time": 3987, "pitch": 53, "duration": 37, "velocity": 76}, {"time": 3988, "pitch": 57, "duration": 36, "velocity": 74}, {"time": 3988, "pitch": 41, "duration": 38, "velocity": 88}, {"time": 3989, "pitch": 60, "duration": 36, "velocity": 73}, {"time": 3990, "pitch": 65, "duration": 37, "velocity": 87}, {"time": 4036, "pitch": 58, "duration": 16, "velocity": 55}, {"time": 4036, "pitch": 61, "duration": 17, "velocity": 82}, {"time": 4037, "pitch": 46, "duration": 36, "velocity": 89}, {"time": 4037, "pitch": 65, "duration": 16, "velocity": 77}, {"time": 4038, "pitch": 70, "duration": 14, "velocity": 77}, {"time": 4049, "pitch": 53, "duration": 22, "velocity": 80}, {"time": 4056, "pitch": 58, "duration": 3, "velocity": 72}, {"time": 4061, "pitch": 61, "duration": 10, "velocity": 84}, {"time": 4061, "pitch": 65, "duration": 10, "velocity": 86}, {"time": 4061, "pitch": 58, "duration": 2, "velocity": 66}, {"time": 4084, "pitch": 53, "duration": 28, "velocity": 77}, {"time": 4085, "pitch": 57, "duration": 32, "velocity": 81}, {"time": 4085, "pitch": 60, "duration": 37, "velocity": 80}, {"time": 4085, "pitch": 41, "duration": 39, "velocity": 91}, {"time": 4109, "pitch": 48, "duration": 15, "velocity": 78}, {"time": 4116, "pitch": 53, "duration": 7, "velocity": 86}, {"time": 4121, "pitch": 57, "duration": 3, "velocity": 88}, {"time": 4131, "pitch": 54, "duration": 22, "velocity": 75}, {"time": 4132, "pitch": 58, "duration": 20, "velocity": 80}, {"time": 4133, "pitch": 42, "duration": 34, "velocity": 87}, {"time": 4133, "pitch": 61, "duration": 20, "velocity": 75}, {"time": 4134, "pitch": 66, "duration": 17, "velocity": 77}, {"time": 4157, "pitch": 58, "duration": 7, "velocity": 70}, {"time": 4157, "pitch": 61, "duration": 7, "velocity": 73}, {"time": 4163, "pitch": 54, "duration": 8, "velocity": 83}, {"time": 4170, "pitch": 58, "duration": 3, "velocity": 77}, {"time": 4181, "pitch": 41, "duration": 48, "velocity": 90}, {"time": 4181, "pitch": 60, "duration": 14, "velocity": 83}, {"time": 4181, "pitch": 57, "duration": 13, "velocity": 76}, {"time": 4182, "pitch": 53, "duration": 8, "velocity": 82}, {"time": 4188, "pitch": 48, "duration": 40, "velocity": 80}, {"time": 4193, "pitch": 53, "duration": 7, "velocity": 76}, {"time": 4199, "pitch": 57, "duration": 3, "velocity": 87}, {"time": 4206, "pitch": 65, "duration": 7, "velocity": 92}, {"time": 4206, "pitch": 60, "duration": 7, "velocity": 92}, {"time": 4206, "pitch": 57, "duration": 5, "velocity": 102}, {"time": 4206, "pitch": 53, "duration": 3, "velocity": 93}, {"time": 4211, "pitch": 53, "duration": 5, "velocity": 86}, {"time": 4217, "pitch": 57, "duration": 10, "velocity": 80}, {"time": 4217, "pitch": 60, "duration": 11, "velocity": 80}, {"time": 4223, "pitch": 53, "duration": 5, "velocity": 78}, {"time": 4228, "pitch": 53, "duration": 60, "velocity": 77}, {"time": 4229, "pitch": 41, "duration": 60, "velocity": 78}, {"time": 4230, "pitch": 57, "duration": 59, "velocity": 71}, {"time": 4233, "pitch": 60, "duration": 56, "velocity": 64}, {"time": 4234, "pitch": 65, "duration": 56, "velocity": 79}], "annotations": [{"time": 8, "annotation": {"number": 64, "value": 127}, "group": "control_change"}, {"time": 51, "annotation": {"number": 64, "value": 0}, "group": "control_change"}, {"time": 70, "annotation": {"number": 64, "value": 127}, "group": "control_change"}, {"time": 101, "annotation": {"number": 64, "value": 0}, "group": "control_change"}, {"time": 112, "annotation": {"number": 64, "value": 127}, "group": "control_change"}, {"time": 143, "annotation": {"number": 64, "value": 0}, "group": "control_change"}, {"time": 150, "annotation": {"number": 64, "value": 127}, "group": "control_change"}, {"time": 193, "annotation": {"number": 64, "value": 0}, "group": "control_change"}, {"time": 200, "annotation": {"number": 64, "value": 127}, "group": "control_change"}, {"time": 243, "annotation": {"number": 64, "value": 0}, "group": "control_change"}, {"time": 262, "annotation": {"number": 64, "value": 127}, "group": "control_change"}, {"time": 293, "annotation": {"number": 64, "value": 0}, "group": "control_change"}, {"time": 304, "annotation": {"number": 64, "value": 127}, "group": "control_change"}, {"time": 335, "annotation": {"number": 64, "value": 0}, "group": "control_change"}, {"time": 342, "annotation": {"number": 64, "value": 127}, "group": "control_change"}, {"time": 385, "annotation": {"number": 64, "value": 0}, "group": "control_change"}, {"time": 1589, "annotation": {"number": 64, "value": 0}, "group": "control_change"}, {"time": 1592, "annotation": {"number": 64, "value": 127}, "group": "control_change"}, {"time": 1637, "annotation": {"number": 64, "value": 0}, "group": "control_change"}, {"time": 1640, "annotation": {"number": 64, "value": 127}, "group": "control_change"}, {"time": 1682, "annotation": {"number": 64, "value": 0}, "group": "control_change"}, {"time": 1691, "annotation": {"number": 64, "value": 127}, "group": "control_change"}, {"time": 1731, "annotation": {"number": 64, "value": 0}, "group": "control_change"}, {"time": 1735, "annotation": {"number": 64, "value": 127}, "group": "control_change"}, {"time": 1780, "annotation": {"number": 64, "value": 0}, "group": "control_change"}, {"time": 1788, "annotation": {"number": 64, "value": 127}, "group": "control_change"}, {"time": 1829, "annotation": {"number": 64, "value": 0}, "group": "control_change"}, {"time": 1832, "annotation": {"number": 64, "value": 127}, "group": "control_change"}, {"time": 1877, "annotation": {"number": 64, "value": 0}, "group": "control_change"}, {"time": 1881, "annotation": {"number": 64, "value": 127}, "group": "control_change"}, {"time": 1906, "annotation": {"number": 64, "value": 0}, "group": "control_change"}, {"time": 1926, "annotation": {"number": 64, "value": 127}, "group": "control_change"}, {"time": 1973, "annotation": {"number": 64, "value": 0}, "group": "control_change"}, {"time": 1978, "annotation": {"number": 64, "value": 127}, "group": "control_change"}, {"time": 2022, "annotation": {"number": 64, "value": 0}, "group": "control_change"}, {"time": 2023, "annotation": {"number": 64, "value": 127}, "group": "control_change"}, {"time": 2023, "annotation": {"number": 64, "value": 0}, "group": "control_change"}, {"time": 2069, "annotation": {"number": 64, "value": 0}, "group": "control_change"}, {"time": 2074, "annotation": {"number": 64, "value": 127}, "group": "control_change"}, {"time": 2113, "annotation": {"number": 64, "value": 0}, "group": "control_change"}, {"time": 2118, "annotation": {"number": 64, "value": 127}, "group": "control_change"}, {"time": 2165, "annotation": {"number": 64, "value": 0}, "group": "control_change"}, {"time": 2170, "annotation": {"number": 64, "value": 127}, "group": "control_change"}, {"time": 2214, "annotation": {"number": 64, "value": 0}, "group": "control_change"}, {"time": 2215, "annotation": {"number": 64, "value": 127}, "group": "control_change"}, {"time": 2215, "annotation": {"number": 64, "value": 0}, "group": "control_change"}, {"time": 2261, "annotation": {"number": 64, "value": 0}, "group": "control_change"}, {"time": 2266, "annotation": {"number": 64, "value": 127}, "group": "control_change"}, {"time": 2305, "annotation": {"number": 64, "value": 0}, "group": "control_change"}, {"time": 2357, "annotation": {"number": 64, "value": 0}, "group": "control_change"}, {"time": 2360, "annotation": {"number": 64, "value": 127}, "group": "control_change"}, {"time": 2405, "annotation": {"number": 64, "value": 0}, "group": "control_change"}, {"time": 2408, "annotation": {"number": 64, "value": 127}, "group": "control_change"}, {"time": 2450, "annotation": {"number": 64, "value": 0}, "group": "control_change"}, {"time": 2459, "annotation": {"number": 64, "value": 127}, "group": "control_change"}, {"time": 2499, "annotation": {"number": 64, "value": 0}, "group": "control_change"}, {"time": 2503, "annotation": {"number": 64, "value": 127}, "group": "control_change"}, {"time": 2548, "annotation": {"number": 64, "value": 0}, "group": "control_change"}, {"time": 2556, "annotation": {"number": 64, "value": 127}, "group": "control_change"}, {"time": 2597, "annotation": {"number": 64, "value": 0}, "group": "control_change"}, {"time": 2600, "annotation": {"number": 64, "value": 127}, "group": "control_change"}, {"time": 2645, "annotation": {"number": 64, "value": 0}, "group": "control_change"}, {"time": 2649, "annotation": {"number": 64, "value": 127}, "group": "control_change"}, {"time": 2674, "annotation": {"number": 64, "value": 0}, "group": "control_change"}, {"time": 2741, "annotation": {"number": 64, "value": 0}, "group": "control_change"}, {"time": 2744, "annotation": {"number": 64, "value": 127}, "group": "control_change"}, {"time": 2789, "annotation": {"number": 64, "value": 0}, "group": "control_change"}, {"time": 2792, "annotation": {"number": 64, "value": 127}, "group": "control_change"}, {"time": 2834, "annotation": {"number": 64, "value": 0}, "group": "control_change"}, {"time": 2843, "annotation": {"number": 64, "value": 127}, "group": "control_change"}, {"time": 2883, "annotation": {"number": 64, "value": 0}, "group": "control_change"}, {"time": 2887, "annotation": {"number": 64, "value": 127}, "group": "control_change"}, {"time": 2932, "annotation": {"number": 64, "value": 0}, "group": "control_change"}, {"time": 2940, "annotation": {"number": 64, "value": 127}, "group": "control_change"}, {"time": 2981, "annotation": {"number": 64, "value": 0}, "group": "control_change"}, {"time": 2984, "annotation": {"number": 64, "value": 127}, "group": "control_change"}, {"time": 3029, "annotation": {"number": 64, "value": 0}, "group": "control_change"}, {"time": 3033, "annotation": {"number": 64, "value": 127}, "group": "control_change"}, {"time": 3058, "annotation": {"number": 64, "value": 0}, "group": "control_change"}, {"time": 3103, "annotation": {"number": 64, "value": 127}, "group": "control_change"}, {"time": 3125, "annotation": {"number": 64, "value": 0}, "group": "control_change"}, {"time": 3153, "annotation": {"number": 64, "value": 127}, "group": "control_change"}, {"time": 3173, "annotation": {"number": 64, "value": 0}, "group": "control_change"}, {"time": 3203, "annotation": {"number": 64, "value": 127}, "group": "control_change"}, {"time": 3204, "annotation": {"number": 64, "value": 0}, "group": "control_change"}, {"time": 3204, "annotation": {"number": 64, "value": 127}, "group": "control_change"}, {"time": 3221, "annotation": {"number": 64, "value": 0}, "group": "control_change"}, {"time": 3254, "annotation": {"number": 64, "value": 127}, "group": "control_change"}, {"time": 3255, "annotation": {"number": 64, "value": 0}, "group": "control_change"}, {"time": 3255, "annotation": {"number": 64, "value": 127}, "group": "control_change"}, {"time": 3268, "annotation": {"number": 64, "value": 0}, "group": "control_change"}, {"time": 3281, "annotation": {"number": 64, "value": 127}, "group": "control_change"}, {"time": 3318, "annotation": {"number": 64, "value": 0}, "group": "control_change"}, {"time": 3337, "annotation": {"number": 64, "value": 127}, "group": "control_change"}, {"time": 3364, "annotation": {"number": 64, "value": 0}, "group": "control_change"}, {"time": 3377, "annotation": {"number": 64, "value": 127}, "group": "control_change"}, {"time": 3412, "annotation": {"number": 64, "value": 0}, "group": "control_change"}, {"time": 3421, "annotation": {"number": 64, "value": 127}, "group": "control_change"}, {"time": 3458, "annotation": {"number": 64, "value": 0}, "group": "control_change"}, {"time": 3464, "annotation": {"number": 64, "value": 127}, "group": "control_change"}, {"time": 3509, "annotation": {"number": 64, "value": 0}, "group": "control_change"}, {"time": 3518, "annotation": {"number": 64, "value": 127}, "group": "control_change"}, {"time": 3556, "annotation": {"number": 64, "value": 0}, "group": "control_change"}, {"time": 3560, "annotation": {"number": 64, "value": 127}, "group": "control_change"}, {"time": 3606, "annotation": {"number": 64, "value": 0}, "group": "control_change"}, {"time": 3612, "annotation": {"number": 64, "value": 127}, "group": "control_change"}, {"time": 3649, "annotation": {"number": 64, "value": 0}, "group": "control_change"}, {"time": 3656, "annotation": {"number": 64, "value": 127}, "group": "control_change"}, {"time": 3702, "annotation": {"number": 64, "value": 0}, "group": "control_change"}, {"time": 3708, "annotation": {"number": 64, "value": 127}, "group": "control_change"}, {"time": 3747, "annotation": {"number": 64, "value": 0}, "group": "control_change"}, {"time": 3760, "annotation": {"number": 64, "value": 127}, "group": "control_change"}, {"time": 3794, "annotation": {"number": 64, "value": 0}, "group": "control_change"}, {"time": 3803, "annotation": {"number": 64, "value": 127}, "group": "control_change"}, {"time": 3844, "annotation": {"number": 64, "value": 0}, "group": "control_change"}, {"time": 3871, "annotation": {"number": 64, "value": 127}, "group": "control_change"}, {"time": 3893, "annotation": {"number": 64, "value": 0}, "group": "control_change"}, {"time": 3921, "annotation": {"number": 64, "value": 127}, "group": "control_change"}, {"time": 3941, "annotation": {"number": 64, "value": 0}, "group": "control_change"}, {"time": 3971, "annotation": {"number": 64, "value": 127}, "group": "control_change"}, {"time": 3972, "annotation": {"number": 64, "value": 0}, "group": "control_change"}, {"time": 3972, "annotation": {"number": 64, "value": 127}, "group": "control_change"}, {"time": 3989, "annotation": {"number": 64, "value": 0}, "group": "control_change"}, {"time": 4022, "annotation": {"number": 64, "value": 127}, "group": "control_change"}, {"time": 4023, "annotation": {"number": 64, "value": 0}, "group": "control_change"}, {"time": 4023, "annotation": {"number": 64, "value": 127}, "group": "control_change"}, {"time": 4036, "annotation": {"number": 64, "value": 0}, "group": "control_change"}, {"time": 4049, "annotation": {"number": 64, "value": 127}, "group": "control_change"}, {"time": 4086, "annotation": {"number": 64, "value": 0}, "group": "control_change"}, {"time": 4105, "annotation": {"number": 64, "value": 127}, "group": "control_change"}, {"time": 4132, "annotation": {"number": 64, "value": 0}, "group": "control_change"}, {"time": 4145, "annotation": {"number": 64, "value": 127}, "group": "control_change"}, {"time": 4180, "annotation": {"number": 64, "value": 0}, "group": "control_change"}, {"time": 4189, "annotation": {"number": 64, "value": 127}, "group": "control_change"}, {"time": 4226, "annotation": {"number": 64, "value": 0}, "group": "control_change"}]}]}