{"metadata": {"schema_version": "0.2", "title": "None", "source_filename": "503.mid", "source_format": "midi"}, "resolution": 12, "tempos": [{"time": 0, "qpm": 63.000063000063}, {"time": 1140, "qpm": 63.50005979588964}, {"time": 1200, "qpm": 62.99000978444818}, {"time": 1596, "qpm": 62.25002723438691}, {"time": 1644, "qpm": 62.99000978444818}, {"time": 1956, "qpm": 63.25004005835871}, {"time": 2152, "qpm": 62.99000978444818}], "time_signatures": [{"time": 0, "numerator": 1, "denominator": 4}], "tracks": [{"program": 4, "is_drum": false, "name": "MELODY", "notes": [{"time": 432, "pitch": 65, "duration": 2, "velocity": 94}, {"time": 435, "pitch": 70, "duration": 4, "velocity": 101}, {"time": 441, "pitch": 72, "duration": 2, "velocity": 92}, {"time": 444, "pitch": 74, "duration": 7, "velocity": 97}, {"time": 453, "pitch": 65, "duration": 10, "velocity": 92}, {"time": 465, "pitch": 74, "duration": 4, "velocity": 99}, {"time": 471, "pitch": 72, "duration": 6, "velocity": 96}, {"time": 477, "pitch": 72, "duration": 4, "velocity": 94}, {"time": 483, "pitch": 72, "duration": 3, "velocity": 96}, {"time": 486, "pitch": 69, "duration": 4, "velocity": 97}, {"time": 492, "pitch": 67, "duration": 3, "velocity": 90}, {"time": 495, "pitch": 65, "duration": 13, "velocity": 93}, {"time": 519, "pitch": 62, "duration": 5, "velocity": 96}, {"time": 525, "pitch": 70, "duration": 4, "velocity": 91}, {"time": 531, "pitch": 70, "duration": 2, "velocity": 94}, {"time": 534, "pitch": 69, "duration": 4, "velocity": 91}, {"time": 540, "pitch": 70, "duration": 9, "velocity": 93}, {"time": 549, "pitch": 70, "duration": 4, "velocity": 95}, {"time": 555, "pitch": 72, "duration": 4, "velocity": 85}, {"time": 561, "pitch": 70, "duration": 4, "velocity": 96}, {"time": 567, "pitch": 69, "duration": 4, "velocity": 95}, {"time": 576, "pitch": 69, "duration": 1, "velocity": 94}, {"time": 579, "pitch": 69, "duration": 4, "velocity": 95}, {"time": 585, "pitch": 62, "duration": 2, "velocity": 92}, {"time": 588, "pitch": 65, "duration": 16, "velocity": 93}, {"time": 612, "pitch": 70, "duration": 2, "velocity": 91}, {"time": 615, "pitch": 77, "duration": 4, "velocity": 93}, {"time": 621, "pitch": 70, "duration": 4, "velocity": 97}, {"time": 627, "pitch": 70, "duration": 4, "velocity": 96}, {"time": 633, "pitch": 69, "duration": 2, "velocity": 91}, {"time": 636, "pitch": 70, "duration": 15, "velocity": 92}, {"time": 657, "pitch": 67, "duration": 5, "velocity": 91}, {"time": 663, "pitch": 65, "duration": 4, "velocity": 93}, {"time": 669, "pitch": 65, "duration": 4, "velocity": 96}, {"time": 675, "pitch": 65, "duration": 2, "velocity": 94}, {"time": 678, "pitch": 74, "duration": 4, "velocity": 101}, {"time": 684, "pitch": 74, "duration": 15, "velocity": 99}, {"time": 705, "pitch": 74, "duration": 4, "velocity": 99}, {"time": 711, "pitch": 75, "duration": 4, "velocity": 92}, {"time": 717, "pitch": 74, "duration": 3, "velocity": 92}, {"time": 723, "pitch": 67, "duration": 4, "velocity": 94}, {"time": 729, "pitch": 70, "duration": 4, "velocity": 93}, {"time": 735, "pitch": 70, "duration": 6, "velocity": 94}, {"time": 741, "pitch": 67, "duration": 4, "velocity": 94}, {"time": 747, "pitch": 70, "duration": 9, "velocity": 92}, {"time": 759, "pitch": 70, "duration": 4, "velocity": 94}, {"time": 765, "pitch": 65, "duration": 19, "velocity": 94}, {"time": 816, "pitch": 65, "duration": 2, "velocity": 94}, {"time": 819, "pitch": 70, "duration": 4, "velocity": 101}, {"time": 825, "pitch": 72, "duration": 2, "velocity": 92}, {"time": 828, "pitch": 74, "duration": 7, "velocity": 97}, {"time": 837, "pitch": 65, "duration": 10, "velocity": 92}, {"time": 849, "pitch": 74, "duration": 4, "velocity": 99}, {"time": 855, "pitch": 72, "duration": 6, "velocity": 96}, {"time": 861, "pitch": 72, "duration": 4, "velocity": 94}, {"time": 867, "pitch": 72, "duration": 3, "velocity": 96}, {"time": 870, "pitch": 69, "duration": 4, "velocity": 97}, {"time": 876, "pitch": 67, "duration": 3, "velocity": 90}, {"time": 879, "pitch": 65, "duration": 13, "velocity": 93}, {"time": 903, "pitch": 62, "duration": 5, "velocity": 96}, {"time": 909, "pitch": 62, "duration": 4, "velocity": 91}, {"time": 915, "pitch": 62, "duration": 2, "velocity": 94}, {"time": 918, "pitch": 70, "duration": 4, "velocity": 91}, {"time": 924, "pitch": 70, "duration": 9, "velocity": 93}, {"time": 933, "pitch": 70, "duration": 4, "velocity": 95}, {"time": 939, "pitch": 72, "duration": 4, "velocity": 85}, {"time": 945, "pitch": 70, "duration": 4, "velocity": 96}, {"time": 951, "pitch": 69, "duration": 4, "velocity": 95}, {"time": 960, "pitch": 69, "duration": 1, "velocity": 94}, {"time": 963, "pitch": 69, "duration": 4, "velocity": 95}, {"time": 969, "pitch": 62, "duration": 2, "velocity": 92}, {"time": 972, "pitch": 65, "duration": 16, "velocity": 93}, {"time": 996, "pitch": 70, "duration": 2, "velocity": 91}, {"time": 999, "pitch": 77, "duration": 4, "velocity": 93}, {"time": 1005, "pitch": 70, "duration": 4, "velocity": 97}, {"time": 1011, "pitch": 70, "duration": 4, "velocity": 96}, {"time": 1017, "pitch": 69, "duration": 2, "velocity": 91}, {"time": 1020, "pitch": 70, "duration": 15, "velocity": 92}, {"time": 1041, "pitch": 67, "duration": 5, "velocity": 91}, {"time": 1047, "pitch": 65, "duration": 4, "velocity": 93}, {"time": 1053, "pitch": 65, "duration": 4, "velocity": 96}, {"time": 1059, "pitch": 65, "duration": 2, "velocity": 94}, {"time": 1062, "pitch": 74, "duration": 4, "velocity": 101}, {"time": 1068, "pitch": 74, "duration": 15, "velocity": 99}, {"time": 1089, "pitch": 74, "duration": 4, "velocity": 99}, {"time": 1095, "pitch": 75, "duration": 4, "velocity": 92}, {"time": 1101, "pitch": 74, "duration": 3, "velocity": 92}, {"time": 1107, "pitch": 67, "duration": 4, "velocity": 94}, {"time": 1113, "pitch": 70, "duration": 4, "velocity": 93}, {"time": 1119, "pitch": 70, "duration": 6, "velocity": 94}, {"time": 1125, "pitch": 67, "duration": 4, "velocity": 94}, {"time": 1131, "pitch": 74, "duration": 9, "velocity": 92}, {"time": 1143, "pitch": 72, "duration": 24, "velocity": 94}, {"time": 1173, "pitch": 65, "duration": 4, "velocity": 99}, {"time": 1179, "pitch": 77, "duration": 4, "velocity": 92}, {"time": 1185, "pitch": 75, "duration": 2, "velocity": 99}, {"time": 1188, "pitch": 74, "duration": 10, "velocity": 101}, {"time": 1200, "pitch": 74, "duration": 1, "velocity": 96}, {"time": 1203, "pitch": 74, "duration": 1, "velocity": 101}, {"time": 1206, "pitch": 74, "duration": 3, "velocity": 81}, {"time": 1209, "pitch": 75, "duration": 1, "velocity": 96}, {"time": 1212, "pitch": 72, "duration": 8, "velocity": 94}, {"time": 1221, "pitch": 72, "duration": 1, "velocity": 96}, {"time": 1224, "pitch": 72, "duration": 1, "velocity": 92}, {"time": 1227, "pitch": 72, "duration": 1, "velocity": 95}, {"time": 1230, "pitch": 74, "duration": 5, "velocity": 106}, {"time": 1236, "pitch": 72, "duration": 1, "velocity": 94}, {"time": 1239, "pitch": 72, "duration": 5, "velocity": 94}, {"time": 1245, "pitch": 70, "duration": 1, "velocity": 99}, {"time": 1248, "pitch": 70, "duration": 1, "velocity": 91}, {"time": 1251, "pitch": 70, "duration": 2, "velocity": 96}, {"time": 1254, "pitch": 72, "duration": 2, "velocity": 92}, {"time": 1260, "pitch": 74, "duration": 8, "velocity": 92}, {"time": 1269, "pitch": 74, "duration": 4, "velocity": 97}, {"time": 1275, "pitch": 74, "duration": 1, "velocity": 93}, {"time": 1278, "pitch": 74, "duration": 4, "velocity": 101}, {"time": 1284, "pitch": 69, "duration": 2, "velocity": 92}, {"time": 1287, "pitch": 67, "duration": 4, "velocity": 92}, {"time": 1293, "pitch": 67, "duration": 1, "velocity": 91}, {"time": 1296, "pitch": 67, "duration": 1, "velocity": 92}, {"time": 1299, "pitch": 67, "duration": 1, "velocity": 92}, {"time": 1302, "pitch": 67, "duration": 2, "velocity": 92}, {"time": 1305, "pitch": 77, "duration": 2, "velocity": 94}, {"time": 1308, "pitch": 70, "duration": 5, "velocity": 91}, {"time": 1317, "pitch": 70, "duration": 1, "velocity": 93}, {"time": 1320, "pitch": 70, "duration": 1, "velocity": 92}, {"time": 1323, "pitch": 70, "duration": 1, "velocity": 93}, {"time": 1326, "pitch": 70, "duration": 6, "velocity": 97}, {"time": 1332, "pitch": 67, "duration": 1, "velocity": 92}, {"time": 1335, "pitch": 70, "duration": 3, "velocity": 97}, {"time": 1341, "pitch": 70, "duration": 1, "velocity": 94}, {"time": 1344, "pitch": 70, "duration": 4, "velocity": 92}, {"time": 1350, "pitch": 70, "duration": 2, "velocity": 95}, {"time": 1353, "pitch": 72, "duration": 1, "velocity": 90}, {"time": 1356, "pitch": 72, "duration": 7, "velocity": 95}, {"time": 1365, "pitch": 65, "duration": 4, "velocity": 99}, {"time": 1371, "pitch": 77, "duration": 4, "velocity": 92}, {"time": 1377, "pitch": 75, "duration": 2, "velocity": 99}, {"time": 1380, "pitch": 74, "duration": 10, "velocity": 101}, {"time": 1392, "pitch": 74, "duration": 1, "velocity": 96}, {"time": 1395, "pitch": 74, "duration": 1, "velocity": 101}, {"time": 1398, "pitch": 74, "duration": 3, "velocity": 81}, {"time": 1401, "pitch": 75, "duration": 1, "velocity": 96}, {"time": 1404, "pitch": 72, "duration": 8, "velocity": 94}, {"time": 1413, "pitch": 72, "duration": 1, "velocity": 96}, {"time": 1416, "pitch": 72, "duration": 1, "velocity": 92}, {"time": 1419, "pitch": 72, "duration": 1, "velocity": 95}, {"time": 1422, "pitch": 74, "duration": 5, "velocity": 106}, {"time": 1428, "pitch": 72, "duration": 1, "velocity": 94}, {"time": 1431, "pitch": 72, "duration": 5, "velocity": 94}, {"time": 1437, "pitch": 70, "duration": 1, "velocity": 99}, {"time": 1440, "pitch": 70, "duration": 1, "velocity": 91}, {"time": 1443, "pitch": 70, "duration": 2, "velocity": 96}, {"time": 1446, "pitch": 79, "duration": 6, "velocity": 92}, {"time": 1452, "pitch": 77, "duration": 18, "velocity": 92}, {"time": 1476, "pitch": 70, "duration": 2, "velocity": 92}, {"time": 1479, "pitch": 67, "duration": 2, "velocity": 94}, {"time": 1482, "pitch": 70, "duration": 4, "velocity": 92}, {"time": 1488, "pitch": 75, "duration": 4, "velocity": 94}, {"time": 1494, "pitch": 79, "duration": 6, "velocity": 96}, {"time": 1500, "pitch": 77, "duration": 5, "velocity": 91}, {"time": 1506, "pitch": 74, "duration": 4, "velocity": 97}, {"time": 1512, "pitch": 72, "duration": 3, "velocity": 91}, {"time": 1515, "pitch": 70, "duration": 6, "velocity": 91}, {"time": 1524, "pitch": 67, "duration": 2, "velocity": 91}, {"time": 1527, "pitch": 70, "duration": 4, "velocity": 92}, {"time": 1533, "pitch": 70, "duration": 2, "velocity": 96}, {"time": 1536, "pitch": 70, "duration": 5, "velocity": 94}, {"time": 1542, "pitch": 72, "duration": 4, "velocity": 94}, {"time": 1548, "pitch": 72, "duration": 6, "velocity": 97}, {"time": 1557, "pitch": 72, "duration": 1, "velocity": 92}, {"time": 1560, "pitch": 72, "duration": 1, "velocity": 93}, {"time": 1563, "pitch": 72, "duration": 4, "velocity": 96}, {"time": 1569, "pitch": 65, "duration": 5, "velocity": 97}, {"time": 1575, "pitch": 72, "duration": 8, "velocity": 94}, {"time": 1584, "pitch": 70, "duration": 36, "velocity": 91}, {"time": 1632, "pitch": 65, "duration": 2, "velocity": 94}, {"time": 1635, "pitch": 70, "duration": 4, "velocity": 101}, {"time": 1641, "pitch": 72, "duration": 2, "velocity": 92}, {"time": 1644, "pitch": 74, "duration": 7, "velocity": 97}, {"time": 1653, "pitch": 65, "duration": 10, "velocity": 92}, {"time": 1665, "pitch": 74, "duration": 4, "velocity": 99}, {"time": 1671, "pitch": 72, "duration": 6, "velocity": 96}, {"time": 1677, "pitch": 72, "duration": 4, "velocity": 94}, {"time": 1683, "pitch": 72, "duration": 3, "velocity": 96}, {"time": 1686, "pitch": 69, "duration": 4, "velocity": 97}, {"time": 1692, "pitch": 67, "duration": 3, "velocity": 90}, {"time": 1695, "pitch": 65, "duration": 13, "velocity": 93}, {"time": 1719, "pitch": 62, "duration": 5, "velocity": 96}, {"time": 1725, "pitch": 62, "duration": 4, "velocity": 91}, {"time": 1731, "pitch": 62, "duration": 2, "velocity": 94}, {"time": 1734, "pitch": 70, "duration": 4, "velocity": 91}, {"time": 1740, "pitch": 70, "duration": 9, "velocity": 93}, {"time": 1749, "pitch": 70, "duration": 4, "velocity": 95}, {"time": 1755, "pitch": 72, "duration": 4, "velocity": 85}, {"time": 1761, "pitch": 70, "duration": 4, "velocity": 96}, {"time": 1767, "pitch": 69, "duration": 4, "velocity": 95}, {"time": 1776, "pitch": 69, "duration": 1, "velocity": 94}, {"time": 1779, "pitch": 69, "duration": 4, "velocity": 95}, {"time": 1785, "pitch": 62, "duration": 2, "velocity": 92}, {"time": 1788, "pitch": 65, "duration": 16, "velocity": 93}, {"time": 1812, "pitch": 70, "duration": 2, "velocity": 91}, {"time": 1815, "pitch": 77, "duration": 4, "velocity": 93}, {"time": 1821, "pitch": 70, "duration": 4, "velocity": 97}, {"time": 1827, "pitch": 70, "duration": 4, "velocity": 96}, {"time": 1833, "pitch": 69, "duration": 2, "velocity": 91}, {"time": 1836, "pitch": 70, "duration": 15, "velocity": 92}, {"time": 1857, "pitch": 67, "duration": 5, "velocity": 91}, {"time": 1863, "pitch": 65, "duration": 4, "velocity": 93}, {"time": 1869, "pitch": 65, "duration": 4, "velocity": 96}, {"time": 1875, "pitch": 65, "duration": 2, "velocity": 94}, {"time": 1878, "pitch": 74, "duration": 4, "velocity": 101}, {"time": 1884, "pitch": 74, "duration": 15, "velocity": 99}, {"time": 1905, "pitch": 74, "duration": 4, "velocity": 99}, {"time": 1911, "pitch": 75, "duration": 4, "velocity": 92}, {"time": 1917, "pitch": 74, "duration": 3, "velocity": 92}, {"time": 1923, "pitch": 67, "duration": 4, "velocity": 94}, {"time": 1929, "pitch": 70, "duration": 4, "velocity": 93}, {"time": 1935, "pitch": 70, "duration": 6, "velocity": 94}, {"time": 1941, "pitch": 67, "duration": 4, "velocity": 94}, {"time": 1947, "pitch": 74, "duration": 9, "velocity": 92}, {"time": 1959, "pitch": 72, "duration": 24, "velocity": 94}, {"time": 1989, "pitch": 65, "duration": 4, "velocity": 99}, {"time": 1995, "pitch": 77, "duration": 4, "velocity": 92}, {"time": 2001, "pitch": 75, "duration": 2, "velocity": 99}, {"time": 2004, "pitch": 74, "duration": 10, "velocity": 101}, {"time": 2016, "pitch": 74, "duration": 1, "velocity": 96}, {"time": 2019, "pitch": 74, "duration": 1, "velocity": 101}, {"time": 2022, "pitch": 74, "duration": 3, "velocity": 81}, {"time": 2025, "pitch": 75, "duration": 1, "velocity": 96}, {"time": 2028, "pitch": 72, "duration": 8, "velocity": 94}, {"time": 2037, "pitch": 72, "duration": 1, "velocity": 96}, {"time": 2040, "pitch": 72, "duration": 1, "velocity": 92}, {"time": 2043, "pitch": 72, "duration": 1, "velocity": 95}, {"time": 2046, "pitch": 74, "duration": 5, "velocity": 106}, {"time": 2052, "pitch": 72, "duration": 1, "velocity": 94}, {"time": 2055, "pitch": 72, "duration": 5, "velocity": 94}, {"time": 2061, "pitch": 70, "duration": 1, "velocity": 99}, {"time": 2064, "pitch": 70, "duration": 1, "velocity": 91}, {"time": 2067, "pitch": 70, "duration": 2, "velocity": 96}, {"time": 2070, "pitch": 72, "duration": 2, "velocity": 92}, {"time": 2076, "pitch": 74, "duration": 8, "velocity": 92}, {"time": 2085, "pitch": 74, "duration": 4, "velocity": 97}, {"time": 2091, "pitch": 74, "duration": 1, "velocity": 93}, {"time": 2094, "pitch": 74, "duration": 4, "velocity": 101}, {"time": 2100, "pitch": 69, "duration": 2, "velocity": 92}, {"time": 2103, "pitch": 67, "duration": 4, "velocity": 92}, {"time": 2109, "pitch": 67, "duration": 1, "velocity": 91}, {"time": 2112, "pitch": 67, "duration": 1, "velocity": 92}, {"time": 2115, "pitch": 67, "duration": 1, "velocity": 92}, {"time": 2118, "pitch": 67, "duration": 2, "velocity": 92}, {"time": 2121, "pitch": 77, "duration": 2, "velocity": 94}, {"time": 2124, "pitch": 70, "duration": 5, "velocity": 91}, {"time": 2133, "pitch": 70, "duration": 1, "velocity": 93}, {"time": 2136, "pitch": 70, "duration": 1, "velocity": 92}, {"time": 2139, "pitch": 70, "duration": 1, "velocity": 93}, {"time": 2142, "pitch": 70, "duration": 6, "velocity": 97}, {"time": 2148, "pitch": 67, "duration": 1, "velocity": 92}, {"time": 2151, "pitch": 70, "duration": 3, "velocity": 97}, {"time": 2157, "pitch": 70, "duration": 1, "velocity": 94}, {"time": 2160, "pitch": 70, "duration": 4, "velocity": 92}, {"time": 2166, "pitch": 70, "duration": 2, "velocity": 95}, {"time": 2169, "pitch": 72, "duration": 1, "velocity": 90}, {"time": 2172, "pitch": 72, "duration": 7, "velocity": 95}, {"time": 2181, "pitch": 65, "duration": 4, "velocity": 99}, {"time": 2187, "pitch": 77, "duration": 4, "velocity": 92}, {"time": 2193, "pitch": 75, "duration": 2, "velocity": 99}, {"time": 2196, "pitch": 74, "duration": 10, "velocity": 101}, {"time": 2208, "pitch": 74, "duration": 1, "velocity": 96}, {"time": 2211, "pitch": 74, "duration": 1, "velocity": 101}, {"time": 2214, "pitch": 74, "duration": 3, "velocity": 81}, {"time": 2217, "pitch": 75, "duration": 1, "velocity": 96}, {"time": 2220, "pitch": 72, "duration": 8, "velocity": 94}, {"time": 2229, "pitch": 72, "duration": 1, "velocity": 96}, {"time": 2232, "pitch": 72, "duration": 1, "velocity": 92}, {"time": 2235, "pitch": 72, "duration": 1, "velocity": 95}, {"time": 2238, "pitch": 74, "duration": 5, "velocity": 106}, {"time": 2244, "pitch": 72, "duration": 1, "velocity": 94}, {"time": 2247, "pitch": 72, "duration": 5, "velocity": 94}, {"time": 2253, "pitch": 70, "duration": 1, "velocity": 99}, {"time": 2256, "pitch": 70, "duration": 1, "velocity": 91}, {"time": 2259, "pitch": 70, "duration": 2, "velocity": 96}, {"time": 2262, "pitch": 79, "duration": 6, "velocity": 92}, {"time": 2268, "pitch": 77, "duration": 18, "velocity": 92}, {"time": 2292, "pitch": 70, "duration": 2, "velocity": 92}, {"time": 2295, "pitch": 67, "duration": 2, "velocity": 94}, {"time": 2298, "pitch": 70, "duration": 4, "velocity": 92}, {"time": 2304, "pitch": 75, "duration": 4, "velocity": 94}, {"time": 2310, "pitch": 79, "duration": 6, "velocity": 96}, {"time": 2316, "pitch": 77, "duration": 5, "velocity": 91}, {"time": 2322, "pitch": 74, "duration": 4, "velocity": 97}, {"time": 2328, "pitch": 72, "duration": 3, "velocity": 91}, {"time": 2331, "pitch": 70, "duration": 6, "velocity": 91}, {"time": 2340, "pitch": 67, "duration": 2, "velocity": 91}, {"time": 2343, "pitch": 70, "duration": 4, "velocity": 92}, {"time": 2349, "pitch": 70, "duration": 2, "velocity": 96}, {"time": 2352, "pitch": 70, "duration": 5, "velocity": 94}, {"time": 2373, "pitch": 66, "duration": 4, "velocity": 99}, {"time": 2379, "pitch": 78, "duration": 4, "velocity": 92}, {"time": 2385, "pitch": 76, "duration": 2, "velocity": 99}, {"time": 2388, "pitch": 75, "duration": 10, "velocity": 101}, {"time": 2400, "pitch": 75, "duration": 1, "velocity": 96}, {"time": 2403, "pitch": 75, "duration": 1, "velocity": 101}, {"time": 2406, "pitch": 75, "duration": 3, "velocity": 81}, {"time": 2409, "pitch": 76, "duration": 1, "velocity": 96}, {"time": 2412, "pitch": 73, "duration": 8, "velocity": 94}, {"time": 2421, "pitch": 73, "duration": 1, "velocity": 96}, {"time": 2424, "pitch": 73, "duration": 1, "velocity": 92}, {"time": 2427, "pitch": 73, "duration": 1, "velocity": 95}, {"time": 2430, "pitch": 75, "duration": 5, "velocity": 106}, {"time": 2436, "pitch": 73, "duration": 1, "velocity": 94}, {"time": 2439, "pitch": 73, "duration": 5, "velocity": 94}, {"time": 2445, "pitch": 71, "duration": 1, "velocity": 99}, {"time": 2448, "pitch": 71, "duration": 1, "velocity": 91}, {"time": 2451, "pitch": 71, "duration": 2, "velocity": 96}, {"time": 2454, "pitch": 73, "duration": 2, "velocity": 92}, {"time": 2460, "pitch": 75, "duration": 8, "velocity": 92}, {"time": 2469, "pitch": 75, "duration": 4, "velocity": 97}, {"time": 2475, "pitch": 75, "duration": 1, "velocity": 93}, {"time": 2478, "pitch": 75, "duration": 4, "velocity": 101}, {"time": 2484, "pitch": 70, "duration": 2, "velocity": 92}, {"time": 2487, "pitch": 68, "duration": 4, "velocity": 92}, {"time": 2493, "pitch": 68, "duration": 1, "velocity": 91}, {"time": 2496, "pitch": 68, "duration": 1, "velocity": 92}, {"time": 2499, "pitch": 68, "duration": 1, "velocity": 92}, {"time": 2502, "pitch": 68, "duration": 2, "velocity": 92}, {"time": 2505, "pitch": 78, "duration": 2, "velocity": 94}, {"time": 2508, "pitch": 71, "duration": 5, "velocity": 91}, {"time": 2517, "pitch": 71, "duration": 1, "velocity": 93}, {"time": 2520, "pitch": 71, "duration": 1, "velocity": 92}, {"time": 2523, "pitch": 71, "duration": 1, "velocity": 93}, {"time": 2526, "pitch": 71, "duration": 6, "velocity": 97}, {"time": 2532, "pitch": 68, "duration": 1, "velocity": 92}, {"time": 2535, "pitch": 71, "duration": 3, "velocity": 97}, {"time": 2541, "pitch": 71, "duration": 1, "velocity": 94}, {"time": 2544, "pitch": 71, "duration": 4, "velocity": 92}, {"time": 2550, "pitch": 71, "duration": 2, "velocity": 95}, {"time": 2553, "pitch": 73, "duration": 1, "velocity": 90}, {"time": 2556, "pitch": 73, "duration": 7, "velocity": 95}, {"time": 2565, "pitch": 66, "duration": 4, "velocity": 99}, {"time": 2571, "pitch": 78, "duration": 4, "velocity": 92}, {"time": 2577, "pitch": 76, "duration": 2, "velocity": 99}, {"time": 2580, "pitch": 75, "duration": 10, "velocity": 101}, {"time": 2592, "pitch": 75, "duration": 1, "velocity": 96}, {"time": 2595, "pitch": 75, "duration": 1, "velocity": 101}, {"time": 2598, "pitch": 75, "duration": 3, "velocity": 81}, {"time": 2601, "pitch": 76, "duration": 1, "velocity": 96}, {"time": 2604, "pitch": 73, "duration": 8, "velocity": 94}, {"time": 2613, "pitch": 73, "duration": 1, "velocity": 96}, {"time": 2616, "pitch": 73, "duration": 1, "velocity": 92}, {"time": 2619, "pitch": 73, "duration": 1, "velocity": 95}, {"time": 2622, "pitch": 75, "duration": 5, "velocity": 106}, {"time": 2628, "pitch": 73, "duration": 1, "velocity": 94}, {"time": 2631, "pitch": 73, "duration": 5, "velocity": 94}, {"time": 2637, "pitch": 71, "duration": 1, "velocity": 99}, {"time": 2640, "pitch": 71, "duration": 1, "velocity": 91}, {"time": 2643, "pitch": 71, "duration": 2, "velocity": 96}, {"time": 2646, "pitch": 80, "duration": 6, "velocity": 92}, {"time": 2652, "pitch": 78, "duration": 18, "velocity": 92}, {"time": 2676, "pitch": 71, "duration": 2, "velocity": 92}, {"time": 2679, "pitch": 68, "duration": 2, "velocity": 94}, {"time": 2682, "pitch": 71, "duration": 4, "velocity": 92}, {"time": 2688, "pitch": 76, "duration": 4, "velocity": 94}, {"time": 2694, "pitch": 80, "duration": 6, "velocity": 96}, {"time": 2700, "pitch": 78, "duration": 5, "velocity": 91}, {"time": 2706, "pitch": 75, "duration": 4, "velocity": 97}, {"time": 2712, "pitch": 73, "duration": 3, "velocity": 91}, {"time": 2715, "pitch": 71, "duration": 6, "velocity": 91}, {"time": 2724, "pitch": 68, "duration": 2, "velocity": 91}, {"time": 2727, "pitch": 71, "duration": 4, "velocity": 92}, {"time": 2733, "pitch": 71, "duration": 2, "velocity": 96}, {"time": 2736, "pitch": 71, "duration": 5, "velocity": 94}, {"time": 2742, "pitch": 73, "duration": 4, "velocity": 94}, {"time": 2748, "pitch": 73, "duration": 6, "velocity": 97}, {"time": 2757, "pitch": 73, "duration": 1, "velocity": 92}, {"time": 2760, "pitch": 73, "duration": 1, "velocity": 93}, {"time": 2763, "pitch": 73, "duration": 4, "velocity": 96}, {"time": 2769, "pitch": 66, "duration": 5, "velocity": 97}, {"time": 2775, "pitch": 73, "duration": 8, "velocity": 94}, {"time": 2784, "pitch": 71, "duration": 36, "velocity": 91}]}, {"program": 0, "is_drum": false, "name": "PIANO", "notes": [{"time": 39, "pitch": 46, "duration": 22, "velocity": 91}, {"time": 42, "pitch": 53, "duration": 20, "velocity": 67}, {"time": 45, "pitch": 58, "duration": 20, "velocity": 85}, {"time": 48, "pitch": 62, "duration": 6, "velocity": 86}, {"time": 60, "pitch": 62, "duration": 8, "velocity": 86}, {"time": 60, "pitch": 65, "duration": 9, "velocity": 88}, {"time": 66, "pitch": 58, "duration": 3, "velocity": 79}, {"time": 69, "pitch": 53, "duration": 18, "velocity": 76}, {"time": 72, "pitch": 58, "duration": 7, "velocity": 84}, {"time": 75, "pitch": 62, "duration": 4, "velocity": 91}, {"time": 75, "pitch": 65, "duration": 6, "velocity": 91}, {"time": 87, "pitch": 45, "duration": 42, "velocity": 89}, {"time": 87, "pitch": 57, "duration": 3, "velocity": 81}, {"time": 87, "pitch": 60, "duration": 6, "velocity": 82}, {"time": 90, "pitch": 53, "duration": 37, "velocity": 80}, {"time": 93, "pitch": 57, "duration": 9, "velocity": 82}, {"time": 96, "pitch": 60, "duration": 4, "velocity": 81}, {"time": 102, "pitch": 65, "duration": 4, "velocity": 90}, {"time": 111, "pitch": 57, "duration": 5, "velocity": 77}, {"time": 111, "pitch": 60, "duration": 7, "velocity": 82}, {"time": 123, "pitch": 57, "duration": 3, "velocity": 90}, {"time": 123, "pitch": 60, "duration": 2, "velocity": 92}, {"time": 123, "pitch": 65, "duration": 5, "velocity": 90}, {"time": 135, "pitch": 39, "duration": 30, "velocity": 83}, {"time": 135, "pitch": 55, "duration": 6, "velocity": 85}, {"time": 135, "pitch": 58, "duration": 9, "velocity": 84}, {"time": 141, "pitch": 46, "duration": 25, "velocity": 62}, {"time": 144, "pitch": 55, "duration": 9, "velocity": 91}, {"time": 150, "pitch": 58, "duration": 4, "velocity": 96}, {"time": 153, "pitch": 63, "duration": 2, "velocity": 91}, {"time": 156, "pitch": 55, "duration": 1, "velocity": 62}, {"time": 159, "pitch": 58, "duration": 9, "velocity": 77}, {"time": 159, "pitch": 63, "duration": 10, "velocity": 84}, {"time": 171, "pitch": 58, "duration": 3, "velocity": 82}, {"time": 171, "pitch": 63, "duration": 4, "velocity": 78}, {"time": 171, "pitch": 67, "duration": 4, "velocity": 83}, {"time": 183, "pitch": 41, "duration": 22, "velocity": 86}, {"time": 183, "pitch": 53, "duration": 4, "velocity": 79}, {"time": 183, "pitch": 57, "duration": 5, "velocity": 78}, {"time": 186, "pitch": 48, "duration": 19, "velocity": 78}, {"time": 189, "pitch": 53, "duration": 8, "velocity": 79}, {"time": 192, "pitch": 60, "duration": 4, "velocity": 92}, {"time": 198, "pitch": 53, "duration": 1, "velocity": 61}, {"time": 198, "pitch": 65, "duration": 4, "velocity": 91}, {"time": 201, "pitch": 60, "duration": 8, "velocity": 77}, {"time": 204, "pitch": 53, "duration": 9, "velocity": 90}, {"time": 207, "pitch": 41, "duration": 15, "velocity": 82}, {"time": 213, "pitch": 48, "duration": 8, "velocity": 71}, {"time": 216, "pitch": 53, "duration": 1, "velocity": 88}, {"time": 219, "pitch": 53, "duration": 4, "velocity": 97}, {"time": 219, "pitch": 57, "duration": 4, "velocity": 99}, {"time": 231, "pitch": 39, "duration": 40, "velocity": 86}, {"time": 231, "pitch": 55, "duration": 3, "velocity": 85}, {"time": 231, "pitch": 58, "duration": 6, "velocity": 77}, {"time": 234, "pitch": 46, "duration": 37, "velocity": 73}, {"time": 237, "pitch": 55, "duration": 10, "velocity": 72}, {"time": 240, "pitch": 63, "duration": 7, "velocity": 94}, {"time": 246, "pitch": 58, "duration": 3, "velocity": 91}, {"time": 249, "pitch": 55, "duration": 9, "velocity": 90}, {"time": 252, "pitch": 58, "duration": 7, "velocity": 91}, {"time": 258, "pitch": 63, "duration": 4, "velocity": 104}, {"time": 261, "pitch": 58, "duration": 7, "velocity": 75}, {"time": 264, "pitch": 55, "duration": 4, "velocity": 79}, {"time": 267, "pitch": 67, "duration": 7, "velocity": 90}, {"time": 270, "pitch": 63, "duration": 4, "velocity": 93}, {"time": 273, "pitch": 58, "duration": 5, "velocity": 93}, {"time": 276, "pitch": 55, "duration": 3, "velocity": 91}, {"time": 279, "pitch": 46, "duration": 41, "velocity": 91}, {"time": 282, "pitch": 55, "duration": 1, "velocity": 80}, {"time": 285, "pitch": 58, "duration": 4, "velocity": 80}, {"time": 288, "pitch": 53, "duration": 4, "velocity": 90}, {"time": 291, "pitch": 62, "duration": 7, "velocity": 91}, {"time": 294, "pitch": 53, "duration": 3, "velocity": 75}, {"time": 297, "pitch": 58, "duration": 8, "velocity": 76}, {"time": 300, "pitch": 65, "duration": 11, "velocity": 91}, {"time": 306, "pitch": 53, "duration": 4, "velocity": 86}, {"time": 312, "pitch": 53, "duration": 2, "velocity": 86}, {"time": 312, "pitch": 62, "duration": 1, "velocity": 88}, {"time": 315, "pitch": 53, "duration": 4, "velocity": 91}, {"time": 315, "pitch": 62, "duration": 5, "velocity": 91}, {"time": 327, "pitch": 39, "duration": 37, "velocity": 90}, {"time": 327, "pitch": 58, "duration": 6, "velocity": 83}, {"time": 327, "pitch": 63, "duration": 7, "velocity": 83}, {"time": 330, "pitch": 46, "duration": 35, "velocity": 79}, {"time": 333, "pitch": 55, "duration": 7, "velocity": 81}, {"time": 336, "pitch": 58, "duration": 7, "velocity": 92}, {"time": 339, "pitch": 63, "duration": 3, "velocity": 91}, {"time": 342, "pitch": 67, "duration": 6, "velocity": 90}, {"time": 345, "pitch": 63, "duration": 4, "velocity": 96}, {"time": 348, "pitch": 58, "duration": 5, "velocity": 91}, {"time": 360, "pitch": 55, "duration": 2, "velocity": 78}, {"time": 363, "pitch": 55, "duration": 3, "velocity": 90}, {"time": 363, "pitch": 58, "duration": 2, "velocity": 93}, {"time": 363, "pitch": 63, "duration": 3, "velocity": 91}, {"time": 375, "pitch": 41, "duration": 39, "velocity": 90}, {"time": 375, "pitch": 57, "duration": 6, "velocity": 80}, {"time": 375, "pitch": 60, "duration": 9, "velocity": 82}, {"time": 381, "pitch": 48, "duration": 33, "velocity": 80}, {"time": 384, "pitch": 57, "duration": 6, "velocity": 85}, {"time": 387, "pitch": 60, "duration": 3, "velocity": 84}, {"time": 390, "pitch": 65, "duration": 3, "velocity": 93}, {"time": 393, "pitch": 60, "duration": 3, "velocity": 81}, {"time": 396, "pitch": 57, "duration": 1, "velocity": 67}, {"time": 399, "pitch": 57, "duration": 5, "velocity": 74}, {"time": 399, "pitch": 60, "duration": 4, "velocity": 84}, {"time": 399, "pitch": 69, "duration": 4, "velocity": 84}, {"time": 423, "pitch": 46, "duration": 47, "velocity": 91}, {"time": 423, "pitch": 58, "duration": 6, "velocity": 77}, {"time": 423, "pitch": 62, "duration": 6, "velocity": 88}, {"time": 435, "pitch": 58, "duration": 1, "velocity": 91}, {"time": 435, "pitch": 62, "duration": 2, "velocity": 89}, {"time": 441, "pitch": 53, "duration": 3, "velocity": 78}, {"time": 447, "pitch": 53, "duration": 3, "velocity": 76}, {"time": 447, "pitch": 58, "duration": 2, "velocity": 76}, {"time": 447, "pitch": 62, "duration": 2, "velocity": 84}, {"time": 459, "pitch": 58, "duration": 6, "velocity": 91}, {"time": 459, "pitch": 62, "duration": 11, "velocity": 88}, {"time": 465, "pitch": 53, "duration": 7, "velocity": 93}, {"time": 471, "pitch": 41, "duration": 39, "velocity": 87}, {"time": 471, "pitch": 57, "duration": 10, "velocity": 81}, {"time": 471, "pitch": 60, "duration": 10, "velocity": 86}, {"time": 483, "pitch": 57, "duration": 5, "velocity": 90}, {"time": 483, "pitch": 60, "duration": 4, "velocity": 92}, {"time": 495, "pitch": 57, "duration": 2, "velocity": 80}, {"time": 495, "pitch": 60, "duration": 2, "velocity": 84}, {"time": 501, "pitch": 53, "duration": 3, "velocity": 62}, {"time": 507, "pitch": 53, "duration": 2, "velocity": 86}, {"time": 507, "pitch": 57, "duration": 3, "velocity": 91}, {"time": 507, "pitch": 60, "duration": 4, "velocity": 90}, {"time": 519, "pitch": 43, "duration": 43, "velocity": 91}, {"time": 519, "pitch": 55, "duration": 11, "velocity": 80}, {"time": 519, "pitch": 58, "duration": 8, "velocity": 78}, {"time": 519, "pitch": 62, "duration": 7, "velocity": 86}, {"time": 525, "pitch": 50, "duration": 36, "velocity": 76}, {"time": 531, "pitch": 58, "duration": 2, "velocity": 90}, {"time": 531, "pitch": 62, "duration": 2, "velocity": 90}, {"time": 543, "pitch": 58, "duration": 2, "velocity": 80}, {"time": 543, "pitch": 62, "duration": 6, "velocity": 84}, {"time": 549, "pitch": 55, "duration": 7, "velocity": 75}, {"time": 555, "pitch": 58, "duration": 5, "velocity": 90}, {"time": 555, "pitch": 62, "duration": 5, "velocity": 94}, {"time": 555, "pitch": 67, "duration": 4, "velocity": 90}, {"time": 561, "pitch": 55, "duration": 1, "velocity": 93}, {"time": 567, "pitch": 41, "duration": 41, "velocity": 90}, {"time": 567, "pitch": 53, "duration": 11, "velocity": 83}, {"time": 567, "pitch": 57, "duration": 8, "velocity": 84}, {"time": 573, "pitch": 48, "duration": 35, "velocity": 75}, {"time": 579, "pitch": 57, "duration": 1, "velocity": 84}, {"time": 579, "pitch": 60, "duration": 1, "velocity": 90}, {"time": 591, "pitch": 57, "duration": 1, "velocity": 82}, {"time": 591, "pitch": 60, "duration": 2, "velocity": 86}, {"time": 603, "pitch": 57, "duration": 4, "velocity": 93}, {"time": 603, "pitch": 60, "duration": 6, "velocity": 92}, {"time": 609, "pitch": 53, "duration": 1, "velocity": 92}, {"time": 615, "pitch": 39, "duration": 34, "velocity": 91}, {"time": 615, "pitch": 55, "duration": 12, "velocity": 88}, {"time": 615, "pitch": 58, "duration": 9, "velocity": 83}, {"time": 621, "pitch": 46, "duration": 28, "velocity": 61}, {"time": 627, "pitch": 58, "duration": 2, "velocity": 86}, {"time": 627, "pitch": 63, "duration": 2, "velocity": 86}, {"time": 639, "pitch": 58, "duration": 2, "velocity": 91}, {"time": 639, "pitch": 63, "duration": 2, "velocity": 84}, {"time": 645, "pitch": 55, "duration": 7, "velocity": 73}, {"time": 651, "pitch": 58, "duration": 2, "velocity": 94}, {"time": 651, "pitch": 63, "duration": 2, "velocity": 90}, {"time": 663, "pitch": 46, "duration": 39, "velocity": 92}, {"time": 663, "pitch": 58, "duration": 7, "velocity": 83}, {"time": 663, "pitch": 62, "duration": 7, "velocity": 87}, {"time": 669, "pitch": 53, "duration": 5, "velocity": 81}, {"time": 675, "pitch": 58, "duration": 1, "velocity": 92}, {"time": 675, "pitch": 62, "duration": 2, "velocity": 87}, {"time": 687, "pitch": 58, "duration": 2, "velocity": 92}, {"time": 687, "pitch": 62, "duration": 2, "velocity": 85}, {"time": 693, "pitch": 53, "duration": 2, "velocity": 62}, {"time": 699, "pitch": 53, "duration": 2, "velocity": 90}, {"time": 699, "pitch": 58, "duration": 2, "velocity": 92}, {"time": 699, "pitch": 62, "duration": 3, "velocity": 90}, {"time": 711, "pitch": 39, "duration": 37, "velocity": 90}, {"time": 711, "pitch": 58, "duration": 9, "velocity": 90}, {"time": 711, "pitch": 63, "duration": 8, "velocity": 86}, {"time": 717, "pitch": 46, "duration": 32, "velocity": 71}, {"time": 723, "pitch": 58, "duration": 1, "velocity": 91}, {"time": 723, "pitch": 63, "duration": 1, "velocity": 94}, {"time": 729, "pitch": 55, "duration": 2, "velocity": 82}, {"time": 735, "pitch": 58, "duration": 1, "velocity": 85}, {"time": 735, "pitch": 63, "duration": 1, "velocity": 90}, {"time": 747, "pitch": 58, "duration": 1, "velocity": 92}, {"time": 747, "pitch": 63, "duration": 2, "velocity": 91}, {"time": 759, "pitch": 41, "duration": 42, "velocity": 90}, {"time": 759, "pitch": 57, "duration": 3, "velocity": 81}, {"time": 759, "pitch": 60, "duration": 7, "velocity": 84}, {"time": 759, "pitch": 65, "duration": 7, "velocity": 85}, {"time": 765, "pitch": 57, "duration": 6, "velocity": 81}, {"time": 771, "pitch": 60, "duration": 2, "velocity": 86}, {"time": 771, "pitch": 65, "duration": 2, "velocity": 90}, {"time": 777, "pitch": 57, "duration": 2, "velocity": 70}, {"time": 783, "pitch": 57, "duration": 2, "velocity": 84}, {"time": 783, "pitch": 60, "duration": 2, "velocity": 85}, {"time": 783, "pitch": 65, "duration": 2, "velocity": 84}, {"time": 795, "pitch": 57, "duration": 2, "velocity": 89}, {"time": 795, "pitch": 60, "duration": 7, "velocity": 93}, {"time": 795, "pitch": 65, "duration": 10, "velocity": 90}, {"time": 801, "pitch": 57, "duration": 5, "velocity": 95}, {"time": 807, "pitch": 46, "duration": 47, "velocity": 91}, {"time": 807, "pitch": 58, "duration": 6, "velocity": 77}, {"time": 807, "pitch": 62, "duration": 6, "velocity": 88}, {"time": 819, "pitch": 58, "duration": 1, "velocity": 91}, {"time": 819, "pitch": 62, "duration": 2, "velocity": 89}, {"time": 825, "pitch": 53, "duration": 3, "velocity": 78}, {"time": 831, "pitch": 53, "duration": 3, "velocity": 76}, {"time": 831, "pitch": 58, "duration": 2, "velocity": 76}, {"time": 831, "pitch": 62, "duration": 2, "velocity": 84}, {"time": 843, "pitch": 58, "duration": 6, "velocity": 91}, {"time": 843, "pitch": 62, "duration": 11, "velocity": 88}, {"time": 849, "pitch": 53, "duration": 7, "velocity": 93}, {"time": 855, "pitch": 41, "duration": 39, "velocity": 87}, {"time": 855, "pitch": 57, "duration": 10, "velocity": 81}, {"time": 855, "pitch": 60, "duration": 10, "velocity": 86}, {"time": 867, "pitch": 57, "duration": 5, "velocity": 90}, {"time": 867, "pitch": 60, "duration": 4, "velocity": 92}, {"time": 879, "pitch": 57, "duration": 2, "velocity": 80}, {"time": 879, "pitch": 60, "duration": 2, "velocity": 84}, {"time": 885, "pitch": 53, "duration": 3, "velocity": 62}, {"time": 891, "pitch": 53, "duration": 2, "velocity": 86}, {"time": 891, "pitch": 57, "duration": 3, "velocity": 91}, {"time": 891, "pitch": 60, "duration": 4, "velocity": 90}, {"time": 903, "pitch": 43, "duration": 43, "velocity": 91}, {"time": 903, "pitch": 55, "duration": 11, "velocity": 80}, {"time": 903, "pitch": 58, "duration": 8, "velocity": 78}, {"time": 903, "pitch": 62, "duration": 7, "velocity": 86}, {"time": 909, "pitch": 50, "duration": 36, "velocity": 76}, {"time": 915, "pitch": 58, "duration": 2, "velocity": 90}, {"time": 915, "pitch": 62, "duration": 2, "velocity": 90}, {"time": 927, "pitch": 58, "duration": 2, "velocity": 80}, {"time": 927, "pitch": 62, "duration": 6, "velocity": 84}, {"time": 933, "pitch": 55, "duration": 7, "velocity": 75}, {"time": 939, "pitch": 58, "duration": 5, "velocity": 90}, {"time": 939, "pitch": 62, "duration": 5, "velocity": 94}, {"time": 939, "pitch": 67, "duration": 4, "velocity": 90}, {"time": 945, "pitch": 55, "duration": 1, "velocity": 93}, {"time": 951, "pitch": 41, "duration": 41, "velocity": 90}, {"time": 951, "pitch": 53, "duration": 11, "velocity": 83}, {"time": 951, "pitch": 57, "duration": 8, "velocity": 84}, {"time": 957, "pitch": 48, "duration": 35, "velocity": 75}, {"time": 963, "pitch": 57, "duration": 1, "velocity": 84}, {"time": 963, "pitch": 60, "duration": 1, "velocity": 90}, {"time": 975, "pitch": 57, "duration": 1, "velocity": 82}, {"time": 975, "pitch": 60, "duration": 2, "velocity": 86}, {"time": 987, "pitch": 57, "duration": 4, "velocity": 93}, {"time": 987, "pitch": 60, "duration": 6, "velocity": 92}, {"time": 993, "pitch": 53, "duration": 1, "velocity": 92}, {"time": 999, "pitch": 39, "duration": 34, "velocity": 91}, {"time": 999, "pitch": 55, "duration": 12, "velocity": 88}, {"time": 999, "pitch": 58, "duration": 9, "velocity": 83}, {"time": 1005, "pitch": 46, "duration": 28, "velocity": 61}, {"time": 1011, "pitch": 58, "duration": 2, "velocity": 86}, {"time": 1011, "pitch": 63, "duration": 2, "velocity": 86}, {"time": 1023, "pitch": 58, "duration": 2, "velocity": 91}, {"time": 1023, "pitch": 63, "duration": 2, "velocity": 84}, {"time": 1029, "pitch": 55, "duration": 7, "velocity": 73}, {"time": 1035, "pitch": 58, "duration": 2, "velocity": 94}, {"time": 1035, "pitch": 63, "duration": 2, "velocity": 90}, {"time": 1047, "pitch": 46, "duration": 39, "velocity": 92}, {"time": 1047, "pitch": 58, "duration": 7, "velocity": 83}, {"time": 1047, "pitch": 62, "duration": 7, "velocity": 87}, {"time": 1053, "pitch": 53, "duration": 5, "velocity": 81}, {"time": 1059, "pitch": 58, "duration": 1, "velocity": 92}, {"time": 1059, "pitch": 62, "duration": 2, "velocity": 87}, {"time": 1071, "pitch": 58, "duration": 2, "velocity": 92}, {"time": 1071, "pitch": 62, "duration": 2, "velocity": 85}, {"time": 1077, "pitch": 53, "duration": 2, "velocity": 62}, {"time": 1083, "pitch": 53, "duration": 2, "velocity": 90}, {"time": 1083, "pitch": 58, "duration": 2, "velocity": 92}, {"time": 1083, "pitch": 62, "duration": 3, "velocity": 90}, {"time": 1095, "pitch": 39, "duration": 37, "velocity": 90}, {"time": 1095, "pitch": 58, "duration": 9, "velocity": 90}, {"time": 1095, "pitch": 63, "duration": 8, "velocity": 86}, {"time": 1101, "pitch": 46, "duration": 32, "velocity": 71}, {"time": 1107, "pitch": 58, "duration": 1, "velocity": 91}, {"time": 1107, "pitch": 63, "duration": 1, "velocity": 94}, {"time": 1113, "pitch": 55, "duration": 2, "velocity": 82}, {"time": 1119, "pitch": 58, "duration": 1, "velocity": 85}, {"time": 1119, "pitch": 63, "duration": 1, "velocity": 90}, {"time": 1131, "pitch": 58, "duration": 1, "velocity": 92}, {"time": 1131, "pitch": 63, "duration": 2, "velocity": 91}, {"time": 1143, "pitch": 41, "duration": 42, "velocity": 90}, {"time": 1143, "pitch": 57, "duration": 3, "velocity": 81}, {"time": 1143, "pitch": 60, "duration": 7, "velocity": 84}, {"time": 1143, "pitch": 65, "duration": 7, "velocity": 85}, {"time": 1149, "pitch": 57, "duration": 6, "velocity": 81}, {"time": 1155, "pitch": 60, "duration": 2, "velocity": 86}, {"time": 1155, "pitch": 65, "duration": 2, "velocity": 90}, {"time": 1161, "pitch": 57, "duration": 2, "velocity": 70}, {"time": 1167, "pitch": 57, "duration": 2, "velocity": 84}, {"time": 1167, "pitch": 60, "duration": 2, "velocity": 85}, {"time": 1167, "pitch": 65, "duration": 2, "velocity": 84}, {"time": 1179, "pitch": 57, "duration": 2, "velocity": 89}, {"time": 1179, "pitch": 60, "duration": 7, "velocity": 93}, {"time": 1179, "pitch": 65, "duration": 10, "velocity": 90}, {"time": 1185, "pitch": 57, "duration": 5, "velocity": 95}, {"time": 1191, "pitch": 46, "duration": 15, "velocity": 94}, {"time": 1191, "pitch": 53, "duration": 2, "velocity": 84}, {"time": 1191, "pitch": 58, "duration": 7, "velocity": 91}, {"time": 1191, "pitch": 62, "duration": 7, "velocity": 89}, {"time": 1197, "pitch": 53, "duration": 3, "velocity": 83}, {"time": 1203, "pitch": 53, "duration": 2, "velocity": 92}, {"time": 1203, "pitch": 58, "duration": 6, "velocity": 97}, {"time": 1203, "pitch": 62, "duration": 7, "velocity": 91}, {"time": 1209, "pitch": 53, "duration": 1, "velocity": 91}, {"time": 1215, "pitch": 45, "duration": 17, "velocity": 94}, {"time": 1215, "pitch": 57, "duration": 2, "velocity": 86}, {"time": 1215, "pitch": 60, "duration": 9, "velocity": 86}, {"time": 1215, "pitch": 65, "duration": 8, "velocity": 90}, {"time": 1221, "pitch": 57, "duration": 4, "velocity": 82}, {"time": 1227, "pitch": 57, "duration": 3, "velocity": 92}, {"time": 1227, "pitch": 60, "duration": 6, "velocity": 97}, {"time": 1227, "pitch": 65, "duration": 7, "velocity": 91}, {"time": 1233, "pitch": 57, "duration": 3, "velocity": 95}, {"time": 1239, "pitch": 43, "duration": 18, "velocity": 91}, {"time": 1239, "pitch": 55, "duration": 7, "velocity": 87}, {"time": 1239, "pitch": 58, "duration": 6, "velocity": 90}, {"time": 1239, "pitch": 62, "duration": 6, "velocity": 90}, {"time": 1245, "pitch": 50, "duration": 7, "velocity": 62}, {"time": 1251, "pitch": 58, "duration": 5, "velocity": 97}, {"time": 1251, "pitch": 62, "duration": 6, "velocity": 95}, {"time": 1257, "pitch": 50, "duration": 5, "velocity": 86}, {"time": 1260, "pitch": 55, "duration": 1, "velocity": 95}, {"time": 1263, "pitch": 41, "duration": 19, "velocity": 91}, {"time": 1263, "pitch": 53, "duration": 6, "velocity": 90}, {"time": 1263, "pitch": 57, "duration": 5, "velocity": 86}, {"time": 1269, "pitch": 48, "duration": 8, "velocity": 76}, {"time": 1272, "pitch": 53, "duration": 1, "velocity": 90}, {"time": 1275, "pitch": 53, "duration": 2, "velocity": 91}, {"time": 1275, "pitch": 57, "duration": 2, "velocity": 104}, {"time": 1275, "pitch": 60, "duration": 3, "velocity": 97}, {"time": 1281, "pitch": 48, "duration": 1, "velocity": 90}, {"time": 1287, "pitch": 39, "duration": 15, "velocity": 95}, {"time": 1287, "pitch": 58, "duration": 7, "velocity": 87}, {"time": 1287, "pitch": 63, "duration": 4, "velocity": 91}, {"time": 1293, "pitch": 46, "duration": 7, "velocity": 70}, {"time": 1299, "pitch": 58, "duration": 6, "velocity": 96}, {"time": 1299, "pitch": 63, "duration": 6, "velocity": 97}, {"time": 1302, "pitch": 46, "duration": 2, "velocity": 90}, {"time": 1305, "pitch": 55, "duration": 2, "velocity": 95}, {"time": 1311, "pitch": 50, "duration": 14, "velocity": 95}, {"time": 1311, "pitch": 57, "duration": 3, "velocity": 82}, {"time": 1311, "pitch": 62, "duration": 7, "velocity": 86}, {"time": 1317, "pitch": 57, "duration": 4, "velocity": 87}, {"time": 1323, "pitch": 57, "duration": 2, "velocity": 92}, {"time": 1323, "pitch": 62, "duration": 3, "velocity": 97}, {"time": 1323, "pitch": 65, "duration": 5, "velocity": 97}, {"time": 1335, "pitch": 39, "duration": 14, "velocity": 91}, {"time": 1335, "pitch": 58, "duration": 6, "velocity": 83}, {"time": 1335, "pitch": 63, "duration": 6, "velocity": 84}, {"time": 1341, "pitch": 55, "duration": 4, "velocity": 91}, {"time": 1347, "pitch": 55, "duration": 2, "velocity": 94}, {"time": 1347, "pitch": 58, "duration": 6, "velocity": 97}, {"time": 1347, "pitch": 63, "duration": 6, "velocity": 93}, {"time": 1353, "pitch": 55, "duration": 1, "velocity": 94}, {"time": 1359, "pitch": 41, "duration": 17, "velocity": 92}, {"time": 1359, "pitch": 53, "duration": 3, "velocity": 90}, {"time": 1359, "pitch": 57, "duration": 3, "velocity": 88}, {"time": 1362, "pitch": 48, "duration": 10, "velocity": 78}, {"time": 1365, "pitch": 57, "duration": 1, "velocity": 70}, {"time": 1365, "pitch": 60, "duration": 4, "velocity": 90}, {"time": 1371, "pitch": 53, "duration": 3, "velocity": 93}, {"time": 1371, "pitch": 57, "duration": 3, "velocity": 96}, {"time": 1371, "pitch": 60, "duration": 3, "velocity": 96}, {"time": 1371, "pitch": 65, "duration": 4, "velocity": 93}, {"time": 1374, "pitch": 48, "duration": 4, "velocity": 95}, {"time": 1377, "pitch": 53, "duration": 2, "velocity": 96}, {"time": 1383, "pitch": 46, "duration": 20, "velocity": 96}, {"time": 1383, "pitch": 58, "duration": 7, "velocity": 91}, {"time": 1383, "pitch": 62, "duration": 7, "velocity": 91}, {"time": 1389, "pitch": 53, "duration": 4, "velocity": 83}, {"time": 1395, "pitch": 53, "duration": 2, "velocity": 90}, {"time": 1395, "pitch": 58, "duration": 6, "velocity": 97}, {"time": 1395, "pitch": 62, "duration": 7, "velocity": 91}, {"time": 1401, "pitch": 53, "duration": 2, "velocity": 96}, {"time": 1407, "pitch": 45, "duration": 17, "velocity": 91}, {"time": 1407, "pitch": 57, "duration": 3, "velocity": 85}, {"time": 1407, "pitch": 60, "duration": 8, "velocity": 88}, {"time": 1413, "pitch": 57, "duration": 4, "velocity": 83}, {"time": 1419, "pitch": 57, "duration": 3, "velocity": 91}, {"time": 1419, "pitch": 60, "duration": 6, "velocity": 96}, {"time": 1419, "pitch": 65, "duration": 6, "velocity": 90}, {"time": 1425, "pitch": 57, "duration": 1, "velocity": 87}, {"time": 1431, "pitch": 43, "duration": 21, "velocity": 89}, {"time": 1431, "pitch": 55, "duration": 7, "velocity": 86}, {"time": 1431, "pitch": 58, "duration": 7, "velocity": 86}, {"time": 1431, "pitch": 62, "duration": 6, "velocity": 86}, {"time": 1437, "pitch": 50, "duration": 7, "velocity": 80}, {"time": 1443, "pitch": 55, "duration": 3, "velocity": 91}, {"time": 1443, "pitch": 58, "duration": 3, "velocity": 95}, {"time": 1443, "pitch": 62, "duration": 3, "velocity": 92}, {"time": 1446, "pitch": 50, "duration": 7, "velocity": 82}, {"time": 1449, "pitch": 58, "duration": 5, "velocity": 97}, {"time": 1455, "pitch": 41, "duration": 18, "velocity": 91}, {"time": 1455, "pitch": 53, "duration": 8, "velocity": 83}, {"time": 1455, "pitch": 57, "duration": 7, "velocity": 90}, {"time": 1461, "pitch": 48, "duration": 7, "velocity": 83}, {"time": 1467, "pitch": 53, "duration": 2, "velocity": 91}, {"time": 1467, "pitch": 60, "duration": 2, "velocity": 91}, {"time": 1470, "pitch": 48, "duration": 3, "velocity": 83}, {"time": 1473, "pitch": 58, "duration": 3, "velocity": 92}, {"time": 1476, "pitch": 57, "duration": 2, "velocity": 90}, {"time": 1479, "pitch": 39, "duration": 12, "velocity": 94}, {"time": 1479, "pitch": 55, "duration": 9, "velocity": 86}, {"time": 1479, "pitch": 58, "duration": 5, "velocity": 92}, {"time": 1485, "pitch": 46, "duration": 7, "velocity": 79}, {"time": 1491, "pitch": 58, "duration": 6, "velocity": 93}, {"time": 1491, "pitch": 63, "duration": 6, "velocity": 97}, {"time": 1497, "pitch": 55, "duration": 1, "velocity": 90}, {"time": 1503, "pitch": 50, "duration": 13, "velocity": 97}, {"time": 1503, "pitch": 62, "duration": 7, "velocity": 89}, {"time": 1503, "pitch": 65, "duration": 7, "velocity": 89}, {"time": 1509, "pitch": 57, "duration": 3, "velocity": 84}, {"time": 1515, "pitch": 57, "duration": 2, "velocity": 92}, {"time": 1515, "pitch": 62, "duration": 3, "velocity": 97}, {"time": 1515, "pitch": 65, "duration": 6, "velocity": 92}, {"time": 1527, "pitch": 39, "duration": 13, "velocity": 97}, {"time": 1527, "pitch": 55, "duration": 2, "velocity": 86}, {"time": 1527, "pitch": 58, "duration": 6, "velocity": 83}, {"time": 1527, "pitch": 63, "duration": 6, "velocity": 84}, {"time": 1533, "pitch": 55, "duration": 6, "velocity": 86}, {"time": 1539, "pitch": 58, "duration": 5, "velocity": 99}, {"time": 1539, "pitch": 63, "duration": 6, "velocity": 96}, {"time": 1545, "pitch": 55, "duration": 2, "velocity": 97}, {"time": 1551, "pitch": 41, "duration": 18, "velocity": 91}, {"time": 1551, "pitch": 53, "duration": 9, "velocity": 86}, {"time": 1551, "pitch": 57, "duration": 7, "velocity": 85}, {"time": 1557, "pitch": 48, "duration": 12, "velocity": 83}, {"time": 1563, "pitch": 53, "duration": 1, "velocity": 81}, {"time": 1563, "pitch": 57, "duration": 7, "velocity": 93}, {"time": 1563, "pitch": 60, "duration": 7, "velocity": 90}, {"time": 1563, "pitch": 65, "duration": 6, "velocity": 89}, {"time": 1569, "pitch": 53, "duration": 5, "velocity": 96}, {"time": 1575, "pitch": 46, "duration": 41, "velocity": 91}, {"time": 1575, "pitch": 58, "duration": 7, "velocity": 85}, {"time": 1575, "pitch": 62, "duration": 7, "velocity": 90}, {"time": 1581, "pitch": 53, "duration": 5, "velocity": 90}, {"time": 1587, "pitch": 58, "duration": 1, "velocity": 90}, {"time": 1587, "pitch": 62, "duration": 1, "velocity": 85}, {"time": 1593, "pitch": 53, "duration": 2, "velocity": 79}, {"time": 1599, "pitch": 58, "duration": 2, "velocity": 83}, {"time": 1599, "pitch": 62, "duration": 2, "velocity": 81}, {"time": 1611, "pitch": 58, "duration": 11, "velocity": 97}, {"time": 1611, "pitch": 62, "duration": 11, "velocity": 92}, {"time": 1617, "pitch": 53, "duration": 5, "velocity": 99}, {"time": 1623, "pitch": 46, "duration": 22, "velocity": 99}, {"time": 1629, "pitch": 53, "duration": 5, "velocity": 92}, {"time": 1635, "pitch": 62, "duration": 2, "velocity": 92}, {"time": 1638, "pitch": 58, "duration": 2, "velocity": 78}, {"time": 1644, "pitch": 58, "duration": 10, "velocity": 84}, {"time": 1653, "pitch": 46, "duration": 7, "velocity": 56}, {"time": 1656, "pitch": 53, "duration": 1, "velocity": 83}, {"time": 1659, "pitch": 53, "duration": 3, "velocity": 92}, {"time": 1659, "pitch": 58, "duration": 3, "velocity": 92}, {"time": 1659, "pitch": 62, "duration": 4, "velocity": 89}, {"time": 1662, "pitch": 46, "duration": 1, "velocity": 71}, {"time": 1665, "pitch": 53, "duration": 2, "velocity": 92}, {"time": 1671, "pitch": 41, "duration": 22, "velocity": 90}, {"time": 1671, "pitch": 53, "duration": 6, "velocity": 80}, {"time": 1671, "pitch": 57, "duration": 5, "velocity": 79}, {"time": 1677, "pitch": 48, "duration": 15, "velocity": 64}, {"time": 1680, "pitch": 60, "duration": 2, "velocity": 83}, {"time": 1683, "pitch": 65, "duration": 2, "velocity": 96}, {"time": 1686, "pitch": 60, "duration": 2, "velocity": 90}, {"time": 1692, "pitch": 60, "duration": 10, "velocity": 88}, {"time": 1701, "pitch": 48, "duration": 4, "velocity": 79}, {"time": 1704, "pitch": 53, "duration": 4, "velocity": 92}, {"time": 1707, "pitch": 48, "duration": 3, "velocity": 84}, {"time": 1710, "pitch": 53, "duration": 2, "velocity": 92}, {"time": 1710, "pitch": 57, "duration": 4, "velocity": 92}, {"time": 1719, "pitch": 43, "duration": 21, "velocity": 90}, {"time": 1719, "pitch": 55, "duration": 8, "velocity": 90}, {"time": 1719, "pitch": 58, "duration": 7, "velocity": 85}, {"time": 1725, "pitch": 50, "duration": 4, "velocity": 62}, {"time": 1728, "pitch": 62, "duration": 2, "velocity": 92}, {"time": 1734, "pitch": 58, "duration": 2, "velocity": 83}, {"time": 1737, "pitch": 50, "duration": 2, "velocity": 62}, {"time": 1740, "pitch": 55, "duration": 1, "velocity": 79}, {"time": 1743, "pitch": 43, "duration": 16, "velocity": 90}, {"time": 1743, "pitch": 55, "duration": 6, "velocity": 80}, {"time": 1743, "pitch": 58, "duration": 6, "velocity": 76}, {"time": 1743, "pitch": 62, "duration": 6, "velocity": 84}, {"time": 1749, "pitch": 50, "duration": 6, "velocity": 64}, {"time": 1752, "pitch": 55, "duration": 1, "velocity": 75}, {"time": 1755, "pitch": 55, "duration": 3, "velocity": 86}, {"time": 1755, "pitch": 58, "duration": 3, "velocity": 92}, {"time": 1755, "pitch": 62, "duration": 3, "velocity": 94}, {"time": 1755, "pitch": 67, "duration": 3, "velocity": 85}, {"time": 1758, "pitch": 50, "duration": 3, "velocity": 80}, {"time": 1761, "pitch": 43, "duration": 3, "velocity": 90}, {"time": 1767, "pitch": 41, "duration": 21, "velocity": 90}, {"time": 1767, "pitch": 57, "duration": 6, "velocity": 79}, {"time": 1767, "pitch": 60, "duration": 8, "velocity": 83}, {"time": 1773, "pitch": 48, "duration": 13, "velocity": 69}, {"time": 1776, "pitch": 60, "duration": 1, "velocity": 79}, {"time": 1776, "pitch": 65, "duration": 3, "velocity": 91}, {"time": 1782, "pitch": 60, "duration": 2, "velocity": 93}, {"time": 1788, "pitch": 57, "duration": 1, "velocity": 68}, {"time": 1791, "pitch": 41, "duration": 19, "velocity": 90}, {"time": 1791, "pitch": 57, "duration": 7, "velocity": 83}, {"time": 1791, "pitch": 60, "duration": 8, "velocity": 85}, {"time": 1797, "pitch": 48, "duration": 6, "velocity": 65}, {"time": 1800, "pitch": 57, "duration": 1, "velocity": 78}, {"time": 1803, "pitch": 57, "duration": 3, "velocity": 91}, {"time": 1803, "pitch": 60, "duration": 3, "velocity": 94}, {"time": 1803, "pitch": 65, "duration": 3, "velocity": 90}, {"time": 1806, "pitch": 48, "duration": 3, "velocity": 84}, {"time": 1815, "pitch": 39, "duration": 22, "velocity": 94}, {"time": 1815, "pitch": 58, "duration": 4, "velocity": 90}, {"time": 1818, "pitch": 46, "duration": 21, "velocity": 73}, {"time": 1821, "pitch": 51, "duration": 1, "velocity": 89}, {"time": 1824, "pitch": 51, "duration": 2, "velocity": 92}, {"time": 1824, "pitch": 58, "duration": 2, "velocity": 86}, {"time": 1830, "pitch": 55, "duration": 2, "velocity": 89}, {"time": 1830, "pitch": 58, "duration": 3, "velocity": 86}, {"time": 1839, "pitch": 39, "duration": 14, "velocity": 79}, {"time": 1839, "pitch": 51, "duration": 10, "velocity": 86}, {"time": 1839, "pitch": 63, "duration": 11, "velocity": 85}, {"time": 1848, "pitch": 46, "duration": 5, "velocity": 79}, {"time": 1851, "pitch": 51, "duration": 2, "velocity": 91}, {"time": 1851, "pitch": 55, "duration": 3, "velocity": 86}, {"time": 1851, "pitch": 58, "duration": 3, "velocity": 86}, {"time": 1851, "pitch": 63, "duration": 4, "velocity": 81}, {"time": 1863, "pitch": 46, "duration": 22, "velocity": 91}, {"time": 1863, "pitch": 58, "duration": 4, "velocity": 82}, {"time": 1863, "pitch": 62, "duration": 4, "velocity": 90}, {"time": 1869, "pitch": 53, "duration": 17, "velocity": 68}, {"time": 1872, "pitch": 58, "duration": 4, "velocity": 95}, {"time": 1878, "pitch": 58, "duration": 2, "velocity": 80}, {"time": 1878, "pitch": 62, "duration": 2, "velocity": 83}, {"time": 1878, "pitch": 65, "duration": 2, "velocity": 85}, {"time": 1884, "pitch": 58, "duration": 1, "velocity": 73}, {"time": 1887, "pitch": 46, "duration": 19, "velocity": 90}, {"time": 1887, "pitch": 58, "duration": 10, "velocity": 82}, {"time": 1887, "pitch": 62, "duration": 12, "velocity": 86}, {"time": 1896, "pitch": 53, "duration": 9, "velocity": 79}, {"time": 1899, "pitch": 58, "duration": 5, "velocity": 84}, {"time": 1902, "pitch": 62, "duration": 4, "velocity": 90}, {"time": 1911, "pitch": 39, "duration": 22, "velocity": 89}, {"time": 1911, "pitch": 55, "duration": 6, "velocity": 88}, {"time": 1911, "pitch": 58, "duration": 7, "velocity": 83}, {"time": 1917, "pitch": 46, "duration": 17, "velocity": 76}, {"time": 1920, "pitch": 63, "duration": 2, "velocity": 95}, {"time": 1926, "pitch": 58, "duration": 3, "velocity": 90}, {"time": 1932, "pitch": 63, "duration": 3, "velocity": 88}, {"time": 1935, "pitch": 39, "duration": 14, "velocity": 94}, {"time": 1935, "pitch": 67, "duration": 9, "velocity": 92}, {"time": 1941, "pitch": 46, "duration": 7, "velocity": 77}, {"time": 1944, "pitch": 58, "duration": 7, "velocity": 90}, {"time": 1950, "pitch": 55, "duration": 3, "velocity": 94}, {"time": 1953, "pitch": 58, "duration": 1, "velocity": 91}, {"time": 1959, "pitch": 41, "duration": 21, "velocity": 91}, {"time": 1959, "pitch": 53, "duration": 9, "velocity": 90}, {"time": 1959, "pitch": 57, "duration": 9, "velocity": 90}, {"time": 1965, "pitch": 48, "duration": 15, "velocity": 81}, {"time": 1968, "pitch": 60, "duration": 3, "velocity": 92}, {"time": 1974, "pitch": 65, "duration": 3, "velocity": 96}, {"time": 1977, "pitch": 53, "duration": 2, "velocity": 90}, {"time": 1983, "pitch": 41, "duration": 9, "velocity": 94}, {"time": 1983, "pitch": 53, "duration": 4, "velocity": 90}, {"time": 1983, "pitch": 57, "duration": 5, "velocity": 92}, {"time": 1983, "pitch": 60, "duration": 7, "velocity": 92}, {"time": 1989, "pitch": 53, "duration": 3, "velocity": 91}, {"time": 1995, "pitch": 41, "duration": 9, "velocity": 92}, {"time": 1995, "pitch": 48, "duration": 9, "velocity": 91}, {"time": 1995, "pitch": 53, "duration": 3, "velocity": 88}, {"time": 1995, "pitch": 57, "duration": 11, "velocity": 91}, {"time": 1995, "pitch": 60, "duration": 11, "velocity": 91}, {"time": 1995, "pitch": 65, "duration": 11, "velocity": 88}, {"time": 2001, "pitch": 53, "duration": 5, "velocity": 95}, {"time": 2007, "pitch": 46, "duration": 18, "velocity": 97}, {"time": 2007, "pitch": 53, "duration": 3, "velocity": 85}, {"time": 2007, "pitch": 58, "duration": 6, "velocity": 88}, {"time": 2013, "pitch": 53, "duration": 1, "velocity": 61}, {"time": 2016, "pitch": 53, "duration": 3, "velocity": 92}, {"time": 2016, "pitch": 58, "duration": 3, "velocity": 94}, {"time": 2016, "pitch": 62, "duration": 4, "velocity": 91}, {"time": 2022, "pitch": 58, "duration": 2, "velocity": 104}, {"time": 2025, "pitch": 53, "duration": 1, "velocity": 91}, {"time": 2028, "pitch": 58, "duration": 1, "velocity": 91}, {"time": 2031, "pitch": 41, "duration": 18, "velocity": 90}, {"time": 2031, "pitch": 53, "duration": 3, "velocity": 90}, {"time": 2031, "pitch": 57, "duration": 5, "velocity": 91}, {"time": 2034, "pitch": 48, "duration": 8, "velocity": 81}, {"time": 2037, "pitch": 53, "duration": 1, "velocity": 84}, {"time": 2040, "pitch": 53, "duration": 4, "velocity": 86}, {"time": 2040, "pitch": 60, "duration": 3, "velocity": 89}, {"time": 2043, "pitch": 48, "duration": 5, "velocity": 80}, {"time": 2046, "pitch": 53, "duration": 2, "velocity": 92}, {"time": 2046, "pitch": 57, "duration": 2, "velocity": 90}, {"time": 2055, "pitch": 43, "duration": 22, "velocity": 92}, {"time": 2055, "pitch": 55, "duration": 7, "velocity": 84}, {"time": 2055, "pitch": 58, "duration": 6, "velocity": 86}, {"time": 2055, "pitch": 62, "duration": 6, "velocity": 90}, {"time": 2061, "pitch": 50, "duration": 12, "velocity": 74}, {"time": 2064, "pitch": 55, "duration": 3, "velocity": 84}, {"time": 2064, "pitch": 67, "duration": 3, "velocity": 93}, {"time": 2070, "pitch": 55, "duration": 1, "velocity": 86}, {"time": 2070, "pitch": 58, "duration": 7, "velocity": 92}, {"time": 2070, "pitch": 62, "duration": 7, "velocity": 94}, {"time": 2076, "pitch": 55, "duration": 1, "velocity": 90}, {"time": 2079, "pitch": 41, "duration": 16, "velocity": 90}, {"time": 2079, "pitch": 53, "duration": 3, "velocity": 90}, {"time": 2079, "pitch": 57, "duration": 4, "velocity": 90}, {"time": 2082, "pitch": 48, "duration": 13, "velocity": 81}, {"time": 2085, "pitch": 53, "duration": 1, "velocity": 85}, {"time": 2088, "pitch": 53, "duration": 3, "velocity": 91}, {"time": 2088, "pitch": 57, "duration": 3, "velocity": 92}, {"time": 2088, "pitch": 60, "duration": 3, "velocity": 92}, {"time": 2094, "pitch": 53, "duration": 2, "velocity": 94}, {"time": 2094, "pitch": 65, "duration": 3, "velocity": 91}, {"time": 2103, "pitch": 39, "duration": 16, "velocity": 96}, {"time": 2103, "pitch": 55, "duration": 6, "velocity": 86}, {"time": 2103, "pitch": 58, "duration": 7, "velocity": 83}, {"time": 2109, "pitch": 46, "duration": 10, "velocity": 73}, {"time": 2112, "pitch": 63, "duration": 2, "velocity": 96}, {"time": 2118, "pitch": 58, "duration": 3, "velocity": 106}, {"time": 2121, "pitch": 55, "duration": 1, "velocity": 91}, {"time": 2127, "pitch": 50, "duration": 16, "velocity": 93}, {"time": 2127, "pitch": 57, "duration": 2, "velocity": 91}, {"time": 2127, "pitch": 65, "duration": 6, "velocity": 90}, {"time": 2130, "pitch": 57, "duration": 4, "velocity": 89}, {"time": 2133, "pitch": 62, "duration": 1, "velocity": 86}, {"time": 2136, "pitch": 57, "duration": 4, "velocity": 93}, {"time": 2136, "pitch": 62, "duration": 4, "velocity": 96}, {"time": 2136, "pitch": 65, "duration": 4, "velocity": 97}, {"time": 2142, "pitch": 57, "duration": 2, "velocity": 91}, {"time": 2142, "pitch": 62, "duration": 2, "velocity": 91}, {"time": 2151, "pitch": 39, "duration": 16, "velocity": 91}, {"time": 2151, "pitch": 58, "duration": 4, "velocity": 92}, {"time": 2151, "pitch": 63, "duration": 4, "velocity": 90}, {"time": 2154, "pitch": 46, "duration": 13, "velocity": 85}, {"time": 2157, "pitch": 55, "duration": 1, "velocity": 90}, {"time": 2160, "pitch": 58, "duration": 4, "velocity": 93}, {"time": 2160, "pitch": 63, "duration": 4, "velocity": 92}, {"time": 2166, "pitch": 58, "duration": 3, "velocity": 97}, {"time": 2169, "pitch": 55, "duration": 2, "velocity": 87}, {"time": 2175, "pitch": 41, "duration": 20, "velocity": 88}, {"time": 2175, "pitch": 43, "duration": 3, "velocity": 77}, {"time": 2175, "pitch": 53, "duration": 3, "velocity": 86}, {"time": 2175, "pitch": 57, "duration": 6, "velocity": 84}, {"time": 2178, "pitch": 48, "duration": 16, "velocity": 81}, {"time": 2181, "pitch": 60, "duration": 2, "velocity": 91}, {"time": 2184, "pitch": 53, "duration": 4, "velocity": 89}, {"time": 2184, "pitch": 57, "duration": 3, "velocity": 81}, {"time": 2184, "pitch": 60, "duration": 3, "velocity": 87}, {"time": 2184, "pitch": 65, "duration": 4, "velocity": 94}, {"time": 2190, "pitch": 53, "duration": 1, "velocity": 89}, {"time": 2190, "pitch": 57, "duration": 4, "velocity": 95}, {"time": 2190, "pitch": 60, "duration": 5, "velocity": 94}, {"time": 2193, "pitch": 53, "duration": 2, "velocity": 87}, {"time": 2199, "pitch": 46, "duration": 23, "velocity": 95}, {"time": 2199, "pitch": 53, "duration": 3, "velocity": 90}, {"time": 2199, "pitch": 58, "duration": 8, "velocity": 91}, {"time": 2205, "pitch": 53, "duration": 2, "velocity": 74}, {"time": 2208, "pitch": 62, "duration": 4, "velocity": 92}, {"time": 2214, "pitch": 58, "duration": 3, "velocity": 99}, {"time": 2217, "pitch": 53, "duration": 2, "velocity": 91}, {"time": 2220, "pitch": 58, "duration": 2, "velocity": 95}, {"time": 2223, "pitch": 41, "duration": 19, "velocity": 91}, {"time": 2223, "pitch": 53, "duration": 3, "velocity": 90}, {"time": 2223, "pitch": 57, "duration": 6, "velocity": 91}, {"time": 2226, "pitch": 48, "duration": 17, "velocity": 77}, {"time": 2229, "pitch": 53, "duration": 1, "velocity": 88}, {"time": 2232, "pitch": 53, "duration": 4, "velocity": 91}, {"time": 2232, "pitch": 60, "duration": 4, "velocity": 95}, {"time": 2238, "pitch": 53, "duration": 2, "velocity": 92}, {"time": 2238, "pitch": 57, "duration": 2, "velocity": 92}, {"time": 2247, "pitch": 43, "duration": 22, "velocity": 91}, {"time": 2247, "pitch": 55, "duration": 3, "velocity": 87}, {"time": 2247, "pitch": 58, "duration": 4, "velocity": 95}, {"time": 2250, "pitch": 50, "duration": 18, "velocity": 83}, {"time": 2253, "pitch": 55, "duration": 1, "velocity": 82}, {"time": 2256, "pitch": 55, "duration": 7, "velocity": 91}, {"time": 2256, "pitch": 58, "duration": 7, "velocity": 96}, {"time": 2265, "pitch": 62, "duration": 7, "velocity": 93}, {"time": 2268, "pitch": 55, "duration": 2, "velocity": 90}, {"time": 2271, "pitch": 41, "duration": 19, "velocity": 91}, {"time": 2271, "pitch": 53, "duration": 3, "velocity": 90}, {"time": 2271, "pitch": 57, "duration": 5, "velocity": 92}, {"time": 2274, "pitch": 48, "duration": 15, "velocity": 82}, {"time": 2277, "pitch": 53, "duration": 1, "velocity": 94}, {"time": 2280, "pitch": 53, "duration": 4, "velocity": 89}, {"time": 2280, "pitch": 57, "duration": 4, "velocity": 91}, {"time": 2280, "pitch": 60, "duration": 4, "velocity": 91}, {"time": 2286, "pitch": 53, "duration": 2, "velocity": 92}, {"time": 2286, "pitch": 57, "duration": 2, "velocity": 91}, {"time": 2295, "pitch": 39, "duration": 16, "velocity": 86}, {"time": 2295, "pitch": 55, "duration": 3, "velocity": 88}, {"time": 2295, "pitch": 58, "duration": 6, "velocity": 82}, {"time": 2298, "pitch": 46, "duration": 13, "velocity": 79}, {"time": 2301, "pitch": 55, "duration": 1, "velocity": 82}, {"time": 2304, "pitch": 58, "duration": 4, "velocity": 94}, {"time": 2304, "pitch": 63, "duration": 4, "velocity": 92}, {"time": 2310, "pitch": 58, "duration": 5, "velocity": 95}, {"time": 2310, "pitch": 63, "duration": 4, "velocity": 96}, {"time": 2319, "pitch": 46, "duration": 20, "velocity": 92}, {"time": 2319, "pitch": 58, "duration": 4, "velocity": 92}, {"time": 2319, "pitch": 62, "duration": 4, "velocity": 92}, {"time": 2322, "pitch": 53, "duration": 4, "velocity": 85}, {"time": 2325, "pitch": 58, "duration": 1, "velocity": 75}, {"time": 2328, "pitch": 53, "duration": 6, "velocity": 91}, {"time": 2328, "pitch": 58, "duration": 6, "velocity": 96}, {"time": 2328, "pitch": 62, "duration": 5, "velocity": 91}, {"time": 2337, "pitch": 58, "duration": 3, "velocity": 101}, {"time": 2340, "pitch": 53, "duration": 1, "velocity": 90}, {"time": 2343, "pitch": 39, "duration": 16, "velocity": 83}, {"time": 2343, "pitch": 58, "duration": 7, "velocity": 82}, {"time": 2343, "pitch": 63, "duration": 7, "velocity": 87}, {"time": 2346, "pitch": 46, "duration": 13, "velocity": 80}, {"time": 2349, "pitch": 55, "duration": 4, "velocity": 88}, {"time": 2352, "pitch": 58, "duration": 4, "velocity": 94}, {"time": 2352, "pitch": 63, "duration": 4, "velocity": 97}, {"time": 2358, "pitch": 58, "duration": 4, "velocity": 90}, {"time": 2358, "pitch": 63, "duration": 4, "velocity": 91}, {"time": 2361, "pitch": 55, "duration": 3, "velocity": 91}, {"time": 2367, "pitch": 42, "duration": 4, "velocity": 90}, {"time": 2367, "pitch": 49, "duration": 4, "velocity": 86}, {"time": 2367, "pitch": 54, "duration": 4, "velocity": 84}, {"time": 2367, "pitch": 58, "duration": 3, "velocity": 76}, {"time": 2367, "pitch": 61, "duration": 3, "velocity": 83}, {"time": 2367, "pitch": 66, "duration": 4, "velocity": 85}, {"time": 2373, "pitch": 42, "duration": 5, "velocity": 91}, {"time": 2373, "pitch": 49, "duration": 5, "velocity": 86}, {"time": 2373, "pitch": 54, "duration": 5, "velocity": 79}, {"time": 2373, "pitch": 58, "duration": 4, "velocity": 74}, {"time": 2373, "pitch": 61, "duration": 4, "velocity": 74}, {"time": 2373, "pitch": 66, "duration": 5, "velocity": 82}, {"time": 2379, "pitch": 42, "duration": 11, "velocity": 101}, {"time": 2379, "pitch": 49, "duration": 11, "velocity": 95}, {"time": 2379, "pitch": 54, "duration": 10, "velocity": 94}, {"time": 2379, "pitch": 58, "duration": 10, "velocity": 91}, {"time": 2379, "pitch": 61, "duration": 11, "velocity": 91}, {"time": 2379, "pitch": 66, "duration": 11, "velocity": 91}, {"time": 2391, "pitch": 47, "duration": 18, "velocity": 97}, {"time": 2391, "pitch": 54, "duration": 3, "velocity": 85}, {"time": 2391, "pitch": 59, "duration": 6, "velocity": 88}, {"time": 2397, "pitch": 54, "duration": 1, "velocity": 61}, {"time": 2400, "pitch": 54, "duration": 3, "velocity": 92}, {"time": 2400, "pitch": 59, "duration": 3, "velocity": 94}, {"time": 2400, "pitch": 63, "duration": 4, "velocity": 91}, {"time": 2406, "pitch": 59, "duration": 2, "velocity": 104}, {"time": 2409, "pitch": 54, "duration": 1, "velocity": 91}, {"time": 2412, "pitch": 59, "duration": 1, "velocity": 91}, {"time": 2415, "pitch": 42, "duration": 18, "velocity": 90}, {"time": 2415, "pitch": 54, "duration": 3, "velocity": 90}, {"time": 2415, "pitch": 58, "duration": 5, "velocity": 91}, {"time": 2418, "pitch": 49, "duration": 8, "velocity": 81}, {"time": 2421, "pitch": 54, "duration": 1, "velocity": 84}, {"time": 2424, "pitch": 54, "duration": 4, "velocity": 86}, {"time": 2424, "pitch": 61, "duration": 3, "velocity": 89}, {"time": 2427, "pitch": 49, "duration": 5, "velocity": 80}, {"time": 2430, "pitch": 54, "duration": 2, "velocity": 92}, {"time": 2430, "pitch": 58, "duration": 2, "velocity": 90}, {"time": 2439, "pitch": 44, "duration": 22, "velocity": 92}, {"time": 2439, "pitch": 56, "duration": 7, "velocity": 84}, {"time": 2439, "pitch": 59, "duration": 6, "velocity": 86}, {"time": 2439, "pitch": 63, "duration": 6, "velocity": 90}, {"time": 2445, "pitch": 51, "duration": 12, "velocity": 74}, {"time": 2448, "pitch": 56, "duration": 3, "velocity": 84}, {"time": 2448, "pitch": 68, "duration": 3, "velocity": 93}, {"time": 2454, "pitch": 56, "duration": 1, "velocity": 86}, {"time": 2454, "pitch": 59, "duration": 7, "velocity": 92}, {"time": 2454, "pitch": 63, "duration": 7, "velocity": 94}, {"time": 2460, "pitch": 56, "duration": 1, "velocity": 90}, {"time": 2463, "pitch": 42, "duration": 16, "velocity": 90}, {"time": 2463, "pitch": 54, "duration": 3, "velocity": 90}, {"time": 2463, "pitch": 58, "duration": 4, "velocity": 90}, {"time": 2466, "pitch": 49, "duration": 13, "velocity": 81}, {"time": 2469, "pitch": 54, "duration": 1, "velocity": 85}, {"time": 2472, "pitch": 54, "duration": 3, "velocity": 91}, {"time": 2472, "pitch": 58, "duration": 3, "velocity": 92}, {"time": 2472, "pitch": 61, "duration": 3, "velocity": 92}, {"time": 2478, "pitch": 54, "duration": 2, "velocity": 94}, {"time": 2478, "pitch": 66, "duration": 3, "velocity": 91}, {"time": 2487, "pitch": 40, "duration": 16, "velocity": 96}, {"time": 2487, "pitch": 56, "duration": 6, "velocity": 86}, {"time": 2487, "pitch": 59, "duration": 7, "velocity": 83}, {"time": 2493, "pitch": 47, "duration": 10, "velocity": 73}, {"time": 2496, "pitch": 64, "duration": 2, "velocity": 96}, {"time": 2502, "pitch": 59, "duration": 3, "velocity": 106}, {"time": 2505, "pitch": 56, "duration": 1, "velocity": 91}, {"time": 2511, "pitch": 51, "duration": 16, "velocity": 93}, {"time": 2511, "pitch": 58, "duration": 2, "velocity": 91}, {"time": 2511, "pitch": 66, "duration": 6, "velocity": 90}, {"time": 2514, "pitch": 58, "duration": 4, "velocity": 89}, {"time": 2517, "pitch": 63, "duration": 1, "velocity": 86}, {"time": 2520, "pitch": 58, "duration": 4, "velocity": 93}, {"time": 2520, "pitch": 63, "duration": 4, "velocity": 96}, {"time": 2520, "pitch": 66, "duration": 4, "velocity": 97}, {"time": 2526, "pitch": 58, "duration": 2, "velocity": 91}, {"time": 2526, "pitch": 63, "duration": 2, "velocity": 91}, {"time": 2535, "pitch": 40, "duration": 16, "velocity": 91}, {"time": 2535, "pitch": 59, "duration": 4, "velocity": 92}, {"time": 2535, "pitch": 64, "duration": 4, "velocity": 90}, {"time": 2538, "pitch": 47, "duration": 13, "velocity": 85}, {"time": 2541, "pitch": 56, "duration": 1, "velocity": 90}, {"time": 2544, "pitch": 59, "duration": 4, "velocity": 93}, {"time": 2544, "pitch": 64, "duration": 4, "velocity": 92}, {"time": 2550, "pitch": 59, "duration": 3, "velocity": 97}, {"time": 2553, "pitch": 56, "duration": 2, "velocity": 87}, {"time": 2559, "pitch": 42, "duration": 20, "velocity": 88}, {"time": 2559, "pitch": 44, "duration": 3, "velocity": 77}, {"time": 2559, "pitch": 54, "duration": 3, "velocity": 86}, {"time": 2559, "pitch": 58, "duration": 6, "velocity": 84}, {"time": 2562, "pitch": 49, "duration": 16, "velocity": 81}, {"time": 2565, "pitch": 61, "duration": 2, "velocity": 91}, {"time": 2568, "pitch": 54, "duration": 4, "velocity": 89}, {"time": 2568, "pitch": 58, "duration": 3, "velocity": 81}, {"time": 2568, "pitch": 61, "duration": 3, "velocity": 87}, {"time": 2568, "pitch": 66, "duration": 4, "velocity": 94}, {"time": 2574, "pitch": 54, "duration": 1, "velocity": 89}, {"time": 2574, "pitch": 58, "duration": 4, "velocity": 95}, {"time": 2574, "pitch": 61, "duration": 5, "velocity": 94}, {"time": 2577, "pitch": 54, "duration": 2, "velocity": 87}, {"time": 2583, "pitch": 47, "duration": 23, "velocity": 95}, {"time": 2583, "pitch": 54, "duration": 3, "velocity": 90}, {"time": 2583, "pitch": 59, "duration": 8, "velocity": 91}, {"time": 2589, "pitch": 54, "duration": 2, "velocity": 74}, {"time": 2592, "pitch": 63, "duration": 4, "velocity": 92}, {"time": 2598, "pitch": 59, "duration": 3, "velocity": 99}, {"time": 2601, "pitch": 54, "duration": 2, "velocity": 91}, {"time": 2604, "pitch": 59, "duration": 2, "velocity": 95}, {"time": 2607, "pitch": 42, "duration": 19, "velocity": 91}, {"time": 2607, "pitch": 54, "duration": 3, "velocity": 90}, {"time": 2607, "pitch": 58, "duration": 6, "velocity": 91}, {"time": 2610, "pitch": 49, "duration": 17, "velocity": 77}, {"time": 2613, "pitch": 54, "duration": 1, "velocity": 88}, {"time": 2616, "pitch": 54, "duration": 4, "velocity": 91}, {"time": 2616, "pitch": 61, "duration": 4, "velocity": 95}, {"time": 2622, "pitch": 54, "duration": 2, "velocity": 92}, {"time": 2622, "pitch": 58, "duration": 2, "velocity": 92}, {"time": 2631, "pitch": 44, "duration": 22, "velocity": 91}, {"time": 2631, "pitch": 56, "duration": 3, "velocity": 87}, {"time": 2631, "pitch": 59, "duration": 4, "velocity": 95}, {"time": 2634, "pitch": 51, "duration": 18, "velocity": 83}, {"time": 2637, "pitch": 56, "duration": 1, "velocity": 82}, {"time": 2640, "pitch": 56, "duration": 7, "velocity": 91}, {"time": 2640, "pitch": 59, "duration": 7, "velocity": 96}, {"time": 2649, "pitch": 63, "duration": 7, "velocity": 93}, {"time": 2652, "pitch": 56, "duration": 2, "velocity": 90}, {"time": 2655, "pitch": 42, "duration": 19, "velocity": 91}, {"time": 2655, "pitch": 54, "duration": 3, "velocity": 90}, {"time": 2655, "pitch": 58, "duration": 5, "velocity": 92}, {"time": 2658, "pitch": 49, "duration": 15, "velocity": 82}, {"time": 2661, "pitch": 54, "duration": 1, "velocity": 94}, {"time": 2664, "pitch": 54, "duration": 4, "velocity": 89}, {"time": 2664, "pitch": 58, "duration": 4, "velocity": 91}, {"time": 2664, "pitch": 61, "duration": 4, "velocity": 91}, {"time": 2670, "pitch": 54, "duration": 2, "velocity": 92}, {"time": 2670, "pitch": 58, "duration": 2, "velocity": 91}, {"time": 2679, "pitch": 40, "duration": 16, "velocity": 86}, {"time": 2679, "pitch": 56, "duration": 3, "velocity": 88}, {"time": 2679, "pitch": 59, "duration": 6, "velocity": 82}, {"time": 2682, "pitch": 47, "duration": 13, "velocity": 79}, {"time": 2685, "pitch": 56, "duration": 1, "velocity": 82}, {"time": 2688, "pitch": 59, "duration": 4, "velocity": 94}, {"time": 2688, "pitch": 64, "duration": 4, "velocity": 92}, {"time": 2694, "pitch": 59, "duration": 5, "velocity": 95}, {"time": 2694, "pitch": 64, "duration": 4, "velocity": 96}, {"time": 2703, "pitch": 47, "duration": 20, "velocity": 92}, {"time": 2703, "pitch": 59, "duration": 4, "velocity": 92}, {"time": 2703, "pitch": 63, "duration": 4, "velocity": 92}, {"time": 2706, "pitch": 54, "duration": 4, "velocity": 85}, {"time": 2709, "pitch": 59, "duration": 1, "velocity": 75}, {"time": 2712, "pitch": 54, "duration": 6, "velocity": 91}, {"time": 2712, "pitch": 59, "duration": 6, "velocity": 96}, {"time": 2712, "pitch": 63, "duration": 5, "velocity": 91}, {"time": 2721, "pitch": 59, "duration": 3, "velocity": 101}, {"time": 2724, "pitch": 54, "duration": 1, "velocity": 90}, {"time": 2727, "pitch": 40, "duration": 16, "velocity": 83}, {"time": 2727, "pitch": 59, "duration": 7, "velocity": 82}, {"time": 2727, "pitch": 64, "duration": 7, "velocity": 87}, {"time": 2730, "pitch": 47, "duration": 13, "velocity": 80}, {"time": 2733, "pitch": 56, "duration": 4, "velocity": 88}, {"time": 2736, "pitch": 59, "duration": 4, "velocity": 94}, {"time": 2736, "pitch": 64, "duration": 4, "velocity": 97}, {"time": 2742, "pitch": 59, "duration": 4, "velocity": 90}, {"time": 2742, "pitch": 64, "duration": 4, "velocity": 91}, {"time": 2745, "pitch": 56, "duration": 3, "velocity": 91}, {"time": 2751, "pitch": 42, "duration": 15, "velocity": 94}, {"time": 2751, "pitch": 54, "duration": 3, "velocity": 86}, {"time": 2751, "pitch": 66, "duration": 7, "velocity": 85}, {"time": 2754, "pitch": 49, "duration": 13, "velocity": 80}, {"time": 2757, "pitch": 54, "duration": 7, "velocity": 91}, {"time": 2760, "pitch": 58, "duration": 4, "velocity": 82}, {"time": 2760, "pitch": 61, "duration": 4, "velocity": 84}, {"time": 2766, "pitch": 54, "duration": 3, "velocity": 92}, {"time": 2766, "pitch": 58, "duration": 3, "velocity": 76}, {"time": 2766, "pitch": 66, "duration": 5, "velocity": 88}, {"time": 2775, "pitch": 47, "duration": 18, "velocity": 92}, {"time": 2775, "pitch": 59, "duration": 4, "velocity": 85}, {"time": 2775, "pitch": 63, "duration": 7, "velocity": 80}, {"time": 2775, "pitch": 66, "duration": 16, "velocity": 81}, {"time": 2778, "pitch": 54, "duration": 10, "velocity": 83}, {"time": 2781, "pitch": 59, "duration": 9, "velocity": 93}, {"time": 2784, "pitch": 63, "duration": 9, "velocity": 101}, {"time": 2790, "pitch": 54, "duration": 2, "velocity": 76}, {"time": 2793, "pitch": 59, "duration": 6, "velocity": 91}, {"time": 2796, "pitch": 63, "duration": 4, "velocity": 93}, {"time": 2799, "pitch": 42, "duration": 16, "velocity": 93}, {"time": 2802, "pitch": 49, "duration": 14, "velocity": 78}, {"time": 2805, "pitch": 54, "duration": 9, "velocity": 84}, {"time": 2808, "pitch": 58, "duration": 7, "velocity": 83}, {"time": 2814, "pitch": 66, "duration": 10, "velocity": 91}, {"time": 2817, "pitch": 54, "duration": 4, "velocity": 92}, {"time": 2820, "pitch": 58, "duration": 2, "velocity": 68}, {"time": 2823, "pitch": 44, "duration": 17, "velocity": 93}, {"time": 2826, "pitch": 51, "duration": 14, "velocity": 77}, {"time": 2829, "pitch": 56, "duration": 7, "velocity": 76}, {"time": 2832, "pitch": 59, "duration": 4, "velocity": 86}, {"time": 2838, "pitch": 56, "duration": 1, "velocity": 85}, {"time": 2838, "pitch": 59, "duration": 3, "velocity": 90}, {"time": 2838, "pitch": 63, "duration": 4, "velocity": 85}, {"time": 2847, "pitch": 42, "duration": 15, "velocity": 90}, {"time": 2847, "pitch": 54, "duration": 3, "velocity": 83}, {"time": 2847, "pitch": 58, "duration": 10, "velocity": 86}, {"time": 2850, "pitch": 49, "duration": 12, "velocity": 76}, {"time": 2853, "pitch": 54, "duration": 4, "velocity": 84}, {"time": 2856, "pitch": 61, "duration": 3, "velocity": 79}, {"time": 2859, "pitch": 66, "duration": 12, "velocity": 93}, {"time": 2862, "pitch": 61, "duration": 4, "velocity": 90}, {"time": 2865, "pitch": 58, "duration": 5, "velocity": 82}, {"time": 2868, "pitch": 54, "duration": 3, "velocity": 92}, {"time": 2871, "pitch": 40, "duration": 18, "velocity": 93}, {"time": 2874, "pitch": 47, "duration": 14, "velocity": 79}, {"time": 2877, "pitch": 52, "duration": 9, "velocity": 92}, {"time": 2880, "pitch": 56, "duration": 4, "velocity": 97}, {"time": 2886, "pitch": 56, "duration": 4, "velocity": 81}, {"time": 2886, "pitch": 59, "duration": 9, "velocity": 86}, {"time": 2886, "pitch": 64, "duration": 12, "velocity": 91}, {"time": 2889, "pitch": 52, "duration": 5, "velocity": 86}, {"time": 2892, "pitch": 56, "duration": 3, "velocity": 81}, {"time": 2895, "pitch": 47, "duration": 17, "velocity": 92}, {"time": 2901, "pitch": 59, "duration": 7, "velocity": 91}, {"time": 2907, "pitch": 54, "duration": 4, "velocity": 85}, {"time": 2910, "pitch": 59, "duration": 7, "velocity": 88}, {"time": 2913, "pitch": 63, "duration": 4, "velocity": 90}, {"time": 2916, "pitch": 66, "duration": 3, "velocity": 79}, {"time": 2919, "pitch": 40, "duration": 20, "velocity": 91}, {"time": 2922, "pitch": 47, "duration": 17, "velocity": 78}, {"time": 2925, "pitch": 52, "duration": 9, "velocity": 74}, {"time": 2928, "pitch": 56, "duration": 4, "velocity": 89}, {"time": 2931, "pitch": 59, "duration": 3, "velocity": 90}, {"time": 2934, "pitch": 64, "duration": 10, "velocity": 96}, {"time": 2937, "pitch": 52, "duration": 5, "velocity": 96}, {"time": 2940, "pitch": 56, "duration": 3, "velocity": 86}, {"time": 2943, "pitch": 42, "duration": 16, "velocity": 94}, {"time": 2946, "pitch": 49, "duration": 13, "velocity": 90}, {"time": 2949, "pitch": 54, "duration": 9, "velocity": 89}, {"time": 2952, "pitch": 58, "duration": 8, "velocity": 79}, {"time": 2955, "pitch": 61, "duration": 5, "velocity": 90}, {"time": 2958, "pitch": 66, "duration": 8, "velocity": 89}, {"time": 2961, "pitch": 54, "duration": 3, "velocity": 97}, {"time": 2967, "pitch": 47, "duration": 41, "velocity": 96}, {"time": 2971, "pitch": 51, "duration": 3, "velocity": 75}, {"time": 2974, "pitch": 54, "duration": 34, "velocity": 79}, {"time": 2977, "pitch": 59, "duration": 6, "velocity": 90}, {"time": 2979, "pitch": 63, "duration": 10, "velocity": 81}, {"time": 2983, "pitch": 71, "duration": 8, "velocity": 92}, {"time": 2987, "pitch": 66, "duration": 5, "velocity": 82}, {"time": 2997, "pitch": 51, "duration": 9, "velocity": 49}, {"time": 2998, "pitch": 71, "duration": 2, "velocity": 76}, {"time": 2999, "pitch": 75, "duration": 1, "velocity": 73}, {"time": 3000, "pitch": 78, "duration": 1, "velocity": 67}, {"time": 3000, "pitch": 83, "duration": 2, "velocity": 88}], "annotations": [{"time": 41, "annotation": {"number": 64, "value": 127}, "group": "control_change"}, {"time": 41, "annotation": {"number": 64, "value": 0}, "group": "control_change"}, {"time": 87, "annotation": {"number": 64, "value": 0}, "group": "control_change"}, {"time": 89, "annotation": {"number": 64, "value": 127}, "group": "control_change"}, {"time": 135, "annotation": {"number": 64, "value": 0}, "group": "control_change"}, {"time": 136, "annotation": {"number": 64, "value": 127}, "group": "control_change"}, {"time": 182, "annotation": {"number": 64, "value": 0}, "group": "control_change"}, {"time": 186, "annotation": {"number": 64, "value": 127}, "group": "control_change"}, {"time": 230, "annotation": {"number": 64, "value": 0}, "group": "control_change"}, {"time": 232, "annotation": {"number": 64, "value": 127}, "group": "control_change"}, {"time": 276, "annotation": {"number": 64, "value": 0}, "group": "control_change"}, {"time": 279, "annotation": {"number": 64, "value": 127}, "group": "control_change"}, {"time": 302, "annotation": {"number": 64, "value": 0}, "group": "control_change"}, {"time": 303, "annotation": {"number": 64, "value": 127}, "group": "control_change"}, {"time": 326, "annotation": {"number": 64, "value": 0}, "group": "control_change"}, {"time": 333, "annotation": {"number": 64, "value": 127}, "group": "control_change"}, {"time": 374, "annotation": {"number": 64, "value": 0}, "group": "control_change"}, {"time": 377, "annotation": {"number": 64, "value": 127}, "group": "control_change"}, {"time": 419, "annotation": {"number": 64, "value": 0}, "group": "control_change"}, {"time": 423, "annotation": {"number": 64, "value": 127}, "group": "control_change"}, {"time": 470, "annotation": {"number": 64, "value": 0}, "group": "control_change"}, {"time": 476, "annotation": {"number": 64, "value": 127}, "group": "control_change"}, {"time": 517, "annotation": {"number": 64, "value": 0}, "group": "control_change"}, {"time": 525, "annotation": {"number": 64, "value": 127}, "group": "control_change"}, {"time": 566, "annotation": {"number": 64, "value": 0}, "group": "control_change"}, {"time": 572, "annotation": {"number": 64, "value": 127}, "group": "control_change"}, {"time": 613, "annotation": {"number": 64, "value": 0}, "group": "control_change"}, {"time": 619, "annotation": {"number": 64, "value": 127}, "group": "control_change"}, {"time": 660, "annotation": {"number": 64, "value": 0}, "group": "control_change"}, {"time": 668, "annotation": {"number": 64, "value": 127}, "group": "control_change"}, {"time": 709, "annotation": {"number": 64, "value": 0}, "group": "control_change"}, {"time": 716, "annotation": {"number": 64, "value": 127}, "group": "control_change"}, {"time": 757, "annotation": {"number": 64, "value": 0}, "group": "control_change"}, {"time": 763, "annotation": {"number": 64, "value": 127}, "group": "control_change"}, {"time": 804, "annotation": {"number": 64, "value": 0}, "group": "control_change"}, {"time": 807, "annotation": {"number": 64, "value": 127}, "group": "control_change"}, {"time": 854, "annotation": {"number": 64, "value": 0}, "group": "control_change"}, {"time": 860, "annotation": {"number": 64, "value": 127}, "group": "control_change"}, {"time": 901, "annotation": {"number": 64, "value": 0}, "group": "control_change"}, {"time": 909, "annotation": {"number": 64, "value": 127}, "group": "control_change"}, {"time": 950, "annotation": {"number": 64, "value": 0}, "group": "control_change"}, {"time": 956, "annotation": {"number": 64, "value": 127}, "group": "control_change"}, {"time": 997, "annotation": {"number": 64, "value": 0}, "group": "control_change"}, {"time": 1003, "annotation": {"number": 64, "value": 127}, "group": "control_change"}, {"time": 1044, "annotation": {"number": 64, "value": 0}, "group": "control_change"}, {"time": 1052, "annotation": {"number": 64, "value": 127}, "group": "control_change"}, {"time": 1093, "annotation": {"number": 64, "value": 0}, "group": "control_change"}, {"time": 1100, "annotation": {"number": 64, "value": 127}, "group": "control_change"}, {"time": 1141, "annotation": {"number": 64, "value": 0}, "group": "control_change"}, {"time": 1147, "annotation": {"number": 64, "value": 127}, "group": "control_change"}, {"time": 1188, "annotation": {"number": 64, "value": 0}, "group": "control_change"}, {"time": 1214, "annotation": {"number": 64, "value": 0}, "group": "control_change"}, {"time": 1216, "annotation": {"number": 64, "value": 127}, "group": "control_change"}, {"time": 1237, "annotation": {"number": 64, "value": 0}, "group": "control_change"}, {"time": 1243, "annotation": {"number": 64, "value": 127}, "group": "control_change"}, {"time": 1261, "annotation": {"number": 64, "value": 0}, "group": "control_change"}, {"time": 1264, "annotation": {"number": 64, "value": 127}, "group": "control_change"}, {"time": 1284, "annotation": {"number": 64, "value": 0}, "group": "control_change"}, {"time": 1288, "annotation": {"number": 64, "value": 127}, "group": "control_change"}, {"time": 1310, "annotation": {"number": 64, "value": 0}, "group": "control_change"}, {"time": 1312, "annotation": {"number": 64, "value": 127}, "group": "control_change"}, {"time": 1333, "annotation": {"number": 64, "value": 0}, "group": "control_change"}, {"time": 1337, "annotation": {"number": 64, "value": 127}, "group": "control_change"}, {"time": 1356, "annotation": {"number": 64, "value": 0}, "group": "control_change"}, {"time": 1360, "annotation": {"number": 64, "value": 127}, "group": "control_change"}, {"time": 1380, "annotation": {"number": 64, "value": 0}, "group": "control_change"}, {"time": 1387, "annotation": {"number": 64, "value": 127}, "group": "control_change"}, {"time": 1407, "annotation": {"number": 64, "value": 0}, "group": "control_change"}, {"time": 1410, "annotation": {"number": 64, "value": 127}, "group": "control_change"}, {"time": 1429, "annotation": {"number": 64, "value": 0}, "group": "control_change"}, {"time": 1436, "annotation": {"number": 64, "value": 127}, "group": "control_change"}, {"time": 1453, "annotation": {"number": 64, "value": 0}, "group": "control_change"}, {"time": 1459, "annotation": {"number": 64, "value": 127}, "group": "control_change"}, {"time": 1476, "annotation": {"number": 64, "value": 0}, "group": "control_change"}, {"time": 1483, "annotation": {"number": 64, "value": 127}, "group": "control_change"}, {"time": 1501, "annotation": {"number": 64, "value": 0}, "group": "control_change"}, {"time": 1503, "annotation": {"number": 64, "value": 127}, "group": "control_change"}, {"time": 1526, "annotation": {"number": 64, "value": 0}, "group": "control_change"}, {"time": 1528, "annotation": {"number": 64, "value": 127}, "group": "control_change"}, {"time": 1548, "annotation": {"number": 64, "value": 0}, "group": "control_change"}, {"time": 1555, "annotation": {"number": 64, "value": 127}, "group": "control_change"}, {"time": 1571, "annotation": {"number": 64, "value": 0}, "group": "control_change"}, {"time": 1577, "annotation": {"number": 64, "value": 127}, "group": "control_change"}, {"time": 1618, "annotation": {"number": 64, "value": 0}, "group": "control_change"}, {"time": 1629, "annotation": {"number": 64, "value": 127}, "group": "control_change"}, {"time": 1668, "annotation": {"number": 64, "value": 0}, "group": "control_change"}, {"time": 1673, "annotation": {"number": 64, "value": 127}, "group": "control_change"}, {"time": 1718, "annotation": {"number": 64, "value": 0}, "group": "control_change"}, {"time": 1724, "annotation": {"number": 64, "value": 127}, "group": "control_change"}, {"time": 1766, "annotation": {"number": 64, "value": 0}, "group": "control_change"}, {"time": 1769, "annotation": {"number": 64, "value": 127}, "group": "control_change"}, {"time": 1789, "annotation": {"number": 64, "value": 0}, "group": "control_change"}, {"time": 1792, "annotation": {"number": 64, "value": 127}, "group": "control_change"}, {"time": 1814, "annotation": {"number": 64, "value": 0}, "group": "control_change"}, {"time": 1816, "annotation": {"number": 64, "value": 127}, "group": "control_change"}, {"time": 1838, "annotation": {"number": 64, "value": 0}, "group": "control_change"}, {"time": 1844, "annotation": {"number": 64, "value": 127}, "group": "control_change"}, {"time": 1861, "annotation": {"number": 64, "value": 0}, "group": "control_change"}, {"time": 1864, "annotation": {"number": 64, "value": 127}, "group": "control_change"}, {"time": 1887, "annotation": {"number": 64, "value": 0}, "group": "control_change"}, {"time": 1888, "annotation": {"number": 64, "value": 127}, "group": "control_change"}, {"time": 1909, "annotation": {"number": 64, "value": 0}, "group": "control_change"}, {"time": 1911, "annotation": {"number": 64, "value": 127}, "group": "control_change"}, {"time": 1933, "annotation": {"number": 64, "value": 0}, "group": "control_change"}, {"time": 1935, "annotation": {"number": 64, "value": 127}, "group": "control_change"}, {"time": 1956, "annotation": {"number": 64, "value": 0}, "group": "control_change"}, {"time": 1964, "annotation": {"number": 64, "value": 127}, "group": "control_change"}, {"time": 1981, "annotation": {"number": 64, "value": 0}, "group": "control_change"}, {"time": 1983, "annotation": {"number": 64, "value": 127}, "group": "control_change"}, {"time": 2000, "annotation": {"number": 64, "value": 0}, "group": "control_change"}, {"time": 2007, "annotation": {"number": 64, "value": 127}, "group": "control_change"}, {"time": 2029, "annotation": {"number": 64, "value": 0}, "group": "control_change"}, {"time": 2031, "annotation": {"number": 64, "value": 127}, "group": "control_change"}, {"time": 2052, "annotation": {"number": 64, "value": 0}, "group": "control_change"}, {"time": 2056, "annotation": {"number": 64, "value": 127}, "group": "control_change"}, {"time": 2078, "annotation": {"number": 64, "value": 0}, "group": "control_change"}, {"time": 2080, "annotation": {"number": 64, "value": 127}, "group": "control_change"}, {"time": 2101, "annotation": {"number": 64, "value": 0}, "group": "control_change"}, {"time": 2107, "annotation": {"number": 64, "value": 127}, "group": "control_change"}, {"time": 2126, "annotation": {"number": 64, "value": 0}, "group": "control_change"}, {"time": 2128, "annotation": {"number": 64, "value": 127}, "group": "control_change"}, {"time": 2149, "annotation": {"number": 64, "value": 0}, "group": "control_change"}, {"time": 2152, "annotation": {"number": 64, "value": 127}, "group": "control_change"}, {"time": 2173, "annotation": {"number": 64, "value": 0}, "group": "control_change"}, {"time": 2177, "annotation": {"number": 64, "value": 127}, "group": "control_change"}, {"time": 2197, "annotation": {"number": 64, "value": 0}, "group": "control_change"}, {"time": 2203, "annotation": {"number": 64, "value": 127}, "group": "control_change"}, {"time": 2222, "annotation": {"number": 64, "value": 0}, "group": "control_change"}, {"time": 2225, "annotation": {"number": 64, "value": 127}, "group": "control_change"}, {"time": 2244, "annotation": {"number": 64, "value": 0}, "group": "control_change"}, {"time": 2247, "annotation": {"number": 64, "value": 127}, "group": "control_change"}, {"time": 2269, "annotation": {"number": 64, "value": 0}, "group": "control_change"}, {"time": 2271, "annotation": {"number": 64, "value": 127}, "group": "control_change"}, {"time": 2293, "annotation": {"number": 64, "value": 0}, "group": "control_change"}, {"time": 2296, "annotation": {"number": 64, "value": 127}, "group": "control_change"}, {"time": 2318, "annotation": {"number": 64, "value": 0}, "group": "control_change"}, {"time": 2320, "annotation": {"number": 64, "value": 127}, "group": "control_change"}, {"time": 2342, "annotation": {"number": 64, "value": 0}, "group": "control_change"}, {"time": 2343, "annotation": {"number": 64, "value": 127}, "group": "control_change"}, {"time": 2362, "annotation": {"number": 64, "value": 127}, "group": "control_change"}, {"time": 2362, "annotation": {"number": 64, "value": 0}, "group": "control_change"}, {"time": 2365, "annotation": {"number": 64, "value": 0}, "group": "control_change"}, {"time": 2371, "annotation": {"number": 64, "value": 127}, "group": "control_change"}, {"time": 2374, "annotation": {"number": 64, "value": 0}, "group": "control_change"}, {"time": 2391, "annotation": {"number": 64, "value": 127}, "group": "control_change"}, {"time": 2413, "annotation": {"number": 64, "value": 0}, "group": "control_change"}, {"time": 2415, "annotation": {"number": 64, "value": 127}, "group": "control_change"}, {"time": 2436, "annotation": {"number": 64, "value": 0}, "group": "control_change"}, {"time": 2440, "annotation": {"number": 64, "value": 127}, "group": "control_change"}, {"time": 2462, "annotation": {"number": 64, "value": 0}, "group": "control_change"}, {"time": 2464, "annotation": {"number": 64, "value": 127}, "group": "control_change"}, {"time": 2485, "annotation": {"number": 64, "value": 0}, "group": "control_change"}, {"time": 2491, "annotation": {"number": 64, "value": 127}, "group": "control_change"}, {"time": 2510, "annotation": {"number": 64, "value": 0}, "group": "control_change"}, {"time": 2512, "annotation": {"number": 64, "value": 127}, "group": "control_change"}, {"time": 2533, "annotation": {"number": 64, "value": 0}, "group": "control_change"}, {"time": 2536, "annotation": {"number": 64, "value": 127}, "group": "control_change"}, {"time": 2557, "annotation": {"number": 64, "value": 0}, "group": "control_change"}, {"time": 2561, "annotation": {"number": 64, "value": 127}, "group": "control_change"}, {"time": 2581, "annotation": {"number": 64, "value": 0}, "group": "control_change"}, {"time": 2587, "annotation": {"number": 64, "value": 127}, "group": "control_change"}, {"time": 2606, "annotation": {"number": 64, "value": 0}, "group": "control_change"}, {"time": 2609, "annotation": {"number": 64, "value": 127}, "group": "control_change"}, {"time": 2628, "annotation": {"number": 64, "value": 0}, "group": "control_change"}, {"time": 2631, "annotation": {"number": 64, "value": 127}, "group": "control_change"}, {"time": 2653, "annotation": {"number": 64, "value": 0}, "group": "control_change"}, {"time": 2655, "annotation": {"number": 64, "value": 127}, "group": "control_change"}, {"time": 2677, "annotation": {"number": 64, "value": 0}, "group": "control_change"}, {"time": 2680, "annotation": {"number": 64, "value": 127}, "group": "control_change"}, {"time": 2702, "annotation": {"number": 64, "value": 0}, "group": "control_change"}, {"time": 2704, "annotation": {"number": 64, "value": 127}, "group": "control_change"}, {"time": 2726, "annotation": {"number": 64, "value": 0}, "group": "control_change"}, {"time": 2727, "annotation": {"number": 64, "value": 127}, "group": "control_change"}, {"time": 2746, "annotation": {"number": 64, "value": 127}, "group": "control_change"}, {"time": 2746, "annotation": {"number": 64, "value": 0}, "group": "control_change"}, {"time": 2749, "annotation": {"number": 64, "value": 0}, "group": "control_change"}, {"time": 2752, "annotation": {"number": 64, "value": 127}, "group": "control_change"}, {"time": 2774, "annotation": {"number": 64, "value": 0}, "group": "control_change"}, {"time": 2780, "annotation": {"number": 64, "value": 127}, "group": "control_change"}, {"time": 2797, "annotation": {"number": 64, "value": 0}, "group": "control_change"}, {"time": 2799, "annotation": {"number": 64, "value": 127}, "group": "control_change"}, {"time": 2820, "annotation": {"number": 64, "value": 0}, "group": "control_change"}, {"time": 2824, "annotation": {"number": 64, "value": 127}, "group": "control_change"}, {"time": 2846, "annotation": {"number": 64, "value": 0}, "group": "control_change"}, {"time": 2849, "annotation": {"number": 64, "value": 127}, "group": "control_change"}, {"time": 2868, "annotation": {"number": 64, "value": 0}, "group": "control_change"}, {"time": 2871, "annotation": {"number": 64, "value": 127}, "group": "control_change"}, {"time": 2894, "annotation": {"number": 64, "value": 0}, "group": "control_change"}, {"time": 2896, "annotation": {"number": 64, "value": 127}, "group": "control_change"}, {"time": 2917, "annotation": {"number": 64, "value": 0}, "group": "control_change"}, {"time": 2919, "annotation": {"number": 64, "value": 127}, "group": "control_change"}, {"time": 2940, "annotation": {"number": 64, "value": 0}, "group": "control_change"}, {"time": 2944, "annotation": {"number": 64, "value": 127}, "group": "control_change"}, {"time": 2966, "annotation": {"number": 64, "value": 0}, "group": "control_change"}, {"time": 2968, "annotation": {"number": 64, "value": 127}, "group": "control_change"}, {"time": 2969, "annotation": {"number": 64, "value": 0}, "group": "control_change"}, {"time": 2969, "annotation": {"number": 64, "value": 127}, "group": "control_change"}]}]}