{"metadata": {"schema_version": "0.2", "title": "None", "source_filename": "504.mid", "source_format": "midi"}, "resolution": 12, "tempos": [{"time": 0, "qpm": 98.00030380094178}], "time_signatures": [{"time": 0, "numerator": 1, "denominator": 4}], "tracks": [{"program": 0, "is_drum": false, "name": "MELODY", "notes": [{"time": 401, "pitch": 66, "duration": 5, "velocity": 96}, {"time": 407, "pitch": 68, "duration": 4, "velocity": 95}, {"time": 413, "pitch": 71, "duration": 4, "velocity": 97}, {"time": 419, "pitch": 68, "duration": 5, "velocity": 92}, {"time": 425, "pitch": 66, "duration": 5, "velocity": 94}, {"time": 431, "pitch": 68, "duration": 5, "velocity": 97}, {"time": 437, "pitch": 68, "duration": 5, "velocity": 96}, {"time": 443, "pitch": 59, "duration": 6, "velocity": 96}, {"time": 449, "pitch": 61, "duration": 21, "velocity": 92}, {"time": 473, "pitch": 64, "duration": 4, "velocity": 96}, {"time": 479, "pitch": 64, "duration": 12, "velocity": 95}, {"time": 491, "pitch": 61, "duration": 6, "velocity": 93}, {"time": 497, "pitch": 64, "duration": 12, "velocity": 99}, {"time": 509, "pitch": 66, "duration": 11, "velocity": 93}, {"time": 521, "pitch": 68, "duration": 5, "velocity": 96}, {"time": 527, "pitch": 71, "duration": 4, "velocity": 96}, {"time": 533, "pitch": 71, "duration": 4, "velocity": 96}, {"time": 539, "pitch": 66, "duration": 5, "velocity": 91}, {"time": 545, "pitch": 68, "duration": 18, "velocity": 91}, {"time": 569, "pitch": 73, "duration": 6, "velocity": 96}, {"time": 575, "pitch": 68, "duration": 5, "velocity": 94}, {"time": 581, "pitch": 68, "duration": 5, "velocity": 92}, {"time": 587, "pitch": 71, "duration": 4, "velocity": 95}, {"time": 593, "pitch": 73, "duration": 19, "velocity": 97}, {"time": 617, "pitch": 66, "duration": 4, "velocity": 91}, {"time": 623, "pitch": 66, "duration": 5, "velocity": 90}, {"time": 629, "pitch": 68, "duration": 5, "velocity": 91}, {"time": 635, "pitch": 66, "duration": 5, "velocity": 94}, {"time": 641, "pitch": 64, "duration": 21, "velocity": 92}, {"time": 665, "pitch": 66, "duration": 4, "velocity": 93}, {"time": 671, "pitch": 68, "duration": 4, "velocity": 94}, {"time": 677, "pitch": 71, "duration": 4, "velocity": 92}, {"time": 683, "pitch": 68, "duration": 5, "velocity": 92}, {"time": 689, "pitch": 66, "duration": 4, "velocity": 96}, {"time": 695, "pitch": 66, "duration": 9, "velocity": 90}, {"time": 707, "pitch": 68, "duration": 4, "velocity": 91}, {"time": 713, "pitch": 59, "duration": 5, "velocity": 82}, {"time": 719, "pitch": 56, "duration": 6, "velocity": 94}, {"time": 725, "pitch": 64, "duration": 5, "velocity": 91}, {"time": 731, "pitch": 63, "duration": 5, "velocity": 94}, {"time": 737, "pitch": 61, "duration": 24, "velocity": 92}, {"time": 785, "pitch": 66, "duration": 5, "velocity": 96}, {"time": 791, "pitch": 68, "duration": 4, "velocity": 95}, {"time": 797, "pitch": 71, "duration": 4, "velocity": 97}, {"time": 803, "pitch": 68, "duration": 5, "velocity": 92}, {"time": 809, "pitch": 66, "duration": 5, "velocity": 94}, {"time": 815, "pitch": 68, "duration": 5, "velocity": 97}, {"time": 821, "pitch": 68, "duration": 5, "velocity": 96}, {"time": 827, "pitch": 59, "duration": 6, "velocity": 96}, {"time": 833, "pitch": 61, "duration": 21, "velocity": 92}, {"time": 857, "pitch": 64, "duration": 4, "velocity": 96}, {"time": 863, "pitch": 64, "duration": 12, "velocity": 95}, {"time": 875, "pitch": 61, "duration": 6, "velocity": 93}, {"time": 881, "pitch": 64, "duration": 12, "velocity": 99}, {"time": 893, "pitch": 66, "duration": 11, "velocity": 93}, {"time": 905, "pitch": 68, "duration": 5, "velocity": 96}, {"time": 911, "pitch": 71, "duration": 4, "velocity": 96}, {"time": 917, "pitch": 71, "duration": 4, "velocity": 96}, {"time": 923, "pitch": 66, "duration": 5, "velocity": 91}, {"time": 929, "pitch": 68, "duration": 18, "velocity": 91}, {"time": 953, "pitch": 73, "duration": 6, "velocity": 96}, {"time": 959, "pitch": 68, "duration": 5, "velocity": 94}, {"time": 965, "pitch": 68, "duration": 5, "velocity": 92}, {"time": 971, "pitch": 71, "duration": 4, "velocity": 95}, {"time": 977, "pitch": 73, "duration": 19, "velocity": 97}, {"time": 1001, "pitch": 66, "duration": 4, "velocity": 91}, {"time": 1007, "pitch": 66, "duration": 5, "velocity": 90}, {"time": 1013, "pitch": 68, "duration": 5, "velocity": 91}, {"time": 1019, "pitch": 66, "duration": 5, "velocity": 94}, {"time": 1025, "pitch": 64, "duration": 21, "velocity": 92}, {"time": 1049, "pitch": 66, "duration": 4, "velocity": 93}, {"time": 1055, "pitch": 68, "duration": 4, "velocity": 94}, {"time": 1061, "pitch": 71, "duration": 4, "velocity": 92}, {"time": 1067, "pitch": 68, "duration": 5, "velocity": 92}, {"time": 1073, "pitch": 66, "duration": 4, "velocity": 96}, {"time": 1079, "pitch": 68, "duration": 9, "velocity": 90}, {"time": 1091, "pitch": 68, "duration": 4, "velocity": 91}, {"time": 1097, "pitch": 59, "duration": 5, "velocity": 82}, {"time": 1103, "pitch": 56, "duration": 6, "velocity": 94}, {"time": 1109, "pitch": 64, "duration": 5, "velocity": 91}, {"time": 1115, "pitch": 63, "duration": 5, "velocity": 94}, {"time": 1121, "pitch": 61, "duration": 24, "velocity": 92}, {"time": 1163, "pitch": 68, "duration": 5, "velocity": 96}, {"time": 1169, "pitch": 73, "duration": 4, "velocity": 104}, {"time": 1175, "pitch": 73, "duration": 4, "velocity": 106}, {"time": 1181, "pitch": 73, "duration": 5, "velocity": 104}, {"time": 1187, "pitch": 76, "duration": 5, "velocity": 94}, {"time": 1193, "pitch": 68, "duration": 13, "velocity": 101}, {"time": 1211, "pitch": 71, "duration": 5, "velocity": 92}, {"time": 1217, "pitch": 73, "duration": 4, "velocity": 101}, {"time": 1223, "pitch": 73, "duration": 4, "velocity": 91}, {"time": 1229, "pitch": 73, "duration": 6, "velocity": 95}, {"time": 1235, "pitch": 71, "duration": 5, "velocity": 96}, {"time": 1241, "pitch": 73, "duration": 5, "velocity": 99}, {"time": 1247, "pitch": 71, "duration": 4, "velocity": 101}, {"time": 1253, "pitch": 64, "duration": 5, "velocity": 92}, {"time": 1259, "pitch": 66, "duration": 5, "velocity": 93}, {"time": 1265, "pitch": 68, "duration": 19, "velocity": 91}, {"time": 1289, "pitch": 73, "duration": 2, "velocity": 106}, {"time": 1295, "pitch": 73, "duration": 5, "velocity": 99}, {"time": 1301, "pitch": 73, "duration": 4, "velocity": 107}, {"time": 1307, "pitch": 76, "duration": 4, "velocity": 96}, {"time": 1313, "pitch": 78, "duration": 10, "velocity": 94}, {"time": 1325, "pitch": 78, "duration": 10, "velocity": 92}, {"time": 1337, "pitch": 73, "duration": 4, "velocity": 96}, {"time": 1343, "pitch": 73, "duration": 4, "velocity": 97}, {"time": 1349, "pitch": 73, "duration": 5, "velocity": 97}, {"time": 1355, "pitch": 76, "duration": 5, "velocity": 91}, {"time": 1361, "pitch": 68, "duration": 15, "velocity": 93}, {"time": 1385, "pitch": 66, "duration": 5, "velocity": 92}, {"time": 1391, "pitch": 66, "duration": 4, "velocity": 92}, {"time": 1397, "pitch": 66, "duration": 4, "velocity": 92}, {"time": 1403, "pitch": 68, "duration": 5, "velocity": 94}, {"time": 1409, "pitch": 71, "duration": 10, "velocity": 96}, {"time": 1421, "pitch": 71, "duration": 4, "velocity": 92}, {"time": 1427, "pitch": 68, "duration": 5, "velocity": 92}, {"time": 1433, "pitch": 66, "duration": 5, "velocity": 94}, {"time": 1439, "pitch": 66, "duration": 5, "velocity": 91}, {"time": 1445, "pitch": 66, "duration": 4, "velocity": 92}, {"time": 1451, "pitch": 68, "duration": 5, "velocity": 94}, {"time": 1457, "pitch": 61, "duration": 19, "velocity": 90}, {"time": 1481, "pitch": 66, "duration": 5, "velocity": 95}, {"time": 1487, "pitch": 66, "duration": 3, "velocity": 94}, {"time": 1493, "pitch": 66, "duration": 5, "velocity": 92}, {"time": 1499, "pitch": 68, "duration": 5, "velocity": 95}, {"time": 1505, "pitch": 71, "duration": 9, "velocity": 97}, {"time": 1517, "pitch": 71, "duration": 11, "velocity": 96}, {"time": 1529, "pitch": 71, "duration": 5, "velocity": 95}, {"time": 1535, "pitch": 75, "duration": 4, "velocity": 97}, {"time": 1541, "pitch": 75, "duration": 5, "velocity": 95}, {"time": 1547, "pitch": 71, "duration": 5, "velocity": 97}, {"time": 1553, "pitch": 73, "duration": 36, "velocity": 99}, {"time": 1595, "pitch": 68, "duration": 5, "velocity": 96}, {"time": 1601, "pitch": 73, "duration": 4, "velocity": 104}, {"time": 1607, "pitch": 73, "duration": 4, "velocity": 106}, {"time": 1613, "pitch": 73, "duration": 5, "velocity": 104}, {"time": 1619, "pitch": 76, "duration": 5, "velocity": 94}, {"time": 1625, "pitch": 68, "duration": 13, "velocity": 101}, {"time": 1643, "pitch": 71, "duration": 5, "velocity": 92}, {"time": 1649, "pitch": 73, "duration": 4, "velocity": 101}, {"time": 1655, "pitch": 73, "duration": 4, "velocity": 91}, {"time": 1661, "pitch": 73, "duration": 6, "velocity": 95}, {"time": 1667, "pitch": 71, "duration": 5, "velocity": 96}, {"time": 1673, "pitch": 73, "duration": 5, "velocity": 99}, {"time": 1679, "pitch": 71, "duration": 4, "velocity": 101}, {"time": 1685, "pitch": 64, "duration": 5, "velocity": 92}, {"time": 1691, "pitch": 66, "duration": 5, "velocity": 93}, {"time": 1697, "pitch": 68, "duration": 19, "velocity": 91}, {"time": 1721, "pitch": 73, "duration": 2, "velocity": 106}, {"time": 1727, "pitch": 73, "duration": 5, "velocity": 99}, {"time": 1733, "pitch": 73, "duration": 4, "velocity": 107}, {"time": 1739, "pitch": 76, "duration": 4, "velocity": 96}, {"time": 1745, "pitch": 78, "duration": 10, "velocity": 94}, {"time": 1757, "pitch": 78, "duration": 10, "velocity": 92}, {"time": 1769, "pitch": 73, "duration": 4, "velocity": 96}, {"time": 1775, "pitch": 73, "duration": 4, "velocity": 97}, {"time": 1781, "pitch": 73, "duration": 5, "velocity": 97}, {"time": 1787, "pitch": 76, "duration": 5, "velocity": 91}, {"time": 1793, "pitch": 68, "duration": 15, "velocity": 93}, {"time": 1817, "pitch": 66, "duration": 5, "velocity": 92}, {"time": 1823, "pitch": 66, "duration": 4, "velocity": 92}, {"time": 1829, "pitch": 66, "duration": 4, "velocity": 92}, {"time": 1835, "pitch": 68, "duration": 5, "velocity": 94}, {"time": 1841, "pitch": 71, "duration": 10, "velocity": 96}, {"time": 1853, "pitch": 71, "duration": 4, "velocity": 92}, {"time": 1859, "pitch": 68, "duration": 5, "velocity": 92}, {"time": 1865, "pitch": 66, "duration": 5, "velocity": 94}, {"time": 1871, "pitch": 66, "duration": 5, "velocity": 91}, {"time": 1877, "pitch": 66, "duration": 4, "velocity": 92}, {"time": 1883, "pitch": 68, "duration": 5, "velocity": 94}, {"time": 1889, "pitch": 61, "duration": 19, "velocity": 90}, {"time": 1913, "pitch": 66, "duration": 5, "velocity": 95}, {"time": 1919, "pitch": 66, "duration": 3, "velocity": 94}, {"time": 1925, "pitch": 66, "duration": 5, "velocity": 92}, {"time": 1931, "pitch": 68, "duration": 5, "velocity": 95}, {"time": 1937, "pitch": 71, "duration": 9, "velocity": 97}, {"time": 1949, "pitch": 71, "duration": 11, "velocity": 96}, {"time": 1961, "pitch": 71, "duration": 5, "velocity": 95}, {"time": 1967, "pitch": 75, "duration": 4, "velocity": 97}, {"time": 1973, "pitch": 75, "duration": 5, "velocity": 95}, {"time": 1979, "pitch": 71, "duration": 5, "velocity": 97}, {"time": 1985, "pitch": 73, "duration": 36, "velocity": 99}, {"time": 2417, "pitch": 66, "duration": 5, "velocity": 96}, {"time": 2423, "pitch": 68, "duration": 4, "velocity": 95}, {"time": 2429, "pitch": 71, "duration": 4, "velocity": 97}, {"time": 2435, "pitch": 68, "duration": 5, "velocity": 92}, {"time": 2441, "pitch": 66, "duration": 5, "velocity": 94}, {"time": 2447, "pitch": 68, "duration": 5, "velocity": 97}, {"time": 2453, "pitch": 68, "duration": 5, "velocity": 96}, {"time": 2459, "pitch": 59, "duration": 6, "velocity": 96}, {"time": 2465, "pitch": 61, "duration": 21, "velocity": 92}, {"time": 2489, "pitch": 64, "duration": 4, "velocity": 96}, {"time": 2495, "pitch": 64, "duration": 12, "velocity": 95}, {"time": 2507, "pitch": 61, "duration": 6, "velocity": 93}, {"time": 2513, "pitch": 64, "duration": 12, "velocity": 99}, {"time": 2525, "pitch": 66, "duration": 11, "velocity": 93}, {"time": 2537, "pitch": 68, "duration": 5, "velocity": 96}, {"time": 2543, "pitch": 71, "duration": 4, "velocity": 96}, {"time": 2549, "pitch": 71, "duration": 4, "velocity": 96}, {"time": 2555, "pitch": 66, "duration": 5, "velocity": 91}, {"time": 2561, "pitch": 68, "duration": 18, "velocity": 91}, {"time": 2585, "pitch": 73, "duration": 6, "velocity": 96}, {"time": 2591, "pitch": 68, "duration": 5, "velocity": 94}, {"time": 2597, "pitch": 68, "duration": 5, "velocity": 92}, {"time": 2603, "pitch": 71, "duration": 4, "velocity": 95}, {"time": 2609, "pitch": 73, "duration": 19, "velocity": 97}, {"time": 2633, "pitch": 66, "duration": 4, "velocity": 91}, {"time": 2639, "pitch": 66, "duration": 5, "velocity": 90}, {"time": 2645, "pitch": 68, "duration": 5, "velocity": 91}, {"time": 2651, "pitch": 66, "duration": 5, "velocity": 94}, {"time": 2657, "pitch": 64, "duration": 21, "velocity": 92}, {"time": 2681, "pitch": 66, "duration": 4, "velocity": 93}, {"time": 2687, "pitch": 68, "duration": 4, "velocity": 94}, {"time": 2693, "pitch": 71, "duration": 4, "velocity": 92}, {"time": 2699, "pitch": 68, "duration": 5, "velocity": 92}, {"time": 2705, "pitch": 66, "duration": 4, "velocity": 96}, {"time": 2711, "pitch": 68, "duration": 9, "velocity": 90}, {"time": 2723, "pitch": 68, "duration": 4, "velocity": 91}, {"time": 2729, "pitch": 59, "duration": 5, "velocity": 82}, {"time": 2735, "pitch": 56, "duration": 6, "velocity": 94}, {"time": 2741, "pitch": 64, "duration": 5, "velocity": 91}, {"time": 2747, "pitch": 63, "duration": 5, "velocity": 94}, {"time": 2753, "pitch": 61, "duration": 24, "velocity": 92}, {"time": 2795, "pitch": 68, "duration": 5, "velocity": 96}, {"time": 2801, "pitch": 73, "duration": 4, "velocity": 104}, {"time": 2807, "pitch": 73, "duration": 4, "velocity": 106}, {"time": 2813, "pitch": 73, "duration": 5, "velocity": 104}, {"time": 2819, "pitch": 76, "duration": 5, "velocity": 94}, {"time": 2825, "pitch": 68, "duration": 13, "velocity": 101}, {"time": 2843, "pitch": 71, "duration": 5, "velocity": 92}, {"time": 2849, "pitch": 73, "duration": 4, "velocity": 101}, {"time": 2855, "pitch": 73, "duration": 4, "velocity": 91}, {"time": 2861, "pitch": 73, "duration": 6, "velocity": 95}, {"time": 2867, "pitch": 71, "duration": 5, "velocity": 96}, {"time": 2873, "pitch": 73, "duration": 5, "velocity": 99}, {"time": 2879, "pitch": 71, "duration": 4, "velocity": 101}, {"time": 2885, "pitch": 64, "duration": 5, "velocity": 92}, {"time": 2891, "pitch": 66, "duration": 5, "velocity": 93}, {"time": 2897, "pitch": 68, "duration": 19, "velocity": 91}, {"time": 2921, "pitch": 73, "duration": 2, "velocity": 106}, {"time": 2927, "pitch": 73, "duration": 5, "velocity": 99}, {"time": 2933, "pitch": 73, "duration": 4, "velocity": 107}, {"time": 2939, "pitch": 76, "duration": 4, "velocity": 96}, {"time": 2945, "pitch": 78, "duration": 10, "velocity": 94}, {"time": 2957, "pitch": 78, "duration": 10, "velocity": 92}, {"time": 2969, "pitch": 73, "duration": 4, "velocity": 96}, {"time": 2975, "pitch": 73, "duration": 4, "velocity": 97}, {"time": 2981, "pitch": 73, "duration": 5, "velocity": 97}, {"time": 2987, "pitch": 76, "duration": 5, "velocity": 91}, {"time": 2993, "pitch": 68, "duration": 15, "velocity": 93}, {"time": 3017, "pitch": 66, "duration": 5, "velocity": 92}, {"time": 3023, "pitch": 66, "duration": 4, "velocity": 92}, {"time": 3029, "pitch": 66, "duration": 4, "velocity": 92}, {"time": 3035, "pitch": 68, "duration": 5, "velocity": 94}, {"time": 3041, "pitch": 71, "duration": 10, "velocity": 96}, {"time": 3053, "pitch": 71, "duration": 4, "velocity": 92}, {"time": 3059, "pitch": 68, "duration": 5, "velocity": 92}, {"time": 3065, "pitch": 66, "duration": 5, "velocity": 94}, {"time": 3071, "pitch": 66, "duration": 5, "velocity": 91}, {"time": 3077, "pitch": 66, "duration": 4, "velocity": 92}, {"time": 3083, "pitch": 68, "duration": 5, "velocity": 94}, {"time": 3089, "pitch": 61, "duration": 19, "velocity": 90}, {"time": 3113, "pitch": 66, "duration": 5, "velocity": 95}, {"time": 3119, "pitch": 66, "duration": 3, "velocity": 94}, {"time": 3125, "pitch": 66, "duration": 5, "velocity": 92}, {"time": 3131, "pitch": 68, "duration": 5, "velocity": 95}, {"time": 3137, "pitch": 71, "duration": 9, "velocity": 97}, {"time": 3149, "pitch": 71, "duration": 11, "velocity": 96}, {"time": 3161, "pitch": 71, "duration": 5, "velocity": 95}, {"time": 3167, "pitch": 75, "duration": 4, "velocity": 97}, {"time": 3173, "pitch": 75, "duration": 5, "velocity": 95}, {"time": 3179, "pitch": 71, "duration": 5, "velocity": 97}, {"time": 3185, "pitch": 73, "duration": 36, "velocity": 99}, {"time": 3227, "pitch": 68, "duration": 5, "velocity": 96}, {"time": 3233, "pitch": 73, "duration": 4, "velocity": 104}, {"time": 3239, "pitch": 73, "duration": 4, "velocity": 106}, {"time": 3245, "pitch": 73, "duration": 5, "velocity": 104}, {"time": 3251, "pitch": 76, "duration": 5, "velocity": 94}, {"time": 3257, "pitch": 68, "duration": 13, "velocity": 101}, {"time": 3275, "pitch": 71, "duration": 5, "velocity": 92}, {"time": 3281, "pitch": 73, "duration": 4, "velocity": 101}, {"time": 3287, "pitch": 73, "duration": 4, "velocity": 91}, {"time": 3293, "pitch": 73, "duration": 6, "velocity": 95}, {"time": 3299, "pitch": 71, "duration": 5, "velocity": 96}, {"time": 3305, "pitch": 73, "duration": 5, "velocity": 99}, {"time": 3311, "pitch": 71, "duration": 4, "velocity": 101}, {"time": 3317, "pitch": 64, "duration": 5, "velocity": 92}, {"time": 3323, "pitch": 66, "duration": 5, "velocity": 93}, {"time": 3329, "pitch": 68, "duration": 19, "velocity": 91}, {"time": 3353, "pitch": 73, "duration": 2, "velocity": 106}, {"time": 3359, "pitch": 73, "duration": 5, "velocity": 99}, {"time": 3365, "pitch": 73, "duration": 4, "velocity": 107}, {"time": 3371, "pitch": 76, "duration": 4, "velocity": 96}, {"time": 3377, "pitch": 78, "duration": 10, "velocity": 94}, {"time": 3389, "pitch": 78, "duration": 10, "velocity": 92}, {"time": 3401, "pitch": 73, "duration": 4, "velocity": 96}, {"time": 3407, "pitch": 73, "duration": 4, "velocity": 97}, {"time": 3413, "pitch": 73, "duration": 5, "velocity": 97}, {"time": 3419, "pitch": 76, "duration": 5, "velocity": 91}, {"time": 3425, "pitch": 68, "duration": 15, "velocity": 93}, {"time": 3449, "pitch": 66, "duration": 5, "velocity": 92}, {"time": 3455, "pitch": 66, "duration": 4, "velocity": 92}, {"time": 3461, "pitch": 66, "duration": 4, "velocity": 92}, {"time": 3467, "pitch": 68, "duration": 5, "velocity": 94}, {"time": 3473, "pitch": 71, "duration": 10, "velocity": 96}, {"time": 3485, "pitch": 71, "duration": 4, "velocity": 92}, {"time": 3491, "pitch": 68, "duration": 5, "velocity": 92}, {"time": 3497, "pitch": 66, "duration": 5, "velocity": 94}, {"time": 3503, "pitch": 66, "duration": 5, "velocity": 91}, {"time": 3509, "pitch": 66, "duration": 4, "velocity": 92}, {"time": 3515, "pitch": 68, "duration": 5, "velocity": 94}, {"time": 3521, "pitch": 61, "duration": 19, "velocity": 90}, {"time": 3545, "pitch": 66, "duration": 5, "velocity": 95}, {"time": 3551, "pitch": 66, "duration": 3, "velocity": 94}, {"time": 3557, "pitch": 66, "duration": 5, "velocity": 92}, {"time": 3563, "pitch": 68, "duration": 5, "velocity": 95}, {"time": 3569, "pitch": 71, "duration": 9, "velocity": 97}, {"time": 3581, "pitch": 71, "duration": 11, "velocity": 96}, {"time": 3593, "pitch": 71, "duration": 5, "velocity": 95}, {"time": 3599, "pitch": 75, "duration": 4, "velocity": 97}, {"time": 3605, "pitch": 75, "duration": 5, "velocity": 95}, {"time": 3611, "pitch": 71, "duration": 5, "velocity": 97}, {"time": 3617, "pitch": 73, "duration": 36, "velocity": 99}, {"time": 3659, "pitch": 68, "duration": 5, "velocity": 96}, {"time": 3665, "pitch": 73, "duration": 4, "velocity": 104}, {"time": 3671, "pitch": 73, "duration": 4, "velocity": 106}, {"time": 3677, "pitch": 73, "duration": 5, "velocity": 104}, {"time": 3683, "pitch": 76, "duration": 5, "velocity": 94}, {"time": 3689, "pitch": 68, "duration": 13, "velocity": 101}, {"time": 3707, "pitch": 71, "duration": 5, "velocity": 92}, {"time": 3713, "pitch": 73, "duration": 4, "velocity": 101}, {"time": 3719, "pitch": 73, "duration": 4, "velocity": 91}, {"time": 3725, "pitch": 73, "duration": 6, "velocity": 95}, {"time": 3731, "pitch": 71, "duration": 5, "velocity": 96}, {"time": 3737, "pitch": 73, "duration": 5, "velocity": 99}, {"time": 3743, "pitch": 71, "duration": 4, "velocity": 101}, {"time": 3749, "pitch": 64, "duration": 5, "velocity": 92}, {"time": 3755, "pitch": 66, "duration": 5, "velocity": 93}, {"time": 3761, "pitch": 68, "duration": 19, "velocity": 91}, {"time": 3785, "pitch": 73, "duration": 2, "velocity": 106}, {"time": 3791, "pitch": 73, "duration": 5, "velocity": 99}, {"time": 3797, "pitch": 73, "duration": 4, "velocity": 107}, {"time": 3803, "pitch": 76, "duration": 4, "velocity": 96}, {"time": 3809, "pitch": 78, "duration": 10, "velocity": 94}, {"time": 3821, "pitch": 78, "duration": 10, "velocity": 92}, {"time": 3833, "pitch": 73, "duration": 4, "velocity": 96}, {"time": 3839, "pitch": 73, "duration": 4, "velocity": 97}, {"time": 3845, "pitch": 73, "duration": 5, "velocity": 97}, {"time": 3851, "pitch": 76, "duration": 5, "velocity": 91}, {"time": 3857, "pitch": 68, "duration": 15, "velocity": 93}, {"time": 3881, "pitch": 66, "duration": 5, "velocity": 92}, {"time": 3887, "pitch": 66, "duration": 4, "velocity": 92}, {"time": 3893, "pitch": 66, "duration": 4, "velocity": 92}, {"time": 3899, "pitch": 68, "duration": 5, "velocity": 94}, {"time": 3905, "pitch": 71, "duration": 10, "velocity": 96}, {"time": 3917, "pitch": 71, "duration": 4, "velocity": 92}, {"time": 3923, "pitch": 68, "duration": 5, "velocity": 92}, {"time": 3929, "pitch": 66, "duration": 5, "velocity": 94}, {"time": 3935, "pitch": 66, "duration": 5, "velocity": 91}, {"time": 3941, "pitch": 66, "duration": 4, "velocity": 92}, {"time": 3947, "pitch": 68, "duration": 5, "velocity": 94}, {"time": 3953, "pitch": 61, "duration": 19, "velocity": 90}, {"time": 3977, "pitch": 66, "duration": 5, "velocity": 95}, {"time": 3983, "pitch": 66, "duration": 3, "velocity": 94}, {"time": 3989, "pitch": 66, "duration": 5, "velocity": 92}, {"time": 3995, "pitch": 68, "duration": 5, "velocity": 95}, {"time": 4001, "pitch": 71, "duration": 9, "velocity": 97}, {"time": 4013, "pitch": 71, "duration": 11, "velocity": 96}, {"time": 4025, "pitch": 71, "duration": 5, "velocity": 95}, {"time": 4031, "pitch": 75, "duration": 4, "velocity": 97}, {"time": 4037, "pitch": 75, "duration": 5, "velocity": 95}, {"time": 4043, "pitch": 71, "duration": 5, "velocity": 97}, {"time": 4049, "pitch": 73, "duration": 36, "velocity": 99}, {"time": 4091, "pitch": 68, "duration": 5, "velocity": 96}, {"time": 4097, "pitch": 73, "duration": 4, "velocity": 104}, {"time": 4103, "pitch": 73, "duration": 4, "velocity": 106}, {"time": 4109, "pitch": 73, "duration": 5, "velocity": 104}, {"time": 4115, "pitch": 76, "duration": 5, "velocity": 94}, {"time": 4121, "pitch": 68, "duration": 13, "velocity": 101}, {"time": 4139, "pitch": 71, "duration": 5, "velocity": 92}, {"time": 4145, "pitch": 73, "duration": 4, "velocity": 101}, {"time": 4151, "pitch": 73, "duration": 4, "velocity": 91}, {"time": 4157, "pitch": 73, "duration": 6, "velocity": 95}, {"time": 4163, "pitch": 71, "duration": 5, "velocity": 96}, {"time": 4169, "pitch": 73, "duration": 5, "velocity": 99}, {"time": 4175, "pitch": 71, "duration": 4, "velocity": 101}, {"time": 4181, "pitch": 64, "duration": 5, "velocity": 92}, {"time": 4187, "pitch": 66, "duration": 5, "velocity": 93}, {"time": 4193, "pitch": 68, "duration": 19, "velocity": 91}, {"time": 4217, "pitch": 73, "duration": 2, "velocity": 106}, {"time": 4223, "pitch": 73, "duration": 5, "velocity": 99}, {"time": 4229, "pitch": 73, "duration": 4, "velocity": 107}, {"time": 4235, "pitch": 76, "duration": 4, "velocity": 96}, {"time": 4241, "pitch": 78, "duration": 10, "velocity": 94}, {"time": 4253, "pitch": 78, "duration": 10, "velocity": 92}, {"time": 4265, "pitch": 73, "duration": 4, "velocity": 96}, {"time": 4271, "pitch": 73, "duration": 4, "velocity": 97}, {"time": 4277, "pitch": 73, "duration": 5, "velocity": 97}, {"time": 4283, "pitch": 76, "duration": 5, "velocity": 91}, {"time": 4289, "pitch": 68, "duration": 15, "velocity": 93}, {"time": 4313, "pitch": 66, "duration": 5, "velocity": 92}, {"time": 4319, "pitch": 66, "duration": 4, "velocity": 92}, {"time": 4325, "pitch": 66, "duration": 4, "velocity": 92}, {"time": 4331, "pitch": 68, "duration": 5, "velocity": 94}, {"time": 4337, "pitch": 71, "duration": 10, "velocity": 96}, {"time": 4349, "pitch": 71, "duration": 4, "velocity": 92}, {"time": 4355, "pitch": 68, "duration": 5, "velocity": 92}, {"time": 4361, "pitch": 66, "duration": 5, "velocity": 94}, {"time": 4367, "pitch": 66, "duration": 5, "velocity": 91}, {"time": 4373, "pitch": 66, "duration": 4, "velocity": 92}, {"time": 4379, "pitch": 68, "duration": 5, "velocity": 94}, {"time": 4385, "pitch": 61, "duration": 19, "velocity": 90}, {"time": 4409, "pitch": 66, "duration": 5, "velocity": 95}, {"time": 4415, "pitch": 66, "duration": 3, "velocity": 94}, {"time": 4421, "pitch": 66, "duration": 5, "velocity": 92}, {"time": 4427, "pitch": 68, "duration": 5, "velocity": 95}, {"time": 4433, "pitch": 71, "duration": 9, "velocity": 97}, {"time": 4445, "pitch": 71, "duration": 11, "velocity": 96}, {"time": 4457, "pitch": 71, "duration": 5, "velocity": 95}, {"time": 4463, "pitch": 75, "duration": 4, "velocity": 97}, {"time": 4469, "pitch": 75, "duration": 5, "velocity": 95}, {"time": 4475, "pitch": 71, "duration": 5, "velocity": 97}, {"time": 4481, "pitch": 73, "duration": 36, "velocity": 99}]}, {"program": 0, "is_drum": false, "name": "PIANO", "notes": [{"time": 17, "pitch": 49, "duration": 37, "velocity": 96}, {"time": 23, "pitch": 56, "duration": 9, "velocity": 83}, {"time": 29, "pitch": 61, "duration": 8, "velocity": 101}, {"time": 35, "pitch": 56, "duration": 9, "velocity": 79}, {"time": 41, "pitch": 61, "duration": 10, "velocity": 95}, {"time": 41, "pitch": 64, "duration": 8, "velocity": 95}, {"time": 47, "pitch": 56, "duration": 6, "velocity": 78}, {"time": 53, "pitch": 64, "duration": 7, "velocity": 97}, {"time": 53, "pitch": 68, "duration": 8, "velocity": 96}, {"time": 59, "pitch": 61, "duration": 3, "velocity": 84}, {"time": 65, "pitch": 40, "duration": 42, "velocity": 90}, {"time": 65, "pitch": 59, "duration": 8, "velocity": 90}, {"time": 65, "pitch": 64, "duration": 14, "velocity": 88}, {"time": 71, "pitch": 47, "duration": 9, "velocity": 82}, {"time": 77, "pitch": 59, "duration": 14, "velocity": 101}, {"time": 83, "pitch": 47, "duration": 10, "velocity": 82}, {"time": 89, "pitch": 64, "duration": 12, "velocity": 96}, {"time": 89, "pitch": 68, "duration": 13, "velocity": 91}, {"time": 95, "pitch": 47, "duration": 12, "velocity": 82}, {"time": 101, "pitch": 59, "duration": 8, "velocity": 95}, {"time": 107, "pitch": 64, "duration": 6, "velocity": 93}, {"time": 113, "pitch": 42, "duration": 43, "velocity": 91}, {"time": 113, "pitch": 61, "duration": 8, "velocity": 92}, {"time": 113, "pitch": 66, "duration": 6, "velocity": 84}, {"time": 119, "pitch": 49, "duration": 38, "velocity": 83}, {"time": 125, "pitch": 61, "duration": 4, "velocity": 90}, {"time": 125, "pitch": 69, "duration": 11, "velocity": 91}, {"time": 131, "pitch": 61, "duration": 5, "velocity": 90}, {"time": 137, "pitch": 61, "duration": 1, "velocity": 77}, {"time": 137, "pitch": 66, "duration": 8, "velocity": 94}, {"time": 143, "pitch": 61, "duration": 5, "velocity": 82}, {"time": 149, "pitch": 61, "duration": 3, "velocity": 96}, {"time": 149, "pitch": 66, "duration": 10, "velocity": 96}, {"time": 155, "pitch": 61, "duration": 4, "velocity": 86}, {"time": 161, "pitch": 44, "duration": 45, "velocity": 92}, {"time": 161, "pitch": 63, "duration": 4, "velocity": 94}, {"time": 161, "pitch": 68, "duration": 19, "velocity": 91}, {"time": 167, "pitch": 51, "duration": 23, "velocity": 85}, {"time": 173, "pitch": 56, "duration": 8, "velocity": 97}, {"time": 179, "pitch": 63, "duration": 5, "velocity": 96}, {"time": 185, "pitch": 56, "duration": 8, "velocity": 91}, {"time": 185, "pitch": 63, "duration": 9, "velocity": 85}, {"time": 185, "pitch": 68, "duration": 10, "velocity": 94}, {"time": 191, "pitch": 51, "duration": 8, "velocity": 91}, {"time": 197, "pitch": 56, "duration": 7, "velocity": 96}, {"time": 197, "pitch": 63, "duration": 7, "velocity": 96}, {"time": 197, "pitch": 68, "duration": 7, "velocity": 89}, {"time": 203, "pitch": 51, "duration": 4, "velocity": 91}, {"time": 209, "pitch": 49, "duration": 42, "velocity": 90}, {"time": 209, "pitch": 56, "duration": 7, "velocity": 91}, {"time": 209, "pitch": 61, "duration": 14, "velocity": 91}, {"time": 215, "pitch": 52, "duration": 35, "velocity": 77}, {"time": 221, "pitch": 56, "duration": 12, "velocity": 99}, {"time": 227, "pitch": 61, "duration": 7, "velocity": 91}, {"time": 233, "pitch": 64, "duration": 7, "velocity": 95}, {"time": 239, "pitch": 56, "duration": 8, "velocity": 91}, {"time": 245, "pitch": 68, "duration": 15, "velocity": 89}, {"time": 251, "pitch": 56, "duration": 9, "velocity": 97}, {"time": 257, "pitch": 42, "duration": 44, "velocity": 92}, {"time": 263, "pitch": 49, "duration": 39, "velocity": 90}, {"time": 269, "pitch": 57, "duration": 7, "velocity": 85}, {"time": 269, "pitch": 61, "duration": 8, "velocity": 90}, {"time": 275, "pitch": 54, "duration": 8, "velocity": 92}, {"time": 281, "pitch": 57, "duration": 7, "velocity": 78}, {"time": 281, "pitch": 61, "duration": 8, "velocity": 90}, {"time": 281, "pitch": 66, "duration": 11, "velocity": 90}, {"time": 287, "pitch": 54, "duration": 7, "velocity": 93}, {"time": 293, "pitch": 57, "duration": 7, "velocity": 95}, {"time": 299, "pitch": 54, "duration": 4, "velocity": 96}, {"time": 305, "pitch": 44, "duration": 40, "velocity": 92}, {"time": 305, "pitch": 56, "duration": 14, "velocity": 92}, {"time": 305, "pitch": 59, "duration": 14, "velocity": 92}, {"time": 311, "pitch": 51, "duration": 33, "velocity": 87}, {"time": 317, "pitch": 63, "duration": 16, "velocity": 91}, {"time": 323, "pitch": 59, "duration": 11, "velocity": 85}, {"time": 329, "pitch": 68, "duration": 14, "velocity": 87}, {"time": 335, "pitch": 63, "duration": 7, "velocity": 94}, {"time": 341, "pitch": 59, "duration": 7, "velocity": 93}, {"time": 347, "pitch": 56, "duration": 5, "velocity": 94}, {"time": 353, "pitch": 37, "duration": 38, "velocity": 92}, {"time": 353, "pitch": 56, "duration": 8, "velocity": 90}, {"time": 353, "pitch": 61, "duration": 14, "velocity": 90}, {"time": 359, "pitch": 44, "duration": 32, "velocity": 83}, {"time": 365, "pitch": 56, "duration": 24, "velocity": 94}, {"time": 371, "pitch": 61, "duration": 7, "velocity": 91}, {"time": 377, "pitch": 64, "duration": 14, "velocity": 91}, {"time": 401, "pitch": 42, "duration": 18, "velocity": 90}, {"time": 401, "pitch": 54, "duration": 8, "velocity": 72}, {"time": 401, "pitch": 57, "duration": 14, "velocity": 84}, {"time": 401, "pitch": 61, "duration": 17, "velocity": 88}, {"time": 407, "pitch": 49, "duration": 13, "velocity": 83}, {"time": 413, "pitch": 54, "duration": 5, "velocity": 92}, {"time": 425, "pitch": 44, "duration": 20, "velocity": 91}, {"time": 425, "pitch": 56, "duration": 8, "velocity": 86}, {"time": 425, "pitch": 59, "duration": 12, "velocity": 87}, {"time": 431, "pitch": 51, "duration": 14, "velocity": 86}, {"time": 437, "pitch": 56, "duration": 9, "velocity": 91}, {"time": 443, "pitch": 59, "duration": 7, "velocity": 95}, {"time": 449, "pitch": 49, "duration": 17, "velocity": 90}, {"time": 449, "pitch": 61, "duration": 14, "velocity": 90}, {"time": 455, "pitch": 52, "duration": 11, "velocity": 74}, {"time": 461, "pitch": 56, "duration": 9, "velocity": 95}, {"time": 473, "pitch": 45, "duration": 39, "velocity": 93}, {"time": 473, "pitch": 57, "duration": 9, "velocity": 90}, {"time": 473, "pitch": 61, "duration": 14, "velocity": 90}, {"time": 476, "pitch": 52, "duration": 23, "velocity": 79}, {"time": 485, "pitch": 57, "duration": 17, "velocity": 93}, {"time": 497, "pitch": 61, "duration": 13, "velocity": 86}, {"time": 497, "pitch": 64, "duration": 14, "velocity": 90}, {"time": 503, "pitch": 52, "duration": 9, "velocity": 86}, {"time": 509, "pitch": 57, "duration": 7, "velocity": 101}, {"time": 521, "pitch": 40, "duration": 19, "velocity": 90}, {"time": 521, "pitch": 56, "duration": 8, "velocity": 88}, {"time": 521, "pitch": 59, "duration": 13, "velocity": 93}, {"time": 527, "pitch": 47, "duration": 14, "velocity": 84}, {"time": 533, "pitch": 56, "duration": 14, "velocity": 86}, {"time": 536, "pitch": 59, "duration": 8, "velocity": 89}, {"time": 545, "pitch": 44, "duration": 22, "velocity": 92}, {"time": 551, "pitch": 51, "duration": 16, "velocity": 90}, {"time": 557, "pitch": 56, "duration": 10, "velocity": 92}, {"time": 557, "pitch": 63, "duration": 10, "velocity": 93}, {"time": 569, "pitch": 49, "duration": 17, "velocity": 101}, {"time": 569, "pitch": 56, "duration": 7, "velocity": 91}, {"time": 569, "pitch": 61, "duration": 13, "velocity": 92}, {"time": 572, "pitch": 52, "duration": 11, "velocity": 78}, {"time": 581, "pitch": 56, "duration": 18, "velocity": 96}, {"time": 587, "pitch": 61, "duration": 9, "velocity": 90}, {"time": 593, "pitch": 37, "duration": 14, "velocity": 92}, {"time": 593, "pitch": 64, "duration": 14, "velocity": 91}, {"time": 596, "pitch": 44, "duration": 8, "velocity": 79}, {"time": 605, "pitch": 56, "duration": 5, "velocity": 95}, {"time": 617, "pitch": 42, "duration": 13, "velocity": 91}, {"time": 617, "pitch": 54, "duration": 13, "velocity": 84}, {"time": 617, "pitch": 61, "duration": 13, "velocity": 88}, {"time": 623, "pitch": 49, "duration": 8, "velocity": 90}, {"time": 629, "pitch": 57, "duration": 3, "velocity": 92}, {"time": 641, "pitch": 49, "duration": 14, "velocity": 91}, {"time": 641, "pitch": 56, "duration": 10, "velocity": 85}, {"time": 641, "pitch": 61, "duration": 13, "velocity": 90}, {"time": 647, "pitch": 52, "duration": 8, "velocity": 78}, {"time": 653, "pitch": 64, "duration": 8, "velocity": 91}, {"time": 659, "pitch": 56, "duration": 4, "velocity": 63}, {"time": 665, "pitch": 42, "duration": 16, "velocity": 91}, {"time": 665, "pitch": 54, "duration": 7, "velocity": 84}, {"time": 665, "pitch": 57, "duration": 13, "velocity": 78}, {"time": 671, "pitch": 49, "duration": 11, "velocity": 89}, {"time": 677, "pitch": 54, "duration": 5, "velocity": 91}, {"time": 689, "pitch": 42, "duration": 19, "velocity": 92}, {"time": 689, "pitch": 57, "duration": 14, "velocity": 91}, {"time": 689, "pitch": 61, "duration": 18, "velocity": 90}, {"time": 695, "pitch": 49, "duration": 14, "velocity": 91}, {"time": 701, "pitch": 54, "duration": 6, "velocity": 91}, {"time": 713, "pitch": 44, "duration": 15, "velocity": 93}, {"time": 713, "pitch": 56, "duration": 9, "velocity": 87}, {"time": 713, "pitch": 59, "duration": 13, "velocity": 91}, {"time": 719, "pitch": 51, "duration": 8, "velocity": 87}, {"time": 725, "pitch": 56, "duration": 8, "velocity": 99}, {"time": 731, "pitch": 59, "duration": 7, "velocity": 101}, {"time": 737, "pitch": 37, "duration": 48, "velocity": 97}, {"time": 737, "pitch": 61, "duration": 13, "velocity": 92}, {"time": 743, "pitch": 44, "duration": 42, "velocity": 85}, {"time": 749, "pitch": 56, "duration": 7, "velocity": 101}, {"time": 755, "pitch": 61, "duration": 7, "velocity": 90}, {"time": 761, "pitch": 64, "duration": 8, "velocity": 96}, {"time": 767, "pitch": 56, "duration": 4, "velocity": 86}, {"time": 773, "pitch": 56, "duration": 12, "velocity": 90}, {"time": 773, "pitch": 61, "duration": 12, "velocity": 91}, {"time": 785, "pitch": 42, "duration": 18, "velocity": 90}, {"time": 785, "pitch": 54, "duration": 8, "velocity": 72}, {"time": 785, "pitch": 57, "duration": 14, "velocity": 84}, {"time": 785, "pitch": 61, "duration": 17, "velocity": 88}, {"time": 791, "pitch": 49, "duration": 13, "velocity": 83}, {"time": 797, "pitch": 54, "duration": 5, "velocity": 92}, {"time": 809, "pitch": 44, "duration": 20, "velocity": 91}, {"time": 809, "pitch": 56, "duration": 8, "velocity": 86}, {"time": 809, "pitch": 59, "duration": 12, "velocity": 87}, {"time": 815, "pitch": 51, "duration": 14, "velocity": 86}, {"time": 821, "pitch": 56, "duration": 9, "velocity": 91}, {"time": 827, "pitch": 59, "duration": 7, "velocity": 95}, {"time": 833, "pitch": 49, "duration": 17, "velocity": 90}, {"time": 833, "pitch": 61, "duration": 14, "velocity": 90}, {"time": 839, "pitch": 52, "duration": 11, "velocity": 74}, {"time": 845, "pitch": 56, "duration": 9, "velocity": 95}, {"time": 857, "pitch": 45, "duration": 39, "velocity": 93}, {"time": 857, "pitch": 57, "duration": 9, "velocity": 90}, {"time": 857, "pitch": 61, "duration": 14, "velocity": 90}, {"time": 860, "pitch": 52, "duration": 23, "velocity": 79}, {"time": 869, "pitch": 57, "duration": 17, "velocity": 93}, {"time": 881, "pitch": 61, "duration": 13, "velocity": 86}, {"time": 881, "pitch": 64, "duration": 14, "velocity": 90}, {"time": 887, "pitch": 52, "duration": 9, "velocity": 86}, {"time": 893, "pitch": 57, "duration": 7, "velocity": 101}, {"time": 905, "pitch": 40, "duration": 19, "velocity": 90}, {"time": 905, "pitch": 56, "duration": 8, "velocity": 88}, {"time": 905, "pitch": 59, "duration": 13, "velocity": 93}, {"time": 911, "pitch": 47, "duration": 14, "velocity": 84}, {"time": 917, "pitch": 56, "duration": 14, "velocity": 86}, {"time": 920, "pitch": 59, "duration": 8, "velocity": 89}, {"time": 929, "pitch": 44, "duration": 22, "velocity": 92}, {"time": 935, "pitch": 51, "duration": 16, "velocity": 90}, {"time": 941, "pitch": 56, "duration": 10, "velocity": 92}, {"time": 941, "pitch": 63, "duration": 10, "velocity": 93}, {"time": 953, "pitch": 49, "duration": 17, "velocity": 101}, {"time": 953, "pitch": 56, "duration": 7, "velocity": 91}, {"time": 953, "pitch": 61, "duration": 13, "velocity": 92}, {"time": 956, "pitch": 52, "duration": 11, "velocity": 78}, {"time": 965, "pitch": 56, "duration": 18, "velocity": 96}, {"time": 971, "pitch": 61, "duration": 9, "velocity": 90}, {"time": 977, "pitch": 37, "duration": 14, "velocity": 92}, {"time": 977, "pitch": 64, "duration": 14, "velocity": 91}, {"time": 980, "pitch": 44, "duration": 8, "velocity": 79}, {"time": 989, "pitch": 56, "duration": 5, "velocity": 95}, {"time": 1001, "pitch": 42, "duration": 13, "velocity": 91}, {"time": 1001, "pitch": 54, "duration": 13, "velocity": 84}, {"time": 1001, "pitch": 61, "duration": 13, "velocity": 88}, {"time": 1007, "pitch": 49, "duration": 8, "velocity": 90}, {"time": 1013, "pitch": 57, "duration": 3, "velocity": 92}, {"time": 1025, "pitch": 49, "duration": 14, "velocity": 91}, {"time": 1025, "pitch": 56, "duration": 10, "velocity": 85}, {"time": 1025, "pitch": 61, "duration": 13, "velocity": 90}, {"time": 1031, "pitch": 52, "duration": 8, "velocity": 78}, {"time": 1037, "pitch": 64, "duration": 8, "velocity": 91}, {"time": 1043, "pitch": 56, "duration": 4, "velocity": 63}, {"time": 1049, "pitch": 42, "duration": 16, "velocity": 91}, {"time": 1049, "pitch": 54, "duration": 7, "velocity": 84}, {"time": 1049, "pitch": 57, "duration": 13, "velocity": 78}, {"time": 1055, "pitch": 49, "duration": 11, "velocity": 89}, {"time": 1061, "pitch": 54, "duration": 5, "velocity": 91}, {"time": 1073, "pitch": 42, "duration": 19, "velocity": 92}, {"time": 1073, "pitch": 57, "duration": 14, "velocity": 91}, {"time": 1073, "pitch": 61, "duration": 18, "velocity": 90}, {"time": 1079, "pitch": 49, "duration": 14, "velocity": 91}, {"time": 1085, "pitch": 54, "duration": 6, "velocity": 91}, {"time": 1097, "pitch": 44, "duration": 15, "velocity": 93}, {"time": 1097, "pitch": 56, "duration": 9, "velocity": 87}, {"time": 1097, "pitch": 59, "duration": 13, "velocity": 91}, {"time": 1103, "pitch": 51, "duration": 8, "velocity": 87}, {"time": 1109, "pitch": 56, "duration": 8, "velocity": 99}, {"time": 1115, "pitch": 59, "duration": 7, "velocity": 101}, {"time": 1121, "pitch": 37, "duration": 48, "velocity": 97}, {"time": 1121, "pitch": 61, "duration": 13, "velocity": 92}, {"time": 1127, "pitch": 44, "duration": 42, "velocity": 85}, {"time": 1133, "pitch": 56, "duration": 7, "velocity": 101}, {"time": 1139, "pitch": 61, "duration": 7, "velocity": 90}, {"time": 1145, "pitch": 64, "duration": 8, "velocity": 96}, {"time": 1151, "pitch": 56, "duration": 4, "velocity": 86}, {"time": 1157, "pitch": 56, "duration": 12, "velocity": 90}, {"time": 1157, "pitch": 61, "duration": 12, "velocity": 91}, {"time": 1169, "pitch": 37, "duration": 37, "velocity": 97}, {"time": 1169, "pitch": 56, "duration": 10, "velocity": 89}, {"time": 1169, "pitch": 64, "duration": 9, "velocity": 90}, {"time": 1175, "pitch": 44, "duration": 30, "velocity": 87}, {"time": 1181, "pitch": 61, "duration": 8, "velocity": 96}, {"time": 1181, "pitch": 64, "duration": 7, "velocity": 96}, {"time": 1187, "pitch": 56, "duration": 5, "velocity": 92}, {"time": 1193, "pitch": 56, "duration": 4, "velocity": 92}, {"time": 1193, "pitch": 61, "duration": 7, "velocity": 92}, {"time": 1199, "pitch": 56, "duration": 4, "velocity": 94}, {"time": 1205, "pitch": 56, "duration": 3, "velocity": 92}, {"time": 1205, "pitch": 61, "duration": 7, "velocity": 94}, {"time": 1205, "pitch": 64, "duration": 8, "velocity": 96}, {"time": 1211, "pitch": 56, "duration": 3, "velocity": 91}, {"time": 1217, "pitch": 45, "duration": 38, "velocity": 101}, {"time": 1220, "pitch": 52, "duration": 8, "velocity": 91}, {"time": 1229, "pitch": 57, "duration": 7, "velocity": 107}, {"time": 1232, "pitch": 52, "duration": 5, "velocity": 83}, {"time": 1241, "pitch": 57, "duration": 7, "velocity": 93}, {"time": 1241, "pitch": 61, "duration": 7, "velocity": 91}, {"time": 1244, "pitch": 52, "duration": 4, "velocity": 86}, {"time": 1253, "pitch": 52, "duration": 2, "velocity": 92}, {"time": 1253, "pitch": 57, "duration": 7, "velocity": 104}, {"time": 1253, "pitch": 61, "duration": 10, "velocity": 92}, {"time": 1259, "pitch": 52, "duration": 5, "velocity": 92}, {"time": 1265, "pitch": 40, "duration": 17, "velocity": 92}, {"time": 1265, "pitch": 52, "duration": 13, "velocity": 90}, {"time": 1265, "pitch": 56, "duration": 10, "velocity": 91}, {"time": 1271, "pitch": 47, "duration": 11, "velocity": 84}, {"time": 1277, "pitch": 56, "duration": 5, "velocity": 88}, {"time": 1277, "pitch": 59, "duration": 5, "velocity": 93}, {"time": 1289, "pitch": 49, "duration": 13, "velocity": 91}, {"time": 1289, "pitch": 56, "duration": 4, "velocity": 81}, {"time": 1289, "pitch": 58, "duration": 1, "velocity": 78}, {"time": 1289, "pitch": 61, "duration": 8, "velocity": 90}, {"time": 1295, "pitch": 56, "duration": 7, "velocity": 94}, {"time": 1301, "pitch": 61, "duration": 4, "velocity": 91}, {"time": 1301, "pitch": 64, "duration": 8, "velocity": 92}, {"time": 1304, "pitch": 56, "duration": 4, "velocity": 72}, {"time": 1313, "pitch": 42, "duration": 18, "velocity": 92}, {"time": 1319, "pitch": 49, "duration": 13, "velocity": 93}, {"time": 1325, "pitch": 54, "duration": 8, "velocity": 94}, {"time": 1325, "pitch": 61, "duration": 2, "velocity": 68}, {"time": 1331, "pitch": 57, "duration": 3, "velocity": 97}, {"time": 1337, "pitch": 49, "duration": 16, "velocity": 99}, {"time": 1337, "pitch": 56, "duration": 4, "velocity": 91}, {"time": 1337, "pitch": 61, "duration": 7, "velocity": 91}, {"time": 1343, "pitch": 56, "duration": 8, "velocity": 92}, {"time": 1349, "pitch": 61, "duration": 10, "velocity": 101}, {"time": 1349, "pitch": 64, "duration": 7, "velocity": 96}, {"time": 1355, "pitch": 56, "duration": 4, "velocity": 90}, {"time": 1361, "pitch": 44, "duration": 14, "velocity": 92}, {"time": 1361, "pitch": 56, "duration": 8, "velocity": 92}, {"time": 1361, "pitch": 59, "duration": 8, "velocity": 90}, {"time": 1367, "pitch": 51, "duration": 8, "velocity": 88}, {"time": 1373, "pitch": 56, "duration": 5, "velocity": 92}, {"time": 1373, "pitch": 59, "duration": 4, "velocity": 101}, {"time": 1373, "pitch": 63, "duration": 7, "velocity": 96}, {"time": 1385, "pitch": 42, "duration": 16, "velocity": 92}, {"time": 1385, "pitch": 54, "duration": 13, "velocity": 90}, {"time": 1385, "pitch": 61, "duration": 14, "velocity": 90}, {"time": 1391, "pitch": 49, "duration": 10, "velocity": 90}, {"time": 1397, "pitch": 57, "duration": 7, "velocity": 94}, {"time": 1403, "pitch": 54, "duration": 3, "velocity": 94}, {"time": 1409, "pitch": 44, "duration": 14, "velocity": 93}, {"time": 1409, "pitch": 56, "duration": 9, "velocity": 94}, {"time": 1409, "pitch": 59, "duration": 9, "velocity": 93}, {"time": 1415, "pitch": 51, "duration": 7, "velocity": 92}, {"time": 1421, "pitch": 59, "duration": 10, "velocity": 97}, {"time": 1421, "pitch": 63, "duration": 7, "velocity": 99}, {"time": 1433, "pitch": 35, "duration": 15, "velocity": 91}, {"time": 1433, "pitch": 54, "duration": 7, "velocity": 94}, {"time": 1433, "pitch": 59, "duration": 9, "velocity": 92}, {"time": 1439, "pitch": 42, "duration": 8, "velocity": 86}, {"time": 1445, "pitch": 54, "duration": 2, "velocity": 91}, {"time": 1445, "pitch": 59, "duration": 10, "velocity": 99}, {"time": 1445, "pitch": 63, "duration": 11, "velocity": 94}, {"time": 1451, "pitch": 54, "duration": 4, "velocity": 91}, {"time": 1457, "pitch": 49, "duration": 15, "velocity": 96}, {"time": 1457, "pitch": 56, "duration": 4, "velocity": 94}, {"time": 1457, "pitch": 61, "duration": 8, "velocity": 90}, {"time": 1463, "pitch": 56, "duration": 8, "velocity": 92}, {"time": 1469, "pitch": 61, "duration": 6, "velocity": 97}, {"time": 1469, "pitch": 64, "duration": 7, "velocity": 92}, {"time": 1472, "pitch": 56, "duration": 3, "velocity": 93}, {"time": 1481, "pitch": 42, "duration": 22, "velocity": 91}, {"time": 1481, "pitch": 54, "duration": 9, "velocity": 90}, {"time": 1481, "pitch": 57, "duration": 10, "velocity": 84}, {"time": 1481, "pitch": 61, "duration": 10, "velocity": 90}, {"time": 1487, "pitch": 49, "duration": 15, "velocity": 90}, {"time": 1493, "pitch": 57, "duration": 7, "velocity": 92}, {"time": 1493, "pitch": 61, "duration": 1, "velocity": 79}, {"time": 1499, "pitch": 54, "duration": 4, "velocity": 104}, {"time": 1505, "pitch": 47, "duration": 21, "velocity": 94}, {"time": 1505, "pitch": 54, "duration": 11, "velocity": 94}, {"time": 1505, "pitch": 59, "duration": 10, "velocity": 96}, {"time": 1511, "pitch": 51, "duration": 16, "velocity": 84}, {"time": 1517, "pitch": 54, "duration": 2, "velocity": 62}, {"time": 1517, "pitch": 59, "duration": 8, "velocity": 99}, {"time": 1517, "pitch": 63, "duration": 8, "velocity": 101}, {"time": 1523, "pitch": 54, "duration": 4, "velocity": 101}, {"time": 1529, "pitch": 44, "duration": 15, "velocity": 94}, {"time": 1529, "pitch": 56, "duration": 10, "velocity": 93}, {"time": 1529, "pitch": 59, "duration": 9, "velocity": 96}, {"time": 1535, "pitch": 51, "duration": 8, "velocity": 91}, {"time": 1541, "pitch": 59, "duration": 8, "velocity": 101}, {"time": 1541, "pitch": 63, "duration": 8, "velocity": 101}, {"time": 1547, "pitch": 56, "duration": 9, "velocity": 92}, {"time": 1553, "pitch": 37, "duration": 50, "velocity": 95}, {"time": 1553, "pitch": 61, "duration": 8, "velocity": 91}, {"time": 1559, "pitch": 56, "duration": 4, "velocity": 91}, {"time": 1565, "pitch": 56, "duration": 4, "velocity": 92}, {"time": 1565, "pitch": 64, "duration": 7, "velocity": 93}, {"time": 1571, "pitch": 63, "duration": 7, "velocity": 104}, {"time": 1577, "pitch": 61, "duration": 6, "velocity": 104}, {"time": 1583, "pitch": 44, "duration": 20, "velocity": 90}, {"time": 1589, "pitch": 56, "duration": 3, "velocity": 96}, {"time": 1589, "pitch": 61, "duration": 8, "velocity": 104}, {"time": 1589, "pitch": 64, "duration": 8, "velocity": 94}, {"time": 1595, "pitch": 56, "duration": 6, "velocity": 95}, {"time": 1601, "pitch": 37, "duration": 2, "velocity": 97}, {"time": 1601, "pitch": 56, "duration": 10, "velocity": 89}, {"time": 1601, "pitch": 64, "duration": 9, "velocity": 90}, {"time": 1607, "pitch": 44, "duration": 30, "velocity": 87}, {"time": 1613, "pitch": 61, "duration": 8, "velocity": 96}, {"time": 1613, "pitch": 64, "duration": 7, "velocity": 96}, {"time": 1619, "pitch": 56, "duration": 5, "velocity": 92}, {"time": 1625, "pitch": 56, "duration": 4, "velocity": 92}, {"time": 1625, "pitch": 61, "duration": 7, "velocity": 92}, {"time": 1631, "pitch": 56, "duration": 4, "velocity": 94}, {"time": 1637, "pitch": 56, "duration": 3, "velocity": 92}, {"time": 1637, "pitch": 61, "duration": 7, "velocity": 94}, {"time": 1637, "pitch": 64, "duration": 8, "velocity": 96}, {"time": 1643, "pitch": 56, "duration": 3, "velocity": 91}, {"time": 1649, "pitch": 45, "duration": 38, "velocity": 101}, {"time": 1652, "pitch": 52, "duration": 8, "velocity": 91}, {"time": 1661, "pitch": 57, "duration": 7, "velocity": 107}, {"time": 1664, "pitch": 52, "duration": 5, "velocity": 83}, {"time": 1673, "pitch": 57, "duration": 7, "velocity": 93}, {"time": 1673, "pitch": 61, "duration": 7, "velocity": 91}, {"time": 1676, "pitch": 52, "duration": 4, "velocity": 86}, {"time": 1685, "pitch": 52, "duration": 2, "velocity": 92}, {"time": 1685, "pitch": 57, "duration": 7, "velocity": 104}, {"time": 1685, "pitch": 61, "duration": 10, "velocity": 92}, {"time": 1691, "pitch": 52, "duration": 5, "velocity": 92}, {"time": 1697, "pitch": 40, "duration": 17, "velocity": 92}, {"time": 1697, "pitch": 52, "duration": 13, "velocity": 90}, {"time": 1697, "pitch": 56, "duration": 10, "velocity": 91}, {"time": 1703, "pitch": 47, "duration": 11, "velocity": 84}, {"time": 1709, "pitch": 56, "duration": 5, "velocity": 88}, {"time": 1709, "pitch": 59, "duration": 5, "velocity": 93}, {"time": 1721, "pitch": 49, "duration": 13, "velocity": 91}, {"time": 1721, "pitch": 56, "duration": 4, "velocity": 81}, {"time": 1721, "pitch": 58, "duration": 1, "velocity": 78}, {"time": 1721, "pitch": 61, "duration": 8, "velocity": 90}, {"time": 1727, "pitch": 56, "duration": 7, "velocity": 94}, {"time": 1733, "pitch": 61, "duration": 4, "velocity": 91}, {"time": 1733, "pitch": 64, "duration": 8, "velocity": 92}, {"time": 1736, "pitch": 56, "duration": 4, "velocity": 72}, {"time": 1745, "pitch": 42, "duration": 18, "velocity": 92}, {"time": 1751, "pitch": 49, "duration": 13, "velocity": 93}, {"time": 1757, "pitch": 54, "duration": 8, "velocity": 94}, {"time": 1757, "pitch": 61, "duration": 2, "velocity": 68}, {"time": 1763, "pitch": 57, "duration": 3, "velocity": 97}, {"time": 1769, "pitch": 49, "duration": 16, "velocity": 99}, {"time": 1769, "pitch": 56, "duration": 4, "velocity": 91}, {"time": 1769, "pitch": 61, "duration": 7, "velocity": 91}, {"time": 1775, "pitch": 56, "duration": 8, "velocity": 92}, {"time": 1781, "pitch": 61, "duration": 10, "velocity": 101}, {"time": 1781, "pitch": 64, "duration": 7, "velocity": 96}, {"time": 1787, "pitch": 56, "duration": 4, "velocity": 90}, {"time": 1793, "pitch": 44, "duration": 14, "velocity": 92}, {"time": 1793, "pitch": 56, "duration": 8, "velocity": 92}, {"time": 1793, "pitch": 59, "duration": 8, "velocity": 90}, {"time": 1799, "pitch": 51, "duration": 8, "velocity": 88}, {"time": 1805, "pitch": 56, "duration": 5, "velocity": 92}, {"time": 1805, "pitch": 59, "duration": 4, "velocity": 101}, {"time": 1805, "pitch": 63, "duration": 7, "velocity": 96}, {"time": 1817, "pitch": 42, "duration": 16, "velocity": 92}, {"time": 1817, "pitch": 54, "duration": 13, "velocity": 90}, {"time": 1817, "pitch": 61, "duration": 14, "velocity": 90}, {"time": 1823, "pitch": 49, "duration": 10, "velocity": 90}, {"time": 1829, "pitch": 57, "duration": 7, "velocity": 94}, {"time": 1835, "pitch": 54, "duration": 3, "velocity": 94}, {"time": 1841, "pitch": 44, "duration": 14, "velocity": 93}, {"time": 1841, "pitch": 56, "duration": 9, "velocity": 94}, {"time": 1841, "pitch": 59, "duration": 9, "velocity": 93}, {"time": 1847, "pitch": 51, "duration": 7, "velocity": 92}, {"time": 1853, "pitch": 59, "duration": 10, "velocity": 97}, {"time": 1853, "pitch": 63, "duration": 7, "velocity": 99}, {"time": 1865, "pitch": 35, "duration": 15, "velocity": 91}, {"time": 1865, "pitch": 54, "duration": 7, "velocity": 94}, {"time": 1865, "pitch": 59, "duration": 9, "velocity": 92}, {"time": 1871, "pitch": 42, "duration": 8, "velocity": 86}, {"time": 1877, "pitch": 54, "duration": 2, "velocity": 91}, {"time": 1877, "pitch": 59, "duration": 10, "velocity": 99}, {"time": 1877, "pitch": 63, "duration": 11, "velocity": 94}, {"time": 1883, "pitch": 54, "duration": 4, "velocity": 91}, {"time": 1889, "pitch": 49, "duration": 15, "velocity": 96}, {"time": 1889, "pitch": 56, "duration": 4, "velocity": 94}, {"time": 1889, "pitch": 61, "duration": 8, "velocity": 90}, {"time": 1895, "pitch": 56, "duration": 8, "velocity": 92}, {"time": 1901, "pitch": 61, "duration": 6, "velocity": 97}, {"time": 1901, "pitch": 64, "duration": 7, "velocity": 92}, {"time": 1904, "pitch": 56, "duration": 3, "velocity": 93}, {"time": 1913, "pitch": 42, "duration": 22, "velocity": 91}, {"time": 1913, "pitch": 54, "duration": 9, "velocity": 90}, {"time": 1913, "pitch": 57, "duration": 10, "velocity": 84}, {"time": 1913, "pitch": 61, "duration": 10, "velocity": 90}, {"time": 1919, "pitch": 49, "duration": 15, "velocity": 90}, {"time": 1925, "pitch": 57, "duration": 7, "velocity": 92}, {"time": 1925, "pitch": 61, "duration": 1, "velocity": 79}, {"time": 1931, "pitch": 54, "duration": 4, "velocity": 104}, {"time": 1937, "pitch": 47, "duration": 21, "velocity": 94}, {"time": 1937, "pitch": 54, "duration": 11, "velocity": 94}, {"time": 1937, "pitch": 59, "duration": 10, "velocity": 96}, {"time": 1943, "pitch": 51, "duration": 16, "velocity": 84}, {"time": 1949, "pitch": 54, "duration": 2, "velocity": 62}, {"time": 1949, "pitch": 59, "duration": 8, "velocity": 99}, {"time": 1949, "pitch": 63, "duration": 8, "velocity": 101}, {"time": 1955, "pitch": 54, "duration": 4, "velocity": 101}, {"time": 1961, "pitch": 44, "duration": 15, "velocity": 94}, {"time": 1961, "pitch": 56, "duration": 10, "velocity": 93}, {"time": 1961, "pitch": 59, "duration": 9, "velocity": 96}, {"time": 1967, "pitch": 51, "duration": 8, "velocity": 91}, {"time": 1973, "pitch": 59, "duration": 8, "velocity": 101}, {"time": 1973, "pitch": 63, "duration": 8, "velocity": 101}, {"time": 1979, "pitch": 56, "duration": 9, "velocity": 92}, {"time": 1985, "pitch": 37, "duration": 50, "velocity": 95}, {"time": 1985, "pitch": 61, "duration": 8, "velocity": 91}, {"time": 1991, "pitch": 56, "duration": 4, "velocity": 91}, {"time": 1997, "pitch": 56, "duration": 4, "velocity": 92}, {"time": 1997, "pitch": 64, "duration": 7, "velocity": 93}, {"time": 2003, "pitch": 63, "duration": 7, "velocity": 104}, {"time": 2009, "pitch": 61, "duration": 6, "velocity": 104}, {"time": 2015, "pitch": 44, "duration": 20, "velocity": 90}, {"time": 2021, "pitch": 56, "duration": 3, "velocity": 96}, {"time": 2021, "pitch": 61, "duration": 8, "velocity": 104}, {"time": 2021, "pitch": 64, "duration": 8, "velocity": 94}, {"time": 2027, "pitch": 56, "duration": 6, "velocity": 95}, {"time": 2033, "pitch": 49, "duration": 14, "velocity": 101}, {"time": 2033, "pitch": 64, "duration": 8, "velocity": 97}, {"time": 2039, "pitch": 56, "duration": 7, "velocity": 93}, {"time": 2045, "pitch": 61, "duration": 7, "velocity": 99}, {"time": 2051, "pitch": 56, "duration": 11, "velocity": 94}, {"time": 2057, "pitch": 42, "duration": 22, "velocity": 95}, {"time": 2063, "pitch": 49, "duration": 15, "velocity": 91}, {"time": 2069, "pitch": 57, "duration": 6, "velocity": 97}, {"time": 2069, "pitch": 61, "duration": 7, "velocity": 91}, {"time": 2075, "pitch": 54, "duration": 5, "velocity": 101}, {"time": 2081, "pitch": 47, "duration": 16, "velocity": 99}, {"time": 2081, "pitch": 54, "duration": 10, "velocity": 99}, {"time": 2081, "pitch": 59, "duration": 9, "velocity": 91}, {"time": 2087, "pitch": 51, "duration": 12, "velocity": 82}, {"time": 2093, "pitch": 54, "duration": 4, "velocity": 95}, {"time": 2093, "pitch": 59, "duration": 7, "velocity": 95}, {"time": 2093, "pitch": 63, "duration": 12, "velocity": 96}, {"time": 2105, "pitch": 44, "duration": 15, "velocity": 90}, {"time": 2105, "pitch": 56, "duration": 10, "velocity": 91}, {"time": 2105, "pitch": 59, "duration": 10, "velocity": 92}, {"time": 2111, "pitch": 51, "duration": 10, "velocity": 96}, {"time": 2117, "pitch": 63, "duration": 7, "velocity": 99}, {"time": 2123, "pitch": 56, "duration": 6, "velocity": 97}, {"time": 2129, "pitch": 45, "duration": 12, "velocity": 95}, {"time": 2129, "pitch": 61, "duration": 13, "velocity": 92}, {"time": 2135, "pitch": 52, "duration": 7, "velocity": 85}, {"time": 2141, "pitch": 57, "duration": 7, "velocity": 97}, {"time": 2147, "pitch": 61, "duration": 5, "velocity": 91}, {"time": 2153, "pitch": 47, "duration": 14, "velocity": 96}, {"time": 2153, "pitch": 54, "duration": 9, "velocity": 91}, {"time": 2153, "pitch": 59, "duration": 9, "velocity": 96}, {"time": 2159, "pitch": 51, "duration": 8, "velocity": 90}, {"time": 2165, "pitch": 54, "duration": 5, "velocity": 92}, {"time": 2165, "pitch": 59, "duration": 6, "velocity": 96}, {"time": 2165, "pitch": 63, "duration": 11, "velocity": 95}, {"time": 2177, "pitch": 40, "duration": 20, "velocity": 91}, {"time": 2177, "pitch": 52, "duration": 8, "velocity": 91}, {"time": 2177, "pitch": 56, "duration": 7, "velocity": 93}, {"time": 2183, "pitch": 47, "duration": 15, "velocity": 88}, {"time": 2189, "pitch": 52, "duration": 7, "velocity": 97}, {"time": 2195, "pitch": 54, "duration": 7, "velocity": 111}, {"time": 2201, "pitch": 44, "duration": 21, "velocity": 91}, {"time": 2201, "pitch": 56, "duration": 9, "velocity": 94}, {"time": 2207, "pitch": 51, "duration": 9, "velocity": 87}, {"time": 2213, "pitch": 56, "duration": 9, "velocity": 106}, {"time": 2219, "pitch": 51, "duration": 4, "velocity": 94}, {"time": 2225, "pitch": 42, "duration": 39, "velocity": 94}, {"time": 2231, "pitch": 49, "duration": 22, "velocity": 91}, {"time": 2237, "pitch": 54, "duration": 10, "velocity": 106}, {"time": 2243, "pitch": 57, "duration": 4, "velocity": 91}, {"time": 2249, "pitch": 54, "duration": 10, "velocity": 95}, {"time": 2249, "pitch": 61, "duration": 9, "velocity": 92}, {"time": 2255, "pitch": 49, "duration": 8, "velocity": 91}, {"time": 2261, "pitch": 54, "duration": 2, "velocity": 79}, {"time": 2261, "pitch": 57, "duration": 5, "velocity": 90}, {"time": 2261, "pitch": 61, "duration": 6, "velocity": 94}, {"time": 2261, "pitch": 66, "duration": 7, "velocity": 91}, {"time": 2267, "pitch": 42, "duration": 4, "velocity": 91}, {"time": 2273, "pitch": 44, "duration": 24, "velocity": 88}, {"time": 2273, "pitch": 56, "duration": 11, "velocity": 90}, {"time": 2273, "pitch": 59, "duration": 9, "velocity": 90}, {"time": 2279, "pitch": 51, "duration": 14, "velocity": 90}, {"time": 2285, "pitch": 59, "duration": 7, "velocity": 95}, {"time": 2285, "pitch": 63, "duration": 7, "velocity": 94}, {"time": 2291, "pitch": 56, "duration": 5, "velocity": 92}, {"time": 2297, "pitch": 49, "duration": 20, "velocity": 95}, {"time": 2297, "pitch": 61, "duration": 13, "velocity": 92}, {"time": 2303, "pitch": 52, "duration": 13, "velocity": 72}, {"time": 2309, "pitch": 64, "duration": 12, "velocity": 101}, {"time": 2321, "pitch": 45, "duration": 16, "velocity": 106}, {"time": 2321, "pitch": 61, "duration": 12, "velocity": 96}, {"time": 2327, "pitch": 52, "duration": 9, "velocity": 89}, {"time": 2333, "pitch": 57, "duration": 7, "velocity": 86}, {"time": 2339, "pitch": 61, "duration": 6, "velocity": 92}, {"time": 2345, "pitch": 47, "duration": 14, "velocity": 95}, {"time": 2345, "pitch": 54, "duration": 7, "velocity": 78}, {"time": 2345, "pitch": 59, "duration": 13, "velocity": 93}, {"time": 2351, "pitch": 51, "duration": 8, "velocity": 90}, {"time": 2357, "pitch": 54, "duration": 8, "velocity": 101}, {"time": 2363, "pitch": 59, "duration": 5, "velocity": 101}, {"time": 2369, "pitch": 37, "duration": 48, "velocity": 93}, {"time": 2369, "pitch": 56, "duration": 5, "velocity": 89}, {"time": 2369, "pitch": 61, "duration": 10, "velocity": 86}, {"time": 2375, "pitch": 44, "duration": 42, "velocity": 86}, {"time": 2381, "pitch": 56, "duration": 7, "velocity": 94}, {"time": 2387, "pitch": 61, "duration": 2, "velocity": 96}, {"time": 2393, "pitch": 56, "duration": 10, "velocity": 96}, {"time": 2393, "pitch": 64, "duration": 11, "velocity": 101}, {"time": 2405, "pitch": 56, "duration": 12, "velocity": 90}, {"time": 2405, "pitch": 61, "duration": 12, "velocity": 89}, {"time": 2417, "pitch": 42, "duration": 18, "velocity": 90}, {"time": 2417, "pitch": 54, "duration": 8, "velocity": 72}, {"time": 2417, "pitch": 57, "duration": 14, "velocity": 84}, {"time": 2417, "pitch": 61, "duration": 17, "velocity": 88}, {"time": 2423, "pitch": 49, "duration": 13, "velocity": 83}, {"time": 2429, "pitch": 54, "duration": 5, "velocity": 92}, {"time": 2441, "pitch": 44, "duration": 20, "velocity": 91}, {"time": 2441, "pitch": 56, "duration": 8, "velocity": 86}, {"time": 2441, "pitch": 59, "duration": 12, "velocity": 87}, {"time": 2447, "pitch": 51, "duration": 14, "velocity": 86}, {"time": 2453, "pitch": 56, "duration": 9, "velocity": 91}, {"time": 2459, "pitch": 59, "duration": 7, "velocity": 95}, {"time": 2465, "pitch": 49, "duration": 17, "velocity": 90}, {"time": 2465, "pitch": 61, "duration": 14, "velocity": 90}, {"time": 2471, "pitch": 52, "duration": 11, "velocity": 74}, {"time": 2477, "pitch": 56, "duration": 9, "velocity": 95}, {"time": 2489, "pitch": 45, "duration": 39, "velocity": 93}, {"time": 2489, "pitch": 57, "duration": 9, "velocity": 90}, {"time": 2489, "pitch": 61, "duration": 14, "velocity": 90}, {"time": 2492, "pitch": 52, "duration": 23, "velocity": 79}, {"time": 2501, "pitch": 57, "duration": 17, "velocity": 93}, {"time": 2513, "pitch": 61, "duration": 13, "velocity": 86}, {"time": 2513, "pitch": 64, "duration": 14, "velocity": 90}, {"time": 2519, "pitch": 52, "duration": 9, "velocity": 86}, {"time": 2525, "pitch": 57, "duration": 7, "velocity": 101}, {"time": 2537, "pitch": 40, "duration": 19, "velocity": 90}, {"time": 2537, "pitch": 56, "duration": 8, "velocity": 88}, {"time": 2537, "pitch": 59, "duration": 13, "velocity": 93}, {"time": 2543, "pitch": 47, "duration": 14, "velocity": 84}, {"time": 2549, "pitch": 56, "duration": 14, "velocity": 86}, {"time": 2552, "pitch": 59, "duration": 8, "velocity": 89}, {"time": 2561, "pitch": 44, "duration": 22, "velocity": 92}, {"time": 2567, "pitch": 51, "duration": 16, "velocity": 90}, {"time": 2573, "pitch": 56, "duration": 10, "velocity": 92}, {"time": 2573, "pitch": 63, "duration": 10, "velocity": 93}, {"time": 2585, "pitch": 49, "duration": 17, "velocity": 101}, {"time": 2585, "pitch": 56, "duration": 7, "velocity": 91}, {"time": 2585, "pitch": 61, "duration": 13, "velocity": 92}, {"time": 2588, "pitch": 52, "duration": 11, "velocity": 78}, {"time": 2597, "pitch": 56, "duration": 18, "velocity": 96}, {"time": 2603, "pitch": 61, "duration": 9, "velocity": 90}, {"time": 2609, "pitch": 37, "duration": 14, "velocity": 92}, {"time": 2609, "pitch": 64, "duration": 14, "velocity": 91}, {"time": 2612, "pitch": 44, "duration": 8, "velocity": 79}, {"time": 2621, "pitch": 56, "duration": 5, "velocity": 95}, {"time": 2633, "pitch": 42, "duration": 13, "velocity": 91}, {"time": 2633, "pitch": 54, "duration": 13, "velocity": 84}, {"time": 2633, "pitch": 61, "duration": 13, "velocity": 88}, {"time": 2639, "pitch": 49, "duration": 8, "velocity": 90}, {"time": 2645, "pitch": 57, "duration": 3, "velocity": 92}, {"time": 2657, "pitch": 49, "duration": 14, "velocity": 91}, {"time": 2657, "pitch": 56, "duration": 10, "velocity": 85}, {"time": 2657, "pitch": 61, "duration": 13, "velocity": 90}, {"time": 2663, "pitch": 52, "duration": 8, "velocity": 78}, {"time": 2669, "pitch": 64, "duration": 8, "velocity": 91}, {"time": 2675, "pitch": 56, "duration": 4, "velocity": 63}, {"time": 2681, "pitch": 42, "duration": 16, "velocity": 91}, {"time": 2681, "pitch": 54, "duration": 7, "velocity": 84}, {"time": 2681, "pitch": 57, "duration": 13, "velocity": 78}, {"time": 2687, "pitch": 49, "duration": 11, "velocity": 89}, {"time": 2693, "pitch": 54, "duration": 5, "velocity": 91}, {"time": 2705, "pitch": 42, "duration": 19, "velocity": 92}, {"time": 2705, "pitch": 57, "duration": 14, "velocity": 91}, {"time": 2705, "pitch": 61, "duration": 18, "velocity": 90}, {"time": 2711, "pitch": 49, "duration": 14, "velocity": 91}, {"time": 2717, "pitch": 54, "duration": 6, "velocity": 91}, {"time": 2729, "pitch": 44, "duration": 15, "velocity": 93}, {"time": 2729, "pitch": 56, "duration": 9, "velocity": 87}, {"time": 2729, "pitch": 59, "duration": 13, "velocity": 91}, {"time": 2735, "pitch": 51, "duration": 8, "velocity": 87}, {"time": 2741, "pitch": 56, "duration": 8, "velocity": 99}, {"time": 2747, "pitch": 59, "duration": 7, "velocity": 101}, {"time": 2753, "pitch": 37, "duration": 48, "velocity": 97}, {"time": 2753, "pitch": 61, "duration": 13, "velocity": 92}, {"time": 2759, "pitch": 44, "duration": 42, "velocity": 85}, {"time": 2765, "pitch": 56, "duration": 7, "velocity": 101}, {"time": 2771, "pitch": 61, "duration": 7, "velocity": 90}, {"time": 2777, "pitch": 64, "duration": 8, "velocity": 96}, {"time": 2783, "pitch": 56, "duration": 4, "velocity": 86}, {"time": 2789, "pitch": 56, "duration": 12, "velocity": 90}, {"time": 2789, "pitch": 61, "duration": 12, "velocity": 91}, {"time": 2801, "pitch": 37, "duration": 37, "velocity": 97}, {"time": 2801, "pitch": 56, "duration": 10, "velocity": 89}, {"time": 2801, "pitch": 64, "duration": 9, "velocity": 90}, {"time": 2807, "pitch": 44, "duration": 30, "velocity": 87}, {"time": 2813, "pitch": 61, "duration": 8, "velocity": 96}, {"time": 2813, "pitch": 64, "duration": 7, "velocity": 96}, {"time": 2819, "pitch": 56, "duration": 5, "velocity": 92}, {"time": 2825, "pitch": 56, "duration": 4, "velocity": 92}, {"time": 2825, "pitch": 61, "duration": 7, "velocity": 92}, {"time": 2831, "pitch": 56, "duration": 4, "velocity": 94}, {"time": 2837, "pitch": 56, "duration": 3, "velocity": 92}, {"time": 2837, "pitch": 61, "duration": 7, "velocity": 94}, {"time": 2837, "pitch": 64, "duration": 8, "velocity": 96}, {"time": 2843, "pitch": 56, "duration": 3, "velocity": 91}, {"time": 2849, "pitch": 45, "duration": 38, "velocity": 101}, {"time": 2852, "pitch": 52, "duration": 8, "velocity": 91}, {"time": 2861, "pitch": 57, "duration": 7, "velocity": 107}, {"time": 2864, "pitch": 52, "duration": 5, "velocity": 83}, {"time": 2873, "pitch": 57, "duration": 7, "velocity": 93}, {"time": 2873, "pitch": 61, "duration": 7, "velocity": 91}, {"time": 2876, "pitch": 52, "duration": 4, "velocity": 86}, {"time": 2885, "pitch": 52, "duration": 2, "velocity": 92}, {"time": 2885, "pitch": 57, "duration": 7, "velocity": 104}, {"time": 2885, "pitch": 61, "duration": 10, "velocity": 92}, {"time": 2891, "pitch": 52, "duration": 5, "velocity": 92}, {"time": 2897, "pitch": 40, "duration": 17, "velocity": 92}, {"time": 2897, "pitch": 52, "duration": 13, "velocity": 90}, {"time": 2897, "pitch": 56, "duration": 10, "velocity": 91}, {"time": 2903, "pitch": 47, "duration": 11, "velocity": 84}, {"time": 2909, "pitch": 56, "duration": 5, "velocity": 88}, {"time": 2909, "pitch": 59, "duration": 5, "velocity": 93}, {"time": 2921, "pitch": 49, "duration": 13, "velocity": 91}, {"time": 2921, "pitch": 56, "duration": 4, "velocity": 81}, {"time": 2921, "pitch": 58, "duration": 1, "velocity": 78}, {"time": 2921, "pitch": 61, "duration": 8, "velocity": 90}, {"time": 2927, "pitch": 56, "duration": 7, "velocity": 94}, {"time": 2933, "pitch": 61, "duration": 4, "velocity": 91}, {"time": 2933, "pitch": 64, "duration": 8, "velocity": 92}, {"time": 2936, "pitch": 56, "duration": 4, "velocity": 72}, {"time": 2945, "pitch": 42, "duration": 18, "velocity": 92}, {"time": 2951, "pitch": 49, "duration": 13, "velocity": 93}, {"time": 2957, "pitch": 54, "duration": 8, "velocity": 94}, {"time": 2957, "pitch": 61, "duration": 2, "velocity": 68}, {"time": 2963, "pitch": 57, "duration": 3, "velocity": 97}, {"time": 2969, "pitch": 49, "duration": 16, "velocity": 99}, {"time": 2969, "pitch": 56, "duration": 4, "velocity": 91}, {"time": 2969, "pitch": 61, "duration": 7, "velocity": 91}, {"time": 2975, "pitch": 56, "duration": 8, "velocity": 92}, {"time": 2981, "pitch": 61, "duration": 10, "velocity": 101}, {"time": 2981, "pitch": 64, "duration": 7, "velocity": 96}, {"time": 2987, "pitch": 56, "duration": 4, "velocity": 90}, {"time": 2993, "pitch": 44, "duration": 14, "velocity": 92}, {"time": 2993, "pitch": 56, "duration": 8, "velocity": 92}, {"time": 2993, "pitch": 59, "duration": 8, "velocity": 90}, {"time": 2999, "pitch": 51, "duration": 8, "velocity": 88}, {"time": 3005, "pitch": 56, "duration": 5, "velocity": 92}, {"time": 3005, "pitch": 59, "duration": 4, "velocity": 101}, {"time": 3005, "pitch": 63, "duration": 7, "velocity": 96}, {"time": 3017, "pitch": 42, "duration": 16, "velocity": 92}, {"time": 3017, "pitch": 54, "duration": 13, "velocity": 90}, {"time": 3017, "pitch": 61, "duration": 14, "velocity": 90}, {"time": 3023, "pitch": 49, "duration": 10, "velocity": 90}, {"time": 3029, "pitch": 57, "duration": 7, "velocity": 94}, {"time": 3035, "pitch": 54, "duration": 3, "velocity": 94}, {"time": 3041, "pitch": 44, "duration": 14, "velocity": 93}, {"time": 3041, "pitch": 56, "duration": 9, "velocity": 94}, {"time": 3041, "pitch": 59, "duration": 9, "velocity": 93}, {"time": 3047, "pitch": 51, "duration": 7, "velocity": 92}, {"time": 3053, "pitch": 59, "duration": 10, "velocity": 97}, {"time": 3053, "pitch": 63, "duration": 7, "velocity": 99}, {"time": 3065, "pitch": 35, "duration": 15, "velocity": 91}, {"time": 3065, "pitch": 54, "duration": 7, "velocity": 94}, {"time": 3065, "pitch": 59, "duration": 9, "velocity": 92}, {"time": 3071, "pitch": 42, "duration": 8, "velocity": 86}, {"time": 3077, "pitch": 54, "duration": 2, "velocity": 91}, {"time": 3077, "pitch": 59, "duration": 10, "velocity": 99}, {"time": 3077, "pitch": 63, "duration": 11, "velocity": 94}, {"time": 3083, "pitch": 54, "duration": 4, "velocity": 91}, {"time": 3089, "pitch": 49, "duration": 15, "velocity": 96}, {"time": 3089, "pitch": 56, "duration": 4, "velocity": 94}, {"time": 3089, "pitch": 61, "duration": 8, "velocity": 90}, {"time": 3095, "pitch": 56, "duration": 8, "velocity": 92}, {"time": 3101, "pitch": 61, "duration": 6, "velocity": 97}, {"time": 3101, "pitch": 64, "duration": 7, "velocity": 92}, {"time": 3104, "pitch": 56, "duration": 3, "velocity": 93}, {"time": 3113, "pitch": 42, "duration": 22, "velocity": 91}, {"time": 3113, "pitch": 54, "duration": 9, "velocity": 90}, {"time": 3113, "pitch": 57, "duration": 10, "velocity": 84}, {"time": 3113, "pitch": 61, "duration": 10, "velocity": 90}, {"time": 3119, "pitch": 49, "duration": 15, "velocity": 90}, {"time": 3125, "pitch": 57, "duration": 7, "velocity": 92}, {"time": 3125, "pitch": 61, "duration": 1, "velocity": 79}, {"time": 3131, "pitch": 54, "duration": 4, "velocity": 104}, {"time": 3137, "pitch": 47, "duration": 21, "velocity": 94}, {"time": 3137, "pitch": 54, "duration": 11, "velocity": 94}, {"time": 3137, "pitch": 59, "duration": 10, "velocity": 96}, {"time": 3143, "pitch": 51, "duration": 16, "velocity": 84}, {"time": 3149, "pitch": 54, "duration": 2, "velocity": 62}, {"time": 3149, "pitch": 59, "duration": 8, "velocity": 99}, {"time": 3149, "pitch": 63, "duration": 8, "velocity": 101}, {"time": 3155, "pitch": 54, "duration": 4, "velocity": 101}, {"time": 3161, "pitch": 44, "duration": 15, "velocity": 94}, {"time": 3161, "pitch": 56, "duration": 10, "velocity": 93}, {"time": 3161, "pitch": 59, "duration": 9, "velocity": 96}, {"time": 3167, "pitch": 51, "duration": 8, "velocity": 91}, {"time": 3173, "pitch": 59, "duration": 8, "velocity": 101}, {"time": 3173, "pitch": 63, "duration": 8, "velocity": 101}, {"time": 3179, "pitch": 56, "duration": 9, "velocity": 92}, {"time": 3185, "pitch": 37, "duration": 50, "velocity": 95}, {"time": 3185, "pitch": 61, "duration": 8, "velocity": 91}, {"time": 3191, "pitch": 56, "duration": 4, "velocity": 91}, {"time": 3197, "pitch": 56, "duration": 4, "velocity": 92}, {"time": 3197, "pitch": 64, "duration": 7, "velocity": 93}, {"time": 3203, "pitch": 63, "duration": 7, "velocity": 104}, {"time": 3209, "pitch": 61, "duration": 6, "velocity": 104}, {"time": 3215, "pitch": 44, "duration": 20, "velocity": 90}, {"time": 3221, "pitch": 56, "duration": 3, "velocity": 96}, {"time": 3221, "pitch": 61, "duration": 8, "velocity": 104}, {"time": 3221, "pitch": 64, "duration": 8, "velocity": 94}, {"time": 3227, "pitch": 56, "duration": 6, "velocity": 95}, {"time": 3233, "pitch": 37, "duration": 2, "velocity": 97}, {"time": 3233, "pitch": 56, "duration": 10, "velocity": 89}, {"time": 3233, "pitch": 64, "duration": 9, "velocity": 90}, {"time": 3239, "pitch": 44, "duration": 30, "velocity": 87}, {"time": 3245, "pitch": 61, "duration": 8, "velocity": 96}, {"time": 3245, "pitch": 64, "duration": 7, "velocity": 96}, {"time": 3251, "pitch": 56, "duration": 5, "velocity": 92}, {"time": 3257, "pitch": 56, "duration": 4, "velocity": 92}, {"time": 3257, "pitch": 61, "duration": 7, "velocity": 92}, {"time": 3263, "pitch": 56, "duration": 4, "velocity": 94}, {"time": 3269, "pitch": 56, "duration": 3, "velocity": 92}, {"time": 3269, "pitch": 61, "duration": 7, "velocity": 94}, {"time": 3269, "pitch": 64, "duration": 8, "velocity": 96}, {"time": 3275, "pitch": 56, "duration": 3, "velocity": 91}, {"time": 3281, "pitch": 45, "duration": 38, "velocity": 101}, {"time": 3284, "pitch": 52, "duration": 8, "velocity": 91}, {"time": 3293, "pitch": 57, "duration": 7, "velocity": 107}, {"time": 3296, "pitch": 52, "duration": 5, "velocity": 83}, {"time": 3305, "pitch": 57, "duration": 7, "velocity": 93}, {"time": 3305, "pitch": 61, "duration": 7, "velocity": 91}, {"time": 3308, "pitch": 52, "duration": 4, "velocity": 86}, {"time": 3317, "pitch": 52, "duration": 2, "velocity": 92}, {"time": 3317, "pitch": 57, "duration": 7, "velocity": 104}, {"time": 3317, "pitch": 61, "duration": 10, "velocity": 92}, {"time": 3323, "pitch": 52, "duration": 5, "velocity": 92}, {"time": 3329, "pitch": 40, "duration": 17, "velocity": 92}, {"time": 3329, "pitch": 52, "duration": 13, "velocity": 90}, {"time": 3329, "pitch": 56, "duration": 10, "velocity": 91}, {"time": 3335, "pitch": 47, "duration": 11, "velocity": 84}, {"time": 3341, "pitch": 56, "duration": 5, "velocity": 88}, {"time": 3341, "pitch": 59, "duration": 5, "velocity": 93}, {"time": 3353, "pitch": 49, "duration": 13, "velocity": 91}, {"time": 3353, "pitch": 56, "duration": 4, "velocity": 81}, {"time": 3353, "pitch": 58, "duration": 1, "velocity": 78}, {"time": 3353, "pitch": 61, "duration": 8, "velocity": 90}, {"time": 3359, "pitch": 56, "duration": 7, "velocity": 94}, {"time": 3365, "pitch": 61, "duration": 4, "velocity": 91}, {"time": 3365, "pitch": 64, "duration": 8, "velocity": 92}, {"time": 3368, "pitch": 56, "duration": 4, "velocity": 72}, {"time": 3377, "pitch": 42, "duration": 18, "velocity": 92}, {"time": 3383, "pitch": 49, "duration": 13, "velocity": 93}, {"time": 3389, "pitch": 54, "duration": 8, "velocity": 94}, {"time": 3389, "pitch": 61, "duration": 2, "velocity": 68}, {"time": 3395, "pitch": 57, "duration": 3, "velocity": 97}, {"time": 3401, "pitch": 49, "duration": 16, "velocity": 99}, {"time": 3401, "pitch": 56, "duration": 4, "velocity": 91}, {"time": 3401, "pitch": 61, "duration": 7, "velocity": 91}, {"time": 3407, "pitch": 56, "duration": 8, "velocity": 92}, {"time": 3413, "pitch": 61, "duration": 10, "velocity": 101}, {"time": 3413, "pitch": 64, "duration": 7, "velocity": 96}, {"time": 3419, "pitch": 56, "duration": 4, "velocity": 90}, {"time": 3425, "pitch": 44, "duration": 14, "velocity": 92}, {"time": 3425, "pitch": 56, "duration": 8, "velocity": 92}, {"time": 3425, "pitch": 59, "duration": 8, "velocity": 90}, {"time": 3431, "pitch": 51, "duration": 8, "velocity": 88}, {"time": 3437, "pitch": 56, "duration": 5, "velocity": 92}, {"time": 3437, "pitch": 59, "duration": 4, "velocity": 101}, {"time": 3437, "pitch": 63, "duration": 7, "velocity": 96}, {"time": 3449, "pitch": 42, "duration": 16, "velocity": 92}, {"time": 3449, "pitch": 54, "duration": 13, "velocity": 90}, {"time": 3449, "pitch": 61, "duration": 14, "velocity": 90}, {"time": 3455, "pitch": 49, "duration": 10, "velocity": 90}, {"time": 3461, "pitch": 57, "duration": 7, "velocity": 94}, {"time": 3467, "pitch": 54, "duration": 3, "velocity": 94}, {"time": 3473, "pitch": 44, "duration": 14, "velocity": 93}, {"time": 3473, "pitch": 56, "duration": 9, "velocity": 94}, {"time": 3473, "pitch": 59, "duration": 9, "velocity": 93}, {"time": 3479, "pitch": 51, "duration": 7, "velocity": 92}, {"time": 3485, "pitch": 59, "duration": 10, "velocity": 97}, {"time": 3485, "pitch": 63, "duration": 7, "velocity": 99}, {"time": 3497, "pitch": 35, "duration": 15, "velocity": 91}, {"time": 3497, "pitch": 54, "duration": 7, "velocity": 94}, {"time": 3497, "pitch": 59, "duration": 9, "velocity": 92}, {"time": 3503, "pitch": 42, "duration": 8, "velocity": 86}, {"time": 3509, "pitch": 54, "duration": 2, "velocity": 91}, {"time": 3509, "pitch": 59, "duration": 10, "velocity": 99}, {"time": 3509, "pitch": 63, "duration": 11, "velocity": 94}, {"time": 3515, "pitch": 54, "duration": 4, "velocity": 91}, {"time": 3521, "pitch": 49, "duration": 15, "velocity": 96}, {"time": 3521, "pitch": 56, "duration": 4, "velocity": 94}, {"time": 3521, "pitch": 61, "duration": 8, "velocity": 90}, {"time": 3527, "pitch": 56, "duration": 8, "velocity": 92}, {"time": 3533, "pitch": 61, "duration": 6, "velocity": 97}, {"time": 3533, "pitch": 64, "duration": 7, "velocity": 92}, {"time": 3536, "pitch": 56, "duration": 3, "velocity": 93}, {"time": 3545, "pitch": 42, "duration": 22, "velocity": 91}, {"time": 3545, "pitch": 54, "duration": 9, "velocity": 90}, {"time": 3545, "pitch": 57, "duration": 10, "velocity": 84}, {"time": 3545, "pitch": 61, "duration": 10, "velocity": 90}, {"time": 3551, "pitch": 49, "duration": 15, "velocity": 90}, {"time": 3557, "pitch": 57, "duration": 7, "velocity": 92}, {"time": 3557, "pitch": 61, "duration": 1, "velocity": 79}, {"time": 3563, "pitch": 54, "duration": 4, "velocity": 104}, {"time": 3569, "pitch": 47, "duration": 21, "velocity": 94}, {"time": 3569, "pitch": 54, "duration": 11, "velocity": 94}, {"time": 3569, "pitch": 59, "duration": 10, "velocity": 96}, {"time": 3575, "pitch": 51, "duration": 16, "velocity": 84}, {"time": 3581, "pitch": 54, "duration": 2, "velocity": 62}, {"time": 3581, "pitch": 59, "duration": 8, "velocity": 99}, {"time": 3581, "pitch": 63, "duration": 8, "velocity": 101}, {"time": 3587, "pitch": 54, "duration": 4, "velocity": 101}, {"time": 3593, "pitch": 44, "duration": 15, "velocity": 94}, {"time": 3593, "pitch": 56, "duration": 10, "velocity": 93}, {"time": 3593, "pitch": 59, "duration": 9, "velocity": 96}, {"time": 3599, "pitch": 51, "duration": 8, "velocity": 91}, {"time": 3605, "pitch": 59, "duration": 8, "velocity": 101}, {"time": 3605, "pitch": 63, "duration": 8, "velocity": 101}, {"time": 3611, "pitch": 56, "duration": 9, "velocity": 92}, {"time": 3617, "pitch": 37, "duration": 50, "velocity": 95}, {"time": 3617, "pitch": 61, "duration": 8, "velocity": 91}, {"time": 3623, "pitch": 56, "duration": 4, "velocity": 91}, {"time": 3629, "pitch": 56, "duration": 4, "velocity": 92}, {"time": 3629, "pitch": 64, "duration": 7, "velocity": 93}, {"time": 3635, "pitch": 63, "duration": 7, "velocity": 104}, {"time": 3641, "pitch": 61, "duration": 6, "velocity": 104}, {"time": 3647, "pitch": 44, "duration": 20, "velocity": 90}, {"time": 3653, "pitch": 56, "duration": 3, "velocity": 96}, {"time": 3653, "pitch": 61, "duration": 8, "velocity": 104}, {"time": 3653, "pitch": 64, "duration": 8, "velocity": 94}, {"time": 3659, "pitch": 56, "duration": 6, "velocity": 95}, {"time": 3665, "pitch": 37, "duration": 2, "velocity": 97}, {"time": 3665, "pitch": 56, "duration": 10, "velocity": 89}, {"time": 3665, "pitch": 64, "duration": 9, "velocity": 90}, {"time": 3671, "pitch": 44, "duration": 30, "velocity": 87}, {"time": 3677, "pitch": 61, "duration": 8, "velocity": 96}, {"time": 3677, "pitch": 64, "duration": 7, "velocity": 96}, {"time": 3683, "pitch": 56, "duration": 5, "velocity": 92}, {"time": 3689, "pitch": 56, "duration": 4, "velocity": 92}, {"time": 3689, "pitch": 61, "duration": 7, "velocity": 92}, {"time": 3695, "pitch": 56, "duration": 4, "velocity": 94}, {"time": 3701, "pitch": 56, "duration": 3, "velocity": 92}, {"time": 3701, "pitch": 61, "duration": 7, "velocity": 94}, {"time": 3701, "pitch": 64, "duration": 8, "velocity": 96}, {"time": 3707, "pitch": 56, "duration": 3, "velocity": 91}, {"time": 3713, "pitch": 45, "duration": 38, "velocity": 101}, {"time": 3716, "pitch": 52, "duration": 8, "velocity": 91}, {"time": 3725, "pitch": 57, "duration": 7, "velocity": 107}, {"time": 3728, "pitch": 52, "duration": 5, "velocity": 83}, {"time": 3737, "pitch": 57, "duration": 7, "velocity": 93}, {"time": 3737, "pitch": 61, "duration": 7, "velocity": 91}, {"time": 3740, "pitch": 52, "duration": 4, "velocity": 86}, {"time": 3749, "pitch": 52, "duration": 2, "velocity": 92}, {"time": 3749, "pitch": 57, "duration": 7, "velocity": 104}, {"time": 3749, "pitch": 61, "duration": 10, "velocity": 92}, {"time": 3755, "pitch": 52, "duration": 5, "velocity": 92}, {"time": 3761, "pitch": 40, "duration": 17, "velocity": 92}, {"time": 3761, "pitch": 52, "duration": 13, "velocity": 90}, {"time": 3761, "pitch": 56, "duration": 10, "velocity": 91}, {"time": 3767, "pitch": 47, "duration": 11, "velocity": 84}, {"time": 3773, "pitch": 56, "duration": 5, "velocity": 88}, {"time": 3773, "pitch": 59, "duration": 5, "velocity": 93}, {"time": 3785, "pitch": 49, "duration": 13, "velocity": 91}, {"time": 3785, "pitch": 56, "duration": 4, "velocity": 81}, {"time": 3785, "pitch": 58, "duration": 1, "velocity": 78}, {"time": 3785, "pitch": 61, "duration": 8, "velocity": 90}, {"time": 3791, "pitch": 56, "duration": 7, "velocity": 94}, {"time": 3797, "pitch": 61, "duration": 4, "velocity": 91}, {"time": 3797, "pitch": 64, "duration": 8, "velocity": 92}, {"time": 3800, "pitch": 56, "duration": 4, "velocity": 72}, {"time": 3809, "pitch": 42, "duration": 18, "velocity": 92}, {"time": 3815, "pitch": 49, "duration": 13, "velocity": 93}, {"time": 3821, "pitch": 54, "duration": 8, "velocity": 94}, {"time": 3821, "pitch": 61, "duration": 2, "velocity": 68}, {"time": 3827, "pitch": 57, "duration": 3, "velocity": 97}, {"time": 3833, "pitch": 49, "duration": 16, "velocity": 99}, {"time": 3833, "pitch": 56, "duration": 4, "velocity": 91}, {"time": 3833, "pitch": 61, "duration": 7, "velocity": 91}, {"time": 3839, "pitch": 56, "duration": 8, "velocity": 92}, {"time": 3845, "pitch": 61, "duration": 10, "velocity": 101}, {"time": 3845, "pitch": 64, "duration": 7, "velocity": 96}, {"time": 3851, "pitch": 56, "duration": 4, "velocity": 90}, {"time": 3857, "pitch": 44, "duration": 14, "velocity": 92}, {"time": 3857, "pitch": 56, "duration": 8, "velocity": 92}, {"time": 3857, "pitch": 59, "duration": 8, "velocity": 90}, {"time": 3863, "pitch": 51, "duration": 8, "velocity": 88}, {"time": 3869, "pitch": 56, "duration": 5, "velocity": 92}, {"time": 3869, "pitch": 59, "duration": 4, "velocity": 101}, {"time": 3869, "pitch": 63, "duration": 7, "velocity": 96}, {"time": 3881, "pitch": 42, "duration": 16, "velocity": 92}, {"time": 3881, "pitch": 54, "duration": 13, "velocity": 90}, {"time": 3881, "pitch": 61, "duration": 14, "velocity": 90}, {"time": 3887, "pitch": 49, "duration": 10, "velocity": 90}, {"time": 3893, "pitch": 57, "duration": 7, "velocity": 94}, {"time": 3899, "pitch": 54, "duration": 3, "velocity": 94}, {"time": 3905, "pitch": 44, "duration": 14, "velocity": 93}, {"time": 3905, "pitch": 56, "duration": 9, "velocity": 94}, {"time": 3905, "pitch": 59, "duration": 9, "velocity": 93}, {"time": 3911, "pitch": 51, "duration": 7, "velocity": 92}, {"time": 3917, "pitch": 59, "duration": 10, "velocity": 97}, {"time": 3917, "pitch": 63, "duration": 7, "velocity": 99}, {"time": 3929, "pitch": 35, "duration": 15, "velocity": 91}, {"time": 3929, "pitch": 54, "duration": 7, "velocity": 94}, {"time": 3929, "pitch": 59, "duration": 9, "velocity": 92}, {"time": 3935, "pitch": 42, "duration": 8, "velocity": 86}, {"time": 3941, "pitch": 54, "duration": 2, "velocity": 91}, {"time": 3941, "pitch": 59, "duration": 10, "velocity": 99}, {"time": 3941, "pitch": 63, "duration": 11, "velocity": 94}, {"time": 3947, "pitch": 54, "duration": 4, "velocity": 91}, {"time": 3953, "pitch": 49, "duration": 15, "velocity": 96}, {"time": 3953, "pitch": 56, "duration": 4, "velocity": 94}, {"time": 3953, "pitch": 61, "duration": 8, "velocity": 90}, {"time": 3959, "pitch": 56, "duration": 8, "velocity": 92}, {"time": 3965, "pitch": 61, "duration": 6, "velocity": 97}, {"time": 3965, "pitch": 64, "duration": 7, "velocity": 92}, {"time": 3968, "pitch": 56, "duration": 3, "velocity": 93}, {"time": 3977, "pitch": 42, "duration": 22, "velocity": 91}, {"time": 3977, "pitch": 54, "duration": 9, "velocity": 90}, {"time": 3977, "pitch": 57, "duration": 10, "velocity": 84}, {"time": 3977, "pitch": 61, "duration": 10, "velocity": 90}, {"time": 3983, "pitch": 49, "duration": 15, "velocity": 90}, {"time": 3989, "pitch": 57, "duration": 7, "velocity": 92}, {"time": 3989, "pitch": 61, "duration": 1, "velocity": 79}, {"time": 3995, "pitch": 54, "duration": 4, "velocity": 104}, {"time": 4001, "pitch": 47, "duration": 21, "velocity": 94}, {"time": 4001, "pitch": 54, "duration": 11, "velocity": 94}, {"time": 4001, "pitch": 59, "duration": 10, "velocity": 96}, {"time": 4007, "pitch": 51, "duration": 16, "velocity": 84}, {"time": 4013, "pitch": 54, "duration": 2, "velocity": 62}, {"time": 4013, "pitch": 59, "duration": 8, "velocity": 99}, {"time": 4013, "pitch": 63, "duration": 8, "velocity": 101}, {"time": 4019, "pitch": 54, "duration": 4, "velocity": 101}, {"time": 4025, "pitch": 44, "duration": 15, "velocity": 94}, {"time": 4025, "pitch": 56, "duration": 10, "velocity": 93}, {"time": 4025, "pitch": 59, "duration": 9, "velocity": 96}, {"time": 4031, "pitch": 51, "duration": 8, "velocity": 91}, {"time": 4037, "pitch": 59, "duration": 8, "velocity": 101}, {"time": 4037, "pitch": 63, "duration": 8, "velocity": 101}, {"time": 4043, "pitch": 56, "duration": 9, "velocity": 92}, {"time": 4049, "pitch": 37, "duration": 50, "velocity": 95}, {"time": 4049, "pitch": 61, "duration": 8, "velocity": 91}, {"time": 4055, "pitch": 56, "duration": 4, "velocity": 91}, {"time": 4061, "pitch": 56, "duration": 4, "velocity": 92}, {"time": 4061, "pitch": 64, "duration": 7, "velocity": 93}, {"time": 4067, "pitch": 63, "duration": 7, "velocity": 104}, {"time": 4073, "pitch": 61, "duration": 6, "velocity": 104}, {"time": 4079, "pitch": 44, "duration": 20, "velocity": 90}, {"time": 4085, "pitch": 56, "duration": 3, "velocity": 96}, {"time": 4085, "pitch": 61, "duration": 8, "velocity": 104}, {"time": 4085, "pitch": 64, "duration": 8, "velocity": 94}, {"time": 4091, "pitch": 56, "duration": 6, "velocity": 95}, {"time": 4097, "pitch": 37, "duration": 2, "velocity": 97}, {"time": 4097, "pitch": 56, "duration": 10, "velocity": 89}, {"time": 4097, "pitch": 64, "duration": 9, "velocity": 90}, {"time": 4103, "pitch": 44, "duration": 30, "velocity": 87}, {"time": 4109, "pitch": 61, "duration": 8, "velocity": 96}, {"time": 4109, "pitch": 64, "duration": 7, "velocity": 96}, {"time": 4115, "pitch": 56, "duration": 5, "velocity": 92}, {"time": 4121, "pitch": 56, "duration": 4, "velocity": 92}, {"time": 4121, "pitch": 61, "duration": 7, "velocity": 92}, {"time": 4127, "pitch": 56, "duration": 4, "velocity": 94}, {"time": 4133, "pitch": 56, "duration": 3, "velocity": 92}, {"time": 4133, "pitch": 61, "duration": 7, "velocity": 94}, {"time": 4133, "pitch": 64, "duration": 8, "velocity": 96}, {"time": 4139, "pitch": 56, "duration": 3, "velocity": 91}, {"time": 4145, "pitch": 45, "duration": 38, "velocity": 101}, {"time": 4148, "pitch": 52, "duration": 8, "velocity": 91}, {"time": 4157, "pitch": 57, "duration": 7, "velocity": 107}, {"time": 4160, "pitch": 52, "duration": 5, "velocity": 83}, {"time": 4169, "pitch": 57, "duration": 7, "velocity": 93}, {"time": 4169, "pitch": 61, "duration": 7, "velocity": 91}, {"time": 4172, "pitch": 52, "duration": 4, "velocity": 86}, {"time": 4181, "pitch": 52, "duration": 2, "velocity": 92}, {"time": 4181, "pitch": 57, "duration": 7, "velocity": 104}, {"time": 4181, "pitch": 61, "duration": 10, "velocity": 92}, {"time": 4187, "pitch": 52, "duration": 5, "velocity": 92}, {"time": 4193, "pitch": 40, "duration": 17, "velocity": 92}, {"time": 4193, "pitch": 52, "duration": 13, "velocity": 90}, {"time": 4193, "pitch": 56, "duration": 10, "velocity": 91}, {"time": 4199, "pitch": 47, "duration": 11, "velocity": 84}, {"time": 4205, "pitch": 56, "duration": 5, "velocity": 88}, {"time": 4205, "pitch": 59, "duration": 5, "velocity": 93}, {"time": 4217, "pitch": 49, "duration": 13, "velocity": 91}, {"time": 4217, "pitch": 56, "duration": 4, "velocity": 81}, {"time": 4217, "pitch": 58, "duration": 1, "velocity": 78}, {"time": 4217, "pitch": 61, "duration": 8, "velocity": 90}, {"time": 4223, "pitch": 56, "duration": 7, "velocity": 94}, {"time": 4229, "pitch": 61, "duration": 4, "velocity": 91}, {"time": 4229, "pitch": 64, "duration": 8, "velocity": 92}, {"time": 4232, "pitch": 56, "duration": 4, "velocity": 72}, {"time": 4241, "pitch": 42, "duration": 18, "velocity": 92}, {"time": 4247, "pitch": 49, "duration": 13, "velocity": 93}, {"time": 4253, "pitch": 54, "duration": 8, "velocity": 94}, {"time": 4253, "pitch": 61, "duration": 2, "velocity": 68}, {"time": 4259, "pitch": 57, "duration": 3, "velocity": 97}, {"time": 4265, "pitch": 49, "duration": 16, "velocity": 99}, {"time": 4265, "pitch": 56, "duration": 4, "velocity": 91}, {"time": 4265, "pitch": 61, "duration": 7, "velocity": 91}, {"time": 4271, "pitch": 56, "duration": 8, "velocity": 92}, {"time": 4277, "pitch": 61, "duration": 10, "velocity": 101}, {"time": 4277, "pitch": 64, "duration": 7, "velocity": 96}, {"time": 4283, "pitch": 56, "duration": 4, "velocity": 90}, {"time": 4289, "pitch": 44, "duration": 14, "velocity": 92}, {"time": 4289, "pitch": 56, "duration": 8, "velocity": 92}, {"time": 4289, "pitch": 59, "duration": 8, "velocity": 90}, {"time": 4295, "pitch": 51, "duration": 8, "velocity": 88}, {"time": 4301, "pitch": 56, "duration": 5, "velocity": 92}, {"time": 4301, "pitch": 59, "duration": 4, "velocity": 101}, {"time": 4301, "pitch": 63, "duration": 7, "velocity": 96}, {"time": 4313, "pitch": 42, "duration": 16, "velocity": 92}, {"time": 4313, "pitch": 54, "duration": 13, "velocity": 90}, {"time": 4313, "pitch": 61, "duration": 14, "velocity": 90}, {"time": 4319, "pitch": 49, "duration": 10, "velocity": 90}, {"time": 4325, "pitch": 57, "duration": 7, "velocity": 94}, {"time": 4331, "pitch": 54, "duration": 3, "velocity": 94}, {"time": 4337, "pitch": 44, "duration": 14, "velocity": 93}, {"time": 4337, "pitch": 56, "duration": 9, "velocity": 94}, {"time": 4337, "pitch": 59, "duration": 9, "velocity": 93}, {"time": 4343, "pitch": 51, "duration": 7, "velocity": 92}, {"time": 4349, "pitch": 59, "duration": 10, "velocity": 97}, {"time": 4349, "pitch": 63, "duration": 7, "velocity": 99}, {"time": 4361, "pitch": 35, "duration": 15, "velocity": 91}, {"time": 4361, "pitch": 54, "duration": 7, "velocity": 94}, {"time": 4361, "pitch": 59, "duration": 9, "velocity": 92}, {"time": 4367, "pitch": 42, "duration": 8, "velocity": 86}, {"time": 4373, "pitch": 54, "duration": 2, "velocity": 91}, {"time": 4373, "pitch": 59, "duration": 10, "velocity": 99}, {"time": 4373, "pitch": 63, "duration": 11, "velocity": 94}, {"time": 4379, "pitch": 54, "duration": 4, "velocity": 91}, {"time": 4385, "pitch": 49, "duration": 15, "velocity": 96}, {"time": 4385, "pitch": 56, "duration": 4, "velocity": 94}, {"time": 4385, "pitch": 61, "duration": 8, "velocity": 90}, {"time": 4391, "pitch": 56, "duration": 8, "velocity": 92}, {"time": 4397, "pitch": 61, "duration": 6, "velocity": 97}, {"time": 4397, "pitch": 64, "duration": 7, "velocity": 92}, {"time": 4400, "pitch": 56, "duration": 3, "velocity": 93}, {"time": 4409, "pitch": 42, "duration": 22, "velocity": 91}, {"time": 4409, "pitch": 54, "duration": 9, "velocity": 90}, {"time": 4409, "pitch": 57, "duration": 10, "velocity": 84}, {"time": 4409, "pitch": 61, "duration": 10, "velocity": 90}, {"time": 4415, "pitch": 49, "duration": 15, "velocity": 90}, {"time": 4421, "pitch": 57, "duration": 7, "velocity": 92}, {"time": 4421, "pitch": 61, "duration": 1, "velocity": 79}, {"time": 4427, "pitch": 54, "duration": 4, "velocity": 104}, {"time": 4433, "pitch": 47, "duration": 21, "velocity": 94}, {"time": 4433, "pitch": 54, "duration": 11, "velocity": 94}, {"time": 4433, "pitch": 59, "duration": 10, "velocity": 96}, {"time": 4439, "pitch": 51, "duration": 16, "velocity": 84}, {"time": 4445, "pitch": 54, "duration": 2, "velocity": 62}, {"time": 4445, "pitch": 59, "duration": 8, "velocity": 99}, {"time": 4445, "pitch": 63, "duration": 8, "velocity": 101}, {"time": 4451, "pitch": 54, "duration": 4, "velocity": 101}, {"time": 4457, "pitch": 44, "duration": 15, "velocity": 94}, {"time": 4457, "pitch": 56, "duration": 10, "velocity": 93}, {"time": 4457, "pitch": 59, "duration": 9, "velocity": 96}, {"time": 4463, "pitch": 51, "duration": 8, "velocity": 91}, {"time": 4469, "pitch": 59, "duration": 8, "velocity": 101}, {"time": 4469, "pitch": 63, "duration": 8, "velocity": 101}, {"time": 4475, "pitch": 56, "duration": 9, "velocity": 92}, {"time": 4481, "pitch": 37, "duration": 50, "velocity": 95}, {"time": 4481, "pitch": 61, "duration": 8, "velocity": 91}, {"time": 4487, "pitch": 56, "duration": 4, "velocity": 91}, {"time": 4493, "pitch": 56, "duration": 4, "velocity": 92}, {"time": 4493, "pitch": 64, "duration": 7, "velocity": 93}, {"time": 4499, "pitch": 63, "duration": 7, "velocity": 104}, {"time": 4505, "pitch": 61, "duration": 6, "velocity": 104}, {"time": 4511, "pitch": 44, "duration": 20, "velocity": 90}, {"time": 4517, "pitch": 56, "duration": 3, "velocity": 96}, {"time": 4517, "pitch": 61, "duration": 8, "velocity": 104}, {"time": 4517, "pitch": 64, "duration": 8, "velocity": 94}, {"time": 4523, "pitch": 56, "duration": 6, "velocity": 95}, {"time": 4529, "pitch": 49, "duration": 14, "velocity": 101}, {"time": 4529, "pitch": 64, "duration": 8, "velocity": 97}, {"time": 4535, "pitch": 56, "duration": 7, "velocity": 93}, {"time": 4541, "pitch": 61, "duration": 7, "velocity": 99}, {"time": 4547, "pitch": 56, "duration": 11, "velocity": 94}, {"time": 4553, "pitch": 42, "duration": 22, "velocity": 95}, {"time": 4559, "pitch": 49, "duration": 15, "velocity": 91}, {"time": 4565, "pitch": 57, "duration": 6, "velocity": 97}, {"time": 4565, "pitch": 61, "duration": 7, "velocity": 91}, {"time": 4571, "pitch": 54, "duration": 5, "velocity": 101}, {"time": 4577, "pitch": 47, "duration": 16, "velocity": 99}, {"time": 4577, "pitch": 54, "duration": 10, "velocity": 99}, {"time": 4577, "pitch": 59, "duration": 9, "velocity": 91}, {"time": 4583, "pitch": 51, "duration": 12, "velocity": 82}, {"time": 4589, "pitch": 54, "duration": 4, "velocity": 95}, {"time": 4589, "pitch": 59, "duration": 7, "velocity": 95}, {"time": 4589, "pitch": 63, "duration": 12, "velocity": 96}, {"time": 4601, "pitch": 44, "duration": 15, "velocity": 90}, {"time": 4601, "pitch": 56, "duration": 10, "velocity": 91}, {"time": 4601, "pitch": 59, "duration": 10, "velocity": 92}, {"time": 4607, "pitch": 51, "duration": 10, "velocity": 96}, {"time": 4613, "pitch": 63, "duration": 7, "velocity": 99}, {"time": 4619, "pitch": 56, "duration": 6, "velocity": 97}, {"time": 4625, "pitch": 45, "duration": 12, "velocity": 95}, {"time": 4625, "pitch": 61, "duration": 13, "velocity": 92}, {"time": 4631, "pitch": 52, "duration": 7, "velocity": 85}, {"time": 4637, "pitch": 57, "duration": 7, "velocity": 97}, {"time": 4643, "pitch": 61, "duration": 5, "velocity": 91}, {"time": 4649, "pitch": 47, "duration": 14, "velocity": 96}, {"time": 4649, "pitch": 54, "duration": 9, "velocity": 91}, {"time": 4649, "pitch": 59, "duration": 9, "velocity": 96}, {"time": 4655, "pitch": 51, "duration": 8, "velocity": 90}, {"time": 4661, "pitch": 54, "duration": 5, "velocity": 92}, {"time": 4661, "pitch": 59, "duration": 6, "velocity": 96}, {"time": 4661, "pitch": 63, "duration": 11, "velocity": 95}, {"time": 4673, "pitch": 40, "duration": 20, "velocity": 91}, {"time": 4673, "pitch": 52, "duration": 8, "velocity": 91}, {"time": 4673, "pitch": 56, "duration": 7, "velocity": 93}, {"time": 4679, "pitch": 47, "duration": 15, "velocity": 88}, {"time": 4685, "pitch": 52, "duration": 7, "velocity": 97}, {"time": 4691, "pitch": 54, "duration": 7, "velocity": 111}, {"time": 4697, "pitch": 44, "duration": 21, "velocity": 91}, {"time": 4697, "pitch": 56, "duration": 9, "velocity": 94}, {"time": 4703, "pitch": 51, "duration": 9, "velocity": 87}, {"time": 4709, "pitch": 56, "duration": 9, "velocity": 106}, {"time": 4715, "pitch": 51, "duration": 4, "velocity": 94}, {"time": 4721, "pitch": 42, "duration": 39, "velocity": 94}, {"time": 4727, "pitch": 49, "duration": 22, "velocity": 91}, {"time": 4733, "pitch": 54, "duration": 10, "velocity": 106}, {"time": 4739, "pitch": 57, "duration": 4, "velocity": 91}, {"time": 4745, "pitch": 54, "duration": 10, "velocity": 95}, {"time": 4745, "pitch": 61, "duration": 9, "velocity": 92}, {"time": 4751, "pitch": 49, "duration": 8, "velocity": 91}, {"time": 4757, "pitch": 54, "duration": 2, "velocity": 79}, {"time": 4757, "pitch": 57, "duration": 5, "velocity": 90}, {"time": 4757, "pitch": 61, "duration": 6, "velocity": 94}, {"time": 4757, "pitch": 66, "duration": 7, "velocity": 91}, {"time": 4763, "pitch": 42, "duration": 4, "velocity": 91}, {"time": 4769, "pitch": 44, "duration": 24, "velocity": 88}, {"time": 4769, "pitch": 56, "duration": 11, "velocity": 90}, {"time": 4769, "pitch": 59, "duration": 9, "velocity": 90}, {"time": 4775, "pitch": 51, "duration": 14, "velocity": 90}, {"time": 4781, "pitch": 59, "duration": 7, "velocity": 95}, {"time": 4781, "pitch": 63, "duration": 7, "velocity": 94}, {"time": 4787, "pitch": 56, "duration": 5, "velocity": 92}, {"time": 4793, "pitch": 49, "duration": 20, "velocity": 95}, {"time": 4793, "pitch": 61, "duration": 13, "velocity": 92}, {"time": 4799, "pitch": 52, "duration": 13, "velocity": 72}, {"time": 4805, "pitch": 64, "duration": 12, "velocity": 101}, {"time": 4817, "pitch": 45, "duration": 16, "velocity": 106}, {"time": 4817, "pitch": 61, "duration": 12, "velocity": 96}, {"time": 4823, "pitch": 52, "duration": 9, "velocity": 89}, {"time": 4829, "pitch": 57, "duration": 7, "velocity": 86}, {"time": 4835, "pitch": 61, "duration": 6, "velocity": 92}, {"time": 4840, "pitch": 54, "duration": 4, "velocity": 94}, {"time": 4840, "pitch": 47, "duration": 8, "velocity": 111}, {"time": 4841, "pitch": 59, "duration": 6, "velocity": 96}, {"time": 4841, "pitch": 63, "duration": 7, "velocity": 99}, {"time": 4846, "pitch": 54, "duration": 2, "velocity": 94}, {"time": 4849, "pitch": 47, "duration": 8, "velocity": 116}, {"time": 4850, "pitch": 54, "duration": 7, "velocity": 101}, {"time": 4850, "pitch": 59, "duration": 7, "velocity": 95}, {"time": 4850, "pitch": 63, "duration": 7, "velocity": 97}, {"time": 4860, "pitch": 47, "duration": 38, "velocity": 111}, {"time": 4860, "pitch": 63, "duration": 60, "velocity": 93}, {"time": 4860, "pitch": 54, "duration": 60, "velocity": 93}, {"time": 4860, "pitch": 59, "duration": 60, "velocity": 94}, {"time": 4914, "pitch": 37, "duration": 12, "velocity": 106}, {"time": 4920, "pitch": 44, "duration": 7, "velocity": 79}, {"time": 4926, "pitch": 49, "duration": 4, "velocity": 90}, {"time": 4930, "pitch": 56, "duration": 2, "velocity": 87}, {"time": 4933, "pitch": 49, "duration": 6, "velocity": 90}, {"time": 4934, "pitch": 47, "duration": 2, "velocity": 66}, {"time": 4937, "pitch": 56, "duration": 5, "velocity": 83}, {"time": 4941, "pitch": 61, "duration": 5, "velocity": 93}, {"time": 4945, "pitch": 68, "duration": 4, "velocity": 87}, {"time": 4950, "pitch": 61, "duration": 27, "velocity": 91}, {"time": 4956, "pitch": 68, "duration": 21, "velocity": 81}, {"time": 4961, "pitch": 73, "duration": 10, "velocity": 95}, {"time": 4968, "pitch": 80, "duration": 3, "velocity": 84}, {"time": 4974, "pitch": 73, "duration": 2, "velocity": 78}, {"time": 4976, "pitch": 80, "duration": 1, "velocity": 82}, {"time": 4976, "pitch": 85, "duration": 2, "velocity": 86}], "annotations": [{"time": 18, "annotation": {"number": 64, "value": 127}, "group": "control_change"}, {"time": 63, "annotation": {"number": 64, "value": 0}, "group": "control_change"}, {"time": 68, "annotation": {"number": 64, "value": 127}, "group": "control_change"}, {"time": 110, "annotation": {"number": 64, "value": 0}, "group": "control_change"}, {"time": 114, "annotation": {"number": 64, "value": 127}, "group": "control_change"}, {"time": 159, "annotation": {"number": 64, "value": 0}, "group": "control_change"}, {"time": 163, "annotation": {"number": 64, "value": 127}, "group": "control_change"}, {"time": 207, "annotation": {"number": 64, "value": 0}, "group": "control_change"}, {"time": 213, "annotation": {"number": 64, "value": 127}, "group": "control_change"}, {"time": 253, "annotation": {"number": 64, "value": 0}, "group": "control_change"}, {"time": 258, "annotation": {"number": 64, "value": 127}, "group": "control_change"}, {"time": 303, "annotation": {"number": 64, "value": 0}, "group": "control_change"}, {"time": 314, "annotation": {"number": 64, "value": 127}, "group": "control_change"}, {"time": 350, "annotation": {"number": 64, "value": 0}, "group": "control_change"}, {"time": 357, "annotation": {"number": 64, "value": 127}, "group": "control_change"}, {"time": 396, "annotation": {"number": 64, "value": 0}, "group": "control_change"}, {"time": 407, "annotation": {"number": 64, "value": 127}, "group": "control_change"}, {"time": 424, "annotation": {"number": 64, "value": 0}, "group": "control_change"}, {"time": 431, "annotation": {"number": 64, "value": 127}, "group": "control_change"}, {"time": 445, "annotation": {"number": 64, "value": 0}, "group": "control_change"}, {"time": 452, "annotation": {"number": 64, "value": 127}, "group": "control_change"}, {"time": 471, "annotation": {"number": 64, "value": 0}, "group": "control_change"}, {"time": 478, "annotation": {"number": 64, "value": 127}, "group": "control_change"}, {"time": 521, "annotation": {"number": 64, "value": 0}, "group": "control_change"}, {"time": 528, "annotation": {"number": 64, "value": 127}, "group": "control_change"}, {"time": 542, "annotation": {"number": 64, "value": 0}, "group": "control_change"}, {"time": 548, "annotation": {"number": 64, "value": 127}, "group": "control_change"}, {"time": 567, "annotation": {"number": 64, "value": 0}, "group": "control_change"}, {"time": 574, "annotation": {"number": 64, "value": 127}, "group": "control_change"}, {"time": 593, "annotation": {"number": 64, "value": 0}, "group": "control_change"}, {"time": 596, "annotation": {"number": 64, "value": 127}, "group": "control_change"}, {"time": 616, "annotation": {"number": 64, "value": 0}, "group": "control_change"}, {"time": 622, "annotation": {"number": 64, "value": 127}, "group": "control_change"}, {"time": 640, "annotation": {"number": 64, "value": 0}, "group": "control_change"}, {"time": 647, "annotation": {"number": 64, "value": 127}, "group": "control_change"}, {"time": 666, "annotation": {"number": 64, "value": 0}, "group": "control_change"}, {"time": 673, "annotation": {"number": 64, "value": 127}, "group": "control_change"}, {"time": 687, "annotation": {"number": 64, "value": 0}, "group": "control_change"}, {"time": 700, "annotation": {"number": 64, "value": 127}, "group": "control_change"}, {"time": 712, "annotation": {"number": 64, "value": 0}, "group": "control_change"}, {"time": 719, "annotation": {"number": 64, "value": 127}, "group": "control_change"}, {"time": 733, "annotation": {"number": 64, "value": 0}, "group": "control_change"}, {"time": 741, "annotation": {"number": 64, "value": 127}, "group": "control_change"}, {"time": 783, "annotation": {"number": 64, "value": 0}, "group": "control_change"}, {"time": 791, "annotation": {"number": 64, "value": 127}, "group": "control_change"}, {"time": 808, "annotation": {"number": 64, "value": 0}, "group": "control_change"}, {"time": 815, "annotation": {"number": 64, "value": 127}, "group": "control_change"}, {"time": 829, "annotation": {"number": 64, "value": 0}, "group": "control_change"}, {"time": 836, "annotation": {"number": 64, "value": 127}, "group": "control_change"}, {"time": 855, "annotation": {"number": 64, "value": 0}, "group": "control_change"}, {"time": 862, "annotation": {"number": 64, "value": 127}, "group": "control_change"}, {"time": 905, "annotation": {"number": 64, "value": 0}, "group": "control_change"}, {"time": 912, "annotation": {"number": 64, "value": 127}, "group": "control_change"}, {"time": 926, "annotation": {"number": 64, "value": 0}, "group": "control_change"}, {"time": 932, "annotation": {"number": 64, "value": 127}, "group": "control_change"}, {"time": 951, "annotation": {"number": 64, "value": 0}, "group": "control_change"}, {"time": 958, "annotation": {"number": 64, "value": 127}, "group": "control_change"}, {"time": 977, "annotation": {"number": 64, "value": 0}, "group": "control_change"}, {"time": 980, "annotation": {"number": 64, "value": 127}, "group": "control_change"}, {"time": 1000, "annotation": {"number": 64, "value": 0}, "group": "control_change"}, {"time": 1006, "annotation": {"number": 64, "value": 127}, "group": "control_change"}, {"time": 1024, "annotation": {"number": 64, "value": 0}, "group": "control_change"}, {"time": 1031, "annotation": {"number": 64, "value": 127}, "group": "control_change"}, {"time": 1050, "annotation": {"number": 64, "value": 0}, "group": "control_change"}, {"time": 1057, "annotation": {"number": 64, "value": 127}, "group": "control_change"}, {"time": 1071, "annotation": {"number": 64, "value": 0}, "group": "control_change"}, {"time": 1084, "annotation": {"number": 64, "value": 127}, "group": "control_change"}, {"time": 1096, "annotation": {"number": 64, "value": 0}, "group": "control_change"}, {"time": 1103, "annotation": {"number": 64, "value": 127}, "group": "control_change"}, {"time": 1117, "annotation": {"number": 64, "value": 0}, "group": "control_change"}, {"time": 1125, "annotation": {"number": 64, "value": 127}, "group": "control_change"}, {"time": 1167, "annotation": {"number": 64, "value": 0}, "group": "control_change"}, {"time": 1170, "annotation": {"number": 64, "value": 127}, "group": "control_change"}, {"time": 1217, "annotation": {"number": 64, "value": 0}, "group": "control_change"}, {"time": 1219, "annotation": {"number": 64, "value": 127}, "group": "control_change"}, {"time": 1263, "annotation": {"number": 64, "value": 0}, "group": "control_change"}, {"time": 1271, "annotation": {"number": 64, "value": 127}, "group": "control_change"}, {"time": 1289, "annotation": {"number": 64, "value": 0}, "group": "control_change"}, {"time": 1293, "annotation": {"number": 64, "value": 127}, "group": "control_change"}, {"time": 1313, "annotation": {"number": 64, "value": 0}, "group": "control_change"}, {"time": 1318, "annotation": {"number": 64, "value": 127}, "group": "control_change"}, {"time": 1335, "annotation": {"number": 64, "value": 0}, "group": "control_change"}, {"time": 1340, "annotation": {"number": 64, "value": 127}, "group": "control_change"}, {"time": 1359, "annotation": {"number": 64, "value": 0}, "group": "control_change"}, {"time": 1366, "annotation": {"number": 64, "value": 127}, "group": "control_change"}, {"time": 1383, "annotation": {"number": 64, "value": 0}, "group": "control_change"}, {"time": 1390, "annotation": {"number": 64, "value": 127}, "group": "control_change"}, {"time": 1407, "annotation": {"number": 64, "value": 0}, "group": "control_change"}, {"time": 1415, "annotation": {"number": 64, "value": 127}, "group": "control_change"}, {"time": 1431, "annotation": {"number": 64, "value": 0}, "group": "control_change"}, {"time": 1437, "annotation": {"number": 64, "value": 127}, "group": "control_change"}, {"time": 1456, "annotation": {"number": 64, "value": 0}, "group": "control_change"}, {"time": 1462, "annotation": {"number": 64, "value": 127}, "group": "control_change"}, {"time": 1480, "annotation": {"number": 64, "value": 0}, "group": "control_change"}, {"time": 1488, "annotation": {"number": 64, "value": 127}, "group": "control_change"}, {"time": 1505, "annotation": {"number": 64, "value": 0}, "group": "control_change"}, {"time": 1511, "annotation": {"number": 64, "value": 127}, "group": "control_change"}, {"time": 1529, "annotation": {"number": 64, "value": 0}, "group": "control_change"}, {"time": 1535, "annotation": {"number": 64, "value": 127}, "group": "control_change"}, {"time": 1551, "annotation": {"number": 64, "value": 0}, "group": "control_change"}, {"time": 1555, "annotation": {"number": 64, "value": 127}, "group": "control_change"}, {"time": 1596, "annotation": {"number": 64, "value": 0}, "group": "control_change"}, {"time": 1602, "annotation": {"number": 64, "value": 127}, "group": "control_change"}, {"time": 1649, "annotation": {"number": 64, "value": 0}, "group": "control_change"}, {"time": 1651, "annotation": {"number": 64, "value": 127}, "group": "control_change"}, {"time": 1695, "annotation": {"number": 64, "value": 0}, "group": "control_change"}, {"time": 1703, "annotation": {"number": 64, "value": 127}, "group": "control_change"}, {"time": 1721, "annotation": {"number": 64, "value": 0}, "group": "control_change"}, {"time": 1725, "annotation": {"number": 64, "value": 127}, "group": "control_change"}, {"time": 1745, "annotation": {"number": 64, "value": 0}, "group": "control_change"}, {"time": 1750, "annotation": {"number": 64, "value": 127}, "group": "control_change"}, {"time": 1767, "annotation": {"number": 64, "value": 0}, "group": "control_change"}, {"time": 1772, "annotation": {"number": 64, "value": 127}, "group": "control_change"}, {"time": 1791, "annotation": {"number": 64, "value": 0}, "group": "control_change"}, {"time": 1798, "annotation": {"number": 64, "value": 127}, "group": "control_change"}, {"time": 1815, "annotation": {"number": 64, "value": 0}, "group": "control_change"}, {"time": 1822, "annotation": {"number": 64, "value": 127}, "group": "control_change"}, {"time": 1839, "annotation": {"number": 64, "value": 0}, "group": "control_change"}, {"time": 1847, "annotation": {"number": 64, "value": 127}, "group": "control_change"}, {"time": 1863, "annotation": {"number": 64, "value": 0}, "group": "control_change"}, {"time": 1869, "annotation": {"number": 64, "value": 127}, "group": "control_change"}, {"time": 1888, "annotation": {"number": 64, "value": 0}, "group": "control_change"}, {"time": 1894, "annotation": {"number": 64, "value": 127}, "group": "control_change"}, {"time": 1912, "annotation": {"number": 64, "value": 0}, "group": "control_change"}, {"time": 1920, "annotation": {"number": 64, "value": 127}, "group": "control_change"}, {"time": 1937, "annotation": {"number": 64, "value": 0}, "group": "control_change"}, {"time": 1943, "annotation": {"number": 64, "value": 127}, "group": "control_change"}, {"time": 1961, "annotation": {"number": 64, "value": 0}, "group": "control_change"}, {"time": 1967, "annotation": {"number": 64, "value": 127}, "group": "control_change"}, {"time": 1983, "annotation": {"number": 64, "value": 0}, "group": "control_change"}, {"time": 1987, "annotation": {"number": 64, "value": 127}, "group": "control_change"}, {"time": 2028, "annotation": {"number": 64, "value": 0}, "group": "control_change"}, {"time": 2034, "annotation": {"number": 64, "value": 127}, "group": "control_change"}, {"time": 2055, "annotation": {"number": 64, "value": 0}, "group": "control_change"}, {"time": 2060, "annotation": {"number": 64, "value": 127}, "group": "control_change"}, {"time": 2078, "annotation": {"number": 64, "value": 0}, "group": "control_change"}, {"time": 2086, "annotation": {"number": 64, "value": 127}, "group": "control_change"}, {"time": 2105, "annotation": {"number": 64, "value": 0}, "group": "control_change"}, {"time": 2111, "annotation": {"number": 64, "value": 127}, "group": "control_change"}, {"time": 2128, "annotation": {"number": 64, "value": 0}, "group": "control_change"}, {"time": 2134, "annotation": {"number": 64, "value": 127}, "group": "control_change"}, {"time": 2151, "annotation": {"number": 64, "value": 0}, "group": "control_change"}, {"time": 2157, "annotation": {"number": 64, "value": 127}, "group": "control_change"}, {"time": 2174, "annotation": {"number": 64, "value": 0}, "group": "control_change"}, {"time": 2198, "annotation": {"number": 64, "value": 0}, "group": "control_change"}, {"time": 2204, "annotation": {"number": 64, "value": 127}, "group": "control_change"}, {"time": 2224, "annotation": {"number": 64, "value": 0}, "group": "control_change"}, {"time": 2229, "annotation": {"number": 64, "value": 127}, "group": "control_change"}, {"time": 2272, "annotation": {"number": 64, "value": 0}, "group": "control_change"}, {"time": 2280, "annotation": {"number": 64, "value": 127}, "group": "control_change"}, {"time": 2295, "annotation": {"number": 64, "value": 0}, "group": "control_change"}, {"time": 2302, "annotation": {"number": 64, "value": 127}, "group": "control_change"}, {"time": 2320, "annotation": {"number": 64, "value": 0}, "group": "control_change"}, {"time": 2325, "annotation": {"number": 64, "value": 127}, "group": "control_change"}, {"time": 2343, "annotation": {"number": 64, "value": 0}, "group": "control_change"}, {"time": 2350, "annotation": {"number": 64, "value": 127}, "group": "control_change"}, {"time": 2366, "annotation": {"number": 64, "value": 0}, "group": "control_change"}, {"time": 2371, "annotation": {"number": 64, "value": 127}, "group": "control_change"}, {"time": 2413, "annotation": {"number": 64, "value": 0}, "group": "control_change"}, {"time": 2423, "annotation": {"number": 64, "value": 127}, "group": "control_change"}, {"time": 2440, "annotation": {"number": 64, "value": 0}, "group": "control_change"}, {"time": 2447, "annotation": {"number": 64, "value": 127}, "group": "control_change"}, {"time": 2461, "annotation": {"number": 64, "value": 0}, "group": "control_change"}, {"time": 2468, "annotation": {"number": 64, "value": 127}, "group": "control_change"}, {"time": 2487, "annotation": {"number": 64, "value": 0}, "group": "control_change"}, {"time": 2494, "annotation": {"number": 64, "value": 127}, "group": "control_change"}, {"time": 2537, "annotation": {"number": 64, "value": 0}, "group": "control_change"}, {"time": 2544, "annotation": {"number": 64, "value": 127}, "group": "control_change"}, {"time": 2558, "annotation": {"number": 64, "value": 0}, "group": "control_change"}, {"time": 2564, "annotation": {"number": 64, "value": 127}, "group": "control_change"}, {"time": 2583, "annotation": {"number": 64, "value": 0}, "group": "control_change"}, {"time": 2590, "annotation": {"number": 64, "value": 127}, "group": "control_change"}, {"time": 2609, "annotation": {"number": 64, "value": 0}, "group": "control_change"}, {"time": 2612, "annotation": {"number": 64, "value": 127}, "group": "control_change"}, {"time": 2632, "annotation": {"number": 64, "value": 0}, "group": "control_change"}, {"time": 2638, "annotation": {"number": 64, "value": 127}, "group": "control_change"}, {"time": 2656, "annotation": {"number": 64, "value": 0}, "group": "control_change"}, {"time": 2663, "annotation": {"number": 64, "value": 127}, "group": "control_change"}, {"time": 2682, "annotation": {"number": 64, "value": 0}, "group": "control_change"}, {"time": 2689, "annotation": {"number": 64, "value": 127}, "group": "control_change"}, {"time": 2703, "annotation": {"number": 64, "value": 0}, "group": "control_change"}, {"time": 2716, "annotation": {"number": 64, "value": 127}, "group": "control_change"}, {"time": 2728, "annotation": {"number": 64, "value": 0}, "group": "control_change"}, {"time": 2735, "annotation": {"number": 64, "value": 127}, "group": "control_change"}, {"time": 2749, "annotation": {"number": 64, "value": 0}, "group": "control_change"}, {"time": 2757, "annotation": {"number": 64, "value": 127}, "group": "control_change"}, {"time": 2799, "annotation": {"number": 64, "value": 0}, "group": "control_change"}, {"time": 2802, "annotation": {"number": 64, "value": 127}, "group": "control_change"}, {"time": 2849, "annotation": {"number": 64, "value": 0}, "group": "control_change"}, {"time": 2851, "annotation": {"number": 64, "value": 127}, "group": "control_change"}, {"time": 2895, "annotation": {"number": 64, "value": 0}, "group": "control_change"}, {"time": 2903, "annotation": {"number": 64, "value": 127}, "group": "control_change"}, {"time": 2921, "annotation": {"number": 64, "value": 0}, "group": "control_change"}, {"time": 2925, "annotation": {"number": 64, "value": 127}, "group": "control_change"}, {"time": 2945, "annotation": {"number": 64, "value": 0}, "group": "control_change"}, {"time": 2950, "annotation": {"number": 64, "value": 127}, "group": "control_change"}, {"time": 2967, "annotation": {"number": 64, "value": 0}, "group": "control_change"}, {"time": 2972, "annotation": {"number": 64, "value": 127}, "group": "control_change"}, {"time": 2991, "annotation": {"number": 64, "value": 0}, "group": "control_change"}, {"time": 2998, "annotation": {"number": 64, "value": 127}, "group": "control_change"}, {"time": 3015, "annotation": {"number": 64, "value": 0}, "group": "control_change"}, {"time": 3022, "annotation": {"number": 64, "value": 127}, "group": "control_change"}, {"time": 3039, "annotation": {"number": 64, "value": 0}, "group": "control_change"}, {"time": 3047, "annotation": {"number": 64, "value": 127}, "group": "control_change"}, {"time": 3063, "annotation": {"number": 64, "value": 0}, "group": "control_change"}, {"time": 3069, "annotation": {"number": 64, "value": 127}, "group": "control_change"}, {"time": 3088, "annotation": {"number": 64, "value": 0}, "group": "control_change"}, {"time": 3094, "annotation": {"number": 64, "value": 127}, "group": "control_change"}, {"time": 3112, "annotation": {"number": 64, "value": 0}, "group": "control_change"}, {"time": 3120, "annotation": {"number": 64, "value": 127}, "group": "control_change"}, {"time": 3137, "annotation": {"number": 64, "value": 0}, "group": "control_change"}, {"time": 3143, "annotation": {"number": 64, "value": 127}, "group": "control_change"}, {"time": 3161, "annotation": {"number": 64, "value": 0}, "group": "control_change"}, {"time": 3167, "annotation": {"number": 64, "value": 127}, "group": "control_change"}, {"time": 3183, "annotation": {"number": 64, "value": 0}, "group": "control_change"}, {"time": 3187, "annotation": {"number": 64, "value": 127}, "group": "control_change"}, {"time": 3228, "annotation": {"number": 64, "value": 0}, "group": "control_change"}, {"time": 3234, "annotation": {"number": 64, "value": 127}, "group": "control_change"}, {"time": 3281, "annotation": {"number": 64, "value": 0}, "group": "control_change"}, {"time": 3283, "annotation": {"number": 64, "value": 127}, "group": "control_change"}, {"time": 3327, "annotation": {"number": 64, "value": 0}, "group": "control_change"}, {"time": 3335, "annotation": {"number": 64, "value": 127}, "group": "control_change"}, {"time": 3353, "annotation": {"number": 64, "value": 0}, "group": "control_change"}, {"time": 3357, "annotation": {"number": 64, "value": 127}, "group": "control_change"}, {"time": 3377, "annotation": {"number": 64, "value": 0}, "group": "control_change"}, {"time": 3382, "annotation": {"number": 64, "value": 127}, "group": "control_change"}, {"time": 3399, "annotation": {"number": 64, "value": 0}, "group": "control_change"}, {"time": 3404, "annotation": {"number": 64, "value": 127}, "group": "control_change"}, {"time": 3423, "annotation": {"number": 64, "value": 0}, "group": "control_change"}, {"time": 3430, "annotation": {"number": 64, "value": 127}, "group": "control_change"}, {"time": 3447, "annotation": {"number": 64, "value": 0}, "group": "control_change"}, {"time": 3454, "annotation": {"number": 64, "value": 127}, "group": "control_change"}, {"time": 3471, "annotation": {"number": 64, "value": 0}, "group": "control_change"}, {"time": 3479, "annotation": {"number": 64, "value": 127}, "group": "control_change"}, {"time": 3495, "annotation": {"number": 64, "value": 0}, "group": "control_change"}, {"time": 3501, "annotation": {"number": 64, "value": 127}, "group": "control_change"}, {"time": 3520, "annotation": {"number": 64, "value": 0}, "group": "control_change"}, {"time": 3526, "annotation": {"number": 64, "value": 127}, "group": "control_change"}, {"time": 3544, "annotation": {"number": 64, "value": 0}, "group": "control_change"}, {"time": 3552, "annotation": {"number": 64, "value": 127}, "group": "control_change"}, {"time": 3569, "annotation": {"number": 64, "value": 0}, "group": "control_change"}, {"time": 3575, "annotation": {"number": 64, "value": 127}, "group": "control_change"}, {"time": 3593, "annotation": {"number": 64, "value": 0}, "group": "control_change"}, {"time": 3599, "annotation": {"number": 64, "value": 127}, "group": "control_change"}, {"time": 3615, "annotation": {"number": 64, "value": 0}, "group": "control_change"}, {"time": 3619, "annotation": {"number": 64, "value": 127}, "group": "control_change"}, {"time": 3660, "annotation": {"number": 64, "value": 0}, "group": "control_change"}, {"time": 3666, "annotation": {"number": 64, "value": 127}, "group": "control_change"}, {"time": 3713, "annotation": {"number": 64, "value": 0}, "group": "control_change"}, {"time": 3715, "annotation": {"number": 64, "value": 127}, "group": "control_change"}, {"time": 3759, "annotation": {"number": 64, "value": 0}, "group": "control_change"}, {"time": 3767, "annotation": {"number": 64, "value": 127}, "group": "control_change"}, {"time": 3785, "annotation": {"number": 64, "value": 0}, "group": "control_change"}, {"time": 3789, "annotation": {"number": 64, "value": 127}, "group": "control_change"}, {"time": 3809, "annotation": {"number": 64, "value": 0}, "group": "control_change"}, {"time": 3814, "annotation": {"number": 64, "value": 127}, "group": "control_change"}, {"time": 3831, "annotation": {"number": 64, "value": 0}, "group": "control_change"}, {"time": 3836, "annotation": {"number": 64, "value": 127}, "group": "control_change"}, {"time": 3855, "annotation": {"number": 64, "value": 0}, "group": "control_change"}, {"time": 3862, "annotation": {"number": 64, "value": 127}, "group": "control_change"}, {"time": 3879, "annotation": {"number": 64, "value": 0}, "group": "control_change"}, {"time": 3886, "annotation": {"number": 64, "value": 127}, "group": "control_change"}, {"time": 3903, "annotation": {"number": 64, "value": 0}, "group": "control_change"}, {"time": 3911, "annotation": {"number": 64, "value": 127}, "group": "control_change"}, {"time": 3927, "annotation": {"number": 64, "value": 0}, "group": "control_change"}, {"time": 3933, "annotation": {"number": 64, "value": 127}, "group": "control_change"}, {"time": 3952, "annotation": {"number": 64, "value": 0}, "group": "control_change"}, {"time": 3958, "annotation": {"number": 64, "value": 127}, "group": "control_change"}, {"time": 3976, "annotation": {"number": 64, "value": 0}, "group": "control_change"}, {"time": 3984, "annotation": {"number": 64, "value": 127}, "group": "control_change"}, {"time": 4001, "annotation": {"number": 64, "value": 0}, "group": "control_change"}, {"time": 4007, "annotation": {"number": 64, "value": 127}, "group": "control_change"}, {"time": 4025, "annotation": {"number": 64, "value": 0}, "group": "control_change"}, {"time": 4031, "annotation": {"number": 64, "value": 127}, "group": "control_change"}, {"time": 4047, "annotation": {"number": 64, "value": 0}, "group": "control_change"}, {"time": 4051, "annotation": {"number": 64, "value": 127}, "group": "control_change"}, {"time": 4092, "annotation": {"number": 64, "value": 0}, "group": "control_change"}, {"time": 4098, "annotation": {"number": 64, "value": 127}, "group": "control_change"}, {"time": 4145, "annotation": {"number": 64, "value": 0}, "group": "control_change"}, {"time": 4147, "annotation": {"number": 64, "value": 127}, "group": "control_change"}, {"time": 4191, "annotation": {"number": 64, "value": 0}, "group": "control_change"}, {"time": 4199, "annotation": {"number": 64, "value": 127}, "group": "control_change"}, {"time": 4217, "annotation": {"number": 64, "value": 0}, "group": "control_change"}, {"time": 4221, "annotation": {"number": 64, "value": 127}, "group": "control_change"}, {"time": 4241, "annotation": {"number": 64, "value": 0}, "group": "control_change"}, {"time": 4246, "annotation": {"number": 64, "value": 127}, "group": "control_change"}, {"time": 4263, "annotation": {"number": 64, "value": 0}, "group": "control_change"}, {"time": 4268, "annotation": {"number": 64, "value": 127}, "group": "control_change"}, {"time": 4287, "annotation": {"number": 64, "value": 0}, "group": "control_change"}, {"time": 4294, "annotation": {"number": 64, "value": 127}, "group": "control_change"}, {"time": 4311, "annotation": {"number": 64, "value": 0}, "group": "control_change"}, {"time": 4318, "annotation": {"number": 64, "value": 127}, "group": "control_change"}, {"time": 4335, "annotation": {"number": 64, "value": 0}, "group": "control_change"}, {"time": 4343, "annotation": {"number": 64, "value": 127}, "group": "control_change"}, {"time": 4359, "annotation": {"number": 64, "value": 0}, "group": "control_change"}, {"time": 4365, "annotation": {"number": 64, "value": 127}, "group": "control_change"}, {"time": 4384, "annotation": {"number": 64, "value": 0}, "group": "control_change"}, {"time": 4390, "annotation": {"number": 64, "value": 127}, "group": "control_change"}, {"time": 4408, "annotation": {"number": 64, "value": 0}, "group": "control_change"}, {"time": 4416, "annotation": {"number": 64, "value": 127}, "group": "control_change"}, {"time": 4433, "annotation": {"number": 64, "value": 0}, "group": "control_change"}, {"time": 4439, "annotation": {"number": 64, "value": 127}, "group": "control_change"}, {"time": 4457, "annotation": {"number": 64, "value": 0}, "group": "control_change"}, {"time": 4463, "annotation": {"number": 64, "value": 127}, "group": "control_change"}, {"time": 4479, "annotation": {"number": 64, "value": 0}, "group": "control_change"}, {"time": 4483, "annotation": {"number": 64, "value": 127}, "group": "control_change"}, {"time": 4524, "annotation": {"number": 64, "value": 0}, "group": "control_change"}, {"time": 4530, "annotation": {"number": 64, "value": 127}, "group": "control_change"}, {"time": 4551, "annotation": {"number": 64, "value": 0}, "group": "control_change"}, {"time": 4556, "annotation": {"number": 64, "value": 127}, "group": "control_change"}, {"time": 4574, "annotation": {"number": 64, "value": 0}, "group": "control_change"}, {"time": 4582, "annotation": {"number": 64, "value": 127}, "group": "control_change"}, {"time": 4601, "annotation": {"number": 64, "value": 0}, "group": "control_change"}, {"time": 4607, "annotation": {"number": 64, "value": 127}, "group": "control_change"}, {"time": 4624, "annotation": {"number": 64, "value": 0}, "group": "control_change"}, {"time": 4630, "annotation": {"number": 64, "value": 127}, "group": "control_change"}, {"time": 4647, "annotation": {"number": 64, "value": 0}, "group": "control_change"}, {"time": 4653, "annotation": {"number": 64, "value": 127}, "group": "control_change"}, {"time": 4670, "annotation": {"number": 64, "value": 0}, "group": "control_change"}, {"time": 4694, "annotation": {"number": 64, "value": 0}, "group": "control_change"}, {"time": 4700, "annotation": {"number": 64, "value": 127}, "group": "control_change"}, {"time": 4720, "annotation": {"number": 64, "value": 0}, "group": "control_change"}, {"time": 4725, "annotation": {"number": 64, "value": 127}, "group": "control_change"}, {"time": 4768, "annotation": {"number": 64, "value": 0}, "group": "control_change"}, {"time": 4776, "annotation": {"number": 64, "value": 127}, "group": "control_change"}, {"time": 4791, "annotation": {"number": 64, "value": 0}, "group": "control_change"}, {"time": 4798, "annotation": {"number": 64, "value": 127}, "group": "control_change"}, {"time": 4816, "annotation": {"number": 64, "value": 0}, "group": "control_change"}, {"time": 4821, "annotation": {"number": 64, "value": 127}, "group": "control_change"}, {"time": 4839, "annotation": {"number": 64, "value": 0}, "group": "control_change"}, {"time": 4842, "annotation": {"number": 64, "value": 127}, "group": "control_change"}, {"time": 4848, "annotation": {"number": 64, "value": 0}, "group": "control_change"}, {"time": 4919, "annotation": {"number": 64, "value": 127}, "group": "control_change"}]}]}