{"metadata": {"schema_version": "0.2", "title": "None", "source_filename": "505.mid", "source_format": "midi"}, "resolution": 12, "tempos": [{"time": 0, "qpm": 83.00017983372297}], "time_signatures": [{"time": 0, "numerator": 1, "denominator": 4}], "tracks": [{"program": 0, "is_drum": false, "name": "MELODY", "notes": [{"time": 651, "pitch": 78, "duration": 11, "velocity": 96}, {"time": 663, "pitch": 76, "duration": 4, "velocity": 103}, {"time": 669, "pitch": 74, "duration": 5, "velocity": 107}, {"time": 675, "pitch": 76, "duration": 10, "velocity": 107}, {"time": 687, "pitch": 74, "duration": 5, "velocity": 101}, {"time": 693, "pitch": 73, "duration": 5, "velocity": 100}, {"time": 699, "pitch": 74, "duration": 12, "velocity": 103}, {"time": 711, "pitch": 73, "duration": 5, "velocity": 98}, {"time": 717, "pitch": 71, "duration": 6, "velocity": 98}, {"time": 723, "pitch": 69, "duration": 19, "velocity": 97}, {"time": 747, "pitch": 71, "duration": 11, "velocity": 98}, {"time": 759, "pitch": 74, "duration": 11, "velocity": 101}, {"time": 771, "pitch": 73, "duration": 10, "velocity": 98}, {"time": 783, "pitch": 69, "duration": 10, "velocity": 96}, {"time": 795, "pitch": 66, "duration": 24, "velocity": 96}, {"time": 831, "pitch": 74, "duration": 5, "velocity": 107}, {"time": 837, "pitch": 76, "duration": 5, "velocity": 100}, {"time": 843, "pitch": 78, "duration": 11, "velocity": 100}, {"time": 855, "pitch": 76, "duration": 5, "velocity": 105}, {"time": 861, "pitch": 74, "duration": 5, "velocity": 102}, {"time": 867, "pitch": 76, "duration": 10, "velocity": 100}, {"time": 879, "pitch": 74, "duration": 5, "velocity": 98}, {"time": 885, "pitch": 73, "duration": 5, "velocity": 100}, {"time": 891, "pitch": 74, "duration": 10, "velocity": 101}, {"time": 903, "pitch": 73, "duration": 5, "velocity": 96}, {"time": 909, "pitch": 71, "duration": 4, "velocity": 96}, {"time": 915, "pitch": 69, "duration": 18, "velocity": 100}, {"time": 939, "pitch": 71, "duration": 10, "velocity": 102}, {"time": 951, "pitch": 78, "duration": 10, "velocity": 100}, {"time": 963, "pitch": 73, "duration": 11, "velocity": 97}, {"time": 975, "pitch": 74, "duration": 4, "velocity": 102}, {"time": 981, "pitch": 76, "duration": 5, "velocity": 97}, {"time": 987, "pitch": 74, "duration": 41, "velocity": 101}, {"time": 1035, "pitch": 71, "duration": 18, "velocity": 103}, {"time": 1053, "pitch": 74, "duration": 7, "velocity": 107}, {"time": 1059, "pitch": 73, "duration": 13, "velocity": 96}, {"time": 1071, "pitch": 74, "duration": 6, "velocity": 105}, {"time": 1077, "pitch": 76, "duration": 7, "velocity": 100}, {"time": 1083, "pitch": 78, "duration": 19, "velocity": 95}, {"time": 1101, "pitch": 81, "duration": 7, "velocity": 97}, {"time": 1107, "pitch": 78, "duration": 21, "velocity": 96}, {"time": 1131, "pitch": 71, "duration": 17, "velocity": 105}, {"time": 1149, "pitch": 74, "duration": 7, "velocity": 101}, {"time": 1155, "pitch": 73, "duration": 12, "velocity": 97}, {"time": 1167, "pitch": 74, "duration": 7, "velocity": 96}, {"time": 1173, "pitch": 76, "duration": 6, "velocity": 98}, {"time": 1179, "pitch": 74, "duration": 35, "velocity": 102}, {"time": 1215, "pitch": 74, "duration": 6, "velocity": 107}, {"time": 1221, "pitch": 76, "duration": 6, "velocity": 101}, {"time": 1227, "pitch": 78, "duration": 11, "velocity": 96}, {"time": 1239, "pitch": 76, "duration": 4, "velocity": 103}, {"time": 1245, "pitch": 74, "duration": 5, "velocity": 107}, {"time": 1251, "pitch": 76, "duration": 10, "velocity": 107}, {"time": 1263, "pitch": 74, "duration": 5, "velocity": 101}, {"time": 1269, "pitch": 73, "duration": 5, "velocity": 100}, {"time": 1275, "pitch": 74, "duration": 12, "velocity": 103}, {"time": 1287, "pitch": 73, "duration": 5, "velocity": 98}, {"time": 1293, "pitch": 71, "duration": 6, "velocity": 98}, {"time": 1299, "pitch": 69, "duration": 19, "velocity": 97}, {"time": 1323, "pitch": 71, "duration": 11, "velocity": 98}, {"time": 1335, "pitch": 74, "duration": 11, "velocity": 101}, {"time": 1347, "pitch": 73, "duration": 10, "velocity": 98}, {"time": 1359, "pitch": 74, "duration": 5, "velocity": 110}, {"time": 1365, "pitch": 76, "duration": 5, "velocity": 98}, {"time": 1371, "pitch": 78, "duration": 24, "velocity": 97}, {"time": 1395, "pitch": 76, "duration": 10, "velocity": 99}, {"time": 1407, "pitch": 74, "duration": 5, "velocity": 107}, {"time": 1413, "pitch": 76, "duration": 5, "velocity": 100}, {"time": 1419, "pitch": 78, "duration": 11, "velocity": 100}, {"time": 1431, "pitch": 76, "duration": 5, "velocity": 105}, {"time": 1437, "pitch": 74, "duration": 5, "velocity": 102}, {"time": 1443, "pitch": 76, "duration": 10, "velocity": 100}, {"time": 1455, "pitch": 74, "duration": 5, "velocity": 98}, {"time": 1461, "pitch": 73, "duration": 5, "velocity": 100}, {"time": 1467, "pitch": 74, "duration": 10, "velocity": 101}, {"time": 1479, "pitch": 73, "duration": 5, "velocity": 96}, {"time": 1485, "pitch": 71, "duration": 4, "velocity": 96}, {"time": 1491, "pitch": 69, "duration": 18, "velocity": 100}, {"time": 1515, "pitch": 71, "duration": 10, "velocity": 102}, {"time": 1527, "pitch": 78, "duration": 10, "velocity": 100}, {"time": 1539, "pitch": 73, "duration": 11, "velocity": 97}, {"time": 1551, "pitch": 74, "duration": 4, "velocity": 102}, {"time": 1557, "pitch": 76, "duration": 5, "velocity": 97}, {"time": 1563, "pitch": 74, "duration": 41, "velocity": 101}, {"time": 1599, "pitch": 78, "duration": 5, "velocity": 100}, {"time": 1605, "pitch": 81, "duration": 5, "velocity": 98}, {"time": 1611, "pitch": 83, "duration": 16, "velocity": 96}, {"time": 1629, "pitch": 83, "duration": 5, "velocity": 100}, {"time": 1635, "pitch": 81, "duration": 11, "velocity": 98}, {"time": 1647, "pitch": 76, "duration": 5, "velocity": 98}, {"time": 1653, "pitch": 81, "duration": 5, "velocity": 101}, {"time": 1659, "pitch": 78, "duration": 11, "velocity": 100}, {"time": 1671, "pitch": 74, "duration": 10, "velocity": 102}, {"time": 1683, "pitch": 71, "duration": 10, "velocity": 97}, {"time": 1695, "pitch": 71, "duration": 5, "velocity": 107}, {"time": 1701, "pitch": 73, "duration": 5, "velocity": 98}, {"time": 1707, "pitch": 74, "duration": 11, "velocity": 103}, {"time": 1719, "pitch": 78, "duration": 12, "velocity": 103}, {"time": 1731, "pitch": 76, "duration": 12, "velocity": 103}, {"time": 1743, "pitch": 81, "duration": 10, "velocity": 98}, {"time": 1755, "pitch": 78, "duration": 31, "velocity": 100}, {"time": 1791, "pitch": 78, "duration": 5, "velocity": 105}, {"time": 1797, "pitch": 81, "duration": 4, "velocity": 97}, {"time": 1803, "pitch": 83, "duration": 15, "velocity": 97}, {"time": 1821, "pitch": 83, "duration": 5, "velocity": 98}, {"time": 1827, "pitch": 81, "duration": 11, "velocity": 96}, {"time": 1839, "pitch": 76, "duration": 6, "velocity": 107}, {"time": 1845, "pitch": 81, "duration": 5, "velocity": 98}, {"time": 1851, "pitch": 78, "duration": 10, "velocity": 97}, {"time": 1863, "pitch": 74, "duration": 12, "velocity": 101}, {"time": 1875, "pitch": 71, "duration": 10, "velocity": 102}, {"time": 1887, "pitch": 78, "duration": 5, "velocity": 97}, {"time": 1893, "pitch": 76, "duration": 4, "velocity": 97}, {"time": 1899, "pitch": 74, "duration": 10, "velocity": 103}, {"time": 1911, "pitch": 78, "duration": 10, "velocity": 98}, {"time": 1923, "pitch": 76, "duration": 10, "velocity": 100}, {"time": 1935, "pitch": 78, "duration": 11, "velocity": 102}, {"time": 1947, "pitch": 71, "duration": 46, "velocity": 102}, {"time": 2379, "pitch": 71, "duration": 18, "velocity": 103}, {"time": 2397, "pitch": 74, "duration": 7, "velocity": 107}, {"time": 2403, "pitch": 73, "duration": 13, "velocity": 96}, {"time": 2415, "pitch": 74, "duration": 6, "velocity": 105}, {"time": 2421, "pitch": 76, "duration": 7, "velocity": 100}, {"time": 2427, "pitch": 78, "duration": 19, "velocity": 95}, {"time": 2445, "pitch": 81, "duration": 7, "velocity": 97}, {"time": 2451, "pitch": 78, "duration": 21, "velocity": 96}, {"time": 2475, "pitch": 71, "duration": 17, "velocity": 105}, {"time": 2493, "pitch": 74, "duration": 7, "velocity": 101}, {"time": 2499, "pitch": 73, "duration": 12, "velocity": 97}, {"time": 2511, "pitch": 74, "duration": 7, "velocity": 96}, {"time": 2517, "pitch": 76, "duration": 6, "velocity": 98}, {"time": 2523, "pitch": 74, "duration": 35, "velocity": 102}, {"time": 2559, "pitch": 74, "duration": 6, "velocity": 107}, {"time": 2565, "pitch": 76, "duration": 6, "velocity": 101}, {"time": 2571, "pitch": 78, "duration": 11, "velocity": 96}, {"time": 2583, "pitch": 76, "duration": 4, "velocity": 103}, {"time": 2589, "pitch": 74, "duration": 5, "velocity": 107}, {"time": 2595, "pitch": 76, "duration": 10, "velocity": 107}, {"time": 2607, "pitch": 74, "duration": 5, "velocity": 101}, {"time": 2613, "pitch": 73, "duration": 5, "velocity": 100}, {"time": 2619, "pitch": 74, "duration": 12, "velocity": 103}, {"time": 2631, "pitch": 73, "duration": 5, "velocity": 98}, {"time": 2637, "pitch": 71, "duration": 6, "velocity": 98}, {"time": 2643, "pitch": 69, "duration": 19, "velocity": 97}, {"time": 2667, "pitch": 71, "duration": 11, "velocity": 98}, {"time": 2679, "pitch": 74, "duration": 11, "velocity": 101}, {"time": 2691, "pitch": 73, "duration": 10, "velocity": 98}, {"time": 2703, "pitch": 74, "duration": 5, "velocity": 110}, {"time": 2709, "pitch": 76, "duration": 5, "velocity": 98}, {"time": 2715, "pitch": 78, "duration": 24, "velocity": 97}, {"time": 2739, "pitch": 76, "duration": 10, "velocity": 99}, {"time": 2751, "pitch": 74, "duration": 5, "velocity": 107}, {"time": 2757, "pitch": 76, "duration": 5, "velocity": 100}, {"time": 2763, "pitch": 78, "duration": 11, "velocity": 100}, {"time": 2775, "pitch": 76, "duration": 5, "velocity": 105}, {"time": 2781, "pitch": 74, "duration": 5, "velocity": 102}, {"time": 2787, "pitch": 76, "duration": 10, "velocity": 100}, {"time": 2799, "pitch": 74, "duration": 5, "velocity": 98}, {"time": 2805, "pitch": 73, "duration": 5, "velocity": 100}, {"time": 2811, "pitch": 74, "duration": 10, "velocity": 101}, {"time": 2823, "pitch": 73, "duration": 5, "velocity": 96}, {"time": 2829, "pitch": 71, "duration": 4, "velocity": 96}, {"time": 2835, "pitch": 69, "duration": 18, "velocity": 100}, {"time": 2859, "pitch": 71, "duration": 10, "velocity": 102}, {"time": 2871, "pitch": 78, "duration": 10, "velocity": 100}, {"time": 2883, "pitch": 73, "duration": 11, "velocity": 97}, {"time": 2895, "pitch": 74, "duration": 4, "velocity": 102}, {"time": 2901, "pitch": 76, "duration": 5, "velocity": 97}, {"time": 2907, "pitch": 74, "duration": 41, "velocity": 101}, {"time": 2943, "pitch": 78, "duration": 5, "velocity": 100}, {"time": 2949, "pitch": 81, "duration": 5, "velocity": 98}, {"time": 2955, "pitch": 83, "duration": 16, "velocity": 96}, {"time": 2973, "pitch": 83, "duration": 5, "velocity": 100}, {"time": 2979, "pitch": 81, "duration": 11, "velocity": 98}, {"time": 2991, "pitch": 76, "duration": 5, "velocity": 98}, {"time": 2997, "pitch": 81, "duration": 5, "velocity": 101}, {"time": 3003, "pitch": 78, "duration": 11, "velocity": 100}, {"time": 3015, "pitch": 74, "duration": 10, "velocity": 102}, {"time": 3027, "pitch": 71, "duration": 10, "velocity": 97}, {"time": 3039, "pitch": 71, "duration": 5, "velocity": 107}, {"time": 3045, "pitch": 73, "duration": 5, "velocity": 98}, {"time": 3051, "pitch": 74, "duration": 11, "velocity": 103}, {"time": 3063, "pitch": 78, "duration": 12, "velocity": 103}, {"time": 3075, "pitch": 76, "duration": 12, "velocity": 103}, {"time": 3087, "pitch": 81, "duration": 10, "velocity": 98}, {"time": 3099, "pitch": 78, "duration": 31, "velocity": 100}, {"time": 3135, "pitch": 78, "duration": 5, "velocity": 105}, {"time": 3141, "pitch": 81, "duration": 4, "velocity": 97}, {"time": 3147, "pitch": 83, "duration": 15, "velocity": 97}, {"time": 3165, "pitch": 83, "duration": 5, "velocity": 98}, {"time": 3171, "pitch": 81, "duration": 11, "velocity": 96}, {"time": 3183, "pitch": 76, "duration": 6, "velocity": 107}, {"time": 3189, "pitch": 81, "duration": 5, "velocity": 98}, {"time": 3195, "pitch": 78, "duration": 10, "velocity": 97}, {"time": 3207, "pitch": 74, "duration": 12, "velocity": 101}, {"time": 3219, "pitch": 71, "duration": 10, "velocity": 102}, {"time": 3231, "pitch": 78, "duration": 5, "velocity": 97}, {"time": 3237, "pitch": 76, "duration": 4, "velocity": 97}, {"time": 3243, "pitch": 74, "duration": 10, "velocity": 103}, {"time": 3255, "pitch": 78, "duration": 10, "velocity": 98}, {"time": 3267, "pitch": 76, "duration": 10, "velocity": 100}, {"time": 3279, "pitch": 78, "duration": 11, "velocity": 102}, {"time": 3291, "pitch": 71, "duration": 33, "velocity": 102}, {"time": 3327, "pitch": 78, "duration": 5, "velocity": 100}, {"time": 3333, "pitch": 81, "duration": 5, "velocity": 98}, {"time": 3339, "pitch": 83, "duration": 16, "velocity": 96}, {"time": 3357, "pitch": 83, "duration": 5, "velocity": 100}, {"time": 3363, "pitch": 81, "duration": 11, "velocity": 98}, {"time": 3375, "pitch": 76, "duration": 5, "velocity": 98}, {"time": 3381, "pitch": 81, "duration": 5, "velocity": 101}, {"time": 3387, "pitch": 78, "duration": 11, "velocity": 100}, {"time": 3399, "pitch": 74, "duration": 10, "velocity": 102}, {"time": 3411, "pitch": 71, "duration": 10, "velocity": 97}, {"time": 3423, "pitch": 71, "duration": 5, "velocity": 107}, {"time": 3429, "pitch": 73, "duration": 5, "velocity": 98}, {"time": 3435, "pitch": 74, "duration": 11, "velocity": 103}, {"time": 3447, "pitch": 78, "duration": 12, "velocity": 103}, {"time": 3459, "pitch": 76, "duration": 12, "velocity": 103}, {"time": 3471, "pitch": 81, "duration": 10, "velocity": 98}, {"time": 3483, "pitch": 78, "duration": 31, "velocity": 100}, {"time": 3519, "pitch": 78, "duration": 5, "velocity": 105}, {"time": 3525, "pitch": 81, "duration": 4, "velocity": 97}, {"time": 3531, "pitch": 83, "duration": 15, "velocity": 97}, {"time": 3549, "pitch": 83, "duration": 5, "velocity": 98}, {"time": 3555, "pitch": 81, "duration": 11, "velocity": 96}, {"time": 3567, "pitch": 76, "duration": 6, "velocity": 107}, {"time": 3573, "pitch": 81, "duration": 5, "velocity": 98}, {"time": 3579, "pitch": 78, "duration": 10, "velocity": 97}, {"time": 3591, "pitch": 74, "duration": 12, "velocity": 101}, {"time": 3603, "pitch": 71, "duration": 10, "velocity": 102}, {"time": 3615, "pitch": 78, "duration": 5, "velocity": 97}, {"time": 3621, "pitch": 76, "duration": 4, "velocity": 97}, {"time": 3627, "pitch": 74, "duration": 10, "velocity": 103}, {"time": 3639, "pitch": 78, "duration": 10, "velocity": 98}, {"time": 3651, "pitch": 76, "duration": 10, "velocity": 100}, {"time": 3663, "pitch": 78, "duration": 11, "velocity": 102}, {"time": 3675, "pitch": 71, "duration": 46, "velocity": 102}]}, {"program": 0, "is_drum": false, "name": "PIANO", "notes": [{"time": 40, "pitch": 47, "duration": 133, "velocity": 97}, {"time": 44, "pitch": 54, "duration": 35, "velocity": 89}, {"time": 47, "pitch": 59, "duration": 50, "velocity": 89}, {"time": 50, "pitch": 62, "duration": 34, "velocity": 91}, {"time": 52, "pitch": 66, "duration": 37, "velocity": 85}, {"time": 54, "pitch": 71, "duration": 38, "velocity": 96}, {"time": 81, "pitch": 54, "duration": 73, "velocity": 59}, {"time": 87, "pitch": 64, "duration": 9, "velocity": 93}, {"time": 91, "pitch": 66, "duration": 3, "velocity": 87}, {"time": 94, "pitch": 71, "duration": 77, "velocity": 98}, {"time": 96, "pitch": 66, "duration": 40, "velocity": 84}, {"time": 98, "pitch": 64, "duration": 4, "velocity": 91}, {"time": 101, "pitch": 59, "duration": 42, "velocity": 89}, {"time": 103, "pitch": 64, "duration": 37, "velocity": 88}, {"time": 138, "pitch": 66, "duration": 29, "velocity": 85}, {"time": 142, "pitch": 64, "duration": 22, "velocity": 77}, {"time": 159, "pitch": 54, "duration": 13, "velocity": 78}, {"time": 163, "pitch": 59, "duration": 6, "velocity": 91}, {"time": 165, "pitch": 64, "duration": 6, "velocity": 91}, {"time": 169, "pitch": 66, "duration": 2, "velocity": 85}, {"time": 171, "pitch": 57, "duration": 14, "velocity": 89}, {"time": 172, "pitch": 45, "duration": 94, "velocity": 97}, {"time": 172, "pitch": 64, "duration": 18, "velocity": 95}, {"time": 183, "pitch": 52, "duration": 24, "velocity": 91}, {"time": 187, "pitch": 57, "duration": 3, "velocity": 90}, {"time": 190, "pitch": 61, "duration": 4, "velocity": 83}, {"time": 196, "pitch": 64, "duration": 11, "velocity": 91}, {"time": 213, "pitch": 61, "duration": 3, "velocity": 88}, {"time": 213, "pitch": 64, "duration": 4, "velocity": 92}, {"time": 213, "pitch": 69, "duration": 5, "velocity": 88}, {"time": 216, "pitch": 57, "duration": 2, "velocity": 96}, {"time": 219, "pitch": 69, "duration": 9, "velocity": 91}, {"time": 219, "pitch": 64, "duration": 10, "velocity": 89}, {"time": 220, "pitch": 61, "duration": 7, "velocity": 78}, {"time": 237, "pitch": 57, "duration": 3, "velocity": 84}, {"time": 237, "pitch": 61, "duration": 3, "velocity": 85}, {"time": 237, "pitch": 71, "duration": 2, "velocity": 90}, {"time": 246, "pitch": 69, "duration": 4, "velocity": 89}, {"time": 246, "pitch": 57, "duration": 3, "velocity": 85}, {"time": 246, "pitch": 61, "duration": 3, "velocity": 85}, {"time": 255, "pitch": 69, "duration": 11, "velocity": 92}, {"time": 255, "pitch": 61, "duration": 10, "velocity": 89}, {"time": 255, "pitch": 57, "duration": 6, "velocity": 92}, {"time": 261, "pitch": 52, "duration": 5, "velocity": 85}, {"time": 264, "pitch": 57, "duration": 2, "velocity": 87}, {"time": 266, "pitch": 58, "duration": 19, "velocity": 81}, {"time": 267, "pitch": 46, "duration": 43, "velocity": 90}, {"time": 267, "pitch": 62, "duration": 19, "velocity": 96}, {"time": 267, "pitch": 70, "duration": 19, "velocity": 87}, {"time": 284, "pitch": 53, "duration": 23, "velocity": 78}, {"time": 288, "pitch": 58, "duration": 2, "velocity": 79}, {"time": 290, "pitch": 62, "duration": 4, "velocity": 88}, {"time": 293, "pitch": 70, "duration": 3, "velocity": 90}, {"time": 302, "pitch": 70, "duration": 5, "velocity": 87}, {"time": 302, "pitch": 58, "duration": 5, "velocity": 80}, {"time": 302, "pitch": 62, "duration": 5, "velocity": 92}, {"time": 314, "pitch": 46, "duration": 37, "velocity": 88}, {"time": 315, "pitch": 53, "duration": 35, "velocity": 79}, {"time": 315, "pitch": 62, "duration": 5, "velocity": 88}, {"time": 315, "pitch": 58, "duration": 5, "velocity": 77}, {"time": 324, "pitch": 58, "duration": 3, "velocity": 84}, {"time": 324, "pitch": 62, "duration": 3, "velocity": 92}, {"time": 333, "pitch": 70, "duration": 2, "velocity": 81}, {"time": 333, "pitch": 58, "duration": 2, "velocity": 76}, {"time": 333, "pitch": 62, "duration": 1, "velocity": 88}, {"time": 341, "pitch": 58, "duration": 5, "velocity": 83}, {"time": 342, "pitch": 62, "duration": 5, "velocity": 96}, {"time": 350, "pitch": 58, "duration": 12, "velocity": 86}, {"time": 350, "pitch": 62, "duration": 12, "velocity": 97}, {"time": 350, "pitch": 70, "duration": 12, "velocity": 92}, {"time": 363, "pitch": 42, "duration": 97, "velocity": 86}, {"time": 363, "pitch": 50, "duration": 97, "velocity": 83}, {"time": 363, "pitch": 57, "duration": 10, "velocity": 77}, {"time": 363, "pitch": 62, "duration": 12, "velocity": 85}, {"time": 363, "pitch": 66, "duration": 10, "velocity": 83}, {"time": 363, "pitch": 69, "duration": 9, "velocity": 68}, {"time": 381, "pitch": 62, "duration": 3, "velocity": 87}, {"time": 381, "pitch": 66, "duration": 2, "velocity": 77}, {"time": 381, "pitch": 69, "duration": 3, "velocity": 85}, {"time": 390, "pitch": 69, "duration": 5, "velocity": 91}, {"time": 393, "pitch": 66, "duration": 4, "velocity": 74}, {"time": 399, "pitch": 62, "duration": 6, "velocity": 91}, {"time": 399, "pitch": 66, "duration": 4, "velocity": 87}, {"time": 399, "pitch": 69, "duration": 4, "velocity": 82}, {"time": 411, "pitch": 57, "duration": 4, "velocity": 82}, {"time": 411, "pitch": 62, "duration": 4, "velocity": 90}, {"time": 411, "pitch": 66, "duration": 4, "velocity": 84}, {"time": 420, "pitch": 57, "duration": 3, "velocity": 75}, {"time": 420, "pitch": 66, "duration": 3, "velocity": 84}, {"time": 429, "pitch": 57, "duration": 3, "velocity": 80}, {"time": 429, "pitch": 62, "duration": 3, "velocity": 88}, {"time": 438, "pitch": 57, "duration": 4, "velocity": 87}, {"time": 438, "pitch": 66, "duration": 4, "velocity": 88}, {"time": 447, "pitch": 57, "duration": 4, "velocity": 96}, {"time": 447, "pitch": 62, "duration": 13, "velocity": 100}, {"time": 447, "pitch": 66, "duration": 12, "velocity": 86}, {"time": 453, "pitch": 57, "duration": 7, "velocity": 98}, {"time": 459, "pitch": 43, "duration": 21, "velocity": 96}, {"time": 459, "pitch": 55, "duration": 6, "velocity": 91}, {"time": 459, "pitch": 62, "duration": 1, "velocity": 91}, {"time": 465, "pitch": 50, "duration": 8, "velocity": 85}, {"time": 471, "pitch": 55, "duration": 5, "velocity": 96}, {"time": 471, "pitch": 62, "duration": 8, "velocity": 95}, {"time": 477, "pitch": 50, "duration": 4, "velocity": 87}, {"time": 480, "pitch": 55, "duration": 2, "velocity": 97}, {"time": 483, "pitch": 45, "duration": 19, "velocity": 97}, {"time": 483, "pitch": 61, "duration": 8, "velocity": 99}, {"time": 489, "pitch": 52, "duration": 12, "velocity": 91}, {"time": 495, "pitch": 57, "duration": 3, "velocity": 96}, {"time": 495, "pitch": 61, "duration": 5, "velocity": 97}, {"time": 507, "pitch": 50, "duration": 13, "velocity": 91}, {"time": 507, "pitch": 57, "duration": 3, "velocity": 96}, {"time": 507, "pitch": 62, "duration": 7, "velocity": 99}, {"time": 513, "pitch": 57, "duration": 4, "velocity": 91}, {"time": 519, "pitch": 49, "duration": 10, "velocity": 90}, {"time": 519, "pitch": 57, "duration": 7, "velocity": 97}, {"time": 519, "pitch": 61, "duration": 11, "velocity": 96}, {"time": 531, "pitch": 47, "duration": 16, "velocity": 96}, {"time": 531, "pitch": 59, "duration": 6, "velocity": 92}, {"time": 531, "pitch": 62, "duration": 5, "velocity": 96}, {"time": 537, "pitch": 54, "duration": 8, "velocity": 81}, {"time": 543, "pitch": 59, "duration": 4, "velocity": 98}, {"time": 543, "pitch": 66, "duration": 5, "velocity": 96}, {"time": 555, "pitch": 43, "duration": 22, "velocity": 96}, {"time": 555, "pitch": 55, "duration": 10, "velocity": 91}, {"time": 555, "pitch": 62, "duration": 10, "velocity": 93}, {"time": 561, "pitch": 50, "duration": 9, "velocity": 84}, {"time": 567, "pitch": 55, "duration": 6, "velocity": 97}, {"time": 567, "pitch": 62, "duration": 11, "velocity": 96}, {"time": 573, "pitch": 50, "duration": 4, "velocity": 89}, {"time": 576, "pitch": 55, "duration": 3, "velocity": 96}, {"time": 579, "pitch": 45, "duration": 15, "velocity": 97}, {"time": 579, "pitch": 61, "duration": 7, "velocity": 102}, {"time": 582, "pitch": 52, "duration": 11, "velocity": 89}, {"time": 585, "pitch": 57, "duration": 5, "velocity": 95}, {"time": 591, "pitch": 57, "duration": 4, "velocity": 99}, {"time": 591, "pitch": 61, "duration": 5, "velocity": 98}, {"time": 597, "pitch": 45, "duration": 3, "velocity": 97}, {"time": 603, "pitch": 47, "duration": 46, "velocity": 97}, {"time": 603, "pitch": 59, "duration": 8, "velocity": 93}, {"time": 603, "pitch": 62, "duration": 8, "velocity": 93}, {"time": 609, "pitch": 54, "duration": 9, "velocity": 91}, {"time": 615, "pitch": 59, "duration": 5, "velocity": 89}, {"time": 615, "pitch": 62, "duration": 5, "velocity": 91}, {"time": 615, "pitch": 66, "duration": 5, "velocity": 96}, {"time": 624, "pitch": 59, "duration": 5, "velocity": 85}, {"time": 624, "pitch": 62, "duration": 6, "velocity": 89}, {"time": 627, "pitch": 54, "duration": 21, "velocity": 81}, {"time": 633, "pitch": 59, "duration": 3, "velocity": 80}, {"time": 639, "pitch": 59, "duration": 4, "velocity": 86}, {"time": 639, "pitch": 62, "duration": 3, "velocity": 87}, {"time": 651, "pitch": 50, "duration": 16, "velocity": 85}, {"time": 651, "pitch": 57, "duration": 4, "velocity": 90}, {"time": 651, "pitch": 62, "duration": 11, "velocity": 92}, {"time": 657, "pitch": 57, "duration": 8, "velocity": 89}, {"time": 663, "pitch": 66, "duration": 3, "velocity": 92}, {"time": 675, "pitch": 45, "duration": 16, "velocity": 96}, {"time": 675, "pitch": 61, "duration": 13, "velocity": 89}, {"time": 681, "pitch": 52, "duration": 11, "velocity": 89}, {"time": 687, "pitch": 57, "duration": 6, "velocity": 92}, {"time": 693, "pitch": 61, "duration": 5, "velocity": 93}, {"time": 699, "pitch": 47, "duration": 14, "velocity": 97}, {"time": 699, "pitch": 59, "duration": 6, "velocity": 89}, {"time": 699, "pitch": 62, "duration": 5, "velocity": 91}, {"time": 705, "pitch": 54, "duration": 7, "velocity": 85}, {"time": 711, "pitch": 59, "duration": 3, "velocity": 96}, {"time": 711, "pitch": 66, "duration": 2, "velocity": 88}, {"time": 723, "pitch": 45, "duration": 15, "velocity": 88}, {"time": 723, "pitch": 57, "duration": 9, "velocity": 86}, {"time": 723, "pitch": 61, "duration": 9, "velocity": 88}, {"time": 729, "pitch": 52, "duration": 8, "velocity": 82}, {"time": 735, "pitch": 57, "duration": 4, "velocity": 87}, {"time": 735, "pitch": 64, "duration": 4, "velocity": 97}, {"time": 747, "pitch": 43, "duration": 17, "velocity": 97}, {"time": 747, "pitch": 55, "duration": 8, "velocity": 90}, {"time": 747, "pitch": 62, "duration": 13, "velocity": 91}, {"time": 753, "pitch": 50, "duration": 12, "velocity": 85}, {"time": 759, "pitch": 55, "duration": 5, "velocity": 96}, {"time": 771, "pitch": 45, "duration": 21, "velocity": 97}, {"time": 771, "pitch": 57, "duration": 8, "velocity": 90}, {"time": 771, "pitch": 61, "duration": 9, "velocity": 91}, {"time": 777, "pitch": 52, "duration": 14, "velocity": 91}, {"time": 783, "pitch": 57, "duration": 5, "velocity": 98}, {"time": 795, "pitch": 50, "duration": 46, "velocity": 92}, {"time": 795, "pitch": 57, "duration": 4, "velocity": 96}, {"time": 795, "pitch": 62, "duration": 9, "velocity": 94}, {"time": 801, "pitch": 57, "duration": 8, "velocity": 89}, {"time": 807, "pitch": 62, "duration": 5, "velocity": 86}, {"time": 813, "pitch": 57, "duration": 4, "velocity": 71}, {"time": 819, "pitch": 57, "duration": 4, "velocity": 97}, {"time": 819, "pitch": 66, "duration": 7, "velocity": 96}, {"time": 825, "pitch": 57, "duration": 7, "velocity": 78}, {"time": 831, "pitch": 64, "duration": 9, "velocity": 96}, {"time": 843, "pitch": 50, "duration": 19, "velocity": 99}, {"time": 843, "pitch": 57, "duration": 4, "velocity": 89}, {"time": 843, "pitch": 62, "duration": 10, "velocity": 95}, {"time": 849, "pitch": 57, "duration": 8, "velocity": 89}, {"time": 855, "pitch": 62, "duration": 6, "velocity": 97}, {"time": 855, "pitch": 66, "duration": 10, "velocity": 98}, {"time": 867, "pitch": 45, "duration": 19, "velocity": 90}, {"time": 867, "pitch": 61, "duration": 10, "velocity": 98}, {"time": 873, "pitch": 52, "duration": 16, "velocity": 88}, {"time": 879, "pitch": 57, "duration": 9, "velocity": 97}, {"time": 879, "pitch": 61, "duration": 10, "velocity": 96}, {"time": 891, "pitch": 47, "duration": 17, "velocity": 97}, {"time": 891, "pitch": 59, "duration": 8, "velocity": 95}, {"time": 891, "pitch": 62, "duration": 7, "velocity": 96}, {"time": 897, "pitch": 54, "duration": 9, "velocity": 85}, {"time": 903, "pitch": 59, "duration": 5, "velocity": 98}, {"time": 915, "pitch": 45, "duration": 17, "velocity": 96}, {"time": 915, "pitch": 57, "duration": 8, "velocity": 90}, {"time": 915, "pitch": 61, "duration": 13, "velocity": 85}, {"time": 921, "pitch": 52, "duration": 11, "velocity": 89}, {"time": 927, "pitch": 57, "duration": 5, "velocity": 92}, {"time": 939, "pitch": 43, "duration": 22, "velocity": 97}, {"time": 939, "pitch": 55, "duration": 8, "velocity": 90}, {"time": 939, "pitch": 59, "duration": 13, "velocity": 92}, {"time": 945, "pitch": 50, "duration": 16, "velocity": 91}, {"time": 951, "pitch": 55, "duration": 8, "velocity": 102}, {"time": 963, "pitch": 45, "duration": 18, "velocity": 96}, {"time": 963, "pitch": 57, "duration": 8, "velocity": 88}, {"time": 963, "pitch": 61, "duration": 13, "velocity": 96}, {"time": 969, "pitch": 52, "duration": 13, "velocity": 91}, {"time": 975, "pitch": 57, "duration": 7, "velocity": 98}, {"time": 981, "pitch": 61, "duration": 3, "velocity": 98}, {"time": 987, "pitch": 47, "duration": 47, "velocity": 97}, {"time": 987, "pitch": 59, "duration": 9, "velocity": 91}, {"time": 987, "pitch": 62, "duration": 9, "velocity": 92}, {"time": 993, "pitch": 54, "duration": 9, "velocity": 64}, {"time": 999, "pitch": 59, "duration": 7, "velocity": 97}, {"time": 1005, "pitch": 54, "duration": 8, "velocity": 86}, {"time": 1011, "pitch": 59, "duration": 9, "velocity": 98}, {"time": 1011, "pitch": 66, "duration": 6, "velocity": 96}, {"time": 1017, "pitch": 54, "duration": 17, "velocity": 80}, {"time": 1023, "pitch": 64, "duration": 7, "velocity": 96}, {"time": 1029, "pitch": 62, "duration": 5, "velocity": 96}, {"time": 1035, "pitch": 43, "duration": 22, "velocity": 98}, {"time": 1035, "pitch": 55, "duration": 9, "velocity": 95}, {"time": 1035, "pitch": 59, "duration": 13, "velocity": 95}, {"time": 1041, "pitch": 50, "duration": 16, "velocity": 90}, {"time": 1047, "pitch": 55, "duration": 7, "velocity": 102}, {"time": 1053, "pitch": 62, "duration": 6, "velocity": 92}, {"time": 1059, "pitch": 45, "duration": 23, "velocity": 96}, {"time": 1059, "pitch": 57, "duration": 9, "velocity": 88}, {"time": 1059, "pitch": 61, "duration": 13, "velocity": 85}, {"time": 1065, "pitch": 52, "duration": 13, "velocity": 89}, {"time": 1071, "pitch": 57, "duration": 7, "velocity": 95}, {"time": 1083, "pitch": 50, "duration": 45, "velocity": 98}, {"time": 1083, "pitch": 57, "duration": 4, "velocity": 93}, {"time": 1083, "pitch": 62, "duration": 9, "velocity": 96}, {"time": 1089, "pitch": 57, "duration": 7, "velocity": 85}, {"time": 1095, "pitch": 62, "duration": 9, "velocity": 90}, {"time": 1101, "pitch": 57, "duration": 4, "velocity": 79}, {"time": 1107, "pitch": 57, "duration": 3, "velocity": 96}, {"time": 1107, "pitch": 62, "duration": 7, "velocity": 98}, {"time": 1107, "pitch": 66, "duration": 7, "velocity": 97}, {"time": 1113, "pitch": 57, "duration": 4, "velocity": 80}, {"time": 1119, "pitch": 61, "duration": 5, "velocity": 102}, {"time": 1125, "pitch": 62, "duration": 4, "velocity": 96}, {"time": 1131, "pitch": 43, "duration": 21, "velocity": 98}, {"time": 1131, "pitch": 55, "duration": 10, "velocity": 94}, {"time": 1131, "pitch": 59, "duration": 10, "velocity": 91}, {"time": 1137, "pitch": 50, "duration": 16, "velocity": 92}, {"time": 1143, "pitch": 55, "duration": 8, "velocity": 97}, {"time": 1155, "pitch": 45, "duration": 20, "velocity": 98}, {"time": 1155, "pitch": 57, "duration": 7, "velocity": 93}, {"time": 1155, "pitch": 61, "duration": 9, "velocity": 95}, {"time": 1161, "pitch": 52, "duration": 17, "velocity": 90}, {"time": 1167, "pitch": 57, "duration": 6, "velocity": 100}, {"time": 1179, "pitch": 47, "duration": 49, "velocity": 97}, {"time": 1179, "pitch": 59, "duration": 9, "velocity": 92}, {"time": 1179, "pitch": 62, "duration": 9, "velocity": 93}, {"time": 1185, "pitch": 54, "duration": 9, "velocity": 90}, {"time": 1191, "pitch": 59, "duration": 10, "velocity": 96}, {"time": 1191, "pitch": 66, "duration": 4, "velocity": 96}, {"time": 1197, "pitch": 54, "duration": 31, "velocity": 89}, {"time": 1203, "pitch": 59, "duration": 2, "velocity": 80}, {"time": 1203, "pitch": 71, "duration": 9, "velocity": 92}, {"time": 1209, "pitch": 59, "duration": 8, "velocity": 87}, {"time": 1209, "pitch": 66, "duration": 2, "velocity": 85}, {"time": 1215, "pitch": 66, "duration": 12, "velocity": 103}, {"time": 1221, "pitch": 59, "duration": 6, "velocity": 96}, {"time": 1227, "pitch": 50, "duration": 15, "velocity": 99}, {"time": 1227, "pitch": 57, "duration": 4, "velocity": 92}, {"time": 1227, "pitch": 62, "duration": 10, "velocity": 96}, {"time": 1233, "pitch": 57, "duration": 8, "velocity": 89}, {"time": 1239, "pitch": 62, "duration": 4, "velocity": 96}, {"time": 1239, "pitch": 66, "duration": 5, "velocity": 91}, {"time": 1251, "pitch": 45, "duration": 21, "velocity": 93}, {"time": 1251, "pitch": 61, "duration": 13, "velocity": 93}, {"time": 1251, "pitch": 64, "duration": 13, "velocity": 97}, {"time": 1257, "pitch": 52, "duration": 16, "velocity": 92}, {"time": 1263, "pitch": 57, "duration": 7, "velocity": 97}, {"time": 1269, "pitch": 61, "duration": 5, "velocity": 107}, {"time": 1275, "pitch": 47, "duration": 17, "velocity": 97}, {"time": 1275, "pitch": 59, "duration": 9, "velocity": 92}, {"time": 1275, "pitch": 62, "duration": 6, "velocity": 97}, {"time": 1281, "pitch": 54, "duration": 8, "velocity": 89}, {"time": 1287, "pitch": 62, "duration": 6, "velocity": 98}, {"time": 1287, "pitch": 66, "duration": 7, "velocity": 98}, {"time": 1293, "pitch": 59, "duration": 4, "velocity": 93}, {"time": 1299, "pitch": 45, "duration": 19, "velocity": 97}, {"time": 1299, "pitch": 57, "duration": 11, "velocity": 96}, {"time": 1299, "pitch": 61, "duration": 9, "velocity": 93}, {"time": 1305, "pitch": 52, "duration": 13, "velocity": 88}, {"time": 1311, "pitch": 57, "duration": 6, "velocity": 87}, {"time": 1311, "pitch": 64, "duration": 11, "velocity": 98}, {"time": 1323, "pitch": 43, "duration": 21, "velocity": 98}, {"time": 1323, "pitch": 55, "duration": 8, "velocity": 91}, {"time": 1323, "pitch": 62, "duration": 14, "velocity": 94}, {"time": 1329, "pitch": 50, "duration": 16, "velocity": 87}, {"time": 1335, "pitch": 55, "duration": 7, "velocity": 97}, {"time": 1341, "pitch": 59, "duration": 6, "velocity": 98}, {"time": 1347, "pitch": 45, "duration": 22, "velocity": 98}, {"time": 1347, "pitch": 57, "duration": 8, "velocity": 93}, {"time": 1347, "pitch": 61, "duration": 12, "velocity": 91}, {"time": 1353, "pitch": 52, "duration": 15, "velocity": 91}, {"time": 1359, "pitch": 57, "duration": 9, "velocity": 96}, {"time": 1371, "pitch": 50, "duration": 16, "velocity": 100}, {"time": 1371, "pitch": 57, "duration": 4, "velocity": 95}, {"time": 1371, "pitch": 62, "duration": 8, "velocity": 97}, {"time": 1377, "pitch": 57, "duration": 4, "velocity": 90}, {"time": 1383, "pitch": 62, "duration": 7, "velocity": 97}, {"time": 1383, "pitch": 66, "duration": 7, "velocity": 96}, {"time": 1389, "pitch": 57, "duration": 5, "velocity": 99}, {"time": 1395, "pitch": 45, "duration": 21, "velocity": 97}, {"time": 1395, "pitch": 57, "duration": 8, "velocity": 101}, {"time": 1395, "pitch": 61, "duration": 8, "velocity": 99}, {"time": 1401, "pitch": 52, "duration": 15, "velocity": 96}, {"time": 1407, "pitch": 57, "duration": 2, "velocity": 95}, {"time": 1407, "pitch": 61, "duration": 7, "velocity": 101}, {"time": 1407, "pitch": 64, "duration": 10, "velocity": 101}, {"time": 1419, "pitch": 50, "duration": 23, "velocity": 97}, {"time": 1419, "pitch": 62, "duration": 8, "velocity": 100}, {"time": 1425, "pitch": 57, "duration": 8, "velocity": 97}, {"time": 1431, "pitch": 62, "duration": 7, "velocity": 97}, {"time": 1431, "pitch": 66, "duration": 8, "velocity": 96}, {"time": 1437, "pitch": 57, "duration": 7, "velocity": 98}, {"time": 1443, "pitch": 49, "duration": 17, "velocity": 96}, {"time": 1443, "pitch": 61, "duration": 8, "velocity": 96}, {"time": 1449, "pitch": 57, "duration": 4, "velocity": 97}, {"time": 1455, "pitch": 64, "duration": 10, "velocity": 99}, {"time": 1467, "pitch": 47, "duration": 20, "velocity": 98}, {"time": 1467, "pitch": 59, "duration": 10, "velocity": 92}, {"time": 1467, "pitch": 62, "duration": 10, "velocity": 96}, {"time": 1473, "pitch": 54, "duration": 14, "velocity": 90}, {"time": 1479, "pitch": 62, "duration": 8, "velocity": 96}, {"time": 1479, "pitch": 66, "duration": 13, "velocity": 97}, {"time": 1485, "pitch": 59, "duration": 3, "velocity": 75}, {"time": 1491, "pitch": 45, "duration": 19, "velocity": 97}, {"time": 1491, "pitch": 57, "duration": 8, "velocity": 91}, {"time": 1491, "pitch": 61, "duration": 13, "velocity": 86}, {"time": 1497, "pitch": 52, "duration": 14, "velocity": 95}, {"time": 1503, "pitch": 57, "duration": 6, "velocity": 97}, {"time": 1515, "pitch": 43, "duration": 19, "velocity": 97}, {"time": 1515, "pitch": 55, "duration": 10, "velocity": 94}, {"time": 1515, "pitch": 59, "duration": 10, "velocity": 92}, {"time": 1521, "pitch": 50, "duration": 13, "velocity": 84}, {"time": 1527, "pitch": 55, "duration": 3, "velocity": 93}, {"time": 1527, "pitch": 59, "duration": 11, "velocity": 94}, {"time": 1527, "pitch": 62, "duration": 8, "velocity": 96}, {"time": 1533, "pitch": 55, "duration": 4, "velocity": 96}, {"time": 1539, "pitch": 45, "duration": 19, "velocity": 98}, {"time": 1539, "pitch": 57, "duration": 9, "velocity": 96}, {"time": 1539, "pitch": 61, "duration": 13, "velocity": 95}, {"time": 1545, "pitch": 52, "duration": 15, "velocity": 90}, {"time": 1551, "pitch": 57, "duration": 5, "velocity": 103}, {"time": 1563, "pitch": 47, "duration": 44, "velocity": 97}, {"time": 1563, "pitch": 59, "duration": 9, "velocity": 92}, {"time": 1563, "pitch": 62, "duration": 11, "velocity": 94}, {"time": 1569, "pitch": 54, "duration": 8, "velocity": 85}, {"time": 1575, "pitch": 59, "duration": 8, "velocity": 107}, {"time": 1581, "pitch": 54, "duration": 8, "velocity": 93}, {"time": 1587, "pitch": 59, "duration": 7, "velocity": 101}, {"time": 1587, "pitch": 62, "duration": 7, "velocity": 102}, {"time": 1587, "pitch": 66, "duration": 7, "velocity": 102}, {"time": 1593, "pitch": 54, "duration": 12, "velocity": 98}, {"time": 1599, "pitch": 59, "duration": 5, "velocity": 102}, {"time": 1599, "pitch": 62, "duration": 4, "velocity": 110}, {"time": 1605, "pitch": 61, "duration": 4, "velocity": 113}, {"time": 1611, "pitch": 43, "duration": 20, "velocity": 100}, {"time": 1611, "pitch": 55, "duration": 9, "velocity": 99}, {"time": 1611, "pitch": 59, "duration": 9, "velocity": 105}, {"time": 1617, "pitch": 50, "duration": 9, "velocity": 93}, {"time": 1623, "pitch": 55, "duration": 5, "velocity": 98}, {"time": 1623, "pitch": 62, "duration": 6, "velocity": 105}, {"time": 1629, "pitch": 50, "duration": 5, "velocity": 107}, {"time": 1635, "pitch": 45, "duration": 22, "velocity": 98}, {"time": 1635, "pitch": 57, "duration": 7, "velocity": 99}, {"time": 1635, "pitch": 61, "duration": 9, "velocity": 107}, {"time": 1641, "pitch": 52, "duration": 9, "velocity": 92}, {"time": 1647, "pitch": 57, "duration": 6, "velocity": 97}, {"time": 1647, "pitch": 61, "duration": 6, "velocity": 102}, {"time": 1647, "pitch": 64, "duration": 7, "velocity": 102}, {"time": 1653, "pitch": 52, "duration": 4, "velocity": 98}, {"time": 1659, "pitch": 50, "duration": 12, "velocity": 103}, {"time": 1659, "pitch": 57, "duration": 4, "velocity": 100}, {"time": 1659, "pitch": 62, "duration": 7, "velocity": 103}, {"time": 1665, "pitch": 57, "duration": 6, "velocity": 103}, {"time": 1671, "pitch": 49, "duration": 11, "velocity": 101}, {"time": 1671, "pitch": 61, "duration": 6, "velocity": 110}, {"time": 1677, "pitch": 57, "duration": 3, "velocity": 98}, {"time": 1683, "pitch": 47, "duration": 16, "velocity": 105}, {"time": 1683, "pitch": 59, "duration": 9, "velocity": 94}, {"time": 1683, "pitch": 62, "duration": 6, "velocity": 98}, {"time": 1689, "pitch": 54, "duration": 8, "velocity": 96}, {"time": 1695, "pitch": 59, "duration": 3, "velocity": 93}, {"time": 1695, "pitch": 62, "duration": 5, "velocity": 98}, {"time": 1695, "pitch": 66, "duration": 6, "velocity": 101}, {"time": 1701, "pitch": 59, "duration": 4, "velocity": 103}, {"time": 1707, "pitch": 43, "duration": 18, "velocity": 97}, {"time": 1707, "pitch": 55, "duration": 9, "velocity": 99}, {"time": 1707, "pitch": 59, "duration": 9, "velocity": 97}, {"time": 1713, "pitch": 50, "duration": 13, "velocity": 90}, {"time": 1719, "pitch": 55, "duration": 3, "velocity": 102}, {"time": 1719, "pitch": 59, "duration": 6, "velocity": 102}, {"time": 1719, "pitch": 62, "duration": 7, "velocity": 100}, {"time": 1725, "pitch": 55, "duration": 3, "velocity": 96}, {"time": 1731, "pitch": 45, "duration": 16, "velocity": 97}, {"time": 1731, "pitch": 57, "duration": 9, "velocity": 91}, {"time": 1731, "pitch": 61, "duration": 8, "velocity": 96}, {"time": 1737, "pitch": 52, "duration": 9, "velocity": 94}, {"time": 1743, "pitch": 57, "duration": 8, "velocity": 100}, {"time": 1749, "pitch": 61, "duration": 5, "velocity": 107}, {"time": 1755, "pitch": 38, "duration": 21, "velocity": 98}, {"time": 1755, "pitch": 57, "duration": 7, "velocity": 97}, {"time": 1755, "pitch": 62, "duration": 8, "velocity": 101}, {"time": 1761, "pitch": 45, "duration": 15, "velocity": 84}, {"time": 1767, "pitch": 62, "duration": 4, "velocity": 101}, {"time": 1773, "pitch": 64, "duration": 2, "velocity": 102}, {"time": 1779, "pitch": 38, "duration": 18, "velocity": 102}, {"time": 1779, "pitch": 66, "duration": 6, "velocity": 102}, {"time": 1785, "pitch": 45, "duration": 12, "velocity": 93}, {"time": 1791, "pitch": 62, "duration": 5, "velocity": 107}, {"time": 1797, "pitch": 66, "duration": 2, "velocity": 107}, {"time": 1803, "pitch": 43, "duration": 19, "velocity": 92}, {"time": 1803, "pitch": 55, "duration": 9, "velocity": 86}, {"time": 1803, "pitch": 57, "duration": 1, "velocity": 84}, {"time": 1803, "pitch": 59, "duration": 13, "velocity": 87}, {"time": 1803, "pitch": 60, "duration": 2, "velocity": 84}, {"time": 1809, "pitch": 50, "duration": 14, "velocity": 87}, {"time": 1815, "pitch": 55, "duration": 7, "velocity": 102}, {"time": 1821, "pitch": 59, "duration": 6, "velocity": 96}, {"time": 1827, "pitch": 45, "duration": 22, "velocity": 99}, {"time": 1827, "pitch": 57, "duration": 7, "velocity": 95}, {"time": 1827, "pitch": 61, "duration": 12, "velocity": 97}, {"time": 1833, "pitch": 52, "duration": 15, "velocity": 94}, {"time": 1839, "pitch": 57, "duration": 9, "velocity": 100}, {"time": 1845, "pitch": 61, "duration": 5, "velocity": 97}, {"time": 1851, "pitch": 50, "duration": 12, "velocity": 102}, {"time": 1851, "pitch": 57, "duration": 3, "velocity": 96}, {"time": 1851, "pitch": 62, "duration": 6, "velocity": 100}, {"time": 1857, "pitch": 57, "duration": 6, "velocity": 98}, {"time": 1863, "pitch": 49, "duration": 12, "velocity": 103}, {"time": 1863, "pitch": 61, "duration": 12, "velocity": 110}, {"time": 1875, "pitch": 47, "duration": 14, "velocity": 101}, {"time": 1875, "pitch": 59, "duration": 7, "velocity": 93}, {"time": 1875, "pitch": 62, "duration": 7, "velocity": 97}, {"time": 1881, "pitch": 54, "duration": 6, "velocity": 100}, {"time": 1887, "pitch": 59, "duration": 3, "velocity": 97}, {"time": 1887, "pitch": 62, "duration": 6, "velocity": 99}, {"time": 1899, "pitch": 43, "duration": 18, "velocity": 98}, {"time": 1899, "pitch": 55, "duration": 10, "velocity": 96}, {"time": 1899, "pitch": 62, "duration": 11, "velocity": 94}, {"time": 1905, "pitch": 50, "duration": 12, "velocity": 91}, {"time": 1911, "pitch": 55, "duration": 3, "velocity": 98}, {"time": 1911, "pitch": 59, "duration": 7, "velocity": 98}, {"time": 1917, "pitch": 55, "duration": 4, "velocity": 92}, {"time": 1923, "pitch": 45, "duration": 17, "velocity": 98}, {"time": 1923, "pitch": 57, "duration": 9, "velocity": 89}, {"time": 1923, "pitch": 61, "duration": 13, "velocity": 98}, {"time": 1929, "pitch": 52, "duration": 11, "velocity": 96}, {"time": 1935, "pitch": 57, "duration": 6, "velocity": 97}, {"time": 1941, "pitch": 61, "duration": 5, "velocity": 98}, {"time": 1947, "pitch": 47, "duration": 44, "velocity": 98}, {"time": 1947, "pitch": 59, "duration": 9, "velocity": 93}, {"time": 1947, "pitch": 62, "duration": 7, "velocity": 98}, {"time": 1953, "pitch": 54, "duration": 8, "velocity": 88}, {"time": 1959, "pitch": 59, "duration": 9, "velocity": 100}, {"time": 1965, "pitch": 54, "duration": 9, "velocity": 92}, {"time": 1971, "pitch": 59, "duration": 9, "velocity": 97}, {"time": 1971, "pitch": 62, "duration": 8, "velocity": 97}, {"time": 1971, "pitch": 66, "duration": 7, "velocity": 100}, {"time": 1977, "pitch": 54, "duration": 11, "velocity": 84}, {"time": 1983, "pitch": 62, "duration": 10, "velocity": 96}, {"time": 1995, "pitch": 40, "duration": 15, "velocity": 101}, {"time": 1995, "pitch": 59, "duration": 9, "velocity": 98}, {"time": 1995, "pitch": 64, "duration": 9, "velocity": 101}, {"time": 2001, "pitch": 47, "duration": 9, "velocity": 92}, {"time": 2007, "pitch": 59, "duration": 3, "velocity": 99}, {"time": 2007, "pitch": 67, "duration": 7, "velocity": 98}, {"time": 2019, "pitch": 45, "duration": 21, "velocity": 98}, {"time": 2019, "pitch": 57, "duration": 11, "velocity": 93}, {"time": 2019, "pitch": 61, "duration": 9, "velocity": 96}, {"time": 2025, "pitch": 52, "duration": 13, "velocity": 90}, {"time": 2031, "pitch": 64, "duration": 6, "velocity": 100}, {"time": 2037, "pitch": 57, "duration": 8, "velocity": 102}, {"time": 2043, "pitch": 50, "duration": 41, "velocity": 102}, {"time": 2043, "pitch": 62, "duration": 8, "velocity": 101}, {"time": 2049, "pitch": 57, "duration": 8, "velocity": 87}, {"time": 2055, "pitch": 62, "duration": 7, "velocity": 102}, {"time": 2061, "pitch": 64, "duration": 2, "velocity": 110}, {"time": 2067, "pitch": 57, "duration": 3, "velocity": 97}, {"time": 2067, "pitch": 66, "duration": 7, "velocity": 93}, {"time": 2073, "pitch": 57, "duration": 7, "velocity": 96}, {"time": 2079, "pitch": 62, "duration": 4, "velocity": 98}, {"time": 2091, "pitch": 37, "duration": 38, "velocity": 84}, {"time": 2091, "pitch": 61, "duration": 3, "velocity": 96}, {"time": 2091, "pitch": 64, "duration": 10, "velocity": 98}, {"time": 2097, "pitch": 61, "duration": 4, "velocity": 87}, {"time": 2103, "pitch": 61, "duration": 3, "velocity": 88}, {"time": 2103, "pitch": 64, "duration": 8, "velocity": 97}, {"time": 2103, "pitch": 67, "duration": 7, "velocity": 96}, {"time": 2109, "pitch": 61, "duration": 2, "velocity": 74}, {"time": 2115, "pitch": 61, "duration": 5, "velocity": 89}, {"time": 2115, "pitch": 64, "duration": 10, "velocity": 97}, {"time": 2121, "pitch": 61, "duration": 4, "velocity": 91}, {"time": 2127, "pitch": 61, "duration": 3, "velocity": 101}, {"time": 2127, "pitch": 64, "duration": 4, "velocity": 98}, {"time": 2127, "pitch": 67, "duration": 4, "velocity": 91}, {"time": 2139, "pitch": 42, "duration": 39, "velocity": 103}, {"time": 2139, "pitch": 54, "duration": 8, "velocity": 95}, {"time": 2139, "pitch": 61, "duration": 9, "velocity": 97}, {"time": 2145, "pitch": 49, "duration": 21, "velocity": 92}, {"time": 2151, "pitch": 58, "duration": 4, "velocity": 93}, {"time": 2157, "pitch": 54, "duration": 5, "velocity": 100}, {"time": 2163, "pitch": 54, "duration": 11, "velocity": 101}, {"time": 2163, "pitch": 58, "duration": 6, "velocity": 94}, {"time": 2163, "pitch": 61, "duration": 6, "velocity": 97}, {"time": 2163, "pitch": 66, "duration": 6, "velocity": 93}, {"time": 2169, "pitch": 49, "duration": 8, "velocity": 96}, {"time": 2175, "pitch": 54, "duration": 3, "velocity": 98}, {"time": 2175, "pitch": 58, "duration": 3, "velocity": 96}, {"time": 2175, "pitch": 61, "duration": 4, "velocity": 98}, {"time": 2178, "pitch": 49, "duration": 2, "velocity": 99}, {"time": 2181, "pitch": 42, "duration": 2, "velocity": 101}, {"time": 2187, "pitch": 43, "duration": 23, "velocity": 102}, {"time": 2190, "pitch": 50, "duration": 20, "velocity": 88}, {"time": 2193, "pitch": 55, "duration": 5, "velocity": 100}, {"time": 2196, "pitch": 59, "duration": 4, "velocity": 100}, {"time": 2199, "pitch": 62, "duration": 4, "velocity": 97}, {"time": 2202, "pitch": 67, "duration": 5, "velocity": 97}, {"time": 2205, "pitch": 62, "duration": 6, "velocity": 96}, {"time": 2208, "pitch": 55, "duration": 6, "velocity": 103}, {"time": 2211, "pitch": 43, "duration": 22, "velocity": 98}, {"time": 2214, "pitch": 50, "duration": 19, "velocity": 92}, {"time": 2217, "pitch": 55, "duration": 7, "velocity": 103}, {"time": 2220, "pitch": 59, "duration": 5, "velocity": 105}, {"time": 2223, "pitch": 62, "duration": 4, "velocity": 98}, {"time": 2226, "pitch": 67, "duration": 6, "velocity": 100}, {"time": 2229, "pitch": 62, "duration": 4, "velocity": 99}, {"time": 2232, "pitch": 55, "duration": 3, "velocity": 112}, {"time": 2235, "pitch": 45, "duration": 23, "velocity": 99}, {"time": 2238, "pitch": 52, "duration": 20, "velocity": 85}, {"time": 2241, "pitch": 57, "duration": 7, "velocity": 99}, {"time": 2244, "pitch": 61, "duration": 4, "velocity": 103}, {"time": 2247, "pitch": 64, "duration": 8, "velocity": 98}, {"time": 2253, "pitch": 69, "duration": 4, "velocity": 103}, {"time": 2256, "pitch": 64, "duration": 10, "velocity": 101}, {"time": 2259, "pitch": 45, "duration": 22, "velocity": 99}, {"time": 2262, "pitch": 52, "duration": 20, "velocity": 97}, {"time": 2265, "pitch": 57, "duration": 6, "velocity": 98}, {"time": 2268, "pitch": 61, "duration": 4, "velocity": 101}, {"time": 2271, "pitch": 64, "duration": 3, "velocity": 99}, {"time": 2274, "pitch": 69, "duration": 5, "velocity": 101}, {"time": 2277, "pitch": 64, "duration": 6, "velocity": 98}, {"time": 2280, "pitch": 57, "duration": 4, "velocity": 92}, {"time": 2283, "pitch": 49, "duration": 43, "velocity": 102}, {"time": 2283, "pitch": 67, "duration": 7, "velocity": 98}, {"time": 2286, "pitch": 55, "duration": 40, "velocity": 99}, {"time": 2289, "pitch": 61, "duration": 5, "velocity": 98}, {"time": 2292, "pitch": 64, "duration": 3, "velocity": 96}, {"time": 2295, "pitch": 67, "duration": 3, "velocity": 100}, {"time": 2298, "pitch": 64, "duration": 3, "velocity": 107}, {"time": 2301, "pitch": 61, "duration": 5, "velocity": 98}, {"time": 2304, "pitch": 64, "duration": 3, "velocity": 99}, {"time": 2307, "pitch": 67, "duration": 4, "velocity": 101}, {"time": 2310, "pitch": 64, "duration": 4, "velocity": 107}, {"time": 2313, "pitch": 61, "duration": 6, "velocity": 102}, {"time": 2316, "pitch": 64, "duration": 4, "velocity": 105}, {"time": 2319, "pitch": 67, "duration": 7, "velocity": 100}, {"time": 2322, "pitch": 64, "duration": 4, "velocity": 103}, {"time": 2325, "pitch": 61, "duration": 3, "velocity": 97}, {"time": 2331, "pitch": 47, "duration": 48, "velocity": 97}, {"time": 2331, "pitch": 59, "duration": 8, "velocity": 98}, {"time": 2331, "pitch": 62, "duration": 10, "velocity": 97}, {"time": 2337, "pitch": 54, "duration": 33, "velocity": 84}, {"time": 2340, "pitch": 59, "duration": 3, "velocity": 96}, {"time": 2343, "pitch": 66, "duration": 4, "velocity": 105}, {"time": 2346, "pitch": 59, "duration": 4, "velocity": 101}, {"time": 2349, "pitch": 62, "duration": 3, "velocity": 96}, {"time": 2352, "pitch": 59, "duration": 3, "velocity": 99}, {"time": 2355, "pitch": 66, "duration": 3, "velocity": 98}, {"time": 2358, "pitch": 59, "duration": 3, "velocity": 92}, {"time": 2361, "pitch": 62, "duration": 3, "velocity": 86}, {"time": 2364, "pitch": 59, "duration": 3, "velocity": 95}, {"time": 2367, "pitch": 59, "duration": 2, "velocity": 98}, {"time": 2367, "pitch": 66, "duration": 8, "velocity": 107}, {"time": 2370, "pitch": 59, "duration": 4, "velocity": 102}, {"time": 2373, "pitch": 62, "duration": 3, "velocity": 103}, {"time": 2376, "pitch": 59, "duration": 3, "velocity": 102}, {"time": 2379, "pitch": 43, "duration": 22, "velocity": 98}, {"time": 2379, "pitch": 55, "duration": 9, "velocity": 95}, {"time": 2379, "pitch": 59, "duration": 13, "velocity": 95}, {"time": 2385, "pitch": 50, "duration": 16, "velocity": 90}, {"time": 2391, "pitch": 55, "duration": 7, "velocity": 102}, {"time": 2397, "pitch": 62, "duration": 6, "velocity": 92}, {"time": 2403, "pitch": 45, "duration": 23, "velocity": 96}, {"time": 2403, "pitch": 57, "duration": 9, "velocity": 88}, {"time": 2403, "pitch": 61, "duration": 13, "velocity": 85}, {"time": 2409, "pitch": 52, "duration": 13, "velocity": 89}, {"time": 2415, "pitch": 57, "duration": 7, "velocity": 95}, {"time": 2427, "pitch": 50, "duration": 45, "velocity": 98}, {"time": 2427, "pitch": 57, "duration": 4, "velocity": 93}, {"time": 2427, "pitch": 62, "duration": 9, "velocity": 96}, {"time": 2433, "pitch": 57, "duration": 7, "velocity": 85}, {"time": 2439, "pitch": 62, "duration": 9, "velocity": 90}, {"time": 2445, "pitch": 57, "duration": 4, "velocity": 79}, {"time": 2451, "pitch": 57, "duration": 3, "velocity": 96}, {"time": 2451, "pitch": 62, "duration": 7, "velocity": 98}, {"time": 2451, "pitch": 66, "duration": 7, "velocity": 97}, {"time": 2457, "pitch": 57, "duration": 4, "velocity": 80}, {"time": 2463, "pitch": 61, "duration": 5, "velocity": 102}, {"time": 2469, "pitch": 62, "duration": 4, "velocity": 96}, {"time": 2475, "pitch": 43, "duration": 21, "velocity": 98}, {"time": 2475, "pitch": 55, "duration": 10, "velocity": 94}, {"time": 2475, "pitch": 59, "duration": 10, "velocity": 91}, {"time": 2481, "pitch": 50, "duration": 16, "velocity": 92}, {"time": 2487, "pitch": 55, "duration": 8, "velocity": 97}, {"time": 2499, "pitch": 45, "duration": 20, "velocity": 98}, {"time": 2499, "pitch": 57, "duration": 7, "velocity": 93}, {"time": 2499, "pitch": 61, "duration": 9, "velocity": 95}, {"time": 2505, "pitch": 52, "duration": 17, "velocity": 90}, {"time": 2511, "pitch": 57, "duration": 6, "velocity": 100}, {"time": 2523, "pitch": 47, "duration": 49, "velocity": 97}, {"time": 2523, "pitch": 59, "duration": 9, "velocity": 92}, {"time": 2523, "pitch": 62, "duration": 9, "velocity": 93}, {"time": 2529, "pitch": 54, "duration": 9, "velocity": 90}, {"time": 2535, "pitch": 59, "duration": 10, "velocity": 96}, {"time": 2535, "pitch": 66, "duration": 4, "velocity": 96}, {"time": 2541, "pitch": 54, "duration": 31, "velocity": 89}, {"time": 2547, "pitch": 59, "duration": 2, "velocity": 80}, {"time": 2547, "pitch": 71, "duration": 9, "velocity": 92}, {"time": 2553, "pitch": 59, "duration": 8, "velocity": 87}, {"time": 2553, "pitch": 66, "duration": 2, "velocity": 85}, {"time": 2559, "pitch": 66, "duration": 12, "velocity": 103}, {"time": 2565, "pitch": 59, "duration": 6, "velocity": 96}, {"time": 2571, "pitch": 50, "duration": 15, "velocity": 99}, {"time": 2571, "pitch": 57, "duration": 4, "velocity": 92}, {"time": 2571, "pitch": 62, "duration": 10, "velocity": 96}, {"time": 2577, "pitch": 57, "duration": 8, "velocity": 89}, {"time": 2583, "pitch": 62, "duration": 4, "velocity": 96}, {"time": 2583, "pitch": 66, "duration": 5, "velocity": 91}, {"time": 2595, "pitch": 45, "duration": 21, "velocity": 93}, {"time": 2595, "pitch": 61, "duration": 13, "velocity": 93}, {"time": 2595, "pitch": 64, "duration": 13, "velocity": 97}, {"time": 2601, "pitch": 52, "duration": 16, "velocity": 92}, {"time": 2607, "pitch": 57, "duration": 7, "velocity": 97}, {"time": 2613, "pitch": 61, "duration": 5, "velocity": 107}, {"time": 2619, "pitch": 47, "duration": 17, "velocity": 97}, {"time": 2619, "pitch": 59, "duration": 9, "velocity": 92}, {"time": 2619, "pitch": 62, "duration": 6, "velocity": 97}, {"time": 2625, "pitch": 54, "duration": 8, "velocity": 89}, {"time": 2631, "pitch": 62, "duration": 6, "velocity": 98}, {"time": 2631, "pitch": 66, "duration": 7, "velocity": 98}, {"time": 2637, "pitch": 59, "duration": 4, "velocity": 93}, {"time": 2643, "pitch": 45, "duration": 19, "velocity": 97}, {"time": 2643, "pitch": 57, "duration": 11, "velocity": 96}, {"time": 2643, "pitch": 61, "duration": 9, "velocity": 93}, {"time": 2649, "pitch": 52, "duration": 13, "velocity": 88}, {"time": 2655, "pitch": 57, "duration": 6, "velocity": 87}, {"time": 2655, "pitch": 64, "duration": 11, "velocity": 98}, {"time": 2667, "pitch": 43, "duration": 21, "velocity": 98}, {"time": 2667, "pitch": 55, "duration": 8, "velocity": 91}, {"time": 2667, "pitch": 62, "duration": 14, "velocity": 94}, {"time": 2673, "pitch": 50, "duration": 16, "velocity": 87}, {"time": 2679, "pitch": 55, "duration": 7, "velocity": 97}, {"time": 2685, "pitch": 59, "duration": 6, "velocity": 98}, {"time": 2691, "pitch": 45, "duration": 22, "velocity": 98}, {"time": 2691, "pitch": 57, "duration": 8, "velocity": 93}, {"time": 2691, "pitch": 61, "duration": 12, "velocity": 91}, {"time": 2697, "pitch": 52, "duration": 15, "velocity": 91}, {"time": 2703, "pitch": 57, "duration": 9, "velocity": 96}, {"time": 2715, "pitch": 50, "duration": 16, "velocity": 100}, {"time": 2715, "pitch": 57, "duration": 4, "velocity": 95}, {"time": 2715, "pitch": 62, "duration": 8, "velocity": 97}, {"time": 2721, "pitch": 57, "duration": 4, "velocity": 90}, {"time": 2727, "pitch": 62, "duration": 7, "velocity": 97}, {"time": 2727, "pitch": 66, "duration": 7, "velocity": 96}, {"time": 2733, "pitch": 57, "duration": 5, "velocity": 99}, {"time": 2739, "pitch": 45, "duration": 21, "velocity": 97}, {"time": 2739, "pitch": 57, "duration": 8, "velocity": 101}, {"time": 2739, "pitch": 61, "duration": 8, "velocity": 99}, {"time": 2745, "pitch": 52, "duration": 15, "velocity": 96}, {"time": 2751, "pitch": 57, "duration": 2, "velocity": 95}, {"time": 2751, "pitch": 61, "duration": 7, "velocity": 101}, {"time": 2751, "pitch": 64, "duration": 10, "velocity": 101}, {"time": 2763, "pitch": 50, "duration": 23, "velocity": 97}, {"time": 2763, "pitch": 62, "duration": 8, "velocity": 100}, {"time": 2769, "pitch": 57, "duration": 8, "velocity": 97}, {"time": 2775, "pitch": 62, "duration": 7, "velocity": 97}, {"time": 2775, "pitch": 66, "duration": 8, "velocity": 96}, {"time": 2781, "pitch": 57, "duration": 7, "velocity": 98}, {"time": 2787, "pitch": 49, "duration": 17, "velocity": 96}, {"time": 2787, "pitch": 61, "duration": 8, "velocity": 96}, {"time": 2793, "pitch": 57, "duration": 4, "velocity": 97}, {"time": 2799, "pitch": 64, "duration": 10, "velocity": 99}, {"time": 2811, "pitch": 47, "duration": 20, "velocity": 98}, {"time": 2811, "pitch": 59, "duration": 10, "velocity": 92}, {"time": 2811, "pitch": 62, "duration": 10, "velocity": 96}, {"time": 2817, "pitch": 54, "duration": 14, "velocity": 90}, {"time": 2823, "pitch": 62, "duration": 8, "velocity": 96}, {"time": 2823, "pitch": 66, "duration": 13, "velocity": 97}, {"time": 2829, "pitch": 59, "duration": 3, "velocity": 75}, {"time": 2835, "pitch": 45, "duration": 19, "velocity": 97}, {"time": 2835, "pitch": 57, "duration": 8, "velocity": 91}, {"time": 2835, "pitch": 61, "duration": 13, "velocity": 86}, {"time": 2841, "pitch": 52, "duration": 14, "velocity": 95}, {"time": 2847, "pitch": 57, "duration": 6, "velocity": 97}, {"time": 2859, "pitch": 43, "duration": 19, "velocity": 97}, {"time": 2859, "pitch": 55, "duration": 10, "velocity": 94}, {"time": 2859, "pitch": 59, "duration": 10, "velocity": 92}, {"time": 2865, "pitch": 50, "duration": 13, "velocity": 84}, {"time": 2871, "pitch": 55, "duration": 3, "velocity": 93}, {"time": 2871, "pitch": 59, "duration": 11, "velocity": 94}, {"time": 2871, "pitch": 62, "duration": 8, "velocity": 96}, {"time": 2877, "pitch": 55, "duration": 4, "velocity": 96}, {"time": 2883, "pitch": 45, "duration": 19, "velocity": 98}, {"time": 2883, "pitch": 57, "duration": 9, "velocity": 96}, {"time": 2883, "pitch": 61, "duration": 13, "velocity": 95}, {"time": 2889, "pitch": 52, "duration": 15, "velocity": 90}, {"time": 2895, "pitch": 57, "duration": 5, "velocity": 103}, {"time": 2907, "pitch": 47, "duration": 44, "velocity": 97}, {"time": 2907, "pitch": 59, "duration": 9, "velocity": 92}, {"time": 2907, "pitch": 62, "duration": 11, "velocity": 94}, {"time": 2913, "pitch": 54, "duration": 8, "velocity": 85}, {"time": 2919, "pitch": 59, "duration": 8, "velocity": 107}, {"time": 2925, "pitch": 54, "duration": 8, "velocity": 93}, {"time": 2931, "pitch": 59, "duration": 7, "velocity": 101}, {"time": 2931, "pitch": 62, "duration": 7, "velocity": 102}, {"time": 2931, "pitch": 66, "duration": 7, "velocity": 102}, {"time": 2937, "pitch": 54, "duration": 12, "velocity": 98}, {"time": 2943, "pitch": 59, "duration": 5, "velocity": 102}, {"time": 2943, "pitch": 62, "duration": 4, "velocity": 110}, {"time": 2949, "pitch": 61, "duration": 4, "velocity": 113}, {"time": 2955, "pitch": 43, "duration": 20, "velocity": 100}, {"time": 2955, "pitch": 55, "duration": 9, "velocity": 99}, {"time": 2955, "pitch": 59, "duration": 9, "velocity": 105}, {"time": 2961, "pitch": 50, "duration": 9, "velocity": 93}, {"time": 2967, "pitch": 55, "duration": 5, "velocity": 98}, {"time": 2967, "pitch": 62, "duration": 6, "velocity": 105}, {"time": 2973, "pitch": 50, "duration": 5, "velocity": 107}, {"time": 2979, "pitch": 45, "duration": 22, "velocity": 98}, {"time": 2979, "pitch": 57, "duration": 7, "velocity": 99}, {"time": 2979, "pitch": 61, "duration": 9, "velocity": 107}, {"time": 2985, "pitch": 52, "duration": 9, "velocity": 92}, {"time": 2991, "pitch": 57, "duration": 6, "velocity": 97}, {"time": 2991, "pitch": 61, "duration": 6, "velocity": 102}, {"time": 2991, "pitch": 64, "duration": 7, "velocity": 102}, {"time": 2997, "pitch": 52, "duration": 4, "velocity": 98}, {"time": 3003, "pitch": 50, "duration": 12, "velocity": 103}, {"time": 3003, "pitch": 57, "duration": 4, "velocity": 100}, {"time": 3003, "pitch": 62, "duration": 7, "velocity": 103}, {"time": 3009, "pitch": 57, "duration": 6, "velocity": 103}, {"time": 3015, "pitch": 49, "duration": 11, "velocity": 101}, {"time": 3015, "pitch": 61, "duration": 6, "velocity": 110}, {"time": 3021, "pitch": 57, "duration": 3, "velocity": 98}, {"time": 3027, "pitch": 47, "duration": 16, "velocity": 105}, {"time": 3027, "pitch": 59, "duration": 9, "velocity": 94}, {"time": 3027, "pitch": 62, "duration": 6, "velocity": 98}, {"time": 3033, "pitch": 54, "duration": 8, "velocity": 96}, {"time": 3039, "pitch": 59, "duration": 3, "velocity": 93}, {"time": 3039, "pitch": 62, "duration": 5, "velocity": 98}, {"time": 3039, "pitch": 66, "duration": 6, "velocity": 101}, {"time": 3045, "pitch": 59, "duration": 4, "velocity": 103}, {"time": 3051, "pitch": 43, "duration": 18, "velocity": 97}, {"time": 3051, "pitch": 55, "duration": 9, "velocity": 99}, {"time": 3051, "pitch": 59, "duration": 9, "velocity": 97}, {"time": 3057, "pitch": 50, "duration": 13, "velocity": 90}, {"time": 3063, "pitch": 55, "duration": 3, "velocity": 102}, {"time": 3063, "pitch": 59, "duration": 6, "velocity": 102}, {"time": 3063, "pitch": 62, "duration": 7, "velocity": 100}, {"time": 3069, "pitch": 55, "duration": 3, "velocity": 96}, {"time": 3075, "pitch": 45, "duration": 16, "velocity": 97}, {"time": 3075, "pitch": 57, "duration": 9, "velocity": 91}, {"time": 3075, "pitch": 61, "duration": 8, "velocity": 96}, {"time": 3081, "pitch": 52, "duration": 9, "velocity": 94}, {"time": 3087, "pitch": 57, "duration": 8, "velocity": 100}, {"time": 3093, "pitch": 61, "duration": 5, "velocity": 107}, {"time": 3099, "pitch": 38, "duration": 21, "velocity": 98}, {"time": 3099, "pitch": 57, "duration": 7, "velocity": 97}, {"time": 3099, "pitch": 62, "duration": 8, "velocity": 101}, {"time": 3105, "pitch": 45, "duration": 15, "velocity": 84}, {"time": 3111, "pitch": 62, "duration": 4, "velocity": 101}, {"time": 3117, "pitch": 64, "duration": 2, "velocity": 102}, {"time": 3123, "pitch": 38, "duration": 18, "velocity": 102}, {"time": 3123, "pitch": 66, "duration": 6, "velocity": 102}, {"time": 3129, "pitch": 45, "duration": 12, "velocity": 93}, {"time": 3135, "pitch": 62, "duration": 5, "velocity": 107}, {"time": 3141, "pitch": 66, "duration": 2, "velocity": 107}, {"time": 3147, "pitch": 43, "duration": 19, "velocity": 92}, {"time": 3147, "pitch": 55, "duration": 9, "velocity": 86}, {"time": 3147, "pitch": 57, "duration": 1, "velocity": 84}, {"time": 3147, "pitch": 59, "duration": 13, "velocity": 87}, {"time": 3147, "pitch": 60, "duration": 2, "velocity": 84}, {"time": 3153, "pitch": 50, "duration": 14, "velocity": 87}, {"time": 3159, "pitch": 55, "duration": 7, "velocity": 102}, {"time": 3165, "pitch": 59, "duration": 6, "velocity": 96}, {"time": 3171, "pitch": 45, "duration": 22, "velocity": 99}, {"time": 3171, "pitch": 57, "duration": 7, "velocity": 95}, {"time": 3171, "pitch": 61, "duration": 12, "velocity": 97}, {"time": 3177, "pitch": 52, "duration": 15, "velocity": 94}, {"time": 3183, "pitch": 57, "duration": 9, "velocity": 100}, {"time": 3189, "pitch": 61, "duration": 5, "velocity": 97}, {"time": 3195, "pitch": 50, "duration": 12, "velocity": 102}, {"time": 3195, "pitch": 57, "duration": 3, "velocity": 96}, {"time": 3195, "pitch": 62, "duration": 6, "velocity": 100}, {"time": 3201, "pitch": 57, "duration": 6, "velocity": 98}, {"time": 3207, "pitch": 49, "duration": 12, "velocity": 103}, {"time": 3207, "pitch": 61, "duration": 12, "velocity": 110}, {"time": 3219, "pitch": 47, "duration": 14, "velocity": 101}, {"time": 3219, "pitch": 59, "duration": 7, "velocity": 93}, {"time": 3219, "pitch": 62, "duration": 7, "velocity": 97}, {"time": 3225, "pitch": 54, "duration": 6, "velocity": 100}, {"time": 3231, "pitch": 59, "duration": 3, "velocity": 97}, {"time": 3231, "pitch": 62, "duration": 6, "velocity": 99}, {"time": 3243, "pitch": 43, "duration": 18, "velocity": 98}, {"time": 3243, "pitch": 55, "duration": 10, "velocity": 96}, {"time": 3243, "pitch": 62, "duration": 11, "velocity": 94}, {"time": 3249, "pitch": 50, "duration": 12, "velocity": 91}, {"time": 3255, "pitch": 55, "duration": 3, "velocity": 98}, {"time": 3255, "pitch": 59, "duration": 7, "velocity": 98}, {"time": 3261, "pitch": 55, "duration": 4, "velocity": 92}, {"time": 3267, "pitch": 45, "duration": 17, "velocity": 98}, {"time": 3267, "pitch": 57, "duration": 9, "velocity": 89}, {"time": 3267, "pitch": 61, "duration": 13, "velocity": 98}, {"time": 3273, "pitch": 52, "duration": 11, "velocity": 96}, {"time": 3279, "pitch": 57, "duration": 6, "velocity": 97}, {"time": 3285, "pitch": 61, "duration": 5, "velocity": 98}, {"time": 3291, "pitch": 47, "duration": 44, "velocity": 98}, {"time": 3291, "pitch": 59, "duration": 9, "velocity": 93}, {"time": 3291, "pitch": 62, "duration": 7, "velocity": 98}, {"time": 3297, "pitch": 54, "duration": 8, "velocity": 88}, {"time": 3303, "pitch": 59, "duration": 9, "velocity": 100}, {"time": 3309, "pitch": 54, "duration": 9, "velocity": 92}, {"time": 3315, "pitch": 59, "duration": 9, "velocity": 97}, {"time": 3315, "pitch": 62, "duration": 8, "velocity": 97}, {"time": 3315, "pitch": 66, "duration": 7, "velocity": 100}, {"time": 3321, "pitch": 54, "duration": 11, "velocity": 84}, {"time": 3327, "pitch": 62, "duration": 10, "velocity": 96}, {"time": 3339, "pitch": 43, "duration": 20, "velocity": 100}, {"time": 3339, "pitch": 55, "duration": 9, "velocity": 99}, {"time": 3339, "pitch": 59, "duration": 9, "velocity": 105}, {"time": 3345, "pitch": 50, "duration": 9, "velocity": 93}, {"time": 3351, "pitch": 55, "duration": 5, "velocity": 98}, {"time": 3351, "pitch": 62, "duration": 6, "velocity": 105}, {"time": 3357, "pitch": 50, "duration": 5, "velocity": 107}, {"time": 3363, "pitch": 45, "duration": 22, "velocity": 98}, {"time": 3363, "pitch": 57, "duration": 7, "velocity": 99}, {"time": 3363, "pitch": 61, "duration": 9, "velocity": 107}, {"time": 3369, "pitch": 52, "duration": 9, "velocity": 92}, {"time": 3375, "pitch": 57, "duration": 6, "velocity": 97}, {"time": 3375, "pitch": 61, "duration": 6, "velocity": 102}, {"time": 3375, "pitch": 64, "duration": 7, "velocity": 102}, {"time": 3381, "pitch": 52, "duration": 4, "velocity": 98}, {"time": 3387, "pitch": 50, "duration": 12, "velocity": 103}, {"time": 3387, "pitch": 57, "duration": 4, "velocity": 100}, {"time": 3387, "pitch": 62, "duration": 7, "velocity": 103}, {"time": 3393, "pitch": 57, "duration": 6, "velocity": 103}, {"time": 3399, "pitch": 49, "duration": 11, "velocity": 101}, {"time": 3399, "pitch": 61, "duration": 6, "velocity": 110}, {"time": 3405, "pitch": 57, "duration": 3, "velocity": 98}, {"time": 3411, "pitch": 47, "duration": 16, "velocity": 105}, {"time": 3411, "pitch": 59, "duration": 9, "velocity": 94}, {"time": 3411, "pitch": 62, "duration": 6, "velocity": 98}, {"time": 3417, "pitch": 54, "duration": 8, "velocity": 96}, {"time": 3423, "pitch": 59, "duration": 3, "velocity": 93}, {"time": 3423, "pitch": 62, "duration": 5, "velocity": 98}, {"time": 3423, "pitch": 66, "duration": 6, "velocity": 101}, {"time": 3429, "pitch": 59, "duration": 4, "velocity": 103}, {"time": 3435, "pitch": 43, "duration": 18, "velocity": 97}, {"time": 3435, "pitch": 55, "duration": 9, "velocity": 99}, {"time": 3435, "pitch": 59, "duration": 9, "velocity": 97}, {"time": 3441, "pitch": 50, "duration": 13, "velocity": 90}, {"time": 3447, "pitch": 55, "duration": 3, "velocity": 102}, {"time": 3447, "pitch": 59, "duration": 6, "velocity": 102}, {"time": 3447, "pitch": 62, "duration": 7, "velocity": 100}, {"time": 3453, "pitch": 55, "duration": 3, "velocity": 96}, {"time": 3459, "pitch": 45, "duration": 16, "velocity": 97}, {"time": 3459, "pitch": 57, "duration": 9, "velocity": 91}, {"time": 3459, "pitch": 61, "duration": 8, "velocity": 96}, {"time": 3465, "pitch": 52, "duration": 9, "velocity": 94}, {"time": 3471, "pitch": 57, "duration": 8, "velocity": 100}, {"time": 3477, "pitch": 61, "duration": 5, "velocity": 107}, {"time": 3483, "pitch": 38, "duration": 21, "velocity": 98}, {"time": 3483, "pitch": 57, "duration": 7, "velocity": 97}, {"time": 3483, "pitch": 62, "duration": 8, "velocity": 101}, {"time": 3489, "pitch": 45, "duration": 15, "velocity": 84}, {"time": 3495, "pitch": 62, "duration": 4, "velocity": 101}, {"time": 3501, "pitch": 64, "duration": 2, "velocity": 102}, {"time": 3507, "pitch": 38, "duration": 18, "velocity": 102}, {"time": 3507, "pitch": 66, "duration": 6, "velocity": 102}, {"time": 3513, "pitch": 45, "duration": 12, "velocity": 93}, {"time": 3519, "pitch": 62, "duration": 5, "velocity": 107}, {"time": 3525, "pitch": 66, "duration": 2, "velocity": 107}, {"time": 3531, "pitch": 43, "duration": 19, "velocity": 92}, {"time": 3531, "pitch": 55, "duration": 9, "velocity": 86}, {"time": 3531, "pitch": 57, "duration": 1, "velocity": 84}, {"time": 3531, "pitch": 59, "duration": 13, "velocity": 87}, {"time": 3531, "pitch": 60, "duration": 2, "velocity": 84}, {"time": 3537, "pitch": 50, "duration": 14, "velocity": 87}, {"time": 3543, "pitch": 55, "duration": 7, "velocity": 102}, {"time": 3549, "pitch": 59, "duration": 6, "velocity": 96}, {"time": 3555, "pitch": 45, "duration": 22, "velocity": 99}, {"time": 3555, "pitch": 57, "duration": 7, "velocity": 95}, {"time": 3555, "pitch": 61, "duration": 12, "velocity": 97}, {"time": 3561, "pitch": 52, "duration": 15, "velocity": 94}, {"time": 3567, "pitch": 57, "duration": 9, "velocity": 100}, {"time": 3573, "pitch": 61, "duration": 5, "velocity": 97}, {"time": 3579, "pitch": 50, "duration": 12, "velocity": 102}, {"time": 3579, "pitch": 57, "duration": 3, "velocity": 96}, {"time": 3579, "pitch": 62, "duration": 6, "velocity": 100}, {"time": 3585, "pitch": 57, "duration": 6, "velocity": 98}, {"time": 3591, "pitch": 49, "duration": 12, "velocity": 103}, {"time": 3591, "pitch": 61, "duration": 12, "velocity": 110}, {"time": 3603, "pitch": 47, "duration": 14, "velocity": 101}, {"time": 3603, "pitch": 59, "duration": 7, "velocity": 93}, {"time": 3603, "pitch": 62, "duration": 7, "velocity": 97}, {"time": 3609, "pitch": 54, "duration": 6, "velocity": 100}, {"time": 3615, "pitch": 59, "duration": 3, "velocity": 97}, {"time": 3615, "pitch": 62, "duration": 6, "velocity": 99}, {"time": 3627, "pitch": 43, "duration": 18, "velocity": 98}, {"time": 3627, "pitch": 55, "duration": 10, "velocity": 96}, {"time": 3627, "pitch": 62, "duration": 11, "velocity": 94}, {"time": 3633, "pitch": 50, "duration": 12, "velocity": 91}, {"time": 3639, "pitch": 55, "duration": 3, "velocity": 98}, {"time": 3639, "pitch": 59, "duration": 7, "velocity": 98}, {"time": 3645, "pitch": 55, "duration": 4, "velocity": 92}, {"time": 3651, "pitch": 45, "duration": 17, "velocity": 98}, {"time": 3651, "pitch": 57, "duration": 9, "velocity": 89}, {"time": 3651, "pitch": 61, "duration": 13, "velocity": 98}, {"time": 3657, "pitch": 52, "duration": 11, "velocity": 96}, {"time": 3663, "pitch": 57, "duration": 6, "velocity": 97}, {"time": 3669, "pitch": 61, "duration": 5, "velocity": 98}, {"time": 3675, "pitch": 47, "duration": 44, "velocity": 98}, {"time": 3675, "pitch": 59, "duration": 9, "velocity": 93}, {"time": 3675, "pitch": 62, "duration": 7, "velocity": 98}, {"time": 3681, "pitch": 54, "duration": 8, "velocity": 88}, {"time": 3687, "pitch": 59, "duration": 9, "velocity": 100}, {"time": 3693, "pitch": 54, "duration": 9, "velocity": 92}, {"time": 3699, "pitch": 59, "duration": 9, "velocity": 97}, {"time": 3699, "pitch": 62, "duration": 8, "velocity": 97}, {"time": 3699, "pitch": 66, "duration": 7, "velocity": 100}, {"time": 3705, "pitch": 54, "duration": 11, "velocity": 84}, {"time": 3711, "pitch": 62, "duration": 10, "velocity": 96}, {"time": 3723, "pitch": 43, "duration": 21, "velocity": 96}, {"time": 3723, "pitch": 55, "duration": 6, "velocity": 91}, {"time": 3723, "pitch": 62, "duration": 6, "velocity": 91}, {"time": 3729, "pitch": 50, "duration": 8, "velocity": 85}, {"time": 3735, "pitch": 55, "duration": 5, "velocity": 96}, {"time": 3735, "pitch": 62, "duration": 8, "velocity": 95}, {"time": 3741, "pitch": 50, "duration": 4, "velocity": 87}, {"time": 3744, "pitch": 55, "duration": 2, "velocity": 97}, {"time": 3747, "pitch": 45, "duration": 19, "velocity": 97}, {"time": 3747, "pitch": 61, "duration": 8, "velocity": 99}, {"time": 3753, "pitch": 52, "duration": 12, "velocity": 91}, {"time": 3759, "pitch": 57, "duration": 3, "velocity": 96}, {"time": 3759, "pitch": 61, "duration": 5, "velocity": 97}, {"time": 3771, "pitch": 50, "duration": 13, "velocity": 91}, {"time": 3771, "pitch": 57, "duration": 3, "velocity": 96}, {"time": 3771, "pitch": 62, "duration": 7, "velocity": 99}, {"time": 3777, "pitch": 57, "duration": 4, "velocity": 91}, {"time": 3783, "pitch": 49, "duration": 10, "velocity": 90}, {"time": 3783, "pitch": 57, "duration": 7, "velocity": 97}, {"time": 3783, "pitch": 61, "duration": 11, "velocity": 96}, {"time": 3795, "pitch": 47, "duration": 16, "velocity": 96}, {"time": 3795, "pitch": 59, "duration": 6, "velocity": 92}, {"time": 3795, "pitch": 62, "duration": 5, "velocity": 96}, {"time": 3801, "pitch": 54, "duration": 8, "velocity": 81}, {"time": 3807, "pitch": 59, "duration": 4, "velocity": 98}, {"time": 3807, "pitch": 66, "duration": 5, "velocity": 96}, {"time": 3819, "pitch": 43, "duration": 22, "velocity": 96}, {"time": 3819, "pitch": 55, "duration": 10, "velocity": 91}, {"time": 3819, "pitch": 62, "duration": 10, "velocity": 93}, {"time": 3825, "pitch": 50, "duration": 9, "velocity": 84}, {"time": 3831, "pitch": 55, "duration": 6, "velocity": 97}, {"time": 3831, "pitch": 62, "duration": 11, "velocity": 96}, {"time": 3837, "pitch": 50, "duration": 4, "velocity": 89}, {"time": 3840, "pitch": 55, "duration": 3, "velocity": 96}, {"time": 3843, "pitch": 45, "duration": 15, "velocity": 97}, {"time": 3843, "pitch": 61, "duration": 7, "velocity": 102}, {"time": 3846, "pitch": 52, "duration": 11, "velocity": 89}, {"time": 3849, "pitch": 57, "duration": 5, "velocity": 95}, {"time": 3855, "pitch": 57, "duration": 4, "velocity": 99}, {"time": 3855, "pitch": 61, "duration": 5, "velocity": 98}, {"time": 3861, "pitch": 45, "duration": 3, "velocity": 97}, {"time": 3865, "pitch": 59, "duration": 11, "velocity": 72}, {"time": 3866, "pitch": 62, "duration": 10, "velocity": 77}, {"time": 3867, "pitch": 47, "duration": 46, "velocity": 84}, {"time": 3867, "pitch": 66, "duration": 9, "velocity": 74}, {"time": 3879, "pitch": 54, "duration": 17, "velocity": 67}, {"time": 3885, "pitch": 66, "duration": 20, "velocity": 76}, {"time": 3885, "pitch": 59, "duration": 19, "velocity": 85}, {"time": 3903, "pitch": 54, "duration": 10, "velocity": 71}, {"time": 3906, "pitch": 59, "duration": 5, "velocity": 76}, {"time": 3910, "pitch": 62, "duration": 2, "velocity": 72}, {"time": 3914, "pitch": 59, "duration": 1, "velocity": 52}, {"time": 3915, "pitch": 59, "duration": 9, "velocity": 60}, {"time": 3915, "pitch": 47, "duration": 46, "velocity": 85}, {"time": 3916, "pitch": 62, "duration": 8, "velocity": 83}, {"time": 3916, "pitch": 66, "duration": 8, "velocity": 75}, {"time": 3927, "pitch": 71, "duration": 3, "velocity": 77}, {"time": 3927, "pitch": 66, "duration": 3, "velocity": 69}, {"time": 3927, "pitch": 59, "duration": 3, "velocity": 70}, {"time": 3927, "pitch": 62, "duration": 2, "velocity": 70}, {"time": 3936, "pitch": 66, "duration": 2, "velocity": 70}, {"time": 3936, "pitch": 59, "duration": 2, "velocity": 74}, {"time": 3954, "pitch": 54, "duration": 7, "velocity": 67}, {"time": 3957, "pitch": 59, "duration": 4, "velocity": 75}, {"time": 3960, "pitch": 62, "duration": 1, "velocity": 71}, {"time": 3963, "pitch": 47, "duration": 43, "velocity": 84}, {"time": 3963, "pitch": 59, "duration": 8, "velocity": 74}, {"time": 3963, "pitch": 62, "duration": 8, "velocity": 76}, {"time": 3975, "pitch": 71, "duration": 2, "velocity": 79}, {"time": 3975, "pitch": 59, "duration": 3, "velocity": 76}, {"time": 3984, "pitch": 59, "duration": 2, "velocity": 72}, {"time": 3984, "pitch": 66, "duration": 2, "velocity": 70}, {"time": 3993, "pitch": 59, "duration": 3, "velocity": 60}, {"time": 3993, "pitch": 62, "duration": 3, "velocity": 71}, {"time": 4002, "pitch": 66, "duration": 2, "velocity": 70}, {"time": 4002, "pitch": 59, "duration": 2, "velocity": 74}, {"time": 4011, "pitch": 59, "duration": 6, "velocity": 73}, {"time": 4011, "pitch": 71, "duration": 6, "velocity": 71}, {"time": 4011, "pitch": 47, "duration": 43, "velocity": 83}, {"time": 4023, "pitch": 66, "duration": 2, "velocity": 70}, {"time": 4023, "pitch": 59, "duration": 3, "velocity": 69}, {"time": 4032, "pitch": 59, "duration": 2, "velocity": 66}, {"time": 4033, "pitch": 62, "duration": 2, "velocity": 71}, {"time": 4041, "pitch": 59, "duration": 3, "velocity": 69}, {"time": 4042, "pitch": 66, "duration": 2, "velocity": 70}, {"time": 4051, "pitch": 59, "duration": 2, "velocity": 68}, {"time": 4051, "pitch": 71, "duration": 2, "velocity": 57}, {"time": 4059, "pitch": 47, "duration": 43, "velocity": 73}, {"time": 4060, "pitch": 59, "duration": 5, "velocity": 47}, {"time": 4061, "pitch": 71, "duration": 4, "velocity": 38}, {"time": 4072, "pitch": 59, "duration": 2, "velocity": 57}, {"time": 4072, "pitch": 62, "duration": 2, "velocity": 67}, {"time": 4080, "pitch": 59, "duration": 2, "velocity": 68}, {"time": 4080, "pitch": 66, "duration": 2, "velocity": 68}, {"time": 4089, "pitch": 71, "duration": 2, "velocity": 69}, {"time": 4089, "pitch": 59, "duration": 2, "velocity": 68}, {"time": 4098, "pitch": 66, "duration": 1, "velocity": 62}, {"time": 4098, "pitch": 59, "duration": 1, "velocity": 62}, {"time": 4106, "pitch": 47, "duration": 6, "velocity": 72}, {"time": 4106, "pitch": 59, "duration": 5, "velocity": 54}, {"time": 4107, "pitch": 62, "duration": 4, "velocity": 66}], "annotations": [{"time": 139, "annotation": {"number": 64, "value": 127}, "group": "control_change"}, {"time": 139, "annotation": {"number": 64, "value": 0}, "group": "control_change"}, {"time": 142, "annotation": {"number": 64, "value": 0}, "group": "control_change"}, {"time": 142, "annotation": {"number": 64, "value": 127}, "group": "control_change"}, {"time": 169, "annotation": {"number": 64, "value": 0}, "group": "control_change"}, {"time": 184, "annotation": {"number": 64, "value": 127}, "group": "control_change"}, {"time": 184, "annotation": {"number": 64, "value": 0}, "group": "control_change"}, {"time": 264, "annotation": {"number": 64, "value": 0}, "group": "control_change"}, {"time": 278, "annotation": {"number": 64, "value": 127}, "group": "control_change"}, {"time": 278, "annotation": {"number": 64, "value": 0}, "group": "control_change"}, {"time": 280, "annotation": {"number": 64, "value": 0}, "group": "control_change"}, {"time": 280, "annotation": {"number": 64, "value": 127}, "group": "control_change"}, {"time": 281, "annotation": {"number": 64, "value": 127}, "group": "control_change"}, {"time": 362, "annotation": {"number": 64, "value": 0}, "group": "control_change"}, {"time": 364, "annotation": {"number": 64, "value": 127}, "group": "control_change"}, {"time": 455, "annotation": {"number": 64, "value": 0}, "group": "control_change"}, {"time": 460, "annotation": {"number": 64, "value": 127}, "group": "control_change"}, {"time": 460, "annotation": {"number": 64, "value": 0}, "group": "control_change"}, {"time": 482, "annotation": {"number": 64, "value": 0}, "group": "control_change"}, {"time": 486, "annotation": {"number": 64, "value": 127}, "group": "control_change"}, {"time": 504, "annotation": {"number": 64, "value": 0}, "group": "control_change"}, {"time": 507, "annotation": {"number": 64, "value": 127}, "group": "control_change"}, {"time": 516, "annotation": {"number": 64, "value": 0}, "group": "control_change"}, {"time": 519, "annotation": {"number": 64, "value": 127}, "group": "control_change"}, {"time": 529, "annotation": {"number": 64, "value": 0}, "group": "control_change"}, {"time": 533, "annotation": {"number": 64, "value": 127}, "group": "control_change"}, {"time": 554, "annotation": {"number": 64, "value": 0}, "group": "control_change"}, {"time": 561, "annotation": {"number": 64, "value": 127}, "group": "control_change"}, {"time": 561, "annotation": {"number": 64, "value": 0}, "group": "control_change"}, {"time": 579, "annotation": {"number": 64, "value": 0}, "group": "control_change"}, {"time": 583, "annotation": {"number": 64, "value": 127}, "group": "control_change"}, {"time": 601, "annotation": {"number": 64, "value": 0}, "group": "control_change"}, {"time": 604, "annotation": {"number": 64, "value": 127}, "group": "control_change"}, {"time": 649, "annotation": {"number": 64, "value": 0}, "group": "control_change"}, {"time": 658, "annotation": {"number": 64, "value": 127}, "group": "control_change"}, {"time": 675, "annotation": {"number": 64, "value": 0}, "group": "control_change"}, {"time": 682, "annotation": {"number": 64, "value": 127}, "group": "control_change"}, {"time": 696, "annotation": {"number": 64, "value": 0}, "group": "control_change"}, {"time": 702, "annotation": {"number": 64, "value": 127}, "group": "control_change"}, {"time": 721, "annotation": {"number": 64, "value": 0}, "group": "control_change"}, {"time": 729, "annotation": {"number": 64, "value": 127}, "group": "control_change"}, {"time": 744, "annotation": {"number": 64, "value": 0}, "group": "control_change"}, {"time": 753, "annotation": {"number": 64, "value": 127}, "group": "control_change"}, {"time": 769, "annotation": {"number": 64, "value": 0}, "group": "control_change"}, {"time": 776, "annotation": {"number": 64, "value": 127}, "group": "control_change"}, {"time": 794, "annotation": {"number": 64, "value": 0}, "group": "control_change"}, {"time": 800, "annotation": {"number": 64, "value": 127}, "group": "control_change"}, {"time": 842, "annotation": {"number": 64, "value": 0}, "group": "control_change"}, {"time": 848, "annotation": {"number": 64, "value": 127}, "group": "control_change"}, {"time": 868, "annotation": {"number": 64, "value": 0}, "group": "control_change"}, {"time": 874, "annotation": {"number": 64, "value": 127}, "group": "control_change"}, {"time": 874, "annotation": {"number": 64, "value": 0}, "group": "control_change"}, {"time": 890, "annotation": {"number": 64, "value": 0}, "group": "control_change"}, {"time": 897, "annotation": {"number": 64, "value": 127}, "group": "control_change"}, {"time": 914, "annotation": {"number": 64, "value": 0}, "group": "control_change"}, {"time": 922, "annotation": {"number": 64, "value": 127}, "group": "control_change"}, {"time": 938, "annotation": {"number": 64, "value": 0}, "group": "control_change"}, {"time": 945, "annotation": {"number": 64, "value": 127}, "group": "control_change"}, {"time": 965, "annotation": {"number": 64, "value": 0}, "group": "control_change"}, {"time": 972, "annotation": {"number": 64, "value": 127}, "group": "control_change"}, {"time": 986, "annotation": {"number": 64, "value": 0}, "group": "control_change"}, {"time": 992, "annotation": {"number": 64, "value": 127}, "group": "control_change"}, {"time": 1033, "annotation": {"number": 64, "value": 0}, "group": "control_change"}, {"time": 1040, "annotation": {"number": 64, "value": 127}, "group": "control_change"}, {"time": 1057, "annotation": {"number": 64, "value": 0}, "group": "control_change"}, {"time": 1064, "annotation": {"number": 64, "value": 127}, "group": "control_change"}, {"time": 1080, "annotation": {"number": 64, "value": 0}, "group": "control_change"}, {"time": 1088, "annotation": {"number": 64, "value": 127}, "group": "control_change"}, {"time": 1131, "annotation": {"number": 64, "value": 0}, "group": "control_change"}, {"time": 1138, "annotation": {"number": 64, "value": 127}, "group": "control_change"}, {"time": 1154, "annotation": {"number": 64, "value": 0}, "group": "control_change"}, {"time": 1161, "annotation": {"number": 64, "value": 127}, "group": "control_change"}, {"time": 1177, "annotation": {"number": 64, "value": 0}, "group": "control_change"}, {"time": 1184, "annotation": {"number": 64, "value": 127}, "group": "control_change"}, {"time": 1224, "annotation": {"number": 64, "value": 0}, "group": "control_change"}, {"time": 1233, "annotation": {"number": 64, "value": 127}, "group": "control_change"}, {"time": 1249, "annotation": {"number": 64, "value": 0}, "group": "control_change"}, {"time": 1257, "annotation": {"number": 64, "value": 127}, "group": "control_change"}, {"time": 1273, "annotation": {"number": 64, "value": 0}, "group": "control_change"}, {"time": 1278, "annotation": {"number": 64, "value": 127}, "group": "control_change"}, {"time": 1298, "annotation": {"number": 64, "value": 0}, "group": "control_change"}, {"time": 1305, "annotation": {"number": 64, "value": 127}, "group": "control_change"}, {"time": 1321, "annotation": {"number": 64, "value": 0}, "group": "control_change"}, {"time": 1329, "annotation": {"number": 64, "value": 127}, "group": "control_change"}, {"time": 1344, "annotation": {"number": 64, "value": 0}, "group": "control_change"}, {"time": 1351, "annotation": {"number": 64, "value": 127}, "group": "control_change"}, {"time": 1367, "annotation": {"number": 64, "value": 0}, "group": "control_change"}, {"time": 1373, "annotation": {"number": 64, "value": 127}, "group": "control_change"}, {"time": 1392, "annotation": {"number": 64, "value": 0}, "group": "control_change"}, {"time": 1400, "annotation": {"number": 64, "value": 127}, "group": "control_change"}, {"time": 1416, "annotation": {"number": 64, "value": 0}, "group": "control_change"}, {"time": 1423, "annotation": {"number": 64, "value": 127}, "group": "control_change"}, {"time": 1441, "annotation": {"number": 64, "value": 0}, "group": "control_change"}, {"time": 1446, "annotation": {"number": 64, "value": 127}, "group": "control_change"}, {"time": 1466, "annotation": {"number": 64, "value": 0}, "group": "control_change"}, {"time": 1472, "annotation": {"number": 64, "value": 127}, "group": "control_change"}, {"time": 1491, "annotation": {"number": 64, "value": 0}, "group": "control_change"}, {"time": 1498, "annotation": {"number": 64, "value": 127}, "group": "control_change"}, {"time": 1514, "annotation": {"number": 64, "value": 0}, "group": "control_change"}, {"time": 1522, "annotation": {"number": 64, "value": 127}, "group": "control_change"}, {"time": 1538, "annotation": {"number": 64, "value": 0}, "group": "control_change"}, {"time": 1546, "annotation": {"number": 64, "value": 127}, "group": "control_change"}, {"time": 1561, "annotation": {"number": 64, "value": 0}, "group": "control_change"}, {"time": 1569, "annotation": {"number": 64, "value": 127}, "group": "control_change"}, {"time": 1610, "annotation": {"number": 64, "value": 0}, "group": "control_change"}, {"time": 1617, "annotation": {"number": 64, "value": 127}, "group": "control_change"}, {"time": 1633, "annotation": {"number": 64, "value": 0}, "group": "control_change"}, {"time": 1638, "annotation": {"number": 64, "value": 127}, "group": "control_change"}, {"time": 1657, "annotation": {"number": 64, "value": 0}, "group": "control_change"}, {"time": 1660, "annotation": {"number": 64, "value": 127}, "group": "control_change"}, {"time": 1669, "annotation": {"number": 64, "value": 0}, "group": "control_change"}, {"time": 1672, "annotation": {"number": 64, "value": 127}, "group": "control_change"}, {"time": 1681, "annotation": {"number": 64, "value": 0}, "group": "control_change"}, {"time": 1687, "annotation": {"number": 64, "value": 127}, "group": "control_change"}, {"time": 1707, "annotation": {"number": 64, "value": 0}, "group": "control_change"}, {"time": 1713, "annotation": {"number": 64, "value": 127}, "group": "control_change"}, {"time": 1729, "annotation": {"number": 64, "value": 0}, "group": "control_change"}, {"time": 1736, "annotation": {"number": 64, "value": 127}, "group": "control_change"}, {"time": 1752, "annotation": {"number": 64, "value": 0}, "group": "control_change"}, {"time": 1758, "annotation": {"number": 64, "value": 127}, "group": "control_change"}, {"time": 1777, "annotation": {"number": 64, "value": 0}, "group": "control_change"}, {"time": 1780, "annotation": {"number": 64, "value": 127}, "group": "control_change"}, {"time": 1804, "annotation": {"number": 64, "value": 0}, "group": "control_change"}, {"time": 1811, "annotation": {"number": 64, "value": 127}, "group": "control_change"}, {"time": 1825, "annotation": {"number": 64, "value": 0}, "group": "control_change"}, {"time": 1831, "annotation": {"number": 64, "value": 127}, "group": "control_change"}, {"time": 1847, "annotation": {"number": 64, "value": 0}, "group": "control_change"}, {"time": 1852, "annotation": {"number": 64, "value": 127}, "group": "control_change"}, {"time": 1860, "annotation": {"number": 64, "value": 0}, "group": "control_change"}, {"time": 1876, "annotation": {"number": 64, "value": 127}, "group": "control_change"}, {"time": 1876, "annotation": {"number": 64, "value": 0}, "group": "control_change"}, {"time": 1877, "annotation": {"number": 64, "value": 127}, "group": "control_change"}, {"time": 1899, "annotation": {"number": 64, "value": 0}, "group": "control_change"}, {"time": 1906, "annotation": {"number": 64, "value": 127}, "group": "control_change"}, {"time": 1921, "annotation": {"number": 64, "value": 0}, "group": "control_change"}, {"time": 1931, "annotation": {"number": 64, "value": 127}, "group": "control_change"}, {"time": 1931, "annotation": {"number": 64, "value": 0}, "group": "control_change"}, {"time": 1946, "annotation": {"number": 64, "value": 0}, "group": "control_change"}, {"time": 1952, "annotation": {"number": 64, "value": 127}, "group": "control_change"}, {"time": 1995, "annotation": {"number": 64, "value": 0}, "group": "control_change"}, {"time": 1998, "annotation": {"number": 64, "value": 127}, "group": "control_change"}, {"time": 1998, "annotation": {"number": 64, "value": 0}, "group": "control_change"}, {"time": 2018, "annotation": {"number": 64, "value": 0}, "group": "control_change"}, {"time": 2025, "annotation": {"number": 64, "value": 127}, "group": "control_change"}, {"time": 2040, "annotation": {"number": 64, "value": 0}, "group": "control_change"}, {"time": 2045, "annotation": {"number": 64, "value": 127}, "group": "control_change"}, {"time": 2091, "annotation": {"number": 64, "value": 0}, "group": "control_change"}, {"time": 2094, "annotation": {"number": 64, "value": 127}, "group": "control_change"}, {"time": 2138, "annotation": {"number": 64, "value": 0}, "group": "control_change"}, {"time": 2145, "annotation": {"number": 64, "value": 127}, "group": "control_change"}, {"time": 2187, "annotation": {"number": 64, "value": 0}, "group": "control_change"}, {"time": 2190, "annotation": {"number": 64, "value": 127}, "group": "control_change"}, {"time": 2219, "annotation": {"number": 64, "value": 0}, "group": "control_change"}, {"time": 2228, "annotation": {"number": 64, "value": 127}, "group": "control_change"}, {"time": 2235, "annotation": {"number": 64, "value": 0}, "group": "control_change"}, {"time": 2238, "annotation": {"number": 64, "value": 127}, "group": "control_change"}, {"time": 2282, "annotation": {"number": 64, "value": 0}, "group": "control_change"}, {"time": 2290, "annotation": {"number": 64, "value": 127}, "group": "control_change"}, {"time": 2313, "annotation": {"number": 64, "value": 0}, "group": "control_change"}, {"time": 2319, "annotation": {"number": 64, "value": 127}, "group": "control_change"}, {"time": 2330, "annotation": {"number": 64, "value": 0}, "group": "control_change"}, {"time": 2337, "annotation": {"number": 64, "value": 127}, "group": "control_change"}, {"time": 2377, "annotation": {"number": 64, "value": 0}, "group": "control_change"}, {"time": 2384, "annotation": {"number": 64, "value": 127}, "group": "control_change"}, {"time": 2401, "annotation": {"number": 64, "value": 0}, "group": "control_change"}, {"time": 2408, "annotation": {"number": 64, "value": 127}, "group": "control_change"}, {"time": 2424, "annotation": {"number": 64, "value": 0}, "group": "control_change"}, {"time": 2432, "annotation": {"number": 64, "value": 127}, "group": "control_change"}, {"time": 2475, "annotation": {"number": 64, "value": 0}, "group": "control_change"}, {"time": 2482, "annotation": {"number": 64, "value": 127}, "group": "control_change"}, {"time": 2498, "annotation": {"number": 64, "value": 0}, "group": "control_change"}, {"time": 2505, "annotation": {"number": 64, "value": 127}, "group": "control_change"}, {"time": 2521, "annotation": {"number": 64, "value": 0}, "group": "control_change"}, {"time": 2528, "annotation": {"number": 64, "value": 127}, "group": "control_change"}, {"time": 2568, "annotation": {"number": 64, "value": 0}, "group": "control_change"}, {"time": 2577, "annotation": {"number": 64, "value": 127}, "group": "control_change"}, {"time": 2593, "annotation": {"number": 64, "value": 0}, "group": "control_change"}, {"time": 2601, "annotation": {"number": 64, "value": 127}, "group": "control_change"}, {"time": 2617, "annotation": {"number": 64, "value": 0}, "group": "control_change"}, {"time": 2622, "annotation": {"number": 64, "value": 127}, "group": "control_change"}, {"time": 2642, "annotation": {"number": 64, "value": 0}, "group": "control_change"}, {"time": 2649, "annotation": {"number": 64, "value": 127}, "group": "control_change"}, {"time": 2665, "annotation": {"number": 64, "value": 0}, "group": "control_change"}, {"time": 2673, "annotation": {"number": 64, "value": 127}, "group": "control_change"}, {"time": 2688, "annotation": {"number": 64, "value": 0}, "group": "control_change"}, {"time": 2695, "annotation": {"number": 64, "value": 127}, "group": "control_change"}, {"time": 2711, "annotation": {"number": 64, "value": 0}, "group": "control_change"}, {"time": 2717, "annotation": {"number": 64, "value": 127}, "group": "control_change"}, {"time": 2736, "annotation": {"number": 64, "value": 0}, "group": "control_change"}, {"time": 2744, "annotation": {"number": 64, "value": 127}, "group": "control_change"}, {"time": 2760, "annotation": {"number": 64, "value": 0}, "group": "control_change"}, {"time": 2767, "annotation": {"number": 64, "value": 127}, "group": "control_change"}, {"time": 2785, "annotation": {"number": 64, "value": 0}, "group": "control_change"}, {"time": 2790, "annotation": {"number": 64, "value": 127}, "group": "control_change"}, {"time": 2810, "annotation": {"number": 64, "value": 0}, "group": "control_change"}, {"time": 2816, "annotation": {"number": 64, "value": 127}, "group": "control_change"}, {"time": 2835, "annotation": {"number": 64, "value": 0}, "group": "control_change"}, {"time": 2842, "annotation": {"number": 64, "value": 127}, "group": "control_change"}, {"time": 2858, "annotation": {"number": 64, "value": 0}, "group": "control_change"}, {"time": 2866, "annotation": {"number": 64, "value": 127}, "group": "control_change"}, {"time": 2882, "annotation": {"number": 64, "value": 0}, "group": "control_change"}, {"time": 2890, "annotation": {"number": 64, "value": 127}, "group": "control_change"}, {"time": 2905, "annotation": {"number": 64, "value": 0}, "group": "control_change"}, {"time": 2913, "annotation": {"number": 64, "value": 127}, "group": "control_change"}, {"time": 2954, "annotation": {"number": 64, "value": 0}, "group": "control_change"}, {"time": 2961, "annotation": {"number": 64, "value": 127}, "group": "control_change"}, {"time": 2977, "annotation": {"number": 64, "value": 0}, "group": "control_change"}, {"time": 2982, "annotation": {"number": 64, "value": 127}, "group": "control_change"}, {"time": 3001, "annotation": {"number": 64, "value": 0}, "group": "control_change"}, {"time": 3004, "annotation": {"number": 64, "value": 127}, "group": "control_change"}, {"time": 3013, "annotation": {"number": 64, "value": 0}, "group": "control_change"}, {"time": 3016, "annotation": {"number": 64, "value": 127}, "group": "control_change"}, {"time": 3025, "annotation": {"number": 64, "value": 0}, "group": "control_change"}, {"time": 3031, "annotation": {"number": 64, "value": 127}, "group": "control_change"}, {"time": 3051, "annotation": {"number": 64, "value": 0}, "group": "control_change"}, {"time": 3057, "annotation": {"number": 64, "value": 127}, "group": "control_change"}, {"time": 3073, "annotation": {"number": 64, "value": 0}, "group": "control_change"}, {"time": 3080, "annotation": {"number": 64, "value": 127}, "group": "control_change"}, {"time": 3096, "annotation": {"number": 64, "value": 0}, "group": "control_change"}, {"time": 3102, "annotation": {"number": 64, "value": 127}, "group": "control_change"}, {"time": 3121, "annotation": {"number": 64, "value": 0}, "group": "control_change"}, {"time": 3124, "annotation": {"number": 64, "value": 127}, "group": "control_change"}, {"time": 3148, "annotation": {"number": 64, "value": 0}, "group": "control_change"}, {"time": 3155, "annotation": {"number": 64, "value": 127}, "group": "control_change"}, {"time": 3169, "annotation": {"number": 64, "value": 0}, "group": "control_change"}, {"time": 3175, "annotation": {"number": 64, "value": 127}, "group": "control_change"}, {"time": 3191, "annotation": {"number": 64, "value": 0}, "group": "control_change"}, {"time": 3196, "annotation": {"number": 64, "value": 127}, "group": "control_change"}, {"time": 3204, "annotation": {"number": 64, "value": 0}, "group": "control_change"}, {"time": 3220, "annotation": {"number": 64, "value": 127}, "group": "control_change"}, {"time": 3220, "annotation": {"number": 64, "value": 0}, "group": "control_change"}, {"time": 3221, "annotation": {"number": 64, "value": 127}, "group": "control_change"}, {"time": 3243, "annotation": {"number": 64, "value": 0}, "group": "control_change"}, {"time": 3250, "annotation": {"number": 64, "value": 127}, "group": "control_change"}, {"time": 3265, "annotation": {"number": 64, "value": 0}, "group": "control_change"}, {"time": 3275, "annotation": {"number": 64, "value": 127}, "group": "control_change"}, {"time": 3275, "annotation": {"number": 64, "value": 0}, "group": "control_change"}, {"time": 3290, "annotation": {"number": 64, "value": 0}, "group": "control_change"}, {"time": 3296, "annotation": {"number": 64, "value": 127}, "group": "control_change"}, {"time": 3339, "annotation": {"number": 64, "value": 0}, "group": "control_change"}, {"time": 3345, "annotation": {"number": 64, "value": 127}, "group": "control_change"}, {"time": 3361, "annotation": {"number": 64, "value": 0}, "group": "control_change"}, {"time": 3366, "annotation": {"number": 64, "value": 127}, "group": "control_change"}, {"time": 3385, "annotation": {"number": 64, "value": 0}, "group": "control_change"}, {"time": 3388, "annotation": {"number": 64, "value": 127}, "group": "control_change"}, {"time": 3397, "annotation": {"number": 64, "value": 0}, "group": "control_change"}, {"time": 3400, "annotation": {"number": 64, "value": 127}, "group": "control_change"}, {"time": 3409, "annotation": {"number": 64, "value": 0}, "group": "control_change"}, {"time": 3415, "annotation": {"number": 64, "value": 127}, "group": "control_change"}, {"time": 3435, "annotation": {"number": 64, "value": 0}, "group": "control_change"}, {"time": 3441, "annotation": {"number": 64, "value": 127}, "group": "control_change"}, {"time": 3457, "annotation": {"number": 64, "value": 0}, "group": "control_change"}, {"time": 3464, "annotation": {"number": 64, "value": 127}, "group": "control_change"}, {"time": 3480, "annotation": {"number": 64, "value": 0}, "group": "control_change"}, {"time": 3486, "annotation": {"number": 64, "value": 127}, "group": "control_change"}, {"time": 3505, "annotation": {"number": 64, "value": 0}, "group": "control_change"}, {"time": 3508, "annotation": {"number": 64, "value": 127}, "group": "control_change"}, {"time": 3532, "annotation": {"number": 64, "value": 0}, "group": "control_change"}, {"time": 3539, "annotation": {"number": 64, "value": 127}, "group": "control_change"}, {"time": 3553, "annotation": {"number": 64, "value": 0}, "group": "control_change"}, {"time": 3559, "annotation": {"number": 64, "value": 127}, "group": "control_change"}, {"time": 3575, "annotation": {"number": 64, "value": 0}, "group": "control_change"}, {"time": 3580, "annotation": {"number": 64, "value": 127}, "group": "control_change"}, {"time": 3588, "annotation": {"number": 64, "value": 0}, "group": "control_change"}, {"time": 3604, "annotation": {"number": 64, "value": 127}, "group": "control_change"}, {"time": 3604, "annotation": {"number": 64, "value": 0}, "group": "control_change"}, {"time": 3605, "annotation": {"number": 64, "value": 127}, "group": "control_change"}, {"time": 3627, "annotation": {"number": 64, "value": 0}, "group": "control_change"}, {"time": 3634, "annotation": {"number": 64, "value": 127}, "group": "control_change"}, {"time": 3649, "annotation": {"number": 64, "value": 0}, "group": "control_change"}, {"time": 3659, "annotation": {"number": 64, "value": 127}, "group": "control_change"}, {"time": 3659, "annotation": {"number": 64, "value": 0}, "group": "control_change"}, {"time": 3674, "annotation": {"number": 64, "value": 0}, "group": "control_change"}, {"time": 3680, "annotation": {"number": 64, "value": 127}, "group": "control_change"}, {"time": 3723, "annotation": {"number": 64, "value": 0}, "group": "control_change"}, {"time": 3724, "annotation": {"number": 64, "value": 127}, "group": "control_change"}, {"time": 3724, "annotation": {"number": 64, "value": 0}, "group": "control_change"}, {"time": 3746, "annotation": {"number": 64, "value": 0}, "group": "control_change"}, {"time": 3750, "annotation": {"number": 64, "value": 127}, "group": "control_change"}, {"time": 3768, "annotation": {"number": 64, "value": 0}, "group": "control_change"}, {"time": 3771, "annotation": {"number": 64, "value": 127}, "group": "control_change"}, {"time": 3780, "annotation": {"number": 64, "value": 0}, "group": "control_change"}, {"time": 3783, "annotation": {"number": 64, "value": 127}, "group": "control_change"}, {"time": 3793, "annotation": {"number": 64, "value": 0}, "group": "control_change"}, {"time": 3797, "annotation": {"number": 64, "value": 127}, "group": "control_change"}, {"time": 3818, "annotation": {"number": 64, "value": 0}, "group": "control_change"}, {"time": 3825, "annotation": {"number": 64, "value": 127}, "group": "control_change"}, {"time": 3825, "annotation": {"number": 64, "value": 0}, "group": "control_change"}, {"time": 3843, "annotation": {"number": 64, "value": 0}, "group": "control_change"}, {"time": 3847, "annotation": {"number": 64, "value": 127}, "group": "control_change"}, {"time": 3865, "annotation": {"number": 64, "value": 0}, "group": "control_change"}, {"time": 3868, "annotation": {"number": 64, "value": 127}, "group": "control_change"}, {"time": 3915, "annotation": {"number": 64, "value": 0}, "group": "control_change"}, {"time": 3917, "annotation": {"number": 64, "value": 127}, "group": "control_change"}, {"time": 3963, "annotation": {"number": 64, "value": 0}, "group": "control_change"}, {"time": 3965, "annotation": {"number": 64, "value": 127}, "group": "control_change"}, {"time": 4010, "annotation": {"number": 64, "value": 0}, "group": "control_change"}, {"time": 4012, "annotation": {"number": 64, "value": 127}, "group": "control_change"}, {"time": 4060, "annotation": {"number": 64, "value": 0}, "group": "control_change"}, {"time": 4060, "annotation": {"number": 64, "value": 127}, "group": "control_change"}, {"time": 4159, "annotation": {"number": 64, "value": 0}, "group": "control_change"}]}]}