{"metadata": {"schema_version": "0.2", "title": "None", "source_filename": "506.mid", "source_format": "midi"}, "resolution": 12, "tempos": [{"time": 0, "qpm": 75.75001988438022}, {"time": 192, "qpm": 76.00006586672374}, {"time": 264, "qpm": 76.75009401886517}, {"time": 300, "qpm": 77.2500028968751}, {"time": 336, "qpm": 76.75009401886517}, {"time": 432, "qpm": 76.50007076256546}, {"time": 516, "qpm": 77.000077000077}, {"time": 1008, "qpm": 76.25002382813244}, {"time": 1296, "qpm": 76.50007076256546}, {"time": 1560, "qpm": 77.000077000077}, {"time": 1704, "qpm": 77.2500028968751}, {"time": 2028, "qpm": 77.000077000077}, {"time": 2568, "qpm": 76.75009401886517}, {"time": 2688, "qpm": 76.25002382813244}, {"time": 2784, "qpm": 77.000077000077}, {"time": 2856, "qpm": 77.2500028968751}, {"time": 2952, "qpm": 77.75011889289014}, {"time": 3120, "qpm": 78.00017940041262}, {"time": 3288, "qpm": 77.2500028968751}, {"time": 3312, "qpm": 76.75009401886517}], "time_signatures": [{"time": 0, "numerator": 1, "denominator": 4}], "tracks": [{"program": 0, "is_drum": false, "name": "MELODY", "notes": [{"time": 5, "pitch": 71, "duration": 2, "velocity": 94}, {"time": 11, "pitch": 71, "duration": 4, "velocity": 99}, {"time": 17, "pitch": 71, "duration": 4, "velocity": 97}, {"time": 23, "pitch": 73, "duration": 3, "velocity": 94}, {"time": 29, "pitch": 73, "duration": 4, "velocity": 93}, {"time": 35, "pitch": 73, "duration": 4, "velocity": 94}, {"time": 41, "pitch": 73, "duration": 8, "velocity": 97}, {"time": 53, "pitch": 74, "duration": 40, "velocity": 97}, {"time": 101, "pitch": 71, "duration": 2, "velocity": 94}, {"time": 107, "pitch": 71, "duration": 3, "velocity": 89}, {"time": 113, "pitch": 71, "duration": 4, "velocity": 97}, {"time": 119, "pitch": 73, "duration": 9, "velocity": 93}, {"time": 131, "pitch": 73, "duration": 3, "velocity": 94}, {"time": 137, "pitch": 66, "duration": 43, "velocity": 93}, {"time": 197, "pitch": 71, "duration": 2, "velocity": 94}, {"time": 203, "pitch": 71, "duration": 3, "velocity": 96}, {"time": 209, "pitch": 71, "duration": 3, "velocity": 97}, {"time": 215, "pitch": 73, "duration": 2, "velocity": 95}, {"time": 221, "pitch": 73, "duration": 2, "velocity": 95}, {"time": 227, "pitch": 73, "duration": 3, "velocity": 94}, {"time": 233, "pitch": 73, "duration": 9, "velocity": 97}, {"time": 245, "pitch": 74, "duration": 43, "velocity": 93}, {"time": 299, "pitch": 71, "duration": 4, "velocity": 96}, {"time": 305, "pitch": 71, "duration": 4, "velocity": 94}, {"time": 311, "pitch": 73, "duration": 10, "velocity": 94}, {"time": 323, "pitch": 69, "duration": 4, "velocity": 94}, {"time": 329, "pitch": 71, "duration": 55, "velocity": 93}, {"time": 959, "pitch": 71, "duration": 16, "velocity": 104}, {"time": 977, "pitch": 74, "duration": 4, "velocity": 104}, {"time": 983, "pitch": 73, "duration": 5, "velocity": 98}, {"time": 989, "pitch": 71, "duration": 5, "velocity": 102}, {"time": 995, "pitch": 69, "duration": 4, "velocity": 100}, {"time": 1001, "pitch": 71, "duration": 9, "velocity": 100}, {"time": 1013, "pitch": 66, "duration": 29, "velocity": 94}, {"time": 1043, "pitch": 71, "duration": 5, "velocity": 98}, {"time": 1049, "pitch": 69, "duration": 4, "velocity": 97}, {"time": 1055, "pitch": 71, "duration": 16, "velocity": 102}, {"time": 1073, "pitch": 74, "duration": 4, "velocity": 102}, {"time": 1079, "pitch": 73, "duration": 4, "velocity": 97}, {"time": 1085, "pitch": 73, "duration": 4, "velocity": 97}, {"time": 1091, "pitch": 71, "duration": 5, "velocity": 94}, {"time": 1097, "pitch": 73, "duration": 4, "velocity": 102}, {"time": 1103, "pitch": 71, "duration": 31, "velocity": 98}, {"time": 1139, "pitch": 74, "duration": 4, "velocity": 104}, {"time": 1145, "pitch": 76, "duration": 4, "velocity": 99}, {"time": 1151, "pitch": 78, "duration": 4, "velocity": 96}, {"time": 1157, "pitch": 78, "duration": 4, "velocity": 99}, {"time": 1163, "pitch": 78, "duration": 4, "velocity": 104}, {"time": 1169, "pitch": 78, "duration": 4, "velocity": 102}, {"time": 1175, "pitch": 76, "duration": 13, "velocity": 107}, {"time": 1199, "pitch": 74, "duration": 4, "velocity": 99}, {"time": 1205, "pitch": 73, "duration": 4, "velocity": 95}, {"time": 1211, "pitch": 71, "duration": 4, "velocity": 97}, {"time": 1217, "pitch": 73, "duration": 10, "velocity": 97}, {"time": 1229, "pitch": 69, "duration": 12, "velocity": 97}, {"time": 1247, "pitch": 71, "duration": 10, "velocity": 97}, {"time": 1259, "pitch": 74, "duration": 9, "velocity": 104}, {"time": 1271, "pitch": 73, "duration": 11, "velocity": 97}, {"time": 1283, "pitch": 71, "duration": 4, "velocity": 97}, {"time": 1289, "pitch": 69, "duration": 4, "velocity": 95}, {"time": 1295, "pitch": 71, "duration": 48, "velocity": 99}, {"time": 1391, "pitch": 71, "duration": 16, "velocity": 104}, {"time": 1409, "pitch": 74, "duration": 4, "velocity": 104}, {"time": 1415, "pitch": 73, "duration": 5, "velocity": 98}, {"time": 1421, "pitch": 71, "duration": 5, "velocity": 102}, {"time": 1427, "pitch": 69, "duration": 4, "velocity": 100}, {"time": 1433, "pitch": 71, "duration": 9, "velocity": 100}, {"time": 1445, "pitch": 66, "duration": 29, "velocity": 94}, {"time": 1475, "pitch": 71, "duration": 5, "velocity": 98}, {"time": 1481, "pitch": 69, "duration": 4, "velocity": 97}, {"time": 1487, "pitch": 71, "duration": 16, "velocity": 102}, {"time": 1505, "pitch": 74, "duration": 4, "velocity": 102}, {"time": 1511, "pitch": 73, "duration": 4, "velocity": 97}, {"time": 1517, "pitch": 73, "duration": 4, "velocity": 97}, {"time": 1523, "pitch": 71, "duration": 5, "velocity": 94}, {"time": 1529, "pitch": 73, "duration": 4, "velocity": 102}, {"time": 1535, "pitch": 74, "duration": 31, "velocity": 98}, {"time": 1571, "pitch": 74, "duration": 4, "velocity": 104}, {"time": 1577, "pitch": 76, "duration": 4, "velocity": 99}, {"time": 1583, "pitch": 78, "duration": 4, "velocity": 96}, {"time": 1589, "pitch": 78, "duration": 4, "velocity": 99}, {"time": 1595, "pitch": 78, "duration": 4, "velocity": 104}, {"time": 1601, "pitch": 78, "duration": 4, "velocity": 102}, {"time": 1607, "pitch": 76, "duration": 13, "velocity": 107}, {"time": 1631, "pitch": 74, "duration": 4, "velocity": 99}, {"time": 1637, "pitch": 73, "duration": 4, "velocity": 95}, {"time": 1643, "pitch": 71, "duration": 4, "velocity": 97}, {"time": 1649, "pitch": 73, "duration": 10, "velocity": 97}, {"time": 1661, "pitch": 69, "duration": 12, "velocity": 97}, {"time": 1679, "pitch": 71, "duration": 10, "velocity": 97}, {"time": 1691, "pitch": 71, "duration": 5, "velocity": 92}, {"time": 1697, "pitch": 74, "duration": 4, "velocity": 96}, {"time": 1703, "pitch": 73, "duration": 11, "velocity": 97}, {"time": 1715, "pitch": 69, "duration": 12, "velocity": 97}, {"time": 1739, "pitch": 71, "duration": 4, "velocity": 95}, {"time": 1745, "pitch": 74, "duration": 4, "velocity": 104}, {"time": 1751, "pitch": 73, "duration": 11, "velocity": 97}, {"time": 1763, "pitch": 69, "duration": 10, "velocity": 88}, {"time": 1775, "pitch": 71, "duration": 47, "velocity": 97}, {"time": 1859, "pitch": 66, "duration": 4, "velocity": 102}, {"time": 1865, "pitch": 69, "duration": 5, "velocity": 99}, {"time": 1871, "pitch": 71, "duration": 10, "velocity": 107}, {"time": 1883, "pitch": 78, "duration": 9, "velocity": 98}, {"time": 1895, "pitch": 76, "duration": 7, "velocity": 107}, {"time": 1903, "pitch": 74, "duration": 2, "velocity": 110}, {"time": 1906, "pitch": 73, "duration": 4, "velocity": 99}, {"time": 1913, "pitch": 74, "duration": 35, "velocity": 106}, {"time": 1955, "pitch": 74, "duration": 4, "velocity": 104}, {"time": 1961, "pitch": 73, "duration": 4, "velocity": 98}, {"time": 1967, "pitch": 71, "duration": 4, "velocity": 99}, {"time": 1973, "pitch": 71, "duration": 4, "velocity": 102}, {"time": 1979, "pitch": 71, "duration": 5, "velocity": 104}, {"time": 1985, "pitch": 71, "duration": 4, "velocity": 94}, {"time": 1991, "pitch": 69, "duration": 5, "velocity": 100}, {"time": 1997, "pitch": 69, "duration": 4, "velocity": 99}, {"time": 2003, "pitch": 71, "duration": 11, "velocity": 99}, {"time": 2015, "pitch": 66, "duration": 33, "velocity": 99}, {"time": 2051, "pitch": 66, "duration": 4, "velocity": 97}, {"time": 2057, "pitch": 69, "duration": 4, "velocity": 97}, {"time": 2063, "pitch": 71, "duration": 25, "velocity": 107}, {"time": 2075, "pitch": 78, "duration": 10, "velocity": 96}, {"time": 2087, "pitch": 76, "duration": 8, "velocity": 110}, {"time": 2096, "pitch": 74, "duration": 2, "velocity": 102}, {"time": 2099, "pitch": 73, "duration": 5, "velocity": 104}, {"time": 2105, "pitch": 74, "duration": 38, "velocity": 104}, {"time": 2147, "pitch": 74, "duration": 4, "velocity": 95}, {"time": 2153, "pitch": 73, "duration": 5, "velocity": 100}, {"time": 2159, "pitch": 71, "duration": 15, "velocity": 100}, {"time": 2177, "pitch": 71, "duration": 4, "velocity": 97}, {"time": 2183, "pitch": 69, "duration": 10, "velocity": 95}, {"time": 2195, "pitch": 73, "duration": 10, "velocity": 99}, {"time": 2207, "pitch": 71, "duration": 49, "velocity": 98}, {"time": 2304, "pitch": 71, "duration": 17, "velocity": 104}, {"time": 2322, "pitch": 74, "duration": 5, "velocity": 104}, {"time": 2328, "pitch": 73, "duration": 6, "velocity": 98}, {"time": 2334, "pitch": 71, "duration": 6, "velocity": 102}, {"time": 2340, "pitch": 69, "duration": 5, "velocity": 100}, {"time": 2346, "pitch": 71, "duration": 9, "velocity": 100}, {"time": 2358, "pitch": 66, "duration": 29, "velocity": 94}, {"time": 2388, "pitch": 71, "duration": 5, "velocity": 98}, {"time": 2394, "pitch": 69, "duration": 4, "velocity": 97}, {"time": 2400, "pitch": 71, "duration": 17, "velocity": 102}, {"time": 2418, "pitch": 74, "duration": 4, "velocity": 102}, {"time": 2424, "pitch": 73, "duration": 5, "velocity": 97}, {"time": 2430, "pitch": 73, "duration": 5, "velocity": 97}, {"time": 2436, "pitch": 71, "duration": 5, "velocity": 94}, {"time": 2442, "pitch": 73, "duration": 4, "velocity": 102}, {"time": 2448, "pitch": 74, "duration": 31, "velocity": 98}, {"time": 2484, "pitch": 74, "duration": 4, "velocity": 104}, {"time": 2490, "pitch": 76, "duration": 5, "velocity": 99}, {"time": 2496, "pitch": 78, "duration": 4, "velocity": 96}, {"time": 2502, "pitch": 78, "duration": 5, "velocity": 99}, {"time": 2508, "pitch": 78, "duration": 4, "velocity": 104}, {"time": 2514, "pitch": 78, "duration": 4, "velocity": 102}, {"time": 2520, "pitch": 76, "duration": 14, "velocity": 107}, {"time": 2544, "pitch": 74, "duration": 4, "velocity": 99}, {"time": 2550, "pitch": 73, "duration": 5, "velocity": 95}, {"time": 2556, "pitch": 71, "duration": 5, "velocity": 97}, {"time": 2562, "pitch": 73, "duration": 11, "velocity": 97}, {"time": 2574, "pitch": 69, "duration": 12, "velocity": 97}, {"time": 2592, "pitch": 71, "duration": 11, "velocity": 97}, {"time": 2604, "pitch": 71, "duration": 5, "velocity": 92}, {"time": 2610, "pitch": 74, "duration": 5, "velocity": 96}, {"time": 2616, "pitch": 73, "duration": 11, "velocity": 97}, {"time": 2628, "pitch": 69, "duration": 13, "velocity": 97}, {"time": 2652, "pitch": 71, "duration": 4, "velocity": 95}, {"time": 2658, "pitch": 74, "duration": 4, "velocity": 104}, {"time": 2664, "pitch": 73, "duration": 11, "velocity": 97}, {"time": 2676, "pitch": 69, "duration": 11, "velocity": 88}, {"time": 2688, "pitch": 71, "duration": 48, "velocity": 97}, {"time": 2772, "pitch": 66, "duration": 4, "velocity": 102}, {"time": 2778, "pitch": 69, "duration": 5, "velocity": 99}, {"time": 2784, "pitch": 71, "duration": 10, "velocity": 107}, {"time": 2796, "pitch": 78, "duration": 9, "velocity": 98}, {"time": 2808, "pitch": 76, "duration": 8, "velocity": 107}, {"time": 2817, "pitch": 74, "duration": 2, "velocity": 110}, {"time": 2819, "pitch": 73, "duration": 5, "velocity": 99}, {"time": 2826, "pitch": 74, "duration": 36, "velocity": 106}, {"time": 2868, "pitch": 74, "duration": 5, "velocity": 104}, {"time": 2874, "pitch": 73, "duration": 5, "velocity": 98}, {"time": 2880, "pitch": 71, "duration": 4, "velocity": 99}, {"time": 2886, "pitch": 71, "duration": 4, "velocity": 102}, {"time": 2892, "pitch": 71, "duration": 6, "velocity": 104}, {"time": 2898, "pitch": 71, "duration": 4, "velocity": 94}, {"time": 2904, "pitch": 69, "duration": 5, "velocity": 100}, {"time": 2910, "pitch": 69, "duration": 5, "velocity": 99}, {"time": 2916, "pitch": 71, "duration": 11, "velocity": 99}, {"time": 2928, "pitch": 66, "duration": 34, "velocity": 99}, {"time": 2964, "pitch": 66, "duration": 4, "velocity": 97}, {"time": 2970, "pitch": 69, "duration": 5, "velocity": 97}, {"time": 2976, "pitch": 71, "duration": 25, "velocity": 107}, {"time": 2989, "pitch": 78, "duration": 9, "velocity": 96}, {"time": 3001, "pitch": 76, "duration": 7, "velocity": 110}, {"time": 3009, "pitch": 74, "duration": 2, "velocity": 102}, {"time": 3012, "pitch": 73, "duration": 5, "velocity": 104}, {"time": 3018, "pitch": 74, "duration": 39, "velocity": 104}, {"time": 3060, "pitch": 74, "duration": 5, "velocity": 95}, {"time": 3066, "pitch": 73, "duration": 5, "velocity": 100}, {"time": 3072, "pitch": 71, "duration": 16, "velocity": 100}, {"time": 3090, "pitch": 71, "duration": 5, "velocity": 97}, {"time": 3096, "pitch": 69, "duration": 11, "velocity": 95}, {"time": 3108, "pitch": 73, "duration": 10, "velocity": 99}, {"time": 3120, "pitch": 71, "duration": 33, "velocity": 98}, {"time": 3155, "pitch": 66, "duration": 4, "velocity": 97}, {"time": 3161, "pitch": 69, "duration": 4, "velocity": 97}, {"time": 3167, "pitch": 71, "duration": 25, "velocity": 107}, {"time": 3179, "pitch": 78, "duration": 9, "velocity": 96}, {"time": 3191, "pitch": 76, "duration": 8, "velocity": 110}, {"time": 3200, "pitch": 74, "duration": 2, "velocity": 102}, {"time": 3203, "pitch": 73, "duration": 4, "velocity": 104}, {"time": 3209, "pitch": 74, "duration": 38, "velocity": 104}, {"time": 3251, "pitch": 74, "duration": 4, "velocity": 95}, {"time": 3257, "pitch": 73, "duration": 5, "velocity": 100}, {"time": 3263, "pitch": 71, "duration": 15, "velocity": 100}, {"time": 3281, "pitch": 71, "duration": 4, "velocity": 97}, {"time": 3287, "pitch": 69, "duration": 10, "velocity": 95}, {"time": 3299, "pitch": 73, "duration": 10, "velocity": 99}, {"time": 3311, "pitch": 71, "duration": 48, "velocity": 98}]}, {"program": 0, "is_drum": false, "name": "BRIDGE", "notes": [{"time": 5, "pitch": 74, "duration": 2, "velocity": 94}, {"time": 11, "pitch": 74, "duration": 4, "velocity": 99}, {"time": 17, "pitch": 74, "duration": 4, "velocity": 97}, {"time": 23, "pitch": 76, "duration": 3, "velocity": 94}, {"time": 29, "pitch": 76, "duration": 4, "velocity": 93}, {"time": 35, "pitch": 76, "duration": 4, "velocity": 94}, {"time": 41, "pitch": 76, "duration": 8, "velocity": 97}, {"time": 53, "pitch": 78, "duration": 40, "velocity": 97}, {"time": 101, "pitch": 74, "duration": 2, "velocity": 94}, {"time": 107, "pitch": 74, "duration": 3, "velocity": 89}, {"time": 113, "pitch": 74, "duration": 4, "velocity": 97}, {"time": 119, "pitch": 76, "duration": 10, "velocity": 93}, {"time": 131, "pitch": 76, "duration": 3, "velocity": 94}, {"time": 137, "pitch": 73, "duration": 43, "velocity": 93}, {"time": 197, "pitch": 74, "duration": 2, "velocity": 94}, {"time": 203, "pitch": 74, "duration": 3, "velocity": 96}, {"time": 209, "pitch": 74, "duration": 3, "velocity": 97}, {"time": 215, "pitch": 76, "duration": 2, "velocity": 95}, {"time": 221, "pitch": 76, "duration": 2, "velocity": 95}, {"time": 227, "pitch": 76, "duration": 3, "velocity": 94}, {"time": 233, "pitch": 76, "duration": 9, "velocity": 97}, {"time": 245, "pitch": 78, "duration": 43, "velocity": 93}, {"time": 299, "pitch": 74, "duration": 4, "velocity": 96}, {"time": 305, "pitch": 74, "duration": 4, "velocity": 94}, {"time": 311, "pitch": 76, "duration": 10, "velocity": 94}, {"time": 323, "pitch": 73, "duration": 4, "velocity": 94}, {"time": 329, "pitch": 74, "duration": 9, "velocity": 93}, {"time": 341, "pitch": 66, "duration": 6, "velocity": 97}, {"time": 347, "pitch": 71, "duration": 7, "velocity": 95}, {"time": 353, "pitch": 78, "duration": 6, "velocity": 99}, {"time": 359, "pitch": 76, "duration": 6, "velocity": 98}, {"time": 365, "pitch": 74, "duration": 6, "velocity": 109}, {"time": 371, "pitch": 73, "duration": 6, "velocity": 99}, {"time": 377, "pitch": 69, "duration": 6, "velocity": 97}, {"time": 383, "pitch": 67, "duration": 10, "velocity": 91}, {"time": 395, "pitch": 71, "duration": 6, "velocity": 95}, {"time": 401, "pitch": 74, "duration": 6, "velocity": 107}, {"time": 407, "pitch": 73, "duration": 11, "velocity": 91}, {"time": 419, "pitch": 64, "duration": 11, "velocity": 84}, {"time": 419, "pitch": 69, "duration": 12, "velocity": 87}, {"time": 437, "pitch": 66, "duration": 6, "velocity": 97}, {"time": 443, "pitch": 71, "duration": 7, "velocity": 95}, {"time": 449, "pitch": 78, "duration": 6, "velocity": 99}, {"time": 455, "pitch": 76, "duration": 6, "velocity": 98}, {"time": 461, "pitch": 74, "duration": 6, "velocity": 109}, {"time": 467, "pitch": 73, "duration": 6, "velocity": 99}, {"time": 473, "pitch": 69, "duration": 6, "velocity": 97}, {"time": 479, "pitch": 67, "duration": 10, "velocity": 91}, {"time": 491, "pitch": 71, "duration": 6, "velocity": 95}, {"time": 497, "pitch": 74, "duration": 6, "velocity": 107}, {"time": 503, "pitch": 73, "duration": 6, "velocity": 91}, {"time": 509, "pitch": 69, "duration": 6, "velocity": 87}, {"time": 515, "pitch": 78, "duration": 6, "velocity": 99}, {"time": 521, "pitch": 81, "duration": 6, "velocity": 99}, {"time": 527, "pitch": 83, "duration": 13, "velocity": 110}, {"time": 539, "pitch": 90, "duration": 11, "velocity": 110}, {"time": 551, "pitch": 88, "duration": 6, "velocity": 104}, {"time": 557, "pitch": 86, "duration": 6, "velocity": 114}, {"time": 563, "pitch": 85, "duration": 12, "velocity": 100}, {"time": 575, "pitch": 86, "duration": 32, "velocity": 107}, {"time": 611, "pitch": 86, "duration": 6, "velocity": 94}, {"time": 617, "pitch": 85, "duration": 6, "velocity": 100}, {"time": 623, "pitch": 83, "duration": 15, "velocity": 107}, {"time": 641, "pitch": 83, "duration": 5, "velocity": 97}, {"time": 647, "pitch": 81, "duration": 13, "velocity": 97}, {"time": 659, "pitch": 83, "duration": 12, "velocity": 104}, {"time": 671, "pitch": 78, "duration": 34, "velocity": 96}, {"time": 707, "pitch": 78, "duration": 6, "velocity": 99}, {"time": 713, "pitch": 81, "duration": 5, "velocity": 96}, {"time": 719, "pitch": 83, "duration": 13, "velocity": 95}, {"time": 731, "pitch": 90, "duration": 12, "velocity": 107}, {"time": 743, "pitch": 88, "duration": 7, "velocity": 100}, {"time": 749, "pitch": 86, "duration": 6, "velocity": 110}, {"time": 755, "pitch": 85, "duration": 6, "velocity": 104}, {"time": 760, "pitch": 86, "duration": 3, "velocity": 104}, {"time": 763, "pitch": 85, "duration": 3, "velocity": 98}, {"time": 766, "pitch": 86, "duration": 33, "velocity": 104}, {"time": 803, "pitch": 86, "duration": 6, "velocity": 104}, {"time": 809, "pitch": 85, "duration": 6, "velocity": 95}, {"time": 815, "pitch": 83, "duration": 23, "velocity": 102}, {"time": 839, "pitch": 81, "duration": 25, "velocity": 95}, {"time": 863, "pitch": 83, "duration": 49, "velocity": 104}, {"time": 869, "pitch": 66, "duration": 6, "velocity": 97}, {"time": 875, "pitch": 71, "duration": 7, "velocity": 95}, {"time": 881, "pitch": 78, "duration": 6, "velocity": 99}, {"time": 887, "pitch": 76, "duration": 6, "velocity": 98}, {"time": 893, "pitch": 74, "duration": 6, "velocity": 109}, {"time": 899, "pitch": 73, "duration": 6, "velocity": 99}, {"time": 905, "pitch": 69, "duration": 6, "velocity": 97}, {"time": 911, "pitch": 67, "duration": 10, "velocity": 91}, {"time": 923, "pitch": 71, "duration": 6, "velocity": 95}, {"time": 929, "pitch": 74, "duration": 6, "velocity": 107}, {"time": 935, "pitch": 73, "duration": 11, "velocity": 91}, {"time": 947, "pitch": 64, "duration": 11, "velocity": 84}, {"time": 947, "pitch": 69, "duration": 12, "velocity": 87}, {"time": 1301, "pitch": 66, "duration": 6, "velocity": 97}, {"time": 1307, "pitch": 71, "duration": 7, "velocity": 95}, {"time": 1313, "pitch": 78, "duration": 6, "velocity": 99}, {"time": 1319, "pitch": 76, "duration": 12, "velocity": 98}, {"time": 1331, "pitch": 74, "duration": 6, "velocity": 99}, {"time": 1337, "pitch": 73, "duration": 6, "velocity": 97}, {"time": 1343, "pitch": 73, "duration": 6, "velocity": 91}, {"time": 1349, "pitch": 66, "duration": 5, "velocity": 114}, {"time": 1355, "pitch": 71, "duration": 6, "velocity": 95}, {"time": 1361, "pitch": 74, "duration": 6, "velocity": 107}, {"time": 1367, "pitch": 73, "duration": 7, "velocity": 91}, {"time": 1373, "pitch": 69, "duration": 12, "velocity": 87}, {"time": 1379, "pitch": 64, "duration": 11, "velocity": 84}, {"time": 1391, "pitch": 74, "duration": 23, "velocity": 93}, {"time": 1415, "pitch": 69, "duration": 24, "velocity": 83}, {"time": 1415, "pitch": 73, "duration": 25, "velocity": 77}, {"time": 1445, "pitch": 66, "duration": 5, "velocity": 91}, {"time": 1451, "pitch": 71, "duration": 6, "velocity": 94}, {"time": 1457, "pitch": 78, "duration": 6, "velocity": 94}, {"time": 1463, "pitch": 76, "duration": 6, "velocity": 95}, {"time": 1469, "pitch": 74, "duration": 6, "velocity": 99}, {"time": 1475, "pitch": 73, "duration": 6, "velocity": 91}, {"time": 1481, "pitch": 69, "duration": 5, "velocity": 94}, {"time": 1487, "pitch": 71, "duration": 23, "velocity": 95}, {"time": 1511, "pitch": 69, "duration": 23, "velocity": 87}, {"time": 1511, "pitch": 73, "duration": 22, "velocity": 89}, {"time": 1535, "pitch": 74, "duration": 19, "velocity": 99}, {"time": 1553, "pitch": 76, "duration": 6, "velocity": 93}, {"time": 1559, "pitch": 78, "duration": 13, "velocity": 91}, {"time": 1571, "pitch": 74, "duration": 10, "velocity": 94}, {"time": 1583, "pitch": 78, "duration": 22, "velocity": 89}, {"time": 1622, "pitch": 78, "duration": 3, "velocity": 79}, {"time": 1624, "pitch": 83, "duration": 4, "velocity": 78}, {"time": 1627, "pitch": 85, "duration": 4, "velocity": 105}, {"time": 1631, "pitch": 86, "duration": 14, "velocity": 100}, {"time": 1646, "pitch": 85, "duration": 5, "velocity": 93}, {"time": 1650, "pitch": 83, "duration": 4, "velocity": 97}, {"time": 1654, "pitch": 85, "duration": 23, "velocity": 90}, {"time": 1679, "pitch": 67, "duration": 20, "velocity": 89}, {"time": 1679, "pitch": 71, "duration": 22, "velocity": 90}, {"time": 1703, "pitch": 69, "duration": 21, "velocity": 82}, {"time": 1703, "pitch": 73, "duration": 24, "velocity": 93}, {"time": 1727, "pitch": 71, "duration": 17, "velocity": 97}, {"time": 1745, "pitch": 76, "duration": 6, "velocity": 95}, {"time": 1751, "pitch": 74, "duration": 7, "velocity": 94}, {"time": 1757, "pitch": 73, "duration": 6, "velocity": 81}, {"time": 1763, "pitch": 69, "duration": 11, "velocity": 86}, {"time": 1781, "pitch": 71, "duration": 7, "velocity": 100}, {"time": 1787, "pitch": 74, "duration": 6, "velocity": 110}, {"time": 1793, "pitch": 76, "duration": 6, "velocity": 100}, {"time": 1799, "pitch": 78, "duration": 23, "velocity": 100}, {"time": 1823, "pitch": 76, "duration": 6, "velocity": 104}, {"time": 1829, "pitch": 74, "duration": 7, "velocity": 104}, {"time": 1835, "pitch": 73, "duration": 6, "velocity": 95}, {"time": 1841, "pitch": 74, "duration": 3, "velocity": 109}, {"time": 1843, "pitch": 73, "duration": 3, "velocity": 104}, {"time": 1846, "pitch": 71, "duration": 11, "velocity": 104}, {"time": 1847, "pitch": 59, "duration": 32, "velocity": 95}, {"time": 1850, "pitch": 66, "duration": 21, "velocity": 93}, {"time": 1853, "pitch": 71, "duration": 4, "velocity": 91}, {"time": 1856, "pitch": 73, "duration": 3, "velocity": 82}, {"time": 1859, "pitch": 74, "duration": 5, "velocity": 95}, {"time": 1862, "pitch": 78, "duration": 3, "velocity": 95}, {"time": 1865, "pitch": 83, "duration": 4, "velocity": 94}, {"time": 1868, "pitch": 81, "duration": 4, "velocity": 90}, {"time": 1871, "pitch": 67, "duration": 22, "velocity": 93}, {"time": 1871, "pitch": 83, "duration": 15, "velocity": 97}, {"time": 1895, "pitch": 69, "duration": 22, "velocity": 94}, {"time": 1919, "pitch": 62, "duration": 18, "velocity": 87}, {"time": 1919, "pitch": 66, "duration": 18, "velocity": 88}, {"time": 1937, "pitch": 64, "duration": 6, "velocity": 94}, {"time": 1943, "pitch": 62, "duration": 21, "velocity": 89}, {"time": 1943, "pitch": 66, "duration": 21, "velocity": 86}, {"time": 1967, "pitch": 67, "duration": 13, "velocity": 88}, {"time": 1979, "pitch": 71, "duration": 12, "velocity": 93}, {"time": 1991, "pitch": 69, "duration": 19, "velocity": 95}, {"time": 2009, "pitch": 64, "duration": 6, "velocity": 93}, {"time": 2015, "pitch": 61, "duration": 23, "velocity": 87}, {"time": 2015, "pitch": 66, "duration": 24, "velocity": 84}, {"time": 2039, "pitch": 66, "duration": 6, "velocity": 95}, {"time": 2045, "pitch": 64, "duration": 6, "velocity": 97}, {"time": 2051, "pitch": 62, "duration": 10, "velocity": 89}, {"time": 2063, "pitch": 59, "duration": 19, "velocity": 81}, {"time": 2063, "pitch": 62, "duration": 21, "velocity": 88}, {"time": 2087, "pitch": 69, "duration": 20, "velocity": 89}, {"time": 2111, "pitch": 71, "duration": 20, "velocity": 85}, {"time": 2111, "pitch": 74, "duration": 18, "velocity": 94}, {"time": 2129, "pitch": 73, "duration": 6, "velocity": 85}, {"time": 2135, "pitch": 71, "duration": 12, "velocity": 84}, {"time": 2135, "pitch": 74, "duration": 12, "velocity": 94}, {"time": 2147, "pitch": 73, "duration": 12, "velocity": 91}, {"time": 2159, "pitch": 67, "duration": 19, "velocity": 85}, {"time": 2159, "pitch": 71, "duration": 22, "velocity": 93}, {"time": 2183, "pitch": 73, "duration": 12, "velocity": 94}, {"time": 2195, "pitch": 74, "duration": 8, "velocity": 98}, {"time": 2201, "pitch": 73, "duration": 5, "velocity": 84}, {"time": 2207, "pitch": 71, "duration": 6, "velocity": 94}, {"time": 2213, "pitch": 66, "duration": 6, "velocity": 95}, {"time": 2213, "pitch": 71, "duration": 5, "velocity": 102}, {"time": 2219, "pitch": 76, "duration": 4, "velocity": 99}, {"time": 2219, "pitch": 76, "duration": 4, "velocity": 102}, {"time": 2225, "pitch": 78, "duration": 4, "velocity": 98}, {"time": 2225, "pitch": 78, "duration": 4, "velocity": 109}, {"time": 2231, "pitch": 76, "duration": 11, "velocity": 97}, {"time": 2231, "pitch": 76, "duration": 11, "velocity": 110}, {"time": 2243, "pitch": 73, "duration": 12, "velocity": 100}, {"time": 2243, "pitch": 73, "duration": 12, "velocity": 109}, {"time": 2261, "pitch": 71, "duration": 5, "velocity": 90}, {"time": 2261, "pitch": 71, "duration": 5, "velocity": 93}, {"time": 2261, "pitch": 83, "duration": 4, "velocity": 95}, {"time": 2261, "pitch": 83, "duration": 4, "velocity": 99}, {"time": 2267, "pitch": 73, "duration": 5, "velocity": 99}, {"time": 2267, "pitch": 76, "duration": 5, "velocity": 104}, {"time": 2267, "pitch": 85, "duration": 4, "velocity": 94}, {"time": 2267, "pitch": 85, "duration": 4, "velocity": 98}, {"time": 2273, "pitch": 74, "duration": 4, "velocity": 99}, {"time": 2273, "pitch": 78, "duration": 6, "velocity": 95}, {"time": 2273, "pitch": 86, "duration": 5, "velocity": 93}, {"time": 2273, "pitch": 86, "duration": 5, "velocity": 99}, {"time": 2279, "pitch": 73, "duration": 9, "velocity": 109}, {"time": 2279, "pitch": 76, "duration": 12, "velocity": 94}, {"time": 2279, "pitch": 85, "duration": 11, "velocity": 98}, {"time": 2279, "pitch": 85, "duration": 11, "velocity": 104}, {"time": 2291, "pitch": 69, "duration": 10, "velocity": 94}, {"time": 2291, "pitch": 73, "duration": 12, "velocity": 97}, {"time": 2291, "pitch": 81, "duration": 11, "velocity": 95}, {"time": 2291, "pitch": 81, "duration": 11, "velocity": 96}, {"time": 2303, "pitch": 66, "duration": 24, "velocity": 94}, {"time": 2303, "pitch": 78, "duration": 16, "velocity": 81}, {"time": 2303, "pitch": 83, "duration": 23, "velocity": 92}, {"time": 2327, "pitch": 64, "duration": 13, "velocity": 100}, {"time": 2339, "pitch": 69, "duration": 13, "velocity": 95}, {"time": 2351, "pitch": 66, "duration": 36, "velocity": 97}, {"time": 2363, "pitch": 83, "duration": 6, "velocity": 95}, {"time": 2369, "pitch": 90, "duration": 5, "velocity": 98}, {"time": 2375, "pitch": 88, "duration": 6, "velocity": 104}, {"time": 2381, "pitch": 86, "duration": 6, "velocity": 93}, {"time": 2387, "pitch": 85, "duration": 6, "velocity": 95}, {"time": 2393, "pitch": 86, "duration": 6, "velocity": 93}, {"time": 2399, "pitch": 71, "duration": 19, "velocity": 97}, {"time": 2399, "pitch": 83, "duration": 16, "velocity": 93}, {"time": 2417, "pitch": 74, "duration": 6, "velocity": 95}, {"time": 2423, "pitch": 73, "duration": 19, "velocity": 98}, {"time": 2453, "pitch": 66, "duration": 6, "velocity": 93}, {"time": 2459, "pitch": 71, "duration": 7, "velocity": 95}, {"time": 2465, "pitch": 78, "duration": 28, "velocity": 100}, {"time": 2495, "pitch": 74, "duration": 23, "velocity": 97}, {"time": 2519, "pitch": 76, "duration": 12, "velocity": 97}, {"time": 2531, "pitch": 69, "duration": 7, "velocity": 84}, {"time": 2537, "pitch": 71, "duration": 4, "velocity": 87}, {"time": 2540, "pitch": 73, "duration": 4, "velocity": 87}, {"time": 2544, "pitch": 74, "duration": 24, "velocity": 97}, {"time": 2567, "pitch": 73, "duration": 22, "velocity": 50}, {"time": 2591, "pitch": 67, "duration": 18, "velocity": 84}, {"time": 2591, "pitch": 71, "duration": 18, "velocity": 89}, {"time": 2609, "pitch": 74, "duration": 5, "velocity": 95}, {"time": 2615, "pitch": 69, "duration": 22, "velocity": 86}, {"time": 2615, "pitch": 73, "duration": 23, "velocity": 93}, {"time": 2639, "pitch": 71, "duration": 18, "velocity": 95}, {"time": 2657, "pitch": 74, "duration": 6, "velocity": 100}, {"time": 2663, "pitch": 69, "duration": 23, "velocity": 85}, {"time": 2663, "pitch": 73, "duration": 24, "velocity": 98}, {"time": 2694, "pitch": 66, "duration": 5, "velocity": 105}, {"time": 2700, "pitch": 71, "duration": 6, "velocity": 102}, {"time": 2706, "pitch": 78, "duration": 6, "velocity": 102}, {"time": 2712, "pitch": 76, "duration": 12, "velocity": 102}, {"time": 2723, "pitch": 73, "duration": 6, "velocity": 105}, {"time": 2729, "pitch": 69, "duration": 7, "velocity": 82}, {"time": 2735, "pitch": 71, "duration": 24, "velocity": 94}, {"time": 2759, "pitch": 59, "duration": 32, "velocity": 95}, {"time": 2762, "pitch": 66, "duration": 21, "velocity": 93}, {"time": 2765, "pitch": 71, "duration": 4, "velocity": 91}, {"time": 2768, "pitch": 73, "duration": 3, "velocity": 82}, {"time": 2771, "pitch": 74, "duration": 5, "velocity": 95}, {"time": 2774, "pitch": 78, "duration": 3, "velocity": 95}, {"time": 2777, "pitch": 83, "duration": 4, "velocity": 94}, {"time": 2780, "pitch": 81, "duration": 4, "velocity": 90}, {"time": 2783, "pitch": 67, "duration": 22, "velocity": 93}, {"time": 2783, "pitch": 83, "duration": 15, "velocity": 97}, {"time": 2807, "pitch": 69, "duration": 22, "velocity": 94}, {"time": 2831, "pitch": 62, "duration": 18, "velocity": 87}, {"time": 2831, "pitch": 66, "duration": 18, "velocity": 88}, {"time": 2849, "pitch": 64, "duration": 6, "velocity": 94}, {"time": 2855, "pitch": 62, "duration": 21, "velocity": 89}, {"time": 2855, "pitch": 66, "duration": 21, "velocity": 86}, {"time": 2879, "pitch": 67, "duration": 13, "velocity": 88}, {"time": 2891, "pitch": 71, "duration": 12, "velocity": 93}, {"time": 2903, "pitch": 69, "duration": 19, "velocity": 95}, {"time": 2921, "pitch": 64, "duration": 6, "velocity": 93}, {"time": 2927, "pitch": 61, "duration": 23, "velocity": 87}, {"time": 2927, "pitch": 66, "duration": 24, "velocity": 84}, {"time": 2951, "pitch": 66, "duration": 6, "velocity": 95}, {"time": 2957, "pitch": 64, "duration": 6, "velocity": 97}, {"time": 2963, "pitch": 62, "duration": 10, "velocity": 89}, {"time": 2975, "pitch": 59, "duration": 19, "velocity": 81}, {"time": 2975, "pitch": 62, "duration": 21, "velocity": 88}, {"time": 2999, "pitch": 69, "duration": 20, "velocity": 89}, {"time": 3023, "pitch": 71, "duration": 20, "velocity": 85}, {"time": 3023, "pitch": 74, "duration": 18, "velocity": 94}, {"time": 3041, "pitch": 73, "duration": 6, "velocity": 85}, {"time": 3047, "pitch": 71, "duration": 12, "velocity": 84}, {"time": 3047, "pitch": 74, "duration": 12, "velocity": 94}, {"time": 3059, "pitch": 73, "duration": 12, "velocity": 91}, {"time": 3071, "pitch": 67, "duration": 19, "velocity": 85}, {"time": 3071, "pitch": 71, "duration": 22, "velocity": 93}, {"time": 3095, "pitch": 73, "duration": 12, "velocity": 94}, {"time": 3107, "pitch": 74, "duration": 8, "velocity": 98}, {"time": 3113, "pitch": 73, "duration": 5, "velocity": 84}, {"time": 3119, "pitch": 71, "duration": 6, "velocity": 94}, {"time": 3125, "pitch": 66, "duration": 6, "velocity": 95}, {"time": 3131, "pitch": 76, "duration": 4, "velocity": 99}, {"time": 3137, "pitch": 78, "duration": 4, "velocity": 98}, {"time": 3143, "pitch": 76, "duration": 11, "velocity": 97}, {"time": 3155, "pitch": 73, "duration": 15, "velocity": 100}, {"time": 3167, "pitch": 59, "duration": 19, "velocity": 81}, {"time": 3167, "pitch": 62, "duration": 21, "velocity": 88}, {"time": 3173, "pitch": 71, "duration": 5, "velocity": 90}, {"time": 3173, "pitch": 83, "duration": 4, "velocity": 99}, {"time": 3179, "pitch": 76, "duration": 5, "velocity": 104}, {"time": 3179, "pitch": 85, "duration": 5, "velocity": 98}, {"time": 3185, "pitch": 78, "duration": 6, "velocity": 95}, {"time": 3185, "pitch": 86, "duration": 5, "velocity": 99}, {"time": 3191, "pitch": 69, "duration": 20, "velocity": 89}, {"time": 3191, "pitch": 76, "duration": 12, "velocity": 94}, {"time": 3191, "pitch": 85, "duration": 11, "velocity": 104}, {"time": 3203, "pitch": 73, "duration": 12, "velocity": 97}, {"time": 3203, "pitch": 81, "duration": 11, "velocity": 95}, {"time": 3215, "pitch": 71, "duration": 20, "velocity": 85}, {"time": 3215, "pitch": 74, "duration": 18, "velocity": 94}, {"time": 3215, "pitch": 78, "duration": 16, "velocity": 81}, {"time": 3233, "pitch": 73, "duration": 6, "velocity": 85}, {"time": 3239, "pitch": 71, "duration": 12, "velocity": 84}, {"time": 3239, "pitch": 74, "duration": 12, "velocity": 94}, {"time": 3251, "pitch": 73, "duration": 12, "velocity": 91}, {"time": 3263, "pitch": 67, "duration": 19, "velocity": 85}, {"time": 3263, "pitch": 71, "duration": 22, "velocity": 93}, {"time": 3287, "pitch": 73, "duration": 12, "velocity": 94}, {"time": 3299, "pitch": 74, "duration": 8, "velocity": 98}, {"time": 3305, "pitch": 73, "duration": 5, "velocity": 84}, {"time": 3317, "pitch": 66, "duration": 6, "velocity": 97}, {"time": 3323, "pitch": 71, "duration": 7, "velocity": 95}, {"time": 3329, "pitch": 78, "duration": 6, "velocity": 99}, {"time": 3335, "pitch": 76, "duration": 6, "velocity": 98}, {"time": 3341, "pitch": 74, "duration": 6, "velocity": 109}, {"time": 3347, "pitch": 73, "duration": 6, "velocity": 99}, {"time": 3353, "pitch": 69, "duration": 6, "velocity": 97}, {"time": 3364, "pitch": 66, "duration": 7, "velocity": 95}, {"time": 3371, "pitch": 71, "duration": 6, "velocity": 96}, {"time": 3377, "pitch": 74, "duration": 7, "velocity": 100}, {"time": 3383, "pitch": 73, "duration": 8, "velocity": 97}, {"time": 3391, "pitch": 69, "duration": 9, "velocity": 95}, {"time": 3400, "pitch": 64, "duration": 11, "velocity": 100}, {"time": 3410, "pitch": 61, "duration": 13, "velocity": 99}, {"time": 3423, "pitch": 59, "duration": 65, "velocity": 100}]}, {"program": 0, "is_drum": false, "name": "PIANO", "notes": [{"time": 335, "pitch": 47, "duration": 35, "velocity": 93}, {"time": 335, "pitch": 59, "duration": 7, "velocity": 85}, {"time": 335, "pitch": 62, "duration": 9, "velocity": 88}, {"time": 341, "pitch": 54, "duration": 25, "velocity": 81}, {"time": 347, "pitch": 59, "duration": 9, "velocity": 86}, {"time": 353, "pitch": 66, "duration": 4, "velocity": 79}, {"time": 359, "pitch": 64, "duration": 4, "velocity": 94}, {"time": 365, "pitch": 62, "duration": 6, "velocity": 88}, {"time": 371, "pitch": 61, "duration": 7, "velocity": 82}, {"time": 377, "pitch": 62, "duration": 18, "velocity": 90}, {"time": 383, "pitch": 43, "duration": 20, "velocity": 94}, {"time": 389, "pitch": 50, "duration": 14, "velocity": 84}, {"time": 395, "pitch": 55, "duration": 6, "velocity": 94}, {"time": 401, "pitch": 62, "duration": 6, "velocity": 92}, {"time": 407, "pitch": 45, "duration": 19, "velocity": 93}, {"time": 407, "pitch": 57, "duration": 7, "velocity": 88}, {"time": 407, "pitch": 61, "duration": 12, "velocity": 93}, {"time": 413, "pitch": 52, "duration": 15, "velocity": 83}, {"time": 419, "pitch": 57, "duration": 8, "velocity": 94}, {"time": 431, "pitch": 47, "duration": 39, "velocity": 94}, {"time": 437, "pitch": 54, "duration": 30, "velocity": 75}, {"time": 443, "pitch": 59, "duration": 11, "velocity": 87}, {"time": 449, "pitch": 66, "duration": 2, "velocity": 94}, {"time": 455, "pitch": 64, "duration": 5, "velocity": 91}, {"time": 461, "pitch": 62, "duration": 7, "velocity": 93}, {"time": 467, "pitch": 61, "duration": 6, "velocity": 94}, {"time": 473, "pitch": 62, "duration": 15, "velocity": 86}, {"time": 479, "pitch": 43, "duration": 17, "velocity": 93}, {"time": 485, "pitch": 50, "duration": 10, "velocity": 82}, {"time": 491, "pitch": 55, "duration": 3, "velocity": 89}, {"time": 491, "pitch": 59, "duration": 10, "velocity": 94}, {"time": 503, "pitch": 42, "duration": 19, "velocity": 94}, {"time": 503, "pitch": 57, "duration": 13, "velocity": 86}, {"time": 503, "pitch": 61, "duration": 6, "velocity": 84}, {"time": 509, "pitch": 49, "duration": 13, "velocity": 84}, {"time": 515, "pitch": 61, "duration": 11, "velocity": 88}, {"time": 515, "pitch": 66, "duration": 11, "velocity": 87}, {"time": 527, "pitch": 43, "duration": 21, "velocity": 94}, {"time": 527, "pitch": 62, "duration": 13, "velocity": 94}, {"time": 533, "pitch": 50, "duration": 16, "velocity": 85}, {"time": 539, "pitch": 55, "duration": 6, "velocity": 104}, {"time": 545, "pitch": 62, "duration": 6, "velocity": 95}, {"time": 551, "pitch": 45, "duration": 18, "velocity": 94}, {"time": 551, "pitch": 57, "duration": 10, "velocity": 88}, {"time": 551, "pitch": 61, "duration": 7, "velocity": 91}, {"time": 557, "pitch": 52, "duration": 13, "velocity": 87}, {"time": 563, "pitch": 61, "duration": 6, "velocity": 94}, {"time": 563, "pitch": 64, "duration": 7, "velocity": 95}, {"time": 575, "pitch": 47, "duration": 37, "velocity": 96}, {"time": 575, "pitch": 59, "duration": 8, "velocity": 89}, {"time": 575, "pitch": 62, "duration": 12, "velocity": 92}, {"time": 581, "pitch": 54, "duration": 29, "velocity": 85}, {"time": 587, "pitch": 59, "duration": 4, "velocity": 95}, {"time": 593, "pitch": 66, "duration": 2, "velocity": 98}, {"time": 599, "pitch": 64, "duration": 5, "velocity": 98}, {"time": 605, "pitch": 62, "duration": 6, "velocity": 94}, {"time": 611, "pitch": 61, "duration": 8, "velocity": 98}, {"time": 623, "pitch": 43, "duration": 16, "velocity": 94}, {"time": 623, "pitch": 55, "duration": 8, "velocity": 89}, {"time": 623, "pitch": 62, "duration": 12, "velocity": 93}, {"time": 629, "pitch": 50, "duration": 11, "velocity": 84}, {"time": 635, "pitch": 55, "duration": 7, "velocity": 99}, {"time": 641, "pitch": 62, "duration": 7, "velocity": 97}, {"time": 647, "pitch": 45, "duration": 14, "velocity": 93}, {"time": 647, "pitch": 57, "duration": 7, "velocity": 90}, {"time": 647, "pitch": 61, "duration": 11, "velocity": 95}, {"time": 653, "pitch": 52, "duration": 8, "velocity": 88}, {"time": 659, "pitch": 57, "duration": 11, "velocity": 96}, {"time": 671, "pitch": 42, "duration": 40, "velocity": 93}, {"time": 671, "pitch": 66, "duration": 12, "velocity": 95}, {"time": 677, "pitch": 49, "duration": 35, "velocity": 78}, {"time": 683, "pitch": 57, "duration": 12, "velocity": 93}, {"time": 689, "pitch": 61, "duration": 13, "velocity": 95}, {"time": 695, "pitch": 66, "duration": 5, "velocity": 100}, {"time": 701, "pitch": 57, "duration": 7, "velocity": 90}, {"time": 707, "pitch": 64, "duration": 13, "velocity": 88}, {"time": 719, "pitch": 43, "duration": 21, "velocity": 94}, {"time": 719, "pitch": 55, "duration": 7, "velocity": 88}, {"time": 719, "pitch": 62, "duration": 12, "velocity": 90}, {"time": 725, "pitch": 50, "duration": 16, "velocity": 94}, {"time": 731, "pitch": 55, "duration": 7, "velocity": 109}, {"time": 737, "pitch": 62, "duration": 6, "velocity": 96}, {"time": 743, "pitch": 45, "duration": 19, "velocity": 96}, {"time": 743, "pitch": 57, "duration": 8, "velocity": 89}, {"time": 743, "pitch": 61, "duration": 12, "velocity": 97}, {"time": 749, "pitch": 52, "duration": 16, "velocity": 92}, {"time": 755, "pitch": 57, "duration": 7, "velocity": 94}, {"time": 761, "pitch": 61, "duration": 4, "velocity": 99}, {"time": 767, "pitch": 47, "duration": 37, "velocity": 96}, {"time": 767, "pitch": 59, "duration": 8, "velocity": 87}, {"time": 767, "pitch": 62, "duration": 9, "velocity": 94}, {"time": 773, "pitch": 54, "duration": 29, "velocity": 90}, {"time": 779, "pitch": 59, "duration": 6, "velocity": 99}, {"time": 785, "pitch": 66, "duration": 2, "velocity": 100}, {"time": 791, "pitch": 64, "duration": 4, "velocity": 96}, {"time": 797, "pitch": 62, "duration": 3, "velocity": 93}, {"time": 803, "pitch": 61, "duration": 6, "velocity": 100}, {"time": 809, "pitch": 62, "duration": 4, "velocity": 94}, {"time": 815, "pitch": 43, "duration": 18, "velocity": 94}, {"time": 815, "pitch": 55, "duration": 7, "velocity": 91}, {"time": 815, "pitch": 59, "duration": 12, "velocity": 94}, {"time": 821, "pitch": 50, "duration": 12, "velocity": 89}, {"time": 827, "pitch": 55, "duration": 7, "velocity": 98}, {"time": 833, "pitch": 59, "duration": 6, "velocity": 98}, {"time": 839, "pitch": 45, "duration": 19, "velocity": 95}, {"time": 839, "pitch": 57, "duration": 7, "velocity": 89}, {"time": 839, "pitch": 61, "duration": 12, "velocity": 94}, {"time": 845, "pitch": 52, "duration": 16, "velocity": 88}, {"time": 851, "pitch": 57, "duration": 8, "velocity": 93}, {"time": 857, "pitch": 61, "duration": 4, "velocity": 97}, {"time": 863, "pitch": 47, "duration": 38, "velocity": 94}, {"time": 863, "pitch": 59, "duration": 8, "velocity": 94}, {"time": 863, "pitch": 62, "duration": 18, "velocity": 94}, {"time": 869, "pitch": 54, "duration": 30, "velocity": 88}, {"time": 875, "pitch": 59, "duration": 15, "velocity": 100}, {"time": 881, "pitch": 66, "duration": 7, "velocity": 99}, {"time": 887, "pitch": 64, "duration": 5, "velocity": 99}, {"time": 893, "pitch": 62, "duration": 6, "velocity": 93}, {"time": 899, "pitch": 61, "duration": 5, "velocity": 94}, {"time": 911, "pitch": 43, "duration": 19, "velocity": 93}, {"time": 911, "pitch": 55, "duration": 8, "velocity": 88}, {"time": 911, "pitch": 59, "duration": 12, "velocity": 89}, {"time": 917, "pitch": 50, "duration": 13, "velocity": 84}, {"time": 923, "pitch": 55, "duration": 7, "velocity": 96}, {"time": 929, "pitch": 59, "duration": 6, "velocity": 102}, {"time": 935, "pitch": 45, "duration": 16, "velocity": 94}, {"time": 935, "pitch": 57, "duration": 7, "velocity": 88}, {"time": 935, "pitch": 61, "duration": 12, "velocity": 89}, {"time": 941, "pitch": 52, "duration": 11, "velocity": 86}, {"time": 947, "pitch": 57, "duration": 3, "velocity": 94}, {"time": 959, "pitch": 47, "duration": 17, "velocity": 95}, {"time": 959, "pitch": 59, "duration": 8, "velocity": 88}, {"time": 959, "pitch": 62, "duration": 10, "velocity": 93}, {"time": 965, "pitch": 54, "duration": 9, "velocity": 83}, {"time": 971, "pitch": 59, "duration": 5, "velocity": 93}, {"time": 983, "pitch": 45, "duration": 18, "velocity": 93}, {"time": 983, "pitch": 61, "duration": 12, "velocity": 92}, {"time": 989, "pitch": 52, "duration": 12, "velocity": 88}, {"time": 995, "pitch": 57, "duration": 7, "velocity": 94}, {"time": 1001, "pitch": 61, "duration": 7, "velocity": 93}, {"time": 1007, "pitch": 47, "duration": 17, "velocity": 94}, {"time": 1007, "pitch": 59, "duration": 9, "velocity": 88}, {"time": 1007, "pitch": 62, "duration": 12, "velocity": 91}, {"time": 1013, "pitch": 54, "duration": 8, "velocity": 80}, {"time": 1019, "pitch": 59, "duration": 4, "velocity": 87}, {"time": 1031, "pitch": 45, "duration": 19, "velocity": 93}, {"time": 1031, "pitch": 57, "duration": 7, "velocity": 84}, {"time": 1031, "pitch": 61, "duration": 12, "velocity": 84}, {"time": 1037, "pitch": 52, "duration": 13, "velocity": 89}, {"time": 1043, "pitch": 57, "duration": 12, "velocity": 95}, {"time": 1049, "pitch": 61, "duration": 6, "velocity": 97}, {"time": 1055, "pitch": 43, "duration": 16, "velocity": 89}, {"time": 1055, "pitch": 62, "duration": 12, "velocity": 91}, {"time": 1061, "pitch": 50, "duration": 9, "velocity": 81}, {"time": 1067, "pitch": 55, "duration": 5, "velocity": 89}, {"time": 1067, "pitch": 59, "duration": 8, "velocity": 88}, {"time": 1079, "pitch": 45, "duration": 17, "velocity": 92}, {"time": 1079, "pitch": 57, "duration": 7, "velocity": 85}, {"time": 1079, "pitch": 61, "duration": 11, "velocity": 87}, {"time": 1085, "pitch": 52, "duration": 16, "velocity": 85}, {"time": 1091, "pitch": 57, "duration": 8, "velocity": 89}, {"time": 1097, "pitch": 61, "duration": 6, "velocity": 91}, {"time": 1103, "pitch": 47, "duration": 39, "velocity": 93}, {"time": 1103, "pitch": 62, "duration": 10, "velocity": 93}, {"time": 1109, "pitch": 54, "duration": 30, "velocity": 86}, {"time": 1115, "pitch": 59, "duration": 8, "velocity": 92}, {"time": 1121, "pitch": 66, "duration": 2, "velocity": 100}, {"time": 1127, "pitch": 64, "duration": 6, "velocity": 90}, {"time": 1133, "pitch": 62, "duration": 7, "velocity": 88}, {"time": 1139, "pitch": 61, "duration": 5, "velocity": 89}, {"time": 1151, "pitch": 50, "duration": 14, "velocity": 96}, {"time": 1151, "pitch": 57, "duration": 3, "velocity": 87}, {"time": 1151, "pitch": 62, "duration": 14, "velocity": 93}, {"time": 1157, "pitch": 57, "duration": 6, "velocity": 92}, {"time": 1163, "pitch": 66, "duration": 6, "velocity": 99}, {"time": 1169, "pitch": 57, "duration": 7, "velocity": 95}, {"time": 1175, "pitch": 45, "duration": 18, "velocity": 94}, {"time": 1175, "pitch": 61, "duration": 12, "velocity": 95}, {"time": 1181, "pitch": 52, "duration": 16, "velocity": 91}, {"time": 1187, "pitch": 57, "duration": 7, "velocity": 94}, {"time": 1199, "pitch": 47, "duration": 16, "velocity": 94}, {"time": 1199, "pitch": 59, "duration": 8, "velocity": 89}, {"time": 1199, "pitch": 62, "duration": 7, "velocity": 93}, {"time": 1205, "pitch": 54, "duration": 9, "velocity": 85}, {"time": 1211, "pitch": 59, "duration": 8, "velocity": 95}, {"time": 1217, "pitch": 62, "duration": 3, "velocity": 89}, {"time": 1223, "pitch": 42, "duration": 15, "velocity": 92}, {"time": 1223, "pitch": 61, "duration": 13, "velocity": 97}, {"time": 1229, "pitch": 49, "duration": 10, "velocity": 80}, {"time": 1235, "pitch": 57, "duration": 8, "velocity": 94}, {"time": 1241, "pitch": 61, "duration": 2, "velocity": 97}, {"time": 1247, "pitch": 43, "duration": 17, "velocity": 94}, {"time": 1247, "pitch": 55, "duration": 8, "velocity": 93}, {"time": 1247, "pitch": 59, "duration": 12, "velocity": 93}, {"time": 1253, "pitch": 50, "duration": 11, "velocity": 86}, {"time": 1259, "pitch": 55, "duration": 5, "velocity": 98}, {"time": 1271, "pitch": 45, "duration": 18, "velocity": 93}, {"time": 1271, "pitch": 57, "duration": 7, "velocity": 88}, {"time": 1271, "pitch": 61, "duration": 9, "velocity": 93}, {"time": 1277, "pitch": 52, "duration": 15, "velocity": 88}, {"time": 1283, "pitch": 57, "duration": 7, "velocity": 94}, {"time": 1289, "pitch": 61, "duration": 4, "velocity": 95}, {"time": 1295, "pitch": 47, "duration": 43, "velocity": 95}, {"time": 1295, "pitch": 62, "duration": 9, "velocity": 95}, {"time": 1301, "pitch": 54, "duration": 33, "velocity": 84}, {"time": 1307, "pitch": 59, "duration": 6, "velocity": 93}, {"time": 1313, "pitch": 66, "duration": 3, "velocity": 89}, {"time": 1319, "pitch": 64, "duration": 6, "velocity": 86}, {"time": 1325, "pitch": 62, "duration": 7, "velocity": 95}, {"time": 1331, "pitch": 61, "duration": 7, "velocity": 96}, {"time": 1337, "pitch": 54, "duration": 6, "velocity": 79}, {"time": 1343, "pitch": 47, "duration": 40, "velocity": 95}, {"time": 1343, "pitch": 59, "duration": 8, "velocity": 91}, {"time": 1343, "pitch": 62, "duration": 13, "velocity": 94}, {"time": 1349, "pitch": 54, "duration": 20, "velocity": 81}, {"time": 1355, "pitch": 59, "duration": 8, "velocity": 90}, {"time": 1361, "pitch": 62, "duration": 2, "velocity": 79}, {"time": 1367, "pitch": 59, "duration": 8, "velocity": 82}, {"time": 1367, "pitch": 62, "duration": 7, "velocity": 87}, {"time": 1367, "pitch": 66, "duration": 8, "velocity": 87}, {"time": 1373, "pitch": 54, "duration": 7, "velocity": 68}, {"time": 1379, "pitch": 59, "duration": 4, "velocity": 97}, {"time": 1379, "pitch": 62, "duration": 4, "velocity": 96}, {"time": 1391, "pitch": 47, "duration": 17, "velocity": 95}, {"time": 1391, "pitch": 59, "duration": 8, "velocity": 88}, {"time": 1391, "pitch": 62, "duration": 10, "velocity": 93}, {"time": 1397, "pitch": 54, "duration": 9, "velocity": 83}, {"time": 1403, "pitch": 59, "duration": 5, "velocity": 93}, {"time": 1415, "pitch": 45, "duration": 18, "velocity": 93}, {"time": 1415, "pitch": 61, "duration": 12, "velocity": 92}, {"time": 1421, "pitch": 52, "duration": 12, "velocity": 88}, {"time": 1427, "pitch": 57, "duration": 7, "velocity": 94}, {"time": 1433, "pitch": 61, "duration": 7, "velocity": 93}, {"time": 1439, "pitch": 47, "duration": 17, "velocity": 94}, {"time": 1439, "pitch": 59, "duration": 9, "velocity": 88}, {"time": 1439, "pitch": 62, "duration": 12, "velocity": 91}, {"time": 1445, "pitch": 54, "duration": 8, "velocity": 80}, {"time": 1451, "pitch": 59, "duration": 4, "velocity": 87}, {"time": 1463, "pitch": 45, "duration": 19, "velocity": 93}, {"time": 1463, "pitch": 57, "duration": 7, "velocity": 84}, {"time": 1463, "pitch": 61, "duration": 12, "velocity": 84}, {"time": 1469, "pitch": 52, "duration": 13, "velocity": 89}, {"time": 1475, "pitch": 57, "duration": 12, "velocity": 95}, {"time": 1481, "pitch": 61, "duration": 6, "velocity": 97}, {"time": 1487, "pitch": 43, "duration": 16, "velocity": 89}, {"time": 1487, "pitch": 62, "duration": 12, "velocity": 91}, {"time": 1493, "pitch": 50, "duration": 9, "velocity": 81}, {"time": 1499, "pitch": 55, "duration": 5, "velocity": 89}, {"time": 1499, "pitch": 59, "duration": 8, "velocity": 88}, {"time": 1511, "pitch": 45, "duration": 17, "velocity": 92}, {"time": 1511, "pitch": 57, "duration": 7, "velocity": 85}, {"time": 1511, "pitch": 61, "duration": 11, "velocity": 87}, {"time": 1517, "pitch": 52, "duration": 16, "velocity": 85}, {"time": 1523, "pitch": 57, "duration": 8, "velocity": 89}, {"time": 1529, "pitch": 61, "duration": 6, "velocity": 91}, {"time": 1535, "pitch": 47, "duration": 39, "velocity": 93}, {"time": 1535, "pitch": 62, "duration": 10, "velocity": 93}, {"time": 1541, "pitch": 54, "duration": 30, "velocity": 86}, {"time": 1547, "pitch": 59, "duration": 8, "velocity": 92}, {"time": 1553, "pitch": 66, "duration": 2, "velocity": 100}, {"time": 1559, "pitch": 64, "duration": 6, "velocity": 90}, {"time": 1565, "pitch": 62, "duration": 7, "velocity": 88}, {"time": 1571, "pitch": 61, "duration": 5, "velocity": 89}, {"time": 1583, "pitch": 50, "duration": 14, "velocity": 96}, {"time": 1583, "pitch": 57, "duration": 3, "velocity": 87}, {"time": 1583, "pitch": 62, "duration": 14, "velocity": 93}, {"time": 1589, "pitch": 57, "duration": 6, "velocity": 92}, {"time": 1595, "pitch": 66, "duration": 6, "velocity": 99}, {"time": 1601, "pitch": 57, "duration": 7, "velocity": 95}, {"time": 1607, "pitch": 45, "duration": 18, "velocity": 94}, {"time": 1607, "pitch": 61, "duration": 12, "velocity": 95}, {"time": 1613, "pitch": 52, "duration": 16, "velocity": 91}, {"time": 1619, "pitch": 57, "duration": 7, "velocity": 94}, {"time": 1631, "pitch": 47, "duration": 16, "velocity": 94}, {"time": 1631, "pitch": 59, "duration": 8, "velocity": 89}, {"time": 1631, "pitch": 62, "duration": 7, "velocity": 93}, {"time": 1637, "pitch": 54, "duration": 9, "velocity": 85}, {"time": 1643, "pitch": 59, "duration": 8, "velocity": 95}, {"time": 1649, "pitch": 62, "duration": 3, "velocity": 89}, {"time": 1655, "pitch": 42, "duration": 15, "velocity": 92}, {"time": 1655, "pitch": 61, "duration": 13, "velocity": 97}, {"time": 1661, "pitch": 49, "duration": 10, "velocity": 80}, {"time": 1667, "pitch": 57, "duration": 8, "velocity": 94}, {"time": 1673, "pitch": 61, "duration": 2, "velocity": 97}, {"time": 1679, "pitch": 43, "duration": 17, "velocity": 94}, {"time": 1679, "pitch": 55, "duration": 8, "velocity": 93}, {"time": 1679, "pitch": 59, "duration": 12, "velocity": 93}, {"time": 1685, "pitch": 50, "duration": 11, "velocity": 86}, {"time": 1691, "pitch": 55, "duration": 5, "velocity": 98}, {"time": 1703, "pitch": 45, "duration": 18, "velocity": 93}, {"time": 1703, "pitch": 57, "duration": 7, "velocity": 88}, {"time": 1703, "pitch": 61, "duration": 9, "velocity": 93}, {"time": 1709, "pitch": 52, "duration": 15, "velocity": 88}, {"time": 1715, "pitch": 57, "duration": 7, "velocity": 94}, {"time": 1721, "pitch": 61, "duration": 4, "velocity": 95}, {"time": 1727, "pitch": 43, "duration": 21, "velocity": 95}, {"time": 1727, "pitch": 55, "duration": 9, "velocity": 93}, {"time": 1727, "pitch": 62, "duration": 13, "velocity": 94}, {"time": 1733, "pitch": 50, "duration": 15, "velocity": 94}, {"time": 1739, "pitch": 55, "duration": 7, "velocity": 99}, {"time": 1745, "pitch": 59, "duration": 6, "velocity": 99}, {"time": 1751, "pitch": 45, "duration": 20, "velocity": 98}, {"time": 1751, "pitch": 61, "duration": 12, "velocity": 96}, {"time": 1757, "pitch": 52, "duration": 15, "velocity": 87}, {"time": 1763, "pitch": 57, "duration": 7, "velocity": 94}, {"time": 1775, "pitch": 47, "duration": 37, "velocity": 99}, {"time": 1775, "pitch": 59, "duration": 7, "velocity": 88}, {"time": 1775, "pitch": 62, "duration": 10, "velocity": 93}, {"time": 1781, "pitch": 54, "duration": 28, "velocity": 93}, {"time": 1787, "pitch": 59, "duration": 4, "velocity": 102}, {"time": 1793, "pitch": 66, "duration": 1, "velocity": 104}, {"time": 1799, "pitch": 64, "duration": 4, "velocity": 91}, {"time": 1805, "pitch": 62, "duration": 7, "velocity": 94}, {"time": 1811, "pitch": 61, "duration": 5, "velocity": 104}, {"time": 1817, "pitch": 59, "duration": 4, "velocity": 93}, {"time": 1820, "pitch": 61, "duration": 3, "velocity": 94}, {"time": 1823, "pitch": 47, "duration": 44, "velocity": 98}, {"time": 1823, "pitch": 62, "duration": 11, "velocity": 98}, {"time": 1829, "pitch": 54, "duration": 7, "velocity": 95}, {"time": 1835, "pitch": 59, "duration": 5, "velocity": 114}, {"time": 1841, "pitch": 54, "duration": 19, "velocity": 100}, {"time": 1844, "pitch": 59, "duration": 3, "velocity": 107}, {"time": 1847, "pitch": 62, "duration": 2, "velocity": 98}, {"time": 1850, "pitch": 59, "duration": 3, "velocity": 94}, {"time": 1853, "pitch": 62, "duration": 2, "velocity": 93}, {"time": 1856, "pitch": 59, "duration": 2, "velocity": 93}, {"time": 1859, "pitch": 59, "duration": 3, "velocity": 100}, {"time": 1859, "pitch": 66, "duration": 4, "velocity": 95}, {"time": 1862, "pitch": 54, "duration": 4, "velocity": 99}, {"time": 1865, "pitch": 66, "duration": 1, "velocity": 85}, {"time": 1865, "pitch": 71, "duration": 6, "velocity": 99}, {"time": 1868, "pitch": 59, "duration": 4, "velocity": 97}, {"time": 1871, "pitch": 43, "duration": 21, "velocity": 96}, {"time": 1871, "pitch": 55, "duration": 8, "velocity": 90}, {"time": 1871, "pitch": 59, "duration": 1, "velocity": 91}, {"time": 1877, "pitch": 50, "duration": 16, "velocity": 91}, {"time": 1883, "pitch": 55, "duration": 4, "velocity": 95}, {"time": 1886, "pitch": 59, "duration": 3, "velocity": 89}, {"time": 1889, "pitch": 62, "duration": 4, "velocity": 90}, {"time": 1892, "pitch": 55, "duration": 4, "velocity": 97}, {"time": 1895, "pitch": 45, "duration": 18, "velocity": 97}, {"time": 1895, "pitch": 61, "duration": 12, "velocity": 101}, {"time": 1901, "pitch": 52, "duration": 14, "velocity": 96}, {"time": 1907, "pitch": 57, "duration": 6, "velocity": 96}, {"time": 1913, "pitch": 61, "duration": 2, "velocity": 98}, {"time": 1919, "pitch": 47, "duration": 43, "velocity": 96}, {"time": 1919, "pitch": 59, "duration": 7, "velocity": 88}, {"time": 1919, "pitch": 62, "duration": 13, "velocity": 89}, {"time": 1925, "pitch": 54, "duration": 12, "velocity": 84}, {"time": 1931, "pitch": 59, "duration": 4, "velocity": 94}, {"time": 1937, "pitch": 59, "duration": 5, "velocity": 97}, {"time": 1943, "pitch": 59, "duration": 9, "velocity": 97}, {"time": 1943, "pitch": 62, "duration": 9, "velocity": 94}, {"time": 1943, "pitch": 66, "duration": 8, "velocity": 95}, {"time": 1949, "pitch": 54, "duration": 8, "velocity": 77}, {"time": 1955, "pitch": 59, "duration": 4, "velocity": 96}, {"time": 1955, "pitch": 62, "duration": 7, "velocity": 96}, {"time": 1961, "pitch": 59, "duration": 7, "velocity": 92}, {"time": 1967, "pitch": 43, "duration": 19, "velocity": 93}, {"time": 1967, "pitch": 62, "duration": 13, "velocity": 91}, {"time": 1973, "pitch": 50, "duration": 16, "velocity": 90}, {"time": 1979, "pitch": 55, "duration": 7, "velocity": 95}, {"time": 1985, "pitch": 59, "duration": 5, "velocity": 96}, {"time": 1991, "pitch": 45, "duration": 15, "velocity": 97}, {"time": 1991, "pitch": 57, "duration": 6, "velocity": 91}, {"time": 1991, "pitch": 61, "duration": 11, "velocity": 91}, {"time": 1997, "pitch": 52, "duration": 9, "velocity": 91}, {"time": 2003, "pitch": 57, "duration": 13, "velocity": 96}, {"time": 2015, "pitch": 42, "duration": 38, "velocity": 91}, {"time": 2015, "pitch": 66, "duration": 13, "velocity": 83}, {"time": 2021, "pitch": 49, "duration": 33, "velocity": 85}, {"time": 2027, "pitch": 57, "duration": 12, "velocity": 96}, {"time": 2033, "pitch": 61, "duration": 8, "velocity": 98}, {"time": 2039, "pitch": 66, "duration": 8, "velocity": 96}, {"time": 2045, "pitch": 57, "duration": 3, "velocity": 96}, {"time": 2051, "pitch": 57, "duration": 6, "velocity": 98}, {"time": 2051, "pitch": 61, "duration": 5, "velocity": 100}, {"time": 2057, "pitch": 42, "duration": 2, "velocity": 97}, {"time": 2057, "pitch": 49, "duration": 2, "velocity": 85}, {"time": 2063, "pitch": 43, "duration": 20, "velocity": 84}, {"time": 2063, "pitch": 55, "duration": 8, "velocity": 92}, {"time": 2063, "pitch": 59, "duration": 13, "velocity": 96}, {"time": 2069, "pitch": 50, "duration": 16, "velocity": 90}, {"time": 2075, "pitch": 55, "duration": 6, "velocity": 100}, {"time": 2081, "pitch": 59, "duration": 6, "velocity": 98}, {"time": 2087, "pitch": 45, "duration": 21, "velocity": 97}, {"time": 2087, "pitch": 57, "duration": 6, "velocity": 89}, {"time": 2087, "pitch": 61, "duration": 13, "velocity": 89}, {"time": 2093, "pitch": 52, "duration": 16, "velocity": 90}, {"time": 2099, "pitch": 57, "duration": 8, "velocity": 92}, {"time": 2105, "pitch": 61, "duration": 6, "velocity": 97}, {"time": 2111, "pitch": 47, "duration": 41, "velocity": 97}, {"time": 2111, "pitch": 59, "duration": 8, "velocity": 87}, {"time": 2111, "pitch": 62, "duration": 6, "velocity": 96}, {"time": 2117, "pitch": 54, "duration": 7, "velocity": 93}, {"time": 2123, "pitch": 59, "duration": 7, "velocity": 99}, {"time": 2129, "pitch": 54, "duration": 8, "velocity": 95}, {"time": 2135, "pitch": 59, "duration": 8, "velocity": 97}, {"time": 2135, "pitch": 66, "duration": 7, "velocity": 93}, {"time": 2141, "pitch": 54, "duration": 8, "velocity": 86}, {"time": 2147, "pitch": 59, "duration": 5, "velocity": 96}, {"time": 2147, "pitch": 66, "duration": 6, "velocity": 92}, {"time": 2153, "pitch": 64, "duration": 6, "velocity": 91}, {"time": 2159, "pitch": 43, "duration": 18, "velocity": 96}, {"time": 2159, "pitch": 62, "duration": 12, "velocity": 91}, {"time": 2165, "pitch": 50, "duration": 14, "velocity": 87}, {"time": 2171, "pitch": 55, "duration": 6, "velocity": 97}, {"time": 2177, "pitch": 62, "duration": 6, "velocity": 96}, {"time": 2183, "pitch": 45, "duration": 17, "velocity": 96}, {"time": 2183, "pitch": 57, "duration": 6, "velocity": 87}, {"time": 2183, "pitch": 61, "duration": 12, "velocity": 89}, {"time": 2189, "pitch": 52, "duration": 14, "velocity": 93}, {"time": 2195, "pitch": 57, "duration": 7, "velocity": 93}, {"time": 2201, "pitch": 61, "duration": 7, "velocity": 96}, {"time": 2207, "pitch": 47, "duration": 46, "velocity": 97}, {"time": 2207, "pitch": 59, "duration": 7, "velocity": 87}, {"time": 2207, "pitch": 62, "duration": 6, "velocity": 94}, {"time": 2213, "pitch": 54, "duration": 9, "velocity": 86}, {"time": 2219, "pitch": 59, "duration": 11, "velocity": 97}, {"time": 2225, "pitch": 54, "duration": 8, "velocity": 87}, {"time": 2231, "pitch": 62, "duration": 8, "velocity": 90}, {"time": 2231, "pitch": 66, "duration": 9, "velocity": 86}, {"time": 2237, "pitch": 54, "duration": 8, "velocity": 80}, {"time": 2243, "pitch": 59, "duration": 5, "velocity": 95}, {"time": 2243, "pitch": 62, "duration": 8, "velocity": 95}, {"time": 2249, "pitch": 54, "duration": 3, "velocity": 76}, {"time": 2252, "pitch": 59, "duration": 12, "velocity": 96}, {"time": 2255, "pitch": 47, "duration": 48, "velocity": 97}, {"time": 2261, "pitch": 54, "duration": 41, "velocity": 84}, {"time": 2267, "pitch": 59, "duration": 13, "velocity": 97}, {"time": 2273, "pitch": 62, "duration": 8, "velocity": 92}, {"time": 2279, "pitch": 71, "duration": 7, "velocity": 97}, {"time": 2285, "pitch": 59, "duration": 4, "velocity": 94}, {"time": 2291, "pitch": 59, "duration": 3, "velocity": 92}, {"time": 2291, "pitch": 66, "duration": 12, "velocity": 85}, {"time": 2297, "pitch": 59, "duration": 6, "velocity": 93}, {"time": 2303, "pitch": 47, "duration": 1, "velocity": 95}, {"time": 2303, "pitch": 59, "duration": 8, "velocity": 88}, {"time": 2303, "pitch": 62, "duration": 10, "velocity": 93}, {"time": 2309, "pitch": 54, "duration": 9, "velocity": 83}, {"time": 2315, "pitch": 59, "duration": 5, "velocity": 93}, {"time": 2327, "pitch": 45, "duration": 18, "velocity": 93}, {"time": 2327, "pitch": 61, "duration": 12, "velocity": 92}, {"time": 2333, "pitch": 52, "duration": 12, "velocity": 88}, {"time": 2339, "pitch": 57, "duration": 7, "velocity": 94}, {"time": 2345, "pitch": 61, "duration": 7, "velocity": 93}, {"time": 2351, "pitch": 47, "duration": 17, "velocity": 94}, {"time": 2351, "pitch": 59, "duration": 9, "velocity": 88}, {"time": 2351, "pitch": 62, "duration": 12, "velocity": 91}, {"time": 2357, "pitch": 54, "duration": 8, "velocity": 80}, {"time": 2363, "pitch": 59, "duration": 4, "velocity": 87}, {"time": 2375, "pitch": 45, "duration": 19, "velocity": 93}, {"time": 2375, "pitch": 57, "duration": 7, "velocity": 84}, {"time": 2375, "pitch": 61, "duration": 12, "velocity": 84}, {"time": 2381, "pitch": 52, "duration": 13, "velocity": 89}, {"time": 2387, "pitch": 57, "duration": 12, "velocity": 95}, {"time": 2393, "pitch": 61, "duration": 6, "velocity": 97}, {"time": 2399, "pitch": 43, "duration": 16, "velocity": 89}, {"time": 2399, "pitch": 62, "duration": 12, "velocity": 91}, {"time": 2405, "pitch": 50, "duration": 9, "velocity": 81}, {"time": 2411, "pitch": 55, "duration": 5, "velocity": 89}, {"time": 2411, "pitch": 59, "duration": 8, "velocity": 88}, {"time": 2423, "pitch": 45, "duration": 17, "velocity": 92}, {"time": 2423, "pitch": 57, "duration": 7, "velocity": 85}, {"time": 2423, "pitch": 61, "duration": 11, "velocity": 87}, {"time": 2429, "pitch": 52, "duration": 16, "velocity": 85}, {"time": 2435, "pitch": 57, "duration": 8, "velocity": 89}, {"time": 2441, "pitch": 61, "duration": 6, "velocity": 91}, {"time": 2447, "pitch": 47, "duration": 39, "velocity": 93}, {"time": 2447, "pitch": 62, "duration": 10, "velocity": 93}, {"time": 2453, "pitch": 54, "duration": 30, "velocity": 86}, {"time": 2459, "pitch": 59, "duration": 8, "velocity": 92}, {"time": 2465, "pitch": 66, "duration": 2, "velocity": 100}, {"time": 2471, "pitch": 64, "duration": 6, "velocity": 90}, {"time": 2477, "pitch": 62, "duration": 7, "velocity": 88}, {"time": 2483, "pitch": 61, "duration": 5, "velocity": 89}, {"time": 2495, "pitch": 50, "duration": 14, "velocity": 96}, {"time": 2495, "pitch": 57, "duration": 3, "velocity": 87}, {"time": 2495, "pitch": 62, "duration": 14, "velocity": 93}, {"time": 2501, "pitch": 57, "duration": 6, "velocity": 92}, {"time": 2507, "pitch": 66, "duration": 6, "velocity": 99}, {"time": 2513, "pitch": 57, "duration": 7, "velocity": 95}, {"time": 2519, "pitch": 45, "duration": 18, "velocity": 94}, {"time": 2519, "pitch": 61, "duration": 12, "velocity": 95}, {"time": 2525, "pitch": 52, "duration": 16, "velocity": 91}, {"time": 2531, "pitch": 57, "duration": 7, "velocity": 94}, {"time": 2543, "pitch": 47, "duration": 16, "velocity": 94}, {"time": 2543, "pitch": 59, "duration": 8, "velocity": 89}, {"time": 2543, "pitch": 62, "duration": 7, "velocity": 93}, {"time": 2549, "pitch": 54, "duration": 9, "velocity": 85}, {"time": 2555, "pitch": 59, "duration": 8, "velocity": 95}, {"time": 2561, "pitch": 62, "duration": 3, "velocity": 89}, {"time": 2567, "pitch": 42, "duration": 15, "velocity": 92}, {"time": 2567, "pitch": 61, "duration": 13, "velocity": 97}, {"time": 2573, "pitch": 49, "duration": 10, "velocity": 80}, {"time": 2579, "pitch": 57, "duration": 8, "velocity": 94}, {"time": 2585, "pitch": 61, "duration": 2, "velocity": 97}, {"time": 2591, "pitch": 43, "duration": 17, "velocity": 94}, {"time": 2591, "pitch": 55, "duration": 8, "velocity": 93}, {"time": 2591, "pitch": 59, "duration": 12, "velocity": 93}, {"time": 2597, "pitch": 50, "duration": 11, "velocity": 86}, {"time": 2603, "pitch": 55, "duration": 5, "velocity": 98}, {"time": 2615, "pitch": 45, "duration": 18, "velocity": 93}, {"time": 2615, "pitch": 57, "duration": 7, "velocity": 88}, {"time": 2615, "pitch": 61, "duration": 9, "velocity": 93}, {"time": 2621, "pitch": 52, "duration": 15, "velocity": 88}, {"time": 2627, "pitch": 57, "duration": 7, "velocity": 94}, {"time": 2633, "pitch": 61, "duration": 4, "velocity": 95}, {"time": 2639, "pitch": 43, "duration": 21, "velocity": 95}, {"time": 2639, "pitch": 55, "duration": 9, "velocity": 93}, {"time": 2639, "pitch": 62, "duration": 13, "velocity": 94}, {"time": 2645, "pitch": 50, "duration": 15, "velocity": 94}, {"time": 2651, "pitch": 55, "duration": 7, "velocity": 99}, {"time": 2657, "pitch": 59, "duration": 6, "velocity": 99}, {"time": 2663, "pitch": 45, "duration": 20, "velocity": 98}, {"time": 2663, "pitch": 61, "duration": 12, "velocity": 96}, {"time": 2669, "pitch": 52, "duration": 15, "velocity": 87}, {"time": 2675, "pitch": 57, "duration": 7, "velocity": 94}, {"time": 2687, "pitch": 47, "duration": 37, "velocity": 99}, {"time": 2687, "pitch": 59, "duration": 7, "velocity": 88}, {"time": 2687, "pitch": 62, "duration": 10, "velocity": 93}, {"time": 2693, "pitch": 54, "duration": 28, "velocity": 93}, {"time": 2699, "pitch": 59, "duration": 4, "velocity": 102}, {"time": 2705, "pitch": 66, "duration": 1, "velocity": 104}, {"time": 2711, "pitch": 64, "duration": 4, "velocity": 91}, {"time": 2717, "pitch": 62, "duration": 7, "velocity": 94}, {"time": 2723, "pitch": 61, "duration": 5, "velocity": 104}, {"time": 2729, "pitch": 59, "duration": 4, "velocity": 93}, {"time": 2732, "pitch": 61, "duration": 3, "velocity": 94}, {"time": 2735, "pitch": 47, "duration": 44, "velocity": 98}, {"time": 2735, "pitch": 62, "duration": 11, "velocity": 98}, {"time": 2741, "pitch": 54, "duration": 7, "velocity": 95}, {"time": 2747, "pitch": 59, "duration": 5, "velocity": 114}, {"time": 2753, "pitch": 54, "duration": 19, "velocity": 100}, {"time": 2756, "pitch": 59, "duration": 3, "velocity": 107}, {"time": 2759, "pitch": 62, "duration": 2, "velocity": 98}, {"time": 2762, "pitch": 59, "duration": 3, "velocity": 94}, {"time": 2765, "pitch": 62, "duration": 2, "velocity": 93}, {"time": 2768, "pitch": 59, "duration": 2, "velocity": 93}, {"time": 2771, "pitch": 59, "duration": 3, "velocity": 100}, {"time": 2771, "pitch": 66, "duration": 4, "velocity": 95}, {"time": 2774, "pitch": 54, "duration": 4, "velocity": 99}, {"time": 2777, "pitch": 66, "duration": 1, "velocity": 85}, {"time": 2777, "pitch": 71, "duration": 6, "velocity": 99}, {"time": 2780, "pitch": 59, "duration": 4, "velocity": 97}, {"time": 2783, "pitch": 43, "duration": 21, "velocity": 96}, {"time": 2783, "pitch": 55, "duration": 8, "velocity": 90}, {"time": 2783, "pitch": 59, "duration": 1, "velocity": 91}, {"time": 2789, "pitch": 50, "duration": 16, "velocity": 91}, {"time": 2795, "pitch": 55, "duration": 4, "velocity": 95}, {"time": 2798, "pitch": 59, "duration": 3, "velocity": 89}, {"time": 2801, "pitch": 62, "duration": 4, "velocity": 90}, {"time": 2804, "pitch": 55, "duration": 4, "velocity": 97}, {"time": 2807, "pitch": 45, "duration": 18, "velocity": 97}, {"time": 2807, "pitch": 61, "duration": 12, "velocity": 101}, {"time": 2813, "pitch": 52, "duration": 14, "velocity": 96}, {"time": 2819, "pitch": 57, "duration": 6, "velocity": 96}, {"time": 2825, "pitch": 61, "duration": 2, "velocity": 98}, {"time": 2831, "pitch": 47, "duration": 43, "velocity": 96}, {"time": 2831, "pitch": 59, "duration": 7, "velocity": 88}, {"time": 2831, "pitch": 62, "duration": 13, "velocity": 89}, {"time": 2837, "pitch": 54, "duration": 12, "velocity": 84}, {"time": 2843, "pitch": 59, "duration": 4, "velocity": 94}, {"time": 2849, "pitch": 59, "duration": 5, "velocity": 97}, {"time": 2855, "pitch": 59, "duration": 9, "velocity": 97}, {"time": 2855, "pitch": 62, "duration": 9, "velocity": 94}, {"time": 2855, "pitch": 66, "duration": 8, "velocity": 95}, {"time": 2861, "pitch": 54, "duration": 8, "velocity": 77}, {"time": 2867, "pitch": 59, "duration": 4, "velocity": 96}, {"time": 2867, "pitch": 62, "duration": 7, "velocity": 96}, {"time": 2873, "pitch": 59, "duration": 7, "velocity": 92}, {"time": 2879, "pitch": 43, "duration": 19, "velocity": 93}, {"time": 2879, "pitch": 62, "duration": 13, "velocity": 91}, {"time": 2885, "pitch": 50, "duration": 16, "velocity": 90}, {"time": 2891, "pitch": 55, "duration": 7, "velocity": 95}, {"time": 2897, "pitch": 59, "duration": 5, "velocity": 96}, {"time": 2903, "pitch": 45, "duration": 15, "velocity": 97}, {"time": 2903, "pitch": 57, "duration": 6, "velocity": 91}, {"time": 2903, "pitch": 61, "duration": 11, "velocity": 91}, {"time": 2909, "pitch": 52, "duration": 9, "velocity": 91}, {"time": 2915, "pitch": 57, "duration": 13, "velocity": 96}, {"time": 2927, "pitch": 42, "duration": 38, "velocity": 91}, {"time": 2927, "pitch": 66, "duration": 13, "velocity": 83}, {"time": 2933, "pitch": 49, "duration": 33, "velocity": 85}, {"time": 2939, "pitch": 57, "duration": 12, "velocity": 96}, {"time": 2945, "pitch": 61, "duration": 8, "velocity": 98}, {"time": 2951, "pitch": 66, "duration": 8, "velocity": 96}, {"time": 2957, "pitch": 57, "duration": 3, "velocity": 96}, {"time": 2963, "pitch": 57, "duration": 6, "velocity": 98}, {"time": 2963, "pitch": 61, "duration": 5, "velocity": 100}, {"time": 2969, "pitch": 42, "duration": 2, "velocity": 97}, {"time": 2969, "pitch": 49, "duration": 2, "velocity": 85}, {"time": 2975, "pitch": 43, "duration": 20, "velocity": 84}, {"time": 2975, "pitch": 55, "duration": 8, "velocity": 92}, {"time": 2975, "pitch": 59, "duration": 13, "velocity": 96}, {"time": 2981, "pitch": 50, "duration": 16, "velocity": 90}, {"time": 2987, "pitch": 55, "duration": 6, "velocity": 100}, {"time": 2993, "pitch": 59, "duration": 6, "velocity": 98}, {"time": 2999, "pitch": 45, "duration": 21, "velocity": 97}, {"time": 2999, "pitch": 57, "duration": 6, "velocity": 89}, {"time": 2999, "pitch": 61, "duration": 13, "velocity": 89}, {"time": 3005, "pitch": 52, "duration": 16, "velocity": 90}, {"time": 3011, "pitch": 57, "duration": 8, "velocity": 92}, {"time": 3017, "pitch": 61, "duration": 6, "velocity": 97}, {"time": 3023, "pitch": 47, "duration": 41, "velocity": 97}, {"time": 3023, "pitch": 59, "duration": 8, "velocity": 87}, {"time": 3023, "pitch": 62, "duration": 6, "velocity": 96}, {"time": 3029, "pitch": 54, "duration": 7, "velocity": 93}, {"time": 3035, "pitch": 59, "duration": 7, "velocity": 99}, {"time": 3041, "pitch": 54, "duration": 8, "velocity": 95}, {"time": 3047, "pitch": 59, "duration": 8, "velocity": 97}, {"time": 3047, "pitch": 66, "duration": 7, "velocity": 93}, {"time": 3053, "pitch": 54, "duration": 8, "velocity": 86}, {"time": 3059, "pitch": 59, "duration": 5, "velocity": 96}, {"time": 3059, "pitch": 66, "duration": 6, "velocity": 92}, {"time": 3065, "pitch": 64, "duration": 6, "velocity": 91}, {"time": 3071, "pitch": 43, "duration": 18, "velocity": 96}, {"time": 3071, "pitch": 62, "duration": 12, "velocity": 91}, {"time": 3077, "pitch": 50, "duration": 14, "velocity": 87}, {"time": 3083, "pitch": 55, "duration": 6, "velocity": 97}, {"time": 3089, "pitch": 62, "duration": 6, "velocity": 96}, {"time": 3095, "pitch": 45, "duration": 17, "velocity": 96}, {"time": 3095, "pitch": 57, "duration": 6, "velocity": 87}, {"time": 3095, "pitch": 61, "duration": 12, "velocity": 89}, {"time": 3101, "pitch": 52, "duration": 14, "velocity": 93}, {"time": 3107, "pitch": 57, "duration": 7, "velocity": 93}, {"time": 3113, "pitch": 61, "duration": 7, "velocity": 96}, {"time": 3119, "pitch": 47, "duration": 46, "velocity": 97}, {"time": 3119, "pitch": 59, "duration": 7, "velocity": 87}, {"time": 3119, "pitch": 62, "duration": 6, "velocity": 94}, {"time": 3125, "pitch": 54, "duration": 9, "velocity": 86}, {"time": 3131, "pitch": 59, "duration": 11, "velocity": 97}, {"time": 3137, "pitch": 54, "duration": 8, "velocity": 87}, {"time": 3143, "pitch": 62, "duration": 8, "velocity": 90}, {"time": 3143, "pitch": 66, "duration": 9, "velocity": 86}, {"time": 3149, "pitch": 54, "duration": 8, "velocity": 80}, {"time": 3155, "pitch": 59, "duration": 5, "velocity": 95}, {"time": 3155, "pitch": 62, "duration": 8, "velocity": 95}, {"time": 3161, "pitch": 54, "duration": 3, "velocity": 76}, {"time": 3164, "pitch": 59, "duration": 12, "velocity": 96}, {"time": 3167, "pitch": 43, "duration": 20, "velocity": 84}, {"time": 3167, "pitch": 55, "duration": 8, "velocity": 92}, {"time": 3167, "pitch": 59, "duration": 9, "velocity": 96}, {"time": 3173, "pitch": 50, "duration": 16, "velocity": 90}, {"time": 3179, "pitch": 55, "duration": 6, "velocity": 100}, {"time": 3185, "pitch": 59, "duration": 6, "velocity": 98}, {"time": 3191, "pitch": 45, "duration": 21, "velocity": 97}, {"time": 3191, "pitch": 57, "duration": 6, "velocity": 89}, {"time": 3191, "pitch": 61, "duration": 13, "velocity": 89}, {"time": 3197, "pitch": 52, "duration": 16, "velocity": 90}, {"time": 3203, "pitch": 57, "duration": 8, "velocity": 92}, {"time": 3209, "pitch": 61, "duration": 6, "velocity": 97}, {"time": 3215, "pitch": 47, "duration": 41, "velocity": 97}, {"time": 3215, "pitch": 59, "duration": 8, "velocity": 87}, {"time": 3215, "pitch": 62, "duration": 6, "velocity": 96}, {"time": 3221, "pitch": 54, "duration": 7, "velocity": 93}, {"time": 3227, "pitch": 59, "duration": 7, "velocity": 99}, {"time": 3233, "pitch": 54, "duration": 8, "velocity": 95}, {"time": 3239, "pitch": 59, "duration": 8, "velocity": 97}, {"time": 3239, "pitch": 66, "duration": 7, "velocity": 93}, {"time": 3245, "pitch": 54, "duration": 8, "velocity": 86}, {"time": 3251, "pitch": 59, "duration": 5, "velocity": 96}, {"time": 3251, "pitch": 66, "duration": 6, "velocity": 92}, {"time": 3257, "pitch": 64, "duration": 6, "velocity": 91}, {"time": 3263, "pitch": 43, "duration": 18, "velocity": 96}, {"time": 3263, "pitch": 62, "duration": 12, "velocity": 91}, {"time": 3269, "pitch": 50, "duration": 14, "velocity": 87}, {"time": 3275, "pitch": 55, "duration": 6, "velocity": 97}, {"time": 3281, "pitch": 62, "duration": 6, "velocity": 96}, {"time": 3287, "pitch": 45, "duration": 17, "velocity": 96}, {"time": 3287, "pitch": 57, "duration": 6, "velocity": 87}, {"time": 3287, "pitch": 61, "duration": 12, "velocity": 89}, {"time": 3293, "pitch": 52, "duration": 14, "velocity": 93}, {"time": 3299, "pitch": 57, "duration": 7, "velocity": 93}, {"time": 3305, "pitch": 61, "duration": 7, "velocity": 96}, {"time": 3311, "pitch": 47, "duration": 46, "velocity": 97}, {"time": 3311, "pitch": 59, "duration": 7, "velocity": 87}, {"time": 3311, "pitch": 62, "duration": 6, "velocity": 94}, {"time": 3317, "pitch": 54, "duration": 9, "velocity": 86}, {"time": 3323, "pitch": 59, "duration": 11, "velocity": 97}, {"time": 3329, "pitch": 54, "duration": 8, "velocity": 87}, {"time": 3335, "pitch": 62, "duration": 8, "velocity": 90}, {"time": 3335, "pitch": 66, "duration": 9, "velocity": 86}, {"time": 3341, "pitch": 54, "duration": 8, "velocity": 80}, {"time": 3347, "pitch": 59, "duration": 5, "velocity": 95}, {"time": 3347, "pitch": 62, "duration": 8, "velocity": 95}, {"time": 3353, "pitch": 54, "duration": 3, "velocity": 76}, {"time": 3356, "pitch": 59, "duration": 12, "velocity": 96}, {"time": 3359, "pitch": 47, "duration": 25, "velocity": 73}, {"time": 3364, "pitch": 54, "duration": 19, "velocity": 44}, {"time": 3370, "pitch": 66, "duration": 13, "velocity": 74}, {"time": 3370, "pitch": 62, "duration": 13, "velocity": 71}, {"time": 3376, "pitch": 59, "duration": 7, "velocity": 94}, {"time": 3383, "pitch": 57, "duration": 18, "velocity": 87}, {"time": 3384, "pitch": 61, "duration": 12, "velocity": 93}, {"time": 3384, "pitch": 45, "duration": 22, "velocity": 93}, {"time": 3391, "pitch": 52, "duration": 14, "velocity": 86}, {"time": 3400, "pitch": 61, "duration": 21, "velocity": 93}, {"time": 3400, "pitch": 69, "duration": 35, "velocity": 93}, {"time": 3400, "pitch": 64, "duration": 23, "velocity": 94}, {"time": 3409, "pitch": 57, "duration": 14, "velocity": 88}, {"time": 3422, "pitch": 47, "duration": 15, "velocity": 95}, {"time": 3431, "pitch": 54, "duration": 6, "velocity": 77}, {"time": 3436, "pitch": 59, "duration": 4, "velocity": 93}, {"time": 3440, "pitch": 69, "duration": 3, "velocity": 90}, {"time": 3444, "pitch": 59, "duration": 40, "velocity": 91}, {"time": 3449, "pitch": 66, "duration": 35, "velocity": 83}, {"time": 3453, "pitch": 71, "duration": 11, "velocity": 93}, {"time": 3458, "pitch": 78, "duration": 6, "velocity": 78}, {"time": 3464, "pitch": 83, "duration": 2, "velocity": 90}, {"time": 3474, "pitch": 83, "duration": 2, "velocity": 80}, {"time": 3476, "pitch": 95, "duration": 2, "velocity": 88}], "annotations": [{"time": 340, "annotation": {"number": 64, "value": 127}, "group": "control_change"}, {"time": 383, "annotation": {"number": 64, "value": 0}, "group": "control_change"}, {"time": 389, "annotation": {"number": 64, "value": 127}, "group": "control_change"}, {"time": 404, "annotation": {"number": 64, "value": 0}, "group": "control_change"}, {"time": 411, "annotation": {"number": 64, "value": 127}, "group": "control_change"}, {"time": 430, "annotation": {"number": 64, "value": 0}, "group": "control_change"}, {"time": 437, "annotation": {"number": 64, "value": 127}, "group": "control_change"}, {"time": 477, "annotation": {"number": 64, "value": 0}, "group": "control_change"}, {"time": 484, "annotation": {"number": 64, "value": 127}, "group": "control_change"}, {"time": 501, "annotation": {"number": 64, "value": 0}, "group": "control_change"}, {"time": 508, "annotation": {"number": 64, "value": 127}, "group": "control_change"}, {"time": 508, "annotation": {"number": 64, "value": 0}, "group": "control_change"}, {"time": 523, "annotation": {"number": 64, "value": 0}, "group": "control_change"}, {"time": 534, "annotation": {"number": 64, "value": 127}, "group": "control_change"}, {"time": 534, "annotation": {"number": 64, "value": 0}, "group": "control_change"}, {"time": 549, "annotation": {"number": 64, "value": 0}, "group": "control_change"}, {"time": 555, "annotation": {"number": 64, "value": 127}, "group": "control_change"}, {"time": 576, "annotation": {"number": 64, "value": 0}, "group": "control_change"}, {"time": 581, "annotation": {"number": 64, "value": 127}, "group": "control_change"}, {"time": 581, "annotation": {"number": 64, "value": 0}, "group": "control_change"}, {"time": 624, "annotation": {"number": 64, "value": 0}, "group": "control_change"}, {"time": 629, "annotation": {"number": 64, "value": 127}, "group": "control_change"}, {"time": 645, "annotation": {"number": 64, "value": 0}, "group": "control_change"}, {"time": 652, "annotation": {"number": 64, "value": 127}, "group": "control_change"}, {"time": 670, "annotation": {"number": 64, "value": 0}, "group": "control_change"}, {"time": 674, "annotation": {"number": 64, "value": 127}, "group": "control_change"}, {"time": 717, "annotation": {"number": 64, "value": 0}, "group": "control_change"}, {"time": 749, "annotation": {"number": 64, "value": 127}, "group": "control_change"}, {"time": 749, "annotation": {"number": 64, "value": 0}, "group": "control_change"}, {"time": 766, "annotation": {"number": 64, "value": 0}, "group": "control_change"}, {"time": 771, "annotation": {"number": 64, "value": 127}, "group": "control_change"}, {"time": 814, "annotation": {"number": 64, "value": 0}, "group": "control_change"}, {"time": 821, "annotation": {"number": 64, "value": 127}, "group": "control_change"}, {"time": 821, "annotation": {"number": 64, "value": 0}, "group": "control_change"}, {"time": 837, "annotation": {"number": 64, "value": 0}, "group": "control_change"}, {"time": 844, "annotation": {"number": 64, "value": 127}, "group": "control_change"}, {"time": 887, "annotation": {"number": 64, "value": 127}, "group": "control_change"}, {"time": 887, "annotation": {"number": 64, "value": 0}, "group": "control_change"}, {"time": 910, "annotation": {"number": 64, "value": 0}, "group": "control_change"}, {"time": 917, "annotation": {"number": 64, "value": 127}, "group": "control_change"}, {"time": 932, "annotation": {"number": 64, "value": 0}, "group": "control_change"}, {"time": 938, "annotation": {"number": 64, "value": 127}, "group": "control_change"}, {"time": 956, "annotation": {"number": 64, "value": 0}, "group": "control_change"}, {"time": 963, "annotation": {"number": 64, "value": 127}, "group": "control_change"}, {"time": 964, "annotation": {"number": 64, "value": 0}, "group": "control_change"}, {"time": 964, "annotation": {"number": 64, "value": 127}, "group": "control_change"}, {"time": 982, "annotation": {"number": 64, "value": 0}, "group": "control_change"}, {"time": 990, "annotation": {"number": 64, "value": 127}, "group": "control_change"}, {"time": 990, "annotation": {"number": 64, "value": 0}, "group": "control_change"}, {"time": 1003, "annotation": {"number": 64, "value": 0}, "group": "control_change"}, {"time": 1010, "annotation": {"number": 64, "value": 127}, "group": "control_change"}, {"time": 1030, "annotation": {"number": 64, "value": 0}, "group": "control_change"}, {"time": 1036, "annotation": {"number": 64, "value": 127}, "group": "control_change"}, {"time": 1053, "annotation": {"number": 64, "value": 0}, "group": "control_change"}, {"time": 1061, "annotation": {"number": 64, "value": 127}, "group": "control_change"}, {"time": 1077, "annotation": {"number": 64, "value": 0}, "group": "control_change"}, {"time": 1085, "annotation": {"number": 64, "value": 127}, "group": "control_change"}, {"time": 1101, "annotation": {"number": 64, "value": 0}, "group": "control_change"}, {"time": 1107, "annotation": {"number": 64, "value": 127}, "group": "control_change"}, {"time": 1148, "annotation": {"number": 64, "value": 0}, "group": "control_change"}, {"time": 1155, "annotation": {"number": 64, "value": 127}, "group": "control_change"}, {"time": 1174, "annotation": {"number": 64, "value": 0}, "group": "control_change"}, {"time": 1182, "annotation": {"number": 64, "value": 127}, "group": "control_change"}, {"time": 1197, "annotation": {"number": 64, "value": 0}, "group": "control_change"}, {"time": 1203, "annotation": {"number": 64, "value": 127}, "group": "control_change"}, {"time": 1226, "annotation": {"number": 64, "value": 0}, "group": "control_change"}, {"time": 1231, "annotation": {"number": 64, "value": 127}, "group": "control_change"}, {"time": 1247, "annotation": {"number": 64, "value": 0}, "group": "control_change"}, {"time": 1253, "annotation": {"number": 64, "value": 127}, "group": "control_change"}, {"time": 1268, "annotation": {"number": 64, "value": 0}, "group": "control_change"}, {"time": 1275, "annotation": {"number": 64, "value": 127}, "group": "control_change"}, {"time": 1292, "annotation": {"number": 64, "value": 0}, "group": "control_change"}, {"time": 1299, "annotation": {"number": 64, "value": 127}, "group": "control_change"}, {"time": 1342, "annotation": {"number": 64, "value": 0}, "group": "control_change"}, {"time": 1349, "annotation": {"number": 64, "value": 127}, "group": "control_change"}, {"time": 1390, "annotation": {"number": 64, "value": 0}, "group": "control_change"}, {"time": 1395, "annotation": {"number": 64, "value": 127}, "group": "control_change"}, {"time": 1396, "annotation": {"number": 64, "value": 0}, "group": "control_change"}, {"time": 1396, "annotation": {"number": 64, "value": 127}, "group": "control_change"}, {"time": 1414, "annotation": {"number": 64, "value": 0}, "group": "control_change"}, {"time": 1422, "annotation": {"number": 64, "value": 127}, "group": "control_change"}, {"time": 1422, "annotation": {"number": 64, "value": 0}, "group": "control_change"}, {"time": 1435, "annotation": {"number": 64, "value": 0}, "group": "control_change"}, {"time": 1442, "annotation": {"number": 64, "value": 127}, "group": "control_change"}, {"time": 1462, "annotation": {"number": 64, "value": 0}, "group": "control_change"}, {"time": 1468, "annotation": {"number": 64, "value": 127}, "group": "control_change"}, {"time": 1485, "annotation": {"number": 64, "value": 0}, "group": "control_change"}, {"time": 1493, "annotation": {"number": 64, "value": 127}, "group": "control_change"}, {"time": 1509, "annotation": {"number": 64, "value": 0}, "group": "control_change"}, {"time": 1517, "annotation": {"number": 64, "value": 127}, "group": "control_change"}, {"time": 1533, "annotation": {"number": 64, "value": 0}, "group": "control_change"}, {"time": 1539, "annotation": {"number": 64, "value": 127}, "group": "control_change"}, {"time": 1580, "annotation": {"number": 64, "value": 0}, "group": "control_change"}, {"time": 1587, "annotation": {"number": 64, "value": 127}, "group": "control_change"}, {"time": 1606, "annotation": {"number": 64, "value": 0}, "group": "control_change"}, {"time": 1614, "annotation": {"number": 64, "value": 127}, "group": "control_change"}, {"time": 1629, "annotation": {"number": 64, "value": 0}, "group": "control_change"}, {"time": 1635, "annotation": {"number": 64, "value": 127}, "group": "control_change"}, {"time": 1658, "annotation": {"number": 64, "value": 0}, "group": "control_change"}, {"time": 1663, "annotation": {"number": 64, "value": 127}, "group": "control_change"}, {"time": 1679, "annotation": {"number": 64, "value": 0}, "group": "control_change"}, {"time": 1685, "annotation": {"number": 64, "value": 127}, "group": "control_change"}, {"time": 1700, "annotation": {"number": 64, "value": 0}, "group": "control_change"}, {"time": 1707, "annotation": {"number": 64, "value": 127}, "group": "control_change"}, {"time": 1724, "annotation": {"number": 64, "value": 0}, "group": "control_change"}, {"time": 1736, "annotation": {"number": 64, "value": 127}, "group": "control_change"}, {"time": 1749, "annotation": {"number": 64, "value": 0}, "group": "control_change"}, {"time": 1756, "annotation": {"number": 64, "value": 127}, "group": "control_change"}, {"time": 1774, "annotation": {"number": 64, "value": 0}, "group": "control_change"}, {"time": 1781, "annotation": {"number": 64, "value": 127}, "group": "control_change"}, {"time": 1824, "annotation": {"number": 64, "value": 0}, "group": "control_change"}, {"time": 1827, "annotation": {"number": 64, "value": 127}, "group": "control_change"}, {"time": 1869, "annotation": {"number": 64, "value": 0}, "group": "control_change"}, {"time": 1874, "annotation": {"number": 64, "value": 127}, "group": "control_change"}, {"time": 1894, "annotation": {"number": 64, "value": 0}, "group": "control_change"}, {"time": 1897, "annotation": {"number": 64, "value": 127}, "group": "control_change"}, {"time": 1918, "annotation": {"number": 64, "value": 0}, "group": "control_change"}, {"time": 1921, "annotation": {"number": 64, "value": 127}, "group": "control_change"}, {"time": 1966, "annotation": {"number": 64, "value": 0}, "group": "control_change"}, {"time": 1969, "annotation": {"number": 64, "value": 127}, "group": "control_change"}, {"time": 1990, "annotation": {"number": 64, "value": 0}, "group": "control_change"}, {"time": 1994, "annotation": {"number": 64, "value": 127}, "group": "control_change"}, {"time": 2013, "annotation": {"number": 64, "value": 0}, "group": "control_change"}, {"time": 2016, "annotation": {"number": 64, "value": 127}, "group": "control_change"}, {"time": 2038, "annotation": {"number": 64, "value": 0}, "group": "control_change"}, {"time": 2039, "annotation": {"number": 64, "value": 127}, "group": "control_change"}, {"time": 2064, "annotation": {"number": 64, "value": 0}, "group": "control_change"}, {"time": 2067, "annotation": {"number": 64, "value": 127}, "group": "control_change"}, {"time": 2085, "annotation": {"number": 64, "value": 0}, "group": "control_change"}, {"time": 2089, "annotation": {"number": 64, "value": 127}, "group": "control_change"}, {"time": 2110, "annotation": {"number": 64, "value": 0}, "group": "control_change"}, {"time": 2112, "annotation": {"number": 64, "value": 127}, "group": "control_change"}, {"time": 2158, "annotation": {"number": 64, "value": 0}, "group": "control_change"}, {"time": 2161, "annotation": {"number": 64, "value": 127}, "group": "control_change"}, {"time": 2181, "annotation": {"number": 64, "value": 0}, "group": "control_change"}, {"time": 2187, "annotation": {"number": 64, "value": 127}, "group": "control_change"}, {"time": 2205, "annotation": {"number": 64, "value": 0}, "group": "control_change"}, {"time": 2209, "annotation": {"number": 64, "value": 127}, "group": "control_change"}, {"time": 2254, "annotation": {"number": 64, "value": 0}, "group": "control_change"}, {"time": 2256, "annotation": {"number": 64, "value": 127}, "group": "control_change"}, {"time": 2299, "annotation": {"number": 64, "value": 0}, "group": "control_change"}, {"time": 2307, "annotation": {"number": 64, "value": 127}, "group": "control_change"}, {"time": 2308, "annotation": {"number": 64, "value": 0}, "group": "control_change"}, {"time": 2308, "annotation": {"number": 64, "value": 127}, "group": "control_change"}, {"time": 2326, "annotation": {"number": 64, "value": 0}, "group": "control_change"}, {"time": 2334, "annotation": {"number": 64, "value": 127}, "group": "control_change"}, {"time": 2334, "annotation": {"number": 64, "value": 0}, "group": "control_change"}, {"time": 2347, "annotation": {"number": 64, "value": 0}, "group": "control_change"}, {"time": 2354, "annotation": {"number": 64, "value": 127}, "group": "control_change"}, {"time": 2374, "annotation": {"number": 64, "value": 0}, "group": "control_change"}, {"time": 2380, "annotation": {"number": 64, "value": 127}, "group": "control_change"}, {"time": 2397, "annotation": {"number": 64, "value": 0}, "group": "control_change"}, {"time": 2405, "annotation": {"number": 64, "value": 127}, "group": "control_change"}, {"time": 2421, "annotation": {"number": 64, "value": 0}, "group": "control_change"}, {"time": 2429, "annotation": {"number": 64, "value": 127}, "group": "control_change"}, {"time": 2445, "annotation": {"number": 64, "value": 0}, "group": "control_change"}, {"time": 2451, "annotation": {"number": 64, "value": 127}, "group": "control_change"}, {"time": 2492, "annotation": {"number": 64, "value": 0}, "group": "control_change"}, {"time": 2499, "annotation": {"number": 64, "value": 127}, "group": "control_change"}, {"time": 2518, "annotation": {"number": 64, "value": 0}, "group": "control_change"}, {"time": 2526, "annotation": {"number": 64, "value": 127}, "group": "control_change"}, {"time": 2541, "annotation": {"number": 64, "value": 0}, "group": "control_change"}, {"time": 2547, "annotation": {"number": 64, "value": 127}, "group": "control_change"}, {"time": 2570, "annotation": {"number": 64, "value": 0}, "group": "control_change"}, {"time": 2575, "annotation": {"number": 64, "value": 127}, "group": "control_change"}, {"time": 2591, "annotation": {"number": 64, "value": 0}, "group": "control_change"}, {"time": 2597, "annotation": {"number": 64, "value": 127}, "group": "control_change"}, {"time": 2612, "annotation": {"number": 64, "value": 0}, "group": "control_change"}, {"time": 2619, "annotation": {"number": 64, "value": 127}, "group": "control_change"}, {"time": 2636, "annotation": {"number": 64, "value": 0}, "group": "control_change"}, {"time": 2648, "annotation": {"number": 64, "value": 127}, "group": "control_change"}, {"time": 2661, "annotation": {"number": 64, "value": 0}, "group": "control_change"}, {"time": 2668, "annotation": {"number": 64, "value": 127}, "group": "control_change"}, {"time": 2686, "annotation": {"number": 64, "value": 0}, "group": "control_change"}, {"time": 2693, "annotation": {"number": 64, "value": 127}, "group": "control_change"}, {"time": 2736, "annotation": {"number": 64, "value": 0}, "group": "control_change"}, {"time": 2739, "annotation": {"number": 64, "value": 127}, "group": "control_change"}, {"time": 2781, "annotation": {"number": 64, "value": 0}, "group": "control_change"}, {"time": 2786, "annotation": {"number": 64, "value": 127}, "group": "control_change"}, {"time": 2806, "annotation": {"number": 64, "value": 0}, "group": "control_change"}, {"time": 2809, "annotation": {"number": 64, "value": 127}, "group": "control_change"}, {"time": 2830, "annotation": {"number": 64, "value": 0}, "group": "control_change"}, {"time": 2833, "annotation": {"number": 64, "value": 127}, "group": "control_change"}, {"time": 2878, "annotation": {"number": 64, "value": 0}, "group": "control_change"}, {"time": 2881, "annotation": {"number": 64, "value": 127}, "group": "control_change"}, {"time": 2902, "annotation": {"number": 64, "value": 0}, "group": "control_change"}, {"time": 2906, "annotation": {"number": 64, "value": 127}, "group": "control_change"}, {"time": 2925, "annotation": {"number": 64, "value": 0}, "group": "control_change"}, {"time": 2928, "annotation": {"number": 64, "value": 127}, "group": "control_change"}, {"time": 2950, "annotation": {"number": 64, "value": 0}, "group": "control_change"}, {"time": 2951, "annotation": {"number": 64, "value": 127}, "group": "control_change"}, {"time": 2976, "annotation": {"number": 64, "value": 0}, "group": "control_change"}, {"time": 2979, "annotation": {"number": 64, "value": 127}, "group": "control_change"}, {"time": 2997, "annotation": {"number": 64, "value": 0}, "group": "control_change"}, {"time": 3001, "annotation": {"number": 64, "value": 127}, "group": "control_change"}, {"time": 3022, "annotation": {"number": 64, "value": 0}, "group": "control_change"}, {"time": 3024, "annotation": {"number": 64, "value": 127}, "group": "control_change"}, {"time": 3070, "annotation": {"number": 64, "value": 0}, "group": "control_change"}, {"time": 3073, "annotation": {"number": 64, "value": 127}, "group": "control_change"}, {"time": 3093, "annotation": {"number": 64, "value": 0}, "group": "control_change"}, {"time": 3099, "annotation": {"number": 64, "value": 127}, "group": "control_change"}, {"time": 3117, "annotation": {"number": 64, "value": 0}, "group": "control_change"}, {"time": 3121, "annotation": {"number": 64, "value": 127}, "group": "control_change"}, {"time": 3166, "annotation": {"number": 64, "value": 0}, "group": "control_change"}, {"time": 3168, "annotation": {"number": 64, "value": 0}, "group": "control_change"}, {"time": 3171, "annotation": {"number": 64, "value": 127}, "group": "control_change"}, {"time": 3189, "annotation": {"number": 64, "value": 0}, "group": "control_change"}, {"time": 3193, "annotation": {"number": 64, "value": 127}, "group": "control_change"}, {"time": 3214, "annotation": {"number": 64, "value": 0}, "group": "control_change"}, {"time": 3216, "annotation": {"number": 64, "value": 127}, "group": "control_change"}, {"time": 3262, "annotation": {"number": 64, "value": 0}, "group": "control_change"}, {"time": 3265, "annotation": {"number": 64, "value": 127}, "group": "control_change"}, {"time": 3285, "annotation": {"number": 64, "value": 0}, "group": "control_change"}, {"time": 3291, "annotation": {"number": 64, "value": 127}, "group": "control_change"}, {"time": 3309, "annotation": {"number": 64, "value": 0}, "group": "control_change"}, {"time": 3313, "annotation": {"number": 64, "value": 127}, "group": "control_change"}, {"time": 3358, "annotation": {"number": 64, "value": 0}, "group": "control_change"}, {"time": 3392, "annotation": {"number": 64, "value": 127}, "group": "control_change"}, {"time": 3420, "annotation": {"number": 64, "value": 0}, "group": "control_change"}, {"time": 3425, "annotation": {"number": 64, "value": 127}, "group": "control_change"}]}]}