{"metadata": {"schema_version": "0.2", "title": "None", "source_filename": "507.mid", "source_format": "midi"}, "resolution": 12, "tempos": [{"time": 0, "qpm": 68.00014960032912}], "time_signatures": [{"time": 0, "numerator": 1, "denominator": 4}], "tracks": [{"program": 4, "is_drum": false, "name": "MELODY", "notes": [{"time": 393, "pitch": 65, "duration": 2, "velocity": 91}, {"time": 396, "pitch": 65, "duration": 3, "velocity": 88}, {"time": 399, "pitch": 74, "duration": 5, "velocity": 95}, {"time": 405, "pitch": 74, "duration": 10, "velocity": 97}, {"time": 417, "pitch": 74, "duration": 4, "velocity": 92}, {"time": 423, "pitch": 74, "duration": 5, "velocity": 92}, {"time": 429, "pitch": 77, "duration": 5, "velocity": 80}, {"time": 435, "pitch": 72, "duration": 5, "velocity": 91}, {"time": 441, "pitch": 69, "duration": 5, "velocity": 90}, {"time": 447, "pitch": 70, "duration": 24, "velocity": 87}, {"time": 489, "pitch": 67, "duration": 2, "velocity": 91}, {"time": 492, "pitch": 67, "duration": 3, "velocity": 91}, {"time": 495, "pitch": 75, "duration": 5, "velocity": 89}, {"time": 501, "pitch": 75, "duration": 9, "velocity": 93}, {"time": 513, "pitch": 79, "duration": 4, "velocity": 88}, {"time": 519, "pitch": 79, "duration": 5, "velocity": 91}, {"time": 525, "pitch": 77, "duration": 4, "velocity": 92}, {"time": 531, "pitch": 72, "duration": 6, "velocity": 91}, {"time": 537, "pitch": 77, "duration": 5, "velocity": 74}, {"time": 543, "pitch": 74, "duration": 24, "velocity": 98}, {"time": 585, "pitch": 74, "duration": 2, "velocity": 96}, {"time": 588, "pitch": 74, "duration": 2, "velocity": 95}, {"time": 591, "pitch": 79, "duration": 4, "velocity": 92}, {"time": 597, "pitch": 79, "duration": 10, "velocity": 91}, {"time": 609, "pitch": 77, "duration": 5, "velocity": 90}, {"time": 615, "pitch": 79, "duration": 11, "velocity": 90}, {"time": 627, "pitch": 77, "duration": 5, "velocity": 80}, {"time": 633, "pitch": 74, "duration": 4, "velocity": 93}, {"time": 639, "pitch": 77, "duration": 4, "velocity": 89}, {"time": 645, "pitch": 75, "duration": 5, "velocity": 92}, {"time": 651, "pitch": 75, "duration": 4, "velocity": 93}, {"time": 657, "pitch": 74, "duration": 4, "velocity": 93}, {"time": 663, "pitch": 67, "duration": 13, "velocity": 82}, {"time": 681, "pitch": 67, "duration": 2, "velocity": 91}, {"time": 684, "pitch": 67, "duration": 3, "velocity": 83}, {"time": 687, "pitch": 75, "duration": 4, "velocity": 91}, {"time": 693, "pitch": 75, "duration": 9, "velocity": 92}, {"time": 705, "pitch": 67, "duration": 4, "velocity": 92}, {"time": 711, "pitch": 74, "duration": 5, "velocity": 95}, {"time": 717, "pitch": 72, "duration": 4, "velocity": 92}, {"time": 723, "pitch": 72, "duration": 5, "velocity": 92}, {"time": 729, "pitch": 69, "duration": 2, "velocity": 92}, {"time": 732, "pitch": 70, "duration": 25, "velocity": 91}, {"time": 777, "pitch": 65, "duration": 2, "velocity": 91}, {"time": 780, "pitch": 65, "duration": 3, "velocity": 88}, {"time": 783, "pitch": 74, "duration": 5, "velocity": 95}, {"time": 789, "pitch": 74, "duration": 10, "velocity": 97}, {"time": 801, "pitch": 74, "duration": 4, "velocity": 92}, {"time": 807, "pitch": 74, "duration": 5, "velocity": 92}, {"time": 813, "pitch": 72, "duration": 5, "velocity": 80}, {"time": 819, "pitch": 70, "duration": 5, "velocity": 91}, {"time": 825, "pitch": 69, "duration": 5, "velocity": 90}, {"time": 831, "pitch": 70, "duration": 24, "velocity": 87}, {"time": 873, "pitch": 67, "duration": 2, "velocity": 91}, {"time": 876, "pitch": 67, "duration": 3, "velocity": 91}, {"time": 879, "pitch": 75, "duration": 5, "velocity": 89}, {"time": 885, "pitch": 75, "duration": 9, "velocity": 93}, {"time": 897, "pitch": 79, "duration": 4, "velocity": 88}, {"time": 903, "pitch": 77, "duration": 5, "velocity": 91}, {"time": 915, "pitch": 72, "duration": 3, "velocity": 91}, {"time": 918, "pitch": 72, "duration": 3, "velocity": 91}, {"time": 921, "pitch": 77, "duration": 5, "velocity": 74}, {"time": 927, "pitch": 74, "duration": 24, "velocity": 98}, {"time": 969, "pitch": 74, "duration": 2, "velocity": 96}, {"time": 972, "pitch": 74, "duration": 2, "velocity": 95}, {"time": 975, "pitch": 79, "duration": 4, "velocity": 92}, {"time": 981, "pitch": 79, "duration": 10, "velocity": 91}, {"time": 993, "pitch": 77, "duration": 5, "velocity": 90}, {"time": 999, "pitch": 79, "duration": 11, "velocity": 90}, {"time": 1011, "pitch": 77, "duration": 5, "velocity": 80}, {"time": 1017, "pitch": 74, "duration": 4, "velocity": 93}, {"time": 1023, "pitch": 77, "duration": 4, "velocity": 89}, {"time": 1029, "pitch": 75, "duration": 5, "velocity": 92}, {"time": 1035, "pitch": 75, "duration": 4, "velocity": 93}, {"time": 1041, "pitch": 74, "duration": 4, "velocity": 93}, {"time": 1047, "pitch": 67, "duration": 13, "velocity": 82}, {"time": 1065, "pitch": 67, "duration": 2, "velocity": 91}, {"time": 1068, "pitch": 67, "duration": 3, "velocity": 83}, {"time": 1071, "pitch": 75, "duration": 12, "velocity": 91}, {"time": 1089, "pitch": 67, "duration": 4, "velocity": 92}, {"time": 1095, "pitch": 74, "duration": 5, "velocity": 95}, {"time": 1107, "pitch": 72, "duration": 5, "velocity": 87}, {"time": 1113, "pitch": 65, "duration": 2, "velocity": 93}, {"time": 1116, "pitch": 65, "duration": 2, "velocity": 82}, {"time": 1119, "pitch": 72, "duration": 5, "velocity": 91}, {"time": 1125, "pitch": 70, "duration": 27, "velocity": 93}, {"time": 1155, "pitch": 75, "duration": 5, "velocity": 93}, {"time": 1161, "pitch": 77, "duration": 4, "velocity": 91}, {"time": 1167, "pitch": 79, "duration": 4, "velocity": 92}, {"time": 1173, "pitch": 79, "duration": 4, "velocity": 92}, {"time": 1179, "pitch": 79, "duration": 4, "velocity": 93}, {"time": 1185, "pitch": 75, "duration": 2, "velocity": 97}, {"time": 1188, "pitch": 74, "duration": 2, "velocity": 93}, {"time": 1191, "pitch": 72, "duration": 12, "velocity": 95}, {"time": 1209, "pitch": 79, "duration": 5, "velocity": 87}, {"time": 1215, "pitch": 77, "duration": 5, "velocity": 92}, {"time": 1221, "pitch": 77, "duration": 2, "velocity": 85}, {"time": 1224, "pitch": 77, "duration": 2, "velocity": 83}, {"time": 1227, "pitch": 77, "duration": 5, "velocity": 92}, {"time": 1233, "pitch": 74, "duration": 2, "velocity": 91}, {"time": 1236, "pitch": 72, "duration": 2, "velocity": 87}, {"time": 1239, "pitch": 70, "duration": 11, "velocity": 84}, {"time": 1257, "pitch": 72, "duration": 2, "velocity": 96}, {"time": 1260, "pitch": 74, "duration": 2, "velocity": 96}, {"time": 1263, "pitch": 75, "duration": 4, "velocity": 93}, {"time": 1269, "pitch": 75, "duration": 2, "velocity": 87}, {"time": 1272, "pitch": 75, "duration": 2, "velocity": 87}, {"time": 1275, "pitch": 75, "duration": 5, "velocity": 96}, {"time": 1281, "pitch": 74, "duration": 4, "velocity": 97}, {"time": 1287, "pitch": 72, "duration": 7, "velocity": 90}, {"time": 1293, "pitch": 70, "duration": 9, "velocity": 91}, {"time": 1305, "pitch": 70, "duration": 3, "velocity": 94}, {"time": 1308, "pitch": 72, "duration": 2, "velocity": 92}, {"time": 1312, "pitch": 74, "duration": 2, "velocity": 94}, {"time": 1316, "pitch": 74, "duration": 2, "velocity": 95}, {"time": 1319, "pitch": 74, "duration": 2, "velocity": 92}, {"time": 1323, "pitch": 74, "duration": 3, "velocity": 96}, {"time": 1327, "pitch": 74, "duration": 3, "velocity": 93}, {"time": 1331, "pitch": 75, "duration": 3, "velocity": 92}, {"time": 1335, "pitch": 77, "duration": 13, "velocity": 92}, {"time": 1353, "pitch": 75, "duration": 2, "velocity": 92}, {"time": 1356, "pitch": 77, "duration": 2, "velocity": 92}, {"time": 1359, "pitch": 79, "duration": 4, "velocity": 86}, {"time": 1365, "pitch": 79, "duration": 5, "velocity": 92}, {"time": 1371, "pitch": 79, "duration": 4, "velocity": 91}, {"time": 1377, "pitch": 75, "duration": 3, "velocity": 95}, {"time": 1380, "pitch": 74, "duration": 2, "velocity": 87}, {"time": 1383, "pitch": 72, "duration": 12, "velocity": 91}, {"time": 1401, "pitch": 79, "duration": 6, "velocity": 91}, {"time": 1407, "pitch": 77, "duration": 4, "velocity": 93}, {"time": 1413, "pitch": 77, "duration": 4, "velocity": 93}, {"time": 1419, "pitch": 77, "duration": 3, "velocity": 95}, {"time": 1424, "pitch": 74, "duration": 2, "velocity": 98}, {"time": 1428, "pitch": 77, "duration": 2, "velocity": 93}, {"time": 1432, "pitch": 79, "duration": 14, "velocity": 93}, {"time": 1449, "pitch": 77, "duration": 4, "velocity": 90}, {"time": 1455, "pitch": 75, "duration": 5, "velocity": 92}, {"time": 1461, "pitch": 74, "duration": 4, "velocity": 92}, {"time": 1467, "pitch": 75, "duration": 4, "velocity": 87}, {"time": 1473, "pitch": 70, "duration": 5, "velocity": 91}, {"time": 1479, "pitch": 74, "duration": 10, "velocity": 93}, {"time": 1491, "pitch": 72, "duration": 5, "velocity": 95}, {"time": 1497, "pitch": 69, "duration": 5, "velocity": 88}, {"time": 1503, "pitch": 70, "duration": 38, "velocity": 93}, {"time": 1929, "pitch": 65, "duration": 2, "velocity": 91}, {"time": 1932, "pitch": 65, "duration": 3, "velocity": 88}, {"time": 1935, "pitch": 74, "duration": 5, "velocity": 95}, {"time": 1941, "pitch": 74, "duration": 10, "velocity": 97}, {"time": 1953, "pitch": 74, "duration": 4, "velocity": 92}, {"time": 1959, "pitch": 74, "duration": 5, "velocity": 92}, {"time": 1965, "pitch": 77, "duration": 5, "velocity": 80}, {"time": 1971, "pitch": 72, "duration": 5, "velocity": 91}, {"time": 1977, "pitch": 69, "duration": 5, "velocity": 90}, {"time": 1983, "pitch": 70, "duration": 24, "velocity": 87}, {"time": 2025, "pitch": 67, "duration": 2, "velocity": 91}, {"time": 2028, "pitch": 67, "duration": 3, "velocity": 91}, {"time": 2031, "pitch": 75, "duration": 5, "velocity": 89}, {"time": 2037, "pitch": 75, "duration": 9, "velocity": 93}, {"time": 2049, "pitch": 79, "duration": 4, "velocity": 88}, {"time": 2055, "pitch": 79, "duration": 5, "velocity": 91}, {"time": 2061, "pitch": 77, "duration": 4, "velocity": 92}, {"time": 2067, "pitch": 72, "duration": 6, "velocity": 91}, {"time": 2073, "pitch": 77, "duration": 5, "velocity": 74}, {"time": 2079, "pitch": 74, "duration": 24, "velocity": 98}, {"time": 2121, "pitch": 74, "duration": 2, "velocity": 96}, {"time": 2124, "pitch": 74, "duration": 2, "velocity": 95}, {"time": 2127, "pitch": 79, "duration": 4, "velocity": 92}, {"time": 2133, "pitch": 79, "duration": 10, "velocity": 91}, {"time": 2145, "pitch": 77, "duration": 5, "velocity": 90}, {"time": 2151, "pitch": 79, "duration": 11, "velocity": 90}, {"time": 2163, "pitch": 77, "duration": 5, "velocity": 80}, {"time": 2169, "pitch": 74, "duration": 4, "velocity": 93}, {"time": 2175, "pitch": 77, "duration": 4, "velocity": 89}, {"time": 2181, "pitch": 75, "duration": 5, "velocity": 92}, {"time": 2187, "pitch": 75, "duration": 4, "velocity": 93}, {"time": 2193, "pitch": 74, "duration": 4, "velocity": 93}, {"time": 2199, "pitch": 67, "duration": 13, "velocity": 82}, {"time": 2217, "pitch": 67, "duration": 2, "velocity": 91}, {"time": 2220, "pitch": 67, "duration": 3, "velocity": 83}, {"time": 2223, "pitch": 75, "duration": 4, "velocity": 91}, {"time": 2229, "pitch": 75, "duration": 9, "velocity": 92}, {"time": 2241, "pitch": 67, "duration": 4, "velocity": 92}, {"time": 2247, "pitch": 74, "duration": 5, "velocity": 95}, {"time": 2253, "pitch": 72, "duration": 4, "velocity": 92}, {"time": 2259, "pitch": 72, "duration": 5, "velocity": 92}, {"time": 2265, "pitch": 69, "duration": 2, "velocity": 92}, {"time": 2268, "pitch": 70, "duration": 25, "velocity": 91}, {"time": 2313, "pitch": 65, "duration": 2, "velocity": 91}, {"time": 2316, "pitch": 65, "duration": 3, "velocity": 88}, {"time": 2319, "pitch": 74, "duration": 5, "velocity": 95}, {"time": 2325, "pitch": 74, "duration": 10, "velocity": 97}, {"time": 2337, "pitch": 74, "duration": 4, "velocity": 92}, {"time": 2343, "pitch": 74, "duration": 5, "velocity": 92}, {"time": 2349, "pitch": 72, "duration": 5, "velocity": 80}, {"time": 2355, "pitch": 70, "duration": 5, "velocity": 91}, {"time": 2361, "pitch": 69, "duration": 5, "velocity": 90}, {"time": 2367, "pitch": 70, "duration": 24, "velocity": 87}, {"time": 2409, "pitch": 67, "duration": 2, "velocity": 91}, {"time": 2412, "pitch": 67, "duration": 3, "velocity": 91}, {"time": 2415, "pitch": 75, "duration": 5, "velocity": 89}, {"time": 2421, "pitch": 75, "duration": 9, "velocity": 93}, {"time": 2433, "pitch": 79, "duration": 4, "velocity": 88}, {"time": 2439, "pitch": 77, "duration": 5, "velocity": 91}, {"time": 2451, "pitch": 72, "duration": 3, "velocity": 91}, {"time": 2454, "pitch": 72, "duration": 3, "velocity": 91}, {"time": 2457, "pitch": 77, "duration": 5, "velocity": 74}, {"time": 2463, "pitch": 74, "duration": 24, "velocity": 98}, {"time": 2505, "pitch": 74, "duration": 2, "velocity": 96}, {"time": 2508, "pitch": 74, "duration": 2, "velocity": 95}, {"time": 2511, "pitch": 79, "duration": 4, "velocity": 92}, {"time": 2517, "pitch": 79, "duration": 10, "velocity": 91}, {"time": 2529, "pitch": 77, "duration": 5, "velocity": 90}, {"time": 2535, "pitch": 79, "duration": 11, "velocity": 90}, {"time": 2547, "pitch": 77, "duration": 5, "velocity": 80}, {"time": 2553, "pitch": 74, "duration": 4, "velocity": 93}, {"time": 2559, "pitch": 77, "duration": 4, "velocity": 89}, {"time": 2565, "pitch": 75, "duration": 5, "velocity": 92}, {"time": 2571, "pitch": 75, "duration": 4, "velocity": 93}, {"time": 2577, "pitch": 74, "duration": 4, "velocity": 93}, {"time": 2583, "pitch": 67, "duration": 13, "velocity": 82}, {"time": 2601, "pitch": 67, "duration": 2, "velocity": 91}, {"time": 2604, "pitch": 67, "duration": 3, "velocity": 83}, {"time": 2607, "pitch": 75, "duration": 12, "velocity": 91}, {"time": 2625, "pitch": 67, "duration": 4, "velocity": 92}, {"time": 2631, "pitch": 74, "duration": 5, "velocity": 95}, {"time": 2643, "pitch": 72, "duration": 5, "velocity": 87}, {"time": 2649, "pitch": 65, "duration": 2, "velocity": 93}, {"time": 2652, "pitch": 65, "duration": 2, "velocity": 82}, {"time": 2655, "pitch": 72, "duration": 5, "velocity": 91}, {"time": 2661, "pitch": 70, "duration": 27, "velocity": 93}, {"time": 2691, "pitch": 75, "duration": 5, "velocity": 93}, {"time": 2697, "pitch": 77, "duration": 4, "velocity": 91}, {"time": 2703, "pitch": 79, "duration": 4, "velocity": 92}, {"time": 2709, "pitch": 79, "duration": 4, "velocity": 92}, {"time": 2715, "pitch": 79, "duration": 4, "velocity": 93}, {"time": 2721, "pitch": 75, "duration": 2, "velocity": 97}, {"time": 2724, "pitch": 74, "duration": 2, "velocity": 93}, {"time": 2733, "pitch": 72, "duration": 6, "velocity": 95}, {"time": 2745, "pitch": 79, "duration": 5, "velocity": 87}, {"time": 2751, "pitch": 77, "duration": 5, "velocity": 92}, {"time": 2757, "pitch": 77, "duration": 2, "velocity": 85}, {"time": 2760, "pitch": 77, "duration": 2, "velocity": 83}, {"time": 2763, "pitch": 77, "duration": 5, "velocity": 92}, {"time": 2769, "pitch": 74, "duration": 2, "velocity": 91}, {"time": 2772, "pitch": 72, "duration": 10, "velocity": 87}, {"time": 2781, "pitch": 70, "duration": 5, "velocity": 84}, {"time": 2793, "pitch": 72, "duration": 2, "velocity": 96}, {"time": 2796, "pitch": 74, "duration": 2, "velocity": 96}, {"time": 2799, "pitch": 75, "duration": 4, "velocity": 93}, {"time": 2805, "pitch": 75, "duration": 2, "velocity": 87}, {"time": 2808, "pitch": 75, "duration": 2, "velocity": 87}, {"time": 2811, "pitch": 75, "duration": 5, "velocity": 96}, {"time": 2817, "pitch": 74, "duration": 4, "velocity": 97}, {"time": 2820, "pitch": 72, "duration": 10, "velocity": 90}, {"time": 2829, "pitch": 70, "duration": 9, "velocity": 91}, {"time": 2841, "pitch": 70, "duration": 3, "velocity": 94}, {"time": 2844, "pitch": 72, "duration": 2, "velocity": 92}, {"time": 2848, "pitch": 74, "duration": 2, "velocity": 94}, {"time": 2852, "pitch": 74, "duration": 2, "velocity": 95}, {"time": 2855, "pitch": 74, "duration": 2, "velocity": 92}, {"time": 2859, "pitch": 74, "duration": 3, "velocity": 96}, {"time": 2863, "pitch": 74, "duration": 3, "velocity": 93}, {"time": 2867, "pitch": 75, "duration": 3, "velocity": 92}, {"time": 2871, "pitch": 77, "duration": 13, "velocity": 92}, {"time": 2889, "pitch": 75, "duration": 2, "velocity": 92}, {"time": 2892, "pitch": 77, "duration": 2, "velocity": 92}, {"time": 2895, "pitch": 79, "duration": 4, "velocity": 86}, {"time": 2901, "pitch": 79, "duration": 5, "velocity": 92}, {"time": 2907, "pitch": 79, "duration": 4, "velocity": 91}, {"time": 2913, "pitch": 75, "duration": 3, "velocity": 95}, {"time": 2916, "pitch": 74, "duration": 9, "velocity": 87}, {"time": 2925, "pitch": 72, "duration": 6, "velocity": 91}, {"time": 2937, "pitch": 79, "duration": 6, "velocity": 91}, {"time": 2943, "pitch": 77, "duration": 4, "velocity": 93}, {"time": 2949, "pitch": 77, "duration": 4, "velocity": 93}, {"time": 2955, "pitch": 77, "duration": 3, "velocity": 95}, {"time": 2960, "pitch": 74, "duration": 2, "velocity": 98}, {"time": 2964, "pitch": 77, "duration": 2, "velocity": 93}, {"time": 2968, "pitch": 79, "duration": 14, "velocity": 93}, {"time": 2985, "pitch": 77, "duration": 4, "velocity": 90}, {"time": 2991, "pitch": 75, "duration": 5, "velocity": 92}, {"time": 2997, "pitch": 74, "duration": 4, "velocity": 92}, {"time": 3003, "pitch": 75, "duration": 4, "velocity": 87}, {"time": 3009, "pitch": 70, "duration": 5, "velocity": 91}, {"time": 3015, "pitch": 74, "duration": 10, "velocity": 93}, {"time": 3027, "pitch": 72, "duration": 5, "velocity": 95}, {"time": 3033, "pitch": 69, "duration": 5, "velocity": 88}, {"time": 3039, "pitch": 70, "duration": 30, "velocity": 93}, {"time": 3075, "pitch": 75, "duration": 5, "velocity": 93}, {"time": 3081, "pitch": 77, "duration": 4, "velocity": 91}, {"time": 3087, "pitch": 79, "duration": 4, "velocity": 92}, {"time": 3093, "pitch": 79, "duration": 4, "velocity": 92}, {"time": 3099, "pitch": 79, "duration": 4, "velocity": 93}, {"time": 3105, "pitch": 75, "duration": 2, "velocity": 97}, {"time": 3108, "pitch": 74, "duration": 2, "velocity": 93}, {"time": 3111, "pitch": 72, "duration": 12, "velocity": 95}, {"time": 3129, "pitch": 79, "duration": 5, "velocity": 87}, {"time": 3135, "pitch": 77, "duration": 5, "velocity": 92}, {"time": 3141, "pitch": 77, "duration": 2, "velocity": 85}, {"time": 3144, "pitch": 77, "duration": 2, "velocity": 83}, {"time": 3147, "pitch": 77, "duration": 5, "velocity": 92}, {"time": 3153, "pitch": 74, "duration": 2, "velocity": 91}, {"time": 3156, "pitch": 72, "duration": 2, "velocity": 87}, {"time": 3159, "pitch": 70, "duration": 11, "velocity": 84}, {"time": 3177, "pitch": 72, "duration": 2, "velocity": 96}, {"time": 3180, "pitch": 74, "duration": 2, "velocity": 96}, {"time": 3183, "pitch": 75, "duration": 4, "velocity": 93}, {"time": 3189, "pitch": 75, "duration": 2, "velocity": 87}, {"time": 3192, "pitch": 75, "duration": 2, "velocity": 87}, {"time": 3195, "pitch": 75, "duration": 5, "velocity": 96}, {"time": 3201, "pitch": 74, "duration": 4, "velocity": 97}, {"time": 3207, "pitch": 72, "duration": 7, "velocity": 90}, {"time": 3213, "pitch": 70, "duration": 9, "velocity": 91}, {"time": 3225, "pitch": 70, "duration": 3, "velocity": 94}, {"time": 3228, "pitch": 72, "duration": 2, "velocity": 92}, {"time": 3232, "pitch": 74, "duration": 2, "velocity": 94}, {"time": 3236, "pitch": 74, "duration": 2, "velocity": 95}, {"time": 3239, "pitch": 74, "duration": 2, "velocity": 92}, {"time": 3243, "pitch": 74, "duration": 3, "velocity": 96}, {"time": 3247, "pitch": 74, "duration": 3, "velocity": 93}, {"time": 3251, "pitch": 75, "duration": 3, "velocity": 92}, {"time": 3255, "pitch": 77, "duration": 13, "velocity": 92}, {"time": 3273, "pitch": 75, "duration": 2, "velocity": 92}, {"time": 3276, "pitch": 77, "duration": 2, "velocity": 92}, {"time": 3279, "pitch": 79, "duration": 4, "velocity": 86}, {"time": 3285, "pitch": 79, "duration": 5, "velocity": 92}, {"time": 3291, "pitch": 79, "duration": 4, "velocity": 91}, {"time": 3297, "pitch": 75, "duration": 3, "velocity": 95}, {"time": 3300, "pitch": 74, "duration": 2, "velocity": 87}, {"time": 3303, "pitch": 72, "duration": 12, "velocity": 91}, {"time": 3321, "pitch": 79, "duration": 6, "velocity": 91}, {"time": 3327, "pitch": 77, "duration": 4, "velocity": 93}, {"time": 3333, "pitch": 77, "duration": 4, "velocity": 93}, {"time": 3339, "pitch": 77, "duration": 3, "velocity": 95}, {"time": 3344, "pitch": 74, "duration": 2, "velocity": 98}, {"time": 3348, "pitch": 77, "duration": 2, "velocity": 93}, {"time": 3352, "pitch": 79, "duration": 14, "velocity": 93}, {"time": 3369, "pitch": 77, "duration": 4, "velocity": 90}, {"time": 3375, "pitch": 75, "duration": 5, "velocity": 92}, {"time": 3381, "pitch": 74, "duration": 4, "velocity": 92}, {"time": 3387, "pitch": 75, "duration": 4, "velocity": 87}, {"time": 3393, "pitch": 70, "duration": 5, "velocity": 91}, {"time": 3399, "pitch": 74, "duration": 10, "velocity": 93}, {"time": 3411, "pitch": 72, "duration": 5, "velocity": 95}, {"time": 3417, "pitch": 69, "duration": 5, "velocity": 88}, {"time": 3423, "pitch": 70, "duration": 30, "velocity": 93}, {"time": 3465, "pitch": 77, "duration": 4, "velocity": 90}, {"time": 3471, "pitch": 75, "duration": 5, "velocity": 92}, {"time": 3477, "pitch": 74, "duration": 4, "velocity": 92}, {"time": 3483, "pitch": 75, "duration": 4, "velocity": 87}, {"time": 3489, "pitch": 70, "duration": 5, "velocity": 91}, {"time": 3495, "pitch": 74, "duration": 6, "velocity": 93}, {"time": 3501, "pitch": 72, "duration": 2, "velocity": 87}, {"time": 3504, "pitch": 72, "duration": 26, "velocity": 92}, {"time": 3531, "pitch": 69, "duration": 10, "velocity": 87}, {"time": 3543, "pitch": 70, "duration": 42, "velocity": 91}, {"time": 3585, "pitch": 65, "duration": 2, "velocity": 91}, {"time": 3588, "pitch": 65, "duration": 3, "velocity": 88}, {"time": 3591, "pitch": 74, "duration": 5, "velocity": 95}, {"time": 3597, "pitch": 74, "duration": 10, "velocity": 97}, {"time": 3609, "pitch": 74, "duration": 4, "velocity": 92}, {"time": 3615, "pitch": 74, "duration": 5, "velocity": 92}, {"time": 3621, "pitch": 77, "duration": 5, "velocity": 80}, {"time": 3627, "pitch": 77, "duration": 5, "velocity": 91}, {"time": 3633, "pitch": 69, "duration": 5, "velocity": 90}, {"time": 3639, "pitch": 70, "duration": 24, "velocity": 87}, {"time": 3681, "pitch": 67, "duration": 2, "velocity": 91}, {"time": 3684, "pitch": 67, "duration": 3, "velocity": 91}, {"time": 3687, "pitch": 75, "duration": 5, "velocity": 89}, {"time": 3693, "pitch": 75, "duration": 9, "velocity": 93}, {"time": 3705, "pitch": 79, "duration": 4, "velocity": 88}, {"time": 3711, "pitch": 77, "duration": 5, "velocity": 91}, {"time": 3723, "pitch": 72, "duration": 3, "velocity": 91}, {"time": 3726, "pitch": 72, "duration": 3, "velocity": 91}, {"time": 3729, "pitch": 77, "duration": 5, "velocity": 74}, {"time": 3735, "pitch": 74, "duration": 24, "velocity": 98}, {"time": 3777, "pitch": 74, "duration": 2, "velocity": 96}, {"time": 3780, "pitch": 74, "duration": 2, "velocity": 95}, {"time": 3783, "pitch": 79, "duration": 4, "velocity": 92}, {"time": 3789, "pitch": 79, "duration": 10, "velocity": 91}, {"time": 3801, "pitch": 77, "duration": 5, "velocity": 90}, {"time": 3807, "pitch": 79, "duration": 11, "velocity": 90}, {"time": 3819, "pitch": 77, "duration": 5, "velocity": 80}, {"time": 3825, "pitch": 74, "duration": 4, "velocity": 93}, {"time": 3831, "pitch": 77, "duration": 4, "velocity": 89}, {"time": 3837, "pitch": 75, "duration": 5, "velocity": 92}, {"time": 3843, "pitch": 75, "duration": 4, "velocity": 93}, {"time": 3849, "pitch": 74, "duration": 4, "velocity": 93}, {"time": 3855, "pitch": 67, "duration": 13, "velocity": 82}, {"time": 3873, "pitch": 67, "duration": 2, "velocity": 91}, {"time": 3876, "pitch": 67, "duration": 3, "velocity": 83}, {"time": 3879, "pitch": 75, "duration": 12, "velocity": 91}, {"time": 3891, "pitch": 75, "duration": 5, "velocity": 92}, {"time": 3897, "pitch": 77, "duration": 5, "velocity": 92}, {"time": 3903, "pitch": 74, "duration": 6, "velocity": 95}, {"time": 3908, "pitch": 72, "duration": 13, "velocity": 85}, {"time": 3922, "pitch": 69, "duration": 4, "velocity": 87}, {"time": 3927, "pitch": 70, "duration": 43, "velocity": 91}]}, {"program": 0, "is_drum": false, "name": "PIANO", "notes": [{"time": 15, "pitch": 46, "duration": 18, "velocity": 89}, {"time": 21, "pitch": 53, "duration": 11, "velocity": 52}, {"time": 27, "pitch": 58, "duration": 2, "velocity": 80}, {"time": 27, "pitch": 62, "duration": 13, "velocity": 89}, {"time": 39, "pitch": 41, "duration": 17, "velocity": 81}, {"time": 39, "pitch": 57, "duration": 13, "velocity": 78}, {"time": 39, "pitch": 60, "duration": 14, "velocity": 87}, {"time": 45, "pitch": 48, "duration": 11, "velocity": 74}, {"time": 51, "pitch": 65, "duration": 14, "velocity": 90}, {"time": 57, "pitch": 57, "duration": 7, "velocity": 83}, {"time": 63, "pitch": 43, "duration": 42, "velocity": 81}, {"time": 63, "pitch": 58, "duration": 11, "velocity": 79}, {"time": 69, "pitch": 50, "duration": 35, "velocity": 76}, {"time": 75, "pitch": 58, "duration": 7, "velocity": 74}, {"time": 75, "pitch": 62, "duration": 8, "velocity": 88}, {"time": 81, "pitch": 55, "duration": 19, "velocity": 86}, {"time": 87, "pitch": 58, "duration": 8, "velocity": 85}, {"time": 99, "pitch": 58, "duration": 6, "velocity": 80}, {"time": 99, "pitch": 62, "duration": 5, "velocity": 85}, {"time": 111, "pitch": 39, "duration": 15, "velocity": 83}, {"time": 111, "pitch": 58, "duration": 18, "velocity": 82}, {"time": 117, "pitch": 46, "duration": 10, "velocity": 73}, {"time": 123, "pitch": 63, "duration": 7, "velocity": 95}, {"time": 129, "pitch": 55, "duration": 3, "velocity": 87}, {"time": 135, "pitch": 41, "duration": 21, "velocity": 82}, {"time": 135, "pitch": 53, "duration": 9, "velocity": 79}, {"time": 135, "pitch": 57, "duration": 10, "velocity": 82}, {"time": 141, "pitch": 48, "duration": 15, "velocity": 84}, {"time": 147, "pitch": 53, "duration": 7, "velocity": 91}, {"time": 153, "pitch": 57, "duration": 4, "velocity": 81}, {"time": 159, "pitch": 46, "duration": 39, "velocity": 87}, {"time": 159, "pitch": 58, "duration": 12, "velocity": 79}, {"time": 165, "pitch": 50, "duration": 33, "velocity": 71}, {"time": 171, "pitch": 62, "duration": 6, "velocity": 87}, {"time": 177, "pitch": 58, "duration": 3, "velocity": 70}, {"time": 183, "pitch": 58, "duration": 10, "velocity": 73}, {"time": 183, "pitch": 62, "duration": 10, "velocity": 85}, {"time": 195, "pitch": 58, "duration": 4, "velocity": 80}, {"time": 195, "pitch": 62, "duration": 4, "velocity": 88}, {"time": 195, "pitch": 65, "duration": 6, "velocity": 85}, {"time": 207, "pitch": 39, "duration": 11, "velocity": 90}, {"time": 207, "pitch": 55, "duration": 13, "velocity": 80}, {"time": 207, "pitch": 58, "duration": 11, "velocity": 76}, {"time": 213, "pitch": 46, "duration": 5, "velocity": 76}, {"time": 219, "pitch": 63, "duration": 7, "velocity": 92}, {"time": 225, "pitch": 55, "duration": 3, "velocity": 89}, {"time": 231, "pitch": 41, "duration": 15, "velocity": 89}, {"time": 231, "pitch": 53, "duration": 12, "velocity": 79}, {"time": 231, "pitch": 57, "duration": 9, "velocity": 81}, {"time": 237, "pitch": 48, "duration": 8, "velocity": 79}, {"time": 243, "pitch": 57, "duration": 2, "velocity": 84}, {"time": 243, "pitch": 60, "duration": 3, "velocity": 84}, {"time": 255, "pitch": 50, "duration": 14, "velocity": 84}, {"time": 255, "pitch": 65, "duration": 15, "velocity": 87}, {"time": 261, "pitch": 53, "duration": 8, "velocity": 68}, {"time": 267, "pitch": 57, "duration": 5, "velocity": 91}, {"time": 279, "pitch": 43, "duration": 21, "velocity": 86}, {"time": 279, "pitch": 58, "duration": 17, "velocity": 82}, {"time": 279, "pitch": 62, "duration": 17, "velocity": 87}, {"time": 303, "pitch": 48, "duration": 18, "velocity": 87}, {"time": 303, "pitch": 55, "duration": 6, "velocity": 82}, {"time": 303, "pitch": 63, "duration": 16, "velocity": 84}, {"time": 309, "pitch": 55, "duration": 6, "velocity": 78}, {"time": 315, "pitch": 60, "duration": 8, "velocity": 79}, {"time": 321, "pitch": 55, "duration": 4, "velocity": 58}, {"time": 327, "pitch": 41, "duration": 19, "velocity": 87}, {"time": 327, "pitch": 53, "duration": 11, "velocity": 78}, {"time": 327, "pitch": 57, "duration": 11, "velocity": 80}, {"time": 333, "pitch": 48, "duration": 13, "velocity": 79}, {"time": 339, "pitch": 60, "duration": 6, "velocity": 88}, {"time": 345, "pitch": 53, "duration": 8, "velocity": 85}, {"time": 351, "pitch": 46, "duration": 39, "velocity": 79}, {"time": 351, "pitch": 58, "duration": 20, "velocity": 78}, {"time": 357, "pitch": 50, "duration": 33, "velocity": 52}, {"time": 363, "pitch": 62, "duration": 8, "velocity": 86}, {"time": 369, "pitch": 53, "duration": 8, "velocity": 74}, {"time": 375, "pitch": 58, "duration": 7, "velocity": 79}, {"time": 399, "pitch": 46, "duration": 17, "velocity": 86}, {"time": 399, "pitch": 58, "duration": 18, "velocity": 79}, {"time": 399, "pitch": 62, "duration": 10, "velocity": 91}, {"time": 405, "pitch": 53, "duration": 11, "velocity": 73}, {"time": 411, "pitch": 62, "duration": 6, "velocity": 76}, {"time": 411, "pitch": 65, "duration": 7, "velocity": 88}, {"time": 423, "pitch": 41, "duration": 17, "velocity": 85}, {"time": 423, "pitch": 57, "duration": 12, "velocity": 79}, {"time": 423, "pitch": 60, "duration": 13, "velocity": 81}, {"time": 429, "pitch": 48, "duration": 10, "velocity": 80}, {"time": 435, "pitch": 65, "duration": 9, "velocity": 90}, {"time": 441, "pitch": 57, "duration": 5, "velocity": 87}, {"time": 447, "pitch": 43, "duration": 40, "velocity": 87}, {"time": 447, "pitch": 58, "duration": 13, "velocity": 78}, {"time": 453, "pitch": 50, "duration": 9, "velocity": 77}, {"time": 459, "pitch": 62, "duration": 7, "velocity": 86}, {"time": 465, "pitch": 50, "duration": 22, "velocity": 72}, {"time": 471, "pitch": 67, "duration": 7, "velocity": 88}, {"time": 477, "pitch": 55, "duration": 4, "velocity": 80}, {"time": 483, "pitch": 58, "duration": 5, "velocity": 80}, {"time": 483, "pitch": 62, "duration": 4, "velocity": 90}, {"time": 495, "pitch": 51, "duration": 12, "velocity": 79}, {"time": 495, "pitch": 58, "duration": 7, "velocity": 82}, {"time": 495, "pitch": 63, "duration": 8, "velocity": 84}, {"time": 501, "pitch": 55, "duration": 11, "velocity": 87}, {"time": 507, "pitch": 58, "duration": 7, "velocity": 78}, {"time": 519, "pitch": 41, "duration": 18, "velocity": 85}, {"time": 519, "pitch": 57, "duration": 5, "velocity": 80}, {"time": 519, "pitch": 60, "duration": 18, "velocity": 84}, {"time": 525, "pitch": 48, "duration": 12, "velocity": 76}, {"time": 531, "pitch": 65, "duration": 8, "velocity": 89}, {"time": 537, "pitch": 57, "duration": 4, "velocity": 87}, {"time": 543, "pitch": 46, "duration": 40, "velocity": 81}, {"time": 543, "pitch": 58, "duration": 13, "velocity": 79}, {"time": 549, "pitch": 50, "duration": 34, "velocity": 75}, {"time": 555, "pitch": 53, "duration": 12, "velocity": 87}, {"time": 561, "pitch": 58, "duration": 8, "velocity": 82}, {"time": 567, "pitch": 62, "duration": 10, "velocity": 83}, {"time": 573, "pitch": 53, "duration": 4, "velocity": 70}, {"time": 579, "pitch": 53, "duration": 4, "velocity": 88}, {"time": 579, "pitch": 60, "duration": 5, "velocity": 90}, {"time": 591, "pitch": 39, "duration": 12, "velocity": 79}, {"time": 591, "pitch": 55, "duration": 12, "velocity": 83}, {"time": 591, "pitch": 58, "duration": 13, "velocity": 80}, {"time": 597, "pitch": 46, "duration": 6, "velocity": 75}, {"time": 603, "pitch": 63, "duration": 6, "velocity": 93}, {"time": 615, "pitch": 41, "duration": 17, "velocity": 84}, {"time": 615, "pitch": 57, "duration": 12, "velocity": 81}, {"time": 615, "pitch": 60, "duration": 18, "velocity": 86}, {"time": 621, "pitch": 48, "duration": 11, "velocity": 76}, {"time": 627, "pitch": 65, "duration": 8, "velocity": 91}, {"time": 633, "pitch": 57, "duration": 3, "velocity": 91}, {"time": 639, "pitch": 50, "duration": 15, "velocity": 90}, {"time": 639, "pitch": 57, "duration": 3, "velocity": 83}, {"time": 639, "pitch": 62, "duration": 13, "velocity": 86}, {"time": 645, "pitch": 57, "duration": 7, "velocity": 78}, {"time": 651, "pitch": 65, "duration": 32, "velocity": 90}, {"time": 663, "pitch": 43, "duration": 20, "velocity": 82}, {"time": 663, "pitch": 62, "duration": 18, "velocity": 86}, {"time": 669, "pitch": 50, "duration": 13, "velocity": 85}, {"time": 675, "pitch": 58, "duration": 6, "velocity": 88}, {"time": 687, "pitch": 48, "duration": 14, "velocity": 88}, {"time": 687, "pitch": 63, "duration": 13, "velocity": 90}, {"time": 693, "pitch": 55, "duration": 8, "velocity": 85}, {"time": 699, "pitch": 60, "duration": 7, "velocity": 90}, {"time": 705, "pitch": 55, "duration": 3, "velocity": 92}, {"time": 711, "pitch": 41, "duration": 18, "velocity": 86}, {"time": 711, "pitch": 57, "duration": 3, "velocity": 81}, {"time": 711, "pitch": 60, "duration": 18, "velocity": 85}, {"time": 717, "pitch": 57, "duration": 7, "velocity": 82}, {"time": 723, "pitch": 65, "duration": 7, "velocity": 91}, {"time": 729, "pitch": 57, "duration": 7, "velocity": 81}, {"time": 735, "pitch": 46, "duration": 20, "velocity": 83}, {"time": 735, "pitch": 58, "duration": 13, "velocity": 82}, {"time": 741, "pitch": 53, "duration": 7, "velocity": 74}, {"time": 747, "pitch": 62, "duration": 7, "velocity": 90}, {"time": 753, "pitch": 53, "duration": 4, "velocity": 79}, {"time": 759, "pitch": 46, "duration": 24, "velocity": 86}, {"time": 759, "pitch": 53, "duration": 21, "velocity": 81}, {"time": 759, "pitch": 58, "duration": 24, "velocity": 81}, {"time": 783, "pitch": 46, "duration": 17, "velocity": 86}, {"time": 783, "pitch": 58, "duration": 18, "velocity": 79}, {"time": 783, "pitch": 62, "duration": 10, "velocity": 91}, {"time": 789, "pitch": 53, "duration": 11, "velocity": 73}, {"time": 795, "pitch": 62, "duration": 6, "velocity": 76}, {"time": 795, "pitch": 65, "duration": 7, "velocity": 88}, {"time": 807, "pitch": 41, "duration": 17, "velocity": 85}, {"time": 807, "pitch": 57, "duration": 12, "velocity": 79}, {"time": 807, "pitch": 60, "duration": 13, "velocity": 81}, {"time": 813, "pitch": 48, "duration": 10, "velocity": 80}, {"time": 819, "pitch": 65, "duration": 9, "velocity": 90}, {"time": 825, "pitch": 57, "duration": 5, "velocity": 87}, {"time": 831, "pitch": 43, "duration": 40, "velocity": 87}, {"time": 831, "pitch": 58, "duration": 13, "velocity": 78}, {"time": 837, "pitch": 50, "duration": 9, "velocity": 77}, {"time": 843, "pitch": 62, "duration": 7, "velocity": 86}, {"time": 849, "pitch": 50, "duration": 22, "velocity": 72}, {"time": 855, "pitch": 67, "duration": 7, "velocity": 88}, {"time": 861, "pitch": 55, "duration": 4, "velocity": 80}, {"time": 867, "pitch": 58, "duration": 5, "velocity": 80}, {"time": 867, "pitch": 62, "duration": 4, "velocity": 90}, {"time": 879, "pitch": 51, "duration": 12, "velocity": 79}, {"time": 879, "pitch": 58, "duration": 7, "velocity": 82}, {"time": 879, "pitch": 63, "duration": 8, "velocity": 84}, {"time": 885, "pitch": 55, "duration": 11, "velocity": 87}, {"time": 891, "pitch": 58, "duration": 7, "velocity": 78}, {"time": 903, "pitch": 41, "duration": 18, "velocity": 85}, {"time": 903, "pitch": 57, "duration": 5, "velocity": 80}, {"time": 903, "pitch": 60, "duration": 18, "velocity": 84}, {"time": 909, "pitch": 48, "duration": 12, "velocity": 76}, {"time": 915, "pitch": 65, "duration": 8, "velocity": 89}, {"time": 921, "pitch": 57, "duration": 4, "velocity": 87}, {"time": 927, "pitch": 46, "duration": 40, "velocity": 81}, {"time": 927, "pitch": 58, "duration": 13, "velocity": 79}, {"time": 933, "pitch": 50, "duration": 34, "velocity": 75}, {"time": 939, "pitch": 53, "duration": 12, "velocity": 87}, {"time": 945, "pitch": 58, "duration": 8, "velocity": 82}, {"time": 951, "pitch": 62, "duration": 10, "velocity": 83}, {"time": 957, "pitch": 53, "duration": 4, "velocity": 70}, {"time": 963, "pitch": 53, "duration": 4, "velocity": 88}, {"time": 963, "pitch": 60, "duration": 5, "velocity": 90}, {"time": 975, "pitch": 39, "duration": 12, "velocity": 79}, {"time": 975, "pitch": 55, "duration": 12, "velocity": 83}, {"time": 975, "pitch": 58, "duration": 13, "velocity": 80}, {"time": 981, "pitch": 46, "duration": 6, "velocity": 75}, {"time": 987, "pitch": 63, "duration": 6, "velocity": 93}, {"time": 999, "pitch": 41, "duration": 17, "velocity": 84}, {"time": 999, "pitch": 57, "duration": 12, "velocity": 81}, {"time": 999, "pitch": 60, "duration": 18, "velocity": 86}, {"time": 1005, "pitch": 48, "duration": 11, "velocity": 76}, {"time": 1011, "pitch": 65, "duration": 8, "velocity": 91}, {"time": 1017, "pitch": 57, "duration": 3, "velocity": 91}, {"time": 1023, "pitch": 50, "duration": 15, "velocity": 90}, {"time": 1023, "pitch": 57, "duration": 3, "velocity": 83}, {"time": 1023, "pitch": 62, "duration": 13, "velocity": 86}, {"time": 1029, "pitch": 57, "duration": 7, "velocity": 78}, {"time": 1035, "pitch": 65, "duration": 32, "velocity": 90}, {"time": 1047, "pitch": 43, "duration": 20, "velocity": 82}, {"time": 1047, "pitch": 62, "duration": 18, "velocity": 86}, {"time": 1053, "pitch": 50, "duration": 13, "velocity": 85}, {"time": 1059, "pitch": 58, "duration": 6, "velocity": 88}, {"time": 1071, "pitch": 48, "duration": 14, "velocity": 88}, {"time": 1071, "pitch": 63, "duration": 13, "velocity": 90}, {"time": 1077, "pitch": 55, "duration": 8, "velocity": 85}, {"time": 1083, "pitch": 60, "duration": 7, "velocity": 90}, {"time": 1089, "pitch": 55, "duration": 3, "velocity": 92}, {"time": 1095, "pitch": 41, "duration": 18, "velocity": 86}, {"time": 1095, "pitch": 57, "duration": 3, "velocity": 81}, {"time": 1095, "pitch": 60, "duration": 18, "velocity": 85}, {"time": 1101, "pitch": 57, "duration": 7, "velocity": 82}, {"time": 1107, "pitch": 65, "duration": 7, "velocity": 91}, {"time": 1113, "pitch": 57, "duration": 7, "velocity": 81}, {"time": 1119, "pitch": 46, "duration": 20, "velocity": 83}, {"time": 1119, "pitch": 58, "duration": 13, "velocity": 82}, {"time": 1125, "pitch": 53, "duration": 7, "velocity": 74}, {"time": 1131, "pitch": 62, "duration": 7, "velocity": 90}, {"time": 1137, "pitch": 53, "duration": 4, "velocity": 79}, {"time": 1143, "pitch": 46, "duration": 24, "velocity": 86}, {"time": 1143, "pitch": 53, "duration": 21, "velocity": 81}, {"time": 1143, "pitch": 58, "duration": 24, "velocity": 81}, {"time": 1167, "pitch": 39, "duration": 14, "velocity": 83}, {"time": 1167, "pitch": 63, "duration": 13, "velocity": 91}, {"time": 1173, "pitch": 46, "duration": 8, "velocity": 85}, {"time": 1179, "pitch": 55, "duration": 7, "velocity": 92}, {"time": 1185, "pitch": 58, "duration": 2, "velocity": 93}, {"time": 1191, "pitch": 41, "duration": 17, "velocity": 91}, {"time": 1191, "pitch": 53, "duration": 13, "velocity": 88}, {"time": 1191, "pitch": 57, "duration": 14, "velocity": 91}, {"time": 1197, "pitch": 48, "duration": 11, "velocity": 83}, {"time": 1203, "pitch": 60, "duration": 5, "velocity": 88}, {"time": 1215, "pitch": 46, "duration": 14, "velocity": 90}, {"time": 1215, "pitch": 58, "duration": 7, "velocity": 73}, {"time": 1215, "pitch": 62, "duration": 8, "velocity": 87}, {"time": 1221, "pitch": 53, "duration": 7, "velocity": 84}, {"time": 1227, "pitch": 58, "duration": 4, "velocity": 89}, {"time": 1233, "pitch": 57, "duration": 5, "velocity": 84}, {"time": 1239, "pitch": 43, "duration": 17, "velocity": 91}, {"time": 1239, "pitch": 55, "duration": 9, "velocity": 82}, {"time": 1239, "pitch": 58, "duration": 7, "velocity": 83}, {"time": 1245, "pitch": 50, "duration": 10, "velocity": 85}, {"time": 1251, "pitch": 58, "duration": 3, "velocity": 85}, {"time": 1251, "pitch": 62, "duration": 4, "velocity": 90}, {"time": 1263, "pitch": 48, "duration": 15, "velocity": 90}, {"time": 1263, "pitch": 63, "duration": 7, "velocity": 93}, {"time": 1269, "pitch": 55, "duration": 8, "velocity": 84}, {"time": 1275, "pitch": 60, "duration": 2, "velocity": 87}, {"time": 1281, "pitch": 58, "duration": 6, "velocity": 92}, {"time": 1287, "pitch": 41, "duration": 17, "velocity": 91}, {"time": 1287, "pitch": 53, "duration": 12, "velocity": 82}, {"time": 1287, "pitch": 57, "duration": 13, "velocity": 83}, {"time": 1293, "pitch": 48, "duration": 11, "velocity": 81}, {"time": 1299, "pitch": 60, "duration": 5, "velocity": 91}, {"time": 1311, "pitch": 46, "duration": 21, "velocity": 88}, {"time": 1311, "pitch": 62, "duration": 12, "velocity": 91}, {"time": 1317, "pitch": 53, "duration": 17, "velocity": 74}, {"time": 1323, "pitch": 58, "duration": 7, "velocity": 87}, {"time": 1329, "pitch": 62, "duration": 3, "velocity": 87}, {"time": 1335, "pitch": 46, "duration": 16, "velocity": 93}, {"time": 1335, "pitch": 58, "duration": 6, "velocity": 79}, {"time": 1341, "pitch": 53, "duration": 9, "velocity": 78}, {"time": 1347, "pitch": 56, "duration": 6, "velocity": 87}, {"time": 1347, "pitch": 62, "duration": 7, "velocity": 93}, {"time": 1359, "pitch": 39, "duration": 12, "velocity": 91}, {"time": 1359, "pitch": 58, "duration": 13, "velocity": 84}, {"time": 1365, "pitch": 46, "duration": 7, "velocity": 77}, {"time": 1371, "pitch": 55, "duration": 7, "velocity": 91}, {"time": 1377, "pitch": 58, "duration": 2, "velocity": 91}, {"time": 1383, "pitch": 41, "duration": 17, "velocity": 91}, {"time": 1383, "pitch": 53, "duration": 13, "velocity": 85}, {"time": 1383, "pitch": 57, "duration": 13, "velocity": 85}, {"time": 1389, "pitch": 48, "duration": 11, "velocity": 82}, {"time": 1395, "pitch": 60, "duration": 5, "velocity": 91}, {"time": 1407, "pitch": 50, "duration": 15, "velocity": 90}, {"time": 1407, "pitch": 57, "duration": 3, "velocity": 79}, {"time": 1407, "pitch": 62, "duration": 13, "velocity": 86}, {"time": 1413, "pitch": 57, "duration": 7, "velocity": 86}, {"time": 1419, "pitch": 65, "duration": 26, "velocity": 93}, {"time": 1431, "pitch": 43, "duration": 20, "velocity": 90}, {"time": 1431, "pitch": 58, "duration": 13, "velocity": 78}, {"time": 1431, "pitch": 62, "duration": 18, "velocity": 85}, {"time": 1437, "pitch": 50, "duration": 14, "velocity": 85}, {"time": 1443, "pitch": 55, "duration": 7, "velocity": 92}, {"time": 1449, "pitch": 58, "duration": 2, "velocity": 77}, {"time": 1455, "pitch": 48, "duration": 20, "velocity": 85}, {"time": 1455, "pitch": 55, "duration": 3, "velocity": 86}, {"time": 1455, "pitch": 60, "duration": 19, "velocity": 86}, {"time": 1461, "pitch": 55, "duration": 9, "velocity": 92}, {"time": 1467, "pitch": 63, "duration": 8, "velocity": 93}, {"time": 1479, "pitch": 41, "duration": 20, "velocity": 87}, {"time": 1479, "pitch": 57, "duration": 20, "velocity": 80}, {"time": 1479, "pitch": 60, "duration": 21, "velocity": 85}, {"time": 1485, "pitch": 48, "duration": 14, "velocity": 83}, {"time": 1491, "pitch": 65, "duration": 23, "velocity": 74}, {"time": 1503, "pitch": 46, "duration": 22, "velocity": 83}, {"time": 1509, "pitch": 53, "duration": 16, "velocity": 79}, {"time": 1515, "pitch": 58, "duration": 11, "velocity": 85}, {"time": 1521, "pitch": 62, "duration": 5, "velocity": 85}, {"time": 1527, "pitch": 46, "duration": 15, "velocity": 81}, {"time": 1527, "pitch": 58, "duration": 23, "velocity": 64}, {"time": 1527, "pitch": 62, "duration": 23, "velocity": 78}, {"time": 1527, "pitch": 65, "duration": 23, "velocity": 82}, {"time": 1551, "pitch": 39, "duration": 14, "velocity": 83}, {"time": 1551, "pitch": 63, "duration": 13, "velocity": 91}, {"time": 1557, "pitch": 46, "duration": 8, "velocity": 85}, {"time": 1563, "pitch": 55, "duration": 7, "velocity": 92}, {"time": 1569, "pitch": 58, "duration": 2, "velocity": 93}, {"time": 1575, "pitch": 41, "duration": 17, "velocity": 91}, {"time": 1575, "pitch": 53, "duration": 13, "velocity": 88}, {"time": 1575, "pitch": 57, "duration": 14, "velocity": 91}, {"time": 1581, "pitch": 48, "duration": 11, "velocity": 83}, {"time": 1587, "pitch": 60, "duration": 5, "velocity": 88}, {"time": 1599, "pitch": 46, "duration": 14, "velocity": 90}, {"time": 1599, "pitch": 58, "duration": 7, "velocity": 73}, {"time": 1599, "pitch": 62, "duration": 8, "velocity": 87}, {"time": 1605, "pitch": 53, "duration": 7, "velocity": 84}, {"time": 1611, "pitch": 58, "duration": 4, "velocity": 89}, {"time": 1617, "pitch": 57, "duration": 5, "velocity": 84}, {"time": 1623, "pitch": 43, "duration": 17, "velocity": 91}, {"time": 1623, "pitch": 55, "duration": 9, "velocity": 82}, {"time": 1623, "pitch": 58, "duration": 7, "velocity": 83}, {"time": 1629, "pitch": 50, "duration": 10, "velocity": 85}, {"time": 1635, "pitch": 58, "duration": 3, "velocity": 85}, {"time": 1635, "pitch": 62, "duration": 4, "velocity": 90}, {"time": 1647, "pitch": 48, "duration": 15, "velocity": 90}, {"time": 1647, "pitch": 63, "duration": 7, "velocity": 93}, {"time": 1653, "pitch": 55, "duration": 8, "velocity": 84}, {"time": 1659, "pitch": 60, "duration": 2, "velocity": 87}, {"time": 1665, "pitch": 58, "duration": 6, "velocity": 92}, {"time": 1671, "pitch": 41, "duration": 17, "velocity": 91}, {"time": 1671, "pitch": 53, "duration": 12, "velocity": 82}, {"time": 1671, "pitch": 57, "duration": 13, "velocity": 83}, {"time": 1677, "pitch": 48, "duration": 11, "velocity": 81}, {"time": 1683, "pitch": 60, "duration": 5, "velocity": 91}, {"time": 1695, "pitch": 46, "duration": 21, "velocity": 88}, {"time": 1695, "pitch": 62, "duration": 12, "velocity": 91}, {"time": 1701, "pitch": 53, "duration": 17, "velocity": 74}, {"time": 1707, "pitch": 58, "duration": 7, "velocity": 87}, {"time": 1713, "pitch": 62, "duration": 3, "velocity": 87}, {"time": 1719, "pitch": 46, "duration": 16, "velocity": 93}, {"time": 1719, "pitch": 58, "duration": 6, "velocity": 79}, {"time": 1725, "pitch": 53, "duration": 9, "velocity": 78}, {"time": 1731, "pitch": 56, "duration": 6, "velocity": 87}, {"time": 1731, "pitch": 62, "duration": 7, "velocity": 93}, {"time": 1743, "pitch": 39, "duration": 12, "velocity": 91}, {"time": 1743, "pitch": 58, "duration": 13, "velocity": 84}, {"time": 1749, "pitch": 46, "duration": 7, "velocity": 77}, {"time": 1755, "pitch": 55, "duration": 7, "velocity": 91}, {"time": 1761, "pitch": 58, "duration": 2, "velocity": 91}, {"time": 1767, "pitch": 41, "duration": 17, "velocity": 91}, {"time": 1767, "pitch": 53, "duration": 13, "velocity": 85}, {"time": 1767, "pitch": 57, "duration": 13, "velocity": 85}, {"time": 1773, "pitch": 48, "duration": 11, "velocity": 82}, {"time": 1779, "pitch": 60, "duration": 5, "velocity": 91}, {"time": 1791, "pitch": 50, "duration": 15, "velocity": 90}, {"time": 1791, "pitch": 57, "duration": 3, "velocity": 79}, {"time": 1791, "pitch": 62, "duration": 13, "velocity": 86}, {"time": 1797, "pitch": 57, "duration": 7, "velocity": 86}, {"time": 1803, "pitch": 65, "duration": 26, "velocity": 93}, {"time": 1815, "pitch": 43, "duration": 20, "velocity": 90}, {"time": 1815, "pitch": 58, "duration": 13, "velocity": 78}, {"time": 1815, "pitch": 62, "duration": 18, "velocity": 85}, {"time": 1821, "pitch": 50, "duration": 14, "velocity": 85}, {"time": 1827, "pitch": 55, "duration": 7, "velocity": 92}, {"time": 1833, "pitch": 58, "duration": 2, "velocity": 77}, {"time": 1839, "pitch": 48, "duration": 20, "velocity": 85}, {"time": 1839, "pitch": 55, "duration": 3, "velocity": 86}, {"time": 1839, "pitch": 60, "duration": 19, "velocity": 86}, {"time": 1845, "pitch": 55, "duration": 9, "velocity": 92}, {"time": 1851, "pitch": 63, "duration": 8, "velocity": 93}, {"time": 1863, "pitch": 41, "duration": 20, "velocity": 87}, {"time": 1863, "pitch": 57, "duration": 20, "velocity": 80}, {"time": 1863, "pitch": 60, "duration": 21, "velocity": 85}, {"time": 1869, "pitch": 48, "duration": 14, "velocity": 83}, {"time": 1875, "pitch": 65, "duration": 23, "velocity": 74}, {"time": 1887, "pitch": 46, "duration": 22, "velocity": 83}, {"time": 1893, "pitch": 53, "duration": 16, "velocity": 79}, {"time": 1899, "pitch": 58, "duration": 11, "velocity": 85}, {"time": 1905, "pitch": 62, "duration": 5, "velocity": 85}, {"time": 1911, "pitch": 46, "duration": 15, "velocity": 81}, {"time": 1911, "pitch": 58, "duration": 23, "velocity": 64}, {"time": 1911, "pitch": 62, "duration": 23, "velocity": 78}, {"time": 1911, "pitch": 65, "duration": 23, "velocity": 82}, {"time": 1935, "pitch": 46, "duration": 17, "velocity": 86}, {"time": 1935, "pitch": 58, "duration": 18, "velocity": 79}, {"time": 1935, "pitch": 62, "duration": 10, "velocity": 91}, {"time": 1941, "pitch": 53, "duration": 11, "velocity": 73}, {"time": 1947, "pitch": 62, "duration": 6, "velocity": 76}, {"time": 1947, "pitch": 65, "duration": 7, "velocity": 88}, {"time": 1959, "pitch": 41, "duration": 17, "velocity": 85}, {"time": 1959, "pitch": 57, "duration": 12, "velocity": 79}, {"time": 1959, "pitch": 60, "duration": 13, "velocity": 81}, {"time": 1965, "pitch": 48, "duration": 10, "velocity": 80}, {"time": 1971, "pitch": 65, "duration": 9, "velocity": 90}, {"time": 1977, "pitch": 57, "duration": 5, "velocity": 87}, {"time": 1983, "pitch": 43, "duration": 40, "velocity": 87}, {"time": 1983, "pitch": 58, "duration": 13, "velocity": 78}, {"time": 1989, "pitch": 50, "duration": 9, "velocity": 77}, {"time": 1995, "pitch": 62, "duration": 7, "velocity": 86}, {"time": 2001, "pitch": 50, "duration": 22, "velocity": 72}, {"time": 2007, "pitch": 67, "duration": 7, "velocity": 88}, {"time": 2013, "pitch": 55, "duration": 4, "velocity": 80}, {"time": 2019, "pitch": 58, "duration": 5, "velocity": 80}, {"time": 2019, "pitch": 62, "duration": 4, "velocity": 90}, {"time": 2031, "pitch": 51, "duration": 12, "velocity": 79}, {"time": 2031, "pitch": 58, "duration": 7, "velocity": 82}, {"time": 2031, "pitch": 63, "duration": 8, "velocity": 84}, {"time": 2037, "pitch": 55, "duration": 11, "velocity": 87}, {"time": 2043, "pitch": 58, "duration": 7, "velocity": 78}, {"time": 2055, "pitch": 41, "duration": 18, "velocity": 85}, {"time": 2055, "pitch": 57, "duration": 5, "velocity": 80}, {"time": 2055, "pitch": 60, "duration": 18, "velocity": 84}, {"time": 2061, "pitch": 48, "duration": 12, "velocity": 76}, {"time": 2067, "pitch": 65, "duration": 8, "velocity": 89}, {"time": 2073, "pitch": 57, "duration": 4, "velocity": 87}, {"time": 2079, "pitch": 46, "duration": 40, "velocity": 81}, {"time": 2079, "pitch": 58, "duration": 13, "velocity": 79}, {"time": 2085, "pitch": 50, "duration": 34, "velocity": 75}, {"time": 2091, "pitch": 53, "duration": 12, "velocity": 87}, {"time": 2097, "pitch": 58, "duration": 8, "velocity": 82}, {"time": 2103, "pitch": 62, "duration": 10, "velocity": 83}, {"time": 2109, "pitch": 53, "duration": 4, "velocity": 70}, {"time": 2115, "pitch": 53, "duration": 4, "velocity": 88}, {"time": 2115, "pitch": 60, "duration": 5, "velocity": 90}, {"time": 2127, "pitch": 39, "duration": 12, "velocity": 79}, {"time": 2127, "pitch": 55, "duration": 12, "velocity": 83}, {"time": 2127, "pitch": 58, "duration": 13, "velocity": 80}, {"time": 2133, "pitch": 46, "duration": 6, "velocity": 75}, {"time": 2139, "pitch": 63, "duration": 6, "velocity": 93}, {"time": 2151, "pitch": 41, "duration": 17, "velocity": 84}, {"time": 2151, "pitch": 57, "duration": 12, "velocity": 81}, {"time": 2151, "pitch": 60, "duration": 18, "velocity": 86}, {"time": 2157, "pitch": 48, "duration": 11, "velocity": 76}, {"time": 2163, "pitch": 65, "duration": 8, "velocity": 91}, {"time": 2169, "pitch": 57, "duration": 3, "velocity": 91}, {"time": 2175, "pitch": 50, "duration": 15, "velocity": 90}, {"time": 2175, "pitch": 57, "duration": 3, "velocity": 83}, {"time": 2175, "pitch": 62, "duration": 13, "velocity": 86}, {"time": 2181, "pitch": 57, "duration": 7, "velocity": 78}, {"time": 2187, "pitch": 65, "duration": 32, "velocity": 90}, {"time": 2199, "pitch": 43, "duration": 20, "velocity": 82}, {"time": 2199, "pitch": 62, "duration": 18, "velocity": 86}, {"time": 2205, "pitch": 50, "duration": 13, "velocity": 85}, {"time": 2211, "pitch": 58, "duration": 6, "velocity": 88}, {"time": 2223, "pitch": 48, "duration": 14, "velocity": 88}, {"time": 2223, "pitch": 63, "duration": 13, "velocity": 90}, {"time": 2229, "pitch": 55, "duration": 8, "velocity": 85}, {"time": 2235, "pitch": 60, "duration": 7, "velocity": 90}, {"time": 2241, "pitch": 55, "duration": 3, "velocity": 92}, {"time": 2247, "pitch": 41, "duration": 18, "velocity": 86}, {"time": 2247, "pitch": 57, "duration": 3, "velocity": 81}, {"time": 2247, "pitch": 60, "duration": 18, "velocity": 85}, {"time": 2253, "pitch": 57, "duration": 7, "velocity": 82}, {"time": 2259, "pitch": 65, "duration": 7, "velocity": 91}, {"time": 2265, "pitch": 57, "duration": 7, "velocity": 81}, {"time": 2271, "pitch": 46, "duration": 20, "velocity": 83}, {"time": 2271, "pitch": 58, "duration": 13, "velocity": 82}, {"time": 2277, "pitch": 53, "duration": 7, "velocity": 74}, {"time": 2283, "pitch": 62, "duration": 7, "velocity": 90}, {"time": 2289, "pitch": 53, "duration": 4, "velocity": 79}, {"time": 2295, "pitch": 46, "duration": 24, "velocity": 86}, {"time": 2295, "pitch": 53, "duration": 21, "velocity": 81}, {"time": 2295, "pitch": 58, "duration": 24, "velocity": 81}, {"time": 2319, "pitch": 46, "duration": 17, "velocity": 86}, {"time": 2319, "pitch": 58, "duration": 18, "velocity": 79}, {"time": 2319, "pitch": 62, "duration": 10, "velocity": 91}, {"time": 2325, "pitch": 53, "duration": 11, "velocity": 73}, {"time": 2331, "pitch": 62, "duration": 6, "velocity": 76}, {"time": 2331, "pitch": 65, "duration": 7, "velocity": 88}, {"time": 2343, "pitch": 41, "duration": 17, "velocity": 85}, {"time": 2343, "pitch": 57, "duration": 12, "velocity": 79}, {"time": 2343, "pitch": 60, "duration": 13, "velocity": 81}, {"time": 2349, "pitch": 48, "duration": 10, "velocity": 80}, {"time": 2355, "pitch": 65, "duration": 9, "velocity": 90}, {"time": 2361, "pitch": 57, "duration": 5, "velocity": 87}, {"time": 2367, "pitch": 43, "duration": 40, "velocity": 87}, {"time": 2367, "pitch": 58, "duration": 13, "velocity": 78}, {"time": 2373, "pitch": 50, "duration": 9, "velocity": 77}, {"time": 2379, "pitch": 62, "duration": 7, "velocity": 86}, {"time": 2385, "pitch": 50, "duration": 22, "velocity": 72}, {"time": 2391, "pitch": 67, "duration": 7, "velocity": 88}, {"time": 2397, "pitch": 55, "duration": 4, "velocity": 80}, {"time": 2403, "pitch": 58, "duration": 5, "velocity": 80}, {"time": 2403, "pitch": 62, "duration": 4, "velocity": 90}, {"time": 2415, "pitch": 51, "duration": 12, "velocity": 79}, {"time": 2415, "pitch": 58, "duration": 7, "velocity": 82}, {"time": 2415, "pitch": 63, "duration": 8, "velocity": 84}, {"time": 2421, "pitch": 55, "duration": 11, "velocity": 87}, {"time": 2427, "pitch": 58, "duration": 7, "velocity": 78}, {"time": 2439, "pitch": 41, "duration": 18, "velocity": 85}, {"time": 2439, "pitch": 57, "duration": 5, "velocity": 80}, {"time": 2439, "pitch": 60, "duration": 18, "velocity": 84}, {"time": 2445, "pitch": 48, "duration": 12, "velocity": 76}, {"time": 2451, "pitch": 65, "duration": 8, "velocity": 89}, {"time": 2457, "pitch": 57, "duration": 4, "velocity": 87}, {"time": 2463, "pitch": 46, "duration": 40, "velocity": 81}, {"time": 2463, "pitch": 58, "duration": 13, "velocity": 79}, {"time": 2469, "pitch": 50, "duration": 34, "velocity": 75}, {"time": 2475, "pitch": 53, "duration": 12, "velocity": 87}, {"time": 2481, "pitch": 58, "duration": 8, "velocity": 82}, {"time": 2487, "pitch": 62, "duration": 10, "velocity": 83}, {"time": 2493, "pitch": 53, "duration": 4, "velocity": 70}, {"time": 2499, "pitch": 53, "duration": 4, "velocity": 88}, {"time": 2499, "pitch": 60, "duration": 5, "velocity": 90}, {"time": 2511, "pitch": 39, "duration": 12, "velocity": 79}, {"time": 2511, "pitch": 55, "duration": 12, "velocity": 83}, {"time": 2511, "pitch": 58, "duration": 13, "velocity": 80}, {"time": 2517, "pitch": 46, "duration": 6, "velocity": 75}, {"time": 2523, "pitch": 63, "duration": 6, "velocity": 93}, {"time": 2535, "pitch": 41, "duration": 17, "velocity": 84}, {"time": 2535, "pitch": 57, "duration": 12, "velocity": 81}, {"time": 2535, "pitch": 60, "duration": 18, "velocity": 86}, {"time": 2541, "pitch": 48, "duration": 11, "velocity": 76}, {"time": 2547, "pitch": 65, "duration": 8, "velocity": 91}, {"time": 2553, "pitch": 57, "duration": 3, "velocity": 91}, {"time": 2559, "pitch": 50, "duration": 15, "velocity": 90}, {"time": 2559, "pitch": 57, "duration": 3, "velocity": 83}, {"time": 2559, "pitch": 62, "duration": 13, "velocity": 86}, {"time": 2565, "pitch": 57, "duration": 7, "velocity": 78}, {"time": 2571, "pitch": 65, "duration": 32, "velocity": 90}, {"time": 2583, "pitch": 43, "duration": 20, "velocity": 82}, {"time": 2583, "pitch": 62, "duration": 18, "velocity": 86}, {"time": 2589, "pitch": 50, "duration": 13, "velocity": 85}, {"time": 2595, "pitch": 58, "duration": 6, "velocity": 88}, {"time": 2607, "pitch": 48, "duration": 14, "velocity": 88}, {"time": 2607, "pitch": 63, "duration": 13, "velocity": 90}, {"time": 2613, "pitch": 55, "duration": 8, "velocity": 85}, {"time": 2619, "pitch": 60, "duration": 7, "velocity": 90}, {"time": 2625, "pitch": 55, "duration": 3, "velocity": 92}, {"time": 2631, "pitch": 41, "duration": 18, "velocity": 86}, {"time": 2631, "pitch": 57, "duration": 3, "velocity": 81}, {"time": 2631, "pitch": 60, "duration": 18, "velocity": 85}, {"time": 2637, "pitch": 57, "duration": 7, "velocity": 82}, {"time": 2643, "pitch": 65, "duration": 7, "velocity": 91}, {"time": 2649, "pitch": 57, "duration": 7, "velocity": 81}, {"time": 2655, "pitch": 46, "duration": 20, "velocity": 83}, {"time": 2655, "pitch": 58, "duration": 13, "velocity": 82}, {"time": 2661, "pitch": 53, "duration": 7, "velocity": 74}, {"time": 2667, "pitch": 62, "duration": 7, "velocity": 90}, {"time": 2673, "pitch": 53, "duration": 4, "velocity": 79}, {"time": 2679, "pitch": 46, "duration": 24, "velocity": 86}, {"time": 2679, "pitch": 53, "duration": 21, "velocity": 81}, {"time": 2679, "pitch": 58, "duration": 24, "velocity": 81}, {"time": 2703, "pitch": 39, "duration": 14, "velocity": 83}, {"time": 2703, "pitch": 63, "duration": 13, "velocity": 91}, {"time": 2709, "pitch": 46, "duration": 8, "velocity": 85}, {"time": 2715, "pitch": 55, "duration": 7, "velocity": 92}, {"time": 2721, "pitch": 58, "duration": 2, "velocity": 93}, {"time": 2727, "pitch": 41, "duration": 17, "velocity": 91}, {"time": 2727, "pitch": 53, "duration": 13, "velocity": 88}, {"time": 2727, "pitch": 57, "duration": 14, "velocity": 91}, {"time": 2733, "pitch": 48, "duration": 11, "velocity": 83}, {"time": 2739, "pitch": 60, "duration": 5, "velocity": 88}, {"time": 2751, "pitch": 46, "duration": 14, "velocity": 90}, {"time": 2751, "pitch": 58, "duration": 7, "velocity": 73}, {"time": 2751, "pitch": 62, "duration": 8, "velocity": 87}, {"time": 2757, "pitch": 53, "duration": 7, "velocity": 84}, {"time": 2763, "pitch": 58, "duration": 4, "velocity": 89}, {"time": 2769, "pitch": 57, "duration": 5, "velocity": 84}, {"time": 2775, "pitch": 43, "duration": 17, "velocity": 91}, {"time": 2775, "pitch": 55, "duration": 9, "velocity": 82}, {"time": 2775, "pitch": 58, "duration": 7, "velocity": 83}, {"time": 2781, "pitch": 50, "duration": 10, "velocity": 85}, {"time": 2787, "pitch": 58, "duration": 3, "velocity": 85}, {"time": 2787, "pitch": 62, "duration": 4, "velocity": 90}, {"time": 2799, "pitch": 48, "duration": 15, "velocity": 90}, {"time": 2799, "pitch": 63, "duration": 7, "velocity": 93}, {"time": 2805, "pitch": 55, "duration": 8, "velocity": 84}, {"time": 2811, "pitch": 60, "duration": 2, "velocity": 87}, {"time": 2817, "pitch": 58, "duration": 6, "velocity": 92}, {"time": 2823, "pitch": 41, "duration": 17, "velocity": 91}, {"time": 2823, "pitch": 53, "duration": 12, "velocity": 82}, {"time": 2823, "pitch": 57, "duration": 13, "velocity": 83}, {"time": 2829, "pitch": 48, "duration": 11, "velocity": 81}, {"time": 2835, "pitch": 60, "duration": 5, "velocity": 91}, {"time": 2847, "pitch": 46, "duration": 21, "velocity": 88}, {"time": 2847, "pitch": 62, "duration": 12, "velocity": 91}, {"time": 2853, "pitch": 53, "duration": 17, "velocity": 74}, {"time": 2859, "pitch": 58, "duration": 7, "velocity": 87}, {"time": 2865, "pitch": 62, "duration": 3, "velocity": 87}, {"time": 2871, "pitch": 46, "duration": 16, "velocity": 93}, {"time": 2871, "pitch": 58, "duration": 6, "velocity": 79}, {"time": 2877, "pitch": 53, "duration": 9, "velocity": 78}, {"time": 2883, "pitch": 56, "duration": 6, "velocity": 87}, {"time": 2883, "pitch": 62, "duration": 7, "velocity": 93}, {"time": 2895, "pitch": 39, "duration": 12, "velocity": 91}, {"time": 2895, "pitch": 58, "duration": 13, "velocity": 84}, {"time": 2901, "pitch": 46, "duration": 7, "velocity": 77}, {"time": 2907, "pitch": 55, "duration": 7, "velocity": 91}, {"time": 2913, "pitch": 58, "duration": 2, "velocity": 91}, {"time": 2919, "pitch": 41, "duration": 17, "velocity": 91}, {"time": 2919, "pitch": 53, "duration": 13, "velocity": 85}, {"time": 2919, "pitch": 57, "duration": 13, "velocity": 85}, {"time": 2925, "pitch": 48, "duration": 11, "velocity": 82}, {"time": 2931, "pitch": 60, "duration": 5, "velocity": 91}, {"time": 2943, "pitch": 50, "duration": 15, "velocity": 90}, {"time": 2943, "pitch": 57, "duration": 3, "velocity": 79}, {"time": 2943, "pitch": 62, "duration": 13, "velocity": 86}, {"time": 2949, "pitch": 57, "duration": 7, "velocity": 86}, {"time": 2955, "pitch": 65, "duration": 26, "velocity": 93}, {"time": 2967, "pitch": 43, "duration": 20, "velocity": 90}, {"time": 2967, "pitch": 58, "duration": 13, "velocity": 78}, {"time": 2967, "pitch": 62, "duration": 18, "velocity": 85}, {"time": 2973, "pitch": 50, "duration": 14, "velocity": 85}, {"time": 2979, "pitch": 55, "duration": 7, "velocity": 92}, {"time": 2985, "pitch": 58, "duration": 2, "velocity": 77}, {"time": 2991, "pitch": 48, "duration": 20, "velocity": 85}, {"time": 2991, "pitch": 55, "duration": 3, "velocity": 86}, {"time": 2991, "pitch": 60, "duration": 19, "velocity": 86}, {"time": 2997, "pitch": 55, "duration": 9, "velocity": 92}, {"time": 3003, "pitch": 63, "duration": 8, "velocity": 93}, {"time": 3015, "pitch": 41, "duration": 20, "velocity": 87}, {"time": 3015, "pitch": 57, "duration": 20, "velocity": 80}, {"time": 3015, "pitch": 60, "duration": 21, "velocity": 85}, {"time": 3021, "pitch": 48, "duration": 14, "velocity": 83}, {"time": 3027, "pitch": 65, "duration": 23, "velocity": 74}, {"time": 3039, "pitch": 46, "duration": 22, "velocity": 83}, {"time": 3045, "pitch": 53, "duration": 16, "velocity": 79}, {"time": 3051, "pitch": 58, "duration": 11, "velocity": 85}, {"time": 3057, "pitch": 62, "duration": 5, "velocity": 85}, {"time": 3063, "pitch": 46, "duration": 15, "velocity": 81}, {"time": 3063, "pitch": 58, "duration": 23, "velocity": 64}, {"time": 3063, "pitch": 62, "duration": 23, "velocity": 78}, {"time": 3063, "pitch": 65, "duration": 23, "velocity": 82}, {"time": 3087, "pitch": 39, "duration": 14, "velocity": 83}, {"time": 3087, "pitch": 63, "duration": 13, "velocity": 91}, {"time": 3093, "pitch": 46, "duration": 8, "velocity": 85}, {"time": 3099, "pitch": 55, "duration": 7, "velocity": 92}, {"time": 3105, "pitch": 58, "duration": 2, "velocity": 93}, {"time": 3111, "pitch": 41, "duration": 17, "velocity": 91}, {"time": 3111, "pitch": 53, "duration": 13, "velocity": 88}, {"time": 3111, "pitch": 57, "duration": 14, "velocity": 91}, {"time": 3117, "pitch": 48, "duration": 11, "velocity": 83}, {"time": 3123, "pitch": 60, "duration": 5, "velocity": 88}, {"time": 3135, "pitch": 46, "duration": 14, "velocity": 90}, {"time": 3135, "pitch": 58, "duration": 7, "velocity": 73}, {"time": 3135, "pitch": 62, "duration": 8, "velocity": 87}, {"time": 3141, "pitch": 53, "duration": 7, "velocity": 84}, {"time": 3147, "pitch": 58, "duration": 4, "velocity": 89}, {"time": 3153, "pitch": 57, "duration": 5, "velocity": 84}, {"time": 3159, "pitch": 43, "duration": 17, "velocity": 91}, {"time": 3159, "pitch": 55, "duration": 9, "velocity": 82}, {"time": 3159, "pitch": 58, "duration": 7, "velocity": 83}, {"time": 3165, "pitch": 50, "duration": 10, "velocity": 85}, {"time": 3171, "pitch": 58, "duration": 3, "velocity": 85}, {"time": 3171, "pitch": 62, "duration": 4, "velocity": 90}, {"time": 3183, "pitch": 48, "duration": 15, "velocity": 90}, {"time": 3183, "pitch": 63, "duration": 7, "velocity": 93}, {"time": 3189, "pitch": 55, "duration": 8, "velocity": 84}, {"time": 3195, "pitch": 60, "duration": 2, "velocity": 87}, {"time": 3201, "pitch": 58, "duration": 6, "velocity": 92}, {"time": 3207, "pitch": 41, "duration": 17, "velocity": 91}, {"time": 3207, "pitch": 53, "duration": 12, "velocity": 82}, {"time": 3207, "pitch": 57, "duration": 13, "velocity": 83}, {"time": 3213, "pitch": 48, "duration": 11, "velocity": 81}, {"time": 3219, "pitch": 60, "duration": 5, "velocity": 91}, {"time": 3231, "pitch": 46, "duration": 21, "velocity": 88}, {"time": 3231, "pitch": 62, "duration": 12, "velocity": 91}, {"time": 3237, "pitch": 53, "duration": 17, "velocity": 74}, {"time": 3243, "pitch": 58, "duration": 7, "velocity": 87}, {"time": 3249, "pitch": 62, "duration": 3, "velocity": 87}, {"time": 3255, "pitch": 46, "duration": 16, "velocity": 93}, {"time": 3255, "pitch": 58, "duration": 6, "velocity": 79}, {"time": 3261, "pitch": 53, "duration": 9, "velocity": 78}, {"time": 3267, "pitch": 56, "duration": 6, "velocity": 87}, {"time": 3267, "pitch": 62, "duration": 7, "velocity": 93}, {"time": 3279, "pitch": 39, "duration": 12, "velocity": 91}, {"time": 3279, "pitch": 58, "duration": 13, "velocity": 84}, {"time": 3285, "pitch": 46, "duration": 7, "velocity": 77}, {"time": 3291, "pitch": 55, "duration": 7, "velocity": 91}, {"time": 3297, "pitch": 58, "duration": 2, "velocity": 91}, {"time": 3303, "pitch": 41, "duration": 17, "velocity": 91}, {"time": 3303, "pitch": 53, "duration": 13, "velocity": 85}, {"time": 3303, "pitch": 57, "duration": 13, "velocity": 85}, {"time": 3309, "pitch": 48, "duration": 11, "velocity": 82}, {"time": 3315, "pitch": 60, "duration": 5, "velocity": 91}, {"time": 3327, "pitch": 50, "duration": 15, "velocity": 90}, {"time": 3327, "pitch": 57, "duration": 3, "velocity": 79}, {"time": 3327, "pitch": 62, "duration": 13, "velocity": 86}, {"time": 3333, "pitch": 57, "duration": 7, "velocity": 86}, {"time": 3339, "pitch": 65, "duration": 26, "velocity": 93}, {"time": 3351, "pitch": 43, "duration": 20, "velocity": 90}, {"time": 3351, "pitch": 58, "duration": 13, "velocity": 78}, {"time": 3351, "pitch": 62, "duration": 18, "velocity": 85}, {"time": 3357, "pitch": 50, "duration": 14, "velocity": 85}, {"time": 3363, "pitch": 55, "duration": 7, "velocity": 92}, {"time": 3369, "pitch": 58, "duration": 2, "velocity": 77}, {"time": 3375, "pitch": 48, "duration": 20, "velocity": 85}, {"time": 3375, "pitch": 55, "duration": 3, "velocity": 86}, {"time": 3375, "pitch": 60, "duration": 19, "velocity": 86}, {"time": 3381, "pitch": 55, "duration": 9, "velocity": 92}, {"time": 3387, "pitch": 63, "duration": 8, "velocity": 93}, {"time": 3399, "pitch": 41, "duration": 20, "velocity": 87}, {"time": 3399, "pitch": 57, "duration": 20, "velocity": 80}, {"time": 3399, "pitch": 60, "duration": 21, "velocity": 85}, {"time": 3405, "pitch": 48, "duration": 14, "velocity": 83}, {"time": 3411, "pitch": 65, "duration": 23, "velocity": 74}, {"time": 3423, "pitch": 46, "duration": 22, "velocity": 83}, {"time": 3429, "pitch": 53, "duration": 16, "velocity": 79}, {"time": 3435, "pitch": 58, "duration": 11, "velocity": 85}, {"time": 3441, "pitch": 62, "duration": 5, "velocity": 85}, {"time": 3447, "pitch": 46, "duration": 15, "velocity": 81}, {"time": 3447, "pitch": 58, "duration": 23, "velocity": 64}, {"time": 3447, "pitch": 62, "duration": 23, "velocity": 78}, {"time": 3447, "pitch": 65, "duration": 23, "velocity": 82}, {"time": 3469, "pitch": 55, "duration": 4, "velocity": 80}, {"time": 3470, "pitch": 60, "duration": 14, "velocity": 87}, {"time": 3471, "pitch": 36, "duration": 15, "velocity": 86}, {"time": 3472, "pitch": 63, "duration": 6, "velocity": 85}, {"time": 3477, "pitch": 55, "duration": 6, "velocity": 79}, {"time": 3483, "pitch": 67, "duration": 5, "velocity": 91}, {"time": 3493, "pitch": 53, "duration": 4, "velocity": 79}, {"time": 3495, "pitch": 57, "duration": 12, "velocity": 83}, {"time": 3495, "pitch": 41, "duration": 39, "velocity": 87}, {"time": 3495, "pitch": 60, "duration": 7, "velocity": 89}, {"time": 3501, "pitch": 48, "duration": 33, "velocity": 76}, {"time": 3507, "pitch": 60, "duration": 7, "velocity": 85}, {"time": 3512, "pitch": 57, "duration": 2, "velocity": 91}, {"time": 3520, "pitch": 60, "duration": 22, "velocity": 75}, {"time": 3522, "pitch": 65, "duration": 20, "velocity": 82}, {"time": 3543, "pitch": 46, "duration": 22, "velocity": 90}, {"time": 3549, "pitch": 53, "duration": 17, "velocity": 79}, {"time": 3555, "pitch": 58, "duration": 5, "velocity": 79}, {"time": 3561, "pitch": 60, "duration": 5, "velocity": 84}, {"time": 3567, "pitch": 46, "duration": 16, "velocity": 80}, {"time": 3567, "pitch": 53, "duration": 3, "velocity": 77}, {"time": 3567, "pitch": 58, "duration": 10, "velocity": 83}, {"time": 3573, "pitch": 53, "duration": 10, "velocity": 79}, {"time": 3579, "pitch": 58, "duration": 11, "velocity": 76}, {"time": 3579, "pitch": 62, "duration": 10, "velocity": 85}, {"time": 3591, "pitch": 46, "duration": 17, "velocity": 86}, {"time": 3591, "pitch": 58, "duration": 18, "velocity": 79}, {"time": 3591, "pitch": 62, "duration": 10, "velocity": 91}, {"time": 3597, "pitch": 53, "duration": 11, "velocity": 73}, {"time": 3603, "pitch": 62, "duration": 6, "velocity": 76}, {"time": 3603, "pitch": 65, "duration": 7, "velocity": 88}, {"time": 3615, "pitch": 41, "duration": 17, "velocity": 85}, {"time": 3615, "pitch": 57, "duration": 12, "velocity": 79}, {"time": 3615, "pitch": 60, "duration": 13, "velocity": 81}, {"time": 3621, "pitch": 48, "duration": 10, "velocity": 80}, {"time": 3627, "pitch": 65, "duration": 9, "velocity": 90}, {"time": 3633, "pitch": 57, "duration": 5, "velocity": 87}, {"time": 3639, "pitch": 43, "duration": 40, "velocity": 87}, {"time": 3639, "pitch": 58, "duration": 13, "velocity": 78}, {"time": 3645, "pitch": 50, "duration": 9, "velocity": 77}, {"time": 3651, "pitch": 62, "duration": 7, "velocity": 86}, {"time": 3657, "pitch": 50, "duration": 22, "velocity": 72}, {"time": 3663, "pitch": 67, "duration": 7, "velocity": 88}, {"time": 3669, "pitch": 55, "duration": 4, "velocity": 80}, {"time": 3675, "pitch": 58, "duration": 5, "velocity": 80}, {"time": 3675, "pitch": 62, "duration": 4, "velocity": 90}, {"time": 3687, "pitch": 51, "duration": 12, "velocity": 79}, {"time": 3687, "pitch": 58, "duration": 7, "velocity": 82}, {"time": 3687, "pitch": 63, "duration": 8, "velocity": 84}, {"time": 3693, "pitch": 55, "duration": 11, "velocity": 87}, {"time": 3699, "pitch": 58, "duration": 7, "velocity": 78}, {"time": 3711, "pitch": 41, "duration": 18, "velocity": 85}, {"time": 3711, "pitch": 57, "duration": 5, "velocity": 80}, {"time": 3711, "pitch": 60, "duration": 18, "velocity": 84}, {"time": 3717, "pitch": 48, "duration": 12, "velocity": 76}, {"time": 3723, "pitch": 65, "duration": 8, "velocity": 89}, {"time": 3729, "pitch": 57, "duration": 4, "velocity": 87}, {"time": 3735, "pitch": 46, "duration": 40, "velocity": 81}, {"time": 3735, "pitch": 58, "duration": 13, "velocity": 79}, {"time": 3741, "pitch": 50, "duration": 34, "velocity": 75}, {"time": 3747, "pitch": 53, "duration": 12, "velocity": 87}, {"time": 3753, "pitch": 58, "duration": 8, "velocity": 82}, {"time": 3759, "pitch": 62, "duration": 10, "velocity": 83}, {"time": 3765, "pitch": 53, "duration": 4, "velocity": 70}, {"time": 3771, "pitch": 53, "duration": 4, "velocity": 88}, {"time": 3771, "pitch": 60, "duration": 5, "velocity": 90}, {"time": 3783, "pitch": 39, "duration": 12, "velocity": 79}, {"time": 3783, "pitch": 55, "duration": 12, "velocity": 83}, {"time": 3783, "pitch": 58, "duration": 13, "velocity": 80}, {"time": 3789, "pitch": 46, "duration": 6, "velocity": 75}, {"time": 3795, "pitch": 63, "duration": 6, "velocity": 93}, {"time": 3807, "pitch": 41, "duration": 17, "velocity": 84}, {"time": 3807, "pitch": 57, "duration": 12, "velocity": 81}, {"time": 3807, "pitch": 60, "duration": 18, "velocity": 86}, {"time": 3813, "pitch": 48, "duration": 11, "velocity": 76}, {"time": 3819, "pitch": 65, "duration": 8, "velocity": 91}, {"time": 3825, "pitch": 57, "duration": 3, "velocity": 91}, {"time": 3831, "pitch": 50, "duration": 15, "velocity": 90}, {"time": 3831, "pitch": 57, "duration": 3, "velocity": 83}, {"time": 3831, "pitch": 62, "duration": 13, "velocity": 86}, {"time": 3837, "pitch": 57, "duration": 7, "velocity": 78}, {"time": 3843, "pitch": 65, "duration": 32, "velocity": 90}, {"time": 3855, "pitch": 43, "duration": 20, "velocity": 82}, {"time": 3855, "pitch": 62, "duration": 18, "velocity": 86}, {"time": 3861, "pitch": 50, "duration": 13, "velocity": 85}, {"time": 3867, "pitch": 58, "duration": 6, "velocity": 88}, {"time": 3879, "pitch": 48, "duration": 14, "velocity": 88}, {"time": 3879, "pitch": 63, "duration": 13, "velocity": 90}, {"time": 3885, "pitch": 55, "duration": 8, "velocity": 85}, {"time": 3891, "pitch": 60, "duration": 7, "velocity": 90}, {"time": 3897, "pitch": 55, "duration": 3, "velocity": 92}, {"time": 3901, "pitch": 53, "duration": 9, "velocity": 80}, {"time": 3902, "pitch": 57, "duration": 14, "velocity": 83}, {"time": 3902, "pitch": 41, "duration": 29, "velocity": 90}, {"time": 3903, "pitch": 60, "duration": 13, "velocity": 76}, {"time": 3904, "pitch": 65, "duration": 13, "velocity": 74}, {"time": 3909, "pitch": 48, "duration": 22, "velocity": 77}, {"time": 3915, "pitch": 53, "duration": 18, "velocity": 88}, {"time": 3921, "pitch": 60, "duration": 13, "velocity": 85}, {"time": 3935, "pitch": 46, "duration": 59, "velocity": 94}, {"time": 3941, "pitch": 50, "duration": 53, "velocity": 80}, {"time": 3947, "pitch": 53, "duration": 14, "velocity": 87}, {"time": 3954, "pitch": 58, "duration": 9, "velocity": 92}, {"time": 3964, "pitch": 53, "duration": 2, "velocity": 76}, {"time": 3965, "pitch": 58, "duration": 2, "velocity": 85}, {"time": 3967, "pitch": 65, "duration": 2, "velocity": 91}, {"time": 3980, "pitch": 65, "duration": 2, "velocity": 51}, {"time": 3980, "pitch": 70, "duration": 2, "velocity": 77}, {"time": 3982, "pitch": 77, "duration": 1, "velocity": 86}], "annotations": [{"time": 18, "annotation": {"number": 64, "value": 127}, "group": "control_change"}, {"time": 40, "annotation": {"number": 64, "value": 0}, "group": "control_change"}, {"time": 45, "annotation": {"number": 64, "value": 127}, "group": "control_change"}, {"time": 62, "annotation": {"number": 64, "value": 0}, "group": "control_change"}, {"time": 69, "annotation": {"number": 64, "value": 127}, "group": "control_change"}, {"time": 110, "annotation": {"number": 64, "value": 0}, "group": "control_change"}, {"time": 118, "annotation": {"number": 64, "value": 127}, "group": "control_change"}, {"time": 137, "annotation": {"number": 64, "value": 0}, "group": "control_change"}, {"time": 143, "annotation": {"number": 64, "value": 127}, "group": "control_change"}, {"time": 158, "annotation": {"number": 64, "value": 0}, "group": "control_change"}, {"time": 165, "annotation": {"number": 64, "value": 127}, "group": "control_change"}, {"time": 208, "annotation": {"number": 64, "value": 0}, "group": "control_change"}, {"time": 214, "annotation": {"number": 64, "value": 127}, "group": "control_change"}, {"time": 231, "annotation": {"number": 64, "value": 0}, "group": "control_change"}, {"time": 238, "annotation": {"number": 64, "value": 127}, "group": "control_change"}, {"time": 255, "annotation": {"number": 64, "value": 0}, "group": "control_change"}, {"time": 260, "annotation": {"number": 64, "value": 127}, "group": "control_change"}, {"time": 278, "annotation": {"number": 64, "value": 0}, "group": "control_change"}, {"time": 292, "annotation": {"number": 64, "value": 127}, "group": "control_change"}, {"time": 300, "annotation": {"number": 64, "value": 0}, "group": "control_change"}, {"time": 308, "annotation": {"number": 64, "value": 127}, "group": "control_change"}, {"time": 328, "annotation": {"number": 64, "value": 0}, "group": "control_change"}, {"time": 333, "annotation": {"number": 64, "value": 127}, "group": "control_change"}, {"time": 349, "annotation": {"number": 64, "value": 0}, "group": "control_change"}, {"time": 355, "annotation": {"number": 64, "value": 127}, "group": "control_change"}, {"time": 393, "annotation": {"number": 64, "value": 0}, "group": "control_change"}, {"time": 408, "annotation": {"number": 64, "value": 127}, "group": "control_change"}, {"time": 426, "annotation": {"number": 64, "value": 0}, "group": "control_change"}, {"time": 432, "annotation": {"number": 64, "value": 127}, "group": "control_change"}, {"time": 446, "annotation": {"number": 64, "value": 0}, "group": "control_change"}, {"time": 454, "annotation": {"number": 64, "value": 127}, "group": "control_change"}, {"time": 493, "annotation": {"number": 64, "value": 0}, "group": "control_change"}, {"time": 501, "annotation": {"number": 64, "value": 127}, "group": "control_change"}, {"time": 518, "annotation": {"number": 64, "value": 0}, "group": "control_change"}, {"time": 525, "annotation": {"number": 64, "value": 127}, "group": "control_change"}, {"time": 542, "annotation": {"number": 64, "value": 0}, "group": "control_change"}, {"time": 550, "annotation": {"number": 64, "value": 127}, "group": "control_change"}, {"time": 589, "annotation": {"number": 64, "value": 0}, "group": "control_change"}, {"time": 596, "annotation": {"number": 64, "value": 127}, "group": "control_change"}, {"time": 614, "annotation": {"number": 64, "value": 0}, "group": "control_change"}, {"time": 621, "annotation": {"number": 64, "value": 127}, "group": "control_change"}, {"time": 639, "annotation": {"number": 64, "value": 0}, "group": "control_change"}, {"time": 644, "annotation": {"number": 64, "value": 127}, "group": "control_change"}, {"time": 661, "annotation": {"number": 64, "value": 0}, "group": "control_change"}, {"time": 675, "annotation": {"number": 64, "value": 127}, "group": "control_change"}, {"time": 687, "annotation": {"number": 64, "value": 0}, "group": "control_change"}, {"time": 693, "annotation": {"number": 64, "value": 127}, "group": "control_change"}, {"time": 712, "annotation": {"number": 64, "value": 0}, "group": "control_change"}, {"time": 717, "annotation": {"number": 64, "value": 127}, "group": "control_change"}, {"time": 733, "annotation": {"number": 64, "value": 0}, "group": "control_change"}, {"time": 738, "annotation": {"number": 64, "value": 127}, "group": "control_change"}, {"time": 757, "annotation": {"number": 64, "value": 0}, "group": "control_change"}, {"time": 763, "annotation": {"number": 64, "value": 127}, "group": "control_change"}, {"time": 776, "annotation": {"number": 64, "value": 0}, "group": "control_change"}, {"time": 792, "annotation": {"number": 64, "value": 127}, "group": "control_change"}, {"time": 810, "annotation": {"number": 64, "value": 0}, "group": "control_change"}, {"time": 816, "annotation": {"number": 64, "value": 127}, "group": "control_change"}, {"time": 830, "annotation": {"number": 64, "value": 0}, "group": "control_change"}, {"time": 838, "annotation": {"number": 64, "value": 127}, "group": "control_change"}, {"time": 877, "annotation": {"number": 64, "value": 0}, "group": "control_change"}, {"time": 885, "annotation": {"number": 64, "value": 127}, "group": "control_change"}, {"time": 902, "annotation": {"number": 64, "value": 0}, "group": "control_change"}, {"time": 909, "annotation": {"number": 64, "value": 127}, "group": "control_change"}, {"time": 926, "annotation": {"number": 64, "value": 0}, "group": "control_change"}, {"time": 934, "annotation": {"number": 64, "value": 127}, "group": "control_change"}, {"time": 973, "annotation": {"number": 64, "value": 0}, "group": "control_change"}, {"time": 980, "annotation": {"number": 64, "value": 127}, "group": "control_change"}, {"time": 998, "annotation": {"number": 64, "value": 0}, "group": "control_change"}, {"time": 1005, "annotation": {"number": 64, "value": 127}, "group": "control_change"}, {"time": 1023, "annotation": {"number": 64, "value": 0}, "group": "control_change"}, {"time": 1028, "annotation": {"number": 64, "value": 127}, "group": "control_change"}, {"time": 1045, "annotation": {"number": 64, "value": 0}, "group": "control_change"}, {"time": 1059, "annotation": {"number": 64, "value": 127}, "group": "control_change"}, {"time": 1071, "annotation": {"number": 64, "value": 0}, "group": "control_change"}, {"time": 1077, "annotation": {"number": 64, "value": 127}, "group": "control_change"}, {"time": 1096, "annotation": {"number": 64, "value": 0}, "group": "control_change"}, {"time": 1101, "annotation": {"number": 64, "value": 127}, "group": "control_change"}, {"time": 1117, "annotation": {"number": 64, "value": 0}, "group": "control_change"}, {"time": 1122, "annotation": {"number": 64, "value": 127}, "group": "control_change"}, {"time": 1141, "annotation": {"number": 64, "value": 0}, "group": "control_change"}, {"time": 1147, "annotation": {"number": 64, "value": 127}, "group": "control_change"}, {"time": 1160, "annotation": {"number": 64, "value": 0}, "group": "control_change"}, {"time": 1170, "annotation": {"number": 64, "value": 127}, "group": "control_change"}, {"time": 1170, "annotation": {"number": 64, "value": 0}, "group": "control_change"}, {"time": 1192, "annotation": {"number": 64, "value": 0}, "group": "control_change"}, {"time": 1198, "annotation": {"number": 64, "value": 127}, "group": "control_change"}, {"time": 1213, "annotation": {"number": 64, "value": 0}, "group": "control_change"}, {"time": 1221, "annotation": {"number": 64, "value": 127}, "group": "control_change"}, {"time": 1237, "annotation": {"number": 64, "value": 0}, "group": "control_change"}, {"time": 1244, "annotation": {"number": 64, "value": 127}, "group": "control_change"}, {"time": 1261, "annotation": {"number": 64, "value": 0}, "group": "control_change"}, {"time": 1268, "annotation": {"number": 64, "value": 127}, "group": "control_change"}, {"time": 1286, "annotation": {"number": 64, "value": 0}, "group": "control_change"}, {"time": 1293, "annotation": {"number": 64, "value": 127}, "group": "control_change"}, {"time": 1310, "annotation": {"number": 64, "value": 0}, "group": "control_change"}, {"time": 1316, "annotation": {"number": 64, "value": 127}, "group": "control_change"}, {"time": 1359, "annotation": {"number": 64, "value": 0}, "group": "control_change"}, {"time": 1365, "annotation": {"number": 64, "value": 127}, "group": "control_change"}, {"time": 1382, "annotation": {"number": 64, "value": 0}, "group": "control_change"}, {"time": 1389, "annotation": {"number": 64, "value": 127}, "group": "control_change"}, {"time": 1406, "annotation": {"number": 64, "value": 0}, "group": "control_change"}, {"time": 1412, "annotation": {"number": 64, "value": 127}, "group": "control_change"}, {"time": 1430, "annotation": {"number": 64, "value": 0}, "group": "control_change"}, {"time": 1442, "annotation": {"number": 64, "value": 127}, "group": "control_change"}, {"time": 1455, "annotation": {"number": 64, "value": 0}, "group": "control_change"}, {"time": 1471, "annotation": {"number": 64, "value": 127}, "group": "control_change"}, {"time": 1480, "annotation": {"number": 64, "value": 0}, "group": "control_change"}, {"time": 1485, "annotation": {"number": 64, "value": 127}, "group": "control_change"}, {"time": 1502, "annotation": {"number": 64, "value": 0}, "group": "control_change"}, {"time": 1514, "annotation": {"number": 64, "value": 127}, "group": "control_change"}, {"time": 1547, "annotation": {"number": 64, "value": 0}, "group": "control_change"}, {"time": 1554, "annotation": {"number": 64, "value": 127}, "group": "control_change"}, {"time": 1554, "annotation": {"number": 64, "value": 0}, "group": "control_change"}, {"time": 1576, "annotation": {"number": 64, "value": 0}, "group": "control_change"}, {"time": 1582, "annotation": {"number": 64, "value": 127}, "group": "control_change"}, {"time": 1597, "annotation": {"number": 64, "value": 0}, "group": "control_change"}, {"time": 1605, "annotation": {"number": 64, "value": 127}, "group": "control_change"}, {"time": 1621, "annotation": {"number": 64, "value": 0}, "group": "control_change"}, {"time": 1628, "annotation": {"number": 64, "value": 127}, "group": "control_change"}, {"time": 1645, "annotation": {"number": 64, "value": 0}, "group": "control_change"}, {"time": 1652, "annotation": {"number": 64, "value": 127}, "group": "control_change"}, {"time": 1670, "annotation": {"number": 64, "value": 0}, "group": "control_change"}, {"time": 1677, "annotation": {"number": 64, "value": 127}, "group": "control_change"}, {"time": 1694, "annotation": {"number": 64, "value": 0}, "group": "control_change"}, {"time": 1700, "annotation": {"number": 64, "value": 127}, "group": "control_change"}, {"time": 1743, "annotation": {"number": 64, "value": 0}, "group": "control_change"}, {"time": 1749, "annotation": {"number": 64, "value": 127}, "group": "control_change"}, {"time": 1766, "annotation": {"number": 64, "value": 0}, "group": "control_change"}, {"time": 1773, "annotation": {"number": 64, "value": 127}, "group": "control_change"}, {"time": 1790, "annotation": {"number": 64, "value": 0}, "group": "control_change"}, {"time": 1796, "annotation": {"number": 64, "value": 127}, "group": "control_change"}, {"time": 1814, "annotation": {"number": 64, "value": 0}, "group": "control_change"}, {"time": 1826, "annotation": {"number": 64, "value": 127}, "group": "control_change"}, {"time": 1839, "annotation": {"number": 64, "value": 0}, "group": "control_change"}, {"time": 1855, "annotation": {"number": 64, "value": 127}, "group": "control_change"}, {"time": 1864, "annotation": {"number": 64, "value": 0}, "group": "control_change"}, {"time": 1869, "annotation": {"number": 64, "value": 127}, "group": "control_change"}, {"time": 1886, "annotation": {"number": 64, "value": 0}, "group": "control_change"}, {"time": 1898, "annotation": {"number": 64, "value": 127}, "group": "control_change"}, {"time": 1931, "annotation": {"number": 64, "value": 0}, "group": "control_change"}, {"time": 1944, "annotation": {"number": 64, "value": 127}, "group": "control_change"}, {"time": 1962, "annotation": {"number": 64, "value": 0}, "group": "control_change"}, {"time": 1968, "annotation": {"number": 64, "value": 127}, "group": "control_change"}, {"time": 1982, "annotation": {"number": 64, "value": 0}, "group": "control_change"}, {"time": 1990, "annotation": {"number": 64, "value": 127}, "group": "control_change"}, {"time": 2029, "annotation": {"number": 64, "value": 0}, "group": "control_change"}, {"time": 2037, "annotation": {"number": 64, "value": 127}, "group": "control_change"}, {"time": 2054, "annotation": {"number": 64, "value": 0}, "group": "control_change"}, {"time": 2061, "annotation": {"number": 64, "value": 127}, "group": "control_change"}, {"time": 2078, "annotation": {"number": 64, "value": 0}, "group": "control_change"}, {"time": 2086, "annotation": {"number": 64, "value": 127}, "group": "control_change"}, {"time": 2125, "annotation": {"number": 64, "value": 0}, "group": "control_change"}, {"time": 2132, "annotation": {"number": 64, "value": 127}, "group": "control_change"}, {"time": 2150, "annotation": {"number": 64, "value": 0}, "group": "control_change"}, {"time": 2157, "annotation": {"number": 64, "value": 127}, "group": "control_change"}, {"time": 2175, "annotation": {"number": 64, "value": 0}, "group": "control_change"}, {"time": 2180, "annotation": {"number": 64, "value": 127}, "group": "control_change"}, {"time": 2197, "annotation": {"number": 64, "value": 0}, "group": "control_change"}, {"time": 2211, "annotation": {"number": 64, "value": 127}, "group": "control_change"}, {"time": 2223, "annotation": {"number": 64, "value": 0}, "group": "control_change"}, {"time": 2229, "annotation": {"number": 64, "value": 127}, "group": "control_change"}, {"time": 2248, "annotation": {"number": 64, "value": 0}, "group": "control_change"}, {"time": 2253, "annotation": {"number": 64, "value": 127}, "group": "control_change"}, {"time": 2269, "annotation": {"number": 64, "value": 0}, "group": "control_change"}, {"time": 2274, "annotation": {"number": 64, "value": 127}, "group": "control_change"}, {"time": 2293, "annotation": {"number": 64, "value": 0}, "group": "control_change"}, {"time": 2299, "annotation": {"number": 64, "value": 127}, "group": "control_change"}, {"time": 2312, "annotation": {"number": 64, "value": 0}, "group": "control_change"}, {"time": 2328, "annotation": {"number": 64, "value": 127}, "group": "control_change"}, {"time": 2346, "annotation": {"number": 64, "value": 0}, "group": "control_change"}, {"time": 2352, "annotation": {"number": 64, "value": 127}, "group": "control_change"}, {"time": 2366, "annotation": {"number": 64, "value": 0}, "group": "control_change"}, {"time": 2374, "annotation": {"number": 64, "value": 127}, "group": "control_change"}, {"time": 2413, "annotation": {"number": 64, "value": 0}, "group": "control_change"}, {"time": 2421, "annotation": {"number": 64, "value": 127}, "group": "control_change"}, {"time": 2438, "annotation": {"number": 64, "value": 0}, "group": "control_change"}, {"time": 2445, "annotation": {"number": 64, "value": 127}, "group": "control_change"}, {"time": 2462, "annotation": {"number": 64, "value": 0}, "group": "control_change"}, {"time": 2470, "annotation": {"number": 64, "value": 127}, "group": "control_change"}, {"time": 2509, "annotation": {"number": 64, "value": 0}, "group": "control_change"}, {"time": 2516, "annotation": {"number": 64, "value": 127}, "group": "control_change"}, {"time": 2534, "annotation": {"number": 64, "value": 0}, "group": "control_change"}, {"time": 2541, "annotation": {"number": 64, "value": 127}, "group": "control_change"}, {"time": 2559, "annotation": {"number": 64, "value": 0}, "group": "control_change"}, {"time": 2564, "annotation": {"number": 64, "value": 127}, "group": "control_change"}, {"time": 2581, "annotation": {"number": 64, "value": 0}, "group": "control_change"}, {"time": 2595, "annotation": {"number": 64, "value": 127}, "group": "control_change"}, {"time": 2607, "annotation": {"number": 64, "value": 0}, "group": "control_change"}, {"time": 2613, "annotation": {"number": 64, "value": 127}, "group": "control_change"}, {"time": 2632, "annotation": {"number": 64, "value": 0}, "group": "control_change"}, {"time": 2637, "annotation": {"number": 64, "value": 127}, "group": "control_change"}, {"time": 2653, "annotation": {"number": 64, "value": 0}, "group": "control_change"}, {"time": 2658, "annotation": {"number": 64, "value": 127}, "group": "control_change"}, {"time": 2677, "annotation": {"number": 64, "value": 0}, "group": "control_change"}, {"time": 2683, "annotation": {"number": 64, "value": 127}, "group": "control_change"}, {"time": 2696, "annotation": {"number": 64, "value": 0}, "group": "control_change"}, {"time": 2706, "annotation": {"number": 64, "value": 127}, "group": "control_change"}, {"time": 2706, "annotation": {"number": 64, "value": 0}, "group": "control_change"}, {"time": 2728, "annotation": {"number": 64, "value": 0}, "group": "control_change"}, {"time": 2734, "annotation": {"number": 64, "value": 127}, "group": "control_change"}, {"time": 2749, "annotation": {"number": 64, "value": 0}, "group": "control_change"}, {"time": 2757, "annotation": {"number": 64, "value": 127}, "group": "control_change"}, {"time": 2773, "annotation": {"number": 64, "value": 0}, "group": "control_change"}, {"time": 2780, "annotation": {"number": 64, "value": 127}, "group": "control_change"}, {"time": 2797, "annotation": {"number": 64, "value": 0}, "group": "control_change"}, {"time": 2804, "annotation": {"number": 64, "value": 127}, "group": "control_change"}, {"time": 2822, "annotation": {"number": 64, "value": 0}, "group": "control_change"}, {"time": 2829, "annotation": {"number": 64, "value": 127}, "group": "control_change"}, {"time": 2846, "annotation": {"number": 64, "value": 0}, "group": "control_change"}, {"time": 2852, "annotation": {"number": 64, "value": 127}, "group": "control_change"}, {"time": 2895, "annotation": {"number": 64, "value": 0}, "group": "control_change"}, {"time": 2901, "annotation": {"number": 64, "value": 127}, "group": "control_change"}, {"time": 2918, "annotation": {"number": 64, "value": 0}, "group": "control_change"}, {"time": 2925, "annotation": {"number": 64, "value": 127}, "group": "control_change"}, {"time": 2942, "annotation": {"number": 64, "value": 0}, "group": "control_change"}, {"time": 2948, "annotation": {"number": 64, "value": 127}, "group": "control_change"}, {"time": 2966, "annotation": {"number": 64, "value": 0}, "group": "control_change"}, {"time": 2978, "annotation": {"number": 64, "value": 127}, "group": "control_change"}, {"time": 2991, "annotation": {"number": 64, "value": 0}, "group": "control_change"}, {"time": 3007, "annotation": {"number": 64, "value": 127}, "group": "control_change"}, {"time": 3016, "annotation": {"number": 64, "value": 0}, "group": "control_change"}, {"time": 3021, "annotation": {"number": 64, "value": 127}, "group": "control_change"}, {"time": 3038, "annotation": {"number": 64, "value": 0}, "group": "control_change"}, {"time": 3050, "annotation": {"number": 64, "value": 127}, "group": "control_change"}, {"time": 3083, "annotation": {"number": 64, "value": 0}, "group": "control_change"}, {"time": 3090, "annotation": {"number": 64, "value": 127}, "group": "control_change"}, {"time": 3090, "annotation": {"number": 64, "value": 0}, "group": "control_change"}, {"time": 3112, "annotation": {"number": 64, "value": 0}, "group": "control_change"}, {"time": 3118, "annotation": {"number": 64, "value": 127}, "group": "control_change"}, {"time": 3133, "annotation": {"number": 64, "value": 0}, "group": "control_change"}, {"time": 3141, "annotation": {"number": 64, "value": 127}, "group": "control_change"}, {"time": 3157, "annotation": {"number": 64, "value": 0}, "group": "control_change"}, {"time": 3164, "annotation": {"number": 64, "value": 127}, "group": "control_change"}, {"time": 3181, "annotation": {"number": 64, "value": 0}, "group": "control_change"}, {"time": 3188, "annotation": {"number": 64, "value": 127}, "group": "control_change"}, {"time": 3206, "annotation": {"number": 64, "value": 0}, "group": "control_change"}, {"time": 3213, "annotation": {"number": 64, "value": 127}, "group": "control_change"}, {"time": 3230, "annotation": {"number": 64, "value": 0}, "group": "control_change"}, {"time": 3236, "annotation": {"number": 64, "value": 127}, "group": "control_change"}, {"time": 3279, "annotation": {"number": 64, "value": 0}, "group": "control_change"}, {"time": 3285, "annotation": {"number": 64, "value": 127}, "group": "control_change"}, {"time": 3302, "annotation": {"number": 64, "value": 0}, "group": "control_change"}, {"time": 3309, "annotation": {"number": 64, "value": 127}, "group": "control_change"}, {"time": 3326, "annotation": {"number": 64, "value": 0}, "group": "control_change"}, {"time": 3332, "annotation": {"number": 64, "value": 127}, "group": "control_change"}, {"time": 3350, "annotation": {"number": 64, "value": 0}, "group": "control_change"}, {"time": 3362, "annotation": {"number": 64, "value": 127}, "group": "control_change"}, {"time": 3375, "annotation": {"number": 64, "value": 0}, "group": "control_change"}, {"time": 3391, "annotation": {"number": 64, "value": 127}, "group": "control_change"}, {"time": 3400, "annotation": {"number": 64, "value": 0}, "group": "control_change"}, {"time": 3405, "annotation": {"number": 64, "value": 127}, "group": "control_change"}, {"time": 3422, "annotation": {"number": 64, "value": 0}, "group": "control_change"}, {"time": 3434, "annotation": {"number": 64, "value": 127}, "group": "control_change"}, {"time": 3467, "annotation": {"number": 64, "value": 0}, "group": "control_change"}, {"time": 3471, "annotation": {"number": 64, "value": 127}, "group": "control_change"}, {"time": 3492, "annotation": {"number": 64, "value": 0}, "group": "control_change"}, {"time": 3498, "annotation": {"number": 64, "value": 127}, "group": "control_change"}, {"time": 3538, "annotation": {"number": 64, "value": 0}, "group": "control_change"}, {"time": 3545, "annotation": {"number": 64, "value": 127}, "group": "control_change"}, {"time": 3545, "annotation": {"number": 64, "value": 0}, "group": "control_change"}, {"time": 3587, "annotation": {"number": 64, "value": 0}, "group": "control_change"}, {"time": 3600, "annotation": {"number": 64, "value": 127}, "group": "control_change"}, {"time": 3618, "annotation": {"number": 64, "value": 0}, "group": "control_change"}, {"time": 3624, "annotation": {"number": 64, "value": 127}, "group": "control_change"}, {"time": 3638, "annotation": {"number": 64, "value": 0}, "group": "control_change"}, {"time": 3646, "annotation": {"number": 64, "value": 127}, "group": "control_change"}, {"time": 3685, "annotation": {"number": 64, "value": 0}, "group": "control_change"}, {"time": 3693, "annotation": {"number": 64, "value": 127}, "group": "control_change"}, {"time": 3710, "annotation": {"number": 64, "value": 0}, "group": "control_change"}, {"time": 3717, "annotation": {"number": 64, "value": 127}, "group": "control_change"}, {"time": 3734, "annotation": {"number": 64, "value": 0}, "group": "control_change"}, {"time": 3742, "annotation": {"number": 64, "value": 127}, "group": "control_change"}, {"time": 3781, "annotation": {"number": 64, "value": 0}, "group": "control_change"}, {"time": 3788, "annotation": {"number": 64, "value": 127}, "group": "control_change"}, {"time": 3806, "annotation": {"number": 64, "value": 0}, "group": "control_change"}, {"time": 3813, "annotation": {"number": 64, "value": 127}, "group": "control_change"}, {"time": 3831, "annotation": {"number": 64, "value": 0}, "group": "control_change"}, {"time": 3836, "annotation": {"number": 64, "value": 127}, "group": "control_change"}, {"time": 3853, "annotation": {"number": 64, "value": 0}, "group": "control_change"}, {"time": 3867, "annotation": {"number": 64, "value": 127}, "group": "control_change"}, {"time": 3879, "annotation": {"number": 64, "value": 0}, "group": "control_change"}, {"time": 3885, "annotation": {"number": 64, "value": 127}, "group": "control_change"}, {"time": 3911, "annotation": {"number": 64, "value": 127}, "group": "control_change"}, {"time": 3912, "annotation": {"number": 64, "value": 0}, "group": "control_change"}, {"time": 3912, "annotation": {"number": 64, "value": 127}, "group": "control_change"}, {"time": 3936, "annotation": {"number": 64, "value": 0}, "group": "control_change"}, {"time": 3943, "annotation": {"number": 64, "value": 127}, "group": "control_change"}, {"time": 4017, "annotation": {"number": 64, "value": 0}, "group": "control_change"}]}]}