{"metadata": {"schema_version": "0.2", "title": "None", "source_filename": "508.mid", "source_format": "midi"}, "resolution": 12, "tempos": [{"time": 0, "qpm": 60.500032770851085}, {"time": 348, "qpm": 60.0}, {"time": 432, "qpm": 60.40002939468097}, {"time": 516, "qpm": 60.500032770851085}, {"time": 660, "qpm": 60.30005306404669}, {"time": 876, "qpm": 60.500032770851085}, {"time": 1057, "qpm": 60.10000641066735}, {"time": 1163, "qpm": 60.500032770851085}, {"time": 1548, "qpm": 60.20004474869993}, {"time": 1596, "qpm": 60.30005306404669}, {"time": 2148, "qpm": 60.70005371954754}, {"time": 2196, "qpm": 60.30005306404669}, {"time": 2269, "qpm": 60.70005371954754}, {"time": 2376, "qpm": 60.40002939468097}, {"time": 2532, "qpm": 60.500032770851085}, {"time": 2712, "qpm": 60.0}, {"time": 2900, "qpm": 60.500032770851085}, {"time": 3420, "qpm": 60.0}, {"time": 3468, "qpm": 60.500032770851085}, {"time": 3564, "qpm": 60.0}, {"time": 3684, "qpm": 60.500032770851085}, {"time": 4203, "qpm": 59.00006686674245}, {"time": 4224, "qpm": 60.500032770851085}], "time_signatures": [{"time": 0, "numerator": 1, "denominator": 4}], "tracks": [{"program": 0, "is_drum": false, "name": "MELODY", "notes": [{"time": 536, "pitch": 74, "duration": 5, "velocity": 93}, {"time": 542, "pitch": 74, "duration": 5, "velocity": 99}, {"time": 548, "pitch": 76, "duration": 3, "velocity": 89}, {"time": 551, "pitch": 74, "duration": 2, "velocity": 91}, {"time": 554, "pitch": 76, "duration": 6, "velocity": 93}, {"time": 560, "pitch": 74, "duration": 43, "velocity": 89}, {"time": 608, "pitch": 69, "duration": 4, "velocity": 86}, {"time": 614, "pitch": 71, "duration": 5, "velocity": 86}, {"time": 620, "pitch": 71, "duration": 3, "velocity": 86}, {"time": 623, "pitch": 66, "duration": 3, "velocity": 82}, {"time": 626, "pitch": 64, "duration": 4, "velocity": 84}, {"time": 629, "pitch": 66, "duration": 4, "velocity": 71}, {"time": 632, "pitch": 62, "duration": 27, "velocity": 83}, {"time": 686, "pitch": 59, "duration": 6, "velocity": 84}, {"time": 692, "pitch": 62, "duration": 6, "velocity": 87}, {"time": 698, "pitch": 64, "duration": 5, "velocity": 83}, {"time": 704, "pitch": 67, "duration": 8, "velocity": 83}, {"time": 713, "pitch": 69, "duration": 3, "velocity": 83}, {"time": 716, "pitch": 71, "duration": 3, "velocity": 86}, {"time": 719, "pitch": 74, "duration": 3, "velocity": 93}, {"time": 722, "pitch": 69, "duration": 5, "velocity": 87}, {"time": 728, "pitch": 64, "duration": 7, "velocity": 88}, {"time": 734, "pitch": 69, "duration": 7, "velocity": 87}, {"time": 740, "pitch": 67, "duration": 4, "velocity": 77}, {"time": 743, "pitch": 69, "duration": 3, "velocity": 84}, {"time": 746, "pitch": 64, "duration": 6, "velocity": 81}, {"time": 752, "pitch": 62, "duration": 22, "velocity": 80}, {"time": 776, "pitch": 62, "duration": 6, "velocity": 85}, {"time": 782, "pitch": 74, "duration": 2, "velocity": 98}, {"time": 785, "pitch": 74, "duration": 2, "velocity": 89}, {"time": 788, "pitch": 74, "duration": 3, "velocity": 88}, {"time": 791, "pitch": 71, "duration": 2, "velocity": 82}, {"time": 794, "pitch": 69, "duration": 2, "velocity": 86}, {"time": 797, "pitch": 71, "duration": 2, "velocity": 82}, {"time": 800, "pitch": 67, "duration": 6, "velocity": 79}, {"time": 806, "pitch": 66, "duration": 5, "velocity": 81}, {"time": 812, "pitch": 64, "duration": 3, "velocity": 84}, {"time": 815, "pitch": 66, "duration": 3, "velocity": 82}, {"time": 818, "pitch": 62, "duration": 5, "velocity": 84}, {"time": 824, "pitch": 62, "duration": 44, "velocity": 83}, {"time": 872, "pitch": 62, "duration": 6, "velocity": 87}, {"time": 878, "pitch": 74, "duration": 4, "velocity": 93}, {"time": 884, "pitch": 74, "duration": 2, "velocity": 89}, {"time": 887, "pitch": 71, "duration": 2, "velocity": 73}, {"time": 890, "pitch": 69, "duration": 6, "velocity": 84}, {"time": 896, "pitch": 67, "duration": 18, "velocity": 82}, {"time": 914, "pitch": 64, "duration": 2, "velocity": 89}, {"time": 917, "pitch": 67, "duration": 3, "velocity": 83}, {"time": 920, "pitch": 69, "duration": 8, "velocity": 84}, {"time": 929, "pitch": 69, "duration": 2, "velocity": 82}, {"time": 932, "pitch": 71, "duration": 2, "velocity": 84}, {"time": 935, "pitch": 66, "duration": 2, "velocity": 80}, {"time": 938, "pitch": 64, "duration": 3, "velocity": 86}, {"time": 941, "pitch": 66, "duration": 3, "velocity": 82}, {"time": 944, "pitch": 62, "duration": 19, "velocity": 83}, {"time": 968, "pitch": 64, "duration": 5, "velocity": 87}, {"time": 974, "pitch": 67, "duration": 11, "velocity": 82}, {"time": 986, "pitch": 69, "duration": 5, "velocity": 83}, {"time": 992, "pitch": 71, "duration": 6, "velocity": 83}, {"time": 998, "pitch": 74, "duration": 11, "velocity": 87}, {"time": 1010, "pitch": 71, "duration": 5, "velocity": 87}, {"time": 1016, "pitch": 76, "duration": 2, "velocity": 84}, {"time": 1019, "pitch": 76, "duration": 5, "velocity": 84}, {"time": 1025, "pitch": 76, "duration": 2, "velocity": 86}, {"time": 1028, "pitch": 74, "duration": 2, "velocity": 87}, {"time": 1031, "pitch": 76, "duration": 2, "velocity": 86}, {"time": 1034, "pitch": 71, "duration": 2, "velocity": 85}, {"time": 1037, "pitch": 71, "duration": 2, "velocity": 83}, {"time": 1040, "pitch": 69, "duration": 9, "velocity": 81}, {"time": 1049, "pitch": 64, "duration": 2, "velocity": 89}, {"time": 1052, "pitch": 67, "duration": 2, "velocity": 74}, {"time": 1055, "pitch": 69, "duration": 2, "velocity": 80}, {"time": 1058, "pitch": 71, "duration": 5, "velocity": 83}, {"time": 1064, "pitch": 69, "duration": 27, "velocity": 82}, {"time": 1160, "pitch": 62, "duration": 6, "velocity": 87}, {"time": 1166, "pitch": 74, "duration": 4, "velocity": 93}, {"time": 1172, "pitch": 74, "duration": 2, "velocity": 89}, {"time": 1175, "pitch": 71, "duration": 2, "velocity": 73}, {"time": 1178, "pitch": 69, "duration": 6, "velocity": 84}, {"time": 1184, "pitch": 67, "duration": 18, "velocity": 82}, {"time": 1202, "pitch": 64, "duration": 2, "velocity": 89}, {"time": 1205, "pitch": 67, "duration": 3, "velocity": 83}, {"time": 1208, "pitch": 69, "duration": 8, "velocity": 84}, {"time": 1217, "pitch": 69, "duration": 2, "velocity": 82}, {"time": 1220, "pitch": 71, "duration": 2, "velocity": 84}, {"time": 1223, "pitch": 66, "duration": 2, "velocity": 80}, {"time": 1226, "pitch": 64, "duration": 3, "velocity": 86}, {"time": 1229, "pitch": 66, "duration": 3, "velocity": 82}, {"time": 1232, "pitch": 62, "duration": 19, "velocity": 83}, {"time": 1256, "pitch": 64, "duration": 5, "velocity": 87}, {"time": 1262, "pitch": 67, "duration": 11, "velocity": 82}, {"time": 1274, "pitch": 69, "duration": 5, "velocity": 83}, {"time": 1280, "pitch": 71, "duration": 6, "velocity": 83}, {"time": 1286, "pitch": 74, "duration": 11, "velocity": 87}, {"time": 1298, "pitch": 71, "duration": 5, "velocity": 87}, {"time": 1304, "pitch": 76, "duration": 2, "velocity": 84}, {"time": 1307, "pitch": 76, "duration": 5, "velocity": 84}, {"time": 1313, "pitch": 76, "duration": 2, "velocity": 86}, {"time": 1316, "pitch": 74, "duration": 2, "velocity": 87}, {"time": 1319, "pitch": 76, "duration": 2, "velocity": 86}, {"time": 1322, "pitch": 71, "duration": 2, "velocity": 85}, {"time": 1325, "pitch": 71, "duration": 2, "velocity": 83}, {"time": 1328, "pitch": 69, "duration": 9, "velocity": 81}, {"time": 1337, "pitch": 64, "duration": 2, "velocity": 89}, {"time": 1340, "pitch": 67, "duration": 2, "velocity": 74}, {"time": 1343, "pitch": 69, "duration": 2, "velocity": 80}, {"time": 1346, "pitch": 71, "duration": 5, "velocity": 83}, {"time": 1352, "pitch": 69, "duration": 27, "velocity": 82}, {"time": 1400, "pitch": 71, "duration": 7, "velocity": 91}, {"time": 1409, "pitch": 74, "duration": 2, "velocity": 87}, {"time": 1412, "pitch": 74, "duration": 4, "velocity": 87}, {"time": 1418, "pitch": 66, "duration": 5, "velocity": 83}, {"time": 1424, "pitch": 64, "duration": 5, "velocity": 89}, {"time": 1430, "pitch": 66, "duration": 3, "velocity": 88}, {"time": 1433, "pitch": 64, "duration": 3, "velocity": 84}, {"time": 1436, "pitch": 62, "duration": 10, "velocity": 84}, {"time": 1448, "pitch": 62, "duration": 8, "velocity": 84}, {"time": 1457, "pitch": 64, "duration": 3, "velocity": 85}, {"time": 1460, "pitch": 66, "duration": 4, "velocity": 83}, {"time": 1466, "pitch": 71, "duration": 2, "velocity": 83}, {"time": 1469, "pitch": 74, "duration": 3, "velocity": 89}, {"time": 1472, "pitch": 69, "duration": 14, "velocity": 84}, {"time": 1496, "pitch": 71, "duration": 8, "velocity": 86}, {"time": 1505, "pitch": 74, "duration": 2, "velocity": 91}, {"time": 1508, "pitch": 74, "duration": 5, "velocity": 96}, {"time": 1514, "pitch": 66, "duration": 5, "velocity": 82}, {"time": 1520, "pitch": 64, "duration": 5, "velocity": 88}, {"time": 1526, "pitch": 66, "duration": 3, "velocity": 83}, {"time": 1529, "pitch": 64, "duration": 3, "velocity": 84}, {"time": 1532, "pitch": 62, "duration": 6, "velocity": 83}, {"time": 1544, "pitch": 66, "duration": 8, "velocity": 83}, {"time": 1553, "pitch": 66, "duration": 2, "velocity": 76}, {"time": 1556, "pitch": 66, "duration": 6, "velocity": 84}, {"time": 1562, "pitch": 64, "duration": 6, "velocity": 83}, {"time": 1568, "pitch": 62, "duration": 22, "velocity": 84}, {"time": 1592, "pitch": 74, "duration": 18, "velocity": 89}, {"time": 1610, "pitch": 76, "duration": 5, "velocity": 86}, {"time": 1616, "pitch": 76, "duration": 5, "velocity": 84}, {"time": 1622, "pitch": 67, "duration": 11, "velocity": 84}, {"time": 1634, "pitch": 64, "duration": 4, "velocity": 91}, {"time": 1640, "pitch": 64, "duration": 5, "velocity": 93}, {"time": 1646, "pitch": 71, "duration": 5, "velocity": 86}, {"time": 1652, "pitch": 74, "duration": 2, "velocity": 86}, {"time": 1655, "pitch": 76, "duration": 3, "velocity": 91}, {"time": 1658, "pitch": 71, "duration": 6, "velocity": 86}, {"time": 1664, "pitch": 69, "duration": 21, "velocity": 85}, {"time": 1688, "pitch": 74, "duration": 17, "velocity": 91}, {"time": 1706, "pitch": 76, "duration": 5, "velocity": 84}, {"time": 1712, "pitch": 76, "duration": 5, "velocity": 88}, {"time": 1718, "pitch": 67, "duration": 14, "velocity": 82}, {"time": 1736, "pitch": 64, "duration": 6, "velocity": 89}, {"time": 1742, "pitch": 76, "duration": 4, "velocity": 91}, {"time": 1748, "pitch": 76, "duration": 3, "velocity": 84}, {"time": 1751, "pitch": 74, "duration": 3, "velocity": 84}, {"time": 1754, "pitch": 76, "duration": 5, "velocity": 86}, {"time": 1760, "pitch": 74, "duration": 23, "velocity": 87}, {"time": 1790, "pitch": 76, "duration": 5, "velocity": 86}, {"time": 1796, "pitch": 76, "duration": 6, "velocity": 86}, {"time": 1802, "pitch": 74, "duration": 3, "velocity": 91}, {"time": 1805, "pitch": 76, "duration": 3, "velocity": 85}, {"time": 1808, "pitch": 67, "duration": 11, "velocity": 84}, {"time": 1826, "pitch": 64, "duration": 2, "velocity": 91}, {"time": 1829, "pitch": 67, "duration": 2, "velocity": 82}, {"time": 1832, "pitch": 69, "duration": 8, "velocity": 83}, {"time": 1841, "pitch": 71, "duration": 2, "velocity": 80}, {"time": 1844, "pitch": 66, "duration": 3, "velocity": 82}, {"time": 1847, "pitch": 69, "duration": 2, "velocity": 80}, {"time": 1850, "pitch": 64, "duration": 5, "velocity": 81}, {"time": 1856, "pitch": 64, "duration": 16, "velocity": 86}, {"time": 1886, "pitch": 59, "duration": 5, "velocity": 83}, {"time": 1892, "pitch": 62, "duration": 6, "velocity": 83}, {"time": 1898, "pitch": 64, "duration": 2, "velocity": 83}, {"time": 1901, "pitch": 64, "duration": 3, "velocity": 83}, {"time": 1904, "pitch": 67, "duration": 7, "velocity": 83}, {"time": 1913, "pitch": 69, "duration": 2, "velocity": 83}, {"time": 1916, "pitch": 71, "duration": 5, "velocity": 83}, {"time": 1922, "pitch": 74, "duration": 2, "velocity": 86}, {"time": 1925, "pitch": 74, "duration": 2, "velocity": 83}, {"time": 1928, "pitch": 74, "duration": 4, "velocity": 87}, {"time": 1934, "pitch": 64, "duration": 3, "velocity": 83}, {"time": 1937, "pitch": 66, "duration": 3, "velocity": 83}, {"time": 1940, "pitch": 62, "duration": 24, "velocity": 84}, {"time": 1982, "pitch": 59, "duration": 6, "velocity": 84}, {"time": 1988, "pitch": 62, "duration": 6, "velocity": 82}, {"time": 1994, "pitch": 64, "duration": 7, "velocity": 82}, {"time": 2000, "pitch": 67, "duration": 9, "velocity": 82}, {"time": 2009, "pitch": 69, "duration": 4, "velocity": 81}, {"time": 2012, "pitch": 71, "duration": 7, "velocity": 86}, {"time": 2018, "pitch": 78, "duration": 4, "velocity": 84}, {"time": 2021, "pitch": 76, "duration": 3, "velocity": 81}, {"time": 2024, "pitch": 74, "duration": 17, "velocity": 86}, {"time": 2042, "pitch": 71, "duration": 5, "velocity": 86}, {"time": 2048, "pitch": 69, "duration": 7, "velocity": 86}, {"time": 2057, "pitch": 71, "duration": 2, "velocity": 86}, {"time": 2060, "pitch": 74, "duration": 2, "velocity": 88}, {"time": 2063, "pitch": 67, "duration": 3, "velocity": 80}, {"time": 2066, "pitch": 64, "duration": 2, "velocity": 88}, {"time": 2069, "pitch": 67, "duration": 2, "velocity": 82}, {"time": 2072, "pitch": 69, "duration": 15, "velocity": 83}, {"time": 2090, "pitch": 71, "duration": 2, "velocity": 83}, {"time": 2093, "pitch": 74, "duration": 2, "velocity": 88}, {"time": 2096, "pitch": 62, "duration": 7, "velocity": 84}, {"time": 2105, "pitch": 64, "duration": 2, "velocity": 83}, {"time": 2108, "pitch": 66, "duration": 4, "velocity": 82}, {"time": 2114, "pitch": 71, "duration": 3, "velocity": 82}, {"time": 2117, "pitch": 74, "duration": 2, "velocity": 89}, {"time": 2120, "pitch": 69, "duration": 5, "velocity": 83}, {"time": 2126, "pitch": 66, "duration": 5, "velocity": 83}, {"time": 2132, "pitch": 64, "duration": 3, "velocity": 83}, {"time": 2135, "pitch": 66, "duration": 3, "velocity": 83}, {"time": 2138, "pitch": 62, "duration": 5, "velocity": 83}, {"time": 2144, "pitch": 62, "duration": 18, "velocity": 82}, {"time": 2162, "pitch": 64, "duration": 6, "velocity": 83}, {"time": 2168, "pitch": 62, "duration": 22, "velocity": 82}, {"time": 2192, "pitch": 74, "duration": 5, "velocity": 93}, {"time": 2198, "pitch": 74, "duration": 5, "velocity": 99}, {"time": 2204, "pitch": 76, "duration": 3, "velocity": 89}, {"time": 2207, "pitch": 74, "duration": 2, "velocity": 91}, {"time": 2210, "pitch": 76, "duration": 6, "velocity": 93}, {"time": 2216, "pitch": 74, "duration": 43, "velocity": 89}, {"time": 2264, "pitch": 69, "duration": 4, "velocity": 86}, {"time": 2270, "pitch": 71, "duration": 5, "velocity": 86}, {"time": 2276, "pitch": 71, "duration": 3, "velocity": 86}, {"time": 2279, "pitch": 66, "duration": 3, "velocity": 82}, {"time": 2282, "pitch": 64, "duration": 4, "velocity": 84}, {"time": 2285, "pitch": 66, "duration": 4, "velocity": 71}, {"time": 2288, "pitch": 62, "duration": 27, "velocity": 83}, {"time": 2342, "pitch": 59, "duration": 6, "velocity": 84}, {"time": 2348, "pitch": 62, "duration": 6, "velocity": 87}, {"time": 2354, "pitch": 64, "duration": 5, "velocity": 83}, {"time": 2360, "pitch": 67, "duration": 8, "velocity": 83}, {"time": 2369, "pitch": 69, "duration": 3, "velocity": 83}, {"time": 2372, "pitch": 71, "duration": 3, "velocity": 86}, {"time": 2375, "pitch": 74, "duration": 3, "velocity": 93}, {"time": 2378, "pitch": 69, "duration": 5, "velocity": 87}, {"time": 2385, "pitch": 69, "duration": 43, "velocity": 97}, {"time": 2432, "pitch": 62, "duration": 6, "velocity": 85}, {"time": 2438, "pitch": 74, "duration": 2, "velocity": 98}, {"time": 2441, "pitch": 74, "duration": 2, "velocity": 89}, {"time": 2444, "pitch": 74, "duration": 3, "velocity": 88}, {"time": 2447, "pitch": 71, "duration": 2, "velocity": 82}, {"time": 2450, "pitch": 69, "duration": 2, "velocity": 86}, {"time": 2453, "pitch": 71, "duration": 2, "velocity": 82}, {"time": 2456, "pitch": 67, "duration": 6, "velocity": 79}, {"time": 2462, "pitch": 66, "duration": 5, "velocity": 81}, {"time": 2468, "pitch": 64, "duration": 3, "velocity": 84}, {"time": 2471, "pitch": 66, "duration": 3, "velocity": 82}, {"time": 2474, "pitch": 62, "duration": 5, "velocity": 84}, {"time": 2480, "pitch": 62, "duration": 44, "velocity": 83}, {"time": 2528, "pitch": 62, "duration": 6, "velocity": 87}, {"time": 2534, "pitch": 74, "duration": 4, "velocity": 93}, {"time": 2540, "pitch": 74, "duration": 2, "velocity": 89}, {"time": 2543, "pitch": 71, "duration": 2, "velocity": 73}, {"time": 2546, "pitch": 69, "duration": 6, "velocity": 84}, {"time": 2552, "pitch": 67, "duration": 18, "velocity": 82}, {"time": 2570, "pitch": 64, "duration": 2, "velocity": 89}, {"time": 2573, "pitch": 67, "duration": 3, "velocity": 83}, {"time": 2576, "pitch": 69, "duration": 8, "velocity": 84}, {"time": 2585, "pitch": 69, "duration": 2, "velocity": 82}, {"time": 2588, "pitch": 71, "duration": 2, "velocity": 84}, {"time": 2591, "pitch": 66, "duration": 2, "velocity": 80}, {"time": 2594, "pitch": 64, "duration": 3, "velocity": 86}, {"time": 2597, "pitch": 66, "duration": 3, "velocity": 82}, {"time": 2600, "pitch": 62, "duration": 19, "velocity": 83}, {"time": 2624, "pitch": 64, "duration": 5, "velocity": 87}, {"time": 2630, "pitch": 67, "duration": 11, "velocity": 82}, {"time": 2642, "pitch": 69, "duration": 5, "velocity": 83}, {"time": 2648, "pitch": 71, "duration": 6, "velocity": 83}, {"time": 2654, "pitch": 74, "duration": 11, "velocity": 87}, {"time": 2666, "pitch": 71, "duration": 5, "velocity": 87}, {"time": 2672, "pitch": 76, "duration": 2, "velocity": 84}, {"time": 2675, "pitch": 76, "duration": 5, "velocity": 84}, {"time": 2681, "pitch": 76, "duration": 2, "velocity": 86}, {"time": 2684, "pitch": 74, "duration": 2, "velocity": 87}, {"time": 2687, "pitch": 76, "duration": 2, "velocity": 86}, {"time": 2690, "pitch": 71, "duration": 2, "velocity": 85}, {"time": 2693, "pitch": 71, "duration": 2, "velocity": 83}, {"time": 2696, "pitch": 69, "duration": 9, "velocity": 81}, {"time": 2705, "pitch": 64, "duration": 2, "velocity": 89}, {"time": 2708, "pitch": 67, "duration": 2, "velocity": 74}, {"time": 2711, "pitch": 69, "duration": 2, "velocity": 80}, {"time": 2714, "pitch": 71, "duration": 5, "velocity": 83}, {"time": 2720, "pitch": 69, "duration": 27, "velocity": 82}, {"time": 2816, "pitch": 62, "duration": 6, "velocity": 87}, {"time": 2822, "pitch": 74, "duration": 4, "velocity": 93}, {"time": 2828, "pitch": 74, "duration": 2, "velocity": 89}, {"time": 2831, "pitch": 71, "duration": 2, "velocity": 73}, {"time": 2834, "pitch": 69, "duration": 6, "velocity": 84}, {"time": 2840, "pitch": 67, "duration": 18, "velocity": 82}, {"time": 2858, "pitch": 64, "duration": 2, "velocity": 89}, {"time": 2861, "pitch": 67, "duration": 3, "velocity": 83}, {"time": 2864, "pitch": 69, "duration": 8, "velocity": 84}, {"time": 2873, "pitch": 69, "duration": 2, "velocity": 82}, {"time": 2876, "pitch": 71, "duration": 2, "velocity": 84}, {"time": 2879, "pitch": 66, "duration": 2, "velocity": 80}, {"time": 2882, "pitch": 64, "duration": 3, "velocity": 86}, {"time": 2885, "pitch": 66, "duration": 3, "velocity": 82}, {"time": 2888, "pitch": 62, "duration": 19, "velocity": 83}, {"time": 2912, "pitch": 64, "duration": 5, "velocity": 87}, {"time": 2918, "pitch": 67, "duration": 11, "velocity": 82}, {"time": 2930, "pitch": 69, "duration": 5, "velocity": 83}, {"time": 2936, "pitch": 71, "duration": 6, "velocity": 83}, {"time": 2942, "pitch": 74, "duration": 11, "velocity": 87}, {"time": 2954, "pitch": 71, "duration": 5, "velocity": 87}, {"time": 2960, "pitch": 76, "duration": 2, "velocity": 84}, {"time": 2963, "pitch": 76, "duration": 5, "velocity": 84}, {"time": 2969, "pitch": 76, "duration": 2, "velocity": 86}, {"time": 2972, "pitch": 74, "duration": 2, "velocity": 87}, {"time": 2975, "pitch": 76, "duration": 2, "velocity": 86}, {"time": 2978, "pitch": 71, "duration": 2, "velocity": 85}, {"time": 2981, "pitch": 71, "duration": 2, "velocity": 83}, {"time": 2984, "pitch": 69, "duration": 9, "velocity": 81}, {"time": 2993, "pitch": 64, "duration": 2, "velocity": 89}, {"time": 2996, "pitch": 67, "duration": 2, "velocity": 74}, {"time": 2999, "pitch": 69, "duration": 2, "velocity": 80}, {"time": 3002, "pitch": 71, "duration": 5, "velocity": 83}, {"time": 3008, "pitch": 69, "duration": 27, "velocity": 82}, {"time": 3056, "pitch": 71, "duration": 7, "velocity": 91}, {"time": 3065, "pitch": 74, "duration": 2, "velocity": 87}, {"time": 3068, "pitch": 74, "duration": 4, "velocity": 87}, {"time": 3074, "pitch": 66, "duration": 5, "velocity": 83}, {"time": 3080, "pitch": 64, "duration": 5, "velocity": 89}, {"time": 3086, "pitch": 66, "duration": 3, "velocity": 88}, {"time": 3089, "pitch": 64, "duration": 3, "velocity": 84}, {"time": 3092, "pitch": 62, "duration": 10, "velocity": 84}, {"time": 3104, "pitch": 62, "duration": 8, "velocity": 84}, {"time": 3113, "pitch": 64, "duration": 3, "velocity": 85}, {"time": 3116, "pitch": 66, "duration": 4, "velocity": 83}, {"time": 3122, "pitch": 71, "duration": 2, "velocity": 83}, {"time": 3125, "pitch": 74, "duration": 3, "velocity": 89}, {"time": 3128, "pitch": 69, "duration": 14, "velocity": 84}, {"time": 3152, "pitch": 71, "duration": 8, "velocity": 86}, {"time": 3161, "pitch": 74, "duration": 2, "velocity": 91}, {"time": 3164, "pitch": 74, "duration": 5, "velocity": 96}, {"time": 3170, "pitch": 66, "duration": 5, "velocity": 82}, {"time": 3176, "pitch": 64, "duration": 5, "velocity": 88}, {"time": 3182, "pitch": 66, "duration": 3, "velocity": 83}, {"time": 3185, "pitch": 64, "duration": 3, "velocity": 84}, {"time": 3188, "pitch": 62, "duration": 6, "velocity": 83}, {"time": 3200, "pitch": 66, "duration": 8, "velocity": 83}, {"time": 3209, "pitch": 66, "duration": 2, "velocity": 76}, {"time": 3212, "pitch": 66, "duration": 6, "velocity": 84}, {"time": 3218, "pitch": 64, "duration": 6, "velocity": 83}, {"time": 3224, "pitch": 62, "duration": 22, "velocity": 84}, {"time": 3248, "pitch": 74, "duration": 18, "velocity": 89}, {"time": 3266, "pitch": 76, "duration": 5, "velocity": 86}, {"time": 3272, "pitch": 76, "duration": 5, "velocity": 84}, {"time": 3278, "pitch": 67, "duration": 11, "velocity": 84}, {"time": 3290, "pitch": 64, "duration": 4, "velocity": 91}, {"time": 3296, "pitch": 64, "duration": 5, "velocity": 93}, {"time": 3302, "pitch": 71, "duration": 5, "velocity": 86}, {"time": 3308, "pitch": 74, "duration": 2, "velocity": 86}, {"time": 3311, "pitch": 76, "duration": 3, "velocity": 91}, {"time": 3314, "pitch": 71, "duration": 6, "velocity": 86}, {"time": 3320, "pitch": 69, "duration": 21, "velocity": 85}, {"time": 3344, "pitch": 74, "duration": 17, "velocity": 91}, {"time": 3362, "pitch": 76, "duration": 5, "velocity": 84}, {"time": 3368, "pitch": 76, "duration": 5, "velocity": 88}, {"time": 3374, "pitch": 67, "duration": 14, "velocity": 82}, {"time": 3392, "pitch": 64, "duration": 6, "velocity": 89}, {"time": 3398, "pitch": 76, "duration": 4, "velocity": 91}, {"time": 3404, "pitch": 76, "duration": 3, "velocity": 84}, {"time": 3407, "pitch": 74, "duration": 3, "velocity": 84}, {"time": 3410, "pitch": 76, "duration": 5, "velocity": 86}, {"time": 3416, "pitch": 74, "duration": 23, "velocity": 87}, {"time": 3446, "pitch": 76, "duration": 5, "velocity": 86}, {"time": 3452, "pitch": 76, "duration": 6, "velocity": 86}, {"time": 3458, "pitch": 74, "duration": 3, "velocity": 91}, {"time": 3461, "pitch": 76, "duration": 3, "velocity": 85}, {"time": 3464, "pitch": 67, "duration": 11, "velocity": 84}, {"time": 3482, "pitch": 64, "duration": 2, "velocity": 91}, {"time": 3485, "pitch": 67, "duration": 2, "velocity": 82}, {"time": 3488, "pitch": 69, "duration": 8, "velocity": 83}, {"time": 3497, "pitch": 71, "duration": 2, "velocity": 80}, {"time": 3500, "pitch": 66, "duration": 3, "velocity": 82}, {"time": 3503, "pitch": 69, "duration": 2, "velocity": 80}, {"time": 3506, "pitch": 64, "duration": 5, "velocity": 81}, {"time": 3512, "pitch": 64, "duration": 16, "velocity": 86}, {"time": 3542, "pitch": 59, "duration": 5, "velocity": 83}, {"time": 3548, "pitch": 62, "duration": 6, "velocity": 83}, {"time": 3554, "pitch": 64, "duration": 2, "velocity": 83}, {"time": 3557, "pitch": 64, "duration": 3, "velocity": 83}, {"time": 3560, "pitch": 67, "duration": 7, "velocity": 83}, {"time": 3569, "pitch": 69, "duration": 2, "velocity": 83}, {"time": 3572, "pitch": 71, "duration": 5, "velocity": 83}, {"time": 3578, "pitch": 74, "duration": 2, "velocity": 86}, {"time": 3581, "pitch": 74, "duration": 2, "velocity": 83}, {"time": 3584, "pitch": 74, "duration": 4, "velocity": 87}, {"time": 3590, "pitch": 64, "duration": 3, "velocity": 85}, {"time": 3593, "pitch": 66, "duration": 3, "velocity": 83}, {"time": 3596, "pitch": 62, "duration": 24, "velocity": 84}, {"time": 3638, "pitch": 59, "duration": 6, "velocity": 84}, {"time": 3644, "pitch": 62, "duration": 6, "velocity": 82}, {"time": 3650, "pitch": 64, "duration": 7, "velocity": 82}, {"time": 3656, "pitch": 67, "duration": 9, "velocity": 82}, {"time": 3665, "pitch": 69, "duration": 4, "velocity": 81}, {"time": 3668, "pitch": 71, "duration": 7, "velocity": 86}, {"time": 3674, "pitch": 78, "duration": 4, "velocity": 84}, {"time": 3677, "pitch": 76, "duration": 3, "velocity": 81}, {"time": 3680, "pitch": 74, "duration": 17, "velocity": 86}, {"time": 3698, "pitch": 71, "duration": 5, "velocity": 86}, {"time": 3704, "pitch": 69, "duration": 7, "velocity": 86}, {"time": 3713, "pitch": 71, "duration": 2, "velocity": 86}, {"time": 3716, "pitch": 74, "duration": 2, "velocity": 88}, {"time": 3719, "pitch": 67, "duration": 3, "velocity": 80}, {"time": 3722, "pitch": 64, "duration": 2, "velocity": 88}, {"time": 3725, "pitch": 67, "duration": 2, "velocity": 82}, {"time": 3728, "pitch": 69, "duration": 15, "velocity": 83}, {"time": 3746, "pitch": 71, "duration": 2, "velocity": 83}, {"time": 3749, "pitch": 74, "duration": 2, "velocity": 88}, {"time": 3752, "pitch": 62, "duration": 7, "velocity": 84}, {"time": 3761, "pitch": 64, "duration": 2, "velocity": 83}, {"time": 3764, "pitch": 66, "duration": 4, "velocity": 82}, {"time": 3770, "pitch": 71, "duration": 3, "velocity": 82}, {"time": 3773, "pitch": 74, "duration": 2, "velocity": 89}, {"time": 3776, "pitch": 69, "duration": 5, "velocity": 83}, {"time": 3782, "pitch": 66, "duration": 5, "velocity": 83}, {"time": 3788, "pitch": 64, "duration": 3, "velocity": 83}, {"time": 3791, "pitch": 66, "duration": 3, "velocity": 83}, {"time": 3794, "pitch": 62, "duration": 5, "velocity": 83}, {"time": 3800, "pitch": 62, "duration": 18, "velocity": 82}, {"time": 3818, "pitch": 64, "duration": 6, "velocity": 83}, {"time": 3824, "pitch": 62, "duration": 22, "velocity": 82}, {"time": 3848, "pitch": 74, "duration": 5, "velocity": 93}, {"time": 3854, "pitch": 74, "duration": 5, "velocity": 99}, {"time": 3860, "pitch": 76, "duration": 3, "velocity": 89}, {"time": 3863, "pitch": 74, "duration": 2, "velocity": 91}, {"time": 3866, "pitch": 76, "duration": 6, "velocity": 93}, {"time": 3872, "pitch": 74, "duration": 43, "velocity": 89}, {"time": 3920, "pitch": 69, "duration": 4, "velocity": 86}, {"time": 3926, "pitch": 71, "duration": 5, "velocity": 86}, {"time": 3932, "pitch": 71, "duration": 3, "velocity": 86}, {"time": 3935, "pitch": 66, "duration": 3, "velocity": 82}, {"time": 3938, "pitch": 64, "duration": 4, "velocity": 84}, {"time": 3941, "pitch": 66, "duration": 4, "velocity": 71}, {"time": 3944, "pitch": 62, "duration": 27, "velocity": 83}, {"time": 3992, "pitch": 74, "duration": 5, "velocity": 93}, {"time": 3998, "pitch": 74, "duration": 5, "velocity": 99}, {"time": 4004, "pitch": 76, "duration": 3, "velocity": 89}, {"time": 4007, "pitch": 74, "duration": 2, "velocity": 91}, {"time": 4010, "pitch": 76, "duration": 6, "velocity": 93}, {"time": 4016, "pitch": 74, "duration": 43, "velocity": 89}, {"time": 4070, "pitch": 74, "duration": 2, "velocity": 86}, {"time": 4073, "pitch": 74, "duration": 2, "velocity": 88}, {"time": 4076, "pitch": 74, "duration": 3, "velocity": 88}, {"time": 4079, "pitch": 71, "duration": 2, "velocity": 79}, {"time": 4082, "pitch": 69, "duration": 2, "velocity": 83}, {"time": 4085, "pitch": 71, "duration": 2, "velocity": 82}, {"time": 4088, "pitch": 67, "duration": 7, "velocity": 75}, {"time": 4100, "pitch": 64, "duration": 3, "velocity": 83}, {"time": 4103, "pitch": 66, "duration": 2, "velocity": 70}, {"time": 4106, "pitch": 62, "duration": 5, "velocity": 83}, {"time": 4112, "pitch": 62, "duration": 25, "velocity": 85}, {"time": 4162, "pitch": 78, "duration": 23, "velocity": 88}, {"time": 4184, "pitch": 76, "duration": 9, "velocity": 89}, {"time": 4192, "pitch": 78, "duration": 13, "velocity": 91}, {"time": 4204, "pitch": 71, "duration": 16, "velocity": 87}, {"time": 4220, "pitch": 74, "duration": 5, "velocity": 93}, {"time": 4226, "pitch": 74, "duration": 5, "velocity": 99}, {"time": 4232, "pitch": 76, "duration": 3, "velocity": 89}, {"time": 4235, "pitch": 74, "duration": 2, "velocity": 91}, {"time": 4238, "pitch": 76, "duration": 6, "velocity": 93}, {"time": 4244, "pitch": 74, "duration": 43, "velocity": 89}, {"time": 4292, "pitch": 69, "duration": 4, "velocity": 86}, {"time": 4298, "pitch": 71, "duration": 5, "velocity": 86}, {"time": 4304, "pitch": 71, "duration": 3, "velocity": 86}, {"time": 4307, "pitch": 66, "duration": 3, "velocity": 82}, {"time": 4310, "pitch": 64, "duration": 4, "velocity": 84}, {"time": 4313, "pitch": 66, "duration": 4, "velocity": 71}, {"time": 4316, "pitch": 62, "duration": 27, "velocity": 83}, {"time": 4364, "pitch": 74, "duration": 5, "velocity": 93}, {"time": 4370, "pitch": 74, "duration": 5, "velocity": 99}, {"time": 4376, "pitch": 76, "duration": 3, "velocity": 89}, {"time": 4379, "pitch": 74, "duration": 2, "velocity": 91}, {"time": 4382, "pitch": 76, "duration": 6, "velocity": 93}, {"time": 4388, "pitch": 74, "duration": 43, "velocity": 89}]}, {"program": 0, "is_drum": false, "name": "BRIDGE", "notes": [{"time": 134, "pitch": 62, "duration": 6, "velocity": 93}, {"time": 140, "pitch": 64, "duration": 6, "velocity": 88}, {"time": 146, "pitch": 74, "duration": 6, "velocity": 96}, {"time": 152, "pitch": 71, "duration": 36, "velocity": 88}, {"time": 188, "pitch": 64, "duration": 7, "velocity": 93}, {"time": 194, "pitch": 74, "duration": 8, "velocity": 88}, {"time": 200, "pitch": 69, "duration": 30, "velocity": 82}, {"time": 230, "pitch": 62, "duration": 5, "velocity": 88}, {"time": 236, "pitch": 64, "duration": 6, "velocity": 84}, {"time": 242, "pitch": 74, "duration": 6, "velocity": 91}, {"time": 248, "pitch": 71, "duration": 30, "velocity": 82}, {"time": 278, "pitch": 74, "duration": 5, "velocity": 87}, {"time": 284, "pitch": 76, "duration": 6, "velocity": 84}, {"time": 290, "pitch": 67, "duration": 5, "velocity": 83}, {"time": 296, "pitch": 69, "duration": 30, "velocity": 83}, {"time": 326, "pitch": 74, "duration": 6, "velocity": 93}, {"time": 332, "pitch": 76, "duration": 6, "velocity": 89}, {"time": 338, "pitch": 86, "duration": 7, "velocity": 93}, {"time": 344, "pitch": 83, "duration": 27, "velocity": 87}, {"time": 350, "pitch": 62, "duration": 7, "velocity": 77}, {"time": 356, "pitch": 67, "duration": 7, "velocity": 76}, {"time": 362, "pitch": 69, "duration": 7, "velocity": 82}, {"time": 368, "pitch": 71, "duration": 26, "velocity": 81}, {"time": 380, "pitch": 88, "duration": 6, "velocity": 88}, {"time": 386, "pitch": 86, "duration": 6, "velocity": 87}, {"time": 392, "pitch": 81, "duration": 30, "velocity": 88}, {"time": 398, "pitch": 64, "duration": 9, "velocity": 83}, {"time": 404, "pitch": 69, "duration": 6, "velocity": 84}, {"time": 410, "pitch": 71, "duration": 6, "velocity": 80}, {"time": 416, "pitch": 72, "duration": 24, "velocity": 82}, {"time": 422, "pitch": 74, "duration": 6, "velocity": 93}, {"time": 428, "pitch": 76, "duration": 7, "velocity": 96}, {"time": 434, "pitch": 86, "duration": 7, "velocity": 84}, {"time": 440, "pitch": 81, "duration": 35, "velocity": 85}, {"time": 446, "pitch": 71, "duration": 6, "velocity": 81}, {"time": 452, "pitch": 73, "duration": 5, "velocity": 86}, {"time": 458, "pitch": 71, "duration": 3, "velocity": 82}, {"time": 461, "pitch": 69, "duration": 3, "velocity": 77}, {"time": 464, "pitch": 64, "duration": 23, "velocity": 70}, {"time": 476, "pitch": 83, "duration": 6, "velocity": 85}, {"time": 482, "pitch": 88, "duration": 7, "velocity": 96}, {"time": 488, "pitch": 66, "duration": 7, "velocity": 82}, {"time": 488, "pitch": 86, "duration": 33, "velocity": 89}, {"time": 494, "pitch": 67, "duration": 6, "velocity": 77}, {"time": 500, "pitch": 69, "duration": 6, "velocity": 82}, {"time": 506, "pitch": 67, "duration": 7, "velocity": 82}, {"time": 512, "pitch": 74, "duration": 24, "velocity": 87}, {"time": 525, "pitch": 62, "duration": 2, "velocity": 85}, {"time": 527, "pitch": 64, "duration": 1, "velocity": 86}, {"time": 528, "pitch": 66, "duration": 2, "velocity": 76}, {"time": 530, "pitch": 67, "duration": 1, "velocity": 81}, {"time": 531, "pitch": 69, "duration": 2, "velocity": 81}, {"time": 533, "pitch": 71, "duration": 2, "velocity": 70}, {"time": 535, "pitch": 72, "duration": 2, "velocity": 85}, {"time": 536, "pitch": 83, "duration": 22, "velocity": 81}, {"time": 536, "pitch": 74, "duration": 8, "velocity": 87}, {"time": 560, "pitch": 83, "duration": 6, "velocity": 79}, {"time": 560, "pitch": 79, "duration": 5, "velocity": 78}, {"time": 566, "pitch": 74, "duration": 6, "velocity": 93}, {"time": 572, "pitch": 76, "duration": 6, "velocity": 87}, {"time": 578, "pitch": 86, "duration": 6, "velocity": 89}, {"time": 584, "pitch": 83, "duration": 23, "velocity": 84}, {"time": 608, "pitch": 81, "duration": 5, "velocity": 84}, {"time": 614, "pitch": 83, "duration": 4, "velocity": 83}, {"time": 620, "pitch": 83, "duration": 5, "velocity": 88}, {"time": 626, "pitch": 76, "duration": 3, "velocity": 84}, {"time": 629, "pitch": 79, "duration": 3, "velocity": 79}, {"time": 632, "pitch": 74, "duration": 6, "velocity": 89}, {"time": 638, "pitch": 74, "duration": 1, "velocity": 89}, {"time": 644, "pitch": 76, "duration": 6, "velocity": 86}, {"time": 650, "pitch": 86, "duration": 6, "velocity": 82}, {"time": 656, "pitch": 81, "duration": 18, "velocity": 84}, {"time": 674, "pitch": 86, "duration": 6, "velocity": 83}, {"time": 680, "pitch": 83, "duration": 36, "velocity": 83}, {"time": 692, "pitch": 62, "duration": 6, "velocity": 75}, {"time": 698, "pitch": 64, "duration": 5, "velocity": 86}, {"time": 704, "pitch": 67, "duration": 12, "velocity": 78}, {"time": 722, "pitch": 86, "duration": 6, "velocity": 82}, {"time": 728, "pitch": 81, "duration": 18, "velocity": 75}, {"time": 728, "pitch": 57, "duration": 22, "velocity": 72}, {"time": 746, "pitch": 79, "duration": 6, "velocity": 80}, {"time": 752, "pitch": 81, "duration": 18, "velocity": 78}, {"time": 752, "pitch": 50, "duration": 12, "velocity": 78}, {"time": 764, "pitch": 52, "duration": 10, "velocity": 82}, {"time": 770, "pitch": 83, "duration": 6, "velocity": 86}, {"time": 776, "pitch": 79, "duration": 23, "velocity": 79}, {"time": 776, "pitch": 55, "duration": 23, "velocity": 82}, {"time": 800, "pitch": 76, "duration": 23, "velocity": 82}, {"time": 800, "pitch": 57, "duration": 12, "velocity": 78}, {"time": 812, "pitch": 59, "duration": 12, "velocity": 82}, {"time": 824, "pitch": 62, "duration": 13, "velocity": 76}, {"time": 824, "pitch": 74, "duration": 48, "velocity": 88}, {"time": 836, "pitch": 66, "duration": 6, "velocity": 71}, {"time": 842, "pitch": 64, "duration": 6, "velocity": 82}, {"time": 848, "pitch": 62, "duration": 22, "velocity": 77}, {"time": 1070, "pitch": 62, "duration": 7, "velocity": 78}, {"time": 1070, "pitch": 74, "duration": 7, "velocity": 96}, {"time": 1076, "pitch": 64, "duration": 7, "velocity": 83}, {"time": 1076, "pitch": 76, "duration": 8, "velocity": 98}, {"time": 1082, "pitch": 62, "duration": 7, "velocity": 78}, {"time": 1082, "pitch": 86, "duration": 7, "velocity": 89}, {"time": 1088, "pitch": 59, "duration": 15, "velocity": 77}, {"time": 1088, "pitch": 83, "duration": 24, "velocity": 86}, {"time": 1100, "pitch": 55, "duration": 7, "velocity": 78}, {"time": 1106, "pitch": 57, "duration": 6, "velocity": 78}, {"time": 1112, "pitch": 59, "duration": 25, "velocity": 78}, {"time": 1118, "pitch": 74, "duration": 7, "velocity": 86}, {"time": 1124, "pitch": 76, "duration": 6, "velocity": 96}, {"time": 1130, "pitch": 86, "duration": 7, "velocity": 87}, {"time": 1136, "pitch": 57, "duration": 24, "velocity": 74}, {"time": 1136, "pitch": 81, "duration": 23, "velocity": 88}, {"time": 1241, "pitch": 71, "duration": 4, "velocity": 76}, {"time": 1244, "pitch": 69, "duration": 5, "velocity": 70}, {"time": 1247, "pitch": 71, "duration": 4, "velocity": 78}, {"time": 1250, "pitch": 74, "duration": 6, "velocity": 84}, {"time": 1253, "pitch": 71, "duration": 6, "velocity": 74}, {"time": 1256, "pitch": 69, "duration": 10, "velocity": 75}, {"time": 1358, "pitch": 74, "duration": 6, "velocity": 96}, {"time": 1364, "pitch": 76, "duration": 7, "velocity": 89}, {"time": 1370, "pitch": 86, "duration": 6, "velocity": 88}, {"time": 1376, "pitch": 81, "duration": 11, "velocity": 87}, {"time": 1388, "pitch": 79, "duration": 2, "velocity": 89}, {"time": 1390, "pitch": 78, "duration": 2, "velocity": 87}, {"time": 1391, "pitch": 76, "duration": 2, "velocity": 73}, {"time": 1393, "pitch": 74, "duration": 2, "velocity": 89}, {"time": 1395, "pitch": 72, "duration": 2, "velocity": 69}, {"time": 1397, "pitch": 71, "duration": 1, "velocity": 76}, {"time": 1398, "pitch": 69, "duration": 1, "velocity": 82}, {"time": 1399, "pitch": 67, "duration": 1, "velocity": 73}, {"time": 1400, "pitch": 71, "duration": 19, "velocity": 83}, {"time": 1418, "pitch": 74, "duration": 7, "velocity": 83}, {"time": 1424, "pitch": 76, "duration": 13, "velocity": 82}, {"time": 1436, "pitch": 74, "duration": 12, "velocity": 83}, {"time": 1454, "pitch": 71, "duration": 6, "velocity": 80}, {"time": 1460, "pitch": 69, "duration": 6, "velocity": 74}, {"time": 1465, "pitch": 67, "duration": 6, "velocity": 83}, {"time": 1472, "pitch": 69, "duration": 12, "velocity": 84}, {"time": 1484, "pitch": 69, "duration": 7, "velocity": 83}, {"time": 1490, "pitch": 71, "duration": 7, "velocity": 82}, {"time": 1496, "pitch": 74, "duration": 24, "velocity": 84}, {"time": 1520, "pitch": 76, "duration": 12, "velocity": 83}, {"time": 1532, "pitch": 74, "duration": 12, "velocity": 82}, {"time": 1544, "pitch": 69, "duration": 20, "velocity": 72}, {"time": 1544, "pitch": 73, "duration": 20, "velocity": 70}, {"time": 1568, "pitch": 69, "duration": 12, "velocity": 71}, {"time": 1568, "pitch": 74, "duration": 12, "velocity": 82}, {"time": 1581, "pitch": 74, "duration": 2, "velocity": 79}, {"time": 1582, "pitch": 76, "duration": 3, "velocity": 84}, {"time": 1584, "pitch": 78, "duration": 2, "velocity": 72}, {"time": 1586, "pitch": 79, "duration": 2, "velocity": 83}, {"time": 1588, "pitch": 81, "duration": 2, "velocity": 83}, {"time": 1589, "pitch": 83, "duration": 2, "velocity": 77}, {"time": 1590, "pitch": 84, "duration": 3, "velocity": 78}, {"time": 1592, "pitch": 86, "duration": 23, "velocity": 87}, {"time": 1622, "pitch": 74, "duration": 7, "velocity": 91}, {"time": 1628, "pitch": 76, "duration": 7, "velocity": 86}, {"time": 1635, "pitch": 86, "duration": 6, "velocity": 83}, {"time": 1640, "pitch": 83, "duration": 24, "velocity": 89}, {"time": 1664, "pitch": 81, "duration": 6, "velocity": 84}, {"time": 1670, "pitch": 79, "duration": 7, "velocity": 83}, {"time": 1676, "pitch": 76, "duration": 7, "velocity": 86}, {"time": 1682, "pitch": 83, "duration": 7, "velocity": 91}, {"time": 1688, "pitch": 86, "duration": 24, "velocity": 82}, {"time": 1718, "pitch": 74, "duration": 7, "velocity": 96}, {"time": 1724, "pitch": 76, "duration": 6, "velocity": 86}, {"time": 1730, "pitch": 86, "duration": 7, "velocity": 83}, {"time": 1736, "pitch": 81, "duration": 22, "velocity": 86}, {"time": 1760, "pitch": 86, "duration": 12, "velocity": 85}, {"time": 1772, "pitch": 74, "duration": 2, "velocity": 76}, {"time": 1774, "pitch": 77, "duration": 1, "velocity": 67}, {"time": 1775, "pitch": 78, "duration": 2, "velocity": 85}, {"time": 1777, "pitch": 79, "duration": 1, "velocity": 82}, {"time": 1778, "pitch": 81, "duration": 2, "velocity": 84}, {"time": 1780, "pitch": 83, "duration": 2, "velocity": 76}, {"time": 1782, "pitch": 84, "duration": 2, "velocity": 83}, {"time": 1783, "pitch": 86, "duration": 3, "velocity": 82}, {"time": 1784, "pitch": 88, "duration": 18, "velocity": 84}, {"time": 1808, "pitch": 86, "duration": 6, "velocity": 83}, {"time": 1814, "pitch": 88, "duration": 7, "velocity": 91}, {"time": 1820, "pitch": 81, "duration": 6, "velocity": 75}, {"time": 1826, "pitch": 88, "duration": 6, "velocity": 84}, {"time": 1832, "pitch": 81, "duration": 23, "velocity": 83}, {"time": 1856, "pitch": 79, "duration": 7, "velocity": 84}, {"time": 1862, "pitch": 81, "duration": 6, "velocity": 87}, {"time": 1868, "pitch": 83, "duration": 7, "velocity": 82}, {"time": 1874, "pitch": 79, "duration": 7, "velocity": 82}, {"time": 1880, "pitch": 74, "duration": 23, "velocity": 89}, {"time": 1904, "pitch": 76, "duration": 13, "velocity": 81}, {"time": 1916, "pitch": 79, "duration": 6, "velocity": 78}, {"time": 1922, "pitch": 86, "duration": 6, "velocity": 83}, {"time": 1928, "pitch": 78, "duration": 22, "velocity": 70}, {"time": 1952, "pitch": 74, "duration": 13, "velocity": 76}, {"time": 1952, "pitch": 78, "duration": 6, "velocity": 77}, {"time": 1958, "pitch": 83, "duration": 3, "velocity": 83}, {"time": 1961, "pitch": 86, "duration": 3, "velocity": 84}, {"time": 1964, "pitch": 81, "duration": 4, "velocity": 83}, {"time": 1967, "pitch": 83, "duration": 3, "velocity": 89}, {"time": 1970, "pitch": 78, "duration": 4, "velocity": 80}, {"time": 1973, "pitch": 76, "duration": 4, "velocity": 83}, {"time": 1976, "pitch": 74, "duration": 25, "velocity": 88}, {"time": 2000, "pitch": 76, "duration": 24, "velocity": 84}, {"time": 2024, "pitch": 74, "duration": 6, "velocity": 93}, {"time": 2030, "pitch": 86, "duration": 6, "velocity": 86}, {"time": 2036, "pitch": 81, "duration": 6, "velocity": 83}, {"time": 2042, "pitch": 83, "duration": 7, "velocity": 84}, {"time": 2048, "pitch": 86, "duration": 25, "velocity": 85}, {"time": 2072, "pitch": 84, "duration": 7, "velocity": 84}, {"time": 2078, "pitch": 88, "duration": 7, "velocity": 89}, {"time": 2084, "pitch": 86, "duration": 7, "velocity": 86}, {"time": 2090, "pitch": 88, "duration": 6, "velocity": 91}, {"time": 2096, "pitch": 83, "duration": 13, "velocity": 83}, {"time": 2108, "pitch": 81, "duration": 10, "velocity": 82}, {"time": 2117, "pitch": 79, "duration": 4, "velocity": 76}, {"time": 2120, "pitch": 81, "duration": 11, "velocity": 82}, {"time": 2132, "pitch": 78, "duration": 6, "velocity": 82}, {"time": 2138, "pitch": 76, "duration": 7, "velocity": 83}, {"time": 2144, "pitch": 74, "duration": 24, "velocity": 84}, {"time": 2181, "pitch": 62, "duration": 2, "velocity": 85}, {"time": 2183, "pitch": 64, "duration": 1, "velocity": 86}, {"time": 2184, "pitch": 66, "duration": 2, "velocity": 76}, {"time": 2186, "pitch": 67, "duration": 1, "velocity": 81}, {"time": 2187, "pitch": 69, "duration": 2, "velocity": 81}, {"time": 2189, "pitch": 71, "duration": 2, "velocity": 70}, {"time": 2191, "pitch": 72, "duration": 2, "velocity": 85}, {"time": 2192, "pitch": 83, "duration": 22, "velocity": 81}, {"time": 2192, "pitch": 74, "duration": 8, "velocity": 87}, {"time": 2216, "pitch": 83, "duration": 6, "velocity": 79}, {"time": 2216, "pitch": 79, "duration": 5, "velocity": 78}, {"time": 2222, "pitch": 74, "duration": 6, "velocity": 93}, {"time": 2228, "pitch": 76, "duration": 6, "velocity": 87}, {"time": 2234, "pitch": 86, "duration": 6, "velocity": 89}, {"time": 2240, "pitch": 83, "duration": 23, "velocity": 84}, {"time": 2264, "pitch": 81, "duration": 5, "velocity": 84}, {"time": 2270, "pitch": 83, "duration": 4, "velocity": 83}, {"time": 2276, "pitch": 83, "duration": 5, "velocity": 88}, {"time": 2282, "pitch": 76, "duration": 3, "velocity": 84}, {"time": 2285, "pitch": 79, "duration": 3, "velocity": 79}, {"time": 2288, "pitch": 74, "duration": 6, "velocity": 89}, {"time": 2294, "pitch": 74, "duration": 1, "velocity": 89}, {"time": 2300, "pitch": 76, "duration": 6, "velocity": 86}, {"time": 2306, "pitch": 86, "duration": 6, "velocity": 82}, {"time": 2312, "pitch": 81, "duration": 18, "velocity": 84}, {"time": 2330, "pitch": 86, "duration": 6, "velocity": 83}, {"time": 2336, "pitch": 83, "duration": 36, "velocity": 83}, {"time": 2348, "pitch": 62, "duration": 6, "velocity": 75}, {"time": 2354, "pitch": 64, "duration": 5, "velocity": 86}, {"time": 2360, "pitch": 67, "duration": 12, "velocity": 78}, {"time": 2378, "pitch": 86, "duration": 6, "velocity": 82}, {"time": 2384, "pitch": 81, "duration": 18, "velocity": 75}, {"time": 2384, "pitch": 57, "duration": 22, "velocity": 72}, {"time": 2402, "pitch": 79, "duration": 6, "velocity": 80}, {"time": 2408, "pitch": 81, "duration": 18, "velocity": 78}, {"time": 2408, "pitch": 50, "duration": 12, "velocity": 78}, {"time": 2420, "pitch": 52, "duration": 10, "velocity": 82}, {"time": 2426, "pitch": 83, "duration": 6, "velocity": 86}, {"time": 2432, "pitch": 79, "duration": 23, "velocity": 79}, {"time": 2432, "pitch": 55, "duration": 23, "velocity": 82}, {"time": 2456, "pitch": 76, "duration": 23, "velocity": 82}, {"time": 2456, "pitch": 57, "duration": 12, "velocity": 78}, {"time": 2468, "pitch": 59, "duration": 12, "velocity": 82}, {"time": 2480, "pitch": 62, "duration": 13, "velocity": 76}, {"time": 2480, "pitch": 74, "duration": 48, "velocity": 88}, {"time": 2492, "pitch": 66, "duration": 6, "velocity": 71}, {"time": 2498, "pitch": 64, "duration": 6, "velocity": 82}, {"time": 2504, "pitch": 62, "duration": 22, "velocity": 77}, {"time": 2726, "pitch": 62, "duration": 7, "velocity": 78}, {"time": 2726, "pitch": 74, "duration": 7, "velocity": 96}, {"time": 2732, "pitch": 64, "duration": 7, "velocity": 83}, {"time": 2732, "pitch": 76, "duration": 8, "velocity": 98}, {"time": 2738, "pitch": 62, "duration": 7, "velocity": 78}, {"time": 2738, "pitch": 86, "duration": 7, "velocity": 89}, {"time": 2744, "pitch": 59, "duration": 15, "velocity": 77}, {"time": 2744, "pitch": 83, "duration": 24, "velocity": 86}, {"time": 2756, "pitch": 55, "duration": 7, "velocity": 78}, {"time": 2762, "pitch": 57, "duration": 6, "velocity": 78}, {"time": 2768, "pitch": 59, "duration": 25, "velocity": 78}, {"time": 2774, "pitch": 74, "duration": 7, "velocity": 86}, {"time": 2780, "pitch": 76, "duration": 6, "velocity": 96}, {"time": 2786, "pitch": 86, "duration": 7, "velocity": 87}, {"time": 2792, "pitch": 57, "duration": 24, "velocity": 74}, {"time": 2792, "pitch": 81, "duration": 23, "velocity": 88}, {"time": 2897, "pitch": 71, "duration": 4, "velocity": 76}, {"time": 2900, "pitch": 69, "duration": 5, "velocity": 70}, {"time": 2903, "pitch": 71, "duration": 4, "velocity": 78}, {"time": 2906, "pitch": 74, "duration": 6, "velocity": 84}, {"time": 2909, "pitch": 71, "duration": 6, "velocity": 74}, {"time": 2912, "pitch": 69, "duration": 10, "velocity": 75}, {"time": 3014, "pitch": 74, "duration": 6, "velocity": 96}, {"time": 3020, "pitch": 76, "duration": 7, "velocity": 89}, {"time": 3026, "pitch": 86, "duration": 6, "velocity": 88}, {"time": 3032, "pitch": 81, "duration": 11, "velocity": 87}, {"time": 3044, "pitch": 79, "duration": 2, "velocity": 89}, {"time": 3046, "pitch": 78, "duration": 2, "velocity": 87}, {"time": 3047, "pitch": 76, "duration": 2, "velocity": 73}, {"time": 3049, "pitch": 74, "duration": 2, "velocity": 89}, {"time": 3051, "pitch": 72, "duration": 2, "velocity": 69}, {"time": 3053, "pitch": 71, "duration": 1, "velocity": 76}, {"time": 3054, "pitch": 69, "duration": 1, "velocity": 82}, {"time": 3055, "pitch": 67, "duration": 1, "velocity": 73}, {"time": 3056, "pitch": 71, "duration": 19, "velocity": 83}, {"time": 3074, "pitch": 74, "duration": 7, "velocity": 83}, {"time": 3080, "pitch": 76, "duration": 13, "velocity": 82}, {"time": 3092, "pitch": 74, "duration": 12, "velocity": 83}, {"time": 3110, "pitch": 71, "duration": 6, "velocity": 80}, {"time": 3116, "pitch": 69, "duration": 6, "velocity": 74}, {"time": 3121, "pitch": 67, "duration": 6, "velocity": 83}, {"time": 3128, "pitch": 69, "duration": 12, "velocity": 84}, {"time": 3140, "pitch": 69, "duration": 7, "velocity": 83}, {"time": 3146, "pitch": 71, "duration": 7, "velocity": 82}, {"time": 3152, "pitch": 74, "duration": 24, "velocity": 84}, {"time": 3176, "pitch": 76, "duration": 12, "velocity": 83}, {"time": 3188, "pitch": 74, "duration": 12, "velocity": 82}, {"time": 3200, "pitch": 69, "duration": 20, "velocity": 72}, {"time": 3200, "pitch": 73, "duration": 20, "velocity": 70}, {"time": 3224, "pitch": 69, "duration": 12, "velocity": 71}, {"time": 3224, "pitch": 74, "duration": 12, "velocity": 82}, {"time": 3237, "pitch": 74, "duration": 2, "velocity": 79}, {"time": 3238, "pitch": 76, "duration": 3, "velocity": 84}, {"time": 3240, "pitch": 78, "duration": 2, "velocity": 72}, {"time": 3242, "pitch": 79, "duration": 2, "velocity": 83}, {"time": 3244, "pitch": 81, "duration": 2, "velocity": 83}, {"time": 3245, "pitch": 83, "duration": 2, "velocity": 77}, {"time": 3246, "pitch": 84, "duration": 3, "velocity": 78}, {"time": 3248, "pitch": 86, "duration": 23, "velocity": 87}, {"time": 3278, "pitch": 74, "duration": 7, "velocity": 91}, {"time": 3284, "pitch": 76, "duration": 7, "velocity": 86}, {"time": 3291, "pitch": 86, "duration": 6, "velocity": 83}, {"time": 3296, "pitch": 83, "duration": 24, "velocity": 89}, {"time": 3320, "pitch": 81, "duration": 6, "velocity": 84}, {"time": 3326, "pitch": 79, "duration": 7, "velocity": 83}, {"time": 3332, "pitch": 76, "duration": 7, "velocity": 86}, {"time": 3338, "pitch": 83, "duration": 7, "velocity": 91}, {"time": 3344, "pitch": 86, "duration": 24, "velocity": 82}, {"time": 3374, "pitch": 74, "duration": 7, "velocity": 96}, {"time": 3380, "pitch": 76, "duration": 6, "velocity": 86}, {"time": 3386, "pitch": 86, "duration": 7, "velocity": 83}, {"time": 3392, "pitch": 81, "duration": 22, "velocity": 86}, {"time": 3416, "pitch": 86, "duration": 12, "velocity": 85}, {"time": 3428, "pitch": 74, "duration": 2, "velocity": 76}, {"time": 3430, "pitch": 77, "duration": 1, "velocity": 67}, {"time": 3431, "pitch": 78, "duration": 2, "velocity": 85}, {"time": 3433, "pitch": 79, "duration": 1, "velocity": 82}, {"time": 3434, "pitch": 81, "duration": 2, "velocity": 84}, {"time": 3436, "pitch": 83, "duration": 2, "velocity": 76}, {"time": 3438, "pitch": 84, "duration": 2, "velocity": 83}, {"time": 3439, "pitch": 86, "duration": 3, "velocity": 82}, {"time": 3440, "pitch": 88, "duration": 18, "velocity": 84}, {"time": 3464, "pitch": 86, "duration": 6, "velocity": 83}, {"time": 3470, "pitch": 88, "duration": 7, "velocity": 91}, {"time": 3476, "pitch": 81, "duration": 6, "velocity": 75}, {"time": 3482, "pitch": 88, "duration": 6, "velocity": 84}, {"time": 3488, "pitch": 81, "duration": 23, "velocity": 83}, {"time": 3512, "pitch": 79, "duration": 7, "velocity": 84}, {"time": 3518, "pitch": 81, "duration": 6, "velocity": 87}, {"time": 3524, "pitch": 83, "duration": 7, "velocity": 82}, {"time": 3530, "pitch": 79, "duration": 7, "velocity": 82}, {"time": 3536, "pitch": 74, "duration": 23, "velocity": 89}, {"time": 3560, "pitch": 76, "duration": 13, "velocity": 81}, {"time": 3572, "pitch": 79, "duration": 6, "velocity": 78}, {"time": 3578, "pitch": 86, "duration": 6, "velocity": 83}, {"time": 3584, "pitch": 78, "duration": 22, "velocity": 70}, {"time": 3608, "pitch": 74, "duration": 13, "velocity": 76}, {"time": 3608, "pitch": 78, "duration": 6, "velocity": 77}, {"time": 3614, "pitch": 83, "duration": 3, "velocity": 83}, {"time": 3617, "pitch": 86, "duration": 3, "velocity": 84}, {"time": 3620, "pitch": 81, "duration": 4, "velocity": 83}, {"time": 3623, "pitch": 83, "duration": 3, "velocity": 89}, {"time": 3626, "pitch": 78, "duration": 4, "velocity": 80}, {"time": 3629, "pitch": 76, "duration": 4, "velocity": 83}, {"time": 3632, "pitch": 74, "duration": 25, "velocity": 88}, {"time": 3656, "pitch": 76, "duration": 24, "velocity": 84}, {"time": 3680, "pitch": 74, "duration": 6, "velocity": 93}, {"time": 3686, "pitch": 86, "duration": 6, "velocity": 86}, {"time": 3692, "pitch": 81, "duration": 6, "velocity": 83}, {"time": 3698, "pitch": 83, "duration": 7, "velocity": 84}, {"time": 3704, "pitch": 86, "duration": 25, "velocity": 85}, {"time": 3728, "pitch": 84, "duration": 7, "velocity": 84}, {"time": 3734, "pitch": 88, "duration": 7, "velocity": 89}, {"time": 3740, "pitch": 86, "duration": 7, "velocity": 86}, {"time": 3746, "pitch": 88, "duration": 6, "velocity": 91}, {"time": 3752, "pitch": 83, "duration": 13, "velocity": 83}, {"time": 3764, "pitch": 81, "duration": 10, "velocity": 82}, {"time": 3773, "pitch": 79, "duration": 4, "velocity": 76}, {"time": 3776, "pitch": 81, "duration": 11, "velocity": 82}, {"time": 3788, "pitch": 78, "duration": 6, "velocity": 82}, {"time": 3794, "pitch": 76, "duration": 7, "velocity": 83}, {"time": 3800, "pitch": 74, "duration": 24, "velocity": 84}, {"time": 3837, "pitch": 62, "duration": 2, "velocity": 85}, {"time": 3839, "pitch": 64, "duration": 1, "velocity": 86}, {"time": 3840, "pitch": 66, "duration": 2, "velocity": 76}, {"time": 3842, "pitch": 67, "duration": 1, "velocity": 81}, {"time": 3843, "pitch": 69, "duration": 2, "velocity": 81}, {"time": 3845, "pitch": 71, "duration": 2, "velocity": 70}, {"time": 3847, "pitch": 72, "duration": 2, "velocity": 85}, {"time": 3848, "pitch": 83, "duration": 22, "velocity": 81}, {"time": 3848, "pitch": 74, "duration": 8, "velocity": 87}, {"time": 3872, "pitch": 83, "duration": 6, "velocity": 79}, {"time": 3872, "pitch": 79, "duration": 5, "velocity": 78}, {"time": 3878, "pitch": 74, "duration": 6, "velocity": 93}, {"time": 3884, "pitch": 76, "duration": 6, "velocity": 87}, {"time": 3890, "pitch": 86, "duration": 6, "velocity": 89}, {"time": 3896, "pitch": 83, "duration": 23, "velocity": 84}, {"time": 3920, "pitch": 81, "duration": 5, "velocity": 84}, {"time": 3926, "pitch": 83, "duration": 4, "velocity": 83}, {"time": 3932, "pitch": 83, "duration": 5, "velocity": 88}, {"time": 3938, "pitch": 76, "duration": 3, "velocity": 84}, {"time": 3941, "pitch": 79, "duration": 3, "velocity": 79}, {"time": 3944, "pitch": 74, "duration": 6, "velocity": 89}, {"time": 3950, "pitch": 74, "duration": 1, "velocity": 89}, {"time": 3956, "pitch": 76, "duration": 6, "velocity": 86}, {"time": 3962, "pitch": 86, "duration": 6, "velocity": 82}, {"time": 3968, "pitch": 81, "duration": 18, "velocity": 84}, {"time": 3981, "pitch": 74, "duration": 7, "velocity": 84}, {"time": 3987, "pitch": 86, "duration": 6, "velocity": 83}, {"time": 3993, "pitch": 83, "duration": 23, "velocity": 85}, {"time": 4028, "pitch": 88, "duration": 6, "velocity": 83}, {"time": 4034, "pitch": 86, "duration": 7, "velocity": 75}, {"time": 4040, "pitch": 83, "duration": 12, "velocity": 82}, {"time": 4052, "pitch": 79, "duration": 6, "velocity": 81}, {"time": 4058, "pitch": 83, "duration": 7, "velocity": 84}, {"time": 4064, "pitch": 74, "duration": 23, "velocity": 91}, {"time": 4088, "pitch": 76, "duration": 24, "velocity": 84}, {"time": 4112, "pitch": 74, "duration": 25, "velocity": 85}, {"time": 4148, "pitch": 57, "duration": 7, "velocity": 72}, {"time": 4148, "pitch": 69, "duration": 7, "velocity": 83}, {"time": 4154, "pitch": 64, "duration": 7, "velocity": 75}, {"time": 4155, "pitch": 76, "duration": 6, "velocity": 82}, {"time": 4161, "pitch": 74, "duration": 40, "velocity": 81}, {"time": 4161, "pitch": 62, "duration": 31, "velocity": 72}, {"time": 4209, "pitch": 62, "duration": 2, "velocity": 85}, {"time": 4211, "pitch": 64, "duration": 1, "velocity": 86}, {"time": 4212, "pitch": 66, "duration": 2, "velocity": 76}, {"time": 4214, "pitch": 67, "duration": 1, "velocity": 81}, {"time": 4215, "pitch": 69, "duration": 2, "velocity": 81}, {"time": 4217, "pitch": 71, "duration": 2, "velocity": 70}, {"time": 4219, "pitch": 72, "duration": 2, "velocity": 85}, {"time": 4220, "pitch": 83, "duration": 22, "velocity": 81}, {"time": 4220, "pitch": 74, "duration": 8, "velocity": 87}, {"time": 4244, "pitch": 83, "duration": 6, "velocity": 79}, {"time": 4244, "pitch": 79, "duration": 5, "velocity": 78}, {"time": 4250, "pitch": 74, "duration": 6, "velocity": 93}, {"time": 4256, "pitch": 76, "duration": 6, "velocity": 87}, {"time": 4262, "pitch": 86, "duration": 6, "velocity": 89}, {"time": 4268, "pitch": 83, "duration": 23, "velocity": 84}, {"time": 4292, "pitch": 81, "duration": 5, "velocity": 84}, {"time": 4298, "pitch": 83, "duration": 4, "velocity": 83}, {"time": 4304, "pitch": 83, "duration": 5, "velocity": 88}, {"time": 4310, "pitch": 76, "duration": 3, "velocity": 84}, {"time": 4313, "pitch": 79, "duration": 3, "velocity": 79}, {"time": 4316, "pitch": 74, "duration": 6, "velocity": 89}, {"time": 4322, "pitch": 74, "duration": 1, "velocity": 89}, {"time": 4328, "pitch": 76, "duration": 6, "velocity": 86}, {"time": 4334, "pitch": 86, "duration": 6, "velocity": 82}, {"time": 4340, "pitch": 81, "duration": 18, "velocity": 84}, {"time": 4353, "pitch": 74, "duration": 7, "velocity": 84}, {"time": 4359, "pitch": 86, "duration": 6, "velocity": 83}, {"time": 4365, "pitch": 83, "duration": 23, "velocity": 85}, {"time": 4400, "pitch": 88, "duration": 6, "velocity": 83}, {"time": 4406, "pitch": 86, "duration": 7, "velocity": 65}, {"time": 4412, "pitch": 83, "duration": 12, "velocity": 65}, {"time": 4424, "pitch": 79, "duration": 6, "velocity": 64}, {"time": 4430, "pitch": 83, "duration": 7, "velocity": 47}, {"time": 4436, "pitch": 74, "duration": 23, "velocity": 36}]}, {"program": 0, "is_drum": false, "name": "PIANO", "notes": [{"time": 56, "pitch": 43, "duration": 46, "velocity": 60}, {"time": 56, "pitch": 55, "duration": 46, "velocity": 63}, {"time": 56, "pitch": 62, "duration": 17, "velocity": 76}, {"time": 59, "pitch": 71, "duration": 3, "velocity": 82}, {"time": 62, "pitch": 69, "duration": 4, "velocity": 71}, {"time": 65, "pitch": 76, "duration": 5, "velocity": 84}, {"time": 68, "pitch": 74, "duration": 3, "velocity": 75}, {"time": 71, "pitch": 69, "duration": 4, "velocity": 78}, {"time": 74, "pitch": 71, "duration": 3, "velocity": 76}, {"time": 77, "pitch": 67, "duration": 3, "velocity": 74}, {"time": 80, "pitch": 62, "duration": 18, "velocity": 75}, {"time": 83, "pitch": 71, "duration": 4, "velocity": 72}, {"time": 86, "pitch": 69, "duration": 3, "velocity": 68}, {"time": 89, "pitch": 76, "duration": 4, "velocity": 84}, {"time": 92, "pitch": 74, "duration": 3, "velocity": 83}, {"time": 95, "pitch": 69, "duration": 3, "velocity": 70}, {"time": 98, "pitch": 71, "duration": 3, "velocity": 76}, {"time": 101, "pitch": 67, "duration": 3, "velocity": 77}, {"time": 104, "pitch": 43, "duration": 28, "velocity": 74}, {"time": 104, "pitch": 55, "duration": 28, "velocity": 71}, {"time": 104, "pitch": 62, "duration": 17, "velocity": 76}, {"time": 107, "pitch": 71, "duration": 3, "velocity": 82}, {"time": 110, "pitch": 69, "duration": 4, "velocity": 71}, {"time": 113, "pitch": 76, "duration": 5, "velocity": 84}, {"time": 116, "pitch": 74, "duration": 3, "velocity": 75}, {"time": 119, "pitch": 69, "duration": 4, "velocity": 78}, {"time": 122, "pitch": 71, "duration": 3, "velocity": 76}, {"time": 125, "pitch": 67, "duration": 3, "velocity": 74}, {"time": 128, "pitch": 62, "duration": 18, "velocity": 75}, {"time": 131, "pitch": 71, "duration": 4, "velocity": 72}, {"time": 134, "pitch": 69, "duration": 3, "velocity": 68}, {"time": 137, "pitch": 76, "duration": 4, "velocity": 84}, {"time": 140, "pitch": 74, "duration": 3, "velocity": 83}, {"time": 143, "pitch": 69, "duration": 3, "velocity": 70}, {"time": 146, "pitch": 71, "duration": 3, "velocity": 76}, {"time": 149, "pitch": 67, "duration": 3, "velocity": 77}, {"time": 152, "pitch": 43, "duration": 46, "velocity": 60}, {"time": 152, "pitch": 55, "duration": 46, "velocity": 63}, {"time": 152, "pitch": 62, "duration": 17, "velocity": 76}, {"time": 155, "pitch": 71, "duration": 3, "velocity": 82}, {"time": 158, "pitch": 69, "duration": 4, "velocity": 71}, {"time": 161, "pitch": 76, "duration": 5, "velocity": 84}, {"time": 164, "pitch": 74, "duration": 3, "velocity": 75}, {"time": 167, "pitch": 69, "duration": 4, "velocity": 78}, {"time": 170, "pitch": 71, "duration": 3, "velocity": 76}, {"time": 173, "pitch": 67, "duration": 3, "velocity": 74}, {"time": 176, "pitch": 62, "duration": 18, "velocity": 75}, {"time": 179, "pitch": 71, "duration": 4, "velocity": 72}, {"time": 182, "pitch": 69, "duration": 3, "velocity": 68}, {"time": 185, "pitch": 76, "duration": 4, "velocity": 84}, {"time": 188, "pitch": 74, "duration": 3, "velocity": 83}, {"time": 191, "pitch": 69, "duration": 3, "velocity": 70}, {"time": 194, "pitch": 71, "duration": 3, "velocity": 76}, {"time": 197, "pitch": 67, "duration": 3, "velocity": 77}, {"time": 200, "pitch": 36, "duration": 45, "velocity": 60}, {"time": 200, "pitch": 48, "duration": 45, "velocity": 67}, {"time": 200, "pitch": 74, "duration": 6, "velocity": 76}, {"time": 203, "pitch": 72, "duration": 3, "velocity": 82}, {"time": 206, "pitch": 67, "duration": 3, "velocity": 71}, {"time": 209, "pitch": 76, "duration": 5, "velocity": 84}, {"time": 212, "pitch": 74, "duration": 3, "velocity": 75}, {"time": 215, "pitch": 67, "duration": 4, "velocity": 78}, {"time": 218, "pitch": 69, "duration": 3, "velocity": 76}, {"time": 221, "pitch": 64, "duration": 3, "velocity": 74}, {"time": 224, "pitch": 64, "duration": 1, "velocity": 75}, {"time": 227, "pitch": 72, "duration": 4, "velocity": 72}, {"time": 230, "pitch": 62, "duration": 3, "velocity": 68}, {"time": 233, "pitch": 76, "duration": 4, "velocity": 84}, {"time": 236, "pitch": 72, "duration": 3, "velocity": 83}, {"time": 239, "pitch": 67, "duration": 3, "velocity": 70}, {"time": 242, "pitch": 69, "duration": 3, "velocity": 76}, {"time": 245, "pitch": 67, "duration": 3, "velocity": 77}, {"time": 248, "pitch": 45, "duration": 46, "velocity": 75}, {"time": 248, "pitch": 52, "duration": 46, "velocity": 74}, {"time": 248, "pitch": 64, "duration": 6, "velocity": 76}, {"time": 251, "pitch": 73, "duration": 3, "velocity": 82}, {"time": 254, "pitch": 69, "duration": 4, "velocity": 71}, {"time": 257, "pitch": 76, "duration": 5, "velocity": 84}, {"time": 260, "pitch": 74, "duration": 3, "velocity": 75}, {"time": 263, "pitch": 69, "duration": 4, "velocity": 78}, {"time": 266, "pitch": 71, "duration": 3, "velocity": 76}, {"time": 269, "pitch": 64, "duration": 3, "velocity": 74}, {"time": 272, "pitch": 64, "duration": 6, "velocity": 75}, {"time": 275, "pitch": 71, "duration": 4, "velocity": 72}, {"time": 278, "pitch": 69, "duration": 3, "velocity": 68}, {"time": 281, "pitch": 76, "duration": 4, "velocity": 84}, {"time": 284, "pitch": 74, "duration": 3, "velocity": 83}, {"time": 287, "pitch": 69, "duration": 3, "velocity": 70}, {"time": 290, "pitch": 71, "duration": 3, "velocity": 76}, {"time": 293, "pitch": 64, "duration": 3, "velocity": 77}, {"time": 296, "pitch": 38, "duration": 47, "velocity": 66}, {"time": 296, "pitch": 50, "duration": 46, "velocity": 68}, {"time": 296, "pitch": 62, "duration": 6, "velocity": 76}, {"time": 299, "pitch": 69, "duration": 3, "velocity": 82}, {"time": 302, "pitch": 66, "duration": 3, "velocity": 71}, {"time": 305, "pitch": 74, "duration": 5, "velocity": 84}, {"time": 308, "pitch": 69, "duration": 3, "velocity": 75}, {"time": 311, "pitch": 64, "duration": 4, "velocity": 78}, {"time": 314, "pitch": 66, "duration": 3, "velocity": 76}, {"time": 317, "pitch": 62, "duration": 3, "velocity": 74}, {"time": 320, "pitch": 62, "duration": 6, "velocity": 75}, {"time": 323, "pitch": 69, "duration": 4, "velocity": 72}, {"time": 326, "pitch": 66, "duration": 3, "velocity": 68}, {"time": 329, "pitch": 74, "duration": 4, "velocity": 84}, {"time": 332, "pitch": 69, "duration": 3, "velocity": 83}, {"time": 335, "pitch": 67, "duration": 3, "velocity": 70}, {"time": 338, "pitch": 69, "duration": 3, "velocity": 76}, {"time": 341, "pitch": 62, "duration": 3, "velocity": 77}, {"time": 344, "pitch": 43, "duration": 41, "velocity": 83}, {"time": 344, "pitch": 55, "duration": 10, "velocity": 71}, {"time": 344, "pitch": 59, "duration": 10, "velocity": 75}, {"time": 344, "pitch": 62, "duration": 9, "velocity": 81}, {"time": 350, "pitch": 50, "duration": 34, "velocity": 75}, {"time": 356, "pitch": 55, "duration": 8, "velocity": 84}, {"time": 362, "pitch": 62, "duration": 4, "velocity": 76}, {"time": 365, "pitch": 55, "duration": 3, "velocity": 75}, {"time": 368, "pitch": 62, "duration": 3, "velocity": 72}, {"time": 368, "pitch": 67, "duration": 4, "velocity": 77}, {"time": 380, "pitch": 55, "duration": 3, "velocity": 83}, {"time": 380, "pitch": 62, "duration": 3, "velocity": 81}, {"time": 389, "pitch": 55, "duration": 13, "velocity": 70}, {"time": 392, "pitch": 36, "duration": 6, "velocity": 82}, {"time": 392, "pitch": 60, "duration": 13, "velocity": 70}, {"time": 392, "pitch": 64, "duration": 12, "velocity": 79}, {"time": 404, "pitch": 48, "duration": 9, "velocity": 75}, {"time": 407, "pitch": 55, "duration": 6, "velocity": 71}, {"time": 410, "pitch": 60, "duration": 4, "velocity": 80}, {"time": 416, "pitch": 60, "duration": 11, "velocity": 74}, {"time": 416, "pitch": 64, "duration": 10, "velocity": 76}, {"time": 416, "pitch": 67, "duration": 10, "velocity": 72}, {"time": 428, "pitch": 60, "duration": 3, "velocity": 75}, {"time": 428, "pitch": 64, "duration": 2, "velocity": 71}, {"time": 428, "pitch": 67, "duration": 3, "velocity": 74}, {"time": 440, "pitch": 45, "duration": 39, "velocity": 83}, {"time": 440, "pitch": 61, "duration": 10, "velocity": 75}, {"time": 440, "pitch": 64, "duration": 13, "velocity": 82}, {"time": 446, "pitch": 52, "duration": 32, "velocity": 71}, {"time": 452, "pitch": 57, "duration": 8, "velocity": 84}, {"time": 458, "pitch": 61, "duration": 2, "velocity": 89}, {"time": 458, "pitch": 64, "duration": 1, "velocity": 65}, {"time": 461, "pitch": 57, "duration": 13, "velocity": 65}, {"time": 464, "pitch": 61, "duration": 11, "velocity": 74}, {"time": 464, "pitch": 64, "duration": 10, "velocity": 78}, {"time": 464, "pitch": 69, "duration": 7, "velocity": 81}, {"time": 476, "pitch": 57, "duration": 2, "velocity": 74}, {"time": 476, "pitch": 61, "duration": 2, "velocity": 69}, {"time": 476, "pitch": 64, "duration": 3, "velocity": 80}, {"time": 485, "pitch": 62, "duration": 16, "velocity": 66}, {"time": 488, "pitch": 38, "duration": 3, "velocity": 83}, {"time": 488, "pitch": 66, "duration": 12, "velocity": 69}, {"time": 488, "pitch": 69, "duration": 11, "velocity": 76}, {"time": 488, "pitch": 74, "duration": 10, "velocity": 88}, {"time": 494, "pitch": 50, "duration": 32, "velocity": 82}, {"time": 500, "pitch": 57, "duration": 25, "velocity": 82}, {"time": 506, "pitch": 62, "duration": 5, "velocity": 77}, {"time": 512, "pitch": 62, "duration": 11, "velocity": 82}, {"time": 512, "pitch": 66, "duration": 10, "velocity": 82}, {"time": 524, "pitch": 62, "duration": 11, "velocity": 83}, {"time": 524, "pitch": 66, "duration": 11, "velocity": 80}, {"time": 524, "pitch": 69, "duration": 11, "velocity": 83}, {"time": 536, "pitch": 43, "duration": 40, "velocity": 83}, {"time": 536, "pitch": 55, "duration": 11, "velocity": 74}, {"time": 536, "pitch": 59, "duration": 10, "velocity": 64}, {"time": 536, "pitch": 62, "duration": 10, "velocity": 72}, {"time": 542, "pitch": 50, "duration": 34, "velocity": 70}, {"time": 548, "pitch": 55, "duration": 4, "velocity": 83}, {"time": 548, "pitch": 59, "duration": 4, "velocity": 83}, {"time": 548, "pitch": 62, "duration": 5, "velocity": 83}, {"time": 560, "pitch": 59, "duration": 5, "velocity": 83}, {"time": 560, "pitch": 62, "duration": 4, "velocity": 81}, {"time": 566, "pitch": 55, "duration": 5, "velocity": 76}, {"time": 572, "pitch": 59, "duration": 7, "velocity": 83}, {"time": 572, "pitch": 62, "duration": 7, "velocity": 84}, {"time": 572, "pitch": 67, "duration": 8, "velocity": 81}, {"time": 578, "pitch": 55, "duration": 1, "velocity": 87}, {"time": 584, "pitch": 47, "duration": 15, "velocity": 84}, {"time": 584, "pitch": 59, "duration": 9, "velocity": 83}, {"time": 584, "pitch": 62, "duration": 8, "velocity": 82}, {"time": 590, "pitch": 54, "duration": 8, "velocity": 71}, {"time": 596, "pitch": 59, "duration": 3, "velocity": 79}, {"time": 596, "pitch": 62, "duration": 7, "velocity": 82}, {"time": 596, "pitch": 66, "duration": 7, "velocity": 77}, {"time": 602, "pitch": 59, "duration": 2, "velocity": 76}, {"time": 608, "pitch": 45, "duration": 14, "velocity": 83}, {"time": 608, "pitch": 57, "duration": 10, "velocity": 75}, {"time": 608, "pitch": 61, "duration": 10, "velocity": 80}, {"time": 608, "pitch": 64, "duration": 10, "velocity": 82}, {"time": 614, "pitch": 52, "duration": 7, "velocity": 74}, {"time": 620, "pitch": 57, "duration": 4, "velocity": 80}, {"time": 620, "pitch": 61, "duration": 8, "velocity": 82}, {"time": 620, "pitch": 64, "duration": 10, "velocity": 84}, {"time": 626, "pitch": 57, "duration": 5, "velocity": 74}, {"time": 632, "pitch": 38, "duration": 42, "velocity": 84}, {"time": 632, "pitch": 57, "duration": 9, "velocity": 76}, {"time": 632, "pitch": 62, "duration": 9, "velocity": 79}, {"time": 638, "pitch": 45, "duration": 35, "velocity": 66}, {"time": 644, "pitch": 62, "duration": 10, "velocity": 81}, {"time": 644, "pitch": 66, "duration": 8, "velocity": 78}, {"time": 650, "pitch": 57, "duration": 5, "velocity": 80}, {"time": 656, "pitch": 62, "duration": 7, "velocity": 74}, {"time": 656, "pitch": 66, "duration": 7, "velocity": 67}, {"time": 662, "pitch": 57, "duration": 3, "velocity": 66}, {"time": 668, "pitch": 57, "duration": 3, "velocity": 82}, {"time": 668, "pitch": 62, "duration": 11, "velocity": 84}, {"time": 668, "pitch": 66, "duration": 11, "velocity": 83}, {"time": 674, "pitch": 57, "duration": 5, "velocity": 82}, {"time": 680, "pitch": 43, "duration": 20, "velocity": 83}, {"time": 680, "pitch": 55, "duration": 10, "velocity": 77}, {"time": 680, "pitch": 67, "duration": 19, "velocity": 79}, {"time": 686, "pitch": 50, "duration": 13, "velocity": 71}, {"time": 692, "pitch": 55, "duration": 3, "velocity": 83}, {"time": 692, "pitch": 62, "duration": 7, "velocity": 77}, {"time": 698, "pitch": 55, "duration": 2, "velocity": 91}, {"time": 704, "pitch": 40, "duration": 15, "velocity": 78}, {"time": 704, "pitch": 52, "duration": 12, "velocity": 77}, {"time": 704, "pitch": 55, "duration": 7, "velocity": 78}, {"time": 710, "pitch": 47, "duration": 9, "velocity": 74}, {"time": 716, "pitch": 55, "duration": 4, "velocity": 83}, {"time": 716, "pitch": 59, "duration": 6, "velocity": 84}, {"time": 722, "pitch": 52, "duration": 1, "velocity": 86}, {"time": 728, "pitch": 45, "duration": 16, "velocity": 82}, {"time": 728, "pitch": 57, "duration": 9, "velocity": 72}, {"time": 728, "pitch": 60, "duration": 6, "velocity": 78}, {"time": 734, "pitch": 52, "duration": 9, "velocity": 70}, {"time": 740, "pitch": 57, "duration": 2, "velocity": 76}, {"time": 740, "pitch": 60, "duration": 6, "velocity": 87}, {"time": 740, "pitch": 64, "duration": 6, "velocity": 86}, {"time": 746, "pitch": 57, "duration": 5, "velocity": 83}, {"time": 752, "pitch": 38, "duration": 14, "velocity": 83}, {"time": 752, "pitch": 62, "duration": 8, "velocity": 82}, {"time": 752, "pitch": 66, "duration": 8, "velocity": 74}, {"time": 758, "pitch": 45, "duration": 8, "velocity": 66}, {"time": 764, "pitch": 62, "duration": 6, "velocity": 82}, {"time": 764, "pitch": 66, "duration": 6, "velocity": 83}, {"time": 770, "pitch": 57, "duration": 2, "velocity": 83}, {"time": 776, "pitch": 43, "duration": 18, "velocity": 83}, {"time": 776, "pitch": 55, "duration": 9, "velocity": 75}, {"time": 776, "pitch": 59, "duration": 9, "velocity": 73}, {"time": 776, "pitch": 62, "duration": 8, "velocity": 81}, {"time": 782, "pitch": 50, "duration": 11, "velocity": 68}, {"time": 788, "pitch": 55, "duration": 1, "velocity": 69}, {"time": 788, "pitch": 59, "duration": 6, "velocity": 83}, {"time": 788, "pitch": 62, "duration": 7, "velocity": 82}, {"time": 794, "pitch": 55, "duration": 2, "velocity": 84}, {"time": 800, "pitch": 45, "duration": 14, "velocity": 82}, {"time": 800, "pitch": 57, "duration": 11, "velocity": 76}, {"time": 800, "pitch": 61, "duration": 8, "velocity": 71}, {"time": 800, "pitch": 64, "duration": 9, "velocity": 82}, {"time": 806, "pitch": 52, "duration": 7, "velocity": 78}, {"time": 812, "pitch": 61, "duration": 7, "velocity": 81}, {"time": 812, "pitch": 64, "duration": 11, "velocity": 85}, {"time": 812, "pitch": 69, "duration": 8, "velocity": 80}, {"time": 818, "pitch": 57, "duration": 5, "velocity": 81}, {"time": 824, "pitch": 38, "duration": 3, "velocity": 84}, {"time": 824, "pitch": 57, "duration": 3, "velocity": 78}, {"time": 824, "pitch": 62, "duration": 7, "velocity": 79}, {"time": 830, "pitch": 57, "duration": 4, "velocity": 71}, {"time": 835, "pitch": 66, "duration": 5, "velocity": 81}, {"time": 836, "pitch": 62, "duration": 4, "velocity": 78}, {"time": 847, "pitch": 57, "duration": 5, "velocity": 66}, {"time": 847, "pitch": 62, "duration": 5, "velocity": 74}, {"time": 847, "pitch": 38, "duration": 18, "velocity": 84}, {"time": 848, "pitch": 66, "duration": 5, "velocity": 75}, {"time": 858, "pitch": 62, "duration": 1, "velocity": 64}, {"time": 859, "pitch": 66, "duration": 2, "velocity": 63}, {"time": 860, "pitch": 69, "duration": 1, "velocity": 68}, {"time": 860, "pitch": 74, "duration": 2, "velocity": 75}, {"time": 872, "pitch": 43, "duration": 22, "velocity": 82}, {"time": 875, "pitch": 50, "duration": 19, "velocity": 69}, {"time": 878, "pitch": 62, "duration": 7, "velocity": 77}, {"time": 881, "pitch": 55, "duration": 4, "velocity": 58}, {"time": 884, "pitch": 64, "duration": 7, "velocity": 84}, {"time": 887, "pitch": 55, "duration": 4, "velocity": 73}, {"time": 890, "pitch": 62, "duration": 11, "velocity": 76}, {"time": 893, "pitch": 55, "duration": 7, "velocity": 70}, {"time": 896, "pitch": 43, "duration": 22, "velocity": 81}, {"time": 899, "pitch": 50, "duration": 11, "velocity": 66}, {"time": 902, "pitch": 55, "duration": 6, "velocity": 75}, {"time": 905, "pitch": 59, "duration": 4, "velocity": 73}, {"time": 908, "pitch": 62, "duration": 13, "velocity": 80}, {"time": 911, "pitch": 50, "duration": 7, "velocity": 68}, {"time": 914, "pitch": 55, "duration": 6, "velocity": 73}, {"time": 917, "pitch": 59, "duration": 5, "velocity": 76}, {"time": 920, "pitch": 45, "duration": 23, "velocity": 83}, {"time": 923, "pitch": 52, "duration": 20, "velocity": 75}, {"time": 926, "pitch": 61, "duration": 4, "velocity": 70}, {"time": 929, "pitch": 57, "duration": 4, "velocity": 71}, {"time": 932, "pitch": 64, "duration": 7, "velocity": 83}, {"time": 935, "pitch": 57, "duration": 4, "velocity": 62}, {"time": 938, "pitch": 61, "duration": 4, "velocity": 82}, {"time": 941, "pitch": 57, "duration": 4, "velocity": 76}, {"time": 944, "pitch": 50, "duration": 20, "velocity": 83}, {"time": 947, "pitch": 57, "duration": 4, "velocity": 76}, {"time": 950, "pitch": 62, "duration": 4, "velocity": 76}, {"time": 953, "pitch": 57, "duration": 4, "velocity": 69}, {"time": 956, "pitch": 64, "duration": 4, "velocity": 81}, {"time": 959, "pitch": 62, "duration": 4, "velocity": 79}, {"time": 962, "pitch": 57, "duration": 3, "velocity": 74}, {"time": 968, "pitch": 45, "duration": 21, "velocity": 83}, {"time": 971, "pitch": 52, "duration": 5, "velocity": 80}, {"time": 974, "pitch": 57, "duration": 7, "velocity": 82}, {"time": 980, "pitch": 64, "duration": 7, "velocity": 82}, {"time": 983, "pitch": 52, "duration": 8, "velocity": 79}, {"time": 986, "pitch": 57, "duration": 5, "velocity": 76}, {"time": 989, "pitch": 64, "duration": 4, "velocity": 76}, {"time": 992, "pitch": 47, "duration": 18, "velocity": 83}, {"time": 998, "pitch": 62, "duration": 7, "velocity": 78}, {"time": 1001, "pitch": 59, "duration": 5, "velocity": 78}, {"time": 1004, "pitch": 54, "duration": 4, "velocity": 78}, {"time": 1007, "pitch": 59, "duration": 4, "velocity": 82}, {"time": 1010, "pitch": 62, "duration": 5, "velocity": 73}, {"time": 1013, "pitch": 59, "duration": 4, "velocity": 77}, {"time": 1016, "pitch": 40, "duration": 16, "velocity": 82}, {"time": 1016, "pitch": 64, "duration": 7, "velocity": 72}, {"time": 1019, "pitch": 47, "duration": 12, "velocity": 65}, {"time": 1022, "pitch": 59, "duration": 6, "velocity": 73}, {"time": 1025, "pitch": 64, "duration": 4, "velocity": 82}, {"time": 1028, "pitch": 67, "duration": 4, "velocity": 84}, {"time": 1031, "pitch": 64, "duration": 3, "velocity": 82}, {"time": 1034, "pitch": 59, "duration": 4, "velocity": 76}, {"time": 1037, "pitch": 64, "duration": 9, "velocity": 77}, {"time": 1040, "pitch": 45, "duration": 22, "velocity": 80}, {"time": 1043, "pitch": 52, "duration": 19, "velocity": 71}, {"time": 1046, "pitch": 57, "duration": 4, "velocity": 70}, {"time": 1049, "pitch": 60, "duration": 4, "velocity": 74}, {"time": 1052, "pitch": 64, "duration": 4, "velocity": 83}, {"time": 1055, "pitch": 60, "duration": 3, "velocity": 81}, {"time": 1058, "pitch": 57, "duration": 5, "velocity": 74}, {"time": 1061, "pitch": 60, "duration": 3, "velocity": 76}, {"time": 1064, "pitch": 50, "duration": 23, "velocity": 84}, {"time": 1067, "pitch": 57, "duration": 4, "velocity": 77}, {"time": 1070, "pitch": 62, "duration": 4, "velocity": 76}, {"time": 1073, "pitch": 57, "duration": 5, "velocity": 68}, {"time": 1076, "pitch": 64, "duration": 4, "velocity": 81}, {"time": 1079, "pitch": 62, "duration": 4, "velocity": 80}, {"time": 1082, "pitch": 57, "duration": 7, "velocity": 76}, {"time": 1088, "pitch": 48, "duration": 22, "velocity": 83}, {"time": 1088, "pitch": 60, "duration": 4, "velocity": 76}, {"time": 1088, "pitch": 64, "duration": 7, "velocity": 82}, {"time": 1091, "pitch": 55, "duration": 19, "velocity": 75}, {"time": 1094, "pitch": 60, "duration": 7, "velocity": 82}, {"time": 1097, "pitch": 64, "duration": 5, "velocity": 83}, {"time": 1100, "pitch": 67, "duration": 7, "velocity": 78}, {"time": 1103, "pitch": 60, "duration": 8, "velocity": 82}, {"time": 1106, "pitch": 64, "duration": 7, "velocity": 86}, {"time": 1109, "pitch": 67, "duration": 13, "velocity": 79}, {"time": 1112, "pitch": 47, "duration": 24, "velocity": 85}, {"time": 1115, "pitch": 59, "duration": 10, "velocity": 77}, {"time": 1118, "pitch": 62, "duration": 9, "velocity": 82}, {"time": 1121, "pitch": 66, "duration": 5, "velocity": 82}, {"time": 1124, "pitch": 71, "duration": 15, "velocity": 77}, {"time": 1127, "pitch": 66, "duration": 12, "velocity": 74}, {"time": 1130, "pitch": 62, "duration": 10, "velocity": 77}, {"time": 1133, "pitch": 59, "duration": 6, "velocity": 83}, {"time": 1136, "pitch": 45, "duration": 22, "velocity": 83}, {"time": 1139, "pitch": 52, "duration": 18, "velocity": 71}, {"time": 1142, "pitch": 57, "duration": 10, "velocity": 79}, {"time": 1145, "pitch": 60, "duration": 7, "velocity": 76}, {"time": 1148, "pitch": 69, "duration": 11, "velocity": 84}, {"time": 1151, "pitch": 64, "duration": 9, "velocity": 80}, {"time": 1154, "pitch": 60, "duration": 6, "velocity": 77}, {"time": 1157, "pitch": 57, "duration": 3, "velocity": 75}, {"time": 1160, "pitch": 43, "duration": 20, "velocity": 84}, {"time": 1160, "pitch": 55, "duration": 11, "velocity": 77}, {"time": 1160, "pitch": 59, "duration": 9, "velocity": 71}, {"time": 1160, "pitch": 62, "duration": 10, "velocity": 81}, {"time": 1166, "pitch": 50, "duration": 13, "velocity": 75}, {"time": 1172, "pitch": 59, "duration": 5, "velocity": 84}, {"time": 1172, "pitch": 62, "duration": 5, "velocity": 86}, {"time": 1178, "pitch": 55, "duration": 5, "velocity": 84}, {"time": 1184, "pitch": 43, "duration": 18, "velocity": 81}, {"time": 1184, "pitch": 55, "duration": 7, "velocity": 72}, {"time": 1184, "pitch": 59, "duration": 7, "velocity": 75}, {"time": 1184, "pitch": 62, "duration": 7, "velocity": 77}, {"time": 1190, "pitch": 50, "duration": 11, "velocity": 62}, {"time": 1196, "pitch": 59, "duration": 7, "velocity": 83}, {"time": 1196, "pitch": 62, "duration": 7, "velocity": 83}, {"time": 1196, "pitch": 67, "duration": 9, "velocity": 77}, {"time": 1202, "pitch": 55, "duration": 2, "velocity": 82}, {"time": 1208, "pitch": 45, "duration": 16, "velocity": 83}, {"time": 1208, "pitch": 57, "duration": 7, "velocity": 77}, {"time": 1208, "pitch": 61, "duration": 6, "velocity": 69}, {"time": 1214, "pitch": 52, "duration": 10, "velocity": 67}, {"time": 1220, "pitch": 57, "duration": 7, "velocity": 80}, {"time": 1220, "pitch": 61, "duration": 6, "velocity": 77}, {"time": 1220, "pitch": 64, "duration": 8, "velocity": 82}, {"time": 1226, "pitch": 45, "duration": 6, "velocity": 81}, {"time": 1232, "pitch": 50, "duration": 16, "velocity": 82}, {"time": 1232, "pitch": 57, "duration": 4, "velocity": 76}, {"time": 1232, "pitch": 62, "duration": 8, "velocity": 77}, {"time": 1238, "pitch": 57, "duration": 5, "velocity": 76}, {"time": 1244, "pitch": 62, "duration": 6, "velocity": 83}, {"time": 1244, "pitch": 66, "duration": 6, "velocity": 82}, {"time": 1256, "pitch": 45, "duration": 16, "velocity": 83}, {"time": 1256, "pitch": 57, "duration": 8, "velocity": 72}, {"time": 1256, "pitch": 60, "duration": 7, "velocity": 75}, {"time": 1262, "pitch": 52, "duration": 11, "velocity": 71}, {"time": 1268, "pitch": 57, "duration": 5, "velocity": 78}, {"time": 1268, "pitch": 60, "duration": 6, "velocity": 84}, {"time": 1268, "pitch": 64, "duration": 7, "velocity": 83}, {"time": 1274, "pitch": 45, "duration": 5, "velocity": 83}, {"time": 1280, "pitch": 47, "duration": 15, "velocity": 82}, {"time": 1280, "pitch": 59, "duration": 9, "velocity": 81}, {"time": 1280, "pitch": 62, "duration": 8, "velocity": 81}, {"time": 1286, "pitch": 54, "duration": 7, "velocity": 69}, {"time": 1292, "pitch": 59, "duration": 3, "velocity": 83}, {"time": 1292, "pitch": 62, "duration": 6, "velocity": 86}, {"time": 1292, "pitch": 66, "duration": 6, "velocity": 83}, {"time": 1298, "pitch": 59, "duration": 7, "velocity": 75}, {"time": 1304, "pitch": 40, "duration": 14, "velocity": 77}, {"time": 1304, "pitch": 64, "duration": 7, "velocity": 83}, {"time": 1304, "pitch": 67, "duration": 7, "velocity": 79}, {"time": 1310, "pitch": 59, "duration": 5, "velocity": 83}, {"time": 1316, "pitch": 64, "duration": 7, "velocity": 85}, {"time": 1316, "pitch": 67, "duration": 7, "velocity": 83}, {"time": 1322, "pitch": 59, "duration": 2, "velocity": 78}, {"time": 1328, "pitch": 45, "duration": 16, "velocity": 82}, {"time": 1328, "pitch": 57, "duration": 9, "velocity": 76}, {"time": 1328, "pitch": 60, "duration": 8, "velocity": 74}, {"time": 1334, "pitch": 52, "duration": 10, "velocity": 71}, {"time": 1340, "pitch": 57, "duration": 6, "velocity": 75}, {"time": 1340, "pitch": 60, "duration": 6, "velocity": 79}, {"time": 1340, "pitch": 64, "duration": 6, "velocity": 82}, {"time": 1346, "pitch": 45, "duration": 6, "velocity": 82}, {"time": 1352, "pitch": 50, "duration": 18, "velocity": 83}, {"time": 1352, "pitch": 57, "duration": 3, "velocity": 76}, {"time": 1352, "pitch": 62, "duration": 9, "velocity": 77}, {"time": 1358, "pitch": 57, "duration": 7, "velocity": 83}, {"time": 1364, "pitch": 62, "duration": 7, "velocity": 84}, {"time": 1364, "pitch": 66, "duration": 8, "velocity": 87}, {"time": 1370, "pitch": 57, "duration": 1, "velocity": 80}, {"time": 1376, "pitch": 47, "duration": 20, "velocity": 84}, {"time": 1382, "pitch": 59, "duration": 7, "velocity": 79}, {"time": 1388, "pitch": 62, "duration": 6, "velocity": 82}, {"time": 1388, "pitch": 66, "duration": 7, "velocity": 85}, {"time": 1394, "pitch": 59, "duration": 3, "velocity": 84}, {"time": 1400, "pitch": 52, "duration": 22, "velocity": 89}, {"time": 1400, "pitch": 59, "duration": 3, "velocity": 83}, {"time": 1400, "pitch": 64, "duration": 8, "velocity": 83}, {"time": 1406, "pitch": 59, "duration": 8, "velocity": 75}, {"time": 1412, "pitch": 64, "duration": 7, "velocity": 84}, {"time": 1412, "pitch": 67, "duration": 10, "velocity": 82}, {"time": 1418, "pitch": 59, "duration": 5, "velocity": 82}, {"time": 1424, "pitch": 52, "duration": 19, "velocity": 80}, {"time": 1424, "pitch": 59, "duration": 4, "velocity": 72}, {"time": 1424, "pitch": 64, "duration": 8, "velocity": 74}, {"time": 1430, "pitch": 59, "duration": 5, "velocity": 75}, {"time": 1436, "pitch": 59, "duration": 3, "velocity": 78}, {"time": 1436, "pitch": 64, "duration": 6, "velocity": 84}, {"time": 1436, "pitch": 67, "duration": 7, "velocity": 79}, {"time": 1442, "pitch": 59, "duration": 3, "velocity": 74}, {"time": 1448, "pitch": 47, "duration": 15, "velocity": 83}, {"time": 1448, "pitch": 59, "duration": 3, "velocity": 74}, {"time": 1448, "pitch": 62, "duration": 8, "velocity": 77}, {"time": 1448, "pitch": 66, "duration": 8, "velocity": 75}, {"time": 1454, "pitch": 59, "duration": 3, "velocity": 70}, {"time": 1460, "pitch": 59, "duration": 7, "velocity": 83}, {"time": 1460, "pitch": 62, "duration": 8, "velocity": 83}, {"time": 1460, "pitch": 66, "duration": 13, "velocity": 82}, {"time": 1466, "pitch": 54, "duration": 3, "velocity": 72}, {"time": 1469, "pitch": 59, "duration": 5, "velocity": 73}, {"time": 1469, "pitch": 62, "duration": 4, "velocity": 47}, {"time": 1472, "pitch": 45, "duration": 20, "velocity": 83}, {"time": 1478, "pitch": 52, "duration": 9, "velocity": 78}, {"time": 1484, "pitch": 57, "duration": 7, "velocity": 82}, {"time": 1484, "pitch": 64, "duration": 8, "velocity": 85}, {"time": 1490, "pitch": 52, "duration": 5, "velocity": 83}, {"time": 1496, "pitch": 47, "duration": 16, "velocity": 85}, {"time": 1496, "pitch": 59, "duration": 8, "velocity": 77}, {"time": 1496, "pitch": 62, "duration": 8, "velocity": 79}, {"time": 1502, "pitch": 54, "duration": 9, "velocity": 73}, {"time": 1508, "pitch": 59, "duration": 5, "velocity": 83}, {"time": 1508, "pitch": 62, "duration": 5, "velocity": 84}, {"time": 1508, "pitch": 66, "duration": 6, "velocity": 82}, {"time": 1520, "pitch": 40, "duration": 14, "velocity": 83}, {"time": 1520, "pitch": 59, "duration": 8, "velocity": 78}, {"time": 1520, "pitch": 64, "duration": 7, "velocity": 82}, {"time": 1526, "pitch": 47, "duration": 6, "velocity": 72}, {"time": 1532, "pitch": 59, "duration": 3, "velocity": 81}, {"time": 1532, "pitch": 64, "duration": 7, "velocity": 84}, {"time": 1538, "pitch": 59, "duration": 2, "velocity": 86}, {"time": 1544, "pitch": 45, "duration": 15, "velocity": 83}, {"time": 1544, "pitch": 57, "duration": 10, "velocity": 72}, {"time": 1544, "pitch": 61, "duration": 9, "velocity": 72}, {"time": 1550, "pitch": 52, "duration": 9, "velocity": 82}, {"time": 1556, "pitch": 57, "duration": 5, "velocity": 82}, {"time": 1556, "pitch": 61, "duration": 5, "velocity": 84}, {"time": 1556, "pitch": 64, "duration": 5, "velocity": 84}, {"time": 1562, "pitch": 45, "duration": 3, "velocity": 85}, {"time": 1568, "pitch": 38, "duration": 24, "velocity": 81}, {"time": 1568, "pitch": 57, "duration": 4, "velocity": 79}, {"time": 1568, "pitch": 62, "duration": 7, "velocity": 81}, {"time": 1574, "pitch": 57, "duration": 1, "velocity": 70}, {"time": 1577, "pitch": 57, "duration": 1, "velocity": 52}, {"time": 1577, "pitch": 62, "duration": 2, "velocity": 68}, {"time": 1577, "pitch": 66, "duration": 2, "velocity": 65}, {"time": 1580, "pitch": 57, "duration": 4, "velocity": 83}, {"time": 1580, "pitch": 62, "duration": 4, "velocity": 88}, {"time": 1580, "pitch": 66, "duration": 5, "velocity": 84}, {"time": 1583, "pitch": 45, "duration": 9, "velocity": 76}, {"time": 1586, "pitch": 57, "duration": 3, "velocity": 84}, {"time": 1586, "pitch": 62, "duration": 5, "velocity": 84}, {"time": 1589, "pitch": 57, "duration": 2, "velocity": 76}, {"time": 1592, "pitch": 43, "duration": 23, "velocity": 84}, {"time": 1592, "pitch": 55, "duration": 4, "velocity": 82}, {"time": 1592, "pitch": 62, "duration": 6, "velocity": 83}, {"time": 1595, "pitch": 50, "duration": 20, "velocity": 75}, {"time": 1598, "pitch": 55, "duration": 8, "velocity": 82}, {"time": 1601, "pitch": 59, "duration": 3, "velocity": 75}, {"time": 1604, "pitch": 67, "duration": 4, "velocity": 86}, {"time": 1607, "pitch": 62, "duration": 4, "velocity": 82}, {"time": 1610, "pitch": 59, "duration": 4, "velocity": 86}, {"time": 1613, "pitch": 55, "duration": 8, "velocity": 96}, {"time": 1616, "pitch": 43, "duration": 18, "velocity": 83}, {"time": 1619, "pitch": 50, "duration": 14, "velocity": 76}, {"time": 1622, "pitch": 55, "duration": 9, "velocity": 76}, {"time": 1625, "pitch": 59, "duration": 4, "velocity": 81}, {"time": 1628, "pitch": 67, "duration": 6, "velocity": 86}, {"time": 1631, "pitch": 62, "duration": 4, "velocity": 83}, {"time": 1634, "pitch": 59, "duration": 4, "velocity": 84}, {"time": 1637, "pitch": 55, "duration": 5, "velocity": 88}, {"time": 1640, "pitch": 40, "duration": 16, "velocity": 87}, {"time": 1643, "pitch": 47, "duration": 12, "velocity": 71}, {"time": 1646, "pitch": 52, "duration": 10, "velocity": 82}, {"time": 1649, "pitch": 55, "duration": 7, "velocity": 78}, {"time": 1652, "pitch": 64, "duration": 15, "velocity": 87}, {"time": 1655, "pitch": 59, "duration": 10, "velocity": 84}, {"time": 1658, "pitch": 55, "duration": 6, "velocity": 83}, {"time": 1661, "pitch": 52, "duration": 3, "velocity": 86}, {"time": 1664, "pitch": 45, "duration": 18, "velocity": 88}, {"time": 1667, "pitch": 52, "duration": 14, "velocity": 77}, {"time": 1670, "pitch": 57, "duration": 9, "velocity": 82}, {"time": 1673, "pitch": 60, "duration": 5, "velocity": 82}, {"time": 1676, "pitch": 69, "duration": 16, "velocity": 88}, {"time": 1679, "pitch": 64, "duration": 13, "velocity": 82}, {"time": 1682, "pitch": 60, "duration": 10, "velocity": 79}, {"time": 1685, "pitch": 57, "duration": 7, "velocity": 71}, {"time": 1688, "pitch": 43, "duration": 23, "velocity": 86}, {"time": 1691, "pitch": 50, "duration": 20, "velocity": 76}, {"time": 1694, "pitch": 55, "duration": 10, "velocity": 83}, {"time": 1697, "pitch": 59, "duration": 7, "velocity": 78}, {"time": 1700, "pitch": 67, "duration": 10, "velocity": 85}, {"time": 1703, "pitch": 62, "duration": 7, "velocity": 82}, {"time": 1706, "pitch": 59, "duration": 4, "velocity": 84}, {"time": 1709, "pitch": 55, "duration": 8, "velocity": 84}, {"time": 1712, "pitch": 43, "duration": 17, "velocity": 83}, {"time": 1712, "pitch": 59, "duration": 14, "velocity": 81}, {"time": 1715, "pitch": 50, "duration": 12, "velocity": 75}, {"time": 1718, "pitch": 55, "duration": 10, "velocity": 80}, {"time": 1721, "pitch": 62, "duration": 4, "velocity": 77}, {"time": 1724, "pitch": 67, "duration": 9, "velocity": 83}, {"time": 1727, "pitch": 62, "duration": 4, "velocity": 83}, {"time": 1730, "pitch": 59, "duration": 4, "velocity": 82}, {"time": 1733, "pitch": 55, "duration": 2, "velocity": 83}, {"time": 1736, "pitch": 45, "duration": 19, "velocity": 82}, {"time": 1736, "pitch": 57, "duration": 4, "velocity": 80}, {"time": 1736, "pitch": 61, "duration": 7, "velocity": 84}, {"time": 1739, "pitch": 52, "duration": 14, "velocity": 77}, {"time": 1742, "pitch": 57, "duration": 9, "velocity": 89}, {"time": 1745, "pitch": 64, "duration": 4, "velocity": 80}, {"time": 1748, "pitch": 69, "duration": 7, "velocity": 87}, {"time": 1751, "pitch": 64, "duration": 4, "velocity": 82}, {"time": 1754, "pitch": 61, "duration": 4, "velocity": 82}, {"time": 1757, "pitch": 57, "duration": 2, "velocity": 82}, {"time": 1760, "pitch": 38, "duration": 15, "velocity": 87}, {"time": 1760, "pitch": 57, "duration": 3, "velocity": 82}, {"time": 1760, "pitch": 62, "duration": 7, "velocity": 84}, {"time": 1763, "pitch": 45, "duration": 12, "velocity": 72}, {"time": 1766, "pitch": 57, "duration": 5, "velocity": 76}, {"time": 1769, "pitch": 62, "duration": 2, "velocity": 75}, {"time": 1772, "pitch": 66, "duration": 6, "velocity": 91}, {"time": 1775, "pitch": 62, "duration": 3, "velocity": 74}, {"time": 1778, "pitch": 57, "duration": 2, "velocity": 84}, {"time": 1784, "pitch": 48, "duration": 20, "velocity": 89}, {"time": 1784, "pitch": 55, "duration": 2, "velocity": 81}, {"time": 1784, "pitch": 60, "duration": 4, "velocity": 77}, {"time": 1787, "pitch": 55, "duration": 4, "velocity": 80}, {"time": 1790, "pitch": 60, "duration": 4, "velocity": 77}, {"time": 1793, "pitch": 55, "duration": 4, "velocity": 69}, {"time": 1796, "pitch": 64, "duration": 7, "velocity": 91}, {"time": 1799, "pitch": 55, "duration": 4, "velocity": 78}, {"time": 1802, "pitch": 60, "duration": 4, "velocity": 71}, {"time": 1805, "pitch": 55, "duration": 2, "velocity": 77}, {"time": 1808, "pitch": 43, "duration": 19, "velocity": 83}, {"time": 1808, "pitch": 55, "duration": 4, "velocity": 75}, {"time": 1808, "pitch": 59, "duration": 7, "velocity": 78}, {"time": 1811, "pitch": 50, "duration": 16, "velocity": 73}, {"time": 1814, "pitch": 62, "duration": 7, "velocity": 75}, {"time": 1817, "pitch": 55, "duration": 7, "velocity": 80}, {"time": 1820, "pitch": 67, "duration": 12, "velocity": 84}, {"time": 1823, "pitch": 62, "duration": 7, "velocity": 80}, {"time": 1826, "pitch": 59, "duration": 4, "velocity": 83}, {"time": 1829, "pitch": 55, "duration": 2, "velocity": 81}, {"time": 1832, "pitch": 47, "duration": 16, "velocity": 83}, {"time": 1832, "pitch": 59, "duration": 4, "velocity": 74}, {"time": 1832, "pitch": 62, "duration": 7, "velocity": 76}, {"time": 1835, "pitch": 54, "duration": 11, "velocity": 80}, {"time": 1838, "pitch": 59, "duration": 5, "velocity": 82}, {"time": 1841, "pitch": 62, "duration": 4, "velocity": 77}, {"time": 1844, "pitch": 66, "duration": 4, "velocity": 91}, {"time": 1847, "pitch": 62, "duration": 4, "velocity": 82}, {"time": 1850, "pitch": 59, "duration": 5, "velocity": 77}, {"time": 1853, "pitch": 62, "duration": 3, "velocity": 76}, {"time": 1856, "pitch": 40, "duration": 17, "velocity": 84}, {"time": 1856, "pitch": 64, "duration": 6, "velocity": 80}, {"time": 1859, "pitch": 47, "duration": 13, "velocity": 75}, {"time": 1862, "pitch": 59, "duration": 4, "velocity": 82}, {"time": 1865, "pitch": 64, "duration": 2, "velocity": 80}, {"time": 1868, "pitch": 67, "duration": 4, "velocity": 87}, {"time": 1871, "pitch": 64, "duration": 4, "velocity": 76}, {"time": 1874, "pitch": 59, "duration": 2, "velocity": 78}, {"time": 1880, "pitch": 43, "duration": 22, "velocity": 82}, {"time": 1880, "pitch": 55, "duration": 6, "velocity": 76}, {"time": 1880, "pitch": 59, "duration": 7, "velocity": 78}, {"time": 1883, "pitch": 50, "duration": 20, "velocity": 74}, {"time": 1886, "pitch": 62, "duration": 7, "velocity": 78}, {"time": 1889, "pitch": 59, "duration": 4, "velocity": 76}, {"time": 1892, "pitch": 67, "duration": 7, "velocity": 84}, {"time": 1895, "pitch": 62, "duration": 4, "velocity": 79}, {"time": 1898, "pitch": 59, "duration": 3, "velocity": 83}, {"time": 1901, "pitch": 55, "duration": 2, "velocity": 82}, {"time": 1904, "pitch": 45, "duration": 23, "velocity": 82}, {"time": 1904, "pitch": 61, "duration": 7, "velocity": 78}, {"time": 1907, "pitch": 52, "duration": 20, "velocity": 76}, {"time": 1910, "pitch": 57, "duration": 6, "velocity": 80}, {"time": 1913, "pitch": 61, "duration": 5, "velocity": 75}, {"time": 1916, "pitch": 69, "duration": 5, "velocity": 82}, {"time": 1919, "pitch": 64, "duration": 5, "velocity": 83}, {"time": 1922, "pitch": 61, "duration": 4, "velocity": 87}, {"time": 1925, "pitch": 57, "duration": 2, "velocity": 80}, {"time": 1928, "pitch": 50, "duration": 23, "velocity": 86}, {"time": 1928, "pitch": 57, "duration": 2, "velocity": 82}, {"time": 1928, "pitch": 62, "duration": 4, "velocity": 83}, {"time": 1931, "pitch": 57, "duration": 4, "velocity": 82}, {"time": 1934, "pitch": 62, "duration": 4, "velocity": 79}, {"time": 1937, "pitch": 57, "duration": 4, "velocity": 83}, {"time": 1940, "pitch": 64, "duration": 6, "velocity": 82}, {"time": 1943, "pitch": 57, "duration": 4, "velocity": 79}, {"time": 1946, "pitch": 62, "duration": 4, "velocity": 78}, {"time": 1949, "pitch": 57, "duration": 4, "velocity": 78}, {"time": 1952, "pitch": 50, "duration": 19, "velocity": 88}, {"time": 1952, "pitch": 62, "duration": 4, "velocity": 81}, {"time": 1952, "pitch": 66, "duration": 6, "velocity": 77}, {"time": 1955, "pitch": 57, "duration": 4, "velocity": 73}, {"time": 1958, "pitch": 62, "duration": 4, "velocity": 76}, {"time": 1961, "pitch": 57, "duration": 2, "velocity": 74}, {"time": 1964, "pitch": 66, "duration": 6, "velocity": 84}, {"time": 1967, "pitch": 57, "duration": 4, "velocity": 71}, {"time": 1970, "pitch": 62, "duration": 1, "velocity": 83}, {"time": 1976, "pitch": 43, "duration": 18, "velocity": 82}, {"time": 1976, "pitch": 55, "duration": 10, "velocity": 72}, {"time": 1976, "pitch": 59, "duration": 6, "velocity": 73}, {"time": 1982, "pitch": 50, "duration": 11, "velocity": 73}, {"time": 1988, "pitch": 59, "duration": 5, "velocity": 84}, {"time": 1988, "pitch": 62, "duration": 6, "velocity": 83}, {"time": 1994, "pitch": 55, "duration": 1, "velocity": 83}, {"time": 2000, "pitch": 40, "duration": 15, "velocity": 88}, {"time": 2000, "pitch": 59, "duration": 4, "velocity": 78}, {"time": 2000, "pitch": 64, "duration": 6, "velocity": 83}, {"time": 2003, "pitch": 47, "duration": 12, "velocity": 76}, {"time": 2006, "pitch": 59, "duration": 4, "velocity": 75}, {"time": 2009, "pitch": 64, "duration": 2, "velocity": 77}, {"time": 2012, "pitch": 59, "duration": 6, "velocity": 82}, {"time": 2012, "pitch": 64, "duration": 6, "velocity": 83}, {"time": 2012, "pitch": 67, "duration": 6, "velocity": 76}, {"time": 2024, "pitch": 47, "duration": 22, "velocity": 83}, {"time": 2024, "pitch": 59, "duration": 9, "velocity": 82}, {"time": 2024, "pitch": 62, "duration": 9, "velocity": 80}, {"time": 2024, "pitch": 66, "duration": 9, "velocity": 79}, {"time": 2030, "pitch": 54, "duration": 16, "velocity": 74}, {"time": 2036, "pitch": 59, "duration": 3, "velocity": 80}, {"time": 2036, "pitch": 62, "duration": 3, "velocity": 83}, {"time": 2036, "pitch": 66, "duration": 4, "velocity": 84}, {"time": 2048, "pitch": 47, "duration": 17, "velocity": 83}, {"time": 2048, "pitch": 71, "duration": 9, "velocity": 85}, {"time": 2051, "pitch": 66, "duration": 8, "velocity": 83}, {"time": 2054, "pitch": 62, "duration": 5, "velocity": 73}, {"time": 2057, "pitch": 59, "duration": 2, "velocity": 79}, {"time": 2060, "pitch": 54, "duration": 5, "velocity": 72}, {"time": 2060, "pitch": 59, "duration": 6, "velocity": 82}, {"time": 2060, "pitch": 62, "duration": 6, "velocity": 84}, {"time": 2066, "pitch": 47, "duration": 4, "velocity": 83}, {"time": 2072, "pitch": 45, "duration": 19, "velocity": 82}, {"time": 2072, "pitch": 57, "duration": 10, "velocity": 73}, {"time": 2072, "pitch": 60, "duration": 7, "velocity": 78}, {"time": 2078, "pitch": 52, "duration": 9, "velocity": 71}, {"time": 2084, "pitch": 57, "duration": 6, "velocity": 78}, {"time": 2084, "pitch": 60, "duration": 6, "velocity": 87}, {"time": 2084, "pitch": 64, "duration": 7, "velocity": 87}, {"time": 2090, "pitch": 52, "duration": 5, "velocity": 87}, {"time": 2096, "pitch": 47, "duration": 19, "velocity": 87}, {"time": 2096, "pitch": 59, "duration": 7, "velocity": 79}, {"time": 2096, "pitch": 62, "duration": 10, "velocity": 81}, {"time": 2102, "pitch": 54, "duration": 10, "velocity": 71}, {"time": 2105, "pitch": 59, "duration": 2, "velocity": 81}, {"time": 2108, "pitch": 66, "duration": 5, "velocity": 88}, {"time": 2111, "pitch": 62, "duration": 4, "velocity": 80}, {"time": 2114, "pitch": 59, "duration": 3, "velocity": 82}, {"time": 2120, "pitch": 45, "duration": 16, "velocity": 82}, {"time": 2120, "pitch": 57, "duration": 9, "velocity": 76}, {"time": 2120, "pitch": 61, "duration": 9, "velocity": 70}, {"time": 2126, "pitch": 52, "duration": 9, "velocity": 75}, {"time": 2132, "pitch": 61, "duration": 6, "velocity": 83}, {"time": 2132, "pitch": 64, "duration": 8, "velocity": 85}, {"time": 2138, "pitch": 57, "duration": 4, "velocity": 81}, {"time": 2144, "pitch": 38, "duration": 23, "velocity": 85}, {"time": 2144, "pitch": 57, "duration": 7, "velocity": 78}, {"time": 2144, "pitch": 62, "duration": 10, "velocity": 78}, {"time": 2150, "pitch": 45, "duration": 16, "velocity": 74}, {"time": 2153, "pitch": 57, "duration": 5, "velocity": 69}, {"time": 2156, "pitch": 66, "duration": 3, "velocity": 86}, {"time": 2159, "pitch": 64, "duration": 4, "velocity": 88}, {"time": 2162, "pitch": 62, "duration": 4, "velocity": 83}, {"time": 2165, "pitch": 57, "duration": 11, "velocity": 79}, {"time": 2168, "pitch": 38, "duration": 26, "velocity": 84}, {"time": 2168, "pitch": 62, "duration": 8, "velocity": 78}, {"time": 2174, "pitch": 45, "duration": 11, "velocity": 69}, {"time": 2180, "pitch": 62, "duration": 2, "velocity": 88}, {"time": 2180, "pitch": 66, "duration": 12, "velocity": 89}, {"time": 2183, "pitch": 57, "duration": 6, "velocity": 88}, {"time": 2183, "pitch": 62, "duration": 1, "velocity": 59}, {"time": 2186, "pitch": 45, "duration": 7, "velocity": 75}, {"time": 2189, "pitch": 57, "duration": 3, "velocity": 78}, {"time": 2192, "pitch": 43, "duration": 40, "velocity": 83}, {"time": 2192, "pitch": 55, "duration": 11, "velocity": 74}, {"time": 2192, "pitch": 59, "duration": 10, "velocity": 64}, {"time": 2192, "pitch": 62, "duration": 10, "velocity": 72}, {"time": 2198, "pitch": 50, "duration": 34, "velocity": 70}, {"time": 2204, "pitch": 55, "duration": 4, "velocity": 83}, {"time": 2204, "pitch": 59, "duration": 4, "velocity": 83}, {"time": 2204, "pitch": 62, "duration": 5, "velocity": 83}, {"time": 2216, "pitch": 59, "duration": 5, "velocity": 83}, {"time": 2216, "pitch": 62, "duration": 4, "velocity": 81}, {"time": 2222, "pitch": 55, "duration": 5, "velocity": 76}, {"time": 2228, "pitch": 59, "duration": 7, "velocity": 83}, {"time": 2228, "pitch": 62, "duration": 7, "velocity": 84}, {"time": 2228, "pitch": 67, "duration": 8, "velocity": 81}, {"time": 2234, "pitch": 55, "duration": 1, "velocity": 87}, {"time": 2240, "pitch": 47, "duration": 15, "velocity": 84}, {"time": 2240, "pitch": 59, "duration": 9, "velocity": 83}, {"time": 2240, "pitch": 62, "duration": 8, "velocity": 82}, {"time": 2246, "pitch": 54, "duration": 8, "velocity": 71}, {"time": 2252, "pitch": 59, "duration": 3, "velocity": 79}, {"time": 2252, "pitch": 62, "duration": 7, "velocity": 82}, {"time": 2252, "pitch": 66, "duration": 7, "velocity": 77}, {"time": 2258, "pitch": 59, "duration": 2, "velocity": 76}, {"time": 2264, "pitch": 45, "duration": 14, "velocity": 83}, {"time": 2264, "pitch": 57, "duration": 10, "velocity": 75}, {"time": 2264, "pitch": 61, "duration": 10, "velocity": 80}, {"time": 2264, "pitch": 64, "duration": 10, "velocity": 82}, {"time": 2270, "pitch": 52, "duration": 7, "velocity": 74}, {"time": 2276, "pitch": 57, "duration": 4, "velocity": 80}, {"time": 2276, "pitch": 61, "duration": 8, "velocity": 82}, {"time": 2276, "pitch": 64, "duration": 10, "velocity": 84}, {"time": 2282, "pitch": 57, "duration": 5, "velocity": 74}, {"time": 2288, "pitch": 38, "duration": 42, "velocity": 84}, {"time": 2288, "pitch": 57, "duration": 9, "velocity": 76}, {"time": 2288, "pitch": 62, "duration": 9, "velocity": 79}, {"time": 2294, "pitch": 45, "duration": 35, "velocity": 66}, {"time": 2300, "pitch": 62, "duration": 10, "velocity": 81}, {"time": 2300, "pitch": 66, "duration": 8, "velocity": 78}, {"time": 2306, "pitch": 57, "duration": 5, "velocity": 80}, {"time": 2312, "pitch": 62, "duration": 7, "velocity": 74}, {"time": 2312, "pitch": 66, "duration": 7, "velocity": 67}, {"time": 2318, "pitch": 57, "duration": 3, "velocity": 66}, {"time": 2324, "pitch": 57, "duration": 3, "velocity": 82}, {"time": 2324, "pitch": 62, "duration": 11, "velocity": 84}, {"time": 2324, "pitch": 66, "duration": 11, "velocity": 83}, {"time": 2330, "pitch": 57, "duration": 5, "velocity": 82}, {"time": 2336, "pitch": 43, "duration": 20, "velocity": 83}, {"time": 2336, "pitch": 55, "duration": 10, "velocity": 77}, {"time": 2336, "pitch": 67, "duration": 19, "velocity": 79}, {"time": 2342, "pitch": 50, "duration": 13, "velocity": 71}, {"time": 2348, "pitch": 55, "duration": 3, "velocity": 83}, {"time": 2348, "pitch": 62, "duration": 7, "velocity": 77}, {"time": 2354, "pitch": 55, "duration": 2, "velocity": 91}, {"time": 2360, "pitch": 40, "duration": 15, "velocity": 78}, {"time": 2360, "pitch": 52, "duration": 12, "velocity": 77}, {"time": 2360, "pitch": 55, "duration": 7, "velocity": 78}, {"time": 2366, "pitch": 47, "duration": 9, "velocity": 74}, {"time": 2372, "pitch": 55, "duration": 4, "velocity": 83}, {"time": 2372, "pitch": 59, "duration": 6, "velocity": 84}, {"time": 2378, "pitch": 52, "duration": 1, "velocity": 86}, {"time": 2384, "pitch": 45, "duration": 16, "velocity": 82}, {"time": 2384, "pitch": 57, "duration": 9, "velocity": 72}, {"time": 2384, "pitch": 60, "duration": 6, "velocity": 78}, {"time": 2390, "pitch": 52, "duration": 9, "velocity": 70}, {"time": 2396, "pitch": 57, "duration": 2, "velocity": 76}, {"time": 2396, "pitch": 60, "duration": 6, "velocity": 87}, {"time": 2396, "pitch": 64, "duration": 6, "velocity": 86}, {"time": 2402, "pitch": 57, "duration": 5, "velocity": 83}, {"time": 2408, "pitch": 38, "duration": 14, "velocity": 83}, {"time": 2408, "pitch": 62, "duration": 8, "velocity": 82}, {"time": 2408, "pitch": 66, "duration": 8, "velocity": 74}, {"time": 2414, "pitch": 45, "duration": 8, "velocity": 66}, {"time": 2420, "pitch": 62, "duration": 6, "velocity": 82}, {"time": 2420, "pitch": 66, "duration": 6, "velocity": 83}, {"time": 2426, "pitch": 57, "duration": 2, "velocity": 83}, {"time": 2432, "pitch": 43, "duration": 18, "velocity": 83}, {"time": 2432, "pitch": 55, "duration": 9, "velocity": 75}, {"time": 2432, "pitch": 59, "duration": 9, "velocity": 73}, {"time": 2432, "pitch": 62, "duration": 8, "velocity": 81}, {"time": 2438, "pitch": 50, "duration": 11, "velocity": 68}, {"time": 2444, "pitch": 55, "duration": 1, "velocity": 69}, {"time": 2444, "pitch": 59, "duration": 6, "velocity": 83}, {"time": 2444, "pitch": 62, "duration": 7, "velocity": 82}, {"time": 2450, "pitch": 55, "duration": 2, "velocity": 84}, {"time": 2456, "pitch": 45, "duration": 14, "velocity": 82}, {"time": 2456, "pitch": 57, "duration": 11, "velocity": 76}, {"time": 2456, "pitch": 61, "duration": 8, "velocity": 71}, {"time": 2456, "pitch": 64, "duration": 9, "velocity": 82}, {"time": 2462, "pitch": 52, "duration": 7, "velocity": 78}, {"time": 2468, "pitch": 61, "duration": 7, "velocity": 81}, {"time": 2468, "pitch": 64, "duration": 11, "velocity": 85}, {"time": 2468, "pitch": 69, "duration": 8, "velocity": 80}, {"time": 2474, "pitch": 57, "duration": 5, "velocity": 81}, {"time": 2480, "pitch": 38, "duration": 3, "velocity": 84}, {"time": 2480, "pitch": 57, "duration": 3, "velocity": 78}, {"time": 2480, "pitch": 62, "duration": 7, "velocity": 79}, {"time": 2486, "pitch": 57, "duration": 4, "velocity": 71}, {"time": 2491, "pitch": 66, "duration": 5, "velocity": 81}, {"time": 2492, "pitch": 62, "duration": 4, "velocity": 78}, {"time": 2503, "pitch": 57, "duration": 5, "velocity": 66}, {"time": 2503, "pitch": 62, "duration": 5, "velocity": 74}, {"time": 2503, "pitch": 38, "duration": 18, "velocity": 84}, {"time": 2504, "pitch": 66, "duration": 5, "velocity": 75}, {"time": 2514, "pitch": 62, "duration": 1, "velocity": 64}, {"time": 2515, "pitch": 66, "duration": 2, "velocity": 63}, {"time": 2516, "pitch": 69, "duration": 1, "velocity": 68}, {"time": 2516, "pitch": 74, "duration": 2, "velocity": 75}, {"time": 2528, "pitch": 43, "duration": 22, "velocity": 82}, {"time": 2531, "pitch": 50, "duration": 19, "velocity": 69}, {"time": 2534, "pitch": 62, "duration": 7, "velocity": 77}, {"time": 2537, "pitch": 55, "duration": 4, "velocity": 58}, {"time": 2540, "pitch": 64, "duration": 7, "velocity": 84}, {"time": 2543, "pitch": 55, "duration": 4, "velocity": 73}, {"time": 2546, "pitch": 62, "duration": 11, "velocity": 76}, {"time": 2549, "pitch": 55, "duration": 7, "velocity": 70}, {"time": 2552, "pitch": 43, "duration": 22, "velocity": 81}, {"time": 2555, "pitch": 50, "duration": 11, "velocity": 66}, {"time": 2558, "pitch": 55, "duration": 6, "velocity": 75}, {"time": 2561, "pitch": 59, "duration": 4, "velocity": 73}, {"time": 2564, "pitch": 62, "duration": 13, "velocity": 80}, {"time": 2567, "pitch": 50, "duration": 7, "velocity": 68}, {"time": 2570, "pitch": 55, "duration": 6, "velocity": 73}, {"time": 2573, "pitch": 59, "duration": 5, "velocity": 76}, {"time": 2576, "pitch": 45, "duration": 23, "velocity": 83}, {"time": 2579, "pitch": 52, "duration": 20, "velocity": 75}, {"time": 2582, "pitch": 61, "duration": 4, "velocity": 70}, {"time": 2585, "pitch": 57, "duration": 4, "velocity": 71}, {"time": 2588, "pitch": 64, "duration": 7, "velocity": 83}, {"time": 2591, "pitch": 57, "duration": 4, "velocity": 62}, {"time": 2594, "pitch": 61, "duration": 4, "velocity": 82}, {"time": 2597, "pitch": 57, "duration": 4, "velocity": 76}, {"time": 2600, "pitch": 50, "duration": 20, "velocity": 83}, {"time": 2603, "pitch": 57, "duration": 4, "velocity": 76}, {"time": 2606, "pitch": 62, "duration": 4, "velocity": 76}, {"time": 2609, "pitch": 57, "duration": 4, "velocity": 69}, {"time": 2612, "pitch": 64, "duration": 4, "velocity": 81}, {"time": 2615, "pitch": 62, "duration": 4, "velocity": 79}, {"time": 2618, "pitch": 57, "duration": 3, "velocity": 74}, {"time": 2624, "pitch": 45, "duration": 21, "velocity": 83}, {"time": 2627, "pitch": 52, "duration": 5, "velocity": 80}, {"time": 2630, "pitch": 57, "duration": 7, "velocity": 82}, {"time": 2636, "pitch": 64, "duration": 7, "velocity": 82}, {"time": 2639, "pitch": 52, "duration": 8, "velocity": 79}, {"time": 2642, "pitch": 57, "duration": 5, "velocity": 76}, {"time": 2645, "pitch": 64, "duration": 4, "velocity": 76}, {"time": 2648, "pitch": 47, "duration": 18, "velocity": 83}, {"time": 2654, "pitch": 62, "duration": 7, "velocity": 78}, {"time": 2657, "pitch": 59, "duration": 5, "velocity": 78}, {"time": 2660, "pitch": 54, "duration": 4, "velocity": 78}, {"time": 2663, "pitch": 59, "duration": 4, "velocity": 82}, {"time": 2666, "pitch": 62, "duration": 5, "velocity": 73}, {"time": 2669, "pitch": 59, "duration": 4, "velocity": 77}, {"time": 2672, "pitch": 40, "duration": 16, "velocity": 82}, {"time": 2672, "pitch": 64, "duration": 7, "velocity": 72}, {"time": 2675, "pitch": 47, "duration": 12, "velocity": 65}, {"time": 2678, "pitch": 59, "duration": 6, "velocity": 73}, {"time": 2681, "pitch": 64, "duration": 4, "velocity": 82}, {"time": 2684, "pitch": 67, "duration": 4, "velocity": 84}, {"time": 2687, "pitch": 64, "duration": 3, "velocity": 82}, {"time": 2690, "pitch": 59, "duration": 4, "velocity": 76}, {"time": 2693, "pitch": 64, "duration": 9, "velocity": 77}, {"time": 2696, "pitch": 45, "duration": 22, "velocity": 80}, {"time": 2699, "pitch": 52, "duration": 19, "velocity": 71}, {"time": 2702, "pitch": 57, "duration": 4, "velocity": 70}, {"time": 2705, "pitch": 60, "duration": 4, "velocity": 74}, {"time": 2708, "pitch": 64, "duration": 4, "velocity": 83}, {"time": 2711, "pitch": 60, "duration": 3, "velocity": 81}, {"time": 2714, "pitch": 57, "duration": 5, "velocity": 74}, {"time": 2717, "pitch": 60, "duration": 3, "velocity": 76}, {"time": 2720, "pitch": 50, "duration": 23, "velocity": 84}, {"time": 2723, "pitch": 57, "duration": 4, "velocity": 77}, {"time": 2726, "pitch": 62, "duration": 4, "velocity": 76}, {"time": 2729, "pitch": 57, "duration": 5, "velocity": 68}, {"time": 2732, "pitch": 64, "duration": 4, "velocity": 81}, {"time": 2735, "pitch": 62, "duration": 4, "velocity": 80}, {"time": 2738, "pitch": 57, "duration": 7, "velocity": 76}, {"time": 2744, "pitch": 48, "duration": 22, "velocity": 83}, {"time": 2744, "pitch": 60, "duration": 4, "velocity": 76}, {"time": 2744, "pitch": 64, "duration": 7, "velocity": 82}, {"time": 2747, "pitch": 55, "duration": 19, "velocity": 75}, {"time": 2750, "pitch": 60, "duration": 7, "velocity": 82}, {"time": 2753, "pitch": 64, "duration": 5, "velocity": 83}, {"time": 2756, "pitch": 67, "duration": 7, "velocity": 78}, {"time": 2759, "pitch": 60, "duration": 8, "velocity": 82}, {"time": 2762, "pitch": 64, "duration": 7, "velocity": 86}, {"time": 2765, "pitch": 67, "duration": 13, "velocity": 79}, {"time": 2768, "pitch": 47, "duration": 24, "velocity": 85}, {"time": 2771, "pitch": 59, "duration": 10, "velocity": 77}, {"time": 2774, "pitch": 62, "duration": 9, "velocity": 82}, {"time": 2777, "pitch": 66, "duration": 5, "velocity": 82}, {"time": 2780, "pitch": 71, "duration": 15, "velocity": 77}, {"time": 2783, "pitch": 66, "duration": 12, "velocity": 74}, {"time": 2786, "pitch": 62, "duration": 10, "velocity": 77}, {"time": 2789, "pitch": 59, "duration": 6, "velocity": 83}, {"time": 2792, "pitch": 45, "duration": 22, "velocity": 83}, {"time": 2795, "pitch": 52, "duration": 18, "velocity": 71}, {"time": 2798, "pitch": 57, "duration": 10, "velocity": 79}, {"time": 2801, "pitch": 60, "duration": 7, "velocity": 76}, {"time": 2804, "pitch": 69, "duration": 11, "velocity": 84}, {"time": 2807, "pitch": 64, "duration": 9, "velocity": 80}, {"time": 2810, "pitch": 60, "duration": 6, "velocity": 77}, {"time": 2813, "pitch": 57, "duration": 3, "velocity": 75}, {"time": 2816, "pitch": 43, "duration": 20, "velocity": 84}, {"time": 2816, "pitch": 55, "duration": 11, "velocity": 77}, {"time": 2816, "pitch": 59, "duration": 9, "velocity": 71}, {"time": 2816, "pitch": 62, "duration": 10, "velocity": 81}, {"time": 2822, "pitch": 50, "duration": 13, "velocity": 75}, {"time": 2828, "pitch": 59, "duration": 5, "velocity": 84}, {"time": 2828, "pitch": 62, "duration": 5, "velocity": 86}, {"time": 2834, "pitch": 55, "duration": 5, "velocity": 84}, {"time": 2840, "pitch": 43, "duration": 18, "velocity": 81}, {"time": 2840, "pitch": 55, "duration": 7, "velocity": 72}, {"time": 2840, "pitch": 59, "duration": 7, "velocity": 75}, {"time": 2840, "pitch": 62, "duration": 7, "velocity": 77}, {"time": 2846, "pitch": 50, "duration": 11, "velocity": 62}, {"time": 2852, "pitch": 59, "duration": 7, "velocity": 83}, {"time": 2852, "pitch": 62, "duration": 7, "velocity": 83}, {"time": 2852, "pitch": 67, "duration": 9, "velocity": 77}, {"time": 2858, "pitch": 55, "duration": 2, "velocity": 82}, {"time": 2864, "pitch": 45, "duration": 16, "velocity": 83}, {"time": 2864, "pitch": 57, "duration": 7, "velocity": 77}, {"time": 2864, "pitch": 61, "duration": 6, "velocity": 69}, {"time": 2870, "pitch": 52, "duration": 10, "velocity": 67}, {"time": 2876, "pitch": 57, "duration": 7, "velocity": 80}, {"time": 2876, "pitch": 61, "duration": 6, "velocity": 77}, {"time": 2876, "pitch": 64, "duration": 8, "velocity": 82}, {"time": 2882, "pitch": 45, "duration": 6, "velocity": 81}, {"time": 2888, "pitch": 50, "duration": 16, "velocity": 82}, {"time": 2888, "pitch": 57, "duration": 4, "velocity": 76}, {"time": 2888, "pitch": 62, "duration": 8, "velocity": 77}, {"time": 2894, "pitch": 57, "duration": 5, "velocity": 76}, {"time": 2900, "pitch": 62, "duration": 6, "velocity": 83}, {"time": 2900, "pitch": 66, "duration": 6, "velocity": 82}, {"time": 2912, "pitch": 45, "duration": 16, "velocity": 83}, {"time": 2912, "pitch": 57, "duration": 8, "velocity": 72}, {"time": 2912, "pitch": 60, "duration": 7, "velocity": 75}, {"time": 2918, "pitch": 52, "duration": 11, "velocity": 71}, {"time": 2924, "pitch": 57, "duration": 5, "velocity": 78}, {"time": 2924, "pitch": 60, "duration": 6, "velocity": 84}, {"time": 2924, "pitch": 64, "duration": 7, "velocity": 83}, {"time": 2930, "pitch": 45, "duration": 5, "velocity": 83}, {"time": 2936, "pitch": 47, "duration": 15, "velocity": 82}, {"time": 2936, "pitch": 59, "duration": 9, "velocity": 81}, {"time": 2936, "pitch": 62, "duration": 8, "velocity": 81}, {"time": 2942, "pitch": 54, "duration": 7, "velocity": 69}, {"time": 2948, "pitch": 59, "duration": 3, "velocity": 83}, {"time": 2948, "pitch": 62, "duration": 6, "velocity": 86}, {"time": 2948, "pitch": 66, "duration": 6, "velocity": 83}, {"time": 2954, "pitch": 59, "duration": 7, "velocity": 75}, {"time": 2960, "pitch": 40, "duration": 14, "velocity": 77}, {"time": 2960, "pitch": 64, "duration": 7, "velocity": 83}, {"time": 2960, "pitch": 67, "duration": 7, "velocity": 79}, {"time": 2966, "pitch": 59, "duration": 5, "velocity": 83}, {"time": 2972, "pitch": 64, "duration": 7, "velocity": 85}, {"time": 2972, "pitch": 67, "duration": 7, "velocity": 83}, {"time": 2978, "pitch": 59, "duration": 2, "velocity": 78}, {"time": 2984, "pitch": 45, "duration": 16, "velocity": 82}, {"time": 2984, "pitch": 57, "duration": 9, "velocity": 76}, {"time": 2984, "pitch": 60, "duration": 8, "velocity": 74}, {"time": 2990, "pitch": 52, "duration": 10, "velocity": 71}, {"time": 2996, "pitch": 57, "duration": 6, "velocity": 75}, {"time": 2996, "pitch": 60, "duration": 6, "velocity": 79}, {"time": 2996, "pitch": 64, "duration": 6, "velocity": 82}, {"time": 3002, "pitch": 45, "duration": 6, "velocity": 82}, {"time": 3008, "pitch": 50, "duration": 18, "velocity": 83}, {"time": 3008, "pitch": 57, "duration": 3, "velocity": 76}, {"time": 3008, "pitch": 62, "duration": 9, "velocity": 77}, {"time": 3014, "pitch": 57, "duration": 7, "velocity": 83}, {"time": 3020, "pitch": 62, "duration": 7, "velocity": 84}, {"time": 3020, "pitch": 66, "duration": 8, "velocity": 87}, {"time": 3026, "pitch": 57, "duration": 1, "velocity": 80}, {"time": 3032, "pitch": 47, "duration": 20, "velocity": 84}, {"time": 3038, "pitch": 59, "duration": 7, "velocity": 79}, {"time": 3044, "pitch": 62, "duration": 6, "velocity": 82}, {"time": 3044, "pitch": 66, "duration": 7, "velocity": 85}, {"time": 3050, "pitch": 59, "duration": 3, "velocity": 84}, {"time": 3056, "pitch": 52, "duration": 22, "velocity": 89}, {"time": 3056, "pitch": 59, "duration": 3, "velocity": 83}, {"time": 3056, "pitch": 64, "duration": 8, "velocity": 83}, {"time": 3062, "pitch": 59, "duration": 8, "velocity": 75}, {"time": 3068, "pitch": 64, "duration": 7, "velocity": 84}, {"time": 3068, "pitch": 67, "duration": 10, "velocity": 82}, {"time": 3074, "pitch": 59, "duration": 5, "velocity": 82}, {"time": 3080, "pitch": 52, "duration": 19, "velocity": 80}, {"time": 3080, "pitch": 59, "duration": 4, "velocity": 72}, {"time": 3080, "pitch": 64, "duration": 8, "velocity": 74}, {"time": 3086, "pitch": 59, "duration": 5, "velocity": 75}, {"time": 3092, "pitch": 59, "duration": 3, "velocity": 78}, {"time": 3092, "pitch": 64, "duration": 6, "velocity": 84}, {"time": 3092, "pitch": 67, "duration": 7, "velocity": 79}, {"time": 3098, "pitch": 59, "duration": 3, "velocity": 74}, {"time": 3104, "pitch": 47, "duration": 15, "velocity": 83}, {"time": 3104, "pitch": 59, "duration": 3, "velocity": 74}, {"time": 3104, "pitch": 62, "duration": 8, "velocity": 77}, {"time": 3104, "pitch": 66, "duration": 8, "velocity": 75}, {"time": 3110, "pitch": 59, "duration": 3, "velocity": 70}, {"time": 3116, "pitch": 59, "duration": 7, "velocity": 83}, {"time": 3116, "pitch": 62, "duration": 8, "velocity": 83}, {"time": 3116, "pitch": 66, "duration": 13, "velocity": 82}, {"time": 3122, "pitch": 54, "duration": 3, "velocity": 72}, {"time": 3125, "pitch": 59, "duration": 5, "velocity": 73}, {"time": 3125, "pitch": 62, "duration": 4, "velocity": 47}, {"time": 3128, "pitch": 45, "duration": 20, "velocity": 83}, {"time": 3134, "pitch": 52, "duration": 9, "velocity": 78}, {"time": 3140, "pitch": 57, "duration": 7, "velocity": 82}, {"time": 3140, "pitch": 64, "duration": 8, "velocity": 85}, {"time": 3146, "pitch": 52, "duration": 5, "velocity": 83}, {"time": 3152, "pitch": 47, "duration": 16, "velocity": 85}, {"time": 3152, "pitch": 59, "duration": 8, "velocity": 77}, {"time": 3152, "pitch": 62, "duration": 8, "velocity": 79}, {"time": 3158, "pitch": 54, "duration": 9, "velocity": 73}, {"time": 3164, "pitch": 59, "duration": 5, "velocity": 83}, {"time": 3164, "pitch": 62, "duration": 5, "velocity": 84}, {"time": 3164, "pitch": 66, "duration": 6, "velocity": 82}, {"time": 3176, "pitch": 40, "duration": 14, "velocity": 83}, {"time": 3176, "pitch": 59, "duration": 8, "velocity": 78}, {"time": 3176, "pitch": 64, "duration": 7, "velocity": 82}, {"time": 3182, "pitch": 47, "duration": 6, "velocity": 72}, {"time": 3188, "pitch": 59, "duration": 3, "velocity": 81}, {"time": 3188, "pitch": 64, "duration": 7, "velocity": 84}, {"time": 3194, "pitch": 59, "duration": 2, "velocity": 86}, {"time": 3200, "pitch": 45, "duration": 15, "velocity": 83}, {"time": 3200, "pitch": 57, "duration": 10, "velocity": 72}, {"time": 3200, "pitch": 61, "duration": 9, "velocity": 72}, {"time": 3206, "pitch": 52, "duration": 9, "velocity": 82}, {"time": 3212, "pitch": 57, "duration": 5, "velocity": 82}, {"time": 3212, "pitch": 61, "duration": 5, "velocity": 84}, {"time": 3212, "pitch": 64, "duration": 5, "velocity": 84}, {"time": 3218, "pitch": 45, "duration": 3, "velocity": 85}, {"time": 3224, "pitch": 38, "duration": 24, "velocity": 81}, {"time": 3224, "pitch": 57, "duration": 4, "velocity": 79}, {"time": 3224, "pitch": 62, "duration": 7, "velocity": 81}, {"time": 3230, "pitch": 57, "duration": 1, "velocity": 70}, {"time": 3233, "pitch": 57, "duration": 1, "velocity": 52}, {"time": 3233, "pitch": 62, "duration": 2, "velocity": 68}, {"time": 3233, "pitch": 66, "duration": 2, "velocity": 65}, {"time": 3236, "pitch": 57, "duration": 4, "velocity": 83}, {"time": 3236, "pitch": 62, "duration": 4, "velocity": 88}, {"time": 3236, "pitch": 66, "duration": 5, "velocity": 84}, {"time": 3239, "pitch": 45, "duration": 9, "velocity": 76}, {"time": 3242, "pitch": 57, "duration": 3, "velocity": 84}, {"time": 3242, "pitch": 62, "duration": 5, "velocity": 84}, {"time": 3245, "pitch": 57, "duration": 2, "velocity": 76}, {"time": 3248, "pitch": 43, "duration": 23, "velocity": 84}, {"time": 3248, "pitch": 55, "duration": 4, "velocity": 82}, {"time": 3248, "pitch": 62, "duration": 6, "velocity": 83}, {"time": 3251, "pitch": 50, "duration": 20, "velocity": 75}, {"time": 3254, "pitch": 55, "duration": 8, "velocity": 82}, {"time": 3257, "pitch": 59, "duration": 3, "velocity": 75}, {"time": 3260, "pitch": 67, "duration": 4, "velocity": 86}, {"time": 3263, "pitch": 62, "duration": 4, "velocity": 82}, {"time": 3266, "pitch": 59, "duration": 4, "velocity": 86}, {"time": 3269, "pitch": 55, "duration": 8, "velocity": 96}, {"time": 3272, "pitch": 43, "duration": 18, "velocity": 83}, {"time": 3275, "pitch": 50, "duration": 14, "velocity": 76}, {"time": 3278, "pitch": 55, "duration": 9, "velocity": 76}, {"time": 3281, "pitch": 59, "duration": 4, "velocity": 81}, {"time": 3284, "pitch": 67, "duration": 6, "velocity": 86}, {"time": 3287, "pitch": 62, "duration": 4, "velocity": 83}, {"time": 3290, "pitch": 59, "duration": 4, "velocity": 84}, {"time": 3293, "pitch": 55, "duration": 5, "velocity": 88}, {"time": 3296, "pitch": 40, "duration": 16, "velocity": 87}, {"time": 3299, "pitch": 47, "duration": 12, "velocity": 71}, {"time": 3302, "pitch": 52, "duration": 10, "velocity": 82}, {"time": 3305, "pitch": 55, "duration": 7, "velocity": 78}, {"time": 3308, "pitch": 64, "duration": 15, "velocity": 87}, {"time": 3311, "pitch": 59, "duration": 10, "velocity": 84}, {"time": 3314, "pitch": 55, "duration": 6, "velocity": 83}, {"time": 3317, "pitch": 52, "duration": 3, "velocity": 86}, {"time": 3320, "pitch": 45, "duration": 18, "velocity": 88}, {"time": 3323, "pitch": 52, "duration": 14, "velocity": 77}, {"time": 3326, "pitch": 57, "duration": 9, "velocity": 82}, {"time": 3329, "pitch": 60, "duration": 5, "velocity": 82}, {"time": 3332, "pitch": 69, "duration": 16, "velocity": 88}, {"time": 3335, "pitch": 64, "duration": 13, "velocity": 82}, {"time": 3338, "pitch": 60, "duration": 10, "velocity": 79}, {"time": 3341, "pitch": 57, "duration": 7, "velocity": 71}, {"time": 3344, "pitch": 43, "duration": 23, "velocity": 86}, {"time": 3347, "pitch": 50, "duration": 20, "velocity": 76}, {"time": 3350, "pitch": 55, "duration": 10, "velocity": 83}, {"time": 3353, "pitch": 59, "duration": 7, "velocity": 78}, {"time": 3356, "pitch": 67, "duration": 10, "velocity": 85}, {"time": 3359, "pitch": 62, "duration": 7, "velocity": 82}, {"time": 3362, "pitch": 59, "duration": 4, "velocity": 84}, {"time": 3365, "pitch": 55, "duration": 8, "velocity": 84}, {"time": 3368, "pitch": 43, "duration": 17, "velocity": 83}, {"time": 3368, "pitch": 59, "duration": 14, "velocity": 81}, {"time": 3371, "pitch": 50, "duration": 12, "velocity": 75}, {"time": 3374, "pitch": 55, "duration": 10, "velocity": 80}, {"time": 3377, "pitch": 62, "duration": 4, "velocity": 77}, {"time": 3380, "pitch": 67, "duration": 9, "velocity": 83}, {"time": 3383, "pitch": 62, "duration": 4, "velocity": 83}, {"time": 3386, "pitch": 59, "duration": 4, "velocity": 82}, {"time": 3389, "pitch": 55, "duration": 2, "velocity": 83}, {"time": 3392, "pitch": 45, "duration": 19, "velocity": 82}, {"time": 3392, "pitch": 57, "duration": 4, "velocity": 80}, {"time": 3392, "pitch": 61, "duration": 7, "velocity": 84}, {"time": 3395, "pitch": 52, "duration": 14, "velocity": 77}, {"time": 3398, "pitch": 57, "duration": 9, "velocity": 89}, {"time": 3401, "pitch": 64, "duration": 4, "velocity": 80}, {"time": 3404, "pitch": 69, "duration": 7, "velocity": 87}, {"time": 3407, "pitch": 64, "duration": 4, "velocity": 82}, {"time": 3410, "pitch": 61, "duration": 4, "velocity": 82}, {"time": 3413, "pitch": 57, "duration": 2, "velocity": 82}, {"time": 3416, "pitch": 38, "duration": 15, "velocity": 87}, {"time": 3416, "pitch": 57, "duration": 3, "velocity": 82}, {"time": 3416, "pitch": 62, "duration": 7, "velocity": 84}, {"time": 3419, "pitch": 45, "duration": 12, "velocity": 72}, {"time": 3422, "pitch": 57, "duration": 5, "velocity": 76}, {"time": 3425, "pitch": 62, "duration": 2, "velocity": 75}, {"time": 3428, "pitch": 66, "duration": 6, "velocity": 91}, {"time": 3431, "pitch": 62, "duration": 3, "velocity": 74}, {"time": 3434, "pitch": 57, "duration": 2, "velocity": 84}, {"time": 3440, "pitch": 48, "duration": 20, "velocity": 89}, {"time": 3440, "pitch": 55, "duration": 2, "velocity": 81}, {"time": 3440, "pitch": 60, "duration": 4, "velocity": 77}, {"time": 3443, "pitch": 55, "duration": 4, "velocity": 80}, {"time": 3446, "pitch": 60, "duration": 4, "velocity": 77}, {"time": 3449, "pitch": 55, "duration": 4, "velocity": 69}, {"time": 3452, "pitch": 64, "duration": 7, "velocity": 91}, {"time": 3455, "pitch": 55, "duration": 4, "velocity": 78}, {"time": 3458, "pitch": 60, "duration": 4, "velocity": 71}, {"time": 3461, "pitch": 55, "duration": 2, "velocity": 77}, {"time": 3464, "pitch": 43, "duration": 19, "velocity": 83}, {"time": 3464, "pitch": 55, "duration": 4, "velocity": 75}, {"time": 3464, "pitch": 59, "duration": 7, "velocity": 78}, {"time": 3467, "pitch": 50, "duration": 16, "velocity": 73}, {"time": 3470, "pitch": 62, "duration": 7, "velocity": 75}, {"time": 3473, "pitch": 55, "duration": 7, "velocity": 80}, {"time": 3476, "pitch": 67, "duration": 12, "velocity": 84}, {"time": 3479, "pitch": 62, "duration": 7, "velocity": 80}, {"time": 3482, "pitch": 59, "duration": 4, "velocity": 83}, {"time": 3485, "pitch": 55, "duration": 2, "velocity": 81}, {"time": 3488, "pitch": 47, "duration": 16, "velocity": 83}, {"time": 3488, "pitch": 59, "duration": 4, "velocity": 74}, {"time": 3488, "pitch": 62, "duration": 7, "velocity": 76}, {"time": 3491, "pitch": 54, "duration": 11, "velocity": 80}, {"time": 3494, "pitch": 59, "duration": 5, "velocity": 82}, {"time": 3497, "pitch": 62, "duration": 4, "velocity": 77}, {"time": 3500, "pitch": 66, "duration": 4, "velocity": 91}, {"time": 3503, "pitch": 62, "duration": 4, "velocity": 82}, {"time": 3506, "pitch": 59, "duration": 5, "velocity": 77}, {"time": 3509, "pitch": 62, "duration": 3, "velocity": 76}, {"time": 3512, "pitch": 40, "duration": 17, "velocity": 84}, {"time": 3512, "pitch": 64, "duration": 6, "velocity": 80}, {"time": 3515, "pitch": 47, "duration": 13, "velocity": 75}, {"time": 3518, "pitch": 59, "duration": 4, "velocity": 82}, {"time": 3521, "pitch": 64, "duration": 2, "velocity": 80}, {"time": 3524, "pitch": 67, "duration": 4, "velocity": 87}, {"time": 3527, "pitch": 64, "duration": 4, "velocity": 76}, {"time": 3530, "pitch": 59, "duration": 2, "velocity": 78}, {"time": 3536, "pitch": 43, "duration": 22, "velocity": 82}, {"time": 3536, "pitch": 55, "duration": 6, "velocity": 76}, {"time": 3536, "pitch": 59, "duration": 7, "velocity": 78}, {"time": 3539, "pitch": 50, "duration": 20, "velocity": 74}, {"time": 3542, "pitch": 62, "duration": 7, "velocity": 78}, {"time": 3545, "pitch": 59, "duration": 4, "velocity": 76}, {"time": 3548, "pitch": 67, "duration": 7, "velocity": 84}, {"time": 3551, "pitch": 62, "duration": 4, "velocity": 79}, {"time": 3554, "pitch": 59, "duration": 3, "velocity": 83}, {"time": 3557, "pitch": 55, "duration": 2, "velocity": 82}, {"time": 3560, "pitch": 45, "duration": 23, "velocity": 82}, {"time": 3560, "pitch": 61, "duration": 7, "velocity": 78}, {"time": 3563, "pitch": 52, "duration": 20, "velocity": 76}, {"time": 3566, "pitch": 57, "duration": 6, "velocity": 80}, {"time": 3569, "pitch": 61, "duration": 5, "velocity": 75}, {"time": 3572, "pitch": 69, "duration": 5, "velocity": 82}, {"time": 3575, "pitch": 64, "duration": 5, "velocity": 83}, {"time": 3578, "pitch": 61, "duration": 4, "velocity": 87}, {"time": 3581, "pitch": 57, "duration": 2, "velocity": 80}, {"time": 3584, "pitch": 50, "duration": 23, "velocity": 86}, {"time": 3584, "pitch": 57, "duration": 2, "velocity": 82}, {"time": 3584, "pitch": 62, "duration": 4, "velocity": 83}, {"time": 3587, "pitch": 57, "duration": 4, "velocity": 82}, {"time": 3590, "pitch": 62, "duration": 4, "velocity": 79}, {"time": 3593, "pitch": 57, "duration": 4, "velocity": 83}, {"time": 3596, "pitch": 64, "duration": 6, "velocity": 82}, {"time": 3599, "pitch": 57, "duration": 4, "velocity": 79}, {"time": 3602, "pitch": 62, "duration": 4, "velocity": 78}, {"time": 3605, "pitch": 57, "duration": 4, "velocity": 78}, {"time": 3608, "pitch": 50, "duration": 19, "velocity": 88}, {"time": 3608, "pitch": 62, "duration": 4, "velocity": 81}, {"time": 3608, "pitch": 66, "duration": 6, "velocity": 77}, {"time": 3611, "pitch": 57, "duration": 4, "velocity": 73}, {"time": 3614, "pitch": 62, "duration": 4, "velocity": 76}, {"time": 3617, "pitch": 57, "duration": 2, "velocity": 74}, {"time": 3620, "pitch": 66, "duration": 6, "velocity": 84}, {"time": 3623, "pitch": 57, "duration": 4, "velocity": 71}, {"time": 3626, "pitch": 62, "duration": 1, "velocity": 83}, {"time": 3632, "pitch": 43, "duration": 18, "velocity": 82}, {"time": 3632, "pitch": 55, "duration": 10, "velocity": 72}, {"time": 3632, "pitch": 59, "duration": 6, "velocity": 73}, {"time": 3638, "pitch": 50, "duration": 11, "velocity": 73}, {"time": 3644, "pitch": 59, "duration": 5, "velocity": 84}, {"time": 3644, "pitch": 62, "duration": 6, "velocity": 83}, {"time": 3650, "pitch": 55, "duration": 1, "velocity": 83}, {"time": 3656, "pitch": 40, "duration": 15, "velocity": 88}, {"time": 3656, "pitch": 59, "duration": 4, "velocity": 78}, {"time": 3656, "pitch": 64, "duration": 6, "velocity": 83}, {"time": 3659, "pitch": 47, "duration": 12, "velocity": 76}, {"time": 3662, "pitch": 59, "duration": 4, "velocity": 75}, {"time": 3665, "pitch": 64, "duration": 2, "velocity": 77}, {"time": 3668, "pitch": 59, "duration": 6, "velocity": 82}, {"time": 3668, "pitch": 64, "duration": 6, "velocity": 83}, {"time": 3668, "pitch": 67, "duration": 6, "velocity": 76}, {"time": 3680, "pitch": 47, "duration": 22, "velocity": 83}, {"time": 3680, "pitch": 59, "duration": 9, "velocity": 82}, {"time": 3680, "pitch": 62, "duration": 9, "velocity": 80}, {"time": 3680, "pitch": 66, "duration": 9, "velocity": 79}, {"time": 3686, "pitch": 54, "duration": 16, "velocity": 74}, {"time": 3692, "pitch": 59, "duration": 3, "velocity": 80}, {"time": 3692, "pitch": 62, "duration": 3, "velocity": 83}, {"time": 3692, "pitch": 66, "duration": 4, "velocity": 84}, {"time": 3704, "pitch": 47, "duration": 17, "velocity": 83}, {"time": 3704, "pitch": 71, "duration": 9, "velocity": 85}, {"time": 3707, "pitch": 66, "duration": 8, "velocity": 83}, {"time": 3710, "pitch": 62, "duration": 5, "velocity": 73}, {"time": 3713, "pitch": 59, "duration": 2, "velocity": 79}, {"time": 3716, "pitch": 54, "duration": 5, "velocity": 72}, {"time": 3716, "pitch": 59, "duration": 6, "velocity": 82}, {"time": 3716, "pitch": 62, "duration": 6, "velocity": 84}, {"time": 3722, "pitch": 47, "duration": 4, "velocity": 83}, {"time": 3728, "pitch": 45, "duration": 19, "velocity": 82}, {"time": 3728, "pitch": 57, "duration": 10, "velocity": 73}, {"time": 3728, "pitch": 60, "duration": 7, "velocity": 78}, {"time": 3734, "pitch": 52, "duration": 9, "velocity": 71}, {"time": 3740, "pitch": 57, "duration": 6, "velocity": 78}, {"time": 3740, "pitch": 60, "duration": 6, "velocity": 87}, {"time": 3740, "pitch": 64, "duration": 7, "velocity": 87}, {"time": 3746, "pitch": 52, "duration": 5, "velocity": 87}, {"time": 3752, "pitch": 47, "duration": 19, "velocity": 87}, {"time": 3752, "pitch": 59, "duration": 7, "velocity": 79}, {"time": 3752, "pitch": 62, "duration": 10, "velocity": 81}, {"time": 3758, "pitch": 54, "duration": 10, "velocity": 71}, {"time": 3761, "pitch": 59, "duration": 2, "velocity": 81}, {"time": 3764, "pitch": 66, "duration": 5, "velocity": 88}, {"time": 3767, "pitch": 62, "duration": 4, "velocity": 80}, {"time": 3770, "pitch": 59, "duration": 3, "velocity": 82}, {"time": 3776, "pitch": 45, "duration": 16, "velocity": 82}, {"time": 3776, "pitch": 57, "duration": 9, "velocity": 76}, {"time": 3776, "pitch": 61, "duration": 9, "velocity": 70}, {"time": 3782, "pitch": 52, "duration": 9, "velocity": 75}, {"time": 3788, "pitch": 61, "duration": 6, "velocity": 83}, {"time": 3788, "pitch": 64, "duration": 8, "velocity": 85}, {"time": 3794, "pitch": 57, "duration": 4, "velocity": 81}, {"time": 3800, "pitch": 38, "duration": 23, "velocity": 85}, {"time": 3800, "pitch": 57, "duration": 7, "velocity": 78}, {"time": 3800, "pitch": 62, "duration": 10, "velocity": 78}, {"time": 3806, "pitch": 45, "duration": 16, "velocity": 74}, {"time": 3809, "pitch": 57, "duration": 5, "velocity": 69}, {"time": 3812, "pitch": 66, "duration": 3, "velocity": 86}, {"time": 3815, "pitch": 64, "duration": 4, "velocity": 88}, {"time": 3818, "pitch": 62, "duration": 4, "velocity": 83}, {"time": 3821, "pitch": 57, "duration": 11, "velocity": 79}, {"time": 3824, "pitch": 38, "duration": 26, "velocity": 84}, {"time": 3824, "pitch": 62, "duration": 8, "velocity": 78}, {"time": 3830, "pitch": 45, "duration": 11, "velocity": 69}, {"time": 3836, "pitch": 62, "duration": 2, "velocity": 88}, {"time": 3836, "pitch": 66, "duration": 12, "velocity": 89}, {"time": 3839, "pitch": 57, "duration": 6, "velocity": 88}, {"time": 3839, "pitch": 62, "duration": 1, "velocity": 59}, {"time": 3842, "pitch": 45, "duration": 7, "velocity": 75}, {"time": 3845, "pitch": 57, "duration": 3, "velocity": 78}, {"time": 3848, "pitch": 43, "duration": 40, "velocity": 83}, {"time": 3848, "pitch": 55, "duration": 11, "velocity": 74}, {"time": 3848, "pitch": 59, "duration": 10, "velocity": 64}, {"time": 3848, "pitch": 62, "duration": 10, "velocity": 72}, {"time": 3854, "pitch": 50, "duration": 34, "velocity": 70}, {"time": 3860, "pitch": 55, "duration": 4, "velocity": 83}, {"time": 3860, "pitch": 59, "duration": 4, "velocity": 83}, {"time": 3860, "pitch": 62, "duration": 5, "velocity": 83}, {"time": 3872, "pitch": 59, "duration": 5, "velocity": 83}, {"time": 3872, "pitch": 62, "duration": 4, "velocity": 81}, {"time": 3878, "pitch": 55, "duration": 5, "velocity": 76}, {"time": 3884, "pitch": 59, "duration": 7, "velocity": 83}, {"time": 3884, "pitch": 62, "duration": 7, "velocity": 84}, {"time": 3884, "pitch": 67, "duration": 8, "velocity": 81}, {"time": 3890, "pitch": 55, "duration": 1, "velocity": 87}, {"time": 3896, "pitch": 47, "duration": 15, "velocity": 84}, {"time": 3896, "pitch": 59, "duration": 9, "velocity": 83}, {"time": 3896, "pitch": 62, "duration": 8, "velocity": 82}, {"time": 3902, "pitch": 54, "duration": 8, "velocity": 71}, {"time": 3908, "pitch": 59, "duration": 3, "velocity": 79}, {"time": 3908, "pitch": 62, "duration": 7, "velocity": 82}, {"time": 3908, "pitch": 66, "duration": 7, "velocity": 77}, {"time": 3914, "pitch": 59, "duration": 2, "velocity": 76}, {"time": 3920, "pitch": 45, "duration": 14, "velocity": 83}, {"time": 3920, "pitch": 57, "duration": 10, "velocity": 75}, {"time": 3920, "pitch": 61, "duration": 10, "velocity": 80}, {"time": 3920, "pitch": 64, "duration": 10, "velocity": 82}, {"time": 3926, "pitch": 52, "duration": 7, "velocity": 74}, {"time": 3932, "pitch": 57, "duration": 4, "velocity": 80}, {"time": 3932, "pitch": 61, "duration": 8, "velocity": 82}, {"time": 3932, "pitch": 64, "duration": 10, "velocity": 84}, {"time": 3938, "pitch": 57, "duration": 5, "velocity": 74}, {"time": 3944, "pitch": 38, "duration": 42, "velocity": 84}, {"time": 3944, "pitch": 57, "duration": 9, "velocity": 76}, {"time": 3944, "pitch": 62, "duration": 9, "velocity": 79}, {"time": 3950, "pitch": 45, "duration": 35, "velocity": 66}, {"time": 3956, "pitch": 62, "duration": 10, "velocity": 81}, {"time": 3956, "pitch": 66, "duration": 8, "velocity": 78}, {"time": 3962, "pitch": 57, "duration": 5, "velocity": 80}, {"time": 3968, "pitch": 62, "duration": 7, "velocity": 74}, {"time": 3968, "pitch": 66, "duration": 7, "velocity": 67}, {"time": 3974, "pitch": 57, "duration": 3, "velocity": 66}, {"time": 3980, "pitch": 57, "duration": 3, "velocity": 82}, {"time": 3980, "pitch": 62, "duration": 11, "velocity": 84}, {"time": 3980, "pitch": 66, "duration": 11, "velocity": 83}, {"time": 3986, "pitch": 57, "duration": 5, "velocity": 82}, {"time": 3992, "pitch": 43, "duration": 23, "velocity": 83}, {"time": 3992, "pitch": 55, "duration": 7, "velocity": 77}, {"time": 3992, "pitch": 62, "duration": 7, "velocity": 78}, {"time": 3998, "pitch": 50, "duration": 9, "velocity": 74}, {"time": 4004, "pitch": 55, "duration": 13, "velocity": 83}, {"time": 4004, "pitch": 59, "duration": 7, "velocity": 84}, {"time": 4010, "pitch": 50, "duration": 6, "velocity": 67}, {"time": 4016, "pitch": 43, "duration": 23, "velocity": 81}, {"time": 4016, "pitch": 59, "duration": 8, "velocity": 78}, {"time": 4016, "pitch": 62, "duration": 8, "velocity": 78}, {"time": 4022, "pitch": 50, "duration": 16, "velocity": 61}, {"time": 4028, "pitch": 55, "duration": 7, "velocity": 81}, {"time": 4031, "pitch": 62, "duration": 4, "velocity": 77}, {"time": 4034, "pitch": 64, "duration": 6, "velocity": 81}, {"time": 4040, "pitch": 43, "duration": 19, "velocity": 82}, {"time": 4040, "pitch": 55, "duration": 8, "velocity": 73}, {"time": 4040, "pitch": 62, "duration": 8, "velocity": 72}, {"time": 4046, "pitch": 50, "duration": 11, "velocity": 68}, {"time": 4052, "pitch": 55, "duration": 3, "velocity": 82}, {"time": 4052, "pitch": 59, "duration": 7, "velocity": 84}, {"time": 4052, "pitch": 62, "duration": 12, "velocity": 84}, {"time": 4058, "pitch": 55, "duration": 5, "velocity": 83}, {"time": 4064, "pitch": 43, "duration": 22, "velocity": 82}, {"time": 4064, "pitch": 55, "duration": 10, "velocity": 76}, {"time": 4064, "pitch": 62, "duration": 10, "velocity": 79}, {"time": 4070, "pitch": 50, "duration": 14, "velocity": 73}, {"time": 4076, "pitch": 55, "duration": 3, "velocity": 78}, {"time": 4076, "pitch": 59, "duration": 7, "velocity": 82}, {"time": 4082, "pitch": 55, "duration": 6, "velocity": 82}, {"time": 4088, "pitch": 45, "duration": 23, "velocity": 84}, {"time": 4094, "pitch": 52, "duration": 16, "velocity": 77}, {"time": 4100, "pitch": 57, "duration": 11, "velocity": 81}, {"time": 4106, "pitch": 64, "duration": 6, "velocity": 76}, {"time": 4112, "pitch": 50, "duration": 23, "velocity": 82}, {"time": 4112, "pitch": 57, "duration": 3, "velocity": 74}, {"time": 4112, "pitch": 62, "duration": 9, "velocity": 77}, {"time": 4118, "pitch": 57, "duration": 8, "velocity": 74}, {"time": 4124, "pitch": 66, "duration": 4, "velocity": 81}, {"time": 4127, "pitch": 64, "duration": 4, "velocity": 80}, {"time": 4130, "pitch": 62, "duration": 4, "velocity": 83}, {"time": 4133, "pitch": 57, "duration": 3, "velocity": 76}, {"time": 4136, "pitch": 50, "duration": 25, "velocity": 84}, {"time": 4136, "pitch": 57, "duration": 3, "velocity": 74}, {"time": 4136, "pitch": 62, "duration": 9, "velocity": 78}, {"time": 4142, "pitch": 57, "duration": 5, "velocity": 69}, {"time": 4148, "pitch": 62, "duration": 12, "velocity": 83}, {"time": 4148, "pitch": 66, "duration": 12, "velocity": 82}, {"time": 4154, "pitch": 57, "duration": 6, "velocity": 83}, {"time": 4160, "pitch": 50, "duration": 1, "velocity": 59}, {"time": 4161, "pitch": 38, "duration": 8, "velocity": 91}, {"time": 4161, "pitch": 54, "duration": 9, "velocity": 72}, {"time": 4161, "pitch": 57, "duration": 9, "velocity": 73}, {"time": 4162, "pitch": 62, "duration": 10, "velocity": 72}, {"time": 4173, "pitch": 50, "duration": 29, "velocity": 64}, {"time": 4176, "pitch": 57, "duration": 25, "velocity": 68}, {"time": 4179, "pitch": 62, "duration": 24, "velocity": 67}, {"time": 4181, "pitch": 66, "duration": 22, "velocity": 62}, {"time": 4182, "pitch": 69, "duration": 22, "velocity": 58}, {"time": 4182, "pitch": 74, "duration": 21, "velocity": 69}, {"time": 4220, "pitch": 43, "duration": 40, "velocity": 83}, {"time": 4220, "pitch": 55, "duration": 11, "velocity": 74}, {"time": 4220, "pitch": 59, "duration": 10, "velocity": 64}, {"time": 4220, "pitch": 62, "duration": 10, "velocity": 72}, {"time": 4226, "pitch": 50, "duration": 34, "velocity": 70}, {"time": 4232, "pitch": 55, "duration": 4, "velocity": 83}, {"time": 4232, "pitch": 59, "duration": 4, "velocity": 83}, {"time": 4232, "pitch": 62, "duration": 5, "velocity": 83}, {"time": 4244, "pitch": 59, "duration": 5, "velocity": 83}, {"time": 4244, "pitch": 62, "duration": 4, "velocity": 81}, {"time": 4250, "pitch": 55, "duration": 5, "velocity": 76}, {"time": 4256, "pitch": 59, "duration": 7, "velocity": 83}, {"time": 4256, "pitch": 62, "duration": 7, "velocity": 84}, {"time": 4256, "pitch": 67, "duration": 8, "velocity": 81}, {"time": 4262, "pitch": 55, "duration": 1, "velocity": 87}, {"time": 4268, "pitch": 47, "duration": 15, "velocity": 84}, {"time": 4268, "pitch": 59, "duration": 9, "velocity": 83}, {"time": 4268, "pitch": 62, "duration": 8, "velocity": 82}, {"time": 4274, "pitch": 54, "duration": 8, "velocity": 71}, {"time": 4280, "pitch": 59, "duration": 3, "velocity": 79}, {"time": 4280, "pitch": 62, "duration": 7, "velocity": 82}, {"time": 4280, "pitch": 66, "duration": 7, "velocity": 77}, {"time": 4286, "pitch": 59, "duration": 2, "velocity": 76}, {"time": 4292, "pitch": 45, "duration": 14, "velocity": 83}, {"time": 4292, "pitch": 57, "duration": 10, "velocity": 75}, {"time": 4292, "pitch": 61, "duration": 10, "velocity": 80}, {"time": 4292, "pitch": 64, "duration": 10, "velocity": 82}, {"time": 4298, "pitch": 52, "duration": 7, "velocity": 74}, {"time": 4304, "pitch": 57, "duration": 4, "velocity": 80}, {"time": 4304, "pitch": 61, "duration": 8, "velocity": 82}, {"time": 4304, "pitch": 64, "duration": 10, "velocity": 84}, {"time": 4310, "pitch": 57, "duration": 5, "velocity": 74}, {"time": 4316, "pitch": 38, "duration": 42, "velocity": 84}, {"time": 4316, "pitch": 57, "duration": 9, "velocity": 76}, {"time": 4316, "pitch": 62, "duration": 9, "velocity": 79}, {"time": 4322, "pitch": 45, "duration": 35, "velocity": 66}, {"time": 4328, "pitch": 62, "duration": 10, "velocity": 81}, {"time": 4328, "pitch": 66, "duration": 8, "velocity": 78}, {"time": 4334, "pitch": 57, "duration": 5, "velocity": 80}, {"time": 4340, "pitch": 62, "duration": 7, "velocity": 74}, {"time": 4340, "pitch": 66, "duration": 7, "velocity": 67}, {"time": 4346, "pitch": 57, "duration": 3, "velocity": 66}, {"time": 4352, "pitch": 57, "duration": 3, "velocity": 82}, {"time": 4352, "pitch": 62, "duration": 11, "velocity": 84}, {"time": 4352, "pitch": 66, "duration": 11, "velocity": 83}, {"time": 4358, "pitch": 57, "duration": 5, "velocity": 82}, {"time": 4364, "pitch": 43, "duration": 23, "velocity": 83}, {"time": 4364, "pitch": 55, "duration": 7, "velocity": 77}, {"time": 4364, "pitch": 62, "duration": 7, "velocity": 78}, {"time": 4370, "pitch": 50, "duration": 9, "velocity": 74}, {"time": 4376, "pitch": 55, "duration": 13, "velocity": 83}, {"time": 4376, "pitch": 59, "duration": 7, "velocity": 84}, {"time": 4382, "pitch": 50, "duration": 6, "velocity": 67}, {"time": 4388, "pitch": 43, "duration": 23, "velocity": 81}, {"time": 4388, "pitch": 59, "duration": 8, "velocity": 78}, {"time": 4388, "pitch": 62, "duration": 8, "velocity": 78}, {"time": 4394, "pitch": 50, "duration": 16, "velocity": 61}, {"time": 4400, "pitch": 55, "duration": 7, "velocity": 81}, {"time": 4403, "pitch": 62, "duration": 4, "velocity": 77}, {"time": 4406, "pitch": 64, "duration": 6, "velocity": 81}, {"time": 4412, "pitch": 43, "duration": 19, "velocity": 82}, {"time": 4412, "pitch": 55, "duration": 8, "velocity": 73}, {"time": 4412, "pitch": 62, "duration": 8, "velocity": 72}, {"time": 4418, "pitch": 50, "duration": 11, "velocity": 68}, {"time": 4424, "pitch": 55, "duration": 3, "velocity": 82}, {"time": 4424, "pitch": 59, "duration": 7, "velocity": 84}, {"time": 4424, "pitch": 62, "duration": 12, "velocity": 84}, {"time": 4430, "pitch": 55, "duration": 5, "velocity": 83}, {"time": 4436, "pitch": 55, "duration": 22, "velocity": 69}, {"time": 4436, "pitch": 43, "duration": 22, "velocity": 77}, {"time": 4437, "pitch": 59, "duration": 21, "velocity": 71}, {"time": 4438, "pitch": 67, "duration": 20, "velocity": 65}, {"time": 4438, "pitch": 62, "duration": 20, "velocity": 55}], "annotations": [{"time": 346, "annotation": {"number": 64, "value": 127}, "group": "control_change"}, {"time": 389, "annotation": {"number": 64, "value": 0}, "group": "control_change"}, {"time": 392, "annotation": {"number": 64, "value": 127}, "group": "control_change"}, {"time": 439, "annotation": {"number": 64, "value": 0}, "group": "control_change"}, {"time": 444, "annotation": {"number": 64, "value": 127}, "group": "control_change"}, {"time": 486, "annotation": {"number": 64, "value": 0}, "group": "control_change"}, {"time": 488, "annotation": {"number": 64, "value": 127}, "group": "control_change"}, {"time": 534, "annotation": {"number": 64, "value": 0}, "group": "control_change"}, {"time": 541, "annotation": {"number": 64, "value": 127}, "group": "control_change"}, {"time": 583, "annotation": {"number": 64, "value": 0}, "group": "control_change"}, {"time": 588, "annotation": {"number": 64, "value": 127}, "group": "control_change"}, {"time": 606, "annotation": {"number": 64, "value": 0}, "group": "control_change"}, {"time": 614, "annotation": {"number": 64, "value": 127}, "group": "control_change"}, {"time": 631, "annotation": {"number": 64, "value": 0}, "group": "control_change"}, {"time": 637, "annotation": {"number": 64, "value": 127}, "group": "control_change"}, {"time": 678, "annotation": {"number": 64, "value": 0}, "group": "control_change"}, {"time": 686, "annotation": {"number": 64, "value": 127}, "group": "control_change"}, {"time": 705, "annotation": {"number": 64, "value": 0}, "group": "control_change"}, {"time": 709, "annotation": {"number": 64, "value": 127}, "group": "control_change"}, {"time": 727, "annotation": {"number": 64, "value": 0}, "group": "control_change"}, {"time": 732, "annotation": {"number": 64, "value": 127}, "group": "control_change"}, {"time": 751, "annotation": {"number": 64, "value": 0}, "group": "control_change"}, {"time": 756, "annotation": {"number": 64, "value": 127}, "group": "control_change"}, {"time": 774, "annotation": {"number": 64, "value": 0}, "group": "control_change"}, {"time": 781, "annotation": {"number": 64, "value": 127}, "group": "control_change"}, {"time": 799, "annotation": {"number": 64, "value": 0}, "group": "control_change"}, {"time": 805, "annotation": {"number": 64, "value": 127}, "group": "control_change"}, {"time": 821, "annotation": {"number": 64, "value": 0}, "group": "control_change"}, {"time": 824, "annotation": {"number": 64, "value": 127}, "group": "control_change"}, {"time": 847, "annotation": {"number": 64, "value": 0}, "group": "control_change"}, {"time": 849, "annotation": {"number": 64, "value": 127}, "group": "control_change"}, {"time": 870, "annotation": {"number": 64, "value": 0}, "group": "control_change"}, {"time": 872, "annotation": {"number": 64, "value": 127}, "group": "control_change"}, {"time": 895, "annotation": {"number": 64, "value": 0}, "group": "control_change"}, {"time": 898, "annotation": {"number": 64, "value": 127}, "group": "control_change"}, {"time": 918, "annotation": {"number": 64, "value": 0}, "group": "control_change"}, {"time": 922, "annotation": {"number": 64, "value": 127}, "group": "control_change"}, {"time": 943, "annotation": {"number": 64, "value": 0}, "group": "control_change"}, {"time": 946, "annotation": {"number": 64, "value": 127}, "group": "control_change"}, {"time": 967, "annotation": {"number": 64, "value": 0}, "group": "control_change"}, {"time": 971, "annotation": {"number": 64, "value": 127}, "group": "control_change"}, {"time": 991, "annotation": {"number": 64, "value": 0}, "group": "control_change"}, {"time": 993, "annotation": {"number": 64, "value": 127}, "group": "control_change"}, {"time": 1015, "annotation": {"number": 64, "value": 0}, "group": "control_change"}, {"time": 1018, "annotation": {"number": 64, "value": 127}, "group": "control_change"}, {"time": 1038, "annotation": {"number": 64, "value": 0}, "group": "control_change"}, {"time": 1042, "annotation": {"number": 64, "value": 127}, "group": "control_change"}, {"time": 1062, "annotation": {"number": 64, "value": 0}, "group": "control_change"}, {"time": 1065, "annotation": {"number": 64, "value": 127}, "group": "control_change"}, {"time": 1088, "annotation": {"number": 64, "value": 0}, "group": "control_change"}, {"time": 1148, "annotation": {"number": 64, "value": 127}, "group": "control_change"}, {"time": 1158, "annotation": {"number": 64, "value": 0}, "group": "control_change"}, {"time": 1166, "annotation": {"number": 64, "value": 127}, "group": "control_change"}, {"time": 1182, "annotation": {"number": 64, "value": 0}, "group": "control_change"}, {"time": 1185, "annotation": {"number": 64, "value": 127}, "group": "control_change"}, {"time": 1206, "annotation": {"number": 64, "value": 0}, "group": "control_change"}, {"time": 1210, "annotation": {"number": 64, "value": 127}, "group": "control_change"}, {"time": 1231, "annotation": {"number": 64, "value": 0}, "group": "control_change"}, {"time": 1235, "annotation": {"number": 64, "value": 127}, "group": "control_change"}, {"time": 1255, "annotation": {"number": 64, "value": 0}, "group": "control_change"}, {"time": 1261, "annotation": {"number": 64, "value": 127}, "group": "control_change"}, {"time": 1279, "annotation": {"number": 64, "value": 0}, "group": "control_change"}, {"time": 1284, "annotation": {"number": 64, "value": 127}, "group": "control_change"}, {"time": 1302, "annotation": {"number": 64, "value": 0}, "group": "control_change"}, {"time": 1307, "annotation": {"number": 64, "value": 127}, "group": "control_change"}, {"time": 1326, "annotation": {"number": 64, "value": 0}, "group": "control_change"}, {"time": 1334, "annotation": {"number": 64, "value": 127}, "group": "control_change"}, {"time": 1352, "annotation": {"number": 64, "value": 0}, "group": "control_change"}, {"time": 1357, "annotation": {"number": 64, "value": 127}, "group": "control_change"}, {"time": 1377, "annotation": {"number": 64, "value": 0}, "group": "control_change"}, {"time": 1381, "annotation": {"number": 64, "value": 127}, "group": "control_change"}, {"time": 1399, "annotation": {"number": 64, "value": 0}, "group": "control_change"}, {"time": 1404, "annotation": {"number": 64, "value": 127}, "group": "control_change"}, {"time": 1425, "annotation": {"number": 64, "value": 0}, "group": "control_change"}, {"time": 1428, "annotation": {"number": 64, "value": 127}, "group": "control_change"}, {"time": 1447, "annotation": {"number": 64, "value": 0}, "group": "control_change"}, {"time": 1451, "annotation": {"number": 64, "value": 127}, "group": "control_change"}, {"time": 1472, "annotation": {"number": 64, "value": 0}, "group": "control_change"}, {"time": 1474, "annotation": {"number": 64, "value": 127}, "group": "control_change"}, {"time": 1495, "annotation": {"number": 64, "value": 0}, "group": "control_change"}, {"time": 1498, "annotation": {"number": 64, "value": 127}, "group": "control_change"}, {"time": 1498, "annotation": {"number": 64, "value": 0}, "group": "control_change"}, {"time": 1520, "annotation": {"number": 64, "value": 0}, "group": "control_change"}, {"time": 1525, "annotation": {"number": 64, "value": 127}, "group": "control_change"}, {"time": 1544, "annotation": {"number": 64, "value": 0}, "group": "control_change"}, {"time": 1549, "annotation": {"number": 64, "value": 127}, "group": "control_change"}, {"time": 1566, "annotation": {"number": 64, "value": 0}, "group": "control_change"}, {"time": 1572, "annotation": {"number": 64, "value": 127}, "group": "control_change"}, {"time": 1590, "annotation": {"number": 64, "value": 0}, "group": "control_change"}, {"time": 1593, "annotation": {"number": 64, "value": 127}, "group": "control_change"}, {"time": 1616, "annotation": {"number": 64, "value": 0}, "group": "control_change"}, {"time": 1619, "annotation": {"number": 64, "value": 127}, "group": "control_change"}, {"time": 1638, "annotation": {"number": 64, "value": 0}, "group": "control_change"}, {"time": 1642, "annotation": {"number": 64, "value": 127}, "group": "control_change"}, {"time": 1662, "annotation": {"number": 64, "value": 0}, "group": "control_change"}, {"time": 1665, "annotation": {"number": 64, "value": 127}, "group": "control_change"}, {"time": 1686, "annotation": {"number": 64, "value": 0}, "group": "control_change"}, {"time": 1690, "annotation": {"number": 64, "value": 127}, "group": "control_change"}, {"time": 1712, "annotation": {"number": 64, "value": 0}, "group": "control_change"}, {"time": 1716, "annotation": {"number": 64, "value": 127}, "group": "control_change"}, {"time": 1735, "annotation": {"number": 64, "value": 0}, "group": "control_change"}, {"time": 1740, "annotation": {"number": 64, "value": 127}, "group": "control_change"}, {"time": 1759, "annotation": {"number": 64, "value": 0}, "group": "control_change"}, {"time": 1762, "annotation": {"number": 64, "value": 127}, "group": "control_change"}, {"time": 1783, "annotation": {"number": 64, "value": 0}, "group": "control_change"}, {"time": 1786, "annotation": {"number": 64, "value": 127}, "group": "control_change"}, {"time": 1807, "annotation": {"number": 64, "value": 0}, "group": "control_change"}, {"time": 1810, "annotation": {"number": 64, "value": 127}, "group": "control_change"}, {"time": 1832, "annotation": {"number": 64, "value": 0}, "group": "control_change"}, {"time": 1836, "annotation": {"number": 64, "value": 127}, "group": "control_change"}, {"time": 1856, "annotation": {"number": 64, "value": 0}, "group": "control_change"}, {"time": 1858, "annotation": {"number": 64, "value": 127}, "group": "control_change"}, {"time": 1880, "annotation": {"number": 64, "value": 0}, "group": "control_change"}, {"time": 1884, "annotation": {"number": 64, "value": 127}, "group": "control_change"}, {"time": 1904, "annotation": {"number": 64, "value": 0}, "group": "control_change"}, {"time": 1908, "annotation": {"number": 64, "value": 127}, "group": "control_change"}, {"time": 1927, "annotation": {"number": 64, "value": 0}, "group": "control_change"}, {"time": 1930, "annotation": {"number": 64, "value": 127}, "group": "control_change"}, {"time": 1950, "annotation": {"number": 64, "value": 0}, "group": "control_change"}, {"time": 1952, "annotation": {"number": 64, "value": 127}, "group": "control_change"}, {"time": 1975, "annotation": {"number": 64, "value": 0}, "group": "control_change"}, {"time": 1979, "annotation": {"number": 64, "value": 127}, "group": "control_change"}, {"time": 1979, "annotation": {"number": 64, "value": 0}, "group": "control_change"}, {"time": 1999, "annotation": {"number": 64, "value": 0}, "group": "control_change"}, {"time": 2002, "annotation": {"number": 64, "value": 127}, "group": "control_change"}, {"time": 2023, "annotation": {"number": 64, "value": 0}, "group": "control_change"}, {"time": 2028, "annotation": {"number": 64, "value": 127}, "group": "control_change"}, {"time": 2047, "annotation": {"number": 64, "value": 0}, "group": "control_change"}, {"time": 2049, "annotation": {"number": 64, "value": 127}, "group": "control_change"}, {"time": 2071, "annotation": {"number": 64, "value": 0}, "group": "control_change"}, {"time": 2076, "annotation": {"number": 64, "value": 127}, "group": "control_change"}, {"time": 2094, "annotation": {"number": 64, "value": 0}, "group": "control_change"}, {"time": 2100, "annotation": {"number": 64, "value": 127}, "group": "control_change"}, {"time": 2119, "annotation": {"number": 64, "value": 0}, "group": "control_change"}, {"time": 2124, "annotation": {"number": 64, "value": 127}, "group": "control_change"}, {"time": 2141, "annotation": {"number": 64, "value": 0}, "group": "control_change"}, {"time": 2145, "annotation": {"number": 64, "value": 127}, "group": "control_change"}, {"time": 2166, "annotation": {"number": 64, "value": 0}, "group": "control_change"}, {"time": 2169, "annotation": {"number": 64, "value": 127}, "group": "control_change"}, {"time": 2187, "annotation": {"number": 64, "value": 0}, "group": "control_change"}, {"time": 2197, "annotation": {"number": 64, "value": 127}, "group": "control_change"}, {"time": 2239, "annotation": {"number": 64, "value": 0}, "group": "control_change"}, {"time": 2244, "annotation": {"number": 64, "value": 127}, "group": "control_change"}, {"time": 2262, "annotation": {"number": 64, "value": 0}, "group": "control_change"}, {"time": 2270, "annotation": {"number": 64, "value": 127}, "group": "control_change"}, {"time": 2287, "annotation": {"number": 64, "value": 0}, "group": "control_change"}, {"time": 2293, "annotation": {"number": 64, "value": 127}, "group": "control_change"}, {"time": 2334, "annotation": {"number": 64, "value": 0}, "group": "control_change"}, {"time": 2342, "annotation": {"number": 64, "value": 127}, "group": "control_change"}, {"time": 2361, "annotation": {"number": 64, "value": 0}, "group": "control_change"}, {"time": 2365, "annotation": {"number": 64, "value": 127}, "group": "control_change"}, {"time": 2383, "annotation": {"number": 64, "value": 0}, "group": "control_change"}, {"time": 2388, "annotation": {"number": 64, "value": 127}, "group": "control_change"}, {"time": 2407, "annotation": {"number": 64, "value": 0}, "group": "control_change"}, {"time": 2412, "annotation": {"number": 64, "value": 127}, "group": "control_change"}, {"time": 2430, "annotation": {"number": 64, "value": 0}, "group": "control_change"}, {"time": 2437, "annotation": {"number": 64, "value": 127}, "group": "control_change"}, {"time": 2455, "annotation": {"number": 64, "value": 0}, "group": "control_change"}, {"time": 2461, "annotation": {"number": 64, "value": 127}, "group": "control_change"}, {"time": 2477, "annotation": {"number": 64, "value": 0}, "group": "control_change"}, {"time": 2480, "annotation": {"number": 64, "value": 127}, "group": "control_change"}, {"time": 2503, "annotation": {"number": 64, "value": 0}, "group": "control_change"}, {"time": 2505, "annotation": {"number": 64, "value": 127}, "group": "control_change"}, {"time": 2526, "annotation": {"number": 64, "value": 0}, "group": "control_change"}, {"time": 2528, "annotation": {"number": 64, "value": 127}, "group": "control_change"}, {"time": 2551, "annotation": {"number": 64, "value": 0}, "group": "control_change"}, {"time": 2554, "annotation": {"number": 64, "value": 127}, "group": "control_change"}, {"time": 2574, "annotation": {"number": 64, "value": 0}, "group": "control_change"}, {"time": 2578, "annotation": {"number": 64, "value": 127}, "group": "control_change"}, {"time": 2599, "annotation": {"number": 64, "value": 0}, "group": "control_change"}, {"time": 2602, "annotation": {"number": 64, "value": 127}, "group": "control_change"}, {"time": 2623, "annotation": {"number": 64, "value": 0}, "group": "control_change"}, {"time": 2627, "annotation": {"number": 64, "value": 127}, "group": "control_change"}, {"time": 2647, "annotation": {"number": 64, "value": 0}, "group": "control_change"}, {"time": 2649, "annotation": {"number": 64, "value": 127}, "group": "control_change"}, {"time": 2671, "annotation": {"number": 64, "value": 0}, "group": "control_change"}, {"time": 2674, "annotation": {"number": 64, "value": 127}, "group": "control_change"}, {"time": 2694, "annotation": {"number": 64, "value": 0}, "group": "control_change"}, {"time": 2698, "annotation": {"number": 64, "value": 127}, "group": "control_change"}, {"time": 2718, "annotation": {"number": 64, "value": 0}, "group": "control_change"}, {"time": 2721, "annotation": {"number": 64, "value": 127}, "group": "control_change"}, {"time": 2744, "annotation": {"number": 64, "value": 0}, "group": "control_change"}, {"time": 2804, "annotation": {"number": 64, "value": 127}, "group": "control_change"}, {"time": 2814, "annotation": {"number": 64, "value": 0}, "group": "control_change"}, {"time": 2822, "annotation": {"number": 64, "value": 127}, "group": "control_change"}, {"time": 2838, "annotation": {"number": 64, "value": 0}, "group": "control_change"}, {"time": 2841, "annotation": {"number": 64, "value": 127}, "group": "control_change"}, {"time": 2862, "annotation": {"number": 64, "value": 0}, "group": "control_change"}, {"time": 2866, "annotation": {"number": 64, "value": 127}, "group": "control_change"}, {"time": 2887, "annotation": {"number": 64, "value": 0}, "group": "control_change"}, {"time": 2891, "annotation": {"number": 64, "value": 127}, "group": "control_change"}, {"time": 2911, "annotation": {"number": 64, "value": 0}, "group": "control_change"}, {"time": 2917, "annotation": {"number": 64, "value": 127}, "group": "control_change"}, {"time": 2935, "annotation": {"number": 64, "value": 0}, "group": "control_change"}, {"time": 2940, "annotation": {"number": 64, "value": 127}, "group": "control_change"}, {"time": 2958, "annotation": {"number": 64, "value": 0}, "group": "control_change"}, {"time": 2963, "annotation": {"number": 64, "value": 127}, "group": "control_change"}, {"time": 2982, "annotation": {"number": 64, "value": 0}, "group": "control_change"}, {"time": 2990, "annotation": {"number": 64, "value": 127}, "group": "control_change"}, {"time": 3008, "annotation": {"number": 64, "value": 0}, "group": "control_change"}, {"time": 3013, "annotation": {"number": 64, "value": 127}, "group": "control_change"}, {"time": 3033, "annotation": {"number": 64, "value": 0}, "group": "control_change"}, {"time": 3037, "annotation": {"number": 64, "value": 127}, "group": "control_change"}, {"time": 3055, "annotation": {"number": 64, "value": 0}, "group": "control_change"}, {"time": 3060, "annotation": {"number": 64, "value": 127}, "group": "control_change"}, {"time": 3081, "annotation": {"number": 64, "value": 0}, "group": "control_change"}, {"time": 3084, "annotation": {"number": 64, "value": 127}, "group": "control_change"}, {"time": 3103, "annotation": {"number": 64, "value": 0}, "group": "control_change"}, {"time": 3107, "annotation": {"number": 64, "value": 127}, "group": "control_change"}, {"time": 3128, "annotation": {"number": 64, "value": 0}, "group": "control_change"}, {"time": 3130, "annotation": {"number": 64, "value": 127}, "group": "control_change"}, {"time": 3151, "annotation": {"number": 64, "value": 0}, "group": "control_change"}, {"time": 3154, "annotation": {"number": 64, "value": 127}, "group": "control_change"}, {"time": 3154, "annotation": {"number": 64, "value": 0}, "group": "control_change"}, {"time": 3176, "annotation": {"number": 64, "value": 0}, "group": "control_change"}, {"time": 3181, "annotation": {"number": 64, "value": 127}, "group": "control_change"}, {"time": 3200, "annotation": {"number": 64, "value": 0}, "group": "control_change"}, {"time": 3205, "annotation": {"number": 64, "value": 127}, "group": "control_change"}, {"time": 3222, "annotation": {"number": 64, "value": 0}, "group": "control_change"}, {"time": 3228, "annotation": {"number": 64, "value": 127}, "group": "control_change"}, {"time": 3246, "annotation": {"number": 64, "value": 0}, "group": "control_change"}, {"time": 3249, "annotation": {"number": 64, "value": 127}, "group": "control_change"}, {"time": 3272, "annotation": {"number": 64, "value": 0}, "group": "control_change"}, {"time": 3275, "annotation": {"number": 64, "value": 127}, "group": "control_change"}, {"time": 3294, "annotation": {"number": 64, "value": 0}, "group": "control_change"}, {"time": 3298, "annotation": {"number": 64, "value": 127}, "group": "control_change"}, {"time": 3318, "annotation": {"number": 64, "value": 0}, "group": "control_change"}, {"time": 3321, "annotation": {"number": 64, "value": 127}, "group": "control_change"}, {"time": 3342, "annotation": {"number": 64, "value": 0}, "group": "control_change"}, {"time": 3346, "annotation": {"number": 64, "value": 127}, "group": "control_change"}, {"time": 3368, "annotation": {"number": 64, "value": 0}, "group": "control_change"}, {"time": 3372, "annotation": {"number": 64, "value": 127}, "group": "control_change"}, {"time": 3391, "annotation": {"number": 64, "value": 0}, "group": "control_change"}, {"time": 3396, "annotation": {"number": 64, "value": 127}, "group": "control_change"}, {"time": 3415, "annotation": {"number": 64, "value": 0}, "group": "control_change"}, {"time": 3418, "annotation": {"number": 64, "value": 127}, "group": "control_change"}, {"time": 3439, "annotation": {"number": 64, "value": 0}, "group": "control_change"}, {"time": 3442, "annotation": {"number": 64, "value": 127}, "group": "control_change"}, {"time": 3463, "annotation": {"number": 64, "value": 0}, "group": "control_change"}, {"time": 3466, "annotation": {"number": 64, "value": 127}, "group": "control_change"}, {"time": 3488, "annotation": {"number": 64, "value": 0}, "group": "control_change"}, {"time": 3492, "annotation": {"number": 64, "value": 127}, "group": "control_change"}, {"time": 3512, "annotation": {"number": 64, "value": 0}, "group": "control_change"}, {"time": 3514, "annotation": {"number": 64, "value": 127}, "group": "control_change"}, {"time": 3536, "annotation": {"number": 64, "value": 0}, "group": "control_change"}, {"time": 3540, "annotation": {"number": 64, "value": 127}, "group": "control_change"}, {"time": 3560, "annotation": {"number": 64, "value": 0}, "group": "control_change"}, {"time": 3564, "annotation": {"number": 64, "value": 127}, "group": "control_change"}, {"time": 3583, "annotation": {"number": 64, "value": 0}, "group": "control_change"}, {"time": 3586, "annotation": {"number": 64, "value": 127}, "group": "control_change"}, {"time": 3606, "annotation": {"number": 64, "value": 0}, "group": "control_change"}, {"time": 3608, "annotation": {"number": 64, "value": 127}, "group": "control_change"}, {"time": 3631, "annotation": {"number": 64, "value": 0}, "group": "control_change"}, {"time": 3635, "annotation": {"number": 64, "value": 127}, "group": "control_change"}, {"time": 3635, "annotation": {"number": 64, "value": 0}, "group": "control_change"}, {"time": 3655, "annotation": {"number": 64, "value": 0}, "group": "control_change"}, {"time": 3658, "annotation": {"number": 64, "value": 127}, "group": "control_change"}, {"time": 3679, "annotation": {"number": 64, "value": 0}, "group": "control_change"}, {"time": 3684, "annotation": {"number": 64, "value": 127}, "group": "control_change"}, {"time": 3703, "annotation": {"number": 64, "value": 0}, "group": "control_change"}, {"time": 3705, "annotation": {"number": 64, "value": 127}, "group": "control_change"}, {"time": 3727, "annotation": {"number": 64, "value": 0}, "group": "control_change"}, {"time": 3732, "annotation": {"number": 64, "value": 127}, "group": "control_change"}, {"time": 3750, "annotation": {"number": 64, "value": 0}, "group": "control_change"}, {"time": 3756, "annotation": {"number": 64, "value": 127}, "group": "control_change"}, {"time": 3775, "annotation": {"number": 64, "value": 0}, "group": "control_change"}, {"time": 3780, "annotation": {"number": 64, "value": 127}, "group": "control_change"}, {"time": 3797, "annotation": {"number": 64, "value": 0}, "group": "control_change"}, {"time": 3801, "annotation": {"number": 64, "value": 127}, "group": "control_change"}, {"time": 3822, "annotation": {"number": 64, "value": 0}, "group": "control_change"}, {"time": 3825, "annotation": {"number": 64, "value": 127}, "group": "control_change"}, {"time": 3843, "annotation": {"number": 64, "value": 0}, "group": "control_change"}, {"time": 3853, "annotation": {"number": 64, "value": 127}, "group": "control_change"}, {"time": 3895, "annotation": {"number": 64, "value": 0}, "group": "control_change"}, {"time": 3900, "annotation": {"number": 64, "value": 127}, "group": "control_change"}, {"time": 3918, "annotation": {"number": 64, "value": 0}, "group": "control_change"}, {"time": 3926, "annotation": {"number": 64, "value": 127}, "group": "control_change"}, {"time": 3943, "annotation": {"number": 64, "value": 0}, "group": "control_change"}, {"time": 3949, "annotation": {"number": 64, "value": 127}, "group": "control_change"}, {"time": 3990, "annotation": {"number": 64, "value": 0}, "group": "control_change"}, {"time": 3994, "annotation": {"number": 64, "value": 127}, "group": "control_change"}, {"time": 4016, "annotation": {"number": 64, "value": 0}, "group": "control_change"}, {"time": 4018, "annotation": {"number": 64, "value": 127}, "group": "control_change"}, {"time": 4041, "annotation": {"number": 64, "value": 0}, "group": "control_change"}, {"time": 4045, "annotation": {"number": 64, "value": 127}, "group": "control_change"}, {"time": 4062, "annotation": {"number": 64, "value": 0}, "group": "control_change"}, {"time": 4071, "annotation": {"number": 64, "value": 127}, "group": "control_change"}, {"time": 4088, "annotation": {"number": 64, "value": 0}, "group": "control_change"}, {"time": 4092, "annotation": {"number": 64, "value": 127}, "group": "control_change"}, {"time": 4110, "annotation": {"number": 64, "value": 0}, "group": "control_change"}, {"time": 4113, "annotation": {"number": 64, "value": 127}, "group": "control_change"}, {"time": 4135, "annotation": {"number": 64, "value": 0}, "group": "control_change"}, {"time": 4137, "annotation": {"number": 64, "value": 127}, "group": "control_change"}, {"time": 4158, "annotation": {"number": 64, "value": 0}, "group": "control_change"}, {"time": 4162, "annotation": {"number": 64, "value": 127}, "group": "control_change"}, {"time": 4215, "annotation": {"number": 64, "value": 0}, "group": "control_change"}, {"time": 4225, "annotation": {"number": 64, "value": 127}, "group": "control_change"}, {"time": 4267, "annotation": {"number": 64, "value": 0}, "group": "control_change"}, {"time": 4272, "annotation": {"number": 64, "value": 127}, "group": "control_change"}, {"time": 4290, "annotation": {"number": 64, "value": 0}, "group": "control_change"}, {"time": 4298, "annotation": {"number": 64, "value": 127}, "group": "control_change"}, {"time": 4315, "annotation": {"number": 64, "value": 0}, "group": "control_change"}, {"time": 4321, "annotation": {"number": 64, "value": 127}, "group": "control_change"}, {"time": 4362, "annotation": {"number": 64, "value": 0}, "group": "control_change"}, {"time": 4366, "annotation": {"number": 64, "value": 127}, "group": "control_change"}, {"time": 4388, "annotation": {"number": 64, "value": 0}, "group": "control_change"}, {"time": 4390, "annotation": {"number": 64, "value": 127}, "group": "control_change"}, {"time": 4413, "annotation": {"number": 64, "value": 0}, "group": "control_change"}, {"time": 4417, "annotation": {"number": 64, "value": 127}, "group": "control_change"}, {"time": 4434, "annotation": {"number": 64, "value": 0}, "group": "control_change"}]}]}