{"metadata": {"schema_version": "0.2", "title": "None", "source_filename": "509.mid", "source_format": "midi"}, "resolution": 12, "tempos": [{"time": 0, "qpm": 60.0}, {"time": 803, "qpm": 60.500032770851085}, {"time": 840, "qpm": 60.0}], "time_signatures": [{"time": 0, "numerator": 1, "denominator": 4}], "tracks": [{"program": 0, "is_drum": false, "name": "MELODY", "notes": [{"time": 40, "pitch": 59, "duration": 3, "velocity": 95}, {"time": 44, "pitch": 61, "duration": 3, "velocity": 93}, {"time": 48, "pitch": 64, "duration": 2, "velocity": 91}, {"time": 52, "pitch": 68, "duration": 2, "velocity": 89}, {"time": 56, "pitch": 68, "duration": 2, "velocity": 91}, {"time": 60, "pitch": 68, "duration": 2, "velocity": 91}, {"time": 64, "pitch": 68, "duration": 2, "velocity": 93}, {"time": 68, "pitch": 68, "duration": 3, "velocity": 92}, {"time": 72, "pitch": 66, "duration": 3, "velocity": 84}, {"time": 76, "pitch": 64, "duration": 8, "velocity": 93}, {"time": 88, "pitch": 59, "duration": 3, "velocity": 95}, {"time": 92, "pitch": 61, "duration": 3, "velocity": 93}, {"time": 96, "pitch": 64, "duration": 2, "velocity": 91}, {"time": 100, "pitch": 68, "duration": 2, "velocity": 89}, {"time": 104, "pitch": 68, "duration": 2, "velocity": 91}, {"time": 108, "pitch": 68, "duration": 2, "velocity": 91}, {"time": 112, "pitch": 68, "duration": 2, "velocity": 93}, {"time": 116, "pitch": 68, "duration": 3, "velocity": 92}, {"time": 120, "pitch": 66, "duration": 3, "velocity": 84}, {"time": 124, "pitch": 64, "duration": 8, "velocity": 93}, {"time": 136, "pitch": 68, "duration": 3, "velocity": 95}, {"time": 140, "pitch": 66, "duration": 3, "velocity": 92}, {"time": 144, "pitch": 64, "duration": 2, "velocity": 94}, {"time": 148, "pitch": 64, "duration": 2, "velocity": 96}, {"time": 152, "pitch": 64, "duration": 1, "velocity": 93}, {"time": 154, "pitch": 61, "duration": 1, "velocity": 91}, {"time": 156, "pitch": 64, "duration": 11, "velocity": 95}, {"time": 168, "pitch": 64, "duration": 1, "velocity": 93}, {"time": 170, "pitch": 61, "duration": 1, "velocity": 86}, {"time": 172, "pitch": 64, "duration": 10, "velocity": 92}, {"time": 184, "pitch": 64, "duration": 2, "velocity": 97}, {"time": 188, "pitch": 64, "duration": 2, "velocity": 97}, {"time": 192, "pitch": 64, "duration": 1, "velocity": 93}, {"time": 194, "pitch": 61, "duration": 1, "velocity": 92}, {"time": 196, "pitch": 66, "duration": 2, "velocity": 94}, {"time": 200, "pitch": 66, "duration": 2, "velocity": 92}, {"time": 204, "pitch": 66, "duration": 2, "velocity": 91}, {"time": 208, "pitch": 66, "duration": 2, "velocity": 92}, {"time": 212, "pitch": 66, "duration": 2, "velocity": 91}, {"time": 216, "pitch": 64, "duration": 2, "velocity": 92}, {"time": 220, "pitch": 66, "duration": 9, "velocity": 91}, {"time": 232, "pitch": 64, "duration": 3, "velocity": 93}, {"time": 236, "pitch": 66, "duration": 3, "velocity": 91}, {"time": 240, "pitch": 68, "duration": 3, "velocity": 95}, {"time": 244, "pitch": 71, "duration": 3, "velocity": 93}, {"time": 248, "pitch": 71, "duration": 2, "velocity": 92}, {"time": 252, "pitch": 71, "duration": 2, "velocity": 91}, {"time": 256, "pitch": 71, "duration": 2, "velocity": 93}, {"time": 260, "pitch": 71, "duration": 3, "velocity": 93}, {"time": 264, "pitch": 68, "duration": 2, "velocity": 93}, {"time": 268, "pitch": 68, "duration": 10, "velocity": 93}, {"time": 280, "pitch": 64, "duration": 2, "velocity": 93}, {"time": 284, "pitch": 66, "duration": 2, "velocity": 91}, {"time": 288, "pitch": 68, "duration": 3, "velocity": 93}, {"time": 292, "pitch": 73, "duration": 2, "velocity": 97}, {"time": 296, "pitch": 73, "duration": 2, "velocity": 96}, {"time": 300, "pitch": 73, "duration": 2, "velocity": 98}, {"time": 304, "pitch": 73, "duration": 2, "velocity": 97}, {"time": 308, "pitch": 73, "duration": 3, "velocity": 98}, {"time": 312, "pitch": 71, "duration": 3, "velocity": 93}, {"time": 316, "pitch": 68, "duration": 8, "velocity": 95}, {"time": 328, "pitch": 68, "duration": 2, "velocity": 95}, {"time": 332, "pitch": 68, "duration": 3, "velocity": 93}, {"time": 336, "pitch": 71, "duration": 3, "velocity": 93}, {"time": 340, "pitch": 73, "duration": 2, "velocity": 93}, {"time": 344, "pitch": 73, "duration": 2, "velocity": 97}, {"time": 348, "pitch": 71, "duration": 2, "velocity": 97}, {"time": 352, "pitch": 73, "duration": 2, "velocity": 95}, {"time": 356, "pitch": 73, "duration": 2, "velocity": 95}, {"time": 360, "pitch": 76, "duration": 3, "velocity": 93}, {"time": 364, "pitch": 76, "duration": 9, "velocity": 93}, {"time": 376, "pitch": 76, "duration": 2, "velocity": 95}, {"time": 380, "pitch": 76, "duration": 3, "velocity": 92}, {"time": 384, "pitch": 73, "duration": 3, "velocity": 102}, {"time": 388, "pitch": 78, "duration": 2, "velocity": 93}, {"time": 392, "pitch": 78, "duration": 2, "velocity": 91}, {"time": 396, "pitch": 78, "duration": 2, "velocity": 94}, {"time": 400, "pitch": 78, "duration": 2, "velocity": 93}, {"time": 404, "pitch": 78, "duration": 3, "velocity": 93}, {"time": 408, "pitch": 76, "duration": 3, "velocity": 91}, {"time": 412, "pitch": 78, "duration": 10, "velocity": 93}, {"time": 424, "pitch": 71, "duration": 2, "velocity": 87}, {"time": 428, "pitch": 73, "duration": 2, "velocity": 98}, {"time": 432, "pitch": 76, "duration": 2, "velocity": 93}, {"time": 436, "pitch": 78, "duration": 6, "velocity": 95}, {"time": 444, "pitch": 80, "duration": 7, "velocity": 93}, {"time": 472, "pitch": 71, "duration": 2, "velocity": 87}, {"time": 476, "pitch": 73, "duration": 2, "velocity": 98}, {"time": 480, "pitch": 76, "duration": 2, "velocity": 93}, {"time": 484, "pitch": 78, "duration": 6, "velocity": 95}, {"time": 492, "pitch": 80, "duration": 7, "velocity": 93}, {"time": 520, "pitch": 80, "duration": 2, "velocity": 97}, {"time": 524, "pitch": 78, "duration": 2, "velocity": 92}, {"time": 528, "pitch": 76, "duration": 2, "velocity": 96}, {"time": 532, "pitch": 78, "duration": 8, "velocity": 94}, {"time": 540, "pitch": 73, "duration": 17, "velocity": 107}, {"time": 568, "pitch": 73, "duration": 3, "velocity": 98}, {"time": 572, "pitch": 76, "duration": 3, "velocity": 93}, {"time": 576, "pitch": 73, "duration": 4, "velocity": 100}, {"time": 580, "pitch": 78, "duration": 8, "velocity": 91}, {"time": 588, "pitch": 71, "duration": 24, "velocity": 96}, {"time": 616, "pitch": 83, "duration": 2, "velocity": 97}, {"time": 620, "pitch": 83, "duration": 3, "velocity": 93}, {"time": 624, "pitch": 78, "duration": 3, "velocity": 95}, {"time": 628, "pitch": 78, "duration": 7, "velocity": 94}, {"time": 636, "pitch": 80, "duration": 16, "velocity": 92}, {"time": 664, "pitch": 80, "duration": 3, "velocity": 92}, {"time": 668, "pitch": 78, "duration": 3, "velocity": 92}, {"time": 672, "pitch": 76, "duration": 3, "velocity": 98}, {"time": 676, "pitch": 78, "duration": 6, "velocity": 94}, {"time": 684, "pitch": 80, "duration": 13, "velocity": 92}, {"time": 712, "pitch": 80, "duration": 2, "velocity": 94}, {"time": 716, "pitch": 78, "duration": 2, "velocity": 94}, {"time": 720, "pitch": 76, "duration": 3, "velocity": 93}, {"time": 724, "pitch": 78, "duration": 7, "velocity": 95}, {"time": 732, "pitch": 73, "duration": 15, "velocity": 102}, {"time": 760, "pitch": 73, "duration": 3, "velocity": 95}, {"time": 764, "pitch": 76, "duration": 3, "velocity": 97}, {"time": 768, "pitch": 73, "duration": 3, "velocity": 96}, {"time": 772, "pitch": 78, "duration": 27, "velocity": 93}, {"time": 820, "pitch": 59, "duration": 3, "velocity": 95}, {"time": 824, "pitch": 61, "duration": 3, "velocity": 93}, {"time": 828, "pitch": 64, "duration": 2, "velocity": 91}, {"time": 832, "pitch": 68, "duration": 2, "velocity": 89}, {"time": 836, "pitch": 68, "duration": 2, "velocity": 91}, {"time": 840, "pitch": 68, "duration": 2, "velocity": 91}, {"time": 844, "pitch": 68, "duration": 2, "velocity": 93}, {"time": 848, "pitch": 68, "duration": 3, "velocity": 92}, {"time": 852, "pitch": 66, "duration": 3, "velocity": 84}, {"time": 856, "pitch": 64, "duration": 8, "velocity": 93}, {"time": 868, "pitch": 59, "duration": 3, "velocity": 95}, {"time": 872, "pitch": 61, "duration": 3, "velocity": 93}, {"time": 876, "pitch": 64, "duration": 2, "velocity": 91}, {"time": 880, "pitch": 68, "duration": 2, "velocity": 89}, {"time": 884, "pitch": 68, "duration": 2, "velocity": 91}, {"time": 888, "pitch": 68, "duration": 2, "velocity": 91}, {"time": 892, "pitch": 68, "duration": 2, "velocity": 93}, {"time": 896, "pitch": 68, "duration": 3, "velocity": 92}, {"time": 900, "pitch": 66, "duration": 3, "velocity": 84}, {"time": 904, "pitch": 64, "duration": 8, "velocity": 93}, {"time": 916, "pitch": 68, "duration": 3, "velocity": 95}, {"time": 920, "pitch": 66, "duration": 3, "velocity": 92}, {"time": 924, "pitch": 64, "duration": 2, "velocity": 94}, {"time": 928, "pitch": 64, "duration": 2, "velocity": 96}, {"time": 932, "pitch": 64, "duration": 1, "velocity": 93}, {"time": 934, "pitch": 61, "duration": 1, "velocity": 91}, {"time": 936, "pitch": 64, "duration": 11, "velocity": 95}, {"time": 948, "pitch": 64, "duration": 1, "velocity": 93}, {"time": 950, "pitch": 61, "duration": 1, "velocity": 86}, {"time": 952, "pitch": 64, "duration": 10, "velocity": 92}, {"time": 964, "pitch": 64, "duration": 2, "velocity": 97}, {"time": 968, "pitch": 64, "duration": 2, "velocity": 97}, {"time": 972, "pitch": 64, "duration": 1, "velocity": 93}, {"time": 974, "pitch": 61, "duration": 1, "velocity": 92}, {"time": 976, "pitch": 66, "duration": 2, "velocity": 94}, {"time": 980, "pitch": 66, "duration": 2, "velocity": 92}, {"time": 984, "pitch": 66, "duration": 2, "velocity": 91}, {"time": 988, "pitch": 66, "duration": 2, "velocity": 92}, {"time": 992, "pitch": 66, "duration": 2, "velocity": 91}, {"time": 996, "pitch": 64, "duration": 2, "velocity": 92}, {"time": 1000, "pitch": 66, "duration": 9, "velocity": 91}, {"time": 1012, "pitch": 64, "duration": 3, "velocity": 93}, {"time": 1016, "pitch": 66, "duration": 3, "velocity": 91}, {"time": 1020, "pitch": 68, "duration": 3, "velocity": 95}, {"time": 1024, "pitch": 71, "duration": 3, "velocity": 93}, {"time": 1028, "pitch": 71, "duration": 2, "velocity": 92}, {"time": 1032, "pitch": 71, "duration": 2, "velocity": 91}, {"time": 1036, "pitch": 71, "duration": 2, "velocity": 93}, {"time": 1040, "pitch": 71, "duration": 3, "velocity": 93}, {"time": 1044, "pitch": 68, "duration": 2, "velocity": 93}, {"time": 1048, "pitch": 68, "duration": 10, "velocity": 93}, {"time": 1060, "pitch": 64, "duration": 2, "velocity": 93}, {"time": 1064, "pitch": 66, "duration": 2, "velocity": 91}, {"time": 1068, "pitch": 68, "duration": 3, "velocity": 93}, {"time": 1072, "pitch": 73, "duration": 2, "velocity": 97}, {"time": 1076, "pitch": 73, "duration": 2, "velocity": 96}, {"time": 1080, "pitch": 73, "duration": 2, "velocity": 98}, {"time": 1084, "pitch": 73, "duration": 2, "velocity": 97}, {"time": 1088, "pitch": 73, "duration": 3, "velocity": 98}, {"time": 1092, "pitch": 71, "duration": 3, "velocity": 93}, {"time": 1096, "pitch": 68, "duration": 8, "velocity": 95}, {"time": 1108, "pitch": 68, "duration": 2, "velocity": 95}, {"time": 1112, "pitch": 68, "duration": 3, "velocity": 93}, {"time": 1116, "pitch": 71, "duration": 3, "velocity": 93}, {"time": 1120, "pitch": 73, "duration": 2, "velocity": 93}, {"time": 1124, "pitch": 73, "duration": 2, "velocity": 97}, {"time": 1128, "pitch": 71, "duration": 2, "velocity": 97}, {"time": 1132, "pitch": 73, "duration": 2, "velocity": 95}, {"time": 1136, "pitch": 73, "duration": 2, "velocity": 95}, {"time": 1140, "pitch": 76, "duration": 3, "velocity": 93}, {"time": 1144, "pitch": 76, "duration": 9, "velocity": 93}, {"time": 1156, "pitch": 76, "duration": 2, "velocity": 95}, {"time": 1160, "pitch": 76, "duration": 3, "velocity": 92}, {"time": 1164, "pitch": 73, "duration": 3, "velocity": 102}, {"time": 1168, "pitch": 78, "duration": 2, "velocity": 93}, {"time": 1172, "pitch": 78, "duration": 2, "velocity": 91}, {"time": 1176, "pitch": 78, "duration": 2, "velocity": 94}, {"time": 1180, "pitch": 78, "duration": 2, "velocity": 93}, {"time": 1184, "pitch": 78, "duration": 3, "velocity": 93}, {"time": 1188, "pitch": 76, "duration": 3, "velocity": 91}, {"time": 1192, "pitch": 78, "duration": 10, "velocity": 93}, {"time": 1204, "pitch": 71, "duration": 2, "velocity": 87}, {"time": 1208, "pitch": 73, "duration": 2, "velocity": 98}, {"time": 1212, "pitch": 76, "duration": 2, "velocity": 93}, {"time": 1216, "pitch": 78, "duration": 6, "velocity": 95}, {"time": 1224, "pitch": 80, "duration": 7, "velocity": 93}, {"time": 1252, "pitch": 71, "duration": 2, "velocity": 87}, {"time": 1256, "pitch": 73, "duration": 2, "velocity": 98}, {"time": 1260, "pitch": 76, "duration": 2, "velocity": 93}, {"time": 1264, "pitch": 78, "duration": 6, "velocity": 95}, {"time": 1272, "pitch": 80, "duration": 7, "velocity": 93}, {"time": 1300, "pitch": 80, "duration": 2, "velocity": 97}, {"time": 1304, "pitch": 78, "duration": 2, "velocity": 92}, {"time": 1308, "pitch": 76, "duration": 2, "velocity": 96}, {"time": 1312, "pitch": 78, "duration": 8, "velocity": 94}, {"time": 1320, "pitch": 73, "duration": 17, "velocity": 107}, {"time": 1348, "pitch": 73, "duration": 3, "velocity": 98}, {"time": 1352, "pitch": 76, "duration": 3, "velocity": 93}, {"time": 1356, "pitch": 73, "duration": 4, "velocity": 100}, {"time": 1360, "pitch": 78, "duration": 8, "velocity": 91}, {"time": 1368, "pitch": 71, "duration": 24, "velocity": 96}, {"time": 1396, "pitch": 83, "duration": 2, "velocity": 97}, {"time": 1400, "pitch": 83, "duration": 3, "velocity": 93}, {"time": 1404, "pitch": 78, "duration": 3, "velocity": 95}, {"time": 1408, "pitch": 78, "duration": 7, "velocity": 94}, {"time": 1416, "pitch": 80, "duration": 16, "velocity": 92}, {"time": 1444, "pitch": 80, "duration": 3, "velocity": 92}, {"time": 1448, "pitch": 78, "duration": 3, "velocity": 92}, {"time": 1452, "pitch": 76, "duration": 3, "velocity": 98}, {"time": 1456, "pitch": 78, "duration": 6, "velocity": 94}, {"time": 1464, "pitch": 80, "duration": 13, "velocity": 92}, {"time": 1492, "pitch": 80, "duration": 2, "velocity": 94}, {"time": 1496, "pitch": 78, "duration": 2, "velocity": 94}, {"time": 1500, "pitch": 76, "duration": 3, "velocity": 93}, {"time": 1504, "pitch": 78, "duration": 7, "velocity": 95}, {"time": 1512, "pitch": 73, "duration": 15, "velocity": 102}, {"time": 1540, "pitch": 73, "duration": 3, "velocity": 95}, {"time": 1544, "pitch": 76, "duration": 3, "velocity": 97}, {"time": 1548, "pitch": 73, "duration": 3, "velocity": 96}, {"time": 1552, "pitch": 78, "duration": 8, "velocity": 93}, {"time": 1560, "pitch": 71, "duration": 23, "velocity": 96}, {"time": 1592, "pitch": 76, "duration": 3, "velocity": 97}, {"time": 1596, "pitch": 73, "duration": 3, "velocity": 102}, {"time": 1600, "pitch": 76, "duration": 38, "velocity": 95}, {"time": 1972, "pitch": 59, "duration": 3, "velocity": 95}, {"time": 1976, "pitch": 61, "duration": 3, "velocity": 93}, {"time": 1980, "pitch": 64, "duration": 2, "velocity": 91}, {"time": 1984, "pitch": 68, "duration": 2, "velocity": 89}, {"time": 1988, "pitch": 68, "duration": 2, "velocity": 91}, {"time": 1992, "pitch": 68, "duration": 2, "velocity": 91}, {"time": 1996, "pitch": 68, "duration": 2, "velocity": 93}, {"time": 2000, "pitch": 68, "duration": 3, "velocity": 92}, {"time": 2004, "pitch": 66, "duration": 3, "velocity": 84}, {"time": 2008, "pitch": 64, "duration": 8, "velocity": 93}, {"time": 2020, "pitch": 59, "duration": 3, "velocity": 95}, {"time": 2024, "pitch": 61, "duration": 3, "velocity": 93}, {"time": 2028, "pitch": 64, "duration": 2, "velocity": 91}, {"time": 2032, "pitch": 68, "duration": 2, "velocity": 89}, {"time": 2036, "pitch": 68, "duration": 2, "velocity": 91}, {"time": 2040, "pitch": 68, "duration": 2, "velocity": 91}, {"time": 2044, "pitch": 68, "duration": 2, "velocity": 93}, {"time": 2048, "pitch": 68, "duration": 3, "velocity": 92}, {"time": 2052, "pitch": 66, "duration": 3, "velocity": 84}, {"time": 2056, "pitch": 64, "duration": 8, "velocity": 93}, {"time": 2068, "pitch": 68, "duration": 3, "velocity": 95}, {"time": 2072, "pitch": 66, "duration": 3, "velocity": 92}, {"time": 2076, "pitch": 64, "duration": 2, "velocity": 94}, {"time": 2080, "pitch": 64, "duration": 2, "velocity": 96}, {"time": 2084, "pitch": 64, "duration": 1, "velocity": 93}, {"time": 2086, "pitch": 61, "duration": 1, "velocity": 91}, {"time": 2088, "pitch": 64, "duration": 11, "velocity": 95}, {"time": 2100, "pitch": 64, "duration": 1, "velocity": 93}, {"time": 2102, "pitch": 61, "duration": 1, "velocity": 86}, {"time": 2104, "pitch": 64, "duration": 10, "velocity": 92}, {"time": 2116, "pitch": 64, "duration": 2, "velocity": 97}, {"time": 2120, "pitch": 64, "duration": 2, "velocity": 97}, {"time": 2124, "pitch": 64, "duration": 1, "velocity": 93}, {"time": 2126, "pitch": 61, "duration": 1, "velocity": 92}, {"time": 2128, "pitch": 66, "duration": 2, "velocity": 94}, {"time": 2132, "pitch": 66, "duration": 2, "velocity": 92}, {"time": 2136, "pitch": 66, "duration": 2, "velocity": 91}, {"time": 2140, "pitch": 66, "duration": 2, "velocity": 92}, {"time": 2144, "pitch": 66, "duration": 2, "velocity": 91}, {"time": 2148, "pitch": 64, "duration": 2, "velocity": 92}, {"time": 2152, "pitch": 66, "duration": 9, "velocity": 91}, {"time": 2164, "pitch": 64, "duration": 3, "velocity": 93}, {"time": 2168, "pitch": 66, "duration": 3, "velocity": 91}, {"time": 2172, "pitch": 68, "duration": 3, "velocity": 95}, {"time": 2176, "pitch": 71, "duration": 3, "velocity": 93}, {"time": 2180, "pitch": 71, "duration": 2, "velocity": 92}, {"time": 2184, "pitch": 71, "duration": 2, "velocity": 91}, {"time": 2188, "pitch": 71, "duration": 2, "velocity": 93}, {"time": 2192, "pitch": 71, "duration": 3, "velocity": 93}, {"time": 2196, "pitch": 68, "duration": 2, "velocity": 93}, {"time": 2200, "pitch": 68, "duration": 10, "velocity": 93}, {"time": 2212, "pitch": 64, "duration": 2, "velocity": 93}, {"time": 2216, "pitch": 66, "duration": 2, "velocity": 91}, {"time": 2220, "pitch": 68, "duration": 3, "velocity": 93}, {"time": 2224, "pitch": 73, "duration": 2, "velocity": 97}, {"time": 2228, "pitch": 73, "duration": 2, "velocity": 96}, {"time": 2232, "pitch": 73, "duration": 2, "velocity": 98}, {"time": 2236, "pitch": 73, "duration": 2, "velocity": 97}, {"time": 2240, "pitch": 73, "duration": 3, "velocity": 98}, {"time": 2244, "pitch": 71, "duration": 3, "velocity": 93}, {"time": 2248, "pitch": 68, "duration": 8, "velocity": 95}, {"time": 2260, "pitch": 68, "duration": 2, "velocity": 95}, {"time": 2264, "pitch": 68, "duration": 3, "velocity": 93}, {"time": 2268, "pitch": 71, "duration": 3, "velocity": 93}, {"time": 2272, "pitch": 73, "duration": 2, "velocity": 93}, {"time": 2276, "pitch": 73, "duration": 2, "velocity": 97}, {"time": 2280, "pitch": 71, "duration": 2, "velocity": 97}, {"time": 2284, "pitch": 73, "duration": 2, "velocity": 95}, {"time": 2288, "pitch": 73, "duration": 2, "velocity": 95}, {"time": 2292, "pitch": 76, "duration": 3, "velocity": 93}, {"time": 2296, "pitch": 76, "duration": 9, "velocity": 93}, {"time": 2308, "pitch": 76, "duration": 2, "velocity": 95}, {"time": 2312, "pitch": 76, "duration": 3, "velocity": 92}, {"time": 2316, "pitch": 73, "duration": 3, "velocity": 102}, {"time": 2320, "pitch": 78, "duration": 2, "velocity": 93}, {"time": 2324, "pitch": 78, "duration": 2, "velocity": 91}, {"time": 2328, "pitch": 78, "duration": 2, "velocity": 94}, {"time": 2332, "pitch": 78, "duration": 2, "velocity": 93}, {"time": 2336, "pitch": 78, "duration": 3, "velocity": 93}, {"time": 2340, "pitch": 76, "duration": 3, "velocity": 91}, {"time": 2344, "pitch": 78, "duration": 10, "velocity": 93}, {"time": 2356, "pitch": 71, "duration": 2, "velocity": 87}, {"time": 2360, "pitch": 73, "duration": 2, "velocity": 98}, {"time": 2364, "pitch": 76, "duration": 2, "velocity": 93}, {"time": 2368, "pitch": 78, "duration": 6, "velocity": 95}, {"time": 2376, "pitch": 80, "duration": 7, "velocity": 93}, {"time": 2404, "pitch": 71, "duration": 2, "velocity": 87}, {"time": 2408, "pitch": 73, "duration": 2, "velocity": 98}, {"time": 2412, "pitch": 76, "duration": 2, "velocity": 93}, {"time": 2416, "pitch": 78, "duration": 6, "velocity": 95}, {"time": 2424, "pitch": 80, "duration": 7, "velocity": 93}, {"time": 2452, "pitch": 80, "duration": 2, "velocity": 97}, {"time": 2456, "pitch": 78, "duration": 2, "velocity": 92}, {"time": 2460, "pitch": 76, "duration": 2, "velocity": 96}, {"time": 2464, "pitch": 78, "duration": 8, "velocity": 94}, {"time": 2472, "pitch": 73, "duration": 17, "velocity": 107}, {"time": 2500, "pitch": 73, "duration": 3, "velocity": 98}, {"time": 2504, "pitch": 76, "duration": 3, "velocity": 93}, {"time": 2508, "pitch": 73, "duration": 4, "velocity": 100}, {"time": 2512, "pitch": 78, "duration": 8, "velocity": 91}, {"time": 2520, "pitch": 71, "duration": 24, "velocity": 96}, {"time": 2548, "pitch": 83, "duration": 2, "velocity": 97}, {"time": 2552, "pitch": 83, "duration": 3, "velocity": 93}, {"time": 2556, "pitch": 78, "duration": 3, "velocity": 95}, {"time": 2560, "pitch": 78, "duration": 7, "velocity": 94}, {"time": 2568, "pitch": 80, "duration": 16, "velocity": 92}, {"time": 2596, "pitch": 80, "duration": 3, "velocity": 92}, {"time": 2600, "pitch": 78, "duration": 3, "velocity": 92}, {"time": 2604, "pitch": 76, "duration": 3, "velocity": 98}, {"time": 2608, "pitch": 78, "duration": 6, "velocity": 94}, {"time": 2616, "pitch": 80, "duration": 13, "velocity": 92}, {"time": 2644, "pitch": 80, "duration": 2, "velocity": 94}, {"time": 2648, "pitch": 78, "duration": 2, "velocity": 94}, {"time": 2652, "pitch": 76, "duration": 3, "velocity": 93}, {"time": 2656, "pitch": 78, "duration": 7, "velocity": 95}, {"time": 2664, "pitch": 73, "duration": 15, "velocity": 102}, {"time": 2692, "pitch": 73, "duration": 3, "velocity": 95}, {"time": 2696, "pitch": 76, "duration": 3, "velocity": 97}, {"time": 2700, "pitch": 73, "duration": 3, "velocity": 96}, {"time": 2704, "pitch": 78, "duration": 8, "velocity": 93}, {"time": 2712, "pitch": 71, "duration": 23, "velocity": 96}, {"time": 2740, "pitch": 71, "duration": 2, "velocity": 87}, {"time": 2744, "pitch": 73, "duration": 2, "velocity": 98}, {"time": 2748, "pitch": 76, "duration": 2, "velocity": 93}, {"time": 2752, "pitch": 78, "duration": 6, "velocity": 95}, {"time": 2760, "pitch": 80, "duration": 7, "velocity": 93}, {"time": 2788, "pitch": 71, "duration": 2, "velocity": 87}, {"time": 2792, "pitch": 73, "duration": 2, "velocity": 98}, {"time": 2796, "pitch": 76, "duration": 2, "velocity": 93}, {"time": 2800, "pitch": 78, "duration": 6, "velocity": 95}, {"time": 2808, "pitch": 80, "duration": 7, "velocity": 93}, {"time": 2836, "pitch": 80, "duration": 2, "velocity": 97}, {"time": 2840, "pitch": 78, "duration": 2, "velocity": 92}, {"time": 2844, "pitch": 76, "duration": 2, "velocity": 96}, {"time": 2848, "pitch": 78, "duration": 8, "velocity": 94}, {"time": 2856, "pitch": 73, "duration": 17, "velocity": 107}, {"time": 2884, "pitch": 73, "duration": 3, "velocity": 98}, {"time": 2888, "pitch": 76, "duration": 3, "velocity": 93}, {"time": 2892, "pitch": 73, "duration": 4, "velocity": 100}, {"time": 2896, "pitch": 78, "duration": 8, "velocity": 91}, {"time": 2904, "pitch": 71, "duration": 24, "velocity": 96}, {"time": 2932, "pitch": 83, "duration": 2, "velocity": 97}, {"time": 2936, "pitch": 83, "duration": 3, "velocity": 93}, {"time": 2940, "pitch": 78, "duration": 3, "velocity": 95}, {"time": 2944, "pitch": 78, "duration": 7, "velocity": 94}, {"time": 2952, "pitch": 80, "duration": 16, "velocity": 92}, {"time": 2980, "pitch": 80, "duration": 3, "velocity": 92}, {"time": 2984, "pitch": 78, "duration": 3, "velocity": 92}, {"time": 2988, "pitch": 76, "duration": 3, "velocity": 98}, {"time": 2992, "pitch": 78, "duration": 6, "velocity": 94}, {"time": 3000, "pitch": 80, "duration": 13, "velocity": 92}, {"time": 3028, "pitch": 80, "duration": 2, "velocity": 94}, {"time": 3032, "pitch": 78, "duration": 2, "velocity": 94}, {"time": 3036, "pitch": 76, "duration": 3, "velocity": 93}, {"time": 3040, "pitch": 78, "duration": 7, "velocity": 95}, {"time": 3048, "pitch": 73, "duration": 15, "velocity": 102}, {"time": 3076, "pitch": 73, "duration": 3, "velocity": 95}, {"time": 3080, "pitch": 76, "duration": 3, "velocity": 97}, {"time": 3084, "pitch": 73, "duration": 3, "velocity": 96}, {"time": 3088, "pitch": 78, "duration": 8, "velocity": 93}, {"time": 3096, "pitch": 71, "duration": 23, "velocity": 96}, {"time": 3128, "pitch": 76, "duration": 3, "velocity": 97}, {"time": 3132, "pitch": 73, "duration": 3, "velocity": 102}, {"time": 3136, "pitch": 76, "duration": 38, "velocity": 95}]}, {"program": 0, "is_drum": false, "name": "PIANO", "notes": [{"time": 2, "pitch": 64, "duration": 8, "velocity": 84}, {"time": 2, "pitch": 59, "duration": 8, "velocity": 79}, {"time": 3, "pitch": 56, "duration": 7, "velocity": 79}, {"time": 3, "pitch": 40, "duration": 4, "velocity": 90}, {"time": 4, "pitch": 52, "duration": 6, "velocity": 77}, {"time": 52, "pitch": 40, "duration": 41, "velocity": 91}, {"time": 56, "pitch": 47, "duration": 35, "velocity": 78}, {"time": 60, "pitch": 54, "duration": 2, "velocity": 77}, {"time": 64, "pitch": 52, "duration": 3, "velocity": 79}, {"time": 64, "pitch": 59, "duration": 3, "velocity": 82}, {"time": 76, "pitch": 52, "duration": 3, "velocity": 76}, {"time": 76, "pitch": 56, "duration": 4, "velocity": 76}, {"time": 100, "pitch": 37, "duration": 4, "velocity": 89}, {"time": 100, "pitch": 56, "duration": 6, "velocity": 75}, {"time": 100, "pitch": 61, "duration": 12, "velocity": 81}, {"time": 116, "pitch": 52, "duration": 23, "velocity": 77}, {"time": 120, "pitch": 56, "duration": 3, "velocity": 80}, {"time": 124, "pitch": 56, "duration": 4, "velocity": 80}, {"time": 124, "pitch": 59, "duration": 4, "velocity": 79}, {"time": 124, "pitch": 64, "duration": 4, "velocity": 85}, {"time": 148, "pitch": 42, "duration": 46, "velocity": 91}, {"time": 148, "pitch": 54, "duration": 5, "velocity": 81}, {"time": 148, "pitch": 57, "duration": 9, "velocity": 78}, {"time": 148, "pitch": 61, "duration": 14, "velocity": 70}, {"time": 152, "pitch": 49, "duration": 41, "velocity": 83}, {"time": 156, "pitch": 52, "duration": 5, "velocity": 82}, {"time": 160, "pitch": 57, "duration": 6, "velocity": 83}, {"time": 172, "pitch": 57, "duration": 7, "velocity": 81}, {"time": 172, "pitch": 61, "duration": 7, "velocity": 87}, {"time": 172, "pitch": 64, "duration": 7, "velocity": 82}, {"time": 188, "pitch": 57, "duration": 4, "velocity": 80}, {"time": 188, "pitch": 61, "duration": 6, "velocity": 91}, {"time": 192, "pitch": 54, "duration": 2, "velocity": 83}, {"time": 196, "pitch": 47, "duration": 20, "velocity": 91}, {"time": 196, "pitch": 54, "duration": 5, "velocity": 89}, {"time": 196, "pitch": 59, "duration": 13, "velocity": 87}, {"time": 200, "pitch": 51, "duration": 16, "velocity": 70}, {"time": 204, "pitch": 54, "duration": 6, "velocity": 78}, {"time": 212, "pitch": 61, "duration": 4, "velocity": 90}, {"time": 212, "pitch": 54, "duration": 3, "velocity": 70}, {"time": 216, "pitch": 49, "duration": 3, "velocity": 82}, {"time": 216, "pitch": 54, "duration": 3, "velocity": 82}, {"time": 220, "pitch": 51, "duration": 13, "velocity": 89}, {"time": 220, "pitch": 59, "duration": 20, "velocity": 85}, {"time": 220, "pitch": 63, "duration": 20, "velocity": 80}, {"time": 244, "pitch": 40, "duration": 43, "velocity": 91}, {"time": 244, "pitch": 52, "duration": 15, "velocity": 85}, {"time": 244, "pitch": 56, "duration": 9, "velocity": 83}, {"time": 248, "pitch": 47, "duration": 37, "velocity": 77}, {"time": 252, "pitch": 59, "duration": 10, "velocity": 84}, {"time": 260, "pitch": 64, "duration": 4, "velocity": 86}, {"time": 264, "pitch": 52, "duration": 1, "velocity": 69}, {"time": 268, "pitch": 52, "duration": 5, "velocity": 86}, {"time": 268, "pitch": 59, "duration": 6, "velocity": 89}, {"time": 288, "pitch": 63, "duration": 2, "velocity": 91}, {"time": 292, "pitch": 37, "duration": 38, "velocity": 91}, {"time": 292, "pitch": 61, "duration": 8, "velocity": 86}, {"time": 300, "pitch": 44, "duration": 29, "velocity": 59}, {"time": 304, "pitch": 56, "duration": 2, "velocity": 81}, {"time": 308, "pitch": 56, "duration": 1, "velocity": 92}, {"time": 308, "pitch": 61, "duration": 2, "velocity": 92}, {"time": 316, "pitch": 56, "duration": 12, "velocity": 85}, {"time": 316, "pitch": 64, "duration": 16, "velocity": 89}, {"time": 340, "pitch": 42, "duration": 16, "velocity": 87}, {"time": 340, "pitch": 54, "duration": 5, "velocity": 82}, {"time": 340, "pitch": 61, "duration": 9, "velocity": 81}, {"time": 344, "pitch": 49, "duration": 12, "velocity": 80}, {"time": 348, "pitch": 54, "duration": 2, "velocity": 85}, {"time": 352, "pitch": 54, "duration": 3, "velocity": 91}, {"time": 352, "pitch": 57, "duration": 3, "velocity": 85}, {"time": 364, "pitch": 44, "duration": 16, "velocity": 91}, {"time": 364, "pitch": 54, "duration": 5, "velocity": 86}, {"time": 364, "pitch": 59, "duration": 9, "velocity": 88}, {"time": 368, "pitch": 51, "duration": 12, "velocity": 79}, {"time": 372, "pitch": 54, "duration": 2, "velocity": 82}, {"time": 376, "pitch": 54, "duration": 5, "velocity": 88}, {"time": 376, "pitch": 59, "duration": 3, "velocity": 89}, {"time": 376, "pitch": 63, "duration": 5, "velocity": 92}, {"time": 388, "pitch": 45, "duration": 7, "velocity": 96}, {"time": 388, "pitch": 57, "duration": 4, "velocity": 88}, {"time": 388, "pitch": 61, "duration": 8, "velocity": 89}, {"time": 392, "pitch": 52, "duration": 3, "velocity": 63}, {"time": 396, "pitch": 57, "duration": 1, "velocity": 70}, {"time": 400, "pitch": 47, "duration": 9, "velocity": 95}, {"time": 400, "pitch": 54, "duration": 3, "velocity": 86}, {"time": 400, "pitch": 59, "duration": 10, "velocity": 89}, {"time": 408, "pitch": 54, "duration": 1, "velocity": 89}, {"time": 412, "pitch": 49, "duration": 11, "velocity": 93}, {"time": 416, "pitch": 66, "duration": 3, "velocity": 88}, {"time": 420, "pitch": 56, "duration": 2, "velocity": 72}, {"time": 420, "pitch": 71, "duration": 7, "velocity": 91}, {"time": 424, "pitch": 35, "duration": 10, "velocity": 88}, {"time": 424, "pitch": 59, "duration": 10, "velocity": 79}, {"time": 424, "pitch": 63, "duration": 10, "velocity": 90}, {"time": 436, "pitch": 40, "duration": 38, "velocity": 92}, {"time": 436, "pitch": 52, "duration": 3, "velocity": 87}, {"time": 436, "pitch": 59, "duration": 6, "velocity": 88}, {"time": 442, "pitch": 56, "duration": 4, "velocity": 83}, {"time": 446, "pitch": 52, "duration": 4, "velocity": 83}, {"time": 448, "pitch": 56, "duration": 4, "velocity": 81}, {"time": 448, "pitch": 59, "duration": 5, "velocity": 85}, {"time": 452, "pitch": 52, "duration": 4, "velocity": 76}, {"time": 456, "pitch": 59, "duration": 1, "velocity": 58}, {"time": 460, "pitch": 56, "duration": 2, "velocity": 86}, {"time": 460, "pitch": 59, "duration": 2, "velocity": 90}, {"time": 460, "pitch": 64, "duration": 2, "velocity": 90}, {"time": 466, "pitch": 56, "duration": 2, "velocity": 88}, {"time": 466, "pitch": 59, "duration": 2, "velocity": 88}, {"time": 470, "pitch": 52, "duration": 1, "velocity": 80}, {"time": 472, "pitch": 56, "duration": 6, "velocity": 88}, {"time": 476, "pitch": 47, "duration": 1, "velocity": 91}, {"time": 484, "pitch": 49, "duration": 13, "velocity": 98}, {"time": 484, "pitch": 56, "duration": 9, "velocity": 78}, {"time": 484, "pitch": 61, "duration": 10, "velocity": 88}, {"time": 496, "pitch": 64, "duration": 1, "velocity": 98}, {"time": 500, "pitch": 52, "duration": 3, "velocity": 74}, {"time": 502, "pitch": 56, "duration": 2, "velocity": 87}, {"time": 502, "pitch": 61, "duration": 1, "velocity": 85}, {"time": 504, "pitch": 56, "duration": 1, "velocity": 70}, {"time": 508, "pitch": 49, "duration": 15, "velocity": 91}, {"time": 508, "pitch": 56, "duration": 3, "velocity": 84}, {"time": 508, "pitch": 64, "duration": 5, "velocity": 86}, {"time": 514, "pitch": 56, "duration": 1, "velocity": 79}, {"time": 514, "pitch": 61, "duration": 2, "velocity": 84}, {"time": 518, "pitch": 56, "duration": 1, "velocity": 67}, {"time": 520, "pitch": 56, "duration": 2, "velocity": 89}, {"time": 520, "pitch": 61, "duration": 5, "velocity": 93}, {"time": 524, "pitch": 56, "duration": 1, "velocity": 79}, {"time": 532, "pitch": 42, "duration": 23, "velocity": 92}, {"time": 532, "pitch": 54, "duration": 4, "velocity": 80}, {"time": 532, "pitch": 57, "duration": 4, "velocity": 75}, {"time": 532, "pitch": 61, "duration": 5, "velocity": 86}, {"time": 536, "pitch": 49, "duration": 18, "velocity": 80}, {"time": 540, "pitch": 54, "duration": 1, "velocity": 76}, {"time": 544, "pitch": 54, "duration": 3, "velocity": 92}, {"time": 544, "pitch": 66, "duration": 2, "velocity": 90}, {"time": 550, "pitch": 61, "duration": 2, "velocity": 85}, {"time": 552, "pitch": 57, "duration": 1, "velocity": 80}, {"time": 554, "pitch": 54, "duration": 1, "velocity": 77}, {"time": 556, "pitch": 42, "duration": 22, "velocity": 91}, {"time": 556, "pitch": 54, "duration": 7, "velocity": 84}, {"time": 556, "pitch": 57, "duration": 8, "velocity": 79}, {"time": 568, "pitch": 54, "duration": 3, "velocity": 92}, {"time": 568, "pitch": 61, "duration": 4, "velocity": 92}, {"time": 572, "pitch": 49, "duration": 4, "velocity": 85}, {"time": 574, "pitch": 54, "duration": 2, "velocity": 91}, {"time": 574, "pitch": 57, "duration": 1, "velocity": 80}, {"time": 576, "pitch": 54, "duration": 1, "velocity": 79}, {"time": 580, "pitch": 47, "duration": 21, "velocity": 91}, {"time": 580, "pitch": 54, "duration": 3, "velocity": 88}, {"time": 580, "pitch": 59, "duration": 3, "velocity": 90}, {"time": 586, "pitch": 54, "duration": 1, "velocity": 83}, {"time": 586, "pitch": 63, "duration": 1, "velocity": 90}, {"time": 588, "pitch": 54, "duration": 1, "velocity": 79}, {"time": 592, "pitch": 54, "duration": 2, "velocity": 90}, {"time": 592, "pitch": 59, "duration": 3, "velocity": 90}, {"time": 596, "pitch": 54, "duration": 2, "velocity": 84}, {"time": 600, "pitch": 54, "duration": 2, "velocity": 92}, {"time": 600, "pitch": 61, "duration": 2, "velocity": 91}, {"time": 604, "pitch": 47, "duration": 17, "velocity": 96}, {"time": 604, "pitch": 54, "duration": 3, "velocity": 91}, {"time": 604, "pitch": 59, "duration": 3, "velocity": 92}, {"time": 610, "pitch": 54, "duration": 1, "velocity": 85}, {"time": 610, "pitch": 59, "duration": 2, "velocity": 86}, {"time": 614, "pitch": 54, "duration": 1, "velocity": 85}, {"time": 616, "pitch": 54, "duration": 2, "velocity": 91}, {"time": 616, "pitch": 59, "duration": 3, "velocity": 96}, {"time": 620, "pitch": 57, "duration": 4, "velocity": 90}, {"time": 624, "pitch": 54, "duration": 4, "velocity": 84}, {"time": 628, "pitch": 40, "duration": 22, "velocity": 93}, {"time": 628, "pitch": 52, "duration": 3, "velocity": 88}, {"time": 628, "pitch": 56, "duration": 4, "velocity": 86}, {"time": 634, "pitch": 52, "duration": 1, "velocity": 82}, {"time": 634, "pitch": 59, "duration": 1, "velocity": 84}, {"time": 638, "pitch": 52, "duration": 1, "velocity": 79}, {"time": 640, "pitch": 52, "duration": 1, "velocity": 86}, {"time": 640, "pitch": 64, "duration": 4, "velocity": 93}, {"time": 644, "pitch": 59, "duration": 2, "velocity": 78}, {"time": 648, "pitch": 52, "duration": 2, "velocity": 80}, {"time": 652, "pitch": 40, "duration": 21, "velocity": 88}, {"time": 652, "pitch": 52, "duration": 3, "velocity": 55}, {"time": 652, "pitch": 56, "duration": 4, "velocity": 79}, {"time": 652, "pitch": 59, "duration": 4, "velocity": 83}, {"time": 658, "pitch": 64, "duration": 4, "velocity": 85}, {"time": 662, "pitch": 52, "duration": 3, "velocity": 74}, {"time": 664, "pitch": 56, "duration": 4, "velocity": 92}, {"time": 664, "pitch": 59, "duration": 5, "velocity": 93}, {"time": 664, "pitch": 64, "duration": 5, "velocity": 92}, {"time": 668, "pitch": 52, "duration": 6, "velocity": 89}, {"time": 672, "pitch": 59, "duration": 1, "velocity": 60}, {"time": 676, "pitch": 49, "duration": 22, "velocity": 91}, {"time": 676, "pitch": 61, "duration": 5, "velocity": 85}, {"time": 680, "pitch": 56, "duration": 3, "velocity": 84}, {"time": 682, "pitch": 61, "duration": 2, "velocity": 87}, {"time": 688, "pitch": 56, "duration": 1, "velocity": 88}, {"time": 688, "pitch": 64, "duration": 2, "velocity": 89}, {"time": 694, "pitch": 56, "duration": 1, "velocity": 80}, {"time": 694, "pitch": 61, "duration": 1, "velocity": 82}, {"time": 698, "pitch": 56, "duration": 1, "velocity": 71}, {"time": 700, "pitch": 49, "duration": 19, "velocity": 92}, {"time": 700, "pitch": 56, "duration": 9, "velocity": 81}, {"time": 700, "pitch": 61, "duration": 10, "velocity": 84}, {"time": 712, "pitch": 56, "duration": 1, "velocity": 73}, {"time": 712, "pitch": 64, "duration": 3, "velocity": 96}, {"time": 716, "pitch": 61, "duration": 1, "velocity": 86}, {"time": 718, "pitch": 56, "duration": 1, "velocity": 86}, {"time": 720, "pitch": 61, "duration": 2, "velocity": 83}, {"time": 722, "pitch": 56, "duration": 1, "velocity": 79}, {"time": 724, "pitch": 42, "duration": 22, "velocity": 92}, {"time": 724, "pitch": 54, "duration": 4, "velocity": 85}, {"time": 724, "pitch": 57, "duration": 4, "velocity": 82}, {"time": 732, "pitch": 61, "duration": 1, "velocity": 78}, {"time": 740, "pitch": 54, "duration": 1, "velocity": 92}, {"time": 740, "pitch": 66, "duration": 1, "velocity": 89}, {"time": 744, "pitch": 54, "duration": 1, "velocity": 84}, {"time": 748, "pitch": 42, "duration": 23, "velocity": 92}, {"time": 748, "pitch": 57, "duration": 6, "velocity": 74}, {"time": 748, "pitch": 61, "duration": 6, "velocity": 84}, {"time": 760, "pitch": 54, "duration": 1, "velocity": 80}, {"time": 760, "pitch": 57, "duration": 4, "velocity": 95}, {"time": 760, "pitch": 61, "duration": 4, "velocity": 96}, {"time": 764, "pitch": 49, "duration": 6, "velocity": 81}, {"time": 766, "pitch": 54, "duration": 2, "velocity": 88}, {"time": 768, "pitch": 57, "duration": 1, "velocity": 77}, {"time": 770, "pitch": 54, "duration": 1, "velocity": 79}, {"time": 772, "pitch": 47, "duration": 22, "velocity": 91}, {"time": 772, "pitch": 54, "duration": 3, "velocity": 89}, {"time": 772, "pitch": 59, "duration": 6, "velocity": 91}, {"time": 776, "pitch": 54, "duration": 4, "velocity": 85}, {"time": 780, "pitch": 59, "duration": 2, "velocity": 83}, {"time": 788, "pitch": 54, "duration": 1, "velocity": 87}, {"time": 788, "pitch": 59, "duration": 5, "velocity": 90}, {"time": 792, "pitch": 54, "duration": 2, "velocity": 76}, {"time": 796, "pitch": 35, "duration": 24, "velocity": 93}, {"time": 796, "pitch": 47, "duration": 14, "velocity": 93}, {"time": 796, "pitch": 54, "duration": 14, "velocity": 87}, {"time": 796, "pitch": 59, "duration": 14, "velocity": 85}, {"time": 832, "pitch": 40, "duration": 42, "velocity": 91}, {"time": 832, "pitch": 64, "duration": 9, "velocity": 91}, {"time": 836, "pitch": 47, "duration": 9, "velocity": 76}, {"time": 840, "pitch": 59, "duration": 5, "velocity": 82}, {"time": 844, "pitch": 56, "duration": 8, "velocity": 89}, {"time": 848, "pitch": 47, "duration": 22, "velocity": 66}, {"time": 852, "pitch": 59, "duration": 2, "velocity": 80}, {"time": 856, "pitch": 56, "duration": 5, "velocity": 91}, {"time": 856, "pitch": 64, "duration": 8, "velocity": 93}, {"time": 864, "pitch": 59, "duration": 1, "velocity": 78}, {"time": 868, "pitch": 56, "duration": 2, "velocity": 87}, {"time": 868, "pitch": 59, "duration": 4, "velocity": 92}, {"time": 868, "pitch": 64, "duration": 8, "velocity": 91}, {"time": 872, "pitch": 47, "duration": 2, "velocity": 83}, {"time": 876, "pitch": 59, "duration": 5, "velocity": 92}, {"time": 880, "pitch": 49, "duration": 21, "velocity": 93}, {"time": 880, "pitch": 61, "duration": 9, "velocity": 92}, {"time": 884, "pitch": 52, "duration": 16, "velocity": 58}, {"time": 888, "pitch": 56, "duration": 7, "velocity": 91}, {"time": 892, "pitch": 64, "duration": 8, "velocity": 93}, {"time": 900, "pitch": 56, "duration": 5, "velocity": 76}, {"time": 904, "pitch": 49, "duration": 17, "velocity": 87}, {"time": 904, "pitch": 61, "duration": 7, "velocity": 84}, {"time": 912, "pitch": 56, "duration": 1, "velocity": 73}, {"time": 916, "pitch": 56, "duration": 3, "velocity": 93}, {"time": 916, "pitch": 64, "duration": 4, "velocity": 92}, {"time": 920, "pitch": 61, "duration": 3, "velocity": 87}, {"time": 923, "pitch": 56, "duration": 4, "velocity": 79}, {"time": 928, "pitch": 42, "duration": 22, "velocity": 91}, {"time": 928, "pitch": 54, "duration": 15, "velocity": 82}, {"time": 928, "pitch": 61, "duration": 13, "velocity": 89}, {"time": 932, "pitch": 49, "duration": 18, "velocity": 77}, {"time": 936, "pitch": 57, "duration": 5, "velocity": 71}, {"time": 940, "pitch": 66, "duration": 5, "velocity": 91}, {"time": 948, "pitch": 54, "duration": 5, "velocity": 87}, {"time": 952, "pitch": 42, "duration": 20, "velocity": 92}, {"time": 952, "pitch": 57, "duration": 7, "velocity": 80}, {"time": 952, "pitch": 61, "duration": 7, "velocity": 87}, {"time": 960, "pitch": 49, "duration": 5, "velocity": 74}, {"time": 964, "pitch": 54, "duration": 3, "velocity": 91}, {"time": 964, "pitch": 61, "duration": 5, "velocity": 93}, {"time": 968, "pitch": 49, "duration": 4, "velocity": 85}, {"time": 972, "pitch": 54, "duration": 2, "velocity": 96}, {"time": 976, "pitch": 47, "duration": 22, "velocity": 92}, {"time": 976, "pitch": 54, "duration": 2, "velocity": 92}, {"time": 976, "pitch": 59, "duration": 5, "velocity": 91}, {"time": 980, "pitch": 54, "duration": 5, "velocity": 87}, {"time": 984, "pitch": 59, "duration": 2, "velocity": 83}, {"time": 988, "pitch": 61, "duration": 8, "velocity": 86}, {"time": 996, "pitch": 54, "duration": 3, "velocity": 86}, {"time": 1000, "pitch": 47, "duration": 17, "velocity": 93}, {"time": 1000, "pitch": 59, "duration": 8, "velocity": 91}, {"time": 1000, "pitch": 63, "duration": 8, "velocity": 92}, {"time": 1008, "pitch": 54, "duration": 3, "velocity": 85}, {"time": 1012, "pitch": 61, "duration": 4, "velocity": 92}, {"time": 1016, "pitch": 59, "duration": 4, "velocity": 94}, {"time": 1020, "pitch": 54, "duration": 3, "velocity": 75}, {"time": 1024, "pitch": 40, "duration": 23, "velocity": 91}, {"time": 1024, "pitch": 52, "duration": 8, "velocity": 90}, {"time": 1024, "pitch": 56, "duration": 8, "velocity": 83}, {"time": 1028, "pitch": 47, "duration": 19, "velocity": 77}, {"time": 1032, "pitch": 59, "duration": 2, "velocity": 91}, {"time": 1036, "pitch": 64, "duration": 5, "velocity": 100}, {"time": 1044, "pitch": 52, "duration": 15, "velocity": 79}, {"time": 1048, "pitch": 40, "duration": 20, "velocity": 91}, {"time": 1048, "pitch": 59, "duration": 9, "velocity": 89}, {"time": 1056, "pitch": 47, "duration": 11, "velocity": 78}, {"time": 1060, "pitch": 56, "duration": 4, "velocity": 93}, {"time": 1060, "pitch": 59, "duration": 5, "velocity": 94}, {"time": 1064, "pitch": 52, "duration": 1, "velocity": 79}, {"time": 1068, "pitch": 63, "duration": 3, "velocity": 92}, {"time": 1072, "pitch": 49, "duration": 17, "velocity": 94}, {"time": 1072, "pitch": 56, "duration": 5, "velocity": 83}, {"time": 1072, "pitch": 61, "duration": 10, "velocity": 91}, {"time": 1080, "pitch": 56, "duration": 4, "velocity": 85}, {"time": 1084, "pitch": 64, "duration": 8, "velocity": 95}, {"time": 1092, "pitch": 56, "duration": 2, "velocity": 78}, {"time": 1096, "pitch": 49, "duration": 16, "velocity": 97}, {"time": 1096, "pitch": 56, "duration": 5, "velocity": 86}, {"time": 1096, "pitch": 61, "duration": 8, "velocity": 89}, {"time": 1104, "pitch": 52, "duration": 6, "velocity": 71}, {"time": 1108, "pitch": 56, "duration": 2, "velocity": 94}, {"time": 1108, "pitch": 64, "duration": 5, "velocity": 94}, {"time": 1112, "pitch": 61, "duration": 3, "velocity": 95}, {"time": 1116, "pitch": 56, "duration": 1, "velocity": 91}, {"time": 1120, "pitch": 42, "duration": 22, "velocity": 92}, {"time": 1120, "pitch": 54, "duration": 4, "velocity": 91}, {"time": 1120, "pitch": 57, "duration": 6, "velocity": 78}, {"time": 1120, "pitch": 61, "duration": 8, "velocity": 91}, {"time": 1124, "pitch": 49, "duration": 18, "velocity": 78}, {"time": 1128, "pitch": 54, "duration": 2, "velocity": 82}, {"time": 1132, "pitch": 54, "duration": 2, "velocity": 98}, {"time": 1132, "pitch": 61, "duration": 2, "velocity": 93}, {"time": 1136, "pitch": 54, "duration": 1, "velocity": 64}, {"time": 1140, "pitch": 57, "duration": 2, "velocity": 85}, {"time": 1144, "pitch": 44, "duration": 16, "velocity": 92}, {"time": 1144, "pitch": 56, "duration": 4, "velocity": 91}, {"time": 1144, "pitch": 59, "duration": 6, "velocity": 91}, {"time": 1148, "pitch": 51, "duration": 10, "velocity": 86}, {"time": 1152, "pitch": 56, "duration": 2, "velocity": 90}, {"time": 1156, "pitch": 56, "duration": 2, "velocity": 96}, {"time": 1156, "pitch": 59, "duration": 5, "velocity": 100}, {"time": 1164, "pitch": 56, "duration": 1, "velocity": 86}, {"time": 1168, "pitch": 45, "duration": 7, "velocity": 96}, {"time": 1168, "pitch": 57, "duration": 4, "velocity": 88}, {"time": 1168, "pitch": 61, "duration": 8, "velocity": 89}, {"time": 1172, "pitch": 52, "duration": 3, "velocity": 63}, {"time": 1176, "pitch": 57, "duration": 1, "velocity": 70}, {"time": 1180, "pitch": 47, "duration": 9, "velocity": 95}, {"time": 1180, "pitch": 54, "duration": 3, "velocity": 86}, {"time": 1180, "pitch": 59, "duration": 10, "velocity": 89}, {"time": 1188, "pitch": 54, "duration": 1, "velocity": 89}, {"time": 1192, "pitch": 49, "duration": 11, "velocity": 93}, {"time": 1196, "pitch": 66, "duration": 3, "velocity": 88}, {"time": 1200, "pitch": 56, "duration": 2, "velocity": 72}, {"time": 1200, "pitch": 71, "duration": 7, "velocity": 91}, {"time": 1204, "pitch": 35, "duration": 10, "velocity": 88}, {"time": 1204, "pitch": 59, "duration": 10, "velocity": 79}, {"time": 1204, "pitch": 63, "duration": 10, "velocity": 90}, {"time": 1216, "pitch": 40, "duration": 22, "velocity": 94}, {"time": 1216, "pitch": 56, "duration": 3, "velocity": 86}, {"time": 1216, "pitch": 59, "duration": 5, "velocity": 91}, {"time": 1216, "pitch": 64, "duration": 5, "velocity": 91}, {"time": 1220, "pitch": 47, "duration": 17, "velocity": 77}, {"time": 1224, "pitch": 56, "duration": 1, "velocity": 91}, {"time": 1228, "pitch": 56, "duration": 1, "velocity": 93}, {"time": 1228, "pitch": 59, "duration": 3, "velocity": 108}, {"time": 1228, "pitch": 64, "duration": 3, "velocity": 96}, {"time": 1232, "pitch": 56, "duration": 2, "velocity": 88}, {"time": 1236, "pitch": 59, "duration": 2, "velocity": 92}, {"time": 1240, "pitch": 40, "duration": 18, "velocity": 93}, {"time": 1240, "pitch": 56, "duration": 4, "velocity": 86}, {"time": 1240, "pitch": 59, "duration": 4, "velocity": 91}, {"time": 1240, "pitch": 64, "duration": 4, "velocity": 90}, {"time": 1248, "pitch": 56, "duration": 1, "velocity": 77}, {"time": 1248, "pitch": 59, "duration": 1, "velocity": 90}, {"time": 1252, "pitch": 56, "duration": 1, "velocity": 96}, {"time": 1252, "pitch": 64, "duration": 2, "velocity": 98}, {"time": 1256, "pitch": 59, "duration": 1, "velocity": 96}, {"time": 1258, "pitch": 56, "duration": 1, "velocity": 87}, {"time": 1260, "pitch": 59, "duration": 1, "velocity": 91}, {"time": 1264, "pitch": 49, "duration": 15, "velocity": 95}, {"time": 1264, "pitch": 56, "duration": 2, "velocity": 89}, {"time": 1264, "pitch": 61, "duration": 3, "velocity": 92}, {"time": 1268, "pitch": 56, "duration": 1, "velocity": 79}, {"time": 1272, "pitch": 56, "duration": 1, "velocity": 73}, {"time": 1276, "pitch": 56, "duration": 1, "velocity": 96}, {"time": 1276, "pitch": 64, "duration": 2, "velocity": 95}, {"time": 1280, "pitch": 61, "duration": 1, "velocity": 94}, {"time": 1288, "pitch": 37, "duration": 10, "velocity": 96}, {"time": 1288, "pitch": 56, "duration": 2, "velocity": 88}, {"time": 1288, "pitch": 64, "duration": 5, "velocity": 91}, {"time": 1292, "pitch": 56, "duration": 1, "velocity": 80}, {"time": 1296, "pitch": 56, "duration": 1, "velocity": 83}, {"time": 1296, "pitch": 61, "duration": 1, "velocity": 85}, {"time": 1300, "pitch": 37, "duration": 1, "velocity": 97}, {"time": 1300, "pitch": 56, "duration": 1, "velocity": 92}, {"time": 1300, "pitch": 61, "duration": 2, "velocity": 95}, {"time": 1300, "pitch": 64, "duration": 2, "velocity": 93}, {"time": 1304, "pitch": 56, "duration": 1, "velocity": 91}, {"time": 1308, "pitch": 56, "duration": 1, "velocity": 86}, {"time": 1308, "pitch": 61, "duration": 1, "velocity": 85}, {"time": 1312, "pitch": 42, "duration": 22, "velocity": 94}, {"time": 1312, "pitch": 54, "duration": 4, "velocity": 91}, {"time": 1312, "pitch": 57, "duration": 3, "velocity": 79}, {"time": 1312, "pitch": 61, "duration": 3, "velocity": 91}, {"time": 1320, "pitch": 54, "duration": 1, "velocity": 88}, {"time": 1320, "pitch": 61, "duration": 1, "velocity": 88}, {"time": 1324, "pitch": 54, "duration": 1, "velocity": 100}, {"time": 1324, "pitch": 66, "duration": 1, "velocity": 95}, {"time": 1328, "pitch": 61, "duration": 2, "velocity": 93}, {"time": 1330, "pitch": 57, "duration": 2, "velocity": 91}, {"time": 1332, "pitch": 54, "duration": 1, "velocity": 94}, {"time": 1336, "pitch": 42, "duration": 14, "velocity": 92}, {"time": 1336, "pitch": 54, "duration": 5, "velocity": 97}, {"time": 1336, "pitch": 61, "duration": 5, "velocity": 93}, {"time": 1340, "pitch": 49, "duration": 9, "velocity": 86}, {"time": 1344, "pitch": 54, "duration": 1, "velocity": 86}, {"time": 1344, "pitch": 57, "duration": 1, "velocity": 91}, {"time": 1344, "pitch": 61, "duration": 1, "velocity": 88}, {"time": 1348, "pitch": 54, "duration": 4, "velocity": 96}, {"time": 1348, "pitch": 57, "duration": 4, "velocity": 107}, {"time": 1348, "pitch": 61, "duration": 5, "velocity": 105}, {"time": 1352, "pitch": 49, "duration": 2, "velocity": 81}, {"time": 1356, "pitch": 42, "duration": 4, "velocity": 92}, {"time": 1360, "pitch": 35, "duration": 1, "velocity": 93}, {"time": 1360, "pitch": 54, "duration": 4, "velocity": 91}, {"time": 1360, "pitch": 59, "duration": 3, "velocity": 87}, {"time": 1366, "pitch": 54, "duration": 1, "velocity": 91}, {"time": 1366, "pitch": 63, "duration": 2, "velocity": 92}, {"time": 1370, "pitch": 54, "duration": 1, "velocity": 82}, {"time": 1372, "pitch": 54, "duration": 2, "velocity": 92}, {"time": 1372, "pitch": 59, "duration": 4, "velocity": 95}, {"time": 1376, "pitch": 54, "duration": 2, "velocity": 94}, {"time": 1378, "pitch": 61, "duration": 3, "velocity": 93}, {"time": 1380, "pitch": 54, "duration": 2, "velocity": 83}, {"time": 1384, "pitch": 47, "duration": 20, "velocity": 98}, {"time": 1384, "pitch": 54, "duration": 2, "velocity": 94}, {"time": 1384, "pitch": 59, "duration": 4, "velocity": 98}, {"time": 1386, "pitch": 54, "duration": 1, "velocity": 87}, {"time": 1390, "pitch": 59, "duration": 1, "velocity": 92}, {"time": 1392, "pitch": 54, "duration": 1, "velocity": 91}, {"time": 1396, "pitch": 54, "duration": 3, "velocity": 100}, {"time": 1396, "pitch": 59, "duration": 4, "velocity": 105}, {"time": 1400, "pitch": 61, "duration": 2, "velocity": 92}, {"time": 1404, "pitch": 63, "duration": 2, "velocity": 95}, {"time": 1408, "pitch": 40, "duration": 23, "velocity": 97}, {"time": 1408, "pitch": 64, "duration": 6, "velocity": 96}, {"time": 1412, "pitch": 47, "duration": 19, "velocity": 74}, {"time": 1416, "pitch": 56, "duration": 2, "velocity": 86}, {"time": 1420, "pitch": 56, "duration": 2, "velocity": 93}, {"time": 1420, "pitch": 59, "duration": 2, "velocity": 96}, {"time": 1420, "pitch": 64, "duration": 2, "velocity": 95}, {"time": 1426, "pitch": 56, "duration": 1, "velocity": 84}, {"time": 1426, "pitch": 59, "duration": 3, "velocity": 94}, {"time": 1430, "pitch": 56, "duration": 4, "velocity": 82}, {"time": 1432, "pitch": 40, "duration": 17, "velocity": 92}, {"time": 1432, "pitch": 59, "duration": 4, "velocity": 91}, {"time": 1432, "pitch": 64, "duration": 4, "velocity": 93}, {"time": 1436, "pitch": 47, "duration": 13, "velocity": 76}, {"time": 1440, "pitch": 56, "duration": 2, "velocity": 78}, {"time": 1444, "pitch": 56, "duration": 2, "velocity": 93}, {"time": 1444, "pitch": 59, "duration": 2, "velocity": 100}, {"time": 1444, "pitch": 64, "duration": 4, "velocity": 93}, {"time": 1448, "pitch": 63, "duration": 4, "velocity": 100}, {"time": 1452, "pitch": 59, "duration": 3, "velocity": 91}, {"time": 1456, "pitch": 49, "duration": 13, "velocity": 98}, {"time": 1456, "pitch": 56, "duration": 2, "velocity": 85}, {"time": 1456, "pitch": 61, "duration": 4, "velocity": 89}, {"time": 1460, "pitch": 56, "duration": 1, "velocity": 80}, {"time": 1464, "pitch": 61, "duration": 1, "velocity": 80}, {"time": 1468, "pitch": 56, "duration": 2, "velocity": 92}, {"time": 1468, "pitch": 64, "duration": 4, "velocity": 94}, {"time": 1472, "pitch": 61, "duration": 2, "velocity": 91}, {"time": 1476, "pitch": 56, "duration": 3, "velocity": 85}, {"time": 1480, "pitch": 37, "duration": 15, "velocity": 95}, {"time": 1480, "pitch": 56, "duration": 3, "velocity": 91}, {"time": 1480, "pitch": 61, "duration": 3, "velocity": 92}, {"time": 1486, "pitch": 61, "duration": 2, "velocity": 92}, {"time": 1488, "pitch": 56, "duration": 1, "velocity": 85}, {"time": 1492, "pitch": 56, "duration": 2, "velocity": 94}, {"time": 1492, "pitch": 61, "duration": 2, "velocity": 98}, {"time": 1492, "pitch": 64, "duration": 3, "velocity": 93}, {"time": 1496, "pitch": 56, "duration": 1, "velocity": 67}, {"time": 1496, "pitch": 61, "duration": 3, "velocity": 98}, {"time": 1498, "pitch": 56, "duration": 1, "velocity": 91}, {"time": 1504, "pitch": 42, "duration": 23, "velocity": 92}, {"time": 1504, "pitch": 54, "duration": 4, "velocity": 92}, {"time": 1504, "pitch": 61, "duration": 4, "velocity": 93}, {"time": 1510, "pitch": 54, "duration": 2, "velocity": 86}, {"time": 1510, "pitch": 61, "duration": 3, "velocity": 91}, {"time": 1514, "pitch": 54, "duration": 1, "velocity": 75}, {"time": 1514, "pitch": 57, "duration": 1, "velocity": 70}, {"time": 1514, "pitch": 61, "duration": 1, "velocity": 50}, {"time": 1516, "pitch": 54, "duration": 1, "velocity": 88}, {"time": 1516, "pitch": 66, "duration": 3, "velocity": 98}, {"time": 1520, "pitch": 61, "duration": 1, "velocity": 94}, {"time": 1524, "pitch": 54, "duration": 5, "velocity": 97}, {"time": 1528, "pitch": 42, "duration": 21, "velocity": 92}, {"time": 1528, "pitch": 57, "duration": 6, "velocity": 91}, {"time": 1528, "pitch": 61, "duration": 8, "velocity": 93}, {"time": 1532, "pitch": 49, "duration": 9, "velocity": 69}, {"time": 1536, "pitch": 54, "duration": 2, "velocity": 81}, {"time": 1540, "pitch": 54, "duration": 3, "velocity": 97}, {"time": 1540, "pitch": 61, "duration": 4, "velocity": 96}, {"time": 1544, "pitch": 49, "duration": 5, "velocity": 90}, {"time": 1546, "pitch": 57, "duration": 2, "velocity": 96}, {"time": 1548, "pitch": 54, "duration": 2, "velocity": 91}, {"time": 1552, "pitch": 47, "duration": 22, "velocity": 98}, {"time": 1552, "pitch": 54, "duration": 2, "velocity": 94}, {"time": 1552, "pitch": 59, "duration": 4, "velocity": 95}, {"time": 1558, "pitch": 54, "duration": 2, "velocity": 92}, {"time": 1558, "pitch": 63, "duration": 3, "velocity": 92}, {"time": 1562, "pitch": 54, "duration": 1, "velocity": 91}, {"time": 1564, "pitch": 54, "duration": 2, "velocity": 93}, {"time": 1564, "pitch": 59, "duration": 3, "velocity": 107}, {"time": 1568, "pitch": 54, "duration": 2, "velocity": 93}, {"time": 1572, "pitch": 63, "duration": 2, "velocity": 87}, {"time": 1576, "pitch": 47, "duration": 23, "velocity": 97}, {"time": 1576, "pitch": 54, "duration": 4, "velocity": 88}, {"time": 1576, "pitch": 59, "duration": 6, "velocity": 86}, {"time": 1584, "pitch": 54, "duration": 1, "velocity": 83}, {"time": 1588, "pitch": 54, "duration": 1, "velocity": 92}, {"time": 1588, "pitch": 59, "duration": 2, "velocity": 96}, {"time": 1588, "pitch": 63, "duration": 5, "velocity": 94}, {"time": 1592, "pitch": 54, "duration": 2, "velocity": 91}, {"time": 1596, "pitch": 54, "duration": 2, "velocity": 55}, {"time": 1596, "pitch": 59, "duration": 3, "velocity": 88}, {"time": 1600, "pitch": 40, "duration": 3, "velocity": 93}, {"time": 1600, "pitch": 52, "duration": 3, "velocity": 90}, {"time": 1600, "pitch": 56, "duration": 3, "velocity": 92}, {"time": 1600, "pitch": 59, "duration": 3, "velocity": 92}, {"time": 1612, "pitch": 40, "duration": 7, "velocity": 96}, {"time": 1612, "pitch": 52, "duration": 5, "velocity": 93}, {"time": 1612, "pitch": 56, "duration": 6, "velocity": 95}, {"time": 1612, "pitch": 59, "duration": 7, "velocity": 95}, {"time": 1612, "pitch": 64, "duration": 7, "velocity": 91}, {"time": 1624, "pitch": 42, "duration": 18, "velocity": 95}, {"time": 1624, "pitch": 54, "duration": 5, "velocity": 92}, {"time": 1624, "pitch": 57, "duration": 9, "velocity": 93}, {"time": 1624, "pitch": 61, "duration": 9, "velocity": 95}, {"time": 1632, "pitch": 54, "duration": 1, "velocity": 92}, {"time": 1636, "pitch": 54, "duration": 4, "velocity": 97}, {"time": 1636, "pitch": 57, "duration": 5, "velocity": 97}, {"time": 1636, "pitch": 61, "duration": 6, "velocity": 100}, {"time": 1640, "pitch": 49, "duration": 3, "velocity": 81}, {"time": 1644, "pitch": 54, "duration": 1, "velocity": 93}, {"time": 1648, "pitch": 44, "duration": 18, "velocity": 97}, {"time": 1648, "pitch": 56, "duration": 11, "velocity": 91}, {"time": 1648, "pitch": 59, "duration": 8, "velocity": 86}, {"time": 1660, "pitch": 56, "duration": 2, "velocity": 92}, {"time": 1660, "pitch": 59, "duration": 3, "velocity": 96}, {"time": 1660, "pitch": 63, "duration": 4, "velocity": 94}, {"time": 1664, "pitch": 51, "duration": 2, "velocity": 83}, {"time": 1672, "pitch": 45, "duration": 14, "velocity": 95}, {"time": 1672, "pitch": 52, "duration": 1, "velocity": 93}, {"time": 1672, "pitch": 57, "duration": 4, "velocity": 96}, {"time": 1672, "pitch": 60, "duration": 3, "velocity": 96}, {"time": 1676, "pitch": 52, "duration": 2, "velocity": 92}, {"time": 1680, "pitch": 52, "duration": 1, "velocity": 74}, {"time": 1680, "pitch": 57, "duration": 1, "velocity": 74}, {"time": 1680, "pitch": 60, "duration": 1, "velocity": 77}, {"time": 1680, "pitch": 64, "duration": 2, "velocity": 81}, {"time": 1684, "pitch": 52, "duration": 2, "velocity": 98}, {"time": 1684, "pitch": 57, "duration": 3, "velocity": 102}, {"time": 1684, "pitch": 60, "duration": 3, "velocity": 98}, {"time": 1684, "pitch": 64, "duration": 4, "velocity": 93}, {"time": 1688, "pitch": 48, "duration": 1, "velocity": 91}, {"time": 1692, "pitch": 52, "duration": 2, "velocity": 100}, {"time": 1696, "pitch": 40, "duration": 2, "velocity": 96}, {"time": 1696, "pitch": 52, "duration": 2, "velocity": 91}, {"time": 1696, "pitch": 56, "duration": 2, "velocity": 93}, {"time": 1696, "pitch": 59, "duration": 2, "velocity": 92}, {"time": 1708, "pitch": 40, "duration": 8, "velocity": 94}, {"time": 1708, "pitch": 52, "duration": 4, "velocity": 87}, {"time": 1708, "pitch": 56, "duration": 4, "velocity": 87}, {"time": 1708, "pitch": 59, "duration": 4, "velocity": 88}, {"time": 1708, "pitch": 64, "duration": 4, "velocity": 91}, {"time": 1712, "pitch": 52, "duration": 2, "velocity": 94}, {"time": 1712, "pitch": 64, "duration": 1, "velocity": 91}, {"time": 1720, "pitch": 42, "duration": 23, "velocity": 94}, {"time": 1720, "pitch": 54, "duration": 4, "velocity": 94}, {"time": 1720, "pitch": 66, "duration": 5, "velocity": 89}, {"time": 1724, "pitch": 49, "duration": 9, "velocity": 76}, {"time": 1728, "pitch": 54, "duration": 2, "velocity": 86}, {"time": 1732, "pitch": 54, "duration": 5, "velocity": 94}, {"time": 1732, "pitch": 57, "duration": 5, "velocity": 96}, {"time": 1732, "pitch": 61, "duration": 5, "velocity": 98}, {"time": 1736, "pitch": 49, "duration": 7, "velocity": 91}, {"time": 1740, "pitch": 54, "duration": 3, "velocity": 93}, {"time": 1740, "pitch": 57, "duration": 4, "velocity": 91}, {"time": 1740, "pitch": 61, "duration": 4, "velocity": 92}, {"time": 1740, "pitch": 66, "duration": 4, "velocity": 86}, {"time": 1752, "pitch": 44, "duration": 16, "velocity": 96}, {"time": 1752, "pitch": 56, "duration": 16, "velocity": 92}, {"time": 1752, "pitch": 59, "duration": 15, "velocity": 94}, {"time": 1752, "pitch": 63, "duration": 15, "velocity": 95}, {"time": 1768, "pitch": 45, "duration": 14, "velocity": 98}, {"time": 1768, "pitch": 52, "duration": 4, "velocity": 91}, {"time": 1768, "pitch": 57, "duration": 7, "velocity": 89}, {"time": 1768, "pitch": 60, "duration": 6, "velocity": 92}, {"time": 1776, "pitch": 52, "duration": 2, "velocity": 90}, {"time": 1780, "pitch": 52, "duration": 4, "velocity": 97}, {"time": 1780, "pitch": 60, "duration": 4, "velocity": 97}, {"time": 1784, "pitch": 48, "duration": 1, "velocity": 87}, {"time": 1788, "pitch": 52, "duration": 2, "velocity": 93}, {"time": 1788, "pitch": 57, "duration": 2, "velocity": 95}, {"time": 1788, "pitch": 60, "duration": 2, "velocity": 96}, {"time": 1792, "pitch": 40, "duration": 24, "velocity": 91}, {"time": 1792, "pitch": 52, "duration": 9, "velocity": 92}, {"time": 1792, "pitch": 56, "duration": 7, "velocity": 95}, {"time": 1800, "pitch": 47, "duration": 16, "velocity": 81}, {"time": 1804, "pitch": 52, "duration": 2, "velocity": 94}, {"time": 1804, "pitch": 64, "duration": 2, "velocity": 92}, {"time": 1808, "pitch": 52, "duration": 1, "velocity": 94}, {"time": 1808, "pitch": 56, "duration": 7, "velocity": 98}, {"time": 1808, "pitch": 59, "duration": 7, "velocity": 96}, {"time": 1812, "pitch": 52, "duration": 3, "velocity": 92}, {"time": 1816, "pitch": 42, "duration": 14, "velocity": 93}, {"time": 1816, "pitch": 54, "duration": 2, "velocity": 88}, {"time": 1816, "pitch": 57, "duration": 2, "velocity": 91}, {"time": 1816, "pitch": 61, "duration": 2, "velocity": 93}, {"time": 1820, "pitch": 54, "duration": 1, "velocity": 89}, {"time": 1820, "pitch": 57, "duration": 4, "velocity": 90}, {"time": 1820, "pitch": 61, "duration": 4, "velocity": 89}, {"time": 1820, "pitch": 66, "duration": 3, "velocity": 89}, {"time": 1824, "pitch": 54, "duration": 2, "velocity": 87}, {"time": 1828, "pitch": 54, "duration": 5, "velocity": 95}, {"time": 1828, "pitch": 57, "duration": 6, "velocity": 102}, {"time": 1828, "pitch": 61, "duration": 6, "velocity": 100}, {"time": 1832, "pitch": 49, "duration": 2, "velocity": 84}, {"time": 1836, "pitch": 42, "duration": 2, "velocity": 96}, {"time": 1836, "pitch": 54, "duration": 2, "velocity": 96}, {"time": 1836, "pitch": 57, "duration": 3, "velocity": 92}, {"time": 1836, "pitch": 61, "duration": 3, "velocity": 93}, {"time": 1840, "pitch": 44, "duration": 14, "velocity": 95}, {"time": 1840, "pitch": 56, "duration": 5, "velocity": 96}, {"time": 1840, "pitch": 59, "duration": 5, "velocity": 96}, {"time": 1844, "pitch": 51, "duration": 9, "velocity": 87}, {"time": 1848, "pitch": 54, "duration": 1, "velocity": 91}, {"time": 1848, "pitch": 59, "duration": 1, "velocity": 93}, {"time": 1852, "pitch": 54, "duration": 5, "velocity": 94}, {"time": 1852, "pitch": 59, "duration": 4, "velocity": 100}, {"time": 1852, "pitch": 63, "duration": 4, "velocity": 105}, {"time": 1856, "pitch": 44, "duration": 4, "velocity": 75}, {"time": 1856, "pitch": 51, "duration": 5, "velocity": 97}, {"time": 1860, "pitch": 54, "duration": 3, "velocity": 93}, {"time": 1860, "pitch": 59, "duration": 1, "velocity": 97}, {"time": 1860, "pitch": 63, "duration": 2, "velocity": 96}, {"time": 1864, "pitch": 45, "duration": 24, "velocity": 98}, {"time": 1864, "pitch": 57, "duration": 4, "velocity": 79}, {"time": 1864, "pitch": 60, "duration": 5, "velocity": 77}, {"time": 1868, "pitch": 52, "duration": 10, "velocity": 81}, {"time": 1872, "pitch": 57, "duration": 2, "velocity": 80}, {"time": 1872, "pitch": 60, "duration": 2, "velocity": 83}, {"time": 1876, "pitch": 57, "duration": 5, "velocity": 97}, {"time": 1876, "pitch": 60, "duration": 5, "velocity": 96}, {"time": 1880, "pitch": 52, "duration": 8, "velocity": 91}, {"time": 1884, "pitch": 57, "duration": 3, "velocity": 93}, {"time": 1884, "pitch": 60, "duration": 4, "velocity": 92}, {"time": 1888, "pitch": 40, "duration": 14, "velocity": 93}, {"time": 1888, "pitch": 52, "duration": 1, "velocity": 93}, {"time": 1888, "pitch": 64, "duration": 5, "velocity": 93}, {"time": 1892, "pitch": 47, "duration": 9, "velocity": 86}, {"time": 1896, "pitch": 52, "duration": 2, "velocity": 93}, {"time": 1896, "pitch": 56, "duration": 2, "velocity": 92}, {"time": 1896, "pitch": 59, "duration": 2, "velocity": 91}, {"time": 1896, "pitch": 64, "duration": 1, "velocity": 79}, {"time": 1900, "pitch": 52, "duration": 4, "velocity": 93}, {"time": 1900, "pitch": 56, "duration": 5, "velocity": 98}, {"time": 1900, "pitch": 59, "duration": 5, "velocity": 105}, {"time": 1900, "pitch": 64, "duration": 5, "velocity": 96}, {"time": 1904, "pitch": 47, "duration": 4, "velocity": 88}, {"time": 1908, "pitch": 52, "duration": 2, "velocity": 96}, {"time": 1908, "pitch": 56, "duration": 2, "velocity": 98}, {"time": 1908, "pitch": 59, "duration": 3, "velocity": 98}, {"time": 1908, "pitch": 64, "duration": 3, "velocity": 93}, {"time": 1912, "pitch": 42, "duration": 10, "velocity": 96}, {"time": 1916, "pitch": 54, "duration": 2, "velocity": 92}, {"time": 1920, "pitch": 54, "duration": 1, "velocity": 87}, {"time": 1920, "pitch": 57, "duration": 2, "velocity": 84}, {"time": 1920, "pitch": 61, "duration": 2, "velocity": 91}, {"time": 1920, "pitch": 66, "duration": 2, "velocity": 82}, {"time": 1924, "pitch": 44, "duration": 7, "velocity": 95}, {"time": 1924, "pitch": 56, "duration": 4, "velocity": 86}, {"time": 1924, "pitch": 59, "duration": 5, "velocity": 93}, {"time": 1924, "pitch": 68, "duration": 7, "velocity": 91}, {"time": 1928, "pitch": 51, "duration": 3, "velocity": 92}, {"time": 1932, "pitch": 56, "duration": 1, "velocity": 95}, {"time": 1936, "pitch": 45, "duration": 24, "velocity": 107}, {"time": 1936, "pitch": 52, "duration": 2, "velocity": 90}, {"time": 1936, "pitch": 57, "duration": 5, "velocity": 85}, {"time": 1936, "pitch": 61, "duration": 5, "velocity": 93}, {"time": 1940, "pitch": 52, "duration": 3, "velocity": 91}, {"time": 1944, "pitch": 52, "duration": 1, "velocity": 75}, {"time": 1944, "pitch": 57, "duration": 2, "velocity": 92}, {"time": 1944, "pitch": 61, "duration": 2, "velocity": 88}, {"time": 1948, "pitch": 52, "duration": 2, "velocity": 97}, {"time": 1948, "pitch": 57, "duration": 2, "velocity": 97}, {"time": 1948, "pitch": 61, "duration": 4, "velocity": 97}, {"time": 1952, "pitch": 52, "duration": 1, "velocity": 93}, {"time": 1956, "pitch": 52, "duration": 4, "velocity": 93}, {"time": 1956, "pitch": 57, "duration": 4, "velocity": 95}, {"time": 1956, "pitch": 61, "duration": 4, "velocity": 92}, {"time": 1960, "pitch": 35, "duration": 2, "velocity": 93}, {"time": 1960, "pitch": 54, "duration": 2, "velocity": 91}, {"time": 1960, "pitch": 59, "duration": 2, "velocity": 93}, {"time": 1960, "pitch": 63, "duration": 2, "velocity": 93}, {"time": 1964, "pitch": 35, "duration": 2, "velocity": 91}, {"time": 1964, "pitch": 54, "duration": 2, "velocity": 88}, {"time": 1964, "pitch": 59, "duration": 2, "velocity": 86}, {"time": 1964, "pitch": 63, "duration": 2, "velocity": 92}, {"time": 1968, "pitch": 35, "duration": 15, "velocity": 100}, {"time": 1968, "pitch": 54, "duration": 15, "velocity": 100}, {"time": 1968, "pitch": 59, "duration": 15, "velocity": 105}, {"time": 1968, "pitch": 63, "duration": 15, "velocity": 105}, {"time": 1984, "pitch": 40, "duration": 42, "velocity": 91}, {"time": 1984, "pitch": 64, "duration": 9, "velocity": 91}, {"time": 1988, "pitch": 47, "duration": 9, "velocity": 76}, {"time": 1992, "pitch": 59, "duration": 5, "velocity": 82}, {"time": 1996, "pitch": 56, "duration": 8, "velocity": 89}, {"time": 2000, "pitch": 47, "duration": 22, "velocity": 66}, {"time": 2004, "pitch": 59, "duration": 2, "velocity": 80}, {"time": 2008, "pitch": 56, "duration": 5, "velocity": 91}, {"time": 2008, "pitch": 64, "duration": 8, "velocity": 93}, {"time": 2016, "pitch": 59, "duration": 1, "velocity": 78}, {"time": 2020, "pitch": 56, "duration": 2, "velocity": 87}, {"time": 2020, "pitch": 59, "duration": 4, "velocity": 92}, {"time": 2020, "pitch": 64, "duration": 8, "velocity": 91}, {"time": 2024, "pitch": 47, "duration": 2, "velocity": 83}, {"time": 2028, "pitch": 56, "duration": 5, "velocity": 92}, {"time": 2032, "pitch": 49, "duration": 21, "velocity": 93}, {"time": 2032, "pitch": 61, "duration": 9, "velocity": 92}, {"time": 2036, "pitch": 52, "duration": 16, "velocity": 58}, {"time": 2040, "pitch": 56, "duration": 7, "velocity": 91}, {"time": 2044, "pitch": 64, "duration": 8, "velocity": 93}, {"time": 2052, "pitch": 56, "duration": 5, "velocity": 76}, {"time": 2056, "pitch": 49, "duration": 17, "velocity": 87}, {"time": 2056, "pitch": 61, "duration": 7, "velocity": 84}, {"time": 2064, "pitch": 56, "duration": 1, "velocity": 73}, {"time": 2068, "pitch": 56, "duration": 3, "velocity": 93}, {"time": 2068, "pitch": 64, "duration": 4, "velocity": 92}, {"time": 2072, "pitch": 61, "duration": 3, "velocity": 87}, {"time": 2074, "pitch": 56, "duration": 1, "velocity": 79}, {"time": 2080, "pitch": 42, "duration": 22, "velocity": 91}, {"time": 2080, "pitch": 54, "duration": 15, "velocity": 82}, {"time": 2080, "pitch": 61, "duration": 13, "velocity": 89}, {"time": 2084, "pitch": 49, "duration": 18, "velocity": 77}, {"time": 2088, "pitch": 57, "duration": 5, "velocity": 71}, {"time": 2092, "pitch": 66, "duration": 5, "velocity": 91}, {"time": 2100, "pitch": 54, "duration": 5, "velocity": 87}, {"time": 2104, "pitch": 42, "duration": 20, "velocity": 92}, {"time": 2104, "pitch": 57, "duration": 7, "velocity": 80}, {"time": 2104, "pitch": 61, "duration": 7, "velocity": 87}, {"time": 2112, "pitch": 49, "duration": 5, "velocity": 74}, {"time": 2116, "pitch": 54, "duration": 3, "velocity": 91}, {"time": 2116, "pitch": 61, "duration": 5, "velocity": 93}, {"time": 2120, "pitch": 49, "duration": 4, "velocity": 85}, {"time": 2124, "pitch": 54, "duration": 2, "velocity": 96}, {"time": 2128, "pitch": 47, "duration": 22, "velocity": 92}, {"time": 2128, "pitch": 54, "duration": 2, "velocity": 92}, {"time": 2128, "pitch": 59, "duration": 5, "velocity": 91}, {"time": 2132, "pitch": 54, "duration": 5, "velocity": 87}, {"time": 2136, "pitch": 59, "duration": 2, "velocity": 83}, {"time": 2140, "pitch": 61, "duration": 8, "velocity": 86}, {"time": 2148, "pitch": 54, "duration": 3, "velocity": 86}, {"time": 2152, "pitch": 47, "duration": 17, "velocity": 93}, {"time": 2152, "pitch": 54, "duration": 1, "velocity": 73}, {"time": 2152, "pitch": 59, "duration": 8, "velocity": 91}, {"time": 2152, "pitch": 63, "duration": 8, "velocity": 92}, {"time": 2160, "pitch": 54, "duration": 3, "velocity": 85}, {"time": 2164, "pitch": 61, "duration": 4, "velocity": 92}, {"time": 2168, "pitch": 59, "duration": 4, "velocity": 94}, {"time": 2172, "pitch": 54, "duration": 3, "velocity": 75}, {"time": 2176, "pitch": 40, "duration": 23, "velocity": 91}, {"time": 2176, "pitch": 52, "duration": 8, "velocity": 90}, {"time": 2176, "pitch": 56, "duration": 8, "velocity": 83}, {"time": 2180, "pitch": 47, "duration": 19, "velocity": 77}, {"time": 2184, "pitch": 59, "duration": 2, "velocity": 91}, {"time": 2188, "pitch": 64, "duration": 5, "velocity": 100}, {"time": 2196, "pitch": 52, "duration": 15, "velocity": 79}, {"time": 2200, "pitch": 40, "duration": 20, "velocity": 91}, {"time": 2200, "pitch": 59, "duration": 9, "velocity": 89}, {"time": 2208, "pitch": 47, "duration": 11, "velocity": 78}, {"time": 2212, "pitch": 52, "duration": 1, "velocity": 76}, {"time": 2212, "pitch": 56, "duration": 4, "velocity": 93}, {"time": 2212, "pitch": 59, "duration": 5, "velocity": 94}, {"time": 2216, "pitch": 52, "duration": 1, "velocity": 79}, {"time": 2220, "pitch": 63, "duration": 3, "velocity": 92}, {"time": 2224, "pitch": 49, "duration": 17, "velocity": 94}, {"time": 2224, "pitch": 56, "duration": 5, "velocity": 83}, {"time": 2224, "pitch": 61, "duration": 10, "velocity": 91}, {"time": 2232, "pitch": 56, "duration": 4, "velocity": 85}, {"time": 2236, "pitch": 64, "duration": 8, "velocity": 95}, {"time": 2244, "pitch": 56, "duration": 2, "velocity": 78}, {"time": 2248, "pitch": 49, "duration": 16, "velocity": 97}, {"time": 2248, "pitch": 56, "duration": 5, "velocity": 86}, {"time": 2248, "pitch": 61, "duration": 8, "velocity": 89}, {"time": 2256, "pitch": 52, "duration": 6, "velocity": 71}, {"time": 2260, "pitch": 56, "duration": 2, "velocity": 94}, {"time": 2260, "pitch": 64, "duration": 5, "velocity": 94}, {"time": 2264, "pitch": 61, "duration": 3, "velocity": 95}, {"time": 2268, "pitch": 56, "duration": 1, "velocity": 91}, {"time": 2272, "pitch": 42, "duration": 22, "velocity": 92}, {"time": 2272, "pitch": 54, "duration": 4, "velocity": 91}, {"time": 2272, "pitch": 57, "duration": 6, "velocity": 78}, {"time": 2272, "pitch": 61, "duration": 8, "velocity": 91}, {"time": 2276, "pitch": 49, "duration": 18, "velocity": 78}, {"time": 2280, "pitch": 54, "duration": 2, "velocity": 82}, {"time": 2284, "pitch": 54, "duration": 2, "velocity": 98}, {"time": 2284, "pitch": 61, "duration": 2, "velocity": 93}, {"time": 2288, "pitch": 54, "duration": 1, "velocity": 64}, {"time": 2292, "pitch": 57, "duration": 2, "velocity": 85}, {"time": 2296, "pitch": 44, "duration": 16, "velocity": 92}, {"time": 2296, "pitch": 56, "duration": 4, "velocity": 91}, {"time": 2296, "pitch": 59, "duration": 6, "velocity": 91}, {"time": 2300, "pitch": 51, "duration": 10, "velocity": 86}, {"time": 2304, "pitch": 56, "duration": 2, "velocity": 90}, {"time": 2308, "pitch": 56, "duration": 2, "velocity": 96}, {"time": 2308, "pitch": 59, "duration": 5, "velocity": 100}, {"time": 2316, "pitch": 56, "duration": 1, "velocity": 86}, {"time": 2320, "pitch": 45, "duration": 1, "velocity": 94}, {"time": 2320, "pitch": 52, "duration": 2, "velocity": 89}, {"time": 2320, "pitch": 57, "duration": 2, "velocity": 92}, {"time": 2324, "pitch": 45, "duration": 1, "velocity": 92}, {"time": 2324, "pitch": 52, "duration": 2, "velocity": 90}, {"time": 2324, "pitch": 57, "duration": 2, "velocity": 85}, {"time": 2328, "pitch": 45, "duration": 2, "velocity": 91}, {"time": 2328, "pitch": 52, "duration": 2, "velocity": 91}, {"time": 2328, "pitch": 57, "duration": 2, "velocity": 89}, {"time": 2332, "pitch": 47, "duration": 2, "velocity": 93}, {"time": 2332, "pitch": 54, "duration": 2, "velocity": 91}, {"time": 2332, "pitch": 59, "duration": 2, "velocity": 91}, {"time": 2336, "pitch": 47, "duration": 2, "velocity": 93}, {"time": 2336, "pitch": 54, "duration": 2, "velocity": 91}, {"time": 2336, "pitch": 59, "duration": 2, "velocity": 90}, {"time": 2340, "pitch": 47, "duration": 3, "velocity": 95}, {"time": 2340, "pitch": 54, "duration": 2, "velocity": 93}, {"time": 2340, "pitch": 59, "duration": 2, "velocity": 96}, {"time": 2344, "pitch": 49, "duration": 2, "velocity": 96}, {"time": 2344, "pitch": 56, "duration": 2, "velocity": 92}, {"time": 2344, "pitch": 61, "duration": 2, "velocity": 94}, {"time": 2348, "pitch": 49, "duration": 1, "velocity": 95}, {"time": 2348, "pitch": 56, "duration": 2, "velocity": 91}, {"time": 2348, "pitch": 61, "duration": 2, "velocity": 98}, {"time": 2352, "pitch": 49, "duration": 2, "velocity": 96}, {"time": 2352, "pitch": 56, "duration": 2, "velocity": 92}, {"time": 2352, "pitch": 61, "duration": 2, "velocity": 96}, {"time": 2356, "pitch": 47, "duration": 11, "velocity": 108}, {"time": 2356, "pitch": 54, "duration": 10, "velocity": 93}, {"time": 2356, "pitch": 59, "duration": 11, "velocity": 97}, {"time": 2356, "pitch": 63, "duration": 11, "velocity": 100}, {"time": 2368, "pitch": 40, "duration": 21, "velocity": 93}, {"time": 2368, "pitch": 52, "duration": 4, "velocity": 87}, {"time": 2368, "pitch": 59, "duration": 6, "velocity": 87}, {"time": 2372, "pitch": 47, "duration": 10, "velocity": 69}, {"time": 2374, "pitch": 56, "duration": 2, "velocity": 64}, {"time": 2376, "pitch": 52, "duration": 2, "velocity": 90}, {"time": 2380, "pitch": 52, "duration": 3, "velocity": 105}, {"time": 2380, "pitch": 59, "duration": 4, "velocity": 102}, {"time": 2384, "pitch": 47, "duration": 5, "velocity": 69}, {"time": 2388, "pitch": 56, "duration": 1, "velocity": 80}, {"time": 2392, "pitch": 40, "duration": 14, "velocity": 93}, {"time": 2392, "pitch": 52, "duration": 3, "velocity": 87}, {"time": 2392, "pitch": 64, "duration": 3, "velocity": 93}, {"time": 2396, "pitch": 47, "duration": 10, "velocity": 63}, {"time": 2398, "pitch": 59, "duration": 2, "velocity": 83}, {"time": 2400, "pitch": 56, "duration": 1, "velocity": 87}, {"time": 2402, "pitch": 52, "duration": 1, "velocity": 90}, {"time": 2404, "pitch": 52, "duration": 4, "velocity": 95}, {"time": 2404, "pitch": 59, "duration": 4, "velocity": 87}, {"time": 2408, "pitch": 47, "duration": 2, "velocity": 80}, {"time": 2410, "pitch": 56, "duration": 2, "velocity": 95}, {"time": 2412, "pitch": 52, "duration": 2, "velocity": 102}, {"time": 2414, "pitch": 56, "duration": 1, "velocity": 102}, {"time": 2416, "pitch": 37, "duration": 14, "velocity": 85}, {"time": 2420, "pitch": 44, "duration": 9, "velocity": 39}, {"time": 2424, "pitch": 49, "duration": 2, "velocity": 70}, {"time": 2428, "pitch": 49, "duration": 3, "velocity": 90}, {"time": 2428, "pitch": 56, "duration": 1, "velocity": 67}, {"time": 2432, "pitch": 44, "duration": 1, "velocity": 41}, {"time": 2434, "pitch": 49, "duration": 1, "velocity": 80}, {"time": 2434, "pitch": 61, "duration": 1, "velocity": 72}, {"time": 2438, "pitch": 49, "duration": 1, "velocity": 50}, {"time": 2440, "pitch": 37, "duration": 14, "velocity": 93}, {"time": 2440, "pitch": 49, "duration": 3, "velocity": 74}, {"time": 2440, "pitch": 56, "duration": 4, "velocity": 74}, {"time": 2444, "pitch": 44, "duration": 10, "velocity": 56}, {"time": 2446, "pitch": 49, "duration": 3, "velocity": 87}, {"time": 2448, "pitch": 56, "duration": 2, "velocity": 80}, {"time": 2450, "pitch": 61, "duration": 1, "velocity": 72}, {"time": 2452, "pitch": 49, "duration": 4, "velocity": 93}, {"time": 2452, "pitch": 61, "duration": 5, "velocity": 72}, {"time": 2456, "pitch": 37, "duration": 1, "velocity": 68}, {"time": 2456, "pitch": 44, "duration": 1, "velocity": 87}, {"time": 2460, "pitch": 49, "duration": 1, "velocity": 95}, {"time": 2464, "pitch": 42, "duration": 11, "velocity": 102}, {"time": 2464, "pitch": 54, "duration": 3, "velocity": 70}, {"time": 2464, "pitch": 57, "duration": 3, "velocity": 68}, {"time": 2464, "pitch": 61, "duration": 3, "velocity": 85}, {"time": 2468, "pitch": 49, "duration": 7, "velocity": 54}, {"time": 2470, "pitch": 54, "duration": 1, "velocity": 95}, {"time": 2470, "pitch": 61, "duration": 1, "velocity": 102}, {"time": 2474, "pitch": 54, "duration": 1, "velocity": 74}, {"time": 2476, "pitch": 42, "duration": 10, "velocity": 87}, {"time": 2476, "pitch": 54, "duration": 3, "velocity": 83}, {"time": 2476, "pitch": 61, "duration": 4, "velocity": 93}, {"time": 2480, "pitch": 49, "duration": 7, "velocity": 53}, {"time": 2482, "pitch": 54, "duration": 3, "velocity": 72}, {"time": 2484, "pitch": 57, "duration": 2, "velocity": 72}, {"time": 2486, "pitch": 61, "duration": 1, "velocity": 90}, {"time": 2488, "pitch": 42, "duration": 13, "velocity": 93}, {"time": 2488, "pitch": 54, "duration": 3, "velocity": 102}, {"time": 2488, "pitch": 61, "duration": 4, "velocity": 74}, {"time": 2492, "pitch": 49, "duration": 9, "velocity": 69}, {"time": 2496, "pitch": 54, "duration": 2, "velocity": 93}, {"time": 2500, "pitch": 54, "duration": 3, "velocity": 103}, {"time": 2500, "pitch": 61, "duration": 6, "velocity": 67}, {"time": 2500, "pitch": 66, "duration": 8, "velocity": 69}, {"time": 2504, "pitch": 49, "duration": 3, "velocity": 69}, {"time": 2508, "pitch": 54, "duration": 2, "velocity": 102}, {"time": 2512, "pitch": 47, "duration": 22, "velocity": 87}, {"time": 2516, "pitch": 54, "duration": 10, "velocity": 80}, {"time": 2518, "pitch": 59, "duration": 2, "velocity": 93}, {"time": 2520, "pitch": 63, "duration": 2, "velocity": 102}, {"time": 2522, "pitch": 59, "duration": 1, "velocity": 85}, {"time": 2524, "pitch": 59, "duration": 4, "velocity": 102}, {"time": 2524, "pitch": 66, "duration": 4, "velocity": 110}, {"time": 2528, "pitch": 54, "duration": 4, "velocity": 83}, {"time": 2532, "pitch": 59, "duration": 2, "velocity": 85}, {"time": 2536, "pitch": 47, "duration": 24, "velocity": 85}, {"time": 2536, "pitch": 59, "duration": 2, "velocity": 93}, {"time": 2536, "pitch": 63, "duration": 2, "velocity": 80}, {"time": 2536, "pitch": 66, "duration": 2, "velocity": 68}, {"time": 2536, "pitch": 71, "duration": 3, "velocity": 87}, {"time": 2540, "pitch": 54, "duration": 9, "velocity": 41}, {"time": 2540, "pitch": 57, "duration": 1, "velocity": 30}, {"time": 2540, "pitch": 59, "duration": 1, "velocity": 61}, {"time": 2544, "pitch": 59, "duration": 1, "velocity": 87}, {"time": 2544, "pitch": 63, "duration": 1, "velocity": 66}, {"time": 2544, "pitch": 66, "duration": 1, "velocity": 61}, {"time": 2548, "pitch": 59, "duration": 3, "velocity": 95}, {"time": 2548, "pitch": 63, "duration": 3, "velocity": 103}, {"time": 2548, "pitch": 66, "duration": 4, "velocity": 93}, {"time": 2548, "pitch": 71, "duration": 3, "velocity": 93}, {"time": 2552, "pitch": 54, "duration": 8, "velocity": 85}, {"time": 2554, "pitch": 59, "duration": 3, "velocity": 102}, {"time": 2556, "pitch": 63, "duration": 2, "velocity": 93}, {"time": 2558, "pitch": 66, "duration": 1, "velocity": 102}, {"time": 2560, "pitch": 40, "duration": 21, "velocity": 93}, {"time": 2560, "pitch": 52, "duration": 4, "velocity": 87}, {"time": 2560, "pitch": 59, "duration": 6, "velocity": 87}, {"time": 2564, "pitch": 47, "duration": 10, "velocity": 69}, {"time": 2566, "pitch": 56, "duration": 2, "velocity": 64}, {"time": 2568, "pitch": 52, "duration": 2, "velocity": 90}, {"time": 2572, "pitch": 52, "duration": 3, "velocity": 105}, {"time": 2572, "pitch": 59, "duration": 4, "velocity": 102}, {"time": 2576, "pitch": 47, "duration": 5, "velocity": 69}, {"time": 2580, "pitch": 56, "duration": 1, "velocity": 80}, {"time": 2584, "pitch": 40, "duration": 14, "velocity": 93}, {"time": 2584, "pitch": 52, "duration": 3, "velocity": 87}, {"time": 2584, "pitch": 64, "duration": 3, "velocity": 93}, {"time": 2588, "pitch": 47, "duration": 10, "velocity": 63}, {"time": 2590, "pitch": 59, "duration": 2, "velocity": 83}, {"time": 2592, "pitch": 56, "duration": 1, "velocity": 87}, {"time": 2594, "pitch": 52, "duration": 1, "velocity": 90}, {"time": 2596, "pitch": 52, "duration": 4, "velocity": 95}, {"time": 2596, "pitch": 59, "duration": 4, "velocity": 87}, {"time": 2600, "pitch": 47, "duration": 2, "velocity": 80}, {"time": 2602, "pitch": 56, "duration": 2, "velocity": 95}, {"time": 2604, "pitch": 52, "duration": 2, "velocity": 102}, {"time": 2606, "pitch": 56, "duration": 1, "velocity": 102}, {"time": 2608, "pitch": 37, "duration": 14, "velocity": 85}, {"time": 2612, "pitch": 44, "duration": 9, "velocity": 39}, {"time": 2616, "pitch": 49, "duration": 2, "velocity": 70}, {"time": 2620, "pitch": 49, "duration": 3, "velocity": 90}, {"time": 2620, "pitch": 56, "duration": 1, "velocity": 67}, {"time": 2624, "pitch": 44, "duration": 1, "velocity": 41}, {"time": 2626, "pitch": 49, "duration": 1, "velocity": 80}, {"time": 2626, "pitch": 61, "duration": 1, "velocity": 72}, {"time": 2630, "pitch": 49, "duration": 1, "velocity": 50}, {"time": 2632, "pitch": 37, "duration": 14, "velocity": 93}, {"time": 2632, "pitch": 49, "duration": 3, "velocity": 74}, {"time": 2632, "pitch": 56, "duration": 4, "velocity": 74}, {"time": 2636, "pitch": 44, "duration": 10, "velocity": 56}, {"time": 2638, "pitch": 49, "duration": 3, "velocity": 87}, {"time": 2640, "pitch": 56, "duration": 2, "velocity": 80}, {"time": 2642, "pitch": 61, "duration": 1, "velocity": 72}, {"time": 2644, "pitch": 49, "duration": 4, "velocity": 93}, {"time": 2644, "pitch": 61, "duration": 5, "velocity": 72}, {"time": 2648, "pitch": 37, "duration": 1, "velocity": 68}, {"time": 2648, "pitch": 44, "duration": 1, "velocity": 87}, {"time": 2652, "pitch": 49, "duration": 1, "velocity": 95}, {"time": 2656, "pitch": 42, "duration": 11, "velocity": 102}, {"time": 2656, "pitch": 54, "duration": 3, "velocity": 70}, {"time": 2656, "pitch": 57, "duration": 3, "velocity": 68}, {"time": 2656, "pitch": 61, "duration": 3, "velocity": 85}, {"time": 2660, "pitch": 49, "duration": 7, "velocity": 54}, {"time": 2662, "pitch": 54, "duration": 1, "velocity": 95}, {"time": 2662, "pitch": 61, "duration": 1, "velocity": 102}, {"time": 2666, "pitch": 54, "duration": 1, "velocity": 74}, {"time": 2668, "pitch": 42, "duration": 10, "velocity": 87}, {"time": 2668, "pitch": 54, "duration": 3, "velocity": 83}, {"time": 2668, "pitch": 61, "duration": 4, "velocity": 93}, {"time": 2672, "pitch": 49, "duration": 7, "velocity": 53}, {"time": 2674, "pitch": 54, "duration": 3, "velocity": 72}, {"time": 2676, "pitch": 57, "duration": 2, "velocity": 72}, {"time": 2678, "pitch": 61, "duration": 1, "velocity": 90}, {"time": 2680, "pitch": 42, "duration": 13, "velocity": 93}, {"time": 2680, "pitch": 54, "duration": 3, "velocity": 102}, {"time": 2680, "pitch": 61, "duration": 4, "velocity": 74}, {"time": 2684, "pitch": 49, "duration": 9, "velocity": 69}, {"time": 2688, "pitch": 54, "duration": 2, "velocity": 93}, {"time": 2692, "pitch": 54, "duration": 3, "velocity": 103}, {"time": 2692, "pitch": 61, "duration": 6, "velocity": 67}, {"time": 2692, "pitch": 66, "duration": 8, "velocity": 69}, {"time": 2696, "pitch": 49, "duration": 3, "velocity": 69}, {"time": 2700, "pitch": 54, "duration": 2, "velocity": 102}, {"time": 2704, "pitch": 47, "duration": 22, "velocity": 87}, {"time": 2708, "pitch": 54, "duration": 10, "velocity": 80}, {"time": 2710, "pitch": 59, "duration": 2, "velocity": 93}, {"time": 2712, "pitch": 63, "duration": 2, "velocity": 102}, {"time": 2714, "pitch": 59, "duration": 1, "velocity": 85}, {"time": 2716, "pitch": 59, "duration": 4, "velocity": 102}, {"time": 2716, "pitch": 66, "duration": 4, "velocity": 110}, {"time": 2720, "pitch": 54, "duration": 4, "velocity": 83}, {"time": 2724, "pitch": 59, "duration": 2, "velocity": 85}, {"time": 2728, "pitch": 47, "duration": 24, "velocity": 85}, {"time": 2728, "pitch": 59, "duration": 2, "velocity": 93}, {"time": 2728, "pitch": 63, "duration": 2, "velocity": 80}, {"time": 2728, "pitch": 66, "duration": 2, "velocity": 68}, {"time": 2728, "pitch": 71, "duration": 3, "velocity": 87}, {"time": 2732, "pitch": 54, "duration": 9, "velocity": 41}, {"time": 2732, "pitch": 57, "duration": 1, "velocity": 30}, {"time": 2732, "pitch": 59, "duration": 1, "velocity": 61}, {"time": 2736, "pitch": 59, "duration": 1, "velocity": 87}, {"time": 2736, "pitch": 63, "duration": 1, "velocity": 66}, {"time": 2736, "pitch": 66, "duration": 1, "velocity": 61}, {"time": 2740, "pitch": 59, "duration": 3, "velocity": 95}, {"time": 2740, "pitch": 63, "duration": 3, "velocity": 103}, {"time": 2740, "pitch": 66, "duration": 4, "velocity": 93}, {"time": 2740, "pitch": 71, "duration": 3, "velocity": 93}, {"time": 2744, "pitch": 54, "duration": 8, "velocity": 85}, {"time": 2746, "pitch": 59, "duration": 3, "velocity": 102}, {"time": 2748, "pitch": 63, "duration": 2, "velocity": 93}, {"time": 2750, "pitch": 66, "duration": 1, "velocity": 102}, {"time": 2752, "pitch": 40, "duration": 21, "velocity": 93}, {"time": 2752, "pitch": 52, "duration": 4, "velocity": 87}, {"time": 2752, "pitch": 59, "duration": 6, "velocity": 87}, {"time": 2756, "pitch": 47, "duration": 10, "velocity": 69}, {"time": 2758, "pitch": 56, "duration": 2, "velocity": 64}, {"time": 2760, "pitch": 52, "duration": 2, "velocity": 90}, {"time": 2764, "pitch": 52, "duration": 3, "velocity": 105}, {"time": 2764, "pitch": 59, "duration": 4, "velocity": 102}, {"time": 2768, "pitch": 47, "duration": 5, "velocity": 69}, {"time": 2772, "pitch": 56, "duration": 1, "velocity": 80}, {"time": 2776, "pitch": 40, "duration": 14, "velocity": 93}, {"time": 2776, "pitch": 52, "duration": 3, "velocity": 87}, {"time": 2776, "pitch": 64, "duration": 3, "velocity": 93}, {"time": 2780, "pitch": 47, "duration": 10, "velocity": 63}, {"time": 2782, "pitch": 59, "duration": 2, "velocity": 83}, {"time": 2784, "pitch": 56, "duration": 1, "velocity": 87}, {"time": 2786, "pitch": 52, "duration": 1, "velocity": 90}, {"time": 2788, "pitch": 52, "duration": 4, "velocity": 95}, {"time": 2788, "pitch": 59, "duration": 4, "velocity": 87}, {"time": 2792, "pitch": 47, "duration": 2, "velocity": 80}, {"time": 2794, "pitch": 56, "duration": 2, "velocity": 95}, {"time": 2796, "pitch": 52, "duration": 2, "velocity": 102}, {"time": 2798, "pitch": 56, "duration": 1, "velocity": 102}, {"time": 2800, "pitch": 37, "duration": 14, "velocity": 85}, {"time": 2804, "pitch": 44, "duration": 9, "velocity": 39}, {"time": 2808, "pitch": 49, "duration": 2, "velocity": 70}, {"time": 2812, "pitch": 49, "duration": 3, "velocity": 90}, {"time": 2812, "pitch": 56, "duration": 1, "velocity": 67}, {"time": 2816, "pitch": 44, "duration": 1, "velocity": 41}, {"time": 2818, "pitch": 49, "duration": 1, "velocity": 80}, {"time": 2818, "pitch": 61, "duration": 1, "velocity": 72}, {"time": 2822, "pitch": 49, "duration": 1, "velocity": 50}, {"time": 2824, "pitch": 37, "duration": 14, "velocity": 93}, {"time": 2824, "pitch": 49, "duration": 3, "velocity": 74}, {"time": 2824, "pitch": 56, "duration": 4, "velocity": 74}, {"time": 2828, "pitch": 44, "duration": 10, "velocity": 56}, {"time": 2830, "pitch": 49, "duration": 3, "velocity": 87}, {"time": 2832, "pitch": 56, "duration": 2, "velocity": 80}, {"time": 2834, "pitch": 61, "duration": 1, "velocity": 72}, {"time": 2836, "pitch": 49, "duration": 4, "velocity": 93}, {"time": 2836, "pitch": 61, "duration": 5, "velocity": 72}, {"time": 2840, "pitch": 37, "duration": 1, "velocity": 68}, {"time": 2840, "pitch": 44, "duration": 1, "velocity": 87}, {"time": 2844, "pitch": 49, "duration": 1, "velocity": 95}, {"time": 2848, "pitch": 42, "duration": 11, "velocity": 102}, {"time": 2848, "pitch": 54, "duration": 3, "velocity": 70}, {"time": 2848, "pitch": 57, "duration": 3, "velocity": 68}, {"time": 2848, "pitch": 61, "duration": 3, "velocity": 85}, {"time": 2852, "pitch": 49, "duration": 7, "velocity": 54}, {"time": 2854, "pitch": 54, "duration": 1, "velocity": 95}, {"time": 2854, "pitch": 61, "duration": 1, "velocity": 102}, {"time": 2858, "pitch": 54, "duration": 1, "velocity": 74}, {"time": 2860, "pitch": 42, "duration": 10, "velocity": 87}, {"time": 2860, "pitch": 54, "duration": 3, "velocity": 83}, {"time": 2860, "pitch": 61, "duration": 4, "velocity": 93}, {"time": 2864, "pitch": 49, "duration": 7, "velocity": 53}, {"time": 2866, "pitch": 54, "duration": 3, "velocity": 72}, {"time": 2868, "pitch": 57, "duration": 2, "velocity": 72}, {"time": 2870, "pitch": 61, "duration": 1, "velocity": 90}, {"time": 2872, "pitch": 42, "duration": 13, "velocity": 93}, {"time": 2872, "pitch": 54, "duration": 3, "velocity": 102}, {"time": 2872, "pitch": 61, "duration": 4, "velocity": 74}, {"time": 2876, "pitch": 49, "duration": 9, "velocity": 69}, {"time": 2880, "pitch": 54, "duration": 2, "velocity": 93}, {"time": 2884, "pitch": 54, "duration": 3, "velocity": 103}, {"time": 2884, "pitch": 61, "duration": 6, "velocity": 67}, {"time": 2884, "pitch": 66, "duration": 8, "velocity": 69}, {"time": 2888, "pitch": 49, "duration": 3, "velocity": 69}, {"time": 2892, "pitch": 54, "duration": 2, "velocity": 102}, {"time": 2896, "pitch": 47, "duration": 22, "velocity": 87}, {"time": 2900, "pitch": 54, "duration": 10, "velocity": 80}, {"time": 2902, "pitch": 59, "duration": 2, "velocity": 93}, {"time": 2904, "pitch": 63, "duration": 2, "velocity": 102}, {"time": 2906, "pitch": 59, "duration": 1, "velocity": 85}, {"time": 2908, "pitch": 59, "duration": 4, "velocity": 102}, {"time": 2908, "pitch": 66, "duration": 4, "velocity": 110}, {"time": 2912, "pitch": 54, "duration": 4, "velocity": 83}, {"time": 2916, "pitch": 59, "duration": 2, "velocity": 85}, {"time": 2920, "pitch": 47, "duration": 24, "velocity": 85}, {"time": 2920, "pitch": 59, "duration": 2, "velocity": 93}, {"time": 2920, "pitch": 63, "duration": 2, "velocity": 80}, {"time": 2920, "pitch": 66, "duration": 2, "velocity": 68}, {"time": 2920, "pitch": 71, "duration": 3, "velocity": 87}, {"time": 2924, "pitch": 54, "duration": 9, "velocity": 41}, {"time": 2924, "pitch": 57, "duration": 1, "velocity": 30}, {"time": 2924, "pitch": 59, "duration": 1, "velocity": 61}, {"time": 2928, "pitch": 59, "duration": 1, "velocity": 87}, {"time": 2928, "pitch": 63, "duration": 1, "velocity": 66}, {"time": 2928, "pitch": 66, "duration": 1, "velocity": 61}, {"time": 2932, "pitch": 59, "duration": 3, "velocity": 95}, {"time": 2932, "pitch": 63, "duration": 3, "velocity": 103}, {"time": 2932, "pitch": 66, "duration": 4, "velocity": 93}, {"time": 2932, "pitch": 71, "duration": 3, "velocity": 93}, {"time": 2936, "pitch": 54, "duration": 8, "velocity": 85}, {"time": 2938, "pitch": 59, "duration": 3, "velocity": 102}, {"time": 2940, "pitch": 63, "duration": 2, "velocity": 93}, {"time": 2942, "pitch": 66, "duration": 1, "velocity": 102}, {"time": 2944, "pitch": 40, "duration": 21, "velocity": 93}, {"time": 2944, "pitch": 52, "duration": 4, "velocity": 87}, {"time": 2944, "pitch": 59, "duration": 6, "velocity": 87}, {"time": 2948, "pitch": 47, "duration": 10, "velocity": 69}, {"time": 2950, "pitch": 56, "duration": 2, "velocity": 64}, {"time": 2952, "pitch": 52, "duration": 2, "velocity": 90}, {"time": 2956, "pitch": 52, "duration": 3, "velocity": 105}, {"time": 2956, "pitch": 59, "duration": 4, "velocity": 102}, {"time": 2960, "pitch": 47, "duration": 5, "velocity": 69}, {"time": 2964, "pitch": 56, "duration": 1, "velocity": 80}, {"time": 2968, "pitch": 40, "duration": 14, "velocity": 93}, {"time": 2968, "pitch": 52, "duration": 3, "velocity": 87}, {"time": 2968, "pitch": 64, "duration": 3, "velocity": 93}, {"time": 2972, "pitch": 47, "duration": 10, "velocity": 63}, {"time": 2974, "pitch": 59, "duration": 2, "velocity": 83}, {"time": 2976, "pitch": 56, "duration": 1, "velocity": 87}, {"time": 2978, "pitch": 52, "duration": 1, "velocity": 90}, {"time": 2980, "pitch": 52, "duration": 4, "velocity": 95}, {"time": 2980, "pitch": 59, "duration": 4, "velocity": 87}, {"time": 2984, "pitch": 47, "duration": 2, "velocity": 80}, {"time": 2986, "pitch": 56, "duration": 2, "velocity": 95}, {"time": 2988, "pitch": 52, "duration": 2, "velocity": 102}, {"time": 2990, "pitch": 56, "duration": 1, "velocity": 102}, {"time": 2992, "pitch": 37, "duration": 14, "velocity": 85}, {"time": 2996, "pitch": 44, "duration": 9, "velocity": 39}, {"time": 3000, "pitch": 49, "duration": 2, "velocity": 70}, {"time": 3004, "pitch": 49, "duration": 3, "velocity": 90}, {"time": 3004, "pitch": 56, "duration": 1, "velocity": 67}, {"time": 3008, "pitch": 44, "duration": 1, "velocity": 41}, {"time": 3010, "pitch": 49, "duration": 1, "velocity": 80}, {"time": 3010, "pitch": 61, "duration": 1, "velocity": 72}, {"time": 3014, "pitch": 49, "duration": 1, "velocity": 50}, {"time": 3016, "pitch": 37, "duration": 14, "velocity": 93}, {"time": 3016, "pitch": 49, "duration": 3, "velocity": 74}, {"time": 3016, "pitch": 56, "duration": 4, "velocity": 74}, {"time": 3020, "pitch": 44, "duration": 10, "velocity": 56}, {"time": 3022, "pitch": 49, "duration": 3, "velocity": 87}, {"time": 3024, "pitch": 56, "duration": 2, "velocity": 80}, {"time": 3026, "pitch": 61, "duration": 1, "velocity": 72}, {"time": 3028, "pitch": 49, "duration": 4, "velocity": 93}, {"time": 3028, "pitch": 61, "duration": 5, "velocity": 72}, {"time": 3032, "pitch": 37, "duration": 1, "velocity": 68}, {"time": 3032, "pitch": 44, "duration": 1, "velocity": 87}, {"time": 3036, "pitch": 49, "duration": 1, "velocity": 95}, {"time": 3040, "pitch": 42, "duration": 11, "velocity": 102}, {"time": 3040, "pitch": 54, "duration": 3, "velocity": 70}, {"time": 3040, "pitch": 57, "duration": 3, "velocity": 68}, {"time": 3040, "pitch": 61, "duration": 3, "velocity": 85}, {"time": 3044, "pitch": 49, "duration": 7, "velocity": 54}, {"time": 3046, "pitch": 54, "duration": 1, "velocity": 95}, {"time": 3046, "pitch": 61, "duration": 1, "velocity": 102}, {"time": 3050, "pitch": 54, "duration": 1, "velocity": 74}, {"time": 3052, "pitch": 42, "duration": 10, "velocity": 87}, {"time": 3052, "pitch": 54, "duration": 3, "velocity": 83}, {"time": 3052, "pitch": 61, "duration": 4, "velocity": 93}, {"time": 3056, "pitch": 49, "duration": 7, "velocity": 53}, {"time": 3058, "pitch": 54, "duration": 3, "velocity": 72}, {"time": 3060, "pitch": 57, "duration": 2, "velocity": 72}, {"time": 3062, "pitch": 61, "duration": 1, "velocity": 90}, {"time": 3064, "pitch": 42, "duration": 13, "velocity": 93}, {"time": 3064, "pitch": 54, "duration": 3, "velocity": 102}, {"time": 3064, "pitch": 61, "duration": 4, "velocity": 74}, {"time": 3068, "pitch": 49, "duration": 9, "velocity": 69}, {"time": 3072, "pitch": 54, "duration": 2, "velocity": 93}, {"time": 3076, "pitch": 54, "duration": 3, "velocity": 103}, {"time": 3076, "pitch": 61, "duration": 6, "velocity": 67}, {"time": 3076, "pitch": 66, "duration": 8, "velocity": 69}, {"time": 3080, "pitch": 49, "duration": 3, "velocity": 69}, {"time": 3084, "pitch": 54, "duration": 2, "velocity": 102}, {"time": 3088, "pitch": 47, "duration": 22, "velocity": 87}, {"time": 3092, "pitch": 54, "duration": 10, "velocity": 80}, {"time": 3094, "pitch": 59, "duration": 2, "velocity": 93}, {"time": 3096, "pitch": 63, "duration": 2, "velocity": 102}, {"time": 3098, "pitch": 59, "duration": 1, "velocity": 85}, {"time": 3100, "pitch": 59, "duration": 4, "velocity": 102}, {"time": 3100, "pitch": 66, "duration": 4, "velocity": 110}, {"time": 3104, "pitch": 54, "duration": 4, "velocity": 83}, {"time": 3108, "pitch": 59, "duration": 2, "velocity": 85}, {"time": 3112, "pitch": 47, "duration": 24, "velocity": 85}, {"time": 3112, "pitch": 59, "duration": 2, "velocity": 93}, {"time": 3112, "pitch": 63, "duration": 2, "velocity": 80}, {"time": 3112, "pitch": 66, "duration": 2, "velocity": 68}, {"time": 3112, "pitch": 71, "duration": 3, "velocity": 87}, {"time": 3116, "pitch": 54, "duration": 9, "velocity": 41}, {"time": 3116, "pitch": 57, "duration": 1, "velocity": 30}, {"time": 3116, "pitch": 59, "duration": 1, "velocity": 61}, {"time": 3120, "pitch": 59, "duration": 1, "velocity": 87}, {"time": 3120, "pitch": 63, "duration": 1, "velocity": 66}, {"time": 3120, "pitch": 66, "duration": 1, "velocity": 61}, {"time": 3124, "pitch": 59, "duration": 3, "velocity": 95}, {"time": 3124, "pitch": 63, "duration": 3, "velocity": 103}, {"time": 3124, "pitch": 66, "duration": 4, "velocity": 93}, {"time": 3124, "pitch": 71, "duration": 3, "velocity": 93}, {"time": 3128, "pitch": 54, "duration": 8, "velocity": 85}, {"time": 3130, "pitch": 59, "duration": 3, "velocity": 102}, {"time": 3132, "pitch": 63, "duration": 2, "velocity": 93}, {"time": 3134, "pitch": 66, "duration": 1, "velocity": 102}, {"time": 3136, "pitch": 40, "duration": 46, "velocity": 92}, {"time": 3136, "pitch": 52, "duration": 11, "velocity": 85}, {"time": 3136, "pitch": 59, "duration": 5, "velocity": 88}, {"time": 3140, "pitch": 47, "duration": 42, "velocity": 76}, {"time": 3144, "pitch": 56, "duration": 3, "velocity": 86}, {"time": 3148, "pitch": 59, "duration": 6, "velocity": 90}, {"time": 3152, "pitch": 56, "duration": 2, "velocity": 71}, {"time": 3156, "pitch": 52, "duration": 5, "velocity": 71}, {"time": 3164, "pitch": 59, "duration": 5, "velocity": 81}, {"time": 3168, "pitch": 52, "duration": 2, "velocity": 80}, {"time": 3172, "pitch": 52, "duration": 1, "velocity": 81}, {"time": 3172, "pitch": 56, "duration": 4, "velocity": 91}, {"time": 3172, "pitch": 59, "duration": 5, "velocity": 91}, {"time": 3172, "pitch": 64, "duration": 13, "velocity": 85}, {"time": 3176, "pitch": 52, "duration": 2, "velocity": 83}, {"time": 3180, "pitch": 56, "duration": 5, "velocity": 82}, {"time": 3180, "pitch": 59, "duration": 5, "velocity": 73}, {"time": 3184, "pitch": 40, "duration": 46, "velocity": 87}, {"time": 3188, "pitch": 52, "duration": 5, "velocity": 82}, {"time": 3192, "pitch": 57, "duration": 2, "velocity": 73}, {"time": 3196, "pitch": 52, "duration": 1, "velocity": 86}, {"time": 3196, "pitch": 57, "duration": 4, "velocity": 82}, {"time": 3196, "pitch": 60, "duration": 6, "velocity": 83}, {"time": 3200, "pitch": 52, "duration": 2, "velocity": 77}, {"time": 3204, "pitch": 57, "duration": 1, "velocity": 78}, {"time": 3204, "pitch": 60, "duration": 2, "velocity": 76}, {"time": 3212, "pitch": 57, "duration": 1, "velocity": 76}, {"time": 3212, "pitch": 60, "duration": 1, "velocity": 72}, {"time": 3216, "pitch": 57, "duration": 1, "velocity": 68}, {"time": 3216, "pitch": 60, "duration": 2, "velocity": 78}, {"time": 3220, "pitch": 52, "duration": 2, "velocity": 91}, {"time": 3220, "pitch": 57, "duration": 2, "velocity": 80}, {"time": 3220, "pitch": 60, "duration": 1, "velocity": 78}, {"time": 3220, "pitch": 64, "duration": 4, "velocity": 91}, {"time": 3224, "pitch": 60, "duration": 6, "velocity": 84}, {"time": 3228, "pitch": 52, "duration": 3, "velocity": 92}, {"time": 3232, "pitch": 40, "duration": 48, "velocity": 94}, {"time": 3235, "pitch": 47, "duration": 44, "velocity": 76}, {"time": 3238, "pitch": 52, "duration": 2, "velocity": 81}, {"time": 3240, "pitch": 59, "duration": 5, "velocity": 86}, {"time": 3242, "pitch": 56, "duration": 2, "velocity": 82}, {"time": 3245, "pitch": 64, "duration": 3, "velocity": 88}, {"time": 3247, "pitch": 59, "duration": 2, "velocity": 80}, {"time": 3250, "pitch": 68, "duration": 3, "velocity": 90}, {"time": 3254, "pitch": 64, "duration": 2, "velocity": 75}, {"time": 3259, "pitch": 71, "duration": 2, "velocity": 84}, {"time": 3259, "pitch": 64, "duration": 2, "velocity": 78}, {"time": 3266, "pitch": 64, "duration": 1, "velocity": 76}, {"time": 3266, "pitch": 68, "duration": 1, "velocity": 82}, {"time": 3267, "pitch": 71, "duration": 1, "velocity": 78}, {"time": 3267, "pitch": 76, "duration": 1, "velocity": 89}, {"time": 3273, "pitch": 76, "duration": 1, "velocity": 63}, {"time": 3273, "pitch": 80, "duration": 1, "velocity": 71}, {"time": 3274, "pitch": 88, "duration": 1, "velocity": 83}], "annotations": [{"time": 3, "annotation": {"number": 64, "value": 127}, "group": "control_change"}, {"time": 48, "annotation": {"number": 64, "value": 0}, "group": "control_change"}, {"time": 56, "annotation": {"number": 64, "value": 127}, "group": "control_change"}, {"time": 98, "annotation": {"number": 64, "value": 0}, "group": "control_change"}, {"time": 100, "annotation": {"number": 64, "value": 127}, "group": "control_change"}, {"time": 147, "annotation": {"number": 64, "value": 0}, "group": "control_change"}, {"time": 152, "annotation": {"number": 64, "value": 127}, "group": "control_change"}, {"time": 195, "annotation": {"number": 64, "value": 0}, "group": "control_change"}, {"time": 200, "annotation": {"number": 64, "value": 127}, "group": "control_change"}, {"time": 244, "annotation": {"number": 64, "value": 0}, "group": "control_change"}, {"time": 249, "annotation": {"number": 64, "value": 127}, "group": "control_change"}, {"time": 291, "annotation": {"number": 64, "value": 0}, "group": "control_change"}, {"time": 293, "annotation": {"number": 64, "value": 127}, "group": "control_change"}, {"time": 338, "annotation": {"number": 64, "value": 0}, "group": "control_change"}, {"time": 340, "annotation": {"number": 64, "value": 127}, "group": "control_change"}, {"time": 362, "annotation": {"number": 64, "value": 0}, "group": "control_change"}, {"time": 367, "annotation": {"number": 64, "value": 127}, "group": "control_change"}, {"time": 386, "annotation": {"number": 64, "value": 0}, "group": "control_change"}, {"time": 388, "annotation": {"number": 64, "value": 127}, "group": "control_change"}, {"time": 388, "annotation": {"number": 64, "value": 0}, "group": "control_change"}, {"time": 399, "annotation": {"number": 64, "value": 0}, "group": "control_change"}, {"time": 401, "annotation": {"number": 64, "value": 127}, "group": "control_change"}, {"time": 410, "annotation": {"number": 64, "value": 0}, "group": "control_change"}, {"time": 412, "annotation": {"number": 64, "value": 127}, "group": "control_change"}, {"time": 423, "annotation": {"number": 64, "value": 0}, "group": "control_change"}, {"time": 426, "annotation": {"number": 64, "value": 127}, "group": "control_change"}, {"time": 432, "annotation": {"number": 64, "value": 0}, "group": "control_change"}, {"time": 436, "annotation": {"number": 64, "value": 127}, "group": "control_change"}, {"time": 458, "annotation": {"number": 64, "value": 0}, "group": "control_change"}, {"time": 460, "annotation": {"number": 64, "value": 127}, "group": "control_change"}, {"time": 482, "annotation": {"number": 64, "value": 0}, "group": "control_change"}, {"time": 483, "annotation": {"number": 64, "value": 0}, "group": "control_change"}, {"time": 485, "annotation": {"number": 64, "value": 127}, "group": "control_change"}, {"time": 530, "annotation": {"number": 64, "value": 0}, "group": "control_change"}, {"time": 535, "annotation": {"number": 64, "value": 127}, "group": "control_change"}, {"time": 578, "annotation": {"number": 64, "value": 0}, "group": "control_change"}, {"time": 580, "annotation": {"number": 64, "value": 127}, "group": "control_change"}, {"time": 602, "annotation": {"number": 64, "value": 0}, "group": "control_change"}, {"time": 604, "annotation": {"number": 64, "value": 127}, "group": "control_change"}, {"time": 625, "annotation": {"number": 64, "value": 0}, "group": "control_change"}, {"time": 629, "annotation": {"number": 64, "value": 127}, "group": "control_change"}, {"time": 651, "annotation": {"number": 64, "value": 0}, "group": "control_change"}, {"time": 653, "annotation": {"number": 64, "value": 127}, "group": "control_change"}, {"time": 675, "annotation": {"number": 64, "value": 0}, "group": "control_change"}, {"time": 677, "annotation": {"number": 64, "value": 127}, "group": "control_change"}, {"time": 722, "annotation": {"number": 64, "value": 0}, "group": "control_change"}, {"time": 725, "annotation": {"number": 64, "value": 127}, "group": "control_change"}, {"time": 747, "annotation": {"number": 64, "value": 0}, "group": "control_change"}, {"time": 749, "annotation": {"number": 64, "value": 127}, "group": "control_change"}, {"time": 769, "annotation": {"number": 64, "value": 0}, "group": "control_change"}, {"time": 775, "annotation": {"number": 64, "value": 127}, "group": "control_change"}, {"time": 795, "annotation": {"number": 64, "value": 0}, "group": "control_change"}, {"time": 796, "annotation": {"number": 64, "value": 127}, "group": "control_change"}, {"time": 797, "annotation": {"number": 64, "value": 127}, "group": "control_change"}, {"time": 816, "annotation": {"number": 64, "value": 0}, "group": "control_change"}, {"time": 832, "annotation": {"number": 64, "value": 0}, "group": "control_change"}, {"time": 832, "annotation": {"number": 64, "value": 127}, "group": "control_change"}, {"time": 879, "annotation": {"number": 64, "value": 0}, "group": "control_change"}, {"time": 882, "annotation": {"number": 64, "value": 127}, "group": "control_change"}, {"time": 926, "annotation": {"number": 64, "value": 0}, "group": "control_change"}, {"time": 930, "annotation": {"number": 64, "value": 127}, "group": "control_change"}, {"time": 974, "annotation": {"number": 64, "value": 0}, "group": "control_change"}, {"time": 977, "annotation": {"number": 64, "value": 127}, "group": "control_change"}, {"time": 998, "annotation": {"number": 64, "value": 0}, "group": "control_change"}, {"time": 1000, "annotation": {"number": 64, "value": 127}, "group": "control_change"}, {"time": 1023, "annotation": {"number": 64, "value": 0}, "group": "control_change"}, {"time": 1026, "annotation": {"number": 64, "value": 127}, "group": "control_change"}, {"time": 1049, "annotation": {"number": 64, "value": 0}, "group": "control_change"}, {"time": 1050, "annotation": {"number": 64, "value": 127}, "group": "control_change"}, {"time": 1071, "annotation": {"number": 64, "value": 0}, "group": "control_change"}, {"time": 1075, "annotation": {"number": 64, "value": 127}, "group": "control_change"}, {"time": 1094, "annotation": {"number": 64, "value": 0}, "group": "control_change"}, {"time": 1096, "annotation": {"number": 64, "value": 127}, "group": "control_change"}, {"time": 1119, "annotation": {"number": 64, "value": 0}, "group": "control_change"}, {"time": 1124, "annotation": {"number": 64, "value": 127}, "group": "control_change"}, {"time": 1143, "annotation": {"number": 64, "value": 0}, "group": "control_change"}, {"time": 1145, "annotation": {"number": 64, "value": 127}, "group": "control_change"}, {"time": 1166, "annotation": {"number": 64, "value": 0}, "group": "control_change"}, {"time": 1168, "annotation": {"number": 64, "value": 127}, "group": "control_change"}, {"time": 1168, "annotation": {"number": 64, "value": 0}, "group": "control_change"}, {"time": 1179, "annotation": {"number": 64, "value": 0}, "group": "control_change"}, {"time": 1181, "annotation": {"number": 64, "value": 127}, "group": "control_change"}, {"time": 1190, "annotation": {"number": 64, "value": 0}, "group": "control_change"}, {"time": 1192, "annotation": {"number": 64, "value": 127}, "group": "control_change"}, {"time": 1203, "annotation": {"number": 64, "value": 0}, "group": "control_change"}, {"time": 1206, "annotation": {"number": 64, "value": 127}, "group": "control_change"}, {"time": 1212, "annotation": {"number": 64, "value": 0}, "group": "control_change"}, {"time": 1216, "annotation": {"number": 64, "value": 127}, "group": "control_change"}, {"time": 1216, "annotation": {"number": 64, "value": 0}, "group": "control_change"}, {"time": 1262, "annotation": {"number": 64, "value": 0}, "group": "control_change"}, {"time": 1264, "annotation": {"number": 64, "value": 127}, "group": "control_change"}, {"time": 1287, "annotation": {"number": 64, "value": 0}, "group": "control_change"}, {"time": 1288, "annotation": {"number": 64, "value": 127}, "group": "control_change"}, {"time": 1310, "annotation": {"number": 64, "value": 0}, "group": "control_change"}, {"time": 1312, "annotation": {"number": 64, "value": 127}, "group": "control_change"}, {"time": 1336, "annotation": {"number": 64, "value": 0}, "group": "control_change"}, {"time": 1338, "annotation": {"number": 64, "value": 127}, "group": "control_change"}, {"time": 1357, "annotation": {"number": 64, "value": 0}, "group": "control_change"}, {"time": 1359, "annotation": {"number": 64, "value": 127}, "group": "control_change"}, {"time": 1382, "annotation": {"number": 64, "value": 0}, "group": "control_change"}, {"time": 1384, "annotation": {"number": 64, "value": 127}, "group": "control_change"}, {"time": 1405, "annotation": {"number": 64, "value": 0}, "group": "control_change"}, {"time": 1408, "annotation": {"number": 64, "value": 127}, "group": "control_change"}, {"time": 1431, "annotation": {"number": 64, "value": 0}, "group": "control_change"}, {"time": 1432, "annotation": {"number": 64, "value": 127}, "group": "control_change"}, {"time": 1453, "annotation": {"number": 64, "value": 0}, "group": "control_change"}, {"time": 1456, "annotation": {"number": 64, "value": 127}, "group": "control_change"}, {"time": 1478, "annotation": {"number": 64, "value": 0}, "group": "control_change"}, {"time": 1480, "annotation": {"number": 64, "value": 127}, "group": "control_change"}, {"time": 1502, "annotation": {"number": 64, "value": 0}, "group": "control_change"}, {"time": 1506, "annotation": {"number": 64, "value": 127}, "group": "control_change"}, {"time": 1527, "annotation": {"number": 64, "value": 0}, "group": "control_change"}, {"time": 1531, "annotation": {"number": 64, "value": 127}, "group": "control_change"}, {"time": 1550, "annotation": {"number": 64, "value": 0}, "group": "control_change"}, {"time": 1553, "annotation": {"number": 64, "value": 127}, "group": "control_change"}, {"time": 1574, "annotation": {"number": 64, "value": 0}, "group": "control_change"}, {"time": 1576, "annotation": {"number": 64, "value": 127}, "group": "control_change"}, {"time": 1597, "annotation": {"number": 64, "value": 0}, "group": "control_change"}, {"time": 1600, "annotation": {"number": 64, "value": 127}, "group": "control_change"}, {"time": 1602, "annotation": {"number": 64, "value": 0}, "group": "control_change"}, {"time": 1611, "annotation": {"number": 64, "value": 127}, "group": "control_change"}, {"time": 1621, "annotation": {"number": 64, "value": 0}, "group": "control_change"}, {"time": 1625, "annotation": {"number": 64, "value": 127}, "group": "control_change"}, {"time": 1647, "annotation": {"number": 64, "value": 0}, "group": "control_change"}, {"time": 1654, "annotation": {"number": 64, "value": 127}, "group": "control_change"}, {"time": 1670, "annotation": {"number": 64, "value": 0}, "group": "control_change"}, {"time": 1672, "annotation": {"number": 64, "value": 127}, "group": "control_change"}, {"time": 1694, "annotation": {"number": 64, "value": 0}, "group": "control_change"}, {"time": 1708, "annotation": {"number": 64, "value": 127}, "group": "control_change"}, {"time": 1718, "annotation": {"number": 64, "value": 0}, "group": "control_change"}, {"time": 1722, "annotation": {"number": 64, "value": 127}, "group": "control_change"}, {"time": 1743, "annotation": {"number": 64, "value": 0}, "group": "control_change"}, {"time": 1762, "annotation": {"number": 64, "value": 127}, "group": "control_change"}, {"time": 1774, "annotation": {"number": 64, "value": 127}, "group": "control_change"}, {"time": 1791, "annotation": {"number": 64, "value": 0}, "group": "control_change"}, {"time": 1793, "annotation": {"number": 64, "value": 0}, "group": "control_change"}, {"time": 1797, "annotation": {"number": 64, "value": 127}, "group": "control_change"}, {"time": 1814, "annotation": {"number": 64, "value": 0}, "group": "control_change"}, {"time": 1815, "annotation": {"number": 64, "value": 127}, "group": "control_change"}, {"time": 1840, "annotation": {"number": 64, "value": 0}, "group": "control_change"}, {"time": 1843, "annotation": {"number": 64, "value": 127}, "group": "control_change"}, {"time": 1863, "annotation": {"number": 64, "value": 0}, "group": "control_change"}, {"time": 1866, "annotation": {"number": 64, "value": 127}, "group": "control_change"}, {"time": 1886, "annotation": {"number": 64, "value": 0}, "group": "control_change"}, {"time": 1888, "annotation": {"number": 64, "value": 127}, "group": "control_change"}, {"time": 1888, "annotation": {"number": 64, "value": 0}, "group": "control_change"}, {"time": 1911, "annotation": {"number": 64, "value": 0}, "group": "control_change"}, {"time": 1913, "annotation": {"number": 64, "value": 127}, "group": "control_change"}, {"time": 1924, "annotation": {"number": 64, "value": 127}, "group": "control_change"}, {"time": 1933, "annotation": {"number": 64, "value": 0}, "group": "control_change"}, {"time": 1934, "annotation": {"number": 64, "value": 0}, "group": "control_change"}, {"time": 1936, "annotation": {"number": 64, "value": 127}, "group": "control_change"}, {"time": 1958, "annotation": {"number": 64, "value": 0}, "group": "control_change"}, {"time": 1984, "annotation": {"number": 64, "value": 0}, "group": "control_change"}, {"time": 1984, "annotation": {"number": 64, "value": 127}, "group": "control_change"}, {"time": 2031, "annotation": {"number": 64, "value": 0}, "group": "control_change"}, {"time": 2034, "annotation": {"number": 64, "value": 127}, "group": "control_change"}, {"time": 2078, "annotation": {"number": 64, "value": 0}, "group": "control_change"}, {"time": 2082, "annotation": {"number": 64, "value": 127}, "group": "control_change"}, {"time": 2126, "annotation": {"number": 64, "value": 0}, "group": "control_change"}, {"time": 2129, "annotation": {"number": 64, "value": 127}, "group": "control_change"}, {"time": 2150, "annotation": {"number": 64, "value": 0}, "group": "control_change"}, {"time": 2152, "annotation": {"number": 64, "value": 127}, "group": "control_change"}, {"time": 2175, "annotation": {"number": 64, "value": 0}, "group": "control_change"}, {"time": 2178, "annotation": {"number": 64, "value": 127}, "group": "control_change"}, {"time": 2201, "annotation": {"number": 64, "value": 0}, "group": "control_change"}, {"time": 2202, "annotation": {"number": 64, "value": 127}, "group": "control_change"}, {"time": 2223, "annotation": {"number": 64, "value": 0}, "group": "control_change"}, {"time": 2227, "annotation": {"number": 64, "value": 127}, "group": "control_change"}, {"time": 2246, "annotation": {"number": 64, "value": 0}, "group": "control_change"}, {"time": 2248, "annotation": {"number": 64, "value": 127}, "group": "control_change"}, {"time": 2271, "annotation": {"number": 64, "value": 0}, "group": "control_change"}, {"time": 2276, "annotation": {"number": 64, "value": 127}, "group": "control_change"}, {"time": 2295, "annotation": {"number": 64, "value": 0}, "group": "control_change"}, {"time": 2297, "annotation": {"number": 64, "value": 127}, "group": "control_change"}, {"time": 2318, "annotation": {"number": 64, "value": 0}, "group": "control_change"}, {"time": 2368, "annotation": {"number": 64, "value": 127}, "group": "control_change"}, {"time": 2392, "annotation": {"number": 64, "value": 0}, "group": "control_change"}, {"time": 2392, "annotation": {"number": 64, "value": 127}, "group": "control_change"}, {"time": 2415, "annotation": {"number": 64, "value": 0}, "group": "control_change"}, {"time": 2417, "annotation": {"number": 64, "value": 127}, "group": "control_change"}, {"time": 2439, "annotation": {"number": 64, "value": 0}, "group": "control_change"}, {"time": 2440, "annotation": {"number": 64, "value": 127}, "group": "control_change"}, {"time": 2464, "annotation": {"number": 64, "value": 0}, "group": "control_change"}, {"time": 2465, "annotation": {"number": 64, "value": 127}, "group": "control_change"}, {"time": 2487, "annotation": {"number": 64, "value": 0}, "group": "control_change"}, {"time": 2488, "annotation": {"number": 64, "value": 127}, "group": "control_change"}, {"time": 2535, "annotation": {"number": 64, "value": 0}, "group": "control_change"}, {"time": 2536, "annotation": {"number": 64, "value": 127}, "group": "control_change"}, {"time": 2557, "annotation": {"number": 64, "value": 0}, "group": "control_change"}, {"time": 2560, "annotation": {"number": 64, "value": 127}, "group": "control_change"}, {"time": 2584, "annotation": {"number": 64, "value": 0}, "group": "control_change"}, {"time": 2584, "annotation": {"number": 64, "value": 127}, "group": "control_change"}, {"time": 2607, "annotation": {"number": 64, "value": 0}, "group": "control_change"}, {"time": 2609, "annotation": {"number": 64, "value": 127}, "group": "control_change"}, {"time": 2631, "annotation": {"number": 64, "value": 0}, "group": "control_change"}, {"time": 2632, "annotation": {"number": 64, "value": 127}, "group": "control_change"}, {"time": 2656, "annotation": {"number": 64, "value": 0}, "group": "control_change"}, {"time": 2657, "annotation": {"number": 64, "value": 127}, "group": "control_change"}, {"time": 2679, "annotation": {"number": 64, "value": 0}, "group": "control_change"}, {"time": 2680, "annotation": {"number": 64, "value": 127}, "group": "control_change"}, {"time": 2727, "annotation": {"number": 64, "value": 0}, "group": "control_change"}, {"time": 2728, "annotation": {"number": 64, "value": 127}, "group": "control_change"}, {"time": 2749, "annotation": {"number": 64, "value": 0}, "group": "control_change"}, {"time": 2752, "annotation": {"number": 64, "value": 127}, "group": "control_change"}, {"time": 2776, "annotation": {"number": 64, "value": 0}, "group": "control_change"}, {"time": 2776, "annotation": {"number": 64, "value": 127}, "group": "control_change"}, {"time": 2799, "annotation": {"number": 64, "value": 0}, "group": "control_change"}, {"time": 2801, "annotation": {"number": 64, "value": 127}, "group": "control_change"}, {"time": 2823, "annotation": {"number": 64, "value": 0}, "group": "control_change"}, {"time": 2824, "annotation": {"number": 64, "value": 127}, "group": "control_change"}, {"time": 2848, "annotation": {"number": 64, "value": 0}, "group": "control_change"}, {"time": 2849, "annotation": {"number": 64, "value": 127}, "group": "control_change"}, {"time": 2871, "annotation": {"number": 64, "value": 0}, "group": "control_change"}, {"time": 2872, "annotation": {"number": 64, "value": 127}, "group": "control_change"}, {"time": 2919, "annotation": {"number": 64, "value": 0}, "group": "control_change"}, {"time": 2920, "annotation": {"number": 64, "value": 127}, "group": "control_change"}, {"time": 2941, "annotation": {"number": 64, "value": 0}, "group": "control_change"}, {"time": 2944, "annotation": {"number": 64, "value": 127}, "group": "control_change"}, {"time": 2968, "annotation": {"number": 64, "value": 0}, "group": "control_change"}, {"time": 2968, "annotation": {"number": 64, "value": 127}, "group": "control_change"}, {"time": 2991, "annotation": {"number": 64, "value": 0}, "group": "control_change"}, {"time": 2993, "annotation": {"number": 64, "value": 127}, "group": "control_change"}, {"time": 3015, "annotation": {"number": 64, "value": 0}, "group": "control_change"}, {"time": 3016, "annotation": {"number": 64, "value": 127}, "group": "control_change"}, {"time": 3040, "annotation": {"number": 64, "value": 0}, "group": "control_change"}, {"time": 3041, "annotation": {"number": 64, "value": 127}, "group": "control_change"}, {"time": 3063, "annotation": {"number": 64, "value": 0}, "group": "control_change"}, {"time": 3064, "annotation": {"number": 64, "value": 127}, "group": "control_change"}, {"time": 3111, "annotation": {"number": 64, "value": 0}, "group": "control_change"}, {"time": 3112, "annotation": {"number": 64, "value": 127}, "group": "control_change"}, {"time": 3133, "annotation": {"number": 64, "value": 0}, "group": "control_change"}, {"time": 3138, "annotation": {"number": 64, "value": 127}, "group": "control_change"}, {"time": 3138, "annotation": {"number": 64, "value": 0}, "group": "control_change"}, {"time": 3139, "annotation": {"number": 64, "value": 127}, "group": "control_change"}, {"time": 3182, "annotation": {"number": 64, "value": 0}, "group": "control_change"}, {"time": 3185, "annotation": {"number": 64, "value": 127}, "group": "control_change"}, {"time": 3230, "annotation": {"number": 64, "value": 0}, "group": "control_change"}, {"time": 3233, "annotation": {"number": 64, "value": 127}, "group": "control_change"}, {"time": 3306, "annotation": {"number": 64, "value": 0}, "group": "control_change"}]}]}