{"metadata": {"schema_version": "0.2", "title": "None", "source_filename": "510.mid", "source_format": "midi"}, "resolution": 12, "tempos": [{"time": 0, "qpm": 78.50002158750594}, {"time": 2747, "qpm": 78.25001662812853}, {"time": 2796, "qpm": 78.50002158750594}, {"time": 3589, "qpm": 79.75001030104299}, {"time": 3623, "qpm": 81.25016927118598}, {"time": 3652, "qpm": 81.75010627513815}, {"time": 3684, "qpm": 78.50002158750594}], "time_signatures": [{"time": 0, "numerator": 1, "denominator": 4}], "tracks": [{"program": 0, "is_drum": false, "name": "MELODY", "notes": [{"time": 400, "pitch": 67, "duration": 5, "velocity": 87}, {"time": 406, "pitch": 72, "duration": 6, "velocity": 99}, {"time": 412, "pitch": 67, "duration": 6, "velocity": 97}, {"time": 418, "pitch": 74, "duration": 10, "velocity": 100}, {"time": 430, "pitch": 72, "duration": 5, "velocity": 96}, {"time": 436, "pitch": 69, "duration": 4, "velocity": 97}, {"time": 442, "pitch": 76, "duration": 4, "velocity": 101}, {"time": 448, "pitch": 74, "duration": 4, "velocity": 99}, {"time": 454, "pitch": 72, "duration": 4, "velocity": 98}, {"time": 460, "pitch": 69, "duration": 5, "velocity": 97}, {"time": 466, "pitch": 67, "duration": 21, "velocity": 91}, {"time": 490, "pitch": 72, "duration": 6, "velocity": 92}, {"time": 499, "pitch": 74, "duration": 6, "velocity": 100}, {"time": 508, "pitch": 72, "duration": 4, "velocity": 97}, {"time": 514, "pitch": 71, "duration": 7, "velocity": 98}, {"time": 523, "pitch": 69, "duration": 7, "velocity": 96}, {"time": 532, "pitch": 67, "duration": 5, "velocity": 97}, {"time": 538, "pitch": 69, "duration": 6, "velocity": 96}, {"time": 544, "pitch": 67, "duration": 27, "velocity": 91}, {"time": 592, "pitch": 67, "duration": 4, "velocity": 96}, {"time": 598, "pitch": 72, "duration": 5, "velocity": 96}, {"time": 604, "pitch": 67, "duration": 5, "velocity": 97}, {"time": 610, "pitch": 74, "duration": 9, "velocity": 98}, {"time": 622, "pitch": 72, "duration": 5, "velocity": 99}, {"time": 628, "pitch": 79, "duration": 4, "velocity": 97}, {"time": 634, "pitch": 76, "duration": 4, "velocity": 97}, {"time": 640, "pitch": 74, "duration": 3, "velocity": 99}, {"time": 646, "pitch": 72, "duration": 5, "velocity": 98}, {"time": 652, "pitch": 69, "duration": 4, "velocity": 97}, {"time": 658, "pitch": 67, "duration": 23, "velocity": 98}, {"time": 682, "pitch": 72, "duration": 7, "velocity": 100}, {"time": 691, "pitch": 74, "duration": 7, "velocity": 98}, {"time": 700, "pitch": 72, "duration": 4, "velocity": 98}, {"time": 706, "pitch": 71, "duration": 7, "velocity": 97}, {"time": 715, "pitch": 69, "duration": 9, "velocity": 97}, {"time": 724, "pitch": 67, "duration": 5, "velocity": 94}, {"time": 730, "pitch": 69, "duration": 33, "velocity": 96}, {"time": 766, "pitch": 69, "duration": 5, "velocity": 97}, {"time": 772, "pitch": 67, "duration": 5, "velocity": 93}, {"time": 778, "pitch": 65, "duration": 8, "velocity": 96}, {"time": 787, "pitch": 72, "duration": 7, "velocity": 99}, {"time": 796, "pitch": 65, "duration": 5, "velocity": 98}, {"time": 802, "pitch": 72, "duration": 9, "velocity": 100}, {"time": 814, "pitch": 74, "duration": 4, "velocity": 98}, {"time": 820, "pitch": 76, "duration": 3, "velocity": 97}, {"time": 826, "pitch": 71, "duration": 7, "velocity": 97}, {"time": 835, "pitch": 69, "duration": 7, "velocity": 97}, {"time": 844, "pitch": 69, "duration": 4, "velocity": 95}, {"time": 850, "pitch": 67, "duration": 10, "velocity": 97}, {"time": 862, "pitch": 69, "duration": 4, "velocity": 96}, {"time": 868, "pitch": 67, "duration": 4, "velocity": 97}, {"time": 874, "pitch": 65, "duration": 8, "velocity": 99}, {"time": 883, "pitch": 72, "duration": 7, "velocity": 98}, {"time": 892, "pitch": 65, "duration": 4, "velocity": 100}, {"time": 898, "pitch": 72, "duration": 9, "velocity": 100}, {"time": 907, "pitch": 72, "duration": 2, "velocity": 97}, {"time": 910, "pitch": 74, "duration": 4, "velocity": 98}, {"time": 916, "pitch": 76, "duration": 4, "velocity": 97}, {"time": 922, "pitch": 71, "duration": 26, "velocity": 97}, {"time": 958, "pitch": 74, "duration": 4, "velocity": 100}, {"time": 964, "pitch": 72, "duration": 4, "velocity": 99}, {"time": 970, "pitch": 69, "duration": 7, "velocity": 98}, {"time": 979, "pitch": 69, "duration": 8, "velocity": 100}, {"time": 988, "pitch": 76, "duration": 4, "velocity": 96}, {"time": 994, "pitch": 74, "duration": 10, "velocity": 102}, {"time": 1006, "pitch": 72, "duration": 4, "velocity": 101}, {"time": 1012, "pitch": 74, "duration": 4, "velocity": 102}, {"time": 1018, "pitch": 76, "duration": 4, "velocity": 100}, {"time": 1024, "pitch": 74, "duration": 2, "velocity": 97}, {"time": 1027, "pitch": 72, "duration": 8, "velocity": 98}, {"time": 1036, "pitch": 71, "duration": 5, "velocity": 97}, {"time": 1042, "pitch": 69, "duration": 10, "velocity": 98}, {"time": 1054, "pitch": 72, "duration": 4, "velocity": 97}, {"time": 1060, "pitch": 71, "duration": 5, "velocity": 98}, {"time": 1066, "pitch": 69, "duration": 11, "velocity": 100}, {"time": 1078, "pitch": 76, "duration": 7, "velocity": 100}, {"time": 1087, "pitch": 74, "duration": 12, "velocity": 102}, {"time": 1102, "pitch": 72, "duration": 4, "velocity": 98}, {"time": 1108, "pitch": 74, "duration": 4, "velocity": 98}, {"time": 1114, "pitch": 76, "duration": 7, "velocity": 98}, {"time": 1120, "pitch": 74, "duration": 4, "velocity": 100}, {"time": 1126, "pitch": 72, "duration": 2, "velocity": 97}, {"time": 1129, "pitch": 74, "duration": 7, "velocity": 101}, {"time": 1138, "pitch": 76, "duration": 10, "velocity": 97}, {"time": 1150, "pitch": 74, "duration": 4, "velocity": 97}, {"time": 1156, "pitch": 72, "duration": 4, "velocity": 99}, {"time": 1162, "pitch": 69, "duration": 9, "velocity": 98}, {"time": 1171, "pitch": 69, "duration": 7, "velocity": 101}, {"time": 1180, "pitch": 76, "duration": 4, "velocity": 98}, {"time": 1186, "pitch": 74, "duration": 11, "velocity": 105}, {"time": 1198, "pitch": 72, "duration": 4, "velocity": 98}, {"time": 1204, "pitch": 74, "duration": 3, "velocity": 101}, {"time": 1210, "pitch": 76, "duration": 5, "velocity": 97}, {"time": 1216, "pitch": 79, "duration": 3, "velocity": 92}, {"time": 1222, "pitch": 74, "duration": 6, "velocity": 102}, {"time": 1228, "pitch": 72, "duration": 5, "velocity": 100}, {"time": 1234, "pitch": 69, "duration": 7, "velocity": 96}, {"time": 1246, "pitch": 69, "duration": 4, "velocity": 97}, {"time": 1252, "pitch": 67, "duration": 4, "velocity": 91}, {"time": 1258, "pitch": 65, "duration": 7, "velocity": 100}, {"time": 1267, "pitch": 69, "duration": 7, "velocity": 98}, {"time": 1276, "pitch": 72, "duration": 4, "velocity": 98}, {"time": 1282, "pitch": 71, "duration": 7, "velocity": 97}, {"time": 1291, "pitch": 69, "duration": 8, "velocity": 96}, {"time": 1300, "pitch": 67, "duration": 5, "velocity": 97}, {"time": 1306, "pitch": 69, "duration": 46, "velocity": 98}, {"time": 1504, "pitch": 67, "duration": 5, "velocity": 87}, {"time": 1510, "pitch": 72, "duration": 6, "velocity": 99}, {"time": 1516, "pitch": 67, "duration": 6, "velocity": 97}, {"time": 1522, "pitch": 74, "duration": 10, "velocity": 100}, {"time": 1534, "pitch": 72, "duration": 5, "velocity": 96}, {"time": 1540, "pitch": 69, "duration": 4, "velocity": 97}, {"time": 1546, "pitch": 76, "duration": 4, "velocity": 101}, {"time": 1552, "pitch": 74, "duration": 4, "velocity": 99}, {"time": 1558, "pitch": 72, "duration": 4, "velocity": 98}, {"time": 1564, "pitch": 69, "duration": 5, "velocity": 97}, {"time": 1570, "pitch": 67, "duration": 21, "velocity": 91}, {"time": 1594, "pitch": 72, "duration": 6, "velocity": 92}, {"time": 1603, "pitch": 74, "duration": 6, "velocity": 100}, {"time": 1612, "pitch": 72, "duration": 4, "velocity": 97}, {"time": 1618, "pitch": 71, "duration": 7, "velocity": 98}, {"time": 1627, "pitch": 69, "duration": 7, "velocity": 96}, {"time": 1636, "pitch": 67, "duration": 5, "velocity": 97}, {"time": 1642, "pitch": 69, "duration": 6, "velocity": 96}, {"time": 1648, "pitch": 67, "duration": 27, "velocity": 91}, {"time": 1696, "pitch": 67, "duration": 4, "velocity": 96}, {"time": 1702, "pitch": 72, "duration": 5, "velocity": 96}, {"time": 1708, "pitch": 67, "duration": 5, "velocity": 97}, {"time": 1714, "pitch": 74, "duration": 9, "velocity": 98}, {"time": 1726, "pitch": 72, "duration": 5, "velocity": 99}, {"time": 1732, "pitch": 79, "duration": 4, "velocity": 97}, {"time": 1738, "pitch": 76, "duration": 4, "velocity": 97}, {"time": 1744, "pitch": 74, "duration": 3, "velocity": 99}, {"time": 1750, "pitch": 72, "duration": 5, "velocity": 98}, {"time": 1756, "pitch": 69, "duration": 4, "velocity": 97}, {"time": 1762, "pitch": 67, "duration": 23, "velocity": 98}, {"time": 1786, "pitch": 72, "duration": 7, "velocity": 100}, {"time": 1795, "pitch": 74, "duration": 7, "velocity": 98}, {"time": 1804, "pitch": 72, "duration": 4, "velocity": 98}, {"time": 1810, "pitch": 71, "duration": 7, "velocity": 97}, {"time": 1819, "pitch": 69, "duration": 9, "velocity": 97}, {"time": 1828, "pitch": 67, "duration": 5, "velocity": 94}, {"time": 1834, "pitch": 69, "duration": 33, "velocity": 96}, {"time": 1870, "pitch": 69, "duration": 5, "velocity": 97}, {"time": 1876, "pitch": 67, "duration": 5, "velocity": 93}, {"time": 1882, "pitch": 65, "duration": 8, "velocity": 96}, {"time": 1891, "pitch": 72, "duration": 7, "velocity": 99}, {"time": 1900, "pitch": 65, "duration": 5, "velocity": 98}, {"time": 1906, "pitch": 72, "duration": 9, "velocity": 100}, {"time": 1918, "pitch": 74, "duration": 4, "velocity": 98}, {"time": 1924, "pitch": 76, "duration": 3, "velocity": 97}, {"time": 1930, "pitch": 71, "duration": 7, "velocity": 97}, {"time": 1939, "pitch": 69, "duration": 7, "velocity": 97}, {"time": 1948, "pitch": 69, "duration": 4, "velocity": 95}, {"time": 1954, "pitch": 67, "duration": 10, "velocity": 97}, {"time": 1966, "pitch": 69, "duration": 4, "velocity": 96}, {"time": 1972, "pitch": 67, "duration": 4, "velocity": 97}, {"time": 1978, "pitch": 65, "duration": 8, "velocity": 99}, {"time": 1987, "pitch": 72, "duration": 7, "velocity": 98}, {"time": 1996, "pitch": 65, "duration": 4, "velocity": 100}, {"time": 2002, "pitch": 72, "duration": 9, "velocity": 100}, {"time": 2011, "pitch": 72, "duration": 2, "velocity": 97}, {"time": 2014, "pitch": 74, "duration": 4, "velocity": 98}, {"time": 2020, "pitch": 76, "duration": 4, "velocity": 97}, {"time": 2026, "pitch": 71, "duration": 26, "velocity": 97}, {"time": 2062, "pitch": 74, "duration": 4, "velocity": 100}, {"time": 2068, "pitch": 72, "duration": 4, "velocity": 99}, {"time": 2074, "pitch": 69, "duration": 7, "velocity": 98}, {"time": 2083, "pitch": 69, "duration": 8, "velocity": 100}, {"time": 2092, "pitch": 76, "duration": 4, "velocity": 96}, {"time": 2098, "pitch": 74, "duration": 10, "velocity": 102}, {"time": 2110, "pitch": 72, "duration": 4, "velocity": 101}, {"time": 2116, "pitch": 74, "duration": 4, "velocity": 102}, {"time": 2122, "pitch": 76, "duration": 4, "velocity": 100}, {"time": 2128, "pitch": 74, "duration": 2, "velocity": 97}, {"time": 2131, "pitch": 72, "duration": 8, "velocity": 98}, {"time": 2140, "pitch": 71, "duration": 5, "velocity": 97}, {"time": 2146, "pitch": 69, "duration": 10, "velocity": 98}, {"time": 2158, "pitch": 72, "duration": 4, "velocity": 97}, {"time": 2164, "pitch": 71, "duration": 5, "velocity": 98}, {"time": 2170, "pitch": 69, "duration": 11, "velocity": 100}, {"time": 2182, "pitch": 76, "duration": 7, "velocity": 100}, {"time": 2191, "pitch": 74, "duration": 12, "velocity": 102}, {"time": 2206, "pitch": 72, "duration": 4, "velocity": 98}, {"time": 2212, "pitch": 74, "duration": 4, "velocity": 98}, {"time": 2218, "pitch": 76, "duration": 7, "velocity": 98}, {"time": 2224, "pitch": 74, "duration": 4, "velocity": 100}, {"time": 2230, "pitch": 72, "duration": 2, "velocity": 97}, {"time": 2233, "pitch": 74, "duration": 7, "velocity": 101}, {"time": 2242, "pitch": 76, "duration": 10, "velocity": 97}, {"time": 2254, "pitch": 74, "duration": 4, "velocity": 97}, {"time": 2260, "pitch": 72, "duration": 4, "velocity": 99}, {"time": 2266, "pitch": 69, "duration": 9, "velocity": 98}, {"time": 2275, "pitch": 69, "duration": 7, "velocity": 101}, {"time": 2284, "pitch": 76, "duration": 4, "velocity": 98}, {"time": 2290, "pitch": 74, "duration": 11, "velocity": 105}, {"time": 2302, "pitch": 72, "duration": 4, "velocity": 98}, {"time": 2308, "pitch": 74, "duration": 3, "velocity": 101}, {"time": 2314, "pitch": 76, "duration": 5, "velocity": 97}, {"time": 2320, "pitch": 79, "duration": 3, "velocity": 92}, {"time": 2326, "pitch": 74, "duration": 6, "velocity": 102}, {"time": 2332, "pitch": 72, "duration": 5, "velocity": 100}, {"time": 2338, "pitch": 69, "duration": 7, "velocity": 96}, {"time": 2350, "pitch": 69, "duration": 4, "velocity": 97}, {"time": 2356, "pitch": 67, "duration": 4, "velocity": 91}, {"time": 2362, "pitch": 65, "duration": 7, "velocity": 100}, {"time": 2371, "pitch": 69, "duration": 7, "velocity": 98}, {"time": 2380, "pitch": 72, "duration": 4, "velocity": 98}, {"time": 2386, "pitch": 71, "duration": 7, "velocity": 97}, {"time": 2395, "pitch": 69, "duration": 8, "velocity": 96}, {"time": 2404, "pitch": 67, "duration": 5, "velocity": 97}, {"time": 2410, "pitch": 69, "duration": 46, "velocity": 98}, {"time": 2782, "pitch": 74, "duration": 4, "velocity": 100}, {"time": 2788, "pitch": 72, "duration": 4, "velocity": 99}, {"time": 2794, "pitch": 69, "duration": 7, "velocity": 98}, {"time": 2803, "pitch": 69, "duration": 8, "velocity": 100}, {"time": 2812, "pitch": 76, "duration": 4, "velocity": 96}, {"time": 2818, "pitch": 74, "duration": 10, "velocity": 102}, {"time": 2830, "pitch": 72, "duration": 4, "velocity": 101}, {"time": 2836, "pitch": 74, "duration": 4, "velocity": 102}, {"time": 2842, "pitch": 76, "duration": 4, "velocity": 100}, {"time": 2848, "pitch": 74, "duration": 2, "velocity": 97}, {"time": 2851, "pitch": 72, "duration": 8, "velocity": 98}, {"time": 2860, "pitch": 71, "duration": 5, "velocity": 97}, {"time": 2866, "pitch": 69, "duration": 10, "velocity": 98}, {"time": 2878, "pitch": 72, "duration": 4, "velocity": 97}, {"time": 2884, "pitch": 71, "duration": 5, "velocity": 98}, {"time": 2890, "pitch": 69, "duration": 11, "velocity": 100}, {"time": 2902, "pitch": 76, "duration": 7, "velocity": 100}, {"time": 2911, "pitch": 74, "duration": 12, "velocity": 102}, {"time": 2926, "pitch": 72, "duration": 4, "velocity": 98}, {"time": 2932, "pitch": 74, "duration": 4, "velocity": 98}, {"time": 2938, "pitch": 76, "duration": 7, "velocity": 98}, {"time": 2944, "pitch": 74, "duration": 4, "velocity": 100}, {"time": 2950, "pitch": 72, "duration": 2, "velocity": 97}, {"time": 2953, "pitch": 74, "duration": 7, "velocity": 101}, {"time": 2962, "pitch": 76, "duration": 10, "velocity": 97}, {"time": 2974, "pitch": 74, "duration": 4, "velocity": 97}, {"time": 2980, "pitch": 72, "duration": 4, "velocity": 99}, {"time": 2986, "pitch": 69, "duration": 9, "velocity": 98}, {"time": 2995, "pitch": 69, "duration": 7, "velocity": 101}, {"time": 3004, "pitch": 76, "duration": 4, "velocity": 98}, {"time": 3010, "pitch": 74, "duration": 11, "velocity": 105}, {"time": 3022, "pitch": 72, "duration": 4, "velocity": 98}, {"time": 3028, "pitch": 74, "duration": 3, "velocity": 101}, {"time": 3034, "pitch": 76, "duration": 5, "velocity": 97}, {"time": 3040, "pitch": 79, "duration": 3, "velocity": 92}, {"time": 3046, "pitch": 74, "duration": 6, "velocity": 102}, {"time": 3052, "pitch": 72, "duration": 5, "velocity": 100}, {"time": 3058, "pitch": 69, "duration": 7, "velocity": 96}, {"time": 3070, "pitch": 69, "duration": 4, "velocity": 97}, {"time": 3076, "pitch": 67, "duration": 4, "velocity": 91}, {"time": 3082, "pitch": 65, "duration": 7, "velocity": 100}, {"time": 3091, "pitch": 69, "duration": 7, "velocity": 98}, {"time": 3100, "pitch": 72, "duration": 4, "velocity": 98}, {"time": 3106, "pitch": 71, "duration": 7, "velocity": 97}, {"time": 3115, "pitch": 69, "duration": 8, "velocity": 96}, {"time": 3124, "pitch": 67, "duration": 5, "velocity": 97}, {"time": 3130, "pitch": 69, "duration": 33, "velocity": 98}, {"time": 3166, "pitch": 74, "duration": 4, "velocity": 100}, {"time": 3172, "pitch": 72, "duration": 4, "velocity": 99}, {"time": 3178, "pitch": 69, "duration": 7, "velocity": 98}, {"time": 3187, "pitch": 69, "duration": 8, "velocity": 100}, {"time": 3196, "pitch": 76, "duration": 4, "velocity": 96}, {"time": 3202, "pitch": 74, "duration": 10, "velocity": 102}, {"time": 3214, "pitch": 72, "duration": 4, "velocity": 101}, {"time": 3220, "pitch": 74, "duration": 4, "velocity": 102}, {"time": 3226, "pitch": 76, "duration": 4, "velocity": 100}, {"time": 3232, "pitch": 74, "duration": 2, "velocity": 97}, {"time": 3235, "pitch": 72, "duration": 8, "velocity": 98}, {"time": 3244, "pitch": 71, "duration": 5, "velocity": 97}, {"time": 3250, "pitch": 69, "duration": 10, "velocity": 98}, {"time": 3262, "pitch": 72, "duration": 4, "velocity": 97}, {"time": 3268, "pitch": 71, "duration": 5, "velocity": 98}, {"time": 3274, "pitch": 69, "duration": 11, "velocity": 100}, {"time": 3286, "pitch": 76, "duration": 7, "velocity": 100}, {"time": 3295, "pitch": 74, "duration": 12, "velocity": 102}, {"time": 3310, "pitch": 72, "duration": 4, "velocity": 98}, {"time": 3316, "pitch": 74, "duration": 4, "velocity": 98}, {"time": 3322, "pitch": 76, "duration": 7, "velocity": 98}, {"time": 3328, "pitch": 74, "duration": 4, "velocity": 100}, {"time": 3334, "pitch": 72, "duration": 2, "velocity": 97}, {"time": 3337, "pitch": 74, "duration": 7, "velocity": 101}, {"time": 3346, "pitch": 76, "duration": 10, "velocity": 97}, {"time": 3358, "pitch": 74, "duration": 4, "velocity": 97}, {"time": 3364, "pitch": 72, "duration": 4, "velocity": 99}, {"time": 3370, "pitch": 69, "duration": 9, "velocity": 98}, {"time": 3379, "pitch": 69, "duration": 7, "velocity": 101}, {"time": 3388, "pitch": 76, "duration": 4, "velocity": 98}, {"time": 3394, "pitch": 74, "duration": 11, "velocity": 105}, {"time": 3406, "pitch": 72, "duration": 4, "velocity": 98}, {"time": 3412, "pitch": 74, "duration": 3, "velocity": 101}, {"time": 3418, "pitch": 76, "duration": 5, "velocity": 97}, {"time": 3424, "pitch": 79, "duration": 3, "velocity": 92}, {"time": 3430, "pitch": 81, "duration": 6, "velocity": 102}, {"time": 3436, "pitch": 79, "duration": 5, "velocity": 100}, {"time": 3442, "pitch": 72, "duration": 6, "velocity": 96}, {"time": 3448, "pitch": 69, "duration": 24, "velocity": 97}, {"time": 3479, "pitch": 69, "duration": 4, "velocity": 96}, {"time": 3485, "pitch": 67, "duration": 6, "velocity": 94}, {"time": 3493, "pitch": 65, "duration": 9, "velocity": 97}, {"time": 3504, "pitch": 69, "duration": 7, "velocity": 98}, {"time": 3512, "pitch": 72, "duration": 6, "velocity": 100}, {"time": 3520, "pitch": 71, "duration": 10, "velocity": 97}, {"time": 3530, "pitch": 69, "duration": 9, "velocity": 96}, {"time": 3539, "pitch": 67, "duration": 8, "velocity": 91}, {"time": 3546, "pitch": 69, "duration": 30, "velocity": 100}, {"time": 3577, "pitch": 69, "duration": 5, "velocity": 90}, {"time": 3582, "pitch": 67, "duration": 4, "velocity": 86}, {"time": 3588, "pitch": 65, "duration": 10, "velocity": 92}, {"time": 3598, "pitch": 69, "duration": 8, "velocity": 93}, {"time": 3606, "pitch": 72, "duration": 8, "velocity": 96}, {"time": 3613, "pitch": 74, "duration": 13, "velocity": 98}, {"time": 3625, "pitch": 71, "duration": 11, "velocity": 94}, {"time": 3636, "pitch": 67, "duration": 11, "velocity": 88}, {"time": 3647, "pitch": 69, "duration": 39, "velocity": 96}]}, {"program": 0, "is_drum": false, "name": "BRIDGE", "notes": [{"time": 16, "pitch": 65, "duration": 5, "velocity": 95}, {"time": 19, "pitch": 69, "duration": 7, "velocity": 95}, {"time": 25, "pitch": 76, "duration": 7, "velocity": 99}, {"time": 31, "pitch": 71, "duration": 4, "velocity": 97}, {"time": 40, "pitch": 67, "duration": 4, "velocity": 90}, {"time": 43, "pitch": 69, "duration": 7, "velocity": 92}, {"time": 49, "pitch": 76, "duration": 6, "velocity": 98}, {"time": 55, "pitch": 71, "duration": 8, "velocity": 96}, {"time": 64, "pitch": 64, "duration": 4, "velocity": 98}, {"time": 67, "pitch": 69, "duration": 5, "velocity": 92}, {"time": 67, "pitch": 72, "duration": 6, "velocity": 87}, {"time": 73, "pitch": 71, "duration": 5, "velocity": 93}, {"time": 73, "pitch": 74, "duration": 6, "velocity": 99}, {"time": 79, "pitch": 72, "duration": 8, "velocity": 90}, {"time": 79, "pitch": 76, "duration": 7, "velocity": 103}, {"time": 88, "pitch": 71, "duration": 4, "velocity": 96}, {"time": 88, "pitch": 74, "duration": 6, "velocity": 97}, {"time": 94, "pitch": 67, "duration": 4, "velocity": 84}, {"time": 94, "pitch": 71, "duration": 6, "velocity": 88}, {"time": 100, "pitch": 69, "duration": 5, "velocity": 88}, {"time": 100, "pitch": 72, "duration": 6, "velocity": 91}, {"time": 112, "pitch": 65, "duration": 5, "velocity": 95}, {"time": 115, "pitch": 69, "duration": 7, "velocity": 95}, {"time": 121, "pitch": 76, "duration": 7, "velocity": 99}, {"time": 127, "pitch": 71, "duration": 4, "velocity": 97}, {"time": 136, "pitch": 67, "duration": 4, "velocity": 90}, {"time": 139, "pitch": 72, "duration": 7, "velocity": 92}, {"time": 145, "pitch": 74, "duration": 6, "velocity": 98}, {"time": 151, "pitch": 76, "duration": 8, "velocity": 96}, {"time": 160, "pitch": 64, "duration": 3, "velocity": 98}, {"time": 163, "pitch": 76, "duration": 5, "velocity": 95}, {"time": 169, "pitch": 79, "duration": 6, "velocity": 97}, {"time": 178, "pitch": 80, "duration": 9, "velocity": 98}, {"time": 187, "pitch": 76, "duration": 8, "velocity": 96}, {"time": 187, "pitch": 81, "duration": 8, "velocity": 92}, {"time": 196, "pitch": 80, "duration": 5, "velocity": 92}, {"time": 196, "pitch": 83, "duration": 6, "velocity": 95}, {"time": 202, "pitch": 81, "duration": 11, "velocity": 96}, {"time": 202, "pitch": 84, "duration": 11, "velocity": 98}, {"time": 208, "pitch": 65, "duration": 5, "velocity": 95}, {"time": 211, "pitch": 69, "duration": 7, "velocity": 95}, {"time": 214, "pitch": 88, "duration": 12, "velocity": 98}, {"time": 217, "pitch": 76, "duration": 7, "velocity": 99}, {"time": 223, "pitch": 71, "duration": 4, "velocity": 97}, {"time": 226, "pitch": 86, "duration": 36, "velocity": 97}, {"time": 232, "pitch": 67, "duration": 4, "velocity": 90}, {"time": 235, "pitch": 72, "duration": 7, "velocity": 92}, {"time": 241, "pitch": 74, "duration": 6, "velocity": 98}, {"time": 247, "pitch": 76, "duration": 8, "velocity": 96}, {"time": 256, "pitch": 64, "duration": 3, "velocity": 98}, {"time": 259, "pitch": 76, "duration": 5, "velocity": 95}, {"time": 262, "pitch": 88, "duration": 12, "velocity": 97}, {"time": 265, "pitch": 79, "duration": 6, "velocity": 97}, {"time": 274, "pitch": 72, "duration": 4, "velocity": 91}, {"time": 274, "pitch": 76, "duration": 5, "velocity": 96}, {"time": 274, "pitch": 91, "duration": 13, "velocity": 102}, {"time": 280, "pitch": 71, "duration": 4, "velocity": 91}, {"time": 280, "pitch": 74, "duration": 4, "velocity": 94}, {"time": 286, "pitch": 67, "duration": 4, "velocity": 84}, {"time": 286, "pitch": 71, "duration": 4, "velocity": 88}, {"time": 286, "pitch": 93, "duration": 12, "velocity": 102}, {"time": 292, "pitch": 69, "duration": 6, "velocity": 88}, {"time": 292, "pitch": 72, "duration": 6, "velocity": 94}, {"time": 298, "pitch": 88, "duration": 24, "velocity": 110}, {"time": 304, "pitch": 65, "duration": 5, "velocity": 95}, {"time": 307, "pitch": 69, "duration": 7, "velocity": 95}, {"time": 313, "pitch": 76, "duration": 7, "velocity": 99}, {"time": 319, "pitch": 71, "duration": 6, "velocity": 97}, {"time": 322, "pitch": 86, "duration": 10, "velocity": 99}, {"time": 331, "pitch": 69, "duration": 5, "velocity": 89}, {"time": 331, "pitch": 72, "duration": 5, "velocity": 94}, {"time": 334, "pitch": 83, "duration": 11, "velocity": 97}, {"time": 337, "pitch": 64, "duration": 9, "velocity": 92}, {"time": 337, "pitch": 71, "duration": 9, "velocity": 91}, {"time": 346, "pitch": 69, "duration": 26, "velocity": 85}, {"time": 346, "pitch": 72, "duration": 26, "velocity": 90}, {"time": 346, "pitch": 76, "duration": 46, "velocity": 105}, {"time": 556, "pitch": 67, "duration": 5, "velocity": 94}, {"time": 562, "pitch": 64, "duration": 11, "velocity": 97}, {"time": 562, "pitch": 68, "duration": 10, "velocity": 98}, {"time": 574, "pitch": 71, "duration": 11, "velocity": 97}, {"time": 586, "pitch": 69, "duration": 21, "velocity": 90}, {"time": 730, "pitch": 74, "duration": 15, "velocity": 97}, {"time": 748, "pitch": 74, "duration": 5, "velocity": 100}, {"time": 754, "pitch": 72, "duration": 17, "velocity": 94}, {"time": 772, "pitch": 71, "duration": 6, "velocity": 90}, {"time": 778, "pitch": 69, "duration": 9, "velocity": 89}, {"time": 802, "pitch": 72, "duration": 19, "velocity": 89}, {"time": 826, "pitch": 71, "duration": 24, "velocity": 92}, {"time": 850, "pitch": 67, "duration": 11, "velocity": 93}, {"time": 862, "pitch": 72, "duration": 5, "velocity": 93}, {"time": 868, "pitch": 71, "duration": 5, "velocity": 96}, {"time": 874, "pitch": 69, "duration": 23, "velocity": 97}, {"time": 910, "pitch": 74, "duration": 6, "velocity": 99}, {"time": 916, "pitch": 72, "duration": 6, "velocity": 96}, {"time": 922, "pitch": 76, "duration": 30, "velocity": 102}, {"time": 970, "pitch": 69, "duration": 10, "velocity": 94}, {"time": 970, "pitch": 72, "duration": 10, "velocity": 97}, {"time": 982, "pitch": 72, "duration": 12, "velocity": 98}, {"time": 994, "pitch": 71, "duration": 12, "velocity": 91}, {"time": 1006, "pitch": 69, "duration": 7, "velocity": 96}, {"time": 1012, "pitch": 67, "duration": 5, "velocity": 96}, {"time": 1018, "pitch": 72, "duration": 12, "velocity": 96}, {"time": 1030, "pitch": 71, "duration": 11, "velocity": 96}, {"time": 1042, "pitch": 69, "duration": 10, "velocity": 89}, {"time": 1054, "pitch": 69, "duration": 8, "velocity": 89}, {"time": 1054, "pitch": 72, "duration": 9, "velocity": 96}, {"time": 1066, "pitch": 65, "duration": 12, "velocity": 92}, {"time": 1066, "pitch": 69, "duration": 11, "velocity": 97}, {"time": 1078, "pitch": 72, "duration": 10, "velocity": 99}, {"time": 1090, "pitch": 67, "duration": 20, "velocity": 89}, {"time": 1090, "pitch": 71, "duration": 18, "velocity": 97}, {"time": 1114, "pitch": 72, "duration": 19, "velocity": 93}, {"time": 1132, "pitch": 74, "duration": 6, "velocity": 100}, {"time": 1138, "pitch": 76, "duration": 20, "velocity": 98}, {"time": 1162, "pitch": 76, "duration": 22, "velocity": 91}, {"time": 1162, "pitch": 81, "duration": 22, "velocity": 94}, {"time": 1186, "pitch": 79, "duration": 22, "velocity": 93}, {"time": 1186, "pitch": 83, "duration": 22, "velocity": 96}, {"time": 1210, "pitch": 84, "duration": 10, "velocity": 97}, {"time": 1210, "pitch": 88, "duration": 11, "velocity": 97}, {"time": 1222, "pitch": 86, "duration": 12, "velocity": 96}, {"time": 1234, "pitch": 81, "duration": 10, "velocity": 85}, {"time": 1234, "pitch": 84, "duration": 12, "velocity": 91}, {"time": 1246, "pitch": 79, "duration": 9, "velocity": 89}, {"time": 1246, "pitch": 83, "duration": 11, "velocity": 87}, {"time": 1258, "pitch": 77, "duration": 21, "velocity": 85}, {"time": 1258, "pitch": 81, "duration": 22, "velocity": 86}, {"time": 1282, "pitch": 79, "duration": 21, "velocity": 90}, {"time": 1282, "pitch": 83, "duration": 22, "velocity": 95}, {"time": 1306, "pitch": 81, "duration": 11, "velocity": 96}, {"time": 1306, "pitch": 84, "duration": 11, "velocity": 98}, {"time": 1312, "pitch": 65, "duration": 5, "velocity": 95}, {"time": 1315, "pitch": 69, "duration": 7, "velocity": 95}, {"time": 1318, "pitch": 88, "duration": 12, "velocity": 98}, {"time": 1321, "pitch": 76, "duration": 7, "velocity": 99}, {"time": 1327, "pitch": 71, "duration": 4, "velocity": 97}, {"time": 1330, "pitch": 86, "duration": 36, "velocity": 97}, {"time": 1336, "pitch": 67, "duration": 4, "velocity": 90}, {"time": 1339, "pitch": 72, "duration": 7, "velocity": 92}, {"time": 1345, "pitch": 74, "duration": 6, "velocity": 98}, {"time": 1351, "pitch": 76, "duration": 8, "velocity": 96}, {"time": 1360, "pitch": 64, "duration": 3, "velocity": 98}, {"time": 1363, "pitch": 76, "duration": 5, "velocity": 95}, {"time": 1366, "pitch": 88, "duration": 12, "velocity": 97}, {"time": 1369, "pitch": 79, "duration": 6, "velocity": 97}, {"time": 1378, "pitch": 72, "duration": 4, "velocity": 91}, {"time": 1378, "pitch": 76, "duration": 5, "velocity": 96}, {"time": 1378, "pitch": 91, "duration": 13, "velocity": 102}, {"time": 1384, "pitch": 71, "duration": 4, "velocity": 91}, {"time": 1384, "pitch": 74, "duration": 4, "velocity": 94}, {"time": 1390, "pitch": 67, "duration": 4, "velocity": 84}, {"time": 1390, "pitch": 71, "duration": 4, "velocity": 88}, {"time": 1390, "pitch": 93, "duration": 12, "velocity": 102}, {"time": 1396, "pitch": 69, "duration": 6, "velocity": 88}, {"time": 1396, "pitch": 72, "duration": 6, "velocity": 94}, {"time": 1402, "pitch": 88, "duration": 24, "velocity": 110}, {"time": 1408, "pitch": 65, "duration": 5, "velocity": 95}, {"time": 1411, "pitch": 69, "duration": 7, "velocity": 95}, {"time": 1417, "pitch": 76, "duration": 7, "velocity": 99}, {"time": 1423, "pitch": 71, "duration": 6, "velocity": 97}, {"time": 1426, "pitch": 86, "duration": 10, "velocity": 99}, {"time": 1435, "pitch": 69, "duration": 5, "velocity": 89}, {"time": 1435, "pitch": 72, "duration": 5, "velocity": 94}, {"time": 1438, "pitch": 83, "duration": 11, "velocity": 97}, {"time": 1441, "pitch": 64, "duration": 9, "velocity": 92}, {"time": 1441, "pitch": 71, "duration": 9, "velocity": 91}, {"time": 1450, "pitch": 69, "duration": 26, "velocity": 85}, {"time": 1450, "pitch": 72, "duration": 26, "velocity": 90}, {"time": 1450, "pitch": 76, "duration": 46, "velocity": 105}, {"time": 1576, "pitch": 74, "duration": 6, "velocity": 98}, {"time": 1582, "pitch": 76, "duration": 5, "velocity": 102}, {"time": 1588, "pitch": 79, "duration": 4, "velocity": 101}, {"time": 1594, "pitch": 81, "duration": 22, "velocity": 98}, {"time": 1648, "pitch": 74, "duration": 5, "velocity": 100}, {"time": 1654, "pitch": 76, "duration": 4, "velocity": 98}, {"time": 1660, "pitch": 79, "duration": 4, "velocity": 102}, {"time": 1666, "pitch": 80, "duration": 7, "velocity": 102}, {"time": 1675, "pitch": 81, "duration": 8, "velocity": 97}, {"time": 1684, "pitch": 83, "duration": 5, "velocity": 100}, {"time": 1690, "pitch": 84, "duration": 23, "velocity": 103}, {"time": 1726, "pitch": 88, "duration": 12, "velocity": 97}, {"time": 1738, "pitch": 86, "duration": 23, "velocity": 103}, {"time": 1774, "pitch": 88, "duration": 12, "velocity": 103}, {"time": 1786, "pitch": 81, "duration": 23, "velocity": 100}, {"time": 1810, "pitch": 79, "duration": 23, "velocity": 98}, {"time": 1834, "pitch": 76, "duration": 24, "velocity": 98}, {"time": 1861, "pitch": 64, "duration": 3, "velocity": 88}, {"time": 1864, "pitch": 69, "duration": 3, "velocity": 93}, {"time": 1867, "pitch": 64, "duration": 4, "velocity": 98}, {"time": 1870, "pitch": 69, "duration": 3, "velocity": 92}, {"time": 1873, "pitch": 76, "duration": 2, "velocity": 100}, {"time": 1876, "pitch": 81, "duration": 2, "velocity": 92}, {"time": 1879, "pitch": 88, "duration": 2, "velocity": 98}, {"time": 1882, "pitch": 77, "duration": 6, "velocity": 87}, {"time": 1882, "pitch": 81, "duration": 6, "velocity": 92}, {"time": 1930, "pitch": 83, "duration": 25, "velocity": 96}, {"time": 1954, "pitch": 79, "duration": 12, "velocity": 97}, {"time": 1966, "pitch": 74, "duration": 7, "velocity": 98}, {"time": 1978, "pitch": 77, "duration": 24, "velocity": 88}, {"time": 1978, "pitch": 81, "duration": 24, "velocity": 84}, {"time": 2026, "pitch": 83, "duration": 5, "velocity": 107}, {"time": 2032, "pitch": 81, "duration": 2, "velocity": 98}, {"time": 2035, "pitch": 83, "duration": 2, "velocity": 100}, {"time": 2038, "pitch": 86, "duration": 5, "velocity": 103}, {"time": 2044, "pitch": 83, "duration": 2, "velocity": 102}, {"time": 2047, "pitch": 88, "duration": 6, "velocity": 110}, {"time": 2062, "pitch": 76, "duration": 3, "velocity": 112}, {"time": 2064, "pitch": 78, "duration": 3, "velocity": 107}, {"time": 2066, "pitch": 80, "duration": 2, "velocity": 98}, {"time": 2068, "pitch": 81, "duration": 2, "velocity": 90}, {"time": 2069, "pitch": 83, "duration": 3, "velocity": 99}, {"time": 2071, "pitch": 84, "duration": 2, "velocity": 89}, {"time": 2072, "pitch": 86, "duration": 2, "velocity": 92}, {"time": 2074, "pitch": 88, "duration": 18, "velocity": 105}, {"time": 2092, "pitch": 86, "duration": 6, "velocity": 97}, {"time": 2098, "pitch": 88, "duration": 11, "velocity": 97}, {"time": 2110, "pitch": 86, "duration": 12, "velocity": 97}, {"time": 2122, "pitch": 84, "duration": 10, "velocity": 97}, {"time": 2122, "pitch": 88, "duration": 10, "velocity": 97}, {"time": 2134, "pitch": 83, "duration": 10, "velocity": 89}, {"time": 2134, "pitch": 86, "duration": 10, "velocity": 97}, {"time": 2146, "pitch": 81, "duration": 18, "velocity": 91}, {"time": 2146, "pitch": 84, "duration": 18, "velocity": 97}, {"time": 2164, "pitch": 83, "duration": 6, "velocity": 91}, {"time": 2170, "pitch": 81, "duration": 22, "velocity": 92}, {"time": 2194, "pitch": 79, "duration": 21, "velocity": 86}, {"time": 2194, "pitch": 83, "duration": 21, "velocity": 95}, {"time": 2218, "pitch": 84, "duration": 18, "velocity": 98}, {"time": 2236, "pitch": 86, "duration": 4, "velocity": 96}, {"time": 2242, "pitch": 64, "duration": 5, "velocity": 90}, {"time": 2242, "pitch": 76, "duration": 5, "velocity": 96}, {"time": 2251, "pitch": 66, "duration": 7, "velocity": 83}, {"time": 2251, "pitch": 78, "duration": 7, "velocity": 86}, {"time": 2260, "pitch": 68, "duration": 4, "velocity": 89}, {"time": 2260, "pitch": 80, "duration": 5, "velocity": 86}, {"time": 2266, "pitch": 69, "duration": 15, "velocity": 88}, {"time": 2266, "pitch": 81, "duration": 18, "velocity": 90}, {"time": 2284, "pitch": 88, "duration": 6, "velocity": 91}, {"time": 2290, "pitch": 86, "duration": 22, "velocity": 97}, {"time": 2314, "pitch": 84, "duration": 16, "velocity": 90}, {"time": 2314, "pitch": 88, "duration": 16, "velocity": 97}, {"time": 2332, "pitch": 86, "duration": 5, "velocity": 97}, {"time": 2338, "pitch": 84, "duration": 22, "velocity": 99}, {"time": 2362, "pitch": 77, "duration": 18, "velocity": 90}, {"time": 2362, "pitch": 81, "duration": 19, "velocity": 92}, {"time": 2380, "pitch": 88, "duration": 6, "velocity": 102}, {"time": 2386, "pitch": 86, "duration": 13, "velocity": 96}, {"time": 2398, "pitch": 83, "duration": 10, "velocity": 93}, {"time": 2410, "pitch": 57, "duration": 22, "velocity": 107}, {"time": 2434, "pitch": 69, "duration": 12, "velocity": 107}, {"time": 2446, "pitch": 76, "duration": 12, "velocity": 113}, {"time": 2458, "pitch": 74, "duration": 17, "velocity": 125}, {"time": 2473, "pitch": 81, "duration": 4, "velocity": 110}, {"time": 2476, "pitch": 79, "duration": 2, "velocity": 101}, {"time": 2479, "pitch": 77, "duration": 2, "velocity": 101}, {"time": 2482, "pitch": 79, "duration": 3, "velocity": 107}, {"time": 2485, "pitch": 77, "duration": 3, "velocity": 105}, {"time": 2488, "pitch": 74, "duration": 10, "velocity": 113}, {"time": 2494, "pitch": 81, "duration": 9, "velocity": 101}, {"time": 2506, "pitch": 79, "duration": 12, "velocity": 105}, {"time": 2518, "pitch": 81, "duration": 3, "velocity": 107}, {"time": 2521, "pitch": 79, "duration": 2, "velocity": 91}, {"time": 2522, "pitch": 77, "duration": 2, "velocity": 96}, {"time": 2524, "pitch": 74, "duration": 3, "velocity": 99}, {"time": 2527, "pitch": 86, "duration": 25, "velocity": 100}, {"time": 2542, "pitch": 74, "duration": 10, "velocity": 113}, {"time": 2554, "pitch": 76, "duration": 23, "velocity": 103}, {"time": 2554, "pitch": 80, "duration": 7, "velocity": 105}, {"time": 2563, "pitch": 81, "duration": 7, "velocity": 103}, {"time": 2572, "pitch": 83, "duration": 5, "velocity": 98}, {"time": 2578, "pitch": 78, "duration": 12, "velocity": 99}, {"time": 2578, "pitch": 82, "duration": 9, "velocity": 98}, {"time": 2587, "pitch": 83, "duration": 11, "velocity": 98}, {"time": 2596, "pitch": 85, "duration": 5, "velocity": 105}, {"time": 2602, "pitch": 86, "duration": 12, "velocity": 103}, {"time": 2614, "pitch": 83, "duration": 3, "velocity": 112}, {"time": 2617, "pitch": 85, "duration": 2, "velocity": 100}, {"time": 2620, "pitch": 86, "duration": 1, "velocity": 102}, {"time": 2623, "pitch": 88, "duration": 9, "velocity": 112}, {"time": 2632, "pitch": 81, "duration": 11, "velocity": 96}, {"time": 2644, "pitch": 81, "duration": 5, "velocity": 98}, {"time": 2650, "pitch": 90, "duration": 11, "velocity": 112}, {"time": 2662, "pitch": 87, "duration": 3, "velocity": 98}, {"time": 2665, "pitch": 88, "duration": 3, "velocity": 107}, {"time": 2668, "pitch": 90, "duration": 3, "velocity": 103}, {"time": 2671, "pitch": 91, "duration": 19, "velocity": 103}, {"time": 2689, "pitch": 88, "duration": 2, "velocity": 110}, {"time": 2692, "pitch": 90, "duration": 2, "velocity": 101}, {"time": 2695, "pitch": 91, "duration": 13, "velocity": 110}, {"time": 2710, "pitch": 93, "duration": 5, "velocity": 105}, {"time": 2716, "pitch": 91, "duration": 2, "velocity": 107}, {"time": 2719, "pitch": 91, "duration": 6, "velocity": 102}, {"time": 2725, "pitch": 90, "duration": 6, "velocity": 103}, {"time": 2731, "pitch": 88, "duration": 2, "velocity": 100}, {"time": 2734, "pitch": 88, "duration": 11, "velocity": 105}, {"time": 2746, "pitch": 68, "duration": 1, "velocity": 102}, {"time": 2746, "pitch": 80, "duration": 2, "velocity": 101}, {"time": 2749, "pitch": 64, "duration": 1, "velocity": 102}, {"time": 2749, "pitch": 76, "duration": 2, "velocity": 100}, {"time": 2752, "pitch": 68, "duration": 3, "velocity": 94}, {"time": 2752, "pitch": 80, "duration": 5, "velocity": 107}, {"time": 2758, "pitch": 69, "duration": 2, "velocity": 98}, {"time": 2758, "pitch": 81, "duration": 2, "velocity": 98}, {"time": 2761, "pitch": 72, "duration": 2, "velocity": 91}, {"time": 2761, "pitch": 84, "duration": 2, "velocity": 98}, {"time": 2764, "pitch": 69, "duration": 1, "velocity": 96}, {"time": 2764, "pitch": 81, "duration": 2, "velocity": 96}, {"time": 2767, "pitch": 71, "duration": 23, "velocity": 110}, {"time": 2767, "pitch": 83, "duration": 23, "velocity": 100}, {"time": 2782, "pitch": 76, "duration": 3, "velocity": 112}, {"time": 2784, "pitch": 78, "duration": 3, "velocity": 107}, {"time": 2786, "pitch": 80, "duration": 2, "velocity": 98}, {"time": 2788, "pitch": 81, "duration": 2, "velocity": 90}, {"time": 2789, "pitch": 83, "duration": 1, "velocity": 99}, {"time": 2791, "pitch": 84, "duration": 2, "velocity": 89}, {"time": 2792, "pitch": 86, "duration": 2, "velocity": 92}, {"time": 2794, "pitch": 88, "duration": 18, "velocity": 105}, {"time": 2812, "pitch": 86, "duration": 6, "velocity": 97}, {"time": 2818, "pitch": 88, "duration": 11, "velocity": 97}, {"time": 2830, "pitch": 86, "duration": 12, "velocity": 97}, {"time": 2842, "pitch": 84, "duration": 10, "velocity": 97}, {"time": 2842, "pitch": 88, "duration": 10, "velocity": 97}, {"time": 2854, "pitch": 83, "duration": 10, "velocity": 89}, {"time": 2854, "pitch": 86, "duration": 10, "velocity": 97}, {"time": 2866, "pitch": 81, "duration": 18, "velocity": 91}, {"time": 2866, "pitch": 84, "duration": 18, "velocity": 97}, {"time": 2884, "pitch": 83, "duration": 6, "velocity": 91}, {"time": 2890, "pitch": 81, "duration": 22, "velocity": 92}, {"time": 2914, "pitch": 79, "duration": 21, "velocity": 86}, {"time": 2914, "pitch": 83, "duration": 21, "velocity": 95}, {"time": 2938, "pitch": 84, "duration": 18, "velocity": 98}, {"time": 2956, "pitch": 86, "duration": 4, "velocity": 96}, {"time": 2962, "pitch": 64, "duration": 5, "velocity": 90}, {"time": 2962, "pitch": 76, "duration": 5, "velocity": 96}, {"time": 2971, "pitch": 66, "duration": 7, "velocity": 83}, {"time": 2971, "pitch": 78, "duration": 7, "velocity": 86}, {"time": 2980, "pitch": 68, "duration": 4, "velocity": 89}, {"time": 2980, "pitch": 80, "duration": 5, "velocity": 86}, {"time": 2986, "pitch": 69, "duration": 15, "velocity": 88}, {"time": 2986, "pitch": 81, "duration": 18, "velocity": 90}, {"time": 3004, "pitch": 88, "duration": 6, "velocity": 91}, {"time": 3010, "pitch": 86, "duration": 22, "velocity": 97}, {"time": 3034, "pitch": 84, "duration": 16, "velocity": 90}, {"time": 3034, "pitch": 88, "duration": 16, "velocity": 97}, {"time": 3052, "pitch": 86, "duration": 5, "velocity": 97}, {"time": 3058, "pitch": 84, "duration": 22, "velocity": 99}, {"time": 3082, "pitch": 77, "duration": 18, "velocity": 90}, {"time": 3082, "pitch": 81, "duration": 19, "velocity": 92}, {"time": 3100, "pitch": 88, "duration": 6, "velocity": 102}, {"time": 3106, "pitch": 86, "duration": 13, "velocity": 96}, {"time": 3118, "pitch": 83, "duration": 10, "velocity": 93}, {"time": 3130, "pitch": 72, "duration": 7, "velocity": 101}, {"time": 3139, "pitch": 74, "duration": 7, "velocity": 103}, {"time": 3148, "pitch": 76, "duration": 8, "velocity": 98}, {"time": 3157, "pitch": 79, "duration": 7, "velocity": 100}, {"time": 3166, "pitch": 81, "duration": 4, "velocity": 100}, {"time": 3172, "pitch": 83, "duration": 4, "velocity": 100}, {"time": 3178, "pitch": 69, "duration": 10, "velocity": 94}, {"time": 3178, "pitch": 72, "duration": 10, "velocity": 97}, {"time": 3190, "pitch": 72, "duration": 12, "velocity": 98}, {"time": 3202, "pitch": 71, "duration": 12, "velocity": 91}, {"time": 3214, "pitch": 69, "duration": 7, "velocity": 96}, {"time": 3220, "pitch": 67, "duration": 5, "velocity": 96}, {"time": 3226, "pitch": 72, "duration": 12, "velocity": 96}, {"time": 3238, "pitch": 71, "duration": 11, "velocity": 96}, {"time": 3250, "pitch": 69, "duration": 10, "velocity": 89}, {"time": 3262, "pitch": 69, "duration": 8, "velocity": 89}, {"time": 3262, "pitch": 72, "duration": 9, "velocity": 96}, {"time": 3274, "pitch": 65, "duration": 12, "velocity": 92}, {"time": 3274, "pitch": 69, "duration": 11, "velocity": 97}, {"time": 3286, "pitch": 72, "duration": 10, "velocity": 99}, {"time": 3298, "pitch": 67, "duration": 20, "velocity": 89}, {"time": 3298, "pitch": 71, "duration": 18, "velocity": 97}, {"time": 3322, "pitch": 72, "duration": 19, "velocity": 93}, {"time": 3340, "pitch": 74, "duration": 6, "velocity": 100}, {"time": 3346, "pitch": 76, "duration": 20, "velocity": 98}, {"time": 3370, "pitch": 76, "duration": 22, "velocity": 91}, {"time": 3370, "pitch": 81, "duration": 22, "velocity": 94}, {"time": 3394, "pitch": 79, "duration": 22, "velocity": 93}, {"time": 3394, "pitch": 83, "duration": 22, "velocity": 96}, {"time": 3418, "pitch": 84, "duration": 10, "velocity": 97}, {"time": 3418, "pitch": 88, "duration": 11, "velocity": 97}, {"time": 3430, "pitch": 86, "duration": 12, "velocity": 96}, {"time": 3442, "pitch": 81, "duration": 10, "velocity": 85}, {"time": 3442, "pitch": 84, "duration": 12, "velocity": 91}, {"time": 3682, "pitch": 81, "duration": 11, "velocity": 96}, {"time": 3682, "pitch": 84, "duration": 11, "velocity": 98}, {"time": 3688, "pitch": 65, "duration": 5, "velocity": 95}, {"time": 3691, "pitch": 69, "duration": 7, "velocity": 95}, {"time": 3694, "pitch": 88, "duration": 12, "velocity": 98}, {"time": 3697, "pitch": 76, "duration": 7, "velocity": 99}, {"time": 3703, "pitch": 71, "duration": 4, "velocity": 97}, {"time": 3706, "pitch": 86, "duration": 36, "velocity": 97}, {"time": 3712, "pitch": 67, "duration": 4, "velocity": 90}, {"time": 3715, "pitch": 72, "duration": 7, "velocity": 92}, {"time": 3721, "pitch": 74, "duration": 6, "velocity": 98}, {"time": 3727, "pitch": 76, "duration": 8, "velocity": 96}, {"time": 3736, "pitch": 64, "duration": 3, "velocity": 98}, {"time": 3739, "pitch": 76, "duration": 5, "velocity": 95}, {"time": 3742, "pitch": 88, "duration": 12, "velocity": 97}, {"time": 3745, "pitch": 79, "duration": 6, "velocity": 97}, {"time": 3754, "pitch": 72, "duration": 4, "velocity": 91}, {"time": 3754, "pitch": 76, "duration": 5, "velocity": 96}, {"time": 3754, "pitch": 91, "duration": 13, "velocity": 102}, {"time": 3760, "pitch": 71, "duration": 4, "velocity": 91}, {"time": 3760, "pitch": 74, "duration": 4, "velocity": 94}, {"time": 3766, "pitch": 67, "duration": 4, "velocity": 84}, {"time": 3766, "pitch": 71, "duration": 4, "velocity": 88}, {"time": 3766, "pitch": 93, "duration": 12, "velocity": 102}, {"time": 3772, "pitch": 69, "duration": 6, "velocity": 88}, {"time": 3772, "pitch": 72, "duration": 6, "velocity": 94}, {"time": 3778, "pitch": 91, "duration": 66, "velocity": 110}]}, {"program": 0, "is_drum": false, "name": "PIANO", "notes": [{"time": 10, "pitch": 41, "duration": 22, "velocity": 94}, {"time": 13, "pitch": 48, "duration": 19, "velocity": 85}, {"time": 16, "pitch": 53, "duration": 18, "velocity": 88}, {"time": 19, "pitch": 57, "duration": 15, "velocity": 91}, {"time": 34, "pitch": 43, "duration": 21, "velocity": 92}, {"time": 37, "pitch": 50, "duration": 19, "velocity": 87}, {"time": 40, "pitch": 55, "duration": 16, "velocity": 90}, {"time": 43, "pitch": 62, "duration": 14, "velocity": 94}, {"time": 58, "pitch": 45, "duration": 21, "velocity": 95}, {"time": 61, "pitch": 52, "duration": 19, "velocity": 90}, {"time": 64, "pitch": 57, "duration": 21, "velocity": 89}, {"time": 67, "pitch": 64, "duration": 20, "velocity": 96}, {"time": 82, "pitch": 45, "duration": 10, "velocity": 95}, {"time": 85, "pitch": 52, "duration": 10, "velocity": 89}, {"time": 88, "pitch": 57, "duration": 7, "velocity": 90}, {"time": 91, "pitch": 64, "duration": 8, "velocity": 97}, {"time": 94, "pitch": 43, "duration": 10, "velocity": 96}, {"time": 97, "pitch": 52, "duration": 7, "velocity": 94}, {"time": 100, "pitch": 55, "duration": 5, "velocity": 95}, {"time": 103, "pitch": 64, "duration": 6, "velocity": 97}, {"time": 106, "pitch": 41, "duration": 22, "velocity": 95}, {"time": 109, "pitch": 48, "duration": 20, "velocity": 80}, {"time": 112, "pitch": 53, "duration": 18, "velocity": 89}, {"time": 115, "pitch": 60, "duration": 15, "velocity": 88}, {"time": 130, "pitch": 43, "duration": 22, "velocity": 92}, {"time": 133, "pitch": 50, "duration": 19, "velocity": 85}, {"time": 136, "pitch": 55, "duration": 17, "velocity": 92}, {"time": 139, "pitch": 62, "duration": 13, "velocity": 93}, {"time": 154, "pitch": 48, "duration": 21, "velocity": 96}, {"time": 157, "pitch": 52, "duration": 17, "velocity": 83}, {"time": 160, "pitch": 55, "duration": 18, "velocity": 90}, {"time": 163, "pitch": 60, "duration": 15, "velocity": 94}, {"time": 178, "pitch": 40, "duration": 22, "velocity": 97}, {"time": 181, "pitch": 47, "duration": 19, "velocity": 82}, {"time": 184, "pitch": 52, "duration": 18, "velocity": 96}, {"time": 187, "pitch": 56, "duration": 15, "velocity": 96}, {"time": 193, "pitch": 59, "duration": 10, "velocity": 92}, {"time": 202, "pitch": 41, "duration": 21, "velocity": 88}, {"time": 205, "pitch": 48, "duration": 19, "velocity": 92}, {"time": 208, "pitch": 53, "duration": 17, "velocity": 89}, {"time": 211, "pitch": 57, "duration": 15, "velocity": 94}, {"time": 217, "pitch": 60, "duration": 9, "velocity": 93}, {"time": 226, "pitch": 43, "duration": 21, "velocity": 87}, {"time": 229, "pitch": 50, "duration": 19, "velocity": 90}, {"time": 232, "pitch": 55, "duration": 17, "velocity": 91}, {"time": 235, "pitch": 59, "duration": 15, "velocity": 92}, {"time": 250, "pitch": 45, "duration": 22, "velocity": 96}, {"time": 253, "pitch": 52, "duration": 19, "velocity": 90}, {"time": 256, "pitch": 57, "duration": 21, "velocity": 86}, {"time": 259, "pitch": 60, "duration": 21, "velocity": 95}, {"time": 265, "pitch": 64, "duration": 15, "velocity": 94}, {"time": 274, "pitch": 45, "duration": 10, "velocity": 96}, {"time": 277, "pitch": 52, "duration": 10, "velocity": 90}, {"time": 280, "pitch": 57, "duration": 7, "velocity": 88}, {"time": 283, "pitch": 60, "duration": 9, "velocity": 97}, {"time": 286, "pitch": 43, "duration": 9, "velocity": 95}, {"time": 289, "pitch": 52, "duration": 7, "velocity": 90}, {"time": 292, "pitch": 55, "duration": 6, "velocity": 97}, {"time": 295, "pitch": 60, "duration": 3, "velocity": 95}, {"time": 298, "pitch": 38, "duration": 22, "velocity": 98}, {"time": 301, "pitch": 45, "duration": 19, "velocity": 85}, {"time": 304, "pitch": 50, "duration": 18, "velocity": 89}, {"time": 307, "pitch": 57, "duration": 15, "velocity": 91}, {"time": 313, "pitch": 62, "duration": 12, "velocity": 91}, {"time": 322, "pitch": 43, "duration": 22, "velocity": 96}, {"time": 325, "pitch": 50, "duration": 19, "velocity": 89}, {"time": 328, "pitch": 55, "duration": 17, "velocity": 88}, {"time": 331, "pitch": 62, "duration": 14, "velocity": 93}, {"time": 346, "pitch": 45, "duration": 22, "velocity": 96}, {"time": 349, "pitch": 52, "duration": 13, "velocity": 86}, {"time": 352, "pitch": 57, "duration": 13, "velocity": 86}, {"time": 355, "pitch": 62, "duration": 19, "velocity": 89}, {"time": 364, "pitch": 52, "duration": 4, "velocity": 86}, {"time": 367, "pitch": 57, "duration": 5, "velocity": 89}, {"time": 370, "pitch": 45, "duration": 23, "velocity": 98}, {"time": 373, "pitch": 52, "duration": 20, "velocity": 87}, {"time": 376, "pitch": 57, "duration": 17, "velocity": 88}, {"time": 379, "pitch": 60, "duration": 15, "velocity": 92}, {"time": 394, "pitch": 45, "duration": 16, "velocity": 97}, {"time": 394, "pitch": 57, "duration": 7, "velocity": 87}, {"time": 394, "pitch": 60, "duration": 10, "velocity": 90}, {"time": 400, "pitch": 52, "duration": 9, "velocity": 85}, {"time": 403, "pitch": 57, "duration": 7, "velocity": 92}, {"time": 409, "pitch": 60, "duration": 1, "velocity": 85}, {"time": 418, "pitch": 41, "duration": 16, "velocity": 96}, {"time": 418, "pitch": 53, "duration": 6, "velocity": 89}, {"time": 418, "pitch": 57, "duration": 9, "velocity": 90}, {"time": 424, "pitch": 48, "duration": 10, "velocity": 85}, {"time": 427, "pitch": 53, "duration": 7, "velocity": 91}, {"time": 433, "pitch": 57, "duration": 2, "velocity": 87}, {"time": 442, "pitch": 43, "duration": 18, "velocity": 97}, {"time": 442, "pitch": 55, "duration": 6, "velocity": 90}, {"time": 442, "pitch": 59, "duration": 9, "velocity": 90}, {"time": 448, "pitch": 50, "duration": 11, "velocity": 85}, {"time": 451, "pitch": 55, "duration": 7, "velocity": 98}, {"time": 457, "pitch": 59, "duration": 2, "velocity": 92}, {"time": 466, "pitch": 48, "duration": 5, "velocity": 92}, {"time": 466, "pitch": 55, "duration": 3, "velocity": 94}, {"time": 466, "pitch": 60, "duration": 7, "velocity": 93}, {"time": 472, "pitch": 55, "duration": 5, "velocity": 98}, {"time": 478, "pitch": 40, "duration": 6, "velocity": 97}, {"time": 478, "pitch": 64, "duration": 10, "velocity": 96}, {"time": 490, "pitch": 41, "duration": 18, "velocity": 96}, {"time": 490, "pitch": 53, "duration": 6, "velocity": 87}, {"time": 490, "pitch": 60, "duration": 10, "velocity": 92}, {"time": 496, "pitch": 48, "duration": 12, "velocity": 85}, {"time": 499, "pitch": 53, "duration": 7, "velocity": 98}, {"time": 505, "pitch": 57, "duration": 6, "velocity": 96}, {"time": 514, "pitch": 43, "duration": 22, "velocity": 96}, {"time": 514, "pitch": 55, "duration": 6, "velocity": 92}, {"time": 514, "pitch": 59, "duration": 8, "velocity": 94}, {"time": 520, "pitch": 50, "duration": 15, "velocity": 84}, {"time": 523, "pitch": 55, "duration": 6, "velocity": 100}, {"time": 529, "pitch": 59, "duration": 4, "velocity": 97}, {"time": 532, "pitch": 55, "duration": 4, "velocity": 94}, {"time": 538, "pitch": 48, "duration": 17, "velocity": 94}, {"time": 538, "pitch": 55, "duration": 6, "velocity": 92}, {"time": 538, "pitch": 60, "duration": 10, "velocity": 90}, {"time": 544, "pitch": 52, "duration": 11, "velocity": 84}, {"time": 547, "pitch": 55, "duration": 6, "velocity": 97}, {"time": 553, "pitch": 55, "duration": 1, "velocity": 97}, {"time": 553, "pitch": 60, "duration": 4, "velocity": 93}, {"time": 562, "pitch": 40, "duration": 6, "velocity": 98}, {"time": 562, "pitch": 52, "duration": 4, "velocity": 94}, {"time": 562, "pitch": 59, "duration": 5, "velocity": 94}, {"time": 574, "pitch": 44, "duration": 11, "velocity": 96}, {"time": 574, "pitch": 56, "duration": 11, "velocity": 89}, {"time": 574, "pitch": 59, "duration": 11, "velocity": 91}, {"time": 586, "pitch": 45, "duration": 16, "velocity": 97}, {"time": 586, "pitch": 57, "duration": 7, "velocity": 87}, {"time": 586, "pitch": 60, "duration": 10, "velocity": 90}, {"time": 592, "pitch": 52, "duration": 9, "velocity": 85}, {"time": 595, "pitch": 57, "duration": 7, "velocity": 92}, {"time": 601, "pitch": 60, "duration": 1, "velocity": 85}, {"time": 610, "pitch": 41, "duration": 16, "velocity": 96}, {"time": 610, "pitch": 53, "duration": 6, "velocity": 89}, {"time": 610, "pitch": 57, "duration": 9, "velocity": 90}, {"time": 616, "pitch": 48, "duration": 10, "velocity": 85}, {"time": 619, "pitch": 53, "duration": 7, "velocity": 91}, {"time": 625, "pitch": 57, "duration": 2, "velocity": 87}, {"time": 634, "pitch": 43, "duration": 18, "velocity": 97}, {"time": 634, "pitch": 55, "duration": 6, "velocity": 90}, {"time": 634, "pitch": 59, "duration": 9, "velocity": 90}, {"time": 640, "pitch": 50, "duration": 11, "velocity": 85}, {"time": 643, "pitch": 55, "duration": 7, "velocity": 98}, {"time": 649, "pitch": 59, "duration": 2, "velocity": 92}, {"time": 658, "pitch": 48, "duration": 5, "velocity": 92}, {"time": 658, "pitch": 55, "duration": 3, "velocity": 94}, {"time": 658, "pitch": 60, "duration": 7, "velocity": 93}, {"time": 664, "pitch": 55, "duration": 5, "velocity": 98}, {"time": 670, "pitch": 40, "duration": 6, "velocity": 97}, {"time": 670, "pitch": 64, "duration": 10, "velocity": 96}, {"time": 682, "pitch": 41, "duration": 18, "velocity": 96}, {"time": 682, "pitch": 53, "duration": 6, "velocity": 87}, {"time": 682, "pitch": 60, "duration": 10, "velocity": 92}, {"time": 688, "pitch": 48, "duration": 12, "velocity": 85}, {"time": 691, "pitch": 53, "duration": 7, "velocity": 98}, {"time": 697, "pitch": 57, "duration": 6, "velocity": 96}, {"time": 706, "pitch": 43, "duration": 22, "velocity": 96}, {"time": 706, "pitch": 55, "duration": 6, "velocity": 92}, {"time": 706, "pitch": 59, "duration": 8, "velocity": 94}, {"time": 712, "pitch": 50, "duration": 15, "velocity": 84}, {"time": 715, "pitch": 55, "duration": 6, "velocity": 100}, {"time": 721, "pitch": 59, "duration": 4, "velocity": 97}, {"time": 724, "pitch": 55, "duration": 4, "velocity": 94}, {"time": 730, "pitch": 45, "duration": 22, "velocity": 96}, {"time": 730, "pitch": 57, "duration": 6, "velocity": 94}, {"time": 730, "pitch": 62, "duration": 9, "velocity": 92}, {"time": 736, "pitch": 52, "duration": 11, "velocity": 89}, {"time": 739, "pitch": 57, "duration": 4, "velocity": 97}, {"time": 745, "pitch": 57, "duration": 5, "velocity": 93}, {"time": 745, "pitch": 62, "duration": 6, "velocity": 94}, {"time": 751, "pitch": 57, "duration": 2, "velocity": 97}, {"time": 754, "pitch": 45, "duration": 8, "velocity": 97}, {"time": 754, "pitch": 57, "duration": 7, "velocity": 97}, {"time": 754, "pitch": 60, "duration": 7, "velocity": 98}, {"time": 763, "pitch": 60, "duration": 2, "velocity": 66}, {"time": 766, "pitch": 43, "duration": 11, "velocity": 97}, {"time": 766, "pitch": 55, "duration": 11, "velocity": 96}, {"time": 766, "pitch": 59, "duration": 11, "velocity": 96}, {"time": 778, "pitch": 41, "duration": 45, "velocity": 98}, {"time": 778, "pitch": 53, "duration": 6, "velocity": 91}, {"time": 778, "pitch": 60, "duration": 10, "velocity": 96}, {"time": 784, "pitch": 48, "duration": 22, "velocity": 88}, {"time": 787, "pitch": 53, "duration": 5, "velocity": 97}, {"time": 793, "pitch": 57, "duration": 4, "velocity": 100}, {"time": 799, "pitch": 53, "duration": 2, "velocity": 90}, {"time": 802, "pitch": 53, "duration": 6, "velocity": 92}, {"time": 802, "pitch": 57, "duration": 6, "velocity": 96}, {"time": 802, "pitch": 60, "duration": 7, "velocity": 96}, {"time": 808, "pitch": 48, "duration": 16, "velocity": 82}, {"time": 811, "pitch": 53, "duration": 7, "velocity": 98}, {"time": 817, "pitch": 57, "duration": 5, "velocity": 97}, {"time": 823, "pitch": 53, "duration": 2, "velocity": 90}, {"time": 826, "pitch": 43, "duration": 22, "velocity": 96}, {"time": 826, "pitch": 55, "duration": 6, "velocity": 95}, {"time": 826, "pitch": 59, "duration": 9, "velocity": 96}, {"time": 832, "pitch": 50, "duration": 16, "velocity": 89}, {"time": 835, "pitch": 55, "duration": 4, "velocity": 101}, {"time": 841, "pitch": 55, "duration": 3, "velocity": 96}, {"time": 841, "pitch": 59, "duration": 5, "velocity": 96}, {"time": 841, "pitch": 62, "duration": 5, "velocity": 95}, {"time": 847, "pitch": 55, "duration": 2, "velocity": 96}, {"time": 850, "pitch": 43, "duration": 17, "velocity": 96}, {"time": 850, "pitch": 55, "duration": 7, "velocity": 89}, {"time": 850, "pitch": 62, "duration": 11, "velocity": 90}, {"time": 856, "pitch": 50, "duration": 10, "velocity": 84}, {"time": 859, "pitch": 55, "duration": 6, "velocity": 98}, {"time": 865, "pitch": 59, "duration": 4, "velocity": 98}, {"time": 871, "pitch": 55, "duration": 2, "velocity": 96}, {"time": 874, "pitch": 41, "duration": 22, "velocity": 96}, {"time": 874, "pitch": 53, "duration": 6, "velocity": 96}, {"time": 874, "pitch": 57, "duration": 8, "velocity": 98}, {"time": 880, "pitch": 48, "duration": 16, "velocity": 93}, {"time": 883, "pitch": 53, "duration": 7, "velocity": 98}, {"time": 889, "pitch": 57, "duration": 6, "velocity": 101}, {"time": 895, "pitch": 53, "duration": 2, "velocity": 93}, {"time": 898, "pitch": 38, "duration": 20, "velocity": 99}, {"time": 898, "pitch": 53, "duration": 6, "velocity": 89}, {"time": 898, "pitch": 57, "duration": 10, "velocity": 91}, {"time": 898, "pitch": 62, "duration": 10, "velocity": 95}, {"time": 904, "pitch": 45, "duration": 15, "velocity": 83}, {"time": 907, "pitch": 53, "duration": 7, "velocity": 98}, {"time": 913, "pitch": 57, "duration": 4, "velocity": 97}, {"time": 916, "pitch": 62, "duration": 5, "velocity": 97}, {"time": 922, "pitch": 40, "duration": 22, "velocity": 105}, {"time": 922, "pitch": 52, "duration": 6, "velocity": 96}, {"time": 922, "pitch": 59, "duration": 9, "velocity": 90}, {"time": 922, "pitch": 62, "duration": 1, "velocity": 81}, {"time": 928, "pitch": 47, "duration": 16, "velocity": 87}, {"time": 931, "pitch": 52, "duration": 4, "velocity": 102}, {"time": 937, "pitch": 52, "duration": 3, "velocity": 98}, {"time": 937, "pitch": 59, "duration": 7, "velocity": 97}, {"time": 943, "pitch": 52, "duration": 18, "velocity": 95}, {"time": 946, "pitch": 40, "duration": 24, "velocity": 102}, {"time": 946, "pitch": 56, "duration": 14, "velocity": 95}, {"time": 946, "pitch": 59, "duration": 15, "velocity": 97}, {"time": 946, "pitch": 64, "duration": 15, "velocity": 97}, {"time": 970, "pitch": 41, "duration": 22, "velocity": 97}, {"time": 970, "pitch": 57, "duration": 4, "velocity": 90}, {"time": 970, "pitch": 65, "duration": 9, "velocity": 96}, {"time": 976, "pitch": 57, "duration": 5, "velocity": 95}, {"time": 979, "pitch": 48, "duration": 13, "velocity": 91}, {"time": 985, "pitch": 60, "duration": 6, "velocity": 102}, {"time": 991, "pitch": 65, "duration": 7, "velocity": 97}, {"time": 994, "pitch": 43, "duration": 22, "velocity": 97}, {"time": 994, "pitch": 55, "duration": 5, "velocity": 93}, {"time": 994, "pitch": 59, "duration": 6, "velocity": 88}, {"time": 1000, "pitch": 50, "duration": 16, "velocity": 85}, {"time": 1003, "pitch": 55, "duration": 5, "velocity": 101}, {"time": 1009, "pitch": 59, "duration": 5, "velocity": 99}, {"time": 1009, "pitch": 62, "duration": 6, "velocity": 98}, {"time": 1015, "pitch": 55, "duration": 1, "velocity": 88}, {"time": 1018, "pitch": 45, "duration": 22, "velocity": 97}, {"time": 1018, "pitch": 57, "duration": 4, "velocity": 96}, {"time": 1018, "pitch": 60, "duration": 6, "velocity": 98}, {"time": 1024, "pitch": 52, "duration": 17, "velocity": 88}, {"time": 1027, "pitch": 57, "duration": 4, "velocity": 99}, {"time": 1027, "pitch": 64, "duration": 4, "velocity": 98}, {"time": 1033, "pitch": 57, "duration": 3, "velocity": 91}, {"time": 1033, "pitch": 60, "duration": 3, "velocity": 98}, {"time": 1039, "pitch": 57, "duration": 2, "velocity": 95}, {"time": 1042, "pitch": 45, "duration": 10, "velocity": 98}, {"time": 1042, "pitch": 57, "duration": 4, "velocity": 88}, {"time": 1042, "pitch": 60, "duration": 6, "velocity": 100}, {"time": 1042, "pitch": 64, "duration": 6, "velocity": 100}, {"time": 1042, "pitch": 69, "duration": 6, "velocity": 96}, {"time": 1048, "pitch": 52, "duration": 4, "velocity": 97}, {"time": 1051, "pitch": 57, "duration": 1, "velocity": 102}, {"time": 1054, "pitch": 43, "duration": 10, "velocity": 98}, {"time": 1054, "pitch": 55, "duration": 3, "velocity": 99}, {"time": 1054, "pitch": 59, "duration": 4, "velocity": 98}, {"time": 1057, "pitch": 50, "duration": 7, "velocity": 94}, {"time": 1060, "pitch": 55, "duration": 4, "velocity": 98}, {"time": 1063, "pitch": 59, "duration": 1, "velocity": 90}, {"time": 1066, "pitch": 41, "duration": 21, "velocity": 97}, {"time": 1066, "pitch": 53, "duration": 8, "velocity": 97}, {"time": 1066, "pitch": 57, "duration": 7, "velocity": 98}, {"time": 1072, "pitch": 48, "duration": 16, "velocity": 89}, {"time": 1075, "pitch": 53, "duration": 2, "velocity": 71}, {"time": 1075, "pitch": 57, "duration": 3, "velocity": 95}, {"time": 1075, "pitch": 60, "duration": 4, "velocity": 97}, {"time": 1081, "pitch": 53, "duration": 2, "velocity": 86}, {"time": 1081, "pitch": 57, "duration": 7, "velocity": 94}, {"time": 1081, "pitch": 60, "duration": 7, "velocity": 96}, {"time": 1081, "pitch": 65, "duration": 8, "velocity": 97}, {"time": 1087, "pitch": 53, "duration": 1, "velocity": 99}, {"time": 1090, "pitch": 43, "duration": 22, "velocity": 97}, {"time": 1090, "pitch": 55, "duration": 6, "velocity": 97}, {"time": 1090, "pitch": 59, "duration": 7, "velocity": 96}, {"time": 1096, "pitch": 50, "duration": 11, "velocity": 91}, {"time": 1099, "pitch": 55, "duration": 4, "velocity": 93}, {"time": 1099, "pitch": 59, "duration": 5, "velocity": 96}, {"time": 1099, "pitch": 62, "duration": 5, "velocity": 94}, {"time": 1105, "pitch": 55, "duration": 3, "velocity": 103}, {"time": 1105, "pitch": 62, "duration": 1, "velocity": 79}, {"time": 1108, "pitch": 50, "duration": 4, "velocity": 98}, {"time": 1114, "pitch": 48, "duration": 17, "velocity": 107}, {"time": 1114, "pitch": 55, "duration": 4, "velocity": 98}, {"time": 1114, "pitch": 60, "duration": 7, "velocity": 97}, {"time": 1120, "pitch": 52, "duration": 11, "velocity": 96}, {"time": 1123, "pitch": 55, "duration": 3, "velocity": 101}, {"time": 1123, "pitch": 60, "duration": 6, "velocity": 101}, {"time": 1123, "pitch": 64, "duration": 7, "velocity": 102}, {"time": 1129, "pitch": 55, "duration": 4, "velocity": 101}, {"time": 1132, "pitch": 60, "duration": 1, "velocity": 99}, {"time": 1138, "pitch": 40, "duration": 7, "velocity": 102}, {"time": 1138, "pitch": 52, "duration": 5, "velocity": 98}, {"time": 1138, "pitch": 64, "duration": 7, "velocity": 98}, {"time": 1138, "pitch": 68, "duration": 8, "velocity": 100}, {"time": 1147, "pitch": 42, "duration": 8, "velocity": 103}, {"time": 1147, "pitch": 54, "duration": 9, "velocity": 90}, {"time": 1147, "pitch": 69, "duration": 8, "velocity": 100}, {"time": 1156, "pitch": 44, "duration": 6, "velocity": 107}, {"time": 1156, "pitch": 56, "duration": 5, "velocity": 97}, {"time": 1156, "pitch": 71, "duration": 5, "velocity": 99}, {"time": 1162, "pitch": 41, "duration": 22, "velocity": 97}, {"time": 1162, "pitch": 57, "duration": 4, "velocity": 90}, {"time": 1162, "pitch": 65, "duration": 9, "velocity": 96}, {"time": 1168, "pitch": 57, "duration": 5, "velocity": 95}, {"time": 1171, "pitch": 48, "duration": 13, "velocity": 91}, {"time": 1177, "pitch": 60, "duration": 6, "velocity": 102}, {"time": 1183, "pitch": 65, "duration": 7, "velocity": 97}, {"time": 1186, "pitch": 43, "duration": 22, "velocity": 97}, {"time": 1186, "pitch": 55, "duration": 5, "velocity": 93}, {"time": 1186, "pitch": 59, "duration": 6, "velocity": 88}, {"time": 1192, "pitch": 50, "duration": 16, "velocity": 85}, {"time": 1195, "pitch": 55, "duration": 5, "velocity": 101}, {"time": 1201, "pitch": 59, "duration": 5, "velocity": 99}, {"time": 1201, "pitch": 62, "duration": 6, "velocity": 98}, {"time": 1207, "pitch": 55, "duration": 1, "velocity": 88}, {"time": 1210, "pitch": 45, "duration": 22, "velocity": 97}, {"time": 1210, "pitch": 57, "duration": 4, "velocity": 96}, {"time": 1210, "pitch": 60, "duration": 6, "velocity": 98}, {"time": 1216, "pitch": 52, "duration": 17, "velocity": 88}, {"time": 1219, "pitch": 57, "duration": 4, "velocity": 99}, {"time": 1219, "pitch": 64, "duration": 4, "velocity": 98}, {"time": 1225, "pitch": 57, "duration": 3, "velocity": 91}, {"time": 1225, "pitch": 60, "duration": 3, "velocity": 98}, {"time": 1231, "pitch": 57, "duration": 2, "velocity": 95}, {"time": 1234, "pitch": 45, "duration": 10, "velocity": 98}, {"time": 1234, "pitch": 57, "duration": 4, "velocity": 88}, {"time": 1234, "pitch": 60, "duration": 6, "velocity": 100}, {"time": 1234, "pitch": 64, "duration": 6, "velocity": 100}, {"time": 1234, "pitch": 69, "duration": 6, "velocity": 96}, {"time": 1240, "pitch": 52, "duration": 4, "velocity": 97}, {"time": 1243, "pitch": 57, "duration": 1, "velocity": 102}, {"time": 1246, "pitch": 43, "duration": 10, "velocity": 98}, {"time": 1246, "pitch": 55, "duration": 3, "velocity": 99}, {"time": 1246, "pitch": 59, "duration": 4, "velocity": 98}, {"time": 1249, "pitch": 50, "duration": 7, "velocity": 94}, {"time": 1252, "pitch": 55, "duration": 4, "velocity": 98}, {"time": 1255, "pitch": 59, "duration": 1, "velocity": 90}, {"time": 1258, "pitch": 41, "duration": 21, "velocity": 97}, {"time": 1258, "pitch": 53, "duration": 8, "velocity": 97}, {"time": 1258, "pitch": 57, "duration": 7, "velocity": 98}, {"time": 1264, "pitch": 48, "duration": 16, "velocity": 89}, {"time": 1267, "pitch": 53, "duration": 2, "velocity": 71}, {"time": 1267, "pitch": 57, "duration": 3, "velocity": 95}, {"time": 1267, "pitch": 60, "duration": 4, "velocity": 97}, {"time": 1273, "pitch": 53, "duration": 2, "velocity": 86}, {"time": 1273, "pitch": 57, "duration": 7, "velocity": 94}, {"time": 1273, "pitch": 60, "duration": 7, "velocity": 96}, {"time": 1273, "pitch": 65, "duration": 8, "velocity": 97}, {"time": 1279, "pitch": 53, "duration": 1, "velocity": 99}, {"time": 1282, "pitch": 43, "duration": 22, "velocity": 97}, {"time": 1282, "pitch": 55, "duration": 6, "velocity": 97}, {"time": 1282, "pitch": 59, "duration": 7, "velocity": 96}, {"time": 1288, "pitch": 50, "duration": 11, "velocity": 91}, {"time": 1291, "pitch": 55, "duration": 4, "velocity": 93}, {"time": 1291, "pitch": 59, "duration": 5, "velocity": 96}, {"time": 1291, "pitch": 62, "duration": 5, "velocity": 94}, {"time": 1297, "pitch": 55, "duration": 3, "velocity": 103}, {"time": 1297, "pitch": 62, "duration": 1, "velocity": 79}, {"time": 1300, "pitch": 50, "duration": 4, "velocity": 98}, {"time": 1306, "pitch": 41, "duration": 21, "velocity": 88}, {"time": 1309, "pitch": 48, "duration": 19, "velocity": 92}, {"time": 1312, "pitch": 53, "duration": 17, "velocity": 89}, {"time": 1315, "pitch": 57, "duration": 15, "velocity": 94}, {"time": 1321, "pitch": 60, "duration": 9, "velocity": 93}, {"time": 1330, "pitch": 43, "duration": 21, "velocity": 87}, {"time": 1333, "pitch": 50, "duration": 19, "velocity": 90}, {"time": 1336, "pitch": 55, "duration": 17, "velocity": 91}, {"time": 1339, "pitch": 59, "duration": 15, "velocity": 92}, {"time": 1354, "pitch": 45, "duration": 22, "velocity": 96}, {"time": 1357, "pitch": 52, "duration": 19, "velocity": 90}, {"time": 1360, "pitch": 57, "duration": 21, "velocity": 86}, {"time": 1363, "pitch": 60, "duration": 21, "velocity": 95}, {"time": 1369, "pitch": 64, "duration": 15, "velocity": 94}, {"time": 1378, "pitch": 45, "duration": 10, "velocity": 96}, {"time": 1381, "pitch": 52, "duration": 10, "velocity": 90}, {"time": 1384, "pitch": 57, "duration": 7, "velocity": 88}, {"time": 1387, "pitch": 60, "duration": 9, "velocity": 97}, {"time": 1390, "pitch": 43, "duration": 9, "velocity": 95}, {"time": 1393, "pitch": 52, "duration": 7, "velocity": 90}, {"time": 1396, "pitch": 55, "duration": 6, "velocity": 97}, {"time": 1399, "pitch": 60, "duration": 3, "velocity": 95}, {"time": 1402, "pitch": 38, "duration": 22, "velocity": 98}, {"time": 1405, "pitch": 45, "duration": 19, "velocity": 85}, {"time": 1408, "pitch": 50, "duration": 18, "velocity": 89}, {"time": 1411, "pitch": 57, "duration": 15, "velocity": 91}, {"time": 1417, "pitch": 62, "duration": 12, "velocity": 91}, {"time": 1426, "pitch": 43, "duration": 22, "velocity": 96}, {"time": 1429, "pitch": 50, "duration": 19, "velocity": 89}, {"time": 1432, "pitch": 55, "duration": 17, "velocity": 88}, {"time": 1435, "pitch": 62, "duration": 14, "velocity": 93}, {"time": 1450, "pitch": 45, "duration": 22, "velocity": 96}, {"time": 1453, "pitch": 52, "duration": 13, "velocity": 86}, {"time": 1456, "pitch": 57, "duration": 13, "velocity": 86}, {"time": 1459, "pitch": 62, "duration": 19, "velocity": 89}, {"time": 1468, "pitch": 52, "duration": 4, "velocity": 86}, {"time": 1471, "pitch": 57, "duration": 5, "velocity": 89}, {"time": 1474, "pitch": 45, "duration": 23, "velocity": 98}, {"time": 1477, "pitch": 52, "duration": 20, "velocity": 87}, {"time": 1480, "pitch": 57, "duration": 17, "velocity": 88}, {"time": 1483, "pitch": 60, "duration": 15, "velocity": 92}, {"time": 1498, "pitch": 45, "duration": 16, "velocity": 97}, {"time": 1498, "pitch": 57, "duration": 7, "velocity": 87}, {"time": 1498, "pitch": 60, "duration": 10, "velocity": 90}, {"time": 1504, "pitch": 52, "duration": 9, "velocity": 85}, {"time": 1507, "pitch": 57, "duration": 7, "velocity": 92}, {"time": 1513, "pitch": 60, "duration": 1, "velocity": 85}, {"time": 1522, "pitch": 41, "duration": 16, "velocity": 96}, {"time": 1522, "pitch": 53, "duration": 6, "velocity": 89}, {"time": 1522, "pitch": 57, "duration": 9, "velocity": 90}, {"time": 1528, "pitch": 48, "duration": 10, "velocity": 85}, {"time": 1531, "pitch": 53, "duration": 7, "velocity": 91}, {"time": 1537, "pitch": 57, "duration": 2, "velocity": 87}, {"time": 1546, "pitch": 43, "duration": 18, "velocity": 97}, {"time": 1546, "pitch": 55, "duration": 6, "velocity": 90}, {"time": 1546, "pitch": 59, "duration": 9, "velocity": 90}, {"time": 1552, "pitch": 50, "duration": 11, "velocity": 85}, {"time": 1555, "pitch": 55, "duration": 7, "velocity": 98}, {"time": 1561, "pitch": 59, "duration": 2, "velocity": 92}, {"time": 1570, "pitch": 48, "duration": 5, "velocity": 92}, {"time": 1570, "pitch": 55, "duration": 3, "velocity": 94}, {"time": 1570, "pitch": 60, "duration": 7, "velocity": 93}, {"time": 1576, "pitch": 55, "duration": 5, "velocity": 98}, {"time": 1582, "pitch": 40, "duration": 6, "velocity": 97}, {"time": 1582, "pitch": 64, "duration": 10, "velocity": 96}, {"time": 1594, "pitch": 41, "duration": 18, "velocity": 96}, {"time": 1594, "pitch": 53, "duration": 6, "velocity": 87}, {"time": 1594, "pitch": 60, "duration": 10, "velocity": 92}, {"time": 1600, "pitch": 48, "duration": 12, "velocity": 85}, {"time": 1603, "pitch": 53, "duration": 7, "velocity": 98}, {"time": 1609, "pitch": 57, "duration": 6, "velocity": 96}, {"time": 1618, "pitch": 43, "duration": 22, "velocity": 96}, {"time": 1618, "pitch": 55, "duration": 6, "velocity": 92}, {"time": 1618, "pitch": 59, "duration": 8, "velocity": 94}, {"time": 1624, "pitch": 50, "duration": 15, "velocity": 84}, {"time": 1627, "pitch": 55, "duration": 6, "velocity": 100}, {"time": 1633, "pitch": 59, "duration": 4, "velocity": 97}, {"time": 1636, "pitch": 55, "duration": 4, "velocity": 94}, {"time": 1642, "pitch": 48, "duration": 17, "velocity": 94}, {"time": 1642, "pitch": 55, "duration": 6, "velocity": 92}, {"time": 1642, "pitch": 60, "duration": 10, "velocity": 90}, {"time": 1648, "pitch": 52, "duration": 11, "velocity": 84}, {"time": 1651, "pitch": 55, "duration": 6, "velocity": 97}, {"time": 1657, "pitch": 55, "duration": 1, "velocity": 97}, {"time": 1657, "pitch": 60, "duration": 4, "velocity": 93}, {"time": 1666, "pitch": 40, "duration": 6, "velocity": 98}, {"time": 1666, "pitch": 52, "duration": 4, "velocity": 94}, {"time": 1666, "pitch": 59, "duration": 5, "velocity": 94}, {"time": 1678, "pitch": 44, "duration": 11, "velocity": 96}, {"time": 1678, "pitch": 56, "duration": 11, "velocity": 89}, {"time": 1678, "pitch": 59, "duration": 11, "velocity": 91}, {"time": 1690, "pitch": 45, "duration": 16, "velocity": 97}, {"time": 1690, "pitch": 57, "duration": 7, "velocity": 87}, {"time": 1690, "pitch": 60, "duration": 10, "velocity": 90}, {"time": 1696, "pitch": 52, "duration": 9, "velocity": 85}, {"time": 1699, "pitch": 57, "duration": 7, "velocity": 92}, {"time": 1705, "pitch": 60, "duration": 1, "velocity": 85}, {"time": 1714, "pitch": 41, "duration": 16, "velocity": 96}, {"time": 1714, "pitch": 53, "duration": 6, "velocity": 89}, {"time": 1714, "pitch": 57, "duration": 9, "velocity": 90}, {"time": 1720, "pitch": 48, "duration": 10, "velocity": 85}, {"time": 1723, "pitch": 53, "duration": 7, "velocity": 91}, {"time": 1729, "pitch": 57, "duration": 2, "velocity": 87}, {"time": 1738, "pitch": 43, "duration": 18, "velocity": 97}, {"time": 1738, "pitch": 55, "duration": 6, "velocity": 90}, {"time": 1738, "pitch": 59, "duration": 9, "velocity": 90}, {"time": 1744, "pitch": 50, "duration": 11, "velocity": 85}, {"time": 1747, "pitch": 55, "duration": 7, "velocity": 98}, {"time": 1753, "pitch": 59, "duration": 2, "velocity": 92}, {"time": 1762, "pitch": 48, "duration": 5, "velocity": 92}, {"time": 1762, "pitch": 55, "duration": 3, "velocity": 94}, {"time": 1762, "pitch": 60, "duration": 7, "velocity": 93}, {"time": 1768, "pitch": 55, "duration": 5, "velocity": 98}, {"time": 1774, "pitch": 40, "duration": 6, "velocity": 97}, {"time": 1774, "pitch": 64, "duration": 10, "velocity": 96}, {"time": 1786, "pitch": 41, "duration": 18, "velocity": 96}, {"time": 1786, "pitch": 53, "duration": 6, "velocity": 87}, {"time": 1786, "pitch": 60, "duration": 10, "velocity": 92}, {"time": 1792, "pitch": 48, "duration": 12, "velocity": 85}, {"time": 1795, "pitch": 53, "duration": 7, "velocity": 98}, {"time": 1801, "pitch": 57, "duration": 6, "velocity": 96}, {"time": 1810, "pitch": 43, "duration": 22, "velocity": 96}, {"time": 1810, "pitch": 55, "duration": 6, "velocity": 92}, {"time": 1810, "pitch": 59, "duration": 8, "velocity": 94}, {"time": 1816, "pitch": 50, "duration": 15, "velocity": 84}, {"time": 1819, "pitch": 55, "duration": 6, "velocity": 100}, {"time": 1825, "pitch": 59, "duration": 4, "velocity": 97}, {"time": 1828, "pitch": 55, "duration": 4, "velocity": 94}, {"time": 1834, "pitch": 45, "duration": 22, "velocity": 96}, {"time": 1834, "pitch": 57, "duration": 6, "velocity": 94}, {"time": 1834, "pitch": 62, "duration": 9, "velocity": 92}, {"time": 1840, "pitch": 52, "duration": 11, "velocity": 89}, {"time": 1843, "pitch": 57, "duration": 4, "velocity": 97}, {"time": 1849, "pitch": 57, "duration": 5, "velocity": 93}, {"time": 1849, "pitch": 62, "duration": 6, "velocity": 94}, {"time": 1855, "pitch": 57, "duration": 2, "velocity": 97}, {"time": 1858, "pitch": 45, "duration": 8, "velocity": 97}, {"time": 1858, "pitch": 57, "duration": 7, "velocity": 97}, {"time": 1858, "pitch": 60, "duration": 7, "velocity": 98}, {"time": 1867, "pitch": 60, "duration": 2, "velocity": 66}, {"time": 1870, "pitch": 43, "duration": 11, "velocity": 97}, {"time": 1870, "pitch": 55, "duration": 11, "velocity": 96}, {"time": 1870, "pitch": 59, "duration": 11, "velocity": 96}, {"time": 1882, "pitch": 41, "duration": 45, "velocity": 98}, {"time": 1882, "pitch": 53, "duration": 6, "velocity": 91}, {"time": 1882, "pitch": 60, "duration": 10, "velocity": 96}, {"time": 1888, "pitch": 48, "duration": 22, "velocity": 88}, {"time": 1891, "pitch": 53, "duration": 5, "velocity": 97}, {"time": 1897, "pitch": 57, "duration": 4, "velocity": 100}, {"time": 1903, "pitch": 53, "duration": 2, "velocity": 90}, {"time": 1906, "pitch": 53, "duration": 6, "velocity": 92}, {"time": 1906, "pitch": 57, "duration": 6, "velocity": 96}, {"time": 1906, "pitch": 60, "duration": 7, "velocity": 96}, {"time": 1912, "pitch": 48, "duration": 16, "velocity": 82}, {"time": 1915, "pitch": 53, "duration": 7, "velocity": 98}, {"time": 1921, "pitch": 57, "duration": 5, "velocity": 97}, {"time": 1927, "pitch": 53, "duration": 2, "velocity": 90}, {"time": 1930, "pitch": 43, "duration": 22, "velocity": 96}, {"time": 1930, "pitch": 55, "duration": 6, "velocity": 95}, {"time": 1930, "pitch": 59, "duration": 9, "velocity": 96}, {"time": 1936, "pitch": 50, "duration": 16, "velocity": 89}, {"time": 1939, "pitch": 55, "duration": 4, "velocity": 101}, {"time": 1945, "pitch": 55, "duration": 3, "velocity": 96}, {"time": 1945, "pitch": 59, "duration": 5, "velocity": 96}, {"time": 1945, "pitch": 62, "duration": 5, "velocity": 95}, {"time": 1951, "pitch": 55, "duration": 2, "velocity": 96}, {"time": 1954, "pitch": 43, "duration": 17, "velocity": 96}, {"time": 1954, "pitch": 55, "duration": 7, "velocity": 89}, {"time": 1954, "pitch": 62, "duration": 11, "velocity": 90}, {"time": 1960, "pitch": 50, "duration": 10, "velocity": 84}, {"time": 1963, "pitch": 55, "duration": 6, "velocity": 98}, {"time": 1969, "pitch": 59, "duration": 4, "velocity": 98}, {"time": 1975, "pitch": 55, "duration": 2, "velocity": 96}, {"time": 1978, "pitch": 41, "duration": 22, "velocity": 96}, {"time": 1978, "pitch": 53, "duration": 6, "velocity": 96}, {"time": 1978, "pitch": 57, "duration": 8, "velocity": 98}, {"time": 1984, "pitch": 48, "duration": 16, "velocity": 93}, {"time": 1987, "pitch": 53, "duration": 7, "velocity": 98}, {"time": 1993, "pitch": 57, "duration": 6, "velocity": 101}, {"time": 1999, "pitch": 53, "duration": 2, "velocity": 93}, {"time": 2002, "pitch": 38, "duration": 20, "velocity": 99}, {"time": 2002, "pitch": 53, "duration": 6, "velocity": 89}, {"time": 2002, "pitch": 57, "duration": 10, "velocity": 91}, {"time": 2002, "pitch": 62, "duration": 10, "velocity": 95}, {"time": 2008, "pitch": 45, "duration": 15, "velocity": 83}, {"time": 2011, "pitch": 53, "duration": 7, "velocity": 98}, {"time": 2017, "pitch": 57, "duration": 4, "velocity": 97}, {"time": 2020, "pitch": 62, "duration": 5, "velocity": 97}, {"time": 2026, "pitch": 40, "duration": 22, "velocity": 105}, {"time": 2026, "pitch": 52, "duration": 6, "velocity": 96}, {"time": 2026, "pitch": 59, "duration": 9, "velocity": 90}, {"time": 2026, "pitch": 62, "duration": 1, "velocity": 81}, {"time": 2032, "pitch": 47, "duration": 16, "velocity": 87}, {"time": 2035, "pitch": 52, "duration": 4, "velocity": 102}, {"time": 2041, "pitch": 52, "duration": 3, "velocity": 98}, {"time": 2041, "pitch": 59, "duration": 7, "velocity": 97}, {"time": 2047, "pitch": 52, "duration": 18, "velocity": 95}, {"time": 2050, "pitch": 40, "duration": 24, "velocity": 102}, {"time": 2050, "pitch": 56, "duration": 14, "velocity": 95}, {"time": 2050, "pitch": 59, "duration": 15, "velocity": 97}, {"time": 2050, "pitch": 64, "duration": 15, "velocity": 97}, {"time": 2074, "pitch": 41, "duration": 22, "velocity": 97}, {"time": 2074, "pitch": 57, "duration": 4, "velocity": 90}, {"time": 2074, "pitch": 65, "duration": 9, "velocity": 96}, {"time": 2080, "pitch": 57, "duration": 5, "velocity": 95}, {"time": 2083, "pitch": 48, "duration": 13, "velocity": 91}, {"time": 2089, "pitch": 60, "duration": 6, "velocity": 102}, {"time": 2095, "pitch": 65, "duration": 7, "velocity": 97}, {"time": 2098, "pitch": 43, "duration": 22, "velocity": 97}, {"time": 2098, "pitch": 55, "duration": 5, "velocity": 93}, {"time": 2098, "pitch": 59, "duration": 6, "velocity": 88}, {"time": 2104, "pitch": 50, "duration": 16, "velocity": 85}, {"time": 2107, "pitch": 55, "duration": 5, "velocity": 101}, {"time": 2113, "pitch": 59, "duration": 5, "velocity": 99}, {"time": 2113, "pitch": 62, "duration": 6, "velocity": 98}, {"time": 2119, "pitch": 55, "duration": 1, "velocity": 88}, {"time": 2122, "pitch": 45, "duration": 22, "velocity": 97}, {"time": 2122, "pitch": 57, "duration": 4, "velocity": 96}, {"time": 2122, "pitch": 60, "duration": 6, "velocity": 98}, {"time": 2128, "pitch": 52, "duration": 17, "velocity": 88}, {"time": 2131, "pitch": 57, "duration": 4, "velocity": 99}, {"time": 2131, "pitch": 64, "duration": 4, "velocity": 98}, {"time": 2137, "pitch": 57, "duration": 3, "velocity": 91}, {"time": 2137, "pitch": 60, "duration": 3, "velocity": 98}, {"time": 2143, "pitch": 57, "duration": 2, "velocity": 95}, {"time": 2146, "pitch": 45, "duration": 10, "velocity": 98}, {"time": 2146, "pitch": 57, "duration": 4, "velocity": 88}, {"time": 2146, "pitch": 60, "duration": 6, "velocity": 100}, {"time": 2146, "pitch": 64, "duration": 6, "velocity": 100}, {"time": 2146, "pitch": 69, "duration": 6, "velocity": 96}, {"time": 2152, "pitch": 52, "duration": 4, "velocity": 97}, {"time": 2155, "pitch": 57, "duration": 1, "velocity": 102}, {"time": 2158, "pitch": 43, "duration": 10, "velocity": 98}, {"time": 2158, "pitch": 55, "duration": 3, "velocity": 99}, {"time": 2158, "pitch": 59, "duration": 4, "velocity": 98}, {"time": 2161, "pitch": 50, "duration": 7, "velocity": 94}, {"time": 2164, "pitch": 55, "duration": 4, "velocity": 98}, {"time": 2167, "pitch": 59, "duration": 1, "velocity": 90}, {"time": 2170, "pitch": 41, "duration": 21, "velocity": 97}, {"time": 2170, "pitch": 53, "duration": 8, "velocity": 97}, {"time": 2170, "pitch": 57, "duration": 7, "velocity": 98}, {"time": 2176, "pitch": 48, "duration": 16, "velocity": 89}, {"time": 2179, "pitch": 53, "duration": 2, "velocity": 71}, {"time": 2179, "pitch": 57, "duration": 3, "velocity": 95}, {"time": 2179, "pitch": 60, "duration": 4, "velocity": 97}, {"time": 2185, "pitch": 53, "duration": 2, "velocity": 86}, {"time": 2185, "pitch": 57, "duration": 7, "velocity": 94}, {"time": 2185, "pitch": 60, "duration": 7, "velocity": 96}, {"time": 2185, "pitch": 65, "duration": 8, "velocity": 97}, {"time": 2191, "pitch": 53, "duration": 1, "velocity": 99}, {"time": 2194, "pitch": 43, "duration": 22, "velocity": 97}, {"time": 2194, "pitch": 55, "duration": 6, "velocity": 97}, {"time": 2194, "pitch": 59, "duration": 7, "velocity": 96}, {"time": 2200, "pitch": 50, "duration": 11, "velocity": 91}, {"time": 2203, "pitch": 55, "duration": 4, "velocity": 93}, {"time": 2203, "pitch": 59, "duration": 5, "velocity": 96}, {"time": 2203, "pitch": 62, "duration": 5, "velocity": 94}, {"time": 2209, "pitch": 55, "duration": 3, "velocity": 103}, {"time": 2209, "pitch": 62, "duration": 1, "velocity": 79}, {"time": 2212, "pitch": 50, "duration": 4, "velocity": 98}, {"time": 2218, "pitch": 48, "duration": 17, "velocity": 107}, {"time": 2218, "pitch": 55, "duration": 4, "velocity": 98}, {"time": 2218, "pitch": 60, "duration": 7, "velocity": 97}, {"time": 2224, "pitch": 52, "duration": 11, "velocity": 96}, {"time": 2227, "pitch": 55, "duration": 3, "velocity": 101}, {"time": 2227, "pitch": 60, "duration": 6, "velocity": 101}, {"time": 2227, "pitch": 64, "duration": 7, "velocity": 102}, {"time": 2233, "pitch": 55, "duration": 4, "velocity": 101}, {"time": 2236, "pitch": 60, "duration": 1, "velocity": 99}, {"time": 2242, "pitch": 40, "duration": 7, "velocity": 102}, {"time": 2242, "pitch": 52, "duration": 5, "velocity": 98}, {"time": 2242, "pitch": 64, "duration": 7, "velocity": 98}, {"time": 2242, "pitch": 68, "duration": 8, "velocity": 100}, {"time": 2251, "pitch": 42, "duration": 8, "velocity": 103}, {"time": 2251, "pitch": 54, "duration": 9, "velocity": 90}, {"time": 2251, "pitch": 69, "duration": 8, "velocity": 100}, {"time": 2260, "pitch": 44, "duration": 6, "velocity": 107}, {"time": 2260, "pitch": 56, "duration": 5, "velocity": 97}, {"time": 2260, "pitch": 71, "duration": 5, "velocity": 99}, {"time": 2266, "pitch": 41, "duration": 22, "velocity": 97}, {"time": 2266, "pitch": 57, "duration": 4, "velocity": 90}, {"time": 2266, "pitch": 65, "duration": 9, "velocity": 96}, {"time": 2272, "pitch": 57, "duration": 5, "velocity": 95}, {"time": 2275, "pitch": 48, "duration": 13, "velocity": 91}, {"time": 2281, "pitch": 60, "duration": 6, "velocity": 102}, {"time": 2287, "pitch": 65, "duration": 7, "velocity": 97}, {"time": 2290, "pitch": 43, "duration": 22, "velocity": 97}, {"time": 2290, "pitch": 55, "duration": 5, "velocity": 93}, {"time": 2290, "pitch": 59, "duration": 6, "velocity": 88}, {"time": 2296, "pitch": 50, "duration": 16, "velocity": 85}, {"time": 2299, "pitch": 55, "duration": 5, "velocity": 101}, {"time": 2305, "pitch": 59, "duration": 5, "velocity": 99}, {"time": 2305, "pitch": 62, "duration": 6, "velocity": 98}, {"time": 2311, "pitch": 55, "duration": 1, "velocity": 88}, {"time": 2314, "pitch": 45, "duration": 22, "velocity": 97}, {"time": 2314, "pitch": 57, "duration": 4, "velocity": 96}, {"time": 2314, "pitch": 60, "duration": 6, "velocity": 98}, {"time": 2320, "pitch": 52, "duration": 17, "velocity": 88}, {"time": 2323, "pitch": 57, "duration": 4, "velocity": 99}, {"time": 2323, "pitch": 64, "duration": 4, "velocity": 98}, {"time": 2329, "pitch": 57, "duration": 3, "velocity": 91}, {"time": 2329, "pitch": 60, "duration": 3, "velocity": 98}, {"time": 2335, "pitch": 57, "duration": 2, "velocity": 95}, {"time": 2338, "pitch": 45, "duration": 10, "velocity": 98}, {"time": 2338, "pitch": 57, "duration": 4, "velocity": 88}, {"time": 2338, "pitch": 60, "duration": 6, "velocity": 100}, {"time": 2338, "pitch": 64, "duration": 6, "velocity": 100}, {"time": 2338, "pitch": 69, "duration": 6, "velocity": 96}, {"time": 2344, "pitch": 52, "duration": 4, "velocity": 97}, {"time": 2347, "pitch": 57, "duration": 1, "velocity": 102}, {"time": 2350, "pitch": 43, "duration": 10, "velocity": 98}, {"time": 2350, "pitch": 55, "duration": 3, "velocity": 99}, {"time": 2350, "pitch": 59, "duration": 4, "velocity": 98}, {"time": 2353, "pitch": 50, "duration": 7, "velocity": 94}, {"time": 2356, "pitch": 55, "duration": 4, "velocity": 98}, {"time": 2359, "pitch": 59, "duration": 1, "velocity": 90}, {"time": 2362, "pitch": 41, "duration": 21, "velocity": 97}, {"time": 2362, "pitch": 53, "duration": 8, "velocity": 97}, {"time": 2362, "pitch": 57, "duration": 7, "velocity": 98}, {"time": 2368, "pitch": 48, "duration": 16, "velocity": 89}, {"time": 2371, "pitch": 53, "duration": 2, "velocity": 71}, {"time": 2371, "pitch": 57, "duration": 3, "velocity": 95}, {"time": 2371, "pitch": 60, "duration": 4, "velocity": 97}, {"time": 2377, "pitch": 53, "duration": 2, "velocity": 86}, {"time": 2377, "pitch": 57, "duration": 7, "velocity": 94}, {"time": 2377, "pitch": 60, "duration": 7, "velocity": 96}, {"time": 2377, "pitch": 65, "duration": 8, "velocity": 97}, {"time": 2383, "pitch": 53, "duration": 1, "velocity": 99}, {"time": 2386, "pitch": 43, "duration": 22, "velocity": 97}, {"time": 2386, "pitch": 55, "duration": 6, "velocity": 97}, {"time": 2386, "pitch": 59, "duration": 7, "velocity": 96}, {"time": 2392, "pitch": 50, "duration": 11, "velocity": 91}, {"time": 2395, "pitch": 55, "duration": 4, "velocity": 93}, {"time": 2395, "pitch": 59, "duration": 5, "velocity": 96}, {"time": 2395, "pitch": 62, "duration": 5, "velocity": 94}, {"time": 2401, "pitch": 55, "duration": 3, "velocity": 103}, {"time": 2401, "pitch": 62, "duration": 1, "velocity": 79}, {"time": 2404, "pitch": 50, "duration": 4, "velocity": 98}, {"time": 2410, "pitch": 38, "duration": 22, "velocity": 101}, {"time": 2410, "pitch": 57, "duration": 4, "velocity": 91}, {"time": 2410, "pitch": 69, "duration": 7, "velocity": 97}, {"time": 2416, "pitch": 57, "duration": 2, "velocity": 93}, {"time": 2419, "pitch": 57, "duration": 4, "velocity": 96}, {"time": 2419, "pitch": 66, "duration": 4, "velocity": 92}, {"time": 2419, "pitch": 69, "duration": 1, "velocity": 81}, {"time": 2425, "pitch": 57, "duration": 3, "velocity": 91}, {"time": 2425, "pitch": 62, "duration": 6, "velocity": 92}, {"time": 2425, "pitch": 66, "duration": 1, "velocity": 71}, {"time": 2431, "pitch": 57, "duration": 1, "velocity": 92}, {"time": 2434, "pitch": 38, "duration": 7, "velocity": 101}, {"time": 2434, "pitch": 57, "duration": 3, "velocity": 96}, {"time": 2434, "pitch": 62, "duration": 6, "velocity": 98}, {"time": 2434, "pitch": 69, "duration": 7, "velocity": 97}, {"time": 2440, "pitch": 57, "duration": 1, "velocity": 85}, {"time": 2443, "pitch": 57, "duration": 3, "velocity": 96}, {"time": 2443, "pitch": 62, "duration": 4, "velocity": 101}, {"time": 2443, "pitch": 69, "duration": 10, "velocity": 99}, {"time": 2449, "pitch": 57, "duration": 4, "velocity": 96}, {"time": 2452, "pitch": 62, "duration": 3, "velocity": 96}, {"time": 2455, "pitch": 57, "duration": 3, "velocity": 98}, {"time": 2455, "pitch": 69, "duration": 1, "velocity": 57}, {"time": 2458, "pitch": 46, "duration": 23, "velocity": 103}, {"time": 2461, "pitch": 53, "duration": 19, "velocity": 84}, {"time": 2464, "pitch": 58, "duration": 7, "velocity": 90}, {"time": 2467, "pitch": 62, "duration": 4, "velocity": 96}, {"time": 2473, "pitch": 58, "duration": 3, "velocity": 95}, {"time": 2473, "pitch": 62, "duration": 3, "velocity": 97}, {"time": 2473, "pitch": 65, "duration": 4, "velocity": 96}, {"time": 2479, "pitch": 58, "duration": 6, "velocity": 96}, {"time": 2479, "pitch": 62, "duration": 7, "velocity": 97}, {"time": 2479, "pitch": 65, "duration": 7, "velocity": 96}, {"time": 2482, "pitch": 46, "duration": 16, "velocity": 98}, {"time": 2485, "pitch": 53, "duration": 7, "velocity": 96}, {"time": 2488, "pitch": 58, "duration": 1, "velocity": 96}, {"time": 2488, "pitch": 62, "duration": 1, "velocity": 76}, {"time": 2491, "pitch": 58, "duration": 4, "velocity": 97}, {"time": 2491, "pitch": 62, "duration": 4, "velocity": 100}, {"time": 2491, "pitch": 65, "duration": 4, "velocity": 97}, {"time": 2497, "pitch": 58, "duration": 3, "velocity": 100}, {"time": 2497, "pitch": 62, "duration": 6, "velocity": 98}, {"time": 2497, "pitch": 65, "duration": 10, "velocity": 98}, {"time": 2500, "pitch": 53, "duration": 2, "velocity": 92}, {"time": 2503, "pitch": 58, "duration": 3, "velocity": 99}, {"time": 2506, "pitch": 43, "duration": 22, "velocity": 101}, {"time": 2509, "pitch": 50, "duration": 19, "velocity": 91}, {"time": 2512, "pitch": 55, "duration": 2, "velocity": 101}, {"time": 2515, "pitch": 55, "duration": 4, "velocity": 96}, {"time": 2515, "pitch": 62, "duration": 4, "velocity": 99}, {"time": 2521, "pitch": 55, "duration": 3, "velocity": 97}, {"time": 2521, "pitch": 62, "duration": 7, "velocity": 97}, {"time": 2521, "pitch": 67, "duration": 10, "velocity": 97}, {"time": 2527, "pitch": 55, "duration": 5, "velocity": 107}, {"time": 2530, "pitch": 43, "duration": 18, "velocity": 98}, {"time": 2533, "pitch": 50, "duration": 7, "velocity": 90}, {"time": 2536, "pitch": 55, "duration": 1, "velocity": 105}, {"time": 2539, "pitch": 55, "duration": 4, "velocity": 107}, {"time": 2539, "pitch": 62, "duration": 4, "velocity": 101}, {"time": 2542, "pitch": 50, "duration": 6, "velocity": 96}, {"time": 2545, "pitch": 55, "duration": 3, "velocity": 105}, {"time": 2545, "pitch": 62, "duration": 2, "velocity": 100}, {"time": 2554, "pitch": 40, "duration": 18, "velocity": 102}, {"time": 2554, "pitch": 52, "duration": 7, "velocity": 100}, {"time": 2554, "pitch": 56, "duration": 10, "velocity": 97}, {"time": 2560, "pitch": 47, "duration": 11, "velocity": 98}, {"time": 2563, "pitch": 52, "duration": 6, "velocity": 110}, {"time": 2569, "pitch": 56, "duration": 7, "velocity": 102}, {"time": 2569, "pitch": 59, "duration": 8, "velocity": 103}, {"time": 2575, "pitch": 52, "duration": 3, "velocity": 110}, {"time": 2578, "pitch": 42, "duration": 16, "velocity": 105}, {"time": 2581, "pitch": 49, "duration": 14, "velocity": 92}, {"time": 2584, "pitch": 54, "duration": 3, "velocity": 96}, {"time": 2587, "pitch": 54, "duration": 1, "velocity": 86}, {"time": 2587, "pitch": 58, "duration": 3, "velocity": 110}, {"time": 2587, "pitch": 61, "duration": 4, "velocity": 105}, {"time": 2593, "pitch": 54, "duration": 3, "velocity": 103}, {"time": 2593, "pitch": 58, "duration": 6, "velocity": 79}, {"time": 2593, "pitch": 61, "duration": 7, "velocity": 91}, {"time": 2593, "pitch": 66, "duration": 10, "velocity": 96}, {"time": 2599, "pitch": 54, "duration": 2, "velocity": 112}, {"time": 2602, "pitch": 47, "duration": 17, "velocity": 102}, {"time": 2605, "pitch": 59, "duration": 4, "velocity": 85}, {"time": 2608, "pitch": 62, "duration": 2, "velocity": 97}, {"time": 2611, "pitch": 59, "duration": 3, "velocity": 100}, {"time": 2611, "pitch": 62, "duration": 4, "velocity": 98}, {"time": 2611, "pitch": 66, "duration": 4, "velocity": 107}, {"time": 2617, "pitch": 59, "duration": 2, "velocity": 98}, {"time": 2617, "pitch": 62, "duration": 7, "velocity": 99}, {"time": 2617, "pitch": 66, "duration": 8, "velocity": 99}, {"time": 2623, "pitch": 59, "duration": 3, "velocity": 98}, {"time": 2626, "pitch": 49, "duration": 19, "velocity": 112}, {"time": 2629, "pitch": 57, "duration": 7, "velocity": 100}, {"time": 2632, "pitch": 61, "duration": 4, "velocity": 105}, {"time": 2635, "pitch": 64, "duration": 4, "velocity": 97}, {"time": 2641, "pitch": 57, "duration": 3, "velocity": 99}, {"time": 2641, "pitch": 61, "duration": 7, "velocity": 107}, {"time": 2641, "pitch": 64, "duration": 7, "velocity": 103}, {"time": 2641, "pitch": 69, "duration": 11, "velocity": 98}, {"time": 2647, "pitch": 57, "duration": 2, "velocity": 96}, {"time": 2650, "pitch": 47, "duration": 16, "velocity": 103}, {"time": 2653, "pitch": 59, "duration": 9, "velocity": 97}, {"time": 2656, "pitch": 63, "duration": 6, "velocity": 101}, {"time": 2659, "pitch": 66, "duration": 4, "velocity": 105}, {"time": 2665, "pitch": 59, "duration": 3, "velocity": 102}, {"time": 2665, "pitch": 63, "duration": 7, "velocity": 103}, {"time": 2665, "pitch": 66, "duration": 7, "velocity": 99}, {"time": 2665, "pitch": 71, "duration": 8, "velocity": 99}, {"time": 2671, "pitch": 59, "duration": 3, "velocity": 103}, {"time": 2674, "pitch": 40, "duration": 20, "velocity": 101}, {"time": 2677, "pitch": 47, "duration": 15, "velocity": 91}, {"time": 2680, "pitch": 52, "duration": 8, "velocity": 107}, {"time": 2683, "pitch": 55, "duration": 5, "velocity": 100}, {"time": 2689, "pitch": 52, "duration": 1, "velocity": 97}, {"time": 2689, "pitch": 55, "duration": 8, "velocity": 102}, {"time": 2689, "pitch": 59, "duration": 9, "velocity": 103}, {"time": 2689, "pitch": 64, "duration": 11, "velocity": 103}, {"time": 2695, "pitch": 52, "duration": 3, "velocity": 98}, {"time": 2698, "pitch": 48, "duration": 17, "velocity": 110}, {"time": 2701, "pitch": 55, "duration": 13, "velocity": 91}, {"time": 2704, "pitch": 60, "duration": 5, "velocity": 98}, {"time": 2707, "pitch": 64, "duration": 4, "velocity": 102}, {"time": 2713, "pitch": 60, "duration": 3, "velocity": 98}, {"time": 2713, "pitch": 64, "duration": 7, "velocity": 110}, {"time": 2713, "pitch": 67, "duration": 8, "velocity": 102}, {"time": 2719, "pitch": 36, "duration": 19, "velocity": 102}, {"time": 2719, "pitch": 60, "duration": 2, "velocity": 96}, {"time": 2722, "pitch": 60, "duration": 3, "velocity": 98}, {"time": 2722, "pitch": 64, "duration": 6, "velocity": 99}, {"time": 2728, "pitch": 60, "duration": 1, "velocity": 89}, {"time": 2731, "pitch": 60, "duration": 4, "velocity": 103}, {"time": 2731, "pitch": 64, "duration": 5, "velocity": 110}, {"time": 2731, "pitch": 67, "duration": 5, "velocity": 98}, {"time": 2737, "pitch": 60, "duration": 4, "velocity": 100}, {"time": 2737, "pitch": 64, "duration": 7, "velocity": 105}, {"time": 2740, "pitch": 36, "duration": 6, "velocity": 100}, {"time": 2743, "pitch": 60, "duration": 2, "velocity": 96}, {"time": 2746, "pitch": 40, "duration": 10, "velocity": 99}, {"time": 2746, "pitch": 52, "duration": 3, "velocity": 100}, {"time": 2746, "pitch": 56, "duration": 6, "velocity": 100}, {"time": 2752, "pitch": 52, "duration": 4, "velocity": 102}, {"time": 2758, "pitch": 45, "duration": 3, "velocity": 110}, {"time": 2758, "pitch": 57, "duration": 3, "velocity": 96}, {"time": 2761, "pitch": 48, "duration": 3, "velocity": 94}, {"time": 2761, "pitch": 60, "duration": 3, "velocity": 98}, {"time": 2764, "pitch": 57, "duration": 2, "velocity": 98}, {"time": 2767, "pitch": 40, "duration": 24, "velocity": 102}, {"time": 2767, "pitch": 47, "duration": 21, "velocity": 112}, {"time": 2767, "pitch": 59, "duration": 24, "velocity": 112}, {"time": 2794, "pitch": 41, "duration": 22, "velocity": 97}, {"time": 2794, "pitch": 57, "duration": 4, "velocity": 90}, {"time": 2794, "pitch": 65, "duration": 9, "velocity": 96}, {"time": 2800, "pitch": 57, "duration": 5, "velocity": 95}, {"time": 2803, "pitch": 48, "duration": 13, "velocity": 91}, {"time": 2809, "pitch": 60, "duration": 6, "velocity": 102}, {"time": 2815, "pitch": 65, "duration": 7, "velocity": 97}, {"time": 2818, "pitch": 43, "duration": 22, "velocity": 97}, {"time": 2818, "pitch": 55, "duration": 5, "velocity": 93}, {"time": 2818, "pitch": 59, "duration": 6, "velocity": 88}, {"time": 2824, "pitch": 50, "duration": 16, "velocity": 85}, {"time": 2827, "pitch": 55, "duration": 5, "velocity": 101}, {"time": 2833, "pitch": 59, "duration": 5, "velocity": 99}, {"time": 2833, "pitch": 62, "duration": 6, "velocity": 98}, {"time": 2839, "pitch": 55, "duration": 1, "velocity": 88}, {"time": 2842, "pitch": 45, "duration": 22, "velocity": 97}, {"time": 2842, "pitch": 57, "duration": 4, "velocity": 96}, {"time": 2842, "pitch": 60, "duration": 6, "velocity": 98}, {"time": 2848, "pitch": 52, "duration": 17, "velocity": 88}, {"time": 2851, "pitch": 57, "duration": 4, "velocity": 99}, {"time": 2851, "pitch": 64, "duration": 4, "velocity": 98}, {"time": 2857, "pitch": 57, "duration": 3, "velocity": 91}, {"time": 2857, "pitch": 60, "duration": 3, "velocity": 98}, {"time": 2863, "pitch": 57, "duration": 2, "velocity": 95}, {"time": 2866, "pitch": 45, "duration": 10, "velocity": 98}, {"time": 2866, "pitch": 57, "duration": 4, "velocity": 88}, {"time": 2866, "pitch": 60, "duration": 6, "velocity": 100}, {"time": 2866, "pitch": 64, "duration": 6, "velocity": 100}, {"time": 2866, "pitch": 69, "duration": 6, "velocity": 96}, {"time": 2872, "pitch": 52, "duration": 4, "velocity": 97}, {"time": 2875, "pitch": 57, "duration": 1, "velocity": 102}, {"time": 2878, "pitch": 43, "duration": 10, "velocity": 98}, {"time": 2878, "pitch": 55, "duration": 3, "velocity": 99}, {"time": 2878, "pitch": 59, "duration": 4, "velocity": 98}, {"time": 2881, "pitch": 50, "duration": 7, "velocity": 94}, {"time": 2884, "pitch": 55, "duration": 4, "velocity": 98}, {"time": 2887, "pitch": 59, "duration": 1, "velocity": 90}, {"time": 2890, "pitch": 41, "duration": 21, "velocity": 97}, {"time": 2890, "pitch": 53, "duration": 8, "velocity": 97}, {"time": 2890, "pitch": 57, "duration": 7, "velocity": 98}, {"time": 2896, "pitch": 48, "duration": 16, "velocity": 89}, {"time": 2899, "pitch": 53, "duration": 2, "velocity": 71}, {"time": 2899, "pitch": 57, "duration": 3, "velocity": 95}, {"time": 2899, "pitch": 60, "duration": 4, "velocity": 97}, {"time": 2905, "pitch": 53, "duration": 2, "velocity": 86}, {"time": 2905, "pitch": 57, "duration": 7, "velocity": 94}, {"time": 2905, "pitch": 60, "duration": 7, "velocity": 96}, {"time": 2905, "pitch": 65, "duration": 8, "velocity": 97}, {"time": 2911, "pitch": 53, "duration": 1, "velocity": 99}, {"time": 2914, "pitch": 43, "duration": 22, "velocity": 97}, {"time": 2914, "pitch": 55, "duration": 6, "velocity": 97}, {"time": 2914, "pitch": 59, "duration": 7, "velocity": 96}, {"time": 2920, "pitch": 50, "duration": 11, "velocity": 91}, {"time": 2923, "pitch": 55, "duration": 4, "velocity": 93}, {"time": 2923, "pitch": 59, "duration": 5, "velocity": 96}, {"time": 2923, "pitch": 62, "duration": 5, "velocity": 94}, {"time": 2929, "pitch": 55, "duration": 3, "velocity": 103}, {"time": 2929, "pitch": 62, "duration": 1, "velocity": 79}, {"time": 2932, "pitch": 50, "duration": 4, "velocity": 98}, {"time": 2938, "pitch": 48, "duration": 17, "velocity": 107}, {"time": 2938, "pitch": 55, "duration": 4, "velocity": 98}, {"time": 2938, "pitch": 60, "duration": 7, "velocity": 97}, {"time": 2944, "pitch": 52, "duration": 11, "velocity": 96}, {"time": 2947, "pitch": 55, "duration": 3, "velocity": 101}, {"time": 2947, "pitch": 60, "duration": 6, "velocity": 101}, {"time": 2947, "pitch": 64, "duration": 7, "velocity": 102}, {"time": 2953, "pitch": 55, "duration": 4, "velocity": 101}, {"time": 2956, "pitch": 60, "duration": 1, "velocity": 99}, {"time": 2962, "pitch": 40, "duration": 7, "velocity": 102}, {"time": 2962, "pitch": 52, "duration": 5, "velocity": 98}, {"time": 2962, "pitch": 64, "duration": 7, "velocity": 98}, {"time": 2962, "pitch": 68, "duration": 8, "velocity": 100}, {"time": 2971, "pitch": 42, "duration": 8, "velocity": 103}, {"time": 2971, "pitch": 54, "duration": 9, "velocity": 90}, {"time": 2971, "pitch": 69, "duration": 8, "velocity": 100}, {"time": 2980, "pitch": 44, "duration": 6, "velocity": 107}, {"time": 2980, "pitch": 56, "duration": 5, "velocity": 97}, {"time": 2980, "pitch": 71, "duration": 5, "velocity": 99}, {"time": 2986, "pitch": 41, "duration": 22, "velocity": 97}, {"time": 2986, "pitch": 57, "duration": 4, "velocity": 90}, {"time": 2986, "pitch": 65, "duration": 9, "velocity": 96}, {"time": 2992, "pitch": 57, "duration": 5, "velocity": 95}, {"time": 2995, "pitch": 48, "duration": 13, "velocity": 91}, {"time": 3001, "pitch": 60, "duration": 6, "velocity": 102}, {"time": 3007, "pitch": 65, "duration": 7, "velocity": 97}, {"time": 3010, "pitch": 43, "duration": 22, "velocity": 97}, {"time": 3010, "pitch": 55, "duration": 5, "velocity": 93}, {"time": 3010, "pitch": 59, "duration": 6, "velocity": 88}, {"time": 3016, "pitch": 50, "duration": 16, "velocity": 85}, {"time": 3019, "pitch": 55, "duration": 5, "velocity": 101}, {"time": 3025, "pitch": 59, "duration": 5, "velocity": 99}, {"time": 3025, "pitch": 62, "duration": 6, "velocity": 98}, {"time": 3031, "pitch": 55, "duration": 1, "velocity": 88}, {"time": 3034, "pitch": 45, "duration": 22, "velocity": 97}, {"time": 3034, "pitch": 57, "duration": 4, "velocity": 96}, {"time": 3034, "pitch": 60, "duration": 6, "velocity": 98}, {"time": 3040, "pitch": 52, "duration": 17, "velocity": 88}, {"time": 3043, "pitch": 57, "duration": 4, "velocity": 99}, {"time": 3043, "pitch": 64, "duration": 4, "velocity": 98}, {"time": 3049, "pitch": 57, "duration": 3, "velocity": 91}, {"time": 3049, "pitch": 60, "duration": 3, "velocity": 98}, {"time": 3055, "pitch": 57, "duration": 2, "velocity": 95}, {"time": 3058, "pitch": 45, "duration": 10, "velocity": 98}, {"time": 3058, "pitch": 57, "duration": 4, "velocity": 88}, {"time": 3058, "pitch": 60, "duration": 6, "velocity": 100}, {"time": 3058, "pitch": 64, "duration": 6, "velocity": 100}, {"time": 3058, "pitch": 69, "duration": 6, "velocity": 96}, {"time": 3064, "pitch": 52, "duration": 4, "velocity": 97}, {"time": 3067, "pitch": 57, "duration": 1, "velocity": 102}, {"time": 3070, "pitch": 43, "duration": 10, "velocity": 98}, {"time": 3070, "pitch": 55, "duration": 3, "velocity": 99}, {"time": 3070, "pitch": 59, "duration": 4, "velocity": 98}, {"time": 3073, "pitch": 50, "duration": 7, "velocity": 94}, {"time": 3076, "pitch": 55, "duration": 4, "velocity": 98}, {"time": 3079, "pitch": 59, "duration": 1, "velocity": 90}, {"time": 3082, "pitch": 41, "duration": 21, "velocity": 97}, {"time": 3082, "pitch": 53, "duration": 8, "velocity": 97}, {"time": 3082, "pitch": 57, "duration": 7, "velocity": 98}, {"time": 3088, "pitch": 48, "duration": 16, "velocity": 89}, {"time": 3091, "pitch": 53, "duration": 2, "velocity": 71}, {"time": 3091, "pitch": 57, "duration": 3, "velocity": 95}, {"time": 3091, "pitch": 60, "duration": 4, "velocity": 97}, {"time": 3097, "pitch": 53, "duration": 2, "velocity": 86}, {"time": 3097, "pitch": 57, "duration": 7, "velocity": 94}, {"time": 3097, "pitch": 60, "duration": 7, "velocity": 96}, {"time": 3097, "pitch": 65, "duration": 8, "velocity": 97}, {"time": 3103, "pitch": 53, "duration": 1, "velocity": 99}, {"time": 3106, "pitch": 43, "duration": 22, "velocity": 97}, {"time": 3106, "pitch": 55, "duration": 6, "velocity": 97}, {"time": 3106, "pitch": 59, "duration": 7, "velocity": 96}, {"time": 3112, "pitch": 50, "duration": 11, "velocity": 91}, {"time": 3115, "pitch": 55, "duration": 4, "velocity": 93}, {"time": 3115, "pitch": 59, "duration": 5, "velocity": 96}, {"time": 3115, "pitch": 62, "duration": 5, "velocity": 94}, {"time": 3121, "pitch": 55, "duration": 3, "velocity": 103}, {"time": 3121, "pitch": 62, "duration": 1, "velocity": 79}, {"time": 3124, "pitch": 50, "duration": 4, "velocity": 98}, {"time": 3130, "pitch": 45, "duration": 7, "velocity": 98}, {"time": 3130, "pitch": 57, "duration": 6, "velocity": 96}, {"time": 3130, "pitch": 69, "duration": 7, "velocity": 95}, {"time": 3136, "pitch": 52, "duration": 2, "velocity": 91}, {"time": 3139, "pitch": 47, "duration": 8, "velocity": 99}, {"time": 3139, "pitch": 59, "duration": 7, "velocity": 96}, {"time": 3139, "pitch": 71, "duration": 8, "velocity": 97}, {"time": 3148, "pitch": 48, "duration": 7, "velocity": 102}, {"time": 3148, "pitch": 60, "duration": 7, "velocity": 97}, {"time": 3148, "pitch": 72, "duration": 7, "velocity": 96}, {"time": 3157, "pitch": 50, "duration": 7, "velocity": 102}, {"time": 3157, "pitch": 57, "duration": 7, "velocity": 100}, {"time": 3157, "pitch": 62, "duration": 6, "velocity": 96}, {"time": 3157, "pitch": 74, "duration": 7, "velocity": 99}, {"time": 3166, "pitch": 52, "duration": 4, "velocity": 102}, {"time": 3166, "pitch": 64, "duration": 3, "velocity": 98}, {"time": 3166, "pitch": 76, "duration": 4, "velocity": 99}, {"time": 3172, "pitch": 55, "duration": 4, "velocity": 97}, {"time": 3172, "pitch": 67, "duration": 4, "velocity": 92}, {"time": 3172, "pitch": 79, "duration": 4, "velocity": 96}, {"time": 3178, "pitch": 41, "duration": 22, "velocity": 97}, {"time": 3178, "pitch": 57, "duration": 4, "velocity": 90}, {"time": 3178, "pitch": 65, "duration": 9, "velocity": 96}, {"time": 3184, "pitch": 57, "duration": 5, "velocity": 95}, {"time": 3187, "pitch": 48, "duration": 13, "velocity": 91}, {"time": 3193, "pitch": 60, "duration": 6, "velocity": 102}, {"time": 3199, "pitch": 65, "duration": 7, "velocity": 97}, {"time": 3202, "pitch": 43, "duration": 22, "velocity": 97}, {"time": 3202, "pitch": 55, "duration": 5, "velocity": 93}, {"time": 3202, "pitch": 59, "duration": 6, "velocity": 88}, {"time": 3208, "pitch": 50, "duration": 16, "velocity": 85}, {"time": 3211, "pitch": 55, "duration": 5, "velocity": 101}, {"time": 3217, "pitch": 59, "duration": 5, "velocity": 99}, {"time": 3217, "pitch": 62, "duration": 6, "velocity": 98}, {"time": 3223, "pitch": 55, "duration": 1, "velocity": 88}, {"time": 3226, "pitch": 45, "duration": 22, "velocity": 97}, {"time": 3226, "pitch": 57, "duration": 4, "velocity": 96}, {"time": 3226, "pitch": 60, "duration": 6, "velocity": 98}, {"time": 3232, "pitch": 52, "duration": 17, "velocity": 88}, {"time": 3235, "pitch": 57, "duration": 4, "velocity": 99}, {"time": 3235, "pitch": 64, "duration": 4, "velocity": 98}, {"time": 3241, "pitch": 57, "duration": 3, "velocity": 91}, {"time": 3241, "pitch": 60, "duration": 3, "velocity": 98}, {"time": 3247, "pitch": 57, "duration": 2, "velocity": 95}, {"time": 3250, "pitch": 45, "duration": 10, "velocity": 98}, {"time": 3250, "pitch": 57, "duration": 4, "velocity": 88}, {"time": 3250, "pitch": 60, "duration": 6, "velocity": 100}, {"time": 3250, "pitch": 64, "duration": 6, "velocity": 100}, {"time": 3250, "pitch": 69, "duration": 6, "velocity": 96}, {"time": 3256, "pitch": 52, "duration": 4, "velocity": 97}, {"time": 3259, "pitch": 57, "duration": 1, "velocity": 102}, {"time": 3262, "pitch": 43, "duration": 10, "velocity": 98}, {"time": 3262, "pitch": 55, "duration": 3, "velocity": 99}, {"time": 3262, "pitch": 59, "duration": 4, "velocity": 98}, {"time": 3265, "pitch": 50, "duration": 7, "velocity": 94}, {"time": 3268, "pitch": 55, "duration": 4, "velocity": 98}, {"time": 3271, "pitch": 59, "duration": 1, "velocity": 90}, {"time": 3274, "pitch": 41, "duration": 21, "velocity": 97}, {"time": 3274, "pitch": 53, "duration": 8, "velocity": 97}, {"time": 3274, "pitch": 57, "duration": 7, "velocity": 98}, {"time": 3280, "pitch": 48, "duration": 16, "velocity": 89}, {"time": 3283, "pitch": 53, "duration": 2, "velocity": 71}, {"time": 3283, "pitch": 57, "duration": 3, "velocity": 95}, {"time": 3283, "pitch": 60, "duration": 4, "velocity": 97}, {"time": 3289, "pitch": 53, "duration": 2, "velocity": 86}, {"time": 3289, "pitch": 57, "duration": 7, "velocity": 94}, {"time": 3289, "pitch": 60, "duration": 7, "velocity": 96}, {"time": 3289, "pitch": 65, "duration": 8, "velocity": 97}, {"time": 3295, "pitch": 53, "duration": 1, "velocity": 99}, {"time": 3298, "pitch": 43, "duration": 22, "velocity": 97}, {"time": 3298, "pitch": 55, "duration": 6, "velocity": 97}, {"time": 3298, "pitch": 59, "duration": 7, "velocity": 96}, {"time": 3304, "pitch": 50, "duration": 11, "velocity": 91}, {"time": 3307, "pitch": 55, "duration": 4, "velocity": 93}, {"time": 3307, "pitch": 59, "duration": 5, "velocity": 96}, {"time": 3307, "pitch": 62, "duration": 5, "velocity": 94}, {"time": 3313, "pitch": 55, "duration": 3, "velocity": 103}, {"time": 3313, "pitch": 62, "duration": 1, "velocity": 79}, {"time": 3316, "pitch": 50, "duration": 4, "velocity": 98}, {"time": 3322, "pitch": 48, "duration": 17, "velocity": 107}, {"time": 3322, "pitch": 55, "duration": 4, "velocity": 98}, {"time": 3322, "pitch": 60, "duration": 7, "velocity": 97}, {"time": 3328, "pitch": 52, "duration": 11, "velocity": 96}, {"time": 3331, "pitch": 55, "duration": 3, "velocity": 101}, {"time": 3331, "pitch": 60, "duration": 6, "velocity": 101}, {"time": 3331, "pitch": 64, "duration": 7, "velocity": 102}, {"time": 3337, "pitch": 55, "duration": 4, "velocity": 101}, {"time": 3340, "pitch": 60, "duration": 1, "velocity": 99}, {"time": 3346, "pitch": 40, "duration": 7, "velocity": 102}, {"time": 3346, "pitch": 52, "duration": 5, "velocity": 98}, {"time": 3346, "pitch": 64, "duration": 7, "velocity": 98}, {"time": 3346, "pitch": 68, "duration": 8, "velocity": 100}, {"time": 3355, "pitch": 42, "duration": 8, "velocity": 103}, {"time": 3355, "pitch": 54, "duration": 9, "velocity": 90}, {"time": 3355, "pitch": 69, "duration": 8, "velocity": 100}, {"time": 3364, "pitch": 44, "duration": 6, "velocity": 107}, {"time": 3364, "pitch": 56, "duration": 5, "velocity": 97}, {"time": 3364, "pitch": 71, "duration": 5, "velocity": 99}, {"time": 3370, "pitch": 41, "duration": 22, "velocity": 97}, {"time": 3370, "pitch": 57, "duration": 4, "velocity": 90}, {"time": 3370, "pitch": 65, "duration": 9, "velocity": 96}, {"time": 3376, "pitch": 57, "duration": 5, "velocity": 95}, {"time": 3379, "pitch": 48, "duration": 13, "velocity": 91}, {"time": 3385, "pitch": 60, "duration": 6, "velocity": 102}, {"time": 3391, "pitch": 65, "duration": 7, "velocity": 97}, {"time": 3394, "pitch": 43, "duration": 22, "velocity": 97}, {"time": 3394, "pitch": 55, "duration": 5, "velocity": 93}, {"time": 3394, "pitch": 59, "duration": 6, "velocity": 88}, {"time": 3400, "pitch": 50, "duration": 16, "velocity": 85}, {"time": 3403, "pitch": 55, "duration": 5, "velocity": 101}, {"time": 3409, "pitch": 59, "duration": 5, "velocity": 99}, {"time": 3409, "pitch": 62, "duration": 6, "velocity": 98}, {"time": 3415, "pitch": 55, "duration": 1, "velocity": 88}, {"time": 3418, "pitch": 45, "duration": 22, "velocity": 97}, {"time": 3418, "pitch": 57, "duration": 4, "velocity": 96}, {"time": 3418, "pitch": 60, "duration": 6, "velocity": 98}, {"time": 3424, "pitch": 52, "duration": 17, "velocity": 88}, {"time": 3427, "pitch": 57, "duration": 4, "velocity": 99}, {"time": 3427, "pitch": 64, "duration": 4, "velocity": 98}, {"time": 3433, "pitch": 57, "duration": 3, "velocity": 91}, {"time": 3433, "pitch": 60, "duration": 3, "velocity": 98}, {"time": 3439, "pitch": 57, "duration": 2, "velocity": 95}, {"time": 3441, "pitch": 38, "duration": 25, "velocity": 100}, {"time": 3444, "pitch": 45, "duration": 21, "velocity": 86}, {"time": 3447, "pitch": 50, "duration": 44, "velocity": 86}, {"time": 3449, "pitch": 54, "duration": 43, "velocity": 86}, {"time": 3450, "pitch": 57, "duration": 41, "velocity": 84}, {"time": 3452, "pitch": 62, "duration": 40, "velocity": 91}, {"time": 3489, "pitch": 53, "duration": 11, "velocity": 81}, {"time": 3490, "pitch": 57, "duration": 1, "velocity": 84}, {"time": 3490, "pitch": 41, "duration": 20, "velocity": 96}, {"time": 3491, "pitch": 60, "duration": 16, "velocity": 89}, {"time": 3496, "pitch": 48, "duration": 15, "velocity": 80}, {"time": 3503, "pitch": 53, "duration": 4, "velocity": 89}, {"time": 3516, "pitch": 43, "duration": 26, "velocity": 96}, {"time": 3516, "pitch": 55, "duration": 30, "velocity": 91}, {"time": 3516, "pitch": 59, "duration": 31, "velocity": 91}, {"time": 3546, "pitch": 45, "duration": 35, "velocity": 97}, {"time": 3552, "pitch": 52, "duration": 28, "velocity": 85}, {"time": 3558, "pitch": 57, "duration": 25, "velocity": 91}, {"time": 3565, "pitch": 64, "duration": 17, "velocity": 88}, {"time": 3572, "pitch": 69, "duration": 10, "velocity": 61}, {"time": 3589, "pitch": 53, "duration": 18, "velocity": 85}, {"time": 3590, "pitch": 41, "duration": 20, "velocity": 96}, {"time": 3590, "pitch": 57, "duration": 17, "velocity": 85}, {"time": 3591, "pitch": 60, "duration": 17, "velocity": 79}, {"time": 3614, "pitch": 55, "duration": 31, "velocity": 77}, {"time": 3615, "pitch": 43, "duration": 30, "velocity": 97}, {"time": 3616, "pitch": 59, "duration": 29, "velocity": 88}, {"time": 3618, "pitch": 62, "duration": 27, "velocity": 90}, {"time": 3619, "pitch": 50, "duration": 25, "velocity": 87}, {"time": 3645, "pitch": 50, "duration": 35, "velocity": 85}, {"time": 3646, "pitch": 38, "duration": 35, "velocity": 94}, {"time": 3646, "pitch": 54, "duration": 34, "velocity": 77}, {"time": 3647, "pitch": 57, "duration": 34, "velocity": 79}, {"time": 3648, "pitch": 62, "duration": 33, "velocity": 88}, {"time": 3682, "pitch": 41, "duration": 21, "velocity": 88}, {"time": 3685, "pitch": 48, "duration": 19, "velocity": 92}, {"time": 3688, "pitch": 53, "duration": 17, "velocity": 89}, {"time": 3691, "pitch": 57, "duration": 15, "velocity": 94}, {"time": 3697, "pitch": 60, "duration": 9, "velocity": 93}, {"time": 3706, "pitch": 43, "duration": 21, "velocity": 87}, {"time": 3709, "pitch": 50, "duration": 19, "velocity": 90}, {"time": 3712, "pitch": 55, "duration": 17, "velocity": 91}, {"time": 3715, "pitch": 59, "duration": 15, "velocity": 92}, {"time": 3730, "pitch": 45, "duration": 22, "velocity": 96}, {"time": 3733, "pitch": 52, "duration": 19, "velocity": 90}, {"time": 3736, "pitch": 57, "duration": 21, "velocity": 86}, {"time": 3739, "pitch": 60, "duration": 21, "velocity": 95}, {"time": 3745, "pitch": 64, "duration": 15, "velocity": 94}, {"time": 3754, "pitch": 45, "duration": 10, "velocity": 96}, {"time": 3757, "pitch": 52, "duration": 10, "velocity": 90}, {"time": 3760, "pitch": 57, "duration": 7, "velocity": 88}, {"time": 3763, "pitch": 60, "duration": 9, "velocity": 97}, {"time": 3766, "pitch": 43, "duration": 9, "velocity": 95}, {"time": 3769, "pitch": 52, "duration": 7, "velocity": 90}, {"time": 3772, "pitch": 55, "duration": 6, "velocity": 97}, {"time": 3775, "pitch": 60, "duration": 3, "velocity": 95}, {"time": 3778, "pitch": 41, "duration": 22, "velocity": 95}, {"time": 3781, "pitch": 48, "duration": 19, "velocity": 85}, {"time": 3784, "pitch": 53, "duration": 10, "velocity": 88}, {"time": 3786, "pitch": 60, "duration": 17, "velocity": 91}, {"time": 3793, "pitch": 65, "duration": 13, "velocity": 96}, {"time": 3803, "pitch": 43, "duration": 39, "velocity": 97}, {"time": 3806, "pitch": 50, "duration": 34, "velocity": 91}, {"time": 3810, "pitch": 55, "duration": 9, "velocity": 93}, {"time": 3815, "pitch": 62, "duration": 5, "velocity": 90}, {"time": 3819, "pitch": 67, "duration": 3, "velocity": 92}, {"time": 3825, "pitch": 74, "duration": 5, "velocity": 94}, {"time": 3825, "pitch": 67, "duration": 4, "velocity": 87}, {"time": 3831, "pitch": 79, "duration": 8, "velocity": 88}, {"time": 3831, "pitch": 74, "duration": 2, "velocity": 81}, {"time": 3864, "pitch": 45, "duration": 54, "velocity": 94}, {"time": 3867, "pitch": 52, "duration": 50, "velocity": 82}, {"time": 3870, "pitch": 57, "duration": 10, "velocity": 80}, {"time": 3874, "pitch": 62, "duration": 6, "velocity": 86}, {"time": 3879, "pitch": 64, "duration": 4, "velocity": 89}, {"time": 3886, "pitch": 69, "duration": 2, "velocity": 90}, {"time": 3903, "pitch": 74, "duration": 3, "velocity": 90}, {"time": 3905, "pitch": 81, "duration": 2, "velocity": 88}], "annotations": [{"time": 401, "annotation": {"number": 64, "value": 127}, "group": "control_change"}, {"time": 416, "annotation": {"number": 64, "value": 0}, "group": "control_change"}, {"time": 424, "annotation": {"number": 64, "value": 127}, "group": "control_change"}, {"time": 439, "annotation": {"number": 64, "value": 0}, "group": "control_change"}, {"time": 448, "annotation": {"number": 64, "value": 127}, "group": "control_change"}, {"time": 463, "annotation": {"number": 64, "value": 0}, "group": "control_change"}, {"time": 467, "annotation": {"number": 64, "value": 127}, "group": "control_change"}, {"time": 477, "annotation": {"number": 64, "value": 0}, "group": "control_change"}, {"time": 480, "annotation": {"number": 64, "value": 127}, "group": "control_change"}, {"time": 488, "annotation": {"number": 64, "value": 0}, "group": "control_change"}, {"time": 494, "annotation": {"number": 64, "value": 127}, "group": "control_change"}, {"time": 495, "annotation": {"number": 64, "value": 0}, "group": "control_change"}, {"time": 495, "annotation": {"number": 64, "value": 127}, "group": "control_change"}, {"time": 511, "annotation": {"number": 64, "value": 0}, "group": "control_change"}, {"time": 519, "annotation": {"number": 64, "value": 127}, "group": "control_change"}, {"time": 535, "annotation": {"number": 64, "value": 0}, "group": "control_change"}, {"time": 542, "annotation": {"number": 64, "value": 127}, "group": "control_change"}, {"time": 560, "annotation": {"number": 64, "value": 0}, "group": "control_change"}, {"time": 563, "annotation": {"number": 64, "value": 127}, "group": "control_change"}, {"time": 574, "annotation": {"number": 64, "value": 0}, "group": "control_change"}, {"time": 593, "annotation": {"number": 64, "value": 127}, "group": "control_change"}, {"time": 608, "annotation": {"number": 64, "value": 0}, "group": "control_change"}, {"time": 616, "annotation": {"number": 64, "value": 127}, "group": "control_change"}, {"time": 631, "annotation": {"number": 64, "value": 0}, "group": "control_change"}, {"time": 640, "annotation": {"number": 64, "value": 127}, "group": "control_change"}, {"time": 655, "annotation": {"number": 64, "value": 0}, "group": "control_change"}, {"time": 659, "annotation": {"number": 64, "value": 127}, "group": "control_change"}, {"time": 669, "annotation": {"number": 64, "value": 0}, "group": "control_change"}, {"time": 672, "annotation": {"number": 64, "value": 127}, "group": "control_change"}, {"time": 680, "annotation": {"number": 64, "value": 0}, "group": "control_change"}, {"time": 686, "annotation": {"number": 64, "value": 127}, "group": "control_change"}, {"time": 687, "annotation": {"number": 64, "value": 0}, "group": "control_change"}, {"time": 687, "annotation": {"number": 64, "value": 127}, "group": "control_change"}, {"time": 703, "annotation": {"number": 64, "value": 0}, "group": "control_change"}, {"time": 711, "annotation": {"number": 64, "value": 127}, "group": "control_change"}, {"time": 727, "annotation": {"number": 64, "value": 0}, "group": "control_change"}, {"time": 735, "annotation": {"number": 64, "value": 127}, "group": "control_change"}, {"time": 754, "annotation": {"number": 64, "value": 0}, "group": "control_change"}, {"time": 755, "annotation": {"number": 64, "value": 127}, "group": "control_change"}, {"time": 764, "annotation": {"number": 64, "value": 0}, "group": "control_change"}, {"time": 785, "annotation": {"number": 64, "value": 127}, "group": "control_change"}, {"time": 785, "annotation": {"number": 64, "value": 0}, "group": "control_change"}, {"time": 825, "annotation": {"number": 64, "value": 0}, "group": "control_change"}, {"time": 832, "annotation": {"number": 64, "value": 127}, "group": "control_change"}, {"time": 850, "annotation": {"number": 64, "value": 0}, "group": "control_change"}, {"time": 856, "annotation": {"number": 64, "value": 127}, "group": "control_change"}, {"time": 874, "annotation": {"number": 64, "value": 0}, "group": "control_change"}, {"time": 880, "annotation": {"number": 64, "value": 127}, "group": "control_change"}, {"time": 901, "annotation": {"number": 64, "value": 0}, "group": "control_change"}, {"time": 904, "annotation": {"number": 64, "value": 127}, "group": "control_change"}, {"time": 904, "annotation": {"number": 64, "value": 0}, "group": "control_change"}, {"time": 921, "annotation": {"number": 64, "value": 0}, "group": "control_change"}, {"time": 928, "annotation": {"number": 64, "value": 127}, "group": "control_change"}, {"time": 948, "annotation": {"number": 64, "value": 0}, "group": "control_change"}, {"time": 970, "annotation": {"number": 64, "value": 127}, "group": "control_change"}, {"time": 970, "annotation": {"number": 64, "value": 0}, "group": "control_change"}, {"time": 971, "annotation": {"number": 64, "value": 127}, "group": "control_change"}, {"time": 992, "annotation": {"number": 64, "value": 0}, "group": "control_change"}, {"time": 996, "annotation": {"number": 64, "value": 127}, "group": "control_change"}, {"time": 1016, "annotation": {"number": 64, "value": 0}, "group": "control_change"}, {"time": 1019, "annotation": {"number": 64, "value": 127}, "group": "control_change"}, {"time": 1041, "annotation": {"number": 64, "value": 0}, "group": "control_change"}, {"time": 1043, "annotation": {"number": 64, "value": 127}, "group": "control_change"}, {"time": 1053, "annotation": {"number": 64, "value": 0}, "group": "control_change"}, {"time": 1055, "annotation": {"number": 64, "value": 127}, "group": "control_change"}, {"time": 1064, "annotation": {"number": 64, "value": 0}, "group": "control_change"}, {"time": 1071, "annotation": {"number": 64, "value": 127}, "group": "control_change"}, {"time": 1088, "annotation": {"number": 64, "value": 0}, "group": "control_change"}, {"time": 1095, "annotation": {"number": 64, "value": 127}, "group": "control_change"}, {"time": 1112, "annotation": {"number": 64, "value": 0}, "group": "control_change"}, {"time": 1117, "annotation": {"number": 64, "value": 127}, "group": "control_change"}, {"time": 1137, "annotation": {"number": 64, "value": 0}, "group": "control_change"}, {"time": 1140, "annotation": {"number": 64, "value": 127}, "group": "control_change"}, {"time": 1146, "annotation": {"number": 64, "value": 0}, "group": "control_change"}, {"time": 1162, "annotation": {"number": 64, "value": 127}, "group": "control_change"}, {"time": 1162, "annotation": {"number": 64, "value": 0}, "group": "control_change"}, {"time": 1163, "annotation": {"number": 64, "value": 127}, "group": "control_change"}, {"time": 1184, "annotation": {"number": 64, "value": 0}, "group": "control_change"}, {"time": 1188, "annotation": {"number": 64, "value": 127}, "group": "control_change"}, {"time": 1208, "annotation": {"number": 64, "value": 0}, "group": "control_change"}, {"time": 1211, "annotation": {"number": 64, "value": 127}, "group": "control_change"}, {"time": 1233, "annotation": {"number": 64, "value": 0}, "group": "control_change"}, {"time": 1235, "annotation": {"number": 64, "value": 127}, "group": "control_change"}, {"time": 1245, "annotation": {"number": 64, "value": 0}, "group": "control_change"}, {"time": 1247, "annotation": {"number": 64, "value": 127}, "group": "control_change"}, {"time": 1256, "annotation": {"number": 64, "value": 0}, "group": "control_change"}, {"time": 1263, "annotation": {"number": 64, "value": 127}, "group": "control_change"}, {"time": 1280, "annotation": {"number": 64, "value": 0}, "group": "control_change"}, {"time": 1287, "annotation": {"number": 64, "value": 127}, "group": "control_change"}, {"time": 1304, "annotation": {"number": 64, "value": 0}, "group": "control_change"}, {"time": 1505, "annotation": {"number": 64, "value": 127}, "group": "control_change"}, {"time": 1520, "annotation": {"number": 64, "value": 0}, "group": "control_change"}, {"time": 1528, "annotation": {"number": 64, "value": 127}, "group": "control_change"}, {"time": 1543, "annotation": {"number": 64, "value": 0}, "group": "control_change"}, {"time": 1552, "annotation": {"number": 64, "value": 127}, "group": "control_change"}, {"time": 1567, "annotation": {"number": 64, "value": 0}, "group": "control_change"}, {"time": 1571, "annotation": {"number": 64, "value": 127}, "group": "control_change"}, {"time": 1581, "annotation": {"number": 64, "value": 0}, "group": "control_change"}, {"time": 1584, "annotation": {"number": 64, "value": 127}, "group": "control_change"}, {"time": 1592, "annotation": {"number": 64, "value": 0}, "group": "control_change"}, {"time": 1598, "annotation": {"number": 64, "value": 127}, "group": "control_change"}, {"time": 1599, "annotation": {"number": 64, "value": 0}, "group": "control_change"}, {"time": 1599, "annotation": {"number": 64, "value": 127}, "group": "control_change"}, {"time": 1615, "annotation": {"number": 64, "value": 0}, "group": "control_change"}, {"time": 1623, "annotation": {"number": 64, "value": 127}, "group": "control_change"}, {"time": 1639, "annotation": {"number": 64, "value": 0}, "group": "control_change"}, {"time": 1646, "annotation": {"number": 64, "value": 127}, "group": "control_change"}, {"time": 1664, "annotation": {"number": 64, "value": 0}, "group": "control_change"}, {"time": 1667, "annotation": {"number": 64, "value": 127}, "group": "control_change"}, {"time": 1678, "annotation": {"number": 64, "value": 0}, "group": "control_change"}, {"time": 1697, "annotation": {"number": 64, "value": 127}, "group": "control_change"}, {"time": 1712, "annotation": {"number": 64, "value": 0}, "group": "control_change"}, {"time": 1720, "annotation": {"number": 64, "value": 127}, "group": "control_change"}, {"time": 1735, "annotation": {"number": 64, "value": 0}, "group": "control_change"}, {"time": 1744, "annotation": {"number": 64, "value": 127}, "group": "control_change"}, {"time": 1759, "annotation": {"number": 64, "value": 0}, "group": "control_change"}, {"time": 1763, "annotation": {"number": 64, "value": 127}, "group": "control_change"}, {"time": 1773, "annotation": {"number": 64, "value": 0}, "group": "control_change"}, {"time": 1776, "annotation": {"number": 64, "value": 127}, "group": "control_change"}, {"time": 1784, "annotation": {"number": 64, "value": 0}, "group": "control_change"}, {"time": 1790, "annotation": {"number": 64, "value": 127}, "group": "control_change"}, {"time": 1791, "annotation": {"number": 64, "value": 0}, "group": "control_change"}, {"time": 1791, "annotation": {"number": 64, "value": 127}, "group": "control_change"}, {"time": 1807, "annotation": {"number": 64, "value": 0}, "group": "control_change"}, {"time": 1815, "annotation": {"number": 64, "value": 127}, "group": "control_change"}, {"time": 1831, "annotation": {"number": 64, "value": 0}, "group": "control_change"}, {"time": 1839, "annotation": {"number": 64, "value": 127}, "group": "control_change"}, {"time": 1858, "annotation": {"number": 64, "value": 0}, "group": "control_change"}, {"time": 1859, "annotation": {"number": 64, "value": 127}, "group": "control_change"}, {"time": 1868, "annotation": {"number": 64, "value": 0}, "group": "control_change"}, {"time": 1889, "annotation": {"number": 64, "value": 127}, "group": "control_change"}, {"time": 1889, "annotation": {"number": 64, "value": 0}, "group": "control_change"}, {"time": 1929, "annotation": {"number": 64, "value": 0}, "group": "control_change"}, {"time": 1936, "annotation": {"number": 64, "value": 127}, "group": "control_change"}, {"time": 1954, "annotation": {"number": 64, "value": 0}, "group": "control_change"}, {"time": 1960, "annotation": {"number": 64, "value": 127}, "group": "control_change"}, {"time": 1978, "annotation": {"number": 64, "value": 0}, "group": "control_change"}, {"time": 1984, "annotation": {"number": 64, "value": 127}, "group": "control_change"}, {"time": 2005, "annotation": {"number": 64, "value": 0}, "group": "control_change"}, {"time": 2008, "annotation": {"number": 64, "value": 127}, "group": "control_change"}, {"time": 2008, "annotation": {"number": 64, "value": 0}, "group": "control_change"}, {"time": 2025, "annotation": {"number": 64, "value": 0}, "group": "control_change"}, {"time": 2032, "annotation": {"number": 64, "value": 127}, "group": "control_change"}, {"time": 2052, "annotation": {"number": 64, "value": 0}, "group": "control_change"}, {"time": 2074, "annotation": {"number": 64, "value": 127}, "group": "control_change"}, {"time": 2074, "annotation": {"number": 64, "value": 0}, "group": "control_change"}, {"time": 2075, "annotation": {"number": 64, "value": 127}, "group": "control_change"}, {"time": 2096, "annotation": {"number": 64, "value": 0}, "group": "control_change"}, {"time": 2100, "annotation": {"number": 64, "value": 127}, "group": "control_change"}, {"time": 2120, "annotation": {"number": 64, "value": 0}, "group": "control_change"}, {"time": 2123, "annotation": {"number": 64, "value": 127}, "group": "control_change"}, {"time": 2145, "annotation": {"number": 64, "value": 0}, "group": "control_change"}, {"time": 2147, "annotation": {"number": 64, "value": 127}, "group": "control_change"}, {"time": 2157, "annotation": {"number": 64, "value": 0}, "group": "control_change"}, {"time": 2159, "annotation": {"number": 64, "value": 127}, "group": "control_change"}, {"time": 2168, "annotation": {"number": 64, "value": 0}, "group": "control_change"}, {"time": 2175, "annotation": {"number": 64, "value": 127}, "group": "control_change"}, {"time": 2192, "annotation": {"number": 64, "value": 0}, "group": "control_change"}, {"time": 2199, "annotation": {"number": 64, "value": 127}, "group": "control_change"}, {"time": 2216, "annotation": {"number": 64, "value": 0}, "group": "control_change"}, {"time": 2221, "annotation": {"number": 64, "value": 127}, "group": "control_change"}, {"time": 2241, "annotation": {"number": 64, "value": 0}, "group": "control_change"}, {"time": 2244, "annotation": {"number": 64, "value": 127}, "group": "control_change"}, {"time": 2250, "annotation": {"number": 64, "value": 0}, "group": "control_change"}, {"time": 2266, "annotation": {"number": 64, "value": 127}, "group": "control_change"}, {"time": 2266, "annotation": {"number": 64, "value": 0}, "group": "control_change"}, {"time": 2267, "annotation": {"number": 64, "value": 127}, "group": "control_change"}, {"time": 2288, "annotation": {"number": 64, "value": 0}, "group": "control_change"}, {"time": 2292, "annotation": {"number": 64, "value": 127}, "group": "control_change"}, {"time": 2312, "annotation": {"number": 64, "value": 0}, "group": "control_change"}, {"time": 2315, "annotation": {"number": 64, "value": 127}, "group": "control_change"}, {"time": 2337, "annotation": {"number": 64, "value": 0}, "group": "control_change"}, {"time": 2339, "annotation": {"number": 64, "value": 127}, "group": "control_change"}, {"time": 2349, "annotation": {"number": 64, "value": 0}, "group": "control_change"}, {"time": 2351, "annotation": {"number": 64, "value": 127}, "group": "control_change"}, {"time": 2360, "annotation": {"number": 64, "value": 0}, "group": "control_change"}, {"time": 2367, "annotation": {"number": 64, "value": 127}, "group": "control_change"}, {"time": 2384, "annotation": {"number": 64, "value": 0}, "group": "control_change"}, {"time": 2391, "annotation": {"number": 64, "value": 127}, "group": "control_change"}, {"time": 2408, "annotation": {"number": 64, "value": 0}, "group": "control_change"}, {"time": 2411, "annotation": {"number": 64, "value": 127}, "group": "control_change"}, {"time": 2456, "annotation": {"number": 64, "value": 0}, "group": "control_change"}, {"time": 2460, "annotation": {"number": 64, "value": 127}, "group": "control_change"}, {"time": 2480, "annotation": {"number": 64, "value": 0}, "group": "control_change"}, {"time": 2483, "annotation": {"number": 64, "value": 127}, "group": "control_change"}, {"time": 2504, "annotation": {"number": 64, "value": 0}, "group": "control_change"}, {"time": 2508, "annotation": {"number": 64, "value": 127}, "group": "control_change"}, {"time": 2529, "annotation": {"number": 64, "value": 0}, "group": "control_change"}, {"time": 2531, "annotation": {"number": 64, "value": 127}, "group": "control_change"}, {"time": 2552, "annotation": {"number": 64, "value": 0}, "group": "control_change"}, {"time": 2560, "annotation": {"number": 64, "value": 127}, "group": "control_change"}, {"time": 2576, "annotation": {"number": 64, "value": 0}, "group": "control_change"}, {"time": 2579, "annotation": {"number": 64, "value": 127}, "group": "control_change"}, {"time": 2599, "annotation": {"number": 64, "value": 0}, "group": "control_change"}, {"time": 2603, "annotation": {"number": 64, "value": 127}, "group": "control_change"}, {"time": 2624, "annotation": {"number": 64, "value": 0}, "group": "control_change"}, {"time": 2626, "annotation": {"number": 64, "value": 127}, "group": "control_change"}, {"time": 2647, "annotation": {"number": 64, "value": 0}, "group": "control_change"}, {"time": 2650, "annotation": {"number": 64, "value": 127}, "group": "control_change"}, {"time": 2671, "annotation": {"number": 64, "value": 0}, "group": "control_change"}, {"time": 2674, "annotation": {"number": 64, "value": 127}, "group": "control_change"}, {"time": 2696, "annotation": {"number": 64, "value": 0}, "group": "control_change"}, {"time": 2698, "annotation": {"number": 64, "value": 127}, "group": "control_change"}, {"time": 2721, "annotation": {"number": 64, "value": 0}, "group": "control_change"}, {"time": 2721, "annotation": {"number": 64, "value": 127}, "group": "control_change"}, {"time": 2745, "annotation": {"number": 64, "value": 0}, "group": "control_change"}, {"time": 2746, "annotation": {"number": 64, "value": 127}, "group": "control_change"}, {"time": 2758, "annotation": {"number": 64, "value": 0}, "group": "control_change"}, {"time": 2794, "annotation": {"number": 64, "value": 127}, "group": "control_change"}, {"time": 2794, "annotation": {"number": 64, "value": 0}, "group": "control_change"}, {"time": 2795, "annotation": {"number": 64, "value": 127}, "group": "control_change"}, {"time": 2816, "annotation": {"number": 64, "value": 0}, "group": "control_change"}, {"time": 2820, "annotation": {"number": 64, "value": 127}, "group": "control_change"}, {"time": 2840, "annotation": {"number": 64, "value": 0}, "group": "control_change"}, {"time": 2843, "annotation": {"number": 64, "value": 127}, "group": "control_change"}, {"time": 2865, "annotation": {"number": 64, "value": 0}, "group": "control_change"}, {"time": 2867, "annotation": {"number": 64, "value": 127}, "group": "control_change"}, {"time": 2877, "annotation": {"number": 64, "value": 0}, "group": "control_change"}, {"time": 2879, "annotation": {"number": 64, "value": 127}, "group": "control_change"}, {"time": 2888, "annotation": {"number": 64, "value": 0}, "group": "control_change"}, {"time": 2895, "annotation": {"number": 64, "value": 127}, "group": "control_change"}, {"time": 2912, "annotation": {"number": 64, "value": 0}, "group": "control_change"}, {"time": 2919, "annotation": {"number": 64, "value": 127}, "group": "control_change"}, {"time": 2936, "annotation": {"number": 64, "value": 0}, "group": "control_change"}, {"time": 2941, "annotation": {"number": 64, "value": 127}, "group": "control_change"}, {"time": 2961, "annotation": {"number": 64, "value": 0}, "group": "control_change"}, {"time": 2964, "annotation": {"number": 64, "value": 127}, "group": "control_change"}, {"time": 2970, "annotation": {"number": 64, "value": 0}, "group": "control_change"}, {"time": 2986, "annotation": {"number": 64, "value": 127}, "group": "control_change"}, {"time": 2986, "annotation": {"number": 64, "value": 0}, "group": "control_change"}, {"time": 2987, "annotation": {"number": 64, "value": 127}, "group": "control_change"}, {"time": 3008, "annotation": {"number": 64, "value": 0}, "group": "control_change"}, {"time": 3012, "annotation": {"number": 64, "value": 127}, "group": "control_change"}, {"time": 3032, "annotation": {"number": 64, "value": 0}, "group": "control_change"}, {"time": 3035, "annotation": {"number": 64, "value": 127}, "group": "control_change"}, {"time": 3057, "annotation": {"number": 64, "value": 0}, "group": "control_change"}, {"time": 3059, "annotation": {"number": 64, "value": 127}, "group": "control_change"}, {"time": 3069, "annotation": {"number": 64, "value": 0}, "group": "control_change"}, {"time": 3071, "annotation": {"number": 64, "value": 127}, "group": "control_change"}, {"time": 3080, "annotation": {"number": 64, "value": 0}, "group": "control_change"}, {"time": 3087, "annotation": {"number": 64, "value": 127}, "group": "control_change"}, {"time": 3104, "annotation": {"number": 64, "value": 0}, "group": "control_change"}, {"time": 3111, "annotation": {"number": 64, "value": 127}, "group": "control_change"}, {"time": 3128, "annotation": {"number": 64, "value": 0}, "group": "control_change"}, {"time": 3130, "annotation": {"number": 64, "value": 127}, "group": "control_change"}, {"time": 3131, "annotation": {"number": 64, "value": 0}, "group": "control_change"}, {"time": 3131, "annotation": {"number": 64, "value": 127}, "group": "control_change"}, {"time": 3137, "annotation": {"number": 64, "value": 0}, "group": "control_change"}, {"time": 3139, "annotation": {"number": 64, "value": 127}, "group": "control_change"}, {"time": 3147, "annotation": {"number": 64, "value": 0}, "group": "control_change"}, {"time": 3148, "annotation": {"number": 64, "value": 127}, "group": "control_change"}, {"time": 3156, "annotation": {"number": 64, "value": 0}, "group": "control_change"}, {"time": 3157, "annotation": {"number": 64, "value": 127}, "group": "control_change"}, {"time": 3164, "annotation": {"number": 64, "value": 0}, "group": "control_change"}, {"time": 3166, "annotation": {"number": 64, "value": 127}, "group": "control_change"}, {"time": 3175, "annotation": {"number": 64, "value": 0}, "group": "control_change"}, {"time": 3178, "annotation": {"number": 64, "value": 127}, "group": "control_change"}, {"time": 3178, "annotation": {"number": 64, "value": 0}, "group": "control_change"}, {"time": 3179, "annotation": {"number": 64, "value": 127}, "group": "control_change"}, {"time": 3200, "annotation": {"number": 64, "value": 0}, "group": "control_change"}, {"time": 3204, "annotation": {"number": 64, "value": 127}, "group": "control_change"}, {"time": 3224, "annotation": {"number": 64, "value": 0}, "group": "control_change"}, {"time": 3227, "annotation": {"number": 64, "value": 127}, "group": "control_change"}, {"time": 3249, "annotation": {"number": 64, "value": 0}, "group": "control_change"}, {"time": 3251, "annotation": {"number": 64, "value": 127}, "group": "control_change"}, {"time": 3261, "annotation": {"number": 64, "value": 0}, "group": "control_change"}, {"time": 3263, "annotation": {"number": 64, "value": 127}, "group": "control_change"}, {"time": 3272, "annotation": {"number": 64, "value": 0}, "group": "control_change"}, {"time": 3279, "annotation": {"number": 64, "value": 127}, "group": "control_change"}, {"time": 3296, "annotation": {"number": 64, "value": 0}, "group": "control_change"}, {"time": 3303, "annotation": {"number": 64, "value": 127}, "group": "control_change"}, {"time": 3320, "annotation": {"number": 64, "value": 0}, "group": "control_change"}, {"time": 3325, "annotation": {"number": 64, "value": 127}, "group": "control_change"}, {"time": 3345, "annotation": {"number": 64, "value": 0}, "group": "control_change"}, {"time": 3348, "annotation": {"number": 64, "value": 127}, "group": "control_change"}, {"time": 3354, "annotation": {"number": 64, "value": 0}, "group": "control_change"}, {"time": 3370, "annotation": {"number": 64, "value": 127}, "group": "control_change"}, {"time": 3370, "annotation": {"number": 64, "value": 0}, "group": "control_change"}, {"time": 3371, "annotation": {"number": 64, "value": 127}, "group": "control_change"}, {"time": 3392, "annotation": {"number": 64, "value": 0}, "group": "control_change"}, {"time": 3396, "annotation": {"number": 64, "value": 127}, "group": "control_change"}, {"time": 3416, "annotation": {"number": 64, "value": 0}, "group": "control_change"}, {"time": 3419, "annotation": {"number": 64, "value": 127}, "group": "control_change"}, {"time": 3441, "annotation": {"number": 64, "value": 0}, "group": "control_change"}, {"time": 3442, "annotation": {"number": 64, "value": 127}, "group": "control_change"}, {"time": 3488, "annotation": {"number": 64, "value": 0}, "group": "control_change"}, {"time": 3503, "annotation": {"number": 64, "value": 127}, "group": "control_change"}, {"time": 3516, "annotation": {"number": 64, "value": 0}, "group": "control_change"}, {"time": 3535, "annotation": {"number": 64, "value": 127}, "group": "control_change"}, {"time": 3591, "annotation": {"number": 64, "value": 0}, "group": "control_change"}, {"time": 3604, "annotation": {"number": 64, "value": 127}, "group": "control_change"}, {"time": 3616, "annotation": {"number": 64, "value": 0}, "group": "control_change"}, {"time": 3779, "annotation": {"number": 64, "value": 127}, "group": "control_change"}, {"time": 3779, "annotation": {"number": 64, "value": 0}, "group": "control_change"}, {"time": 3806, "annotation": {"number": 64, "value": 0}, "group": "control_change"}, {"time": 3808, "annotation": {"number": 64, "value": 127}, "group": "control_change"}, {"time": 3865, "annotation": {"number": 64, "value": 0}, "group": "control_change"}, {"time": 3868, "annotation": {"number": 64, "value": 127}, "group": "control_change"}, {"time": 3941, "annotation": {"number": 64, "value": 0}, "group": "control_change"}]}]}