{"metadata": {"schema_version": "0.2", "title": "None", "source_filename": "511.mid", "source_format": "midi"}, "resolution": 12, "tempos": [{"time": 0, "qpm": 67.5000675000675}, {"time": 2196, "qpm": 65.50003820835562}, {"time": 2196, "qpm": 63.50005979588964}, {"time": 2199, "qpm": 62.25002723438691}, {"time": 2202, "qpm": 61.500047662536936}, {"time": 2206, "qpm": 60.0}, {"time": 2208, "qpm": 55.75000952395996}, {"time": 2212, "qpm": 54.7500205312577}, {"time": 2217, "qpm": 53.25002662501331}, {"time": 2220, "qpm": 52.2500163281301}, {"time": 2223, "qpm": 51.00002550001275}, {"time": 2226, "qpm": 50.25003580315051}, {"time": 2244, "qpm": 67.5000675000675}, {"time": 3708, "qpm": 58.00004253336452}, {"time": 3732, "qpm": 66.25002760417817}], "time_signatures": [{"time": 0, "numerator": 1, "denominator": 4}], "tracks": [{"program": 0, "is_drum": false, "name": "MELODY", "notes": [{"time": 306, "pitch": 64, "duration": 3, "velocity": 93}, {"time": 309, "pitch": 66, "duration": 7, "velocity": 85}, {"time": 318, "pitch": 68, "duration": 3, "velocity": 96}, {"time": 321, "pitch": 68, "duration": 8, "velocity": 94}, {"time": 330, "pitch": 68, "duration": 2, "velocity": 99}, {"time": 333, "pitch": 66, "duration": 2, "velocity": 90}, {"time": 336, "pitch": 66, "duration": 2, "velocity": 91}, {"time": 339, "pitch": 68, "duration": 11, "velocity": 96}, {"time": 363, "pitch": 59, "duration": 3, "velocity": 90}, {"time": 366, "pitch": 64, "duration": 3, "velocity": 92}, {"time": 369, "pitch": 61, "duration": 20, "velocity": 88}, {"time": 408, "pitch": 64, "duration": 2, "velocity": 95}, {"time": 411, "pitch": 66, "duration": 2, "velocity": 92}, {"time": 414, "pitch": 66, "duration": 2, "velocity": 81}, {"time": 417, "pitch": 68, "duration": 8, "velocity": 91}, {"time": 426, "pitch": 68, "duration": 2, "velocity": 95}, {"time": 429, "pitch": 66, "duration": 2, "velocity": 85}, {"time": 432, "pitch": 71, "duration": 2, "velocity": 92}, {"time": 435, "pitch": 68, "duration": 11, "velocity": 91}, {"time": 450, "pitch": 71, "duration": 6, "velocity": 93}, {"time": 456, "pitch": 68, "duration": 3, "velocity": 89}, {"time": 459, "pitch": 64, "duration": 2, "velocity": 90}, {"time": 462, "pitch": 61, "duration": 27, "velocity": 85}, {"time": 501, "pitch": 71, "duration": 2, "velocity": 92}, {"time": 504, "pitch": 71, "duration": 2, "velocity": 94}, {"time": 507, "pitch": 68, "duration": 2, "velocity": 94}, {"time": 510, "pitch": 71, "duration": 11, "velocity": 92}, {"time": 522, "pitch": 71, "duration": 4, "velocity": 95}, {"time": 528, "pitch": 73, "duration": 2, "velocity": 92}, {"time": 531, "pitch": 71, "duration": 12, "velocity": 91}, {"time": 552, "pitch": 64, "duration": 2, "velocity": 93}, {"time": 555, "pitch": 66, "duration": 4, "velocity": 91}, {"time": 561, "pitch": 61, "duration": 15, "velocity": 87}, {"time": 600, "pitch": 64, "duration": 2, "velocity": 94}, {"time": 603, "pitch": 66, "duration": 2, "velocity": 91}, {"time": 606, "pitch": 68, "duration": 2, "velocity": 93}, {"time": 609, "pitch": 66, "duration": 2, "velocity": 95}, {"time": 612, "pitch": 68, "duration": 2, "velocity": 94}, {"time": 615, "pitch": 59, "duration": 10, "velocity": 92}, {"time": 639, "pitch": 59, "duration": 2, "velocity": 91}, {"time": 642, "pitch": 59, "duration": 2, "velocity": 92}, {"time": 645, "pitch": 66, "duration": 9, "velocity": 90}, {"time": 654, "pitch": 64, "duration": 24, "velocity": 93}, {"time": 690, "pitch": 64, "duration": 3, "velocity": 93}, {"time": 693, "pitch": 66, "duration": 7, "velocity": 85}, {"time": 702, "pitch": 66, "duration": 3, "velocity": 96}, {"time": 705, "pitch": 68, "duration": 6, "velocity": 94}, {"time": 711, "pitch": 68, "duration": 2, "velocity": 91}, {"time": 714, "pitch": 68, "duration": 2, "velocity": 91}, {"time": 720, "pitch": 66, "duration": 2, "velocity": 93}, {"time": 723, "pitch": 71, "duration": 6, "velocity": 96}, {"time": 732, "pitch": 68, "duration": 3, "velocity": 93}, {"time": 735, "pitch": 68, "duration": 3, "velocity": 93}, {"time": 738, "pitch": 68, "duration": 5, "velocity": 92}, {"time": 744, "pitch": 66, "duration": 2, "velocity": 92}, {"time": 747, "pitch": 64, "duration": 6, "velocity": 96}, {"time": 753, "pitch": 61, "duration": 15, "velocity": 92}, {"time": 792, "pitch": 64, "duration": 2, "velocity": 95}, {"time": 795, "pitch": 66, "duration": 2, "velocity": 92}, {"time": 798, "pitch": 66, "duration": 2, "velocity": 81}, {"time": 801, "pitch": 68, "duration": 8, "velocity": 91}, {"time": 810, "pitch": 68, "duration": 2, "velocity": 95}, {"time": 813, "pitch": 59, "duration": 6, "velocity": 85}, {"time": 822, "pitch": 71, "duration": 2, "velocity": 92}, {"time": 825, "pitch": 68, "duration": 11, "velocity": 91}, {"time": 843, "pitch": 59, "duration": 2, "velocity": 92}, {"time": 846, "pitch": 64, "duration": 2, "velocity": 92}, {"time": 849, "pitch": 61, "duration": 14, "velocity": 90}, {"time": 885, "pitch": 71, "duration": 2, "velocity": 92}, {"time": 888, "pitch": 71, "duration": 2, "velocity": 94}, {"time": 891, "pitch": 68, "duration": 2, "velocity": 94}, {"time": 894, "pitch": 71, "duration": 11, "velocity": 92}, {"time": 906, "pitch": 71, "duration": 4, "velocity": 95}, {"time": 912, "pitch": 68, "duration": 2, "velocity": 91}, {"time": 915, "pitch": 68, "duration": 5, "velocity": 90}, {"time": 921, "pitch": 71, "duration": 11, "velocity": 91}, {"time": 939, "pitch": 59, "duration": 2, "velocity": 93}, {"time": 942, "pitch": 64, "duration": 4, "velocity": 91}, {"time": 948, "pitch": 61, "duration": 15, "velocity": 87}, {"time": 984, "pitch": 64, "duration": 2, "velocity": 94}, {"time": 987, "pitch": 66, "duration": 2, "velocity": 91}, {"time": 990, "pitch": 68, "duration": 2, "velocity": 93}, {"time": 993, "pitch": 59, "duration": 18, "velocity": 92}, {"time": 1026, "pitch": 59, "duration": 2, "velocity": 92}, {"time": 1029, "pitch": 66, "duration": 9, "velocity": 90}, {"time": 1038, "pitch": 64, "duration": 24, "velocity": 93}, {"time": 1071, "pitch": 68, "duration": 2, "velocity": 94}, {"time": 1074, "pitch": 68, "duration": 2, "velocity": 89}, {"time": 1077, "pitch": 71, "duration": 5, "velocity": 92}, {"time": 1083, "pitch": 71, "duration": 2, "velocity": 91}, {"time": 1086, "pitch": 71, "duration": 2, "velocity": 96}, {"time": 1089, "pitch": 73, "duration": 14, "velocity": 94}, {"time": 1107, "pitch": 71, "duration": 2, "velocity": 94}, {"time": 1110, "pitch": 73, "duration": 2, "velocity": 94}, {"time": 1113, "pitch": 76, "duration": 3, "velocity": 92}, {"time": 1119, "pitch": 76, "duration": 2, "velocity": 92}, {"time": 1122, "pitch": 76, "duration": 4, "velocity": 93}, {"time": 1128, "pitch": 73, "duration": 2, "velocity": 92}, {"time": 1131, "pitch": 68, "duration": 2, "velocity": 96}, {"time": 1134, "pitch": 71, "duration": 12, "velocity": 92}, {"time": 1167, "pitch": 68, "duration": 2, "velocity": 94}, {"time": 1170, "pitch": 68, "duration": 2, "velocity": 91}, {"time": 1176, "pitch": 71, "duration": 2, "velocity": 92}, {"time": 1179, "pitch": 71, "duration": 2, "velocity": 94}, {"time": 1182, "pitch": 71, "duration": 2, "velocity": 94}, {"time": 1185, "pitch": 73, "duration": 2, "velocity": 90}, {"time": 1188, "pitch": 73, "duration": 2, "velocity": 86}, {"time": 1191, "pitch": 73, "duration": 2, "velocity": 86}, {"time": 1194, "pitch": 73, "duration": 4, "velocity": 96}, {"time": 1200, "pitch": 71, "duration": 2, "velocity": 92}, {"time": 1203, "pitch": 78, "duration": 4, "velocity": 93}, {"time": 1209, "pitch": 76, "duration": 5, "velocity": 97}, {"time": 1218, "pitch": 73, "duration": 4, "velocity": 94}, {"time": 1224, "pitch": 71, "duration": 2, "velocity": 94}, {"time": 1227, "pitch": 66, "duration": 2, "velocity": 94}, {"time": 1230, "pitch": 68, "duration": 18, "velocity": 92}, {"time": 1269, "pitch": 68, "duration": 2, "velocity": 90}, {"time": 1272, "pitch": 66, "duration": 2, "velocity": 99}, {"time": 1275, "pitch": 64, "duration": 2, "velocity": 94}, {"time": 1278, "pitch": 66, "duration": 4, "velocity": 96}, {"time": 1284, "pitch": 68, "duration": 2, "velocity": 96}, {"time": 1287, "pitch": 66, "duration": 9, "velocity": 97}, {"time": 1296, "pitch": 64, "duration": 2, "velocity": 94}, {"time": 1299, "pitch": 66, "duration": 7, "velocity": 91}, {"time": 1308, "pitch": 59, "duration": 1, "velocity": 90}, {"time": 1311, "pitch": 59, "duration": 2, "velocity": 93}, {"time": 1314, "pitch": 73, "duration": 4, "velocity": 94}, {"time": 1320, "pitch": 71, "duration": 2, "velocity": 92}, {"time": 1323, "pitch": 68, "duration": 2, "velocity": 92}, {"time": 1326, "pitch": 66, "duration": 3, "velocity": 94}, {"time": 1329, "pitch": 68, "duration": 14, "velocity": 94}, {"time": 1365, "pitch": 68, "duration": 2, "velocity": 101}, {"time": 1368, "pitch": 66, "duration": 2, "velocity": 94}, {"time": 1371, "pitch": 64, "duration": 2, "velocity": 91}, {"time": 1374, "pitch": 66, "duration": 2, "velocity": 91}, {"time": 1377, "pitch": 66, "duration": 5, "velocity": 85}, {"time": 1386, "pitch": 66, "duration": 4, "velocity": 95}, {"time": 1389, "pitch": 64, "duration": 2, "velocity": 93}, {"time": 1392, "pitch": 66, "duration": 12, "velocity": 94}, {"time": 1410, "pitch": 61, "duration": 5, "velocity": 94}, {"time": 1416, "pitch": 64, "duration": 2, "velocity": 96}, {"time": 1419, "pitch": 66, "duration": 2, "velocity": 91}, {"time": 1422, "pitch": 64, "duration": 33, "velocity": 96}, {"time": 1842, "pitch": 64, "duration": 3, "velocity": 93}, {"time": 1845, "pitch": 66, "duration": 7, "velocity": 85}, {"time": 1854, "pitch": 66, "duration": 3, "velocity": 96}, {"time": 1857, "pitch": 68, "duration": 6, "velocity": 94}, {"time": 1863, "pitch": 68, "duration": 2, "velocity": 91}, {"time": 1866, "pitch": 68, "duration": 2, "velocity": 91}, {"time": 1872, "pitch": 66, "duration": 2, "velocity": 93}, {"time": 1875, "pitch": 71, "duration": 6, "velocity": 96}, {"time": 1884, "pitch": 68, "duration": 3, "velocity": 93}, {"time": 1887, "pitch": 68, "duration": 3, "velocity": 93}, {"time": 1890, "pitch": 68, "duration": 5, "velocity": 92}, {"time": 1896, "pitch": 66, "duration": 2, "velocity": 92}, {"time": 1899, "pitch": 64, "duration": 6, "velocity": 96}, {"time": 1905, "pitch": 61, "duration": 15, "velocity": 92}, {"time": 1944, "pitch": 64, "duration": 2, "velocity": 95}, {"time": 1947, "pitch": 66, "duration": 2, "velocity": 92}, {"time": 1950, "pitch": 66, "duration": 2, "velocity": 81}, {"time": 1953, "pitch": 68, "duration": 8, "velocity": 91}, {"time": 1962, "pitch": 68, "duration": 2, "velocity": 95}, {"time": 1965, "pitch": 59, "duration": 6, "velocity": 85}, {"time": 1974, "pitch": 71, "duration": 2, "velocity": 92}, {"time": 1977, "pitch": 68, "duration": 11, "velocity": 91}, {"time": 1995, "pitch": 59, "duration": 2, "velocity": 92}, {"time": 1998, "pitch": 64, "duration": 2, "velocity": 92}, {"time": 2001, "pitch": 61, "duration": 14, "velocity": 90}, {"time": 2037, "pitch": 71, "duration": 2, "velocity": 92}, {"time": 2040, "pitch": 71, "duration": 2, "velocity": 94}, {"time": 2043, "pitch": 68, "duration": 2, "velocity": 94}, {"time": 2046, "pitch": 71, "duration": 11, "velocity": 92}, {"time": 2058, "pitch": 71, "duration": 4, "velocity": 95}, {"time": 2064, "pitch": 68, "duration": 2, "velocity": 91}, {"time": 2067, "pitch": 68, "duration": 5, "velocity": 90}, {"time": 2073, "pitch": 71, "duration": 11, "velocity": 91}, {"time": 2091, "pitch": 59, "duration": 2, "velocity": 93}, {"time": 2094, "pitch": 64, "duration": 4, "velocity": 91}, {"time": 2100, "pitch": 61, "duration": 15, "velocity": 87}, {"time": 2136, "pitch": 64, "duration": 2, "velocity": 94}, {"time": 2139, "pitch": 66, "duration": 2, "velocity": 91}, {"time": 2142, "pitch": 68, "duration": 2, "velocity": 93}, {"time": 2145, "pitch": 59, "duration": 18, "velocity": 92}, {"time": 2178, "pitch": 59, "duration": 2, "velocity": 92}, {"time": 2181, "pitch": 66, "duration": 9, "velocity": 90}, {"time": 2190, "pitch": 64, "duration": 24, "velocity": 93}, {"time": 2223, "pitch": 68, "duration": 2, "velocity": 94}, {"time": 2226, "pitch": 68, "duration": 2, "velocity": 89}, {"time": 2229, "pitch": 71, "duration": 5, "velocity": 92}, {"time": 2235, "pitch": 71, "duration": 2, "velocity": 91}, {"time": 2238, "pitch": 71, "duration": 2, "velocity": 96}, {"time": 2241, "pitch": 73, "duration": 14, "velocity": 94}, {"time": 2259, "pitch": 71, "duration": 2, "velocity": 94}, {"time": 2262, "pitch": 73, "duration": 2, "velocity": 94}, {"time": 2265, "pitch": 76, "duration": 3, "velocity": 92}, {"time": 2271, "pitch": 76, "duration": 2, "velocity": 92}, {"time": 2274, "pitch": 76, "duration": 4, "velocity": 93}, {"time": 2280, "pitch": 73, "duration": 2, "velocity": 92}, {"time": 2283, "pitch": 68, "duration": 2, "velocity": 96}, {"time": 2286, "pitch": 71, "duration": 12, "velocity": 92}, {"time": 2319, "pitch": 68, "duration": 2, "velocity": 94}, {"time": 2322, "pitch": 68, "duration": 2, "velocity": 91}, {"time": 2328, "pitch": 71, "duration": 2, "velocity": 92}, {"time": 2331, "pitch": 71, "duration": 2, "velocity": 94}, {"time": 2334, "pitch": 71, "duration": 2, "velocity": 94}, {"time": 2337, "pitch": 73, "duration": 2, "velocity": 90}, {"time": 2340, "pitch": 73, "duration": 2, "velocity": 86}, {"time": 2343, "pitch": 73, "duration": 2, "velocity": 86}, {"time": 2346, "pitch": 73, "duration": 4, "velocity": 96}, {"time": 2352, "pitch": 71, "duration": 2, "velocity": 92}, {"time": 2355, "pitch": 78, "duration": 4, "velocity": 93}, {"time": 2361, "pitch": 76, "duration": 5, "velocity": 97}, {"time": 2370, "pitch": 73, "duration": 4, "velocity": 94}, {"time": 2376, "pitch": 71, "duration": 2, "velocity": 94}, {"time": 2379, "pitch": 66, "duration": 2, "velocity": 94}, {"time": 2382, "pitch": 68, "duration": 18, "velocity": 92}, {"time": 2421, "pitch": 68, "duration": 2, "velocity": 90}, {"time": 2424, "pitch": 66, "duration": 2, "velocity": 99}, {"time": 2427, "pitch": 64, "duration": 2, "velocity": 94}, {"time": 2430, "pitch": 66, "duration": 4, "velocity": 96}, {"time": 2436, "pitch": 68, "duration": 2, "velocity": 96}, {"time": 2439, "pitch": 66, "duration": 9, "velocity": 97}, {"time": 2448, "pitch": 64, "duration": 2, "velocity": 94}, {"time": 2451, "pitch": 66, "duration": 7, "velocity": 91}, {"time": 2460, "pitch": 59, "duration": 1, "velocity": 90}, {"time": 2463, "pitch": 59, "duration": 2, "velocity": 93}, {"time": 2466, "pitch": 73, "duration": 4, "velocity": 94}, {"time": 2472, "pitch": 71, "duration": 2, "velocity": 92}, {"time": 2475, "pitch": 68, "duration": 2, "velocity": 92}, {"time": 2478, "pitch": 66, "duration": 3, "velocity": 94}, {"time": 2481, "pitch": 68, "duration": 14, "velocity": 94}, {"time": 2517, "pitch": 68, "duration": 2, "velocity": 101}, {"time": 2520, "pitch": 66, "duration": 2, "velocity": 94}, {"time": 2523, "pitch": 64, "duration": 2, "velocity": 91}, {"time": 2526, "pitch": 66, "duration": 2, "velocity": 91}, {"time": 2529, "pitch": 66, "duration": 5, "velocity": 85}, {"time": 2538, "pitch": 66, "duration": 4, "velocity": 95}, {"time": 2541, "pitch": 64, "duration": 2, "velocity": 93}, {"time": 2544, "pitch": 66, "duration": 12, "velocity": 94}, {"time": 2562, "pitch": 61, "duration": 5, "velocity": 94}, {"time": 2568, "pitch": 64, "duration": 2, "velocity": 96}, {"time": 2571, "pitch": 66, "duration": 2, "velocity": 91}, {"time": 2574, "pitch": 64, "duration": 33, "velocity": 96}, {"time": 3375, "pitch": 68, "duration": 2, "velocity": 94}, {"time": 3378, "pitch": 68, "duration": 2, "velocity": 89}, {"time": 3381, "pitch": 71, "duration": 5, "velocity": 92}, {"time": 3387, "pitch": 71, "duration": 2, "velocity": 91}, {"time": 3390, "pitch": 71, "duration": 2, "velocity": 96}, {"time": 3393, "pitch": 73, "duration": 14, "velocity": 94}, {"time": 3411, "pitch": 71, "duration": 2, "velocity": 94}, {"time": 3414, "pitch": 73, "duration": 2, "velocity": 94}, {"time": 3417, "pitch": 76, "duration": 3, "velocity": 92}, {"time": 3423, "pitch": 76, "duration": 2, "velocity": 92}, {"time": 3426, "pitch": 76, "duration": 4, "velocity": 93}, {"time": 3432, "pitch": 73, "duration": 2, "velocity": 92}, {"time": 3435, "pitch": 68, "duration": 2, "velocity": 96}, {"time": 3438, "pitch": 71, "duration": 12, "velocity": 92}, {"time": 3471, "pitch": 68, "duration": 2, "velocity": 94}, {"time": 3474, "pitch": 68, "duration": 2, "velocity": 91}, {"time": 3480, "pitch": 71, "duration": 2, "velocity": 92}, {"time": 3483, "pitch": 71, "duration": 2, "velocity": 94}, {"time": 3486, "pitch": 71, "duration": 2, "velocity": 94}, {"time": 3489, "pitch": 73, "duration": 2, "velocity": 90}, {"time": 3492, "pitch": 73, "duration": 2, "velocity": 86}, {"time": 3495, "pitch": 73, "duration": 2, "velocity": 86}, {"time": 3498, "pitch": 73, "duration": 4, "velocity": 96}, {"time": 3504, "pitch": 71, "duration": 2, "velocity": 92}, {"time": 3507, "pitch": 78, "duration": 4, "velocity": 93}, {"time": 3513, "pitch": 76, "duration": 5, "velocity": 97}, {"time": 3522, "pitch": 73, "duration": 4, "velocity": 94}, {"time": 3528, "pitch": 71, "duration": 2, "velocity": 94}, {"time": 3531, "pitch": 66, "duration": 2, "velocity": 94}, {"time": 3534, "pitch": 68, "duration": 18, "velocity": 92}, {"time": 3573, "pitch": 68, "duration": 2, "velocity": 90}, {"time": 3576, "pitch": 66, "duration": 2, "velocity": 99}, {"time": 3579, "pitch": 64, "duration": 2, "velocity": 94}, {"time": 3582, "pitch": 66, "duration": 4, "velocity": 96}, {"time": 3588, "pitch": 68, "duration": 2, "velocity": 96}, {"time": 3591, "pitch": 66, "duration": 9, "velocity": 97}, {"time": 3600, "pitch": 64, "duration": 2, "velocity": 94}, {"time": 3603, "pitch": 66, "duration": 7, "velocity": 91}, {"time": 3612, "pitch": 59, "duration": 1, "velocity": 90}, {"time": 3615, "pitch": 59, "duration": 2, "velocity": 93}, {"time": 3618, "pitch": 73, "duration": 4, "velocity": 94}, {"time": 3624, "pitch": 71, "duration": 2, "velocity": 92}, {"time": 3627, "pitch": 68, "duration": 2, "velocity": 92}, {"time": 3630, "pitch": 66, "duration": 3, "velocity": 94}, {"time": 3633, "pitch": 68, "duration": 14, "velocity": 94}, {"time": 3669, "pitch": 68, "duration": 2, "velocity": 101}, {"time": 3672, "pitch": 66, "duration": 2, "velocity": 94}, {"time": 3675, "pitch": 64, "duration": 2, "velocity": 91}, {"time": 3678, "pitch": 66, "duration": 2, "velocity": 91}, {"time": 3681, "pitch": 66, "duration": 5, "velocity": 85}, {"time": 3690, "pitch": 66, "duration": 4, "velocity": 95}, {"time": 3693, "pitch": 64, "duration": 2, "velocity": 93}, {"time": 3696, "pitch": 66, "duration": 12, "velocity": 94}, {"time": 3714, "pitch": 61, "duration": 5, "velocity": 94}, {"time": 3720, "pitch": 64, "duration": 2, "velocity": 96}, {"time": 3723, "pitch": 66, "duration": 2, "velocity": 91}, {"time": 3726, "pitch": 64, "duration": 33, "velocity": 96}, {"time": 3762, "pitch": 64, "duration": 3, "velocity": 93}, {"time": 3765, "pitch": 66, "duration": 7, "velocity": 85}, {"time": 3774, "pitch": 68, "duration": 3, "velocity": 96}, {"time": 3777, "pitch": 68, "duration": 8, "velocity": 94}, {"time": 3786, "pitch": 68, "duration": 2, "velocity": 99}, {"time": 3789, "pitch": 66, "duration": 2, "velocity": 90}, {"time": 3792, "pitch": 66, "duration": 2, "velocity": 91}, {"time": 3795, "pitch": 68, "duration": 11, "velocity": 96}, {"time": 3819, "pitch": 59, "duration": 3, "velocity": 90}, {"time": 3822, "pitch": 64, "duration": 3, "velocity": 92}, {"time": 3825, "pitch": 61, "duration": 20, "velocity": 88}, {"time": 3864, "pitch": 64, "duration": 2, "velocity": 95}, {"time": 3867, "pitch": 66, "duration": 2, "velocity": 92}, {"time": 3870, "pitch": 66, "duration": 2, "velocity": 81}, {"time": 3873, "pitch": 68, "duration": 8, "velocity": 91}, {"time": 3882, "pitch": 68, "duration": 2, "velocity": 95}, {"time": 3885, "pitch": 66, "duration": 2, "velocity": 85}, {"time": 3888, "pitch": 71, "duration": 2, "velocity": 92}, {"time": 3891, "pitch": 68, "duration": 11, "velocity": 91}, {"time": 3906, "pitch": 71, "duration": 6, "velocity": 93}, {"time": 3912, "pitch": 68, "duration": 3, "velocity": 89}, {"time": 3915, "pitch": 64, "duration": 2, "velocity": 90}, {"time": 3918, "pitch": 61, "duration": 27, "velocity": 85}, {"time": 3957, "pitch": 71, "duration": 2, "velocity": 92}, {"time": 3960, "pitch": 71, "duration": 2, "velocity": 94}, {"time": 3963, "pitch": 68, "duration": 2, "velocity": 94}, {"time": 3966, "pitch": 71, "duration": 11, "velocity": 92}, {"time": 3978, "pitch": 71, "duration": 4, "velocity": 95}, {"time": 3984, "pitch": 73, "duration": 2, "velocity": 92}, {"time": 3987, "pitch": 71, "duration": 12, "velocity": 91}, {"time": 4008, "pitch": 64, "duration": 2, "velocity": 93}, {"time": 4011, "pitch": 66, "duration": 4, "velocity": 91}, {"time": 4017, "pitch": 61, "duration": 15, "velocity": 87}, {"time": 4058, "pitch": 64, "duration": 3, "velocity": 90}, {"time": 4062, "pitch": 66, "duration": 2, "velocity": 90}, {"time": 4065, "pitch": 68, "duration": 3, "velocity": 90}, {"time": 4069, "pitch": 66, "duration": 2, "velocity": 90}, {"time": 4073, "pitch": 68, "duration": 2, "velocity": 97}, {"time": 4077, "pitch": 59, "duration": 19, "velocity": 92}, {"time": 4112, "pitch": 59, "duration": 4, "velocity": 92}, {"time": 4117, "pitch": 59, "duration": 3, "velocity": 94}, {"time": 4121, "pitch": 66, "duration": 13, "velocity": 80}, {"time": 4133, "pitch": 64, "duration": 33, "velocity": 92}]}, {"program": 0, "is_drum": false, "name": "PIANO", "notes": [{"time": 126, "pitch": 40, "duration": 40, "velocity": 92}, {"time": 126, "pitch": 64, "duration": 8, "velocity": 91}, {"time": 126, "pitch": 68, "duration": 9, "velocity": 87}, {"time": 132, "pitch": 47, "duration": 33, "velocity": 69}, {"time": 138, "pitch": 64, "duration": 2, "velocity": 87}, {"time": 138, "pitch": 68, "duration": 7, "velocity": 83}, {"time": 144, "pitch": 64, "duration": 3, "velocity": 78}, {"time": 150, "pitch": 64, "duration": 3, "velocity": 76}, {"time": 150, "pitch": 68, "duration": 3, "velocity": 73}, {"time": 162, "pitch": 64, "duration": 5, "velocity": 90}, {"time": 162, "pitch": 68, "duration": 5, "velocity": 96}, {"time": 168, "pitch": 40, "duration": 6, "velocity": 86}, {"time": 174, "pitch": 45, "duration": 47, "velocity": 86}, {"time": 174, "pitch": 64, "duration": 4, "velocity": 86}, {"time": 174, "pitch": 67, "duration": 1, "velocity": 79}, {"time": 174, "pitch": 69, "duration": 10, "velocity": 77}, {"time": 174, "pitch": 73, "duration": 9, "velocity": 79}, {"time": 180, "pitch": 64, "duration": 5, "velocity": 84}, {"time": 186, "pitch": 64, "duration": 3, "velocity": 83}, {"time": 186, "pitch": 69, "duration": 9, "velocity": 84}, {"time": 192, "pitch": 64, "duration": 4, "velocity": 77}, {"time": 198, "pitch": 64, "duration": 2, "velocity": 73}, {"time": 198, "pitch": 69, "duration": 9, "velocity": 70}, {"time": 204, "pitch": 64, "duration": 3, "velocity": 64}, {"time": 210, "pitch": 64, "duration": 8, "velocity": 95}, {"time": 210, "pitch": 69, "duration": 6, "velocity": 94}, {"time": 216, "pitch": 71, "duration": 4, "velocity": 78}, {"time": 222, "pitch": 40, "duration": 47, "velocity": 90}, {"time": 222, "pitch": 64, "duration": 4, "velocity": 90}, {"time": 222, "pitch": 68, "duration": 7, "velocity": 82}, {"time": 228, "pitch": 64, "duration": 4, "velocity": 73}, {"time": 234, "pitch": 64, "duration": 2, "velocity": 81}, {"time": 234, "pitch": 68, "duration": 3, "velocity": 74}, {"time": 234, "pitch": 71, "duration": 3, "velocity": 82}, {"time": 246, "pitch": 64, "duration": 2, "velocity": 82}, {"time": 246, "pitch": 68, "duration": 9, "velocity": 81}, {"time": 252, "pitch": 64, "duration": 3, "velocity": 75}, {"time": 258, "pitch": 64, "duration": 3, "velocity": 94}, {"time": 258, "pitch": 68, "duration": 7, "velocity": 95}, {"time": 264, "pitch": 64, "duration": 4, "velocity": 86}, {"time": 270, "pitch": 45, "duration": 48, "velocity": 91}, {"time": 270, "pitch": 64, "duration": 3, "velocity": 90}, {"time": 270, "pitch": 69, "duration": 9, "velocity": 90}, {"time": 276, "pitch": 64, "duration": 4, "velocity": 81}, {"time": 282, "pitch": 64, "duration": 2, "velocity": 77}, {"time": 282, "pitch": 69, "duration": 9, "velocity": 75}, {"time": 288, "pitch": 64, "duration": 4, "velocity": 75}, {"time": 294, "pitch": 64, "duration": 9, "velocity": 76}, {"time": 294, "pitch": 69, "duration": 10, "velocity": 76}, {"time": 306, "pitch": 64, "duration": 11, "velocity": 84}, {"time": 306, "pitch": 69, "duration": 11, "velocity": 82}, {"time": 318, "pitch": 40, "duration": 43, "velocity": 92}, {"time": 318, "pitch": 64, "duration": 6, "velocity": 90}, {"time": 318, "pitch": 68, "duration": 6, "velocity": 80}, {"time": 324, "pitch": 59, "duration": 6, "velocity": 77}, {"time": 330, "pitch": 64, "duration": 2, "velocity": 92}, {"time": 330, "pitch": 68, "duration": 2, "velocity": 92}, {"time": 336, "pitch": 59, "duration": 7, "velocity": 79}, {"time": 342, "pitch": 64, "duration": 11, "velocity": 90}, {"time": 342, "pitch": 68, "duration": 11, "velocity": 81}, {"time": 354, "pitch": 64, "duration": 6, "velocity": 90}, {"time": 354, "pitch": 68, "duration": 6, "velocity": 94}, {"time": 360, "pitch": 59, "duration": 2, "velocity": 90}, {"time": 366, "pitch": 45, "duration": 38, "velocity": 91}, {"time": 366, "pitch": 57, "duration": 7, "velocity": 84}, {"time": 366, "pitch": 61, "duration": 6, "velocity": 80}, {"time": 366, "pitch": 64, "duration": 6, "velocity": 88}, {"time": 372, "pitch": 52, "duration": 31, "velocity": 78}, {"time": 378, "pitch": 61, "duration": 4, "velocity": 80}, {"time": 378, "pitch": 64, "duration": 4, "velocity": 90}, {"time": 384, "pitch": 57, "duration": 6, "velocity": 59}, {"time": 390, "pitch": 61, "duration": 3, "velocity": 76}, {"time": 390, "pitch": 64, "duration": 3, "velocity": 83}, {"time": 390, "pitch": 69, "duration": 3, "velocity": 85}, {"time": 396, "pitch": 57, "duration": 3, "velocity": 36}, {"time": 402, "pitch": 61, "duration": 2, "velocity": 94}, {"time": 402, "pitch": 64, "duration": 4, "velocity": 94}, {"time": 408, "pitch": 57, "duration": 1, "velocity": 76}, {"time": 414, "pitch": 40, "duration": 37, "velocity": 91}, {"time": 414, "pitch": 64, "duration": 8, "velocity": 89}, {"time": 414, "pitch": 68, "duration": 8, "velocity": 82}, {"time": 420, "pitch": 59, "duration": 6, "velocity": 70}, {"time": 426, "pitch": 64, "duration": 1, "velocity": 87}, {"time": 426, "pitch": 68, "duration": 2, "velocity": 84}, {"time": 432, "pitch": 59, "duration": 3, "velocity": 70}, {"time": 438, "pitch": 64, "duration": 2, "velocity": 88}, {"time": 438, "pitch": 68, "duration": 2, "velocity": 78}, {"time": 450, "pitch": 64, "duration": 2, "velocity": 93}, {"time": 450, "pitch": 68, "duration": 5, "velocity": 92}, {"time": 456, "pitch": 59, "duration": 1, "velocity": 91}, {"time": 462, "pitch": 45, "duration": 30, "velocity": 91}, {"time": 462, "pitch": 57, "duration": 11, "velocity": 78}, {"time": 462, "pitch": 61, "duration": 9, "velocity": 79}, {"time": 462, "pitch": 64, "duration": 9, "velocity": 84}, {"time": 468, "pitch": 52, "duration": 24, "velocity": 78}, {"time": 474, "pitch": 61, "duration": 2, "velocity": 74}, {"time": 474, "pitch": 64, "duration": 2, "velocity": 84}, {"time": 480, "pitch": 57, "duration": 5, "velocity": 54}, {"time": 486, "pitch": 61, "duration": 2, "velocity": 80}, {"time": 486, "pitch": 64, "duration": 2, "velocity": 90}, {"time": 486, "pitch": 69, "duration": 3, "velocity": 86}, {"time": 498, "pitch": 61, "duration": 4, "velocity": 90}, {"time": 498, "pitch": 64, "duration": 4, "velocity": 92}, {"time": 498, "pitch": 69, "duration": 4, "velocity": 91}, {"time": 510, "pitch": 40, "duration": 39, "velocity": 93}, {"time": 516, "pitch": 52, "duration": 7, "velocity": 96}, {"time": 522, "pitch": 56, "duration": 3, "velocity": 87}, {"time": 522, "pitch": 59, "duration": 4, "velocity": 89}, {"time": 522, "pitch": 64, "duration": 3, "velocity": 91}, {"time": 528, "pitch": 52, "duration": 6, "velocity": 70}, {"time": 534, "pitch": 56, "duration": 3, "velocity": 72}, {"time": 534, "pitch": 59, "duration": 3, "velocity": 75}, {"time": 534, "pitch": 64, "duration": 4, "velocity": 77}, {"time": 540, "pitch": 52, "duration": 5, "velocity": 74}, {"time": 546, "pitch": 56, "duration": 4, "velocity": 91}, {"time": 546, "pitch": 59, "duration": 4, "velocity": 90}, {"time": 546, "pitch": 64, "duration": 4, "velocity": 91}, {"time": 558, "pitch": 45, "duration": 40, "velocity": 90}, {"time": 558, "pitch": 57, "duration": 8, "velocity": 79}, {"time": 558, "pitch": 61, "duration": 7, "velocity": 82}, {"time": 558, "pitch": 64, "duration": 8, "velocity": 85}, {"time": 564, "pitch": 52, "duration": 33, "velocity": 79}, {"time": 570, "pitch": 61, "duration": 2, "velocity": 88}, {"time": 570, "pitch": 64, "duration": 2, "velocity": 90}, {"time": 576, "pitch": 57, "duration": 7, "velocity": 71}, {"time": 582, "pitch": 61, "duration": 2, "velocity": 78}, {"time": 582, "pitch": 64, "duration": 2, "velocity": 90}, {"time": 582, "pitch": 69, "duration": 3, "velocity": 87}, {"time": 594, "pitch": 61, "duration": 5, "velocity": 90}, {"time": 594, "pitch": 64, "duration": 5, "velocity": 91}, {"time": 594, "pitch": 69, "duration": 4, "velocity": 89}, {"time": 600, "pitch": 57, "duration": 1, "velocity": 91}, {"time": 606, "pitch": 40, "duration": 14, "velocity": 91}, {"time": 606, "pitch": 52, "duration": 12, "velocity": 82}, {"time": 606, "pitch": 56, "duration": 8, "velocity": 72}, {"time": 606, "pitch": 59, "duration": 9, "velocity": 84}, {"time": 612, "pitch": 47, "duration": 8, "velocity": 71}, {"time": 618, "pitch": 56, "duration": 4, "velocity": 86}, {"time": 618, "pitch": 59, "duration": 4, "velocity": 88}, {"time": 618, "pitch": 64, "duration": 12, "velocity": 91}, {"time": 624, "pitch": 52, "duration": 5, "velocity": 92}, {"time": 630, "pitch": 47, "duration": 16, "velocity": 93}, {"time": 636, "pitch": 59, "duration": 7, "velocity": 85}, {"time": 642, "pitch": 63, "duration": 4, "velocity": 86}, {"time": 642, "pitch": 66, "duration": 7, "velocity": 81}, {"time": 648, "pitch": 59, "duration": 4, "velocity": 91}, {"time": 654, "pitch": 40, "duration": 49, "velocity": 91}, {"time": 654, "pitch": 59, "duration": 3, "velocity": 82}, {"time": 654, "pitch": 64, "duration": 8, "velocity": 89}, {"time": 660, "pitch": 59, "duration": 7, "velocity": 81}, {"time": 666, "pitch": 64, "duration": 2, "velocity": 86}, {"time": 666, "pitch": 68, "duration": 2, "velocity": 71}, {"time": 672, "pitch": 59, "duration": 8, "velocity": 72}, {"time": 678, "pitch": 64, "duration": 9, "velocity": 83}, {"time": 678, "pitch": 68, "duration": 5, "velocity": 76}, {"time": 684, "pitch": 59, "duration": 5, "velocity": 68}, {"time": 690, "pitch": 64, "duration": 2, "velocity": 88}, {"time": 690, "pitch": 69, "duration": 3, "velocity": 90}, {"time": 693, "pitch": 68, "duration": 3, "velocity": 82}, {"time": 696, "pitch": 64, "duration": 4, "velocity": 86}, {"time": 699, "pitch": 59, "duration": 3, "velocity": 80}, {"time": 702, "pitch": 40, "duration": 1, "velocity": 92}, {"time": 702, "pitch": 59, "duration": 4, "velocity": 84}, {"time": 702, "pitch": 64, "duration": 6, "velocity": 90}, {"time": 708, "pitch": 47, "duration": 30, "velocity": 78}, {"time": 714, "pitch": 59, "duration": 2, "velocity": 91}, {"time": 714, "pitch": 68, "duration": 2, "velocity": 94}, {"time": 723, "pitch": 59, "duration": 2, "velocity": 84}, {"time": 723, "pitch": 64, "duration": 2, "velocity": 90}, {"time": 729, "pitch": 59, "duration": 2, "velocity": 85}, {"time": 729, "pitch": 68, "duration": 3, "velocity": 86}, {"time": 738, "pitch": 59, "duration": 4, "velocity": 92}, {"time": 738, "pitch": 64, "duration": 4, "velocity": 95}, {"time": 741, "pitch": 47, "duration": 5, "velocity": 82}, {"time": 744, "pitch": 59, "duration": 7, "velocity": 93}, {"time": 747, "pitch": 64, "duration": 4, "velocity": 90}, {"time": 750, "pitch": 45, "duration": 44, "velocity": 92}, {"time": 756, "pitch": 52, "duration": 8, "velocity": 79}, {"time": 762, "pitch": 57, "duration": 3, "velocity": 82}, {"time": 762, "pitch": 61, "duration": 3, "velocity": 87}, {"time": 762, "pitch": 64, "duration": 3, "velocity": 91}, {"time": 768, "pitch": 52, "duration": 22, "velocity": 70}, {"time": 771, "pitch": 57, "duration": 2, "velocity": 88}, {"time": 771, "pitch": 69, "duration": 2, "velocity": 90}, {"time": 777, "pitch": 64, "duration": 4, "velocity": 90}, {"time": 780, "pitch": 57, "duration": 2, "velocity": 85}, {"time": 789, "pitch": 57, "duration": 2, "velocity": 93}, {"time": 789, "pitch": 61, "duration": 3, "velocity": 101}, {"time": 789, "pitch": 64, "duration": 3, "velocity": 99}, {"time": 792, "pitch": 52, "duration": 2, "velocity": 86}, {"time": 795, "pitch": 57, "duration": 1, "velocity": 86}, {"time": 798, "pitch": 40, "duration": 42, "velocity": 92}, {"time": 798, "pitch": 59, "duration": 4, "velocity": 84}, {"time": 798, "pitch": 64, "duration": 4, "velocity": 90}, {"time": 804, "pitch": 47, "duration": 32, "velocity": 78}, {"time": 810, "pitch": 59, "duration": 2, "velocity": 90}, {"time": 810, "pitch": 64, "duration": 2, "velocity": 90}, {"time": 810, "pitch": 68, "duration": 2, "velocity": 88}, {"time": 819, "pitch": 59, "duration": 2, "velocity": 89}, {"time": 819, "pitch": 68, "duration": 2, "velocity": 86}, {"time": 825, "pitch": 59, "duration": 2, "velocity": 82}, {"time": 825, "pitch": 64, "duration": 3, "velocity": 89}, {"time": 828, "pitch": 59, "duration": 1, "velocity": 64}, {"time": 834, "pitch": 59, "duration": 2, "velocity": 91}, {"time": 834, "pitch": 64, "duration": 2, "velocity": 95}, {"time": 834, "pitch": 68, "duration": 3, "velocity": 92}, {"time": 837, "pitch": 47, "duration": 3, "velocity": 85}, {"time": 840, "pitch": 59, "duration": 8, "velocity": 93}, {"time": 843, "pitch": 64, "duration": 4, "velocity": 88}, {"time": 846, "pitch": 45, "duration": 41, "velocity": 92}, {"time": 852, "pitch": 52, "duration": 9, "velocity": 79}, {"time": 858, "pitch": 57, "duration": 7, "velocity": 90}, {"time": 858, "pitch": 61, "duration": 6, "velocity": 91}, {"time": 858, "pitch": 64, "duration": 7, "velocity": 92}, {"time": 864, "pitch": 52, "duration": 4, "velocity": 72}, {"time": 867, "pitch": 57, "duration": 3, "velocity": 82}, {"time": 867, "pitch": 61, "duration": 4, "velocity": 81}, {"time": 867, "pitch": 64, "duration": 4, "velocity": 90}, {"time": 867, "pitch": 69, "duration": 4, "velocity": 85}, {"time": 873, "pitch": 61, "duration": 5, "velocity": 79}, {"time": 876, "pitch": 52, "duration": 7, "velocity": 81}, {"time": 879, "pitch": 57, "duration": 1, "velocity": 61}, {"time": 882, "pitch": 57, "duration": 3, "velocity": 86}, {"time": 882, "pitch": 61, "duration": 4, "velocity": 90}, {"time": 882, "pitch": 64, "duration": 5, "velocity": 92}, {"time": 885, "pitch": 52, "duration": 2, "velocity": 84}, {"time": 888, "pitch": 57, "duration": 1, "velocity": 88}, {"time": 894, "pitch": 40, "duration": 21, "velocity": 91}, {"time": 894, "pitch": 52, "duration": 11, "velocity": 87}, {"time": 894, "pitch": 59, "duration": 9, "velocity": 83}, {"time": 900, "pitch": 47, "duration": 15, "velocity": 73}, {"time": 906, "pitch": 56, "duration": 2, "velocity": 90}, {"time": 906, "pitch": 59, "duration": 2, "velocity": 91}, {"time": 915, "pitch": 52, "duration": 3, "velocity": 90}, {"time": 915, "pitch": 56, "duration": 3, "velocity": 84}, {"time": 915, "pitch": 64, "duration": 3, "velocity": 91}, {"time": 921, "pitch": 52, "duration": 3, "velocity": 85}, {"time": 921, "pitch": 59, "duration": 4, "velocity": 85}, {"time": 924, "pitch": 52, "duration": 2, "velocity": 77}, {"time": 924, "pitch": 56, "duration": 2, "velocity": 76}, {"time": 930, "pitch": 52, "duration": 3, "velocity": 92}, {"time": 930, "pitch": 56, "duration": 3, "velocity": 91}, {"time": 930, "pitch": 59, "duration": 4, "velocity": 91}, {"time": 930, "pitch": 64, "duration": 5, "velocity": 91}, {"time": 942, "pitch": 45, "duration": 39, "velocity": 90}, {"time": 942, "pitch": 57, "duration": 7, "velocity": 85}, {"time": 942, "pitch": 61, "duration": 9, "velocity": 79}, {"time": 942, "pitch": 64, "duration": 10, "velocity": 90}, {"time": 948, "pitch": 52, "duration": 33, "velocity": 83}, {"time": 954, "pitch": 57, "duration": 2, "velocity": 90}, {"time": 954, "pitch": 69, "duration": 2, "velocity": 88}, {"time": 960, "pitch": 57, "duration": 1, "velocity": 82}, {"time": 963, "pitch": 57, "duration": 2, "velocity": 90}, {"time": 963, "pitch": 64, "duration": 2, "velocity": 92}, {"time": 969, "pitch": 57, "duration": 2, "velocity": 82}, {"time": 969, "pitch": 61, "duration": 2, "velocity": 79}, {"time": 969, "pitch": 64, "duration": 2, "velocity": 90}, {"time": 975, "pitch": 57, "duration": 2, "velocity": 72}, {"time": 978, "pitch": 57, "duration": 4, "velocity": 84}, {"time": 978, "pitch": 61, "duration": 4, "velocity": 77}, {"time": 978, "pitch": 64, "duration": 4, "velocity": 90}, {"time": 978, "pitch": 69, "duration": 4, "velocity": 87}, {"time": 990, "pitch": 40, "duration": 16, "velocity": 93}, {"time": 990, "pitch": 52, "duration": 8, "velocity": 90}, {"time": 990, "pitch": 56, "duration": 7, "velocity": 82}, {"time": 990, "pitch": 59, "duration": 7, "velocity": 86}, {"time": 996, "pitch": 47, "duration": 7, "velocity": 73}, {"time": 1002, "pitch": 52, "duration": 3, "velocity": 91}, {"time": 1002, "pitch": 56, "duration": 3, "velocity": 91}, {"time": 1002, "pitch": 59, "duration": 4, "velocity": 90}, {"time": 1002, "pitch": 64, "duration": 4, "velocity": 91}, {"time": 1005, "pitch": 47, "duration": 2, "velocity": 83}, {"time": 1008, "pitch": 52, "duration": 2, "velocity": 90}, {"time": 1014, "pitch": 47, "duration": 15, "velocity": 91}, {"time": 1014, "pitch": 59, "duration": 10, "velocity": 87}, {"time": 1014, "pitch": 63, "duration": 9, "velocity": 82}, {"time": 1026, "pitch": 59, "duration": 4, "velocity": 91}, {"time": 1026, "pitch": 63, "duration": 4, "velocity": 91}, {"time": 1026, "pitch": 66, "duration": 5, "velocity": 82}, {"time": 1029, "pitch": 54, "duration": 1, "velocity": 77}, {"time": 1032, "pitch": 59, "duration": 3, "velocity": 92}, {"time": 1038, "pitch": 40, "duration": 37, "velocity": 92}, {"time": 1038, "pitch": 59, "duration": 5, "velocity": 85}, {"time": 1038, "pitch": 64, "duration": 4, "velocity": 87}, {"time": 1044, "pitch": 47, "duration": 8, "velocity": 75}, {"time": 1050, "pitch": 52, "duration": 3, "velocity": 85}, {"time": 1050, "pitch": 56, "duration": 3, "velocity": 78}, {"time": 1050, "pitch": 59, "duration": 3, "velocity": 84}, {"time": 1056, "pitch": 47, "duration": 3, "velocity": 63}, {"time": 1059, "pitch": 52, "duration": 3, "velocity": 90}, {"time": 1059, "pitch": 56, "duration": 3, "velocity": 86}, {"time": 1059, "pitch": 59, "duration": 3, "velocity": 89}, {"time": 1059, "pitch": 64, "duration": 3, "velocity": 91}, {"time": 1062, "pitch": 47, "duration": 3, "velocity": 78}, {"time": 1065, "pitch": 52, "duration": 3, "velocity": 97}, {"time": 1065, "pitch": 56, "duration": 4, "velocity": 90}, {"time": 1065, "pitch": 59, "duration": 4, "velocity": 92}, {"time": 1068, "pitch": 47, "duration": 7, "velocity": 83}, {"time": 1071, "pitch": 52, "duration": 2, "velocity": 93}, {"time": 1071, "pitch": 59, "duration": 1, "velocity": 71}, {"time": 1074, "pitch": 52, "duration": 3, "velocity": 96}, {"time": 1074, "pitch": 56, "duration": 4, "velocity": 95}, {"time": 1074, "pitch": 59, "duration": 4, "velocity": 95}, {"time": 1074, "pitch": 64, "duration": 4, "velocity": 92}, {"time": 1077, "pitch": 47, "duration": 2, "velocity": 96}, {"time": 1080, "pitch": 40, "duration": 2, "velocity": 93}, {"time": 1086, "pitch": 45, "duration": 39, "velocity": 96}, {"time": 1086, "pitch": 57, "duration": 9, "velocity": 90}, {"time": 1086, "pitch": 61, "duration": 8, "velocity": 84}, {"time": 1086, "pitch": 64, "duration": 8, "velocity": 90}, {"time": 1092, "pitch": 52, "duration": 8, "velocity": 83}, {"time": 1098, "pitch": 57, "duration": 3, "velocity": 88}, {"time": 1098, "pitch": 61, "duration": 2, "velocity": 91}, {"time": 1098, "pitch": 64, "duration": 2, "velocity": 92}, {"time": 1107, "pitch": 57, "duration": 3, "velocity": 89}, {"time": 1107, "pitch": 61, "duration": 2, "velocity": 87}, {"time": 1107, "pitch": 64, "duration": 2, "velocity": 91}, {"time": 1107, "pitch": 69, "duration": 2, "velocity": 85}, {"time": 1113, "pitch": 61, "duration": 3, "velocity": 78}, {"time": 1113, "pitch": 64, "duration": 2, "velocity": 79}, {"time": 1116, "pitch": 52, "duration": 7, "velocity": 82}, {"time": 1122, "pitch": 57, "duration": 2, "velocity": 91}, {"time": 1122, "pitch": 61, "duration": 2, "velocity": 91}, {"time": 1122, "pitch": 64, "duration": 2, "velocity": 94}, {"time": 1134, "pitch": 40, "duration": 40, "velocity": 93}, {"time": 1134, "pitch": 52, "duration": 8, "velocity": 85}, {"time": 1134, "pitch": 56, "duration": 7, "velocity": 75}, {"time": 1134, "pitch": 59, "duration": 7, "velocity": 82}, {"time": 1140, "pitch": 47, "duration": 31, "velocity": 77}, {"time": 1146, "pitch": 52, "duration": 1, "velocity": 93}, {"time": 1146, "pitch": 64, "duration": 1, "velocity": 93}, {"time": 1155, "pitch": 52, "duration": 2, "velocity": 91}, {"time": 1155, "pitch": 59, "duration": 1, "velocity": 90}, {"time": 1161, "pitch": 52, "duration": 2, "velocity": 90}, {"time": 1161, "pitch": 59, "duration": 2, "velocity": 86}, {"time": 1167, "pitch": 52, "duration": 1, "velocity": 84}, {"time": 1170, "pitch": 52, "duration": 3, "velocity": 95}, {"time": 1170, "pitch": 56, "duration": 3, "velocity": 97}, {"time": 1170, "pitch": 59, "duration": 4, "velocity": 92}, {"time": 1173, "pitch": 47, "duration": 2, "velocity": 94}, {"time": 1176, "pitch": 52, "duration": 1, "velocity": 95}, {"time": 1182, "pitch": 45, "duration": 40, "velocity": 91}, {"time": 1182, "pitch": 57, "duration": 8, "velocity": 86}, {"time": 1182, "pitch": 61, "duration": 8, "velocity": 83}, {"time": 1185, "pitch": 52, "duration": 31, "velocity": 77}, {"time": 1194, "pitch": 57, "duration": 1, "velocity": 93}, {"time": 1194, "pitch": 64, "duration": 2, "velocity": 94}, {"time": 1200, "pitch": 57, "duration": 1, "velocity": 86}, {"time": 1203, "pitch": 57, "duration": 2, "velocity": 91}, {"time": 1203, "pitch": 69, "duration": 2, "velocity": 90}, {"time": 1209, "pitch": 57, "duration": 2, "velocity": 90}, {"time": 1209, "pitch": 64, "duration": 2, "velocity": 92}, {"time": 1215, "pitch": 57, "duration": 1, "velocity": 77}, {"time": 1218, "pitch": 57, "duration": 3, "velocity": 90}, {"time": 1218, "pitch": 61, "duration": 3, "velocity": 90}, {"time": 1221, "pitch": 52, "duration": 2, "velocity": 92}, {"time": 1224, "pitch": 57, "duration": 2, "velocity": 93}, {"time": 1230, "pitch": 40, "duration": 39, "velocity": 91}, {"time": 1230, "pitch": 52, "duration": 10, "velocity": 76}, {"time": 1230, "pitch": 56, "duration": 9, "velocity": 81}, {"time": 1236, "pitch": 47, "duration": 11, "velocity": 78}, {"time": 1242, "pitch": 56, "duration": 2, "velocity": 92}, {"time": 1242, "pitch": 59, "duration": 2, "velocity": 91}, {"time": 1248, "pitch": 47, "duration": 19, "velocity": 67}, {"time": 1251, "pitch": 52, "duration": 2, "velocity": 91}, {"time": 1251, "pitch": 56, "duration": 2, "velocity": 82}, {"time": 1251, "pitch": 59, "duration": 2, "velocity": 87}, {"time": 1251, "pitch": 64, "duration": 2, "velocity": 91}, {"time": 1257, "pitch": 52, "duration": 2, "velocity": 91}, {"time": 1257, "pitch": 59, "duration": 2, "velocity": 90}, {"time": 1263, "pitch": 52, "duration": 1, "velocity": 90}, {"time": 1266, "pitch": 52, "duration": 3, "velocity": 92}, {"time": 1266, "pitch": 59, "duration": 3, "velocity": 91}, {"time": 1269, "pitch": 47, "duration": 2, "velocity": 91}, {"time": 1272, "pitch": 52, "duration": 1, "velocity": 96}, {"time": 1278, "pitch": 47, "duration": 15, "velocity": 92}, {"time": 1278, "pitch": 59, "duration": 9, "velocity": 86}, {"time": 1278, "pitch": 63, "duration": 9, "velocity": 83}, {"time": 1290, "pitch": 59, "duration": 3, "velocity": 90}, {"time": 1290, "pitch": 63, "duration": 2, "velocity": 90}, {"time": 1290, "pitch": 66, "duration": 3, "velocity": 85}, {"time": 1296, "pitch": 54, "duration": 3, "velocity": 74}, {"time": 1299, "pitch": 59, "duration": 3, "velocity": 90}, {"time": 1299, "pitch": 63, "duration": 3, "velocity": 85}, {"time": 1299, "pitch": 66, "duration": 3, "velocity": 81}, {"time": 1305, "pitch": 59, "duration": 3, "velocity": 91}, {"time": 1305, "pitch": 66, "duration": 3, "velocity": 90}, {"time": 1308, "pitch": 54, "duration": 5, "velocity": 86}, {"time": 1311, "pitch": 59, "duration": 2, "velocity": 90}, {"time": 1314, "pitch": 59, "duration": 3, "velocity": 91}, {"time": 1314, "pitch": 63, "duration": 3, "velocity": 95}, {"time": 1314, "pitch": 66, "duration": 2, "velocity": 79}, {"time": 1317, "pitch": 51, "duration": 1, "velocity": 73}, {"time": 1320, "pitch": 51, "duration": 1, "velocity": 84}, {"time": 1326, "pitch": 37, "duration": 37, "velocity": 95}, {"time": 1326, "pitch": 61, "duration": 7, "velocity": 85}, {"time": 1326, "pitch": 64, "duration": 8, "velocity": 92}, {"time": 1332, "pitch": 44, "duration": 30, "velocity": 65}, {"time": 1338, "pitch": 61, "duration": 2, "velocity": 90}, {"time": 1338, "pitch": 64, "duration": 1, "velocity": 95}, {"time": 1338, "pitch": 68, "duration": 2, "velocity": 89}, {"time": 1347, "pitch": 61, "duration": 2, "velocity": 93}, {"time": 1347, "pitch": 68, "duration": 1, "velocity": 96}, {"time": 1353, "pitch": 61, "duration": 2, "velocity": 90}, {"time": 1353, "pitch": 64, "duration": 3, "velocity": 92}, {"time": 1359, "pitch": 61, "duration": 2, "velocity": 79}, {"time": 1362, "pitch": 61, "duration": 3, "velocity": 101}, {"time": 1362, "pitch": 64, "duration": 3, "velocity": 104}, {"time": 1365, "pitch": 44, "duration": 2, "velocity": 92}, {"time": 1368, "pitch": 37, "duration": 1, "velocity": 90}, {"time": 1374, "pitch": 45, "duration": 16, "velocity": 90}, {"time": 1374, "pitch": 57, "duration": 8, "velocity": 89}, {"time": 1374, "pitch": 61, "duration": 9, "velocity": 86}, {"time": 1380, "pitch": 52, "duration": 7, "velocity": 86}, {"time": 1386, "pitch": 57, "duration": 3, "velocity": 91}, {"time": 1386, "pitch": 61, "duration": 4, "velocity": 96}, {"time": 1386, "pitch": 64, "duration": 4, "velocity": 96}, {"time": 1389, "pitch": 52, "duration": 2, "velocity": 91}, {"time": 1392, "pitch": 57, "duration": 2, "velocity": 92}, {"time": 1398, "pitch": 47, "duration": 17, "velocity": 92}, {"time": 1398, "pitch": 59, "duration": 7, "velocity": 90}, {"time": 1398, "pitch": 63, "duration": 8, "velocity": 85}, {"time": 1404, "pitch": 54, "duration": 7, "velocity": 82}, {"time": 1407, "pitch": 59, "duration": 2, "velocity": 91}, {"time": 1410, "pitch": 59, "duration": 4, "velocity": 92}, {"time": 1410, "pitch": 63, "duration": 5, "velocity": 92}, {"time": 1410, "pitch": 66, "duration": 5, "velocity": 88}, {"time": 1413, "pitch": 54, "duration": 2, "velocity": 83}, {"time": 1416, "pitch": 59, "duration": 2, "velocity": 89}, {"time": 1422, "pitch": 45, "duration": 42, "velocity": 91}, {"time": 1422, "pitch": 57, "duration": 10, "velocity": 83}, {"time": 1422, "pitch": 61, "duration": 8, "velocity": 79}, {"time": 1428, "pitch": 52, "duration": 8, "velocity": 77}, {"time": 1434, "pitch": 57, "duration": 3, "velocity": 89}, {"time": 1434, "pitch": 61, "duration": 3, "velocity": 91}, {"time": 1434, "pitch": 64, "duration": 2, "velocity": 91}, {"time": 1437, "pitch": 52, "duration": 13, "velocity": 81}, {"time": 1440, "pitch": 57, "duration": 1, "velocity": 75}, {"time": 1443, "pitch": 57, "duration": 3, "velocity": 81}, {"time": 1443, "pitch": 61, "duration": 2, "velocity": 91}, {"time": 1443, "pitch": 64, "duration": 2, "velocity": 91}, {"time": 1449, "pitch": 57, "duration": 2, "velocity": 80}, {"time": 1449, "pitch": 64, "duration": 2, "velocity": 90}, {"time": 1452, "pitch": 52, "duration": 7, "velocity": 79}, {"time": 1455, "pitch": 59, "duration": 2, "velocity": 82}, {"time": 1458, "pitch": 57, "duration": 4, "velocity": 84}, {"time": 1458, "pitch": 64, "duration": 5, "velocity": 93}, {"time": 1461, "pitch": 52, "duration": 2, "velocity": 91}, {"time": 1464, "pitch": 57, "duration": 2, "velocity": 83}, {"time": 1470, "pitch": 40, "duration": 39, "velocity": 91}, {"time": 1470, "pitch": 59, "duration": 8, "velocity": 85}, {"time": 1470, "pitch": 64, "duration": 8, "velocity": 90}, {"time": 1476, "pitch": 47, "duration": 16, "velocity": 73}, {"time": 1482, "pitch": 59, "duration": 2, "velocity": 91}, {"time": 1482, "pitch": 68, "duration": 2, "velocity": 91}, {"time": 1491, "pitch": 59, "duration": 2, "velocity": 90}, {"time": 1491, "pitch": 64, "duration": 2, "velocity": 91}, {"time": 1494, "pitch": 47, "duration": 4, "velocity": 72}, {"time": 1497, "pitch": 59, "duration": 2, "velocity": 91}, {"time": 1497, "pitch": 64, "duration": 3, "velocity": 95}, {"time": 1500, "pitch": 47, "duration": 8, "velocity": 85}, {"time": 1503, "pitch": 59, "duration": 2, "velocity": 90}, {"time": 1506, "pitch": 59, "duration": 2, "velocity": 91}, {"time": 1506, "pitch": 64, "duration": 3, "velocity": 94}, {"time": 1506, "pitch": 68, "duration": 3, "velocity": 91}, {"time": 1518, "pitch": 45, "duration": 41, "velocity": 91}, {"time": 1518, "pitch": 57, "duration": 7, "velocity": 81}, {"time": 1518, "pitch": 61, "duration": 7, "velocity": 84}, {"time": 1518, "pitch": 64, "duration": 7, "velocity": 89}, {"time": 1524, "pitch": 52, "duration": 22, "velocity": 79}, {"time": 1527, "pitch": 57, "duration": 2, "velocity": 90}, {"time": 1533, "pitch": 57, "duration": 1, "velocity": 82}, {"time": 1533, "pitch": 61, "duration": 1, "velocity": 86}, {"time": 1533, "pitch": 64, "duration": 2, "velocity": 91}, {"time": 1542, "pitch": 57, "duration": 3, "velocity": 85}, {"time": 1542, "pitch": 69, "duration": 3, "velocity": 91}, {"time": 1548, "pitch": 52, "duration": 4, "velocity": 78}, {"time": 1551, "pitch": 57, "duration": 4, "velocity": 90}, {"time": 1551, "pitch": 61, "duration": 4, "velocity": 92}, {"time": 1551, "pitch": 64, "duration": 5, "velocity": 92}, {"time": 1557, "pitch": 52, "duration": 2, "velocity": 92}, {"time": 1560, "pitch": 57, "duration": 2, "velocity": 91}, {"time": 1566, "pitch": 40, "duration": 23, "velocity": 91}, {"time": 1566, "pitch": 59, "duration": 4, "velocity": 86}, {"time": 1566, "pitch": 64, "duration": 4, "velocity": 89}, {"time": 1572, "pitch": 47, "duration": 16, "velocity": 63}, {"time": 1575, "pitch": 59, "duration": 2, "velocity": 87}, {"time": 1575, "pitch": 68, "duration": 3, "velocity": 90}, {"time": 1581, "pitch": 59, "duration": 2, "velocity": 85}, {"time": 1581, "pitch": 64, "duration": 2, "velocity": 90}, {"time": 1587, "pitch": 59, "duration": 1, "velocity": 76}, {"time": 1590, "pitch": 40, "duration": 15, "velocity": 90}, {"time": 1590, "pitch": 59, "duration": 4, "velocity": 86}, {"time": 1590, "pitch": 64, "duration": 6, "velocity": 89}, {"time": 1596, "pitch": 47, "duration": 9, "velocity": 69}, {"time": 1599, "pitch": 59, "duration": 2, "velocity": 90}, {"time": 1599, "pitch": 68, "duration": 3, "velocity": 94}, {"time": 1605, "pitch": 59, "duration": 1, "velocity": 90}, {"time": 1605, "pitch": 64, "duration": 2, "velocity": 92}, {"time": 1608, "pitch": 59, "duration": 1, "velocity": 83}, {"time": 1614, "pitch": 45, "duration": 40, "velocity": 91}, {"time": 1614, "pitch": 57, "duration": 7, "velocity": 80}, {"time": 1614, "pitch": 61, "duration": 8, "velocity": 77}, {"time": 1614, "pitch": 64, "duration": 10, "velocity": 88}, {"time": 1626, "pitch": 57, "duration": 2, "velocity": 89}, {"time": 1626, "pitch": 61, "duration": 3, "velocity": 90}, {"time": 1626, "pitch": 64, "duration": 3, "velocity": 91}, {"time": 1629, "pitch": 52, "duration": 13, "velocity": 82}, {"time": 1632, "pitch": 57, "duration": 2, "velocity": 89}, {"time": 1635, "pitch": 57, "duration": 3, "velocity": 90}, {"time": 1635, "pitch": 61, "duration": 3, "velocity": 93}, {"time": 1635, "pitch": 64, "duration": 3, "velocity": 93}, {"time": 1635, "pitch": 69, "duration": 3, "velocity": 90}, {"time": 1641, "pitch": 57, "duration": 3, "velocity": 86}, {"time": 1641, "pitch": 64, "duration": 3, "velocity": 90}, {"time": 1644, "pitch": 52, "duration": 7, "velocity": 80}, {"time": 1647, "pitch": 57, "duration": 2, "velocity": 83}, {"time": 1650, "pitch": 57, "duration": 3, "velocity": 90}, {"time": 1650, "pitch": 64, "duration": 4, "velocity": 94}, {"time": 1653, "pitch": 52, "duration": 2, "velocity": 63}, {"time": 1656, "pitch": 45, "duration": 2, "velocity": 90}, {"time": 1662, "pitch": 40, "duration": 7, "velocity": 92}, {"time": 1662, "pitch": 59, "duration": 4, "velocity": 87}, {"time": 1662, "pitch": 64, "duration": 6, "velocity": 91}, {"time": 1662, "pitch": 68, "duration": 6, "velocity": 86}, {"time": 1668, "pitch": 59, "duration": 1, "velocity": 78}, {"time": 1674, "pitch": 59, "duration": 3, "velocity": 90}, {"time": 1674, "pitch": 68, "duration": 4, "velocity": 93}, {"time": 1677, "pitch": 52, "duration": 10, "velocity": 92}, {"time": 1680, "pitch": 59, "duration": 2, "velocity": 92}, {"time": 1683, "pitch": 59, "duration": 4, "velocity": 91}, {"time": 1683, "pitch": 64, "duration": 4, "velocity": 94}, {"time": 1689, "pitch": 59, "duration": 2, "velocity": 84}, {"time": 1689, "pitch": 64, "duration": 4, "velocity": 91}, {"time": 1689, "pitch": 68, "duration": 6, "velocity": 85}, {"time": 1695, "pitch": 59, "duration": 2, "velocity": 74}, {"time": 1698, "pitch": 59, "duration": 2, "velocity": 93}, {"time": 1698, "pitch": 64, "duration": 1, "velocity": 95}, {"time": 1710, "pitch": 45, "duration": 40, "velocity": 91}, {"time": 1710, "pitch": 57, "duration": 6, "velocity": 80}, {"time": 1710, "pitch": 61, "duration": 8, "velocity": 76}, {"time": 1710, "pitch": 64, "duration": 13, "velocity": 88}, {"time": 1716, "pitch": 52, "duration": 22, "velocity": 81}, {"time": 1719, "pitch": 57, "duration": 5, "velocity": 90}, {"time": 1719, "pitch": 61, "duration": 1, "velocity": 56}, {"time": 1725, "pitch": 61, "duration": 3, "velocity": 80}, {"time": 1725, "pitch": 64, "duration": 3, "velocity": 91}, {"time": 1725, "pitch": 69, "duration": 3, "velocity": 80}, {"time": 1731, "pitch": 57, "duration": 2, "velocity": 81}, {"time": 1737, "pitch": 57, "duration": 3, "velocity": 89}, {"time": 1737, "pitch": 64, "duration": 3, "velocity": 92}, {"time": 1740, "pitch": 52, "duration": 6, "velocity": 81}, {"time": 1743, "pitch": 57, "duration": 1, "velocity": 85}, {"time": 1746, "pitch": 57, "duration": 3, "velocity": 91}, {"time": 1746, "pitch": 61, "duration": 3, "velocity": 96}, {"time": 1746, "pitch": 64, "duration": 4, "velocity": 95}, {"time": 1749, "pitch": 52, "duration": 1, "velocity": 90}, {"time": 1752, "pitch": 57, "duration": 1, "velocity": 95}, {"time": 1758, "pitch": 40, "duration": 16, "velocity": 91}, {"time": 1758, "pitch": 52, "duration": 3, "velocity": 90}, {"time": 1758, "pitch": 56, "duration": 3, "velocity": 82}, {"time": 1758, "pitch": 59, "duration": 4, "velocity": 86}, {"time": 1764, "pitch": 47, "duration": 5, "velocity": 72}, {"time": 1767, "pitch": 59, "duration": 4, "velocity": 96}, {"time": 1770, "pitch": 47, "duration": 4, "velocity": 71}, {"time": 1773, "pitch": 59, "duration": 1, "velocity": 83}, {"time": 1773, "pitch": 64, "duration": 2, "velocity": 92}, {"time": 1782, "pitch": 47, "duration": 12, "velocity": 92}, {"time": 1782, "pitch": 59, "duration": 3, "velocity": 90}, {"time": 1782, "pitch": 63, "duration": 6, "velocity": 85}, {"time": 1788, "pitch": 59, "duration": 1, "velocity": 81}, {"time": 1791, "pitch": 59, "duration": 4, "velocity": 91}, {"time": 1791, "pitch": 66, "duration": 5, "velocity": 85}, {"time": 1797, "pitch": 63, "duration": 3, "velocity": 92}, {"time": 1800, "pitch": 59, "duration": 1, "velocity": 90}, {"time": 1806, "pitch": 45, "duration": 48, "velocity": 89}, {"time": 1806, "pitch": 57, "duration": 7, "velocity": 84}, {"time": 1806, "pitch": 61, "duration": 7, "velocity": 81}, {"time": 1812, "pitch": 52, "duration": 16, "velocity": 77}, {"time": 1815, "pitch": 57, "duration": 3, "velocity": 90}, {"time": 1815, "pitch": 64, "duration": 3, "velocity": 91}, {"time": 1821, "pitch": 61, "duration": 2, "velocity": 93}, {"time": 1827, "pitch": 57, "duration": 3, "velocity": 86}, {"time": 1827, "pitch": 61, "duration": 3, "velocity": 79}, {"time": 1827, "pitch": 69, "duration": 3, "velocity": 88}, {"time": 1830, "pitch": 52, "duration": 4, "velocity": 90}, {"time": 1833, "pitch": 57, "duration": 3, "velocity": 91}, {"time": 1833, "pitch": 61, "duration": 4, "velocity": 89}, {"time": 1833, "pitch": 64, "duration": 5, "velocity": 96}, {"time": 1836, "pitch": 52, "duration": 8, "velocity": 84}, {"time": 1839, "pitch": 57, "duration": 1, "velocity": 79}, {"time": 1842, "pitch": 57, "duration": 12, "velocity": 84}, {"time": 1842, "pitch": 61, "duration": 12, "velocity": 85}, {"time": 1842, "pitch": 64, "duration": 12, "velocity": 91}, {"time": 1848, "pitch": 52, "duration": 6, "velocity": 92}, {"time": 1854, "pitch": 40, "duration": 43, "velocity": 92}, {"time": 1854, "pitch": 59, "duration": 4, "velocity": 84}, {"time": 1854, "pitch": 64, "duration": 6, "velocity": 90}, {"time": 1860, "pitch": 47, "duration": 30, "velocity": 78}, {"time": 1866, "pitch": 59, "duration": 2, "velocity": 91}, {"time": 1866, "pitch": 68, "duration": 2, "velocity": 94}, {"time": 1875, "pitch": 59, "duration": 2, "velocity": 84}, {"time": 1875, "pitch": 64, "duration": 2, "velocity": 90}, {"time": 1881, "pitch": 59, "duration": 2, "velocity": 85}, {"time": 1881, "pitch": 68, "duration": 3, "velocity": 86}, {"time": 1890, "pitch": 59, "duration": 4, "velocity": 92}, {"time": 1890, "pitch": 64, "duration": 4, "velocity": 95}, {"time": 1893, "pitch": 47, "duration": 5, "velocity": 82}, {"time": 1896, "pitch": 59, "duration": 7, "velocity": 93}, {"time": 1899, "pitch": 64, "duration": 4, "velocity": 90}, {"time": 1902, "pitch": 45, "duration": 44, "velocity": 92}, {"time": 1908, "pitch": 52, "duration": 8, "velocity": 79}, {"time": 1914, "pitch": 57, "duration": 3, "velocity": 82}, {"time": 1914, "pitch": 61, "duration": 3, "velocity": 87}, {"time": 1914, "pitch": 64, "duration": 3, "velocity": 91}, {"time": 1920, "pitch": 52, "duration": 22, "velocity": 70}, {"time": 1923, "pitch": 57, "duration": 2, "velocity": 88}, {"time": 1923, "pitch": 69, "duration": 2, "velocity": 90}, {"time": 1929, "pitch": 64, "duration": 4, "velocity": 90}, {"time": 1932, "pitch": 57, "duration": 2, "velocity": 85}, {"time": 1941, "pitch": 57, "duration": 2, "velocity": 93}, {"time": 1941, "pitch": 61, "duration": 3, "velocity": 101}, {"time": 1941, "pitch": 64, "duration": 3, "velocity": 99}, {"time": 1944, "pitch": 52, "duration": 2, "velocity": 86}, {"time": 1947, "pitch": 57, "duration": 1, "velocity": 86}, {"time": 1950, "pitch": 40, "duration": 42, "velocity": 92}, {"time": 1950, "pitch": 59, "duration": 4, "velocity": 84}, {"time": 1950, "pitch": 64, "duration": 4, "velocity": 90}, {"time": 1956, "pitch": 47, "duration": 32, "velocity": 78}, {"time": 1962, "pitch": 59, "duration": 2, "velocity": 90}, {"time": 1962, "pitch": 64, "duration": 2, "velocity": 90}, {"time": 1962, "pitch": 68, "duration": 2, "velocity": 88}, {"time": 1971, "pitch": 59, "duration": 2, "velocity": 89}, {"time": 1971, "pitch": 68, "duration": 2, "velocity": 86}, {"time": 1977, "pitch": 59, "duration": 2, "velocity": 82}, {"time": 1977, "pitch": 64, "duration": 3, "velocity": 89}, {"time": 1980, "pitch": 59, "duration": 1, "velocity": 64}, {"time": 1986, "pitch": 59, "duration": 2, "velocity": 91}, {"time": 1986, "pitch": 64, "duration": 2, "velocity": 95}, {"time": 1986, "pitch": 68, "duration": 3, "velocity": 92}, {"time": 1989, "pitch": 47, "duration": 3, "velocity": 85}, {"time": 1992, "pitch": 59, "duration": 8, "velocity": 93}, {"time": 1995, "pitch": 64, "duration": 4, "velocity": 88}, {"time": 1998, "pitch": 45, "duration": 41, "velocity": 92}, {"time": 2004, "pitch": 52, "duration": 9, "velocity": 79}, {"time": 2010, "pitch": 57, "duration": 7, "velocity": 90}, {"time": 2010, "pitch": 61, "duration": 6, "velocity": 91}, {"time": 2010, "pitch": 64, "duration": 7, "velocity": 92}, {"time": 2016, "pitch": 52, "duration": 4, "velocity": 72}, {"time": 2019, "pitch": 57, "duration": 3, "velocity": 82}, {"time": 2019, "pitch": 61, "duration": 4, "velocity": 81}, {"time": 2019, "pitch": 64, "duration": 4, "velocity": 90}, {"time": 2019, "pitch": 69, "duration": 4, "velocity": 85}, {"time": 2025, "pitch": 61, "duration": 5, "velocity": 79}, {"time": 2028, "pitch": 52, "duration": 7, "velocity": 81}, {"time": 2031, "pitch": 57, "duration": 1, "velocity": 61}, {"time": 2034, "pitch": 57, "duration": 3, "velocity": 86}, {"time": 2034, "pitch": 61, "duration": 4, "velocity": 90}, {"time": 2034, "pitch": 64, "duration": 5, "velocity": 92}, {"time": 2037, "pitch": 52, "duration": 2, "velocity": 84}, {"time": 2040, "pitch": 57, "duration": 1, "velocity": 88}, {"time": 2046, "pitch": 40, "duration": 21, "velocity": 91}, {"time": 2046, "pitch": 52, "duration": 11, "velocity": 87}, {"time": 2046, "pitch": 59, "duration": 9, "velocity": 83}, {"time": 2052, "pitch": 47, "duration": 15, "velocity": 73}, {"time": 2058, "pitch": 56, "duration": 2, "velocity": 90}, {"time": 2058, "pitch": 59, "duration": 2, "velocity": 91}, {"time": 2067, "pitch": 52, "duration": 3, "velocity": 90}, {"time": 2067, "pitch": 56, "duration": 3, "velocity": 84}, {"time": 2067, "pitch": 64, "duration": 3, "velocity": 91}, {"time": 2073, "pitch": 52, "duration": 3, "velocity": 85}, {"time": 2073, "pitch": 59, "duration": 4, "velocity": 85}, {"time": 2076, "pitch": 52, "duration": 2, "velocity": 77}, {"time": 2076, "pitch": 56, "duration": 2, "velocity": 76}, {"time": 2082, "pitch": 52, "duration": 3, "velocity": 92}, {"time": 2082, "pitch": 56, "duration": 3, "velocity": 91}, {"time": 2082, "pitch": 59, "duration": 4, "velocity": 91}, {"time": 2082, "pitch": 64, "duration": 5, "velocity": 91}, {"time": 2094, "pitch": 45, "duration": 39, "velocity": 90}, {"time": 2094, "pitch": 57, "duration": 7, "velocity": 85}, {"time": 2094, "pitch": 61, "duration": 9, "velocity": 79}, {"time": 2094, "pitch": 64, "duration": 10, "velocity": 90}, {"time": 2100, "pitch": 52, "duration": 33, "velocity": 83}, {"time": 2106, "pitch": 57, "duration": 2, "velocity": 90}, {"time": 2106, "pitch": 69, "duration": 2, "velocity": 88}, {"time": 2112, "pitch": 57, "duration": 1, "velocity": 82}, {"time": 2115, "pitch": 57, "duration": 2, "velocity": 90}, {"time": 2115, "pitch": 64, "duration": 2, "velocity": 92}, {"time": 2121, "pitch": 57, "duration": 2, "velocity": 82}, {"time": 2121, "pitch": 61, "duration": 2, "velocity": 79}, {"time": 2121, "pitch": 64, "duration": 2, "velocity": 90}, {"time": 2127, "pitch": 57, "duration": 2, "velocity": 72}, {"time": 2130, "pitch": 57, "duration": 4, "velocity": 84}, {"time": 2130, "pitch": 61, "duration": 4, "velocity": 77}, {"time": 2130, "pitch": 64, "duration": 4, "velocity": 90}, {"time": 2130, "pitch": 69, "duration": 4, "velocity": 87}, {"time": 2142, "pitch": 40, "duration": 16, "velocity": 93}, {"time": 2142, "pitch": 52, "duration": 8, "velocity": 90}, {"time": 2142, "pitch": 56, "duration": 7, "velocity": 82}, {"time": 2142, "pitch": 59, "duration": 7, "velocity": 86}, {"time": 2148, "pitch": 47, "duration": 7, "velocity": 73}, {"time": 2154, "pitch": 52, "duration": 3, "velocity": 91}, {"time": 2154, "pitch": 56, "duration": 3, "velocity": 91}, {"time": 2154, "pitch": 59, "duration": 4, "velocity": 90}, {"time": 2154, "pitch": 64, "duration": 4, "velocity": 91}, {"time": 2157, "pitch": 47, "duration": 2, "velocity": 83}, {"time": 2160, "pitch": 52, "duration": 2, "velocity": 90}, {"time": 2166, "pitch": 47, "duration": 15, "velocity": 91}, {"time": 2166, "pitch": 59, "duration": 10, "velocity": 87}, {"time": 2166, "pitch": 63, "duration": 9, "velocity": 82}, {"time": 2178, "pitch": 59, "duration": 4, "velocity": 91}, {"time": 2178, "pitch": 63, "duration": 4, "velocity": 91}, {"time": 2178, "pitch": 66, "duration": 5, "velocity": 82}, {"time": 2181, "pitch": 54, "duration": 1, "velocity": 77}, {"time": 2184, "pitch": 59, "duration": 3, "velocity": 92}, {"time": 2190, "pitch": 40, "duration": 6, "velocity": 96}, {"time": 2190, "pitch": 59, "duration": 5, "velocity": 91}, {"time": 2190, "pitch": 64, "duration": 6, "velocity": 93}, {"time": 2202, "pitch": 51, "duration": 5, "velocity": 95}, {"time": 2202, "pitch": 63, "duration": 5, "velocity": 104}, {"time": 2214, "pitch": 49, "duration": 4, "velocity": 95}, {"time": 2214, "pitch": 61, "duration": 5, "velocity": 91}, {"time": 2214, "pitch": 73, "duration": 4, "velocity": 78}, {"time": 2226, "pitch": 47, "duration": 7, "velocity": 95}, {"time": 2226, "pitch": 59, "duration": 12, "velocity": 90}, {"time": 2226, "pitch": 63, "duration": 12, "velocity": 90}, {"time": 2226, "pitch": 66, "duration": 12, "velocity": 84}, {"time": 2238, "pitch": 45, "duration": 39, "velocity": 96}, {"time": 2238, "pitch": 57, "duration": 9, "velocity": 90}, {"time": 2238, "pitch": 61, "duration": 8, "velocity": 84}, {"time": 2238, "pitch": 64, "duration": 8, "velocity": 90}, {"time": 2244, "pitch": 52, "duration": 8, "velocity": 83}, {"time": 2250, "pitch": 57, "duration": 3, "velocity": 88}, {"time": 2250, "pitch": 61, "duration": 2, "velocity": 91}, {"time": 2250, "pitch": 64, "duration": 2, "velocity": 92}, {"time": 2259, "pitch": 57, "duration": 3, "velocity": 89}, {"time": 2259, "pitch": 61, "duration": 2, "velocity": 87}, {"time": 2259, "pitch": 64, "duration": 2, "velocity": 91}, {"time": 2259, "pitch": 69, "duration": 2, "velocity": 85}, {"time": 2265, "pitch": 61, "duration": 3, "velocity": 78}, {"time": 2265, "pitch": 64, "duration": 2, "velocity": 79}, {"time": 2268, "pitch": 52, "duration": 7, "velocity": 82}, {"time": 2274, "pitch": 57, "duration": 2, "velocity": 91}, {"time": 2274, "pitch": 61, "duration": 2, "velocity": 91}, {"time": 2274, "pitch": 64, "duration": 2, "velocity": 94}, {"time": 2286, "pitch": 40, "duration": 40, "velocity": 93}, {"time": 2286, "pitch": 52, "duration": 8, "velocity": 85}, {"time": 2286, "pitch": 56, "duration": 7, "velocity": 75}, {"time": 2286, "pitch": 59, "duration": 7, "velocity": 82}, {"time": 2292, "pitch": 47, "duration": 31, "velocity": 77}, {"time": 2298, "pitch": 52, "duration": 1, "velocity": 93}, {"time": 2298, "pitch": 64, "duration": 1, "velocity": 93}, {"time": 2307, "pitch": 52, "duration": 2, "velocity": 91}, {"time": 2307, "pitch": 59, "duration": 1, "velocity": 90}, {"time": 2313, "pitch": 52, "duration": 2, "velocity": 90}, {"time": 2313, "pitch": 59, "duration": 2, "velocity": 86}, {"time": 2319, "pitch": 52, "duration": 1, "velocity": 84}, {"time": 2322, "pitch": 52, "duration": 3, "velocity": 95}, {"time": 2322, "pitch": 56, "duration": 3, "velocity": 97}, {"time": 2322, "pitch": 59, "duration": 4, "velocity": 92}, {"time": 2325, "pitch": 47, "duration": 2, "velocity": 94}, {"time": 2328, "pitch": 52, "duration": 1, "velocity": 95}, {"time": 2334, "pitch": 45, "duration": 40, "velocity": 91}, {"time": 2334, "pitch": 57, "duration": 8, "velocity": 86}, {"time": 2334, "pitch": 61, "duration": 8, "velocity": 83}, {"time": 2337, "pitch": 52, "duration": 31, "velocity": 77}, {"time": 2346, "pitch": 57, "duration": 1, "velocity": 93}, {"time": 2346, "pitch": 64, "duration": 2, "velocity": 94}, {"time": 2352, "pitch": 57, "duration": 1, "velocity": 86}, {"time": 2355, "pitch": 57, "duration": 2, "velocity": 91}, {"time": 2355, "pitch": 69, "duration": 2, "velocity": 90}, {"time": 2361, "pitch": 57, "duration": 2, "velocity": 90}, {"time": 2361, "pitch": 64, "duration": 2, "velocity": 92}, {"time": 2367, "pitch": 57, "duration": 1, "velocity": 77}, {"time": 2370, "pitch": 57, "duration": 3, "velocity": 90}, {"time": 2370, "pitch": 61, "duration": 3, "velocity": 90}, {"time": 2373, "pitch": 52, "duration": 2, "velocity": 92}, {"time": 2376, "pitch": 57, "duration": 2, "velocity": 93}, {"time": 2382, "pitch": 40, "duration": 39, "velocity": 91}, {"time": 2382, "pitch": 52, "duration": 10, "velocity": 76}, {"time": 2382, "pitch": 56, "duration": 9, "velocity": 81}, {"time": 2388, "pitch": 47, "duration": 11, "velocity": 78}, {"time": 2394, "pitch": 56, "duration": 2, "velocity": 92}, {"time": 2394, "pitch": 59, "duration": 2, "velocity": 91}, {"time": 2400, "pitch": 47, "duration": 19, "velocity": 67}, {"time": 2403, "pitch": 52, "duration": 2, "velocity": 91}, {"time": 2403, "pitch": 56, "duration": 2, "velocity": 82}, {"time": 2403, "pitch": 59, "duration": 2, "velocity": 87}, {"time": 2403, "pitch": 64, "duration": 2, "velocity": 91}, {"time": 2409, "pitch": 52, "duration": 2, "velocity": 91}, {"time": 2409, "pitch": 59, "duration": 2, "velocity": 90}, {"time": 2415, "pitch": 52, "duration": 1, "velocity": 90}, {"time": 2418, "pitch": 52, "duration": 3, "velocity": 92}, {"time": 2418, "pitch": 59, "duration": 3, "velocity": 91}, {"time": 2421, "pitch": 47, "duration": 2, "velocity": 91}, {"time": 2424, "pitch": 52, "duration": 1, "velocity": 96}, {"time": 2430, "pitch": 47, "duration": 15, "velocity": 92}, {"time": 2430, "pitch": 59, "duration": 9, "velocity": 86}, {"time": 2430, "pitch": 63, "duration": 9, "velocity": 83}, {"time": 2442, "pitch": 59, "duration": 3, "velocity": 90}, {"time": 2442, "pitch": 63, "duration": 2, "velocity": 90}, {"time": 2442, "pitch": 66, "duration": 3, "velocity": 85}, {"time": 2448, "pitch": 54, "duration": 3, "velocity": 74}, {"time": 2451, "pitch": 59, "duration": 3, "velocity": 90}, {"time": 2451, "pitch": 63, "duration": 3, "velocity": 85}, {"time": 2451, "pitch": 66, "duration": 3, "velocity": 81}, {"time": 2457, "pitch": 59, "duration": 3, "velocity": 91}, {"time": 2457, "pitch": 66, "duration": 3, "velocity": 90}, {"time": 2460, "pitch": 54, "duration": 5, "velocity": 86}, {"time": 2463, "pitch": 59, "duration": 2, "velocity": 90}, {"time": 2466, "pitch": 59, "duration": 3, "velocity": 91}, {"time": 2466, "pitch": 63, "duration": 3, "velocity": 95}, {"time": 2466, "pitch": 66, "duration": 2, "velocity": 79}, {"time": 2469, "pitch": 51, "duration": 1, "velocity": 73}, {"time": 2472, "pitch": 51, "duration": 1, "velocity": 84}, {"time": 2478, "pitch": 37, "duration": 37, "velocity": 95}, {"time": 2478, "pitch": 61, "duration": 7, "velocity": 85}, {"time": 2478, "pitch": 64, "duration": 8, "velocity": 92}, {"time": 2484, "pitch": 44, "duration": 30, "velocity": 65}, {"time": 2490, "pitch": 61, "duration": 2, "velocity": 90}, {"time": 2490, "pitch": 64, "duration": 1, "velocity": 95}, {"time": 2490, "pitch": 68, "duration": 2, "velocity": 89}, {"time": 2499, "pitch": 61, "duration": 2, "velocity": 93}, {"time": 2499, "pitch": 68, "duration": 1, "velocity": 96}, {"time": 2505, "pitch": 61, "duration": 2, "velocity": 90}, {"time": 2505, "pitch": 64, "duration": 3, "velocity": 92}, {"time": 2511, "pitch": 61, "duration": 2, "velocity": 79}, {"time": 2514, "pitch": 61, "duration": 3, "velocity": 101}, {"time": 2514, "pitch": 64, "duration": 3, "velocity": 104}, {"time": 2517, "pitch": 44, "duration": 2, "velocity": 92}, {"time": 2520, "pitch": 37, "duration": 1, "velocity": 90}, {"time": 2526, "pitch": 45, "duration": 16, "velocity": 90}, {"time": 2526, "pitch": 57, "duration": 8, "velocity": 89}, {"time": 2526, "pitch": 61, "duration": 9, "velocity": 86}, {"time": 2532, "pitch": 52, "duration": 7, "velocity": 86}, {"time": 2538, "pitch": 57, "duration": 3, "velocity": 91}, {"time": 2538, "pitch": 61, "duration": 4, "velocity": 96}, {"time": 2538, "pitch": 64, "duration": 4, "velocity": 96}, {"time": 2541, "pitch": 52, "duration": 2, "velocity": 91}, {"time": 2544, "pitch": 57, "duration": 2, "velocity": 92}, {"time": 2550, "pitch": 47, "duration": 17, "velocity": 92}, {"time": 2550, "pitch": 59, "duration": 7, "velocity": 90}, {"time": 2550, "pitch": 63, "duration": 8, "velocity": 85}, {"time": 2556, "pitch": 54, "duration": 7, "velocity": 82}, {"time": 2559, "pitch": 59, "duration": 2, "velocity": 91}, {"time": 2562, "pitch": 59, "duration": 4, "velocity": 92}, {"time": 2562, "pitch": 63, "duration": 5, "velocity": 92}, {"time": 2562, "pitch": 66, "duration": 5, "velocity": 88}, {"time": 2565, "pitch": 54, "duration": 2, "velocity": 83}, {"time": 2568, "pitch": 59, "duration": 2, "velocity": 89}, {"time": 2574, "pitch": 40, "duration": 22, "velocity": 96}, {"time": 2574, "pitch": 52, "duration": 6, "velocity": 92}, {"time": 2574, "pitch": 56, "duration": 5, "velocity": 92}, {"time": 2574, "pitch": 59, "duration": 6, "velocity": 91}, {"time": 2580, "pitch": 47, "duration": 17, "velocity": 79}, {"time": 2583, "pitch": 52, "duration": 4, "velocity": 101}, {"time": 2583, "pitch": 64, "duration": 3, "velocity": 95}, {"time": 2589, "pitch": 52, "duration": 3, "velocity": 95}, {"time": 2589, "pitch": 56, "duration": 4, "velocity": 95}, {"time": 2589, "pitch": 59, "duration": 4, "velocity": 95}, {"time": 2589, "pitch": 64, "duration": 3, "velocity": 92}, {"time": 2595, "pitch": 52, "duration": 2, "velocity": 91}, {"time": 2595, "pitch": 59, "duration": 1, "velocity": 59}, {"time": 2598, "pitch": 40, "duration": 25, "velocity": 96}, {"time": 2598, "pitch": 52, "duration": 7, "velocity": 91}, {"time": 2598, "pitch": 56, "duration": 8, "velocity": 87}, {"time": 2598, "pitch": 59, "duration": 8, "velocity": 89}, {"time": 2598, "pitch": 64, "duration": 8, "velocity": 91}, {"time": 2604, "pitch": 47, "duration": 7, "velocity": 86}, {"time": 2607, "pitch": 52, "duration": 1, "velocity": 88}, {"time": 2610, "pitch": 52, "duration": 4, "velocity": 94}, {"time": 2610, "pitch": 56, "duration": 4, "velocity": 94}, {"time": 2610, "pitch": 59, "duration": 5, "velocity": 93}, {"time": 2610, "pitch": 64, "duration": 5, "velocity": 94}, {"time": 2613, "pitch": 47, "duration": 10, "velocity": 95}, {"time": 2616, "pitch": 52, "duration": 5, "velocity": 97}, {"time": 2616, "pitch": 59, "duration": 1, "velocity": 67}, {"time": 2619, "pitch": 56, "duration": 2, "velocity": 92}, {"time": 2622, "pitch": 45, "duration": 39, "velocity": 96}, {"time": 2622, "pitch": 57, "duration": 9, "velocity": 90}, {"time": 2622, "pitch": 61, "duration": 8, "velocity": 84}, {"time": 2622, "pitch": 64, "duration": 8, "velocity": 90}, {"time": 2628, "pitch": 52, "duration": 8, "velocity": 83}, {"time": 2634, "pitch": 57, "duration": 3, "velocity": 88}, {"time": 2634, "pitch": 61, "duration": 2, "velocity": 91}, {"time": 2634, "pitch": 64, "duration": 2, "velocity": 92}, {"time": 2643, "pitch": 57, "duration": 3, "velocity": 89}, {"time": 2643, "pitch": 61, "duration": 2, "velocity": 87}, {"time": 2643, "pitch": 64, "duration": 2, "velocity": 91}, {"time": 2643, "pitch": 69, "duration": 2, "velocity": 85}, {"time": 2649, "pitch": 61, "duration": 3, "velocity": 78}, {"time": 2649, "pitch": 64, "duration": 2, "velocity": 79}, {"time": 2652, "pitch": 52, "duration": 7, "velocity": 82}, {"time": 2658, "pitch": 57, "duration": 2, "velocity": 91}, {"time": 2658, "pitch": 61, "duration": 2, "velocity": 91}, {"time": 2658, "pitch": 64, "duration": 2, "velocity": 94}, {"time": 2670, "pitch": 40, "duration": 40, "velocity": 93}, {"time": 2670, "pitch": 52, "duration": 8, "velocity": 85}, {"time": 2670, "pitch": 56, "duration": 7, "velocity": 75}, {"time": 2670, "pitch": 59, "duration": 7, "velocity": 82}, {"time": 2676, "pitch": 47, "duration": 31, "velocity": 77}, {"time": 2682, "pitch": 52, "duration": 1, "velocity": 93}, {"time": 2682, "pitch": 64, "duration": 1, "velocity": 93}, {"time": 2691, "pitch": 52, "duration": 2, "velocity": 91}, {"time": 2691, "pitch": 59, "duration": 1, "velocity": 90}, {"time": 2697, "pitch": 52, "duration": 2, "velocity": 90}, {"time": 2697, "pitch": 59, "duration": 2, "velocity": 86}, {"time": 2703, "pitch": 52, "duration": 1, "velocity": 84}, {"time": 2706, "pitch": 52, "duration": 3, "velocity": 95}, {"time": 2706, "pitch": 56, "duration": 3, "velocity": 97}, {"time": 2706, "pitch": 59, "duration": 4, "velocity": 92}, {"time": 2709, "pitch": 47, "duration": 2, "velocity": 94}, {"time": 2712, "pitch": 52, "duration": 1, "velocity": 95}, {"time": 2718, "pitch": 45, "duration": 40, "velocity": 91}, {"time": 2718, "pitch": 57, "duration": 8, "velocity": 86}, {"time": 2718, "pitch": 61, "duration": 8, "velocity": 83}, {"time": 2721, "pitch": 52, "duration": 31, "velocity": 77}, {"time": 2730, "pitch": 57, "duration": 1, "velocity": 93}, {"time": 2730, "pitch": 64, "duration": 2, "velocity": 94}, {"time": 2736, "pitch": 57, "duration": 1, "velocity": 86}, {"time": 2739, "pitch": 57, "duration": 2, "velocity": 91}, {"time": 2739, "pitch": 69, "duration": 2, "velocity": 90}, {"time": 2745, "pitch": 57, "duration": 2, "velocity": 90}, {"time": 2745, "pitch": 64, "duration": 2, "velocity": 92}, {"time": 2751, "pitch": 57, "duration": 1, "velocity": 77}, {"time": 2754, "pitch": 57, "duration": 3, "velocity": 90}, {"time": 2754, "pitch": 61, "duration": 3, "velocity": 90}, {"time": 2757, "pitch": 52, "duration": 2, "velocity": 92}, {"time": 2760, "pitch": 57, "duration": 2, "velocity": 93}, {"time": 2766, "pitch": 40, "duration": 39, "velocity": 91}, {"time": 2766, "pitch": 52, "duration": 10, "velocity": 76}, {"time": 2766, "pitch": 56, "duration": 9, "velocity": 81}, {"time": 2772, "pitch": 47, "duration": 11, "velocity": 78}, {"time": 2778, "pitch": 56, "duration": 2, "velocity": 92}, {"time": 2778, "pitch": 59, "duration": 2, "velocity": 91}, {"time": 2784, "pitch": 47, "duration": 19, "velocity": 67}, {"time": 2787, "pitch": 52, "duration": 2, "velocity": 91}, {"time": 2787, "pitch": 56, "duration": 2, "velocity": 82}, {"time": 2787, "pitch": 59, "duration": 2, "velocity": 87}, {"time": 2787, "pitch": 64, "duration": 2, "velocity": 91}, {"time": 2793, "pitch": 52, "duration": 2, "velocity": 91}, {"time": 2793, "pitch": 59, "duration": 2, "velocity": 90}, {"time": 2799, "pitch": 52, "duration": 1, "velocity": 90}, {"time": 2802, "pitch": 52, "duration": 3, "velocity": 92}, {"time": 2802, "pitch": 59, "duration": 3, "velocity": 91}, {"time": 2805, "pitch": 47, "duration": 2, "velocity": 91}, {"time": 2808, "pitch": 52, "duration": 1, "velocity": 96}, {"time": 2814, "pitch": 47, "duration": 15, "velocity": 92}, {"time": 2814, "pitch": 59, "duration": 9, "velocity": 86}, {"time": 2814, "pitch": 63, "duration": 9, "velocity": 83}, {"time": 2826, "pitch": 59, "duration": 3, "velocity": 90}, {"time": 2826, "pitch": 63, "duration": 2, "velocity": 90}, {"time": 2826, "pitch": 66, "duration": 3, "velocity": 85}, {"time": 2832, "pitch": 54, "duration": 3, "velocity": 74}, {"time": 2835, "pitch": 59, "duration": 3, "velocity": 90}, {"time": 2835, "pitch": 63, "duration": 3, "velocity": 85}, {"time": 2835, "pitch": 66, "duration": 3, "velocity": 81}, {"time": 2841, "pitch": 59, "duration": 3, "velocity": 91}, {"time": 2841, "pitch": 66, "duration": 3, "velocity": 90}, {"time": 2844, "pitch": 54, "duration": 5, "velocity": 86}, {"time": 2847, "pitch": 59, "duration": 2, "velocity": 90}, {"time": 2850, "pitch": 59, "duration": 3, "velocity": 91}, {"time": 2850, "pitch": 63, "duration": 3, "velocity": 95}, {"time": 2850, "pitch": 66, "duration": 2, "velocity": 79}, {"time": 2853, "pitch": 51, "duration": 1, "velocity": 73}, {"time": 2856, "pitch": 51, "duration": 1, "velocity": 84}, {"time": 2862, "pitch": 37, "duration": 37, "velocity": 95}, {"time": 2862, "pitch": 61, "duration": 7, "velocity": 85}, {"time": 2862, "pitch": 64, "duration": 8, "velocity": 92}, {"time": 2868, "pitch": 44, "duration": 30, "velocity": 65}, {"time": 2874, "pitch": 61, "duration": 2, "velocity": 90}, {"time": 2874, "pitch": 64, "duration": 1, "velocity": 95}, {"time": 2874, "pitch": 68, "duration": 2, "velocity": 89}, {"time": 2883, "pitch": 61, "duration": 2, "velocity": 93}, {"time": 2883, "pitch": 68, "duration": 1, "velocity": 96}, {"time": 2889, "pitch": 61, "duration": 2, "velocity": 90}, {"time": 2889, "pitch": 64, "duration": 3, "velocity": 92}, {"time": 2895, "pitch": 61, "duration": 2, "velocity": 79}, {"time": 2898, "pitch": 61, "duration": 3, "velocity": 101}, {"time": 2898, "pitch": 64, "duration": 3, "velocity": 104}, {"time": 2901, "pitch": 44, "duration": 2, "velocity": 92}, {"time": 2904, "pitch": 37, "duration": 1, "velocity": 90}, {"time": 2910, "pitch": 45, "duration": 16, "velocity": 90}, {"time": 2910, "pitch": 57, "duration": 8, "velocity": 89}, {"time": 2910, "pitch": 61, "duration": 9, "velocity": 86}, {"time": 2916, "pitch": 52, "duration": 7, "velocity": 86}, {"time": 2922, "pitch": 57, "duration": 3, "velocity": 91}, {"time": 2922, "pitch": 61, "duration": 4, "velocity": 96}, {"time": 2922, "pitch": 64, "duration": 4, "velocity": 96}, {"time": 2925, "pitch": 52, "duration": 2, "velocity": 91}, {"time": 2928, "pitch": 57, "duration": 2, "velocity": 92}, {"time": 2934, "pitch": 47, "duration": 17, "velocity": 92}, {"time": 2934, "pitch": 59, "duration": 7, "velocity": 90}, {"time": 2934, "pitch": 63, "duration": 8, "velocity": 85}, {"time": 2940, "pitch": 54, "duration": 7, "velocity": 82}, {"time": 2943, "pitch": 59, "duration": 2, "velocity": 91}, {"time": 2946, "pitch": 59, "duration": 4, "velocity": 92}, {"time": 2946, "pitch": 63, "duration": 5, "velocity": 92}, {"time": 2946, "pitch": 66, "duration": 5, "velocity": 88}, {"time": 2949, "pitch": 54, "duration": 2, "velocity": 83}, {"time": 2952, "pitch": 59, "duration": 2, "velocity": 89}, {"time": 2958, "pitch": 40, "duration": 22, "velocity": 97}, {"time": 2958, "pitch": 52, "duration": 10, "velocity": 83}, {"time": 2958, "pitch": 56, "duration": 8, "velocity": 86}, {"time": 2958, "pitch": 59, "duration": 10, "velocity": 87}, {"time": 2964, "pitch": 47, "duration": 8, "velocity": 85}, {"time": 2970, "pitch": 52, "duration": 6, "velocity": 94}, {"time": 2970, "pitch": 56, "duration": 6, "velocity": 97}, {"time": 2970, "pitch": 59, "duration": 6, "velocity": 96}, {"time": 2970, "pitch": 64, "duration": 6, "velocity": 94}, {"time": 2976, "pitch": 47, "duration": 4, "velocity": 77}, {"time": 2979, "pitch": 52, "duration": 3, "velocity": 99}, {"time": 2979, "pitch": 64, "duration": 3, "velocity": 95}, {"time": 2982, "pitch": 40, "duration": 25, "velocity": 92}, {"time": 2985, "pitch": 52, "duration": 3, "velocity": 96}, {"time": 2985, "pitch": 56, "duration": 5, "velocity": 91}, {"time": 2985, "pitch": 59, "duration": 7, "velocity": 93}, {"time": 2985, "pitch": 64, "duration": 4, "velocity": 95}, {"time": 2988, "pitch": 47, "duration": 8, "velocity": 83}, {"time": 2991, "pitch": 52, "duration": 2, "velocity": 94}, {"time": 2994, "pitch": 52, "duration": 4, "velocity": 95}, {"time": 2994, "pitch": 56, "duration": 7, "velocity": 99}, {"time": 2994, "pitch": 59, "duration": 12, "velocity": 94}, {"time": 2994, "pitch": 64, "duration": 12, "velocity": 97}, {"time": 2997, "pitch": 47, "duration": 10, "velocity": 93}, {"time": 3000, "pitch": 52, "duration": 6, "velocity": 104}, {"time": 3003, "pitch": 56, "duration": 3, "velocity": 90}, {"time": 3006, "pitch": 40, "duration": 1, "velocity": 91}, {"time": 3006, "pitch": 59, "duration": 1, "velocity": 85}, {"time": 3006, "pitch": 64, "duration": 1, "velocity": 90}, {"time": 3012, "pitch": 47, "duration": 16, "velocity": 73}, {"time": 3018, "pitch": 59, "duration": 2, "velocity": 91}, {"time": 3018, "pitch": 68, "duration": 2, "velocity": 91}, {"time": 3027, "pitch": 59, "duration": 2, "velocity": 90}, {"time": 3027, "pitch": 64, "duration": 2, "velocity": 91}, {"time": 3030, "pitch": 47, "duration": 4, "velocity": 72}, {"time": 3033, "pitch": 59, "duration": 2, "velocity": 91}, {"time": 3033, "pitch": 64, "duration": 3, "velocity": 95}, {"time": 3036, "pitch": 47, "duration": 8, "velocity": 85}, {"time": 3039, "pitch": 59, "duration": 2, "velocity": 90}, {"time": 3042, "pitch": 59, "duration": 2, "velocity": 91}, {"time": 3042, "pitch": 64, "duration": 3, "velocity": 94}, {"time": 3042, "pitch": 68, "duration": 3, "velocity": 91}, {"time": 3054, "pitch": 45, "duration": 41, "velocity": 91}, {"time": 3054, "pitch": 57, "duration": 7, "velocity": 81}, {"time": 3054, "pitch": 61, "duration": 7, "velocity": 84}, {"time": 3054, "pitch": 64, "duration": 7, "velocity": 89}, {"time": 3060, "pitch": 52, "duration": 22, "velocity": 79}, {"time": 3063, "pitch": 57, "duration": 2, "velocity": 90}, {"time": 3069, "pitch": 57, "duration": 1, "velocity": 82}, {"time": 3069, "pitch": 61, "duration": 1, "velocity": 86}, {"time": 3069, "pitch": 64, "duration": 2, "velocity": 91}, {"time": 3078, "pitch": 57, "duration": 3, "velocity": 85}, {"time": 3078, "pitch": 69, "duration": 3, "velocity": 91}, {"time": 3084, "pitch": 52, "duration": 4, "velocity": 78}, {"time": 3087, "pitch": 57, "duration": 4, "velocity": 90}, {"time": 3087, "pitch": 61, "duration": 4, "velocity": 92}, {"time": 3087, "pitch": 64, "duration": 5, "velocity": 92}, {"time": 3093, "pitch": 52, "duration": 2, "velocity": 92}, {"time": 3096, "pitch": 57, "duration": 2, "velocity": 91}, {"time": 3102, "pitch": 40, "duration": 23, "velocity": 91}, {"time": 3102, "pitch": 59, "duration": 4, "velocity": 86}, {"time": 3102, "pitch": 64, "duration": 4, "velocity": 89}, {"time": 3108, "pitch": 47, "duration": 16, "velocity": 63}, {"time": 3111, "pitch": 59, "duration": 2, "velocity": 87}, {"time": 3111, "pitch": 68, "duration": 3, "velocity": 90}, {"time": 3117, "pitch": 59, "duration": 2, "velocity": 85}, {"time": 3117, "pitch": 64, "duration": 2, "velocity": 90}, {"time": 3123, "pitch": 59, "duration": 1, "velocity": 76}, {"time": 3126, "pitch": 40, "duration": 15, "velocity": 90}, {"time": 3126, "pitch": 59, "duration": 4, "velocity": 86}, {"time": 3126, "pitch": 64, "duration": 6, "velocity": 89}, {"time": 3132, "pitch": 47, "duration": 9, "velocity": 69}, {"time": 3135, "pitch": 59, "duration": 2, "velocity": 90}, {"time": 3135, "pitch": 68, "duration": 3, "velocity": 94}, {"time": 3141, "pitch": 59, "duration": 1, "velocity": 90}, {"time": 3141, "pitch": 64, "duration": 2, "velocity": 92}, {"time": 3144, "pitch": 59, "duration": 1, "velocity": 83}, {"time": 3150, "pitch": 45, "duration": 40, "velocity": 91}, {"time": 3150, "pitch": 57, "duration": 7, "velocity": 80}, {"time": 3150, "pitch": 61, "duration": 8, "velocity": 77}, {"time": 3150, "pitch": 64, "duration": 10, "velocity": 88}, {"time": 3162, "pitch": 57, "duration": 2, "velocity": 89}, {"time": 3162, "pitch": 61, "duration": 3, "velocity": 90}, {"time": 3162, "pitch": 64, "duration": 3, "velocity": 91}, {"time": 3165, "pitch": 52, "duration": 13, "velocity": 82}, {"time": 3168, "pitch": 57, "duration": 2, "velocity": 89}, {"time": 3171, "pitch": 57, "duration": 3, "velocity": 90}, {"time": 3171, "pitch": 61, "duration": 3, "velocity": 93}, {"time": 3171, "pitch": 64, "duration": 3, "velocity": 93}, {"time": 3171, "pitch": 69, "duration": 3, "velocity": 90}, {"time": 3177, "pitch": 57, "duration": 3, "velocity": 86}, {"time": 3177, "pitch": 64, "duration": 3, "velocity": 90}, {"time": 3180, "pitch": 52, "duration": 7, "velocity": 80}, {"time": 3183, "pitch": 57, "duration": 2, "velocity": 83}, {"time": 3186, "pitch": 57, "duration": 3, "velocity": 90}, {"time": 3186, "pitch": 64, "duration": 4, "velocity": 94}, {"time": 3189, "pitch": 52, "duration": 2, "velocity": 63}, {"time": 3192, "pitch": 45, "duration": 2, "velocity": 90}, {"time": 3198, "pitch": 40, "duration": 7, "velocity": 92}, {"time": 3198, "pitch": 59, "duration": 4, "velocity": 87}, {"time": 3198, "pitch": 64, "duration": 6, "velocity": 91}, {"time": 3198, "pitch": 68, "duration": 6, "velocity": 86}, {"time": 3204, "pitch": 59, "duration": 1, "velocity": 78}, {"time": 3210, "pitch": 59, "duration": 3, "velocity": 90}, {"time": 3210, "pitch": 68, "duration": 4, "velocity": 93}, {"time": 3213, "pitch": 52, "duration": 10, "velocity": 92}, {"time": 3216, "pitch": 59, "duration": 2, "velocity": 92}, {"time": 3219, "pitch": 59, "duration": 4, "velocity": 91}, {"time": 3219, "pitch": 64, "duration": 4, "velocity": 94}, {"time": 3225, "pitch": 59, "duration": 2, "velocity": 84}, {"time": 3225, "pitch": 64, "duration": 4, "velocity": 91}, {"time": 3225, "pitch": 68, "duration": 6, "velocity": 85}, {"time": 3231, "pitch": 59, "duration": 2, "velocity": 74}, {"time": 3234, "pitch": 59, "duration": 2, "velocity": 93}, {"time": 3234, "pitch": 64, "duration": 1, "velocity": 95}, {"time": 3246, "pitch": 45, "duration": 40, "velocity": 91}, {"time": 3246, "pitch": 57, "duration": 6, "velocity": 80}, {"time": 3246, "pitch": 61, "duration": 8, "velocity": 76}, {"time": 3246, "pitch": 64, "duration": 13, "velocity": 88}, {"time": 3252, "pitch": 52, "duration": 22, "velocity": 81}, {"time": 3255, "pitch": 57, "duration": 5, "velocity": 90}, {"time": 3255, "pitch": 61, "duration": 1, "velocity": 56}, {"time": 3261, "pitch": 61, "duration": 3, "velocity": 80}, {"time": 3261, "pitch": 64, "duration": 3, "velocity": 91}, {"time": 3261, "pitch": 69, "duration": 3, "velocity": 80}, {"time": 3267, "pitch": 57, "duration": 2, "velocity": 81}, {"time": 3273, "pitch": 57, "duration": 3, "velocity": 89}, {"time": 3273, "pitch": 64, "duration": 3, "velocity": 92}, {"time": 3276, "pitch": 52, "duration": 6, "velocity": 81}, {"time": 3279, "pitch": 57, "duration": 1, "velocity": 85}, {"time": 3282, "pitch": 57, "duration": 3, "velocity": 91}, {"time": 3282, "pitch": 61, "duration": 3, "velocity": 96}, {"time": 3282, "pitch": 64, "duration": 4, "velocity": 95}, {"time": 3285, "pitch": 52, "duration": 1, "velocity": 90}, {"time": 3288, "pitch": 57, "duration": 1, "velocity": 95}, {"time": 3294, "pitch": 40, "duration": 16, "velocity": 91}, {"time": 3294, "pitch": 52, "duration": 3, "velocity": 90}, {"time": 3294, "pitch": 56, "duration": 3, "velocity": 82}, {"time": 3294, "pitch": 59, "duration": 4, "velocity": 86}, {"time": 3300, "pitch": 47, "duration": 5, "velocity": 72}, {"time": 3303, "pitch": 59, "duration": 4, "velocity": 96}, {"time": 3306, "pitch": 47, "duration": 4, "velocity": 71}, {"time": 3309, "pitch": 59, "duration": 1, "velocity": 83}, {"time": 3309, "pitch": 64, "duration": 2, "velocity": 92}, {"time": 3318, "pitch": 47, "duration": 12, "velocity": 92}, {"time": 3318, "pitch": 59, "duration": 3, "velocity": 90}, {"time": 3318, "pitch": 63, "duration": 6, "velocity": 85}, {"time": 3324, "pitch": 59, "duration": 1, "velocity": 81}, {"time": 3327, "pitch": 59, "duration": 4, "velocity": 91}, {"time": 3327, "pitch": 66, "duration": 5, "velocity": 85}, {"time": 3333, "pitch": 63, "duration": 3, "velocity": 92}, {"time": 3336, "pitch": 59, "duration": 1, "velocity": 90}, {"time": 3342, "pitch": 45, "duration": 48, "velocity": 89}, {"time": 3342, "pitch": 57, "duration": 7, "velocity": 84}, {"time": 3342, "pitch": 61, "duration": 7, "velocity": 81}, {"time": 3348, "pitch": 52, "duration": 16, "velocity": 77}, {"time": 3351, "pitch": 57, "duration": 3, "velocity": 90}, {"time": 3351, "pitch": 64, "duration": 3, "velocity": 91}, {"time": 3357, "pitch": 61, "duration": 2, "velocity": 93}, {"time": 3363, "pitch": 57, "duration": 3, "velocity": 86}, {"time": 3363, "pitch": 61, "duration": 3, "velocity": 79}, {"time": 3363, "pitch": 69, "duration": 3, "velocity": 88}, {"time": 3366, "pitch": 52, "duration": 4, "velocity": 90}, {"time": 3369, "pitch": 57, "duration": 3, "velocity": 91}, {"time": 3369, "pitch": 61, "duration": 4, "velocity": 89}, {"time": 3369, "pitch": 64, "duration": 5, "velocity": 96}, {"time": 3372, "pitch": 52, "duration": 8, "velocity": 84}, {"time": 3375, "pitch": 57, "duration": 1, "velocity": 79}, {"time": 3378, "pitch": 57, "duration": 12, "velocity": 84}, {"time": 3378, "pitch": 61, "duration": 12, "velocity": 85}, {"time": 3378, "pitch": 64, "duration": 12, "velocity": 91}, {"time": 3384, "pitch": 52, "duration": 6, "velocity": 92}, {"time": 3390, "pitch": 45, "duration": 1, "velocity": 95}, {"time": 3390, "pitch": 57, "duration": 2, "velocity": 89}, {"time": 3390, "pitch": 61, "duration": 2, "velocity": 90}, {"time": 3390, "pitch": 64, "duration": 2, "velocity": 92}, {"time": 3390, "pitch": 69, "duration": 3, "velocity": 89}, {"time": 3393, "pitch": 45, "duration": 2, "velocity": 92}, {"time": 3393, "pitch": 57, "duration": 3, "velocity": 91}, {"time": 3393, "pitch": 61, "duration": 2, "velocity": 95}, {"time": 3393, "pitch": 64, "duration": 3, "velocity": 99}, {"time": 3393, "pitch": 69, "duration": 2, "velocity": 90}, {"time": 3414, "pitch": 45, "duration": 22, "velocity": 93}, {"time": 3414, "pitch": 57, "duration": 9, "velocity": 88}, {"time": 3414, "pitch": 61, "duration": 9, "velocity": 94}, {"time": 3414, "pitch": 69, "duration": 10, "velocity": 91}, {"time": 3423, "pitch": 52, "duration": 4, "velocity": 80}, {"time": 3426, "pitch": 57, "duration": 4, "velocity": 90}, {"time": 3426, "pitch": 61, "duration": 11, "velocity": 90}, {"time": 3426, "pitch": 64, "duration": 11, "velocity": 94}, {"time": 3429, "pitch": 52, "duration": 8, "velocity": 91}, {"time": 3432, "pitch": 57, "duration": 6, "velocity": 86}, {"time": 3438, "pitch": 40, "duration": 40, "velocity": 93}, {"time": 3438, "pitch": 52, "duration": 8, "velocity": 85}, {"time": 3438, "pitch": 56, "duration": 7, "velocity": 75}, {"time": 3438, "pitch": 59, "duration": 7, "velocity": 82}, {"time": 3444, "pitch": 47, "duration": 31, "velocity": 77}, {"time": 3450, "pitch": 52, "duration": 1, "velocity": 93}, {"time": 3450, "pitch": 64, "duration": 1, "velocity": 93}, {"time": 3459, "pitch": 52, "duration": 2, "velocity": 91}, {"time": 3459, "pitch": 59, "duration": 1, "velocity": 90}, {"time": 3465, "pitch": 52, "duration": 2, "velocity": 90}, {"time": 3465, "pitch": 59, "duration": 2, "velocity": 86}, {"time": 3471, "pitch": 52, "duration": 1, "velocity": 84}, {"time": 3474, "pitch": 52, "duration": 3, "velocity": 95}, {"time": 3474, "pitch": 56, "duration": 3, "velocity": 97}, {"time": 3474, "pitch": 59, "duration": 4, "velocity": 92}, {"time": 3477, "pitch": 47, "duration": 2, "velocity": 94}, {"time": 3480, "pitch": 52, "duration": 1, "velocity": 95}, {"time": 3486, "pitch": 45, "duration": 40, "velocity": 91}, {"time": 3486, "pitch": 57, "duration": 8, "velocity": 86}, {"time": 3486, "pitch": 61, "duration": 8, "velocity": 83}, {"time": 3489, "pitch": 52, "duration": 31, "velocity": 77}, {"time": 3498, "pitch": 57, "duration": 1, "velocity": 93}, {"time": 3498, "pitch": 64, "duration": 2, "velocity": 94}, {"time": 3504, "pitch": 57, "duration": 1, "velocity": 86}, {"time": 3507, "pitch": 57, "duration": 2, "velocity": 91}, {"time": 3507, "pitch": 69, "duration": 2, "velocity": 90}, {"time": 3513, "pitch": 57, "duration": 2, "velocity": 90}, {"time": 3513, "pitch": 64, "duration": 2, "velocity": 92}, {"time": 3519, "pitch": 57, "duration": 1, "velocity": 77}, {"time": 3522, "pitch": 57, "duration": 3, "velocity": 90}, {"time": 3522, "pitch": 61, "duration": 3, "velocity": 90}, {"time": 3525, "pitch": 52, "duration": 2, "velocity": 92}, {"time": 3528, "pitch": 57, "duration": 2, "velocity": 93}, {"time": 3534, "pitch": 40, "duration": 39, "velocity": 91}, {"time": 3534, "pitch": 52, "duration": 10, "velocity": 76}, {"time": 3534, "pitch": 56, "duration": 9, "velocity": 81}, {"time": 3540, "pitch": 47, "duration": 11, "velocity": 78}, {"time": 3546, "pitch": 56, "duration": 2, "velocity": 92}, {"time": 3546, "pitch": 59, "duration": 2, "velocity": 91}, {"time": 3552, "pitch": 47, "duration": 19, "velocity": 67}, {"time": 3555, "pitch": 52, "duration": 2, "velocity": 91}, {"time": 3555, "pitch": 56, "duration": 2, "velocity": 82}, {"time": 3555, "pitch": 59, "duration": 2, "velocity": 87}, {"time": 3555, "pitch": 64, "duration": 2, "velocity": 91}, {"time": 3561, "pitch": 52, "duration": 2, "velocity": 91}, {"time": 3561, "pitch": 59, "duration": 2, "velocity": 90}, {"time": 3567, "pitch": 52, "duration": 1, "velocity": 90}, {"time": 3570, "pitch": 52, "duration": 3, "velocity": 92}, {"time": 3570, "pitch": 59, "duration": 3, "velocity": 91}, {"time": 3573, "pitch": 47, "duration": 2, "velocity": 91}, {"time": 3576, "pitch": 52, "duration": 1, "velocity": 96}, {"time": 3582, "pitch": 47, "duration": 15, "velocity": 92}, {"time": 3582, "pitch": 59, "duration": 9, "velocity": 86}, {"time": 3582, "pitch": 63, "duration": 9, "velocity": 83}, {"time": 3594, "pitch": 59, "duration": 3, "velocity": 90}, {"time": 3594, "pitch": 63, "duration": 2, "velocity": 90}, {"time": 3594, "pitch": 66, "duration": 3, "velocity": 85}, {"time": 3600, "pitch": 54, "duration": 3, "velocity": 74}, {"time": 3603, "pitch": 59, "duration": 3, "velocity": 90}, {"time": 3603, "pitch": 63, "duration": 3, "velocity": 85}, {"time": 3603, "pitch": 66, "duration": 3, "velocity": 81}, {"time": 3609, "pitch": 59, "duration": 3, "velocity": 91}, {"time": 3609, "pitch": 66, "duration": 3, "velocity": 90}, {"time": 3612, "pitch": 54, "duration": 5, "velocity": 86}, {"time": 3615, "pitch": 59, "duration": 2, "velocity": 90}, {"time": 3618, "pitch": 59, "duration": 3, "velocity": 91}, {"time": 3618, "pitch": 63, "duration": 3, "velocity": 95}, {"time": 3618, "pitch": 66, "duration": 2, "velocity": 79}, {"time": 3621, "pitch": 51, "duration": 1, "velocity": 73}, {"time": 3624, "pitch": 51, "duration": 1, "velocity": 84}, {"time": 3630, "pitch": 37, "duration": 37, "velocity": 95}, {"time": 3630, "pitch": 61, "duration": 7, "velocity": 85}, {"time": 3630, "pitch": 64, "duration": 8, "velocity": 92}, {"time": 3636, "pitch": 44, "duration": 30, "velocity": 65}, {"time": 3642, "pitch": 61, "duration": 2, "velocity": 90}, {"time": 3642, "pitch": 64, "duration": 1, "velocity": 95}, {"time": 3642, "pitch": 68, "duration": 2, "velocity": 89}, {"time": 3651, "pitch": 61, "duration": 2, "velocity": 93}, {"time": 3651, "pitch": 68, "duration": 1, "velocity": 96}, {"time": 3657, "pitch": 61, "duration": 2, "velocity": 90}, {"time": 3657, "pitch": 64, "duration": 3, "velocity": 92}, {"time": 3663, "pitch": 61, "duration": 2, "velocity": 79}, {"time": 3666, "pitch": 61, "duration": 3, "velocity": 101}, {"time": 3666, "pitch": 64, "duration": 3, "velocity": 104}, {"time": 3669, "pitch": 44, "duration": 2, "velocity": 92}, {"time": 3672, "pitch": 37, "duration": 1, "velocity": 90}, {"time": 3678, "pitch": 45, "duration": 16, "velocity": 90}, {"time": 3678, "pitch": 57, "duration": 8, "velocity": 89}, {"time": 3678, "pitch": 61, "duration": 9, "velocity": 86}, {"time": 3684, "pitch": 52, "duration": 7, "velocity": 86}, {"time": 3690, "pitch": 57, "duration": 3, "velocity": 91}, {"time": 3690, "pitch": 61, "duration": 4, "velocity": 96}, {"time": 3690, "pitch": 64, "duration": 4, "velocity": 96}, {"time": 3693, "pitch": 52, "duration": 2, "velocity": 91}, {"time": 3696, "pitch": 57, "duration": 2, "velocity": 92}, {"time": 3702, "pitch": 47, "duration": 17, "velocity": 92}, {"time": 3702, "pitch": 59, "duration": 7, "velocity": 90}, {"time": 3702, "pitch": 63, "duration": 8, "velocity": 85}, {"time": 3708, "pitch": 54, "duration": 7, "velocity": 82}, {"time": 3711, "pitch": 59, "duration": 2, "velocity": 91}, {"time": 3714, "pitch": 59, "duration": 4, "velocity": 92}, {"time": 3714, "pitch": 63, "duration": 5, "velocity": 92}, {"time": 3714, "pitch": 66, "duration": 5, "velocity": 88}, {"time": 3717, "pitch": 54, "duration": 2, "velocity": 83}, {"time": 3720, "pitch": 59, "duration": 2, "velocity": 89}, {"time": 3726, "pitch": 52, "duration": 7, "velocity": 81}, {"time": 3726, "pitch": 56, "duration": 11, "velocity": 80}, {"time": 3726, "pitch": 59, "duration": 12, "velocity": 79}, {"time": 3726, "pitch": 40, "duration": 35, "velocity": 93}, {"time": 3732, "pitch": 47, "duration": 11, "velocity": 74}, {"time": 3735, "pitch": 52, "duration": 9, "velocity": 88}, {"time": 3741, "pitch": 59, "duration": 8, "velocity": 86}, {"time": 3745, "pitch": 47, "duration": 15, "velocity": 79}, {"time": 3751, "pitch": 52, "duration": 22, "velocity": 84}, {"time": 3751, "pitch": 64, "duration": 22, "velocity": 86}, {"time": 3751, "pitch": 56, "duration": 22, "velocity": 77}, {"time": 3751, "pitch": 59, "duration": 22, "velocity": 86}, {"time": 3774, "pitch": 40, "duration": 43, "velocity": 92}, {"time": 3774, "pitch": 64, "duration": 6, "velocity": 90}, {"time": 3774, "pitch": 68, "duration": 6, "velocity": 80}, {"time": 3780, "pitch": 59, "duration": 6, "velocity": 77}, {"time": 3786, "pitch": 64, "duration": 2, "velocity": 92}, {"time": 3786, "pitch": 68, "duration": 2, "velocity": 92}, {"time": 3792, "pitch": 59, "duration": 7, "velocity": 79}, {"time": 3798, "pitch": 64, "duration": 11, "velocity": 90}, {"time": 3798, "pitch": 68, "duration": 11, "velocity": 81}, {"time": 3810, "pitch": 64, "duration": 6, "velocity": 90}, {"time": 3810, "pitch": 68, "duration": 6, "velocity": 94}, {"time": 3816, "pitch": 59, "duration": 2, "velocity": 90}, {"time": 3822, "pitch": 45, "duration": 38, "velocity": 91}, {"time": 3822, "pitch": 57, "duration": 7, "velocity": 84}, {"time": 3822, "pitch": 61, "duration": 6, "velocity": 80}, {"time": 3822, "pitch": 64, "duration": 6, "velocity": 88}, {"time": 3828, "pitch": 52, "duration": 31, "velocity": 78}, {"time": 3834, "pitch": 61, "duration": 4, "velocity": 80}, {"time": 3834, "pitch": 64, "duration": 4, "velocity": 90}, {"time": 3840, "pitch": 57, "duration": 6, "velocity": 59}, {"time": 3846, "pitch": 61, "duration": 3, "velocity": 76}, {"time": 3846, "pitch": 64, "duration": 3, "velocity": 83}, {"time": 3846, "pitch": 69, "duration": 3, "velocity": 85}, {"time": 3852, "pitch": 57, "duration": 3, "velocity": 36}, {"time": 3858, "pitch": 61, "duration": 2, "velocity": 94}, {"time": 3858, "pitch": 64, "duration": 4, "velocity": 94}, {"time": 3864, "pitch": 57, "duration": 1, "velocity": 76}, {"time": 3870, "pitch": 40, "duration": 37, "velocity": 91}, {"time": 3870, "pitch": 64, "duration": 8, "velocity": 89}, {"time": 3870, "pitch": 68, "duration": 8, "velocity": 82}, {"time": 3876, "pitch": 59, "duration": 6, "velocity": 70}, {"time": 3882, "pitch": 64, "duration": 1, "velocity": 87}, {"time": 3882, "pitch": 68, "duration": 2, "velocity": 84}, {"time": 3888, "pitch": 59, "duration": 3, "velocity": 70}, {"time": 3894, "pitch": 64, "duration": 2, "velocity": 88}, {"time": 3894, "pitch": 68, "duration": 2, "velocity": 78}, {"time": 3906, "pitch": 64, "duration": 2, "velocity": 93}, {"time": 3906, "pitch": 68, "duration": 5, "velocity": 92}, {"time": 3912, "pitch": 59, "duration": 1, "velocity": 91}, {"time": 3918, "pitch": 45, "duration": 30, "velocity": 91}, {"time": 3918, "pitch": 57, "duration": 11, "velocity": 78}, {"time": 3918, "pitch": 61, "duration": 9, "velocity": 79}, {"time": 3918, "pitch": 64, "duration": 9, "velocity": 84}, {"time": 3924, "pitch": 52, "duration": 24, "velocity": 78}, {"time": 3930, "pitch": 61, "duration": 2, "velocity": 74}, {"time": 3930, "pitch": 64, "duration": 2, "velocity": 84}, {"time": 3936, "pitch": 57, "duration": 5, "velocity": 54}, {"time": 3942, "pitch": 61, "duration": 2, "velocity": 80}, {"time": 3942, "pitch": 64, "duration": 2, "velocity": 90}, {"time": 3942, "pitch": 69, "duration": 3, "velocity": 86}, {"time": 3954, "pitch": 61, "duration": 4, "velocity": 90}, {"time": 3954, "pitch": 64, "duration": 4, "velocity": 92}, {"time": 3954, "pitch": 69, "duration": 4, "velocity": 91}, {"time": 3966, "pitch": 40, "duration": 39, "velocity": 93}, {"time": 3972, "pitch": 52, "duration": 7, "velocity": 96}, {"time": 3978, "pitch": 56, "duration": 3, "velocity": 87}, {"time": 3978, "pitch": 59, "duration": 4, "velocity": 89}, {"time": 3978, "pitch": 64, "duration": 3, "velocity": 91}, {"time": 3984, "pitch": 52, "duration": 6, "velocity": 70}, {"time": 3990, "pitch": 56, "duration": 3, "velocity": 72}, {"time": 3990, "pitch": 59, "duration": 3, "velocity": 75}, {"time": 3990, "pitch": 64, "duration": 4, "velocity": 77}, {"time": 3996, "pitch": 52, "duration": 5, "velocity": 74}, {"time": 4002, "pitch": 56, "duration": 4, "velocity": 91}, {"time": 4002, "pitch": 59, "duration": 4, "velocity": 90}, {"time": 4002, "pitch": 64, "duration": 4, "velocity": 91}, {"time": 4014, "pitch": 45, "duration": 40, "velocity": 90}, {"time": 4014, "pitch": 57, "duration": 8, "velocity": 79}, {"time": 4014, "pitch": 61, "duration": 7, "velocity": 82}, {"time": 4014, "pitch": 64, "duration": 8, "velocity": 85}, {"time": 4020, "pitch": 52, "duration": 33, "velocity": 79}, {"time": 4026, "pitch": 61, "duration": 2, "velocity": 88}, {"time": 4026, "pitch": 64, "duration": 2, "velocity": 90}, {"time": 4032, "pitch": 57, "duration": 7, "velocity": 71}, {"time": 4038, "pitch": 61, "duration": 2, "velocity": 78}, {"time": 4038, "pitch": 64, "duration": 2, "velocity": 90}, {"time": 4038, "pitch": 69, "duration": 3, "velocity": 87}, {"time": 4050, "pitch": 61, "duration": 5, "velocity": 90}, {"time": 4050, "pitch": 64, "duration": 5, "velocity": 91}, {"time": 4050, "pitch": 69, "duration": 4, "velocity": 89}, {"time": 4056, "pitch": 57, "duration": 1, "velocity": 91}, {"time": 4061, "pitch": 52, "duration": 26, "velocity": 85}, {"time": 4062, "pitch": 56, "duration": 28, "velocity": 79}, {"time": 4062, "pitch": 40, "duration": 26, "velocity": 94}, {"time": 4063, "pitch": 59, "duration": 27, "velocity": 85}, {"time": 4064, "pitch": 64, "duration": 28, "velocity": 74}, {"time": 4100, "pitch": 47, "duration": 57, "velocity": 93}, {"time": 4102, "pitch": 59, "duration": 60, "velocity": 77}, {"time": 4102, "pitch": 51, "duration": 55, "velocity": 74}, {"time": 4103, "pitch": 63, "duration": 59, "velocity": 83}, {"time": 4104, "pitch": 66, "duration": 58, "velocity": 79}, {"time": 4105, "pitch": 71, "duration": 57, "velocity": 75}, {"time": 4202, "pitch": 40, "duration": 27, "velocity": 86}, {"time": 4202, "pitch": 52, "duration": 31, "velocity": 79}, {"time": 4203, "pitch": 56, "duration": 35, "velocity": 68}, {"time": 4204, "pitch": 59, "duration": 34, "velocity": 77}, {"time": 4206, "pitch": 64, "duration": 33, "velocity": 79}, {"time": 4229, "pitch": 71, "duration": 10, "velocity": 88}, {"time": 4230, "pitch": 76, "duration": 10, "velocity": 90}, {"time": 4239, "pitch": 78, "duration": 12, "velocity": 81}, {"time": 4249, "pitch": 40, "duration": 18, "velocity": 87}, {"time": 4252, "pitch": 76, "duration": 12, "velocity": 85}, {"time": 4253, "pitch": 80, "duration": 11, "velocity": 86}, {"time": 4262, "pitch": 80, "duration": 2, "velocity": 78}, {"time": 4265, "pitch": 76, "duration": 3, "velocity": 82}, {"time": 4267, "pitch": 71, "duration": 4, "velocity": 81}, {"time": 4270, "pitch": 80, "duration": 3, "velocity": 78}, {"time": 4272, "pitch": 76, "duration": 2, "velocity": 82}, {"time": 4274, "pitch": 71, "duration": 3, "velocity": 82}, {"time": 4276, "pitch": 80, "duration": 4, "velocity": 79}, {"time": 4278, "pitch": 76, "duration": 3, "velocity": 81}, {"time": 4280, "pitch": 71, "duration": 5, "velocity": 79}, {"time": 4284, "pitch": 80, "duration": 7, "velocity": 80}, {"time": 4290, "pitch": 81, "duration": 9, "velocity": 90}, {"time": 4299, "pitch": 76, "duration": 2, "velocity": 85}, {"time": 4300, "pitch": 83, "duration": 11, "velocity": 92}, {"time": 4308, "pitch": 45, "duration": 59, "velocity": 85}, {"time": 4318, "pitch": 69, "duration": 14, "velocity": 86}, {"time": 4331, "pitch": 73, "duration": 3, "velocity": 78}, {"time": 4333, "pitch": 75, "duration": 2, "velocity": 80}, {"time": 4335, "pitch": 76, "duration": 2, "velocity": 90}, {"time": 4337, "pitch": 78, "duration": 2, "velocity": 81}, {"time": 4339, "pitch": 80, "duration": 2, "velocity": 86}, {"time": 4341, "pitch": 81, "duration": 3, "velocity": 86}, {"time": 4344, "pitch": 83, "duration": 3, "velocity": 85}, {"time": 4347, "pitch": 81, "duration": 4, "velocity": 84}, {"time": 4350, "pitch": 80, "duration": 6, "velocity": 78}, {"time": 4356, "pitch": 78, "duration": 14, "velocity": 84}, {"time": 4365, "pitch": 71, "duration": 3, "velocity": 70}, {"time": 4366, "pitch": 76, "duration": 3, "velocity": 86}, {"time": 4366, "pitch": 52, "duration": 16, "velocity": 66}, {"time": 4367, "pitch": 64, "duration": 37, "velocity": 77}, {"time": 4368, "pitch": 80, "duration": 9, "velocity": 82}, {"time": 4368, "pitch": 68, "duration": 36, "velocity": 75}, {"time": 4375, "pitch": 76, "duration": 6, "velocity": 84}, {"time": 4379, "pitch": 71, "duration": 3, "velocity": 83}, {"time": 4381, "pitch": 80, "duration": 3, "velocity": 81}, {"time": 4383, "pitch": 76, "duration": 3, "velocity": 84}, {"time": 4385, "pitch": 71, "duration": 2, "velocity": 83}, {"time": 4387, "pitch": 80, "duration": 3, "velocity": 85}, {"time": 4389, "pitch": 76, "duration": 2, "velocity": 84}, {"time": 4391, "pitch": 71, "duration": 3, "velocity": 84}, {"time": 4393, "pitch": 80, "duration": 18, "velocity": 79}, {"time": 4402, "pitch": 71, "duration": 1, "velocity": 78}, {"time": 4403, "pitch": 81, "duration": 6, "velocity": 87}, {"time": 4409, "pitch": 71, "duration": 2, "velocity": 75}, {"time": 4410, "pitch": 83, "duration": 18, "velocity": 84}, {"time": 4431, "pitch": 71, "duration": 5, "velocity": 73}, {"time": 4431, "pitch": 47, "duration": 50, "velocity": 87}, {"time": 4432, "pitch": 78, "duration": 7, "velocity": 79}, {"time": 4440, "pitch": 75, "duration": 4, "velocity": 84}, {"time": 4443, "pitch": 71, "duration": 4, "velocity": 79}, {"time": 4446, "pitch": 78, "duration": 3, "velocity": 85}, {"time": 4448, "pitch": 75, "duration": 3, "velocity": 91}, {"time": 4451, "pitch": 71, "duration": 3, "velocity": 90}, {"time": 4454, "pitch": 78, "duration": 3, "velocity": 91}, {"time": 4456, "pitch": 75, "duration": 3, "velocity": 86}, {"time": 4458, "pitch": 71, "duration": 3, "velocity": 91}, {"time": 4461, "pitch": 76, "duration": 4, "velocity": 84}, {"time": 4465, "pitch": 71, "duration": 5, "velocity": 87}, {"time": 4469, "pitch": 75, "duration": 4, "velocity": 79}, {"time": 4473, "pitch": 71, "duration": 4, "velocity": 84}, {"time": 4476, "pitch": 76, "duration": 4, "velocity": 81}, {"time": 4482, "pitch": 78, "duration": 7, "velocity": 78}, {"time": 4491, "pitch": 71, "duration": 5, "velocity": 70}, {"time": 4492, "pitch": 76, "duration": 2, "velocity": 86}, {"time": 4492, "pitch": 52, "duration": 64, "velocity": 90}, {"time": 4494, "pitch": 80, "duration": 6, "velocity": 76}, {"time": 4498, "pitch": 76, "duration": 7, "velocity": 85}, {"time": 4501, "pitch": 71, "duration": 4, "velocity": 84}, {"time": 4504, "pitch": 80, "duration": 4, "velocity": 86}, {"time": 4507, "pitch": 76, "duration": 3, "velocity": 90}, {"time": 4509, "pitch": 71, "duration": 3, "velocity": 91}, {"time": 4511, "pitch": 80, "duration": 3, "velocity": 99}, {"time": 4513, "pitch": 76, "duration": 2, "velocity": 90}, {"time": 4515, "pitch": 71, "duration": 3, "velocity": 92}, {"time": 4518, "pitch": 80, "duration": 2, "velocity": 92}, {"time": 4520, "pitch": 76, "duration": 2, "velocity": 84}, {"time": 4522, "pitch": 71, "duration": 3, "velocity": 90}, {"time": 4525, "pitch": 80, "duration": 4, "velocity": 87}, {"time": 4529, "pitch": 76, "duration": 3, "velocity": 66}, {"time": 4533, "pitch": 71, "duration": 2, "velocity": 91}, {"time": 4534, "pitch": 80, "duration": 5, "velocity": 89}, {"time": 4539, "pitch": 71, "duration": 1, "velocity": 80}, {"time": 4540, "pitch": 76, "duration": 1, "velocity": 79}, {"time": 4540, "pitch": 81, "duration": 4, "velocity": 85}, {"time": 4544, "pitch": 71, "duration": 2, "velocity": 83}, {"time": 4545, "pitch": 76, "duration": 2, "velocity": 82}, {"time": 4546, "pitch": 83, "duration": 5, "velocity": 90}, {"time": 4557, "pitch": 76, "duration": 2, "velocity": 81}, {"time": 4558, "pitch": 80, "duration": 2, "velocity": 78}, {"time": 4558, "pitch": 45, "duration": 64, "velocity": 82}, {"time": 4559, "pitch": 83, "duration": 1, "velocity": 77}, {"time": 4560, "pitch": 88, "duration": 2, "velocity": 91}, {"time": 4568, "pitch": 83, "duration": 5, "velocity": 85}, {"time": 4572, "pitch": 88, "duration": 4, "velocity": 92}, {"time": 4576, "pitch": 87, "duration": 6, "velocity": 86}, {"time": 4582, "pitch": 83, "duration": 6, "velocity": 82}, {"time": 4587, "pitch": 76, "duration": 6, "velocity": 83}, {"time": 4593, "pitch": 85, "duration": 8, "velocity": 82}, {"time": 4600, "pitch": 81, "duration": 4, "velocity": 79}, {"time": 4603, "pitch": 76, "duration": 3, "velocity": 82}, {"time": 4605, "pitch": 85, "duration": 3, "velocity": 83}, {"time": 4607, "pitch": 81, "duration": 3, "velocity": 79}, {"time": 4609, "pitch": 76, "duration": 2, "velocity": 85}, {"time": 4611, "pitch": 85, "duration": 3, "velocity": 83}, {"time": 4613, "pitch": 81, "duration": 3, "velocity": 79}, {"time": 4614, "pitch": 76, "duration": 2, "velocity": 75}, {"time": 4616, "pitch": 85, "duration": 3, "velocity": 78}, {"time": 4618, "pitch": 81, "duration": 4, "velocity": 56}, {"time": 4620, "pitch": 76, "duration": 2, "velocity": 76}, {"time": 4622, "pitch": 85, "duration": 3, "velocity": 85}, {"time": 4624, "pitch": 81, "duration": 2, "velocity": 82}, {"time": 4625, "pitch": 76, "duration": 2, "velocity": 92}, {"time": 4627, "pitch": 85, "duration": 2, "velocity": 96}, {"time": 4629, "pitch": 81, "duration": 2, "velocity": 86}, {"time": 4630, "pitch": 76, "duration": 2, "velocity": 89}, {"time": 4632, "pitch": 85, "duration": 2, "velocity": 97}, {"time": 4634, "pitch": 81, "duration": 2, "velocity": 78}, {"time": 4635, "pitch": 76, "duration": 2, "velocity": 80}, {"time": 4636, "pitch": 85, "duration": 3, "velocity": 87}, {"time": 4639, "pitch": 81, "duration": 3, "velocity": 74}, {"time": 4640, "pitch": 76, "duration": 3, "velocity": 84}, {"time": 4643, "pitch": 85, "duration": 4, "velocity": 90}, {"time": 4646, "pitch": 81, "duration": 7, "velocity": 75}, {"time": 4650, "pitch": 76, "duration": 3, "velocity": 79}, {"time": 4653, "pitch": 85, "duration": 22, "velocity": 77}, {"time": 4655, "pitch": 45, "duration": 25, "velocity": 77}, {"time": 4683, "pitch": 40, "duration": 6, "velocity": 86}, {"time": 4683, "pitch": 68, "duration": 38, "velocity": 83}, {"time": 4687, "pitch": 47, "duration": 8, "velocity": 81}, {"time": 4692, "pitch": 52, "duration": 6, "velocity": 68}, {"time": 4697, "pitch": 47, "duration": 5, "velocity": 88}, {"time": 4701, "pitch": 52, "duration": 5, "velocity": 90}, {"time": 4705, "pitch": 47, "duration": 6, "velocity": 86}, {"time": 4710, "pitch": 52, "duration": 6, "velocity": 91}, {"time": 4715, "pitch": 47, "duration": 3, "velocity": 88}, {"time": 4721, "pitch": 47, "duration": 60, "velocity": 92}, {"time": 4722, "pitch": 66, "duration": 12, "velocity": 84}, {"time": 4727, "pitch": 51, "duration": 7, "velocity": 69}, {"time": 4733, "pitch": 54, "duration": 47, "velocity": 79}, {"time": 4733, "pitch": 63, "duration": 11, "velocity": 80}, {"time": 4739, "pitch": 51, "duration": 42, "velocity": 83}, {"time": 4744, "pitch": 59, "duration": 35, "velocity": 91}, {"time": 4748, "pitch": 63, "duration": 32, "velocity": 82}, {"time": 4753, "pitch": 66, "duration": 27, "velocity": 76}, {"time": 4758, "pitch": 71, "duration": 23, "velocity": 77}, {"time": 4857, "pitch": 40, "duration": 40, "velocity": 69}], "annotations": [{"time": 126, "annotation": {"number": 64, "value": 127}, "group": "control_change"}, {"time": 173, "annotation": {"number": 64, "value": 0}, "group": "control_change"}, {"time": 176, "annotation": {"number": 64, "value": 127}, "group": "control_change"}, {"time": 220, "annotation": {"number": 64, "value": 0}, "group": "control_change"}, {"time": 225, "annotation": {"number": 64, "value": 127}, "group": "control_change"}, {"time": 268, "annotation": {"number": 64, "value": 0}, "group": "control_change"}, {"time": 273, "annotation": {"number": 64, "value": 127}, "group": "control_change"}, {"time": 317, "annotation": {"number": 64, "value": 0}, "group": "control_change"}, {"time": 319, "annotation": {"number": 64, "value": 127}, "group": "control_change"}, {"time": 344, "annotation": {"number": 64, "value": 0}, "group": "control_change"}, {"time": 353, "annotation": {"number": 64, "value": 127}, "group": "control_change"}, {"time": 365, "annotation": {"number": 64, "value": 0}, "group": "control_change"}, {"time": 371, "annotation": {"number": 64, "value": 127}, "group": "control_change"}, {"time": 413, "annotation": {"number": 64, "value": 0}, "group": "control_change"}, {"time": 419, "annotation": {"number": 64, "value": 127}, "group": "control_change"}, {"time": 460, "annotation": {"number": 64, "value": 0}, "group": "control_change"}, {"time": 467, "annotation": {"number": 64, "value": 127}, "group": "control_change"}, {"time": 509, "annotation": {"number": 64, "value": 0}, "group": "control_change"}, {"time": 512, "annotation": {"number": 64, "value": 127}, "group": "control_change"}, {"time": 556, "annotation": {"number": 64, "value": 0}, "group": "control_change"}, {"time": 563, "annotation": {"number": 64, "value": 127}, "group": "control_change"}, {"time": 605, "annotation": {"number": 64, "value": 0}, "group": "control_change"}, {"time": 612, "annotation": {"number": 64, "value": 127}, "group": "control_change"}, {"time": 627, "annotation": {"number": 64, "value": 0}, "group": "control_change"}, {"time": 632, "annotation": {"number": 64, "value": 127}, "group": "control_change"}, {"time": 651, "annotation": {"number": 64, "value": 0}, "group": "control_change"}, {"time": 658, "annotation": {"number": 64, "value": 127}, "group": "control_change"}, {"time": 699, "annotation": {"number": 64, "value": 0}, "group": "control_change"}, {"time": 703, "annotation": {"number": 64, "value": 127}, "group": "control_change"}, {"time": 747, "annotation": {"number": 64, "value": 0}, "group": "control_change"}, {"time": 751, "annotation": {"number": 64, "value": 127}, "group": "control_change"}, {"time": 796, "annotation": {"number": 64, "value": 0}, "group": "control_change"}, {"time": 799, "annotation": {"number": 64, "value": 127}, "group": "control_change"}, {"time": 844, "annotation": {"number": 64, "value": 0}, "group": "control_change"}, {"time": 851, "annotation": {"number": 64, "value": 127}, "group": "control_change"}, {"time": 893, "annotation": {"number": 64, "value": 0}, "group": "control_change"}, {"time": 899, "annotation": {"number": 64, "value": 127}, "group": "control_change"}, {"time": 940, "annotation": {"number": 64, "value": 0}, "group": "control_change"}, {"time": 948, "annotation": {"number": 64, "value": 127}, "group": "control_change"}, {"time": 948, "annotation": {"number": 64, "value": 0}, "group": "control_change"}, {"time": 990, "annotation": {"number": 64, "value": 0}, "group": "control_change"}, {"time": 996, "annotation": {"number": 64, "value": 127}, "group": "control_change"}, {"time": 1013, "annotation": {"number": 64, "value": 0}, "group": "control_change"}, {"time": 1019, "annotation": {"number": 64, "value": 127}, "group": "control_change"}, {"time": 1019, "annotation": {"number": 64, "value": 0}, "group": "control_change"}, {"time": 1036, "annotation": {"number": 64, "value": 0}, "group": "control_change"}, {"time": 1042, "annotation": {"number": 64, "value": 127}, "group": "control_change"}, {"time": 1084, "annotation": {"number": 64, "value": 0}, "group": "control_change"}, {"time": 1090, "annotation": {"number": 64, "value": 127}, "group": "control_change"}, {"time": 1131, "annotation": {"number": 64, "value": 0}, "group": "control_change"}, {"time": 1139, "annotation": {"number": 64, "value": 127}, "group": "control_change"}, {"time": 1181, "annotation": {"number": 64, "value": 0}, "group": "control_change"}, {"time": 1187, "annotation": {"number": 64, "value": 127}, "group": "control_change"}, {"time": 1230, "annotation": {"number": 64, "value": 0}, "group": "control_change"}, {"time": 1236, "annotation": {"number": 64, "value": 127}, "group": "control_change"}, {"time": 1276, "annotation": {"number": 64, "value": 0}, "group": "control_change"}, {"time": 1283, "annotation": {"number": 64, "value": 127}, "group": "control_change"}, {"time": 1323, "annotation": {"number": 64, "value": 0}, "group": "control_change"}, {"time": 1327, "annotation": {"number": 64, "value": 127}, "group": "control_change"}, {"time": 1373, "annotation": {"number": 64, "value": 0}, "group": "control_change"}, {"time": 1379, "annotation": {"number": 64, "value": 127}, "group": "control_change"}, {"time": 1396, "annotation": {"number": 64, "value": 0}, "group": "control_change"}, {"time": 1402, "annotation": {"number": 64, "value": 127}, "group": "control_change"}, {"time": 1402, "annotation": {"number": 64, "value": 0}, "group": "control_change"}, {"time": 1421, "annotation": {"number": 64, "value": 0}, "group": "control_change"}, {"time": 1427, "annotation": {"number": 64, "value": 127}, "group": "control_change"}, {"time": 1468, "annotation": {"number": 64, "value": 0}, "group": "control_change"}, {"time": 1470, "annotation": {"number": 64, "value": 127}, "group": "control_change"}, {"time": 1518, "annotation": {"number": 64, "value": 0}, "group": "control_change"}, {"time": 1524, "annotation": {"number": 64, "value": 127}, "group": "control_change"}, {"time": 1565, "annotation": {"number": 64, "value": 0}, "group": "control_change"}, {"time": 1568, "annotation": {"number": 64, "value": 127}, "group": "control_change"}, {"time": 1613, "annotation": {"number": 64, "value": 0}, "group": "control_change"}, {"time": 1619, "annotation": {"number": 64, "value": 127}, "group": "control_change"}, {"time": 1660, "annotation": {"number": 64, "value": 0}, "group": "control_change"}, {"time": 1663, "annotation": {"number": 64, "value": 127}, "group": "control_change"}, {"time": 1707, "annotation": {"number": 64, "value": 0}, "group": "control_change"}, {"time": 1715, "annotation": {"number": 64, "value": 127}, "group": "control_change"}, {"time": 1757, "annotation": {"number": 64, "value": 0}, "group": "control_change"}, {"time": 1759, "annotation": {"number": 64, "value": 127}, "group": "control_change"}, {"time": 1780, "annotation": {"number": 64, "value": 0}, "group": "control_change"}, {"time": 1783, "annotation": {"number": 64, "value": 127}, "group": "control_change"}, {"time": 1805, "annotation": {"number": 64, "value": 0}, "group": "control_change"}, {"time": 1811, "annotation": {"number": 64, "value": 127}, "group": "control_change"}, {"time": 1850, "annotation": {"number": 64, "value": 0}, "group": "control_change"}, {"time": 1855, "annotation": {"number": 64, "value": 127}, "group": "control_change"}, {"time": 1899, "annotation": {"number": 64, "value": 0}, "group": "control_change"}, {"time": 1903, "annotation": {"number": 64, "value": 127}, "group": "control_change"}, {"time": 1948, "annotation": {"number": 64, "value": 0}, "group": "control_change"}, {"time": 1951, "annotation": {"number": 64, "value": 127}, "group": "control_change"}, {"time": 1996, "annotation": {"number": 64, "value": 0}, "group": "control_change"}, {"time": 2003, "annotation": {"number": 64, "value": 127}, "group": "control_change"}, {"time": 2045, "annotation": {"number": 64, "value": 0}, "group": "control_change"}, {"time": 2051, "annotation": {"number": 64, "value": 127}, "group": "control_change"}, {"time": 2092, "annotation": {"number": 64, "value": 0}, "group": "control_change"}, {"time": 2100, "annotation": {"number": 64, "value": 127}, "group": "control_change"}, {"time": 2100, "annotation": {"number": 64, "value": 0}, "group": "control_change"}, {"time": 2142, "annotation": {"number": 64, "value": 0}, "group": "control_change"}, {"time": 2148, "annotation": {"number": 64, "value": 127}, "group": "control_change"}, {"time": 2165, "annotation": {"number": 64, "value": 0}, "group": "control_change"}, {"time": 2171, "annotation": {"number": 64, "value": 127}, "group": "control_change"}, {"time": 2171, "annotation": {"number": 64, "value": 0}, "group": "control_change"}, {"time": 2188, "annotation": {"number": 64, "value": 0}, "group": "control_change"}, {"time": 2191, "annotation": {"number": 64, "value": 127}, "group": "control_change"}, {"time": 2201, "annotation": {"number": 64, "value": 0}, "group": "control_change"}, {"time": 2203, "annotation": {"number": 64, "value": 127}, "group": "control_change"}, {"time": 2212, "annotation": {"number": 64, "value": 0}, "group": "control_change"}, {"time": 2214, "annotation": {"number": 64, "value": 127}, "group": "control_change"}, {"time": 2223, "annotation": {"number": 64, "value": 0}, "group": "control_change"}, {"time": 2226, "annotation": {"number": 64, "value": 127}, "group": "control_change"}, {"time": 2237, "annotation": {"number": 64, "value": 0}, "group": "control_change"}, {"time": 2242, "annotation": {"number": 64, "value": 127}, "group": "control_change"}, {"time": 2283, "annotation": {"number": 64, "value": 0}, "group": "control_change"}, {"time": 2291, "annotation": {"number": 64, "value": 127}, "group": "control_change"}, {"time": 2333, "annotation": {"number": 64, "value": 0}, "group": "control_change"}, {"time": 2339, "annotation": {"number": 64, "value": 127}, "group": "control_change"}, {"time": 2382, "annotation": {"number": 64, "value": 0}, "group": "control_change"}, {"time": 2388, "annotation": {"number": 64, "value": 127}, "group": "control_change"}, {"time": 2428, "annotation": {"number": 64, "value": 0}, "group": "control_change"}, {"time": 2435, "annotation": {"number": 64, "value": 127}, "group": "control_change"}, {"time": 2475, "annotation": {"number": 64, "value": 0}, "group": "control_change"}, {"time": 2479, "annotation": {"number": 64, "value": 127}, "group": "control_change"}, {"time": 2525, "annotation": {"number": 64, "value": 0}, "group": "control_change"}, {"time": 2531, "annotation": {"number": 64, "value": 127}, "group": "control_change"}, {"time": 2548, "annotation": {"number": 64, "value": 0}, "group": "control_change"}, {"time": 2554, "annotation": {"number": 64, "value": 127}, "group": "control_change"}, {"time": 2554, "annotation": {"number": 64, "value": 0}, "group": "control_change"}, {"time": 2573, "annotation": {"number": 64, "value": 0}, "group": "control_change"}, {"time": 2575, "annotation": {"number": 64, "value": 127}, "group": "control_change"}, {"time": 2576, "annotation": {"number": 64, "value": 0}, "group": "control_change"}, {"time": 2576, "annotation": {"number": 64, "value": 127}, "group": "control_change"}, {"time": 2599, "annotation": {"number": 64, "value": 0}, "group": "control_change"}, {"time": 2600, "annotation": {"number": 64, "value": 127}, "group": "control_change"}, {"time": 2618, "annotation": {"number": 64, "value": 0}, "group": "control_change"}, {"time": 2626, "annotation": {"number": 64, "value": 127}, "group": "control_change"}, {"time": 2667, "annotation": {"number": 64, "value": 0}, "group": "control_change"}, {"time": 2675, "annotation": {"number": 64, "value": 127}, "group": "control_change"}, {"time": 2717, "annotation": {"number": 64, "value": 0}, "group": "control_change"}, {"time": 2723, "annotation": {"number": 64, "value": 127}, "group": "control_change"}, {"time": 2766, "annotation": {"number": 64, "value": 0}, "group": "control_change"}, {"time": 2772, "annotation": {"number": 64, "value": 127}, "group": "control_change"}, {"time": 2812, "annotation": {"number": 64, "value": 0}, "group": "control_change"}, {"time": 2819, "annotation": {"number": 64, "value": 127}, "group": "control_change"}, {"time": 2859, "annotation": {"number": 64, "value": 0}, "group": "control_change"}, {"time": 2863, "annotation": {"number": 64, "value": 127}, "group": "control_change"}, {"time": 2909, "annotation": {"number": 64, "value": 0}, "group": "control_change"}, {"time": 2915, "annotation": {"number": 64, "value": 127}, "group": "control_change"}, {"time": 2932, "annotation": {"number": 64, "value": 0}, "group": "control_change"}, {"time": 2938, "annotation": {"number": 64, "value": 127}, "group": "control_change"}, {"time": 2938, "annotation": {"number": 64, "value": 0}, "group": "control_change"}, {"time": 2957, "annotation": {"number": 64, "value": 0}, "group": "control_change"}, {"time": 2961, "annotation": {"number": 64, "value": 127}, "group": "control_change"}, {"time": 2994, "annotation": {"number": 64, "value": 0}, "group": "control_change"}, {"time": 3006, "annotation": {"number": 64, "value": 127}, "group": "control_change"}, {"time": 3054, "annotation": {"number": 64, "value": 0}, "group": "control_change"}, {"time": 3060, "annotation": {"number": 64, "value": 127}, "group": "control_change"}, {"time": 3101, "annotation": {"number": 64, "value": 0}, "group": "control_change"}, {"time": 3104, "annotation": {"number": 64, "value": 127}, "group": "control_change"}, {"time": 3149, "annotation": {"number": 64, "value": 0}, "group": "control_change"}, {"time": 3155, "annotation": {"number": 64, "value": 127}, "group": "control_change"}, {"time": 3196, "annotation": {"number": 64, "value": 0}, "group": "control_change"}, {"time": 3199, "annotation": {"number": 64, "value": 127}, "group": "control_change"}, {"time": 3243, "annotation": {"number": 64, "value": 0}, "group": "control_change"}, {"time": 3251, "annotation": {"number": 64, "value": 127}, "group": "control_change"}, {"time": 3293, "annotation": {"number": 64, "value": 0}, "group": "control_change"}, {"time": 3295, "annotation": {"number": 64, "value": 127}, "group": "control_change"}, {"time": 3316, "annotation": {"number": 64, "value": 0}, "group": "control_change"}, {"time": 3319, "annotation": {"number": 64, "value": 127}, "group": "control_change"}, {"time": 3341, "annotation": {"number": 64, "value": 0}, "group": "control_change"}, {"time": 3347, "annotation": {"number": 64, "value": 127}, "group": "control_change"}, {"time": 3386, "annotation": {"number": 64, "value": 0}, "group": "control_change"}, {"time": 3390, "annotation": {"number": 64, "value": 127}, "group": "control_change"}, {"time": 3395, "annotation": {"number": 64, "value": 0}, "group": "control_change"}, {"time": 3415, "annotation": {"number": 64, "value": 127}, "group": "control_change"}, {"time": 3436, "annotation": {"number": 64, "value": 0}, "group": "control_change"}, {"time": 3443, "annotation": {"number": 64, "value": 127}, "group": "control_change"}, {"time": 3485, "annotation": {"number": 64, "value": 0}, "group": "control_change"}, {"time": 3491, "annotation": {"number": 64, "value": 127}, "group": "control_change"}, {"time": 3534, "annotation": {"number": 64, "value": 0}, "group": "control_change"}, {"time": 3540, "annotation": {"number": 64, "value": 127}, "group": "control_change"}, {"time": 3580, "annotation": {"number": 64, "value": 0}, "group": "control_change"}, {"time": 3587, "annotation": {"number": 64, "value": 127}, "group": "control_change"}, {"time": 3627, "annotation": {"number": 64, "value": 0}, "group": "control_change"}, {"time": 3631, "annotation": {"number": 64, "value": 127}, "group": "control_change"}, {"time": 3677, "annotation": {"number": 64, "value": 0}, "group": "control_change"}, {"time": 3683, "annotation": {"number": 64, "value": 127}, "group": "control_change"}, {"time": 3700, "annotation": {"number": 64, "value": 0}, "group": "control_change"}, {"time": 3706, "annotation": {"number": 64, "value": 127}, "group": "control_change"}, {"time": 3706, "annotation": {"number": 64, "value": 0}, "group": "control_change"}, {"time": 3725, "annotation": {"number": 64, "value": 0}, "group": "control_change"}, {"time": 3732, "annotation": {"number": 64, "value": 127}, "group": "control_change"}, {"time": 3772, "annotation": {"number": 64, "value": 0}, "group": "control_change"}, {"time": 3775, "annotation": {"number": 64, "value": 127}, "group": "control_change"}, {"time": 3800, "annotation": {"number": 64, "value": 0}, "group": "control_change"}, {"time": 3809, "annotation": {"number": 64, "value": 127}, "group": "control_change"}, {"time": 3821, "annotation": {"number": 64, "value": 0}, "group": "control_change"}, {"time": 3827, "annotation": {"number": 64, "value": 127}, "group": "control_change"}, {"time": 3869, "annotation": {"number": 64, "value": 0}, "group": "control_change"}, {"time": 3875, "annotation": {"number": 64, "value": 127}, "group": "control_change"}, {"time": 3916, "annotation": {"number": 64, "value": 0}, "group": "control_change"}, {"time": 3923, "annotation": {"number": 64, "value": 127}, "group": "control_change"}, {"time": 3965, "annotation": {"number": 64, "value": 0}, "group": "control_change"}, {"time": 3968, "annotation": {"number": 64, "value": 127}, "group": "control_change"}, {"time": 4012, "annotation": {"number": 64, "value": 0}, "group": "control_change"}, {"time": 4019, "annotation": {"number": 64, "value": 127}, "group": "control_change"}, {"time": 4061, "annotation": {"number": 64, "value": 0}, "group": "control_change"}, {"time": 4084, "annotation": {"number": 64, "value": 127}, "group": "control_change"}, {"time": 4099, "annotation": {"number": 64, "value": 0}, "group": "control_change"}, {"time": 4434, "annotation": {"number": 64, "value": 127}, "group": "control_change"}, {"time": 4487, "annotation": {"number": 64, "value": 0}, "group": "control_change"}, {"time": 4497, "annotation": {"number": 64, "value": 127}, "group": "control_change"}, {"time": 4498, "annotation": {"number": 64, "value": 0}, "group": "control_change"}, {"time": 4498, "annotation": {"number": 64, "value": 127}, "group": "control_change"}, {"time": 4500, "annotation": {"number": 64, "value": 0}, "group": "control_change"}, {"time": 4501, "annotation": {"number": 64, "value": 127}, "group": "control_change"}, {"time": 4533, "annotation": {"number": 64, "value": 0}, "group": "control_change"}, {"time": 4534, "annotation": {"number": 64, "value": 127}, "group": "control_change"}, {"time": 4557, "annotation": {"number": 64, "value": 0}, "group": "control_change"}, {"time": 4559, "annotation": {"number": 64, "value": 127}, "group": "control_change"}, {"time": 4585, "annotation": {"number": 64, "value": 0}, "group": "control_change"}, {"time": 4689, "annotation": {"number": 64, "value": 127}, "group": "control_change"}, {"time": 4719, "annotation": {"number": 64, "value": 0}, "group": "control_change"}, {"time": 4723, "annotation": {"number": 64, "value": 127}, "group": "control_change"}, {"time": 4780, "annotation": {"number": 64, "value": 0}, "group": "control_change"}]}]}