{"metadata": {"schema_version": "0.2", "title": "None", "source_filename": "512.mid", "source_format": "midi"}, "resolution": 12, "tempos": [{"time": 0, "qpm": 109.00014170018422}, {"time": 504, "qpm": 109.25001684271093}, {"time": 840, "qpm": 109.00014170018422}, {"time": 1512, "qpm": 109.25001684271093}, {"time": 1992, "qpm": 109.2001092001092}, {"time": 2243, "qpm": 108.80011605345712}, {"time": 2423, "qpm": 109.2001092001092}, {"time": 3048, "qpm": 108.80011605345712}, {"time": 3428, "qpm": 109.2001092001092}, {"time": 3692, "qpm": 108.90003702601258}, {"time": 3734, "qpm": 109.00014170018422}, {"time": 3774, "qpm": 108.80011605345712}, {"time": 3794, "qpm": 108.70018134813589}], "time_signatures": [{"time": 0, "numerator": 1, "denominator": 4}], "tracks": [{"program": 0, "is_drum": false, "name": "MELODY", "notes": [{"time": 417, "pitch": 82, "duration": 4, "velocity": 91}, {"time": 423, "pitch": 82, "duration": 3, "velocity": 93}, {"time": 429, "pitch": 82, "duration": 16, "velocity": 100}, {"time": 453, "pitch": 82, "duration": 5, "velocity": 93}, {"time": 459, "pitch": 84, "duration": 4, "velocity": 96}, {"time": 465, "pitch": 82, "duration": 3, "velocity": 90}, {"time": 471, "pitch": 79, "duration": 11, "velocity": 93}, {"time": 483, "pitch": 77, "duration": 13, "velocity": 103}, {"time": 495, "pitch": 75, "duration": 12, "velocity": 95}, {"time": 513, "pitch": 67, "duration": 4, "velocity": 85}, {"time": 519, "pitch": 72, "duration": 5, "velocity": 89}, {"time": 525, "pitch": 75, "duration": 5, "velocity": 87}, {"time": 531, "pitch": 72, "duration": 18, "velocity": 86}, {"time": 549, "pitch": 70, "duration": 33, "velocity": 89}, {"time": 657, "pitch": 72, "duration": 3, "velocity": 95}, {"time": 663, "pitch": 72, "duration": 3, "velocity": 98}, {"time": 669, "pitch": 72, "duration": 5, "velocity": 93}, {"time": 675, "pitch": 75, "duration": 15, "velocity": 95}, {"time": 699, "pitch": 77, "duration": 6, "velocity": 105}, {"time": 705, "pitch": 84, "duration": 9, "velocity": 96}, {"time": 717, "pitch": 82, "duration": 3, "velocity": 91}, {"time": 723, "pitch": 79, "duration": 4, "velocity": 91}, {"time": 729, "pitch": 77, "duration": 4, "velocity": 96}, {"time": 735, "pitch": 79, "duration": 30, "velocity": 100}, {"time": 849, "pitch": 77, "duration": 3, "velocity": 95}, {"time": 855, "pitch": 77, "duration": 3, "velocity": 94}, {"time": 861, "pitch": 77, "duration": 4, "velocity": 95}, {"time": 867, "pitch": 82, "duration": 14, "velocity": 91}, {"time": 891, "pitch": 79, "duration": 3, "velocity": 90}, {"time": 897, "pitch": 79, "duration": 4, "velocity": 89}, {"time": 903, "pitch": 77, "duration": 3, "velocity": 94}, {"time": 909, "pitch": 79, "duration": 4, "velocity": 93}, {"time": 915, "pitch": 77, "duration": 5, "velocity": 96}, {"time": 921, "pitch": 75, "duration": 4, "velocity": 89}, {"time": 927, "pitch": 72, "duration": 66, "velocity": 84}, {"time": 1011, "pitch": 70, "duration": 4, "velocity": 95}, {"time": 1017, "pitch": 70, "duration": 4, "velocity": 90}, {"time": 1023, "pitch": 72, "duration": 32, "velocity": 100}, {"time": 1059, "pitch": 72, "duration": 5, "velocity": 100}, {"time": 1065, "pitch": 79, "duration": 5, "velocity": 91}, {"time": 1071, "pitch": 77, "duration": 18, "velocity": 93}, {"time": 1089, "pitch": 79, "duration": 4, "velocity": 93}, {"time": 1095, "pitch": 70, "duration": 3, "velocity": 93}, {"time": 1101, "pitch": 67, "duration": 4, "velocity": 93}, {"time": 1107, "pitch": 70, "duration": 4, "velocity": 89}, {"time": 1113, "pitch": 77, "duration": 4, "velocity": 93}, {"time": 1119, "pitch": 75, "duration": 50, "velocity": 95}, {"time": 1215, "pitch": 72, "duration": 15, "velocity": 96}, {"time": 1233, "pitch": 72, "duration": 4, "velocity": 93}, {"time": 1239, "pitch": 72, "duration": 4, "velocity": 96}, {"time": 1245, "pitch": 75, "duration": 3, "velocity": 96}, {"time": 1251, "pitch": 77, "duration": 3, "velocity": 95}, {"time": 1257, "pitch": 79, "duration": 10, "velocity": 96}, {"time": 1269, "pitch": 72, "duration": 37, "velocity": 103}, {"time": 1311, "pitch": 72, "duration": 14, "velocity": 96}, {"time": 1329, "pitch": 72, "duration": 3, "velocity": 100}, {"time": 1335, "pitch": 72, "duration": 4, "velocity": 93}, {"time": 1341, "pitch": 75, "duration": 3, "velocity": 100}, {"time": 1347, "pitch": 77, "duration": 4, "velocity": 93}, {"time": 1353, "pitch": 79, "duration": 8, "velocity": 96}, {"time": 1365, "pitch": 79, "duration": 33, "velocity": 96}, {"time": 1407, "pitch": 79, "duration": 8, "velocity": 93}, {"time": 1419, "pitch": 79, "duration": 4, "velocity": 96}, {"time": 1425, "pitch": 77, "duration": 3, "velocity": 95}, {"time": 1431, "pitch": 79, "duration": 10, "velocity": 98}, {"time": 1443, "pitch": 77, "duration": 4, "velocity": 91}, {"time": 1449, "pitch": 79, "duration": 20, "velocity": 96}, {"time": 1473, "pitch": 79, "duration": 4, "velocity": 96}, {"time": 1479, "pitch": 84, "duration": 8, "velocity": 95}, {"time": 1491, "pitch": 84, "duration": 4, "velocity": 93}, {"time": 1497, "pitch": 82, "duration": 10, "velocity": 94}, {"time": 1509, "pitch": 79, "duration": 5, "velocity": 90}, {"time": 1515, "pitch": 82, "duration": 77, "velocity": 91}, {"time": 1599, "pitch": 79, "duration": 4, "velocity": 96}, {"time": 1605, "pitch": 82, "duration": 9, "velocity": 98}, {"time": 1617, "pitch": 82, "duration": 3, "velocity": 91}, {"time": 1623, "pitch": 82, "duration": 4, "velocity": 93}, {"time": 1629, "pitch": 79, "duration": 5, "velocity": 94}, {"time": 1635, "pitch": 77, "duration": 4, "velocity": 96}, {"time": 1641, "pitch": 79, "duration": 29, "velocity": 100}, {"time": 1671, "pitch": 79, "duration": 9, "velocity": 100}, {"time": 1683, "pitch": 75, "duration": 4, "velocity": 100}, {"time": 1689, "pitch": 77, "duration": 5, "velocity": 93}, {"time": 1695, "pitch": 75, "duration": 5, "velocity": 93}, {"time": 1701, "pitch": 72, "duration": 51, "velocity": 95}, {"time": 1791, "pitch": 67, "duration": 5, "velocity": 91}, {"time": 1797, "pitch": 70, "duration": 6, "velocity": 89}, {"time": 1803, "pitch": 72, "duration": 6, "velocity": 91}, {"time": 1809, "pitch": 70, "duration": 7, "velocity": 95}, {"time": 1815, "pitch": 72, "duration": 5, "velocity": 96}, {"time": 1821, "pitch": 75, "duration": 5, "velocity": 96}, {"time": 1827, "pitch": 77, "duration": 6, "velocity": 90}, {"time": 1833, "pitch": 79, "duration": 7, "velocity": 93}, {"time": 1839, "pitch": 77, "duration": 12, "velocity": 105}, {"time": 1857, "pitch": 77, "duration": 4, "velocity": 93}, {"time": 1863, "pitch": 77, "duration": 5, "velocity": 95}, {"time": 1869, "pitch": 79, "duration": 6, "velocity": 95}, {"time": 1875, "pitch": 75, "duration": 6, "velocity": 103}, {"time": 1881, "pitch": 72, "duration": 7, "velocity": 91}, {"time": 1887, "pitch": 75, "duration": 61, "velocity": 98}, {"time": 2337, "pitch": 82, "duration": 4, "velocity": 91}, {"time": 2343, "pitch": 82, "duration": 3, "velocity": 93}, {"time": 2349, "pitch": 82, "duration": 16, "velocity": 100}, {"time": 2373, "pitch": 82, "duration": 5, "velocity": 93}, {"time": 2379, "pitch": 84, "duration": 4, "velocity": 96}, {"time": 2385, "pitch": 82, "duration": 3, "velocity": 90}, {"time": 2391, "pitch": 79, "duration": 11, "velocity": 93}, {"time": 2403, "pitch": 77, "duration": 13, "velocity": 103}, {"time": 2415, "pitch": 75, "duration": 12, "velocity": 95}, {"time": 2433, "pitch": 67, "duration": 4, "velocity": 85}, {"time": 2439, "pitch": 72, "duration": 5, "velocity": 89}, {"time": 2445, "pitch": 75, "duration": 5, "velocity": 87}, {"time": 2451, "pitch": 72, "duration": 18, "velocity": 86}, {"time": 2469, "pitch": 70, "duration": 33, "velocity": 89}, {"time": 2577, "pitch": 72, "duration": 3, "velocity": 95}, {"time": 2583, "pitch": 72, "duration": 3, "velocity": 98}, {"time": 2589, "pitch": 72, "duration": 5, "velocity": 93}, {"time": 2595, "pitch": 75, "duration": 15, "velocity": 95}, {"time": 2619, "pitch": 77, "duration": 6, "velocity": 105}, {"time": 2625, "pitch": 84, "duration": 9, "velocity": 96}, {"time": 2637, "pitch": 82, "duration": 3, "velocity": 91}, {"time": 2643, "pitch": 79, "duration": 4, "velocity": 91}, {"time": 2649, "pitch": 77, "duration": 4, "velocity": 96}, {"time": 2655, "pitch": 79, "duration": 30, "velocity": 100}, {"time": 2769, "pitch": 77, "duration": 3, "velocity": 95}, {"time": 2775, "pitch": 77, "duration": 3, "velocity": 94}, {"time": 2781, "pitch": 77, "duration": 4, "velocity": 95}, {"time": 2787, "pitch": 82, "duration": 14, "velocity": 91}, {"time": 2811, "pitch": 79, "duration": 3, "velocity": 90}, {"time": 2817, "pitch": 79, "duration": 4, "velocity": 89}, {"time": 2823, "pitch": 77, "duration": 3, "velocity": 94}, {"time": 2829, "pitch": 79, "duration": 4, "velocity": 93}, {"time": 2835, "pitch": 77, "duration": 5, "velocity": 96}, {"time": 2841, "pitch": 75, "duration": 4, "velocity": 89}, {"time": 2847, "pitch": 72, "duration": 66, "velocity": 84}, {"time": 2931, "pitch": 70, "duration": 4, "velocity": 95}, {"time": 2937, "pitch": 70, "duration": 4, "velocity": 90}, {"time": 2943, "pitch": 72, "duration": 32, "velocity": 100}, {"time": 2979, "pitch": 72, "duration": 5, "velocity": 100}, {"time": 2985, "pitch": 79, "duration": 5, "velocity": 91}, {"time": 2991, "pitch": 77, "duration": 18, "velocity": 93}, {"time": 3009, "pitch": 79, "duration": 4, "velocity": 93}, {"time": 3015, "pitch": 70, "duration": 3, "velocity": 93}, {"time": 3021, "pitch": 67, "duration": 4, "velocity": 93}, {"time": 3027, "pitch": 70, "duration": 4, "velocity": 89}, {"time": 3033, "pitch": 77, "duration": 4, "velocity": 93}, {"time": 3039, "pitch": 75, "duration": 50, "velocity": 95}, {"time": 3135, "pitch": 72, "duration": 15, "velocity": 96}, {"time": 3153, "pitch": 72, "duration": 4, "velocity": 93}, {"time": 3159, "pitch": 72, "duration": 4, "velocity": 96}, {"time": 3165, "pitch": 75, "duration": 3, "velocity": 96}, {"time": 3171, "pitch": 77, "duration": 3, "velocity": 95}, {"time": 3177, "pitch": 79, "duration": 10, "velocity": 96}, {"time": 3189, "pitch": 72, "duration": 37, "velocity": 103}, {"time": 3231, "pitch": 72, "duration": 14, "velocity": 96}, {"time": 3249, "pitch": 72, "duration": 3, "velocity": 100}, {"time": 3255, "pitch": 72, "duration": 4, "velocity": 93}, {"time": 3261, "pitch": 75, "duration": 3, "velocity": 100}, {"time": 3267, "pitch": 77, "duration": 4, "velocity": 93}, {"time": 3273, "pitch": 79, "duration": 8, "velocity": 96}, {"time": 3285, "pitch": 79, "duration": 33, "velocity": 96}, {"time": 3327, "pitch": 79, "duration": 8, "velocity": 93}, {"time": 3339, "pitch": 79, "duration": 4, "velocity": 96}, {"time": 3345, "pitch": 77, "duration": 3, "velocity": 95}, {"time": 3351, "pitch": 79, "duration": 10, "velocity": 98}, {"time": 3363, "pitch": 77, "duration": 4, "velocity": 91}, {"time": 3369, "pitch": 79, "duration": 20, "velocity": 96}, {"time": 3393, "pitch": 79, "duration": 4, "velocity": 96}, {"time": 3399, "pitch": 84, "duration": 8, "velocity": 95}, {"time": 3411, "pitch": 84, "duration": 4, "velocity": 93}, {"time": 3417, "pitch": 82, "duration": 10, "velocity": 94}, {"time": 3429, "pitch": 79, "duration": 5, "velocity": 90}, {"time": 3435, "pitch": 82, "duration": 77, "velocity": 91}, {"time": 3519, "pitch": 79, "duration": 4, "velocity": 96}, {"time": 3525, "pitch": 82, "duration": 9, "velocity": 98}, {"time": 3537, "pitch": 82, "duration": 3, "velocity": 91}, {"time": 3543, "pitch": 82, "duration": 4, "velocity": 93}, {"time": 3549, "pitch": 79, "duration": 5, "velocity": 94}, {"time": 3555, "pitch": 77, "duration": 4, "velocity": 96}, {"time": 3561, "pitch": 79, "duration": 29, "velocity": 100}, {"time": 3591, "pitch": 79, "duration": 9, "velocity": 100}, {"time": 3603, "pitch": 75, "duration": 4, "velocity": 100}, {"time": 3609, "pitch": 77, "duration": 5, "velocity": 93}, {"time": 3615, "pitch": 75, "duration": 5, "velocity": 93}, {"time": 3621, "pitch": 72, "duration": 51, "velocity": 95}, {"time": 3711, "pitch": 67, "duration": 5, "velocity": 91}, {"time": 3717, "pitch": 70, "duration": 6, "velocity": 89}, {"time": 3723, "pitch": 72, "duration": 6, "velocity": 91}, {"time": 3729, "pitch": 70, "duration": 7, "velocity": 95}, {"time": 3735, "pitch": 72, "duration": 5, "velocity": 96}, {"time": 3741, "pitch": 75, "duration": 5, "velocity": 96}, {"time": 3747, "pitch": 77, "duration": 6, "velocity": 90}, {"time": 3753, "pitch": 79, "duration": 7, "velocity": 93}, {"time": 3759, "pitch": 77, "duration": 12, "velocity": 105}, {"time": 3777, "pitch": 77, "duration": 4, "velocity": 93}, {"time": 3783, "pitch": 77, "duration": 5, "velocity": 95}, {"time": 3789, "pitch": 79, "duration": 6, "velocity": 95}, {"time": 3795, "pitch": 75, "duration": 6, "velocity": 103}, {"time": 3801, "pitch": 72, "duration": 7, "velocity": 91}, {"time": 3807, "pitch": 75, "duration": 61, "velocity": 98}]}, {"program": 0, "is_drum": false, "name": "PIANO", "notes": [{"time": 63, "pitch": 51, "duration": 10, "velocity": 95}, {"time": 63, "pitch": 58, "duration": 7, "velocity": 84}, {"time": 63, "pitch": 63, "duration": 9, "velocity": 91}, {"time": 81, "pitch": 51, "duration": 2, "velocity": 82}, {"time": 81, "pitch": 58, "duration": 3, "velocity": 78}, {"time": 81, "pitch": 63, "duration": 2, "velocity": 79}, {"time": 81, "pitch": 67, "duration": 2, "velocity": 80}, {"time": 84, "pitch": 51, "duration": 5, "velocity": 85}, {"time": 84, "pitch": 58, "duration": 2, "velocity": 80}, {"time": 84, "pitch": 63, "duration": 2, "velocity": 79}, {"time": 84, "pitch": 67, "duration": 2, "velocity": 82}, {"time": 87, "pitch": 58, "duration": 2, "velocity": 74}, {"time": 87, "pitch": 63, "duration": 2, "velocity": 83}, {"time": 87, "pitch": 67, "duration": 2, "velocity": 85}, {"time": 93, "pitch": 51, "duration": 2, "velocity": 95}, {"time": 93, "pitch": 58, "duration": 2, "velocity": 91}, {"time": 93, "pitch": 63, "duration": 2, "velocity": 89}, {"time": 93, "pitch": 67, "duration": 2, "velocity": 93}, {"time": 99, "pitch": 51, "duration": 2, "velocity": 90}, {"time": 99, "pitch": 58, "duration": 2, "velocity": 86}, {"time": 99, "pitch": 63, "duration": 2, "velocity": 85}, {"time": 99, "pitch": 67, "duration": 2, "velocity": 90}, {"time": 105, "pitch": 51, "duration": 2, "velocity": 87}, {"time": 105, "pitch": 58, "duration": 2, "velocity": 84}, {"time": 105, "pitch": 63, "duration": 3, "velocity": 80}, {"time": 105, "pitch": 67, "duration": 3, "velocity": 84}, {"time": 111, "pitch": 51, "duration": 46, "velocity": 91}, {"time": 111, "pitch": 58, "duration": 46, "velocity": 88}, {"time": 111, "pitch": 63, "duration": 46, "velocity": 84}, {"time": 111, "pitch": 67, "duration": 47, "velocity": 86}, {"time": 159, "pitch": 43, "duration": 32, "velocity": 89}, {"time": 159, "pitch": 55, "duration": 7, "velocity": 85}, {"time": 159, "pitch": 62, "duration": 10, "velocity": 84}, {"time": 165, "pitch": 50, "duration": 22, "velocity": 75}, {"time": 171, "pitch": 55, "duration": 4, "velocity": 81}, {"time": 177, "pitch": 55, "duration": 10, "velocity": 91}, {"time": 177, "pitch": 58, "duration": 6, "velocity": 91}, {"time": 177, "pitch": 62, "duration": 6, "velocity": 90}, {"time": 189, "pitch": 50, "duration": 4, "velocity": 82}, {"time": 195, "pitch": 55, "duration": 2, "velocity": 92}, {"time": 195, "pitch": 58, "duration": 2, "velocity": 95}, {"time": 195, "pitch": 62, "duration": 3, "velocity": 94}, {"time": 207, "pitch": 48, "duration": 48, "velocity": 91}, {"time": 207, "pitch": 60, "duration": 13, "velocity": 90}, {"time": 207, "pitch": 63, "duration": 13, "velocity": 90}, {"time": 225, "pitch": 60, "duration": 3, "velocity": 93}, {"time": 231, "pitch": 60, "duration": 6, "velocity": 91}, {"time": 231, "pitch": 63, "duration": 6, "velocity": 90}, {"time": 231, "pitch": 67, "duration": 6, "velocity": 91}, {"time": 237, "pitch": 55, "duration": 10, "velocity": 75}, {"time": 243, "pitch": 60, "duration": 5, "velocity": 93}, {"time": 243, "pitch": 63, "duration": 11, "velocity": 96}, {"time": 243, "pitch": 67, "duration": 12, "velocity": 95}, {"time": 249, "pitch": 55, "duration": 6, "velocity": 87}, {"time": 255, "pitch": 41, "duration": 16, "velocity": 93}, {"time": 255, "pitch": 53, "duration": 4, "velocity": 83}, {"time": 255, "pitch": 56, "duration": 5, "velocity": 84}, {"time": 255, "pitch": 60, "duration": 5, "velocity": 81}, {"time": 273, "pitch": 60, "duration": 1, "velocity": 80}, {"time": 273, "pitch": 65, "duration": 1, "velocity": 84}, {"time": 273, "pitch": 68, "duration": 1, "velocity": 79}, {"time": 276, "pitch": 60, "duration": 2, "velocity": 82}, {"time": 276, "pitch": 65, "duration": 1, "velocity": 87}, {"time": 276, "pitch": 68, "duration": 1, "velocity": 83}, {"time": 279, "pitch": 60, "duration": 2, "velocity": 86}, {"time": 279, "pitch": 65, "duration": 1, "velocity": 93}, {"time": 279, "pitch": 68, "duration": 2, "velocity": 90}, {"time": 285, "pitch": 41, "duration": 2, "velocity": 91}, {"time": 285, "pitch": 60, "duration": 2, "velocity": 91}, {"time": 285, "pitch": 65, "duration": 1, "velocity": 98}, {"time": 285, "pitch": 68, "duration": 2, "velocity": 91}, {"time": 291, "pitch": 41, "duration": 3, "velocity": 89}, {"time": 291, "pitch": 60, "duration": 2, "velocity": 82}, {"time": 291, "pitch": 65, "duration": 2, "velocity": 89}, {"time": 291, "pitch": 68, "duration": 2, "velocity": 82}, {"time": 297, "pitch": 41, "duration": 2, "velocity": 90}, {"time": 297, "pitch": 60, "duration": 3, "velocity": 83}, {"time": 297, "pitch": 65, "duration": 2, "velocity": 85}, {"time": 297, "pitch": 68, "duration": 2, "velocity": 86}, {"time": 303, "pitch": 46, "duration": 42, "velocity": 91}, {"time": 303, "pitch": 58, "duration": 44, "velocity": 87}, {"time": 303, "pitch": 62, "duration": 45, "velocity": 85}, {"time": 303, "pitch": 65, "duration": 45, "velocity": 90}, {"time": 351, "pitch": 39, "duration": 20, "velocity": 94}, {"time": 351, "pitch": 58, "duration": 9, "velocity": 81}, {"time": 351, "pitch": 63, "duration": 8, "velocity": 87}, {"time": 351, "pitch": 67, "duration": 9, "velocity": 83}, {"time": 363, "pitch": 58, "duration": 9, "velocity": 91}, {"time": 363, "pitch": 63, "duration": 8, "velocity": 98}, {"time": 363, "pitch": 67, "duration": 8, "velocity": 96}, {"time": 381, "pitch": 44, "duration": 10, "velocity": 91}, {"time": 381, "pitch": 56, "duration": 9, "velocity": 89}, {"time": 381, "pitch": 60, "duration": 8, "velocity": 87}, {"time": 381, "pitch": 63, "duration": 9, "velocity": 89}, {"time": 393, "pitch": 44, "duration": 3, "velocity": 88}, {"time": 393, "pitch": 56, "duration": 3, "velocity": 89}, {"time": 393, "pitch": 60, "duration": 2, "velocity": 89}, {"time": 393, "pitch": 63, "duration": 3, "velocity": 88}, {"time": 399, "pitch": 51, "duration": 3, "velocity": 105}, {"time": 399, "pitch": 58, "duration": 3, "velocity": 89}, {"time": 399, "pitch": 63, "duration": 3, "velocity": 91}, {"time": 411, "pitch": 46, "duration": 30, "velocity": 94}, {"time": 411, "pitch": 58, "duration": 21, "velocity": 83}, {"time": 411, "pitch": 62, "duration": 20, "velocity": 89}, {"time": 411, "pitch": 65, "duration": 20, "velocity": 90}, {"time": 429, "pitch": 53, "duration": 10, "velocity": 84}, {"time": 435, "pitch": 58, "duration": 57, "velocity": 85}, {"time": 435, "pitch": 62, "duration": 58, "velocity": 89}, {"time": 435, "pitch": 65, "duration": 58, "velocity": 89}, {"time": 435, "pitch": 70, "duration": 58, "velocity": 85}, {"time": 495, "pitch": 51, "duration": 23, "velocity": 92}, {"time": 495, "pitch": 58, "duration": 13, "velocity": 85}, {"time": 495, "pitch": 63, "duration": 12, "velocity": 89}, {"time": 513, "pitch": 58, "duration": 9, "velocity": 89}, {"time": 513, "pitch": 63, "duration": 13, "velocity": 92}, {"time": 513, "pitch": 67, "duration": 13, "velocity": 91}, {"time": 519, "pitch": 46, "duration": 21, "velocity": 91}, {"time": 525, "pitch": 58, "duration": 2, "velocity": 72}, {"time": 531, "pitch": 58, "duration": 3, "velocity": 86}, {"time": 531, "pitch": 63, "duration": 17, "velocity": 91}, {"time": 531, "pitch": 67, "duration": 18, "velocity": 89}, {"time": 537, "pitch": 58, "duration": 8, "velocity": 69}, {"time": 543, "pitch": 51, "duration": 23, "velocity": 94}, {"time": 561, "pitch": 58, "duration": 7, "velocity": 83}, {"time": 561, "pitch": 63, "duration": 9, "velocity": 91}, {"time": 561, "pitch": 67, "duration": 13, "velocity": 92}, {"time": 567, "pitch": 46, "duration": 17, "velocity": 91}, {"time": 573, "pitch": 58, "duration": 3, "velocity": 86}, {"time": 573, "pitch": 63, "duration": 1, "velocity": 59}, {"time": 579, "pitch": 63, "duration": 7, "velocity": 93}, {"time": 579, "pitch": 67, "duration": 7, "velocity": 98}, {"time": 585, "pitch": 58, "duration": 20, "velocity": 90}, {"time": 591, "pitch": 46, "duration": 21, "velocity": 93}, {"time": 591, "pitch": 62, "duration": 13, "velocity": 74}, {"time": 591, "pitch": 65, "duration": 13, "velocity": 57}, {"time": 609, "pitch": 58, "duration": 7, "velocity": 90}, {"time": 609, "pitch": 62, "duration": 9, "velocity": 98}, {"time": 609, "pitch": 65, "duration": 12, "velocity": 94}, {"time": 615, "pitch": 53, "duration": 19, "velocity": 91}, {"time": 621, "pitch": 58, "duration": 2, "velocity": 76}, {"time": 627, "pitch": 58, "duration": 2, "velocity": 90}, {"time": 627, "pitch": 62, "duration": 9, "velocity": 103}, {"time": 627, "pitch": 65, "duration": 13, "velocity": 95}, {"time": 633, "pitch": 58, "duration": 4, "velocity": 81}, {"time": 639, "pitch": 48, "duration": 22, "velocity": 95}, {"time": 657, "pitch": 60, "duration": 8, "velocity": 90}, {"time": 657, "pitch": 63, "duration": 9, "velocity": 90}, {"time": 657, "pitch": 67, "duration": 13, "velocity": 91}, {"time": 663, "pitch": 55, "duration": 9, "velocity": 83}, {"time": 669, "pitch": 60, "duration": 3, "velocity": 86}, {"time": 669, "pitch": 63, "duration": 1, "velocity": 64}, {"time": 675, "pitch": 60, "duration": 3, "velocity": 92}, {"time": 675, "pitch": 63, "duration": 5, "velocity": 91}, {"time": 675, "pitch": 67, "duration": 6, "velocity": 94}, {"time": 681, "pitch": 60, "duration": 2, "velocity": 78}, {"time": 687, "pitch": 46, "duration": 29, "velocity": 90}, {"time": 687, "pitch": 58, "duration": 15, "velocity": 84}, {"time": 687, "pitch": 62, "duration": 14, "velocity": 79}, {"time": 687, "pitch": 65, "duration": 15, "velocity": 89}, {"time": 705, "pitch": 58, "duration": 6, "velocity": 89}, {"time": 705, "pitch": 62, "duration": 7, "velocity": 98}, {"time": 705, "pitch": 65, "duration": 8, "velocity": 92}, {"time": 711, "pitch": 53, "duration": 7, "velocity": 92}, {"time": 717, "pitch": 58, "duration": 2, "velocity": 89}, {"time": 723, "pitch": 58, "duration": 2, "velocity": 90}, {"time": 723, "pitch": 62, "duration": 3, "velocity": 92}, {"time": 723, "pitch": 65, "duration": 3, "velocity": 90}, {"time": 729, "pitch": 58, "duration": 2, "velocity": 60}, {"time": 735, "pitch": 39, "duration": 20, "velocity": 94}, {"time": 735, "pitch": 58, "duration": 12, "velocity": 86}, {"time": 735, "pitch": 63, "duration": 12, "velocity": 85}, {"time": 753, "pitch": 58, "duration": 7, "velocity": 90}, {"time": 753, "pitch": 63, "duration": 9, "velocity": 96}, {"time": 753, "pitch": 67, "duration": 10, "velocity": 96}, {"time": 759, "pitch": 46, "duration": 20, "velocity": 90}, {"time": 765, "pitch": 58, "duration": 2, "velocity": 87}, {"time": 771, "pitch": 58, "duration": 1, "velocity": 77}, {"time": 771, "pitch": 63, "duration": 14, "velocity": 98}, {"time": 771, "pitch": 67, "duration": 14, "velocity": 94}, {"time": 777, "pitch": 58, "duration": 8, "velocity": 89}, {"time": 783, "pitch": 39, "duration": 9, "velocity": 96}, {"time": 789, "pitch": 58, "duration": 2, "velocity": 89}, {"time": 789, "pitch": 63, "duration": 1, "velocity": 92}, {"time": 789, "pitch": 67, "duration": 2, "velocity": 92}, {"time": 801, "pitch": 58, "duration": 7, "velocity": 89}, {"time": 801, "pitch": 63, "duration": 9, "velocity": 91}, {"time": 801, "pitch": 67, "duration": 13, "velocity": 91}, {"time": 807, "pitch": 46, "duration": 9, "velocity": 89}, {"time": 813, "pitch": 58, "duration": 2, "velocity": 89}, {"time": 819, "pitch": 58, "duration": 1, "velocity": 83}, {"time": 819, "pitch": 63, "duration": 3, "velocity": 93}, {"time": 819, "pitch": 67, "duration": 5, "velocity": 94}, {"time": 825, "pitch": 58, "duration": 1, "velocity": 82}, {"time": 831, "pitch": 41, "duration": 20, "velocity": 91}, {"time": 831, "pitch": 53, "duration": 15, "velocity": 89}, {"time": 831, "pitch": 56, "duration": 12, "velocity": 91}, {"time": 849, "pitch": 53, "duration": 1, "velocity": 78}, {"time": 849, "pitch": 56, "duration": 9, "velocity": 91}, {"time": 849, "pitch": 60, "duration": 13, "velocity": 89}, {"time": 849, "pitch": 65, "duration": 9, "velocity": 91}, {"time": 855, "pitch": 48, "duration": 8, "velocity": 89}, {"time": 861, "pitch": 53, "duration": 3, "velocity": 92}, {"time": 861, "pitch": 56, "duration": 1, "velocity": 53}, {"time": 867, "pitch": 53, "duration": 1, "velocity": 81}, {"time": 867, "pitch": 56, "duration": 2, "velocity": 98}, {"time": 867, "pitch": 60, "duration": 2, "velocity": 92}, {"time": 867, "pitch": 65, "duration": 4, "velocity": 90}, {"time": 879, "pitch": 39, "duration": 22, "velocity": 95}, {"time": 879, "pitch": 58, "duration": 14, "velocity": 81}, {"time": 879, "pitch": 63, "duration": 14, "velocity": 85}, {"time": 897, "pitch": 58, "duration": 7, "velocity": 89}, {"time": 897, "pitch": 63, "duration": 13, "velocity": 91}, {"time": 897, "pitch": 67, "duration": 11, "velocity": 92}, {"time": 903, "pitch": 46, "duration": 5, "velocity": 84}, {"time": 909, "pitch": 58, "duration": 2, "velocity": 90}, {"time": 915, "pitch": 58, "duration": 2, "velocity": 89}, {"time": 915, "pitch": 63, "duration": 7, "velocity": 92}, {"time": 915, "pitch": 67, "duration": 8, "velocity": 94}, {"time": 921, "pitch": 58, "duration": 1, "velocity": 67}, {"time": 927, "pitch": 48, "duration": 22, "velocity": 90}, {"time": 927, "pitch": 60, "duration": 13, "velocity": 83}, {"time": 927, "pitch": 63, "duration": 13, "velocity": 84}, {"time": 927, "pitch": 67, "duration": 12, "velocity": 80}, {"time": 945, "pitch": 60, "duration": 7, "velocity": 90}, {"time": 945, "pitch": 63, "duration": 9, "velocity": 90}, {"time": 945, "pitch": 67, "duration": 10, "velocity": 90}, {"time": 951, "pitch": 55, "duration": 10, "velocity": 92}, {"time": 957, "pitch": 60, "duration": 2, "velocity": 89}, {"time": 957, "pitch": 63, "duration": 1, "velocity": 69}, {"time": 963, "pitch": 60, "duration": 2, "velocity": 91}, {"time": 963, "pitch": 63, "duration": 17, "velocity": 93}, {"time": 963, "pitch": 67, "duration": 18, "velocity": 95}, {"time": 969, "pitch": 60, "duration": 9, "velocity": 87}, {"time": 975, "pitch": 48, "duration": 19, "velocity": 91}, {"time": 993, "pitch": 60, "duration": 7, "velocity": 91}, {"time": 993, "pitch": 63, "duration": 10, "velocity": 92}, {"time": 993, "pitch": 67, "duration": 10, "velocity": 93}, {"time": 999, "pitch": 43, "duration": 10, "velocity": 90}, {"time": 1005, "pitch": 60, "duration": 2, "velocity": 90}, {"time": 1005, "pitch": 63, "duration": 1, "velocity": 45}, {"time": 1011, "pitch": 63, "duration": 6, "velocity": 94}, {"time": 1011, "pitch": 67, "duration": 6, "velocity": 98}, {"time": 1017, "pitch": 60, "duration": 1, "velocity": 85}, {"time": 1023, "pitch": 44, "duration": 20, "velocity": 90}, {"time": 1023, "pitch": 56, "duration": 15, "velocity": 86}, {"time": 1023, "pitch": 60, "duration": 15, "velocity": 88}, {"time": 1041, "pitch": 56, "duration": 6, "velocity": 90}, {"time": 1041, "pitch": 60, "duration": 6, "velocity": 91}, {"time": 1041, "pitch": 63, "duration": 6, "velocity": 89}, {"time": 1047, "pitch": 51, "duration": 7, "velocity": 93}, {"time": 1053, "pitch": 56, "duration": 2, "velocity": 91}, {"time": 1059, "pitch": 56, "duration": 1, "velocity": 90}, {"time": 1059, "pitch": 60, "duration": 4, "velocity": 96}, {"time": 1059, "pitch": 63, "duration": 7, "velocity": 93}, {"time": 1065, "pitch": 56, "duration": 1, "velocity": 88}, {"time": 1071, "pitch": 46, "duration": 21, "velocity": 90}, {"time": 1071, "pitch": 58, "duration": 15, "velocity": 86}, {"time": 1071, "pitch": 62, "duration": 15, "velocity": 83}, {"time": 1089, "pitch": 58, "duration": 7, "velocity": 91}, {"time": 1089, "pitch": 62, "duration": 9, "velocity": 92}, {"time": 1089, "pitch": 65, "duration": 13, "velocity": 93}, {"time": 1095, "pitch": 53, "duration": 6, "velocity": 91}, {"time": 1101, "pitch": 58, "duration": 3, "velocity": 89}, {"time": 1101, "pitch": 62, "duration": 1, "velocity": 57}, {"time": 1107, "pitch": 62, "duration": 4, "velocity": 93}, {"time": 1107, "pitch": 65, "duration": 8, "velocity": 94}, {"time": 1107, "pitch": 70, "duration": 5, "velocity": 80}, {"time": 1113, "pitch": 58, "duration": 3, "velocity": 81}, {"time": 1119, "pitch": 39, "duration": 23, "velocity": 91}, {"time": 1119, "pitch": 58, "duration": 3, "velocity": 88}, {"time": 1119, "pitch": 63, "duration": 3, "velocity": 90}, {"time": 1125, "pitch": 58, "duration": 9, "velocity": 92}, {"time": 1125, "pitch": 63, "duration": 10, "velocity": 91}, {"time": 1137, "pitch": 58, "duration": 6, "velocity": 89}, {"time": 1137, "pitch": 63, "duration": 8, "velocity": 91}, {"time": 1137, "pitch": 67, "duration": 10, "velocity": 93}, {"time": 1143, "pitch": 46, "duration": 17, "velocity": 89}, {"time": 1149, "pitch": 58, "duration": 3, "velocity": 90}, {"time": 1149, "pitch": 63, "duration": 2, "velocity": 67}, {"time": 1155, "pitch": 63, "duration": 8, "velocity": 93}, {"time": 1155, "pitch": 67, "duration": 9, "velocity": 92}, {"time": 1161, "pitch": 58, "duration": 3, "velocity": 86}, {"time": 1167, "pitch": 39, "duration": 3, "velocity": 95}, {"time": 1167, "pitch": 58, "duration": 3, "velocity": 86}, {"time": 1167, "pitch": 63, "duration": 3, "velocity": 88}, {"time": 1173, "pitch": 39, "duration": 31, "velocity": 96}, {"time": 1173, "pitch": 58, "duration": 8, "velocity": 90}, {"time": 1173, "pitch": 63, "duration": 9, "velocity": 90}, {"time": 1185, "pitch": 58, "duration": 7, "velocity": 90}, {"time": 1185, "pitch": 63, "duration": 8, "velocity": 100}, {"time": 1185, "pitch": 67, "duration": 9, "velocity": 94}, {"time": 1191, "pitch": 46, "duration": 13, "velocity": 90}, {"time": 1197, "pitch": 58, "duration": 2, "velocity": 91}, {"time": 1197, "pitch": 63, "duration": 1, "velocity": 73}, {"time": 1203, "pitch": 58, "duration": 3, "velocity": 91}, {"time": 1203, "pitch": 63, "duration": 3, "velocity": 95}, {"time": 1209, "pitch": 62, "duration": 3, "velocity": 100}, {"time": 1215, "pitch": 48, "duration": 21, "velocity": 95}, {"time": 1215, "pitch": 60, "duration": 10, "velocity": 90}, {"time": 1215, "pitch": 63, "duration": 7, "velocity": 92}, {"time": 1233, "pitch": 60, "duration": 8, "velocity": 89}, {"time": 1233, "pitch": 63, "duration": 10, "velocity": 91}, {"time": 1233, "pitch": 67, "duration": 14, "velocity": 93}, {"time": 1239, "pitch": 55, "duration": 14, "velocity": 89}, {"time": 1245, "pitch": 60, "duration": 2, "velocity": 83}, {"time": 1245, "pitch": 63, "duration": 1, "velocity": 55}, {"time": 1251, "pitch": 60, "duration": 3, "velocity": 92}, {"time": 1251, "pitch": 63, "duration": 9, "velocity": 94}, {"time": 1251, "pitch": 67, "duration": 10, "velocity": 91}, {"time": 1257, "pitch": 60, "duration": 3, "velocity": 77}, {"time": 1263, "pitch": 48, "duration": 37, "velocity": 94}, {"time": 1263, "pitch": 60, "duration": 12, "velocity": 89}, {"time": 1263, "pitch": 63, "duration": 12, "velocity": 90}, {"time": 1275, "pitch": 55, "duration": 8, "velocity": 81}, {"time": 1281, "pitch": 60, "duration": 5, "velocity": 91}, {"time": 1281, "pitch": 67, "duration": 6, "velocity": 96}, {"time": 1287, "pitch": 55, "duration": 10, "velocity": 76}, {"time": 1293, "pitch": 60, "duration": 3, "velocity": 85}, {"time": 1299, "pitch": 60, "duration": 4, "velocity": 96}, {"time": 1299, "pitch": 63, "duration": 5, "velocity": 98}, {"time": 1305, "pitch": 62, "duration": 2, "velocity": 96}, {"time": 1311, "pitch": 44, "duration": 38, "velocity": 90}, {"time": 1311, "pitch": 56, "duration": 13, "velocity": 90}, {"time": 1311, "pitch": 60, "duration": 13, "velocity": 90}, {"time": 1323, "pitch": 51, "duration": 10, "velocity": 85}, {"time": 1329, "pitch": 56, "duration": 13, "velocity": 95}, {"time": 1329, "pitch": 60, "duration": 14, "velocity": 95}, {"time": 1329, "pitch": 63, "duration": 14, "velocity": 96}, {"time": 1341, "pitch": 51, "duration": 7, "velocity": 87}, {"time": 1347, "pitch": 56, "duration": 2, "velocity": 91}, {"time": 1347, "pitch": 60, "duration": 6, "velocity": 96}, {"time": 1347, "pitch": 63, "duration": 7, "velocity": 95}, {"time": 1353, "pitch": 56, "duration": 2, "velocity": 84}, {"time": 1359, "pitch": 39, "duration": 38, "velocity": 91}, {"time": 1359, "pitch": 58, "duration": 6, "velocity": 84}, {"time": 1359, "pitch": 63, "duration": 8, "velocity": 82}, {"time": 1365, "pitch": 46, "duration": 15, "velocity": 82}, {"time": 1371, "pitch": 58, "duration": 2, "velocity": 89}, {"time": 1377, "pitch": 58, "duration": 6, "velocity": 90}, {"time": 1377, "pitch": 63, "duration": 9, "velocity": 96}, {"time": 1377, "pitch": 67, "duration": 9, "velocity": 95}, {"time": 1383, "pitch": 46, "duration": 16, "velocity": 65}, {"time": 1389, "pitch": 58, "duration": 3, "velocity": 89}, {"time": 1389, "pitch": 63, "duration": 2, "velocity": 56}, {"time": 1395, "pitch": 58, "duration": 3, "velocity": 92}, {"time": 1395, "pitch": 63, "duration": 3, "velocity": 94}, {"time": 1407, "pitch": 43, "duration": 31, "velocity": 100}, {"time": 1407, "pitch": 62, "duration": 12, "velocity": 91}, {"time": 1407, "pitch": 67, "duration": 9, "velocity": 90}, {"time": 1413, "pitch": 50, "duration": 21, "velocity": 77}, {"time": 1419, "pitch": 58, "duration": 3, "velocity": 85}, {"time": 1425, "pitch": 58, "duration": 14, "velocity": 91}, {"time": 1425, "pitch": 62, "duration": 15, "velocity": 98}, {"time": 1425, "pitch": 67, "duration": 15, "velocity": 90}, {"time": 1437, "pitch": 50, "duration": 7, "velocity": 77}, {"time": 1443, "pitch": 58, "duration": 3, "velocity": 92}, {"time": 1443, "pitch": 62, "duration": 8, "velocity": 96}, {"time": 1449, "pitch": 58, "duration": 2, "velocity": 83}, {"time": 1455, "pitch": 48, "duration": 38, "velocity": 90}, {"time": 1455, "pitch": 60, "duration": 14, "velocity": 88}, {"time": 1455, "pitch": 63, "duration": 14, "velocity": 92}, {"time": 1467, "pitch": 55, "duration": 9, "velocity": 83}, {"time": 1473, "pitch": 60, "duration": 14, "velocity": 91}, {"time": 1473, "pitch": 63, "duration": 14, "velocity": 96}, {"time": 1473, "pitch": 67, "duration": 14, "velocity": 93}, {"time": 1485, "pitch": 55, "duration": 6, "velocity": 87}, {"time": 1491, "pitch": 60, "duration": 3, "velocity": 92}, {"time": 1491, "pitch": 63, "duration": 5, "velocity": 94}, {"time": 1491, "pitch": 67, "duration": 8, "velocity": 94}, {"time": 1497, "pitch": 60, "duration": 2, "velocity": 74}, {"time": 1503, "pitch": 46, "duration": 45, "velocity": 91}, {"time": 1503, "pitch": 58, "duration": 3, "velocity": 91}, {"time": 1503, "pitch": 62, "duration": 3, "velocity": 95}, {"time": 1503, "pitch": 65, "duration": 3, "velocity": 94}, {"time": 1509, "pitch": 58, "duration": 9, "velocity": 91}, {"time": 1509, "pitch": 62, "duration": 9, "velocity": 96}, {"time": 1509, "pitch": 65, "duration": 9, "velocity": 95}, {"time": 1521, "pitch": 58, "duration": 7, "velocity": 92}, {"time": 1521, "pitch": 62, "duration": 8, "velocity": 96}, {"time": 1521, "pitch": 65, "duration": 8, "velocity": 103}, {"time": 1521, "pitch": 70, "duration": 7, "velocity": 91}, {"time": 1527, "pitch": 53, "duration": 20, "velocity": 88}, {"time": 1533, "pitch": 58, "duration": 3, "velocity": 98}, {"time": 1533, "pitch": 65, "duration": 1, "velocity": 81}, {"time": 1539, "pitch": 62, "duration": 4, "velocity": 94}, {"time": 1539, "pitch": 65, "duration": 4, "velocity": 94}, {"time": 1545, "pitch": 58, "duration": 4, "velocity": 86}, {"time": 1545, "pitch": 65, "duration": 3, "velocity": 62}, {"time": 1551, "pitch": 46, "duration": 3, "velocity": 90}, {"time": 1551, "pitch": 58, "duration": 2, "velocity": 84}, {"time": 1551, "pitch": 62, "duration": 2, "velocity": 81}, {"time": 1551, "pitch": 65, "duration": 2, "velocity": 89}, {"time": 1557, "pitch": 46, "duration": 29, "velocity": 95}, {"time": 1557, "pitch": 58, "duration": 8, "velocity": 91}, {"time": 1557, "pitch": 62, "duration": 8, "velocity": 94}, {"time": 1557, "pitch": 65, "duration": 8, "velocity": 95}, {"time": 1563, "pitch": 53, "duration": 7, "velocity": 94}, {"time": 1569, "pitch": 58, "duration": 7, "velocity": 94}, {"time": 1569, "pitch": 62, "duration": 8, "velocity": 103}, {"time": 1569, "pitch": 65, "duration": 8, "velocity": 105}, {"time": 1569, "pitch": 70, "duration": 8, "velocity": 90}, {"time": 1575, "pitch": 53, "duration": 10, "velocity": 94}, {"time": 1581, "pitch": 58, "duration": 3, "velocity": 94}, {"time": 1581, "pitch": 62, "duration": 1, "velocity": 67}, {"time": 1581, "pitch": 65, "duration": 2, "velocity": 87}, {"time": 1587, "pitch": 58, "duration": 2, "velocity": 90}, {"time": 1587, "pitch": 62, "duration": 4, "velocity": 98}, {"time": 1587, "pitch": 65, "duration": 9, "velocity": 96}, {"time": 1593, "pitch": 58, "duration": 3, "velocity": 85}, {"time": 1599, "pitch": 39, "duration": 34, "velocity": 93}, {"time": 1599, "pitch": 58, "duration": 13, "velocity": 90}, {"time": 1599, "pitch": 63, "duration": 13, "velocity": 91}, {"time": 1611, "pitch": 46, "duration": 7, "velocity": 80}, {"time": 1617, "pitch": 58, "duration": 9, "velocity": 90}, {"time": 1617, "pitch": 63, "duration": 13, "velocity": 95}, {"time": 1617, "pitch": 67, "duration": 14, "velocity": 95}, {"time": 1629, "pitch": 46, "duration": 4, "velocity": 84}, {"time": 1635, "pitch": 58, "duration": 1, "velocity": 89}, {"time": 1635, "pitch": 63, "duration": 9, "velocity": 93}, {"time": 1635, "pitch": 67, "duration": 9, "velocity": 95}, {"time": 1641, "pitch": 58, "duration": 3, "velocity": 84}, {"time": 1647, "pitch": 51, "duration": 24, "velocity": 90}, {"time": 1647, "pitch": 58, "duration": 3, "velocity": 89}, {"time": 1647, "pitch": 63, "duration": 8, "velocity": 90}, {"time": 1653, "pitch": 58, "duration": 8, "velocity": 76}, {"time": 1659, "pitch": 63, "duration": 2, "velocity": 85}, {"time": 1665, "pitch": 58, "duration": 7, "velocity": 91}, {"time": 1665, "pitch": 63, "duration": 13, "velocity": 93}, {"time": 1665, "pitch": 67, "duration": 13, "velocity": 96}, {"time": 1671, "pitch": 46, "duration": 19, "velocity": 93}, {"time": 1677, "pitch": 58, "duration": 3, "velocity": 89}, {"time": 1683, "pitch": 58, "duration": 2, "velocity": 90}, {"time": 1683, "pitch": 63, "duration": 9, "velocity": 94}, {"time": 1683, "pitch": 67, "duration": 9, "velocity": 95}, {"time": 1689, "pitch": 58, "duration": 3, "velocity": 86}, {"time": 1695, "pitch": 48, "duration": 21, "velocity": 90}, {"time": 1695, "pitch": 60, "duration": 14, "velocity": 88}, {"time": 1695, "pitch": 63, "duration": 14, "velocity": 86}, {"time": 1713, "pitch": 60, "duration": 7, "velocity": 90}, {"time": 1713, "pitch": 63, "duration": 13, "velocity": 91}, {"time": 1713, "pitch": 67, "duration": 13, "velocity": 91}, {"time": 1719, "pitch": 55, "duration": 5, "velocity": 91}, {"time": 1725, "pitch": 60, "duration": 9, "velocity": 96}, {"time": 1731, "pitch": 43, "duration": 7, "velocity": 92}, {"time": 1737, "pitch": 60, "duration": 8, "velocity": 94}, {"time": 1737, "pitch": 63, "duration": 8, "velocity": 83}, {"time": 1743, "pitch": 48, "duration": 22, "velocity": 93}, {"time": 1749, "pitch": 60, "duration": 6, "velocity": 90}, {"time": 1761, "pitch": 60, "duration": 7, "velocity": 89}, {"time": 1761, "pitch": 63, "duration": 9, "velocity": 91}, {"time": 1761, "pitch": 67, "duration": 9, "velocity": 93}, {"time": 1767, "pitch": 55, "duration": 8, "velocity": 76}, {"time": 1773, "pitch": 60, "duration": 3, "velocity": 95}, {"time": 1773, "pitch": 63, "duration": 1, "velocity": 74}, {"time": 1779, "pitch": 60, "duration": 2, "velocity": 93}, {"time": 1779, "pitch": 63, "duration": 4, "velocity": 95}, {"time": 1779, "pitch": 67, "duration": 5, "velocity": 93}, {"time": 1791, "pitch": 43, "duration": 3, "velocity": 95}, {"time": 1791, "pitch": 55, "duration": 3, "velocity": 79}, {"time": 1791, "pitch": 58, "duration": 3, "velocity": 83}, {"time": 1797, "pitch": 43, "duration": 3, "velocity": 80}, {"time": 1797, "pitch": 55, "duration": 3, "velocity": 83}, {"time": 1797, "pitch": 58, "duration": 3, "velocity": 84}, {"time": 1803, "pitch": 43, "duration": 2, "velocity": 94}, {"time": 1803, "pitch": 55, "duration": 3, "velocity": 85}, {"time": 1803, "pitch": 58, "duration": 3, "velocity": 85}, {"time": 1809, "pitch": 43, "duration": 3, "velocity": 96}, {"time": 1809, "pitch": 55, "duration": 3, "velocity": 87}, {"time": 1809, "pitch": 58, "duration": 3, "velocity": 89}, {"time": 1815, "pitch": 48, "duration": 4, "velocity": 91}, {"time": 1815, "pitch": 60, "duration": 3, "velocity": 85}, {"time": 1815, "pitch": 63, "duration": 3, "velocity": 90}, {"time": 1821, "pitch": 48, "duration": 3, "velocity": 90}, {"time": 1821, "pitch": 60, "duration": 3, "velocity": 86}, {"time": 1821, "pitch": 63, "duration": 3, "velocity": 89}, {"time": 1827, "pitch": 48, "duration": 3, "velocity": 91}, {"time": 1827, "pitch": 60, "duration": 3, "velocity": 85}, {"time": 1827, "pitch": 63, "duration": 3, "velocity": 89}, {"time": 1833, "pitch": 48, "duration": 4, "velocity": 91}, {"time": 1833, "pitch": 60, "duration": 3, "velocity": 89}, {"time": 1833, "pitch": 63, "duration": 3, "velocity": 90}, {"time": 1839, "pitch": 53, "duration": 20, "velocity": 100}, {"time": 1839, "pitch": 60, "duration": 18, "velocity": 89}, {"time": 1839, "pitch": 65, "duration": 17, "velocity": 90}, {"time": 1863, "pitch": 46, "duration": 13, "velocity": 90}, {"time": 1863, "pitch": 58, "duration": 12, "velocity": 85}, {"time": 1863, "pitch": 62, "duration": 12, "velocity": 76}, {"time": 1863, "pitch": 65, "duration": 12, "velocity": 89}, {"time": 1887, "pitch": 39, "duration": 44, "velocity": 91}, {"time": 1887, "pitch": 51, "duration": 14, "velocity": 81}, {"time": 1887, "pitch": 55, "duration": 14, "velocity": 76}, {"time": 1887, "pitch": 58, "duration": 14, "velocity": 81}, {"time": 1905, "pitch": 51, "duration": 9, "velocity": 90}, {"time": 1905, "pitch": 55, "duration": 12, "velocity": 93}, {"time": 1905, "pitch": 58, "duration": 12, "velocity": 91}, {"time": 1905, "pitch": 63, "duration": 10, "velocity": 90}, {"time": 1911, "pitch": 46, "duration": 20, "velocity": 90}, {"time": 1923, "pitch": 55, "duration": 14, "velocity": 91}, {"time": 1923, "pitch": 58, "duration": 14, "velocity": 90}, {"time": 1923, "pitch": 63, "duration": 14, "velocity": 90}, {"time": 1929, "pitch": 51, "duration": 7, "velocity": 91}, {"time": 1935, "pitch": 39, "duration": 22, "velocity": 94}, {"time": 1941, "pitch": 51, "duration": 2, "velocity": 83}, {"time": 1941, "pitch": 55, "duration": 2, "velocity": 89}, {"time": 1941, "pitch": 58, "duration": 2, "velocity": 88}, {"time": 1941, "pitch": 63, "duration": 2, "velocity": 89}, {"time": 1953, "pitch": 51, "duration": 8, "velocity": 91}, {"time": 1953, "pitch": 55, "duration": 14, "velocity": 90}, {"time": 1953, "pitch": 58, "duration": 14, "velocity": 89}, {"time": 1953, "pitch": 63, "duration": 14, "velocity": 89}, {"time": 1959, "pitch": 46, "duration": 23, "velocity": 89}, {"time": 1965, "pitch": 51, "duration": 7, "velocity": 86}, {"time": 1971, "pitch": 55, "duration": 11, "velocity": 81}, {"time": 1971, "pitch": 58, "duration": 11, "velocity": 84}, {"time": 1971, "pitch": 63, "duration": 12, "velocity": 85}, {"time": 1977, "pitch": 51, "duration": 5, "velocity": 87}, {"time": 1983, "pitch": 51, "duration": 10, "velocity": 95}, {"time": 1983, "pitch": 58, "duration": 7, "velocity": 84}, {"time": 1983, "pitch": 63, "duration": 9, "velocity": 91}, {"time": 2001, "pitch": 51, "duration": 2, "velocity": 82}, {"time": 2001, "pitch": 58, "duration": 3, "velocity": 78}, {"time": 2001, "pitch": 63, "duration": 2, "velocity": 79}, {"time": 2001, "pitch": 67, "duration": 2, "velocity": 80}, {"time": 2004, "pitch": 51, "duration": 5, "velocity": 85}, {"time": 2004, "pitch": 58, "duration": 2, "velocity": 80}, {"time": 2004, "pitch": 63, "duration": 2, "velocity": 79}, {"time": 2004, "pitch": 67, "duration": 2, "velocity": 82}, {"time": 2007, "pitch": 58, "duration": 2, "velocity": 74}, {"time": 2007, "pitch": 63, "duration": 2, "velocity": 83}, {"time": 2007, "pitch": 67, "duration": 2, "velocity": 85}, {"time": 2013, "pitch": 51, "duration": 2, "velocity": 95}, {"time": 2013, "pitch": 58, "duration": 2, "velocity": 91}, {"time": 2013, "pitch": 63, "duration": 2, "velocity": 89}, {"time": 2013, "pitch": 67, "duration": 2, "velocity": 93}, {"time": 2019, "pitch": 51, "duration": 2, "velocity": 90}, {"time": 2019, "pitch": 58, "duration": 2, "velocity": 86}, {"time": 2019, "pitch": 63, "duration": 2, "velocity": 85}, {"time": 2019, "pitch": 67, "duration": 2, "velocity": 90}, {"time": 2025, "pitch": 51, "duration": 2, "velocity": 87}, {"time": 2025, "pitch": 58, "duration": 2, "velocity": 84}, {"time": 2025, "pitch": 63, "duration": 3, "velocity": 80}, {"time": 2025, "pitch": 67, "duration": 3, "velocity": 84}, {"time": 2031, "pitch": 51, "duration": 46, "velocity": 91}, {"time": 2031, "pitch": 58, "duration": 46, "velocity": 88}, {"time": 2031, "pitch": 63, "duration": 46, "velocity": 84}, {"time": 2031, "pitch": 67, "duration": 47, "velocity": 86}, {"time": 2079, "pitch": 43, "duration": 32, "velocity": 89}, {"time": 2079, "pitch": 55, "duration": 7, "velocity": 85}, {"time": 2079, "pitch": 62, "duration": 10, "velocity": 84}, {"time": 2085, "pitch": 50, "duration": 22, "velocity": 75}, {"time": 2091, "pitch": 55, "duration": 4, "velocity": 81}, {"time": 2097, "pitch": 55, "duration": 10, "velocity": 91}, {"time": 2097, "pitch": 58, "duration": 6, "velocity": 91}, {"time": 2097, "pitch": 62, "duration": 6, "velocity": 90}, {"time": 2109, "pitch": 50, "duration": 4, "velocity": 82}, {"time": 2115, "pitch": 55, "duration": 2, "velocity": 92}, {"time": 2115, "pitch": 58, "duration": 2, "velocity": 95}, {"time": 2115, "pitch": 62, "duration": 3, "velocity": 94}, {"time": 2127, "pitch": 48, "duration": 48, "velocity": 91}, {"time": 2127, "pitch": 60, "duration": 13, "velocity": 90}, {"time": 2127, "pitch": 63, "duration": 13, "velocity": 90}, {"time": 2145, "pitch": 60, "duration": 3, "velocity": 93}, {"time": 2151, "pitch": 60, "duration": 6, "velocity": 91}, {"time": 2151, "pitch": 63, "duration": 6, "velocity": 90}, {"time": 2151, "pitch": 67, "duration": 6, "velocity": 91}, {"time": 2157, "pitch": 55, "duration": 10, "velocity": 75}, {"time": 2163, "pitch": 60, "duration": 5, "velocity": 93}, {"time": 2163, "pitch": 63, "duration": 11, "velocity": 96}, {"time": 2163, "pitch": 67, "duration": 12, "velocity": 95}, {"time": 2169, "pitch": 55, "duration": 6, "velocity": 87}, {"time": 2175, "pitch": 41, "duration": 16, "velocity": 93}, {"time": 2175, "pitch": 53, "duration": 4, "velocity": 83}, {"time": 2175, "pitch": 56, "duration": 5, "velocity": 84}, {"time": 2175, "pitch": 60, "duration": 5, "velocity": 81}, {"time": 2193, "pitch": 60, "duration": 1, "velocity": 80}, {"time": 2193, "pitch": 65, "duration": 1, "velocity": 84}, {"time": 2193, "pitch": 68, "duration": 1, "velocity": 79}, {"time": 2196, "pitch": 60, "duration": 2, "velocity": 82}, {"time": 2196, "pitch": 65, "duration": 1, "velocity": 87}, {"time": 2196, "pitch": 68, "duration": 1, "velocity": 83}, {"time": 2199, "pitch": 60, "duration": 2, "velocity": 86}, {"time": 2199, "pitch": 65, "duration": 1, "velocity": 93}, {"time": 2199, "pitch": 68, "duration": 2, "velocity": 90}, {"time": 2205, "pitch": 41, "duration": 2, "velocity": 91}, {"time": 2205, "pitch": 60, "duration": 2, "velocity": 91}, {"time": 2205, "pitch": 65, "duration": 1, "velocity": 98}, {"time": 2205, "pitch": 68, "duration": 2, "velocity": 91}, {"time": 2211, "pitch": 41, "duration": 3, "velocity": 89}, {"time": 2211, "pitch": 60, "duration": 2, "velocity": 82}, {"time": 2211, "pitch": 65, "duration": 2, "velocity": 89}, {"time": 2211, "pitch": 68, "duration": 2, "velocity": 82}, {"time": 2217, "pitch": 41, "duration": 2, "velocity": 90}, {"time": 2217, "pitch": 60, "duration": 3, "velocity": 83}, {"time": 2217, "pitch": 65, "duration": 2, "velocity": 85}, {"time": 2217, "pitch": 68, "duration": 2, "velocity": 86}, {"time": 2223, "pitch": 46, "duration": 42, "velocity": 91}, {"time": 2223, "pitch": 58, "duration": 44, "velocity": 87}, {"time": 2223, "pitch": 62, "duration": 45, "velocity": 85}, {"time": 2223, "pitch": 65, "duration": 45, "velocity": 90}, {"time": 2271, "pitch": 39, "duration": 20, "velocity": 94}, {"time": 2271, "pitch": 58, "duration": 9, "velocity": 81}, {"time": 2271, "pitch": 63, "duration": 8, "velocity": 87}, {"time": 2271, "pitch": 67, "duration": 9, "velocity": 83}, {"time": 2283, "pitch": 58, "duration": 9, "velocity": 91}, {"time": 2283, "pitch": 63, "duration": 8, "velocity": 98}, {"time": 2283, "pitch": 67, "duration": 8, "velocity": 96}, {"time": 2301, "pitch": 44, "duration": 10, "velocity": 91}, {"time": 2301, "pitch": 56, "duration": 9, "velocity": 89}, {"time": 2301, "pitch": 60, "duration": 8, "velocity": 87}, {"time": 2301, "pitch": 63, "duration": 9, "velocity": 89}, {"time": 2313, "pitch": 44, "duration": 3, "velocity": 88}, {"time": 2313, "pitch": 56, "duration": 3, "velocity": 89}, {"time": 2313, "pitch": 60, "duration": 2, "velocity": 89}, {"time": 2313, "pitch": 63, "duration": 3, "velocity": 88}, {"time": 2319, "pitch": 51, "duration": 3, "velocity": 105}, {"time": 2319, "pitch": 58, "duration": 3, "velocity": 89}, {"time": 2319, "pitch": 63, "duration": 3, "velocity": 91}, {"time": 2331, "pitch": 46, "duration": 30, "velocity": 94}, {"time": 2331, "pitch": 58, "duration": 21, "velocity": 83}, {"time": 2331, "pitch": 62, "duration": 20, "velocity": 89}, {"time": 2331, "pitch": 65, "duration": 20, "velocity": 90}, {"time": 2349, "pitch": 53, "duration": 10, "velocity": 84}, {"time": 2355, "pitch": 58, "duration": 57, "velocity": 85}, {"time": 2355, "pitch": 62, "duration": 58, "velocity": 89}, {"time": 2355, "pitch": 65, "duration": 58, "velocity": 89}, {"time": 2355, "pitch": 70, "duration": 58, "velocity": 85}, {"time": 2415, "pitch": 51, "duration": 23, "velocity": 92}, {"time": 2415, "pitch": 58, "duration": 13, "velocity": 85}, {"time": 2415, "pitch": 63, "duration": 12, "velocity": 89}, {"time": 2433, "pitch": 58, "duration": 9, "velocity": 89}, {"time": 2433, "pitch": 63, "duration": 13, "velocity": 92}, {"time": 2433, "pitch": 67, "duration": 13, "velocity": 91}, {"time": 2439, "pitch": 46, "duration": 21, "velocity": 91}, {"time": 2445, "pitch": 58, "duration": 2, "velocity": 72}, {"time": 2451, "pitch": 58, "duration": 3, "velocity": 86}, {"time": 2451, "pitch": 63, "duration": 17, "velocity": 91}, {"time": 2451, "pitch": 67, "duration": 18, "velocity": 89}, {"time": 2457, "pitch": 58, "duration": 8, "velocity": 69}, {"time": 2463, "pitch": 51, "duration": 23, "velocity": 94}, {"time": 2481, "pitch": 58, "duration": 7, "velocity": 83}, {"time": 2481, "pitch": 63, "duration": 9, "velocity": 91}, {"time": 2481, "pitch": 67, "duration": 13, "velocity": 92}, {"time": 2487, "pitch": 46, "duration": 17, "velocity": 91}, {"time": 2493, "pitch": 58, "duration": 3, "velocity": 86}, {"time": 2493, "pitch": 63, "duration": 1, "velocity": 59}, {"time": 2499, "pitch": 63, "duration": 7, "velocity": 93}, {"time": 2499, "pitch": 67, "duration": 7, "velocity": 98}, {"time": 2505, "pitch": 58, "duration": 20, "velocity": 90}, {"time": 2511, "pitch": 46, "duration": 21, "velocity": 93}, {"time": 2511, "pitch": 62, "duration": 13, "velocity": 74}, {"time": 2511, "pitch": 65, "duration": 13, "velocity": 57}, {"time": 2529, "pitch": 58, "duration": 7, "velocity": 90}, {"time": 2529, "pitch": 62, "duration": 9, "velocity": 98}, {"time": 2529, "pitch": 65, "duration": 12, "velocity": 94}, {"time": 2535, "pitch": 53, "duration": 19, "velocity": 91}, {"time": 2541, "pitch": 58, "duration": 2, "velocity": 76}, {"time": 2547, "pitch": 58, "duration": 2, "velocity": 90}, {"time": 2547, "pitch": 62, "duration": 9, "velocity": 103}, {"time": 2547, "pitch": 65, "duration": 13, "velocity": 95}, {"time": 2553, "pitch": 58, "duration": 4, "velocity": 81}, {"time": 2559, "pitch": 48, "duration": 22, "velocity": 95}, {"time": 2577, "pitch": 60, "duration": 8, "velocity": 90}, {"time": 2577, "pitch": 63, "duration": 9, "velocity": 90}, {"time": 2577, "pitch": 67, "duration": 13, "velocity": 91}, {"time": 2583, "pitch": 55, "duration": 9, "velocity": 83}, {"time": 2589, "pitch": 60, "duration": 3, "velocity": 86}, {"time": 2589, "pitch": 63, "duration": 1, "velocity": 64}, {"time": 2595, "pitch": 60, "duration": 3, "velocity": 92}, {"time": 2595, "pitch": 63, "duration": 5, "velocity": 91}, {"time": 2595, "pitch": 67, "duration": 6, "velocity": 94}, {"time": 2601, "pitch": 60, "duration": 2, "velocity": 78}, {"time": 2607, "pitch": 46, "duration": 29, "velocity": 90}, {"time": 2607, "pitch": 58, "duration": 15, "velocity": 84}, {"time": 2607, "pitch": 62, "duration": 14, "velocity": 79}, {"time": 2607, "pitch": 65, "duration": 15, "velocity": 89}, {"time": 2625, "pitch": 58, "duration": 6, "velocity": 89}, {"time": 2625, "pitch": 62, "duration": 7, "velocity": 98}, {"time": 2625, "pitch": 65, "duration": 8, "velocity": 92}, {"time": 2631, "pitch": 53, "duration": 7, "velocity": 92}, {"time": 2637, "pitch": 58, "duration": 2, "velocity": 89}, {"time": 2643, "pitch": 58, "duration": 2, "velocity": 90}, {"time": 2643, "pitch": 62, "duration": 3, "velocity": 92}, {"time": 2643, "pitch": 65, "duration": 3, "velocity": 90}, {"time": 2649, "pitch": 58, "duration": 2, "velocity": 60}, {"time": 2655, "pitch": 39, "duration": 20, "velocity": 94}, {"time": 2655, "pitch": 58, "duration": 12, "velocity": 86}, {"time": 2655, "pitch": 63, "duration": 12, "velocity": 85}, {"time": 2673, "pitch": 58, "duration": 7, "velocity": 90}, {"time": 2673, "pitch": 63, "duration": 9, "velocity": 96}, {"time": 2673, "pitch": 67, "duration": 10, "velocity": 96}, {"time": 2679, "pitch": 46, "duration": 20, "velocity": 90}, {"time": 2685, "pitch": 58, "duration": 2, "velocity": 87}, {"time": 2691, "pitch": 58, "duration": 1, "velocity": 77}, {"time": 2691, "pitch": 63, "duration": 14, "velocity": 98}, {"time": 2691, "pitch": 67, "duration": 14, "velocity": 94}, {"time": 2697, "pitch": 58, "duration": 8, "velocity": 89}, {"time": 2703, "pitch": 39, "duration": 9, "velocity": 96}, {"time": 2709, "pitch": 58, "duration": 2, "velocity": 89}, {"time": 2709, "pitch": 63, "duration": 1, "velocity": 92}, {"time": 2709, "pitch": 67, "duration": 2, "velocity": 92}, {"time": 2721, "pitch": 58, "duration": 7, "velocity": 89}, {"time": 2721, "pitch": 63, "duration": 9, "velocity": 91}, {"time": 2721, "pitch": 67, "duration": 13, "velocity": 91}, {"time": 2727, "pitch": 46, "duration": 9, "velocity": 89}, {"time": 2733, "pitch": 58, "duration": 2, "velocity": 89}, {"time": 2739, "pitch": 58, "duration": 1, "velocity": 83}, {"time": 2739, "pitch": 63, "duration": 3, "velocity": 93}, {"time": 2739, "pitch": 67, "duration": 5, "velocity": 94}, {"time": 2745, "pitch": 58, "duration": 1, "velocity": 82}, {"time": 2751, "pitch": 41, "duration": 20, "velocity": 91}, {"time": 2751, "pitch": 53, "duration": 15, "velocity": 89}, {"time": 2751, "pitch": 56, "duration": 12, "velocity": 91}, {"time": 2769, "pitch": 53, "duration": 1, "velocity": 78}, {"time": 2769, "pitch": 56, "duration": 9, "velocity": 91}, {"time": 2769, "pitch": 60, "duration": 13, "velocity": 89}, {"time": 2769, "pitch": 65, "duration": 9, "velocity": 91}, {"time": 2775, "pitch": 48, "duration": 8, "velocity": 89}, {"time": 2781, "pitch": 53, "duration": 3, "velocity": 92}, {"time": 2781, "pitch": 56, "duration": 1, "velocity": 53}, {"time": 2787, "pitch": 53, "duration": 1, "velocity": 81}, {"time": 2787, "pitch": 56, "duration": 2, "velocity": 98}, {"time": 2787, "pitch": 60, "duration": 2, "velocity": 92}, {"time": 2787, "pitch": 65, "duration": 4, "velocity": 90}, {"time": 2799, "pitch": 39, "duration": 22, "velocity": 95}, {"time": 2799, "pitch": 58, "duration": 14, "velocity": 81}, {"time": 2799, "pitch": 63, "duration": 14, "velocity": 85}, {"time": 2817, "pitch": 58, "duration": 7, "velocity": 89}, {"time": 2817, "pitch": 63, "duration": 13, "velocity": 91}, {"time": 2817, "pitch": 67, "duration": 11, "velocity": 92}, {"time": 2823, "pitch": 46, "duration": 5, "velocity": 84}, {"time": 2829, "pitch": 58, "duration": 2, "velocity": 90}, {"time": 2835, "pitch": 58, "duration": 2, "velocity": 89}, {"time": 2835, "pitch": 63, "duration": 7, "velocity": 92}, {"time": 2835, "pitch": 67, "duration": 8, "velocity": 94}, {"time": 2841, "pitch": 58, "duration": 1, "velocity": 67}, {"time": 2847, "pitch": 48, "duration": 22, "velocity": 90}, {"time": 2847, "pitch": 60, "duration": 13, "velocity": 83}, {"time": 2847, "pitch": 63, "duration": 13, "velocity": 84}, {"time": 2847, "pitch": 67, "duration": 12, "velocity": 80}, {"time": 2865, "pitch": 60, "duration": 7, "velocity": 90}, {"time": 2865, "pitch": 63, "duration": 9, "velocity": 90}, {"time": 2865, "pitch": 67, "duration": 10, "velocity": 90}, {"time": 2871, "pitch": 55, "duration": 10, "velocity": 92}, {"time": 2877, "pitch": 60, "duration": 2, "velocity": 89}, {"time": 2877, "pitch": 63, "duration": 1, "velocity": 69}, {"time": 2883, "pitch": 60, "duration": 2, "velocity": 91}, {"time": 2883, "pitch": 63, "duration": 17, "velocity": 93}, {"time": 2883, "pitch": 67, "duration": 18, "velocity": 95}, {"time": 2889, "pitch": 60, "duration": 9, "velocity": 87}, {"time": 2895, "pitch": 48, "duration": 19, "velocity": 91}, {"time": 2913, "pitch": 60, "duration": 7, "velocity": 91}, {"time": 2913, "pitch": 63, "duration": 10, "velocity": 92}, {"time": 2913, "pitch": 67, "duration": 10, "velocity": 93}, {"time": 2919, "pitch": 43, "duration": 10, "velocity": 90}, {"time": 2925, "pitch": 60, "duration": 2, "velocity": 90}, {"time": 2925, "pitch": 63, "duration": 1, "velocity": 45}, {"time": 2931, "pitch": 63, "duration": 6, "velocity": 94}, {"time": 2931, "pitch": 67, "duration": 6, "velocity": 98}, {"time": 2937, "pitch": 60, "duration": 1, "velocity": 85}, {"time": 2943, "pitch": 44, "duration": 20, "velocity": 90}, {"time": 2943, "pitch": 56, "duration": 15, "velocity": 86}, {"time": 2943, "pitch": 60, "duration": 15, "velocity": 88}, {"time": 2961, "pitch": 56, "duration": 6, "velocity": 90}, {"time": 2961, "pitch": 60, "duration": 6, "velocity": 91}, {"time": 2961, "pitch": 63, "duration": 6, "velocity": 89}, {"time": 2967, "pitch": 51, "duration": 7, "velocity": 93}, {"time": 2973, "pitch": 56, "duration": 2, "velocity": 91}, {"time": 2979, "pitch": 56, "duration": 1, "velocity": 90}, {"time": 2979, "pitch": 60, "duration": 4, "velocity": 96}, {"time": 2979, "pitch": 63, "duration": 7, "velocity": 93}, {"time": 2985, "pitch": 56, "duration": 1, "velocity": 88}, {"time": 2991, "pitch": 46, "duration": 21, "velocity": 90}, {"time": 2991, "pitch": 58, "duration": 15, "velocity": 86}, {"time": 2991, "pitch": 62, "duration": 15, "velocity": 83}, {"time": 3009, "pitch": 58, "duration": 7, "velocity": 91}, {"time": 3009, "pitch": 62, "duration": 9, "velocity": 92}, {"time": 3009, "pitch": 65, "duration": 13, "velocity": 93}, {"time": 3015, "pitch": 53, "duration": 6, "velocity": 91}, {"time": 3021, "pitch": 58, "duration": 3, "velocity": 89}, {"time": 3021, "pitch": 62, "duration": 1, "velocity": 57}, {"time": 3027, "pitch": 62, "duration": 4, "velocity": 93}, {"time": 3027, "pitch": 65, "duration": 8, "velocity": 94}, {"time": 3027, "pitch": 70, "duration": 5, "velocity": 80}, {"time": 3033, "pitch": 58, "duration": 3, "velocity": 81}, {"time": 3039, "pitch": 39, "duration": 23, "velocity": 91}, {"time": 3039, "pitch": 58, "duration": 3, "velocity": 88}, {"time": 3039, "pitch": 63, "duration": 3, "velocity": 90}, {"time": 3045, "pitch": 58, "duration": 9, "velocity": 92}, {"time": 3045, "pitch": 63, "duration": 10, "velocity": 91}, {"time": 3057, "pitch": 58, "duration": 6, "velocity": 89}, {"time": 3057, "pitch": 63, "duration": 8, "velocity": 91}, {"time": 3057, "pitch": 67, "duration": 10, "velocity": 93}, {"time": 3063, "pitch": 46, "duration": 17, "velocity": 89}, {"time": 3069, "pitch": 58, "duration": 3, "velocity": 90}, {"time": 3069, "pitch": 63, "duration": 2, "velocity": 67}, {"time": 3075, "pitch": 63, "duration": 8, "velocity": 93}, {"time": 3075, "pitch": 67, "duration": 9, "velocity": 92}, {"time": 3081, "pitch": 58, "duration": 3, "velocity": 86}, {"time": 3087, "pitch": 39, "duration": 3, "velocity": 95}, {"time": 3087, "pitch": 58, "duration": 3, "velocity": 86}, {"time": 3087, "pitch": 63, "duration": 3, "velocity": 88}, {"time": 3093, "pitch": 39, "duration": 31, "velocity": 96}, {"time": 3093, "pitch": 58, "duration": 8, "velocity": 90}, {"time": 3093, "pitch": 63, "duration": 9, "velocity": 90}, {"time": 3105, "pitch": 58, "duration": 7, "velocity": 90}, {"time": 3105, "pitch": 63, "duration": 8, "velocity": 100}, {"time": 3105, "pitch": 67, "duration": 9, "velocity": 94}, {"time": 3111, "pitch": 46, "duration": 13, "velocity": 90}, {"time": 3117, "pitch": 58, "duration": 2, "velocity": 91}, {"time": 3117, "pitch": 63, "duration": 1, "velocity": 73}, {"time": 3123, "pitch": 58, "duration": 3, "velocity": 91}, {"time": 3123, "pitch": 63, "duration": 3, "velocity": 95}, {"time": 3129, "pitch": 62, "duration": 3, "velocity": 100}, {"time": 3135, "pitch": 48, "duration": 21, "velocity": 95}, {"time": 3135, "pitch": 60, "duration": 10, "velocity": 90}, {"time": 3135, "pitch": 63, "duration": 7, "velocity": 92}, {"time": 3153, "pitch": 60, "duration": 8, "velocity": 89}, {"time": 3153, "pitch": 63, "duration": 10, "velocity": 91}, {"time": 3153, "pitch": 67, "duration": 14, "velocity": 93}, {"time": 3159, "pitch": 55, "duration": 14, "velocity": 89}, {"time": 3165, "pitch": 60, "duration": 2, "velocity": 83}, {"time": 3165, "pitch": 63, "duration": 1, "velocity": 55}, {"time": 3171, "pitch": 60, "duration": 3, "velocity": 92}, {"time": 3171, "pitch": 63, "duration": 9, "velocity": 94}, {"time": 3171, "pitch": 67, "duration": 10, "velocity": 91}, {"time": 3177, "pitch": 60, "duration": 3, "velocity": 77}, {"time": 3183, "pitch": 48, "duration": 37, "velocity": 94}, {"time": 3183, "pitch": 60, "duration": 12, "velocity": 89}, {"time": 3183, "pitch": 63, "duration": 12, "velocity": 90}, {"time": 3195, "pitch": 55, "duration": 8, "velocity": 81}, {"time": 3201, "pitch": 60, "duration": 5, "velocity": 91}, {"time": 3201, "pitch": 67, "duration": 6, "velocity": 96}, {"time": 3207, "pitch": 55, "duration": 10, "velocity": 76}, {"time": 3213, "pitch": 60, "duration": 3, "velocity": 85}, {"time": 3219, "pitch": 60, "duration": 4, "velocity": 96}, {"time": 3219, "pitch": 63, "duration": 5, "velocity": 98}, {"time": 3225, "pitch": 62, "duration": 2, "velocity": 96}, {"time": 3231, "pitch": 44, "duration": 38, "velocity": 90}, {"time": 3231, "pitch": 56, "duration": 13, "velocity": 90}, {"time": 3231, "pitch": 60, "duration": 13, "velocity": 90}, {"time": 3243, "pitch": 51, "duration": 10, "velocity": 85}, {"time": 3249, "pitch": 56, "duration": 13, "velocity": 95}, {"time": 3249, "pitch": 60, "duration": 14, "velocity": 95}, {"time": 3249, "pitch": 63, "duration": 14, "velocity": 96}, {"time": 3261, "pitch": 51, "duration": 7, "velocity": 87}, {"time": 3267, "pitch": 56, "duration": 2, "velocity": 91}, {"time": 3267, "pitch": 60, "duration": 6, "velocity": 96}, {"time": 3267, "pitch": 63, "duration": 7, "velocity": 95}, {"time": 3273, "pitch": 56, "duration": 2, "velocity": 84}, {"time": 3279, "pitch": 39, "duration": 38, "velocity": 91}, {"time": 3279, "pitch": 58, "duration": 6, "velocity": 84}, {"time": 3279, "pitch": 63, "duration": 8, "velocity": 82}, {"time": 3285, "pitch": 46, "duration": 15, "velocity": 82}, {"time": 3291, "pitch": 58, "duration": 2, "velocity": 89}, {"time": 3297, "pitch": 58, "duration": 6, "velocity": 90}, {"time": 3297, "pitch": 63, "duration": 9, "velocity": 96}, {"time": 3297, "pitch": 67, "duration": 9, "velocity": 95}, {"time": 3303, "pitch": 46, "duration": 16, "velocity": 65}, {"time": 3309, "pitch": 58, "duration": 3, "velocity": 89}, {"time": 3309, "pitch": 63, "duration": 2, "velocity": 56}, {"time": 3315, "pitch": 58, "duration": 3, "velocity": 92}, {"time": 3315, "pitch": 63, "duration": 3, "velocity": 94}, {"time": 3327, "pitch": 43, "duration": 31, "velocity": 100}, {"time": 3327, "pitch": 62, "duration": 12, "velocity": 91}, {"time": 3327, "pitch": 67, "duration": 9, "velocity": 90}, {"time": 3333, "pitch": 50, "duration": 21, "velocity": 77}, {"time": 3339, "pitch": 58, "duration": 3, "velocity": 85}, {"time": 3345, "pitch": 58, "duration": 14, "velocity": 91}, {"time": 3345, "pitch": 62, "duration": 15, "velocity": 98}, {"time": 3345, "pitch": 67, "duration": 15, "velocity": 90}, {"time": 3357, "pitch": 50, "duration": 7, "velocity": 77}, {"time": 3363, "pitch": 58, "duration": 3, "velocity": 92}, {"time": 3363, "pitch": 62, "duration": 8, "velocity": 96}, {"time": 3369, "pitch": 58, "duration": 2, "velocity": 83}, {"time": 3375, "pitch": 48, "duration": 38, "velocity": 90}, {"time": 3375, "pitch": 60, "duration": 14, "velocity": 88}, {"time": 3375, "pitch": 63, "duration": 14, "velocity": 92}, {"time": 3387, "pitch": 55, "duration": 9, "velocity": 83}, {"time": 3393, "pitch": 60, "duration": 14, "velocity": 91}, {"time": 3393, "pitch": 63, "duration": 14, "velocity": 96}, {"time": 3393, "pitch": 67, "duration": 14, "velocity": 93}, {"time": 3405, "pitch": 55, "duration": 6, "velocity": 87}, {"time": 3411, "pitch": 60, "duration": 3, "velocity": 92}, {"time": 3411, "pitch": 63, "duration": 5, "velocity": 94}, {"time": 3411, "pitch": 67, "duration": 8, "velocity": 94}, {"time": 3417, "pitch": 60, "duration": 2, "velocity": 74}, {"time": 3423, "pitch": 46, "duration": 45, "velocity": 91}, {"time": 3423, "pitch": 58, "duration": 3, "velocity": 91}, {"time": 3423, "pitch": 62, "duration": 3, "velocity": 95}, {"time": 3423, "pitch": 65, "duration": 3, "velocity": 94}, {"time": 3429, "pitch": 58, "duration": 9, "velocity": 91}, {"time": 3429, "pitch": 62, "duration": 9, "velocity": 96}, {"time": 3429, "pitch": 65, "duration": 9, "velocity": 95}, {"time": 3441, "pitch": 58, "duration": 7, "velocity": 92}, {"time": 3441, "pitch": 62, "duration": 8, "velocity": 96}, {"time": 3441, "pitch": 65, "duration": 8, "velocity": 103}, {"time": 3441, "pitch": 70, "duration": 7, "velocity": 91}, {"time": 3447, "pitch": 53, "duration": 20, "velocity": 88}, {"time": 3453, "pitch": 58, "duration": 3, "velocity": 98}, {"time": 3453, "pitch": 65, "duration": 1, "velocity": 81}, {"time": 3459, "pitch": 62, "duration": 4, "velocity": 94}, {"time": 3459, "pitch": 65, "duration": 4, "velocity": 94}, {"time": 3465, "pitch": 58, "duration": 4, "velocity": 86}, {"time": 3465, "pitch": 65, "duration": 3, "velocity": 62}, {"time": 3471, "pitch": 46, "duration": 3, "velocity": 90}, {"time": 3471, "pitch": 58, "duration": 2, "velocity": 84}, {"time": 3471, "pitch": 62, "duration": 2, "velocity": 81}, {"time": 3471, "pitch": 65, "duration": 2, "velocity": 89}, {"time": 3477, "pitch": 46, "duration": 29, "velocity": 95}, {"time": 3477, "pitch": 58, "duration": 8, "velocity": 91}, {"time": 3477, "pitch": 62, "duration": 8, "velocity": 94}, {"time": 3477, "pitch": 65, "duration": 8, "velocity": 95}, {"time": 3483, "pitch": 53, "duration": 7, "velocity": 94}, {"time": 3489, "pitch": 58, "duration": 7, "velocity": 94}, {"time": 3489, "pitch": 62, "duration": 8, "velocity": 103}, {"time": 3489, "pitch": 65, "duration": 8, "velocity": 105}, {"time": 3489, "pitch": 70, "duration": 8, "velocity": 90}, {"time": 3495, "pitch": 53, "duration": 10, "velocity": 94}, {"time": 3501, "pitch": 58, "duration": 3, "velocity": 94}, {"time": 3501, "pitch": 62, "duration": 1, "velocity": 67}, {"time": 3501, "pitch": 65, "duration": 2, "velocity": 87}, {"time": 3507, "pitch": 58, "duration": 2, "velocity": 90}, {"time": 3507, "pitch": 62, "duration": 4, "velocity": 98}, {"time": 3507, "pitch": 65, "duration": 9, "velocity": 96}, {"time": 3513, "pitch": 58, "duration": 3, "velocity": 85}, {"time": 3519, "pitch": 39, "duration": 34, "velocity": 93}, {"time": 3519, "pitch": 58, "duration": 13, "velocity": 90}, {"time": 3519, "pitch": 63, "duration": 13, "velocity": 91}, {"time": 3531, "pitch": 46, "duration": 7, "velocity": 80}, {"time": 3537, "pitch": 58, "duration": 9, "velocity": 90}, {"time": 3537, "pitch": 63, "duration": 13, "velocity": 95}, {"time": 3537, "pitch": 67, "duration": 14, "velocity": 95}, {"time": 3549, "pitch": 46, "duration": 4, "velocity": 84}, {"time": 3555, "pitch": 58, "duration": 1, "velocity": 89}, {"time": 3555, "pitch": 63, "duration": 9, "velocity": 93}, {"time": 3555, "pitch": 67, "duration": 9, "velocity": 95}, {"time": 3561, "pitch": 58, "duration": 3, "velocity": 84}, {"time": 3567, "pitch": 51, "duration": 24, "velocity": 90}, {"time": 3567, "pitch": 58, "duration": 3, "velocity": 89}, {"time": 3567, "pitch": 63, "duration": 8, "velocity": 90}, {"time": 3573, "pitch": 58, "duration": 8, "velocity": 76}, {"time": 3579, "pitch": 63, "duration": 2, "velocity": 85}, {"time": 3585, "pitch": 58, "duration": 7, "velocity": 91}, {"time": 3585, "pitch": 63, "duration": 13, "velocity": 93}, {"time": 3585, "pitch": 67, "duration": 13, "velocity": 96}, {"time": 3591, "pitch": 46, "duration": 19, "velocity": 93}, {"time": 3597, "pitch": 58, "duration": 3, "velocity": 89}, {"time": 3603, "pitch": 58, "duration": 2, "velocity": 90}, {"time": 3603, "pitch": 63, "duration": 9, "velocity": 94}, {"time": 3603, "pitch": 67, "duration": 9, "velocity": 95}, {"time": 3609, "pitch": 58, "duration": 3, "velocity": 86}, {"time": 3615, "pitch": 48, "duration": 21, "velocity": 90}, {"time": 3615, "pitch": 60, "duration": 14, "velocity": 88}, {"time": 3615, "pitch": 63, "duration": 14, "velocity": 86}, {"time": 3633, "pitch": 60, "duration": 7, "velocity": 90}, {"time": 3633, "pitch": 63, "duration": 13, "velocity": 91}, {"time": 3633, "pitch": 67, "duration": 13, "velocity": 91}, {"time": 3639, "pitch": 55, "duration": 5, "velocity": 91}, {"time": 3645, "pitch": 60, "duration": 9, "velocity": 96}, {"time": 3651, "pitch": 43, "duration": 7, "velocity": 92}, {"time": 3657, "pitch": 60, "duration": 8, "velocity": 94}, {"time": 3657, "pitch": 63, "duration": 8, "velocity": 83}, {"time": 3663, "pitch": 48, "duration": 22, "velocity": 93}, {"time": 3669, "pitch": 60, "duration": 6, "velocity": 90}, {"time": 3681, "pitch": 60, "duration": 7, "velocity": 89}, {"time": 3681, "pitch": 63, "duration": 9, "velocity": 91}, {"time": 3681, "pitch": 67, "duration": 9, "velocity": 93}, {"time": 3687, "pitch": 55, "duration": 8, "velocity": 76}, {"time": 3693, "pitch": 60, "duration": 3, "velocity": 95}, {"time": 3693, "pitch": 63, "duration": 1, "velocity": 74}, {"time": 3699, "pitch": 60, "duration": 2, "velocity": 93}, {"time": 3699, "pitch": 63, "duration": 4, "velocity": 95}, {"time": 3699, "pitch": 67, "duration": 5, "velocity": 93}, {"time": 3711, "pitch": 43, "duration": 3, "velocity": 95}, {"time": 3711, "pitch": 55, "duration": 3, "velocity": 79}, {"time": 3711, "pitch": 58, "duration": 3, "velocity": 83}, {"time": 3717, "pitch": 43, "duration": 3, "velocity": 80}, {"time": 3717, "pitch": 55, "duration": 3, "velocity": 83}, {"time": 3717, "pitch": 58, "duration": 3, "velocity": 84}, {"time": 3723, "pitch": 43, "duration": 2, "velocity": 94}, {"time": 3723, "pitch": 55, "duration": 3, "velocity": 85}, {"time": 3723, "pitch": 58, "duration": 3, "velocity": 85}, {"time": 3729, "pitch": 43, "duration": 3, "velocity": 96}, {"time": 3729, "pitch": 55, "duration": 3, "velocity": 87}, {"time": 3729, "pitch": 58, "duration": 3, "velocity": 89}, {"time": 3735, "pitch": 48, "duration": 4, "velocity": 91}, {"time": 3735, "pitch": 60, "duration": 3, "velocity": 85}, {"time": 3735, "pitch": 63, "duration": 3, "velocity": 90}, {"time": 3741, "pitch": 48, "duration": 3, "velocity": 90}, {"time": 3741, "pitch": 60, "duration": 3, "velocity": 86}, {"time": 3741, "pitch": 63, "duration": 3, "velocity": 89}, {"time": 3747, "pitch": 48, "duration": 3, "velocity": 91}, {"time": 3747, "pitch": 60, "duration": 3, "velocity": 85}, {"time": 3747, "pitch": 63, "duration": 3, "velocity": 89}, {"time": 3753, "pitch": 48, "duration": 4, "velocity": 91}, {"time": 3753, "pitch": 60, "duration": 3, "velocity": 89}, {"time": 3753, "pitch": 63, "duration": 3, "velocity": 90}, {"time": 3759, "pitch": 53, "duration": 20, "velocity": 100}, {"time": 3759, "pitch": 60, "duration": 18, "velocity": 89}, {"time": 3759, "pitch": 65, "duration": 17, "velocity": 90}, {"time": 3783, "pitch": 46, "duration": 13, "velocity": 90}, {"time": 3783, "pitch": 58, "duration": 12, "velocity": 85}, {"time": 3783, "pitch": 62, "duration": 12, "velocity": 76}, {"time": 3783, "pitch": 65, "duration": 12, "velocity": 89}, {"time": 3807, "pitch": 39, "duration": 44, "velocity": 91}, {"time": 3807, "pitch": 51, "duration": 14, "velocity": 81}, {"time": 3807, "pitch": 55, "duration": 14, "velocity": 76}, {"time": 3807, "pitch": 58, "duration": 14, "velocity": 81}, {"time": 3825, "pitch": 51, "duration": 9, "velocity": 90}, {"time": 3825, "pitch": 55, "duration": 12, "velocity": 93}, {"time": 3825, "pitch": 58, "duration": 12, "velocity": 91}, {"time": 3825, "pitch": 63, "duration": 10, "velocity": 90}, {"time": 3831, "pitch": 46, "duration": 20, "velocity": 90}, {"time": 3843, "pitch": 55, "duration": 14, "velocity": 91}, {"time": 3843, "pitch": 58, "duration": 14, "velocity": 90}, {"time": 3843, "pitch": 63, "duration": 14, "velocity": 90}, {"time": 3849, "pitch": 51, "duration": 7, "velocity": 91}, {"time": 3855, "pitch": 39, "duration": 22, "velocity": 94}, {"time": 3861, "pitch": 51, "duration": 2, "velocity": 83}, {"time": 3861, "pitch": 55, "duration": 2, "velocity": 89}, {"time": 3861, "pitch": 58, "duration": 2, "velocity": 88}, {"time": 3861, "pitch": 63, "duration": 2, "velocity": 89}, {"time": 3873, "pitch": 51, "duration": 8, "velocity": 91}, {"time": 3873, "pitch": 55, "duration": 14, "velocity": 90}, {"time": 3873, "pitch": 58, "duration": 14, "velocity": 89}, {"time": 3873, "pitch": 63, "duration": 14, "velocity": 89}, {"time": 3879, "pitch": 46, "duration": 23, "velocity": 89}, {"time": 3885, "pitch": 51, "duration": 7, "velocity": 86}, {"time": 3891, "pitch": 55, "duration": 11, "velocity": 81}, {"time": 3891, "pitch": 58, "duration": 11, "velocity": 84}, {"time": 3891, "pitch": 63, "duration": 12, "velocity": 85}, {"time": 3897, "pitch": 51, "duration": 5, "velocity": 87}, {"time": 3903, "pitch": 44, "duration": 44, "velocity": 91}, {"time": 3903, "pitch": 56, "duration": 7, "velocity": 84}, {"time": 3903, "pitch": 60, "duration": 11, "velocity": 91}, {"time": 3909, "pitch": 51, "duration": 38, "velocity": 81}, {"time": 3915, "pitch": 56, "duration": 14, "velocity": 91}, {"time": 3921, "pitch": 60, "duration": 13, "velocity": 96}, {"time": 3921, "pitch": 63, "duration": 13, "velocity": 95}, {"time": 3939, "pitch": 56, "duration": 2, "velocity": 92}, {"time": 3939, "pitch": 60, "duration": 8, "velocity": 94}, {"time": 3939, "pitch": 63, "duration": 9, "velocity": 95}, {"time": 3939, "pitch": 68, "duration": 11, "velocity": 87}, {"time": 3945, "pitch": 56, "duration": 2, "velocity": 89}, {"time": 3951, "pitch": 46, "duration": 22, "velocity": 91}, {"time": 3951, "pitch": 58, "duration": 22, "velocity": 90}, {"time": 3951, "pitch": 62, "duration": 22, "velocity": 86}, {"time": 3951, "pitch": 65, "duration": 22, "velocity": 89}, {"time": 3951, "pitch": 68, "duration": 1, "velocity": 63}, {"time": 3975, "pitch": 62, "duration": 6, "velocity": 87}, {"time": 3975, "pitch": 46, "duration": 6, "velocity": 93}, {"time": 3975, "pitch": 65, "duration": 7, "velocity": 93}, {"time": 3975, "pitch": 58, "duration": 7, "velocity": 90}, {"time": 3975, "pitch": 70, "duration": 7, "velocity": 90}, {"time": 3983, "pitch": 46, "duration": 5, "velocity": 91}, {"time": 3984, "pitch": 65, "duration": 4, "velocity": 92}, {"time": 3984, "pitch": 62, "duration": 4, "velocity": 89}, {"time": 3984, "pitch": 58, "duration": 4, "velocity": 89}, {"time": 3984, "pitch": 70, "duration": 5, "velocity": 85}, {"time": 3991, "pitch": 46, "duration": 4, "velocity": 91}, {"time": 3991, "pitch": 65, "duration": 3, "velocity": 91}, {"time": 3991, "pitch": 58, "duration": 4, "velocity": 91}, {"time": 3991, "pitch": 70, "duration": 3, "velocity": 89}, {"time": 3991, "pitch": 62, "duration": 2, "velocity": 83}, {"time": 3999, "pitch": 44, "duration": 22, "velocity": 92}, {"time": 3999, "pitch": 56, "duration": 22, "velocity": 86}, {"time": 3999, "pitch": 60, "duration": 16, "velocity": 85}, {"time": 3999, "pitch": 63, "duration": 17, "velocity": 84}, {"time": 4025, "pitch": 59, "duration": 16, "velocity": 90}, {"time": 4025, "pitch": 63, "duration": 17, "velocity": 91}, {"time": 4025, "pitch": 56, "duration": 17, "velocity": 91}, {"time": 4025, "pitch": 44, "duration": 16, "velocity": 94}, {"time": 4047, "pitch": 44, "duration": 13, "velocity": 90}, {"time": 4047, "pitch": 63, "duration": 11, "velocity": 93}, {"time": 4047, "pitch": 59, "duration": 11, "velocity": 93}, {"time": 4047, "pitch": 56, "duration": 10, "velocity": 92}, {"time": 4070, "pitch": 58, "duration": 11, "velocity": 84}, {"time": 4070, "pitch": 63, "duration": 15, "velocity": 84}, {"time": 4070, "pitch": 39, "duration": 12, "velocity": 106}, {"time": 4080, "pitch": 46, "duration": 3, "velocity": 67}, {"time": 4085, "pitch": 58, "duration": 4, "velocity": 87}, {"time": 4089, "pitch": 51, "duration": 54, "velocity": 87}, {"time": 4093, "pitch": 58, "duration": 49, "velocity": 89}, {"time": 4097, "pitch": 63, "duration": 4, "velocity": 88}, {"time": 4101, "pitch": 65, "duration": 3, "velocity": 90}, {"time": 4105, "pitch": 67, "duration": 1, "velocity": 88}, {"time": 4109, "pitch": 70, "duration": 2, "velocity": 84}, {"time": 4113, "pitch": 75, "duration": 3, "velocity": 78}, {"time": 4117, "pitch": 77, "duration": 2, "velocity": 88}, {"time": 4122, "pitch": 79, "duration": 2, "velocity": 93}, {"time": 4127, "pitch": 82, "duration": 3, "velocity": 84}, {"time": 4132, "pitch": 87, "duration": 2, "velocity": 90}], "annotations": [{"time": 63, "annotation": {"number": 64, "value": 127}, "group": "control_change"}, {"time": 81, "annotation": {"number": 64, "value": 0}, "group": "control_change"}, {"time": 160, "annotation": {"number": 64, "value": 127}, "group": "control_change"}, {"time": 160, "annotation": {"number": 64, "value": 0}, "group": "control_change"}, {"time": 161, "annotation": {"number": 64, "value": 127}, "group": "control_change"}, {"time": 204, "annotation": {"number": 64, "value": 0}, "group": "control_change"}, {"time": 215, "annotation": {"number": 64, "value": 127}, "group": "control_change"}, {"time": 250, "annotation": {"number": 64, "value": 0}, "group": "control_change"}, {"time": 256, "annotation": {"number": 64, "value": 127}, "group": "control_change"}, {"time": 281, "annotation": {"number": 64, "value": 0}, "group": "control_change"}, {"time": 351, "annotation": {"number": 64, "value": 127}, "group": "control_change"}, {"time": 373, "annotation": {"number": 64, "value": 0}, "group": "control_change"}, {"time": 384, "annotation": {"number": 64, "value": 127}, "group": "control_change"}, {"time": 397, "annotation": {"number": 64, "value": 0}, "group": "control_change"}, {"time": 412, "annotation": {"number": 64, "value": 127}, "group": "control_change"}, {"time": 486, "annotation": {"number": 64, "value": 0}, "group": "control_change"}, {"time": 496, "annotation": {"number": 64, "value": 127}, "group": "control_change"}, {"time": 516, "annotation": {"number": 64, "value": 0}, "group": "control_change"}, {"time": 521, "annotation": {"number": 64, "value": 127}, "group": "control_change"}, {"time": 538, "annotation": {"number": 64, "value": 0}, "group": "control_change"}, {"time": 544, "annotation": {"number": 64, "value": 127}, "group": "control_change"}, {"time": 544, "annotation": {"number": 64, "value": 0}, "group": "control_change"}, {"time": 564, "annotation": {"number": 64, "value": 0}, "group": "control_change"}, {"time": 568, "annotation": {"number": 64, "value": 127}, "group": "control_change"}, {"time": 586, "annotation": {"number": 64, "value": 0}, "group": "control_change"}, {"time": 591, "annotation": {"number": 64, "value": 127}, "group": "control_change"}, {"time": 611, "annotation": {"number": 64, "value": 0}, "group": "control_change"}, {"time": 615, "annotation": {"number": 64, "value": 127}, "group": "control_change"}, {"time": 635, "annotation": {"number": 64, "value": 0}, "group": "control_change"}, {"time": 639, "annotation": {"number": 64, "value": 127}, "group": "control_change"}, {"time": 659, "annotation": {"number": 64, "value": 0}, "group": "control_change"}, {"time": 663, "annotation": {"number": 64, "value": 127}, "group": "control_change"}, {"time": 684, "annotation": {"number": 64, "value": 0}, "group": "control_change"}, {"time": 696, "annotation": {"number": 64, "value": 127}, "group": "control_change"}, {"time": 730, "annotation": {"number": 64, "value": 0}, "group": "control_change"}, {"time": 736, "annotation": {"number": 64, "value": 127}, "group": "control_change"}, {"time": 755, "annotation": {"number": 64, "value": 0}, "group": "control_change"}, {"time": 758, "annotation": {"number": 64, "value": 127}, "group": "control_change"}, {"time": 778, "annotation": {"number": 64, "value": 0}, "group": "control_change"}, {"time": 783, "annotation": {"number": 64, "value": 127}, "group": "control_change"}, {"time": 789, "annotation": {"number": 64, "value": 0}, "group": "control_change"}, {"time": 805, "annotation": {"number": 64, "value": 127}, "group": "control_change"}, {"time": 829, "annotation": {"number": 64, "value": 0}, "group": "control_change"}, {"time": 837, "annotation": {"number": 64, "value": 127}, "group": "control_change"}, {"time": 853, "annotation": {"number": 64, "value": 0}, "group": "control_change"}, {"time": 854, "annotation": {"number": 64, "value": 127}, "group": "control_change"}, {"time": 876, "annotation": {"number": 64, "value": 0}, "group": "control_change"}, {"time": 887, "annotation": {"number": 64, "value": 127}, "group": "control_change"}, {"time": 922, "annotation": {"number": 64, "value": 0}, "group": "control_change"}, {"time": 930, "annotation": {"number": 64, "value": 127}, "group": "control_change"}, {"time": 970, "annotation": {"number": 64, "value": 0}, "group": "control_change"}, {"time": 976, "annotation": {"number": 64, "value": 127}, "group": "control_change"}, {"time": 1019, "annotation": {"number": 64, "value": 0}, "group": "control_change"}, {"time": 1029, "annotation": {"number": 64, "value": 127}, "group": "control_change"}, {"time": 1066, "annotation": {"number": 64, "value": 0}, "group": "control_change"}, {"time": 1080, "annotation": {"number": 64, "value": 127}, "group": "control_change"}, {"time": 1115, "annotation": {"number": 64, "value": 0}, "group": "control_change"}, {"time": 1131, "annotation": {"number": 64, "value": 127}, "group": "control_change"}, {"time": 1162, "annotation": {"number": 64, "value": 0}, "group": "control_change"}, {"time": 1184, "annotation": {"number": 64, "value": 127}, "group": "control_change"}, {"time": 1184, "annotation": {"number": 64, "value": 0}, "group": "control_change"}, {"time": 1210, "annotation": {"number": 64, "value": 0}, "group": "control_change"}, {"time": 1217, "annotation": {"number": 64, "value": 127}, "group": "control_change"}, {"time": 1260, "annotation": {"number": 64, "value": 0}, "group": "control_change"}, {"time": 1265, "annotation": {"number": 64, "value": 127}, "group": "control_change"}, {"time": 1310, "annotation": {"number": 64, "value": 0}, "group": "control_change"}, {"time": 1319, "annotation": {"number": 64, "value": 127}, "group": "control_change"}, {"time": 1356, "annotation": {"number": 64, "value": 0}, "group": "control_change"}, {"time": 1364, "annotation": {"number": 64, "value": 127}, "group": "control_change"}, {"time": 1403, "annotation": {"number": 64, "value": 0}, "group": "control_change"}, {"time": 1410, "annotation": {"number": 64, "value": 127}, "group": "control_change"}, {"time": 1452, "annotation": {"number": 64, "value": 0}, "group": "control_change"}, {"time": 1457, "annotation": {"number": 64, "value": 127}, "group": "control_change"}, {"time": 1498, "annotation": {"number": 64, "value": 0}, "group": "control_change"}, {"time": 1509, "annotation": {"number": 64, "value": 127}, "group": "control_change"}, {"time": 1546, "annotation": {"number": 64, "value": 0}, "group": "control_change"}, {"time": 1552, "annotation": {"number": 64, "value": 127}, "group": "control_change"}, {"time": 1594, "annotation": {"number": 64, "value": 0}, "group": "control_change"}, {"time": 1602, "annotation": {"number": 64, "value": 127}, "group": "control_change"}, {"time": 1644, "annotation": {"number": 64, "value": 0}, "group": "control_change"}, {"time": 1649, "annotation": {"number": 64, "value": 127}, "group": "control_change"}, {"time": 1669, "annotation": {"number": 64, "value": 0}, "group": "control_change"}, {"time": 1673, "annotation": {"number": 64, "value": 127}, "group": "control_change"}, {"time": 1690, "annotation": {"number": 64, "value": 0}, "group": "control_change"}, {"time": 1698, "annotation": {"number": 64, "value": 127}, "group": "control_change"}, {"time": 1739, "annotation": {"number": 64, "value": 0}, "group": "control_change"}, {"time": 1745, "annotation": {"number": 64, "value": 127}, "group": "control_change"}, {"time": 1788, "annotation": {"number": 64, "value": 0}, "group": "control_change"}, {"time": 1864, "annotation": {"number": 64, "value": 127}, "group": "control_change"}, {"time": 1883, "annotation": {"number": 64, "value": 0}, "group": "control_change"}, {"time": 1894, "annotation": {"number": 64, "value": 127}, "group": "control_change"}, {"time": 1905, "annotation": {"number": 64, "value": 0}, "group": "control_change"}, {"time": 1983, "annotation": {"number": 64, "value": 127}, "group": "control_change"}, {"time": 2001, "annotation": {"number": 64, "value": 0}, "group": "control_change"}, {"time": 2080, "annotation": {"number": 64, "value": 127}, "group": "control_change"}, {"time": 2080, "annotation": {"number": 64, "value": 0}, "group": "control_change"}, {"time": 2081, "annotation": {"number": 64, "value": 127}, "group": "control_change"}, {"time": 2124, "annotation": {"number": 64, "value": 0}, "group": "control_change"}, {"time": 2135, "annotation": {"number": 64, "value": 127}, "group": "control_change"}, {"time": 2170, "annotation": {"number": 64, "value": 0}, "group": "control_change"}, {"time": 2176, "annotation": {"number": 64, "value": 127}, "group": "control_change"}, {"time": 2201, "annotation": {"number": 64, "value": 0}, "group": "control_change"}, {"time": 2271, "annotation": {"number": 64, "value": 127}, "group": "control_change"}, {"time": 2293, "annotation": {"number": 64, "value": 0}, "group": "control_change"}, {"time": 2304, "annotation": {"number": 64, "value": 127}, "group": "control_change"}, {"time": 2317, "annotation": {"number": 64, "value": 0}, "group": "control_change"}, {"time": 2332, "annotation": {"number": 64, "value": 127}, "group": "control_change"}, {"time": 2406, "annotation": {"number": 64, "value": 0}, "group": "control_change"}, {"time": 2416, "annotation": {"number": 64, "value": 127}, "group": "control_change"}, {"time": 2436, "annotation": {"number": 64, "value": 0}, "group": "control_change"}, {"time": 2441, "annotation": {"number": 64, "value": 127}, "group": "control_change"}, {"time": 2458, "annotation": {"number": 64, "value": 0}, "group": "control_change"}, {"time": 2464, "annotation": {"number": 64, "value": 127}, "group": "control_change"}, {"time": 2464, "annotation": {"number": 64, "value": 0}, "group": "control_change"}, {"time": 2484, "annotation": {"number": 64, "value": 0}, "group": "control_change"}, {"time": 2488, "annotation": {"number": 64, "value": 127}, "group": "control_change"}, {"time": 2506, "annotation": {"number": 64, "value": 0}, "group": "control_change"}, {"time": 2511, "annotation": {"number": 64, "value": 127}, "group": "control_change"}, {"time": 2531, "annotation": {"number": 64, "value": 0}, "group": "control_change"}, {"time": 2535, "annotation": {"number": 64, "value": 127}, "group": "control_change"}, {"time": 2555, "annotation": {"number": 64, "value": 0}, "group": "control_change"}, {"time": 2559, "annotation": {"number": 64, "value": 127}, "group": "control_change"}, {"time": 2579, "annotation": {"number": 64, "value": 0}, "group": "control_change"}, {"time": 2583, "annotation": {"number": 64, "value": 127}, "group": "control_change"}, {"time": 2604, "annotation": {"number": 64, "value": 0}, "group": "control_change"}, {"time": 2616, "annotation": {"number": 64, "value": 127}, "group": "control_change"}, {"time": 2650, "annotation": {"number": 64, "value": 0}, "group": "control_change"}, {"time": 2656, "annotation": {"number": 64, "value": 127}, "group": "control_change"}, {"time": 2675, "annotation": {"number": 64, "value": 0}, "group": "control_change"}, {"time": 2678, "annotation": {"number": 64, "value": 127}, "group": "control_change"}, {"time": 2698, "annotation": {"number": 64, "value": 0}, "group": "control_change"}, {"time": 2703, "annotation": {"number": 64, "value": 127}, "group": "control_change"}, {"time": 2709, "annotation": {"number": 64, "value": 0}, "group": "control_change"}, {"time": 2725, "annotation": {"number": 64, "value": 127}, "group": "control_change"}, {"time": 2749, "annotation": {"number": 64, "value": 0}, "group": "control_change"}, {"time": 2757, "annotation": {"number": 64, "value": 127}, "group": "control_change"}, {"time": 2773, "annotation": {"number": 64, "value": 0}, "group": "control_change"}, {"time": 2774, "annotation": {"number": 64, "value": 127}, "group": "control_change"}, {"time": 2796, "annotation": {"number": 64, "value": 0}, "group": "control_change"}, {"time": 2807, "annotation": {"number": 64, "value": 127}, "group": "control_change"}, {"time": 2842, "annotation": {"number": 64, "value": 0}, "group": "control_change"}, {"time": 2850, "annotation": {"number": 64, "value": 127}, "group": "control_change"}, {"time": 2890, "annotation": {"number": 64, "value": 0}, "group": "control_change"}, {"time": 2896, "annotation": {"number": 64, "value": 127}, "group": "control_change"}, {"time": 2939, "annotation": {"number": 64, "value": 0}, "group": "control_change"}, {"time": 2949, "annotation": {"number": 64, "value": 127}, "group": "control_change"}, {"time": 2986, "annotation": {"number": 64, "value": 0}, "group": "control_change"}, {"time": 3000, "annotation": {"number": 64, "value": 127}, "group": "control_change"}, {"time": 3035, "annotation": {"number": 64, "value": 0}, "group": "control_change"}, {"time": 3051, "annotation": {"number": 64, "value": 127}, "group": "control_change"}, {"time": 3082, "annotation": {"number": 64, "value": 0}, "group": "control_change"}, {"time": 3104, "annotation": {"number": 64, "value": 127}, "group": "control_change"}, {"time": 3104, "annotation": {"number": 64, "value": 0}, "group": "control_change"}, {"time": 3130, "annotation": {"number": 64, "value": 0}, "group": "control_change"}, {"time": 3137, "annotation": {"number": 64, "value": 127}, "group": "control_change"}, {"time": 3180, "annotation": {"number": 64, "value": 0}, "group": "control_change"}, {"time": 3185, "annotation": {"number": 64, "value": 127}, "group": "control_change"}, {"time": 3230, "annotation": {"number": 64, "value": 0}, "group": "control_change"}, {"time": 3239, "annotation": {"number": 64, "value": 127}, "group": "control_change"}, {"time": 3276, "annotation": {"number": 64, "value": 0}, "group": "control_change"}, {"time": 3284, "annotation": {"number": 64, "value": 127}, "group": "control_change"}, {"time": 3323, "annotation": {"number": 64, "value": 0}, "group": "control_change"}, {"time": 3330, "annotation": {"number": 64, "value": 127}, "group": "control_change"}, {"time": 3372, "annotation": {"number": 64, "value": 0}, "group": "control_change"}, {"time": 3377, "annotation": {"number": 64, "value": 127}, "group": "control_change"}, {"time": 3418, "annotation": {"number": 64, "value": 0}, "group": "control_change"}, {"time": 3429, "annotation": {"number": 64, "value": 127}, "group": "control_change"}, {"time": 3466, "annotation": {"number": 64, "value": 0}, "group": "control_change"}, {"time": 3472, "annotation": {"number": 64, "value": 127}, "group": "control_change"}, {"time": 3514, "annotation": {"number": 64, "value": 0}, "group": "control_change"}, {"time": 3522, "annotation": {"number": 64, "value": 127}, "group": "control_change"}, {"time": 3564, "annotation": {"number": 64, "value": 0}, "group": "control_change"}, {"time": 3569, "annotation": {"number": 64, "value": 127}, "group": "control_change"}, {"time": 3589, "annotation": {"number": 64, "value": 0}, "group": "control_change"}, {"time": 3593, "annotation": {"number": 64, "value": 127}, "group": "control_change"}, {"time": 3610, "annotation": {"number": 64, "value": 0}, "group": "control_change"}, {"time": 3618, "annotation": {"number": 64, "value": 127}, "group": "control_change"}, {"time": 3659, "annotation": {"number": 64, "value": 0}, "group": "control_change"}, {"time": 3665, "annotation": {"number": 64, "value": 127}, "group": "control_change"}, {"time": 3708, "annotation": {"number": 64, "value": 0}, "group": "control_change"}, {"time": 3784, "annotation": {"number": 64, "value": 127}, "group": "control_change"}, {"time": 3803, "annotation": {"number": 64, "value": 0}, "group": "control_change"}, {"time": 3814, "annotation": {"number": 64, "value": 127}, "group": "control_change"}, {"time": 3825, "annotation": {"number": 64, "value": 0}, "group": "control_change"}, {"time": 3905, "annotation": {"number": 64, "value": 127}, "group": "control_change"}, {"time": 3906, "annotation": {"number": 64, "value": 0}, "group": "control_change"}, {"time": 3906, "annotation": {"number": 64, "value": 127}, "group": "control_change"}, {"time": 3948, "annotation": {"number": 64, "value": 0}, "group": "control_change"}, {"time": 3976, "annotation": {"number": 64, "value": 127}, "group": "control_change"}, {"time": 3997, "annotation": {"number": 64, "value": 0}, "group": "control_change"}, {"time": 4004, "annotation": {"number": 64, "value": 127}, "group": "control_change"}, {"time": 4022, "annotation": {"number": 64, "value": 0}, "group": "control_change"}, {"time": 4028, "annotation": {"number": 64, "value": 127}, "group": "control_change"}, {"time": 4069, "annotation": {"number": 64, "value": 0}, "group": "control_change"}, {"time": 4073, "annotation": {"number": 64, "value": 127}, "group": "control_change"}]}]}