{"metadata": {"schema_version": "0.2", "title": "None", "source_filename": "513.mid", "source_format": "midi"}, "resolution": 12, "tempos": [{"time": 0, "qpm": 74.000074000074}, {"time": 348, "qpm": 74.10014634778904}, {"time": 360, "qpm": 74.4001488002976}, {"time": 372, "qpm": 74.90000848866762}, {"time": 396, "qpm": 74.000074000074}, {"time": 431, "qpm": 74.30009312278338}, {"time": 1152, "qpm": 74.000074000074}, {"time": 1407, "qpm": 74.30009312278338}, {"time": 1420, "qpm": 74.4001488002976}, {"time": 1608, "qpm": 74.20003091667955}], "time_signatures": [{"time": 0, "numerator": 1, "denominator": 4}], "tracks": [{"program": 4, "is_drum": false, "name": "MELODY", "notes": [{"time": 495, "pitch": 67, "duration": 5, "velocity": 60}, {"time": 501, "pitch": 65, "duration": 2, "velocity": 60}, {"time": 504, "pitch": 67, "duration": 7, "velocity": 67}, {"time": 513, "pitch": 67, "duration": 10, "velocity": 69}, {"time": 525, "pitch": 65, "duration": 3, "velocity": 72}, {"time": 531, "pitch": 67, "duration": 11, "velocity": 61}, {"time": 543, "pitch": 69, "duration": 3, "velocity": 65}, {"time": 549, "pitch": 69, "duration": 18, "velocity": 62}, {"time": 591, "pitch": 72, "duration": 4, "velocity": 65}, {"time": 597, "pitch": 70, "duration": 2, "velocity": 58}, {"time": 600, "pitch": 70, "duration": 7, "velocity": 59}, {"time": 609, "pitch": 69, "duration": 5, "velocity": 62}, {"time": 615, "pitch": 67, "duration": 5, "velocity": 60}, {"time": 621, "pitch": 65, "duration": 5, "velocity": 63}, {"time": 627, "pitch": 69, "duration": 12, "velocity": 56}, {"time": 639, "pitch": 70, "duration": 2, "velocity": 65}, {"time": 642, "pitch": 69, "duration": 9, "velocity": 62}, {"time": 651, "pitch": 67, "duration": 13, "velocity": 58}, {"time": 687, "pitch": 67, "duration": 4, "velocity": 61}, {"time": 693, "pitch": 65, "duration": 2, "velocity": 61}, {"time": 696, "pitch": 67, "duration": 7, "velocity": 63}, {"time": 705, "pitch": 67, "duration": 9, "velocity": 60}, {"time": 717, "pitch": 65, "duration": 4, "velocity": 62}, {"time": 723, "pitch": 67, "duration": 11, "velocity": 64}, {"time": 735, "pitch": 69, "duration": 2, "velocity": 59}, {"time": 741, "pitch": 69, "duration": 18, "velocity": 60}, {"time": 783, "pitch": 72, "duration": 4, "velocity": 62}, {"time": 789, "pitch": 70, "duration": 2, "velocity": 58}, {"time": 792, "pitch": 70, "duration": 7, "velocity": 62}, {"time": 801, "pitch": 69, "duration": 5, "velocity": 62}, {"time": 807, "pitch": 67, "duration": 2, "velocity": 59}, {"time": 810, "pitch": 65, "duration": 7, "velocity": 60}, {"time": 819, "pitch": 69, "duration": 9, "velocity": 60}, {"time": 831, "pitch": 70, "duration": 3, "velocity": 59}, {"time": 834, "pitch": 69, "duration": 6, "velocity": 61}, {"time": 843, "pitch": 67, "duration": 12, "velocity": 60}, {"time": 873, "pitch": 77, "duration": 2, "velocity": 59}, {"time": 876, "pitch": 77, "duration": 2, "velocity": 54}, {"time": 879, "pitch": 77, "duration": 5, "velocity": 65}, {"time": 885, "pitch": 76, "duration": 1, "velocity": 60}, {"time": 888, "pitch": 76, "duration": 8, "velocity": 67}, {"time": 897, "pitch": 74, "duration": 5, "velocity": 60}, {"time": 903, "pitch": 72, "duration": 2, "velocity": 60}, {"time": 906, "pitch": 69, "duration": 8, "velocity": 60}, {"time": 915, "pitch": 74, "duration": 4, "velocity": 64}, {"time": 921, "pitch": 72, "duration": 8, "velocity": 60}, {"time": 930, "pitch": 74, "duration": 2, "velocity": 59}, {"time": 933, "pitch": 72, "duration": 4, "velocity": 59}, {"time": 939, "pitch": 70, "duration": 15, "velocity": 58}, {"time": 969, "pitch": 77, "duration": 4, "velocity": 62}, {"time": 975, "pitch": 77, "duration": 4, "velocity": 63}, {"time": 981, "pitch": 77, "duration": 2, "velocity": 62}, {"time": 984, "pitch": 76, "duration": 7, "velocity": 64}, {"time": 993, "pitch": 74, "duration": 4, "velocity": 65}, {"time": 999, "pitch": 72, "duration": 2, "velocity": 63}, {"time": 1002, "pitch": 69, "duration": 7, "velocity": 60}, {"time": 1011, "pitch": 74, "duration": 28, "velocity": 62}, {"time": 1053, "pitch": 77, "duration": 2, "velocity": 65}, {"time": 1056, "pitch": 79, "duration": 2, "velocity": 62}, {"time": 1059, "pitch": 81, "duration": 21, "velocity": 63}, {"time": 1083, "pitch": 81, "duration": 5, "velocity": 61}, {"time": 1089, "pitch": 82, "duration": 5, "velocity": 62}, {"time": 1095, "pitch": 81, "duration": 2, "velocity": 59}, {"time": 1098, "pitch": 79, "duration": 2, "velocity": 55}, {"time": 1101, "pitch": 77, "duration": 5, "velocity": 63}, {"time": 1107, "pitch": 79, "duration": 19, "velocity": 64}, {"time": 1161, "pitch": 79, "duration": 4, "velocity": 62}, {"time": 1167, "pitch": 79, "duration": 4, "velocity": 64}, {"time": 1173, "pitch": 77, "duration": 2, "velocity": 60}, {"time": 1176, "pitch": 74, "duration": 12, "velocity": 69}, {"time": 1188, "pitch": 72, "duration": 2, "velocity": 62}, {"time": 1191, "pitch": 74, "duration": 2, "velocity": 62}, {"time": 1194, "pitch": 77, "duration": 7, "velocity": 67}, {"time": 1203, "pitch": 77, "duration": 5, "velocity": 60}, {"time": 1209, "pitch": 74, "duration": 2, "velocity": 69}, {"time": 1212, "pitch": 79, "duration": 7, "velocity": 62}, {"time": 1221, "pitch": 74, "duration": 5, "velocity": 74}, {"time": 1227, "pitch": 72, "duration": 9, "velocity": 61}, {"time": 1239, "pitch": 77, "duration": 1, "velocity": 60}, {"time": 1242, "pitch": 79, "duration": 8, "velocity": 65}, {"time": 1251, "pitch": 81, "duration": 21, "velocity": 63}, {"time": 1275, "pitch": 81, "duration": 5, "velocity": 61}, {"time": 1281, "pitch": 82, "duration": 5, "velocity": 62}, {"time": 1287, "pitch": 81, "duration": 2, "velocity": 59}, {"time": 1290, "pitch": 79, "duration": 2, "velocity": 55}, {"time": 1293, "pitch": 77, "duration": 5, "velocity": 63}, {"time": 1299, "pitch": 79, "duration": 19, "velocity": 64}, {"time": 1353, "pitch": 79, "duration": 4, "velocity": 62}, {"time": 1359, "pitch": 79, "duration": 4, "velocity": 64}, {"time": 1365, "pitch": 77, "duration": 2, "velocity": 60}, {"time": 1368, "pitch": 74, "duration": 12, "velocity": 69}, {"time": 1380, "pitch": 72, "duration": 2, "velocity": 62}, {"time": 1383, "pitch": 74, "duration": 2, "velocity": 62}, {"time": 1386, "pitch": 77, "duration": 7, "velocity": 67}, {"time": 1395, "pitch": 79, "duration": 4, "velocity": 62}, {"time": 1401, "pitch": 81, "duration": 4, "velocity": 63}, {"time": 1407, "pitch": 79, "duration": 5, "velocity": 64}, {"time": 1413, "pitch": 77, "duration": 30, "velocity": 62}, {"time": 1599, "pitch": 67, "duration": 5, "velocity": 60}, {"time": 1605, "pitch": 65, "duration": 2, "velocity": 60}, {"time": 1608, "pitch": 67, "duration": 7, "velocity": 67}, {"time": 1617, "pitch": 67, "duration": 10, "velocity": 69}, {"time": 1629, "pitch": 65, "duration": 3, "velocity": 72}, {"time": 1635, "pitch": 67, "duration": 11, "velocity": 61}, {"time": 1647, "pitch": 69, "duration": 3, "velocity": 65}, {"time": 1653, "pitch": 69, "duration": 18, "velocity": 62}, {"time": 1695, "pitch": 72, "duration": 4, "velocity": 65}, {"time": 1701, "pitch": 70, "duration": 2, "velocity": 58}, {"time": 1704, "pitch": 70, "duration": 7, "velocity": 59}, {"time": 1713, "pitch": 69, "duration": 5, "velocity": 62}, {"time": 1719, "pitch": 67, "duration": 5, "velocity": 60}, {"time": 1725, "pitch": 65, "duration": 5, "velocity": 63}, {"time": 1731, "pitch": 69, "duration": 12, "velocity": 56}, {"time": 1743, "pitch": 70, "duration": 2, "velocity": 65}, {"time": 1746, "pitch": 69, "duration": 9, "velocity": 62}, {"time": 1755, "pitch": 67, "duration": 13, "velocity": 58}, {"time": 1791, "pitch": 67, "duration": 4, "velocity": 61}, {"time": 1797, "pitch": 65, "duration": 2, "velocity": 61}, {"time": 1800, "pitch": 67, "duration": 7, "velocity": 63}, {"time": 1809, "pitch": 67, "duration": 9, "velocity": 60}, {"time": 1821, "pitch": 65, "duration": 4, "velocity": 62}, {"time": 1827, "pitch": 67, "duration": 11, "velocity": 64}, {"time": 1839, "pitch": 69, "duration": 2, "velocity": 59}, {"time": 1845, "pitch": 69, "duration": 18, "velocity": 60}, {"time": 1887, "pitch": 72, "duration": 4, "velocity": 62}, {"time": 1893, "pitch": 70, "duration": 2, "velocity": 58}, {"time": 1896, "pitch": 70, "duration": 7, "velocity": 62}, {"time": 1905, "pitch": 69, "duration": 5, "velocity": 62}, {"time": 1911, "pitch": 67, "duration": 2, "velocity": 59}, {"time": 1914, "pitch": 65, "duration": 7, "velocity": 60}, {"time": 1923, "pitch": 69, "duration": 9, "velocity": 60}, {"time": 1935, "pitch": 70, "duration": 3, "velocity": 59}, {"time": 1938, "pitch": 69, "duration": 6, "velocity": 61}, {"time": 1947, "pitch": 67, "duration": 12, "velocity": 60}, {"time": 1977, "pitch": 77, "duration": 2, "velocity": 59}, {"time": 1980, "pitch": 77, "duration": 2, "velocity": 54}, {"time": 1983, "pitch": 77, "duration": 5, "velocity": 65}, {"time": 1989, "pitch": 76, "duration": 1, "velocity": 60}, {"time": 1992, "pitch": 76, "duration": 8, "velocity": 67}, {"time": 2001, "pitch": 74, "duration": 5, "velocity": 60}, {"time": 2007, "pitch": 72, "duration": 2, "velocity": 60}, {"time": 2010, "pitch": 69, "duration": 8, "velocity": 60}, {"time": 2019, "pitch": 74, "duration": 4, "velocity": 64}, {"time": 2025, "pitch": 72, "duration": 8, "velocity": 60}, {"time": 2034, "pitch": 74, "duration": 2, "velocity": 59}, {"time": 2037, "pitch": 72, "duration": 4, "velocity": 59}, {"time": 2043, "pitch": 70, "duration": 15, "velocity": 58}, {"time": 2073, "pitch": 77, "duration": 4, "velocity": 62}, {"time": 2079, "pitch": 77, "duration": 4, "velocity": 63}, {"time": 2085, "pitch": 77, "duration": 2, "velocity": 62}, {"time": 2088, "pitch": 76, "duration": 7, "velocity": 64}, {"time": 2097, "pitch": 74, "duration": 4, "velocity": 65}, {"time": 2103, "pitch": 72, "duration": 2, "velocity": 63}, {"time": 2106, "pitch": 69, "duration": 7, "velocity": 60}, {"time": 2115, "pitch": 74, "duration": 28, "velocity": 62}, {"time": 2157, "pitch": 77, "duration": 2, "velocity": 65}, {"time": 2160, "pitch": 79, "duration": 2, "velocity": 62}, {"time": 2163, "pitch": 81, "duration": 21, "velocity": 63}, {"time": 2187, "pitch": 81, "duration": 5, "velocity": 61}, {"time": 2193, "pitch": 82, "duration": 5, "velocity": 62}, {"time": 2199, "pitch": 81, "duration": 2, "velocity": 59}, {"time": 2202, "pitch": 79, "duration": 2, "velocity": 55}, {"time": 2205, "pitch": 77, "duration": 5, "velocity": 63}, {"time": 2211, "pitch": 79, "duration": 19, "velocity": 64}, {"time": 2265, "pitch": 79, "duration": 4, "velocity": 62}, {"time": 2271, "pitch": 79, "duration": 4, "velocity": 64}, {"time": 2277, "pitch": 77, "duration": 2, "velocity": 60}, {"time": 2280, "pitch": 74, "duration": 12, "velocity": 69}, {"time": 2292, "pitch": 72, "duration": 2, "velocity": 62}, {"time": 2295, "pitch": 74, "duration": 2, "velocity": 62}, {"time": 2298, "pitch": 77, "duration": 7, "velocity": 67}, {"time": 2307, "pitch": 77, "duration": 5, "velocity": 60}, {"time": 2313, "pitch": 74, "duration": 2, "velocity": 69}, {"time": 2316, "pitch": 79, "duration": 7, "velocity": 62}, {"time": 2325, "pitch": 74, "duration": 5, "velocity": 74}, {"time": 2331, "pitch": 72, "duration": 9, "velocity": 61}, {"time": 2343, "pitch": 77, "duration": 1, "velocity": 60}, {"time": 2346, "pitch": 79, "duration": 8, "velocity": 65}, {"time": 2355, "pitch": 81, "duration": 21, "velocity": 63}, {"time": 2379, "pitch": 81, "duration": 5, "velocity": 61}, {"time": 2385, "pitch": 82, "duration": 5, "velocity": 62}, {"time": 2391, "pitch": 81, "duration": 2, "velocity": 59}, {"time": 2394, "pitch": 79, "duration": 2, "velocity": 55}, {"time": 2397, "pitch": 77, "duration": 5, "velocity": 63}, {"time": 2403, "pitch": 79, "duration": 19, "velocity": 64}, {"time": 2457, "pitch": 79, "duration": 4, "velocity": 62}, {"time": 2463, "pitch": 79, "duration": 4, "velocity": 64}, {"time": 2469, "pitch": 77, "duration": 2, "velocity": 60}, {"time": 2472, "pitch": 74, "duration": 12, "velocity": 69}, {"time": 2484, "pitch": 72, "duration": 2, "velocity": 62}, {"time": 2487, "pitch": 74, "duration": 2, "velocity": 62}, {"time": 2490, "pitch": 77, "duration": 7, "velocity": 67}, {"time": 2499, "pitch": 79, "duration": 4, "velocity": 62}, {"time": 2505, "pitch": 81, "duration": 4, "velocity": 63}, {"time": 2511, "pitch": 79, "duration": 5, "velocity": 64}, {"time": 2517, "pitch": 77, "duration": 30, "velocity": 62}, {"time": 2877, "pitch": 77, "duration": 2, "velocity": 65}, {"time": 2880, "pitch": 79, "duration": 2, "velocity": 62}, {"time": 2883, "pitch": 81, "duration": 21, "velocity": 63}, {"time": 2907, "pitch": 81, "duration": 5, "velocity": 61}, {"time": 2913, "pitch": 82, "duration": 5, "velocity": 62}, {"time": 2919, "pitch": 81, "duration": 2, "velocity": 59}, {"time": 2922, "pitch": 79, "duration": 2, "velocity": 55}, {"time": 2925, "pitch": 77, "duration": 5, "velocity": 63}, {"time": 2931, "pitch": 79, "duration": 19, "velocity": 64}, {"time": 2985, "pitch": 79, "duration": 4, "velocity": 62}, {"time": 2991, "pitch": 79, "duration": 4, "velocity": 64}, {"time": 2997, "pitch": 77, "duration": 2, "velocity": 60}, {"time": 3000, "pitch": 74, "duration": 12, "velocity": 69}, {"time": 3012, "pitch": 72, "duration": 2, "velocity": 62}, {"time": 3015, "pitch": 74, "duration": 2, "velocity": 62}, {"time": 3018, "pitch": 77, "duration": 7, "velocity": 67}, {"time": 3027, "pitch": 77, "duration": 5, "velocity": 60}, {"time": 3033, "pitch": 74, "duration": 2, "velocity": 69}, {"time": 3036, "pitch": 79, "duration": 7, "velocity": 62}, {"time": 3045, "pitch": 74, "duration": 5, "velocity": 74}, {"time": 3051, "pitch": 72, "duration": 9, "velocity": 61}, {"time": 3063, "pitch": 77, "duration": 1, "velocity": 60}, {"time": 3066, "pitch": 79, "duration": 8, "velocity": 65}, {"time": 3075, "pitch": 81, "duration": 21, "velocity": 63}, {"time": 3099, "pitch": 81, "duration": 5, "velocity": 61}, {"time": 3105, "pitch": 82, "duration": 5, "velocity": 62}, {"time": 3111, "pitch": 81, "duration": 2, "velocity": 59}, {"time": 3114, "pitch": 79, "duration": 2, "velocity": 55}, {"time": 3117, "pitch": 77, "duration": 5, "velocity": 63}, {"time": 3123, "pitch": 79, "duration": 19, "velocity": 64}, {"time": 3177, "pitch": 79, "duration": 4, "velocity": 62}, {"time": 3183, "pitch": 79, "duration": 4, "velocity": 64}, {"time": 3189, "pitch": 77, "duration": 2, "velocity": 60}, {"time": 3192, "pitch": 74, "duration": 12, "velocity": 69}, {"time": 3204, "pitch": 72, "duration": 2, "velocity": 62}, {"time": 3207, "pitch": 74, "duration": 2, "velocity": 62}, {"time": 3210, "pitch": 77, "duration": 7, "velocity": 67}, {"time": 3219, "pitch": 79, "duration": 4, "velocity": 62}, {"time": 3225, "pitch": 81, "duration": 4, "velocity": 63}, {"time": 3231, "pitch": 79, "duration": 5, "velocity": 64}, {"time": 3237, "pitch": 77, "duration": 18, "velocity": 62}, {"time": 3255, "pitch": 77, "duration": 2, "velocity": 65}, {"time": 3258, "pitch": 79, "duration": 6, "velocity": 62}, {"time": 3267, "pitch": 81, "duration": 21, "velocity": 63}, {"time": 3291, "pitch": 81, "duration": 5, "velocity": 61}, {"time": 3297, "pitch": 82, "duration": 5, "velocity": 62}, {"time": 3303, "pitch": 81, "duration": 2, "velocity": 59}, {"time": 3306, "pitch": 79, "duration": 2, "velocity": 55}, {"time": 3309, "pitch": 77, "duration": 5, "velocity": 63}, {"time": 3315, "pitch": 79, "duration": 19, "velocity": 64}, {"time": 3369, "pitch": 79, "duration": 4, "velocity": 62}, {"time": 3375, "pitch": 79, "duration": 4, "velocity": 64}, {"time": 3381, "pitch": 77, "duration": 2, "velocity": 60}, {"time": 3384, "pitch": 74, "duration": 12, "velocity": 69}, {"time": 3396, "pitch": 72, "duration": 2, "velocity": 62}, {"time": 3399, "pitch": 74, "duration": 2, "velocity": 62}, {"time": 3402, "pitch": 77, "duration": 7, "velocity": 67}, {"time": 3411, "pitch": 77, "duration": 5, "velocity": 60}, {"time": 3417, "pitch": 74, "duration": 2, "velocity": 69}, {"time": 3420, "pitch": 79, "duration": 7, "velocity": 62}, {"time": 3429, "pitch": 74, "duration": 5, "velocity": 74}, {"time": 3435, "pitch": 72, "duration": 9, "velocity": 61}, {"time": 3447, "pitch": 77, "duration": 1, "velocity": 60}, {"time": 3450, "pitch": 79, "duration": 8, "velocity": 65}, {"time": 3459, "pitch": 81, "duration": 21, "velocity": 63}, {"time": 3483, "pitch": 81, "duration": 5, "velocity": 61}, {"time": 3489, "pitch": 82, "duration": 5, "velocity": 62}, {"time": 3495, "pitch": 81, "duration": 2, "velocity": 59}, {"time": 3498, "pitch": 79, "duration": 2, "velocity": 55}, {"time": 3501, "pitch": 77, "duration": 5, "velocity": 63}, {"time": 3507, "pitch": 79, "duration": 19, "velocity": 64}, {"time": 3561, "pitch": 79, "duration": 4, "velocity": 62}, {"time": 3567, "pitch": 79, "duration": 4, "velocity": 64}, {"time": 3573, "pitch": 77, "duration": 2, "velocity": 60}, {"time": 3576, "pitch": 74, "duration": 12, "velocity": 69}, {"time": 3588, "pitch": 72, "duration": 2, "velocity": 62}, {"time": 3591, "pitch": 74, "duration": 2, "velocity": 62}, {"time": 3594, "pitch": 77, "duration": 7, "velocity": 67}, {"time": 3603, "pitch": 79, "duration": 4, "velocity": 62}, {"time": 3609, "pitch": 81, "duration": 4, "velocity": 63}, {"time": 3615, "pitch": 79, "duration": 5, "velocity": 64}, {"time": 3621, "pitch": 77, "duration": 30, "velocity": 62}]}, {"program": 0, "is_drum": false, "name": "PIANO", "notes": [{"time": 2, "pitch": 57, "duration": 41, "velocity": 36}, {"time": 2, "pitch": 38, "duration": 37, "velocity": 58}, {"time": 2, "pitch": 62, "duration": 41, "velocity": 45}, {"time": 3, "pitch": 65, "duration": 40, "velocity": 39}, {"time": 50, "pitch": 55, "duration": 43, "velocity": 40}, {"time": 50, "pitch": 60, "duration": 36, "velocity": 43}, {"time": 51, "pitch": 48, "duration": 44, "velocity": 52}, {"time": 51, "pitch": 64, "duration": 39, "velocity": 35}, {"time": 97, "pitch": 58, "duration": 40, "velocity": 44}, {"time": 98, "pitch": 46, "duration": 40, "velocity": 49}, {"time": 99, "pitch": 62, "duration": 38, "velocity": 41}, {"time": 99, "pitch": 65, "duration": 37, "velocity": 46}, {"time": 146, "pitch": 46, "duration": 39, "velocity": 54}, {"time": 147, "pitch": 53, "duration": 35, "velocity": 32}, {"time": 147, "pitch": 58, "duration": 36, "velocity": 43}, {"time": 147, "pitch": 62, "duration": 37, "velocity": 52}, {"time": 195, "pitch": 38, "duration": 9, "velocity": 60}, {"time": 195, "pitch": 57, "duration": 6, "velocity": 55}, {"time": 195, "pitch": 65, "duration": 6, "velocity": 53}, {"time": 207, "pitch": 57, "duration": 2, "velocity": 52}, {"time": 207, "pitch": 62, "duration": 1, "velocity": 53}, {"time": 216, "pitch": 57, "duration": 2, "velocity": 47}, {"time": 216, "pitch": 65, "duration": 3, "velocity": 53}, {"time": 228, "pitch": 50, "duration": 2, "velocity": 49}, {"time": 231, "pitch": 53, "duration": 2, "velocity": 53}, {"time": 234, "pitch": 57, "duration": 4, "velocity": 62}, {"time": 237, "pitch": 62, "duration": 1, "velocity": 53}, {"time": 243, "pitch": 48, "duration": 13, "velocity": 59}, {"time": 243, "pitch": 55, "duration": 7, "velocity": 53}, {"time": 243, "pitch": 60, "duration": 6, "velocity": 52}, {"time": 255, "pitch": 55, "duration": 2, "velocity": 48}, {"time": 255, "pitch": 60, "duration": 2, "velocity": 51}, {"time": 255, "pitch": 64, "duration": 2, "velocity": 54}, {"time": 264, "pitch": 55, "duration": 2, "velocity": 48}, {"time": 264, "pitch": 60, "duration": 1, "velocity": 44}, {"time": 264, "pitch": 67, "duration": 2, "velocity": 46}, {"time": 273, "pitch": 55, "duration": 4, "velocity": 42}, {"time": 273, "pitch": 60, "duration": 4, "velocity": 48}, {"time": 273, "pitch": 64, "duration": 3, "velocity": 45}, {"time": 282, "pitch": 52, "duration": 1, "velocity": 45}, {"time": 285, "pitch": 55, "duration": 4, "velocity": 56}, {"time": 288, "pitch": 60, "duration": 1, "velocity": 55}, {"time": 291, "pitch": 46, "duration": 44, "velocity": 51}, {"time": 291, "pitch": 53, "duration": 6, "velocity": 54}, {"time": 291, "pitch": 58, "duration": 7, "velocity": 58}, {"time": 303, "pitch": 53, "duration": 2, "velocity": 46}, {"time": 303, "pitch": 58, "duration": 1, "velocity": 41}, {"time": 303, "pitch": 62, "duration": 2, "velocity": 57}, {"time": 315, "pitch": 53, "duration": 2, "velocity": 57}, {"time": 315, "pitch": 58, "duration": 1, "velocity": 58}, {"time": 315, "pitch": 65, "duration": 2, "velocity": 56}, {"time": 324, "pitch": 53, "duration": 2, "velocity": 44}, {"time": 324, "pitch": 62, "duration": 2, "velocity": 49}, {"time": 330, "pitch": 53, "duration": 1, "velocity": 45}, {"time": 330, "pitch": 58, "duration": 3, "velocity": 51}, {"time": 339, "pitch": 46, "duration": 41, "velocity": 51}, {"time": 339, "pitch": 53, "duration": 5, "velocity": 46}, {"time": 339, "pitch": 58, "duration": 6, "velocity": 44}, {"time": 351, "pitch": 53, "duration": 2, "velocity": 44}, {"time": 351, "pitch": 62, "duration": 2, "velocity": 47}, {"time": 360, "pitch": 53, "duration": 1, "velocity": 37}, {"time": 360, "pitch": 58, "duration": 1, "velocity": 40}, {"time": 372, "pitch": 65, "duration": 4, "velocity": 54}, {"time": 375, "pitch": 62, "duration": 3, "velocity": 58}, {"time": 378, "pitch": 53, "duration": 2, "velocity": 63}, {"time": 381, "pitch": 58, "duration": 1, "velocity": 43}, {"time": 387, "pitch": 41, "duration": 23, "velocity": 85}, {"time": 393, "pitch": 48, "duration": 16, "velocity": 73}, {"time": 396, "pitch": 60, "duration": 7, "velocity": 80}, {"time": 402, "pitch": 53, "duration": 7, "velocity": 77}, {"time": 408, "pitch": 60, "duration": 8, "velocity": 82}, {"time": 411, "pitch": 41, "duration": 9, "velocity": 84}, {"time": 414, "pitch": 48, "duration": 6, "velocity": 79}, {"time": 417, "pitch": 53, "duration": 4, "velocity": 79}, {"time": 420, "pitch": 60, "duration": 9, "velocity": 84}, {"time": 423, "pitch": 36, "duration": 7, "velocity": 84}, {"time": 429, "pitch": 53, "duration": 9, "velocity": 82}, {"time": 432, "pitch": 60, "duration": 8, "velocity": 80}, {"time": 435, "pitch": 41, "duration": 22, "velocity": 84}, {"time": 441, "pitch": 48, "duration": 16, "velocity": 75}, {"time": 444, "pitch": 53, "duration": 5, "velocity": 82}, {"time": 444, "pitch": 60, "duration": 10, "velocity": 80}, {"time": 453, "pitch": 53, "duration": 8, "velocity": 84}, {"time": 456, "pitch": 60, "duration": 9, "velocity": 80}, {"time": 459, "pitch": 41, "duration": 7, "velocity": 85}, {"time": 462, "pitch": 48, "duration": 4, "velocity": 73}, {"time": 465, "pitch": 53, "duration": 5, "velocity": 84}, {"time": 468, "pitch": 60, "duration": 10, "velocity": 77}, {"time": 471, "pitch": 36, "duration": 12, "velocity": 84}, {"time": 477, "pitch": 53, "duration": 4, "velocity": 85}, {"time": 480, "pitch": 60, "duration": 2, "velocity": 78}, {"time": 483, "pitch": 41, "duration": 21, "velocity": 79}, {"time": 489, "pitch": 48, "duration": 15, "velocity": 71}, {"time": 492, "pitch": 53, "duration": 6, "velocity": 78}, {"time": 492, "pitch": 60, "duration": 10, "velocity": 74}, {"time": 501, "pitch": 53, "duration": 5, "velocity": 78}, {"time": 504, "pitch": 60, "duration": 9, "velocity": 75}, {"time": 507, "pitch": 41, "duration": 11, "velocity": 78}, {"time": 510, "pitch": 48, "duration": 8, "velocity": 70}, {"time": 513, "pitch": 53, "duration": 6, "velocity": 79}, {"time": 516, "pitch": 60, "duration": 10, "velocity": 79}, {"time": 519, "pitch": 36, "duration": 10, "velocity": 80}, {"time": 525, "pitch": 53, "duration": 5, "velocity": 78}, {"time": 528, "pitch": 60, "duration": 6, "velocity": 74}, {"time": 531, "pitch": 38, "duration": 22, "velocity": 78}, {"time": 537, "pitch": 45, "duration": 16, "velocity": 66}, {"time": 540, "pitch": 53, "duration": 8, "velocity": 70}, {"time": 546, "pitch": 60, "duration": 11, "velocity": 74}, {"time": 552, "pitch": 53, "duration": 4, "velocity": 69}, {"time": 555, "pitch": 38, "duration": 18, "velocity": 80}, {"time": 558, "pitch": 45, "duration": 15, "velocity": 67}, {"time": 561, "pitch": 53, "duration": 2, "velocity": 72}, {"time": 564, "pitch": 53, "duration": 4, "velocity": 77}, {"time": 564, "pitch": 62, "duration": 13, "velocity": 79}, {"time": 573, "pitch": 53, "duration": 5, "velocity": 75}, {"time": 576, "pitch": 57, "duration": 3, "velocity": 65}, {"time": 579, "pitch": 46, "duration": 22, "velocity": 79}, {"time": 585, "pitch": 53, "duration": 2, "velocity": 72}, {"time": 588, "pitch": 58, "duration": 10, "velocity": 72}, {"time": 597, "pitch": 53, "duration": 6, "velocity": 66}, {"time": 600, "pitch": 62, "duration": 5, "velocity": 74}, {"time": 603, "pitch": 46, "duration": 18, "velocity": 85}, {"time": 606, "pitch": 53, "duration": 3, "velocity": 71}, {"time": 609, "pitch": 58, "duration": 2, "velocity": 59}, {"time": 612, "pitch": 53, "duration": 6, "velocity": 83}, {"time": 621, "pitch": 53, "duration": 1, "velocity": 70}, {"time": 621, "pitch": 58, "duration": 4, "velocity": 73}, {"time": 624, "pitch": 53, "duration": 2, "velocity": 76}, {"time": 627, "pitch": 38, "duration": 21, "velocity": 82}, {"time": 633, "pitch": 45, "duration": 15, "velocity": 70}, {"time": 636, "pitch": 50, "duration": 6, "velocity": 83}, {"time": 642, "pitch": 62, "duration": 10, "velocity": 77}, {"time": 645, "pitch": 50, "duration": 5, "velocity": 73}, {"time": 648, "pitch": 53, "duration": 3, "velocity": 71}, {"time": 651, "pitch": 36, "duration": 25, "velocity": 78}, {"time": 654, "pitch": 43, "duration": 21, "velocity": 66}, {"time": 657, "pitch": 55, "duration": 5, "velocity": 78}, {"time": 660, "pitch": 64, "duration": 7, "velocity": 80}, {"time": 666, "pitch": 60, "duration": 4, "velocity": 73}, {"time": 669, "pitch": 55, "duration": 5, "velocity": 73}, {"time": 672, "pitch": 60, "duration": 2, "velocity": 71}, {"time": 675, "pitch": 41, "duration": 21, "velocity": 79}, {"time": 681, "pitch": 48, "duration": 15, "velocity": 71}, {"time": 684, "pitch": 53, "duration": 6, "velocity": 78}, {"time": 684, "pitch": 60, "duration": 10, "velocity": 74}, {"time": 693, "pitch": 53, "duration": 5, "velocity": 78}, {"time": 696, "pitch": 60, "duration": 9, "velocity": 75}, {"time": 699, "pitch": 41, "duration": 11, "velocity": 78}, {"time": 702, "pitch": 48, "duration": 8, "velocity": 70}, {"time": 705, "pitch": 53, "duration": 6, "velocity": 79}, {"time": 708, "pitch": 60, "duration": 10, "velocity": 79}, {"time": 711, "pitch": 36, "duration": 10, "velocity": 80}, {"time": 717, "pitch": 53, "duration": 5, "velocity": 78}, {"time": 720, "pitch": 60, "duration": 6, "velocity": 74}, {"time": 723, "pitch": 38, "duration": 22, "velocity": 78}, {"time": 729, "pitch": 45, "duration": 16, "velocity": 66}, {"time": 732, "pitch": 53, "duration": 8, "velocity": 70}, {"time": 738, "pitch": 60, "duration": 11, "velocity": 74}, {"time": 744, "pitch": 53, "duration": 4, "velocity": 69}, {"time": 747, "pitch": 38, "duration": 18, "velocity": 80}, {"time": 750, "pitch": 45, "duration": 15, "velocity": 67}, {"time": 753, "pitch": 53, "duration": 2, "velocity": 72}, {"time": 756, "pitch": 53, "duration": 4, "velocity": 77}, {"time": 756, "pitch": 62, "duration": 13, "velocity": 79}, {"time": 765, "pitch": 53, "duration": 5, "velocity": 75}, {"time": 768, "pitch": 57, "duration": 3, "velocity": 65}, {"time": 771, "pitch": 46, "duration": 22, "velocity": 79}, {"time": 777, "pitch": 53, "duration": 2, "velocity": 72}, {"time": 780, "pitch": 58, "duration": 10, "velocity": 72}, {"time": 789, "pitch": 53, "duration": 6, "velocity": 66}, {"time": 792, "pitch": 62, "duration": 5, "velocity": 74}, {"time": 795, "pitch": 46, "duration": 18, "velocity": 85}, {"time": 798, "pitch": 53, "duration": 3, "velocity": 71}, {"time": 801, "pitch": 58, "duration": 2, "velocity": 59}, {"time": 804, "pitch": 53, "duration": 6, "velocity": 83}, {"time": 813, "pitch": 53, "duration": 1, "velocity": 70}, {"time": 813, "pitch": 58, "duration": 4, "velocity": 73}, {"time": 816, "pitch": 53, "duration": 2, "velocity": 76}, {"time": 819, "pitch": 38, "duration": 21, "velocity": 82}, {"time": 825, "pitch": 45, "duration": 15, "velocity": 70}, {"time": 828, "pitch": 50, "duration": 6, "velocity": 83}, {"time": 834, "pitch": 62, "duration": 10, "velocity": 77}, {"time": 837, "pitch": 50, "duration": 5, "velocity": 73}, {"time": 840, "pitch": 53, "duration": 3, "velocity": 71}, {"time": 843, "pitch": 36, "duration": 25, "velocity": 78}, {"time": 846, "pitch": 43, "duration": 21, "velocity": 66}, {"time": 849, "pitch": 55, "duration": 5, "velocity": 78}, {"time": 852, "pitch": 64, "duration": 7, "velocity": 80}, {"time": 858, "pitch": 60, "duration": 4, "velocity": 73}, {"time": 861, "pitch": 55, "duration": 5, "velocity": 73}, {"time": 864, "pitch": 60, "duration": 2, "velocity": 71}, {"time": 867, "pitch": 38, "duration": 22, "velocity": 80}, {"time": 867, "pitch": 57, "duration": 4, "velocity": 71}, {"time": 867, "pitch": 62, "duration": 5, "velocity": 74}, {"time": 870, "pitch": 45, "duration": 18, "velocity": 62}, {"time": 873, "pitch": 57, "duration": 4, "velocity": 79}, {"time": 876, "pitch": 65, "duration": 9, "velocity": 78}, {"time": 885, "pitch": 62, "duration": 8, "velocity": 81}, {"time": 888, "pitch": 57, "duration": 6, "velocity": 74}, {"time": 891, "pitch": 38, "duration": 15, "velocity": 81}, {"time": 894, "pitch": 45, "duration": 11, "velocity": 67}, {"time": 897, "pitch": 57, "duration": 4, "velocity": 80}, {"time": 900, "pitch": 65, "duration": 7, "velocity": 78}, {"time": 906, "pitch": 62, "duration": 3, "velocity": 76}, {"time": 909, "pitch": 57, "duration": 6, "velocity": 79}, {"time": 915, "pitch": 46, "duration": 19, "velocity": 78}, {"time": 915, "pitch": 62, "duration": 6, "velocity": 74}, {"time": 921, "pitch": 53, "duration": 4, "velocity": 70}, {"time": 924, "pitch": 58, "duration": 6, "velocity": 81}, {"time": 930, "pitch": 62, "duration": 7, "velocity": 79}, {"time": 933, "pitch": 53, "duration": 5, "velocity": 72}, {"time": 936, "pitch": 58, "duration": 6, "velocity": 80}, {"time": 939, "pitch": 46, "duration": 15, "velocity": 83}, {"time": 942, "pitch": 53, "duration": 5, "velocity": 73}, {"time": 945, "pitch": 58, "duration": 2, "velocity": 67}, {"time": 948, "pitch": 62, "duration": 6, "velocity": 79}, {"time": 954, "pitch": 58, "duration": 3, "velocity": 77}, {"time": 957, "pitch": 53, "duration": 1, "velocity": 78}, {"time": 963, "pitch": 38, "duration": 22, "velocity": 80}, {"time": 963, "pitch": 57, "duration": 3, "velocity": 64}, {"time": 963, "pitch": 62, "duration": 7, "velocity": 72}, {"time": 966, "pitch": 45, "duration": 19, "velocity": 65}, {"time": 969, "pitch": 57, "duration": 2, "velocity": 78}, {"time": 972, "pitch": 65, "duration": 6, "velocity": 78}, {"time": 978, "pitch": 62, "duration": 4, "velocity": 72}, {"time": 981, "pitch": 57, "duration": 4, "velocity": 74}, {"time": 987, "pitch": 38, "duration": 19, "velocity": 80}, {"time": 987, "pitch": 57, "duration": 3, "velocity": 76}, {"time": 987, "pitch": 62, "duration": 7, "velocity": 74}, {"time": 990, "pitch": 45, "duration": 17, "velocity": 69}, {"time": 993, "pitch": 57, "duration": 2, "velocity": 78}, {"time": 996, "pitch": 57, "duration": 4, "velocity": 76}, {"time": 996, "pitch": 65, "duration": 6, "velocity": 74}, {"time": 1002, "pitch": 62, "duration": 4, "velocity": 72}, {"time": 1005, "pitch": 57, "duration": 3, "velocity": 79}, {"time": 1008, "pitch": 62, "duration": 3, "velocity": 73}, {"time": 1011, "pitch": 46, "duration": 21, "velocity": 79}, {"time": 1014, "pitch": 53, "duration": 3, "velocity": 79}, {"time": 1017, "pitch": 58, "duration": 3, "velocity": 70}, {"time": 1020, "pitch": 53, "duration": 5, "velocity": 78}, {"time": 1026, "pitch": 62, "duration": 3, "velocity": 78}, {"time": 1029, "pitch": 53, "duration": 4, "velocity": 78}, {"time": 1035, "pitch": 46, "duration": 17, "velocity": 80}, {"time": 1035, "pitch": 53, "duration": 10, "velocity": 73}, {"time": 1035, "pitch": 58, "duration": 11, "velocity": 73}, {"time": 1059, "pitch": 41, "duration": 22, "velocity": 60}, {"time": 1059, "pitch": 53, "duration": 10, "velocity": 59}, {"time": 1059, "pitch": 57, "duration": 6, "velocity": 60}, {"time": 1065, "pitch": 48, "duration": 8, "velocity": 48}, {"time": 1071, "pitch": 57, "duration": 4, "velocity": 64}, {"time": 1071, "pitch": 60, "duration": 5, "velocity": 61}, {"time": 1071, "pitch": 65, "duration": 4, "velocity": 59}, {"time": 1077, "pitch": 48, "duration": 2, "velocity": 46}, {"time": 1080, "pitch": 53, "duration": 4, "velocity": 60}, {"time": 1080, "pitch": 57, "duration": 6, "velocity": 61}, {"time": 1080, "pitch": 60, "duration": 6, "velocity": 61}, {"time": 1080, "pitch": 65, "duration": 7, "velocity": 60}, {"time": 1086, "pitch": 41, "duration": 13, "velocity": 57}, {"time": 1089, "pitch": 48, "duration": 7, "velocity": 59}, {"time": 1092, "pitch": 53, "duration": 2, "velocity": 56}, {"time": 1095, "pitch": 53, "duration": 3, "velocity": 60}, {"time": 1095, "pitch": 57, "duration": 3, "velocity": 74}, {"time": 1095, "pitch": 60, "duration": 3, "velocity": 65}, {"time": 1098, "pitch": 48, "duration": 2, "velocity": 57}, {"time": 1101, "pitch": 41, "duration": 2, "velocity": 59}, {"time": 1107, "pitch": 48, "duration": 14, "velocity": 74}, {"time": 1107, "pitch": 55, "duration": 3, "velocity": 59}, {"time": 1107, "pitch": 60, "duration": 5, "velocity": 58}, {"time": 1113, "pitch": 55, "duration": 1, "velocity": 45}, {"time": 1119, "pitch": 55, "duration": 2, "velocity": 69}, {"time": 1119, "pitch": 64, "duration": 3, "velocity": 67}, {"time": 1128, "pitch": 55, "duration": 2, "velocity": 61}, {"time": 1128, "pitch": 60, "duration": 3, "velocity": 65}, {"time": 1134, "pitch": 43, "duration": 8, "velocity": 52}, {"time": 1134, "pitch": 55, "duration": 2, "velocity": 65}, {"time": 1134, "pitch": 65, "duration": 1, "velocity": 38}, {"time": 1140, "pitch": 55, "duration": 2, "velocity": 63}, {"time": 1143, "pitch": 55, "duration": 3, "velocity": 72}, {"time": 1143, "pitch": 60, "duration": 3, "velocity": 72}, {"time": 1143, "pitch": 64, "duration": 3, "velocity": 65}, {"time": 1146, "pitch": 48, "duration": 1, "velocity": 67}, {"time": 1149, "pitch": 55, "duration": 2, "velocity": 60}, {"time": 1155, "pitch": 43, "duration": 22, "velocity": 60}, {"time": 1155, "pitch": 55, "duration": 4, "velocity": 58}, {"time": 1155, "pitch": 58, "duration": 4, "velocity": 54}, {"time": 1155, "pitch": 62, "duration": 3, "velocity": 59}, {"time": 1161, "pitch": 50, "duration": 6, "velocity": 30}, {"time": 1167, "pitch": 55, "duration": 2, "velocity": 63}, {"time": 1167, "pitch": 58, "duration": 3, "velocity": 67}, {"time": 1167, "pitch": 62, "duration": 3, "velocity": 65}, {"time": 1167, "pitch": 67, "duration": 3, "velocity": 56}, {"time": 1170, "pitch": 50, "duration": 7, "velocity": 51}, {"time": 1173, "pitch": 55, "duration": 1, "velocity": 53}, {"time": 1176, "pitch": 55, "duration": 6, "velocity": 59}, {"time": 1176, "pitch": 58, "duration": 6, "velocity": 62}, {"time": 1176, "pitch": 62, "duration": 6, "velocity": 61}, {"time": 1179, "pitch": 43, "duration": 19, "velocity": 59}, {"time": 1182, "pitch": 50, "duration": 7, "velocity": 58}, {"time": 1185, "pitch": 55, "duration": 1, "velocity": 58}, {"time": 1188, "pitch": 55, "duration": 3, "velocity": 63}, {"time": 1188, "pitch": 58, "duration": 4, "velocity": 74}, {"time": 1188, "pitch": 62, "duration": 3, "velocity": 65}, {"time": 1191, "pitch": 50, "duration": 2, "velocity": 51}, {"time": 1194, "pitch": 55, "duration": 2, "velocity": 59}, {"time": 1194, "pitch": 58, "duration": 3, "velocity": 62}, {"time": 1194, "pitch": 62, "duration": 3, "velocity": 62}, {"time": 1197, "pitch": 50, "duration": 1, "velocity": 58}, {"time": 1200, "pitch": 53, "duration": 1, "velocity": 42}, {"time": 1203, "pitch": 46, "duration": 11, "velocity": 74}, {"time": 1203, "pitch": 53, "duration": 3, "velocity": 59}, {"time": 1203, "pitch": 58, "duration": 6, "velocity": 63}, {"time": 1203, "pitch": 62, "duration": 6, "velocity": 59}, {"time": 1212, "pitch": 53, "duration": 2, "velocity": 63}, {"time": 1212, "pitch": 58, "duration": 3, "velocity": 72}, {"time": 1212, "pitch": 62, "duration": 3, "velocity": 65}, {"time": 1218, "pitch": 53, "duration": 5, "velocity": 59}, {"time": 1221, "pitch": 58, "duration": 4, "velocity": 69}, {"time": 1224, "pitch": 62, "duration": 2, "velocity": 60}, {"time": 1227, "pitch": 48, "duration": 10, "velocity": 72}, {"time": 1227, "pitch": 55, "duration": 4, "velocity": 58}, {"time": 1227, "pitch": 60, "duration": 6, "velocity": 65}, {"time": 1233, "pitch": 55, "duration": 1, "velocity": 58}, {"time": 1236, "pitch": 55, "duration": 3, "velocity": 72}, {"time": 1236, "pitch": 60, "duration": 4, "velocity": 74}, {"time": 1236, "pitch": 64, "duration": 3, "velocity": 64}, {"time": 1239, "pitch": 48, "duration": 2, "velocity": 57}, {"time": 1242, "pitch": 55, "duration": 2, "velocity": 62}, {"time": 1242, "pitch": 60, "duration": 2, "velocity": 67}, {"time": 1251, "pitch": 41, "duration": 19, "velocity": 62}, {"time": 1251, "pitch": 53, "duration": 8, "velocity": 58}, {"time": 1251, "pitch": 57, "duration": 7, "velocity": 58}, {"time": 1251, "pitch": 60, "duration": 7, "velocity": 59}, {"time": 1257, "pitch": 48, "duration": 7, "velocity": 52}, {"time": 1263, "pitch": 53, "duration": 6, "velocity": 56}, {"time": 1263, "pitch": 57, "duration": 5, "velocity": 63}, {"time": 1263, "pitch": 60, "duration": 5, "velocity": 60}, {"time": 1263, "pitch": 65, "duration": 5, "velocity": 57}, {"time": 1269, "pitch": 48, "duration": 3, "velocity": 44}, {"time": 1272, "pitch": 53, "duration": 6, "velocity": 58}, {"time": 1272, "pitch": 57, "duration": 8, "velocity": 59}, {"time": 1272, "pitch": 60, "duration": 8, "velocity": 60}, {"time": 1278, "pitch": 41, "duration": 17, "velocity": 59}, {"time": 1281, "pitch": 48, "duration": 10, "velocity": 58}, {"time": 1284, "pitch": 53, "duration": 5, "velocity": 59}, {"time": 1290, "pitch": 53, "duration": 3, "velocity": 60}, {"time": 1290, "pitch": 57, "duration": 3, "velocity": 64}, {"time": 1290, "pitch": 60, "duration": 4, "velocity": 65}, {"time": 1290, "pitch": 65, "duration": 4, "velocity": 58}, {"time": 1293, "pitch": 48, "duration": 2, "velocity": 60}, {"time": 1299, "pitch": 48, "duration": 10, "velocity": 67}, {"time": 1299, "pitch": 55, "duration": 3, "velocity": 58}, {"time": 1299, "pitch": 60, "duration": 6, "velocity": 59}, {"time": 1305, "pitch": 55, "duration": 1, "velocity": 41}, {"time": 1308, "pitch": 55, "duration": 4, "velocity": 60}, {"time": 1308, "pitch": 60, "duration": 4, "velocity": 64}, {"time": 1308, "pitch": 64, "duration": 4, "velocity": 65}, {"time": 1314, "pitch": 55, "duration": 3, "velocity": 64}, {"time": 1314, "pitch": 60, "duration": 4, "velocity": 67}, {"time": 1314, "pitch": 64, "duration": 4, "velocity": 64}, {"time": 1320, "pitch": 43, "duration": 4, "velocity": 58}, {"time": 1323, "pitch": 48, "duration": 18, "velocity": 84}, {"time": 1323, "pitch": 55, "duration": 4, "velocity": 62}, {"time": 1323, "pitch": 60, "duration": 5, "velocity": 61}, {"time": 1323, "pitch": 64, "duration": 6, "velocity": 61}, {"time": 1329, "pitch": 55, "duration": 1, "velocity": 50}, {"time": 1332, "pitch": 55, "duration": 4, "velocity": 64}, {"time": 1332, "pitch": 60, "duration": 3, "velocity": 75}, {"time": 1332, "pitch": 64, "duration": 4, "velocity": 72}, {"time": 1338, "pitch": 55, "duration": 2, "velocity": 63}, {"time": 1338, "pitch": 60, "duration": 5, "velocity": 69}, {"time": 1344, "pitch": 55, "duration": 2, "velocity": 51}, {"time": 1347, "pitch": 46, "duration": 19, "velocity": 69}, {"time": 1347, "pitch": 53, "duration": 4, "velocity": 59}, {"time": 1347, "pitch": 58, "duration": 6, "velocity": 53}, {"time": 1353, "pitch": 53, "duration": 1, "velocity": 51}, {"time": 1356, "pitch": 53, "duration": 3, "velocity": 60}, {"time": 1356, "pitch": 58, "duration": 4, "velocity": 69}, {"time": 1356, "pitch": 62, "duration": 4, "velocity": 60}, {"time": 1362, "pitch": 53, "duration": 2, "velocity": 60}, {"time": 1362, "pitch": 58, "duration": 3, "velocity": 72}, {"time": 1362, "pitch": 62, "duration": 4, "velocity": 62}, {"time": 1368, "pitch": 53, "duration": 1, "velocity": 54}, {"time": 1371, "pitch": 48, "duration": 11, "velocity": 65}, {"time": 1371, "pitch": 55, "duration": 3, "velocity": 60}, {"time": 1371, "pitch": 60, "duration": 6, "velocity": 62}, {"time": 1377, "pitch": 55, "duration": 1, "velocity": 53}, {"time": 1380, "pitch": 55, "duration": 4, "velocity": 63}, {"time": 1380, "pitch": 60, "duration": 4, "velocity": 67}, {"time": 1380, "pitch": 64, "duration": 4, "velocity": 69}, {"time": 1386, "pitch": 55, "duration": 2, "velocity": 61}, {"time": 1386, "pitch": 60, "duration": 3, "velocity": 67}, {"time": 1386, "pitch": 64, "duration": 3, "velocity": 64}, {"time": 1395, "pitch": 38, "duration": 39, "velocity": 64}, {"time": 1395, "pitch": 57, "duration": 4, "velocity": 58}, {"time": 1395, "pitch": 62, "duration": 6, "velocity": 59}, {"time": 1407, "pitch": 57, "duration": 2, "velocity": 63}, {"time": 1407, "pitch": 62, "duration": 2, "velocity": 72}, {"time": 1407, "pitch": 65, "duration": 2, "velocity": 65}, {"time": 1416, "pitch": 57, "duration": 2, "velocity": 51}, {"time": 1416, "pitch": 62, "duration": 2, "velocity": 55}, {"time": 1428, "pitch": 45, "duration": 4, "velocity": 49}, {"time": 1431, "pitch": 57, "duration": 4, "velocity": 64}, {"time": 1434, "pitch": 62, "duration": 3, "velocity": 62}, {"time": 1437, "pitch": 65, "duration": 2, "velocity": 64}, {"time": 1443, "pitch": 48, "duration": 39, "velocity": 64}, {"time": 1443, "pitch": 60, "duration": 8, "velocity": 56}, {"time": 1443, "pitch": 64, "duration": 7, "velocity": 59}, {"time": 1455, "pitch": 60, "duration": 2, "velocity": 59}, {"time": 1455, "pitch": 67, "duration": 1, "velocity": 58}, {"time": 1464, "pitch": 60, "duration": 2, "velocity": 52}, {"time": 1464, "pitch": 64, "duration": 2, "velocity": 58}, {"time": 1473, "pitch": 60, "duration": 4, "velocity": 53}, {"time": 1473, "pitch": 64, "duration": 3, "velocity": 63}, {"time": 1473, "pitch": 67, "duration": 3, "velocity": 58}, {"time": 1473, "pitch": 72, "duration": 3, "velocity": 59}, {"time": 1479, "pitch": 55, "duration": 3, "velocity": 40}, {"time": 1482, "pitch": 60, "duration": 2, "velocity": 60}, {"time": 1482, "pitch": 64, "duration": 1, "velocity": 59}, {"time": 1482, "pitch": 67, "duration": 1, "velocity": 54}, {"time": 1491, "pitch": 46, "duration": 84, "velocity": 63}, {"time": 1491, "pitch": 53, "duration": 3, "velocity": 58}, {"time": 1491, "pitch": 58, "duration": 6, "velocity": 58}, {"time": 1497, "pitch": 53, "duration": 1, "velocity": 40}, {"time": 1500, "pitch": 53, "duration": 2, "velocity": 58}, {"time": 1500, "pitch": 62, "duration": 2, "velocity": 59}, {"time": 1509, "pitch": 53, "duration": 2, "velocity": 54}, {"time": 1509, "pitch": 58, "duration": 2, "velocity": 51}, {"time": 1518, "pitch": 62, "duration": 2, "velocity": 58}, {"time": 1521, "pitch": 58, "duration": 1, "velocity": 33}, {"time": 1524, "pitch": 53, "duration": 1, "velocity": 46}, {"time": 1527, "pitch": 53, "duration": 2, "velocity": 62}, {"time": 1527, "pitch": 58, "duration": 3, "velocity": 64}, {"time": 1533, "pitch": 58, "duration": 4, "velocity": 59}, {"time": 1536, "pitch": 53, "duration": 2, "velocity": 55}, {"time": 1539, "pitch": 53, "duration": 37, "velocity": 59}, {"time": 1539, "pitch": 58, "duration": 38, "velocity": 58}, {"time": 1587, "pitch": 41, "duration": 21, "velocity": 79}, {"time": 1593, "pitch": 48, "duration": 15, "velocity": 71}, {"time": 1596, "pitch": 53, "duration": 6, "velocity": 78}, {"time": 1596, "pitch": 60, "duration": 10, "velocity": 74}, {"time": 1605, "pitch": 53, "duration": 5, "velocity": 78}, {"time": 1608, "pitch": 60, "duration": 9, "velocity": 75}, {"time": 1611, "pitch": 41, "duration": 11, "velocity": 78}, {"time": 1614, "pitch": 48, "duration": 8, "velocity": 70}, {"time": 1617, "pitch": 53, "duration": 6, "velocity": 79}, {"time": 1620, "pitch": 60, "duration": 10, "velocity": 79}, {"time": 1623, "pitch": 36, "duration": 10, "velocity": 80}, {"time": 1629, "pitch": 53, "duration": 5, "velocity": 78}, {"time": 1632, "pitch": 60, "duration": 6, "velocity": 74}, {"time": 1635, "pitch": 38, "duration": 22, "velocity": 78}, {"time": 1641, "pitch": 45, "duration": 16, "velocity": 66}, {"time": 1644, "pitch": 53, "duration": 8, "velocity": 70}, {"time": 1650, "pitch": 60, "duration": 11, "velocity": 74}, {"time": 1656, "pitch": 53, "duration": 4, "velocity": 69}, {"time": 1659, "pitch": 38, "duration": 18, "velocity": 80}, {"time": 1662, "pitch": 45, "duration": 15, "velocity": 67}, {"time": 1665, "pitch": 53, "duration": 2, "velocity": 72}, {"time": 1668, "pitch": 53, "duration": 4, "velocity": 77}, {"time": 1668, "pitch": 62, "duration": 13, "velocity": 79}, {"time": 1677, "pitch": 53, "duration": 5, "velocity": 75}, {"time": 1680, "pitch": 57, "duration": 3, "velocity": 65}, {"time": 1683, "pitch": 46, "duration": 22, "velocity": 79}, {"time": 1689, "pitch": 53, "duration": 2, "velocity": 72}, {"time": 1692, "pitch": 58, "duration": 10, "velocity": 72}, {"time": 1701, "pitch": 53, "duration": 6, "velocity": 66}, {"time": 1704, "pitch": 62, "duration": 5, "velocity": 74}, {"time": 1707, "pitch": 46, "duration": 18, "velocity": 85}, {"time": 1710, "pitch": 53, "duration": 3, "velocity": 71}, {"time": 1713, "pitch": 58, "duration": 2, "velocity": 59}, {"time": 1716, "pitch": 53, "duration": 6, "velocity": 83}, {"time": 1725, "pitch": 53, "duration": 1, "velocity": 70}, {"time": 1725, "pitch": 58, "duration": 4, "velocity": 73}, {"time": 1728, "pitch": 53, "duration": 2, "velocity": 76}, {"time": 1731, "pitch": 38, "duration": 21, "velocity": 82}, {"time": 1737, "pitch": 45, "duration": 15, "velocity": 70}, {"time": 1740, "pitch": 50, "duration": 6, "velocity": 83}, {"time": 1746, "pitch": 62, "duration": 10, "velocity": 77}, {"time": 1749, "pitch": 50, "duration": 5, "velocity": 73}, {"time": 1752, "pitch": 53, "duration": 3, "velocity": 71}, {"time": 1755, "pitch": 36, "duration": 25, "velocity": 78}, {"time": 1758, "pitch": 43, "duration": 21, "velocity": 66}, {"time": 1761, "pitch": 55, "duration": 5, "velocity": 78}, {"time": 1764, "pitch": 64, "duration": 7, "velocity": 80}, {"time": 1770, "pitch": 60, "duration": 4, "velocity": 73}, {"time": 1773, "pitch": 55, "duration": 5, "velocity": 73}, {"time": 1776, "pitch": 60, "duration": 2, "velocity": 71}, {"time": 1779, "pitch": 41, "duration": 21, "velocity": 79}, {"time": 1785, "pitch": 48, "duration": 15, "velocity": 71}, {"time": 1788, "pitch": 53, "duration": 6, "velocity": 78}, {"time": 1788, "pitch": 60, "duration": 10, "velocity": 74}, {"time": 1797, "pitch": 53, "duration": 5, "velocity": 78}, {"time": 1800, "pitch": 60, "duration": 9, "velocity": 75}, {"time": 1803, "pitch": 41, "duration": 11, "velocity": 78}, {"time": 1806, "pitch": 48, "duration": 8, "velocity": 70}, {"time": 1809, "pitch": 53, "duration": 6, "velocity": 79}, {"time": 1812, "pitch": 60, "duration": 10, "velocity": 79}, {"time": 1815, "pitch": 36, "duration": 10, "velocity": 80}, {"time": 1821, "pitch": 53, "duration": 5, "velocity": 78}, {"time": 1824, "pitch": 60, "duration": 6, "velocity": 74}, {"time": 1827, "pitch": 38, "duration": 22, "velocity": 78}, {"time": 1833, "pitch": 45, "duration": 16, "velocity": 66}, {"time": 1836, "pitch": 53, "duration": 8, "velocity": 70}, {"time": 1842, "pitch": 60, "duration": 11, "velocity": 74}, {"time": 1848, "pitch": 53, "duration": 4, "velocity": 69}, {"time": 1851, "pitch": 38, "duration": 18, "velocity": 80}, {"time": 1854, "pitch": 45, "duration": 15, "velocity": 67}, {"time": 1857, "pitch": 53, "duration": 2, "velocity": 72}, {"time": 1860, "pitch": 53, "duration": 4, "velocity": 77}, {"time": 1860, "pitch": 62, "duration": 13, "velocity": 79}, {"time": 1869, "pitch": 53, "duration": 5, "velocity": 75}, {"time": 1872, "pitch": 57, "duration": 3, "velocity": 65}, {"time": 1875, "pitch": 46, "duration": 22, "velocity": 79}, {"time": 1881, "pitch": 53, "duration": 2, "velocity": 72}, {"time": 1884, "pitch": 58, "duration": 10, "velocity": 72}, {"time": 1893, "pitch": 53, "duration": 6, "velocity": 66}, {"time": 1896, "pitch": 62, "duration": 5, "velocity": 74}, {"time": 1899, "pitch": 46, "duration": 18, "velocity": 85}, {"time": 1902, "pitch": 53, "duration": 3, "velocity": 71}, {"time": 1905, "pitch": 58, "duration": 2, "velocity": 59}, {"time": 1908, "pitch": 53, "duration": 6, "velocity": 83}, {"time": 1917, "pitch": 53, "duration": 1, "velocity": 70}, {"time": 1917, "pitch": 58, "duration": 4, "velocity": 73}, {"time": 1920, "pitch": 53, "duration": 2, "velocity": 76}, {"time": 1923, "pitch": 38, "duration": 21, "velocity": 82}, {"time": 1929, "pitch": 45, "duration": 15, "velocity": 70}, {"time": 1932, "pitch": 50, "duration": 6, "velocity": 83}, {"time": 1938, "pitch": 62, "duration": 10, "velocity": 77}, {"time": 1941, "pitch": 50, "duration": 5, "velocity": 73}, {"time": 1944, "pitch": 53, "duration": 3, "velocity": 71}, {"time": 1947, "pitch": 36, "duration": 25, "velocity": 78}, {"time": 1950, "pitch": 43, "duration": 21, "velocity": 66}, {"time": 1953, "pitch": 55, "duration": 5, "velocity": 78}, {"time": 1956, "pitch": 64, "duration": 7, "velocity": 80}, {"time": 1962, "pitch": 60, "duration": 4, "velocity": 73}, {"time": 1965, "pitch": 55, "duration": 5, "velocity": 73}, {"time": 1968, "pitch": 60, "duration": 2, "velocity": 71}, {"time": 1971, "pitch": 38, "duration": 22, "velocity": 80}, {"time": 1971, "pitch": 57, "duration": 4, "velocity": 71}, {"time": 1971, "pitch": 62, "duration": 5, "velocity": 74}, {"time": 1974, "pitch": 45, "duration": 18, "velocity": 62}, {"time": 1977, "pitch": 57, "duration": 4, "velocity": 79}, {"time": 1980, "pitch": 65, "duration": 9, "velocity": 78}, {"time": 1989, "pitch": 62, "duration": 8, "velocity": 81}, {"time": 1992, "pitch": 57, "duration": 6, "velocity": 74}, {"time": 1995, "pitch": 38, "duration": 15, "velocity": 81}, {"time": 1998, "pitch": 45, "duration": 11, "velocity": 67}, {"time": 2001, "pitch": 57, "duration": 4, "velocity": 80}, {"time": 2004, "pitch": 65, "duration": 7, "velocity": 78}, {"time": 2010, "pitch": 62, "duration": 3, "velocity": 76}, {"time": 2013, "pitch": 57, "duration": 6, "velocity": 79}, {"time": 2019, "pitch": 46, "duration": 19, "velocity": 78}, {"time": 2019, "pitch": 62, "duration": 6, "velocity": 74}, {"time": 2025, "pitch": 53, "duration": 4, "velocity": 70}, {"time": 2028, "pitch": 58, "duration": 6, "velocity": 81}, {"time": 2034, "pitch": 62, "duration": 7, "velocity": 79}, {"time": 2037, "pitch": 53, "duration": 5, "velocity": 72}, {"time": 2040, "pitch": 58, "duration": 6, "velocity": 80}, {"time": 2043, "pitch": 46, "duration": 15, "velocity": 83}, {"time": 2046, "pitch": 53, "duration": 5, "velocity": 73}, {"time": 2049, "pitch": 58, "duration": 2, "velocity": 67}, {"time": 2052, "pitch": 62, "duration": 6, "velocity": 79}, {"time": 2058, "pitch": 58, "duration": 3, "velocity": 77}, {"time": 2061, "pitch": 53, "duration": 1, "velocity": 78}, {"time": 2067, "pitch": 38, "duration": 22, "velocity": 80}, {"time": 2067, "pitch": 57, "duration": 3, "velocity": 64}, {"time": 2067, "pitch": 62, "duration": 7, "velocity": 72}, {"time": 2070, "pitch": 45, "duration": 19, "velocity": 65}, {"time": 2073, "pitch": 57, "duration": 2, "velocity": 78}, {"time": 2076, "pitch": 65, "duration": 6, "velocity": 78}, {"time": 2082, "pitch": 62, "duration": 4, "velocity": 72}, {"time": 2085, "pitch": 57, "duration": 4, "velocity": 74}, {"time": 2091, "pitch": 38, "duration": 19, "velocity": 80}, {"time": 2091, "pitch": 57, "duration": 3, "velocity": 76}, {"time": 2091, "pitch": 62, "duration": 7, "velocity": 74}, {"time": 2094, "pitch": 45, "duration": 17, "velocity": 69}, {"time": 2097, "pitch": 57, "duration": 2, "velocity": 78}, {"time": 2100, "pitch": 57, "duration": 4, "velocity": 76}, {"time": 2100, "pitch": 65, "duration": 6, "velocity": 74}, {"time": 2106, "pitch": 62, "duration": 4, "velocity": 72}, {"time": 2109, "pitch": 57, "duration": 3, "velocity": 79}, {"time": 2112, "pitch": 62, "duration": 3, "velocity": 73}, {"time": 2115, "pitch": 46, "duration": 21, "velocity": 79}, {"time": 2118, "pitch": 53, "duration": 3, "velocity": 79}, {"time": 2121, "pitch": 58, "duration": 3, "velocity": 70}, {"time": 2124, "pitch": 53, "duration": 5, "velocity": 78}, {"time": 2130, "pitch": 62, "duration": 3, "velocity": 78}, {"time": 2133, "pitch": 53, "duration": 4, "velocity": 78}, {"time": 2139, "pitch": 46, "duration": 17, "velocity": 80}, {"time": 2139, "pitch": 53, "duration": 10, "velocity": 73}, {"time": 2139, "pitch": 58, "duration": 11, "velocity": 73}, {"time": 2163, "pitch": 41, "duration": 22, "velocity": 60}, {"time": 2163, "pitch": 53, "duration": 10, "velocity": 59}, {"time": 2163, "pitch": 57, "duration": 6, "velocity": 60}, {"time": 2169, "pitch": 48, "duration": 8, "velocity": 48}, {"time": 2175, "pitch": 57, "duration": 4, "velocity": 64}, {"time": 2175, "pitch": 60, "duration": 5, "velocity": 61}, {"time": 2175, "pitch": 65, "duration": 4, "velocity": 59}, {"time": 2181, "pitch": 48, "duration": 2, "velocity": 46}, {"time": 2184, "pitch": 53, "duration": 4, "velocity": 60}, {"time": 2184, "pitch": 57, "duration": 6, "velocity": 61}, {"time": 2184, "pitch": 60, "duration": 6, "velocity": 61}, {"time": 2184, "pitch": 65, "duration": 7, "velocity": 60}, {"time": 2190, "pitch": 41, "duration": 13, "velocity": 57}, {"time": 2193, "pitch": 48, "duration": 7, "velocity": 59}, {"time": 2196, "pitch": 53, "duration": 2, "velocity": 56}, {"time": 2199, "pitch": 53, "duration": 3, "velocity": 60}, {"time": 2199, "pitch": 57, "duration": 3, "velocity": 74}, {"time": 2199, "pitch": 60, "duration": 3, "velocity": 65}, {"time": 2202, "pitch": 48, "duration": 2, "velocity": 57}, {"time": 2205, "pitch": 41, "duration": 2, "velocity": 59}, {"time": 2211, "pitch": 48, "duration": 14, "velocity": 74}, {"time": 2211, "pitch": 55, "duration": 3, "velocity": 59}, {"time": 2211, "pitch": 60, "duration": 5, "velocity": 58}, {"time": 2217, "pitch": 55, "duration": 1, "velocity": 45}, {"time": 2223, "pitch": 55, "duration": 2, "velocity": 69}, {"time": 2223, "pitch": 64, "duration": 3, "velocity": 67}, {"time": 2232, "pitch": 55, "duration": 2, "velocity": 61}, {"time": 2232, "pitch": 60, "duration": 3, "velocity": 65}, {"time": 2238, "pitch": 43, "duration": 8, "velocity": 52}, {"time": 2238, "pitch": 55, "duration": 2, "velocity": 65}, {"time": 2238, "pitch": 65, "duration": 1, "velocity": 38}, {"time": 2244, "pitch": 55, "duration": 2, "velocity": 63}, {"time": 2247, "pitch": 55, "duration": 3, "velocity": 72}, {"time": 2247, "pitch": 60, "duration": 3, "velocity": 72}, {"time": 2247, "pitch": 64, "duration": 3, "velocity": 65}, {"time": 2250, "pitch": 48, "duration": 1, "velocity": 67}, {"time": 2253, "pitch": 55, "duration": 2, "velocity": 60}, {"time": 2259, "pitch": 43, "duration": 22, "velocity": 60}, {"time": 2259, "pitch": 55, "duration": 4, "velocity": 58}, {"time": 2259, "pitch": 58, "duration": 4, "velocity": 54}, {"time": 2259, "pitch": 62, "duration": 3, "velocity": 59}, {"time": 2265, "pitch": 50, "duration": 6, "velocity": 30}, {"time": 2271, "pitch": 55, "duration": 2, "velocity": 63}, {"time": 2271, "pitch": 58, "duration": 3, "velocity": 67}, {"time": 2271, "pitch": 62, "duration": 3, "velocity": 65}, {"time": 2271, "pitch": 67, "duration": 3, "velocity": 56}, {"time": 2274, "pitch": 50, "duration": 7, "velocity": 51}, {"time": 2277, "pitch": 55, "duration": 1, "velocity": 53}, {"time": 2280, "pitch": 55, "duration": 6, "velocity": 59}, {"time": 2280, "pitch": 58, "duration": 6, "velocity": 62}, {"time": 2280, "pitch": 62, "duration": 6, "velocity": 61}, {"time": 2283, "pitch": 43, "duration": 19, "velocity": 59}, {"time": 2286, "pitch": 50, "duration": 7, "velocity": 58}, {"time": 2289, "pitch": 55, "duration": 1, "velocity": 58}, {"time": 2292, "pitch": 55, "duration": 3, "velocity": 63}, {"time": 2292, "pitch": 58, "duration": 4, "velocity": 74}, {"time": 2292, "pitch": 62, "duration": 3, "velocity": 65}, {"time": 2295, "pitch": 50, "duration": 2, "velocity": 51}, {"time": 2298, "pitch": 55, "duration": 2, "velocity": 59}, {"time": 2298, "pitch": 58, "duration": 3, "velocity": 62}, {"time": 2298, "pitch": 62, "duration": 3, "velocity": 62}, {"time": 2301, "pitch": 50, "duration": 1, "velocity": 58}, {"time": 2304, "pitch": 53, "duration": 1, "velocity": 42}, {"time": 2307, "pitch": 46, "duration": 11, "velocity": 74}, {"time": 2307, "pitch": 53, "duration": 3, "velocity": 59}, {"time": 2307, "pitch": 58, "duration": 6, "velocity": 63}, {"time": 2307, "pitch": 62, "duration": 6, "velocity": 59}, {"time": 2316, "pitch": 53, "duration": 2, "velocity": 63}, {"time": 2316, "pitch": 58, "duration": 3, "velocity": 72}, {"time": 2316, "pitch": 62, "duration": 3, "velocity": 65}, {"time": 2322, "pitch": 53, "duration": 5, "velocity": 59}, {"time": 2325, "pitch": 58, "duration": 4, "velocity": 69}, {"time": 2328, "pitch": 62, "duration": 2, "velocity": 60}, {"time": 2331, "pitch": 48, "duration": 10, "velocity": 72}, {"time": 2331, "pitch": 55, "duration": 4, "velocity": 58}, {"time": 2331, "pitch": 60, "duration": 6, "velocity": 65}, {"time": 2337, "pitch": 55, "duration": 1, "velocity": 58}, {"time": 2340, "pitch": 55, "duration": 3, "velocity": 72}, {"time": 2340, "pitch": 60, "duration": 4, "velocity": 74}, {"time": 2340, "pitch": 64, "duration": 3, "velocity": 64}, {"time": 2343, "pitch": 48, "duration": 2, "velocity": 57}, {"time": 2346, "pitch": 55, "duration": 2, "velocity": 62}, {"time": 2346, "pitch": 60, "duration": 2, "velocity": 67}, {"time": 2355, "pitch": 41, "duration": 19, "velocity": 62}, {"time": 2355, "pitch": 53, "duration": 8, "velocity": 58}, {"time": 2355, "pitch": 57, "duration": 7, "velocity": 58}, {"time": 2355, "pitch": 60, "duration": 7, "velocity": 59}, {"time": 2361, "pitch": 48, "duration": 7, "velocity": 52}, {"time": 2367, "pitch": 53, "duration": 6, "velocity": 56}, {"time": 2367, "pitch": 57, "duration": 5, "velocity": 63}, {"time": 2367, "pitch": 60, "duration": 5, "velocity": 60}, {"time": 2367, "pitch": 65, "duration": 5, "velocity": 57}, {"time": 2373, "pitch": 48, "duration": 3, "velocity": 44}, {"time": 2376, "pitch": 53, "duration": 6, "velocity": 58}, {"time": 2376, "pitch": 57, "duration": 8, "velocity": 59}, {"time": 2376, "pitch": 60, "duration": 8, "velocity": 60}, {"time": 2382, "pitch": 41, "duration": 17, "velocity": 59}, {"time": 2385, "pitch": 48, "duration": 10, "velocity": 58}, {"time": 2388, "pitch": 53, "duration": 5, "velocity": 59}, {"time": 2394, "pitch": 53, "duration": 3, "velocity": 60}, {"time": 2394, "pitch": 57, "duration": 3, "velocity": 64}, {"time": 2394, "pitch": 60, "duration": 4, "velocity": 65}, {"time": 2394, "pitch": 65, "duration": 4, "velocity": 58}, {"time": 2397, "pitch": 48, "duration": 2, "velocity": 60}, {"time": 2403, "pitch": 48, "duration": 10, "velocity": 67}, {"time": 2403, "pitch": 55, "duration": 3, "velocity": 58}, {"time": 2403, "pitch": 60, "duration": 6, "velocity": 59}, {"time": 2409, "pitch": 55, "duration": 1, "velocity": 41}, {"time": 2412, "pitch": 55, "duration": 4, "velocity": 60}, {"time": 2412, "pitch": 60, "duration": 4, "velocity": 64}, {"time": 2412, "pitch": 64, "duration": 4, "velocity": 65}, {"time": 2418, "pitch": 55, "duration": 3, "velocity": 64}, {"time": 2418, "pitch": 60, "duration": 4, "velocity": 67}, {"time": 2418, "pitch": 64, "duration": 4, "velocity": 64}, {"time": 2424, "pitch": 43, "duration": 4, "velocity": 58}, {"time": 2427, "pitch": 48, "duration": 18, "velocity": 84}, {"time": 2427, "pitch": 55, "duration": 4, "velocity": 62}, {"time": 2427, "pitch": 60, "duration": 5, "velocity": 61}, {"time": 2427, "pitch": 64, "duration": 6, "velocity": 61}, {"time": 2433, "pitch": 55, "duration": 1, "velocity": 50}, {"time": 2436, "pitch": 55, "duration": 4, "velocity": 64}, {"time": 2436, "pitch": 60, "duration": 3, "velocity": 75}, {"time": 2436, "pitch": 64, "duration": 4, "velocity": 72}, {"time": 2442, "pitch": 55, "duration": 2, "velocity": 63}, {"time": 2442, "pitch": 60, "duration": 5, "velocity": 69}, {"time": 2448, "pitch": 55, "duration": 2, "velocity": 51}, {"time": 2451, "pitch": 46, "duration": 19, "velocity": 69}, {"time": 2451, "pitch": 53, "duration": 4, "velocity": 59}, {"time": 2451, "pitch": 58, "duration": 6, "velocity": 53}, {"time": 2457, "pitch": 53, "duration": 1, "velocity": 51}, {"time": 2460, "pitch": 53, "duration": 3, "velocity": 60}, {"time": 2460, "pitch": 58, "duration": 4, "velocity": 69}, {"time": 2460, "pitch": 62, "duration": 4, "velocity": 60}, {"time": 2466, "pitch": 53, "duration": 2, "velocity": 60}, {"time": 2466, "pitch": 58, "duration": 3, "velocity": 72}, {"time": 2466, "pitch": 62, "duration": 4, "velocity": 62}, {"time": 2472, "pitch": 53, "duration": 1, "velocity": 54}, {"time": 2475, "pitch": 48, "duration": 11, "velocity": 65}, {"time": 2475, "pitch": 55, "duration": 3, "velocity": 60}, {"time": 2475, "pitch": 60, "duration": 6, "velocity": 62}, {"time": 2481, "pitch": 55, "duration": 1, "velocity": 53}, {"time": 2484, "pitch": 55, "duration": 4, "velocity": 63}, {"time": 2484, "pitch": 60, "duration": 4, "velocity": 67}, {"time": 2484, "pitch": 64, "duration": 4, "velocity": 69}, {"time": 2490, "pitch": 55, "duration": 2, "velocity": 61}, {"time": 2490, "pitch": 60, "duration": 3, "velocity": 67}, {"time": 2490, "pitch": 64, "duration": 3, "velocity": 64}, {"time": 2499, "pitch": 41, "duration": 22, "velocity": 61}, {"time": 2499, "pitch": 53, "duration": 6, "velocity": 61}, {"time": 2499, "pitch": 57, "duration": 5, "velocity": 59}, {"time": 2508, "pitch": 53, "duration": 2, "velocity": 60}, {"time": 2508, "pitch": 57, "duration": 1, "velocity": 61}, {"time": 2508, "pitch": 60, "duration": 2, "velocity": 64}, {"time": 2517, "pitch": 53, "duration": 4, "velocity": 59}, {"time": 2517, "pitch": 57, "duration": 3, "velocity": 69}, {"time": 2517, "pitch": 60, "duration": 3, "velocity": 63}, {"time": 2517, "pitch": 65, "duration": 3, "velocity": 59}, {"time": 2523, "pitch": 41, "duration": 3, "velocity": 35}, {"time": 2523, "pitch": 48, "duration": 3, "velocity": 52}, {"time": 2526, "pitch": 53, "duration": 3, "velocity": 63}, {"time": 2532, "pitch": 53, "duration": 3, "velocity": 59}, {"time": 2532, "pitch": 57, "duration": 3, "velocity": 59}, {"time": 2532, "pitch": 60, "duration": 3, "velocity": 59}, {"time": 2538, "pitch": 53, "duration": 2, "velocity": 64}, {"time": 2538, "pitch": 57, "duration": 2, "velocity": 64}, {"time": 2538, "pitch": 60, "duration": 3, "velocity": 62}, {"time": 2541, "pitch": 41, "duration": 1, "velocity": 44}, {"time": 2547, "pitch": 38, "duration": 33, "velocity": 64}, {"time": 2547, "pitch": 57, "duration": 6, "velocity": 60}, {"time": 2547, "pitch": 62, "duration": 6, "velocity": 60}, {"time": 2556, "pitch": 57, "duration": 1, "velocity": 56}, {"time": 2556, "pitch": 65, "duration": 1, "velocity": 53}, {"time": 2559, "pitch": 57, "duration": 3, "velocity": 64}, {"time": 2559, "pitch": 65, "duration": 3, "velocity": 67}, {"time": 2562, "pitch": 45, "duration": 17, "velocity": 49}, {"time": 2565, "pitch": 57, "duration": 1, "velocity": 55}, {"time": 2568, "pitch": 57, "duration": 3, "velocity": 67}, {"time": 2568, "pitch": 62, "duration": 3, "velocity": 79}, {"time": 2577, "pitch": 57, "duration": 6, "velocity": 63}, {"time": 2577, "pitch": 65, "duration": 6, "velocity": 64}, {"time": 2583, "pitch": 38, "duration": 3, "velocity": 47}, {"time": 2583, "pitch": 45, "duration": 3, "velocity": 57}, {"time": 2586, "pitch": 57, "duration": 2, "velocity": 65}, {"time": 2586, "pitch": 62, "duration": 1, "velocity": 65}, {"time": 2595, "pitch": 46, "duration": 23, "velocity": 60}, {"time": 2595, "pitch": 53, "duration": 4, "velocity": 59}, {"time": 2595, "pitch": 58, "duration": 5, "velocity": 59}, {"time": 2604, "pitch": 53, "duration": 2, "velocity": 47}, {"time": 2604, "pitch": 58, "duration": 1, "velocity": 45}, {"time": 2607, "pitch": 53, "duration": 3, "velocity": 60}, {"time": 2607, "pitch": 58, "duration": 3, "velocity": 63}, {"time": 2607, "pitch": 65, "duration": 3, "velocity": 59}, {"time": 2616, "pitch": 53, "duration": 4, "velocity": 59}, {"time": 2616, "pitch": 58, "duration": 4, "velocity": 62}, {"time": 2616, "pitch": 62, "duration": 7, "velocity": 59}, {"time": 2622, "pitch": 53, "duration": 2, "velocity": 62}, {"time": 2625, "pitch": 58, "duration": 1, "velocity": 41}, {"time": 2631, "pitch": 46, "duration": 2, "velocity": 64}, {"time": 2631, "pitch": 53, "duration": 2, "velocity": 59}, {"time": 2631, "pitch": 58, "duration": 3, "velocity": 62}, {"time": 2631, "pitch": 62, "duration": 4, "velocity": 63}, {"time": 2637, "pitch": 46, "duration": 1, "velocity": 59}, {"time": 2637, "pitch": 53, "duration": 1, "velocity": 64}, {"time": 2643, "pitch": 50, "duration": 11, "velocity": 67}, {"time": 2643, "pitch": 57, "duration": 3, "velocity": 58}, {"time": 2643, "pitch": 62, "duration": 6, "velocity": 59}, {"time": 2649, "pitch": 57, "duration": 1, "velocity": 47}, {"time": 2652, "pitch": 57, "duration": 3, "velocity": 61}, {"time": 2652, "pitch": 62, "duration": 4, "velocity": 65}, {"time": 2652, "pitch": 65, "duration": 4, "velocity": 63}, {"time": 2658, "pitch": 57, "duration": 2, "velocity": 58}, {"time": 2658, "pitch": 62, "duration": 2, "velocity": 58}, {"time": 2658, "pitch": 65, "duration": 2, "velocity": 55}, {"time": 2667, "pitch": 36, "duration": 22, "velocity": 59}, {"time": 2667, "pitch": 55, "duration": 3, "velocity": 61}, {"time": 2667, "pitch": 60, "duration": 3, "velocity": 60}, {"time": 2670, "pitch": 43, "duration": 13, "velocity": 57}, {"time": 2673, "pitch": 55, "duration": 1, "velocity": 60}, {"time": 2676, "pitch": 55, "duration": 4, "velocity": 72}, {"time": 2676, "pitch": 60, "duration": 4, "velocity": 72}, {"time": 2676, "pitch": 64, "duration": 3, "velocity": 72}, {"time": 2682, "pitch": 55, "duration": 2, "velocity": 64}, {"time": 2682, "pitch": 60, "duration": 3, "velocity": 74}, {"time": 2685, "pitch": 43, "duration": 5, "velocity": 51}, {"time": 2688, "pitch": 55, "duration": 3, "velocity": 64}, {"time": 2691, "pitch": 41, "duration": 22, "velocity": 61}, {"time": 2691, "pitch": 53, "duration": 6, "velocity": 61}, {"time": 2691, "pitch": 57, "duration": 5, "velocity": 59}, {"time": 2700, "pitch": 53, "duration": 2, "velocity": 60}, {"time": 2700, "pitch": 57, "duration": 1, "velocity": 61}, {"time": 2700, "pitch": 60, "duration": 2, "velocity": 64}, {"time": 2709, "pitch": 53, "duration": 4, "velocity": 59}, {"time": 2709, "pitch": 57, "duration": 3, "velocity": 69}, {"time": 2709, "pitch": 60, "duration": 3, "velocity": 63}, {"time": 2709, "pitch": 65, "duration": 3, "velocity": 59}, {"time": 2715, "pitch": 41, "duration": 3, "velocity": 35}, {"time": 2715, "pitch": 48, "duration": 3, "velocity": 52}, {"time": 2718, "pitch": 53, "duration": 3, "velocity": 63}, {"time": 2724, "pitch": 53, "duration": 3, "velocity": 59}, {"time": 2724, "pitch": 57, "duration": 3, "velocity": 59}, {"time": 2724, "pitch": 60, "duration": 3, "velocity": 59}, {"time": 2730, "pitch": 53, "duration": 2, "velocity": 64}, {"time": 2730, "pitch": 57, "duration": 2, "velocity": 64}, {"time": 2730, "pitch": 60, "duration": 3, "velocity": 62}, {"time": 2733, "pitch": 41, "duration": 1, "velocity": 44}, {"time": 2739, "pitch": 38, "duration": 33, "velocity": 64}, {"time": 2739, "pitch": 57, "duration": 6, "velocity": 60}, {"time": 2739, "pitch": 62, "duration": 6, "velocity": 60}, {"time": 2748, "pitch": 57, "duration": 1, "velocity": 56}, {"time": 2748, "pitch": 65, "duration": 1, "velocity": 53}, {"time": 2751, "pitch": 57, "duration": 3, "velocity": 64}, {"time": 2751, "pitch": 65, "duration": 3, "velocity": 67}, {"time": 2754, "pitch": 45, "duration": 17, "velocity": 49}, {"time": 2757, "pitch": 57, "duration": 1, "velocity": 55}, {"time": 2760, "pitch": 57, "duration": 3, "velocity": 67}, {"time": 2760, "pitch": 62, "duration": 3, "velocity": 79}, {"time": 2769, "pitch": 57, "duration": 6, "velocity": 63}, {"time": 2769, "pitch": 65, "duration": 6, "velocity": 64}, {"time": 2775, "pitch": 38, "duration": 3, "velocity": 47}, {"time": 2775, "pitch": 45, "duration": 3, "velocity": 57}, {"time": 2778, "pitch": 57, "duration": 2, "velocity": 65}, {"time": 2778, "pitch": 62, "duration": 1, "velocity": 65}, {"time": 2787, "pitch": 46, "duration": 23, "velocity": 60}, {"time": 2787, "pitch": 53, "duration": 4, "velocity": 59}, {"time": 2787, "pitch": 58, "duration": 5, "velocity": 59}, {"time": 2796, "pitch": 53, "duration": 2, "velocity": 47}, {"time": 2796, "pitch": 58, "duration": 1, "velocity": 45}, {"time": 2799, "pitch": 53, "duration": 3, "velocity": 60}, {"time": 2799, "pitch": 58, "duration": 3, "velocity": 63}, {"time": 2799, "pitch": 65, "duration": 3, "velocity": 59}, {"time": 2808, "pitch": 53, "duration": 4, "velocity": 59}, {"time": 2808, "pitch": 58, "duration": 4, "velocity": 62}, {"time": 2808, "pitch": 62, "duration": 7, "velocity": 59}, {"time": 2814, "pitch": 53, "duration": 2, "velocity": 62}, {"time": 2817, "pitch": 58, "duration": 1, "velocity": 41}, {"time": 2823, "pitch": 46, "duration": 2, "velocity": 64}, {"time": 2823, "pitch": 53, "duration": 2, "velocity": 59}, {"time": 2823, "pitch": 58, "duration": 3, "velocity": 62}, {"time": 2823, "pitch": 62, "duration": 4, "velocity": 63}, {"time": 2829, "pitch": 46, "duration": 1, "velocity": 59}, {"time": 2829, "pitch": 53, "duration": 1, "velocity": 64}, {"time": 2835, "pitch": 50, "duration": 11, "velocity": 67}, {"time": 2835, "pitch": 57, "duration": 3, "velocity": 58}, {"time": 2835, "pitch": 62, "duration": 6, "velocity": 59}, {"time": 2841, "pitch": 57, "duration": 1, "velocity": 47}, {"time": 2844, "pitch": 57, "duration": 3, "velocity": 61}, {"time": 2844, "pitch": 62, "duration": 4, "velocity": 65}, {"time": 2844, "pitch": 65, "duration": 4, "velocity": 63}, {"time": 2850, "pitch": 57, "duration": 2, "velocity": 58}, {"time": 2850, "pitch": 62, "duration": 2, "velocity": 58}, {"time": 2850, "pitch": 65, "duration": 2, "velocity": 55}, {"time": 2859, "pitch": 36, "duration": 22, "velocity": 59}, {"time": 2859, "pitch": 55, "duration": 3, "velocity": 61}, {"time": 2859, "pitch": 60, "duration": 3, "velocity": 60}, {"time": 2862, "pitch": 43, "duration": 13, "velocity": 57}, {"time": 2865, "pitch": 55, "duration": 1, "velocity": 60}, {"time": 2868, "pitch": 55, "duration": 4, "velocity": 72}, {"time": 2868, "pitch": 60, "duration": 4, "velocity": 72}, {"time": 2868, "pitch": 64, "duration": 3, "velocity": 72}, {"time": 2874, "pitch": 55, "duration": 2, "velocity": 64}, {"time": 2874, "pitch": 60, "duration": 3, "velocity": 74}, {"time": 2877, "pitch": 43, "duration": 5, "velocity": 51}, {"time": 2880, "pitch": 55, "duration": 3, "velocity": 64}, {"time": 2895, "pitch": 41, "duration": 37, "velocity": 65}, {"time": 2895, "pitch": 53, "duration": 17, "velocity": 57}, {"time": 2895, "pitch": 57, "duration": 16, "velocity": 59}, {"time": 2895, "pitch": 60, "duration": 16, "velocity": 62}, {"time": 2895, "pitch": 65, "duration": 15, "velocity": 58}, {"time": 2919, "pitch": 53, "duration": 3, "velocity": 65}, {"time": 2919, "pitch": 60, "duration": 4, "velocity": 64}, {"time": 2922, "pitch": 48, "duration": 8, "velocity": 62}, {"time": 2925, "pitch": 53, "duration": 5, "velocity": 62}, {"time": 2928, "pitch": 57, "duration": 2, "velocity": 61}, {"time": 2931, "pitch": 48, "duration": 14, "velocity": 74}, {"time": 2931, "pitch": 55, "duration": 3, "velocity": 59}, {"time": 2931, "pitch": 60, "duration": 5, "velocity": 58}, {"time": 2937, "pitch": 55, "duration": 1, "velocity": 45}, {"time": 2943, "pitch": 55, "duration": 2, "velocity": 69}, {"time": 2943, "pitch": 64, "duration": 3, "velocity": 67}, {"time": 2952, "pitch": 55, "duration": 2, "velocity": 61}, {"time": 2952, "pitch": 60, "duration": 3, "velocity": 65}, {"time": 2958, "pitch": 43, "duration": 8, "velocity": 52}, {"time": 2958, "pitch": 55, "duration": 2, "velocity": 65}, {"time": 2958, "pitch": 65, "duration": 1, "velocity": 38}, {"time": 2964, "pitch": 55, "duration": 2, "velocity": 63}, {"time": 2967, "pitch": 55, "duration": 3, "velocity": 72}, {"time": 2967, "pitch": 60, "duration": 3, "velocity": 72}, {"time": 2967, "pitch": 64, "duration": 3, "velocity": 65}, {"time": 2970, "pitch": 48, "duration": 1, "velocity": 67}, {"time": 2973, "pitch": 55, "duration": 2, "velocity": 60}, {"time": 2979, "pitch": 43, "duration": 22, "velocity": 60}, {"time": 2979, "pitch": 55, "duration": 4, "velocity": 58}, {"time": 2979, "pitch": 58, "duration": 4, "velocity": 54}, {"time": 2979, "pitch": 62, "duration": 3, "velocity": 59}, {"time": 2985, "pitch": 50, "duration": 6, "velocity": 30}, {"time": 2991, "pitch": 55, "duration": 2, "velocity": 63}, {"time": 2991, "pitch": 58, "duration": 3, "velocity": 67}, {"time": 2991, "pitch": 62, "duration": 3, "velocity": 65}, {"time": 2991, "pitch": 67, "duration": 3, "velocity": 56}, {"time": 2994, "pitch": 50, "duration": 7, "velocity": 51}, {"time": 2997, "pitch": 55, "duration": 1, "velocity": 53}, {"time": 3000, "pitch": 55, "duration": 6, "velocity": 59}, {"time": 3000, "pitch": 58, "duration": 6, "velocity": 62}, {"time": 3000, "pitch": 62, "duration": 6, "velocity": 61}, {"time": 3003, "pitch": 43, "duration": 19, "velocity": 59}, {"time": 3006, "pitch": 50, "duration": 7, "velocity": 58}, {"time": 3009, "pitch": 55, "duration": 1, "velocity": 58}, {"time": 3012, "pitch": 55, "duration": 3, "velocity": 63}, {"time": 3012, "pitch": 58, "duration": 4, "velocity": 74}, {"time": 3012, "pitch": 62, "duration": 3, "velocity": 65}, {"time": 3015, "pitch": 50, "duration": 2, "velocity": 51}, {"time": 3018, "pitch": 55, "duration": 2, "velocity": 59}, {"time": 3018, "pitch": 58, "duration": 3, "velocity": 62}, {"time": 3018, "pitch": 62, "duration": 3, "velocity": 62}, {"time": 3021, "pitch": 50, "duration": 1, "velocity": 58}, {"time": 3024, "pitch": 53, "duration": 1, "velocity": 42}, {"time": 3027, "pitch": 46, "duration": 11, "velocity": 74}, {"time": 3027, "pitch": 53, "duration": 3, "velocity": 59}, {"time": 3027, "pitch": 58, "duration": 6, "velocity": 63}, {"time": 3027, "pitch": 62, "duration": 6, "velocity": 59}, {"time": 3036, "pitch": 53, "duration": 2, "velocity": 63}, {"time": 3036, "pitch": 58, "duration": 3, "velocity": 72}, {"time": 3036, "pitch": 62, "duration": 3, "velocity": 65}, {"time": 3042, "pitch": 53, "duration": 5, "velocity": 59}, {"time": 3045, "pitch": 58, "duration": 4, "velocity": 69}, {"time": 3048, "pitch": 62, "duration": 2, "velocity": 60}, {"time": 3051, "pitch": 48, "duration": 10, "velocity": 72}, {"time": 3051, "pitch": 55, "duration": 4, "velocity": 58}, {"time": 3051, "pitch": 60, "duration": 6, "velocity": 65}, {"time": 3057, "pitch": 55, "duration": 1, "velocity": 58}, {"time": 3060, "pitch": 55, "duration": 3, "velocity": 72}, {"time": 3060, "pitch": 60, "duration": 4, "velocity": 74}, {"time": 3060, "pitch": 64, "duration": 3, "velocity": 64}, {"time": 3063, "pitch": 48, "duration": 2, "velocity": 57}, {"time": 3066, "pitch": 55, "duration": 2, "velocity": 62}, {"time": 3066, "pitch": 60, "duration": 2, "velocity": 67}, {"time": 3075, "pitch": 41, "duration": 19, "velocity": 62}, {"time": 3075, "pitch": 53, "duration": 8, "velocity": 58}, {"time": 3075, "pitch": 57, "duration": 7, "velocity": 58}, {"time": 3075, "pitch": 60, "duration": 7, "velocity": 59}, {"time": 3081, "pitch": 48, "duration": 7, "velocity": 52}, {"time": 3087, "pitch": 53, "duration": 6, "velocity": 56}, {"time": 3087, "pitch": 57, "duration": 5, "velocity": 63}, {"time": 3087, "pitch": 60, "duration": 5, "velocity": 60}, {"time": 3087, "pitch": 65, "duration": 5, "velocity": 57}, {"time": 3093, "pitch": 48, "duration": 3, "velocity": 44}, {"time": 3096, "pitch": 53, "duration": 6, "velocity": 58}, {"time": 3096, "pitch": 57, "duration": 8, "velocity": 59}, {"time": 3096, "pitch": 60, "duration": 8, "velocity": 60}, {"time": 3102, "pitch": 41, "duration": 17, "velocity": 59}, {"time": 3105, "pitch": 48, "duration": 10, "velocity": 58}, {"time": 3108, "pitch": 53, "duration": 5, "velocity": 59}, {"time": 3114, "pitch": 53, "duration": 3, "velocity": 60}, {"time": 3114, "pitch": 57, "duration": 3, "velocity": 64}, {"time": 3114, "pitch": 60, "duration": 4, "velocity": 65}, {"time": 3114, "pitch": 65, "duration": 4, "velocity": 58}, {"time": 3117, "pitch": 48, "duration": 2, "velocity": 60}, {"time": 3123, "pitch": 48, "duration": 10, "velocity": 67}, {"time": 3123, "pitch": 55, "duration": 3, "velocity": 58}, {"time": 3123, "pitch": 60, "duration": 6, "velocity": 59}, {"time": 3129, "pitch": 55, "duration": 1, "velocity": 41}, {"time": 3132, "pitch": 55, "duration": 4, "velocity": 60}, {"time": 3132, "pitch": 60, "duration": 4, "velocity": 64}, {"time": 3132, "pitch": 64, "duration": 4, "velocity": 65}, {"time": 3138, "pitch": 55, "duration": 3, "velocity": 64}, {"time": 3138, "pitch": 60, "duration": 4, "velocity": 67}, {"time": 3138, "pitch": 64, "duration": 4, "velocity": 64}, {"time": 3144, "pitch": 43, "duration": 4, "velocity": 58}, {"time": 3147, "pitch": 48, "duration": 18, "velocity": 84}, {"time": 3147, "pitch": 55, "duration": 4, "velocity": 62}, {"time": 3147, "pitch": 60, "duration": 5, "velocity": 61}, {"time": 3147, "pitch": 64, "duration": 6, "velocity": 61}, {"time": 3153, "pitch": 55, "duration": 1, "velocity": 50}, {"time": 3156, "pitch": 55, "duration": 4, "velocity": 64}, {"time": 3156, "pitch": 60, "duration": 3, "velocity": 75}, {"time": 3156, "pitch": 64, "duration": 4, "velocity": 72}, {"time": 3162, "pitch": 55, "duration": 2, "velocity": 63}, {"time": 3162, "pitch": 60, "duration": 5, "velocity": 69}, {"time": 3168, "pitch": 55, "duration": 2, "velocity": 51}, {"time": 3171, "pitch": 46, "duration": 19, "velocity": 69}, {"time": 3171, "pitch": 53, "duration": 4, "velocity": 59}, {"time": 3171, "pitch": 58, "duration": 6, "velocity": 53}, {"time": 3177, "pitch": 53, "duration": 1, "velocity": 51}, {"time": 3180, "pitch": 53, "duration": 3, "velocity": 60}, {"time": 3180, "pitch": 58, "duration": 4, "velocity": 69}, {"time": 3180, "pitch": 62, "duration": 4, "velocity": 60}, {"time": 3186, "pitch": 53, "duration": 2, "velocity": 60}, {"time": 3186, "pitch": 58, "duration": 3, "velocity": 72}, {"time": 3186, "pitch": 62, "duration": 4, "velocity": 62}, {"time": 3192, "pitch": 53, "duration": 1, "velocity": 54}, {"time": 3195, "pitch": 48, "duration": 11, "velocity": 65}, {"time": 3195, "pitch": 55, "duration": 3, "velocity": 60}, {"time": 3195, "pitch": 60, "duration": 6, "velocity": 62}, {"time": 3201, "pitch": 55, "duration": 1, "velocity": 53}, {"time": 3204, "pitch": 55, "duration": 4, "velocity": 63}, {"time": 3204, "pitch": 60, "duration": 4, "velocity": 67}, {"time": 3204, "pitch": 64, "duration": 4, "velocity": 69}, {"time": 3210, "pitch": 55, "duration": 2, "velocity": 61}, {"time": 3210, "pitch": 60, "duration": 3, "velocity": 67}, {"time": 3210, "pitch": 64, "duration": 3, "velocity": 64}, {"time": 3219, "pitch": 38, "duration": 20, "velocity": 67}, {"time": 3219, "pitch": 57, "duration": 4, "velocity": 59}, {"time": 3219, "pitch": 62, "duration": 7, "velocity": 61}, {"time": 3228, "pitch": 57, "duration": 1, "velocity": 46}, {"time": 3231, "pitch": 57, "duration": 3, "velocity": 63}, {"time": 3231, "pitch": 62, "duration": 6, "velocity": 72}, {"time": 3231, "pitch": 65, "duration": 6, "velocity": 65}, {"time": 3237, "pitch": 57, "duration": 1, "velocity": 41}, {"time": 3240, "pitch": 38, "duration": 14, "velocity": 69}, {"time": 3240, "pitch": 57, "duration": 4, "velocity": 63}, {"time": 3240, "pitch": 62, "duration": 7, "velocity": 64}, {"time": 3240, "pitch": 65, "duration": 7, "velocity": 64}, {"time": 3246, "pitch": 57, "duration": 4, "velocity": 64}, {"time": 3249, "pitch": 65, "duration": 4, "velocity": 65}, {"time": 3255, "pitch": 38, "duration": 2, "velocity": 67}, {"time": 3255, "pitch": 62, "duration": 3, "velocity": 67}, {"time": 3258, "pitch": 40, "duration": 9, "velocity": 67}, {"time": 3258, "pitch": 64, "duration": 8, "velocity": 74}, {"time": 3267, "pitch": 41, "duration": 22, "velocity": 60}, {"time": 3267, "pitch": 53, "duration": 10, "velocity": 59}, {"time": 3267, "pitch": 57, "duration": 6, "velocity": 60}, {"time": 3273, "pitch": 48, "duration": 8, "velocity": 48}, {"time": 3279, "pitch": 57, "duration": 4, "velocity": 64}, {"time": 3279, "pitch": 60, "duration": 5, "velocity": 61}, {"time": 3279, "pitch": 65, "duration": 4, "velocity": 59}, {"time": 3285, "pitch": 48, "duration": 2, "velocity": 46}, {"time": 3288, "pitch": 53, "duration": 4, "velocity": 60}, {"time": 3288, "pitch": 57, "duration": 6, "velocity": 61}, {"time": 3288, "pitch": 60, "duration": 6, "velocity": 61}, {"time": 3288, "pitch": 65, "duration": 7, "velocity": 60}, {"time": 3294, "pitch": 41, "duration": 13, "velocity": 57}, {"time": 3297, "pitch": 48, "duration": 7, "velocity": 59}, {"time": 3300, "pitch": 53, "duration": 2, "velocity": 56}, {"time": 3303, "pitch": 53, "duration": 3, "velocity": 60}, {"time": 3303, "pitch": 57, "duration": 3, "velocity": 74}, {"time": 3303, "pitch": 60, "duration": 3, "velocity": 65}, {"time": 3306, "pitch": 48, "duration": 2, "velocity": 57}, {"time": 3309, "pitch": 41, "duration": 2, "velocity": 59}, {"time": 3315, "pitch": 48, "duration": 14, "velocity": 74}, {"time": 3315, "pitch": 55, "duration": 3, "velocity": 59}, {"time": 3315, "pitch": 60, "duration": 5, "velocity": 58}, {"time": 3321, "pitch": 55, "duration": 1, "velocity": 45}, {"time": 3327, "pitch": 55, "duration": 2, "velocity": 69}, {"time": 3327, "pitch": 64, "duration": 3, "velocity": 67}, {"time": 3336, "pitch": 55, "duration": 2, "velocity": 61}, {"time": 3336, "pitch": 60, "duration": 3, "velocity": 65}, {"time": 3342, "pitch": 43, "duration": 8, "velocity": 52}, {"time": 3342, "pitch": 55, "duration": 2, "velocity": 65}, {"time": 3342, "pitch": 65, "duration": 1, "velocity": 38}, {"time": 3348, "pitch": 55, "duration": 2, "velocity": 63}, {"time": 3351, "pitch": 55, "duration": 3, "velocity": 72}, {"time": 3351, "pitch": 60, "duration": 3, "velocity": 72}, {"time": 3351, "pitch": 64, "duration": 3, "velocity": 65}, {"time": 3354, "pitch": 48, "duration": 1, "velocity": 67}, {"time": 3357, "pitch": 55, "duration": 2, "velocity": 60}, {"time": 3363, "pitch": 43, "duration": 22, "velocity": 60}, {"time": 3363, "pitch": 55, "duration": 4, "velocity": 58}, {"time": 3363, "pitch": 58, "duration": 4, "velocity": 54}, {"time": 3363, "pitch": 62, "duration": 3, "velocity": 59}, {"time": 3369, "pitch": 50, "duration": 6, "velocity": 30}, {"time": 3375, "pitch": 55, "duration": 2, "velocity": 63}, {"time": 3375, "pitch": 58, "duration": 3, "velocity": 67}, {"time": 3375, "pitch": 62, "duration": 3, "velocity": 65}, {"time": 3375, "pitch": 67, "duration": 3, "velocity": 56}, {"time": 3378, "pitch": 50, "duration": 7, "velocity": 51}, {"time": 3381, "pitch": 55, "duration": 1, "velocity": 53}, {"time": 3384, "pitch": 55, "duration": 6, "velocity": 59}, {"time": 3384, "pitch": 58, "duration": 6, "velocity": 62}, {"time": 3384, "pitch": 62, "duration": 6, "velocity": 61}, {"time": 3387, "pitch": 43, "duration": 19, "velocity": 59}, {"time": 3390, "pitch": 50, "duration": 7, "velocity": 58}, {"time": 3393, "pitch": 55, "duration": 1, "velocity": 58}, {"time": 3396, "pitch": 55, "duration": 3, "velocity": 63}, {"time": 3396, "pitch": 58, "duration": 4, "velocity": 74}, {"time": 3396, "pitch": 62, "duration": 3, "velocity": 65}, {"time": 3399, "pitch": 50, "duration": 2, "velocity": 51}, {"time": 3402, "pitch": 55, "duration": 2, "velocity": 59}, {"time": 3402, "pitch": 58, "duration": 3, "velocity": 62}, {"time": 3402, "pitch": 62, "duration": 3, "velocity": 62}, {"time": 3405, "pitch": 50, "duration": 1, "velocity": 58}, {"time": 3408, "pitch": 53, "duration": 1, "velocity": 42}, {"time": 3411, "pitch": 46, "duration": 11, "velocity": 74}, {"time": 3411, "pitch": 53, "duration": 3, "velocity": 59}, {"time": 3411, "pitch": 58, "duration": 6, "velocity": 63}, {"time": 3411, "pitch": 62, "duration": 6, "velocity": 59}, {"time": 3420, "pitch": 53, "duration": 2, "velocity": 63}, {"time": 3420, "pitch": 58, "duration": 3, "velocity": 72}, {"time": 3420, "pitch": 62, "duration": 3, "velocity": 65}, {"time": 3426, "pitch": 53, "duration": 5, "velocity": 59}, {"time": 3429, "pitch": 58, "duration": 4, "velocity": 69}, {"time": 3432, "pitch": 62, "duration": 2, "velocity": 60}, {"time": 3435, "pitch": 48, "duration": 10, "velocity": 72}, {"time": 3435, "pitch": 55, "duration": 4, "velocity": 58}, {"time": 3435, "pitch": 60, "duration": 6, "velocity": 65}, {"time": 3441, "pitch": 55, "duration": 1, "velocity": 58}, {"time": 3444, "pitch": 55, "duration": 3, "velocity": 72}, {"time": 3444, "pitch": 60, "duration": 4, "velocity": 74}, {"time": 3444, "pitch": 64, "duration": 3, "velocity": 64}, {"time": 3447, "pitch": 48, "duration": 2, "velocity": 57}, {"time": 3450, "pitch": 55, "duration": 2, "velocity": 62}, {"time": 3450, "pitch": 60, "duration": 2, "velocity": 67}, {"time": 3459, "pitch": 41, "duration": 19, "velocity": 62}, {"time": 3459, "pitch": 53, "duration": 8, "velocity": 58}, {"time": 3459, "pitch": 57, "duration": 7, "velocity": 58}, {"time": 3459, "pitch": 60, "duration": 7, "velocity": 59}, {"time": 3465, "pitch": 48, "duration": 7, "velocity": 52}, {"time": 3471, "pitch": 53, "duration": 6, "velocity": 56}, {"time": 3471, "pitch": 57, "duration": 5, "velocity": 63}, {"time": 3471, "pitch": 60, "duration": 5, "velocity": 60}, {"time": 3471, "pitch": 65, "duration": 5, "velocity": 57}, {"time": 3477, "pitch": 48, "duration": 3, "velocity": 44}, {"time": 3480, "pitch": 53, "duration": 6, "velocity": 58}, {"time": 3480, "pitch": 57, "duration": 8, "velocity": 59}, {"time": 3480, "pitch": 60, "duration": 8, "velocity": 60}, {"time": 3486, "pitch": 41, "duration": 17, "velocity": 59}, {"time": 3489, "pitch": 48, "duration": 10, "velocity": 58}, {"time": 3492, "pitch": 53, "duration": 5, "velocity": 59}, {"time": 3498, "pitch": 53, "duration": 3, "velocity": 60}, {"time": 3498, "pitch": 57, "duration": 3, "velocity": 64}, {"time": 3498, "pitch": 60, "duration": 4, "velocity": 65}, {"time": 3498, "pitch": 65, "duration": 4, "velocity": 58}, {"time": 3501, "pitch": 48, "duration": 2, "velocity": 60}, {"time": 3507, "pitch": 48, "duration": 10, "velocity": 67}, {"time": 3507, "pitch": 55, "duration": 3, "velocity": 58}, {"time": 3507, "pitch": 60, "duration": 6, "velocity": 59}, {"time": 3513, "pitch": 55, "duration": 1, "velocity": 41}, {"time": 3516, "pitch": 55, "duration": 4, "velocity": 60}, {"time": 3516, "pitch": 60, "duration": 4, "velocity": 64}, {"time": 3516, "pitch": 64, "duration": 4, "velocity": 65}, {"time": 3522, "pitch": 55, "duration": 3, "velocity": 64}, {"time": 3522, "pitch": 60, "duration": 4, "velocity": 67}, {"time": 3522, "pitch": 64, "duration": 4, "velocity": 64}, {"time": 3528, "pitch": 43, "duration": 4, "velocity": 58}, {"time": 3531, "pitch": 48, "duration": 18, "velocity": 84}, {"time": 3531, "pitch": 55, "duration": 4, "velocity": 62}, {"time": 3531, "pitch": 60, "duration": 5, "velocity": 61}, {"time": 3531, "pitch": 64, "duration": 6, "velocity": 61}, {"time": 3537, "pitch": 55, "duration": 1, "velocity": 50}, {"time": 3540, "pitch": 55, "duration": 4, "velocity": 64}, {"time": 3540, "pitch": 60, "duration": 3, "velocity": 75}, {"time": 3540, "pitch": 64, "duration": 4, "velocity": 72}, {"time": 3546, "pitch": 55, "duration": 2, "velocity": 63}, {"time": 3546, "pitch": 60, "duration": 5, "velocity": 69}, {"time": 3552, "pitch": 55, "duration": 2, "velocity": 51}, {"time": 3555, "pitch": 46, "duration": 19, "velocity": 69}, {"time": 3555, "pitch": 53, "duration": 4, "velocity": 59}, {"time": 3555, "pitch": 58, "duration": 6, "velocity": 53}, {"time": 3561, "pitch": 53, "duration": 1, "velocity": 51}, {"time": 3564, "pitch": 53, "duration": 3, "velocity": 60}, {"time": 3564, "pitch": 58, "duration": 4, "velocity": 69}, {"time": 3564, "pitch": 62, "duration": 4, "velocity": 60}, {"time": 3570, "pitch": 53, "duration": 2, "velocity": 60}, {"time": 3570, "pitch": 58, "duration": 3, "velocity": 72}, {"time": 3570, "pitch": 62, "duration": 4, "velocity": 62}, {"time": 3576, "pitch": 53, "duration": 1, "velocity": 54}, {"time": 3579, "pitch": 48, "duration": 11, "velocity": 65}, {"time": 3579, "pitch": 55, "duration": 3, "velocity": 60}, {"time": 3579, "pitch": 60, "duration": 6, "velocity": 62}, {"time": 3585, "pitch": 55, "duration": 1, "velocity": 53}, {"time": 3588, "pitch": 55, "duration": 4, "velocity": 63}, {"time": 3588, "pitch": 60, "duration": 4, "velocity": 67}, {"time": 3588, "pitch": 64, "duration": 4, "velocity": 69}, {"time": 3594, "pitch": 55, "duration": 2, "velocity": 61}, {"time": 3594, "pitch": 60, "duration": 3, "velocity": 67}, {"time": 3594, "pitch": 64, "duration": 3, "velocity": 64}, {"time": 3603, "pitch": 38, "duration": 47, "velocity": 63}, {"time": 3603, "pitch": 57, "duration": 8, "velocity": 58}, {"time": 3603, "pitch": 62, "duration": 7, "velocity": 56}, {"time": 3615, "pitch": 57, "duration": 5, "velocity": 58}, {"time": 3615, "pitch": 62, "duration": 5, "velocity": 60}, {"time": 3615, "pitch": 65, "duration": 5, "velocity": 59}, {"time": 3621, "pitch": 45, "duration": 4, "velocity": 30}, {"time": 3624, "pitch": 57, "duration": 3, "velocity": 60}, {"time": 3624, "pitch": 62, "duration": 6, "velocity": 60}, {"time": 3624, "pitch": 65, "duration": 6, "velocity": 59}, {"time": 3630, "pitch": 57, "duration": 2, "velocity": 46}, {"time": 3633, "pitch": 62, "duration": 2, "velocity": 47}, {"time": 3639, "pitch": 57, "duration": 3, "velocity": 60}, {"time": 3639, "pitch": 62, "duration": 7, "velocity": 61}, {"time": 3639, "pitch": 65, "duration": 8, "velocity": 59}, {"time": 3645, "pitch": 57, "duration": 3, "velocity": 44}, {"time": 3651, "pitch": 38, "duration": 43, "velocity": 59}, {"time": 3651, "pitch": 57, "duration": 5, "velocity": 38}, {"time": 3651, "pitch": 62, "duration": 6, "velocity": 48}, {"time": 3663, "pitch": 57, "duration": 2, "velocity": 49}, {"time": 3663, "pitch": 65, "duration": 2, "velocity": 48}, {"time": 3672, "pitch": 57, "duration": 2, "velocity": 41}, {"time": 3672, "pitch": 62, "duration": 3, "velocity": 46}, {"time": 3687, "pitch": 57, "duration": 3, "velocity": 54}, {"time": 3687, "pitch": 62, "duration": 2, "velocity": 59}, {"time": 3693, "pitch": 60, "duration": 6, "velocity": 46}, {"time": 3699, "pitch": 46, "duration": 42, "velocity": 62}, {"time": 3699, "pitch": 53, "duration": 5, "velocity": 47}, {"time": 3699, "pitch": 58, "duration": 7, "velocity": 50}, {"time": 3699, "pitch": 62, "duration": 6, "velocity": 47}, {"time": 3711, "pitch": 58, "duration": 3, "velocity": 43}, {"time": 3711, "pitch": 65, "duration": 5, "velocity": 58}, {"time": 3717, "pitch": 53, "duration": 2, "velocity": 43}, {"time": 3720, "pitch": 62, "duration": 3, "velocity": 49}, {"time": 3726, "pitch": 58, "duration": 2, "velocity": 44}, {"time": 3729, "pitch": 53, "duration": 2, "velocity": 46}, {"time": 3735, "pitch": 53, "duration": 2, "velocity": 51}, {"time": 3735, "pitch": 58, "duration": 2, "velocity": 51}, {"time": 3735, "pitch": 62, "duration": 3, "velocity": 55}, {"time": 3747, "pitch": 41, "duration": 31, "velocity": 52}, {"time": 3747, "pitch": 53, "duration": 4, "velocity": 42}, {"time": 3747, "pitch": 57, "duration": 3, "velocity": 45}, {"time": 3759, "pitch": 65, "duration": 3, "velocity": 58}, {"time": 3762, "pitch": 60, "duration": 2, "velocity": 19}, {"time": 3765, "pitch": 53, "duration": 2, "velocity": 47}, {"time": 3768, "pitch": 60, "duration": 3, "velocity": 48}, {"time": 3774, "pitch": 57, "duration": 2, "velocity": 52}, {"time": 3777, "pitch": 53, "duration": 2, "velocity": 50}, {"time": 3783, "pitch": 57, "duration": 2, "velocity": 52}, {"time": 3783, "pitch": 60, "duration": 2, "velocity": 51}, {"time": 3795, "pitch": 53, "duration": 7, "velocity": 47}, {"time": 3795, "pitch": 57, "duration": 7, "velocity": 49}, {"time": 3796, "pitch": 41, "duration": 44, "velocity": 51}, {"time": 3802, "pitch": 48, "duration": 37, "velocity": 47}, {"time": 3809, "pitch": 53, "duration": 8, "velocity": 59}, {"time": 3816, "pitch": 57, "duration": 2, "velocity": 53}, {"time": 3825, "pitch": 57, "duration": 3, "velocity": 43}, {"time": 3828, "pitch": 65, "duration": 3, "velocity": 48}], "annotations": [{"time": 4, "annotation": {"number": 64, "value": 127}, "group": "control_change"}, {"time": 50, "annotation": {"number": 64, "value": 0}, "group": "control_change"}, {"time": 65, "annotation": {"number": 64, "value": 127}, "group": "control_change"}, {"time": 65, "annotation": {"number": 64, "value": 0}, "group": "control_change"}, {"time": 99, "annotation": {"number": 64, "value": 0}, "group": "control_change"}, {"time": 102, "annotation": {"number": 64, "value": 127}, "group": "control_change"}, {"time": 103, "annotation": {"number": 64, "value": 0}, "group": "control_change"}, {"time": 103, "annotation": {"number": 64, "value": 127}, "group": "control_change"}, {"time": 145, "annotation": {"number": 64, "value": 0}, "group": "control_change"}, {"time": 181, "annotation": {"number": 64, "value": 127}, "group": "control_change"}, {"time": 181, "annotation": {"number": 64, "value": 0}, "group": "control_change"}, {"time": 195, "annotation": {"number": 64, "value": 127}, "group": "control_change"}, {"time": 241, "annotation": {"number": 64, "value": 0}, "group": "control_change"}, {"time": 244, "annotation": {"number": 64, "value": 127}, "group": "control_change"}, {"time": 245, "annotation": {"number": 64, "value": 0}, "group": "control_change"}, {"time": 245, "annotation": {"number": 64, "value": 127}, "group": "control_change"}, {"time": 290, "annotation": {"number": 64, "value": 0}, "group": "control_change"}, {"time": 292, "annotation": {"number": 64, "value": 127}, "group": "control_change"}, {"time": 337, "annotation": {"number": 64, "value": 0}, "group": "control_change"}, {"time": 340, "annotation": {"number": 64, "value": 127}, "group": "control_change"}, {"time": 384, "annotation": {"number": 64, "value": 0}, "group": "control_change"}, {"time": 389, "annotation": {"number": 64, "value": 127}, "group": "control_change"}, {"time": 434, "annotation": {"number": 64, "value": 0}, "group": "control_change"}, {"time": 436, "annotation": {"number": 64, "value": 127}, "group": "control_change"}, {"time": 458, "annotation": {"number": 64, "value": 0}, "group": "control_change"}, {"time": 459, "annotation": {"number": 64, "value": 127}, "group": "control_change"}, {"time": 480, "annotation": {"number": 64, "value": 0}, "group": "control_change"}, {"time": 527, "annotation": {"number": 64, "value": 0}, "group": "control_change"}, {"time": 532, "annotation": {"number": 64, "value": 127}, "group": "control_change"}, {"time": 554, "annotation": {"number": 64, "value": 0}, "group": "control_change"}, {"time": 556, "annotation": {"number": 64, "value": 127}, "group": "control_change"}, {"time": 577, "annotation": {"number": 64, "value": 0}, "group": "control_change"}, {"time": 580, "annotation": {"number": 64, "value": 127}, "group": "control_change"}, {"time": 601, "annotation": {"number": 64, "value": 0}, "group": "control_change"}, {"time": 603, "annotation": {"number": 64, "value": 127}, "group": "control_change"}, {"time": 626, "annotation": {"number": 64, "value": 0}, "group": "control_change"}, {"time": 628, "annotation": {"number": 64, "value": 127}, "group": "control_change"}, {"time": 650, "annotation": {"number": 64, "value": 0}, "group": "control_change"}, {"time": 652, "annotation": {"number": 64, "value": 127}, "group": "control_change"}, {"time": 672, "annotation": {"number": 64, "value": 0}, "group": "control_change"}, {"time": 719, "annotation": {"number": 64, "value": 0}, "group": "control_change"}, {"time": 724, "annotation": {"number": 64, "value": 127}, "group": "control_change"}, {"time": 746, "annotation": {"number": 64, "value": 0}, "group": "control_change"}, {"time": 748, "annotation": {"number": 64, "value": 127}, "group": "control_change"}, {"time": 769, "annotation": {"number": 64, "value": 0}, "group": "control_change"}, {"time": 772, "annotation": {"number": 64, "value": 127}, "group": "control_change"}, {"time": 793, "annotation": {"number": 64, "value": 0}, "group": "control_change"}, {"time": 795, "annotation": {"number": 64, "value": 127}, "group": "control_change"}, {"time": 818, "annotation": {"number": 64, "value": 0}, "group": "control_change"}, {"time": 820, "annotation": {"number": 64, "value": 127}, "group": "control_change"}, {"time": 842, "annotation": {"number": 64, "value": 0}, "group": "control_change"}, {"time": 844, "annotation": {"number": 64, "value": 127}, "group": "control_change"}, {"time": 864, "annotation": {"number": 64, "value": 0}, "group": "control_change"}, {"time": 868, "annotation": {"number": 64, "value": 127}, "group": "control_change"}, {"time": 889, "annotation": {"number": 64, "value": 0}, "group": "control_change"}, {"time": 893, "annotation": {"number": 64, "value": 127}, "group": "control_change"}, {"time": 915, "annotation": {"number": 64, "value": 0}, "group": "control_change"}, {"time": 918, "annotation": {"number": 64, "value": 127}, "group": "control_change"}, {"time": 938, "annotation": {"number": 64, "value": 0}, "group": "control_change"}, {"time": 941, "annotation": {"number": 64, "value": 127}, "group": "control_change"}, {"time": 962, "annotation": {"number": 64, "value": 0}, "group": "control_change"}, {"time": 965, "annotation": {"number": 64, "value": 127}, "group": "control_change"}, {"time": 986, "annotation": {"number": 64, "value": 0}, "group": "control_change"}, {"time": 988, "annotation": {"number": 64, "value": 127}, "group": "control_change"}, {"time": 1008, "annotation": {"number": 64, "value": 0}, "group": "control_change"}, {"time": 1011, "annotation": {"number": 64, "value": 127}, "group": "control_change"}, {"time": 1034, "annotation": {"number": 64, "value": 0}, "group": "control_change"}, {"time": 1036, "annotation": {"number": 64, "value": 127}, "group": "control_change"}, {"time": 1056, "annotation": {"number": 64, "value": 0}, "group": "control_change"}, {"time": 1064, "annotation": {"number": 64, "value": 127}, "group": "control_change"}, {"time": 1103, "annotation": {"number": 64, "value": 0}, "group": "control_change"}, {"time": 1108, "annotation": {"number": 64, "value": 127}, "group": "control_change"}, {"time": 1152, "annotation": {"number": 64, "value": 0}, "group": "control_change"}, {"time": 1157, "annotation": {"number": 64, "value": 127}, "group": "control_change"}, {"time": 1179, "annotation": {"number": 64, "value": 0}, "group": "control_change"}, {"time": 1181, "annotation": {"number": 64, "value": 127}, "group": "control_change"}, {"time": 1201, "annotation": {"number": 64, "value": 0}, "group": "control_change"}, {"time": 1204, "annotation": {"number": 64, "value": 127}, "group": "control_change"}, {"time": 1225, "annotation": {"number": 64, "value": 0}, "group": "control_change"}, {"time": 1228, "annotation": {"number": 64, "value": 127}, "group": "control_change"}, {"time": 1251, "annotation": {"number": 64, "value": 0}, "group": "control_change"}, {"time": 1257, "annotation": {"number": 64, "value": 127}, "group": "control_change"}, {"time": 1298, "annotation": {"number": 64, "value": 0}, "group": "control_change"}, {"time": 1301, "annotation": {"number": 64, "value": 127}, "group": "control_change"}, {"time": 1321, "annotation": {"number": 64, "value": 0}, "group": "control_change"}, {"time": 1322, "annotation": {"number": 64, "value": 127}, "group": "control_change"}, {"time": 1345, "annotation": {"number": 64, "value": 0}, "group": "control_change"}, {"time": 1347, "annotation": {"number": 64, "value": 127}, "group": "control_change"}, {"time": 1369, "annotation": {"number": 64, "value": 0}, "group": "control_change"}, {"time": 1372, "annotation": {"number": 64, "value": 127}, "group": "control_change"}, {"time": 1393, "annotation": {"number": 64, "value": 0}, "group": "control_change"}, {"time": 1395, "annotation": {"number": 64, "value": 127}, "group": "control_change"}, {"time": 1441, "annotation": {"number": 64, "value": 0}, "group": "control_change"}, {"time": 1444, "annotation": {"number": 64, "value": 127}, "group": "control_change"}, {"time": 1489, "annotation": {"number": 64, "value": 0}, "group": "control_change"}, {"time": 1492, "annotation": {"number": 64, "value": 127}, "group": "control_change"}, {"time": 1582, "annotation": {"number": 64, "value": 0}, "group": "control_change"}, {"time": 1631, "annotation": {"number": 64, "value": 0}, "group": "control_change"}, {"time": 1636, "annotation": {"number": 64, "value": 127}, "group": "control_change"}, {"time": 1658, "annotation": {"number": 64, "value": 0}, "group": "control_change"}, {"time": 1660, "annotation": {"number": 64, "value": 127}, "group": "control_change"}, {"time": 1681, "annotation": {"number": 64, "value": 0}, "group": "control_change"}, {"time": 1684, "annotation": {"number": 64, "value": 127}, "group": "control_change"}, {"time": 1705, "annotation": {"number": 64, "value": 0}, "group": "control_change"}, {"time": 1707, "annotation": {"number": 64, "value": 127}, "group": "control_change"}, {"time": 1730, "annotation": {"number": 64, "value": 0}, "group": "control_change"}, {"time": 1732, "annotation": {"number": 64, "value": 127}, "group": "control_change"}, {"time": 1754, "annotation": {"number": 64, "value": 0}, "group": "control_change"}, {"time": 1756, "annotation": {"number": 64, "value": 127}, "group": "control_change"}, {"time": 1776, "annotation": {"number": 64, "value": 0}, "group": "control_change"}, {"time": 1823, "annotation": {"number": 64, "value": 0}, "group": "control_change"}, {"time": 1828, "annotation": {"number": 64, "value": 127}, "group": "control_change"}, {"time": 1850, "annotation": {"number": 64, "value": 0}, "group": "control_change"}, {"time": 1852, "annotation": {"number": 64, "value": 127}, "group": "control_change"}, {"time": 1873, "annotation": {"number": 64, "value": 0}, "group": "control_change"}, {"time": 1876, "annotation": {"number": 64, "value": 127}, "group": "control_change"}, {"time": 1897, "annotation": {"number": 64, "value": 0}, "group": "control_change"}, {"time": 1899, "annotation": {"number": 64, "value": 127}, "group": "control_change"}, {"time": 1922, "annotation": {"number": 64, "value": 0}, "group": "control_change"}, {"time": 1924, "annotation": {"number": 64, "value": 127}, "group": "control_change"}, {"time": 1946, "annotation": {"number": 64, "value": 0}, "group": "control_change"}, {"time": 1948, "annotation": {"number": 64, "value": 127}, "group": "control_change"}, {"time": 1968, "annotation": {"number": 64, "value": 0}, "group": "control_change"}, {"time": 1972, "annotation": {"number": 64, "value": 127}, "group": "control_change"}, {"time": 1993, "annotation": {"number": 64, "value": 0}, "group": "control_change"}, {"time": 1997, "annotation": {"number": 64, "value": 127}, "group": "control_change"}, {"time": 2019, "annotation": {"number": 64, "value": 0}, "group": "control_change"}, {"time": 2022, "annotation": {"number": 64, "value": 127}, "group": "control_change"}, {"time": 2042, "annotation": {"number": 64, "value": 0}, "group": "control_change"}, {"time": 2045, "annotation": {"number": 64, "value": 127}, "group": "control_change"}, {"time": 2066, "annotation": {"number": 64, "value": 0}, "group": "control_change"}, {"time": 2069, "annotation": {"number": 64, "value": 127}, "group": "control_change"}, {"time": 2090, "annotation": {"number": 64, "value": 0}, "group": "control_change"}, {"time": 2092, "annotation": {"number": 64, "value": 127}, "group": "control_change"}, {"time": 2112, "annotation": {"number": 64, "value": 0}, "group": "control_change"}, {"time": 2115, "annotation": {"number": 64, "value": 127}, "group": "control_change"}, {"time": 2138, "annotation": {"number": 64, "value": 0}, "group": "control_change"}, {"time": 2140, "annotation": {"number": 64, "value": 127}, "group": "control_change"}, {"time": 2160, "annotation": {"number": 64, "value": 0}, "group": "control_change"}, {"time": 2168, "annotation": {"number": 64, "value": 127}, "group": "control_change"}, {"time": 2207, "annotation": {"number": 64, "value": 0}, "group": "control_change"}, {"time": 2212, "annotation": {"number": 64, "value": 127}, "group": "control_change"}, {"time": 2256, "annotation": {"number": 64, "value": 0}, "group": "control_change"}, {"time": 2261, "annotation": {"number": 64, "value": 127}, "group": "control_change"}, {"time": 2283, "annotation": {"number": 64, "value": 0}, "group": "control_change"}, {"time": 2285, "annotation": {"number": 64, "value": 127}, "group": "control_change"}, {"time": 2305, "annotation": {"number": 64, "value": 0}, "group": "control_change"}, {"time": 2308, "annotation": {"number": 64, "value": 127}, "group": "control_change"}, {"time": 2329, "annotation": {"number": 64, "value": 0}, "group": "control_change"}, {"time": 2332, "annotation": {"number": 64, "value": 127}, "group": "control_change"}, {"time": 2355, "annotation": {"number": 64, "value": 0}, "group": "control_change"}, {"time": 2361, "annotation": {"number": 64, "value": 127}, "group": "control_change"}, {"time": 2402, "annotation": {"number": 64, "value": 0}, "group": "control_change"}, {"time": 2405, "annotation": {"number": 64, "value": 127}, "group": "control_change"}, {"time": 2425, "annotation": {"number": 64, "value": 0}, "group": "control_change"}, {"time": 2426, "annotation": {"number": 64, "value": 127}, "group": "control_change"}, {"time": 2449, "annotation": {"number": 64, "value": 0}, "group": "control_change"}, {"time": 2451, "annotation": {"number": 64, "value": 127}, "group": "control_change"}, {"time": 2473, "annotation": {"number": 64, "value": 0}, "group": "control_change"}, {"time": 2476, "annotation": {"number": 64, "value": 127}, "group": "control_change"}, {"time": 2497, "annotation": {"number": 64, "value": 0}, "group": "control_change"}, {"time": 2500, "annotation": {"number": 64, "value": 127}, "group": "control_change"}, {"time": 2500, "annotation": {"number": 64, "value": 0}, "group": "control_change"}, {"time": 2546, "annotation": {"number": 64, "value": 0}, "group": "control_change"}, {"time": 2549, "annotation": {"number": 64, "value": 127}, "group": "control_change"}, {"time": 2593, "annotation": {"number": 64, "value": 0}, "group": "control_change"}, {"time": 2596, "annotation": {"number": 64, "value": 127}, "group": "control_change"}, {"time": 2642, "annotation": {"number": 64, "value": 0}, "group": "control_change"}, {"time": 2644, "annotation": {"number": 64, "value": 127}, "group": "control_change"}, {"time": 2665, "annotation": {"number": 64, "value": 0}, "group": "control_change"}, {"time": 2667, "annotation": {"number": 64, "value": 127}, "group": "control_change"}, {"time": 2689, "annotation": {"number": 64, "value": 0}, "group": "control_change"}, {"time": 2692, "annotation": {"number": 64, "value": 127}, "group": "control_change"}, {"time": 2692, "annotation": {"number": 64, "value": 0}, "group": "control_change"}, {"time": 2738, "annotation": {"number": 64, "value": 0}, "group": "control_change"}, {"time": 2741, "annotation": {"number": 64, "value": 127}, "group": "control_change"}, {"time": 2785, "annotation": {"number": 64, "value": 0}, "group": "control_change"}, {"time": 2788, "annotation": {"number": 64, "value": 127}, "group": "control_change"}, {"time": 2834, "annotation": {"number": 64, "value": 0}, "group": "control_change"}, {"time": 2836, "annotation": {"number": 64, "value": 127}, "group": "control_change"}, {"time": 2857, "annotation": {"number": 64, "value": 0}, "group": "control_change"}, {"time": 2859, "annotation": {"number": 64, "value": 127}, "group": "control_change"}, {"time": 2881, "annotation": {"number": 64, "value": 0}, "group": "control_change"}, {"time": 2894, "annotation": {"number": 64, "value": 127}, "group": "control_change"}, {"time": 2929, "annotation": {"number": 64, "value": 0}, "group": "control_change"}, {"time": 2932, "annotation": {"number": 64, "value": 127}, "group": "control_change"}, {"time": 2976, "annotation": {"number": 64, "value": 0}, "group": "control_change"}, {"time": 2981, "annotation": {"number": 64, "value": 127}, "group": "control_change"}, {"time": 3003, "annotation": {"number": 64, "value": 0}, "group": "control_change"}, {"time": 3005, "annotation": {"number": 64, "value": 127}, "group": "control_change"}, {"time": 3025, "annotation": {"number": 64, "value": 0}, "group": "control_change"}, {"time": 3028, "annotation": {"number": 64, "value": 127}, "group": "control_change"}, {"time": 3049, "annotation": {"number": 64, "value": 0}, "group": "control_change"}, {"time": 3052, "annotation": {"number": 64, "value": 127}, "group": "control_change"}, {"time": 3075, "annotation": {"number": 64, "value": 0}, "group": "control_change"}, {"time": 3081, "annotation": {"number": 64, "value": 127}, "group": "control_change"}, {"time": 3122, "annotation": {"number": 64, "value": 0}, "group": "control_change"}, {"time": 3125, "annotation": {"number": 64, "value": 127}, "group": "control_change"}, {"time": 3145, "annotation": {"number": 64, "value": 0}, "group": "control_change"}, {"time": 3146, "annotation": {"number": 64, "value": 127}, "group": "control_change"}, {"time": 3169, "annotation": {"number": 64, "value": 0}, "group": "control_change"}, {"time": 3171, "annotation": {"number": 64, "value": 127}, "group": "control_change"}, {"time": 3193, "annotation": {"number": 64, "value": 0}, "group": "control_change"}, {"time": 3196, "annotation": {"number": 64, "value": 127}, "group": "control_change"}, {"time": 3217, "annotation": {"number": 64, "value": 0}, "group": "control_change"}, {"time": 3255, "annotation": {"number": 64, "value": 0}, "group": "control_change"}, {"time": 3272, "annotation": {"number": 64, "value": 127}, "group": "control_change"}, {"time": 3311, "annotation": {"number": 64, "value": 0}, "group": "control_change"}, {"time": 3316, "annotation": {"number": 64, "value": 127}, "group": "control_change"}, {"time": 3360, "annotation": {"number": 64, "value": 0}, "group": "control_change"}, {"time": 3365, "annotation": {"number": 64, "value": 127}, "group": "control_change"}, {"time": 3387, "annotation": {"number": 64, "value": 0}, "group": "control_change"}, {"time": 3389, "annotation": {"number": 64, "value": 127}, "group": "control_change"}, {"time": 3409, "annotation": {"number": 64, "value": 0}, "group": "control_change"}, {"time": 3412, "annotation": {"number": 64, "value": 127}, "group": "control_change"}, {"time": 3433, "annotation": {"number": 64, "value": 0}, "group": "control_change"}, {"time": 3436, "annotation": {"number": 64, "value": 127}, "group": "control_change"}, {"time": 3459, "annotation": {"number": 64, "value": 0}, "group": "control_change"}, {"time": 3465, "annotation": {"number": 64, "value": 127}, "group": "control_change"}, {"time": 3506, "annotation": {"number": 64, "value": 0}, "group": "control_change"}, {"time": 3509, "annotation": {"number": 64, "value": 127}, "group": "control_change"}, {"time": 3529, "annotation": {"number": 64, "value": 0}, "group": "control_change"}, {"time": 3530, "annotation": {"number": 64, "value": 127}, "group": "control_change"}, {"time": 3553, "annotation": {"number": 64, "value": 0}, "group": "control_change"}, {"time": 3555, "annotation": {"number": 64, "value": 127}, "group": "control_change"}, {"time": 3577, "annotation": {"number": 64, "value": 0}, "group": "control_change"}, {"time": 3580, "annotation": {"number": 64, "value": 127}, "group": "control_change"}, {"time": 3601, "annotation": {"number": 64, "value": 0}, "group": "control_change"}, {"time": 3651, "annotation": {"number": 64, "value": 0}, "group": "control_change"}, {"time": 3653, "annotation": {"number": 64, "value": 127}, "group": "control_change"}, {"time": 3698, "annotation": {"number": 64, "value": 0}, "group": "control_change"}, {"time": 3699, "annotation": {"number": 64, "value": 127}, "group": "control_change"}, {"time": 3700, "annotation": {"number": 64, "value": 0}, "group": "control_change"}, {"time": 3700, "annotation": {"number": 64, "value": 127}, "group": "control_change"}, {"time": 3745, "annotation": {"number": 64, "value": 0}, "group": "control_change"}, {"time": 3748, "annotation": {"number": 64, "value": 127}, "group": "control_change"}, {"time": 3794, "annotation": {"number": 64, "value": 0}, "group": "control_change"}, {"time": 3797, "annotation": {"number": 64, "value": 127}, "group": "control_change"}, {"time": 3904, "annotation": {"number": 64, "value": 127}, "group": "control_change"}]}]}