{"metadata": {"schema_version": "0.2", "title": "None", "source_filename": "514.mid", "source_format": "midi"}, "resolution": 12, "tempos": [{"time": 0, "qpm": 96.0}], "time_signatures": [{"time": 0, "numerator": 1, "denominator": 4}], "tracks": [{"program": 4, "is_drum": false, "name": "MELODY", "notes": [{"time": 205, "pitch": 70, "duration": 5, "velocity": 92}, {"time": 211, "pitch": 71, "duration": 5, "velocity": 93}, {"time": 217, "pitch": 73, "duration": 9, "velocity": 94}, {"time": 229, "pitch": 73, "duration": 10, "velocity": 97}, {"time": 241, "pitch": 73, "duration": 4, "velocity": 99}, {"time": 247, "pitch": 71, "duration": 4, "velocity": 89}, {"time": 253, "pitch": 70, "duration": 4, "velocity": 93}, {"time": 259, "pitch": 66, "duration": 4, "velocity": 91}, {"time": 265, "pitch": 68, "duration": 10, "velocity": 94}, {"time": 277, "pitch": 73, "duration": 11, "velocity": 97}, {"time": 301, "pitch": 66, "duration": 4, "velocity": 89}, {"time": 307, "pitch": 68, "duration": 4, "velocity": 90}, {"time": 313, "pitch": 70, "duration": 10, "velocity": 88}, {"time": 325, "pitch": 70, "duration": 10, "velocity": 92}, {"time": 337, "pitch": 71, "duration": 4, "velocity": 89}, {"time": 343, "pitch": 70, "duration": 4, "velocity": 92}, {"time": 349, "pitch": 68, "duration": 5, "velocity": 90}, {"time": 355, "pitch": 66, "duration": 5, "velocity": 88}, {"time": 361, "pitch": 65, "duration": 11, "velocity": 94}, {"time": 373, "pitch": 70, "duration": 19, "velocity": 92}, {"time": 397, "pitch": 70, "duration": 5, "velocity": 91}, {"time": 403, "pitch": 73, "duration": 4, "velocity": 99}, {"time": 409, "pitch": 75, "duration": 9, "velocity": 93}, {"time": 421, "pitch": 75, "duration": 9, "velocity": 95}, {"time": 433, "pitch": 80, "duration": 4, "velocity": 93}, {"time": 439, "pitch": 77, "duration": 4, "velocity": 90}, {"time": 445, "pitch": 75, "duration": 4, "velocity": 93}, {"time": 451, "pitch": 73, "duration": 4, "velocity": 95}, {"time": 457, "pitch": 73, "duration": 9, "velocity": 97}, {"time": 469, "pitch": 78, "duration": 8, "velocity": 91}, {"time": 481, "pitch": 66, "duration": 12, "velocity": 89}, {"time": 493, "pitch": 68, "duration": 5, "velocity": 89}, {"time": 499, "pitch": 70, "duration": 4, "velocity": 92}, {"time": 505, "pitch": 71, "duration": 9, "velocity": 90}, {"time": 517, "pitch": 71, "duration": 3, "velocity": 90}, {"time": 523, "pitch": 73, "duration": 4, "velocity": 102}, {"time": 529, "pitch": 75, "duration": 10, "velocity": 90}, {"time": 541, "pitch": 73, "duration": 10, "velocity": 99}, {"time": 553, "pitch": 70, "duration": 4, "velocity": 89}, {"time": 559, "pitch": 68, "duration": 20, "velocity": 90}, {"time": 589, "pitch": 70, "duration": 5, "velocity": 92}, {"time": 595, "pitch": 71, "duration": 5, "velocity": 93}, {"time": 601, "pitch": 73, "duration": 9, "velocity": 94}, {"time": 613, "pitch": 73, "duration": 10, "velocity": 97}, {"time": 625, "pitch": 73, "duration": 4, "velocity": 99}, {"time": 631, "pitch": 71, "duration": 4, "velocity": 89}, {"time": 637, "pitch": 70, "duration": 4, "velocity": 93}, {"time": 643, "pitch": 66, "duration": 4, "velocity": 91}, {"time": 649, "pitch": 68, "duration": 10, "velocity": 94}, {"time": 661, "pitch": 73, "duration": 11, "velocity": 97}, {"time": 685, "pitch": 75, "duration": 4, "velocity": 89}, {"time": 691, "pitch": 77, "duration": 4, "velocity": 90}, {"time": 697, "pitch": 78, "duration": 10, "velocity": 88}, {"time": 709, "pitch": 78, "duration": 10, "velocity": 92}, {"time": 721, "pitch": 80, "duration": 4, "velocity": 89}, {"time": 727, "pitch": 78, "duration": 4, "velocity": 92}, {"time": 733, "pitch": 73, "duration": 5, "velocity": 90}, {"time": 739, "pitch": 70, "duration": 5, "velocity": 88}, {"time": 745, "pitch": 75, "duration": 6, "velocity": 94}, {"time": 751, "pitch": 73, "duration": 24, "velocity": 92}, {"time": 781, "pitch": 75, "duration": 4, "velocity": 99}, {"time": 787, "pitch": 77, "duration": 4, "velocity": 90}, {"time": 793, "pitch": 78, "duration": 9, "velocity": 89}, {"time": 805, "pitch": 78, "duration": 10, "velocity": 90}, {"time": 817, "pitch": 80, "duration": 4, "velocity": 86}, {"time": 823, "pitch": 78, "duration": 5, "velocity": 93}, {"time": 829, "pitch": 75, "duration": 4, "velocity": 92}, {"time": 835, "pitch": 78, "duration": 4, "velocity": 92}, {"time": 841, "pitch": 73, "duration": 8, "velocity": 95}, {"time": 853, "pitch": 78, "duration": 8, "velocity": 91}, {"time": 865, "pitch": 66, "duration": 12, "velocity": 89}, {"time": 877, "pitch": 68, "duration": 5, "velocity": 89}, {"time": 883, "pitch": 70, "duration": 4, "velocity": 92}, {"time": 889, "pitch": 71, "duration": 9, "velocity": 90}, {"time": 901, "pitch": 71, "duration": 3, "velocity": 90}, {"time": 907, "pitch": 73, "duration": 4, "velocity": 102}, {"time": 913, "pitch": 75, "duration": 10, "velocity": 90}, {"time": 925, "pitch": 77, "duration": 5, "velocity": 92}, {"time": 931, "pitch": 78, "duration": 13, "velocity": 89}, {"time": 943, "pitch": 80, "duration": 24, "velocity": 90}, {"time": 973, "pitch": 78, "duration": 5, "velocity": 92}, {"time": 979, "pitch": 80, "duration": 4, "velocity": 95}, {"time": 985, "pitch": 82, "duration": 14, "velocity": 92}, {"time": 1003, "pitch": 78, "duration": 5, "velocity": 89}, {"time": 1009, "pitch": 73, "duration": 5, "velocity": 104}, {"time": 1015, "pitch": 78, "duration": 3, "velocity": 92}, {"time": 1021, "pitch": 78, "duration": 5, "velocity": 91}, {"time": 1027, "pitch": 87, "duration": 10, "velocity": 99}, {"time": 1039, "pitch": 85, "duration": 11, "velocity": 92}, {"time": 1051, "pitch": 85, "duration": 4, "velocity": 90}, {"time": 1057, "pitch": 85, "duration": 4, "velocity": 92}, {"time": 1063, "pitch": 80, "duration": 3, "velocity": 93}, {"time": 1069, "pitch": 80, "duration": 4, "velocity": 92}, {"time": 1075, "pitch": 83, "duration": 4, "velocity": 93}, {"time": 1081, "pitch": 82, "duration": 4, "velocity": 90}, {"time": 1087, "pitch": 78, "duration": 9, "velocity": 90}, {"time": 1099, "pitch": 70, "duration": 4, "velocity": 97}, {"time": 1105, "pitch": 70, "duration": 4, "velocity": 99}, {"time": 1111, "pitch": 78, "duration": 4, "velocity": 90}, {"time": 1117, "pitch": 78, "duration": 4, "velocity": 91}, {"time": 1123, "pitch": 77, "duration": 4, "velocity": 91}, {"time": 1129, "pitch": 77, "duration": 7, "velocity": 88}, {"time": 1141, "pitch": 70, "duration": 5, "velocity": 93}, {"time": 1147, "pitch": 73, "duration": 10, "velocity": 93}, {"time": 1159, "pitch": 75, "duration": 4, "velocity": 99}, {"time": 1165, "pitch": 77, "duration": 5, "velocity": 90}, {"time": 1171, "pitch": 78, "duration": 4, "velocity": 92}, {"time": 1177, "pitch": 80, "duration": 14, "velocity": 88}, {"time": 1195, "pitch": 78, "duration": 5, "velocity": 90}, {"time": 1201, "pitch": 77, "duration": 5, "velocity": 92}, {"time": 1207, "pitch": 78, "duration": 4, "velocity": 92}, {"time": 1213, "pitch": 80, "duration": 5, "velocity": 95}, {"time": 1219, "pitch": 83, "duration": 4, "velocity": 90}, {"time": 1225, "pitch": 82, "duration": 11, "velocity": 89}, {"time": 1237, "pitch": 80, "duration": 9, "velocity": 92}, {"time": 1249, "pitch": 78, "duration": 9, "velocity": 89}, {"time": 1261, "pitch": 75, "duration": 4, "velocity": 95}, {"time": 1267, "pitch": 77, "duration": 4, "velocity": 89}, {"time": 1273, "pitch": 78, "duration": 11, "velocity": 90}, {"time": 1285, "pitch": 78, "duration": 3, "velocity": 86}, {"time": 1291, "pitch": 78, "duration": 3, "velocity": 85}, {"time": 1297, "pitch": 78, "duration": 6, "velocity": 94}, {"time": 1303, "pitch": 77, "duration": 3, "velocity": 84}, {"time": 1309, "pitch": 77, "duration": 4, "velocity": 90}, {"time": 1315, "pitch": 78, "duration": 10, "velocity": 94}, {"time": 1327, "pitch": 80, "duration": 21, "velocity": 90}, {"time": 1357, "pitch": 78, "duration": 5, "velocity": 92}, {"time": 1363, "pitch": 80, "duration": 4, "velocity": 95}, {"time": 1369, "pitch": 82, "duration": 14, "velocity": 92}, {"time": 1387, "pitch": 78, "duration": 5, "velocity": 89}, {"time": 1393, "pitch": 73, "duration": 5, "velocity": 104}, {"time": 1399, "pitch": 78, "duration": 3, "velocity": 92}, {"time": 1405, "pitch": 78, "duration": 5, "velocity": 91}, {"time": 1411, "pitch": 87, "duration": 10, "velocity": 99}, {"time": 1423, "pitch": 85, "duration": 11, "velocity": 92}, {"time": 1435, "pitch": 85, "duration": 4, "velocity": 90}, {"time": 1441, "pitch": 85, "duration": 4, "velocity": 92}, {"time": 1447, "pitch": 80, "duration": 3, "velocity": 93}, {"time": 1453, "pitch": 80, "duration": 4, "velocity": 92}, {"time": 1459, "pitch": 83, "duration": 4, "velocity": 93}, {"time": 1465, "pitch": 82, "duration": 4, "velocity": 90}, {"time": 1471, "pitch": 78, "duration": 9, "velocity": 90}, {"time": 1483, "pitch": 70, "duration": 4, "velocity": 97}, {"time": 1489, "pitch": 70, "duration": 4, "velocity": 99}, {"time": 1495, "pitch": 78, "duration": 4, "velocity": 90}, {"time": 1501, "pitch": 78, "duration": 4, "velocity": 91}, {"time": 1507, "pitch": 77, "duration": 4, "velocity": 91}, {"time": 1513, "pitch": 75, "duration": 7, "velocity": 88}, {"time": 1525, "pitch": 70, "duration": 5, "velocity": 93}, {"time": 1531, "pitch": 73, "duration": 10, "velocity": 93}, {"time": 1543, "pitch": 75, "duration": 4, "velocity": 99}, {"time": 1549, "pitch": 77, "duration": 5, "velocity": 90}, {"time": 1555, "pitch": 78, "duration": 4, "velocity": 92}, {"time": 1561, "pitch": 80, "duration": 14, "velocity": 88}, {"time": 1579, "pitch": 78, "duration": 5, "velocity": 90}, {"time": 1585, "pitch": 77, "duration": 5, "velocity": 92}, {"time": 1591, "pitch": 78, "duration": 4, "velocity": 92}, {"time": 1597, "pitch": 80, "duration": 5, "velocity": 95}, {"time": 1603, "pitch": 83, "duration": 4, "velocity": 90}, {"time": 1609, "pitch": 82, "duration": 11, "velocity": 89}, {"time": 1621, "pitch": 80, "duration": 9, "velocity": 92}, {"time": 1633, "pitch": 78, "duration": 9, "velocity": 89}, {"time": 1645, "pitch": 80, "duration": 3, "velocity": 95}, {"time": 1651, "pitch": 82, "duration": 4, "velocity": 95}, {"time": 1657, "pitch": 83, "duration": 9, "velocity": 94}, {"time": 1665, "pitch": 82, "duration": 7, "velocity": 90}, {"time": 1674, "pitch": 80, "duration": 4, "velocity": 91}, {"time": 1681, "pitch": 78, "duration": 9, "velocity": 89}, {"time": 1693, "pitch": 75, "duration": 4, "velocity": 90}, {"time": 1699, "pitch": 77, "duration": 11, "velocity": 90}, {"time": 1711, "pitch": 78, "duration": 41, "velocity": 90}, {"time": 1885, "pitch": 70, "duration": 5, "velocity": 92}, {"time": 1891, "pitch": 71, "duration": 5, "velocity": 93}, {"time": 1897, "pitch": 73, "duration": 9, "velocity": 94}, {"time": 1909, "pitch": 73, "duration": 10, "velocity": 97}, {"time": 1921, "pitch": 73, "duration": 4, "velocity": 99}, {"time": 1927, "pitch": 71, "duration": 4, "velocity": 89}, {"time": 1933, "pitch": 70, "duration": 4, "velocity": 93}, {"time": 1939, "pitch": 66, "duration": 4, "velocity": 91}, {"time": 1945, "pitch": 68, "duration": 10, "velocity": 94}, {"time": 1957, "pitch": 73, "duration": 11, "velocity": 97}, {"time": 1981, "pitch": 75, "duration": 4, "velocity": 89}, {"time": 1987, "pitch": 77, "duration": 4, "velocity": 90}, {"time": 1993, "pitch": 78, "duration": 10, "velocity": 88}, {"time": 2005, "pitch": 78, "duration": 10, "velocity": 92}, {"time": 2017, "pitch": 80, "duration": 4, "velocity": 89}, {"time": 2023, "pitch": 78, "duration": 4, "velocity": 92}, {"time": 2029, "pitch": 73, "duration": 5, "velocity": 90}, {"time": 2035, "pitch": 70, "duration": 5, "velocity": 88}, {"time": 2041, "pitch": 75, "duration": 6, "velocity": 94}, {"time": 2047, "pitch": 73, "duration": 24, "velocity": 92}, {"time": 2077, "pitch": 75, "duration": 4, "velocity": 99}, {"time": 2083, "pitch": 77, "duration": 4, "velocity": 90}, {"time": 2089, "pitch": 78, "duration": 9, "velocity": 89}, {"time": 2101, "pitch": 78, "duration": 10, "velocity": 90}, {"time": 2113, "pitch": 80, "duration": 4, "velocity": 86}, {"time": 2119, "pitch": 78, "duration": 5, "velocity": 93}, {"time": 2125, "pitch": 75, "duration": 4, "velocity": 92}, {"time": 2131, "pitch": 78, "duration": 4, "velocity": 92}, {"time": 2137, "pitch": 73, "duration": 8, "velocity": 95}, {"time": 2149, "pitch": 78, "duration": 8, "velocity": 91}, {"time": 2161, "pitch": 66, "duration": 12, "velocity": 89}, {"time": 2173, "pitch": 68, "duration": 5, "velocity": 89}, {"time": 2179, "pitch": 70, "duration": 4, "velocity": 92}, {"time": 2185, "pitch": 71, "duration": 9, "velocity": 90}, {"time": 2197, "pitch": 71, "duration": 3, "velocity": 90}, {"time": 2203, "pitch": 73, "duration": 4, "velocity": 102}, {"time": 2209, "pitch": 75, "duration": 10, "velocity": 90}, {"time": 2221, "pitch": 77, "duration": 5, "velocity": 92}, {"time": 2227, "pitch": 78, "duration": 13, "velocity": 89}, {"time": 2239, "pitch": 80, "duration": 24, "velocity": 90}, {"time": 2269, "pitch": 78, "duration": 5, "velocity": 92}, {"time": 2275, "pitch": 80, "duration": 4, "velocity": 95}, {"time": 2281, "pitch": 82, "duration": 14, "velocity": 92}, {"time": 2299, "pitch": 78, "duration": 5, "velocity": 89}, {"time": 2305, "pitch": 73, "duration": 5, "velocity": 104}, {"time": 2311, "pitch": 78, "duration": 3, "velocity": 92}, {"time": 2317, "pitch": 78, "duration": 5, "velocity": 91}, {"time": 2323, "pitch": 87, "duration": 10, "velocity": 99}, {"time": 2335, "pitch": 85, "duration": 11, "velocity": 92}, {"time": 2347, "pitch": 85, "duration": 4, "velocity": 90}, {"time": 2353, "pitch": 85, "duration": 4, "velocity": 92}, {"time": 2359, "pitch": 80, "duration": 3, "velocity": 93}, {"time": 2365, "pitch": 80, "duration": 4, "velocity": 92}, {"time": 2371, "pitch": 83, "duration": 4, "velocity": 93}, {"time": 2377, "pitch": 82, "duration": 4, "velocity": 90}, {"time": 2383, "pitch": 78, "duration": 9, "velocity": 90}, {"time": 2395, "pitch": 70, "duration": 4, "velocity": 97}, {"time": 2401, "pitch": 70, "duration": 4, "velocity": 99}, {"time": 2407, "pitch": 78, "duration": 4, "velocity": 90}, {"time": 2413, "pitch": 78, "duration": 4, "velocity": 91}, {"time": 2419, "pitch": 77, "duration": 4, "velocity": 91}, {"time": 2425, "pitch": 77, "duration": 7, "velocity": 88}, {"time": 2437, "pitch": 70, "duration": 5, "velocity": 93}, {"time": 2443, "pitch": 73, "duration": 10, "velocity": 93}, {"time": 2455, "pitch": 75, "duration": 4, "velocity": 99}, {"time": 2461, "pitch": 77, "duration": 5, "velocity": 90}, {"time": 2467, "pitch": 78, "duration": 4, "velocity": 92}, {"time": 2473, "pitch": 80, "duration": 14, "velocity": 88}, {"time": 2491, "pitch": 78, "duration": 5, "velocity": 90}, {"time": 2497, "pitch": 77, "duration": 5, "velocity": 92}, {"time": 2503, "pitch": 78, "duration": 4, "velocity": 92}, {"time": 2509, "pitch": 80, "duration": 5, "velocity": 95}, {"time": 2515, "pitch": 83, "duration": 4, "velocity": 90}, {"time": 2521, "pitch": 82, "duration": 11, "velocity": 89}, {"time": 2533, "pitch": 80, "duration": 9, "velocity": 92}, {"time": 2545, "pitch": 78, "duration": 9, "velocity": 89}, {"time": 2557, "pitch": 75, "duration": 4, "velocity": 95}, {"time": 2563, "pitch": 77, "duration": 4, "velocity": 89}, {"time": 2569, "pitch": 78, "duration": 11, "velocity": 90}, {"time": 2581, "pitch": 78, "duration": 3, "velocity": 86}, {"time": 2587, "pitch": 78, "duration": 3, "velocity": 85}, {"time": 2593, "pitch": 78, "duration": 6, "velocity": 94}, {"time": 2599, "pitch": 77, "duration": 3, "velocity": 84}, {"time": 2605, "pitch": 77, "duration": 4, "velocity": 90}, {"time": 2611, "pitch": 78, "duration": 10, "velocity": 94}, {"time": 2623, "pitch": 80, "duration": 21, "velocity": 90}, {"time": 2653, "pitch": 78, "duration": 5, "velocity": 92}, {"time": 2659, "pitch": 80, "duration": 4, "velocity": 95}, {"time": 2665, "pitch": 82, "duration": 14, "velocity": 92}, {"time": 2683, "pitch": 78, "duration": 5, "velocity": 89}, {"time": 2689, "pitch": 73, "duration": 5, "velocity": 104}, {"time": 2695, "pitch": 78, "duration": 3, "velocity": 92}, {"time": 2701, "pitch": 78, "duration": 5, "velocity": 91}, {"time": 2707, "pitch": 87, "duration": 10, "velocity": 99}, {"time": 2719, "pitch": 85, "duration": 11, "velocity": 92}, {"time": 2731, "pitch": 85, "duration": 4, "velocity": 90}, {"time": 2737, "pitch": 85, "duration": 4, "velocity": 92}, {"time": 2743, "pitch": 80, "duration": 3, "velocity": 93}, {"time": 2749, "pitch": 80, "duration": 4, "velocity": 92}, {"time": 2755, "pitch": 83, "duration": 4, "velocity": 93}, {"time": 2761, "pitch": 82, "duration": 4, "velocity": 90}, {"time": 2767, "pitch": 78, "duration": 9, "velocity": 90}, {"time": 2779, "pitch": 70, "duration": 4, "velocity": 97}, {"time": 2785, "pitch": 70, "duration": 4, "velocity": 99}, {"time": 2791, "pitch": 78, "duration": 4, "velocity": 90}, {"time": 2797, "pitch": 78, "duration": 4, "velocity": 91}, {"time": 2803, "pitch": 77, "duration": 4, "velocity": 91}, {"time": 2809, "pitch": 75, "duration": 7, "velocity": 88}, {"time": 2821, "pitch": 70, "duration": 5, "velocity": 93}, {"time": 2827, "pitch": 73, "duration": 10, "velocity": 93}, {"time": 2839, "pitch": 75, "duration": 4, "velocity": 99}, {"time": 2845, "pitch": 77, "duration": 5, "velocity": 90}, {"time": 2851, "pitch": 78, "duration": 4, "velocity": 92}, {"time": 2857, "pitch": 80, "duration": 14, "velocity": 88}, {"time": 2875, "pitch": 78, "duration": 5, "velocity": 90}, {"time": 2881, "pitch": 77, "duration": 5, "velocity": 92}, {"time": 2887, "pitch": 78, "duration": 4, "velocity": 92}, {"time": 2893, "pitch": 80, "duration": 5, "velocity": 95}, {"time": 2899, "pitch": 83, "duration": 4, "velocity": 90}, {"time": 2905, "pitch": 82, "duration": 11, "velocity": 89}, {"time": 2917, "pitch": 80, "duration": 9, "velocity": 92}, {"time": 2929, "pitch": 78, "duration": 9, "velocity": 89}, {"time": 2941, "pitch": 80, "duration": 3, "velocity": 95}, {"time": 2947, "pitch": 82, "duration": 4, "velocity": 95}, {"time": 2953, "pitch": 83, "duration": 9, "velocity": 94}, {"time": 2961, "pitch": 82, "duration": 7, "velocity": 90}, {"time": 2970, "pitch": 80, "duration": 4, "velocity": 91}, {"time": 2977, "pitch": 78, "duration": 9, "velocity": 89}, {"time": 2989, "pitch": 75, "duration": 4, "velocity": 90}, {"time": 2995, "pitch": 77, "duration": 11, "velocity": 90}, {"time": 3007, "pitch": 78, "duration": 41, "velocity": 90}, {"time": 3373, "pitch": 78, "duration": 5, "velocity": 92}, {"time": 3379, "pitch": 80, "duration": 4, "velocity": 95}, {"time": 3385, "pitch": 82, "duration": 14, "velocity": 92}, {"time": 3403, "pitch": 78, "duration": 5, "velocity": 89}, {"time": 3409, "pitch": 73, "duration": 5, "velocity": 104}, {"time": 3415, "pitch": 78, "duration": 3, "velocity": 92}, {"time": 3421, "pitch": 78, "duration": 5, "velocity": 91}, {"time": 3427, "pitch": 87, "duration": 10, "velocity": 99}, {"time": 3439, "pitch": 85, "duration": 11, "velocity": 92}, {"time": 3451, "pitch": 85, "duration": 4, "velocity": 90}, {"time": 3457, "pitch": 85, "duration": 4, "velocity": 92}, {"time": 3463, "pitch": 80, "duration": 3, "velocity": 93}, {"time": 3469, "pitch": 80, "duration": 4, "velocity": 92}, {"time": 3475, "pitch": 83, "duration": 4, "velocity": 93}, {"time": 3481, "pitch": 82, "duration": 4, "velocity": 90}, {"time": 3487, "pitch": 78, "duration": 9, "velocity": 90}, {"time": 3499, "pitch": 70, "duration": 4, "velocity": 97}, {"time": 3505, "pitch": 70, "duration": 4, "velocity": 99}, {"time": 3511, "pitch": 78, "duration": 4, "velocity": 90}, {"time": 3517, "pitch": 78, "duration": 4, "velocity": 91}, {"time": 3523, "pitch": 77, "duration": 4, "velocity": 91}, {"time": 3529, "pitch": 77, "duration": 7, "velocity": 88}, {"time": 3541, "pitch": 70, "duration": 5, "velocity": 93}, {"time": 3547, "pitch": 73, "duration": 10, "velocity": 93}, {"time": 3559, "pitch": 75, "duration": 4, "velocity": 99}, {"time": 3565, "pitch": 77, "duration": 5, "velocity": 90}, {"time": 3571, "pitch": 78, "duration": 4, "velocity": 92}, {"time": 3577, "pitch": 80, "duration": 14, "velocity": 88}, {"time": 3595, "pitch": 78, "duration": 5, "velocity": 90}, {"time": 3601, "pitch": 77, "duration": 5, "velocity": 92}, {"time": 3607, "pitch": 78, "duration": 4, "velocity": 92}, {"time": 3613, "pitch": 80, "duration": 5, "velocity": 95}, {"time": 3619, "pitch": 83, "duration": 4, "velocity": 90}, {"time": 3625, "pitch": 82, "duration": 11, "velocity": 89}, {"time": 3637, "pitch": 80, "duration": 9, "velocity": 92}, {"time": 3649, "pitch": 78, "duration": 9, "velocity": 89}, {"time": 3661, "pitch": 75, "duration": 4, "velocity": 95}, {"time": 3667, "pitch": 77, "duration": 4, "velocity": 89}, {"time": 3673, "pitch": 78, "duration": 11, "velocity": 90}, {"time": 3685, "pitch": 78, "duration": 3, "velocity": 86}, {"time": 3691, "pitch": 78, "duration": 3, "velocity": 85}, {"time": 3697, "pitch": 78, "duration": 6, "velocity": 94}, {"time": 3703, "pitch": 77, "duration": 3, "velocity": 84}, {"time": 3709, "pitch": 77, "duration": 4, "velocity": 90}, {"time": 3715, "pitch": 78, "duration": 10, "velocity": 94}, {"time": 3727, "pitch": 80, "duration": 21, "velocity": 90}, {"time": 3757, "pitch": 78, "duration": 5, "velocity": 92}, {"time": 3763, "pitch": 80, "duration": 4, "velocity": 95}, {"time": 3769, "pitch": 82, "duration": 14, "velocity": 92}, {"time": 3787, "pitch": 78, "duration": 5, "velocity": 89}, {"time": 3793, "pitch": 73, "duration": 5, "velocity": 104}, {"time": 3799, "pitch": 78, "duration": 3, "velocity": 92}, {"time": 3805, "pitch": 78, "duration": 5, "velocity": 91}, {"time": 3811, "pitch": 87, "duration": 10, "velocity": 99}, {"time": 3823, "pitch": 85, "duration": 11, "velocity": 92}, {"time": 3835, "pitch": 85, "duration": 4, "velocity": 90}, {"time": 3841, "pitch": 85, "duration": 4, "velocity": 92}, {"time": 3847, "pitch": 80, "duration": 3, "velocity": 93}, {"time": 3853, "pitch": 80, "duration": 4, "velocity": 92}, {"time": 3859, "pitch": 83, "duration": 4, "velocity": 93}, {"time": 3865, "pitch": 82, "duration": 4, "velocity": 90}, {"time": 3871, "pitch": 78, "duration": 9, "velocity": 90}, {"time": 3883, "pitch": 70, "duration": 4, "velocity": 97}, {"time": 3889, "pitch": 70, "duration": 4, "velocity": 99}, {"time": 3895, "pitch": 78, "duration": 4, "velocity": 90}, {"time": 3901, "pitch": 78, "duration": 4, "velocity": 91}, {"time": 3907, "pitch": 77, "duration": 4, "velocity": 91}, {"time": 3913, "pitch": 75, "duration": 7, "velocity": 88}, {"time": 3925, "pitch": 70, "duration": 5, "velocity": 93}, {"time": 3931, "pitch": 73, "duration": 10, "velocity": 93}, {"time": 3943, "pitch": 75, "duration": 4, "velocity": 99}, {"time": 3949, "pitch": 77, "duration": 5, "velocity": 90}, {"time": 3955, "pitch": 78, "duration": 4, "velocity": 92}, {"time": 3961, "pitch": 80, "duration": 14, "velocity": 88}, {"time": 3979, "pitch": 78, "duration": 5, "velocity": 90}, {"time": 3985, "pitch": 77, "duration": 5, "velocity": 92}, {"time": 3991, "pitch": 78, "duration": 4, "velocity": 92}, {"time": 3997, "pitch": 80, "duration": 5, "velocity": 95}, {"time": 4003, "pitch": 83, "duration": 4, "velocity": 90}, {"time": 4009, "pitch": 82, "duration": 11, "velocity": 89}, {"time": 4021, "pitch": 80, "duration": 9, "velocity": 92}, {"time": 4033, "pitch": 78, "duration": 9, "velocity": 89}, {"time": 4045, "pitch": 80, "duration": 3, "velocity": 95}, {"time": 4051, "pitch": 82, "duration": 4, "velocity": 95}, {"time": 4057, "pitch": 83, "duration": 9, "velocity": 94}, {"time": 4065, "pitch": 82, "duration": 7, "velocity": 90}, {"time": 4074, "pitch": 80, "duration": 4, "velocity": 91}, {"time": 4081, "pitch": 78, "duration": 9, "velocity": 89}, {"time": 4093, "pitch": 75, "duration": 4, "velocity": 90}, {"time": 4099, "pitch": 77, "duration": 11, "velocity": 90}, {"time": 4111, "pitch": 78, "duration": 41, "velocity": 90}]}, {"program": 0, "is_drum": false, "name": "PIANO", "notes": [{"time": 25, "pitch": 54, "duration": 47, "velocity": 85}, {"time": 25, "pitch": 61, "duration": 10, "velocity": 81}, {"time": 25, "pitch": 66, "duration": 11, "velocity": 80}, {"time": 37, "pitch": 61, "duration": 10, "velocity": 84}, {"time": 37, "pitch": 66, "duration": 11, "velocity": 86}, {"time": 49, "pitch": 61, "duration": 10, "velocity": 79}, {"time": 49, "pitch": 66, "duration": 10, "velocity": 76}, {"time": 61, "pitch": 61, "duration": 9, "velocity": 82}, {"time": 61, "pitch": 66, "duration": 10, "velocity": 81}, {"time": 73, "pitch": 49, "duration": 46, "velocity": 77}, {"time": 73, "pitch": 61, "duration": 10, "velocity": 79}, {"time": 73, "pitch": 65, "duration": 10, "velocity": 79}, {"time": 85, "pitch": 61, "duration": 10, "velocity": 77}, {"time": 85, "pitch": 65, "duration": 10, "velocity": 77}, {"time": 97, "pitch": 61, "duration": 10, "velocity": 84}, {"time": 97, "pitch": 65, "duration": 10, "velocity": 82}, {"time": 109, "pitch": 61, "duration": 9, "velocity": 85}, {"time": 109, "pitch": 65, "duration": 10, "velocity": 82}, {"time": 121, "pitch": 51, "duration": 40, "velocity": 86}, {"time": 121, "pitch": 63, "duration": 10, "velocity": 83}, {"time": 121, "pitch": 66, "duration": 11, "velocity": 80}, {"time": 133, "pitch": 63, "duration": 10, "velocity": 88}, {"time": 133, "pitch": 66, "duration": 10, "velocity": 88}, {"time": 145, "pitch": 63, "duration": 10, "velocity": 89}, {"time": 145, "pitch": 66, "duration": 10, "velocity": 84}, {"time": 157, "pitch": 63, "duration": 7, "velocity": 90}, {"time": 157, "pitch": 66, "duration": 7, "velocity": 85}, {"time": 169, "pitch": 47, "duration": 38, "velocity": 85}, {"time": 169, "pitch": 54, "duration": 10, "velocity": 78}, {"time": 169, "pitch": 59, "duration": 9, "velocity": 79}, {"time": 181, "pitch": 59, "duration": 8, "velocity": 82}, {"time": 181, "pitch": 63, "duration": 7, "velocity": 86}, {"time": 187, "pitch": 54, "duration": 5, "velocity": 78}, {"time": 193, "pitch": 54, "duration": 21, "velocity": 84}, {"time": 193, "pitch": 59, "duration": 21, "velocity": 79}, {"time": 193, "pitch": 63, "duration": 21, "velocity": 88}, {"time": 217, "pitch": 42, "duration": 34, "velocity": 88}, {"time": 217, "pitch": 66, "duration": 8, "velocity": 77}, {"time": 217, "pitch": 70, "duration": 8, "velocity": 79}, {"time": 217, "pitch": 73, "duration": 7, "velocity": 88}, {"time": 223, "pitch": 61, "duration": 7, "velocity": 78}, {"time": 229, "pitch": 66, "duration": 4, "velocity": 85}, {"time": 229, "pitch": 70, "duration": 6, "velocity": 89}, {"time": 229, "pitch": 73, "duration": 6, "velocity": 90}, {"time": 235, "pitch": 61, "duration": 7, "velocity": 76}, {"time": 241, "pitch": 66, "duration": 7, "velocity": 79}, {"time": 241, "pitch": 70, "duration": 8, "velocity": 82}, {"time": 241, "pitch": 73, "duration": 8, "velocity": 88}, {"time": 247, "pitch": 61, "duration": 7, "velocity": 76}, {"time": 253, "pitch": 66, "duration": 5, "velocity": 87}, {"time": 253, "pitch": 70, "duration": 5, "velocity": 83}, {"time": 253, "pitch": 73, "duration": 8, "velocity": 89}, {"time": 259, "pitch": 61, "duration": 8, "velocity": 84}, {"time": 265, "pitch": 49, "duration": 32, "velocity": 89}, {"time": 265, "pitch": 65, "duration": 7, "velocity": 68}, {"time": 265, "pitch": 68, "duration": 6, "velocity": 77}, {"time": 265, "pitch": 73, "duration": 8, "velocity": 89}, {"time": 271, "pitch": 61, "duration": 7, "velocity": 80}, {"time": 277, "pitch": 65, "duration": 6, "velocity": 78}, {"time": 277, "pitch": 68, "duration": 7, "velocity": 79}, {"time": 277, "pitch": 73, "duration": 7, "velocity": 89}, {"time": 283, "pitch": 61, "duration": 6, "velocity": 73}, {"time": 289, "pitch": 65, "duration": 5, "velocity": 80}, {"time": 289, "pitch": 68, "duration": 7, "velocity": 81}, {"time": 289, "pitch": 73, "duration": 7, "velocity": 90}, {"time": 295, "pitch": 61, "duration": 4, "velocity": 76}, {"time": 301, "pitch": 65, "duration": 6, "velocity": 90}, {"time": 301, "pitch": 68, "duration": 8, "velocity": 90}, {"time": 301, "pitch": 73, "duration": 7, "velocity": 91}, {"time": 307, "pitch": 61, "duration": 3, "velocity": 83}, {"time": 313, "pitch": 51, "duration": 30, "velocity": 90}, {"time": 313, "pitch": 63, "duration": 3, "velocity": 82}, {"time": 313, "pitch": 66, "duration": 8, "velocity": 77}, {"time": 313, "pitch": 70, "duration": 9, "velocity": 88}, {"time": 319, "pitch": 63, "duration": 7, "velocity": 83}, {"time": 325, "pitch": 66, "duration": 6, "velocity": 84}, {"time": 325, "pitch": 70, "duration": 7, "velocity": 88}, {"time": 331, "pitch": 63, "duration": 4, "velocity": 80}, {"time": 337, "pitch": 63, "duration": 2, "velocity": 84}, {"time": 337, "pitch": 66, "duration": 8, "velocity": 83}, {"time": 337, "pitch": 70, "duration": 8, "velocity": 86}, {"time": 343, "pitch": 63, "duration": 3, "velocity": 80}, {"time": 349, "pitch": 66, "duration": 5, "velocity": 87}, {"time": 349, "pitch": 70, "duration": 7, "velocity": 88}, {"time": 355, "pitch": 63, "duration": 2, "velocity": 82}, {"time": 361, "pitch": 46, "duration": 35, "velocity": 85}, {"time": 361, "pitch": 58, "duration": 4, "velocity": 80}, {"time": 361, "pitch": 61, "duration": 8, "velocity": 79}, {"time": 361, "pitch": 65, "duration": 8, "velocity": 79}, {"time": 367, "pitch": 58, "duration": 4, "velocity": 81}, {"time": 373, "pitch": 61, "duration": 3, "velocity": 84}, {"time": 373, "pitch": 65, "duration": 4, "velocity": 85}, {"time": 379, "pitch": 58, "duration": 3, "velocity": 78}, {"time": 385, "pitch": 61, "duration": 8, "velocity": 86}, {"time": 385, "pitch": 65, "duration": 8, "velocity": 81}, {"time": 391, "pitch": 58, "duration": 3, "velocity": 80}, {"time": 397, "pitch": 61, "duration": 7, "velocity": 90}, {"time": 397, "pitch": 65, "duration": 7, "velocity": 90}, {"time": 403, "pitch": 58, "duration": 2, "velocity": 90}, {"time": 409, "pitch": 47, "duration": 37, "velocity": 89}, {"time": 409, "pitch": 59, "duration": 3, "velocity": 88}, {"time": 409, "pitch": 63, "duration": 7, "velocity": 90}, {"time": 415, "pitch": 59, "duration": 4, "velocity": 84}, {"time": 421, "pitch": 63, "duration": 8, "velocity": 90}, {"time": 421, "pitch": 66, "duration": 7, "velocity": 88}, {"time": 427, "pitch": 59, "duration": 4, "velocity": 77}, {"time": 433, "pitch": 63, "duration": 7, "velocity": 89}, {"time": 433, "pitch": 66, "duration": 6, "velocity": 86}, {"time": 439, "pitch": 59, "duration": 3, "velocity": 83}, {"time": 445, "pitch": 59, "duration": 2, "velocity": 88}, {"time": 445, "pitch": 63, "duration": 4, "velocity": 92}, {"time": 445, "pitch": 66, "duration": 4, "velocity": 85}, {"time": 451, "pitch": 59, "duration": 4, "velocity": 89}, {"time": 457, "pitch": 46, "duration": 21, "velocity": 88}, {"time": 457, "pitch": 58, "duration": 4, "velocity": 86}, {"time": 457, "pitch": 61, "duration": 8, "velocity": 81}, {"time": 457, "pitch": 65, "duration": 9, "velocity": 84}, {"time": 463, "pitch": 58, "duration": 5, "velocity": 84}, {"time": 469, "pitch": 61, "duration": 5, "velocity": 87}, {"time": 469, "pitch": 65, "duration": 7, "velocity": 88}, {"time": 475, "pitch": 58, "duration": 7, "velocity": 88}, {"time": 481, "pitch": 51, "duration": 12, "velocity": 85}, {"time": 481, "pitch": 63, "duration": 7, "velocity": 90}, {"time": 481, "pitch": 66, "duration": 7, "velocity": 86}, {"time": 487, "pitch": 58, "duration": 7, "velocity": 88}, {"time": 493, "pitch": 63, "duration": 7, "velocity": 90}, {"time": 493, "pitch": 66, "duration": 8, "velocity": 90}, {"time": 499, "pitch": 58, "duration": 3, "velocity": 94}, {"time": 505, "pitch": 44, "duration": 41, "velocity": 87}, {"time": 505, "pitch": 56, "duration": 3, "velocity": 78}, {"time": 505, "pitch": 59, "duration": 9, "velocity": 80}, {"time": 505, "pitch": 63, "duration": 8, "velocity": 88}, {"time": 511, "pitch": 56, "duration": 5, "velocity": 70}, {"time": 517, "pitch": 59, "duration": 7, "velocity": 86}, {"time": 517, "pitch": 63, "duration": 7, "velocity": 90}, {"time": 523, "pitch": 56, "duration": 6, "velocity": 75}, {"time": 529, "pitch": 59, "duration": 8, "velocity": 88}, {"time": 529, "pitch": 63, "duration": 8, "velocity": 89}, {"time": 535, "pitch": 54, "duration": 7, "velocity": 88}, {"time": 541, "pitch": 59, "duration": 4, "velocity": 89}, {"time": 541, "pitch": 63, "duration": 8, "velocity": 91}, {"time": 547, "pitch": 54, "duration": 3, "velocity": 88}, {"time": 547, "pitch": 59, "duration": 1, "velocity": 48}, {"time": 553, "pitch": 49, "duration": 48, "velocity": 89}, {"time": 553, "pitch": 61, "duration": 8, "velocity": 88}, {"time": 553, "pitch": 65, "duration": 8, "velocity": 87}, {"time": 559, "pitch": 56, "duration": 7, "velocity": 74}, {"time": 565, "pitch": 61, "duration": 7, "velocity": 84}, {"time": 565, "pitch": 65, "duration": 8, "velocity": 82}, {"time": 571, "pitch": 56, "duration": 7, "velocity": 87}, {"time": 577, "pitch": 59, "duration": 6, "velocity": 84}, {"time": 577, "pitch": 65, "duration": 8, "velocity": 89}, {"time": 583, "pitch": 56, "duration": 7, "velocity": 87}, {"time": 589, "pitch": 61, "duration": 10, "velocity": 89}, {"time": 589, "pitch": 65, "duration": 8, "velocity": 93}, {"time": 595, "pitch": 56, "duration": 5, "velocity": 92}, {"time": 601, "pitch": 42, "duration": 34, "velocity": 88}, {"time": 601, "pitch": 66, "duration": 8, "velocity": 77}, {"time": 601, "pitch": 70, "duration": 8, "velocity": 79}, {"time": 601, "pitch": 73, "duration": 7, "velocity": 88}, {"time": 607, "pitch": 61, "duration": 7, "velocity": 78}, {"time": 613, "pitch": 66, "duration": 4, "velocity": 85}, {"time": 613, "pitch": 70, "duration": 6, "velocity": 89}, {"time": 613, "pitch": 73, "duration": 6, "velocity": 90}, {"time": 619, "pitch": 61, "duration": 7, "velocity": 76}, {"time": 625, "pitch": 66, "duration": 7, "velocity": 79}, {"time": 625, "pitch": 70, "duration": 8, "velocity": 82}, {"time": 625, "pitch": 73, "duration": 8, "velocity": 88}, {"time": 631, "pitch": 61, "duration": 7, "velocity": 76}, {"time": 637, "pitch": 66, "duration": 5, "velocity": 87}, {"time": 637, "pitch": 70, "duration": 5, "velocity": 83}, {"time": 637, "pitch": 73, "duration": 8, "velocity": 89}, {"time": 643, "pitch": 61, "duration": 8, "velocity": 84}, {"time": 649, "pitch": 49, "duration": 32, "velocity": 89}, {"time": 649, "pitch": 65, "duration": 7, "velocity": 68}, {"time": 649, "pitch": 68, "duration": 6, "velocity": 77}, {"time": 649, "pitch": 73, "duration": 8, "velocity": 89}, {"time": 655, "pitch": 61, "duration": 7, "velocity": 80}, {"time": 661, "pitch": 65, "duration": 6, "velocity": 78}, {"time": 661, "pitch": 68, "duration": 7, "velocity": 79}, {"time": 661, "pitch": 73, "duration": 7, "velocity": 89}, {"time": 667, "pitch": 61, "duration": 6, "velocity": 73}, {"time": 673, "pitch": 65, "duration": 5, "velocity": 80}, {"time": 673, "pitch": 68, "duration": 7, "velocity": 81}, {"time": 673, "pitch": 73, "duration": 7, "velocity": 90}, {"time": 679, "pitch": 61, "duration": 4, "velocity": 76}, {"time": 685, "pitch": 65, "duration": 6, "velocity": 90}, {"time": 685, "pitch": 68, "duration": 8, "velocity": 90}, {"time": 685, "pitch": 73, "duration": 7, "velocity": 91}, {"time": 691, "pitch": 61, "duration": 3, "velocity": 83}, {"time": 697, "pitch": 51, "duration": 30, "velocity": 90}, {"time": 697, "pitch": 63, "duration": 3, "velocity": 82}, {"time": 697, "pitch": 66, "duration": 8, "velocity": 77}, {"time": 697, "pitch": 70, "duration": 9, "velocity": 88}, {"time": 703, "pitch": 63, "duration": 7, "velocity": 83}, {"time": 709, "pitch": 66, "duration": 6, "velocity": 84}, {"time": 709, "pitch": 70, "duration": 7, "velocity": 88}, {"time": 715, "pitch": 63, "duration": 4, "velocity": 80}, {"time": 721, "pitch": 63, "duration": 2, "velocity": 84}, {"time": 721, "pitch": 66, "duration": 8, "velocity": 83}, {"time": 721, "pitch": 70, "duration": 8, "velocity": 86}, {"time": 727, "pitch": 63, "duration": 3, "velocity": 80}, {"time": 733, "pitch": 66, "duration": 5, "velocity": 87}, {"time": 733, "pitch": 70, "duration": 7, "velocity": 88}, {"time": 739, "pitch": 63, "duration": 2, "velocity": 82}, {"time": 745, "pitch": 46, "duration": 35, "velocity": 85}, {"time": 745, "pitch": 58, "duration": 4, "velocity": 80}, {"time": 745, "pitch": 61, "duration": 8, "velocity": 79}, {"time": 745, "pitch": 65, "duration": 8, "velocity": 79}, {"time": 751, "pitch": 58, "duration": 4, "velocity": 81}, {"time": 757, "pitch": 61, "duration": 3, "velocity": 84}, {"time": 757, "pitch": 65, "duration": 4, "velocity": 85}, {"time": 763, "pitch": 58, "duration": 3, "velocity": 78}, {"time": 769, "pitch": 61, "duration": 8, "velocity": 86}, {"time": 769, "pitch": 65, "duration": 8, "velocity": 81}, {"time": 775, "pitch": 58, "duration": 3, "velocity": 80}, {"time": 781, "pitch": 61, "duration": 7, "velocity": 90}, {"time": 781, "pitch": 65, "duration": 7, "velocity": 90}, {"time": 787, "pitch": 58, "duration": 2, "velocity": 90}, {"time": 793, "pitch": 47, "duration": 37, "velocity": 89}, {"time": 793, "pitch": 59, "duration": 3, "velocity": 88}, {"time": 793, "pitch": 63, "duration": 7, "velocity": 90}, {"time": 799, "pitch": 59, "duration": 4, "velocity": 84}, {"time": 805, "pitch": 63, "duration": 8, "velocity": 90}, {"time": 805, "pitch": 66, "duration": 7, "velocity": 88}, {"time": 811, "pitch": 59, "duration": 4, "velocity": 77}, {"time": 817, "pitch": 63, "duration": 7, "velocity": 89}, {"time": 817, "pitch": 66, "duration": 6, "velocity": 86}, {"time": 823, "pitch": 59, "duration": 3, "velocity": 83}, {"time": 829, "pitch": 59, "duration": 2, "velocity": 88}, {"time": 829, "pitch": 63, "duration": 4, "velocity": 92}, {"time": 829, "pitch": 66, "duration": 4, "velocity": 85}, {"time": 835, "pitch": 59, "duration": 4, "velocity": 89}, {"time": 841, "pitch": 46, "duration": 21, "velocity": 88}, {"time": 841, "pitch": 58, "duration": 4, "velocity": 86}, {"time": 841, "pitch": 61, "duration": 8, "velocity": 81}, {"time": 841, "pitch": 65, "duration": 9, "velocity": 84}, {"time": 847, "pitch": 58, "duration": 5, "velocity": 84}, {"time": 853, "pitch": 61, "duration": 5, "velocity": 87}, {"time": 853, "pitch": 65, "duration": 7, "velocity": 88}, {"time": 859, "pitch": 58, "duration": 7, "velocity": 88}, {"time": 865, "pitch": 51, "duration": 12, "velocity": 85}, {"time": 865, "pitch": 63, "duration": 7, "velocity": 90}, {"time": 865, "pitch": 66, "duration": 7, "velocity": 86}, {"time": 871, "pitch": 58, "duration": 7, "velocity": 88}, {"time": 877, "pitch": 63, "duration": 7, "velocity": 90}, {"time": 877, "pitch": 66, "duration": 8, "velocity": 90}, {"time": 883, "pitch": 58, "duration": 3, "velocity": 94}, {"time": 889, "pitch": 44, "duration": 41, "velocity": 87}, {"time": 889, "pitch": 56, "duration": 3, "velocity": 78}, {"time": 889, "pitch": 59, "duration": 9, "velocity": 80}, {"time": 889, "pitch": 63, "duration": 8, "velocity": 88}, {"time": 895, "pitch": 56, "duration": 5, "velocity": 70}, {"time": 901, "pitch": 59, "duration": 7, "velocity": 86}, {"time": 901, "pitch": 63, "duration": 7, "velocity": 90}, {"time": 907, "pitch": 56, "duration": 6, "velocity": 75}, {"time": 913, "pitch": 59, "duration": 8, "velocity": 88}, {"time": 913, "pitch": 63, "duration": 8, "velocity": 89}, {"time": 919, "pitch": 54, "duration": 7, "velocity": 88}, {"time": 925, "pitch": 59, "duration": 4, "velocity": 89}, {"time": 925, "pitch": 63, "duration": 8, "velocity": 91}, {"time": 931, "pitch": 54, "duration": 3, "velocity": 88}, {"time": 931, "pitch": 59, "duration": 1, "velocity": 48}, {"time": 937, "pitch": 49, "duration": 48, "velocity": 89}, {"time": 937, "pitch": 61, "duration": 8, "velocity": 88}, {"time": 937, "pitch": 65, "duration": 8, "velocity": 87}, {"time": 943, "pitch": 56, "duration": 7, "velocity": 74}, {"time": 949, "pitch": 61, "duration": 7, "velocity": 84}, {"time": 949, "pitch": 65, "duration": 8, "velocity": 82}, {"time": 955, "pitch": 56, "duration": 7, "velocity": 87}, {"time": 961, "pitch": 59, "duration": 6, "velocity": 84}, {"time": 961, "pitch": 65, "duration": 8, "velocity": 89}, {"time": 967, "pitch": 56, "duration": 7, "velocity": 87}, {"time": 973, "pitch": 61, "duration": 10, "velocity": 89}, {"time": 973, "pitch": 65, "duration": 8, "velocity": 93}, {"time": 979, "pitch": 56, "duration": 5, "velocity": 92}, {"time": 985, "pitch": 42, "duration": 38, "velocity": 90}, {"time": 985, "pitch": 54, "duration": 8, "velocity": 88}, {"time": 985, "pitch": 61, "duration": 13, "velocity": 87}, {"time": 991, "pitch": 49, "duration": 23, "velocity": 84}, {"time": 997, "pitch": 54, "duration": 22, "velocity": 95}, {"time": 1003, "pitch": 61, "duration": 20, "velocity": 90}, {"time": 1003, "pitch": 66, "duration": 18, "velocity": 88}, {"time": 1021, "pitch": 49, "duration": 4, "velocity": 91}, {"time": 1027, "pitch": 54, "duration": 2, "velocity": 95}, {"time": 1033, "pitch": 46, "duration": 35, "velocity": 90}, {"time": 1033, "pitch": 58, "duration": 6, "velocity": 90}, {"time": 1033, "pitch": 61, "duration": 10, "velocity": 92}, {"time": 1039, "pitch": 53, "duration": 14, "velocity": 82}, {"time": 1045, "pitch": 56, "duration": 4, "velocity": 93}, {"time": 1051, "pitch": 61, "duration": 13, "velocity": 89}, {"time": 1051, "pitch": 65, "duration": 13, "velocity": 91}, {"time": 1063, "pitch": 53, "duration": 4, "velocity": 88}, {"time": 1069, "pitch": 58, "duration": 1, "velocity": 84}, {"time": 1069, "pitch": 61, "duration": 7, "velocity": 91}, {"time": 1069, "pitch": 65, "duration": 7, "velocity": 90}, {"time": 1075, "pitch": 58, "duration": 8, "velocity": 90}, {"time": 1081, "pitch": 39, "duration": 38, "velocity": 90}, {"time": 1081, "pitch": 63, "duration": 11, "velocity": 84}, {"time": 1081, "pitch": 66, "duration": 13, "velocity": 88}, {"time": 1087, "pitch": 46, "duration": 15, "velocity": 79}, {"time": 1093, "pitch": 58, "duration": 3, "velocity": 88}, {"time": 1099, "pitch": 58, "duration": 7, "velocity": 97}, {"time": 1099, "pitch": 66, "duration": 13, "velocity": 95}, {"time": 1105, "pitch": 46, "duration": 14, "velocity": 88}, {"time": 1111, "pitch": 58, "duration": 3, "velocity": 88}, {"time": 1117, "pitch": 58, "duration": 3, "velocity": 89}, {"time": 1117, "pitch": 63, "duration": 6, "velocity": 94}, {"time": 1123, "pitch": 58, "duration": 4, "velocity": 86}, {"time": 1129, "pitch": 49, "duration": 40, "velocity": 97}, {"time": 1129, "pitch": 61, "duration": 6, "velocity": 86}, {"time": 1129, "pitch": 65, "duration": 9, "velocity": 84}, {"time": 1135, "pitch": 56, "duration": 9, "velocity": 87}, {"time": 1141, "pitch": 61, "duration": 3, "velocity": 80}, {"time": 1147, "pitch": 56, "duration": 6, "velocity": 88}, {"time": 1147, "pitch": 61, "duration": 13, "velocity": 91}, {"time": 1147, "pitch": 65, "duration": 14, "velocity": 93}, {"time": 1159, "pitch": 56, "duration": 3, "velocity": 82}, {"time": 1165, "pitch": 56, "duration": 4, "velocity": 89}, {"time": 1165, "pitch": 61, "duration": 4, "velocity": 92}, {"time": 1177, "pitch": 47, "duration": 40, "velocity": 90}, {"time": 1177, "pitch": 54, "duration": 3, "velocity": 88}, {"time": 1177, "pitch": 63, "duration": 11, "velocity": 90}, {"time": 1183, "pitch": 54, "duration": 8, "velocity": 90}, {"time": 1189, "pitch": 59, "duration": 3, "velocity": 88}, {"time": 1195, "pitch": 54, "duration": 4, "velocity": 89}, {"time": 1195, "pitch": 61, "duration": 6, "velocity": 91}, {"time": 1201, "pitch": 59, "duration": 4, "velocity": 83}, {"time": 1207, "pitch": 54, "duration": 2, "velocity": 74}, {"time": 1213, "pitch": 54, "duration": 4, "velocity": 90}, {"time": 1213, "pitch": 63, "duration": 5, "velocity": 93}, {"time": 1225, "pitch": 46, "duration": 18, "velocity": 92}, {"time": 1225, "pitch": 58, "duration": 8, "velocity": 89}, {"time": 1225, "pitch": 61, "duration": 8, "velocity": 89}, {"time": 1231, "pitch": 53, "duration": 9, "velocity": 76}, {"time": 1237, "pitch": 58, "duration": 3, "velocity": 89}, {"time": 1237, "pitch": 61, "duration": 6, "velocity": 89}, {"time": 1237, "pitch": 65, "duration": 7, "velocity": 85}, {"time": 1243, "pitch": 58, "duration": 5, "velocity": 80}, {"time": 1249, "pitch": 51, "duration": 14, "velocity": 91}, {"time": 1249, "pitch": 58, "duration": 1, "velocity": 78}, {"time": 1249, "pitch": 66, "duration": 11, "velocity": 90}, {"time": 1255, "pitch": 58, "duration": 4, "velocity": 90}, {"time": 1261, "pitch": 58, "duration": 3, "velocity": 90}, {"time": 1261, "pitch": 63, "duration": 6, "velocity": 94}, {"time": 1267, "pitch": 58, "duration": 3, "velocity": 77}, {"time": 1273, "pitch": 44, "duration": 37, "velocity": 89}, {"time": 1273, "pitch": 56, "duration": 7, "velocity": 88}, {"time": 1273, "pitch": 59, "duration": 13, "velocity": 89}, {"time": 1279, "pitch": 51, "duration": 18, "velocity": 86}, {"time": 1285, "pitch": 56, "duration": 4, "velocity": 83}, {"time": 1291, "pitch": 56, "duration": 13, "velocity": 92}, {"time": 1291, "pitch": 59, "duration": 13, "velocity": 94}, {"time": 1291, "pitch": 63, "duration": 12, "velocity": 93}, {"time": 1303, "pitch": 51, "duration": 6, "velocity": 87}, {"time": 1309, "pitch": 56, "duration": 2, "velocity": 90}, {"time": 1309, "pitch": 59, "duration": 9, "velocity": 97}, {"time": 1315, "pitch": 56, "duration": 4, "velocity": 86}, {"time": 1321, "pitch": 37, "duration": 41, "velocity": 93}, {"time": 1321, "pitch": 56, "duration": 5, "velocity": 89}, {"time": 1321, "pitch": 61, "duration": 5, "velocity": 92}, {"time": 1327, "pitch": 44, "duration": 14, "velocity": 74}, {"time": 1333, "pitch": 56, "duration": 3, "velocity": 89}, {"time": 1339, "pitch": 56, "duration": 4, "velocity": 91}, {"time": 1339, "pitch": 65, "duration": 5, "velocity": 90}, {"time": 1345, "pitch": 44, "duration": 17, "velocity": 83}, {"time": 1351, "pitch": 61, "duration": 5, "velocity": 91}, {"time": 1357, "pitch": 65, "duration": 9, "velocity": 95}, {"time": 1369, "pitch": 42, "duration": 36, "velocity": 89}, {"time": 1369, "pitch": 61, "duration": 7, "velocity": 88}, {"time": 1369, "pitch": 66, "duration": 9, "velocity": 84}, {"time": 1375, "pitch": 49, "duration": 14, "velocity": 81}, {"time": 1381, "pitch": 61, "duration": 3, "velocity": 89}, {"time": 1387, "pitch": 61, "duration": 13, "velocity": 91}, {"time": 1387, "pitch": 66, "duration": 14, "velocity": 89}, {"time": 1387, "pitch": 70, "duration": 15, "velocity": 88}, {"time": 1399, "pitch": 49, "duration": 8, "velocity": 89}, {"time": 1405, "pitch": 61, "duration": 8, "velocity": 99}, {"time": 1411, "pitch": 66, "duration": 2, "velocity": 92}, {"time": 1417, "pitch": 46, "duration": 37, "velocity": 89}, {"time": 1417, "pitch": 58, "duration": 7, "velocity": 88}, {"time": 1417, "pitch": 65, "duration": 15, "velocity": 89}, {"time": 1423, "pitch": 53, "duration": 17, "velocity": 88}, {"time": 1429, "pitch": 56, "duration": 4, "velocity": 88}, {"time": 1435, "pitch": 61, "duration": 15, "velocity": 89}, {"time": 1435, "pitch": 65, "duration": 15, "velocity": 91}, {"time": 1447, "pitch": 53, "duration": 5, "velocity": 82}, {"time": 1453, "pitch": 58, "duration": 8, "velocity": 97}, {"time": 1453, "pitch": 65, "duration": 1, "velocity": 73}, {"time": 1459, "pitch": 61, "duration": 5, "velocity": 90}, {"time": 1465, "pitch": 39, "duration": 37, "velocity": 90}, {"time": 1465, "pitch": 63, "duration": 8, "velocity": 86}, {"time": 1471, "pitch": 46, "duration": 20, "velocity": 89}, {"time": 1477, "pitch": 63, "duration": 3, "velocity": 92}, {"time": 1483, "pitch": 63, "duration": 13, "velocity": 94}, {"time": 1483, "pitch": 66, "duration": 12, "velocity": 90}, {"time": 1495, "pitch": 46, "duration": 8, "velocity": 77}, {"time": 1501, "pitch": 63, "duration": 2, "velocity": 89}, {"time": 1501, "pitch": 66, "duration": 6, "velocity": 92}, {"time": 1501, "pitch": 70, "duration": 6, "velocity": 90}, {"time": 1507, "pitch": 63, "duration": 1, "velocity": 76}, {"time": 1513, "pitch": 37, "duration": 37, "velocity": 92}, {"time": 1513, "pitch": 65, "duration": 11, "velocity": 95}, {"time": 1519, "pitch": 44, "duration": 15, "velocity": 84}, {"time": 1525, "pitch": 56, "duration": 3, "velocity": 95}, {"time": 1531, "pitch": 56, "duration": 7, "velocity": 95}, {"time": 1531, "pitch": 61, "duration": 7, "velocity": 95}, {"time": 1537, "pitch": 44, "duration": 8, "velocity": 86}, {"time": 1543, "pitch": 56, "duration": 1, "velocity": 73}, {"time": 1543, "pitch": 61, "duration": 13, "velocity": 95}, {"time": 1543, "pitch": 65, "duration": 12, "velocity": 95}, {"time": 1549, "pitch": 44, "duration": 3, "velocity": 87}, {"time": 1555, "pitch": 56, "duration": 2, "velocity": 95}, {"time": 1561, "pitch": 47, "duration": 39, "velocity": 93}, {"time": 1561, "pitch": 59, "duration": 7, "velocity": 89}, {"time": 1561, "pitch": 63, "duration": 7, "velocity": 99}, {"time": 1567, "pitch": 54, "duration": 16, "velocity": 82}, {"time": 1573, "pitch": 59, "duration": 3, "velocity": 91}, {"time": 1579, "pitch": 59, "duration": 8, "velocity": 99}, {"time": 1579, "pitch": 66, "duration": 14, "velocity": 91}, {"time": 1585, "pitch": 54, "duration": 15, "velocity": 89}, {"time": 1591, "pitch": 59, "duration": 2, "velocity": 89}, {"time": 1597, "pitch": 59, "duration": 2, "velocity": 97}, {"time": 1597, "pitch": 63, "duration": 5, "velocity": 109}, {"time": 1603, "pitch": 59, "duration": 2, "velocity": 84}, {"time": 1609, "pitch": 46, "duration": 13, "velocity": 89}, {"time": 1609, "pitch": 56, "duration": 7, "velocity": 90}, {"time": 1609, "pitch": 61, "duration": 11, "velocity": 88}, {"time": 1609, "pitch": 65, "duration": 13, "velocity": 81}, {"time": 1615, "pitch": 53, "duration": 7, "velocity": 88}, {"time": 1621, "pitch": 56, "duration": 7, "velocity": 92}, {"time": 1627, "pitch": 61, "duration": 5, "velocity": 93}, {"time": 1633, "pitch": 39, "duration": 15, "velocity": 94}, {"time": 1633, "pitch": 58, "duration": 7, "velocity": 88}, {"time": 1633, "pitch": 66, "duration": 13, "velocity": 86}, {"time": 1639, "pitch": 46, "duration": 9, "velocity": 80}, {"time": 1645, "pitch": 58, "duration": 7, "velocity": 94}, {"time": 1651, "pitch": 63, "duration": 1, "velocity": 93}, {"time": 1657, "pitch": 44, "duration": 14, "velocity": 90}, {"time": 1657, "pitch": 54, "duration": 7, "velocity": 92}, {"time": 1657, "pitch": 59, "duration": 10, "velocity": 92}, {"time": 1663, "pitch": 51, "duration": 7, "velocity": 89}, {"time": 1669, "pitch": 54, "duration": 7, "velocity": 94}, {"time": 1675, "pitch": 59, "duration": 6, "velocity": 92}, {"time": 1681, "pitch": 37, "duration": 14, "velocity": 94}, {"time": 1681, "pitch": 56, "duration": 7, "velocity": 83}, {"time": 1681, "pitch": 61, "duration": 6, "velocity": 88}, {"time": 1687, "pitch": 44, "duration": 7, "velocity": 76}, {"time": 1693, "pitch": 56, "duration": 4, "velocity": 89}, {"time": 1705, "pitch": 42, "duration": 39, "velocity": 89}, {"time": 1705, "pitch": 54, "duration": 8, "velocity": 89}, {"time": 1705, "pitch": 61, "duration": 9, "velocity": 85}, {"time": 1711, "pitch": 49, "duration": 21, "velocity": 79}, {"time": 1717, "pitch": 54, "duration": 3, "velocity": 84}, {"time": 1723, "pitch": 54, "duration": 18, "velocity": 86}, {"time": 1723, "pitch": 58, "duration": 19, "velocity": 83}, {"time": 1723, "pitch": 61, "duration": 19, "velocity": 87}, {"time": 1741, "pitch": 49, "duration": 3, "velocity": 79}, {"time": 1747, "pitch": 54, "duration": 2, "velocity": 86}, {"time": 1753, "pitch": 37, "duration": 40, "velocity": 92}, {"time": 1753, "pitch": 56, "duration": 5, "velocity": 80}, {"time": 1753, "pitch": 61, "duration": 6, "velocity": 87}, {"time": 1759, "pitch": 44, "duration": 34, "velocity": 73}, {"time": 1765, "pitch": 56, "duration": 4, "velocity": 83}, {"time": 1771, "pitch": 56, "duration": 19, "velocity": 88}, {"time": 1771, "pitch": 65, "duration": 12, "velocity": 89}, {"time": 1789, "pitch": 66, "duration": 7, "velocity": 90}, {"time": 1795, "pitch": 65, "duration": 7, "velocity": 94}, {"time": 1801, "pitch": 51, "duration": 40, "velocity": 90}, {"time": 1801, "pitch": 63, "duration": 7, "velocity": 88}, {"time": 1807, "pitch": 58, "duration": 24, "velocity": 87}, {"time": 1813, "pitch": 63, "duration": 2, "velocity": 87}, {"time": 1819, "pitch": 61, "duration": 19, "velocity": 89}, {"time": 1819, "pitch": 66, "duration": 21, "velocity": 86}, {"time": 1837, "pitch": 58, "duration": 5, "velocity": 92}, {"time": 1843, "pitch": 61, "duration": 3, "velocity": 83}, {"time": 1849, "pitch": 47, "duration": 38, "velocity": 91}, {"time": 1849, "pitch": 59, "duration": 9, "velocity": 88}, {"time": 1849, "pitch": 66, "duration": 9, "velocity": 82}, {"time": 1855, "pitch": 54, "duration": 32, "velocity": 85}, {"time": 1861, "pitch": 61, "duration": 3, "velocity": 92}, {"time": 1867, "pitch": 59, "duration": 3, "velocity": 84}, {"time": 1867, "pitch": 66, "duration": 27, "velocity": 89}, {"time": 1873, "pitch": 59, "duration": 21, "velocity": 82}, {"time": 1897, "pitch": 42, "duration": 34, "velocity": 88}, {"time": 1897, "pitch": 66, "duration": 8, "velocity": 77}, {"time": 1897, "pitch": 70, "duration": 8, "velocity": 79}, {"time": 1897, "pitch": 73, "duration": 7, "velocity": 88}, {"time": 1903, "pitch": 61, "duration": 7, "velocity": 78}, {"time": 1909, "pitch": 66, "duration": 4, "velocity": 85}, {"time": 1909, "pitch": 70, "duration": 6, "velocity": 89}, {"time": 1909, "pitch": 73, "duration": 6, "velocity": 90}, {"time": 1915, "pitch": 61, "duration": 7, "velocity": 76}, {"time": 1921, "pitch": 66, "duration": 7, "velocity": 79}, {"time": 1921, "pitch": 70, "duration": 8, "velocity": 82}, {"time": 1921, "pitch": 73, "duration": 8, "velocity": 88}, {"time": 1927, "pitch": 61, "duration": 7, "velocity": 76}, {"time": 1933, "pitch": 66, "duration": 5, "velocity": 87}, {"time": 1933, "pitch": 70, "duration": 5, "velocity": 83}, {"time": 1933, "pitch": 73, "duration": 8, "velocity": 89}, {"time": 1939, "pitch": 61, "duration": 8, "velocity": 84}, {"time": 1945, "pitch": 49, "duration": 32, "velocity": 89}, {"time": 1945, "pitch": 65, "duration": 7, "velocity": 68}, {"time": 1945, "pitch": 68, "duration": 6, "velocity": 77}, {"time": 1945, "pitch": 73, "duration": 8, "velocity": 89}, {"time": 1951, "pitch": 61, "duration": 7, "velocity": 80}, {"time": 1957, "pitch": 65, "duration": 6, "velocity": 78}, {"time": 1957, "pitch": 68, "duration": 7, "velocity": 79}, {"time": 1957, "pitch": 73, "duration": 7, "velocity": 89}, {"time": 1963, "pitch": 61, "duration": 6, "velocity": 73}, {"time": 1969, "pitch": 65, "duration": 5, "velocity": 80}, {"time": 1969, "pitch": 68, "duration": 7, "velocity": 81}, {"time": 1969, "pitch": 73, "duration": 7, "velocity": 90}, {"time": 1975, "pitch": 61, "duration": 4, "velocity": 76}, {"time": 1981, "pitch": 65, "duration": 6, "velocity": 90}, {"time": 1981, "pitch": 68, "duration": 8, "velocity": 90}, {"time": 1981, "pitch": 73, "duration": 7, "velocity": 91}, {"time": 1987, "pitch": 61, "duration": 3, "velocity": 83}, {"time": 1993, "pitch": 51, "duration": 30, "velocity": 90}, {"time": 1993, "pitch": 63, "duration": 3, "velocity": 82}, {"time": 1993, "pitch": 66, "duration": 8, "velocity": 77}, {"time": 1993, "pitch": 70, "duration": 9, "velocity": 88}, {"time": 1999, "pitch": 63, "duration": 7, "velocity": 83}, {"time": 2005, "pitch": 66, "duration": 6, "velocity": 84}, {"time": 2005, "pitch": 70, "duration": 7, "velocity": 88}, {"time": 2011, "pitch": 63, "duration": 4, "velocity": 80}, {"time": 2017, "pitch": 63, "duration": 2, "velocity": 84}, {"time": 2017, "pitch": 66, "duration": 8, "velocity": 83}, {"time": 2017, "pitch": 70, "duration": 8, "velocity": 86}, {"time": 2023, "pitch": 63, "duration": 3, "velocity": 80}, {"time": 2029, "pitch": 66, "duration": 5, "velocity": 87}, {"time": 2029, "pitch": 70, "duration": 7, "velocity": 88}, {"time": 2035, "pitch": 63, "duration": 2, "velocity": 82}, {"time": 2041, "pitch": 46, "duration": 35, "velocity": 85}, {"time": 2041, "pitch": 58, "duration": 4, "velocity": 80}, {"time": 2041, "pitch": 61, "duration": 8, "velocity": 79}, {"time": 2041, "pitch": 65, "duration": 8, "velocity": 79}, {"time": 2047, "pitch": 58, "duration": 4, "velocity": 81}, {"time": 2053, "pitch": 61, "duration": 3, "velocity": 84}, {"time": 2053, "pitch": 65, "duration": 4, "velocity": 85}, {"time": 2059, "pitch": 58, "duration": 3, "velocity": 78}, {"time": 2065, "pitch": 61, "duration": 8, "velocity": 86}, {"time": 2065, "pitch": 65, "duration": 8, "velocity": 81}, {"time": 2071, "pitch": 58, "duration": 3, "velocity": 80}, {"time": 2077, "pitch": 61, "duration": 7, "velocity": 90}, {"time": 2077, "pitch": 65, "duration": 7, "velocity": 90}, {"time": 2083, "pitch": 58, "duration": 2, "velocity": 90}, {"time": 2089, "pitch": 47, "duration": 37, "velocity": 89}, {"time": 2089, "pitch": 59, "duration": 3, "velocity": 88}, {"time": 2089, "pitch": 63, "duration": 7, "velocity": 90}, {"time": 2095, "pitch": 59, "duration": 4, "velocity": 84}, {"time": 2101, "pitch": 63, "duration": 8, "velocity": 90}, {"time": 2101, "pitch": 66, "duration": 7, "velocity": 88}, {"time": 2107, "pitch": 59, "duration": 4, "velocity": 77}, {"time": 2113, "pitch": 63, "duration": 7, "velocity": 89}, {"time": 2113, "pitch": 66, "duration": 6, "velocity": 86}, {"time": 2119, "pitch": 59, "duration": 3, "velocity": 83}, {"time": 2125, "pitch": 59, "duration": 2, "velocity": 88}, {"time": 2125, "pitch": 63, "duration": 4, "velocity": 92}, {"time": 2125, "pitch": 66, "duration": 4, "velocity": 85}, {"time": 2131, "pitch": 59, "duration": 4, "velocity": 89}, {"time": 2137, "pitch": 46, "duration": 21, "velocity": 88}, {"time": 2137, "pitch": 58, "duration": 4, "velocity": 86}, {"time": 2137, "pitch": 61, "duration": 8, "velocity": 81}, {"time": 2137, "pitch": 65, "duration": 9, "velocity": 84}, {"time": 2143, "pitch": 58, "duration": 5, "velocity": 84}, {"time": 2149, "pitch": 61, "duration": 5, "velocity": 87}, {"time": 2149, "pitch": 65, "duration": 7, "velocity": 88}, {"time": 2155, "pitch": 58, "duration": 7, "velocity": 88}, {"time": 2161, "pitch": 51, "duration": 12, "velocity": 85}, {"time": 2161, "pitch": 63, "duration": 7, "velocity": 90}, {"time": 2161, "pitch": 66, "duration": 7, "velocity": 86}, {"time": 2167, "pitch": 58, "duration": 7, "velocity": 88}, {"time": 2173, "pitch": 63, "duration": 7, "velocity": 90}, {"time": 2173, "pitch": 66, "duration": 8, "velocity": 90}, {"time": 2179, "pitch": 58, "duration": 3, "velocity": 94}, {"time": 2185, "pitch": 44, "duration": 41, "velocity": 87}, {"time": 2185, "pitch": 56, "duration": 3, "velocity": 78}, {"time": 2185, "pitch": 59, "duration": 9, "velocity": 80}, {"time": 2185, "pitch": 63, "duration": 8, "velocity": 88}, {"time": 2191, "pitch": 56, "duration": 5, "velocity": 70}, {"time": 2197, "pitch": 59, "duration": 7, "velocity": 86}, {"time": 2197, "pitch": 63, "duration": 7, "velocity": 90}, {"time": 2203, "pitch": 56, "duration": 6, "velocity": 75}, {"time": 2209, "pitch": 59, "duration": 8, "velocity": 88}, {"time": 2209, "pitch": 63, "duration": 8, "velocity": 89}, {"time": 2215, "pitch": 54, "duration": 7, "velocity": 88}, {"time": 2221, "pitch": 59, "duration": 4, "velocity": 89}, {"time": 2221, "pitch": 63, "duration": 8, "velocity": 91}, {"time": 2227, "pitch": 54, "duration": 3, "velocity": 88}, {"time": 2227, "pitch": 59, "duration": 1, "velocity": 48}, {"time": 2233, "pitch": 49, "duration": 48, "velocity": 89}, {"time": 2233, "pitch": 61, "duration": 8, "velocity": 88}, {"time": 2233, "pitch": 65, "duration": 8, "velocity": 87}, {"time": 2239, "pitch": 56, "duration": 7, "velocity": 74}, {"time": 2245, "pitch": 61, "duration": 7, "velocity": 84}, {"time": 2245, "pitch": 65, "duration": 8, "velocity": 82}, {"time": 2251, "pitch": 56, "duration": 7, "velocity": 87}, {"time": 2257, "pitch": 59, "duration": 6, "velocity": 84}, {"time": 2257, "pitch": 65, "duration": 8, "velocity": 89}, {"time": 2263, "pitch": 56, "duration": 7, "velocity": 87}, {"time": 2269, "pitch": 61, "duration": 10, "velocity": 89}, {"time": 2269, "pitch": 65, "duration": 8, "velocity": 93}, {"time": 2275, "pitch": 56, "duration": 5, "velocity": 92}, {"time": 2281, "pitch": 42, "duration": 38, "velocity": 90}, {"time": 2281, "pitch": 54, "duration": 8, "velocity": 88}, {"time": 2281, "pitch": 61, "duration": 13, "velocity": 87}, {"time": 2287, "pitch": 49, "duration": 23, "velocity": 84}, {"time": 2293, "pitch": 54, "duration": 22, "velocity": 95}, {"time": 2299, "pitch": 61, "duration": 20, "velocity": 90}, {"time": 2299, "pitch": 66, "duration": 18, "velocity": 88}, {"time": 2317, "pitch": 49, "duration": 4, "velocity": 91}, {"time": 2323, "pitch": 54, "duration": 2, "velocity": 95}, {"time": 2329, "pitch": 46, "duration": 35, "velocity": 90}, {"time": 2329, "pitch": 58, "duration": 6, "velocity": 90}, {"time": 2329, "pitch": 61, "duration": 10, "velocity": 92}, {"time": 2335, "pitch": 53, "duration": 14, "velocity": 82}, {"time": 2341, "pitch": 56, "duration": 4, "velocity": 93}, {"time": 2347, "pitch": 61, "duration": 13, "velocity": 89}, {"time": 2347, "pitch": 65, "duration": 13, "velocity": 91}, {"time": 2359, "pitch": 53, "duration": 4, "velocity": 88}, {"time": 2365, "pitch": 58, "duration": 1, "velocity": 84}, {"time": 2365, "pitch": 61, "duration": 7, "velocity": 91}, {"time": 2365, "pitch": 65, "duration": 7, "velocity": 90}, {"time": 2371, "pitch": 58, "duration": 8, "velocity": 90}, {"time": 2377, "pitch": 39, "duration": 38, "velocity": 90}, {"time": 2377, "pitch": 63, "duration": 11, "velocity": 84}, {"time": 2377, "pitch": 66, "duration": 13, "velocity": 88}, {"time": 2383, "pitch": 46, "duration": 15, "velocity": 79}, {"time": 2389, "pitch": 58, "duration": 3, "velocity": 88}, {"time": 2395, "pitch": 58, "duration": 7, "velocity": 97}, {"time": 2395, "pitch": 66, "duration": 13, "velocity": 95}, {"time": 2401, "pitch": 46, "duration": 14, "velocity": 88}, {"time": 2407, "pitch": 58, "duration": 3, "velocity": 88}, {"time": 2413, "pitch": 58, "duration": 3, "velocity": 89}, {"time": 2413, "pitch": 63, "duration": 6, "velocity": 94}, {"time": 2419, "pitch": 58, "duration": 4, "velocity": 86}, {"time": 2425, "pitch": 49, "duration": 40, "velocity": 97}, {"time": 2425, "pitch": 61, "duration": 6, "velocity": 86}, {"time": 2425, "pitch": 65, "duration": 9, "velocity": 84}, {"time": 2431, "pitch": 56, "duration": 9, "velocity": 87}, {"time": 2437, "pitch": 61, "duration": 3, "velocity": 80}, {"time": 2443, "pitch": 56, "duration": 6, "velocity": 88}, {"time": 2443, "pitch": 61, "duration": 13, "velocity": 91}, {"time": 2443, "pitch": 65, "duration": 14, "velocity": 93}, {"time": 2455, "pitch": 56, "duration": 3, "velocity": 82}, {"time": 2461, "pitch": 56, "duration": 4, "velocity": 89}, {"time": 2461, "pitch": 61, "duration": 4, "velocity": 92}, {"time": 2473, "pitch": 47, "duration": 40, "velocity": 90}, {"time": 2473, "pitch": 54, "duration": 3, "velocity": 88}, {"time": 2473, "pitch": 63, "duration": 11, "velocity": 90}, {"time": 2479, "pitch": 54, "duration": 8, "velocity": 90}, {"time": 2485, "pitch": 59, "duration": 3, "velocity": 88}, {"time": 2491, "pitch": 54, "duration": 4, "velocity": 89}, {"time": 2491, "pitch": 61, "duration": 6, "velocity": 91}, {"time": 2497, "pitch": 59, "duration": 4, "velocity": 83}, {"time": 2503, "pitch": 54, "duration": 2, "velocity": 74}, {"time": 2509, "pitch": 54, "duration": 4, "velocity": 90}, {"time": 2509, "pitch": 63, "duration": 5, "velocity": 93}, {"time": 2521, "pitch": 46, "duration": 18, "velocity": 92}, {"time": 2521, "pitch": 58, "duration": 8, "velocity": 89}, {"time": 2521, "pitch": 61, "duration": 8, "velocity": 89}, {"time": 2527, "pitch": 53, "duration": 9, "velocity": 76}, {"time": 2533, "pitch": 58, "duration": 3, "velocity": 89}, {"time": 2533, "pitch": 61, "duration": 6, "velocity": 89}, {"time": 2533, "pitch": 65, "duration": 7, "velocity": 85}, {"time": 2539, "pitch": 58, "duration": 5, "velocity": 80}, {"time": 2545, "pitch": 51, "duration": 14, "velocity": 91}, {"time": 2545, "pitch": 58, "duration": 1, "velocity": 78}, {"time": 2545, "pitch": 66, "duration": 11, "velocity": 90}, {"time": 2551, "pitch": 58, "duration": 4, "velocity": 90}, {"time": 2557, "pitch": 58, "duration": 3, "velocity": 90}, {"time": 2557, "pitch": 63, "duration": 6, "velocity": 94}, {"time": 2563, "pitch": 58, "duration": 3, "velocity": 77}, {"time": 2569, "pitch": 44, "duration": 37, "velocity": 89}, {"time": 2569, "pitch": 56, "duration": 7, "velocity": 88}, {"time": 2569, "pitch": 59, "duration": 13, "velocity": 89}, {"time": 2575, "pitch": 51, "duration": 18, "velocity": 86}, {"time": 2581, "pitch": 56, "duration": 4, "velocity": 83}, {"time": 2587, "pitch": 56, "duration": 13, "velocity": 92}, {"time": 2587, "pitch": 59, "duration": 13, "velocity": 94}, {"time": 2587, "pitch": 63, "duration": 12, "velocity": 93}, {"time": 2599, "pitch": 51, "duration": 6, "velocity": 87}, {"time": 2605, "pitch": 56, "duration": 2, "velocity": 90}, {"time": 2605, "pitch": 59, "duration": 9, "velocity": 97}, {"time": 2611, "pitch": 56, "duration": 4, "velocity": 86}, {"time": 2617, "pitch": 37, "duration": 9, "velocity": 93}, {"time": 2617, "pitch": 56, "duration": 4, "velocity": 82}, {"time": 2617, "pitch": 61, "duration": 4, "velocity": 89}, {"time": 2617, "pitch": 65, "duration": 5, "velocity": 81}, {"time": 2623, "pitch": 56, "duration": 3, "velocity": 77}, {"time": 2623, "pitch": 61, "duration": 3, "velocity": 84}, {"time": 2623, "pitch": 65, "duration": 3, "velocity": 79}, {"time": 2629, "pitch": 37, "duration": 2, "velocity": 90}, {"time": 2629, "pitch": 56, "duration": 2, "velocity": 82}, {"time": 2629, "pitch": 61, "duration": 2, "velocity": 83}, {"time": 2629, "pitch": 65, "duration": 3, "velocity": 83}, {"time": 2635, "pitch": 37, "duration": 3, "velocity": 92}, {"time": 2635, "pitch": 56, "duration": 2, "velocity": 88}, {"time": 2635, "pitch": 61, "duration": 2, "velocity": 88}, {"time": 2635, "pitch": 65, "duration": 3, "velocity": 86}, {"time": 2641, "pitch": 37, "duration": 5, "velocity": 99}, {"time": 2641, "pitch": 56, "duration": 4, "velocity": 90}, {"time": 2641, "pitch": 61, "duration": 4, "velocity": 94}, {"time": 2641, "pitch": 65, "duration": 4, "velocity": 91}, {"time": 2665, "pitch": 42, "duration": 36, "velocity": 89}, {"time": 2665, "pitch": 61, "duration": 7, "velocity": 88}, {"time": 2665, "pitch": 66, "duration": 9, "velocity": 84}, {"time": 2671, "pitch": 49, "duration": 14, "velocity": 81}, {"time": 2677, "pitch": 61, "duration": 3, "velocity": 89}, {"time": 2683, "pitch": 61, "duration": 13, "velocity": 91}, {"time": 2683, "pitch": 66, "duration": 14, "velocity": 89}, {"time": 2683, "pitch": 70, "duration": 15, "velocity": 88}, {"time": 2695, "pitch": 49, "duration": 8, "velocity": 89}, {"time": 2701, "pitch": 61, "duration": 8, "velocity": 99}, {"time": 2707, "pitch": 66, "duration": 2, "velocity": 92}, {"time": 2713, "pitch": 46, "duration": 37, "velocity": 89}, {"time": 2713, "pitch": 58, "duration": 7, "velocity": 88}, {"time": 2713, "pitch": 65, "duration": 15, "velocity": 89}, {"time": 2719, "pitch": 53, "duration": 17, "velocity": 88}, {"time": 2725, "pitch": 56, "duration": 4, "velocity": 88}, {"time": 2731, "pitch": 61, "duration": 15, "velocity": 89}, {"time": 2731, "pitch": 65, "duration": 15, "velocity": 91}, {"time": 2743, "pitch": 53, "duration": 5, "velocity": 82}, {"time": 2749, "pitch": 58, "duration": 8, "velocity": 97}, {"time": 2749, "pitch": 65, "duration": 1, "velocity": 73}, {"time": 2755, "pitch": 61, "duration": 5, "velocity": 90}, {"time": 2761, "pitch": 39, "duration": 37, "velocity": 90}, {"time": 2761, "pitch": 63, "duration": 8, "velocity": 86}, {"time": 2767, "pitch": 46, "duration": 20, "velocity": 89}, {"time": 2773, "pitch": 63, "duration": 3, "velocity": 92}, {"time": 2779, "pitch": 63, "duration": 13, "velocity": 94}, {"time": 2779, "pitch": 66, "duration": 12, "velocity": 90}, {"time": 2791, "pitch": 46, "duration": 8, "velocity": 77}, {"time": 2797, "pitch": 63, "duration": 2, "velocity": 89}, {"time": 2797, "pitch": 66, "duration": 6, "velocity": 92}, {"time": 2797, "pitch": 70, "duration": 6, "velocity": 90}, {"time": 2803, "pitch": 63, "duration": 1, "velocity": 76}, {"time": 2809, "pitch": 37, "duration": 37, "velocity": 92}, {"time": 2809, "pitch": 65, "duration": 11, "velocity": 95}, {"time": 2815, "pitch": 44, "duration": 15, "velocity": 84}, {"time": 2821, "pitch": 56, "duration": 3, "velocity": 95}, {"time": 2827, "pitch": 56, "duration": 7, "velocity": 95}, {"time": 2827, "pitch": 61, "duration": 7, "velocity": 95}, {"time": 2833, "pitch": 44, "duration": 8, "velocity": 86}, {"time": 2839, "pitch": 56, "duration": 1, "velocity": 73}, {"time": 2839, "pitch": 61, "duration": 13, "velocity": 95}, {"time": 2839, "pitch": 65, "duration": 12, "velocity": 95}, {"time": 2845, "pitch": 44, "duration": 3, "velocity": 87}, {"time": 2851, "pitch": 56, "duration": 2, "velocity": 95}, {"time": 2857, "pitch": 47, "duration": 39, "velocity": 93}, {"time": 2857, "pitch": 59, "duration": 7, "velocity": 89}, {"time": 2857, "pitch": 63, "duration": 7, "velocity": 99}, {"time": 2863, "pitch": 54, "duration": 16, "velocity": 82}, {"time": 2869, "pitch": 59, "duration": 3, "velocity": 91}, {"time": 2875, "pitch": 59, "duration": 8, "velocity": 99}, {"time": 2875, "pitch": 66, "duration": 14, "velocity": 91}, {"time": 2881, "pitch": 54, "duration": 15, "velocity": 89}, {"time": 2887, "pitch": 59, "duration": 2, "velocity": 89}, {"time": 2893, "pitch": 59, "duration": 2, "velocity": 97}, {"time": 2893, "pitch": 63, "duration": 5, "velocity": 109}, {"time": 2899, "pitch": 59, "duration": 2, "velocity": 84}, {"time": 2905, "pitch": 46, "duration": 13, "velocity": 89}, {"time": 2905, "pitch": 56, "duration": 7, "velocity": 90}, {"time": 2905, "pitch": 61, "duration": 11, "velocity": 88}, {"time": 2905, "pitch": 65, "duration": 13, "velocity": 81}, {"time": 2911, "pitch": 53, "duration": 7, "velocity": 88}, {"time": 2917, "pitch": 56, "duration": 7, "velocity": 92}, {"time": 2923, "pitch": 61, "duration": 5, "velocity": 93}, {"time": 2929, "pitch": 39, "duration": 15, "velocity": 94}, {"time": 2929, "pitch": 58, "duration": 7, "velocity": 88}, {"time": 2929, "pitch": 66, "duration": 13, "velocity": 86}, {"time": 2935, "pitch": 46, "duration": 9, "velocity": 80}, {"time": 2941, "pitch": 58, "duration": 7, "velocity": 94}, {"time": 2947, "pitch": 63, "duration": 1, "velocity": 93}, {"time": 2953, "pitch": 44, "duration": 14, "velocity": 90}, {"time": 2953, "pitch": 54, "duration": 7, "velocity": 92}, {"time": 2953, "pitch": 59, "duration": 10, "velocity": 92}, {"time": 2959, "pitch": 51, "duration": 7, "velocity": 89}, {"time": 2965, "pitch": 54, "duration": 7, "velocity": 94}, {"time": 2971, "pitch": 59, "duration": 6, "velocity": 92}, {"time": 2977, "pitch": 37, "duration": 14, "velocity": 94}, {"time": 2977, "pitch": 56, "duration": 7, "velocity": 83}, {"time": 2977, "pitch": 61, "duration": 6, "velocity": 88}, {"time": 2983, "pitch": 44, "duration": 7, "velocity": 76}, {"time": 2989, "pitch": 56, "duration": 4, "velocity": 89}, {"time": 3001, "pitch": 47, "duration": 40, "velocity": 93}, {"time": 3001, "pitch": 54, "duration": 3, "velocity": 88}, {"time": 3001, "pitch": 59, "duration": 8, "velocity": 88}, {"time": 3001, "pitch": 63, "duration": 8, "velocity": 89}, {"time": 3007, "pitch": 54, "duration": 4, "velocity": 80}, {"time": 3013, "pitch": 59, "duration": 8, "velocity": 86}, {"time": 3013, "pitch": 63, "duration": 7, "velocity": 89}, {"time": 3019, "pitch": 54, "duration": 4, "velocity": 87}, {"time": 3025, "pitch": 59, "duration": 8, "velocity": 89}, {"time": 3025, "pitch": 63, "duration": 8, "velocity": 90}, {"time": 3031, "pitch": 54, "duration": 3, "velocity": 82}, {"time": 3037, "pitch": 54, "duration": 1, "velocity": 74}, {"time": 3037, "pitch": 59, "duration": 7, "velocity": 90}, {"time": 3037, "pitch": 63, "duration": 7, "velocity": 90}, {"time": 3043, "pitch": 54, "duration": 3, "velocity": 90}, {"time": 3049, "pitch": 42, "duration": 33, "velocity": 88}, {"time": 3049, "pitch": 58, "duration": 9, "velocity": 73}, {"time": 3049, "pitch": 61, "duration": 9, "velocity": 79}, {"time": 3055, "pitch": 49, "duration": 26, "velocity": 79}, {"time": 3055, "pitch": 54, "duration": 7, "velocity": 80}, {"time": 3061, "pitch": 58, "duration": 3, "velocity": 88}, {"time": 3061, "pitch": 61, "duration": 7, "velocity": 88}, {"time": 3067, "pitch": 54, "duration": 2, "velocity": 88}, {"time": 3073, "pitch": 58, "duration": 3, "velocity": 88}, {"time": 3073, "pitch": 61, "duration": 8, "velocity": 85}, {"time": 3079, "pitch": 54, "duration": 4, "velocity": 82}, {"time": 3085, "pitch": 42, "duration": 10, "velocity": 88}, {"time": 3085, "pitch": 58, "duration": 6, "velocity": 88}, {"time": 3085, "pitch": 61, "duration": 7, "velocity": 88}, {"time": 3091, "pitch": 54, "duration": 3, "velocity": 82}, {"time": 3097, "pitch": 47, "duration": 43, "velocity": 90}, {"time": 3097, "pitch": 59, "duration": 7, "velocity": 88}, {"time": 3097, "pitch": 63, "duration": 7, "velocity": 90}, {"time": 3103, "pitch": 54, "duration": 3, "velocity": 82}, {"time": 3109, "pitch": 59, "duration": 2, "velocity": 87}, {"time": 3109, "pitch": 63, "duration": 2, "velocity": 89}, {"time": 3115, "pitch": 54, "duration": 5, "velocity": 88}, {"time": 3121, "pitch": 59, "duration": 8, "velocity": 92}, {"time": 3121, "pitch": 63, "duration": 8, "velocity": 93}, {"time": 3127, "pitch": 54, "duration": 4, "velocity": 86}, {"time": 3133, "pitch": 59, "duration": 7, "velocity": 89}, {"time": 3133, "pitch": 63, "duration": 7, "velocity": 93}, {"time": 3139, "pitch": 54, "duration": 4, "velocity": 88}, {"time": 3145, "pitch": 39, "duration": 31, "velocity": 93}, {"time": 3145, "pitch": 58, "duration": 8, "velocity": 82}, {"time": 3145, "pitch": 63, "duration": 8, "velocity": 90}, {"time": 3151, "pitch": 54, "duration": 8, "velocity": 87}, {"time": 3157, "pitch": 58, "duration": 8, "velocity": 85}, {"time": 3157, "pitch": 63, "duration": 9, "velocity": 92}, {"time": 3163, "pitch": 54, "duration": 7, "velocity": 84}, {"time": 3169, "pitch": 58, "duration": 7, "velocity": 84}, {"time": 3169, "pitch": 63, "duration": 7, "velocity": 90}, {"time": 3175, "pitch": 54, "duration": 3, "velocity": 82}, {"time": 3181, "pitch": 58, "duration": 6, "velocity": 89}, {"time": 3181, "pitch": 63, "duration": 7, "velocity": 90}, {"time": 3187, "pitch": 54, "duration": 4, "velocity": 88}, {"time": 3193, "pitch": 47, "duration": 20, "velocity": 91}, {"time": 3193, "pitch": 54, "duration": 1, "velocity": 62}, {"time": 3193, "pitch": 59, "duration": 7, "velocity": 88}, {"time": 3193, "pitch": 63, "duration": 7, "velocity": 89}, {"time": 3199, "pitch": 54, "duration": 3, "velocity": 86}, {"time": 3205, "pitch": 54, "duration": 2, "velocity": 83}, {"time": 3205, "pitch": 59, "duration": 7, "velocity": 91}, {"time": 3205, "pitch": 63, "duration": 7, "velocity": 91}, {"time": 3211, "pitch": 54, "duration": 7, "velocity": 77}, {"time": 3217, "pitch": 47, "duration": 2, "velocity": 89}, {"time": 3217, "pitch": 59, "duration": 7, "velocity": 88}, {"time": 3217, "pitch": 63, "duration": 7, "velocity": 89}, {"time": 3223, "pitch": 54, "duration": 4, "velocity": 80}, {"time": 3229, "pitch": 59, "duration": 7, "velocity": 93}, {"time": 3229, "pitch": 63, "duration": 6, "velocity": 92}, {"time": 3235, "pitch": 54, "duration": 5, "velocity": 88}, {"time": 3241, "pitch": 39, "duration": 21, "velocity": 93}, {"time": 3241, "pitch": 58, "duration": 8, "velocity": 87}, {"time": 3241, "pitch": 63, "duration": 8, "velocity": 89}, {"time": 3247, "pitch": 54, "duration": 7, "velocity": 81}, {"time": 3253, "pitch": 58, "duration": 3, "velocity": 86}, {"time": 3253, "pitch": 63, "duration": 3, "velocity": 90}, {"time": 3259, "pitch": 54, "duration": 4, "velocity": 85}, {"time": 3259, "pitch": 58, "duration": 1, "velocity": 35}, {"time": 3265, "pitch": 39, "duration": 13, "velocity": 89}, {"time": 3265, "pitch": 58, "duration": 8, "velocity": 87}, {"time": 3265, "pitch": 63, "duration": 8, "velocity": 89}, {"time": 3271, "pitch": 54, "duration": 3, "velocity": 86}, {"time": 3277, "pitch": 54, "duration": 1, "velocity": 85}, {"time": 3277, "pitch": 58, "duration": 6, "velocity": 97}, {"time": 3277, "pitch": 63, "duration": 7, "velocity": 93}, {"time": 3283, "pitch": 54, "duration": 3, "velocity": 89}, {"time": 3289, "pitch": 40, "duration": 45, "velocity": 89}, {"time": 3289, "pitch": 52, "duration": 3, "velocity": 82}, {"time": 3289, "pitch": 56, "duration": 8, "velocity": 80}, {"time": 3289, "pitch": 59, "duration": 8, "velocity": 83}, {"time": 3295, "pitch": 52, "duration": 4, "velocity": 88}, {"time": 3301, "pitch": 56, "duration": 3, "velocity": 90}, {"time": 3301, "pitch": 59, "duration": 4, "velocity": 90}, {"time": 3307, "pitch": 52, "duration": 5, "velocity": 89}, {"time": 3313, "pitch": 56, "duration": 7, "velocity": 84}, {"time": 3313, "pitch": 59, "duration": 7, "velocity": 91}, {"time": 3313, "pitch": 64, "duration": 6, "velocity": 88}, {"time": 3319, "pitch": 52, "duration": 4, "velocity": 92}, {"time": 3325, "pitch": 56, "duration": 6, "velocity": 89}, {"time": 3325, "pitch": 59, "duration": 7, "velocity": 88}, {"time": 3331, "pitch": 52, "duration": 5, "velocity": 90}, {"time": 3337, "pitch": 40, "duration": 22, "velocity": 89}, {"time": 3337, "pitch": 56, "duration": 7, "velocity": 90}, {"time": 3337, "pitch": 59, "duration": 7, "velocity": 89}, {"time": 3343, "pitch": 52, "duration": 3, "velocity": 82}, {"time": 3349, "pitch": 56, "duration": 3, "velocity": 88}, {"time": 3349, "pitch": 59, "duration": 3, "velocity": 89}, {"time": 3355, "pitch": 52, "duration": 4, "velocity": 88}, {"time": 3361, "pitch": 40, "duration": 24, "velocity": 89}, {"time": 3361, "pitch": 56, "duration": 7, "velocity": 88}, {"time": 3361, "pitch": 59, "duration": 8, "velocity": 88}, {"time": 3367, "pitch": 52, "duration": 4, "velocity": 92}, {"time": 3373, "pitch": 56, "duration": 11, "velocity": 93}, {"time": 3373, "pitch": 59, "duration": 11, "velocity": 95}, {"time": 3373, "pitch": 64, "duration": 11, "velocity": 90}, {"time": 3379, "pitch": 52, "duration": 5, "velocity": 89}, {"time": 3385, "pitch": 42, "duration": 39, "velocity": 86}, {"time": 3391, "pitch": 49, "duration": 31, "velocity": 73}, {"time": 3397, "pitch": 61, "duration": 39, "velocity": 85}, {"time": 3403, "pitch": 54, "duration": 21, "velocity": 64}, {"time": 3403, "pitch": 66, "duration": 32, "velocity": 87}, {"time": 3427, "pitch": 54, "duration": 9, "velocity": 83}, {"time": 3433, "pitch": 41, "duration": 41, "velocity": 83}, {"time": 3439, "pitch": 49, "duration": 33, "velocity": 58}, {"time": 3445, "pitch": 53, "duration": 21, "velocity": 77}, {"time": 3451, "pitch": 61, "duration": 34, "velocity": 90}, {"time": 3475, "pitch": 56, "duration": 13, "velocity": 82}, {"time": 3481, "pitch": 39, "duration": 43, "velocity": 90}, {"time": 3487, "pitch": 46, "duration": 27, "velocity": 71}, {"time": 3493, "pitch": 51, "duration": 23, "velocity": 89}, {"time": 3499, "pitch": 54, "duration": 21, "velocity": 83}, {"time": 3499, "pitch": 58, "duration": 25, "velocity": 86}, {"time": 3517, "pitch": 46, "duration": 9, "velocity": 75}, {"time": 3523, "pitch": 51, "duration": 8, "velocity": 92}, {"time": 3529, "pitch": 37, "duration": 37, "velocity": 90}, {"time": 3535, "pitch": 44, "duration": 30, "velocity": 75}, {"time": 3541, "pitch": 56, "duration": 7, "velocity": 82}, {"time": 3547, "pitch": 61, "duration": 22, "velocity": 89}, {"time": 3559, "pitch": 56, "duration": 7, "velocity": 82}, {"time": 3565, "pitch": 49, "duration": 2, "velocity": 76}, {"time": 3577, "pitch": 47, "duration": 38, "velocity": 88}, {"time": 3577, "pitch": 54, "duration": 4, "velocity": 83}, {"time": 3577, "pitch": 59, "duration": 13, "velocity": 81}, {"time": 3583, "pitch": 54, "duration": 7, "velocity": 88}, {"time": 3589, "pitch": 61, "duration": 4, "velocity": 85}, {"time": 3595, "pitch": 63, "duration": 14, "velocity": 88}, {"time": 3607, "pitch": 54, "duration": 3, "velocity": 76}, {"time": 3613, "pitch": 54, "duration": 3, "velocity": 89}, {"time": 3613, "pitch": 59, "duration": 4, "velocity": 84}, {"time": 3625, "pitch": 46, "duration": 14, "velocity": 89}, {"time": 3625, "pitch": 58, "duration": 9, "velocity": 83}, {"time": 3625, "pitch": 61, "duration": 14, "velocity": 84}, {"time": 3631, "pitch": 53, "duration": 7, "velocity": 71}, {"time": 3637, "pitch": 58, "duration": 8, "velocity": 88}, {"time": 3643, "pitch": 61, "duration": 5, "velocity": 85}, {"time": 3649, "pitch": 39, "duration": 15, "velocity": 90}, {"time": 3649, "pitch": 58, "duration": 8, "velocity": 84}, {"time": 3649, "pitch": 63, "duration": 8, "velocity": 88}, {"time": 3655, "pitch": 46, "duration": 7, "velocity": 76}, {"time": 3661, "pitch": 58, "duration": 3, "velocity": 85}, {"time": 3661, "pitch": 63, "duration": 5, "velocity": 89}, {"time": 3661, "pitch": 66, "duration": 6, "velocity": 84}, {"time": 3673, "pitch": 44, "duration": 36, "velocity": 89}, {"time": 3673, "pitch": 56, "duration": 8, "velocity": 75}, {"time": 3673, "pitch": 59, "duration": 13, "velocity": 83}, {"time": 3679, "pitch": 51, "duration": 29, "velocity": 83}, {"time": 3685, "pitch": 54, "duration": 5, "velocity": 91}, {"time": 3691, "pitch": 54, "duration": 1, "velocity": 51}, {"time": 3691, "pitch": 59, "duration": 13, "velocity": 89}, {"time": 3709, "pitch": 59, "duration": 8, "velocity": 89}, {"time": 3709, "pitch": 63, "duration": 9, "velocity": 93}, {"time": 3715, "pitch": 54, "duration": 2, "velocity": 74}, {"time": 3721, "pitch": 37, "duration": 5, "velocity": 93}, {"time": 3721, "pitch": 56, "duration": 4, "velocity": 82}, {"time": 3721, "pitch": 61, "duration": 4, "velocity": 82}, {"time": 3727, "pitch": 37, "duration": 2, "velocity": 89}, {"time": 3727, "pitch": 56, "duration": 2, "velocity": 89}, {"time": 3727, "pitch": 61, "duration": 3, "velocity": 90}, {"time": 3733, "pitch": 37, "duration": 36, "velocity": 93}, {"time": 3733, "pitch": 56, "duration": 7, "velocity": 90}, {"time": 3733, "pitch": 61, "duration": 9, "velocity": 102}, {"time": 3739, "pitch": 44, "duration": 10, "velocity": 88}, {"time": 3745, "pitch": 56, "duration": 11, "velocity": 93}, {"time": 3745, "pitch": 61, "duration": 11, "velocity": 92}, {"time": 3745, "pitch": 65, "duration": 10, "velocity": 95}, {"time": 3751, "pitch": 44, "duration": 10, "velocity": 86}, {"time": 3757, "pitch": 56, "duration": 10, "velocity": 99}, {"time": 3757, "pitch": 61, "duration": 10, "velocity": 104}, {"time": 3763, "pitch": 44, "duration": 5, "velocity": 86}, {"time": 3769, "pitch": 42, "duration": 36, "velocity": 89}, {"time": 3769, "pitch": 61, "duration": 7, "velocity": 88}, {"time": 3769, "pitch": 66, "duration": 9, "velocity": 84}, {"time": 3775, "pitch": 49, "duration": 14, "velocity": 81}, {"time": 3781, "pitch": 61, "duration": 3, "velocity": 89}, {"time": 3787, "pitch": 61, "duration": 13, "velocity": 91}, {"time": 3787, "pitch": 66, "duration": 14, "velocity": 89}, {"time": 3787, "pitch": 70, "duration": 15, "velocity": 88}, {"time": 3799, "pitch": 49, "duration": 8, "velocity": 89}, {"time": 3805, "pitch": 61, "duration": 8, "velocity": 99}, {"time": 3811, "pitch": 66, "duration": 2, "velocity": 92}, {"time": 3817, "pitch": 46, "duration": 37, "velocity": 89}, {"time": 3817, "pitch": 58, "duration": 7, "velocity": 88}, {"time": 3817, "pitch": 65, "duration": 15, "velocity": 89}, {"time": 3823, "pitch": 53, "duration": 17, "velocity": 88}, {"time": 3829, "pitch": 56, "duration": 4, "velocity": 88}, {"time": 3835, "pitch": 61, "duration": 15, "velocity": 89}, {"time": 3835, "pitch": 65, "duration": 15, "velocity": 91}, {"time": 3847, "pitch": 53, "duration": 5, "velocity": 82}, {"time": 3853, "pitch": 58, "duration": 8, "velocity": 97}, {"time": 3853, "pitch": 65, "duration": 1, "velocity": 73}, {"time": 3859, "pitch": 61, "duration": 5, "velocity": 90}, {"time": 3865, "pitch": 39, "duration": 37, "velocity": 90}, {"time": 3865, "pitch": 63, "duration": 8, "velocity": 86}, {"time": 3871, "pitch": 46, "duration": 20, "velocity": 89}, {"time": 3877, "pitch": 63, "duration": 3, "velocity": 92}, {"time": 3883, "pitch": 63, "duration": 13, "velocity": 94}, {"time": 3883, "pitch": 66, "duration": 12, "velocity": 90}, {"time": 3895, "pitch": 46, "duration": 8, "velocity": 77}, {"time": 3901, "pitch": 63, "duration": 2, "velocity": 89}, {"time": 3901, "pitch": 66, "duration": 6, "velocity": 92}, {"time": 3901, "pitch": 70, "duration": 6, "velocity": 90}, {"time": 3907, "pitch": 63, "duration": 1, "velocity": 76}, {"time": 3913, "pitch": 37, "duration": 37, "velocity": 92}, {"time": 3913, "pitch": 65, "duration": 11, "velocity": 95}, {"time": 3919, "pitch": 44, "duration": 15, "velocity": 84}, {"time": 3925, "pitch": 56, "duration": 3, "velocity": 95}, {"time": 3931, "pitch": 56, "duration": 7, "velocity": 95}, {"time": 3931, "pitch": 61, "duration": 7, "velocity": 95}, {"time": 3937, "pitch": 44, "duration": 8, "velocity": 86}, {"time": 3943, "pitch": 56, "duration": 1, "velocity": 73}, {"time": 3943, "pitch": 61, "duration": 13, "velocity": 95}, {"time": 3943, "pitch": 65, "duration": 12, "velocity": 95}, {"time": 3949, "pitch": 44, "duration": 3, "velocity": 87}, {"time": 3955, "pitch": 56, "duration": 2, "velocity": 95}, {"time": 3961, "pitch": 47, "duration": 39, "velocity": 93}, {"time": 3961, "pitch": 59, "duration": 7, "velocity": 89}, {"time": 3961, "pitch": 63, "duration": 7, "velocity": 99}, {"time": 3967, "pitch": 54, "duration": 16, "velocity": 82}, {"time": 3973, "pitch": 59, "duration": 3, "velocity": 91}, {"time": 3979, "pitch": 59, "duration": 8, "velocity": 99}, {"time": 3979, "pitch": 66, "duration": 14, "velocity": 91}, {"time": 3985, "pitch": 54, "duration": 15, "velocity": 89}, {"time": 3991, "pitch": 59, "duration": 2, "velocity": 89}, {"time": 3997, "pitch": 59, "duration": 2, "velocity": 97}, {"time": 3997, "pitch": 63, "duration": 5, "velocity": 109}, {"time": 4003, "pitch": 59, "duration": 2, "velocity": 84}, {"time": 4009, "pitch": 46, "duration": 13, "velocity": 89}, {"time": 4009, "pitch": 56, "duration": 7, "velocity": 90}, {"time": 4009, "pitch": 61, "duration": 11, "velocity": 88}, {"time": 4009, "pitch": 65, "duration": 13, "velocity": 81}, {"time": 4015, "pitch": 53, "duration": 7, "velocity": 88}, {"time": 4021, "pitch": 56, "duration": 7, "velocity": 92}, {"time": 4027, "pitch": 61, "duration": 5, "velocity": 93}, {"time": 4033, "pitch": 39, "duration": 15, "velocity": 94}, {"time": 4033, "pitch": 58, "duration": 7, "velocity": 88}, {"time": 4033, "pitch": 66, "duration": 13, "velocity": 86}, {"time": 4039, "pitch": 46, "duration": 9, "velocity": 80}, {"time": 4045, "pitch": 58, "duration": 7, "velocity": 94}, {"time": 4051, "pitch": 63, "duration": 1, "velocity": 93}, {"time": 4057, "pitch": 44, "duration": 14, "velocity": 90}, {"time": 4057, "pitch": 54, "duration": 7, "velocity": 92}, {"time": 4057, "pitch": 59, "duration": 10, "velocity": 92}, {"time": 4063, "pitch": 51, "duration": 7, "velocity": 89}, {"time": 4069, "pitch": 54, "duration": 7, "velocity": 94}, {"time": 4075, "pitch": 59, "duration": 6, "velocity": 92}, {"time": 4081, "pitch": 37, "duration": 14, "velocity": 94}, {"time": 4081, "pitch": 56, "duration": 7, "velocity": 83}, {"time": 4081, "pitch": 61, "duration": 6, "velocity": 88}, {"time": 4087, "pitch": 44, "duration": 7, "velocity": 76}, {"time": 4093, "pitch": 56, "duration": 4, "velocity": 89}, {"time": 4105, "pitch": 42, "duration": 39, "velocity": 89}, {"time": 4105, "pitch": 54, "duration": 8, "velocity": 89}, {"time": 4105, "pitch": 61, "duration": 9, "velocity": 85}, {"time": 4111, "pitch": 49, "duration": 21, "velocity": 79}, {"time": 4117, "pitch": 54, "duration": 3, "velocity": 84}, {"time": 4123, "pitch": 54, "duration": 18, "velocity": 86}, {"time": 4123, "pitch": 58, "duration": 19, "velocity": 83}, {"time": 4123, "pitch": 61, "duration": 19, "velocity": 87}, {"time": 4141, "pitch": 49, "duration": 3, "velocity": 79}, {"time": 4147, "pitch": 54, "duration": 2, "velocity": 86}, {"time": 4153, "pitch": 37, "duration": 40, "velocity": 92}, {"time": 4153, "pitch": 56, "duration": 5, "velocity": 80}, {"time": 4153, "pitch": 61, "duration": 6, "velocity": 87}, {"time": 4159, "pitch": 44, "duration": 34, "velocity": 73}, {"time": 4165, "pitch": 56, "duration": 4, "velocity": 83}, {"time": 4171, "pitch": 56, "duration": 19, "velocity": 88}, {"time": 4171, "pitch": 65, "duration": 12, "velocity": 89}, {"time": 4189, "pitch": 66, "duration": 7, "velocity": 90}, {"time": 4195, "pitch": 65, "duration": 7, "velocity": 94}, {"time": 4201, "pitch": 51, "duration": 40, "velocity": 90}, {"time": 4201, "pitch": 63, "duration": 7, "velocity": 88}, {"time": 4207, "pitch": 58, "duration": 24, "velocity": 87}, {"time": 4213, "pitch": 63, "duration": 2, "velocity": 87}, {"time": 4219, "pitch": 61, "duration": 19, "velocity": 89}, {"time": 4219, "pitch": 66, "duration": 21, "velocity": 86}, {"time": 4237, "pitch": 58, "duration": 5, "velocity": 92}, {"time": 4243, "pitch": 61, "duration": 3, "velocity": 83}, {"time": 4248, "pitch": 35, "duration": 3, "velocity": 79}, {"time": 4248, "pitch": 54, "duration": 4, "velocity": 83}, {"time": 4248, "pitch": 63, "duration": 12, "velocity": 88}, {"time": 4254, "pitch": 54, "duration": 8, "velocity": 80}, {"time": 4260, "pitch": 59, "duration": 2, "velocity": 78}, {"time": 4266, "pitch": 59, "duration": 39, "velocity": 77}, {"time": 4266, "pitch": 54, "duration": 30, "velocity": 75}, {"time": 4266, "pitch": 63, "duration": 39, "velocity": 81}, {"time": 4296, "pitch": 66, "duration": 9, "velocity": 76}, {"time": 4296, "pitch": 47, "duration": 106, "velocity": 80}, {"time": 4302, "pitch": 54, "duration": 7, "velocity": 72}, {"time": 4308, "pitch": 66, "duration": 7, "velocity": 82}, {"time": 4314, "pitch": 54, "duration": 9, "velocity": 75}, {"time": 4321, "pitch": 66, "duration": 37, "velocity": 71}, {"time": 4327, "pitch": 54, "duration": 11, "velocity": 74}, {"time": 4334, "pitch": 59, "duration": 22, "velocity": 69}, {"time": 4342, "pitch": 54, "duration": 18, "velocity": 72}], "annotations": [{"time": 161, "annotation": {"number": 64, "value": 127}, "group": "control_change"}, {"time": 161, "annotation": {"number": 64, "value": 0}, "group": "control_change"}, {"time": 169, "annotation": {"number": 64, "value": 0}, "group": "control_change"}, {"time": 174, "annotation": {"number": 64, "value": 127}, "group": "control_change"}, {"time": 175, "annotation": {"number": 64, "value": 0}, "group": "control_change"}, {"time": 175, "annotation": {"number": 64, "value": 127}, "group": "control_change"}, {"time": 208, "annotation": {"number": 64, "value": 0}, "group": "control_change"}, {"time": 224, "annotation": {"number": 64, "value": 127}, "group": "control_change"}, {"time": 262, "annotation": {"number": 64, "value": 0}, "group": "control_change"}, {"time": 268, "annotation": {"number": 64, "value": 127}, "group": "control_change"}, {"time": 309, "annotation": {"number": 64, "value": 0}, "group": "control_change"}, {"time": 317, "annotation": {"number": 64, "value": 127}, "group": "control_change"}, {"time": 359, "annotation": {"number": 64, "value": 0}, "group": "control_change"}, {"time": 364, "annotation": {"number": 64, "value": 127}, "group": "control_change"}, {"time": 407, "annotation": {"number": 64, "value": 0}, "group": "control_change"}, {"time": 413, "annotation": {"number": 64, "value": 127}, "group": "control_change"}, {"time": 453, "annotation": {"number": 64, "value": 0}, "group": "control_change"}, {"time": 461, "annotation": {"number": 64, "value": 127}, "group": "control_change"}, {"time": 478, "annotation": {"number": 64, "value": 0}, "group": "control_change"}, {"time": 485, "annotation": {"number": 64, "value": 127}, "group": "control_change"}, {"time": 503, "annotation": {"number": 64, "value": 0}, "group": "control_change"}, {"time": 509, "annotation": {"number": 64, "value": 127}, "group": "control_change"}, {"time": 551, "annotation": {"number": 64, "value": 0}, "group": "control_change"}, {"time": 557, "annotation": {"number": 64, "value": 127}, "group": "control_change"}, {"time": 595, "annotation": {"number": 64, "value": 0}, "group": "control_change"}, {"time": 608, "annotation": {"number": 64, "value": 127}, "group": "control_change"}, {"time": 646, "annotation": {"number": 64, "value": 0}, "group": "control_change"}, {"time": 652, "annotation": {"number": 64, "value": 127}, "group": "control_change"}, {"time": 693, "annotation": {"number": 64, "value": 0}, "group": "control_change"}, {"time": 701, "annotation": {"number": 64, "value": 127}, "group": "control_change"}, {"time": 743, "annotation": {"number": 64, "value": 0}, "group": "control_change"}, {"time": 748, "annotation": {"number": 64, "value": 127}, "group": "control_change"}, {"time": 791, "annotation": {"number": 64, "value": 0}, "group": "control_change"}, {"time": 797, "annotation": {"number": 64, "value": 127}, "group": "control_change"}, {"time": 837, "annotation": {"number": 64, "value": 0}, "group": "control_change"}, {"time": 845, "annotation": {"number": 64, "value": 127}, "group": "control_change"}, {"time": 862, "annotation": {"number": 64, "value": 0}, "group": "control_change"}, {"time": 869, "annotation": {"number": 64, "value": 127}, "group": "control_change"}, {"time": 887, "annotation": {"number": 64, "value": 0}, "group": "control_change"}, {"time": 893, "annotation": {"number": 64, "value": 127}, "group": "control_change"}, {"time": 935, "annotation": {"number": 64, "value": 0}, "group": "control_change"}, {"time": 941, "annotation": {"number": 64, "value": 127}, "group": "control_change"}, {"time": 979, "annotation": {"number": 64, "value": 0}, "group": "control_change"}, {"time": 992, "annotation": {"number": 64, "value": 127}, "group": "control_change"}, {"time": 993, "annotation": {"number": 64, "value": 0}, "group": "control_change"}, {"time": 993, "annotation": {"number": 64, "value": 127}, "group": "control_change"}, {"time": 1030, "annotation": {"number": 64, "value": 0}, "group": "control_change"}, {"time": 1034, "annotation": {"number": 64, "value": 127}, "group": "control_change"}, {"time": 1078, "annotation": {"number": 64, "value": 0}, "group": "control_change"}, {"time": 1083, "annotation": {"number": 64, "value": 127}, "group": "control_change"}, {"time": 1126, "annotation": {"number": 64, "value": 0}, "group": "control_change"}, {"time": 1130, "annotation": {"number": 64, "value": 127}, "group": "control_change"}, {"time": 1175, "annotation": {"number": 64, "value": 0}, "group": "control_change"}, {"time": 1182, "annotation": {"number": 64, "value": 127}, "group": "control_change"}, {"time": 1222, "annotation": {"number": 64, "value": 0}, "group": "control_change"}, {"time": 1228, "annotation": {"number": 64, "value": 127}, "group": "control_change"}, {"time": 1247, "annotation": {"number": 64, "value": 0}, "group": "control_change"}, {"time": 1253, "annotation": {"number": 64, "value": 127}, "group": "control_change"}, {"time": 1272, "annotation": {"number": 64, "value": 0}, "group": "control_change"}, {"time": 1279, "annotation": {"number": 64, "value": 127}, "group": "control_change"}, {"time": 1317, "annotation": {"number": 64, "value": 0}, "group": "control_change"}, {"time": 1321, "annotation": {"number": 64, "value": 127}, "group": "control_change"}, {"time": 1367, "annotation": {"number": 64, "value": 0}, "group": "control_change"}, {"time": 1374, "annotation": {"number": 64, "value": 127}, "group": "control_change"}, {"time": 1415, "annotation": {"number": 64, "value": 0}, "group": "control_change"}, {"time": 1420, "annotation": {"number": 64, "value": 127}, "group": "control_change"}, {"time": 1463, "annotation": {"number": 64, "value": 0}, "group": "control_change"}, {"time": 1470, "annotation": {"number": 64, "value": 127}, "group": "control_change"}, {"time": 1513, "annotation": {"number": 64, "value": 0}, "group": "control_change"}, {"time": 1513, "annotation": {"number": 64, "value": 127}, "group": "control_change"}, {"time": 1559, "annotation": {"number": 64, "value": 0}, "group": "control_change"}, {"time": 1563, "annotation": {"number": 64, "value": 127}, "group": "control_change"}, {"time": 1607, "annotation": {"number": 64, "value": 0}, "group": "control_change"}, {"time": 1609, "annotation": {"number": 64, "value": 127}, "group": "control_change"}, {"time": 1609, "annotation": {"number": 64, "value": 0}, "group": "control_change"}, {"time": 1630, "annotation": {"number": 64, "value": 0}, "group": "control_change"}, {"time": 1635, "annotation": {"number": 64, "value": 127}, "group": "control_change"}, {"time": 1651, "annotation": {"number": 64, "value": 127}, "group": "control_change"}, {"time": 1654, "annotation": {"number": 64, "value": 0}, "group": "control_change"}, {"time": 1656, "annotation": {"number": 64, "value": 127}, "group": "control_change"}, {"time": 1677, "annotation": {"number": 64, "value": 0}, "group": "control_change"}, {"time": 1683, "annotation": {"number": 64, "value": 127}, "group": "control_change"}, {"time": 1703, "annotation": {"number": 64, "value": 0}, "group": "control_change"}, {"time": 1706, "annotation": {"number": 64, "value": 127}, "group": "control_change"}, {"time": 1706, "annotation": {"number": 64, "value": 0}, "group": "control_change"}, {"time": 1751, "annotation": {"number": 64, "value": 0}, "group": "control_change"}, {"time": 1753, "annotation": {"number": 64, "value": 127}, "group": "control_change"}, {"time": 1799, "annotation": {"number": 64, "value": 0}, "group": "control_change"}, {"time": 1802, "annotation": {"number": 64, "value": 127}, "group": "control_change"}, {"time": 1847, "annotation": {"number": 64, "value": 0}, "group": "control_change"}, {"time": 1851, "annotation": {"number": 64, "value": 127}, "group": "control_change"}, {"time": 1889, "annotation": {"number": 64, "value": 0}, "group": "control_change"}, {"time": 1904, "annotation": {"number": 64, "value": 127}, "group": "control_change"}, {"time": 1942, "annotation": {"number": 64, "value": 0}, "group": "control_change"}, {"time": 1948, "annotation": {"number": 64, "value": 127}, "group": "control_change"}, {"time": 1989, "annotation": {"number": 64, "value": 0}, "group": "control_change"}, {"time": 1997, "annotation": {"number": 64, "value": 127}, "group": "control_change"}, {"time": 2039, "annotation": {"number": 64, "value": 0}, "group": "control_change"}, {"time": 2044, "annotation": {"number": 64, "value": 127}, "group": "control_change"}, {"time": 2087, "annotation": {"number": 64, "value": 0}, "group": "control_change"}, {"time": 2093, "annotation": {"number": 64, "value": 127}, "group": "control_change"}, {"time": 2133, "annotation": {"number": 64, "value": 0}, "group": "control_change"}, {"time": 2141, "annotation": {"number": 64, "value": 127}, "group": "control_change"}, {"time": 2158, "annotation": {"number": 64, "value": 0}, "group": "control_change"}, {"time": 2165, "annotation": {"number": 64, "value": 127}, "group": "control_change"}, {"time": 2183, "annotation": {"number": 64, "value": 0}, "group": "control_change"}, {"time": 2189, "annotation": {"number": 64, "value": 127}, "group": "control_change"}, {"time": 2231, "annotation": {"number": 64, "value": 0}, "group": "control_change"}, {"time": 2237, "annotation": {"number": 64, "value": 127}, "group": "control_change"}, {"time": 2275, "annotation": {"number": 64, "value": 0}, "group": "control_change"}, {"time": 2288, "annotation": {"number": 64, "value": 127}, "group": "control_change"}, {"time": 2289, "annotation": {"number": 64, "value": 0}, "group": "control_change"}, {"time": 2289, "annotation": {"number": 64, "value": 127}, "group": "control_change"}, {"time": 2326, "annotation": {"number": 64, "value": 0}, "group": "control_change"}, {"time": 2330, "annotation": {"number": 64, "value": 127}, "group": "control_change"}, {"time": 2374, "annotation": {"number": 64, "value": 0}, "group": "control_change"}, {"time": 2379, "annotation": {"number": 64, "value": 127}, "group": "control_change"}, {"time": 2422, "annotation": {"number": 64, "value": 0}, "group": "control_change"}, {"time": 2426, "annotation": {"number": 64, "value": 127}, "group": "control_change"}, {"time": 2471, "annotation": {"number": 64, "value": 0}, "group": "control_change"}, {"time": 2478, "annotation": {"number": 64, "value": 127}, "group": "control_change"}, {"time": 2518, "annotation": {"number": 64, "value": 0}, "group": "control_change"}, {"time": 2524, "annotation": {"number": 64, "value": 127}, "group": "control_change"}, {"time": 2543, "annotation": {"number": 64, "value": 0}, "group": "control_change"}, {"time": 2549, "annotation": {"number": 64, "value": 127}, "group": "control_change"}, {"time": 2568, "annotation": {"number": 64, "value": 0}, "group": "control_change"}, {"time": 2575, "annotation": {"number": 64, "value": 127}, "group": "control_change"}, {"time": 2613, "annotation": {"number": 64, "value": 0}, "group": "control_change"}, {"time": 2620, "annotation": {"number": 64, "value": 127}, "group": "control_change"}, {"time": 2641, "annotation": {"number": 64, "value": 0}, "group": "control_change"}, {"time": 2670, "annotation": {"number": 64, "value": 127}, "group": "control_change"}, {"time": 2711, "annotation": {"number": 64, "value": 0}, "group": "control_change"}, {"time": 2716, "annotation": {"number": 64, "value": 127}, "group": "control_change"}, {"time": 2759, "annotation": {"number": 64, "value": 0}, "group": "control_change"}, {"time": 2766, "annotation": {"number": 64, "value": 127}, "group": "control_change"}, {"time": 2809, "annotation": {"number": 64, "value": 0}, "group": "control_change"}, {"time": 2809, "annotation": {"number": 64, "value": 127}, "group": "control_change"}, {"time": 2855, "annotation": {"number": 64, "value": 0}, "group": "control_change"}, {"time": 2859, "annotation": {"number": 64, "value": 127}, "group": "control_change"}, {"time": 2903, "annotation": {"number": 64, "value": 0}, "group": "control_change"}, {"time": 2905, "annotation": {"number": 64, "value": 127}, "group": "control_change"}, {"time": 2905, "annotation": {"number": 64, "value": 0}, "group": "control_change"}, {"time": 2926, "annotation": {"number": 64, "value": 0}, "group": "control_change"}, {"time": 2931, "annotation": {"number": 64, "value": 127}, "group": "control_change"}, {"time": 2947, "annotation": {"number": 64, "value": 127}, "group": "control_change"}, {"time": 2950, "annotation": {"number": 64, "value": 0}, "group": "control_change"}, {"time": 2952, "annotation": {"number": 64, "value": 127}, "group": "control_change"}, {"time": 2973, "annotation": {"number": 64, "value": 0}, "group": "control_change"}, {"time": 2979, "annotation": {"number": 64, "value": 127}, "group": "control_change"}, {"time": 2999, "annotation": {"number": 64, "value": 0}, "group": "control_change"}, {"time": 3001, "annotation": {"number": 64, "value": 127}, "group": "control_change"}, {"time": 3001, "annotation": {"number": 64, "value": 0}, "group": "control_change"}, {"time": 3002, "annotation": {"number": 64, "value": 127}, "group": "control_change"}, {"time": 3049, "annotation": {"number": 64, "value": 0}, "group": "control_change"}, {"time": 3052, "annotation": {"number": 64, "value": 127}, "group": "control_change"}, {"time": 3094, "annotation": {"number": 64, "value": 0}, "group": "control_change"}, {"time": 3097, "annotation": {"number": 64, "value": 127}, "group": "control_change"}, {"time": 3121, "annotation": {"number": 64, "value": 0}, "group": "control_change"}, {"time": 3122, "annotation": {"number": 64, "value": 127}, "group": "control_change"}, {"time": 3143, "annotation": {"number": 64, "value": 0}, "group": "control_change"}, {"time": 3164, "annotation": {"number": 64, "value": 127}, "group": "control_change"}, {"time": 3190, "annotation": {"number": 64, "value": 0}, "group": "control_change"}, {"time": 3195, "annotation": {"number": 64, "value": 127}, "group": "control_change"}, {"time": 3238, "annotation": {"number": 64, "value": 0}, "group": "control_change"}, {"time": 3244, "annotation": {"number": 64, "value": 127}, "group": "control_change"}, {"time": 3244, "annotation": {"number": 64, "value": 0}, "group": "control_change"}, {"time": 3288, "annotation": {"number": 64, "value": 0}, "group": "control_change"}, {"time": 3294, "annotation": {"number": 64, "value": 127}, "group": "control_change"}, {"time": 3336, "annotation": {"number": 64, "value": 0}, "group": "control_change"}, {"time": 3338, "annotation": {"number": 64, "value": 127}, "group": "control_change"}, {"time": 3378, "annotation": {"number": 64, "value": 0}, "group": "control_change"}, {"time": 3389, "annotation": {"number": 64, "value": 127}, "group": "control_change"}, {"time": 3389, "annotation": {"number": 64, "value": 0}, "group": "control_change"}, {"time": 3390, "annotation": {"number": 64, "value": 127}, "group": "control_change"}, {"time": 3434, "annotation": {"number": 64, "value": 0}, "group": "control_change"}, {"time": 3436, "annotation": {"number": 64, "value": 127}, "group": "control_change"}, {"time": 3479, "annotation": {"number": 64, "value": 0}, "group": "control_change"}, {"time": 3486, "annotation": {"number": 64, "value": 127}, "group": "control_change"}, {"time": 3526, "annotation": {"number": 64, "value": 0}, "group": "control_change"}, {"time": 3532, "annotation": {"number": 64, "value": 127}, "group": "control_change"}, {"time": 3578, "annotation": {"number": 64, "value": 0}, "group": "control_change"}, {"time": 3582, "annotation": {"number": 64, "value": 127}, "group": "control_change"}, {"time": 3623, "annotation": {"number": 64, "value": 0}, "group": "control_change"}, {"time": 3627, "annotation": {"number": 64, "value": 127}, "group": "control_change"}, {"time": 3646, "annotation": {"number": 64, "value": 0}, "group": "control_change"}, {"time": 3650, "annotation": {"number": 64, "value": 127}, "group": "control_change"}, {"time": 3674, "annotation": {"number": 64, "value": 0}, "group": "control_change"}, {"time": 3681, "annotation": {"number": 64, "value": 127}, "group": "control_change"}, {"time": 3761, "annotation": {"number": 64, "value": 0}, "group": "control_change"}, {"time": 3774, "annotation": {"number": 64, "value": 127}, "group": "control_change"}, {"time": 3815, "annotation": {"number": 64, "value": 0}, "group": "control_change"}, {"time": 3820, "annotation": {"number": 64, "value": 127}, "group": "control_change"}, {"time": 3863, "annotation": {"number": 64, "value": 0}, "group": "control_change"}, {"time": 3870, "annotation": {"number": 64, "value": 127}, "group": "control_change"}, {"time": 3913, "annotation": {"number": 64, "value": 0}, "group": "control_change"}, {"time": 3913, "annotation": {"number": 64, "value": 127}, "group": "control_change"}, {"time": 3959, "annotation": {"number": 64, "value": 0}, "group": "control_change"}, {"time": 3963, "annotation": {"number": 64, "value": 127}, "group": "control_change"}, {"time": 4007, "annotation": {"number": 64, "value": 0}, "group": "control_change"}, {"time": 4009, "annotation": {"number": 64, "value": 127}, "group": "control_change"}, {"time": 4009, "annotation": {"number": 64, "value": 0}, "group": "control_change"}, {"time": 4030, "annotation": {"number": 64, "value": 0}, "group": "control_change"}, {"time": 4035, "annotation": {"number": 64, "value": 127}, "group": "control_change"}, {"time": 4051, "annotation": {"number": 64, "value": 127}, "group": "control_change"}, {"time": 4054, "annotation": {"number": 64, "value": 0}, "group": "control_change"}, {"time": 4056, "annotation": {"number": 64, "value": 127}, "group": "control_change"}, {"time": 4077, "annotation": {"number": 64, "value": 0}, "group": "control_change"}, {"time": 4083, "annotation": {"number": 64, "value": 127}, "group": "control_change"}, {"time": 4103, "annotation": {"number": 64, "value": 0}, "group": "control_change"}, {"time": 4106, "annotation": {"number": 64, "value": 127}, "group": "control_change"}, {"time": 4106, "annotation": {"number": 64, "value": 0}, "group": "control_change"}, {"time": 4151, "annotation": {"number": 64, "value": 0}, "group": "control_change"}, {"time": 4153, "annotation": {"number": 64, "value": 127}, "group": "control_change"}, {"time": 4199, "annotation": {"number": 64, "value": 0}, "group": "control_change"}, {"time": 4202, "annotation": {"number": 64, "value": 127}, "group": "control_change"}, {"time": 4237, "annotation": {"number": 64, "value": 127}, "group": "control_change"}, {"time": 4245, "annotation": {"number": 64, "value": 0}, "group": "control_change"}, {"time": 4247, "annotation": {"number": 64, "value": 127}, "group": "control_change"}, {"time": 4247, "annotation": {"number": 64, "value": 0}, "group": "control_change"}, {"time": 4249, "annotation": {"number": 64, "value": 127}, "group": "control_change"}, {"time": 4291, "annotation": {"number": 64, "value": 0}, "group": "control_change"}, {"time": 4295, "annotation": {"number": 64, "value": 0}, "group": "control_change"}, {"time": 4296, "annotation": {"number": 64, "value": 127}, "group": "control_change"}, {"time": 4298, "annotation": {"number": 64, "value": 127}, "group": "control_change"}, {"time": 4420, "annotation": {"number": 64, "value": 0}, "group": "control_change"}, {"time": 4424, "annotation": {"number": 64, "value": 0}, "group": "control_change"}]}]}