{"metadata": {"schema_version": "0.2", "title": "None", "source_filename": "515.mid", "source_format": "midi"}, "resolution": 12, "tempos": [{"time": 0, "qpm": 83.0000650167176}, {"time": 552, "qpm": 82.70021722590391}, {"time": 934, "qpm": 82.80007783207316}, {"time": 1704, "qpm": 83.0000650167176}, {"time": 2076, "qpm": 82.80007783207316}], "time_signatures": [{"time": 0, "numerator": 1, "denominator": 4}], "tracks": [{"program": 0, "is_drum": false, "name": "MELODY", "notes": [{"time": 532, "pitch": 60, "duration": 1, "velocity": 96}, {"time": 535, "pitch": 60, "duration": 1, "velocity": 96}, {"time": 538, "pitch": 60, "duration": 1, "velocity": 90}, {"time": 541, "pitch": 74, "duration": 6, "velocity": 99}, {"time": 547, "pitch": 72, "duration": 4, "velocity": 90}, {"time": 553, "pitch": 72, "duration": 4, "velocity": 92}, {"time": 559, "pitch": 69, "duration": 3, "velocity": 90}, {"time": 565, "pitch": 69, "duration": 4, "velocity": 88}, {"time": 571, "pitch": 67, "duration": 4, "velocity": 92}, {"time": 577, "pitch": 67, "duration": 5, "velocity": 91}, {"time": 583, "pitch": 65, "duration": 5, "velocity": 92}, {"time": 589, "pitch": 69, "duration": 26, "velocity": 92}, {"time": 628, "pitch": 60, "duration": 1, "velocity": 96}, {"time": 631, "pitch": 60, "duration": 1, "velocity": 96}, {"time": 634, "pitch": 60, "duration": 1, "velocity": 90}, {"time": 637, "pitch": 74, "duration": 6, "velocity": 99}, {"time": 643, "pitch": 72, "duration": 4, "velocity": 90}, {"time": 649, "pitch": 72, "duration": 4, "velocity": 92}, {"time": 655, "pitch": 69, "duration": 3, "velocity": 90}, {"time": 661, "pitch": 69, "duration": 4, "velocity": 88}, {"time": 667, "pitch": 67, "duration": 4, "velocity": 92}, {"time": 673, "pitch": 67, "duration": 5, "velocity": 91}, {"time": 679, "pitch": 65, "duration": 5, "velocity": 92}, {"time": 685, "pitch": 67, "duration": 26, "velocity": 92}, {"time": 733, "pitch": 67, "duration": 4, "velocity": 93}, {"time": 739, "pitch": 67, "duration": 4, "velocity": 93}, {"time": 745, "pitch": 67, "duration": 4, "velocity": 96}, {"time": 751, "pitch": 69, "duration": 5, "velocity": 96}, {"time": 757, "pitch": 72, "duration": 6, "velocity": 96}, {"time": 763, "pitch": 69, "duration": 12, "velocity": 90}, {"time": 778, "pitch": 72, "duration": 2, "velocity": 88}, {"time": 781, "pitch": 74, "duration": 6, "velocity": 94}, {"time": 787, "pitch": 72, "duration": 6, "velocity": 95}, {"time": 793, "pitch": 69, "duration": 7, "velocity": 94}, {"time": 799, "pitch": 67, "duration": 6, "velocity": 87}, {"time": 805, "pitch": 65, "duration": 20, "velocity": 93}, {"time": 826, "pitch": 65, "duration": 3, "velocity": 93}, {"time": 829, "pitch": 67, "duration": 4, "velocity": 92}, {"time": 835, "pitch": 67, "duration": 4, "velocity": 91}, {"time": 841, "pitch": 67, "duration": 4, "velocity": 93}, {"time": 847, "pitch": 67, "duration": 4, "velocity": 96}, {"time": 853, "pitch": 67, "duration": 5, "velocity": 93}, {"time": 859, "pitch": 72, "duration": 9, "velocity": 92}, {"time": 871, "pitch": 62, "duration": 5, "velocity": 96}, {"time": 877, "pitch": 64, "duration": 5, "velocity": 93}, {"time": 883, "pitch": 60, "duration": 30, "velocity": 87}, {"time": 916, "pitch": 60, "duration": 1, "velocity": 96}, {"time": 919, "pitch": 60, "duration": 1, "velocity": 96}, {"time": 922, "pitch": 60, "duration": 1, "velocity": 90}, {"time": 925, "pitch": 74, "duration": 6, "velocity": 99}, {"time": 931, "pitch": 72, "duration": 4, "velocity": 90}, {"time": 937, "pitch": 72, "duration": 4, "velocity": 92}, {"time": 943, "pitch": 69, "duration": 3, "velocity": 90}, {"time": 949, "pitch": 69, "duration": 4, "velocity": 88}, {"time": 955, "pitch": 67, "duration": 4, "velocity": 92}, {"time": 961, "pitch": 67, "duration": 5, "velocity": 91}, {"time": 967, "pitch": 65, "duration": 5, "velocity": 92}, {"time": 973, "pitch": 69, "duration": 26, "velocity": 92}, {"time": 1012, "pitch": 60, "duration": 1, "velocity": 96}, {"time": 1015, "pitch": 60, "duration": 1, "velocity": 96}, {"time": 1018, "pitch": 60, "duration": 1, "velocity": 90}, {"time": 1021, "pitch": 74, "duration": 6, "velocity": 99}, {"time": 1027, "pitch": 72, "duration": 4, "velocity": 90}, {"time": 1033, "pitch": 72, "duration": 4, "velocity": 92}, {"time": 1039, "pitch": 69, "duration": 3, "velocity": 90}, {"time": 1045, "pitch": 69, "duration": 4, "velocity": 88}, {"time": 1051, "pitch": 67, "duration": 4, "velocity": 92}, {"time": 1057, "pitch": 67, "duration": 5, "velocity": 91}, {"time": 1063, "pitch": 65, "duration": 5, "velocity": 92}, {"time": 1069, "pitch": 67, "duration": 26, "velocity": 92}, {"time": 1117, "pitch": 67, "duration": 4, "velocity": 93}, {"time": 1123, "pitch": 67, "duration": 4, "velocity": 93}, {"time": 1129, "pitch": 67, "duration": 4, "velocity": 96}, {"time": 1135, "pitch": 69, "duration": 5, "velocity": 96}, {"time": 1141, "pitch": 72, "duration": 6, "velocity": 96}, {"time": 1147, "pitch": 69, "duration": 12, "velocity": 90}, {"time": 1162, "pitch": 72, "duration": 2, "velocity": 88}, {"time": 1165, "pitch": 74, "duration": 6, "velocity": 94}, {"time": 1171, "pitch": 72, "duration": 6, "velocity": 95}, {"time": 1177, "pitch": 69, "duration": 7, "velocity": 94}, {"time": 1183, "pitch": 67, "duration": 6, "velocity": 87}, {"time": 1189, "pitch": 65, "duration": 20, "velocity": 93}, {"time": 1207, "pitch": 62, "duration": 5, "velocity": 94}, {"time": 1213, "pitch": 60, "duration": 15, "velocity": 96}, {"time": 1231, "pitch": 74, "duration": 4, "velocity": 99}, {"time": 1237, "pitch": 72, "duration": 4, "velocity": 92}, {"time": 1243, "pitch": 74, "duration": 4, "velocity": 99}, {"time": 1249, "pitch": 69, "duration": 4, "velocity": 93}, {"time": 1255, "pitch": 67, "duration": 5, "velocity": 92}, {"time": 1261, "pitch": 65, "duration": 45, "velocity": 95}, {"time": 1309, "pitch": 72, "duration": 4, "velocity": 99}, {"time": 1315, "pitch": 72, "duration": 3, "velocity": 96}, {"time": 1321, "pitch": 72, "duration": 4, "velocity": 99}, {"time": 1327, "pitch": 74, "duration": 2, "velocity": 98}, {"time": 1330, "pitch": 77, "duration": 8, "velocity": 97}, {"time": 1339, "pitch": 74, "duration": 6, "velocity": 99}, {"time": 1345, "pitch": 72, "duration": 5, "velocity": 94}, {"time": 1351, "pitch": 69, "duration": 6, "velocity": 97}, {"time": 1357, "pitch": 72, "duration": 37, "velocity": 97}, {"time": 1405, "pitch": 72, "duration": 4, "velocity": 96}, {"time": 1411, "pitch": 72, "duration": 3, "velocity": 94}, {"time": 1417, "pitch": 72, "duration": 4, "velocity": 99}, {"time": 1423, "pitch": 74, "duration": 3, "velocity": 96}, {"time": 1426, "pitch": 77, "duration": 8, "velocity": 96}, {"time": 1435, "pitch": 74, "duration": 4, "velocity": 94}, {"time": 1441, "pitch": 72, "duration": 4, "velocity": 96}, {"time": 1447, "pitch": 65, "duration": 5, "velocity": 97}, {"time": 1453, "pitch": 67, "duration": 37, "velocity": 93}, {"time": 1501, "pitch": 62, "duration": 5, "velocity": 98}, {"time": 1507, "pitch": 65, "duration": 6, "velocity": 93}, {"time": 1513, "pitch": 67, "duration": 4, "velocity": 93}, {"time": 1519, "pitch": 74, "duration": 10, "velocity": 103}, {"time": 1531, "pitch": 72, "duration": 9, "velocity": 94}, {"time": 1543, "pitch": 74, "duration": 5, "velocity": 99}, {"time": 1549, "pitch": 72, "duration": 6, "velocity": 97}, {"time": 1555, "pitch": 74, "duration": 5, "velocity": 97}, {"time": 1561, "pitch": 69, "duration": 6, "velocity": 93}, {"time": 1567, "pitch": 67, "duration": 6, "velocity": 92}, {"time": 1573, "pitch": 65, "duration": 12, "velocity": 95}, {"time": 1591, "pitch": 65, "duration": 5, "velocity": 96}, {"time": 1597, "pitch": 67, "duration": 5, "velocity": 92}, {"time": 1603, "pitch": 65, "duration": 6, "velocity": 93}, {"time": 1609, "pitch": 67, "duration": 6, "velocity": 96}, {"time": 1615, "pitch": 65, "duration": 6, "velocity": 93}, {"time": 1621, "pitch": 67, "duration": 12, "velocity": 93}, {"time": 1633, "pitch": 69, "duration": 12, "velocity": 86}, {"time": 1645, "pitch": 72, "duration": 48, "velocity": 92}, {"time": 2068, "pitch": 60, "duration": 1, "velocity": 96}, {"time": 2071, "pitch": 60, "duration": 1, "velocity": 96}, {"time": 2074, "pitch": 60, "duration": 1, "velocity": 90}, {"time": 2077, "pitch": 74, "duration": 6, "velocity": 99}, {"time": 2083, "pitch": 72, "duration": 4, "velocity": 90}, {"time": 2089, "pitch": 72, "duration": 4, "velocity": 92}, {"time": 2095, "pitch": 69, "duration": 3, "velocity": 90}, {"time": 2101, "pitch": 69, "duration": 4, "velocity": 88}, {"time": 2107, "pitch": 67, "duration": 4, "velocity": 92}, {"time": 2113, "pitch": 67, "duration": 5, "velocity": 91}, {"time": 2119, "pitch": 65, "duration": 5, "velocity": 92}, {"time": 2125, "pitch": 69, "duration": 26, "velocity": 92}, {"time": 2164, "pitch": 60, "duration": 1, "velocity": 96}, {"time": 2167, "pitch": 60, "duration": 1, "velocity": 96}, {"time": 2170, "pitch": 60, "duration": 1, "velocity": 90}, {"time": 2173, "pitch": 74, "duration": 6, "velocity": 99}, {"time": 2179, "pitch": 72, "duration": 4, "velocity": 90}, {"time": 2185, "pitch": 72, "duration": 4, "velocity": 92}, {"time": 2191, "pitch": 69, "duration": 3, "velocity": 90}, {"time": 2197, "pitch": 69, "duration": 4, "velocity": 88}, {"time": 2203, "pitch": 67, "duration": 4, "velocity": 92}, {"time": 2209, "pitch": 67, "duration": 5, "velocity": 91}, {"time": 2215, "pitch": 65, "duration": 5, "velocity": 92}, {"time": 2221, "pitch": 67, "duration": 26, "velocity": 92}, {"time": 2269, "pitch": 67, "duration": 4, "velocity": 93}, {"time": 2275, "pitch": 67, "duration": 4, "velocity": 93}, {"time": 2281, "pitch": 67, "duration": 4, "velocity": 96}, {"time": 2287, "pitch": 69, "duration": 5, "velocity": 96}, {"time": 2293, "pitch": 72, "duration": 6, "velocity": 96}, {"time": 2299, "pitch": 69, "duration": 12, "velocity": 90}, {"time": 2314, "pitch": 72, "duration": 2, "velocity": 88}, {"time": 2317, "pitch": 74, "duration": 6, "velocity": 94}, {"time": 2323, "pitch": 72, "duration": 6, "velocity": 95}, {"time": 2329, "pitch": 69, "duration": 7, "velocity": 94}, {"time": 2335, "pitch": 67, "duration": 6, "velocity": 87}, {"time": 2341, "pitch": 65, "duration": 20, "velocity": 93}, {"time": 2359, "pitch": 62, "duration": 5, "velocity": 94}, {"time": 2365, "pitch": 60, "duration": 15, "velocity": 96}, {"time": 2383, "pitch": 74, "duration": 4, "velocity": 99}, {"time": 2389, "pitch": 72, "duration": 4, "velocity": 92}, {"time": 2395, "pitch": 74, "duration": 4, "velocity": 99}, {"time": 2401, "pitch": 69, "duration": 4, "velocity": 93}, {"time": 2407, "pitch": 67, "duration": 5, "velocity": 92}, {"time": 2413, "pitch": 65, "duration": 45, "velocity": 95}, {"time": 2461, "pitch": 72, "duration": 4, "velocity": 99}, {"time": 2467, "pitch": 72, "duration": 3, "velocity": 96}, {"time": 2473, "pitch": 72, "duration": 4, "velocity": 99}, {"time": 2479, "pitch": 74, "duration": 2, "velocity": 98}, {"time": 2482, "pitch": 77, "duration": 8, "velocity": 97}, {"time": 2491, "pitch": 74, "duration": 6, "velocity": 99}, {"time": 2497, "pitch": 72, "duration": 5, "velocity": 94}, {"time": 2503, "pitch": 69, "duration": 6, "velocity": 97}, {"time": 2509, "pitch": 72, "duration": 37, "velocity": 97}, {"time": 2557, "pitch": 72, "duration": 4, "velocity": 96}, {"time": 2563, "pitch": 72, "duration": 3, "velocity": 94}, {"time": 2569, "pitch": 72, "duration": 4, "velocity": 99}, {"time": 2575, "pitch": 74, "duration": 3, "velocity": 96}, {"time": 2578, "pitch": 77, "duration": 8, "velocity": 96}, {"time": 2587, "pitch": 74, "duration": 4, "velocity": 94}, {"time": 2593, "pitch": 72, "duration": 4, "velocity": 96}, {"time": 2599, "pitch": 65, "duration": 5, "velocity": 97}, {"time": 2605, "pitch": 67, "duration": 37, "velocity": 93}, {"time": 2653, "pitch": 62, "duration": 5, "velocity": 98}, {"time": 2659, "pitch": 65, "duration": 6, "velocity": 93}, {"time": 2665, "pitch": 67, "duration": 4, "velocity": 93}, {"time": 2671, "pitch": 74, "duration": 10, "velocity": 103}, {"time": 2683, "pitch": 72, "duration": 9, "velocity": 94}, {"time": 2695, "pitch": 74, "duration": 5, "velocity": 99}, {"time": 2701, "pitch": 72, "duration": 6, "velocity": 97}, {"time": 2707, "pitch": 74, "duration": 5, "velocity": 97}, {"time": 2713, "pitch": 69, "duration": 6, "velocity": 93}, {"time": 2719, "pitch": 67, "duration": 6, "velocity": 92}, {"time": 2725, "pitch": 65, "duration": 12, "velocity": 95}, {"time": 2743, "pitch": 65, "duration": 5, "velocity": 96}, {"time": 2749, "pitch": 67, "duration": 5, "velocity": 92}, {"time": 2755, "pitch": 65, "duration": 6, "velocity": 93}, {"time": 2761, "pitch": 67, "duration": 6, "velocity": 96}, {"time": 2767, "pitch": 65, "duration": 6, "velocity": 93}, {"time": 2773, "pitch": 67, "duration": 12, "velocity": 93}, {"time": 2785, "pitch": 69, "duration": 12, "velocity": 86}, {"time": 2797, "pitch": 72, "duration": 30, "velocity": 92}, {"time": 2836, "pitch": 60, "duration": 1, "velocity": 96}, {"time": 2839, "pitch": 60, "duration": 1, "velocity": 96}, {"time": 2842, "pitch": 60, "duration": 1, "velocity": 90}, {"time": 2845, "pitch": 74, "duration": 6, "velocity": 99}, {"time": 2851, "pitch": 72, "duration": 4, "velocity": 90}, {"time": 2857, "pitch": 72, "duration": 4, "velocity": 92}, {"time": 2863, "pitch": 69, "duration": 3, "velocity": 90}, {"time": 2869, "pitch": 69, "duration": 4, "velocity": 88}, {"time": 2875, "pitch": 67, "duration": 4, "velocity": 92}, {"time": 2881, "pitch": 67, "duration": 5, "velocity": 91}, {"time": 2887, "pitch": 65, "duration": 5, "velocity": 92}, {"time": 2893, "pitch": 69, "duration": 26, "velocity": 92}, {"time": 2932, "pitch": 60, "duration": 1, "velocity": 96}, {"time": 2935, "pitch": 60, "duration": 1, "velocity": 96}, {"time": 2938, "pitch": 60, "duration": 1, "velocity": 90}, {"time": 2941, "pitch": 74, "duration": 6, "velocity": 99}, {"time": 2947, "pitch": 72, "duration": 4, "velocity": 90}, {"time": 2953, "pitch": 72, "duration": 4, "velocity": 92}, {"time": 2959, "pitch": 69, "duration": 3, "velocity": 90}, {"time": 2965, "pitch": 69, "duration": 4, "velocity": 88}, {"time": 2971, "pitch": 67, "duration": 4, "velocity": 92}, {"time": 2977, "pitch": 67, "duration": 5, "velocity": 91}, {"time": 2983, "pitch": 65, "duration": 5, "velocity": 92}, {"time": 2989, "pitch": 67, "duration": 26, "velocity": 92}, {"time": 3037, "pitch": 67, "duration": 4, "velocity": 93}, {"time": 3043, "pitch": 67, "duration": 4, "velocity": 93}, {"time": 3049, "pitch": 67, "duration": 4, "velocity": 96}, {"time": 3055, "pitch": 69, "duration": 5, "velocity": 96}, {"time": 3061, "pitch": 72, "duration": 6, "velocity": 96}, {"time": 3067, "pitch": 69, "duration": 12, "velocity": 90}, {"time": 3082, "pitch": 72, "duration": 2, "velocity": 88}, {"time": 3085, "pitch": 74, "duration": 6, "velocity": 94}, {"time": 3091, "pitch": 72, "duration": 6, "velocity": 95}, {"time": 3097, "pitch": 69, "duration": 7, "velocity": 94}, {"time": 3103, "pitch": 67, "duration": 6, "velocity": 87}, {"time": 3109, "pitch": 65, "duration": 20, "velocity": 93}, {"time": 3127, "pitch": 62, "duration": 5, "velocity": 94}, {"time": 3133, "pitch": 60, "duration": 15, "velocity": 96}, {"time": 3151, "pitch": 74, "duration": 4, "velocity": 99}, {"time": 3157, "pitch": 72, "duration": 4, "velocity": 92}, {"time": 3163, "pitch": 74, "duration": 4, "velocity": 99}, {"time": 3169, "pitch": 69, "duration": 4, "velocity": 93}, {"time": 3175, "pitch": 67, "duration": 5, "velocity": 92}, {"time": 3181, "pitch": 65, "duration": 45, "velocity": 95}, {"time": 3229, "pitch": 67, "duration": 4, "velocity": 93}, {"time": 3235, "pitch": 67, "duration": 4, "velocity": 93}, {"time": 3241, "pitch": 67, "duration": 4, "velocity": 96}, {"time": 3247, "pitch": 69, "duration": 5, "velocity": 96}, {"time": 3253, "pitch": 72, "duration": 6, "velocity": 96}, {"time": 3259, "pitch": 69, "duration": 12, "velocity": 90}, {"time": 3274, "pitch": 72, "duration": 2, "velocity": 88}, {"time": 3277, "pitch": 74, "duration": 6, "velocity": 94}, {"time": 3283, "pitch": 72, "duration": 6, "velocity": 95}, {"time": 3289, "pitch": 69, "duration": 7, "velocity": 94}, {"time": 3295, "pitch": 67, "duration": 6, "velocity": 87}, {"time": 3301, "pitch": 65, "duration": 20, "velocity": 93}, {"time": 3319, "pitch": 62, "duration": 5, "velocity": 94}, {"time": 3325, "pitch": 60, "duration": 15, "velocity": 96}, {"time": 3349, "pitch": 74, "duration": 8, "velocity": 99}, {"time": 3357, "pitch": 72, "duration": 10, "velocity": 96}, {"time": 3366, "pitch": 74, "duration": 10, "velocity": 101}, {"time": 3376, "pitch": 69, "duration": 12, "velocity": 94}, {"time": 3386, "pitch": 67, "duration": 23, "velocity": 92}, {"time": 3408, "pitch": 65, "duration": 65, "velocity": 94}]}, {"program": 0, "is_drum": false, "name": "PIANO", "notes": [{"time": 157, "pitch": 41, "duration": 44, "velocity": 93}, {"time": 157, "pitch": 57, "duration": 7, "velocity": 91}, {"time": 157, "pitch": 60, "duration": 12, "velocity": 96}, {"time": 163, "pitch": 48, "duration": 37, "velocity": 81}, {"time": 169, "pitch": 57, "duration": 7, "velocity": 92}, {"time": 175, "pitch": 60, "duration": 4, "velocity": 88}, {"time": 181, "pitch": 57, "duration": 3, "velocity": 91}, {"time": 181, "pitch": 65, "duration": 9, "velocity": 92}, {"time": 187, "pitch": 57, "duration": 3, "velocity": 78}, {"time": 193, "pitch": 57, "duration": 2, "velocity": 92}, {"time": 193, "pitch": 60, "duration": 4, "velocity": 97}, {"time": 193, "pitch": 65, "duration": 7, "velocity": 92}, {"time": 199, "pitch": 57, "duration": 3, "velocity": 78}, {"time": 205, "pitch": 41, "duration": 45, "velocity": 94}, {"time": 205, "pitch": 57, "duration": 6, "velocity": 87}, {"time": 205, "pitch": 60, "duration": 9, "velocity": 87}, {"time": 211, "pitch": 48, "duration": 38, "velocity": 75}, {"time": 217, "pitch": 60, "duration": 3, "velocity": 91}, {"time": 223, "pitch": 57, "duration": 2, "velocity": 80}, {"time": 229, "pitch": 57, "duration": 6, "velocity": 95}, {"time": 229, "pitch": 65, "duration": 6, "velocity": 94}, {"time": 235, "pitch": 60, "duration": 2, "velocity": 93}, {"time": 241, "pitch": 69, "duration": 6, "velocity": 94}, {"time": 247, "pitch": 67, "duration": 6, "velocity": 92}, {"time": 253, "pitch": 41, "duration": 39, "velocity": 94}, {"time": 253, "pitch": 65, "duration": 4, "velocity": 93}, {"time": 259, "pitch": 48, "duration": 31, "velocity": 77}, {"time": 265, "pitch": 57, "duration": 7, "velocity": 86}, {"time": 271, "pitch": 60, "duration": 1, "velocity": 88}, {"time": 277, "pitch": 57, "duration": 3, "velocity": 94}, {"time": 277, "pitch": 60, "duration": 6, "velocity": 99}, {"time": 277, "pitch": 65, "duration": 8, "velocity": 95}, {"time": 283, "pitch": 57, "duration": 2, "velocity": 79}, {"time": 289, "pitch": 60, "duration": 5, "velocity": 96}, {"time": 295, "pitch": 57, "duration": 2, "velocity": 88}, {"time": 301, "pitch": 43, "duration": 45, "velocity": 94}, {"time": 301, "pitch": 55, "duration": 11, "velocity": 90}, {"time": 301, "pitch": 58, "duration": 10, "velocity": 86}, {"time": 307, "pitch": 50, "duration": 39, "velocity": 78}, {"time": 313, "pitch": 62, "duration": 7, "velocity": 83}, {"time": 319, "pitch": 55, "duration": 4, "velocity": 57}, {"time": 319, "pitch": 58, "duration": 4, "velocity": 87}, {"time": 325, "pitch": 58, "duration": 2, "velocity": 71}, {"time": 325, "pitch": 67, "duration": 6, "velocity": 92}, {"time": 331, "pitch": 62, "duration": 4, "velocity": 85}, {"time": 337, "pitch": 55, "duration": 6, "velocity": 81}, {"time": 343, "pitch": 58, "duration": 4, "velocity": 76}, {"time": 343, "pitch": 62, "duration": 5, "velocity": 89}, {"time": 349, "pitch": 43, "duration": 21, "velocity": 93}, {"time": 349, "pitch": 55, "duration": 8, "velocity": 87}, {"time": 349, "pitch": 58, "duration": 8, "velocity": 78}, {"time": 355, "pitch": 50, "duration": 16, "velocity": 80}, {"time": 361, "pitch": 55, "duration": 7, "velocity": 88}, {"time": 367, "pitch": 58, "duration": 3, "velocity": 93}, {"time": 373, "pitch": 45, "duration": 22, "velocity": 94}, {"time": 373, "pitch": 57, "duration": 7, "velocity": 84}, {"time": 373, "pitch": 60, "duration": 9, "velocity": 88}, {"time": 379, "pitch": 52, "duration": 16, "velocity": 89}, {"time": 385, "pitch": 57, "duration": 10, "velocity": 91}, {"time": 397, "pitch": 45, "duration": 20, "velocity": 94}, {"time": 397, "pitch": 57, "duration": 6, "velocity": 93}, {"time": 397, "pitch": 64, "duration": 10, "velocity": 94}, {"time": 403, "pitch": 52, "duration": 14, "velocity": 86}, {"time": 409, "pitch": 60, "duration": 5, "velocity": 98}, {"time": 415, "pitch": 57, "duration": 7, "velocity": 94}, {"time": 421, "pitch": 50, "duration": 12, "velocity": 92}, {"time": 421, "pitch": 65, "duration": 7, "velocity": 93}, {"time": 427, "pitch": 57, "duration": 7, "velocity": 93}, {"time": 433, "pitch": 64, "duration": 12, "velocity": 101}, {"time": 445, "pitch": 46, "duration": 21, "velocity": 96}, {"time": 445, "pitch": 58, "duration": 7, "velocity": 93}, {"time": 451, "pitch": 53, "duration": 12, "velocity": 91}, {"time": 457, "pitch": 58, "duration": 7, "velocity": 99}, {"time": 463, "pitch": 62, "duration": 7, "velocity": 93}, {"time": 469, "pitch": 45, "duration": 19, "velocity": 96}, {"time": 469, "pitch": 60, "duration": 13, "velocity": 92}, {"time": 475, "pitch": 52, "duration": 13, "velocity": 86}, {"time": 481, "pitch": 57, "duration": 8, "velocity": 93}, {"time": 493, "pitch": 48, "duration": 22, "velocity": 94}, {"time": 493, "pitch": 55, "duration": 3, "velocity": 92}, {"time": 493, "pitch": 60, "duration": 7, "velocity": 91}, {"time": 499, "pitch": 55, "duration": 7, "velocity": 90}, {"time": 505, "pitch": 60, "duration": 5, "velocity": 82}, {"time": 511, "pitch": 62, "duration": 3, "velocity": 89}, {"time": 517, "pitch": 48, "duration": 15, "velocity": 92}, {"time": 517, "pitch": 55, "duration": 6, "velocity": 88}, {"time": 517, "pitch": 60, "duration": 10, "velocity": 88}, {"time": 517, "pitch": 64, "duration": 13, "velocity": 93}, {"time": 541, "pitch": 41, "duration": 43, "velocity": 92}, {"time": 541, "pitch": 53, "duration": 7, "velocity": 84}, {"time": 541, "pitch": 57, "duration": 7, "velocity": 85}, {"time": 547, "pitch": 48, "duration": 37, "velocity": 77}, {"time": 553, "pitch": 55, "duration": 6, "velocity": 79}, {"time": 559, "pitch": 57, "duration": 18, "velocity": 86}, {"time": 577, "pitch": 60, "duration": 2, "velocity": 93}, {"time": 589, "pitch": 41, "duration": 44, "velocity": 89}, {"time": 589, "pitch": 53, "duration": 6, "velocity": 80}, {"time": 589, "pitch": 65, "duration": 6, "velocity": 87}, {"time": 595, "pitch": 48, "duration": 20, "velocity": 77}, {"time": 601, "pitch": 53, "duration": 6, "velocity": 78}, {"time": 607, "pitch": 55, "duration": 6, "velocity": 92}, {"time": 613, "pitch": 57, "duration": 11, "velocity": 93}, {"time": 619, "pitch": 48, "duration": 14, "velocity": 77}, {"time": 637, "pitch": 41, "duration": 39, "velocity": 91}, {"time": 637, "pitch": 53, "duration": 6, "velocity": 80}, {"time": 637, "pitch": 65, "duration": 13, "velocity": 87}, {"time": 643, "pitch": 48, "duration": 33, "velocity": 83}, {"time": 649, "pitch": 53, "duration": 5, "velocity": 94}, {"time": 655, "pitch": 65, "duration": 2, "velocity": 93}, {"time": 661, "pitch": 65, "duration": 22, "velocity": 80}, {"time": 661, "pitch": 69, "duration": 19, "velocity": 88}, {"time": 685, "pitch": 43, "duration": 42, "velocity": 87}, {"time": 685, "pitch": 67, "duration": 9, "velocity": 81}, {"time": 691, "pitch": 50, "duration": 35, "velocity": 79}, {"time": 697, "pitch": 62, "duration": 9, "velocity": 93}, {"time": 703, "pitch": 67, "duration": 7, "velocity": 87}, {"time": 709, "pitch": 74, "duration": 13, "velocity": 94}, {"time": 715, "pitch": 62, "duration": 7, "velocity": 78}, {"time": 721, "pitch": 70, "duration": 3, "velocity": 87}, {"time": 733, "pitch": 43, "duration": 21, "velocity": 93}, {"time": 733, "pitch": 62, "duration": 7, "velocity": 85}, {"time": 733, "pitch": 67, "duration": 12, "velocity": 87}, {"time": 739, "pitch": 50, "duration": 15, "velocity": 82}, {"time": 745, "pitch": 62, "duration": 7, "velocity": 89}, {"time": 751, "pitch": 67, "duration": 6, "velocity": 88}, {"time": 757, "pitch": 45, "duration": 21, "velocity": 93}, {"time": 757, "pitch": 69, "duration": 12, "velocity": 89}, {"time": 763, "pitch": 52, "duration": 15, "velocity": 80}, {"time": 769, "pitch": 64, "duration": 4, "velocity": 82}, {"time": 781, "pitch": 45, "duration": 16, "velocity": 93}, {"time": 781, "pitch": 64, "duration": 7, "velocity": 92}, {"time": 781, "pitch": 72, "duration": 12, "velocity": 93}, {"time": 787, "pitch": 52, "duration": 10, "velocity": 76}, {"time": 793, "pitch": 64, "duration": 3, "velocity": 92}, {"time": 793, "pitch": 69, "duration": 5, "velocity": 86}, {"time": 799, "pitch": 67, "duration": 5, "velocity": 90}, {"time": 805, "pitch": 50, "duration": 13, "velocity": 94}, {"time": 805, "pitch": 62, "duration": 6, "velocity": 84}, {"time": 805, "pitch": 65, "duration": 13, "velocity": 86}, {"time": 811, "pitch": 57, "duration": 7, "velocity": 75}, {"time": 817, "pitch": 62, "duration": 3, "velocity": 81}, {"time": 829, "pitch": 43, "duration": 44, "velocity": 90}, {"time": 829, "pitch": 55, "duration": 6, "velocity": 86}, {"time": 829, "pitch": 62, "duration": 12, "velocity": 91}, {"time": 835, "pitch": 50, "duration": 36, "velocity": 75}, {"time": 841, "pitch": 58, "duration": 8, "velocity": 87}, {"time": 847, "pitch": 62, "duration": 7, "velocity": 87}, {"time": 853, "pitch": 67, "duration": 12, "velocity": 91}, {"time": 859, "pitch": 62, "duration": 8, "velocity": 87}, {"time": 865, "pitch": 58, "duration": 7, "velocity": 92}, {"time": 871, "pitch": 55, "duration": 3, "velocity": 81}, {"time": 877, "pitch": 48, "duration": 44, "velocity": 90}, {"time": 877, "pitch": 55, "duration": 2, "velocity": 88}, {"time": 877, "pitch": 60, "duration": 8, "velocity": 87}, {"time": 883, "pitch": 55, "duration": 7, "velocity": 86}, {"time": 889, "pitch": 60, "duration": 6, "velocity": 92}, {"time": 895, "pitch": 62, "duration": 3, "velocity": 90}, {"time": 901, "pitch": 55, "duration": 3, "velocity": 86}, {"time": 901, "pitch": 64, "duration": 10, "velocity": 94}, {"time": 907, "pitch": 55, "duration": 3, "velocity": 83}, {"time": 913, "pitch": 55, "duration": 7, "velocity": 92}, {"time": 913, "pitch": 60, "duration": 6, "velocity": 93}, {"time": 925, "pitch": 41, "duration": 46, "velocity": 94}, {"time": 925, "pitch": 53, "duration": 13, "velocity": 86}, {"time": 925, "pitch": 60, "duration": 12, "velocity": 90}, {"time": 931, "pitch": 48, "duration": 40, "velocity": 83}, {"time": 937, "pitch": 57, "duration": 7, "velocity": 88}, {"time": 943, "pitch": 60, "duration": 3, "velocity": 94}, {"time": 949, "pitch": 53, "duration": 6, "velocity": 89}, {"time": 949, "pitch": 65, "duration": 6, "velocity": 93}, {"time": 955, "pitch": 60, "duration": 12, "velocity": 86}, {"time": 961, "pitch": 57, "duration": 24, "velocity": 86}, {"time": 973, "pitch": 41, "duration": 45, "velocity": 92}, {"time": 973, "pitch": 53, "duration": 7, "velocity": 87}, {"time": 973, "pitch": 60, "duration": 12, "velocity": 92}, {"time": 979, "pitch": 48, "duration": 38, "velocity": 82}, {"time": 985, "pitch": 53, "duration": 13, "velocity": 88}, {"time": 991, "pitch": 60, "duration": 9, "velocity": 87}, {"time": 1003, "pitch": 57, "duration": 2, "velocity": 86}, {"time": 1009, "pitch": 53, "duration": 3, "velocity": 92}, {"time": 1009, "pitch": 65, "duration": 3, "velocity": 96}, {"time": 1015, "pitch": 60, "duration": 5, "velocity": 89}, {"time": 1021, "pitch": 41, "duration": 41, "velocity": 93}, {"time": 1021, "pitch": 53, "duration": 9, "velocity": 88}, {"time": 1021, "pitch": 57, "duration": 9, "velocity": 87}, {"time": 1027, "pitch": 48, "duration": 33, "velocity": 73}, {"time": 1033, "pitch": 60, "duration": 8, "velocity": 81}, {"time": 1039, "pitch": 57, "duration": 7, "velocity": 75}, {"time": 1045, "pitch": 65, "duration": 13, "velocity": 92}, {"time": 1051, "pitch": 53, "duration": 7, "velocity": 92}, {"time": 1057, "pitch": 60, "duration": 7, "velocity": 93}, {"time": 1063, "pitch": 53, "duration": 3, "velocity": 93}, {"time": 1069, "pitch": 43, "duration": 20, "velocity": 91}, {"time": 1069, "pitch": 55, "duration": 13, "velocity": 81}, {"time": 1069, "pitch": 58, "duration": 9, "velocity": 78}, {"time": 1075, "pitch": 50, "duration": 14, "velocity": 77}, {"time": 1081, "pitch": 62, "duration": 13, "velocity": 82}, {"time": 1087, "pitch": 55, "duration": 13, "velocity": 36}, {"time": 1087, "pitch": 58, "duration": 7, "velocity": 90}, {"time": 1093, "pitch": 67, "duration": 21, "velocity": 93}, {"time": 1099, "pitch": 62, "duration": 16, "velocity": 86}, {"time": 1105, "pitch": 58, "duration": 10, "velocity": 80}, {"time": 1117, "pitch": 43, "duration": 15, "velocity": 93}, {"time": 1117, "pitch": 55, "duration": 7, "velocity": 81}, {"time": 1117, "pitch": 58, "duration": 19, "velocity": 85}, {"time": 1117, "pitch": 62, "duration": 21, "velocity": 90}, {"time": 1123, "pitch": 50, "duration": 9, "velocity": 80}, {"time": 1129, "pitch": 55, "duration": 8, "velocity": 86}, {"time": 1135, "pitch": 43, "duration": 3, "velocity": 93}, {"time": 1141, "pitch": 45, "duration": 21, "velocity": 94}, {"time": 1141, "pitch": 57, "duration": 6, "velocity": 87}, {"time": 1141, "pitch": 60, "duration": 13, "velocity": 88}, {"time": 1147, "pitch": 52, "duration": 17, "velocity": 87}, {"time": 1153, "pitch": 55, "duration": 7, "velocity": 98}, {"time": 1159, "pitch": 60, "duration": 19, "velocity": 92}, {"time": 1165, "pitch": 45, "duration": 22, "velocity": 92}, {"time": 1165, "pitch": 57, "duration": 7, "velocity": 86}, {"time": 1165, "pitch": 64, "duration": 14, "velocity": 93}, {"time": 1171, "pitch": 52, "duration": 16, "velocity": 78}, {"time": 1177, "pitch": 57, "duration": 7, "velocity": 79}, {"time": 1183, "pitch": 60, "duration": 4, "velocity": 86}, {"time": 1189, "pitch": 50, "duration": 14, "velocity": 94}, {"time": 1189, "pitch": 57, "duration": 3, "velocity": 88}, {"time": 1189, "pitch": 62, "duration": 9, "velocity": 90}, {"time": 1195, "pitch": 57, "duration": 7, "velocity": 79}, {"time": 1201, "pitch": 62, "duration": 3, "velocity": 89}, {"time": 1201, "pitch": 65, "duration": 6, "velocity": 88}, {"time": 1213, "pitch": 48, "duration": 37, "velocity": 96}, {"time": 1213, "pitch": 55, "duration": 3, "velocity": 92}, {"time": 1213, "pitch": 60, "duration": 8, "velocity": 90}, {"time": 1219, "pitch": 55, "duration": 7, "velocity": 93}, {"time": 1225, "pitch": 60, "duration": 6, "velocity": 92}, {"time": 1231, "pitch": 62, "duration": 3, "velocity": 86}, {"time": 1237, "pitch": 55, "duration": 2, "velocity": 93}, {"time": 1237, "pitch": 64, "duration": 10, "velocity": 94}, {"time": 1243, "pitch": 55, "duration": 3, "velocity": 80}, {"time": 1249, "pitch": 55, "duration": 2, "velocity": 94}, {"time": 1249, "pitch": 60, "duration": 5, "velocity": 95}, {"time": 1255, "pitch": 55, "duration": 2, "velocity": 89}, {"time": 1261, "pitch": 41, "duration": 44, "velocity": 92}, {"time": 1261, "pitch": 53, "duration": 13, "velocity": 85}, {"time": 1261, "pitch": 57, "duration": 12, "velocity": 82}, {"time": 1267, "pitch": 48, "duration": 25, "velocity": 81}, {"time": 1273, "pitch": 60, "duration": 7, "velocity": 87}, {"time": 1279, "pitch": 57, "duration": 2, "velocity": 82}, {"time": 1285, "pitch": 53, "duration": 9, "velocity": 94}, {"time": 1285, "pitch": 65, "duration": 9, "velocity": 93}, {"time": 1291, "pitch": 57, "duration": 3, "velocity": 88}, {"time": 1297, "pitch": 60, "duration": 11, "velocity": 93}, {"time": 1303, "pitch": 48, "duration": 5, "velocity": 89}, {"time": 1309, "pitch": 41, "duration": 11, "velocity": 96}, {"time": 1309, "pitch": 60, "duration": 8, "velocity": 92}, {"time": 1309, "pitch": 65, "duration": 8, "velocity": 92}, {"time": 1309, "pitch": 69, "duration": 6, "velocity": 93}, {"time": 1321, "pitch": 60, "duration": 3, "velocity": 92}, {"time": 1321, "pitch": 65, "duration": 4, "velocity": 96}, {"time": 1321, "pitch": 69, "duration": 4, "velocity": 94}, {"time": 1330, "pitch": 60, "duration": 4, "velocity": 96}, {"time": 1330, "pitch": 65, "duration": 5, "velocity": 103}, {"time": 1330, "pitch": 69, "duration": 5, "velocity": 97}, {"time": 1333, "pitch": 53, "duration": 3, "velocity": 82}, {"time": 1336, "pitch": 57, "duration": 1, "velocity": 87}, {"time": 1339, "pitch": 60, "duration": 5, "velocity": 101}, {"time": 1342, "pitch": 65, "duration": 3, "velocity": 94}, {"time": 1345, "pitch": 69, "duration": 10, "velocity": 96}, {"time": 1351, "pitch": 36, "duration": 3, "velocity": 93}, {"time": 1357, "pitch": 41, "duration": 7, "velocity": 94}, {"time": 1357, "pitch": 60, "duration": 4, "velocity": 93}, {"time": 1357, "pitch": 65, "duration": 7, "velocity": 92}, {"time": 1357, "pitch": 69, "duration": 7, "velocity": 93}, {"time": 1363, "pitch": 60, "duration": 2, "velocity": 88}, {"time": 1369, "pitch": 60, "duration": 4, "velocity": 94}, {"time": 1369, "pitch": 65, "duration": 5, "velocity": 92}, {"time": 1369, "pitch": 69, "duration": 6, "velocity": 95}, {"time": 1375, "pitch": 53, "duration": 16, "velocity": 87}, {"time": 1378, "pitch": 72, "duration": 2, "velocity": 97}, {"time": 1381, "pitch": 60, "duration": 7, "velocity": 91}, {"time": 1387, "pitch": 65, "duration": 5, "velocity": 94}, {"time": 1387, "pitch": 69, "duration": 6, "velocity": 98}, {"time": 1393, "pitch": 57, "duration": 1, "velocity": 82}, {"time": 1396, "pitch": 67, "duration": 3, "velocity": 88}, {"time": 1399, "pitch": 65, "duration": 4, "velocity": 93}, {"time": 1405, "pitch": 41, "duration": 1, "velocity": 94}, {"time": 1405, "pitch": 65, "duration": 4, "velocity": 89}, {"time": 1405, "pitch": 69, "duration": 7, "velocity": 92}, {"time": 1411, "pitch": 48, "duration": 27, "velocity": 83}, {"time": 1417, "pitch": 57, "duration": 10, "velocity": 93}, {"time": 1420, "pitch": 60, "duration": 4, "velocity": 95}, {"time": 1423, "pitch": 65, "duration": 1, "velocity": 92}, {"time": 1426, "pitch": 60, "duration": 7, "velocity": 93}, {"time": 1426, "pitch": 65, "duration": 7, "velocity": 93}, {"time": 1426, "pitch": 69, "duration": 7, "velocity": 99}, {"time": 1435, "pitch": 60, "duration": 5, "velocity": 92}, {"time": 1435, "pitch": 65, "duration": 6, "velocity": 94}, {"time": 1435, "pitch": 69, "duration": 5, "velocity": 94}, {"time": 1441, "pitch": 57, "duration": 4, "velocity": 84}, {"time": 1444, "pitch": 60, "duration": 2, "velocity": 96}, {"time": 1447, "pitch": 70, "duration": 2, "velocity": 87}, {"time": 1450, "pitch": 69, "duration": 3, "velocity": 93}, {"time": 1453, "pitch": 43, "duration": 33, "velocity": 93}, {"time": 1453, "pitch": 67, "duration": 5, "velocity": 90}, {"time": 1459, "pitch": 50, "duration": 7, "velocity": 83}, {"time": 1465, "pitch": 55, "duration": 6, "velocity": 84}, {"time": 1465, "pitch": 58, "duration": 5, "velocity": 85}, {"time": 1465, "pitch": 62, "duration": 6, "velocity": 90}, {"time": 1474, "pitch": 55, "duration": 4, "velocity": 87}, {"time": 1474, "pitch": 58, "duration": 4, "velocity": 88}, {"time": 1474, "pitch": 62, "duration": 4, "velocity": 93}, {"time": 1474, "pitch": 67, "duration": 4, "velocity": 91}, {"time": 1477, "pitch": 50, "duration": 6, "velocity": 61}, {"time": 1483, "pitch": 55, "duration": 10, "velocity": 94}, {"time": 1483, "pitch": 62, "duration": 13, "velocity": 98}, {"time": 1489, "pitch": 46, "duration": 4, "velocity": 70}, {"time": 1492, "pitch": 50, "duration": 7, "velocity": 98}, {"time": 1495, "pitch": 55, "duration": 5, "velocity": 98}, {"time": 1498, "pitch": 58, "duration": 2, "velocity": 95}, {"time": 1501, "pitch": 43, "duration": 20, "velocity": 94}, {"time": 1501, "pitch": 55, "duration": 7, "velocity": 87}, {"time": 1501, "pitch": 58, "duration": 7, "velocity": 88}, {"time": 1501, "pitch": 62, "duration": 7, "velocity": 97}, {"time": 1501, "pitch": 67, "duration": 6, "velocity": 94}, {"time": 1507, "pitch": 50, "duration": 7, "velocity": 85}, {"time": 1513, "pitch": 55, "duration": 3, "velocity": 92}, {"time": 1513, "pitch": 58, "duration": 5, "velocity": 94}, {"time": 1513, "pitch": 62, "duration": 8, "velocity": 96}, {"time": 1519, "pitch": 50, "duration": 3, "velocity": 88}, {"time": 1525, "pitch": 45, "duration": 21, "velocity": 95}, {"time": 1525, "pitch": 57, "duration": 5, "velocity": 94}, {"time": 1525, "pitch": 60, "duration": 5, "velocity": 94}, {"time": 1531, "pitch": 52, "duration": 9, "velocity": 86}, {"time": 1534, "pitch": 57, "duration": 4, "velocity": 90}, {"time": 1537, "pitch": 64, "duration": 7, "velocity": 97}, {"time": 1540, "pitch": 60, "duration": 3, "velocity": 92}, {"time": 1543, "pitch": 57, "duration": 4, "velocity": 93}, {"time": 1546, "pitch": 60, "duration": 1, "velocity": 88}, {"time": 1549, "pitch": 45, "duration": 19, "velocity": 94}, {"time": 1549, "pitch": 57, "duration": 4, "velocity": 92}, {"time": 1549, "pitch": 60, "duration": 1, "velocity": 91}, {"time": 1549, "pitch": 69, "duration": 6, "velocity": 91}, {"time": 1555, "pitch": 52, "duration": 7, "velocity": 85}, {"time": 1561, "pitch": 69, "duration": 10, "velocity": 92}, {"time": 1561, "pitch": 72, "duration": 10, "velocity": 97}, {"time": 1567, "pitch": 52, "duration": 1, "velocity": 93}, {"time": 1573, "pitch": 38, "duration": 1, "velocity": 92}, {"time": 1573, "pitch": 74, "duration": 6, "velocity": 97}, {"time": 1579, "pitch": 50, "duration": 10, "velocity": 93}, {"time": 1582, "pitch": 57, "duration": 6, "velocity": 92}, {"time": 1585, "pitch": 62, "duration": 4, "velocity": 90}, {"time": 1588, "pitch": 65, "duration": 3, "velocity": 95}, {"time": 1591, "pitch": 69, "duration": 6, "velocity": 98}, {"time": 1594, "pitch": 62, "duration": 3, "velocity": 90}, {"time": 1597, "pitch": 43, "duration": 33, "velocity": 93}, {"time": 1603, "pitch": 50, "duration": 27, "velocity": 85}, {"time": 1609, "pitch": 55, "duration": 8, "velocity": 92}, {"time": 1615, "pitch": 58, "duration": 3, "velocity": 94}, {"time": 1621, "pitch": 55, "duration": 7, "velocity": 94}, {"time": 1621, "pitch": 67, "duration": 6, "velocity": 92}, {"time": 1633, "pitch": 43, "duration": 6, "velocity": 97}, {"time": 1633, "pitch": 55, "duration": 3, "velocity": 93}, {"time": 1633, "pitch": 59, "duration": 5, "velocity": 93}, {"time": 1633, "pitch": 62, "duration": 7, "velocity": 94}, {"time": 1639, "pitch": 55, "duration": 3, "velocity": 98}, {"time": 1645, "pitch": 36, "duration": 1, "velocity": 93}, {"time": 1645, "pitch": 55, "duration": 3, "velocity": 95}, {"time": 1645, "pitch": 60, "duration": 3, "velocity": 92}, {"time": 1651, "pitch": 48, "duration": 17, "velocity": 91}, {"time": 1657, "pitch": 55, "duration": 11, "velocity": 94}, {"time": 1660, "pitch": 60, "duration": 4, "velocity": 93}, {"time": 1663, "pitch": 62, "duration": 4, "velocity": 92}, {"time": 1666, "pitch": 64, "duration": 1, "velocity": 92}, {"time": 1669, "pitch": 48, "duration": 24, "velocity": 95}, {"time": 1669, "pitch": 60, "duration": 5, "velocity": 93}, {"time": 1669, "pitch": 67, "duration": 8, "velocity": 94}, {"time": 1675, "pitch": 55, "duration": 10, "velocity": 89}, {"time": 1681, "pitch": 60, "duration": 4, "velocity": 87}, {"time": 1681, "pitch": 64, "duration": 11, "velocity": 88}, {"time": 1681, "pitch": 67, "duration": 12, "velocity": 91}, {"time": 1687, "pitch": 55, "duration": 6, "velocity": 92}, {"time": 1693, "pitch": 41, "duration": 45, "velocity": 93}, {"time": 1699, "pitch": 48, "duration": 21, "velocity": 87}, {"time": 1705, "pitch": 60, "duration": 21, "velocity": 90}, {"time": 1711, "pitch": 65, "duration": 19, "velocity": 90}, {"time": 1723, "pitch": 48, "duration": 15, "velocity": 73}, {"time": 1729, "pitch": 57, "duration": 12, "velocity": 87}, {"time": 1729, "pitch": 60, "duration": 13, "velocity": 87}, {"time": 1741, "pitch": 43, "duration": 43, "velocity": 92}, {"time": 1747, "pitch": 50, "duration": 35, "velocity": 88}, {"time": 1753, "pitch": 55, "duration": 18, "velocity": 94}, {"time": 1759, "pitch": 62, "duration": 13, "velocity": 88}, {"time": 1771, "pitch": 67, "duration": 12, "velocity": 91}, {"time": 1777, "pitch": 62, "duration": 11, "velocity": 92}, {"time": 1783, "pitch": 55, "duration": 4, "velocity": 93}, {"time": 1789, "pitch": 48, "duration": 12, "velocity": 92}, {"time": 1789, "pitch": 55, "duration": 2, "velocity": 87}, {"time": 1789, "pitch": 60, "duration": 12, "velocity": 90}, {"time": 1795, "pitch": 55, "duration": 6, "velocity": 80}, {"time": 1801, "pitch": 64, "duration": 3, "velocity": 92}, {"time": 1813, "pitch": 45, "duration": 20, "velocity": 89}, {"time": 1813, "pitch": 55, "duration": 8, "velocity": 92}, {"time": 1813, "pitch": 60, "duration": 12, "velocity": 86}, {"time": 1819, "pitch": 52, "duration": 14, "velocity": 86}, {"time": 1825, "pitch": 64, "duration": 7, "velocity": 94}, {"time": 1837, "pitch": 50, "duration": 39, "velocity": 92}, {"time": 1837, "pitch": 62, "duration": 24, "velocity": 88}, {"time": 1843, "pitch": 53, "duration": 32, "velocity": 75}, {"time": 1849, "pitch": 57, "duration": 11, "velocity": 92}, {"time": 1861, "pitch": 65, "duration": 12, "velocity": 93}, {"time": 1867, "pitch": 57, "duration": 6, "velocity": 88}, {"time": 1873, "pitch": 62, "duration": 6, "velocity": 93}, {"time": 1879, "pitch": 60, "duration": 1, "velocity": 87}, {"time": 1885, "pitch": 43, "duration": 38, "velocity": 93}, {"time": 1885, "pitch": 55, "duration": 25, "velocity": 83}, {"time": 1885, "pitch": 58, "duration": 12, "velocity": 81}, {"time": 1891, "pitch": 50, "duration": 30, "velocity": 79}, {"time": 1897, "pitch": 62, "duration": 13, "velocity": 88}, {"time": 1903, "pitch": 58, "duration": 7, "velocity": 92}, {"time": 1909, "pitch": 67, "duration": 23, "velocity": 93}, {"time": 1921, "pitch": 58, "duration": 6, "velocity": 67}, {"time": 1921, "pitch": 62, "duration": 10, "velocity": 88}, {"time": 1927, "pitch": 55, "duration": 3, "velocity": 92}, {"time": 1933, "pitch": 45, "duration": 41, "velocity": 87}, {"time": 1933, "pitch": 55, "duration": 3, "velocity": 91}, {"time": 1933, "pitch": 60, "duration": 13, "velocity": 85}, {"time": 1939, "pitch": 52, "duration": 35, "velocity": 93}, {"time": 1945, "pitch": 57, "duration": 8, "velocity": 91}, {"time": 1951, "pitch": 60, "duration": 7, "velocity": 96}, {"time": 1957, "pitch": 64, "duration": 13, "velocity": 92}, {"time": 1981, "pitch": 43, "duration": 35, "velocity": 93}, {"time": 1981, "pitch": 58, "duration": 12, "velocity": 83}, {"time": 1981, "pitch": 62, "duration": 13, "velocity": 89}, {"time": 1987, "pitch": 50, "duration": 28, "velocity": 80}, {"time": 1993, "pitch": 55, "duration": 14, "velocity": 88}, {"time": 1999, "pitch": 58, "duration": 8, "velocity": 99}, {"time": 1999, "pitch": 62, "duration": 1, "velocity": 47}, {"time": 2005, "pitch": 67, "duration": 11, "velocity": 94}, {"time": 2011, "pitch": 62, "duration": 7, "velocity": 86}, {"time": 2017, "pitch": 58, "duration": 5, "velocity": 92}, {"time": 2023, "pitch": 55, "duration": 1, "velocity": 91}, {"time": 2029, "pitch": 48, "duration": 22, "velocity": 93}, {"time": 2029, "pitch": 60, "duration": 8, "velocity": 85}, {"time": 2029, "pitch": 64, "duration": 13, "velocity": 92}, {"time": 2035, "pitch": 55, "duration": 16, "velocity": 84}, {"time": 2041, "pitch": 67, "duration": 7, "velocity": 81}, {"time": 2047, "pitch": 72, "duration": 3, "velocity": 94}, {"time": 2053, "pitch": 48, "duration": 14, "velocity": 94}, {"time": 2053, "pitch": 60, "duration": 21, "velocity": 74}, {"time": 2053, "pitch": 64, "duration": 21, "velocity": 91}, {"time": 2053, "pitch": 67, "duration": 21, "velocity": 84}, {"time": 2077, "pitch": 41, "duration": 46, "velocity": 94}, {"time": 2077, "pitch": 53, "duration": 13, "velocity": 86}, {"time": 2077, "pitch": 60, "duration": 12, "velocity": 90}, {"time": 2083, "pitch": 48, "duration": 40, "velocity": 83}, {"time": 2089, "pitch": 57, "duration": 7, "velocity": 88}, {"time": 2095, "pitch": 60, "duration": 3, "velocity": 94}, {"time": 2101, "pitch": 53, "duration": 6, "velocity": 89}, {"time": 2101, "pitch": 65, "duration": 6, "velocity": 93}, {"time": 2107, "pitch": 60, "duration": 12, "velocity": 86}, {"time": 2113, "pitch": 57, "duration": 24, "velocity": 86}, {"time": 2125, "pitch": 41, "duration": 45, "velocity": 92}, {"time": 2125, "pitch": 53, "duration": 7, "velocity": 87}, {"time": 2125, "pitch": 60, "duration": 12, "velocity": 92}, {"time": 2131, "pitch": 48, "duration": 38, "velocity": 82}, {"time": 2137, "pitch": 53, "duration": 13, "velocity": 88}, {"time": 2143, "pitch": 60, "duration": 9, "velocity": 87}, {"time": 2155, "pitch": 57, "duration": 2, "velocity": 86}, {"time": 2161, "pitch": 53, "duration": 3, "velocity": 92}, {"time": 2161, "pitch": 65, "duration": 3, "velocity": 96}, {"time": 2167, "pitch": 60, "duration": 5, "velocity": 89}, {"time": 2173, "pitch": 41, "duration": 41, "velocity": 93}, {"time": 2173, "pitch": 53, "duration": 9, "velocity": 88}, {"time": 2173, "pitch": 57, "duration": 9, "velocity": 87}, {"time": 2179, "pitch": 48, "duration": 33, "velocity": 73}, {"time": 2185, "pitch": 60, "duration": 8, "velocity": 81}, {"time": 2191, "pitch": 57, "duration": 7, "velocity": 75}, {"time": 2197, "pitch": 65, "duration": 13, "velocity": 92}, {"time": 2203, "pitch": 53, "duration": 7, "velocity": 92}, {"time": 2209, "pitch": 60, "duration": 7, "velocity": 93}, {"time": 2215, "pitch": 53, "duration": 3, "velocity": 93}, {"time": 2221, "pitch": 43, "duration": 20, "velocity": 91}, {"time": 2221, "pitch": 55, "duration": 13, "velocity": 81}, {"time": 2221, "pitch": 58, "duration": 9, "velocity": 78}, {"time": 2227, "pitch": 50, "duration": 14, "velocity": 77}, {"time": 2233, "pitch": 62, "duration": 13, "velocity": 82}, {"time": 2239, "pitch": 55, "duration": 13, "velocity": 36}, {"time": 2239, "pitch": 58, "duration": 7, "velocity": 90}, {"time": 2245, "pitch": 67, "duration": 21, "velocity": 93}, {"time": 2251, "pitch": 62, "duration": 16, "velocity": 86}, {"time": 2257, "pitch": 58, "duration": 10, "velocity": 80}, {"time": 2269, "pitch": 43, "duration": 15, "velocity": 93}, {"time": 2269, "pitch": 55, "duration": 7, "velocity": 81}, {"time": 2269, "pitch": 58, "duration": 19, "velocity": 85}, {"time": 2269, "pitch": 62, "duration": 21, "velocity": 90}, {"time": 2275, "pitch": 50, "duration": 9, "velocity": 80}, {"time": 2281, "pitch": 55, "duration": 8, "velocity": 86}, {"time": 2287, "pitch": 43, "duration": 3, "velocity": 93}, {"time": 2293, "pitch": 45, "duration": 21, "velocity": 94}, {"time": 2293, "pitch": 57, "duration": 6, "velocity": 87}, {"time": 2293, "pitch": 60, "duration": 13, "velocity": 88}, {"time": 2299, "pitch": 52, "duration": 17, "velocity": 87}, {"time": 2305, "pitch": 55, "duration": 7, "velocity": 98}, {"time": 2311, "pitch": 60, "duration": 19, "velocity": 92}, {"time": 2317, "pitch": 45, "duration": 22, "velocity": 92}, {"time": 2317, "pitch": 57, "duration": 7, "velocity": 86}, {"time": 2317, "pitch": 64, "duration": 14, "velocity": 93}, {"time": 2323, "pitch": 52, "duration": 16, "velocity": 78}, {"time": 2329, "pitch": 57, "duration": 7, "velocity": 79}, {"time": 2335, "pitch": 60, "duration": 4, "velocity": 86}, {"time": 2341, "pitch": 50, "duration": 14, "velocity": 94}, {"time": 2341, "pitch": 57, "duration": 3, "velocity": 88}, {"time": 2341, "pitch": 62, "duration": 9, "velocity": 90}, {"time": 2347, "pitch": 57, "duration": 7, "velocity": 79}, {"time": 2353, "pitch": 62, "duration": 3, "velocity": 89}, {"time": 2353, "pitch": 65, "duration": 6, "velocity": 88}, {"time": 2365, "pitch": 48, "duration": 37, "velocity": 96}, {"time": 2365, "pitch": 55, "duration": 3, "velocity": 92}, {"time": 2365, "pitch": 60, "duration": 8, "velocity": 90}, {"time": 2371, "pitch": 55, "duration": 7, "velocity": 93}, {"time": 2377, "pitch": 60, "duration": 6, "velocity": 92}, {"time": 2383, "pitch": 62, "duration": 3, "velocity": 86}, {"time": 2389, "pitch": 55, "duration": 2, "velocity": 93}, {"time": 2389, "pitch": 64, "duration": 10, "velocity": 94}, {"time": 2395, "pitch": 55, "duration": 3, "velocity": 80}, {"time": 2401, "pitch": 55, "duration": 2, "velocity": 94}, {"time": 2401, "pitch": 60, "duration": 5, "velocity": 95}, {"time": 2407, "pitch": 55, "duration": 2, "velocity": 89}, {"time": 2413, "pitch": 41, "duration": 44, "velocity": 92}, {"time": 2413, "pitch": 53, "duration": 13, "velocity": 85}, {"time": 2413, "pitch": 57, "duration": 12, "velocity": 82}, {"time": 2419, "pitch": 48, "duration": 25, "velocity": 81}, {"time": 2425, "pitch": 60, "duration": 7, "velocity": 87}, {"time": 2431, "pitch": 57, "duration": 2, "velocity": 82}, {"time": 2437, "pitch": 53, "duration": 9, "velocity": 94}, {"time": 2437, "pitch": 65, "duration": 9, "velocity": 93}, {"time": 2443, "pitch": 57, "duration": 3, "velocity": 88}, {"time": 2449, "pitch": 60, "duration": 11, "velocity": 93}, {"time": 2455, "pitch": 48, "duration": 5, "velocity": 89}, {"time": 2461, "pitch": 41, "duration": 11, "velocity": 96}, {"time": 2461, "pitch": 60, "duration": 8, "velocity": 92}, {"time": 2461, "pitch": 65, "duration": 8, "velocity": 92}, {"time": 2461, "pitch": 69, "duration": 6, "velocity": 93}, {"time": 2473, "pitch": 60, "duration": 3, "velocity": 92}, {"time": 2473, "pitch": 65, "duration": 4, "velocity": 96}, {"time": 2473, "pitch": 69, "duration": 4, "velocity": 94}, {"time": 2482, "pitch": 60, "duration": 4, "velocity": 96}, {"time": 2482, "pitch": 65, "duration": 5, "velocity": 103}, {"time": 2482, "pitch": 69, "duration": 5, "velocity": 97}, {"time": 2485, "pitch": 53, "duration": 3, "velocity": 82}, {"time": 2488, "pitch": 57, "duration": 1, "velocity": 87}, {"time": 2491, "pitch": 60, "duration": 5, "velocity": 101}, {"time": 2494, "pitch": 65, "duration": 3, "velocity": 94}, {"time": 2497, "pitch": 69, "duration": 10, "velocity": 96}, {"time": 2503, "pitch": 36, "duration": 3, "velocity": 93}, {"time": 2509, "pitch": 41, "duration": 7, "velocity": 94}, {"time": 2509, "pitch": 60, "duration": 4, "velocity": 93}, {"time": 2509, "pitch": 65, "duration": 7, "velocity": 92}, {"time": 2509, "pitch": 69, "duration": 7, "velocity": 93}, {"time": 2515, "pitch": 60, "duration": 2, "velocity": 88}, {"time": 2521, "pitch": 60, "duration": 4, "velocity": 94}, {"time": 2521, "pitch": 65, "duration": 5, "velocity": 92}, {"time": 2521, "pitch": 69, "duration": 6, "velocity": 95}, {"time": 2527, "pitch": 53, "duration": 16, "velocity": 87}, {"time": 2530, "pitch": 72, "duration": 2, "velocity": 97}, {"time": 2533, "pitch": 60, "duration": 7, "velocity": 91}, {"time": 2539, "pitch": 65, "duration": 5, "velocity": 94}, {"time": 2539, "pitch": 69, "duration": 6, "velocity": 98}, {"time": 2545, "pitch": 57, "duration": 1, "velocity": 82}, {"time": 2548, "pitch": 67, "duration": 3, "velocity": 88}, {"time": 2551, "pitch": 65, "duration": 4, "velocity": 93}, {"time": 2557, "pitch": 41, "duration": 1, "velocity": 94}, {"time": 2557, "pitch": 65, "duration": 4, "velocity": 89}, {"time": 2557, "pitch": 69, "duration": 7, "velocity": 92}, {"time": 2563, "pitch": 48, "duration": 27, "velocity": 83}, {"time": 2569, "pitch": 57, "duration": 10, "velocity": 93}, {"time": 2572, "pitch": 60, "duration": 4, "velocity": 95}, {"time": 2575, "pitch": 65, "duration": 1, "velocity": 92}, {"time": 2578, "pitch": 60, "duration": 7, "velocity": 93}, {"time": 2578, "pitch": 65, "duration": 7, "velocity": 93}, {"time": 2578, "pitch": 69, "duration": 7, "velocity": 99}, {"time": 2587, "pitch": 60, "duration": 5, "velocity": 92}, {"time": 2587, "pitch": 65, "duration": 6, "velocity": 94}, {"time": 2587, "pitch": 69, "duration": 5, "velocity": 94}, {"time": 2593, "pitch": 57, "duration": 4, "velocity": 84}, {"time": 2596, "pitch": 60, "duration": 2, "velocity": 96}, {"time": 2599, "pitch": 70, "duration": 2, "velocity": 87}, {"time": 2602, "pitch": 69, "duration": 3, "velocity": 93}, {"time": 2605, "pitch": 43, "duration": 33, "velocity": 93}, {"time": 2605, "pitch": 67, "duration": 5, "velocity": 90}, {"time": 2611, "pitch": 50, "duration": 7, "velocity": 83}, {"time": 2617, "pitch": 55, "duration": 6, "velocity": 84}, {"time": 2617, "pitch": 58, "duration": 5, "velocity": 85}, {"time": 2617, "pitch": 62, "duration": 6, "velocity": 90}, {"time": 2626, "pitch": 55, "duration": 4, "velocity": 87}, {"time": 2626, "pitch": 58, "duration": 4, "velocity": 88}, {"time": 2626, "pitch": 62, "duration": 4, "velocity": 93}, {"time": 2626, "pitch": 67, "duration": 4, "velocity": 91}, {"time": 2629, "pitch": 50, "duration": 6, "velocity": 61}, {"time": 2635, "pitch": 55, "duration": 10, "velocity": 94}, {"time": 2635, "pitch": 62, "duration": 13, "velocity": 98}, {"time": 2641, "pitch": 46, "duration": 4, "velocity": 70}, {"time": 2644, "pitch": 50, "duration": 7, "velocity": 98}, {"time": 2647, "pitch": 55, "duration": 5, "velocity": 98}, {"time": 2650, "pitch": 58, "duration": 2, "velocity": 95}, {"time": 2653, "pitch": 43, "duration": 20, "velocity": 94}, {"time": 2653, "pitch": 55, "duration": 7, "velocity": 87}, {"time": 2653, "pitch": 58, "duration": 7, "velocity": 88}, {"time": 2653, "pitch": 62, "duration": 7, "velocity": 97}, {"time": 2653, "pitch": 67, "duration": 6, "velocity": 94}, {"time": 2659, "pitch": 50, "duration": 7, "velocity": 85}, {"time": 2665, "pitch": 55, "duration": 3, "velocity": 92}, {"time": 2665, "pitch": 58, "duration": 5, "velocity": 94}, {"time": 2665, "pitch": 62, "duration": 8, "velocity": 96}, {"time": 2671, "pitch": 50, "duration": 3, "velocity": 88}, {"time": 2677, "pitch": 45, "duration": 21, "velocity": 95}, {"time": 2677, "pitch": 57, "duration": 5, "velocity": 94}, {"time": 2677, "pitch": 60, "duration": 5, "velocity": 94}, {"time": 2683, "pitch": 52, "duration": 9, "velocity": 86}, {"time": 2686, "pitch": 57, "duration": 4, "velocity": 90}, {"time": 2689, "pitch": 64, "duration": 7, "velocity": 97}, {"time": 2692, "pitch": 60, "duration": 3, "velocity": 92}, {"time": 2695, "pitch": 57, "duration": 4, "velocity": 93}, {"time": 2698, "pitch": 60, "duration": 1, "velocity": 88}, {"time": 2701, "pitch": 45, "duration": 19, "velocity": 94}, {"time": 2701, "pitch": 57, "duration": 4, "velocity": 92}, {"time": 2701, "pitch": 60, "duration": 1, "velocity": 91}, {"time": 2701, "pitch": 69, "duration": 6, "velocity": 91}, {"time": 2707, "pitch": 52, "duration": 7, "velocity": 85}, {"time": 2713, "pitch": 69, "duration": 10, "velocity": 92}, {"time": 2713, "pitch": 72, "duration": 10, "velocity": 97}, {"time": 2719, "pitch": 52, "duration": 1, "velocity": 93}, {"time": 2725, "pitch": 38, "duration": 1, "velocity": 92}, {"time": 2725, "pitch": 74, "duration": 6, "velocity": 97}, {"time": 2731, "pitch": 50, "duration": 10, "velocity": 93}, {"time": 2734, "pitch": 57, "duration": 6, "velocity": 92}, {"time": 2737, "pitch": 62, "duration": 4, "velocity": 90}, {"time": 2740, "pitch": 65, "duration": 3, "velocity": 95}, {"time": 2743, "pitch": 69, "duration": 6, "velocity": 98}, {"time": 2746, "pitch": 62, "duration": 3, "velocity": 90}, {"time": 2749, "pitch": 43, "duration": 33, "velocity": 93}, {"time": 2755, "pitch": 50, "duration": 27, "velocity": 85}, {"time": 2761, "pitch": 55, "duration": 8, "velocity": 92}, {"time": 2767, "pitch": 58, "duration": 3, "velocity": 94}, {"time": 2773, "pitch": 55, "duration": 7, "velocity": 94}, {"time": 2773, "pitch": 67, "duration": 6, "velocity": 92}, {"time": 2785, "pitch": 43, "duration": 6, "velocity": 97}, {"time": 2785, "pitch": 55, "duration": 3, "velocity": 93}, {"time": 2785, "pitch": 59, "duration": 5, "velocity": 93}, {"time": 2785, "pitch": 62, "duration": 7, "velocity": 94}, {"time": 2791, "pitch": 55, "duration": 3, "velocity": 98}, {"time": 2797, "pitch": 36, "duration": 1, "velocity": 93}, {"time": 2797, "pitch": 55, "duration": 3, "velocity": 95}, {"time": 2797, "pitch": 60, "duration": 3, "velocity": 92}, {"time": 2803, "pitch": 48, "duration": 17, "velocity": 91}, {"time": 2809, "pitch": 55, "duration": 11, "velocity": 94}, {"time": 2812, "pitch": 60, "duration": 4, "velocity": 93}, {"time": 2815, "pitch": 62, "duration": 4, "velocity": 92}, {"time": 2818, "pitch": 64, "duration": 1, "velocity": 92}, {"time": 2821, "pitch": 48, "duration": 24, "velocity": 95}, {"time": 2821, "pitch": 60, "duration": 5, "velocity": 93}, {"time": 2821, "pitch": 67, "duration": 8, "velocity": 94}, {"time": 2827, "pitch": 55, "duration": 10, "velocity": 89}, {"time": 2833, "pitch": 60, "duration": 4, "velocity": 87}, {"time": 2833, "pitch": 64, "duration": 11, "velocity": 88}, {"time": 2833, "pitch": 67, "duration": 12, "velocity": 91}, {"time": 2839, "pitch": 55, "duration": 6, "velocity": 92}, {"time": 2845, "pitch": 41, "duration": 46, "velocity": 94}, {"time": 2845, "pitch": 53, "duration": 13, "velocity": 86}, {"time": 2845, "pitch": 60, "duration": 12, "velocity": 90}, {"time": 2851, "pitch": 48, "duration": 40, "velocity": 83}, {"time": 2857, "pitch": 57, "duration": 7, "velocity": 88}, {"time": 2863, "pitch": 60, "duration": 3, "velocity": 94}, {"time": 2869, "pitch": 53, "duration": 6, "velocity": 89}, {"time": 2869, "pitch": 65, "duration": 6, "velocity": 93}, {"time": 2875, "pitch": 60, "duration": 12, "velocity": 86}, {"time": 2881, "pitch": 57, "duration": 24, "velocity": 86}, {"time": 2893, "pitch": 41, "duration": 45, "velocity": 92}, {"time": 2893, "pitch": 53, "duration": 7, "velocity": 87}, {"time": 2893, "pitch": 60, "duration": 12, "velocity": 92}, {"time": 2899, "pitch": 48, "duration": 38, "velocity": 82}, {"time": 2905, "pitch": 53, "duration": 13, "velocity": 88}, {"time": 2911, "pitch": 60, "duration": 9, "velocity": 87}, {"time": 2923, "pitch": 57, "duration": 2, "velocity": 86}, {"time": 2929, "pitch": 53, "duration": 3, "velocity": 92}, {"time": 2929, "pitch": 65, "duration": 3, "velocity": 96}, {"time": 2935, "pitch": 60, "duration": 5, "velocity": 89}, {"time": 2941, "pitch": 41, "duration": 41, "velocity": 93}, {"time": 2941, "pitch": 53, "duration": 9, "velocity": 88}, {"time": 2941, "pitch": 57, "duration": 9, "velocity": 87}, {"time": 2947, "pitch": 48, "duration": 33, "velocity": 73}, {"time": 2953, "pitch": 60, "duration": 8, "velocity": 81}, {"time": 2959, "pitch": 57, "duration": 7, "velocity": 75}, {"time": 2965, "pitch": 65, "duration": 13, "velocity": 92}, {"time": 2971, "pitch": 53, "duration": 7, "velocity": 92}, {"time": 2977, "pitch": 60, "duration": 7, "velocity": 93}, {"time": 2983, "pitch": 53, "duration": 3, "velocity": 93}, {"time": 2989, "pitch": 43, "duration": 20, "velocity": 91}, {"time": 2989, "pitch": 55, "duration": 13, "velocity": 81}, {"time": 2989, "pitch": 58, "duration": 9, "velocity": 78}, {"time": 2995, "pitch": 50, "duration": 14, "velocity": 77}, {"time": 3001, "pitch": 62, "duration": 13, "velocity": 82}, {"time": 3007, "pitch": 55, "duration": 13, "velocity": 36}, {"time": 3007, "pitch": 58, "duration": 7, "velocity": 90}, {"time": 3013, "pitch": 67, "duration": 21, "velocity": 93}, {"time": 3019, "pitch": 62, "duration": 16, "velocity": 86}, {"time": 3025, "pitch": 58, "duration": 10, "velocity": 80}, {"time": 3037, "pitch": 43, "duration": 15, "velocity": 93}, {"time": 3037, "pitch": 55, "duration": 7, "velocity": 81}, {"time": 3037, "pitch": 58, "duration": 19, "velocity": 85}, {"time": 3037, "pitch": 62, "duration": 21, "velocity": 90}, {"time": 3043, "pitch": 50, "duration": 9, "velocity": 80}, {"time": 3049, "pitch": 55, "duration": 8, "velocity": 86}, {"time": 3055, "pitch": 43, "duration": 3, "velocity": 93}, {"time": 3061, "pitch": 45, "duration": 21, "velocity": 94}, {"time": 3061, "pitch": 57, "duration": 6, "velocity": 87}, {"time": 3061, "pitch": 60, "duration": 13, "velocity": 88}, {"time": 3067, "pitch": 52, "duration": 17, "velocity": 87}, {"time": 3073, "pitch": 55, "duration": 7, "velocity": 98}, {"time": 3079, "pitch": 60, "duration": 19, "velocity": 92}, {"time": 3085, "pitch": 45, "duration": 22, "velocity": 92}, {"time": 3085, "pitch": 57, "duration": 7, "velocity": 86}, {"time": 3085, "pitch": 64, "duration": 14, "velocity": 93}, {"time": 3091, "pitch": 52, "duration": 16, "velocity": 78}, {"time": 3097, "pitch": 57, "duration": 7, "velocity": 79}, {"time": 3103, "pitch": 60, "duration": 4, "velocity": 86}, {"time": 3109, "pitch": 50, "duration": 14, "velocity": 94}, {"time": 3109, "pitch": 57, "duration": 3, "velocity": 88}, {"time": 3109, "pitch": 62, "duration": 9, "velocity": 90}, {"time": 3115, "pitch": 57, "duration": 7, "velocity": 79}, {"time": 3121, "pitch": 62, "duration": 3, "velocity": 89}, {"time": 3121, "pitch": 65, "duration": 6, "velocity": 88}, {"time": 3133, "pitch": 48, "duration": 37, "velocity": 96}, {"time": 3133, "pitch": 55, "duration": 3, "velocity": 92}, {"time": 3133, "pitch": 60, "duration": 8, "velocity": 90}, {"time": 3139, "pitch": 55, "duration": 7, "velocity": 93}, {"time": 3145, "pitch": 60, "duration": 6, "velocity": 92}, {"time": 3151, "pitch": 62, "duration": 3, "velocity": 86}, {"time": 3157, "pitch": 55, "duration": 2, "velocity": 93}, {"time": 3157, "pitch": 64, "duration": 10, "velocity": 94}, {"time": 3163, "pitch": 55, "duration": 3, "velocity": 80}, {"time": 3169, "pitch": 55, "duration": 2, "velocity": 94}, {"time": 3169, "pitch": 60, "duration": 5, "velocity": 95}, {"time": 3175, "pitch": 55, "duration": 2, "velocity": 89}, {"time": 3181, "pitch": 41, "duration": 44, "velocity": 92}, {"time": 3181, "pitch": 53, "duration": 13, "velocity": 85}, {"time": 3181, "pitch": 57, "duration": 12, "velocity": 82}, {"time": 3187, "pitch": 48, "duration": 25, "velocity": 81}, {"time": 3193, "pitch": 60, "duration": 7, "velocity": 87}, {"time": 3199, "pitch": 57, "duration": 2, "velocity": 82}, {"time": 3205, "pitch": 53, "duration": 9, "velocity": 94}, {"time": 3205, "pitch": 65, "duration": 9, "velocity": 93}, {"time": 3211, "pitch": 57, "duration": 3, "velocity": 88}, {"time": 3217, "pitch": 60, "duration": 11, "velocity": 93}, {"time": 3223, "pitch": 48, "duration": 5, "velocity": 89}, {"time": 3229, "pitch": 43, "duration": 19, "velocity": 92}, {"time": 3229, "pitch": 55, "duration": 19, "velocity": 82}, {"time": 3229, "pitch": 62, "duration": 13, "velocity": 86}, {"time": 3235, "pitch": 50, "duration": 13, "velocity": 75}, {"time": 3241, "pitch": 58, "duration": 7, "velocity": 81}, {"time": 3247, "pitch": 62, "duration": 6, "velocity": 87}, {"time": 3253, "pitch": 45, "duration": 40, "velocity": 91}, {"time": 3253, "pitch": 57, "duration": 13, "velocity": 83}, {"time": 3253, "pitch": 60, "duration": 12, "velocity": 88}, {"time": 3259, "pitch": 52, "duration": 32, "velocity": 79}, {"time": 3265, "pitch": 64, "duration": 5, "velocity": 90}, {"time": 3277, "pitch": 69, "duration": 19, "velocity": 93}, {"time": 3283, "pitch": 64, "duration": 16, "velocity": 90}, {"time": 3289, "pitch": 60, "duration": 6, "velocity": 87}, {"time": 3295, "pitch": 57, "duration": 8, "velocity": 76}, {"time": 3301, "pitch": 38, "duration": 12, "velocity": 93}, {"time": 3301, "pitch": 62, "duration": 8, "velocity": 88}, {"time": 3307, "pitch": 45, "duration": 6, "velocity": 73}, {"time": 3313, "pitch": 57, "duration": 3, "velocity": 84}, {"time": 3313, "pitch": 62, "duration": 3, "velocity": 88}, {"time": 3313, "pitch": 65, "duration": 3, "velocity": 88}, {"time": 3325, "pitch": 48, "duration": 7, "velocity": 93}, {"time": 3325, "pitch": 55, "duration": 2, "velocity": 83}, {"time": 3325, "pitch": 60, "duration": 7, "velocity": 86}, {"time": 3331, "pitch": 55, "duration": 14, "velocity": 85}, {"time": 3337, "pitch": 60, "duration": 7, "velocity": 90}, {"time": 3343, "pitch": 62, "duration": 5, "velocity": 87}, {"time": 3349, "pitch": 64, "duration": 7, "velocity": 93}, {"time": 3355, "pitch": 62, "duration": 13, "velocity": 90}, {"time": 3363, "pitch": 60, "duration": 14, "velocity": 92}, {"time": 3372, "pitch": 55, "duration": 9, "velocity": 87}, {"time": 3380, "pitch": 36, "duration": 11, "velocity": 61}, {"time": 3384, "pitch": 55, "duration": 10, "velocity": 77}, {"time": 3385, "pitch": 60, "duration": 11, "velocity": 84}, {"time": 3387, "pitch": 64, "duration": 10, "velocity": 88}, {"time": 3411, "pitch": 41, "duration": 110, "velocity": 93}, {"time": 3415, "pitch": 48, "duration": 105, "velocity": 80}, {"time": 3420, "pitch": 53, "duration": 5, "velocity": 86}, {"time": 3425, "pitch": 55, "duration": 5, "velocity": 89}, {"time": 3430, "pitch": 57, "duration": 13, "velocity": 87}, {"time": 3435, "pitch": 60, "duration": 9, "velocity": 86}, {"time": 3443, "pitch": 65, "duration": 4, "velocity": 51}, {"time": 3458, "pitch": 79, "duration": 7, "velocity": 79}, {"time": 3465, "pitch": 77, "duration": 8, "velocity": 86}, {"time": 3471, "pitch": 81, "duration": 6, "velocity": 92}, {"time": 3479, "pitch": 86, "duration": 6, "velocity": 88}, {"time": 3496, "pitch": 81, "duration": 1, "velocity": 70}, {"time": 3496, "pitch": 84, "duration": 3, "velocity": 77}, {"time": 3497, "pitch": 91, "duration": 7, "velocity": 79}, {"time": 3501, "pitch": 93, "duration": 2, "velocity": 67}], "annotations": [{"time": 161, "annotation": {"number": 64, "value": 127}, "group": "control_change"}, {"time": 203, "annotation": {"number": 64, "value": 0}, "group": "control_change"}, {"time": 205, "annotation": {"number": 64, "value": 127}, "group": "control_change"}, {"time": 250, "annotation": {"number": 64, "value": 0}, "group": "control_change"}, {"time": 253, "annotation": {"number": 64, "value": 127}, "group": "control_change"}, {"time": 299, "annotation": {"number": 64, "value": 0}, "group": "control_change"}, {"time": 302, "annotation": {"number": 64, "value": 127}, "group": "control_change"}, {"time": 347, "annotation": {"number": 64, "value": 0}, "group": "control_change"}, {"time": 349, "annotation": {"number": 64, "value": 127}, "group": "control_change"}, {"time": 371, "annotation": {"number": 64, "value": 0}, "group": "control_change"}, {"time": 373, "annotation": {"number": 64, "value": 127}, "group": "control_change"}, {"time": 395, "annotation": {"number": 64, "value": 0}, "group": "control_change"}, {"time": 398, "annotation": {"number": 64, "value": 127}, "group": "control_change"}, {"time": 418, "annotation": {"number": 64, "value": 0}, "group": "control_change"}, {"time": 421, "annotation": {"number": 64, "value": 127}, "group": "control_change"}, {"time": 442, "annotation": {"number": 64, "value": 0}, "group": "control_change"}, {"time": 447, "annotation": {"number": 64, "value": 127}, "group": "control_change"}, {"time": 467, "annotation": {"number": 64, "value": 0}, "group": "control_change"}, {"time": 470, "annotation": {"number": 64, "value": 127}, "group": "control_change"}, {"time": 491, "annotation": {"number": 64, "value": 0}, "group": "control_change"}, {"time": 495, "annotation": {"number": 64, "value": 127}, "group": "control_change"}, {"time": 540, "annotation": {"number": 64, "value": 0}, "group": "control_change"}, {"time": 548, "annotation": {"number": 64, "value": 127}, "group": "control_change"}, {"time": 588, "annotation": {"number": 64, "value": 0}, "group": "control_change"}, {"time": 591, "annotation": {"number": 64, "value": 127}, "group": "control_change"}, {"time": 636, "annotation": {"number": 64, "value": 0}, "group": "control_change"}, {"time": 643, "annotation": {"number": 64, "value": 127}, "group": "control_change"}, {"time": 683, "annotation": {"number": 64, "value": 0}, "group": "control_change"}, {"time": 688, "annotation": {"number": 64, "value": 127}, "group": "control_change"}, {"time": 732, "annotation": {"number": 64, "value": 0}, "group": "control_change"}, {"time": 738, "annotation": {"number": 64, "value": 127}, "group": "control_change"}, {"time": 755, "annotation": {"number": 64, "value": 0}, "group": "control_change"}, {"time": 761, "annotation": {"number": 64, "value": 127}, "group": "control_change"}, {"time": 779, "annotation": {"number": 64, "value": 0}, "group": "control_change"}, {"time": 782, "annotation": {"number": 64, "value": 127}, "group": "control_change"}, {"time": 803, "annotation": {"number": 64, "value": 0}, "group": "control_change"}, {"time": 810, "annotation": {"number": 64, "value": 127}, "group": "control_change"}, {"time": 828, "annotation": {"number": 64, "value": 0}, "group": "control_change"}, {"time": 831, "annotation": {"number": 64, "value": 127}, "group": "control_change"}, {"time": 875, "annotation": {"number": 64, "value": 0}, "group": "control_change"}, {"time": 880, "annotation": {"number": 64, "value": 127}, "group": "control_change"}, {"time": 922, "annotation": {"number": 64, "value": 0}, "group": "control_change"}, {"time": 925, "annotation": {"number": 64, "value": 127}, "group": "control_change"}, {"time": 926, "annotation": {"number": 64, "value": 0}, "group": "control_change"}, {"time": 926, "annotation": {"number": 64, "value": 127}, "group": "control_change"}, {"time": 972, "annotation": {"number": 64, "value": 0}, "group": "control_change"}, {"time": 978, "annotation": {"number": 64, "value": 127}, "group": "control_change"}, {"time": 1019, "annotation": {"number": 64, "value": 0}, "group": "control_change"}, {"time": 1022, "annotation": {"number": 64, "value": 127}, "group": "control_change"}, {"time": 1067, "annotation": {"number": 64, "value": 0}, "group": "control_change"}, {"time": 1070, "annotation": {"number": 64, "value": 127}, "group": "control_change"}, {"time": 1117, "annotation": {"number": 64, "value": 0}, "group": "control_change"}, {"time": 1122, "annotation": {"number": 64, "value": 127}, "group": "control_change"}, {"time": 1139, "annotation": {"number": 64, "value": 0}, "group": "control_change"}, {"time": 1142, "annotation": {"number": 64, "value": 127}, "group": "control_change"}, {"time": 1162, "annotation": {"number": 64, "value": 0}, "group": "control_change"}, {"time": 1167, "annotation": {"number": 64, "value": 127}, "group": "control_change"}, {"time": 1186, "annotation": {"number": 64, "value": 0}, "group": "control_change"}, {"time": 1190, "annotation": {"number": 64, "value": 127}, "group": "control_change"}, {"time": 1210, "annotation": {"number": 64, "value": 0}, "group": "control_change"}, {"time": 1217, "annotation": {"number": 64, "value": 127}, "group": "control_change"}, {"time": 1259, "annotation": {"number": 64, "value": 0}, "group": "control_change"}, {"time": 1262, "annotation": {"number": 64, "value": 127}, "group": "control_change"}, {"time": 1306, "annotation": {"number": 64, "value": 0}, "group": "control_change"}, {"time": 1309, "annotation": {"number": 64, "value": 127}, "group": "control_change"}, {"time": 1310, "annotation": {"number": 64, "value": 0}, "group": "control_change"}, {"time": 1310, "annotation": {"number": 64, "value": 127}, "group": "control_change"}, {"time": 1355, "annotation": {"number": 64, "value": 0}, "group": "control_change"}, {"time": 1357, "annotation": {"number": 64, "value": 127}, "group": "control_change"}, {"time": 1401, "annotation": {"number": 64, "value": 0}, "group": "control_change"}, {"time": 1405, "annotation": {"number": 64, "value": 127}, "group": "control_change"}, {"time": 1450, "annotation": {"number": 64, "value": 0}, "group": "control_change"}, {"time": 1453, "annotation": {"number": 64, "value": 127}, "group": "control_change"}, {"time": 1489, "annotation": {"number": 64, "value": 0}, "group": "control_change"}, {"time": 1493, "annotation": {"number": 64, "value": 127}, "group": "control_change"}, {"time": 1500, "annotation": {"number": 64, "value": 0}, "group": "control_change"}, {"time": 1503, "annotation": {"number": 64, "value": 127}, "group": "control_change"}, {"time": 1523, "annotation": {"number": 64, "value": 0}, "group": "control_change"}, {"time": 1526, "annotation": {"number": 64, "value": 127}, "group": "control_change"}, {"time": 1547, "annotation": {"number": 64, "value": 0}, "group": "control_change"}, {"time": 1549, "annotation": {"number": 64, "value": 127}, "group": "control_change"}, {"time": 1570, "annotation": {"number": 64, "value": 0}, "group": "control_change"}, {"time": 1572, "annotation": {"number": 64, "value": 127}, "group": "control_change"}, {"time": 1596, "annotation": {"number": 64, "value": 0}, "group": "control_change"}, {"time": 1599, "annotation": {"number": 64, "value": 127}, "group": "control_change"}, {"time": 1642, "annotation": {"number": 64, "value": 0}, "group": "control_change"}, {"time": 1644, "annotation": {"number": 64, "value": 127}, "group": "control_change"}, {"time": 1689, "annotation": {"number": 64, "value": 0}, "group": "control_change"}, {"time": 1695, "annotation": {"number": 64, "value": 127}, "group": "control_change"}, {"time": 1740, "annotation": {"number": 64, "value": 0}, "group": "control_change"}, {"time": 1746, "annotation": {"number": 64, "value": 127}, "group": "control_change"}, {"time": 1786, "annotation": {"number": 64, "value": 0}, "group": "control_change"}, {"time": 1790, "annotation": {"number": 64, "value": 127}, "group": "control_change"}, {"time": 1811, "annotation": {"number": 64, "value": 0}, "group": "control_change"}, {"time": 1816, "annotation": {"number": 64, "value": 127}, "group": "control_change"}, {"time": 1834, "annotation": {"number": 64, "value": 0}, "group": "control_change"}, {"time": 1841, "annotation": {"number": 64, "value": 127}, "group": "control_change"}, {"time": 1882, "annotation": {"number": 64, "value": 0}, "group": "control_change"}, {"time": 1889, "annotation": {"number": 64, "value": 127}, "group": "control_change"}, {"time": 1935, "annotation": {"number": 64, "value": 0}, "group": "control_change"}, {"time": 1941, "annotation": {"number": 64, "value": 127}, "group": "control_change"}, {"time": 1977, "annotation": {"number": 64, "value": 0}, "group": "control_change"}, {"time": 1985, "annotation": {"number": 64, "value": 127}, "group": "control_change"}, {"time": 2028, "annotation": {"number": 64, "value": 0}, "group": "control_change"}, {"time": 2034, "annotation": {"number": 64, "value": 127}, "group": "control_change"}, {"time": 2073, "annotation": {"number": 64, "value": 0}, "group": "control_change"}, {"time": 2077, "annotation": {"number": 64, "value": 127}, "group": "control_change"}, {"time": 2078, "annotation": {"number": 64, "value": 0}, "group": "control_change"}, {"time": 2078, "annotation": {"number": 64, "value": 127}, "group": "control_change"}, {"time": 2124, "annotation": {"number": 64, "value": 0}, "group": "control_change"}, {"time": 2130, "annotation": {"number": 64, "value": 127}, "group": "control_change"}, {"time": 2171, "annotation": {"number": 64, "value": 0}, "group": "control_change"}, {"time": 2174, "annotation": {"number": 64, "value": 127}, "group": "control_change"}, {"time": 2219, "annotation": {"number": 64, "value": 0}, "group": "control_change"}, {"time": 2222, "annotation": {"number": 64, "value": 127}, "group": "control_change"}, {"time": 2269, "annotation": {"number": 64, "value": 0}, "group": "control_change"}, {"time": 2274, "annotation": {"number": 64, "value": 127}, "group": "control_change"}, {"time": 2291, "annotation": {"number": 64, "value": 0}, "group": "control_change"}, {"time": 2294, "annotation": {"number": 64, "value": 127}, "group": "control_change"}, {"time": 2314, "annotation": {"number": 64, "value": 0}, "group": "control_change"}, {"time": 2319, "annotation": {"number": 64, "value": 127}, "group": "control_change"}, {"time": 2338, "annotation": {"number": 64, "value": 0}, "group": "control_change"}, {"time": 2342, "annotation": {"number": 64, "value": 127}, "group": "control_change"}, {"time": 2362, "annotation": {"number": 64, "value": 0}, "group": "control_change"}, {"time": 2369, "annotation": {"number": 64, "value": 127}, "group": "control_change"}, {"time": 2411, "annotation": {"number": 64, "value": 0}, "group": "control_change"}, {"time": 2414, "annotation": {"number": 64, "value": 127}, "group": "control_change"}, {"time": 2458, "annotation": {"number": 64, "value": 0}, "group": "control_change"}, {"time": 2461, "annotation": {"number": 64, "value": 127}, "group": "control_change"}, {"time": 2462, "annotation": {"number": 64, "value": 0}, "group": "control_change"}, {"time": 2462, "annotation": {"number": 64, "value": 127}, "group": "control_change"}, {"time": 2507, "annotation": {"number": 64, "value": 0}, "group": "control_change"}, {"time": 2509, "annotation": {"number": 64, "value": 127}, "group": "control_change"}, {"time": 2553, "annotation": {"number": 64, "value": 0}, "group": "control_change"}, {"time": 2557, "annotation": {"number": 64, "value": 127}, "group": "control_change"}, {"time": 2602, "annotation": {"number": 64, "value": 0}, "group": "control_change"}, {"time": 2605, "annotation": {"number": 64, "value": 127}, "group": "control_change"}, {"time": 2641, "annotation": {"number": 64, "value": 0}, "group": "control_change"}, {"time": 2645, "annotation": {"number": 64, "value": 127}, "group": "control_change"}, {"time": 2652, "annotation": {"number": 64, "value": 0}, "group": "control_change"}, {"time": 2655, "annotation": {"number": 64, "value": 127}, "group": "control_change"}, {"time": 2675, "annotation": {"number": 64, "value": 0}, "group": "control_change"}, {"time": 2678, "annotation": {"number": 64, "value": 127}, "group": "control_change"}, {"time": 2699, "annotation": {"number": 64, "value": 0}, "group": "control_change"}, {"time": 2701, "annotation": {"number": 64, "value": 127}, "group": "control_change"}, {"time": 2722, "annotation": {"number": 64, "value": 0}, "group": "control_change"}, {"time": 2724, "annotation": {"number": 64, "value": 127}, "group": "control_change"}, {"time": 2748, "annotation": {"number": 64, "value": 0}, "group": "control_change"}, {"time": 2751, "annotation": {"number": 64, "value": 127}, "group": "control_change"}, {"time": 2794, "annotation": {"number": 64, "value": 0}, "group": "control_change"}, {"time": 2796, "annotation": {"number": 64, "value": 127}, "group": "control_change"}, {"time": 2841, "annotation": {"number": 64, "value": 0}, "group": "control_change"}, {"time": 2845, "annotation": {"number": 64, "value": 127}, "group": "control_change"}, {"time": 2846, "annotation": {"number": 64, "value": 0}, "group": "control_change"}, {"time": 2846, "annotation": {"number": 64, "value": 127}, "group": "control_change"}, {"time": 2892, "annotation": {"number": 64, "value": 0}, "group": "control_change"}, {"time": 2898, "annotation": {"number": 64, "value": 127}, "group": "control_change"}, {"time": 2939, "annotation": {"number": 64, "value": 0}, "group": "control_change"}, {"time": 2942, "annotation": {"number": 64, "value": 127}, "group": "control_change"}, {"time": 2987, "annotation": {"number": 64, "value": 0}, "group": "control_change"}, {"time": 2990, "annotation": {"number": 64, "value": 127}, "group": "control_change"}, {"time": 3037, "annotation": {"number": 64, "value": 0}, "group": "control_change"}, {"time": 3042, "annotation": {"number": 64, "value": 127}, "group": "control_change"}, {"time": 3059, "annotation": {"number": 64, "value": 0}, "group": "control_change"}, {"time": 3062, "annotation": {"number": 64, "value": 127}, "group": "control_change"}, {"time": 3082, "annotation": {"number": 64, "value": 0}, "group": "control_change"}, {"time": 3087, "annotation": {"number": 64, "value": 127}, "group": "control_change"}, {"time": 3106, "annotation": {"number": 64, "value": 0}, "group": "control_change"}, {"time": 3110, "annotation": {"number": 64, "value": 127}, "group": "control_change"}, {"time": 3130, "annotation": {"number": 64, "value": 0}, "group": "control_change"}, {"time": 3137, "annotation": {"number": 64, "value": 127}, "group": "control_change"}, {"time": 3179, "annotation": {"number": 64, "value": 0}, "group": "control_change"}, {"time": 3182, "annotation": {"number": 64, "value": 127}, "group": "control_change"}, {"time": 3226, "annotation": {"number": 64, "value": 0}, "group": "control_change"}, {"time": 3232, "annotation": {"number": 64, "value": 127}, "group": "control_change"}, {"time": 3251, "annotation": {"number": 64, "value": 0}, "group": "control_change"}, {"time": 3258, "annotation": {"number": 64, "value": 127}, "group": "control_change"}, {"time": 3298, "annotation": {"number": 64, "value": 0}, "group": "control_change"}, {"time": 3301, "annotation": {"number": 64, "value": 127}, "group": "control_change"}, {"time": 3324, "annotation": {"number": 64, "value": 0}, "group": "control_change"}, {"time": 3327, "annotation": {"number": 64, "value": 127}, "group": "control_change"}, {"time": 3414, "annotation": {"number": 64, "value": 127}, "group": "control_change"}]}]}