{"metadata": {"schema_version": "0.2", "title": "None", "source_filename": "516.mid", "source_format": "midi"}, "resolution": 12, "tempos": [{"time": 0, "qpm": 68.50011017101052}, {"time": 1152, "qpm": 68.80008072542805}, {"time": 1272, "qpm": 68.50011017101052}, {"time": 2040, "qpm": 68.70003503701787}, {"time": 2265, "qpm": 68.30002379117495}, {"time": 2472, "qpm": 68.50011017101052}, {"time": 2496, "qpm": 68.60004459002899}, {"time": 3187, "qpm": 68.39999863200002}], "time_signatures": [{"time": 0, "numerator": 1, "denominator": 4}], "tracks": [{"program": 0, "is_drum": false, "name": "MELODY", "notes": [{"time": 403, "pitch": 74, "duration": 4, "velocity": 93}, {"time": 409, "pitch": 74, "duration": 5, "velocity": 91}, {"time": 415, "pitch": 67, "duration": 4, "velocity": 84}, {"time": 421, "pitch": 67, "duration": 11, "velocity": 84}, {"time": 433, "pitch": 69, "duration": 4, "velocity": 84}, {"time": 439, "pitch": 71, "duration": 8, "velocity": 83}, {"time": 451, "pitch": 74, "duration": 4, "velocity": 89}, {"time": 457, "pitch": 74, "duration": 4, "velocity": 89}, {"time": 463, "pitch": 67, "duration": 4, "velocity": 86}, {"time": 469, "pitch": 67, "duration": 4, "velocity": 84}, {"time": 475, "pitch": 69, "duration": 2, "velocity": 85}, {"time": 478, "pitch": 71, "duration": 2, "velocity": 83}, {"time": 481, "pitch": 69, "duration": 2, "velocity": 87}, {"time": 484, "pitch": 67, "duration": 2, "velocity": 84}, {"time": 487, "pitch": 62, "duration": 8, "velocity": 88}, {"time": 499, "pitch": 74, "duration": 4, "velocity": 83}, {"time": 505, "pitch": 74, "duration": 4, "velocity": 89}, {"time": 511, "pitch": 67, "duration": 4, "velocity": 84}, {"time": 517, "pitch": 67, "duration": 11, "velocity": 86}, {"time": 529, "pitch": 69, "duration": 5, "velocity": 83}, {"time": 535, "pitch": 71, "duration": 9, "velocity": 84}, {"time": 547, "pitch": 71, "duration": 9, "velocity": 86}, {"time": 559, "pitch": 69, "duration": 2, "velocity": 88}, {"time": 562, "pitch": 71, "duration": 2, "velocity": 84}, {"time": 565, "pitch": 72, "duration": 2, "velocity": 86}, {"time": 568, "pitch": 71, "duration": 3, "velocity": 82}, {"time": 571, "pitch": 69, "duration": 3, "velocity": 84}, {"time": 574, "pitch": 72, "duration": 2, "velocity": 80}, {"time": 577, "pitch": 71, "duration": 2, "velocity": 83}, {"time": 580, "pitch": 69, "duration": 2, "velocity": 84}, {"time": 583, "pitch": 67, "duration": 6, "velocity": 84}, {"time": 589, "pitch": 64, "duration": 4, "velocity": 88}, {"time": 595, "pitch": 67, "duration": 4, "velocity": 85}, {"time": 601, "pitch": 67, "duration": 6, "velocity": 85}, {"time": 607, "pitch": 71, "duration": 4, "velocity": 84}, {"time": 613, "pitch": 72, "duration": 4, "velocity": 83}, {"time": 619, "pitch": 71, "duration": 4, "velocity": 86}, {"time": 625, "pitch": 69, "duration": 4, "velocity": 86}, {"time": 631, "pitch": 67, "duration": 2, "velocity": 84}, {"time": 634, "pitch": 69, "duration": 2, "velocity": 86}, {"time": 637, "pitch": 71, "duration": 2, "velocity": 83}, {"time": 643, "pitch": 71, "duration": 3, "velocity": 83}, {"time": 649, "pitch": 71, "duration": 3, "velocity": 83}, {"time": 655, "pitch": 71, "duration": 3, "velocity": 85}, {"time": 661, "pitch": 69, "duration": 1, "velocity": 88}, {"time": 664, "pitch": 71, "duration": 2, "velocity": 86}, {"time": 667, "pitch": 69, "duration": 5, "velocity": 91}, {"time": 673, "pitch": 67, "duration": 8, "velocity": 83}, {"time": 685, "pitch": 62, "duration": 5, "velocity": 85}, {"time": 691, "pitch": 67, "duration": 4, "velocity": 82}, {"time": 697, "pitch": 67, "duration": 5, "velocity": 83}, {"time": 703, "pitch": 71, "duration": 5, "velocity": 84}, {"time": 709, "pitch": 72, "duration": 4, "velocity": 84}, {"time": 715, "pitch": 71, "duration": 4, "velocity": 84}, {"time": 721, "pitch": 69, "duration": 5, "velocity": 87}, {"time": 727, "pitch": 67, "duration": 2, "velocity": 81}, {"time": 730, "pitch": 69, "duration": 2, "velocity": 86}, {"time": 733, "pitch": 71, "duration": 4, "velocity": 84}, {"time": 739, "pitch": 71, "duration": 4, "velocity": 83}, {"time": 745, "pitch": 71, "duration": 4, "velocity": 84}, {"time": 751, "pitch": 71, "duration": 4, "velocity": 84}, {"time": 757, "pitch": 69, "duration": 2, "velocity": 83}, {"time": 760, "pitch": 71, "duration": 2, "velocity": 83}, {"time": 763, "pitch": 69, "duration": 5, "velocity": 86}, {"time": 769, "pitch": 67, "duration": 8, "velocity": 86}, {"time": 778, "pitch": 66, "duration": 3, "velocity": 78}, {"time": 781, "pitch": 67, "duration": 2, "velocity": 83}, {"time": 784, "pitch": 67, "duration": 2, "velocity": 77}, {"time": 787, "pitch": 67, "duration": 1, "velocity": 82}, {"time": 790, "pitch": 67, "duration": 2, "velocity": 83}, {"time": 793, "pitch": 66, "duration": 2, "velocity": 91}, {"time": 796, "pitch": 67, "duration": 3, "velocity": 83}, {"time": 802, "pitch": 67, "duration": 4, "velocity": 82}, {"time": 808, "pitch": 67, "duration": 2, "velocity": 80}, {"time": 811, "pitch": 67, "duration": 2, "velocity": 83}, {"time": 814, "pitch": 67, "duration": 2, "velocity": 83}, {"time": 817, "pitch": 66, "duration": 2, "velocity": 87}, {"time": 820, "pitch": 67, "duration": 3, "velocity": 82}, {"time": 826, "pitch": 67, "duration": 5, "velocity": 80}, {"time": 832, "pitch": 67, "duration": 2, "velocity": 78}, {"time": 835, "pitch": 67, "duration": 1, "velocity": 78}, {"time": 838, "pitch": 67, "duration": 2, "velocity": 82}, {"time": 841, "pitch": 66, "duration": 2, "velocity": 83}, {"time": 844, "pitch": 67, "duration": 4, "velocity": 83}, {"time": 850, "pitch": 67, "duration": 4, "velocity": 84}, {"time": 856, "pitch": 67, "duration": 2, "velocity": 80}, {"time": 859, "pitch": 67, "duration": 1, "velocity": 82}, {"time": 862, "pitch": 67, "duration": 2, "velocity": 83}, {"time": 865, "pitch": 74, "duration": 3, "velocity": 88}, {"time": 868, "pitch": 74, "duration": 2, "velocity": 84}, {"time": 874, "pitch": 74, "duration": 2, "velocity": 93}, {"time": 880, "pitch": 74, "duration": 1, "velocity": 84}, {"time": 883, "pitch": 74, "duration": 1, "velocity": 84}, {"time": 886, "pitch": 74, "duration": 1, "velocity": 83}, {"time": 889, "pitch": 74, "duration": 2, "velocity": 91}, {"time": 892, "pitch": 74, "duration": 4, "velocity": 86}, {"time": 898, "pitch": 74, "duration": 1, "velocity": 86}, {"time": 904, "pitch": 74, "duration": 1, "velocity": 86}, {"time": 907, "pitch": 74, "duration": 1, "velocity": 86}, {"time": 910, "pitch": 74, "duration": 1, "velocity": 84}, {"time": 913, "pitch": 74, "duration": 3, "velocity": 87}, {"time": 916, "pitch": 72, "duration": 2, "velocity": 84}, {"time": 919, "pitch": 72, "duration": 2, "velocity": 82}, {"time": 922, "pitch": 71, "duration": 24, "velocity": 86}, {"time": 961, "pitch": 69, "duration": 2, "velocity": 83}, {"time": 964, "pitch": 67, "duration": 2, "velocity": 74}, {"time": 967, "pitch": 66, "duration": 2, "velocity": 84}, {"time": 970, "pitch": 67, "duration": 2, "velocity": 78}, {"time": 973, "pitch": 64, "duration": 5, "velocity": 89}, {"time": 979, "pitch": 66, "duration": 5, "velocity": 84}, {"time": 985, "pitch": 67, "duration": 5, "velocity": 84}, {"time": 991, "pitch": 74, "duration": 4, "velocity": 87}, {"time": 997, "pitch": 72, "duration": 5, "velocity": 83}, {"time": 1003, "pitch": 71, "duration": 5, "velocity": 82}, {"time": 1009, "pitch": 67, "duration": 4, "velocity": 83}, {"time": 1015, "pitch": 67, "duration": 29, "velocity": 82}, {"time": 1045, "pitch": 67, "duration": 1, "velocity": 87}, {"time": 1048, "pitch": 67, "duration": 1, "velocity": 72}, {"time": 1051, "pitch": 67, "duration": 1, "velocity": 81}, {"time": 1054, "pitch": 67, "duration": 2, "velocity": 81}, {"time": 1057, "pitch": 71, "duration": 4, "velocity": 86}, {"time": 1063, "pitch": 67, "duration": 5, "velocity": 84}, {"time": 1069, "pitch": 64, "duration": 5, "velocity": 89}, {"time": 1075, "pitch": 66, "duration": 6, "velocity": 84}, {"time": 1081, "pitch": 67, "duration": 5, "velocity": 84}, {"time": 1087, "pitch": 74, "duration": 5, "velocity": 89}, {"time": 1093, "pitch": 72, "duration": 7, "velocity": 82}, {"time": 1099, "pitch": 71, "duration": 6, "velocity": 83}, {"time": 1105, "pitch": 67, "duration": 6, "velocity": 82}, {"time": 1111, "pitch": 69, "duration": 31, "velocity": 83}, {"time": 1165, "pitch": 71, "duration": 6, "velocity": 85}, {"time": 1171, "pitch": 69, "duration": 6, "velocity": 85}, {"time": 1177, "pitch": 72, "duration": 7, "velocity": 82}, {"time": 1183, "pitch": 71, "duration": 8, "velocity": 83}, {"time": 1195, "pitch": 67, "duration": 6, "velocity": 84}, {"time": 1201, "pitch": 74, "duration": 4, "velocity": 89}, {"time": 1207, "pitch": 78, "duration": 5, "velocity": 85}, {"time": 1213, "pitch": 79, "duration": 5, "velocity": 86}, {"time": 1219, "pitch": 78, "duration": 4, "velocity": 88}, {"time": 1225, "pitch": 74, "duration": 4, "velocity": 85}, {"time": 1231, "pitch": 67, "duration": 9, "velocity": 96}, {"time": 1243, "pitch": 67, "duration": 5, "velocity": 88}, {"time": 1249, "pitch": 76, "duration": 4, "velocity": 83}, {"time": 1255, "pitch": 76, "duration": 8, "velocity": 86}, {"time": 1267, "pitch": 76, "duration": 5, "velocity": 84}, {"time": 1273, "pitch": 74, "duration": 4, "velocity": 88}, {"time": 1279, "pitch": 74, "duration": 7, "velocity": 93}, {"time": 1291, "pitch": 74, "duration": 5, "velocity": 93}, {"time": 1297, "pitch": 72, "duration": 5, "velocity": 84}, {"time": 1303, "pitch": 71, "duration": 4, "velocity": 84}, {"time": 1309, "pitch": 69, "duration": 5, "velocity": 86}, {"time": 1315, "pitch": 71, "duration": 5, "velocity": 86}, {"time": 1321, "pitch": 72, "duration": 5, "velocity": 86}, {"time": 1327, "pitch": 71, "duration": 21, "velocity": 85}, {"time": 1357, "pitch": 71, "duration": 5, "velocity": 91}, {"time": 1363, "pitch": 73, "duration": 5, "velocity": 86}, {"time": 1369, "pitch": 75, "duration": 5, "velocity": 88}, {"time": 1375, "pitch": 71, "duration": 10, "velocity": 93}, {"time": 1387, "pitch": 73, "duration": 4, "velocity": 89}, {"time": 1393, "pitch": 75, "duration": 4, "velocity": 87}, {"time": 1399, "pitch": 78, "duration": 5, "velocity": 93}, {"time": 1405, "pitch": 81, "duration": 8, "velocity": 83}, {"time": 1411, "pitch": 78, "duration": 5, "velocity": 82}, {"time": 1417, "pitch": 79, "duration": 6, "velocity": 83}, {"time": 1423, "pitch": 79, "duration": 18, "velocity": 84}, {"time": 1447, "pitch": 79, "duration": 4, "velocity": 83}, {"time": 1453, "pitch": 79, "duration": 4, "velocity": 84}, {"time": 1459, "pitch": 74, "duration": 4, "velocity": 89}, {"time": 1465, "pitch": 74, "duration": 4, "velocity": 93}, {"time": 1471, "pitch": 76, "duration": 5, "velocity": 89}, {"time": 1477, "pitch": 74, "duration": 5, "velocity": 87}, {"time": 1483, "pitch": 72, "duration": 5, "velocity": 88}, {"time": 1489, "pitch": 69, "duration": 5, "velocity": 84}, {"time": 1495, "pitch": 71, "duration": 5, "velocity": 83}, {"time": 1501, "pitch": 72, "duration": 5, "velocity": 83}, {"time": 1507, "pitch": 74, "duration": 5, "velocity": 84}, {"time": 1513, "pitch": 76, "duration": 6, "velocity": 83}, {"time": 1519, "pitch": 67, "duration": 6, "velocity": 85}, {"time": 1525, "pitch": 76, "duration": 13, "velocity": 89}, {"time": 1537, "pitch": 78, "duration": 10, "velocity": 84}, {"time": 1549, "pitch": 71, "duration": 6, "velocity": 85}, {"time": 1555, "pitch": 69, "duration": 6, "velocity": 85}, {"time": 1561, "pitch": 72, "duration": 7, "velocity": 82}, {"time": 1567, "pitch": 71, "duration": 8, "velocity": 83}, {"time": 1579, "pitch": 67, "duration": 6, "velocity": 84}, {"time": 1585, "pitch": 74, "duration": 4, "velocity": 89}, {"time": 1591, "pitch": 78, "duration": 5, "velocity": 85}, {"time": 1597, "pitch": 79, "duration": 5, "velocity": 86}, {"time": 1603, "pitch": 78, "duration": 4, "velocity": 88}, {"time": 1609, "pitch": 74, "duration": 4, "velocity": 85}, {"time": 1615, "pitch": 67, "duration": 9, "velocity": 96}, {"time": 1627, "pitch": 67, "duration": 5, "velocity": 88}, {"time": 1633, "pitch": 76, "duration": 4, "velocity": 83}, {"time": 1639, "pitch": 76, "duration": 8, "velocity": 86}, {"time": 1651, "pitch": 76, "duration": 5, "velocity": 84}, {"time": 1657, "pitch": 74, "duration": 4, "velocity": 88}, {"time": 1663, "pitch": 74, "duration": 7, "velocity": 93}, {"time": 1675, "pitch": 74, "duration": 5, "velocity": 93}, {"time": 1681, "pitch": 72, "duration": 5, "velocity": 84}, {"time": 1687, "pitch": 71, "duration": 4, "velocity": 84}, {"time": 1693, "pitch": 69, "duration": 5, "velocity": 86}, {"time": 1699, "pitch": 71, "duration": 5, "velocity": 86}, {"time": 1705, "pitch": 72, "duration": 5, "velocity": 86}, {"time": 1711, "pitch": 71, "duration": 21, "velocity": 85}, {"time": 1741, "pitch": 71, "duration": 5, "velocity": 91}, {"time": 1747, "pitch": 73, "duration": 5, "velocity": 86}, {"time": 1753, "pitch": 75, "duration": 5, "velocity": 88}, {"time": 1759, "pitch": 71, "duration": 10, "velocity": 93}, {"time": 1771, "pitch": 73, "duration": 4, "velocity": 89}, {"time": 1777, "pitch": 75, "duration": 4, "velocity": 87}, {"time": 1783, "pitch": 78, "duration": 5, "velocity": 93}, {"time": 1789, "pitch": 81, "duration": 8, "velocity": 83}, {"time": 1795, "pitch": 78, "duration": 5, "velocity": 82}, {"time": 1801, "pitch": 79, "duration": 6, "velocity": 83}, {"time": 1807, "pitch": 79, "duration": 18, "velocity": 84}, {"time": 1831, "pitch": 79, "duration": 4, "velocity": 83}, {"time": 1837, "pitch": 79, "duration": 4, "velocity": 84}, {"time": 1843, "pitch": 74, "duration": 4, "velocity": 89}, {"time": 1849, "pitch": 74, "duration": 4, "velocity": 93}, {"time": 1855, "pitch": 76, "duration": 5, "velocity": 89}, {"time": 1861, "pitch": 74, "duration": 5, "velocity": 87}, {"time": 1867, "pitch": 72, "duration": 5, "velocity": 88}, {"time": 1873, "pitch": 64, "duration": 5, "velocity": 84}, {"time": 1879, "pitch": 66, "duration": 5, "velocity": 83}, {"time": 1885, "pitch": 67, "duration": 5, "velocity": 83}, {"time": 1891, "pitch": 69, "duration": 5, "velocity": 84}, {"time": 1897, "pitch": 71, "duration": 6, "velocity": 83}, {"time": 1903, "pitch": 69, "duration": 9, "velocity": 85}, {"time": 1918, "pitch": 62, "duration": 4, "velocity": 80}, {"time": 1921, "pitch": 71, "duration": 6, "velocity": 85}, {"time": 1927, "pitch": 67, "duration": 31, "velocity": 82}, {"time": 2122, "pitch": 66, "duration": 3, "velocity": 78}, {"time": 2125, "pitch": 67, "duration": 2, "velocity": 83}, {"time": 2128, "pitch": 67, "duration": 2, "velocity": 77}, {"time": 2131, "pitch": 67, "duration": 1, "velocity": 82}, {"time": 2134, "pitch": 67, "duration": 2, "velocity": 83}, {"time": 2137, "pitch": 66, "duration": 2, "velocity": 91}, {"time": 2140, "pitch": 67, "duration": 3, "velocity": 83}, {"time": 2146, "pitch": 67, "duration": 4, "velocity": 82}, {"time": 2152, "pitch": 67, "duration": 2, "velocity": 80}, {"time": 2155, "pitch": 67, "duration": 2, "velocity": 83}, {"time": 2158, "pitch": 67, "duration": 2, "velocity": 83}, {"time": 2161, "pitch": 66, "duration": 2, "velocity": 87}, {"time": 2164, "pitch": 67, "duration": 3, "velocity": 82}, {"time": 2170, "pitch": 67, "duration": 5, "velocity": 80}, {"time": 2176, "pitch": 67, "duration": 2, "velocity": 78}, {"time": 2179, "pitch": 67, "duration": 1, "velocity": 78}, {"time": 2182, "pitch": 67, "duration": 2, "velocity": 82}, {"time": 2185, "pitch": 66, "duration": 2, "velocity": 83}, {"time": 2188, "pitch": 67, "duration": 4, "velocity": 83}, {"time": 2194, "pitch": 67, "duration": 4, "velocity": 84}, {"time": 2200, "pitch": 67, "duration": 2, "velocity": 80}, {"time": 2203, "pitch": 67, "duration": 1, "velocity": 82}, {"time": 2206, "pitch": 67, "duration": 2, "velocity": 83}, {"time": 2209, "pitch": 74, "duration": 3, "velocity": 88}, {"time": 2212, "pitch": 74, "duration": 2, "velocity": 84}, {"time": 2218, "pitch": 74, "duration": 2, "velocity": 93}, {"time": 2224, "pitch": 74, "duration": 1, "velocity": 84}, {"time": 2227, "pitch": 74, "duration": 1, "velocity": 84}, {"time": 2230, "pitch": 74, "duration": 1, "velocity": 83}, {"time": 2233, "pitch": 74, "duration": 2, "velocity": 91}, {"time": 2236, "pitch": 74, "duration": 4, "velocity": 86}, {"time": 2242, "pitch": 74, "duration": 1, "velocity": 86}, {"time": 2248, "pitch": 74, "duration": 1, "velocity": 86}, {"time": 2251, "pitch": 74, "duration": 1, "velocity": 86}, {"time": 2254, "pitch": 74, "duration": 1, "velocity": 84}, {"time": 2257, "pitch": 74, "duration": 3, "velocity": 87}, {"time": 2260, "pitch": 72, "duration": 2, "velocity": 84}, {"time": 2263, "pitch": 72, "duration": 2, "velocity": 82}, {"time": 2266, "pitch": 71, "duration": 24, "velocity": 86}, {"time": 2305, "pitch": 69, "duration": 2, "velocity": 83}, {"time": 2308, "pitch": 67, "duration": 2, "velocity": 74}, {"time": 2311, "pitch": 66, "duration": 2, "velocity": 84}, {"time": 2314, "pitch": 67, "duration": 2, "velocity": 78}, {"time": 2317, "pitch": 64, "duration": 5, "velocity": 89}, {"time": 2323, "pitch": 66, "duration": 5, "velocity": 84}, {"time": 2329, "pitch": 67, "duration": 5, "velocity": 84}, {"time": 2335, "pitch": 74, "duration": 4, "velocity": 87}, {"time": 2341, "pitch": 72, "duration": 5, "velocity": 83}, {"time": 2347, "pitch": 71, "duration": 5, "velocity": 82}, {"time": 2353, "pitch": 67, "duration": 4, "velocity": 83}, {"time": 2359, "pitch": 67, "duration": 29, "velocity": 82}, {"time": 2395, "pitch": 74, "duration": 4, "velocity": 86}, {"time": 2401, "pitch": 71, "duration": 5, "velocity": 84}, {"time": 2407, "pitch": 69, "duration": 5, "velocity": 84}, {"time": 2413, "pitch": 64, "duration": 5, "velocity": 89}, {"time": 2419, "pitch": 66, "duration": 6, "velocity": 84}, {"time": 2425, "pitch": 67, "duration": 5, "velocity": 84}, {"time": 2431, "pitch": 74, "duration": 5, "velocity": 89}, {"time": 2437, "pitch": 72, "duration": 7, "velocity": 82}, {"time": 2443, "pitch": 71, "duration": 6, "velocity": 83}, {"time": 2449, "pitch": 67, "duration": 6, "velocity": 82}, {"time": 2455, "pitch": 69, "duration": 31, "velocity": 83}, {"time": 2509, "pitch": 71, "duration": 6, "velocity": 85}, {"time": 2515, "pitch": 69, "duration": 6, "velocity": 85}, {"time": 2521, "pitch": 72, "duration": 7, "velocity": 82}, {"time": 2527, "pitch": 71, "duration": 8, "velocity": 83}, {"time": 2539, "pitch": 67, "duration": 6, "velocity": 84}, {"time": 2545, "pitch": 74, "duration": 4, "velocity": 89}, {"time": 2551, "pitch": 78, "duration": 5, "velocity": 85}, {"time": 2557, "pitch": 79, "duration": 5, "velocity": 86}, {"time": 2563, "pitch": 78, "duration": 4, "velocity": 88}, {"time": 2569, "pitch": 74, "duration": 4, "velocity": 85}, {"time": 2575, "pitch": 67, "duration": 9, "velocity": 96}, {"time": 2587, "pitch": 67, "duration": 5, "velocity": 88}, {"time": 2593, "pitch": 76, "duration": 4, "velocity": 83}, {"time": 2599, "pitch": 76, "duration": 8, "velocity": 86}, {"time": 2611, "pitch": 76, "duration": 5, "velocity": 84}, {"time": 2617, "pitch": 74, "duration": 4, "velocity": 88}, {"time": 2623, "pitch": 74, "duration": 7, "velocity": 93}, {"time": 2635, "pitch": 74, "duration": 5, "velocity": 93}, {"time": 2641, "pitch": 72, "duration": 5, "velocity": 84}, {"time": 2647, "pitch": 71, "duration": 4, "velocity": 84}, {"time": 2653, "pitch": 69, "duration": 5, "velocity": 86}, {"time": 2659, "pitch": 71, "duration": 5, "velocity": 86}, {"time": 2665, "pitch": 72, "duration": 5, "velocity": 86}, {"time": 2671, "pitch": 71, "duration": 21, "velocity": 85}, {"time": 2701, "pitch": 71, "duration": 5, "velocity": 91}, {"time": 2707, "pitch": 73, "duration": 5, "velocity": 86}, {"time": 2713, "pitch": 75, "duration": 5, "velocity": 88}, {"time": 2719, "pitch": 71, "duration": 10, "velocity": 93}, {"time": 2731, "pitch": 73, "duration": 4, "velocity": 89}, {"time": 2737, "pitch": 75, "duration": 4, "velocity": 87}, {"time": 2743, "pitch": 78, "duration": 5, "velocity": 93}, {"time": 2749, "pitch": 81, "duration": 8, "velocity": 83}, {"time": 2755, "pitch": 78, "duration": 5, "velocity": 82}, {"time": 2761, "pitch": 79, "duration": 6, "velocity": 83}, {"time": 2767, "pitch": 79, "duration": 18, "velocity": 84}, {"time": 2791, "pitch": 79, "duration": 4, "velocity": 83}, {"time": 2797, "pitch": 79, "duration": 4, "velocity": 84}, {"time": 2803, "pitch": 74, "duration": 4, "velocity": 89}, {"time": 2809, "pitch": 74, "duration": 4, "velocity": 93}, {"time": 2815, "pitch": 76, "duration": 5, "velocity": 89}, {"time": 2821, "pitch": 74, "duration": 5, "velocity": 87}, {"time": 2827, "pitch": 72, "duration": 5, "velocity": 88}, {"time": 2833, "pitch": 69, "duration": 5, "velocity": 84}, {"time": 2839, "pitch": 71, "duration": 5, "velocity": 83}, {"time": 2845, "pitch": 72, "duration": 5, "velocity": 83}, {"time": 2851, "pitch": 74, "duration": 5, "velocity": 84}, {"time": 2857, "pitch": 76, "duration": 6, "velocity": 83}, {"time": 2863, "pitch": 67, "duration": 6, "velocity": 85}, {"time": 2869, "pitch": 76, "duration": 13, "velocity": 89}, {"time": 2881, "pitch": 78, "duration": 10, "velocity": 84}, {"time": 2893, "pitch": 71, "duration": 6, "velocity": 85}, {"time": 2899, "pitch": 69, "duration": 6, "velocity": 85}, {"time": 2905, "pitch": 72, "duration": 7, "velocity": 82}, {"time": 2911, "pitch": 71, "duration": 8, "velocity": 83}, {"time": 2923, "pitch": 67, "duration": 6, "velocity": 84}, {"time": 2929, "pitch": 74, "duration": 4, "velocity": 89}, {"time": 2935, "pitch": 78, "duration": 5, "velocity": 85}, {"time": 2941, "pitch": 79, "duration": 5, "velocity": 86}, {"time": 2947, "pitch": 78, "duration": 4, "velocity": 88}, {"time": 2953, "pitch": 74, "duration": 4, "velocity": 85}, {"time": 2959, "pitch": 67, "duration": 9, "velocity": 96}, {"time": 2971, "pitch": 67, "duration": 5, "velocity": 88}, {"time": 2977, "pitch": 76, "duration": 4, "velocity": 83}, {"time": 2983, "pitch": 76, "duration": 8, "velocity": 86}, {"time": 2995, "pitch": 76, "duration": 5, "velocity": 84}, {"time": 3001, "pitch": 74, "duration": 4, "velocity": 88}, {"time": 3007, "pitch": 74, "duration": 7, "velocity": 93}, {"time": 3019, "pitch": 74, "duration": 5, "velocity": 93}, {"time": 3025, "pitch": 72, "duration": 5, "velocity": 84}, {"time": 3031, "pitch": 71, "duration": 4, "velocity": 84}, {"time": 3037, "pitch": 69, "duration": 5, "velocity": 86}, {"time": 3043, "pitch": 71, "duration": 5, "velocity": 86}, {"time": 3049, "pitch": 72, "duration": 5, "velocity": 86}, {"time": 3055, "pitch": 71, "duration": 21, "velocity": 85}, {"time": 3085, "pitch": 71, "duration": 5, "velocity": 91}, {"time": 3091, "pitch": 73, "duration": 5, "velocity": 86}, {"time": 3097, "pitch": 75, "duration": 5, "velocity": 88}, {"time": 3103, "pitch": 71, "duration": 10, "velocity": 93}, {"time": 3115, "pitch": 73, "duration": 4, "velocity": 89}, {"time": 3121, "pitch": 75, "duration": 4, "velocity": 87}, {"time": 3127, "pitch": 78, "duration": 5, "velocity": 93}, {"time": 3133, "pitch": 81, "duration": 8, "velocity": 83}, {"time": 3139, "pitch": 78, "duration": 5, "velocity": 82}, {"time": 3145, "pitch": 79, "duration": 6, "velocity": 83}, {"time": 3151, "pitch": 79, "duration": 18, "velocity": 84}, {"time": 3175, "pitch": 79, "duration": 4, "velocity": 83}, {"time": 3181, "pitch": 79, "duration": 4, "velocity": 84}, {"time": 3187, "pitch": 74, "duration": 4, "velocity": 89}, {"time": 3193, "pitch": 74, "duration": 4, "velocity": 93}, {"time": 3199, "pitch": 76, "duration": 5, "velocity": 89}, {"time": 3205, "pitch": 74, "duration": 5, "velocity": 87}, {"time": 3211, "pitch": 72, "duration": 5, "velocity": 88}, {"time": 3217, "pitch": 64, "duration": 5, "velocity": 84}, {"time": 3223, "pitch": 66, "duration": 5, "velocity": 83}, {"time": 3229, "pitch": 67, "duration": 5, "velocity": 83}, {"time": 3235, "pitch": 69, "duration": 5, "velocity": 84}, {"time": 3241, "pitch": 71, "duration": 6, "velocity": 83}, {"time": 3247, "pitch": 69, "duration": 9, "velocity": 85}, {"time": 3262, "pitch": 62, "duration": 4, "velocity": 80}, {"time": 3265, "pitch": 71, "duration": 6, "velocity": 85}, {"time": 3271, "pitch": 67, "duration": 31, "velocity": 82}]}, {"program": 0, "is_drum": false, "name": "BRIDGE", "notes": [{"time": 13, "pitch": 64, "duration": 7, "velocity": 86}, {"time": 19, "pitch": 67, "duration": 7, "velocity": 79}, {"time": 25, "pitch": 74, "duration": 12, "velocity": 87}, {"time": 31, "pitch": 67, "duration": 7, "velocity": 80}, {"time": 37, "pitch": 60, "duration": 17, "velocity": 77}, {"time": 43, "pitch": 67, "duration": 7, "velocity": 77}, {"time": 49, "pitch": 74, "duration": 12, "velocity": 84}, {"time": 55, "pitch": 67, "duration": 6, "velocity": 77}, {"time": 61, "pitch": 55, "duration": 19, "velocity": 82}, {"time": 67, "pitch": 62, "duration": 7, "velocity": 83}, {"time": 73, "pitch": 74, "duration": 12, "velocity": 88}, {"time": 79, "pitch": 67, "duration": 6, "velocity": 84}, {"time": 85, "pitch": 55, "duration": 10, "velocity": 83}, {"time": 91, "pitch": 62, "duration": 7, "velocity": 80}, {"time": 97, "pitch": 54, "duration": 11, "velocity": 85}, {"time": 103, "pitch": 62, "duration": 6, "velocity": 77}, {"time": 109, "pitch": 64, "duration": 7, "velocity": 86}, {"time": 115, "pitch": 67, "duration": 7, "velocity": 79}, {"time": 121, "pitch": 74, "duration": 12, "velocity": 87}, {"time": 127, "pitch": 67, "duration": 7, "velocity": 80}, {"time": 133, "pitch": 60, "duration": 17, "velocity": 77}, {"time": 139, "pitch": 67, "duration": 7, "velocity": 77}, {"time": 145, "pitch": 74, "duration": 12, "velocity": 84}, {"time": 151, "pitch": 67, "duration": 6, "velocity": 77}, {"time": 157, "pitch": 55, "duration": 19, "velocity": 82}, {"time": 163, "pitch": 62, "duration": 7, "velocity": 83}, {"time": 169, "pitch": 74, "duration": 12, "velocity": 88}, {"time": 175, "pitch": 67, "duration": 6, "velocity": 84}, {"time": 181, "pitch": 55, "duration": 10, "velocity": 83}, {"time": 187, "pitch": 62, "duration": 7, "velocity": 80}, {"time": 193, "pitch": 54, "duration": 11, "velocity": 85}, {"time": 199, "pitch": 62, "duration": 6, "velocity": 77}, {"time": 205, "pitch": 64, "duration": 7, "velocity": 86}, {"time": 211, "pitch": 67, "duration": 7, "velocity": 79}, {"time": 217, "pitch": 74, "duration": 12, "velocity": 87}, {"time": 223, "pitch": 67, "duration": 7, "velocity": 80}, {"time": 229, "pitch": 60, "duration": 17, "velocity": 77}, {"time": 235, "pitch": 67, "duration": 7, "velocity": 77}, {"time": 241, "pitch": 74, "duration": 12, "velocity": 84}, {"time": 247, "pitch": 67, "duration": 6, "velocity": 77}, {"time": 253, "pitch": 55, "duration": 19, "velocity": 82}, {"time": 259, "pitch": 62, "duration": 7, "velocity": 83}, {"time": 265, "pitch": 74, "duration": 12, "velocity": 88}, {"time": 271, "pitch": 67, "duration": 6, "velocity": 84}, {"time": 277, "pitch": 55, "duration": 10, "velocity": 83}, {"time": 283, "pitch": 62, "duration": 7, "velocity": 80}, {"time": 289, "pitch": 54, "duration": 11, "velocity": 85}, {"time": 295, "pitch": 62, "duration": 6, "velocity": 77}, {"time": 301, "pitch": 64, "duration": 7, "velocity": 86}, {"time": 307, "pitch": 67, "duration": 7, "velocity": 79}, {"time": 313, "pitch": 74, "duration": 12, "velocity": 87}, {"time": 319, "pitch": 67, "duration": 7, "velocity": 80}, {"time": 325, "pitch": 60, "duration": 17, "velocity": 77}, {"time": 331, "pitch": 67, "duration": 7, "velocity": 77}, {"time": 337, "pitch": 74, "duration": 12, "velocity": 84}, {"time": 343, "pitch": 67, "duration": 6, "velocity": 77}, {"time": 349, "pitch": 55, "duration": 19, "velocity": 82}, {"time": 355, "pitch": 62, "duration": 7, "velocity": 83}, {"time": 361, "pitch": 74, "duration": 12, "velocity": 88}, {"time": 367, "pitch": 67, "duration": 6, "velocity": 84}, {"time": 373, "pitch": 55, "duration": 10, "velocity": 83}, {"time": 379, "pitch": 62, "duration": 7, "velocity": 80}, {"time": 385, "pitch": 54, "duration": 11, "velocity": 85}, {"time": 391, "pitch": 62, "duration": 6, "velocity": 77}, {"time": 397, "pitch": 67, "duration": 21, "velocity": 70}, {"time": 397, "pitch": 71, "duration": 22, "velocity": 75}, {"time": 421, "pitch": 67, "duration": 22, "velocity": 69}, {"time": 421, "pitch": 72, "duration": 22, "velocity": 76}, {"time": 445, "pitch": 67, "duration": 35, "velocity": 69}, {"time": 445, "pitch": 71, "duration": 34, "velocity": 73}, {"time": 481, "pitch": 69, "duration": 11, "velocity": 81}, {"time": 493, "pitch": 67, "duration": 46, "velocity": 70}, {"time": 493, "pitch": 71, "duration": 23, "velocity": 74}, {"time": 517, "pitch": 72, "duration": 22, "velocity": 72}, {"time": 541, "pitch": 67, "duration": 28, "velocity": 70}, {"time": 541, "pitch": 71, "duration": 31, "velocity": 75}, {"time": 571, "pitch": 69, "duration": 6, "velocity": 75}, {"time": 577, "pitch": 71, "duration": 7, "velocity": 79}, {"time": 583, "pitch": 69, "duration": 6, "velocity": 80}, {"time": 589, "pitch": 67, "duration": 25, "velocity": 74}, {"time": 589, "pitch": 71, "duration": 24, "velocity": 76}, {"time": 625, "pitch": 67, "duration": 10, "velocity": 71}, {"time": 625, "pitch": 72, "duration": 11, "velocity": 77}, {"time": 637, "pitch": 67, "duration": 24, "velocity": 74}, {"time": 637, "pitch": 71, "duration": 24, "velocity": 77}, {"time": 661, "pitch": 69, "duration": 12, "velocity": 77}, {"time": 673, "pitch": 71, "duration": 10, "velocity": 79}, {"time": 685, "pitch": 67, "duration": 22, "velocity": 70}, {"time": 685, "pitch": 71, "duration": 21, "velocity": 74}, {"time": 709, "pitch": 67, "duration": 17, "velocity": 69}, {"time": 709, "pitch": 72, "duration": 19, "velocity": 74}, {"time": 727, "pitch": 71, "duration": 3, "velocity": 75}, {"time": 730, "pitch": 69, "duration": 4, "velocity": 71}, {"time": 733, "pitch": 71, "duration": 27, "velocity": 82}, {"time": 763, "pitch": 69, "duration": 7, "velocity": 74}, {"time": 769, "pitch": 71, "duration": 7, "velocity": 77}, {"time": 775, "pitch": 69, "duration": 5, "velocity": 78}, {"time": 781, "pitch": 67, "duration": 21, "velocity": 70}, {"time": 781, "pitch": 71, "duration": 22, "velocity": 75}, {"time": 805, "pitch": 67, "duration": 22, "velocity": 69}, {"time": 805, "pitch": 72, "duration": 22, "velocity": 76}, {"time": 829, "pitch": 67, "duration": 35, "velocity": 69}, {"time": 829, "pitch": 71, "duration": 34, "velocity": 73}, {"time": 865, "pitch": 69, "duration": 11, "velocity": 81}, {"time": 877, "pitch": 67, "duration": 46, "velocity": 70}, {"time": 877, "pitch": 71, "duration": 23, "velocity": 74}, {"time": 901, "pitch": 72, "duration": 22, "velocity": 72}, {"time": 925, "pitch": 67, "duration": 28, "velocity": 70}, {"time": 925, "pitch": 71, "duration": 31, "velocity": 75}, {"time": 955, "pitch": 69, "duration": 6, "velocity": 75}, {"time": 961, "pitch": 71, "duration": 7, "velocity": 79}, {"time": 967, "pitch": 69, "duration": 6, "velocity": 80}, {"time": 973, "pitch": 67, "duration": 25, "velocity": 74}, {"time": 973, "pitch": 71, "duration": 24, "velocity": 76}, {"time": 1009, "pitch": 67, "duration": 10, "velocity": 71}, {"time": 1009, "pitch": 72, "duration": 11, "velocity": 77}, {"time": 1021, "pitch": 67, "duration": 24, "velocity": 74}, {"time": 1021, "pitch": 71, "duration": 24, "velocity": 77}, {"time": 1045, "pitch": 69, "duration": 12, "velocity": 77}, {"time": 1057, "pitch": 71, "duration": 10, "velocity": 79}, {"time": 1069, "pitch": 67, "duration": 22, "velocity": 70}, {"time": 1069, "pitch": 71, "duration": 21, "velocity": 74}, {"time": 1093, "pitch": 67, "duration": 17, "velocity": 69}, {"time": 1093, "pitch": 72, "duration": 19, "velocity": 74}, {"time": 1111, "pitch": 69, "duration": 3, "velocity": 76}, {"time": 1114, "pitch": 71, "duration": 3, "velocity": 78}, {"time": 1117, "pitch": 69, "duration": 22, "velocity": 83}, {"time": 1135, "pitch": 62, "duration": 8, "velocity": 75}, {"time": 1141, "pitch": 66, "duration": 11, "velocity": 67}, {"time": 1141, "pitch": 69, "duration": 11, "velocity": 73}, {"time": 1153, "pitch": 66, "duration": 9, "velocity": 70}, {"time": 1153, "pitch": 69, "duration": 8, "velocity": 79}, {"time": 1159, "pitch": 62, "duration": 6, "velocity": 74}, {"time": 1165, "pitch": 74, "duration": 6, "velocity": 82}, {"time": 1171, "pitch": 67, "duration": 8, "velocity": 77}, {"time": 1177, "pitch": 74, "duration": 7, "velocity": 87}, {"time": 1183, "pitch": 67, "duration": 10, "velocity": 79}, {"time": 1195, "pitch": 67, "duration": 7, "velocity": 75}, {"time": 1201, "pitch": 74, "duration": 6, "velocity": 93}, {"time": 1207, "pitch": 67, "duration": 6, "velocity": 79}, {"time": 1213, "pitch": 74, "duration": 7, "velocity": 87}, {"time": 1219, "pitch": 67, "duration": 7, "velocity": 79}, {"time": 1225, "pitch": 74, "duration": 15, "velocity": 89}, {"time": 1231, "pitch": 67, "duration": 10, "velocity": 71}, {"time": 1243, "pitch": 67, "duration": 7, "velocity": 75}, {"time": 1249, "pitch": 74, "duration": 9, "velocity": 84}, {"time": 1255, "pitch": 67, "duration": 6, "velocity": 74}, {"time": 1261, "pitch": 74, "duration": 7, "velocity": 83}, {"time": 1267, "pitch": 67, "duration": 7, "velocity": 81}, {"time": 1273, "pitch": 74, "duration": 12, "velocity": 87}, {"time": 1279, "pitch": 67, "duration": 8, "velocity": 74}, {"time": 1291, "pitch": 67, "duration": 6, "velocity": 70}, {"time": 1297, "pitch": 74, "duration": 10, "velocity": 83}, {"time": 1315, "pitch": 67, "duration": 7, "velocity": 66}, {"time": 1321, "pitch": 74, "duration": 8, "velocity": 78}, {"time": 1327, "pitch": 67, "duration": 10, "velocity": 76}, {"time": 1339, "pitch": 67, "duration": 6, "velocity": 73}, {"time": 1345, "pitch": 69, "duration": 11, "velocity": 80}, {"time": 1357, "pitch": 75, "duration": 6, "velocity": 80}, {"time": 1363, "pitch": 71, "duration": 7, "velocity": 84}, {"time": 1369, "pitch": 75, "duration": 7, "velocity": 82}, {"time": 1375, "pitch": 71, "duration": 10, "velocity": 82}, {"time": 1387, "pitch": 71, "duration": 8, "velocity": 82}, {"time": 1393, "pitch": 75, "duration": 7, "velocity": 87}, {"time": 1399, "pitch": 71, "duration": 7, "velocity": 83}, {"time": 1405, "pitch": 76, "duration": 13, "velocity": 80}, {"time": 1411, "pitch": 71, "duration": 7, "velocity": 77}, {"time": 1417, "pitch": 79, "duration": 10, "velocity": 82}, {"time": 1429, "pitch": 79, "duration": 12, "velocity": 84}, {"time": 1435, "pitch": 71, "duration": 7, "velocity": 80}, {"time": 1441, "pitch": 74, "duration": 11, "velocity": 79}, {"time": 1447, "pitch": 71, "duration": 7, "velocity": 76}, {"time": 1453, "pitch": 72, "duration": 7, "velocity": 82}, {"time": 1459, "pitch": 67, "duration": 7, "velocity": 70}, {"time": 1465, "pitch": 72, "duration": 10, "velocity": 75}, {"time": 1471, "pitch": 67, "duration": 10, "velocity": 65}, {"time": 1477, "pitch": 72, "duration": 7, "velocity": 77}, {"time": 1483, "pitch": 67, "duration": 7, "velocity": 74}, {"time": 1489, "pitch": 74, "duration": 6, "velocity": 82}, {"time": 1495, "pitch": 72, "duration": 6, "velocity": 75}, {"time": 1501, "pitch": 74, "duration": 8, "velocity": 82}, {"time": 1507, "pitch": 69, "duration": 10, "velocity": 65}, {"time": 1513, "pitch": 74, "duration": 7, "velocity": 81}, {"time": 1519, "pitch": 69, "duration": 7, "velocity": 70}, {"time": 1525, "pitch": 74, "duration": 7, "velocity": 82}, {"time": 1531, "pitch": 69, "duration": 8, "velocity": 64}, {"time": 1537, "pitch": 74, "duration": 10, "velocity": 83}, {"time": 1543, "pitch": 69, "duration": 5, "velocity": 74}, {"time": 1549, "pitch": 74, "duration": 6, "velocity": 82}, {"time": 1555, "pitch": 67, "duration": 8, "velocity": 77}, {"time": 1561, "pitch": 74, "duration": 7, "velocity": 87}, {"time": 1567, "pitch": 67, "duration": 10, "velocity": 79}, {"time": 1579, "pitch": 67, "duration": 7, "velocity": 75}, {"time": 1585, "pitch": 74, "duration": 6, "velocity": 93}, {"time": 1591, "pitch": 67, "duration": 6, "velocity": 79}, {"time": 1597, "pitch": 74, "duration": 7, "velocity": 87}, {"time": 1603, "pitch": 67, "duration": 7, "velocity": 79}, {"time": 1609, "pitch": 74, "duration": 15, "velocity": 89}, {"time": 1615, "pitch": 67, "duration": 10, "velocity": 71}, {"time": 1627, "pitch": 67, "duration": 7, "velocity": 75}, {"time": 1633, "pitch": 74, "duration": 9, "velocity": 84}, {"time": 1639, "pitch": 67, "duration": 6, "velocity": 74}, {"time": 1645, "pitch": 74, "duration": 7, "velocity": 83}, {"time": 1651, "pitch": 67, "duration": 7, "velocity": 81}, {"time": 1657, "pitch": 74, "duration": 12, "velocity": 87}, {"time": 1663, "pitch": 67, "duration": 8, "velocity": 74}, {"time": 1675, "pitch": 67, "duration": 6, "velocity": 70}, {"time": 1681, "pitch": 74, "duration": 10, "velocity": 83}, {"time": 1699, "pitch": 67, "duration": 7, "velocity": 66}, {"time": 1705, "pitch": 74, "duration": 8, "velocity": 78}, {"time": 1711, "pitch": 67, "duration": 10, "velocity": 76}, {"time": 1723, "pitch": 67, "duration": 6, "velocity": 73}, {"time": 1729, "pitch": 69, "duration": 11, "velocity": 80}, {"time": 1741, "pitch": 75, "duration": 6, "velocity": 80}, {"time": 1747, "pitch": 71, "duration": 7, "velocity": 84}, {"time": 1753, "pitch": 75, "duration": 7, "velocity": 82}, {"time": 1759, "pitch": 71, "duration": 10, "velocity": 82}, {"time": 1771, "pitch": 71, "duration": 8, "velocity": 82}, {"time": 1777, "pitch": 75, "duration": 7, "velocity": 87}, {"time": 1783, "pitch": 71, "duration": 7, "velocity": 83}, {"time": 1789, "pitch": 76, "duration": 13, "velocity": 80}, {"time": 1795, "pitch": 71, "duration": 7, "velocity": 77}, {"time": 1801, "pitch": 79, "duration": 10, "velocity": 82}, {"time": 1813, "pitch": 79, "duration": 12, "velocity": 84}, {"time": 1819, "pitch": 71, "duration": 7, "velocity": 80}, {"time": 1825, "pitch": 74, "duration": 11, "velocity": 79}, {"time": 1831, "pitch": 71, "duration": 7, "velocity": 76}, {"time": 1837, "pitch": 72, "duration": 7, "velocity": 82}, {"time": 1843, "pitch": 67, "duration": 7, "velocity": 70}, {"time": 1849, "pitch": 72, "duration": 10, "velocity": 75}, {"time": 1855, "pitch": 67, "duration": 10, "velocity": 65}, {"time": 1861, "pitch": 72, "duration": 7, "velocity": 77}, {"time": 1867, "pitch": 67, "duration": 7, "velocity": 74}, {"time": 1873, "pitch": 74, "duration": 6, "velocity": 82}, {"time": 1879, "pitch": 72, "duration": 6, "velocity": 75}, {"time": 1885, "pitch": 74, "duration": 8, "velocity": 82}, {"time": 1891, "pitch": 69, "duration": 10, "velocity": 65}, {"time": 1897, "pitch": 74, "duration": 7, "velocity": 81}, {"time": 1903, "pitch": 69, "duration": 7, "velocity": 70}, {"time": 1909, "pitch": 74, "duration": 7, "velocity": 82}, {"time": 1915, "pitch": 69, "duration": 8, "velocity": 64}, {"time": 1921, "pitch": 74, "duration": 10, "velocity": 83}, {"time": 1927, "pitch": 69, "duration": 5, "velocity": 74}, {"time": 1933, "pitch": 74, "duration": 6, "velocity": 84}, {"time": 1939, "pitch": 67, "duration": 7, "velocity": 82}, {"time": 1945, "pitch": 74, "duration": 7, "velocity": 84}, {"time": 1951, "pitch": 67, "duration": 7, "velocity": 85}, {"time": 1957, "pitch": 74, "duration": 6, "velocity": 87}, {"time": 1963, "pitch": 67, "duration": 7, "velocity": 83}, {"time": 1969, "pitch": 74, "duration": 9, "velocity": 84}, {"time": 1975, "pitch": 67, "duration": 7, "velocity": 82}, {"time": 1981, "pitch": 74, "duration": 7, "velocity": 84}, {"time": 1987, "pitch": 67, "duration": 7, "velocity": 82}, {"time": 1993, "pitch": 74, "duration": 6, "velocity": 85}, {"time": 1999, "pitch": 67, "duration": 8, "velocity": 82}, {"time": 2005, "pitch": 74, "duration": 8, "velocity": 85}, {"time": 2011, "pitch": 67, "duration": 7, "velocity": 79}, {"time": 2017, "pitch": 74, "duration": 7, "velocity": 84}, {"time": 2023, "pitch": 67, "duration": 6, "velocity": 70}, {"time": 2029, "pitch": 74, "duration": 7, "velocity": 84}, {"time": 2035, "pitch": 67, "duration": 7, "velocity": 82}, {"time": 2041, "pitch": 74, "duration": 6, "velocity": 87}, {"time": 2047, "pitch": 67, "duration": 7, "velocity": 83}, {"time": 2053, "pitch": 74, "duration": 6, "velocity": 87}, {"time": 2059, "pitch": 72, "duration": 6, "velocity": 84}, {"time": 2065, "pitch": 71, "duration": 6, "velocity": 83}, {"time": 2071, "pitch": 67, "duration": 7, "velocity": 86}, {"time": 2077, "pitch": 74, "duration": 6, "velocity": 96}, {"time": 2083, "pitch": 67, "duration": 7, "velocity": 83}, {"time": 2089, "pitch": 74, "duration": 6, "velocity": 88}, {"time": 2095, "pitch": 67, "duration": 7, "velocity": 82}, {"time": 2101, "pitch": 74, "duration": 6, "velocity": 91}, {"time": 2107, "pitch": 72, "duration": 7, "velocity": 82}, {"time": 2113, "pitch": 71, "duration": 7, "velocity": 75}, {"time": 2119, "pitch": 69, "duration": 5, "velocity": 67}, {"time": 2125, "pitch": 67, "duration": 21, "velocity": 70}, {"time": 2125, "pitch": 71, "duration": 22, "velocity": 75}, {"time": 2149, "pitch": 67, "duration": 22, "velocity": 69}, {"time": 2149, "pitch": 72, "duration": 22, "velocity": 76}, {"time": 2173, "pitch": 67, "duration": 35, "velocity": 69}, {"time": 2173, "pitch": 71, "duration": 34, "velocity": 73}, {"time": 2209, "pitch": 69, "duration": 11, "velocity": 81}, {"time": 2221, "pitch": 67, "duration": 46, "velocity": 70}, {"time": 2221, "pitch": 71, "duration": 23, "velocity": 74}, {"time": 2245, "pitch": 72, "duration": 22, "velocity": 72}, {"time": 2269, "pitch": 67, "duration": 28, "velocity": 70}, {"time": 2269, "pitch": 71, "duration": 31, "velocity": 75}, {"time": 2299, "pitch": 69, "duration": 6, "velocity": 75}, {"time": 2305, "pitch": 71, "duration": 7, "velocity": 79}, {"time": 2311, "pitch": 69, "duration": 6, "velocity": 80}, {"time": 2317, "pitch": 67, "duration": 25, "velocity": 74}, {"time": 2317, "pitch": 71, "duration": 24, "velocity": 76}, {"time": 2353, "pitch": 67, "duration": 10, "velocity": 71}, {"time": 2353, "pitch": 72, "duration": 11, "velocity": 77}, {"time": 2365, "pitch": 67, "duration": 24, "velocity": 74}, {"time": 2365, "pitch": 71, "duration": 24, "velocity": 77}, {"time": 2389, "pitch": 69, "duration": 12, "velocity": 77}, {"time": 2401, "pitch": 71, "duration": 10, "velocity": 79}, {"time": 2413, "pitch": 67, "duration": 22, "velocity": 70}, {"time": 2413, "pitch": 71, "duration": 21, "velocity": 74}, {"time": 2437, "pitch": 67, "duration": 17, "velocity": 69}, {"time": 2437, "pitch": 72, "duration": 19, "velocity": 74}, {"time": 2455, "pitch": 69, "duration": 3, "velocity": 76}, {"time": 2458, "pitch": 71, "duration": 3, "velocity": 78}, {"time": 2461, "pitch": 69, "duration": 22, "velocity": 83}, {"time": 2479, "pitch": 62, "duration": 8, "velocity": 75}, {"time": 2485, "pitch": 66, "duration": 11, "velocity": 67}, {"time": 2485, "pitch": 69, "duration": 11, "velocity": 73}, {"time": 2497, "pitch": 66, "duration": 9, "velocity": 70}, {"time": 2497, "pitch": 69, "duration": 8, "velocity": 79}, {"time": 2503, "pitch": 62, "duration": 6, "velocity": 74}, {"time": 2509, "pitch": 74, "duration": 6, "velocity": 82}, {"time": 2515, "pitch": 67, "duration": 8, "velocity": 77}, {"time": 2521, "pitch": 74, "duration": 7, "velocity": 87}, {"time": 2527, "pitch": 67, "duration": 10, "velocity": 79}, {"time": 2539, "pitch": 67, "duration": 7, "velocity": 75}, {"time": 2545, "pitch": 74, "duration": 6, "velocity": 93}, {"time": 2551, "pitch": 67, "duration": 6, "velocity": 79}, {"time": 2557, "pitch": 74, "duration": 7, "velocity": 87}, {"time": 2563, "pitch": 67, "duration": 7, "velocity": 79}, {"time": 2569, "pitch": 74, "duration": 15, "velocity": 89}, {"time": 2575, "pitch": 67, "duration": 10, "velocity": 71}, {"time": 2587, "pitch": 67, "duration": 7, "velocity": 75}, {"time": 2593, "pitch": 74, "duration": 9, "velocity": 84}, {"time": 2599, "pitch": 67, "duration": 6, "velocity": 74}, {"time": 2605, "pitch": 74, "duration": 7, "velocity": 83}, {"time": 2611, "pitch": 67, "duration": 7, "velocity": 81}, {"time": 2617, "pitch": 74, "duration": 12, "velocity": 87}, {"time": 2623, "pitch": 67, "duration": 8, "velocity": 74}, {"time": 2635, "pitch": 67, "duration": 6, "velocity": 70}, {"time": 2641, "pitch": 74, "duration": 10, "velocity": 83}, {"time": 2659, "pitch": 67, "duration": 7, "velocity": 66}, {"time": 2665, "pitch": 74, "duration": 8, "velocity": 78}, {"time": 2671, "pitch": 67, "duration": 10, "velocity": 76}, {"time": 2683, "pitch": 67, "duration": 6, "velocity": 73}, {"time": 2689, "pitch": 69, "duration": 11, "velocity": 80}, {"time": 2701, "pitch": 75, "duration": 6, "velocity": 80}, {"time": 2707, "pitch": 71, "duration": 7, "velocity": 84}, {"time": 2713, "pitch": 75, "duration": 7, "velocity": 82}, {"time": 2719, "pitch": 71, "duration": 10, "velocity": 82}, {"time": 2731, "pitch": 71, "duration": 8, "velocity": 82}, {"time": 2737, "pitch": 75, "duration": 7, "velocity": 87}, {"time": 2743, "pitch": 71, "duration": 7, "velocity": 83}, {"time": 2749, "pitch": 76, "duration": 13, "velocity": 80}, {"time": 2755, "pitch": 71, "duration": 7, "velocity": 77}, {"time": 2761, "pitch": 79, "duration": 10, "velocity": 82}, {"time": 2773, "pitch": 79, "duration": 12, "velocity": 84}, {"time": 2779, "pitch": 71, "duration": 7, "velocity": 80}, {"time": 2785, "pitch": 74, "duration": 11, "velocity": 79}, {"time": 2791, "pitch": 71, "duration": 7, "velocity": 76}, {"time": 2797, "pitch": 72, "duration": 7, "velocity": 82}, {"time": 2803, "pitch": 67, "duration": 7, "velocity": 70}, {"time": 2809, "pitch": 72, "duration": 10, "velocity": 75}, {"time": 2815, "pitch": 67, "duration": 10, "velocity": 65}, {"time": 2821, "pitch": 72, "duration": 7, "velocity": 77}, {"time": 2827, "pitch": 67, "duration": 7, "velocity": 74}, {"time": 2833, "pitch": 74, "duration": 6, "velocity": 82}, {"time": 2839, "pitch": 72, "duration": 6, "velocity": 75}, {"time": 2845, "pitch": 74, "duration": 8, "velocity": 82}, {"time": 2851, "pitch": 69, "duration": 10, "velocity": 65}, {"time": 2857, "pitch": 74, "duration": 7, "velocity": 81}, {"time": 2863, "pitch": 69, "duration": 7, "velocity": 70}, {"time": 2869, "pitch": 74, "duration": 7, "velocity": 82}, {"time": 2875, "pitch": 69, "duration": 8, "velocity": 64}, {"time": 2881, "pitch": 74, "duration": 10, "velocity": 83}, {"time": 2887, "pitch": 69, "duration": 5, "velocity": 74}, {"time": 2893, "pitch": 74, "duration": 6, "velocity": 82}, {"time": 2899, "pitch": 67, "duration": 8, "velocity": 77}, {"time": 2905, "pitch": 74, "duration": 7, "velocity": 87}, {"time": 2911, "pitch": 67, "duration": 10, "velocity": 79}, {"time": 2923, "pitch": 67, "duration": 7, "velocity": 75}, {"time": 2929, "pitch": 74, "duration": 6, "velocity": 93}, {"time": 2935, "pitch": 67, "duration": 6, "velocity": 79}, {"time": 2941, "pitch": 74, "duration": 7, "velocity": 87}, {"time": 2947, "pitch": 67, "duration": 7, "velocity": 79}, {"time": 2953, "pitch": 74, "duration": 15, "velocity": 89}, {"time": 2959, "pitch": 67, "duration": 10, "velocity": 71}, {"time": 2971, "pitch": 67, "duration": 7, "velocity": 75}, {"time": 2977, "pitch": 74, "duration": 9, "velocity": 84}, {"time": 2983, "pitch": 67, "duration": 6, "velocity": 74}, {"time": 2989, "pitch": 74, "duration": 7, "velocity": 83}, {"time": 2995, "pitch": 67, "duration": 7, "velocity": 81}, {"time": 3001, "pitch": 74, "duration": 12, "velocity": 87}, {"time": 3007, "pitch": 67, "duration": 8, "velocity": 74}, {"time": 3019, "pitch": 67, "duration": 6, "velocity": 70}, {"time": 3025, "pitch": 74, "duration": 10, "velocity": 83}, {"time": 3043, "pitch": 67, "duration": 7, "velocity": 66}, {"time": 3049, "pitch": 74, "duration": 8, "velocity": 78}, {"time": 3055, "pitch": 67, "duration": 10, "velocity": 76}, {"time": 3067, "pitch": 67, "duration": 6, "velocity": 73}, {"time": 3073, "pitch": 69, "duration": 11, "velocity": 80}, {"time": 3085, "pitch": 75, "duration": 6, "velocity": 80}, {"time": 3091, "pitch": 71, "duration": 7, "velocity": 84}, {"time": 3097, "pitch": 75, "duration": 7, "velocity": 82}, {"time": 3103, "pitch": 71, "duration": 10, "velocity": 82}, {"time": 3115, "pitch": 71, "duration": 8, "velocity": 82}, {"time": 3121, "pitch": 75, "duration": 7, "velocity": 87}, {"time": 3127, "pitch": 71, "duration": 7, "velocity": 83}, {"time": 3133, "pitch": 76, "duration": 13, "velocity": 80}, {"time": 3139, "pitch": 71, "duration": 7, "velocity": 77}, {"time": 3145, "pitch": 79, "duration": 10, "velocity": 82}, {"time": 3157, "pitch": 79, "duration": 12, "velocity": 84}, {"time": 3163, "pitch": 71, "duration": 7, "velocity": 80}, {"time": 3169, "pitch": 74, "duration": 11, "velocity": 79}, {"time": 3175, "pitch": 71, "duration": 7, "velocity": 76}, {"time": 3181, "pitch": 72, "duration": 7, "velocity": 82}, {"time": 3187, "pitch": 67, "duration": 7, "velocity": 70}, {"time": 3193, "pitch": 72, "duration": 10, "velocity": 75}, {"time": 3199, "pitch": 67, "duration": 10, "velocity": 65}, {"time": 3205, "pitch": 72, "duration": 7, "velocity": 77}, {"time": 3211, "pitch": 67, "duration": 7, "velocity": 74}, {"time": 3217, "pitch": 74, "duration": 6, "velocity": 82}, {"time": 3223, "pitch": 72, "duration": 6, "velocity": 75}, {"time": 3229, "pitch": 74, "duration": 8, "velocity": 82}, {"time": 3235, "pitch": 69, "duration": 10, "velocity": 65}, {"time": 3241, "pitch": 74, "duration": 7, "velocity": 81}, {"time": 3247, "pitch": 69, "duration": 7, "velocity": 70}, {"time": 3253, "pitch": 74, "duration": 7, "velocity": 82}, {"time": 3259, "pitch": 69, "duration": 8, "velocity": 64}, {"time": 3265, "pitch": 74, "duration": 10, "velocity": 83}, {"time": 3271, "pitch": 69, "duration": 5, "velocity": 74}, {"time": 3277, "pitch": 74, "duration": 6, "velocity": 84}, {"time": 3283, "pitch": 67, "duration": 7, "velocity": 82}, {"time": 3289, "pitch": 74, "duration": 7, "velocity": 84}, {"time": 3295, "pitch": 67, "duration": 7, "velocity": 85}, {"time": 3301, "pitch": 74, "duration": 6, "velocity": 87}, {"time": 3307, "pitch": 67, "duration": 7, "velocity": 83}, {"time": 3313, "pitch": 74, "duration": 9, "velocity": 84}, {"time": 3319, "pitch": 67, "duration": 7, "velocity": 82}, {"time": 3325, "pitch": 74, "duration": 7, "velocity": 84}, {"time": 3331, "pitch": 67, "duration": 7, "velocity": 82}, {"time": 3337, "pitch": 74, "duration": 6, "velocity": 85}, {"time": 3343, "pitch": 67, "duration": 8, "velocity": 82}, {"time": 3349, "pitch": 74, "duration": 8, "velocity": 85}, {"time": 3355, "pitch": 67, "duration": 7, "velocity": 79}, {"time": 3361, "pitch": 74, "duration": 7, "velocity": 84}, {"time": 3367, "pitch": 67, "duration": 6, "velocity": 70}, {"time": 3373, "pitch": 74, "duration": 7, "velocity": 84}, {"time": 3379, "pitch": 67, "duration": 7, "velocity": 82}, {"time": 3385, "pitch": 74, "duration": 6, "velocity": 87}, {"time": 3391, "pitch": 67, "duration": 7, "velocity": 83}, {"time": 3397, "pitch": 74, "duration": 6, "velocity": 87}, {"time": 3403, "pitch": 72, "duration": 6, "velocity": 84}, {"time": 3409, "pitch": 71, "duration": 6, "velocity": 83}, {"time": 3415, "pitch": 67, "duration": 7, "velocity": 86}, {"time": 3421, "pitch": 74, "duration": 6, "velocity": 96}, {"time": 3427, "pitch": 67, "duration": 7, "velocity": 83}, {"time": 3433, "pitch": 74, "duration": 6, "velocity": 88}, {"time": 3439, "pitch": 67, "duration": 7, "velocity": 82}, {"time": 3445, "pitch": 74, "duration": 6, "velocity": 91}, {"time": 3451, "pitch": 72, "duration": 7, "velocity": 82}, {"time": 3457, "pitch": 71, "duration": 7, "velocity": 75}, {"time": 3463, "pitch": 69, "duration": 5, "velocity": 67}, {"time": 3469, "pitch": 74, "duration": 6, "velocity": 84}, {"time": 3475, "pitch": 67, "duration": 7, "velocity": 82}, {"time": 3481, "pitch": 74, "duration": 7, "velocity": 84}, {"time": 3487, "pitch": 67, "duration": 7, "velocity": 85}, {"time": 3493, "pitch": 74, "duration": 6, "velocity": 87}, {"time": 3499, "pitch": 67, "duration": 7, "velocity": 83}, {"time": 3505, "pitch": 74, "duration": 9, "velocity": 84}, {"time": 3511, "pitch": 67, "duration": 7, "velocity": 82}, {"time": 3517, "pitch": 74, "duration": 7, "velocity": 84}, {"time": 3523, "pitch": 67, "duration": 7, "velocity": 82}, {"time": 3529, "pitch": 74, "duration": 6, "velocity": 85}, {"time": 3535, "pitch": 67, "duration": 8, "velocity": 82}, {"time": 3541, "pitch": 74, "duration": 8, "velocity": 85}, {"time": 3547, "pitch": 67, "duration": 7, "velocity": 79}, {"time": 3553, "pitch": 74, "duration": 7, "velocity": 84}, {"time": 3559, "pitch": 67, "duration": 6, "velocity": 70}, {"time": 3565, "pitch": 74, "duration": 7, "velocity": 84}, {"time": 3571, "pitch": 67, "duration": 7, "velocity": 82}, {"time": 3577, "pitch": 74, "duration": 6, "velocity": 87}, {"time": 3583, "pitch": 67, "duration": 7, "velocity": 83}, {"time": 3589, "pitch": 74, "duration": 6, "velocity": 87}, {"time": 3595, "pitch": 72, "duration": 6, "velocity": 84}, {"time": 3601, "pitch": 71, "duration": 6, "velocity": 83}, {"time": 3607, "pitch": 67, "duration": 7, "velocity": 86}, {"time": 3613, "pitch": 74, "duration": 6, "velocity": 96}, {"time": 3619, "pitch": 67, "duration": 7, "velocity": 83}, {"time": 3625, "pitch": 74, "duration": 6, "velocity": 88}, {"time": 3631, "pitch": 67, "duration": 7, "velocity": 82}, {"time": 3637, "pitch": 74, "duration": 6, "velocity": 91}, {"time": 3643, "pitch": 72, "duration": 7, "velocity": 82}, {"time": 3649, "pitch": 71, "duration": 7, "velocity": 75}, {"time": 3655, "pitch": 69, "duration": 5, "velocity": 67}]}, {"program": 0, "is_drum": false, "name": "PIANO", "notes": [{"time": 13, "pitch": 64, "duration": 21, "velocity": 76}, {"time": 13, "pitch": 67, "duration": 21, "velocity": 72}, {"time": 37, "pitch": 60, "duration": 17, "velocity": 71}, {"time": 37, "pitch": 64, "duration": 22, "velocity": 72}, {"time": 61, "pitch": 62, "duration": 18, "velocity": 73}, {"time": 61, "pitch": 67, "duration": 18, "velocity": 70}, {"time": 85, "pitch": 55, "duration": 10, "velocity": 67}, {"time": 85, "pitch": 67, "duration": 9, "velocity": 67}, {"time": 85, "pitch": 71, "duration": 11, "velocity": 68}, {"time": 97, "pitch": 66, "duration": 9, "velocity": 67}, {"time": 97, "pitch": 69, "duration": 11, "velocity": 74}, {"time": 109, "pitch": 52, "duration": 21, "velocity": 76}, {"time": 109, "pitch": 64, "duration": 24, "velocity": 68}, {"time": 109, "pitch": 67, "duration": 22, "velocity": 71}, {"time": 133, "pitch": 48, "duration": 21, "velocity": 68}, {"time": 133, "pitch": 60, "duration": 17, "velocity": 66}, {"time": 133, "pitch": 67, "duration": 20, "velocity": 65}, {"time": 157, "pitch": 55, "duration": 19, "velocity": 67}, {"time": 157, "pitch": 62, "duration": 18, "velocity": 59}, {"time": 157, "pitch": 67, "duration": 18, "velocity": 64}, {"time": 181, "pitch": 55, "duration": 11, "velocity": 70}, {"time": 181, "pitch": 62, "duration": 10, "velocity": 65}, {"time": 181, "pitch": 67, "duration": 10, "velocity": 70}, {"time": 181, "pitch": 71, "duration": 10, "velocity": 66}, {"time": 193, "pitch": 54, "duration": 11, "velocity": 73}, {"time": 193, "pitch": 66, "duration": 11, "velocity": 66}, {"time": 193, "pitch": 69, "duration": 11, "velocity": 74}, {"time": 205, "pitch": 40, "duration": 20, "velocity": 83}, {"time": 208, "pitch": 47, "duration": 15, "velocity": 64}, {"time": 211, "pitch": 52, "duration": 9, "velocity": 78}, {"time": 214, "pitch": 59, "duration": 15, "velocity": 76}, {"time": 220, "pitch": 64, "duration": 11, "velocity": 82}, {"time": 229, "pitch": 48, "duration": 22, "velocity": 87}, {"time": 232, "pitch": 52, "duration": 20, "velocity": 72}, {"time": 235, "pitch": 55, "duration": 2, "velocity": 75}, {"time": 238, "pitch": 55, "duration": 3, "velocity": 55}, {"time": 238, "pitch": 60, "duration": 4, "velocity": 66}, {"time": 247, "pitch": 55, "duration": 1, "velocity": 66}, {"time": 247, "pitch": 60, "duration": 7, "velocity": 76}, {"time": 247, "pitch": 64, "duration": 7, "velocity": 82}, {"time": 250, "pitch": 55, "duration": 3, "velocity": 72}, {"time": 253, "pitch": 43, "duration": 22, "velocity": 81}, {"time": 256, "pitch": 50, "duration": 13, "velocity": 73}, {"time": 259, "pitch": 55, "duration": 2, "velocity": 74}, {"time": 262, "pitch": 59, "duration": 10, "velocity": 83}, {"time": 262, "pitch": 62, "duration": 12, "velocity": 83}, {"time": 271, "pitch": 50, "duration": 4, "velocity": 75}, {"time": 274, "pitch": 55, "duration": 7, "velocity": 82}, {"time": 277, "pitch": 43, "duration": 10, "velocity": 82}, {"time": 277, "pitch": 59, "duration": 8, "velocity": 82}, {"time": 277, "pitch": 62, "duration": 10, "velocity": 79}, {"time": 283, "pitch": 50, "duration": 5, "velocity": 59}, {"time": 286, "pitch": 55, "duration": 2, "velocity": 74}, {"time": 289, "pitch": 42, "duration": 8, "velocity": 76}, {"time": 289, "pitch": 54, "duration": 4, "velocity": 71}, {"time": 289, "pitch": 57, "duration": 7, "velocity": 73}, {"time": 292, "pitch": 50, "duration": 5, "velocity": 74}, {"time": 295, "pitch": 54, "duration": 4, "velocity": 69}, {"time": 298, "pitch": 57, "duration": 5, "velocity": 72}, {"time": 301, "pitch": 40, "duration": 21, "velocity": 85}, {"time": 304, "pitch": 47, "duration": 14, "velocity": 68}, {"time": 307, "pitch": 52, "duration": 4, "velocity": 61}, {"time": 310, "pitch": 55, "duration": 10, "velocity": 78}, {"time": 310, "pitch": 64, "duration": 16, "velocity": 74}, {"time": 319, "pitch": 47, "duration": 3, "velocity": 72}, {"time": 322, "pitch": 52, "duration": 4, "velocity": 72}, {"time": 325, "pitch": 36, "duration": 18, "velocity": 77}, {"time": 328, "pitch": 43, "duration": 11, "velocity": 70}, {"time": 331, "pitch": 48, "duration": 11, "velocity": 77}, {"time": 334, "pitch": 52, "duration": 14, "velocity": 82}, {"time": 334, "pitch": 55, "duration": 14, "velocity": 81}, {"time": 334, "pitch": 64, "duration": 17, "velocity": 80}, {"time": 343, "pitch": 43, "duration": 3, "velocity": 70}, {"time": 346, "pitch": 48, "duration": 3, "velocity": 77}, {"time": 349, "pitch": 43, "duration": 21, "velocity": 83}, {"time": 352, "pitch": 50, "duration": 11, "velocity": 71}, {"time": 355, "pitch": 55, "duration": 12, "velocity": 74}, {"time": 358, "pitch": 59, "duration": 10, "velocity": 83}, {"time": 358, "pitch": 62, "duration": 11, "velocity": 83}, {"time": 367, "pitch": 50, "duration": 4, "velocity": 70}, {"time": 370, "pitch": 55, "duration": 7, "velocity": 77}, {"time": 373, "pitch": 43, "duration": 8, "velocity": 83}, {"time": 373, "pitch": 59, "duration": 7, "velocity": 77}, {"time": 376, "pitch": 50, "duration": 9, "velocity": 73}, {"time": 379, "pitch": 55, "duration": 3, "velocity": 76}, {"time": 385, "pitch": 42, "duration": 11, "velocity": 78}, {"time": 385, "pitch": 54, "duration": 4, "velocity": 71}, {"time": 385, "pitch": 57, "duration": 7, "velocity": 71}, {"time": 388, "pitch": 50, "duration": 8, "velocity": 75}, {"time": 391, "pitch": 54, "duration": 5, "velocity": 72}, {"time": 394, "pitch": 57, "duration": 3, "velocity": 73}, {"time": 397, "pitch": 40, "duration": 16, "velocity": 82}, {"time": 397, "pitch": 52, "duration": 4, "velocity": 77}, {"time": 397, "pitch": 55, "duration": 5, "velocity": 77}, {"time": 409, "pitch": 59, "duration": 5, "velocity": 82}, {"time": 409, "pitch": 64, "duration": 5, "velocity": 88}, {"time": 418, "pitch": 60, "duration": 5, "velocity": 69}, {"time": 418, "pitch": 64, "duration": 6, "velocity": 84}, {"time": 421, "pitch": 48, "duration": 13, "velocity": 84}, {"time": 424, "pitch": 55, "duration": 9, "velocity": 67}, {"time": 427, "pitch": 60, "duration": 4, "velocity": 82}, {"time": 433, "pitch": 60, "duration": 2, "velocity": 82}, {"time": 433, "pitch": 64, "duration": 3, "velocity": 84}, {"time": 433, "pitch": 67, "duration": 4, "velocity": 82}, {"time": 445, "pitch": 43, "duration": 21, "velocity": 81}, {"time": 445, "pitch": 55, "duration": 7, "velocity": 75}, {"time": 445, "pitch": 59, "duration": 6, "velocity": 75}, {"time": 451, "pitch": 50, "duration": 8, "velocity": 54}, {"time": 457, "pitch": 55, "duration": 3, "velocity": 81}, {"time": 457, "pitch": 59, "duration": 3, "velocity": 84}, {"time": 457, "pitch": 62, "duration": 3, "velocity": 83}, {"time": 466, "pitch": 55, "duration": 5, "velocity": 83}, {"time": 466, "pitch": 59, "duration": 6, "velocity": 86}, {"time": 466, "pitch": 62, "duration": 6, "velocity": 84}, {"time": 469, "pitch": 43, "duration": 10, "velocity": 79}, {"time": 472, "pitch": 50, "duration": 7, "velocity": 70}, {"time": 475, "pitch": 55, "duration": 3, "velocity": 84}, {"time": 481, "pitch": 42, "duration": 12, "velocity": 81}, {"time": 481, "pitch": 50, "duration": 12, "velocity": 75}, {"time": 481, "pitch": 62, "duration": 12, "velocity": 74}, {"time": 487, "pitch": 54, "duration": 6, "velocity": 72}, {"time": 493, "pitch": 40, "duration": 16, "velocity": 82}, {"time": 493, "pitch": 52, "duration": 4, "velocity": 77}, {"time": 493, "pitch": 64, "duration": 9, "velocity": 77}, {"time": 505, "pitch": 59, "duration": 5, "velocity": 82}, {"time": 505, "pitch": 64, "duration": 5, "velocity": 88}, {"time": 514, "pitch": 60, "duration": 5, "velocity": 69}, {"time": 514, "pitch": 64, "duration": 6, "velocity": 84}, {"time": 517, "pitch": 48, "duration": 13, "velocity": 84}, {"time": 520, "pitch": 55, "duration": 9, "velocity": 67}, {"time": 523, "pitch": 60, "duration": 4, "velocity": 82}, {"time": 529, "pitch": 60, "duration": 2, "velocity": 82}, {"time": 529, "pitch": 64, "duration": 3, "velocity": 84}, {"time": 529, "pitch": 67, "duration": 4, "velocity": 82}, {"time": 541, "pitch": 43, "duration": 21, "velocity": 81}, {"time": 541, "pitch": 55, "duration": 7, "velocity": 75}, {"time": 541, "pitch": 59, "duration": 6, "velocity": 75}, {"time": 547, "pitch": 50, "duration": 8, "velocity": 54}, {"time": 553, "pitch": 55, "duration": 3, "velocity": 81}, {"time": 553, "pitch": 59, "duration": 3, "velocity": 84}, {"time": 553, "pitch": 62, "duration": 3, "velocity": 83}, {"time": 562, "pitch": 55, "duration": 5, "velocity": 83}, {"time": 562, "pitch": 59, "duration": 6, "velocity": 86}, {"time": 562, "pitch": 62, "duration": 6, "velocity": 84}, {"time": 565, "pitch": 43, "duration": 10, "velocity": 79}, {"time": 568, "pitch": 50, "duration": 7, "velocity": 70}, {"time": 571, "pitch": 55, "duration": 3, "velocity": 84}, {"time": 577, "pitch": 42, "duration": 12, "velocity": 81}, {"time": 577, "pitch": 50, "duration": 6, "velocity": 75}, {"time": 577, "pitch": 54, "duration": 3, "velocity": 74}, {"time": 580, "pitch": 57, "duration": 9, "velocity": 71}, {"time": 583, "pitch": 62, "duration": 6, "velocity": 72}, {"time": 589, "pitch": 40, "duration": 16, "velocity": 82}, {"time": 589, "pitch": 52, "duration": 4, "velocity": 77}, {"time": 589, "pitch": 55, "duration": 5, "velocity": 77}, {"time": 601, "pitch": 59, "duration": 5, "velocity": 82}, {"time": 601, "pitch": 64, "duration": 5, "velocity": 88}, {"time": 610, "pitch": 60, "duration": 5, "velocity": 69}, {"time": 610, "pitch": 64, "duration": 6, "velocity": 84}, {"time": 613, "pitch": 48, "duration": 13, "velocity": 84}, {"time": 616, "pitch": 55, "duration": 9, "velocity": 67}, {"time": 619, "pitch": 60, "duration": 4, "velocity": 82}, {"time": 625, "pitch": 60, "duration": 2, "velocity": 82}, {"time": 625, "pitch": 64, "duration": 3, "velocity": 84}, {"time": 625, "pitch": 67, "duration": 4, "velocity": 82}, {"time": 637, "pitch": 43, "duration": 21, "velocity": 81}, {"time": 637, "pitch": 55, "duration": 7, "velocity": 75}, {"time": 637, "pitch": 59, "duration": 6, "velocity": 75}, {"time": 643, "pitch": 50, "duration": 8, "velocity": 54}, {"time": 649, "pitch": 55, "duration": 3, "velocity": 81}, {"time": 649, "pitch": 59, "duration": 3, "velocity": 84}, {"time": 649, "pitch": 62, "duration": 3, "velocity": 83}, {"time": 658, "pitch": 55, "duration": 5, "velocity": 83}, {"time": 658, "pitch": 59, "duration": 6, "velocity": 86}, {"time": 658, "pitch": 62, "duration": 6, "velocity": 84}, {"time": 661, "pitch": 43, "duration": 10, "velocity": 79}, {"time": 664, "pitch": 50, "duration": 7, "velocity": 70}, {"time": 667, "pitch": 55, "duration": 3, "velocity": 84}, {"time": 673, "pitch": 42, "duration": 12, "velocity": 81}, {"time": 673, "pitch": 50, "duration": 12, "velocity": 75}, {"time": 673, "pitch": 57, "duration": 12, "velocity": 74}, {"time": 679, "pitch": 54, "duration": 6, "velocity": 72}, {"time": 685, "pitch": 40, "duration": 16, "velocity": 82}, {"time": 685, "pitch": 52, "duration": 4, "velocity": 77}, {"time": 685, "pitch": 64, "duration": 9, "velocity": 77}, {"time": 697, "pitch": 59, "duration": 5, "velocity": 82}, {"time": 697, "pitch": 64, "duration": 5, "velocity": 88}, {"time": 706, "pitch": 60, "duration": 5, "velocity": 69}, {"time": 706, "pitch": 64, "duration": 6, "velocity": 84}, {"time": 709, "pitch": 48, "duration": 13, "velocity": 84}, {"time": 712, "pitch": 55, "duration": 9, "velocity": 67}, {"time": 715, "pitch": 60, "duration": 4, "velocity": 82}, {"time": 721, "pitch": 60, "duration": 2, "velocity": 82}, {"time": 721, "pitch": 64, "duration": 3, "velocity": 84}, {"time": 721, "pitch": 67, "duration": 4, "velocity": 82}, {"time": 733, "pitch": 43, "duration": 21, "velocity": 81}, {"time": 733, "pitch": 55, "duration": 7, "velocity": 75}, {"time": 733, "pitch": 59, "duration": 6, "velocity": 75}, {"time": 739, "pitch": 50, "duration": 8, "velocity": 54}, {"time": 745, "pitch": 55, "duration": 3, "velocity": 81}, {"time": 745, "pitch": 59, "duration": 3, "velocity": 84}, {"time": 745, "pitch": 62, "duration": 3, "velocity": 83}, {"time": 754, "pitch": 55, "duration": 5, "velocity": 83}, {"time": 754, "pitch": 59, "duration": 6, "velocity": 86}, {"time": 754, "pitch": 62, "duration": 6, "velocity": 84}, {"time": 757, "pitch": 43, "duration": 10, "velocity": 79}, {"time": 760, "pitch": 50, "duration": 7, "velocity": 70}, {"time": 763, "pitch": 55, "duration": 3, "velocity": 84}, {"time": 769, "pitch": 42, "duration": 12, "velocity": 81}, {"time": 769, "pitch": 50, "duration": 6, "velocity": 75}, {"time": 769, "pitch": 54, "duration": 3, "velocity": 74}, {"time": 772, "pitch": 57, "duration": 9, "velocity": 71}, {"time": 775, "pitch": 62, "duration": 6, "velocity": 72}, {"time": 781, "pitch": 40, "duration": 17, "velocity": 78}, {"time": 781, "pitch": 64, "duration": 7, "velocity": 83}, {"time": 781, "pitch": 67, "duration": 7, "velocity": 82}, {"time": 784, "pitch": 47, "duration": 14, "velocity": 72}, {"time": 787, "pitch": 59, "duration": 4, "velocity": 83}, {"time": 790, "pitch": 64, "duration": 6, "velocity": 84}, {"time": 790, "pitch": 67, "duration": 5, "velocity": 84}, {"time": 799, "pitch": 64, "duration": 4, "velocity": 83}, {"time": 799, "pitch": 67, "duration": 4, "velocity": 78}, {"time": 802, "pitch": 59, "duration": 3, "velocity": 83}, {"time": 805, "pitch": 48, "duration": 19, "velocity": 84}, {"time": 805, "pitch": 64, "duration": 5, "velocity": 82}, {"time": 805, "pitch": 67, "duration": 5, "velocity": 83}, {"time": 808, "pitch": 55, "duration": 8, "velocity": 70}, {"time": 811, "pitch": 60, "duration": 2, "velocity": 82}, {"time": 814, "pitch": 60, "duration": 6, "velocity": 84}, {"time": 814, "pitch": 64, "duration": 1, "velocity": 83}, {"time": 814, "pitch": 67, "duration": 7, "velocity": 83}, {"time": 817, "pitch": 55, "duration": 6, "velocity": 53}, {"time": 823, "pitch": 64, "duration": 4, "velocity": 86}, {"time": 823, "pitch": 67, "duration": 4, "velocity": 82}, {"time": 826, "pitch": 60, "duration": 3, "velocity": 78}, {"time": 829, "pitch": 43, "duration": 22, "velocity": 83}, {"time": 829, "pitch": 67, "duration": 7, "velocity": 82}, {"time": 832, "pitch": 50, "duration": 19, "velocity": 73}, {"time": 835, "pitch": 59, "duration": 2, "velocity": 80}, {"time": 838, "pitch": 59, "duration": 4, "velocity": 82}, {"time": 838, "pitch": 62, "duration": 4, "velocity": 86}, {"time": 838, "pitch": 67, "duration": 6, "velocity": 83}, {"time": 847, "pitch": 62, "duration": 4, "velocity": 83}, {"time": 847, "pitch": 67, "duration": 4, "velocity": 82}, {"time": 850, "pitch": 59, "duration": 2, "velocity": 81}, {"time": 853, "pitch": 43, "duration": 7, "velocity": 83}, {"time": 853, "pitch": 62, "duration": 7, "velocity": 84}, {"time": 853, "pitch": 67, "duration": 7, "velocity": 82}, {"time": 856, "pitch": 50, "duration": 8, "velocity": 71}, {"time": 859, "pitch": 59, "duration": 2, "velocity": 84}, {"time": 865, "pitch": 42, "duration": 7, "velocity": 77}, {"time": 865, "pitch": 62, "duration": 2, "velocity": 83}, {"time": 865, "pitch": 66, "duration": 5, "velocity": 80}, {"time": 868, "pitch": 50, "duration": 5, "velocity": 69}, {"time": 871, "pitch": 62, "duration": 4, "velocity": 83}, {"time": 874, "pitch": 66, "duration": 2, "velocity": 88}, {"time": 877, "pitch": 40, "duration": 17, "velocity": 78}, {"time": 877, "pitch": 64, "duration": 7, "velocity": 83}, {"time": 877, "pitch": 67, "duration": 7, "velocity": 82}, {"time": 880, "pitch": 47, "duration": 14, "velocity": 72}, {"time": 883, "pitch": 59, "duration": 4, "velocity": 83}, {"time": 886, "pitch": 64, "duration": 6, "velocity": 84}, {"time": 886, "pitch": 67, "duration": 5, "velocity": 84}, {"time": 895, "pitch": 64, "duration": 4, "velocity": 83}, {"time": 895, "pitch": 67, "duration": 4, "velocity": 78}, {"time": 898, "pitch": 59, "duration": 3, "velocity": 83}, {"time": 901, "pitch": 48, "duration": 19, "velocity": 84}, {"time": 901, "pitch": 64, "duration": 5, "velocity": 82}, {"time": 901, "pitch": 67, "duration": 5, "velocity": 83}, {"time": 904, "pitch": 55, "duration": 8, "velocity": 70}, {"time": 907, "pitch": 60, "duration": 2, "velocity": 82}, {"time": 910, "pitch": 60, "duration": 6, "velocity": 84}, {"time": 910, "pitch": 64, "duration": 1, "velocity": 83}, {"time": 910, "pitch": 67, "duration": 7, "velocity": 83}, {"time": 913, "pitch": 55, "duration": 6, "velocity": 53}, {"time": 919, "pitch": 64, "duration": 4, "velocity": 86}, {"time": 919, "pitch": 67, "duration": 4, "velocity": 82}, {"time": 922, "pitch": 60, "duration": 3, "velocity": 78}, {"time": 925, "pitch": 43, "duration": 22, "velocity": 83}, {"time": 925, "pitch": 67, "duration": 7, "velocity": 82}, {"time": 928, "pitch": 50, "duration": 19, "velocity": 73}, {"time": 931, "pitch": 59, "duration": 2, "velocity": 80}, {"time": 934, "pitch": 59, "duration": 4, "velocity": 82}, {"time": 934, "pitch": 62, "duration": 4, "velocity": 86}, {"time": 934, "pitch": 67, "duration": 6, "velocity": 83}, {"time": 943, "pitch": 62, "duration": 4, "velocity": 83}, {"time": 943, "pitch": 67, "duration": 4, "velocity": 82}, {"time": 946, "pitch": 59, "duration": 2, "velocity": 81}, {"time": 949, "pitch": 43, "duration": 7, "velocity": 83}, {"time": 949, "pitch": 62, "duration": 7, "velocity": 84}, {"time": 949, "pitch": 67, "duration": 7, "velocity": 82}, {"time": 952, "pitch": 50, "duration": 8, "velocity": 71}, {"time": 955, "pitch": 59, "duration": 2, "velocity": 84}, {"time": 961, "pitch": 42, "duration": 7, "velocity": 77}, {"time": 961, "pitch": 62, "duration": 2, "velocity": 83}, {"time": 961, "pitch": 66, "duration": 5, "velocity": 80}, {"time": 964, "pitch": 50, "duration": 5, "velocity": 69}, {"time": 967, "pitch": 62, "duration": 4, "velocity": 83}, {"time": 970, "pitch": 66, "duration": 2, "velocity": 88}, {"time": 973, "pitch": 40, "duration": 17, "velocity": 78}, {"time": 973, "pitch": 64, "duration": 7, "velocity": 83}, {"time": 973, "pitch": 67, "duration": 7, "velocity": 82}, {"time": 976, "pitch": 47, "duration": 14, "velocity": 72}, {"time": 979, "pitch": 59, "duration": 4, "velocity": 83}, {"time": 982, "pitch": 64, "duration": 6, "velocity": 84}, {"time": 982, "pitch": 67, "duration": 5, "velocity": 84}, {"time": 991, "pitch": 64, "duration": 4, "velocity": 83}, {"time": 991, "pitch": 67, "duration": 4, "velocity": 78}, {"time": 994, "pitch": 59, "duration": 3, "velocity": 83}, {"time": 997, "pitch": 48, "duration": 19, "velocity": 84}, {"time": 997, "pitch": 64, "duration": 5, "velocity": 82}, {"time": 997, "pitch": 67, "duration": 5, "velocity": 83}, {"time": 1000, "pitch": 55, "duration": 8, "velocity": 70}, {"time": 1003, "pitch": 60, "duration": 2, "velocity": 82}, {"time": 1006, "pitch": 60, "duration": 6, "velocity": 84}, {"time": 1006, "pitch": 64, "duration": 1, "velocity": 83}, {"time": 1006, "pitch": 67, "duration": 7, "velocity": 83}, {"time": 1009, "pitch": 55, "duration": 6, "velocity": 53}, {"time": 1015, "pitch": 64, "duration": 4, "velocity": 86}, {"time": 1015, "pitch": 67, "duration": 4, "velocity": 82}, {"time": 1018, "pitch": 60, "duration": 3, "velocity": 78}, {"time": 1021, "pitch": 43, "duration": 22, "velocity": 83}, {"time": 1021, "pitch": 67, "duration": 7, "velocity": 82}, {"time": 1024, "pitch": 50, "duration": 19, "velocity": 73}, {"time": 1027, "pitch": 59, "duration": 2, "velocity": 80}, {"time": 1030, "pitch": 59, "duration": 4, "velocity": 82}, {"time": 1030, "pitch": 62, "duration": 4, "velocity": 86}, {"time": 1030, "pitch": 67, "duration": 6, "velocity": 83}, {"time": 1039, "pitch": 62, "duration": 4, "velocity": 83}, {"time": 1039, "pitch": 67, "duration": 4, "velocity": 82}, {"time": 1042, "pitch": 59, "duration": 2, "velocity": 81}, {"time": 1045, "pitch": 43, "duration": 7, "velocity": 83}, {"time": 1045, "pitch": 62, "duration": 7, "velocity": 84}, {"time": 1045, "pitch": 67, "duration": 7, "velocity": 82}, {"time": 1048, "pitch": 50, "duration": 8, "velocity": 71}, {"time": 1051, "pitch": 59, "duration": 2, "velocity": 84}, {"time": 1057, "pitch": 42, "duration": 7, "velocity": 77}, {"time": 1057, "pitch": 62, "duration": 2, "velocity": 83}, {"time": 1057, "pitch": 66, "duration": 5, "velocity": 80}, {"time": 1060, "pitch": 50, "duration": 5, "velocity": 69}, {"time": 1063, "pitch": 62, "duration": 4, "velocity": 83}, {"time": 1066, "pitch": 66, "duration": 2, "velocity": 88}, {"time": 1069, "pitch": 40, "duration": 17, "velocity": 78}, {"time": 1069, "pitch": 64, "duration": 7, "velocity": 83}, {"time": 1069, "pitch": 67, "duration": 7, "velocity": 82}, {"time": 1072, "pitch": 47, "duration": 14, "velocity": 72}, {"time": 1075, "pitch": 59, "duration": 4, "velocity": 83}, {"time": 1078, "pitch": 64, "duration": 6, "velocity": 84}, {"time": 1078, "pitch": 67, "duration": 5, "velocity": 84}, {"time": 1087, "pitch": 64, "duration": 4, "velocity": 83}, {"time": 1087, "pitch": 67, "duration": 4, "velocity": 78}, {"time": 1090, "pitch": 59, "duration": 3, "velocity": 83}, {"time": 1093, "pitch": 48, "duration": 19, "velocity": 84}, {"time": 1093, "pitch": 64, "duration": 5, "velocity": 82}, {"time": 1093, "pitch": 67, "duration": 5, "velocity": 83}, {"time": 1096, "pitch": 55, "duration": 8, "velocity": 70}, {"time": 1099, "pitch": 60, "duration": 2, "velocity": 82}, {"time": 1102, "pitch": 60, "duration": 6, "velocity": 84}, {"time": 1102, "pitch": 64, "duration": 1, "velocity": 83}, {"time": 1102, "pitch": 67, "duration": 7, "velocity": 83}, {"time": 1105, "pitch": 55, "duration": 6, "velocity": 53}, {"time": 1111, "pitch": 64, "duration": 4, "velocity": 86}, {"time": 1111, "pitch": 67, "duration": 4, "velocity": 82}, {"time": 1114, "pitch": 60, "duration": 3, "velocity": 78}, {"time": 1117, "pitch": 38, "duration": 22, "velocity": 88}, {"time": 1117, "pitch": 57, "duration": 4, "velocity": 78}, {"time": 1117, "pitch": 66, "duration": 5, "velocity": 79}, {"time": 1120, "pitch": 45, "duration": 20, "velocity": 73}, {"time": 1123, "pitch": 57, "duration": 2, "velocity": 81}, {"time": 1126, "pitch": 57, "duration": 6, "velocity": 84}, {"time": 1126, "pitch": 66, "duration": 7, "velocity": 84}, {"time": 1135, "pitch": 57, "duration": 1, "velocity": 83}, {"time": 1135, "pitch": 66, "duration": 2, "velocity": 84}, {"time": 1138, "pitch": 57, "duration": 5, "velocity": 83}, {"time": 1138, "pitch": 66, "duration": 7, "velocity": 69}, {"time": 1141, "pitch": 38, "duration": 26, "velocity": 84}, {"time": 1144, "pitch": 45, "duration": 14, "velocity": 76}, {"time": 1147, "pitch": 57, "duration": 2, "velocity": 83}, {"time": 1150, "pitch": 57, "duration": 3, "velocity": 82}, {"time": 1150, "pitch": 62, "duration": 3, "velocity": 85}, {"time": 1156, "pitch": 57, "duration": 4, "velocity": 84}, {"time": 1156, "pitch": 66, "duration": 10, "velocity": 84}, {"time": 1159, "pitch": 45, "duration": 7, "velocity": 78}, {"time": 1162, "pitch": 57, "duration": 3, "velocity": 82}, {"time": 1165, "pitch": 43, "duration": 22, "velocity": 83}, {"time": 1165, "pitch": 55, "duration": 4, "velocity": 77}, {"time": 1165, "pitch": 62, "duration": 4, "velocity": 83}, {"time": 1168, "pitch": 50, "duration": 19, "velocity": 72}, {"time": 1171, "pitch": 55, "duration": 2, "velocity": 81}, {"time": 1174, "pitch": 55, "duration": 6, "velocity": 84}, {"time": 1174, "pitch": 62, "duration": 6, "velocity": 86}, {"time": 1183, "pitch": 62, "duration": 13, "velocity": 83}, {"time": 1183, "pitch": 67, "duration": 10, "velocity": 76}, {"time": 1186, "pitch": 55, "duration": 6, "velocity": 87}, {"time": 1189, "pitch": 43, "duration": 17, "velocity": 82}, {"time": 1192, "pitch": 50, "duration": 8, "velocity": 73}, {"time": 1195, "pitch": 55, "duration": 1, "velocity": 83}, {"time": 1198, "pitch": 55, "duration": 4, "velocity": 84}, {"time": 1198, "pitch": 62, "duration": 13, "velocity": 84}, {"time": 1204, "pitch": 50, "duration": 8, "velocity": 79}, {"time": 1207, "pitch": 42, "duration": 5, "velocity": 85}, {"time": 1210, "pitch": 55, "duration": 4, "velocity": 89}, {"time": 1213, "pitch": 40, "duration": 22, "velocity": 91}, {"time": 1216, "pitch": 47, "duration": 19, "velocity": 73}, {"time": 1219, "pitch": 52, "duration": 6, "velocity": 83}, {"time": 1222, "pitch": 55, "duration": 7, "velocity": 84}, {"time": 1222, "pitch": 59, "duration": 7, "velocity": 83}, {"time": 1222, "pitch": 64, "duration": 6, "velocity": 83}, {"time": 1231, "pitch": 55, "duration": 9, "velocity": 83}, {"time": 1231, "pitch": 59, "duration": 8, "velocity": 83}, {"time": 1231, "pitch": 64, "duration": 4, "velocity": 84}, {"time": 1234, "pitch": 52, "duration": 5, "velocity": 83}, {"time": 1237, "pitch": 40, "duration": 18, "velocity": 84}, {"time": 1240, "pitch": 47, "duration": 15, "velocity": 73}, {"time": 1243, "pitch": 52, "duration": 1, "velocity": 69}, {"time": 1246, "pitch": 52, "duration": 2, "velocity": 78}, {"time": 1246, "pitch": 55, "duration": 7, "velocity": 82}, {"time": 1246, "pitch": 62, "duration": 7, "velocity": 83}, {"time": 1255, "pitch": 62, "duration": 5, "velocity": 86}, {"time": 1261, "pitch": 48, "duration": 17, "velocity": 88}, {"time": 1261, "pitch": 55, "duration": 4, "velocity": 76}, {"time": 1261, "pitch": 60, "duration": 7, "velocity": 77}, {"time": 1264, "pitch": 52, "duration": 14, "velocity": 75}, {"time": 1267, "pitch": 55, "duration": 2, "velocity": 78}, {"time": 1270, "pitch": 55, "duration": 1, "velocity": 71}, {"time": 1270, "pitch": 60, "duration": 7, "velocity": 85}, {"time": 1273, "pitch": 64, "duration": 3, "velocity": 84}, {"time": 1279, "pitch": 60, "duration": 4, "velocity": 85}, {"time": 1279, "pitch": 64, "duration": 5, "velocity": 83}, {"time": 1282, "pitch": 55, "duration": 1, "velocity": 75}, {"time": 1285, "pitch": 38, "duration": 17, "velocity": 85}, {"time": 1285, "pitch": 57, "duration": 3, "velocity": 74}, {"time": 1285, "pitch": 62, "duration": 5, "velocity": 82}, {"time": 1288, "pitch": 45, "duration": 13, "velocity": 69}, {"time": 1291, "pitch": 57, "duration": 2, "velocity": 80}, {"time": 1294, "pitch": 57, "duration": 5, "velocity": 79}, {"time": 1294, "pitch": 62, "duration": 6, "velocity": 82}, {"time": 1303, "pitch": 62, "duration": 4, "velocity": 83}, {"time": 1303, "pitch": 66, "duration": 4, "velocity": 84}, {"time": 1306, "pitch": 57, "duration": 1, "velocity": 75}, {"time": 1309, "pitch": 43, "duration": 23, "velocity": 83}, {"time": 1309, "pitch": 55, "duration": 4, "velocity": 82}, {"time": 1309, "pitch": 59, "duration": 5, "velocity": 81}, {"time": 1312, "pitch": 50, "duration": 20, "velocity": 72}, {"time": 1315, "pitch": 55, "duration": 1, "velocity": 70}, {"time": 1318, "pitch": 55, "duration": 4, "velocity": 83}, {"time": 1318, "pitch": 62, "duration": 4, "velocity": 83}, {"time": 1324, "pitch": 55, "duration": 3, "velocity": 83}, {"time": 1324, "pitch": 59, "duration": 4, "velocity": 85}, {"time": 1330, "pitch": 55, "duration": 1, "velocity": 69}, {"time": 1333, "pitch": 43, "duration": 16, "velocity": 83}, {"time": 1333, "pitch": 55, "duration": 3, "velocity": 82}, {"time": 1333, "pitch": 62, "duration": 4, "velocity": 81}, {"time": 1336, "pitch": 50, "duration": 11, "velocity": 73}, {"time": 1339, "pitch": 55, "duration": 2, "velocity": 74}, {"time": 1342, "pitch": 55, "duration": 4, "velocity": 83}, {"time": 1342, "pitch": 59, "duration": 5, "velocity": 89}, {"time": 1348, "pitch": 50, "duration": 2, "velocity": 82}, {"time": 1351, "pitch": 55, "duration": 2, "velocity": 93}, {"time": 1357, "pitch": 47, "duration": 21, "velocity": 84}, {"time": 1357, "pitch": 59, "duration": 3, "velocity": 84}, {"time": 1357, "pitch": 63, "duration": 4, "velocity": 82}, {"time": 1363, "pitch": 59, "duration": 1, "velocity": 82}, {"time": 1366, "pitch": 59, "duration": 8, "velocity": 83}, {"time": 1366, "pitch": 63, "duration": 9, "velocity": 85}, {"time": 1366, "pitch": 66, "duration": 10, "velocity": 79}, {"time": 1375, "pitch": 54, "duration": 5, "velocity": 76}, {"time": 1378, "pitch": 59, "duration": 6, "velocity": 93}, {"time": 1381, "pitch": 47, "duration": 18, "velocity": 87}, {"time": 1381, "pitch": 63, "duration": 4, "velocity": 87}, {"time": 1381, "pitch": 66, "duration": 7, "velocity": 83}, {"time": 1384, "pitch": 54, "duration": 8, "velocity": 71}, {"time": 1387, "pitch": 59, "duration": 2, "velocity": 82}, {"time": 1390, "pitch": 59, "duration": 4, "velocity": 79}, {"time": 1390, "pitch": 63, "duration": 7, "velocity": 76}, {"time": 1390, "pitch": 66, "duration": 8, "velocity": 74}, {"time": 1390, "pitch": 71, "duration": 5, "velocity": 82}, {"time": 1393, "pitch": 54, "duration": 4, "velocity": 65}, {"time": 1396, "pitch": 59, "duration": 3, "velocity": 82}, {"time": 1399, "pitch": 63, "duration": 4, "velocity": 74}, {"time": 1399, "pitch": 69, "duration": 7, "velocity": 83}, {"time": 1402, "pitch": 59, "duration": 2, "velocity": 79}, {"time": 1405, "pitch": 40, "duration": 20, "velocity": 84}, {"time": 1405, "pitch": 67, "duration": 5, "velocity": 75}, {"time": 1408, "pitch": 47, "duration": 12, "velocity": 77}, {"time": 1411, "pitch": 64, "duration": 1, "velocity": 78}, {"time": 1414, "pitch": 64, "duration": 9, "velocity": 85}, {"time": 1414, "pitch": 67, "duration": 11, "velocity": 83}, {"time": 1423, "pitch": 47, "duration": 6, "velocity": 85}, {"time": 1426, "pitch": 64, "duration": 2, "velocity": 82}, {"time": 1429, "pitch": 38, "duration": 20, "velocity": 87}, {"time": 1429, "pitch": 62, "duration": 4, "velocity": 76}, {"time": 1429, "pitch": 67, "duration": 7, "velocity": 82}, {"time": 1432, "pitch": 45, "duration": 13, "velocity": 77}, {"time": 1435, "pitch": 62, "duration": 2, "velocity": 87}, {"time": 1438, "pitch": 62, "duration": 9, "velocity": 88}, {"time": 1438, "pitch": 67, "duration": 11, "velocity": 83}, {"time": 1447, "pitch": 45, "duration": 3, "velocity": 80}, {"time": 1450, "pitch": 62, "duration": 4, "velocity": 84}, {"time": 1450, "pitch": 67, "duration": 1, "velocity": 49}, {"time": 1453, "pitch": 36, "duration": 25, "velocity": 70}, {"time": 1453, "pitch": 48, "duration": 23, "velocity": 87}, {"time": 1456, "pitch": 55, "duration": 20, "velocity": 72}, {"time": 1459, "pitch": 60, "duration": 4, "velocity": 74}, {"time": 1462, "pitch": 62, "duration": 7, "velocity": 85}, {"time": 1468, "pitch": 64, "duration": 5, "velocity": 83}, {"time": 1474, "pitch": 67, "duration": 10, "velocity": 75}, {"time": 1477, "pitch": 48, "duration": 21, "velocity": 83}, {"time": 1480, "pitch": 55, "duration": 7, "velocity": 74}, {"time": 1483, "pitch": 60, "duration": 2, "velocity": 79}, {"time": 1486, "pitch": 60, "duration": 5, "velocity": 86}, {"time": 1486, "pitch": 67, "duration": 8, "velocity": 84}, {"time": 1489, "pitch": 55, "duration": 10, "velocity": 80}, {"time": 1495, "pitch": 36, "duration": 6, "velocity": 75}, {"time": 1495, "pitch": 60, "duration": 2, "velocity": 82}, {"time": 1495, "pitch": 64, "duration": 6, "velocity": 84}, {"time": 1498, "pitch": 60, "duration": 2, "velocity": 76}, {"time": 1501, "pitch": 38, "duration": 16, "velocity": 86}, {"time": 1501, "pitch": 57, "duration": 6, "velocity": 82}, {"time": 1501, "pitch": 62, "duration": 8, "velocity": 83}, {"time": 1507, "pitch": 45, "duration": 10, "velocity": 77}, {"time": 1510, "pitch": 57, "duration": 5, "velocity": 87}, {"time": 1516, "pitch": 62, "duration": 5, "velocity": 86}, {"time": 1516, "pitch": 66, "duration": 5, "velocity": 93}, {"time": 1519, "pitch": 57, "duration": 1, "velocity": 49}, {"time": 1522, "pitch": 57, "duration": 4, "velocity": 83}, {"time": 1525, "pitch": 50, "duration": 23, "velocity": 83}, {"time": 1525, "pitch": 62, "duration": 3, "velocity": 85}, {"time": 1525, "pitch": 66, "duration": 4, "velocity": 82}, {"time": 1528, "pitch": 57, "duration": 8, "velocity": 76}, {"time": 1531, "pitch": 62, "duration": 1, "velocity": 91}, {"time": 1534, "pitch": 62, "duration": 4, "velocity": 86}, {"time": 1534, "pitch": 66, "duration": 4, "velocity": 84}, {"time": 1534, "pitch": 69, "duration": 4, "velocity": 86}, {"time": 1537, "pitch": 57, "duration": 4, "velocity": 79}, {"time": 1540, "pitch": 62, "duration": 3, "velocity": 84}, {"time": 1540, "pitch": 66, "duration": 8, "velocity": 83}, {"time": 1540, "pitch": 69, "duration": 8, "velocity": 83}, {"time": 1540, "pitch": 74, "duration": 9, "velocity": 84}, {"time": 1543, "pitch": 57, "duration": 6, "velocity": 75}, {"time": 1546, "pitch": 62, "duration": 3, "velocity": 81}, {"time": 1549, "pitch": 43, "duration": 22, "velocity": 83}, {"time": 1549, "pitch": 55, "duration": 4, "velocity": 77}, {"time": 1549, "pitch": 62, "duration": 4, "velocity": 83}, {"time": 1552, "pitch": 50, "duration": 19, "velocity": 72}, {"time": 1555, "pitch": 55, "duration": 2, "velocity": 81}, {"time": 1558, "pitch": 55, "duration": 6, "velocity": 84}, {"time": 1558, "pitch": 62, "duration": 6, "velocity": 86}, {"time": 1567, "pitch": 62, "duration": 13, "velocity": 83}, {"time": 1567, "pitch": 67, "duration": 10, "velocity": 76}, {"time": 1570, "pitch": 55, "duration": 6, "velocity": 87}, {"time": 1573, "pitch": 43, "duration": 17, "velocity": 82}, {"time": 1576, "pitch": 50, "duration": 8, "velocity": 73}, {"time": 1579, "pitch": 55, "duration": 1, "velocity": 83}, {"time": 1582, "pitch": 55, "duration": 4, "velocity": 84}, {"time": 1582, "pitch": 62, "duration": 13, "velocity": 84}, {"time": 1588, "pitch": 50, "duration": 8, "velocity": 79}, {"time": 1591, "pitch": 42, "duration": 5, "velocity": 85}, {"time": 1594, "pitch": 55, "duration": 4, "velocity": 89}, {"time": 1597, "pitch": 40, "duration": 22, "velocity": 91}, {"time": 1600, "pitch": 47, "duration": 19, "velocity": 73}, {"time": 1603, "pitch": 52, "duration": 6, "velocity": 83}, {"time": 1606, "pitch": 55, "duration": 7, "velocity": 84}, {"time": 1606, "pitch": 59, "duration": 7, "velocity": 83}, {"time": 1606, "pitch": 64, "duration": 6, "velocity": 83}, {"time": 1615, "pitch": 55, "duration": 9, "velocity": 83}, {"time": 1615, "pitch": 59, "duration": 8, "velocity": 83}, {"time": 1615, "pitch": 64, "duration": 4, "velocity": 84}, {"time": 1618, "pitch": 52, "duration": 5, "velocity": 83}, {"time": 1621, "pitch": 40, "duration": 18, "velocity": 84}, {"time": 1624, "pitch": 47, "duration": 15, "velocity": 73}, {"time": 1627, "pitch": 52, "duration": 1, "velocity": 69}, {"time": 1630, "pitch": 52, "duration": 2, "velocity": 78}, {"time": 1630, "pitch": 55, "duration": 7, "velocity": 82}, {"time": 1630, "pitch": 62, "duration": 7, "velocity": 83}, {"time": 1639, "pitch": 62, "duration": 5, "velocity": 86}, {"time": 1645, "pitch": 48, "duration": 17, "velocity": 88}, {"time": 1645, "pitch": 55, "duration": 4, "velocity": 76}, {"time": 1645, "pitch": 60, "duration": 7, "velocity": 77}, {"time": 1648, "pitch": 52, "duration": 14, "velocity": 75}, {"time": 1651, "pitch": 55, "duration": 2, "velocity": 78}, {"time": 1654, "pitch": 55, "duration": 1, "velocity": 71}, {"time": 1654, "pitch": 60, "duration": 7, "velocity": 85}, {"time": 1654, "pitch": 64, "duration": 7, "velocity": 84}, {"time": 1663, "pitch": 60, "duration": 4, "velocity": 85}, {"time": 1663, "pitch": 64, "duration": 5, "velocity": 83}, {"time": 1666, "pitch": 55, "duration": 1, "velocity": 75}, {"time": 1669, "pitch": 38, "duration": 17, "velocity": 85}, {"time": 1669, "pitch": 57, "duration": 3, "velocity": 74}, {"time": 1669, "pitch": 62, "duration": 5, "velocity": 82}, {"time": 1672, "pitch": 45, "duration": 13, "velocity": 69}, {"time": 1675, "pitch": 57, "duration": 2, "velocity": 80}, {"time": 1678, "pitch": 57, "duration": 5, "velocity": 79}, {"time": 1678, "pitch": 62, "duration": 6, "velocity": 82}, {"time": 1687, "pitch": 62, "duration": 4, "velocity": 83}, {"time": 1687, "pitch": 66, "duration": 4, "velocity": 84}, {"time": 1690, "pitch": 57, "duration": 1, "velocity": 75}, {"time": 1693, "pitch": 43, "duration": 23, "velocity": 83}, {"time": 1693, "pitch": 55, "duration": 4, "velocity": 82}, {"time": 1693, "pitch": 59, "duration": 5, "velocity": 81}, {"time": 1696, "pitch": 50, "duration": 20, "velocity": 72}, {"time": 1699, "pitch": 55, "duration": 1, "velocity": 70}, {"time": 1702, "pitch": 55, "duration": 4, "velocity": 83}, {"time": 1702, "pitch": 62, "duration": 4, "velocity": 83}, {"time": 1708, "pitch": 55, "duration": 3, "velocity": 83}, {"time": 1708, "pitch": 59, "duration": 4, "velocity": 85}, {"time": 1714, "pitch": 55, "duration": 1, "velocity": 69}, {"time": 1717, "pitch": 43, "duration": 16, "velocity": 83}, {"time": 1717, "pitch": 55, "duration": 3, "velocity": 82}, {"time": 1717, "pitch": 62, "duration": 4, "velocity": 81}, {"time": 1720, "pitch": 50, "duration": 11, "velocity": 73}, {"time": 1723, "pitch": 55, "duration": 2, "velocity": 74}, {"time": 1726, "pitch": 55, "duration": 4, "velocity": 83}, {"time": 1726, "pitch": 59, "duration": 5, "velocity": 89}, {"time": 1732, "pitch": 50, "duration": 2, "velocity": 82}, {"time": 1735, "pitch": 55, "duration": 2, "velocity": 93}, {"time": 1741, "pitch": 47, "duration": 21, "velocity": 84}, {"time": 1741, "pitch": 59, "duration": 3, "velocity": 84}, {"time": 1741, "pitch": 63, "duration": 4, "velocity": 82}, {"time": 1747, "pitch": 59, "duration": 1, "velocity": 82}, {"time": 1750, "pitch": 59, "duration": 8, "velocity": 83}, {"time": 1750, "pitch": 63, "duration": 9, "velocity": 85}, {"time": 1750, "pitch": 66, "duration": 10, "velocity": 79}, {"time": 1759, "pitch": 54, "duration": 5, "velocity": 76}, {"time": 1762, "pitch": 59, "duration": 6, "velocity": 93}, {"time": 1765, "pitch": 47, "duration": 18, "velocity": 87}, {"time": 1765, "pitch": 63, "duration": 4, "velocity": 87}, {"time": 1765, "pitch": 66, "duration": 7, "velocity": 83}, {"time": 1768, "pitch": 54, "duration": 8, "velocity": 71}, {"time": 1771, "pitch": 59, "duration": 2, "velocity": 82}, {"time": 1774, "pitch": 59, "duration": 4, "velocity": 79}, {"time": 1774, "pitch": 63, "duration": 7, "velocity": 76}, {"time": 1774, "pitch": 66, "duration": 8, "velocity": 74}, {"time": 1774, "pitch": 71, "duration": 5, "velocity": 82}, {"time": 1777, "pitch": 54, "duration": 4, "velocity": 65}, {"time": 1780, "pitch": 59, "duration": 3, "velocity": 82}, {"time": 1783, "pitch": 63, "duration": 4, "velocity": 74}, {"time": 1783, "pitch": 69, "duration": 7, "velocity": 83}, {"time": 1786, "pitch": 59, "duration": 2, "velocity": 79}, {"time": 1789, "pitch": 40, "duration": 20, "velocity": 84}, {"time": 1789, "pitch": 67, "duration": 5, "velocity": 75}, {"time": 1792, "pitch": 47, "duration": 12, "velocity": 77}, {"time": 1795, "pitch": 64, "duration": 1, "velocity": 78}, {"time": 1798, "pitch": 64, "duration": 9, "velocity": 85}, {"time": 1798, "pitch": 67, "duration": 11, "velocity": 83}, {"time": 1807, "pitch": 47, "duration": 6, "velocity": 85}, {"time": 1810, "pitch": 64, "duration": 2, "velocity": 82}, {"time": 1813, "pitch": 38, "duration": 20, "velocity": 87}, {"time": 1813, "pitch": 62, "duration": 4, "velocity": 76}, {"time": 1813, "pitch": 67, "duration": 7, "velocity": 82}, {"time": 1816, "pitch": 45, "duration": 13, "velocity": 77}, {"time": 1819, "pitch": 62, "duration": 2, "velocity": 87}, {"time": 1822, "pitch": 62, "duration": 9, "velocity": 88}, {"time": 1822, "pitch": 67, "duration": 11, "velocity": 83}, {"time": 1831, "pitch": 45, "duration": 3, "velocity": 80}, {"time": 1834, "pitch": 62, "duration": 4, "velocity": 84}, {"time": 1834, "pitch": 67, "duration": 1, "velocity": 49}, {"time": 1837, "pitch": 36, "duration": 25, "velocity": 70}, {"time": 1837, "pitch": 48, "duration": 23, "velocity": 87}, {"time": 1840, "pitch": 55, "duration": 20, "velocity": 72}, {"time": 1843, "pitch": 60, "duration": 4, "velocity": 74}, {"time": 1846, "pitch": 62, "duration": 7, "velocity": 85}, {"time": 1852, "pitch": 64, "duration": 5, "velocity": 83}, {"time": 1858, "pitch": 67, "duration": 10, "velocity": 75}, {"time": 1861, "pitch": 48, "duration": 21, "velocity": 83}, {"time": 1864, "pitch": 55, "duration": 7, "velocity": 74}, {"time": 1867, "pitch": 60, "duration": 2, "velocity": 79}, {"time": 1870, "pitch": 60, "duration": 5, "velocity": 86}, {"time": 1870, "pitch": 67, "duration": 8, "velocity": 84}, {"time": 1873, "pitch": 55, "duration": 10, "velocity": 80}, {"time": 1879, "pitch": 36, "duration": 6, "velocity": 75}, {"time": 1879, "pitch": 60, "duration": 2, "velocity": 82}, {"time": 1879, "pitch": 64, "duration": 6, "velocity": 84}, {"time": 1882, "pitch": 60, "duration": 2, "velocity": 76}, {"time": 1885, "pitch": 38, "duration": 16, "velocity": 86}, {"time": 1885, "pitch": 57, "duration": 6, "velocity": 82}, {"time": 1885, "pitch": 62, "duration": 8, "velocity": 83}, {"time": 1891, "pitch": 45, "duration": 10, "velocity": 77}, {"time": 1894, "pitch": 57, "duration": 5, "velocity": 87}, {"time": 1900, "pitch": 62, "duration": 5, "velocity": 86}, {"time": 1900, "pitch": 66, "duration": 5, "velocity": 93}, {"time": 1903, "pitch": 57, "duration": 1, "velocity": 49}, {"time": 1906, "pitch": 57, "duration": 4, "velocity": 83}, {"time": 1909, "pitch": 50, "duration": 23, "velocity": 83}, {"time": 1909, "pitch": 62, "duration": 3, "velocity": 85}, {"time": 1909, "pitch": 66, "duration": 4, "velocity": 82}, {"time": 1912, "pitch": 57, "duration": 8, "velocity": 76}, {"time": 1915, "pitch": 62, "duration": 1, "velocity": 91}, {"time": 1918, "pitch": 62, "duration": 4, "velocity": 86}, {"time": 1918, "pitch": 66, "duration": 4, "velocity": 84}, {"time": 1918, "pitch": 69, "duration": 4, "velocity": 86}, {"time": 1921, "pitch": 57, "duration": 4, "velocity": 79}, {"time": 1924, "pitch": 62, "duration": 3, "velocity": 84}, {"time": 1924, "pitch": 66, "duration": 8, "velocity": 83}, {"time": 1924, "pitch": 69, "duration": 8, "velocity": 83}, {"time": 1924, "pitch": 74, "duration": 9, "velocity": 84}, {"time": 1927, "pitch": 57, "duration": 6, "velocity": 75}, {"time": 1930, "pitch": 62, "duration": 3, "velocity": 81}, {"time": 1933, "pitch": 43, "duration": 21, "velocity": 82}, {"time": 1933, "pitch": 62, "duration": 7, "velocity": 82}, {"time": 1933, "pitch": 67, "duration": 7, "velocity": 73}, {"time": 1936, "pitch": 50, "duration": 18, "velocity": 73}, {"time": 1939, "pitch": 55, "duration": 10, "velocity": 84}, {"time": 1942, "pitch": 62, "duration": 7, "velocity": 81}, {"time": 1942, "pitch": 67, "duration": 7, "velocity": 82}, {"time": 1951, "pitch": 62, "duration": 13, "velocity": 79}, {"time": 1951, "pitch": 67, "duration": 4, "velocity": 81}, {"time": 1954, "pitch": 55, "duration": 4, "velocity": 81}, {"time": 1957, "pitch": 43, "duration": 23, "velocity": 84}, {"time": 1957, "pitch": 67, "duration": 7, "velocity": 81}, {"time": 1960, "pitch": 50, "duration": 17, "velocity": 74}, {"time": 1963, "pitch": 55, "duration": 4, "velocity": 82}, {"time": 1966, "pitch": 62, "duration": 4, "velocity": 82}, {"time": 1966, "pitch": 67, "duration": 4, "velocity": 82}, {"time": 1972, "pitch": 67, "duration": 5, "velocity": 82}, {"time": 1975, "pitch": 55, "duration": 6, "velocity": 82}, {"time": 1981, "pitch": 48, "duration": 22, "velocity": 83}, {"time": 1981, "pitch": 67, "duration": 6, "velocity": 80}, {"time": 1984, "pitch": 52, "duration": 19, "velocity": 66}, {"time": 1987, "pitch": 55, "duration": 9, "velocity": 83}, {"time": 1990, "pitch": 67, "duration": 6, "velocity": 86}, {"time": 1996, "pitch": 60, "duration": 4, "velocity": 78}, {"time": 1999, "pitch": 55, "duration": 8, "velocity": 84}, {"time": 2002, "pitch": 60, "duration": 10, "velocity": 83}, {"time": 2002, "pitch": 67, "duration": 10, "velocity": 82}, {"time": 2005, "pitch": 48, "duration": 18, "velocity": 91}, {"time": 2008, "pitch": 52, "duration": 18, "velocity": 74}, {"time": 2011, "pitch": 55, "duration": 10, "velocity": 82}, {"time": 2014, "pitch": 60, "duration": 5, "velocity": 85}, {"time": 2014, "pitch": 67, "duration": 5, "velocity": 83}, {"time": 2020, "pitch": 60, "duration": 6, "velocity": 82}, {"time": 2020, "pitch": 67, "duration": 8, "velocity": 81}, {"time": 2029, "pitch": 45, "duration": 22, "velocity": 82}, {"time": 2029, "pitch": 57, "duration": 3, "velocity": 77}, {"time": 2029, "pitch": 60, "duration": 7, "velocity": 79}, {"time": 2032, "pitch": 52, "duration": 19, "velocity": 75}, {"time": 2035, "pitch": 57, "duration": 2, "velocity": 69}, {"time": 2038, "pitch": 57, "duration": 5, "velocity": 75}, {"time": 2038, "pitch": 60, "duration": 5, "velocity": 76}, {"time": 2038, "pitch": 64, "duration": 5, "velocity": 82}, {"time": 2044, "pitch": 57, "duration": 3, "velocity": 80}, {"time": 2044, "pitch": 60, "duration": 4, "velocity": 83}, {"time": 2044, "pitch": 64, "duration": 2, "velocity": 84}, {"time": 2053, "pitch": 45, "duration": 19, "velocity": 83}, {"time": 2053, "pitch": 60, "duration": 4, "velocity": 80}, {"time": 2053, "pitch": 64, "duration": 4, "velocity": 74}, {"time": 2053, "pitch": 67, "duration": 4, "velocity": 75}, {"time": 2056, "pitch": 52, "duration": 8, "velocity": 77}, {"time": 2059, "pitch": 57, "duration": 2, "velocity": 76}, {"time": 2062, "pitch": 57, "duration": 4, "velocity": 74}, {"time": 2062, "pitch": 60, "duration": 4, "velocity": 82}, {"time": 2062, "pitch": 64, "duration": 4, "velocity": 84}, {"time": 2065, "pitch": 52, "duration": 5, "velocity": 77}, {"time": 2068, "pitch": 57, "duration": 1, "velocity": 78}, {"time": 2068, "pitch": 60, "duration": 4, "velocity": 88}, {"time": 2068, "pitch": 64, "duration": 5, "velocity": 88}, {"time": 2077, "pitch": 48, "duration": 15, "velocity": 83}, {"time": 2077, "pitch": 55, "duration": 3, "velocity": 77}, {"time": 2077, "pitch": 60, "duration": 6, "velocity": 79}, {"time": 2080, "pitch": 52, "duration": 13, "velocity": 78}, {"time": 2083, "pitch": 55, "duration": 7, "velocity": 77}, {"time": 2086, "pitch": 60, "duration": 5, "velocity": 82}, {"time": 2086, "pitch": 67, "duration": 4, "velocity": 82}, {"time": 2092, "pitch": 55, "duration": 1, "velocity": 72}, {"time": 2092, "pitch": 60, "duration": 4, "velocity": 83}, {"time": 2092, "pitch": 67, "duration": 8, "velocity": 80}, {"time": 2101, "pitch": 50, "duration": 25, "velocity": 91}, {"time": 2101, "pitch": 57, "duration": 2, "velocity": 82}, {"time": 2101, "pitch": 66, "duration": 6, "velocity": 82}, {"time": 2104, "pitch": 57, "duration": 4, "velocity": 71}, {"time": 2107, "pitch": 62, "duration": 2, "velocity": 73}, {"time": 2110, "pitch": 57, "duration": 3, "velocity": 73}, {"time": 2110, "pitch": 62, "duration": 4, "velocity": 82}, {"time": 2110, "pitch": 66, "duration": 16, "velocity": 81}, {"time": 2116, "pitch": 62, "duration": 10, "velocity": 82}, {"time": 2119, "pitch": 57, "duration": 7, "velocity": 75}, {"time": 2125, "pitch": 40, "duration": 17, "velocity": 78}, {"time": 2125, "pitch": 64, "duration": 7, "velocity": 83}, {"time": 2125, "pitch": 67, "duration": 7, "velocity": 82}, {"time": 2128, "pitch": 47, "duration": 14, "velocity": 72}, {"time": 2131, "pitch": 59, "duration": 4, "velocity": 83}, {"time": 2134, "pitch": 64, "duration": 6, "velocity": 84}, {"time": 2134, "pitch": 67, "duration": 5, "velocity": 84}, {"time": 2143, "pitch": 64, "duration": 4, "velocity": 83}, {"time": 2143, "pitch": 67, "duration": 4, "velocity": 78}, {"time": 2146, "pitch": 59, "duration": 3, "velocity": 83}, {"time": 2149, "pitch": 48, "duration": 19, "velocity": 84}, {"time": 2149, "pitch": 64, "duration": 5, "velocity": 82}, {"time": 2149, "pitch": 67, "duration": 5, "velocity": 83}, {"time": 2152, "pitch": 55, "duration": 8, "velocity": 70}, {"time": 2155, "pitch": 60, "duration": 2, "velocity": 82}, {"time": 2158, "pitch": 60, "duration": 6, "velocity": 84}, {"time": 2158, "pitch": 64, "duration": 1, "velocity": 83}, {"time": 2158, "pitch": 67, "duration": 7, "velocity": 83}, {"time": 2161, "pitch": 55, "duration": 6, "velocity": 53}, {"time": 2167, "pitch": 64, "duration": 4, "velocity": 86}, {"time": 2167, "pitch": 67, "duration": 4, "velocity": 82}, {"time": 2170, "pitch": 60, "duration": 3, "velocity": 78}, {"time": 2173, "pitch": 43, "duration": 22, "velocity": 83}, {"time": 2173, "pitch": 67, "duration": 7, "velocity": 82}, {"time": 2176, "pitch": 50, "duration": 19, "velocity": 73}, {"time": 2179, "pitch": 59, "duration": 2, "velocity": 80}, {"time": 2182, "pitch": 59, "duration": 4, "velocity": 82}, {"time": 2182, "pitch": 62, "duration": 4, "velocity": 86}, {"time": 2182, "pitch": 67, "duration": 6, "velocity": 83}, {"time": 2191, "pitch": 62, "duration": 4, "velocity": 83}, {"time": 2191, "pitch": 67, "duration": 4, "velocity": 82}, {"time": 2194, "pitch": 59, "duration": 2, "velocity": 81}, {"time": 2197, "pitch": 43, "duration": 7, "velocity": 83}, {"time": 2197, "pitch": 62, "duration": 7, "velocity": 84}, {"time": 2197, "pitch": 67, "duration": 7, "velocity": 82}, {"time": 2200, "pitch": 50, "duration": 8, "velocity": 71}, {"time": 2203, "pitch": 59, "duration": 2, "velocity": 84}, {"time": 2209, "pitch": 42, "duration": 7, "velocity": 77}, {"time": 2209, "pitch": 62, "duration": 2, "velocity": 83}, {"time": 2209, "pitch": 66, "duration": 5, "velocity": 80}, {"time": 2212, "pitch": 50, "duration": 5, "velocity": 69}, {"time": 2215, "pitch": 62, "duration": 4, "velocity": 83}, {"time": 2218, "pitch": 66, "duration": 2, "velocity": 88}, {"time": 2221, "pitch": 40, "duration": 17, "velocity": 78}, {"time": 2221, "pitch": 64, "duration": 7, "velocity": 83}, {"time": 2221, "pitch": 67, "duration": 7, "velocity": 82}, {"time": 2224, "pitch": 47, "duration": 14, "velocity": 72}, {"time": 2227, "pitch": 59, "duration": 4, "velocity": 83}, {"time": 2230, "pitch": 64, "duration": 6, "velocity": 84}, {"time": 2230, "pitch": 67, "duration": 5, "velocity": 84}, {"time": 2239, "pitch": 64, "duration": 4, "velocity": 83}, {"time": 2239, "pitch": 67, "duration": 4, "velocity": 78}, {"time": 2242, "pitch": 59, "duration": 3, "velocity": 83}, {"time": 2245, "pitch": 48, "duration": 19, "velocity": 84}, {"time": 2245, "pitch": 64, "duration": 5, "velocity": 82}, {"time": 2245, "pitch": 67, "duration": 5, "velocity": 83}, {"time": 2248, "pitch": 55, "duration": 8, "velocity": 70}, {"time": 2251, "pitch": 60, "duration": 2, "velocity": 82}, {"time": 2254, "pitch": 60, "duration": 6, "velocity": 84}, {"time": 2254, "pitch": 64, "duration": 1, "velocity": 83}, {"time": 2254, "pitch": 67, "duration": 7, "velocity": 83}, {"time": 2257, "pitch": 55, "duration": 6, "velocity": 53}, {"time": 2263, "pitch": 64, "duration": 4, "velocity": 86}, {"time": 2263, "pitch": 67, "duration": 4, "velocity": 82}, {"time": 2266, "pitch": 60, "duration": 3, "velocity": 78}, {"time": 2269, "pitch": 43, "duration": 22, "velocity": 83}, {"time": 2269, "pitch": 67, "duration": 7, "velocity": 82}, {"time": 2272, "pitch": 50, "duration": 19, "velocity": 73}, {"time": 2275, "pitch": 59, "duration": 2, "velocity": 80}, {"time": 2278, "pitch": 59, "duration": 4, "velocity": 82}, {"time": 2278, "pitch": 62, "duration": 4, "velocity": 86}, {"time": 2278, "pitch": 67, "duration": 6, "velocity": 83}, {"time": 2287, "pitch": 62, "duration": 4, "velocity": 83}, {"time": 2287, "pitch": 67, "duration": 4, "velocity": 82}, {"time": 2290, "pitch": 59, "duration": 2, "velocity": 81}, {"time": 2293, "pitch": 43, "duration": 7, "velocity": 83}, {"time": 2293, "pitch": 62, "duration": 7, "velocity": 84}, {"time": 2293, "pitch": 67, "duration": 7, "velocity": 82}, {"time": 2296, "pitch": 50, "duration": 8, "velocity": 71}, {"time": 2299, "pitch": 59, "duration": 2, "velocity": 84}, {"time": 2305, "pitch": 42, "duration": 7, "velocity": 77}, {"time": 2305, "pitch": 62, "duration": 2, "velocity": 83}, {"time": 2305, "pitch": 66, "duration": 5, "velocity": 80}, {"time": 2308, "pitch": 50, "duration": 5, "velocity": 69}, {"time": 2311, "pitch": 62, "duration": 4, "velocity": 83}, {"time": 2314, "pitch": 66, "duration": 2, "velocity": 88}, {"time": 2317, "pitch": 40, "duration": 17, "velocity": 78}, {"time": 2317, "pitch": 64, "duration": 7, "velocity": 83}, {"time": 2317, "pitch": 67, "duration": 7, "velocity": 82}, {"time": 2320, "pitch": 47, "duration": 14, "velocity": 72}, {"time": 2323, "pitch": 59, "duration": 4, "velocity": 83}, {"time": 2326, "pitch": 64, "duration": 6, "velocity": 84}, {"time": 2326, "pitch": 67, "duration": 5, "velocity": 84}, {"time": 2335, "pitch": 64, "duration": 4, "velocity": 83}, {"time": 2335, "pitch": 67, "duration": 4, "velocity": 78}, {"time": 2338, "pitch": 59, "duration": 3, "velocity": 83}, {"time": 2341, "pitch": 48, "duration": 19, "velocity": 84}, {"time": 2341, "pitch": 64, "duration": 5, "velocity": 82}, {"time": 2341, "pitch": 67, "duration": 5, "velocity": 83}, {"time": 2344, "pitch": 55, "duration": 8, "velocity": 70}, {"time": 2347, "pitch": 60, "duration": 2, "velocity": 82}, {"time": 2350, "pitch": 60, "duration": 6, "velocity": 84}, {"time": 2350, "pitch": 64, "duration": 1, "velocity": 83}, {"time": 2350, "pitch": 67, "duration": 7, "velocity": 83}, {"time": 2353, "pitch": 55, "duration": 6, "velocity": 53}, {"time": 2359, "pitch": 64, "duration": 4, "velocity": 86}, {"time": 2359, "pitch": 67, "duration": 4, "velocity": 82}, {"time": 2362, "pitch": 60, "duration": 3, "velocity": 78}, {"time": 2365, "pitch": 43, "duration": 22, "velocity": 83}, {"time": 2365, "pitch": 67, "duration": 7, "velocity": 82}, {"time": 2368, "pitch": 50, "duration": 19, "velocity": 73}, {"time": 2371, "pitch": 59, "duration": 2, "velocity": 80}, {"time": 2374, "pitch": 59, "duration": 4, "velocity": 82}, {"time": 2374, "pitch": 62, "duration": 4, "velocity": 86}, {"time": 2374, "pitch": 67, "duration": 6, "velocity": 83}, {"time": 2383, "pitch": 62, "duration": 4, "velocity": 83}, {"time": 2383, "pitch": 67, "duration": 4, "velocity": 82}, {"time": 2386, "pitch": 59, "duration": 2, "velocity": 81}, {"time": 2389, "pitch": 43, "duration": 7, "velocity": 83}, {"time": 2389, "pitch": 62, "duration": 7, "velocity": 84}, {"time": 2389, "pitch": 67, "duration": 7, "velocity": 82}, {"time": 2392, "pitch": 50, "duration": 8, "velocity": 71}, {"time": 2395, "pitch": 59, "duration": 2, "velocity": 84}, {"time": 2401, "pitch": 42, "duration": 7, "velocity": 77}, {"time": 2401, "pitch": 62, "duration": 2, "velocity": 83}, {"time": 2401, "pitch": 66, "duration": 5, "velocity": 80}, {"time": 2404, "pitch": 50, "duration": 5, "velocity": 69}, {"time": 2407, "pitch": 62, "duration": 4, "velocity": 83}, {"time": 2410, "pitch": 66, "duration": 2, "velocity": 88}, {"time": 2413, "pitch": 40, "duration": 17, "velocity": 78}, {"time": 2413, "pitch": 64, "duration": 7, "velocity": 83}, {"time": 2413, "pitch": 67, "duration": 7, "velocity": 82}, {"time": 2416, "pitch": 47, "duration": 14, "velocity": 72}, {"time": 2419, "pitch": 59, "duration": 4, "velocity": 83}, {"time": 2422, "pitch": 64, "duration": 6, "velocity": 84}, {"time": 2422, "pitch": 67, "duration": 5, "velocity": 84}, {"time": 2431, "pitch": 64, "duration": 4, "velocity": 83}, {"time": 2431, "pitch": 67, "duration": 4, "velocity": 78}, {"time": 2434, "pitch": 59, "duration": 3, "velocity": 83}, {"time": 2437, "pitch": 48, "duration": 19, "velocity": 84}, {"time": 2437, "pitch": 64, "duration": 5, "velocity": 82}, {"time": 2437, "pitch": 67, "duration": 5, "velocity": 83}, {"time": 2440, "pitch": 55, "duration": 8, "velocity": 70}, {"time": 2443, "pitch": 60, "duration": 2, "velocity": 82}, {"time": 2446, "pitch": 60, "duration": 6, "velocity": 84}, {"time": 2446, "pitch": 64, "duration": 1, "velocity": 83}, {"time": 2446, "pitch": 67, "duration": 7, "velocity": 83}, {"time": 2449, "pitch": 55, "duration": 6, "velocity": 53}, {"time": 2455, "pitch": 64, "duration": 4, "velocity": 86}, {"time": 2455, "pitch": 67, "duration": 4, "velocity": 82}, {"time": 2458, "pitch": 60, "duration": 3, "velocity": 78}, {"time": 2461, "pitch": 38, "duration": 22, "velocity": 88}, {"time": 2461, "pitch": 57, "duration": 4, "velocity": 78}, {"time": 2461, "pitch": 66, "duration": 5, "velocity": 79}, {"time": 2464, "pitch": 45, "duration": 20, "velocity": 73}, {"time": 2467, "pitch": 57, "duration": 2, "velocity": 81}, {"time": 2470, "pitch": 57, "duration": 6, "velocity": 84}, {"time": 2470, "pitch": 66, "duration": 7, "velocity": 84}, {"time": 2479, "pitch": 57, "duration": 1, "velocity": 83}, {"time": 2479, "pitch": 66, "duration": 2, "velocity": 84}, {"time": 2482, "pitch": 57, "duration": 5, "velocity": 83}, {"time": 2482, "pitch": 66, "duration": 7, "velocity": 69}, {"time": 2485, "pitch": 38, "duration": 26, "velocity": 84}, {"time": 2488, "pitch": 45, "duration": 14, "velocity": 76}, {"time": 2491, "pitch": 57, "duration": 2, "velocity": 83}, {"time": 2494, "pitch": 57, "duration": 3, "velocity": 82}, {"time": 2494, "pitch": 62, "duration": 3, "velocity": 85}, {"time": 2500, "pitch": 57, "duration": 4, "velocity": 84}, {"time": 2500, "pitch": 66, "duration": 10, "velocity": 84}, {"time": 2503, "pitch": 45, "duration": 7, "velocity": 78}, {"time": 2506, "pitch": 57, "duration": 3, "velocity": 82}, {"time": 2509, "pitch": 43, "duration": 22, "velocity": 83}, {"time": 2509, "pitch": 55, "duration": 4, "velocity": 77}, {"time": 2509, "pitch": 62, "duration": 4, "velocity": 83}, {"time": 2512, "pitch": 50, "duration": 19, "velocity": 72}, {"time": 2515, "pitch": 55, "duration": 2, "velocity": 81}, {"time": 2518, "pitch": 55, "duration": 6, "velocity": 84}, {"time": 2518, "pitch": 62, "duration": 6, "velocity": 86}, {"time": 2527, "pitch": 62, "duration": 13, "velocity": 83}, {"time": 2527, "pitch": 67, "duration": 10, "velocity": 76}, {"time": 2530, "pitch": 55, "duration": 6, "velocity": 87}, {"time": 2533, "pitch": 43, "duration": 17, "velocity": 82}, {"time": 2536, "pitch": 50, "duration": 8, "velocity": 73}, {"time": 2539, "pitch": 55, "duration": 1, "velocity": 83}, {"time": 2542, "pitch": 55, "duration": 4, "velocity": 84}, {"time": 2542, "pitch": 62, "duration": 13, "velocity": 84}, {"time": 2548, "pitch": 50, "duration": 8, "velocity": 79}, {"time": 2551, "pitch": 42, "duration": 5, "velocity": 85}, {"time": 2554, "pitch": 55, "duration": 4, "velocity": 89}, {"time": 2557, "pitch": 40, "duration": 22, "velocity": 91}, {"time": 2560, "pitch": 47, "duration": 19, "velocity": 73}, {"time": 2563, "pitch": 52, "duration": 6, "velocity": 83}, {"time": 2566, "pitch": 55, "duration": 7, "velocity": 84}, {"time": 2566, "pitch": 59, "duration": 7, "velocity": 83}, {"time": 2566, "pitch": 64, "duration": 6, "velocity": 83}, {"time": 2575, "pitch": 55, "duration": 9, "velocity": 83}, {"time": 2575, "pitch": 59, "duration": 8, "velocity": 83}, {"time": 2575, "pitch": 64, "duration": 4, "velocity": 84}, {"time": 2578, "pitch": 52, "duration": 5, "velocity": 83}, {"time": 2581, "pitch": 40, "duration": 18, "velocity": 84}, {"time": 2584, "pitch": 47, "duration": 15, "velocity": 73}, {"time": 2587, "pitch": 52, "duration": 1, "velocity": 69}, {"time": 2590, "pitch": 52, "duration": 2, "velocity": 78}, {"time": 2590, "pitch": 55, "duration": 7, "velocity": 82}, {"time": 2590, "pitch": 62, "duration": 7, "velocity": 83}, {"time": 2599, "pitch": 62, "duration": 5, "velocity": 86}, {"time": 2605, "pitch": 48, "duration": 17, "velocity": 88}, {"time": 2605, "pitch": 55, "duration": 4, "velocity": 76}, {"time": 2605, "pitch": 60, "duration": 7, "velocity": 77}, {"time": 2608, "pitch": 52, "duration": 14, "velocity": 75}, {"time": 2611, "pitch": 55, "duration": 2, "velocity": 78}, {"time": 2614, "pitch": 55, "duration": 1, "velocity": 71}, {"time": 2614, "pitch": 60, "duration": 7, "velocity": 85}, {"time": 2614, "pitch": 64, "duration": 7, "velocity": 84}, {"time": 2623, "pitch": 60, "duration": 4, "velocity": 85}, {"time": 2623, "pitch": 64, "duration": 5, "velocity": 83}, {"time": 2626, "pitch": 55, "duration": 1, "velocity": 75}, {"time": 2629, "pitch": 38, "duration": 17, "velocity": 85}, {"time": 2629, "pitch": 57, "duration": 3, "velocity": 74}, {"time": 2629, "pitch": 62, "duration": 5, "velocity": 82}, {"time": 2632, "pitch": 45, "duration": 13, "velocity": 69}, {"time": 2635, "pitch": 57, "duration": 2, "velocity": 80}, {"time": 2638, "pitch": 57, "duration": 5, "velocity": 79}, {"time": 2638, "pitch": 62, "duration": 6, "velocity": 82}, {"time": 2647, "pitch": 62, "duration": 4, "velocity": 83}, {"time": 2647, "pitch": 66, "duration": 4, "velocity": 84}, {"time": 2650, "pitch": 57, "duration": 1, "velocity": 75}, {"time": 2653, "pitch": 43, "duration": 23, "velocity": 83}, {"time": 2653, "pitch": 55, "duration": 4, "velocity": 82}, {"time": 2653, "pitch": 59, "duration": 5, "velocity": 81}, {"time": 2656, "pitch": 50, "duration": 20, "velocity": 72}, {"time": 2659, "pitch": 55, "duration": 1, "velocity": 70}, {"time": 2662, "pitch": 55, "duration": 4, "velocity": 83}, {"time": 2662, "pitch": 62, "duration": 4, "velocity": 83}, {"time": 2668, "pitch": 55, "duration": 3, "velocity": 83}, {"time": 2668, "pitch": 59, "duration": 4, "velocity": 85}, {"time": 2674, "pitch": 55, "duration": 1, "velocity": 69}, {"time": 2677, "pitch": 43, "duration": 16, "velocity": 83}, {"time": 2677, "pitch": 55, "duration": 3, "velocity": 82}, {"time": 2677, "pitch": 62, "duration": 4, "velocity": 81}, {"time": 2680, "pitch": 50, "duration": 11, "velocity": 73}, {"time": 2683, "pitch": 55, "duration": 2, "velocity": 74}, {"time": 2686, "pitch": 55, "duration": 4, "velocity": 83}, {"time": 2686, "pitch": 59, "duration": 5, "velocity": 89}, {"time": 2692, "pitch": 50, "duration": 2, "velocity": 82}, {"time": 2695, "pitch": 55, "duration": 2, "velocity": 93}, {"time": 2701, "pitch": 47, "duration": 21, "velocity": 84}, {"time": 2701, "pitch": 59, "duration": 3, "velocity": 84}, {"time": 2701, "pitch": 63, "duration": 4, "velocity": 82}, {"time": 2707, "pitch": 59, "duration": 1, "velocity": 82}, {"time": 2710, "pitch": 59, "duration": 8, "velocity": 83}, {"time": 2710, "pitch": 63, "duration": 9, "velocity": 85}, {"time": 2710, "pitch": 66, "duration": 10, "velocity": 79}, {"time": 2719, "pitch": 54, "duration": 5, "velocity": 76}, {"time": 2722, "pitch": 59, "duration": 6, "velocity": 93}, {"time": 2725, "pitch": 47, "duration": 18, "velocity": 87}, {"time": 2725, "pitch": 63, "duration": 4, "velocity": 87}, {"time": 2725, "pitch": 66, "duration": 7, "velocity": 83}, {"time": 2728, "pitch": 54, "duration": 8, "velocity": 71}, {"time": 2731, "pitch": 59, "duration": 2, "velocity": 82}, {"time": 2734, "pitch": 59, "duration": 4, "velocity": 79}, {"time": 2734, "pitch": 63, "duration": 7, "velocity": 76}, {"time": 2734, "pitch": 66, "duration": 8, "velocity": 74}, {"time": 2734, "pitch": 71, "duration": 5, "velocity": 82}, {"time": 2737, "pitch": 54, "duration": 4, "velocity": 65}, {"time": 2740, "pitch": 59, "duration": 3, "velocity": 82}, {"time": 2743, "pitch": 63, "duration": 4, "velocity": 74}, {"time": 2743, "pitch": 69, "duration": 7, "velocity": 83}, {"time": 2746, "pitch": 59, "duration": 2, "velocity": 79}, {"time": 2749, "pitch": 40, "duration": 20, "velocity": 84}, {"time": 2749, "pitch": 67, "duration": 5, "velocity": 75}, {"time": 2752, "pitch": 47, "duration": 12, "velocity": 77}, {"time": 2755, "pitch": 64, "duration": 1, "velocity": 78}, {"time": 2758, "pitch": 64, "duration": 9, "velocity": 85}, {"time": 2758, "pitch": 67, "duration": 11, "velocity": 83}, {"time": 2767, "pitch": 47, "duration": 6, "velocity": 85}, {"time": 2770, "pitch": 64, "duration": 2, "velocity": 82}, {"time": 2773, "pitch": 38, "duration": 20, "velocity": 87}, {"time": 2773, "pitch": 62, "duration": 4, "velocity": 76}, {"time": 2773, "pitch": 67, "duration": 7, "velocity": 82}, {"time": 2776, "pitch": 45, "duration": 13, "velocity": 77}, {"time": 2779, "pitch": 62, "duration": 2, "velocity": 87}, {"time": 2782, "pitch": 62, "duration": 9, "velocity": 88}, {"time": 2782, "pitch": 67, "duration": 11, "velocity": 83}, {"time": 2791, "pitch": 45, "duration": 3, "velocity": 80}, {"time": 2794, "pitch": 62, "duration": 4, "velocity": 84}, {"time": 2794, "pitch": 67, "duration": 1, "velocity": 49}, {"time": 2797, "pitch": 36, "duration": 25, "velocity": 70}, {"time": 2797, "pitch": 48, "duration": 23, "velocity": 87}, {"time": 2800, "pitch": 55, "duration": 20, "velocity": 72}, {"time": 2803, "pitch": 60, "duration": 4, "velocity": 74}, {"time": 2806, "pitch": 62, "duration": 7, "velocity": 85}, {"time": 2812, "pitch": 64, "duration": 5, "velocity": 83}, {"time": 2818, "pitch": 67, "duration": 10, "velocity": 75}, {"time": 2821, "pitch": 48, "duration": 21, "velocity": 83}, {"time": 2824, "pitch": 55, "duration": 7, "velocity": 74}, {"time": 2827, "pitch": 60, "duration": 2, "velocity": 79}, {"time": 2830, "pitch": 60, "duration": 5, "velocity": 86}, {"time": 2830, "pitch": 67, "duration": 8, "velocity": 84}, {"time": 2833, "pitch": 55, "duration": 10, "velocity": 80}, {"time": 2839, "pitch": 36, "duration": 6, "velocity": 75}, {"time": 2839, "pitch": 60, "duration": 2, "velocity": 82}, {"time": 2839, "pitch": 64, "duration": 6, "velocity": 84}, {"time": 2842, "pitch": 60, "duration": 2, "velocity": 76}, {"time": 2845, "pitch": 38, "duration": 16, "velocity": 86}, {"time": 2845, "pitch": 57, "duration": 6, "velocity": 82}, {"time": 2845, "pitch": 62, "duration": 8, "velocity": 83}, {"time": 2851, "pitch": 45, "duration": 10, "velocity": 77}, {"time": 2854, "pitch": 57, "duration": 5, "velocity": 87}, {"time": 2860, "pitch": 62, "duration": 5, "velocity": 86}, {"time": 2860, "pitch": 66, "duration": 5, "velocity": 93}, {"time": 2863, "pitch": 57, "duration": 1, "velocity": 49}, {"time": 2866, "pitch": 57, "duration": 4, "velocity": 83}, {"time": 2869, "pitch": 50, "duration": 23, "velocity": 83}, {"time": 2869, "pitch": 62, "duration": 3, "velocity": 85}, {"time": 2869, "pitch": 66, "duration": 4, "velocity": 82}, {"time": 2872, "pitch": 57, "duration": 8, "velocity": 76}, {"time": 2875, "pitch": 62, "duration": 1, "velocity": 91}, {"time": 2878, "pitch": 62, "duration": 4, "velocity": 86}, {"time": 2878, "pitch": 66, "duration": 4, "velocity": 84}, {"time": 2878, "pitch": 69, "duration": 4, "velocity": 86}, {"time": 2881, "pitch": 57, "duration": 4, "velocity": 79}, {"time": 2884, "pitch": 62, "duration": 3, "velocity": 84}, {"time": 2884, "pitch": 66, "duration": 8, "velocity": 83}, {"time": 2884, "pitch": 69, "duration": 8, "velocity": 83}, {"time": 2884, "pitch": 74, "duration": 9, "velocity": 84}, {"time": 2887, "pitch": 57, "duration": 6, "velocity": 75}, {"time": 2890, "pitch": 62, "duration": 3, "velocity": 81}, {"time": 2893, "pitch": 43, "duration": 22, "velocity": 83}, {"time": 2893, "pitch": 55, "duration": 4, "velocity": 77}, {"time": 2893, "pitch": 62, "duration": 4, "velocity": 83}, {"time": 2896, "pitch": 50, "duration": 19, "velocity": 72}, {"time": 2899, "pitch": 55, "duration": 2, "velocity": 81}, {"time": 2902, "pitch": 55, "duration": 6, "velocity": 84}, {"time": 2902, "pitch": 62, "duration": 6, "velocity": 86}, {"time": 2911, "pitch": 62, "duration": 13, "velocity": 83}, {"time": 2911, "pitch": 67, "duration": 10, "velocity": 76}, {"time": 2914, "pitch": 55, "duration": 6, "velocity": 87}, {"time": 2917, "pitch": 43, "duration": 17, "velocity": 82}, {"time": 2920, "pitch": 50, "duration": 8, "velocity": 73}, {"time": 2923, "pitch": 55, "duration": 1, "velocity": 83}, {"time": 2926, "pitch": 55, "duration": 4, "velocity": 84}, {"time": 2926, "pitch": 62, "duration": 13, "velocity": 84}, {"time": 2932, "pitch": 50, "duration": 8, "velocity": 79}, {"time": 2935, "pitch": 42, "duration": 5, "velocity": 85}, {"time": 2938, "pitch": 55, "duration": 4, "velocity": 89}, {"time": 2941, "pitch": 40, "duration": 22, "velocity": 91}, {"time": 2944, "pitch": 47, "duration": 19, "velocity": 73}, {"time": 2947, "pitch": 52, "duration": 6, "velocity": 83}, {"time": 2950, "pitch": 55, "duration": 7, "velocity": 84}, {"time": 2950, "pitch": 59, "duration": 7, "velocity": 83}, {"time": 2950, "pitch": 64, "duration": 6, "velocity": 83}, {"time": 2959, "pitch": 55, "duration": 9, "velocity": 83}, {"time": 2959, "pitch": 59, "duration": 8, "velocity": 83}, {"time": 2959, "pitch": 64, "duration": 4, "velocity": 84}, {"time": 2962, "pitch": 52, "duration": 5, "velocity": 83}, {"time": 2965, "pitch": 40, "duration": 18, "velocity": 84}, {"time": 2968, "pitch": 47, "duration": 15, "velocity": 73}, {"time": 2971, "pitch": 52, "duration": 1, "velocity": 69}, {"time": 2974, "pitch": 52, "duration": 2, "velocity": 78}, {"time": 2974, "pitch": 55, "duration": 7, "velocity": 82}, {"time": 2974, "pitch": 62, "duration": 7, "velocity": 83}, {"time": 2983, "pitch": 62, "duration": 5, "velocity": 86}, {"time": 2989, "pitch": 48, "duration": 17, "velocity": 88}, {"time": 2989, "pitch": 55, "duration": 4, "velocity": 76}, {"time": 2989, "pitch": 60, "duration": 7, "velocity": 77}, {"time": 2992, "pitch": 52, "duration": 14, "velocity": 75}, {"time": 2995, "pitch": 55, "duration": 2, "velocity": 78}, {"time": 2998, "pitch": 55, "duration": 1, "velocity": 71}, {"time": 2998, "pitch": 60, "duration": 7, "velocity": 85}, {"time": 2998, "pitch": 64, "duration": 7, "velocity": 84}, {"time": 3007, "pitch": 60, "duration": 4, "velocity": 85}, {"time": 3007, "pitch": 64, "duration": 5, "velocity": 83}, {"time": 3010, "pitch": 55, "duration": 1, "velocity": 75}, {"time": 3013, "pitch": 38, "duration": 17, "velocity": 85}, {"time": 3013, "pitch": 57, "duration": 3, "velocity": 74}, {"time": 3013, "pitch": 62, "duration": 5, "velocity": 82}, {"time": 3016, "pitch": 45, "duration": 13, "velocity": 69}, {"time": 3019, "pitch": 57, "duration": 2, "velocity": 80}, {"time": 3022, "pitch": 57, "duration": 5, "velocity": 79}, {"time": 3022, "pitch": 62, "duration": 6, "velocity": 82}, {"time": 3031, "pitch": 62, "duration": 4, "velocity": 83}, {"time": 3031, "pitch": 66, "duration": 4, "velocity": 84}, {"time": 3034, "pitch": 57, "duration": 1, "velocity": 75}, {"time": 3037, "pitch": 43, "duration": 23, "velocity": 83}, {"time": 3037, "pitch": 55, "duration": 4, "velocity": 82}, {"time": 3037, "pitch": 59, "duration": 5, "velocity": 81}, {"time": 3040, "pitch": 50, "duration": 20, "velocity": 72}, {"time": 3043, "pitch": 55, "duration": 1, "velocity": 70}, {"time": 3046, "pitch": 55, "duration": 4, "velocity": 83}, {"time": 3046, "pitch": 62, "duration": 4, "velocity": 83}, {"time": 3052, "pitch": 55, "duration": 3, "velocity": 83}, {"time": 3052, "pitch": 59, "duration": 4, "velocity": 85}, {"time": 3058, "pitch": 55, "duration": 1, "velocity": 69}, {"time": 3061, "pitch": 43, "duration": 16, "velocity": 83}, {"time": 3061, "pitch": 55, "duration": 3, "velocity": 82}, {"time": 3061, "pitch": 62, "duration": 4, "velocity": 81}, {"time": 3064, "pitch": 50, "duration": 11, "velocity": 73}, {"time": 3067, "pitch": 55, "duration": 2, "velocity": 74}, {"time": 3070, "pitch": 55, "duration": 4, "velocity": 83}, {"time": 3070, "pitch": 59, "duration": 5, "velocity": 89}, {"time": 3076, "pitch": 50, "duration": 2, "velocity": 82}, {"time": 3079, "pitch": 55, "duration": 2, "velocity": 93}, {"time": 3085, "pitch": 47, "duration": 21, "velocity": 84}, {"time": 3085, "pitch": 59, "duration": 3, "velocity": 84}, {"time": 3085, "pitch": 63, "duration": 4, "velocity": 82}, {"time": 3091, "pitch": 59, "duration": 1, "velocity": 82}, {"time": 3094, "pitch": 59, "duration": 8, "velocity": 83}, {"time": 3094, "pitch": 63, "duration": 9, "velocity": 85}, {"time": 3094, "pitch": 66, "duration": 10, "velocity": 79}, {"time": 3103, "pitch": 54, "duration": 5, "velocity": 76}, {"time": 3106, "pitch": 59, "duration": 6, "velocity": 93}, {"time": 3109, "pitch": 47, "duration": 18, "velocity": 87}, {"time": 3109, "pitch": 63, "duration": 4, "velocity": 87}, {"time": 3109, "pitch": 66, "duration": 7, "velocity": 83}, {"time": 3112, "pitch": 54, "duration": 8, "velocity": 71}, {"time": 3115, "pitch": 59, "duration": 2, "velocity": 82}, {"time": 3118, "pitch": 59, "duration": 4, "velocity": 79}, {"time": 3118, "pitch": 63, "duration": 7, "velocity": 76}, {"time": 3118, "pitch": 66, "duration": 8, "velocity": 74}, {"time": 3118, "pitch": 71, "duration": 5, "velocity": 82}, {"time": 3121, "pitch": 54, "duration": 4, "velocity": 65}, {"time": 3124, "pitch": 59, "duration": 3, "velocity": 82}, {"time": 3127, "pitch": 63, "duration": 4, "velocity": 74}, {"time": 3127, "pitch": 69, "duration": 7, "velocity": 83}, {"time": 3130, "pitch": 59, "duration": 2, "velocity": 79}, {"time": 3133, "pitch": 40, "duration": 20, "velocity": 84}, {"time": 3133, "pitch": 67, "duration": 5, "velocity": 75}, {"time": 3136, "pitch": 47, "duration": 12, "velocity": 77}, {"time": 3139, "pitch": 64, "duration": 1, "velocity": 78}, {"time": 3142, "pitch": 64, "duration": 9, "velocity": 85}, {"time": 3142, "pitch": 67, "duration": 11, "velocity": 83}, {"time": 3151, "pitch": 47, "duration": 6, "velocity": 85}, {"time": 3154, "pitch": 64, "duration": 2, "velocity": 82}, {"time": 3157, "pitch": 38, "duration": 20, "velocity": 87}, {"time": 3157, "pitch": 62, "duration": 4, "velocity": 76}, {"time": 3157, "pitch": 67, "duration": 7, "velocity": 82}, {"time": 3160, "pitch": 45, "duration": 13, "velocity": 77}, {"time": 3163, "pitch": 62, "duration": 2, "velocity": 87}, {"time": 3166, "pitch": 62, "duration": 9, "velocity": 88}, {"time": 3166, "pitch": 67, "duration": 11, "velocity": 83}, {"time": 3175, "pitch": 45, "duration": 3, "velocity": 80}, {"time": 3178, "pitch": 62, "duration": 4, "velocity": 84}, {"time": 3178, "pitch": 67, "duration": 1, "velocity": 49}, {"time": 3181, "pitch": 36, "duration": 25, "velocity": 70}, {"time": 3181, "pitch": 48, "duration": 23, "velocity": 87}, {"time": 3184, "pitch": 55, "duration": 20, "velocity": 72}, {"time": 3187, "pitch": 60, "duration": 4, "velocity": 74}, {"time": 3190, "pitch": 62, "duration": 7, "velocity": 85}, {"time": 3196, "pitch": 64, "duration": 5, "velocity": 83}, {"time": 3202, "pitch": 67, "duration": 10, "velocity": 75}, {"time": 3205, "pitch": 48, "duration": 21, "velocity": 83}, {"time": 3208, "pitch": 55, "duration": 7, "velocity": 74}, {"time": 3211, "pitch": 60, "duration": 2, "velocity": 79}, {"time": 3214, "pitch": 60, "duration": 5, "velocity": 86}, {"time": 3214, "pitch": 67, "duration": 8, "velocity": 84}, {"time": 3217, "pitch": 55, "duration": 10, "velocity": 80}, {"time": 3223, "pitch": 36, "duration": 6, "velocity": 75}, {"time": 3223, "pitch": 60, "duration": 2, "velocity": 82}, {"time": 3223, "pitch": 64, "duration": 6, "velocity": 84}, {"time": 3226, "pitch": 60, "duration": 2, "velocity": 76}, {"time": 3229, "pitch": 38, "duration": 16, "velocity": 86}, {"time": 3229, "pitch": 57, "duration": 6, "velocity": 82}, {"time": 3229, "pitch": 62, "duration": 8, "velocity": 83}, {"time": 3235, "pitch": 45, "duration": 10, "velocity": 77}, {"time": 3238, "pitch": 57, "duration": 5, "velocity": 87}, {"time": 3244, "pitch": 62, "duration": 5, "velocity": 86}, {"time": 3244, "pitch": 66, "duration": 5, "velocity": 93}, {"time": 3247, "pitch": 57, "duration": 1, "velocity": 49}, {"time": 3250, "pitch": 57, "duration": 4, "velocity": 83}, {"time": 3253, "pitch": 50, "duration": 23, "velocity": 83}, {"time": 3253, "pitch": 62, "duration": 3, "velocity": 85}, {"time": 3253, "pitch": 66, "duration": 4, "velocity": 82}, {"time": 3256, "pitch": 57, "duration": 8, "velocity": 76}, {"time": 3259, "pitch": 62, "duration": 1, "velocity": 91}, {"time": 3262, "pitch": 62, "duration": 4, "velocity": 86}, {"time": 3262, "pitch": 66, "duration": 4, "velocity": 84}, {"time": 3262, "pitch": 69, "duration": 4, "velocity": 86}, {"time": 3265, "pitch": 57, "duration": 4, "velocity": 79}, {"time": 3268, "pitch": 62, "duration": 3, "velocity": 84}, {"time": 3268, "pitch": 66, "duration": 8, "velocity": 83}, {"time": 3268, "pitch": 69, "duration": 8, "velocity": 83}, {"time": 3268, "pitch": 74, "duration": 9, "velocity": 84}, {"time": 3271, "pitch": 57, "duration": 6, "velocity": 75}, {"time": 3274, "pitch": 62, "duration": 3, "velocity": 81}, {"time": 3277, "pitch": 43, "duration": 21, "velocity": 82}, {"time": 3277, "pitch": 62, "duration": 7, "velocity": 82}, {"time": 3277, "pitch": 67, "duration": 7, "velocity": 73}, {"time": 3280, "pitch": 50, "duration": 18, "velocity": 73}, {"time": 3283, "pitch": 55, "duration": 10, "velocity": 84}, {"time": 3286, "pitch": 62, "duration": 7, "velocity": 81}, {"time": 3286, "pitch": 67, "duration": 7, "velocity": 82}, {"time": 3295, "pitch": 62, "duration": 13, "velocity": 79}, {"time": 3295, "pitch": 67, "duration": 4, "velocity": 81}, {"time": 3298, "pitch": 55, "duration": 4, "velocity": 81}, {"time": 3301, "pitch": 43, "duration": 23, "velocity": 84}, {"time": 3301, "pitch": 67, "duration": 7, "velocity": 81}, {"time": 3304, "pitch": 50, "duration": 17, "velocity": 74}, {"time": 3307, "pitch": 55, "duration": 4, "velocity": 82}, {"time": 3310, "pitch": 62, "duration": 4, "velocity": 82}, {"time": 3310, "pitch": 67, "duration": 4, "velocity": 82}, {"time": 3316, "pitch": 67, "duration": 5, "velocity": 82}, {"time": 3319, "pitch": 55, "duration": 6, "velocity": 82}, {"time": 3325, "pitch": 48, "duration": 22, "velocity": 83}, {"time": 3325, "pitch": 67, "duration": 6, "velocity": 80}, {"time": 3328, "pitch": 52, "duration": 19, "velocity": 66}, {"time": 3331, "pitch": 55, "duration": 9, "velocity": 83}, {"time": 3334, "pitch": 67, "duration": 6, "velocity": 86}, {"time": 3340, "pitch": 60, "duration": 4, "velocity": 78}, {"time": 3343, "pitch": 55, "duration": 8, "velocity": 84}, {"time": 3346, "pitch": 60, "duration": 10, "velocity": 83}, {"time": 3346, "pitch": 67, "duration": 10, "velocity": 82}, {"time": 3349, "pitch": 48, "duration": 18, "velocity": 91}, {"time": 3352, "pitch": 52, "duration": 18, "velocity": 74}, {"time": 3355, "pitch": 55, "duration": 10, "velocity": 82}, {"time": 3358, "pitch": 60, "duration": 5, "velocity": 85}, {"time": 3358, "pitch": 67, "duration": 5, "velocity": 83}, {"time": 3364, "pitch": 60, "duration": 6, "velocity": 82}, {"time": 3364, "pitch": 67, "duration": 8, "velocity": 81}, {"time": 3373, "pitch": 45, "duration": 22, "velocity": 82}, {"time": 3373, "pitch": 57, "duration": 3, "velocity": 77}, {"time": 3373, "pitch": 60, "duration": 7, "velocity": 79}, {"time": 3376, "pitch": 52, "duration": 19, "velocity": 75}, {"time": 3379, "pitch": 57, "duration": 2, "velocity": 69}, {"time": 3382, "pitch": 57, "duration": 5, "velocity": 75}, {"time": 3382, "pitch": 60, "duration": 5, "velocity": 76}, {"time": 3382, "pitch": 64, "duration": 5, "velocity": 82}, {"time": 3388, "pitch": 57, "duration": 3, "velocity": 80}, {"time": 3388, "pitch": 60, "duration": 4, "velocity": 83}, {"time": 3388, "pitch": 64, "duration": 2, "velocity": 84}, {"time": 3397, "pitch": 45, "duration": 19, "velocity": 83}, {"time": 3397, "pitch": 60, "duration": 4, "velocity": 80}, {"time": 3397, "pitch": 64, "duration": 4, "velocity": 74}, {"time": 3397, "pitch": 67, "duration": 4, "velocity": 75}, {"time": 3400, "pitch": 52, "duration": 8, "velocity": 77}, {"time": 3403, "pitch": 57, "duration": 2, "velocity": 76}, {"time": 3406, "pitch": 57, "duration": 4, "velocity": 74}, {"time": 3406, "pitch": 60, "duration": 4, "velocity": 82}, {"time": 3406, "pitch": 64, "duration": 4, "velocity": 84}, {"time": 3409, "pitch": 52, "duration": 5, "velocity": 77}, {"time": 3412, "pitch": 57, "duration": 1, "velocity": 78}, {"time": 3412, "pitch": 60, "duration": 4, "velocity": 88}, {"time": 3412, "pitch": 64, "duration": 5, "velocity": 88}, {"time": 3421, "pitch": 48, "duration": 15, "velocity": 83}, {"time": 3421, "pitch": 55, "duration": 3, "velocity": 77}, {"time": 3421, "pitch": 60, "duration": 6, "velocity": 79}, {"time": 3424, "pitch": 52, "duration": 13, "velocity": 78}, {"time": 3427, "pitch": 55, "duration": 7, "velocity": 77}, {"time": 3430, "pitch": 60, "duration": 5, "velocity": 82}, {"time": 3430, "pitch": 67, "duration": 4, "velocity": 82}, {"time": 3436, "pitch": 55, "duration": 1, "velocity": 72}, {"time": 3436, "pitch": 60, "duration": 4, "velocity": 83}, {"time": 3436, "pitch": 67, "duration": 8, "velocity": 80}, {"time": 3445, "pitch": 50, "duration": 25, "velocity": 91}, {"time": 3445, "pitch": 57, "duration": 2, "velocity": 82}, {"time": 3445, "pitch": 66, "duration": 6, "velocity": 82}, {"time": 3448, "pitch": 57, "duration": 4, "velocity": 71}, {"time": 3451, "pitch": 62, "duration": 2, "velocity": 73}, {"time": 3454, "pitch": 57, "duration": 3, "velocity": 73}, {"time": 3454, "pitch": 62, "duration": 4, "velocity": 82}, {"time": 3454, "pitch": 66, "duration": 16, "velocity": 81}, {"time": 3460, "pitch": 62, "duration": 10, "velocity": 82}, {"time": 3463, "pitch": 57, "duration": 7, "velocity": 75}, {"time": 3469, "pitch": 43, "duration": 21, "velocity": 82}, {"time": 3469, "pitch": 62, "duration": 1, "velocity": 82}, {"time": 3469, "pitch": 67, "duration": 7, "velocity": 73}, {"time": 3472, "pitch": 50, "duration": 18, "velocity": 73}, {"time": 3475, "pitch": 55, "duration": 10, "velocity": 84}, {"time": 3478, "pitch": 62, "duration": 7, "velocity": 81}, {"time": 3478, "pitch": 67, "duration": 7, "velocity": 82}, {"time": 3487, "pitch": 62, "duration": 13, "velocity": 79}, {"time": 3487, "pitch": 67, "duration": 4, "velocity": 81}, {"time": 3490, "pitch": 55, "duration": 4, "velocity": 81}, {"time": 3493, "pitch": 43, "duration": 23, "velocity": 84}, {"time": 3493, "pitch": 67, "duration": 7, "velocity": 81}, {"time": 3496, "pitch": 50, "duration": 17, "velocity": 74}, {"time": 3499, "pitch": 55, "duration": 4, "velocity": 82}, {"time": 3502, "pitch": 62, "duration": 4, "velocity": 82}, {"time": 3502, "pitch": 67, "duration": 4, "velocity": 82}, {"time": 3508, "pitch": 67, "duration": 5, "velocity": 82}, {"time": 3511, "pitch": 55, "duration": 6, "velocity": 82}, {"time": 3517, "pitch": 48, "duration": 22, "velocity": 83}, {"time": 3517, "pitch": 67, "duration": 6, "velocity": 80}, {"time": 3520, "pitch": 52, "duration": 19, "velocity": 66}, {"time": 3523, "pitch": 55, "duration": 9, "velocity": 83}, {"time": 3526, "pitch": 67, "duration": 6, "velocity": 86}, {"time": 3532, "pitch": 60, "duration": 4, "velocity": 78}, {"time": 3535, "pitch": 55, "duration": 8, "velocity": 84}, {"time": 3538, "pitch": 60, "duration": 10, "velocity": 83}, {"time": 3538, "pitch": 67, "duration": 10, "velocity": 82}, {"time": 3541, "pitch": 48, "duration": 18, "velocity": 91}, {"time": 3544, "pitch": 52, "duration": 18, "velocity": 74}, {"time": 3547, "pitch": 55, "duration": 10, "velocity": 82}, {"time": 3550, "pitch": 60, "duration": 5, "velocity": 85}, {"time": 3550, "pitch": 67, "duration": 5, "velocity": 83}, {"time": 3556, "pitch": 60, "duration": 6, "velocity": 82}, {"time": 3556, "pitch": 67, "duration": 8, "velocity": 81}, {"time": 3565, "pitch": 45, "duration": 22, "velocity": 82}, {"time": 3565, "pitch": 57, "duration": 3, "velocity": 77}, {"time": 3565, "pitch": 60, "duration": 7, "velocity": 79}, {"time": 3568, "pitch": 52, "duration": 19, "velocity": 75}, {"time": 3571, "pitch": 57, "duration": 2, "velocity": 69}, {"time": 3574, "pitch": 57, "duration": 5, "velocity": 75}, {"time": 3574, "pitch": 60, "duration": 5, "velocity": 76}, {"time": 3574, "pitch": 64, "duration": 5, "velocity": 82}, {"time": 3580, "pitch": 57, "duration": 3, "velocity": 80}, {"time": 3580, "pitch": 60, "duration": 4, "velocity": 83}, {"time": 3580, "pitch": 64, "duration": 2, "velocity": 84}, {"time": 3589, "pitch": 45, "duration": 19, "velocity": 83}, {"time": 3589, "pitch": 60, "duration": 4, "velocity": 80}, {"time": 3589, "pitch": 64, "duration": 4, "velocity": 74}, {"time": 3589, "pitch": 67, "duration": 4, "velocity": 75}, {"time": 3592, "pitch": 52, "duration": 8, "velocity": 77}, {"time": 3595, "pitch": 57, "duration": 2, "velocity": 76}, {"time": 3598, "pitch": 57, "duration": 4, "velocity": 74}, {"time": 3598, "pitch": 60, "duration": 4, "velocity": 82}, {"time": 3598, "pitch": 64, "duration": 4, "velocity": 84}, {"time": 3601, "pitch": 52, "duration": 5, "velocity": 77}, {"time": 3604, "pitch": 57, "duration": 1, "velocity": 78}, {"time": 3604, "pitch": 60, "duration": 4, "velocity": 88}, {"time": 3604, "pitch": 64, "duration": 5, "velocity": 88}, {"time": 3613, "pitch": 48, "duration": 15, "velocity": 83}, {"time": 3613, "pitch": 55, "duration": 3, "velocity": 77}, {"time": 3613, "pitch": 60, "duration": 6, "velocity": 79}, {"time": 3616, "pitch": 52, "duration": 13, "velocity": 78}, {"time": 3619, "pitch": 55, "duration": 7, "velocity": 77}, {"time": 3622, "pitch": 60, "duration": 5, "velocity": 82}, {"time": 3622, "pitch": 67, "duration": 4, "velocity": 82}, {"time": 3628, "pitch": 55, "duration": 1, "velocity": 72}, {"time": 3628, "pitch": 60, "duration": 4, "velocity": 83}, {"time": 3628, "pitch": 67, "duration": 8, "velocity": 80}, {"time": 3637, "pitch": 50, "duration": 25, "velocity": 91}, {"time": 3637, "pitch": 57, "duration": 2, "velocity": 82}, {"time": 3637, "pitch": 66, "duration": 6, "velocity": 82}, {"time": 3640, "pitch": 57, "duration": 4, "velocity": 71}, {"time": 3643, "pitch": 62, "duration": 2, "velocity": 73}, {"time": 3646, "pitch": 57, "duration": 3, "velocity": 73}, {"time": 3646, "pitch": 62, "duration": 4, "velocity": 82}, {"time": 3646, "pitch": 66, "duration": 16, "velocity": 81}, {"time": 3652, "pitch": 62, "duration": 10, "velocity": 82}, {"time": 3655, "pitch": 57, "duration": 7, "velocity": 75}], "annotations": [{"time": 205, "annotation": {"number": 64, "value": 127}, "group": "control_change"}, {"time": 205, "annotation": {"number": 64, "value": 0}, "group": "control_change"}, {"time": 227, "annotation": {"number": 64, "value": 0}, "group": "control_change"}, {"time": 230, "annotation": {"number": 64, "value": 127}, "group": "control_change"}, {"time": 251, "annotation": {"number": 64, "value": 0}, "group": "control_change"}, {"time": 254, "annotation": {"number": 64, "value": 127}, "group": "control_change"}, {"time": 275, "annotation": {"number": 64, "value": 0}, "group": "control_change"}, {"time": 277, "annotation": {"number": 64, "value": 127}, "group": "control_change"}, {"time": 288, "annotation": {"number": 64, "value": 0}, "group": "control_change"}, {"time": 291, "annotation": {"number": 64, "value": 127}, "group": "control_change"}, {"time": 299, "annotation": {"number": 64, "value": 0}, "group": "control_change"}, {"time": 304, "annotation": {"number": 64, "value": 127}, "group": "control_change"}, {"time": 323, "annotation": {"number": 64, "value": 0}, "group": "control_change"}, {"time": 326, "annotation": {"number": 64, "value": 127}, "group": "control_change"}, {"time": 347, "annotation": {"number": 64, "value": 0}, "group": "control_change"}, {"time": 351, "annotation": {"number": 64, "value": 127}, "group": "control_change"}, {"time": 371, "annotation": {"number": 64, "value": 0}, "group": "control_change"}, {"time": 373, "annotation": {"number": 64, "value": 127}, "group": "control_change"}, {"time": 384, "annotation": {"number": 64, "value": 0}, "group": "control_change"}, {"time": 386, "annotation": {"number": 64, "value": 127}, "group": "control_change"}, {"time": 394, "annotation": {"number": 64, "value": 0}, "group": "control_change"}, {"time": 398, "annotation": {"number": 64, "value": 127}, "group": "control_change"}, {"time": 419, "annotation": {"number": 64, "value": 0}, "group": "control_change"}, {"time": 422, "annotation": {"number": 64, "value": 127}, "group": "control_change"}, {"time": 444, "annotation": {"number": 64, "value": 0}, "group": "control_change"}, {"time": 449, "annotation": {"number": 64, "value": 127}, "group": "control_change"}, {"time": 449, "annotation": {"number": 64, "value": 0}, "group": "control_change"}, {"time": 467, "annotation": {"number": 64, "value": 0}, "group": "control_change"}, {"time": 469, "annotation": {"number": 64, "value": 127}, "group": "control_change"}, {"time": 480, "annotation": {"number": 64, "value": 0}, "group": "control_change"}, {"time": 483, "annotation": {"number": 64, "value": 127}, "group": "control_change"}, {"time": 488, "annotation": {"number": 64, "value": 0}, "group": "control_change"}, {"time": 494, "annotation": {"number": 64, "value": 127}, "group": "control_change"}, {"time": 515, "annotation": {"number": 64, "value": 0}, "group": "control_change"}, {"time": 518, "annotation": {"number": 64, "value": 127}, "group": "control_change"}, {"time": 540, "annotation": {"number": 64, "value": 0}, "group": "control_change"}, {"time": 545, "annotation": {"number": 64, "value": 127}, "group": "control_change"}, {"time": 545, "annotation": {"number": 64, "value": 0}, "group": "control_change"}, {"time": 563, "annotation": {"number": 64, "value": 0}, "group": "control_change"}, {"time": 565, "annotation": {"number": 64, "value": 127}, "group": "control_change"}, {"time": 576, "annotation": {"number": 64, "value": 0}, "group": "control_change"}, {"time": 579, "annotation": {"number": 64, "value": 127}, "group": "control_change"}, {"time": 584, "annotation": {"number": 64, "value": 0}, "group": "control_change"}, {"time": 590, "annotation": {"number": 64, "value": 127}, "group": "control_change"}, {"time": 611, "annotation": {"number": 64, "value": 0}, "group": "control_change"}, {"time": 614, "annotation": {"number": 64, "value": 127}, "group": "control_change"}, {"time": 636, "annotation": {"number": 64, "value": 0}, "group": "control_change"}, {"time": 641, "annotation": {"number": 64, "value": 127}, "group": "control_change"}, {"time": 641, "annotation": {"number": 64, "value": 0}, "group": "control_change"}, {"time": 659, "annotation": {"number": 64, "value": 0}, "group": "control_change"}, {"time": 661, "annotation": {"number": 64, "value": 127}, "group": "control_change"}, {"time": 672, "annotation": {"number": 64, "value": 0}, "group": "control_change"}, {"time": 675, "annotation": {"number": 64, "value": 127}, "group": "control_change"}, {"time": 680, "annotation": {"number": 64, "value": 0}, "group": "control_change"}, {"time": 686, "annotation": {"number": 64, "value": 127}, "group": "control_change"}, {"time": 707, "annotation": {"number": 64, "value": 0}, "group": "control_change"}, {"time": 710, "annotation": {"number": 64, "value": 127}, "group": "control_change"}, {"time": 732, "annotation": {"number": 64, "value": 0}, "group": "control_change"}, {"time": 737, "annotation": {"number": 64, "value": 127}, "group": "control_change"}, {"time": 737, "annotation": {"number": 64, "value": 0}, "group": "control_change"}, {"time": 755, "annotation": {"number": 64, "value": 0}, "group": "control_change"}, {"time": 757, "annotation": {"number": 64, "value": 127}, "group": "control_change"}, {"time": 768, "annotation": {"number": 64, "value": 0}, "group": "control_change"}, {"time": 771, "annotation": {"number": 64, "value": 127}, "group": "control_change"}, {"time": 776, "annotation": {"number": 64, "value": 0}, "group": "control_change"}, {"time": 787, "annotation": {"number": 64, "value": 127}, "group": "control_change"}, {"time": 803, "annotation": {"number": 64, "value": 0}, "group": "control_change"}, {"time": 807, "annotation": {"number": 64, "value": 127}, "group": "control_change"}, {"time": 826, "annotation": {"number": 64, "value": 0}, "group": "control_change"}, {"time": 830, "annotation": {"number": 64, "value": 127}, "group": "control_change"}, {"time": 851, "annotation": {"number": 64, "value": 0}, "group": "control_change"}, {"time": 853, "annotation": {"number": 64, "value": 127}, "group": "control_change"}, {"time": 864, "annotation": {"number": 64, "value": 0}, "group": "control_change"}, {"time": 865, "annotation": {"number": 64, "value": 127}, "group": "control_change"}, {"time": 875, "annotation": {"number": 64, "value": 0}, "group": "control_change"}, {"time": 883, "annotation": {"number": 64, "value": 127}, "group": "control_change"}, {"time": 899, "annotation": {"number": 64, "value": 0}, "group": "control_change"}, {"time": 903, "annotation": {"number": 64, "value": 127}, "group": "control_change"}, {"time": 922, "annotation": {"number": 64, "value": 0}, "group": "control_change"}, {"time": 926, "annotation": {"number": 64, "value": 127}, "group": "control_change"}, {"time": 947, "annotation": {"number": 64, "value": 0}, "group": "control_change"}, {"time": 949, "annotation": {"number": 64, "value": 127}, "group": "control_change"}, {"time": 960, "annotation": {"number": 64, "value": 0}, "group": "control_change"}, {"time": 961, "annotation": {"number": 64, "value": 127}, "group": "control_change"}, {"time": 971, "annotation": {"number": 64, "value": 0}, "group": "control_change"}, {"time": 979, "annotation": {"number": 64, "value": 127}, "group": "control_change"}, {"time": 995, "annotation": {"number": 64, "value": 0}, "group": "control_change"}, {"time": 999, "annotation": {"number": 64, "value": 127}, "group": "control_change"}, {"time": 1018, "annotation": {"number": 64, "value": 0}, "group": "control_change"}, {"time": 1022, "annotation": {"number": 64, "value": 127}, "group": "control_change"}, {"time": 1043, "annotation": {"number": 64, "value": 0}, "group": "control_change"}, {"time": 1045, "annotation": {"number": 64, "value": 127}, "group": "control_change"}, {"time": 1056, "annotation": {"number": 64, "value": 0}, "group": "control_change"}, {"time": 1057, "annotation": {"number": 64, "value": 127}, "group": "control_change"}, {"time": 1067, "annotation": {"number": 64, "value": 0}, "group": "control_change"}, {"time": 1075, "annotation": {"number": 64, "value": 127}, "group": "control_change"}, {"time": 1091, "annotation": {"number": 64, "value": 0}, "group": "control_change"}, {"time": 1095, "annotation": {"number": 64, "value": 127}, "group": "control_change"}, {"time": 1114, "annotation": {"number": 64, "value": 0}, "group": "control_change"}, {"time": 1117, "annotation": {"number": 64, "value": 127}, "group": "control_change"}, {"time": 1117, "annotation": {"number": 64, "value": 0}, "group": "control_change"}, {"time": 1159, "annotation": {"number": 64, "value": 0}, "group": "control_change"}, {"time": 1166, "annotation": {"number": 64, "value": 127}, "group": "control_change"}, {"time": 1186, "annotation": {"number": 64, "value": 0}, "group": "control_change"}, {"time": 1191, "annotation": {"number": 64, "value": 127}, "group": "control_change"}, {"time": 1210, "annotation": {"number": 64, "value": 0}, "group": "control_change"}, {"time": 1215, "annotation": {"number": 64, "value": 127}, "group": "control_change"}, {"time": 1235, "annotation": {"number": 64, "value": 0}, "group": "control_change"}, {"time": 1238, "annotation": {"number": 64, "value": 127}, "group": "control_change"}, {"time": 1259, "annotation": {"number": 64, "value": 0}, "group": "control_change"}, {"time": 1263, "annotation": {"number": 64, "value": 127}, "group": "control_change"}, {"time": 1284, "annotation": {"number": 64, "value": 0}, "group": "control_change"}, {"time": 1288, "annotation": {"number": 64, "value": 127}, "group": "control_change"}, {"time": 1307, "annotation": {"number": 64, "value": 0}, "group": "control_change"}, {"time": 1310, "annotation": {"number": 64, "value": 127}, "group": "control_change"}, {"time": 1332, "annotation": {"number": 64, "value": 0}, "group": "control_change"}, {"time": 1334, "annotation": {"number": 64, "value": 127}, "group": "control_change"}, {"time": 1356, "annotation": {"number": 64, "value": 0}, "group": "control_change"}, {"time": 1358, "annotation": {"number": 64, "value": 127}, "group": "control_change"}, {"time": 1379, "annotation": {"number": 64, "value": 0}, "group": "control_change"}, {"time": 1381, "annotation": {"number": 64, "value": 127}, "group": "control_change"}, {"time": 1404, "annotation": {"number": 64, "value": 0}, "group": "control_change"}, {"time": 1406, "annotation": {"number": 64, "value": 127}, "group": "control_change"}, {"time": 1428, "annotation": {"number": 64, "value": 0}, "group": "control_change"}, {"time": 1430, "annotation": {"number": 64, "value": 127}, "group": "control_change"}, {"time": 1450, "annotation": {"number": 64, "value": 0}, "group": "control_change"}, {"time": 1453, "annotation": {"number": 64, "value": 127}, "group": "control_change"}, {"time": 1477, "annotation": {"number": 64, "value": 0}, "group": "control_change"}, {"time": 1479, "annotation": {"number": 64, "value": 127}, "group": "control_change"}, {"time": 1499, "annotation": {"number": 64, "value": 0}, "group": "control_change"}, {"time": 1502, "annotation": {"number": 64, "value": 127}, "group": "control_change"}, {"time": 1502, "annotation": {"number": 64, "value": 0}, "group": "control_change"}, {"time": 1503, "annotation": {"number": 64, "value": 127}, "group": "control_change"}, {"time": 1525, "annotation": {"number": 64, "value": 0}, "group": "control_change"}, {"time": 1527, "annotation": {"number": 64, "value": 127}, "group": "control_change"}, {"time": 1547, "annotation": {"number": 64, "value": 0}, "group": "control_change"}, {"time": 1550, "annotation": {"number": 64, "value": 127}, "group": "control_change"}, {"time": 1570, "annotation": {"number": 64, "value": 0}, "group": "control_change"}, {"time": 1575, "annotation": {"number": 64, "value": 127}, "group": "control_change"}, {"time": 1594, "annotation": {"number": 64, "value": 0}, "group": "control_change"}, {"time": 1599, "annotation": {"number": 64, "value": 127}, "group": "control_change"}, {"time": 1619, "annotation": {"number": 64, "value": 0}, "group": "control_change"}, {"time": 1622, "annotation": {"number": 64, "value": 127}, "group": "control_change"}, {"time": 1643, "annotation": {"number": 64, "value": 0}, "group": "control_change"}, {"time": 1647, "annotation": {"number": 64, "value": 127}, "group": "control_change"}, {"time": 1668, "annotation": {"number": 64, "value": 0}, "group": "control_change"}, {"time": 1672, "annotation": {"number": 64, "value": 127}, "group": "control_change"}, {"time": 1691, "annotation": {"number": 64, "value": 0}, "group": "control_change"}, {"time": 1694, "annotation": {"number": 64, "value": 127}, "group": "control_change"}, {"time": 1716, "annotation": {"number": 64, "value": 0}, "group": "control_change"}, {"time": 1718, "annotation": {"number": 64, "value": 127}, "group": "control_change"}, {"time": 1740, "annotation": {"number": 64, "value": 0}, "group": "control_change"}, {"time": 1742, "annotation": {"number": 64, "value": 127}, "group": "control_change"}, {"time": 1763, "annotation": {"number": 64, "value": 0}, "group": "control_change"}, {"time": 1765, "annotation": {"number": 64, "value": 127}, "group": "control_change"}, {"time": 1788, "annotation": {"number": 64, "value": 0}, "group": "control_change"}, {"time": 1790, "annotation": {"number": 64, "value": 127}, "group": "control_change"}, {"time": 1812, "annotation": {"number": 64, "value": 0}, "group": "control_change"}, {"time": 1814, "annotation": {"number": 64, "value": 127}, "group": "control_change"}, {"time": 1834, "annotation": {"number": 64, "value": 0}, "group": "control_change"}, {"time": 1837, "annotation": {"number": 64, "value": 127}, "group": "control_change"}, {"time": 1861, "annotation": {"number": 64, "value": 0}, "group": "control_change"}, {"time": 1863, "annotation": {"number": 64, "value": 127}, "group": "control_change"}, {"time": 1883, "annotation": {"number": 64, "value": 0}, "group": "control_change"}, {"time": 1886, "annotation": {"number": 64, "value": 127}, "group": "control_change"}, {"time": 1886, "annotation": {"number": 64, "value": 0}, "group": "control_change"}, {"time": 1887, "annotation": {"number": 64, "value": 127}, "group": "control_change"}, {"time": 1909, "annotation": {"number": 64, "value": 0}, "group": "control_change"}, {"time": 1911, "annotation": {"number": 64, "value": 127}, "group": "control_change"}, {"time": 1931, "annotation": {"number": 64, "value": 0}, "group": "control_change"}, {"time": 1938, "annotation": {"number": 64, "value": 127}, "group": "control_change"}, {"time": 1957, "annotation": {"number": 64, "value": 0}, "group": "control_change"}, {"time": 1961, "annotation": {"number": 64, "value": 127}, "group": "control_change"}, {"time": 1979, "annotation": {"number": 64, "value": 0}, "group": "control_change"}, {"time": 1982, "annotation": {"number": 64, "value": 127}, "group": "control_change"}, {"time": 2004, "annotation": {"number": 64, "value": 0}, "group": "control_change"}, {"time": 2006, "annotation": {"number": 64, "value": 127}, "group": "control_change"}, {"time": 2028, "annotation": {"number": 64, "value": 0}, "group": "control_change"}, {"time": 2030, "annotation": {"number": 64, "value": 127}, "group": "control_change"}, {"time": 2052, "annotation": {"number": 64, "value": 0}, "group": "control_change"}, {"time": 2054, "annotation": {"number": 64, "value": 127}, "group": "control_change"}, {"time": 2076, "annotation": {"number": 64, "value": 0}, "group": "control_change"}, {"time": 2079, "annotation": {"number": 64, "value": 127}, "group": "control_change"}, {"time": 2099, "annotation": {"number": 64, "value": 0}, "group": "control_change"}, {"time": 2102, "annotation": {"number": 64, "value": 127}, "group": "control_change"}, {"time": 2118, "annotation": {"number": 64, "value": 0}, "group": "control_change"}, {"time": 2131, "annotation": {"number": 64, "value": 127}, "group": "control_change"}, {"time": 2147, "annotation": {"number": 64, "value": 0}, "group": "control_change"}, {"time": 2151, "annotation": {"number": 64, "value": 127}, "group": "control_change"}, {"time": 2170, "annotation": {"number": 64, "value": 0}, "group": "control_change"}, {"time": 2174, "annotation": {"number": 64, "value": 127}, "group": "control_change"}, {"time": 2195, "annotation": {"number": 64, "value": 0}, "group": "control_change"}, {"time": 2197, "annotation": {"number": 64, "value": 127}, "group": "control_change"}, {"time": 2208, "annotation": {"number": 64, "value": 0}, "group": "control_change"}, {"time": 2209, "annotation": {"number": 64, "value": 127}, "group": "control_change"}, {"time": 2219, "annotation": {"number": 64, "value": 0}, "group": "control_change"}, {"time": 2227, "annotation": {"number": 64, "value": 127}, "group": "control_change"}, {"time": 2243, "annotation": {"number": 64, "value": 0}, "group": "control_change"}, {"time": 2247, "annotation": {"number": 64, "value": 127}, "group": "control_change"}, {"time": 2266, "annotation": {"number": 64, "value": 0}, "group": "control_change"}, {"time": 2270, "annotation": {"number": 64, "value": 127}, "group": "control_change"}, {"time": 2291, "annotation": {"number": 64, "value": 0}, "group": "control_change"}, {"time": 2293, "annotation": {"number": 64, "value": 127}, "group": "control_change"}, {"time": 2304, "annotation": {"number": 64, "value": 0}, "group": "control_change"}, {"time": 2305, "annotation": {"number": 64, "value": 127}, "group": "control_change"}, {"time": 2315, "annotation": {"number": 64, "value": 0}, "group": "control_change"}, {"time": 2323, "annotation": {"number": 64, "value": 127}, "group": "control_change"}, {"time": 2339, "annotation": {"number": 64, "value": 0}, "group": "control_change"}, {"time": 2343, "annotation": {"number": 64, "value": 127}, "group": "control_change"}, {"time": 2362, "annotation": {"number": 64, "value": 0}, "group": "control_change"}, {"time": 2366, "annotation": {"number": 64, "value": 127}, "group": "control_change"}, {"time": 2387, "annotation": {"number": 64, "value": 0}, "group": "control_change"}, {"time": 2389, "annotation": {"number": 64, "value": 127}, "group": "control_change"}, {"time": 2400, "annotation": {"number": 64, "value": 0}, "group": "control_change"}, {"time": 2401, "annotation": {"number": 64, "value": 127}, "group": "control_change"}, {"time": 2411, "annotation": {"number": 64, "value": 0}, "group": "control_change"}, {"time": 2419, "annotation": {"number": 64, "value": 127}, "group": "control_change"}, {"time": 2435, "annotation": {"number": 64, "value": 0}, "group": "control_change"}, {"time": 2439, "annotation": {"number": 64, "value": 127}, "group": "control_change"}, {"time": 2458, "annotation": {"number": 64, "value": 0}, "group": "control_change"}, {"time": 2461, "annotation": {"number": 64, "value": 127}, "group": "control_change"}, {"time": 2461, "annotation": {"number": 64, "value": 0}, "group": "control_change"}, {"time": 2503, "annotation": {"number": 64, "value": 0}, "group": "control_change"}, {"time": 2510, "annotation": {"number": 64, "value": 127}, "group": "control_change"}, {"time": 2530, "annotation": {"number": 64, "value": 0}, "group": "control_change"}, {"time": 2535, "annotation": {"number": 64, "value": 127}, "group": "control_change"}, {"time": 2554, "annotation": {"number": 64, "value": 0}, "group": "control_change"}, {"time": 2559, "annotation": {"number": 64, "value": 127}, "group": "control_change"}, {"time": 2579, "annotation": {"number": 64, "value": 0}, "group": "control_change"}, {"time": 2582, "annotation": {"number": 64, "value": 127}, "group": "control_change"}, {"time": 2603, "annotation": {"number": 64, "value": 0}, "group": "control_change"}, {"time": 2607, "annotation": {"number": 64, "value": 127}, "group": "control_change"}, {"time": 2628, "annotation": {"number": 64, "value": 0}, "group": "control_change"}, {"time": 2632, "annotation": {"number": 64, "value": 127}, "group": "control_change"}, {"time": 2651, "annotation": {"number": 64, "value": 0}, "group": "control_change"}, {"time": 2654, "annotation": {"number": 64, "value": 127}, "group": "control_change"}, {"time": 2676, "annotation": {"number": 64, "value": 0}, "group": "control_change"}, {"time": 2678, "annotation": {"number": 64, "value": 127}, "group": "control_change"}, {"time": 2700, "annotation": {"number": 64, "value": 0}, "group": "control_change"}, {"time": 2702, "annotation": {"number": 64, "value": 127}, "group": "control_change"}, {"time": 2723, "annotation": {"number": 64, "value": 0}, "group": "control_change"}, {"time": 2725, "annotation": {"number": 64, "value": 127}, "group": "control_change"}, {"time": 2748, "annotation": {"number": 64, "value": 0}, "group": "control_change"}, {"time": 2750, "annotation": {"number": 64, "value": 127}, "group": "control_change"}, {"time": 2772, "annotation": {"number": 64, "value": 0}, "group": "control_change"}, {"time": 2774, "annotation": {"number": 64, "value": 127}, "group": "control_change"}, {"time": 2794, "annotation": {"number": 64, "value": 0}, "group": "control_change"}, {"time": 2797, "annotation": {"number": 64, "value": 127}, "group": "control_change"}, {"time": 2821, "annotation": {"number": 64, "value": 0}, "group": "control_change"}, {"time": 2823, "annotation": {"number": 64, "value": 127}, "group": "control_change"}, {"time": 2843, "annotation": {"number": 64, "value": 0}, "group": "control_change"}, {"time": 2846, "annotation": {"number": 64, "value": 127}, "group": "control_change"}, {"time": 2846, "annotation": {"number": 64, "value": 0}, "group": "control_change"}, {"time": 2847, "annotation": {"number": 64, "value": 127}, "group": "control_change"}, {"time": 2869, "annotation": {"number": 64, "value": 0}, "group": "control_change"}, {"time": 2871, "annotation": {"number": 64, "value": 127}, "group": "control_change"}, {"time": 2891, "annotation": {"number": 64, "value": 0}, "group": "control_change"}, {"time": 2894, "annotation": {"number": 64, "value": 127}, "group": "control_change"}, {"time": 2914, "annotation": {"number": 64, "value": 0}, "group": "control_change"}, {"time": 2919, "annotation": {"number": 64, "value": 127}, "group": "control_change"}, {"time": 2938, "annotation": {"number": 64, "value": 0}, "group": "control_change"}, {"time": 2943, "annotation": {"number": 64, "value": 127}, "group": "control_change"}, {"time": 2963, "annotation": {"number": 64, "value": 0}, "group": "control_change"}, {"time": 2966, "annotation": {"number": 64, "value": 127}, "group": "control_change"}, {"time": 2987, "annotation": {"number": 64, "value": 0}, "group": "control_change"}, {"time": 2991, "annotation": {"number": 64, "value": 127}, "group": "control_change"}, {"time": 3012, "annotation": {"number": 64, "value": 0}, "group": "control_change"}, {"time": 3016, "annotation": {"number": 64, "value": 127}, "group": "control_change"}, {"time": 3035, "annotation": {"number": 64, "value": 0}, "group": "control_change"}, {"time": 3038, "annotation": {"number": 64, "value": 127}, "group": "control_change"}, {"time": 3060, "annotation": {"number": 64, "value": 0}, "group": "control_change"}, {"time": 3062, "annotation": {"number": 64, "value": 127}, "group": "control_change"}, {"time": 3084, "annotation": {"number": 64, "value": 0}, "group": "control_change"}, {"time": 3086, "annotation": {"number": 64, "value": 127}, "group": "control_change"}, {"time": 3107, "annotation": {"number": 64, "value": 0}, "group": "control_change"}, {"time": 3109, "annotation": {"number": 64, "value": 127}, "group": "control_change"}, {"time": 3132, "annotation": {"number": 64, "value": 0}, "group": "control_change"}, {"time": 3134, "annotation": {"number": 64, "value": 127}, "group": "control_change"}, {"time": 3156, "annotation": {"number": 64, "value": 0}, "group": "control_change"}, {"time": 3158, "annotation": {"number": 64, "value": 127}, "group": "control_change"}, {"time": 3178, "annotation": {"number": 64, "value": 0}, "group": "control_change"}, {"time": 3181, "annotation": {"number": 64, "value": 127}, "group": "control_change"}, {"time": 3205, "annotation": {"number": 64, "value": 0}, "group": "control_change"}, {"time": 3207, "annotation": {"number": 64, "value": 127}, "group": "control_change"}, {"time": 3227, "annotation": {"number": 64, "value": 0}, "group": "control_change"}, {"time": 3230, "annotation": {"number": 64, "value": 127}, "group": "control_change"}, {"time": 3230, "annotation": {"number": 64, "value": 0}, "group": "control_change"}, {"time": 3231, "annotation": {"number": 64, "value": 127}, "group": "control_change"}, {"time": 3253, "annotation": {"number": 64, "value": 0}, "group": "control_change"}, {"time": 3255, "annotation": {"number": 64, "value": 127}, "group": "control_change"}, {"time": 3275, "annotation": {"number": 64, "value": 0}, "group": "control_change"}, {"time": 3282, "annotation": {"number": 64, "value": 127}, "group": "control_change"}, {"time": 3301, "annotation": {"number": 64, "value": 0}, "group": "control_change"}, {"time": 3305, "annotation": {"number": 64, "value": 127}, "group": "control_change"}, {"time": 3323, "annotation": {"number": 64, "value": 0}, "group": "control_change"}, {"time": 3326, "annotation": {"number": 64, "value": 127}, "group": "control_change"}, {"time": 3348, "annotation": {"number": 64, "value": 0}, "group": "control_change"}, {"time": 3350, "annotation": {"number": 64, "value": 127}, "group": "control_change"}, {"time": 3372, "annotation": {"number": 64, "value": 0}, "group": "control_change"}, {"time": 3374, "annotation": {"number": 64, "value": 127}, "group": "control_change"}, {"time": 3396, "annotation": {"number": 64, "value": 0}, "group": "control_change"}, {"time": 3398, "annotation": {"number": 64, "value": 127}, "group": "control_change"}, {"time": 3420, "annotation": {"number": 64, "value": 0}, "group": "control_change"}, {"time": 3423, "annotation": {"number": 64, "value": 127}, "group": "control_change"}, {"time": 3443, "annotation": {"number": 64, "value": 0}, "group": "control_change"}, {"time": 3446, "annotation": {"number": 64, "value": 127}, "group": "control_change"}, {"time": 3462, "annotation": {"number": 64, "value": 0}, "group": "control_change"}, {"time": 3474, "annotation": {"number": 64, "value": 127}, "group": "control_change"}, {"time": 3493, "annotation": {"number": 64, "value": 0}, "group": "control_change"}, {"time": 3497, "annotation": {"number": 64, "value": 127}, "group": "control_change"}, {"time": 3515, "annotation": {"number": 64, "value": 0}, "group": "control_change"}, {"time": 3518, "annotation": {"number": 64, "value": 127}, "group": "control_change"}, {"time": 3540, "annotation": {"number": 64, "value": 0}, "group": "control_change"}, {"time": 3542, "annotation": {"number": 64, "value": 127}, "group": "control_change"}, {"time": 3564, "annotation": {"number": 64, "value": 0}, "group": "control_change"}, {"time": 3566, "annotation": {"number": 64, "value": 127}, "group": "control_change"}, {"time": 3588, "annotation": {"number": 64, "value": 0}, "group": "control_change"}, {"time": 3590, "annotation": {"number": 64, "value": 127}, "group": "control_change"}, {"time": 3612, "annotation": {"number": 64, "value": 0}, "group": "control_change"}, {"time": 3615, "annotation": {"number": 64, "value": 127}, "group": "control_change"}, {"time": 3635, "annotation": {"number": 64, "value": 0}, "group": "control_change"}, {"time": 3638, "annotation": {"number": 64, "value": 127}, "group": "control_change"}, {"time": 3654, "annotation": {"number": 64, "value": 0}, "group": "control_change"}]}]}