{"metadata": {"schema_version": "0.2", "title": "None", "source_filename": "517.mid", "source_format": "midi"}, "resolution": 12, "tempos": [{"time": 0, "qpm": 63.000063000063}], "time_signatures": [{"time": 0, "numerator": 1, "denominator": 4}], "tracks": [{"program": 0, "is_drum": false, "name": "MELODY", "notes": [{"time": 405, "pitch": 68, "duration": 7, "velocity": 96}, {"time": 411, "pitch": 75, "duration": 5, "velocity": 95}, {"time": 417, "pitch": 75, "duration": 5, "velocity": 94}, {"time": 423, "pitch": 73, "duration": 5, "velocity": 101}, {"time": 429, "pitch": 75, "duration": 21, "velocity": 97}, {"time": 453, "pitch": 70, "duration": 5, "velocity": 91}, {"time": 459, "pitch": 70, "duration": 3, "velocity": 94}, {"time": 462, "pitch": 70, "duration": 3, "velocity": 94}, {"time": 465, "pitch": 68, "duration": 6, "velocity": 93}, {"time": 471, "pitch": 66, "duration": 7, "velocity": 91}, {"time": 477, "pitch": 68, "duration": 20, "velocity": 94}, {"time": 501, "pitch": 68, "duration": 6, "velocity": 96}, {"time": 507, "pitch": 73, "duration": 4, "velocity": 95}, {"time": 513, "pitch": 73, "duration": 5, "velocity": 104}, {"time": 519, "pitch": 71, "duration": 5, "velocity": 95}, {"time": 525, "pitch": 73, "duration": 5, "velocity": 97}, {"time": 531, "pitch": 71, "duration": 5, "velocity": 95}, {"time": 537, "pitch": 68, "duration": 10, "velocity": 94}, {"time": 549, "pitch": 71, "duration": 6, "velocity": 93}, {"time": 555, "pitch": 68, "duration": 6, "velocity": 94}, {"time": 561, "pitch": 71, "duration": 5, "velocity": 96}, {"time": 567, "pitch": 73, "duration": 5, "velocity": 95}, {"time": 573, "pitch": 75, "duration": 22, "velocity": 92}, {"time": 597, "pitch": 75, "duration": 5, "velocity": 97}, {"time": 603, "pitch": 80, "duration": 11, "velocity": 97}, {"time": 615, "pitch": 75, "duration": 5, "velocity": 101}, {"time": 621, "pitch": 73, "duration": 21, "velocity": 97}, {"time": 645, "pitch": 75, "duration": 5, "velocity": 95}, {"time": 651, "pitch": 78, "duration": 5, "velocity": 97}, {"time": 657, "pitch": 73, "duration": 5, "velocity": 97}, {"time": 663, "pitch": 75, "duration": 5, "velocity": 92}, {"time": 669, "pitch": 71, "duration": 15, "velocity": 92}, {"time": 693, "pitch": 73, "duration": 8, "velocity": 97}, {"time": 702, "pitch": 73, "duration": 2, "velocity": 94}, {"time": 705, "pitch": 73, "duration": 5, "velocity": 97}, {"time": 711, "pitch": 68, "duration": 5, "velocity": 92}, {"time": 717, "pitch": 73, "duration": 6, "velocity": 97}, {"time": 723, "pitch": 75, "duration": 5, "velocity": 94}, {"time": 729, "pitch": 73, "duration": 10, "velocity": 97}, {"time": 741, "pitch": 66, "duration": 6, "velocity": 94}, {"time": 747, "pitch": 63, "duration": 11, "velocity": 101}, {"time": 759, "pitch": 66, "duration": 5, "velocity": 92}, {"time": 765, "pitch": 68, "duration": 22, "velocity": 90}, {"time": 789, "pitch": 68, "duration": 7, "velocity": 96}, {"time": 795, "pitch": 75, "duration": 5, "velocity": 95}, {"time": 801, "pitch": 75, "duration": 5, "velocity": 94}, {"time": 807, "pitch": 73, "duration": 5, "velocity": 101}, {"time": 813, "pitch": 75, "duration": 21, "velocity": 97}, {"time": 837, "pitch": 70, "duration": 5, "velocity": 91}, {"time": 843, "pitch": 70, "duration": 3, "velocity": 94}, {"time": 846, "pitch": 70, "duration": 3, "velocity": 94}, {"time": 849, "pitch": 68, "duration": 6, "velocity": 93}, {"time": 855, "pitch": 66, "duration": 7, "velocity": 91}, {"time": 861, "pitch": 68, "duration": 20, "velocity": 94}, {"time": 885, "pitch": 68, "duration": 6, "velocity": 96}, {"time": 891, "pitch": 73, "duration": 4, "velocity": 95}, {"time": 897, "pitch": 73, "duration": 5, "velocity": 104}, {"time": 903, "pitch": 71, "duration": 5, "velocity": 95}, {"time": 909, "pitch": 73, "duration": 5, "velocity": 97}, {"time": 915, "pitch": 71, "duration": 5, "velocity": 95}, {"time": 921, "pitch": 68, "duration": 10, "velocity": 94}, {"time": 933, "pitch": 71, "duration": 6, "velocity": 93}, {"time": 939, "pitch": 68, "duration": 6, "velocity": 94}, {"time": 945, "pitch": 71, "duration": 5, "velocity": 96}, {"time": 951, "pitch": 73, "duration": 5, "velocity": 95}, {"time": 957, "pitch": 75, "duration": 22, "velocity": 92}, {"time": 981, "pitch": 75, "duration": 5, "velocity": 97}, {"time": 987, "pitch": 80, "duration": 11, "velocity": 97}, {"time": 999, "pitch": 75, "duration": 5, "velocity": 101}, {"time": 1005, "pitch": 73, "duration": 21, "velocity": 97}, {"time": 1029, "pitch": 75, "duration": 5, "velocity": 95}, {"time": 1035, "pitch": 78, "duration": 5, "velocity": 97}, {"time": 1041, "pitch": 73, "duration": 5, "velocity": 97}, {"time": 1047, "pitch": 75, "duration": 5, "velocity": 92}, {"time": 1053, "pitch": 71, "duration": 15, "velocity": 92}, {"time": 1077, "pitch": 73, "duration": 8, "velocity": 97}, {"time": 1086, "pitch": 73, "duration": 2, "velocity": 94}, {"time": 1089, "pitch": 73, "duration": 5, "velocity": 97}, {"time": 1095, "pitch": 68, "duration": 5, "velocity": 92}, {"time": 1101, "pitch": 73, "duration": 6, "velocity": 97}, {"time": 1107, "pitch": 75, "duration": 5, "velocity": 94}, {"time": 1113, "pitch": 73, "duration": 10, "velocity": 97}, {"time": 1125, "pitch": 78, "duration": 5, "velocity": 92}, {"time": 1131, "pitch": 78, "duration": 5, "velocity": 92}, {"time": 1137, "pitch": 78, "duration": 6, "velocity": 92}, {"time": 1143, "pitch": 75, "duration": 6, "velocity": 94}, {"time": 1149, "pitch": 80, "duration": 21, "velocity": 91}, {"time": 1173, "pitch": 75, "duration": 6, "velocity": 91}, {"time": 1179, "pitch": 80, "duration": 4, "velocity": 93}, {"time": 1185, "pitch": 80, "duration": 5, "velocity": 91}, {"time": 1191, "pitch": 78, "duration": 5, "velocity": 94}, {"time": 1197, "pitch": 80, "duration": 25, "velocity": 90}, {"time": 1221, "pitch": 75, "duration": 5, "velocity": 97}, {"time": 1227, "pitch": 82, "duration": 7, "velocity": 96}, {"time": 1233, "pitch": 80, "duration": 5, "velocity": 97}, {"time": 1239, "pitch": 78, "duration": 3, "velocity": 91}, {"time": 1242, "pitch": 80, "duration": 3, "velocity": 86}, {"time": 1245, "pitch": 78, "duration": 3, "velocity": 88}, {"time": 1248, "pitch": 80, "duration": 4, "velocity": 86}, {"time": 1251, "pitch": 78, "duration": 4, "velocity": 85}, {"time": 1254, "pitch": 75, "duration": 15, "velocity": 91}, {"time": 1269, "pitch": 68, "duration": 6, "velocity": 92}, {"time": 1275, "pitch": 73, "duration": 5, "velocity": 95}, {"time": 1281, "pitch": 73, "duration": 4, "velocity": 94}, {"time": 1287, "pitch": 71, "duration": 4, "velocity": 91}, {"time": 1293, "pitch": 73, "duration": 6, "velocity": 101}, {"time": 1299, "pitch": 68, "duration": 5, "velocity": 90}, {"time": 1305, "pitch": 68, "duration": 10, "velocity": 88}, {"time": 1317, "pitch": 78, "duration": 5, "velocity": 92}, {"time": 1323, "pitch": 80, "duration": 5, "velocity": 92}, {"time": 1329, "pitch": 78, "duration": 6, "velocity": 93}, {"time": 1335, "pitch": 73, "duration": 5, "velocity": 101}, {"time": 1341, "pitch": 75, "duration": 21, "velocity": 94}, {"time": 1365, "pitch": 75, "duration": 6, "velocity": 96}, {"time": 1371, "pitch": 80, "duration": 5, "velocity": 94}, {"time": 1377, "pitch": 78, "duration": 6, "velocity": 92}, {"time": 1383, "pitch": 75, "duration": 5, "velocity": 92}, {"time": 1389, "pitch": 73, "duration": 19, "velocity": 96}, {"time": 1413, "pitch": 78, "duration": 5, "velocity": 91}, {"time": 1419, "pitch": 75, "duration": 5, "velocity": 91}, {"time": 1425, "pitch": 75, "duration": 5, "velocity": 91}, {"time": 1431, "pitch": 73, "duration": 3, "velocity": 96}, {"time": 1434, "pitch": 75, "duration": 8, "velocity": 99}, {"time": 1443, "pitch": 71, "duration": 15, "velocity": 92}, {"time": 1461, "pitch": 73, "duration": 7, "velocity": 97}, {"time": 1470, "pitch": 73, "duration": 2, "velocity": 96}, {"time": 1473, "pitch": 73, "duration": 5, "velocity": 96}, {"time": 1479, "pitch": 75, "duration": 6, "velocity": 96}, {"time": 1485, "pitch": 78, "duration": 5, "velocity": 94}, {"time": 1491, "pitch": 75, "duration": 4, "velocity": 94}, {"time": 1497, "pitch": 75, "duration": 9, "velocity": 95}, {"time": 1509, "pitch": 73, "duration": 10, "velocity": 91}, {"time": 1521, "pitch": 75, "duration": 12, "velocity": 94}, {"time": 1533, "pitch": 68, "duration": 23, "velocity": 94}, {"time": 1941, "pitch": 68, "duration": 7, "velocity": 96}, {"time": 1947, "pitch": 75, "duration": 5, "velocity": 95}, {"time": 1953, "pitch": 75, "duration": 5, "velocity": 94}, {"time": 1959, "pitch": 73, "duration": 5, "velocity": 101}, {"time": 1965, "pitch": 75, "duration": 21, "velocity": 97}, {"time": 1989, "pitch": 70, "duration": 5, "velocity": 91}, {"time": 1995, "pitch": 70, "duration": 3, "velocity": 94}, {"time": 1998, "pitch": 70, "duration": 3, "velocity": 94}, {"time": 2001, "pitch": 68, "duration": 6, "velocity": 93}, {"time": 2007, "pitch": 66, "duration": 7, "velocity": 91}, {"time": 2013, "pitch": 68, "duration": 20, "velocity": 94}, {"time": 2037, "pitch": 68, "duration": 6, "velocity": 96}, {"time": 2043, "pitch": 73, "duration": 4, "velocity": 95}, {"time": 2049, "pitch": 73, "duration": 5, "velocity": 104}, {"time": 2055, "pitch": 71, "duration": 5, "velocity": 95}, {"time": 2061, "pitch": 73, "duration": 5, "velocity": 97}, {"time": 2067, "pitch": 71, "duration": 5, "velocity": 95}, {"time": 2073, "pitch": 68, "duration": 10, "velocity": 94}, {"time": 2085, "pitch": 71, "duration": 6, "velocity": 93}, {"time": 2091, "pitch": 68, "duration": 6, "velocity": 94}, {"time": 2097, "pitch": 71, "duration": 5, "velocity": 96}, {"time": 2103, "pitch": 73, "duration": 5, "velocity": 95}, {"time": 2109, "pitch": 75, "duration": 22, "velocity": 92}, {"time": 2133, "pitch": 75, "duration": 5, "velocity": 97}, {"time": 2139, "pitch": 80, "duration": 11, "velocity": 97}, {"time": 2151, "pitch": 75, "duration": 5, "velocity": 101}, {"time": 2157, "pitch": 73, "duration": 21, "velocity": 97}, {"time": 2181, "pitch": 75, "duration": 5, "velocity": 95}, {"time": 2187, "pitch": 78, "duration": 5, "velocity": 97}, {"time": 2193, "pitch": 73, "duration": 5, "velocity": 97}, {"time": 2199, "pitch": 75, "duration": 5, "velocity": 92}, {"time": 2205, "pitch": 71, "duration": 15, "velocity": 92}, {"time": 2229, "pitch": 73, "duration": 8, "velocity": 97}, {"time": 2238, "pitch": 73, "duration": 2, "velocity": 94}, {"time": 2241, "pitch": 73, "duration": 5, "velocity": 97}, {"time": 2247, "pitch": 68, "duration": 5, "velocity": 92}, {"time": 2253, "pitch": 73, "duration": 6, "velocity": 97}, {"time": 2259, "pitch": 75, "duration": 5, "velocity": 94}, {"time": 2265, "pitch": 73, "duration": 10, "velocity": 97}, {"time": 2277, "pitch": 66, "duration": 6, "velocity": 94}, {"time": 2283, "pitch": 63, "duration": 11, "velocity": 101}, {"time": 2295, "pitch": 66, "duration": 5, "velocity": 92}, {"time": 2301, "pitch": 68, "duration": 22, "velocity": 90}, {"time": 2325, "pitch": 68, "duration": 7, "velocity": 96}, {"time": 2331, "pitch": 75, "duration": 5, "velocity": 95}, {"time": 2337, "pitch": 75, "duration": 5, "velocity": 94}, {"time": 2343, "pitch": 73, "duration": 5, "velocity": 101}, {"time": 2349, "pitch": 75, "duration": 21, "velocity": 97}, {"time": 2373, "pitch": 70, "duration": 5, "velocity": 91}, {"time": 2379, "pitch": 70, "duration": 3, "velocity": 94}, {"time": 2382, "pitch": 70, "duration": 3, "velocity": 94}, {"time": 2385, "pitch": 68, "duration": 6, "velocity": 93}, {"time": 2391, "pitch": 66, "duration": 7, "velocity": 91}, {"time": 2397, "pitch": 68, "duration": 20, "velocity": 94}, {"time": 2421, "pitch": 68, "duration": 6, "velocity": 96}, {"time": 2427, "pitch": 73, "duration": 4, "velocity": 95}, {"time": 2433, "pitch": 73, "duration": 5, "velocity": 104}, {"time": 2439, "pitch": 71, "duration": 5, "velocity": 95}, {"time": 2445, "pitch": 73, "duration": 5, "velocity": 97}, {"time": 2451, "pitch": 71, "duration": 5, "velocity": 95}, {"time": 2457, "pitch": 68, "duration": 10, "velocity": 94}, {"time": 2469, "pitch": 71, "duration": 6, "velocity": 93}, {"time": 2475, "pitch": 68, "duration": 6, "velocity": 94}, {"time": 2481, "pitch": 71, "duration": 5, "velocity": 96}, {"time": 2487, "pitch": 73, "duration": 5, "velocity": 95}, {"time": 2493, "pitch": 75, "duration": 22, "velocity": 92}, {"time": 2517, "pitch": 75, "duration": 5, "velocity": 97}, {"time": 2523, "pitch": 80, "duration": 11, "velocity": 97}, {"time": 2535, "pitch": 75, "duration": 5, "velocity": 101}, {"time": 2541, "pitch": 73, "duration": 21, "velocity": 97}, {"time": 2565, "pitch": 75, "duration": 5, "velocity": 95}, {"time": 2571, "pitch": 78, "duration": 5, "velocity": 97}, {"time": 2577, "pitch": 73, "duration": 5, "velocity": 97}, {"time": 2583, "pitch": 75, "duration": 5, "velocity": 92}, {"time": 2589, "pitch": 71, "duration": 15, "velocity": 92}, {"time": 2613, "pitch": 73, "duration": 8, "velocity": 97}, {"time": 2622, "pitch": 73, "duration": 2, "velocity": 94}, {"time": 2625, "pitch": 73, "duration": 5, "velocity": 97}, {"time": 2631, "pitch": 68, "duration": 5, "velocity": 92}, {"time": 2637, "pitch": 73, "duration": 6, "velocity": 97}, {"time": 2643, "pitch": 75, "duration": 5, "velocity": 94}, {"time": 2649, "pitch": 73, "duration": 10, "velocity": 97}, {"time": 2661, "pitch": 78, "duration": 5, "velocity": 92}, {"time": 2667, "pitch": 78, "duration": 5, "velocity": 92}, {"time": 2673, "pitch": 78, "duration": 6, "velocity": 92}, {"time": 2679, "pitch": 75, "duration": 6, "velocity": 94}, {"time": 2685, "pitch": 80, "duration": 21, "velocity": 91}, {"time": 2709, "pitch": 75, "duration": 6, "velocity": 91}, {"time": 2715, "pitch": 80, "duration": 4, "velocity": 93}, {"time": 2721, "pitch": 80, "duration": 5, "velocity": 91}, {"time": 2727, "pitch": 78, "duration": 5, "velocity": 94}, {"time": 2733, "pitch": 80, "duration": 25, "velocity": 90}, {"time": 2757, "pitch": 75, "duration": 5, "velocity": 97}, {"time": 2763, "pitch": 82, "duration": 7, "velocity": 96}, {"time": 2769, "pitch": 80, "duration": 5, "velocity": 97}, {"time": 2775, "pitch": 78, "duration": 3, "velocity": 91}, {"time": 2778, "pitch": 80, "duration": 3, "velocity": 86}, {"time": 2781, "pitch": 78, "duration": 3, "velocity": 88}, {"time": 2784, "pitch": 80, "duration": 4, "velocity": 86}, {"time": 2787, "pitch": 78, "duration": 4, "velocity": 85}, {"time": 2790, "pitch": 75, "duration": 15, "velocity": 91}, {"time": 2805, "pitch": 68, "duration": 6, "velocity": 92}, {"time": 2811, "pitch": 73, "duration": 5, "velocity": 95}, {"time": 2817, "pitch": 73, "duration": 4, "velocity": 94}, {"time": 2823, "pitch": 71, "duration": 4, "velocity": 91}, {"time": 2829, "pitch": 73, "duration": 6, "velocity": 101}, {"time": 2835, "pitch": 68, "duration": 5, "velocity": 90}, {"time": 2841, "pitch": 68, "duration": 10, "velocity": 88}, {"time": 2853, "pitch": 78, "duration": 5, "velocity": 92}, {"time": 2859, "pitch": 80, "duration": 5, "velocity": 92}, {"time": 2865, "pitch": 78, "duration": 6, "velocity": 93}, {"time": 2871, "pitch": 73, "duration": 5, "velocity": 101}, {"time": 2877, "pitch": 75, "duration": 21, "velocity": 94}, {"time": 2901, "pitch": 75, "duration": 6, "velocity": 96}, {"time": 2907, "pitch": 80, "duration": 5, "velocity": 94}, {"time": 2913, "pitch": 78, "duration": 6, "velocity": 92}, {"time": 2919, "pitch": 75, "duration": 5, "velocity": 92}, {"time": 2925, "pitch": 73, "duration": 19, "velocity": 96}, {"time": 2949, "pitch": 78, "duration": 5, "velocity": 91}, {"time": 2955, "pitch": 75, "duration": 5, "velocity": 91}, {"time": 2961, "pitch": 75, "duration": 5, "velocity": 91}, {"time": 2967, "pitch": 73, "duration": 3, "velocity": 96}, {"time": 2970, "pitch": 75, "duration": 8, "velocity": 99}, {"time": 2979, "pitch": 71, "duration": 15, "velocity": 92}, {"time": 2997, "pitch": 73, "duration": 7, "velocity": 97}, {"time": 3006, "pitch": 73, "duration": 2, "velocity": 96}, {"time": 3009, "pitch": 73, "duration": 5, "velocity": 96}, {"time": 3015, "pitch": 75, "duration": 6, "velocity": 96}, {"time": 3021, "pitch": 78, "duration": 5, "velocity": 94}, {"time": 3027, "pitch": 75, "duration": 4, "velocity": 94}, {"time": 3033, "pitch": 75, "duration": 9, "velocity": 95}, {"time": 3045, "pitch": 73, "duration": 10, "velocity": 91}, {"time": 3057, "pitch": 75, "duration": 12, "velocity": 94}, {"time": 3069, "pitch": 68, "duration": 23, "velocity": 94}, {"time": 3093, "pitch": 75, "duration": 6, "velocity": 91}, {"time": 3099, "pitch": 80, "duration": 4, "velocity": 93}, {"time": 3105, "pitch": 80, "duration": 5, "velocity": 91}, {"time": 3111, "pitch": 78, "duration": 5, "velocity": 94}, {"time": 3117, "pitch": 80, "duration": 25, "velocity": 90}, {"time": 3141, "pitch": 75, "duration": 5, "velocity": 97}, {"time": 3147, "pitch": 82, "duration": 7, "velocity": 96}, {"time": 3153, "pitch": 80, "duration": 5, "velocity": 97}, {"time": 3159, "pitch": 78, "duration": 3, "velocity": 91}, {"time": 3162, "pitch": 80, "duration": 3, "velocity": 86}, {"time": 3165, "pitch": 78, "duration": 3, "velocity": 88}, {"time": 3168, "pitch": 80, "duration": 4, "velocity": 86}, {"time": 3171, "pitch": 78, "duration": 4, "velocity": 85}, {"time": 3174, "pitch": 75, "duration": 15, "velocity": 91}, {"time": 3189, "pitch": 68, "duration": 6, "velocity": 92}, {"time": 3195, "pitch": 73, "duration": 5, "velocity": 95}, {"time": 3201, "pitch": 73, "duration": 4, "velocity": 94}, {"time": 3207, "pitch": 71, "duration": 4, "velocity": 91}, {"time": 3213, "pitch": 73, "duration": 6, "velocity": 101}, {"time": 3219, "pitch": 68, "duration": 5, "velocity": 90}, {"time": 3225, "pitch": 68, "duration": 10, "velocity": 88}, {"time": 3237, "pitch": 78, "duration": 5, "velocity": 92}, {"time": 3243, "pitch": 80, "duration": 5, "velocity": 92}, {"time": 3249, "pitch": 78, "duration": 6, "velocity": 93}, {"time": 3255, "pitch": 73, "duration": 5, "velocity": 101}, {"time": 3261, "pitch": 75, "duration": 21, "velocity": 94}, {"time": 3285, "pitch": 75, "duration": 6, "velocity": 96}, {"time": 3291, "pitch": 80, "duration": 5, "velocity": 94}, {"time": 3297, "pitch": 78, "duration": 6, "velocity": 92}, {"time": 3303, "pitch": 75, "duration": 5, "velocity": 92}, {"time": 3309, "pitch": 73, "duration": 19, "velocity": 96}, {"time": 3333, "pitch": 78, "duration": 5, "velocity": 91}, {"time": 3339, "pitch": 75, "duration": 5, "velocity": 91}, {"time": 3345, "pitch": 75, "duration": 5, "velocity": 91}, {"time": 3351, "pitch": 73, "duration": 3, "velocity": 96}, {"time": 3354, "pitch": 75, "duration": 8, "velocity": 99}, {"time": 3363, "pitch": 71, "duration": 15, "velocity": 92}, {"time": 3381, "pitch": 73, "duration": 7, "velocity": 97}, {"time": 3390, "pitch": 73, "duration": 2, "velocity": 96}, {"time": 3393, "pitch": 73, "duration": 5, "velocity": 96}, {"time": 3399, "pitch": 75, "duration": 6, "velocity": 96}, {"time": 3405, "pitch": 78, "duration": 5, "velocity": 94}, {"time": 3411, "pitch": 75, "duration": 4, "velocity": 94}, {"time": 3417, "pitch": 75, "duration": 9, "velocity": 95}, {"time": 3429, "pitch": 73, "duration": 10, "velocity": 91}, {"time": 3441, "pitch": 75, "duration": 12, "velocity": 94}, {"time": 3453, "pitch": 68, "duration": 23, "velocity": 94}, {"time": 3477, "pitch": 73, "duration": 7, "velocity": 97}, {"time": 3486, "pitch": 73, "duration": 2, "velocity": 96}, {"time": 3489, "pitch": 73, "duration": 5, "velocity": 96}, {"time": 3495, "pitch": 75, "duration": 6, "velocity": 96}, {"time": 3501, "pitch": 78, "duration": 5, "velocity": 94}, {"time": 3507, "pitch": 75, "duration": 4, "velocity": 94}, {"time": 3513, "pitch": 75, "duration": 9, "velocity": 95}, {"time": 3525, "pitch": 73, "duration": 10, "velocity": 91}, {"time": 3539, "pitch": 75, "duration": 35, "velocity": 92}, {"time": 3574, "pitch": 68, "duration": 46, "velocity": 91}]}, {"program": 0, "is_drum": false, "name": "BRIDGE", "notes": [{"time": 21, "pitch": 80, "duration": 6, "velocity": 91}, {"time": 27, "pitch": 87, "duration": 5, "velocity": 99}, {"time": 33, "pitch": 87, "duration": 5, "velocity": 104}, {"time": 39, "pitch": 85, "duration": 2, "velocity": 92}, {"time": 42, "pitch": 87, "duration": 17, "velocity": 97}, {"time": 60, "pitch": 87, "duration": 3, "velocity": 95}, {"time": 63, "pitch": 85, "duration": 3, "velocity": 92}, {"time": 66, "pitch": 83, "duration": 3, "velocity": 99}, {"time": 69, "pitch": 82, "duration": 12, "velocity": 95}, {"time": 87, "pitch": 80, "duration": 3, "velocity": 92}, {"time": 90, "pitch": 78, "duration": 3, "velocity": 95}, {"time": 93, "pitch": 75, "duration": 12, "velocity": 101}, {"time": 105, "pitch": 75, "duration": 4, "velocity": 95}, {"time": 108, "pitch": 78, "duration": 3, "velocity": 91}, {"time": 111, "pitch": 80, "duration": 4, "velocity": 91}, {"time": 114, "pitch": 83, "duration": 4, "velocity": 104}, {"time": 117, "pitch": 85, "duration": 5, "velocity": 93}, {"time": 123, "pitch": 85, "duration": 5, "velocity": 96}, {"time": 129, "pitch": 85, "duration": 6, "velocity": 101}, {"time": 135, "pitch": 80, "duration": 6, "velocity": 97}, {"time": 141, "pitch": 88, "duration": 6, "velocity": 104}, {"time": 147, "pitch": 87, "duration": 3, "velocity": 104}, {"time": 150, "pitch": 85, "duration": 12, "velocity": 94}, {"time": 165, "pitch": 83, "duration": 7, "velocity": 106}, {"time": 171, "pitch": 80, "duration": 4, "velocity": 95}, {"time": 174, "pitch": 83, "duration": 4, "velocity": 97}, {"time": 177, "pitch": 85, "duration": 6, "velocity": 96}, {"time": 183, "pitch": 85, "duration": 3, "velocity": 97}, {"time": 186, "pitch": 90, "duration": 2, "velocity": 95}, {"time": 189, "pitch": 87, "duration": 6, "velocity": 91}, {"time": 195, "pitch": 87, "duration": 7, "velocity": 95}, {"time": 201, "pitch": 90, "duration": 7, "velocity": 94}, {"time": 207, "pitch": 87, "duration": 6, "velocity": 95}, {"time": 213, "pitch": 63, "duration": 6, "velocity": 107}, {"time": 213, "pitch": 92, "duration": 20, "velocity": 93}, {"time": 219, "pitch": 68, "duration": 5, "velocity": 97}, {"time": 225, "pitch": 68, "duration": 6, "velocity": 97}, {"time": 231, "pitch": 63, "duration": 4, "velocity": 101}, {"time": 234, "pitch": 61, "duration": 3, "velocity": 99}, {"time": 237, "pitch": 61, "duration": 22, "velocity": 101}, {"time": 243, "pitch": 80, "duration": 7, "velocity": 92}, {"time": 249, "pitch": 85, "duration": 7, "velocity": 90}, {"time": 255, "pitch": 80, "duration": 6, "velocity": 90}, {"time": 261, "pitch": 63, "duration": 9, "velocity": 104}, {"time": 261, "pitch": 87, "duration": 16, "velocity": 92}, {"time": 270, "pitch": 66, "duration": 3, "velocity": 104}, {"time": 273, "pitch": 61, "duration": 4, "velocity": 97}, {"time": 279, "pitch": 61, "duration": 3, "velocity": 95}, {"time": 282, "pitch": 63, "duration": 3, "velocity": 93}, {"time": 285, "pitch": 59, "duration": 18, "velocity": 101}, {"time": 291, "pitch": 80, "duration": 6, "velocity": 91}, {"time": 297, "pitch": 87, "duration": 7, "velocity": 92}, {"time": 303, "pitch": 56, "duration": 3, "velocity": 95}, {"time": 303, "pitch": 83, "duration": 6, "velocity": 90}, {"time": 306, "pitch": 59, "duration": 3, "velocity": 96}, {"time": 309, "pitch": 61, "duration": 8, "velocity": 96}, {"time": 309, "pitch": 85, "duration": 23, "velocity": 92}, {"time": 318, "pitch": 61, "duration": 2, "velocity": 90}, {"time": 321, "pitch": 61, "duration": 5, "velocity": 96}, {"time": 327, "pitch": 61, "duration": 3, "velocity": 94}, {"time": 330, "pitch": 63, "duration": 2, "velocity": 91}, {"time": 333, "pitch": 66, "duration": 6, "velocity": 94}, {"time": 339, "pitch": 63, "duration": 11, "velocity": 101}, {"time": 339, "pitch": 87, "duration": 7, "velocity": 97}, {"time": 345, "pitch": 90, "duration": 7, "velocity": 97}, {"time": 351, "pitch": 66, "duration": 5, "velocity": 95}, {"time": 351, "pitch": 87, "duration": 7, "velocity": 91}, {"time": 357, "pitch": 68, "duration": 46, "velocity": 96}, {"time": 357, "pitch": 92, "duration": 24, "velocity": 89}, {"time": 483, "pitch": 80, "duration": 5, "velocity": 92}, {"time": 489, "pitch": 80, "duration": 6, "velocity": 96}, {"time": 495, "pitch": 83, "duration": 5, "velocity": 99}, {"time": 501, "pitch": 85, "duration": 21, "velocity": 94}, {"time": 579, "pitch": 94, "duration": 5, "velocity": 91}, {"time": 585, "pitch": 92, "duration": 5, "velocity": 97}, {"time": 591, "pitch": 90, "duration": 6, "velocity": 101}, {"time": 597, "pitch": 87, "duration": 25, "velocity": 106}, {"time": 675, "pitch": 80, "duration": 3, "velocity": 94}, {"time": 678, "pitch": 83, "duration": 4, "velocity": 101}, {"time": 681, "pitch": 87, "duration": 7, "velocity": 96}, {"time": 687, "pitch": 83, "duration": 6, "velocity": 92}, {"time": 693, "pitch": 85, "duration": 19, "velocity": 94}, {"time": 741, "pitch": 87, "duration": 22, "velocity": 93}, {"time": 765, "pitch": 92, "duration": 10, "velocity": 101}, {"time": 777, "pitch": 95, "duration": 3, "velocity": 86}, {"time": 780, "pitch": 94, "duration": 3, "velocity": 91}, {"time": 783, "pitch": 92, "duration": 3, "velocity": 97}, {"time": 786, "pitch": 87, "duration": 2, "velocity": 93}, {"time": 867, "pitch": 68, "duration": 5, "velocity": 90}, {"time": 873, "pitch": 68, "duration": 5, "velocity": 101}, {"time": 879, "pitch": 71, "duration": 5, "velocity": 95}, {"time": 885, "pitch": 73, "duration": 42, "velocity": 93}, {"time": 963, "pitch": 75, "duration": 7, "velocity": 96}, {"time": 969, "pitch": 82, "duration": 6, "velocity": 92}, {"time": 975, "pitch": 78, "duration": 7, "velocity": 92}, {"time": 981, "pitch": 80, "duration": 25, "velocity": 92}, {"time": 1017, "pitch": 68, "duration": 14, "velocity": 81}, {"time": 1017, "pitch": 73, "duration": 14, "velocity": 88}, {"time": 1059, "pitch": 75, "duration": 7, "velocity": 94}, {"time": 1065, "pitch": 73, "duration": 6, "velocity": 101}, {"time": 1071, "pitch": 71, "duration": 7, "velocity": 92}, {"time": 1077, "pitch": 73, "duration": 36, "velocity": 94}, {"time": 1125, "pitch": 78, "duration": 13, "velocity": 94}, {"time": 1137, "pitch": 75, "duration": 7, "velocity": 97}, {"time": 1143, "pitch": 78, "duration": 6, "velocity": 95}, {"time": 1149, "pitch": 80, "duration": 9, "velocity": 94}, {"time": 1158, "pitch": 82, "duration": 4, "velocity": 91}, {"time": 1161, "pitch": 80, "duration": 4, "velocity": 86}, {"time": 1164, "pitch": 82, "duration": 4, "velocity": 94}, {"time": 1167, "pitch": 83, "duration": 4, "velocity": 96}, {"time": 1170, "pitch": 85, "duration": 4, "velocity": 91}, {"time": 1173, "pitch": 75, "duration": 13, "velocity": 91}, {"time": 1185, "pitch": 78, "duration": 7, "velocity": 86}, {"time": 1191, "pitch": 75, "duration": 7, "velocity": 91}, {"time": 1197, "pitch": 80, "duration": 23, "velocity": 90}, {"time": 1221, "pitch": 82, "duration": 18, "velocity": 90}, {"time": 1239, "pitch": 80, "duration": 6, "velocity": 90}, {"time": 1245, "pitch": 82, "duration": 7, "velocity": 89}, {"time": 1251, "pitch": 80, "duration": 7, "velocity": 90}, {"time": 1257, "pitch": 78, "duration": 6, "velocity": 92}, {"time": 1263, "pitch": 75, "duration": 6, "velocity": 81}, {"time": 1269, "pitch": 73, "duration": 37, "velocity": 93}, {"time": 1305, "pitch": 80, "duration": 12, "velocity": 90}, {"time": 1317, "pitch": 85, "duration": 13, "velocity": 91}, {"time": 1329, "pitch": 83, "duration": 7, "velocity": 92}, {"time": 1335, "pitch": 85, "duration": 5, "velocity": 93}, {"time": 1341, "pitch": 87, "duration": 19, "velocity": 92}, {"time": 1359, "pitch": 83, "duration": 6, "velocity": 91}, {"time": 1365, "pitch": 80, "duration": 25, "velocity": 91}, {"time": 1401, "pitch": 85, "duration": 11, "velocity": 92}, {"time": 1413, "pitch": 87, "duration": 19, "velocity": 92}, {"time": 1431, "pitch": 85, "duration": 4, "velocity": 90}, {"time": 1434, "pitch": 83, "duration": 4, "velocity": 90}, {"time": 1437, "pitch": 80, "duration": 22, "velocity": 90}, {"time": 1461, "pitch": 85, "duration": 21, "velocity": 91}, {"time": 1479, "pitch": 83, "duration": 5, "velocity": 92}, {"time": 1485, "pitch": 85, "duration": 11, "velocity": 91}, {"time": 1497, "pitch": 87, "duration": 11, "velocity": 96}, {"time": 1509, "pitch": 85, "duration": 11, "velocity": 92}, {"time": 1521, "pitch": 87, "duration": 12, "velocity": 94}, {"time": 1533, "pitch": 80, "duration": 24, "velocity": 94}, {"time": 1557, "pitch": 63, "duration": 10, "velocity": 101}, {"time": 1566, "pitch": 68, "duration": 7, "velocity": 92}, {"time": 1575, "pitch": 66, "duration": 5, "velocity": 95}, {"time": 1581, "pitch": 68, "duration": 24, "velocity": 92}, {"time": 1590, "pitch": 80, "duration": 4, "velocity": 90}, {"time": 1593, "pitch": 83, "duration": 6, "velocity": 94}, {"time": 1599, "pitch": 80, "duration": 7, "velocity": 91}, {"time": 1605, "pitch": 63, "duration": 9, "velocity": 99}, {"time": 1605, "pitch": 82, "duration": 16, "velocity": 91}, {"time": 1614, "pitch": 70, "duration": 8, "velocity": 95}, {"time": 1623, "pitch": 68, "duration": 3, "velocity": 95}, {"time": 1626, "pitch": 66, "duration": 3, "velocity": 93}, {"time": 1629, "pitch": 63, "duration": 22, "velocity": 92}, {"time": 1638, "pitch": 75, "duration": 2, "velocity": 96}, {"time": 1641, "pitch": 78, "duration": 5, "velocity": 90}, {"time": 1647, "pitch": 75, "duration": 5, "velocity": 96}, {"time": 1653, "pitch": 61, "duration": 8, "velocity": 97}, {"time": 1653, "pitch": 73, "duration": 18, "velocity": 96}, {"time": 1662, "pitch": 61, "duration": 9, "velocity": 94}, {"time": 1671, "pitch": 56, "duration": 7, "velocity": 96}, {"time": 1677, "pitch": 64, "duration": 7, "velocity": 95}, {"time": 1683, "pitch": 63, "duration": 4, "velocity": 96}, {"time": 1686, "pitch": 61, "duration": 14, "velocity": 94}, {"time": 1695, "pitch": 76, "duration": 3, "velocity": 93}, {"time": 1698, "pitch": 80, "duration": 3, "velocity": 90}, {"time": 1701, "pitch": 66, "duration": 9, "velocity": 94}, {"time": 1701, "pitch": 78, "duration": 21, "velocity": 92}, {"time": 1710, "pitch": 68, "duration": 4, "velocity": 94}, {"time": 1713, "pitch": 66, "duration": 6, "velocity": 92}, {"time": 1719, "pitch": 61, "duration": 7, "velocity": 97}, {"time": 1725, "pitch": 63, "duration": 23, "velocity": 96}, {"time": 1731, "pitch": 82, "duration": 3, "velocity": 94}, {"time": 1734, "pitch": 78, "duration": 4, "velocity": 90}, {"time": 1737, "pitch": 80, "duration": 3, "velocity": 92}, {"time": 1740, "pitch": 82, "duration": 4, "velocity": 86}, {"time": 1743, "pitch": 83, "duration": 4, "velocity": 97}, {"time": 1746, "pitch": 85, "duration": 4, "velocity": 92}, {"time": 1749, "pitch": 63, "duration": 8, "velocity": 97}, {"time": 1749, "pitch": 87, "duration": 22, "velocity": 96}, {"time": 1758, "pitch": 68, "duration": 10, "velocity": 92}, {"time": 1767, "pitch": 71, "duration": 4, "velocity": 94}, {"time": 1770, "pitch": 70, "duration": 3, "velocity": 92}, {"time": 1773, "pitch": 68, "duration": 18, "velocity": 96}, {"time": 1788, "pitch": 80, "duration": 3, "velocity": 91}, {"time": 1791, "pitch": 71, "duration": 3, "velocity": 92}, {"time": 1791, "pitch": 83, "duration": 2, "velocity": 95}, {"time": 1794, "pitch": 73, "duration": 3, "velocity": 94}, {"time": 1794, "pitch": 85, "duration": 2, "velocity": 93}, {"time": 1797, "pitch": 70, "duration": 8, "velocity": 95}, {"time": 1797, "pitch": 82, "duration": 19, "velocity": 92}, {"time": 1806, "pitch": 71, "duration": 4, "velocity": 92}, {"time": 1809, "pitch": 70, "duration": 6, "velocity": 95}, {"time": 1815, "pitch": 68, "duration": 3, "velocity": 92}, {"time": 1818, "pitch": 66, "duration": 3, "velocity": 92}, {"time": 1821, "pitch": 63, "duration": 22, "velocity": 97}, {"time": 1827, "pitch": 82, "duration": 6, "velocity": 94}, {"time": 1833, "pitch": 78, "duration": 6, "velocity": 91}, {"time": 1839, "pitch": 75, "duration": 6, "velocity": 94}, {"time": 1845, "pitch": 61, "duration": 8, "velocity": 96}, {"time": 1845, "pitch": 73, "duration": 21, "velocity": 91}, {"time": 1854, "pitch": 61, "duration": 2, "velocity": 92}, {"time": 1857, "pitch": 61, "duration": 7, "velocity": 92}, {"time": 1863, "pitch": 63, "duration": 7, "velocity": 94}, {"time": 1869, "pitch": 66, "duration": 6, "velocity": 91}, {"time": 1869, "pitch": 75, "duration": 18, "velocity": 94}, {"time": 1875, "pitch": 63, "duration": 11, "velocity": 97}, {"time": 1887, "pitch": 66, "duration": 3, "velocity": 94}, {"time": 1887, "pitch": 78, "duration": 5, "velocity": 88}, {"time": 1890, "pitch": 68, "duration": 2, "velocity": 94}, {"time": 1893, "pitch": 68, "duration": 47, "velocity": 91}, {"time": 1893, "pitch": 80, "duration": 6, "velocity": 92}, {"time": 1902, "pitch": 75, "duration": 4, "velocity": 92}, {"time": 1905, "pitch": 83, "duration": 5, "velocity": 92}, {"time": 1908, "pitch": 75, "duration": 4, "velocity": 94}, {"time": 1911, "pitch": 82, "duration": 4, "velocity": 91}, {"time": 1914, "pitch": 75, "duration": 4, "velocity": 92}, {"time": 1917, "pitch": 80, "duration": 21, "velocity": 90}, {"time": 2019, "pitch": 80, "duration": 5, "velocity": 92}, {"time": 2025, "pitch": 80, "duration": 6, "velocity": 96}, {"time": 2031, "pitch": 83, "duration": 5, "velocity": 99}, {"time": 2037, "pitch": 85, "duration": 21, "velocity": 94}, {"time": 2115, "pitch": 94, "duration": 5, "velocity": 91}, {"time": 2121, "pitch": 92, "duration": 5, "velocity": 97}, {"time": 2127, "pitch": 90, "duration": 6, "velocity": 101}, {"time": 2133, "pitch": 87, "duration": 25, "velocity": 106}, {"time": 2211, "pitch": 80, "duration": 3, "velocity": 94}, {"time": 2214, "pitch": 83, "duration": 4, "velocity": 101}, {"time": 2217, "pitch": 87, "duration": 7, "velocity": 96}, {"time": 2223, "pitch": 83, "duration": 6, "velocity": 92}, {"time": 2229, "pitch": 85, "duration": 19, "velocity": 94}, {"time": 2277, "pitch": 87, "duration": 22, "velocity": 93}, {"time": 2301, "pitch": 92, "duration": 10, "velocity": 101}, {"time": 2313, "pitch": 95, "duration": 3, "velocity": 86}, {"time": 2316, "pitch": 94, "duration": 3, "velocity": 91}, {"time": 2319, "pitch": 92, "duration": 3, "velocity": 97}, {"time": 2322, "pitch": 87, "duration": 2, "velocity": 93}, {"time": 2403, "pitch": 68, "duration": 5, "velocity": 90}, {"time": 2409, "pitch": 68, "duration": 5, "velocity": 101}, {"time": 2415, "pitch": 71, "duration": 5, "velocity": 95}, {"time": 2421, "pitch": 73, "duration": 42, "velocity": 93}, {"time": 2499, "pitch": 75, "duration": 7, "velocity": 96}, {"time": 2505, "pitch": 82, "duration": 6, "velocity": 92}, {"time": 2511, "pitch": 78, "duration": 7, "velocity": 92}, {"time": 2517, "pitch": 80, "duration": 25, "velocity": 92}, {"time": 2553, "pitch": 68, "duration": 14, "velocity": 81}, {"time": 2553, "pitch": 73, "duration": 14, "velocity": 88}, {"time": 2595, "pitch": 75, "duration": 7, "velocity": 94}, {"time": 2601, "pitch": 73, "duration": 6, "velocity": 101}, {"time": 2607, "pitch": 71, "duration": 7, "velocity": 92}, {"time": 2613, "pitch": 73, "duration": 36, "velocity": 94}, {"time": 2661, "pitch": 78, "duration": 13, "velocity": 94}, {"time": 2673, "pitch": 75, "duration": 7, "velocity": 97}, {"time": 2679, "pitch": 78, "duration": 6, "velocity": 95}, {"time": 2685, "pitch": 80, "duration": 9, "velocity": 94}, {"time": 2694, "pitch": 82, "duration": 4, "velocity": 91}, {"time": 2697, "pitch": 80, "duration": 4, "velocity": 86}, {"time": 2700, "pitch": 82, "duration": 4, "velocity": 94}, {"time": 2703, "pitch": 83, "duration": 4, "velocity": 96}, {"time": 2706, "pitch": 85, "duration": 4, "velocity": 91}, {"time": 2709, "pitch": 75, "duration": 13, "velocity": 91}, {"time": 2721, "pitch": 78, "duration": 7, "velocity": 86}, {"time": 2727, "pitch": 75, "duration": 7, "velocity": 91}, {"time": 2733, "pitch": 80, "duration": 23, "velocity": 90}, {"time": 2757, "pitch": 82, "duration": 18, "velocity": 90}, {"time": 2775, "pitch": 80, "duration": 6, "velocity": 90}, {"time": 2781, "pitch": 82, "duration": 7, "velocity": 89}, {"time": 2787, "pitch": 80, "duration": 7, "velocity": 90}, {"time": 2793, "pitch": 78, "duration": 6, "velocity": 92}, {"time": 2799, "pitch": 75, "duration": 6, "velocity": 81}, {"time": 2805, "pitch": 73, "duration": 37, "velocity": 93}, {"time": 2841, "pitch": 80, "duration": 12, "velocity": 90}, {"time": 2853, "pitch": 85, "duration": 13, "velocity": 91}, {"time": 2865, "pitch": 83, "duration": 7, "velocity": 92}, {"time": 2871, "pitch": 85, "duration": 5, "velocity": 93}, {"time": 2877, "pitch": 87, "duration": 19, "velocity": 92}, {"time": 2895, "pitch": 83, "duration": 6, "velocity": 91}, {"time": 2901, "pitch": 80, "duration": 25, "velocity": 91}, {"time": 2937, "pitch": 85, "duration": 11, "velocity": 92}, {"time": 2949, "pitch": 87, "duration": 19, "velocity": 92}, {"time": 2967, "pitch": 85, "duration": 4, "velocity": 90}, {"time": 2970, "pitch": 83, "duration": 4, "velocity": 90}, {"time": 2973, "pitch": 80, "duration": 22, "velocity": 90}, {"time": 2997, "pitch": 85, "duration": 21, "velocity": 91}, {"time": 3015, "pitch": 83, "duration": 5, "velocity": 92}, {"time": 3021, "pitch": 85, "duration": 11, "velocity": 91}, {"time": 3033, "pitch": 87, "duration": 11, "velocity": 96}, {"time": 3045, "pitch": 85, "duration": 11, "velocity": 92}, {"time": 3057, "pitch": 87, "duration": 12, "velocity": 94}, {"time": 3069, "pitch": 80, "duration": 24, "velocity": 94}, {"time": 3093, "pitch": 75, "duration": 13, "velocity": 91}, {"time": 3105, "pitch": 78, "duration": 7, "velocity": 86}, {"time": 3111, "pitch": 75, "duration": 7, "velocity": 91}, {"time": 3117, "pitch": 80, "duration": 23, "velocity": 90}, {"time": 3141, "pitch": 82, "duration": 18, "velocity": 90}, {"time": 3159, "pitch": 80, "duration": 6, "velocity": 90}, {"time": 3165, "pitch": 82, "duration": 7, "velocity": 89}, {"time": 3171, "pitch": 80, "duration": 7, "velocity": 90}, {"time": 3177, "pitch": 78, "duration": 6, "velocity": 92}, {"time": 3183, "pitch": 75, "duration": 6, "velocity": 81}, {"time": 3189, "pitch": 73, "duration": 37, "velocity": 93}, {"time": 3225, "pitch": 80, "duration": 12, "velocity": 90}, {"time": 3237, "pitch": 85, "duration": 13, "velocity": 91}, {"time": 3249, "pitch": 83, "duration": 7, "velocity": 92}, {"time": 3255, "pitch": 85, "duration": 5, "velocity": 93}, {"time": 3261, "pitch": 87, "duration": 19, "velocity": 92}, {"time": 3279, "pitch": 83, "duration": 6, "velocity": 91}, {"time": 3285, "pitch": 80, "duration": 25, "velocity": 91}, {"time": 3321, "pitch": 85, "duration": 11, "velocity": 92}, {"time": 3333, "pitch": 87, "duration": 19, "velocity": 92}, {"time": 3351, "pitch": 85, "duration": 4, "velocity": 90}, {"time": 3354, "pitch": 83, "duration": 4, "velocity": 90}, {"time": 3357, "pitch": 80, "duration": 22, "velocity": 90}, {"time": 3381, "pitch": 85, "duration": 21, "velocity": 91}, {"time": 3399, "pitch": 83, "duration": 5, "velocity": 92}, {"time": 3405, "pitch": 85, "duration": 11, "velocity": 91}, {"time": 3417, "pitch": 87, "duration": 11, "velocity": 96}, {"time": 3429, "pitch": 85, "duration": 11, "velocity": 92}, {"time": 3441, "pitch": 87, "duration": 12, "velocity": 94}, {"time": 3453, "pitch": 68, "duration": 5, "velocity": 86}, {"time": 3459, "pitch": 68, "duration": 7, "velocity": 90}, {"time": 3465, "pitch": 71, "duration": 7, "velocity": 92}, {"time": 3471, "pitch": 75, "duration": 7, "velocity": 95}, {"time": 3477, "pitch": 73, "duration": 25, "velocity": 94}, {"time": 3501, "pitch": 75, "duration": 13, "velocity": 97}, {"time": 3513, "pitch": 78, "duration": 6, "velocity": 86}, {"time": 3519, "pitch": 75, "duration": 8, "velocity": 90}, {"time": 3525, "pitch": 73, "duration": 15, "velocity": 96}, {"time": 3539, "pitch": 75, "duration": 33, "velocity": 92}, {"time": 3573, "pitch": 68, "duration": 28, "velocity": 97}, {"time": 3603, "pitch": 68, "duration": 6, "velocity": 104}, {"time": 3609, "pitch": 71, "duration": 6, "velocity": 101}, {"time": 3615, "pitch": 68, "duration": 6, "velocity": 96}, {"time": 3621, "pitch": 73, "duration": 12, "velocity": 107}, {"time": 3639, "pitch": 75, "duration": 3, "velocity": 94}, {"time": 3642, "pitch": 73, "duration": 2, "velocity": 92}, {"time": 3645, "pitch": 73, "duration": 16, "velocity": 101}, {"time": 3662, "pitch": 73, "duration": 4, "velocity": 101}, {"time": 3665, "pitch": 75, "duration": 4, "velocity": 92}, {"time": 3669, "pitch": 70, "duration": 18, "velocity": 94}, {"time": 3687, "pitch": 68, "duration": 6, "velocity": 96}, {"time": 3693, "pitch": 66, "duration": 14, "velocity": 97}, {"time": 3706, "pitch": 68, "duration": 11, "velocity": 99}, {"time": 3718, "pitch": 68, "duration": 54, "velocity": 96}]}, {"program": 0, "is_drum": false, "name": "PIANO", "notes": [{"time": 21, "pitch": 44, "duration": 43, "velocity": 88}, {"time": 21, "pitch": 56, "duration": 8, "velocity": 79}, {"time": 21, "pitch": 63, "duration": 9, "velocity": 88}, {"time": 27, "pitch": 51, "duration": 8, "velocity": 66}, {"time": 33, "pitch": 56, "duration": 12, "velocity": 82}, {"time": 39, "pitch": 51, "duration": 21, "velocity": 64}, {"time": 45, "pitch": 59, "duration": 7, "velocity": 82}, {"time": 45, "pitch": 63, "duration": 7, "velocity": 87}, {"time": 57, "pitch": 59, "duration": 5, "velocity": 90}, {"time": 57, "pitch": 63, "duration": 7, "velocity": 91}, {"time": 63, "pitch": 61, "duration": 4, "velocity": 85}, {"time": 66, "pitch": 59, "duration": 4, "velocity": 86}, {"time": 69, "pitch": 39, "duration": 39, "velocity": 91}, {"time": 69, "pitch": 58, "duration": 9, "velocity": 83}, {"time": 75, "pitch": 46, "duration": 9, "velocity": 71}, {"time": 81, "pitch": 54, "duration": 7, "velocity": 84}, {"time": 87, "pitch": 46, "duration": 9, "velocity": 62}, {"time": 93, "pitch": 51, "duration": 10, "velocity": 87}, {"time": 93, "pitch": 54, "duration": 8, "velocity": 84}, {"time": 93, "pitch": 58, "duration": 11, "velocity": 88}, {"time": 99, "pitch": 46, "duration": 9, "velocity": 74}, {"time": 105, "pitch": 51, "duration": 3, "velocity": 91}, {"time": 105, "pitch": 54, "duration": 4, "velocity": 92}, {"time": 105, "pitch": 58, "duration": 4, "velocity": 87}, {"time": 117, "pitch": 49, "duration": 39, "velocity": 88}, {"time": 117, "pitch": 56, "duration": 4, "velocity": 85}, {"time": 117, "pitch": 61, "duration": 14, "velocity": 90}, {"time": 123, "pitch": 56, "duration": 7, "velocity": 81}, {"time": 129, "pitch": 64, "duration": 7, "velocity": 85}, {"time": 135, "pitch": 56, "duration": 5, "velocity": 76}, {"time": 141, "pitch": 56, "duration": 2, "velocity": 78}, {"time": 141, "pitch": 61, "duration": 5, "velocity": 81}, {"time": 153, "pitch": 61, "duration": 6, "velocity": 86}, {"time": 153, "pitch": 64, "duration": 6, "velocity": 84}, {"time": 159, "pitch": 56, "duration": 2, "velocity": 78}, {"time": 165, "pitch": 40, "duration": 10, "velocity": 89}, {"time": 165, "pitch": 52, "duration": 7, "velocity": 82}, {"time": 165, "pitch": 59, "duration": 7, "velocity": 74}, {"time": 171, "pitch": 47, "duration": 5, "velocity": 77}, {"time": 177, "pitch": 42, "duration": 9, "velocity": 90}, {"time": 177, "pitch": 54, "duration": 7, "velocity": 85}, {"time": 177, "pitch": 58, "duration": 6, "velocity": 86}, {"time": 183, "pitch": 49, "duration": 3, "velocity": 81}, {"time": 189, "pitch": 39, "duration": 18, "velocity": 91}, {"time": 189, "pitch": 58, "duration": 10, "velocity": 85}, {"time": 195, "pitch": 46, "duration": 12, "velocity": 84}, {"time": 201, "pitch": 51, "duration": 4, "velocity": 90}, {"time": 201, "pitch": 63, "duration": 7, "velocity": 91}, {"time": 207, "pitch": 61, "duration": 4, "velocity": 90}, {"time": 210, "pitch": 59, "duration": 4, "velocity": 91}, {"time": 213, "pitch": 44, "duration": 22, "velocity": 91}, {"time": 213, "pitch": 56, "duration": 12, "velocity": 82}, {"time": 219, "pitch": 51, "duration": 9, "velocity": 82}, {"time": 225, "pitch": 59, "duration": 6, "velocity": 88}, {"time": 225, "pitch": 63, "duration": 9, "velocity": 93}, {"time": 237, "pitch": 49, "duration": 15, "velocity": 90}, {"time": 237, "pitch": 61, "duration": 9, "velocity": 86}, {"time": 243, "pitch": 52, "duration": 8, "velocity": 87}, {"time": 249, "pitch": 56, "duration": 3, "velocity": 85}, {"time": 249, "pitch": 61, "duration": 7, "velocity": 92}, {"time": 249, "pitch": 64, "duration": 7, "velocity": 90}, {"time": 255, "pitch": 56, "duration": 2, "velocity": 92}, {"time": 261, "pitch": 39, "duration": 15, "velocity": 92}, {"time": 261, "pitch": 51, "duration": 10, "velocity": 75}, {"time": 261, "pitch": 54, "duration": 8, "velocity": 79}, {"time": 267, "pitch": 46, "duration": 8, "velocity": 75}, {"time": 273, "pitch": 51, "duration": 2, "velocity": 91}, {"time": 273, "pitch": 54, "duration": 7, "velocity": 92}, {"time": 273, "pitch": 58, "duration": 7, "velocity": 91}, {"time": 279, "pitch": 51, "duration": 2, "velocity": 97}, {"time": 285, "pitch": 44, "duration": 22, "velocity": 90}, {"time": 285, "pitch": 56, "duration": 9, "velocity": 82}, {"time": 285, "pitch": 59, "duration": 8, "velocity": 86}, {"time": 291, "pitch": 51, "duration": 9, "velocity": 82}, {"time": 297, "pitch": 56, "duration": 6, "velocity": 90}, {"time": 297, "pitch": 63, "duration": 9, "velocity": 86}, {"time": 303, "pitch": 51, "duration": 5, "velocity": 90}, {"time": 309, "pitch": 37, "duration": 21, "velocity": 92}, {"time": 309, "pitch": 56, "duration": 9, "velocity": 84}, {"time": 309, "pitch": 64, "duration": 10, "velocity": 86}, {"time": 315, "pitch": 44, "duration": 14, "velocity": 70}, {"time": 321, "pitch": 56, "duration": 12, "velocity": 91}, {"time": 321, "pitch": 61, "duration": 12, "velocity": 91}, {"time": 333, "pitch": 39, "duration": 18, "velocity": 86}, {"time": 339, "pitch": 46, "duration": 11, "velocity": 82}, {"time": 345, "pitch": 51, "duration": 11, "velocity": 84}, {"time": 345, "pitch": 54, "duration": 12, "velocity": 84}, {"time": 345, "pitch": 58, "duration": 14, "velocity": 85}, {"time": 357, "pitch": 44, "duration": 22, "velocity": 92}, {"time": 363, "pitch": 51, "duration": 8, "velocity": 79}, {"time": 369, "pitch": 56, "duration": 7, "velocity": 82}, {"time": 369, "pitch": 59, "duration": 7, "velocity": 84}, {"time": 375, "pitch": 51, "duration": 5, "velocity": 83}, {"time": 381, "pitch": 44, "duration": 21, "velocity": 90}, {"time": 381, "pitch": 56, "duration": 8, "velocity": 81}, {"time": 381, "pitch": 59, "duration": 8, "velocity": 87}, {"time": 381, "pitch": 63, "duration": 8, "velocity": 90}, {"time": 387, "pitch": 51, "duration": 13, "velocity": 75}, {"time": 393, "pitch": 59, "duration": 7, "velocity": 84}, {"time": 399, "pitch": 58, "duration": 7, "velocity": 80}, {"time": 405, "pitch": 44, "duration": 42, "velocity": 90}, {"time": 405, "pitch": 56, "duration": 14, "velocity": 83}, {"time": 411, "pitch": 51, "duration": 35, "velocity": 75}, {"time": 417, "pitch": 59, "duration": 10, "velocity": 85}, {"time": 417, "pitch": 63, "duration": 10, "velocity": 90}, {"time": 423, "pitch": 56, "duration": 8, "velocity": 77}, {"time": 429, "pitch": 59, "duration": 7, "velocity": 73}, {"time": 429, "pitch": 63, "duration": 7, "velocity": 84}, {"time": 429, "pitch": 68, "duration": 6, "velocity": 88}, {"time": 435, "pitch": 56, "duration": 6, "velocity": 72}, {"time": 441, "pitch": 59, "duration": 4, "velocity": 86}, {"time": 441, "pitch": 63, "duration": 6, "velocity": 91}, {"time": 447, "pitch": 56, "duration": 6, "velocity": 91}, {"time": 453, "pitch": 39, "duration": 22, "velocity": 92}, {"time": 459, "pitch": 51, "duration": 8, "velocity": 85}, {"time": 465, "pitch": 54, "duration": 8, "velocity": 84}, {"time": 471, "pitch": 51, "duration": 4, "velocity": 84}, {"time": 477, "pitch": 44, "duration": 21, "velocity": 88}, {"time": 477, "pitch": 56, "duration": 11, "velocity": 84}, {"time": 483, "pitch": 51, "duration": 14, "velocity": 85}, {"time": 489, "pitch": 56, "duration": 3, "velocity": 88}, {"time": 489, "pitch": 59, "duration": 6, "velocity": 89}, {"time": 501, "pitch": 49, "duration": 20, "velocity": 86}, {"time": 501, "pitch": 64, "duration": 9, "velocity": 88}, {"time": 507, "pitch": 56, "duration": 8, "velocity": 86}, {"time": 513, "pitch": 61, "duration": 7, "velocity": 92}, {"time": 519, "pitch": 56, "duration": 7, "velocity": 92}, {"time": 525, "pitch": 61, "duration": 3, "velocity": 90}, {"time": 525, "pitch": 64, "duration": 8, "velocity": 84}, {"time": 531, "pitch": 56, "duration": 7, "velocity": 81}, {"time": 537, "pitch": 49, "duration": 3, "velocity": 91}, {"time": 537, "pitch": 61, "duration": 11, "velocity": 91}, {"time": 549, "pitch": 44, "duration": 16, "velocity": 91}, {"time": 549, "pitch": 56, "duration": 13, "velocity": 83}, {"time": 549, "pitch": 59, "duration": 7, "velocity": 84}, {"time": 555, "pitch": 51, "duration": 8, "velocity": 81}, {"time": 561, "pitch": 59, "duration": 6, "velocity": 91}, {"time": 561, "pitch": 63, "duration": 6, "velocity": 91}, {"time": 567, "pitch": 56, "duration": 7, "velocity": 92}, {"time": 573, "pitch": 39, "duration": 14, "velocity": 92}, {"time": 573, "pitch": 58, "duration": 7, "velocity": 84}, {"time": 579, "pitch": 46, "duration": 7, "velocity": 80}, {"time": 585, "pitch": 54, "duration": 6, "velocity": 90}, {"time": 585, "pitch": 58, "duration": 7, "velocity": 91}, {"time": 591, "pitch": 51, "duration": 2, "velocity": 93}, {"time": 597, "pitch": 44, "duration": 19, "velocity": 91}, {"time": 597, "pitch": 56, "duration": 11, "velocity": 84}, {"time": 597, "pitch": 59, "duration": 7, "velocity": 85}, {"time": 603, "pitch": 51, "duration": 13, "velocity": 80}, {"time": 609, "pitch": 59, "duration": 6, "velocity": 90}, {"time": 609, "pitch": 63, "duration": 6, "velocity": 94}, {"time": 615, "pitch": 56, "duration": 7, "velocity": 91}, {"time": 621, "pitch": 49, "duration": 14, "velocity": 85}, {"time": 621, "pitch": 61, "duration": 9, "velocity": 88}, {"time": 627, "pitch": 52, "duration": 8, "velocity": 77}, {"time": 633, "pitch": 61, "duration": 7, "velocity": 91}, {"time": 633, "pitch": 64, "duration": 5, "velocity": 86}, {"time": 639, "pitch": 56, "duration": 2, "velocity": 90}, {"time": 645, "pitch": 39, "duration": 18, "velocity": 90}, {"time": 645, "pitch": 51, "duration": 9, "velocity": 88}, {"time": 645, "pitch": 54, "duration": 9, "velocity": 85}, {"time": 657, "pitch": 54, "duration": 7, "velocity": 92}, {"time": 657, "pitch": 58, "duration": 7, "velocity": 92}, {"time": 663, "pitch": 51, "duration": 3, "velocity": 91}, {"time": 669, "pitch": 44, "duration": 20, "velocity": 90}, {"time": 669, "pitch": 56, "duration": 9, "velocity": 78}, {"time": 669, "pitch": 59, "duration": 8, "velocity": 82}, {"time": 675, "pitch": 51, "duration": 14, "velocity": 81}, {"time": 681, "pitch": 56, "duration": 3, "velocity": 84}, {"time": 681, "pitch": 59, "duration": 5, "velocity": 91}, {"time": 681, "pitch": 63, "duration": 5, "velocity": 91}, {"time": 687, "pitch": 56, "duration": 7, "velocity": 84}, {"time": 693, "pitch": 49, "duration": 21, "velocity": 91}, {"time": 693, "pitch": 61, "duration": 7, "velocity": 86}, {"time": 693, "pitch": 64, "duration": 7, "velocity": 84}, {"time": 699, "pitch": 56, "duration": 6, "velocity": 68}, {"time": 705, "pitch": 61, "duration": 2, "velocity": 90}, {"time": 705, "pitch": 64, "duration": 3, "velocity": 89}, {"time": 711, "pitch": 56, "duration": 5, "velocity": 84}, {"time": 717, "pitch": 49, "duration": 13, "velocity": 94}, {"time": 717, "pitch": 56, "duration": 3, "velocity": 85}, {"time": 717, "pitch": 61, "duration": 9, "velocity": 90}, {"time": 723, "pitch": 56, "duration": 4, "velocity": 77}, {"time": 729, "pitch": 56, "duration": 3, "velocity": 85}, {"time": 729, "pitch": 61, "duration": 6, "velocity": 89}, {"time": 729, "pitch": 64, "duration": 7, "velocity": 86}, {"time": 741, "pitch": 39, "duration": 15, "velocity": 91}, {"time": 741, "pitch": 58, "duration": 3, "velocity": 89}, {"time": 741, "pitch": 63, "duration": 7, "velocity": 91}, {"time": 741, "pitch": 66, "duration": 7, "velocity": 85}, {"time": 747, "pitch": 58, "duration": 5, "velocity": 85}, {"time": 753, "pitch": 58, "duration": 2, "velocity": 90}, {"time": 753, "pitch": 63, "duration": 6, "velocity": 93}, {"time": 753, "pitch": 66, "duration": 7, "velocity": 90}, {"time": 759, "pitch": 58, "duration": 2, "velocity": 85}, {"time": 765, "pitch": 44, "duration": 21, "velocity": 90}, {"time": 765, "pitch": 56, "duration": 9, "velocity": 70}, {"time": 765, "pitch": 59, "duration": 8, "velocity": 73}, {"time": 765, "pitch": 63, "duration": 9, "velocity": 75}, {"time": 771, "pitch": 51, "duration": 8, "velocity": 85}, {"time": 777, "pitch": 56, "duration": 3, "velocity": 90}, {"time": 777, "pitch": 59, "duration": 4, "velocity": 97}, {"time": 777, "pitch": 63, "duration": 4, "velocity": 96}, {"time": 780, "pitch": 51, "duration": 7, "velocity": 91}, {"time": 783, "pitch": 56, "duration": 4, "velocity": 96}, {"time": 789, "pitch": 44, "duration": 19, "velocity": 91}, {"time": 789, "pitch": 56, "duration": 10, "velocity": 89}, {"time": 789, "pitch": 59, "duration": 11, "velocity": 90}, {"time": 795, "pitch": 51, "duration": 10, "velocity": 83}, {"time": 801, "pitch": 59, "duration": 10, "velocity": 92}, {"time": 801, "pitch": 63, "duration": 10, "velocity": 93}, {"time": 807, "pitch": 51, "duration": 7, "velocity": 86}, {"time": 813, "pitch": 44, "duration": 16, "velocity": 86}, {"time": 813, "pitch": 56, "duration": 7, "velocity": 78}, {"time": 813, "pitch": 59, "duration": 8, "velocity": 83}, {"time": 819, "pitch": 51, "duration": 8, "velocity": 79}, {"time": 825, "pitch": 56, "duration": 7, "velocity": 90}, {"time": 825, "pitch": 59, "duration": 8, "velocity": 93}, {"time": 825, "pitch": 63, "duration": 13, "velocity": 92}, {"time": 831, "pitch": 44, "duration": 2, "velocity": 90}, {"time": 837, "pitch": 39, "duration": 14, "velocity": 92}, {"time": 843, "pitch": 51, "duration": 7, "velocity": 95}, {"time": 849, "pitch": 46, "duration": 7, "velocity": 82}, {"time": 849, "pitch": 54, "duration": 3, "velocity": 90}, {"time": 849, "pitch": 58, "duration": 7, "velocity": 87}, {"time": 855, "pitch": 51, "duration": 2, "velocity": 91}, {"time": 861, "pitch": 44, "duration": 20, "velocity": 91}, {"time": 861, "pitch": 56, "duration": 10, "velocity": 73}, {"time": 861, "pitch": 59, "duration": 8, "velocity": 80}, {"time": 867, "pitch": 51, "duration": 10, "velocity": 83}, {"time": 873, "pitch": 56, "duration": 3, "velocity": 89}, {"time": 873, "pitch": 59, "duration": 7, "velocity": 95}, {"time": 873, "pitch": 63, "duration": 7, "velocity": 91}, {"time": 879, "pitch": 56, "duration": 5, "velocity": 93}, {"time": 885, "pitch": 49, "duration": 20, "velocity": 96}, {"time": 885, "pitch": 56, "duration": 3, "velocity": 86}, {"time": 885, "pitch": 61, "duration": 7, "velocity": 85}, {"time": 891, "pitch": 56, "duration": 5, "velocity": 82}, {"time": 897, "pitch": 56, "duration": 3, "velocity": 90}, {"time": 897, "pitch": 61, "duration": 7, "velocity": 92}, {"time": 897, "pitch": 64, "duration": 7, "velocity": 91}, {"time": 903, "pitch": 56, "duration": 8, "velocity": 85}, {"time": 909, "pitch": 49, "duration": 16, "velocity": 96}, {"time": 909, "pitch": 61, "duration": 8, "velocity": 89}, {"time": 909, "pitch": 64, "duration": 8, "velocity": 88}, {"time": 915, "pitch": 56, "duration": 5, "velocity": 82}, {"time": 921, "pitch": 56, "duration": 3, "velocity": 91}, {"time": 921, "pitch": 61, "duration": 6, "velocity": 94}, {"time": 921, "pitch": 64, "duration": 11, "velocity": 91}, {"time": 927, "pitch": 49, "duration": 6, "velocity": 91}, {"time": 933, "pitch": 44, "duration": 16, "velocity": 92}, {"time": 933, "pitch": 56, "duration": 7, "velocity": 85}, {"time": 933, "pitch": 59, "duration": 7, "velocity": 86}, {"time": 939, "pitch": 51, "duration": 9, "velocity": 83}, {"time": 945, "pitch": 56, "duration": 4, "velocity": 91}, {"time": 945, "pitch": 59, "duration": 5, "velocity": 99}, {"time": 945, "pitch": 63, "duration": 7, "velocity": 96}, {"time": 951, "pitch": 44, "duration": 3, "velocity": 91}, {"time": 957, "pitch": 39, "duration": 18, "velocity": 97}, {"time": 957, "pitch": 54, "duration": 5, "velocity": 84}, {"time": 957, "pitch": 58, "duration": 5, "velocity": 89}, {"time": 963, "pitch": 46, "duration": 7, "velocity": 79}, {"time": 966, "pitch": 51, "duration": 2, "velocity": 88}, {"time": 969, "pitch": 51, "duration": 2, "velocity": 88}, {"time": 969, "pitch": 58, "duration": 7, "velocity": 95}, {"time": 972, "pitch": 46, "duration": 3, "velocity": 92}, {"time": 975, "pitch": 51, "duration": 4, "velocity": 92}, {"time": 978, "pitch": 54, "duration": 3, "velocity": 83}, {"time": 981, "pitch": 44, "duration": 16, "velocity": 94}, {"time": 984, "pitch": 51, "duration": 12, "velocity": 84}, {"time": 987, "pitch": 56, "duration": 4, "velocity": 84}, {"time": 993, "pitch": 56, "duration": 8, "velocity": 90}, {"time": 993, "pitch": 59, "duration": 7, "velocity": 92}, {"time": 993, "pitch": 63, "duration": 8, "velocity": 95}, {"time": 999, "pitch": 44, "duration": 6, "velocity": 91}, {"time": 1005, "pitch": 49, "duration": 19, "velocity": 91}, {"time": 1005, "pitch": 61, "duration": 8, "velocity": 89}, {"time": 1005, "pitch": 64, "duration": 7, "velocity": 90}, {"time": 1011, "pitch": 56, "duration": 4, "velocity": 82}, {"time": 1017, "pitch": 56, "duration": 5, "velocity": 90}, {"time": 1017, "pitch": 61, "duration": 4, "velocity": 92}, {"time": 1017, "pitch": 64, "duration": 5, "velocity": 92}, {"time": 1023, "pitch": 61, "duration": 4, "velocity": 92}, {"time": 1026, "pitch": 59, "duration": 3, "velocity": 92}, {"time": 1029, "pitch": 39, "duration": 19, "velocity": 92}, {"time": 1029, "pitch": 58, "duration": 6, "velocity": 87}, {"time": 1035, "pitch": 46, "duration": 8, "velocity": 80}, {"time": 1041, "pitch": 51, "duration": 6, "velocity": 94}, {"time": 1041, "pitch": 54, "duration": 8, "velocity": 107}, {"time": 1047, "pitch": 46, "duration": 4, "velocity": 92}, {"time": 1050, "pitch": 51, "duration": 3, "velocity": 94}, {"time": 1053, "pitch": 44, "duration": 23, "velocity": 89}, {"time": 1053, "pitch": 56, "duration": 8, "velocity": 86}, {"time": 1059, "pitch": 51, "duration": 7, "velocity": 84}, {"time": 1065, "pitch": 59, "duration": 4, "velocity": 88}, {"time": 1065, "pitch": 63, "duration": 5, "velocity": 93}, {"time": 1068, "pitch": 51, "duration": 8, "velocity": 84}, {"time": 1071, "pitch": 61, "duration": 4, "velocity": 91}, {"time": 1074, "pitch": 59, "duration": 2, "velocity": 82}, {"time": 1077, "pitch": 49, "duration": 14, "velocity": 88}, {"time": 1077, "pitch": 61, "duration": 7, "velocity": 91}, {"time": 1083, "pitch": 56, "duration": 7, "velocity": 88}, {"time": 1089, "pitch": 61, "duration": 7, "velocity": 90}, {"time": 1089, "pitch": 64, "duration": 5, "velocity": 90}, {"time": 1095, "pitch": 56, "duration": 7, "velocity": 92}, {"time": 1101, "pitch": 37, "duration": 16, "velocity": 91}, {"time": 1101, "pitch": 61, "duration": 10, "velocity": 85}, {"time": 1101, "pitch": 64, "duration": 6, "velocity": 84}, {"time": 1107, "pitch": 56, "duration": 4, "velocity": 79}, {"time": 1113, "pitch": 56, "duration": 7, "velocity": 90}, {"time": 1113, "pitch": 61, "duration": 10, "velocity": 91}, {"time": 1119, "pitch": 37, "duration": 5, "velocity": 95}, {"time": 1125, "pitch": 39, "duration": 15, "velocity": 92}, {"time": 1125, "pitch": 58, "duration": 5, "velocity": 86}, {"time": 1125, "pitch": 63, "duration": 9, "velocity": 92}, {"time": 1131, "pitch": 46, "duration": 9, "velocity": 77}, {"time": 1137, "pitch": 58, "duration": 3, "velocity": 91}, {"time": 1137, "pitch": 63, "duration": 7, "velocity": 95}, {"time": 1137, "pitch": 66, "duration": 6, "velocity": 89}, {"time": 1143, "pitch": 58, "duration": 2, "velocity": 95}, {"time": 1149, "pitch": 44, "duration": 26, "velocity": 91}, {"time": 1149, "pitch": 56, "duration": 4, "velocity": 86}, {"time": 1149, "pitch": 59, "duration": 4, "velocity": 90}, {"time": 1149, "pitch": 63, "duration": 4, "velocity": 94}, {"time": 1152, "pitch": 51, "duration": 17, "velocity": 95}, {"time": 1155, "pitch": 56, "duration": 2, "velocity": 93}, {"time": 1158, "pitch": 58, "duration": 2, "velocity": 96}, {"time": 1161, "pitch": 56, "duration": 3, "velocity": 92}, {"time": 1161, "pitch": 59, "duration": 3, "velocity": 101}, {"time": 1164, "pitch": 58, "duration": 2, "velocity": 94}, {"time": 1167, "pitch": 56, "duration": 2, "velocity": 107}, {"time": 1170, "pitch": 51, "duration": 4, "velocity": 93}, {"time": 1173, "pitch": 44, "duration": 2, "velocity": 92}, {"time": 1173, "pitch": 68, "duration": 10, "velocity": 90}, {"time": 1176, "pitch": 51, "duration": 11, "velocity": 91}, {"time": 1179, "pitch": 63, "duration": 4, "velocity": 87}, {"time": 1182, "pitch": 59, "duration": 2, "velocity": 91}, {"time": 1185, "pitch": 59, "duration": 3, "velocity": 92}, {"time": 1185, "pitch": 63, "duration": 4, "velocity": 96}, {"time": 1185, "pitch": 68, "duration": 5, "velocity": 91}, {"time": 1188, "pitch": 51, "duration": 8, "velocity": 90}, {"time": 1191, "pitch": 59, "duration": 4, "velocity": 90}, {"time": 1194, "pitch": 63, "duration": 9, "velocity": 91}, {"time": 1197, "pitch": 44, "duration": 21, "velocity": 91}, {"time": 1200, "pitch": 51, "duration": 18, "velocity": 89}, {"time": 1203, "pitch": 56, "duration": 10, "velocity": 86}, {"time": 1206, "pitch": 59, "duration": 5, "velocity": 90}, {"time": 1209, "pitch": 68, "duration": 5, "velocity": 94}, {"time": 1212, "pitch": 63, "duration": 7, "velocity": 90}, {"time": 1215, "pitch": 59, "duration": 5, "velocity": 91}, {"time": 1218, "pitch": 56, "duration": 5, "velocity": 91}, {"time": 1221, "pitch": 39, "duration": 23, "velocity": 95}, {"time": 1224, "pitch": 46, "duration": 20, "velocity": 86}, {"time": 1227, "pitch": 51, "duration": 10, "velocity": 91}, {"time": 1230, "pitch": 54, "duration": 7, "velocity": 90}, {"time": 1233, "pitch": 63, "duration": 11, "velocity": 101}, {"time": 1236, "pitch": 58, "duration": 8, "velocity": 91}, {"time": 1239, "pitch": 54, "duration": 4, "velocity": 92}, {"time": 1242, "pitch": 51, "duration": 5, "velocity": 91}, {"time": 1245, "pitch": 39, "duration": 16, "velocity": 96}, {"time": 1245, "pitch": 54, "duration": 7, "velocity": 93}, {"time": 1245, "pitch": 58, "duration": 8, "velocity": 92}, {"time": 1248, "pitch": 46, "duration": 11, "velocity": 85}, {"time": 1251, "pitch": 51, "duration": 5, "velocity": 90}, {"time": 1254, "pitch": 54, "duration": 2, "velocity": 88}, {"time": 1254, "pitch": 58, "duration": 1, "velocity": 50}, {"time": 1257, "pitch": 51, "duration": 4, "velocity": 97}, {"time": 1257, "pitch": 54, "duration": 4, "velocity": 99}, {"time": 1257, "pitch": 58, "duration": 4, "velocity": 101}, {"time": 1257, "pitch": 63, "duration": 5, "velocity": 97}, {"time": 1260, "pitch": 46, "duration": 3, "velocity": 91}, {"time": 1263, "pitch": 39, "duration": 4, "velocity": 95}, {"time": 1269, "pitch": 37, "duration": 18, "velocity": 96}, {"time": 1269, "pitch": 61, "duration": 6, "velocity": 88}, {"time": 1269, "pitch": 64, "duration": 7, "velocity": 89}, {"time": 1272, "pitch": 44, "duration": 14, "velocity": 80}, {"time": 1275, "pitch": 56, "duration": 5, "velocity": 91}, {"time": 1278, "pitch": 61, "duration": 2, "velocity": 85}, {"time": 1281, "pitch": 64, "duration": 5, "velocity": 97}, {"time": 1284, "pitch": 61, "duration": 4, "velocity": 91}, {"time": 1287, "pitch": 56, "duration": 5, "velocity": 92}, {"time": 1290, "pitch": 61, "duration": 4, "velocity": 82}, {"time": 1293, "pitch": 49, "duration": 14, "velocity": 104}, {"time": 1293, "pitch": 64, "duration": 4, "velocity": 91}, {"time": 1296, "pitch": 61, "duration": 4, "velocity": 85}, {"time": 1299, "pitch": 56, "duration": 4, "velocity": 93}, {"time": 1302, "pitch": 61, "duration": 2, "velocity": 91}, {"time": 1305, "pitch": 56, "duration": 4, "velocity": 95}, {"time": 1305, "pitch": 64, "duration": 7, "velocity": 101}, {"time": 1308, "pitch": 49, "duration": 2, "velocity": 95}, {"time": 1311, "pitch": 56, "duration": 5, "velocity": 93}, {"time": 1314, "pitch": 61, "duration": 6, "velocity": 90}, {"time": 1317, "pitch": 42, "duration": 23, "velocity": 92}, {"time": 1320, "pitch": 49, "duration": 11, "velocity": 85}, {"time": 1323, "pitch": 54, "duration": 4, "velocity": 91}, {"time": 1326, "pitch": 58, "duration": 2, "velocity": 90}, {"time": 1329, "pitch": 54, "duration": 4, "velocity": 90}, {"time": 1329, "pitch": 58, "duration": 6, "velocity": 92}, {"time": 1329, "pitch": 61, "duration": 10, "velocity": 92}, {"time": 1332, "pitch": 49, "duration": 8, "velocity": 92}, {"time": 1335, "pitch": 54, "duration": 5, "velocity": 90}, {"time": 1338, "pitch": 58, "duration": 3, "velocity": 78}, {"time": 1341, "pitch": 39, "duration": 20, "velocity": 95}, {"time": 1341, "pitch": 51, "duration": 5, "velocity": 90}, {"time": 1341, "pitch": 58, "duration": 7, "velocity": 90}, {"time": 1341, "pitch": 63, "duration": 10, "velocity": 90}, {"time": 1344, "pitch": 46, "duration": 16, "velocity": 85}, {"time": 1347, "pitch": 51, "duration": 8, "velocity": 96}, {"time": 1350, "pitch": 58, "duration": 4, "velocity": 89}, {"time": 1353, "pitch": 63, "duration": 14, "velocity": 97}, {"time": 1356, "pitch": 58, "duration": 4, "velocity": 91}, {"time": 1359, "pitch": 51, "duration": 4, "velocity": 99}, {"time": 1362, "pitch": 58, "duration": 4, "velocity": 92}, {"time": 1365, "pitch": 44, "duration": 23, "velocity": 94}, {"time": 1368, "pitch": 51, "duration": 11, "velocity": 85}, {"time": 1371, "pitch": 56, "duration": 4, "velocity": 86}, {"time": 1374, "pitch": 59, "duration": 2, "velocity": 90}, {"time": 1377, "pitch": 56, "duration": 4, "velocity": 90}, {"time": 1377, "pitch": 59, "duration": 7, "velocity": 93}, {"time": 1377, "pitch": 63, "duration": 7, "velocity": 95}, {"time": 1380, "pitch": 51, "duration": 8, "velocity": 88}, {"time": 1383, "pitch": 56, "duration": 8, "velocity": 87}, {"time": 1386, "pitch": 59, "duration": 6, "velocity": 88}, {"time": 1389, "pitch": 49, "duration": 17, "velocity": 106}, {"time": 1392, "pitch": 52, "duration": 14, "velocity": 89}, {"time": 1395, "pitch": 56, "duration": 7, "velocity": 91}, {"time": 1398, "pitch": 61, "duration": 4, "velocity": 85}, {"time": 1401, "pitch": 64, "duration": 5, "velocity": 92}, {"time": 1404, "pitch": 61, "duration": 4, "velocity": 90}, {"time": 1407, "pitch": 56, "duration": 5, "velocity": 90}, {"time": 1410, "pitch": 61, "duration": 12, "velocity": 82}, {"time": 1413, "pitch": 39, "duration": 16, "velocity": 95}, {"time": 1416, "pitch": 46, "duration": 11, "velocity": 78}, {"time": 1419, "pitch": 51, "duration": 6, "velocity": 92}, {"time": 1422, "pitch": 54, "duration": 3, "velocity": 87}, {"time": 1425, "pitch": 51, "duration": 3, "velocity": 85}, {"time": 1425, "pitch": 54, "duration": 7, "velocity": 92}, {"time": 1425, "pitch": 58, "duration": 10, "velocity": 92}, {"time": 1428, "pitch": 46, "duration": 2, "velocity": 91}, {"time": 1431, "pitch": 51, "duration": 4, "velocity": 94}, {"time": 1434, "pitch": 54, "duration": 4, "velocity": 88}, {"time": 1437, "pitch": 44, "duration": 23, "velocity": 91}, {"time": 1437, "pitch": 56, "duration": 4, "velocity": 90}, {"time": 1440, "pitch": 51, "duration": 11, "velocity": 91}, {"time": 1443, "pitch": 56, "duration": 4, "velocity": 90}, {"time": 1446, "pitch": 59, "duration": 2, "velocity": 82}, {"time": 1449, "pitch": 56, "duration": 4, "velocity": 93}, {"time": 1449, "pitch": 59, "duration": 4, "velocity": 95}, {"time": 1449, "pitch": 63, "duration": 5, "velocity": 99}, {"time": 1452, "pitch": 51, "duration": 8, "velocity": 92}, {"time": 1455, "pitch": 56, "duration": 5, "velocity": 91}, {"time": 1458, "pitch": 58, "duration": 2, "velocity": 73}, {"time": 1458, "pitch": 59, "duration": 3, "velocity": 76}, {"time": 1461, "pitch": 49, "duration": 15, "velocity": 101}, {"time": 1461, "pitch": 61, "duration": 7, "velocity": 90}, {"time": 1464, "pitch": 52, "duration": 12, "velocity": 90}, {"time": 1467, "pitch": 56, "duration": 5, "velocity": 86}, {"time": 1470, "pitch": 61, "duration": 4, "velocity": 84}, {"time": 1473, "pitch": 64, "duration": 4, "velocity": 93}, {"time": 1476, "pitch": 61, "duration": 4, "velocity": 91}, {"time": 1479, "pitch": 56, "duration": 5, "velocity": 90}, {"time": 1482, "pitch": 61, "duration": 3, "velocity": 86}, {"time": 1485, "pitch": 39, "duration": 18, "velocity": 90}, {"time": 1485, "pitch": 63, "duration": 5, "velocity": 89}, {"time": 1488, "pitch": 46, "duration": 14, "velocity": 84}, {"time": 1491, "pitch": 58, "duration": 4, "velocity": 89}, {"time": 1494, "pitch": 63, "duration": 2, "velocity": 86}, {"time": 1497, "pitch": 58, "duration": 4, "velocity": 96}, {"time": 1497, "pitch": 66, "duration": 5, "velocity": 90}, {"time": 1500, "pitch": 63, "duration": 4, "velocity": 91}, {"time": 1503, "pitch": 58, "duration": 2, "velocity": 92}, {"time": 1507, "pitch": 61, "duration": 7, "velocity": 77}, {"time": 1508, "pitch": 64, "duration": 5, "velocity": 83}, {"time": 1509, "pitch": 37, "duration": 5, "velocity": 93}, {"time": 1509, "pitch": 68, "duration": 4, "velocity": 74}, {"time": 1509, "pitch": 73, "duration": 4, "velocity": 91}, {"time": 1520, "pitch": 63, "duration": 3, "velocity": 80}, {"time": 1521, "pitch": 66, "duration": 4, "velocity": 77}, {"time": 1521, "pitch": 39, "duration": 4, "velocity": 91}, {"time": 1521, "pitch": 70, "duration": 4, "velocity": 78}, {"time": 1522, "pitch": 75, "duration": 4, "velocity": 75}, {"time": 1532, "pitch": 56, "duration": 4, "velocity": 71}, {"time": 1532, "pitch": 59, "duration": 6, "velocity": 78}, {"time": 1533, "pitch": 44, "duration": 23, "velocity": 91}, {"time": 1533, "pitch": 63, "duration": 7, "velocity": 89}, {"time": 1536, "pitch": 51, "duration": 10, "velocity": 88}, {"time": 1539, "pitch": 56, "duration": 4, "velocity": 87}, {"time": 1545, "pitch": 56, "duration": 3, "velocity": 90}, {"time": 1545, "pitch": 63, "duration": 5, "velocity": 94}, {"time": 1545, "pitch": 59, "duration": 4, "velocity": 96}, {"time": 1548, "pitch": 51, "duration": 8, "velocity": 95}, {"time": 1551, "pitch": 56, "duration": 5, "velocity": 91}, {"time": 1554, "pitch": 59, "duration": 2, "velocity": 86}, {"time": 1557, "pitch": 44, "duration": 43, "velocity": 92}, {"time": 1563, "pitch": 51, "duration": 9, "velocity": 85}, {"time": 1569, "pitch": 56, "duration": 6, "velocity": 78}, {"time": 1569, "pitch": 59, "duration": 6, "velocity": 90}, {"time": 1569, "pitch": 63, "duration": 6, "velocity": 91}, {"time": 1575, "pitch": 51, "duration": 9, "velocity": 74}, {"time": 1581, "pitch": 59, "duration": 6, "velocity": 86}, {"time": 1581, "pitch": 63, "duration": 6, "velocity": 90}, {"time": 1587, "pitch": 51, "duration": 12, "velocity": 68}, {"time": 1593, "pitch": 68, "duration": 4, "velocity": 89}, {"time": 1596, "pitch": 63, "duration": 4, "velocity": 92}, {"time": 1599, "pitch": 59, "duration": 5, "velocity": 91}, {"time": 1602, "pitch": 56, "duration": 6, "velocity": 75}, {"time": 1605, "pitch": 39, "duration": 45, "velocity": 92}, {"time": 1611, "pitch": 51, "duration": 6, "velocity": 91}, {"time": 1617, "pitch": 51, "duration": 3, "velocity": 84}, {"time": 1617, "pitch": 54, "duration": 4, "velocity": 79}, {"time": 1617, "pitch": 58, "duration": 4, "velocity": 86}, {"time": 1629, "pitch": 54, "duration": 9, "velocity": 82}, {"time": 1629, "pitch": 58, "duration": 7, "velocity": 82}, {"time": 1635, "pitch": 46, "duration": 14, "velocity": 63}, {"time": 1641, "pitch": 51, "duration": 4, "velocity": 67}, {"time": 1641, "pitch": 63, "duration": 16, "velocity": 94}, {"time": 1644, "pitch": 58, "duration": 9, "velocity": 91}, {"time": 1647, "pitch": 54, "duration": 6, "velocity": 90}, {"time": 1650, "pitch": 51, "duration": 4, "velocity": 80}, {"time": 1653, "pitch": 37, "duration": 39, "velocity": 93}, {"time": 1659, "pitch": 56, "duration": 8, "velocity": 79}, {"time": 1665, "pitch": 61, "duration": 6, "velocity": 87}, {"time": 1665, "pitch": 64, "duration": 7, "velocity": 88}, {"time": 1677, "pitch": 56, "duration": 5, "velocity": 90}, {"time": 1677, "pitch": 61, "duration": 8, "velocity": 91}, {"time": 1683, "pitch": 56, "duration": 6, "velocity": 90}, {"time": 1689, "pitch": 56, "duration": 1, "velocity": 75}, {"time": 1689, "pitch": 61, "duration": 6, "velocity": 90}, {"time": 1689, "pitch": 64, "duration": 7, "velocity": 89}, {"time": 1695, "pitch": 56, "duration": 2, "velocity": 67}, {"time": 1701, "pitch": 42, "duration": 19, "velocity": 90}, {"time": 1701, "pitch": 54, "duration": 11, "velocity": 85}, {"time": 1701, "pitch": 58, "duration": 10, "velocity": 83}, {"time": 1707, "pitch": 49, "duration": 12, "velocity": 85}, {"time": 1710, "pitch": 61, "duration": 4, "velocity": 84}, {"time": 1713, "pitch": 66, "duration": 6, "velocity": 92}, {"time": 1716, "pitch": 61, "duration": 4, "velocity": 90}, {"time": 1719, "pitch": 58, "duration": 3, "velocity": 91}, {"time": 1725, "pitch": 39, "duration": 17, "velocity": 93}, {"time": 1725, "pitch": 51, "duration": 10, "velocity": 91}, {"time": 1725, "pitch": 54, "duration": 9, "velocity": 90}, {"time": 1731, "pitch": 46, "duration": 10, "velocity": 77}, {"time": 1737, "pitch": 51, "duration": 4, "velocity": 92}, {"time": 1737, "pitch": 58, "duration": 4, "velocity": 93}, {"time": 1740, "pitch": 54, "duration": 4, "velocity": 91}, {"time": 1743, "pitch": 51, "duration": 2, "velocity": 95}, {"time": 1749, "pitch": 44, "duration": 23, "velocity": 91}, {"time": 1749, "pitch": 56, "duration": 11, "velocity": 90}, {"time": 1749, "pitch": 59, "duration": 8, "velocity": 91}, {"time": 1755, "pitch": 51, "duration": 17, "velocity": 81}, {"time": 1761, "pitch": 59, "duration": 10, "velocity": 93}, {"time": 1761, "pitch": 63, "duration": 11, "velocity": 92}, {"time": 1767, "pitch": 56, "duration": 5, "velocity": 75}, {"time": 1773, "pitch": 44, "duration": 22, "velocity": 90}, {"time": 1773, "pitch": 59, "duration": 7, "velocity": 85}, {"time": 1773, "pitch": 63, "duration": 8, "velocity": 90}, {"time": 1779, "pitch": 51, "duration": 15, "velocity": 78}, {"time": 1785, "pitch": 59, "duration": 7, "velocity": 92}, {"time": 1785, "pitch": 63, "duration": 9, "velocity": 92}, {"time": 1785, "pitch": 68, "duration": 7, "velocity": 90}, {"time": 1791, "pitch": 56, "duration": 5, "velocity": 83}, {"time": 1797, "pitch": 39, "duration": 22, "velocity": 92}, {"time": 1797, "pitch": 58, "duration": 8, "velocity": 83}, {"time": 1797, "pitch": 63, "duration": 8, "velocity": 90}, {"time": 1797, "pitch": 66, "duration": 8, "velocity": 86}, {"time": 1803, "pitch": 46, "duration": 16, "velocity": 73}, {"time": 1809, "pitch": 58, "duration": 8, "velocity": 92}, {"time": 1809, "pitch": 63, "duration": 8, "velocity": 95}, {"time": 1809, "pitch": 66, "duration": 10, "velocity": 91}, {"time": 1821, "pitch": 39, "duration": 17, "velocity": 91}, {"time": 1821, "pitch": 58, "duration": 7, "velocity": 84}, {"time": 1821, "pitch": 63, "duration": 8, "velocity": 90}, {"time": 1821, "pitch": 66, "duration": 8, "velocity": 86}, {"time": 1827, "pitch": 46, "duration": 10, "velocity": 76}, {"time": 1833, "pitch": 70, "duration": 4, "velocity": 96}, {"time": 1836, "pitch": 68, "duration": 4, "velocity": 94}, {"time": 1839, "pitch": 66, "duration": 4, "velocity": 94}, {"time": 1842, "pitch": 63, "duration": 4, "velocity": 91}, {"time": 1845, "pitch": 49, "duration": 22, "velocity": 92}, {"time": 1845, "pitch": 61, "duration": 9, "velocity": 90}, {"time": 1851, "pitch": 56, "duration": 17, "velocity": 80}, {"time": 1857, "pitch": 61, "duration": 4, "velocity": 90}, {"time": 1857, "pitch": 64, "duration": 4, "velocity": 93}, {"time": 1857, "pitch": 68, "duration": 4, "velocity": 94}, {"time": 1869, "pitch": 39, "duration": 19, "velocity": 93}, {"time": 1869, "pitch": 63, "duration": 10, "velocity": 88}, {"time": 1869, "pitch": 66, "duration": 9, "velocity": 86}, {"time": 1869, "pitch": 70, "duration": 10, "velocity": 90}, {"time": 1875, "pitch": 46, "duration": 12, "velocity": 83}, {"time": 1881, "pitch": 63, "duration": 3, "velocity": 93}, {"time": 1881, "pitch": 66, "duration": 11, "velocity": 97}, {"time": 1881, "pitch": 70, "duration": 10, "velocity": 97}, {"time": 1887, "pitch": 63, "duration": 6, "velocity": 85}, {"time": 1893, "pitch": 44, "duration": 22, "velocity": 90}, {"time": 1893, "pitch": 63, "duration": 10, "velocity": 86}, {"time": 1893, "pitch": 68, "duration": 10, "velocity": 89}, {"time": 1899, "pitch": 51, "duration": 14, "velocity": 90}, {"time": 1905, "pitch": 63, "duration": 2, "velocity": 92}, {"time": 1905, "pitch": 68, "duration": 2, "velocity": 94}, {"time": 1911, "pitch": 56, "duration": 4, "velocity": 83}, {"time": 1917, "pitch": 44, "duration": 25, "velocity": 91}, {"time": 1917, "pitch": 56, "duration": 7, "velocity": 84}, {"time": 1917, "pitch": 59, "duration": 6, "velocity": 90}, {"time": 1917, "pitch": 63, "duration": 7, "velocity": 91}, {"time": 1923, "pitch": 51, "duration": 19, "velocity": 81}, {"time": 1929, "pitch": 56, "duration": 5, "velocity": 90}, {"time": 1929, "pitch": 59, "duration": 4, "velocity": 91}, {"time": 1935, "pitch": 58, "duration": 6, "velocity": 84}, {"time": 1941, "pitch": 44, "duration": 1, "velocity": 90}, {"time": 1941, "pitch": 56, "duration": 14, "velocity": 83}, {"time": 1947, "pitch": 51, "duration": 35, "velocity": 75}, {"time": 1953, "pitch": 59, "duration": 10, "velocity": 85}, {"time": 1953, "pitch": 63, "duration": 10, "velocity": 90}, {"time": 1959, "pitch": 56, "duration": 8, "velocity": 77}, {"time": 1965, "pitch": 59, "duration": 7, "velocity": 73}, {"time": 1965, "pitch": 63, "duration": 7, "velocity": 84}, {"time": 1965, "pitch": 68, "duration": 6, "velocity": 88}, {"time": 1971, "pitch": 56, "duration": 6, "velocity": 72}, {"time": 1977, "pitch": 59, "duration": 4, "velocity": 86}, {"time": 1977, "pitch": 63, "duration": 6, "velocity": 91}, {"time": 1983, "pitch": 56, "duration": 6, "velocity": 91}, {"time": 1989, "pitch": 39, "duration": 22, "velocity": 92}, {"time": 1995, "pitch": 51, "duration": 8, "velocity": 85}, {"time": 2001, "pitch": 54, "duration": 8, "velocity": 84}, {"time": 2007, "pitch": 51, "duration": 4, "velocity": 84}, {"time": 2013, "pitch": 44, "duration": 21, "velocity": 88}, {"time": 2013, "pitch": 56, "duration": 11, "velocity": 84}, {"time": 2019, "pitch": 51, "duration": 14, "velocity": 85}, {"time": 2025, "pitch": 56, "duration": 3, "velocity": 88}, {"time": 2025, "pitch": 59, "duration": 6, "velocity": 89}, {"time": 2037, "pitch": 49, "duration": 20, "velocity": 86}, {"time": 2037, "pitch": 64, "duration": 9, "velocity": 88}, {"time": 2043, "pitch": 56, "duration": 8, "velocity": 86}, {"time": 2049, "pitch": 61, "duration": 7, "velocity": 92}, {"time": 2055, "pitch": 56, "duration": 7, "velocity": 92}, {"time": 2061, "pitch": 61, "duration": 3, "velocity": 90}, {"time": 2061, "pitch": 64, "duration": 8, "velocity": 84}, {"time": 2067, "pitch": 56, "duration": 7, "velocity": 81}, {"time": 2073, "pitch": 49, "duration": 3, "velocity": 91}, {"time": 2073, "pitch": 61, "duration": 11, "velocity": 91}, {"time": 2085, "pitch": 44, "duration": 16, "velocity": 91}, {"time": 2085, "pitch": 56, "duration": 13, "velocity": 83}, {"time": 2085, "pitch": 59, "duration": 7, "velocity": 84}, {"time": 2091, "pitch": 51, "duration": 8, "velocity": 81}, {"time": 2097, "pitch": 59, "duration": 6, "velocity": 91}, {"time": 2097, "pitch": 63, "duration": 6, "velocity": 91}, {"time": 2103, "pitch": 56, "duration": 7, "velocity": 92}, {"time": 2109, "pitch": 39, "duration": 14, "velocity": 92}, {"time": 2109, "pitch": 58, "duration": 7, "velocity": 84}, {"time": 2115, "pitch": 46, "duration": 7, "velocity": 80}, {"time": 2121, "pitch": 54, "duration": 6, "velocity": 90}, {"time": 2121, "pitch": 58, "duration": 7, "velocity": 91}, {"time": 2127, "pitch": 51, "duration": 2, "velocity": 93}, {"time": 2133, "pitch": 44, "duration": 19, "velocity": 91}, {"time": 2133, "pitch": 56, "duration": 11, "velocity": 84}, {"time": 2133, "pitch": 59, "duration": 7, "velocity": 85}, {"time": 2139, "pitch": 51, "duration": 13, "velocity": 80}, {"time": 2145, "pitch": 59, "duration": 6, "velocity": 90}, {"time": 2145, "pitch": 63, "duration": 6, "velocity": 94}, {"time": 2151, "pitch": 56, "duration": 7, "velocity": 91}, {"time": 2157, "pitch": 49, "duration": 14, "velocity": 85}, {"time": 2157, "pitch": 61, "duration": 9, "velocity": 88}, {"time": 2163, "pitch": 52, "duration": 8, "velocity": 77}, {"time": 2169, "pitch": 61, "duration": 7, "velocity": 91}, {"time": 2169, "pitch": 64, "duration": 5, "velocity": 86}, {"time": 2175, "pitch": 56, "duration": 2, "velocity": 90}, {"time": 2181, "pitch": 39, "duration": 18, "velocity": 90}, {"time": 2181, "pitch": 51, "duration": 9, "velocity": 88}, {"time": 2181, "pitch": 54, "duration": 9, "velocity": 85}, {"time": 2193, "pitch": 54, "duration": 7, "velocity": 92}, {"time": 2193, "pitch": 58, "duration": 7, "velocity": 92}, {"time": 2199, "pitch": 51, "duration": 3, "velocity": 91}, {"time": 2205, "pitch": 44, "duration": 20, "velocity": 90}, {"time": 2205, "pitch": 56, "duration": 9, "velocity": 78}, {"time": 2205, "pitch": 59, "duration": 8, "velocity": 82}, {"time": 2211, "pitch": 51, "duration": 14, "velocity": 81}, {"time": 2217, "pitch": 56, "duration": 3, "velocity": 84}, {"time": 2217, "pitch": 59, "duration": 5, "velocity": 91}, {"time": 2217, "pitch": 63, "duration": 5, "velocity": 91}, {"time": 2223, "pitch": 56, "duration": 7, "velocity": 84}, {"time": 2229, "pitch": 49, "duration": 21, "velocity": 91}, {"time": 2229, "pitch": 61, "duration": 7, "velocity": 86}, {"time": 2229, "pitch": 64, "duration": 7, "velocity": 84}, {"time": 2235, "pitch": 56, "duration": 6, "velocity": 68}, {"time": 2241, "pitch": 61, "duration": 2, "velocity": 90}, {"time": 2241, "pitch": 64, "duration": 3, "velocity": 89}, {"time": 2247, "pitch": 56, "duration": 5, "velocity": 84}, {"time": 2253, "pitch": 49, "duration": 13, "velocity": 94}, {"time": 2253, "pitch": 56, "duration": 3, "velocity": 85}, {"time": 2253, "pitch": 61, "duration": 9, "velocity": 90}, {"time": 2259, "pitch": 56, "duration": 4, "velocity": 77}, {"time": 2265, "pitch": 56, "duration": 3, "velocity": 85}, {"time": 2265, "pitch": 61, "duration": 6, "velocity": 89}, {"time": 2265, "pitch": 64, "duration": 7, "velocity": 86}, {"time": 2277, "pitch": 39, "duration": 15, "velocity": 91}, {"time": 2277, "pitch": 58, "duration": 3, "velocity": 89}, {"time": 2277, "pitch": 63, "duration": 7, "velocity": 91}, {"time": 2277, "pitch": 66, "duration": 7, "velocity": 85}, {"time": 2283, "pitch": 58, "duration": 5, "velocity": 85}, {"time": 2289, "pitch": 58, "duration": 2, "velocity": 90}, {"time": 2289, "pitch": 63, "duration": 6, "velocity": 93}, {"time": 2289, "pitch": 66, "duration": 7, "velocity": 90}, {"time": 2295, "pitch": 58, "duration": 2, "velocity": 85}, {"time": 2301, "pitch": 44, "duration": 21, "velocity": 90}, {"time": 2301, "pitch": 56, "duration": 9, "velocity": 70}, {"time": 2301, "pitch": 59, "duration": 8, "velocity": 73}, {"time": 2301, "pitch": 63, "duration": 9, "velocity": 75}, {"time": 2307, "pitch": 51, "duration": 8, "velocity": 85}, {"time": 2313, "pitch": 56, "duration": 3, "velocity": 90}, {"time": 2313, "pitch": 59, "duration": 4, "velocity": 97}, {"time": 2313, "pitch": 63, "duration": 4, "velocity": 96}, {"time": 2316, "pitch": 51, "duration": 7, "velocity": 91}, {"time": 2319, "pitch": 56, "duration": 4, "velocity": 96}, {"time": 2325, "pitch": 44, "duration": 19, "velocity": 91}, {"time": 2325, "pitch": 56, "duration": 10, "velocity": 89}, {"time": 2325, "pitch": 59, "duration": 11, "velocity": 90}, {"time": 2331, "pitch": 51, "duration": 10, "velocity": 83}, {"time": 2337, "pitch": 59, "duration": 10, "velocity": 92}, {"time": 2337, "pitch": 63, "duration": 10, "velocity": 93}, {"time": 2343, "pitch": 51, "duration": 7, "velocity": 86}, {"time": 2349, "pitch": 44, "duration": 16, "velocity": 86}, {"time": 2349, "pitch": 56, "duration": 7, "velocity": 78}, {"time": 2349, "pitch": 59, "duration": 8, "velocity": 83}, {"time": 2355, "pitch": 51, "duration": 8, "velocity": 79}, {"time": 2361, "pitch": 56, "duration": 7, "velocity": 90}, {"time": 2361, "pitch": 59, "duration": 8, "velocity": 93}, {"time": 2361, "pitch": 63, "duration": 13, "velocity": 92}, {"time": 2367, "pitch": 44, "duration": 2, "velocity": 90}, {"time": 2373, "pitch": 39, "duration": 14, "velocity": 92}, {"time": 2379, "pitch": 51, "duration": 7, "velocity": 95}, {"time": 2385, "pitch": 46, "duration": 7, "velocity": 82}, {"time": 2385, "pitch": 54, "duration": 3, "velocity": 90}, {"time": 2385, "pitch": 58, "duration": 7, "velocity": 87}, {"time": 2391, "pitch": 51, "duration": 2, "velocity": 91}, {"time": 2397, "pitch": 44, "duration": 20, "velocity": 91}, {"time": 2397, "pitch": 56, "duration": 10, "velocity": 73}, {"time": 2397, "pitch": 59, "duration": 8, "velocity": 80}, {"time": 2403, "pitch": 51, "duration": 10, "velocity": 83}, {"time": 2409, "pitch": 56, "duration": 3, "velocity": 89}, {"time": 2409, "pitch": 59, "duration": 7, "velocity": 95}, {"time": 2409, "pitch": 63, "duration": 7, "velocity": 91}, {"time": 2415, "pitch": 56, "duration": 5, "velocity": 93}, {"time": 2421, "pitch": 49, "duration": 20, "velocity": 96}, {"time": 2421, "pitch": 56, "duration": 3, "velocity": 86}, {"time": 2421, "pitch": 61, "duration": 7, "velocity": 85}, {"time": 2427, "pitch": 56, "duration": 5, "velocity": 82}, {"time": 2433, "pitch": 56, "duration": 3, "velocity": 90}, {"time": 2433, "pitch": 61, "duration": 7, "velocity": 92}, {"time": 2433, "pitch": 64, "duration": 7, "velocity": 91}, {"time": 2439, "pitch": 56, "duration": 8, "velocity": 85}, {"time": 2445, "pitch": 49, "duration": 16, "velocity": 96}, {"time": 2445, "pitch": 61, "duration": 8, "velocity": 89}, {"time": 2445, "pitch": 64, "duration": 8, "velocity": 88}, {"time": 2451, "pitch": 56, "duration": 5, "velocity": 82}, {"time": 2457, "pitch": 56, "duration": 3, "velocity": 91}, {"time": 2457, "pitch": 61, "duration": 6, "velocity": 94}, {"time": 2457, "pitch": 64, "duration": 11, "velocity": 91}, {"time": 2463, "pitch": 49, "duration": 6, "velocity": 91}, {"time": 2469, "pitch": 44, "duration": 16, "velocity": 92}, {"time": 2469, "pitch": 56, "duration": 7, "velocity": 85}, {"time": 2469, "pitch": 59, "duration": 7, "velocity": 86}, {"time": 2475, "pitch": 51, "duration": 9, "velocity": 83}, {"time": 2481, "pitch": 56, "duration": 4, "velocity": 91}, {"time": 2481, "pitch": 59, "duration": 5, "velocity": 99}, {"time": 2481, "pitch": 63, "duration": 7, "velocity": 96}, {"time": 2487, "pitch": 44, "duration": 3, "velocity": 91}, {"time": 2493, "pitch": 39, "duration": 18, "velocity": 97}, {"time": 2493, "pitch": 54, "duration": 5, "velocity": 84}, {"time": 2493, "pitch": 58, "duration": 5, "velocity": 89}, {"time": 2499, "pitch": 46, "duration": 7, "velocity": 79}, {"time": 2502, "pitch": 51, "duration": 2, "velocity": 88}, {"time": 2505, "pitch": 51, "duration": 2, "velocity": 88}, {"time": 2505, "pitch": 58, "duration": 7, "velocity": 95}, {"time": 2508, "pitch": 46, "duration": 3, "velocity": 92}, {"time": 2511, "pitch": 51, "duration": 4, "velocity": 92}, {"time": 2514, "pitch": 54, "duration": 3, "velocity": 83}, {"time": 2517, "pitch": 44, "duration": 16, "velocity": 94}, {"time": 2520, "pitch": 51, "duration": 12, "velocity": 84}, {"time": 2523, "pitch": 56, "duration": 4, "velocity": 84}, {"time": 2529, "pitch": 56, "duration": 8, "velocity": 90}, {"time": 2529, "pitch": 59, "duration": 7, "velocity": 92}, {"time": 2529, "pitch": 63, "duration": 8, "velocity": 95}, {"time": 2535, "pitch": 44, "duration": 6, "velocity": 91}, {"time": 2541, "pitch": 49, "duration": 19, "velocity": 91}, {"time": 2541, "pitch": 61, "duration": 8, "velocity": 89}, {"time": 2541, "pitch": 64, "duration": 7, "velocity": 90}, {"time": 2547, "pitch": 56, "duration": 4, "velocity": 82}, {"time": 2553, "pitch": 56, "duration": 5, "velocity": 90}, {"time": 2553, "pitch": 61, "duration": 4, "velocity": 92}, {"time": 2553, "pitch": 64, "duration": 5, "velocity": 92}, {"time": 2559, "pitch": 61, "duration": 4, "velocity": 92}, {"time": 2562, "pitch": 59, "duration": 3, "velocity": 92}, {"time": 2565, "pitch": 39, "duration": 19, "velocity": 92}, {"time": 2565, "pitch": 58, "duration": 6, "velocity": 87}, {"time": 2571, "pitch": 46, "duration": 8, "velocity": 80}, {"time": 2577, "pitch": 51, "duration": 6, "velocity": 94}, {"time": 2577, "pitch": 54, "duration": 8, "velocity": 107}, {"time": 2583, "pitch": 46, "duration": 4, "velocity": 92}, {"time": 2586, "pitch": 51, "duration": 3, "velocity": 94}, {"time": 2589, "pitch": 44, "duration": 23, "velocity": 89}, {"time": 2589, "pitch": 56, "duration": 8, "velocity": 86}, {"time": 2595, "pitch": 51, "duration": 7, "velocity": 84}, {"time": 2601, "pitch": 59, "duration": 4, "velocity": 88}, {"time": 2601, "pitch": 63, "duration": 5, "velocity": 93}, {"time": 2604, "pitch": 51, "duration": 8, "velocity": 84}, {"time": 2607, "pitch": 61, "duration": 4, "velocity": 91}, {"time": 2610, "pitch": 59, "duration": 2, "velocity": 82}, {"time": 2613, "pitch": 49, "duration": 14, "velocity": 88}, {"time": 2613, "pitch": 61, "duration": 7, "velocity": 91}, {"time": 2619, "pitch": 56, "duration": 7, "velocity": 88}, {"time": 2625, "pitch": 61, "duration": 7, "velocity": 90}, {"time": 2625, "pitch": 64, "duration": 5, "velocity": 90}, {"time": 2631, "pitch": 56, "duration": 7, "velocity": 92}, {"time": 2637, "pitch": 37, "duration": 16, "velocity": 91}, {"time": 2637, "pitch": 61, "duration": 10, "velocity": 85}, {"time": 2637, "pitch": 64, "duration": 6, "velocity": 84}, {"time": 2643, "pitch": 56, "duration": 4, "velocity": 79}, {"time": 2649, "pitch": 56, "duration": 7, "velocity": 90}, {"time": 2649, "pitch": 61, "duration": 10, "velocity": 91}, {"time": 2655, "pitch": 37, "duration": 5, "velocity": 95}, {"time": 2661, "pitch": 39, "duration": 15, "velocity": 92}, {"time": 2661, "pitch": 58, "duration": 5, "velocity": 86}, {"time": 2661, "pitch": 63, "duration": 9, "velocity": 92}, {"time": 2667, "pitch": 46, "duration": 9, "velocity": 77}, {"time": 2673, "pitch": 58, "duration": 3, "velocity": 91}, {"time": 2673, "pitch": 63, "duration": 7, "velocity": 95}, {"time": 2673, "pitch": 66, "duration": 6, "velocity": 89}, {"time": 2679, "pitch": 58, "duration": 2, "velocity": 95}, {"time": 2685, "pitch": 44, "duration": 26, "velocity": 91}, {"time": 2685, "pitch": 56, "duration": 4, "velocity": 86}, {"time": 2685, "pitch": 59, "duration": 4, "velocity": 90}, {"time": 2685, "pitch": 63, "duration": 4, "velocity": 94}, {"time": 2688, "pitch": 51, "duration": 17, "velocity": 95}, {"time": 2691, "pitch": 56, "duration": 2, "velocity": 93}, {"time": 2694, "pitch": 58, "duration": 2, "velocity": 96}, {"time": 2697, "pitch": 56, "duration": 3, "velocity": 92}, {"time": 2697, "pitch": 59, "duration": 3, "velocity": 101}, {"time": 2700, "pitch": 58, "duration": 2, "velocity": 94}, {"time": 2703, "pitch": 56, "duration": 2, "velocity": 107}, {"time": 2706, "pitch": 51, "duration": 4, "velocity": 93}, {"time": 2709, "pitch": 44, "duration": 2, "velocity": 92}, {"time": 2709, "pitch": 68, "duration": 10, "velocity": 90}, {"time": 2712, "pitch": 51, "duration": 11, "velocity": 91}, {"time": 2715, "pitch": 63, "duration": 4, "velocity": 87}, {"time": 2718, "pitch": 59, "duration": 2, "velocity": 91}, {"time": 2721, "pitch": 59, "duration": 3, "velocity": 92}, {"time": 2721, "pitch": 63, "duration": 4, "velocity": 96}, {"time": 2721, "pitch": 68, "duration": 5, "velocity": 91}, {"time": 2724, "pitch": 51, "duration": 8, "velocity": 90}, {"time": 2727, "pitch": 59, "duration": 4, "velocity": 90}, {"time": 2730, "pitch": 63, "duration": 9, "velocity": 91}, {"time": 2733, "pitch": 44, "duration": 21, "velocity": 91}, {"time": 2736, "pitch": 51, "duration": 18, "velocity": 89}, {"time": 2739, "pitch": 56, "duration": 10, "velocity": 86}, {"time": 2742, "pitch": 59, "duration": 5, "velocity": 90}, {"time": 2745, "pitch": 68, "duration": 5, "velocity": 94}, {"time": 2748, "pitch": 63, "duration": 7, "velocity": 90}, {"time": 2751, "pitch": 59, "duration": 5, "velocity": 91}, {"time": 2754, "pitch": 56, "duration": 5, "velocity": 91}, {"time": 2757, "pitch": 39, "duration": 23, "velocity": 95}, {"time": 2760, "pitch": 46, "duration": 20, "velocity": 86}, {"time": 2763, "pitch": 51, "duration": 10, "velocity": 91}, {"time": 2766, "pitch": 54, "duration": 7, "velocity": 90}, {"time": 2769, "pitch": 63, "duration": 11, "velocity": 101}, {"time": 2772, "pitch": 58, "duration": 8, "velocity": 91}, {"time": 2775, "pitch": 54, "duration": 4, "velocity": 92}, {"time": 2778, "pitch": 51, "duration": 5, "velocity": 91}, {"time": 2781, "pitch": 39, "duration": 16, "velocity": 96}, {"time": 2781, "pitch": 54, "duration": 7, "velocity": 93}, {"time": 2781, "pitch": 58, "duration": 8, "velocity": 92}, {"time": 2784, "pitch": 46, "duration": 11, "velocity": 85}, {"time": 2787, "pitch": 51, "duration": 5, "velocity": 90}, {"time": 2790, "pitch": 54, "duration": 2, "velocity": 88}, {"time": 2790, "pitch": 58, "duration": 1, "velocity": 50}, {"time": 2793, "pitch": 51, "duration": 4, "velocity": 97}, {"time": 2793, "pitch": 54, "duration": 4, "velocity": 99}, {"time": 2793, "pitch": 58, "duration": 4, "velocity": 101}, {"time": 2793, "pitch": 63, "duration": 5, "velocity": 97}, {"time": 2796, "pitch": 46, "duration": 3, "velocity": 91}, {"time": 2799, "pitch": 39, "duration": 4, "velocity": 95}, {"time": 2805, "pitch": 37, "duration": 18, "velocity": 96}, {"time": 2805, "pitch": 61, "duration": 6, "velocity": 88}, {"time": 2805, "pitch": 64, "duration": 7, "velocity": 89}, {"time": 2808, "pitch": 44, "duration": 14, "velocity": 80}, {"time": 2811, "pitch": 56, "duration": 5, "velocity": 91}, {"time": 2814, "pitch": 61, "duration": 2, "velocity": 85}, {"time": 2817, "pitch": 64, "duration": 5, "velocity": 97}, {"time": 2820, "pitch": 61, "duration": 4, "velocity": 91}, {"time": 2823, "pitch": 56, "duration": 5, "velocity": 92}, {"time": 2826, "pitch": 61, "duration": 4, "velocity": 82}, {"time": 2829, "pitch": 49, "duration": 14, "velocity": 104}, {"time": 2829, "pitch": 64, "duration": 4, "velocity": 91}, {"time": 2832, "pitch": 61, "duration": 4, "velocity": 85}, {"time": 2835, "pitch": 56, "duration": 4, "velocity": 93}, {"time": 2838, "pitch": 61, "duration": 2, "velocity": 91}, {"time": 2841, "pitch": 56, "duration": 4, "velocity": 95}, {"time": 2841, "pitch": 64, "duration": 7, "velocity": 101}, {"time": 2844, "pitch": 49, "duration": 2, "velocity": 95}, {"time": 2847, "pitch": 56, "duration": 5, "velocity": 93}, {"time": 2850, "pitch": 61, "duration": 6, "velocity": 90}, {"time": 2853, "pitch": 42, "duration": 23, "velocity": 92}, {"time": 2856, "pitch": 49, "duration": 11, "velocity": 85}, {"time": 2859, "pitch": 54, "duration": 4, "velocity": 91}, {"time": 2862, "pitch": 58, "duration": 2, "velocity": 90}, {"time": 2865, "pitch": 54, "duration": 4, "velocity": 90}, {"time": 2865, "pitch": 58, "duration": 6, "velocity": 92}, {"time": 2865, "pitch": 61, "duration": 10, "velocity": 92}, {"time": 2868, "pitch": 49, "duration": 8, "velocity": 92}, {"time": 2871, "pitch": 54, "duration": 5, "velocity": 90}, {"time": 2874, "pitch": 58, "duration": 3, "velocity": 78}, {"time": 2877, "pitch": 39, "duration": 20, "velocity": 95}, {"time": 2877, "pitch": 51, "duration": 5, "velocity": 90}, {"time": 2877, "pitch": 58, "duration": 7, "velocity": 90}, {"time": 2877, "pitch": 63, "duration": 10, "velocity": 90}, {"time": 2880, "pitch": 46, "duration": 16, "velocity": 85}, {"time": 2883, "pitch": 51, "duration": 8, "velocity": 96}, {"time": 2886, "pitch": 58, "duration": 4, "velocity": 89}, {"time": 2889, "pitch": 63, "duration": 14, "velocity": 97}, {"time": 2892, "pitch": 58, "duration": 4, "velocity": 91}, {"time": 2895, "pitch": 51, "duration": 4, "velocity": 99}, {"time": 2898, "pitch": 58, "duration": 4, "velocity": 92}, {"time": 2901, "pitch": 44, "duration": 23, "velocity": 94}, {"time": 2904, "pitch": 51, "duration": 11, "velocity": 85}, {"time": 2907, "pitch": 56, "duration": 4, "velocity": 86}, {"time": 2910, "pitch": 59, "duration": 2, "velocity": 90}, {"time": 2913, "pitch": 56, "duration": 4, "velocity": 90}, {"time": 2913, "pitch": 59, "duration": 7, "velocity": 93}, {"time": 2913, "pitch": 63, "duration": 7, "velocity": 95}, {"time": 2916, "pitch": 51, "duration": 8, "velocity": 88}, {"time": 2919, "pitch": 56, "duration": 8, "velocity": 87}, {"time": 2922, "pitch": 59, "duration": 6, "velocity": 88}, {"time": 2925, "pitch": 49, "duration": 17, "velocity": 106}, {"time": 2928, "pitch": 52, "duration": 14, "velocity": 89}, {"time": 2931, "pitch": 56, "duration": 7, "velocity": 91}, {"time": 2934, "pitch": 61, "duration": 4, "velocity": 85}, {"time": 2937, "pitch": 64, "duration": 5, "velocity": 92}, {"time": 2940, "pitch": 61, "duration": 4, "velocity": 90}, {"time": 2943, "pitch": 56, "duration": 5, "velocity": 90}, {"time": 2946, "pitch": 61, "duration": 12, "velocity": 82}, {"time": 2949, "pitch": 39, "duration": 16, "velocity": 95}, {"time": 2952, "pitch": 46, "duration": 11, "velocity": 78}, {"time": 2955, "pitch": 51, "duration": 6, "velocity": 92}, {"time": 2958, "pitch": 54, "duration": 3, "velocity": 87}, {"time": 2961, "pitch": 51, "duration": 3, "velocity": 85}, {"time": 2961, "pitch": 54, "duration": 7, "velocity": 92}, {"time": 2961, "pitch": 58, "duration": 10, "velocity": 92}, {"time": 2964, "pitch": 46, "duration": 2, "velocity": 91}, {"time": 2967, "pitch": 51, "duration": 4, "velocity": 94}, {"time": 2970, "pitch": 54, "duration": 4, "velocity": 88}, {"time": 2973, "pitch": 44, "duration": 23, "velocity": 91}, {"time": 2973, "pitch": 56, "duration": 4, "velocity": 90}, {"time": 2976, "pitch": 51, "duration": 11, "velocity": 91}, {"time": 2979, "pitch": 56, "duration": 4, "velocity": 90}, {"time": 2982, "pitch": 59, "duration": 2, "velocity": 82}, {"time": 2985, "pitch": 56, "duration": 4, "velocity": 93}, {"time": 2985, "pitch": 59, "duration": 4, "velocity": 95}, {"time": 2985, "pitch": 63, "duration": 5, "velocity": 99}, {"time": 2988, "pitch": 51, "duration": 8, "velocity": 92}, {"time": 2991, "pitch": 56, "duration": 5, "velocity": 91}, {"time": 2994, "pitch": 58, "duration": 2, "velocity": 73}, {"time": 2994, "pitch": 59, "duration": 3, "velocity": 76}, {"time": 2997, "pitch": 49, "duration": 15, "velocity": 101}, {"time": 2997, "pitch": 61, "duration": 7, "velocity": 90}, {"time": 3000, "pitch": 52, "duration": 12, "velocity": 90}, {"time": 3003, "pitch": 56, "duration": 5, "velocity": 86}, {"time": 3006, "pitch": 61, "duration": 4, "velocity": 84}, {"time": 3009, "pitch": 64, "duration": 4, "velocity": 93}, {"time": 3012, "pitch": 61, "duration": 4, "velocity": 91}, {"time": 3015, "pitch": 56, "duration": 5, "velocity": 90}, {"time": 3018, "pitch": 61, "duration": 3, "velocity": 86}, {"time": 3021, "pitch": 39, "duration": 18, "velocity": 90}, {"time": 3021, "pitch": 63, "duration": 5, "velocity": 89}, {"time": 3024, "pitch": 46, "duration": 14, "velocity": 84}, {"time": 3027, "pitch": 58, "duration": 4, "velocity": 89}, {"time": 3030, "pitch": 63, "duration": 2, "velocity": 86}, {"time": 3033, "pitch": 58, "duration": 4, "velocity": 96}, {"time": 3033, "pitch": 66, "duration": 5, "velocity": 90}, {"time": 3036, "pitch": 63, "duration": 4, "velocity": 91}, {"time": 3039, "pitch": 58, "duration": 2, "velocity": 92}, {"time": 3043, "pitch": 61, "duration": 7, "velocity": 77}, {"time": 3044, "pitch": 64, "duration": 5, "velocity": 83}, {"time": 3045, "pitch": 37, "duration": 5, "velocity": 93}, {"time": 3045, "pitch": 68, "duration": 4, "velocity": 74}, {"time": 3045, "pitch": 73, "duration": 4, "velocity": 91}, {"time": 3056, "pitch": 63, "duration": 3, "velocity": 80}, {"time": 3057, "pitch": 66, "duration": 4, "velocity": 77}, {"time": 3057, "pitch": 39, "duration": 4, "velocity": 91}, {"time": 3057, "pitch": 70, "duration": 4, "velocity": 78}, {"time": 3058, "pitch": 75, "duration": 4, "velocity": 75}, {"time": 3068, "pitch": 56, "duration": 4, "velocity": 71}, {"time": 3068, "pitch": 59, "duration": 6, "velocity": 78}, {"time": 3069, "pitch": 44, "duration": 23, "velocity": 91}, {"time": 3069, "pitch": 63, "duration": 7, "velocity": 89}, {"time": 3072, "pitch": 51, "duration": 10, "velocity": 88}, {"time": 3075, "pitch": 56, "duration": 4, "velocity": 87}, {"time": 3081, "pitch": 56, "duration": 3, "velocity": 90}, {"time": 3081, "pitch": 63, "duration": 5, "velocity": 94}, {"time": 3081, "pitch": 59, "duration": 4, "velocity": 96}, {"time": 3084, "pitch": 51, "duration": 8, "velocity": 95}, {"time": 3087, "pitch": 56, "duration": 5, "velocity": 91}, {"time": 3090, "pitch": 59, "duration": 2, "velocity": 86}, {"time": 3093, "pitch": 44, "duration": 22, "velocity": 92}, {"time": 3093, "pitch": 68, "duration": 10, "velocity": 90}, {"time": 3096, "pitch": 51, "duration": 11, "velocity": 91}, {"time": 3099, "pitch": 63, "duration": 4, "velocity": 87}, {"time": 3102, "pitch": 59, "duration": 2, "velocity": 91}, {"time": 3105, "pitch": 59, "duration": 3, "velocity": 92}, {"time": 3105, "pitch": 63, "duration": 4, "velocity": 96}, {"time": 3105, "pitch": 68, "duration": 5, "velocity": 91}, {"time": 3108, "pitch": 51, "duration": 8, "velocity": 90}, {"time": 3111, "pitch": 59, "duration": 4, "velocity": 90}, {"time": 3114, "pitch": 63, "duration": 9, "velocity": 91}, {"time": 3117, "pitch": 44, "duration": 21, "velocity": 91}, {"time": 3120, "pitch": 51, "duration": 18, "velocity": 89}, {"time": 3123, "pitch": 56, "duration": 10, "velocity": 86}, {"time": 3126, "pitch": 59, "duration": 5, "velocity": 90}, {"time": 3129, "pitch": 68, "duration": 5, "velocity": 94}, {"time": 3132, "pitch": 63, "duration": 7, "velocity": 90}, {"time": 3135, "pitch": 59, "duration": 5, "velocity": 91}, {"time": 3138, "pitch": 56, "duration": 5, "velocity": 91}, {"time": 3141, "pitch": 39, "duration": 23, "velocity": 95}, {"time": 3144, "pitch": 46, "duration": 20, "velocity": 86}, {"time": 3147, "pitch": 51, "duration": 10, "velocity": 91}, {"time": 3150, "pitch": 54, "duration": 7, "velocity": 90}, {"time": 3153, "pitch": 63, "duration": 11, "velocity": 101}, {"time": 3156, "pitch": 58, "duration": 8, "velocity": 91}, {"time": 3159, "pitch": 54, "duration": 4, "velocity": 92}, {"time": 3162, "pitch": 51, "duration": 5, "velocity": 91}, {"time": 3165, "pitch": 39, "duration": 16, "velocity": 96}, {"time": 3165, "pitch": 54, "duration": 7, "velocity": 93}, {"time": 3165, "pitch": 58, "duration": 8, "velocity": 92}, {"time": 3168, "pitch": 46, "duration": 11, "velocity": 85}, {"time": 3171, "pitch": 51, "duration": 5, "velocity": 90}, {"time": 3174, "pitch": 54, "duration": 2, "velocity": 88}, {"time": 3174, "pitch": 58, "duration": 1, "velocity": 50}, {"time": 3177, "pitch": 51, "duration": 4, "velocity": 97}, {"time": 3177, "pitch": 54, "duration": 4, "velocity": 99}, {"time": 3177, "pitch": 58, "duration": 4, "velocity": 101}, {"time": 3177, "pitch": 63, "duration": 5, "velocity": 97}, {"time": 3180, "pitch": 46, "duration": 3, "velocity": 91}, {"time": 3183, "pitch": 39, "duration": 4, "velocity": 95}, {"time": 3189, "pitch": 37, "duration": 18, "velocity": 96}, {"time": 3189, "pitch": 61, "duration": 6, "velocity": 88}, {"time": 3189, "pitch": 64, "duration": 7, "velocity": 89}, {"time": 3192, "pitch": 44, "duration": 14, "velocity": 80}, {"time": 3195, "pitch": 56, "duration": 5, "velocity": 91}, {"time": 3198, "pitch": 61, "duration": 2, "velocity": 85}, {"time": 3201, "pitch": 64, "duration": 5, "velocity": 97}, {"time": 3204, "pitch": 61, "duration": 4, "velocity": 91}, {"time": 3207, "pitch": 56, "duration": 5, "velocity": 92}, {"time": 3210, "pitch": 61, "duration": 4, "velocity": 82}, {"time": 3213, "pitch": 49, "duration": 14, "velocity": 104}, {"time": 3213, "pitch": 64, "duration": 4, "velocity": 91}, {"time": 3216, "pitch": 61, "duration": 4, "velocity": 85}, {"time": 3219, "pitch": 56, "duration": 4, "velocity": 93}, {"time": 3222, "pitch": 61, "duration": 2, "velocity": 91}, {"time": 3225, "pitch": 56, "duration": 4, "velocity": 95}, {"time": 3225, "pitch": 64, "duration": 7, "velocity": 101}, {"time": 3228, "pitch": 49, "duration": 2, "velocity": 95}, {"time": 3231, "pitch": 56, "duration": 5, "velocity": 93}, {"time": 3234, "pitch": 61, "duration": 6, "velocity": 90}, {"time": 3237, "pitch": 42, "duration": 23, "velocity": 92}, {"time": 3240, "pitch": 49, "duration": 11, "velocity": 85}, {"time": 3243, "pitch": 54, "duration": 4, "velocity": 91}, {"time": 3246, "pitch": 58, "duration": 2, "velocity": 90}, {"time": 3249, "pitch": 54, "duration": 4, "velocity": 90}, {"time": 3249, "pitch": 58, "duration": 6, "velocity": 92}, {"time": 3249, "pitch": 61, "duration": 10, "velocity": 92}, {"time": 3252, "pitch": 49, "duration": 8, "velocity": 92}, {"time": 3255, "pitch": 54, "duration": 5, "velocity": 90}, {"time": 3258, "pitch": 58, "duration": 3, "velocity": 78}, {"time": 3261, "pitch": 39, "duration": 20, "velocity": 95}, {"time": 3261, "pitch": 51, "duration": 5, "velocity": 90}, {"time": 3261, "pitch": 58, "duration": 7, "velocity": 90}, {"time": 3261, "pitch": 63, "duration": 10, "velocity": 90}, {"time": 3264, "pitch": 46, "duration": 16, "velocity": 85}, {"time": 3267, "pitch": 51, "duration": 8, "velocity": 96}, {"time": 3270, "pitch": 58, "duration": 4, "velocity": 89}, {"time": 3273, "pitch": 63, "duration": 14, "velocity": 97}, {"time": 3276, "pitch": 58, "duration": 4, "velocity": 91}, {"time": 3279, "pitch": 51, "duration": 4, "velocity": 99}, {"time": 3282, "pitch": 58, "duration": 4, "velocity": 92}, {"time": 3285, "pitch": 44, "duration": 23, "velocity": 94}, {"time": 3288, "pitch": 51, "duration": 11, "velocity": 85}, {"time": 3291, "pitch": 56, "duration": 4, "velocity": 86}, {"time": 3294, "pitch": 59, "duration": 2, "velocity": 90}, {"time": 3297, "pitch": 56, "duration": 4, "velocity": 90}, {"time": 3297, "pitch": 59, "duration": 7, "velocity": 93}, {"time": 3297, "pitch": 63, "duration": 7, "velocity": 95}, {"time": 3300, "pitch": 51, "duration": 8, "velocity": 88}, {"time": 3303, "pitch": 56, "duration": 8, "velocity": 87}, {"time": 3306, "pitch": 59, "duration": 6, "velocity": 88}, {"time": 3309, "pitch": 49, "duration": 17, "velocity": 106}, {"time": 3312, "pitch": 52, "duration": 14, "velocity": 89}, {"time": 3315, "pitch": 56, "duration": 7, "velocity": 91}, {"time": 3318, "pitch": 61, "duration": 4, "velocity": 85}, {"time": 3321, "pitch": 64, "duration": 5, "velocity": 92}, {"time": 3324, "pitch": 61, "duration": 4, "velocity": 90}, {"time": 3327, "pitch": 56, "duration": 5, "velocity": 90}, {"time": 3330, "pitch": 61, "duration": 12, "velocity": 82}, {"time": 3333, "pitch": 39, "duration": 16, "velocity": 95}, {"time": 3336, "pitch": 46, "duration": 11, "velocity": 78}, {"time": 3339, "pitch": 51, "duration": 6, "velocity": 92}, {"time": 3342, "pitch": 54, "duration": 3, "velocity": 87}, {"time": 3345, "pitch": 51, "duration": 3, "velocity": 85}, {"time": 3345, "pitch": 54, "duration": 7, "velocity": 92}, {"time": 3345, "pitch": 58, "duration": 10, "velocity": 92}, {"time": 3348, "pitch": 46, "duration": 2, "velocity": 91}, {"time": 3351, "pitch": 51, "duration": 4, "velocity": 94}, {"time": 3354, "pitch": 54, "duration": 4, "velocity": 88}, {"time": 3357, "pitch": 44, "duration": 23, "velocity": 91}, {"time": 3357, "pitch": 56, "duration": 4, "velocity": 90}, {"time": 3360, "pitch": 51, "duration": 11, "velocity": 91}, {"time": 3363, "pitch": 56, "duration": 4, "velocity": 90}, {"time": 3366, "pitch": 59, "duration": 2, "velocity": 82}, {"time": 3369, "pitch": 56, "duration": 4, "velocity": 93}, {"time": 3369, "pitch": 59, "duration": 4, "velocity": 95}, {"time": 3369, "pitch": 63, "duration": 5, "velocity": 99}, {"time": 3372, "pitch": 51, "duration": 8, "velocity": 92}, {"time": 3375, "pitch": 56, "duration": 5, "velocity": 91}, {"time": 3378, "pitch": 58, "duration": 2, "velocity": 73}, {"time": 3378, "pitch": 59, "duration": 3, "velocity": 76}, {"time": 3381, "pitch": 49, "duration": 15, "velocity": 101}, {"time": 3381, "pitch": 61, "duration": 7, "velocity": 90}, {"time": 3384, "pitch": 52, "duration": 12, "velocity": 90}, {"time": 3387, "pitch": 56, "duration": 5, "velocity": 86}, {"time": 3390, "pitch": 61, "duration": 4, "velocity": 84}, {"time": 3393, "pitch": 64, "duration": 4, "velocity": 93}, {"time": 3396, "pitch": 61, "duration": 4, "velocity": 91}, {"time": 3399, "pitch": 56, "duration": 5, "velocity": 90}, {"time": 3402, "pitch": 61, "duration": 3, "velocity": 86}, {"time": 3405, "pitch": 39, "duration": 18, "velocity": 90}, {"time": 3405, "pitch": 63, "duration": 5, "velocity": 89}, {"time": 3408, "pitch": 46, "duration": 14, "velocity": 84}, {"time": 3411, "pitch": 58, "duration": 4, "velocity": 89}, {"time": 3414, "pitch": 63, "duration": 2, "velocity": 86}, {"time": 3417, "pitch": 58, "duration": 4, "velocity": 96}, {"time": 3417, "pitch": 66, "duration": 5, "velocity": 90}, {"time": 3420, "pitch": 63, "duration": 4, "velocity": 91}, {"time": 3423, "pitch": 58, "duration": 2, "velocity": 92}, {"time": 3427, "pitch": 61, "duration": 7, "velocity": 77}, {"time": 3428, "pitch": 64, "duration": 5, "velocity": 83}, {"time": 3429, "pitch": 37, "duration": 5, "velocity": 93}, {"time": 3429, "pitch": 68, "duration": 4, "velocity": 74}, {"time": 3429, "pitch": 73, "duration": 4, "velocity": 91}, {"time": 3440, "pitch": 63, "duration": 3, "velocity": 80}, {"time": 3441, "pitch": 66, "duration": 4, "velocity": 77}, {"time": 3441, "pitch": 39, "duration": 4, "velocity": 91}, {"time": 3441, "pitch": 70, "duration": 4, "velocity": 78}, {"time": 3442, "pitch": 75, "duration": 4, "velocity": 75}, {"time": 3452, "pitch": 56, "duration": 4, "velocity": 71}, {"time": 3452, "pitch": 59, "duration": 6, "velocity": 78}, {"time": 3453, "pitch": 44, "duration": 23, "velocity": 91}, {"time": 3453, "pitch": 63, "duration": 7, "velocity": 89}, {"time": 3456, "pitch": 51, "duration": 10, "velocity": 88}, {"time": 3459, "pitch": 56, "duration": 4, "velocity": 87}, {"time": 3465, "pitch": 56, "duration": 3, "velocity": 90}, {"time": 3465, "pitch": 63, "duration": 5, "velocity": 94}, {"time": 3465, "pitch": 59, "duration": 4, "velocity": 96}, {"time": 3468, "pitch": 51, "duration": 8, "velocity": 95}, {"time": 3471, "pitch": 56, "duration": 5, "velocity": 91}, {"time": 3474, "pitch": 59, "duration": 2, "velocity": 86}, {"time": 3477, "pitch": 49, "duration": 15, "velocity": 101}, {"time": 3477, "pitch": 61, "duration": 7, "velocity": 90}, {"time": 3480, "pitch": 52, "duration": 12, "velocity": 90}, {"time": 3483, "pitch": 56, "duration": 5, "velocity": 86}, {"time": 3486, "pitch": 61, "duration": 4, "velocity": 84}, {"time": 3489, "pitch": 64, "duration": 4, "velocity": 93}, {"time": 3492, "pitch": 61, "duration": 4, "velocity": 91}, {"time": 3495, "pitch": 56, "duration": 5, "velocity": 90}, {"time": 3498, "pitch": 61, "duration": 3, "velocity": 86}, {"time": 3501, "pitch": 39, "duration": 18, "velocity": 90}, {"time": 3501, "pitch": 63, "duration": 5, "velocity": 89}, {"time": 3504, "pitch": 46, "duration": 14, "velocity": 84}, {"time": 3507, "pitch": 58, "duration": 4, "velocity": 89}, {"time": 3510, "pitch": 63, "duration": 2, "velocity": 86}, {"time": 3513, "pitch": 58, "duration": 4, "velocity": 96}, {"time": 3513, "pitch": 66, "duration": 5, "velocity": 90}, {"time": 3516, "pitch": 63, "duration": 4, "velocity": 91}, {"time": 3519, "pitch": 58, "duration": 2, "velocity": 92}, {"time": 3523, "pitch": 61, "duration": 7, "velocity": 77}, {"time": 3524, "pitch": 64, "duration": 5, "velocity": 83}, {"time": 3525, "pitch": 37, "duration": 5, "velocity": 93}, {"time": 3525, "pitch": 68, "duration": 4, "velocity": 74}, {"time": 3525, "pitch": 73, "duration": 4, "velocity": 91}, {"time": 3536, "pitch": 51, "duration": 35, "velocity": 82}, {"time": 3536, "pitch": 39, "duration": 17, "velocity": 91}, {"time": 3537, "pitch": 54, "duration": 34, "velocity": 84}, {"time": 3538, "pitch": 58, "duration": 33, "velocity": 79}, {"time": 3539, "pitch": 63, "duration": 32, "velocity": 90}, {"time": 3573, "pitch": 59, "duration": 10, "velocity": 86}, {"time": 3573, "pitch": 56, "duration": 7, "velocity": 83}, {"time": 3573, "pitch": 44, "duration": 13, "velocity": 91}, {"time": 3579, "pitch": 51, "duration": 7, "velocity": 82}, {"time": 3585, "pitch": 56, "duration": 9, "velocity": 92}, {"time": 3590, "pitch": 59, "duration": 3, "velocity": 87}, {"time": 3590, "pitch": 63, "duration": 4, "velocity": 86}, {"time": 3596, "pitch": 56, "duration": 2, "velocity": 38}, {"time": 3596, "pitch": 68, "duration": 7, "velocity": 86}, {"time": 3602, "pitch": 56, "duration": 5, "velocity": 69}, {"time": 3608, "pitch": 44, "duration": 6, "velocity": 91}, {"time": 3608, "pitch": 59, "duration": 6, "velocity": 91}, {"time": 3608, "pitch": 63, "duration": 7, "velocity": 91}, {"time": 3608, "pitch": 56, "duration": 3, "velocity": 81}, {"time": 3615, "pitch": 56, "duration": 7, "velocity": 78}, {"time": 3620, "pitch": 37, "duration": 3, "velocity": 93}, {"time": 3621, "pitch": 61, "duration": 6, "velocity": 86}, {"time": 3621, "pitch": 64, "duration": 10, "velocity": 89}, {"time": 3626, "pitch": 49, "duration": 35, "velocity": 80}, {"time": 3633, "pitch": 56, "duration": 14, "velocity": 93}, {"time": 3638, "pitch": 61, "duration": 5, "velocity": 91}, {"time": 3644, "pitch": 61, "duration": 8, "velocity": 92}, {"time": 3644, "pitch": 64, "duration": 6, "velocity": 92}, {"time": 3650, "pitch": 56, "duration": 7, "velocity": 72}, {"time": 3656, "pitch": 68, "duration": 6, "velocity": 92}, {"time": 3656, "pitch": 64, "duration": 6, "velocity": 93}, {"time": 3656, "pitch": 61, "duration": 3, "velocity": 90}, {"time": 3659, "pitch": 56, "duration": 2, "velocity": 79}, {"time": 3662, "pitch": 61, "duration": 2, "velocity": 88}, {"time": 3669, "pitch": 58, "duration": 10, "velocity": 84}, {"time": 3669, "pitch": 39, "duration": 22, "velocity": 91}, {"time": 3669, "pitch": 63, "duration": 10, "velocity": 90}, {"time": 3675, "pitch": 46, "duration": 15, "velocity": 77}, {"time": 3681, "pitch": 66, "duration": 6, "velocity": 86}, {"time": 3686, "pitch": 58, "duration": 5, "velocity": 91}, {"time": 3693, "pitch": 58, "duration": 10, "velocity": 83}, {"time": 3693, "pitch": 63, "duration": 9, "velocity": 89}, {"time": 3693, "pitch": 39, "duration": 18, "velocity": 92}, {"time": 3700, "pitch": 46, "duration": 10, "velocity": 90}, {"time": 3706, "pitch": 63, "duration": 15, "velocity": 91}, {"time": 3706, "pitch": 58, "duration": 2, "velocity": 86}, {"time": 3706, "pitch": 66, "duration": 15, "velocity": 86}, {"time": 3712, "pitch": 58, "duration": 9, "velocity": 91}, {"time": 3719, "pitch": 44, "duration": 13, "velocity": 92}, {"time": 3724, "pitch": 51, "duration": 8, "velocity": 81}, {"time": 3727, "pitch": 56, "duration": 5, "velocity": 84}, {"time": 3731, "pitch": 63, "duration": 6, "velocity": 87}, {"time": 3737, "pitch": 56, "duration": 23, "velocity": 83}, {"time": 3744, "pitch": 63, "duration": 15, "velocity": 77}, {"time": 3752, "pitch": 75, "duration": 2, "velocity": 80}, {"time": 3753, "pitch": 80, "duration": 2, "velocity": 69}], "annotations": [{"time": 22, "annotation": {"number": 64, "value": 127}, "group": "control_change"}, {"time": 68, "annotation": {"number": 64, "value": 0}, "group": "control_change"}, {"time": 72, "annotation": {"number": 64, "value": 127}, "group": "control_change"}, {"time": 116, "annotation": {"number": 64, "value": 0}, "group": "control_change"}, {"time": 122, "annotation": {"number": 64, "value": 127}, "group": "control_change"}, {"time": 164, "annotation": {"number": 64, "value": 0}, "group": "control_change"}, {"time": 165, "annotation": {"number": 64, "value": 127}, "group": "control_change"}, {"time": 177, "annotation": {"number": 64, "value": 0}, "group": "control_change"}, {"time": 180, "annotation": {"number": 64, "value": 127}, "group": "control_change"}, {"time": 188, "annotation": {"number": 64, "value": 0}, "group": "control_change"}, {"time": 194, "annotation": {"number": 64, "value": 127}, "group": "control_change"}, {"time": 211, "annotation": {"number": 64, "value": 0}, "group": "control_change"}, {"time": 218, "annotation": {"number": 64, "value": 127}, "group": "control_change"}, {"time": 237, "annotation": {"number": 64, "value": 0}, "group": "control_change"}, {"time": 242, "annotation": {"number": 64, "value": 127}, "group": "control_change"}, {"time": 262, "annotation": {"number": 64, "value": 0}, "group": "control_change"}, {"time": 267, "annotation": {"number": 64, "value": 127}, "group": "control_change"}, {"time": 284, "annotation": {"number": 64, "value": 0}, "group": "control_change"}, {"time": 291, "annotation": {"number": 64, "value": 127}, "group": "control_change"}, {"time": 309, "annotation": {"number": 64, "value": 0}, "group": "control_change"}, {"time": 311, "annotation": {"number": 64, "value": 127}, "group": "control_change"}, {"time": 311, "annotation": {"number": 64, "value": 0}, "group": "control_change"}, {"time": 333, "annotation": {"number": 64, "value": 0}, "group": "control_change"}, {"time": 338, "annotation": {"number": 64, "value": 127}, "group": "control_change"}, {"time": 357, "annotation": {"number": 64, "value": 0}, "group": "control_change"}, {"time": 361, "annotation": {"number": 64, "value": 127}, "group": "control_change"}, {"time": 404, "annotation": {"number": 64, "value": 0}, "group": "control_change"}, {"time": 411, "annotation": {"number": 64, "value": 127}, "group": "control_change"}, {"time": 452, "annotation": {"number": 64, "value": 0}, "group": "control_change"}, {"time": 456, "annotation": {"number": 64, "value": 127}, "group": "control_change"}, {"time": 478, "annotation": {"number": 64, "value": 0}, "group": "control_change"}, {"time": 482, "annotation": {"number": 64, "value": 127}, "group": "control_change"}, {"time": 500, "annotation": {"number": 64, "value": 0}, "group": "control_change"}, {"time": 505, "annotation": {"number": 64, "value": 127}, "group": "control_change"}, {"time": 548, "annotation": {"number": 64, "value": 0}, "group": "control_change"}, {"time": 553, "annotation": {"number": 64, "value": 127}, "group": "control_change"}, {"time": 571, "annotation": {"number": 64, "value": 0}, "group": "control_change"}, {"time": 577, "annotation": {"number": 64, "value": 127}, "group": "control_change"}, {"time": 596, "annotation": {"number": 64, "value": 0}, "group": "control_change"}, {"time": 602, "annotation": {"number": 64, "value": 127}, "group": "control_change"}, {"time": 619, "annotation": {"number": 64, "value": 0}, "group": "control_change"}, {"time": 625, "annotation": {"number": 64, "value": 127}, "group": "control_change"}, {"time": 644, "annotation": {"number": 64, "value": 0}, "group": "control_change"}, {"time": 649, "annotation": {"number": 64, "value": 127}, "group": "control_change"}, {"time": 668, "annotation": {"number": 64, "value": 0}, "group": "control_change"}, {"time": 674, "annotation": {"number": 64, "value": 127}, "group": "control_change"}, {"time": 691, "annotation": {"number": 64, "value": 0}, "group": "control_change"}, {"time": 695, "annotation": {"number": 64, "value": 127}, "group": "control_change"}, {"time": 715, "annotation": {"number": 64, "value": 0}, "group": "control_change"}, {"time": 717, "annotation": {"number": 64, "value": 127}, "group": "control_change"}, {"time": 741, "annotation": {"number": 64, "value": 0}, "group": "control_change"}, {"time": 743, "annotation": {"number": 64, "value": 127}, "group": "control_change"}, {"time": 765, "annotation": {"number": 64, "value": 0}, "group": "control_change"}, {"time": 770, "annotation": {"number": 64, "value": 127}, "group": "control_change"}, {"time": 787, "annotation": {"number": 64, "value": 0}, "group": "control_change"}, {"time": 797, "annotation": {"number": 64, "value": 127}, "group": "control_change"}, {"time": 835, "annotation": {"number": 64, "value": 0}, "group": "control_change"}, {"time": 839, "annotation": {"number": 64, "value": 127}, "group": "control_change"}, {"time": 860, "annotation": {"number": 64, "value": 0}, "group": "control_change"}, {"time": 867, "annotation": {"number": 64, "value": 127}, "group": "control_change"}, {"time": 884, "annotation": {"number": 64, "value": 0}, "group": "control_change"}, {"time": 888, "annotation": {"number": 64, "value": 127}, "group": "control_change"}, {"time": 908, "annotation": {"number": 64, "value": 0}, "group": "control_change"}, {"time": 912, "annotation": {"number": 64, "value": 127}, "group": "control_change"}, {"time": 931, "annotation": {"number": 64, "value": 0}, "group": "control_change"}, {"time": 937, "annotation": {"number": 64, "value": 127}, "group": "control_change"}, {"time": 955, "annotation": {"number": 64, "value": 0}, "group": "control_change"}, {"time": 959, "annotation": {"number": 64, "value": 127}, "group": "control_change"}, {"time": 979, "annotation": {"number": 64, "value": 0}, "group": "control_change"}, {"time": 982, "annotation": {"number": 64, "value": 127}, "group": "control_change"}, {"time": 1003, "annotation": {"number": 64, "value": 0}, "group": "control_change"}, {"time": 1006, "annotation": {"number": 64, "value": 127}, "group": "control_change"}, {"time": 1027, "annotation": {"number": 64, "value": 0}, "group": "control_change"}, {"time": 1030, "annotation": {"number": 64, "value": 127}, "group": "control_change"}, {"time": 1051, "annotation": {"number": 64, "value": 0}, "group": "control_change"}, {"time": 1054, "annotation": {"number": 64, "value": 127}, "group": "control_change"}, {"time": 1076, "annotation": {"number": 64, "value": 0}, "group": "control_change"}, {"time": 1078, "annotation": {"number": 64, "value": 127}, "group": "control_change"}, {"time": 1099, "annotation": {"number": 64, "value": 0}, "group": "control_change"}, {"time": 1101, "annotation": {"number": 64, "value": 127}, "group": "control_change"}, {"time": 1123, "annotation": {"number": 64, "value": 0}, "group": "control_change"}, {"time": 1126, "annotation": {"number": 64, "value": 127}, "group": "control_change"}, {"time": 1148, "annotation": {"number": 64, "value": 0}, "group": "control_change"}, {"time": 1150, "annotation": {"number": 64, "value": 127}, "group": "control_change"}, {"time": 1171, "annotation": {"number": 64, "value": 0}, "group": "control_change"}, {"time": 1178, "annotation": {"number": 64, "value": 127}, "group": "control_change"}, {"time": 1198, "annotation": {"number": 64, "value": 0}, "group": "control_change"}, {"time": 1199, "annotation": {"number": 64, "value": 127}, "group": "control_change"}, {"time": 1219, "annotation": {"number": 64, "value": 0}, "group": "control_change"}, {"time": 1221, "annotation": {"number": 64, "value": 127}, "group": "control_change"}, {"time": 1232, "annotation": {"number": 64, "value": 0}, "group": "control_change"}, {"time": 1237, "annotation": {"number": 64, "value": 127}, "group": "control_change"}, {"time": 1243, "annotation": {"number": 64, "value": 0}, "group": "control_change"}, {"time": 1245, "annotation": {"number": 64, "value": 127}, "group": "control_change"}, {"time": 1268, "annotation": {"number": 64, "value": 0}, "group": "control_change"}, {"time": 1271, "annotation": {"number": 64, "value": 127}, "group": "control_change"}, {"time": 1292, "annotation": {"number": 64, "value": 0}, "group": "control_change"}, {"time": 1294, "annotation": {"number": 64, "value": 127}, "group": "control_change"}, {"time": 1316, "annotation": {"number": 64, "value": 0}, "group": "control_change"}, {"time": 1318, "annotation": {"number": 64, "value": 127}, "group": "control_change"}, {"time": 1341, "annotation": {"number": 64, "value": 0}, "group": "control_change"}, {"time": 1348, "annotation": {"number": 64, "value": 127}, "group": "control_change"}, {"time": 1362, "annotation": {"number": 64, "value": 0}, "group": "control_change"}, {"time": 1367, "annotation": {"number": 64, "value": 127}, "group": "control_change"}, {"time": 1387, "annotation": {"number": 64, "value": 0}, "group": "control_change"}, {"time": 1391, "annotation": {"number": 64, "value": 127}, "group": "control_change"}, {"time": 1399, "annotation": {"number": 64, "value": 0}, "group": "control_change"}, {"time": 1401, "annotation": {"number": 64, "value": 127}, "group": "control_change"}, {"time": 1410, "annotation": {"number": 64, "value": 0}, "group": "control_change"}, {"time": 1414, "annotation": {"number": 64, "value": 127}, "group": "control_change"}, {"time": 1436, "annotation": {"number": 64, "value": 0}, "group": "control_change"}, {"time": 1438, "annotation": {"number": 64, "value": 127}, "group": "control_change"}, {"time": 1459, "annotation": {"number": 64, "value": 0}, "group": "control_change"}, {"time": 1463, "annotation": {"number": 64, "value": 127}, "group": "control_change"}, {"time": 1463, "annotation": {"number": 64, "value": 0}, "group": "control_change"}, {"time": 1484, "annotation": {"number": 64, "value": 0}, "group": "control_change"}, {"time": 1487, "annotation": {"number": 64, "value": 127}, "group": "control_change"}, {"time": 1508, "annotation": {"number": 64, "value": 0}, "group": "control_change"}, {"time": 1509, "annotation": {"number": 64, "value": 127}, "group": "control_change"}, {"time": 1519, "annotation": {"number": 64, "value": 0}, "group": "control_change"}, {"time": 1522, "annotation": {"number": 64, "value": 127}, "group": "control_change"}, {"time": 1530, "annotation": {"number": 64, "value": 0}, "group": "control_change"}, {"time": 1537, "annotation": {"number": 64, "value": 127}, "group": "control_change"}, {"time": 1554, "annotation": {"number": 64, "value": 0}, "group": "control_change"}, {"time": 1560, "annotation": {"number": 64, "value": 127}, "group": "control_change"}, {"time": 1604, "annotation": {"number": 64, "value": 0}, "group": "control_change"}, {"time": 1608, "annotation": {"number": 64, "value": 127}, "group": "control_change"}, {"time": 1644, "annotation": {"number": 64, "value": 0}, "group": "control_change"}, {"time": 1646, "annotation": {"number": 64, "value": 127}, "group": "control_change"}, {"time": 1650, "annotation": {"number": 64, "value": 0}, "group": "control_change"}, {"time": 1654, "annotation": {"number": 64, "value": 127}, "group": "control_change"}, {"time": 1678, "annotation": {"number": 64, "value": 0}, "group": "control_change"}, {"time": 1679, "annotation": {"number": 64, "value": 127}, "group": "control_change"}, {"time": 1699, "annotation": {"number": 64, "value": 0}, "group": "control_change"}, {"time": 1703, "annotation": {"number": 64, "value": 127}, "group": "control_change"}, {"time": 1725, "annotation": {"number": 64, "value": 0}, "group": "control_change"}, {"time": 1730, "annotation": {"number": 64, "value": 127}, "group": "control_change"}, {"time": 1748, "annotation": {"number": 64, "value": 0}, "group": "control_change"}, {"time": 1754, "annotation": {"number": 64, "value": 127}, "group": "control_change"}, {"time": 1796, "annotation": {"number": 64, "value": 0}, "group": "control_change"}, {"time": 1798, "annotation": {"number": 64, "value": 127}, "group": "control_change"}, {"time": 1819, "annotation": {"number": 64, "value": 0}, "group": "control_change"}, {"time": 1821, "annotation": {"number": 64, "value": 127}, "group": "control_change"}, {"time": 1844, "annotation": {"number": 64, "value": 0}, "group": "control_change"}, {"time": 1846, "annotation": {"number": 64, "value": 127}, "group": "control_change"}, {"time": 1868, "annotation": {"number": 64, "value": 0}, "group": "control_change"}, {"time": 1870, "annotation": {"number": 64, "value": 127}, "group": "control_change"}, {"time": 1891, "annotation": {"number": 64, "value": 0}, "group": "control_change"}, {"time": 1900, "annotation": {"number": 64, "value": 127}, "group": "control_change"}, {"time": 1916, "annotation": {"number": 64, "value": 0}, "group": "control_change"}, {"time": 1918, "annotation": {"number": 64, "value": 127}, "group": "control_change"}, {"time": 1938, "annotation": {"number": 64, "value": 0}, "group": "control_change"}, {"time": 1947, "annotation": {"number": 64, "value": 127}, "group": "control_change"}, {"time": 1988, "annotation": {"number": 64, "value": 0}, "group": "control_change"}, {"time": 1992, "annotation": {"number": 64, "value": 127}, "group": "control_change"}, {"time": 2014, "annotation": {"number": 64, "value": 0}, "group": "control_change"}, {"time": 2018, "annotation": {"number": 64, "value": 127}, "group": "control_change"}, {"time": 2036, "annotation": {"number": 64, "value": 0}, "group": "control_change"}, {"time": 2041, "annotation": {"number": 64, "value": 127}, "group": "control_change"}, {"time": 2084, "annotation": {"number": 64, "value": 0}, "group": "control_change"}, {"time": 2089, "annotation": {"number": 64, "value": 127}, "group": "control_change"}, {"time": 2107, "annotation": {"number": 64, "value": 0}, "group": "control_change"}, {"time": 2113, "annotation": {"number": 64, "value": 127}, "group": "control_change"}, {"time": 2132, "annotation": {"number": 64, "value": 0}, "group": "control_change"}, {"time": 2138, "annotation": {"number": 64, "value": 127}, "group": "control_change"}, {"time": 2155, "annotation": {"number": 64, "value": 0}, "group": "control_change"}, {"time": 2161, "annotation": {"number": 64, "value": 127}, "group": "control_change"}, {"time": 2180, "annotation": {"number": 64, "value": 0}, "group": "control_change"}, {"time": 2185, "annotation": {"number": 64, "value": 127}, "group": "control_change"}, {"time": 2204, "annotation": {"number": 64, "value": 0}, "group": "control_change"}, {"time": 2210, "annotation": {"number": 64, "value": 127}, "group": "control_change"}, {"time": 2227, "annotation": {"number": 64, "value": 0}, "group": "control_change"}, {"time": 2231, "annotation": {"number": 64, "value": 127}, "group": "control_change"}, {"time": 2251, "annotation": {"number": 64, "value": 0}, "group": "control_change"}, {"time": 2253, "annotation": {"number": 64, "value": 127}, "group": "control_change"}, {"time": 2277, "annotation": {"number": 64, "value": 0}, "group": "control_change"}, {"time": 2279, "annotation": {"number": 64, "value": 127}, "group": "control_change"}, {"time": 2301, "annotation": {"number": 64, "value": 0}, "group": "control_change"}, {"time": 2306, "annotation": {"number": 64, "value": 127}, "group": "control_change"}, {"time": 2323, "annotation": {"number": 64, "value": 0}, "group": "control_change"}, {"time": 2333, "annotation": {"number": 64, "value": 127}, "group": "control_change"}, {"time": 2371, "annotation": {"number": 64, "value": 0}, "group": "control_change"}, {"time": 2375, "annotation": {"number": 64, "value": 127}, "group": "control_change"}, {"time": 2396, "annotation": {"number": 64, "value": 0}, "group": "control_change"}, {"time": 2403, "annotation": {"number": 64, "value": 127}, "group": "control_change"}, {"time": 2420, "annotation": {"number": 64, "value": 0}, "group": "control_change"}, {"time": 2424, "annotation": {"number": 64, "value": 127}, "group": "control_change"}, {"time": 2444, "annotation": {"number": 64, "value": 0}, "group": "control_change"}, {"time": 2448, "annotation": {"number": 64, "value": 127}, "group": "control_change"}, {"time": 2467, "annotation": {"number": 64, "value": 0}, "group": "control_change"}, {"time": 2473, "annotation": {"number": 64, "value": 127}, "group": "control_change"}, {"time": 2491, "annotation": {"number": 64, "value": 0}, "group": "control_change"}, {"time": 2495, "annotation": {"number": 64, "value": 127}, "group": "control_change"}, {"time": 2515, "annotation": {"number": 64, "value": 0}, "group": "control_change"}, {"time": 2518, "annotation": {"number": 64, "value": 127}, "group": "control_change"}, {"time": 2539, "annotation": {"number": 64, "value": 0}, "group": "control_change"}, {"time": 2542, "annotation": {"number": 64, "value": 127}, "group": "control_change"}, {"time": 2563, "annotation": {"number": 64, "value": 0}, "group": "control_change"}, {"time": 2566, "annotation": {"number": 64, "value": 127}, "group": "control_change"}, {"time": 2587, "annotation": {"number": 64, "value": 0}, "group": "control_change"}, {"time": 2590, "annotation": {"number": 64, "value": 127}, "group": "control_change"}, {"time": 2612, "annotation": {"number": 64, "value": 0}, "group": "control_change"}, {"time": 2614, "annotation": {"number": 64, "value": 127}, "group": "control_change"}, {"time": 2635, "annotation": {"number": 64, "value": 0}, "group": "control_change"}, {"time": 2637, "annotation": {"number": 64, "value": 127}, "group": "control_change"}, {"time": 2659, "annotation": {"number": 64, "value": 0}, "group": "control_change"}, {"time": 2662, "annotation": {"number": 64, "value": 127}, "group": "control_change"}, {"time": 2684, "annotation": {"number": 64, "value": 0}, "group": "control_change"}, {"time": 2686, "annotation": {"number": 64, "value": 127}, "group": "control_change"}, {"time": 2707, "annotation": {"number": 64, "value": 0}, "group": "control_change"}, {"time": 2714, "annotation": {"number": 64, "value": 127}, "group": "control_change"}, {"time": 2734, "annotation": {"number": 64, "value": 0}, "group": "control_change"}, {"time": 2735, "annotation": {"number": 64, "value": 127}, "group": "control_change"}, {"time": 2755, "annotation": {"number": 64, "value": 0}, "group": "control_change"}, {"time": 2757, "annotation": {"number": 64, "value": 127}, "group": "control_change"}, {"time": 2768, "annotation": {"number": 64, "value": 0}, "group": "control_change"}, {"time": 2773, "annotation": {"number": 64, "value": 127}, "group": "control_change"}, {"time": 2779, "annotation": {"number": 64, "value": 0}, "group": "control_change"}, {"time": 2781, "annotation": {"number": 64, "value": 127}, "group": "control_change"}, {"time": 2804, "annotation": {"number": 64, "value": 0}, "group": "control_change"}, {"time": 2807, "annotation": {"number": 64, "value": 127}, "group": "control_change"}, {"time": 2828, "annotation": {"number": 64, "value": 0}, "group": "control_change"}, {"time": 2830, "annotation": {"number": 64, "value": 127}, "group": "control_change"}, {"time": 2852, "annotation": {"number": 64, "value": 0}, "group": "control_change"}, {"time": 2854, "annotation": {"number": 64, "value": 127}, "group": "control_change"}, {"time": 2877, "annotation": {"number": 64, "value": 0}, "group": "control_change"}, {"time": 2884, "annotation": {"number": 64, "value": 127}, "group": "control_change"}, {"time": 2898, "annotation": {"number": 64, "value": 0}, "group": "control_change"}, {"time": 2903, "annotation": {"number": 64, "value": 127}, "group": "control_change"}, {"time": 2923, "annotation": {"number": 64, "value": 0}, "group": "control_change"}, {"time": 2927, "annotation": {"number": 64, "value": 127}, "group": "control_change"}, {"time": 2935, "annotation": {"number": 64, "value": 0}, "group": "control_change"}, {"time": 2937, "annotation": {"number": 64, "value": 127}, "group": "control_change"}, {"time": 2946, "annotation": {"number": 64, "value": 0}, "group": "control_change"}, {"time": 2950, "annotation": {"number": 64, "value": 127}, "group": "control_change"}, {"time": 2972, "annotation": {"number": 64, "value": 0}, "group": "control_change"}, {"time": 2974, "annotation": {"number": 64, "value": 127}, "group": "control_change"}, {"time": 2995, "annotation": {"number": 64, "value": 0}, "group": "control_change"}, {"time": 2999, "annotation": {"number": 64, "value": 127}, "group": "control_change"}, {"time": 2999, "annotation": {"number": 64, "value": 0}, "group": "control_change"}, {"time": 3020, "annotation": {"number": 64, "value": 0}, "group": "control_change"}, {"time": 3023, "annotation": {"number": 64, "value": 127}, "group": "control_change"}, {"time": 3044, "annotation": {"number": 64, "value": 0}, "group": "control_change"}, {"time": 3045, "annotation": {"number": 64, "value": 127}, "group": "control_change"}, {"time": 3055, "annotation": {"number": 64, "value": 0}, "group": "control_change"}, {"time": 3058, "annotation": {"number": 64, "value": 127}, "group": "control_change"}, {"time": 3066, "annotation": {"number": 64, "value": 0}, "group": "control_change"}, {"time": 3073, "annotation": {"number": 64, "value": 127}, "group": "control_change"}, {"time": 3090, "annotation": {"number": 64, "value": 0}, "group": "control_change"}, {"time": 3098, "annotation": {"number": 64, "value": 127}, "group": "control_change"}, {"time": 3118, "annotation": {"number": 64, "value": 0}, "group": "control_change"}, {"time": 3119, "annotation": {"number": 64, "value": 127}, "group": "control_change"}, {"time": 3139, "annotation": {"number": 64, "value": 0}, "group": "control_change"}, {"time": 3141, "annotation": {"number": 64, "value": 127}, "group": "control_change"}, {"time": 3152, "annotation": {"number": 64, "value": 0}, "group": "control_change"}, {"time": 3157, "annotation": {"number": 64, "value": 127}, "group": "control_change"}, {"time": 3163, "annotation": {"number": 64, "value": 0}, "group": "control_change"}, {"time": 3165, "annotation": {"number": 64, "value": 127}, "group": "control_change"}, {"time": 3188, "annotation": {"number": 64, "value": 0}, "group": "control_change"}, {"time": 3191, "annotation": {"number": 64, "value": 127}, "group": "control_change"}, {"time": 3212, "annotation": {"number": 64, "value": 0}, "group": "control_change"}, {"time": 3214, "annotation": {"number": 64, "value": 127}, "group": "control_change"}, {"time": 3236, "annotation": {"number": 64, "value": 0}, "group": "control_change"}, {"time": 3238, "annotation": {"number": 64, "value": 127}, "group": "control_change"}, {"time": 3261, "annotation": {"number": 64, "value": 0}, "group": "control_change"}, {"time": 3268, "annotation": {"number": 64, "value": 127}, "group": "control_change"}, {"time": 3282, "annotation": {"number": 64, "value": 0}, "group": "control_change"}, {"time": 3287, "annotation": {"number": 64, "value": 127}, "group": "control_change"}, {"time": 3307, "annotation": {"number": 64, "value": 0}, "group": "control_change"}, {"time": 3311, "annotation": {"number": 64, "value": 127}, "group": "control_change"}, {"time": 3319, "annotation": {"number": 64, "value": 0}, "group": "control_change"}, {"time": 3321, "annotation": {"number": 64, "value": 127}, "group": "control_change"}, {"time": 3330, "annotation": {"number": 64, "value": 0}, "group": "control_change"}, {"time": 3334, "annotation": {"number": 64, "value": 127}, "group": "control_change"}, {"time": 3356, "annotation": {"number": 64, "value": 0}, "group": "control_change"}, {"time": 3358, "annotation": {"number": 64, "value": 127}, "group": "control_change"}, {"time": 3379, "annotation": {"number": 64, "value": 0}, "group": "control_change"}, {"time": 3383, "annotation": {"number": 64, "value": 127}, "group": "control_change"}, {"time": 3383, "annotation": {"number": 64, "value": 0}, "group": "control_change"}, {"time": 3404, "annotation": {"number": 64, "value": 0}, "group": "control_change"}, {"time": 3407, "annotation": {"number": 64, "value": 127}, "group": "control_change"}, {"time": 3428, "annotation": {"number": 64, "value": 0}, "group": "control_change"}, {"time": 3429, "annotation": {"number": 64, "value": 127}, "group": "control_change"}, {"time": 3439, "annotation": {"number": 64, "value": 0}, "group": "control_change"}, {"time": 3442, "annotation": {"number": 64, "value": 127}, "group": "control_change"}, {"time": 3450, "annotation": {"number": 64, "value": 0}, "group": "control_change"}, {"time": 3457, "annotation": {"number": 64, "value": 127}, "group": "control_change"}, {"time": 3474, "annotation": {"number": 64, "value": 0}, "group": "control_change"}, {"time": 3479, "annotation": {"number": 64, "value": 127}, "group": "control_change"}, {"time": 3479, "annotation": {"number": 64, "value": 0}, "group": "control_change"}, {"time": 3500, "annotation": {"number": 64, "value": 0}, "group": "control_change"}, {"time": 3503, "annotation": {"number": 64, "value": 127}, "group": "control_change"}, {"time": 3524, "annotation": {"number": 64, "value": 0}, "group": "control_change"}, {"time": 3525, "annotation": {"number": 64, "value": 127}, "group": "control_change"}, {"time": 3535, "annotation": {"number": 64, "value": 0}, "group": "control_change"}, {"time": 3537, "annotation": {"number": 64, "value": 127}, "group": "control_change"}, {"time": 3538, "annotation": {"number": 64, "value": 127}, "group": "control_change"}, {"time": 3546, "annotation": {"number": 64, "value": 0}, "group": "control_change"}, {"time": 3553, "annotation": {"number": 64, "value": 127}, "group": "control_change"}, {"time": 3568, "annotation": {"number": 64, "value": 0}, "group": "control_change"}, {"time": 3570, "annotation": {"number": 64, "value": 0}, "group": "control_change"}, {"time": 3577, "annotation": {"number": 64, "value": 127}, "group": "control_change"}, {"time": 3619, "annotation": {"number": 64, "value": 0}, "group": "control_change"}, {"time": 3621, "annotation": {"number": 64, "value": 127}, "group": "control_change"}, {"time": 3668, "annotation": {"number": 64, "value": 0}, "group": "control_change"}, {"time": 3673, "annotation": {"number": 64, "value": 127}, "group": "control_change"}, {"time": 3692, "annotation": {"number": 64, "value": 0}, "group": "control_change"}, {"time": 3694, "annotation": {"number": 64, "value": 127}, "group": "control_change"}, {"time": 3718, "annotation": {"number": 64, "value": 0}, "group": "control_change"}, {"time": 3722, "annotation": {"number": 64, "value": 127}, "group": "control_change"}, {"time": 3779, "annotation": {"number": 64, "value": 0}, "group": "control_change"}]}]}