{"metadata": {"schema_version": "0.2", "title": "None", "source_filename": "518.mid", "source_format": "midi"}, "resolution": 12, "tempos": [{"time": 0, "qpm": 104.00001386666851}], "time_signatures": [{"time": 0, "numerator": 1, "denominator": 4}], "tracks": [{"program": 0, "is_drum": false, "name": "MELODY", "notes": [{"time": 681, "pitch": 66, "duration": 4, "velocity": 94}, {"time": 687, "pitch": 71, "duration": 4, "velocity": 96}, {"time": 693, "pitch": 73, "duration": 3, "velocity": 94}, {"time": 699, "pitch": 73, "duration": 4, "velocity": 97}, {"time": 705, "pitch": 75, "duration": 4, "velocity": 92}, {"time": 711, "pitch": 75, "duration": 10, "velocity": 91}, {"time": 723, "pitch": 73, "duration": 4, "velocity": 95}, {"time": 729, "pitch": 75, "duration": 3, "velocity": 91}, {"time": 735, "pitch": 75, "duration": 9, "velocity": 97}, {"time": 747, "pitch": 73, "duration": 4, "velocity": 96}, {"time": 753, "pitch": 75, "duration": 4, "velocity": 97}, {"time": 759, "pitch": 78, "duration": 4, "velocity": 94}, {"time": 765, "pitch": 75, "duration": 4, "velocity": 96}, {"time": 771, "pitch": 71, "duration": 9, "velocity": 94}, {"time": 783, "pitch": 71, "duration": 5, "velocity": 94}, {"time": 789, "pitch": 66, "duration": 4, "velocity": 90}, {"time": 795, "pitch": 68, "duration": 14, "velocity": 93}, {"time": 813, "pitch": 75, "duration": 5, "velocity": 92}, {"time": 819, "pitch": 73, "duration": 11, "velocity": 97}, {"time": 831, "pitch": 71, "duration": 5, "velocity": 92}, {"time": 837, "pitch": 73, "duration": 4, "velocity": 92}, {"time": 843, "pitch": 75, "duration": 27, "velocity": 94}, {"time": 873, "pitch": 66, "duration": 4, "velocity": 90}, {"time": 879, "pitch": 71, "duration": 4, "velocity": 94}, {"time": 885, "pitch": 73, "duration": 3, "velocity": 92}, {"time": 891, "pitch": 73, "duration": 4, "velocity": 95}, {"time": 897, "pitch": 75, "duration": 3, "velocity": 91}, {"time": 903, "pitch": 75, "duration": 10, "velocity": 93}, {"time": 915, "pitch": 73, "duration": 4, "velocity": 94}, {"time": 921, "pitch": 75, "duration": 3, "velocity": 94}, {"time": 927, "pitch": 75, "duration": 8, "velocity": 101}, {"time": 939, "pitch": 73, "duration": 3, "velocity": 96}, {"time": 945, "pitch": 75, "duration": 4, "velocity": 96}, {"time": 951, "pitch": 78, "duration": 3, "velocity": 94}, {"time": 957, "pitch": 75, "duration": 3, "velocity": 97}, {"time": 963, "pitch": 71, "duration": 9, "velocity": 94}, {"time": 975, "pitch": 71, "duration": 4, "velocity": 91}, {"time": 981, "pitch": 70, "duration": 4, "velocity": 89}, {"time": 987, "pitch": 68, "duration": 9, "velocity": 94}, {"time": 1005, "pitch": 75, "duration": 5, "velocity": 92}, {"time": 1011, "pitch": 73, "duration": 10, "velocity": 94}, {"time": 1023, "pitch": 71, "duration": 4, "velocity": 90}, {"time": 1029, "pitch": 73, "duration": 4, "velocity": 93}, {"time": 1035, "pitch": 71, "duration": 31, "velocity": 92}, {"time": 1071, "pitch": 71, "duration": 4, "velocity": 91}, {"time": 1077, "pitch": 70, "duration": 5, "velocity": 92}, {"time": 1083, "pitch": 68, "duration": 10, "velocity": 91}, {"time": 1095, "pitch": 71, "duration": 10, "velocity": 95}, {"time": 1107, "pitch": 73, "duration": 9, "velocity": 97}, {"time": 1119, "pitch": 71, "duration": 4, "velocity": 94}, {"time": 1125, "pitch": 73, "duration": 4, "velocity": 97}, {"time": 1131, "pitch": 75, "duration": 5, "velocity": 92}, {"time": 1137, "pitch": 78, "duration": 4, "velocity": 90}, {"time": 1143, "pitch": 73, "duration": 4, "velocity": 96}, {"time": 1149, "pitch": 75, "duration": 4, "velocity": 91}, {"time": 1155, "pitch": 71, "duration": 7, "velocity": 91}, {"time": 1167, "pitch": 71, "duration": 5, "velocity": 69}, {"time": 1173, "pitch": 70, "duration": 5, "velocity": 91}, {"time": 1179, "pitch": 68, "duration": 10, "velocity": 90}, {"time": 1191, "pitch": 71, "duration": 10, "velocity": 91}, {"time": 1203, "pitch": 73, "duration": 4, "velocity": 94}, {"time": 1209, "pitch": 75, "duration": 2, "velocity": 92}, {"time": 1212, "pitch": 73, "duration": 2, "velocity": 92}, {"time": 1215, "pitch": 71, "duration": 4, "velocity": 92}, {"time": 1221, "pitch": 73, "duration": 3, "velocity": 94}, {"time": 1227, "pitch": 75, "duration": 28, "velocity": 92}, {"time": 1263, "pitch": 71, "duration": 4, "velocity": 72}, {"time": 1269, "pitch": 70, "duration": 4, "velocity": 94}, {"time": 1275, "pitch": 68, "duration": 10, "velocity": 91}, {"time": 1287, "pitch": 71, "duration": 10, "velocity": 91}, {"time": 1299, "pitch": 73, "duration": 4, "velocity": 96}, {"time": 1305, "pitch": 75, "duration": 2, "velocity": 92}, {"time": 1308, "pitch": 73, "duration": 2, "velocity": 94}, {"time": 1311, "pitch": 71, "duration": 3, "velocity": 91}, {"time": 1317, "pitch": 73, "duration": 3, "velocity": 96}, {"time": 1323, "pitch": 75, "duration": 6, "velocity": 94}, {"time": 1329, "pitch": 78, "duration": 4, "velocity": 91}, {"time": 1335, "pitch": 78, "duration": 4, "velocity": 90}, {"time": 1341, "pitch": 75, "duration": 5, "velocity": 92}, {"time": 1347, "pitch": 80, "duration": 7, "velocity": 92}, {"time": 1359, "pitch": 75, "duration": 4, "velocity": 92}, {"time": 1365, "pitch": 73, "duration": 5, "velocity": 99}, {"time": 1371, "pitch": 71, "duration": 15, "velocity": 87}, {"time": 1389, "pitch": 75, "duration": 4, "velocity": 94}, {"time": 1395, "pitch": 73, "duration": 4, "velocity": 97}, {"time": 1401, "pitch": 75, "duration": 2, "velocity": 91}, {"time": 1404, "pitch": 73, "duration": 3, "velocity": 85}, {"time": 1407, "pitch": 71, "duration": 5, "velocity": 93}, {"time": 1413, "pitch": 73, "duration": 4, "velocity": 90}, {"time": 1419, "pitch": 71, "duration": 27, "velocity": 92}, {"time": 1449, "pitch": 71, "duration": 4, "velocity": 91}, {"time": 1455, "pitch": 75, "duration": 4, "velocity": 92}, {"time": 1461, "pitch": 76, "duration": 4, "velocity": 91}, {"time": 1467, "pitch": 78, "duration": 3, "velocity": 92}, {"time": 1473, "pitch": 71, "duration": 3, "velocity": 94}, {"time": 1479, "pitch": 75, "duration": 3, "velocity": 97}, {"time": 1485, "pitch": 76, "duration": 4, "velocity": 91}, {"time": 1491, "pitch": 78, "duration": 9, "velocity": 92}, {"time": 1503, "pitch": 80, "duration": 3, "velocity": 94}, {"time": 1509, "pitch": 82, "duration": 3, "velocity": 92}, {"time": 1515, "pitch": 83, "duration": 4, "velocity": 94}, {"time": 1521, "pitch": 75, "duration": 4, "velocity": 94}, {"time": 1527, "pitch": 75, "duration": 4, "velocity": 96}, {"time": 1533, "pitch": 76, "duration": 4, "velocity": 91}, {"time": 1539, "pitch": 78, "duration": 8, "velocity": 91}, {"time": 1563, "pitch": 80, "duration": 9, "velocity": 91}, {"time": 1575, "pitch": 78, "duration": 4, "velocity": 90}, {"time": 1581, "pitch": 76, "duration": 3, "velocity": 90}, {"time": 1587, "pitch": 78, "duration": 3, "velocity": 91}, {"time": 1593, "pitch": 83, "duration": 4, "velocity": 87}, {"time": 1599, "pitch": 83, "duration": 6, "velocity": 97}, {"time": 1611, "pitch": 80, "duration": 10, "velocity": 92}, {"time": 1623, "pitch": 80, "duration": 3, "velocity": 94}, {"time": 1629, "pitch": 82, "duration": 3, "velocity": 92}, {"time": 1635, "pitch": 83, "duration": 10, "velocity": 92}, {"time": 1647, "pitch": 82, "duration": 8, "velocity": 96}, {"time": 1659, "pitch": 78, "duration": 10, "velocity": 90}, {"time": 1671, "pitch": 75, "duration": 4, "velocity": 94}, {"time": 1677, "pitch": 76, "duration": 5, "velocity": 93}, {"time": 1683, "pitch": 78, "duration": 10, "velocity": 91}, {"time": 1695, "pitch": 80, "duration": 4, "velocity": 90}, {"time": 1701, "pitch": 82, "duration": 4, "velocity": 91}, {"time": 1707, "pitch": 83, "duration": 8, "velocity": 94}, {"time": 1719, "pitch": 82, "duration": 4, "velocity": 91}, {"time": 1725, "pitch": 80, "duration": 3, "velocity": 90}, {"time": 1731, "pitch": 78, "duration": 19, "velocity": 94}, {"time": 1755, "pitch": 76, "duration": 4, "velocity": 91}, {"time": 1761, "pitch": 78, "duration": 4, "velocity": 87}, {"time": 1767, "pitch": 80, "duration": 4, "velocity": 91}, {"time": 1773, "pitch": 76, "duration": 4, "velocity": 91}, {"time": 1779, "pitch": 78, "duration": 6, "velocity": 91}, {"time": 1785, "pitch": 83, "duration": 4, "velocity": 95}, {"time": 1791, "pitch": 83, "duration": 7, "velocity": 94}, {"time": 1803, "pitch": 83, "duration": 4, "velocity": 95}, {"time": 1809, "pitch": 82, "duration": 3, "velocity": 96}, {"time": 1815, "pitch": 78, "duration": 3, "velocity": 93}, {"time": 1821, "pitch": 71, "duration": 4, "velocity": 94}, {"time": 1827, "pitch": 75, "duration": 11, "velocity": 92}, {"time": 1839, "pitch": 73, "duration": 5, "velocity": 96}, {"time": 1851, "pitch": 71, "duration": 36, "velocity": 92}, {"time": 2217, "pitch": 66, "duration": 4, "velocity": 94}, {"time": 2223, "pitch": 71, "duration": 4, "velocity": 96}, {"time": 2229, "pitch": 73, "duration": 3, "velocity": 94}, {"time": 2235, "pitch": 73, "duration": 4, "velocity": 97}, {"time": 2241, "pitch": 75, "duration": 4, "velocity": 92}, {"time": 2247, "pitch": 75, "duration": 10, "velocity": 91}, {"time": 2259, "pitch": 73, "duration": 4, "velocity": 95}, {"time": 2265, "pitch": 75, "duration": 3, "velocity": 91}, {"time": 2271, "pitch": 75, "duration": 9, "velocity": 97}, {"time": 2283, "pitch": 73, "duration": 4, "velocity": 96}, {"time": 2289, "pitch": 75, "duration": 4, "velocity": 97}, {"time": 2295, "pitch": 78, "duration": 4, "velocity": 94}, {"time": 2301, "pitch": 75, "duration": 4, "velocity": 96}, {"time": 2307, "pitch": 71, "duration": 9, "velocity": 94}, {"time": 2319, "pitch": 71, "duration": 5, "velocity": 94}, {"time": 2325, "pitch": 66, "duration": 4, "velocity": 90}, {"time": 2331, "pitch": 68, "duration": 14, "velocity": 93}, {"time": 2349, "pitch": 75, "duration": 5, "velocity": 92}, {"time": 2355, "pitch": 73, "duration": 11, "velocity": 97}, {"time": 2367, "pitch": 71, "duration": 5, "velocity": 92}, {"time": 2373, "pitch": 73, "duration": 4, "velocity": 92}, {"time": 2379, "pitch": 75, "duration": 27, "velocity": 94}, {"time": 2409, "pitch": 66, "duration": 4, "velocity": 90}, {"time": 2415, "pitch": 71, "duration": 4, "velocity": 94}, {"time": 2421, "pitch": 73, "duration": 3, "velocity": 92}, {"time": 2427, "pitch": 73, "duration": 4, "velocity": 95}, {"time": 2433, "pitch": 75, "duration": 3, "velocity": 91}, {"time": 2439, "pitch": 75, "duration": 10, "velocity": 93}, {"time": 2451, "pitch": 73, "duration": 4, "velocity": 94}, {"time": 2457, "pitch": 75, "duration": 3, "velocity": 94}, {"time": 2463, "pitch": 75, "duration": 8, "velocity": 101}, {"time": 2475, "pitch": 73, "duration": 3, "velocity": 96}, {"time": 2481, "pitch": 75, "duration": 4, "velocity": 96}, {"time": 2487, "pitch": 78, "duration": 3, "velocity": 94}, {"time": 2493, "pitch": 75, "duration": 3, "velocity": 97}, {"time": 2499, "pitch": 71, "duration": 9, "velocity": 94}, {"time": 2511, "pitch": 71, "duration": 4, "velocity": 91}, {"time": 2517, "pitch": 70, "duration": 4, "velocity": 89}, {"time": 2523, "pitch": 68, "duration": 9, "velocity": 94}, {"time": 2541, "pitch": 75, "duration": 5, "velocity": 92}, {"time": 2547, "pitch": 73, "duration": 10, "velocity": 94}, {"time": 2559, "pitch": 71, "duration": 4, "velocity": 90}, {"time": 2565, "pitch": 73, "duration": 4, "velocity": 93}, {"time": 2571, "pitch": 71, "duration": 31, "velocity": 92}, {"time": 2607, "pitch": 71, "duration": 4, "velocity": 91}, {"time": 2613, "pitch": 70, "duration": 5, "velocity": 92}, {"time": 2619, "pitch": 68, "duration": 10, "velocity": 91}, {"time": 2631, "pitch": 71, "duration": 10, "velocity": 95}, {"time": 2643, "pitch": 73, "duration": 9, "velocity": 97}, {"time": 2655, "pitch": 71, "duration": 4, "velocity": 94}, {"time": 2661, "pitch": 73, "duration": 4, "velocity": 97}, {"time": 2667, "pitch": 75, "duration": 5, "velocity": 92}, {"time": 2673, "pitch": 78, "duration": 4, "velocity": 90}, {"time": 2679, "pitch": 73, "duration": 4, "velocity": 96}, {"time": 2685, "pitch": 75, "duration": 4, "velocity": 91}, {"time": 2691, "pitch": 71, "duration": 7, "velocity": 91}, {"time": 2703, "pitch": 71, "duration": 5, "velocity": 69}, {"time": 2709, "pitch": 70, "duration": 5, "velocity": 91}, {"time": 2715, "pitch": 68, "duration": 10, "velocity": 90}, {"time": 2727, "pitch": 71, "duration": 10, "velocity": 91}, {"time": 2739, "pitch": 73, "duration": 4, "velocity": 94}, {"time": 2745, "pitch": 75, "duration": 2, "velocity": 92}, {"time": 2748, "pitch": 73, "duration": 2, "velocity": 92}, {"time": 2751, "pitch": 71, "duration": 4, "velocity": 92}, {"time": 2757, "pitch": 73, "duration": 3, "velocity": 94}, {"time": 2763, "pitch": 75, "duration": 28, "velocity": 92}, {"time": 2799, "pitch": 71, "duration": 4, "velocity": 72}, {"time": 2805, "pitch": 70, "duration": 4, "velocity": 94}, {"time": 2811, "pitch": 68, "duration": 10, "velocity": 91}, {"time": 2823, "pitch": 71, "duration": 10, "velocity": 91}, {"time": 2835, "pitch": 73, "duration": 4, "velocity": 96}, {"time": 2841, "pitch": 75, "duration": 2, "velocity": 92}, {"time": 2844, "pitch": 73, "duration": 2, "velocity": 94}, {"time": 2847, "pitch": 71, "duration": 3, "velocity": 91}, {"time": 2853, "pitch": 73, "duration": 3, "velocity": 96}, {"time": 2859, "pitch": 75, "duration": 6, "velocity": 94}, {"time": 2865, "pitch": 78, "duration": 4, "velocity": 91}, {"time": 2871, "pitch": 78, "duration": 4, "velocity": 90}, {"time": 2877, "pitch": 75, "duration": 5, "velocity": 92}, {"time": 2883, "pitch": 80, "duration": 7, "velocity": 92}, {"time": 2895, "pitch": 75, "duration": 4, "velocity": 92}, {"time": 2901, "pitch": 73, "duration": 5, "velocity": 99}, {"time": 2907, "pitch": 71, "duration": 15, "velocity": 87}, {"time": 2925, "pitch": 75, "duration": 4, "velocity": 94}, {"time": 2931, "pitch": 73, "duration": 4, "velocity": 97}, {"time": 2937, "pitch": 75, "duration": 2, "velocity": 91}, {"time": 2940, "pitch": 73, "duration": 3, "velocity": 85}, {"time": 2943, "pitch": 71, "duration": 5, "velocity": 93}, {"time": 2949, "pitch": 73, "duration": 4, "velocity": 90}, {"time": 2955, "pitch": 71, "duration": 27, "velocity": 92}, {"time": 2985, "pitch": 71, "duration": 4, "velocity": 91}, {"time": 2991, "pitch": 75, "duration": 4, "velocity": 92}, {"time": 2997, "pitch": 76, "duration": 4, "velocity": 91}, {"time": 3003, "pitch": 78, "duration": 3, "velocity": 92}, {"time": 3009, "pitch": 71, "duration": 3, "velocity": 94}, {"time": 3015, "pitch": 75, "duration": 3, "velocity": 97}, {"time": 3021, "pitch": 76, "duration": 4, "velocity": 91}, {"time": 3027, "pitch": 78, "duration": 9, "velocity": 92}, {"time": 3039, "pitch": 80, "duration": 3, "velocity": 94}, {"time": 3045, "pitch": 82, "duration": 3, "velocity": 92}, {"time": 3051, "pitch": 83, "duration": 4, "velocity": 94}, {"time": 3057, "pitch": 75, "duration": 4, "velocity": 94}, {"time": 3063, "pitch": 75, "duration": 4, "velocity": 96}, {"time": 3069, "pitch": 76, "duration": 4, "velocity": 91}, {"time": 3075, "pitch": 78, "duration": 8, "velocity": 91}, {"time": 3099, "pitch": 80, "duration": 9, "velocity": 91}, {"time": 3111, "pitch": 78, "duration": 4, "velocity": 90}, {"time": 3117, "pitch": 76, "duration": 3, "velocity": 90}, {"time": 3123, "pitch": 78, "duration": 3, "velocity": 91}, {"time": 3129, "pitch": 83, "duration": 4, "velocity": 87}, {"time": 3135, "pitch": 83, "duration": 6, "velocity": 97}, {"time": 3147, "pitch": 80, "duration": 10, "velocity": 92}, {"time": 3159, "pitch": 80, "duration": 3, "velocity": 94}, {"time": 3165, "pitch": 82, "duration": 3, "velocity": 92}, {"time": 3171, "pitch": 83, "duration": 10, "velocity": 92}, {"time": 3183, "pitch": 82, "duration": 8, "velocity": 96}, {"time": 3195, "pitch": 78, "duration": 10, "velocity": 90}, {"time": 3207, "pitch": 75, "duration": 4, "velocity": 94}, {"time": 3213, "pitch": 76, "duration": 5, "velocity": 93}, {"time": 3219, "pitch": 78, "duration": 10, "velocity": 91}, {"time": 3231, "pitch": 80, "duration": 4, "velocity": 90}, {"time": 3237, "pitch": 82, "duration": 4, "velocity": 91}, {"time": 3243, "pitch": 83, "duration": 8, "velocity": 94}, {"time": 3255, "pitch": 82, "duration": 4, "velocity": 91}, {"time": 3261, "pitch": 80, "duration": 3, "velocity": 90}, {"time": 3267, "pitch": 78, "duration": 19, "velocity": 94}, {"time": 3291, "pitch": 76, "duration": 4, "velocity": 91}, {"time": 3297, "pitch": 78, "duration": 4, "velocity": 87}, {"time": 3303, "pitch": 80, "duration": 4, "velocity": 91}, {"time": 3309, "pitch": 76, "duration": 4, "velocity": 91}, {"time": 3315, "pitch": 78, "duration": 6, "velocity": 91}, {"time": 3321, "pitch": 83, "duration": 4, "velocity": 95}, {"time": 3327, "pitch": 83, "duration": 7, "velocity": 94}, {"time": 3339, "pitch": 83, "duration": 4, "velocity": 95}, {"time": 3345, "pitch": 82, "duration": 3, "velocity": 96}, {"time": 3351, "pitch": 78, "duration": 3, "velocity": 93}, {"time": 3357, "pitch": 71, "duration": 4, "velocity": 94}, {"time": 3363, "pitch": 75, "duration": 11, "velocity": 92}, {"time": 3375, "pitch": 73, "duration": 5, "velocity": 96}, {"time": 3387, "pitch": 71, "duration": 36, "velocity": 92}, {"time": 3465, "pitch": 72, "duration": 4, "velocity": 91}, {"time": 3471, "pitch": 76, "duration": 4, "velocity": 92}, {"time": 3477, "pitch": 77, "duration": 4, "velocity": 91}, {"time": 3483, "pitch": 79, "duration": 3, "velocity": 92}, {"time": 3489, "pitch": 72, "duration": 3, "velocity": 94}, {"time": 3495, "pitch": 76, "duration": 3, "velocity": 97}, {"time": 3501, "pitch": 77, "duration": 4, "velocity": 91}, {"time": 3507, "pitch": 79, "duration": 9, "velocity": 92}, {"time": 3519, "pitch": 81, "duration": 3, "velocity": 94}, {"time": 3525, "pitch": 83, "duration": 3, "velocity": 92}, {"time": 3531, "pitch": 84, "duration": 4, "velocity": 94}, {"time": 3537, "pitch": 76, "duration": 4, "velocity": 94}, {"time": 3543, "pitch": 76, "duration": 4, "velocity": 96}, {"time": 3549, "pitch": 77, "duration": 4, "velocity": 91}, {"time": 3555, "pitch": 79, "duration": 8, "velocity": 91}, {"time": 3579, "pitch": 81, "duration": 9, "velocity": 91}, {"time": 3591, "pitch": 79, "duration": 4, "velocity": 90}, {"time": 3597, "pitch": 77, "duration": 3, "velocity": 90}, {"time": 3603, "pitch": 79, "duration": 3, "velocity": 91}, {"time": 3609, "pitch": 84, "duration": 4, "velocity": 87}, {"time": 3615, "pitch": 84, "duration": 6, "velocity": 97}, {"time": 3627, "pitch": 81, "duration": 10, "velocity": 92}, {"time": 3639, "pitch": 81, "duration": 3, "velocity": 94}, {"time": 3645, "pitch": 83, "duration": 3, "velocity": 92}, {"time": 3651, "pitch": 84, "duration": 10, "velocity": 92}, {"time": 3663, "pitch": 83, "duration": 8, "velocity": 96}, {"time": 3675, "pitch": 79, "duration": 10, "velocity": 90}, {"time": 3687, "pitch": 76, "duration": 4, "velocity": 94}, {"time": 3693, "pitch": 77, "duration": 5, "velocity": 93}, {"time": 3699, "pitch": 79, "duration": 10, "velocity": 91}, {"time": 3711, "pitch": 81, "duration": 4, "velocity": 90}, {"time": 3717, "pitch": 83, "duration": 4, "velocity": 91}, {"time": 3723, "pitch": 84, "duration": 8, "velocity": 94}, {"time": 3735, "pitch": 83, "duration": 4, "velocity": 91}, {"time": 3741, "pitch": 81, "duration": 3, "velocity": 90}, {"time": 3747, "pitch": 79, "duration": 19, "velocity": 94}, {"time": 3771, "pitch": 77, "duration": 4, "velocity": 91}, {"time": 3777, "pitch": 79, "duration": 4, "velocity": 87}, {"time": 3783, "pitch": 81, "duration": 4, "velocity": 91}, {"time": 3789, "pitch": 77, "duration": 4, "velocity": 91}, {"time": 3795, "pitch": 79, "duration": 6, "velocity": 91}, {"time": 3801, "pitch": 84, "duration": 4, "velocity": 95}, {"time": 3807, "pitch": 84, "duration": 7, "velocity": 94}, {"time": 3819, "pitch": 84, "duration": 4, "velocity": 95}, {"time": 3825, "pitch": 83, "duration": 3, "velocity": 96}, {"time": 3831, "pitch": 79, "duration": 3, "velocity": 93}, {"time": 3837, "pitch": 72, "duration": 4, "velocity": 94}, {"time": 3843, "pitch": 76, "duration": 11, "velocity": 92}, {"time": 3855, "pitch": 74, "duration": 9, "velocity": 96}, {"time": 3867, "pitch": 79, "duration": 3, "velocity": 92}, {"time": 3873, "pitch": 72, "duration": 3, "velocity": 94}, {"time": 3879, "pitch": 76, "duration": 3, "velocity": 97}, {"time": 3885, "pitch": 77, "duration": 4, "velocity": 91}, {"time": 3891, "pitch": 79, "duration": 9, "velocity": 92}, {"time": 3903, "pitch": 81, "duration": 3, "velocity": 94}, {"time": 3909, "pitch": 83, "duration": 3, "velocity": 92}, {"time": 3915, "pitch": 84, "duration": 4, "velocity": 94}, {"time": 3921, "pitch": 76, "duration": 4, "velocity": 94}, {"time": 3927, "pitch": 76, "duration": 4, "velocity": 96}, {"time": 3933, "pitch": 77, "duration": 4, "velocity": 91}, {"time": 3939, "pitch": 79, "duration": 8, "velocity": 91}, {"time": 3963, "pitch": 81, "duration": 9, "velocity": 91}, {"time": 3975, "pitch": 79, "duration": 4, "velocity": 90}, {"time": 3981, "pitch": 77, "duration": 3, "velocity": 90}, {"time": 3987, "pitch": 79, "duration": 3, "velocity": 91}, {"time": 3993, "pitch": 84, "duration": 4, "velocity": 87}, {"time": 3999, "pitch": 84, "duration": 6, "velocity": 97}, {"time": 4011, "pitch": 81, "duration": 10, "velocity": 92}, {"time": 4023, "pitch": 81, "duration": 3, "velocity": 94}, {"time": 4029, "pitch": 83, "duration": 3, "velocity": 92}, {"time": 4035, "pitch": 84, "duration": 10, "velocity": 92}, {"time": 4047, "pitch": 83, "duration": 8, "velocity": 96}, {"time": 4059, "pitch": 79, "duration": 10, "velocity": 90}, {"time": 4071, "pitch": 76, "duration": 4, "velocity": 94}, {"time": 4077, "pitch": 77, "duration": 5, "velocity": 93}, {"time": 4083, "pitch": 79, "duration": 10, "velocity": 91}, {"time": 4095, "pitch": 81, "duration": 4, "velocity": 90}, {"time": 4101, "pitch": 83, "duration": 4, "velocity": 91}, {"time": 4107, "pitch": 84, "duration": 8, "velocity": 94}, {"time": 4119, "pitch": 83, "duration": 4, "velocity": 91}, {"time": 4125, "pitch": 81, "duration": 3, "velocity": 90}, {"time": 4131, "pitch": 79, "duration": 19, "velocity": 94}, {"time": 4155, "pitch": 77, "duration": 4, "velocity": 91}, {"time": 4161, "pitch": 79, "duration": 4, "velocity": 87}, {"time": 4167, "pitch": 81, "duration": 4, "velocity": 91}, {"time": 4173, "pitch": 77, "duration": 4, "velocity": 91}, {"time": 4179, "pitch": 79, "duration": 6, "velocity": 91}, {"time": 4185, "pitch": 84, "duration": 4, "velocity": 95}, {"time": 4191, "pitch": 84, "duration": 7, "velocity": 94}, {"time": 4251, "pitch": 84, "duration": 4, "velocity": 95}, {"time": 4257, "pitch": 83, "duration": 3, "velocity": 96}, {"time": 4263, "pitch": 79, "duration": 3, "velocity": 93}, {"time": 4269, "pitch": 72, "duration": 4, "velocity": 94}, {"time": 4275, "pitch": 76, "duration": 11, "velocity": 92}, {"time": 4287, "pitch": 74, "duration": 5, "velocity": 96}, {"time": 4299, "pitch": 72, "duration": 36, "velocity": 92}, {"time": 4347, "pitch": 84, "duration": 4, "velocity": 95}, {"time": 4353, "pitch": 83, "duration": 3, "velocity": 96}, {"time": 4359, "pitch": 79, "duration": 3, "velocity": 93}, {"time": 4365, "pitch": 72, "duration": 4, "velocity": 94}, {"time": 4371, "pitch": 76, "duration": 11, "velocity": 92}, {"time": 4383, "pitch": 74, "duration": 5, "velocity": 96}, {"time": 4395, "pitch": 72, "duration": 36, "velocity": 92}]}, {"program": 0, "is_drum": false, "name": "PIANO", "notes": [{"time": 85, "pitch": 59, "duration": 10, "velocity": 89}, {"time": 91, "pitch": 66, "duration": 5, "velocity": 82}, {"time": 95, "pitch": 63, "duration": 7, "velocity": 85}, {"time": 100, "pitch": 66, "duration": 6, "velocity": 79}, {"time": 106, "pitch": 59, "duration": 10, "velocity": 84}, {"time": 111, "pitch": 66, "duration": 6, "velocity": 79}, {"time": 116, "pitch": 63, "duration": 7, "velocity": 83}, {"time": 121, "pitch": 66, "duration": 6, "velocity": 77}, {"time": 127, "pitch": 59, "duration": 12, "velocity": 79}, {"time": 132, "pitch": 66, "duration": 7, "velocity": 79}, {"time": 138, "pitch": 63, "duration": 7, "velocity": 88}, {"time": 143, "pitch": 66, "duration": 6, "velocity": 78}, {"time": 148, "pitch": 59, "duration": 12, "velocity": 80}, {"time": 154, "pitch": 66, "duration": 7, "velocity": 73}, {"time": 159, "pitch": 63, "duration": 8, "velocity": 88}, {"time": 165, "pitch": 66, "duration": 4, "velocity": 80}, {"time": 170, "pitch": 54, "duration": 11, "velocity": 79}, {"time": 175, "pitch": 61, "duration": 7, "velocity": 75}, {"time": 180, "pitch": 58, "duration": 9, "velocity": 79}, {"time": 186, "pitch": 61, "duration": 7, "velocity": 74}, {"time": 192, "pitch": 54, "duration": 15, "velocity": 76}, {"time": 197, "pitch": 61, "duration": 7, "velocity": 78}, {"time": 202, "pitch": 58, "duration": 9, "velocity": 81}, {"time": 208, "pitch": 61, "duration": 5, "velocity": 82}, {"time": 213, "pitch": 59, "duration": 91, "velocity": 83}, {"time": 219, "pitch": 66, "duration": 38, "velocity": 77}, {"time": 226, "pitch": 71, "duration": 64, "velocity": 78}, {"time": 241, "pitch": 75, "duration": 62, "velocity": 86}, {"time": 246, "pitch": 78, "duration": 57, "velocity": 83}, {"time": 250, "pitch": 87, "duration": 55, "velocity": 77}, {"time": 315, "pitch": 47, "duration": 20, "velocity": 92}, {"time": 321, "pitch": 54, "duration": 20, "velocity": 82}, {"time": 327, "pitch": 63, "duration": 10, "velocity": 81}, {"time": 327, "pitch": 66, "duration": 19, "velocity": 84}, {"time": 333, "pitch": 59, "duration": 7, "velocity": 89}, {"time": 339, "pitch": 46, "duration": 14, "velocity": 91}, {"time": 345, "pitch": 54, "duration": 8, "velocity": 81}, {"time": 351, "pitch": 61, "duration": 5, "velocity": 88}, {"time": 351, "pitch": 66, "duration": 17, "velocity": 90}, {"time": 363, "pitch": 44, "duration": 19, "velocity": 91}, {"time": 369, "pitch": 51, "duration": 13, "velocity": 82}, {"time": 375, "pitch": 56, "duration": 4, "velocity": 84}, {"time": 375, "pitch": 59, "duration": 12, "velocity": 82}, {"time": 375, "pitch": 63, "duration": 20, "velocity": 91}, {"time": 381, "pitch": 56, "duration": 7, "velocity": 84}, {"time": 387, "pitch": 42, "duration": 15, "velocity": 90}, {"time": 393, "pitch": 49, "duration": 8, "velocity": 81}, {"time": 399, "pitch": 54, "duration": 3, "velocity": 90}, {"time": 399, "pitch": 58, "duration": 3, "velocity": 89}, {"time": 399, "pitch": 61, "duration": 4, "velocity": 88}, {"time": 411, "pitch": 40, "duration": 17, "velocity": 86}, {"time": 411, "pitch": 56, "duration": 6, "velocity": 83}, {"time": 411, "pitch": 59, "duration": 10, "velocity": 88}, {"time": 417, "pitch": 47, "duration": 10, "velocity": 81}, {"time": 423, "pitch": 59, "duration": 7, "velocity": 90}, {"time": 423, "pitch": 64, "duration": 14, "velocity": 90}, {"time": 429, "pitch": 56, "duration": 3, "velocity": 79}, {"time": 435, "pitch": 42, "duration": 20, "velocity": 89}, {"time": 435, "pitch": 54, "duration": 8, "velocity": 76}, {"time": 435, "pitch": 58, "duration": 10, "velocity": 84}, {"time": 441, "pitch": 49, "duration": 12, "velocity": 86}, {"time": 447, "pitch": 54, "duration": 3, "velocity": 86}, {"time": 447, "pitch": 58, "duration": 5, "velocity": 87}, {"time": 447, "pitch": 61, "duration": 6, "velocity": 87}, {"time": 459, "pitch": 47, "duration": 41, "velocity": 90}, {"time": 459, "pitch": 54, "duration": 8, "velocity": 84}, {"time": 459, "pitch": 59, "duration": 13, "velocity": 85}, {"time": 465, "pitch": 51, "duration": 34, "velocity": 79}, {"time": 471, "pitch": 61, "duration": 8, "velocity": 90}, {"time": 477, "pitch": 54, "duration": 5, "velocity": 79}, {"time": 483, "pitch": 54, "duration": 2, "velocity": 60}, {"time": 483, "pitch": 59, "duration": 15, "velocity": 88}, {"time": 483, "pitch": 63, "duration": 15, "velocity": 92}, {"time": 507, "pitch": 47, "duration": 20, "velocity": 92}, {"time": 513, "pitch": 54, "duration": 20, "velocity": 82}, {"time": 519, "pitch": 63, "duration": 10, "velocity": 81}, {"time": 519, "pitch": 66, "duration": 19, "velocity": 84}, {"time": 525, "pitch": 59, "duration": 7, "velocity": 89}, {"time": 531, "pitch": 46, "duration": 14, "velocity": 91}, {"time": 537, "pitch": 54, "duration": 8, "velocity": 81}, {"time": 543, "pitch": 61, "duration": 5, "velocity": 88}, {"time": 543, "pitch": 66, "duration": 17, "velocity": 90}, {"time": 555, "pitch": 44, "duration": 19, "velocity": 91}, {"time": 561, "pitch": 51, "duration": 13, "velocity": 82}, {"time": 567, "pitch": 56, "duration": 4, "velocity": 84}, {"time": 567, "pitch": 59, "duration": 12, "velocity": 82}, {"time": 567, "pitch": 63, "duration": 20, "velocity": 91}, {"time": 573, "pitch": 56, "duration": 7, "velocity": 84}, {"time": 579, "pitch": 42, "duration": 15, "velocity": 90}, {"time": 585, "pitch": 49, "duration": 8, "velocity": 81}, {"time": 591, "pitch": 54, "duration": 3, "velocity": 90}, {"time": 591, "pitch": 58, "duration": 3, "velocity": 89}, {"time": 591, "pitch": 61, "duration": 4, "velocity": 88}, {"time": 603, "pitch": 40, "duration": 17, "velocity": 86}, {"time": 603, "pitch": 56, "duration": 6, "velocity": 83}, {"time": 603, "pitch": 59, "duration": 10, "velocity": 88}, {"time": 609, "pitch": 47, "duration": 10, "velocity": 81}, {"time": 615, "pitch": 59, "duration": 7, "velocity": 90}, {"time": 615, "pitch": 64, "duration": 14, "velocity": 90}, {"time": 621, "pitch": 56, "duration": 3, "velocity": 79}, {"time": 627, "pitch": 42, "duration": 20, "velocity": 89}, {"time": 627, "pitch": 54, "duration": 8, "velocity": 76}, {"time": 627, "pitch": 58, "duration": 10, "velocity": 84}, {"time": 633, "pitch": 49, "duration": 12, "velocity": 86}, {"time": 639, "pitch": 54, "duration": 3, "velocity": 86}, {"time": 639, "pitch": 58, "duration": 5, "velocity": 87}, {"time": 639, "pitch": 61, "duration": 6, "velocity": 87}, {"time": 651, "pitch": 47, "duration": 41, "velocity": 90}, {"time": 651, "pitch": 54, "duration": 8, "velocity": 84}, {"time": 651, "pitch": 59, "duration": 13, "velocity": 85}, {"time": 657, "pitch": 51, "duration": 34, "velocity": 79}, {"time": 663, "pitch": 61, "duration": 8, "velocity": 90}, {"time": 669, "pitch": 54, "duration": 5, "velocity": 79}, {"time": 675, "pitch": 54, "duration": 2, "velocity": 60}, {"time": 675, "pitch": 59, "duration": 15, "velocity": 88}, {"time": 675, "pitch": 63, "duration": 15, "velocity": 92}, {"time": 699, "pitch": 47, "duration": 20, "velocity": 92}, {"time": 705, "pitch": 54, "duration": 21, "velocity": 78}, {"time": 711, "pitch": 59, "duration": 4, "velocity": 87}, {"time": 711, "pitch": 63, "duration": 11, "velocity": 92}, {"time": 717, "pitch": 59, "duration": 7, "velocity": 85}, {"time": 723, "pitch": 46, "duration": 17, "velocity": 91}, {"time": 729, "pitch": 54, "duration": 10, "velocity": 80}, {"time": 735, "pitch": 61, "duration": 9, "velocity": 87}, {"time": 735, "pitch": 66, "duration": 12, "velocity": 85}, {"time": 747, "pitch": 44, "duration": 21, "velocity": 87}, {"time": 753, "pitch": 51, "duration": 16, "velocity": 75}, {"time": 759, "pitch": 59, "duration": 12, "velocity": 84}, {"time": 759, "pitch": 63, "duration": 23, "velocity": 90}, {"time": 765, "pitch": 56, "duration": 6, "velocity": 76}, {"time": 771, "pitch": 42, "duration": 19, "velocity": 85}, {"time": 777, "pitch": 51, "duration": 13, "velocity": 86}, {"time": 783, "pitch": 54, "duration": 12, "velocity": 82}, {"time": 783, "pitch": 58, "duration": 11, "velocity": 83}, {"time": 795, "pitch": 40, "duration": 20, "velocity": 89}, {"time": 801, "pitch": 47, "duration": 14, "velocity": 75}, {"time": 807, "pitch": 56, "duration": 13, "velocity": 81}, {"time": 807, "pitch": 59, "duration": 14, "velocity": 86}, {"time": 813, "pitch": 52, "duration": 7, "velocity": 77}, {"time": 819, "pitch": 42, "duration": 21, "velocity": 90}, {"time": 825, "pitch": 49, "duration": 14, "velocity": 75}, {"time": 831, "pitch": 54, "duration": 8, "velocity": 81}, {"time": 837, "pitch": 58, "duration": 7, "velocity": 85}, {"time": 843, "pitch": 47, "duration": 41, "velocity": 85}, {"time": 843, "pitch": 59, "duration": 14, "velocity": 85}, {"time": 849, "pitch": 51, "duration": 33, "velocity": 80}, {"time": 855, "pitch": 54, "duration": 8, "velocity": 89}, {"time": 861, "pitch": 61, "duration": 8, "velocity": 83}, {"time": 867, "pitch": 63, "duration": 14, "velocity": 96}, {"time": 891, "pitch": 47, "duration": 18, "velocity": 92}, {"time": 897, "pitch": 54, "duration": 7, "velocity": 88}, {"time": 903, "pitch": 59, "duration": 11, "velocity": 90}, {"time": 903, "pitch": 63, "duration": 15, "velocity": 92}, {"time": 909, "pitch": 54, "duration": 5, "velocity": 86}, {"time": 915, "pitch": 46, "duration": 20, "velocity": 91}, {"time": 921, "pitch": 58, "duration": 9, "velocity": 84}, {"time": 927, "pitch": 61, "duration": 16, "velocity": 86}, {"time": 939, "pitch": 44, "duration": 20, "velocity": 90}, {"time": 945, "pitch": 56, "duration": 6, "velocity": 82}, {"time": 951, "pitch": 56, "duration": 1, "velocity": 75}, {"time": 951, "pitch": 59, "duration": 12, "velocity": 85}, {"time": 957, "pitch": 56, "duration": 7, "velocity": 84}, {"time": 963, "pitch": 42, "duration": 20, "velocity": 88}, {"time": 969, "pitch": 54, "duration": 7, "velocity": 85}, {"time": 975, "pitch": 58, "duration": 11, "velocity": 84}, {"time": 975, "pitch": 61, "duration": 21, "velocity": 86}, {"time": 981, "pitch": 54, "duration": 7, "velocity": 85}, {"time": 987, "pitch": 40, "duration": 18, "velocity": 89}, {"time": 993, "pitch": 47, "duration": 13, "velocity": 79}, {"time": 999, "pitch": 56, "duration": 12, "velocity": 84}, {"time": 999, "pitch": 59, "duration": 13, "velocity": 85}, {"time": 1011, "pitch": 42, "duration": 20, "velocity": 90}, {"time": 1017, "pitch": 49, "duration": 13, "velocity": 79}, {"time": 1023, "pitch": 54, "duration": 3, "velocity": 80}, {"time": 1023, "pitch": 58, "duration": 11, "velocity": 81}, {"time": 1023, "pitch": 61, "duration": 13, "velocity": 88}, {"time": 1029, "pitch": 54, "duration": 7, "velocity": 87}, {"time": 1035, "pitch": 47, "duration": 44, "velocity": 90}, {"time": 1041, "pitch": 54, "duration": 7, "velocity": 89}, {"time": 1047, "pitch": 61, "duration": 8, "velocity": 85}, {"time": 1053, "pitch": 54, "duration": 7, "velocity": 90}, {"time": 1059, "pitch": 59, "duration": 7, "velocity": 86}, {"time": 1059, "pitch": 63, "duration": 8, "velocity": 91}, {"time": 1065, "pitch": 54, "duration": 4, "velocity": 82}, {"time": 1071, "pitch": 59, "duration": 12, "velocity": 88}, {"time": 1077, "pitch": 54, "duration": 7, "velocity": 86}, {"time": 1083, "pitch": 40, "duration": 20, "velocity": 89}, {"time": 1089, "pitch": 47, "duration": 14, "velocity": 87}, {"time": 1095, "pitch": 59, "duration": 8, "velocity": 89}, {"time": 1101, "pitch": 52, "duration": 8, "velocity": 91}, {"time": 1107, "pitch": 42, "duration": 20, "velocity": 92}, {"time": 1113, "pitch": 49, "duration": 15, "velocity": 85}, {"time": 1119, "pitch": 58, "duration": 11, "velocity": 92}, {"time": 1119, "pitch": 61, "duration": 13, "velocity": 91}, {"time": 1125, "pitch": 54, "duration": 5, "velocity": 91}, {"time": 1131, "pitch": 44, "duration": 41, "velocity": 94}, {"time": 1137, "pitch": 51, "duration": 34, "velocity": 82}, {"time": 1143, "pitch": 59, "duration": 10, "velocity": 91}, {"time": 1143, "pitch": 63, "duration": 10, "velocity": 90}, {"time": 1149, "pitch": 56, "duration": 7, "velocity": 88}, {"time": 1155, "pitch": 59, "duration": 7, "velocity": 85}, {"time": 1161, "pitch": 56, "duration": 6, "velocity": 90}, {"time": 1167, "pitch": 59, "duration": 8, "velocity": 91}, {"time": 1167, "pitch": 63, "duration": 8, "velocity": 95}, {"time": 1173, "pitch": 56, "duration": 6, "velocity": 90}, {"time": 1179, "pitch": 40, "duration": 20, "velocity": 83}, {"time": 1185, "pitch": 47, "duration": 14, "velocity": 90}, {"time": 1191, "pitch": 56, "duration": 12, "velocity": 88}, {"time": 1191, "pitch": 59, "duration": 14, "velocity": 91}, {"time": 1197, "pitch": 52, "duration": 7, "velocity": 85}, {"time": 1203, "pitch": 42, "duration": 21, "velocity": 91}, {"time": 1209, "pitch": 49, "duration": 14, "velocity": 80}, {"time": 1215, "pitch": 58, "duration": 8, "velocity": 90}, {"time": 1215, "pitch": 61, "duration": 10, "velocity": 88}, {"time": 1221, "pitch": 54, "duration": 8, "velocity": 92}, {"time": 1227, "pitch": 47, "duration": 41, "velocity": 99}, {"time": 1233, "pitch": 54, "duration": 7, "velocity": 95}, {"time": 1239, "pitch": 59, "duration": 7, "velocity": 92}, {"time": 1245, "pitch": 54, "duration": 7, "velocity": 91}, {"time": 1251, "pitch": 59, "duration": 7, "velocity": 93}, {"time": 1251, "pitch": 63, "duration": 7, "velocity": 95}, {"time": 1257, "pitch": 54, "duration": 7, "velocity": 91}, {"time": 1263, "pitch": 59, "duration": 15, "velocity": 93}, {"time": 1269, "pitch": 42, "duration": 4, "velocity": 85}, {"time": 1275, "pitch": 40, "duration": 20, "velocity": 91}, {"time": 1281, "pitch": 47, "duration": 15, "velocity": 86}, {"time": 1287, "pitch": 56, "duration": 12, "velocity": 90}, {"time": 1287, "pitch": 59, "duration": 13, "velocity": 91}, {"time": 1293, "pitch": 52, "duration": 5, "velocity": 90}, {"time": 1299, "pitch": 42, "duration": 21, "velocity": 92}, {"time": 1305, "pitch": 49, "duration": 15, "velocity": 82}, {"time": 1311, "pitch": 58, "duration": 7, "velocity": 90}, {"time": 1311, "pitch": 61, "duration": 8, "velocity": 90}, {"time": 1317, "pitch": 54, "duration": 3, "velocity": 95}, {"time": 1323, "pitch": 47, "duration": 13, "velocity": 95}, {"time": 1323, "pitch": 59, "duration": 7, "velocity": 92}, {"time": 1329, "pitch": 54, "duration": 7, "velocity": 93}, {"time": 1335, "pitch": 46, "duration": 10, "velocity": 95}, {"time": 1335, "pitch": 58, "duration": 10, "velocity": 92}, {"time": 1341, "pitch": 54, "duration": 4, "velocity": 90}, {"time": 1347, "pitch": 44, "duration": 18, "velocity": 92}, {"time": 1347, "pitch": 56, "duration": 9, "velocity": 84}, {"time": 1347, "pitch": 59, "duration": 9, "velocity": 87}, {"time": 1353, "pitch": 51, "duration": 11, "velocity": 86}, {"time": 1359, "pitch": 59, "duration": 12, "velocity": 91}, {"time": 1359, "pitch": 63, "duration": 25, "velocity": 93}, {"time": 1365, "pitch": 56, "duration": 6, "velocity": 84}, {"time": 1371, "pitch": 40, "duration": 22, "velocity": 91}, {"time": 1377, "pitch": 47, "duration": 16, "velocity": 86}, {"time": 1383, "pitch": 52, "duration": 8, "velocity": 91}, {"time": 1389, "pitch": 56, "duration": 6, "velocity": 92}, {"time": 1395, "pitch": 42, "duration": 21, "velocity": 91}, {"time": 1395, "pitch": 54, "duration": 9, "velocity": 86}, {"time": 1395, "pitch": 58, "duration": 12, "velocity": 87}, {"time": 1401, "pitch": 49, "duration": 14, "velocity": 85}, {"time": 1407, "pitch": 54, "duration": 9, "velocity": 92}, {"time": 1419, "pitch": 47, "duration": 46, "velocity": 94}, {"time": 1419, "pitch": 54, "duration": 8, "velocity": 90}, {"time": 1419, "pitch": 59, "duration": 14, "velocity": 87}, {"time": 1425, "pitch": 51, "duration": 40, "velocity": 79}, {"time": 1431, "pitch": 54, "duration": 11, "velocity": 99}, {"time": 1443, "pitch": 54, "duration": 2, "velocity": 81}, {"time": 1443, "pitch": 59, "duration": 10, "velocity": 91}, {"time": 1443, "pitch": 63, "duration": 10, "velocity": 90}, {"time": 1455, "pitch": 59, "duration": 10, "velocity": 90}, {"time": 1461, "pitch": 54, "duration": 5, "velocity": 95}, {"time": 1467, "pitch": 47, "duration": 15, "velocity": 92}, {"time": 1467, "pitch": 63, "duration": 6, "velocity": 90}, {"time": 1467, "pitch": 66, "duration": 7, "velocity": 88}, {"time": 1467, "pitch": 71, "duration": 6, "velocity": 88}, {"time": 1473, "pitch": 54, "duration": 8, "velocity": 84}, {"time": 1473, "pitch": 59, "duration": 4, "velocity": 78}, {"time": 1479, "pitch": 63, "duration": 5, "velocity": 95}, {"time": 1479, "pitch": 66, "duration": 5, "velocity": 92}, {"time": 1485, "pitch": 59, "duration": 2, "velocity": 90}, {"time": 1491, "pitch": 42, "duration": 18, "velocity": 90}, {"time": 1491, "pitch": 58, "duration": 6, "velocity": 81}, {"time": 1491, "pitch": 61, "duration": 8, "velocity": 86}, {"time": 1497, "pitch": 49, "duration": 13, "velocity": 88}, {"time": 1497, "pitch": 58, "duration": 2, "velocity": 51}, {"time": 1503, "pitch": 61, "duration": 7, "velocity": 90}, {"time": 1503, "pitch": 66, "duration": 7, "velocity": 91}, {"time": 1509, "pitch": 58, "duration": 3, "velocity": 90}, {"time": 1515, "pitch": 44, "duration": 21, "velocity": 90}, {"time": 1515, "pitch": 56, "duration": 9, "velocity": 78}, {"time": 1515, "pitch": 59, "duration": 7, "velocity": 84}, {"time": 1521, "pitch": 51, "duration": 14, "velocity": 85}, {"time": 1527, "pitch": 59, "duration": 7, "velocity": 92}, {"time": 1527, "pitch": 63, "duration": 7, "velocity": 95}, {"time": 1527, "pitch": 68, "duration": 7, "velocity": 90}, {"time": 1533, "pitch": 56, "duration": 2, "velocity": 92}, {"time": 1539, "pitch": 51, "duration": 15, "velocity": 91}, {"time": 1539, "pitch": 58, "duration": 4, "velocity": 88}, {"time": 1539, "pitch": 63, "duration": 8, "velocity": 92}, {"time": 1545, "pitch": 58, "duration": 7, "velocity": 94}, {"time": 1551, "pitch": 63, "duration": 5, "velocity": 95}, {"time": 1551, "pitch": 66, "duration": 5, "velocity": 92}, {"time": 1557, "pitch": 58, "duration": 2, "velocity": 92}, {"time": 1563, "pitch": 40, "duration": 17, "velocity": 92}, {"time": 1563, "pitch": 52, "duration": 6, "velocity": 86}, {"time": 1563, "pitch": 56, "duration": 8, "velocity": 81}, {"time": 1569, "pitch": 47, "duration": 11, "velocity": 86}, {"time": 1575, "pitch": 56, "duration": 7, "velocity": 84}, {"time": 1575, "pitch": 59, "duration": 7, "velocity": 94}, {"time": 1575, "pitch": 64, "duration": 10, "velocity": 91}, {"time": 1581, "pitch": 52, "duration": 3, "velocity": 89}, {"time": 1587, "pitch": 47, "duration": 19, "velocity": 91}, {"time": 1587, "pitch": 54, "duration": 3, "velocity": 90}, {"time": 1587, "pitch": 59, "duration": 8, "velocity": 89}, {"time": 1593, "pitch": 54, "duration": 7, "velocity": 91}, {"time": 1599, "pitch": 59, "duration": 7, "velocity": 92}, {"time": 1599, "pitch": 63, "duration": 7, "velocity": 95}, {"time": 1605, "pitch": 54, "duration": 3, "velocity": 91}, {"time": 1611, "pitch": 37, "duration": 16, "velocity": 92}, {"time": 1611, "pitch": 61, "duration": 8, "velocity": 90}, {"time": 1611, "pitch": 65, "duration": 8, "velocity": 91}, {"time": 1617, "pitch": 56, "duration": 3, "velocity": 85}, {"time": 1623, "pitch": 56, "duration": 2, "velocity": 87}, {"time": 1623, "pitch": 61, "duration": 14, "velocity": 91}, {"time": 1623, "pitch": 65, "duration": 14, "velocity": 90}, {"time": 1629, "pitch": 56, "duration": 9, "velocity": 89}, {"time": 1635, "pitch": 42, "duration": 21, "velocity": 91}, {"time": 1641, "pitch": 49, "duration": 14, "velocity": 87}, {"time": 1647, "pitch": 54, "duration": 3, "velocity": 91}, {"time": 1647, "pitch": 58, "duration": 5, "velocity": 92}, {"time": 1647, "pitch": 61, "duration": 7, "velocity": 93}, {"time": 1653, "pitch": 54, "duration": 6, "velocity": 96}, {"time": 1653, "pitch": 58, "duration": 1, "velocity": 68}, {"time": 1659, "pitch": 47, "duration": 14, "velocity": 92}, {"time": 1659, "pitch": 63, "duration": 7, "velocity": 90}, {"time": 1659, "pitch": 66, "duration": 7, "velocity": 88}, {"time": 1665, "pitch": 54, "duration": 7, "velocity": 80}, {"time": 1665, "pitch": 59, "duration": 4, "velocity": 84}, {"time": 1671, "pitch": 63, "duration": 8, "velocity": 92}, {"time": 1671, "pitch": 66, "duration": 8, "velocity": 90}, {"time": 1677, "pitch": 59, "duration": 6, "velocity": 85}, {"time": 1683, "pitch": 51, "duration": 14, "velocity": 97}, {"time": 1683, "pitch": 63, "duration": 7, "velocity": 90}, {"time": 1683, "pitch": 66, "duration": 7, "velocity": 91}, {"time": 1689, "pitch": 58, "duration": 7, "velocity": 92}, {"time": 1695, "pitch": 63, "duration": 4, "velocity": 92}, {"time": 1695, "pitch": 66, "duration": 5, "velocity": 94}, {"time": 1701, "pitch": 58, "duration": 3, "velocity": 94}, {"time": 1707, "pitch": 44, "duration": 20, "velocity": 90}, {"time": 1707, "pitch": 56, "duration": 4, "velocity": 85}, {"time": 1707, "pitch": 59, "duration": 7, "velocity": 90}, {"time": 1707, "pitch": 63, "duration": 7, "velocity": 90}, {"time": 1713, "pitch": 56, "duration": 6, "velocity": 88}, {"time": 1719, "pitch": 59, "duration": 7, "velocity": 90}, {"time": 1719, "pitch": 63, "duration": 6, "velocity": 95}, {"time": 1725, "pitch": 56, "duration": 3, "velocity": 92}, {"time": 1731, "pitch": 42, "duration": 21, "velocity": 90}, {"time": 1731, "pitch": 54, "duration": 8, "velocity": 86}, {"time": 1731, "pitch": 58, "duration": 7, "velocity": 81}, {"time": 1731, "pitch": 61, "duration": 8, "velocity": 81}, {"time": 1737, "pitch": 49, "duration": 14, "velocity": 80}, {"time": 1743, "pitch": 58, "duration": 6, "velocity": 92}, {"time": 1743, "pitch": 61, "duration": 7, "velocity": 86}, {"time": 1749, "pitch": 54, "duration": 3, "velocity": 91}, {"time": 1755, "pitch": 40, "duration": 21, "velocity": 91}, {"time": 1755, "pitch": 52, "duration": 11, "velocity": 89}, {"time": 1755, "pitch": 56, "duration": 7, "velocity": 86}, {"time": 1761, "pitch": 47, "duration": 14, "velocity": 82}, {"time": 1767, "pitch": 56, "duration": 9, "velocity": 88}, {"time": 1767, "pitch": 59, "duration": 10, "velocity": 90}, {"time": 1767, "pitch": 64, "duration": 11, "velocity": 89}, {"time": 1773, "pitch": 52, "duration": 3, "velocity": 92}, {"time": 1779, "pitch": 47, "duration": 15, "velocity": 94}, {"time": 1779, "pitch": 59, "duration": 1, "velocity": 73}, {"time": 1779, "pitch": 63, "duration": 7, "velocity": 91}, {"time": 1779, "pitch": 66, "duration": 7, "velocity": 88}, {"time": 1785, "pitch": 54, "duration": 8, "velocity": 83}, {"time": 1791, "pitch": 63, "duration": 6, "velocity": 94}, {"time": 1791, "pitch": 66, "duration": 7, "velocity": 91}, {"time": 1797, "pitch": 59, "duration": 8, "velocity": 91}, {"time": 1803, "pitch": 40, "duration": 18, "velocity": 90}, {"time": 1803, "pitch": 64, "duration": 7, "velocity": 85}, {"time": 1803, "pitch": 68, "duration": 8, "velocity": 85}, {"time": 1809, "pitch": 59, "duration": 3, "velocity": 89}, {"time": 1815, "pitch": 64, "duration": 7, "velocity": 93}, {"time": 1815, "pitch": 68, "duration": 7, "velocity": 96}, {"time": 1821, "pitch": 59, "duration": 3, "velocity": 92}, {"time": 1827, "pitch": 42, "duration": 17, "velocity": 90}, {"time": 1827, "pitch": 61, "duration": 4, "velocity": 88}, {"time": 1827, "pitch": 66, "duration": 8, "velocity": 86}, {"time": 1827, "pitch": 70, "duration": 7, "velocity": 90}, {"time": 1833, "pitch": 49, "duration": 11, "velocity": 83}, {"time": 1833, "pitch": 61, "duration": 4, "velocity": 89}, {"time": 1839, "pitch": 61, "duration": 2, "velocity": 91}, {"time": 1839, "pitch": 66, "duration": 7, "velocity": 91}, {"time": 1845, "pitch": 61, "duration": 3, "velocity": 90}, {"time": 1851, "pitch": 47, "duration": 48, "velocity": 92}, {"time": 1851, "pitch": 59, "duration": 13, "velocity": 85}, {"time": 1851, "pitch": 63, "duration": 8, "velocity": 90}, {"time": 1857, "pitch": 54, "duration": 27, "velocity": 83}, {"time": 1863, "pitch": 61, "duration": 7, "velocity": 88}, {"time": 1869, "pitch": 63, "duration": 4, "velocity": 90}, {"time": 1875, "pitch": 59, "duration": 14, "velocity": 85}, {"time": 1875, "pitch": 63, "duration": 21, "velocity": 90}, {"time": 1875, "pitch": 66, "duration": 16, "velocity": 89}, {"time": 1887, "pitch": 54, "duration": 12, "velocity": 86}, {"time": 1893, "pitch": 59, "duration": 5, "velocity": 79}, {"time": 1899, "pitch": 47, "duration": 1, "velocity": 91}, {"time": 1899, "pitch": 59, "duration": 8, "velocity": 91}, {"time": 1899, "pitch": 63, "duration": 9, "velocity": 95}, {"time": 1905, "pitch": 54, "duration": 9, "velocity": 79}, {"time": 1911, "pitch": 59, "duration": 9, "velocity": 97}, {"time": 1917, "pitch": 54, "duration": 10, "velocity": 91}, {"time": 1923, "pitch": 63, "duration": 7, "velocity": 93}, {"time": 1929, "pitch": 54, "duration": 9, "velocity": 66}, {"time": 1935, "pitch": 59, "duration": 2, "velocity": 87}, {"time": 1935, "pitch": 63, "duration": 7, "velocity": 94}, {"time": 1935, "pitch": 66, "duration": 8, "velocity": 90}, {"time": 1941, "pitch": 59, "duration": 3, "velocity": 92}, {"time": 1947, "pitch": 42, "duration": 46, "velocity": 91}, {"time": 1947, "pitch": 58, "duration": 14, "velocity": 87}, {"time": 1947, "pitch": 61, "duration": 10, "velocity": 85}, {"time": 1953, "pitch": 49, "duration": 40, "velocity": 81}, {"time": 1959, "pitch": 61, "duration": 7, "velocity": 89}, {"time": 1965, "pitch": 58, "duration": 8, "velocity": 92}, {"time": 1971, "pitch": 61, "duration": 8, "velocity": 91}, {"time": 1971, "pitch": 66, "duration": 7, "velocity": 86}, {"time": 1977, "pitch": 58, "duration": 3, "velocity": 84}, {"time": 1983, "pitch": 58, "duration": 3, "velocity": 90}, {"time": 1983, "pitch": 61, "duration": 8, "velocity": 91}, {"time": 1989, "pitch": 58, "duration": 8, "velocity": 90}, {"time": 1995, "pitch": 42, "duration": 43, "velocity": 91}, {"time": 1995, "pitch": 61, "duration": 8, "velocity": 86}, {"time": 1995, "pitch": 66, "duration": 7, "velocity": 87}, {"time": 2001, "pitch": 49, "duration": 35, "velocity": 73}, {"time": 2001, "pitch": 58, "duration": 7, "velocity": 84}, {"time": 2007, "pitch": 61, "duration": 6, "velocity": 88}, {"time": 2013, "pitch": 58, "duration": 7, "velocity": 90}, {"time": 2019, "pitch": 61, "duration": 7, "velocity": 90}, {"time": 2019, "pitch": 70, "duration": 6, "velocity": 92}, {"time": 2025, "pitch": 58, "duration": 6, "velocity": 94}, {"time": 2031, "pitch": 61, "duration": 12, "velocity": 84}, {"time": 2031, "pitch": 66, "duration": 13, "velocity": 90}, {"time": 2037, "pitch": 58, "duration": 6, "velocity": 92}, {"time": 2043, "pitch": 47, "duration": 45, "velocity": 92}, {"time": 2049, "pitch": 54, "duration": 10, "velocity": 84}, {"time": 2055, "pitch": 59, "duration": 4, "velocity": 85}, {"time": 2055, "pitch": 63, "duration": 6, "velocity": 90}, {"time": 2055, "pitch": 66, "duration": 6, "velocity": 85}, {"time": 2061, "pitch": 54, "duration": 27, "velocity": 86}, {"time": 2061, "pitch": 59, "duration": 3, "velocity": 73}, {"time": 2067, "pitch": 63, "duration": 6, "velocity": 93}, {"time": 2067, "pitch": 66, "duration": 6, "velocity": 94}, {"time": 2073, "pitch": 59, "duration": 7, "velocity": 94}, {"time": 2079, "pitch": 63, "duration": 7, "velocity": 92}, {"time": 2079, "pitch": 66, "duration": 7, "velocity": 92}, {"time": 2085, "pitch": 59, "duration": 10, "velocity": 91}, {"time": 2091, "pitch": 47, "duration": 41, "velocity": 92}, {"time": 2091, "pitch": 71, "duration": 13, "velocity": 91}, {"time": 2097, "pitch": 54, "duration": 33, "velocity": 69}, {"time": 2097, "pitch": 59, "duration": 17, "velocity": 96}, {"time": 2103, "pitch": 63, "duration": 12, "velocity": 97}, {"time": 2109, "pitch": 66, "duration": 7, "velocity": 83}, {"time": 2115, "pitch": 71, "duration": 8, "velocity": 95}, {"time": 2121, "pitch": 59, "duration": 3, "velocity": 93}, {"time": 2127, "pitch": 59, "duration": 2, "velocity": 94}, {"time": 2127, "pitch": 63, "duration": 7, "velocity": 99}, {"time": 2127, "pitch": 66, "duration": 6, "velocity": 92}, {"time": 2127, "pitch": 71, "duration": 6, "velocity": 90}, {"time": 2133, "pitch": 59, "duration": 2, "velocity": 92}, {"time": 2139, "pitch": 42, "duration": 45, "velocity": 85}, {"time": 2139, "pitch": 54, "duration": 9, "velocity": 90}, {"time": 2139, "pitch": 58, "duration": 9, "velocity": 85}, {"time": 2145, "pitch": 49, "duration": 39, "velocity": 89}, {"time": 2151, "pitch": 58, "duration": 7, "velocity": 85}, {"time": 2151, "pitch": 61, "duration": 7, "velocity": 90}, {"time": 2157, "pitch": 54, "duration": 7, "velocity": 86}, {"time": 2163, "pitch": 58, "duration": 3, "velocity": 90}, {"time": 2163, "pitch": 61, "duration": 6, "velocity": 91}, {"time": 2163, "pitch": 66, "duration": 5, "velocity": 90}, {"time": 2169, "pitch": 54, "duration": 4, "velocity": 88}, {"time": 2175, "pitch": 58, "duration": 7, "velocity": 95}, {"time": 2175, "pitch": 61, "duration": 8, "velocity": 93}, {"time": 2181, "pitch": 54, "duration": 4, "velocity": 90}, {"time": 2187, "pitch": 42, "duration": 45, "velocity": 94}, {"time": 2187, "pitch": 54, "duration": 2, "velocity": 78}, {"time": 2187, "pitch": 58, "duration": 7, "velocity": 90}, {"time": 2187, "pitch": 61, "duration": 7, "velocity": 90}, {"time": 2193, "pitch": 54, "duration": 6, "velocity": 86}, {"time": 2199, "pitch": 58, "duration": 8, "velocity": 76}, {"time": 2199, "pitch": 61, "duration": 8, "velocity": 89}, {"time": 2205, "pitch": 54, "duration": 7, "velocity": 92}, {"time": 2211, "pitch": 58, "duration": 2, "velocity": 91}, {"time": 2211, "pitch": 61, "duration": 1, "velocity": 84}, {"time": 2211, "pitch": 66, "duration": 7, "velocity": 91}, {"time": 2217, "pitch": 54, "duration": 7, "velocity": 91}, {"time": 2217, "pitch": 58, "duration": 2, "velocity": 74}, {"time": 2223, "pitch": 58, "duration": 7, "velocity": 84}, {"time": 2223, "pitch": 64, "duration": 9, "velocity": 96}, {"time": 2229, "pitch": 54, "duration": 8, "velocity": 86}, {"time": 2235, "pitch": 47, "duration": 20, "velocity": 92}, {"time": 2241, "pitch": 54, "duration": 21, "velocity": 78}, {"time": 2247, "pitch": 59, "duration": 4, "velocity": 87}, {"time": 2247, "pitch": 63, "duration": 11, "velocity": 92}, {"time": 2253, "pitch": 59, "duration": 7, "velocity": 85}, {"time": 2259, "pitch": 46, "duration": 17, "velocity": 91}, {"time": 2265, "pitch": 54, "duration": 10, "velocity": 80}, {"time": 2271, "pitch": 61, "duration": 9, "velocity": 87}, {"time": 2271, "pitch": 66, "duration": 12, "velocity": 85}, {"time": 2283, "pitch": 44, "duration": 21, "velocity": 87}, {"time": 2289, "pitch": 51, "duration": 16, "velocity": 75}, {"time": 2295, "pitch": 59, "duration": 12, "velocity": 84}, {"time": 2295, "pitch": 63, "duration": 23, "velocity": 90}, {"time": 2301, "pitch": 56, "duration": 6, "velocity": 76}, {"time": 2307, "pitch": 42, "duration": 19, "velocity": 85}, {"time": 2313, "pitch": 51, "duration": 13, "velocity": 86}, {"time": 2319, "pitch": 54, "duration": 12, "velocity": 82}, {"time": 2319, "pitch": 58, "duration": 11, "velocity": 83}, {"time": 2331, "pitch": 40, "duration": 20, "velocity": 89}, {"time": 2337, "pitch": 47, "duration": 14, "velocity": 75}, {"time": 2343, "pitch": 56, "duration": 13, "velocity": 81}, {"time": 2343, "pitch": 59, "duration": 14, "velocity": 86}, {"time": 2349, "pitch": 52, "duration": 7, "velocity": 77}, {"time": 2355, "pitch": 42, "duration": 21, "velocity": 90}, {"time": 2361, "pitch": 49, "duration": 14, "velocity": 75}, {"time": 2367, "pitch": 54, "duration": 8, "velocity": 81}, {"time": 2373, "pitch": 58, "duration": 7, "velocity": 85}, {"time": 2379, "pitch": 47, "duration": 41, "velocity": 85}, {"time": 2379, "pitch": 59, "duration": 14, "velocity": 85}, {"time": 2385, "pitch": 51, "duration": 33, "velocity": 80}, {"time": 2391, "pitch": 54, "duration": 8, "velocity": 89}, {"time": 2397, "pitch": 61, "duration": 8, "velocity": 83}, {"time": 2403, "pitch": 63, "duration": 14, "velocity": 96}, {"time": 2427, "pitch": 47, "duration": 18, "velocity": 92}, {"time": 2433, "pitch": 54, "duration": 7, "velocity": 88}, {"time": 2439, "pitch": 59, "duration": 11, "velocity": 90}, {"time": 2439, "pitch": 63, "duration": 15, "velocity": 92}, {"time": 2445, "pitch": 54, "duration": 5, "velocity": 86}, {"time": 2451, "pitch": 46, "duration": 20, "velocity": 91}, {"time": 2457, "pitch": 58, "duration": 9, "velocity": 84}, {"time": 2463, "pitch": 61, "duration": 16, "velocity": 86}, {"time": 2475, "pitch": 44, "duration": 20, "velocity": 90}, {"time": 2481, "pitch": 56, "duration": 6, "velocity": 82}, {"time": 2487, "pitch": 56, "duration": 1, "velocity": 75}, {"time": 2487, "pitch": 59, "duration": 12, "velocity": 85}, {"time": 2493, "pitch": 56, "duration": 7, "velocity": 84}, {"time": 2499, "pitch": 42, "duration": 20, "velocity": 88}, {"time": 2505, "pitch": 54, "duration": 7, "velocity": 85}, {"time": 2511, "pitch": 58, "duration": 11, "velocity": 84}, {"time": 2511, "pitch": 61, "duration": 21, "velocity": 86}, {"time": 2517, "pitch": 54, "duration": 7, "velocity": 85}, {"time": 2523, "pitch": 40, "duration": 18, "velocity": 89}, {"time": 2529, "pitch": 47, "duration": 13, "velocity": 79}, {"time": 2535, "pitch": 56, "duration": 12, "velocity": 84}, {"time": 2535, "pitch": 59, "duration": 13, "velocity": 85}, {"time": 2547, "pitch": 42, "duration": 20, "velocity": 90}, {"time": 2553, "pitch": 49, "duration": 13, "velocity": 79}, {"time": 2559, "pitch": 54, "duration": 3, "velocity": 80}, {"time": 2559, "pitch": 58, "duration": 11, "velocity": 81}, {"time": 2559, "pitch": 61, "duration": 13, "velocity": 88}, {"time": 2565, "pitch": 54, "duration": 7, "velocity": 87}, {"time": 2571, "pitch": 47, "duration": 44, "velocity": 90}, {"time": 2577, "pitch": 54, "duration": 7, "velocity": 89}, {"time": 2583, "pitch": 61, "duration": 8, "velocity": 85}, {"time": 2589, "pitch": 54, "duration": 7, "velocity": 90}, {"time": 2595, "pitch": 59, "duration": 7, "velocity": 86}, {"time": 2595, "pitch": 63, "duration": 8, "velocity": 91}, {"time": 2601, "pitch": 54, "duration": 4, "velocity": 82}, {"time": 2607, "pitch": 59, "duration": 12, "velocity": 88}, {"time": 2613, "pitch": 54, "duration": 7, "velocity": 86}, {"time": 2619, "pitch": 40, "duration": 20, "velocity": 89}, {"time": 2625, "pitch": 47, "duration": 14, "velocity": 87}, {"time": 2631, "pitch": 59, "duration": 8, "velocity": 89}, {"time": 2637, "pitch": 52, "duration": 8, "velocity": 91}, {"time": 2643, "pitch": 42, "duration": 20, "velocity": 92}, {"time": 2649, "pitch": 49, "duration": 15, "velocity": 85}, {"time": 2655, "pitch": 58, "duration": 11, "velocity": 92}, {"time": 2655, "pitch": 61, "duration": 13, "velocity": 91}, {"time": 2661, "pitch": 54, "duration": 5, "velocity": 91}, {"time": 2667, "pitch": 44, "duration": 41, "velocity": 94}, {"time": 2673, "pitch": 51, "duration": 34, "velocity": 82}, {"time": 2679, "pitch": 59, "duration": 10, "velocity": 91}, {"time": 2679, "pitch": 63, "duration": 10, "velocity": 90}, {"time": 2685, "pitch": 56, "duration": 7, "velocity": 88}, {"time": 2691, "pitch": 59, "duration": 7, "velocity": 85}, {"time": 2697, "pitch": 56, "duration": 6, "velocity": 90}, {"time": 2703, "pitch": 59, "duration": 8, "velocity": 91}, {"time": 2703, "pitch": 63, "duration": 8, "velocity": 95}, {"time": 2709, "pitch": 56, "duration": 6, "velocity": 90}, {"time": 2715, "pitch": 40, "duration": 20, "velocity": 83}, {"time": 2721, "pitch": 47, "duration": 14, "velocity": 90}, {"time": 2727, "pitch": 56, "duration": 12, "velocity": 88}, {"time": 2727, "pitch": 59, "duration": 14, "velocity": 91}, {"time": 2733, "pitch": 52, "duration": 7, "velocity": 85}, {"time": 2739, "pitch": 42, "duration": 21, "velocity": 91}, {"time": 2745, "pitch": 49, "duration": 14, "velocity": 80}, {"time": 2751, "pitch": 58, "duration": 8, "velocity": 90}, {"time": 2751, "pitch": 61, "duration": 10, "velocity": 88}, {"time": 2757, "pitch": 54, "duration": 8, "velocity": 92}, {"time": 2763, "pitch": 47, "duration": 41, "velocity": 99}, {"time": 2769, "pitch": 54, "duration": 7, "velocity": 95}, {"time": 2775, "pitch": 59, "duration": 7, "velocity": 92}, {"time": 2781, "pitch": 54, "duration": 7, "velocity": 91}, {"time": 2787, "pitch": 59, "duration": 7, "velocity": 93}, {"time": 2787, "pitch": 63, "duration": 7, "velocity": 95}, {"time": 2793, "pitch": 54, "duration": 7, "velocity": 91}, {"time": 2799, "pitch": 59, "duration": 15, "velocity": 93}, {"time": 2805, "pitch": 42, "duration": 4, "velocity": 85}, {"time": 2811, "pitch": 40, "duration": 20, "velocity": 91}, {"time": 2817, "pitch": 47, "duration": 15, "velocity": 86}, {"time": 2823, "pitch": 56, "duration": 12, "velocity": 90}, {"time": 2823, "pitch": 59, "duration": 13, "velocity": 91}, {"time": 2829, "pitch": 52, "duration": 5, "velocity": 90}, {"time": 2835, "pitch": 42, "duration": 21, "velocity": 92}, {"time": 2841, "pitch": 49, "duration": 15, "velocity": 82}, {"time": 2847, "pitch": 58, "duration": 7, "velocity": 90}, {"time": 2847, "pitch": 61, "duration": 8, "velocity": 90}, {"time": 2853, "pitch": 54, "duration": 3, "velocity": 95}, {"time": 2859, "pitch": 47, "duration": 13, "velocity": 95}, {"time": 2859, "pitch": 59, "duration": 7, "velocity": 92}, {"time": 2865, "pitch": 54, "duration": 7, "velocity": 93}, {"time": 2871, "pitch": 46, "duration": 10, "velocity": 95}, {"time": 2871, "pitch": 58, "duration": 10, "velocity": 92}, {"time": 2877, "pitch": 54, "duration": 4, "velocity": 90}, {"time": 2883, "pitch": 44, "duration": 18, "velocity": 92}, {"time": 2883, "pitch": 56, "duration": 9, "velocity": 84}, {"time": 2883, "pitch": 59, "duration": 9, "velocity": 87}, {"time": 2889, "pitch": 51, "duration": 11, "velocity": 86}, {"time": 2895, "pitch": 59, "duration": 12, "velocity": 91}, {"time": 2895, "pitch": 63, "duration": 25, "velocity": 93}, {"time": 2901, "pitch": 56, "duration": 6, "velocity": 84}, {"time": 2907, "pitch": 40, "duration": 22, "velocity": 91}, {"time": 2913, "pitch": 47, "duration": 16, "velocity": 86}, {"time": 2919, "pitch": 52, "duration": 8, "velocity": 91}, {"time": 2925, "pitch": 56, "duration": 6, "velocity": 92}, {"time": 2931, "pitch": 42, "duration": 21, "velocity": 91}, {"time": 2931, "pitch": 54, "duration": 9, "velocity": 86}, {"time": 2931, "pitch": 58, "duration": 12, "velocity": 87}, {"time": 2937, "pitch": 49, "duration": 14, "velocity": 85}, {"time": 2943, "pitch": 54, "duration": 9, "velocity": 92}, {"time": 2955, "pitch": 47, "duration": 46, "velocity": 94}, {"time": 2955, "pitch": 54, "duration": 8, "velocity": 90}, {"time": 2955, "pitch": 59, "duration": 14, "velocity": 87}, {"time": 2961, "pitch": 51, "duration": 40, "velocity": 79}, {"time": 2967, "pitch": 54, "duration": 11, "velocity": 99}, {"time": 2979, "pitch": 54, "duration": 2, "velocity": 81}, {"time": 2979, "pitch": 59, "duration": 10, "velocity": 91}, {"time": 2979, "pitch": 63, "duration": 10, "velocity": 90}, {"time": 2991, "pitch": 59, "duration": 10, "velocity": 90}, {"time": 2997, "pitch": 54, "duration": 5, "velocity": 95}, {"time": 3003, "pitch": 47, "duration": 15, "velocity": 92}, {"time": 3003, "pitch": 63, "duration": 6, "velocity": 90}, {"time": 3003, "pitch": 66, "duration": 7, "velocity": 88}, {"time": 3003, "pitch": 71, "duration": 6, "velocity": 88}, {"time": 3009, "pitch": 54, "duration": 8, "velocity": 84}, {"time": 3009, "pitch": 59, "duration": 4, "velocity": 78}, {"time": 3015, "pitch": 63, "duration": 5, "velocity": 95}, {"time": 3015, "pitch": 66, "duration": 5, "velocity": 92}, {"time": 3021, "pitch": 59, "duration": 2, "velocity": 90}, {"time": 3027, "pitch": 42, "duration": 18, "velocity": 90}, {"time": 3027, "pitch": 58, "duration": 6, "velocity": 81}, {"time": 3027, "pitch": 61, "duration": 8, "velocity": 86}, {"time": 3033, "pitch": 49, "duration": 13, "velocity": 88}, {"time": 3033, "pitch": 58, "duration": 2, "velocity": 51}, {"time": 3039, "pitch": 61, "duration": 7, "velocity": 90}, {"time": 3039, "pitch": 66, "duration": 7, "velocity": 91}, {"time": 3045, "pitch": 58, "duration": 3, "velocity": 90}, {"time": 3051, "pitch": 44, "duration": 21, "velocity": 90}, {"time": 3051, "pitch": 56, "duration": 9, "velocity": 78}, {"time": 3051, "pitch": 59, "duration": 7, "velocity": 84}, {"time": 3057, "pitch": 51, "duration": 14, "velocity": 85}, {"time": 3063, "pitch": 59, "duration": 7, "velocity": 92}, {"time": 3063, "pitch": 63, "duration": 7, "velocity": 95}, {"time": 3063, "pitch": 68, "duration": 7, "velocity": 90}, {"time": 3069, "pitch": 56, "duration": 2, "velocity": 92}, {"time": 3075, "pitch": 51, "duration": 15, "velocity": 91}, {"time": 3075, "pitch": 58, "duration": 4, "velocity": 88}, {"time": 3075, "pitch": 63, "duration": 8, "velocity": 92}, {"time": 3081, "pitch": 58, "duration": 7, "velocity": 94}, {"time": 3087, "pitch": 63, "duration": 5, "velocity": 95}, {"time": 3087, "pitch": 66, "duration": 5, "velocity": 92}, {"time": 3093, "pitch": 58, "duration": 2, "velocity": 92}, {"time": 3099, "pitch": 40, "duration": 17, "velocity": 92}, {"time": 3099, "pitch": 52, "duration": 6, "velocity": 86}, {"time": 3099, "pitch": 56, "duration": 8, "velocity": 81}, {"time": 3105, "pitch": 47, "duration": 11, "velocity": 86}, {"time": 3111, "pitch": 56, "duration": 7, "velocity": 84}, {"time": 3111, "pitch": 59, "duration": 7, "velocity": 94}, {"time": 3111, "pitch": 64, "duration": 10, "velocity": 91}, {"time": 3117, "pitch": 52, "duration": 3, "velocity": 89}, {"time": 3123, "pitch": 47, "duration": 19, "velocity": 91}, {"time": 3123, "pitch": 54, "duration": 3, "velocity": 90}, {"time": 3123, "pitch": 59, "duration": 8, "velocity": 89}, {"time": 3129, "pitch": 54, "duration": 7, "velocity": 91}, {"time": 3135, "pitch": 59, "duration": 7, "velocity": 92}, {"time": 3135, "pitch": 63, "duration": 7, "velocity": 95}, {"time": 3141, "pitch": 54, "duration": 3, "velocity": 91}, {"time": 3147, "pitch": 37, "duration": 16, "velocity": 92}, {"time": 3147, "pitch": 61, "duration": 8, "velocity": 90}, {"time": 3147, "pitch": 65, "duration": 8, "velocity": 91}, {"time": 3153, "pitch": 56, "duration": 3, "velocity": 85}, {"time": 3159, "pitch": 56, "duration": 2, "velocity": 87}, {"time": 3159, "pitch": 61, "duration": 14, "velocity": 91}, {"time": 3159, "pitch": 65, "duration": 14, "velocity": 90}, {"time": 3165, "pitch": 56, "duration": 9, "velocity": 89}, {"time": 3171, "pitch": 42, "duration": 21, "velocity": 91}, {"time": 3177, "pitch": 49, "duration": 14, "velocity": 87}, {"time": 3183, "pitch": 54, "duration": 3, "velocity": 91}, {"time": 3183, "pitch": 58, "duration": 5, "velocity": 92}, {"time": 3183, "pitch": 61, "duration": 7, "velocity": 93}, {"time": 3189, "pitch": 54, "duration": 6, "velocity": 96}, {"time": 3189, "pitch": 58, "duration": 1, "velocity": 68}, {"time": 3195, "pitch": 47, "duration": 14, "velocity": 92}, {"time": 3195, "pitch": 63, "duration": 7, "velocity": 90}, {"time": 3195, "pitch": 66, "duration": 7, "velocity": 88}, {"time": 3201, "pitch": 54, "duration": 7, "velocity": 80}, {"time": 3201, "pitch": 59, "duration": 4, "velocity": 84}, {"time": 3207, "pitch": 63, "duration": 8, "velocity": 92}, {"time": 3207, "pitch": 66, "duration": 8, "velocity": 90}, {"time": 3213, "pitch": 59, "duration": 6, "velocity": 85}, {"time": 3219, "pitch": 51, "duration": 14, "velocity": 97}, {"time": 3219, "pitch": 63, "duration": 7, "velocity": 90}, {"time": 3219, "pitch": 66, "duration": 7, "velocity": 91}, {"time": 3225, "pitch": 58, "duration": 7, "velocity": 92}, {"time": 3231, "pitch": 63, "duration": 4, "velocity": 92}, {"time": 3231, "pitch": 66, "duration": 5, "velocity": 94}, {"time": 3237, "pitch": 58, "duration": 3, "velocity": 94}, {"time": 3243, "pitch": 44, "duration": 20, "velocity": 90}, {"time": 3243, "pitch": 56, "duration": 4, "velocity": 85}, {"time": 3243, "pitch": 59, "duration": 7, "velocity": 90}, {"time": 3243, "pitch": 63, "duration": 7, "velocity": 90}, {"time": 3249, "pitch": 56, "duration": 6, "velocity": 88}, {"time": 3255, "pitch": 59, "duration": 7, "velocity": 90}, {"time": 3255, "pitch": 63, "duration": 6, "velocity": 95}, {"time": 3261, "pitch": 56, "duration": 3, "velocity": 92}, {"time": 3267, "pitch": 42, "duration": 21, "velocity": 90}, {"time": 3267, "pitch": 54, "duration": 8, "velocity": 86}, {"time": 3267, "pitch": 58, "duration": 7, "velocity": 81}, {"time": 3267, "pitch": 61, "duration": 8, "velocity": 81}, {"time": 3273, "pitch": 49, "duration": 14, "velocity": 80}, {"time": 3279, "pitch": 58, "duration": 6, "velocity": 92}, {"time": 3279, "pitch": 61, "duration": 7, "velocity": 86}, {"time": 3285, "pitch": 54, "duration": 3, "velocity": 91}, {"time": 3291, "pitch": 40, "duration": 21, "velocity": 91}, {"time": 3291, "pitch": 52, "duration": 11, "velocity": 89}, {"time": 3291, "pitch": 56, "duration": 7, "velocity": 86}, {"time": 3297, "pitch": 47, "duration": 14, "velocity": 82}, {"time": 3303, "pitch": 56, "duration": 9, "velocity": 88}, {"time": 3303, "pitch": 59, "duration": 10, "velocity": 90}, {"time": 3303, "pitch": 64, "duration": 11, "velocity": 89}, {"time": 3309, "pitch": 52, "duration": 3, "velocity": 92}, {"time": 3315, "pitch": 47, "duration": 15, "velocity": 94}, {"time": 3315, "pitch": 59, "duration": 1, "velocity": 73}, {"time": 3315, "pitch": 63, "duration": 7, "velocity": 91}, {"time": 3315, "pitch": 66, "duration": 7, "velocity": 88}, {"time": 3321, "pitch": 54, "duration": 8, "velocity": 83}, {"time": 3327, "pitch": 63, "duration": 6, "velocity": 94}, {"time": 3327, "pitch": 66, "duration": 7, "velocity": 91}, {"time": 3333, "pitch": 59, "duration": 8, "velocity": 91}, {"time": 3339, "pitch": 40, "duration": 18, "velocity": 90}, {"time": 3339, "pitch": 64, "duration": 7, "velocity": 85}, {"time": 3339, "pitch": 68, "duration": 8, "velocity": 85}, {"time": 3345, "pitch": 59, "duration": 3, "velocity": 89}, {"time": 3351, "pitch": 64, "duration": 7, "velocity": 93}, {"time": 3351, "pitch": 68, "duration": 7, "velocity": 96}, {"time": 3357, "pitch": 59, "duration": 3, "velocity": 92}, {"time": 3363, "pitch": 42, "duration": 17, "velocity": 90}, {"time": 3363, "pitch": 61, "duration": 4, "velocity": 88}, {"time": 3363, "pitch": 66, "duration": 8, "velocity": 86}, {"time": 3363, "pitch": 70, "duration": 7, "velocity": 90}, {"time": 3369, "pitch": 49, "duration": 11, "velocity": 83}, {"time": 3369, "pitch": 61, "duration": 4, "velocity": 89}, {"time": 3375, "pitch": 61, "duration": 2, "velocity": 91}, {"time": 3375, "pitch": 66, "duration": 7, "velocity": 91}, {"time": 3381, "pitch": 61, "duration": 3, "velocity": 90}, {"time": 3387, "pitch": 47, "duration": 15, "velocity": 94}, {"time": 3387, "pitch": 59, "duration": 4, "velocity": 90}, {"time": 3387, "pitch": 63, "duration": 8, "velocity": 92}, {"time": 3387, "pitch": 66, "duration": 8, "velocity": 86}, {"time": 3393, "pitch": 54, "duration": 8, "velocity": 90}, {"time": 3393, "pitch": 59, "duration": 2, "velocity": 65}, {"time": 3399, "pitch": 63, "duration": 6, "velocity": 96}, {"time": 3399, "pitch": 66, "duration": 6, "velocity": 93}, {"time": 3405, "pitch": 59, "duration": 2, "velocity": 92}, {"time": 3411, "pitch": 40, "duration": 23, "velocity": 90}, {"time": 3411, "pitch": 52, "duration": 9, "velocity": 90}, {"time": 3411, "pitch": 56, "duration": 8, "velocity": 90}, {"time": 3411, "pitch": 59, "duration": 9, "velocity": 92}, {"time": 3417, "pitch": 47, "duration": 17, "velocity": 87}, {"time": 3423, "pitch": 56, "duration": 11, "velocity": 97}, {"time": 3423, "pitch": 59, "duration": 11, "velocity": 94}, {"time": 3429, "pitch": 52, "duration": 5, "velocity": 94}, {"time": 3435, "pitch": 40, "duration": 7, "velocity": 92}, {"time": 3435, "pitch": 52, "duration": 6, "velocity": 89}, {"time": 3435, "pitch": 64, "duration": 6, "velocity": 90}, {"time": 3441, "pitch": 47, "duration": 2, "velocity": 90}, {"time": 3447, "pitch": 41, "duration": 7, "velocity": 101}, {"time": 3447, "pitch": 53, "duration": 6, "velocity": 93}, {"time": 3447, "pitch": 65, "duration": 7, "velocity": 85}, {"time": 3453, "pitch": 48, "duration": 3, "velocity": 79}, {"time": 3459, "pitch": 43, "duration": 16, "velocity": 106}, {"time": 3459, "pitch": 55, "duration": 9, "velocity": 91}, {"time": 3459, "pitch": 67, "duration": 5, "velocity": 90}, {"time": 3465, "pitch": 50, "duration": 8, "velocity": 92}, {"time": 3471, "pitch": 55, "duration": 4, "velocity": 93}, {"time": 3471, "pitch": 59, "duration": 7, "velocity": 97}, {"time": 3471, "pitch": 62, "duration": 10, "velocity": 95}, {"time": 3471, "pitch": 67, "duration": 10, "velocity": 94}, {"time": 3477, "pitch": 50, "duration": 6, "velocity": 97}, {"time": 3483, "pitch": 48, "duration": 15, "velocity": 92}, {"time": 3483, "pitch": 64, "duration": 6, "velocity": 90}, {"time": 3483, "pitch": 67, "duration": 7, "velocity": 88}, {"time": 3483, "pitch": 72, "duration": 6, "velocity": 88}, {"time": 3489, "pitch": 55, "duration": 8, "velocity": 84}, {"time": 3489, "pitch": 60, "duration": 4, "velocity": 78}, {"time": 3495, "pitch": 64, "duration": 5, "velocity": 95}, {"time": 3495, "pitch": 67, "duration": 5, "velocity": 92}, {"time": 3501, "pitch": 60, "duration": 2, "velocity": 90}, {"time": 3507, "pitch": 43, "duration": 18, "velocity": 90}, {"time": 3507, "pitch": 59, "duration": 6, "velocity": 81}, {"time": 3507, "pitch": 62, "duration": 8, "velocity": 86}, {"time": 3513, "pitch": 50, "duration": 13, "velocity": 88}, {"time": 3513, "pitch": 59, "duration": 2, "velocity": 51}, {"time": 3519, "pitch": 62, "duration": 7, "velocity": 90}, {"time": 3519, "pitch": 67, "duration": 7, "velocity": 91}, {"time": 3525, "pitch": 59, "duration": 3, "velocity": 90}, {"time": 3531, "pitch": 45, "duration": 21, "velocity": 90}, {"time": 3531, "pitch": 57, "duration": 9, "velocity": 78}, {"time": 3531, "pitch": 60, "duration": 7, "velocity": 84}, {"time": 3537, "pitch": 52, "duration": 14, "velocity": 85}, {"time": 3543, "pitch": 60, "duration": 7, "velocity": 92}, {"time": 3543, "pitch": 64, "duration": 7, "velocity": 95}, {"time": 3543, "pitch": 69, "duration": 7, "velocity": 90}, {"time": 3549, "pitch": 57, "duration": 2, "velocity": 92}, {"time": 3555, "pitch": 52, "duration": 15, "velocity": 91}, {"time": 3555, "pitch": 59, "duration": 4, "velocity": 88}, {"time": 3555, "pitch": 64, "duration": 8, "velocity": 92}, {"time": 3561, "pitch": 59, "duration": 7, "velocity": 94}, {"time": 3567, "pitch": 64, "duration": 5, "velocity": 95}, {"time": 3567, "pitch": 67, "duration": 5, "velocity": 92}, {"time": 3573, "pitch": 59, "duration": 2, "velocity": 92}, {"time": 3579, "pitch": 41, "duration": 17, "velocity": 92}, {"time": 3579, "pitch": 53, "duration": 6, "velocity": 86}, {"time": 3579, "pitch": 57, "duration": 8, "velocity": 81}, {"time": 3585, "pitch": 48, "duration": 11, "velocity": 86}, {"time": 3591, "pitch": 57, "duration": 7, "velocity": 84}, {"time": 3591, "pitch": 60, "duration": 7, "velocity": 94}, {"time": 3591, "pitch": 65, "duration": 10, "velocity": 91}, {"time": 3597, "pitch": 53, "duration": 3, "velocity": 89}, {"time": 3603, "pitch": 48, "duration": 19, "velocity": 91}, {"time": 3603, "pitch": 55, "duration": 3, "velocity": 90}, {"time": 3603, "pitch": 60, "duration": 8, "velocity": 89}, {"time": 3609, "pitch": 55, "duration": 7, "velocity": 91}, {"time": 3615, "pitch": 60, "duration": 7, "velocity": 92}, {"time": 3615, "pitch": 64, "duration": 7, "velocity": 95}, {"time": 3621, "pitch": 55, "duration": 3, "velocity": 91}, {"time": 3627, "pitch": 38, "duration": 16, "velocity": 92}, {"time": 3627, "pitch": 62, "duration": 8, "velocity": 90}, {"time": 3627, "pitch": 66, "duration": 8, "velocity": 91}, {"time": 3633, "pitch": 57, "duration": 3, "velocity": 85}, {"time": 3639, "pitch": 57, "duration": 2, "velocity": 87}, {"time": 3639, "pitch": 62, "duration": 14, "velocity": 91}, {"time": 3639, "pitch": 66, "duration": 14, "velocity": 90}, {"time": 3645, "pitch": 57, "duration": 9, "velocity": 89}, {"time": 3651, "pitch": 43, "duration": 21, "velocity": 91}, {"time": 3657, "pitch": 50, "duration": 14, "velocity": 87}, {"time": 3663, "pitch": 55, "duration": 3, "velocity": 91}, {"time": 3663, "pitch": 59, "duration": 5, "velocity": 92}, {"time": 3663, "pitch": 62, "duration": 7, "velocity": 93}, {"time": 3669, "pitch": 55, "duration": 6, "velocity": 96}, {"time": 3669, "pitch": 59, "duration": 1, "velocity": 68}, {"time": 3675, "pitch": 48, "duration": 14, "velocity": 92}, {"time": 3675, "pitch": 64, "duration": 7, "velocity": 90}, {"time": 3675, "pitch": 67, "duration": 7, "velocity": 88}, {"time": 3681, "pitch": 55, "duration": 7, "velocity": 80}, {"time": 3681, "pitch": 60, "duration": 4, "velocity": 84}, {"time": 3687, "pitch": 64, "duration": 8, "velocity": 92}, {"time": 3687, "pitch": 67, "duration": 8, "velocity": 90}, {"time": 3693, "pitch": 60, "duration": 6, "velocity": 85}, {"time": 3699, "pitch": 52, "duration": 14, "velocity": 97}, {"time": 3699, "pitch": 64, "duration": 7, "velocity": 90}, {"time": 3699, "pitch": 67, "duration": 7, "velocity": 91}, {"time": 3705, "pitch": 59, "duration": 7, "velocity": 92}, {"time": 3711, "pitch": 64, "duration": 4, "velocity": 92}, {"time": 3711, "pitch": 67, "duration": 5, "velocity": 94}, {"time": 3717, "pitch": 59, "duration": 3, "velocity": 94}, {"time": 3723, "pitch": 45, "duration": 20, "velocity": 90}, {"time": 3723, "pitch": 57, "duration": 4, "velocity": 85}, {"time": 3723, "pitch": 60, "duration": 7, "velocity": 90}, {"time": 3723, "pitch": 64, "duration": 7, "velocity": 90}, {"time": 3729, "pitch": 57, "duration": 6, "velocity": 88}, {"time": 3735, "pitch": 60, "duration": 7, "velocity": 90}, {"time": 3735, "pitch": 64, "duration": 6, "velocity": 95}, {"time": 3741, "pitch": 57, "duration": 3, "velocity": 92}, {"time": 3747, "pitch": 43, "duration": 21, "velocity": 90}, {"time": 3747, "pitch": 55, "duration": 8, "velocity": 86}, {"time": 3747, "pitch": 59, "duration": 7, "velocity": 81}, {"time": 3747, "pitch": 62, "duration": 8, "velocity": 81}, {"time": 3753, "pitch": 50, "duration": 14, "velocity": 80}, {"time": 3759, "pitch": 59, "duration": 6, "velocity": 92}, {"time": 3759, "pitch": 62, "duration": 7, "velocity": 86}, {"time": 3765, "pitch": 55, "duration": 3, "velocity": 91}, {"time": 3771, "pitch": 41, "duration": 21, "velocity": 91}, {"time": 3771, "pitch": 53, "duration": 11, "velocity": 89}, {"time": 3771, "pitch": 57, "duration": 7, "velocity": 86}, {"time": 3777, "pitch": 48, "duration": 14, "velocity": 82}, {"time": 3783, "pitch": 57, "duration": 9, "velocity": 88}, {"time": 3783, "pitch": 60, "duration": 10, "velocity": 90}, {"time": 3783, "pitch": 65, "duration": 11, "velocity": 89}, {"time": 3789, "pitch": 53, "duration": 3, "velocity": 92}, {"time": 3795, "pitch": 48, "duration": 15, "velocity": 94}, {"time": 3795, "pitch": 60, "duration": 1, "velocity": 73}, {"time": 3795, "pitch": 64, "duration": 7, "velocity": 91}, {"time": 3795, "pitch": 67, "duration": 7, "velocity": 88}, {"time": 3801, "pitch": 55, "duration": 8, "velocity": 83}, {"time": 3807, "pitch": 64, "duration": 6, "velocity": 94}, {"time": 3807, "pitch": 67, "duration": 7, "velocity": 91}, {"time": 3813, "pitch": 60, "duration": 8, "velocity": 91}, {"time": 3819, "pitch": 41, "duration": 18, "velocity": 90}, {"time": 3819, "pitch": 65, "duration": 7, "velocity": 85}, {"time": 3819, "pitch": 69, "duration": 8, "velocity": 85}, {"time": 3825, "pitch": 60, "duration": 3, "velocity": 89}, {"time": 3831, "pitch": 65, "duration": 7, "velocity": 93}, {"time": 3831, "pitch": 69, "duration": 7, "velocity": 96}, {"time": 3837, "pitch": 60, "duration": 3, "velocity": 92}, {"time": 3843, "pitch": 43, "duration": 17, "velocity": 90}, {"time": 3843, "pitch": 62, "duration": 4, "velocity": 88}, {"time": 3843, "pitch": 67, "duration": 8, "velocity": 86}, {"time": 3843, "pitch": 71, "duration": 7, "velocity": 90}, {"time": 3849, "pitch": 50, "duration": 11, "velocity": 83}, {"time": 3849, "pitch": 62, "duration": 4, "velocity": 89}, {"time": 3855, "pitch": 62, "duration": 2, "velocity": 91}, {"time": 3855, "pitch": 67, "duration": 7, "velocity": 91}, {"time": 3861, "pitch": 62, "duration": 3, "velocity": 90}, {"time": 3867, "pitch": 48, "duration": 15, "velocity": 92}, {"time": 3867, "pitch": 64, "duration": 6, "velocity": 90}, {"time": 3867, "pitch": 67, "duration": 7, "velocity": 88}, {"time": 3867, "pitch": 72, "duration": 6, "velocity": 88}, {"time": 3873, "pitch": 55, "duration": 8, "velocity": 84}, {"time": 3873, "pitch": 60, "duration": 4, "velocity": 78}, {"time": 3879, "pitch": 64, "duration": 5, "velocity": 95}, {"time": 3879, "pitch": 67, "duration": 5, "velocity": 92}, {"time": 3885, "pitch": 60, "duration": 2, "velocity": 90}, {"time": 3891, "pitch": 43, "duration": 18, "velocity": 90}, {"time": 3891, "pitch": 59, "duration": 6, "velocity": 81}, {"time": 3891, "pitch": 62, "duration": 8, "velocity": 86}, {"time": 3897, "pitch": 50, "duration": 13, "velocity": 88}, {"time": 3897, "pitch": 59, "duration": 2, "velocity": 51}, {"time": 3903, "pitch": 62, "duration": 7, "velocity": 90}, {"time": 3903, "pitch": 67, "duration": 7, "velocity": 91}, {"time": 3909, "pitch": 59, "duration": 3, "velocity": 90}, {"time": 3915, "pitch": 45, "duration": 21, "velocity": 90}, {"time": 3915, "pitch": 57, "duration": 9, "velocity": 78}, {"time": 3915, "pitch": 60, "duration": 7, "velocity": 84}, {"time": 3921, "pitch": 52, "duration": 14, "velocity": 85}, {"time": 3927, "pitch": 60, "duration": 7, "velocity": 92}, {"time": 3927, "pitch": 64, "duration": 7, "velocity": 95}, {"time": 3927, "pitch": 69, "duration": 7, "velocity": 90}, {"time": 3933, "pitch": 57, "duration": 2, "velocity": 92}, {"time": 3939, "pitch": 52, "duration": 15, "velocity": 91}, {"time": 3939, "pitch": 59, "duration": 4, "velocity": 88}, {"time": 3939, "pitch": 64, "duration": 8, "velocity": 92}, {"time": 3945, "pitch": 59, "duration": 7, "velocity": 94}, {"time": 3951, "pitch": 64, "duration": 5, "velocity": 95}, {"time": 3951, "pitch": 67, "duration": 5, "velocity": 92}, {"time": 3957, "pitch": 59, "duration": 2, "velocity": 92}, {"time": 3963, "pitch": 41, "duration": 17, "velocity": 92}, {"time": 3963, "pitch": 53, "duration": 6, "velocity": 86}, {"time": 3963, "pitch": 57, "duration": 8, "velocity": 81}, {"time": 3969, "pitch": 48, "duration": 11, "velocity": 86}, {"time": 3975, "pitch": 57, "duration": 7, "velocity": 84}, {"time": 3975, "pitch": 60, "duration": 7, "velocity": 94}, {"time": 3975, "pitch": 65, "duration": 10, "velocity": 91}, {"time": 3981, "pitch": 53, "duration": 3, "velocity": 89}, {"time": 3987, "pitch": 48, "duration": 19, "velocity": 91}, {"time": 3987, "pitch": 55, "duration": 3, "velocity": 90}, {"time": 3987, "pitch": 60, "duration": 8, "velocity": 89}, {"time": 3993, "pitch": 55, "duration": 7, "velocity": 91}, {"time": 3999, "pitch": 60, "duration": 7, "velocity": 92}, {"time": 3999, "pitch": 64, "duration": 7, "velocity": 95}, {"time": 4005, "pitch": 55, "duration": 3, "velocity": 91}, {"time": 4011, "pitch": 38, "duration": 16, "velocity": 92}, {"time": 4011, "pitch": 62, "duration": 8, "velocity": 90}, {"time": 4011, "pitch": 66, "duration": 8, "velocity": 91}, {"time": 4017, "pitch": 57, "duration": 3, "velocity": 85}, {"time": 4023, "pitch": 57, "duration": 2, "velocity": 87}, {"time": 4023, "pitch": 62, "duration": 14, "velocity": 91}, {"time": 4023, "pitch": 66, "duration": 14, "velocity": 90}, {"time": 4029, "pitch": 57, "duration": 9, "velocity": 89}, {"time": 4035, "pitch": 43, "duration": 21, "velocity": 91}, {"time": 4041, "pitch": 50, "duration": 14, "velocity": 87}, {"time": 4047, "pitch": 55, "duration": 3, "velocity": 91}, {"time": 4047, "pitch": 59, "duration": 5, "velocity": 92}, {"time": 4047, "pitch": 62, "duration": 7, "velocity": 93}, {"time": 4053, "pitch": 55, "duration": 6, "velocity": 96}, {"time": 4053, "pitch": 59, "duration": 1, "velocity": 68}, {"time": 4059, "pitch": 48, "duration": 14, "velocity": 92}, {"time": 4059, "pitch": 64, "duration": 7, "velocity": 90}, {"time": 4059, "pitch": 67, "duration": 7, "velocity": 88}, {"time": 4065, "pitch": 55, "duration": 7, "velocity": 80}, {"time": 4065, "pitch": 60, "duration": 4, "velocity": 84}, {"time": 4071, "pitch": 64, "duration": 8, "velocity": 92}, {"time": 4071, "pitch": 67, "duration": 8, "velocity": 90}, {"time": 4077, "pitch": 60, "duration": 6, "velocity": 85}, {"time": 4083, "pitch": 52, "duration": 14, "velocity": 97}, {"time": 4083, "pitch": 64, "duration": 7, "velocity": 90}, {"time": 4083, "pitch": 67, "duration": 7, "velocity": 91}, {"time": 4089, "pitch": 59, "duration": 7, "velocity": 92}, {"time": 4095, "pitch": 64, "duration": 4, "velocity": 92}, {"time": 4095, "pitch": 67, "duration": 5, "velocity": 94}, {"time": 4101, "pitch": 59, "duration": 3, "velocity": 94}, {"time": 4107, "pitch": 45, "duration": 20, "velocity": 90}, {"time": 4107, "pitch": 57, "duration": 4, "velocity": 85}, {"time": 4107, "pitch": 60, "duration": 7, "velocity": 90}, {"time": 4107, "pitch": 64, "duration": 7, "velocity": 90}, {"time": 4113, "pitch": 57, "duration": 6, "velocity": 88}, {"time": 4119, "pitch": 60, "duration": 7, "velocity": 90}, {"time": 4119, "pitch": 64, "duration": 6, "velocity": 95}, {"time": 4125, "pitch": 57, "duration": 3, "velocity": 92}, {"time": 4131, "pitch": 43, "duration": 21, "velocity": 90}, {"time": 4131, "pitch": 55, "duration": 8, "velocity": 86}, {"time": 4131, "pitch": 59, "duration": 7, "velocity": 81}, {"time": 4131, "pitch": 62, "duration": 8, "velocity": 81}, {"time": 4137, "pitch": 50, "duration": 14, "velocity": 80}, {"time": 4143, "pitch": 59, "duration": 6, "velocity": 92}, {"time": 4143, "pitch": 62, "duration": 7, "velocity": 86}, {"time": 4149, "pitch": 55, "duration": 3, "velocity": 91}, {"time": 4155, "pitch": 41, "duration": 21, "velocity": 91}, {"time": 4155, "pitch": 53, "duration": 11, "velocity": 89}, {"time": 4155, "pitch": 57, "duration": 7, "velocity": 86}, {"time": 4161, "pitch": 48, "duration": 14, "velocity": 82}, {"time": 4167, "pitch": 57, "duration": 9, "velocity": 88}, {"time": 4167, "pitch": 60, "duration": 10, "velocity": 90}, {"time": 4167, "pitch": 65, "duration": 11, "velocity": 89}, {"time": 4173, "pitch": 53, "duration": 3, "velocity": 92}, {"time": 4179, "pitch": 48, "duration": 15, "velocity": 94}, {"time": 4179, "pitch": 60, "duration": 1, "velocity": 73}, {"time": 4179, "pitch": 64, "duration": 7, "velocity": 91}, {"time": 4179, "pitch": 67, "duration": 7, "velocity": 88}, {"time": 4185, "pitch": 55, "duration": 8, "velocity": 83}, {"time": 4191, "pitch": 64, "duration": 6, "velocity": 94}, {"time": 4191, "pitch": 67, "duration": 7, "velocity": 91}, {"time": 4197, "pitch": 60, "duration": 8, "velocity": 91}, {"time": 4203, "pitch": 36, "duration": 2, "velocity": 90}, {"time": 4203, "pitch": 60, "duration": 2, "velocity": 73}, {"time": 4203, "pitch": 64, "duration": 12, "velocity": 85}, {"time": 4203, "pitch": 67, "duration": 14, "velocity": 76}, {"time": 4209, "pitch": 48, "duration": 26, "velocity": 87}, {"time": 4215, "pitch": 55, "duration": 25, "velocity": 85}, {"time": 4221, "pitch": 60, "duration": 8, "velocity": 97}, {"time": 4227, "pitch": 64, "duration": 6, "velocity": 77}, {"time": 4227, "pitch": 67, "duration": 7, "velocity": 83}, {"time": 4227, "pitch": 72, "duration": 8, "velocity": 90}, {"time": 4233, "pitch": 60, "duration": 10, "velocity": 95}, {"time": 4239, "pitch": 64, "duration": 11, "velocity": 88}, {"time": 4239, "pitch": 67, "duration": 11, "velocity": 86}, {"time": 4245, "pitch": 60, "duration": 5, "velocity": 91}, {"time": 4251, "pitch": 41, "duration": 17, "velocity": 92}, {"time": 4251, "pitch": 53, "duration": 17, "velocity": 80}, {"time": 4251, "pitch": 57, "duration": 19, "velocity": 78}, {"time": 4257, "pitch": 48, "duration": 13, "velocity": 83}, {"time": 4263, "pitch": 60, "duration": 10, "velocity": 90}, {"time": 4269, "pitch": 65, "duration": 9, "velocity": 90}, {"time": 4275, "pitch": 43, "duration": 12, "velocity": 99}, {"time": 4281, "pitch": 50, "duration": 7, "velocity": 83}, {"time": 4287, "pitch": 55, "duration": 1, "velocity": 63}, {"time": 4287, "pitch": 59, "duration": 10, "velocity": 86}, {"time": 4287, "pitch": 62, "duration": 11, "velocity": 86}, {"time": 4293, "pitch": 55, "duration": 5, "velocity": 91}, {"time": 4299, "pitch": 48, "duration": 49, "velocity": 94}, {"time": 4305, "pitch": 55, "duration": 43, "velocity": 75}, {"time": 4311, "pitch": 60, "duration": 2, "velocity": 82}, {"time": 4311, "pitch": 64, "duration": 8, "velocity": 85}, {"time": 4317, "pitch": 60, "duration": 7, "velocity": 81}, {"time": 4323, "pitch": 64, "duration": 3, "velocity": 85}, {"time": 4323, "pitch": 67, "duration": 7, "velocity": 78}, {"time": 4329, "pitch": 60, "duration": 7, "velocity": 77}, {"time": 4335, "pitch": 64, "duration": 10, "velocity": 79}, {"time": 4335, "pitch": 67, "duration": 11, "velocity": 79}, {"time": 4335, "pitch": 72, "duration": 12, "velocity": 81}, {"time": 4341, "pitch": 60, "duration": 5, "velocity": 93}, {"time": 4347, "pitch": 41, "duration": 13, "velocity": 94}, {"time": 4347, "pitch": 65, "duration": 7, "velocity": 69}, {"time": 4347, "pitch": 69, "duration": 12, "velocity": 74}, {"time": 4353, "pitch": 48, "duration": 9, "velocity": 78}, {"time": 4359, "pitch": 65, "duration": 7, "velocity": 91}, {"time": 4365, "pitch": 69, "duration": 3, "velocity": 95}, {"time": 4371, "pitch": 43, "duration": 12, "velocity": 97}, {"time": 4377, "pitch": 50, "duration": 7, "velocity": 86}, {"time": 4383, "pitch": 67, "duration": 7, "velocity": 91}, {"time": 4389, "pitch": 74, "duration": 5, "velocity": 81}, {"time": 4395, "pitch": 48, "duration": 46, "velocity": 84}, {"time": 4401, "pitch": 55, "duration": 9, "velocity": 66}, {"time": 4407, "pitch": 60, "duration": 10, "velocity": 96}, {"time": 4407, "pitch": 67, "duration": 1, "velocity": 71}, {"time": 4413, "pitch": 55, "duration": 28, "velocity": 74}, {"time": 4419, "pitch": 60, "duration": 3, "velocity": 85}, {"time": 4419, "pitch": 64, "duration": 7, "velocity": 87}, {"time": 4425, "pitch": 60, "duration": 7, "velocity": 81}, {"time": 4431, "pitch": 64, "duration": 12, "velocity": 91}, {"time": 4431, "pitch": 67, "duration": 12, "velocity": 92}, {"time": 4437, "pitch": 60, "duration": 6, "velocity": 80}, {"time": 4443, "pitch": 48, "duration": 48, "velocity": 92}, {"time": 4443, "pitch": 60, "duration": 1, "velocity": 85}, {"time": 4443, "pitch": 64, "duration": 8, "velocity": 90}, {"time": 4449, "pitch": 55, "duration": 27, "velocity": 83}, {"time": 4455, "pitch": 62, "duration": 7, "velocity": 88}, {"time": 4461, "pitch": 64, "duration": 4, "velocity": 90}, {"time": 4467, "pitch": 60, "duration": 14, "velocity": 85}, {"time": 4467, "pitch": 64, "duration": 21, "velocity": 90}, {"time": 4467, "pitch": 67, "duration": 16, "velocity": 89}, {"time": 4479, "pitch": 55, "duration": 12, "velocity": 86}, {"time": 4485, "pitch": 60, "duration": 5, "velocity": 79}, {"time": 4491, "pitch": 48, "duration": 1, "velocity": 91}, {"time": 4491, "pitch": 60, "duration": 8, "velocity": 91}, {"time": 4491, "pitch": 64, "duration": 9, "velocity": 95}, {"time": 4497, "pitch": 55, "duration": 9, "velocity": 79}, {"time": 4503, "pitch": 60, "duration": 9, "velocity": 97}, {"time": 4509, "pitch": 55, "duration": 10, "velocity": 91}, {"time": 4515, "pitch": 64, "duration": 7, "velocity": 93}, {"time": 4521, "pitch": 55, "duration": 9, "velocity": 66}, {"time": 4527, "pitch": 60, "duration": 2, "velocity": 87}, {"time": 4527, "pitch": 64, "duration": 7, "velocity": 94}, {"time": 4527, "pitch": 67, "duration": 8, "velocity": 90}, {"time": 4533, "pitch": 60, "duration": 3, "velocity": 92}, {"time": 4539, "pitch": 43, "duration": 46, "velocity": 91}, {"time": 4539, "pitch": 59, "duration": 14, "velocity": 87}, {"time": 4539, "pitch": 62, "duration": 10, "velocity": 85}, {"time": 4545, "pitch": 50, "duration": 40, "velocity": 81}, {"time": 4551, "pitch": 62, "duration": 7, "velocity": 89}, {"time": 4557, "pitch": 59, "duration": 8, "velocity": 92}, {"time": 4563, "pitch": 62, "duration": 8, "velocity": 91}, {"time": 4563, "pitch": 67, "duration": 7, "velocity": 86}, {"time": 4569, "pitch": 59, "duration": 3, "velocity": 84}, {"time": 4575, "pitch": 59, "duration": 3, "velocity": 90}, {"time": 4575, "pitch": 62, "duration": 8, "velocity": 91}, {"time": 4581, "pitch": 59, "duration": 8, "velocity": 90}, {"time": 4587, "pitch": 43, "duration": 43, "velocity": 91}, {"time": 4587, "pitch": 62, "duration": 8, "velocity": 86}, {"time": 4587, "pitch": 67, "duration": 7, "velocity": 87}, {"time": 4593, "pitch": 50, "duration": 35, "velocity": 73}, {"time": 4593, "pitch": 59, "duration": 7, "velocity": 84}, {"time": 4599, "pitch": 62, "duration": 6, "velocity": 88}, {"time": 4605, "pitch": 59, "duration": 7, "velocity": 90}, {"time": 4611, "pitch": 62, "duration": 7, "velocity": 90}, {"time": 4611, "pitch": 71, "duration": 6, "velocity": 92}, {"time": 4617, "pitch": 59, "duration": 6, "velocity": 94}, {"time": 4623, "pitch": 62, "duration": 12, "velocity": 84}, {"time": 4623, "pitch": 67, "duration": 13, "velocity": 90}, {"time": 4629, "pitch": 59, "duration": 6, "velocity": 92}, {"time": 4635, "pitch": 48, "duration": 45, "velocity": 92}, {"time": 4641, "pitch": 55, "duration": 10, "velocity": 84}, {"time": 4647, "pitch": 60, "duration": 4, "velocity": 85}, {"time": 4647, "pitch": 64, "duration": 6, "velocity": 90}, {"time": 4647, "pitch": 67, "duration": 6, "velocity": 85}, {"time": 4653, "pitch": 55, "duration": 27, "velocity": 86}, {"time": 4653, "pitch": 60, "duration": 3, "velocity": 73}, {"time": 4659, "pitch": 64, "duration": 6, "velocity": 93}, {"time": 4659, "pitch": 67, "duration": 6, "velocity": 94}, {"time": 4665, "pitch": 60, "duration": 7, "velocity": 94}, {"time": 4671, "pitch": 64, "duration": 7, "velocity": 92}, {"time": 4671, "pitch": 67, "duration": 7, "velocity": 92}, {"time": 4677, "pitch": 60, "duration": 10, "velocity": 91}, {"time": 4683, "pitch": 48, "duration": 41, "velocity": 92}, {"time": 4683, "pitch": 72, "duration": 13, "velocity": 91}, {"time": 4689, "pitch": 55, "duration": 33, "velocity": 69}, {"time": 4689, "pitch": 60, "duration": 17, "velocity": 96}, {"time": 4695, "pitch": 64, "duration": 12, "velocity": 97}, {"time": 4701, "pitch": 67, "duration": 7, "velocity": 83}, {"time": 4707, "pitch": 72, "duration": 8, "velocity": 95}, {"time": 4713, "pitch": 60, "duration": 3, "velocity": 93}, {"time": 4719, "pitch": 60, "duration": 2, "velocity": 94}, {"time": 4719, "pitch": 64, "duration": 7, "velocity": 99}, {"time": 4719, "pitch": 67, "duration": 6, "velocity": 92}, {"time": 4719, "pitch": 72, "duration": 6, "velocity": 90}, {"time": 4725, "pitch": 60, "duration": 2, "velocity": 92}, {"time": 4731, "pitch": 43, "duration": 45, "velocity": 85}, {"time": 4731, "pitch": 55, "duration": 9, "velocity": 90}, {"time": 4731, "pitch": 59, "duration": 9, "velocity": 85}, {"time": 4737, "pitch": 50, "duration": 39, "velocity": 89}, {"time": 4743, "pitch": 59, "duration": 7, "velocity": 85}, {"time": 4743, "pitch": 62, "duration": 7, "velocity": 90}, {"time": 4749, "pitch": 55, "duration": 7, "velocity": 86}, {"time": 4755, "pitch": 59, "duration": 3, "velocity": 90}, {"time": 4755, "pitch": 62, "duration": 6, "velocity": 91}, {"time": 4755, "pitch": 67, "duration": 5, "velocity": 90}, {"time": 4761, "pitch": 55, "duration": 4, "velocity": 88}, {"time": 4767, "pitch": 59, "duration": 7, "velocity": 95}, {"time": 4767, "pitch": 62, "duration": 8, "velocity": 93}, {"time": 4773, "pitch": 55, "duration": 4, "velocity": 90}, {"time": 4779, "pitch": 43, "duration": 45, "velocity": 94}, {"time": 4779, "pitch": 55, "duration": 2, "velocity": 78}, {"time": 4779, "pitch": 59, "duration": 7, "velocity": 90}, {"time": 4779, "pitch": 62, "duration": 7, "velocity": 90}, {"time": 4785, "pitch": 55, "duration": 6, "velocity": 86}, {"time": 4791, "pitch": 59, "duration": 8, "velocity": 76}, {"time": 4791, "pitch": 62, "duration": 8, "velocity": 89}, {"time": 4797, "pitch": 55, "duration": 7, "velocity": 92}, {"time": 4803, "pitch": 59, "duration": 2, "velocity": 91}, {"time": 4803, "pitch": 62, "duration": 1, "velocity": 84}, {"time": 4803, "pitch": 67, "duration": 7, "velocity": 91}, {"time": 4809, "pitch": 55, "duration": 7, "velocity": 91}, {"time": 4809, "pitch": 59, "duration": 2, "velocity": 74}, {"time": 4815, "pitch": 59, "duration": 7, "velocity": 84}, {"time": 4815, "pitch": 65, "duration": 9, "velocity": 96}, {"time": 4821, "pitch": 55, "duration": 8, "velocity": 86}, {"time": 4826, "pitch": 48, "duration": 44, "velocity": 79}, {"time": 4826, "pitch": 60, "duration": 8, "velocity": 78}, {"time": 4826, "pitch": 67, "duration": 8, "velocity": 77}, {"time": 4832, "pitch": 55, "duration": 38, "velocity": 74}, {"time": 4838, "pitch": 60, "duration": 24, "velocity": 91}, {"time": 4844, "pitch": 64, "duration": 10, "velocity": 82}, {"time": 4850, "pitch": 72, "duration": 12, "velocity": 77}, {"time": 4856, "pitch": 67, "duration": 10, "velocity": 79}, {"time": 4862, "pitch": 64, "duration": 8, "velocity": 71}, {"time": 4868, "pitch": 60, "duration": 3, "velocity": 78}, {"time": 4874, "pitch": 48, "duration": 56, "velocity": 82}, {"time": 4874, "pitch": 67, "duration": 9, "velocity": 82}, {"time": 4874, "pitch": 60, "duration": 6, "velocity": 75}, {"time": 4874, "pitch": 64, "duration": 13, "velocity": 80}, {"time": 4880, "pitch": 55, "duration": 51, "velocity": 75}, {"time": 4887, "pitch": 60, "duration": 11, "velocity": 85}, {"time": 4894, "pitch": 64, "duration": 4, "velocity": 87}, {"time": 4907, "pitch": 60, "duration": 5, "velocity": 74}, {"time": 4909, "pitch": 64, "duration": 4, "velocity": 81}, {"time": 4910, "pitch": 67, "duration": 4, "velocity": 77}, {"time": 4913, "pitch": 72, "duration": 7, "velocity": 67}], "annotations": [{"time": 317, "annotation": {"number": 64, "value": 127}, "group": "control_change"}, {"time": 336, "annotation": {"number": 64, "value": 0}, "group": "control_change"}, {"time": 343, "annotation": {"number": 64, "value": 127}, "group": "control_change"}, {"time": 363, "annotation": {"number": 64, "value": 0}, "group": "control_change"}, {"time": 369, "annotation": {"number": 64, "value": 127}, "group": "control_change"}, {"time": 385, "annotation": {"number": 64, "value": 0}, "group": "control_change"}, {"time": 392, "annotation": {"number": 64, "value": 127}, "group": "control_change"}, {"time": 409, "annotation": {"number": 64, "value": 0}, "group": "control_change"}, {"time": 416, "annotation": {"number": 64, "value": 127}, "group": "control_change"}, {"time": 434, "annotation": {"number": 64, "value": 0}, "group": "control_change"}, {"time": 442, "annotation": {"number": 64, "value": 127}, "group": "control_change"}, {"time": 457, "annotation": {"number": 64, "value": 0}, "group": "control_change"}, {"time": 465, "annotation": {"number": 64, "value": 127}, "group": "control_change"}, {"time": 501, "annotation": {"number": 64, "value": 0}, "group": "control_change"}, {"time": 509, "annotation": {"number": 64, "value": 127}, "group": "control_change"}, {"time": 528, "annotation": {"number": 64, "value": 0}, "group": "control_change"}, {"time": 535, "annotation": {"number": 64, "value": 127}, "group": "control_change"}, {"time": 555, "annotation": {"number": 64, "value": 0}, "group": "control_change"}, {"time": 561, "annotation": {"number": 64, "value": 127}, "group": "control_change"}, {"time": 577, "annotation": {"number": 64, "value": 0}, "group": "control_change"}, {"time": 584, "annotation": {"number": 64, "value": 127}, "group": "control_change"}, {"time": 601, "annotation": {"number": 64, "value": 0}, "group": "control_change"}, {"time": 608, "annotation": {"number": 64, "value": 127}, "group": "control_change"}, {"time": 626, "annotation": {"number": 64, "value": 0}, "group": "control_change"}, {"time": 634, "annotation": {"number": 64, "value": 127}, "group": "control_change"}, {"time": 649, "annotation": {"number": 64, "value": 0}, "group": "control_change"}, {"time": 657, "annotation": {"number": 64, "value": 127}, "group": "control_change"}, {"time": 693, "annotation": {"number": 64, "value": 0}, "group": "control_change"}, {"time": 702, "annotation": {"number": 64, "value": 127}, "group": "control_change"}, {"time": 720, "annotation": {"number": 64, "value": 0}, "group": "control_change"}, {"time": 728, "annotation": {"number": 64, "value": 127}, "group": "control_change"}, {"time": 743, "annotation": {"number": 64, "value": 0}, "group": "control_change"}, {"time": 752, "annotation": {"number": 64, "value": 127}, "group": "control_change"}, {"time": 771, "annotation": {"number": 64, "value": 0}, "group": "control_change"}, {"time": 778, "annotation": {"number": 64, "value": 127}, "group": "control_change"}, {"time": 778, "annotation": {"number": 64, "value": 0}, "group": "control_change"}, {"time": 793, "annotation": {"number": 64, "value": 0}, "group": "control_change"}, {"time": 800, "annotation": {"number": 64, "value": 127}, "group": "control_change"}, {"time": 815, "annotation": {"number": 64, "value": 0}, "group": "control_change"}, {"time": 825, "annotation": {"number": 64, "value": 127}, "group": "control_change"}, {"time": 840, "annotation": {"number": 64, "value": 0}, "group": "control_change"}, {"time": 849, "annotation": {"number": 64, "value": 127}, "group": "control_change"}, {"time": 887, "annotation": {"number": 64, "value": 0}, "group": "control_change"}, {"time": 895, "annotation": {"number": 64, "value": 127}, "group": "control_change"}, {"time": 912, "annotation": {"number": 64, "value": 0}, "group": "control_change"}, {"time": 919, "annotation": {"number": 64, "value": 127}, "group": "control_change"}, {"time": 937, "annotation": {"number": 64, "value": 0}, "group": "control_change"}, {"time": 943, "annotation": {"number": 64, "value": 127}, "group": "control_change"}, {"time": 960, "annotation": {"number": 64, "value": 0}, "group": "control_change"}, {"time": 966, "annotation": {"number": 64, "value": 127}, "group": "control_change"}, {"time": 966, "annotation": {"number": 64, "value": 0}, "group": "control_change"}, {"time": 967, "annotation": {"number": 64, "value": 127}, "group": "control_change"}, {"time": 983, "annotation": {"number": 64, "value": 0}, "group": "control_change"}, {"time": 992, "annotation": {"number": 64, "value": 127}, "group": "control_change"}, {"time": 1009, "annotation": {"number": 64, "value": 0}, "group": "control_change"}, {"time": 1017, "annotation": {"number": 64, "value": 127}, "group": "control_change"}, {"time": 1031, "annotation": {"number": 64, "value": 0}, "group": "control_change"}, {"time": 1038, "annotation": {"number": 64, "value": 127}, "group": "control_change"}, {"time": 1079, "annotation": {"number": 64, "value": 0}, "group": "control_change"}, {"time": 1087, "annotation": {"number": 64, "value": 127}, "group": "control_change"}, {"time": 1104, "annotation": {"number": 64, "value": 0}, "group": "control_change"}, {"time": 1110, "annotation": {"number": 64, "value": 127}, "group": "control_change"}, {"time": 1128, "annotation": {"number": 64, "value": 0}, "group": "control_change"}, {"time": 1134, "annotation": {"number": 64, "value": 127}, "group": "control_change"}, {"time": 1175, "annotation": {"number": 64, "value": 0}, "group": "control_change"}, {"time": 1185, "annotation": {"number": 64, "value": 127}, "group": "control_change"}, {"time": 1200, "annotation": {"number": 64, "value": 0}, "group": "control_change"}, {"time": 1207, "annotation": {"number": 64, "value": 127}, "group": "control_change"}, {"time": 1224, "annotation": {"number": 64, "value": 0}, "group": "control_change"}, {"time": 1229, "annotation": {"number": 64, "value": 127}, "group": "control_change"}, {"time": 1273, "annotation": {"number": 64, "value": 0}, "group": "control_change"}, {"time": 1280, "annotation": {"number": 64, "value": 127}, "group": "control_change"}, {"time": 1295, "annotation": {"number": 64, "value": 0}, "group": "control_change"}, {"time": 1302, "annotation": {"number": 64, "value": 127}, "group": "control_change"}, {"time": 1302, "annotation": {"number": 64, "value": 0}, "group": "control_change"}, {"time": 1319, "annotation": {"number": 64, "value": 0}, "group": "control_change"}, {"time": 1323, "annotation": {"number": 64, "value": 127}, "group": "control_change"}, {"time": 1331, "annotation": {"number": 64, "value": 0}, "group": "control_change"}, {"time": 1335, "annotation": {"number": 64, "value": 127}, "group": "control_change"}, {"time": 1344, "annotation": {"number": 64, "value": 0}, "group": "control_change"}, {"time": 1351, "annotation": {"number": 64, "value": 127}, "group": "control_change"}, {"time": 1367, "annotation": {"number": 64, "value": 0}, "group": "control_change"}, {"time": 1375, "annotation": {"number": 64, "value": 127}, "group": "control_change"}, {"time": 1393, "annotation": {"number": 64, "value": 0}, "group": "control_change"}, {"time": 1402, "annotation": {"number": 64, "value": 127}, "group": "control_change"}, {"time": 1417, "annotation": {"number": 64, "value": 0}, "group": "control_change"}, {"time": 1425, "annotation": {"number": 64, "value": 127}, "group": "control_change"}, {"time": 1463, "annotation": {"number": 64, "value": 0}, "group": "control_change"}, {"time": 1468, "annotation": {"number": 64, "value": 127}, "group": "control_change"}, {"time": 1491, "annotation": {"number": 64, "value": 0}, "group": "control_change"}, {"time": 1497, "annotation": {"number": 64, "value": 127}, "group": "control_change"}, {"time": 1512, "annotation": {"number": 64, "value": 0}, "group": "control_change"}, {"time": 1519, "annotation": {"number": 64, "value": 127}, "group": "control_change"}, {"time": 1538, "annotation": {"number": 64, "value": 0}, "group": "control_change"}, {"time": 1544, "annotation": {"number": 64, "value": 127}, "group": "control_change"}, {"time": 1564, "annotation": {"number": 64, "value": 0}, "group": "control_change"}, {"time": 1570, "annotation": {"number": 64, "value": 127}, "group": "control_change"}, {"time": 1586, "annotation": {"number": 64, "value": 0}, "group": "control_change"}, {"time": 1592, "annotation": {"number": 64, "value": 127}, "group": "control_change"}, {"time": 1605, "annotation": {"number": 64, "value": 0}, "group": "control_change"}, {"time": 1611, "annotation": {"number": 64, "value": 127}, "group": "control_change"}, {"time": 1611, "annotation": {"number": 64, "value": 0}, "group": "control_change"}, {"time": 1633, "annotation": {"number": 64, "value": 0}, "group": "control_change"}, {"time": 1638, "annotation": {"number": 64, "value": 127}, "group": "control_change"}, {"time": 1656, "annotation": {"number": 64, "value": 0}, "group": "control_change"}, {"time": 1680, "annotation": {"number": 64, "value": 0}, "group": "control_change"}, {"time": 1686, "annotation": {"number": 64, "value": 127}, "group": "control_change"}, {"time": 1704, "annotation": {"number": 64, "value": 0}, "group": "control_change"}, {"time": 1710, "annotation": {"number": 64, "value": 127}, "group": "control_change"}, {"time": 1729, "annotation": {"number": 64, "value": 0}, "group": "control_change"}, {"time": 1735, "annotation": {"number": 64, "value": 127}, "group": "control_change"}, {"time": 1752, "annotation": {"number": 64, "value": 0}, "group": "control_change"}, {"time": 1757, "annotation": {"number": 64, "value": 127}, "group": "control_change"}, {"time": 1757, "annotation": {"number": 64, "value": 0}, "group": "control_change"}, {"time": 1758, "annotation": {"number": 64, "value": 127}, "group": "control_change"}, {"time": 1775, "annotation": {"number": 64, "value": 0}, "group": "control_change"}, {"time": 1781, "annotation": {"number": 64, "value": 127}, "group": "control_change"}, {"time": 1800, "annotation": {"number": 64, "value": 0}, "group": "control_change"}, {"time": 1806, "annotation": {"number": 64, "value": 127}, "group": "control_change"}, {"time": 1825, "annotation": {"number": 64, "value": 0}, "group": "control_change"}, {"time": 1831, "annotation": {"number": 64, "value": 127}, "group": "control_change"}, {"time": 1850, "annotation": {"number": 64, "value": 0}, "group": "control_change"}, {"time": 1857, "annotation": {"number": 64, "value": 127}, "group": "control_change"}, {"time": 1894, "annotation": {"number": 64, "value": 0}, "group": "control_change"}, {"time": 1902, "annotation": {"number": 64, "value": 127}, "group": "control_change"}, {"time": 1951, "annotation": {"number": 64, "value": 0}, "group": "control_change"}, {"time": 1955, "annotation": {"number": 64, "value": 127}, "group": "control_change"}, {"time": 1992, "annotation": {"number": 64, "value": 0}, "group": "control_change"}, {"time": 1996, "annotation": {"number": 64, "value": 127}, "group": "control_change"}, {"time": 2040, "annotation": {"number": 64, "value": 0}, "group": "control_change"}, {"time": 2045, "annotation": {"number": 64, "value": 127}, "group": "control_change"}, {"time": 2088, "annotation": {"number": 64, "value": 0}, "group": "control_change"}, {"time": 2095, "annotation": {"number": 64, "value": 127}, "group": "control_change"}, {"time": 2139, "annotation": {"number": 64, "value": 0}, "group": "control_change"}, {"time": 2145, "annotation": {"number": 64, "value": 127}, "group": "control_change"}, {"time": 2185, "annotation": {"number": 64, "value": 0}, "group": "control_change"}, {"time": 2188, "annotation": {"number": 64, "value": 127}, "group": "control_change"}, {"time": 2232, "annotation": {"number": 64, "value": 0}, "group": "control_change"}, {"time": 2238, "annotation": {"number": 64, "value": 127}, "group": "control_change"}, {"time": 2256, "annotation": {"number": 64, "value": 0}, "group": "control_change"}, {"time": 2264, "annotation": {"number": 64, "value": 127}, "group": "control_change"}, {"time": 2279, "annotation": {"number": 64, "value": 0}, "group": "control_change"}, {"time": 2288, "annotation": {"number": 64, "value": 127}, "group": "control_change"}, {"time": 2307, "annotation": {"number": 64, "value": 0}, "group": "control_change"}, {"time": 2314, "annotation": {"number": 64, "value": 127}, "group": "control_change"}, {"time": 2314, "annotation": {"number": 64, "value": 0}, "group": "control_change"}, {"time": 2329, "annotation": {"number": 64, "value": 0}, "group": "control_change"}, {"time": 2336, "annotation": {"number": 64, "value": 127}, "group": "control_change"}, {"time": 2351, "annotation": {"number": 64, "value": 0}, "group": "control_change"}, {"time": 2361, "annotation": {"number": 64, "value": 127}, "group": "control_change"}, {"time": 2376, "annotation": {"number": 64, "value": 0}, "group": "control_change"}, {"time": 2385, "annotation": {"number": 64, "value": 127}, "group": "control_change"}, {"time": 2423, "annotation": {"number": 64, "value": 0}, "group": "control_change"}, {"time": 2431, "annotation": {"number": 64, "value": 127}, "group": "control_change"}, {"time": 2448, "annotation": {"number": 64, "value": 0}, "group": "control_change"}, {"time": 2455, "annotation": {"number": 64, "value": 127}, "group": "control_change"}, {"time": 2473, "annotation": {"number": 64, "value": 0}, "group": "control_change"}, {"time": 2479, "annotation": {"number": 64, "value": 127}, "group": "control_change"}, {"time": 2496, "annotation": {"number": 64, "value": 0}, "group": "control_change"}, {"time": 2502, "annotation": {"number": 64, "value": 127}, "group": "control_change"}, {"time": 2502, "annotation": {"number": 64, "value": 0}, "group": "control_change"}, {"time": 2503, "annotation": {"number": 64, "value": 127}, "group": "control_change"}, {"time": 2519, "annotation": {"number": 64, "value": 0}, "group": "control_change"}, {"time": 2528, "annotation": {"number": 64, "value": 127}, "group": "control_change"}, {"time": 2545, "annotation": {"number": 64, "value": 0}, "group": "control_change"}, {"time": 2553, "annotation": {"number": 64, "value": 127}, "group": "control_change"}, {"time": 2567, "annotation": {"number": 64, "value": 0}, "group": "control_change"}, {"time": 2574, "annotation": {"number": 64, "value": 127}, "group": "control_change"}, {"time": 2615, "annotation": {"number": 64, "value": 0}, "group": "control_change"}, {"time": 2623, "annotation": {"number": 64, "value": 127}, "group": "control_change"}, {"time": 2640, "annotation": {"number": 64, "value": 0}, "group": "control_change"}, {"time": 2646, "annotation": {"number": 64, "value": 127}, "group": "control_change"}, {"time": 2664, "annotation": {"number": 64, "value": 0}, "group": "control_change"}, {"time": 2670, "annotation": {"number": 64, "value": 127}, "group": "control_change"}, {"time": 2711, "annotation": {"number": 64, "value": 0}, "group": "control_change"}, {"time": 2721, "annotation": {"number": 64, "value": 127}, "group": "control_change"}, {"time": 2736, "annotation": {"number": 64, "value": 0}, "group": "control_change"}, {"time": 2743, "annotation": {"number": 64, "value": 127}, "group": "control_change"}, {"time": 2760, "annotation": {"number": 64, "value": 0}, "group": "control_change"}, {"time": 2765, "annotation": {"number": 64, "value": 127}, "group": "control_change"}, {"time": 2809, "annotation": {"number": 64, "value": 0}, "group": "control_change"}, {"time": 2816, "annotation": {"number": 64, "value": 127}, "group": "control_change"}, {"time": 2831, "annotation": {"number": 64, "value": 0}, "group": "control_change"}, {"time": 2838, "annotation": {"number": 64, "value": 127}, "group": "control_change"}, {"time": 2838, "annotation": {"number": 64, "value": 0}, "group": "control_change"}, {"time": 2855, "annotation": {"number": 64, "value": 0}, "group": "control_change"}, {"time": 2859, "annotation": {"number": 64, "value": 127}, "group": "control_change"}, {"time": 2867, "annotation": {"number": 64, "value": 0}, "group": "control_change"}, {"time": 2871, "annotation": {"number": 64, "value": 127}, "group": "control_change"}, {"time": 2880, "annotation": {"number": 64, "value": 0}, "group": "control_change"}, {"time": 2887, "annotation": {"number": 64, "value": 127}, "group": "control_change"}, {"time": 2903, "annotation": {"number": 64, "value": 0}, "group": "control_change"}, {"time": 2911, "annotation": {"number": 64, "value": 127}, "group": "control_change"}, {"time": 2929, "annotation": {"number": 64, "value": 0}, "group": "control_change"}, {"time": 2938, "annotation": {"number": 64, "value": 127}, "group": "control_change"}, {"time": 2953, "annotation": {"number": 64, "value": 0}, "group": "control_change"}, {"time": 2961, "annotation": {"number": 64, "value": 127}, "group": "control_change"}, {"time": 2999, "annotation": {"number": 64, "value": 0}, "group": "control_change"}, {"time": 3004, "annotation": {"number": 64, "value": 127}, "group": "control_change"}, {"time": 3027, "annotation": {"number": 64, "value": 0}, "group": "control_change"}, {"time": 3033, "annotation": {"number": 64, "value": 127}, "group": "control_change"}, {"time": 3048, "annotation": {"number": 64, "value": 0}, "group": "control_change"}, {"time": 3055, "annotation": {"number": 64, "value": 127}, "group": "control_change"}, {"time": 3074, "annotation": {"number": 64, "value": 0}, "group": "control_change"}, {"time": 3080, "annotation": {"number": 64, "value": 127}, "group": "control_change"}, {"time": 3100, "annotation": {"number": 64, "value": 0}, "group": "control_change"}, {"time": 3106, "annotation": {"number": 64, "value": 127}, "group": "control_change"}, {"time": 3122, "annotation": {"number": 64, "value": 0}, "group": "control_change"}, {"time": 3128, "annotation": {"number": 64, "value": 127}, "group": "control_change"}, {"time": 3141, "annotation": {"number": 64, "value": 0}, "group": "control_change"}, {"time": 3147, "annotation": {"number": 64, "value": 127}, "group": "control_change"}, {"time": 3147, "annotation": {"number": 64, "value": 0}, "group": "control_change"}, {"time": 3169, "annotation": {"number": 64, "value": 0}, "group": "control_change"}, {"time": 3174, "annotation": {"number": 64, "value": 127}, "group": "control_change"}, {"time": 3192, "annotation": {"number": 64, "value": 0}, "group": "control_change"}, {"time": 3216, "annotation": {"number": 64, "value": 0}, "group": "control_change"}, {"time": 3222, "annotation": {"number": 64, "value": 127}, "group": "control_change"}, {"time": 3240, "annotation": {"number": 64, "value": 0}, "group": "control_change"}, {"time": 3246, "annotation": {"number": 64, "value": 127}, "group": "control_change"}, {"time": 3265, "annotation": {"number": 64, "value": 0}, "group": "control_change"}, {"time": 3271, "annotation": {"number": 64, "value": 127}, "group": "control_change"}, {"time": 3288, "annotation": {"number": 64, "value": 0}, "group": "control_change"}, {"time": 3293, "annotation": {"number": 64, "value": 127}, "group": "control_change"}, {"time": 3293, "annotation": {"number": 64, "value": 0}, "group": "control_change"}, {"time": 3294, "annotation": {"number": 64, "value": 127}, "group": "control_change"}, {"time": 3311, "annotation": {"number": 64, "value": 0}, "group": "control_change"}, {"time": 3317, "annotation": {"number": 64, "value": 127}, "group": "control_change"}, {"time": 3336, "annotation": {"number": 64, "value": 0}, "group": "control_change"}, {"time": 3342, "annotation": {"number": 64, "value": 127}, "group": "control_change"}, {"time": 3361, "annotation": {"number": 64, "value": 0}, "group": "control_change"}, {"time": 3367, "annotation": {"number": 64, "value": 127}, "group": "control_change"}, {"time": 3386, "annotation": {"number": 64, "value": 0}, "group": "control_change"}, {"time": 3394, "annotation": {"number": 64, "value": 127}, "group": "control_change"}, {"time": 3411, "annotation": {"number": 64, "value": 0}, "group": "control_change"}, {"time": 3417, "annotation": {"number": 64, "value": 127}, "group": "control_change"}, {"time": 3431, "annotation": {"number": 64, "value": 0}, "group": "control_change"}, {"time": 3435, "annotation": {"number": 64, "value": 127}, "group": "control_change"}, {"time": 3446, "annotation": {"number": 64, "value": 0}, "group": "control_change"}, {"time": 3448, "annotation": {"number": 64, "value": 127}, "group": "control_change"}, {"time": 3456, "annotation": {"number": 64, "value": 0}, "group": "control_change"}, {"time": 3459, "annotation": {"number": 64, "value": 127}, "group": "control_change"}, {"time": 3477, "annotation": {"number": 64, "value": 0}, "group": "control_change"}, {"time": 3484, "annotation": {"number": 64, "value": 127}, "group": "control_change"}, {"time": 3507, "annotation": {"number": 64, "value": 0}, "group": "control_change"}, {"time": 3513, "annotation": {"number": 64, "value": 127}, "group": "control_change"}, {"time": 3528, "annotation": {"number": 64, "value": 0}, "group": "control_change"}, {"time": 3535, "annotation": {"number": 64, "value": 127}, "group": "control_change"}, {"time": 3554, "annotation": {"number": 64, "value": 0}, "group": "control_change"}, {"time": 3560, "annotation": {"number": 64, "value": 127}, "group": "control_change"}, {"time": 3580, "annotation": {"number": 64, "value": 0}, "group": "control_change"}, {"time": 3586, "annotation": {"number": 64, "value": 127}, "group": "control_change"}, {"time": 3602, "annotation": {"number": 64, "value": 0}, "group": "control_change"}, {"time": 3608, "annotation": {"number": 64, "value": 127}, "group": "control_change"}, {"time": 3621, "annotation": {"number": 64, "value": 0}, "group": "control_change"}, {"time": 3627, "annotation": {"number": 64, "value": 127}, "group": "control_change"}, {"time": 3627, "annotation": {"number": 64, "value": 0}, "group": "control_change"}, {"time": 3649, "annotation": {"number": 64, "value": 0}, "group": "control_change"}, {"time": 3654, "annotation": {"number": 64, "value": 127}, "group": "control_change"}, {"time": 3672, "annotation": {"number": 64, "value": 0}, "group": "control_change"}, {"time": 3696, "annotation": {"number": 64, "value": 0}, "group": "control_change"}, {"time": 3702, "annotation": {"number": 64, "value": 127}, "group": "control_change"}, {"time": 3720, "annotation": {"number": 64, "value": 0}, "group": "control_change"}, {"time": 3726, "annotation": {"number": 64, "value": 127}, "group": "control_change"}, {"time": 3745, "annotation": {"number": 64, "value": 0}, "group": "control_change"}, {"time": 3751, "annotation": {"number": 64, "value": 127}, "group": "control_change"}, {"time": 3768, "annotation": {"number": 64, "value": 0}, "group": "control_change"}, {"time": 3773, "annotation": {"number": 64, "value": 127}, "group": "control_change"}, {"time": 3773, "annotation": {"number": 64, "value": 0}, "group": "control_change"}, {"time": 3774, "annotation": {"number": 64, "value": 127}, "group": "control_change"}, {"time": 3791, "annotation": {"number": 64, "value": 0}, "group": "control_change"}, {"time": 3797, "annotation": {"number": 64, "value": 127}, "group": "control_change"}, {"time": 3816, "annotation": {"number": 64, "value": 0}, "group": "control_change"}, {"time": 3822, "annotation": {"number": 64, "value": 127}, "group": "control_change"}, {"time": 3841, "annotation": {"number": 64, "value": 0}, "group": "control_change"}, {"time": 3847, "annotation": {"number": 64, "value": 127}, "group": "control_change"}, {"time": 3866, "annotation": {"number": 64, "value": 0}, "group": "control_change"}, {"time": 3868, "annotation": {"number": 64, "value": 127}, "group": "control_change"}, {"time": 3891, "annotation": {"number": 64, "value": 0}, "group": "control_change"}, {"time": 3897, "annotation": {"number": 64, "value": 127}, "group": "control_change"}, {"time": 3912, "annotation": {"number": 64, "value": 0}, "group": "control_change"}, {"time": 3919, "annotation": {"number": 64, "value": 127}, "group": "control_change"}, {"time": 3938, "annotation": {"number": 64, "value": 0}, "group": "control_change"}, {"time": 3944, "annotation": {"number": 64, "value": 127}, "group": "control_change"}, {"time": 3964, "annotation": {"number": 64, "value": 0}, "group": "control_change"}, {"time": 3970, "annotation": {"number": 64, "value": 127}, "group": "control_change"}, {"time": 3986, "annotation": {"number": 64, "value": 0}, "group": "control_change"}, {"time": 3992, "annotation": {"number": 64, "value": 127}, "group": "control_change"}, {"time": 4005, "annotation": {"number": 64, "value": 0}, "group": "control_change"}, {"time": 4011, "annotation": {"number": 64, "value": 127}, "group": "control_change"}, {"time": 4011, "annotation": {"number": 64, "value": 0}, "group": "control_change"}, {"time": 4033, "annotation": {"number": 64, "value": 0}, "group": "control_change"}, {"time": 4038, "annotation": {"number": 64, "value": 127}, "group": "control_change"}, {"time": 4056, "annotation": {"number": 64, "value": 0}, "group": "control_change"}, {"time": 4080, "annotation": {"number": 64, "value": 0}, "group": "control_change"}, {"time": 4086, "annotation": {"number": 64, "value": 127}, "group": "control_change"}, {"time": 4104, "annotation": {"number": 64, "value": 0}, "group": "control_change"}, {"time": 4110, "annotation": {"number": 64, "value": 127}, "group": "control_change"}, {"time": 4129, "annotation": {"number": 64, "value": 0}, "group": "control_change"}, {"time": 4135, "annotation": {"number": 64, "value": 127}, "group": "control_change"}, {"time": 4152, "annotation": {"number": 64, "value": 0}, "group": "control_change"}, {"time": 4157, "annotation": {"number": 64, "value": 127}, "group": "control_change"}, {"time": 4157, "annotation": {"number": 64, "value": 0}, "group": "control_change"}, {"time": 4158, "annotation": {"number": 64, "value": 127}, "group": "control_change"}, {"time": 4175, "annotation": {"number": 64, "value": 0}, "group": "control_change"}, {"time": 4181, "annotation": {"number": 64, "value": 127}, "group": "control_change"}, {"time": 4200, "annotation": {"number": 64, "value": 0}, "group": "control_change"}, {"time": 4248, "annotation": {"number": 64, "value": 0}, "group": "control_change"}, {"time": 4257, "annotation": {"number": 64, "value": 127}, "group": "control_change"}, {"time": 4257, "annotation": {"number": 64, "value": 0}, "group": "control_change"}, {"time": 4271, "annotation": {"number": 64, "value": 0}, "group": "control_change"}, {"time": 4276, "annotation": {"number": 64, "value": 127}, "group": "control_change"}, {"time": 4294, "annotation": {"number": 64, "value": 0}, "group": "control_change"}, {"time": 4300, "annotation": {"number": 64, "value": 127}, "group": "control_change"}, {"time": 4301, "annotation": {"number": 64, "value": 0}, "group": "control_change"}, {"time": 4301, "annotation": {"number": 64, "value": 127}, "group": "control_change"}, {"time": 4344, "annotation": {"number": 64, "value": 0}, "group": "control_change"}, {"time": 4348, "annotation": {"number": 64, "value": 127}, "group": "control_change"}, {"time": 4369, "annotation": {"number": 64, "value": 0}, "group": "control_change"}, {"time": 4373, "annotation": {"number": 64, "value": 127}, "group": "control_change"}, {"time": 4392, "annotation": {"number": 64, "value": 0}, "group": "control_change"}, {"time": 4398, "annotation": {"number": 64, "value": 127}, "group": "control_change"}, {"time": 4441, "annotation": {"number": 64, "value": 0}, "group": "control_change"}, {"time": 4449, "annotation": {"number": 64, "value": 127}, "group": "control_change"}, {"time": 4486, "annotation": {"number": 64, "value": 0}, "group": "control_change"}, {"time": 4494, "annotation": {"number": 64, "value": 127}, "group": "control_change"}, {"time": 4543, "annotation": {"number": 64, "value": 0}, "group": "control_change"}, {"time": 4547, "annotation": {"number": 64, "value": 127}, "group": "control_change"}, {"time": 4584, "annotation": {"number": 64, "value": 0}, "group": "control_change"}, {"time": 4588, "annotation": {"number": 64, "value": 127}, "group": "control_change"}, {"time": 4632, "annotation": {"number": 64, "value": 0}, "group": "control_change"}, {"time": 4637, "annotation": {"number": 64, "value": 127}, "group": "control_change"}, {"time": 4680, "annotation": {"number": 64, "value": 0}, "group": "control_change"}, {"time": 4687, "annotation": {"number": 64, "value": 127}, "group": "control_change"}, {"time": 4731, "annotation": {"number": 64, "value": 0}, "group": "control_change"}, {"time": 4737, "annotation": {"number": 64, "value": 127}, "group": "control_change"}, {"time": 4777, "annotation": {"number": 64, "value": 0}, "group": "control_change"}, {"time": 4780, "annotation": {"number": 64, "value": 127}, "group": "control_change"}, {"time": 4824, "annotation": {"number": 64, "value": 0}, "group": "control_change"}, {"time": 4828, "annotation": {"number": 64, "value": 127}, "group": "control_change"}, {"time": 4980, "annotation": {"number": 64, "value": 0}, "group": "control_change"}]}]}