{"metadata": {"schema_version": "0.2", "title": "None", "source_filename": "519.mid", "source_format": "midi"}, "resolution": 12, "tempos": [{"time": 0, "qpm": 90.00009000009}, {"time": 373, "qpm": 89.90003116534413}, {"time": 373, "qpm": 85.3002141035374}, {"time": 396, "qpm": 84.80014020289848}, {"time": 420, "qpm": 90.00009000009}, {"time": 1428, "qpm": 90.30011242363997}, {"time": 1524, "qpm": 90.6000896940888}, {"time": 1572, "qpm": 90.00009000009}, {"time": 1715, "qpm": 90.4001108908027}, {"time": 1956, "qpm": 90.30011242363997}, {"time": 2268, "qpm": 90.00009000009}, {"time": 2724, "qpm": 90.4001108908027}, {"time": 3107, "qpm": 90.10010121244703}, {"time": 3444, "qpm": 90.5000580708706}, {"time": 3492, "qpm": 90.00009000009}, {"time": 3494, "qpm": 89.50000820416741}, {"time": 3516, "qpm": 89.6001146881468}, {"time": 3738, "qpm": 89.70004305602066}, {"time": 3758, "qpm": 90.00009000009}, {"time": 3876, "qpm": 90.10010121244703}, {"time": 3883, "qpm": 90.30011242363997}], "time_signatures": [{"time": 0, "numerator": 1, "denominator": 4}], "tracks": [{"program": 0, "is_drum": false, "name": "MELODY", "notes": [{"time": 422, "pitch": 67, "duration": 5, "velocity": 95}, {"time": 428, "pitch": 67, "duration": 6, "velocity": 95}, {"time": 434, "pitch": 66, "duration": 6, "velocity": 94}, {"time": 440, "pitch": 64, "duration": 5, "velocity": 99}, {"time": 446, "pitch": 66, "duration": 5, "velocity": 95}, {"time": 452, "pitch": 67, "duration": 6, "velocity": 97}, {"time": 458, "pitch": 64, "duration": 6, "velocity": 102}, {"time": 464, "pitch": 71, "duration": 6, "velocity": 101}, {"time": 470, "pitch": 69, "duration": 5, "velocity": 97}, {"time": 476, "pitch": 69, "duration": 5, "velocity": 95}, {"time": 482, "pitch": 67, "duration": 4, "velocity": 96}, {"time": 488, "pitch": 67, "duration": 12, "velocity": 96}, {"time": 500, "pitch": 64, "duration": 14, "velocity": 97}, {"time": 518, "pitch": 66, "duration": 5, "velocity": 92}, {"time": 524, "pitch": 66, "duration": 5, "velocity": 97}, {"time": 530, "pitch": 67, "duration": 5, "velocity": 98}, {"time": 536, "pitch": 69, "duration": 5, "velocity": 97}, {"time": 542, "pitch": 62, "duration": 4, "velocity": 96}, {"time": 548, "pitch": 62, "duration": 5, "velocity": 96}, {"time": 554, "pitch": 72, "duration": 5, "velocity": 99}, {"time": 560, "pitch": 72, "duration": 5, "velocity": 98}, {"time": 566, "pitch": 71, "duration": 4, "velocity": 95}, {"time": 572, "pitch": 71, "duration": 5, "velocity": 96}, {"time": 578, "pitch": 69, "duration": 5, "velocity": 96}, {"time": 584, "pitch": 71, "duration": 15, "velocity": 95}, {"time": 602, "pitch": 71, "duration": 5, "velocity": 101}, {"time": 608, "pitch": 76, "duration": 4, "velocity": 97}, {"time": 614, "pitch": 76, "duration": 4, "velocity": 95}, {"time": 620, "pitch": 76, "duration": 5, "velocity": 102}, {"time": 626, "pitch": 74, "duration": 5, "velocity": 98}, {"time": 632, "pitch": 72, "duration": 15, "velocity": 99}, {"time": 650, "pitch": 69, "duration": 6, "velocity": 97}, {"time": 656, "pitch": 71, "duration": 5, "velocity": 97}, {"time": 662, "pitch": 72, "duration": 5, "velocity": 90}, {"time": 668, "pitch": 71, "duration": 5, "velocity": 97}, {"time": 674, "pitch": 67, "duration": 6, "velocity": 94}, {"time": 680, "pitch": 64, "duration": 10, "velocity": 101}, {"time": 692, "pitch": 64, "duration": 5, "velocity": 100}, {"time": 698, "pitch": 71, "duration": 5, "velocity": 97}, {"time": 704, "pitch": 69, "duration": 10, "velocity": 100}, {"time": 716, "pitch": 64, "duration": 6, "velocity": 100}, {"time": 722, "pitch": 71, "duration": 6, "velocity": 99}, {"time": 728, "pitch": 69, "duration": 4, "velocity": 99}, {"time": 734, "pitch": 69, "duration": 6, "velocity": 97}, {"time": 740, "pitch": 67, "duration": 6, "velocity": 99}, {"time": 746, "pitch": 64, "duration": 11, "velocity": 99}, {"time": 758, "pitch": 66, "duration": 38, "velocity": 96}, {"time": 806, "pitch": 67, "duration": 5, "velocity": 95}, {"time": 812, "pitch": 67, "duration": 6, "velocity": 95}, {"time": 818, "pitch": 66, "duration": 6, "velocity": 94}, {"time": 824, "pitch": 64, "duration": 5, "velocity": 99}, {"time": 830, "pitch": 66, "duration": 5, "velocity": 95}, {"time": 836, "pitch": 67, "duration": 6, "velocity": 97}, {"time": 842, "pitch": 64, "duration": 6, "velocity": 102}, {"time": 848, "pitch": 71, "duration": 6, "velocity": 101}, {"time": 854, "pitch": 69, "duration": 5, "velocity": 97}, {"time": 860, "pitch": 69, "duration": 5, "velocity": 95}, {"time": 866, "pitch": 67, "duration": 4, "velocity": 96}, {"time": 872, "pitch": 67, "duration": 12, "velocity": 96}, {"time": 884, "pitch": 64, "duration": 14, "velocity": 97}, {"time": 902, "pitch": 66, "duration": 5, "velocity": 92}, {"time": 908, "pitch": 66, "duration": 5, "velocity": 97}, {"time": 914, "pitch": 67, "duration": 5, "velocity": 98}, {"time": 920, "pitch": 69, "duration": 5, "velocity": 97}, {"time": 926, "pitch": 62, "duration": 4, "velocity": 96}, {"time": 932, "pitch": 62, "duration": 5, "velocity": 96}, {"time": 938, "pitch": 72, "duration": 5, "velocity": 99}, {"time": 944, "pitch": 72, "duration": 5, "velocity": 98}, {"time": 950, "pitch": 71, "duration": 4, "velocity": 95}, {"time": 956, "pitch": 71, "duration": 5, "velocity": 96}, {"time": 962, "pitch": 69, "duration": 5, "velocity": 96}, {"time": 968, "pitch": 71, "duration": 15, "velocity": 95}, {"time": 986, "pitch": 71, "duration": 5, "velocity": 101}, {"time": 992, "pitch": 76, "duration": 4, "velocity": 97}, {"time": 998, "pitch": 76, "duration": 4, "velocity": 95}, {"time": 1004, "pitch": 76, "duration": 5, "velocity": 102}, {"time": 1010, "pitch": 74, "duration": 5, "velocity": 98}, {"time": 1016, "pitch": 72, "duration": 15, "velocity": 99}, {"time": 1034, "pitch": 69, "duration": 6, "velocity": 97}, {"time": 1040, "pitch": 71, "duration": 5, "velocity": 97}, {"time": 1046, "pitch": 72, "duration": 5, "velocity": 90}, {"time": 1052, "pitch": 71, "duration": 5, "velocity": 97}, {"time": 1058, "pitch": 67, "duration": 6, "velocity": 94}, {"time": 1064, "pitch": 64, "duration": 10, "velocity": 101}, {"time": 1076, "pitch": 64, "duration": 5, "velocity": 100}, {"time": 1082, "pitch": 71, "duration": 5, "velocity": 97}, {"time": 1088, "pitch": 69, "duration": 6, "velocity": 100}, {"time": 1094, "pitch": 69, "duration": 6, "velocity": 100}, {"time": 1100, "pitch": 64, "duration": 6, "velocity": 100}, {"time": 1106, "pitch": 67, "duration": 6, "velocity": 99}, {"time": 1112, "pitch": 66, "duration": 4, "velocity": 99}, {"time": 1118, "pitch": 66, "duration": 6, "velocity": 97}, {"time": 1124, "pitch": 67, "duration": 6, "velocity": 99}, {"time": 1130, "pitch": 62, "duration": 11, "velocity": 99}, {"time": 1142, "pitch": 64, "duration": 38, "velocity": 96}, {"time": 1190, "pitch": 67, "duration": 4, "velocity": 96}, {"time": 1196, "pitch": 67, "duration": 5, "velocity": 96}, {"time": 1202, "pitch": 69, "duration": 5, "velocity": 101}, {"time": 1208, "pitch": 71, "duration": 6, "velocity": 99}, {"time": 1214, "pitch": 67, "duration": 5, "velocity": 97}, {"time": 1220, "pitch": 71, "duration": 4, "velocity": 102}, {"time": 1226, "pitch": 76, "duration": 5, "velocity": 106}, {"time": 1232, "pitch": 74, "duration": 4, "velocity": 102}, {"time": 1238, "pitch": 74, "duration": 11, "velocity": 106}, {"time": 1250, "pitch": 72, "duration": 5, "velocity": 99}, {"time": 1256, "pitch": 71, "duration": 11, "velocity": 100}, {"time": 1268, "pitch": 69, "duration": 14, "velocity": 100}, {"time": 1286, "pitch": 71, "duration": 5, "velocity": 96}, {"time": 1292, "pitch": 71, "duration": 4, "velocity": 99}, {"time": 1298, "pitch": 71, "duration": 4, "velocity": 99}, {"time": 1304, "pitch": 71, "duration": 10, "velocity": 104}, {"time": 1316, "pitch": 76, "duration": 4, "velocity": 101}, {"time": 1322, "pitch": 78, "duration": 11, "velocity": 99}, {"time": 1334, "pitch": 74, "duration": 26, "velocity": 102}, {"time": 1370, "pitch": 78, "duration": 5, "velocity": 102}, {"time": 1376, "pitch": 76, "duration": 4, "velocity": 99}, {"time": 1382, "pitch": 76, "duration": 4, "velocity": 104}, {"time": 1388, "pitch": 76, "duration": 4, "velocity": 106}, {"time": 1394, "pitch": 74, "duration": 5, "velocity": 109}, {"time": 1400, "pitch": 76, "duration": 14, "velocity": 109}, {"time": 1418, "pitch": 74, "duration": 5, "velocity": 100}, {"time": 1424, "pitch": 71, "duration": 4, "velocity": 101}, {"time": 1430, "pitch": 71, "duration": 5, "velocity": 97}, {"time": 1436, "pitch": 71, "duration": 5, "velocity": 96}, {"time": 1442, "pitch": 69, "duration": 5, "velocity": 99}, {"time": 1448, "pitch": 71, "duration": 11, "velocity": 98}, {"time": 1460, "pitch": 64, "duration": 5, "velocity": 99}, {"time": 1466, "pitch": 71, "duration": 5, "velocity": 99}, {"time": 1472, "pitch": 69, "duration": 4, "velocity": 96}, {"time": 1478, "pitch": 69, "duration": 4, "velocity": 96}, {"time": 1484, "pitch": 69, "duration": 5, "velocity": 98}, {"time": 1490, "pitch": 67, "duration": 5, "velocity": 99}, {"time": 1496, "pitch": 64, "duration": 9, "velocity": 104}, {"time": 1508, "pitch": 74, "duration": 16, "velocity": 106}, {"time": 1526, "pitch": 69, "duration": 21, "velocity": 97}, {"time": 1574, "pitch": 67, "duration": 4, "velocity": 96}, {"time": 1580, "pitch": 67, "duration": 5, "velocity": 96}, {"time": 1586, "pitch": 69, "duration": 5, "velocity": 101}, {"time": 1592, "pitch": 71, "duration": 6, "velocity": 99}, {"time": 1598, "pitch": 67, "duration": 5, "velocity": 97}, {"time": 1604, "pitch": 71, "duration": 4, "velocity": 102}, {"time": 1610, "pitch": 76, "duration": 5, "velocity": 106}, {"time": 1616, "pitch": 74, "duration": 4, "velocity": 102}, {"time": 1622, "pitch": 74, "duration": 11, "velocity": 106}, {"time": 1634, "pitch": 72, "duration": 5, "velocity": 99}, {"time": 1640, "pitch": 71, "duration": 11, "velocity": 100}, {"time": 1652, "pitch": 69, "duration": 14, "velocity": 100}, {"time": 1670, "pitch": 71, "duration": 5, "velocity": 96}, {"time": 1676, "pitch": 71, "duration": 4, "velocity": 99}, {"time": 1682, "pitch": 71, "duration": 4, "velocity": 99}, {"time": 1688, "pitch": 71, "duration": 10, "velocity": 104}, {"time": 1700, "pitch": 76, "duration": 4, "velocity": 101}, {"time": 1706, "pitch": 78, "duration": 11, "velocity": 99}, {"time": 1718, "pitch": 74, "duration": 24, "velocity": 102}, {"time": 1742, "pitch": 79, "duration": 5, "velocity": 102}, {"time": 1748, "pitch": 79, "duration": 5, "velocity": 102}, {"time": 1754, "pitch": 78, "duration": 5, "velocity": 102}, {"time": 1760, "pitch": 76, "duration": 4, "velocity": 99}, {"time": 1766, "pitch": 76, "duration": 4, "velocity": 104}, {"time": 1772, "pitch": 76, "duration": 4, "velocity": 106}, {"time": 1778, "pitch": 74, "duration": 5, "velocity": 109}, {"time": 1784, "pitch": 76, "duration": 14, "velocity": 109}, {"time": 1802, "pitch": 74, "duration": 5, "velocity": 100}, {"time": 1808, "pitch": 71, "duration": 4, "velocity": 101}, {"time": 1814, "pitch": 71, "duration": 5, "velocity": 97}, {"time": 1820, "pitch": 71, "duration": 5, "velocity": 96}, {"time": 1826, "pitch": 69, "duration": 5, "velocity": 99}, {"time": 1832, "pitch": 71, "duration": 11, "velocity": 98}, {"time": 1844, "pitch": 64, "duration": 5, "velocity": 99}, {"time": 1850, "pitch": 71, "duration": 5, "velocity": 99}, {"time": 1856, "pitch": 69, "duration": 4, "velocity": 96}, {"time": 1862, "pitch": 69, "duration": 4, "velocity": 96}, {"time": 1868, "pitch": 69, "duration": 5, "velocity": 98}, {"time": 1874, "pitch": 64, "duration": 5, "velocity": 99}, {"time": 1880, "pitch": 66, "duration": 9, "velocity": 104}, {"time": 1892, "pitch": 62, "duration": 16, "velocity": 106}, {"time": 1910, "pitch": 64, "duration": 21, "velocity": 97}, {"time": 2342, "pitch": 68, "duration": 5, "velocity": 95}, {"time": 2348, "pitch": 68, "duration": 6, "velocity": 95}, {"time": 2354, "pitch": 67, "duration": 6, "velocity": 94}, {"time": 2360, "pitch": 65, "duration": 5, "velocity": 99}, {"time": 2366, "pitch": 67, "duration": 5, "velocity": 95}, {"time": 2372, "pitch": 68, "duration": 6, "velocity": 97}, {"time": 2378, "pitch": 65, "duration": 6, "velocity": 102}, {"time": 2384, "pitch": 72, "duration": 6, "velocity": 101}, {"time": 2390, "pitch": 70, "duration": 5, "velocity": 97}, {"time": 2396, "pitch": 70, "duration": 5, "velocity": 95}, {"time": 2402, "pitch": 68, "duration": 4, "velocity": 96}, {"time": 2408, "pitch": 68, "duration": 12, "velocity": 96}, {"time": 2420, "pitch": 65, "duration": 14, "velocity": 97}, {"time": 2438, "pitch": 67, "duration": 5, "velocity": 92}, {"time": 2444, "pitch": 67, "duration": 5, "velocity": 97}, {"time": 2450, "pitch": 68, "duration": 5, "velocity": 98}, {"time": 2456, "pitch": 70, "duration": 5, "velocity": 97}, {"time": 2462, "pitch": 63, "duration": 4, "velocity": 96}, {"time": 2468, "pitch": 63, "duration": 5, "velocity": 96}, {"time": 2474, "pitch": 73, "duration": 5, "velocity": 99}, {"time": 2480, "pitch": 73, "duration": 5, "velocity": 98}, {"time": 2486, "pitch": 72, "duration": 4, "velocity": 95}, {"time": 2492, "pitch": 72, "duration": 5, "velocity": 96}, {"time": 2498, "pitch": 70, "duration": 5, "velocity": 96}, {"time": 2504, "pitch": 72, "duration": 15, "velocity": 95}, {"time": 2522, "pitch": 72, "duration": 5, "velocity": 101}, {"time": 2528, "pitch": 77, "duration": 4, "velocity": 97}, {"time": 2534, "pitch": 77, "duration": 4, "velocity": 95}, {"time": 2540, "pitch": 77, "duration": 5, "velocity": 102}, {"time": 2546, "pitch": 75, "duration": 5, "velocity": 98}, {"time": 2552, "pitch": 73, "duration": 15, "velocity": 99}, {"time": 2570, "pitch": 70, "duration": 6, "velocity": 97}, {"time": 2576, "pitch": 72, "duration": 5, "velocity": 97}, {"time": 2582, "pitch": 73, "duration": 5, "velocity": 90}, {"time": 2588, "pitch": 72, "duration": 5, "velocity": 97}, {"time": 2594, "pitch": 68, "duration": 6, "velocity": 94}, {"time": 2600, "pitch": 65, "duration": 10, "velocity": 101}, {"time": 2612, "pitch": 65, "duration": 5, "velocity": 100}, {"time": 2618, "pitch": 72, "duration": 5, "velocity": 97}, {"time": 2624, "pitch": 70, "duration": 6, "velocity": 100}, {"time": 2630, "pitch": 70, "duration": 6, "velocity": 100}, {"time": 2636, "pitch": 65, "duration": 6, "velocity": 100}, {"time": 2642, "pitch": 68, "duration": 6, "velocity": 99}, {"time": 2648, "pitch": 67, "duration": 4, "velocity": 99}, {"time": 2654, "pitch": 67, "duration": 6, "velocity": 97}, {"time": 2660, "pitch": 68, "duration": 6, "velocity": 99}, {"time": 2666, "pitch": 63, "duration": 11, "velocity": 99}, {"time": 2678, "pitch": 65, "duration": 38, "velocity": 96}, {"time": 2726, "pitch": 68, "duration": 4, "velocity": 96}, {"time": 2732, "pitch": 68, "duration": 5, "velocity": 96}, {"time": 2738, "pitch": 70, "duration": 5, "velocity": 101}, {"time": 2744, "pitch": 72, "duration": 6, "velocity": 99}, {"time": 2750, "pitch": 68, "duration": 5, "velocity": 97}, {"time": 2756, "pitch": 72, "duration": 4, "velocity": 102}, {"time": 2762, "pitch": 77, "duration": 5, "velocity": 106}, {"time": 2768, "pitch": 75, "duration": 4, "velocity": 102}, {"time": 2774, "pitch": 75, "duration": 11, "velocity": 106}, {"time": 2786, "pitch": 73, "duration": 5, "velocity": 99}, {"time": 2792, "pitch": 72, "duration": 11, "velocity": 100}, {"time": 2804, "pitch": 70, "duration": 14, "velocity": 100}, {"time": 2822, "pitch": 72, "duration": 5, "velocity": 96}, {"time": 2828, "pitch": 72, "duration": 4, "velocity": 99}, {"time": 2834, "pitch": 72, "duration": 4, "velocity": 99}, {"time": 2840, "pitch": 72, "duration": 10, "velocity": 104}, {"time": 2852, "pitch": 77, "duration": 4, "velocity": 101}, {"time": 2858, "pitch": 79, "duration": 11, "velocity": 99}, {"time": 2870, "pitch": 75, "duration": 26, "velocity": 102}, {"time": 2906, "pitch": 79, "duration": 5, "velocity": 102}, {"time": 2912, "pitch": 77, "duration": 4, "velocity": 99}, {"time": 2918, "pitch": 77, "duration": 4, "velocity": 104}, {"time": 2924, "pitch": 77, "duration": 4, "velocity": 106}, {"time": 2930, "pitch": 75, "duration": 5, "velocity": 109}, {"time": 2936, "pitch": 77, "duration": 14, "velocity": 109}, {"time": 2954, "pitch": 75, "duration": 5, "velocity": 100}, {"time": 2960, "pitch": 72, "duration": 4, "velocity": 101}, {"time": 2966, "pitch": 72, "duration": 5, "velocity": 97}, {"time": 2972, "pitch": 72, "duration": 5, "velocity": 96}, {"time": 2978, "pitch": 70, "duration": 5, "velocity": 99}, {"time": 2984, "pitch": 72, "duration": 11, "velocity": 98}, {"time": 2996, "pitch": 65, "duration": 5, "velocity": 99}, {"time": 3002, "pitch": 72, "duration": 5, "velocity": 99}, {"time": 3008, "pitch": 70, "duration": 4, "velocity": 96}, {"time": 3014, "pitch": 70, "duration": 4, "velocity": 96}, {"time": 3020, "pitch": 70, "duration": 5, "velocity": 98}, {"time": 3026, "pitch": 68, "duration": 5, "velocity": 99}, {"time": 3032, "pitch": 65, "duration": 9, "velocity": 104}, {"time": 3044, "pitch": 75, "duration": 16, "velocity": 106}, {"time": 3062, "pitch": 70, "duration": 21, "velocity": 97}, {"time": 3110, "pitch": 68, "duration": 4, "velocity": 96}, {"time": 3116, "pitch": 68, "duration": 5, "velocity": 96}, {"time": 3122, "pitch": 70, "duration": 5, "velocity": 101}, {"time": 3128, "pitch": 72, "duration": 6, "velocity": 99}, {"time": 3134, "pitch": 68, "duration": 5, "velocity": 97}, {"time": 3140, "pitch": 72, "duration": 4, "velocity": 102}, {"time": 3146, "pitch": 77, "duration": 5, "velocity": 106}, {"time": 3152, "pitch": 75, "duration": 4, "velocity": 102}, {"time": 3158, "pitch": 75, "duration": 11, "velocity": 106}, {"time": 3170, "pitch": 73, "duration": 5, "velocity": 99}, {"time": 3176, "pitch": 72, "duration": 11, "velocity": 100}, {"time": 3188, "pitch": 70, "duration": 14, "velocity": 100}, {"time": 3206, "pitch": 72, "duration": 5, "velocity": 96}, {"time": 3212, "pitch": 72, "duration": 4, "velocity": 99}, {"time": 3218, "pitch": 72, "duration": 4, "velocity": 99}, {"time": 3224, "pitch": 72, "duration": 10, "velocity": 104}, {"time": 3236, "pitch": 77, "duration": 4, "velocity": 101}, {"time": 3242, "pitch": 79, "duration": 11, "velocity": 99}, {"time": 3254, "pitch": 75, "duration": 24, "velocity": 102}, {"time": 3278, "pitch": 80, "duration": 5, "velocity": 102}, {"time": 3284, "pitch": 80, "duration": 5, "velocity": 102}, {"time": 3290, "pitch": 79, "duration": 5, "velocity": 102}, {"time": 3296, "pitch": 77, "duration": 4, "velocity": 99}, {"time": 3302, "pitch": 77, "duration": 4, "velocity": 104}, {"time": 3308, "pitch": 77, "duration": 4, "velocity": 106}, {"time": 3314, "pitch": 75, "duration": 5, "velocity": 109}, {"time": 3320, "pitch": 77, "duration": 14, "velocity": 109}, {"time": 3338, "pitch": 75, "duration": 5, "velocity": 100}, {"time": 3344, "pitch": 72, "duration": 4, "velocity": 101}, {"time": 3350, "pitch": 72, "duration": 5, "velocity": 97}, {"time": 3356, "pitch": 72, "duration": 5, "velocity": 96}, {"time": 3362, "pitch": 70, "duration": 5, "velocity": 99}, {"time": 3368, "pitch": 72, "duration": 11, "velocity": 98}, {"time": 3380, "pitch": 65, "duration": 5, "velocity": 99}, {"time": 3386, "pitch": 72, "duration": 5, "velocity": 99}, {"time": 3392, "pitch": 70, "duration": 4, "velocity": 96}, {"time": 3404, "pitch": 70, "duration": 5, "velocity": 98}, {"time": 3410, "pitch": 65, "duration": 5, "velocity": 99}, {"time": 3416, "pitch": 67, "duration": 9, "velocity": 104}, {"time": 3428, "pitch": 67, "duration": 4, "velocity": 100}, {"time": 3434, "pitch": 63, "duration": 10, "velocity": 99}, {"time": 3446, "pitch": 65, "duration": 24, "velocity": 101}, {"time": 3542, "pitch": 69, "duration": 4, "velocity": 96}, {"time": 3548, "pitch": 69, "duration": 5, "velocity": 96}, {"time": 3554, "pitch": 71, "duration": 5, "velocity": 101}, {"time": 3560, "pitch": 73, "duration": 6, "velocity": 99}, {"time": 3566, "pitch": 69, "duration": 5, "velocity": 97}, {"time": 3572, "pitch": 73, "duration": 4, "velocity": 102}, {"time": 3578, "pitch": 78, "duration": 5, "velocity": 106}, {"time": 3584, "pitch": 76, "duration": 4, "velocity": 102}, {"time": 3590, "pitch": 76, "duration": 11, "velocity": 106}, {"time": 3602, "pitch": 74, "duration": 5, "velocity": 99}, {"time": 3608, "pitch": 73, "duration": 11, "velocity": 100}, {"time": 3620, "pitch": 71, "duration": 14, "velocity": 100}, {"time": 3638, "pitch": 73, "duration": 5, "velocity": 96}, {"time": 3644, "pitch": 73, "duration": 4, "velocity": 99}, {"time": 3650, "pitch": 73, "duration": 4, "velocity": 99}, {"time": 3656, "pitch": 73, "duration": 10, "velocity": 104}, {"time": 3668, "pitch": 78, "duration": 4, "velocity": 101}, {"time": 3674, "pitch": 80, "duration": 11, "velocity": 99}, {"time": 3686, "pitch": 76, "duration": 26, "velocity": 102}, {"time": 3722, "pitch": 80, "duration": 5, "velocity": 102}, {"time": 3728, "pitch": 78, "duration": 4, "velocity": 99}, {"time": 3734, "pitch": 78, "duration": 4, "velocity": 104}, {"time": 3740, "pitch": 78, "duration": 4, "velocity": 106}, {"time": 3746, "pitch": 76, "duration": 5, "velocity": 109}, {"time": 3752, "pitch": 78, "duration": 14, "velocity": 109}, {"time": 3770, "pitch": 76, "duration": 5, "velocity": 100}, {"time": 3776, "pitch": 73, "duration": 4, "velocity": 101}, {"time": 3782, "pitch": 73, "duration": 5, "velocity": 97}, {"time": 3788, "pitch": 73, "duration": 5, "velocity": 96}, {"time": 3794, "pitch": 71, "duration": 5, "velocity": 99}, {"time": 3800, "pitch": 73, "duration": 11, "velocity": 98}, {"time": 3812, "pitch": 66, "duration": 5, "velocity": 99}, {"time": 3818, "pitch": 73, "duration": 5, "velocity": 99}, {"time": 3824, "pitch": 71, "duration": 4, "velocity": 96}, {"time": 3830, "pitch": 71, "duration": 4, "velocity": 96}, {"time": 3836, "pitch": 71, "duration": 5, "velocity": 98}, {"time": 3842, "pitch": 69, "duration": 5, "velocity": 99}, {"time": 3848, "pitch": 66, "duration": 9, "velocity": 104}, {"time": 3860, "pitch": 76, "duration": 16, "velocity": 106}, {"time": 3878, "pitch": 71, "duration": 21, "velocity": 97}, {"time": 3926, "pitch": 69, "duration": 4, "velocity": 96}, {"time": 3932, "pitch": 69, "duration": 5, "velocity": 96}, {"time": 3938, "pitch": 71, "duration": 5, "velocity": 101}, {"time": 3944, "pitch": 73, "duration": 6, "velocity": 99}, {"time": 3950, "pitch": 69, "duration": 5, "velocity": 97}, {"time": 3956, "pitch": 73, "duration": 4, "velocity": 102}, {"time": 3962, "pitch": 78, "duration": 5, "velocity": 106}, {"time": 3968, "pitch": 76, "duration": 4, "velocity": 102}, {"time": 3974, "pitch": 76, "duration": 11, "velocity": 106}, {"time": 3986, "pitch": 74, "duration": 5, "velocity": 99}, {"time": 3992, "pitch": 73, "duration": 11, "velocity": 100}, {"time": 4004, "pitch": 71, "duration": 14, "velocity": 100}, {"time": 4022, "pitch": 73, "duration": 5, "velocity": 96}, {"time": 4028, "pitch": 73, "duration": 4, "velocity": 99}, {"time": 4034, "pitch": 73, "duration": 4, "velocity": 99}, {"time": 4040, "pitch": 73, "duration": 10, "velocity": 104}, {"time": 4052, "pitch": 78, "duration": 4, "velocity": 101}, {"time": 4058, "pitch": 80, "duration": 11, "velocity": 99}, {"time": 4070, "pitch": 76, "duration": 24, "velocity": 102}, {"time": 4094, "pitch": 81, "duration": 5, "velocity": 102}, {"time": 4100, "pitch": 81, "duration": 5, "velocity": 102}, {"time": 4106, "pitch": 80, "duration": 5, "velocity": 102}, {"time": 4112, "pitch": 78, "duration": 4, "velocity": 99}, {"time": 4118, "pitch": 78, "duration": 4, "velocity": 104}, {"time": 4124, "pitch": 78, "duration": 4, "velocity": 106}, {"time": 4130, "pitch": 76, "duration": 5, "velocity": 109}, {"time": 4136, "pitch": 78, "duration": 14, "velocity": 109}, {"time": 4154, "pitch": 76, "duration": 5, "velocity": 100}, {"time": 4160, "pitch": 73, "duration": 4, "velocity": 101}, {"time": 4166, "pitch": 73, "duration": 5, "velocity": 97}, {"time": 4172, "pitch": 73, "duration": 5, "velocity": 96}, {"time": 4178, "pitch": 71, "duration": 5, "velocity": 99}, {"time": 4184, "pitch": 73, "duration": 11, "velocity": 98}, {"time": 4196, "pitch": 66, "duration": 5, "velocity": 99}, {"time": 4202, "pitch": 73, "duration": 5, "velocity": 99}, {"time": 4208, "pitch": 71, "duration": 4, "velocity": 96}, {"time": 4220, "pitch": 71, "duration": 5, "velocity": 98}, {"time": 4226, "pitch": 66, "duration": 5, "velocity": 99}, {"time": 4232, "pitch": 68, "duration": 9, "velocity": 104}, {"time": 4244, "pitch": 68, "duration": 4, "velocity": 100}, {"time": 4250, "pitch": 64, "duration": 10, "velocity": 99}, {"time": 4262, "pitch": 66, "duration": 12, "velocity": 101}, {"time": 4286, "pitch": 81, "duration": 5, "velocity": 102}, {"time": 4292, "pitch": 81, "duration": 5, "velocity": 102}, {"time": 4298, "pitch": 80, "duration": 5, "velocity": 102}, {"time": 4304, "pitch": 78, "duration": 4, "velocity": 99}, {"time": 4310, "pitch": 78, "duration": 4, "velocity": 104}, {"time": 4316, "pitch": 78, "duration": 4, "velocity": 106}, {"time": 4322, "pitch": 76, "duration": 5, "velocity": 109}, {"time": 4328, "pitch": 78, "duration": 14, "velocity": 109}, {"time": 4346, "pitch": 76, "duration": 5, "velocity": 100}, {"time": 4352, "pitch": 73, "duration": 4, "velocity": 101}, {"time": 4358, "pitch": 73, "duration": 5, "velocity": 97}, {"time": 4364, "pitch": 73, "duration": 5, "velocity": 96}, {"time": 4370, "pitch": 71, "duration": 5, "velocity": 99}, {"time": 4376, "pitch": 73, "duration": 11, "velocity": 98}, {"time": 4388, "pitch": 66, "duration": 5, "velocity": 99}, {"time": 4394, "pitch": 73, "duration": 5, "velocity": 99}, {"time": 4400, "pitch": 71, "duration": 4, "velocity": 96}, {"time": 4412, "pitch": 71, "duration": 5, "velocity": 98}, {"time": 4418, "pitch": 66, "duration": 5, "velocity": 99}, {"time": 4424, "pitch": 68, "duration": 9, "velocity": 104}, {"time": 4436, "pitch": 68, "duration": 4, "velocity": 100}, {"time": 4442, "pitch": 64, "duration": 10, "velocity": 99}, {"time": 4454, "pitch": 66, "duration": 24, "velocity": 101}]}, {"program": 0, "is_drum": false, "name": "BRIDGE", "notes": [{"time": 38, "pitch": 59, "duration": 7, "velocity": 97}, {"time": 44, "pitch": 64, "duration": 7, "velocity": 100}, {"time": 50, "pitch": 66, "duration": 7, "velocity": 96}, {"time": 56, "pitch": 67, "duration": 6, "velocity": 96}, {"time": 62, "pitch": 64, "duration": 8, "velocity": 102}, {"time": 68, "pitch": 67, "duration": 7, "velocity": 96}, {"time": 74, "pitch": 71, "duration": 7, "velocity": 98}, {"time": 80, "pitch": 74, "duration": 19, "velocity": 109}, {"time": 98, "pitch": 72, "duration": 6, "velocity": 102}, {"time": 104, "pitch": 64, "duration": 23, "velocity": 109}, {"time": 140, "pitch": 66, "duration": 8, "velocity": 99}, {"time": 146, "pitch": 67, "duration": 7, "velocity": 96}, {"time": 152, "pitch": 69, "duration": 6, "velocity": 99}, {"time": 158, "pitch": 62, "duration": 8, "velocity": 100}, {"time": 164, "pitch": 69, "duration": 7, "velocity": 100}, {"time": 170, "pitch": 72, "duration": 6, "velocity": 99}, {"time": 176, "pitch": 72, "duration": 15, "velocity": 102}, {"time": 194, "pitch": 71, "duration": 5, "velocity": 104}, {"time": 200, "pitch": 71, "duration": 15, "velocity": 102}, {"time": 218, "pitch": 67, "duration": 7, "velocity": 95}, {"time": 218, "pitch": 71, "duration": 5, "velocity": 112}, {"time": 224, "pitch": 72, "duration": 16, "velocity": 91}, {"time": 224, "pitch": 76, "duration": 16, "velocity": 111}, {"time": 242, "pitch": 72, "duration": 11, "velocity": 95}, {"time": 242, "pitch": 76, "duration": 11, "velocity": 102}, {"time": 254, "pitch": 74, "duration": 5, "velocity": 96}, {"time": 254, "pitch": 78, "duration": 5, "velocity": 101}, {"time": 260, "pitch": 76, "duration": 5, "velocity": 96}, {"time": 260, "pitch": 79, "duration": 11, "velocity": 100}, {"time": 272, "pitch": 72, "duration": 12, "velocity": 97}, {"time": 272, "pitch": 76, "duration": 15, "velocity": 109}, {"time": 290, "pitch": 72, "duration": 11, "velocity": 96}, {"time": 290, "pitch": 76, "duration": 11, "velocity": 102}, {"time": 302, "pitch": 74, "duration": 5, "velocity": 101}, {"time": 302, "pitch": 78, "duration": 5, "velocity": 98}, {"time": 308, "pitch": 76, "duration": 12, "velocity": 95}, {"time": 308, "pitch": 79, "duration": 11, "velocity": 102}, {"time": 320, "pitch": 71, "duration": 23, "velocity": 97}, {"time": 320, "pitch": 78, "duration": 21, "velocity": 101}, {"time": 344, "pitch": 66, "duration": 15, "velocity": 95}, {"time": 344, "pitch": 71, "duration": 14, "velocity": 89}, {"time": 362, "pitch": 67, "duration": 6, "velocity": 95}, {"time": 362, "pitch": 72, "duration": 6, "velocity": 88}, {"time": 368, "pitch": 66, "duration": 48, "velocity": 93}, {"time": 368, "pitch": 71, "duration": 48, "velocity": 86}, {"time": 872, "pitch": 76, "duration": 7, "velocity": 102}, {"time": 878, "pitch": 78, "duration": 8, "velocity": 95}, {"time": 884, "pitch": 79, "duration": 6, "velocity": 98}, {"time": 890, "pitch": 86, "duration": 7, "velocity": 98}, {"time": 896, "pitch": 84, "duration": 47, "velocity": 102}, {"time": 968, "pitch": 79, "duration": 8, "velocity": 100}, {"time": 974, "pitch": 81, "duration": 6, "velocity": 106}, {"time": 980, "pitch": 83, "duration": 7, "velocity": 101}, {"time": 986, "pitch": 86, "duration": 6, "velocity": 99}, {"time": 992, "pitch": 84, "duration": 39, "velocity": 102}, {"time": 1040, "pitch": 76, "duration": 21, "velocity": 87}, {"time": 1040, "pitch": 79, "duration": 22, "velocity": 84}, {"time": 1064, "pitch": 73, "duration": 21, "velocity": 82}, {"time": 1064, "pitch": 76, "duration": 22, "velocity": 89}, {"time": 1088, "pitch": 76, "duration": 23, "velocity": 93}, {"time": 1124, "pitch": 78, "duration": 13, "velocity": 89}, {"time": 1136, "pitch": 76, "duration": 12, "velocity": 92}, {"time": 1148, "pitch": 76, "duration": 3, "velocity": 106}, {"time": 1152, "pitch": 78, "duration": 3, "velocity": 101}, {"time": 1154, "pitch": 79, "duration": 4, "velocity": 94}, {"time": 1158, "pitch": 78, "duration": 2, "velocity": 100}, {"time": 1160, "pitch": 79, "duration": 4, "velocity": 91}, {"time": 1164, "pitch": 81, "duration": 3, "velocity": 93}, {"time": 1166, "pitch": 83, "duration": 3, "velocity": 101}, {"time": 1170, "pitch": 84, "duration": 2, "velocity": 93}, {"time": 1172, "pitch": 86, "duration": 4, "velocity": 96}, {"time": 1176, "pitch": 88, "duration": 2, "velocity": 97}, {"time": 1178, "pitch": 90, "duration": 5, "velocity": 94}, {"time": 1182, "pitch": 86, "duration": 2, "velocity": 96}, {"time": 1184, "pitch": 91, "duration": 50, "velocity": 100}, {"time": 1232, "pitch": 90, "duration": 48, "velocity": 96}, {"time": 1280, "pitch": 88, "duration": 46, "velocity": 93}, {"time": 1334, "pitch": 86, "duration": 4, "velocity": 98}, {"time": 1338, "pitch": 88, "duration": 3, "velocity": 95}, {"time": 1340, "pitch": 90, "duration": 6, "velocity": 106}, {"time": 1346, "pitch": 86, "duration": 7, "velocity": 97}, {"time": 1352, "pitch": 83, "duration": 7, "velocity": 99}, {"time": 1358, "pitch": 78, "duration": 6, "velocity": 95}, {"time": 1364, "pitch": 74, "duration": 7, "velocity": 102}, {"time": 1370, "pitch": 88, "duration": 4, "velocity": 91}, {"time": 1374, "pitch": 90, "duration": 3, "velocity": 89}, {"time": 1376, "pitch": 91, "duration": 27, "velocity": 99}, {"time": 1406, "pitch": 90, "duration": 7, "velocity": 96}, {"time": 1412, "pitch": 88, "duration": 6, "velocity": 102}, {"time": 1418, "pitch": 86, "duration": 6, "velocity": 96}, {"time": 1424, "pitch": 88, "duration": 35, "velocity": 99}, {"time": 1460, "pitch": 86, "duration": 13, "velocity": 97}, {"time": 1472, "pitch": 84, "duration": 37, "velocity": 102}, {"time": 1508, "pitch": 83, "duration": 12, "velocity": 97}, {"time": 1520, "pitch": 81, "duration": 24, "velocity": 97}, {"time": 1544, "pitch": 74, "duration": 4, "velocity": 104}, {"time": 1548, "pitch": 76, "duration": 2, "velocity": 97}, {"time": 1550, "pitch": 78, "duration": 4, "velocity": 81}, {"time": 1554, "pitch": 76, "duration": 3, "velocity": 97}, {"time": 1556, "pitch": 78, "duration": 4, "velocity": 91}, {"time": 1560, "pitch": 79, "duration": 3, "velocity": 96}, {"time": 1562, "pitch": 81, "duration": 6, "velocity": 98}, {"time": 1568, "pitch": 86, "duration": 23, "velocity": 96}, {"time": 1592, "pitch": 79, "duration": 8, "velocity": 95}, {"time": 1598, "pitch": 81, "duration": 7, "velocity": 101}, {"time": 1604, "pitch": 83, "duration": 7, "velocity": 99}, {"time": 1610, "pitch": 88, "duration": 7, "velocity": 98}, {"time": 1616, "pitch": 86, "duration": 18, "velocity": 102}, {"time": 1634, "pitch": 84, "duration": 6, "velocity": 102}, {"time": 1640, "pitch": 83, "duration": 12, "velocity": 99}, {"time": 1652, "pitch": 81, "duration": 12, "velocity": 109}, {"time": 1670, "pitch": 83, "duration": 4, "velocity": 91}, {"time": 1676, "pitch": 83, "duration": 4, "velocity": 100}, {"time": 1682, "pitch": 83, "duration": 5, "velocity": 101}, {"time": 1688, "pitch": 83, "duration": 9, "velocity": 106}, {"time": 1694, "pitch": 88, "duration": 11, "velocity": 106}, {"time": 1706, "pitch": 90, "duration": 12, "velocity": 101}, {"time": 1718, "pitch": 86, "duration": 25, "velocity": 101}, {"time": 1742, "pitch": 90, "duration": 6, "velocity": 100}, {"time": 1748, "pitch": 91, "duration": 7, "velocity": 95}, {"time": 1754, "pitch": 90, "duration": 7, "velocity": 100}, {"time": 1760, "pitch": 88, "duration": 4, "velocity": 99}, {"time": 1766, "pitch": 88, "duration": 6, "velocity": 100}, {"time": 1772, "pitch": 88, "duration": 6, "velocity": 101}, {"time": 1778, "pitch": 86, "duration": 7, "velocity": 102}, {"time": 1784, "pitch": 88, "duration": 21, "velocity": 106}, {"time": 1802, "pitch": 86, "duration": 7, "velocity": 99}, {"time": 1808, "pitch": 83, "duration": 18, "velocity": 99}, {"time": 1826, "pitch": 81, "duration": 8, "velocity": 97}, {"time": 1832, "pitch": 83, "duration": 12, "velocity": 99}, {"time": 1844, "pitch": 76, "duration": 6, "velocity": 100}, {"time": 1850, "pitch": 83, "duration": 7, "velocity": 100}, {"time": 1856, "pitch": 81, "duration": 18, "velocity": 101}, {"time": 1874, "pitch": 76, "duration": 6, "velocity": 97}, {"time": 1880, "pitch": 78, "duration": 18, "velocity": 97}, {"time": 1898, "pitch": 74, "duration": 8, "velocity": 99}, {"time": 1904, "pitch": 76, "duration": 49, "velocity": 101}, {"time": 1958, "pitch": 80, "duration": 5, "velocity": 93}, {"time": 1958, "pitch": 84, "duration": 5, "velocity": 106}, {"time": 1964, "pitch": 80, "duration": 5, "velocity": 96}, {"time": 1964, "pitch": 84, "duration": 4, "velocity": 104}, {"time": 1970, "pitch": 79, "duration": 5, "velocity": 96}, {"time": 1970, "pitch": 82, "duration": 6, "velocity": 100}, {"time": 1976, "pitch": 77, "duration": 8, "velocity": 99}, {"time": 1976, "pitch": 80, "duration": 8, "velocity": 111}, {"time": 1986, "pitch": 79, "duration": 6, "velocity": 99}, {"time": 1986, "pitch": 82, "duration": 6, "velocity": 109}, {"time": 1994, "pitch": 80, "duration": 6, "velocity": 97}, {"time": 1994, "pitch": 84, "duration": 6, "velocity": 112}, {"time": 2000, "pitch": 84, "duration": 8, "velocity": 99}, {"time": 2000, "pitch": 87, "duration": 8, "velocity": 109}, {"time": 2010, "pitch": 82, "duration": 6, "velocity": 95}, {"time": 2010, "pitch": 85, "duration": 6, "velocity": 101}, {"time": 2018, "pitch": 80, "duration": 5, "velocity": 97}, {"time": 2018, "pitch": 84, "duration": 5, "velocity": 99}, {"time": 2024, "pitch": 80, "duration": 10, "velocity": 101}, {"time": 2024, "pitch": 84, "duration": 10, "velocity": 104}, {"time": 2036, "pitch": 82, "duration": 12, "velocity": 98}, {"time": 2036, "pitch": 85, "duration": 13, "velocity": 106}, {"time": 2054, "pitch": 75, "duration": 4, "velocity": 86}, {"time": 2054, "pitch": 79, "duration": 5, "velocity": 96}, {"time": 2060, "pitch": 75, "duration": 5, "velocity": 93}, {"time": 2060, "pitch": 79, "duration": 5, "velocity": 99}, {"time": 2066, "pitch": 77, "duration": 5, "velocity": 90}, {"time": 2066, "pitch": 80, "duration": 6, "velocity": 95}, {"time": 2072, "pitch": 79, "duration": 8, "velocity": 90}, {"time": 2072, "pitch": 82, "duration": 8, "velocity": 99}, {"time": 2082, "pitch": 75, "duration": 6, "velocity": 92}, {"time": 2082, "pitch": 79, "duration": 6, "velocity": 96}, {"time": 2090, "pitch": 70, "duration": 6, "velocity": 100}, {"time": 2090, "pitch": 75, "duration": 6, "velocity": 99}, {"time": 2096, "pitch": 82, "duration": 8, "velocity": 96}, {"time": 2096, "pitch": 85, "duration": 8, "velocity": 111}, {"time": 2106, "pitch": 80, "duration": 8, "velocity": 96}, {"time": 2106, "pitch": 84, "duration": 7, "velocity": 111}, {"time": 2114, "pitch": 79, "duration": 6, "velocity": 96}, {"time": 2114, "pitch": 82, "duration": 5, "velocity": 106}, {"time": 2120, "pitch": 80, "duration": 13, "velocity": 101}, {"time": 2120, "pitch": 84, "duration": 21, "velocity": 106}, {"time": 2150, "pitch": 89, "duration": 3, "velocity": 106}, {"time": 2154, "pitch": 91, "duration": 3, "velocity": 112}, {"time": 2156, "pitch": 92, "duration": 13, "velocity": 116}, {"time": 2162, "pitch": 65, "duration": 2, "velocity": 95}, {"time": 2162, "pitch": 77, "duration": 6, "velocity": 86}, {"time": 2168, "pitch": 65, "duration": 7, "velocity": 99}, {"time": 2168, "pitch": 77, "duration": 7, "velocity": 97}, {"time": 2174, "pitch": 67, "duration": 6, "velocity": 95}, {"time": 2174, "pitch": 79, "duration": 6, "velocity": 95}, {"time": 2180, "pitch": 68, "duration": 10, "velocity": 91}, {"time": 2180, "pitch": 80, "duration": 11, "velocity": 95}, {"time": 2184, "pitch": 92, "duration": 3, "velocity": 112}, {"time": 2186, "pitch": 91, "duration": 3, "velocity": 96}, {"time": 2190, "pitch": 89, "duration": 1, "velocity": 104}, {"time": 2192, "pitch": 89, "duration": 3, "velocity": 106}, {"time": 2196, "pitch": 91, "duration": 2, "velocity": 104}, {"time": 2198, "pitch": 91, "duration": 3, "velocity": 111}, {"time": 2202, "pitch": 91, "duration": 6, "velocity": 99}, {"time": 2208, "pitch": 89, "duration": 5, "velocity": 98}, {"time": 2210, "pitch": 65, "duration": 4, "velocity": 90}, {"time": 2210, "pitch": 77, "duration": 4, "velocity": 86}, {"time": 2214, "pitch": 85, "duration": 1, "velocity": 94}, {"time": 2216, "pitch": 65, "duration": 7, "velocity": 98}, {"time": 2216, "pitch": 77, "duration": 8, "velocity": 95}, {"time": 2216, "pitch": 85, "duration": 13, "velocity": 94}, {"time": 2222, "pitch": 67, "duration": 4, "velocity": 89}, {"time": 2222, "pitch": 79, "duration": 4, "velocity": 91}, {"time": 2228, "pitch": 68, "duration": 6, "velocity": 88}, {"time": 2228, "pitch": 80, "duration": 7, "velocity": 95}, {"time": 2234, "pitch": 65, "duration": 5, "velocity": 89}, {"time": 2234, "pitch": 77, "duration": 6, "velocity": 87}, {"time": 2240, "pitch": 67, "duration": 12, "velocity": 83}, {"time": 2240, "pitch": 79, "duration": 10, "velocity": 87}, {"time": 2246, "pitch": 84, "duration": 4, "velocity": 104}, {"time": 2250, "pitch": 82, "duration": 3, "velocity": 102}, {"time": 2252, "pitch": 79, "duration": 3, "velocity": 95}, {"time": 2256, "pitch": 76, "duration": 4, "velocity": 96}, {"time": 2258, "pitch": 72, "duration": 8, "velocity": 87}, {"time": 2280, "pitch": 60, "duration": 2, "velocity": 90}, {"time": 2281, "pitch": 62, "duration": 3, "velocity": 87}, {"time": 2283, "pitch": 64, "duration": 4, "velocity": 88}, {"time": 2285, "pitch": 65, "duration": 3, "velocity": 98}, {"time": 2286, "pitch": 67, "duration": 2, "velocity": 88}, {"time": 2287, "pitch": 68, "duration": 5, "velocity": 90}, {"time": 2289, "pitch": 70, "duration": 7, "velocity": 90}, {"time": 2294, "pitch": 85, "duration": 2, "velocity": 99}, {"time": 2298, "pitch": 85, "duration": 1, "velocity": 96}, {"time": 2300, "pitch": 85, "duration": 3, "velocity": 99}, {"time": 2304, "pitch": 82, "duration": 1, "velocity": 102}, {"time": 2306, "pitch": 82, "duration": 2, "velocity": 96}, {"time": 2310, "pitch": 82, "duration": 14, "velocity": 96}, {"time": 2324, "pitch": 84, "duration": 10, "velocity": 96}, {"time": 2408, "pitch": 77, "duration": 7, "velocity": 102}, {"time": 2414, "pitch": 79, "duration": 8, "velocity": 95}, {"time": 2420, "pitch": 80, "duration": 6, "velocity": 98}, {"time": 2426, "pitch": 87, "duration": 7, "velocity": 98}, {"time": 2432, "pitch": 85, "duration": 47, "velocity": 102}, {"time": 2504, "pitch": 80, "duration": 8, "velocity": 100}, {"time": 2510, "pitch": 82, "duration": 6, "velocity": 106}, {"time": 2516, "pitch": 84, "duration": 7, "velocity": 101}, {"time": 2522, "pitch": 87, "duration": 6, "velocity": 99}, {"time": 2528, "pitch": 85, "duration": 39, "velocity": 102}, {"time": 2576, "pitch": 77, "duration": 21, "velocity": 87}, {"time": 2576, "pitch": 80, "duration": 22, "velocity": 84}, {"time": 2600, "pitch": 74, "duration": 21, "velocity": 82}, {"time": 2600, "pitch": 77, "duration": 22, "velocity": 89}, {"time": 2624, "pitch": 77, "duration": 23, "velocity": 93}, {"time": 2660, "pitch": 79, "duration": 13, "velocity": 89}, {"time": 2672, "pitch": 77, "duration": 12, "velocity": 92}, {"time": 2684, "pitch": 77, "duration": 3, "velocity": 106}, {"time": 2688, "pitch": 79, "duration": 3, "velocity": 101}, {"time": 2690, "pitch": 80, "duration": 4, "velocity": 94}, {"time": 2694, "pitch": 79, "duration": 2, "velocity": 100}, {"time": 2696, "pitch": 80, "duration": 4, "velocity": 91}, {"time": 2700, "pitch": 82, "duration": 3, "velocity": 93}, {"time": 2702, "pitch": 84, "duration": 3, "velocity": 101}, {"time": 2706, "pitch": 85, "duration": 2, "velocity": 93}, {"time": 2708, "pitch": 87, "duration": 4, "velocity": 96}, {"time": 2712, "pitch": 89, "duration": 2, "velocity": 97}, {"time": 2714, "pitch": 91, "duration": 5, "velocity": 94}, {"time": 2718, "pitch": 87, "duration": 2, "velocity": 96}, {"time": 2720, "pitch": 92, "duration": 50, "velocity": 100}, {"time": 2768, "pitch": 91, "duration": 48, "velocity": 96}, {"time": 2816, "pitch": 89, "duration": 46, "velocity": 93}, {"time": 2870, "pitch": 87, "duration": 4, "velocity": 98}, {"time": 2874, "pitch": 89, "duration": 3, "velocity": 95}, {"time": 2876, "pitch": 91, "duration": 6, "velocity": 106}, {"time": 2882, "pitch": 87, "duration": 7, "velocity": 97}, {"time": 2888, "pitch": 84, "duration": 7, "velocity": 99}, {"time": 2894, "pitch": 79, "duration": 6, "velocity": 95}, {"time": 2900, "pitch": 75, "duration": 7, "velocity": 102}, {"time": 2906, "pitch": 89, "duration": 4, "velocity": 91}, {"time": 2910, "pitch": 91, "duration": 3, "velocity": 89}, {"time": 2912, "pitch": 92, "duration": 27, "velocity": 99}, {"time": 2942, "pitch": 91, "duration": 7, "velocity": 96}, {"time": 2948, "pitch": 89, "duration": 6, "velocity": 102}, {"time": 2954, "pitch": 87, "duration": 6, "velocity": 96}, {"time": 2960, "pitch": 89, "duration": 35, "velocity": 99}, {"time": 2996, "pitch": 87, "duration": 13, "velocity": 97}, {"time": 3008, "pitch": 85, "duration": 37, "velocity": 102}, {"time": 3044, "pitch": 84, "duration": 12, "velocity": 97}, {"time": 3056, "pitch": 82, "duration": 24, "velocity": 97}, {"time": 3080, "pitch": 75, "duration": 4, "velocity": 104}, {"time": 3084, "pitch": 77, "duration": 2, "velocity": 97}, {"time": 3086, "pitch": 79, "duration": 4, "velocity": 81}, {"time": 3090, "pitch": 77, "duration": 3, "velocity": 97}, {"time": 3092, "pitch": 79, "duration": 4, "velocity": 91}, {"time": 3096, "pitch": 80, "duration": 3, "velocity": 96}, {"time": 3098, "pitch": 82, "duration": 6, "velocity": 98}, {"time": 3104, "pitch": 87, "duration": 23, "velocity": 96}, {"time": 3128, "pitch": 80, "duration": 8, "velocity": 95}, {"time": 3134, "pitch": 82, "duration": 7, "velocity": 101}, {"time": 3140, "pitch": 84, "duration": 7, "velocity": 99}, {"time": 3146, "pitch": 89, "duration": 7, "velocity": 98}, {"time": 3152, "pitch": 87, "duration": 18, "velocity": 102}, {"time": 3170, "pitch": 85, "duration": 6, "velocity": 102}, {"time": 3176, "pitch": 84, "duration": 12, "velocity": 99}, {"time": 3188, "pitch": 82, "duration": 12, "velocity": 109}, {"time": 3206, "pitch": 84, "duration": 4, "velocity": 91}, {"time": 3212, "pitch": 84, "duration": 4, "velocity": 100}, {"time": 3218, "pitch": 84, "duration": 5, "velocity": 101}, {"time": 3224, "pitch": 84, "duration": 9, "velocity": 106}, {"time": 3230, "pitch": 89, "duration": 11, "velocity": 106}, {"time": 3242, "pitch": 91, "duration": 12, "velocity": 101}, {"time": 3254, "pitch": 87, "duration": 25, "velocity": 101}, {"time": 3278, "pitch": 91, "duration": 6, "velocity": 100}, {"time": 3284, "pitch": 92, "duration": 7, "velocity": 95}, {"time": 3290, "pitch": 91, "duration": 7, "velocity": 100}, {"time": 3296, "pitch": 89, "duration": 4, "velocity": 99}, {"time": 3302, "pitch": 89, "duration": 6, "velocity": 100}, {"time": 3308, "pitch": 89, "duration": 6, "velocity": 101}, {"time": 3314, "pitch": 87, "duration": 7, "velocity": 102}, {"time": 3320, "pitch": 89, "duration": 21, "velocity": 106}, {"time": 3338, "pitch": 87, "duration": 7, "velocity": 99}, {"time": 3344, "pitch": 84, "duration": 18, "velocity": 99}, {"time": 3362, "pitch": 82, "duration": 8, "velocity": 97}, {"time": 3368, "pitch": 84, "duration": 12, "velocity": 99}, {"time": 3380, "pitch": 77, "duration": 6, "velocity": 100}, {"time": 3386, "pitch": 84, "duration": 7, "velocity": 100}, {"time": 3392, "pitch": 82, "duration": 18, "velocity": 101}, {"time": 3410, "pitch": 77, "duration": 6, "velocity": 97}, {"time": 3416, "pitch": 79, "duration": 18, "velocity": 97}, {"time": 3434, "pitch": 75, "duration": 8, "velocity": 99}, {"time": 3440, "pitch": 65, "duration": 8, "velocity": 102}, {"time": 3440, "pitch": 77, "duration": 8, "velocity": 95}, {"time": 3452, "pitch": 67, "duration": 7, "velocity": 96}, {"time": 3452, "pitch": 79, "duration": 7, "velocity": 98}, {"time": 3458, "pitch": 68, "duration": 4, "velocity": 106}, {"time": 3458, "pitch": 80, "duration": 5, "velocity": 101}, {"time": 3464, "pitch": 68, "duration": 8, "velocity": 102}, {"time": 3464, "pitch": 80, "duration": 8, "velocity": 106}, {"time": 3470, "pitch": 67, "duration": 7, "velocity": 100}, {"time": 3470, "pitch": 79, "duration": 8, "velocity": 104}, {"time": 3482, "pitch": 65, "duration": 5, "velocity": 111}, {"time": 3482, "pitch": 77, "duration": 5, "velocity": 97}, {"time": 3488, "pitch": 69, "duration": 4, "velocity": 112}, {"time": 3492, "pitch": 68, "duration": 3, "velocity": 109}, {"time": 3494, "pitch": 66, "duration": 4, "velocity": 100}, {"time": 3498, "pitch": 68, "duration": 3, "velocity": 99}, {"time": 3500, "pitch": 69, "duration": 4, "velocity": 95}, {"time": 3504, "pitch": 68, "duration": 2, "velocity": 99}, {"time": 3506, "pitch": 69, "duration": 3, "velocity": 95}, {"time": 3510, "pitch": 71, "duration": 3, "velocity": 91}, {"time": 3512, "pitch": 73, "duration": 4, "velocity": 92}, {"time": 3516, "pitch": 71, "duration": 3, "velocity": 82}, {"time": 3518, "pitch": 73, "duration": 4, "velocity": 84}, {"time": 3522, "pitch": 74, "duration": 3, "velocity": 101}, {"time": 3524, "pitch": 73, "duration": 3, "velocity": 86}, {"time": 3528, "pitch": 71, "duration": 2, "velocity": 98}, {"time": 3530, "pitch": 73, "duration": 5, "velocity": 108}, {"time": 3536, "pitch": 93, "duration": 50, "velocity": 100}, {"time": 3584, "pitch": 92, "duration": 48, "velocity": 96}, {"time": 3632, "pitch": 90, "duration": 46, "velocity": 93}, {"time": 3686, "pitch": 88, "duration": 4, "velocity": 98}, {"time": 3690, "pitch": 90, "duration": 3, "velocity": 95}, {"time": 3692, "pitch": 92, "duration": 6, "velocity": 106}, {"time": 3698, "pitch": 88, "duration": 7, "velocity": 97}, {"time": 3704, "pitch": 85, "duration": 7, "velocity": 99}, {"time": 3710, "pitch": 80, "duration": 6, "velocity": 95}, {"time": 3716, "pitch": 76, "duration": 7, "velocity": 102}, {"time": 3722, "pitch": 90, "duration": 4, "velocity": 91}, {"time": 3726, "pitch": 92, "duration": 3, "velocity": 89}, {"time": 3728, "pitch": 93, "duration": 27, "velocity": 99}, {"time": 3758, "pitch": 92, "duration": 7, "velocity": 96}, {"time": 3764, "pitch": 90, "duration": 6, "velocity": 102}, {"time": 3770, "pitch": 88, "duration": 6, "velocity": 96}, {"time": 3776, "pitch": 90, "duration": 35, "velocity": 99}, {"time": 3812, "pitch": 88, "duration": 13, "velocity": 97}, {"time": 3824, "pitch": 86, "duration": 37, "velocity": 102}, {"time": 3860, "pitch": 85, "duration": 12, "velocity": 97}, {"time": 3872, "pitch": 83, "duration": 24, "velocity": 97}, {"time": 3896, "pitch": 76, "duration": 4, "velocity": 104}, {"time": 3900, "pitch": 78, "duration": 2, "velocity": 97}, {"time": 3902, "pitch": 80, "duration": 4, "velocity": 81}, {"time": 3906, "pitch": 78, "duration": 3, "velocity": 97}, {"time": 3908, "pitch": 80, "duration": 4, "velocity": 91}, {"time": 3912, "pitch": 81, "duration": 3, "velocity": 96}, {"time": 3914, "pitch": 83, "duration": 6, "velocity": 98}, {"time": 3920, "pitch": 88, "duration": 23, "velocity": 96}, {"time": 3944, "pitch": 81, "duration": 8, "velocity": 95}, {"time": 3950, "pitch": 83, "duration": 7, "velocity": 101}, {"time": 3956, "pitch": 85, "duration": 7, "velocity": 99}, {"time": 3962, "pitch": 90, "duration": 7, "velocity": 98}, {"time": 3968, "pitch": 88, "duration": 18, "velocity": 102}, {"time": 3986, "pitch": 86, "duration": 6, "velocity": 102}, {"time": 3992, "pitch": 85, "duration": 12, "velocity": 99}, {"time": 4004, "pitch": 83, "duration": 12, "velocity": 109}, {"time": 4022, "pitch": 85, "duration": 4, "velocity": 91}, {"time": 4028, "pitch": 85, "duration": 4, "velocity": 100}, {"time": 4034, "pitch": 85, "duration": 5, "velocity": 101}, {"time": 4040, "pitch": 85, "duration": 9, "velocity": 106}, {"time": 4046, "pitch": 90, "duration": 11, "velocity": 106}, {"time": 4058, "pitch": 92, "duration": 12, "velocity": 101}, {"time": 4070, "pitch": 88, "duration": 25, "velocity": 101}, {"time": 4094, "pitch": 92, "duration": 6, "velocity": 100}, {"time": 4100, "pitch": 93, "duration": 7, "velocity": 95}, {"time": 4106, "pitch": 92, "duration": 7, "velocity": 100}, {"time": 4112, "pitch": 90, "duration": 4, "velocity": 99}, {"time": 4118, "pitch": 90, "duration": 6, "velocity": 100}, {"time": 4124, "pitch": 90, "duration": 6, "velocity": 101}, {"time": 4130, "pitch": 88, "duration": 7, "velocity": 102}, {"time": 4136, "pitch": 90, "duration": 21, "velocity": 106}, {"time": 4154, "pitch": 88, "duration": 7, "velocity": 99}, {"time": 4160, "pitch": 85, "duration": 18, "velocity": 99}, {"time": 4178, "pitch": 83, "duration": 8, "velocity": 97}, {"time": 4184, "pitch": 85, "duration": 12, "velocity": 99}, {"time": 4196, "pitch": 78, "duration": 6, "velocity": 100}, {"time": 4202, "pitch": 85, "duration": 7, "velocity": 100}, {"time": 4208, "pitch": 83, "duration": 18, "velocity": 101}, {"time": 4226, "pitch": 78, "duration": 6, "velocity": 97}, {"time": 4232, "pitch": 80, "duration": 18, "velocity": 97}, {"time": 4250, "pitch": 76, "duration": 8, "velocity": 99}, {"time": 4256, "pitch": 66, "duration": 8, "velocity": 102}, {"time": 4256, "pitch": 78, "duration": 8, "velocity": 95}, {"time": 4268, "pitch": 68, "duration": 7, "velocity": 96}, {"time": 4268, "pitch": 80, "duration": 7, "velocity": 98}, {"time": 4274, "pitch": 69, "duration": 4, "velocity": 106}, {"time": 4274, "pitch": 81, "duration": 5, "velocity": 101}, {"time": 4280, "pitch": 69, "duration": 8, "velocity": 102}, {"time": 4280, "pitch": 81, "duration": 8, "velocity": 106}, {"time": 4286, "pitch": 68, "duration": 7, "velocity": 100}, {"time": 4286, "pitch": 80, "duration": 8, "velocity": 104}, {"time": 4298, "pitch": 66, "duration": 5, "velocity": 111}, {"time": 4298, "pitch": 78, "duration": 5, "velocity": 97}, {"time": 4304, "pitch": 90, "duration": 4, "velocity": 99}, {"time": 4310, "pitch": 90, "duration": 6, "velocity": 100}, {"time": 4316, "pitch": 90, "duration": 6, "velocity": 101}, {"time": 4322, "pitch": 88, "duration": 7, "velocity": 102}, {"time": 4328, "pitch": 90, "duration": 21, "velocity": 106}, {"time": 4346, "pitch": 88, "duration": 7, "velocity": 99}, {"time": 4352, "pitch": 85, "duration": 18, "velocity": 99}, {"time": 4370, "pitch": 83, "duration": 8, "velocity": 97}, {"time": 4376, "pitch": 85, "duration": 12, "velocity": 99}, {"time": 4388, "pitch": 78, "duration": 6, "velocity": 100}, {"time": 4394, "pitch": 85, "duration": 7, "velocity": 100}, {"time": 4400, "pitch": 83, "duration": 18, "velocity": 101}, {"time": 4418, "pitch": 78, "duration": 6, "velocity": 97}, {"time": 4424, "pitch": 80, "duration": 18, "velocity": 97}, {"time": 4442, "pitch": 76, "duration": 8, "velocity": 99}, {"time": 4448, "pitch": 66, "duration": 8, "velocity": 102}, {"time": 4448, "pitch": 78, "duration": 8, "velocity": 95}, {"time": 4460, "pitch": 68, "duration": 7, "velocity": 96}, {"time": 4460, "pitch": 80, "duration": 7, "velocity": 98}, {"time": 4466, "pitch": 69, "duration": 4, "velocity": 106}, {"time": 4466, "pitch": 81, "duration": 5, "velocity": 101}, {"time": 4472, "pitch": 69, "duration": 8, "velocity": 102}, {"time": 4472, "pitch": 81, "duration": 8, "velocity": 106}, {"time": 4478, "pitch": 68, "duration": 7, "velocity": 100}, {"time": 4478, "pitch": 80, "duration": 8, "velocity": 104}, {"time": 4490, "pitch": 66, "duration": 5, "velocity": 111}, {"time": 4490, "pitch": 78, "duration": 5, "velocity": 97}, {"time": 4497, "pitch": 78, "duration": 19, "velocity": 109}, {"time": 4497, "pitch": 66, "duration": 19, "velocity": 109}, {"time": 4515, "pitch": 68, "duration": 13, "velocity": 111}, {"time": 4515, "pitch": 80, "duration": 13, "velocity": 111}, {"time": 4528, "pitch": 69, "duration": 8, "velocity": 102}, {"time": 4528, "pitch": 81, "duration": 8, "velocity": 102}, {"time": 4534, "pitch": 71, "duration": 6, "velocity": 112}, {"time": 4534, "pitch": 83, "duration": 6, "velocity": 112}, {"time": 4540, "pitch": 85, "duration": 7, "velocity": 109}, {"time": 4540, "pitch": 73, "duration": 7, "velocity": 109}, {"time": 4546, "pitch": 86, "duration": 10, "velocity": 112}, {"time": 4546, "pitch": 74, "duration": 10, "velocity": 112}, {"time": 4558, "pitch": 73, "duration": 12, "velocity": 98}, {"time": 4558, "pitch": 85, "duration": 12, "velocity": 98}, {"time": 4571, "pitch": 83, "duration": 12, "velocity": 102}, {"time": 4571, "pitch": 71, "duration": 12, "velocity": 102}, {"time": 4583, "pitch": 66, "duration": 11, "velocity": 97}, {"time": 4583, "pitch": 78, "duration": 11, "velocity": 97}, {"time": 4595, "pitch": 68, "duration": 39, "velocity": 106}, {"time": 4595, "pitch": 80, "duration": 39, "velocity": 106}, {"time": 4635, "pitch": 64, "duration": 17, "velocity": 101}, {"time": 4635, "pitch": 76, "duration": 17, "velocity": 101}, {"time": 4651, "pitch": 78, "duration": 112, "velocity": 95}, {"time": 4651, "pitch": 66, "duration": 112, "velocity": 95}]}, {"program": 0, "is_drum": false, "name": "PIANO", "notes": [{"time": 28, "pitch": 52, "duration": 10, "velocity": 87}, {"time": 30, "pitch": 55, "duration": 11, "velocity": 91}, {"time": 31, "pitch": 59, "duration": 8, "velocity": 85}, {"time": 31, "pitch": 64, "duration": 9, "velocity": 98}, {"time": 32, "pitch": 40, "duration": 40, "velocity": 99}, {"time": 37, "pitch": 47, "duration": 34, "velocity": 86}, {"time": 43, "pitch": 52, "duration": 4, "velocity": 91}, {"time": 49, "pitch": 54, "duration": 4, "velocity": 83}, {"time": 56, "pitch": 55, "duration": 7, "velocity": 91}, {"time": 62, "pitch": 59, "duration": 3, "velocity": 98}, {"time": 68, "pitch": 59, "duration": 6, "velocity": 100}, {"time": 68, "pitch": 55, "duration": 3, "velocity": 95}, {"time": 68, "pitch": 64, "duration": 8, "velocity": 97}, {"time": 73, "pitch": 55, "duration": 1, "velocity": 85}, {"time": 78, "pitch": 57, "duration": 9, "velocity": 83}, {"time": 80, "pitch": 60, "duration": 7, "velocity": 88}, {"time": 80, "pitch": 45, "duration": 36, "velocity": 97}, {"time": 81, "pitch": 64, "duration": 7, "velocity": 94}, {"time": 85, "pitch": 52, "duration": 29, "velocity": 88}, {"time": 92, "pitch": 57, "duration": 9, "velocity": 69}, {"time": 97, "pitch": 60, "duration": 4, "velocity": 90}, {"time": 102, "pitch": 57, "duration": 13, "velocity": 85}, {"time": 103, "pitch": 60, "duration": 12, "velocity": 90}, {"time": 104, "pitch": 64, "duration": 11, "velocity": 94}, {"time": 105, "pitch": 69, "duration": 10, "velocity": 86}, {"time": 123, "pitch": 62, "duration": 17, "velocity": 91}, {"time": 125, "pitch": 57, "duration": 18, "velocity": 83}, {"time": 126, "pitch": 54, "duration": 10, "velocity": 84}, {"time": 127, "pitch": 50, "duration": 8, "velocity": 89}, {"time": 127, "pitch": 38, "duration": 35, "velocity": 100}, {"time": 133, "pitch": 45, "duration": 28, "velocity": 85}, {"time": 139, "pitch": 50, "duration": 10, "velocity": 95}, {"time": 145, "pitch": 57, "duration": 2, "velocity": 56}, {"time": 145, "pitch": 54, "duration": 3, "velocity": 104}, {"time": 151, "pitch": 62, "duration": 16, "velocity": 95}, {"time": 151, "pitch": 54, "duration": 7, "velocity": 96}, {"time": 151, "pitch": 57, "duration": 13, "velocity": 95}, {"time": 151, "pitch": 50, "duration": 4, "velocity": 95}, {"time": 157, "pitch": 50, "duration": 6, "velocity": 92}, {"time": 163, "pitch": 54, "duration": 5, "velocity": 94}, {"time": 169, "pitch": 62, "duration": 2, "velocity": 55}, {"time": 173, "pitch": 55, "duration": 11, "velocity": 87}, {"time": 174, "pitch": 59, "duration": 14, "velocity": 91}, {"time": 175, "pitch": 62, "duration": 14, "velocity": 90}, {"time": 175, "pitch": 43, "duration": 39, "velocity": 97}, {"time": 176, "pitch": 67, "duration": 11, "velocity": 89}, {"time": 182, "pitch": 50, "duration": 21, "velocity": 90}, {"time": 188, "pitch": 55, "duration": 9, "velocity": 96}, {"time": 194, "pitch": 59, "duration": 3, "velocity": 96}, {"time": 200, "pitch": 55, "duration": 9, "velocity": 83}, {"time": 200, "pitch": 59, "duration": 13, "velocity": 96}, {"time": 200, "pitch": 62, "duration": 13, "velocity": 95}, {"time": 200, "pitch": 67, "duration": 12, "velocity": 95}, {"time": 206, "pitch": 50, "duration": 7, "velocity": 86}, {"time": 212, "pitch": 55, "duration": 2, "velocity": 96}, {"time": 222, "pitch": 48, "duration": 9, "velocity": 81}, {"time": 223, "pitch": 52, "duration": 14, "velocity": 93}, {"time": 224, "pitch": 36, "duration": 34, "velocity": 95}, {"time": 224, "pitch": 55, "duration": 14, "velocity": 88}, {"time": 225, "pitch": 60, "duration": 15, "velocity": 89}, {"time": 230, "pitch": 43, "duration": 26, "velocity": 85}, {"time": 236, "pitch": 48, "duration": 17, "velocity": 97}, {"time": 241, "pitch": 52, "duration": 13, "velocity": 100}, {"time": 248, "pitch": 60, "duration": 19, "velocity": 100}, {"time": 253, "pitch": 55, "duration": 9, "velocity": 96}, {"time": 260, "pitch": 52, "duration": 6, "velocity": 98}, {"time": 265, "pitch": 48, "duration": 2, "velocity": 89}, {"time": 271, "pitch": 57, "duration": 10, "velocity": 95}, {"time": 272, "pitch": 60, "duration": 13, "velocity": 90}, {"time": 272, "pitch": 45, "duration": 31, "velocity": 96}, {"time": 273, "pitch": 64, "duration": 17, "velocity": 93}, {"time": 274, "pitch": 69, "duration": 16, "velocity": 90}, {"time": 278, "pitch": 52, "duration": 23, "velocity": 95}, {"time": 284, "pitch": 57, "duration": 19, "velocity": 95}, {"time": 289, "pitch": 60, "duration": 13, "velocity": 95}, {"time": 295, "pitch": 69, "duration": 16, "velocity": 99}, {"time": 301, "pitch": 64, "duration": 10, "velocity": 96}, {"time": 307, "pitch": 60, "duration": 6, "velocity": 91}, {"time": 313, "pitch": 69, "duration": 2, "velocity": 60}, {"time": 319, "pitch": 59, "duration": 12, "velocity": 87}, {"time": 320, "pitch": 63, "duration": 19, "velocity": 96}, {"time": 320, "pitch": 47, "duration": 41, "velocity": 97}, {"time": 325, "pitch": 51, "duration": 16, "velocity": 70}, {"time": 332, "pitch": 54, "duration": 25, "velocity": 89}, {"time": 337, "pitch": 59, "duration": 9, "velocity": 92}, {"time": 344, "pitch": 66, "duration": 17, "velocity": 91}, {"time": 350, "pitch": 59, "duration": 10, "velocity": 96}, {"time": 357, "pitch": 51, "duration": 3, "velocity": 100}, {"time": 363, "pitch": 59, "duration": 29, "velocity": 97}, {"time": 370, "pitch": 63, "duration": 25, "velocity": 86}, {"time": 370, "pitch": 47, "duration": 46, "velocity": 95}, {"time": 371, "pitch": 66, "duration": 28, "velocity": 90}, {"time": 372, "pitch": 71, "duration": 46, "velocity": 97}, {"time": 386, "pitch": 51, "duration": 28, "velocity": 78}, {"time": 391, "pitch": 54, "duration": 23, "velocity": 70}, {"time": 395, "pitch": 59, "duration": 23, "velocity": 83}, {"time": 399, "pitch": 63, "duration": 19, "velocity": 84}, {"time": 416, "pitch": 40, "duration": 38, "velocity": 96}, {"time": 422, "pitch": 47, "duration": 31, "velocity": 82}, {"time": 428, "pitch": 52, "duration": 19, "velocity": 96}, {"time": 434, "pitch": 55, "duration": 14, "velocity": 80}, {"time": 440, "pitch": 64, "duration": 18, "velocity": 97}, {"time": 446, "pitch": 59, "duration": 11, "velocity": 86}, {"time": 452, "pitch": 52, "duration": 4, "velocity": 87}, {"time": 464, "pitch": 45, "duration": 34, "velocity": 95}, {"time": 464, "pitch": 57, "duration": 26, "velocity": 82}, {"time": 464, "pitch": 60, "duration": 26, "velocity": 94}, {"time": 470, "pitch": 52, "duration": 26, "velocity": 88}, {"time": 476, "pitch": 64, "duration": 14, "velocity": 89}, {"time": 482, "pitch": 69, "duration": 31, "velocity": 97}, {"time": 494, "pitch": 64, "duration": 10, "velocity": 90}, {"time": 500, "pitch": 57, "duration": 4, "velocity": 78}, {"time": 512, "pitch": 38, "duration": 29, "velocity": 95}, {"time": 512, "pitch": 57, "duration": 8, "velocity": 80}, {"time": 512, "pitch": 62, "duration": 14, "velocity": 85}, {"time": 518, "pitch": 45, "duration": 21, "velocity": 80}, {"time": 524, "pitch": 57, "duration": 10, "velocity": 85}, {"time": 530, "pitch": 62, "duration": 8, "velocity": 88}, {"time": 536, "pitch": 66, "duration": 6, "velocity": 100}, {"time": 560, "pitch": 43, "duration": 37, "velocity": 97}, {"time": 560, "pitch": 55, "duration": 7, "velocity": 87}, {"time": 560, "pitch": 59, "duration": 13, "velocity": 88}, {"time": 560, "pitch": 62, "duration": 12, "velocity": 86}, {"time": 566, "pitch": 50, "duration": 30, "velocity": 79}, {"time": 572, "pitch": 55, "duration": 19, "velocity": 89}, {"time": 578, "pitch": 62, "duration": 8, "velocity": 91}, {"time": 584, "pitch": 67, "duration": 13, "velocity": 96}, {"time": 590, "pitch": 62, "duration": 9, "velocity": 87}, {"time": 596, "pitch": 55, "duration": 3, "velocity": 75}, {"time": 608, "pitch": 36, "duration": 39, "velocity": 91}, {"time": 608, "pitch": 55, "duration": 8, "velocity": 90}, {"time": 608, "pitch": 64, "duration": 14, "velocity": 95}, {"time": 614, "pitch": 43, "duration": 32, "velocity": 72}, {"time": 620, "pitch": 55, "duration": 14, "velocity": 91}, {"time": 626, "pitch": 60, "duration": 8, "velocity": 98}, {"time": 632, "pitch": 64, "duration": 22, "velocity": 102}, {"time": 656, "pitch": 40, "duration": 13, "velocity": 96}, {"time": 656, "pitch": 52, "duration": 13, "velocity": 94}, {"time": 656, "pitch": 59, "duration": 13, "velocity": 84}, {"time": 662, "pitch": 47, "duration": 7, "velocity": 87}, {"time": 668, "pitch": 55, "duration": 2, "velocity": 89}, {"time": 680, "pitch": 37, "duration": 18, "velocity": 87}, {"time": 680, "pitch": 61, "duration": 9, "velocity": 86}, {"time": 680, "pitch": 64, "duration": 10, "velocity": 90}, {"time": 686, "pitch": 43, "duration": 12, "velocity": 57}, {"time": 692, "pitch": 61, "duration": 12, "velocity": 88}, {"time": 692, "pitch": 64, "duration": 12, "velocity": 95}, {"time": 692, "pitch": 67, "duration": 12, "velocity": 82}, {"time": 704, "pitch": 45, "duration": 41, "velocity": 89}, {"time": 710, "pitch": 52, "duration": 38, "velocity": 87}, {"time": 716, "pitch": 57, "duration": 35, "velocity": 97}, {"time": 722, "pitch": 60, "duration": 31, "velocity": 99}, {"time": 728, "pitch": 64, "duration": 27, "velocity": 86}, {"time": 752, "pitch": 47, "duration": 45, "velocity": 98}, {"time": 758, "pitch": 54, "duration": 22, "velocity": 87}, {"time": 764, "pitch": 64, "duration": 8, "velocity": 91}, {"time": 770, "pitch": 66, "duration": 8, "velocity": 88}, {"time": 776, "pitch": 63, "duration": 11, "velocity": 96}, {"time": 782, "pitch": 54, "duration": 8, "velocity": 77}, {"time": 788, "pitch": 59, "duration": 14, "velocity": 100}, {"time": 788, "pitch": 63, "duration": 4, "velocity": 89}, {"time": 788, "pitch": 66, "duration": 4, "velocity": 83}, {"time": 794, "pitch": 51, "duration": 4, "velocity": 87}, {"time": 800, "pitch": 40, "duration": 43, "velocity": 98}, {"time": 806, "pitch": 47, "duration": 33, "velocity": 84}, {"time": 812, "pitch": 52, "duration": 7, "velocity": 97}, {"time": 818, "pitch": 54, "duration": 3, "velocity": 98}, {"time": 824, "pitch": 55, "duration": 8, "velocity": 104}, {"time": 830, "pitch": 59, "duration": 3, "velocity": 89}, {"time": 836, "pitch": 55, "duration": 5, "velocity": 95}, {"time": 836, "pitch": 59, "duration": 6, "velocity": 99}, {"time": 836, "pitch": 64, "duration": 10, "velocity": 97}, {"time": 842, "pitch": 47, "duration": 3, "velocity": 97}, {"time": 848, "pitch": 45, "duration": 37, "velocity": 96}, {"time": 848, "pitch": 57, "duration": 21, "velocity": 88}, {"time": 848, "pitch": 60, "duration": 13, "velocity": 89}, {"time": 854, "pitch": 52, "duration": 21, "velocity": 87}, {"time": 860, "pitch": 64, "duration": 9, "velocity": 90}, {"time": 866, "pitch": 60, "duration": 3, "velocity": 78}, {"time": 872, "pitch": 57, "duration": 8, "velocity": 95}, {"time": 872, "pitch": 60, "duration": 12, "velocity": 102}, {"time": 872, "pitch": 64, "duration": 12, "velocity": 104}, {"time": 872, "pitch": 69, "duration": 11, "velocity": 95}, {"time": 878, "pitch": 52, "duration": 5, "velocity": 84}, {"time": 884, "pitch": 57, "duration": 8, "velocity": 74}, {"time": 890, "pitch": 60, "duration": 8, "velocity": 79}, {"time": 896, "pitch": 38, "duration": 37, "velocity": 99}, {"time": 896, "pitch": 57, "duration": 7, "velocity": 88}, {"time": 896, "pitch": 62, "duration": 8, "velocity": 87}, {"time": 902, "pitch": 45, "duration": 21, "velocity": 82}, {"time": 908, "pitch": 57, "duration": 9, "velocity": 90}, {"time": 914, "pitch": 62, "duration": 5, "velocity": 87}, {"time": 920, "pitch": 57, "duration": 7, "velocity": 94}, {"time": 920, "pitch": 62, "duration": 7, "velocity": 95}, {"time": 920, "pitch": 66, "duration": 13, "velocity": 98}, {"time": 926, "pitch": 45, "duration": 7, "velocity": 81}, {"time": 932, "pitch": 57, "duration": 4, "velocity": 86}, {"time": 944, "pitch": 43, "duration": 37, "velocity": 96}, {"time": 944, "pitch": 55, "duration": 13, "velocity": 94}, {"time": 944, "pitch": 62, "duration": 11, "velocity": 94}, {"time": 950, "pitch": 50, "duration": 21, "velocity": 90}, {"time": 956, "pitch": 59, "duration": 7, "velocity": 89}, {"time": 962, "pitch": 55, "duration": 5, "velocity": 88}, {"time": 968, "pitch": 55, "duration": 8, "velocity": 94}, {"time": 968, "pitch": 59, "duration": 9, "velocity": 100}, {"time": 968, "pitch": 67, "duration": 13, "velocity": 90}, {"time": 974, "pitch": 50, "duration": 7, "velocity": 86}, {"time": 980, "pitch": 55, "duration": 4, "velocity": 95}, {"time": 992, "pitch": 36, "duration": 2, "velocity": 92}, {"time": 992, "pitch": 55, "duration": 6, "velocity": 95}, {"time": 992, "pitch": 64, "duration": 10, "velocity": 96}, {"time": 998, "pitch": 48, "duration": 31, "velocity": 86}, {"time": 1004, "pitch": 55, "duration": 15, "velocity": 90}, {"time": 1010, "pitch": 60, "duration": 5, "velocity": 97}, {"time": 1016, "pitch": 60, "duration": 8, "velocity": 89}, {"time": 1016, "pitch": 64, "duration": 13, "velocity": 96}, {"time": 1016, "pitch": 67, "duration": 14, "velocity": 91}, {"time": 1022, "pitch": 55, "duration": 6, "velocity": 85}, {"time": 1028, "pitch": 60, "duration": 3, "velocity": 91}, {"time": 1040, "pitch": 40, "duration": 16, "velocity": 96}, {"time": 1040, "pitch": 52, "duration": 8, "velocity": 93}, {"time": 1040, "pitch": 55, "duration": 9, "velocity": 89}, {"time": 1040, "pitch": 59, "duration": 13, "velocity": 91}, {"time": 1046, "pitch": 47, "duration": 10, "velocity": 87}, {"time": 1052, "pitch": 52, "duration": 5, "velocity": 97}, {"time": 1064, "pitch": 37, "duration": 14, "velocity": 83}, {"time": 1064, "pitch": 49, "duration": 8, "velocity": 85}, {"time": 1064, "pitch": 52, "duration": 13, "velocity": 95}, {"time": 1064, "pitch": 55, "duration": 13, "velocity": 83}, {"time": 1070, "pitch": 43, "duration": 9, "velocity": 88}, {"time": 1076, "pitch": 49, "duration": 2, "velocity": 87}, {"time": 1088, "pitch": 45, "duration": 17, "velocity": 96}, {"time": 1088, "pitch": 57, "duration": 9, "velocity": 84}, {"time": 1088, "pitch": 60, "duration": 12, "velocity": 85}, {"time": 1094, "pitch": 52, "duration": 15, "velocity": 89}, {"time": 1100, "pitch": 57, "duration": 8, "velocity": 95}, {"time": 1106, "pitch": 60, "duration": 7, "velocity": 98}, {"time": 1112, "pitch": 47, "duration": 17, "velocity": 96}, {"time": 1112, "pitch": 59, "duration": 9, "velocity": 89}, {"time": 1112, "pitch": 63, "duration": 13, "velocity": 85}, {"time": 1118, "pitch": 54, "duration": 9, "velocity": 89}, {"time": 1124, "pitch": 59, "duration": 14, "velocity": 97}, {"time": 1136, "pitch": 40, "duration": 38, "velocity": 98}, {"time": 1142, "pitch": 47, "duration": 20, "velocity": 86}, {"time": 1148, "pitch": 54, "duration": 7, "velocity": 90}, {"time": 1154, "pitch": 55, "duration": 3, "velocity": 97}, {"time": 1160, "pitch": 52, "duration": 7, "velocity": 100}, {"time": 1160, "pitch": 55, "duration": 7, "velocity": 104}, {"time": 1160, "pitch": 59, "duration": 9, "velocity": 101}, {"time": 1166, "pitch": 47, "duration": 8, "velocity": 102}, {"time": 1172, "pitch": 52, "duration": 5, "velocity": 116}, {"time": 1178, "pitch": 40, "duration": 3, "velocity": 100}, {"time": 1184, "pitch": 43, "duration": 40, "velocity": 100}, {"time": 1184, "pitch": 55, "duration": 21, "velocity": 95}, {"time": 1184, "pitch": 59, "duration": 14, "velocity": 96}, {"time": 1190, "pitch": 50, "duration": 21, "velocity": 90}, {"time": 1196, "pitch": 62, "duration": 9, "velocity": 91}, {"time": 1202, "pitch": 59, "duration": 3, "velocity": 85}, {"time": 1208, "pitch": 55, "duration": 9, "velocity": 98}, {"time": 1208, "pitch": 59, "duration": 10, "velocity": 106}, {"time": 1208, "pitch": 62, "duration": 10, "velocity": 109}, {"time": 1208, "pitch": 67, "duration": 10, "velocity": 97}, {"time": 1214, "pitch": 50, "duration": 9, "velocity": 85}, {"time": 1220, "pitch": 55, "duration": 4, "velocity": 95}, {"time": 1220, "pitch": 59, "duration": 4, "velocity": 98}, {"time": 1220, "pitch": 62, "duration": 4, "velocity": 97}, {"time": 1232, "pitch": 42, "duration": 35, "velocity": 98}, {"time": 1232, "pitch": 57, "duration": 7, "velocity": 90}, {"time": 1232, "pitch": 62, "duration": 14, "velocity": 93}, {"time": 1238, "pitch": 50, "duration": 21, "velocity": 85}, {"time": 1244, "pitch": 57, "duration": 9, "velocity": 97}, {"time": 1250, "pitch": 62, "duration": 4, "velocity": 97}, {"time": 1256, "pitch": 57, "duration": 8, "velocity": 99}, {"time": 1256, "pitch": 62, "duration": 12, "velocity": 102}, {"time": 1256, "pitch": 66, "duration": 13, "velocity": 109}, {"time": 1262, "pitch": 50, "duration": 8, "velocity": 84}, {"time": 1268, "pitch": 57, "duration": 3, "velocity": 96}, {"time": 1280, "pitch": 40, "duration": 42, "velocity": 97}, {"time": 1280, "pitch": 59, "duration": 8, "velocity": 95}, {"time": 1280, "pitch": 67, "duration": 14, "velocity": 91}, {"time": 1286, "pitch": 47, "duration": 22, "velocity": 81}, {"time": 1292, "pitch": 59, "duration": 8, "velocity": 95}, {"time": 1298, "pitch": 64, "duration": 3, "velocity": 95}, {"time": 1304, "pitch": 59, "duration": 8, "velocity": 98}, {"time": 1304, "pitch": 67, "duration": 10, "velocity": 96}, {"time": 1310, "pitch": 47, "duration": 10, "velocity": 73}, {"time": 1316, "pitch": 59, "duration": 4, "velocity": 100}, {"time": 1316, "pitch": 64, "duration": 8, "velocity": 100}, {"time": 1316, "pitch": 67, "duration": 9, "velocity": 93}, {"time": 1322, "pitch": 59, "duration": 4, "velocity": 95}, {"time": 1328, "pitch": 47, "duration": 38, "velocity": 99}, {"time": 1328, "pitch": 59, "duration": 8, "velocity": 91}, {"time": 1328, "pitch": 62, "duration": 14, "velocity": 89}, {"time": 1334, "pitch": 54, "duration": 8, "velocity": 91}, {"time": 1340, "pitch": 59, "duration": 10, "velocity": 96}, {"time": 1346, "pitch": 54, "duration": 8, "velocity": 95}, {"time": 1352, "pitch": 59, "duration": 9, "velocity": 98}, {"time": 1352, "pitch": 62, "duration": 9, "velocity": 100}, {"time": 1352, "pitch": 66, "duration": 11, "velocity": 99}, {"time": 1358, "pitch": 54, "duration": 6, "velocity": 97}, {"time": 1364, "pitch": 62, "duration": 6, "velocity": 97}, {"time": 1370, "pitch": 59, "duration": 2, "velocity": 87}, {"time": 1376, "pitch": 48, "duration": 27, "velocity": 102}, {"time": 1376, "pitch": 55, "duration": 7, "velocity": 96}, {"time": 1376, "pitch": 64, "duration": 14, "velocity": 97}, {"time": 1382, "pitch": 52, "duration": 21, "velocity": 91}, {"time": 1388, "pitch": 55, "duration": 8, "velocity": 95}, {"time": 1394, "pitch": 60, "duration": 3, "velocity": 94}, {"time": 1400, "pitch": 55, "duration": 8, "velocity": 101}, {"time": 1400, "pitch": 60, "duration": 8, "velocity": 102}, {"time": 1400, "pitch": 64, "duration": 9, "velocity": 106}, {"time": 1406, "pitch": 52, "duration": 8, "velocity": 89}, {"time": 1412, "pitch": 55, "duration": 3, "velocity": 102}, {"time": 1412, "pitch": 60, "duration": 6, "velocity": 100}, {"time": 1418, "pitch": 55, "duration": 2, "velocity": 91}, {"time": 1424, "pitch": 40, "duration": 38, "velocity": 101}, {"time": 1424, "pitch": 52, "duration": 13, "velocity": 96}, {"time": 1424, "pitch": 55, "duration": 13, "velocity": 95}, {"time": 1430, "pitch": 47, "duration": 20, "velocity": 82}, {"time": 1436, "pitch": 59, "duration": 9, "velocity": 94}, {"time": 1442, "pitch": 55, "duration": 3, "velocity": 95}, {"time": 1448, "pitch": 52, "duration": 8, "velocity": 97}, {"time": 1448, "pitch": 55, "duration": 9, "velocity": 109}, {"time": 1448, "pitch": 59, "duration": 9, "velocity": 93}, {"time": 1448, "pitch": 60, "duration": 3, "velocity": 92}, {"time": 1448, "pitch": 64, "duration": 11, "velocity": 97}, {"time": 1454, "pitch": 47, "duration": 10, "velocity": 91}, {"time": 1460, "pitch": 55, "duration": 13, "velocity": 92}, {"time": 1460, "pitch": 59, "duration": 14, "velocity": 94}, {"time": 1460, "pitch": 64, "duration": 2, "velocity": 70}, {"time": 1466, "pitch": 43, "duration": 5, "velocity": 99}, {"time": 1472, "pitch": 45, "duration": 38, "velocity": 98}, {"time": 1472, "pitch": 64, "duration": 3, "velocity": 38}, {"time": 1478, "pitch": 52, "duration": 21, "velocity": 88}, {"time": 1484, "pitch": 57, "duration": 9, "velocity": 100}, {"time": 1490, "pitch": 60, "duration": 4, "velocity": 93}, {"time": 1496, "pitch": 57, "duration": 9, "velocity": 95}, {"time": 1496, "pitch": 60, "duration": 9, "velocity": 97}, {"time": 1496, "pitch": 64, "duration": 9, "velocity": 99}, {"time": 1502, "pitch": 52, "duration": 7, "velocity": 83}, {"time": 1508, "pitch": 57, "duration": 2, "velocity": 90}, {"time": 1508, "pitch": 60, "duration": 6, "velocity": 99}, {"time": 1508, "pitch": 64, "duration": 7, "velocity": 99}, {"time": 1508, "pitch": 69, "duration": 6, "velocity": 95}, {"time": 1514, "pitch": 57, "duration": 1, "velocity": 72}, {"time": 1520, "pitch": 38, "duration": 43, "velocity": 100}, {"time": 1520, "pitch": 57, "duration": 5, "velocity": 97}, {"time": 1520, "pitch": 62, "duration": 10, "velocity": 99}, {"time": 1526, "pitch": 45, "duration": 10, "velocity": 88}, {"time": 1532, "pitch": 62, "duration": 11, "velocity": 97}, {"time": 1532, "pitch": 66, "duration": 10, "velocity": 91}, {"time": 1538, "pitch": 57, "duration": 4, "velocity": 98}, {"time": 1544, "pitch": 57, "duration": 6, "velocity": 99}, {"time": 1544, "pitch": 62, "duration": 7, "velocity": 101}, {"time": 1544, "pitch": 66, "duration": 7, "velocity": 102}, {"time": 1550, "pitch": 67, "duration": 5, "velocity": 104}, {"time": 1556, "pitch": 45, "duration": 7, "velocity": 96}, {"time": 1556, "pitch": 69, "duration": 12, "velocity": 98}, {"time": 1562, "pitch": 62, "duration": 5, "velocity": 94}, {"time": 1568, "pitch": 43, "duration": 40, "velocity": 100}, {"time": 1568, "pitch": 55, "duration": 21, "velocity": 95}, {"time": 1568, "pitch": 59, "duration": 14, "velocity": 96}, {"time": 1574, "pitch": 50, "duration": 21, "velocity": 90}, {"time": 1580, "pitch": 62, "duration": 9, "velocity": 91}, {"time": 1586, "pitch": 59, "duration": 3, "velocity": 85}, {"time": 1592, "pitch": 55, "duration": 9, "velocity": 98}, {"time": 1592, "pitch": 59, "duration": 10, "velocity": 106}, {"time": 1592, "pitch": 62, "duration": 10, "velocity": 109}, {"time": 1592, "pitch": 67, "duration": 10, "velocity": 97}, {"time": 1598, "pitch": 50, "duration": 9, "velocity": 85}, {"time": 1604, "pitch": 55, "duration": 4, "velocity": 95}, {"time": 1604, "pitch": 59, "duration": 4, "velocity": 98}, {"time": 1604, "pitch": 62, "duration": 4, "velocity": 97}, {"time": 1616, "pitch": 42, "duration": 35, "velocity": 98}, {"time": 1616, "pitch": 57, "duration": 7, "velocity": 90}, {"time": 1616, "pitch": 62, "duration": 14, "velocity": 93}, {"time": 1622, "pitch": 50, "duration": 21, "velocity": 85}, {"time": 1628, "pitch": 57, "duration": 9, "velocity": 97}, {"time": 1634, "pitch": 62, "duration": 4, "velocity": 97}, {"time": 1640, "pitch": 57, "duration": 8, "velocity": 99}, {"time": 1640, "pitch": 62, "duration": 12, "velocity": 102}, {"time": 1640, "pitch": 66, "duration": 13, "velocity": 109}, {"time": 1646, "pitch": 50, "duration": 8, "velocity": 84}, {"time": 1652, "pitch": 57, "duration": 3, "velocity": 96}, {"time": 1664, "pitch": 40, "duration": 42, "velocity": 97}, {"time": 1664, "pitch": 59, "duration": 8, "velocity": 95}, {"time": 1664, "pitch": 67, "duration": 14, "velocity": 91}, {"time": 1670, "pitch": 47, "duration": 22, "velocity": 81}, {"time": 1676, "pitch": 59, "duration": 8, "velocity": 95}, {"time": 1682, "pitch": 64, "duration": 3, "velocity": 95}, {"time": 1688, "pitch": 59, "duration": 8, "velocity": 98}, {"time": 1688, "pitch": 67, "duration": 10, "velocity": 96}, {"time": 1694, "pitch": 47, "duration": 10, "velocity": 73}, {"time": 1700, "pitch": 59, "duration": 4, "velocity": 100}, {"time": 1700, "pitch": 64, "duration": 8, "velocity": 100}, {"time": 1700, "pitch": 67, "duration": 9, "velocity": 93}, {"time": 1706, "pitch": 59, "duration": 4, "velocity": 95}, {"time": 1712, "pitch": 47, "duration": 38, "velocity": 99}, {"time": 1712, "pitch": 59, "duration": 8, "velocity": 91}, {"time": 1712, "pitch": 62, "duration": 14, "velocity": 89}, {"time": 1718, "pitch": 54, "duration": 8, "velocity": 91}, {"time": 1724, "pitch": 59, "duration": 10, "velocity": 96}, {"time": 1730, "pitch": 54, "duration": 8, "velocity": 95}, {"time": 1736, "pitch": 59, "duration": 9, "velocity": 98}, {"time": 1736, "pitch": 62, "duration": 9, "velocity": 100}, {"time": 1736, "pitch": 66, "duration": 11, "velocity": 99}, {"time": 1742, "pitch": 54, "duration": 6, "velocity": 97}, {"time": 1748, "pitch": 62, "duration": 6, "velocity": 97}, {"time": 1754, "pitch": 59, "duration": 2, "velocity": 87}, {"time": 1760, "pitch": 48, "duration": 27, "velocity": 102}, {"time": 1760, "pitch": 55, "duration": 7, "velocity": 96}, {"time": 1760, "pitch": 64, "duration": 14, "velocity": 97}, {"time": 1766, "pitch": 52, "duration": 21, "velocity": 91}, {"time": 1772, "pitch": 55, "duration": 8, "velocity": 95}, {"time": 1778, "pitch": 60, "duration": 3, "velocity": 94}, {"time": 1784, "pitch": 55, "duration": 8, "velocity": 101}, {"time": 1784, "pitch": 60, "duration": 8, "velocity": 102}, {"time": 1784, "pitch": 64, "duration": 9, "velocity": 106}, {"time": 1790, "pitch": 52, "duration": 8, "velocity": 89}, {"time": 1796, "pitch": 55, "duration": 3, "velocity": 102}, {"time": 1796, "pitch": 60, "duration": 6, "velocity": 100}, {"time": 1802, "pitch": 55, "duration": 2, "velocity": 91}, {"time": 1808, "pitch": 40, "duration": 38, "velocity": 101}, {"time": 1808, "pitch": 52, "duration": 13, "velocity": 96}, {"time": 1808, "pitch": 55, "duration": 13, "velocity": 95}, {"time": 1814, "pitch": 47, "duration": 20, "velocity": 82}, {"time": 1820, "pitch": 59, "duration": 9, "velocity": 94}, {"time": 1826, "pitch": 55, "duration": 3, "velocity": 95}, {"time": 1832, "pitch": 52, "duration": 8, "velocity": 97}, {"time": 1832, "pitch": 55, "duration": 9, "velocity": 109}, {"time": 1832, "pitch": 59, "duration": 9, "velocity": 93}, {"time": 1832, "pitch": 60, "duration": 3, "velocity": 92}, {"time": 1832, "pitch": 64, "duration": 11, "velocity": 97}, {"time": 1838, "pitch": 47, "duration": 10, "velocity": 91}, {"time": 1844, "pitch": 55, "duration": 13, "velocity": 92}, {"time": 1844, "pitch": 59, "duration": 14, "velocity": 94}, {"time": 1844, "pitch": 64, "duration": 2, "velocity": 70}, {"time": 1850, "pitch": 43, "duration": 5, "velocity": 99}, {"time": 1856, "pitch": 45, "duration": 19, "velocity": 96}, {"time": 1856, "pitch": 57, "duration": 8, "velocity": 89}, {"time": 1856, "pitch": 60, "duration": 11, "velocity": 92}, {"time": 1856, "pitch": 64, "duration": 14, "velocity": 96}, {"time": 1862, "pitch": 52, "duration": 17, "velocity": 91}, {"time": 1868, "pitch": 57, "duration": 8, "velocity": 100}, {"time": 1874, "pitch": 60, "duration": 5, "velocity": 102}, {"time": 1880, "pitch": 47, "duration": 13, "velocity": 98}, {"time": 1880, "pitch": 59, "duration": 10, "velocity": 96}, {"time": 1880, "pitch": 62, "duration": 5, "velocity": 97}, {"time": 1886, "pitch": 54, "duration": 6, "velocity": 96}, {"time": 1892, "pitch": 59, "duration": 5, "velocity": 95}, {"time": 1892, "pitch": 62, "duration": 5, "velocity": 95}, {"time": 1892, "pitch": 66, "duration": 6, "velocity": 95}, {"time": 1898, "pitch": 59, "duration": 3, "velocity": 71}, {"time": 1904, "pitch": 40, "duration": 37, "velocity": 98}, {"time": 1904, "pitch": 59, "duration": 8, "velocity": 95}, {"time": 1904, "pitch": 64, "duration": 11, "velocity": 98}, {"time": 1910, "pitch": 47, "duration": 21, "velocity": 90}, {"time": 1916, "pitch": 59, "duration": 9, "velocity": 97}, {"time": 1922, "pitch": 64, "duration": 3, "velocity": 97}, {"time": 1928, "pitch": 59, "duration": 8, "velocity": 100}, {"time": 1928, "pitch": 64, "duration": 10, "velocity": 112}, {"time": 1928, "pitch": 67, "duration": 13, "velocity": 100}, {"time": 1934, "pitch": 47, "duration": 7, "velocity": 99}, {"time": 1940, "pitch": 59, "duration": 4, "velocity": 106}, {"time": 1952, "pitch": 40, "duration": 1, "velocity": 96}, {"time": 1952, "pitch": 41, "duration": 40, "velocity": 95}, {"time": 1952, "pitch": 53, "duration": 13, "velocity": 91}, {"time": 1952, "pitch": 60, "duration": 14, "velocity": 94}, {"time": 1958, "pitch": 48, "duration": 20, "velocity": 94}, {"time": 1964, "pitch": 56, "duration": 7, "velocity": 101}, {"time": 1970, "pitch": 53, "duration": 5, "velocity": 86}, {"time": 1976, "pitch": 53, "duration": 9, "velocity": 93}, {"time": 1976, "pitch": 56, "duration": 9, "velocity": 100}, {"time": 1976, "pitch": 60, "duration": 10, "velocity": 101}, {"time": 1976, "pitch": 65, "duration": 11, "velocity": 97}, {"time": 1982, "pitch": 48, "duration": 10, "velocity": 89}, {"time": 1988, "pitch": 56, "duration": 7, "velocity": 96}, {"time": 1988, "pitch": 60, "duration": 6, "velocity": 96}, {"time": 1988, "pitch": 65, "duration": 2, "velocity": 76}, {"time": 1994, "pitch": 53, "duration": 6, "velocity": 95}, {"time": 2000, "pitch": 46, "duration": 27, "velocity": 104}, {"time": 2000, "pitch": 53, "duration": 4, "velocity": 85}, {"time": 2000, "pitch": 58, "duration": 8, "velocity": 88}, {"time": 2006, "pitch": 53, "duration": 15, "velocity": 95}, {"time": 2012, "pitch": 61, "duration": 10, "velocity": 94}, {"time": 2018, "pitch": 58, "duration": 4, "velocity": 83}, {"time": 2024, "pitch": 53, "duration": 5, "velocity": 96}, {"time": 2024, "pitch": 58, "duration": 10, "velocity": 96}, {"time": 2024, "pitch": 61, "duration": 14, "velocity": 95}, {"time": 2024, "pitch": 65, "duration": 14, "velocity": 96}, {"time": 2030, "pitch": 46, "duration": 5, "velocity": 82}, {"time": 2036, "pitch": 53, "duration": 7, "velocity": 104}, {"time": 2042, "pitch": 58, "duration": 2, "velocity": 97}, {"time": 2048, "pitch": 39, "duration": 34, "velocity": 104}, {"time": 2048, "pitch": 51, "duration": 7, "velocity": 95}, {"time": 2048, "pitch": 55, "duration": 10, "velocity": 89}, {"time": 2048, "pitch": 58, "duration": 8, "velocity": 91}, {"time": 2054, "pitch": 46, "duration": 21, "velocity": 90}, {"time": 2060, "pitch": 51, "duration": 8, "velocity": 94}, {"time": 2066, "pitch": 55, "duration": 2, "velocity": 77}, {"time": 2066, "pitch": 58, "duration": 4, "velocity": 80}, {"time": 2072, "pitch": 51, "duration": 8, "velocity": 97}, {"time": 2072, "pitch": 55, "duration": 9, "velocity": 97}, {"time": 2072, "pitch": 58, "duration": 9, "velocity": 92}, {"time": 2072, "pitch": 63, "duration": 10, "velocity": 96}, {"time": 2078, "pitch": 46, "duration": 7, "velocity": 88}, {"time": 2084, "pitch": 51, "duration": 2, "velocity": 111}, {"time": 2096, "pitch": 44, "duration": 27, "velocity": 104}, {"time": 2096, "pitch": 56, "duration": 8, "velocity": 91}, {"time": 2096, "pitch": 60, "duration": 12, "velocity": 95}, {"time": 2096, "pitch": 63, "duration": 11, "velocity": 88}, {"time": 2102, "pitch": 51, "duration": 20, "velocity": 87}, {"time": 2108, "pitch": 56, "duration": 8, "velocity": 91}, {"time": 2114, "pitch": 60, "duration": 3, "velocity": 87}, {"time": 2120, "pitch": 56, "duration": 8, "velocity": 97}, {"time": 2120, "pitch": 60, "duration": 10, "velocity": 99}, {"time": 2120, "pitch": 63, "duration": 10, "velocity": 95}, {"time": 2120, "pitch": 68, "duration": 10, "velocity": 92}, {"time": 2126, "pitch": 51, "duration": 8, "velocity": 97}, {"time": 2132, "pitch": 56, "duration": 4, "velocity": 100}, {"time": 2132, "pitch": 60, "duration": 3, "velocity": 101}, {"time": 2132, "pitch": 63, "duration": 3, "velocity": 98}, {"time": 2132, "pitch": 68, "duration": 3, "velocity": 95}, {"time": 2138, "pitch": 44, "duration": 2, "velocity": 104}, {"time": 2144, "pitch": 37, "duration": 29, "velocity": 111}, {"time": 2144, "pitch": 49, "duration": 13, "velocity": 96}, {"time": 2144, "pitch": 61, "duration": 20, "velocity": 95}, {"time": 2150, "pitch": 44, "duration": 22, "velocity": 85}, {"time": 2156, "pitch": 53, "duration": 7, "velocity": 95}, {"time": 2156, "pitch": 56, "duration": 5, "velocity": 86}, {"time": 2162, "pitch": 49, "duration": 5, "velocity": 95}, {"time": 2168, "pitch": 49, "duration": 7, "velocity": 97}, {"time": 2168, "pitch": 53, "duration": 11, "velocity": 99}, {"time": 2168, "pitch": 56, "duration": 7, "velocity": 96}, {"time": 2168, "pitch": 61, "duration": 15, "velocity": 96}, {"time": 2174, "pitch": 44, "duration": 5, "velocity": 88}, {"time": 2180, "pitch": 49, "duration": 2, "velocity": 109}, {"time": 2192, "pitch": 46, "duration": 39, "velocity": 106}, {"time": 2192, "pitch": 58, "duration": 7, "velocity": 92}, {"time": 2192, "pitch": 61, "duration": 7, "velocity": 93}, {"time": 2198, "pitch": 53, "duration": 8, "velocity": 97}, {"time": 2204, "pitch": 58, "duration": 10, "velocity": 97}, {"time": 2210, "pitch": 61, "duration": 5, "velocity": 100}, {"time": 2216, "pitch": 53, "duration": 4, "velocity": 93}, {"time": 2216, "pitch": 58, "duration": 7, "velocity": 93}, {"time": 2216, "pitch": 61, "duration": 7, "velocity": 93}, {"time": 2216, "pitch": 65, "duration": 8, "velocity": 96}, {"time": 2222, "pitch": 53, "duration": 4, "velocity": 93}, {"time": 2228, "pitch": 53, "duration": 2, "velocity": 96}, {"time": 2228, "pitch": 58, "duration": 6, "velocity": 101}, {"time": 2228, "pitch": 61, "duration": 6, "velocity": 97}, {"time": 2228, "pitch": 65, "duration": 6, "velocity": 95}, {"time": 2240, "pitch": 36, "duration": 4, "velocity": 96}, {"time": 2240, "pitch": 55, "duration": 14, "velocity": 99}, {"time": 2240, "pitch": 64, "duration": 17, "velocity": 99}, {"time": 2252, "pitch": 48, "duration": 23, "velocity": 75}, {"time": 2258, "pitch": 55, "duration": 3, "velocity": 101}, {"time": 2264, "pitch": 55, "duration": 8, "velocity": 98}, {"time": 2264, "pitch": 60, "duration": 10, "velocity": 96}, {"time": 2270, "pitch": 52, "duration": 12, "velocity": 83}, {"time": 2276, "pitch": 55, "duration": 11, "velocity": 106}, {"time": 2282, "pitch": 60, "duration": 5, "velocity": 96}, {"time": 2288, "pitch": 36, "duration": 2, "velocity": 96}, {"time": 2288, "pitch": 55, "duration": 9, "velocity": 95}, {"time": 2288, "pitch": 60, "duration": 13, "velocity": 95}, {"time": 2288, "pitch": 64, "duration": 14, "velocity": 99}, {"time": 2300, "pitch": 48, "duration": 35, "velocity": 92}, {"time": 2306, "pitch": 55, "duration": 9, "velocity": 96}, {"time": 2312, "pitch": 60, "duration": 8, "velocity": 97}, {"time": 2312, "pitch": 64, "duration": 9, "velocity": 106}, {"time": 2312, "pitch": 67, "duration": 12, "velocity": 95}, {"time": 2318, "pitch": 55, "duration": 10, "velocity": 106}, {"time": 2324, "pitch": 60, "duration": 12, "velocity": 109}, {"time": 2330, "pitch": 55, "duration": 6, "velocity": 96}, {"time": 2336, "pitch": 41, "duration": 43, "velocity": 98}, {"time": 2342, "pitch": 48, "duration": 33, "velocity": 84}, {"time": 2348, "pitch": 53, "duration": 7, "velocity": 97}, {"time": 2354, "pitch": 55, "duration": 3, "velocity": 98}, {"time": 2360, "pitch": 56, "duration": 8, "velocity": 104}, {"time": 2366, "pitch": 60, "duration": 3, "velocity": 89}, {"time": 2372, "pitch": 56, "duration": 5, "velocity": 95}, {"time": 2372, "pitch": 60, "duration": 6, "velocity": 99}, {"time": 2372, "pitch": 65, "duration": 10, "velocity": 97}, {"time": 2378, "pitch": 48, "duration": 3, "velocity": 97}, {"time": 2384, "pitch": 46, "duration": 37, "velocity": 96}, {"time": 2384, "pitch": 58, "duration": 21, "velocity": 88}, {"time": 2384, "pitch": 61, "duration": 13, "velocity": 89}, {"time": 2390, "pitch": 53, "duration": 21, "velocity": 87}, {"time": 2396, "pitch": 65, "duration": 9, "velocity": 90}, {"time": 2402, "pitch": 61, "duration": 3, "velocity": 78}, {"time": 2408, "pitch": 58, "duration": 8, "velocity": 95}, {"time": 2408, "pitch": 61, "duration": 12, "velocity": 102}, {"time": 2408, "pitch": 65, "duration": 12, "velocity": 104}, {"time": 2408, "pitch": 70, "duration": 11, "velocity": 95}, {"time": 2414, "pitch": 53, "duration": 5, "velocity": 84}, {"time": 2420, "pitch": 58, "duration": 8, "velocity": 74}, {"time": 2426, "pitch": 61, "duration": 8, "velocity": 79}, {"time": 2432, "pitch": 39, "duration": 37, "velocity": 99}, {"time": 2432, "pitch": 58, "duration": 7, "velocity": 88}, {"time": 2432, "pitch": 63, "duration": 8, "velocity": 87}, {"time": 2438, "pitch": 46, "duration": 21, "velocity": 82}, {"time": 2444, "pitch": 58, "duration": 9, "velocity": 90}, {"time": 2450, "pitch": 63, "duration": 5, "velocity": 87}, {"time": 2456, "pitch": 58, "duration": 7, "velocity": 94}, {"time": 2456, "pitch": 63, "duration": 7, "velocity": 95}, {"time": 2456, "pitch": 67, "duration": 13, "velocity": 98}, {"time": 2462, "pitch": 46, "duration": 7, "velocity": 81}, {"time": 2468, "pitch": 58, "duration": 4, "velocity": 86}, {"time": 2480, "pitch": 44, "duration": 37, "velocity": 96}, {"time": 2480, "pitch": 56, "duration": 13, "velocity": 94}, {"time": 2480, "pitch": 63, "duration": 11, "velocity": 94}, {"time": 2486, "pitch": 51, "duration": 21, "velocity": 90}, {"time": 2492, "pitch": 60, "duration": 7, "velocity": 89}, {"time": 2498, "pitch": 56, "duration": 5, "velocity": 88}, {"time": 2504, "pitch": 56, "duration": 8, "velocity": 94}, {"time": 2504, "pitch": 60, "duration": 9, "velocity": 100}, {"time": 2504, "pitch": 68, "duration": 13, "velocity": 90}, {"time": 2510, "pitch": 51, "duration": 7, "velocity": 86}, {"time": 2516, "pitch": 56, "duration": 4, "velocity": 95}, {"time": 2528, "pitch": 37, "duration": 2, "velocity": 92}, {"time": 2528, "pitch": 56, "duration": 6, "velocity": 95}, {"time": 2528, "pitch": 65, "duration": 10, "velocity": 96}, {"time": 2534, "pitch": 49, "duration": 31, "velocity": 86}, {"time": 2540, "pitch": 56, "duration": 15, "velocity": 90}, {"time": 2546, "pitch": 61, "duration": 5, "velocity": 97}, {"time": 2552, "pitch": 61, "duration": 8, "velocity": 89}, {"time": 2552, "pitch": 65, "duration": 13, "velocity": 96}, {"time": 2552, "pitch": 68, "duration": 14, "velocity": 91}, {"time": 2558, "pitch": 56, "duration": 6, "velocity": 85}, {"time": 2564, "pitch": 61, "duration": 3, "velocity": 91}, {"time": 2576, "pitch": 41, "duration": 16, "velocity": 96}, {"time": 2576, "pitch": 53, "duration": 8, "velocity": 93}, {"time": 2576, "pitch": 56, "duration": 9, "velocity": 89}, {"time": 2576, "pitch": 60, "duration": 13, "velocity": 91}, {"time": 2582, "pitch": 48, "duration": 10, "velocity": 87}, {"time": 2588, "pitch": 53, "duration": 5, "velocity": 97}, {"time": 2600, "pitch": 38, "duration": 14, "velocity": 83}, {"time": 2600, "pitch": 50, "duration": 8, "velocity": 85}, {"time": 2600, "pitch": 53, "duration": 13, "velocity": 95}, {"time": 2600, "pitch": 56, "duration": 13, "velocity": 83}, {"time": 2606, "pitch": 44, "duration": 9, "velocity": 88}, {"time": 2612, "pitch": 50, "duration": 2, "velocity": 87}, {"time": 2624, "pitch": 46, "duration": 17, "velocity": 96}, {"time": 2624, "pitch": 58, "duration": 9, "velocity": 84}, {"time": 2624, "pitch": 61, "duration": 12, "velocity": 85}, {"time": 2630, "pitch": 53, "duration": 15, "velocity": 89}, {"time": 2636, "pitch": 58, "duration": 8, "velocity": 95}, {"time": 2642, "pitch": 61, "duration": 7, "velocity": 98}, {"time": 2648, "pitch": 48, "duration": 17, "velocity": 96}, {"time": 2648, "pitch": 60, "duration": 9, "velocity": 89}, {"time": 2648, "pitch": 64, "duration": 13, "velocity": 85}, {"time": 2654, "pitch": 55, "duration": 9, "velocity": 89}, {"time": 2660, "pitch": 60, "duration": 14, "velocity": 97}, {"time": 2672, "pitch": 41, "duration": 38, "velocity": 98}, {"time": 2678, "pitch": 48, "duration": 20, "velocity": 86}, {"time": 2684, "pitch": 55, "duration": 7, "velocity": 90}, {"time": 2690, "pitch": 56, "duration": 3, "velocity": 97}, {"time": 2696, "pitch": 53, "duration": 7, "velocity": 100}, {"time": 2696, "pitch": 56, "duration": 7, "velocity": 104}, {"time": 2696, "pitch": 60, "duration": 9, "velocity": 101}, {"time": 2702, "pitch": 48, "duration": 8, "velocity": 102}, {"time": 2708, "pitch": 53, "duration": 5, "velocity": 116}, {"time": 2714, "pitch": 41, "duration": 3, "velocity": 100}, {"time": 2720, "pitch": 44, "duration": 40, "velocity": 100}, {"time": 2720, "pitch": 56, "duration": 21, "velocity": 95}, {"time": 2720, "pitch": 60, "duration": 14, "velocity": 96}, {"time": 2726, "pitch": 51, "duration": 21, "velocity": 90}, {"time": 2732, "pitch": 63, "duration": 9, "velocity": 91}, {"time": 2738, "pitch": 60, "duration": 3, "velocity": 85}, {"time": 2744, "pitch": 56, "duration": 9, "velocity": 98}, {"time": 2744, "pitch": 60, "duration": 10, "velocity": 106}, {"time": 2744, "pitch": 63, "duration": 10, "velocity": 109}, {"time": 2744, "pitch": 68, "duration": 10, "velocity": 97}, {"time": 2750, "pitch": 51, "duration": 9, "velocity": 85}, {"time": 2756, "pitch": 56, "duration": 4, "velocity": 95}, {"time": 2756, "pitch": 60, "duration": 4, "velocity": 98}, {"time": 2756, "pitch": 63, "duration": 4, "velocity": 97}, {"time": 2768, "pitch": 43, "duration": 35, "velocity": 98}, {"time": 2768, "pitch": 58, "duration": 7, "velocity": 90}, {"time": 2768, "pitch": 63, "duration": 14, "velocity": 93}, {"time": 2774, "pitch": 51, "duration": 21, "velocity": 85}, {"time": 2780, "pitch": 58, "duration": 9, "velocity": 97}, {"time": 2786, "pitch": 63, "duration": 4, "velocity": 97}, {"time": 2792, "pitch": 58, "duration": 8, "velocity": 99}, {"time": 2792, "pitch": 63, "duration": 12, "velocity": 102}, {"time": 2792, "pitch": 67, "duration": 13, "velocity": 109}, {"time": 2798, "pitch": 51, "duration": 8, "velocity": 84}, {"time": 2804, "pitch": 58, "duration": 3, "velocity": 96}, {"time": 2816, "pitch": 41, "duration": 42, "velocity": 97}, {"time": 2816, "pitch": 60, "duration": 8, "velocity": 95}, {"time": 2816, "pitch": 68, "duration": 14, "velocity": 91}, {"time": 2822, "pitch": 48, "duration": 22, "velocity": 81}, {"time": 2828, "pitch": 60, "duration": 8, "velocity": 95}, {"time": 2834, "pitch": 65, "duration": 3, "velocity": 95}, {"time": 2840, "pitch": 60, "duration": 8, "velocity": 98}, {"time": 2840, "pitch": 68, "duration": 10, "velocity": 96}, {"time": 2846, "pitch": 48, "duration": 10, "velocity": 73}, {"time": 2852, "pitch": 60, "duration": 4, "velocity": 100}, {"time": 2852, "pitch": 65, "duration": 8, "velocity": 100}, {"time": 2852, "pitch": 68, "duration": 9, "velocity": 93}, {"time": 2858, "pitch": 60, "duration": 4, "velocity": 95}, {"time": 2864, "pitch": 48, "duration": 38, "velocity": 99}, {"time": 2864, "pitch": 60, "duration": 8, "velocity": 91}, {"time": 2864, "pitch": 63, "duration": 14, "velocity": 89}, {"time": 2870, "pitch": 55, "duration": 8, "velocity": 91}, {"time": 2876, "pitch": 60, "duration": 10, "velocity": 96}, {"time": 2882, "pitch": 55, "duration": 8, "velocity": 95}, {"time": 2888, "pitch": 60, "duration": 9, "velocity": 98}, {"time": 2888, "pitch": 63, "duration": 9, "velocity": 100}, {"time": 2888, "pitch": 67, "duration": 11, "velocity": 99}, {"time": 2894, "pitch": 55, "duration": 6, "velocity": 97}, {"time": 2900, "pitch": 63, "duration": 6, "velocity": 97}, {"time": 2906, "pitch": 60, "duration": 2, "velocity": 87}, {"time": 2912, "pitch": 49, "duration": 27, "velocity": 102}, {"time": 2912, "pitch": 56, "duration": 7, "velocity": 96}, {"time": 2912, "pitch": 65, "duration": 14, "velocity": 97}, {"time": 2918, "pitch": 53, "duration": 21, "velocity": 91}, {"time": 2924, "pitch": 56, "duration": 8, "velocity": 95}, {"time": 2930, "pitch": 61, "duration": 3, "velocity": 94}, {"time": 2936, "pitch": 56, "duration": 8, "velocity": 101}, {"time": 2936, "pitch": 61, "duration": 8, "velocity": 102}, {"time": 2936, "pitch": 65, "duration": 9, "velocity": 106}, {"time": 2942, "pitch": 53, "duration": 8, "velocity": 89}, {"time": 2948, "pitch": 56, "duration": 3, "velocity": 102}, {"time": 2948, "pitch": 61, "duration": 6, "velocity": 100}, {"time": 2954, "pitch": 56, "duration": 2, "velocity": 91}, {"time": 2960, "pitch": 41, "duration": 38, "velocity": 101}, {"time": 2960, "pitch": 53, "duration": 13, "velocity": 96}, {"time": 2960, "pitch": 56, "duration": 13, "velocity": 95}, {"time": 2966, "pitch": 48, "duration": 20, "velocity": 82}, {"time": 2972, "pitch": 60, "duration": 9, "velocity": 94}, {"time": 2978, "pitch": 56, "duration": 3, "velocity": 95}, {"time": 2984, "pitch": 53, "duration": 8, "velocity": 97}, {"time": 2984, "pitch": 56, "duration": 9, "velocity": 109}, {"time": 2984, "pitch": 60, "duration": 9, "velocity": 93}, {"time": 2984, "pitch": 61, "duration": 3, "velocity": 92}, {"time": 2984, "pitch": 65, "duration": 11, "velocity": 97}, {"time": 2990, "pitch": 48, "duration": 10, "velocity": 91}, {"time": 2996, "pitch": 56, "duration": 13, "velocity": 92}, {"time": 2996, "pitch": 60, "duration": 14, "velocity": 94}, {"time": 2996, "pitch": 65, "duration": 2, "velocity": 70}, {"time": 3002, "pitch": 44, "duration": 5, "velocity": 99}, {"time": 3008, "pitch": 46, "duration": 38, "velocity": 98}, {"time": 3008, "pitch": 65, "duration": 3, "velocity": 38}, {"time": 3014, "pitch": 53, "duration": 21, "velocity": 88}, {"time": 3020, "pitch": 58, "duration": 9, "velocity": 100}, {"time": 3026, "pitch": 61, "duration": 4, "velocity": 93}, {"time": 3032, "pitch": 58, "duration": 9, "velocity": 95}, {"time": 3032, "pitch": 61, "duration": 9, "velocity": 97}, {"time": 3032, "pitch": 65, "duration": 9, "velocity": 99}, {"time": 3038, "pitch": 53, "duration": 7, "velocity": 83}, {"time": 3044, "pitch": 58, "duration": 2, "velocity": 90}, {"time": 3044, "pitch": 61, "duration": 6, "velocity": 99}, {"time": 3044, "pitch": 65, "duration": 7, "velocity": 99}, {"time": 3044, "pitch": 70, "duration": 6, "velocity": 95}, {"time": 3050, "pitch": 58, "duration": 1, "velocity": 72}, {"time": 3056, "pitch": 39, "duration": 43, "velocity": 100}, {"time": 3056, "pitch": 58, "duration": 5, "velocity": 97}, {"time": 3056, "pitch": 63, "duration": 10, "velocity": 99}, {"time": 3062, "pitch": 46, "duration": 10, "velocity": 88}, {"time": 3068, "pitch": 63, "duration": 11, "velocity": 97}, {"time": 3068, "pitch": 67, "duration": 10, "velocity": 91}, {"time": 3074, "pitch": 58, "duration": 4, "velocity": 98}, {"time": 3080, "pitch": 58, "duration": 6, "velocity": 99}, {"time": 3080, "pitch": 63, "duration": 7, "velocity": 101}, {"time": 3080, "pitch": 67, "duration": 7, "velocity": 102}, {"time": 3086, "pitch": 68, "duration": 5, "velocity": 104}, {"time": 3092, "pitch": 46, "duration": 7, "velocity": 96}, {"time": 3092, "pitch": 70, "duration": 12, "velocity": 98}, {"time": 3098, "pitch": 63, "duration": 5, "velocity": 94}, {"time": 3104, "pitch": 44, "duration": 40, "velocity": 100}, {"time": 3104, "pitch": 56, "duration": 21, "velocity": 95}, {"time": 3104, "pitch": 60, "duration": 14, "velocity": 96}, {"time": 3110, "pitch": 51, "duration": 21, "velocity": 90}, {"time": 3116, "pitch": 63, "duration": 9, "velocity": 91}, {"time": 3122, "pitch": 60, "duration": 3, "velocity": 85}, {"time": 3128, "pitch": 56, "duration": 9, "velocity": 98}, {"time": 3128, "pitch": 60, "duration": 10, "velocity": 106}, {"time": 3128, "pitch": 63, "duration": 10, "velocity": 109}, {"time": 3128, "pitch": 68, "duration": 10, "velocity": 97}, {"time": 3134, "pitch": 51, "duration": 9, "velocity": 85}, {"time": 3140, "pitch": 56, "duration": 4, "velocity": 95}, {"time": 3140, "pitch": 60, "duration": 4, "velocity": 98}, {"time": 3140, "pitch": 63, "duration": 4, "velocity": 97}, {"time": 3152, "pitch": 43, "duration": 35, "velocity": 98}, {"time": 3152, "pitch": 58, "duration": 7, "velocity": 90}, {"time": 3152, "pitch": 63, "duration": 14, "velocity": 93}, {"time": 3158, "pitch": 51, "duration": 21, "velocity": 85}, {"time": 3164, "pitch": 58, "duration": 9, "velocity": 97}, {"time": 3170, "pitch": 63, "duration": 4, "velocity": 97}, {"time": 3176, "pitch": 58, "duration": 8, "velocity": 99}, {"time": 3176, "pitch": 63, "duration": 12, "velocity": 102}, {"time": 3176, "pitch": 67, "duration": 13, "velocity": 109}, {"time": 3182, "pitch": 51, "duration": 8, "velocity": 84}, {"time": 3188, "pitch": 58, "duration": 3, "velocity": 96}, {"time": 3200, "pitch": 41, "duration": 42, "velocity": 97}, {"time": 3200, "pitch": 60, "duration": 8, "velocity": 95}, {"time": 3200, "pitch": 68, "duration": 14, "velocity": 91}, {"time": 3206, "pitch": 48, "duration": 22, "velocity": 81}, {"time": 3212, "pitch": 60, "duration": 8, "velocity": 95}, {"time": 3218, "pitch": 65, "duration": 3, "velocity": 95}, {"time": 3224, "pitch": 60, "duration": 8, "velocity": 98}, {"time": 3224, "pitch": 68, "duration": 10, "velocity": 96}, {"time": 3230, "pitch": 48, "duration": 10, "velocity": 73}, {"time": 3236, "pitch": 60, "duration": 4, "velocity": 100}, {"time": 3236, "pitch": 65, "duration": 8, "velocity": 100}, {"time": 3236, "pitch": 68, "duration": 9, "velocity": 93}, {"time": 3242, "pitch": 60, "duration": 4, "velocity": 95}, {"time": 3248, "pitch": 48, "duration": 38, "velocity": 99}, {"time": 3248, "pitch": 60, "duration": 8, "velocity": 91}, {"time": 3248, "pitch": 63, "duration": 14, "velocity": 89}, {"time": 3254, "pitch": 55, "duration": 8, "velocity": 91}, {"time": 3260, "pitch": 60, "duration": 10, "velocity": 96}, {"time": 3266, "pitch": 55, "duration": 8, "velocity": 95}, {"time": 3272, "pitch": 60, "duration": 9, "velocity": 98}, {"time": 3272, "pitch": 63, "duration": 9, "velocity": 100}, {"time": 3272, "pitch": 67, "duration": 11, "velocity": 99}, {"time": 3278, "pitch": 55, "duration": 6, "velocity": 97}, {"time": 3284, "pitch": 63, "duration": 6, "velocity": 97}, {"time": 3290, "pitch": 60, "duration": 2, "velocity": 87}, {"time": 3296, "pitch": 49, "duration": 27, "velocity": 102}, {"time": 3296, "pitch": 56, "duration": 7, "velocity": 96}, {"time": 3296, "pitch": 65, "duration": 14, "velocity": 97}, {"time": 3302, "pitch": 53, "duration": 21, "velocity": 91}, {"time": 3308, "pitch": 56, "duration": 8, "velocity": 95}, {"time": 3314, "pitch": 61, "duration": 3, "velocity": 94}, {"time": 3320, "pitch": 56, "duration": 8, "velocity": 101}, {"time": 3320, "pitch": 61, "duration": 8, "velocity": 102}, {"time": 3320, "pitch": 65, "duration": 9, "velocity": 106}, {"time": 3326, "pitch": 53, "duration": 8, "velocity": 89}, {"time": 3332, "pitch": 56, "duration": 3, "velocity": 102}, {"time": 3332, "pitch": 61, "duration": 6, "velocity": 100}, {"time": 3338, "pitch": 56, "duration": 2, "velocity": 91}, {"time": 3344, "pitch": 41, "duration": 38, "velocity": 101}, {"time": 3344, "pitch": 53, "duration": 13, "velocity": 96}, {"time": 3344, "pitch": 56, "duration": 13, "velocity": 95}, {"time": 3350, "pitch": 48, "duration": 20, "velocity": 82}, {"time": 3356, "pitch": 60, "duration": 9, "velocity": 94}, {"time": 3362, "pitch": 56, "duration": 3, "velocity": 95}, {"time": 3368, "pitch": 53, "duration": 8, "velocity": 97}, {"time": 3368, "pitch": 56, "duration": 9, "velocity": 109}, {"time": 3368, "pitch": 60, "duration": 9, "velocity": 93}, {"time": 3368, "pitch": 61, "duration": 3, "velocity": 92}, {"time": 3368, "pitch": 65, "duration": 11, "velocity": 97}, {"time": 3374, "pitch": 48, "duration": 10, "velocity": 91}, {"time": 3380, "pitch": 56, "duration": 13, "velocity": 92}, {"time": 3380, "pitch": 60, "duration": 14, "velocity": 94}, {"time": 3380, "pitch": 65, "duration": 2, "velocity": 70}, {"time": 3386, "pitch": 44, "duration": 5, "velocity": 99}, {"time": 3392, "pitch": 46, "duration": 19, "velocity": 96}, {"time": 3392, "pitch": 58, "duration": 8, "velocity": 89}, {"time": 3392, "pitch": 61, "duration": 11, "velocity": 92}, {"time": 3392, "pitch": 65, "duration": 14, "velocity": 96}, {"time": 3398, "pitch": 53, "duration": 17, "velocity": 91}, {"time": 3404, "pitch": 58, "duration": 8, "velocity": 100}, {"time": 3410, "pitch": 61, "duration": 5, "velocity": 102}, {"time": 3416, "pitch": 48, "duration": 13, "velocity": 98}, {"time": 3416, "pitch": 60, "duration": 10, "velocity": 96}, {"time": 3416, "pitch": 63, "duration": 5, "velocity": 97}, {"time": 3422, "pitch": 55, "duration": 6, "velocity": 96}, {"time": 3428, "pitch": 60, "duration": 5, "velocity": 95}, {"time": 3428, "pitch": 63, "duration": 5, "velocity": 95}, {"time": 3428, "pitch": 67, "duration": 6, "velocity": 95}, {"time": 3434, "pitch": 60, "duration": 3, "velocity": 71}, {"time": 3440, "pitch": 41, "duration": 37, "velocity": 98}, {"time": 3440, "pitch": 60, "duration": 8, "velocity": 95}, {"time": 3440, "pitch": 65, "duration": 11, "velocity": 98}, {"time": 3446, "pitch": 48, "duration": 21, "velocity": 90}, {"time": 3452, "pitch": 60, "duration": 9, "velocity": 97}, {"time": 3458, "pitch": 65, "duration": 3, "velocity": 97}, {"time": 3464, "pitch": 60, "duration": 8, "velocity": 100}, {"time": 3464, "pitch": 65, "duration": 10, "velocity": 112}, {"time": 3464, "pitch": 68, "duration": 13, "velocity": 100}, {"time": 3470, "pitch": 48, "duration": 7, "velocity": 99}, {"time": 3476, "pitch": 60, "duration": 4, "velocity": 106}, {"time": 3488, "pitch": 41, "duration": 1, "velocity": 96}, {"time": 3488, "pitch": 42, "duration": 40, "velocity": 95}, {"time": 3488, "pitch": 54, "duration": 13, "velocity": 91}, {"time": 3488, "pitch": 61, "duration": 14, "velocity": 94}, {"time": 3494, "pitch": 49, "duration": 20, "velocity": 94}, {"time": 3500, "pitch": 57, "duration": 7, "velocity": 101}, {"time": 3506, "pitch": 54, "duration": 5, "velocity": 86}, {"time": 3512, "pitch": 54, "duration": 9, "velocity": 93}, {"time": 3512, "pitch": 57, "duration": 9, "velocity": 100}, {"time": 3512, "pitch": 61, "duration": 10, "velocity": 101}, {"time": 3512, "pitch": 66, "duration": 11, "velocity": 97}, {"time": 3518, "pitch": 49, "duration": 10, "velocity": 89}, {"time": 3524, "pitch": 57, "duration": 7, "velocity": 96}, {"time": 3524, "pitch": 61, "duration": 6, "velocity": 96}, {"time": 3524, "pitch": 66, "duration": 2, "velocity": 76}, {"time": 3530, "pitch": 54, "duration": 6, "velocity": 95}, {"time": 3536, "pitch": 45, "duration": 40, "velocity": 100}, {"time": 3536, "pitch": 57, "duration": 21, "velocity": 95}, {"time": 3536, "pitch": 61, "duration": 14, "velocity": 96}, {"time": 3542, "pitch": 52, "duration": 21, "velocity": 90}, {"time": 3548, "pitch": 64, "duration": 9, "velocity": 91}, {"time": 3554, "pitch": 61, "duration": 3, "velocity": 85}, {"time": 3560, "pitch": 57, "duration": 9, "velocity": 98}, {"time": 3560, "pitch": 61, "duration": 10, "velocity": 106}, {"time": 3560, "pitch": 64, "duration": 10, "velocity": 109}, {"time": 3560, "pitch": 69, "duration": 10, "velocity": 97}, {"time": 3566, "pitch": 52, "duration": 9, "velocity": 85}, {"time": 3572, "pitch": 57, "duration": 4, "velocity": 95}, {"time": 3572, "pitch": 61, "duration": 4, "velocity": 98}, {"time": 3572, "pitch": 64, "duration": 4, "velocity": 97}, {"time": 3584, "pitch": 44, "duration": 35, "velocity": 98}, {"time": 3584, "pitch": 59, "duration": 7, "velocity": 90}, {"time": 3584, "pitch": 64, "duration": 14, "velocity": 93}, {"time": 3590, "pitch": 52, "duration": 21, "velocity": 85}, {"time": 3596, "pitch": 59, "duration": 9, "velocity": 97}, {"time": 3602, "pitch": 64, "duration": 4, "velocity": 97}, {"time": 3608, "pitch": 59, "duration": 8, "velocity": 99}, {"time": 3608, "pitch": 64, "duration": 12, "velocity": 102}, {"time": 3608, "pitch": 68, "duration": 13, "velocity": 109}, {"time": 3614, "pitch": 52, "duration": 8, "velocity": 84}, {"time": 3620, "pitch": 59, "duration": 3, "velocity": 96}, {"time": 3632, "pitch": 42, "duration": 42, "velocity": 97}, {"time": 3632, "pitch": 61, "duration": 8, "velocity": 95}, {"time": 3632, "pitch": 69, "duration": 14, "velocity": 91}, {"time": 3638, "pitch": 49, "duration": 22, "velocity": 81}, {"time": 3644, "pitch": 61, "duration": 8, "velocity": 95}, {"time": 3650, "pitch": 66, "duration": 3, "velocity": 95}, {"time": 3656, "pitch": 61, "duration": 8, "velocity": 98}, {"time": 3656, "pitch": 69, "duration": 10, "velocity": 96}, {"time": 3662, "pitch": 49, "duration": 10, "velocity": 73}, {"time": 3668, "pitch": 61, "duration": 4, "velocity": 100}, {"time": 3668, "pitch": 66, "duration": 8, "velocity": 100}, {"time": 3668, "pitch": 69, "duration": 9, "velocity": 93}, {"time": 3674, "pitch": 61, "duration": 4, "velocity": 95}, {"time": 3680, "pitch": 49, "duration": 38, "velocity": 99}, {"time": 3680, "pitch": 61, "duration": 8, "velocity": 91}, {"time": 3680, "pitch": 64, "duration": 14, "velocity": 89}, {"time": 3686, "pitch": 56, "duration": 8, "velocity": 91}, {"time": 3692, "pitch": 61, "duration": 10, "velocity": 96}, {"time": 3698, "pitch": 56, "duration": 8, "velocity": 95}, {"time": 3704, "pitch": 61, "duration": 9, "velocity": 98}, {"time": 3704, "pitch": 64, "duration": 9, "velocity": 100}, {"time": 3704, "pitch": 68, "duration": 11, "velocity": 99}, {"time": 3710, "pitch": 56, "duration": 6, "velocity": 97}, {"time": 3716, "pitch": 64, "duration": 6, "velocity": 97}, {"time": 3722, "pitch": 61, "duration": 2, "velocity": 87}, {"time": 3728, "pitch": 50, "duration": 27, "velocity": 102}, {"time": 3728, "pitch": 57, "duration": 7, "velocity": 96}, {"time": 3728, "pitch": 66, "duration": 14, "velocity": 97}, {"time": 3734, "pitch": 54, "duration": 21, "velocity": 91}, {"time": 3740, "pitch": 57, "duration": 8, "velocity": 95}, {"time": 3746, "pitch": 62, "duration": 3, "velocity": 94}, {"time": 3752, "pitch": 57, "duration": 8, "velocity": 101}, {"time": 3752, "pitch": 62, "duration": 8, "velocity": 102}, {"time": 3752, "pitch": 66, "duration": 9, "velocity": 106}, {"time": 3758, "pitch": 54, "duration": 8, "velocity": 89}, {"time": 3764, "pitch": 57, "duration": 3, "velocity": 102}, {"time": 3764, "pitch": 62, "duration": 6, "velocity": 100}, {"time": 3770, "pitch": 57, "duration": 2, "velocity": 91}, {"time": 3776, "pitch": 42, "duration": 38, "velocity": 101}, {"time": 3776, "pitch": 54, "duration": 13, "velocity": 96}, {"time": 3776, "pitch": 57, "duration": 13, "velocity": 95}, {"time": 3782, "pitch": 49, "duration": 20, "velocity": 82}, {"time": 3788, "pitch": 61, "duration": 9, "velocity": 94}, {"time": 3794, "pitch": 57, "duration": 3, "velocity": 95}, {"time": 3800, "pitch": 54, "duration": 8, "velocity": 97}, {"time": 3800, "pitch": 57, "duration": 9, "velocity": 109}, {"time": 3800, "pitch": 61, "duration": 9, "velocity": 93}, {"time": 3800, "pitch": 62, "duration": 3, "velocity": 92}, {"time": 3800, "pitch": 66, "duration": 11, "velocity": 97}, {"time": 3806, "pitch": 49, "duration": 10, "velocity": 91}, {"time": 3812, "pitch": 57, "duration": 13, "velocity": 92}, {"time": 3812, "pitch": 61, "duration": 14, "velocity": 94}, {"time": 3812, "pitch": 66, "duration": 2, "velocity": 70}, {"time": 3818, "pitch": 45, "duration": 5, "velocity": 99}, {"time": 3824, "pitch": 47, "duration": 38, "velocity": 98}, {"time": 3824, "pitch": 66, "duration": 3, "velocity": 38}, {"time": 3830, "pitch": 54, "duration": 21, "velocity": 88}, {"time": 3836, "pitch": 59, "duration": 9, "velocity": 100}, {"time": 3842, "pitch": 62, "duration": 4, "velocity": 93}, {"time": 3848, "pitch": 59, "duration": 9, "velocity": 95}, {"time": 3848, "pitch": 62, "duration": 9, "velocity": 97}, {"time": 3848, "pitch": 66, "duration": 9, "velocity": 99}, {"time": 3854, "pitch": 54, "duration": 7, "velocity": 83}, {"time": 3860, "pitch": 59, "duration": 2, "velocity": 90}, {"time": 3860, "pitch": 62, "duration": 6, "velocity": 99}, {"time": 3860, "pitch": 66, "duration": 7, "velocity": 99}, {"time": 3860, "pitch": 71, "duration": 6, "velocity": 95}, {"time": 3866, "pitch": 59, "duration": 1, "velocity": 72}, {"time": 3872, "pitch": 40, "duration": 43, "velocity": 100}, {"time": 3872, "pitch": 59, "duration": 5, "velocity": 97}, {"time": 3872, "pitch": 64, "duration": 10, "velocity": 99}, {"time": 3878, "pitch": 47, "duration": 10, "velocity": 88}, {"time": 3884, "pitch": 64, "duration": 11, "velocity": 97}, {"time": 3884, "pitch": 68, "duration": 10, "velocity": 91}, {"time": 3890, "pitch": 59, "duration": 4, "velocity": 98}, {"time": 3896, "pitch": 59, "duration": 6, "velocity": 99}, {"time": 3896, "pitch": 64, "duration": 7, "velocity": 101}, {"time": 3896, "pitch": 68, "duration": 7, "velocity": 102}, {"time": 3902, "pitch": 69, "duration": 5, "velocity": 104}, {"time": 3908, "pitch": 47, "duration": 7, "velocity": 96}, {"time": 3908, "pitch": 71, "duration": 12, "velocity": 98}, {"time": 3914, "pitch": 64, "duration": 5, "velocity": 94}, {"time": 3920, "pitch": 45, "duration": 40, "velocity": 100}, {"time": 3920, "pitch": 57, "duration": 21, "velocity": 95}, {"time": 3920, "pitch": 61, "duration": 14, "velocity": 96}, {"time": 3926, "pitch": 52, "duration": 21, "velocity": 90}, {"time": 3932, "pitch": 64, "duration": 9, "velocity": 91}, {"time": 3938, "pitch": 61, "duration": 3, "velocity": 85}, {"time": 3944, "pitch": 57, "duration": 9, "velocity": 98}, {"time": 3944, "pitch": 61, "duration": 10, "velocity": 106}, {"time": 3944, "pitch": 64, "duration": 10, "velocity": 109}, {"time": 3944, "pitch": 69, "duration": 10, "velocity": 97}, {"time": 3950, "pitch": 52, "duration": 9, "velocity": 85}, {"time": 3956, "pitch": 57, "duration": 4, "velocity": 95}, {"time": 3956, "pitch": 61, "duration": 4, "velocity": 98}, {"time": 3956, "pitch": 64, "duration": 4, "velocity": 97}, {"time": 3968, "pitch": 44, "duration": 35, "velocity": 98}, {"time": 3968, "pitch": 59, "duration": 7, "velocity": 90}, {"time": 3968, "pitch": 64, "duration": 14, "velocity": 93}, {"time": 3974, "pitch": 52, "duration": 21, "velocity": 85}, {"time": 3980, "pitch": 59, "duration": 9, "velocity": 97}, {"time": 3986, "pitch": 64, "duration": 4, "velocity": 97}, {"time": 3992, "pitch": 59, "duration": 8, "velocity": 99}, {"time": 3992, "pitch": 64, "duration": 12, "velocity": 102}, {"time": 3992, "pitch": 68, "duration": 13, "velocity": 109}, {"time": 3998, "pitch": 52, "duration": 8, "velocity": 84}, {"time": 4004, "pitch": 59, "duration": 3, "velocity": 96}, {"time": 4016, "pitch": 42, "duration": 42, "velocity": 97}, {"time": 4016, "pitch": 61, "duration": 8, "velocity": 95}, {"time": 4016, "pitch": 69, "duration": 14, "velocity": 91}, {"time": 4022, "pitch": 49, "duration": 22, "velocity": 81}, {"time": 4028, "pitch": 61, "duration": 8, "velocity": 95}, {"time": 4034, "pitch": 66, "duration": 3, "velocity": 95}, {"time": 4040, "pitch": 61, "duration": 8, "velocity": 98}, {"time": 4040, "pitch": 69, "duration": 10, "velocity": 96}, {"time": 4046, "pitch": 49, "duration": 10, "velocity": 73}, {"time": 4052, "pitch": 61, "duration": 4, "velocity": 100}, {"time": 4052, "pitch": 66, "duration": 8, "velocity": 100}, {"time": 4052, "pitch": 69, "duration": 9, "velocity": 93}, {"time": 4058, "pitch": 61, "duration": 4, "velocity": 95}, {"time": 4064, "pitch": 49, "duration": 38, "velocity": 99}, {"time": 4064, "pitch": 61, "duration": 8, "velocity": 91}, {"time": 4064, "pitch": 64, "duration": 14, "velocity": 89}, {"time": 4070, "pitch": 56, "duration": 8, "velocity": 91}, {"time": 4076, "pitch": 61, "duration": 10, "velocity": 96}, {"time": 4082, "pitch": 56, "duration": 8, "velocity": 95}, {"time": 4088, "pitch": 61, "duration": 9, "velocity": 98}, {"time": 4088, "pitch": 64, "duration": 9, "velocity": 100}, {"time": 4088, "pitch": 68, "duration": 11, "velocity": 99}, {"time": 4094, "pitch": 56, "duration": 6, "velocity": 97}, {"time": 4100, "pitch": 64, "duration": 6, "velocity": 97}, {"time": 4106, "pitch": 61, "duration": 2, "velocity": 87}, {"time": 4112, "pitch": 50, "duration": 27, "velocity": 102}, {"time": 4112, "pitch": 57, "duration": 7, "velocity": 96}, {"time": 4112, "pitch": 66, "duration": 14, "velocity": 97}, {"time": 4118, "pitch": 54, "duration": 21, "velocity": 91}, {"time": 4124, "pitch": 57, "duration": 8, "velocity": 95}, {"time": 4130, "pitch": 62, "duration": 3, "velocity": 94}, {"time": 4136, "pitch": 57, "duration": 8, "velocity": 101}, {"time": 4136, "pitch": 62, "duration": 8, "velocity": 102}, {"time": 4136, "pitch": 66, "duration": 9, "velocity": 106}, {"time": 4142, "pitch": 54, "duration": 8, "velocity": 89}, {"time": 4148, "pitch": 57, "duration": 3, "velocity": 102}, {"time": 4148, "pitch": 62, "duration": 6, "velocity": 100}, {"time": 4154, "pitch": 57, "duration": 2, "velocity": 91}, {"time": 4160, "pitch": 42, "duration": 38, "velocity": 101}, {"time": 4160, "pitch": 54, "duration": 13, "velocity": 96}, {"time": 4160, "pitch": 57, "duration": 13, "velocity": 95}, {"time": 4166, "pitch": 49, "duration": 20, "velocity": 82}, {"time": 4172, "pitch": 61, "duration": 9, "velocity": 94}, {"time": 4178, "pitch": 57, "duration": 3, "velocity": 95}, {"time": 4184, "pitch": 54, "duration": 8, "velocity": 97}, {"time": 4184, "pitch": 57, "duration": 9, "velocity": 109}, {"time": 4184, "pitch": 61, "duration": 9, "velocity": 93}, {"time": 4184, "pitch": 62, "duration": 3, "velocity": 92}, {"time": 4184, "pitch": 66, "duration": 11, "velocity": 97}, {"time": 4190, "pitch": 49, "duration": 10, "velocity": 91}, {"time": 4196, "pitch": 57, "duration": 13, "velocity": 92}, {"time": 4196, "pitch": 61, "duration": 14, "velocity": 94}, {"time": 4196, "pitch": 66, "duration": 2, "velocity": 70}, {"time": 4202, "pitch": 45, "duration": 5, "velocity": 99}, {"time": 4208, "pitch": 47, "duration": 19, "velocity": 96}, {"time": 4208, "pitch": 59, "duration": 8, "velocity": 89}, {"time": 4208, "pitch": 62, "duration": 11, "velocity": 92}, {"time": 4208, "pitch": 66, "duration": 14, "velocity": 96}, {"time": 4214, "pitch": 54, "duration": 17, "velocity": 91}, {"time": 4220, "pitch": 59, "duration": 8, "velocity": 100}, {"time": 4226, "pitch": 62, "duration": 5, "velocity": 102}, {"time": 4232, "pitch": 49, "duration": 13, "velocity": 98}, {"time": 4232, "pitch": 61, "duration": 10, "velocity": 96}, {"time": 4232, "pitch": 64, "duration": 5, "velocity": 97}, {"time": 4238, "pitch": 56, "duration": 6, "velocity": 96}, {"time": 4244, "pitch": 61, "duration": 5, "velocity": 95}, {"time": 4244, "pitch": 64, "duration": 5, "velocity": 95}, {"time": 4244, "pitch": 68, "duration": 6, "velocity": 95}, {"time": 4250, "pitch": 61, "duration": 3, "velocity": 71}, {"time": 4256, "pitch": 42, "duration": 37, "velocity": 98}, {"time": 4256, "pitch": 61, "duration": 8, "velocity": 95}, {"time": 4256, "pitch": 66, "duration": 11, "velocity": 98}, {"time": 4262, "pitch": 49, "duration": 21, "velocity": 90}, {"time": 4268, "pitch": 61, "duration": 9, "velocity": 97}, {"time": 4274, "pitch": 66, "duration": 3, "velocity": 97}, {"time": 4280, "pitch": 61, "duration": 8, "velocity": 100}, {"time": 4280, "pitch": 66, "duration": 10, "velocity": 112}, {"time": 4280, "pitch": 69, "duration": 13, "velocity": 100}, {"time": 4286, "pitch": 49, "duration": 7, "velocity": 99}, {"time": 4292, "pitch": 61, "duration": 4, "velocity": 106}, {"time": 4304, "pitch": 50, "duration": 27, "velocity": 102}, {"time": 4304, "pitch": 57, "duration": 7, "velocity": 96}, {"time": 4304, "pitch": 66, "duration": 14, "velocity": 97}, {"time": 4310, "pitch": 54, "duration": 21, "velocity": 91}, {"time": 4316, "pitch": 57, "duration": 8, "velocity": 95}, {"time": 4322, "pitch": 62, "duration": 3, "velocity": 94}, {"time": 4328, "pitch": 57, "duration": 8, "velocity": 101}, {"time": 4328, "pitch": 62, "duration": 8, "velocity": 102}, {"time": 4328, "pitch": 66, "duration": 9, "velocity": 106}, {"time": 4334, "pitch": 54, "duration": 8, "velocity": 89}, {"time": 4340, "pitch": 57, "duration": 3, "velocity": 102}, {"time": 4340, "pitch": 62, "duration": 6, "velocity": 100}, {"time": 4346, "pitch": 57, "duration": 2, "velocity": 91}, {"time": 4352, "pitch": 42, "duration": 38, "velocity": 101}, {"time": 4352, "pitch": 54, "duration": 13, "velocity": 96}, {"time": 4352, "pitch": 57, "duration": 13, "velocity": 95}, {"time": 4358, "pitch": 49, "duration": 20, "velocity": 82}, {"time": 4364, "pitch": 61, "duration": 9, "velocity": 94}, {"time": 4370, "pitch": 57, "duration": 3, "velocity": 95}, {"time": 4376, "pitch": 54, "duration": 8, "velocity": 97}, {"time": 4376, "pitch": 57, "duration": 9, "velocity": 109}, {"time": 4376, "pitch": 61, "duration": 9, "velocity": 93}, {"time": 4376, "pitch": 62, "duration": 3, "velocity": 92}, {"time": 4376, "pitch": 66, "duration": 11, "velocity": 97}, {"time": 4382, "pitch": 49, "duration": 10, "velocity": 91}, {"time": 4388, "pitch": 57, "duration": 13, "velocity": 92}, {"time": 4388, "pitch": 61, "duration": 14, "velocity": 94}, {"time": 4388, "pitch": 66, "duration": 2, "velocity": 70}, {"time": 4394, "pitch": 45, "duration": 5, "velocity": 99}, {"time": 4400, "pitch": 47, "duration": 19, "velocity": 96}, {"time": 4400, "pitch": 59, "duration": 8, "velocity": 89}, {"time": 4400, "pitch": 62, "duration": 11, "velocity": 92}, {"time": 4400, "pitch": 66, "duration": 14, "velocity": 96}, {"time": 4406, "pitch": 54, "duration": 17, "velocity": 91}, {"time": 4412, "pitch": 59, "duration": 8, "velocity": 100}, {"time": 4418, "pitch": 62, "duration": 5, "velocity": 102}, {"time": 4424, "pitch": 49, "duration": 13, "velocity": 98}, {"time": 4424, "pitch": 61, "duration": 10, "velocity": 96}, {"time": 4424, "pitch": 64, "duration": 5, "velocity": 97}, {"time": 4430, "pitch": 56, "duration": 6, "velocity": 96}, {"time": 4436, "pitch": 61, "duration": 5, "velocity": 95}, {"time": 4436, "pitch": 64, "duration": 5, "velocity": 95}, {"time": 4436, "pitch": 68, "duration": 6, "velocity": 95}, {"time": 4442, "pitch": 61, "duration": 3, "velocity": 71}, {"time": 4448, "pitch": 42, "duration": 37, "velocity": 98}, {"time": 4448, "pitch": 61, "duration": 8, "velocity": 95}, {"time": 4448, "pitch": 66, "duration": 11, "velocity": 98}, {"time": 4454, "pitch": 49, "duration": 21, "velocity": 90}, {"time": 4460, "pitch": 61, "duration": 9, "velocity": 97}, {"time": 4466, "pitch": 66, "duration": 3, "velocity": 97}, {"time": 4472, "pitch": 61, "duration": 8, "velocity": 100}, {"time": 4472, "pitch": 66, "duration": 10, "velocity": 112}, {"time": 4472, "pitch": 69, "duration": 13, "velocity": 100}, {"time": 4478, "pitch": 49, "duration": 7, "velocity": 99}, {"time": 4484, "pitch": 61, "duration": 4, "velocity": 106}, {"time": 4496, "pitch": 66, "duration": 16, "velocity": 88}, {"time": 4496, "pitch": 62, "duration": 14, "velocity": 93}, {"time": 4497, "pitch": 69, "duration": 17, "velocity": 93}, {"time": 4497, "pitch": 38, "duration": 2, "velocity": 100}, {"time": 4502, "pitch": 50, "duration": 11, "velocity": 95}, {"time": 4509, "pitch": 57, "duration": 5, "velocity": 101}, {"time": 4516, "pitch": 62, "duration": 1, "velocity": 90}, {"time": 4522, "pitch": 61, "duration": 9, "velocity": 85}, {"time": 4522, "pitch": 49, "duration": 14, "velocity": 109}, {"time": 4522, "pitch": 68, "duration": 15, "velocity": 93}, {"time": 4522, "pitch": 64, "duration": 14, "velocity": 95}, {"time": 4529, "pitch": 56, "duration": 7, "velocity": 91}, {"time": 4535, "pitch": 61, "duration": 8, "velocity": 101}, {"time": 4541, "pitch": 64, "duration": 2, "velocity": 99}, {"time": 4547, "pitch": 47, "duration": 46, "velocity": 99}, {"time": 4553, "pitch": 54, "duration": 22, "velocity": 82}, {"time": 4558, "pitch": 59, "duration": 8, "velocity": 98}, {"time": 4565, "pitch": 62, "duration": 3, "velocity": 96}, {"time": 4571, "pitch": 62, "duration": 13, "velocity": 90}, {"time": 4571, "pitch": 66, "duration": 26, "velocity": 88}, {"time": 4571, "pitch": 59, "duration": 3, "velocity": 78}, {"time": 4577, "pitch": 54, "duration": 11, "velocity": 82}, {"time": 4583, "pitch": 59, "duration": 14, "velocity": 95}, {"time": 4591, "pitch": 62, "duration": 7, "velocity": 90}, {"time": 4597, "pitch": 49, "duration": 14, "velocity": 95}, {"time": 4603, "pitch": 56, "duration": 7, "velocity": 81}, {"time": 4610, "pitch": 61, "duration": 10, "velocity": 91}, {"time": 4616, "pitch": 64, "duration": 29, "velocity": 88}, {"time": 4622, "pitch": 61, "duration": 23, "velocity": 60}, {"time": 4623, "pitch": 37, "duration": 10, "velocity": 85}, {"time": 4623, "pitch": 68, "duration": 21, "velocity": 88}, {"time": 4625, "pitch": 73, "duration": 21, "velocity": 91}, {"time": 4652, "pitch": 42, "duration": 95, "velocity": 101}, {"time": 4658, "pitch": 49, "duration": 89, "velocity": 83}, {"time": 4661, "pitch": 54, "duration": 4, "velocity": 82}, {"time": 4665, "pitch": 56, "duration": 3, "velocity": 80}, {"time": 4669, "pitch": 57, "duration": 6, "velocity": 83}, {"time": 4673, "pitch": 61, "duration": 5, "velocity": 83}, {"time": 4677, "pitch": 66, "duration": 3, "velocity": 84}, {"time": 4683, "pitch": 68, "duration": 4, "velocity": 94}, {"time": 4689, "pitch": 69, "duration": 8, "velocity": 89}, {"time": 4696, "pitch": 73, "duration": 2, "velocity": 95}, {"time": 4701, "pitch": 69, "duration": 3, "velocity": 85}, {"time": 4703, "pitch": 73, "duration": 2, "velocity": 84}, {"time": 4705, "pitch": 80, "duration": 2, "velocity": 98}, {"time": 4714, "pitch": 78, "duration": 2, "velocity": 91}, {"time": 4726, "pitch": 85, "duration": 1, "velocity": 85}], "annotations": [{"time": 32, "annotation": {"number": 64, "value": 127}, "group": "control_change"}, {"time": 33, "annotation": {"number": 64, "value": 0}, "group": "control_change"}, {"time": 33, "annotation": {"number": 64, "value": 127}, "group": "control_change"}, {"time": 78, "annotation": {"number": 64, "value": 0}, "group": "control_change"}, {"time": 81, "annotation": {"number": 64, "value": 127}, "group": "control_change"}, {"time": 125, "annotation": {"number": 64, "value": 0}, "group": "control_change"}, {"time": 131, "annotation": {"number": 64, "value": 127}, "group": "control_change"}, {"time": 163, "annotation": {"number": 64, "value": 127}, "group": "control_change"}, {"time": 172, "annotation": {"number": 64, "value": 0}, "group": "control_change"}, {"time": 175, "annotation": {"number": 64, "value": 127}, "group": "control_change"}, {"time": 223, "annotation": {"number": 64, "value": 0}, "group": "control_change"}, {"time": 232, "annotation": {"number": 64, "value": 127}, "group": "control_change"}, {"time": 271, "annotation": {"number": 64, "value": 0}, "group": "control_change"}, {"time": 283, "annotation": {"number": 64, "value": 127}, "group": "control_change"}, {"time": 318, "annotation": {"number": 64, "value": 0}, "group": "control_change"}, {"time": 322, "annotation": {"number": 64, "value": 127}, "group": "control_change"}, {"time": 370, "annotation": {"number": 64, "value": 0}, "group": "control_change"}, {"time": 372, "annotation": {"number": 64, "value": 127}, "group": "control_change"}, {"time": 428, "annotation": {"number": 64, "value": 127}, "group": "control_change"}, {"time": 429, "annotation": {"number": 64, "value": 0}, "group": "control_change"}, {"time": 429, "annotation": {"number": 64, "value": 127}, "group": "control_change"}, {"time": 462, "annotation": {"number": 64, "value": 0}, "group": "control_change"}, {"time": 471, "annotation": {"number": 64, "value": 127}, "group": "control_change"}, {"time": 508, "annotation": {"number": 64, "value": 0}, "group": "control_change"}, {"time": 517, "annotation": {"number": 64, "value": 127}, "group": "control_change"}, {"time": 557, "annotation": {"number": 64, "value": 0}, "group": "control_change"}, {"time": 566, "annotation": {"number": 64, "value": 127}, "group": "control_change"}, {"time": 606, "annotation": {"number": 64, "value": 0}, "group": "control_change"}, {"time": 613, "annotation": {"number": 64, "value": 127}, "group": "control_change"}, {"time": 655, "annotation": {"number": 64, "value": 127}, "group": "control_change"}, {"time": 656, "annotation": {"number": 64, "value": 0}, "group": "control_change"}, {"time": 679, "annotation": {"number": 64, "value": 0}, "group": "control_change"}, {"time": 683, "annotation": {"number": 64, "value": 127}, "group": "control_change"}, {"time": 702, "annotation": {"number": 64, "value": 0}, "group": "control_change"}, {"time": 709, "annotation": {"number": 64, "value": 127}, "group": "control_change"}, {"time": 750, "annotation": {"number": 64, "value": 0}, "group": "control_change"}, {"time": 754, "annotation": {"number": 64, "value": 127}, "group": "control_change"}, {"time": 799, "annotation": {"number": 64, "value": 0}, "group": "control_change"}, {"time": 809, "annotation": {"number": 64, "value": 127}, "group": "control_change"}, {"time": 846, "annotation": {"number": 64, "value": 0}, "group": "control_change"}, {"time": 853, "annotation": {"number": 64, "value": 127}, "group": "control_change"}, {"time": 894, "annotation": {"number": 64, "value": 0}, "group": "control_change"}, {"time": 900, "annotation": {"number": 64, "value": 127}, "group": "control_change"}, {"time": 944, "annotation": {"number": 64, "value": 0}, "group": "control_change"}, {"time": 952, "annotation": {"number": 64, "value": 127}, "group": "control_change"}, {"time": 990, "annotation": {"number": 64, "value": 0}, "group": "control_change"}, {"time": 992, "annotation": {"number": 64, "value": 127}, "group": "control_change"}, {"time": 1040, "annotation": {"number": 64, "value": 0}, "group": "control_change"}, {"time": 1046, "annotation": {"number": 64, "value": 127}, "group": "control_change"}, {"time": 1064, "annotation": {"number": 64, "value": 0}, "group": "control_change"}, {"time": 1066, "annotation": {"number": 64, "value": 127}, "group": "control_change"}, {"time": 1088, "annotation": {"number": 64, "value": 0}, "group": "control_change"}, {"time": 1095, "annotation": {"number": 64, "value": 127}, "group": "control_change"}, {"time": 1111, "annotation": {"number": 64, "value": 0}, "group": "control_change"}, {"time": 1114, "annotation": {"number": 64, "value": 127}, "group": "control_change"}, {"time": 1134, "annotation": {"number": 64, "value": 0}, "group": "control_change"}, {"time": 1137, "annotation": {"number": 64, "value": 127}, "group": "control_change"}, {"time": 1181, "annotation": {"number": 64, "value": 0}, "group": "control_change"}, {"time": 1189, "annotation": {"number": 64, "value": 127}, "group": "control_change"}, {"time": 1231, "annotation": {"number": 64, "value": 0}, "group": "control_change"}, {"time": 1234, "annotation": {"number": 64, "value": 127}, "group": "control_change"}, {"time": 1277, "annotation": {"number": 64, "value": 0}, "group": "control_change"}, {"time": 1280, "annotation": {"number": 64, "value": 127}, "group": "control_change"}, {"time": 1326, "annotation": {"number": 64, "value": 0}, "group": "control_change"}, {"time": 1328, "annotation": {"number": 64, "value": 127}, "group": "control_change"}, {"time": 1374, "annotation": {"number": 64, "value": 0}, "group": "control_change"}, {"time": 1377, "annotation": {"number": 64, "value": 127}, "group": "control_change"}, {"time": 1423, "annotation": {"number": 64, "value": 0}, "group": "control_change"}, {"time": 1430, "annotation": {"number": 64, "value": 127}, "group": "control_change"}, {"time": 1467, "annotation": {"number": 64, "value": 0}, "group": "control_change"}, {"time": 1471, "annotation": {"number": 64, "value": 127}, "group": "control_change"}, {"time": 1518, "annotation": {"number": 64, "value": 0}, "group": "control_change"}, {"time": 1521, "annotation": {"number": 64, "value": 127}, "group": "control_change"}, {"time": 1565, "annotation": {"number": 64, "value": 0}, "group": "control_change"}, {"time": 1573, "annotation": {"number": 64, "value": 127}, "group": "control_change"}, {"time": 1615, "annotation": {"number": 64, "value": 0}, "group": "control_change"}, {"time": 1618, "annotation": {"number": 64, "value": 127}, "group": "control_change"}, {"time": 1661, "annotation": {"number": 64, "value": 0}, "group": "control_change"}, {"time": 1664, "annotation": {"number": 64, "value": 127}, "group": "control_change"}, {"time": 1710, "annotation": {"number": 64, "value": 0}, "group": "control_change"}, {"time": 1712, "annotation": {"number": 64, "value": 127}, "group": "control_change"}, {"time": 1758, "annotation": {"number": 64, "value": 0}, "group": "control_change"}, {"time": 1761, "annotation": {"number": 64, "value": 127}, "group": "control_change"}, {"time": 1807, "annotation": {"number": 64, "value": 0}, "group": "control_change"}, {"time": 1814, "annotation": {"number": 64, "value": 127}, "group": "control_change"}, {"time": 1849, "annotation": {"number": 64, "value": 127}, "group": "control_change"}, {"time": 1849, "annotation": {"number": 64, "value": 0}, "group": "control_change"}, {"time": 1851, "annotation": {"number": 64, "value": 0}, "group": "control_change"}, {"time": 1855, "annotation": {"number": 64, "value": 127}, "group": "control_change"}, {"time": 1856, "annotation": {"number": 64, "value": 127}, "group": "control_change"}, {"time": 1877, "annotation": {"number": 64, "value": 0}, "group": "control_change"}, {"time": 1880, "annotation": {"number": 64, "value": 127}, "group": "control_change"}, {"time": 1903, "annotation": {"number": 64, "value": 0}, "group": "control_change"}, {"time": 1906, "annotation": {"number": 64, "value": 127}, "group": "control_change"}, {"time": 1949, "annotation": {"number": 64, "value": 0}, "group": "control_change"}, {"time": 1955, "annotation": {"number": 64, "value": 127}, "group": "control_change"}, {"time": 1998, "annotation": {"number": 64, "value": 0}, "group": "control_change"}, {"time": 2001, "annotation": {"number": 64, "value": 127}, "group": "control_change"}, {"time": 2046, "annotation": {"number": 64, "value": 0}, "group": "control_change"}, {"time": 2049, "annotation": {"number": 64, "value": 127}, "group": "control_change"}, {"time": 2095, "annotation": {"number": 64, "value": 0}, "group": "control_change"}, {"time": 2101, "annotation": {"number": 64, "value": 127}, "group": "control_change"}, {"time": 2142, "annotation": {"number": 64, "value": 0}, "group": "control_change"}, {"time": 2144, "annotation": {"number": 64, "value": 127}, "group": "control_change"}, {"time": 2190, "annotation": {"number": 64, "value": 0}, "group": "control_change"}, {"time": 2193, "annotation": {"number": 64, "value": 127}, "group": "control_change"}, {"time": 2239, "annotation": {"number": 64, "value": 0}, "group": "control_change"}, {"time": 2241, "annotation": {"number": 64, "value": 127}, "group": "control_change"}, {"time": 2286, "annotation": {"number": 64, "value": 0}, "group": "control_change"}, {"time": 2288, "annotation": {"number": 64, "value": 127}, "group": "control_change"}, {"time": 2333, "annotation": {"number": 64, "value": 0}, "group": "control_change"}, {"time": 2345, "annotation": {"number": 64, "value": 127}, "group": "control_change"}, {"time": 2382, "annotation": {"number": 64, "value": 0}, "group": "control_change"}, {"time": 2389, "annotation": {"number": 64, "value": 127}, "group": "control_change"}, {"time": 2430, "annotation": {"number": 64, "value": 0}, "group": "control_change"}, {"time": 2436, "annotation": {"number": 64, "value": 127}, "group": "control_change"}, {"time": 2480, "annotation": {"number": 64, "value": 0}, "group": "control_change"}, {"time": 2488, "annotation": {"number": 64, "value": 127}, "group": "control_change"}, {"time": 2526, "annotation": {"number": 64, "value": 0}, "group": "control_change"}, {"time": 2528, "annotation": {"number": 64, "value": 127}, "group": "control_change"}, {"time": 2576, "annotation": {"number": 64, "value": 0}, "group": "control_change"}, {"time": 2582, "annotation": {"number": 64, "value": 127}, "group": "control_change"}, {"time": 2600, "annotation": {"number": 64, "value": 0}, "group": "control_change"}, {"time": 2602, "annotation": {"number": 64, "value": 127}, "group": "control_change"}, {"time": 2624, "annotation": {"number": 64, "value": 0}, "group": "control_change"}, {"time": 2631, "annotation": {"number": 64, "value": 127}, "group": "control_change"}, {"time": 2647, "annotation": {"number": 64, "value": 0}, "group": "control_change"}, {"time": 2650, "annotation": {"number": 64, "value": 127}, "group": "control_change"}, {"time": 2670, "annotation": {"number": 64, "value": 0}, "group": "control_change"}, {"time": 2673, "annotation": {"number": 64, "value": 127}, "group": "control_change"}, {"time": 2717, "annotation": {"number": 64, "value": 0}, "group": "control_change"}, {"time": 2725, "annotation": {"number": 64, "value": 127}, "group": "control_change"}, {"time": 2767, "annotation": {"number": 64, "value": 0}, "group": "control_change"}, {"time": 2770, "annotation": {"number": 64, "value": 127}, "group": "control_change"}, {"time": 2813, "annotation": {"number": 64, "value": 0}, "group": "control_change"}, {"time": 2816, "annotation": {"number": 64, "value": 127}, "group": "control_change"}, {"time": 2862, "annotation": {"number": 64, "value": 0}, "group": "control_change"}, {"time": 2864, "annotation": {"number": 64, "value": 127}, "group": "control_change"}, {"time": 2910, "annotation": {"number": 64, "value": 0}, "group": "control_change"}, {"time": 2913, "annotation": {"number": 64, "value": 127}, "group": "control_change"}, {"time": 2959, "annotation": {"number": 64, "value": 0}, "group": "control_change"}, {"time": 2966, "annotation": {"number": 64, "value": 127}, "group": "control_change"}, {"time": 3003, "annotation": {"number": 64, "value": 0}, "group": "control_change"}, {"time": 3007, "annotation": {"number": 64, "value": 127}, "group": "control_change"}, {"time": 3054, "annotation": {"number": 64, "value": 0}, "group": "control_change"}, {"time": 3057, "annotation": {"number": 64, "value": 127}, "group": "control_change"}, {"time": 3101, "annotation": {"number": 64, "value": 0}, "group": "control_change"}, {"time": 3109, "annotation": {"number": 64, "value": 127}, "group": "control_change"}, {"time": 3151, "annotation": {"number": 64, "value": 0}, "group": "control_change"}, {"time": 3154, "annotation": {"number": 64, "value": 127}, "group": "control_change"}, {"time": 3197, "annotation": {"number": 64, "value": 0}, "group": "control_change"}, {"time": 3200, "annotation": {"number": 64, "value": 127}, "group": "control_change"}, {"time": 3246, "annotation": {"number": 64, "value": 0}, "group": "control_change"}, {"time": 3248, "annotation": {"number": 64, "value": 127}, "group": "control_change"}, {"time": 3294, "annotation": {"number": 64, "value": 0}, "group": "control_change"}, {"time": 3297, "annotation": {"number": 64, "value": 127}, "group": "control_change"}, {"time": 3343, "annotation": {"number": 64, "value": 0}, "group": "control_change"}, {"time": 3350, "annotation": {"number": 64, "value": 127}, "group": "control_change"}, {"time": 3385, "annotation": {"number": 64, "value": 127}, "group": "control_change"}, {"time": 3385, "annotation": {"number": 64, "value": 0}, "group": "control_change"}, {"time": 3387, "annotation": {"number": 64, "value": 0}, "group": "control_change"}, {"time": 3391, "annotation": {"number": 64, "value": 127}, "group": "control_change"}, {"time": 3392, "annotation": {"number": 64, "value": 127}, "group": "control_change"}, {"time": 3413, "annotation": {"number": 64, "value": 0}, "group": "control_change"}, {"time": 3416, "annotation": {"number": 64, "value": 127}, "group": "control_change"}, {"time": 3439, "annotation": {"number": 64, "value": 0}, "group": "control_change"}, {"time": 3442, "annotation": {"number": 64, "value": 127}, "group": "control_change"}, {"time": 3485, "annotation": {"number": 64, "value": 0}, "group": "control_change"}, {"time": 3491, "annotation": {"number": 64, "value": 127}, "group": "control_change"}, {"time": 3534, "annotation": {"number": 64, "value": 0}, "group": "control_change"}, {"time": 3541, "annotation": {"number": 64, "value": 127}, "group": "control_change"}, {"time": 3583, "annotation": {"number": 64, "value": 0}, "group": "control_change"}, {"time": 3586, "annotation": {"number": 64, "value": 127}, "group": "control_change"}, {"time": 3629, "annotation": {"number": 64, "value": 0}, "group": "control_change"}, {"time": 3632, "annotation": {"number": 64, "value": 127}, "group": "control_change"}, {"time": 3678, "annotation": {"number": 64, "value": 0}, "group": "control_change"}, {"time": 3680, "annotation": {"number": 64, "value": 127}, "group": "control_change"}, {"time": 3726, "annotation": {"number": 64, "value": 0}, "group": "control_change"}, {"time": 3729, "annotation": {"number": 64, "value": 127}, "group": "control_change"}, {"time": 3775, "annotation": {"number": 64, "value": 0}, "group": "control_change"}, {"time": 3782, "annotation": {"number": 64, "value": 127}, "group": "control_change"}, {"time": 3819, "annotation": {"number": 64, "value": 0}, "group": "control_change"}, {"time": 3823, "annotation": {"number": 64, "value": 127}, "group": "control_change"}, {"time": 3870, "annotation": {"number": 64, "value": 0}, "group": "control_change"}, {"time": 3873, "annotation": {"number": 64, "value": 127}, "group": "control_change"}, {"time": 3917, "annotation": {"number": 64, "value": 0}, "group": "control_change"}, {"time": 3925, "annotation": {"number": 64, "value": 127}, "group": "control_change"}, {"time": 3967, "annotation": {"number": 64, "value": 0}, "group": "control_change"}, {"time": 3970, "annotation": {"number": 64, "value": 127}, "group": "control_change"}, {"time": 4013, "annotation": {"number": 64, "value": 0}, "group": "control_change"}, {"time": 4016, "annotation": {"number": 64, "value": 127}, "group": "control_change"}, {"time": 4062, "annotation": {"number": 64, "value": 0}, "group": "control_change"}, {"time": 4064, "annotation": {"number": 64, "value": 127}, "group": "control_change"}, {"time": 4110, "annotation": {"number": 64, "value": 0}, "group": "control_change"}, {"time": 4113, "annotation": {"number": 64, "value": 127}, "group": "control_change"}, {"time": 4159, "annotation": {"number": 64, "value": 0}, "group": "control_change"}, {"time": 4166, "annotation": {"number": 64, "value": 127}, "group": "control_change"}, {"time": 4201, "annotation": {"number": 64, "value": 127}, "group": "control_change"}, {"time": 4201, "annotation": {"number": 64, "value": 0}, "group": "control_change"}, {"time": 4203, "annotation": {"number": 64, "value": 0}, "group": "control_change"}, {"time": 4207, "annotation": {"number": 64, "value": 127}, "group": "control_change"}, {"time": 4208, "annotation": {"number": 64, "value": 127}, "group": "control_change"}, {"time": 4229, "annotation": {"number": 64, "value": 0}, "group": "control_change"}, {"time": 4232, "annotation": {"number": 64, "value": 127}, "group": "control_change"}, {"time": 4255, "annotation": {"number": 64, "value": 0}, "group": "control_change"}, {"time": 4258, "annotation": {"number": 64, "value": 127}, "group": "control_change"}, {"time": 4301, "annotation": {"number": 64, "value": 0}, "group": "control_change"}, {"time": 4305, "annotation": {"number": 64, "value": 127}, "group": "control_change"}, {"time": 4351, "annotation": {"number": 64, "value": 0}, "group": "control_change"}, {"time": 4358, "annotation": {"number": 64, "value": 127}, "group": "control_change"}, {"time": 4393, "annotation": {"number": 64, "value": 127}, "group": "control_change"}, {"time": 4393, "annotation": {"number": 64, "value": 0}, "group": "control_change"}, {"time": 4395, "annotation": {"number": 64, "value": 0}, "group": "control_change"}, {"time": 4399, "annotation": {"number": 64, "value": 127}, "group": "control_change"}, {"time": 4400, "annotation": {"number": 64, "value": 127}, "group": "control_change"}, {"time": 4421, "annotation": {"number": 64, "value": 0}, "group": "control_change"}, {"time": 4424, "annotation": {"number": 64, "value": 127}, "group": "control_change"}, {"time": 4447, "annotation": {"number": 64, "value": 0}, "group": "control_change"}, {"time": 4450, "annotation": {"number": 64, "value": 127}, "group": "control_change"}, {"time": 4493, "annotation": {"number": 64, "value": 0}, "group": "control_change"}, {"time": 4497, "annotation": {"number": 64, "value": 127}, "group": "control_change"}, {"time": 4521, "annotation": {"number": 64, "value": 0}, "group": "control_change"}, {"time": 4524, "annotation": {"number": 64, "value": 127}, "group": "control_change"}, {"time": 4546, "annotation": {"number": 64, "value": 0}, "group": "control_change"}, {"time": 4548, "annotation": {"number": 64, "value": 127}, "group": "control_change"}, {"time": 4596, "annotation": {"number": 64, "value": 0}, "group": "control_change"}, {"time": 4599, "annotation": {"number": 64, "value": 127}, "group": "control_change"}, {"time": 4622, "annotation": {"number": 64, "value": 0}, "group": "control_change"}, {"time": 4623, "annotation": {"number": 64, "value": 127}, "group": "control_change"}, {"time": 4653, "annotation": {"number": 64, "value": 0}, "group": "control_change"}, {"time": 4656, "annotation": {"number": 64, "value": 127}, "group": "control_change"}]}]}