{"metadata": {"schema_version": "0.2", "title": "None", "source_filename": "520.mid", "source_format": "midi"}, "resolution": 12, "tempos": [{"time": 0, "qpm": 72.00011520018433}], "time_signatures": [{"time": 0, "numerator": 1, "denominator": 4}], "tracks": [{"program": 4, "is_drum": false, "name": "MELODY", "notes": [{"time": 388, "pitch": 78, "duration": 15, "velocity": 95}, {"time": 406, "pitch": 78, "duration": 2, "velocity": 93}, {"time": 409, "pitch": 78, "duration": 7, "velocity": 97}, {"time": 418, "pitch": 76, "duration": 14, "velocity": 87}, {"time": 436, "pitch": 74, "duration": 13, "velocity": 93}, {"time": 454, "pitch": 74, "duration": 3, "velocity": 87}, {"time": 460, "pitch": 74, "duration": 6, "velocity": 92}, {"time": 466, "pitch": 71, "duration": 16, "velocity": 86}, {"time": 484, "pitch": 78, "duration": 16, "velocity": 80}, {"time": 502, "pitch": 78, "duration": 3, "velocity": 90}, {"time": 505, "pitch": 78, "duration": 9, "velocity": 90}, {"time": 514, "pitch": 76, "duration": 4, "velocity": 84}, {"time": 520, "pitch": 76, "duration": 6, "velocity": 86}, {"time": 526, "pitch": 74, "duration": 2, "velocity": 86}, {"time": 529, "pitch": 74, "duration": 8, "velocity": 88}, {"time": 538, "pitch": 69, "duration": 2, "velocity": 88}, {"time": 541, "pitch": 71, "duration": 8, "velocity": 79}, {"time": 550, "pitch": 72, "duration": 2, "velocity": 75}, {"time": 553, "pitch": 71, "duration": 20, "velocity": 78}, {"time": 574, "pitch": 67, "duration": 2, "velocity": 82}, {"time": 577, "pitch": 69, "duration": 2, "velocity": 86}, {"time": 580, "pitch": 71, "duration": 1, "velocity": 82}, {"time": 583, "pitch": 71, "duration": 1, "velocity": 84}, {"time": 586, "pitch": 71, "duration": 1, "velocity": 86}, {"time": 589, "pitch": 71, "duration": 2, "velocity": 86}, {"time": 592, "pitch": 71, "duration": 7, "velocity": 87}, {"time": 601, "pitch": 71, "duration": 4, "velocity": 87}, {"time": 607, "pitch": 71, "duration": 2, "velocity": 87}, {"time": 610, "pitch": 71, "duration": 2, "velocity": 86}, {"time": 613, "pitch": 71, "duration": 2, "velocity": 86}, {"time": 616, "pitch": 71, "duration": 4, "velocity": 86}, {"time": 625, "pitch": 71, "duration": 5, "velocity": 85}, {"time": 631, "pitch": 71, "duration": 2, "velocity": 84}, {"time": 634, "pitch": 71, "duration": 2, "velocity": 84}, {"time": 637, "pitch": 71, "duration": 1, "velocity": 86}, {"time": 640, "pitch": 71, "duration": 7, "velocity": 88}, {"time": 649, "pitch": 71, "duration": 5, "velocity": 87}, {"time": 655, "pitch": 74, "duration": 1, "velocity": 87}, {"time": 658, "pitch": 74, "duration": 2, "velocity": 87}, {"time": 661, "pitch": 71, "duration": 2, "velocity": 89}, {"time": 664, "pitch": 76, "duration": 4, "velocity": 86}, {"time": 670, "pitch": 74, "duration": 4, "velocity": 89}, {"time": 676, "pitch": 72, "duration": 3, "velocity": 83}, {"time": 682, "pitch": 71, "duration": 2, "velocity": 87}, {"time": 685, "pitch": 72, "duration": 2, "velocity": 86}, {"time": 691, "pitch": 71, "duration": 2, "velocity": 87}, {"time": 694, "pitch": 72, "duration": 2, "velocity": 87}, {"time": 700, "pitch": 71, "duration": 1, "velocity": 87}, {"time": 703, "pitch": 72, "duration": 3, "velocity": 85}, {"time": 709, "pitch": 72, "duration": 2, "velocity": 86}, {"time": 712, "pitch": 72, "duration": 4, "velocity": 86}, {"time": 718, "pitch": 71, "duration": 4, "velocity": 89}, {"time": 724, "pitch": 74, "duration": 25, "velocity": 87}, {"time": 772, "pitch": 79, "duration": 4, "velocity": 82}, {"time": 778, "pitch": 78, "duration": 3, "velocity": 86}, {"time": 781, "pitch": 76, "duration": 3, "velocity": 87}, {"time": 787, "pitch": 71, "duration": 7, "velocity": 89}, {"time": 796, "pitch": 74, "duration": 4, "velocity": 88}, {"time": 802, "pitch": 76, "duration": 2, "velocity": 81}, {"time": 805, "pitch": 72, "duration": 11, "velocity": 79}, {"time": 817, "pitch": 71, "duration": 3, "velocity": 84}, {"time": 820, "pitch": 69, "duration": 4, "velocity": 84}, {"time": 826, "pitch": 71, "duration": 3, "velocity": 82}, {"time": 829, "pitch": 72, "duration": 4, "velocity": 84}, {"time": 835, "pitch": 74, "duration": 8, "velocity": 89}, {"time": 844, "pitch": 71, "duration": 11, "velocity": 84}, {"time": 856, "pitch": 69, "duration": 9, "velocity": 86}, {"time": 868, "pitch": 67, "duration": 4, "velocity": 84}, {"time": 874, "pitch": 66, "duration": 2, "velocity": 88}, {"time": 877, "pitch": 67, "duration": 4, "velocity": 82}, {"time": 883, "pitch": 74, "duration": 6, "velocity": 87}, {"time": 892, "pitch": 66, "duration": 5, "velocity": 86}, {"time": 898, "pitch": 64, "duration": 2, "velocity": 86}, {"time": 901, "pitch": 66, "duration": 7, "velocity": 84}, {"time": 907, "pitch": 74, "duration": 8, "velocity": 88}, {"time": 916, "pitch": 76, "duration": 5, "velocity": 81}, {"time": 922, "pitch": 74, "duration": 2, "velocity": 88}, {"time": 925, "pitch": 72, "duration": 11, "velocity": 82}, {"time": 940, "pitch": 75, "duration": 5, "velocity": 82}, {"time": 946, "pitch": 76, "duration": 2, "velocity": 87}, {"time": 949, "pitch": 78, "duration": 5, "velocity": 86}, {"time": 955, "pitch": 71, "duration": 7, "velocity": 91}, {"time": 964, "pitch": 79, "duration": 5, "velocity": 86}, {"time": 970, "pitch": 78, "duration": 2, "velocity": 90}, {"time": 973, "pitch": 76, "duration": 6, "velocity": 86}, {"time": 979, "pitch": 71, "duration": 6, "velocity": 87}, {"time": 988, "pitch": 74, "duration": 5, "velocity": 89}, {"time": 994, "pitch": 76, "duration": 2, "velocity": 82}, {"time": 997, "pitch": 72, "duration": 9, "velocity": 82}, {"time": 1009, "pitch": 71, "duration": 3, "velocity": 81}, {"time": 1012, "pitch": 69, "duration": 4, "velocity": 84}, {"time": 1018, "pitch": 71, "duration": 2, "velocity": 83}, {"time": 1021, "pitch": 72, "duration": 4, "velocity": 82}, {"time": 1027, "pitch": 74, "duration": 8, "velocity": 88}, {"time": 1036, "pitch": 71, "duration": 5, "velocity": 87}, {"time": 1042, "pitch": 76, "duration": 2, "velocity": 85}, {"time": 1045, "pitch": 74, "duration": 6, "velocity": 88}, {"time": 1051, "pitch": 69, "duration": 2, "velocity": 81}, {"time": 1054, "pitch": 67, "duration": 3, "velocity": 72}, {"time": 1060, "pitch": 67, "duration": 4, "velocity": 82}, {"time": 1066, "pitch": 66, "duration": 3, "velocity": 81}, {"time": 1069, "pitch": 67, "duration": 5, "velocity": 82}, {"time": 1075, "pitch": 79, "duration": 7, "velocity": 86}, {"time": 1084, "pitch": 78, "duration": 5, "velocity": 88}, {"time": 1090, "pitch": 76, "duration": 2, "velocity": 84}, {"time": 1093, "pitch": 74, "duration": 5, "velocity": 90}, {"time": 1099, "pitch": 67, "duration": 8, "velocity": 80}, {"time": 1108, "pitch": 76, "duration": 18, "velocity": 87}, {"time": 1132, "pitch": 75, "duration": 5, "velocity": 87}, {"time": 1138, "pitch": 76, "duration": 3, "velocity": 88}, {"time": 1141, "pitch": 78, "duration": 4, "velocity": 86}, {"time": 1147, "pitch": 79, "duration": 8, "velocity": 87}, {"time": 1156, "pitch": 76, "duration": 34, "velocity": 84}, {"time": 1348, "pitch": 78, "duration": 15, "velocity": 95}, {"time": 1366, "pitch": 78, "duration": 2, "velocity": 93}, {"time": 1369, "pitch": 78, "duration": 5, "velocity": 97}, {"time": 1378, "pitch": 76, "duration": 14, "velocity": 87}, {"time": 1396, "pitch": 74, "duration": 13, "velocity": 93}, {"time": 1414, "pitch": 74, "duration": 3, "velocity": 87}, {"time": 1420, "pitch": 74, "duration": 6, "velocity": 92}, {"time": 1426, "pitch": 71, "duration": 16, "velocity": 86}, {"time": 1444, "pitch": 78, "duration": 16, "velocity": 59}, {"time": 1462, "pitch": 78, "duration": 2, "velocity": 90}, {"time": 1465, "pitch": 78, "duration": 7, "velocity": 97}, {"time": 1474, "pitch": 76, "duration": 4, "velocity": 84}, {"time": 1480, "pitch": 76, "duration": 6, "velocity": 86}, {"time": 1486, "pitch": 74, "duration": 2, "velocity": 86}, {"time": 1489, "pitch": 74, "duration": 8, "velocity": 88}, {"time": 1498, "pitch": 69, "duration": 2, "velocity": 88}, {"time": 1501, "pitch": 71, "duration": 8, "velocity": 79}, {"time": 1510, "pitch": 72, "duration": 2, "velocity": 75}, {"time": 1513, "pitch": 71, "duration": 20, "velocity": 78}, {"time": 1534, "pitch": 67, "duration": 2, "velocity": 82}, {"time": 1537, "pitch": 69, "duration": 2, "velocity": 86}, {"time": 1540, "pitch": 71, "duration": 1, "velocity": 82}, {"time": 1543, "pitch": 71, "duration": 1, "velocity": 84}, {"time": 1546, "pitch": 71, "duration": 1, "velocity": 86}, {"time": 1549, "pitch": 71, "duration": 2, "velocity": 86}, {"time": 1552, "pitch": 71, "duration": 7, "velocity": 87}, {"time": 1561, "pitch": 71, "duration": 4, "velocity": 87}, {"time": 1567, "pitch": 71, "duration": 2, "velocity": 87}, {"time": 1570, "pitch": 71, "duration": 2, "velocity": 86}, {"time": 1573, "pitch": 71, "duration": 2, "velocity": 86}, {"time": 1576, "pitch": 71, "duration": 4, "velocity": 86}, {"time": 1585, "pitch": 71, "duration": 5, "velocity": 85}, {"time": 1591, "pitch": 71, "duration": 2, "velocity": 84}, {"time": 1594, "pitch": 71, "duration": 2, "velocity": 84}, {"time": 1597, "pitch": 71, "duration": 1, "velocity": 86}, {"time": 1600, "pitch": 71, "duration": 7, "velocity": 88}, {"time": 1609, "pitch": 71, "duration": 5, "velocity": 87}, {"time": 1615, "pitch": 74, "duration": 1, "velocity": 87}, {"time": 1618, "pitch": 74, "duration": 2, "velocity": 87}, {"time": 1621, "pitch": 71, "duration": 2, "velocity": 89}, {"time": 1624, "pitch": 76, "duration": 4, "velocity": 86}, {"time": 1630, "pitch": 74, "duration": 4, "velocity": 89}, {"time": 1636, "pitch": 72, "duration": 3, "velocity": 83}, {"time": 1642, "pitch": 71, "duration": 2, "velocity": 87}, {"time": 1645, "pitch": 72, "duration": 2, "velocity": 86}, {"time": 1651, "pitch": 71, "duration": 2, "velocity": 87}, {"time": 1654, "pitch": 72, "duration": 2, "velocity": 87}, {"time": 1660, "pitch": 71, "duration": 1, "velocity": 87}, {"time": 1663, "pitch": 72, "duration": 3, "velocity": 85}, {"time": 1669, "pitch": 72, "duration": 2, "velocity": 86}, {"time": 1672, "pitch": 72, "duration": 4, "velocity": 86}, {"time": 1678, "pitch": 71, "duration": 4, "velocity": 89}, {"time": 1684, "pitch": 74, "duration": 25, "velocity": 87}, {"time": 1732, "pitch": 79, "duration": 4, "velocity": 82}, {"time": 1738, "pitch": 78, "duration": 3, "velocity": 86}, {"time": 1741, "pitch": 76, "duration": 3, "velocity": 87}, {"time": 1747, "pitch": 71, "duration": 7, "velocity": 89}, {"time": 1756, "pitch": 74, "duration": 4, "velocity": 88}, {"time": 1762, "pitch": 76, "duration": 2, "velocity": 81}, {"time": 1765, "pitch": 72, "duration": 11, "velocity": 79}, {"time": 1777, "pitch": 71, "duration": 3, "velocity": 84}, {"time": 1780, "pitch": 69, "duration": 4, "velocity": 84}, {"time": 1786, "pitch": 71, "duration": 3, "velocity": 82}, {"time": 1789, "pitch": 72, "duration": 4, "velocity": 84}, {"time": 1795, "pitch": 74, "duration": 8, "velocity": 89}, {"time": 1804, "pitch": 71, "duration": 11, "velocity": 84}, {"time": 1816, "pitch": 69, "duration": 9, "velocity": 86}, {"time": 1828, "pitch": 67, "duration": 4, "velocity": 84}, {"time": 1834, "pitch": 66, "duration": 2, "velocity": 88}, {"time": 1837, "pitch": 67, "duration": 4, "velocity": 82}, {"time": 1843, "pitch": 74, "duration": 6, "velocity": 87}, {"time": 1852, "pitch": 66, "duration": 5, "velocity": 86}, {"time": 1858, "pitch": 64, "duration": 2, "velocity": 86}, {"time": 1861, "pitch": 66, "duration": 7, "velocity": 84}, {"time": 1867, "pitch": 74, "duration": 8, "velocity": 88}, {"time": 1876, "pitch": 76, "duration": 5, "velocity": 81}, {"time": 1882, "pitch": 74, "duration": 2, "velocity": 88}, {"time": 1885, "pitch": 72, "duration": 11, "velocity": 82}, {"time": 1900, "pitch": 75, "duration": 5, "velocity": 82}, {"time": 1906, "pitch": 76, "duration": 2, "velocity": 87}, {"time": 1909, "pitch": 78, "duration": 5, "velocity": 86}, {"time": 1915, "pitch": 71, "duration": 7, "velocity": 91}, {"time": 1924, "pitch": 79, "duration": 5, "velocity": 86}, {"time": 1930, "pitch": 78, "duration": 2, "velocity": 90}, {"time": 1933, "pitch": 76, "duration": 6, "velocity": 86}, {"time": 1939, "pitch": 71, "duration": 6, "velocity": 87}, {"time": 1948, "pitch": 74, "duration": 5, "velocity": 89}, {"time": 1954, "pitch": 76, "duration": 2, "velocity": 82}, {"time": 1957, "pitch": 72, "duration": 9, "velocity": 82}, {"time": 1969, "pitch": 71, "duration": 3, "velocity": 81}, {"time": 1972, "pitch": 69, "duration": 4, "velocity": 84}, {"time": 1978, "pitch": 71, "duration": 2, "velocity": 83}, {"time": 1981, "pitch": 72, "duration": 4, "velocity": 82}, {"time": 1987, "pitch": 74, "duration": 8, "velocity": 88}, {"time": 1996, "pitch": 71, "duration": 5, "velocity": 87}, {"time": 2002, "pitch": 76, "duration": 2, "velocity": 85}, {"time": 2005, "pitch": 74, "duration": 6, "velocity": 88}, {"time": 2011, "pitch": 69, "duration": 2, "velocity": 81}, {"time": 2014, "pitch": 67, "duration": 3, "velocity": 72}, {"time": 2020, "pitch": 67, "duration": 4, "velocity": 82}, {"time": 2026, "pitch": 66, "duration": 3, "velocity": 81}, {"time": 2029, "pitch": 67, "duration": 5, "velocity": 82}, {"time": 2035, "pitch": 79, "duration": 7, "velocity": 86}, {"time": 2044, "pitch": 78, "duration": 5, "velocity": 88}, {"time": 2050, "pitch": 76, "duration": 2, "velocity": 84}, {"time": 2053, "pitch": 74, "duration": 5, "velocity": 90}, {"time": 2059, "pitch": 67, "duration": 8, "velocity": 80}, {"time": 2068, "pitch": 76, "duration": 18, "velocity": 87}, {"time": 2092, "pitch": 75, "duration": 5, "velocity": 87}, {"time": 2098, "pitch": 76, "duration": 3, "velocity": 88}, {"time": 2101, "pitch": 78, "duration": 4, "velocity": 86}, {"time": 2107, "pitch": 79, "duration": 8, "velocity": 87}, {"time": 2116, "pitch": 76, "duration": 34, "velocity": 84}, {"time": 2302, "pitch": 67, "duration": 2, "velocity": 82}, {"time": 2305, "pitch": 69, "duration": 2, "velocity": 86}, {"time": 2308, "pitch": 71, "duration": 1, "velocity": 82}, {"time": 2311, "pitch": 71, "duration": 1, "velocity": 84}, {"time": 2314, "pitch": 71, "duration": 1, "velocity": 86}, {"time": 2317, "pitch": 71, "duration": 2, "velocity": 86}, {"time": 2320, "pitch": 71, "duration": 7, "velocity": 87}, {"time": 2329, "pitch": 71, "duration": 4, "velocity": 87}, {"time": 2335, "pitch": 71, "duration": 2, "velocity": 87}, {"time": 2338, "pitch": 71, "duration": 2, "velocity": 86}, {"time": 2341, "pitch": 71, "duration": 2, "velocity": 86}, {"time": 2344, "pitch": 71, "duration": 4, "velocity": 86}, {"time": 2353, "pitch": 71, "duration": 5, "velocity": 85}, {"time": 2359, "pitch": 71, "duration": 2, "velocity": 84}, {"time": 2362, "pitch": 71, "duration": 2, "velocity": 84}, {"time": 2365, "pitch": 71, "duration": 1, "velocity": 86}, {"time": 2368, "pitch": 71, "duration": 7, "velocity": 88}, {"time": 2377, "pitch": 71, "duration": 5, "velocity": 87}, {"time": 2383, "pitch": 74, "duration": 1, "velocity": 87}, {"time": 2386, "pitch": 74, "duration": 2, "velocity": 87}, {"time": 2389, "pitch": 71, "duration": 2, "velocity": 89}, {"time": 2392, "pitch": 76, "duration": 4, "velocity": 86}, {"time": 2398, "pitch": 74, "duration": 4, "velocity": 89}, {"time": 2404, "pitch": 72, "duration": 3, "velocity": 83}, {"time": 2410, "pitch": 71, "duration": 2, "velocity": 87}, {"time": 2413, "pitch": 72, "duration": 2, "velocity": 86}, {"time": 2419, "pitch": 71, "duration": 2, "velocity": 87}, {"time": 2422, "pitch": 72, "duration": 2, "velocity": 87}, {"time": 2428, "pitch": 71, "duration": 1, "velocity": 87}, {"time": 2431, "pitch": 72, "duration": 3, "velocity": 85}, {"time": 2437, "pitch": 72, "duration": 2, "velocity": 86}, {"time": 2440, "pitch": 72, "duration": 4, "velocity": 86}, {"time": 2446, "pitch": 71, "duration": 4, "velocity": 89}, {"time": 2452, "pitch": 74, "duration": 25, "velocity": 87}, {"time": 2500, "pitch": 79, "duration": 4, "velocity": 82}, {"time": 2506, "pitch": 78, "duration": 3, "velocity": 86}, {"time": 2509, "pitch": 76, "duration": 3, "velocity": 87}, {"time": 2515, "pitch": 71, "duration": 7, "velocity": 89}, {"time": 2524, "pitch": 74, "duration": 4, "velocity": 88}, {"time": 2530, "pitch": 76, "duration": 2, "velocity": 81}, {"time": 2533, "pitch": 72, "duration": 11, "velocity": 79}, {"time": 2545, "pitch": 71, "duration": 3, "velocity": 84}, {"time": 2548, "pitch": 69, "duration": 4, "velocity": 84}, {"time": 2554, "pitch": 71, "duration": 3, "velocity": 82}, {"time": 2557, "pitch": 72, "duration": 4, "velocity": 84}, {"time": 2563, "pitch": 74, "duration": 8, "velocity": 89}, {"time": 2572, "pitch": 71, "duration": 11, "velocity": 84}, {"time": 2584, "pitch": 69, "duration": 9, "velocity": 86}, {"time": 2596, "pitch": 67, "duration": 4, "velocity": 84}, {"time": 2602, "pitch": 66, "duration": 2, "velocity": 88}, {"time": 2605, "pitch": 67, "duration": 4, "velocity": 82}, {"time": 2611, "pitch": 74, "duration": 6, "velocity": 87}, {"time": 2620, "pitch": 66, "duration": 5, "velocity": 86}, {"time": 2626, "pitch": 64, "duration": 2, "velocity": 86}, {"time": 2629, "pitch": 66, "duration": 7, "velocity": 84}, {"time": 2635, "pitch": 74, "duration": 8, "velocity": 88}, {"time": 2644, "pitch": 76, "duration": 5, "velocity": 81}, {"time": 2650, "pitch": 74, "duration": 2, "velocity": 88}, {"time": 2653, "pitch": 72, "duration": 11, "velocity": 82}, {"time": 2668, "pitch": 75, "duration": 5, "velocity": 82}, {"time": 2674, "pitch": 76, "duration": 2, "velocity": 87}, {"time": 2677, "pitch": 78, "duration": 5, "velocity": 86}, {"time": 2683, "pitch": 71, "duration": 7, "velocity": 91}, {"time": 2692, "pitch": 79, "duration": 5, "velocity": 86}, {"time": 2698, "pitch": 78, "duration": 2, "velocity": 90}, {"time": 2701, "pitch": 76, "duration": 6, "velocity": 86}, {"time": 2707, "pitch": 71, "duration": 6, "velocity": 87}, {"time": 2716, "pitch": 74, "duration": 5, "velocity": 89}, {"time": 2722, "pitch": 76, "duration": 2, "velocity": 82}, {"time": 2725, "pitch": 72, "duration": 9, "velocity": 82}, {"time": 2737, "pitch": 71, "duration": 3, "velocity": 81}, {"time": 2740, "pitch": 69, "duration": 4, "velocity": 84}, {"time": 2746, "pitch": 71, "duration": 2, "velocity": 83}, {"time": 2749, "pitch": 72, "duration": 4, "velocity": 82}, {"time": 2755, "pitch": 74, "duration": 8, "velocity": 88}, {"time": 2764, "pitch": 71, "duration": 5, "velocity": 87}, {"time": 2770, "pitch": 76, "duration": 2, "velocity": 85}, {"time": 2773, "pitch": 74, "duration": 6, "velocity": 88}, {"time": 2779, "pitch": 69, "duration": 2, "velocity": 81}, {"time": 2782, "pitch": 67, "duration": 3, "velocity": 72}, {"time": 2788, "pitch": 67, "duration": 4, "velocity": 82}, {"time": 2794, "pitch": 66, "duration": 3, "velocity": 81}, {"time": 2797, "pitch": 67, "duration": 5, "velocity": 82}, {"time": 2803, "pitch": 79, "duration": 7, "velocity": 86}, {"time": 2812, "pitch": 78, "duration": 5, "velocity": 88}, {"time": 2818, "pitch": 76, "duration": 2, "velocity": 84}, {"time": 2821, "pitch": 74, "duration": 5, "velocity": 90}, {"time": 2827, "pitch": 67, "duration": 8, "velocity": 80}, {"time": 2836, "pitch": 76, "duration": 18, "velocity": 87}, {"time": 2860, "pitch": 75, "duration": 5, "velocity": 87}, {"time": 2866, "pitch": 76, "duration": 3, "velocity": 88}, {"time": 2869, "pitch": 78, "duration": 4, "velocity": 86}, {"time": 2875, "pitch": 79, "duration": 8, "velocity": 87}, {"time": 2884, "pitch": 76, "duration": 34, "velocity": 84}, {"time": 2926, "pitch": 76, "duration": 4, "velocity": 92}, {"time": 2929, "pitch": 74, "duration": 25, "velocity": 92}, {"time": 2956, "pitch": 71, "duration": 18, "velocity": 92}, {"time": 2980, "pitch": 76, "duration": 38, "velocity": 92}, {"time": 3022, "pitch": 76, "duration": 4, "velocity": 92}, {"time": 3025, "pitch": 74, "duration": 25, "velocity": 92}, {"time": 3052, "pitch": 75, "duration": 25, "velocity": 92}]}, {"program": 0, "is_drum": false, "name": "PIANO", "notes": [{"time": 4, "pitch": 40, "duration": 3, "velocity": 82}, {"time": 4, "pitch": 64, "duration": 9, "velocity": 86}, {"time": 4, "pitch": 67, "duration": 9, "velocity": 82}, {"time": 10, "pitch": 52, "duration": 8, "velocity": 87}, {"time": 16, "pitch": 64, "duration": 2, "velocity": 86}, {"time": 16, "pitch": 67, "duration": 6, "velocity": 86}, {"time": 16, "pitch": 71, "duration": 5, "velocity": 87}, {"time": 22, "pitch": 64, "duration": 2, "velocity": 87}, {"time": 22, "pitch": 64, "duration": 2, "velocity": 74}, {"time": 28, "pitch": 48, "duration": 18, "velocity": 87}, {"time": 34, "pitch": 55, "duration": 8, "velocity": 82}, {"time": 40, "pitch": 60, "duration": 6, "velocity": 86}, {"time": 40, "pitch": 64, "duration": 7, "velocity": 88}, {"time": 40, "pitch": 67, "duration": 7, "velocity": 86}, {"time": 52, "pitch": 50, "duration": 19, "velocity": 88}, {"time": 58, "pitch": 57, "duration": 9, "velocity": 74}, {"time": 64, "pitch": 62, "duration": 3, "velocity": 79}, {"time": 64, "pitch": 66, "duration": 12, "velocity": 77}, {"time": 64, "pitch": 69, "duration": 13, "velocity": 83}, {"time": 70, "pitch": 62, "duration": 6, "velocity": 79}, {"time": 76, "pitch": 52, "duration": 14, "velocity": 87}, {"time": 82, "pitch": 59, "duration": 8, "velocity": 83}, {"time": 88, "pitch": 64, "duration": 10, "velocity": 81}, {"time": 88, "pitch": 67, "duration": 10, "velocity": 86}, {"time": 88, "pitch": 71, "duration": 10, "velocity": 82}, {"time": 100, "pitch": 40, "duration": 3, "velocity": 82}, {"time": 100, "pitch": 64, "duration": 9, "velocity": 86}, {"time": 100, "pitch": 67, "duration": 9, "velocity": 82}, {"time": 106, "pitch": 52, "duration": 8, "velocity": 87}, {"time": 112, "pitch": 64, "duration": 2, "velocity": 86}, {"time": 112, "pitch": 67, "duration": 6, "velocity": 86}, {"time": 112, "pitch": 71, "duration": 5, "velocity": 87}, {"time": 118, "pitch": 64, "duration": 2, "velocity": 87}, {"time": 124, "pitch": 48, "duration": 15, "velocity": 87}, {"time": 124, "pitch": 60, "duration": 9, "velocity": 79}, {"time": 124, "pitch": 67, "duration": 8, "velocity": 81}, {"time": 130, "pitch": 55, "duration": 8, "velocity": 78}, {"time": 136, "pitch": 60, "duration": 2, "velocity": 83}, {"time": 136, "pitch": 64, "duration": 2, "velocity": 86}, {"time": 136, "pitch": 67, "duration": 3, "velocity": 80}, {"time": 148, "pitch": 38, "duration": 3, "velocity": 87}, {"time": 148, "pitch": 62, "duration": 9, "velocity": 80}, {"time": 148, "pitch": 66, "duration": 9, "velocity": 79}, {"time": 154, "pitch": 50, "duration": 10, "velocity": 70}, {"time": 160, "pitch": 62, "duration": 4, "velocity": 82}, {"time": 160, "pitch": 66, "duration": 7, "velocity": 87}, {"time": 160, "pitch": 69, "duration": 11, "velocity": 82}, {"time": 196, "pitch": 40, "duration": 20, "velocity": 87}, {"time": 196, "pitch": 52, "duration": 20, "velocity": 87}, {"time": 196, "pitch": 59, "duration": 10, "velocity": 85}, {"time": 196, "pitch": 64, "duration": 8, "velocity": 87}, {"time": 205, "pitch": 64, "duration": 2, "velocity": 83}, {"time": 205, "pitch": 67, "duration": 2, "velocity": 77}, {"time": 208, "pitch": 59, "duration": 7, "velocity": 86}, {"time": 208, "pitch": 64, "duration": 7, "velocity": 89}, {"time": 208, "pitch": 67, "duration": 7, "velocity": 86}, {"time": 217, "pitch": 59, "duration": 4, "velocity": 88}, {"time": 217, "pitch": 64, "duration": 4, "velocity": 87}, {"time": 217, "pitch": 67, "duration": 4, "velocity": 82}, {"time": 220, "pitch": 36, "duration": 21, "velocity": 85}, {"time": 220, "pitch": 48, "duration": 23, "velocity": 86}, {"time": 223, "pitch": 60, "duration": 5, "velocity": 80}, {"time": 223, "pitch": 64, "duration": 5, "velocity": 82}, {"time": 223, "pitch": 67, "duration": 5, "velocity": 82}, {"time": 229, "pitch": 60, "duration": 2, "velocity": 75}, {"time": 229, "pitch": 64, "duration": 1, "velocity": 79}, {"time": 229, "pitch": 67, "duration": 2, "velocity": 79}, {"time": 232, "pitch": 60, "duration": 9, "velocity": 86}, {"time": 232, "pitch": 64, "duration": 8, "velocity": 88}, {"time": 232, "pitch": 67, "duration": 10, "velocity": 87}, {"time": 244, "pitch": 38, "duration": 22, "velocity": 88}, {"time": 244, "pitch": 50, "duration": 23, "velocity": 86}, {"time": 244, "pitch": 57, "duration": 11, "velocity": 87}, {"time": 244, "pitch": 62, "duration": 11, "velocity": 84}, {"time": 244, "pitch": 66, "duration": 11, "velocity": 77}, {"time": 256, "pitch": 57, "duration": 7, "velocity": 83}, {"time": 256, "pitch": 62, "duration": 7, "velocity": 86}, {"time": 256, "pitch": 66, "duration": 7, "velocity": 84}, {"time": 265, "pitch": 57, "duration": 4, "velocity": 80}, {"time": 265, "pitch": 62, "duration": 4, "velocity": 87}, {"time": 265, "pitch": 66, "duration": 4, "velocity": 82}, {"time": 268, "pitch": 40, "duration": 21, "velocity": 86}, {"time": 268, "pitch": 52, "duration": 21, "velocity": 86}, {"time": 271, "pitch": 59, "duration": 5, "velocity": 80}, {"time": 271, "pitch": 64, "duration": 5, "velocity": 87}, {"time": 277, "pitch": 59, "duration": 2, "velocity": 77}, {"time": 277, "pitch": 64, "duration": 2, "velocity": 82}, {"time": 280, "pitch": 59, "duration": 11, "velocity": 84}, {"time": 280, "pitch": 64, "duration": 10, "velocity": 92}, {"time": 280, "pitch": 67, "duration": 10, "velocity": 87}, {"time": 292, "pitch": 40, "duration": 20, "velocity": 87}, {"time": 292, "pitch": 52, "duration": 20, "velocity": 87}, {"time": 292, "pitch": 59, "duration": 10, "velocity": 85}, {"time": 292, "pitch": 64, "duration": 8, "velocity": 87}, {"time": 301, "pitch": 64, "duration": 2, "velocity": 83}, {"time": 301, "pitch": 67, "duration": 2, "velocity": 77}, {"time": 304, "pitch": 59, "duration": 7, "velocity": 86}, {"time": 304, "pitch": 64, "duration": 7, "velocity": 89}, {"time": 304, "pitch": 67, "duration": 7, "velocity": 86}, {"time": 313, "pitch": 59, "duration": 4, "velocity": 88}, {"time": 313, "pitch": 64, "duration": 4, "velocity": 87}, {"time": 313, "pitch": 67, "duration": 4, "velocity": 82}, {"time": 316, "pitch": 36, "duration": 21, "velocity": 85}, {"time": 316, "pitch": 48, "duration": 23, "velocity": 86}, {"time": 319, "pitch": 60, "duration": 5, "velocity": 80}, {"time": 319, "pitch": 64, "duration": 5, "velocity": 82}, {"time": 319, "pitch": 67, "duration": 5, "velocity": 82}, {"time": 325, "pitch": 60, "duration": 2, "velocity": 75}, {"time": 325, "pitch": 64, "duration": 1, "velocity": 79}, {"time": 325, "pitch": 67, "duration": 2, "velocity": 79}, {"time": 328, "pitch": 60, "duration": 9, "velocity": 86}, {"time": 328, "pitch": 64, "duration": 8, "velocity": 88}, {"time": 328, "pitch": 67, "duration": 10, "velocity": 87}, {"time": 340, "pitch": 38, "duration": 22, "velocity": 88}, {"time": 340, "pitch": 50, "duration": 23, "velocity": 86}, {"time": 340, "pitch": 57, "duration": 11, "velocity": 87}, {"time": 340, "pitch": 62, "duration": 11, "velocity": 84}, {"time": 340, "pitch": 66, "duration": 11, "velocity": 77}, {"time": 352, "pitch": 57, "duration": 7, "velocity": 83}, {"time": 352, "pitch": 62, "duration": 7, "velocity": 86}, {"time": 352, "pitch": 66, "duration": 7, "velocity": 84}, {"time": 361, "pitch": 57, "duration": 4, "velocity": 80}, {"time": 361, "pitch": 62, "duration": 4, "velocity": 87}, {"time": 361, "pitch": 66, "duration": 4, "velocity": 82}, {"time": 364, "pitch": 40, "duration": 21, "velocity": 86}, {"time": 364, "pitch": 52, "duration": 21, "velocity": 86}, {"time": 367, "pitch": 59, "duration": 5, "velocity": 80}, {"time": 367, "pitch": 64, "duration": 5, "velocity": 87}, {"time": 373, "pitch": 59, "duration": 2, "velocity": 77}, {"time": 373, "pitch": 64, "duration": 2, "velocity": 82}, {"time": 376, "pitch": 59, "duration": 11, "velocity": 84}, {"time": 376, "pitch": 64, "duration": 10, "velocity": 92}, {"time": 376, "pitch": 67, "duration": 10, "velocity": 87}, {"time": 388, "pitch": 52, "duration": 17, "velocity": 90}, {"time": 394, "pitch": 59, "duration": 11, "velocity": 81}, {"time": 400, "pitch": 64, "duration": 2, "velocity": 80}, {"time": 400, "pitch": 67, "duration": 11, "velocity": 75}, {"time": 400, "pitch": 71, "duration": 19, "velocity": 85}, {"time": 406, "pitch": 64, "duration": 6, "velocity": 78}, {"time": 412, "pitch": 48, "duration": 19, "velocity": 87}, {"time": 418, "pitch": 60, "duration": 7, "velocity": 69}, {"time": 424, "pitch": 64, "duration": 11, "velocity": 83}, {"time": 424, "pitch": 67, "duration": 11, "velocity": 75}, {"time": 424, "pitch": 71, "duration": 16, "velocity": 81}, {"time": 436, "pitch": 50, "duration": 21, "velocity": 87}, {"time": 442, "pitch": 57, "duration": 16, "velocity": 83}, {"time": 448, "pitch": 62, "duration": 2, "velocity": 81}, {"time": 448, "pitch": 66, "duration": 11, "velocity": 79}, {"time": 448, "pitch": 69, "duration": 14, "velocity": 82}, {"time": 454, "pitch": 62, "duration": 7, "velocity": 82}, {"time": 460, "pitch": 52, "duration": 23, "velocity": 89}, {"time": 466, "pitch": 59, "duration": 17, "velocity": 82}, {"time": 472, "pitch": 64, "duration": 3, "velocity": 85}, {"time": 472, "pitch": 67, "duration": 11, "velocity": 82}, {"time": 472, "pitch": 71, "duration": 11, "velocity": 86}, {"time": 478, "pitch": 64, "duration": 5, "velocity": 74}, {"time": 484, "pitch": 52, "duration": 17, "velocity": 90}, {"time": 490, "pitch": 59, "duration": 11, "velocity": 81}, {"time": 496, "pitch": 64, "duration": 2, "velocity": 80}, {"time": 496, "pitch": 67, "duration": 11, "velocity": 75}, {"time": 496, "pitch": 71, "duration": 19, "velocity": 85}, {"time": 502, "pitch": 64, "duration": 6, "velocity": 78}, {"time": 508, "pitch": 48, "duration": 19, "velocity": 87}, {"time": 514, "pitch": 60, "duration": 7, "velocity": 69}, {"time": 520, "pitch": 64, "duration": 11, "velocity": 83}, {"time": 520, "pitch": 67, "duration": 11, "velocity": 75}, {"time": 520, "pitch": 71, "duration": 16, "velocity": 81}, {"time": 532, "pitch": 50, "duration": 21, "velocity": 87}, {"time": 538, "pitch": 57, "duration": 16, "velocity": 83}, {"time": 544, "pitch": 62, "duration": 2, "velocity": 81}, {"time": 544, "pitch": 66, "duration": 11, "velocity": 79}, {"time": 544, "pitch": 69, "duration": 14, "velocity": 82}, {"time": 550, "pitch": 62, "duration": 7, "velocity": 82}, {"time": 556, "pitch": 52, "duration": 23, "velocity": 89}, {"time": 562, "pitch": 59, "duration": 17, "velocity": 82}, {"time": 568, "pitch": 64, "duration": 3, "velocity": 85}, {"time": 568, "pitch": 67, "duration": 11, "velocity": 82}, {"time": 568, "pitch": 71, "duration": 11, "velocity": 86}, {"time": 574, "pitch": 64, "duration": 5, "velocity": 74}, {"time": 580, "pitch": 48, "duration": 21, "velocity": 88}, {"time": 580, "pitch": 60, "duration": 3, "velocity": 83}, {"time": 580, "pitch": 67, "duration": 6, "velocity": 79}, {"time": 583, "pitch": 55, "duration": 12, "velocity": 79}, {"time": 586, "pitch": 60, "duration": 6, "velocity": 86}, {"time": 589, "pitch": 64, "duration": 3, "velocity": 93}, {"time": 595, "pitch": 60, "duration": 3, "velocity": 87}, {"time": 595, "pitch": 64, "duration": 5, "velocity": 97}, {"time": 595, "pitch": 67, "duration": 7, "velocity": 86}, {"time": 598, "pitch": 55, "duration": 4, "velocity": 77}, {"time": 601, "pitch": 60, "duration": 2, "velocity": 83}, {"time": 604, "pitch": 50, "duration": 17, "velocity": 88}, {"time": 604, "pitch": 62, "duration": 3, "velocity": 77}, {"time": 604, "pitch": 66, "duration": 4, "velocity": 82}, {"time": 607, "pitch": 57, "duration": 7, "velocity": 79}, {"time": 610, "pitch": 62, "duration": 2, "velocity": 81}, {"time": 613, "pitch": 62, "duration": 3, "velocity": 84}, {"time": 613, "pitch": 66, "duration": 3, "velocity": 93}, {"time": 613, "pitch": 69, "duration": 4, "velocity": 86}, {"time": 616, "pitch": 57, "duration": 5, "velocity": 78}, {"time": 619, "pitch": 62, "duration": 2, "velocity": 79}, {"time": 619, "pitch": 66, "duration": 3, "velocity": 86}, {"time": 619, "pitch": 69, "duration": 8, "velocity": 84}, {"time": 628, "pitch": 47, "duration": 19, "velocity": 87}, {"time": 628, "pitch": 59, "duration": 4, "velocity": 82}, {"time": 628, "pitch": 62, "duration": 6, "velocity": 82}, {"time": 631, "pitch": 54, "duration": 8, "velocity": 79}, {"time": 634, "pitch": 59, "duration": 2, "velocity": 88}, {"time": 637, "pitch": 59, "duration": 4, "velocity": 87}, {"time": 637, "pitch": 62, "duration": 4, "velocity": 84}, {"time": 637, "pitch": 66, "duration": 4, "velocity": 79}, {"time": 640, "pitch": 54, "duration": 4, "velocity": 77}, {"time": 643, "pitch": 59, "duration": 2, "velocity": 88}, {"time": 643, "pitch": 62, "duration": 4, "velocity": 86}, {"time": 646, "pitch": 59, "duration": 4, "velocity": 84}, {"time": 649, "pitch": 62, "duration": 2, "velocity": 85}, {"time": 652, "pitch": 52, "duration": 21, "velocity": 87}, {"time": 652, "pitch": 59, "duration": 4, "velocity": 86}, {"time": 652, "pitch": 64, "duration": 7, "velocity": 87}, {"time": 658, "pitch": 59, "duration": 2, "velocity": 87}, {"time": 661, "pitch": 59, "duration": 4, "velocity": 87}, {"time": 661, "pitch": 64, "duration": 4, "velocity": 88}, {"time": 661, "pitch": 67, "duration": 3, "velocity": 87}, {"time": 667, "pitch": 59, "duration": 2, "velocity": 88}, {"time": 667, "pitch": 64, "duration": 4, "velocity": 88}, {"time": 670, "pitch": 59, "duration": 2, "velocity": 87}, {"time": 676, "pitch": 45, "duration": 22, "velocity": 87}, {"time": 679, "pitch": 52, "duration": 12, "velocity": 87}, {"time": 682, "pitch": 57, "duration": 2, "velocity": 86}, {"time": 685, "pitch": 57, "duration": 3, "velocity": 87}, {"time": 685, "pitch": 60, "duration": 3, "velocity": 90}, {"time": 691, "pitch": 57, "duration": 2, "velocity": 82}, {"time": 691, "pitch": 60, "duration": 3, "velocity": 89}, {"time": 691, "pitch": 64, "duration": 3, "velocity": 90}, {"time": 694, "pitch": 52, "duration": 3, "velocity": 80}, {"time": 697, "pitch": 57, "duration": 1, "velocity": 75}, {"time": 700, "pitch": 48, "duration": 19, "velocity": 88}, {"time": 700, "pitch": 55, "duration": 2, "velocity": 85}, {"time": 700, "pitch": 60, "duration": 4, "velocity": 81}, {"time": 706, "pitch": 55, "duration": 1, "velocity": 88}, {"time": 709, "pitch": 55, "duration": 4, "velocity": 87}, {"time": 709, "pitch": 60, "duration": 4, "velocity": 87}, {"time": 709, "pitch": 64, "duration": 4, "velocity": 88}, {"time": 715, "pitch": 55, "duration": 2, "velocity": 86}, {"time": 715, "pitch": 60, "duration": 5, "velocity": 82}, {"time": 715, "pitch": 64, "duration": 5, "velocity": 88}, {"time": 718, "pitch": 55, "duration": 2, "velocity": 80}, {"time": 724, "pitch": 50, "duration": 21, "velocity": 86}, {"time": 724, "pitch": 57, "duration": 3, "velocity": 81}, {"time": 724, "pitch": 62, "duration": 7, "velocity": 82}, {"time": 730, "pitch": 57, "duration": 1, "velocity": 73}, {"time": 733, "pitch": 57, "duration": 4, "velocity": 83}, {"time": 733, "pitch": 66, "duration": 5, "velocity": 86}, {"time": 739, "pitch": 62, "duration": 4, "velocity": 85}, {"time": 745, "pitch": 57, "duration": 1, "velocity": 76}, {"time": 748, "pitch": 50, "duration": 18, "velocity": 93}, {"time": 748, "pitch": 57, "duration": 10, "velocity": 88}, {"time": 748, "pitch": 62, "duration": 10, "velocity": 91}, {"time": 772, "pitch": 40, "duration": 17, "velocity": 89}, {"time": 772, "pitch": 64, "duration": 5, "velocity": 88}, {"time": 772, "pitch": 67, "duration": 7, "velocity": 84}, {"time": 775, "pitch": 47, "duration": 13, "velocity": 77}, {"time": 778, "pitch": 59, "duration": 2, "velocity": 88}, {"time": 781, "pitch": 59, "duration": 4, "velocity": 85}, {"time": 781, "pitch": 64, "duration": 4, "velocity": 92}, {"time": 781, "pitch": 67, "duration": 4, "velocity": 88}, {"time": 787, "pitch": 59, "duration": 3, "velocity": 86}, {"time": 787, "pitch": 64, "duration": 3, "velocity": 93}, {"time": 787, "pitch": 67, "duration": 3, "velocity": 87}, {"time": 796, "pitch": 36, "duration": 17, "velocity": 86}, {"time": 796, "pitch": 55, "duration": 4, "velocity": 85}, {"time": 796, "pitch": 60, "duration": 4, "velocity": 84}, {"time": 799, "pitch": 43, "duration": 14, "velocity": 72}, {"time": 802, "pitch": 55, "duration": 2, "velocity": 90}, {"time": 805, "pitch": 55, "duration": 4, "velocity": 86}, {"time": 805, "pitch": 60, "duration": 4, "velocity": 90}, {"time": 805, "pitch": 64, "duration": 4, "velocity": 91}, {"time": 811, "pitch": 55, "duration": 2, "velocity": 89}, {"time": 811, "pitch": 60, "duration": 2, "velocity": 93}, {"time": 811, "pitch": 64, "duration": 2, "velocity": 95}, {"time": 820, "pitch": 38, "duration": 16, "velocity": 90}, {"time": 820, "pitch": 62, "duration": 4, "velocity": 86}, {"time": 820, "pitch": 66, "duration": 7, "velocity": 88}, {"time": 823, "pitch": 45, "duration": 12, "velocity": 82}, {"time": 826, "pitch": 57, "duration": 7, "velocity": 90}, {"time": 829, "pitch": 62, "duration": 4, "velocity": 87}, {"time": 835, "pitch": 57, "duration": 1, "velocity": 69}, {"time": 835, "pitch": 62, "duration": 4, "velocity": 87}, {"time": 835, "pitch": 66, "duration": 4, "velocity": 102}, {"time": 838, "pitch": 57, "duration": 2, "velocity": 81}, {"time": 844, "pitch": 43, "duration": 7, "velocity": 87}, {"time": 844, "pitch": 55, "duration": 3, "velocity": 87}, {"time": 844, "pitch": 59, "duration": 4, "velocity": 87}, {"time": 844, "pitch": 62, "duration": 4, "velocity": 87}, {"time": 847, "pitch": 50, "duration": 7, "velocity": 86}, {"time": 850, "pitch": 55, "duration": 2, "velocity": 88}, {"time": 856, "pitch": 42, "duration": 5, "velocity": 88}, {"time": 856, "pitch": 57, "duration": 3, "velocity": 87}, {"time": 856, "pitch": 62, "duration": 4, "velocity": 88}, {"time": 859, "pitch": 50, "duration": 4, "velocity": 86}, {"time": 862, "pitch": 57, "duration": 4, "velocity": 89}, {"time": 868, "pitch": 40, "duration": 20, "velocity": 88}, {"time": 868, "pitch": 59, "duration": 4, "velocity": 76}, {"time": 868, "pitch": 64, "duration": 5, "velocity": 87}, {"time": 871, "pitch": 47, "duration": 17, "velocity": 81}, {"time": 874, "pitch": 59, "duration": 6, "velocity": 93}, {"time": 877, "pitch": 64, "duration": 4, "velocity": 90}, {"time": 883, "pitch": 59, "duration": 2, "velocity": 87}, {"time": 883, "pitch": 64, "duration": 9, "velocity": 90}, {"time": 883, "pitch": 67, "duration": 9, "velocity": 88}, {"time": 889, "pitch": 59, "duration": 4, "velocity": 87}, {"time": 892, "pitch": 47, "duration": 19, "velocity": 93}, {"time": 895, "pitch": 59, "duration": 4, "velocity": 87}, {"time": 898, "pitch": 62, "duration": 2, "velocity": 80}, {"time": 901, "pitch": 59, "duration": 4, "velocity": 87}, {"time": 901, "pitch": 62, "duration": 4, "velocity": 88}, {"time": 901, "pitch": 66, "duration": 5, "velocity": 93}, {"time": 907, "pitch": 59, "duration": 2, "velocity": 89}, {"time": 907, "pitch": 62, "duration": 4, "velocity": 88}, {"time": 907, "pitch": 66, "duration": 4, "velocity": 89}, {"time": 916, "pitch": 48, "duration": 16, "velocity": 92}, {"time": 916, "pitch": 55, "duration": 3, "velocity": 86}, {"time": 916, "pitch": 60, "duration": 4, "velocity": 86}, {"time": 919, "pitch": 52, "duration": 15, "velocity": 84}, {"time": 922, "pitch": 55, "duration": 2, "velocity": 90}, {"time": 925, "pitch": 55, "duration": 5, "velocity": 87}, {"time": 925, "pitch": 60, "duration": 5, "velocity": 90}, {"time": 925, "pitch": 64, "duration": 4, "velocity": 100}, {"time": 931, "pitch": 55, "duration": 1, "velocity": 83}, {"time": 931, "pitch": 60, "duration": 3, "velocity": 86}, {"time": 934, "pitch": 55, "duration": 3, "velocity": 87}, {"time": 940, "pitch": 47, "duration": 23, "velocity": 87}, {"time": 940, "pitch": 59, "duration": 4, "velocity": 84}, {"time": 940, "pitch": 63, "duration": 6, "velocity": 81}, {"time": 943, "pitch": 54, "duration": 14, "velocity": 80}, {"time": 946, "pitch": 59, "duration": 2, "velocity": 86}, {"time": 949, "pitch": 59, "duration": 3, "velocity": 88}, {"time": 949, "pitch": 63, "duration": 4, "velocity": 88}, {"time": 955, "pitch": 59, "duration": 3, "velocity": 87}, {"time": 955, "pitch": 63, "duration": 5, "velocity": 90}, {"time": 955, "pitch": 66, "duration": 5, "velocity": 90}, {"time": 958, "pitch": 51, "duration": 3, "velocity": 75}, {"time": 958, "pitch": 54, "duration": 3, "velocity": 87}, {"time": 964, "pitch": 40, "duration": 16, "velocity": 90}, {"time": 964, "pitch": 59, "duration": 4, "velocity": 84}, {"time": 964, "pitch": 64, "duration": 5, "velocity": 87}, {"time": 967, "pitch": 47, "duration": 12, "velocity": 82}, {"time": 970, "pitch": 59, "duration": 6, "velocity": 89}, {"time": 973, "pitch": 64, "duration": 4, "velocity": 88}, {"time": 979, "pitch": 59, "duration": 2, "velocity": 88}, {"time": 979, "pitch": 64, "duration": 6, "velocity": 90}, {"time": 979, "pitch": 67, "duration": 6, "velocity": 88}, {"time": 985, "pitch": 59, "duration": 1, "velocity": 90}, {"time": 988, "pitch": 45, "duration": 21, "velocity": 87}, {"time": 988, "pitch": 57, "duration": 3, "velocity": 87}, {"time": 988, "pitch": 60, "duration": 5, "velocity": 95}, {"time": 991, "pitch": 52, "duration": 18, "velocity": 82}, {"time": 994, "pitch": 57, "duration": 1, "velocity": 79}, {"time": 997, "pitch": 57, "duration": 4, "velocity": 82}, {"time": 997, "pitch": 60, "duration": 4, "velocity": 84}, {"time": 1003, "pitch": 57, "duration": 3, "velocity": 85}, {"time": 1003, "pitch": 60, "duration": 5, "velocity": 88}, {"time": 1003, "pitch": 64, "duration": 5, "velocity": 87}, {"time": 1012, "pitch": 50, "duration": 21, "velocity": 88}, {"time": 1012, "pitch": 57, "duration": 2, "velocity": 71}, {"time": 1012, "pitch": 62, "duration": 6, "velocity": 80}, {"time": 1018, "pitch": 57, "duration": 2, "velocity": 86}, {"time": 1021, "pitch": 57, "duration": 4, "velocity": 82}, {"time": 1021, "pitch": 62, "duration": 4, "velocity": 86}, {"time": 1027, "pitch": 57, "duration": 2, "velocity": 85}, {"time": 1027, "pitch": 62, "duration": 6, "velocity": 87}, {"time": 1027, "pitch": 66, "duration": 6, "velocity": 86}, {"time": 1033, "pitch": 57, "duration": 1, "velocity": 87}, {"time": 1036, "pitch": 43, "duration": 7, "velocity": 87}, {"time": 1036, "pitch": 55, "duration": 3, "velocity": 87}, {"time": 1036, "pitch": 59, "duration": 6, "velocity": 88}, {"time": 1039, "pitch": 50, "duration": 7, "velocity": 81}, {"time": 1042, "pitch": 55, "duration": 3, "velocity": 89}, {"time": 1048, "pitch": 42, "duration": 6, "velocity": 87}, {"time": 1048, "pitch": 57, "duration": 4, "velocity": 82}, {"time": 1048, "pitch": 62, "duration": 7, "velocity": 84}, {"time": 1051, "pitch": 50, "duration": 5, "velocity": 84}, {"time": 1054, "pitch": 57, "duration": 3, "velocity": 89}, {"time": 1060, "pitch": 52, "duration": 17, "velocity": 83}, {"time": 1060, "pitch": 59, "duration": 2, "velocity": 87}, {"time": 1060, "pitch": 64, "duration": 4, "velocity": 89}, {"time": 1063, "pitch": 59, "duration": 4, "velocity": 86}, {"time": 1066, "pitch": 64, "duration": 1, "velocity": 83}, {"time": 1069, "pitch": 59, "duration": 5, "velocity": 88}, {"time": 1069, "pitch": 64, "duration": 5, "velocity": 93}, {"time": 1069, "pitch": 67, "duration": 4, "velocity": 88}, {"time": 1075, "pitch": 59, "duration": 3, "velocity": 87}, {"time": 1075, "pitch": 64, "duration": 3, "velocity": 93}, {"time": 1084, "pitch": 47, "duration": 17, "velocity": 88}, {"time": 1084, "pitch": 59, "duration": 4, "velocity": 87}, {"time": 1084, "pitch": 66, "duration": 6, "velocity": 79}, {"time": 1087, "pitch": 54, "duration": 7, "velocity": 79}, {"time": 1090, "pitch": 59, "duration": 2, "velocity": 87}, {"time": 1093, "pitch": 59, "duration": 4, "velocity": 87}, {"time": 1093, "pitch": 62, "duration": 4, "velocity": 93}, {"time": 1096, "pitch": 54, "duration": 3, "velocity": 81}, {"time": 1099, "pitch": 59, "duration": 2, "velocity": 88}, {"time": 1099, "pitch": 62, "duration": 4, "velocity": 91}, {"time": 1099, "pitch": 66, "duration": 7, "velocity": 90}, {"time": 1102, "pitch": 59, "duration": 6, "velocity": 89}, {"time": 1105, "pitch": 62, "duration": 3, "velocity": 82}, {"time": 1108, "pitch": 48, "duration": 21, "velocity": 93}, {"time": 1111, "pitch": 52, "duration": 19, "velocity": 88}, {"time": 1114, "pitch": 55, "duration": 7, "velocity": 91}, {"time": 1117, "pitch": 60, "duration": 4, "velocity": 89}, {"time": 1123, "pitch": 55, "duration": 2, "velocity": 89}, {"time": 1123, "pitch": 60, "duration": 7, "velocity": 90}, {"time": 1123, "pitch": 64, "duration": 7, "velocity": 90}, {"time": 1129, "pitch": 55, "duration": 1, "velocity": 75}, {"time": 1132, "pitch": 47, "duration": 24, "velocity": 88}, {"time": 1132, "pitch": 59, "duration": 3, "velocity": 88}, {"time": 1132, "pitch": 63, "duration": 4, "velocity": 87}, {"time": 1138, "pitch": 59, "duration": 1, "velocity": 84}, {"time": 1138, "pitch": 63, "duration": 1, "velocity": 82}, {"time": 1138, "pitch": 66, "duration": 1, "velocity": 79}, {"time": 1141, "pitch": 59, "duration": 4, "velocity": 89}, {"time": 1141, "pitch": 63, "duration": 4, "velocity": 87}, {"time": 1141, "pitch": 66, "duration": 4, "velocity": 86}, {"time": 1144, "pitch": 51, "duration": 5, "velocity": 67}, {"time": 1144, "pitch": 54, "duration": 6, "velocity": 66}, {"time": 1147, "pitch": 59, "duration": 7, "velocity": 90}, {"time": 1147, "pitch": 63, "duration": 8, "velocity": 91}, {"time": 1147, "pitch": 66, "duration": 9, "velocity": 87}, {"time": 1150, "pitch": 51, "duration": 5, "velocity": 78}, {"time": 1156, "pitch": 40, "duration": 16, "velocity": 88}, {"time": 1156, "pitch": 59, "duration": 3, "velocity": 87}, {"time": 1156, "pitch": 64, "duration": 4, "velocity": 88}, {"time": 1159, "pitch": 47, "duration": 13, "velocity": 80}, {"time": 1162, "pitch": 59, "duration": 2, "velocity": 87}, {"time": 1165, "pitch": 59, "duration": 3, "velocity": 82}, {"time": 1165, "pitch": 64, "duration": 3, "velocity": 91}, {"time": 1171, "pitch": 59, "duration": 3, "velocity": 89}, {"time": 1171, "pitch": 64, "duration": 4, "velocity": 90}, {"time": 1171, "pitch": 67, "duration": 4, "velocity": 84}, {"time": 1180, "pitch": 48, "duration": 21, "velocity": 88}, {"time": 1180, "pitch": 55, "duration": 3, "velocity": 80}, {"time": 1180, "pitch": 60, "duration": 4, "velocity": 86}, {"time": 1183, "pitch": 52, "duration": 17, "velocity": 87}, {"time": 1186, "pitch": 55, "duration": 2, "velocity": 88}, {"time": 1189, "pitch": 55, "duration": 3, "velocity": 86}, {"time": 1189, "pitch": 60, "duration": 3, "velocity": 91}, {"time": 1195, "pitch": 55, "duration": 2, "velocity": 89}, {"time": 1195, "pitch": 60, "duration": 4, "velocity": 93}, {"time": 1195, "pitch": 64, "duration": 3, "velocity": 95}, {"time": 1201, "pitch": 55, "duration": 1, "velocity": 87}, {"time": 1201, "pitch": 60, "duration": 1, "velocity": 87}, {"time": 1204, "pitch": 50, "duration": 22, "velocity": 93}, {"time": 1204, "pitch": 57, "duration": 3, "velocity": 85}, {"time": 1204, "pitch": 62, "duration": 4, "velocity": 80}, {"time": 1210, "pitch": 57, "duration": 2, "velocity": 86}, {"time": 1213, "pitch": 57, "duration": 4, "velocity": 83}, {"time": 1213, "pitch": 62, "duration": 4, "velocity": 87}, {"time": 1213, "pitch": 66, "duration": 4, "velocity": 87}, {"time": 1219, "pitch": 57, "duration": 3, "velocity": 87}, {"time": 1219, "pitch": 62, "duration": 6, "velocity": 89}, {"time": 1219, "pitch": 66, "duration": 7, "velocity": 86}, {"time": 1225, "pitch": 57, "duration": 1, "velocity": 76}, {"time": 1228, "pitch": 52, "duration": 23, "velocity": 93}, {"time": 1228, "pitch": 59, "duration": 2, "velocity": 85}, {"time": 1228, "pitch": 64, "duration": 4, "velocity": 87}, {"time": 1231, "pitch": 59, "duration": 4, "velocity": 81}, {"time": 1234, "pitch": 64, "duration": 2, "velocity": 82}, {"time": 1237, "pitch": 59, "duration": 4, "velocity": 88}, {"time": 1237, "pitch": 64, "duration": 4, "velocity": 92}, {"time": 1237, "pitch": 67, "duration": 4, "velocity": 87}, {"time": 1243, "pitch": 59, "duration": 3, "velocity": 88}, {"time": 1243, "pitch": 64, "duration": 7, "velocity": 93}, {"time": 1243, "pitch": 67, "duration": 7, "velocity": 87}, {"time": 1249, "pitch": 59, "duration": 2, "velocity": 88}, {"time": 1252, "pitch": 40, "duration": 16, "velocity": 88}, {"time": 1252, "pitch": 59, "duration": 3, "velocity": 87}, {"time": 1252, "pitch": 64, "duration": 4, "velocity": 88}, {"time": 1255, "pitch": 47, "duration": 13, "velocity": 80}, {"time": 1258, "pitch": 59, "duration": 2, "velocity": 87}, {"time": 1261, "pitch": 59, "duration": 3, "velocity": 82}, {"time": 1261, "pitch": 64, "duration": 3, "velocity": 91}, {"time": 1267, "pitch": 59, "duration": 3, "velocity": 89}, {"time": 1267, "pitch": 64, "duration": 4, "velocity": 90}, {"time": 1267, "pitch": 67, "duration": 4, "velocity": 84}, {"time": 1276, "pitch": 48, "duration": 21, "velocity": 88}, {"time": 1276, "pitch": 55, "duration": 3, "velocity": 80}, {"time": 1276, "pitch": 60, "duration": 4, "velocity": 86}, {"time": 1279, "pitch": 52, "duration": 17, "velocity": 87}, {"time": 1282, "pitch": 55, "duration": 2, "velocity": 88}, {"time": 1285, "pitch": 55, "duration": 3, "velocity": 86}, {"time": 1285, "pitch": 60, "duration": 3, "velocity": 91}, {"time": 1291, "pitch": 55, "duration": 2, "velocity": 89}, {"time": 1291, "pitch": 60, "duration": 4, "velocity": 93}, {"time": 1291, "pitch": 64, "duration": 3, "velocity": 95}, {"time": 1297, "pitch": 55, "duration": 1, "velocity": 87}, {"time": 1297, "pitch": 60, "duration": 1, "velocity": 87}, {"time": 1300, "pitch": 50, "duration": 22, "velocity": 93}, {"time": 1300, "pitch": 57, "duration": 3, "velocity": 85}, {"time": 1300, "pitch": 62, "duration": 4, "velocity": 80}, {"time": 1306, "pitch": 57, "duration": 2, "velocity": 86}, {"time": 1309, "pitch": 57, "duration": 4, "velocity": 83}, {"time": 1309, "pitch": 62, "duration": 4, "velocity": 87}, {"time": 1309, "pitch": 66, "duration": 4, "velocity": 87}, {"time": 1315, "pitch": 57, "duration": 3, "velocity": 87}, {"time": 1315, "pitch": 62, "duration": 6, "velocity": 89}, {"time": 1315, "pitch": 66, "duration": 7, "velocity": 86}, {"time": 1321, "pitch": 57, "duration": 1, "velocity": 76}, {"time": 1324, "pitch": 52, "duration": 23, "velocity": 93}, {"time": 1324, "pitch": 59, "duration": 2, "velocity": 85}, {"time": 1324, "pitch": 64, "duration": 4, "velocity": 87}, {"time": 1327, "pitch": 59, "duration": 4, "velocity": 81}, {"time": 1330, "pitch": 64, "duration": 2, "velocity": 82}, {"time": 1333, "pitch": 59, "duration": 4, "velocity": 88}, {"time": 1333, "pitch": 64, "duration": 4, "velocity": 92}, {"time": 1333, "pitch": 67, "duration": 4, "velocity": 87}, {"time": 1339, "pitch": 59, "duration": 3, "velocity": 88}, {"time": 1339, "pitch": 64, "duration": 7, "velocity": 93}, {"time": 1339, "pitch": 67, "duration": 7, "velocity": 87}, {"time": 1345, "pitch": 59, "duration": 2, "velocity": 88}, {"time": 1348, "pitch": 52, "duration": 17, "velocity": 90}, {"time": 1354, "pitch": 59, "duration": 11, "velocity": 81}, {"time": 1360, "pitch": 64, "duration": 2, "velocity": 80}, {"time": 1360, "pitch": 67, "duration": 11, "velocity": 75}, {"time": 1360, "pitch": 71, "duration": 19, "velocity": 85}, {"time": 1366, "pitch": 64, "duration": 6, "velocity": 78}, {"time": 1372, "pitch": 48, "duration": 19, "velocity": 87}, {"time": 1378, "pitch": 60, "duration": 7, "velocity": 69}, {"time": 1384, "pitch": 64, "duration": 11, "velocity": 83}, {"time": 1384, "pitch": 67, "duration": 11, "velocity": 75}, {"time": 1384, "pitch": 71, "duration": 16, "velocity": 81}, {"time": 1396, "pitch": 50, "duration": 21, "velocity": 87}, {"time": 1402, "pitch": 57, "duration": 16, "velocity": 83}, {"time": 1408, "pitch": 62, "duration": 2, "velocity": 81}, {"time": 1408, "pitch": 66, "duration": 11, "velocity": 79}, {"time": 1408, "pitch": 69, "duration": 14, "velocity": 82}, {"time": 1414, "pitch": 62, "duration": 7, "velocity": 82}, {"time": 1420, "pitch": 52, "duration": 23, "velocity": 89}, {"time": 1426, "pitch": 59, "duration": 17, "velocity": 82}, {"time": 1432, "pitch": 64, "duration": 3, "velocity": 85}, {"time": 1432, "pitch": 67, "duration": 11, "velocity": 82}, {"time": 1432, "pitch": 71, "duration": 11, "velocity": 86}, {"time": 1438, "pitch": 64, "duration": 5, "velocity": 74}, {"time": 1444, "pitch": 52, "duration": 17, "velocity": 90}, {"time": 1450, "pitch": 59, "duration": 11, "velocity": 81}, {"time": 1456, "pitch": 64, "duration": 2, "velocity": 80}, {"time": 1456, "pitch": 67, "duration": 11, "velocity": 75}, {"time": 1456, "pitch": 71, "duration": 19, "velocity": 85}, {"time": 1462, "pitch": 64, "duration": 6, "velocity": 78}, {"time": 1468, "pitch": 48, "duration": 19, "velocity": 87}, {"time": 1474, "pitch": 60, "duration": 7, "velocity": 69}, {"time": 1480, "pitch": 64, "duration": 11, "velocity": 83}, {"time": 1480, "pitch": 67, "duration": 11, "velocity": 75}, {"time": 1480, "pitch": 71, "duration": 16, "velocity": 81}, {"time": 1492, "pitch": 50, "duration": 21, "velocity": 87}, {"time": 1498, "pitch": 57, "duration": 16, "velocity": 83}, {"time": 1504, "pitch": 62, "duration": 2, "velocity": 81}, {"time": 1504, "pitch": 66, "duration": 11, "velocity": 79}, {"time": 1504, "pitch": 69, "duration": 14, "velocity": 82}, {"time": 1510, "pitch": 62, "duration": 7, "velocity": 82}, {"time": 1516, "pitch": 52, "duration": 23, "velocity": 89}, {"time": 1522, "pitch": 59, "duration": 17, "velocity": 82}, {"time": 1528, "pitch": 64, "duration": 3, "velocity": 85}, {"time": 1528, "pitch": 67, "duration": 11, "velocity": 82}, {"time": 1528, "pitch": 71, "duration": 11, "velocity": 86}, {"time": 1534, "pitch": 64, "duration": 5, "velocity": 74}, {"time": 1540, "pitch": 48, "duration": 21, "velocity": 88}, {"time": 1540, "pitch": 60, "duration": 3, "velocity": 83}, {"time": 1540, "pitch": 67, "duration": 6, "velocity": 79}, {"time": 1543, "pitch": 55, "duration": 12, "velocity": 79}, {"time": 1546, "pitch": 60, "duration": 6, "velocity": 86}, {"time": 1549, "pitch": 64, "duration": 3, "velocity": 93}, {"time": 1555, "pitch": 60, "duration": 3, "velocity": 87}, {"time": 1555, "pitch": 64, "duration": 5, "velocity": 97}, {"time": 1555, "pitch": 67, "duration": 7, "velocity": 86}, {"time": 1558, "pitch": 55, "duration": 4, "velocity": 77}, {"time": 1561, "pitch": 60, "duration": 2, "velocity": 83}, {"time": 1564, "pitch": 50, "duration": 17, "velocity": 88}, {"time": 1564, "pitch": 62, "duration": 3, "velocity": 77}, {"time": 1564, "pitch": 66, "duration": 4, "velocity": 82}, {"time": 1567, "pitch": 57, "duration": 7, "velocity": 79}, {"time": 1570, "pitch": 62, "duration": 2, "velocity": 81}, {"time": 1573, "pitch": 62, "duration": 3, "velocity": 84}, {"time": 1573, "pitch": 66, "duration": 3, "velocity": 93}, {"time": 1573, "pitch": 69, "duration": 4, "velocity": 86}, {"time": 1576, "pitch": 57, "duration": 5, "velocity": 78}, {"time": 1579, "pitch": 62, "duration": 2, "velocity": 79}, {"time": 1579, "pitch": 66, "duration": 3, "velocity": 86}, {"time": 1579, "pitch": 69, "duration": 8, "velocity": 84}, {"time": 1588, "pitch": 47, "duration": 19, "velocity": 87}, {"time": 1588, "pitch": 59, "duration": 4, "velocity": 82}, {"time": 1588, "pitch": 62, "duration": 6, "velocity": 82}, {"time": 1591, "pitch": 54, "duration": 8, "velocity": 79}, {"time": 1594, "pitch": 59, "duration": 2, "velocity": 88}, {"time": 1597, "pitch": 59, "duration": 4, "velocity": 87}, {"time": 1597, "pitch": 62, "duration": 4, "velocity": 84}, {"time": 1597, "pitch": 66, "duration": 4, "velocity": 79}, {"time": 1600, "pitch": 54, "duration": 4, "velocity": 77}, {"time": 1603, "pitch": 59, "duration": 2, "velocity": 88}, {"time": 1603, "pitch": 62, "duration": 4, "velocity": 86}, {"time": 1606, "pitch": 59, "duration": 4, "velocity": 84}, {"time": 1609, "pitch": 62, "duration": 2, "velocity": 85}, {"time": 1612, "pitch": 52, "duration": 21, "velocity": 87}, {"time": 1612, "pitch": 59, "duration": 4, "velocity": 86}, {"time": 1612, "pitch": 64, "duration": 7, "velocity": 87}, {"time": 1618, "pitch": 59, "duration": 2, "velocity": 87}, {"time": 1621, "pitch": 59, "duration": 4, "velocity": 87}, {"time": 1621, "pitch": 64, "duration": 4, "velocity": 88}, {"time": 1621, "pitch": 67, "duration": 3, "velocity": 87}, {"time": 1627, "pitch": 59, "duration": 2, "velocity": 88}, {"time": 1627, "pitch": 64, "duration": 4, "velocity": 88}, {"time": 1630, "pitch": 59, "duration": 2, "velocity": 87}, {"time": 1636, "pitch": 45, "duration": 22, "velocity": 87}, {"time": 1639, "pitch": 52, "duration": 12, "velocity": 87}, {"time": 1642, "pitch": 57, "duration": 2, "velocity": 86}, {"time": 1645, "pitch": 57, "duration": 3, "velocity": 87}, {"time": 1645, "pitch": 60, "duration": 3, "velocity": 90}, {"time": 1651, "pitch": 57, "duration": 2, "velocity": 82}, {"time": 1651, "pitch": 60, "duration": 3, "velocity": 89}, {"time": 1651, "pitch": 64, "duration": 3, "velocity": 90}, {"time": 1654, "pitch": 52, "duration": 3, "velocity": 80}, {"time": 1657, "pitch": 57, "duration": 1, "velocity": 75}, {"time": 1660, "pitch": 48, "duration": 19, "velocity": 88}, {"time": 1660, "pitch": 55, "duration": 2, "velocity": 85}, {"time": 1660, "pitch": 60, "duration": 4, "velocity": 81}, {"time": 1666, "pitch": 55, "duration": 1, "velocity": 88}, {"time": 1669, "pitch": 55, "duration": 4, "velocity": 87}, {"time": 1669, "pitch": 60, "duration": 4, "velocity": 87}, {"time": 1669, "pitch": 64, "duration": 4, "velocity": 88}, {"time": 1675, "pitch": 55, "duration": 2, "velocity": 86}, {"time": 1675, "pitch": 60, "duration": 5, "velocity": 82}, {"time": 1675, "pitch": 64, "duration": 5, "velocity": 88}, {"time": 1678, "pitch": 55, "duration": 2, "velocity": 80}, {"time": 1684, "pitch": 50, "duration": 21, "velocity": 86}, {"time": 1684, "pitch": 57, "duration": 3, "velocity": 81}, {"time": 1684, "pitch": 62, "duration": 7, "velocity": 82}, {"time": 1690, "pitch": 57, "duration": 1, "velocity": 73}, {"time": 1693, "pitch": 57, "duration": 4, "velocity": 83}, {"time": 1693, "pitch": 66, "duration": 5, "velocity": 86}, {"time": 1699, "pitch": 62, "duration": 4, "velocity": 85}, {"time": 1705, "pitch": 57, "duration": 1, "velocity": 76}, {"time": 1708, "pitch": 50, "duration": 18, "velocity": 93}, {"time": 1708, "pitch": 57, "duration": 10, "velocity": 88}, {"time": 1708, "pitch": 62, "duration": 10, "velocity": 91}, {"time": 1732, "pitch": 40, "duration": 17, "velocity": 89}, {"time": 1732, "pitch": 64, "duration": 5, "velocity": 88}, {"time": 1732, "pitch": 67, "duration": 7, "velocity": 84}, {"time": 1735, "pitch": 47, "duration": 13, "velocity": 77}, {"time": 1738, "pitch": 59, "duration": 2, "velocity": 88}, {"time": 1741, "pitch": 59, "duration": 4, "velocity": 85}, {"time": 1741, "pitch": 64, "duration": 4, "velocity": 92}, {"time": 1741, "pitch": 67, "duration": 4, "velocity": 88}, {"time": 1747, "pitch": 59, "duration": 3, "velocity": 86}, {"time": 1747, "pitch": 64, "duration": 3, "velocity": 93}, {"time": 1747, "pitch": 67, "duration": 3, "velocity": 87}, {"time": 1756, "pitch": 36, "duration": 17, "velocity": 86}, {"time": 1756, "pitch": 55, "duration": 4, "velocity": 85}, {"time": 1756, "pitch": 60, "duration": 4, "velocity": 84}, {"time": 1759, "pitch": 43, "duration": 14, "velocity": 72}, {"time": 1762, "pitch": 55, "duration": 2, "velocity": 90}, {"time": 1765, "pitch": 55, "duration": 4, "velocity": 86}, {"time": 1765, "pitch": 60, "duration": 4, "velocity": 90}, {"time": 1765, "pitch": 64, "duration": 4, "velocity": 91}, {"time": 1771, "pitch": 55, "duration": 2, "velocity": 89}, {"time": 1771, "pitch": 60, "duration": 2, "velocity": 93}, {"time": 1771, "pitch": 64, "duration": 2, "velocity": 95}, {"time": 1780, "pitch": 38, "duration": 16, "velocity": 90}, {"time": 1780, "pitch": 62, "duration": 4, "velocity": 86}, {"time": 1780, "pitch": 66, "duration": 7, "velocity": 88}, {"time": 1783, "pitch": 45, "duration": 12, "velocity": 82}, {"time": 1786, "pitch": 57, "duration": 7, "velocity": 90}, {"time": 1789, "pitch": 62, "duration": 4, "velocity": 87}, {"time": 1795, "pitch": 57, "duration": 1, "velocity": 69}, {"time": 1795, "pitch": 62, "duration": 4, "velocity": 87}, {"time": 1795, "pitch": 66, "duration": 4, "velocity": 102}, {"time": 1798, "pitch": 57, "duration": 2, "velocity": 81}, {"time": 1804, "pitch": 43, "duration": 7, "velocity": 87}, {"time": 1804, "pitch": 55, "duration": 3, "velocity": 87}, {"time": 1804, "pitch": 59, "duration": 4, "velocity": 87}, {"time": 1804, "pitch": 62, "duration": 4, "velocity": 87}, {"time": 1807, "pitch": 50, "duration": 7, "velocity": 86}, {"time": 1810, "pitch": 55, "duration": 2, "velocity": 88}, {"time": 1816, "pitch": 42, "duration": 5, "velocity": 88}, {"time": 1816, "pitch": 57, "duration": 3, "velocity": 87}, {"time": 1816, "pitch": 62, "duration": 4, "velocity": 88}, {"time": 1819, "pitch": 50, "duration": 4, "velocity": 86}, {"time": 1822, "pitch": 57, "duration": 4, "velocity": 89}, {"time": 1828, "pitch": 40, "duration": 20, "velocity": 88}, {"time": 1828, "pitch": 59, "duration": 4, "velocity": 76}, {"time": 1828, "pitch": 64, "duration": 5, "velocity": 87}, {"time": 1831, "pitch": 47, "duration": 17, "velocity": 81}, {"time": 1834, "pitch": 59, "duration": 6, "velocity": 93}, {"time": 1837, "pitch": 64, "duration": 4, "velocity": 90}, {"time": 1843, "pitch": 59, "duration": 2, "velocity": 87}, {"time": 1843, "pitch": 64, "duration": 9, "velocity": 90}, {"time": 1843, "pitch": 67, "duration": 9, "velocity": 88}, {"time": 1849, "pitch": 59, "duration": 4, "velocity": 87}, {"time": 1852, "pitch": 47, "duration": 19, "velocity": 93}, {"time": 1855, "pitch": 59, "duration": 4, "velocity": 87}, {"time": 1858, "pitch": 62, "duration": 2, "velocity": 80}, {"time": 1861, "pitch": 59, "duration": 4, "velocity": 87}, {"time": 1861, "pitch": 62, "duration": 4, "velocity": 88}, {"time": 1861, "pitch": 66, "duration": 5, "velocity": 93}, {"time": 1867, "pitch": 59, "duration": 2, "velocity": 89}, {"time": 1867, "pitch": 62, "duration": 4, "velocity": 88}, {"time": 1867, "pitch": 66, "duration": 4, "velocity": 89}, {"time": 1876, "pitch": 48, "duration": 16, "velocity": 92}, {"time": 1876, "pitch": 55, "duration": 3, "velocity": 86}, {"time": 1876, "pitch": 60, "duration": 4, "velocity": 86}, {"time": 1879, "pitch": 52, "duration": 15, "velocity": 84}, {"time": 1882, "pitch": 55, "duration": 2, "velocity": 90}, {"time": 1885, "pitch": 55, "duration": 5, "velocity": 87}, {"time": 1885, "pitch": 60, "duration": 5, "velocity": 90}, {"time": 1885, "pitch": 64, "duration": 4, "velocity": 100}, {"time": 1891, "pitch": 55, "duration": 1, "velocity": 83}, {"time": 1891, "pitch": 60, "duration": 3, "velocity": 86}, {"time": 1894, "pitch": 55, "duration": 3, "velocity": 87}, {"time": 1900, "pitch": 47, "duration": 23, "velocity": 87}, {"time": 1900, "pitch": 59, "duration": 4, "velocity": 84}, {"time": 1900, "pitch": 63, "duration": 6, "velocity": 81}, {"time": 1903, "pitch": 54, "duration": 14, "velocity": 80}, {"time": 1906, "pitch": 59, "duration": 2, "velocity": 86}, {"time": 1909, "pitch": 59, "duration": 3, "velocity": 88}, {"time": 1909, "pitch": 63, "duration": 4, "velocity": 88}, {"time": 1915, "pitch": 59, "duration": 3, "velocity": 87}, {"time": 1915, "pitch": 63, "duration": 5, "velocity": 90}, {"time": 1915, "pitch": 66, "duration": 5, "velocity": 90}, {"time": 1918, "pitch": 51, "duration": 3, "velocity": 75}, {"time": 1918, "pitch": 54, "duration": 3, "velocity": 87}, {"time": 1924, "pitch": 40, "duration": 16, "velocity": 90}, {"time": 1924, "pitch": 59, "duration": 4, "velocity": 84}, {"time": 1924, "pitch": 64, "duration": 5, "velocity": 87}, {"time": 1927, "pitch": 47, "duration": 12, "velocity": 82}, {"time": 1930, "pitch": 59, "duration": 6, "velocity": 89}, {"time": 1933, "pitch": 64, "duration": 4, "velocity": 88}, {"time": 1939, "pitch": 59, "duration": 2, "velocity": 88}, {"time": 1939, "pitch": 64, "duration": 6, "velocity": 90}, {"time": 1939, "pitch": 67, "duration": 6, "velocity": 88}, {"time": 1945, "pitch": 59, "duration": 1, "velocity": 90}, {"time": 1948, "pitch": 45, "duration": 21, "velocity": 87}, {"time": 1948, "pitch": 57, "duration": 3, "velocity": 87}, {"time": 1948, "pitch": 60, "duration": 5, "velocity": 95}, {"time": 1951, "pitch": 52, "duration": 18, "velocity": 82}, {"time": 1954, "pitch": 57, "duration": 1, "velocity": 79}, {"time": 1957, "pitch": 57, "duration": 4, "velocity": 82}, {"time": 1957, "pitch": 60, "duration": 4, "velocity": 84}, {"time": 1963, "pitch": 57, "duration": 3, "velocity": 85}, {"time": 1963, "pitch": 60, "duration": 5, "velocity": 88}, {"time": 1963, "pitch": 64, "duration": 5, "velocity": 87}, {"time": 1972, "pitch": 50, "duration": 21, "velocity": 88}, {"time": 1972, "pitch": 57, "duration": 2, "velocity": 71}, {"time": 1972, "pitch": 62, "duration": 6, "velocity": 80}, {"time": 1978, "pitch": 57, "duration": 2, "velocity": 86}, {"time": 1981, "pitch": 57, "duration": 4, "velocity": 82}, {"time": 1981, "pitch": 62, "duration": 4, "velocity": 86}, {"time": 1987, "pitch": 57, "duration": 2, "velocity": 85}, {"time": 1987, "pitch": 62, "duration": 6, "velocity": 87}, {"time": 1987, "pitch": 66, "duration": 6, "velocity": 86}, {"time": 1993, "pitch": 57, "duration": 1, "velocity": 87}, {"time": 1996, "pitch": 43, "duration": 7, "velocity": 87}, {"time": 1996, "pitch": 55, "duration": 3, "velocity": 87}, {"time": 1996, "pitch": 59, "duration": 6, "velocity": 88}, {"time": 1999, "pitch": 50, "duration": 7, "velocity": 81}, {"time": 2002, "pitch": 55, "duration": 3, "velocity": 89}, {"time": 2008, "pitch": 42, "duration": 6, "velocity": 87}, {"time": 2008, "pitch": 57, "duration": 4, "velocity": 82}, {"time": 2008, "pitch": 62, "duration": 7, "velocity": 84}, {"time": 2011, "pitch": 50, "duration": 5, "velocity": 84}, {"time": 2014, "pitch": 57, "duration": 3, "velocity": 89}, {"time": 2020, "pitch": 52, "duration": 17, "velocity": 83}, {"time": 2020, "pitch": 59, "duration": 2, "velocity": 87}, {"time": 2020, "pitch": 64, "duration": 4, "velocity": 89}, {"time": 2023, "pitch": 59, "duration": 4, "velocity": 86}, {"time": 2026, "pitch": 64, "duration": 1, "velocity": 83}, {"time": 2029, "pitch": 59, "duration": 5, "velocity": 88}, {"time": 2029, "pitch": 64, "duration": 5, "velocity": 93}, {"time": 2029, "pitch": 67, "duration": 4, "velocity": 88}, {"time": 2035, "pitch": 59, "duration": 3, "velocity": 87}, {"time": 2035, "pitch": 64, "duration": 3, "velocity": 93}, {"time": 2044, "pitch": 47, "duration": 17, "velocity": 88}, {"time": 2044, "pitch": 59, "duration": 4, "velocity": 87}, {"time": 2044, "pitch": 66, "duration": 6, "velocity": 79}, {"time": 2047, "pitch": 54, "duration": 7, "velocity": 79}, {"time": 2050, "pitch": 59, "duration": 2, "velocity": 87}, {"time": 2053, "pitch": 59, "duration": 4, "velocity": 87}, {"time": 2053, "pitch": 62, "duration": 4, "velocity": 93}, {"time": 2056, "pitch": 54, "duration": 3, "velocity": 81}, {"time": 2059, "pitch": 59, "duration": 2, "velocity": 88}, {"time": 2059, "pitch": 62, "duration": 4, "velocity": 91}, {"time": 2059, "pitch": 66, "duration": 7, "velocity": 90}, {"time": 2062, "pitch": 59, "duration": 6, "velocity": 89}, {"time": 2065, "pitch": 62, "duration": 3, "velocity": 82}, {"time": 2068, "pitch": 48, "duration": 21, "velocity": 93}, {"time": 2071, "pitch": 52, "duration": 19, "velocity": 88}, {"time": 2074, "pitch": 55, "duration": 7, "velocity": 91}, {"time": 2077, "pitch": 60, "duration": 4, "velocity": 89}, {"time": 2083, "pitch": 55, "duration": 2, "velocity": 89}, {"time": 2083, "pitch": 60, "duration": 7, "velocity": 90}, {"time": 2083, "pitch": 64, "duration": 7, "velocity": 90}, {"time": 2089, "pitch": 55, "duration": 1, "velocity": 75}, {"time": 2092, "pitch": 47, "duration": 24, "velocity": 88}, {"time": 2092, "pitch": 59, "duration": 3, "velocity": 88}, {"time": 2092, "pitch": 63, "duration": 4, "velocity": 87}, {"time": 2098, "pitch": 59, "duration": 1, "velocity": 84}, {"time": 2098, "pitch": 63, "duration": 1, "velocity": 82}, {"time": 2098, "pitch": 66, "duration": 1, "velocity": 79}, {"time": 2101, "pitch": 59, "duration": 4, "velocity": 89}, {"time": 2101, "pitch": 63, "duration": 4, "velocity": 87}, {"time": 2101, "pitch": 66, "duration": 4, "velocity": 86}, {"time": 2104, "pitch": 51, "duration": 5, "velocity": 67}, {"time": 2104, "pitch": 54, "duration": 6, "velocity": 66}, {"time": 2107, "pitch": 59, "duration": 7, "velocity": 90}, {"time": 2107, "pitch": 63, "duration": 8, "velocity": 91}, {"time": 2107, "pitch": 66, "duration": 9, "velocity": 87}, {"time": 2110, "pitch": 51, "duration": 5, "velocity": 78}, {"time": 2116, "pitch": 40, "duration": 15, "velocity": 89}, {"time": 2116, "pitch": 59, "duration": 4, "velocity": 87}, {"time": 2116, "pitch": 67, "duration": 7, "velocity": 85}, {"time": 2119, "pitch": 47, "duration": 12, "velocity": 81}, {"time": 2122, "pitch": 59, "duration": 7, "velocity": 87}, {"time": 2125, "pitch": 64, "duration": 4, "velocity": 87}, {"time": 2131, "pitch": 59, "duration": 3, "velocity": 88}, {"time": 2131, "pitch": 64, "duration": 3, "velocity": 95}, {"time": 2131, "pitch": 67, "duration": 3, "velocity": 88}, {"time": 2140, "pitch": 48, "duration": 16, "velocity": 90}, {"time": 2140, "pitch": 55, "duration": 3, "velocity": 87}, {"time": 2140, "pitch": 64, "duration": 6, "velocity": 88}, {"time": 2143, "pitch": 52, "duration": 13, "velocity": 85}, {"time": 2146, "pitch": 55, "duration": 5, "velocity": 87}, {"time": 2149, "pitch": 60, "duration": 3, "velocity": 86}, {"time": 2155, "pitch": 55, "duration": 2, "velocity": 86}, {"time": 2155, "pitch": 60, "duration": 3, "velocity": 89}, {"time": 2155, "pitch": 64, "duration": 3, "velocity": 88}, {"time": 2164, "pitch": 50, "duration": 15, "velocity": 91}, {"time": 2164, "pitch": 57, "duration": 2, "velocity": 86}, {"time": 2164, "pitch": 62, "duration": 4, "velocity": 86}, {"time": 2167, "pitch": 57, "duration": 4, "velocity": 82}, {"time": 2170, "pitch": 62, "duration": 1, "velocity": 82}, {"time": 2173, "pitch": 57, "duration": 4, "velocity": 85}, {"time": 2173, "pitch": 62, "duration": 4, "velocity": 87}, {"time": 2173, "pitch": 66, "duration": 5, "velocity": 91}, {"time": 2179, "pitch": 57, "duration": 2, "velocity": 88}, {"time": 2179, "pitch": 62, "duration": 2, "velocity": 90}, {"time": 2188, "pitch": 40, "duration": 24, "velocity": 88}, {"time": 2188, "pitch": 59, "duration": 3, "velocity": 85}, {"time": 2188, "pitch": 64, "duration": 4, "velocity": 87}, {"time": 2191, "pitch": 47, "duration": 20, "velocity": 81}, {"time": 2194, "pitch": 59, "duration": 2, "velocity": 86}, {"time": 2197, "pitch": 59, "duration": 3, "velocity": 72}, {"time": 2197, "pitch": 64, "duration": 3, "velocity": 92}, {"time": 2203, "pitch": 59, "duration": 4, "velocity": 88}, {"time": 2203, "pitch": 67, "duration": 6, "velocity": 79}, {"time": 2212, "pitch": 40, "duration": 15, "velocity": 89}, {"time": 2212, "pitch": 59, "duration": 4, "velocity": 87}, {"time": 2212, "pitch": 67, "duration": 7, "velocity": 85}, {"time": 2215, "pitch": 47, "duration": 12, "velocity": 81}, {"time": 2218, "pitch": 59, "duration": 7, "velocity": 87}, {"time": 2221, "pitch": 64, "duration": 4, "velocity": 87}, {"time": 2227, "pitch": 59, "duration": 3, "velocity": 88}, {"time": 2227, "pitch": 64, "duration": 3, "velocity": 95}, {"time": 2227, "pitch": 67, "duration": 3, "velocity": 88}, {"time": 2236, "pitch": 48, "duration": 16, "velocity": 90}, {"time": 2236, "pitch": 55, "duration": 3, "velocity": 87}, {"time": 2236, "pitch": 64, "duration": 6, "velocity": 88}, {"time": 2239, "pitch": 52, "duration": 13, "velocity": 85}, {"time": 2242, "pitch": 55, "duration": 5, "velocity": 87}, {"time": 2245, "pitch": 60, "duration": 3, "velocity": 86}, {"time": 2251, "pitch": 55, "duration": 2, "velocity": 86}, {"time": 2251, "pitch": 60, "duration": 3, "velocity": 89}, {"time": 2251, "pitch": 64, "duration": 3, "velocity": 88}, {"time": 2260, "pitch": 50, "duration": 15, "velocity": 91}, {"time": 2260, "pitch": 57, "duration": 2, "velocity": 86}, {"time": 2260, "pitch": 62, "duration": 4, "velocity": 86}, {"time": 2263, "pitch": 57, "duration": 4, "velocity": 82}, {"time": 2266, "pitch": 62, "duration": 1, "velocity": 82}, {"time": 2269, "pitch": 57, "duration": 4, "velocity": 85}, {"time": 2269, "pitch": 62, "duration": 4, "velocity": 87}, {"time": 2269, "pitch": 66, "duration": 5, "velocity": 91}, {"time": 2275, "pitch": 57, "duration": 2, "velocity": 88}, {"time": 2275, "pitch": 62, "duration": 2, "velocity": 90}, {"time": 2284, "pitch": 40, "duration": 24, "velocity": 88}, {"time": 2284, "pitch": 59, "duration": 3, "velocity": 85}, {"time": 2284, "pitch": 64, "duration": 4, "velocity": 87}, {"time": 2287, "pitch": 47, "duration": 20, "velocity": 81}, {"time": 2290, "pitch": 59, "duration": 2, "velocity": 86}, {"time": 2293, "pitch": 59, "duration": 3, "velocity": 72}, {"time": 2293, "pitch": 64, "duration": 3, "velocity": 92}, {"time": 2299, "pitch": 59, "duration": 4, "velocity": 88}, {"time": 2299, "pitch": 67, "duration": 6, "velocity": 79}, {"time": 2308, "pitch": 48, "duration": 17, "velocity": 87}, {"time": 2308, "pitch": 67, "duration": 8, "velocity": 86}, {"time": 2311, "pitch": 55, "duration": 14, "velocity": 73}, {"time": 2314, "pitch": 60, "duration": 9, "velocity": 80}, {"time": 2317, "pitch": 64, "duration": 7, "velocity": 85}, {"time": 2332, "pitch": 50, "duration": 16, "velocity": 87}, {"time": 2332, "pitch": 66, "duration": 6, "velocity": 78}, {"time": 2335, "pitch": 57, "duration": 13, "velocity": 74}, {"time": 2338, "pitch": 62, "duration": 8, "velocity": 75}, {"time": 2341, "pitch": 66, "duration": 7, "velocity": 86}, {"time": 2356, "pitch": 47, "duration": 19, "velocity": 82}, {"time": 2356, "pitch": 62, "duration": 7, "velocity": 80}, {"time": 2356, "pitch": 66, "duration": 9, "velocity": 78}, {"time": 2362, "pitch": 59, "duration": 5, "velocity": 74}, {"time": 2365, "pitch": 62, "duration": 4, "velocity": 79}, {"time": 2371, "pitch": 62, "duration": 2, "velocity": 79}, {"time": 2371, "pitch": 66, "duration": 3, "velocity": 87}, {"time": 2380, "pitch": 52, "duration": 16, "velocity": 84}, {"time": 2380, "pitch": 67, "duration": 7, "velocity": 84}, {"time": 2386, "pitch": 59, "duration": 4, "velocity": 79}, {"time": 2389, "pitch": 64, "duration": 2, "velocity": 85}, {"time": 2395, "pitch": 59, "duration": 2, "velocity": 82}, {"time": 2395, "pitch": 64, "duration": 2, "velocity": 86}, {"time": 2395, "pitch": 67, "duration": 2, "velocity": 81}, {"time": 2404, "pitch": 45, "duration": 20, "velocity": 84}, {"time": 2404, "pitch": 57, "duration": 3, "velocity": 77}, {"time": 2404, "pitch": 60, "duration": 5, "velocity": 79}, {"time": 2407, "pitch": 52, "duration": 14, "velocity": 77}, {"time": 2410, "pitch": 57, "duration": 2, "velocity": 75}, {"time": 2413, "pitch": 57, "duration": 4, "velocity": 83}, {"time": 2413, "pitch": 60, "duration": 4, "velocity": 86}, {"time": 2419, "pitch": 57, "duration": 3, "velocity": 88}, {"time": 2419, "pitch": 60, "duration": 4, "velocity": 88}, {"time": 2419, "pitch": 64, "duration": 4, "velocity": 91}, {"time": 2428, "pitch": 48, "duration": 17, "velocity": 93}, {"time": 2428, "pitch": 55, "duration": 3, "velocity": 86}, {"time": 2428, "pitch": 60, "duration": 6, "velocity": 86}, {"time": 2434, "pitch": 55, "duration": 2, "velocity": 77}, {"time": 2437, "pitch": 55, "duration": 3, "velocity": 79}, {"time": 2437, "pitch": 60, "duration": 4, "velocity": 88}, {"time": 2443, "pitch": 55, "duration": 2, "velocity": 88}, {"time": 2443, "pitch": 60, "duration": 2, "velocity": 90}, {"time": 2443, "pitch": 64, "duration": 2, "velocity": 93}, {"time": 2452, "pitch": 38, "duration": 21, "velocity": 89}, {"time": 2452, "pitch": 57, "duration": 3, "velocity": 82}, {"time": 2452, "pitch": 62, "duration": 5, "velocity": 86}, {"time": 2458, "pitch": 45, "duration": 15, "velocity": 79}, {"time": 2461, "pitch": 57, "duration": 4, "velocity": 89}, {"time": 2461, "pitch": 62, "duration": 4, "velocity": 87}, {"time": 2467, "pitch": 57, "duration": 3, "velocity": 88}, {"time": 2467, "pitch": 62, "duration": 4, "velocity": 90}, {"time": 2467, "pitch": 66, "duration": 5, "velocity": 93}, {"time": 2473, "pitch": 57, "duration": 1, "velocity": 85}, {"time": 2476, "pitch": 38, "duration": 18, "velocity": 88}, {"time": 2476, "pitch": 57, "duration": 7, "velocity": 87}, {"time": 2476, "pitch": 62, "duration": 7, "velocity": 89}, {"time": 2476, "pitch": 66, "duration": 7, "velocity": 87}, {"time": 2485, "pitch": 57, "duration": 1, "velocity": 69}, {"time": 2485, "pitch": 62, "duration": 1, "velocity": 73}, {"time": 2485, "pitch": 66, "duration": 1, "velocity": 75}, {"time": 2488, "pitch": 57, "duration": 10, "velocity": 88}, {"time": 2488, "pitch": 62, "duration": 10, "velocity": 91}, {"time": 2488, "pitch": 66, "duration": 10, "velocity": 88}, {"time": 2500, "pitch": 40, "duration": 17, "velocity": 89}, {"time": 2500, "pitch": 64, "duration": 5, "velocity": 88}, {"time": 2500, "pitch": 67, "duration": 7, "velocity": 84}, {"time": 2503, "pitch": 47, "duration": 13, "velocity": 77}, {"time": 2506, "pitch": 59, "duration": 2, "velocity": 88}, {"time": 2509, "pitch": 59, "duration": 4, "velocity": 85}, {"time": 2509, "pitch": 64, "duration": 4, "velocity": 92}, {"time": 2509, "pitch": 67, "duration": 4, "velocity": 88}, {"time": 2515, "pitch": 59, "duration": 3, "velocity": 86}, {"time": 2515, "pitch": 64, "duration": 3, "velocity": 93}, {"time": 2515, "pitch": 67, "duration": 3, "velocity": 87}, {"time": 2524, "pitch": 36, "duration": 17, "velocity": 86}, {"time": 2524, "pitch": 55, "duration": 4, "velocity": 85}, {"time": 2524, "pitch": 60, "duration": 4, "velocity": 84}, {"time": 2527, "pitch": 43, "duration": 14, "velocity": 72}, {"time": 2530, "pitch": 55, "duration": 2, "velocity": 90}, {"time": 2533, "pitch": 55, "duration": 4, "velocity": 86}, {"time": 2533, "pitch": 60, "duration": 4, "velocity": 90}, {"time": 2533, "pitch": 64, "duration": 4, "velocity": 91}, {"time": 2539, "pitch": 55, "duration": 2, "velocity": 89}, {"time": 2539, "pitch": 60, "duration": 2, "velocity": 93}, {"time": 2539, "pitch": 64, "duration": 2, "velocity": 95}, {"time": 2548, "pitch": 38, "duration": 16, "velocity": 90}, {"time": 2548, "pitch": 62, "duration": 4, "velocity": 86}, {"time": 2548, "pitch": 66, "duration": 7, "velocity": 88}, {"time": 2551, "pitch": 45, "duration": 12, "velocity": 82}, {"time": 2554, "pitch": 57, "duration": 7, "velocity": 90}, {"time": 2557, "pitch": 62, "duration": 4, "velocity": 87}, {"time": 2563, "pitch": 57, "duration": 1, "velocity": 69}, {"time": 2563, "pitch": 62, "duration": 4, "velocity": 87}, {"time": 2563, "pitch": 66, "duration": 4, "velocity": 102}, {"time": 2566, "pitch": 57, "duration": 2, "velocity": 81}, {"time": 2572, "pitch": 43, "duration": 7, "velocity": 87}, {"time": 2572, "pitch": 55, "duration": 3, "velocity": 87}, {"time": 2572, "pitch": 59, "duration": 4, "velocity": 87}, {"time": 2572, "pitch": 62, "duration": 4, "velocity": 87}, {"time": 2575, "pitch": 50, "duration": 7, "velocity": 86}, {"time": 2578, "pitch": 55, "duration": 2, "velocity": 88}, {"time": 2584, "pitch": 42, "duration": 5, "velocity": 88}, {"time": 2584, "pitch": 57, "duration": 3, "velocity": 87}, {"time": 2584, "pitch": 62, "duration": 4, "velocity": 88}, {"time": 2587, "pitch": 50, "duration": 4, "velocity": 86}, {"time": 2590, "pitch": 57, "duration": 4, "velocity": 89}, {"time": 2596, "pitch": 40, "duration": 20, "velocity": 88}, {"time": 2596, "pitch": 59, "duration": 4, "velocity": 76}, {"time": 2596, "pitch": 64, "duration": 5, "velocity": 87}, {"time": 2599, "pitch": 47, "duration": 17, "velocity": 81}, {"time": 2602, "pitch": 59, "duration": 6, "velocity": 93}, {"time": 2605, "pitch": 64, "duration": 4, "velocity": 90}, {"time": 2611, "pitch": 59, "duration": 2, "velocity": 87}, {"time": 2611, "pitch": 64, "duration": 9, "velocity": 90}, {"time": 2611, "pitch": 67, "duration": 9, "velocity": 88}, {"time": 2617, "pitch": 59, "duration": 4, "velocity": 87}, {"time": 2620, "pitch": 47, "duration": 19, "velocity": 93}, {"time": 2623, "pitch": 59, "duration": 4, "velocity": 87}, {"time": 2626, "pitch": 62, "duration": 2, "velocity": 80}, {"time": 2629, "pitch": 59, "duration": 4, "velocity": 87}, {"time": 2629, "pitch": 62, "duration": 4, "velocity": 88}, {"time": 2629, "pitch": 66, "duration": 5, "velocity": 93}, {"time": 2635, "pitch": 59, "duration": 2, "velocity": 89}, {"time": 2635, "pitch": 62, "duration": 4, "velocity": 88}, {"time": 2635, "pitch": 66, "duration": 4, "velocity": 89}, {"time": 2644, "pitch": 48, "duration": 16, "velocity": 92}, {"time": 2644, "pitch": 55, "duration": 3, "velocity": 86}, {"time": 2644, "pitch": 60, "duration": 4, "velocity": 86}, {"time": 2647, "pitch": 52, "duration": 15, "velocity": 84}, {"time": 2650, "pitch": 55, "duration": 2, "velocity": 90}, {"time": 2653, "pitch": 55, "duration": 5, "velocity": 87}, {"time": 2653, "pitch": 60, "duration": 5, "velocity": 90}, {"time": 2653, "pitch": 64, "duration": 4, "velocity": 100}, {"time": 2659, "pitch": 55, "duration": 1, "velocity": 83}, {"time": 2659, "pitch": 60, "duration": 3, "velocity": 86}, {"time": 2662, "pitch": 55, "duration": 3, "velocity": 87}, {"time": 2668, "pitch": 47, "duration": 23, "velocity": 87}, {"time": 2668, "pitch": 59, "duration": 4, "velocity": 84}, {"time": 2668, "pitch": 63, "duration": 6, "velocity": 81}, {"time": 2671, "pitch": 54, "duration": 14, "velocity": 80}, {"time": 2674, "pitch": 59, "duration": 2, "velocity": 86}, {"time": 2677, "pitch": 59, "duration": 3, "velocity": 88}, {"time": 2677, "pitch": 63, "duration": 4, "velocity": 88}, {"time": 2683, "pitch": 59, "duration": 3, "velocity": 87}, {"time": 2683, "pitch": 63, "duration": 5, "velocity": 90}, {"time": 2683, "pitch": 66, "duration": 5, "velocity": 90}, {"time": 2686, "pitch": 51, "duration": 3, "velocity": 75}, {"time": 2686, "pitch": 54, "duration": 3, "velocity": 87}, {"time": 2692, "pitch": 40, "duration": 16, "velocity": 90}, {"time": 2692, "pitch": 59, "duration": 4, "velocity": 84}, {"time": 2692, "pitch": 64, "duration": 5, "velocity": 87}, {"time": 2695, "pitch": 47, "duration": 12, "velocity": 82}, {"time": 2698, "pitch": 59, "duration": 6, "velocity": 89}, {"time": 2701, "pitch": 64, "duration": 4, "velocity": 88}, {"time": 2707, "pitch": 59, "duration": 2, "velocity": 88}, {"time": 2707, "pitch": 64, "duration": 6, "velocity": 90}, {"time": 2707, "pitch": 67, "duration": 6, "velocity": 88}, {"time": 2713, "pitch": 59, "duration": 1, "velocity": 90}, {"time": 2716, "pitch": 45, "duration": 21, "velocity": 87}, {"time": 2716, "pitch": 57, "duration": 3, "velocity": 87}, {"time": 2716, "pitch": 60, "duration": 5, "velocity": 95}, {"time": 2719, "pitch": 52, "duration": 18, "velocity": 82}, {"time": 2722, "pitch": 57, "duration": 1, "velocity": 79}, {"time": 2725, "pitch": 57, "duration": 4, "velocity": 82}, {"time": 2725, "pitch": 60, "duration": 4, "velocity": 84}, {"time": 2731, "pitch": 57, "duration": 3, "velocity": 85}, {"time": 2731, "pitch": 60, "duration": 5, "velocity": 88}, {"time": 2731, "pitch": 64, "duration": 5, "velocity": 87}, {"time": 2740, "pitch": 50, "duration": 21, "velocity": 88}, {"time": 2740, "pitch": 57, "duration": 2, "velocity": 71}, {"time": 2740, "pitch": 62, "duration": 6, "velocity": 80}, {"time": 2746, "pitch": 57, "duration": 2, "velocity": 86}, {"time": 2749, "pitch": 57, "duration": 4, "velocity": 82}, {"time": 2749, "pitch": 62, "duration": 4, "velocity": 86}, {"time": 2755, "pitch": 57, "duration": 2, "velocity": 85}, {"time": 2755, "pitch": 62, "duration": 6, "velocity": 87}, {"time": 2755, "pitch": 66, "duration": 6, "velocity": 86}, {"time": 2761, "pitch": 57, "duration": 1, "velocity": 87}, {"time": 2764, "pitch": 43, "duration": 7, "velocity": 87}, {"time": 2764, "pitch": 55, "duration": 3, "velocity": 87}, {"time": 2764, "pitch": 59, "duration": 6, "velocity": 88}, {"time": 2767, "pitch": 50, "duration": 7, "velocity": 81}, {"time": 2770, "pitch": 55, "duration": 3, "velocity": 89}, {"time": 2776, "pitch": 42, "duration": 6, "velocity": 87}, {"time": 2776, "pitch": 57, "duration": 4, "velocity": 82}, {"time": 2776, "pitch": 62, "duration": 7, "velocity": 84}, {"time": 2779, "pitch": 50, "duration": 5, "velocity": 84}, {"time": 2782, "pitch": 57, "duration": 3, "velocity": 89}, {"time": 2788, "pitch": 52, "duration": 17, "velocity": 83}, {"time": 2788, "pitch": 59, "duration": 2, "velocity": 87}, {"time": 2788, "pitch": 64, "duration": 4, "velocity": 89}, {"time": 2791, "pitch": 59, "duration": 4, "velocity": 86}, {"time": 2794, "pitch": 64, "duration": 1, "velocity": 83}, {"time": 2797, "pitch": 59, "duration": 5, "velocity": 88}, {"time": 2797, "pitch": 64, "duration": 5, "velocity": 93}, {"time": 2797, "pitch": 67, "duration": 4, "velocity": 88}, {"time": 2803, "pitch": 59, "duration": 3, "velocity": 87}, {"time": 2803, "pitch": 64, "duration": 3, "velocity": 93}, {"time": 2812, "pitch": 47, "duration": 17, "velocity": 88}, {"time": 2812, "pitch": 59, "duration": 4, "velocity": 87}, {"time": 2812, "pitch": 66, "duration": 6, "velocity": 79}, {"time": 2815, "pitch": 54, "duration": 7, "velocity": 79}, {"time": 2818, "pitch": 59, "duration": 2, "velocity": 87}, {"time": 2821, "pitch": 59, "duration": 4, "velocity": 87}, {"time": 2821, "pitch": 62, "duration": 4, "velocity": 93}, {"time": 2824, "pitch": 54, "duration": 3, "velocity": 81}, {"time": 2827, "pitch": 59, "duration": 2, "velocity": 88}, {"time": 2827, "pitch": 62, "duration": 4, "velocity": 91}, {"time": 2827, "pitch": 66, "duration": 7, "velocity": 90}, {"time": 2830, "pitch": 59, "duration": 6, "velocity": 89}, {"time": 2833, "pitch": 62, "duration": 3, "velocity": 82}, {"time": 2836, "pitch": 48, "duration": 21, "velocity": 93}, {"time": 2839, "pitch": 52, "duration": 19, "velocity": 88}, {"time": 2842, "pitch": 55, "duration": 7, "velocity": 91}, {"time": 2845, "pitch": 60, "duration": 4, "velocity": 89}, {"time": 2851, "pitch": 55, "duration": 2, "velocity": 89}, {"time": 2851, "pitch": 60, "duration": 7, "velocity": 90}, {"time": 2851, "pitch": 64, "duration": 7, "velocity": 90}, {"time": 2857, "pitch": 55, "duration": 1, "velocity": 75}, {"time": 2860, "pitch": 47, "duration": 24, "velocity": 88}, {"time": 2860, "pitch": 59, "duration": 3, "velocity": 88}, {"time": 2860, "pitch": 63, "duration": 4, "velocity": 87}, {"time": 2866, "pitch": 59, "duration": 1, "velocity": 84}, {"time": 2866, "pitch": 63, "duration": 1, "velocity": 82}, {"time": 2866, "pitch": 66, "duration": 1, "velocity": 79}, {"time": 2869, "pitch": 59, "duration": 4, "velocity": 89}, {"time": 2869, "pitch": 63, "duration": 4, "velocity": 87}, {"time": 2869, "pitch": 66, "duration": 4, "velocity": 86}, {"time": 2872, "pitch": 51, "duration": 5, "velocity": 67}, {"time": 2872, "pitch": 54, "duration": 6, "velocity": 66}, {"time": 2875, "pitch": 59, "duration": 7, "velocity": 90}, {"time": 2875, "pitch": 63, "duration": 8, "velocity": 91}, {"time": 2875, "pitch": 66, "duration": 9, "velocity": 87}, {"time": 2878, "pitch": 51, "duration": 5, "velocity": 78}, {"time": 2884, "pitch": 40, "duration": 15, "velocity": 89}, {"time": 2884, "pitch": 59, "duration": 4, "velocity": 87}, {"time": 2884, "pitch": 67, "duration": 7, "velocity": 85}, {"time": 2887, "pitch": 47, "duration": 12, "velocity": 81}, {"time": 2890, "pitch": 59, "duration": 7, "velocity": 87}, {"time": 2893, "pitch": 64, "duration": 4, "velocity": 87}, {"time": 2899, "pitch": 59, "duration": 3, "velocity": 88}, {"time": 2899, "pitch": 64, "duration": 3, "velocity": 95}, {"time": 2899, "pitch": 67, "duration": 3, "velocity": 88}, {"time": 2908, "pitch": 48, "duration": 16, "velocity": 90}, {"time": 2908, "pitch": 55, "duration": 3, "velocity": 87}, {"time": 2908, "pitch": 64, "duration": 6, "velocity": 88}, {"time": 2911, "pitch": 52, "duration": 13, "velocity": 85}, {"time": 2914, "pitch": 55, "duration": 5, "velocity": 87}, {"time": 2917, "pitch": 60, "duration": 3, "velocity": 86}, {"time": 2923, "pitch": 55, "duration": 2, "velocity": 86}, {"time": 2923, "pitch": 60, "duration": 3, "velocity": 89}, {"time": 2923, "pitch": 64, "duration": 3, "velocity": 88}, {"time": 2932, "pitch": 50, "duration": 15, "velocity": 91}, {"time": 2932, "pitch": 57, "duration": 2, "velocity": 86}, {"time": 2932, "pitch": 62, "duration": 4, "velocity": 86}, {"time": 2935, "pitch": 57, "duration": 4, "velocity": 82}, {"time": 2938, "pitch": 62, "duration": 1, "velocity": 82}, {"time": 2941, "pitch": 57, "duration": 4, "velocity": 85}, {"time": 2941, "pitch": 62, "duration": 4, "velocity": 87}, {"time": 2941, "pitch": 66, "duration": 5, "velocity": 91}, {"time": 2947, "pitch": 57, "duration": 2, "velocity": 88}, {"time": 2947, "pitch": 62, "duration": 2, "velocity": 90}, {"time": 2956, "pitch": 40, "duration": 24, "velocity": 88}, {"time": 2956, "pitch": 59, "duration": 3, "velocity": 85}, {"time": 2956, "pitch": 64, "duration": 4, "velocity": 87}, {"time": 2959, "pitch": 47, "duration": 20, "velocity": 81}, {"time": 2962, "pitch": 59, "duration": 2, "velocity": 86}, {"time": 2965, "pitch": 59, "duration": 3, "velocity": 72}, {"time": 2965, "pitch": 64, "duration": 3, "velocity": 92}, {"time": 2971, "pitch": 59, "duration": 4, "velocity": 88}, {"time": 2971, "pitch": 67, "duration": 6, "velocity": 79}, {"time": 2980, "pitch": 40, "duration": 15, "velocity": 89}, {"time": 2980, "pitch": 59, "duration": 4, "velocity": 87}, {"time": 2980, "pitch": 67, "duration": 7, "velocity": 85}, {"time": 2983, "pitch": 47, "duration": 12, "velocity": 81}, {"time": 2986, "pitch": 59, "duration": 7, "velocity": 87}, {"time": 2989, "pitch": 64, "duration": 4, "velocity": 87}, {"time": 2995, "pitch": 59, "duration": 3, "velocity": 88}, {"time": 2995, "pitch": 64, "duration": 3, "velocity": 95}, {"time": 2995, "pitch": 67, "duration": 3, "velocity": 88}, {"time": 3004, "pitch": 48, "duration": 16, "velocity": 90}, {"time": 3004, "pitch": 55, "duration": 3, "velocity": 87}, {"time": 3004, "pitch": 64, "duration": 6, "velocity": 88}, {"time": 3007, "pitch": 52, "duration": 13, "velocity": 85}, {"time": 3010, "pitch": 55, "duration": 5, "velocity": 87}, {"time": 3013, "pitch": 60, "duration": 3, "velocity": 86}, {"time": 3019, "pitch": 55, "duration": 2, "velocity": 86}, {"time": 3019, "pitch": 60, "duration": 3, "velocity": 89}, {"time": 3019, "pitch": 64, "duration": 3, "velocity": 88}, {"time": 3028, "pitch": 50, "duration": 15, "velocity": 91}, {"time": 3028, "pitch": 57, "duration": 2, "velocity": 86}, {"time": 3028, "pitch": 62, "duration": 4, "velocity": 86}, {"time": 3031, "pitch": 57, "duration": 4, "velocity": 82}, {"time": 3034, "pitch": 62, "duration": 1, "velocity": 82}, {"time": 3037, "pitch": 57, "duration": 4, "velocity": 85}, {"time": 3037, "pitch": 62, "duration": 4, "velocity": 87}, {"time": 3037, "pitch": 66, "duration": 5, "velocity": 91}, {"time": 3043, "pitch": 57, "duration": 2, "velocity": 88}, {"time": 3043, "pitch": 62, "duration": 2, "velocity": 90}, {"time": 3052, "pitch": 40, "duration": 24, "velocity": 88}, {"time": 3052, "pitch": 59, "duration": 3, "velocity": 85}, {"time": 3052, "pitch": 64, "duration": 4, "velocity": 87}, {"time": 3055, "pitch": 47, "duration": 20, "velocity": 81}, {"time": 3058, "pitch": 59, "duration": 2, "velocity": 86}, {"time": 3061, "pitch": 59, "duration": 3, "velocity": 72}, {"time": 3061, "pitch": 64, "duration": 3, "velocity": 92}, {"time": 3067, "pitch": 59, "duration": 4, "velocity": 88}, {"time": 3067, "pitch": 67, "duration": 6, "velocity": 79}, {"time": 3076, "pitch": 40, "duration": 15, "velocity": 89}, {"time": 3076, "pitch": 59, "duration": 4, "velocity": 87}, {"time": 3076, "pitch": 67, "duration": 7, "velocity": 85}, {"time": 3079, "pitch": 47, "duration": 12, "velocity": 81}, {"time": 3082, "pitch": 59, "duration": 7, "velocity": 87}, {"time": 3085, "pitch": 64, "duration": 4, "velocity": 87}, {"time": 3091, "pitch": 59, "duration": 3, "velocity": 88}, {"time": 3091, "pitch": 64, "duration": 3, "velocity": 95}, {"time": 3091, "pitch": 67, "duration": 3, "velocity": 88}, {"time": 3100, "pitch": 48, "duration": 16, "velocity": 90}, {"time": 3100, "pitch": 55, "duration": 3, "velocity": 87}, {"time": 3100, "pitch": 64, "duration": 6, "velocity": 88}, {"time": 3103, "pitch": 52, "duration": 13, "velocity": 85}, {"time": 3106, "pitch": 55, "duration": 5, "velocity": 87}, {"time": 3109, "pitch": 60, "duration": 3, "velocity": 86}, {"time": 3115, "pitch": 55, "duration": 2, "velocity": 86}, {"time": 3115, "pitch": 60, "duration": 3, "velocity": 89}, {"time": 3115, "pitch": 64, "duration": 3, "velocity": 88}, {"time": 3124, "pitch": 50, "duration": 15, "velocity": 91}, {"time": 3124, "pitch": 57, "duration": 2, "velocity": 86}, {"time": 3124, "pitch": 62, "duration": 4, "velocity": 86}, {"time": 3127, "pitch": 57, "duration": 4, "velocity": 82}, {"time": 3130, "pitch": 62, "duration": 1, "velocity": 82}, {"time": 3133, "pitch": 57, "duration": 4, "velocity": 85}, {"time": 3133, "pitch": 62, "duration": 4, "velocity": 87}, {"time": 3133, "pitch": 66, "duration": 5, "velocity": 91}, {"time": 3139, "pitch": 57, "duration": 2, "velocity": 88}, {"time": 3139, "pitch": 62, "duration": 2, "velocity": 90}, {"time": 3148, "pitch": 40, "duration": 24, "velocity": 88}, {"time": 3148, "pitch": 59, "duration": 3, "velocity": 85}, {"time": 3148, "pitch": 64, "duration": 4, "velocity": 87}, {"time": 3151, "pitch": 47, "duration": 20, "velocity": 81}, {"time": 3154, "pitch": 59, "duration": 2, "velocity": 86}, {"time": 3157, "pitch": 59, "duration": 3, "velocity": 72}, {"time": 3157, "pitch": 64, "duration": 3, "velocity": 92}, {"time": 3163, "pitch": 59, "duration": 4, "velocity": 88}, {"time": 3163, "pitch": 67, "duration": 6, "velocity": 79}, {"time": 3172, "pitch": 40, "duration": 15, "velocity": 89}, {"time": 3172, "pitch": 59, "duration": 4, "velocity": 87}, {"time": 3172, "pitch": 67, "duration": 7, "velocity": 85}, {"time": 3175, "pitch": 47, "duration": 12, "velocity": 81}, {"time": 3178, "pitch": 59, "duration": 7, "velocity": 87}, {"time": 3181, "pitch": 64, "duration": 4, "velocity": 87}, {"time": 3187, "pitch": 59, "duration": 3, "velocity": 88}, {"time": 3187, "pitch": 64, "duration": 3, "velocity": 95}, {"time": 3187, "pitch": 67, "duration": 3, "velocity": 88}, {"time": 3196, "pitch": 48, "duration": 16, "velocity": 90}, {"time": 3196, "pitch": 55, "duration": 3, "velocity": 87}, {"time": 3196, "pitch": 64, "duration": 6, "velocity": 88}, {"time": 3199, "pitch": 52, "duration": 13, "velocity": 85}, {"time": 3202, "pitch": 55, "duration": 5, "velocity": 87}, {"time": 3205, "pitch": 60, "duration": 3, "velocity": 86}, {"time": 3211, "pitch": 55, "duration": 2, "velocity": 86}, {"time": 3211, "pitch": 60, "duration": 3, "velocity": 89}, {"time": 3211, "pitch": 64, "duration": 3, "velocity": 88}, {"time": 3220, "pitch": 50, "duration": 15, "velocity": 91}, {"time": 3220, "pitch": 57, "duration": 2, "velocity": 86}, {"time": 3220, "pitch": 62, "duration": 4, "velocity": 86}, {"time": 3223, "pitch": 57, "duration": 4, "velocity": 82}, {"time": 3226, "pitch": 62, "duration": 1, "velocity": 82}, {"time": 3229, "pitch": 57, "duration": 4, "velocity": 85}, {"time": 3229, "pitch": 62, "duration": 4, "velocity": 87}, {"time": 3229, "pitch": 66, "duration": 5, "velocity": 91}, {"time": 3235, "pitch": 57, "duration": 2, "velocity": 88}, {"time": 3235, "pitch": 62, "duration": 2, "velocity": 90}, {"time": 3244, "pitch": 40, "duration": 24, "velocity": 88}, {"time": 3244, "pitch": 59, "duration": 3, "velocity": 85}, {"time": 3244, "pitch": 64, "duration": 4, "velocity": 87}, {"time": 3247, "pitch": 47, "duration": 20, "velocity": 81}, {"time": 3250, "pitch": 59, "duration": 2, "velocity": 86}, {"time": 3253, "pitch": 59, "duration": 3, "velocity": 72}, {"time": 3253, "pitch": 64, "duration": 3, "velocity": 92}, {"time": 3259, "pitch": 59, "duration": 4, "velocity": 88}, {"time": 3259, "pitch": 67, "duration": 6, "velocity": 79}, {"time": 3268, "pitch": 52, "duration": 19, "velocity": 88}, {"time": 3268, "pitch": 67, "duration": 5, "velocity": 78}, {"time": 3271, "pitch": 59, "duration": 7, "velocity": 85}, {"time": 3274, "pitch": 64, "duration": 3, "velocity": 82}, {"time": 3277, "pitch": 67, "duration": 4, "velocity": 86}, {"time": 3283, "pitch": 59, "duration": 3, "velocity": 86}, {"time": 3283, "pitch": 64, "duration": 4, "velocity": 88}, {"time": 3292, "pitch": 48, "duration": 15, "velocity": 85}, {"time": 3292, "pitch": 60, "duration": 3, "velocity": 80}, {"time": 3292, "pitch": 67, "duration": 7, "velocity": 82}, {"time": 3295, "pitch": 55, "duration": 13, "velocity": 72}, {"time": 3298, "pitch": 60, "duration": 4, "velocity": 79}, {"time": 3301, "pitch": 64, "duration": 5, "velocity": 82}, {"time": 3307, "pitch": 67, "duration": 2, "velocity": 82}, {"time": 3316, "pitch": 50, "duration": 15, "velocity": 82}, {"time": 3316, "pitch": 62, "duration": 3, "velocity": 70}, {"time": 3316, "pitch": 66, "duration": 6, "velocity": 75}, {"time": 3319, "pitch": 57, "duration": 12, "velocity": 74}, {"time": 3322, "pitch": 62, "duration": 4, "velocity": 75}, {"time": 3325, "pitch": 66, "duration": 5, "velocity": 87}, {"time": 3331, "pitch": 62, "duration": 4, "velocity": 72}, {"time": 3334, "pitch": 66, "duration": 2, "velocity": 78}, {"time": 3340, "pitch": 52, "duration": 13, "velocity": 86}, {"time": 3340, "pitch": 64, "duration": 3, "velocity": 77}, {"time": 3340, "pitch": 67, "duration": 4, "velocity": 79}, {"time": 3343, "pitch": 59, "duration": 9, "velocity": 75}, {"time": 3346, "pitch": 64, "duration": 3, "velocity": 85}, {"time": 3349, "pitch": 67, "duration": 3, "velocity": 81}, {"time": 3355, "pitch": 64, "duration": 2, "velocity": 78}, {"time": 3355, "pitch": 67, "duration": 2, "velocity": 72}, {"time": 3355, "pitch": 71, "duration": 2, "velocity": 82}, {"time": 3364, "pitch": 52, "duration": 15, "velocity": 87}, {"time": 3364, "pitch": 64, "duration": 3, "velocity": 79}, {"time": 3364, "pitch": 67, "duration": 3, "velocity": 79}, {"time": 3367, "pitch": 59, "duration": 11, "velocity": 75}, {"time": 3370, "pitch": 64, "duration": 3, "velocity": 75}, {"time": 3373, "pitch": 67, "duration": 6, "velocity": 74}, {"time": 3388, "pitch": 48, "duration": 14, "velocity": 81}, {"time": 3388, "pitch": 60, "duration": 3, "velocity": 73}, {"time": 3388, "pitch": 64, "duration": 5, "velocity": 82}, {"time": 3391, "pitch": 55, "duration": 10, "velocity": 75}, {"time": 3394, "pitch": 60, "duration": 4, "velocity": 75}, {"time": 3397, "pitch": 64, "duration": 4, "velocity": 79}, {"time": 3412, "pitch": 50, "duration": 15, "velocity": 75}, {"time": 3412, "pitch": 62, "duration": 3, "velocity": 73}, {"time": 3412, "pitch": 66, "duration": 5, "velocity": 76}, {"time": 3415, "pitch": 57, "duration": 13, "velocity": 73}, {"time": 3418, "pitch": 62, "duration": 7, "velocity": 74}, {"time": 3421, "pitch": 66, "duration": 5, "velocity": 79}, {"time": 3436, "pitch": 52, "duration": 16, "velocity": 82}, {"time": 3436, "pitch": 64, "duration": 3, "velocity": 74}, {"time": 3436, "pitch": 67, "duration": 6, "velocity": 74}, {"time": 3439, "pitch": 59, "duration": 13, "velocity": 74}, {"time": 3442, "pitch": 64, "duration": 9, "velocity": 78}, {"time": 3445, "pitch": 67, "duration": 6, "velocity": 74}], "annotations": [{"time": 30, "annotation": {"number": 64, "value": 127}, "group": "control_change"}, {"time": 30, "annotation": {"number": 64, "value": 0}, "group": "control_change"}, {"time": 51, "annotation": {"number": 64, "value": 0}, "group": "control_change"}, {"time": 57, "annotation": {"number": 64, "value": 127}, "group": "control_change"}, {"time": 75, "annotation": {"number": 64, "value": 0}, "group": "control_change"}, {"time": 78, "annotation": {"number": 64, "value": 127}, "group": "control_change"}, {"time": 98, "annotation": {"number": 64, "value": 0}, "group": "control_change"}, {"time": 100, "annotation": {"number": 64, "value": 127}, "group": "control_change"}, {"time": 124, "annotation": {"number": 64, "value": 0}, "group": "control_change"}, {"time": 129, "annotation": {"number": 64, "value": 127}, "group": "control_change"}, {"time": 146, "annotation": {"number": 64, "value": 0}, "group": "control_change"}, {"time": 148, "annotation": {"number": 64, "value": 127}, "group": "control_change"}, {"time": 196, "annotation": {"number": 64, "value": 127}, "group": "control_change"}, {"time": 206, "annotation": {"number": 64, "value": 0}, "group": "control_change"}, {"time": 213, "annotation": {"number": 64, "value": 127}, "group": "control_change"}, {"time": 219, "annotation": {"number": 64, "value": 0}, "group": "control_change"}, {"time": 309, "annotation": {"number": 64, "value": 127}, "group": "control_change"}, {"time": 315, "annotation": {"number": 64, "value": 0}, "group": "control_change"}, {"time": 388, "annotation": {"number": 64, "value": 127}, "group": "control_change"}, {"time": 410, "annotation": {"number": 64, "value": 0}, "group": "control_change"}, {"time": 413, "annotation": {"number": 64, "value": 127}, "group": "control_change"}, {"time": 433, "annotation": {"number": 64, "value": 0}, "group": "control_change"}, {"time": 438, "annotation": {"number": 64, "value": 127}, "group": "control_change"}, {"time": 458, "annotation": {"number": 64, "value": 0}, "group": "control_change"}, {"time": 462, "annotation": {"number": 64, "value": 127}, "group": "control_change"}, {"time": 481, "annotation": {"number": 64, "value": 0}, "group": "control_change"}, {"time": 484, "annotation": {"number": 64, "value": 127}, "group": "control_change"}, {"time": 506, "annotation": {"number": 64, "value": 0}, "group": "control_change"}, {"time": 509, "annotation": {"number": 64, "value": 127}, "group": "control_change"}, {"time": 529, "annotation": {"number": 64, "value": 0}, "group": "control_change"}, {"time": 534, "annotation": {"number": 64, "value": 127}, "group": "control_change"}, {"time": 554, "annotation": {"number": 64, "value": 0}, "group": "control_change"}, {"time": 558, "annotation": {"number": 64, "value": 127}, "group": "control_change"}, {"time": 577, "annotation": {"number": 64, "value": 0}, "group": "control_change"}, {"time": 580, "annotation": {"number": 64, "value": 127}, "group": "control_change"}, {"time": 580, "annotation": {"number": 64, "value": 0}, "group": "control_change"}, {"time": 601, "annotation": {"number": 64, "value": 0}, "group": "control_change"}, {"time": 604, "annotation": {"number": 64, "value": 127}, "group": "control_change"}, {"time": 627, "annotation": {"number": 64, "value": 0}, "group": "control_change"}, {"time": 628, "annotation": {"number": 64, "value": 127}, "group": "control_change"}, {"time": 651, "annotation": {"number": 64, "value": 0}, "group": "control_change"}, {"time": 654, "annotation": {"number": 64, "value": 127}, "group": "control_change"}, {"time": 675, "annotation": {"number": 64, "value": 0}, "group": "control_change"}, {"time": 677, "annotation": {"number": 64, "value": 127}, "group": "control_change"}, {"time": 698, "annotation": {"number": 64, "value": 0}, "group": "control_change"}, {"time": 700, "annotation": {"number": 64, "value": 127}, "group": "control_change"}, {"time": 722, "annotation": {"number": 64, "value": 0}, "group": "control_change"}, {"time": 724, "annotation": {"number": 64, "value": 127}, "group": "control_change"}, {"time": 767, "annotation": {"number": 64, "value": 0}, "group": "control_change"}, {"time": 795, "annotation": {"number": 64, "value": 0}, "group": "control_change"}, {"time": 797, "annotation": {"number": 64, "value": 127}, "group": "control_change"}, {"time": 818, "annotation": {"number": 64, "value": 0}, "group": "control_change"}, {"time": 820, "annotation": {"number": 64, "value": 127}, "group": "control_change"}, {"time": 842, "annotation": {"number": 64, "value": 0}, "group": "control_change"}, {"time": 845, "annotation": {"number": 64, "value": 127}, "group": "control_change"}, {"time": 854, "annotation": {"number": 64, "value": 0}, "group": "control_change"}, {"time": 856, "annotation": {"number": 64, "value": 127}, "group": "control_change"}, {"time": 866, "annotation": {"number": 64, "value": 0}, "group": "control_change"}, {"time": 870, "annotation": {"number": 64, "value": 127}, "group": "control_change"}, {"time": 890, "annotation": {"number": 64, "value": 0}, "group": "control_change"}, {"time": 892, "annotation": {"number": 64, "value": 127}, "group": "control_change"}, {"time": 914, "annotation": {"number": 64, "value": 0}, "group": "control_change"}, {"time": 916, "annotation": {"number": 64, "value": 127}, "group": "control_change"}, {"time": 940, "annotation": {"number": 64, "value": 0}, "group": "control_change"}, {"time": 941, "annotation": {"number": 64, "value": 127}, "group": "control_change"}, {"time": 960, "annotation": {"number": 64, "value": 0}, "group": "control_change"}, {"time": 965, "annotation": {"number": 64, "value": 127}, "group": "control_change"}, {"time": 987, "annotation": {"number": 64, "value": 0}, "group": "control_change"}, {"time": 990, "annotation": {"number": 64, "value": 127}, "group": "control_change"}, {"time": 1011, "annotation": {"number": 64, "value": 0}, "group": "control_change"}, {"time": 1013, "annotation": {"number": 64, "value": 127}, "group": "control_change"}, {"time": 1034, "annotation": {"number": 64, "value": 0}, "group": "control_change"}, {"time": 1036, "annotation": {"number": 64, "value": 127}, "group": "control_change"}, {"time": 1046, "annotation": {"number": 64, "value": 0}, "group": "control_change"}, {"time": 1048, "annotation": {"number": 64, "value": 127}, "group": "control_change"}, {"time": 1059, "annotation": {"number": 64, "value": 0}, "group": "control_change"}, {"time": 1061, "annotation": {"number": 64, "value": 127}, "group": "control_change"}, {"time": 1083, "annotation": {"number": 64, "value": 0}, "group": "control_change"}, {"time": 1084, "annotation": {"number": 64, "value": 127}, "group": "control_change"}, {"time": 1104, "annotation": {"number": 64, "value": 0}, "group": "control_change"}, {"time": 1107, "annotation": {"number": 64, "value": 127}, "group": "control_change"}, {"time": 1131, "annotation": {"number": 64, "value": 0}, "group": "control_change"}, {"time": 1132, "annotation": {"number": 64, "value": 127}, "group": "control_change"}, {"time": 1152, "annotation": {"number": 64, "value": 0}, "group": "control_change"}, {"time": 1156, "annotation": {"number": 64, "value": 127}, "group": "control_change"}, {"time": 1180, "annotation": {"number": 64, "value": 0}, "group": "control_change"}, {"time": 1182, "annotation": {"number": 64, "value": 127}, "group": "control_change"}, {"time": 1202, "annotation": {"number": 64, "value": 0}, "group": "control_change"}, {"time": 1204, "annotation": {"number": 64, "value": 127}, "group": "control_change"}, {"time": 1226, "annotation": {"number": 64, "value": 0}, "group": "control_change"}, {"time": 1228, "annotation": {"number": 64, "value": 127}, "group": "control_change"}, {"time": 1249, "annotation": {"number": 64, "value": 0}, "group": "control_change"}, {"time": 1252, "annotation": {"number": 64, "value": 127}, "group": "control_change"}, {"time": 1276, "annotation": {"number": 64, "value": 0}, "group": "control_change"}, {"time": 1278, "annotation": {"number": 64, "value": 127}, "group": "control_change"}, {"time": 1298, "annotation": {"number": 64, "value": 0}, "group": "control_change"}, {"time": 1300, "annotation": {"number": 64, "value": 127}, "group": "control_change"}, {"time": 1322, "annotation": {"number": 64, "value": 0}, "group": "control_change"}, {"time": 1324, "annotation": {"number": 64, "value": 127}, "group": "control_change"}, {"time": 1345, "annotation": {"number": 64, "value": 0}, "group": "control_change"}, {"time": 1348, "annotation": {"number": 64, "value": 127}, "group": "control_change"}, {"time": 1370, "annotation": {"number": 64, "value": 0}, "group": "control_change"}, {"time": 1373, "annotation": {"number": 64, "value": 127}, "group": "control_change"}, {"time": 1393, "annotation": {"number": 64, "value": 0}, "group": "control_change"}, {"time": 1398, "annotation": {"number": 64, "value": 127}, "group": "control_change"}, {"time": 1418, "annotation": {"number": 64, "value": 0}, "group": "control_change"}, {"time": 1422, "annotation": {"number": 64, "value": 127}, "group": "control_change"}, {"time": 1441, "annotation": {"number": 64, "value": 0}, "group": "control_change"}, {"time": 1444, "annotation": {"number": 64, "value": 127}, "group": "control_change"}, {"time": 1466, "annotation": {"number": 64, "value": 0}, "group": "control_change"}, {"time": 1469, "annotation": {"number": 64, "value": 127}, "group": "control_change"}, {"time": 1489, "annotation": {"number": 64, "value": 0}, "group": "control_change"}, {"time": 1494, "annotation": {"number": 64, "value": 127}, "group": "control_change"}, {"time": 1514, "annotation": {"number": 64, "value": 0}, "group": "control_change"}, {"time": 1518, "annotation": {"number": 64, "value": 127}, "group": "control_change"}, {"time": 1537, "annotation": {"number": 64, "value": 0}, "group": "control_change"}, {"time": 1540, "annotation": {"number": 64, "value": 127}, "group": "control_change"}, {"time": 1540, "annotation": {"number": 64, "value": 0}, "group": "control_change"}, {"time": 1561, "annotation": {"number": 64, "value": 0}, "group": "control_change"}, {"time": 1564, "annotation": {"number": 64, "value": 127}, "group": "control_change"}, {"time": 1587, "annotation": {"number": 64, "value": 0}, "group": "control_change"}, {"time": 1588, "annotation": {"number": 64, "value": 127}, "group": "control_change"}, {"time": 1611, "annotation": {"number": 64, "value": 0}, "group": "control_change"}, {"time": 1614, "annotation": {"number": 64, "value": 127}, "group": "control_change"}, {"time": 1635, "annotation": {"number": 64, "value": 0}, "group": "control_change"}, {"time": 1637, "annotation": {"number": 64, "value": 127}, "group": "control_change"}, {"time": 1658, "annotation": {"number": 64, "value": 0}, "group": "control_change"}, {"time": 1660, "annotation": {"number": 64, "value": 127}, "group": "control_change"}, {"time": 1682, "annotation": {"number": 64, "value": 0}, "group": "control_change"}, {"time": 1684, "annotation": {"number": 64, "value": 127}, "group": "control_change"}, {"time": 1727, "annotation": {"number": 64, "value": 0}, "group": "control_change"}, {"time": 1755, "annotation": {"number": 64, "value": 0}, "group": "control_change"}, {"time": 1757, "annotation": {"number": 64, "value": 127}, "group": "control_change"}, {"time": 1778, "annotation": {"number": 64, "value": 0}, "group": "control_change"}, {"time": 1780, "annotation": {"number": 64, "value": 127}, "group": "control_change"}, {"time": 1802, "annotation": {"number": 64, "value": 0}, "group": "control_change"}, {"time": 1805, "annotation": {"number": 64, "value": 127}, "group": "control_change"}, {"time": 1814, "annotation": {"number": 64, "value": 0}, "group": "control_change"}, {"time": 1816, "annotation": {"number": 64, "value": 127}, "group": "control_change"}, {"time": 1826, "annotation": {"number": 64, "value": 0}, "group": "control_change"}, {"time": 1830, "annotation": {"number": 64, "value": 127}, "group": "control_change"}, {"time": 1850, "annotation": {"number": 64, "value": 0}, "group": "control_change"}, {"time": 1852, "annotation": {"number": 64, "value": 127}, "group": "control_change"}, {"time": 1874, "annotation": {"number": 64, "value": 0}, "group": "control_change"}, {"time": 1876, "annotation": {"number": 64, "value": 127}, "group": "control_change"}, {"time": 1900, "annotation": {"number": 64, "value": 0}, "group": "control_change"}, {"time": 1901, "annotation": {"number": 64, "value": 127}, "group": "control_change"}, {"time": 1920, "annotation": {"number": 64, "value": 0}, "group": "control_change"}, {"time": 1925, "annotation": {"number": 64, "value": 127}, "group": "control_change"}, {"time": 1947, "annotation": {"number": 64, "value": 0}, "group": "control_change"}, {"time": 1950, "annotation": {"number": 64, "value": 127}, "group": "control_change"}, {"time": 1971, "annotation": {"number": 64, "value": 0}, "group": "control_change"}, {"time": 1973, "annotation": {"number": 64, "value": 127}, "group": "control_change"}, {"time": 1994, "annotation": {"number": 64, "value": 0}, "group": "control_change"}, {"time": 1996, "annotation": {"number": 64, "value": 127}, "group": "control_change"}, {"time": 2006, "annotation": {"number": 64, "value": 0}, "group": "control_change"}, {"time": 2008, "annotation": {"number": 64, "value": 127}, "group": "control_change"}, {"time": 2019, "annotation": {"number": 64, "value": 0}, "group": "control_change"}, {"time": 2021, "annotation": {"number": 64, "value": 127}, "group": "control_change"}, {"time": 2043, "annotation": {"number": 64, "value": 0}, "group": "control_change"}, {"time": 2044, "annotation": {"number": 64, "value": 127}, "group": "control_change"}, {"time": 2064, "annotation": {"number": 64, "value": 0}, "group": "control_change"}, {"time": 2067, "annotation": {"number": 64, "value": 127}, "group": "control_change"}, {"time": 2091, "annotation": {"number": 64, "value": 0}, "group": "control_change"}, {"time": 2092, "annotation": {"number": 64, "value": 127}, "group": "control_change"}, {"time": 2112, "annotation": {"number": 64, "value": 0}, "group": "control_change"}, {"time": 2139, "annotation": {"number": 64, "value": 0}, "group": "control_change"}, {"time": 2142, "annotation": {"number": 64, "value": 127}, "group": "control_change"}, {"time": 2162, "annotation": {"number": 64, "value": 0}, "group": "control_change"}, {"time": 2166, "annotation": {"number": 64, "value": 127}, "group": "control_change"}, {"time": 2187, "annotation": {"number": 64, "value": 0}, "group": "control_change"}, {"time": 2189, "annotation": {"number": 64, "value": 127}, "group": "control_change"}, {"time": 2210, "annotation": {"number": 64, "value": 0}, "group": "control_change"}, {"time": 2235, "annotation": {"number": 64, "value": 0}, "group": "control_change"}, {"time": 2238, "annotation": {"number": 64, "value": 127}, "group": "control_change"}, {"time": 2258, "annotation": {"number": 64, "value": 0}, "group": "control_change"}, {"time": 2262, "annotation": {"number": 64, "value": 127}, "group": "control_change"}, {"time": 2283, "annotation": {"number": 64, "value": 0}, "group": "control_change"}, {"time": 2285, "annotation": {"number": 64, "value": 127}, "group": "control_change"}, {"time": 2306, "annotation": {"number": 64, "value": 0}, "group": "control_change"}, {"time": 2308, "annotation": {"number": 64, "value": 127}, "group": "control_change"}, {"time": 2331, "annotation": {"number": 64, "value": 0}, "group": "control_change"}, {"time": 2334, "annotation": {"number": 64, "value": 127}, "group": "control_change"}, {"time": 2353, "annotation": {"number": 64, "value": 0}, "group": "control_change"}, {"time": 2356, "annotation": {"number": 64, "value": 127}, "group": "control_change"}, {"time": 2379, "annotation": {"number": 64, "value": 0}, "group": "control_change"}, {"time": 2381, "annotation": {"number": 64, "value": 127}, "group": "control_change"}, {"time": 2403, "annotation": {"number": 64, "value": 0}, "group": "control_change"}, {"time": 2406, "annotation": {"number": 64, "value": 127}, "group": "control_change"}, {"time": 2426, "annotation": {"number": 64, "value": 0}, "group": "control_change"}, {"time": 2428, "annotation": {"number": 64, "value": 127}, "group": "control_change"}, {"time": 2449, "annotation": {"number": 64, "value": 0}, "group": "control_change"}, {"time": 2451, "annotation": {"number": 64, "value": 127}, "group": "control_change"}, {"time": 2496, "annotation": {"number": 64, "value": 0}, "group": "control_change"}, {"time": 2523, "annotation": {"number": 64, "value": 0}, "group": "control_change"}, {"time": 2525, "annotation": {"number": 64, "value": 127}, "group": "control_change"}, {"time": 2546, "annotation": {"number": 64, "value": 0}, "group": "control_change"}, {"time": 2548, "annotation": {"number": 64, "value": 127}, "group": "control_change"}, {"time": 2570, "annotation": {"number": 64, "value": 0}, "group": "control_change"}, {"time": 2573, "annotation": {"number": 64, "value": 127}, "group": "control_change"}, {"time": 2582, "annotation": {"number": 64, "value": 0}, "group": "control_change"}, {"time": 2584, "annotation": {"number": 64, "value": 127}, "group": "control_change"}, {"time": 2594, "annotation": {"number": 64, "value": 0}, "group": "control_change"}, {"time": 2598, "annotation": {"number": 64, "value": 127}, "group": "control_change"}, {"time": 2618, "annotation": {"number": 64, "value": 0}, "group": "control_change"}, {"time": 2620, "annotation": {"number": 64, "value": 127}, "group": "control_change"}, {"time": 2642, "annotation": {"number": 64, "value": 0}, "group": "control_change"}, {"time": 2644, "annotation": {"number": 64, "value": 127}, "group": "control_change"}, {"time": 2668, "annotation": {"number": 64, "value": 0}, "group": "control_change"}, {"time": 2669, "annotation": {"number": 64, "value": 127}, "group": "control_change"}, {"time": 2688, "annotation": {"number": 64, "value": 0}, "group": "control_change"}, {"time": 2693, "annotation": {"number": 64, "value": 127}, "group": "control_change"}, {"time": 2715, "annotation": {"number": 64, "value": 0}, "group": "control_change"}, {"time": 2718, "annotation": {"number": 64, "value": 127}, "group": "control_change"}, {"time": 2739, "annotation": {"number": 64, "value": 0}, "group": "control_change"}, {"time": 2741, "annotation": {"number": 64, "value": 127}, "group": "control_change"}, {"time": 2762, "annotation": {"number": 64, "value": 0}, "group": "control_change"}, {"time": 2764, "annotation": {"number": 64, "value": 127}, "group": "control_change"}, {"time": 2774, "annotation": {"number": 64, "value": 0}, "group": "control_change"}, {"time": 2776, "annotation": {"number": 64, "value": 127}, "group": "control_change"}, {"time": 2787, "annotation": {"number": 64, "value": 0}, "group": "control_change"}, {"time": 2789, "annotation": {"number": 64, "value": 127}, "group": "control_change"}, {"time": 2811, "annotation": {"number": 64, "value": 0}, "group": "control_change"}, {"time": 2812, "annotation": {"number": 64, "value": 127}, "group": "control_change"}, {"time": 2832, "annotation": {"number": 64, "value": 0}, "group": "control_change"}, {"time": 2835, "annotation": {"number": 64, "value": 127}, "group": "control_change"}, {"time": 2859, "annotation": {"number": 64, "value": 0}, "group": "control_change"}, {"time": 2860, "annotation": {"number": 64, "value": 127}, "group": "control_change"}, {"time": 2880, "annotation": {"number": 64, "value": 0}, "group": "control_change"}, {"time": 2907, "annotation": {"number": 64, "value": 0}, "group": "control_change"}, {"time": 2910, "annotation": {"number": 64, "value": 127}, "group": "control_change"}, {"time": 2930, "annotation": {"number": 64, "value": 0}, "group": "control_change"}, {"time": 2934, "annotation": {"number": 64, "value": 127}, "group": "control_change"}, {"time": 2955, "annotation": {"number": 64, "value": 0}, "group": "control_change"}, {"time": 2957, "annotation": {"number": 64, "value": 127}, "group": "control_change"}, {"time": 2978, "annotation": {"number": 64, "value": 0}, "group": "control_change"}, {"time": 3003, "annotation": {"number": 64, "value": 0}, "group": "control_change"}, {"time": 3006, "annotation": {"number": 64, "value": 127}, "group": "control_change"}, {"time": 3026, "annotation": {"number": 64, "value": 0}, "group": "control_change"}, {"time": 3030, "annotation": {"number": 64, "value": 127}, "group": "control_change"}, {"time": 3051, "annotation": {"number": 64, "value": 0}, "group": "control_change"}, {"time": 3053, "annotation": {"number": 64, "value": 127}, "group": "control_change"}, {"time": 3074, "annotation": {"number": 64, "value": 0}, "group": "control_change"}, {"time": 3099, "annotation": {"number": 64, "value": 0}, "group": "control_change"}, {"time": 3102, "annotation": {"number": 64, "value": 127}, "group": "control_change"}, {"time": 3122, "annotation": {"number": 64, "value": 0}, "group": "control_change"}, {"time": 3126, "annotation": {"number": 64, "value": 127}, "group": "control_change"}, {"time": 3147, "annotation": {"number": 64, "value": 0}, "group": "control_change"}, {"time": 3149, "annotation": {"number": 64, "value": 127}, "group": "control_change"}, {"time": 3170, "annotation": {"number": 64, "value": 0}, "group": "control_change"}, {"time": 3195, "annotation": {"number": 64, "value": 0}, "group": "control_change"}, {"time": 3198, "annotation": {"number": 64, "value": 127}, "group": "control_change"}, {"time": 3218, "annotation": {"number": 64, "value": 0}, "group": "control_change"}, {"time": 3222, "annotation": {"number": 64, "value": 127}, "group": "control_change"}, {"time": 3243, "annotation": {"number": 64, "value": 0}, "group": "control_change"}, {"time": 3245, "annotation": {"number": 64, "value": 127}, "group": "control_change"}, {"time": 3266, "annotation": {"number": 64, "value": 0}, "group": "control_change"}, {"time": 3290, "annotation": {"number": 64, "value": 0}, "group": "control_change"}, {"time": 3293, "annotation": {"number": 64, "value": 127}, "group": "control_change"}, {"time": 3314, "annotation": {"number": 64, "value": 0}, "group": "control_change"}, {"time": 3317, "annotation": {"number": 64, "value": 127}, "group": "control_change"}, {"time": 3338, "annotation": {"number": 64, "value": 0}, "group": "control_change"}, {"time": 3340, "annotation": {"number": 64, "value": 127}, "group": "control_change"}, {"time": 3362, "annotation": {"number": 64, "value": 0}, "group": "control_change"}, {"time": 3364, "annotation": {"number": 64, "value": 127}, "group": "control_change"}, {"time": 3387, "annotation": {"number": 64, "value": 0}, "group": "control_change"}, {"time": 3389, "annotation": {"number": 64, "value": 127}, "group": "control_change"}, {"time": 3410, "annotation": {"number": 64, "value": 0}, "group": "control_change"}, {"time": 3414, "annotation": {"number": 64, "value": 127}, "group": "control_change"}, {"time": 3414, "annotation": {"number": 64, "value": 0}, "group": "control_change"}, {"time": 3434, "annotation": {"number": 64, "value": 0}, "group": "control_change"}, {"time": 3438, "annotation": {"number": 64, "value": 127}, "group": "control_change"}, {"time": 3458, "annotation": {"number": 64, "value": 0}, "group": "control_change"}]}]}