{"metadata": {"schema_version": "0.2", "title": "None", "source_filename": "521.mid", "source_format": "midi"}, "resolution": 12, "tempos": [{"time": 0, "qpm": 61.00003456668625}], "time_signatures": [{"time": 0, "numerator": 1, "denominator": 4}], "tracks": [{"program": 0, "is_drum": false, "name": "MELODY", "notes": [{"time": 253, "pitch": 69, "duration": 2, "velocity": 95}, {"time": 256, "pitch": 69, "duration": 2, "velocity": 96}, {"time": 259, "pitch": 69, "duration": 2, "velocity": 96}, {"time": 262, "pitch": 69, "duration": 2, "velocity": 95}, {"time": 265, "pitch": 69, "duration": 5, "velocity": 96}, {"time": 271, "pitch": 66, "duration": 5, "velocity": 95}, {"time": 277, "pitch": 73, "duration": 13, "velocity": 91}, {"time": 301, "pitch": 76, "duration": 2, "velocity": 96}, {"time": 304, "pitch": 76, "duration": 2, "velocity": 96}, {"time": 307, "pitch": 76, "duration": 2, "velocity": 95}, {"time": 310, "pitch": 76, "duration": 2, "velocity": 95}, {"time": 313, "pitch": 78, "duration": 4, "velocity": 97}, {"time": 319, "pitch": 76, "duration": 5, "velocity": 96}, {"time": 325, "pitch": 73, "duration": 15, "velocity": 90}, {"time": 343, "pitch": 73, "duration": 2, "velocity": 99}, {"time": 346, "pitch": 76, "duration": 2, "velocity": 102}, {"time": 349, "pitch": 71, "duration": 4, "velocity": 96}, {"time": 355, "pitch": 71, "duration": 2, "velocity": 96}, {"time": 358, "pitch": 71, "duration": 6, "velocity": 97}, {"time": 367, "pitch": 69, "duration": 3, "velocity": 91}, {"time": 370, "pitch": 66, "duration": 2, "velocity": 93}, {"time": 373, "pitch": 71, "duration": 4, "velocity": 95}, {"time": 379, "pitch": 73, "duration": 2, "velocity": 90}, {"time": 382, "pitch": 71, "duration": 6, "velocity": 95}, {"time": 391, "pitch": 69, "duration": 2, "velocity": 96}, {"time": 394, "pitch": 71, "duration": 2, "velocity": 96}, {"time": 397, "pitch": 73, "duration": 4, "velocity": 96}, {"time": 403, "pitch": 73, "duration": 4, "velocity": 99}, {"time": 409, "pitch": 76, "duration": 4, "velocity": 102}, {"time": 415, "pitch": 73, "duration": 3, "velocity": 96}, {"time": 418, "pitch": 71, "duration": 5, "velocity": 96}, {"time": 424, "pitch": 73, "duration": 17, "velocity": 98}, {"time": 451, "pitch": 78, "duration": 2, "velocity": 93}, {"time": 454, "pitch": 78, "duration": 2, "velocity": 95}, {"time": 457, "pitch": 78, "duration": 4, "velocity": 98}, {"time": 463, "pitch": 78, "duration": 2, "velocity": 101}, {"time": 466, "pitch": 76, "duration": 2, "velocity": 98}, {"time": 469, "pitch": 78, "duration": 5, "velocity": 99}, {"time": 475, "pitch": 81, "duration": 12, "velocity": 97}, {"time": 493, "pitch": 76, "duration": 5, "velocity": 97}, {"time": 499, "pitch": 73, "duration": 4, "velocity": 96}, {"time": 505, "pitch": 76, "duration": 2, "velocity": 96}, {"time": 508, "pitch": 78, "duration": 8, "velocity": 94}, {"time": 517, "pitch": 76, "duration": 14, "velocity": 97}, {"time": 535, "pitch": 73, "duration": 3, "velocity": 90}, {"time": 538, "pitch": 71, "duration": 3, "velocity": 93}, {"time": 541, "pitch": 69, "duration": 4, "velocity": 96}, {"time": 547, "pitch": 66, "duration": 2, "velocity": 95}, {"time": 550, "pitch": 66, "duration": 7, "velocity": 97}, {"time": 562, "pitch": 73, "duration": 2, "velocity": 93}, {"time": 565, "pitch": 71, "duration": 4, "velocity": 94}, {"time": 571, "pitch": 64, "duration": 2, "velocity": 97}, {"time": 574, "pitch": 64, "duration": 10, "velocity": 98}, {"time": 589, "pitch": 69, "duration": 2, "velocity": 91}, {"time": 592, "pitch": 69, "duration": 2, "velocity": 91}, {"time": 595, "pitch": 69, "duration": 2, "velocity": 97}, {"time": 598, "pitch": 69, "duration": 2, "velocity": 95}, {"time": 601, "pitch": 69, "duration": 2, "velocity": 96}, {"time": 604, "pitch": 71, "duration": 8, "velocity": 94}, {"time": 613, "pitch": 68, "duration": 22, "velocity": 96}, {"time": 637, "pitch": 69, "duration": 2, "velocity": 95}, {"time": 640, "pitch": 69, "duration": 2, "velocity": 96}, {"time": 643, "pitch": 69, "duration": 2, "velocity": 96}, {"time": 646, "pitch": 69, "duration": 2, "velocity": 95}, {"time": 649, "pitch": 69, "duration": 5, "velocity": 96}, {"time": 655, "pitch": 66, "duration": 5, "velocity": 95}, {"time": 661, "pitch": 73, "duration": 13, "velocity": 91}, {"time": 685, "pitch": 76, "duration": 2, "velocity": 96}, {"time": 688, "pitch": 76, "duration": 2, "velocity": 96}, {"time": 691, "pitch": 76, "duration": 2, "velocity": 95}, {"time": 694, "pitch": 76, "duration": 2, "velocity": 95}, {"time": 697, "pitch": 78, "duration": 4, "velocity": 97}, {"time": 703, "pitch": 76, "duration": 5, "velocity": 96}, {"time": 709, "pitch": 73, "duration": 15, "velocity": 90}, {"time": 727, "pitch": 73, "duration": 2, "velocity": 99}, {"time": 730, "pitch": 76, "duration": 2, "velocity": 102}, {"time": 733, "pitch": 71, "duration": 4, "velocity": 96}, {"time": 739, "pitch": 71, "duration": 2, "velocity": 96}, {"time": 742, "pitch": 71, "duration": 6, "velocity": 97}, {"time": 751, "pitch": 69, "duration": 3, "velocity": 91}, {"time": 754, "pitch": 66, "duration": 2, "velocity": 93}, {"time": 757, "pitch": 71, "duration": 4, "velocity": 95}, {"time": 763, "pitch": 73, "duration": 2, "velocity": 90}, {"time": 766, "pitch": 71, "duration": 6, "velocity": 95}, {"time": 775, "pitch": 69, "duration": 2, "velocity": 96}, {"time": 778, "pitch": 71, "duration": 2, "velocity": 96}, {"time": 781, "pitch": 73, "duration": 4, "velocity": 96}, {"time": 787, "pitch": 73, "duration": 4, "velocity": 99}, {"time": 793, "pitch": 76, "duration": 4, "velocity": 102}, {"time": 799, "pitch": 73, "duration": 3, "velocity": 96}, {"time": 802, "pitch": 71, "duration": 5, "velocity": 96}, {"time": 808, "pitch": 73, "duration": 17, "velocity": 98}, {"time": 835, "pitch": 78, "duration": 2, "velocity": 93}, {"time": 838, "pitch": 78, "duration": 2, "velocity": 95}, {"time": 841, "pitch": 78, "duration": 4, "velocity": 98}, {"time": 847, "pitch": 78, "duration": 2, "velocity": 101}, {"time": 850, "pitch": 76, "duration": 2, "velocity": 98}, {"time": 853, "pitch": 78, "duration": 5, "velocity": 99}, {"time": 859, "pitch": 81, "duration": 12, "velocity": 97}, {"time": 877, "pitch": 76, "duration": 5, "velocity": 97}, {"time": 883, "pitch": 73, "duration": 4, "velocity": 96}, {"time": 889, "pitch": 76, "duration": 2, "velocity": 96}, {"time": 892, "pitch": 78, "duration": 8, "velocity": 94}, {"time": 901, "pitch": 76, "duration": 14, "velocity": 97}, {"time": 919, "pitch": 73, "duration": 2, "velocity": 95}, {"time": 922, "pitch": 76, "duration": 1, "velocity": 101}, {"time": 925, "pitch": 78, "duration": 5, "velocity": 95}, {"time": 931, "pitch": 76, "duration": 2, "velocity": 97}, {"time": 934, "pitch": 78, "duration": 9, "velocity": 95}, {"time": 946, "pitch": 78, "duration": 2, "velocity": 93}, {"time": 949, "pitch": 80, "duration": 5, "velocity": 99}, {"time": 955, "pitch": 73, "duration": 2, "velocity": 96}, {"time": 958, "pitch": 73, "duration": 5, "velocity": 95}, {"time": 964, "pitch": 80, "duration": 8, "velocity": 91}, {"time": 973, "pitch": 81, "duration": 5, "velocity": 95}, {"time": 979, "pitch": 78, "duration": 2, "velocity": 97}, {"time": 982, "pitch": 78, "duration": 9, "velocity": 99}, {"time": 991, "pitch": 81, "duration": 6, "velocity": 96}, {"time": 997, "pitch": 80, "duration": 12, "velocity": 106}, {"time": 1009, "pitch": 81, "duration": 5, "velocity": 97}, {"time": 1015, "pitch": 80, "duration": 5, "velocity": 106}, {"time": 1021, "pitch": 78, "duration": 11, "velocity": 96}, {"time": 1033, "pitch": 73, "duration": 9, "velocity": 96}, {"time": 1045, "pitch": 76, "duration": 5, "velocity": 97}, {"time": 1051, "pitch": 78, "duration": 2, "velocity": 96}, {"time": 1054, "pitch": 78, "duration": 11, "velocity": 92}, {"time": 1069, "pitch": 76, "duration": 4, "velocity": 104}, {"time": 1075, "pitch": 76, "duration": 5, "velocity": 101}, {"time": 1081, "pitch": 71, "duration": 2, "velocity": 98}, {"time": 1084, "pitch": 76, "duration": 7, "velocity": 98}, {"time": 1093, "pitch": 73, "duration": 17, "velocity": 95}, {"time": 1111, "pitch": 73, "duration": 2, "velocity": 104}, {"time": 1114, "pitch": 71, "duration": 2, "velocity": 97}, {"time": 1117, "pitch": 69, "duration": 3, "velocity": 100}, {"time": 1120, "pitch": 66, "duration": 2, "velocity": 86}, {"time": 1123, "pitch": 66, "duration": 2, "velocity": 95}, {"time": 1126, "pitch": 66, "duration": 6, "velocity": 97}, {"time": 1138, "pitch": 78, "duration": 2, "velocity": 97}, {"time": 1141, "pitch": 78, "duration": 5, "velocity": 92}, {"time": 1147, "pitch": 76, "duration": 2, "velocity": 97}, {"time": 1150, "pitch": 78, "duration": 11, "velocity": 99}, {"time": 1165, "pitch": 78, "duration": 4, "velocity": 101}, {"time": 1171, "pitch": 78, "duration": 3, "velocity": 99}, {"time": 1176, "pitch": 78, "duration": 4, "velocity": 97}, {"time": 1181, "pitch": 76, "duration": 2, "velocity": 97}, {"time": 1185, "pitch": 73, "duration": 2, "velocity": 96}, {"time": 1189, "pitch": 71, "duration": 8, "velocity": 102}, {"time": 1201, "pitch": 81, "duration": 5, "velocity": 97}, {"time": 1207, "pitch": 80, "duration": 5, "velocity": 106}, {"time": 1213, "pitch": 78, "duration": 11, "velocity": 96}, {"time": 1225, "pitch": 73, "duration": 9, "velocity": 96}, {"time": 1237, "pitch": 76, "duration": 5, "velocity": 97}, {"time": 1243, "pitch": 78, "duration": 2, "velocity": 96}, {"time": 1246, "pitch": 78, "duration": 11, "velocity": 92}, {"time": 1261, "pitch": 76, "duration": 4, "velocity": 104}, {"time": 1267, "pitch": 76, "duration": 5, "velocity": 101}, {"time": 1273, "pitch": 71, "duration": 2, "velocity": 98}, {"time": 1276, "pitch": 76, "duration": 7, "velocity": 98}, {"time": 1285, "pitch": 73, "duration": 17, "velocity": 95}, {"time": 1303, "pitch": 73, "duration": 2, "velocity": 104}, {"time": 1306, "pitch": 71, "duration": 2, "velocity": 97}, {"time": 1309, "pitch": 69, "duration": 3, "velocity": 100}, {"time": 1312, "pitch": 66, "duration": 2, "velocity": 86}, {"time": 1315, "pitch": 66, "duration": 2, "velocity": 95}, {"time": 1318, "pitch": 66, "duration": 6, "velocity": 97}, {"time": 1330, "pitch": 78, "duration": 2, "velocity": 97}, {"time": 1333, "pitch": 78, "duration": 5, "velocity": 92}, {"time": 1339, "pitch": 76, "duration": 2, "velocity": 97}, {"time": 1342, "pitch": 78, "duration": 11, "velocity": 99}, {"time": 1357, "pitch": 80, "duration": 2, "velocity": 98}, {"time": 1360, "pitch": 80, "duration": 2, "velocity": 95}, {"time": 1363, "pitch": 80, "duration": 2, "velocity": 95}, {"time": 1366, "pitch": 80, "duration": 2, "velocity": 97}, {"time": 1369, "pitch": 80, "duration": 2, "velocity": 96}, {"time": 1372, "pitch": 81, "duration": 2, "velocity": 93}, {"time": 1375, "pitch": 80, "duration": 2, "velocity": 97}, {"time": 1378, "pitch": 80, "duration": 6, "velocity": 98}, {"time": 1384, "pitch": 78, "duration": 32, "velocity": 93}, {"time": 1597, "pitch": 69, "duration": 2, "velocity": 95}, {"time": 1600, "pitch": 69, "duration": 2, "velocity": 96}, {"time": 1603, "pitch": 69, "duration": 2, "velocity": 96}, {"time": 1606, "pitch": 69, "duration": 2, "velocity": 95}, {"time": 1609, "pitch": 69, "duration": 5, "velocity": 96}, {"time": 1615, "pitch": 66, "duration": 5, "velocity": 95}, {"time": 1621, "pitch": 73, "duration": 13, "velocity": 91}, {"time": 1645, "pitch": 76, "duration": 2, "velocity": 96}, {"time": 1648, "pitch": 76, "duration": 2, "velocity": 96}, {"time": 1651, "pitch": 76, "duration": 2, "velocity": 95}, {"time": 1654, "pitch": 76, "duration": 2, "velocity": 95}, {"time": 1657, "pitch": 78, "duration": 4, "velocity": 97}, {"time": 1663, "pitch": 76, "duration": 5, "velocity": 96}, {"time": 1669, "pitch": 73, "duration": 15, "velocity": 90}, {"time": 1687, "pitch": 73, "duration": 2, "velocity": 99}, {"time": 1690, "pitch": 76, "duration": 2, "velocity": 102}, {"time": 1693, "pitch": 71, "duration": 4, "velocity": 96}, {"time": 1699, "pitch": 71, "duration": 2, "velocity": 96}, {"time": 1702, "pitch": 71, "duration": 6, "velocity": 97}, {"time": 1711, "pitch": 69, "duration": 3, "velocity": 91}, {"time": 1714, "pitch": 66, "duration": 2, "velocity": 93}, {"time": 1717, "pitch": 71, "duration": 4, "velocity": 95}, {"time": 1723, "pitch": 73, "duration": 2, "velocity": 90}, {"time": 1726, "pitch": 71, "duration": 6, "velocity": 95}, {"time": 1735, "pitch": 69, "duration": 2, "velocity": 96}, {"time": 1738, "pitch": 71, "duration": 2, "velocity": 96}, {"time": 1741, "pitch": 73, "duration": 4, "velocity": 96}, {"time": 1747, "pitch": 73, "duration": 4, "velocity": 99}, {"time": 1753, "pitch": 76, "duration": 4, "velocity": 102}, {"time": 1759, "pitch": 73, "duration": 3, "velocity": 96}, {"time": 1762, "pitch": 71, "duration": 5, "velocity": 96}, {"time": 1768, "pitch": 73, "duration": 17, "velocity": 98}, {"time": 1795, "pitch": 78, "duration": 2, "velocity": 93}, {"time": 1798, "pitch": 78, "duration": 2, "velocity": 95}, {"time": 1801, "pitch": 78, "duration": 4, "velocity": 98}, {"time": 1807, "pitch": 78, "duration": 2, "velocity": 101}, {"time": 1810, "pitch": 76, "duration": 2, "velocity": 98}, {"time": 1813, "pitch": 78, "duration": 5, "velocity": 99}, {"time": 1819, "pitch": 81, "duration": 12, "velocity": 97}, {"time": 1837, "pitch": 76, "duration": 5, "velocity": 97}, {"time": 1843, "pitch": 73, "duration": 4, "velocity": 96}, {"time": 1849, "pitch": 76, "duration": 2, "velocity": 96}, {"time": 1852, "pitch": 78, "duration": 8, "velocity": 94}, {"time": 1861, "pitch": 76, "duration": 14, "velocity": 97}, {"time": 1879, "pitch": 73, "duration": 2, "velocity": 95}, {"time": 1882, "pitch": 76, "duration": 1, "velocity": 101}, {"time": 1885, "pitch": 78, "duration": 5, "velocity": 95}, {"time": 1891, "pitch": 76, "duration": 2, "velocity": 97}, {"time": 1894, "pitch": 78, "duration": 9, "velocity": 95}, {"time": 1906, "pitch": 78, "duration": 2, "velocity": 93}, {"time": 1909, "pitch": 80, "duration": 5, "velocity": 99}, {"time": 1915, "pitch": 73, "duration": 2, "velocity": 96}, {"time": 1918, "pitch": 73, "duration": 5, "velocity": 95}, {"time": 1924, "pitch": 80, "duration": 8, "velocity": 91}, {"time": 1933, "pitch": 81, "duration": 5, "velocity": 95}, {"time": 1939, "pitch": 78, "duration": 2, "velocity": 97}, {"time": 1942, "pitch": 78, "duration": 9, "velocity": 99}, {"time": 1951, "pitch": 81, "duration": 6, "velocity": 96}, {"time": 1957, "pitch": 80, "duration": 12, "velocity": 106}, {"time": 1969, "pitch": 81, "duration": 5, "velocity": 97}, {"time": 1975, "pitch": 80, "duration": 5, "velocity": 106}, {"time": 1981, "pitch": 78, "duration": 11, "velocity": 96}, {"time": 1993, "pitch": 73, "duration": 9, "velocity": 96}, {"time": 2005, "pitch": 76, "duration": 5, "velocity": 97}, {"time": 2011, "pitch": 78, "duration": 2, "velocity": 96}, {"time": 2014, "pitch": 78, "duration": 11, "velocity": 92}, {"time": 2029, "pitch": 76, "duration": 4, "velocity": 104}, {"time": 2035, "pitch": 76, "duration": 5, "velocity": 101}, {"time": 2041, "pitch": 71, "duration": 2, "velocity": 98}, {"time": 2044, "pitch": 76, "duration": 7, "velocity": 98}, {"time": 2053, "pitch": 73, "duration": 17, "velocity": 95}, {"time": 2071, "pitch": 73, "duration": 2, "velocity": 104}, {"time": 2074, "pitch": 71, "duration": 2, "velocity": 97}, {"time": 2077, "pitch": 69, "duration": 3, "velocity": 100}, {"time": 2080, "pitch": 66, "duration": 2, "velocity": 86}, {"time": 2083, "pitch": 66, "duration": 2, "velocity": 95}, {"time": 2086, "pitch": 66, "duration": 6, "velocity": 97}, {"time": 2098, "pitch": 78, "duration": 2, "velocity": 97}, {"time": 2101, "pitch": 78, "duration": 5, "velocity": 92}, {"time": 2107, "pitch": 76, "duration": 2, "velocity": 97}, {"time": 2110, "pitch": 78, "duration": 11, "velocity": 99}, {"time": 2125, "pitch": 78, "duration": 4, "velocity": 101}, {"time": 2131, "pitch": 78, "duration": 3, "velocity": 99}, {"time": 2136, "pitch": 78, "duration": 4, "velocity": 97}, {"time": 2141, "pitch": 76, "duration": 2, "velocity": 97}, {"time": 2145, "pitch": 73, "duration": 2, "velocity": 96}, {"time": 2149, "pitch": 71, "duration": 8, "velocity": 102}, {"time": 2161, "pitch": 81, "duration": 5, "velocity": 97}, {"time": 2167, "pitch": 80, "duration": 5, "velocity": 106}, {"time": 2173, "pitch": 78, "duration": 11, "velocity": 96}, {"time": 2185, "pitch": 73, "duration": 9, "velocity": 96}, {"time": 2197, "pitch": 76, "duration": 5, "velocity": 97}, {"time": 2203, "pitch": 78, "duration": 2, "velocity": 96}, {"time": 2206, "pitch": 78, "duration": 11, "velocity": 92}, {"time": 2221, "pitch": 76, "duration": 4, "velocity": 104}, {"time": 2227, "pitch": 76, "duration": 5, "velocity": 101}, {"time": 2233, "pitch": 71, "duration": 2, "velocity": 98}, {"time": 2236, "pitch": 76, "duration": 7, "velocity": 98}, {"time": 2245, "pitch": 73, "duration": 17, "velocity": 95}, {"time": 2263, "pitch": 73, "duration": 2, "velocity": 104}, {"time": 2266, "pitch": 71, "duration": 2, "velocity": 97}, {"time": 2269, "pitch": 69, "duration": 3, "velocity": 100}, {"time": 2272, "pitch": 66, "duration": 2, "velocity": 86}, {"time": 2275, "pitch": 66, "duration": 2, "velocity": 95}, {"time": 2278, "pitch": 66, "duration": 6, "velocity": 97}, {"time": 2290, "pitch": 78, "duration": 2, "velocity": 97}, {"time": 2293, "pitch": 78, "duration": 5, "velocity": 92}, {"time": 2299, "pitch": 76, "duration": 2, "velocity": 97}, {"time": 2302, "pitch": 78, "duration": 11, "velocity": 99}, {"time": 2317, "pitch": 80, "duration": 2, "velocity": 98}, {"time": 2320, "pitch": 80, "duration": 2, "velocity": 95}, {"time": 2323, "pitch": 80, "duration": 2, "velocity": 95}, {"time": 2326, "pitch": 80, "duration": 2, "velocity": 97}, {"time": 2329, "pitch": 80, "duration": 2, "velocity": 96}, {"time": 2332, "pitch": 81, "duration": 2, "velocity": 93}, {"time": 2335, "pitch": 80, "duration": 2, "velocity": 97}, {"time": 2338, "pitch": 80, "duration": 6, "velocity": 98}, {"time": 2344, "pitch": 78, "duration": 32, "velocity": 93}, {"time": 2593, "pitch": 81, "duration": 5, "velocity": 97}, {"time": 2599, "pitch": 80, "duration": 5, "velocity": 106}, {"time": 2605, "pitch": 78, "duration": 11, "velocity": 96}, {"time": 2617, "pitch": 73, "duration": 9, "velocity": 96}, {"time": 2629, "pitch": 76, "duration": 5, "velocity": 97}, {"time": 2635, "pitch": 78, "duration": 2, "velocity": 96}, {"time": 2638, "pitch": 78, "duration": 11, "velocity": 92}, {"time": 2653, "pitch": 76, "duration": 4, "velocity": 104}, {"time": 2659, "pitch": 76, "duration": 5, "velocity": 101}, {"time": 2665, "pitch": 71, "duration": 2, "velocity": 98}, {"time": 2668, "pitch": 76, "duration": 7, "velocity": 98}, {"time": 2677, "pitch": 73, "duration": 17, "velocity": 95}, {"time": 2695, "pitch": 73, "duration": 2, "velocity": 104}, {"time": 2698, "pitch": 71, "duration": 2, "velocity": 97}, {"time": 2701, "pitch": 69, "duration": 3, "velocity": 100}, {"time": 2704, "pitch": 66, "duration": 2, "velocity": 86}, {"time": 2707, "pitch": 66, "duration": 2, "velocity": 95}, {"time": 2710, "pitch": 66, "duration": 6, "velocity": 97}, {"time": 2722, "pitch": 78, "duration": 2, "velocity": 97}, {"time": 2725, "pitch": 78, "duration": 5, "velocity": 92}, {"time": 2731, "pitch": 76, "duration": 2, "velocity": 97}, {"time": 2734, "pitch": 78, "duration": 11, "velocity": 99}, {"time": 2749, "pitch": 78, "duration": 4, "velocity": 101}, {"time": 2755, "pitch": 78, "duration": 3, "velocity": 99}, {"time": 2760, "pitch": 78, "duration": 4, "velocity": 97}, {"time": 2765, "pitch": 76, "duration": 2, "velocity": 97}, {"time": 2769, "pitch": 73, "duration": 2, "velocity": 96}, {"time": 2773, "pitch": 71, "duration": 8, "velocity": 102}, {"time": 2785, "pitch": 81, "duration": 5, "velocity": 97}, {"time": 2791, "pitch": 80, "duration": 5, "velocity": 106}, {"time": 2797, "pitch": 78, "duration": 11, "velocity": 96}, {"time": 2809, "pitch": 73, "duration": 9, "velocity": 96}, {"time": 2821, "pitch": 76, "duration": 5, "velocity": 97}, {"time": 2827, "pitch": 78, "duration": 2, "velocity": 96}, {"time": 2830, "pitch": 78, "duration": 11, "velocity": 92}, {"time": 2845, "pitch": 76, "duration": 4, "velocity": 104}, {"time": 2851, "pitch": 76, "duration": 5, "velocity": 101}, {"time": 2857, "pitch": 71, "duration": 2, "velocity": 98}, {"time": 2860, "pitch": 76, "duration": 7, "velocity": 98}, {"time": 2869, "pitch": 73, "duration": 17, "velocity": 95}, {"time": 2887, "pitch": 73, "duration": 2, "velocity": 104}, {"time": 2890, "pitch": 71, "duration": 2, "velocity": 97}, {"time": 2893, "pitch": 69, "duration": 3, "velocity": 100}, {"time": 2896, "pitch": 66, "duration": 2, "velocity": 86}, {"time": 2899, "pitch": 66, "duration": 2, "velocity": 95}, {"time": 2902, "pitch": 66, "duration": 6, "velocity": 97}, {"time": 2914, "pitch": 78, "duration": 2, "velocity": 97}, {"time": 2917, "pitch": 78, "duration": 5, "velocity": 92}, {"time": 2923, "pitch": 76, "duration": 2, "velocity": 97}, {"time": 2926, "pitch": 78, "duration": 11, "velocity": 99}, {"time": 2941, "pitch": 80, "duration": 2, "velocity": 98}, {"time": 2944, "pitch": 80, "duration": 2, "velocity": 95}, {"time": 2947, "pitch": 80, "duration": 2, "velocity": 95}, {"time": 2950, "pitch": 80, "duration": 2, "velocity": 97}, {"time": 2953, "pitch": 80, "duration": 2, "velocity": 96}, {"time": 2956, "pitch": 81, "duration": 2, "velocity": 93}, {"time": 2959, "pitch": 80, "duration": 2, "velocity": 97}, {"time": 2962, "pitch": 80, "duration": 6, "velocity": 98}, {"time": 2968, "pitch": 78, "duration": 32, "velocity": 93}]}, {"program": 0, "is_drum": false, "name": "BRIDGE", "notes": [{"time": 40, "pitch": 92, "duration": 4, "velocity": 100}, {"time": 43, "pitch": 93, "duration": 3, "velocity": 96}, {"time": 46, "pitch": 90, "duration": 5, "velocity": 102}, {"time": 52, "pitch": 73, "duration": 3, "velocity": 99}, {"time": 55, "pitch": 76, "duration": 3, "velocity": 99}, {"time": 58, "pitch": 78, "duration": 45, "velocity": 98}, {"time": 64, "pitch": 85, "duration": 3, "velocity": 83}, {"time": 67, "pitch": 88, "duration": 4, "velocity": 92}, {"time": 70, "pitch": 90, "duration": 2, "velocity": 98}, {"time": 73, "pitch": 90, "duration": 10, "velocity": 94}, {"time": 103, "pitch": 76, "duration": 3, "velocity": 100}, {"time": 106, "pitch": 73, "duration": 3, "velocity": 101}, {"time": 109, "pitch": 71, "duration": 6, "velocity": 100}, {"time": 115, "pitch": 69, "duration": 3, "velocity": 96}, {"time": 118, "pitch": 73, "duration": 9, "velocity": 101}, {"time": 127, "pitch": 71, "duration": 4, "velocity": 96}, {"time": 130, "pitch": 69, "duration": 3, "velocity": 96}, {"time": 133, "pitch": 68, "duration": 7, "velocity": 95}, {"time": 139, "pitch": 69, "duration": 4, "velocity": 96}, {"time": 142, "pitch": 71, "duration": 9, "velocity": 97}, {"time": 151, "pitch": 64, "duration": 6, "velocity": 96}, {"time": 157, "pitch": 76, "duration": 13, "velocity": 102}, {"time": 169, "pitch": 74, "duration": 13, "velocity": 97}, {"time": 181, "pitch": 73, "duration": 18, "velocity": 97}, {"time": 199, "pitch": 71, "duration": 6, "velocity": 98}, {"time": 205, "pitch": 73, "duration": 1, "velocity": 99}, {"time": 206, "pitch": 74, "duration": 2, "velocity": 97}, {"time": 208, "pitch": 73, "duration": 15, "velocity": 101}, {"time": 223, "pitch": 71, "duration": 2, "velocity": 100}, {"time": 225, "pitch": 69, "duration": 4, "velocity": 95}, {"time": 228, "pitch": 68, "duration": 24, "velocity": 99}, {"time": 427, "pitch": 69, "duration": 4, "velocity": 90}, {"time": 430, "pitch": 71, "duration": 4, "velocity": 91}, {"time": 433, "pitch": 73, "duration": 2, "velocity": 95}, {"time": 436, "pitch": 73, "duration": 3, "velocity": 94}, {"time": 439, "pitch": 76, "duration": 4, "velocity": 97}, {"time": 442, "pitch": 78, "duration": 27, "velocity": 99}, {"time": 487, "pitch": 76, "duration": 4, "velocity": 99}, {"time": 490, "pitch": 73, "duration": 4, "velocity": 95}, {"time": 493, "pitch": 71, "duration": 9, "velocity": 93}, {"time": 502, "pitch": 73, "duration": 26, "velocity": 96}, {"time": 535, "pitch": 71, "duration": 4, "velocity": 94}, {"time": 538, "pitch": 69, "duration": 4, "velocity": 93}, {"time": 541, "pitch": 66, "duration": 22, "velocity": 96}, {"time": 565, "pitch": 64, "duration": 23, "velocity": 95}, {"time": 589, "pitch": 66, "duration": 17, "velocity": 82}, {"time": 607, "pitch": 69, "duration": 6, "velocity": 89}, {"time": 613, "pitch": 71, "duration": 22, "velocity": 90}, {"time": 649, "pitch": 78, "duration": 10, "velocity": 81}, {"time": 652, "pitch": 73, "duration": 4, "velocity": 84}, {"time": 655, "pitch": 69, "duration": 22, "velocity": 82}, {"time": 658, "pitch": 73, "duration": 19, "velocity": 83}, {"time": 679, "pitch": 69, "duration": 4, "velocity": 80}, {"time": 682, "pitch": 71, "duration": 4, "velocity": 88}, {"time": 685, "pitch": 69, "duration": 37, "velocity": 90}, {"time": 685, "pitch": 73, "duration": 29, "velocity": 79}, {"time": 727, "pitch": 73, "duration": 5, "velocity": 84}, {"time": 733, "pitch": 74, "duration": 22, "velocity": 95}, {"time": 757, "pitch": 73, "duration": 12, "velocity": 84}, {"time": 769, "pitch": 71, "duration": 11, "velocity": 91}, {"time": 781, "pitch": 73, "duration": 23, "velocity": 86}, {"time": 805, "pitch": 76, "duration": 13, "velocity": 89}, {"time": 817, "pitch": 73, "duration": 6, "velocity": 96}, {"time": 820, "pitch": 68, "duration": 6, "velocity": 95}, {"time": 823, "pitch": 64, "duration": 5, "velocity": 95}, {"time": 829, "pitch": 66, "duration": 13, "velocity": 91}, {"time": 877, "pitch": 68, "duration": 23, "velocity": 89}, {"time": 925, "pitch": 66, "duration": 13, "velocity": 89}, {"time": 937, "pitch": 69, "duration": 6, "velocity": 89}, {"time": 943, "pitch": 66, "duration": 7, "velocity": 89}, {"time": 949, "pitch": 68, "duration": 12, "velocity": 99}, {"time": 961, "pitch": 64, "duration": 10, "velocity": 96}, {"time": 973, "pitch": 66, "duration": 12, "velocity": 86}, {"time": 985, "pitch": 69, "duration": 6, "velocity": 92}, {"time": 991, "pitch": 66, "duration": 7, "velocity": 85}, {"time": 997, "pitch": 68, "duration": 21, "velocity": 95}, {"time": 1021, "pitch": 85, "duration": 24, "velocity": 104}, {"time": 1045, "pitch": 83, "duration": 13, "velocity": 94}, {"time": 1057, "pitch": 85, "duration": 13, "velocity": 95}, {"time": 1069, "pitch": 83, "duration": 22, "velocity": 94}, {"time": 1093, "pitch": 85, "duration": 19, "velocity": 99}, {"time": 1117, "pitch": 81, "duration": 24, "velocity": 87}, {"time": 1153, "pitch": 81, "duration": 11, "velocity": 93}, {"time": 1165, "pitch": 78, "duration": 19, "velocity": 96}, {"time": 1183, "pitch": 81, "duration": 7, "velocity": 86}, {"time": 1189, "pitch": 80, "duration": 11, "velocity": 91}, {"time": 1201, "pitch": 76, "duration": 8, "velocity": 88}, {"time": 1201, "pitch": 80, "duration": 8, "velocity": 90}, {"time": 1213, "pitch": 85, "duration": 35, "velocity": 98}, {"time": 1249, "pitch": 85, "duration": 12, "velocity": 95}, {"time": 1261, "pitch": 83, "duration": 24, "velocity": 95}, {"time": 1285, "pitch": 85, "duration": 13, "velocity": 82}, {"time": 1297, "pitch": 83, "duration": 7, "velocity": 94}, {"time": 1303, "pitch": 81, "duration": 5, "velocity": 87}, {"time": 1309, "pitch": 85, "duration": 12, "velocity": 95}, {"time": 1321, "pitch": 81, "duration": 12, "velocity": 87}, {"time": 1333, "pitch": 83, "duration": 18, "velocity": 95}, {"time": 1351, "pitch": 81, "duration": 5, "velocity": 94}, {"time": 1357, "pitch": 80, "duration": 23, "velocity": 97}, {"time": 1381, "pitch": 78, "duration": 22, "velocity": 88}, {"time": 1415, "pitch": 69, "duration": 3, "velocity": 86}, {"time": 1416, "pitch": 74, "duration": 3, "velocity": 102}, {"time": 1418, "pitch": 78, "duration": 4, "velocity": 98}, {"time": 1422, "pitch": 81, "duration": 3, "velocity": 96}, {"time": 1426, "pitch": 85, "duration": 3, "velocity": 106}, {"time": 1430, "pitch": 85, "duration": 13, "velocity": 97}, {"time": 1449, "pitch": 83, "duration": 1, "velocity": 99}, {"time": 1450, "pitch": 85, "duration": 1, "velocity": 102}, {"time": 1451, "pitch": 83, "duration": 1, "velocity": 95}, {"time": 1451, "pitch": 81, "duration": 2, "velocity": 91}, {"time": 1452, "pitch": 83, "duration": 17, "velocity": 102}, {"time": 1465, "pitch": 68, "duration": 5, "velocity": 90}, {"time": 1471, "pitch": 76, "duration": 5, "velocity": 101}, {"time": 1474, "pitch": 83, "duration": 2, "velocity": 95}, {"time": 1476, "pitch": 81, "duration": 1, "velocity": 86}, {"time": 1477, "pitch": 76, "duration": 12, "velocity": 97}, {"time": 1477, "pitch": 80, "duration": 15, "velocity": 109}, {"time": 1495, "pitch": 64, "duration": 5, "velocity": 97}, {"time": 1501, "pitch": 69, "duration": 6, "velocity": 95}, {"time": 1511, "pitch": 69, "duration": 2, "velocity": 76}, {"time": 1512, "pitch": 74, "duration": 3, "velocity": 96}, {"time": 1513, "pitch": 78, "duration": 5, "velocity": 98}, {"time": 1518, "pitch": 81, "duration": 3, "velocity": 98}, {"time": 1522, "pitch": 85, "duration": 2, "velocity": 101}, {"time": 1526, "pitch": 85, "duration": 15, "velocity": 106}, {"time": 1537, "pitch": 69, "duration": 5, "velocity": 95}, {"time": 1543, "pitch": 71, "duration": 5, "velocity": 95}, {"time": 1545, "pitch": 83, "duration": 2, "velocity": 95}, {"time": 1547, "pitch": 85, "duration": 2, "velocity": 98}, {"time": 1549, "pitch": 83, "duration": 18, "velocity": 100}, {"time": 1549, "pitch": 73, "duration": 15, "velocity": 95}, {"time": 1567, "pitch": 71, "duration": 5, "velocity": 97}, {"time": 1570, "pitch": 83, "duration": 2, "velocity": 93}, {"time": 1571, "pitch": 81, "duration": 2, "velocity": 77}, {"time": 1572, "pitch": 80, "duration": 23, "velocity": 102}, {"time": 1573, "pitch": 68, "duration": 23, "velocity": 97}, {"time": 1609, "pitch": 78, "duration": 10, "velocity": 81}, {"time": 1612, "pitch": 73, "duration": 4, "velocity": 84}, {"time": 1615, "pitch": 69, "duration": 22, "velocity": 82}, {"time": 1618, "pitch": 73, "duration": 19, "velocity": 83}, {"time": 1639, "pitch": 69, "duration": 4, "velocity": 80}, {"time": 1642, "pitch": 71, "duration": 4, "velocity": 88}, {"time": 1645, "pitch": 69, "duration": 37, "velocity": 90}, {"time": 1645, "pitch": 73, "duration": 29, "velocity": 79}, {"time": 1687, "pitch": 73, "duration": 5, "velocity": 84}, {"time": 1693, "pitch": 74, "duration": 22, "velocity": 95}, {"time": 1717, "pitch": 73, "duration": 12, "velocity": 84}, {"time": 1729, "pitch": 71, "duration": 11, "velocity": 91}, {"time": 1741, "pitch": 73, "duration": 23, "velocity": 86}, {"time": 1765, "pitch": 76, "duration": 13, "velocity": 89}, {"time": 1777, "pitch": 73, "duration": 6, "velocity": 96}, {"time": 1780, "pitch": 68, "duration": 6, "velocity": 95}, {"time": 1783, "pitch": 64, "duration": 5, "velocity": 95}, {"time": 1789, "pitch": 66, "duration": 13, "velocity": 91}, {"time": 1837, "pitch": 68, "duration": 23, "velocity": 89}, {"time": 1885, "pitch": 66, "duration": 13, "velocity": 89}, {"time": 1897, "pitch": 69, "duration": 6, "velocity": 89}, {"time": 1903, "pitch": 66, "duration": 7, "velocity": 89}, {"time": 1909, "pitch": 68, "duration": 12, "velocity": 99}, {"time": 1921, "pitch": 64, "duration": 10, "velocity": 96}, {"time": 1933, "pitch": 66, "duration": 12, "velocity": 86}, {"time": 1945, "pitch": 69, "duration": 6, "velocity": 92}, {"time": 1951, "pitch": 66, "duration": 7, "velocity": 85}, {"time": 1957, "pitch": 68, "duration": 21, "velocity": 95}, {"time": 1981, "pitch": 85, "duration": 24, "velocity": 104}, {"time": 2005, "pitch": 83, "duration": 13, "velocity": 94}, {"time": 2017, "pitch": 85, "duration": 13, "velocity": 95}, {"time": 2029, "pitch": 83, "duration": 22, "velocity": 94}, {"time": 2053, "pitch": 85, "duration": 19, "velocity": 99}, {"time": 2077, "pitch": 81, "duration": 24, "velocity": 87}, {"time": 2113, "pitch": 81, "duration": 11, "velocity": 93}, {"time": 2125, "pitch": 78, "duration": 19, "velocity": 96}, {"time": 2143, "pitch": 81, "duration": 7, "velocity": 86}, {"time": 2149, "pitch": 80, "duration": 11, "velocity": 91}, {"time": 2161, "pitch": 76, "duration": 8, "velocity": 88}, {"time": 2161, "pitch": 80, "duration": 8, "velocity": 90}, {"time": 2173, "pitch": 85, "duration": 35, "velocity": 98}, {"time": 2209, "pitch": 85, "duration": 12, "velocity": 95}, {"time": 2221, "pitch": 83, "duration": 24, "velocity": 95}, {"time": 2245, "pitch": 85, "duration": 13, "velocity": 82}, {"time": 2257, "pitch": 83, "duration": 7, "velocity": 94}, {"time": 2263, "pitch": 81, "duration": 5, "velocity": 87}, {"time": 2269, "pitch": 85, "duration": 12, "velocity": 95}, {"time": 2281, "pitch": 81, "duration": 12, "velocity": 87}, {"time": 2293, "pitch": 83, "duration": 18, "velocity": 95}, {"time": 2311, "pitch": 81, "duration": 5, "velocity": 94}, {"time": 2317, "pitch": 80, "duration": 23, "velocity": 97}, {"time": 2341, "pitch": 78, "duration": 22, "velocity": 88}, {"time": 2356, "pitch": 73, "duration": 3, "velocity": 100}, {"time": 2359, "pitch": 76, "duration": 3, "velocity": 96}, {"time": 2362, "pitch": 78, "duration": 1, "velocity": 100}, {"time": 2365, "pitch": 78, "duration": 7, "velocity": 102}, {"time": 2373, "pitch": 78, "duration": 1, "velocity": 97}, {"time": 2375, "pitch": 76, "duration": 1, "velocity": 97}, {"time": 2377, "pitch": 78, "duration": 7, "velocity": 102}, {"time": 2386, "pitch": 78, "duration": 1, "velocity": 102}, {"time": 2387, "pitch": 76, "duration": 3, "velocity": 101}, {"time": 2390, "pitch": 78, "duration": 2, "velocity": 104}, {"time": 2393, "pitch": 81, "duration": 8, "velocity": 99}, {"time": 2404, "pitch": 73, "duration": 3, "velocity": 101}, {"time": 2407, "pitch": 76, "duration": 3, "velocity": 98}, {"time": 2410, "pitch": 78, "duration": 2, "velocity": 104}, {"time": 2413, "pitch": 77, "duration": 8, "velocity": 97}, {"time": 2422, "pitch": 77, "duration": 1, "velocity": 93}, {"time": 2423, "pitch": 76, "duration": 2, "velocity": 97}, {"time": 2425, "pitch": 77, "duration": 7, "velocity": 97}, {"time": 2433, "pitch": 77, "duration": 2, "velocity": 95}, {"time": 2435, "pitch": 76, "duration": 2, "velocity": 101}, {"time": 2437, "pitch": 77, "duration": 2, "velocity": 99}, {"time": 2439, "pitch": 81, "duration": 5, "velocity": 99}, {"time": 2452, "pitch": 76, "duration": 2, "velocity": 106}, {"time": 2455, "pitch": 81, "duration": 3, "velocity": 97}, {"time": 2458, "pitch": 83, "duration": 2, "velocity": 99}, {"time": 2461, "pitch": 85, "duration": 5, "velocity": 96}, {"time": 2467, "pitch": 85, "duration": 4, "velocity": 106}, {"time": 2473, "pitch": 85, "duration": 2, "velocity": 109}, {"time": 2475, "pitch": 85, "duration": 3, "velocity": 82}, {"time": 2477, "pitch": 83, "duration": 3, "velocity": 95}, {"time": 2478, "pitch": 76, "duration": 4, "velocity": 99}, {"time": 2482, "pitch": 81, "duration": 4, "velocity": 89}, {"time": 2488, "pitch": 79, "duration": 8, "velocity": 97}, {"time": 2497, "pitch": 78, "duration": 9, "velocity": 97}, {"time": 2509, "pitch": 85, "duration": 12, "velocity": 106}, {"time": 2524, "pitch": 81, "duration": 2, "velocity": 100}, {"time": 2526, "pitch": 76, "duration": 2, "velocity": 99}, {"time": 2527, "pitch": 81, "duration": 3, "velocity": 91}, {"time": 2530, "pitch": 90, "duration": 3, "velocity": 104}, {"time": 2533, "pitch": 88, "duration": 11, "velocity": 106}, {"time": 2545, "pitch": 81, "duration": 7, "velocity": 101}, {"time": 2551, "pitch": 83, "duration": 3, "velocity": 100}, {"time": 2554, "pitch": 81, "duration": 3, "velocity": 95}, {"time": 2557, "pitch": 85, "duration": 13, "velocity": 99}, {"time": 2572, "pitch": 85, "duration": 3, "velocity": 102}, {"time": 2575, "pitch": 83, "duration": 2, "velocity": 95}, {"time": 2578, "pitch": 81, "duration": 3, "velocity": 94}, {"time": 2581, "pitch": 83, "duration": 22, "velocity": 104}, {"time": 2605, "pitch": 85, "duration": 24, "velocity": 104}, {"time": 2629, "pitch": 83, "duration": 13, "velocity": 94}, {"time": 2641, "pitch": 85, "duration": 13, "velocity": 95}, {"time": 2653, "pitch": 83, "duration": 22, "velocity": 94}, {"time": 2677, "pitch": 85, "duration": 19, "velocity": 99}, {"time": 2701, "pitch": 81, "duration": 24, "velocity": 87}, {"time": 2737, "pitch": 81, "duration": 11, "velocity": 93}, {"time": 2749, "pitch": 78, "duration": 19, "velocity": 96}, {"time": 2767, "pitch": 81, "duration": 7, "velocity": 86}, {"time": 2773, "pitch": 80, "duration": 11, "velocity": 91}, {"time": 2785, "pitch": 76, "duration": 8, "velocity": 88}, {"time": 2785, "pitch": 80, "duration": 8, "velocity": 90}, {"time": 2797, "pitch": 85, "duration": 35, "velocity": 98}, {"time": 2833, "pitch": 85, "duration": 12, "velocity": 95}, {"time": 2845, "pitch": 83, "duration": 24, "velocity": 95}, {"time": 2869, "pitch": 85, "duration": 13, "velocity": 82}, {"time": 2881, "pitch": 83, "duration": 7, "velocity": 94}, {"time": 2887, "pitch": 81, "duration": 5, "velocity": 87}, {"time": 2893, "pitch": 85, "duration": 12, "velocity": 95}, {"time": 2905, "pitch": 81, "duration": 12, "velocity": 87}, {"time": 2917, "pitch": 83, "duration": 18, "velocity": 95}, {"time": 2935, "pitch": 81, "duration": 5, "velocity": 94}, {"time": 2941, "pitch": 80, "duration": 23, "velocity": 97}, {"time": 2965, "pitch": 78, "duration": 22, "velocity": 88}, {"time": 2980, "pitch": 73, "duration": 3, "velocity": 99}, {"time": 2983, "pitch": 76, "duration": 3, "velocity": 99}, {"time": 2986, "pitch": 78, "duration": 1, "velocity": 98}, {"time": 2992, "pitch": 85, "duration": 3, "velocity": 83}, {"time": 2995, "pitch": 88, "duration": 4, "velocity": 92}, {"time": 2998, "pitch": 90, "duration": 2, "velocity": 98}, {"time": 3001, "pitch": 90, "duration": 10, "velocity": 94}, {"time": 3031, "pitch": 76, "duration": 3, "velocity": 100}, {"time": 3034, "pitch": 73, "duration": 3, "velocity": 101}, {"time": 3037, "pitch": 71, "duration": 6, "velocity": 100}, {"time": 3043, "pitch": 69, "duration": 3, "velocity": 96}, {"time": 3046, "pitch": 73, "duration": 9, "velocity": 101}, {"time": 3055, "pitch": 71, "duration": 4, "velocity": 96}, {"time": 3058, "pitch": 69, "duration": 3, "velocity": 96}, {"time": 3061, "pitch": 68, "duration": 7, "velocity": 95}, {"time": 3067, "pitch": 69, "duration": 4, "velocity": 96}, {"time": 3070, "pitch": 71, "duration": 9, "velocity": 97}, {"time": 3079, "pitch": 64, "duration": 6, "velocity": 96}, {"time": 3085, "pitch": 76, "duration": 13, "velocity": 102}, {"time": 3097, "pitch": 74, "duration": 13, "velocity": 97}, {"time": 3109, "pitch": 73, "duration": 18, "velocity": 97}, {"time": 3127, "pitch": 71, "duration": 6, "velocity": 98}, {"time": 3133, "pitch": 73, "duration": 1, "velocity": 99}, {"time": 3134, "pitch": 74, "duration": 2, "velocity": 97}, {"time": 3136, "pitch": 73, "duration": 15, "velocity": 101}, {"time": 3151, "pitch": 71, "duration": 2, "velocity": 100}, {"time": 3153, "pitch": 69, "duration": 4, "velocity": 95}, {"time": 3156, "pitch": 68, "duration": 24, "velocity": 99}]}, {"program": 0, "is_drum": false, "name": "PIANO", "notes": [{"time": 13, "pitch": 42, "duration": 24, "velocity": 96}, {"time": 19, "pitch": 49, "duration": 18, "velocity": 83}, {"time": 19, "pitch": 61, "duration": 4, "velocity": 94}, {"time": 22, "pitch": 66, "duration": 4, "velocity": 86}, {"time": 25, "pitch": 54, "duration": 12, "velocity": 90}, {"time": 25, "pitch": 57, "duration": 12, "velocity": 88}, {"time": 25, "pitch": 68, "duration": 3, "velocity": 86}, {"time": 28, "pitch": 69, "duration": 4, "velocity": 94}, {"time": 31, "pitch": 61, "duration": 6, "velocity": 85}, {"time": 31, "pitch": 73, "duration": 4, "velocity": 98}, {"time": 34, "pitch": 78, "duration": 4, "velocity": 88}, {"time": 37, "pitch": 40, "duration": 22, "velocity": 97}, {"time": 37, "pitch": 76, "duration": 15, "velocity": 96}, {"time": 43, "pitch": 47, "duration": 16, "velocity": 84}, {"time": 49, "pitch": 56, "duration": 13, "velocity": 90}, {"time": 49, "pitch": 59, "duration": 13, "velocity": 89}, {"time": 55, "pitch": 52, "duration": 6, "velocity": 85}, {"time": 61, "pitch": 38, "duration": 24, "velocity": 95}, {"time": 61, "pitch": 57, "duration": 4, "velocity": 83}, {"time": 61, "pitch": 62, "duration": 24, "velocity": 89}, {"time": 67, "pitch": 45, "duration": 18, "velocity": 77}, {"time": 73, "pitch": 50, "duration": 11, "velocity": 90}, {"time": 79, "pitch": 54, "duration": 6, "velocity": 87}, {"time": 85, "pitch": 40, "duration": 17, "velocity": 94}, {"time": 85, "pitch": 59, "duration": 13, "velocity": 90}, {"time": 91, "pitch": 47, "duration": 11, "velocity": 87}, {"time": 97, "pitch": 56, "duration": 6, "velocity": 101}, {"time": 103, "pitch": 52, "duration": 2, "velocity": 96}, {"time": 109, "pitch": 42, "duration": 23, "velocity": 93}, {"time": 109, "pitch": 54, "duration": 13, "velocity": 83}, {"time": 109, "pitch": 57, "duration": 15, "velocity": 89}, {"time": 115, "pitch": 49, "duration": 17, "velocity": 84}, {"time": 121, "pitch": 61, "duration": 13, "velocity": 90}, {"time": 127, "pitch": 54, "duration": 7, "velocity": 96}, {"time": 133, "pitch": 47, "duration": 10, "velocity": 96}, {"time": 133, "pitch": 59, "duration": 9, "velocity": 89}, {"time": 133, "pitch": 62, "duration": 8, "velocity": 93}, {"time": 133, "pitch": 66, "duration": 8, "velocity": 90}, {"time": 145, "pitch": 45, "duration": 10, "velocity": 97}, {"time": 145, "pitch": 57, "duration": 8, "velocity": 85}, {"time": 145, "pitch": 64, "duration": 12, "velocity": 97}, {"time": 157, "pitch": 43, "duration": 24, "velocity": 89}, {"time": 157, "pitch": 55, "duration": 8, "velocity": 81}, {"time": 157, "pitch": 59, "duration": 7, "velocity": 84}, {"time": 157, "pitch": 62, "duration": 8, "velocity": 90}, {"time": 163, "pitch": 50, "duration": 9, "velocity": 84}, {"time": 169, "pitch": 55, "duration": 12, "velocity": 91}, {"time": 169, "pitch": 59, "duration": 12, "velocity": 91}, {"time": 169, "pitch": 62, "duration": 12, "velocity": 94}, {"time": 175, "pitch": 50, "duration": 6, "velocity": 83}, {"time": 181, "pitch": 44, "duration": 21, "velocity": 96}, {"time": 184, "pitch": 47, "duration": 15, "velocity": 84}, {"time": 187, "pitch": 50, "duration": 15, "velocity": 87}, {"time": 190, "pitch": 56, "duration": 7, "velocity": 87}, {"time": 193, "pitch": 59, "duration": 4, "velocity": 87}, {"time": 196, "pitch": 62, "duration": 10, "velocity": 92}, {"time": 199, "pitch": 56, "duration": 6, "velocity": 82}, {"time": 205, "pitch": 49, "duration": 21, "velocity": 102}, {"time": 208, "pitch": 56, "duration": 8, "velocity": 71}, {"time": 211, "pitch": 61, "duration": 7, "velocity": 96}, {"time": 214, "pitch": 68, "duration": 4, "velocity": 93}, {"time": 217, "pitch": 56, "duration": 11, "velocity": 82}, {"time": 220, "pitch": 61, "duration": 8, "velocity": 78}, {"time": 220, "pitch": 65, "duration": 7, "velocity": 77}, {"time": 223, "pitch": 68, "duration": 5, "velocity": 86}, {"time": 229, "pitch": 49, "duration": 19, "velocity": 85}, {"time": 229, "pitch": 56, "duration": 19, "velocity": 88}, {"time": 229, "pitch": 61, "duration": 10, "velocity": 84}, {"time": 229, "pitch": 65, "duration": 9, "velocity": 92}, {"time": 229, "pitch": 68, "duration": 9, "velocity": 86}, {"time": 229, "pitch": 73, "duration": 9, "velocity": 87}, {"time": 241, "pitch": 61, "duration": 1, "velocity": 73}, {"time": 241, "pitch": 65, "duration": 11, "velocity": 88}, {"time": 241, "pitch": 68, "duration": 11, "velocity": 83}, {"time": 241, "pitch": 73, "duration": 3, "velocity": 49}, {"time": 253, "pitch": 42, "duration": 40, "velocity": 97}, {"time": 253, "pitch": 61, "duration": 10, "velocity": 91}, {"time": 259, "pitch": 49, "duration": 34, "velocity": 81}, {"time": 265, "pitch": 61, "duration": 6, "velocity": 99}, {"time": 265, "pitch": 66, "duration": 6, "velocity": 94}, {"time": 277, "pitch": 57, "duration": 2, "velocity": 76}, {"time": 277, "pitch": 61, "duration": 7, "velocity": 84}, {"time": 283, "pitch": 57, "duration": 3, "velocity": 83}, {"time": 289, "pitch": 57, "duration": 2, "velocity": 92}, {"time": 289, "pitch": 61, "duration": 4, "velocity": 99}, {"time": 289, "pitch": 66, "duration": 4, "velocity": 90}, {"time": 301, "pitch": 40, "duration": 38, "velocity": 98}, {"time": 301, "pitch": 52, "duration": 13, "velocity": 91}, {"time": 301, "pitch": 59, "duration": 9, "velocity": 91}, {"time": 307, "pitch": 47, "duration": 32, "velocity": 82}, {"time": 313, "pitch": 56, "duration": 5, "velocity": 91}, {"time": 313, "pitch": 59, "duration": 6, "velocity": 90}, {"time": 313, "pitch": 64, "duration": 6, "velocity": 96}, {"time": 325, "pitch": 56, "duration": 5, "velocity": 97}, {"time": 331, "pitch": 52, "duration": 4, "velocity": 82}, {"time": 337, "pitch": 56, "duration": 2, "velocity": 97}, {"time": 337, "pitch": 59, "duration": 2, "velocity": 95}, {"time": 337, "pitch": 64, "duration": 4, "velocity": 97}, {"time": 349, "pitch": 47, "duration": 40, "velocity": 96}, {"time": 349, "pitch": 59, "duration": 13, "velocity": 91}, {"time": 349, "pitch": 62, "duration": 10, "velocity": 92}, {"time": 355, "pitch": 54, "duration": 10, "velocity": 81}, {"time": 361, "pitch": 66, "duration": 5, "velocity": 99}, {"time": 367, "pitch": 54, "duration": 9, "velocity": 76}, {"time": 373, "pitch": 59, "duration": 7, "velocity": 90}, {"time": 373, "pitch": 62, "duration": 6, "velocity": 91}, {"time": 379, "pitch": 54, "duration": 8, "velocity": 60}, {"time": 385, "pitch": 59, "duration": 2, "velocity": 94}, {"time": 385, "pitch": 62, "duration": 1, "velocity": 93}, {"time": 385, "pitch": 66, "duration": 2, "velocity": 94}, {"time": 397, "pitch": 37, "duration": 38, "velocity": 94}, {"time": 397, "pitch": 61, "duration": 10, "velocity": 89}, {"time": 397, "pitch": 68, "duration": 8, "velocity": 90}, {"time": 403, "pitch": 44, "duration": 32, "velocity": 76}, {"time": 409, "pitch": 61, "duration": 3, "velocity": 89}, {"time": 409, "pitch": 64, "duration": 6, "velocity": 96}, {"time": 415, "pitch": 61, "duration": 3, "velocity": 89}, {"time": 421, "pitch": 61, "duration": 4, "velocity": 95}, {"time": 421, "pitch": 68, "duration": 6, "velocity": 88}, {"time": 433, "pitch": 61, "duration": 2, "velocity": 96}, {"time": 433, "pitch": 64, "duration": 1, "velocity": 101}, {"time": 433, "pitch": 68, "duration": 2, "velocity": 97}, {"time": 445, "pitch": 42, "duration": 39, "velocity": 95}, {"time": 445, "pitch": 57, "duration": 10, "velocity": 86}, {"time": 445, "pitch": 61, "duration": 9, "velocity": 88}, {"time": 451, "pitch": 49, "duration": 33, "velocity": 83}, {"time": 457, "pitch": 66, "duration": 7, "velocity": 100}, {"time": 463, "pitch": 57, "duration": 4, "velocity": 98}, {"time": 469, "pitch": 57, "duration": 4, "velocity": 95}, {"time": 469, "pitch": 61, "duration": 5, "velocity": 91}, {"time": 481, "pitch": 57, "duration": 2, "velocity": 96}, {"time": 481, "pitch": 61, "duration": 2, "velocity": 100}, {"time": 481, "pitch": 66, "duration": 3, "velocity": 94}, {"time": 493, "pitch": 40, "duration": 43, "velocity": 95}, {"time": 493, "pitch": 59, "duration": 9, "velocity": 90}, {"time": 493, "pitch": 68, "duration": 10, "velocity": 94}, {"time": 499, "pitch": 47, "duration": 36, "velocity": 82}, {"time": 505, "pitch": 64, "duration": 7, "velocity": 97}, {"time": 511, "pitch": 59, "duration": 4, "velocity": 90}, {"time": 517, "pitch": 59, "duration": 9, "velocity": 92}, {"time": 517, "pitch": 64, "duration": 9, "velocity": 95}, {"time": 517, "pitch": 68, "duration": 8, "velocity": 87}, {"time": 529, "pitch": 59, "duration": 4, "velocity": 96}, {"time": 529, "pitch": 64, "duration": 4, "velocity": 97}, {"time": 529, "pitch": 68, "duration": 4, "velocity": 96}, {"time": 541, "pitch": 38, "duration": 16, "velocity": 98}, {"time": 541, "pitch": 62, "duration": 8, "velocity": 95}, {"time": 541, "pitch": 66, "duration": 8, "velocity": 88}, {"time": 547, "pitch": 57, "duration": 5, "velocity": 79}, {"time": 553, "pitch": 57, "duration": 4, "velocity": 95}, {"time": 553, "pitch": 62, "duration": 5, "velocity": 97}, {"time": 553, "pitch": 66, "duration": 6, "velocity": 94}, {"time": 565, "pitch": 49, "duration": 14, "velocity": 97}, {"time": 565, "pitch": 61, "duration": 9, "velocity": 91}, {"time": 565, "pitch": 64, "duration": 9, "velocity": 97}, {"time": 571, "pitch": 56, "duration": 8, "velocity": 85}, {"time": 577, "pitch": 61, "duration": 3, "velocity": 96}, {"time": 577, "pitch": 64, "duration": 2, "velocity": 98}, {"time": 577, "pitch": 68, "duration": 3, "velocity": 91}, {"time": 589, "pitch": 47, "duration": 19, "velocity": 95}, {"time": 589, "pitch": 59, "duration": 10, "velocity": 89}, {"time": 589, "pitch": 62, "duration": 10, "velocity": 91}, {"time": 589, "pitch": 66, "duration": 9, "velocity": 88}, {"time": 595, "pitch": 54, "duration": 11, "velocity": 85}, {"time": 601, "pitch": 62, "duration": 7, "velocity": 96}, {"time": 607, "pitch": 59, "duration": 7, "velocity": 98}, {"time": 613, "pitch": 40, "duration": 24, "velocity": 96}, {"time": 613, "pitch": 64, "duration": 16, "velocity": 94}, {"time": 619, "pitch": 47, "duration": 18, "velocity": 89}, {"time": 625, "pitch": 56, "duration": 3, "velocity": 106}, {"time": 628, "pitch": 52, "duration": 3, "velocity": 97}, {"time": 631, "pitch": 59, "duration": 6, "velocity": 96}, {"time": 631, "pitch": 64, "duration": 1, "velocity": 58}, {"time": 634, "pitch": 52, "duration": 3, "velocity": 94}, {"time": 637, "pitch": 42, "duration": 22, "velocity": 98}, {"time": 637, "pitch": 61, "duration": 7, "velocity": 102}, {"time": 640, "pitch": 49, "duration": 19, "velocity": 81}, {"time": 643, "pitch": 57, "duration": 7, "velocity": 93}, {"time": 646, "pitch": 61, "duration": 6, "velocity": 100}, {"time": 652, "pitch": 66, "duration": 4, "velocity": 101}, {"time": 655, "pitch": 57, "duration": 3, "velocity": 85}, {"time": 661, "pitch": 42, "duration": 17, "velocity": 94}, {"time": 661, "pitch": 57, "duration": 9, "velocity": 84}, {"time": 661, "pitch": 61, "duration": 8, "velocity": 86}, {"time": 673, "pitch": 57, "duration": 11, "velocity": 95}, {"time": 673, "pitch": 61, "duration": 11, "velocity": 104}, {"time": 673, "pitch": 66, "duration": 11, "velocity": 96}, {"time": 685, "pitch": 45, "duration": 41, "velocity": 97}, {"time": 688, "pitch": 52, "duration": 37, "velocity": 92}, {"time": 691, "pitch": 57, "duration": 5, "velocity": 98}, {"time": 694, "pitch": 61, "duration": 3, "velocity": 100}, {"time": 700, "pitch": 57, "duration": 3, "velocity": 91}, {"time": 700, "pitch": 61, "duration": 4, "velocity": 102}, {"time": 700, "pitch": 64, "duration": 4, "velocity": 97}, {"time": 709, "pitch": 57, "duration": 3, "velocity": 89}, {"time": 709, "pitch": 61, "duration": 3, "velocity": 90}, {"time": 718, "pitch": 57, "duration": 1, "velocity": 67}, {"time": 721, "pitch": 57, "duration": 4, "velocity": 95}, {"time": 721, "pitch": 61, "duration": 4, "velocity": 102}, {"time": 721, "pitch": 64, "duration": 4, "velocity": 97}, {"time": 733, "pitch": 47, "duration": 41, "velocity": 99}, {"time": 736, "pitch": 54, "duration": 36, "velocity": 92}, {"time": 739, "pitch": 59, "duration": 5, "velocity": 96}, {"time": 742, "pitch": 62, "duration": 4, "velocity": 96}, {"time": 748, "pitch": 59, "duration": 3, "velocity": 79}, {"time": 748, "pitch": 62, "duration": 3, "velocity": 95}, {"time": 748, "pitch": 66, "duration": 3, "velocity": 96}, {"time": 757, "pitch": 59, "duration": 8, "velocity": 83}, {"time": 757, "pitch": 62, "duration": 7, "velocity": 88}, {"time": 769, "pitch": 59, "duration": 5, "velocity": 94}, {"time": 769, "pitch": 62, "duration": 4, "velocity": 96}, {"time": 769, "pitch": 66, "duration": 4, "velocity": 95}, {"time": 781, "pitch": 49, "duration": 16, "velocity": 100}, {"time": 781, "pitch": 61, "duration": 2, "velocity": 93}, {"time": 781, "pitch": 64, "duration": 2, "velocity": 93}, {"time": 784, "pitch": 56, "duration": 13, "velocity": 86}, {"time": 787, "pitch": 61, "duration": 7, "velocity": 88}, {"time": 790, "pitch": 64, "duration": 5, "velocity": 94}, {"time": 796, "pitch": 68, "duration": 4, "velocity": 101}, {"time": 799, "pitch": 61, "duration": 5, "velocity": 86}, {"time": 805, "pitch": 37, "duration": 23, "velocity": 93}, {"time": 805, "pitch": 61, "duration": 8, "velocity": 89}, {"time": 805, "pitch": 64, "duration": 7, "velocity": 96}, {"time": 811, "pitch": 44, "duration": 8, "velocity": 70}, {"time": 817, "pitch": 61, "duration": 4, "velocity": 96}, {"time": 817, "pitch": 64, "duration": 6, "velocity": 101}, {"time": 817, "pitch": 68, "duration": 7, "velocity": 97}, {"time": 820, "pitch": 44, "duration": 8, "velocity": 88}, {"time": 823, "pitch": 61, "duration": 5, "velocity": 92}, {"time": 826, "pitch": 64, "duration": 2, "velocity": 95}, {"time": 829, "pitch": 42, "duration": 23, "velocity": 98}, {"time": 829, "pitch": 57, "duration": 4, "velocity": 94}, {"time": 829, "pitch": 66, "duration": 7, "velocity": 89}, {"time": 832, "pitch": 49, "duration": 20, "velocity": 83}, {"time": 835, "pitch": 57, "duration": 4, "velocity": 88}, {"time": 838, "pitch": 61, "duration": 4, "velocity": 104}, {"time": 844, "pitch": 57, "duration": 3, "velocity": 93}, {"time": 844, "pitch": 61, "duration": 4, "velocity": 106}, {"time": 844, "pitch": 66, "duration": 6, "velocity": 96}, {"time": 853, "pitch": 42, "duration": 16, "velocity": 92}, {"time": 853, "pitch": 57, "duration": 9, "velocity": 91}, {"time": 853, "pitch": 61, "duration": 8, "velocity": 91}, {"time": 865, "pitch": 57, "duration": 3, "velocity": 95}, {"time": 865, "pitch": 61, "duration": 4, "velocity": 111}, {"time": 865, "pitch": 66, "duration": 6, "velocity": 98}, {"time": 868, "pitch": 49, "duration": 2, "velocity": 95}, {"time": 871, "pitch": 57, "duration": 2, "velocity": 97}, {"time": 877, "pitch": 40, "duration": 23, "velocity": 96}, {"time": 877, "pitch": 59, "duration": 4, "velocity": 87}, {"time": 877, "pitch": 64, "duration": 6, "velocity": 96}, {"time": 880, "pitch": 47, "duration": 19, "velocity": 93}, {"time": 883, "pitch": 59, "duration": 4, "velocity": 91}, {"time": 886, "pitch": 64, "duration": 3, "velocity": 95}, {"time": 892, "pitch": 59, "duration": 2, "velocity": 96}, {"time": 892, "pitch": 68, "duration": 3, "velocity": 96}, {"time": 901, "pitch": 40, "duration": 16, "velocity": 93}, {"time": 901, "pitch": 59, "duration": 10, "velocity": 91}, {"time": 901, "pitch": 64, "duration": 10, "velocity": 96}, {"time": 910, "pitch": 47, "duration": 6, "velocity": 82}, {"time": 913, "pitch": 59, "duration": 6, "velocity": 98}, {"time": 916, "pitch": 64, "duration": 3, "velocity": 97}, {"time": 919, "pitch": 68, "duration": 1, "velocity": 97}, {"time": 925, "pitch": 50, "duration": 18, "velocity": 98}, {"time": 925, "pitch": 57, "duration": 2, "velocity": 87}, {"time": 925, "pitch": 62, "duration": 4, "velocity": 91}, {"time": 928, "pitch": 57, "duration": 5, "velocity": 88}, {"time": 931, "pitch": 62, "duration": 2, "velocity": 90}, {"time": 934, "pitch": 57, "duration": 8, "velocity": 89}, {"time": 934, "pitch": 62, "duration": 8, "velocity": 97}, {"time": 934, "pitch": 66, "duration": 9, "velocity": 96}, {"time": 949, "pitch": 49, "duration": 13, "velocity": 104}, {"time": 949, "pitch": 61, "duration": 4, "velocity": 93}, {"time": 949, "pitch": 64, "duration": 6, "velocity": 98}, {"time": 952, "pitch": 56, "duration": 10, "velocity": 83}, {"time": 955, "pitch": 61, "duration": 6, "velocity": 91}, {"time": 958, "pitch": 64, "duration": 4, "velocity": 91}, {"time": 964, "pitch": 61, "duration": 2, "velocity": 94}, {"time": 964, "pitch": 64, "duration": 2, "velocity": 98}, {"time": 964, "pitch": 68, "duration": 2, "velocity": 96}, {"time": 973, "pitch": 47, "duration": 17, "velocity": 98}, {"time": 973, "pitch": 59, "duration": 7, "velocity": 95}, {"time": 973, "pitch": 62, "duration": 7, "velocity": 96}, {"time": 973, "pitch": 66, "duration": 12, "velocity": 95}, {"time": 979, "pitch": 54, "duration": 10, "velocity": 85}, {"time": 982, "pitch": 59, "duration": 5, "velocity": 97}, {"time": 988, "pitch": 59, "duration": 2, "velocity": 98}, {"time": 988, "pitch": 62, "duration": 2, "velocity": 97}, {"time": 997, "pitch": 52, "duration": 24, "velocity": 96}, {"time": 997, "pitch": 64, "duration": 9, "velocity": 90}, {"time": 997, "pitch": 76, "duration": 9, "velocity": 91}, {"time": 1006, "pitch": 59, "duration": 5, "velocity": 97}, {"time": 1009, "pitch": 64, "duration": 8, "velocity": 102}, {"time": 1009, "pitch": 68, "duration": 11, "velocity": 104}, {"time": 1009, "pitch": 71, "duration": 13, "velocity": 100}, {"time": 1012, "pitch": 56, "duration": 4, "velocity": 95}, {"time": 1015, "pitch": 59, "duration": 6, "velocity": 97}, {"time": 1018, "pitch": 64, "duration": 3, "velocity": 95}, {"time": 1021, "pitch": 42, "duration": 17, "velocity": 96}, {"time": 1021, "pitch": 66, "duration": 7, "velocity": 101}, {"time": 1024, "pitch": 49, "duration": 14, "velocity": 79}, {"time": 1027, "pitch": 57, "duration": 7, "velocity": 96}, {"time": 1030, "pitch": 61, "duration": 4, "velocity": 106}, {"time": 1036, "pitch": 61, "duration": 5, "velocity": 97}, {"time": 1036, "pitch": 66, "duration": 7, "velocity": 96}, {"time": 1042, "pitch": 57, "duration": 2, "velocity": 78}, {"time": 1045, "pitch": 50, "duration": 16, "velocity": 97}, {"time": 1045, "pitch": 57, "duration": 2, "velocity": 95}, {"time": 1045, "pitch": 62, "duration": 4, "velocity": 99}, {"time": 1048, "pitch": 57, "duration": 5, "velocity": 90}, {"time": 1051, "pitch": 62, "duration": 2, "velocity": 90}, {"time": 1054, "pitch": 62, "duration": 1, "velocity": 84}, {"time": 1054, "pitch": 66, "duration": 6, "velocity": 104}, {"time": 1060, "pitch": 62, "duration": 2, "velocity": 95}, {"time": 1069, "pitch": 40, "duration": 17, "velocity": 97}, {"time": 1069, "pitch": 59, "duration": 3, "velocity": 92}, {"time": 1069, "pitch": 64, "duration": 6, "velocity": 96}, {"time": 1072, "pitch": 47, "duration": 14, "velocity": 89}, {"time": 1075, "pitch": 59, "duration": 5, "velocity": 93}, {"time": 1078, "pitch": 64, "duration": 2, "velocity": 92}, {"time": 1084, "pitch": 59, "duration": 3, "velocity": 93}, {"time": 1084, "pitch": 64, "duration": 3, "velocity": 101}, {"time": 1084, "pitch": 68, "duration": 3, "velocity": 95}, {"time": 1093, "pitch": 45, "duration": 19, "velocity": 96}, {"time": 1093, "pitch": 57, "duration": 3, "velocity": 91}, {"time": 1093, "pitch": 61, "duration": 6, "velocity": 95}, {"time": 1093, "pitch": 64, "duration": 10, "velocity": 97}, {"time": 1096, "pitch": 52, "duration": 13, "velocity": 85}, {"time": 1099, "pitch": 57, "duration": 7, "velocity": 90}, {"time": 1102, "pitch": 61, "duration": 4, "velocity": 102}, {"time": 1108, "pitch": 57, "duration": 2, "velocity": 95}, {"time": 1108, "pitch": 61, "duration": 4, "velocity": 101}, {"time": 1108, "pitch": 64, "duration": 4, "velocity": 101}, {"time": 1111, "pitch": 52, "duration": 2, "velocity": 96}, {"time": 1117, "pitch": 42, "duration": 16, "velocity": 100}, {"time": 1117, "pitch": 57, "duration": 1, "velocity": 90}, {"time": 1117, "pitch": 61, "duration": 7, "velocity": 97}, {"time": 1120, "pitch": 49, "duration": 13, "velocity": 89}, {"time": 1123, "pitch": 57, "duration": 9, "velocity": 96}, {"time": 1126, "pitch": 61, "duration": 6, "velocity": 97}, {"time": 1132, "pitch": 66, "duration": 5, "velocity": 99}, {"time": 1135, "pitch": 61, "duration": 3, "velocity": 82}, {"time": 1138, "pitch": 57, "duration": 1, "velocity": 88}, {"time": 1141, "pitch": 50, "duration": 18, "velocity": 96}, {"time": 1141, "pitch": 57, "duration": 2, "velocity": 91}, {"time": 1141, "pitch": 62, "duration": 4, "velocity": 94}, {"time": 1144, "pitch": 57, "duration": 5, "velocity": 87}, {"time": 1147, "pitch": 62, "duration": 4, "velocity": 90}, {"time": 1150, "pitch": 66, "duration": 6, "velocity": 97}, {"time": 1156, "pitch": 62, "duration": 2, "velocity": 97}, {"time": 1165, "pitch": 47, "duration": 16, "velocity": 98}, {"time": 1165, "pitch": 59, "duration": 4, "velocity": 92}, {"time": 1165, "pitch": 62, "duration": 7, "velocity": 96}, {"time": 1165, "pitch": 66, "duration": 9, "velocity": 90}, {"time": 1171, "pitch": 59, "duration": 5, "velocity": 94}, {"time": 1174, "pitch": 62, "duration": 4, "velocity": 95}, {"time": 1177, "pitch": 54, "duration": 4, "velocity": 96}, {"time": 1180, "pitch": 59, "duration": 2, "velocity": 95}, {"time": 1180, "pitch": 62, "duration": 5, "velocity": 98}, {"time": 1180, "pitch": 66, "duration": 6, "velocity": 95}, {"time": 1186, "pitch": 59, "duration": 2, "velocity": 85}, {"time": 1189, "pitch": 40, "duration": 18, "velocity": 99}, {"time": 1189, "pitch": 59, "duration": 3, "velocity": 95}, {"time": 1189, "pitch": 64, "duration": 5, "velocity": 99}, {"time": 1192, "pitch": 47, "duration": 14, "velocity": 94}, {"time": 1195, "pitch": 59, "duration": 2, "velocity": 91}, {"time": 1198, "pitch": 59, "duration": 4, "velocity": 97}, {"time": 1198, "pitch": 64, "duration": 4, "velocity": 101}, {"time": 1204, "pitch": 59, "duration": 2, "velocity": 96}, {"time": 1204, "pitch": 64, "duration": 4, "velocity": 100}, {"time": 1204, "pitch": 68, "duration": 6, "velocity": 101}, {"time": 1207, "pitch": 59, "duration": 6, "velocity": 95}, {"time": 1213, "pitch": 42, "duration": 17, "velocity": 96}, {"time": 1213, "pitch": 66, "duration": 7, "velocity": 101}, {"time": 1216, "pitch": 49, "duration": 14, "velocity": 79}, {"time": 1219, "pitch": 57, "duration": 7, "velocity": 96}, {"time": 1222, "pitch": 61, "duration": 4, "velocity": 106}, {"time": 1228, "pitch": 61, "duration": 5, "velocity": 97}, {"time": 1228, "pitch": 66, "duration": 7, "velocity": 96}, {"time": 1234, "pitch": 57, "duration": 2, "velocity": 78}, {"time": 1237, "pitch": 50, "duration": 16, "velocity": 97}, {"time": 1237, "pitch": 57, "duration": 2, "velocity": 95}, {"time": 1237, "pitch": 62, "duration": 4, "velocity": 99}, {"time": 1240, "pitch": 57, "duration": 5, "velocity": 90}, {"time": 1243, "pitch": 62, "duration": 2, "velocity": 90}, {"time": 1246, "pitch": 62, "duration": 1, "velocity": 84}, {"time": 1246, "pitch": 66, "duration": 6, "velocity": 104}, {"time": 1252, "pitch": 62, "duration": 2, "velocity": 95}, {"time": 1261, "pitch": 40, "duration": 17, "velocity": 97}, {"time": 1261, "pitch": 59, "duration": 3, "velocity": 92}, {"time": 1261, "pitch": 64, "duration": 6, "velocity": 96}, {"time": 1264, "pitch": 47, "duration": 14, "velocity": 89}, {"time": 1267, "pitch": 59, "duration": 5, "velocity": 93}, {"time": 1270, "pitch": 64, "duration": 2, "velocity": 92}, {"time": 1276, "pitch": 59, "duration": 3, "velocity": 93}, {"time": 1276, "pitch": 64, "duration": 3, "velocity": 101}, {"time": 1276, "pitch": 68, "duration": 3, "velocity": 95}, {"time": 1285, "pitch": 37, "duration": 23, "velocity": 96}, {"time": 1285, "pitch": 61, "duration": 3, "velocity": 90}, {"time": 1285, "pitch": 64, "duration": 5, "velocity": 99}, {"time": 1288, "pitch": 44, "duration": 14, "velocity": 95}, {"time": 1291, "pitch": 61, "duration": 5, "velocity": 92}, {"time": 1294, "pitch": 64, "duration": 5, "velocity": 99}, {"time": 1300, "pitch": 61, "duration": 4, "velocity": 99}, {"time": 1300, "pitch": 64, "duration": 7, "velocity": 106}, {"time": 1300, "pitch": 68, "duration": 9, "velocity": 97}, {"time": 1303, "pitch": 44, "duration": 6, "velocity": 90}, {"time": 1306, "pitch": 61, "duration": 3, "velocity": 95}, {"time": 1309, "pitch": 38, "duration": 20, "velocity": 98}, {"time": 1309, "pitch": 57, "duration": 3, "velocity": 92}, {"time": 1309, "pitch": 62, "duration": 5, "velocity": 95}, {"time": 1312, "pitch": 45, "duration": 15, "velocity": 91}, {"time": 1315, "pitch": 57, "duration": 5, "velocity": 99}, {"time": 1318, "pitch": 62, "duration": 4, "velocity": 101}, {"time": 1324, "pitch": 57, "duration": 2, "velocity": 96}, {"time": 1324, "pitch": 62, "duration": 4, "velocity": 100}, {"time": 1324, "pitch": 66, "duration": 7, "velocity": 97}, {"time": 1327, "pitch": 57, "duration": 5, "velocity": 91}, {"time": 1330, "pitch": 62, "duration": 3, "velocity": 96}, {"time": 1333, "pitch": 47, "duration": 17, "velocity": 96}, {"time": 1333, "pitch": 59, "duration": 4, "velocity": 96}, {"time": 1333, "pitch": 66, "duration": 7, "velocity": 97}, {"time": 1336, "pitch": 54, "duration": 7, "velocity": 95}, {"time": 1339, "pitch": 59, "duration": 2, "velocity": 99}, {"time": 1342, "pitch": 59, "duration": 5, "velocity": 97}, {"time": 1342, "pitch": 62, "duration": 5, "velocity": 98}, {"time": 1345, "pitch": 54, "duration": 4, "velocity": 89}, {"time": 1348, "pitch": 59, "duration": 2, "velocity": 99}, {"time": 1348, "pitch": 62, "duration": 4, "velocity": 101}, {"time": 1348, "pitch": 66, "duration": 6, "velocity": 101}, {"time": 1354, "pitch": 59, "duration": 2, "velocity": 98}, {"time": 1357, "pitch": 40, "duration": 20, "velocity": 99}, {"time": 1357, "pitch": 59, "duration": 3, "velocity": 96}, {"time": 1357, "pitch": 64, "duration": 5, "velocity": 101}, {"time": 1360, "pitch": 47, "duration": 13, "velocity": 94}, {"time": 1363, "pitch": 59, "duration": 8, "velocity": 97}, {"time": 1366, "pitch": 64, "duration": 5, "velocity": 95}, {"time": 1372, "pitch": 59, "duration": 3, "velocity": 97}, {"time": 1372, "pitch": 64, "duration": 4, "velocity": 102}, {"time": 1372, "pitch": 68, "duration": 5, "velocity": 101}, {"time": 1375, "pitch": 47, "duration": 2, "velocity": 96}, {"time": 1381, "pitch": 42, "duration": 23, "velocity": 98}, {"time": 1381, "pitch": 66, "duration": 7, "velocity": 96}, {"time": 1384, "pitch": 49, "duration": 20, "velocity": 89}, {"time": 1387, "pitch": 57, "duration": 7, "velocity": 96}, {"time": 1390, "pitch": 61, "duration": 4, "velocity": 99}, {"time": 1396, "pitch": 61, "duration": 9, "velocity": 96}, {"time": 1396, "pitch": 66, "duration": 9, "velocity": 97}, {"time": 1405, "pitch": 50, "duration": 22, "velocity": 96}, {"time": 1405, "pitch": 66, "duration": 1, "velocity": 97}, {"time": 1411, "pitch": 57, "duration": 4, "velocity": 93}, {"time": 1414, "pitch": 62, "duration": 3, "velocity": 91}, {"time": 1420, "pitch": 62, "duration": 4, "velocity": 90}, {"time": 1420, "pitch": 66, "duration": 10, "velocity": 84}, {"time": 1429, "pitch": 50, "duration": 17, "velocity": 95}, {"time": 1438, "pitch": 57, "duration": 4, "velocity": 86}, {"time": 1441, "pitch": 66, "duration": 4, "velocity": 100}, {"time": 1444, "pitch": 62, "duration": 3, "velocity": 90}, {"time": 1447, "pitch": 57, "duration": 2, "velocity": 92}, {"time": 1453, "pitch": 49, "duration": 20, "velocity": 91}, {"time": 1453, "pitch": 61, "duration": 3, "velocity": 86}, {"time": 1453, "pitch": 64, "duration": 4, "velocity": 94}, {"time": 1459, "pitch": 56, "duration": 13, "velocity": 81}, {"time": 1462, "pitch": 61, "duration": 7, "velocity": 95}, {"time": 1468, "pitch": 68, "duration": 7, "velocity": 97}, {"time": 1471, "pitch": 61, "duration": 4, "velocity": 78}, {"time": 1477, "pitch": 37, "duration": 15, "velocity": 85}, {"time": 1477, "pitch": 61, "duration": 10, "velocity": 81}, {"time": 1477, "pitch": 64, "duration": 10, "velocity": 91}, {"time": 1489, "pitch": 61, "duration": 4, "velocity": 95}, {"time": 1489, "pitch": 68, "duration": 4, "velocity": 91}, {"time": 1501, "pitch": 47, "duration": 43, "velocity": 95}, {"time": 1501, "pitch": 66, "duration": 9, "velocity": 95}, {"time": 1504, "pitch": 54, "duration": 35, "velocity": 84}, {"time": 1507, "pitch": 59, "duration": 10, "velocity": 95}, {"time": 1510, "pitch": 62, "duration": 7, "velocity": 91}, {"time": 1516, "pitch": 66, "duration": 6, "velocity": 89}, {"time": 1525, "pitch": 59, "duration": 8, "velocity": 85}, {"time": 1525, "pitch": 62, "duration": 8, "velocity": 91}, {"time": 1537, "pitch": 59, "duration": 4, "velocity": 96}, {"time": 1537, "pitch": 66, "duration": 7, "velocity": 95}, {"time": 1540, "pitch": 54, "duration": 3, "velocity": 89}, {"time": 1543, "pitch": 59, "duration": 6, "velocity": 97}, {"time": 1549, "pitch": 37, "duration": 22, "velocity": 92}, {"time": 1549, "pitch": 66, "duration": 15, "velocity": 87}, {"time": 1555, "pitch": 44, "duration": 16, "velocity": 81}, {"time": 1567, "pitch": 61, "duration": 3, "velocity": 85}, {"time": 1567, "pitch": 66, "duration": 2, "velocity": 90}, {"time": 1573, "pitch": 37, "duration": 16, "velocity": 88}, {"time": 1573, "pitch": 61, "duration": 17, "velocity": 82}, {"time": 1573, "pitch": 65, "duration": 19, "velocity": 86}, {"time": 1597, "pitch": 42, "duration": 22, "velocity": 98}, {"time": 1597, "pitch": 61, "duration": 7, "velocity": 102}, {"time": 1600, "pitch": 49, "duration": 19, "velocity": 81}, {"time": 1603, "pitch": 57, "duration": 7, "velocity": 93}, {"time": 1606, "pitch": 61, "duration": 6, "velocity": 100}, {"time": 1612, "pitch": 66, "duration": 4, "velocity": 101}, {"time": 1615, "pitch": 57, "duration": 3, "velocity": 85}, {"time": 1621, "pitch": 42, "duration": 17, "velocity": 94}, {"time": 1621, "pitch": 57, "duration": 9, "velocity": 84}, {"time": 1621, "pitch": 61, "duration": 8, "velocity": 86}, {"time": 1633, "pitch": 57, "duration": 11, "velocity": 95}, {"time": 1633, "pitch": 61, "duration": 11, "velocity": 104}, {"time": 1633, "pitch": 66, "duration": 11, "velocity": 96}, {"time": 1645, "pitch": 45, "duration": 41, "velocity": 97}, {"time": 1648, "pitch": 52, "duration": 37, "velocity": 92}, {"time": 1651, "pitch": 57, "duration": 5, "velocity": 98}, {"time": 1654, "pitch": 61, "duration": 3, "velocity": 100}, {"time": 1660, "pitch": 57, "duration": 3, "velocity": 91}, {"time": 1660, "pitch": 61, "duration": 4, "velocity": 102}, {"time": 1660, "pitch": 64, "duration": 4, "velocity": 97}, {"time": 1669, "pitch": 57, "duration": 3, "velocity": 89}, {"time": 1669, "pitch": 61, "duration": 3, "velocity": 90}, {"time": 1678, "pitch": 57, "duration": 1, "velocity": 67}, {"time": 1681, "pitch": 57, "duration": 4, "velocity": 95}, {"time": 1681, "pitch": 61, "duration": 4, "velocity": 102}, {"time": 1681, "pitch": 64, "duration": 4, "velocity": 97}, {"time": 1693, "pitch": 47, "duration": 41, "velocity": 99}, {"time": 1696, "pitch": 54, "duration": 36, "velocity": 92}, {"time": 1699, "pitch": 59, "duration": 5, "velocity": 96}, {"time": 1702, "pitch": 62, "duration": 4, "velocity": 96}, {"time": 1708, "pitch": 59, "duration": 3, "velocity": 79}, {"time": 1708, "pitch": 62, "duration": 3, "velocity": 95}, {"time": 1708, "pitch": 66, "duration": 3, "velocity": 96}, {"time": 1717, "pitch": 59, "duration": 8, "velocity": 83}, {"time": 1717, "pitch": 62, "duration": 7, "velocity": 88}, {"time": 1729, "pitch": 59, "duration": 5, "velocity": 94}, {"time": 1729, "pitch": 62, "duration": 4, "velocity": 96}, {"time": 1729, "pitch": 66, "duration": 4, "velocity": 95}, {"time": 1741, "pitch": 49, "duration": 16, "velocity": 100}, {"time": 1741, "pitch": 61, "duration": 2, "velocity": 93}, {"time": 1741, "pitch": 64, "duration": 2, "velocity": 93}, {"time": 1744, "pitch": 56, "duration": 13, "velocity": 86}, {"time": 1747, "pitch": 61, "duration": 7, "velocity": 88}, {"time": 1750, "pitch": 64, "duration": 5, "velocity": 94}, {"time": 1756, "pitch": 68, "duration": 4, "velocity": 101}, {"time": 1759, "pitch": 61, "duration": 5, "velocity": 86}, {"time": 1765, "pitch": 37, "duration": 23, "velocity": 93}, {"time": 1765, "pitch": 61, "duration": 8, "velocity": 89}, {"time": 1765, "pitch": 64, "duration": 7, "velocity": 96}, {"time": 1771, "pitch": 44, "duration": 8, "velocity": 70}, {"time": 1777, "pitch": 61, "duration": 4, "velocity": 96}, {"time": 1777, "pitch": 64, "duration": 6, "velocity": 101}, {"time": 1777, "pitch": 68, "duration": 7, "velocity": 97}, {"time": 1780, "pitch": 44, "duration": 8, "velocity": 88}, {"time": 1783, "pitch": 61, "duration": 5, "velocity": 92}, {"time": 1786, "pitch": 64, "duration": 2, "velocity": 95}, {"time": 1789, "pitch": 42, "duration": 23, "velocity": 98}, {"time": 1789, "pitch": 57, "duration": 4, "velocity": 94}, {"time": 1789, "pitch": 66, "duration": 7, "velocity": 89}, {"time": 1792, "pitch": 49, "duration": 20, "velocity": 83}, {"time": 1795, "pitch": 57, "duration": 4, "velocity": 88}, {"time": 1798, "pitch": 61, "duration": 4, "velocity": 104}, {"time": 1804, "pitch": 57, "duration": 3, "velocity": 93}, {"time": 1804, "pitch": 61, "duration": 4, "velocity": 106}, {"time": 1804, "pitch": 66, "duration": 6, "velocity": 96}, {"time": 1813, "pitch": 42, "duration": 16, "velocity": 92}, {"time": 1813, "pitch": 57, "duration": 9, "velocity": 91}, {"time": 1813, "pitch": 61, "duration": 8, "velocity": 91}, {"time": 1825, "pitch": 57, "duration": 3, "velocity": 95}, {"time": 1825, "pitch": 61, "duration": 4, "velocity": 111}, {"time": 1825, "pitch": 66, "duration": 6, "velocity": 98}, {"time": 1828, "pitch": 49, "duration": 2, "velocity": 95}, {"time": 1831, "pitch": 57, "duration": 2, "velocity": 97}, {"time": 1837, "pitch": 40, "duration": 23, "velocity": 96}, {"time": 1837, "pitch": 59, "duration": 4, "velocity": 87}, {"time": 1837, "pitch": 64, "duration": 6, "velocity": 96}, {"time": 1840, "pitch": 47, "duration": 19, "velocity": 93}, {"time": 1843, "pitch": 59, "duration": 4, "velocity": 91}, {"time": 1846, "pitch": 64, "duration": 3, "velocity": 95}, {"time": 1852, "pitch": 59, "duration": 2, "velocity": 96}, {"time": 1852, "pitch": 68, "duration": 3, "velocity": 96}, {"time": 1861, "pitch": 40, "duration": 16, "velocity": 93}, {"time": 1861, "pitch": 59, "duration": 10, "velocity": 91}, {"time": 1861, "pitch": 64, "duration": 10, "velocity": 96}, {"time": 1870, "pitch": 47, "duration": 6, "velocity": 82}, {"time": 1873, "pitch": 59, "duration": 6, "velocity": 98}, {"time": 1876, "pitch": 64, "duration": 3, "velocity": 97}, {"time": 1879, "pitch": 68, "duration": 1, "velocity": 97}, {"time": 1885, "pitch": 50, "duration": 18, "velocity": 98}, {"time": 1885, "pitch": 57, "duration": 2, "velocity": 87}, {"time": 1885, "pitch": 62, "duration": 4, "velocity": 91}, {"time": 1888, "pitch": 57, "duration": 5, "velocity": 88}, {"time": 1891, "pitch": 62, "duration": 2, "velocity": 90}, {"time": 1894, "pitch": 57, "duration": 8, "velocity": 89}, {"time": 1894, "pitch": 62, "duration": 8, "velocity": 97}, {"time": 1894, "pitch": 66, "duration": 9, "velocity": 96}, {"time": 1909, "pitch": 49, "duration": 13, "velocity": 104}, {"time": 1909, "pitch": 61, "duration": 4, "velocity": 93}, {"time": 1909, "pitch": 64, "duration": 6, "velocity": 98}, {"time": 1912, "pitch": 56, "duration": 10, "velocity": 83}, {"time": 1915, "pitch": 61, "duration": 6, "velocity": 91}, {"time": 1918, "pitch": 64, "duration": 4, "velocity": 91}, {"time": 1924, "pitch": 61, "duration": 2, "velocity": 94}, {"time": 1924, "pitch": 64, "duration": 2, "velocity": 98}, {"time": 1924, "pitch": 68, "duration": 2, "velocity": 96}, {"time": 1933, "pitch": 47, "duration": 17, "velocity": 98}, {"time": 1933, "pitch": 59, "duration": 7, "velocity": 95}, {"time": 1933, "pitch": 62, "duration": 7, "velocity": 96}, {"time": 1933, "pitch": 66, "duration": 12, "velocity": 95}, {"time": 1939, "pitch": 54, "duration": 10, "velocity": 85}, {"time": 1942, "pitch": 59, "duration": 5, "velocity": 97}, {"time": 1948, "pitch": 59, "duration": 2, "velocity": 98}, {"time": 1948, "pitch": 62, "duration": 2, "velocity": 97}, {"time": 1957, "pitch": 52, "duration": 24, "velocity": 96}, {"time": 1957, "pitch": 64, "duration": 9, "velocity": 90}, {"time": 1957, "pitch": 76, "duration": 9, "velocity": 91}, {"time": 1966, "pitch": 59, "duration": 5, "velocity": 97}, {"time": 1969, "pitch": 64, "duration": 8, "velocity": 102}, {"time": 1969, "pitch": 68, "duration": 11, "velocity": 104}, {"time": 1969, "pitch": 71, "duration": 13, "velocity": 100}, {"time": 1972, "pitch": 56, "duration": 4, "velocity": 95}, {"time": 1975, "pitch": 59, "duration": 6, "velocity": 97}, {"time": 1978, "pitch": 64, "duration": 3, "velocity": 95}, {"time": 1981, "pitch": 42, "duration": 17, "velocity": 96}, {"time": 1981, "pitch": 66, "duration": 7, "velocity": 101}, {"time": 1984, "pitch": 49, "duration": 14, "velocity": 79}, {"time": 1987, "pitch": 57, "duration": 7, "velocity": 96}, {"time": 1990, "pitch": 61, "duration": 4, "velocity": 106}, {"time": 1996, "pitch": 61, "duration": 5, "velocity": 97}, {"time": 1996, "pitch": 66, "duration": 7, "velocity": 96}, {"time": 2002, "pitch": 57, "duration": 2, "velocity": 78}, {"time": 2005, "pitch": 50, "duration": 16, "velocity": 97}, {"time": 2005, "pitch": 57, "duration": 2, "velocity": 95}, {"time": 2005, "pitch": 62, "duration": 4, "velocity": 99}, {"time": 2008, "pitch": 57, "duration": 5, "velocity": 90}, {"time": 2011, "pitch": 62, "duration": 2, "velocity": 90}, {"time": 2014, "pitch": 62, "duration": 1, "velocity": 84}, {"time": 2014, "pitch": 66, "duration": 6, "velocity": 104}, {"time": 2020, "pitch": 62, "duration": 2, "velocity": 95}, {"time": 2029, "pitch": 40, "duration": 17, "velocity": 97}, {"time": 2029, "pitch": 59, "duration": 3, "velocity": 92}, {"time": 2029, "pitch": 64, "duration": 6, "velocity": 96}, {"time": 2032, "pitch": 47, "duration": 14, "velocity": 89}, {"time": 2035, "pitch": 59, "duration": 5, "velocity": 93}, {"time": 2038, "pitch": 64, "duration": 2, "velocity": 92}, {"time": 2044, "pitch": 59, "duration": 3, "velocity": 93}, {"time": 2044, "pitch": 64, "duration": 3, "velocity": 101}, {"time": 2044, "pitch": 68, "duration": 3, "velocity": 95}, {"time": 2053, "pitch": 45, "duration": 19, "velocity": 96}, {"time": 2053, "pitch": 57, "duration": 3, "velocity": 91}, {"time": 2053, "pitch": 61, "duration": 6, "velocity": 95}, {"time": 2053, "pitch": 64, "duration": 10, "velocity": 97}, {"time": 2056, "pitch": 52, "duration": 13, "velocity": 85}, {"time": 2059, "pitch": 57, "duration": 7, "velocity": 90}, {"time": 2062, "pitch": 61, "duration": 4, "velocity": 102}, {"time": 2068, "pitch": 57, "duration": 2, "velocity": 95}, {"time": 2068, "pitch": 61, "duration": 4, "velocity": 101}, {"time": 2068, "pitch": 64, "duration": 4, "velocity": 101}, {"time": 2071, "pitch": 52, "duration": 2, "velocity": 96}, {"time": 2077, "pitch": 42, "duration": 16, "velocity": 100}, {"time": 2077, "pitch": 57, "duration": 1, "velocity": 90}, {"time": 2077, "pitch": 61, "duration": 7, "velocity": 97}, {"time": 2080, "pitch": 49, "duration": 13, "velocity": 89}, {"time": 2083, "pitch": 57, "duration": 9, "velocity": 96}, {"time": 2086, "pitch": 61, "duration": 6, "velocity": 97}, {"time": 2092, "pitch": 66, "duration": 5, "velocity": 99}, {"time": 2095, "pitch": 61, "duration": 3, "velocity": 82}, {"time": 2098, "pitch": 57, "duration": 1, "velocity": 88}, {"time": 2101, "pitch": 50, "duration": 18, "velocity": 96}, {"time": 2101, "pitch": 57, "duration": 2, "velocity": 91}, {"time": 2101, "pitch": 62, "duration": 4, "velocity": 94}, {"time": 2104, "pitch": 57, "duration": 5, "velocity": 87}, {"time": 2107, "pitch": 62, "duration": 4, "velocity": 90}, {"time": 2110, "pitch": 66, "duration": 6, "velocity": 97}, {"time": 2116, "pitch": 62, "duration": 2, "velocity": 97}, {"time": 2125, "pitch": 47, "duration": 16, "velocity": 98}, {"time": 2125, "pitch": 59, "duration": 4, "velocity": 92}, {"time": 2125, "pitch": 62, "duration": 7, "velocity": 96}, {"time": 2125, "pitch": 66, "duration": 9, "velocity": 90}, {"time": 2131, "pitch": 59, "duration": 5, "velocity": 94}, {"time": 2134, "pitch": 62, "duration": 4, "velocity": 95}, {"time": 2137, "pitch": 54, "duration": 4, "velocity": 96}, {"time": 2140, "pitch": 59, "duration": 2, "velocity": 95}, {"time": 2140, "pitch": 62, "duration": 5, "velocity": 98}, {"time": 2140, "pitch": 66, "duration": 6, "velocity": 95}, {"time": 2146, "pitch": 59, "duration": 2, "velocity": 85}, {"time": 2149, "pitch": 40, "duration": 18, "velocity": 99}, {"time": 2149, "pitch": 59, "duration": 3, "velocity": 95}, {"time": 2149, "pitch": 64, "duration": 5, "velocity": 99}, {"time": 2152, "pitch": 47, "duration": 14, "velocity": 94}, {"time": 2155, "pitch": 59, "duration": 2, "velocity": 91}, {"time": 2158, "pitch": 59, "duration": 4, "velocity": 97}, {"time": 2158, "pitch": 64, "duration": 4, "velocity": 101}, {"time": 2164, "pitch": 59, "duration": 2, "velocity": 96}, {"time": 2164, "pitch": 64, "duration": 4, "velocity": 100}, {"time": 2164, "pitch": 68, "duration": 6, "velocity": 101}, {"time": 2167, "pitch": 59, "duration": 6, "velocity": 95}, {"time": 2173, "pitch": 42, "duration": 17, "velocity": 96}, {"time": 2173, "pitch": 66, "duration": 7, "velocity": 101}, {"time": 2176, "pitch": 49, "duration": 14, "velocity": 79}, {"time": 2179, "pitch": 57, "duration": 7, "velocity": 96}, {"time": 2182, "pitch": 61, "duration": 4, "velocity": 106}, {"time": 2188, "pitch": 61, "duration": 5, "velocity": 97}, {"time": 2188, "pitch": 66, "duration": 7, "velocity": 96}, {"time": 2194, "pitch": 57, "duration": 2, "velocity": 78}, {"time": 2197, "pitch": 50, "duration": 16, "velocity": 97}, {"time": 2197, "pitch": 57, "duration": 2, "velocity": 95}, {"time": 2197, "pitch": 62, "duration": 4, "velocity": 99}, {"time": 2200, "pitch": 57, "duration": 5, "velocity": 90}, {"time": 2203, "pitch": 62, "duration": 2, "velocity": 90}, {"time": 2206, "pitch": 62, "duration": 1, "velocity": 84}, {"time": 2206, "pitch": 66, "duration": 6, "velocity": 104}, {"time": 2212, "pitch": 62, "duration": 2, "velocity": 95}, {"time": 2221, "pitch": 40, "duration": 17, "velocity": 97}, {"time": 2221, "pitch": 59, "duration": 3, "velocity": 92}, {"time": 2221, "pitch": 64, "duration": 6, "velocity": 96}, {"time": 2224, "pitch": 47, "duration": 14, "velocity": 89}, {"time": 2227, "pitch": 59, "duration": 5, "velocity": 93}, {"time": 2230, "pitch": 64, "duration": 2, "velocity": 92}, {"time": 2236, "pitch": 59, "duration": 3, "velocity": 93}, {"time": 2236, "pitch": 64, "duration": 3, "velocity": 101}, {"time": 2236, "pitch": 68, "duration": 3, "velocity": 95}, {"time": 2245, "pitch": 37, "duration": 23, "velocity": 96}, {"time": 2245, "pitch": 61, "duration": 3, "velocity": 90}, {"time": 2245, "pitch": 64, "duration": 5, "velocity": 99}, {"time": 2248, "pitch": 44, "duration": 14, "velocity": 95}, {"time": 2251, "pitch": 61, "duration": 5, "velocity": 92}, {"time": 2254, "pitch": 64, "duration": 5, "velocity": 99}, {"time": 2260, "pitch": 61, "duration": 4, "velocity": 99}, {"time": 2260, "pitch": 64, "duration": 7, "velocity": 106}, {"time": 2260, "pitch": 68, "duration": 9, "velocity": 97}, {"time": 2263, "pitch": 44, "duration": 6, "velocity": 90}, {"time": 2266, "pitch": 61, "duration": 3, "velocity": 95}, {"time": 2269, "pitch": 38, "duration": 20, "velocity": 98}, {"time": 2269, "pitch": 57, "duration": 3, "velocity": 92}, {"time": 2269, "pitch": 62, "duration": 5, "velocity": 95}, {"time": 2272, "pitch": 45, "duration": 15, "velocity": 91}, {"time": 2275, "pitch": 57, "duration": 5, "velocity": 99}, {"time": 2278, "pitch": 62, "duration": 4, "velocity": 101}, {"time": 2284, "pitch": 57, "duration": 2, "velocity": 96}, {"time": 2284, "pitch": 62, "duration": 4, "velocity": 100}, {"time": 2284, "pitch": 66, "duration": 7, "velocity": 97}, {"time": 2287, "pitch": 57, "duration": 5, "velocity": 91}, {"time": 2290, "pitch": 62, "duration": 3, "velocity": 96}, {"time": 2293, "pitch": 47, "duration": 17, "velocity": 96}, {"time": 2293, "pitch": 59, "duration": 4, "velocity": 96}, {"time": 2293, "pitch": 66, "duration": 7, "velocity": 97}, {"time": 2296, "pitch": 54, "duration": 7, "velocity": 95}, {"time": 2299, "pitch": 59, "duration": 2, "velocity": 99}, {"time": 2302, "pitch": 59, "duration": 5, "velocity": 97}, {"time": 2302, "pitch": 62, "duration": 5, "velocity": 98}, {"time": 2305, "pitch": 54, "duration": 4, "velocity": 89}, {"time": 2308, "pitch": 59, "duration": 2, "velocity": 99}, {"time": 2308, "pitch": 62, "duration": 4, "velocity": 101}, {"time": 2308, "pitch": 66, "duration": 6, "velocity": 101}, {"time": 2314, "pitch": 59, "duration": 2, "velocity": 98}, {"time": 2317, "pitch": 40, "duration": 20, "velocity": 99}, {"time": 2317, "pitch": 59, "duration": 3, "velocity": 96}, {"time": 2317, "pitch": 64, "duration": 5, "velocity": 101}, {"time": 2320, "pitch": 47, "duration": 13, "velocity": 94}, {"time": 2323, "pitch": 59, "duration": 8, "velocity": 97}, {"time": 2326, "pitch": 64, "duration": 5, "velocity": 95}, {"time": 2332, "pitch": 59, "duration": 3, "velocity": 97}, {"time": 2332, "pitch": 64, "duration": 4, "velocity": 102}, {"time": 2332, "pitch": 68, "duration": 5, "velocity": 101}, {"time": 2335, "pitch": 47, "duration": 2, "velocity": 96}, {"time": 2341, "pitch": 42, "duration": 23, "velocity": 98}, {"time": 2341, "pitch": 66, "duration": 7, "velocity": 96}, {"time": 2344, "pitch": 49, "duration": 20, "velocity": 89}, {"time": 2347, "pitch": 57, "duration": 7, "velocity": 96}, {"time": 2350, "pitch": 61, "duration": 4, "velocity": 99}, {"time": 2356, "pitch": 61, "duration": 9, "velocity": 96}, {"time": 2356, "pitch": 66, "duration": 9, "velocity": 97}, {"time": 2365, "pitch": 38, "duration": 19, "velocity": 101}, {"time": 2365, "pitch": 50, "duration": 3, "velocity": 95}, {"time": 2365, "pitch": 57, "duration": 4, "velocity": 95}, {"time": 2368, "pitch": 45, "duration": 8, "velocity": 92}, {"time": 2371, "pitch": 57, "duration": 2, "velocity": 98}, {"time": 2374, "pitch": 57, "duration": 5, "velocity": 101}, {"time": 2374, "pitch": 62, "duration": 5, "velocity": 101}, {"time": 2377, "pitch": 45, "duration": 5, "velocity": 88}, {"time": 2380, "pitch": 57, "duration": 3, "velocity": 96}, {"time": 2380, "pitch": 62, "duration": 8, "velocity": 96}, {"time": 2380, "pitch": 66, "duration": 9, "velocity": 96}, {"time": 2386, "pitch": 57, "duration": 2, "velocity": 84}, {"time": 2389, "pitch": 38, "duration": 21, "velocity": 101}, {"time": 2389, "pitch": 57, "duration": 3, "velocity": 96}, {"time": 2389, "pitch": 62, "duration": 7, "velocity": 97}, {"time": 2392, "pitch": 45, "duration": 8, "velocity": 92}, {"time": 2395, "pitch": 57, "duration": 1, "velocity": 90}, {"time": 2398, "pitch": 57, "duration": 5, "velocity": 100}, {"time": 2398, "pitch": 62, "duration": 5, "velocity": 100}, {"time": 2398, "pitch": 66, "duration": 5, "velocity": 97}, {"time": 2401, "pitch": 45, "duration": 6, "velocity": 79}, {"time": 2404, "pitch": 57, "duration": 3, "velocity": 95}, {"time": 2404, "pitch": 62, "duration": 3, "velocity": 96}, {"time": 2404, "pitch": 66, "duration": 3, "velocity": 89}, {"time": 2413, "pitch": 38, "duration": 1, "velocity": 101}, {"time": 2413, "pitch": 57, "duration": 5, "velocity": 96}, {"time": 2413, "pitch": 65, "duration": 13, "velocity": 94}, {"time": 2416, "pitch": 45, "duration": 4, "velocity": 89}, {"time": 2419, "pitch": 50, "duration": 3, "velocity": 91}, {"time": 2422, "pitch": 53, "duration": 14, "velocity": 93}, {"time": 2428, "pitch": 57, "duration": 4, "velocity": 96}, {"time": 2428, "pitch": 65, "duration": 8, "velocity": 97}, {"time": 2434, "pitch": 57, "duration": 2, "velocity": 89}, {"time": 2437, "pitch": 50, "duration": 17, "velocity": 102}, {"time": 2437, "pitch": 57, "duration": 1, "velocity": 76}, {"time": 2437, "pitch": 62, "duration": 7, "velocity": 101}, {"time": 2440, "pitch": 53, "duration": 13, "velocity": 89}, {"time": 2443, "pitch": 57, "duration": 8, "velocity": 90}, {"time": 2446, "pitch": 62, "duration": 5, "velocity": 99}, {"time": 2452, "pitch": 57, "duration": 2, "velocity": 95}, {"time": 2452, "pitch": 62, "duration": 2, "velocity": 98}, {"time": 2452, "pitch": 65, "duration": 2, "velocity": 97}, {"time": 2461, "pitch": 37, "duration": 15, "velocity": 99}, {"time": 2461, "pitch": 61, "duration": 4, "velocity": 94}, {"time": 2461, "pitch": 64, "duration": 7, "velocity": 98}, {"time": 2464, "pitch": 44, "duration": 12, "velocity": 89}, {"time": 2467, "pitch": 61, "duration": 9, "velocity": 91}, {"time": 2470, "pitch": 64, "duration": 5, "velocity": 93}, {"time": 2476, "pitch": 61, "duration": 1, "velocity": 73}, {"time": 2476, "pitch": 64, "duration": 1, "velocity": 97}, {"time": 2476, "pitch": 68, "duration": 2, "velocity": 97}, {"time": 2485, "pitch": 42, "duration": 15, "velocity": 95}, {"time": 2485, "pitch": 54, "duration": 4, "velocity": 91}, {"time": 2485, "pitch": 58, "duration": 10, "velocity": 85}, {"time": 2488, "pitch": 49, "duration": 13, "velocity": 83}, {"time": 2491, "pitch": 54, "duration": 4, "velocity": 91}, {"time": 2494, "pitch": 61, "duration": 5, "velocity": 96}, {"time": 2500, "pitch": 54, "duration": 2, "velocity": 99}, {"time": 2500, "pitch": 58, "duration": 2, "velocity": 93}, {"time": 2500, "pitch": 61, "duration": 2, "velocity": 92}, {"time": 2500, "pitch": 66, "duration": 4, "velocity": 94}, {"time": 2509, "pitch": 47, "duration": 19, "velocity": 97}, {"time": 2509, "pitch": 59, "duration": 3, "velocity": 92}, {"time": 2509, "pitch": 62, "duration": 6, "velocity": 93}, {"time": 2509, "pitch": 66, "duration": 9, "velocity": 89}, {"time": 2512, "pitch": 54, "duration": 13, "velocity": 95}, {"time": 2515, "pitch": 59, "duration": 5, "velocity": 95}, {"time": 2518, "pitch": 62, "duration": 5, "velocity": 93}, {"time": 2524, "pitch": 66, "duration": 6, "velocity": 98}, {"time": 2527, "pitch": 59, "duration": 4, "velocity": 95}, {"time": 2530, "pitch": 62, "duration": 2, "velocity": 88}, {"time": 2533, "pitch": 49, "duration": 17, "velocity": 96}, {"time": 2536, "pitch": 56, "duration": 14, "velocity": 85}, {"time": 2539, "pitch": 61, "duration": 7, "velocity": 95}, {"time": 2542, "pitch": 64, "duration": 5, "velocity": 96}, {"time": 2548, "pitch": 61, "duration": 9, "velocity": 96}, {"time": 2548, "pitch": 64, "duration": 9, "velocity": 101}, {"time": 2548, "pitch": 68, "duration": 10, "velocity": 94}, {"time": 2557, "pitch": 40, "duration": 21, "velocity": 96}, {"time": 2560, "pitch": 47, "duration": 18, "velocity": 95}, {"time": 2563, "pitch": 52, "duration": 7, "velocity": 99}, {"time": 2566, "pitch": 56, "duration": 5, "velocity": 99}, {"time": 2569, "pitch": 59, "duration": 7, "velocity": 90}, {"time": 2572, "pitch": 64, "duration": 7, "velocity": 97}, {"time": 2575, "pitch": 52, "duration": 4, "velocity": 87}, {"time": 2581, "pitch": 40, "duration": 14, "velocity": 96}, {"time": 2581, "pitch": 52, "duration": 22, "velocity": 88}, {"time": 2581, "pitch": 56, "duration": 22, "velocity": 88}, {"time": 2581, "pitch": 59, "duration": 22, "velocity": 93}, {"time": 2581, "pitch": 64, "duration": 22, "velocity": 94}, {"time": 2605, "pitch": 42, "duration": 17, "velocity": 96}, {"time": 2605, "pitch": 66, "duration": 7, "velocity": 101}, {"time": 2608, "pitch": 49, "duration": 14, "velocity": 79}, {"time": 2611, "pitch": 57, "duration": 7, "velocity": 96}, {"time": 2614, "pitch": 61, "duration": 4, "velocity": 106}, {"time": 2620, "pitch": 61, "duration": 5, "velocity": 97}, {"time": 2620, "pitch": 66, "duration": 7, "velocity": 96}, {"time": 2626, "pitch": 57, "duration": 2, "velocity": 78}, {"time": 2629, "pitch": 50, "duration": 16, "velocity": 97}, {"time": 2629, "pitch": 57, "duration": 2, "velocity": 95}, {"time": 2629, "pitch": 62, "duration": 4, "velocity": 99}, {"time": 2632, "pitch": 57, "duration": 5, "velocity": 90}, {"time": 2635, "pitch": 62, "duration": 2, "velocity": 90}, {"time": 2638, "pitch": 62, "duration": 1, "velocity": 84}, {"time": 2638, "pitch": 66, "duration": 6, "velocity": 104}, {"time": 2644, "pitch": 62, "duration": 2, "velocity": 95}, {"time": 2653, "pitch": 40, "duration": 17, "velocity": 97}, {"time": 2653, "pitch": 59, "duration": 3, "velocity": 92}, {"time": 2653, "pitch": 64, "duration": 6, "velocity": 96}, {"time": 2656, "pitch": 47, "duration": 14, "velocity": 89}, {"time": 2659, "pitch": 59, "duration": 5, "velocity": 93}, {"time": 2662, "pitch": 64, "duration": 2, "velocity": 92}, {"time": 2668, "pitch": 59, "duration": 3, "velocity": 93}, {"time": 2668, "pitch": 64, "duration": 3, "velocity": 101}, {"time": 2668, "pitch": 68, "duration": 3, "velocity": 95}, {"time": 2677, "pitch": 45, "duration": 19, "velocity": 96}, {"time": 2677, "pitch": 57, "duration": 3, "velocity": 91}, {"time": 2677, "pitch": 61, "duration": 6, "velocity": 95}, {"time": 2677, "pitch": 64, "duration": 10, "velocity": 97}, {"time": 2680, "pitch": 52, "duration": 13, "velocity": 85}, {"time": 2683, "pitch": 57, "duration": 7, "velocity": 90}, {"time": 2686, "pitch": 61, "duration": 4, "velocity": 102}, {"time": 2692, "pitch": 57, "duration": 2, "velocity": 95}, {"time": 2692, "pitch": 61, "duration": 4, "velocity": 101}, {"time": 2692, "pitch": 64, "duration": 4, "velocity": 101}, {"time": 2695, "pitch": 52, "duration": 2, "velocity": 96}, {"time": 2701, "pitch": 42, "duration": 16, "velocity": 100}, {"time": 2701, "pitch": 57, "duration": 1, "velocity": 90}, {"time": 2701, "pitch": 61, "duration": 7, "velocity": 97}, {"time": 2704, "pitch": 49, "duration": 13, "velocity": 89}, {"time": 2707, "pitch": 57, "duration": 9, "velocity": 96}, {"time": 2710, "pitch": 61, "duration": 6, "velocity": 97}, {"time": 2716, "pitch": 66, "duration": 5, "velocity": 99}, {"time": 2719, "pitch": 61, "duration": 3, "velocity": 82}, {"time": 2722, "pitch": 57, "duration": 1, "velocity": 88}, {"time": 2725, "pitch": 50, "duration": 18, "velocity": 96}, {"time": 2725, "pitch": 57, "duration": 2, "velocity": 91}, {"time": 2725, "pitch": 62, "duration": 4, "velocity": 94}, {"time": 2728, "pitch": 57, "duration": 5, "velocity": 87}, {"time": 2731, "pitch": 62, "duration": 4, "velocity": 90}, {"time": 2734, "pitch": 66, "duration": 6, "velocity": 97}, {"time": 2740, "pitch": 62, "duration": 2, "velocity": 97}, {"time": 2749, "pitch": 47, "duration": 16, "velocity": 98}, {"time": 2749, "pitch": 59, "duration": 4, "velocity": 92}, {"time": 2749, "pitch": 62, "duration": 7, "velocity": 96}, {"time": 2749, "pitch": 66, "duration": 9, "velocity": 90}, {"time": 2755, "pitch": 59, "duration": 5, "velocity": 94}, {"time": 2758, "pitch": 62, "duration": 4, "velocity": 95}, {"time": 2761, "pitch": 54, "duration": 4, "velocity": 96}, {"time": 2764, "pitch": 59, "duration": 2, "velocity": 95}, {"time": 2764, "pitch": 62, "duration": 5, "velocity": 98}, {"time": 2764, "pitch": 66, "duration": 6, "velocity": 95}, {"time": 2770, "pitch": 59, "duration": 2, "velocity": 85}, {"time": 2773, "pitch": 40, "duration": 18, "velocity": 99}, {"time": 2773, "pitch": 59, "duration": 3, "velocity": 95}, {"time": 2773, "pitch": 64, "duration": 5, "velocity": 99}, {"time": 2776, "pitch": 47, "duration": 14, "velocity": 94}, {"time": 2779, "pitch": 59, "duration": 2, "velocity": 91}, {"time": 2782, "pitch": 59, "duration": 4, "velocity": 97}, {"time": 2782, "pitch": 64, "duration": 4, "velocity": 101}, {"time": 2788, "pitch": 59, "duration": 2, "velocity": 96}, {"time": 2788, "pitch": 64, "duration": 4, "velocity": 100}, {"time": 2788, "pitch": 68, "duration": 6, "velocity": 101}, {"time": 2791, "pitch": 59, "duration": 6, "velocity": 95}, {"time": 2797, "pitch": 42, "duration": 17, "velocity": 96}, {"time": 2797, "pitch": 66, "duration": 7, "velocity": 101}, {"time": 2800, "pitch": 49, "duration": 14, "velocity": 79}, {"time": 2803, "pitch": 57, "duration": 7, "velocity": 96}, {"time": 2806, "pitch": 61, "duration": 4, "velocity": 106}, {"time": 2812, "pitch": 61, "duration": 5, "velocity": 97}, {"time": 2812, "pitch": 66, "duration": 7, "velocity": 96}, {"time": 2818, "pitch": 57, "duration": 2, "velocity": 78}, {"time": 2821, "pitch": 50, "duration": 16, "velocity": 97}, {"time": 2821, "pitch": 57, "duration": 2, "velocity": 95}, {"time": 2821, "pitch": 62, "duration": 4, "velocity": 99}, {"time": 2824, "pitch": 57, "duration": 5, "velocity": 90}, {"time": 2827, "pitch": 62, "duration": 2, "velocity": 90}, {"time": 2830, "pitch": 62, "duration": 1, "velocity": 84}, {"time": 2830, "pitch": 66, "duration": 6, "velocity": 104}, {"time": 2836, "pitch": 62, "duration": 2, "velocity": 95}, {"time": 2845, "pitch": 40, "duration": 17, "velocity": 97}, {"time": 2845, "pitch": 59, "duration": 3, "velocity": 92}, {"time": 2845, "pitch": 64, "duration": 6, "velocity": 96}, {"time": 2848, "pitch": 47, "duration": 14, "velocity": 89}, {"time": 2851, "pitch": 59, "duration": 5, "velocity": 93}, {"time": 2854, "pitch": 64, "duration": 2, "velocity": 92}, {"time": 2860, "pitch": 59, "duration": 3, "velocity": 93}, {"time": 2860, "pitch": 64, "duration": 3, "velocity": 101}, {"time": 2860, "pitch": 68, "duration": 3, "velocity": 95}, {"time": 2869, "pitch": 37, "duration": 23, "velocity": 96}, {"time": 2869, "pitch": 61, "duration": 3, "velocity": 90}, {"time": 2869, "pitch": 64, "duration": 5, "velocity": 99}, {"time": 2872, "pitch": 44, "duration": 14, "velocity": 95}, {"time": 2875, "pitch": 61, "duration": 5, "velocity": 92}, {"time": 2878, "pitch": 64, "duration": 5, "velocity": 99}, {"time": 2884, "pitch": 61, "duration": 4, "velocity": 99}, {"time": 2884, "pitch": 64, "duration": 7, "velocity": 106}, {"time": 2884, "pitch": 68, "duration": 9, "velocity": 97}, {"time": 2887, "pitch": 44, "duration": 6, "velocity": 90}, {"time": 2890, "pitch": 61, "duration": 3, "velocity": 95}, {"time": 2893, "pitch": 38, "duration": 20, "velocity": 98}, {"time": 2893, "pitch": 57, "duration": 3, "velocity": 92}, {"time": 2893, "pitch": 62, "duration": 5, "velocity": 95}, {"time": 2896, "pitch": 45, "duration": 15, "velocity": 91}, {"time": 2899, "pitch": 57, "duration": 5, "velocity": 99}, {"time": 2902, "pitch": 62, "duration": 4, "velocity": 101}, {"time": 2908, "pitch": 57, "duration": 2, "velocity": 96}, {"time": 2908, "pitch": 62, "duration": 4, "velocity": 100}, {"time": 2908, "pitch": 66, "duration": 7, "velocity": 97}, {"time": 2911, "pitch": 57, "duration": 5, "velocity": 91}, {"time": 2914, "pitch": 62, "duration": 3, "velocity": 96}, {"time": 2917, "pitch": 47, "duration": 17, "velocity": 96}, {"time": 2917, "pitch": 59, "duration": 4, "velocity": 96}, {"time": 2917, "pitch": 66, "duration": 7, "velocity": 97}, {"time": 2920, "pitch": 54, "duration": 7, "velocity": 95}, {"time": 2923, "pitch": 59, "duration": 2, "velocity": 99}, {"time": 2926, "pitch": 59, "duration": 5, "velocity": 97}, {"time": 2926, "pitch": 62, "duration": 5, "velocity": 98}, {"time": 2929, "pitch": 54, "duration": 4, "velocity": 89}, {"time": 2932, "pitch": 59, "duration": 2, "velocity": 99}, {"time": 2932, "pitch": 62, "duration": 4, "velocity": 101}, {"time": 2932, "pitch": 66, "duration": 6, "velocity": 101}, {"time": 2938, "pitch": 59, "duration": 2, "velocity": 98}, {"time": 2941, "pitch": 40, "duration": 20, "velocity": 99}, {"time": 2941, "pitch": 59, "duration": 3, "velocity": 96}, {"time": 2941, "pitch": 64, "duration": 5, "velocity": 101}, {"time": 2944, "pitch": 47, "duration": 13, "velocity": 94}, {"time": 2947, "pitch": 59, "duration": 8, "velocity": 97}, {"time": 2950, "pitch": 64, "duration": 5, "velocity": 95}, {"time": 2956, "pitch": 59, "duration": 3, "velocity": 97}, {"time": 2956, "pitch": 64, "duration": 4, "velocity": 102}, {"time": 2956, "pitch": 68, "duration": 5, "velocity": 101}, {"time": 2959, "pitch": 47, "duration": 2, "velocity": 96}, {"time": 2965, "pitch": 42, "duration": 23, "velocity": 98}, {"time": 2965, "pitch": 66, "duration": 7, "velocity": 96}, {"time": 2968, "pitch": 49, "duration": 20, "velocity": 89}, {"time": 2971, "pitch": 57, "duration": 7, "velocity": 96}, {"time": 2974, "pitch": 61, "duration": 4, "velocity": 99}, {"time": 2980, "pitch": 61, "duration": 9, "velocity": 96}, {"time": 2980, "pitch": 66, "duration": 9, "velocity": 97}, {"time": 2989, "pitch": 38, "duration": 24, "velocity": 95}, {"time": 2989, "pitch": 57, "duration": 4, "velocity": 83}, {"time": 2989, "pitch": 62, "duration": 24, "velocity": 89}, {"time": 2995, "pitch": 45, "duration": 18, "velocity": 77}, {"time": 3001, "pitch": 50, "duration": 11, "velocity": 90}, {"time": 3007, "pitch": 54, "duration": 6, "velocity": 87}, {"time": 3013, "pitch": 40, "duration": 17, "velocity": 94}, {"time": 3013, "pitch": 59, "duration": 13, "velocity": 90}, {"time": 3019, "pitch": 47, "duration": 11, "velocity": 87}, {"time": 3025, "pitch": 56, "duration": 6, "velocity": 101}, {"time": 3031, "pitch": 52, "duration": 2, "velocity": 96}, {"time": 3037, "pitch": 42, "duration": 23, "velocity": 93}, {"time": 3037, "pitch": 54, "duration": 13, "velocity": 83}, {"time": 3037, "pitch": 57, "duration": 15, "velocity": 89}, {"time": 3043, "pitch": 49, "duration": 17, "velocity": 84}, {"time": 3049, "pitch": 61, "duration": 13, "velocity": 90}, {"time": 3055, "pitch": 54, "duration": 7, "velocity": 96}, {"time": 3061, "pitch": 47, "duration": 10, "velocity": 96}, {"time": 3061, "pitch": 59, "duration": 9, "velocity": 89}, {"time": 3061, "pitch": 62, "duration": 8, "velocity": 93}, {"time": 3061, "pitch": 66, "duration": 8, "velocity": 90}, {"time": 3073, "pitch": 45, "duration": 10, "velocity": 97}, {"time": 3073, "pitch": 57, "duration": 8, "velocity": 85}, {"time": 3073, "pitch": 64, "duration": 12, "velocity": 97}, {"time": 3085, "pitch": 43, "duration": 24, "velocity": 89}, {"time": 3085, "pitch": 55, "duration": 8, "velocity": 81}, {"time": 3085, "pitch": 59, "duration": 7, "velocity": 84}, {"time": 3085, "pitch": 62, "duration": 8, "velocity": 90}, {"time": 3091, "pitch": 50, "duration": 9, "velocity": 84}, {"time": 3097, "pitch": 55, "duration": 12, "velocity": 91}, {"time": 3097, "pitch": 59, "duration": 12, "velocity": 91}, {"time": 3097, "pitch": 62, "duration": 12, "velocity": 94}, {"time": 3103, "pitch": 50, "duration": 6, "velocity": 83}, {"time": 3109, "pitch": 44, "duration": 21, "velocity": 96}, {"time": 3112, "pitch": 47, "duration": 15, "velocity": 84}, {"time": 3115, "pitch": 50, "duration": 15, "velocity": 87}, {"time": 3118, "pitch": 56, "duration": 7, "velocity": 87}, {"time": 3121, "pitch": 59, "duration": 4, "velocity": 87}, {"time": 3124, "pitch": 62, "duration": 10, "velocity": 92}, {"time": 3127, "pitch": 56, "duration": 6, "velocity": 82}, {"time": 3133, "pitch": 49, "duration": 21, "velocity": 102}, {"time": 3136, "pitch": 56, "duration": 8, "velocity": 71}, {"time": 3139, "pitch": 61, "duration": 7, "velocity": 96}, {"time": 3142, "pitch": 68, "duration": 4, "velocity": 93}, {"time": 3145, "pitch": 56, "duration": 11, "velocity": 82}, {"time": 3148, "pitch": 61, "duration": 8, "velocity": 78}, {"time": 3148, "pitch": 65, "duration": 7, "velocity": 77}, {"time": 3151, "pitch": 68, "duration": 5, "velocity": 86}, {"time": 3157, "pitch": 49, "duration": 19, "velocity": 85}, {"time": 3157, "pitch": 56, "duration": 19, "velocity": 88}, {"time": 3157, "pitch": 61, "duration": 10, "velocity": 84}, {"time": 3157, "pitch": 65, "duration": 9, "velocity": 92}, {"time": 3157, "pitch": 68, "duration": 9, "velocity": 86}, {"time": 3157, "pitch": 73, "duration": 9, "velocity": 87}, {"time": 3169, "pitch": 61, "duration": 1, "velocity": 73}, {"time": 3169, "pitch": 65, "duration": 11, "velocity": 88}, {"time": 3169, "pitch": 68, "duration": 11, "velocity": 83}, {"time": 3169, "pitch": 73, "duration": 3, "velocity": 49}, {"time": 3172, "pitch": 49, "duration": 4, "velocity": 90}, {"time": 3175, "pitch": 56, "duration": 1, "velocity": 76}, {"time": 3178, "pitch": 61, "duration": 24, "velocity": 80}, {"time": 3181, "pitch": 68, "duration": 21, "velocity": 84}, {"time": 3204, "pitch": 42, "duration": 11, "velocity": 72}, {"time": 3206, "pitch": 49, "duration": 9, "velocity": 72}, {"time": 3207, "pitch": 54, "duration": 5, "velocity": 81}, {"time": 3209, "pitch": 57, "duration": 4, "velocity": 86}, {"time": 3210, "pitch": 66, "duration": 4, "velocity": 83}], "annotations": [{"time": 19, "annotation": {"number": 64, "value": 127}, "group": "control_change"}, {"time": 19, "annotation": {"number": 64, "value": 0}, "group": "control_change"}, {"time": 20, "annotation": {"number": 64, "value": 0}, "group": "control_change"}, {"time": 20, "annotation": {"number": 64, "value": 127}, "group": "control_change"}, {"time": 25, "annotation": {"number": 64, "value": 127}, "group": "control_change"}, {"time": 35, "annotation": {"number": 64, "value": 0}, "group": "control_change"}, {"time": 37, "annotation": {"number": 64, "value": 127}, "group": "control_change"}, {"time": 59, "annotation": {"number": 64, "value": 0}, "group": "control_change"}, {"time": 63, "annotation": {"number": 64, "value": 127}, "group": "control_change"}, {"time": 83, "annotation": {"number": 64, "value": 0}, "group": "control_change"}, {"time": 86, "annotation": {"number": 64, "value": 127}, "group": "control_change"}, {"time": 108, "annotation": {"number": 64, "value": 127}, "group": "control_change"}, {"time": 111, "annotation": {"number": 64, "value": 0}, "group": "control_change"}, {"time": 113, "annotation": {"number": 64, "value": 0}, "group": "control_change"}, {"time": 138, "annotation": {"number": 64, "value": 127}, "group": "control_change"}, {"time": 144, "annotation": {"number": 64, "value": 0}, "group": "control_change"}, {"time": 146, "annotation": {"number": 64, "value": 127}, "group": "control_change"}, {"time": 146, "annotation": {"number": 64, "value": 0}, "group": "control_change"}, {"time": 157, "annotation": {"number": 64, "value": 0}, "group": "control_change"}, {"time": 162, "annotation": {"number": 64, "value": 127}, "group": "control_change"}, {"time": 178, "annotation": {"number": 64, "value": 0}, "group": "control_change"}, {"time": 181, "annotation": {"number": 64, "value": 127}, "group": "control_change"}, {"time": 203, "annotation": {"number": 64, "value": 0}, "group": "control_change"}, {"time": 205, "annotation": {"number": 64, "value": 127}, "group": "control_change"}, {"time": 229, "annotation": {"number": 64, "value": 0}, "group": "control_change"}, {"time": 231, "annotation": {"number": 64, "value": 127}, "group": "control_change"}, {"time": 249, "annotation": {"number": 64, "value": 0}, "group": "control_change"}, {"time": 254, "annotation": {"number": 64, "value": 127}, "group": "control_change"}, {"time": 300, "annotation": {"number": 64, "value": 0}, "group": "control_change"}, {"time": 302, "annotation": {"number": 64, "value": 127}, "group": "control_change"}, {"time": 347, "annotation": {"number": 64, "value": 0}, "group": "control_change"}, {"time": 353, "annotation": {"number": 64, "value": 127}, "group": "control_change"}, {"time": 397, "annotation": {"number": 64, "value": 0}, "group": "control_change"}, {"time": 397, "annotation": {"number": 64, "value": 127}, "group": "control_change"}, {"time": 443, "annotation": {"number": 64, "value": 0}, "group": "control_change"}, {"time": 448, "annotation": {"number": 64, "value": 127}, "group": "control_change"}, {"time": 491, "annotation": {"number": 64, "value": 0}, "group": "control_change"}, {"time": 494, "annotation": {"number": 64, "value": 127}, "group": "control_change"}, {"time": 539, "annotation": {"number": 64, "value": 0}, "group": "control_change"}, {"time": 542, "annotation": {"number": 64, "value": 127}, "group": "control_change"}, {"time": 564, "annotation": {"number": 64, "value": 0}, "group": "control_change"}, {"time": 567, "annotation": {"number": 64, "value": 127}, "group": "control_change"}, {"time": 587, "annotation": {"number": 64, "value": 0}, "group": "control_change"}, {"time": 593, "annotation": {"number": 64, "value": 127}, "group": "control_change"}, {"time": 611, "annotation": {"number": 64, "value": 0}, "group": "control_change"}, {"time": 614, "annotation": {"number": 64, "value": 127}, "group": "control_change"}, {"time": 634, "annotation": {"number": 64, "value": 0}, "group": "control_change"}, {"time": 638, "annotation": {"number": 64, "value": 127}, "group": "control_change"}, {"time": 682, "annotation": {"number": 64, "value": 0}, "group": "control_change"}, {"time": 686, "annotation": {"number": 64, "value": 127}, "group": "control_change"}, {"time": 733, "annotation": {"number": 64, "value": 0}, "group": "control_change"}, {"time": 734, "annotation": {"number": 64, "value": 127}, "group": "control_change"}, {"time": 778, "annotation": {"number": 64, "value": 0}, "group": "control_change"}, {"time": 781, "annotation": {"number": 64, "value": 127}, "group": "control_change"}, {"time": 804, "annotation": {"number": 64, "value": 0}, "group": "control_change"}, {"time": 805, "annotation": {"number": 64, "value": 127}, "group": "control_change"}, {"time": 825, "annotation": {"number": 64, "value": 0}, "group": "control_change"}, {"time": 830, "annotation": {"number": 64, "value": 127}, "group": "control_change"}, {"time": 830, "annotation": {"number": 64, "value": 0}, "group": "control_change"}, {"time": 876, "annotation": {"number": 64, "value": 0}, "group": "control_change"}, {"time": 877, "annotation": {"number": 64, "value": 127}, "group": "control_change"}, {"time": 924, "annotation": {"number": 64, "value": 0}, "group": "control_change"}, {"time": 926, "annotation": {"number": 64, "value": 127}, "group": "control_change"}, {"time": 947, "annotation": {"number": 64, "value": 0}, "group": "control_change"}, {"time": 950, "annotation": {"number": 64, "value": 127}, "group": "control_change"}, {"time": 971, "annotation": {"number": 64, "value": 0}, "group": "control_change"}, {"time": 974, "annotation": {"number": 64, "value": 127}, "group": "control_change"}, {"time": 996, "annotation": {"number": 64, "value": 0}, "group": "control_change"}, {"time": 999, "annotation": {"number": 64, "value": 127}, "group": "control_change"}, {"time": 999, "annotation": {"number": 64, "value": 0}, "group": "control_change"}, {"time": 1018, "annotation": {"number": 64, "value": 0}, "group": "control_change"}, {"time": 1021, "annotation": {"number": 64, "value": 127}, "group": "control_change"}, {"time": 1044, "annotation": {"number": 64, "value": 0}, "group": "control_change"}, {"time": 1046, "annotation": {"number": 64, "value": 127}, "group": "control_change"}, {"time": 1067, "annotation": {"number": 64, "value": 0}, "group": "control_change"}, {"time": 1072, "annotation": {"number": 64, "value": 127}, "group": "control_change"}, {"time": 1092, "annotation": {"number": 64, "value": 0}, "group": "control_change"}, {"time": 1096, "annotation": {"number": 64, "value": 127}, "group": "control_change"}, {"time": 1115, "annotation": {"number": 64, "value": 0}, "group": "control_change"}, {"time": 1118, "annotation": {"number": 64, "value": 127}, "group": "control_change"}, {"time": 1140, "annotation": {"number": 64, "value": 0}, "group": "control_change"}, {"time": 1143, "annotation": {"number": 64, "value": 127}, "group": "control_change"}, {"time": 1163, "annotation": {"number": 64, "value": 0}, "group": "control_change"}, {"time": 1167, "annotation": {"number": 64, "value": 127}, "group": "control_change"}, {"time": 1188, "annotation": {"number": 64, "value": 0}, "group": "control_change"}, {"time": 1190, "annotation": {"number": 64, "value": 127}, "group": "control_change"}, {"time": 1211, "annotation": {"number": 64, "value": 0}, "group": "control_change"}, {"time": 1213, "annotation": {"number": 64, "value": 127}, "group": "control_change"}, {"time": 1236, "annotation": {"number": 64, "value": 0}, "group": "control_change"}, {"time": 1238, "annotation": {"number": 64, "value": 127}, "group": "control_change"}, {"time": 1259, "annotation": {"number": 64, "value": 0}, "group": "control_change"}, {"time": 1264, "annotation": {"number": 64, "value": 127}, "group": "control_change"}, {"time": 1284, "annotation": {"number": 64, "value": 0}, "group": "control_change"}, {"time": 1286, "annotation": {"number": 64, "value": 127}, "group": "control_change"}, {"time": 1305, "annotation": {"number": 64, "value": 0}, "group": "control_change"}, {"time": 1309, "annotation": {"number": 64, "value": 127}, "group": "control_change"}, {"time": 1331, "annotation": {"number": 64, "value": 0}, "group": "control_change"}, {"time": 1333, "annotation": {"number": 64, "value": 127}, "group": "control_change"}, {"time": 1333, "annotation": {"number": 64, "value": 0}, "group": "control_change"}, {"time": 1355, "annotation": {"number": 64, "value": 0}, "group": "control_change"}, {"time": 1358, "annotation": {"number": 64, "value": 127}, "group": "control_change"}, {"time": 1380, "annotation": {"number": 64, "value": 0}, "group": "control_change"}, {"time": 1382, "annotation": {"number": 64, "value": 127}, "group": "control_change"}, {"time": 1403, "annotation": {"number": 64, "value": 0}, "group": "control_change"}, {"time": 1405, "annotation": {"number": 64, "value": 127}, "group": "control_change"}, {"time": 1451, "annotation": {"number": 64, "value": 0}, "group": "control_change"}, {"time": 1453, "annotation": {"number": 64, "value": 127}, "group": "control_change"}, {"time": 1501, "annotation": {"number": 64, "value": 0}, "group": "control_change"}, {"time": 1502, "annotation": {"number": 64, "value": 127}, "group": "control_change"}, {"time": 1502, "annotation": {"number": 64, "value": 0}, "group": "control_change"}, {"time": 1546, "annotation": {"number": 64, "value": 0}, "group": "control_change"}, {"time": 1549, "annotation": {"number": 64, "value": 127}, "group": "control_change"}, {"time": 1572, "annotation": {"number": 64, "value": 0}, "group": "control_change"}, {"time": 1573, "annotation": {"number": 64, "value": 127}, "group": "control_change"}, {"time": 1595, "annotation": {"number": 64, "value": 0}, "group": "control_change"}, {"time": 1598, "annotation": {"number": 64, "value": 127}, "group": "control_change"}, {"time": 1642, "annotation": {"number": 64, "value": 0}, "group": "control_change"}, {"time": 1646, "annotation": {"number": 64, "value": 127}, "group": "control_change"}, {"time": 1693, "annotation": {"number": 64, "value": 0}, "group": "control_change"}, {"time": 1694, "annotation": {"number": 64, "value": 127}, "group": "control_change"}, {"time": 1738, "annotation": {"number": 64, "value": 0}, "group": "control_change"}, {"time": 1741, "annotation": {"number": 64, "value": 127}, "group": "control_change"}, {"time": 1764, "annotation": {"number": 64, "value": 0}, "group": "control_change"}, {"time": 1765, "annotation": {"number": 64, "value": 127}, "group": "control_change"}, {"time": 1785, "annotation": {"number": 64, "value": 0}, "group": "control_change"}, {"time": 1790, "annotation": {"number": 64, "value": 127}, "group": "control_change"}, {"time": 1790, "annotation": {"number": 64, "value": 0}, "group": "control_change"}, {"time": 1836, "annotation": {"number": 64, "value": 0}, "group": "control_change"}, {"time": 1837, "annotation": {"number": 64, "value": 127}, "group": "control_change"}, {"time": 1884, "annotation": {"number": 64, "value": 0}, "group": "control_change"}, {"time": 1886, "annotation": {"number": 64, "value": 127}, "group": "control_change"}, {"time": 1907, "annotation": {"number": 64, "value": 0}, "group": "control_change"}, {"time": 1910, "annotation": {"number": 64, "value": 127}, "group": "control_change"}, {"time": 1931, "annotation": {"number": 64, "value": 0}, "group": "control_change"}, {"time": 1934, "annotation": {"number": 64, "value": 127}, "group": "control_change"}, {"time": 1956, "annotation": {"number": 64, "value": 0}, "group": "control_change"}, {"time": 1959, "annotation": {"number": 64, "value": 127}, "group": "control_change"}, {"time": 1959, "annotation": {"number": 64, "value": 0}, "group": "control_change"}, {"time": 1978, "annotation": {"number": 64, "value": 0}, "group": "control_change"}, {"time": 1981, "annotation": {"number": 64, "value": 127}, "group": "control_change"}, {"time": 2004, "annotation": {"number": 64, "value": 0}, "group": "control_change"}, {"time": 2006, "annotation": {"number": 64, "value": 127}, "group": "control_change"}, {"time": 2027, "annotation": {"number": 64, "value": 0}, "group": "control_change"}, {"time": 2032, "annotation": {"number": 64, "value": 127}, "group": "control_change"}, {"time": 2052, "annotation": {"number": 64, "value": 0}, "group": "control_change"}, {"time": 2056, "annotation": {"number": 64, "value": 127}, "group": "control_change"}, {"time": 2075, "annotation": {"number": 64, "value": 0}, "group": "control_change"}, {"time": 2078, "annotation": {"number": 64, "value": 127}, "group": "control_change"}, {"time": 2100, "annotation": {"number": 64, "value": 0}, "group": "control_change"}, {"time": 2103, "annotation": {"number": 64, "value": 127}, "group": "control_change"}, {"time": 2123, "annotation": {"number": 64, "value": 0}, "group": "control_change"}, {"time": 2127, "annotation": {"number": 64, "value": 127}, "group": "control_change"}, {"time": 2148, "annotation": {"number": 64, "value": 0}, "group": "control_change"}, {"time": 2150, "annotation": {"number": 64, "value": 127}, "group": "control_change"}, {"time": 2171, "annotation": {"number": 64, "value": 0}, "group": "control_change"}, {"time": 2173, "annotation": {"number": 64, "value": 127}, "group": "control_change"}, {"time": 2196, "annotation": {"number": 64, "value": 0}, "group": "control_change"}, {"time": 2198, "annotation": {"number": 64, "value": 127}, "group": "control_change"}, {"time": 2219, "annotation": {"number": 64, "value": 0}, "group": "control_change"}, {"time": 2224, "annotation": {"number": 64, "value": 127}, "group": "control_change"}, {"time": 2244, "annotation": {"number": 64, "value": 0}, "group": "control_change"}, {"time": 2246, "annotation": {"number": 64, "value": 127}, "group": "control_change"}, {"time": 2265, "annotation": {"number": 64, "value": 0}, "group": "control_change"}, {"time": 2269, "annotation": {"number": 64, "value": 127}, "group": "control_change"}, {"time": 2291, "annotation": {"number": 64, "value": 0}, "group": "control_change"}, {"time": 2293, "annotation": {"number": 64, "value": 127}, "group": "control_change"}, {"time": 2293, "annotation": {"number": 64, "value": 0}, "group": "control_change"}, {"time": 2315, "annotation": {"number": 64, "value": 0}, "group": "control_change"}, {"time": 2318, "annotation": {"number": 64, "value": 127}, "group": "control_change"}, {"time": 2340, "annotation": {"number": 64, "value": 0}, "group": "control_change"}, {"time": 2342, "annotation": {"number": 64, "value": 127}, "group": "control_change"}, {"time": 2363, "annotation": {"number": 64, "value": 0}, "group": "control_change"}, {"time": 2365, "annotation": {"number": 64, "value": 127}, "group": "control_change"}, {"time": 2366, "annotation": {"number": 64, "value": 127}, "group": "control_change"}, {"time": 2366, "annotation": {"number": 64, "value": 0}, "group": "control_change"}, {"time": 2389, "annotation": {"number": 64, "value": 0}, "group": "control_change"}, {"time": 2391, "annotation": {"number": 64, "value": 127}, "group": "control_change"}, {"time": 2411, "annotation": {"number": 64, "value": 0}, "group": "control_change"}, {"time": 2413, "annotation": {"number": 64, "value": 127}, "group": "control_change"}, {"time": 2436, "annotation": {"number": 64, "value": 0}, "group": "control_change"}, {"time": 2437, "annotation": {"number": 64, "value": 127}, "group": "control_change"}, {"time": 2460, "annotation": {"number": 64, "value": 0}, "group": "control_change"}, {"time": 2462, "annotation": {"number": 64, "value": 127}, "group": "control_change"}, {"time": 2484, "annotation": {"number": 64, "value": 0}, "group": "control_change"}, {"time": 2487, "annotation": {"number": 64, "value": 127}, "group": "control_change"}, {"time": 2508, "annotation": {"number": 64, "value": 0}, "group": "control_change"}, {"time": 2511, "annotation": {"number": 64, "value": 127}, "group": "control_change"}, {"time": 2532, "annotation": {"number": 64, "value": 0}, "group": "control_change"}, {"time": 2533, "annotation": {"number": 64, "value": 127}, "group": "control_change"}, {"time": 2555, "annotation": {"number": 64, "value": 0}, "group": "control_change"}, {"time": 2560, "annotation": {"number": 64, "value": 127}, "group": "control_change"}, {"time": 2581, "annotation": {"number": 64, "value": 0}, "group": "control_change"}, {"time": 2583, "annotation": {"number": 64, "value": 127}, "group": "control_change"}, {"time": 2601, "annotation": {"number": 64, "value": 0}, "group": "control_change"}, {"time": 2605, "annotation": {"number": 64, "value": 127}, "group": "control_change"}, {"time": 2628, "annotation": {"number": 64, "value": 0}, "group": "control_change"}, {"time": 2630, "annotation": {"number": 64, "value": 127}, "group": "control_change"}, {"time": 2651, "annotation": {"number": 64, "value": 0}, "group": "control_change"}, {"time": 2656, "annotation": {"number": 64, "value": 127}, "group": "control_change"}, {"time": 2676, "annotation": {"number": 64, "value": 0}, "group": "control_change"}, {"time": 2680, "annotation": {"number": 64, "value": 127}, "group": "control_change"}, {"time": 2699, "annotation": {"number": 64, "value": 0}, "group": "control_change"}, {"time": 2702, "annotation": {"number": 64, "value": 127}, "group": "control_change"}, {"time": 2724, "annotation": {"number": 64, "value": 0}, "group": "control_change"}, {"time": 2727, "annotation": {"number": 64, "value": 127}, "group": "control_change"}, {"time": 2747, "annotation": {"number": 64, "value": 0}, "group": "control_change"}, {"time": 2751, "annotation": {"number": 64, "value": 127}, "group": "control_change"}, {"time": 2772, "annotation": {"number": 64, "value": 0}, "group": "control_change"}, {"time": 2774, "annotation": {"number": 64, "value": 127}, "group": "control_change"}, {"time": 2795, "annotation": {"number": 64, "value": 0}, "group": "control_change"}, {"time": 2797, "annotation": {"number": 64, "value": 127}, "group": "control_change"}, {"time": 2820, "annotation": {"number": 64, "value": 0}, "group": "control_change"}, {"time": 2822, "annotation": {"number": 64, "value": 127}, "group": "control_change"}, {"time": 2843, "annotation": {"number": 64, "value": 0}, "group": "control_change"}, {"time": 2848, "annotation": {"number": 64, "value": 127}, "group": "control_change"}, {"time": 2868, "annotation": {"number": 64, "value": 0}, "group": "control_change"}, {"time": 2870, "annotation": {"number": 64, "value": 127}, "group": "control_change"}, {"time": 2889, "annotation": {"number": 64, "value": 0}, "group": "control_change"}, {"time": 2893, "annotation": {"number": 64, "value": 127}, "group": "control_change"}, {"time": 2915, "annotation": {"number": 64, "value": 0}, "group": "control_change"}, {"time": 2917, "annotation": {"number": 64, "value": 127}, "group": "control_change"}, {"time": 2917, "annotation": {"number": 64, "value": 0}, "group": "control_change"}, {"time": 2939, "annotation": {"number": 64, "value": 0}, "group": "control_change"}, {"time": 2942, "annotation": {"number": 64, "value": 127}, "group": "control_change"}, {"time": 2964, "annotation": {"number": 64, "value": 0}, "group": "control_change"}, {"time": 2966, "annotation": {"number": 64, "value": 127}, "group": "control_change"}, {"time": 2987, "annotation": {"number": 64, "value": 0}, "group": "control_change"}, {"time": 2989, "annotation": {"number": 64, "value": 127}, "group": "control_change"}, {"time": 2991, "annotation": {"number": 64, "value": 127}, "group": "control_change"}, {"time": 3011, "annotation": {"number": 64, "value": 0}, "group": "control_change"}, {"time": 3014, "annotation": {"number": 64, "value": 127}, "group": "control_change"}, {"time": 3036, "annotation": {"number": 64, "value": 127}, "group": "control_change"}, {"time": 3039, "annotation": {"number": 64, "value": 0}, "group": "control_change"}, {"time": 3041, "annotation": {"number": 64, "value": 0}, "group": "control_change"}, {"time": 3066, "annotation": {"number": 64, "value": 127}, "group": "control_change"}, {"time": 3072, "annotation": {"number": 64, "value": 0}, "group": "control_change"}, {"time": 3074, "annotation": {"number": 64, "value": 127}, "group": "control_change"}, {"time": 3074, "annotation": {"number": 64, "value": 0}, "group": "control_change"}, {"time": 3085, "annotation": {"number": 64, "value": 0}, "group": "control_change"}, {"time": 3090, "annotation": {"number": 64, "value": 127}, "group": "control_change"}, {"time": 3106, "annotation": {"number": 64, "value": 0}, "group": "control_change"}, {"time": 3109, "annotation": {"number": 64, "value": 127}, "group": "control_change"}, {"time": 3131, "annotation": {"number": 64, "value": 0}, "group": "control_change"}, {"time": 3133, "annotation": {"number": 64, "value": 127}, "group": "control_change"}, {"time": 3157, "annotation": {"number": 64, "value": 0}, "group": "control_change"}, {"time": 3159, "annotation": {"number": 64, "value": 127}, "group": "control_change"}, {"time": 3177, "annotation": {"number": 64, "value": 0}, "group": "control_change"}, {"time": 3197, "annotation": {"number": 64, "value": 127}, "group": "control_change"}, {"time": 3197, "annotation": {"number": 64, "value": 0}, "group": "control_change"}, {"time": 3198, "annotation": {"number": 64, "value": 127}, "group": "control_change"}, {"time": 3245, "annotation": {"number": 64, "value": 0}, "group": "control_change"}]}]}