{"metadata": {"schema_version": "0.2", "title": "None", "source_filename": "522.mid", "source_format": "midi"}, "resolution": 12, "tempos": [{"time": 0, "qpm": 76.00006586672374}, {"time": 2172, "qpm": 76.10012239436352}, {"time": 2635, "qpm": 76.00006586672374}], "time_signatures": [{"time": 0, "numerator": 1, "denominator": 4}], "tracks": [{"program": 0, "is_drum": false, "name": "MELODY", "notes": [{"time": 683, "pitch": 64, "duration": 3, "velocity": 93}, {"time": 689, "pitch": 64, "duration": 3, "velocity": 92}, {"time": 695, "pitch": 64, "duration": 4, "velocity": 96}, {"time": 701, "pitch": 64, "duration": 4, "velocity": 98}, {"time": 707, "pitch": 64, "duration": 10, "velocity": 96}, {"time": 719, "pitch": 61, "duration": 11, "velocity": 100}, {"time": 731, "pitch": 59, "duration": 16, "velocity": 98}, {"time": 755, "pitch": 59, "duration": 11, "velocity": 98}, {"time": 767, "pitch": 61, "duration": 12, "velocity": 94}, {"time": 779, "pitch": 64, "duration": 4, "velocity": 92}, {"time": 785, "pitch": 64, "duration": 3, "velocity": 95}, {"time": 791, "pitch": 64, "duration": 3, "velocity": 97}, {"time": 797, "pitch": 64, "duration": 3, "velocity": 103}, {"time": 803, "pitch": 64, "duration": 11, "velocity": 98}, {"time": 815, "pitch": 66, "duration": 3, "velocity": 94}, {"time": 821, "pitch": 68, "duration": 33, "velocity": 98}, {"time": 875, "pitch": 66, "duration": 4, "velocity": 96}, {"time": 881, "pitch": 66, "duration": 3, "velocity": 94}, {"time": 887, "pitch": 66, "duration": 4, "velocity": 95}, {"time": 893, "pitch": 66, "duration": 3, "velocity": 95}, {"time": 899, "pitch": 66, "duration": 10, "velocity": 97}, {"time": 911, "pitch": 64, "duration": 6, "velocity": 98}, {"time": 917, "pitch": 68, "duration": 23, "velocity": 96}, {"time": 947, "pitch": 66, "duration": 10, "velocity": 91}, {"time": 959, "pitch": 64, "duration": 10, "velocity": 99}, {"time": 971, "pitch": 61, "duration": 4, "velocity": 95}, {"time": 977, "pitch": 61, "duration": 4, "velocity": 95}, {"time": 983, "pitch": 61, "duration": 4, "velocity": 96}, {"time": 989, "pitch": 61, "duration": 4, "velocity": 94}, {"time": 995, "pitch": 61, "duration": 10, "velocity": 100}, {"time": 1007, "pitch": 64, "duration": 12, "velocity": 93}, {"time": 1019, "pitch": 61, "duration": 29, "velocity": 96}, {"time": 1067, "pitch": 64, "duration": 3, "velocity": 93}, {"time": 1073, "pitch": 64, "duration": 3, "velocity": 92}, {"time": 1079, "pitch": 64, "duration": 4, "velocity": 96}, {"time": 1085, "pitch": 64, "duration": 4, "velocity": 98}, {"time": 1091, "pitch": 64, "duration": 10, "velocity": 96}, {"time": 1103, "pitch": 61, "duration": 11, "velocity": 100}, {"time": 1115, "pitch": 59, "duration": 16, "velocity": 98}, {"time": 1139, "pitch": 59, "duration": 11, "velocity": 98}, {"time": 1151, "pitch": 61, "duration": 12, "velocity": 94}, {"time": 1163, "pitch": 64, "duration": 4, "velocity": 92}, {"time": 1169, "pitch": 64, "duration": 3, "velocity": 95}, {"time": 1175, "pitch": 64, "duration": 3, "velocity": 97}, {"time": 1181, "pitch": 64, "duration": 3, "velocity": 103}, {"time": 1187, "pitch": 64, "duration": 11, "velocity": 98}, {"time": 1199, "pitch": 66, "duration": 3, "velocity": 94}, {"time": 1205, "pitch": 68, "duration": 33, "velocity": 98}, {"time": 1259, "pitch": 66, "duration": 4, "velocity": 96}, {"time": 1265, "pitch": 66, "duration": 3, "velocity": 94}, {"time": 1271, "pitch": 66, "duration": 4, "velocity": 95}, {"time": 1277, "pitch": 66, "duration": 3, "velocity": 95}, {"time": 1283, "pitch": 66, "duration": 10, "velocity": 97}, {"time": 1295, "pitch": 64, "duration": 6, "velocity": 98}, {"time": 1301, "pitch": 68, "duration": 23, "velocity": 96}, {"time": 1331, "pitch": 68, "duration": 11, "velocity": 96}, {"time": 1343, "pitch": 66, "duration": 10, "velocity": 97}, {"time": 1355, "pitch": 68, "duration": 4, "velocity": 96}, {"time": 1361, "pitch": 68, "duration": 4, "velocity": 89}, {"time": 1367, "pitch": 68, "duration": 4, "velocity": 98}, {"time": 1373, "pitch": 68, "duration": 4, "velocity": 96}, {"time": 1379, "pitch": 68, "duration": 9, "velocity": 99}, {"time": 1391, "pitch": 71, "duration": 4, "velocity": 98}, {"time": 1397, "pitch": 73, "duration": 50, "velocity": 101}, {"time": 1451, "pitch": 73, "duration": 4, "velocity": 98}, {"time": 1457, "pitch": 73, "duration": 4, "velocity": 100}, {"time": 1463, "pitch": 73, "duration": 4, "velocity": 98}, {"time": 1469, "pitch": 73, "duration": 4, "velocity": 99}, {"time": 1475, "pitch": 71, "duration": 9, "velocity": 100}, {"time": 1487, "pitch": 68, "duration": 11, "velocity": 97}, {"time": 1499, "pitch": 66, "duration": 18, "velocity": 97}, {"time": 1517, "pitch": 68, "duration": 5, "velocity": 96}, {"time": 1523, "pitch": 66, "duration": 10, "velocity": 98}, {"time": 1535, "pitch": 68, "duration": 10, "velocity": 98}, {"time": 1547, "pitch": 71, "duration": 4, "velocity": 96}, {"time": 1553, "pitch": 71, "duration": 4, "velocity": 98}, {"time": 1559, "pitch": 71, "duration": 4, "velocity": 98}, {"time": 1565, "pitch": 71, "duration": 4, "velocity": 99}, {"time": 1571, "pitch": 71, "duration": 10, "velocity": 98}, {"time": 1583, "pitch": 68, "duration": 10, "velocity": 99}, {"time": 1595, "pitch": 66, "duration": 14, "velocity": 95}, {"time": 1613, "pitch": 68, "duration": 4, "velocity": 96}, {"time": 1619, "pitch": 66, "duration": 10, "velocity": 94}, {"time": 1631, "pitch": 64, "duration": 9, "velocity": 97}, {"time": 1643, "pitch": 61, "duration": 4, "velocity": 100}, {"time": 1649, "pitch": 61, "duration": 4, "velocity": 94}, {"time": 1655, "pitch": 61, "duration": 4, "velocity": 96}, {"time": 1661, "pitch": 61, "duration": 3, "velocity": 99}, {"time": 1667, "pitch": 61, "duration": 10, "velocity": 101}, {"time": 1679, "pitch": 64, "duration": 10, "velocity": 101}, {"time": 1691, "pitch": 66, "duration": 4, "velocity": 90}, {"time": 1697, "pitch": 66, "duration": 4, "velocity": 92}, {"time": 1703, "pitch": 66, "duration": 4, "velocity": 95}, {"time": 1709, "pitch": 66, "duration": 3, "velocity": 94}, {"time": 1715, "pitch": 66, "duration": 12, "velocity": 95}, {"time": 1727, "pitch": 68, "duration": 10, "velocity": 95}, {"time": 1739, "pitch": 61, "duration": 5, "velocity": 94}, {"time": 1745, "pitch": 61, "duration": 4, "velocity": 90}, {"time": 1751, "pitch": 61, "duration": 4, "velocity": 95}, {"time": 1757, "pitch": 61, "duration": 4, "velocity": 96}, {"time": 1763, "pitch": 61, "duration": 12, "velocity": 98}, {"time": 1775, "pitch": 64, "duration": 10, "velocity": 97}, {"time": 1787, "pitch": 61, "duration": 39, "velocity": 95}, {"time": 1835, "pitch": 73, "duration": 4, "velocity": 98}, {"time": 1841, "pitch": 73, "duration": 4, "velocity": 100}, {"time": 1847, "pitch": 73, "duration": 4, "velocity": 98}, {"time": 1853, "pitch": 73, "duration": 4, "velocity": 99}, {"time": 1859, "pitch": 71, "duration": 9, "velocity": 100}, {"time": 1871, "pitch": 68, "duration": 11, "velocity": 97}, {"time": 1883, "pitch": 66, "duration": 18, "velocity": 97}, {"time": 1901, "pitch": 68, "duration": 5, "velocity": 96}, {"time": 1907, "pitch": 66, "duration": 10, "velocity": 98}, {"time": 1919, "pitch": 68, "duration": 10, "velocity": 98}, {"time": 1931, "pitch": 71, "duration": 4, "velocity": 96}, {"time": 1937, "pitch": 71, "duration": 4, "velocity": 98}, {"time": 1943, "pitch": 71, "duration": 4, "velocity": 98}, {"time": 1949, "pitch": 71, "duration": 4, "velocity": 99}, {"time": 1955, "pitch": 71, "duration": 10, "velocity": 98}, {"time": 1967, "pitch": 68, "duration": 10, "velocity": 99}, {"time": 1979, "pitch": 66, "duration": 14, "velocity": 95}, {"time": 1997, "pitch": 68, "duration": 4, "velocity": 96}, {"time": 2003, "pitch": 66, "duration": 10, "velocity": 94}, {"time": 2015, "pitch": 64, "duration": 9, "velocity": 97}, {"time": 2027, "pitch": 61, "duration": 4, "velocity": 100}, {"time": 2033, "pitch": 61, "duration": 4, "velocity": 94}, {"time": 2039, "pitch": 61, "duration": 4, "velocity": 96}, {"time": 2045, "pitch": 61, "duration": 3, "velocity": 99}, {"time": 2051, "pitch": 61, "duration": 10, "velocity": 101}, {"time": 2063, "pitch": 64, "duration": 10, "velocity": 101}, {"time": 2075, "pitch": 66, "duration": 4, "velocity": 90}, {"time": 2081, "pitch": 66, "duration": 4, "velocity": 92}, {"time": 2087, "pitch": 66, "duration": 4, "velocity": 95}, {"time": 2093, "pitch": 66, "duration": 3, "velocity": 94}, {"time": 2099, "pitch": 66, "duration": 12, "velocity": 95}, {"time": 2111, "pitch": 68, "duration": 10, "velocity": 95}, {"time": 2123, "pitch": 71, "duration": 5, "velocity": 94}, {"time": 2129, "pitch": 71, "duration": 4, "velocity": 90}, {"time": 2135, "pitch": 71, "duration": 4, "velocity": 95}, {"time": 2141, "pitch": 71, "duration": 4, "velocity": 96}, {"time": 2147, "pitch": 71, "duration": 12, "velocity": 98}, {"time": 2159, "pitch": 68, "duration": 6, "velocity": 97}, {"time": 2165, "pitch": 73, "duration": 45, "velocity": 95}, {"time": 2699, "pitch": 64, "duration": 3, "velocity": 93}, {"time": 2705, "pitch": 64, "duration": 3, "velocity": 92}, {"time": 2711, "pitch": 64, "duration": 4, "velocity": 96}, {"time": 2717, "pitch": 64, "duration": 4, "velocity": 98}, {"time": 2723, "pitch": 64, "duration": 10, "velocity": 96}, {"time": 2735, "pitch": 61, "duration": 11, "velocity": 100}, {"time": 2747, "pitch": 59, "duration": 16, "velocity": 98}, {"time": 2771, "pitch": 59, "duration": 11, "velocity": 98}, {"time": 2783, "pitch": 61, "duration": 12, "velocity": 94}, {"time": 2795, "pitch": 64, "duration": 4, "velocity": 92}, {"time": 2801, "pitch": 64, "duration": 3, "velocity": 95}, {"time": 2807, "pitch": 64, "duration": 3, "velocity": 97}, {"time": 2813, "pitch": 64, "duration": 3, "velocity": 103}, {"time": 2819, "pitch": 64, "duration": 11, "velocity": 98}, {"time": 2831, "pitch": 66, "duration": 3, "velocity": 94}, {"time": 2837, "pitch": 68, "duration": 33, "velocity": 98}, {"time": 2891, "pitch": 66, "duration": 4, "velocity": 96}, {"time": 2897, "pitch": 66, "duration": 3, "velocity": 94}, {"time": 2903, "pitch": 66, "duration": 4, "velocity": 95}, {"time": 2909, "pitch": 66, "duration": 3, "velocity": 95}, {"time": 2915, "pitch": 66, "duration": 10, "velocity": 97}, {"time": 2927, "pitch": 64, "duration": 6, "velocity": 98}, {"time": 2933, "pitch": 68, "duration": 23, "velocity": 96}, {"time": 2963, "pitch": 68, "duration": 11, "velocity": 96}, {"time": 2975, "pitch": 66, "duration": 10, "velocity": 97}, {"time": 2987, "pitch": 68, "duration": 4, "velocity": 96}, {"time": 2993, "pitch": 68, "duration": 4, "velocity": 89}, {"time": 2999, "pitch": 68, "duration": 4, "velocity": 98}, {"time": 3005, "pitch": 68, "duration": 4, "velocity": 96}, {"time": 3011, "pitch": 68, "duration": 9, "velocity": 99}, {"time": 3023, "pitch": 71, "duration": 4, "velocity": 98}, {"time": 3029, "pitch": 73, "duration": 50, "velocity": 101}, {"time": 3083, "pitch": 73, "duration": 4, "velocity": 98}, {"time": 3089, "pitch": 73, "duration": 4, "velocity": 100}, {"time": 3095, "pitch": 73, "duration": 4, "velocity": 98}, {"time": 3101, "pitch": 73, "duration": 4, "velocity": 99}, {"time": 3107, "pitch": 71, "duration": 9, "velocity": 100}, {"time": 3119, "pitch": 68, "duration": 11, "velocity": 97}, {"time": 3131, "pitch": 66, "duration": 18, "velocity": 97}, {"time": 3149, "pitch": 68, "duration": 5, "velocity": 96}, {"time": 3155, "pitch": 66, "duration": 10, "velocity": 98}, {"time": 3167, "pitch": 68, "duration": 10, "velocity": 98}, {"time": 3179, "pitch": 71, "duration": 4, "velocity": 96}, {"time": 3185, "pitch": 71, "duration": 4, "velocity": 98}, {"time": 3191, "pitch": 71, "duration": 4, "velocity": 98}, {"time": 3197, "pitch": 71, "duration": 4, "velocity": 99}, {"time": 3203, "pitch": 71, "duration": 10, "velocity": 98}, {"time": 3215, "pitch": 68, "duration": 10, "velocity": 99}, {"time": 3227, "pitch": 66, "duration": 14, "velocity": 95}, {"time": 3245, "pitch": 68, "duration": 4, "velocity": 96}, {"time": 3251, "pitch": 66, "duration": 10, "velocity": 94}, {"time": 3263, "pitch": 64, "duration": 9, "velocity": 97}, {"time": 3275, "pitch": 61, "duration": 4, "velocity": 100}, {"time": 3281, "pitch": 61, "duration": 4, "velocity": 94}, {"time": 3287, "pitch": 61, "duration": 4, "velocity": 96}, {"time": 3293, "pitch": 61, "duration": 3, "velocity": 99}, {"time": 3299, "pitch": 61, "duration": 10, "velocity": 101}, {"time": 3311, "pitch": 64, "duration": 10, "velocity": 101}, {"time": 3323, "pitch": 66, "duration": 4, "velocity": 90}, {"time": 3329, "pitch": 66, "duration": 4, "velocity": 92}, {"time": 3335, "pitch": 66, "duration": 4, "velocity": 95}, {"time": 3341, "pitch": 66, "duration": 3, "velocity": 94}, {"time": 3347, "pitch": 66, "duration": 12, "velocity": 95}, {"time": 3359, "pitch": 68, "duration": 10, "velocity": 95}, {"time": 3371, "pitch": 61, "duration": 5, "velocity": 94}, {"time": 3377, "pitch": 61, "duration": 4, "velocity": 90}, {"time": 3383, "pitch": 61, "duration": 4, "velocity": 95}, {"time": 3389, "pitch": 61, "duration": 4, "velocity": 96}, {"time": 3395, "pitch": 61, "duration": 12, "velocity": 98}, {"time": 3407, "pitch": 64, "duration": 10, "velocity": 97}, {"time": 3419, "pitch": 61, "duration": 39, "velocity": 95}, {"time": 3467, "pitch": 73, "duration": 4, "velocity": 98}, {"time": 3473, "pitch": 73, "duration": 4, "velocity": 100}, {"time": 3479, "pitch": 73, "duration": 4, "velocity": 98}, {"time": 3485, "pitch": 73, "duration": 4, "velocity": 99}, {"time": 3491, "pitch": 71, "duration": 9, "velocity": 100}, {"time": 3503, "pitch": 68, "duration": 11, "velocity": 97}, {"time": 3515, "pitch": 66, "duration": 18, "velocity": 97}, {"time": 3533, "pitch": 68, "duration": 5, "velocity": 96}, {"time": 3539, "pitch": 66, "duration": 10, "velocity": 98}, {"time": 3551, "pitch": 68, "duration": 10, "velocity": 98}, {"time": 3563, "pitch": 71, "duration": 4, "velocity": 96}, {"time": 3569, "pitch": 71, "duration": 4, "velocity": 98}, {"time": 3575, "pitch": 71, "duration": 4, "velocity": 98}, {"time": 3581, "pitch": 71, "duration": 4, "velocity": 99}, {"time": 3587, "pitch": 71, "duration": 10, "velocity": 98}, {"time": 3599, "pitch": 68, "duration": 10, "velocity": 99}, {"time": 3611, "pitch": 66, "duration": 14, "velocity": 95}, {"time": 3629, "pitch": 68, "duration": 4, "velocity": 96}, {"time": 3635, "pitch": 66, "duration": 10, "velocity": 94}, {"time": 3647, "pitch": 64, "duration": 9, "velocity": 97}, {"time": 3659, "pitch": 61, "duration": 4, "velocity": 100}, {"time": 3665, "pitch": 61, "duration": 4, "velocity": 94}, {"time": 3671, "pitch": 61, "duration": 4, "velocity": 96}, {"time": 3677, "pitch": 61, "duration": 3, "velocity": 99}, {"time": 3683, "pitch": 61, "duration": 10, "velocity": 101}, {"time": 3695, "pitch": 64, "duration": 10, "velocity": 101}, {"time": 3707, "pitch": 66, "duration": 4, "velocity": 90}, {"time": 3713, "pitch": 66, "duration": 4, "velocity": 92}, {"time": 3719, "pitch": 66, "duration": 4, "velocity": 95}, {"time": 3725, "pitch": 66, "duration": 3, "velocity": 94}, {"time": 3731, "pitch": 66, "duration": 12, "velocity": 95}, {"time": 3743, "pitch": 68, "duration": 10, "velocity": 95}, {"time": 3755, "pitch": 71, "duration": 5, "velocity": 94}, {"time": 3761, "pitch": 71, "duration": 4, "velocity": 90}, {"time": 3767, "pitch": 71, "duration": 4, "velocity": 95}, {"time": 3773, "pitch": 71, "duration": 4, "velocity": 96}, {"time": 3779, "pitch": 71, "duration": 12, "velocity": 98}, {"time": 3791, "pitch": 68, "duration": 6, "velocity": 97}, {"time": 3797, "pitch": 73, "duration": 45, "velocity": 95}]}, {"program": 0, "is_drum": false, "name": "BRIDGE", "notes": [{"time": 71, "pitch": 92, "duration": 8, "velocity": 93}, {"time": 76, "pitch": 80, "duration": 5, "velocity": 87}, {"time": 80, "pitch": 85, "duration": 5, "velocity": 83}, {"time": 84, "pitch": 80, "duration": 6, "velocity": 89}, {"time": 89, "pitch": 85, "duration": 5, "velocity": 91}, {"time": 93, "pitch": 87, "duration": 6, "velocity": 94}, {"time": 98, "pitch": 88, "duration": 5, "velocity": 93}, {"time": 102, "pitch": 90, "duration": 4, "velocity": 94}, {"time": 107, "pitch": 92, "duration": 9, "velocity": 95}, {"time": 116, "pitch": 88, "duration": 5, "velocity": 92}, {"time": 120, "pitch": 90, "duration": 6, "velocity": 95}, {"time": 125, "pitch": 92, "duration": 8, "velocity": 94}, {"time": 129, "pitch": 80, "duration": 5, "velocity": 86}, {"time": 133, "pitch": 85, "duration": 5, "velocity": 94}, {"time": 137, "pitch": 88, "duration": 5, "velocity": 90}, {"time": 141, "pitch": 92, "duration": 10, "velocity": 91}, {"time": 145, "pitch": 80, "duration": 15, "velocity": 82}, {"time": 150, "pitch": 85, "duration": 11, "velocity": 93}, {"time": 160, "pitch": 88, "duration": 6, "velocity": 93}, {"time": 165, "pitch": 85, "duration": 6, "velocity": 92}, {"time": 171, "pitch": 81, "duration": 7, "velocity": 83}, {"time": 177, "pitch": 88, "duration": 5, "velocity": 94}, {"time": 183, "pitch": 85, "duration": 22, "velocity": 95}, {"time": 200, "pitch": 80, "duration": 6, "velocity": 85}, {"time": 208, "pitch": 85, "duration": 18, "velocity": 90}, {"time": 227, "pitch": 76, "duration": 36, "velocity": 95}, {"time": 263, "pitch": 73, "duration": 12, "velocity": 98}, {"time": 275, "pitch": 71, "duration": 33, "velocity": 99}, {"time": 311, "pitch": 73, "duration": 13, "velocity": 105}, {"time": 323, "pitch": 76, "duration": 35, "velocity": 94}, {"time": 359, "pitch": 78, "duration": 10, "velocity": 98}, {"time": 371, "pitch": 80, "duration": 44, "velocity": 99}, {"time": 394, "pitch": 68, "duration": 15, "velocity": 98}, {"time": 411, "pitch": 71, "duration": 4, "velocity": 98}, {"time": 415, "pitch": 73, "duration": 3, "velocity": 101}, {"time": 419, "pitch": 64, "duration": 20, "velocity": 88}, {"time": 419, "pitch": 85, "duration": 11, "velocity": 96}, {"time": 431, "pitch": 83, "duration": 12, "velocity": 110}, {"time": 443, "pitch": 80, "duration": 13, "velocity": 97}, {"time": 455, "pitch": 78, "duration": 12, "velocity": 101}, {"time": 467, "pitch": 76, "duration": 25, "velocity": 108}, {"time": 491, "pitch": 78, "duration": 22, "velocity": 96}, {"time": 515, "pitch": 80, "duration": 47, "velocity": 94}, {"time": 569, "pitch": 83, "duration": 7, "velocity": 94}, {"time": 575, "pitch": 76, "duration": 6, "velocity": 89}, {"time": 581, "pitch": 75, "duration": 7, "velocity": 96}, {"time": 587, "pitch": 80, "duration": 12, "velocity": 81}, {"time": 599, "pitch": 76, "duration": 6, "velocity": 80}, {"time": 605, "pitch": 83, "duration": 12, "velocity": 99}, {"time": 617, "pitch": 76, "duration": 6, "velocity": 96}, {"time": 623, "pitch": 75, "duration": 7, "velocity": 98}, {"time": 629, "pitch": 78, "duration": 31, "velocity": 96}, {"time": 665, "pitch": 83, "duration": 9, "velocity": 94}, {"time": 671, "pitch": 75, "duration": 6, "velocity": 74}, {"time": 677, "pitch": 76, "duration": 12, "velocity": 92}, {"time": 1067, "pitch": 73, "duration": 43, "velocity": 94}, {"time": 1067, "pitch": 76, "duration": 44, "velocity": 90}, {"time": 1115, "pitch": 71, "duration": 40, "velocity": 81}, {"time": 1115, "pitch": 75, "duration": 42, "velocity": 84}, {"time": 1163, "pitch": 69, "duration": 31, "velocity": 80}, {"time": 1163, "pitch": 73, "duration": 40, "velocity": 90}, {"time": 1211, "pitch": 71, "duration": 23, "velocity": 95}, {"time": 1228, "pitch": 76, "duration": 7, "velocity": 94}, {"time": 1234, "pitch": 80, "duration": 10, "velocity": 108}, {"time": 1243, "pitch": 83, "duration": 10, "velocity": 110}, {"time": 1252, "pitch": 85, "duration": 6, "velocity": 101}, {"time": 1258, "pitch": 78, "duration": 39, "velocity": 95}, {"time": 1324, "pitch": 71, "duration": 3, "velocity": 103}, {"time": 1327, "pitch": 73, "duration": 3, "velocity": 99}, {"time": 1330, "pitch": 68, "duration": 24, "velocity": 101}, {"time": 1426, "pitch": 73, "duration": 10, "velocity": 115}, {"time": 1435, "pitch": 75, "duration": 10, "velocity": 103}, {"time": 1444, "pitch": 76, "duration": 3, "velocity": 105}, {"time": 1447, "pitch": 71, "duration": 3, "velocity": 95}, {"time": 1450, "pitch": 73, "duration": 37, "velocity": 108}, {"time": 1516, "pitch": 68, "duration": 5, "velocity": 96}, {"time": 1522, "pitch": 66, "duration": 12, "velocity": 100}, {"time": 1534, "pitch": 68, "duration": 12, "velocity": 105}, {"time": 1546, "pitch": 71, "duration": 41, "velocity": 88}, {"time": 1546, "pitch": 68, "duration": 40, "velocity": 83}, {"time": 1594, "pitch": 66, "duration": 37, "velocity": 77}, {"time": 1594, "pitch": 69, "duration": 37, "velocity": 83}, {"time": 1630, "pitch": 68, "duration": 7, "velocity": 94}, {"time": 1636, "pitch": 66, "duration": 6, "velocity": 96}, {"time": 1642, "pitch": 64, "duration": 35, "velocity": 95}, {"time": 1690, "pitch": 66, "duration": 43, "velocity": 83}, {"time": 1691, "pitch": 71, "duration": 41, "velocity": 87}, {"time": 1738, "pitch": 69, "duration": 46, "velocity": 78}, {"time": 1762, "pitch": 73, "duration": 48, "velocity": 108}, {"time": 1811, "pitch": 73, "duration": 4, "velocity": 100}, {"time": 1814, "pitch": 71, "duration": 3, "velocity": 94}, {"time": 1817, "pitch": 68, "duration": 3, "velocity": 91}, {"time": 1819, "pitch": 66, "duration": 4, "velocity": 92}, {"time": 1823, "pitch": 68, "duration": 3, "velocity": 96}, {"time": 1826, "pitch": 66, "duration": 3, "velocity": 96}, {"time": 1829, "pitch": 64, "duration": 6, "velocity": 94}, {"time": 1835, "pitch": 61, "duration": 37, "velocity": 94}, {"time": 1870, "pitch": 71, "duration": 6, "velocity": 92}, {"time": 1876, "pitch": 68, "duration": 7, "velocity": 86}, {"time": 1882, "pitch": 66, "duration": 37, "velocity": 88}, {"time": 1930, "pitch": 68, "duration": 41, "velocity": 83}, {"time": 1930, "pitch": 71, "duration": 42, "velocity": 83}, {"time": 1978, "pitch": 66, "duration": 32, "velocity": 74}, {"time": 1978, "pitch": 73, "duration": 32, "velocity": 88}, {"time": 2008, "pitch": 68, "duration": 12, "velocity": 95}, {"time": 2020, "pitch": 66, "duration": 3, "velocity": 95}, {"time": 2023, "pitch": 64, "duration": 3, "velocity": 98}, {"time": 2026, "pitch": 61, "duration": 33, "velocity": 95}, {"time": 2068, "pitch": 68, "duration": 6, "velocity": 103}, {"time": 2074, "pitch": 71, "duration": 32, "velocity": 95}, {"time": 2110, "pitch": 66, "duration": 7, "velocity": 89}, {"time": 2116, "pitch": 68, "duration": 6, "velocity": 95}, {"time": 2122, "pitch": 71, "duration": 35, "velocity": 96}, {"time": 2157, "pitch": 68, "duration": 14, "velocity": 94}, {"time": 2170, "pitch": 73, "duration": 48, "velocity": 98}, {"time": 2225, "pitch": 83, "duration": 7, "velocity": 105}, {"time": 2231, "pitch": 76, "duration": 6, "velocity": 95}, {"time": 2237, "pitch": 75, "duration": 7, "velocity": 100}, {"time": 2243, "pitch": 78, "duration": 12, "velocity": 99}, {"time": 2255, "pitch": 76, "duration": 6, "velocity": 96}, {"time": 2261, "pitch": 83, "duration": 11, "velocity": 103}, {"time": 2273, "pitch": 76, "duration": 6, "velocity": 101}, {"time": 2279, "pitch": 75, "duration": 6, "velocity": 98}, {"time": 2285, "pitch": 78, "duration": 18, "velocity": 99}, {"time": 2303, "pitch": 61, "duration": 5, "velocity": 103}, {"time": 2309, "pitch": 64, "duration": 3, "velocity": 99}, {"time": 2312, "pitch": 66, "duration": 1, "velocity": 100}, {"time": 2315, "pitch": 68, "duration": 51, "velocity": 101}, {"time": 2381, "pitch": 66, "duration": 4, "velocity": 98}, {"time": 2387, "pitch": 68, "duration": 3, "velocity": 105}, {"time": 2393, "pitch": 71, "duration": 2, "velocity": 96}, {"time": 2396, "pitch": 71, "duration": 31, "velocity": 98}, {"time": 2429, "pitch": 73, "duration": 2, "velocity": 108}, {"time": 2432, "pitch": 71, "duration": 4, "velocity": 99}, {"time": 2438, "pitch": 73, "duration": 2, "velocity": 101}, {"time": 2441, "pitch": 71, "duration": 12, "velocity": 98}, {"time": 2453, "pitch": 68, "duration": 3, "velocity": 99}, {"time": 2456, "pitch": 66, "duration": 3, "velocity": 94}, {"time": 2459, "pitch": 64, "duration": 6, "velocity": 100}, {"time": 2465, "pitch": 71, "duration": 4, "velocity": 96}, {"time": 2468, "pitch": 68, "duration": 33, "velocity": 101}, {"time": 2522, "pitch": 61, "duration": 3, "velocity": 100}, {"time": 2525, "pitch": 64, "duration": 3, "velocity": 98}, {"time": 2528, "pitch": 65, "duration": 3, "velocity": 105}, {"time": 2531, "pitch": 66, "duration": 6, "velocity": 95}, {"time": 2537, "pitch": 68, "duration": 3, "velocity": 105}, {"time": 2540, "pitch": 66, "duration": 4, "velocity": 98}, {"time": 2543, "pitch": 64, "duration": 6, "velocity": 111}, {"time": 2549, "pitch": 61, "duration": 3, "velocity": 100}, {"time": 2552, "pitch": 71, "duration": 26, "velocity": 103}, {"time": 2579, "pitch": 61, "duration": 9, "velocity": 101}, {"time": 2588, "pitch": 63, "duration": 9, "velocity": 101}, {"time": 2597, "pitch": 64, "duration": 6, "velocity": 101}, {"time": 2603, "pitch": 59, "duration": 36, "velocity": 101}, {"time": 2645, "pitch": 64, "duration": 3, "velocity": 108}, {"time": 2648, "pitch": 63, "duration": 3, "velocity": 101}, {"time": 2651, "pitch": 61, "duration": 48, "velocity": 99}, {"time": 2699, "pitch": 73, "duration": 43, "velocity": 94}, {"time": 2699, "pitch": 76, "duration": 44, "velocity": 90}, {"time": 2747, "pitch": 71, "duration": 40, "velocity": 81}, {"time": 2747, "pitch": 75, "duration": 42, "velocity": 84}, {"time": 2795, "pitch": 69, "duration": 31, "velocity": 80}, {"time": 2795, "pitch": 73, "duration": 40, "velocity": 90}, {"time": 2843, "pitch": 71, "duration": 23, "velocity": 95}, {"time": 2860, "pitch": 76, "duration": 7, "velocity": 94}, {"time": 2866, "pitch": 80, "duration": 10, "velocity": 108}, {"time": 2875, "pitch": 83, "duration": 10, "velocity": 110}, {"time": 2884, "pitch": 85, "duration": 6, "velocity": 101}, {"time": 2890, "pitch": 78, "duration": 39, "velocity": 95}, {"time": 2956, "pitch": 71, "duration": 3, "velocity": 103}, {"time": 2959, "pitch": 73, "duration": 3, "velocity": 99}, {"time": 2962, "pitch": 68, "duration": 24, "velocity": 101}, {"time": 3058, "pitch": 73, "duration": 10, "velocity": 115}, {"time": 3067, "pitch": 75, "duration": 10, "velocity": 103}, {"time": 3076, "pitch": 76, "duration": 3, "velocity": 105}, {"time": 3079, "pitch": 71, "duration": 3, "velocity": 95}, {"time": 3082, "pitch": 73, "duration": 37, "velocity": 108}, {"time": 3148, "pitch": 68, "duration": 5, "velocity": 96}, {"time": 3154, "pitch": 66, "duration": 12, "velocity": 100}, {"time": 3166, "pitch": 68, "duration": 12, "velocity": 105}, {"time": 3178, "pitch": 71, "duration": 41, "velocity": 88}, {"time": 3178, "pitch": 68, "duration": 40, "velocity": 83}, {"time": 3226, "pitch": 66, "duration": 37, "velocity": 77}, {"time": 3226, "pitch": 69, "duration": 37, "velocity": 83}, {"time": 3262, "pitch": 68, "duration": 7, "velocity": 94}, {"time": 3268, "pitch": 66, "duration": 6, "velocity": 96}, {"time": 3274, "pitch": 64, "duration": 35, "velocity": 95}, {"time": 3322, "pitch": 66, "duration": 43, "velocity": 83}, {"time": 3323, "pitch": 71, "duration": 41, "velocity": 87}, {"time": 3370, "pitch": 69, "duration": 46, "velocity": 78}, {"time": 3394, "pitch": 73, "duration": 48, "velocity": 108}, {"time": 3443, "pitch": 73, "duration": 4, "velocity": 100}, {"time": 3446, "pitch": 71, "duration": 3, "velocity": 94}, {"time": 3449, "pitch": 68, "duration": 3, "velocity": 91}, {"time": 3451, "pitch": 66, "duration": 4, "velocity": 92}, {"time": 3455, "pitch": 68, "duration": 3, "velocity": 96}, {"time": 3458, "pitch": 66, "duration": 3, "velocity": 96}, {"time": 3461, "pitch": 64, "duration": 6, "velocity": 94}, {"time": 3467, "pitch": 61, "duration": 37, "velocity": 94}, {"time": 3502, "pitch": 71, "duration": 6, "velocity": 92}, {"time": 3508, "pitch": 68, "duration": 7, "velocity": 86}, {"time": 3514, "pitch": 66, "duration": 37, "velocity": 88}, {"time": 3562, "pitch": 68, "duration": 41, "velocity": 83}, {"time": 3562, "pitch": 71, "duration": 42, "velocity": 83}, {"time": 3610, "pitch": 66, "duration": 32, "velocity": 74}, {"time": 3610, "pitch": 73, "duration": 32, "velocity": 88}, {"time": 3640, "pitch": 68, "duration": 12, "velocity": 95}, {"time": 3652, "pitch": 66, "duration": 3, "velocity": 95}, {"time": 3655, "pitch": 64, "duration": 3, "velocity": 98}, {"time": 3658, "pitch": 61, "duration": 33, "velocity": 95}, {"time": 3700, "pitch": 68, "duration": 6, "velocity": 103}, {"time": 3706, "pitch": 71, "duration": 32, "velocity": 95}, {"time": 3742, "pitch": 66, "duration": 7, "velocity": 89}, {"time": 3748, "pitch": 68, "duration": 6, "velocity": 95}, {"time": 3754, "pitch": 71, "duration": 35, "velocity": 96}, {"time": 3789, "pitch": 68, "duration": 14, "velocity": 94}, {"time": 3802, "pitch": 73, "duration": 48, "velocity": 98}, {"time": 3857, "pitch": 76, "duration": 3, "velocity": 100}, {"time": 3860, "pitch": 73, "duration": 3, "velocity": 98}, {"time": 3866, "pitch": 76, "duration": 2, "velocity": 96}, {"time": 3869, "pitch": 73, "duration": 24, "velocity": 111}, {"time": 3908, "pitch": 68, "duration": 9, "velocity": 101}, {"time": 3917, "pitch": 68, "duration": 2, "velocity": 99}, {"time": 3920, "pitch": 71, "duration": 2, "velocity": 99}, {"time": 3923, "pitch": 71, "duration": 12, "velocity": 97}, {"time": 3935, "pitch": 68, "duration": 5, "velocity": 100}, {"time": 3941, "pitch": 71, "duration": 3, "velocity": 105}, {"time": 3947, "pitch": 61, "duration": 4, "velocity": 105}, {"time": 3953, "pitch": 64, "duration": 1, "velocity": 96}, {"time": 3956, "pitch": 64, "duration": 18, "velocity": 96}, {"time": 3974, "pitch": 61, "duration": 2, "velocity": 95}, {"time": 3977, "pitch": 64, "duration": 2, "velocity": 97}, {"time": 3980, "pitch": 61, "duration": 2, "velocity": 96}, {"time": 3983, "pitch": 64, "duration": 4, "velocity": 105}, {"time": 3989, "pitch": 66, "duration": 4, "velocity": 95}, {"time": 3995, "pitch": 68, "duration": 12, "velocity": 98}, {"time": 4007, "pitch": 68, "duration": 11, "velocity": 96}, {"time": 4019, "pitch": 71, "duration": 22, "velocity": 108}, {"time": 4043, "pitch": 73, "duration": 36, "velocity": 105}, {"time": 4049, "pitch": 83, "duration": 6, "velocity": 101}, {"time": 4055, "pitch": 76, "duration": 7, "velocity": 94}, {"time": 4061, "pitch": 75, "duration": 7, "velocity": 100}, {"time": 4067, "pitch": 78, "duration": 12, "velocity": 93}, {"time": 4079, "pitch": 76, "duration": 5, "velocity": 103}, {"time": 4085, "pitch": 83, "duration": 12, "velocity": 103}, {"time": 4097, "pitch": 76, "duration": 6, "velocity": 98}, {"time": 4103, "pitch": 75, "duration": 6, "velocity": 97}, {"time": 4109, "pitch": 78, "duration": 45, "velocity": 103}], "annotations": [{"time": 4151, "annotation": {"number": 64, "value": 127}, "group": "control_change"}, {"time": 4151, "annotation": {"number": 64, "value": 0}, "group": "control_change"}, {"time": 4162, "annotation": {"number": 64, "value": 0}, "group": "control_change"}]}, {"program": 0, "is_drum": false, "name": "PIANO", "notes": [{"time": 71, "pitch": 61, "duration": 33, "velocity": 86}, {"time": 76, "pitch": 68, "duration": 3, "velocity": 76}, {"time": 80, "pitch": 73, "duration": 10, "velocity": 89}, {"time": 89, "pitch": 76, "duration": 14, "velocity": 88}, {"time": 98, "pitch": 73, "duration": 7, "velocity": 94}, {"time": 102, "pitch": 66, "duration": 3, "velocity": 74}, {"time": 106, "pitch": 61, "duration": 33, "velocity": 87}, {"time": 110, "pitch": 68, "duration": 6, "velocity": 80}, {"time": 115, "pitch": 73, "duration": 25, "velocity": 90}, {"time": 119, "pitch": 68, "duration": 23, "velocity": 73}, {"time": 124, "pitch": 76, "duration": 18, "velocity": 74}, {"time": 141, "pitch": 61, "duration": 16, "velocity": 80}, {"time": 146, "pitch": 73, "duration": 5, "velocity": 83}, {"time": 150, "pitch": 76, "duration": 9, "velocity": 82}, {"time": 155, "pitch": 73, "duration": 3, "velocity": 76}, {"time": 159, "pitch": 61, "duration": 20, "velocity": 85}, {"time": 164, "pitch": 68, "duration": 6, "velocity": 77}, {"time": 169, "pitch": 73, "duration": 14, "velocity": 89}, {"time": 176, "pitch": 68, "duration": 8, "velocity": 79}, {"time": 182, "pitch": 61, "duration": 36, "velocity": 81}, {"time": 189, "pitch": 68, "duration": 11, "velocity": 83}, {"time": 194, "pitch": 76, "duration": 8, "velocity": 78}, {"time": 227, "pitch": 49, "duration": 39, "velocity": 96}, {"time": 233, "pitch": 56, "duration": 8, "velocity": 78}, {"time": 239, "pitch": 61, "duration": 14, "velocity": 89}, {"time": 239, "pitch": 64, "duration": 19, "velocity": 87}, {"time": 245, "pitch": 56, "duration": 19, "velocity": 71}, {"time": 251, "pitch": 68, "duration": 7, "velocity": 89}, {"time": 263, "pitch": 61, "duration": 2, "velocity": 88}, {"time": 263, "pitch": 64, "duration": 6, "velocity": 92}, {"time": 269, "pitch": 61, "duration": 2, "velocity": 72}, {"time": 275, "pitch": 44, "duration": 39, "velocity": 93}, {"time": 275, "pitch": 56, "duration": 8, "velocity": 84}, {"time": 275, "pitch": 59, "duration": 12, "velocity": 85}, {"time": 281, "pitch": 51, "duration": 9, "velocity": 87}, {"time": 287, "pitch": 56, "duration": 13, "velocity": 95}, {"time": 293, "pitch": 51, "duration": 23, "velocity": 80}, {"time": 299, "pitch": 59, "duration": 8, "velocity": 85}, {"time": 299, "pitch": 63, "duration": 12, "velocity": 91}, {"time": 311, "pitch": 56, "duration": 9, "velocity": 84}, {"time": 311, "pitch": 59, "duration": 5, "velocity": 88}, {"time": 323, "pitch": 45, "duration": 38, "velocity": 94}, {"time": 323, "pitch": 57, "duration": 7, "velocity": 80}, {"time": 323, "pitch": 61, "duration": 13, "velocity": 91}, {"time": 329, "pitch": 52, "duration": 9, "velocity": 82}, {"time": 335, "pitch": 57, "duration": 21, "velocity": 98}, {"time": 341, "pitch": 52, "duration": 19, "velocity": 82}, {"time": 347, "pitch": 64, "duration": 10, "velocity": 94}, {"time": 359, "pitch": 57, "duration": 2, "velocity": 84}, {"time": 359, "pitch": 61, "duration": 4, "velocity": 89}, {"time": 371, "pitch": 40, "duration": 37, "velocity": 92}, {"time": 371, "pitch": 56, "duration": 7, "velocity": 85}, {"time": 371, "pitch": 59, "duration": 13, "velocity": 89}, {"time": 377, "pitch": 47, "duration": 21, "velocity": 81}, {"time": 383, "pitch": 56, "duration": 11, "velocity": 92}, {"time": 389, "pitch": 59, "duration": 8, "velocity": 94}, {"time": 395, "pitch": 64, "duration": 17, "velocity": 95}, {"time": 401, "pitch": 47, "duration": 8, "velocity": 78}, {"time": 407, "pitch": 56, "duration": 5, "velocity": 94}, {"time": 407, "pitch": 59, "duration": 4, "velocity": 91}, {"time": 419, "pitch": 45, "duration": 37, "velocity": 86}, {"time": 419, "pitch": 57, "duration": 7, "velocity": 84}, {"time": 419, "pitch": 61, "duration": 12, "velocity": 87}, {"time": 425, "pitch": 52, "duration": 31, "velocity": 67}, {"time": 431, "pitch": 57, "duration": 8, "velocity": 91}, {"time": 437, "pitch": 61, "duration": 3, "velocity": 87}, {"time": 443, "pitch": 57, "duration": 9, "velocity": 85}, {"time": 443, "pitch": 64, "duration": 9, "velocity": 95}, {"time": 455, "pitch": 57, "duration": 3, "velocity": 87}, {"time": 455, "pitch": 61, "duration": 3, "velocity": 90}, {"time": 467, "pitch": 42, "duration": 39, "velocity": 89}, {"time": 467, "pitch": 54, "duration": 7, "velocity": 86}, {"time": 467, "pitch": 57, "duration": 9, "velocity": 81}, {"time": 467, "pitch": 61, "duration": 12, "velocity": 89}, {"time": 473, "pitch": 49, "duration": 20, "velocity": 80}, {"time": 479, "pitch": 54, "duration": 9, "velocity": 95}, {"time": 485, "pitch": 61, "duration": 4, "velocity": 90}, {"time": 491, "pitch": 54, "duration": 8, "velocity": 92}, {"time": 491, "pitch": 63, "duration": 10, "velocity": 95}, {"time": 497, "pitch": 49, "duration": 9, "velocity": 88}, {"time": 503, "pitch": 54, "duration": 4, "velocity": 94}, {"time": 503, "pitch": 61, "duration": 4, "velocity": 92}, {"time": 515, "pitch": 44, "duration": 40, "velocity": 94}, {"time": 515, "pitch": 56, "duration": 8, "velocity": 90}, {"time": 515, "pitch": 61, "duration": 11, "velocity": 92}, {"time": 521, "pitch": 51, "duration": 19, "velocity": 89}, {"time": 527, "pitch": 56, "duration": 21, "velocity": 89}, {"time": 533, "pitch": 61, "duration": 14, "velocity": 88}, {"time": 545, "pitch": 51, "duration": 8, "velocity": 81}, {"time": 551, "pitch": 56, "duration": 5, "velocity": 83}, {"time": 551, "pitch": 63, "duration": 4, "velocity": 90}, {"time": 563, "pitch": 37, "duration": 34, "velocity": 96}, {"time": 563, "pitch": 61, "duration": 12, "velocity": 83}, {"time": 563, "pitch": 64, "duration": 16, "velocity": 90}, {"time": 569, "pitch": 44, "duration": 27, "velocity": 74}, {"time": 575, "pitch": 56, "duration": 26, "velocity": 83}, {"time": 581, "pitch": 61, "duration": 18, "velocity": 74}, {"time": 605, "pitch": 45, "duration": 20, "velocity": 97}, {"time": 605, "pitch": 57, "duration": 16, "velocity": 78}, {"time": 605, "pitch": 61, "duration": 16, "velocity": 88}, {"time": 617, "pitch": 52, "duration": 8, "velocity": 76}, {"time": 623, "pitch": 57, "duration": 2, "velocity": 84}, {"time": 623, "pitch": 61, "duration": 2, "velocity": 91}, {"time": 623, "pitch": 64, "duration": 4, "velocity": 87}, {"time": 629, "pitch": 47, "duration": 24, "velocity": 96}, {"time": 629, "pitch": 59, "duration": 14, "velocity": 87}, {"time": 629, "pitch": 63, "duration": 13, "velocity": 94}, {"time": 641, "pitch": 54, "duration": 12, "velocity": 79}, {"time": 647, "pitch": 59, "duration": 11, "velocity": 84}, {"time": 647, "pitch": 66, "duration": 12, "velocity": 83}, {"time": 653, "pitch": 47, "duration": 28, "velocity": 78}, {"time": 659, "pitch": 59, "duration": 23, "velocity": 86}, {"time": 659, "pitch": 66, "duration": 23, "velocity": 86}, {"time": 659, "pitch": 71, "duration": 23, "velocity": 86}, {"time": 683, "pitch": 37, "duration": 39, "velocity": 95}, {"time": 683, "pitch": 61, "duration": 5, "velocity": 87}, {"time": 683, "pitch": 64, "duration": 8, "velocity": 88}, {"time": 689, "pitch": 44, "duration": 20, "velocity": 81}, {"time": 695, "pitch": 56, "duration": 3, "velocity": 86}, {"time": 701, "pitch": 56, "duration": 12, "velocity": 94}, {"time": 701, "pitch": 61, "duration": 12, "velocity": 94}, {"time": 701, "pitch": 64, "duration": 12, "velocity": 94}, {"time": 713, "pitch": 44, "duration": 9, "velocity": 67}, {"time": 719, "pitch": 56, "duration": 2, "velocity": 93}, {"time": 719, "pitch": 61, "duration": 7, "velocity": 95}, {"time": 725, "pitch": 56, "duration": 3, "velocity": 86}, {"time": 731, "pitch": 44, "duration": 38, "velocity": 93}, {"time": 731, "pitch": 56, "duration": 6, "velocity": 88}, {"time": 731, "pitch": 59, "duration": 7, "velocity": 88}, {"time": 737, "pitch": 51, "duration": 14, "velocity": 81}, {"time": 743, "pitch": 56, "duration": 6, "velocity": 85}, {"time": 749, "pitch": 59, "duration": 4, "velocity": 89}, {"time": 755, "pitch": 56, "duration": 8, "velocity": 89}, {"time": 755, "pitch": 59, "duration": 7, "velocity": 95}, {"time": 755, "pitch": 63, "duration": 6, "velocity": 95}, {"time": 761, "pitch": 51, "duration": 9, "velocity": 80}, {"time": 767, "pitch": 56, "duration": 2, "velocity": 90}, {"time": 767, "pitch": 59, "duration": 2, "velocity": 91}, {"time": 779, "pitch": 45, "duration": 39, "velocity": 89}, {"time": 779, "pitch": 57, "duration": 7, "velocity": 80}, {"time": 779, "pitch": 61, "duration": 14, "velocity": 89}, {"time": 785, "pitch": 52, "duration": 33, "velocity": 82}, {"time": 791, "pitch": 57, "duration": 3, "velocity": 71}, {"time": 797, "pitch": 57, "duration": 8, "velocity": 91}, {"time": 797, "pitch": 64, "duration": 13, "velocity": 94}, {"time": 815, "pitch": 57, "duration": 3, "velocity": 92}, {"time": 815, "pitch": 61, "duration": 4, "velocity": 95}, {"time": 827, "pitch": 40, "duration": 40, "velocity": 92}, {"time": 827, "pitch": 56, "duration": 7, "velocity": 88}, {"time": 827, "pitch": 59, "duration": 12, "velocity": 90}, {"time": 833, "pitch": 47, "duration": 33, "velocity": 84}, {"time": 839, "pitch": 56, "duration": 10, "velocity": 95}, {"time": 845, "pitch": 59, "duration": 4, "velocity": 105}, {"time": 851, "pitch": 56, "duration": 3, "velocity": 89}, {"time": 851, "pitch": 64, "duration": 17, "velocity": 94}, {"time": 863, "pitch": 59, "duration": 5, "velocity": 96}, {"time": 875, "pitch": 42, "duration": 43, "velocity": 90}, {"time": 875, "pitch": 54, "duration": 13, "velocity": 89}, {"time": 875, "pitch": 61, "duration": 34, "velocity": 89}, {"time": 881, "pitch": 49, "duration": 38, "velocity": 95}, {"time": 887, "pitch": 57, "duration": 22, "velocity": 98}, {"time": 893, "pitch": 54, "duration": 7, "velocity": 88}, {"time": 899, "pitch": 66, "duration": 9, "velocity": 91}, {"time": 905, "pitch": 54, "duration": 7, "velocity": 74}, {"time": 911, "pitch": 57, "duration": 6, "velocity": 84}, {"time": 911, "pitch": 61, "duration": 9, "velocity": 94}, {"time": 911, "pitch": 66, "duration": 8, "velocity": 89}, {"time": 923, "pitch": 44, "duration": 42, "velocity": 94}, {"time": 923, "pitch": 56, "duration": 8, "velocity": 85}, {"time": 923, "pitch": 63, "duration": 13, "velocity": 94}, {"time": 929, "pitch": 51, "duration": 15, "velocity": 87}, {"time": 935, "pitch": 56, "duration": 20, "velocity": 96}, {"time": 941, "pitch": 63, "duration": 15, "velocity": 99}, {"time": 953, "pitch": 51, "duration": 12, "velocity": 90}, {"time": 959, "pitch": 56, "duration": 3, "velocity": 90}, {"time": 959, "pitch": 59, "duration": 6, "velocity": 98}, {"time": 965, "pitch": 56, "duration": 8, "velocity": 92}, {"time": 971, "pitch": 45, "duration": 39, "velocity": 91}, {"time": 971, "pitch": 57, "duration": 7, "velocity": 85}, {"time": 971, "pitch": 64, "duration": 12, "velocity": 92}, {"time": 977, "pitch": 52, "duration": 33, "velocity": 72}, {"time": 983, "pitch": 57, "duration": 11, "velocity": 99}, {"time": 989, "pitch": 64, "duration": 11, "velocity": 95}, {"time": 1001, "pitch": 57, "duration": 3, "velocity": 78}, {"time": 1007, "pitch": 57, "duration": 3, "velocity": 95}, {"time": 1007, "pitch": 61, "duration": 4, "velocity": 95}, {"time": 1019, "pitch": 37, "duration": 47, "velocity": 87}, {"time": 1019, "pitch": 56, "duration": 8, "velocity": 85}, {"time": 1019, "pitch": 61, "duration": 13, "velocity": 89}, {"time": 1025, "pitch": 44, "duration": 22, "velocity": 87}, {"time": 1031, "pitch": 56, "duration": 3, "velocity": 94}, {"time": 1037, "pitch": 56, "duration": 13, "velocity": 94}, {"time": 1037, "pitch": 64, "duration": 14, "velocity": 94}, {"time": 1049, "pitch": 44, "duration": 9, "velocity": 73}, {"time": 1055, "pitch": 56, "duration": 11, "velocity": 95}, {"time": 1055, "pitch": 61, "duration": 11, "velocity": 97}, {"time": 1061, "pitch": 44, "duration": 5, "velocity": 86}, {"time": 1067, "pitch": 37, "duration": 39, "velocity": 95}, {"time": 1067, "pitch": 61, "duration": 5, "velocity": 87}, {"time": 1067, "pitch": 64, "duration": 8, "velocity": 88}, {"time": 1073, "pitch": 44, "duration": 20, "velocity": 81}, {"time": 1079, "pitch": 56, "duration": 3, "velocity": 86}, {"time": 1085, "pitch": 56, "duration": 12, "velocity": 94}, {"time": 1085, "pitch": 61, "duration": 12, "velocity": 94}, {"time": 1085, "pitch": 64, "duration": 12, "velocity": 94}, {"time": 1097, "pitch": 44, "duration": 9, "velocity": 67}, {"time": 1103, "pitch": 56, "duration": 2, "velocity": 93}, {"time": 1103, "pitch": 61, "duration": 7, "velocity": 95}, {"time": 1109, "pitch": 56, "duration": 3, "velocity": 86}, {"time": 1115, "pitch": 44, "duration": 38, "velocity": 93}, {"time": 1115, "pitch": 56, "duration": 6, "velocity": 88}, {"time": 1115, "pitch": 59, "duration": 7, "velocity": 88}, {"time": 1121, "pitch": 51, "duration": 14, "velocity": 81}, {"time": 1127, "pitch": 56, "duration": 6, "velocity": 85}, {"time": 1133, "pitch": 59, "duration": 4, "velocity": 89}, {"time": 1139, "pitch": 56, "duration": 8, "velocity": 89}, {"time": 1139, "pitch": 59, "duration": 7, "velocity": 95}, {"time": 1139, "pitch": 63, "duration": 6, "velocity": 95}, {"time": 1145, "pitch": 51, "duration": 9, "velocity": 80}, {"time": 1151, "pitch": 56, "duration": 2, "velocity": 90}, {"time": 1151, "pitch": 59, "duration": 2, "velocity": 91}, {"time": 1163, "pitch": 45, "duration": 39, "velocity": 89}, {"time": 1163, "pitch": 57, "duration": 7, "velocity": 80}, {"time": 1163, "pitch": 61, "duration": 14, "velocity": 89}, {"time": 1169, "pitch": 52, "duration": 33, "velocity": 82}, {"time": 1175, "pitch": 57, "duration": 3, "velocity": 71}, {"time": 1181, "pitch": 57, "duration": 8, "velocity": 91}, {"time": 1181, "pitch": 64, "duration": 13, "velocity": 94}, {"time": 1199, "pitch": 57, "duration": 3, "velocity": 92}, {"time": 1199, "pitch": 61, "duration": 4, "velocity": 95}, {"time": 1211, "pitch": 40, "duration": 40, "velocity": 92}, {"time": 1211, "pitch": 56, "duration": 7, "velocity": 88}, {"time": 1211, "pitch": 59, "duration": 12, "velocity": 90}, {"time": 1217, "pitch": 47, "duration": 33, "velocity": 84}, {"time": 1223, "pitch": 56, "duration": 10, "velocity": 95}, {"time": 1229, "pitch": 59, "duration": 4, "velocity": 105}, {"time": 1235, "pitch": 56, "duration": 3, "velocity": 89}, {"time": 1235, "pitch": 64, "duration": 17, "velocity": 94}, {"time": 1247, "pitch": 59, "duration": 5, "velocity": 96}, {"time": 1259, "pitch": 42, "duration": 43, "velocity": 90}, {"time": 1259, "pitch": 54, "duration": 13, "velocity": 89}, {"time": 1259, "pitch": 61, "duration": 34, "velocity": 89}, {"time": 1265, "pitch": 49, "duration": 38, "velocity": 95}, {"time": 1271, "pitch": 57, "duration": 22, "velocity": 98}, {"time": 1277, "pitch": 54, "duration": 7, "velocity": 88}, {"time": 1283, "pitch": 66, "duration": 9, "velocity": 91}, {"time": 1289, "pitch": 54, "duration": 7, "velocity": 74}, {"time": 1295, "pitch": 57, "duration": 6, "velocity": 84}, {"time": 1295, "pitch": 61, "duration": 9, "velocity": 94}, {"time": 1295, "pitch": 66, "duration": 8, "velocity": 89}, {"time": 1307, "pitch": 44, "duration": 42, "velocity": 94}, {"time": 1307, "pitch": 56, "duration": 8, "velocity": 85}, {"time": 1307, "pitch": 63, "duration": 13, "velocity": 94}, {"time": 1313, "pitch": 51, "duration": 15, "velocity": 87}, {"time": 1319, "pitch": 56, "duration": 20, "velocity": 96}, {"time": 1325, "pitch": 63, "duration": 15, "velocity": 99}, {"time": 1337, "pitch": 51, "duration": 12, "velocity": 90}, {"time": 1343, "pitch": 56, "duration": 3, "velocity": 90}, {"time": 1343, "pitch": 59, "duration": 6, "velocity": 98}, {"time": 1349, "pitch": 56, "duration": 8, "velocity": 92}, {"time": 1355, "pitch": 44, "duration": 42, "velocity": 94}, {"time": 1355, "pitch": 56, "duration": 2, "velocity": 85}, {"time": 1355, "pitch": 63, "duration": 13, "velocity": 94}, {"time": 1361, "pitch": 51, "duration": 15, "velocity": 87}, {"time": 1367, "pitch": 56, "duration": 20, "velocity": 96}, {"time": 1373, "pitch": 63, "duration": 15, "velocity": 99}, {"time": 1385, "pitch": 51, "duration": 12, "velocity": 90}, {"time": 1391, "pitch": 56, "duration": 3, "velocity": 90}, {"time": 1391, "pitch": 59, "duration": 6, "velocity": 98}, {"time": 1397, "pitch": 56, "duration": 8, "velocity": 92}, {"time": 1403, "pitch": 37, "duration": 47, "velocity": 87}, {"time": 1403, "pitch": 56, "duration": 2, "velocity": 85}, {"time": 1403, "pitch": 61, "duration": 13, "velocity": 89}, {"time": 1409, "pitch": 44, "duration": 22, "velocity": 87}, {"time": 1415, "pitch": 56, "duration": 3, "velocity": 94}, {"time": 1421, "pitch": 56, "duration": 13, "velocity": 94}, {"time": 1421, "pitch": 64, "duration": 14, "velocity": 94}, {"time": 1433, "pitch": 44, "duration": 9, "velocity": 73}, {"time": 1439, "pitch": 56, "duration": 11, "velocity": 95}, {"time": 1439, "pitch": 61, "duration": 11, "velocity": 97}, {"time": 1445, "pitch": 44, "duration": 5, "velocity": 86}, {"time": 1451, "pitch": 49, "duration": 17, "velocity": 101}, {"time": 1451, "pitch": 56, "duration": 3, "velocity": 94}, {"time": 1451, "pitch": 61, "duration": 7, "velocity": 96}, {"time": 1457, "pitch": 56, "duration": 6, "velocity": 90}, {"time": 1463, "pitch": 64, "duration": 10, "velocity": 100}, {"time": 1469, "pitch": 56, "duration": 4, "velocity": 100}, {"time": 1472, "pitch": 44, "duration": 1, "velocity": 55}, {"time": 1475, "pitch": 44, "duration": 15, "velocity": 95}, {"time": 1475, "pitch": 56, "duration": 7, "velocity": 93}, {"time": 1475, "pitch": 59, "duration": 7, "velocity": 96}, {"time": 1481, "pitch": 51, "duration": 9, "velocity": 95}, {"time": 1487, "pitch": 56, "duration": 2, "velocity": 93}, {"time": 1487, "pitch": 59, "duration": 4, "velocity": 98}, {"time": 1487, "pitch": 63, "duration": 8, "velocity": 96}, {"time": 1493, "pitch": 56, "duration": 2, "velocity": 95}, {"time": 1499, "pitch": 42, "duration": 38, "velocity": 94}, {"time": 1499, "pitch": 54, "duration": 11, "velocity": 83}, {"time": 1499, "pitch": 57, "duration": 7, "velocity": 86}, {"time": 1505, "pitch": 49, "duration": 32, "velocity": 81}, {"time": 1511, "pitch": 57, "duration": 2, "velocity": 94}, {"time": 1511, "pitch": 61, "duration": 6, "velocity": 95}, {"time": 1517, "pitch": 54, "duration": 7, "velocity": 94}, {"time": 1523, "pitch": 66, "duration": 7, "velocity": 99}, {"time": 1529, "pitch": 54, "duration": 4, "velocity": 95}, {"time": 1535, "pitch": 54, "duration": 6, "velocity": 97}, {"time": 1535, "pitch": 57, "duration": 6, "velocity": 99}, {"time": 1535, "pitch": 61, "duration": 7, "velocity": 98}, {"time": 1541, "pitch": 42, "duration": 4, "velocity": 95}, {"time": 1547, "pitch": 44, "duration": 39, "velocity": 99}, {"time": 1547, "pitch": 56, "duration": 6, "velocity": 88}, {"time": 1547, "pitch": 59, "duration": 5, "velocity": 89}, {"time": 1553, "pitch": 51, "duration": 32, "velocity": 84}, {"time": 1559, "pitch": 56, "duration": 2, "velocity": 92}, {"time": 1559, "pitch": 59, "duration": 2, "velocity": 100}, {"time": 1559, "pitch": 63, "duration": 3, "velocity": 100}, {"time": 1565, "pitch": 56, "duration": 7, "velocity": 94}, {"time": 1571, "pitch": 59, "duration": 6, "velocity": 94}, {"time": 1571, "pitch": 63, "duration": 7, "velocity": 96}, {"time": 1571, "pitch": 68, "duration": 1, "velocity": 94}, {"time": 1577, "pitch": 56, "duration": 4, "velocity": 86}, {"time": 1583, "pitch": 56, "duration": 2, "velocity": 92}, {"time": 1583, "pitch": 59, "duration": 3, "velocity": 97}, {"time": 1583, "pitch": 63, "duration": 4, "velocity": 98}, {"time": 1589, "pitch": 44, "duration": 3, "velocity": 96}, {"time": 1595, "pitch": 42, "duration": 34, "velocity": 96}, {"time": 1595, "pitch": 54, "duration": 8, "velocity": 90}, {"time": 1595, "pitch": 57, "duration": 7, "velocity": 83}, {"time": 1601, "pitch": 49, "duration": 29, "velocity": 85}, {"time": 1607, "pitch": 57, "duration": 4, "velocity": 90}, {"time": 1607, "pitch": 61, "duration": 7, "velocity": 93}, {"time": 1613, "pitch": 54, "duration": 7, "velocity": 87}, {"time": 1619, "pitch": 66, "duration": 5, "velocity": 96}, {"time": 1625, "pitch": 54, "duration": 7, "velocity": 95}, {"time": 1631, "pitch": 42, "duration": 5, "velocity": 95}, {"time": 1631, "pitch": 57, "duration": 6, "velocity": 90}, {"time": 1631, "pitch": 61, "duration": 5, "velocity": 95}, {"time": 1637, "pitch": 54, "duration": 2, "velocity": 92}, {"time": 1643, "pitch": 45, "duration": 21, "velocity": 95}, {"time": 1643, "pitch": 52, "duration": 3, "velocity": 88}, {"time": 1643, "pitch": 57, "duration": 7, "velocity": 86}, {"time": 1649, "pitch": 52, "duration": 6, "velocity": 83}, {"time": 1655, "pitch": 61, "duration": 7, "velocity": 97}, {"time": 1661, "pitch": 52, "duration": 7, "velocity": 89}, {"time": 1667, "pitch": 45, "duration": 14, "velocity": 88}, {"time": 1667, "pitch": 57, "duration": 7, "velocity": 90}, {"time": 1673, "pitch": 52, "duration": 7, "velocity": 88}, {"time": 1679, "pitch": 57, "duration": 3, "velocity": 98}, {"time": 1679, "pitch": 61, "duration": 6, "velocity": 90}, {"time": 1685, "pitch": 45, "duration": 6, "velocity": 108}, {"time": 1691, "pitch": 47, "duration": 41, "velocity": 108}, {"time": 1691, "pitch": 54, "duration": 3, "velocity": 89}, {"time": 1691, "pitch": 59, "duration": 6, "velocity": 91}, {"time": 1697, "pitch": 54, "duration": 7, "velocity": 94}, {"time": 1703, "pitch": 59, "duration": 2, "velocity": 95}, {"time": 1703, "pitch": 63, "duration": 3, "velocity": 97}, {"time": 1709, "pitch": 54, "duration": 2, "velocity": 84}, {"time": 1715, "pitch": 54, "duration": 3, "velocity": 92}, {"time": 1715, "pitch": 59, "duration": 7, "velocity": 94}, {"time": 1721, "pitch": 54, "duration": 7, "velocity": 90}, {"time": 1727, "pitch": 59, "duration": 4, "velocity": 98}, {"time": 1727, "pitch": 63, "duration": 6, "velocity": 98}, {"time": 1733, "pitch": 54, "duration": 2, "velocity": 94}, {"time": 1739, "pitch": 45, "duration": 37, "velocity": 98}, {"time": 1739, "pitch": 52, "duration": 3, "velocity": 87}, {"time": 1739, "pitch": 57, "duration": 8, "velocity": 87}, {"time": 1745, "pitch": 52, "duration": 7, "velocity": 89}, {"time": 1751, "pitch": 57, "duration": 5, "velocity": 94}, {"time": 1751, "pitch": 61, "duration": 4, "velocity": 95}, {"time": 1757, "pitch": 52, "duration": 2, "velocity": 88}, {"time": 1763, "pitch": 52, "duration": 2, "velocity": 86}, {"time": 1763, "pitch": 57, "duration": 7, "velocity": 95}, {"time": 1769, "pitch": 52, "duration": 2, "velocity": 82}, {"time": 1775, "pitch": 52, "duration": 3, "velocity": 93}, {"time": 1775, "pitch": 57, "duration": 7, "velocity": 96}, {"time": 1775, "pitch": 61, "duration": 8, "velocity": 94}, {"time": 1787, "pitch": 37, "duration": 16, "velocity": 99}, {"time": 1787, "pitch": 56, "duration": 3, "velocity": 86}, {"time": 1787, "pitch": 61, "duration": 6, "velocity": 92}, {"time": 1793, "pitch": 56, "duration": 7, "velocity": 89}, {"time": 1799, "pitch": 61, "duration": 7, "velocity": 95}, {"time": 1805, "pitch": 56, "duration": 4, "velocity": 89}, {"time": 1811, "pitch": 61, "duration": 7, "velocity": 97}, {"time": 1811, "pitch": 64, "duration": 8, "velocity": 95}, {"time": 1817, "pitch": 56, "duration": 16, "velocity": 79}, {"time": 1823, "pitch": 61, "duration": 11, "velocity": 96}, {"time": 1823, "pitch": 64, "duration": 12, "velocity": 95}, {"time": 1829, "pitch": 47, "duration": 6, "velocity": 108}, {"time": 1835, "pitch": 49, "duration": 17, "velocity": 101}, {"time": 1835, "pitch": 56, "duration": 3, "velocity": 94}, {"time": 1835, "pitch": 61, "duration": 7, "velocity": 96}, {"time": 1841, "pitch": 56, "duration": 6, "velocity": 90}, {"time": 1847, "pitch": 64, "duration": 10, "velocity": 100}, {"time": 1853, "pitch": 44, "duration": 1, "velocity": 55}, {"time": 1853, "pitch": 56, "duration": 4, "velocity": 100}, {"time": 1859, "pitch": 44, "duration": 15, "velocity": 95}, {"time": 1859, "pitch": 56, "duration": 7, "velocity": 93}, {"time": 1859, "pitch": 59, "duration": 7, "velocity": 96}, {"time": 1865, "pitch": 51, "duration": 9, "velocity": 95}, {"time": 1871, "pitch": 56, "duration": 2, "velocity": 93}, {"time": 1871, "pitch": 59, "duration": 4, "velocity": 98}, {"time": 1871, "pitch": 63, "duration": 8, "velocity": 96}, {"time": 1877, "pitch": 56, "duration": 2, "velocity": 95}, {"time": 1883, "pitch": 42, "duration": 38, "velocity": 94}, {"time": 1883, "pitch": 54, "duration": 11, "velocity": 83}, {"time": 1883, "pitch": 57, "duration": 7, "velocity": 86}, {"time": 1889, "pitch": 49, "duration": 32, "velocity": 81}, {"time": 1895, "pitch": 57, "duration": 2, "velocity": 94}, {"time": 1895, "pitch": 61, "duration": 6, "velocity": 95}, {"time": 1901, "pitch": 54, "duration": 7, "velocity": 94}, {"time": 1907, "pitch": 66, "duration": 7, "velocity": 99}, {"time": 1913, "pitch": 54, "duration": 4, "velocity": 95}, {"time": 1919, "pitch": 54, "duration": 6, "velocity": 97}, {"time": 1919, "pitch": 57, "duration": 6, "velocity": 99}, {"time": 1919, "pitch": 61, "duration": 7, "velocity": 98}, {"time": 1925, "pitch": 42, "duration": 4, "velocity": 95}, {"time": 1931, "pitch": 44, "duration": 39, "velocity": 99}, {"time": 1931, "pitch": 56, "duration": 6, "velocity": 88}, {"time": 1931, "pitch": 59, "duration": 5, "velocity": 89}, {"time": 1937, "pitch": 51, "duration": 32, "velocity": 84}, {"time": 1943, "pitch": 56, "duration": 2, "velocity": 92}, {"time": 1943, "pitch": 59, "duration": 2, "velocity": 100}, {"time": 1943, "pitch": 63, "duration": 3, "velocity": 100}, {"time": 1949, "pitch": 56, "duration": 7, "velocity": 94}, {"time": 1955, "pitch": 59, "duration": 6, "velocity": 94}, {"time": 1955, "pitch": 63, "duration": 7, "velocity": 96}, {"time": 1955, "pitch": 68, "duration": 1, "velocity": 94}, {"time": 1961, "pitch": 56, "duration": 4, "velocity": 86}, {"time": 1967, "pitch": 56, "duration": 2, "velocity": 92}, {"time": 1967, "pitch": 59, "duration": 3, "velocity": 97}, {"time": 1967, "pitch": 63, "duration": 4, "velocity": 98}, {"time": 1973, "pitch": 44, "duration": 3, "velocity": 96}, {"time": 1979, "pitch": 42, "duration": 34, "velocity": 96}, {"time": 1979, "pitch": 54, "duration": 8, "velocity": 90}, {"time": 1979, "pitch": 57, "duration": 7, "velocity": 83}, {"time": 1985, "pitch": 49, "duration": 29, "velocity": 85}, {"time": 1991, "pitch": 57, "duration": 4, "velocity": 90}, {"time": 1991, "pitch": 61, "duration": 7, "velocity": 93}, {"time": 1997, "pitch": 54, "duration": 7, "velocity": 87}, {"time": 2003, "pitch": 66, "duration": 5, "velocity": 96}, {"time": 2009, "pitch": 54, "duration": 7, "velocity": 95}, {"time": 2015, "pitch": 42, "duration": 5, "velocity": 95}, {"time": 2015, "pitch": 57, "duration": 6, "velocity": 90}, {"time": 2015, "pitch": 61, "duration": 5, "velocity": 95}, {"time": 2021, "pitch": 54, "duration": 2, "velocity": 92}, {"time": 2027, "pitch": 45, "duration": 21, "velocity": 95}, {"time": 2027, "pitch": 52, "duration": 3, "velocity": 88}, {"time": 2027, "pitch": 57, "duration": 7, "velocity": 86}, {"time": 2033, "pitch": 52, "duration": 6, "velocity": 83}, {"time": 2039, "pitch": 61, "duration": 7, "velocity": 97}, {"time": 2045, "pitch": 52, "duration": 7, "velocity": 89}, {"time": 2051, "pitch": 45, "duration": 14, "velocity": 88}, {"time": 2051, "pitch": 57, "duration": 7, "velocity": 90}, {"time": 2057, "pitch": 52, "duration": 7, "velocity": 88}, {"time": 2063, "pitch": 57, "duration": 3, "velocity": 98}, {"time": 2063, "pitch": 61, "duration": 6, "velocity": 90}, {"time": 2069, "pitch": 45, "duration": 6, "velocity": 108}, {"time": 2075, "pitch": 47, "duration": 41, "velocity": 108}, {"time": 2075, "pitch": 54, "duration": 3, "velocity": 89}, {"time": 2075, "pitch": 59, "duration": 6, "velocity": 91}, {"time": 2081, "pitch": 54, "duration": 7, "velocity": 94}, {"time": 2087, "pitch": 59, "duration": 2, "velocity": 95}, {"time": 2087, "pitch": 63, "duration": 3, "velocity": 97}, {"time": 2093, "pitch": 54, "duration": 2, "velocity": 84}, {"time": 2099, "pitch": 54, "duration": 3, "velocity": 92}, {"time": 2099, "pitch": 59, "duration": 7, "velocity": 94}, {"time": 2105, "pitch": 54, "duration": 7, "velocity": 90}, {"time": 2111, "pitch": 59, "duration": 4, "velocity": 98}, {"time": 2111, "pitch": 63, "duration": 6, "velocity": 98}, {"time": 2117, "pitch": 54, "duration": 2, "velocity": 94}, {"time": 2123, "pitch": 44, "duration": 48, "velocity": 95}, {"time": 2123, "pitch": 56, "duration": 7, "velocity": 87}, {"time": 2123, "pitch": 59, "duration": 7, "velocity": 88}, {"time": 2123, "pitch": 63, "duration": 7, "velocity": 94}, {"time": 2129, "pitch": 51, "duration": 9, "velocity": 88}, {"time": 2135, "pitch": 56, "duration": 8, "velocity": 100}, {"time": 2141, "pitch": 51, "duration": 7, "velocity": 87}, {"time": 2147, "pitch": 56, "duration": 8, "velocity": 91}, {"time": 2147, "pitch": 59, "duration": 7, "velocity": 92}, {"time": 2147, "pitch": 63, "duration": 7, "velocity": 95}, {"time": 2153, "pitch": 51, "duration": 9, "velocity": 84}, {"time": 2159, "pitch": 56, "duration": 12, "velocity": 88}, {"time": 2159, "pitch": 59, "duration": 12, "velocity": 94}, {"time": 2159, "pitch": 63, "duration": 12, "velocity": 96}, {"time": 2165, "pitch": 51, "duration": 6, "velocity": 95}, {"time": 2171, "pitch": 37, "duration": 16, "velocity": 99}, {"time": 2171, "pitch": 56, "duration": 1, "velocity": 86}, {"time": 2171, "pitch": 61, "duration": 6, "velocity": 92}, {"time": 2177, "pitch": 56, "duration": 7, "velocity": 89}, {"time": 2183, "pitch": 61, "duration": 7, "velocity": 95}, {"time": 2189, "pitch": 56, "duration": 4, "velocity": 89}, {"time": 2195, "pitch": 61, "duration": 7, "velocity": 97}, {"time": 2195, "pitch": 64, "duration": 8, "velocity": 95}, {"time": 2201, "pitch": 56, "duration": 16, "velocity": 79}, {"time": 2207, "pitch": 61, "duration": 11, "velocity": 96}, {"time": 2207, "pitch": 64, "duration": 12, "velocity": 95}, {"time": 2213, "pitch": 47, "duration": 6, "velocity": 108}, {"time": 2219, "pitch": 37, "duration": 33, "velocity": 98}, {"time": 2219, "pitch": 56, "duration": 9, "velocity": 90}, {"time": 2219, "pitch": 61, "duration": 9, "velocity": 94}, {"time": 2225, "pitch": 44, "duration": 20, "velocity": 77}, {"time": 2231, "pitch": 56, "duration": 9, "velocity": 100}, {"time": 2237, "pitch": 61, "duration": 3, "velocity": 96}, {"time": 2243, "pitch": 56, "duration": 8, "velocity": 93}, {"time": 2243, "pitch": 61, "duration": 8, "velocity": 96}, {"time": 2243, "pitch": 64, "duration": 8, "velocity": 94}, {"time": 2249, "pitch": 44, "duration": 5, "velocity": 80}, {"time": 2255, "pitch": 56, "duration": 3, "velocity": 94}, {"time": 2255, "pitch": 61, "duration": 1, "velocity": 89}, {"time": 2255, "pitch": 64, "duration": 1, "velocity": 85}, {"time": 2261, "pitch": 45, "duration": 20, "velocity": 96}, {"time": 2261, "pitch": 57, "duration": 14, "velocity": 83}, {"time": 2261, "pitch": 61, "duration": 15, "velocity": 93}, {"time": 2273, "pitch": 52, "duration": 9, "velocity": 76}, {"time": 2279, "pitch": 57, "duration": 2, "velocity": 88}, {"time": 2279, "pitch": 61, "duration": 2, "velocity": 90}, {"time": 2279, "pitch": 64, "duration": 3, "velocity": 85}, {"time": 2285, "pitch": 47, "duration": 31, "velocity": 101}, {"time": 2285, "pitch": 59, "duration": 15, "velocity": 86}, {"time": 2285, "pitch": 63, "duration": 30, "velocity": 89}, {"time": 2297, "pitch": 54, "duration": 19, "velocity": 84}, {"time": 2303, "pitch": 66, "duration": 12, "velocity": 91}, {"time": 2309, "pitch": 59, "duration": 7, "velocity": 88}, {"time": 2315, "pitch": 37, "duration": 39, "velocity": 97}, {"time": 2315, "pitch": 61, "duration": 7, "velocity": 91}, {"time": 2315, "pitch": 68, "duration": 13, "velocity": 90}, {"time": 2321, "pitch": 44, "duration": 32, "velocity": 83}, {"time": 2327, "pitch": 61, "duration": 2, "velocity": 101}, {"time": 2333, "pitch": 61, "duration": 3, "velocity": 92}, {"time": 2333, "pitch": 64, "duration": 3, "velocity": 95}, {"time": 2345, "pitch": 61, "duration": 2, "velocity": 88}, {"time": 2351, "pitch": 61, "duration": 2, "velocity": 95}, {"time": 2351, "pitch": 64, "duration": 7, "velocity": 101}, {"time": 2351, "pitch": 68, "duration": 8, "velocity": 100}, {"time": 2357, "pitch": 61, "duration": 2, "velocity": 86}, {"time": 2363, "pitch": 47, "duration": 37, "velocity": 95}, {"time": 2363, "pitch": 59, "duration": 7, "velocity": 94}, {"time": 2363, "pitch": 68, "duration": 13, "velocity": 90}, {"time": 2369, "pitch": 54, "duration": 19, "velocity": 85}, {"time": 2375, "pitch": 59, "duration": 4, "velocity": 89}, {"time": 2381, "pitch": 59, "duration": 5, "velocity": 96}, {"time": 2381, "pitch": 68, "duration": 11, "velocity": 94}, {"time": 2393, "pitch": 54, "duration": 7, "velocity": 82}, {"time": 2399, "pitch": 59, "duration": 4, "velocity": 97}, {"time": 2399, "pitch": 68, "duration": 5, "velocity": 94}, {"time": 2411, "pitch": 45, "duration": 22, "velocity": 88}, {"time": 2411, "pitch": 57, "duration": 6, "velocity": 86}, {"time": 2411, "pitch": 64, "duration": 11, "velocity": 90}, {"time": 2417, "pitch": 52, "duration": 15, "velocity": 82}, {"time": 2423, "pitch": 57, "duration": 3, "velocity": 84}, {"time": 2429, "pitch": 57, "duration": 13, "velocity": 96}, {"time": 2429, "pitch": 64, "duration": 13, "velocity": 94}, {"time": 2441, "pitch": 52, "duration": 13, "velocity": 81}, {"time": 2447, "pitch": 57, "duration": 2, "velocity": 95}, {"time": 2447, "pitch": 61, "duration": 7, "velocity": 94}, {"time": 2447, "pitch": 64, "duration": 9, "velocity": 94}, {"time": 2453, "pitch": 57, "duration": 2, "velocity": 91}, {"time": 2459, "pitch": 52, "duration": 12, "velocity": 87}, {"time": 2459, "pitch": 59, "duration": 5, "velocity": 89}, {"time": 2459, "pitch": 64, "duration": 9, "velocity": 94}, {"time": 2465, "pitch": 56, "duration": 7, "velocity": 88}, {"time": 2471, "pitch": 59, "duration": 10, "velocity": 105}, {"time": 2477, "pitch": 64, "duration": 4, "velocity": 94}, {"time": 2483, "pitch": 40, "duration": 14, "velocity": 93}, {"time": 2483, "pitch": 59, "duration": 4, "velocity": 89}, {"time": 2483, "pitch": 64, "duration": 7, "velocity": 94}, {"time": 2483, "pitch": 68, "duration": 8, "velocity": 90}, {"time": 2489, "pitch": 59, "duration": 7, "velocity": 94}, {"time": 2495, "pitch": 64, "duration": 5, "velocity": 97}, {"time": 2495, "pitch": 68, "duration": 7, "velocity": 100}, {"time": 2501, "pitch": 59, "duration": 2, "velocity": 94}, {"time": 2507, "pitch": 45, "duration": 39, "velocity": 88}, {"time": 2507, "pitch": 52, "duration": 4, "velocity": 82}, {"time": 2507, "pitch": 57, "duration": 8, "velocity": 82}, {"time": 2513, "pitch": 52, "duration": 15, "velocity": 89}, {"time": 2519, "pitch": 57, "duration": 4, "velocity": 96}, {"time": 2525, "pitch": 57, "duration": 13, "velocity": 88}, {"time": 2525, "pitch": 64, "duration": 15, "velocity": 92}, {"time": 2537, "pitch": 52, "duration": 4, "velocity": 83}, {"time": 2543, "pitch": 52, "duration": 2, "velocity": 93}, {"time": 2543, "pitch": 57, "duration": 7, "velocity": 96}, {"time": 2543, "pitch": 61, "duration": 9, "velocity": 94}, {"time": 2549, "pitch": 52, "duration": 2, "velocity": 88}, {"time": 2555, "pitch": 42, "duration": 43, "velocity": 94}, {"time": 2555, "pitch": 54, "duration": 7, "velocity": 89}, {"time": 2555, "pitch": 57, "duration": 7, "velocity": 85}, {"time": 2555, "pitch": 61, "duration": 10, "velocity": 93}, {"time": 2561, "pitch": 49, "duration": 34, "velocity": 86}, {"time": 2567, "pitch": 54, "duration": 3, "velocity": 94}, {"time": 2573, "pitch": 54, "duration": 2, "velocity": 96}, {"time": 2573, "pitch": 61, "duration": 3, "velocity": 94}, {"time": 2585, "pitch": 54, "duration": 3, "velocity": 84}, {"time": 2591, "pitch": 54, "duration": 2, "velocity": 90}, {"time": 2591, "pitch": 57, "duration": 5, "velocity": 90}, {"time": 2591, "pitch": 61, "duration": 9, "velocity": 96}, {"time": 2597, "pitch": 54, "duration": 2, "velocity": 94}, {"time": 2603, "pitch": 44, "duration": 38, "velocity": 95}, {"time": 2603, "pitch": 56, "duration": 7, "velocity": 89}, {"time": 2603, "pitch": 59, "duration": 10, "velocity": 89}, {"time": 2609, "pitch": 51, "duration": 20, "velocity": 85}, {"time": 2615, "pitch": 56, "duration": 2, "velocity": 95}, {"time": 2621, "pitch": 56, "duration": 3, "velocity": 96}, {"time": 2621, "pitch": 63, "duration": 4, "velocity": 96}, {"time": 2627, "pitch": 56, "duration": 9, "velocity": 85}, {"time": 2627, "pitch": 59, "duration": 8, "velocity": 88}, {"time": 2633, "pitch": 51, "duration": 9, "velocity": 87}, {"time": 2639, "pitch": 56, "duration": 3, "velocity": 93}, {"time": 2639, "pitch": 59, "duration": 4, "velocity": 100}, {"time": 2639, "pitch": 63, "duration": 5, "velocity": 96}, {"time": 2645, "pitch": 44, "duration": 2, "velocity": 95}, {"time": 2651, "pitch": 37, "duration": 48, "velocity": 96}, {"time": 2651, "pitch": 56, "duration": 3, "velocity": 85}, {"time": 2651, "pitch": 61, "duration": 7, "velocity": 89}, {"time": 2657, "pitch": 56, "duration": 8, "velocity": 82}, {"time": 2663, "pitch": 61, "duration": 2, "velocity": 85}, {"time": 2669, "pitch": 56, "duration": 15, "velocity": 90}, {"time": 2669, "pitch": 64, "duration": 15, "velocity": 91}, {"time": 2681, "pitch": 63, "duration": 3, "velocity": 87}, {"time": 2687, "pitch": 59, "duration": 12, "velocity": 94}, {"time": 2693, "pitch": 56, "duration": 5, "velocity": 81}, {"time": 2699, "pitch": 37, "duration": 39, "velocity": 95}, {"time": 2699, "pitch": 61, "duration": 5, "velocity": 87}, {"time": 2699, "pitch": 64, "duration": 8, "velocity": 88}, {"time": 2705, "pitch": 44, "duration": 20, "velocity": 81}, {"time": 2711, "pitch": 56, "duration": 3, "velocity": 86}, {"time": 2717, "pitch": 56, "duration": 12, "velocity": 94}, {"time": 2717, "pitch": 61, "duration": 12, "velocity": 94}, {"time": 2717, "pitch": 64, "duration": 12, "velocity": 94}, {"time": 2729, "pitch": 44, "duration": 9, "velocity": 67}, {"time": 2735, "pitch": 56, "duration": 2, "velocity": 93}, {"time": 2735, "pitch": 61, "duration": 7, "velocity": 95}, {"time": 2741, "pitch": 56, "duration": 3, "velocity": 86}, {"time": 2747, "pitch": 44, "duration": 38, "velocity": 93}, {"time": 2747, "pitch": 56, "duration": 6, "velocity": 88}, {"time": 2747, "pitch": 59, "duration": 7, "velocity": 88}, {"time": 2753, "pitch": 51, "duration": 14, "velocity": 81}, {"time": 2759, "pitch": 56, "duration": 6, "velocity": 85}, {"time": 2765, "pitch": 59, "duration": 4, "velocity": 89}, {"time": 2771, "pitch": 56, "duration": 8, "velocity": 89}, {"time": 2771, "pitch": 59, "duration": 7, "velocity": 95}, {"time": 2771, "pitch": 63, "duration": 6, "velocity": 95}, {"time": 2777, "pitch": 51, "duration": 9, "velocity": 80}, {"time": 2783, "pitch": 56, "duration": 2, "velocity": 90}, {"time": 2783, "pitch": 59, "duration": 2, "velocity": 91}, {"time": 2795, "pitch": 45, "duration": 39, "velocity": 89}, {"time": 2795, "pitch": 57, "duration": 7, "velocity": 80}, {"time": 2795, "pitch": 61, "duration": 14, "velocity": 89}, {"time": 2801, "pitch": 52, "duration": 33, "velocity": 82}, {"time": 2807, "pitch": 57, "duration": 3, "velocity": 71}, {"time": 2813, "pitch": 57, "duration": 8, "velocity": 91}, {"time": 2813, "pitch": 64, "duration": 13, "velocity": 94}, {"time": 2831, "pitch": 57, "duration": 3, "velocity": 92}, {"time": 2831, "pitch": 61, "duration": 4, "velocity": 95}, {"time": 2843, "pitch": 40, "duration": 40, "velocity": 92}, {"time": 2843, "pitch": 56, "duration": 7, "velocity": 88}, {"time": 2843, "pitch": 59, "duration": 12, "velocity": 90}, {"time": 2849, "pitch": 47, "duration": 33, "velocity": 84}, {"time": 2855, "pitch": 56, "duration": 10, "velocity": 95}, {"time": 2861, "pitch": 59, "duration": 4, "velocity": 105}, {"time": 2867, "pitch": 56, "duration": 3, "velocity": 89}, {"time": 2867, "pitch": 64, "duration": 17, "velocity": 94}, {"time": 2879, "pitch": 59, "duration": 5, "velocity": 96}, {"time": 2891, "pitch": 42, "duration": 43, "velocity": 90}, {"time": 2891, "pitch": 54, "duration": 13, "velocity": 89}, {"time": 2891, "pitch": 61, "duration": 34, "velocity": 89}, {"time": 2897, "pitch": 49, "duration": 38, "velocity": 95}, {"time": 2903, "pitch": 57, "duration": 22, "velocity": 98}, {"time": 2909, "pitch": 54, "duration": 7, "velocity": 88}, {"time": 2915, "pitch": 66, "duration": 9, "velocity": 91}, {"time": 2921, "pitch": 54, "duration": 7, "velocity": 74}, {"time": 2927, "pitch": 57, "duration": 6, "velocity": 84}, {"time": 2927, "pitch": 61, "duration": 9, "velocity": 94}, {"time": 2927, "pitch": 66, "duration": 8, "velocity": 89}, {"time": 2939, "pitch": 44, "duration": 42, "velocity": 94}, {"time": 2939, "pitch": 56, "duration": 8, "velocity": 85}, {"time": 2939, "pitch": 63, "duration": 13, "velocity": 94}, {"time": 2945, "pitch": 51, "duration": 15, "velocity": 87}, {"time": 2951, "pitch": 56, "duration": 20, "velocity": 96}, {"time": 2957, "pitch": 63, "duration": 15, "velocity": 99}, {"time": 2969, "pitch": 51, "duration": 12, "velocity": 90}, {"time": 2975, "pitch": 56, "duration": 3, "velocity": 90}, {"time": 2975, "pitch": 59, "duration": 6, "velocity": 98}, {"time": 2981, "pitch": 56, "duration": 8, "velocity": 92}, {"time": 2987, "pitch": 44, "duration": 42, "velocity": 94}, {"time": 2987, "pitch": 56, "duration": 2, "velocity": 85}, {"time": 2987, "pitch": 63, "duration": 13, "velocity": 94}, {"time": 2993, "pitch": 51, "duration": 15, "velocity": 87}, {"time": 2999, "pitch": 56, "duration": 20, "velocity": 96}, {"time": 3005, "pitch": 63, "duration": 15, "velocity": 99}, {"time": 3017, "pitch": 51, "duration": 12, "velocity": 90}, {"time": 3023, "pitch": 56, "duration": 3, "velocity": 90}, {"time": 3023, "pitch": 59, "duration": 6, "velocity": 98}, {"time": 3029, "pitch": 56, "duration": 8, "velocity": 92}, {"time": 3035, "pitch": 37, "duration": 47, "velocity": 87}, {"time": 3035, "pitch": 56, "duration": 2, "velocity": 85}, {"time": 3035, "pitch": 61, "duration": 13, "velocity": 89}, {"time": 3041, "pitch": 44, "duration": 22, "velocity": 87}, {"time": 3047, "pitch": 56, "duration": 3, "velocity": 94}, {"time": 3053, "pitch": 56, "duration": 13, "velocity": 94}, {"time": 3053, "pitch": 64, "duration": 14, "velocity": 94}, {"time": 3065, "pitch": 44, "duration": 9, "velocity": 73}, {"time": 3071, "pitch": 56, "duration": 11, "velocity": 95}, {"time": 3071, "pitch": 61, "duration": 11, "velocity": 97}, {"time": 3077, "pitch": 44, "duration": 5, "velocity": 86}, {"time": 3083, "pitch": 49, "duration": 17, "velocity": 101}, {"time": 3083, "pitch": 56, "duration": 3, "velocity": 94}, {"time": 3083, "pitch": 61, "duration": 7, "velocity": 96}, {"time": 3089, "pitch": 56, "duration": 6, "velocity": 90}, {"time": 3095, "pitch": 64, "duration": 10, "velocity": 100}, {"time": 3101, "pitch": 56, "duration": 4, "velocity": 100}, {"time": 3104, "pitch": 44, "duration": 1, "velocity": 55}, {"time": 3107, "pitch": 44, "duration": 15, "velocity": 95}, {"time": 3107, "pitch": 56, "duration": 7, "velocity": 93}, {"time": 3107, "pitch": 59, "duration": 7, "velocity": 96}, {"time": 3113, "pitch": 51, "duration": 9, "velocity": 95}, {"time": 3119, "pitch": 56, "duration": 2, "velocity": 93}, {"time": 3119, "pitch": 59, "duration": 4, "velocity": 98}, {"time": 3119, "pitch": 63, "duration": 8, "velocity": 96}, {"time": 3125, "pitch": 56, "duration": 2, "velocity": 95}, {"time": 3131, "pitch": 42, "duration": 38, "velocity": 94}, {"time": 3131, "pitch": 54, "duration": 11, "velocity": 83}, {"time": 3131, "pitch": 57, "duration": 7, "velocity": 86}, {"time": 3137, "pitch": 49, "duration": 32, "velocity": 81}, {"time": 3143, "pitch": 57, "duration": 2, "velocity": 94}, {"time": 3143, "pitch": 61, "duration": 6, "velocity": 95}, {"time": 3149, "pitch": 54, "duration": 7, "velocity": 94}, {"time": 3155, "pitch": 66, "duration": 7, "velocity": 99}, {"time": 3161, "pitch": 54, "duration": 4, "velocity": 95}, {"time": 3167, "pitch": 54, "duration": 6, "velocity": 97}, {"time": 3167, "pitch": 57, "duration": 6, "velocity": 99}, {"time": 3167, "pitch": 61, "duration": 7, "velocity": 98}, {"time": 3173, "pitch": 42, "duration": 4, "velocity": 95}, {"time": 3179, "pitch": 44, "duration": 39, "velocity": 99}, {"time": 3179, "pitch": 56, "duration": 6, "velocity": 88}, {"time": 3179, "pitch": 59, "duration": 5, "velocity": 89}, {"time": 3185, "pitch": 51, "duration": 32, "velocity": 84}, {"time": 3191, "pitch": 56, "duration": 2, "velocity": 92}, {"time": 3191, "pitch": 59, "duration": 2, "velocity": 100}, {"time": 3191, "pitch": 63, "duration": 3, "velocity": 100}, {"time": 3197, "pitch": 56, "duration": 7, "velocity": 94}, {"time": 3203, "pitch": 59, "duration": 6, "velocity": 94}, {"time": 3203, "pitch": 63, "duration": 7, "velocity": 96}, {"time": 3203, "pitch": 68, "duration": 1, "velocity": 94}, {"time": 3209, "pitch": 56, "duration": 4, "velocity": 86}, {"time": 3215, "pitch": 56, "duration": 2, "velocity": 92}, {"time": 3215, "pitch": 59, "duration": 3, "velocity": 97}, {"time": 3215, "pitch": 63, "duration": 4, "velocity": 98}, {"time": 3221, "pitch": 44, "duration": 3, "velocity": 96}, {"time": 3227, "pitch": 42, "duration": 34, "velocity": 96}, {"time": 3227, "pitch": 54, "duration": 8, "velocity": 90}, {"time": 3227, "pitch": 57, "duration": 7, "velocity": 83}, {"time": 3233, "pitch": 49, "duration": 29, "velocity": 85}, {"time": 3239, "pitch": 57, "duration": 4, "velocity": 90}, {"time": 3239, "pitch": 61, "duration": 7, "velocity": 93}, {"time": 3245, "pitch": 54, "duration": 7, "velocity": 87}, {"time": 3251, "pitch": 66, "duration": 5, "velocity": 96}, {"time": 3257, "pitch": 54, "duration": 7, "velocity": 95}, {"time": 3263, "pitch": 42, "duration": 5, "velocity": 95}, {"time": 3263, "pitch": 57, "duration": 6, "velocity": 90}, {"time": 3263, "pitch": 61, "duration": 5, "velocity": 95}, {"time": 3269, "pitch": 54, "duration": 2, "velocity": 92}, {"time": 3275, "pitch": 45, "duration": 21, "velocity": 95}, {"time": 3275, "pitch": 52, "duration": 3, "velocity": 88}, {"time": 3275, "pitch": 57, "duration": 7, "velocity": 86}, {"time": 3281, "pitch": 52, "duration": 6, "velocity": 83}, {"time": 3287, "pitch": 61, "duration": 7, "velocity": 97}, {"time": 3293, "pitch": 52, "duration": 7, "velocity": 89}, {"time": 3299, "pitch": 45, "duration": 14, "velocity": 88}, {"time": 3299, "pitch": 57, "duration": 7, "velocity": 90}, {"time": 3305, "pitch": 52, "duration": 7, "velocity": 88}, {"time": 3311, "pitch": 57, "duration": 3, "velocity": 98}, {"time": 3311, "pitch": 61, "duration": 6, "velocity": 90}, {"time": 3317, "pitch": 45, "duration": 6, "velocity": 108}, {"time": 3323, "pitch": 47, "duration": 41, "velocity": 108}, {"time": 3323, "pitch": 54, "duration": 3, "velocity": 89}, {"time": 3323, "pitch": 59, "duration": 6, "velocity": 91}, {"time": 3329, "pitch": 54, "duration": 7, "velocity": 94}, {"time": 3335, "pitch": 59, "duration": 2, "velocity": 95}, {"time": 3335, "pitch": 63, "duration": 3, "velocity": 97}, {"time": 3341, "pitch": 54, "duration": 2, "velocity": 84}, {"time": 3347, "pitch": 54, "duration": 3, "velocity": 92}, {"time": 3347, "pitch": 59, "duration": 7, "velocity": 94}, {"time": 3353, "pitch": 54, "duration": 7, "velocity": 90}, {"time": 3359, "pitch": 59, "duration": 4, "velocity": 98}, {"time": 3359, "pitch": 63, "duration": 6, "velocity": 98}, {"time": 3365, "pitch": 54, "duration": 2, "velocity": 94}, {"time": 3371, "pitch": 45, "duration": 37, "velocity": 98}, {"time": 3371, "pitch": 52, "duration": 3, "velocity": 87}, {"time": 3371, "pitch": 57, "duration": 8, "velocity": 87}, {"time": 3377, "pitch": 52, "duration": 7, "velocity": 89}, {"time": 3383, "pitch": 57, "duration": 5, "velocity": 94}, {"time": 3383, "pitch": 61, "duration": 4, "velocity": 95}, {"time": 3389, "pitch": 52, "duration": 2, "velocity": 88}, {"time": 3395, "pitch": 52, "duration": 2, "velocity": 86}, {"time": 3395, "pitch": 57, "duration": 7, "velocity": 95}, {"time": 3401, "pitch": 52, "duration": 2, "velocity": 82}, {"time": 3407, "pitch": 52, "duration": 3, "velocity": 93}, {"time": 3407, "pitch": 57, "duration": 7, "velocity": 96}, {"time": 3407, "pitch": 61, "duration": 8, "velocity": 94}, {"time": 3419, "pitch": 37, "duration": 16, "velocity": 99}, {"time": 3419, "pitch": 56, "duration": 3, "velocity": 86}, {"time": 3419, "pitch": 61, "duration": 6, "velocity": 92}, {"time": 3425, "pitch": 56, "duration": 7, "velocity": 89}, {"time": 3431, "pitch": 61, "duration": 7, "velocity": 95}, {"time": 3437, "pitch": 56, "duration": 4, "velocity": 89}, {"time": 3443, "pitch": 61, "duration": 7, "velocity": 97}, {"time": 3443, "pitch": 64, "duration": 8, "velocity": 95}, {"time": 3449, "pitch": 56, "duration": 16, "velocity": 79}, {"time": 3455, "pitch": 61, "duration": 11, "velocity": 96}, {"time": 3455, "pitch": 64, "duration": 12, "velocity": 95}, {"time": 3461, "pitch": 47, "duration": 6, "velocity": 108}, {"time": 3467, "pitch": 49, "duration": 17, "velocity": 101}, {"time": 3467, "pitch": 56, "duration": 3, "velocity": 94}, {"time": 3467, "pitch": 61, "duration": 7, "velocity": 96}, {"time": 3473, "pitch": 56, "duration": 6, "velocity": 90}, {"time": 3479, "pitch": 64, "duration": 10, "velocity": 100}, {"time": 3485, "pitch": 44, "duration": 1, "velocity": 55}, {"time": 3485, "pitch": 56, "duration": 4, "velocity": 100}, {"time": 3491, "pitch": 44, "duration": 15, "velocity": 95}, {"time": 3491, "pitch": 56, "duration": 7, "velocity": 93}, {"time": 3491, "pitch": 59, "duration": 7, "velocity": 96}, {"time": 3497, "pitch": 51, "duration": 9, "velocity": 95}, {"time": 3503, "pitch": 56, "duration": 2, "velocity": 93}, {"time": 3503, "pitch": 59, "duration": 4, "velocity": 98}, {"time": 3503, "pitch": 63, "duration": 8, "velocity": 96}, {"time": 3509, "pitch": 56, "duration": 2, "velocity": 95}, {"time": 3515, "pitch": 42, "duration": 38, "velocity": 94}, {"time": 3515, "pitch": 54, "duration": 11, "velocity": 83}, {"time": 3515, "pitch": 57, "duration": 7, "velocity": 86}, {"time": 3521, "pitch": 49, "duration": 32, "velocity": 81}, {"time": 3527, "pitch": 57, "duration": 2, "velocity": 94}, {"time": 3527, "pitch": 61, "duration": 6, "velocity": 95}, {"time": 3533, "pitch": 54, "duration": 7, "velocity": 94}, {"time": 3539, "pitch": 66, "duration": 7, "velocity": 99}, {"time": 3545, "pitch": 54, "duration": 4, "velocity": 95}, {"time": 3551, "pitch": 54, "duration": 6, "velocity": 97}, {"time": 3551, "pitch": 57, "duration": 6, "velocity": 99}, {"time": 3551, "pitch": 61, "duration": 7, "velocity": 98}, {"time": 3557, "pitch": 42, "duration": 4, "velocity": 95}, {"time": 3563, "pitch": 44, "duration": 39, "velocity": 99}, {"time": 3563, "pitch": 56, "duration": 6, "velocity": 88}, {"time": 3563, "pitch": 59, "duration": 5, "velocity": 89}, {"time": 3569, "pitch": 51, "duration": 32, "velocity": 84}, {"time": 3575, "pitch": 56, "duration": 2, "velocity": 92}, {"time": 3575, "pitch": 59, "duration": 2, "velocity": 100}, {"time": 3575, "pitch": 63, "duration": 3, "velocity": 100}, {"time": 3581, "pitch": 56, "duration": 7, "velocity": 94}, {"time": 3587, "pitch": 59, "duration": 6, "velocity": 94}, {"time": 3587, "pitch": 63, "duration": 7, "velocity": 96}, {"time": 3587, "pitch": 68, "duration": 1, "velocity": 94}, {"time": 3593, "pitch": 56, "duration": 4, "velocity": 86}, {"time": 3599, "pitch": 56, "duration": 2, "velocity": 92}, {"time": 3599, "pitch": 59, "duration": 3, "velocity": 97}, {"time": 3599, "pitch": 63, "duration": 4, "velocity": 98}, {"time": 3605, "pitch": 44, "duration": 3, "velocity": 96}, {"time": 3611, "pitch": 42, "duration": 34, "velocity": 96}, {"time": 3611, "pitch": 54, "duration": 8, "velocity": 90}, {"time": 3611, "pitch": 57, "duration": 7, "velocity": 83}, {"time": 3617, "pitch": 49, "duration": 29, "velocity": 85}, {"time": 3623, "pitch": 57, "duration": 4, "velocity": 90}, {"time": 3623, "pitch": 61, "duration": 7, "velocity": 93}, {"time": 3629, "pitch": 54, "duration": 7, "velocity": 87}, {"time": 3635, "pitch": 66, "duration": 5, "velocity": 96}, {"time": 3641, "pitch": 54, "duration": 7, "velocity": 95}, {"time": 3647, "pitch": 42, "duration": 5, "velocity": 95}, {"time": 3647, "pitch": 57, "duration": 6, "velocity": 90}, {"time": 3647, "pitch": 61, "duration": 5, "velocity": 95}, {"time": 3653, "pitch": 54, "duration": 2, "velocity": 92}, {"time": 3659, "pitch": 45, "duration": 21, "velocity": 95}, {"time": 3659, "pitch": 52, "duration": 3, "velocity": 88}, {"time": 3659, "pitch": 57, "duration": 7, "velocity": 86}, {"time": 3665, "pitch": 52, "duration": 6, "velocity": 83}, {"time": 3671, "pitch": 61, "duration": 7, "velocity": 97}, {"time": 3677, "pitch": 52, "duration": 7, "velocity": 89}, {"time": 3683, "pitch": 45, "duration": 14, "velocity": 88}, {"time": 3683, "pitch": 57, "duration": 7, "velocity": 90}, {"time": 3689, "pitch": 52, "duration": 7, "velocity": 88}, {"time": 3695, "pitch": 57, "duration": 3, "velocity": 98}, {"time": 3695, "pitch": 61, "duration": 6, "velocity": 90}, {"time": 3701, "pitch": 45, "duration": 6, "velocity": 108}, {"time": 3707, "pitch": 47, "duration": 41, "velocity": 108}, {"time": 3707, "pitch": 54, "duration": 3, "velocity": 89}, {"time": 3707, "pitch": 59, "duration": 6, "velocity": 91}, {"time": 3713, "pitch": 54, "duration": 7, "velocity": 94}, {"time": 3719, "pitch": 59, "duration": 2, "velocity": 95}, {"time": 3719, "pitch": 63, "duration": 3, "velocity": 97}, {"time": 3725, "pitch": 54, "duration": 2, "velocity": 84}, {"time": 3731, "pitch": 54, "duration": 3, "velocity": 92}, {"time": 3731, "pitch": 59, "duration": 7, "velocity": 94}, {"time": 3737, "pitch": 54, "duration": 7, "velocity": 90}, {"time": 3743, "pitch": 59, "duration": 4, "velocity": 98}, {"time": 3743, "pitch": 63, "duration": 6, "velocity": 98}, {"time": 3749, "pitch": 54, "duration": 2, "velocity": 94}, {"time": 3755, "pitch": 44, "duration": 48, "velocity": 95}, {"time": 3755, "pitch": 56, "duration": 7, "velocity": 87}, {"time": 3755, "pitch": 59, "duration": 7, "velocity": 88}, {"time": 3755, "pitch": 63, "duration": 7, "velocity": 94}, {"time": 3761, "pitch": 51, "duration": 9, "velocity": 88}, {"time": 3767, "pitch": 56, "duration": 8, "velocity": 100}, {"time": 3773, "pitch": 51, "duration": 7, "velocity": 87}, {"time": 3779, "pitch": 56, "duration": 8, "velocity": 91}, {"time": 3779, "pitch": 59, "duration": 7, "velocity": 92}, {"time": 3779, "pitch": 63, "duration": 7, "velocity": 95}, {"time": 3785, "pitch": 51, "duration": 9, "velocity": 84}, {"time": 3791, "pitch": 56, "duration": 12, "velocity": 88}, {"time": 3791, "pitch": 59, "duration": 12, "velocity": 94}, {"time": 3791, "pitch": 63, "duration": 12, "velocity": 96}, {"time": 3797, "pitch": 51, "duration": 6, "velocity": 95}, {"time": 3803, "pitch": 37, "duration": 16, "velocity": 99}, {"time": 3803, "pitch": 56, "duration": 1, "velocity": 86}, {"time": 3803, "pitch": 61, "duration": 6, "velocity": 92}, {"time": 3809, "pitch": 56, "duration": 7, "velocity": 89}, {"time": 3815, "pitch": 61, "duration": 7, "velocity": 95}, {"time": 3821, "pitch": 56, "duration": 4, "velocity": 89}, {"time": 3827, "pitch": 61, "duration": 7, "velocity": 97}, {"time": 3827, "pitch": 64, "duration": 8, "velocity": 95}, {"time": 3833, "pitch": 56, "duration": 16, "velocity": 79}, {"time": 3839, "pitch": 61, "duration": 11, "velocity": 96}, {"time": 3839, "pitch": 64, "duration": 12, "velocity": 95}, {"time": 3845, "pitch": 47, "duration": 6, "velocity": 108}, {"time": 3851, "pitch": 37, "duration": 39, "velocity": 97}, {"time": 3851, "pitch": 61, "duration": 7, "velocity": 91}, {"time": 3851, "pitch": 68, "duration": 13, "velocity": 90}, {"time": 3857, "pitch": 44, "duration": 32, "velocity": 83}, {"time": 3863, "pitch": 61, "duration": 2, "velocity": 101}, {"time": 3869, "pitch": 61, "duration": 3, "velocity": 92}, {"time": 3869, "pitch": 64, "duration": 3, "velocity": 95}, {"time": 3881, "pitch": 61, "duration": 2, "velocity": 88}, {"time": 3887, "pitch": 61, "duration": 2, "velocity": 95}, {"time": 3887, "pitch": 64, "duration": 7, "velocity": 101}, {"time": 3887, "pitch": 68, "duration": 8, "velocity": 100}, {"time": 3893, "pitch": 61, "duration": 2, "velocity": 86}, {"time": 3899, "pitch": 47, "duration": 37, "velocity": 95}, {"time": 3899, "pitch": 59, "duration": 7, "velocity": 94}, {"time": 3899, "pitch": 68, "duration": 13, "velocity": 90}, {"time": 3905, "pitch": 54, "duration": 19, "velocity": 85}, {"time": 3911, "pitch": 59, "duration": 4, "velocity": 89}, {"time": 3917, "pitch": 59, "duration": 5, "velocity": 96}, {"time": 3917, "pitch": 68, "duration": 11, "velocity": 94}, {"time": 3929, "pitch": 54, "duration": 7, "velocity": 82}, {"time": 3935, "pitch": 59, "duration": 4, "velocity": 97}, {"time": 3935, "pitch": 68, "duration": 5, "velocity": 94}, {"time": 3947, "pitch": 45, "duration": 22, "velocity": 88}, {"time": 3947, "pitch": 57, "duration": 6, "velocity": 86}, {"time": 3947, "pitch": 64, "duration": 11, "velocity": 90}, {"time": 3953, "pitch": 52, "duration": 15, "velocity": 82}, {"time": 3959, "pitch": 57, "duration": 3, "velocity": 84}, {"time": 3965, "pitch": 57, "duration": 13, "velocity": 96}, {"time": 3965, "pitch": 64, "duration": 13, "velocity": 94}, {"time": 3977, "pitch": 52, "duration": 13, "velocity": 81}, {"time": 3983, "pitch": 57, "duration": 2, "velocity": 95}, {"time": 3983, "pitch": 61, "duration": 7, "velocity": 94}, {"time": 3983, "pitch": 64, "duration": 9, "velocity": 94}, {"time": 3989, "pitch": 57, "duration": 2, "velocity": 91}, {"time": 3995, "pitch": 52, "duration": 12, "velocity": 87}, {"time": 3995, "pitch": 59, "duration": 5, "velocity": 89}, {"time": 3995, "pitch": 64, "duration": 9, "velocity": 94}, {"time": 4001, "pitch": 56, "duration": 7, "velocity": 88}, {"time": 4007, "pitch": 59, "duration": 10, "velocity": 105}, {"time": 4013, "pitch": 64, "duration": 4, "velocity": 94}, {"time": 4019, "pitch": 40, "duration": 14, "velocity": 93}, {"time": 4019, "pitch": 59, "duration": 4, "velocity": 89}, {"time": 4019, "pitch": 64, "duration": 7, "velocity": 94}, {"time": 4019, "pitch": 68, "duration": 8, "velocity": 90}, {"time": 4025, "pitch": 59, "duration": 7, "velocity": 94}, {"time": 4031, "pitch": 64, "duration": 5, "velocity": 97}, {"time": 4031, "pitch": 68, "duration": 7, "velocity": 100}, {"time": 4037, "pitch": 59, "duration": 2, "velocity": 94}, {"time": 4043, "pitch": 37, "duration": 42, "velocity": 96}, {"time": 4043, "pitch": 56, "duration": 7, "velocity": 87}, {"time": 4043, "pitch": 61, "duration": 11, "velocity": 90}, {"time": 4049, "pitch": 44, "duration": 36, "velocity": 83}, {"time": 4055, "pitch": 56, "duration": 8, "velocity": 93}, {"time": 4061, "pitch": 61, "duration": 3, "velocity": 83}, {"time": 4067, "pitch": 56, "duration": 9, "velocity": 83}, {"time": 4067, "pitch": 61, "duration": 9, "velocity": 89}, {"time": 4079, "pitch": 56, "duration": 2, "velocity": 86}, {"time": 4085, "pitch": 56, "duration": 10, "velocity": 88}, {"time": 4085, "pitch": 61, "duration": 18, "velocity": 94}, {"time": 4091, "pitch": 45, "duration": 35, "velocity": 95}, {"time": 4097, "pitch": 52, "duration": 28, "velocity": 80}, {"time": 4103, "pitch": 57, "duration": 4, "velocity": 85}, {"time": 4109, "pitch": 57, "duration": 16, "velocity": 85}, {"time": 4109, "pitch": 64, "duration": 16, "velocity": 87}, {"time": 4142, "pitch": 37, "duration": 36, "velocity": 96}, {"time": 4145, "pitch": 56, "duration": 17, "velocity": 81}, {"time": 4145, "pitch": 44, "duration": 33, "velocity": 78}, {"time": 4147, "pitch": 61, "duration": 15, "velocity": 86}, {"time": 4148, "pitch": 64, "duration": 15, "velocity": 83}], "annotations": [{"time": 275, "annotation": {"number": 64, "value": 0}, "group": "control_change"}, {"time": 281, "annotation": {"number": 64, "value": 127}, "group": "control_change"}, {"time": 321, "annotation": {"number": 64, "value": 0}, "group": "control_change"}, {"time": 327, "annotation": {"number": 64, "value": 127}, "group": "control_change"}, {"time": 369, "annotation": {"number": 64, "value": 0}, "group": "control_change"}, {"time": 375, "annotation": {"number": 64, "value": 127}, "group": "control_change"}, {"time": 416, "annotation": {"number": 64, "value": 0}, "group": "control_change"}, {"time": 424, "annotation": {"number": 64, "value": 127}, "group": "control_change"}, {"time": 465, "annotation": {"number": 64, "value": 0}, "group": "control_change"}, {"time": 472, "annotation": {"number": 64, "value": 127}, "group": "control_change"}, {"time": 512, "annotation": {"number": 64, "value": 0}, "group": "control_change"}, {"time": 516, "annotation": {"number": 64, "value": 127}, "group": "control_change"}, {"time": 560, "annotation": {"number": 64, "value": 0}, "group": "control_change"}, {"time": 567, "annotation": {"number": 64, "value": 127}, "group": "control_change"}, {"time": 606, "annotation": {"number": 64, "value": 0}, "group": "control_change"}, {"time": 615, "annotation": {"number": 64, "value": 127}, "group": "control_change"}, {"time": 629, "annotation": {"number": 64, "value": 0}, "group": "control_change"}, {"time": 638, "annotation": {"number": 64, "value": 127}, "group": "control_change"}, {"time": 655, "annotation": {"number": 64, "value": 0}, "group": "control_change"}, {"time": 729, "annotation": {"number": 64, "value": 0}, "group": "control_change"}, {"time": 734, "annotation": {"number": 64, "value": 127}, "group": "control_change"}, {"time": 776, "annotation": {"number": 64, "value": 0}, "group": "control_change"}, {"time": 783, "annotation": {"number": 64, "value": 127}, "group": "control_change"}, {"time": 825, "annotation": {"number": 64, "value": 0}, "group": "control_change"}, {"time": 830, "annotation": {"number": 64, "value": 127}, "group": "control_change"}, {"time": 830, "annotation": {"number": 64, "value": 0}, "group": "control_change"}, {"time": 874, "annotation": {"number": 64, "value": 0}, "group": "control_change"}, {"time": 876, "annotation": {"number": 64, "value": 127}, "group": "control_change"}, {"time": 884, "annotation": {"number": 64, "value": 0}, "group": "control_change"}, {"time": 892, "annotation": {"number": 64, "value": 127}, "group": "control_change"}, {"time": 922, "annotation": {"number": 64, "value": 0}, "group": "control_change"}, {"time": 928, "annotation": {"number": 64, "value": 127}, "group": "control_change"}, {"time": 968, "annotation": {"number": 64, "value": 0}, "group": "control_change"}, {"time": 971, "annotation": {"number": 64, "value": 127}, "group": "control_change"}, {"time": 1018, "annotation": {"number": 64, "value": 0}, "group": "control_change"}, {"time": 1024, "annotation": {"number": 64, "value": 127}, "group": "control_change"}, {"time": 1063, "annotation": {"number": 64, "value": 0}, "group": "control_change"}, {"time": 1113, "annotation": {"number": 64, "value": 0}, "group": "control_change"}, {"time": 1118, "annotation": {"number": 64, "value": 127}, "group": "control_change"}, {"time": 1160, "annotation": {"number": 64, "value": 0}, "group": "control_change"}, {"time": 1167, "annotation": {"number": 64, "value": 127}, "group": "control_change"}, {"time": 1209, "annotation": {"number": 64, "value": 0}, "group": "control_change"}, {"time": 1214, "annotation": {"number": 64, "value": 127}, "group": "control_change"}, {"time": 1214, "annotation": {"number": 64, "value": 0}, "group": "control_change"}, {"time": 1258, "annotation": {"number": 64, "value": 0}, "group": "control_change"}, {"time": 1260, "annotation": {"number": 64, "value": 127}, "group": "control_change"}, {"time": 1268, "annotation": {"number": 64, "value": 0}, "group": "control_change"}, {"time": 1276, "annotation": {"number": 64, "value": 127}, "group": "control_change"}, {"time": 1306, "annotation": {"number": 64, "value": 0}, "group": "control_change"}, {"time": 1312, "annotation": {"number": 64, "value": 127}, "group": "control_change"}, {"time": 1352, "annotation": {"number": 64, "value": 0}, "group": "control_change"}, {"time": 1360, "annotation": {"number": 64, "value": 127}, "group": "control_change"}, {"time": 1400, "annotation": {"number": 64, "value": 0}, "group": "control_change"}, {"time": 1408, "annotation": {"number": 64, "value": 127}, "group": "control_change"}, {"time": 1447, "annotation": {"number": 64, "value": 0}, "group": "control_change"}, {"time": 1451, "annotation": {"number": 64, "value": 127}, "group": "control_change"}, {"time": 1472, "annotation": {"number": 64, "value": 0}, "group": "control_change"}, {"time": 1475, "annotation": {"number": 64, "value": 127}, "group": "control_change"}, {"time": 1496, "annotation": {"number": 64, "value": 0}, "group": "control_change"}, {"time": 1500, "annotation": {"number": 64, "value": 127}, "group": "control_change"}, {"time": 1520, "annotation": {"number": 64, "value": 0}, "group": "control_change"}, {"time": 1522, "annotation": {"number": 64, "value": 127}, "group": "control_change"}, {"time": 1545, "annotation": {"number": 64, "value": 0}, "group": "control_change"}, {"time": 1547, "annotation": {"number": 64, "value": 127}, "group": "control_change"}, {"time": 1592, "annotation": {"number": 64, "value": 0}, "group": "control_change"}, {"time": 1595, "annotation": {"number": 64, "value": 127}, "group": "control_change"}, {"time": 1639, "annotation": {"number": 64, "value": 0}, "group": "control_change"}, {"time": 1643, "annotation": {"number": 64, "value": 127}, "group": "control_change"}, {"time": 1688, "annotation": {"number": 64, "value": 0}, "group": "control_change"}, {"time": 1691, "annotation": {"number": 64, "value": 127}, "group": "control_change"}, {"time": 1736, "annotation": {"number": 64, "value": 0}, "group": "control_change"}, {"time": 1742, "annotation": {"number": 64, "value": 127}, "group": "control_change"}, {"time": 1786, "annotation": {"number": 64, "value": 0}, "group": "control_change"}, {"time": 1789, "annotation": {"number": 64, "value": 127}, "group": "control_change"}, {"time": 1829, "annotation": {"number": 64, "value": 0}, "group": "control_change"}, {"time": 1835, "annotation": {"number": 64, "value": 127}, "group": "control_change"}, {"time": 1856, "annotation": {"number": 64, "value": 0}, "group": "control_change"}, {"time": 1859, "annotation": {"number": 64, "value": 127}, "group": "control_change"}, {"time": 1880, "annotation": {"number": 64, "value": 0}, "group": "control_change"}, {"time": 1884, "annotation": {"number": 64, "value": 127}, "group": "control_change"}, {"time": 1904, "annotation": {"number": 64, "value": 0}, "group": "control_change"}, {"time": 1906, "annotation": {"number": 64, "value": 127}, "group": "control_change"}, {"time": 1929, "annotation": {"number": 64, "value": 0}, "group": "control_change"}, {"time": 1931, "annotation": {"number": 64, "value": 127}, "group": "control_change"}, {"time": 1976, "annotation": {"number": 64, "value": 0}, "group": "control_change"}, {"time": 1979, "annotation": {"number": 64, "value": 127}, "group": "control_change"}, {"time": 2023, "annotation": {"number": 64, "value": 0}, "group": "control_change"}, {"time": 2027, "annotation": {"number": 64, "value": 127}, "group": "control_change"}, {"time": 2072, "annotation": {"number": 64, "value": 0}, "group": "control_change"}, {"time": 2075, "annotation": {"number": 64, "value": 127}, "group": "control_change"}, {"time": 2120, "annotation": {"number": 64, "value": 0}, "group": "control_change"}, {"time": 2122, "annotation": {"number": 64, "value": 127}, "group": "control_change"}, {"time": 2166, "annotation": {"number": 64, "value": 0}, "group": "control_change"}, {"time": 2173, "annotation": {"number": 64, "value": 127}, "group": "control_change"}, {"time": 2213, "annotation": {"number": 64, "value": 0}, "group": "control_change"}, {"time": 2219, "annotation": {"number": 64, "value": 127}, "group": "control_change"}, {"time": 2258, "annotation": {"number": 64, "value": 0}, "group": "control_change"}, {"time": 2262, "annotation": {"number": 64, "value": 127}, "group": "control_change"}, {"time": 2284, "annotation": {"number": 64, "value": 0}, "group": "control_change"}, {"time": 2299, "annotation": {"number": 64, "value": 127}, "group": "control_change"}, {"time": 2313, "annotation": {"number": 64, "value": 0}, "group": "control_change"}, {"time": 2317, "annotation": {"number": 64, "value": 127}, "group": "control_change"}, {"time": 2361, "annotation": {"number": 64, "value": 0}, "group": "control_change"}, {"time": 2364, "annotation": {"number": 64, "value": 127}, "group": "control_change"}, {"time": 2410, "annotation": {"number": 64, "value": 0}, "group": "control_change"}, {"time": 2412, "annotation": {"number": 64, "value": 127}, "group": "control_change"}, {"time": 2458, "annotation": {"number": 64, "value": 0}, "group": "control_change"}, {"time": 2461, "annotation": {"number": 64, "value": 127}, "group": "control_change"}, {"time": 2481, "annotation": {"number": 64, "value": 0}, "group": "control_change"}, {"time": 2483, "annotation": {"number": 64, "value": 127}, "group": "control_change"}, {"time": 2506, "annotation": {"number": 64, "value": 0}, "group": "control_change"}, {"time": 2511, "annotation": {"number": 64, "value": 127}, "group": "control_change"}, {"time": 2552, "annotation": {"number": 64, "value": 0}, "group": "control_change"}, {"time": 2559, "annotation": {"number": 64, "value": 127}, "group": "control_change"}, {"time": 2601, "annotation": {"number": 64, "value": 0}, "group": "control_change"}, {"time": 2604, "annotation": {"number": 64, "value": 127}, "group": "control_change"}, {"time": 2649, "annotation": {"number": 64, "value": 0}, "group": "control_change"}, {"time": 2652, "annotation": {"number": 64, "value": 127}, "group": "control_change"}, {"time": 2695, "annotation": {"number": 64, "value": 0}, "group": "control_change"}, {"time": 2745, "annotation": {"number": 64, "value": 0}, "group": "control_change"}, {"time": 2750, "annotation": {"number": 64, "value": 127}, "group": "control_change"}, {"time": 2792, "annotation": {"number": 64, "value": 0}, "group": "control_change"}, {"time": 2799, "annotation": {"number": 64, "value": 127}, "group": "control_change"}, {"time": 2841, "annotation": {"number": 64, "value": 0}, "group": "control_change"}, {"time": 2846, "annotation": {"number": 64, "value": 127}, "group": "control_change"}, {"time": 2846, "annotation": {"number": 64, "value": 0}, "group": "control_change"}, {"time": 2890, "annotation": {"number": 64, "value": 0}, "group": "control_change"}, {"time": 2892, "annotation": {"number": 64, "value": 127}, "group": "control_change"}, {"time": 2900, "annotation": {"number": 64, "value": 0}, "group": "control_change"}, {"time": 2908, "annotation": {"number": 64, "value": 127}, "group": "control_change"}, {"time": 2938, "annotation": {"number": 64, "value": 0}, "group": "control_change"}, {"time": 2944, "annotation": {"number": 64, "value": 127}, "group": "control_change"}, {"time": 2984, "annotation": {"number": 64, "value": 0}, "group": "control_change"}, {"time": 2992, "annotation": {"number": 64, "value": 127}, "group": "control_change"}, {"time": 3032, "annotation": {"number": 64, "value": 0}, "group": "control_change"}, {"time": 3040, "annotation": {"number": 64, "value": 127}, "group": "control_change"}, {"time": 3079, "annotation": {"number": 64, "value": 0}, "group": "control_change"}, {"time": 3083, "annotation": {"number": 64, "value": 127}, "group": "control_change"}, {"time": 3104, "annotation": {"number": 64, "value": 0}, "group": "control_change"}, {"time": 3107, "annotation": {"number": 64, "value": 127}, "group": "control_change"}, {"time": 3128, "annotation": {"number": 64, "value": 0}, "group": "control_change"}, {"time": 3132, "annotation": {"number": 64, "value": 127}, "group": "control_change"}, {"time": 3152, "annotation": {"number": 64, "value": 0}, "group": "control_change"}, {"time": 3154, "annotation": {"number": 64, "value": 127}, "group": "control_change"}, {"time": 3177, "annotation": {"number": 64, "value": 0}, "group": "control_change"}, {"time": 3179, "annotation": {"number": 64, "value": 127}, "group": "control_change"}, {"time": 3224, "annotation": {"number": 64, "value": 0}, "group": "control_change"}, {"time": 3227, "annotation": {"number": 64, "value": 127}, "group": "control_change"}, {"time": 3271, "annotation": {"number": 64, "value": 0}, "group": "control_change"}, {"time": 3275, "annotation": {"number": 64, "value": 127}, "group": "control_change"}, {"time": 3320, "annotation": {"number": 64, "value": 0}, "group": "control_change"}, {"time": 3323, "annotation": {"number": 64, "value": 127}, "group": "control_change"}, {"time": 3368, "annotation": {"number": 64, "value": 0}, "group": "control_change"}, {"time": 3374, "annotation": {"number": 64, "value": 127}, "group": "control_change"}, {"time": 3418, "annotation": {"number": 64, "value": 0}, "group": "control_change"}, {"time": 3421, "annotation": {"number": 64, "value": 127}, "group": "control_change"}, {"time": 3461, "annotation": {"number": 64, "value": 0}, "group": "control_change"}, {"time": 3467, "annotation": {"number": 64, "value": 127}, "group": "control_change"}, {"time": 3488, "annotation": {"number": 64, "value": 0}, "group": "control_change"}, {"time": 3491, "annotation": {"number": 64, "value": 127}, "group": "control_change"}, {"time": 3512, "annotation": {"number": 64, "value": 0}, "group": "control_change"}, {"time": 3516, "annotation": {"number": 64, "value": 127}, "group": "control_change"}, {"time": 3536, "annotation": {"number": 64, "value": 0}, "group": "control_change"}, {"time": 3538, "annotation": {"number": 64, "value": 127}, "group": "control_change"}, {"time": 3561, "annotation": {"number": 64, "value": 0}, "group": "control_change"}, {"time": 3563, "annotation": {"number": 64, "value": 127}, "group": "control_change"}, {"time": 3608, "annotation": {"number": 64, "value": 0}, "group": "control_change"}, {"time": 3611, "annotation": {"number": 64, "value": 127}, "group": "control_change"}, {"time": 3655, "annotation": {"number": 64, "value": 0}, "group": "control_change"}, {"time": 3659, "annotation": {"number": 64, "value": 127}, "group": "control_change"}, {"time": 3704, "annotation": {"number": 64, "value": 0}, "group": "control_change"}, {"time": 3707, "annotation": {"number": 64, "value": 127}, "group": "control_change"}, {"time": 3752, "annotation": {"number": 64, "value": 0}, "group": "control_change"}, {"time": 3754, "annotation": {"number": 64, "value": 127}, "group": "control_change"}, {"time": 3798, "annotation": {"number": 64, "value": 0}, "group": "control_change"}, {"time": 3805, "annotation": {"number": 64, "value": 127}, "group": "control_change"}, {"time": 3845, "annotation": {"number": 64, "value": 0}, "group": "control_change"}, {"time": 3853, "annotation": {"number": 64, "value": 127}, "group": "control_change"}, {"time": 3897, "annotation": {"number": 64, "value": 0}, "group": "control_change"}, {"time": 3900, "annotation": {"number": 64, "value": 127}, "group": "control_change"}, {"time": 3946, "annotation": {"number": 64, "value": 0}, "group": "control_change"}, {"time": 3948, "annotation": {"number": 64, "value": 127}, "group": "control_change"}, {"time": 3994, "annotation": {"number": 64, "value": 0}, "group": "control_change"}, {"time": 3997, "annotation": {"number": 64, "value": 127}, "group": "control_change"}, {"time": 4017, "annotation": {"number": 64, "value": 0}, "group": "control_change"}, {"time": 4019, "annotation": {"number": 64, "value": 127}, "group": "control_change"}, {"time": 4042, "annotation": {"number": 64, "value": 0}, "group": "control_change"}, {"time": 4043, "annotation": {"number": 64, "value": 127}, "group": "control_change"}, {"time": 4043, "annotation": {"number": 64, "value": 0}, "group": "control_change"}, {"time": 4089, "annotation": {"number": 64, "value": 0}, "group": "control_change"}, {"time": 4093, "annotation": {"number": 64, "value": 127}, "group": "control_change"}, {"time": 4145, "annotation": {"number": 64, "value": 127}, "group": "control_change"}, {"time": 4198, "annotation": {"number": 64, "value": 0}, "group": "control_change"}]}]}