{"metadata": {"schema_version": "0.2", "title": "None", "source_filename": "523.mid", "source_format": "midi"}, "resolution": 12, "tempos": [{"time": 0, "qpm": 60.0}, {"time": 408, "qpm": 60.30005306404669}, {"time": 456, "qpm": 60.0}], "time_signatures": [{"time": 0, "numerator": 1, "denominator": 4}], "tracks": [{"program": 0, "is_drum": false, "name": "MELODY", "notes": [{"time": 250, "pitch": 69, "duration": 2, "velocity": 94}, {"time": 253, "pitch": 71, "duration": 2, "velocity": 93}, {"time": 256, "pitch": 78, "duration": 2, "velocity": 86}, {"time": 259, "pitch": 76, "duration": 2, "velocity": 91}, {"time": 262, "pitch": 76, "duration": 2, "velocity": 92}, {"time": 265, "pitch": 74, "duration": 9, "velocity": 99}, {"time": 274, "pitch": 66, "duration": 5, "velocity": 96}, {"time": 280, "pitch": 69, "duration": 13, "velocity": 91}, {"time": 298, "pitch": 71, "duration": 3, "velocity": 95}, {"time": 301, "pitch": 73, "duration": 3, "velocity": 91}, {"time": 304, "pitch": 74, "duration": 11, "velocity": 107}, {"time": 316, "pitch": 78, "duration": 5, "velocity": 92}, {"time": 322, "pitch": 81, "duration": 3, "velocity": 96}, {"time": 325, "pitch": 74, "duration": 4, "velocity": 94}, {"time": 328, "pitch": 76, "duration": 15, "velocity": 92}, {"time": 346, "pitch": 78, "duration": 2, "velocity": 95}, {"time": 349, "pitch": 79, "duration": 2, "velocity": 92}, {"time": 352, "pitch": 81, "duration": 8, "velocity": 93}, {"time": 361, "pitch": 79, "duration": 2, "velocity": 92}, {"time": 364, "pitch": 78, "duration": 4, "velocity": 95}, {"time": 370, "pitch": 76, "duration": 5, "velocity": 94}, {"time": 376, "pitch": 71, "duration": 12, "velocity": 94}, {"time": 394, "pitch": 71, "duration": 3, "velocity": 92}, {"time": 397, "pitch": 69, "duration": 2, "velocity": 91}, {"time": 400, "pitch": 71, "duration": 8, "velocity": 94}, {"time": 409, "pitch": 74, "duration": 2, "velocity": 101}, {"time": 412, "pitch": 78, "duration": 5, "velocity": 95}, {"time": 418, "pitch": 76, "duration": 2, "velocity": 92}, {"time": 421, "pitch": 74, "duration": 2, "velocity": 104}, {"time": 424, "pitch": 76, "duration": 15, "velocity": 95}, {"time": 442, "pitch": 69, "duration": 2, "velocity": 94}, {"time": 445, "pitch": 71, "duration": 2, "velocity": 93}, {"time": 448, "pitch": 78, "duration": 2, "velocity": 86}, {"time": 451, "pitch": 76, "duration": 2, "velocity": 91}, {"time": 454, "pitch": 76, "duration": 2, "velocity": 92}, {"time": 457, "pitch": 74, "duration": 9, "velocity": 99}, {"time": 466, "pitch": 66, "duration": 5, "velocity": 96}, {"time": 472, "pitch": 69, "duration": 13, "velocity": 91}, {"time": 490, "pitch": 71, "duration": 3, "velocity": 95}, {"time": 493, "pitch": 73, "duration": 3, "velocity": 91}, {"time": 496, "pitch": 74, "duration": 11, "velocity": 107}, {"time": 508, "pitch": 78, "duration": 5, "velocity": 92}, {"time": 514, "pitch": 81, "duration": 3, "velocity": 96}, {"time": 517, "pitch": 74, "duration": 4, "velocity": 94}, {"time": 520, "pitch": 76, "duration": 15, "velocity": 92}, {"time": 538, "pitch": 78, "duration": 2, "velocity": 95}, {"time": 541, "pitch": 79, "duration": 2, "velocity": 92}, {"time": 544, "pitch": 81, "duration": 8, "velocity": 93}, {"time": 553, "pitch": 79, "duration": 2, "velocity": 92}, {"time": 556, "pitch": 78, "duration": 4, "velocity": 95}, {"time": 562, "pitch": 76, "duration": 3, "velocity": 94}, {"time": 565, "pitch": 74, "duration": 3, "velocity": 94}, {"time": 568, "pitch": 71, "duration": 12, "velocity": 94}, {"time": 586, "pitch": 78, "duration": 3, "velocity": 106}, {"time": 589, "pitch": 81, "duration": 2, "velocity": 95}, {"time": 592, "pitch": 76, "duration": 7, "velocity": 97}, {"time": 601, "pitch": 78, "duration": 2, "velocity": 92}, {"time": 604, "pitch": 76, "duration": 3, "velocity": 97}, {"time": 607, "pitch": 78, "duration": 3, "velocity": 93}, {"time": 610, "pitch": 74, "duration": 3, "velocity": 107}, {"time": 613, "pitch": 71, "duration": 4, "velocity": 91}, {"time": 616, "pitch": 74, "duration": 24, "velocity": 104}, {"time": 658, "pitch": 78, "duration": 3, "velocity": 92}, {"time": 661, "pitch": 79, "duration": 3, "velocity": 88}, {"time": 664, "pitch": 81, "duration": 7, "velocity": 94}, {"time": 673, "pitch": 83, "duration": 2, "velocity": 92}, {"time": 676, "pitch": 78, "duration": 2, "velocity": 97}, {"time": 679, "pitch": 79, "duration": 3, "velocity": 94}, {"time": 682, "pitch": 78, "duration": 4, "velocity": 91}, {"time": 685, "pitch": 76, "duration": 3, "velocity": 97}, {"time": 688, "pitch": 74, "duration": 14, "velocity": 97}, {"time": 706, "pitch": 74, "duration": 2, "velocity": 97}, {"time": 709, "pitch": 76, "duration": 2, "velocity": 96}, {"time": 712, "pitch": 78, "duration": 6, "velocity": 92}, {"time": 721, "pitch": 83, "duration": 3, "velocity": 94}, {"time": 724, "pitch": 81, "duration": 2, "velocity": 88}, {"time": 727, "pitch": 83, "duration": 2, "velocity": 93}, {"time": 730, "pitch": 74, "duration": 2, "velocity": 99}, {"time": 733, "pitch": 78, "duration": 3, "velocity": 94}, {"time": 736, "pitch": 76, "duration": 14, "velocity": 96}, {"time": 754, "pitch": 74, "duration": 2, "velocity": 97}, {"time": 757, "pitch": 76, "duration": 2, "velocity": 94}, {"time": 760, "pitch": 78, "duration": 7, "velocity": 92}, {"time": 769, "pitch": 83, "duration": 2, "velocity": 92}, {"time": 772, "pitch": 81, "duration": 2, "velocity": 94}, {"time": 775, "pitch": 83, "duration": 2, "velocity": 92}, {"time": 778, "pitch": 78, "duration": 3, "velocity": 94}, {"time": 781, "pitch": 74, "duration": 3, "velocity": 95}, {"time": 784, "pitch": 71, "duration": 14, "velocity": 92}, {"time": 802, "pitch": 71, "duration": 3, "velocity": 94}, {"time": 805, "pitch": 81, "duration": 2, "velocity": 95}, {"time": 808, "pitch": 78, "duration": 7, "velocity": 92}, {"time": 817, "pitch": 83, "duration": 2, "velocity": 92}, {"time": 820, "pitch": 81, "duration": 5, "velocity": 92}, {"time": 826, "pitch": 81, "duration": 3, "velocity": 91}, {"time": 829, "pitch": 78, "duration": 3, "velocity": 91}, {"time": 832, "pitch": 76, "duration": 13, "velocity": 91}, {"time": 850, "pitch": 78, "duration": 3, "velocity": 92}, {"time": 853, "pitch": 79, "duration": 3, "velocity": 88}, {"time": 856, "pitch": 81, "duration": 7, "velocity": 94}, {"time": 865, "pitch": 83, "duration": 2, "velocity": 92}, {"time": 868, "pitch": 78, "duration": 2, "velocity": 97}, {"time": 871, "pitch": 79, "duration": 3, "velocity": 94}, {"time": 874, "pitch": 78, "duration": 4, "velocity": 91}, {"time": 877, "pitch": 76, "duration": 3, "velocity": 97}, {"time": 880, "pitch": 74, "duration": 14, "velocity": 97}, {"time": 898, "pitch": 74, "duration": 2, "velocity": 97}, {"time": 901, "pitch": 76, "duration": 2, "velocity": 96}, {"time": 904, "pitch": 78, "duration": 6, "velocity": 92}, {"time": 913, "pitch": 83, "duration": 3, "velocity": 94}, {"time": 916, "pitch": 81, "duration": 2, "velocity": 88}, {"time": 919, "pitch": 83, "duration": 2, "velocity": 93}, {"time": 922, "pitch": 74, "duration": 2, "velocity": 99}, {"time": 925, "pitch": 78, "duration": 3, "velocity": 94}, {"time": 928, "pitch": 76, "duration": 14, "velocity": 96}, {"time": 946, "pitch": 74, "duration": 2, "velocity": 97}, {"time": 949, "pitch": 76, "duration": 2, "velocity": 94}, {"time": 952, "pitch": 78, "duration": 7, "velocity": 92}, {"time": 961, "pitch": 83, "duration": 2, "velocity": 92}, {"time": 964, "pitch": 81, "duration": 2, "velocity": 94}, {"time": 967, "pitch": 81, "duration": 2, "velocity": 92}, {"time": 970, "pitch": 78, "duration": 3, "velocity": 94}, {"time": 973, "pitch": 74, "duration": 3, "velocity": 95}, {"time": 976, "pitch": 71, "duration": 14, "velocity": 92}, {"time": 994, "pitch": 83, "duration": 3, "velocity": 94}, {"time": 997, "pitch": 81, "duration": 2, "velocity": 95}, {"time": 1000, "pitch": 78, "duration": 7, "velocity": 92}, {"time": 1009, "pitch": 81, "duration": 2, "velocity": 92}, {"time": 1012, "pitch": 76, "duration": 5, "velocity": 92}, {"time": 1018, "pitch": 74, "duration": 3, "velocity": 91}, {"time": 1021, "pitch": 71, "duration": 3, "velocity": 91}, {"time": 1024, "pitch": 74, "duration": 24, "velocity": 91}, {"time": 1450, "pitch": 69, "duration": 2, "velocity": 94}, {"time": 1453, "pitch": 71, "duration": 2, "velocity": 93}, {"time": 1456, "pitch": 78, "duration": 2, "velocity": 86}, {"time": 1459, "pitch": 76, "duration": 2, "velocity": 91}, {"time": 1462, "pitch": 76, "duration": 2, "velocity": 92}, {"time": 1465, "pitch": 74, "duration": 9, "velocity": 99}, {"time": 1474, "pitch": 66, "duration": 5, "velocity": 96}, {"time": 1480, "pitch": 69, "duration": 13, "velocity": 91}, {"time": 1498, "pitch": 71, "duration": 3, "velocity": 95}, {"time": 1501, "pitch": 73, "duration": 3, "velocity": 91}, {"time": 1504, "pitch": 74, "duration": 11, "velocity": 107}, {"time": 1516, "pitch": 78, "duration": 5, "velocity": 92}, {"time": 1522, "pitch": 81, "duration": 3, "velocity": 96}, {"time": 1525, "pitch": 74, "duration": 4, "velocity": 94}, {"time": 1528, "pitch": 76, "duration": 15, "velocity": 92}, {"time": 1546, "pitch": 78, "duration": 2, "velocity": 95}, {"time": 1549, "pitch": 79, "duration": 2, "velocity": 92}, {"time": 1552, "pitch": 81, "duration": 8, "velocity": 93}, {"time": 1561, "pitch": 79, "duration": 2, "velocity": 92}, {"time": 1564, "pitch": 78, "duration": 4, "velocity": 95}, {"time": 1570, "pitch": 76, "duration": 5, "velocity": 94}, {"time": 1576, "pitch": 71, "duration": 12, "velocity": 94}, {"time": 1594, "pitch": 71, "duration": 3, "velocity": 92}, {"time": 1597, "pitch": 69, "duration": 2, "velocity": 91}, {"time": 1600, "pitch": 71, "duration": 8, "velocity": 94}, {"time": 1609, "pitch": 74, "duration": 2, "velocity": 101}, {"time": 1612, "pitch": 78, "duration": 5, "velocity": 95}, {"time": 1618, "pitch": 76, "duration": 2, "velocity": 92}, {"time": 1621, "pitch": 74, "duration": 2, "velocity": 104}, {"time": 1624, "pitch": 76, "duration": 15, "velocity": 95}, {"time": 1642, "pitch": 69, "duration": 2, "velocity": 94}, {"time": 1645, "pitch": 71, "duration": 2, "velocity": 93}, {"time": 1648, "pitch": 78, "duration": 2, "velocity": 86}, {"time": 1651, "pitch": 76, "duration": 2, "velocity": 91}, {"time": 1654, "pitch": 76, "duration": 2, "velocity": 92}, {"time": 1657, "pitch": 74, "duration": 9, "velocity": 99}, {"time": 1666, "pitch": 66, "duration": 5, "velocity": 96}, {"time": 1672, "pitch": 69, "duration": 13, "velocity": 91}, {"time": 1690, "pitch": 71, "duration": 3, "velocity": 95}, {"time": 1693, "pitch": 73, "duration": 3, "velocity": 91}, {"time": 1696, "pitch": 74, "duration": 11, "velocity": 107}, {"time": 1708, "pitch": 78, "duration": 5, "velocity": 92}, {"time": 1714, "pitch": 81, "duration": 3, "velocity": 96}, {"time": 1717, "pitch": 74, "duration": 4, "velocity": 94}, {"time": 1720, "pitch": 76, "duration": 15, "velocity": 92}, {"time": 1738, "pitch": 78, "duration": 2, "velocity": 95}, {"time": 1741, "pitch": 79, "duration": 2, "velocity": 92}, {"time": 1744, "pitch": 81, "duration": 8, "velocity": 93}, {"time": 1753, "pitch": 79, "duration": 2, "velocity": 92}, {"time": 1756, "pitch": 78, "duration": 4, "velocity": 95}, {"time": 1762, "pitch": 76, "duration": 3, "velocity": 94}, {"time": 1765, "pitch": 74, "duration": 3, "velocity": 94}, {"time": 1768, "pitch": 71, "duration": 12, "velocity": 94}, {"time": 1786, "pitch": 78, "duration": 3, "velocity": 106}, {"time": 1789, "pitch": 81, "duration": 2, "velocity": 95}, {"time": 1792, "pitch": 76, "duration": 7, "velocity": 97}, {"time": 1801, "pitch": 78, "duration": 2, "velocity": 92}, {"time": 1804, "pitch": 76, "duration": 3, "velocity": 97}, {"time": 1807, "pitch": 78, "duration": 3, "velocity": 93}, {"time": 1810, "pitch": 74, "duration": 3, "velocity": 107}, {"time": 1813, "pitch": 71, "duration": 4, "velocity": 91}, {"time": 1816, "pitch": 74, "duration": 24, "velocity": 104}, {"time": 1858, "pitch": 78, "duration": 3, "velocity": 92}, {"time": 1861, "pitch": 79, "duration": 3, "velocity": 88}, {"time": 1864, "pitch": 81, "duration": 7, "velocity": 94}, {"time": 1873, "pitch": 83, "duration": 2, "velocity": 92}, {"time": 1876, "pitch": 78, "duration": 2, "velocity": 97}, {"time": 1879, "pitch": 79, "duration": 3, "velocity": 94}, {"time": 1882, "pitch": 78, "duration": 4, "velocity": 91}, {"time": 1885, "pitch": 76, "duration": 3, "velocity": 97}, {"time": 1888, "pitch": 74, "duration": 14, "velocity": 97}, {"time": 1906, "pitch": 74, "duration": 2, "velocity": 97}, {"time": 1909, "pitch": 76, "duration": 2, "velocity": 96}, {"time": 1912, "pitch": 78, "duration": 6, "velocity": 92}, {"time": 1921, "pitch": 83, "duration": 3, "velocity": 94}, {"time": 1924, "pitch": 81, "duration": 2, "velocity": 88}, {"time": 1927, "pitch": 83, "duration": 2, "velocity": 93}, {"time": 1930, "pitch": 74, "duration": 2, "velocity": 99}, {"time": 1933, "pitch": 78, "duration": 3, "velocity": 94}, {"time": 1936, "pitch": 76, "duration": 14, "velocity": 96}, {"time": 1954, "pitch": 74, "duration": 2, "velocity": 97}, {"time": 1957, "pitch": 76, "duration": 2, "velocity": 94}, {"time": 1960, "pitch": 78, "duration": 7, "velocity": 92}, {"time": 1969, "pitch": 83, "duration": 2, "velocity": 92}, {"time": 1972, "pitch": 81, "duration": 2, "velocity": 94}, {"time": 1975, "pitch": 83, "duration": 2, "velocity": 92}, {"time": 1978, "pitch": 78, "duration": 3, "velocity": 94}, {"time": 1981, "pitch": 74, "duration": 3, "velocity": 95}, {"time": 1984, "pitch": 71, "duration": 14, "velocity": 92}, {"time": 2002, "pitch": 71, "duration": 3, "velocity": 94}, {"time": 2005, "pitch": 81, "duration": 2, "velocity": 95}, {"time": 2008, "pitch": 78, "duration": 7, "velocity": 92}, {"time": 2017, "pitch": 83, "duration": 2, "velocity": 92}, {"time": 2020, "pitch": 81, "duration": 5, "velocity": 92}, {"time": 2026, "pitch": 81, "duration": 3, "velocity": 91}, {"time": 2029, "pitch": 78, "duration": 3, "velocity": 91}, {"time": 2032, "pitch": 76, "duration": 13, "velocity": 91}, {"time": 2050, "pitch": 78, "duration": 3, "velocity": 92}, {"time": 2053, "pitch": 79, "duration": 3, "velocity": 88}, {"time": 2056, "pitch": 81, "duration": 7, "velocity": 94}, {"time": 2065, "pitch": 83, "duration": 2, "velocity": 92}, {"time": 2068, "pitch": 78, "duration": 2, "velocity": 97}, {"time": 2071, "pitch": 79, "duration": 3, "velocity": 94}, {"time": 2074, "pitch": 78, "duration": 4, "velocity": 91}, {"time": 2077, "pitch": 76, "duration": 3, "velocity": 97}, {"time": 2080, "pitch": 74, "duration": 14, "velocity": 97}, {"time": 2098, "pitch": 74, "duration": 2, "velocity": 97}, {"time": 2101, "pitch": 76, "duration": 2, "velocity": 96}, {"time": 2104, "pitch": 78, "duration": 6, "velocity": 92}, {"time": 2113, "pitch": 83, "duration": 3, "velocity": 94}, {"time": 2116, "pitch": 81, "duration": 2, "velocity": 88}, {"time": 2119, "pitch": 83, "duration": 2, "velocity": 93}, {"time": 2122, "pitch": 74, "duration": 2, "velocity": 99}, {"time": 2125, "pitch": 78, "duration": 3, "velocity": 94}, {"time": 2128, "pitch": 76, "duration": 14, "velocity": 96}, {"time": 2146, "pitch": 74, "duration": 2, "velocity": 97}, {"time": 2149, "pitch": 76, "duration": 2, "velocity": 94}, {"time": 2152, "pitch": 78, "duration": 7, "velocity": 92}, {"time": 2161, "pitch": 83, "duration": 2, "velocity": 92}, {"time": 2164, "pitch": 81, "duration": 2, "velocity": 94}, {"time": 2167, "pitch": 81, "duration": 2, "velocity": 92}, {"time": 2170, "pitch": 78, "duration": 3, "velocity": 94}, {"time": 2173, "pitch": 74, "duration": 3, "velocity": 95}, {"time": 2176, "pitch": 71, "duration": 14, "velocity": 92}, {"time": 2194, "pitch": 83, "duration": 3, "velocity": 94}, {"time": 2197, "pitch": 81, "duration": 2, "velocity": 95}, {"time": 2200, "pitch": 78, "duration": 7, "velocity": 92}, {"time": 2209, "pitch": 81, "duration": 2, "velocity": 92}, {"time": 2212, "pitch": 76, "duration": 5, "velocity": 92}, {"time": 2218, "pitch": 74, "duration": 3, "velocity": 91}, {"time": 2221, "pitch": 71, "duration": 3, "velocity": 91}, {"time": 2224, "pitch": 74, "duration": 24, "velocity": 91}, {"time": 2266, "pitch": 78, "duration": 3, "velocity": 92}, {"time": 2269, "pitch": 79, "duration": 3, "velocity": 88}, {"time": 2272, "pitch": 81, "duration": 7, "velocity": 94}, {"time": 2281, "pitch": 83, "duration": 2, "velocity": 92}, {"time": 2284, "pitch": 78, "duration": 2, "velocity": 97}, {"time": 2287, "pitch": 79, "duration": 3, "velocity": 94}, {"time": 2290, "pitch": 78, "duration": 4, "velocity": 91}, {"time": 2293, "pitch": 76, "duration": 3, "velocity": 97}, {"time": 2296, "pitch": 74, "duration": 14, "velocity": 97}, {"time": 2314, "pitch": 74, "duration": 2, "velocity": 97}, {"time": 2317, "pitch": 76, "duration": 2, "velocity": 96}, {"time": 2320, "pitch": 78, "duration": 6, "velocity": 92}, {"time": 2329, "pitch": 83, "duration": 3, "velocity": 94}, {"time": 2332, "pitch": 81, "duration": 2, "velocity": 88}, {"time": 2335, "pitch": 83, "duration": 2, "velocity": 93}, {"time": 2338, "pitch": 74, "duration": 2, "velocity": 99}, {"time": 2341, "pitch": 78, "duration": 3, "velocity": 94}, {"time": 2344, "pitch": 76, "duration": 14, "velocity": 96}, {"time": 2362, "pitch": 74, "duration": 2, "velocity": 97}, {"time": 2365, "pitch": 76, "duration": 2, "velocity": 94}, {"time": 2368, "pitch": 78, "duration": 7, "velocity": 92}, {"time": 2377, "pitch": 83, "duration": 2, "velocity": 92}, {"time": 2380, "pitch": 81, "duration": 2, "velocity": 94}, {"time": 2383, "pitch": 83, "duration": 2, "velocity": 92}, {"time": 2386, "pitch": 78, "duration": 3, "velocity": 94}, {"time": 2389, "pitch": 74, "duration": 3, "velocity": 95}, {"time": 2392, "pitch": 71, "duration": 14, "velocity": 92}, {"time": 2410, "pitch": 71, "duration": 3, "velocity": 94}, {"time": 2413, "pitch": 81, "duration": 2, "velocity": 95}, {"time": 2416, "pitch": 78, "duration": 7, "velocity": 92}, {"time": 2425, "pitch": 83, "duration": 2, "velocity": 92}, {"time": 2428, "pitch": 81, "duration": 5, "velocity": 92}, {"time": 2434, "pitch": 81, "duration": 3, "velocity": 91}, {"time": 2437, "pitch": 78, "duration": 3, "velocity": 91}, {"time": 2440, "pitch": 76, "duration": 13, "velocity": 91}, {"time": 2458, "pitch": 78, "duration": 3, "velocity": 92}, {"time": 2461, "pitch": 79, "duration": 3, "velocity": 88}, {"time": 2464, "pitch": 81, "duration": 7, "velocity": 94}, {"time": 2473, "pitch": 83, "duration": 2, "velocity": 92}, {"time": 2476, "pitch": 78, "duration": 2, "velocity": 97}, {"time": 2479, "pitch": 79, "duration": 3, "velocity": 94}, {"time": 2482, "pitch": 78, "duration": 4, "velocity": 91}, {"time": 2485, "pitch": 76, "duration": 3, "velocity": 97}, {"time": 2488, "pitch": 74, "duration": 14, "velocity": 97}, {"time": 2506, "pitch": 74, "duration": 2, "velocity": 97}, {"time": 2509, "pitch": 76, "duration": 2, "velocity": 96}, {"time": 2512, "pitch": 78, "duration": 6, "velocity": 92}, {"time": 2521, "pitch": 83, "duration": 3, "velocity": 94}, {"time": 2524, "pitch": 81, "duration": 2, "velocity": 88}, {"time": 2527, "pitch": 83, "duration": 2, "velocity": 93}, {"time": 2530, "pitch": 74, "duration": 2, "velocity": 99}, {"time": 2533, "pitch": 78, "duration": 3, "velocity": 94}, {"time": 2536, "pitch": 76, "duration": 14, "velocity": 96}, {"time": 2554, "pitch": 74, "duration": 2, "velocity": 97}, {"time": 2557, "pitch": 76, "duration": 2, "velocity": 94}, {"time": 2560, "pitch": 78, "duration": 7, "velocity": 92}, {"time": 2569, "pitch": 83, "duration": 2, "velocity": 92}, {"time": 2572, "pitch": 81, "duration": 2, "velocity": 94}, {"time": 2575, "pitch": 81, "duration": 2, "velocity": 92}, {"time": 2578, "pitch": 78, "duration": 3, "velocity": 94}, {"time": 2581, "pitch": 74, "duration": 3, "velocity": 95}, {"time": 2584, "pitch": 71, "duration": 14, "velocity": 92}, {"time": 2602, "pitch": 83, "duration": 3, "velocity": 94}, {"time": 2605, "pitch": 81, "duration": 2, "velocity": 95}, {"time": 2608, "pitch": 78, "duration": 7, "velocity": 92}, {"time": 2617, "pitch": 83, "duration": 2, "velocity": 92}, {"time": 2620, "pitch": 81, "duration": 5, "velocity": 92}, {"time": 2626, "pitch": 81, "duration": 3, "velocity": 91}, {"time": 2629, "pitch": 78, "duration": 3, "velocity": 91}, {"time": 2632, "pitch": 76, "duration": 24, "velocity": 91}, {"time": 2668, "pitch": 76, "duration": 6, "velocity": 101}, {"time": 2674, "pitch": 74, "duration": 3, "velocity": 92}, {"time": 2677, "pitch": 71, "duration": 4, "velocity": 92}, {"time": 2680, "pitch": 74, "duration": 29, "velocity": 94}]}, {"program": 0, "is_drum": false, "name": "BRIDGE", "notes": [{"time": 34, "pitch": 78, "duration": 3, "velocity": 101}, {"time": 37, "pitch": 79, "duration": 4, "velocity": 92}, {"time": 40, "pitch": 81, "duration": 5, "velocity": 95}, {"time": 46, "pitch": 81, "duration": 3, "velocity": 92}, {"time": 49, "pitch": 83, "duration": 3, "velocity": 91}, {"time": 52, "pitch": 78, "duration": 3, "velocity": 104}, {"time": 55, "pitch": 79, "duration": 3, "velocity": 95}, {"time": 58, "pitch": 78, "duration": 3, "velocity": 104}, {"time": 61, "pitch": 76, "duration": 4, "velocity": 97}, {"time": 64, "pitch": 74, "duration": 13, "velocity": 104}, {"time": 79, "pitch": 69, "duration": 4, "velocity": 94}, {"time": 82, "pitch": 74, "duration": 3, "velocity": 104}, {"time": 85, "pitch": 76, "duration": 4, "velocity": 93}, {"time": 88, "pitch": 78, "duration": 9, "velocity": 97}, {"time": 97, "pitch": 83, "duration": 3, "velocity": 95}, {"time": 100, "pitch": 81, "duration": 4, "velocity": 97}, {"time": 106, "pitch": 81, "duration": 3, "velocity": 95}, {"time": 109, "pitch": 78, "duration": 3, "velocity": 93}, {"time": 112, "pitch": 76, "duration": 14, "velocity": 97}, {"time": 127, "pitch": 69, "duration": 3, "velocity": 94}, {"time": 130, "pitch": 74, "duration": 3, "velocity": 104}, {"time": 133, "pitch": 76, "duration": 4, "velocity": 93}, {"time": 136, "pitch": 78, "duration": 7, "velocity": 99}, {"time": 142, "pitch": 81, "duration": 2, "velocity": 95}, {"time": 145, "pitch": 81, "duration": 5, "velocity": 97}, {"time": 151, "pitch": 78, "duration": 3, "velocity": 96}, {"time": 154, "pitch": 86, "duration": 3, "velocity": 101}, {"time": 157, "pitch": 85, "duration": 4, "velocity": 97}, {"time": 160, "pitch": 83, "duration": 11, "velocity": 93}, {"time": 175, "pitch": 83, "duration": 3, "velocity": 97}, {"time": 178, "pitch": 81, "duration": 3, "velocity": 94}, {"time": 181, "pitch": 78, "duration": 3, "velocity": 95}, {"time": 184, "pitch": 76, "duration": 10, "velocity": 107}, {"time": 195, "pitch": 76, "duration": 5, "velocity": 99}, {"time": 200, "pitch": 74, "duration": 3, "velocity": 106}, {"time": 204, "pitch": 71, "duration": 3, "velocity": 97}, {"time": 208, "pitch": 74, "duration": 32, "velocity": 97}, {"time": 223, "pitch": 95, "duration": 4, "velocity": 92}, {"time": 226, "pitch": 93, "duration": 3, "velocity": 94}, {"time": 229, "pitch": 88, "duration": 4, "velocity": 96}, {"time": 232, "pitch": 86, "duration": 21, "velocity": 97}, {"time": 271, "pitch": 83, "duration": 3, "velocity": 90}, {"time": 274, "pitch": 81, "duration": 3, "velocity": 89}, {"time": 277, "pitch": 76, "duration": 4, "velocity": 88}, {"time": 280, "pitch": 78, "duration": 12, "velocity": 87}, {"time": 337, "pitch": 83, "duration": 6, "velocity": 91}, {"time": 343, "pitch": 81, "duration": 4, "velocity": 90}, {"time": 346, "pitch": 76, "duration": 7, "velocity": 97}, {"time": 352, "pitch": 78, "duration": 12, "velocity": 96}, {"time": 379, "pitch": 83, "duration": 3, "velocity": 91}, {"time": 382, "pitch": 85, "duration": 3, "velocity": 91}, {"time": 385, "pitch": 86, "duration": 6, "velocity": 93}, {"time": 391, "pitch": 85, "duration": 3, "velocity": 93}, {"time": 394, "pitch": 83, "duration": 7, "velocity": 91}, {"time": 448, "pitch": 74, "duration": 25, "velocity": 90}, {"time": 484, "pitch": 73, "duration": 8, "velocity": 89}, {"time": 490, "pitch": 71, "duration": 4, "velocity": 82}, {"time": 493, "pitch": 69, "duration": 3, "velocity": 84}, {"time": 496, "pitch": 71, "duration": 23, "velocity": 86}, {"time": 520, "pitch": 73, "duration": 13, "velocity": 75}, {"time": 529, "pitch": 71, "duration": 6, "velocity": 90}, {"time": 535, "pitch": 69, "duration": 3, "velocity": 90}, {"time": 538, "pitch": 66, "duration": 3, "velocity": 88}, {"time": 541, "pitch": 67, "duration": 4, "velocity": 81}, {"time": 544, "pitch": 69, "duration": 21, "velocity": 89}, {"time": 568, "pitch": 71, "duration": 20, "velocity": 77}, {"time": 568, "pitch": 74, "duration": 20, "velocity": 86}, {"time": 592, "pitch": 67, "duration": 10, "velocity": 88}, {"time": 604, "pitch": 64, "duration": 6, "velocity": 88}, {"time": 610, "pitch": 69, "duration": 6, "velocity": 84}, {"time": 616, "pitch": 62, "duration": 9, "velocity": 75}, {"time": 616, "pitch": 66, "duration": 15, "velocity": 81}, {"time": 625, "pitch": 69, "duration": 6, "velocity": 89}, {"time": 625, "pitch": 74, "duration": 5, "velocity": 93}, {"time": 631, "pitch": 76, "duration": 4, "velocity": 90}, {"time": 634, "pitch": 74, "duration": 3, "velocity": 97}, {"time": 637, "pitch": 71, "duration": 3, "velocity": 90}, {"time": 640, "pitch": 69, "duration": 9, "velocity": 86}, {"time": 646, "pitch": 62, "duration": 3, "velocity": 78}, {"time": 649, "pitch": 64, "duration": 3, "velocity": 91}, {"time": 652, "pitch": 66, "duration": 3, "velocity": 87}, {"time": 655, "pitch": 67, "duration": 4, "velocity": 92}, {"time": 658, "pitch": 69, "duration": 5, "velocity": 89}, {"time": 664, "pitch": 69, "duration": 19, "velocity": 85}, {"time": 664, "pitch": 74, "duration": 19, "velocity": 90}, {"time": 682, "pitch": 73, "duration": 6, "velocity": 93}, {"time": 688, "pitch": 74, "duration": 13, "velocity": 94}, {"time": 700, "pitch": 71, "duration": 9, "velocity": 84}, {"time": 706, "pitch": 69, "duration": 6, "velocity": 77}, {"time": 712, "pitch": 74, "duration": 20, "velocity": 91}, {"time": 736, "pitch": 76, "duration": 13, "velocity": 92}, {"time": 748, "pitch": 74, "duration": 3, "velocity": 91}, {"time": 751, "pitch": 73, "duration": 3, "velocity": 84}, {"time": 754, "pitch": 71, "duration": 3, "velocity": 84}, {"time": 757, "pitch": 69, "duration": 3, "velocity": 85}, {"time": 760, "pitch": 73, "duration": 12, "velocity": 90}, {"time": 772, "pitch": 69, "duration": 9, "velocity": 85}, {"time": 784, "pitch": 74, "duration": 24, "velocity": 92}, {"time": 808, "pitch": 71, "duration": 13, "velocity": 88}, {"time": 820, "pitch": 69, "duration": 6, "velocity": 84}, {"time": 826, "pitch": 67, "duration": 6, "velocity": 86}, {"time": 832, "pitch": 69, "duration": 11, "velocity": 90}, {"time": 844, "pitch": 69, "duration": 3, "velocity": 91}, {"time": 847, "pitch": 71, "duration": 4, "velocity": 90}, {"time": 850, "pitch": 73, "duration": 3, "velocity": 90}, {"time": 853, "pitch": 76, "duration": 4, "velocity": 93}, {"time": 856, "pitch": 74, "duration": 19, "velocity": 93}, {"time": 874, "pitch": 76, "duration": 7, "velocity": 91}, {"time": 880, "pitch": 78, "duration": 24, "velocity": 89}, {"time": 904, "pitch": 74, "duration": 19, "velocity": 91}, {"time": 922, "pitch": 71, "duration": 5, "velocity": 85}, {"time": 928, "pitch": 69, "duration": 17, "velocity": 85}, {"time": 946, "pitch": 69, "duration": 3, "velocity": 90}, {"time": 949, "pitch": 71, "duration": 4, "velocity": 88}, {"time": 952, "pitch": 73, "duration": 19, "velocity": 82}, {"time": 970, "pitch": 74, "duration": 3, "velocity": 88}, {"time": 973, "pitch": 73, "duration": 4, "velocity": 82}, {"time": 976, "pitch": 71, "duration": 19, "velocity": 87}, {"time": 1000, "pitch": 67, "duration": 10, "velocity": 82}, {"time": 1000, "pitch": 74, "duration": 11, "velocity": 91}, {"time": 1012, "pitch": 69, "duration": 10, "velocity": 80}, {"time": 1012, "pitch": 76, "duration": 10, "velocity": 90}, {"time": 1024, "pitch": 69, "duration": 24, "velocity": 83}, {"time": 1024, "pitch": 74, "duration": 24, "velocity": 91}, {"time": 1051, "pitch": 57, "duration": 3, "velocity": 94}, {"time": 1054, "pitch": 62, "duration": 3, "velocity": 91}, {"time": 1057, "pitch": 64, "duration": 3, "velocity": 92}, {"time": 1060, "pitch": 66, "duration": 4, "velocity": 99}, {"time": 1064, "pitch": 69, "duration": 4, "velocity": 97}, {"time": 1068, "pitch": 66, "duration": 4, "velocity": 104}, {"time": 1072, "pitch": 69, "duration": 16, "velocity": 95}, {"time": 1089, "pitch": 66, "duration": 5, "velocity": 96}, {"time": 1096, "pitch": 66, "duration": 10, "velocity": 99}, {"time": 1108, "pitch": 74, "duration": 4, "velocity": 101}, {"time": 1112, "pitch": 73, "duration": 4, "velocity": 101}, {"time": 1116, "pitch": 69, "duration": 4, "velocity": 95}, {"time": 1120, "pitch": 71, "duration": 16, "velocity": 97}, {"time": 1138, "pitch": 66, "duration": 5, "velocity": 101}, {"time": 1144, "pitch": 66, "duration": 11, "velocity": 96}, {"time": 1156, "pitch": 59, "duration": 4, "velocity": 101}, {"time": 1160, "pitch": 61, "duration": 4, "velocity": 99}, {"time": 1164, "pitch": 62, "duration": 5, "velocity": 94}, {"time": 1168, "pitch": 64, "duration": 8, "velocity": 107}, {"time": 1177, "pitch": 63, "duration": 3, "velocity": 91}, {"time": 1180, "pitch": 64, "duration": 6, "velocity": 106}, {"time": 1186, "pitch": 66, "duration": 6, "velocity": 104}, {"time": 1192, "pitch": 67, "duration": 12, "velocity": 93}, {"time": 1204, "pitch": 67, "duration": 4, "velocity": 96}, {"time": 1210, "pitch": 69, "duration": 4, "velocity": 104}, {"time": 1215, "pitch": 71, "duration": 8, "velocity": 91}, {"time": 1225, "pitch": 71, "duration": 1, "velocity": 101}, {"time": 1227, "pitch": 71, "duration": 1, "velocity": 91}, {"time": 1228, "pitch": 71, "duration": 4, "velocity": 99}, {"time": 1232, "pitch": 73, "duration": 3, "velocity": 92}, {"time": 1237, "pitch": 74, "duration": 2, "velocity": 106}, {"time": 1240, "pitch": 76, "duration": 24, "velocity": 94}, {"time": 1258, "pitch": 78, "duration": 3, "velocity": 99}, {"time": 1261, "pitch": 79, "duration": 3, "velocity": 97}, {"time": 1264, "pitch": 81, "duration": 9, "velocity": 94}, {"time": 1273, "pitch": 74, "duration": 3, "velocity": 106}, {"time": 1276, "pitch": 86, "duration": 6, "velocity": 106}, {"time": 1282, "pitch": 85, "duration": 4, "velocity": 107}, {"time": 1285, "pitch": 86, "duration": 3, "velocity": 101}, {"time": 1288, "pitch": 81, "duration": 16, "velocity": 104}, {"time": 1306, "pitch": 78, "duration": 3, "velocity": 97}, {"time": 1309, "pitch": 79, "duration": 3, "velocity": 95}, {"time": 1312, "pitch": 81, "duration": 9, "velocity": 91}, {"time": 1321, "pitch": 74, "duration": 3, "velocity": 104}, {"time": 1324, "pitch": 86, "duration": 6, "velocity": 106}, {"time": 1330, "pitch": 85, "duration": 3, "velocity": 106}, {"time": 1333, "pitch": 86, "duration": 3, "velocity": 97}, {"time": 1336, "pitch": 83, "duration": 13, "velocity": 101}, {"time": 1354, "pitch": 76, "duration": 4, "velocity": 95}, {"time": 1357, "pitch": 78, "duration": 2, "velocity": 96}, {"time": 1360, "pitch": 79, "duration": 9, "velocity": 96}, {"time": 1369, "pitch": 78, "duration": 3, "velocity": 104}, {"time": 1372, "pitch": 79, "duration": 7, "velocity": 97}, {"time": 1378, "pitch": 81, "duration": 6, "velocity": 97}, {"time": 1384, "pitch": 82, "duration": 8, "velocity": 95}, {"time": 1393, "pitch": 82, "duration": 3, "velocity": 90}, {"time": 1396, "pitch": 88, "duration": 6, "velocity": 104}, {"time": 1402, "pitch": 86, "duration": 6, "velocity": 97}, {"time": 1408, "pitch": 81, "duration": 38, "velocity": 97}, {"time": 1471, "pitch": 83, "duration": 3, "velocity": 90}, {"time": 1474, "pitch": 81, "duration": 3, "velocity": 89}, {"time": 1477, "pitch": 76, "duration": 4, "velocity": 88}, {"time": 1480, "pitch": 78, "duration": 12, "velocity": 87}, {"time": 1537, "pitch": 83, "duration": 6, "velocity": 91}, {"time": 1543, "pitch": 81, "duration": 4, "velocity": 90}, {"time": 1546, "pitch": 76, "duration": 7, "velocity": 97}, {"time": 1552, "pitch": 78, "duration": 12, "velocity": 96}, {"time": 1579, "pitch": 83, "duration": 3, "velocity": 91}, {"time": 1582, "pitch": 85, "duration": 3, "velocity": 91}, {"time": 1585, "pitch": 86, "duration": 6, "velocity": 93}, {"time": 1591, "pitch": 85, "duration": 3, "velocity": 93}, {"time": 1594, "pitch": 83, "duration": 7, "velocity": 91}, {"time": 1648, "pitch": 74, "duration": 25, "velocity": 90}, {"time": 1684, "pitch": 73, "duration": 8, "velocity": 89}, {"time": 1690, "pitch": 71, "duration": 4, "velocity": 82}, {"time": 1693, "pitch": 69, "duration": 3, "velocity": 84}, {"time": 1696, "pitch": 71, "duration": 23, "velocity": 86}, {"time": 1720, "pitch": 73, "duration": 13, "velocity": 75}, {"time": 1729, "pitch": 71, "duration": 6, "velocity": 90}, {"time": 1735, "pitch": 69, "duration": 3, "velocity": 90}, {"time": 1738, "pitch": 66, "duration": 3, "velocity": 88}, {"time": 1741, "pitch": 67, "duration": 4, "velocity": 81}, {"time": 1744, "pitch": 69, "duration": 21, "velocity": 89}, {"time": 1768, "pitch": 71, "duration": 20, "velocity": 77}, {"time": 1768, "pitch": 74, "duration": 20, "velocity": 86}, {"time": 1792, "pitch": 67, "duration": 10, "velocity": 88}, {"time": 1804, "pitch": 64, "duration": 6, "velocity": 88}, {"time": 1810, "pitch": 69, "duration": 6, "velocity": 84}, {"time": 1816, "pitch": 62, "duration": 9, "velocity": 75}, {"time": 1816, "pitch": 66, "duration": 15, "velocity": 81}, {"time": 1825, "pitch": 69, "duration": 6, "velocity": 89}, {"time": 1825, "pitch": 74, "duration": 5, "velocity": 93}, {"time": 1831, "pitch": 76, "duration": 4, "velocity": 90}, {"time": 1834, "pitch": 74, "duration": 3, "velocity": 97}, {"time": 1837, "pitch": 71, "duration": 3, "velocity": 90}, {"time": 1840, "pitch": 69, "duration": 9, "velocity": 86}, {"time": 1846, "pitch": 62, "duration": 3, "velocity": 78}, {"time": 1849, "pitch": 64, "duration": 3, "velocity": 91}, {"time": 1852, "pitch": 66, "duration": 3, "velocity": 87}, {"time": 1855, "pitch": 67, "duration": 4, "velocity": 92}, {"time": 1858, "pitch": 69, "duration": 5, "velocity": 89}, {"time": 1864, "pitch": 69, "duration": 19, "velocity": 85}, {"time": 1864, "pitch": 74, "duration": 19, "velocity": 90}, {"time": 1882, "pitch": 73, "duration": 6, "velocity": 93}, {"time": 1888, "pitch": 74, "duration": 13, "velocity": 94}, {"time": 1900, "pitch": 71, "duration": 9, "velocity": 84}, {"time": 1906, "pitch": 69, "duration": 6, "velocity": 77}, {"time": 1912, "pitch": 74, "duration": 20, "velocity": 91}, {"time": 1936, "pitch": 76, "duration": 13, "velocity": 92}, {"time": 1948, "pitch": 74, "duration": 3, "velocity": 91}, {"time": 1951, "pitch": 73, "duration": 3, "velocity": 84}, {"time": 1954, "pitch": 71, "duration": 3, "velocity": 84}, {"time": 1957, "pitch": 69, "duration": 3, "velocity": 85}, {"time": 1960, "pitch": 73, "duration": 12, "velocity": 90}, {"time": 1972, "pitch": 69, "duration": 9, "velocity": 85}, {"time": 1984, "pitch": 74, "duration": 24, "velocity": 92}, {"time": 2008, "pitch": 71, "duration": 13, "velocity": 88}, {"time": 2020, "pitch": 69, "duration": 6, "velocity": 84}, {"time": 2026, "pitch": 67, "duration": 6, "velocity": 86}, {"time": 2032, "pitch": 69, "duration": 11, "velocity": 90}, {"time": 2044, "pitch": 69, "duration": 3, "velocity": 91}, {"time": 2047, "pitch": 71, "duration": 4, "velocity": 90}, {"time": 2050, "pitch": 73, "duration": 3, "velocity": 90}, {"time": 2053, "pitch": 76, "duration": 4, "velocity": 93}, {"time": 2056, "pitch": 74, "duration": 19, "velocity": 93}, {"time": 2074, "pitch": 76, "duration": 7, "velocity": 91}, {"time": 2080, "pitch": 78, "duration": 24, "velocity": 89}, {"time": 2104, "pitch": 74, "duration": 19, "velocity": 91}, {"time": 2122, "pitch": 71, "duration": 5, "velocity": 85}, {"time": 2128, "pitch": 69, "duration": 17, "velocity": 85}, {"time": 2146, "pitch": 69, "duration": 3, "velocity": 90}, {"time": 2149, "pitch": 71, "duration": 4, "velocity": 88}, {"time": 2152, "pitch": 73, "duration": 19, "velocity": 82}, {"time": 2170, "pitch": 74, "duration": 3, "velocity": 88}, {"time": 2173, "pitch": 73, "duration": 4, "velocity": 82}, {"time": 2176, "pitch": 71, "duration": 19, "velocity": 87}, {"time": 2200, "pitch": 67, "duration": 10, "velocity": 82}, {"time": 2200, "pitch": 74, "duration": 11, "velocity": 91}, {"time": 2212, "pitch": 69, "duration": 10, "velocity": 80}, {"time": 2212, "pitch": 76, "duration": 10, "velocity": 90}, {"time": 2224, "pitch": 69, "duration": 12, "velocity": 83}, {"time": 2224, "pitch": 74, "duration": 12, "velocity": 91}, {"time": 2238, "pitch": 69, "duration": 2, "velocity": 96}, {"time": 2240, "pitch": 71, "duration": 1, "velocity": 101}, {"time": 2241, "pitch": 73, "duration": 1, "velocity": 93}, {"time": 2242, "pitch": 74, "duration": 2, "velocity": 90}, {"time": 2244, "pitch": 76, "duration": 2, "velocity": 92}, {"time": 2245, "pitch": 78, "duration": 1, "velocity": 91}, {"time": 2247, "pitch": 79, "duration": 1, "velocity": 85}, {"time": 2248, "pitch": 81, "duration": 2, "velocity": 101}, {"time": 2251, "pitch": 81, "duration": 3, "velocity": 97}, {"time": 2260, "pitch": 81, "duration": 3, "velocity": 90}, {"time": 2262, "pitch": 79, "duration": 2, "velocity": 81}, {"time": 2265, "pitch": 78, "duration": 6, "velocity": 78}, {"time": 2272, "pitch": 69, "duration": 19, "velocity": 85}, {"time": 2272, "pitch": 74, "duration": 19, "velocity": 90}, {"time": 2290, "pitch": 73, "duration": 6, "velocity": 93}, {"time": 2296, "pitch": 74, "duration": 13, "velocity": 94}, {"time": 2308, "pitch": 90, "duration": 5, "velocity": 94}, {"time": 2308, "pitch": 71, "duration": 9, "velocity": 84}, {"time": 2314, "pitch": 88, "duration": 6, "velocity": 95}, {"time": 2314, "pitch": 69, "duration": 6, "velocity": 77}, {"time": 2320, "pitch": 86, "duration": 14, "velocity": 90}, {"time": 2320, "pitch": 74, "duration": 20, "velocity": 91}, {"time": 2344, "pitch": 76, "duration": 13, "velocity": 92}, {"time": 2356, "pitch": 74, "duration": 3, "velocity": 91}, {"time": 2359, "pitch": 73, "duration": 3, "velocity": 84}, {"time": 2362, "pitch": 71, "duration": 3, "velocity": 84}, {"time": 2365, "pitch": 69, "duration": 3, "velocity": 85}, {"time": 2368, "pitch": 73, "duration": 12, "velocity": 90}, {"time": 2380, "pitch": 69, "duration": 9, "velocity": 85}, {"time": 2392, "pitch": 74, "duration": 24, "velocity": 92}, {"time": 2404, "pitch": 86, "duration": 6, "velocity": 91}, {"time": 2410, "pitch": 85, "duration": 6, "velocity": 92}, {"time": 2416, "pitch": 83, "duration": 17, "velocity": 85}, {"time": 2416, "pitch": 71, "duration": 13, "velocity": 88}, {"time": 2428, "pitch": 69, "duration": 6, "velocity": 84}, {"time": 2434, "pitch": 81, "duration": 3, "velocity": 77}, {"time": 2434, "pitch": 67, "duration": 6, "velocity": 86}, {"time": 2436, "pitch": 83, "duration": 4, "velocity": 90}, {"time": 2440, "pitch": 81, "duration": 11, "velocity": 95}, {"time": 2440, "pitch": 69, "duration": 11, "velocity": 90}, {"time": 2452, "pitch": 69, "duration": 3, "velocity": 91}, {"time": 2452, "pitch": 83, "duration": 3, "velocity": 92}, {"time": 2455, "pitch": 85, "duration": 3, "velocity": 93}, {"time": 2455, "pitch": 71, "duration": 4, "velocity": 90}, {"time": 2458, "pitch": 86, "duration": 3, "velocity": 92}, {"time": 2458, "pitch": 73, "duration": 3, "velocity": 90}, {"time": 2461, "pitch": 88, "duration": 2, "velocity": 90}, {"time": 2461, "pitch": 76, "duration": 4, "velocity": 93}, {"time": 2464, "pitch": 74, "duration": 19, "velocity": 93}, {"time": 2464, "pitch": 90, "duration": 26, "velocity": 97}, {"time": 2482, "pitch": 76, "duration": 7, "velocity": 91}, {"time": 2488, "pitch": 78, "duration": 24, "velocity": 89}, {"time": 2503, "pitch": 86, "duration": 3, "velocity": 85}, {"time": 2506, "pitch": 85, "duration": 3, "velocity": 90}, {"time": 2509, "pitch": 86, "duration": 3, "velocity": 91}, {"time": 2512, "pitch": 88, "duration": 10, "velocity": 83}, {"time": 2512, "pitch": 74, "duration": 19, "velocity": 91}, {"time": 2530, "pitch": 71, "duration": 5, "velocity": 85}, {"time": 2536, "pitch": 69, "duration": 17, "velocity": 85}, {"time": 2554, "pitch": 69, "duration": 3, "velocity": 90}, {"time": 2557, "pitch": 71, "duration": 4, "velocity": 88}, {"time": 2560, "pitch": 73, "duration": 19, "velocity": 82}, {"time": 2572, "pitch": 81, "duration": 11, "velocity": 90}, {"time": 2578, "pitch": 74, "duration": 3, "velocity": 88}, {"time": 2581, "pitch": 73, "duration": 4, "velocity": 82}, {"time": 2584, "pitch": 83, "duration": 20, "velocity": 96}, {"time": 2584, "pitch": 71, "duration": 19, "velocity": 87}, {"time": 2608, "pitch": 79, "duration": 19, "velocity": 90}, {"time": 2608, "pitch": 83, "duration": 19, "velocity": 91}, {"time": 2626, "pitch": 86, "duration": 6, "velocity": 92}, {"time": 2632, "pitch": 81, "duration": 21, "velocity": 83}, {"time": 2632, "pitch": 85, "duration": 45, "velocity": 91}, {"time": 2650, "pitch": 88, "duration": 27, "velocity": 90}, {"time": 2656, "pitch": 81, "duration": 21, "velocity": 84}, {"time": 2680, "pitch": 74, "duration": 3, "velocity": 96}, {"time": 2683, "pitch": 69, "duration": 3, "velocity": 92}, {"time": 2686, "pitch": 76, "duration": 2, "velocity": 87}, {"time": 2689, "pitch": 78, "duration": 4, "velocity": 91}, {"time": 2695, "pitch": 81, "duration": 2, "velocity": 88}, {"time": 2698, "pitch": 88, "duration": 2, "velocity": 91}, {"time": 2701, "pitch": 86, "duration": 2, "velocity": 93}, {"time": 2704, "pitch": 93, "duration": 12, "velocity": 97}, {"time": 2716, "pitch": 74, "duration": 3, "velocity": 101}, {"time": 2719, "pitch": 76, "duration": 3, "velocity": 94}, {"time": 2722, "pitch": 78, "duration": 3, "velocity": 97}, {"time": 2725, "pitch": 81, "duration": 3, "velocity": 93}, {"time": 2728, "pitch": 83, "duration": 8, "velocity": 94}, {"time": 2737, "pitch": 83, "duration": 2, "velocity": 97}, {"time": 2741, "pitch": 83, "duration": 3, "velocity": 97}, {"time": 2744, "pitch": 81, "duration": 5, "velocity": 96}, {"time": 2749, "pitch": 78, "duration": 4, "velocity": 95}, {"time": 2753, "pitch": 76, "duration": 34, "velocity": 101}, {"time": 2793, "pitch": 76, "duration": 11, "velocity": 101}, {"time": 2803, "pitch": 74, "duration": 14, "velocity": 97}, {"time": 2817, "pitch": 71, "duration": 16, "velocity": 92}, {"time": 2833, "pitch": 74, "duration": 30, "velocity": 97}]}, {"program": 0, "is_drum": false, "name": "PIANO", "notes": [{"time": 40, "pitch": 50, "duration": 14, "velocity": 94}, {"time": 46, "pitch": 57, "duration": 7, "velocity": 92}, {"time": 52, "pitch": 62, "duration": 2, "velocity": 89}, {"time": 52, "pitch": 66, "duration": 3, "velocity": 83}, {"time": 64, "pitch": 47, "duration": 19, "velocity": 91}, {"time": 70, "pitch": 54, "duration": 11, "velocity": 73}, {"time": 76, "pitch": 59, "duration": 4, "velocity": 89}, {"time": 76, "pitch": 66, "duration": 13, "velocity": 79}, {"time": 82, "pitch": 59, "duration": 7, "velocity": 89}, {"time": 88, "pitch": 43, "duration": 22, "velocity": 90}, {"time": 94, "pitch": 50, "duration": 15, "velocity": 82}, {"time": 100, "pitch": 55, "duration": 3, "velocity": 87}, {"time": 100, "pitch": 62, "duration": 18, "velocity": 89}, {"time": 106, "pitch": 55, "duration": 7, "velocity": 84}, {"time": 112, "pitch": 45, "duration": 21, "velocity": 89}, {"time": 118, "pitch": 52, "duration": 8, "velocity": 89}, {"time": 124, "pitch": 61, "duration": 6, "velocity": 99}, {"time": 127, "pitch": 52, "duration": 6, "velocity": 88}, {"time": 130, "pitch": 57, "duration": 4, "velocity": 91}, {"time": 133, "pitch": 61, "duration": 2, "velocity": 87}, {"time": 136, "pitch": 42, "duration": 18, "velocity": 91}, {"time": 136, "pitch": 57, "duration": 3, "velocity": 85}, {"time": 136, "pitch": 61, "duration": 7, "velocity": 84}, {"time": 139, "pitch": 49, "duration": 16, "velocity": 88}, {"time": 142, "pitch": 57, "duration": 9, "velocity": 94}, {"time": 145, "pitch": 61, "duration": 6, "velocity": 97}, {"time": 151, "pitch": 66, "duration": 10, "velocity": 99}, {"time": 154, "pitch": 57, "duration": 4, "velocity": 90}, {"time": 157, "pitch": 61, "duration": 2, "velocity": 86}, {"time": 160, "pitch": 47, "duration": 18, "velocity": 89}, {"time": 160, "pitch": 59, "duration": 4, "velocity": 85}, {"time": 160, "pitch": 62, "duration": 7, "velocity": 90}, {"time": 163, "pitch": 54, "duration": 14, "velocity": 85}, {"time": 166, "pitch": 59, "duration": 5, "velocity": 92}, {"time": 169, "pitch": 62, "duration": 10, "velocity": 92}, {"time": 178, "pitch": 66, "duration": 4, "velocity": 97}, {"time": 181, "pitch": 59, "duration": 2, "velocity": 88}, {"time": 184, "pitch": 40, "duration": 19, "velocity": 92}, {"time": 184, "pitch": 59, "duration": 4, "velocity": 83}, {"time": 184, "pitch": 64, "duration": 7, "velocity": 90}, {"time": 187, "pitch": 47, "duration": 15, "velocity": 76}, {"time": 190, "pitch": 59, "duration": 15, "velocity": 90}, {"time": 193, "pitch": 64, "duration": 12, "velocity": 97}, {"time": 196, "pitch": 67, "duration": 10, "velocity": 93}, {"time": 208, "pitch": 38, "duration": 22, "velocity": 94}, {"time": 208, "pitch": 57, "duration": 9, "velocity": 77}, {"time": 208, "pitch": 62, "duration": 9, "velocity": 80}, {"time": 214, "pitch": 45, "duration": 16, "velocity": 73}, {"time": 220, "pitch": 57, "duration": 11, "velocity": 79}, {"time": 220, "pitch": 62, "duration": 10, "velocity": 84}, {"time": 220, "pitch": 66, "duration": 10, "velocity": 82}, {"time": 232, "pitch": 38, "duration": 8, "velocity": 80}, {"time": 232, "pitch": 57, "duration": 15, "velocity": 68}, {"time": 232, "pitch": 62, "duration": 15, "velocity": 78}, {"time": 256, "pitch": 38, "duration": 17, "velocity": 92}, {"time": 256, "pitch": 57, "duration": 8, "velocity": 79}, {"time": 256, "pitch": 62, "duration": 8, "velocity": 88}, {"time": 262, "pitch": 45, "duration": 10, "velocity": 73}, {"time": 268, "pitch": 57, "duration": 6, "velocity": 84}, {"time": 268, "pitch": 62, "duration": 5, "velocity": 87}, {"time": 268, "pitch": 66, "duration": 5, "velocity": 83}, {"time": 280, "pitch": 42, "duration": 15, "velocity": 81}, {"time": 280, "pitch": 61, "duration": 8, "velocity": 81}, {"time": 280, "pitch": 66, "duration": 7, "velocity": 79}, {"time": 286, "pitch": 49, "duration": 9, "velocity": 69}, {"time": 292, "pitch": 57, "duration": 2, "velocity": 81}, {"time": 292, "pitch": 61, "duration": 6, "velocity": 88}, {"time": 298, "pitch": 57, "duration": 2, "velocity": 88}, {"time": 304, "pitch": 43, "duration": 15, "velocity": 90}, {"time": 304, "pitch": 55, "duration": 9, "velocity": 79}, {"time": 304, "pitch": 59, "duration": 9, "velocity": 84}, {"time": 310, "pitch": 50, "duration": 10, "velocity": 78}, {"time": 316, "pitch": 55, "duration": 4, "velocity": 86}, {"time": 316, "pitch": 62, "duration": 6, "velocity": 87}, {"time": 328, "pitch": 45, "duration": 17, "velocity": 86}, {"time": 328, "pitch": 57, "duration": 10, "velocity": 80}, {"time": 328, "pitch": 61, "duration": 9, "velocity": 77}, {"time": 334, "pitch": 52, "duration": 10, "velocity": 82}, {"time": 340, "pitch": 61, "duration": 6, "velocity": 91}, {"time": 340, "pitch": 64, "duration": 5, "velocity": 91}, {"time": 346, "pitch": 57, "duration": 8, "velocity": 91}, {"time": 352, "pitch": 42, "duration": 14, "velocity": 92}, {"time": 352, "pitch": 61, "duration": 13, "velocity": 89}, {"time": 358, "pitch": 49, "duration": 8, "velocity": 74}, {"time": 364, "pitch": 66, "duration": 11, "velocity": 93}, {"time": 376, "pitch": 47, "duration": 20, "velocity": 90}, {"time": 376, "pitch": 59, "duration": 7, "velocity": 80}, {"time": 376, "pitch": 62, "duration": 8, "velocity": 86}, {"time": 382, "pitch": 54, "duration": 8, "velocity": 80}, {"time": 388, "pitch": 62, "duration": 4, "velocity": 92}, {"time": 391, "pitch": 54, "duration": 3, "velocity": 70}, {"time": 394, "pitch": 61, "duration": 7, "velocity": 92}, {"time": 400, "pitch": 40, "duration": 17, "velocity": 91}, {"time": 400, "pitch": 59, "duration": 9, "velocity": 87}, {"time": 406, "pitch": 47, "duration": 11, "velocity": 69}, {"time": 412, "pitch": 55, "duration": 5, "velocity": 86}, {"time": 412, "pitch": 59, "duration": 5, "velocity": 91}, {"time": 424, "pitch": 45, "duration": 19, "velocity": 90}, {"time": 424, "pitch": 57, "duration": 10, "velocity": 79}, {"time": 424, "pitch": 61, "duration": 10, "velocity": 78}, {"time": 430, "pitch": 52, "duration": 12, "velocity": 86}, {"time": 433, "pitch": 64, "duration": 3, "velocity": 88}, {"time": 436, "pitch": 69, "duration": 6, "velocity": 94}, {"time": 439, "pitch": 64, "duration": 4, "velocity": 93}, {"time": 442, "pitch": 57, "duration": 3, "velocity": 91}, {"time": 448, "pitch": 38, "duration": 18, "velocity": 92}, {"time": 448, "pitch": 57, "duration": 3, "velocity": 75}, {"time": 448, "pitch": 62, "duration": 6, "velocity": 81}, {"time": 451, "pitch": 45, "duration": 16, "velocity": 78}, {"time": 454, "pitch": 57, "duration": 4, "velocity": 80}, {"time": 457, "pitch": 62, "duration": 2, "velocity": 82}, {"time": 460, "pitch": 66, "duration": 10, "velocity": 91}, {"time": 466, "pitch": 62, "duration": 2, "velocity": 77}, {"time": 472, "pitch": 42, "duration": 16, "velocity": 90}, {"time": 475, "pitch": 49, "duration": 11, "velocity": 83}, {"time": 478, "pitch": 57, "duration": 7, "velocity": 86}, {"time": 481, "pitch": 61, "duration": 4, "velocity": 88}, {"time": 484, "pitch": 66, "duration": 13, "velocity": 93}, {"time": 487, "pitch": 49, "duration": 4, "velocity": 77}, {"time": 490, "pitch": 57, "duration": 7, "velocity": 84}, {"time": 496, "pitch": 43, "duration": 21, "velocity": 92}, {"time": 499, "pitch": 50, "duration": 19, "velocity": 81}, {"time": 502, "pitch": 55, "duration": 7, "velocity": 85}, {"time": 505, "pitch": 59, "duration": 5, "velocity": 82}, {"time": 508, "pitch": 62, "duration": 13, "velocity": 86}, {"time": 517, "pitch": 55, "duration": 4, "velocity": 88}, {"time": 520, "pitch": 45, "duration": 18, "velocity": 92}, {"time": 523, "pitch": 52, "duration": 8, "velocity": 84}, {"time": 526, "pitch": 57, "duration": 7, "velocity": 90}, {"time": 529, "pitch": 61, "duration": 6, "velocity": 94}, {"time": 532, "pitch": 52, "duration": 6, "velocity": 90}, {"time": 535, "pitch": 57, "duration": 4, "velocity": 91}, {"time": 538, "pitch": 64, "duration": 6, "velocity": 90}, {"time": 544, "pitch": 42, "duration": 17, "velocity": 91}, {"time": 544, "pitch": 61, "duration": 7, "velocity": 81}, {"time": 547, "pitch": 49, "duration": 14, "velocity": 72}, {"time": 550, "pitch": 57, "duration": 12, "velocity": 88}, {"time": 553, "pitch": 61, "duration": 10, "velocity": 94}, {"time": 562, "pitch": 66, "duration": 6, "velocity": 83}, {"time": 568, "pitch": 47, "duration": 17, "velocity": 91}, {"time": 568, "pitch": 59, "duration": 3, "velocity": 80}, {"time": 568, "pitch": 62, "duration": 6, "velocity": 88}, {"time": 571, "pitch": 54, "duration": 12, "velocity": 84}, {"time": 574, "pitch": 59, "duration": 13, "velocity": 90}, {"time": 577, "pitch": 66, "duration": 10, "velocity": 92}, {"time": 586, "pitch": 62, "duration": 4, "velocity": 90}, {"time": 592, "pitch": 40, "duration": 7, "velocity": 91}, {"time": 592, "pitch": 59, "duration": 4, "velocity": 84}, {"time": 592, "pitch": 64, "duration": 6, "velocity": 90}, {"time": 595, "pitch": 47, "duration": 4, "velocity": 83}, {"time": 598, "pitch": 59, "duration": 4, "velocity": 88}, {"time": 601, "pitch": 64, "duration": 3, "velocity": 75}, {"time": 604, "pitch": 45, "duration": 7, "velocity": 91}, {"time": 604, "pitch": 57, "duration": 4, "velocity": 83}, {"time": 604, "pitch": 61, "duration": 7, "velocity": 79}, {"time": 607, "pitch": 52, "duration": 3, "velocity": 83}, {"time": 610, "pitch": 57, "duration": 3, "velocity": 86}, {"time": 616, "pitch": 38, "duration": 22, "velocity": 84}, {"time": 616, "pitch": 57, "duration": 3, "velocity": 82}, {"time": 616, "pitch": 62, "duration": 6, "velocity": 85}, {"time": 619, "pitch": 45, "duration": 19, "velocity": 79}, {"time": 622, "pitch": 57, "duration": 6, "velocity": 84}, {"time": 625, "pitch": 62, "duration": 7, "velocity": 90}, {"time": 631, "pitch": 64, "duration": 2, "velocity": 85}, {"time": 634, "pitch": 66, "duration": 2, "velocity": 90}, {"time": 640, "pitch": 38, "duration": 20, "velocity": 95}, {"time": 640, "pitch": 57, "duration": 3, "velocity": 85}, {"time": 640, "pitch": 62, "duration": 3, "velocity": 88}, {"time": 640, "pitch": 66, "duration": 4, "velocity": 88}, {"time": 643, "pitch": 45, "duration": 9, "velocity": 85}, {"time": 646, "pitch": 62, "duration": 2, "velocity": 79}, {"time": 649, "pitch": 62, "duration": 7, "velocity": 92}, {"time": 649, "pitch": 66, "duration": 9, "velocity": 93}, {"time": 649, "pitch": 69, "duration": 10, "velocity": 92}, {"time": 655, "pitch": 45, "duration": 5, "velocity": 91}, {"time": 658, "pitch": 62, "duration": 1, "velocity": 90}, {"time": 664, "pitch": 38, "duration": 15, "velocity": 101}, {"time": 664, "pitch": 57, "duration": 3, "velocity": 91}, {"time": 664, "pitch": 62, "duration": 5, "velocity": 94}, {"time": 667, "pitch": 45, "duration": 8, "velocity": 84}, {"time": 670, "pitch": 57, "duration": 2, "velocity": 88}, {"time": 673, "pitch": 57, "duration": 9, "velocity": 92}, {"time": 673, "pitch": 62, "duration": 10, "velocity": 93}, {"time": 673, "pitch": 66, "duration": 17, "velocity": 92}, {"time": 682, "pitch": 38, "duration": 3, "velocity": 90}, {"time": 685, "pitch": 57, "duration": 3, "velocity": 97}, {"time": 688, "pitch": 47, "duration": 15, "velocity": 96}, {"time": 691, "pitch": 59, "duration": 4, "velocity": 91}, {"time": 694, "pitch": 62, "duration": 2, "velocity": 82}, {"time": 697, "pitch": 59, "duration": 10, "velocity": 90}, {"time": 697, "pitch": 62, "duration": 13, "velocity": 92}, {"time": 697, "pitch": 66, "duration": 15, "velocity": 92}, {"time": 706, "pitch": 54, "duration": 2, "velocity": 82}, {"time": 709, "pitch": 59, "duration": 2, "velocity": 90}, {"time": 712, "pitch": 50, "duration": 20, "velocity": 96}, {"time": 712, "pitch": 57, "duration": 2, "velocity": 90}, {"time": 712, "pitch": 62, "duration": 4, "velocity": 90}, {"time": 715, "pitch": 57, "duration": 5, "velocity": 83}, {"time": 718, "pitch": 62, "duration": 2, "velocity": 83}, {"time": 721, "pitch": 57, "duration": 1, "velocity": 57}, {"time": 721, "pitch": 62, "duration": 2, "velocity": 90}, {"time": 721, "pitch": 66, "duration": 10, "velocity": 91}, {"time": 730, "pitch": 62, "duration": 2, "velocity": 82}, {"time": 733, "pitch": 57, "duration": 1, "velocity": 38}, {"time": 736, "pitch": 45, "duration": 19, "velocity": 91}, {"time": 736, "pitch": 57, "duration": 3, "velocity": 85}, {"time": 736, "pitch": 64, "duration": 7, "velocity": 91}, {"time": 739, "pitch": 52, "duration": 12, "velocity": 91}, {"time": 742, "pitch": 57, "duration": 2, "velocity": 92}, {"time": 745, "pitch": 61, "duration": 12, "velocity": 101}, {"time": 751, "pitch": 49, "duration": 4, "velocity": 86}, {"time": 754, "pitch": 52, "duration": 2, "velocity": 94}, {"time": 757, "pitch": 57, "duration": 4, "velocity": 92}, {"time": 760, "pitch": 42, "duration": 14, "velocity": 95}, {"time": 760, "pitch": 61, "duration": 7, "velocity": 99}, {"time": 763, "pitch": 49, "duration": 11, "velocity": 85}, {"time": 766, "pitch": 57, "duration": 9, "velocity": 90}, {"time": 769, "pitch": 61, "duration": 7, "velocity": 92}, {"time": 775, "pitch": 66, "duration": 8, "velocity": 91}, {"time": 778, "pitch": 57, "duration": 1, "velocity": 82}, {"time": 784, "pitch": 47, "duration": 18, "velocity": 92}, {"time": 784, "pitch": 59, "duration": 4, "velocity": 86}, {"time": 784, "pitch": 62, "duration": 6, "velocity": 87}, {"time": 787, "pitch": 54, "duration": 13, "velocity": 85}, {"time": 790, "pitch": 59, "duration": 2, "velocity": 91}, {"time": 793, "pitch": 59, "duration": 4, "velocity": 91}, {"time": 793, "pitch": 66, "duration": 6, "velocity": 83}, {"time": 799, "pitch": 59, "duration": 2, "velocity": 87}, {"time": 799, "pitch": 62, "duration": 4, "velocity": 90}, {"time": 802, "pitch": 59, "duration": 3, "velocity": 87}, {"time": 808, "pitch": 43, "duration": 19, "velocity": 91}, {"time": 808, "pitch": 55, "duration": 3, "velocity": 85}, {"time": 808, "pitch": 59, "duration": 6, "velocity": 90}, {"time": 811, "pitch": 50, "duration": 13, "velocity": 86}, {"time": 814, "pitch": 55, "duration": 4, "velocity": 86}, {"time": 817, "pitch": 59, "duration": 3, "velocity": 94}, {"time": 820, "pitch": 62, "duration": 4, "velocity": 92}, {"time": 823, "pitch": 55, "duration": 3, "velocity": 85}, {"time": 826, "pitch": 50, "duration": 3, "velocity": 91}, {"time": 829, "pitch": 55, "duration": 2, "velocity": 91}, {"time": 832, "pitch": 45, "duration": 20, "velocity": 94}, {"time": 832, "pitch": 57, "duration": 4, "velocity": 88}, {"time": 835, "pitch": 52, "duration": 10, "velocity": 94}, {"time": 838, "pitch": 57, "duration": 2, "velocity": 92}, {"time": 841, "pitch": 61, "duration": 2, "velocity": 99}, {"time": 844, "pitch": 57, "duration": 4, "velocity": 91}, {"time": 844, "pitch": 61, "duration": 4, "velocity": 104}, {"time": 844, "pitch": 64, "duration": 5, "velocity": 99}, {"time": 847, "pitch": 52, "duration": 7, "velocity": 101}, {"time": 850, "pitch": 57, "duration": 5, "velocity": 101}, {"time": 856, "pitch": 50, "duration": 20, "velocity": 101}, {"time": 856, "pitch": 57, "duration": 2, "velocity": 94}, {"time": 856, "pitch": 62, "duration": 4, "velocity": 94}, {"time": 859, "pitch": 57, "duration": 5, "velocity": 91}, {"time": 862, "pitch": 62, "duration": 2, "velocity": 86}, {"time": 865, "pitch": 66, "duration": 7, "velocity": 99}, {"time": 871, "pitch": 62, "duration": 4, "velocity": 91}, {"time": 874, "pitch": 57, "duration": 2, "velocity": 91}, {"time": 880, "pitch": 47, "duration": 18, "velocity": 92}, {"time": 880, "pitch": 59, "duration": 4, "velocity": 90}, {"time": 880, "pitch": 62, "duration": 4, "velocity": 90}, {"time": 883, "pitch": 54, "duration": 7, "velocity": 91}, {"time": 886, "pitch": 59, "duration": 2, "velocity": 92}, {"time": 889, "pitch": 59, "duration": 4, "velocity": 92}, {"time": 889, "pitch": 66, "duration": 5, "velocity": 91}, {"time": 895, "pitch": 59, "duration": 2, "velocity": 90}, {"time": 895, "pitch": 62, "duration": 2, "velocity": 92}, {"time": 904, "pitch": 50, "duration": 18, "velocity": 94}, {"time": 907, "pitch": 57, "duration": 5, "velocity": 91}, {"time": 910, "pitch": 62, "duration": 2, "velocity": 88}, {"time": 913, "pitch": 57, "duration": 4, "velocity": 90}, {"time": 913, "pitch": 62, "duration": 5, "velocity": 91}, {"time": 913, "pitch": 66, "duration": 9, "velocity": 99}, {"time": 919, "pitch": 62, "duration": 3, "velocity": 85}, {"time": 922, "pitch": 57, "duration": 2, "velocity": 76}, {"time": 928, "pitch": 45, "duration": 18, "velocity": 91}, {"time": 928, "pitch": 57, "duration": 3, "velocity": 85}, {"time": 928, "pitch": 64, "duration": 4, "velocity": 91}, {"time": 931, "pitch": 52, "duration": 14, "velocity": 91}, {"time": 934, "pitch": 57, "duration": 6, "velocity": 91}, {"time": 937, "pitch": 61, "duration": 4, "velocity": 91}, {"time": 940, "pitch": 69, "duration": 4, "velocity": 92}, {"time": 943, "pitch": 64, "duration": 3, "velocity": 99}, {"time": 946, "pitch": 57, "duration": 2, "velocity": 91}, {"time": 952, "pitch": 42, "duration": 15, "velocity": 92}, {"time": 952, "pitch": 57, "duration": 3, "velocity": 86}, {"time": 952, "pitch": 61, "duration": 7, "velocity": 89}, {"time": 955, "pitch": 49, "duration": 12, "velocity": 78}, {"time": 958, "pitch": 57, "duration": 5, "velocity": 90}, {"time": 961, "pitch": 61, "duration": 7, "velocity": 93}, {"time": 967, "pitch": 66, "duration": 9, "velocity": 94}, {"time": 970, "pitch": 57, "duration": 2, "velocity": 79}, {"time": 976, "pitch": 47, "duration": 19, "velocity": 92}, {"time": 976, "pitch": 59, "duration": 3, "velocity": 84}, {"time": 976, "pitch": 62, "duration": 6, "velocity": 85}, {"time": 979, "pitch": 54, "duration": 13, "velocity": 84}, {"time": 982, "pitch": 59, "duration": 5, "velocity": 90}, {"time": 985, "pitch": 62, "duration": 6, "velocity": 91}, {"time": 991, "pitch": 66, "duration": 4, "velocity": 93}, {"time": 994, "pitch": 59, "duration": 2, "velocity": 88}, {"time": 1000, "pitch": 43, "duration": 8, "velocity": 91}, {"time": 1000, "pitch": 55, "duration": 6, "velocity": 79}, {"time": 1000, "pitch": 59, "duration": 7, "velocity": 80}, {"time": 1012, "pitch": 45, "duration": 7, "velocity": 91}, {"time": 1012, "pitch": 57, "duration": 3, "velocity": 83}, {"time": 1012, "pitch": 61, "duration": 6, "velocity": 84}, {"time": 1015, "pitch": 52, "duration": 3, "velocity": 88}, {"time": 1018, "pitch": 57, "duration": 5, "velocity": 91}, {"time": 1021, "pitch": 61, "duration": 4, "velocity": 90}, {"time": 1024, "pitch": 38, "duration": 22, "velocity": 94}, {"time": 1024, "pitch": 62, "duration": 4, "velocity": 90}, {"time": 1027, "pitch": 45, "duration": 19, "velocity": 78}, {"time": 1030, "pitch": 57, "duration": 5, "velocity": 90}, {"time": 1033, "pitch": 62, "duration": 7, "velocity": 86}, {"time": 1039, "pitch": 66, "duration": 8, "velocity": 97}, {"time": 1042, "pitch": 62, "duration": 4, "velocity": 83}, {"time": 1045, "pitch": 57, "duration": 2, "velocity": 80}, {"time": 1048, "pitch": 38, "duration": 16, "velocity": 93}, {"time": 1048, "pitch": 57, "duration": 2, "velocity": 82}, {"time": 1048, "pitch": 62, "duration": 6, "velocity": 85}, {"time": 1051, "pitch": 45, "duration": 13, "velocity": 82}, {"time": 1054, "pitch": 57, "duration": 2, "velocity": 89}, {"time": 1057, "pitch": 57, "duration": 8, "velocity": 93}, {"time": 1057, "pitch": 62, "duration": 8, "velocity": 97}, {"time": 1072, "pitch": 42, "duration": 41, "velocity": 90}, {"time": 1072, "pitch": 57, "duration": 3, "velocity": 77}, {"time": 1072, "pitch": 61, "duration": 7, "velocity": 84}, {"time": 1075, "pitch": 49, "duration": 35, "velocity": 79}, {"time": 1078, "pitch": 57, "duration": 16, "velocity": 78}, {"time": 1081, "pitch": 61, "duration": 13, "velocity": 80}, {"time": 1096, "pitch": 57, "duration": 3, "velocity": 84}, {"time": 1096, "pitch": 61, "duration": 8, "velocity": 85}, {"time": 1096, "pitch": 66, "duration": 10, "velocity": 86}, {"time": 1108, "pitch": 61, "duration": 6, "velocity": 101}, {"time": 1111, "pitch": 49, "duration": 3, "velocity": 78}, {"time": 1114, "pitch": 57, "duration": 2, "velocity": 87}, {"time": 1120, "pitch": 47, "duration": 40, "velocity": 90}, {"time": 1120, "pitch": 59, "duration": 3, "velocity": 81}, {"time": 1120, "pitch": 62, "duration": 6, "velocity": 85}, {"time": 1123, "pitch": 54, "duration": 24, "velocity": 76}, {"time": 1126, "pitch": 59, "duration": 11, "velocity": 88}, {"time": 1129, "pitch": 66, "duration": 11, "velocity": 77}, {"time": 1144, "pitch": 59, "duration": 7, "velocity": 79}, {"time": 1144, "pitch": 62, "duration": 9, "velocity": 86}, {"time": 1150, "pitch": 54, "duration": 8, "velocity": 48}, {"time": 1156, "pitch": 59, "duration": 5, "velocity": 83}, {"time": 1156, "pitch": 62, "duration": 4, "velocity": 81}, {"time": 1156, "pitch": 66, "duration": 4, "velocity": 77}, {"time": 1168, "pitch": 40, "duration": 15, "velocity": 90}, {"time": 1168, "pitch": 59, "duration": 10, "velocity": 82}, {"time": 1168, "pitch": 64, "duration": 9, "velocity": 88}, {"time": 1168, "pitch": 67, "duration": 10, "velocity": 80}, {"time": 1174, "pitch": 47, "duration": 9, "velocity": 71}, {"time": 1180, "pitch": 59, "duration": 3, "velocity": 86}, {"time": 1180, "pitch": 64, "duration": 2, "velocity": 90}, {"time": 1180, "pitch": 67, "duration": 3, "velocity": 86}, {"time": 1192, "pitch": 43, "duration": 19, "velocity": 89}, {"time": 1192, "pitch": 55, "duration": 4, "velocity": 84}, {"time": 1192, "pitch": 62, "duration": 7, "velocity": 86}, {"time": 1195, "pitch": 50, "duration": 15, "velocity": 81}, {"time": 1198, "pitch": 55, "duration": 7, "velocity": 85}, {"time": 1201, "pitch": 59, "duration": 4, "velocity": 90}, {"time": 1204, "pitch": 62, "duration": 6, "velocity": 84}, {"time": 1216, "pitch": 40, "duration": 14, "velocity": 92}, {"time": 1216, "pitch": 52, "duration": 8, "velocity": 86}, {"time": 1216, "pitch": 55, "duration": 8, "velocity": 86}, {"time": 1222, "pitch": 47, "duration": 7, "velocity": 79}, {"time": 1228, "pitch": 52, "duration": 4, "velocity": 91}, {"time": 1228, "pitch": 55, "duration": 4, "velocity": 90}, {"time": 1228, "pitch": 59, "duration": 5, "velocity": 91}, {"time": 1240, "pitch": 45, "duration": 16, "velocity": 91}, {"time": 1240, "pitch": 57, "duration": 10, "velocity": 90}, {"time": 1240, "pitch": 61, "duration": 10, "velocity": 91}, {"time": 1246, "pitch": 52, "duration": 7, "velocity": 94}, {"time": 1249, "pitch": 64, "duration": 1, "velocity": 90}, {"time": 1252, "pitch": 57, "duration": 3, "velocity": 92}, {"time": 1252, "pitch": 61, "duration": 4, "velocity": 94}, {"time": 1252, "pitch": 64, "duration": 4, "velocity": 97}, {"time": 1252, "pitch": 69, "duration": 5, "velocity": 91}, {"time": 1255, "pitch": 52, "duration": 2, "velocity": 101}, {"time": 1258, "pitch": 57, "duration": 2, "velocity": 97}, {"time": 1264, "pitch": 38, "duration": 22, "velocity": 96}, {"time": 1264, "pitch": 66, "duration": 6, "velocity": 97}, {"time": 1267, "pitch": 45, "duration": 19, "velocity": 85}, {"time": 1270, "pitch": 57, "duration": 4, "velocity": 90}, {"time": 1273, "pitch": 62, "duration": 4, "velocity": 86}, {"time": 1276, "pitch": 64, "duration": 4, "velocity": 96}, {"time": 1279, "pitch": 62, "duration": 3, "velocity": 92}, {"time": 1282, "pitch": 57, "duration": 5, "velocity": 91}, {"time": 1285, "pitch": 62, "duration": 4, "velocity": 90}, {"time": 1288, "pitch": 38, "duration": 15, "velocity": 94}, {"time": 1288, "pitch": 66, "duration": 9, "velocity": 95}, {"time": 1291, "pitch": 45, "duration": 12, "velocity": 81}, {"time": 1294, "pitch": 57, "duration": 5, "velocity": 92}, {"time": 1297, "pitch": 62, "duration": 3, "velocity": 93}, {"time": 1300, "pitch": 64, "duration": 3, "velocity": 94}, {"time": 1303, "pitch": 62, "duration": 3, "velocity": 96}, {"time": 1306, "pitch": 57, "duration": 4, "velocity": 92}, {"time": 1309, "pitch": 62, "duration": 4, "velocity": 90}, {"time": 1312, "pitch": 42, "duration": 20, "velocity": 92}, {"time": 1312, "pitch": 66, "duration": 6, "velocity": 91}, {"time": 1315, "pitch": 49, "duration": 19, "velocity": 80}, {"time": 1318, "pitch": 57, "duration": 6, "velocity": 92}, {"time": 1321, "pitch": 61, "duration": 3, "velocity": 91}, {"time": 1324, "pitch": 66, "duration": 4, "velocity": 96}, {"time": 1327, "pitch": 61, "duration": 3, "velocity": 96}, {"time": 1330, "pitch": 57, "duration": 5, "velocity": 91}, {"time": 1336, "pitch": 47, "duration": 20, "velocity": 93}, {"time": 1336, "pitch": 62, "duration": 6, "velocity": 83}, {"time": 1342, "pitch": 59, "duration": 4, "velocity": 94}, {"time": 1345, "pitch": 62, "duration": 6, "velocity": 91}, {"time": 1348, "pitch": 54, "duration": 6, "velocity": 89}, {"time": 1351, "pitch": 59, "duration": 4, "velocity": 91}, {"time": 1354, "pitch": 62, "duration": 4, "velocity": 95}, {"time": 1357, "pitch": 66, "duration": 4, "velocity": 96}, {"time": 1360, "pitch": 43, "duration": 22, "velocity": 90}, {"time": 1363, "pitch": 50, "duration": 11, "velocity": 84}, {"time": 1366, "pitch": 55, "duration": 5, "velocity": 91}, {"time": 1369, "pitch": 59, "duration": 4, "velocity": 92}, {"time": 1372, "pitch": 62, "duration": 6, "velocity": 95}, {"time": 1375, "pitch": 50, "duration": 8, "velocity": 86}, {"time": 1378, "pitch": 55, "duration": 5, "velocity": 92}, {"time": 1381, "pitch": 62, "duration": 2, "velocity": 82}, {"time": 1384, "pitch": 43, "duration": 22, "velocity": 92}, {"time": 1384, "pitch": 55, "duration": 7, "velocity": 90}, {"time": 1384, "pitch": 58, "duration": 7, "velocity": 91}, {"time": 1387, "pitch": 50, "duration": 16, "velocity": 91}, {"time": 1390, "pitch": 62, "duration": 6, "velocity": 91}, {"time": 1393, "pitch": 58, "duration": 2, "velocity": 91}, {"time": 1396, "pitch": 67, "duration": 13, "velocity": 92}, {"time": 1399, "pitch": 62, "duration": 4, "velocity": 92}, {"time": 1402, "pitch": 58, "duration": 4, "velocity": 97}, {"time": 1405, "pitch": 55, "duration": 3, "velocity": 91}, {"time": 1408, "pitch": 45, "duration": 22, "velocity": 95}, {"time": 1411, "pitch": 52, "duration": 19, "velocity": 89}, {"time": 1414, "pitch": 57, "duration": 4, "velocity": 96}, {"time": 1417, "pitch": 62, "duration": 3, "velocity": 91}, {"time": 1420, "pitch": 64, "duration": 7, "velocity": 90}, {"time": 1423, "pitch": 57, "duration": 4, "velocity": 84}, {"time": 1426, "pitch": 61, "duration": 3, "velocity": 93}, {"time": 1429, "pitch": 57, "duration": 3, "velocity": 83}, {"time": 1432, "pitch": 45, "duration": 16, "velocity": 91}, {"time": 1432, "pitch": 57, "duration": 11, "velocity": 76}, {"time": 1432, "pitch": 61, "duration": 10, "velocity": 76}, {"time": 1432, "pitch": 64, "duration": 10, "velocity": 81}, {"time": 1432, "pitch": 69, "duration": 9, "velocity": 80}, {"time": 1444, "pitch": 61, "duration": 11, "velocity": 78}, {"time": 1444, "pitch": 64, "duration": 11, "velocity": 87}, {"time": 1450, "pitch": 57, "duration": 5, "velocity": 73}, {"time": 1456, "pitch": 38, "duration": 17, "velocity": 92}, {"time": 1456, "pitch": 57, "duration": 8, "velocity": 79}, {"time": 1456, "pitch": 62, "duration": 8, "velocity": 88}, {"time": 1462, "pitch": 45, "duration": 10, "velocity": 73}, {"time": 1468, "pitch": 57, "duration": 6, "velocity": 84}, {"time": 1468, "pitch": 62, "duration": 5, "velocity": 87}, {"time": 1468, "pitch": 66, "duration": 5, "velocity": 83}, {"time": 1480, "pitch": 42, "duration": 15, "velocity": 81}, {"time": 1480, "pitch": 61, "duration": 8, "velocity": 81}, {"time": 1480, "pitch": 66, "duration": 7, "velocity": 79}, {"time": 1486, "pitch": 49, "duration": 9, "velocity": 69}, {"time": 1492, "pitch": 57, "duration": 2, "velocity": 81}, {"time": 1492, "pitch": 61, "duration": 6, "velocity": 88}, {"time": 1498, "pitch": 57, "duration": 2, "velocity": 88}, {"time": 1504, "pitch": 43, "duration": 15, "velocity": 90}, {"time": 1504, "pitch": 55, "duration": 9, "velocity": 79}, {"time": 1504, "pitch": 59, "duration": 9, "velocity": 84}, {"time": 1510, "pitch": 50, "duration": 10, "velocity": 78}, {"time": 1516, "pitch": 55, "duration": 4, "velocity": 86}, {"time": 1516, "pitch": 62, "duration": 6, "velocity": 87}, {"time": 1528, "pitch": 45, "duration": 17, "velocity": 86}, {"time": 1528, "pitch": 57, "duration": 10, "velocity": 80}, {"time": 1528, "pitch": 61, "duration": 9, "velocity": 77}, {"time": 1534, "pitch": 52, "duration": 10, "velocity": 82}, {"time": 1540, "pitch": 61, "duration": 6, "velocity": 91}, {"time": 1540, "pitch": 64, "duration": 5, "velocity": 91}, {"time": 1546, "pitch": 57, "duration": 8, "velocity": 91}, {"time": 1552, "pitch": 42, "duration": 14, "velocity": 92}, {"time": 1552, "pitch": 61, "duration": 13, "velocity": 89}, {"time": 1558, "pitch": 49, "duration": 8, "velocity": 74}, {"time": 1564, "pitch": 66, "duration": 11, "velocity": 93}, {"time": 1576, "pitch": 47, "duration": 20, "velocity": 90}, {"time": 1576, "pitch": 59, "duration": 7, "velocity": 80}, {"time": 1576, "pitch": 62, "duration": 8, "velocity": 86}, {"time": 1582, "pitch": 54, "duration": 8, "velocity": 80}, {"time": 1588, "pitch": 62, "duration": 4, "velocity": 92}, {"time": 1591, "pitch": 54, "duration": 3, "velocity": 70}, {"time": 1594, "pitch": 61, "duration": 7, "velocity": 92}, {"time": 1600, "pitch": 40, "duration": 17, "velocity": 91}, {"time": 1600, "pitch": 59, "duration": 9, "velocity": 87}, {"time": 1606, "pitch": 47, "duration": 11, "velocity": 69}, {"time": 1612, "pitch": 55, "duration": 5, "velocity": 86}, {"time": 1612, "pitch": 59, "duration": 5, "velocity": 91}, {"time": 1624, "pitch": 45, "duration": 19, "velocity": 90}, {"time": 1624, "pitch": 57, "duration": 10, "velocity": 79}, {"time": 1624, "pitch": 61, "duration": 10, "velocity": 78}, {"time": 1630, "pitch": 52, "duration": 12, "velocity": 86}, {"time": 1633, "pitch": 64, "duration": 3, "velocity": 88}, {"time": 1636, "pitch": 69, "duration": 6, "velocity": 94}, {"time": 1639, "pitch": 64, "duration": 4, "velocity": 93}, {"time": 1642, "pitch": 57, "duration": 3, "velocity": 91}, {"time": 1648, "pitch": 38, "duration": 18, "velocity": 92}, {"time": 1648, "pitch": 57, "duration": 3, "velocity": 75}, {"time": 1648, "pitch": 62, "duration": 6, "velocity": 81}, {"time": 1651, "pitch": 45, "duration": 16, "velocity": 78}, {"time": 1654, "pitch": 57, "duration": 4, "velocity": 80}, {"time": 1657, "pitch": 62, "duration": 2, "velocity": 82}, {"time": 1660, "pitch": 66, "duration": 10, "velocity": 91}, {"time": 1666, "pitch": 62, "duration": 2, "velocity": 77}, {"time": 1672, "pitch": 42, "duration": 16, "velocity": 90}, {"time": 1675, "pitch": 49, "duration": 11, "velocity": 83}, {"time": 1678, "pitch": 57, "duration": 7, "velocity": 86}, {"time": 1681, "pitch": 61, "duration": 4, "velocity": 88}, {"time": 1684, "pitch": 66, "duration": 13, "velocity": 93}, {"time": 1687, "pitch": 49, "duration": 4, "velocity": 77}, {"time": 1690, "pitch": 57, "duration": 7, "velocity": 84}, {"time": 1696, "pitch": 43, "duration": 21, "velocity": 92}, {"time": 1699, "pitch": 50, "duration": 19, "velocity": 81}, {"time": 1702, "pitch": 55, "duration": 7, "velocity": 85}, {"time": 1705, "pitch": 59, "duration": 5, "velocity": 82}, {"time": 1708, "pitch": 62, "duration": 13, "velocity": 86}, {"time": 1717, "pitch": 55, "duration": 4, "velocity": 88}, {"time": 1720, "pitch": 45, "duration": 18, "velocity": 92}, {"time": 1723, "pitch": 52, "duration": 8, "velocity": 84}, {"time": 1726, "pitch": 57, "duration": 7, "velocity": 90}, {"time": 1729, "pitch": 61, "duration": 6, "velocity": 94}, {"time": 1732, "pitch": 52, "duration": 6, "velocity": 90}, {"time": 1735, "pitch": 57, "duration": 4, "velocity": 91}, {"time": 1738, "pitch": 64, "duration": 6, "velocity": 90}, {"time": 1744, "pitch": 42, "duration": 17, "velocity": 91}, {"time": 1744, "pitch": 61, "duration": 7, "velocity": 81}, {"time": 1747, "pitch": 49, "duration": 14, "velocity": 72}, {"time": 1750, "pitch": 57, "duration": 12, "velocity": 88}, {"time": 1753, "pitch": 61, "duration": 10, "velocity": 94}, {"time": 1762, "pitch": 66, "duration": 6, "velocity": 83}, {"time": 1768, "pitch": 47, "duration": 17, "velocity": 91}, {"time": 1768, "pitch": 59, "duration": 3, "velocity": 80}, {"time": 1768, "pitch": 62, "duration": 6, "velocity": 88}, {"time": 1771, "pitch": 54, "duration": 12, "velocity": 84}, {"time": 1774, "pitch": 59, "duration": 13, "velocity": 90}, {"time": 1777, "pitch": 66, "duration": 10, "velocity": 92}, {"time": 1786, "pitch": 62, "duration": 4, "velocity": 90}, {"time": 1792, "pitch": 40, "duration": 7, "velocity": 91}, {"time": 1792, "pitch": 59, "duration": 4, "velocity": 84}, {"time": 1792, "pitch": 64, "duration": 6, "velocity": 90}, {"time": 1795, "pitch": 47, "duration": 4, "velocity": 83}, {"time": 1798, "pitch": 59, "duration": 4, "velocity": 88}, {"time": 1801, "pitch": 64, "duration": 3, "velocity": 75}, {"time": 1804, "pitch": 45, "duration": 7, "velocity": 91}, {"time": 1804, "pitch": 57, "duration": 4, "velocity": 83}, {"time": 1804, "pitch": 61, "duration": 7, "velocity": 79}, {"time": 1807, "pitch": 52, "duration": 3, "velocity": 83}, {"time": 1810, "pitch": 57, "duration": 3, "velocity": 86}, {"time": 1816, "pitch": 38, "duration": 22, "velocity": 84}, {"time": 1816, "pitch": 57, "duration": 3, "velocity": 82}, {"time": 1816, "pitch": 62, "duration": 6, "velocity": 85}, {"time": 1819, "pitch": 45, "duration": 19, "velocity": 79}, {"time": 1822, "pitch": 57, "duration": 6, "velocity": 84}, {"time": 1825, "pitch": 62, "duration": 7, "velocity": 90}, {"time": 1831, "pitch": 64, "duration": 2, "velocity": 85}, {"time": 1834, "pitch": 66, "duration": 2, "velocity": 90}, {"time": 1840, "pitch": 38, "duration": 20, "velocity": 95}, {"time": 1840, "pitch": 57, "duration": 3, "velocity": 85}, {"time": 1840, "pitch": 62, "duration": 3, "velocity": 88}, {"time": 1840, "pitch": 66, "duration": 4, "velocity": 88}, {"time": 1843, "pitch": 45, "duration": 9, "velocity": 85}, {"time": 1846, "pitch": 62, "duration": 2, "velocity": 79}, {"time": 1849, "pitch": 62, "duration": 7, "velocity": 92}, {"time": 1849, "pitch": 66, "duration": 9, "velocity": 93}, {"time": 1849, "pitch": 69, "duration": 10, "velocity": 92}, {"time": 1855, "pitch": 45, "duration": 5, "velocity": 91}, {"time": 1858, "pitch": 62, "duration": 1, "velocity": 90}, {"time": 1864, "pitch": 38, "duration": 15, "velocity": 101}, {"time": 1864, "pitch": 57, "duration": 3, "velocity": 91}, {"time": 1864, "pitch": 62, "duration": 5, "velocity": 94}, {"time": 1867, "pitch": 45, "duration": 8, "velocity": 84}, {"time": 1870, "pitch": 57, "duration": 2, "velocity": 88}, {"time": 1873, "pitch": 57, "duration": 9, "velocity": 92}, {"time": 1873, "pitch": 62, "duration": 10, "velocity": 93}, {"time": 1873, "pitch": 66, "duration": 17, "velocity": 92}, {"time": 1882, "pitch": 38, "duration": 3, "velocity": 90}, {"time": 1885, "pitch": 57, "duration": 3, "velocity": 97}, {"time": 1888, "pitch": 47, "duration": 15, "velocity": 96}, {"time": 1891, "pitch": 59, "duration": 4, "velocity": 91}, {"time": 1894, "pitch": 62, "duration": 2, "velocity": 82}, {"time": 1897, "pitch": 59, "duration": 10, "velocity": 90}, {"time": 1897, "pitch": 62, "duration": 13, "velocity": 92}, {"time": 1897, "pitch": 66, "duration": 15, "velocity": 92}, {"time": 1906, "pitch": 54, "duration": 2, "velocity": 82}, {"time": 1909, "pitch": 59, "duration": 2, "velocity": 90}, {"time": 1912, "pitch": 50, "duration": 20, "velocity": 96}, {"time": 1912, "pitch": 57, "duration": 2, "velocity": 90}, {"time": 1912, "pitch": 62, "duration": 4, "velocity": 90}, {"time": 1915, "pitch": 57, "duration": 5, "velocity": 83}, {"time": 1918, "pitch": 62, "duration": 2, "velocity": 83}, {"time": 1921, "pitch": 57, "duration": 1, "velocity": 57}, {"time": 1921, "pitch": 62, "duration": 2, "velocity": 90}, {"time": 1921, "pitch": 66, "duration": 10, "velocity": 91}, {"time": 1930, "pitch": 62, "duration": 2, "velocity": 82}, {"time": 1933, "pitch": 57, "duration": 1, "velocity": 38}, {"time": 1936, "pitch": 45, "duration": 19, "velocity": 91}, {"time": 1936, "pitch": 57, "duration": 3, "velocity": 85}, {"time": 1936, "pitch": 64, "duration": 7, "velocity": 91}, {"time": 1939, "pitch": 52, "duration": 12, "velocity": 91}, {"time": 1942, "pitch": 57, "duration": 2, "velocity": 92}, {"time": 1945, "pitch": 61, "duration": 12, "velocity": 101}, {"time": 1951, "pitch": 49, "duration": 4, "velocity": 86}, {"time": 1954, "pitch": 52, "duration": 2, "velocity": 94}, {"time": 1957, "pitch": 57, "duration": 4, "velocity": 92}, {"time": 1960, "pitch": 42, "duration": 14, "velocity": 95}, {"time": 1960, "pitch": 61, "duration": 7, "velocity": 99}, {"time": 1963, "pitch": 49, "duration": 11, "velocity": 85}, {"time": 1966, "pitch": 57, "duration": 9, "velocity": 90}, {"time": 1969, "pitch": 61, "duration": 7, "velocity": 92}, {"time": 1975, "pitch": 66, "duration": 8, "velocity": 91}, {"time": 1978, "pitch": 57, "duration": 1, "velocity": 82}, {"time": 1984, "pitch": 47, "duration": 18, "velocity": 92}, {"time": 1984, "pitch": 59, "duration": 4, "velocity": 86}, {"time": 1984, "pitch": 62, "duration": 6, "velocity": 87}, {"time": 1987, "pitch": 54, "duration": 13, "velocity": 85}, {"time": 1990, "pitch": 59, "duration": 2, "velocity": 91}, {"time": 1993, "pitch": 59, "duration": 4, "velocity": 91}, {"time": 1993, "pitch": 66, "duration": 6, "velocity": 83}, {"time": 1999, "pitch": 59, "duration": 2, "velocity": 87}, {"time": 1999, "pitch": 62, "duration": 4, "velocity": 90}, {"time": 2002, "pitch": 59, "duration": 3, "velocity": 87}, {"time": 2008, "pitch": 43, "duration": 19, "velocity": 91}, {"time": 2008, "pitch": 55, "duration": 3, "velocity": 85}, {"time": 2008, "pitch": 59, "duration": 6, "velocity": 90}, {"time": 2011, "pitch": 50, "duration": 13, "velocity": 86}, {"time": 2014, "pitch": 55, "duration": 4, "velocity": 86}, {"time": 2017, "pitch": 59, "duration": 3, "velocity": 94}, {"time": 2020, "pitch": 62, "duration": 4, "velocity": 92}, {"time": 2023, "pitch": 55, "duration": 3, "velocity": 85}, {"time": 2026, "pitch": 50, "duration": 3, "velocity": 91}, {"time": 2029, "pitch": 55, "duration": 2, "velocity": 91}, {"time": 2032, "pitch": 45, "duration": 20, "velocity": 94}, {"time": 2032, "pitch": 57, "duration": 4, "velocity": 88}, {"time": 2035, "pitch": 52, "duration": 10, "velocity": 94}, {"time": 2038, "pitch": 57, "duration": 2, "velocity": 92}, {"time": 2041, "pitch": 61, "duration": 2, "velocity": 99}, {"time": 2044, "pitch": 57, "duration": 4, "velocity": 91}, {"time": 2044, "pitch": 61, "duration": 4, "velocity": 104}, {"time": 2044, "pitch": 64, "duration": 5, "velocity": 99}, {"time": 2047, "pitch": 52, "duration": 7, "velocity": 101}, {"time": 2050, "pitch": 57, "duration": 5, "velocity": 101}, {"time": 2056, "pitch": 50, "duration": 20, "velocity": 101}, {"time": 2056, "pitch": 57, "duration": 2, "velocity": 94}, {"time": 2056, "pitch": 62, "duration": 4, "velocity": 94}, {"time": 2059, "pitch": 57, "duration": 5, "velocity": 91}, {"time": 2062, "pitch": 62, "duration": 2, "velocity": 86}, {"time": 2065, "pitch": 66, "duration": 7, "velocity": 99}, {"time": 2071, "pitch": 62, "duration": 4, "velocity": 91}, {"time": 2074, "pitch": 57, "duration": 2, "velocity": 91}, {"time": 2080, "pitch": 47, "duration": 18, "velocity": 92}, {"time": 2080, "pitch": 59, "duration": 4, "velocity": 90}, {"time": 2080, "pitch": 62, "duration": 4, "velocity": 90}, {"time": 2083, "pitch": 54, "duration": 7, "velocity": 91}, {"time": 2086, "pitch": 59, "duration": 2, "velocity": 92}, {"time": 2089, "pitch": 59, "duration": 4, "velocity": 92}, {"time": 2089, "pitch": 66, "duration": 5, "velocity": 91}, {"time": 2095, "pitch": 59, "duration": 2, "velocity": 90}, {"time": 2095, "pitch": 62, "duration": 2, "velocity": 92}, {"time": 2104, "pitch": 50, "duration": 18, "velocity": 94}, {"time": 2107, "pitch": 57, "duration": 5, "velocity": 91}, {"time": 2110, "pitch": 62, "duration": 2, "velocity": 88}, {"time": 2113, "pitch": 57, "duration": 4, "velocity": 90}, {"time": 2113, "pitch": 62, "duration": 5, "velocity": 91}, {"time": 2113, "pitch": 66, "duration": 9, "velocity": 99}, {"time": 2119, "pitch": 62, "duration": 3, "velocity": 85}, {"time": 2122, "pitch": 57, "duration": 2, "velocity": 76}, {"time": 2128, "pitch": 45, "duration": 18, "velocity": 91}, {"time": 2128, "pitch": 57, "duration": 3, "velocity": 85}, {"time": 2128, "pitch": 64, "duration": 4, "velocity": 91}, {"time": 2131, "pitch": 52, "duration": 14, "velocity": 91}, {"time": 2134, "pitch": 57, "duration": 6, "velocity": 91}, {"time": 2137, "pitch": 61, "duration": 4, "velocity": 91}, {"time": 2140, "pitch": 69, "duration": 4, "velocity": 92}, {"time": 2143, "pitch": 64, "duration": 3, "velocity": 99}, {"time": 2146, "pitch": 57, "duration": 2, "velocity": 91}, {"time": 2152, "pitch": 42, "duration": 15, "velocity": 92}, {"time": 2152, "pitch": 57, "duration": 3, "velocity": 86}, {"time": 2152, "pitch": 61, "duration": 7, "velocity": 89}, {"time": 2155, "pitch": 49, "duration": 12, "velocity": 78}, {"time": 2158, "pitch": 57, "duration": 5, "velocity": 90}, {"time": 2161, "pitch": 61, "duration": 7, "velocity": 93}, {"time": 2167, "pitch": 66, "duration": 9, "velocity": 94}, {"time": 2170, "pitch": 57, "duration": 2, "velocity": 79}, {"time": 2176, "pitch": 47, "duration": 19, "velocity": 92}, {"time": 2176, "pitch": 59, "duration": 3, "velocity": 84}, {"time": 2176, "pitch": 62, "duration": 6, "velocity": 85}, {"time": 2179, "pitch": 54, "duration": 13, "velocity": 84}, {"time": 2182, "pitch": 59, "duration": 5, "velocity": 90}, {"time": 2185, "pitch": 62, "duration": 6, "velocity": 91}, {"time": 2191, "pitch": 66, "duration": 4, "velocity": 93}, {"time": 2194, "pitch": 59, "duration": 2, "velocity": 88}, {"time": 2200, "pitch": 43, "duration": 8, "velocity": 91}, {"time": 2200, "pitch": 55, "duration": 6, "velocity": 79}, {"time": 2200, "pitch": 59, "duration": 7, "velocity": 80}, {"time": 2212, "pitch": 45, "duration": 7, "velocity": 91}, {"time": 2212, "pitch": 57, "duration": 3, "velocity": 83}, {"time": 2212, "pitch": 61, "duration": 6, "velocity": 84}, {"time": 2215, "pitch": 52, "duration": 3, "velocity": 88}, {"time": 2218, "pitch": 57, "duration": 5, "velocity": 91}, {"time": 2221, "pitch": 61, "duration": 4, "velocity": 90}, {"time": 2224, "pitch": 38, "duration": 22, "velocity": 94}, {"time": 2224, "pitch": 62, "duration": 4, "velocity": 90}, {"time": 2227, "pitch": 45, "duration": 19, "velocity": 78}, {"time": 2230, "pitch": 57, "duration": 5, "velocity": 90}, {"time": 2233, "pitch": 62, "duration": 7, "velocity": 86}, {"time": 2239, "pitch": 66, "duration": 8, "velocity": 97}, {"time": 2242, "pitch": 62, "duration": 4, "velocity": 83}, {"time": 2245, "pitch": 57, "duration": 2, "velocity": 80}, {"time": 2248, "pitch": 45, "duration": 2, "velocity": 91}, {"time": 2248, "pitch": 57, "duration": 2, "velocity": 85}, {"time": 2248, "pitch": 61, "duration": 2, "velocity": 86}, {"time": 2248, "pitch": 69, "duration": 3, "velocity": 90}, {"time": 2251, "pitch": 45, "duration": 2, "velocity": 91}, {"time": 2251, "pitch": 57, "duration": 2, "velocity": 85}, {"time": 2251, "pitch": 61, "duration": 2, "velocity": 91}, {"time": 2251, "pitch": 69, "duration": 2, "velocity": 91}, {"time": 2260, "pitch": 45, "duration": 12, "velocity": 91}, {"time": 2260, "pitch": 57, "duration": 7, "velocity": 78}, {"time": 2260, "pitch": 61, "duration": 8, "velocity": 80}, {"time": 2260, "pitch": 64, "duration": 9, "velocity": 87}, {"time": 2266, "pitch": 52, "duration": 6, "velocity": 82}, {"time": 2272, "pitch": 38, "duration": 15, "velocity": 101}, {"time": 2272, "pitch": 57, "duration": 3, "velocity": 91}, {"time": 2272, "pitch": 62, "duration": 5, "velocity": 94}, {"time": 2275, "pitch": 45, "duration": 8, "velocity": 84}, {"time": 2278, "pitch": 57, "duration": 2, "velocity": 88}, {"time": 2281, "pitch": 57, "duration": 9, "velocity": 92}, {"time": 2281, "pitch": 62, "duration": 10, "velocity": 93}, {"time": 2281, "pitch": 66, "duration": 17, "velocity": 92}, {"time": 2290, "pitch": 38, "duration": 3, "velocity": 90}, {"time": 2293, "pitch": 57, "duration": 3, "velocity": 97}, {"time": 2296, "pitch": 47, "duration": 15, "velocity": 96}, {"time": 2299, "pitch": 59, "duration": 4, "velocity": 91}, {"time": 2302, "pitch": 62, "duration": 2, "velocity": 82}, {"time": 2305, "pitch": 59, "duration": 10, "velocity": 90}, {"time": 2305, "pitch": 62, "duration": 13, "velocity": 92}, {"time": 2305, "pitch": 66, "duration": 15, "velocity": 92}, {"time": 2314, "pitch": 54, "duration": 2, "velocity": 82}, {"time": 2317, "pitch": 59, "duration": 2, "velocity": 90}, {"time": 2320, "pitch": 50, "duration": 20, "velocity": 96}, {"time": 2320, "pitch": 57, "duration": 2, "velocity": 90}, {"time": 2320, "pitch": 62, "duration": 4, "velocity": 90}, {"time": 2323, "pitch": 57, "duration": 5, "velocity": 83}, {"time": 2326, "pitch": 62, "duration": 2, "velocity": 83}, {"time": 2329, "pitch": 57, "duration": 1, "velocity": 57}, {"time": 2329, "pitch": 62, "duration": 2, "velocity": 90}, {"time": 2329, "pitch": 66, "duration": 10, "velocity": 91}, {"time": 2338, "pitch": 62, "duration": 2, "velocity": 82}, {"time": 2341, "pitch": 57, "duration": 1, "velocity": 38}, {"time": 2344, "pitch": 45, "duration": 19, "velocity": 91}, {"time": 2344, "pitch": 57, "duration": 3, "velocity": 85}, {"time": 2344, "pitch": 64, "duration": 7, "velocity": 91}, {"time": 2347, "pitch": 52, "duration": 12, "velocity": 91}, {"time": 2350, "pitch": 57, "duration": 2, "velocity": 92}, {"time": 2353, "pitch": 61, "duration": 12, "velocity": 101}, {"time": 2359, "pitch": 49, "duration": 4, "velocity": 86}, {"time": 2362, "pitch": 52, "duration": 2, "velocity": 94}, {"time": 2365, "pitch": 57, "duration": 4, "velocity": 92}, {"time": 2368, "pitch": 42, "duration": 14, "velocity": 95}, {"time": 2368, "pitch": 61, "duration": 7, "velocity": 99}, {"time": 2371, "pitch": 49, "duration": 11, "velocity": 85}, {"time": 2374, "pitch": 57, "duration": 9, "velocity": 90}, {"time": 2377, "pitch": 61, "duration": 7, "velocity": 92}, {"time": 2383, "pitch": 66, "duration": 8, "velocity": 91}, {"time": 2386, "pitch": 57, "duration": 1, "velocity": 82}, {"time": 2392, "pitch": 47, "duration": 18, "velocity": 92}, {"time": 2392, "pitch": 59, "duration": 4, "velocity": 86}, {"time": 2392, "pitch": 62, "duration": 6, "velocity": 87}, {"time": 2395, "pitch": 54, "duration": 13, "velocity": 85}, {"time": 2398, "pitch": 59, "duration": 2, "velocity": 91}, {"time": 2401, "pitch": 59, "duration": 4, "velocity": 91}, {"time": 2401, "pitch": 66, "duration": 6, "velocity": 83}, {"time": 2407, "pitch": 59, "duration": 2, "velocity": 87}, {"time": 2407, "pitch": 62, "duration": 4, "velocity": 90}, {"time": 2410, "pitch": 59, "duration": 3, "velocity": 87}, {"time": 2416, "pitch": 43, "duration": 19, "velocity": 91}, {"time": 2416, "pitch": 55, "duration": 3, "velocity": 85}, {"time": 2416, "pitch": 59, "duration": 6, "velocity": 90}, {"time": 2419, "pitch": 50, "duration": 13, "velocity": 86}, {"time": 2422, "pitch": 55, "duration": 4, "velocity": 86}, {"time": 2425, "pitch": 59, "duration": 3, "velocity": 94}, {"time": 2428, "pitch": 62, "duration": 4, "velocity": 92}, {"time": 2431, "pitch": 55, "duration": 3, "velocity": 85}, {"time": 2434, "pitch": 50, "duration": 3, "velocity": 91}, {"time": 2437, "pitch": 55, "duration": 2, "velocity": 91}, {"time": 2440, "pitch": 45, "duration": 20, "velocity": 94}, {"time": 2440, "pitch": 57, "duration": 4, "velocity": 88}, {"time": 2443, "pitch": 52, "duration": 10, "velocity": 94}, {"time": 2446, "pitch": 57, "duration": 2, "velocity": 92}, {"time": 2449, "pitch": 61, "duration": 2, "velocity": 99}, {"time": 2452, "pitch": 57, "duration": 4, "velocity": 91}, {"time": 2452, "pitch": 61, "duration": 4, "velocity": 104}, {"time": 2452, "pitch": 64, "duration": 5, "velocity": 99}, {"time": 2455, "pitch": 52, "duration": 7, "velocity": 101}, {"time": 2458, "pitch": 57, "duration": 5, "velocity": 101}, {"time": 2464, "pitch": 50, "duration": 20, "velocity": 101}, {"time": 2464, "pitch": 57, "duration": 2, "velocity": 94}, {"time": 2464, "pitch": 62, "duration": 4, "velocity": 94}, {"time": 2467, "pitch": 57, "duration": 5, "velocity": 91}, {"time": 2470, "pitch": 62, "duration": 2, "velocity": 86}, {"time": 2473, "pitch": 66, "duration": 7, "velocity": 99}, {"time": 2479, "pitch": 62, "duration": 4, "velocity": 91}, {"time": 2482, "pitch": 57, "duration": 2, "velocity": 91}, {"time": 2488, "pitch": 47, "duration": 18, "velocity": 92}, {"time": 2488, "pitch": 59, "duration": 4, "velocity": 90}, {"time": 2488, "pitch": 62, "duration": 4, "velocity": 90}, {"time": 2491, "pitch": 54, "duration": 7, "velocity": 91}, {"time": 2494, "pitch": 59, "duration": 2, "velocity": 92}, {"time": 2497, "pitch": 59, "duration": 4, "velocity": 92}, {"time": 2497, "pitch": 66, "duration": 5, "velocity": 91}, {"time": 2503, "pitch": 59, "duration": 2, "velocity": 90}, {"time": 2503, "pitch": 62, "duration": 2, "velocity": 92}, {"time": 2512, "pitch": 50, "duration": 18, "velocity": 94}, {"time": 2515, "pitch": 57, "duration": 5, "velocity": 91}, {"time": 2518, "pitch": 62, "duration": 2, "velocity": 88}, {"time": 2521, "pitch": 57, "duration": 4, "velocity": 90}, {"time": 2521, "pitch": 62, "duration": 5, "velocity": 91}, {"time": 2521, "pitch": 66, "duration": 9, "velocity": 99}, {"time": 2527, "pitch": 62, "duration": 3, "velocity": 85}, {"time": 2530, "pitch": 57, "duration": 2, "velocity": 76}, {"time": 2536, "pitch": 45, "duration": 18, "velocity": 91}, {"time": 2536, "pitch": 57, "duration": 3, "velocity": 85}, {"time": 2536, "pitch": 64, "duration": 4, "velocity": 91}, {"time": 2539, "pitch": 52, "duration": 14, "velocity": 91}, {"time": 2542, "pitch": 57, "duration": 6, "velocity": 91}, {"time": 2545, "pitch": 61, "duration": 4, "velocity": 91}, {"time": 2548, "pitch": 69, "duration": 4, "velocity": 92}, {"time": 2551, "pitch": 64, "duration": 3, "velocity": 99}, {"time": 2554, "pitch": 57, "duration": 2, "velocity": 91}, {"time": 2560, "pitch": 42, "duration": 15, "velocity": 92}, {"time": 2560, "pitch": 57, "duration": 3, "velocity": 86}, {"time": 2560, "pitch": 61, "duration": 7, "velocity": 89}, {"time": 2563, "pitch": 49, "duration": 12, "velocity": 78}, {"time": 2566, "pitch": 57, "duration": 5, "velocity": 90}, {"time": 2569, "pitch": 61, "duration": 7, "velocity": 93}, {"time": 2575, "pitch": 66, "duration": 9, "velocity": 94}, {"time": 2578, "pitch": 57, "duration": 2, "velocity": 79}, {"time": 2584, "pitch": 47, "duration": 19, "velocity": 92}, {"time": 2584, "pitch": 59, "duration": 3, "velocity": 84}, {"time": 2584, "pitch": 62, "duration": 6, "velocity": 85}, {"time": 2587, "pitch": 54, "duration": 13, "velocity": 84}, {"time": 2590, "pitch": 59, "duration": 5, "velocity": 90}, {"time": 2593, "pitch": 62, "duration": 6, "velocity": 91}, {"time": 2599, "pitch": 66, "duration": 4, "velocity": 93}, {"time": 2602, "pitch": 59, "duration": 2, "velocity": 88}, {"time": 2608, "pitch": 43, "duration": 22, "velocity": 91}, {"time": 2608, "pitch": 55, "duration": 4, "velocity": 86}, {"time": 2608, "pitch": 62, "duration": 6, "velocity": 89}, {"time": 2611, "pitch": 50, "duration": 13, "velocity": 83}, {"time": 2614, "pitch": 55, "duration": 8, "velocity": 90}, {"time": 2617, "pitch": 62, "duration": 5, "velocity": 90}, {"time": 2623, "pitch": 55, "duration": 1, "velocity": 74}, {"time": 2623, "pitch": 62, "duration": 7, "velocity": 91}, {"time": 2623, "pitch": 67, "duration": 9, "velocity": 90}, {"time": 2626, "pitch": 50, "duration": 5, "velocity": 89}, {"time": 2629, "pitch": 55, "duration": 1, "velocity": 92}, {"time": 2632, "pitch": 45, "duration": 24, "velocity": 93}, {"time": 2632, "pitch": 57, "duration": 3, "velocity": 89}, {"time": 2632, "pitch": 61, "duration": 4, "velocity": 84}, {"time": 2635, "pitch": 52, "duration": 11, "velocity": 91}, {"time": 2638, "pitch": 57, "duration": 2, "velocity": 95}, {"time": 2641, "pitch": 57, "duration": 2, "velocity": 85}, {"time": 2641, "pitch": 64, "duration": 2, "velocity": 92}, {"time": 2644, "pitch": 57, "duration": 4, "velocity": 89}, {"time": 2644, "pitch": 64, "duration": 2, "velocity": 85}, {"time": 2644, "pitch": 69, "duration": 26, "velocity": 91}, {"time": 2647, "pitch": 52, "duration": 8, "velocity": 91}, {"time": 2650, "pitch": 57, "duration": 5, "velocity": 91}, {"time": 2653, "pitch": 64, "duration": 2, "velocity": 85}, {"time": 2656, "pitch": 45, "duration": 14, "velocity": 92}, {"time": 2656, "pitch": 57, "duration": 15, "velocity": 87}, {"time": 2656, "pitch": 64, "duration": 15, "velocity": 92}, {"time": 2680, "pitch": 38, "duration": 23, "velocity": 94}, {"time": 2683, "pitch": 45, "duration": 19, "velocity": 82}, {"time": 2686, "pitch": 52, "duration": 3, "velocity": 84}, {"time": 2689, "pitch": 54, "duration": 2, "velocity": 93}, {"time": 2695, "pitch": 57, "duration": 4, "velocity": 90}, {"time": 2698, "pitch": 62, "duration": 3, "velocity": 91}, {"time": 2701, "pitch": 57, "duration": 2, "velocity": 81}, {"time": 2704, "pitch": 62, "duration": 7, "velocity": 85}, {"time": 2704, "pitch": 57, "duration": 7, "velocity": 79}, {"time": 2704, "pitch": 66, "duration": 7, "velocity": 81}, {"time": 2704, "pitch": 38, "duration": 14, "velocity": 94}, {"time": 2709, "pitch": 45, "duration": 8, "velocity": 68}, {"time": 2716, "pitch": 57, "duration": 13, "velocity": 78}, {"time": 2716, "pitch": 62, "duration": 11, "velocity": 84}, {"time": 2728, "pitch": 43, "duration": 19, "velocity": 90}, {"time": 2731, "pitch": 50, "duration": 16, "velocity": 78}, {"time": 2734, "pitch": 55, "duration": 7, "velocity": 88}, {"time": 2737, "pitch": 59, "duration": 4, "velocity": 84}, {"time": 2740, "pitch": 62, "duration": 14, "velocity": 86}, {"time": 2752, "pitch": 45, "duration": 28, "velocity": 91}, {"time": 2756, "pitch": 52, "duration": 24, "velocity": 84}, {"time": 2759, "pitch": 57, "duration": 47, "velocity": 81}, {"time": 2762, "pitch": 61, "duration": 44, "velocity": 96}, {"time": 2766, "pitch": 64, "duration": 41, "velocity": 89}, {"time": 2771, "pitch": 69, "duration": 38, "velocity": 84}, {"time": 2832, "pitch": 38, "duration": 7, "velocity": 94}, {"time": 2834, "pitch": 45, "duration": 5, "velocity": 85}, {"time": 2837, "pitch": 62, "duration": 8, "velocity": 90}, {"time": 2839, "pitch": 66, "duration": 5, "velocity": 75}, {"time": 2842, "pitch": 69, "duration": 4, "velocity": 81}, {"time": 2846, "pitch": 74, "duration": 2, "velocity": 79}, {"time": 2849, "pitch": 76, "duration": 2, "velocity": 90}, {"time": 2853, "pitch": 78, "duration": 2, "velocity": 84}, {"time": 2858, "pitch": 81, "duration": 2, "velocity": 80}, {"time": 2858, "pitch": 74, "duration": 2, "velocity": 86}, {"time": 2863, "pitch": 74, "duration": 1, "velocity": 64}, {"time": 2864, "pitch": 81, "duration": 1, "velocity": 73}, {"time": 2865, "pitch": 86, "duration": 1, "velocity": 90}], "annotations": [{"time": 41, "annotation": {"number": 64, "value": 127}, "group": "control_change"}, {"time": 41, "annotation": {"number": 64, "value": 0}, "group": "control_change"}, {"time": 65, "annotation": {"number": 64, "value": 0}, "group": "control_change"}, {"time": 68, "annotation": {"number": 64, "value": 127}, "group": "control_change"}, {"time": 68, "annotation": {"number": 64, "value": 0}, "group": "control_change"}, {"time": 86, "annotation": {"number": 64, "value": 0}, "group": "control_change"}, {"time": 90, "annotation": {"number": 64, "value": 127}, "group": "control_change"}, {"time": 111, "annotation": {"number": 64, "value": 0}, "group": "control_change"}, {"time": 116, "annotation": {"number": 64, "value": 127}, "group": "control_change"}, {"time": 135, "annotation": {"number": 64, "value": 0}, "group": "control_change"}, {"time": 137, "annotation": {"number": 64, "value": 127}, "group": "control_change"}, {"time": 137, "annotation": {"number": 64, "value": 0}, "group": "control_change"}, {"time": 159, "annotation": {"number": 64, "value": 0}, "group": "control_change"}, {"time": 163, "annotation": {"number": 64, "value": 127}, "group": "control_change"}, {"time": 182, "annotation": {"number": 64, "value": 0}, "group": "control_change"}, {"time": 187, "annotation": {"number": 64, "value": 127}, "group": "control_change"}, {"time": 207, "annotation": {"number": 64, "value": 0}, "group": "control_change"}, {"time": 208, "annotation": {"number": 64, "value": 127}, "group": "control_change"}, {"time": 254, "annotation": {"number": 64, "value": 0}, "group": "control_change"}, {"time": 278, "annotation": {"number": 64, "value": 0}, "group": "control_change"}, {"time": 281, "annotation": {"number": 64, "value": 127}, "group": "control_change"}, {"time": 304, "annotation": {"number": 64, "value": 0}, "group": "control_change"}, {"time": 310, "annotation": {"number": 64, "value": 127}, "group": "control_change"}, {"time": 327, "annotation": {"number": 64, "value": 0}, "group": "control_change"}, {"time": 333, "annotation": {"number": 64, "value": 127}, "group": "control_change"}, {"time": 350, "annotation": {"number": 64, "value": 0}, "group": "control_change"}, {"time": 357, "annotation": {"number": 64, "value": 127}, "group": "control_change"}, {"time": 374, "annotation": {"number": 64, "value": 0}, "group": "control_change"}, {"time": 378, "annotation": {"number": 64, "value": 127}, "group": "control_change"}, {"time": 399, "annotation": {"number": 64, "value": 0}, "group": "control_change"}, {"time": 402, "annotation": {"number": 64, "value": 127}, "group": "control_change"}, {"time": 425, "annotation": {"number": 64, "value": 0}, "group": "control_change"}, {"time": 430, "annotation": {"number": 64, "value": 127}, "group": "control_change"}, {"time": 447, "annotation": {"number": 64, "value": 0}, "group": "control_change"}, {"time": 450, "annotation": {"number": 64, "value": 127}, "group": "control_change"}, {"time": 472, "annotation": {"number": 64, "value": 0}, "group": "control_change"}, {"time": 474, "annotation": {"number": 64, "value": 127}, "group": "control_change"}, {"time": 495, "annotation": {"number": 64, "value": 0}, "group": "control_change"}, {"time": 497, "annotation": {"number": 64, "value": 127}, "group": "control_change"}, {"time": 518, "annotation": {"number": 64, "value": 0}, "group": "control_change"}, {"time": 521, "annotation": {"number": 64, "value": 127}, "group": "control_change"}, {"time": 543, "annotation": {"number": 64, "value": 0}, "group": "control_change"}, {"time": 546, "annotation": {"number": 64, "value": 127}, "group": "control_change"}, {"time": 567, "annotation": {"number": 64, "value": 0}, "group": "control_change"}, {"time": 570, "annotation": {"number": 64, "value": 127}, "group": "control_change"}, {"time": 591, "annotation": {"number": 64, "value": 0}, "group": "control_change"}, {"time": 592, "annotation": {"number": 64, "value": 127}, "group": "control_change"}, {"time": 603, "annotation": {"number": 64, "value": 0}, "group": "control_change"}, {"time": 606, "annotation": {"number": 64, "value": 127}, "group": "control_change"}, {"time": 615, "annotation": {"number": 64, "value": 0}, "group": "control_change"}, {"time": 618, "annotation": {"number": 64, "value": 127}, "group": "control_change"}, {"time": 639, "annotation": {"number": 64, "value": 0}, "group": "control_change"}, {"time": 640, "annotation": {"number": 64, "value": 127}, "group": "control_change"}, {"time": 664, "annotation": {"number": 64, "value": 0}, "group": "control_change"}, {"time": 666, "annotation": {"number": 64, "value": 127}, "group": "control_change"}, {"time": 687, "annotation": {"number": 64, "value": 0}, "group": "control_change"}, {"time": 688, "annotation": {"number": 64, "value": 127}, "group": "control_change"}, {"time": 711, "annotation": {"number": 64, "value": 0}, "group": "control_change"}, {"time": 713, "annotation": {"number": 64, "value": 127}, "group": "control_change"}, {"time": 735, "annotation": {"number": 64, "value": 0}, "group": "control_change"}, {"time": 738, "annotation": {"number": 64, "value": 127}, "group": "control_change"}, {"time": 759, "annotation": {"number": 64, "value": 0}, "group": "control_change"}, {"time": 761, "annotation": {"number": 64, "value": 127}, "group": "control_change"}, {"time": 783, "annotation": {"number": 64, "value": 0}, "group": "control_change"}, {"time": 786, "annotation": {"number": 64, "value": 127}, "group": "control_change"}, {"time": 808, "annotation": {"number": 64, "value": 0}, "group": "control_change"}, {"time": 811, "annotation": {"number": 64, "value": 127}, "group": "control_change"}, {"time": 831, "annotation": {"number": 64, "value": 0}, "group": "control_change"}, {"time": 833, "annotation": {"number": 64, "value": 127}, "group": "control_change"}, {"time": 855, "annotation": {"number": 64, "value": 0}, "group": "control_change"}, {"time": 858, "annotation": {"number": 64, "value": 127}, "group": "control_change"}, {"time": 879, "annotation": {"number": 64, "value": 0}, "group": "control_change"}, {"time": 881, "annotation": {"number": 64, "value": 127}, "group": "control_change"}, {"time": 904, "annotation": {"number": 64, "value": 0}, "group": "control_change"}, {"time": 905, "annotation": {"number": 64, "value": 127}, "group": "control_change"}, {"time": 928, "annotation": {"number": 64, "value": 0}, "group": "control_change"}, {"time": 930, "annotation": {"number": 64, "value": 127}, "group": "control_change"}, {"time": 950, "annotation": {"number": 64, "value": 0}, "group": "control_change"}, {"time": 953, "annotation": {"number": 64, "value": 127}, "group": "control_change"}, {"time": 975, "annotation": {"number": 64, "value": 0}, "group": "control_change"}, {"time": 978, "annotation": {"number": 64, "value": 127}, "group": "control_change"}, {"time": 999, "annotation": {"number": 64, "value": 0}, "group": "control_change"}, {"time": 1000, "annotation": {"number": 64, "value": 127}, "group": "control_change"}, {"time": 1010, "annotation": {"number": 64, "value": 0}, "group": "control_change"}, {"time": 1013, "annotation": {"number": 64, "value": 127}, "group": "control_change"}, {"time": 1022, "annotation": {"number": 64, "value": 0}, "group": "control_change"}, {"time": 1025, "annotation": {"number": 64, "value": 127}, "group": "control_change"}, {"time": 1071, "annotation": {"number": 64, "value": 0}, "group": "control_change"}, {"time": 1078, "annotation": {"number": 64, "value": 127}, "group": "control_change"}, {"time": 1119, "annotation": {"number": 64, "value": 0}, "group": "control_change"}, {"time": 1121, "annotation": {"number": 64, "value": 127}, "group": "control_change"}, {"time": 1166, "annotation": {"number": 64, "value": 0}, "group": "control_change"}, {"time": 1168, "annotation": {"number": 64, "value": 127}, "group": "control_change"}, {"time": 1191, "annotation": {"number": 64, "value": 0}, "group": "control_change"}, {"time": 1194, "annotation": {"number": 64, "value": 127}, "group": "control_change"}, {"time": 1216, "annotation": {"number": 64, "value": 0}, "group": "control_change"}, {"time": 1218, "annotation": {"number": 64, "value": 127}, "group": "control_change"}, {"time": 1238, "annotation": {"number": 64, "value": 0}, "group": "control_change"}, {"time": 1241, "annotation": {"number": 64, "value": 127}, "group": "control_change"}, {"time": 1262, "annotation": {"number": 64, "value": 0}, "group": "control_change"}, {"time": 1265, "annotation": {"number": 64, "value": 127}, "group": "control_change"}, {"time": 1287, "annotation": {"number": 64, "value": 0}, "group": "control_change"}, {"time": 1288, "annotation": {"number": 64, "value": 127}, "group": "control_change"}, {"time": 1310, "annotation": {"number": 64, "value": 0}, "group": "control_change"}, {"time": 1312, "annotation": {"number": 64, "value": 127}, "group": "control_change"}, {"time": 1335, "annotation": {"number": 64, "value": 0}, "group": "control_change"}, {"time": 1337, "annotation": {"number": 64, "value": 127}, "group": "control_change"}, {"time": 1358, "annotation": {"number": 64, "value": 0}, "group": "control_change"}, {"time": 1360, "annotation": {"number": 64, "value": 127}, "group": "control_change"}, {"time": 1382, "annotation": {"number": 64, "value": 0}, "group": "control_change"}, {"time": 1384, "annotation": {"number": 64, "value": 127}, "group": "control_change"}, {"time": 1407, "annotation": {"number": 64, "value": 0}, "group": "control_change"}, {"time": 1408, "annotation": {"number": 64, "value": 127}, "group": "control_change"}, {"time": 1431, "annotation": {"number": 64, "value": 0}, "group": "control_change"}, {"time": 1432, "annotation": {"number": 64, "value": 127}, "group": "control_change"}, {"time": 1453, "annotation": {"number": 64, "value": 0}, "group": "control_change"}, {"time": 1478, "annotation": {"number": 64, "value": 0}, "group": "control_change"}, {"time": 1481, "annotation": {"number": 64, "value": 127}, "group": "control_change"}, {"time": 1504, "annotation": {"number": 64, "value": 0}, "group": "control_change"}, {"time": 1510, "annotation": {"number": 64, "value": 127}, "group": "control_change"}, {"time": 1527, "annotation": {"number": 64, "value": 0}, "group": "control_change"}, {"time": 1533, "annotation": {"number": 64, "value": 127}, "group": "control_change"}, {"time": 1550, "annotation": {"number": 64, "value": 0}, "group": "control_change"}, {"time": 1557, "annotation": {"number": 64, "value": 127}, "group": "control_change"}, {"time": 1574, "annotation": {"number": 64, "value": 0}, "group": "control_change"}, {"time": 1578, "annotation": {"number": 64, "value": 127}, "group": "control_change"}, {"time": 1599, "annotation": {"number": 64, "value": 0}, "group": "control_change"}, {"time": 1602, "annotation": {"number": 64, "value": 127}, "group": "control_change"}, {"time": 1625, "annotation": {"number": 64, "value": 0}, "group": "control_change"}, {"time": 1630, "annotation": {"number": 64, "value": 127}, "group": "control_change"}, {"time": 1647, "annotation": {"number": 64, "value": 0}, "group": "control_change"}, {"time": 1650, "annotation": {"number": 64, "value": 127}, "group": "control_change"}, {"time": 1672, "annotation": {"number": 64, "value": 0}, "group": "control_change"}, {"time": 1674, "annotation": {"number": 64, "value": 127}, "group": "control_change"}, {"time": 1695, "annotation": {"number": 64, "value": 0}, "group": "control_change"}, {"time": 1697, "annotation": {"number": 64, "value": 127}, "group": "control_change"}, {"time": 1718, "annotation": {"number": 64, "value": 0}, "group": "control_change"}, {"time": 1721, "annotation": {"number": 64, "value": 127}, "group": "control_change"}, {"time": 1743, "annotation": {"number": 64, "value": 0}, "group": "control_change"}, {"time": 1746, "annotation": {"number": 64, "value": 127}, "group": "control_change"}, {"time": 1767, "annotation": {"number": 64, "value": 0}, "group": "control_change"}, {"time": 1770, "annotation": {"number": 64, "value": 127}, "group": "control_change"}, {"time": 1791, "annotation": {"number": 64, "value": 0}, "group": "control_change"}, {"time": 1792, "annotation": {"number": 64, "value": 127}, "group": "control_change"}, {"time": 1803, "annotation": {"number": 64, "value": 0}, "group": "control_change"}, {"time": 1806, "annotation": {"number": 64, "value": 127}, "group": "control_change"}, {"time": 1815, "annotation": {"number": 64, "value": 0}, "group": "control_change"}, {"time": 1818, "annotation": {"number": 64, "value": 127}, "group": "control_change"}, {"time": 1839, "annotation": {"number": 64, "value": 0}, "group": "control_change"}, {"time": 1840, "annotation": {"number": 64, "value": 127}, "group": "control_change"}, {"time": 1864, "annotation": {"number": 64, "value": 0}, "group": "control_change"}, {"time": 1866, "annotation": {"number": 64, "value": 127}, "group": "control_change"}, {"time": 1887, "annotation": {"number": 64, "value": 0}, "group": "control_change"}, {"time": 1888, "annotation": {"number": 64, "value": 127}, "group": "control_change"}, {"time": 1911, "annotation": {"number": 64, "value": 0}, "group": "control_change"}, {"time": 1913, "annotation": {"number": 64, "value": 127}, "group": "control_change"}, {"time": 1935, "annotation": {"number": 64, "value": 0}, "group": "control_change"}, {"time": 1938, "annotation": {"number": 64, "value": 127}, "group": "control_change"}, {"time": 1959, "annotation": {"number": 64, "value": 0}, "group": "control_change"}, {"time": 1961, "annotation": {"number": 64, "value": 127}, "group": "control_change"}, {"time": 1983, "annotation": {"number": 64, "value": 0}, "group": "control_change"}, {"time": 1986, "annotation": {"number": 64, "value": 127}, "group": "control_change"}, {"time": 2008, "annotation": {"number": 64, "value": 0}, "group": "control_change"}, {"time": 2011, "annotation": {"number": 64, "value": 127}, "group": "control_change"}, {"time": 2031, "annotation": {"number": 64, "value": 0}, "group": "control_change"}, {"time": 2033, "annotation": {"number": 64, "value": 127}, "group": "control_change"}, {"time": 2055, "annotation": {"number": 64, "value": 0}, "group": "control_change"}, {"time": 2058, "annotation": {"number": 64, "value": 127}, "group": "control_change"}, {"time": 2079, "annotation": {"number": 64, "value": 0}, "group": "control_change"}, {"time": 2081, "annotation": {"number": 64, "value": 127}, "group": "control_change"}, {"time": 2104, "annotation": {"number": 64, "value": 0}, "group": "control_change"}, {"time": 2105, "annotation": {"number": 64, "value": 127}, "group": "control_change"}, {"time": 2128, "annotation": {"number": 64, "value": 0}, "group": "control_change"}, {"time": 2130, "annotation": {"number": 64, "value": 127}, "group": "control_change"}, {"time": 2150, "annotation": {"number": 64, "value": 0}, "group": "control_change"}, {"time": 2153, "annotation": {"number": 64, "value": 127}, "group": "control_change"}, {"time": 2175, "annotation": {"number": 64, "value": 0}, "group": "control_change"}, {"time": 2178, "annotation": {"number": 64, "value": 127}, "group": "control_change"}, {"time": 2199, "annotation": {"number": 64, "value": 0}, "group": "control_change"}, {"time": 2200, "annotation": {"number": 64, "value": 127}, "group": "control_change"}, {"time": 2210, "annotation": {"number": 64, "value": 0}, "group": "control_change"}, {"time": 2213, "annotation": {"number": 64, "value": 127}, "group": "control_change"}, {"time": 2222, "annotation": {"number": 64, "value": 0}, "group": "control_change"}, {"time": 2225, "annotation": {"number": 64, "value": 127}, "group": "control_change"}, {"time": 2253, "annotation": {"number": 64, "value": 0}, "group": "control_change"}, {"time": 2261, "annotation": {"number": 64, "value": 127}, "group": "control_change"}, {"time": 2271, "annotation": {"number": 64, "value": 0}, "group": "control_change"}, {"time": 2274, "annotation": {"number": 64, "value": 127}, "group": "control_change"}, {"time": 2295, "annotation": {"number": 64, "value": 0}, "group": "control_change"}, {"time": 2296, "annotation": {"number": 64, "value": 127}, "group": "control_change"}, {"time": 2319, "annotation": {"number": 64, "value": 0}, "group": "control_change"}, {"time": 2321, "annotation": {"number": 64, "value": 127}, "group": "control_change"}, {"time": 2343, "annotation": {"number": 64, "value": 0}, "group": "control_change"}, {"time": 2346, "annotation": {"number": 64, "value": 127}, "group": "control_change"}, {"time": 2367, "annotation": {"number": 64, "value": 0}, "group": "control_change"}, {"time": 2369, "annotation": {"number": 64, "value": 127}, "group": "control_change"}, {"time": 2391, "annotation": {"number": 64, "value": 0}, "group": "control_change"}, {"time": 2394, "annotation": {"number": 64, "value": 127}, "group": "control_change"}, {"time": 2416, "annotation": {"number": 64, "value": 0}, "group": "control_change"}, {"time": 2419, "annotation": {"number": 64, "value": 127}, "group": "control_change"}, {"time": 2439, "annotation": {"number": 64, "value": 0}, "group": "control_change"}, {"time": 2441, "annotation": {"number": 64, "value": 127}, "group": "control_change"}, {"time": 2463, "annotation": {"number": 64, "value": 0}, "group": "control_change"}, {"time": 2466, "annotation": {"number": 64, "value": 127}, "group": "control_change"}, {"time": 2487, "annotation": {"number": 64, "value": 0}, "group": "control_change"}, {"time": 2489, "annotation": {"number": 64, "value": 127}, "group": "control_change"}, {"time": 2512, "annotation": {"number": 64, "value": 0}, "group": "control_change"}, {"time": 2513, "annotation": {"number": 64, "value": 127}, "group": "control_change"}, {"time": 2536, "annotation": {"number": 64, "value": 0}, "group": "control_change"}, {"time": 2538, "annotation": {"number": 64, "value": 127}, "group": "control_change"}, {"time": 2558, "annotation": {"number": 64, "value": 0}, "group": "control_change"}, {"time": 2561, "annotation": {"number": 64, "value": 127}, "group": "control_change"}, {"time": 2583, "annotation": {"number": 64, "value": 0}, "group": "control_change"}, {"time": 2586, "annotation": {"number": 64, "value": 127}, "group": "control_change"}, {"time": 2607, "annotation": {"number": 64, "value": 0}, "group": "control_change"}, {"time": 2608, "annotation": {"number": 64, "value": 127}, "group": "control_change"}, {"time": 2630, "annotation": {"number": 64, "value": 0}, "group": "control_change"}, {"time": 2633, "annotation": {"number": 64, "value": 127}, "group": "control_change"}, {"time": 2656, "annotation": {"number": 64, "value": 0}, "group": "control_change"}, {"time": 2658, "annotation": {"number": 64, "value": 127}, "group": "control_change"}, {"time": 2679, "annotation": {"number": 64, "value": 127}, "group": "control_change"}, {"time": 2703, "annotation": {"number": 64, "value": 0}, "group": "control_change"}, {"time": 2705, "annotation": {"number": 64, "value": 127}, "group": "control_change"}, {"time": 2727, "annotation": {"number": 64, "value": 0}, "group": "control_change"}, {"time": 2731, "annotation": {"number": 64, "value": 127}, "group": "control_change"}, {"time": 2751, "annotation": {"number": 64, "value": 0}, "group": "control_change"}, {"time": 2755, "annotation": {"number": 64, "value": 127}, "group": "control_change"}, {"time": 2830, "annotation": {"number": 64, "value": 0}, "group": "control_change"}, {"time": 2832, "annotation": {"number": 64, "value": 127}, "group": "control_change"}, {"time": 2890, "annotation": {"number": 64, "value": 0}, "group": "control_change"}]}]}