{"metadata": {"schema_version": "0.2", "title": "None", "source_filename": "524.mid", "source_format": "midi"}, "resolution": 12, "tempos": [{"time": 0, "qpm": 114.0001710002565}, {"time": 791, "qpm": 114.50010209592436}, {"time": 809, "qpm": 114.60026472661151}, {"time": 831, "qpm": 115.00002875000719}, {"time": 912, "qpm": 114.0001710002565}, {"time": 2136, "qpm": 114.2000098973342}, {"time": 2362, "qpm": 114.30008343906091}, {"time": 2544, "qpm": 114.0001710002565}], "time_signatures": [{"time": 0, "numerator": 1, "denominator": 4}], "tracks": [{"program": 0, "is_drum": false, "name": "MELODY", "notes": [{"time": 465, "pitch": 68, "duration": 5, "velocity": 92}, {"time": 471, "pitch": 66, "duration": 6, "velocity": 90}, {"time": 477, "pitch": 65, "duration": 9, "velocity": 96}, {"time": 489, "pitch": 63, "duration": 5, "velocity": 90}, {"time": 495, "pitch": 61, "duration": 15, "velocity": 93}, {"time": 513, "pitch": 70, "duration": 4, "velocity": 91}, {"time": 519, "pitch": 68, "duration": 23, "velocity": 91}, {"time": 543, "pitch": 61, "duration": 5, "velocity": 92}, {"time": 549, "pitch": 63, "duration": 6, "velocity": 90}, {"time": 555, "pitch": 61, "duration": 5, "velocity": 91}, {"time": 561, "pitch": 60, "duration": 5, "velocity": 89}, {"time": 567, "pitch": 61, "duration": 4, "velocity": 93}, {"time": 573, "pitch": 63, "duration": 9, "velocity": 88}, {"time": 585, "pitch": 63, "duration": 4, "velocity": 88}, {"time": 591, "pitch": 63, "duration": 3, "velocity": 87}, {"time": 597, "pitch": 63, "duration": 4, "velocity": 88}, {"time": 603, "pitch": 66, "duration": 9, "velocity": 89}, {"time": 615, "pitch": 65, "duration": 21, "velocity": 93}, {"time": 639, "pitch": 65, "duration": 3, "velocity": 89}, {"time": 645, "pitch": 65, "duration": 6, "velocity": 94}, {"time": 651, "pitch": 70, "duration": 8, "velocity": 89}, {"time": 663, "pitch": 70, "duration": 10, "velocity": 90}, {"time": 675, "pitch": 68, "duration": 4, "velocity": 85}, {"time": 681, "pitch": 70, "duration": 5, "velocity": 90}, {"time": 687, "pitch": 66, "duration": 4, "velocity": 91}, {"time": 693, "pitch": 66, "duration": 12, "velocity": 90}, {"time": 705, "pitch": 68, "duration": 5, "velocity": 91}, {"time": 711, "pitch": 65, "duration": 13, "velocity": 95}, {"time": 723, "pitch": 68, "duration": 6, "velocity": 89}, {"time": 729, "pitch": 63, "duration": 7, "velocity": 90}, {"time": 735, "pitch": 61, "duration": 12, "velocity": 91}, {"time": 753, "pitch": 56, "duration": 4, "velocity": 91}, {"time": 759, "pitch": 56, "duration": 5, "velocity": 90}, {"time": 765, "pitch": 65, "duration": 9, "velocity": 91}, {"time": 777, "pitch": 61, "duration": 3, "velocity": 91}, {"time": 783, "pitch": 61, "duration": 4, "velocity": 90}, {"time": 789, "pitch": 61, "duration": 5, "velocity": 90}, {"time": 795, "pitch": 58, "duration": 6, "velocity": 90}, {"time": 813, "pitch": 70, "duration": 10, "velocity": 89}, {"time": 825, "pitch": 68, "duration": 5, "velocity": 83}, {"time": 831, "pitch": 65, "duration": 7, "velocity": 95}, {"time": 837, "pitch": 63, "duration": 25, "velocity": 89}, {"time": 897, "pitch": 68, "duration": 5, "velocity": 92}, {"time": 903, "pitch": 66, "duration": 6, "velocity": 90}, {"time": 909, "pitch": 65, "duration": 9, "velocity": 96}, {"time": 921, "pitch": 65, "duration": 5, "velocity": 90}, {"time": 927, "pitch": 65, "duration": 10, "velocity": 93}, {"time": 939, "pitch": 63, "duration": 5, "velocity": 89}, {"time": 945, "pitch": 61, "duration": 6, "velocity": 90}, {"time": 951, "pitch": 63, "duration": 13, "velocity": 91}, {"time": 963, "pitch": 68, "duration": 14, "velocity": 86}, {"time": 993, "pitch": 65, "duration": 5, "velocity": 96}, {"time": 999, "pitch": 68, "duration": 4, "velocity": 91}, {"time": 1005, "pitch": 70, "duration": 12, "velocity": 92}, {"time": 1017, "pitch": 65, "duration": 3, "velocity": 94}, {"time": 1023, "pitch": 65, "duration": 3, "velocity": 91}, {"time": 1029, "pitch": 65, "duration": 5, "velocity": 93}, {"time": 1035, "pitch": 63, "duration": 10, "velocity": 93}, {"time": 1047, "pitch": 65, "duration": 23, "velocity": 91}, {"time": 1089, "pitch": 65, "duration": 4, "velocity": 93}, {"time": 1095, "pitch": 68, "duration": 5, "velocity": 90}, {"time": 1101, "pitch": 70, "duration": 11, "velocity": 90}, {"time": 1113, "pitch": 68, "duration": 3, "velocity": 92}, {"time": 1119, "pitch": 70, "duration": 14, "velocity": 92}, {"time": 1137, "pitch": 70, "duration": 4, "velocity": 91}, {"time": 1143, "pitch": 73, "duration": 3, "velocity": 90}, {"time": 1149, "pitch": 68, "duration": 10, "velocity": 90}, {"time": 1161, "pitch": 68, "duration": 5, "velocity": 91}, {"time": 1167, "pitch": 70, "duration": 11, "velocity": 90}, {"time": 1179, "pitch": 65, "duration": 14, "velocity": 94}, {"time": 1197, "pitch": 66, "duration": 6, "velocity": 87}, {"time": 1203, "pitch": 65, "duration": 6, "velocity": 83}, {"time": 1209, "pitch": 63, "duration": 4, "velocity": 90}, {"time": 1215, "pitch": 63, "duration": 15, "velocity": 90}, {"time": 1233, "pitch": 70, "duration": 4, "velocity": 89}, {"time": 1239, "pitch": 70, "duration": 9, "velocity": 93}, {"time": 1251, "pitch": 68, "duration": 46, "velocity": 89}, {"time": 1311, "pitch": 68, "duration": 4, "velocity": 89}, {"time": 1317, "pitch": 68, "duration": 4, "velocity": 90}, {"time": 1323, "pitch": 70, "duration": 10, "velocity": 96}, {"time": 1335, "pitch": 68, "duration": 5, "velocity": 95}, {"time": 1341, "pitch": 77, "duration": 4, "velocity": 96}, {"time": 1347, "pitch": 77, "duration": 3, "velocity": 93}, {"time": 1353, "pitch": 77, "duration": 3, "velocity": 93}, {"time": 1359, "pitch": 77, "duration": 6, "velocity": 96}, {"time": 1365, "pitch": 77, "duration": 10, "velocity": 96}, {"time": 1377, "pitch": 75, "duration": 5, "velocity": 100}, {"time": 1383, "pitch": 73, "duration": 4, "velocity": 91}, {"time": 1389, "pitch": 75, "duration": 15, "velocity": 96}, {"time": 1407, "pitch": 68, "duration": 4, "velocity": 89}, {"time": 1413, "pitch": 75, "duration": 8, "velocity": 95}, {"time": 1425, "pitch": 75, "duration": 3, "velocity": 96}, {"time": 1431, "pitch": 77, "duration": 5, "velocity": 89}, {"time": 1437, "pitch": 75, "duration": 4, "velocity": 94}, {"time": 1443, "pitch": 73, "duration": 3, "velocity": 88}, {"time": 1449, "pitch": 73, "duration": 3, "velocity": 91}, {"time": 1455, "pitch": 73, "duration": 4, "velocity": 91}, {"time": 1461, "pitch": 72, "duration": 10, "velocity": 93}, {"time": 1473, "pitch": 73, "duration": 4, "velocity": 90}, {"time": 1479, "pitch": 65, "duration": 4, "velocity": 96}, {"time": 1485, "pitch": 68, "duration": 13, "velocity": 88}, {"time": 1503, "pitch": 68, "duration": 4, "velocity": 90}, {"time": 1509, "pitch": 70, "duration": 5, "velocity": 93}, {"time": 1515, "pitch": 68, "duration": 4, "velocity": 89}, {"time": 1521, "pitch": 70, "duration": 4, "velocity": 91}, {"time": 1527, "pitch": 73, "duration": 18, "velocity": 92}, {"time": 1551, "pitch": 73, "duration": 3, "velocity": 100}, {"time": 1557, "pitch": 73, "duration": 9, "velocity": 93}, {"time": 1569, "pitch": 70, "duration": 5, "velocity": 91}, {"time": 1575, "pitch": 65, "duration": 15, "velocity": 93}, {"time": 1596, "pitch": 68, "duration": 4, "velocity": 89}, {"time": 1605, "pitch": 68, "duration": 10, "velocity": 92}, {"time": 1617, "pitch": 70, "duration": 4, "velocity": 95}, {"time": 1623, "pitch": 68, "duration": 4, "velocity": 95}, {"time": 1629, "pitch": 77, "duration": 8, "velocity": 94}, {"time": 1641, "pitch": 73, "duration": 4, "velocity": 93}, {"time": 1647, "pitch": 73, "duration": 6, "velocity": 95}, {"time": 1653, "pitch": 73, "duration": 9, "velocity": 95}, {"time": 1665, "pitch": 77, "duration": 4, "velocity": 92}, {"time": 1671, "pitch": 75, "duration": 19, "velocity": 93}, {"time": 1695, "pitch": 68, "duration": 3, "velocity": 100}, {"time": 1701, "pitch": 73, "duration": 4, "velocity": 89}, {"time": 1707, "pitch": 75, "duration": 3, "velocity": 105}, {"time": 1713, "pitch": 75, "duration": 4, "velocity": 90}, {"time": 1719, "pitch": 73, "duration": 4, "velocity": 91}, {"time": 1725, "pitch": 77, "duration": 4, "velocity": 90}, {"time": 1731, "pitch": 77, "duration": 3, "velocity": 89}, {"time": 1737, "pitch": 77, "duration": 4, "velocity": 91}, {"time": 1743, "pitch": 77, "duration": 4, "velocity": 91}, {"time": 1749, "pitch": 77, "duration": 5, "velocity": 92}, {"time": 1758, "pitch": 75, "duration": 4, "velocity": 94}, {"time": 1767, "pitch": 73, "duration": 6, "velocity": 89}, {"time": 1773, "pitch": 75, "duration": 15, "velocity": 98}, {"time": 1791, "pitch": 68, "duration": 5, "velocity": 90}, {"time": 1797, "pitch": 75, "duration": 9, "velocity": 100}, {"time": 1809, "pitch": 75, "duration": 4, "velocity": 93}, {"time": 1815, "pitch": 77, "duration": 4, "velocity": 89}, {"time": 1821, "pitch": 75, "duration": 4, "velocity": 93}, {"time": 1827, "pitch": 73, "duration": 3, "velocity": 89}, {"time": 1833, "pitch": 73, "duration": 4, "velocity": 91}, {"time": 1839, "pitch": 70, "duration": 5, "velocity": 90}, {"time": 1845, "pitch": 73, "duration": 8, "velocity": 98}, {"time": 1857, "pitch": 65, "duration": 5, "velocity": 93}, {"time": 1863, "pitch": 68, "duration": 21, "velocity": 91}, {"time": 1887, "pitch": 68, "duration": 4, "velocity": 93}, {"time": 1893, "pitch": 70, "duration": 6, "velocity": 93}, {"time": 1899, "pitch": 68, "duration": 4, "velocity": 89}, {"time": 1905, "pitch": 70, "duration": 4, "velocity": 93}, {"time": 1911, "pitch": 73, "duration": 21, "velocity": 91}, {"time": 1935, "pitch": 73, "duration": 3, "velocity": 92}, {"time": 1941, "pitch": 73, "duration": 9, "velocity": 93}, {"time": 1953, "pitch": 70, "duration": 4, "velocity": 89}, {"time": 1959, "pitch": 68, "duration": 19, "velocity": 87}, {"time": 1983, "pitch": 68, "duration": 4, "velocity": 91}, {"time": 1989, "pitch": 70, "duration": 4, "velocity": 93}, {"time": 1995, "pitch": 68, "duration": 5, "velocity": 91}, {"time": 2001, "pitch": 70, "duration": 4, "velocity": 96}, {"time": 2007, "pitch": 77, "duration": 9, "velocity": 96}, {"time": 2019, "pitch": 73, "duration": 4, "velocity": 89}, {"time": 2025, "pitch": 73, "duration": 4, "velocity": 90}, {"time": 2031, "pitch": 70, "duration": 5, "velocity": 93}, {"time": 2037, "pitch": 73, "duration": 5, "velocity": 96}, {"time": 2043, "pitch": 77, "duration": 9, "velocity": 96}, {"time": 2055, "pitch": 75, "duration": 48, "velocity": 92}, {"time": 2127, "pitch": 68, "duration": 5, "velocity": 93}, {"time": 2133, "pitch": 75, "duration": 7, "velocity": 95}, {"time": 2139, "pitch": 73, "duration": 5, "velocity": 92}, {"time": 2145, "pitch": 72, "duration": 6, "velocity": 90}, {"time": 2151, "pitch": 75, "duration": 17, "velocity": 95}, {"time": 2169, "pitch": 73, "duration": 46, "velocity": 91}, {"time": 2529, "pitch": 68, "duration": 5, "velocity": 92}, {"time": 2535, "pitch": 66, "duration": 6, "velocity": 90}, {"time": 2541, "pitch": 65, "duration": 9, "velocity": 96}, {"time": 2553, "pitch": 65, "duration": 5, "velocity": 90}, {"time": 2559, "pitch": 65, "duration": 10, "velocity": 93}, {"time": 2571, "pitch": 63, "duration": 5, "velocity": 89}, {"time": 2577, "pitch": 61, "duration": 6, "velocity": 90}, {"time": 2583, "pitch": 63, "duration": 13, "velocity": 91}, {"time": 2595, "pitch": 68, "duration": 14, "velocity": 86}, {"time": 2625, "pitch": 65, "duration": 5, "velocity": 96}, {"time": 2631, "pitch": 68, "duration": 4, "velocity": 91}, {"time": 2637, "pitch": 70, "duration": 12, "velocity": 92}, {"time": 2649, "pitch": 65, "duration": 3, "velocity": 94}, {"time": 2655, "pitch": 65, "duration": 3, "velocity": 91}, {"time": 2661, "pitch": 65, "duration": 5, "velocity": 93}, {"time": 2667, "pitch": 63, "duration": 10, "velocity": 93}, {"time": 2679, "pitch": 65, "duration": 23, "velocity": 91}, {"time": 2721, "pitch": 65, "duration": 4, "velocity": 93}, {"time": 2727, "pitch": 68, "duration": 5, "velocity": 90}, {"time": 2733, "pitch": 70, "duration": 11, "velocity": 90}, {"time": 2745, "pitch": 68, "duration": 3, "velocity": 92}, {"time": 2751, "pitch": 70, "duration": 14, "velocity": 92}, {"time": 2769, "pitch": 70, "duration": 4, "velocity": 91}, {"time": 2775, "pitch": 73, "duration": 3, "velocity": 90}, {"time": 2781, "pitch": 68, "duration": 10, "velocity": 90}, {"time": 2793, "pitch": 68, "duration": 5, "velocity": 91}, {"time": 2799, "pitch": 70, "duration": 11, "velocity": 90}, {"time": 2811, "pitch": 65, "duration": 14, "velocity": 94}, {"time": 2829, "pitch": 66, "duration": 6, "velocity": 87}, {"time": 2835, "pitch": 65, "duration": 6, "velocity": 83}, {"time": 2841, "pitch": 63, "duration": 4, "velocity": 90}, {"time": 2847, "pitch": 63, "duration": 15, "velocity": 90}, {"time": 2865, "pitch": 70, "duration": 4, "velocity": 89}, {"time": 2871, "pitch": 70, "duration": 9, "velocity": 93}, {"time": 2883, "pitch": 68, "duration": 46, "velocity": 89}, {"time": 2943, "pitch": 68, "duration": 4, "velocity": 89}, {"time": 2949, "pitch": 68, "duration": 4, "velocity": 90}, {"time": 2955, "pitch": 70, "duration": 10, "velocity": 96}, {"time": 2967, "pitch": 68, "duration": 5, "velocity": 95}, {"time": 2973, "pitch": 77, "duration": 4, "velocity": 96}, {"time": 2979, "pitch": 77, "duration": 3, "velocity": 93}, {"time": 2985, "pitch": 77, "duration": 3, "velocity": 93}, {"time": 2991, "pitch": 77, "duration": 6, "velocity": 96}, {"time": 2997, "pitch": 77, "duration": 10, "velocity": 96}, {"time": 3009, "pitch": 75, "duration": 5, "velocity": 100}, {"time": 3015, "pitch": 73, "duration": 4, "velocity": 91}, {"time": 3021, "pitch": 75, "duration": 15, "velocity": 96}, {"time": 3039, "pitch": 68, "duration": 4, "velocity": 89}, {"time": 3045, "pitch": 75, "duration": 8, "velocity": 95}, {"time": 3057, "pitch": 75, "duration": 3, "velocity": 96}, {"time": 3063, "pitch": 77, "duration": 5, "velocity": 89}, {"time": 3069, "pitch": 75, "duration": 4, "velocity": 94}, {"time": 3075, "pitch": 73, "duration": 3, "velocity": 88}, {"time": 3081, "pitch": 73, "duration": 3, "velocity": 91}, {"time": 3087, "pitch": 73, "duration": 4, "velocity": 91}, {"time": 3093, "pitch": 72, "duration": 10, "velocity": 93}, {"time": 3105, "pitch": 73, "duration": 4, "velocity": 90}, {"time": 3111, "pitch": 65, "duration": 4, "velocity": 96}, {"time": 3117, "pitch": 68, "duration": 13, "velocity": 88}, {"time": 3135, "pitch": 68, "duration": 4, "velocity": 90}, {"time": 3141, "pitch": 70, "duration": 5, "velocity": 93}, {"time": 3147, "pitch": 68, "duration": 4, "velocity": 89}, {"time": 3153, "pitch": 70, "duration": 4, "velocity": 91}, {"time": 3159, "pitch": 73, "duration": 18, "velocity": 92}, {"time": 3183, "pitch": 73, "duration": 3, "velocity": 100}, {"time": 3189, "pitch": 73, "duration": 9, "velocity": 93}, {"time": 3201, "pitch": 70, "duration": 5, "velocity": 91}, {"time": 3207, "pitch": 65, "duration": 15, "velocity": 93}, {"time": 3228, "pitch": 68, "duration": 4, "velocity": 89}, {"time": 3237, "pitch": 68, "duration": 10, "velocity": 92}, {"time": 3249, "pitch": 70, "duration": 4, "velocity": 95}, {"time": 3255, "pitch": 68, "duration": 4, "velocity": 95}, {"time": 3261, "pitch": 77, "duration": 8, "velocity": 94}, {"time": 3273, "pitch": 73, "duration": 4, "velocity": 93}, {"time": 3279, "pitch": 73, "duration": 6, "velocity": 95}, {"time": 3285, "pitch": 73, "duration": 9, "velocity": 95}, {"time": 3297, "pitch": 77, "duration": 4, "velocity": 92}, {"time": 3303, "pitch": 75, "duration": 19, "velocity": 93}, {"time": 3327, "pitch": 68, "duration": 3, "velocity": 100}, {"time": 3333, "pitch": 73, "duration": 4, "velocity": 89}, {"time": 3339, "pitch": 75, "duration": 3, "velocity": 105}, {"time": 3345, "pitch": 75, "duration": 4, "velocity": 90}, {"time": 3351, "pitch": 73, "duration": 4, "velocity": 91}, {"time": 3357, "pitch": 77, "duration": 4, "velocity": 90}, {"time": 3363, "pitch": 77, "duration": 3, "velocity": 89}, {"time": 3369, "pitch": 77, "duration": 4, "velocity": 91}, {"time": 3375, "pitch": 77, "duration": 4, "velocity": 91}, {"time": 3381, "pitch": 77, "duration": 5, "velocity": 92}, {"time": 3390, "pitch": 75, "duration": 4, "velocity": 94}, {"time": 3399, "pitch": 73, "duration": 6, "velocity": 89}, {"time": 3405, "pitch": 75, "duration": 15, "velocity": 98}, {"time": 3423, "pitch": 68, "duration": 5, "velocity": 90}, {"time": 3429, "pitch": 75, "duration": 9, "velocity": 100}, {"time": 3441, "pitch": 75, "duration": 4, "velocity": 93}, {"time": 3447, "pitch": 77, "duration": 4, "velocity": 89}, {"time": 3453, "pitch": 75, "duration": 4, "velocity": 93}, {"time": 3459, "pitch": 73, "duration": 3, "velocity": 89}, {"time": 3465, "pitch": 73, "duration": 4, "velocity": 91}, {"time": 3471, "pitch": 70, "duration": 5, "velocity": 90}, {"time": 3477, "pitch": 73, "duration": 8, "velocity": 98}, {"time": 3489, "pitch": 65, "duration": 5, "velocity": 93}, {"time": 3495, "pitch": 68, "duration": 21, "velocity": 91}, {"time": 3519, "pitch": 68, "duration": 4, "velocity": 93}, {"time": 3525, "pitch": 70, "duration": 6, "velocity": 93}, {"time": 3531, "pitch": 68, "duration": 4, "velocity": 89}, {"time": 3537, "pitch": 70, "duration": 4, "velocity": 93}, {"time": 3543, "pitch": 73, "duration": 21, "velocity": 91}, {"time": 3567, "pitch": 73, "duration": 3, "velocity": 92}, {"time": 3573, "pitch": 73, "duration": 9, "velocity": 93}, {"time": 3585, "pitch": 70, "duration": 4, "velocity": 89}, {"time": 3591, "pitch": 68, "duration": 19, "velocity": 87}, {"time": 3615, "pitch": 68, "duration": 4, "velocity": 91}, {"time": 3621, "pitch": 70, "duration": 4, "velocity": 93}, {"time": 3627, "pitch": 68, "duration": 5, "velocity": 91}, {"time": 3633, "pitch": 70, "duration": 4, "velocity": 96}, {"time": 3639, "pitch": 77, "duration": 9, "velocity": 96}, {"time": 3651, "pitch": 73, "duration": 4, "velocity": 89}, {"time": 3657, "pitch": 73, "duration": 4, "velocity": 90}, {"time": 3663, "pitch": 70, "duration": 5, "velocity": 93}, {"time": 3669, "pitch": 73, "duration": 5, "velocity": 96}, {"time": 3675, "pitch": 77, "duration": 9, "velocity": 96}, {"time": 3687, "pitch": 75, "duration": 18, "velocity": 92}, {"time": 3711, "pitch": 68, "duration": 4, "velocity": 89}, {"time": 3717, "pitch": 68, "duration": 4, "velocity": 90}, {"time": 3723, "pitch": 70, "duration": 10, "velocity": 96}, {"time": 3735, "pitch": 68, "duration": 5, "velocity": 95}, {"time": 3741, "pitch": 77, "duration": 4, "velocity": 96}, {"time": 3747, "pitch": 77, "duration": 3, "velocity": 93}, {"time": 3753, "pitch": 77, "duration": 3, "velocity": 93}, {"time": 3759, "pitch": 77, "duration": 6, "velocity": 96}, {"time": 3765, "pitch": 77, "duration": 10, "velocity": 96}, {"time": 3777, "pitch": 75, "duration": 5, "velocity": 100}, {"time": 3783, "pitch": 73, "duration": 4, "velocity": 91}, {"time": 3789, "pitch": 75, "duration": 15, "velocity": 96}, {"time": 3819, "pitch": 68, "duration": 4, "velocity": 89}, {"time": 3825, "pitch": 77, "duration": 3, "velocity": 96}, {"time": 3831, "pitch": 75, "duration": 5, "velocity": 89}, {"time": 3837, "pitch": 75, "duration": 4, "velocity": 94}, {"time": 3843, "pitch": 73, "duration": 3, "velocity": 88}, {"time": 3849, "pitch": 73, "duration": 3, "velocity": 91}, {"time": 3855, "pitch": 73, "duration": 4, "velocity": 91}, {"time": 3861, "pitch": 75, "duration": 10, "velocity": 93}, {"time": 3873, "pitch": 73, "duration": 4, "velocity": 90}, {"time": 3879, "pitch": 65, "duration": 4, "velocity": 96}, {"time": 3885, "pitch": 68, "duration": 13, "velocity": 88}, {"time": 3915, "pitch": 68, "duration": 4, "velocity": 89}, {"time": 3921, "pitch": 70, "duration": 4, "velocity": 91}, {"time": 3927, "pitch": 73, "duration": 18, "velocity": 92}, {"time": 3951, "pitch": 73, "duration": 3, "velocity": 100}, {"time": 3957, "pitch": 73, "duration": 9, "velocity": 93}, {"time": 3969, "pitch": 70, "duration": 5, "velocity": 91}, {"time": 3975, "pitch": 65, "duration": 15, "velocity": 93}, {"time": 3999, "pitch": 68, "duration": 4, "velocity": 89}, {"time": 4005, "pitch": 68, "duration": 10, "velocity": 92}, {"time": 4017, "pitch": 70, "duration": 4, "velocity": 95}, {"time": 4023, "pitch": 68, "duration": 4, "velocity": 95}, {"time": 4029, "pitch": 77, "duration": 8, "velocity": 94}, {"time": 4041, "pitch": 73, "duration": 4, "velocity": 93}, {"time": 4047, "pitch": 73, "duration": 6, "velocity": 95}, {"time": 4053, "pitch": 73, "duration": 9, "velocity": 95}, {"time": 4065, "pitch": 77, "duration": 4, "velocity": 92}, {"time": 4071, "pitch": 75, "duration": 19, "velocity": 93}, {"time": 4095, "pitch": 68, "duration": 3, "velocity": 100}, {"time": 4101, "pitch": 73, "duration": 4, "velocity": 89}, {"time": 4107, "pitch": 75, "duration": 3, "velocity": 105}, {"time": 4113, "pitch": 75, "duration": 4, "velocity": 90}, {"time": 4119, "pitch": 73, "duration": 4, "velocity": 91}, {"time": 4125, "pitch": 77, "duration": 4, "velocity": 90}, {"time": 4131, "pitch": 77, "duration": 3, "velocity": 89}, {"time": 4137, "pitch": 77, "duration": 4, "velocity": 91}, {"time": 4143, "pitch": 77, "duration": 4, "velocity": 91}, {"time": 4149, "pitch": 77, "duration": 5, "velocity": 92}, {"time": 4158, "pitch": 75, "duration": 4, "velocity": 94}, {"time": 4167, "pitch": 73, "duration": 6, "velocity": 89}, {"time": 4173, "pitch": 75, "duration": 15, "velocity": 98}, {"time": 4191, "pitch": 68, "duration": 5, "velocity": 90}, {"time": 4203, "pitch": 77, "duration": 6, "velocity": 100}, {"time": 4209, "pitch": 77, "duration": 4, "velocity": 93}, {"time": 4215, "pitch": 75, "duration": 4, "velocity": 89}, {"time": 4221, "pitch": 75, "duration": 4, "velocity": 93}, {"time": 4227, "pitch": 73, "duration": 6, "velocity": 89}, {"time": 4239, "pitch": 73, "duration": 5, "velocity": 90}, {"time": 4245, "pitch": 73, "duration": 8, "velocity": 98}, {"time": 4257, "pitch": 65, "duration": 5, "velocity": 93}, {"time": 4263, "pitch": 68, "duration": 21, "velocity": 91}, {"time": 4287, "pitch": 68, "duration": 4, "velocity": 93}, {"time": 4293, "pitch": 70, "duration": 6, "velocity": 93}, {"time": 4299, "pitch": 68, "duration": 4, "velocity": 89}, {"time": 4305, "pitch": 70, "duration": 4, "velocity": 93}, {"time": 4311, "pitch": 73, "duration": 21, "velocity": 91}, {"time": 4335, "pitch": 73, "duration": 3, "velocity": 92}, {"time": 4341, "pitch": 73, "duration": 9, "velocity": 93}, {"time": 4353, "pitch": 70, "duration": 4, "velocity": 89}, {"time": 4359, "pitch": 68, "duration": 19, "velocity": 87}, {"time": 4383, "pitch": 68, "duration": 4, "velocity": 91}, {"time": 4389, "pitch": 70, "duration": 4, "velocity": 93}, {"time": 4395, "pitch": 68, "duration": 5, "velocity": 91}, {"time": 4401, "pitch": 70, "duration": 4, "velocity": 96}, {"time": 4407, "pitch": 77, "duration": 9, "velocity": 96}, {"time": 4419, "pitch": 73, "duration": 4, "velocity": 89}, {"time": 4425, "pitch": 73, "duration": 4, "velocity": 90}, {"time": 4431, "pitch": 70, "duration": 5, "velocity": 93}, {"time": 4437, "pitch": 73, "duration": 5, "velocity": 96}, {"time": 4443, "pitch": 77, "duration": 9, "velocity": 96}, {"time": 4455, "pitch": 75, "duration": 48, "velocity": 92}, {"time": 4533, "pitch": 73, "duration": 25, "velocity": 90}, {"time": 4562, "pitch": 72, "duration": 18, "velocity": 95}, {"time": 4584, "pitch": 73, "duration": 46, "velocity": 91}]}, {"program": 0, "is_drum": false, "name": "BRIDGE", "notes": [{"time": 27, "pitch": 68, "duration": 7, "velocity": 100}, {"time": 33, "pitch": 73, "duration": 7, "velocity": 90}, {"time": 39, "pitch": 75, "duration": 7, "velocity": 103}, {"time": 45, "pitch": 77, "duration": 26, "velocity": 94}, {"time": 75, "pitch": 63, "duration": 7, "velocity": 96}, {"time": 81, "pitch": 65, "duration": 5, "velocity": 96}, {"time": 87, "pitch": 75, "duration": 31, "velocity": 94}, {"time": 123, "pitch": 63, "duration": 7, "velocity": 93}, {"time": 129, "pitch": 65, "duration": 5, "velocity": 103}, {"time": 135, "pitch": 73, "duration": 33, "velocity": 98}, {"time": 183, "pitch": 73, "duration": 6, "velocity": 92}, {"time": 189, "pitch": 72, "duration": 13, "velocity": 103}, {"time": 201, "pitch": 70, "duration": 7, "velocity": 94}, {"time": 207, "pitch": 68, "duration": 27, "velocity": 96}, {"time": 231, "pitch": 77, "duration": 3, "velocity": 93}, {"time": 234, "pitch": 80, "duration": 3, "velocity": 94}, {"time": 237, "pitch": 82, "duration": 36, "velocity": 103}, {"time": 273, "pitch": 85, "duration": 10, "velocity": 103}, {"time": 285, "pitch": 80, "duration": 24, "velocity": 100}, {"time": 309, "pitch": 77, "duration": 11, "velocity": 96}, {"time": 321, "pitch": 73, "duration": 9, "velocity": 103}, {"time": 333, "pitch": 75, "duration": 18, "velocity": 105}, {"time": 351, "pitch": 77, "duration": 7, "velocity": 91}, {"time": 357, "pitch": 75, "duration": 10, "velocity": 106}, {"time": 369, "pitch": 77, "duration": 6, "velocity": 98}, {"time": 375, "pitch": 73, "duration": 6, "velocity": 92}, {"time": 381, "pitch": 75, "duration": 37, "velocity": 103}, {"time": 423, "pitch": 80, "duration": 4, "velocity": 87}, {"time": 426, "pitch": 82, "duration": 3, "velocity": 85}, {"time": 429, "pitch": 80, "duration": 36, "velocity": 91}, {"time": 909, "pitch": 73, "duration": 7, "velocity": 90}, {"time": 915, "pitch": 68, "duration": 44, "velocity": 78}, {"time": 921, "pitch": 73, "duration": 33, "velocity": 86}, {"time": 927, "pitch": 80, "duration": 35, "velocity": 89}, {"time": 963, "pitch": 72, "duration": 15, "velocity": 64}, {"time": 969, "pitch": 68, "duration": 31, "velocity": 84}, {"time": 975, "pitch": 80, "duration": 29, "velocity": 89}, {"time": 1005, "pitch": 73, "duration": 8, "velocity": 78}, {"time": 1011, "pitch": 70, "duration": 42, "velocity": 81}, {"time": 1017, "pitch": 73, "duration": 35, "velocity": 87}, {"time": 1023, "pitch": 80, "duration": 28, "velocity": 85}, {"time": 1059, "pitch": 72, "duration": 37, "velocity": 81}, {"time": 1065, "pitch": 68, "duration": 31, "velocity": 70}, {"time": 1071, "pitch": 77, "duration": 28, "velocity": 86}, {"time": 1107, "pitch": 73, "duration": 36, "velocity": 80}, {"time": 1113, "pitch": 70, "duration": 30, "velocity": 75}, {"time": 1119, "pitch": 78, "duration": 26, "velocity": 81}, {"time": 1155, "pitch": 73, "duration": 42, "velocity": 79}, {"time": 1161, "pitch": 68, "duration": 9, "velocity": 77}, {"time": 1167, "pitch": 77, "duration": 30, "velocity": 81}, {"time": 1203, "pitch": 75, "duration": 15, "velocity": 84}, {"time": 1209, "pitch": 70, "duration": 18, "velocity": 75}, {"time": 1215, "pitch": 78, "duration": 33, "velocity": 81}, {"time": 1227, "pitch": 75, "duration": 17, "velocity": 73}, {"time": 1233, "pitch": 70, "duration": 12, "velocity": 73}, {"time": 1251, "pitch": 75, "duration": 38, "velocity": 87}, {"time": 1257, "pitch": 68, "duration": 31, "velocity": 78}, {"time": 1263, "pitch": 80, "duration": 26, "velocity": 85}, {"time": 1299, "pitch": 80, "duration": 4, "velocity": 87}, {"time": 1302, "pitch": 82, "duration": 4, "velocity": 91}, {"time": 1305, "pitch": 85, "duration": 3, "velocity": 94}, {"time": 1311, "pitch": 85, "duration": 16, "velocity": 103}, {"time": 1329, "pitch": 87, "duration": 6, "velocity": 90}, {"time": 1335, "pitch": 85, "duration": 5, "velocity": 86}, {"time": 1341, "pitch": 89, "duration": 36, "velocity": 93}, {"time": 1377, "pitch": 85, "duration": 12, "velocity": 89}, {"time": 1389, "pitch": 84, "duration": 26, "velocity": 81}, {"time": 1413, "pitch": 87, "duration": 23, "velocity": 90}, {"time": 1437, "pitch": 82, "duration": 47, "velocity": 82}, {"time": 1437, "pitch": 85, "duration": 47, "velocity": 89}, {"time": 1485, "pitch": 84, "duration": 36, "velocity": 85}, {"time": 1521, "pitch": 82, "duration": 6, "velocity": 89}, {"time": 1527, "pitch": 80, "duration": 7, "velocity": 88}, {"time": 1533, "pitch": 82, "duration": 41, "velocity": 90}, {"time": 1581, "pitch": 77, "duration": 34, "velocity": 84}, {"time": 1581, "pitch": 80, "duration": 33, "velocity": 84}, {"time": 1617, "pitch": 78, "duration": 6, "velocity": 75}, {"time": 1623, "pitch": 77, "duration": 5, "velocity": 77}, {"time": 1629, "pitch": 78, "duration": 24, "velocity": 90}, {"time": 1653, "pitch": 75, "duration": 14, "velocity": 90}, {"time": 1665, "pitch": 73, "duration": 9, "velocity": 85}, {"time": 1677, "pitch": 75, "duration": 25, "velocity": 91}, {"time": 1701, "pitch": 80, "duration": 13, "velocity": 90}, {"time": 1713, "pitch": 78, "duration": 12, "velocity": 90}, {"time": 1725, "pitch": 73, "duration": 39, "velocity": 79}, {"time": 1725, "pitch": 77, "duration": 40, "velocity": 84}, {"time": 1767, "pitch": 78, "duration": 7, "velocity": 81}, {"time": 1773, "pitch": 80, "duration": 27, "velocity": 89}, {"time": 1797, "pitch": 87, "duration": 23, "velocity": 91}, {"time": 1821, "pitch": 89, "duration": 38, "velocity": 91}, {"time": 1857, "pitch": 85, "duration": 13, "velocity": 89}, {"time": 1869, "pitch": 84, "duration": 13, "velocity": 87}, {"time": 1881, "pitch": 85, "duration": 13, "velocity": 86}, {"time": 1893, "pitch": 84, "duration": 22, "velocity": 79}, {"time": 1917, "pitch": 78, "duration": 32, "velocity": 80}, {"time": 1917, "pitch": 82, "duration": 32, "velocity": 87}, {"time": 1953, "pitch": 80, "duration": 7, "velocity": 88}, {"time": 1959, "pitch": 78, "duration": 6, "velocity": 86}, {"time": 1965, "pitch": 77, "duration": 30, "velocity": 90}, {"time": 1995, "pitch": 75, "duration": 5, "velocity": 89}, {"time": 2001, "pitch": 73, "duration": 13, "velocity": 85}, {"time": 2013, "pitch": 78, "duration": 37, "velocity": 85}, {"time": 2049, "pitch": 77, "duration": 12, "velocity": 88}, {"time": 2061, "pitch": 75, "duration": 54, "velocity": 90}, {"time": 2103, "pitch": 80, "duration": 43, "velocity": 70}, {"time": 2105, "pitch": 87, "duration": 41, "velocity": 90}, {"time": 2107, "pitch": 92, "duration": 38, "velocity": 90}, {"time": 2152, "pitch": 80, "duration": 4, "velocity": 79}, {"time": 2154, "pitch": 85, "duration": 4, "velocity": 89}, {"time": 2157, "pitch": 89, "duration": 5, "velocity": 94}, {"time": 2165, "pitch": 89, "duration": 5, "velocity": 96}, {"time": 2172, "pitch": 89, "duration": 6, "velocity": 94}, {"time": 2180, "pitch": 89, "duration": 9, "velocity": 106}, {"time": 2188, "pitch": 87, "duration": 9, "velocity": 90}, {"time": 2196, "pitch": 85, "duration": 8, "velocity": 98}, {"time": 2204, "pitch": 87, "duration": 18, "velocity": 95}, {"time": 2222, "pitch": 80, "duration": 7, "velocity": 93}, {"time": 2228, "pitch": 87, "duration": 7, "velocity": 98}, {"time": 2237, "pitch": 87, "duration": 6, "velocity": 96}, {"time": 2245, "pitch": 89, "duration": 6, "velocity": 103}, {"time": 2252, "pitch": 87, "duration": 16, "velocity": 100}, {"time": 2270, "pitch": 85, "duration": 5, "velocity": 95}, {"time": 2277, "pitch": 85, "duration": 9, "velocity": 98}, {"time": 2286, "pitch": 82, "duration": 8, "velocity": 94}, {"time": 2294, "pitch": 77, "duration": 6, "velocity": 90}, {"time": 2301, "pitch": 80, "duration": 18, "velocity": 91}, {"time": 2318, "pitch": 77, "duration": 7, "velocity": 94}, {"time": 2324, "pitch": 82, "duration": 6, "velocity": 91}, {"time": 2330, "pitch": 80, "duration": 7, "velocity": 92}, {"time": 2336, "pitch": 82, "duration": 6, "velocity": 100}, {"time": 2341, "pitch": 84, "duration": 5, "velocity": 94}, {"time": 2348, "pitch": 85, "duration": 6, "velocity": 100}, {"time": 2357, "pitch": 85, "duration": 6, "velocity": 100}, {"time": 2365, "pitch": 85, "duration": 5, "velocity": 100}, {"time": 2373, "pitch": 85, "duration": 6, "velocity": 103}, {"time": 2381, "pitch": 82, "duration": 8, "velocity": 93}, {"time": 2390, "pitch": 80, "duration": 5, "velocity": 90}, {"time": 2397, "pitch": 80, "duration": 15, "velocity": 95}, {"time": 2415, "pitch": 77, "duration": 6, "velocity": 91}, {"time": 2422, "pitch": 73, "duration": 9, "velocity": 96}, {"time": 2430, "pitch": 75, "duration": 8, "velocity": 98}, {"time": 2438, "pitch": 73, "duration": 9, "velocity": 94}, {"time": 2445, "pitch": 77, "duration": 9, "velocity": 103}, {"time": 2454, "pitch": 75, "duration": 8, "velocity": 96}, {"time": 2462, "pitch": 73, "duration": 6, "velocity": 91}, {"time": 2468, "pitch": 73, "duration": 9, "velocity": 80}, {"time": 2477, "pitch": 70, "duration": 8, "velocity": 95}, {"time": 2484, "pitch": 77, "duration": 9, "velocity": 91}, {"time": 2492, "pitch": 75, "duration": 27, "velocity": 96}, {"time": 2541, "pitch": 73, "duration": 7, "velocity": 90}, {"time": 2547, "pitch": 68, "duration": 44, "velocity": 78}, {"time": 2553, "pitch": 73, "duration": 33, "velocity": 86}, {"time": 2559, "pitch": 80, "duration": 35, "velocity": 89}, {"time": 2595, "pitch": 72, "duration": 15, "velocity": 64}, {"time": 2601, "pitch": 68, "duration": 31, "velocity": 84}, {"time": 2607, "pitch": 80, "duration": 29, "velocity": 89}, {"time": 2637, "pitch": 73, "duration": 8, "velocity": 78}, {"time": 2643, "pitch": 70, "duration": 42, "velocity": 81}, {"time": 2649, "pitch": 73, "duration": 35, "velocity": 87}, {"time": 2655, "pitch": 80, "duration": 28, "velocity": 85}, {"time": 2691, "pitch": 72, "duration": 37, "velocity": 81}, {"time": 2697, "pitch": 68, "duration": 31, "velocity": 70}, {"time": 2703, "pitch": 77, "duration": 28, "velocity": 86}, {"time": 2739, "pitch": 73, "duration": 36, "velocity": 80}, {"time": 2745, "pitch": 70, "duration": 30, "velocity": 75}, {"time": 2751, "pitch": 78, "duration": 26, "velocity": 81}, {"time": 2787, "pitch": 73, "duration": 42, "velocity": 79}, {"time": 2793, "pitch": 68, "duration": 9, "velocity": 77}, {"time": 2799, "pitch": 77, "duration": 30, "velocity": 81}, {"time": 2835, "pitch": 75, "duration": 15, "velocity": 84}, {"time": 2841, "pitch": 70, "duration": 18, "velocity": 75}, {"time": 2847, "pitch": 78, "duration": 33, "velocity": 81}, {"time": 2859, "pitch": 75, "duration": 17, "velocity": 73}, {"time": 2865, "pitch": 70, "duration": 12, "velocity": 73}, {"time": 2883, "pitch": 75, "duration": 38, "velocity": 87}, {"time": 2889, "pitch": 68, "duration": 31, "velocity": 78}, {"time": 2895, "pitch": 80, "duration": 26, "velocity": 85}, {"time": 2931, "pitch": 80, "duration": 4, "velocity": 87}, {"time": 2934, "pitch": 82, "duration": 4, "velocity": 91}, {"time": 2937, "pitch": 85, "duration": 3, "velocity": 94}, {"time": 2943, "pitch": 85, "duration": 16, "velocity": 103}, {"time": 2961, "pitch": 87, "duration": 6, "velocity": 90}, {"time": 2967, "pitch": 85, "duration": 5, "velocity": 86}, {"time": 2973, "pitch": 89, "duration": 36, "velocity": 93}, {"time": 3009, "pitch": 85, "duration": 12, "velocity": 89}, {"time": 3021, "pitch": 84, "duration": 26, "velocity": 81}, {"time": 3045, "pitch": 87, "duration": 23, "velocity": 90}, {"time": 3069, "pitch": 82, "duration": 47, "velocity": 82}, {"time": 3069, "pitch": 85, "duration": 47, "velocity": 89}, {"time": 3117, "pitch": 84, "duration": 36, "velocity": 85}, {"time": 3153, "pitch": 82, "duration": 6, "velocity": 89}, {"time": 3159, "pitch": 80, "duration": 7, "velocity": 88}, {"time": 3165, "pitch": 82, "duration": 41, "velocity": 90}, {"time": 3213, "pitch": 77, "duration": 34, "velocity": 84}, {"time": 3213, "pitch": 80, "duration": 33, "velocity": 84}, {"time": 3249, "pitch": 78, "duration": 6, "velocity": 75}, {"time": 3255, "pitch": 77, "duration": 5, "velocity": 77}, {"time": 3261, "pitch": 78, "duration": 24, "velocity": 90}, {"time": 3285, "pitch": 75, "duration": 14, "velocity": 90}, {"time": 3297, "pitch": 73, "duration": 9, "velocity": 85}, {"time": 3309, "pitch": 75, "duration": 25, "velocity": 91}, {"time": 3333, "pitch": 80, "duration": 13, "velocity": 90}, {"time": 3345, "pitch": 78, "duration": 12, "velocity": 90}, {"time": 3357, "pitch": 73, "duration": 39, "velocity": 79}, {"time": 3357, "pitch": 77, "duration": 40, "velocity": 84}, {"time": 3399, "pitch": 78, "duration": 7, "velocity": 81}, {"time": 3405, "pitch": 80, "duration": 27, "velocity": 89}, {"time": 3429, "pitch": 87, "duration": 23, "velocity": 91}, {"time": 3453, "pitch": 89, "duration": 38, "velocity": 91}, {"time": 3489, "pitch": 85, "duration": 13, "velocity": 89}, {"time": 3501, "pitch": 84, "duration": 13, "velocity": 87}, {"time": 3513, "pitch": 85, "duration": 13, "velocity": 86}, {"time": 3525, "pitch": 84, "duration": 22, "velocity": 79}, {"time": 3549, "pitch": 78, "duration": 32, "velocity": 80}, {"time": 3549, "pitch": 82, "duration": 32, "velocity": 87}, {"time": 3585, "pitch": 80, "duration": 7, "velocity": 88}, {"time": 3591, "pitch": 78, "duration": 6, "velocity": 86}, {"time": 3597, "pitch": 77, "duration": 30, "velocity": 90}, {"time": 3627, "pitch": 75, "duration": 5, "velocity": 89}, {"time": 3633, "pitch": 73, "duration": 13, "velocity": 85}, {"time": 3645, "pitch": 78, "duration": 37, "velocity": 85}, {"time": 3681, "pitch": 77, "duration": 12, "velocity": 88}, {"time": 3693, "pitch": 75, "duration": 54, "velocity": 90}, {"time": 3741, "pitch": 89, "duration": 36, "velocity": 93}, {"time": 3777, "pitch": 85, "duration": 12, "velocity": 89}, {"time": 3789, "pitch": 84, "duration": 26, "velocity": 81}, {"time": 3813, "pitch": 87, "duration": 23, "velocity": 90}, {"time": 3837, "pitch": 82, "duration": 47, "velocity": 82}, {"time": 3837, "pitch": 85, "duration": 47, "velocity": 89}, {"time": 3885, "pitch": 84, "duration": 36, "velocity": 85}, {"time": 3921, "pitch": 82, "duration": 6, "velocity": 89}, {"time": 3927, "pitch": 80, "duration": 7, "velocity": 88}, {"time": 3933, "pitch": 82, "duration": 41, "velocity": 90}, {"time": 3981, "pitch": 77, "duration": 34, "velocity": 84}, {"time": 3981, "pitch": 80, "duration": 33, "velocity": 84}, {"time": 4017, "pitch": 78, "duration": 6, "velocity": 75}, {"time": 4023, "pitch": 77, "duration": 5, "velocity": 77}, {"time": 4029, "pitch": 78, "duration": 24, "velocity": 90}, {"time": 4053, "pitch": 75, "duration": 14, "velocity": 90}, {"time": 4065, "pitch": 73, "duration": 9, "velocity": 85}, {"time": 4077, "pitch": 75, "duration": 25, "velocity": 91}, {"time": 4101, "pitch": 80, "duration": 13, "velocity": 90}, {"time": 4113, "pitch": 78, "duration": 12, "velocity": 90}, {"time": 4125, "pitch": 73, "duration": 39, "velocity": 79}, {"time": 4125, "pitch": 77, "duration": 40, "velocity": 84}, {"time": 4167, "pitch": 78, "duration": 7, "velocity": 81}, {"time": 4173, "pitch": 80, "duration": 27, "velocity": 89}, {"time": 4197, "pitch": 87, "duration": 23, "velocity": 91}, {"time": 4221, "pitch": 89, "duration": 38, "velocity": 91}, {"time": 4257, "pitch": 85, "duration": 13, "velocity": 89}, {"time": 4269, "pitch": 84, "duration": 13, "velocity": 87}, {"time": 4281, "pitch": 85, "duration": 13, "velocity": 86}, {"time": 4293, "pitch": 84, "duration": 22, "velocity": 79}, {"time": 4317, "pitch": 78, "duration": 32, "velocity": 80}, {"time": 4317, "pitch": 82, "duration": 32, "velocity": 87}, {"time": 4353, "pitch": 80, "duration": 7, "velocity": 88}, {"time": 4359, "pitch": 78, "duration": 6, "velocity": 86}, {"time": 4365, "pitch": 77, "duration": 30, "velocity": 90}, {"time": 4395, "pitch": 75, "duration": 5, "velocity": 89}, {"time": 4401, "pitch": 73, "duration": 13, "velocity": 85}, {"time": 4413, "pitch": 78, "duration": 37, "velocity": 85}, {"time": 4449, "pitch": 77, "duration": 12, "velocity": 88}, {"time": 4461, "pitch": 75, "duration": 54, "velocity": 90}, {"time": 4605, "pitch": 77, "duration": 23, "velocity": 98}, {"time": 4622, "pitch": 68, "duration": 15, "velocity": 84}, {"time": 4629, "pitch": 73, "duration": 12, "velocity": 81}, {"time": 4640, "pitch": 80, "duration": 14, "velocity": 92}, {"time": 4653, "pitch": 75, "duration": 35, "velocity": 105}, {"time": 4688, "pitch": 80, "duration": 13, "velocity": 87}, {"time": 4700, "pitch": 73, "duration": 49, "velocity": 90}, {"time": 4749, "pitch": 72, "duration": 18, "velocity": 80}, {"time": 4766, "pitch": 80, "duration": 8, "velocity": 93}, {"time": 4772, "pitch": 84, "duration": 7, "velocity": 98}, {"time": 4778, "pitch": 85, "duration": 7, "velocity": 98}, {"time": 4784, "pitch": 84, "duration": 6, "velocity": 96}, {"time": 4790, "pitch": 80, "duration": 7, "velocity": 93}, {"time": 4796, "pitch": 82, "duration": 30, "velocity": 103}, {"time": 4832, "pitch": 85, "duration": 12, "velocity": 105}, {"time": 4845, "pitch": 80, "duration": 26, "velocity": 100}, {"time": 4868, "pitch": 77, "duration": 12, "velocity": 94}, {"time": 4880, "pitch": 73, "duration": 13, "velocity": 96}, {"time": 4893, "pitch": 75, "duration": 84, "velocity": 98}]}, {"program": 0, "is_drum": false, "name": "PIANO", "notes": [{"time": 45, "pitch": 49, "duration": 39, "velocity": 91}, {"time": 51, "pitch": 56, "duration": 43, "velocity": 78}, {"time": 57, "pitch": 61, "duration": 26, "velocity": 90}, {"time": 63, "pitch": 65, "duration": 17, "velocity": 89}, {"time": 63, "pitch": 68, "duration": 43, "velocity": 80}, {"time": 93, "pitch": 48, "duration": 36, "velocity": 91}, {"time": 99, "pitch": 56, "duration": 29, "velocity": 77}, {"time": 105, "pitch": 60, "duration": 32, "velocity": 92}, {"time": 111, "pitch": 63, "duration": 23, "velocity": 89}, {"time": 111, "pitch": 68, "duration": 57, "velocity": 87}, {"time": 141, "pitch": 46, "duration": 41, "velocity": 89}, {"time": 147, "pitch": 53, "duration": 26, "velocity": 81}, {"time": 153, "pitch": 58, "duration": 26, "velocity": 91}, {"time": 159, "pitch": 61, "duration": 33, "velocity": 82}, {"time": 159, "pitch": 65, "duration": 33, "velocity": 89}, {"time": 177, "pitch": 53, "duration": 5, "velocity": 84}, {"time": 183, "pitch": 58, "duration": 9, "velocity": 86}, {"time": 189, "pitch": 41, "duration": 36, "velocity": 91}, {"time": 195, "pitch": 48, "duration": 25, "velocity": 80}, {"time": 201, "pitch": 53, "duration": 23, "velocity": 92}, {"time": 207, "pitch": 56, "duration": 17, "velocity": 86}, {"time": 207, "pitch": 60, "duration": 19, "velocity": 90}, {"time": 237, "pitch": 42, "duration": 42, "velocity": 90}, {"time": 237, "pitch": 54, "duration": 31, "velocity": 83}, {"time": 237, "pitch": 58, "duration": 28, "velocity": 83}, {"time": 243, "pitch": 49, "duration": 44, "velocity": 84}, {"time": 249, "pitch": 61, "duration": 8, "velocity": 89}, {"time": 255, "pitch": 66, "duration": 23, "velocity": 90}, {"time": 267, "pitch": 58, "duration": 1, "velocity": 61}, {"time": 267, "pitch": 61, "duration": 11, "velocity": 90}, {"time": 273, "pitch": 58, "duration": 6, "velocity": 90}, {"time": 285, "pitch": 41, "duration": 37, "velocity": 93}, {"time": 291, "pitch": 49, "duration": 32, "velocity": 90}, {"time": 297, "pitch": 56, "duration": 14, "velocity": 92}, {"time": 303, "pitch": 61, "duration": 8, "velocity": 91}, {"time": 309, "pitch": 65, "duration": 18, "velocity": 90}, {"time": 315, "pitch": 56, "duration": 8, "velocity": 80}, {"time": 321, "pitch": 61, "duration": 4, "velocity": 79}, {"time": 333, "pitch": 51, "duration": 34, "velocity": 92}, {"time": 333, "pitch": 58, "duration": 4, "velocity": 81}, {"time": 333, "pitch": 63, "duration": 8, "velocity": 85}, {"time": 339, "pitch": 58, "duration": 14, "velocity": 84}, {"time": 345, "pitch": 63, "duration": 7, "velocity": 85}, {"time": 351, "pitch": 66, "duration": 23, "velocity": 89}, {"time": 363, "pitch": 63, "duration": 6, "velocity": 82}, {"time": 381, "pitch": 44, "duration": 46, "velocity": 89}, {"time": 381, "pitch": 56, "duration": 6, "velocity": 83}, {"time": 381, "pitch": 63, "duration": 10, "velocity": 85}, {"time": 387, "pitch": 51, "duration": 39, "velocity": 84}, {"time": 393, "pitch": 56, "duration": 18, "velocity": 92}, {"time": 399, "pitch": 63, "duration": 15, "velocity": 89}, {"time": 411, "pitch": 68, "duration": 10, "velocity": 78}, {"time": 417, "pitch": 56, "duration": 11, "velocity": 90}, {"time": 429, "pitch": 44, "duration": 31, "velocity": 88}, {"time": 429, "pitch": 56, "duration": 35, "velocity": 86}, {"time": 429, "pitch": 63, "duration": 35, "velocity": 88}, {"time": 477, "pitch": 49, "duration": 43, "velocity": 91}, {"time": 483, "pitch": 56, "duration": 45, "velocity": 83}, {"time": 489, "pitch": 63, "duration": 7, "velocity": 80}, {"time": 495, "pitch": 61, "duration": 33, "velocity": 85}, {"time": 495, "pitch": 65, "duration": 44, "velocity": 85}, {"time": 525, "pitch": 48, "duration": 41, "velocity": 90}, {"time": 531, "pitch": 56, "duration": 31, "velocity": 82}, {"time": 537, "pitch": 63, "duration": 26, "velocity": 83}, {"time": 543, "pitch": 60, "duration": 21, "velocity": 85}, {"time": 543, "pitch": 68, "duration": 32, "velocity": 89}, {"time": 573, "pitch": 46, "duration": 34, "velocity": 88}, {"time": 573, "pitch": 58, "duration": 6, "velocity": 74}, {"time": 573, "pitch": 61, "duration": 13, "velocity": 78}, {"time": 579, "pitch": 53, "duration": 28, "velocity": 82}, {"time": 585, "pitch": 58, "duration": 24, "velocity": 88}, {"time": 591, "pitch": 61, "duration": 17, "velocity": 85}, {"time": 591, "pitch": 65, "duration": 47, "velocity": 87}, {"time": 621, "pitch": 44, "duration": 35, "velocity": 90}, {"time": 627, "pitch": 51, "duration": 36, "velocity": 84}, {"time": 633, "pitch": 56, "duration": 20, "velocity": 90}, {"time": 639, "pitch": 60, "duration": 14, "velocity": 85}, {"time": 639, "pitch": 63, "duration": 16, "velocity": 83}, {"time": 669, "pitch": 42, "duration": 40, "velocity": 89}, {"time": 669, "pitch": 58, "duration": 6, "velocity": 79}, {"time": 669, "pitch": 61, "duration": 15, "velocity": 83}, {"time": 675, "pitch": 49, "duration": 31, "velocity": 80}, {"time": 681, "pitch": 58, "duration": 27, "velocity": 89}, {"time": 687, "pitch": 61, "duration": 19, "velocity": 86}, {"time": 687, "pitch": 66, "duration": 23, "velocity": 89}, {"time": 717, "pitch": 41, "duration": 15, "velocity": 91}, {"time": 717, "pitch": 60, "duration": 7, "velocity": 86}, {"time": 717, "pitch": 65, "duration": 12, "velocity": 90}, {"time": 717, "pitch": 68, "duration": 15, "velocity": 84}, {"time": 723, "pitch": 48, "duration": 9, "velocity": 78}, {"time": 729, "pitch": 60, "duration": 8, "velocity": 90}, {"time": 735, "pitch": 65, "duration": 3, "velocity": 82}, {"time": 741, "pitch": 46, "duration": 22, "velocity": 89}, {"time": 741, "pitch": 58, "duration": 8, "velocity": 82}, {"time": 741, "pitch": 61, "duration": 14, "velocity": 89}, {"time": 747, "pitch": 53, "duration": 15, "velocity": 81}, {"time": 753, "pitch": 58, "duration": 4, "velocity": 83}, {"time": 765, "pitch": 51, "duration": 38, "velocity": 90}, {"time": 765, "pitch": 58, "duration": 8, "velocity": 79}, {"time": 765, "pitch": 63, "duration": 13, "velocity": 83}, {"time": 771, "pitch": 54, "duration": 31, "velocity": 77}, {"time": 777, "pitch": 58, "duration": 23, "velocity": 81}, {"time": 783, "pitch": 63, "duration": 17, "velocity": 88}, {"time": 813, "pitch": 44, "duration": 42, "velocity": 89}, {"time": 819, "pitch": 51, "duration": 34, "velocity": 79}, {"time": 825, "pitch": 56, "duration": 15, "velocity": 89}, {"time": 831, "pitch": 63, "duration": 8, "velocity": 86}, {"time": 837, "pitch": 68, "duration": 16, "velocity": 83}, {"time": 843, "pitch": 63, "duration": 8, "velocity": 85}, {"time": 849, "pitch": 56, "duration": 5, "velocity": 84}, {"time": 861, "pitch": 44, "duration": 29, "velocity": 86}, {"time": 861, "pitch": 56, "duration": 28, "velocity": 78}, {"time": 861, "pitch": 60, "duration": 27, "velocity": 81}, {"time": 861, "pitch": 63, "duration": 30, "velocity": 80}, {"time": 909, "pitch": 49, "duration": 33, "velocity": 90}, {"time": 909, "pitch": 56, "duration": 4, "velocity": 87}, {"time": 909, "pitch": 65, "duration": 12, "velocity": 89}, {"time": 915, "pitch": 56, "duration": 14, "velocity": 88}, {"time": 921, "pitch": 61, "duration": 7, "velocity": 82}, {"time": 927, "pitch": 65, "duration": 18, "velocity": 91}, {"time": 939, "pitch": 61, "duration": 4, "velocity": 79}, {"time": 957, "pitch": 48, "duration": 37, "velocity": 90}, {"time": 957, "pitch": 60, "duration": 5, "velocity": 80}, {"time": 957, "pitch": 63, "duration": 12, "velocity": 84}, {"time": 963, "pitch": 56, "duration": 29, "velocity": 69}, {"time": 969, "pitch": 60, "duration": 16, "velocity": 92}, {"time": 975, "pitch": 63, "duration": 10, "velocity": 91}, {"time": 987, "pitch": 60, "duration": 3, "velocity": 84}, {"time": 987, "pitch": 63, "duration": 7, "velocity": 91}, {"time": 987, "pitch": 68, "duration": 18, "velocity": 86}, {"time": 993, "pitch": 60, "duration": 4, "velocity": 84}, {"time": 1005, "pitch": 46, "duration": 35, "velocity": 89}, {"time": 1005, "pitch": 58, "duration": 7, "velocity": 79}, {"time": 1005, "pitch": 61, "duration": 13, "velocity": 85}, {"time": 1011, "pitch": 53, "duration": 27, "velocity": 82}, {"time": 1017, "pitch": 58, "duration": 16, "velocity": 86}, {"time": 1023, "pitch": 61, "duration": 10, "velocity": 84}, {"time": 1035, "pitch": 61, "duration": 1, "velocity": 72}, {"time": 1035, "pitch": 65, "duration": 6, "velocity": 84}, {"time": 1053, "pitch": 44, "duration": 37, "velocity": 89}, {"time": 1053, "pitch": 56, "duration": 6, "velocity": 81}, {"time": 1053, "pitch": 60, "duration": 14, "velocity": 81}, {"time": 1059, "pitch": 51, "duration": 29, "velocity": 79}, {"time": 1065, "pitch": 56, "duration": 15, "velocity": 90}, {"time": 1071, "pitch": 60, "duration": 1, "velocity": 75}, {"time": 1071, "pitch": 63, "duration": 9, "velocity": 90}, {"time": 1083, "pitch": 60, "duration": 7, "velocity": 87}, {"time": 1083, "pitch": 63, "duration": 7, "velocity": 84}, {"time": 1083, "pitch": 68, "duration": 7, "velocity": 87}, {"time": 1089, "pitch": 56, "duration": 3, "velocity": 89}, {"time": 1101, "pitch": 42, "duration": 38, "velocity": 89}, {"time": 1101, "pitch": 54, "duration": 15, "velocity": 79}, {"time": 1101, "pitch": 58, "duration": 19, "velocity": 84}, {"time": 1107, "pitch": 49, "duration": 30, "velocity": 84}, {"time": 1113, "pitch": 61, "duration": 7, "velocity": 82}, {"time": 1119, "pitch": 66, "duration": 19, "velocity": 88}, {"time": 1131, "pitch": 61, "duration": 7, "velocity": 84}, {"time": 1149, "pitch": 41, "duration": 13, "velocity": 91}, {"time": 1149, "pitch": 60, "duration": 7, "velocity": 82}, {"time": 1149, "pitch": 65, "duration": 11, "velocity": 87}, {"time": 1155, "pitch": 48, "duration": 8, "velocity": 83}, {"time": 1161, "pitch": 60, "duration": 7, "velocity": 92}, {"time": 1167, "pitch": 65, "duration": 2, "velocity": 89}, {"time": 1173, "pitch": 46, "duration": 20, "velocity": 90}, {"time": 1173, "pitch": 58, "duration": 8, "velocity": 85}, {"time": 1173, "pitch": 61, "duration": 13, "velocity": 92}, {"time": 1179, "pitch": 53, "duration": 12, "velocity": 78}, {"time": 1185, "pitch": 58, "duration": 3, "velocity": 80}, {"time": 1197, "pitch": 51, "duration": 21, "velocity": 92}, {"time": 1197, "pitch": 58, "duration": 7, "velocity": 84}, {"time": 1197, "pitch": 63, "duration": 12, "velocity": 85}, {"time": 1203, "pitch": 54, "duration": 15, "velocity": 73}, {"time": 1209, "pitch": 58, "duration": 20, "velocity": 82}, {"time": 1215, "pitch": 63, "duration": 19, "velocity": 90}, {"time": 1233, "pitch": 58, "duration": 10, "velocity": 90}, {"time": 1239, "pitch": 63, "duration": 13, "velocity": 81}, {"time": 1245, "pitch": 44, "duration": 44, "velocity": 90}, {"time": 1251, "pitch": 51, "duration": 34, "velocity": 79}, {"time": 1257, "pitch": 56, "duration": 17, "velocity": 90}, {"time": 1263, "pitch": 63, "duration": 14, "velocity": 89}, {"time": 1275, "pitch": 68, "duration": 15, "velocity": 88}, {"time": 1281, "pitch": 56, "duration": 7, "velocity": 90}, {"time": 1293, "pitch": 44, "duration": 42, "velocity": 92}, {"time": 1293, "pitch": 56, "duration": 7, "velocity": 90}, {"time": 1293, "pitch": 63, "duration": 11, "velocity": 89}, {"time": 1299, "pitch": 51, "duration": 14, "velocity": 86}, {"time": 1305, "pitch": 56, "duration": 2, "velocity": 83}, {"time": 1311, "pitch": 56, "duration": 8, "velocity": 92}, {"time": 1311, "pitch": 60, "duration": 13, "velocity": 96}, {"time": 1311, "pitch": 63, "duration": 14, "velocity": 94}, {"time": 1317, "pitch": 51, "duration": 18, "velocity": 90}, {"time": 1323, "pitch": 56, "duration": 4, "velocity": 93}, {"time": 1329, "pitch": 60, "duration": 3, "velocity": 90}, {"time": 1341, "pitch": 49, "duration": 34, "velocity": 103}, {"time": 1341, "pitch": 56, "duration": 7, "velocity": 90}, {"time": 1341, "pitch": 61, "duration": 13, "velocity": 90}, {"time": 1347, "pitch": 53, "duration": 28, "velocity": 85}, {"time": 1353, "pitch": 56, "duration": 14, "velocity": 91}, {"time": 1359, "pitch": 61, "duration": 9, "velocity": 103}, {"time": 1371, "pitch": 56, "duration": 4, "velocity": 92}, {"time": 1371, "pitch": 61, "duration": 5, "velocity": 95}, {"time": 1371, "pitch": 65, "duration": 5, "velocity": 94}, {"time": 1389, "pitch": 44, "duration": 42, "velocity": 90}, {"time": 1389, "pitch": 60, "duration": 6, "velocity": 89}, {"time": 1389, "pitch": 63, "duration": 13, "velocity": 90}, {"time": 1395, "pitch": 51, "duration": 27, "velocity": 78}, {"time": 1401, "pitch": 60, "duration": 4, "velocity": 90}, {"time": 1407, "pitch": 60, "duration": 10, "velocity": 91}, {"time": 1407, "pitch": 63, "duration": 11, "velocity": 91}, {"time": 1407, "pitch": 68, "duration": 26, "velocity": 89}, {"time": 1419, "pitch": 60, "duration": 1, "velocity": 78}, {"time": 1419, "pitch": 63, "duration": 7, "velocity": 91}, {"time": 1425, "pitch": 60, "duration": 7, "velocity": 91}, {"time": 1437, "pitch": 46, "duration": 33, "velocity": 91}, {"time": 1437, "pitch": 58, "duration": 7, "velocity": 89}, {"time": 1437, "pitch": 61, "duration": 13, "velocity": 90}, {"time": 1443, "pitch": 53, "duration": 20, "velocity": 85}, {"time": 1449, "pitch": 58, "duration": 8, "velocity": 86}, {"time": 1455, "pitch": 61, "duration": 2, "velocity": 74}, {"time": 1461, "pitch": 58, "duration": 10, "velocity": 90}, {"time": 1461, "pitch": 61, "duration": 17, "velocity": 94}, {"time": 1461, "pitch": 65, "duration": 20, "velocity": 103}, {"time": 1467, "pitch": 53, "duration": 1, "velocity": 64}, {"time": 1473, "pitch": 53, "duration": 3, "velocity": 93}, {"time": 1479, "pitch": 58, "duration": 5, "velocity": 85}, {"time": 1485, "pitch": 41, "duration": 37, "velocity": 93}, {"time": 1485, "pitch": 61, "duration": 11, "velocity": 83}, {"time": 1491, "pitch": 48, "duration": 15, "velocity": 81}, {"time": 1497, "pitch": 56, "duration": 3, "velocity": 85}, {"time": 1503, "pitch": 56, "duration": 7, "velocity": 90}, {"time": 1503, "pitch": 60, "duration": 9, "velocity": 92}, {"time": 1509, "pitch": 48, "duration": 6, "velocity": 84}, {"time": 1515, "pitch": 56, "duration": 8, "velocity": 103}, {"time": 1521, "pitch": 48, "duration": 3, "velocity": 91}, {"time": 1533, "pitch": 42, "duration": 34, "velocity": 90}, {"time": 1533, "pitch": 54, "duration": 6, "velocity": 89}, {"time": 1533, "pitch": 58, "duration": 13, "velocity": 90}, {"time": 1539, "pitch": 49, "duration": 14, "velocity": 85}, {"time": 1545, "pitch": 54, "duration": 4, "velocity": 85}, {"time": 1551, "pitch": 54, "duration": 9, "velocity": 93}, {"time": 1551, "pitch": 61, "duration": 9, "velocity": 90}, {"time": 1557, "pitch": 49, "duration": 10, "velocity": 84}, {"time": 1563, "pitch": 54, "duration": 4, "velocity": 89}, {"time": 1563, "pitch": 58, "duration": 4, "velocity": 89}, {"time": 1581, "pitch": 49, "duration": 33, "velocity": 95}, {"time": 1581, "pitch": 56, "duration": 4, "velocity": 90}, {"time": 1581, "pitch": 65, "duration": 10, "velocity": 91}, {"time": 1587, "pitch": 56, "duration": 8, "velocity": 85}, {"time": 1593, "pitch": 61, "duration": 4, "velocity": 90}, {"time": 1599, "pitch": 56, "duration": 10, "velocity": 90}, {"time": 1599, "pitch": 61, "duration": 9, "velocity": 96}, {"time": 1599, "pitch": 65, "duration": 10, "velocity": 93}, {"time": 1611, "pitch": 56, "duration": 3, "velocity": 85}, {"time": 1611, "pitch": 61, "duration": 7, "velocity": 91}, {"time": 1617, "pitch": 56, "duration": 3, "velocity": 85}, {"time": 1629, "pitch": 39, "duration": 31, "velocity": 91}, {"time": 1629, "pitch": 58, "duration": 7, "velocity": 87}, {"time": 1629, "pitch": 63, "duration": 8, "velocity": 89}, {"time": 1635, "pitch": 46, "duration": 24, "velocity": 76}, {"time": 1641, "pitch": 58, "duration": 3, "velocity": 89}, {"time": 1647, "pitch": 58, "duration": 8, "velocity": 91}, {"time": 1647, "pitch": 66, "duration": 10, "velocity": 89}, {"time": 1659, "pitch": 58, "duration": 6, "velocity": 90}, {"time": 1659, "pitch": 63, "duration": 9, "velocity": 91}, {"time": 1671, "pitch": 58, "duration": 2, "velocity": 90}, {"time": 1677, "pitch": 44, "duration": 42, "velocity": 90}, {"time": 1677, "pitch": 56, "duration": 7, "velocity": 91}, {"time": 1683, "pitch": 51, "duration": 14, "velocity": 89}, {"time": 1689, "pitch": 56, "duration": 2, "velocity": 100}, {"time": 1695, "pitch": 56, "duration": 10, "velocity": 90}, {"time": 1695, "pitch": 60, "duration": 6, "velocity": 91}, {"time": 1695, "pitch": 63, "duration": 6, "velocity": 91}, {"time": 1701, "pitch": 51, "duration": 17, "velocity": 91}, {"time": 1707, "pitch": 60, "duration": 7, "velocity": 90}, {"time": 1707, "pitch": 63, "duration": 7, "velocity": 91}, {"time": 1707, "pitch": 68, "duration": 9, "velocity": 90}, {"time": 1713, "pitch": 56, "duration": 4, "velocity": 91}, {"time": 1725, "pitch": 49, "duration": 33, "velocity": 103}, {"time": 1725, "pitch": 56, "duration": 6, "velocity": 91}, {"time": 1725, "pitch": 61, "duration": 13, "velocity": 89}, {"time": 1731, "pitch": 53, "duration": 27, "velocity": 88}, {"time": 1737, "pitch": 56, "duration": 16, "velocity": 88}, {"time": 1743, "pitch": 61, "duration": 9, "velocity": 90}, {"time": 1755, "pitch": 56, "duration": 3, "velocity": 91}, {"time": 1755, "pitch": 61, "duration": 5, "velocity": 90}, {"time": 1755, "pitch": 65, "duration": 6, "velocity": 92}, {"time": 1773, "pitch": 44, "duration": 39, "velocity": 91}, {"time": 1773, "pitch": 60, "duration": 4, "velocity": 89}, {"time": 1773, "pitch": 63, "duration": 12, "velocity": 91}, {"time": 1779, "pitch": 51, "duration": 33, "velocity": 84}, {"time": 1785, "pitch": 60, "duration": 9, "velocity": 95}, {"time": 1791, "pitch": 63, "duration": 9, "velocity": 95}, {"time": 1803, "pitch": 60, "duration": 4, "velocity": 90}, {"time": 1803, "pitch": 63, "duration": 8, "velocity": 95}, {"time": 1803, "pitch": 68, "duration": 11, "velocity": 88}, {"time": 1821, "pitch": 46, "duration": 39, "velocity": 88}, {"time": 1821, "pitch": 58, "duration": 6, "velocity": 82}, {"time": 1821, "pitch": 61, "duration": 13, "velocity": 85}, {"time": 1827, "pitch": 53, "duration": 15, "velocity": 85}, {"time": 1833, "pitch": 58, "duration": 3, "velocity": 86}, {"time": 1839, "pitch": 58, "duration": 9, "velocity": 88}, {"time": 1839, "pitch": 61, "duration": 9, "velocity": 90}, {"time": 1839, "pitch": 65, "duration": 10, "velocity": 91}, {"time": 1845, "pitch": 53, "duration": 12, "velocity": 76}, {"time": 1851, "pitch": 58, "duration": 8, "velocity": 96}, {"time": 1857, "pitch": 61, "duration": 2, "velocity": 90}, {"time": 1869, "pitch": 41, "duration": 37, "velocity": 91}, {"time": 1869, "pitch": 53, "duration": 6, "velocity": 84}, {"time": 1869, "pitch": 56, "duration": 11, "velocity": 85}, {"time": 1875, "pitch": 48, "duration": 26, "velocity": 81}, {"time": 1881, "pitch": 53, "duration": 8, "velocity": 85}, {"time": 1887, "pitch": 56, "duration": 8, "velocity": 91}, {"time": 1899, "pitch": 53, "duration": 6, "velocity": 90}, {"time": 1899, "pitch": 60, "duration": 8, "velocity": 89}, {"time": 1905, "pitch": 48, "duration": 5, "velocity": 90}, {"time": 1917, "pitch": 42, "duration": 35, "velocity": 90}, {"time": 1917, "pitch": 54, "duration": 15, "velocity": 85}, {"time": 1917, "pitch": 58, "duration": 13, "velocity": 83}, {"time": 1923, "pitch": 49, "duration": 16, "velocity": 88}, {"time": 1929, "pitch": 61, "duration": 7, "velocity": 89}, {"time": 1935, "pitch": 66, "duration": 18, "velocity": 94}, {"time": 1941, "pitch": 49, "duration": 13, "velocity": 90}, {"time": 1947, "pitch": 61, "duration": 7, "velocity": 93}, {"time": 1953, "pitch": 58, "duration": 4, "velocity": 90}, {"time": 1959, "pitch": 54, "duration": 2, "velocity": 90}, {"time": 1965, "pitch": 49, "duration": 33, "velocity": 90}, {"time": 1965, "pitch": 56, "duration": 6, "velocity": 85}, {"time": 1965, "pitch": 61, "duration": 13, "velocity": 89}, {"time": 1971, "pitch": 53, "duration": 26, "velocity": 89}, {"time": 1977, "pitch": 56, "duration": 5, "velocity": 93}, {"time": 1983, "pitch": 56, "duration": 7, "velocity": 75}, {"time": 1983, "pitch": 65, "duration": 13, "velocity": 93}, {"time": 1995, "pitch": 61, "duration": 6, "velocity": 91}, {"time": 2001, "pitch": 56, "duration": 2, "velocity": 84}, {"time": 2013, "pitch": 39, "duration": 32, "velocity": 92}, {"time": 2013, "pitch": 58, "duration": 6, "velocity": 90}, {"time": 2013, "pitch": 66, "duration": 19, "velocity": 90}, {"time": 2019, "pitch": 46, "duration": 25, "velocity": 84}, {"time": 2025, "pitch": 58, "duration": 13, "velocity": 89}, {"time": 2031, "pitch": 63, "duration": 14, "velocity": 92}, {"time": 2061, "pitch": 44, "duration": 39, "velocity": 90}, {"time": 2061, "pitch": 56, "duration": 7, "velocity": 85}, {"time": 2061, "pitch": 63, "duration": 10, "velocity": 88}, {"time": 2067, "pitch": 51, "duration": 27, "velocity": 86}, {"time": 2073, "pitch": 56, "duration": 17, "velocity": 91}, {"time": 2079, "pitch": 63, "duration": 13, "velocity": 91}, {"time": 2091, "pitch": 68, "duration": 4, "velocity": 89}, {"time": 2109, "pitch": 44, "duration": 28, "velocity": 90}, {"time": 2109, "pitch": 68, "duration": 43, "velocity": 77}, {"time": 2109, "pitch": 80, "duration": 43, "velocity": 78}, {"time": 2157, "pitch": 49, "duration": 37, "velocity": 89}, {"time": 2163, "pitch": 56, "duration": 43, "velocity": 77}, {"time": 2169, "pitch": 63, "duration": 4, "velocity": 80}, {"time": 2175, "pitch": 61, "duration": 24, "velocity": 79}, {"time": 2175, "pitch": 68, "duration": 44, "velocity": 83}, {"time": 2205, "pitch": 48, "duration": 39, "velocity": 84}, {"time": 2211, "pitch": 56, "duration": 32, "velocity": 78}, {"time": 2217, "pitch": 63, "duration": 9, "velocity": 83}, {"time": 2223, "pitch": 68, "duration": 51, "velocity": 84}, {"time": 2253, "pitch": 46, "duration": 39, "velocity": 87}, {"time": 2259, "pitch": 53, "duration": 37, "velocity": 77}, {"time": 2265, "pitch": 58, "duration": 37, "velocity": 74}, {"time": 2271, "pitch": 61, "duration": 31, "velocity": 79}, {"time": 2301, "pitch": 41, "duration": 31, "velocity": 90}, {"time": 2307, "pitch": 48, "duration": 26, "velocity": 81}, {"time": 2313, "pitch": 53, "duration": 17, "velocity": 85}, {"time": 2319, "pitch": 56, "duration": 11, "velocity": 87}, {"time": 2349, "pitch": 42, "duration": 33, "velocity": 87}, {"time": 2349, "pitch": 58, "duration": 7, "velocity": 78}, {"time": 2349, "pitch": 61, "duration": 14, "velocity": 85}, {"time": 2355, "pitch": 49, "duration": 25, "velocity": 74}, {"time": 2361, "pitch": 58, "duration": 17, "velocity": 79}, {"time": 2367, "pitch": 61, "duration": 13, "velocity": 85}, {"time": 2379, "pitch": 66, "duration": 7, "velocity": 89}, {"time": 2397, "pitch": 49, "duration": 35, "velocity": 87}, {"time": 2397, "pitch": 56, "duration": 5, "velocity": 82}, {"time": 2397, "pitch": 65, "duration": 12, "velocity": 86}, {"time": 2403, "pitch": 56, "duration": 25, "velocity": 87}, {"time": 2409, "pitch": 61, "duration": 20, "velocity": 83}, {"time": 2415, "pitch": 65, "duration": 15, "velocity": 84}, {"time": 2445, "pitch": 51, "duration": 25, "velocity": 85}, {"time": 2445, "pitch": 66, "duration": 12, "velocity": 87}, {"time": 2451, "pitch": 58, "duration": 15, "velocity": 83}, {"time": 2457, "pitch": 63, "duration": 8, "velocity": 83}, {"time": 2463, "pitch": 66, "duration": 13, "velocity": 80}, {"time": 2493, "pitch": 44, "duration": 43, "velocity": 87}, {"time": 2493, "pitch": 56, "duration": 6, "velocity": 79}, {"time": 2493, "pitch": 63, "duration": 8, "velocity": 84}, {"time": 2499, "pitch": 51, "duration": 33, "velocity": 83}, {"time": 2505, "pitch": 56, "duration": 19, "velocity": 85}, {"time": 2511, "pitch": 63, "duration": 15, "velocity": 86}, {"time": 2523, "pitch": 68, "duration": 9, "velocity": 87}, {"time": 2541, "pitch": 49, "duration": 33, "velocity": 90}, {"time": 2541, "pitch": 56, "duration": 4, "velocity": 87}, {"time": 2541, "pitch": 65, "duration": 12, "velocity": 89}, {"time": 2547, "pitch": 56, "duration": 14, "velocity": 88}, {"time": 2553, "pitch": 61, "duration": 7, "velocity": 82}, {"time": 2559, "pitch": 65, "duration": 18, "velocity": 91}, {"time": 2571, "pitch": 61, "duration": 4, "velocity": 79}, {"time": 2589, "pitch": 48, "duration": 37, "velocity": 90}, {"time": 2589, "pitch": 60, "duration": 5, "velocity": 80}, {"time": 2589, "pitch": 63, "duration": 12, "velocity": 84}, {"time": 2595, "pitch": 56, "duration": 29, "velocity": 69}, {"time": 2601, "pitch": 60, "duration": 16, "velocity": 92}, {"time": 2607, "pitch": 63, "duration": 10, "velocity": 91}, {"time": 2619, "pitch": 60, "duration": 3, "velocity": 84}, {"time": 2619, "pitch": 63, "duration": 7, "velocity": 91}, {"time": 2619, "pitch": 68, "duration": 18, "velocity": 86}, {"time": 2625, "pitch": 60, "duration": 4, "velocity": 84}, {"time": 2637, "pitch": 46, "duration": 35, "velocity": 89}, {"time": 2637, "pitch": 58, "duration": 7, "velocity": 79}, {"time": 2637, "pitch": 61, "duration": 13, "velocity": 85}, {"time": 2643, "pitch": 53, "duration": 27, "velocity": 82}, {"time": 2649, "pitch": 58, "duration": 16, "velocity": 86}, {"time": 2655, "pitch": 61, "duration": 10, "velocity": 84}, {"time": 2667, "pitch": 61, "duration": 1, "velocity": 72}, {"time": 2667, "pitch": 65, "duration": 6, "velocity": 84}, {"time": 2685, "pitch": 44, "duration": 37, "velocity": 89}, {"time": 2685, "pitch": 56, "duration": 6, "velocity": 81}, {"time": 2685, "pitch": 60, "duration": 14, "velocity": 81}, {"time": 2691, "pitch": 51, "duration": 29, "velocity": 79}, {"time": 2697, "pitch": 56, "duration": 15, "velocity": 90}, {"time": 2703, "pitch": 60, "duration": 1, "velocity": 75}, {"time": 2703, "pitch": 63, "duration": 9, "velocity": 90}, {"time": 2715, "pitch": 60, "duration": 7, "velocity": 87}, {"time": 2715, "pitch": 63, "duration": 7, "velocity": 84}, {"time": 2715, "pitch": 68, "duration": 7, "velocity": 87}, {"time": 2721, "pitch": 56, "duration": 3, "velocity": 89}, {"time": 2733, "pitch": 42, "duration": 38, "velocity": 89}, {"time": 2733, "pitch": 54, "duration": 15, "velocity": 79}, {"time": 2733, "pitch": 58, "duration": 19, "velocity": 84}, {"time": 2739, "pitch": 49, "duration": 30, "velocity": 84}, {"time": 2745, "pitch": 61, "duration": 7, "velocity": 82}, {"time": 2751, "pitch": 66, "duration": 19, "velocity": 88}, {"time": 2763, "pitch": 61, "duration": 7, "velocity": 84}, {"time": 2781, "pitch": 41, "duration": 13, "velocity": 91}, {"time": 2781, "pitch": 60, "duration": 7, "velocity": 82}, {"time": 2781, "pitch": 65, "duration": 11, "velocity": 87}, {"time": 2787, "pitch": 48, "duration": 8, "velocity": 83}, {"time": 2793, "pitch": 60, "duration": 7, "velocity": 92}, {"time": 2799, "pitch": 65, "duration": 2, "velocity": 89}, {"time": 2805, "pitch": 46, "duration": 20, "velocity": 90}, {"time": 2805, "pitch": 58, "duration": 8, "velocity": 85}, {"time": 2805, "pitch": 61, "duration": 13, "velocity": 92}, {"time": 2811, "pitch": 53, "duration": 12, "velocity": 78}, {"time": 2817, "pitch": 58, "duration": 3, "velocity": 80}, {"time": 2829, "pitch": 51, "duration": 21, "velocity": 92}, {"time": 2829, "pitch": 58, "duration": 7, "velocity": 84}, {"time": 2829, "pitch": 63, "duration": 12, "velocity": 85}, {"time": 2835, "pitch": 54, "duration": 15, "velocity": 73}, {"time": 2841, "pitch": 58, "duration": 20, "velocity": 82}, {"time": 2847, "pitch": 63, "duration": 19, "velocity": 90}, {"time": 2865, "pitch": 58, "duration": 10, "velocity": 90}, {"time": 2871, "pitch": 63, "duration": 13, "velocity": 81}, {"time": 2877, "pitch": 44, "duration": 44, "velocity": 90}, {"time": 2883, "pitch": 51, "duration": 34, "velocity": 79}, {"time": 2889, "pitch": 56, "duration": 17, "velocity": 90}, {"time": 2895, "pitch": 63, "duration": 14, "velocity": 89}, {"time": 2907, "pitch": 68, "duration": 15, "velocity": 88}, {"time": 2913, "pitch": 56, "duration": 7, "velocity": 90}, {"time": 2925, "pitch": 44, "duration": 42, "velocity": 92}, {"time": 2925, "pitch": 56, "duration": 7, "velocity": 90}, {"time": 2925, "pitch": 63, "duration": 11, "velocity": 89}, {"time": 2931, "pitch": 51, "duration": 14, "velocity": 86}, {"time": 2937, "pitch": 56, "duration": 2, "velocity": 83}, {"time": 2943, "pitch": 56, "duration": 8, "velocity": 92}, {"time": 2943, "pitch": 60, "duration": 13, "velocity": 96}, {"time": 2943, "pitch": 63, "duration": 14, "velocity": 94}, {"time": 2949, "pitch": 51, "duration": 18, "velocity": 90}, {"time": 2955, "pitch": 56, "duration": 4, "velocity": 93}, {"time": 2961, "pitch": 60, "duration": 3, "velocity": 90}, {"time": 2973, "pitch": 49, "duration": 34, "velocity": 103}, {"time": 2973, "pitch": 56, "duration": 7, "velocity": 90}, {"time": 2973, "pitch": 61, "duration": 13, "velocity": 90}, {"time": 2979, "pitch": 53, "duration": 28, "velocity": 85}, {"time": 2985, "pitch": 56, "duration": 14, "velocity": 91}, {"time": 2991, "pitch": 61, "duration": 9, "velocity": 103}, {"time": 3003, "pitch": 56, "duration": 4, "velocity": 92}, {"time": 3003, "pitch": 61, "duration": 5, "velocity": 95}, {"time": 3003, "pitch": 65, "duration": 5, "velocity": 94}, {"time": 3021, "pitch": 44, "duration": 42, "velocity": 90}, {"time": 3021, "pitch": 60, "duration": 6, "velocity": 89}, {"time": 3021, "pitch": 63, "duration": 13, "velocity": 90}, {"time": 3027, "pitch": 51, "duration": 27, "velocity": 78}, {"time": 3033, "pitch": 60, "duration": 4, "velocity": 90}, {"time": 3039, "pitch": 60, "duration": 10, "velocity": 91}, {"time": 3039, "pitch": 63, "duration": 11, "velocity": 91}, {"time": 3039, "pitch": 68, "duration": 26, "velocity": 89}, {"time": 3051, "pitch": 60, "duration": 1, "velocity": 78}, {"time": 3051, "pitch": 63, "duration": 7, "velocity": 91}, {"time": 3057, "pitch": 60, "duration": 7, "velocity": 91}, {"time": 3069, "pitch": 46, "duration": 33, "velocity": 91}, {"time": 3069, "pitch": 58, "duration": 7, "velocity": 89}, {"time": 3069, "pitch": 61, "duration": 13, "velocity": 90}, {"time": 3075, "pitch": 53, "duration": 20, "velocity": 85}, {"time": 3081, "pitch": 58, "duration": 8, "velocity": 86}, {"time": 3087, "pitch": 61, "duration": 2, "velocity": 74}, {"time": 3093, "pitch": 58, "duration": 10, "velocity": 90}, {"time": 3093, "pitch": 61, "duration": 17, "velocity": 94}, {"time": 3093, "pitch": 65, "duration": 20, "velocity": 103}, {"time": 3099, "pitch": 53, "duration": 1, "velocity": 64}, {"time": 3105, "pitch": 53, "duration": 3, "velocity": 93}, {"time": 3111, "pitch": 58, "duration": 5, "velocity": 85}, {"time": 3117, "pitch": 41, "duration": 37, "velocity": 93}, {"time": 3117, "pitch": 61, "duration": 11, "velocity": 83}, {"time": 3123, "pitch": 48, "duration": 15, "velocity": 81}, {"time": 3129, "pitch": 56, "duration": 3, "velocity": 85}, {"time": 3135, "pitch": 56, "duration": 7, "velocity": 90}, {"time": 3135, "pitch": 60, "duration": 9, "velocity": 92}, {"time": 3141, "pitch": 48, "duration": 6, "velocity": 84}, {"time": 3147, "pitch": 56, "duration": 8, "velocity": 103}, {"time": 3153, "pitch": 48, "duration": 3, "velocity": 91}, {"time": 3165, "pitch": 42, "duration": 34, "velocity": 90}, {"time": 3165, "pitch": 54, "duration": 6, "velocity": 89}, {"time": 3165, "pitch": 58, "duration": 13, "velocity": 90}, {"time": 3171, "pitch": 49, "duration": 14, "velocity": 85}, {"time": 3177, "pitch": 54, "duration": 4, "velocity": 85}, {"time": 3183, "pitch": 54, "duration": 9, "velocity": 93}, {"time": 3183, "pitch": 61, "duration": 9, "velocity": 90}, {"time": 3189, "pitch": 49, "duration": 10, "velocity": 84}, {"time": 3195, "pitch": 54, "duration": 4, "velocity": 89}, {"time": 3195, "pitch": 58, "duration": 4, "velocity": 89}, {"time": 3213, "pitch": 49, "duration": 33, "velocity": 95}, {"time": 3213, "pitch": 56, "duration": 4, "velocity": 90}, {"time": 3213, "pitch": 65, "duration": 10, "velocity": 91}, {"time": 3219, "pitch": 56, "duration": 8, "velocity": 85}, {"time": 3225, "pitch": 61, "duration": 4, "velocity": 90}, {"time": 3231, "pitch": 56, "duration": 10, "velocity": 90}, {"time": 3231, "pitch": 61, "duration": 9, "velocity": 96}, {"time": 3231, "pitch": 65, "duration": 10, "velocity": 93}, {"time": 3243, "pitch": 56, "duration": 3, "velocity": 85}, {"time": 3243, "pitch": 61, "duration": 7, "velocity": 91}, {"time": 3249, "pitch": 56, "duration": 3, "velocity": 85}, {"time": 3261, "pitch": 39, "duration": 31, "velocity": 91}, {"time": 3261, "pitch": 58, "duration": 7, "velocity": 87}, {"time": 3261, "pitch": 63, "duration": 8, "velocity": 89}, {"time": 3267, "pitch": 46, "duration": 24, "velocity": 76}, {"time": 3273, "pitch": 58, "duration": 3, "velocity": 89}, {"time": 3279, "pitch": 58, "duration": 8, "velocity": 91}, {"time": 3279, "pitch": 66, "duration": 10, "velocity": 89}, {"time": 3291, "pitch": 58, "duration": 6, "velocity": 90}, {"time": 3291, "pitch": 63, "duration": 9, "velocity": 91}, {"time": 3303, "pitch": 58, "duration": 2, "velocity": 90}, {"time": 3309, "pitch": 44, "duration": 42, "velocity": 90}, {"time": 3309, "pitch": 56, "duration": 7, "velocity": 91}, {"time": 3315, "pitch": 51, "duration": 14, "velocity": 89}, {"time": 3321, "pitch": 56, "duration": 2, "velocity": 100}, {"time": 3327, "pitch": 56, "duration": 10, "velocity": 90}, {"time": 3327, "pitch": 60, "duration": 6, "velocity": 91}, {"time": 3327, "pitch": 63, "duration": 6, "velocity": 91}, {"time": 3333, "pitch": 51, "duration": 17, "velocity": 91}, {"time": 3339, "pitch": 60, "duration": 7, "velocity": 90}, {"time": 3339, "pitch": 63, "duration": 7, "velocity": 91}, {"time": 3339, "pitch": 68, "duration": 9, "velocity": 90}, {"time": 3345, "pitch": 56, "duration": 4, "velocity": 91}, {"time": 3357, "pitch": 49, "duration": 33, "velocity": 103}, {"time": 3357, "pitch": 56, "duration": 6, "velocity": 91}, {"time": 3357, "pitch": 61, "duration": 13, "velocity": 89}, {"time": 3363, "pitch": 53, "duration": 27, "velocity": 88}, {"time": 3369, "pitch": 56, "duration": 16, "velocity": 88}, {"time": 3375, "pitch": 61, "duration": 9, "velocity": 90}, {"time": 3387, "pitch": 56, "duration": 3, "velocity": 91}, {"time": 3387, "pitch": 61, "duration": 5, "velocity": 90}, {"time": 3387, "pitch": 65, "duration": 6, "velocity": 92}, {"time": 3405, "pitch": 44, "duration": 39, "velocity": 91}, {"time": 3405, "pitch": 60, "duration": 4, "velocity": 89}, {"time": 3405, "pitch": 63, "duration": 12, "velocity": 91}, {"time": 3411, "pitch": 51, "duration": 33, "velocity": 84}, {"time": 3417, "pitch": 60, "duration": 9, "velocity": 95}, {"time": 3423, "pitch": 63, "duration": 9, "velocity": 95}, {"time": 3435, "pitch": 60, "duration": 4, "velocity": 90}, {"time": 3435, "pitch": 63, "duration": 8, "velocity": 95}, {"time": 3435, "pitch": 68, "duration": 11, "velocity": 88}, {"time": 3453, "pitch": 46, "duration": 39, "velocity": 88}, {"time": 3453, "pitch": 58, "duration": 6, "velocity": 82}, {"time": 3453, "pitch": 61, "duration": 13, "velocity": 85}, {"time": 3459, "pitch": 53, "duration": 15, "velocity": 85}, {"time": 3465, "pitch": 58, "duration": 3, "velocity": 86}, {"time": 3471, "pitch": 58, "duration": 9, "velocity": 88}, {"time": 3471, "pitch": 61, "duration": 9, "velocity": 90}, {"time": 3471, "pitch": 65, "duration": 10, "velocity": 91}, {"time": 3477, "pitch": 53, "duration": 12, "velocity": 76}, {"time": 3483, "pitch": 58, "duration": 8, "velocity": 96}, {"time": 3489, "pitch": 61, "duration": 2, "velocity": 90}, {"time": 3501, "pitch": 41, "duration": 37, "velocity": 91}, {"time": 3501, "pitch": 53, "duration": 6, "velocity": 84}, {"time": 3501, "pitch": 56, "duration": 11, "velocity": 85}, {"time": 3507, "pitch": 48, "duration": 26, "velocity": 81}, {"time": 3513, "pitch": 53, "duration": 8, "velocity": 85}, {"time": 3519, "pitch": 56, "duration": 8, "velocity": 91}, {"time": 3531, "pitch": 53, "duration": 6, "velocity": 90}, {"time": 3531, "pitch": 60, "duration": 8, "velocity": 89}, {"time": 3537, "pitch": 48, "duration": 5, "velocity": 90}, {"time": 3549, "pitch": 42, "duration": 35, "velocity": 90}, {"time": 3549, "pitch": 54, "duration": 15, "velocity": 85}, {"time": 3549, "pitch": 58, "duration": 13, "velocity": 83}, {"time": 3555, "pitch": 49, "duration": 16, "velocity": 88}, {"time": 3561, "pitch": 61, "duration": 7, "velocity": 89}, {"time": 3567, "pitch": 66, "duration": 18, "velocity": 94}, {"time": 3573, "pitch": 49, "duration": 13, "velocity": 90}, {"time": 3579, "pitch": 61, "duration": 7, "velocity": 93}, {"time": 3585, "pitch": 58, "duration": 4, "velocity": 90}, {"time": 3591, "pitch": 54, "duration": 2, "velocity": 90}, {"time": 3597, "pitch": 49, "duration": 33, "velocity": 90}, {"time": 3597, "pitch": 56, "duration": 6, "velocity": 85}, {"time": 3597, "pitch": 61, "duration": 13, "velocity": 89}, {"time": 3603, "pitch": 53, "duration": 26, "velocity": 89}, {"time": 3609, "pitch": 56, "duration": 5, "velocity": 93}, {"time": 3615, "pitch": 56, "duration": 7, "velocity": 75}, {"time": 3615, "pitch": 65, "duration": 13, "velocity": 93}, {"time": 3627, "pitch": 61, "duration": 6, "velocity": 91}, {"time": 3633, "pitch": 56, "duration": 2, "velocity": 84}, {"time": 3645, "pitch": 39, "duration": 32, "velocity": 92}, {"time": 3645, "pitch": 58, "duration": 6, "velocity": 90}, {"time": 3645, "pitch": 66, "duration": 19, "velocity": 90}, {"time": 3651, "pitch": 46, "duration": 25, "velocity": 84}, {"time": 3657, "pitch": 58, "duration": 13, "velocity": 89}, {"time": 3663, "pitch": 63, "duration": 14, "velocity": 92}, {"time": 3693, "pitch": 44, "duration": 39, "velocity": 90}, {"time": 3693, "pitch": 56, "duration": 7, "velocity": 85}, {"time": 3693, "pitch": 63, "duration": 10, "velocity": 88}, {"time": 3699, "pitch": 51, "duration": 27, "velocity": 86}, {"time": 3705, "pitch": 56, "duration": 17, "velocity": 91}, {"time": 3711, "pitch": 63, "duration": 13, "velocity": 91}, {"time": 3723, "pitch": 68, "duration": 4, "velocity": 89}, {"time": 3741, "pitch": 49, "duration": 34, "velocity": 103}, {"time": 3741, "pitch": 56, "duration": 7, "velocity": 90}, {"time": 3741, "pitch": 61, "duration": 13, "velocity": 90}, {"time": 3747, "pitch": 53, "duration": 28, "velocity": 85}, {"time": 3753, "pitch": 56, "duration": 14, "velocity": 91}, {"time": 3759, "pitch": 61, "duration": 9, "velocity": 103}, {"time": 3771, "pitch": 56, "duration": 4, "velocity": 92}, {"time": 3771, "pitch": 61, "duration": 5, "velocity": 95}, {"time": 3771, "pitch": 65, "duration": 5, "velocity": 94}, {"time": 3789, "pitch": 44, "duration": 42, "velocity": 90}, {"time": 3789, "pitch": 60, "duration": 6, "velocity": 89}, {"time": 3789, "pitch": 63, "duration": 13, "velocity": 90}, {"time": 3795, "pitch": 51, "duration": 27, "velocity": 78}, {"time": 3801, "pitch": 60, "duration": 4, "velocity": 90}, {"time": 3807, "pitch": 60, "duration": 10, "velocity": 91}, {"time": 3807, "pitch": 63, "duration": 11, "velocity": 91}, {"time": 3807, "pitch": 68, "duration": 26, "velocity": 89}, {"time": 3819, "pitch": 60, "duration": 1, "velocity": 78}, {"time": 3819, "pitch": 63, "duration": 7, "velocity": 91}, {"time": 3825, "pitch": 60, "duration": 7, "velocity": 91}, {"time": 3837, "pitch": 46, "duration": 33, "velocity": 91}, {"time": 3837, "pitch": 58, "duration": 7, "velocity": 89}, {"time": 3837, "pitch": 61, "duration": 13, "velocity": 90}, {"time": 3843, "pitch": 53, "duration": 20, "velocity": 85}, {"time": 3849, "pitch": 58, "duration": 8, "velocity": 86}, {"time": 3855, "pitch": 61, "duration": 2, "velocity": 74}, {"time": 3861, "pitch": 58, "duration": 10, "velocity": 90}, {"time": 3861, "pitch": 61, "duration": 17, "velocity": 94}, {"time": 3861, "pitch": 65, "duration": 20, "velocity": 103}, {"time": 3867, "pitch": 53, "duration": 1, "velocity": 64}, {"time": 3873, "pitch": 53, "duration": 3, "velocity": 93}, {"time": 3879, "pitch": 58, "duration": 5, "velocity": 85}, {"time": 3885, "pitch": 41, "duration": 37, "velocity": 93}, {"time": 3885, "pitch": 61, "duration": 11, "velocity": 83}, {"time": 3891, "pitch": 48, "duration": 15, "velocity": 81}, {"time": 3897, "pitch": 56, "duration": 3, "velocity": 85}, {"time": 3903, "pitch": 56, "duration": 7, "velocity": 90}, {"time": 3903, "pitch": 60, "duration": 9, "velocity": 92}, {"time": 3909, "pitch": 48, "duration": 6, "velocity": 84}, {"time": 3915, "pitch": 56, "duration": 8, "velocity": 103}, {"time": 3921, "pitch": 48, "duration": 3, "velocity": 91}, {"time": 3933, "pitch": 42, "duration": 34, "velocity": 90}, {"time": 3933, "pitch": 54, "duration": 6, "velocity": 89}, {"time": 3933, "pitch": 58, "duration": 13, "velocity": 90}, {"time": 3939, "pitch": 49, "duration": 14, "velocity": 85}, {"time": 3945, "pitch": 54, "duration": 4, "velocity": 85}, {"time": 3951, "pitch": 54, "duration": 9, "velocity": 93}, {"time": 3951, "pitch": 61, "duration": 9, "velocity": 90}, {"time": 3957, "pitch": 49, "duration": 10, "velocity": 84}, {"time": 3963, "pitch": 54, "duration": 4, "velocity": 89}, {"time": 3963, "pitch": 58, "duration": 4, "velocity": 89}, {"time": 3981, "pitch": 49, "duration": 33, "velocity": 95}, {"time": 3981, "pitch": 56, "duration": 4, "velocity": 90}, {"time": 3981, "pitch": 65, "duration": 10, "velocity": 91}, {"time": 3987, "pitch": 56, "duration": 8, "velocity": 85}, {"time": 3993, "pitch": 61, "duration": 4, "velocity": 90}, {"time": 3999, "pitch": 56, "duration": 10, "velocity": 90}, {"time": 3999, "pitch": 61, "duration": 9, "velocity": 96}, {"time": 3999, "pitch": 65, "duration": 10, "velocity": 93}, {"time": 4011, "pitch": 56, "duration": 3, "velocity": 85}, {"time": 4011, "pitch": 61, "duration": 7, "velocity": 91}, {"time": 4017, "pitch": 56, "duration": 3, "velocity": 85}, {"time": 4029, "pitch": 39, "duration": 31, "velocity": 91}, {"time": 4029, "pitch": 58, "duration": 7, "velocity": 87}, {"time": 4029, "pitch": 63, "duration": 8, "velocity": 89}, {"time": 4035, "pitch": 46, "duration": 24, "velocity": 76}, {"time": 4041, "pitch": 58, "duration": 3, "velocity": 89}, {"time": 4047, "pitch": 58, "duration": 8, "velocity": 91}, {"time": 4047, "pitch": 66, "duration": 10, "velocity": 89}, {"time": 4059, "pitch": 58, "duration": 6, "velocity": 90}, {"time": 4059, "pitch": 63, "duration": 9, "velocity": 91}, {"time": 4071, "pitch": 58, "duration": 2, "velocity": 90}, {"time": 4077, "pitch": 44, "duration": 42, "velocity": 90}, {"time": 4077, "pitch": 56, "duration": 7, "velocity": 91}, {"time": 4083, "pitch": 51, "duration": 14, "velocity": 89}, {"time": 4089, "pitch": 56, "duration": 2, "velocity": 100}, {"time": 4095, "pitch": 56, "duration": 10, "velocity": 90}, {"time": 4095, "pitch": 60, "duration": 6, "velocity": 91}, {"time": 4095, "pitch": 63, "duration": 6, "velocity": 91}, {"time": 4101, "pitch": 51, "duration": 17, "velocity": 91}, {"time": 4107, "pitch": 60, "duration": 7, "velocity": 90}, {"time": 4107, "pitch": 63, "duration": 7, "velocity": 91}, {"time": 4107, "pitch": 68, "duration": 9, "velocity": 90}, {"time": 4113, "pitch": 56, "duration": 4, "velocity": 91}, {"time": 4125, "pitch": 49, "duration": 33, "velocity": 103}, {"time": 4125, "pitch": 56, "duration": 6, "velocity": 91}, {"time": 4125, "pitch": 61, "duration": 13, "velocity": 89}, {"time": 4131, "pitch": 53, "duration": 27, "velocity": 88}, {"time": 4137, "pitch": 56, "duration": 16, "velocity": 88}, {"time": 4143, "pitch": 61, "duration": 9, "velocity": 90}, {"time": 4155, "pitch": 56, "duration": 3, "velocity": 91}, {"time": 4155, "pitch": 61, "duration": 5, "velocity": 90}, {"time": 4155, "pitch": 65, "duration": 6, "velocity": 92}, {"time": 4173, "pitch": 44, "duration": 39, "velocity": 91}, {"time": 4173, "pitch": 60, "duration": 4, "velocity": 89}, {"time": 4173, "pitch": 63, "duration": 12, "velocity": 91}, {"time": 4179, "pitch": 51, "duration": 33, "velocity": 84}, {"time": 4185, "pitch": 60, "duration": 9, "velocity": 95}, {"time": 4191, "pitch": 63, "duration": 9, "velocity": 95}, {"time": 4203, "pitch": 60, "duration": 4, "velocity": 90}, {"time": 4203, "pitch": 63, "duration": 8, "velocity": 95}, {"time": 4203, "pitch": 68, "duration": 11, "velocity": 88}, {"time": 4221, "pitch": 46, "duration": 39, "velocity": 88}, {"time": 4221, "pitch": 58, "duration": 6, "velocity": 82}, {"time": 4221, "pitch": 61, "duration": 13, "velocity": 85}, {"time": 4227, "pitch": 53, "duration": 15, "velocity": 85}, {"time": 4233, "pitch": 58, "duration": 3, "velocity": 86}, {"time": 4239, "pitch": 58, "duration": 9, "velocity": 88}, {"time": 4239, "pitch": 61, "duration": 9, "velocity": 90}, {"time": 4239, "pitch": 65, "duration": 10, "velocity": 91}, {"time": 4245, "pitch": 53, "duration": 12, "velocity": 76}, {"time": 4251, "pitch": 58, "duration": 8, "velocity": 96}, {"time": 4257, "pitch": 61, "duration": 2, "velocity": 90}, {"time": 4269, "pitch": 41, "duration": 37, "velocity": 91}, {"time": 4269, "pitch": 53, "duration": 6, "velocity": 84}, {"time": 4269, "pitch": 56, "duration": 11, "velocity": 85}, {"time": 4275, "pitch": 48, "duration": 26, "velocity": 81}, {"time": 4281, "pitch": 53, "duration": 8, "velocity": 85}, {"time": 4287, "pitch": 56, "duration": 8, "velocity": 91}, {"time": 4299, "pitch": 53, "duration": 6, "velocity": 90}, {"time": 4299, "pitch": 60, "duration": 8, "velocity": 89}, {"time": 4305, "pitch": 48, "duration": 5, "velocity": 90}, {"time": 4317, "pitch": 42, "duration": 35, "velocity": 90}, {"time": 4317, "pitch": 54, "duration": 15, "velocity": 85}, {"time": 4317, "pitch": 58, "duration": 13, "velocity": 83}, {"time": 4323, "pitch": 49, "duration": 16, "velocity": 88}, {"time": 4329, "pitch": 61, "duration": 7, "velocity": 89}, {"time": 4335, "pitch": 66, "duration": 18, "velocity": 94}, {"time": 4341, "pitch": 49, "duration": 13, "velocity": 90}, {"time": 4347, "pitch": 61, "duration": 7, "velocity": 93}, {"time": 4353, "pitch": 58, "duration": 4, "velocity": 90}, {"time": 4359, "pitch": 54, "duration": 2, "velocity": 90}, {"time": 4365, "pitch": 49, "duration": 33, "velocity": 90}, {"time": 4365, "pitch": 56, "duration": 6, "velocity": 85}, {"time": 4365, "pitch": 61, "duration": 13, "velocity": 89}, {"time": 4371, "pitch": 53, "duration": 26, "velocity": 89}, {"time": 4377, "pitch": 56, "duration": 5, "velocity": 93}, {"time": 4383, "pitch": 56, "duration": 7, "velocity": 75}, {"time": 4383, "pitch": 65, "duration": 13, "velocity": 93}, {"time": 4395, "pitch": 61, "duration": 6, "velocity": 91}, {"time": 4401, "pitch": 56, "duration": 2, "velocity": 84}, {"time": 4413, "pitch": 39, "duration": 32, "velocity": 92}, {"time": 4413, "pitch": 58, "duration": 6, "velocity": 90}, {"time": 4413, "pitch": 66, "duration": 19, "velocity": 90}, {"time": 4419, "pitch": 46, "duration": 25, "velocity": 84}, {"time": 4425, "pitch": 58, "duration": 13, "velocity": 89}, {"time": 4431, "pitch": 63, "duration": 14, "velocity": 92}, {"time": 4461, "pitch": 44, "duration": 39, "velocity": 90}, {"time": 4461, "pitch": 56, "duration": 7, "velocity": 85}, {"time": 4461, "pitch": 63, "duration": 10, "velocity": 88}, {"time": 4467, "pitch": 51, "duration": 27, "velocity": 86}, {"time": 4473, "pitch": 56, "duration": 17, "velocity": 91}, {"time": 4479, "pitch": 63, "duration": 13, "velocity": 91}, {"time": 4491, "pitch": 68, "duration": 4, "velocity": 89}, {"time": 4505, "pitch": 56, "duration": 99, "velocity": 76}, {"time": 4507, "pitch": 60, "duration": 97, "velocity": 84}, {"time": 4507, "pitch": 44, "duration": 81, "velocity": 89}, {"time": 4508, "pitch": 63, "duration": 96, "velocity": 78}, {"time": 4509, "pitch": 68, "duration": 96, "velocity": 84}, {"time": 4605, "pitch": 49, "duration": 43, "velocity": 91}, {"time": 4611, "pitch": 56, "duration": 45, "velocity": 83}, {"time": 4617, "pitch": 63, "duration": 7, "velocity": 80}, {"time": 4623, "pitch": 61, "duration": 33, "velocity": 85}, {"time": 4623, "pitch": 65, "duration": 44, "velocity": 85}, {"time": 4653, "pitch": 48, "duration": 41, "velocity": 90}, {"time": 4659, "pitch": 56, "duration": 31, "velocity": 82}, {"time": 4665, "pitch": 63, "duration": 26, "velocity": 83}, {"time": 4671, "pitch": 60, "duration": 21, "velocity": 85}, {"time": 4671, "pitch": 68, "duration": 32, "velocity": 89}, {"time": 4701, "pitch": 46, "duration": 34, "velocity": 88}, {"time": 4701, "pitch": 58, "duration": 6, "velocity": 74}, {"time": 4701, "pitch": 61, "duration": 13, "velocity": 78}, {"time": 4707, "pitch": 53, "duration": 28, "velocity": 82}, {"time": 4713, "pitch": 58, "duration": 24, "velocity": 88}, {"time": 4719, "pitch": 61, "duration": 17, "velocity": 85}, {"time": 4719, "pitch": 65, "duration": 47, "velocity": 87}, {"time": 4749, "pitch": 44, "duration": 35, "velocity": 90}, {"time": 4755, "pitch": 51, "duration": 36, "velocity": 84}, {"time": 4761, "pitch": 56, "duration": 20, "velocity": 90}, {"time": 4767, "pitch": 60, "duration": 14, "velocity": 85}, {"time": 4767, "pitch": 63, "duration": 16, "velocity": 83}, {"time": 4797, "pitch": 42, "duration": 40, "velocity": 89}, {"time": 4797, "pitch": 58, "duration": 6, "velocity": 79}, {"time": 4797, "pitch": 61, "duration": 15, "velocity": 83}, {"time": 4803, "pitch": 49, "duration": 31, "velocity": 80}, {"time": 4809, "pitch": 58, "duration": 27, "velocity": 89}, {"time": 4815, "pitch": 61, "duration": 19, "velocity": 86}, {"time": 4815, "pitch": 66, "duration": 23, "velocity": 89}, {"time": 4845, "pitch": 41, "duration": 15, "velocity": 91}, {"time": 4845, "pitch": 60, "duration": 7, "velocity": 86}, {"time": 4845, "pitch": 65, "duration": 12, "velocity": 90}, {"time": 4845, "pitch": 68, "duration": 15, "velocity": 84}, {"time": 4851, "pitch": 48, "duration": 9, "velocity": 78}, {"time": 4857, "pitch": 60, "duration": 8, "velocity": 90}, {"time": 4863, "pitch": 65, "duration": 3, "velocity": 82}, {"time": 4869, "pitch": 46, "duration": 22, "velocity": 89}, {"time": 4869, "pitch": 58, "duration": 8, "velocity": 82}, {"time": 4869, "pitch": 61, "duration": 14, "velocity": 89}, {"time": 4875, "pitch": 53, "duration": 15, "velocity": 81}, {"time": 4881, "pitch": 58, "duration": 4, "velocity": 83}, {"time": 4893, "pitch": 51, "duration": 38, "velocity": 90}, {"time": 4893, "pitch": 58, "duration": 8, "velocity": 79}, {"time": 4893, "pitch": 63, "duration": 13, "velocity": 83}, {"time": 4899, "pitch": 54, "duration": 31, "velocity": 77}, {"time": 4905, "pitch": 58, "duration": 23, "velocity": 81}, {"time": 4911, "pitch": 63, "duration": 17, "velocity": 88}, {"time": 4941, "pitch": 44, "duration": 42, "velocity": 89}, {"time": 4947, "pitch": 51, "duration": 34, "velocity": 79}, {"time": 4953, "pitch": 56, "duration": 15, "velocity": 89}, {"time": 4959, "pitch": 63, "duration": 8, "velocity": 86}, {"time": 4965, "pitch": 68, "duration": 16, "velocity": 83}, {"time": 4971, "pitch": 63, "duration": 8, "velocity": 85}, {"time": 4977, "pitch": 56, "duration": 5, "velocity": 84}, {"time": 4988, "pitch": 56, "duration": 95, "velocity": 78}, {"time": 4989, "pitch": 44, "duration": 96, "velocity": 86}, {"time": 4989, "pitch": 60, "duration": 94, "velocity": 81}, {"time": 4990, "pitch": 68, "duration": 98, "velocity": 80}, {"time": 5087, "pitch": 37, "duration": 88, "velocity": 90}, {"time": 5095, "pitch": 44, "duration": 79, "velocity": 84}, {"time": 5101, "pitch": 51, "duration": 6, "velocity": 89}, {"time": 5106, "pitch": 53, "duration": 6, "velocity": 83}, {"time": 5112, "pitch": 56, "duration": 3, "velocity": 85}, {"time": 5118, "pitch": 61, "duration": 6, "velocity": 86}, {"time": 5126, "pitch": 63, "duration": 4, "velocity": 83}, {"time": 5134, "pitch": 65, "duration": 3, "velocity": 82}, {"time": 5144, "pitch": 68, "duration": 4, "velocity": 76}, {"time": 5144, "pitch": 65, "duration": 4, "velocity": 80}, {"time": 5152, "pitch": 65, "duration": 3, "velocity": 72}, {"time": 5153, "pitch": 68, "duration": 19, "velocity": 75}, {"time": 5155, "pitch": 73, "duration": 18, "velocity": 80}], "annotations": [{"time": 48, "annotation": {"number": 64, "value": 127}, "group": "control_change"}, {"time": 90, "annotation": {"number": 64, "value": 0}, "group": "control_change"}, {"time": 99, "annotation": {"number": 64, "value": 127}, "group": "control_change"}, {"time": 136, "annotation": {"number": 64, "value": 0}, "group": "control_change"}, {"time": 145, "annotation": {"number": 64, "value": 127}, "group": "control_change"}, {"time": 184, "annotation": {"number": 64, "value": 0}, "group": "control_change"}, {"time": 190, "annotation": {"number": 64, "value": 127}, "group": "control_change"}, {"time": 234, "annotation": {"number": 64, "value": 0}, "group": "control_change"}, {"time": 243, "annotation": {"number": 64, "value": 127}, "group": "control_change"}, {"time": 284, "annotation": {"number": 64, "value": 0}, "group": "control_change"}, {"time": 289, "annotation": {"number": 64, "value": 127}, "group": "control_change"}, {"time": 331, "annotation": {"number": 64, "value": 0}, "group": "control_change"}, {"time": 335, "annotation": {"number": 64, "value": 127}, "group": "control_change"}, {"time": 378, "annotation": {"number": 64, "value": 0}, "group": "control_change"}, {"time": 386, "annotation": {"number": 64, "value": 127}, "group": "control_change"}, {"time": 428, "annotation": {"number": 64, "value": 0}, "group": "control_change"}, {"time": 441, "annotation": {"number": 64, "value": 127}, "group": "control_change"}, {"time": 468, "annotation": {"number": 64, "value": 0}, "group": "control_change"}, {"time": 478, "annotation": {"number": 64, "value": 127}, "group": "control_change"}, {"time": 521, "annotation": {"number": 64, "value": 0}, "group": "control_change"}, {"time": 530, "annotation": {"number": 64, "value": 127}, "group": "control_change"}, {"time": 570, "annotation": {"number": 64, "value": 0}, "group": "control_change"}, {"time": 581, "annotation": {"number": 64, "value": 127}, "group": "control_change"}, {"time": 581, "annotation": {"number": 64, "value": 0}, "group": "control_change"}, {"time": 618, "annotation": {"number": 64, "value": 0}, "group": "control_change"}, {"time": 626, "annotation": {"number": 64, "value": 127}, "group": "control_change"}, {"time": 665, "annotation": {"number": 64, "value": 0}, "group": "control_change"}, {"time": 671, "annotation": {"number": 64, "value": 127}, "group": "control_change"}, {"time": 716, "annotation": {"number": 64, "value": 0}, "group": "control_change"}, {"time": 716, "annotation": {"number": 64, "value": 127}, "group": "control_change"}, {"time": 742, "annotation": {"number": 64, "value": 0}, "group": "control_change"}, {"time": 751, "annotation": {"number": 64, "value": 127}, "group": "control_change"}, {"time": 762, "annotation": {"number": 64, "value": 0}, "group": "control_change"}, {"time": 770, "annotation": {"number": 64, "value": 127}, "group": "control_change"}, {"time": 810, "annotation": {"number": 64, "value": 0}, "group": "control_change"}, {"time": 821, "annotation": {"number": 64, "value": 127}, "group": "control_change"}, {"time": 956, "annotation": {"number": 64, "value": 0}, "group": "control_change"}, {"time": 960, "annotation": {"number": 64, "value": 127}, "group": "control_change"}, {"time": 1002, "annotation": {"number": 64, "value": 0}, "group": "control_change"}, {"time": 1013, "annotation": {"number": 64, "value": 127}, "group": "control_change"}, {"time": 1051, "annotation": {"number": 64, "value": 0}, "group": "control_change"}, {"time": 1059, "annotation": {"number": 64, "value": 127}, "group": "control_change"}, {"time": 1098, "annotation": {"number": 64, "value": 0}, "group": "control_change"}, {"time": 1107, "annotation": {"number": 64, "value": 127}, "group": "control_change"}, {"time": 1146, "annotation": {"number": 64, "value": 0}, "group": "control_change"}, {"time": 1151, "annotation": {"number": 64, "value": 127}, "group": "control_change"}, {"time": 1173, "annotation": {"number": 64, "value": 0}, "group": "control_change"}, {"time": 1178, "annotation": {"number": 64, "value": 127}, "group": "control_change"}, {"time": 1194, "annotation": {"number": 64, "value": 0}, "group": "control_change"}, {"time": 1201, "annotation": {"number": 64, "value": 127}, "group": "control_change"}, {"time": 1243, "annotation": {"number": 64, "value": 0}, "group": "control_change"}, {"time": 1247, "annotation": {"number": 64, "value": 127}, "group": "control_change"}, {"time": 1290, "annotation": {"number": 64, "value": 0}, "group": "control_change"}, {"time": 1294, "annotation": {"number": 64, "value": 127}, "group": "control_change"}, {"time": 1335, "annotation": {"number": 64, "value": 0}, "group": "control_change"}, {"time": 1349, "annotation": {"number": 64, "value": 127}, "group": "control_change"}, {"time": 1385, "annotation": {"number": 64, "value": 0}, "group": "control_change"}, {"time": 1389, "annotation": {"number": 64, "value": 127}, "group": "control_change"}, {"time": 1435, "annotation": {"number": 64, "value": 0}, "group": "control_change"}, {"time": 1443, "annotation": {"number": 64, "value": 127}, "group": "control_change"}, {"time": 1483, "annotation": {"number": 64, "value": 0}, "group": "control_change"}, {"time": 1487, "annotation": {"number": 64, "value": 127}, "group": "control_change"}, {"time": 1530, "annotation": {"number": 64, "value": 0}, "group": "control_change"}, {"time": 1540, "annotation": {"number": 64, "value": 127}, "group": "control_change"}, {"time": 1578, "annotation": {"number": 64, "value": 0}, "group": "control_change"}, {"time": 1581, "annotation": {"number": 64, "value": 127}, "group": "control_change"}, {"time": 1626, "annotation": {"number": 64, "value": 0}, "group": "control_change"}, {"time": 1633, "annotation": {"number": 64, "value": 127}, "group": "control_change"}, {"time": 1675, "annotation": {"number": 64, "value": 0}, "group": "control_change"}, {"time": 1680, "annotation": {"number": 64, "value": 127}, "group": "control_change"}, {"time": 1720, "annotation": {"number": 64, "value": 0}, "group": "control_change"}, {"time": 1728, "annotation": {"number": 64, "value": 127}, "group": "control_change"}, {"time": 1770, "annotation": {"number": 64, "value": 0}, "group": "control_change"}, {"time": 1774, "annotation": {"number": 64, "value": 127}, "group": "control_change"}, {"time": 1819, "annotation": {"number": 64, "value": 0}, "group": "control_change"}, {"time": 1827, "annotation": {"number": 64, "value": 127}, "group": "control_change"}, {"time": 1869, "annotation": {"number": 64, "value": 0}, "group": "control_change"}, {"time": 1878, "annotation": {"number": 64, "value": 127}, "group": "control_change"}, {"time": 1916, "annotation": {"number": 64, "value": 0}, "group": "control_change"}, {"time": 1924, "annotation": {"number": 64, "value": 127}, "group": "control_change"}, {"time": 1963, "annotation": {"number": 64, "value": 0}, "group": "control_change"}, {"time": 1972, "annotation": {"number": 64, "value": 127}, "group": "control_change"}, {"time": 2009, "annotation": {"number": 64, "value": 0}, "group": "control_change"}, {"time": 2017, "annotation": {"number": 64, "value": 127}, "group": "control_change"}, {"time": 2058, "annotation": {"number": 64, "value": 0}, "group": "control_change"}, {"time": 2067, "annotation": {"number": 64, "value": 127}, "group": "control_change"}, {"time": 2106, "annotation": {"number": 64, "value": 0}, "group": "control_change"}, {"time": 2109, "annotation": {"number": 64, "value": 127}, "group": "control_change"}, {"time": 2150, "annotation": {"number": 64, "value": 0}, "group": "control_change"}, {"time": 2201, "annotation": {"number": 64, "value": 0}, "group": "control_change"}, {"time": 2215, "annotation": {"number": 64, "value": 127}, "group": "control_change"}, {"time": 2250, "annotation": {"number": 64, "value": 0}, "group": "control_change"}, {"time": 2261, "annotation": {"number": 64, "value": 127}, "group": "control_change"}, {"time": 2303, "annotation": {"number": 64, "value": 0}, "group": "control_change"}, {"time": 2308, "annotation": {"number": 64, "value": 127}, "group": "control_change"}, {"time": 2346, "annotation": {"number": 64, "value": 0}, "group": "control_change"}, {"time": 2351, "annotation": {"number": 64, "value": 127}, "group": "control_change"}, {"time": 2351, "annotation": {"number": 64, "value": 0}, "group": "control_change"}, {"time": 2352, "annotation": {"number": 64, "value": 127}, "group": "control_change"}, {"time": 2396, "annotation": {"number": 64, "value": 0}, "group": "control_change"}, {"time": 2402, "annotation": {"number": 64, "value": 127}, "group": "control_change"}, {"time": 2442, "annotation": {"number": 64, "value": 0}, "group": "control_change"}, {"time": 2447, "annotation": {"number": 64, "value": 127}, "group": "control_change"}, {"time": 2489, "annotation": {"number": 64, "value": 0}, "group": "control_change"}, {"time": 2494, "annotation": {"number": 64, "value": 127}, "group": "control_change"}, {"time": 2517, "annotation": {"number": 64, "value": 127}, "group": "control_change"}, {"time": 2537, "annotation": {"number": 64, "value": 0}, "group": "control_change"}, {"time": 2540, "annotation": {"number": 64, "value": 0}, "group": "control_change"}, {"time": 2588, "annotation": {"number": 64, "value": 0}, "group": "control_change"}, {"time": 2592, "annotation": {"number": 64, "value": 127}, "group": "control_change"}, {"time": 2634, "annotation": {"number": 64, "value": 0}, "group": "control_change"}, {"time": 2645, "annotation": {"number": 64, "value": 127}, "group": "control_change"}, {"time": 2683, "annotation": {"number": 64, "value": 0}, "group": "control_change"}, {"time": 2691, "annotation": {"number": 64, "value": 127}, "group": "control_change"}, {"time": 2730, "annotation": {"number": 64, "value": 0}, "group": "control_change"}, {"time": 2739, "annotation": {"number": 64, "value": 127}, "group": "control_change"}, {"time": 2778, "annotation": {"number": 64, "value": 0}, "group": "control_change"}, {"time": 2783, "annotation": {"number": 64, "value": 127}, "group": "control_change"}, {"time": 2805, "annotation": {"number": 64, "value": 0}, "group": "control_change"}, {"time": 2810, "annotation": {"number": 64, "value": 127}, "group": "control_change"}, {"time": 2826, "annotation": {"number": 64, "value": 0}, "group": "control_change"}, {"time": 2833, "annotation": {"number": 64, "value": 127}, "group": "control_change"}, {"time": 2875, "annotation": {"number": 64, "value": 0}, "group": "control_change"}, {"time": 2879, "annotation": {"number": 64, "value": 127}, "group": "control_change"}, {"time": 2922, "annotation": {"number": 64, "value": 0}, "group": "control_change"}, {"time": 2926, "annotation": {"number": 64, "value": 127}, "group": "control_change"}, {"time": 2967, "annotation": {"number": 64, "value": 0}, "group": "control_change"}, {"time": 2981, "annotation": {"number": 64, "value": 127}, "group": "control_change"}, {"time": 3017, "annotation": {"number": 64, "value": 0}, "group": "control_change"}, {"time": 3021, "annotation": {"number": 64, "value": 127}, "group": "control_change"}, {"time": 3067, "annotation": {"number": 64, "value": 0}, "group": "control_change"}, {"time": 3075, "annotation": {"number": 64, "value": 127}, "group": "control_change"}, {"time": 3115, "annotation": {"number": 64, "value": 0}, "group": "control_change"}, {"time": 3119, "annotation": {"number": 64, "value": 127}, "group": "control_change"}, {"time": 3162, "annotation": {"number": 64, "value": 0}, "group": "control_change"}, {"time": 3172, "annotation": {"number": 64, "value": 127}, "group": "control_change"}, {"time": 3210, "annotation": {"number": 64, "value": 0}, "group": "control_change"}, {"time": 3213, "annotation": {"number": 64, "value": 127}, "group": "control_change"}, {"time": 3258, "annotation": {"number": 64, "value": 0}, "group": "control_change"}, {"time": 3265, "annotation": {"number": 64, "value": 127}, "group": "control_change"}, {"time": 3307, "annotation": {"number": 64, "value": 0}, "group": "control_change"}, {"time": 3312, "annotation": {"number": 64, "value": 127}, "group": "control_change"}, {"time": 3352, "annotation": {"number": 64, "value": 0}, "group": "control_change"}, {"time": 3360, "annotation": {"number": 64, "value": 127}, "group": "control_change"}, {"time": 3402, "annotation": {"number": 64, "value": 0}, "group": "control_change"}, {"time": 3406, "annotation": {"number": 64, "value": 127}, "group": "control_change"}, {"time": 3451, "annotation": {"number": 64, "value": 0}, "group": "control_change"}, {"time": 3459, "annotation": {"number": 64, "value": 127}, "group": "control_change"}, {"time": 3501, "annotation": {"number": 64, "value": 0}, "group": "control_change"}, {"time": 3510, "annotation": {"number": 64, "value": 127}, "group": "control_change"}, {"time": 3548, "annotation": {"number": 64, "value": 0}, "group": "control_change"}, {"time": 3556, "annotation": {"number": 64, "value": 127}, "group": "control_change"}, {"time": 3595, "annotation": {"number": 64, "value": 0}, "group": "control_change"}, {"time": 3604, "annotation": {"number": 64, "value": 127}, "group": "control_change"}, {"time": 3641, "annotation": {"number": 64, "value": 0}, "group": "control_change"}, {"time": 3649, "annotation": {"number": 64, "value": 127}, "group": "control_change"}, {"time": 3690, "annotation": {"number": 64, "value": 0}, "group": "control_change"}, {"time": 3699, "annotation": {"number": 64, "value": 127}, "group": "control_change"}, {"time": 3738, "annotation": {"number": 64, "value": 0}, "group": "control_change"}, {"time": 3741, "annotation": {"number": 64, "value": 127}, "group": "control_change"}, {"time": 3749, "annotation": {"number": 64, "value": 127}, "group": "control_change"}, {"time": 3785, "annotation": {"number": 64, "value": 0}, "group": "control_change"}, {"time": 3789, "annotation": {"number": 64, "value": 127}, "group": "control_change"}, {"time": 3835, "annotation": {"number": 64, "value": 0}, "group": "control_change"}, {"time": 3843, "annotation": {"number": 64, "value": 127}, "group": "control_change"}, {"time": 3883, "annotation": {"number": 64, "value": 0}, "group": "control_change"}, {"time": 3887, "annotation": {"number": 64, "value": 127}, "group": "control_change"}, {"time": 3930, "annotation": {"number": 64, "value": 0}, "group": "control_change"}, {"time": 3940, "annotation": {"number": 64, "value": 127}, "group": "control_change"}, {"time": 3978, "annotation": {"number": 64, "value": 0}, "group": "control_change"}, {"time": 3981, "annotation": {"number": 64, "value": 127}, "group": "control_change"}, {"time": 4026, "annotation": {"number": 64, "value": 0}, "group": "control_change"}, {"time": 4033, "annotation": {"number": 64, "value": 127}, "group": "control_change"}, {"time": 4075, "annotation": {"number": 64, "value": 0}, "group": "control_change"}, {"time": 4080, "annotation": {"number": 64, "value": 127}, "group": "control_change"}, {"time": 4120, "annotation": {"number": 64, "value": 0}, "group": "control_change"}, {"time": 4128, "annotation": {"number": 64, "value": 127}, "group": "control_change"}, {"time": 4170, "annotation": {"number": 64, "value": 0}, "group": "control_change"}, {"time": 4174, "annotation": {"number": 64, "value": 127}, "group": "control_change"}, {"time": 4219, "annotation": {"number": 64, "value": 0}, "group": "control_change"}, {"time": 4227, "annotation": {"number": 64, "value": 127}, "group": "control_change"}, {"time": 4269, "annotation": {"number": 64, "value": 0}, "group": "control_change"}, {"time": 4278, "annotation": {"number": 64, "value": 127}, "group": "control_change"}, {"time": 4316, "annotation": {"number": 64, "value": 0}, "group": "control_change"}, {"time": 4324, "annotation": {"number": 64, "value": 127}, "group": "control_change"}, {"time": 4363, "annotation": {"number": 64, "value": 0}, "group": "control_change"}, {"time": 4372, "annotation": {"number": 64, "value": 127}, "group": "control_change"}, {"time": 4409, "annotation": {"number": 64, "value": 0}, "group": "control_change"}, {"time": 4417, "annotation": {"number": 64, "value": 127}, "group": "control_change"}, {"time": 4458, "annotation": {"number": 64, "value": 0}, "group": "control_change"}, {"time": 4467, "annotation": {"number": 64, "value": 127}, "group": "control_change"}, {"time": 4506, "annotation": {"number": 64, "value": 0}, "group": "control_change"}, {"time": 4508, "annotation": {"number": 64, "value": 127}, "group": "control_change"}, {"time": 4509, "annotation": {"number": 64, "value": 127}, "group": "control_change"}, {"time": 4579, "annotation": {"number": 64, "value": 0}, "group": "control_change"}, {"time": 4606, "annotation": {"number": 64, "value": 127}, "group": "control_change"}, {"time": 4649, "annotation": {"number": 64, "value": 0}, "group": "control_change"}, {"time": 4658, "annotation": {"number": 64, "value": 127}, "group": "control_change"}, {"time": 4698, "annotation": {"number": 64, "value": 0}, "group": "control_change"}, {"time": 4709, "annotation": {"number": 64, "value": 127}, "group": "control_change"}, {"time": 4709, "annotation": {"number": 64, "value": 0}, "group": "control_change"}, {"time": 4746, "annotation": {"number": 64, "value": 0}, "group": "control_change"}, {"time": 4754, "annotation": {"number": 64, "value": 127}, "group": "control_change"}, {"time": 4793, "annotation": {"number": 64, "value": 0}, "group": "control_change"}, {"time": 4799, "annotation": {"number": 64, "value": 127}, "group": "control_change"}, {"time": 4844, "annotation": {"number": 64, "value": 0}, "group": "control_change"}, {"time": 4844, "annotation": {"number": 64, "value": 127}, "group": "control_change"}, {"time": 4870, "annotation": {"number": 64, "value": 0}, "group": "control_change"}, {"time": 4879, "annotation": {"number": 64, "value": 127}, "group": "control_change"}, {"time": 4890, "annotation": {"number": 64, "value": 0}, "group": "control_change"}, {"time": 4898, "annotation": {"number": 64, "value": 127}, "group": "control_change"}, {"time": 4938, "annotation": {"number": 64, "value": 0}, "group": "control_change"}, {"time": 4949, "annotation": {"number": 64, "value": 127}, "group": "control_change"}, {"time": 5096, "annotation": {"number": 64, "value": 127}, "group": "control_change"}, {"time": 5096, "annotation": {"number": 64, "value": 0}, "group": "control_change"}, {"time": 5097, "annotation": {"number": 64, "value": 127}, "group": "control_change"}]}]}