{"metadata": {"schema_version": "0.2", "title": "None", "source_filename": "525.mid", "source_format": "midi"}, "resolution": 12, "tempos": [{"time": 0, "qpm": 95.00014250021376}], "time_signatures": [{"time": 0, "numerator": 1, "denominator": 4}], "tracks": [{"program": 0, "is_drum": false, "name": "MELODY", "notes": [{"time": 205, "pitch": 73, "duration": 5, "velocity": 85}, {"time": 211, "pitch": 73, "duration": 6, "velocity": 91}, {"time": 217, "pitch": 71, "duration": 6, "velocity": 90}, {"time": 223, "pitch": 73, "duration": 5, "velocity": 93}, {"time": 229, "pitch": 73, "duration": 5, "velocity": 92}, {"time": 235, "pitch": 71, "duration": 5, "velocity": 93}, {"time": 241, "pitch": 73, "duration": 6, "velocity": 92}, {"time": 247, "pitch": 71, "duration": 36, "velocity": 93}, {"time": 301, "pitch": 73, "duration": 2, "velocity": 96}, {"time": 307, "pitch": 73, "duration": 4, "velocity": 96}, {"time": 313, "pitch": 73, "duration": 4, "velocity": 85}, {"time": 319, "pitch": 76, "duration": 5, "velocity": 91}, {"time": 325, "pitch": 75, "duration": 5, "velocity": 90}, {"time": 331, "pitch": 73, "duration": 5, "velocity": 97}, {"time": 337, "pitch": 71, "duration": 4, "velocity": 93}, {"time": 343, "pitch": 68, "duration": 39, "velocity": 91}, {"time": 397, "pitch": 78, "duration": 5, "velocity": 87}, {"time": 403, "pitch": 78, "duration": 8, "velocity": 93}, {"time": 412, "pitch": 71, "duration": 3, "velocity": 92}, {"time": 415, "pitch": 78, "duration": 4, "velocity": 92}, {"time": 421, "pitch": 78, "duration": 5, "velocity": 93}, {"time": 427, "pitch": 71, "duration": 4, "velocity": 91}, {"time": 433, "pitch": 73, "duration": 4, "velocity": 93}, {"time": 439, "pitch": 76, "duration": 5, "velocity": 93}, {"time": 445, "pitch": 73, "duration": 25, "velocity": 94}, {"time": 493, "pitch": 78, "duration": 5, "velocity": 91}, {"time": 499, "pitch": 78, "duration": 5, "velocity": 93}, {"time": 505, "pitch": 71, "duration": 4, "velocity": 98}, {"time": 511, "pitch": 71, "duration": 5, "velocity": 91}, {"time": 517, "pitch": 68, "duration": 4, "velocity": 92}, {"time": 523, "pitch": 71, "duration": 4, "velocity": 92}, {"time": 529, "pitch": 73, "duration": 33, "velocity": 90}, {"time": 589, "pitch": 73, "duration": 3, "velocity": 84}, {"time": 595, "pitch": 73, "duration": 7, "velocity": 92}, {"time": 604, "pitch": 71, "duration": 2, "velocity": 91}, {"time": 607, "pitch": 73, "duration": 4, "velocity": 93}, {"time": 613, "pitch": 73, "duration": 5, "velocity": 87}, {"time": 619, "pitch": 71, "duration": 4, "velocity": 93}, {"time": 625, "pitch": 73, "duration": 6, "velocity": 91}, {"time": 631, "pitch": 71, "duration": 26, "velocity": 92}, {"time": 685, "pitch": 73, "duration": 5, "velocity": 93}, {"time": 691, "pitch": 73, "duration": 4, "velocity": 92}, {"time": 697, "pitch": 73, "duration": 5, "velocity": 93}, {"time": 703, "pitch": 76, "duration": 4, "velocity": 93}, {"time": 709, "pitch": 75, "duration": 5, "velocity": 91}, {"time": 715, "pitch": 73, "duration": 4, "velocity": 96}, {"time": 721, "pitch": 71, "duration": 4, "velocity": 97}, {"time": 727, "pitch": 68, "duration": 40, "velocity": 93}, {"time": 781, "pitch": 78, "duration": 5, "velocity": 92}, {"time": 787, "pitch": 78, "duration": 4, "velocity": 95}, {"time": 793, "pitch": 71, "duration": 4, "velocity": 95}, {"time": 799, "pitch": 78, "duration": 4, "velocity": 92}, {"time": 805, "pitch": 78, "duration": 4, "velocity": 92}, {"time": 811, "pitch": 71, "duration": 4, "velocity": 96}, {"time": 817, "pitch": 73, "duration": 5, "velocity": 93}, {"time": 823, "pitch": 80, "duration": 5, "velocity": 92}, {"time": 829, "pitch": 76, "duration": 4, "velocity": 76}, {"time": 835, "pitch": 73, "duration": 4, "velocity": 96}, {"time": 841, "pitch": 76, "duration": 4, "velocity": 96}, {"time": 847, "pitch": 73, "duration": 23, "velocity": 97}, {"time": 877, "pitch": 78, "duration": 4, "velocity": 92}, {"time": 883, "pitch": 78, "duration": 4, "velocity": 92}, {"time": 889, "pitch": 71, "duration": 4, "velocity": 93}, {"time": 895, "pitch": 71, "duration": 4, "velocity": 91}, {"time": 901, "pitch": 68, "duration": 4, "velocity": 94}, {"time": 907, "pitch": 71, "duration": 4, "velocity": 92}, {"time": 913, "pitch": 73, "duration": 39, "velocity": 86}, {"time": 973, "pitch": 76, "duration": 5, "velocity": 97}, {"time": 979, "pitch": 78, "duration": 4, "velocity": 95}, {"time": 985, "pitch": 76, "duration": 3, "velocity": 93}, {"time": 991, "pitch": 75, "duration": 3, "velocity": 93}, {"time": 994, "pitch": 76, "duration": 3, "velocity": 97}, {"time": 997, "pitch": 75, "duration": 3, "velocity": 95}, {"time": 1000, "pitch": 73, "duration": 2, "velocity": 93}, {"time": 1003, "pitch": 71, "duration": 5, "velocity": 97}, {"time": 1009, "pitch": 73, "duration": 51, "velocity": 95}, {"time": 1069, "pitch": 76, "duration": 5, "velocity": 97}, {"time": 1075, "pitch": 78, "duration": 4, "velocity": 95}, {"time": 1081, "pitch": 76, "duration": 3, "velocity": 93}, {"time": 1087, "pitch": 75, "duration": 3, "velocity": 97}, {"time": 1090, "pitch": 76, "duration": 2, "velocity": 93}, {"time": 1093, "pitch": 75, "duration": 3, "velocity": 95}, {"time": 1096, "pitch": 73, "duration": 2, "velocity": 93}, {"time": 1099, "pitch": 71, "duration": 5, "velocity": 97}, {"time": 1105, "pitch": 68, "duration": 51, "velocity": 95}, {"time": 1165, "pitch": 68, "duration": 3, "velocity": 91}, {"time": 1168, "pitch": 69, "duration": 4, "velocity": 86}, {"time": 1171, "pitch": 71, "duration": 5, "velocity": 98}, {"time": 1177, "pitch": 73, "duration": 2, "velocity": 95}, {"time": 1183, "pitch": 75, "duration": 5, "velocity": 87}, {"time": 1186, "pitch": 76, "duration": 4, "velocity": 93}, {"time": 1189, "pitch": 75, "duration": 3, "velocity": 93}, {"time": 1192, "pitch": 73, "duration": 3, "velocity": 91}, {"time": 1195, "pitch": 71, "duration": 5, "velocity": 98}, {"time": 1201, "pitch": 69, "duration": 17, "velocity": 100}, {"time": 1243, "pitch": 73, "duration": 5, "velocity": 87}, {"time": 1249, "pitch": 76, "duration": 5, "velocity": 93}, {"time": 1255, "pitch": 75, "duration": 5, "velocity": 95}, {"time": 1261, "pitch": 71, "duration": 10, "velocity": 92}, {"time": 1273, "pitch": 69, "duration": 10, "velocity": 91}, {"time": 1285, "pitch": 68, "duration": 5, "velocity": 97}, {"time": 1291, "pitch": 66, "duration": 5, "velocity": 93}, {"time": 1297, "pitch": 69, "duration": 4, "velocity": 89}, {"time": 1303, "pitch": 68, "duration": 38, "velocity": 92}, {"time": 1357, "pitch": 76, "duration": 5, "velocity": 97}, {"time": 1363, "pitch": 78, "duration": 4, "velocity": 95}, {"time": 1369, "pitch": 76, "duration": 3, "velocity": 93}, {"time": 1375, "pitch": 76, "duration": 5, "velocity": 93}, {"time": 1381, "pitch": 75, "duration": 3, "velocity": 95}, {"time": 1384, "pitch": 73, "duration": 2, "velocity": 93}, {"time": 1387, "pitch": 71, "duration": 5, "velocity": 97}, {"time": 1393, "pitch": 73, "duration": 51, "velocity": 95}, {"time": 1453, "pitch": 76, "duration": 5, "velocity": 97}, {"time": 1459, "pitch": 78, "duration": 4, "velocity": 95}, {"time": 1465, "pitch": 76, "duration": 3, "velocity": 93}, {"time": 1471, "pitch": 76, "duration": 5, "velocity": 93}, {"time": 1477, "pitch": 75, "duration": 3, "velocity": 95}, {"time": 1480, "pitch": 73, "duration": 2, "velocity": 93}, {"time": 1483, "pitch": 71, "duration": 5, "velocity": 97}, {"time": 1489, "pitch": 68, "duration": 51, "velocity": 95}, {"time": 1549, "pitch": 68, "duration": 3, "velocity": 91}, {"time": 1552, "pitch": 69, "duration": 4, "velocity": 86}, {"time": 1555, "pitch": 71, "duration": 5, "velocity": 98}, {"time": 1561, "pitch": 73, "duration": 2, "velocity": 95}, {"time": 1567, "pitch": 75, "duration": 5, "velocity": 87}, {"time": 1570, "pitch": 76, "duration": 4, "velocity": 93}, {"time": 1573, "pitch": 75, "duration": 3, "velocity": 93}, {"time": 1576, "pitch": 73, "duration": 3, "velocity": 91}, {"time": 1579, "pitch": 71, "duration": 5, "velocity": 98}, {"time": 1585, "pitch": 69, "duration": 17, "velocity": 100}, {"time": 1621, "pitch": 61, "duration": 5, "velocity": 102}, {"time": 1627, "pitch": 73, "duration": 4, "velocity": 91}, {"time": 1633, "pitch": 71, "duration": 3, "velocity": 86}, {"time": 1636, "pitch": 69, "duration": 2, "velocity": 91}, {"time": 1639, "pitch": 68, "duration": 37, "velocity": 93}, {"time": 1681, "pitch": 69, "duration": 4, "velocity": 93}, {"time": 1687, "pitch": 66, "duration": 47, "velocity": 102}, {"time": 2125, "pitch": 76, "duration": 3, "velocity": 84}, {"time": 2131, "pitch": 76, "duration": 6, "velocity": 92}, {"time": 2137, "pitch": 76, "duration": 6, "velocity": 92}, {"time": 2143, "pitch": 76, "duration": 4, "velocity": 93}, {"time": 2149, "pitch": 76, "duration": 5, "velocity": 87}, {"time": 2155, "pitch": 75, "duration": 4, "velocity": 93}, {"time": 2161, "pitch": 73, "duration": 6, "velocity": 91}, {"time": 2167, "pitch": 71, "duration": 26, "velocity": 92}, {"time": 2221, "pitch": 76, "duration": 5, "velocity": 93}, {"time": 2227, "pitch": 76, "duration": 4, "velocity": 92}, {"time": 2233, "pitch": 76, "duration": 5, "velocity": 93}, {"time": 2239, "pitch": 78, "duration": 4, "velocity": 93}, {"time": 2245, "pitch": 76, "duration": 5, "velocity": 91}, {"time": 2251, "pitch": 75, "duration": 4, "velocity": 96}, {"time": 2257, "pitch": 71, "duration": 4, "velocity": 97}, {"time": 2263, "pitch": 68, "duration": 40, "velocity": 93}, {"time": 2317, "pitch": 78, "duration": 5, "velocity": 92}, {"time": 2323, "pitch": 78, "duration": 4, "velocity": 95}, {"time": 2329, "pitch": 71, "duration": 4, "velocity": 95}, {"time": 2335, "pitch": 78, "duration": 4, "velocity": 92}, {"time": 2341, "pitch": 78, "duration": 4, "velocity": 92}, {"time": 2347, "pitch": 71, "duration": 4, "velocity": 96}, {"time": 2353, "pitch": 73, "duration": 5, "velocity": 93}, {"time": 2359, "pitch": 80, "duration": 5, "velocity": 92}, {"time": 2365, "pitch": 76, "duration": 4, "velocity": 76}, {"time": 2371, "pitch": 73, "duration": 4, "velocity": 96}, {"time": 2377, "pitch": 76, "duration": 4, "velocity": 96}, {"time": 2383, "pitch": 73, "duration": 23, "velocity": 97}, {"time": 2413, "pitch": 78, "duration": 4, "velocity": 92}, {"time": 2419, "pitch": 78, "duration": 4, "velocity": 92}, {"time": 2425, "pitch": 71, "duration": 4, "velocity": 93}, {"time": 2431, "pitch": 71, "duration": 4, "velocity": 91}, {"time": 2437, "pitch": 68, "duration": 4, "velocity": 94}, {"time": 2443, "pitch": 71, "duration": 4, "velocity": 92}, {"time": 2449, "pitch": 73, "duration": 39, "velocity": 86}, {"time": 2509, "pitch": 76, "duration": 5, "velocity": 97}, {"time": 2515, "pitch": 78, "duration": 4, "velocity": 95}, {"time": 2521, "pitch": 76, "duration": 3, "velocity": 93}, {"time": 2527, "pitch": 76, "duration": 5, "velocity": 93}, {"time": 2533, "pitch": 75, "duration": 3, "velocity": 95}, {"time": 2536, "pitch": 73, "duration": 2, "velocity": 93}, {"time": 2539, "pitch": 71, "duration": 5, "velocity": 97}, {"time": 2545, "pitch": 73, "duration": 51, "velocity": 95}, {"time": 2605, "pitch": 76, "duration": 5, "velocity": 97}, {"time": 2611, "pitch": 78, "duration": 4, "velocity": 95}, {"time": 2617, "pitch": 76, "duration": 3, "velocity": 93}, {"time": 2623, "pitch": 76, "duration": 5, "velocity": 93}, {"time": 2629, "pitch": 75, "duration": 3, "velocity": 95}, {"time": 2632, "pitch": 73, "duration": 2, "velocity": 93}, {"time": 2635, "pitch": 71, "duration": 5, "velocity": 97}, {"time": 2641, "pitch": 68, "duration": 51, "velocity": 95}, {"time": 2701, "pitch": 68, "duration": 3, "velocity": 91}, {"time": 2704, "pitch": 69, "duration": 4, "velocity": 86}, {"time": 2707, "pitch": 71, "duration": 5, "velocity": 98}, {"time": 2713, "pitch": 73, "duration": 2, "velocity": 95}, {"time": 2719, "pitch": 75, "duration": 5, "velocity": 87}, {"time": 2722, "pitch": 76, "duration": 4, "velocity": 93}, {"time": 2725, "pitch": 75, "duration": 3, "velocity": 93}, {"time": 2728, "pitch": 73, "duration": 3, "velocity": 91}, {"time": 2731, "pitch": 71, "duration": 5, "velocity": 98}, {"time": 2737, "pitch": 69, "duration": 17, "velocity": 100}, {"time": 2779, "pitch": 73, "duration": 5, "velocity": 87}, {"time": 2785, "pitch": 76, "duration": 5, "velocity": 93}, {"time": 2791, "pitch": 75, "duration": 5, "velocity": 95}, {"time": 2797, "pitch": 71, "duration": 10, "velocity": 92}, {"time": 2809, "pitch": 69, "duration": 10, "velocity": 91}, {"time": 2821, "pitch": 68, "duration": 5, "velocity": 97}, {"time": 2827, "pitch": 66, "duration": 5, "velocity": 93}, {"time": 2833, "pitch": 69, "duration": 4, "velocity": 89}, {"time": 2839, "pitch": 68, "duration": 38, "velocity": 92}, {"time": 2893, "pitch": 76, "duration": 5, "velocity": 97}, {"time": 2899, "pitch": 78, "duration": 4, "velocity": 95}, {"time": 2905, "pitch": 76, "duration": 3, "velocity": 93}, {"time": 2911, "pitch": 76, "duration": 5, "velocity": 93}, {"time": 2917, "pitch": 75, "duration": 3, "velocity": 95}, {"time": 2920, "pitch": 73, "duration": 2, "velocity": 93}, {"time": 2923, "pitch": 71, "duration": 5, "velocity": 97}, {"time": 2929, "pitch": 73, "duration": 51, "velocity": 95}, {"time": 2989, "pitch": 76, "duration": 5, "velocity": 97}, {"time": 2995, "pitch": 78, "duration": 4, "velocity": 95}, {"time": 3001, "pitch": 76, "duration": 3, "velocity": 93}, {"time": 3007, "pitch": 76, "duration": 5, "velocity": 93}, {"time": 3013, "pitch": 75, "duration": 3, "velocity": 95}, {"time": 3016, "pitch": 73, "duration": 2, "velocity": 93}, {"time": 3019, "pitch": 71, "duration": 5, "velocity": 97}, {"time": 3025, "pitch": 68, "duration": 51, "velocity": 95}, {"time": 3085, "pitch": 68, "duration": 3, "velocity": 91}, {"time": 3088, "pitch": 69, "duration": 4, "velocity": 86}, {"time": 3091, "pitch": 71, "duration": 5, "velocity": 98}, {"time": 3097, "pitch": 73, "duration": 2, "velocity": 95}, {"time": 3103, "pitch": 75, "duration": 5, "velocity": 87}, {"time": 3106, "pitch": 76, "duration": 4, "velocity": 93}, {"time": 3109, "pitch": 75, "duration": 3, "velocity": 93}, {"time": 3112, "pitch": 73, "duration": 3, "velocity": 91}, {"time": 3115, "pitch": 71, "duration": 5, "velocity": 98}, {"time": 3121, "pitch": 69, "duration": 17, "velocity": 100}, {"time": 3157, "pitch": 61, "duration": 5, "velocity": 102}, {"time": 3163, "pitch": 73, "duration": 4, "velocity": 91}, {"time": 3169, "pitch": 71, "duration": 3, "velocity": 86}, {"time": 3172, "pitch": 69, "duration": 2, "velocity": 91}, {"time": 3175, "pitch": 68, "duration": 37, "velocity": 93}, {"time": 3217, "pitch": 69, "duration": 4, "velocity": 93}, {"time": 3223, "pitch": 66, "duration": 47, "velocity": 102}, {"time": 3277, "pitch": 76, "duration": 3, "velocity": 84}, {"time": 3283, "pitch": 76, "duration": 6, "velocity": 92}, {"time": 3289, "pitch": 76, "duration": 6, "velocity": 92}, {"time": 3295, "pitch": 76, "duration": 4, "velocity": 93}, {"time": 3301, "pitch": 76, "duration": 5, "velocity": 87}, {"time": 3307, "pitch": 75, "duration": 4, "velocity": 93}, {"time": 3313, "pitch": 73, "duration": 6, "velocity": 91}, {"time": 3319, "pitch": 71, "duration": 26, "velocity": 92}, {"time": 3373, "pitch": 76, "duration": 5, "velocity": 93}, {"time": 3379, "pitch": 76, "duration": 4, "velocity": 92}, {"time": 3385, "pitch": 76, "duration": 5, "velocity": 93}, {"time": 3391, "pitch": 78, "duration": 4, "velocity": 93}, {"time": 3397, "pitch": 76, "duration": 5, "velocity": 91}, {"time": 3403, "pitch": 75, "duration": 4, "velocity": 96}, {"time": 3409, "pitch": 71, "duration": 4, "velocity": 97}, {"time": 3415, "pitch": 68, "duration": 40, "velocity": 93}, {"time": 3469, "pitch": 78, "duration": 5, "velocity": 92}, {"time": 3475, "pitch": 78, "duration": 4, "velocity": 95}, {"time": 3481, "pitch": 71, "duration": 4, "velocity": 95}, {"time": 3487, "pitch": 78, "duration": 4, "velocity": 92}, {"time": 3493, "pitch": 78, "duration": 4, "velocity": 92}, {"time": 3499, "pitch": 71, "duration": 4, "velocity": 96}, {"time": 3505, "pitch": 73, "duration": 5, "velocity": 93}, {"time": 3511, "pitch": 80, "duration": 5, "velocity": 92}, {"time": 3517, "pitch": 76, "duration": 4, "velocity": 76}, {"time": 3523, "pitch": 73, "duration": 4, "velocity": 96}, {"time": 3529, "pitch": 76, "duration": 4, "velocity": 96}, {"time": 3535, "pitch": 73, "duration": 23, "velocity": 97}, {"time": 3565, "pitch": 78, "duration": 4, "velocity": 92}, {"time": 3571, "pitch": 78, "duration": 4, "velocity": 92}, {"time": 3577, "pitch": 71, "duration": 4, "velocity": 93}, {"time": 3583, "pitch": 71, "duration": 4, "velocity": 91}, {"time": 3589, "pitch": 68, "duration": 4, "velocity": 94}, {"time": 3595, "pitch": 71, "duration": 4, "velocity": 92}, {"time": 3601, "pitch": 73, "duration": 39, "velocity": 86}, {"time": 3661, "pitch": 76, "duration": 3, "velocity": 84}, {"time": 3667, "pitch": 76, "duration": 6, "velocity": 92}, {"time": 3673, "pitch": 76, "duration": 6, "velocity": 92}, {"time": 3679, "pitch": 76, "duration": 4, "velocity": 93}, {"time": 3685, "pitch": 76, "duration": 5, "velocity": 87}, {"time": 3691, "pitch": 75, "duration": 4, "velocity": 93}, {"time": 3697, "pitch": 73, "duration": 6, "velocity": 91}, {"time": 3703, "pitch": 71, "duration": 26, "velocity": 92}, {"time": 3757, "pitch": 76, "duration": 5, "velocity": 93}, {"time": 3763, "pitch": 76, "duration": 4, "velocity": 92}, {"time": 3769, "pitch": 76, "duration": 5, "velocity": 93}, {"time": 3775, "pitch": 78, "duration": 4, "velocity": 93}, {"time": 3781, "pitch": 76, "duration": 5, "velocity": 91}, {"time": 3787, "pitch": 75, "duration": 4, "velocity": 96}, {"time": 3793, "pitch": 71, "duration": 4, "velocity": 97}, {"time": 3799, "pitch": 68, "duration": 40, "velocity": 93}, {"time": 3853, "pitch": 78, "duration": 5, "velocity": 92}, {"time": 3859, "pitch": 78, "duration": 4, "velocity": 95}, {"time": 3865, "pitch": 71, "duration": 4, "velocity": 95}, {"time": 3871, "pitch": 78, "duration": 4, "velocity": 92}, {"time": 3877, "pitch": 78, "duration": 4, "velocity": 92}, {"time": 3883, "pitch": 71, "duration": 4, "velocity": 96}, {"time": 3889, "pitch": 73, "duration": 5, "velocity": 93}, {"time": 3895, "pitch": 80, "duration": 5, "velocity": 92}, {"time": 3901, "pitch": 76, "duration": 4, "velocity": 76}, {"time": 3907, "pitch": 73, "duration": 4, "velocity": 96}, {"time": 3913, "pitch": 76, "duration": 4, "velocity": 96}, {"time": 3919, "pitch": 73, "duration": 23, "velocity": 97}, {"time": 3949, "pitch": 78, "duration": 4, "velocity": 92}, {"time": 3955, "pitch": 78, "duration": 4, "velocity": 92}, {"time": 3961, "pitch": 71, "duration": 4, "velocity": 93}, {"time": 3967, "pitch": 71, "duration": 4, "velocity": 91}, {"time": 3973, "pitch": 68, "duration": 4, "velocity": 94}, {"time": 3979, "pitch": 71, "duration": 4, "velocity": 92}, {"time": 3985, "pitch": 73, "duration": 39, "velocity": 86}, {"time": 4045, "pitch": 76, "duration": 3, "velocity": 84}, {"time": 4051, "pitch": 76, "duration": 6, "velocity": 92}, {"time": 4057, "pitch": 76, "duration": 6, "velocity": 92}, {"time": 4063, "pitch": 76, "duration": 4, "velocity": 93}, {"time": 4069, "pitch": 76, "duration": 5, "velocity": 87}, {"time": 4075, "pitch": 75, "duration": 4, "velocity": 93}, {"time": 4081, "pitch": 73, "duration": 6, "velocity": 91}, {"time": 4087, "pitch": 71, "duration": 26, "velocity": 92}, {"time": 4141, "pitch": 76, "duration": 5, "velocity": 93}, {"time": 4147, "pitch": 76, "duration": 4, "velocity": 92}, {"time": 4153, "pitch": 76, "duration": 5, "velocity": 93}, {"time": 4159, "pitch": 78, "duration": 4, "velocity": 93}, {"time": 4165, "pitch": 76, "duration": 5, "velocity": 91}, {"time": 4171, "pitch": 75, "duration": 4, "velocity": 96}, {"time": 4177, "pitch": 71, "duration": 4, "velocity": 97}, {"time": 4183, "pitch": 68, "duration": 40, "velocity": 93}, {"time": 4237, "pitch": 78, "duration": 5, "velocity": 92}, {"time": 4243, "pitch": 78, "duration": 4, "velocity": 95}, {"time": 4249, "pitch": 71, "duration": 4, "velocity": 95}, {"time": 4255, "pitch": 78, "duration": 4, "velocity": 92}, {"time": 4261, "pitch": 78, "duration": 4, "velocity": 92}, {"time": 4267, "pitch": 71, "duration": 4, "velocity": 96}, {"time": 4273, "pitch": 73, "duration": 5, "velocity": 93}, {"time": 4279, "pitch": 80, "duration": 5, "velocity": 92}, {"time": 4285, "pitch": 76, "duration": 4, "velocity": 76}, {"time": 4291, "pitch": 73, "duration": 4, "velocity": 96}, {"time": 4297, "pitch": 76, "duration": 4, "velocity": 96}, {"time": 4303, "pitch": 73, "duration": 23, "velocity": 97}, {"time": 4333, "pitch": 78, "duration": 4, "velocity": 92}, {"time": 4339, "pitch": 78, "duration": 4, "velocity": 92}, {"time": 4345, "pitch": 71, "duration": 4, "velocity": 93}, {"time": 4351, "pitch": 71, "duration": 4, "velocity": 91}, {"time": 4357, "pitch": 68, "duration": 4, "velocity": 94}, {"time": 4363, "pitch": 71, "duration": 4, "velocity": 92}, {"time": 4369, "pitch": 73, "duration": 39, "velocity": 86}, {"time": 4429, "pitch": 76, "duration": 3, "velocity": 84}, {"time": 4435, "pitch": 76, "duration": 6, "velocity": 92}, {"time": 4441, "pitch": 76, "duration": 6, "velocity": 92}, {"time": 4447, "pitch": 76, "duration": 4, "velocity": 93}, {"time": 4453, "pitch": 76, "duration": 5, "velocity": 87}, {"time": 4459, "pitch": 75, "duration": 4, "velocity": 93}, {"time": 4465, "pitch": 73, "duration": 6, "velocity": 91}, {"time": 4471, "pitch": 71, "duration": 26, "velocity": 92}, {"time": 4525, "pitch": 76, "duration": 5, "velocity": 93}, {"time": 4531, "pitch": 76, "duration": 4, "velocity": 92}, {"time": 4537, "pitch": 76, "duration": 5, "velocity": 93}, {"time": 4543, "pitch": 78, "duration": 4, "velocity": 93}, {"time": 4549, "pitch": 76, "duration": 5, "velocity": 91}, {"time": 4555, "pitch": 75, "duration": 4, "velocity": 96}, {"time": 4561, "pitch": 71, "duration": 4, "velocity": 97}, {"time": 4567, "pitch": 68, "duration": 40, "velocity": 93}, {"time": 4621, "pitch": 78, "duration": 5, "velocity": 92}, {"time": 4627, "pitch": 78, "duration": 4, "velocity": 95}, {"time": 4633, "pitch": 71, "duration": 4, "velocity": 95}, {"time": 4639, "pitch": 78, "duration": 4, "velocity": 92}, {"time": 4645, "pitch": 78, "duration": 4, "velocity": 92}, {"time": 4651, "pitch": 71, "duration": 4, "velocity": 96}, {"time": 4657, "pitch": 73, "duration": 5, "velocity": 93}, {"time": 4663, "pitch": 80, "duration": 5, "velocity": 92}, {"time": 4669, "pitch": 76, "duration": 4, "velocity": 76}, {"time": 4675, "pitch": 73, "duration": 4, "velocity": 96}, {"time": 4681, "pitch": 76, "duration": 4, "velocity": 96}, {"time": 4687, "pitch": 73, "duration": 23, "velocity": 97}, {"time": 4717, "pitch": 78, "duration": 4, "velocity": 92}, {"time": 4723, "pitch": 78, "duration": 4, "velocity": 92}, {"time": 4729, "pitch": 71, "duration": 4, "velocity": 93}, {"time": 4735, "pitch": 71, "duration": 4, "velocity": 91}, {"time": 4741, "pitch": 68, "duration": 4, "velocity": 94}, {"time": 4747, "pitch": 71, "duration": 4, "velocity": 92}, {"time": 4753, "pitch": 73, "duration": 39, "velocity": 86}]}, {"program": 0, "is_drum": false, "name": "BRIDGE", "notes": [{"time": 7, "pitch": 68, "duration": 8, "velocity": 90}, {"time": 13, "pitch": 61, "duration": 8, "velocity": 92}, {"time": 19, "pitch": 68, "duration": 8, "velocity": 88}, {"time": 25, "pitch": 61, "duration": 8, "velocity": 89}, {"time": 31, "pitch": 68, "duration": 8, "velocity": 79}, {"time": 37, "pitch": 61, "duration": 8, "velocity": 91}, {"time": 43, "pitch": 68, "duration": 8, "velocity": 87}, {"time": 49, "pitch": 61, "duration": 6, "velocity": 91}, {"time": 55, "pitch": 64, "duration": 7, "velocity": 95}, {"time": 61, "pitch": 61, "duration": 7, "velocity": 84}, {"time": 67, "pitch": 64, "duration": 7, "velocity": 92}, {"time": 73, "pitch": 61, "duration": 8, "velocity": 90}, {"time": 79, "pitch": 66, "duration": 7, "velocity": 91}, {"time": 85, "pitch": 61, "duration": 7, "velocity": 87}, {"time": 91, "pitch": 66, "duration": 7, "velocity": 86}, {"time": 97, "pitch": 61, "duration": 6, "velocity": 92}, {"time": 103, "pitch": 68, "duration": 8, "velocity": 90}, {"time": 109, "pitch": 61, "duration": 8, "velocity": 92}, {"time": 115, "pitch": 68, "duration": 8, "velocity": 88}, {"time": 121, "pitch": 61, "duration": 8, "velocity": 89}, {"time": 127, "pitch": 68, "duration": 8, "velocity": 79}, {"time": 133, "pitch": 61, "duration": 8, "velocity": 91}, {"time": 139, "pitch": 68, "duration": 8, "velocity": 87}, {"time": 145, "pitch": 61, "duration": 6, "velocity": 91}, {"time": 151, "pitch": 64, "duration": 7, "velocity": 95}, {"time": 157, "pitch": 61, "duration": 7, "velocity": 84}, {"time": 163, "pitch": 64, "duration": 7, "velocity": 92}, {"time": 169, "pitch": 61, "duration": 8, "velocity": 90}, {"time": 175, "pitch": 66, "duration": 7, "velocity": 91}, {"time": 181, "pitch": 61, "duration": 7, "velocity": 87}, {"time": 187, "pitch": 66, "duration": 7, "velocity": 86}, {"time": 193, "pitch": 61, "duration": 6, "velocity": 92}, {"time": 247, "pitch": 68, "duration": 8, "velocity": 84}, {"time": 253, "pitch": 59, "duration": 9, "velocity": 91}, {"time": 259, "pitch": 68, "duration": 8, "velocity": 82}, {"time": 265, "pitch": 59, "duration": 9, "velocity": 86}, {"time": 271, "pitch": 68, "duration": 8, "velocity": 82}, {"time": 277, "pitch": 59, "duration": 8, "velocity": 85}, {"time": 283, "pitch": 68, "duration": 9, "velocity": 92}, {"time": 289, "pitch": 59, "duration": 7, "velocity": 86}, {"time": 301, "pitch": 64, "duration": 7, "velocity": 89}, {"time": 307, "pitch": 69, "duration": 8, "velocity": 91}, {"time": 313, "pitch": 64, "duration": 7, "velocity": 90}, {"time": 319, "pitch": 69, "duration": 8, "velocity": 91}, {"time": 325, "pitch": 64, "duration": 7, "velocity": 85}, {"time": 331, "pitch": 69, "duration": 9, "velocity": 86}, {"time": 337, "pitch": 64, "duration": 5, "velocity": 86}, {"time": 349, "pitch": 64, "duration": 7, "velocity": 83}, {"time": 355, "pitch": 68, "duration": 9, "velocity": 84}, {"time": 361, "pitch": 64, "duration": 8, "velocity": 80}, {"time": 367, "pitch": 68, "duration": 7, "velocity": 81}, {"time": 373, "pitch": 64, "duration": 8, "velocity": 86}, {"time": 379, "pitch": 68, "duration": 12, "velocity": 87}, {"time": 385, "pitch": 64, "duration": 7, "velocity": 86}, {"time": 391, "pitch": 66, "duration": 7, "velocity": 80}, {"time": 397, "pitch": 59, "duration": 8, "velocity": 92}, {"time": 403, "pitch": 66, "duration": 7, "velocity": 84}, {"time": 409, "pitch": 59, "duration": 8, "velocity": 89}, {"time": 415, "pitch": 66, "duration": 7, "velocity": 86}, {"time": 421, "pitch": 59, "duration": 8, "velocity": 92}, {"time": 427, "pitch": 66, "duration": 7, "velocity": 87}, {"time": 433, "pitch": 59, "duration": 5, "velocity": 90}, {"time": 439, "pitch": 68, "duration": 7, "velocity": 85}, {"time": 445, "pitch": 61, "duration": 8, "velocity": 88}, {"time": 451, "pitch": 68, "duration": 8, "velocity": 83}, {"time": 457, "pitch": 61, "duration": 8, "velocity": 87}, {"time": 463, "pitch": 68, "duration": 7, "velocity": 80}, {"time": 469, "pitch": 61, "duration": 7, "velocity": 91}, {"time": 475, "pitch": 68, "duration": 8, "velocity": 84}, {"time": 481, "pitch": 61, "duration": 5, "velocity": 92}, {"time": 487, "pitch": 66, "duration": 7, "velocity": 83}, {"time": 493, "pitch": 59, "duration": 8, "velocity": 78}, {"time": 499, "pitch": 66, "duration": 8, "velocity": 84}, {"time": 505, "pitch": 59, "duration": 8, "velocity": 91}, {"time": 511, "pitch": 66, "duration": 7, "velocity": 85}, {"time": 517, "pitch": 59, "duration": 8, "velocity": 92}, {"time": 523, "pitch": 66, "duration": 7, "velocity": 86}, {"time": 529, "pitch": 59, "duration": 6, "velocity": 92}, {"time": 535, "pitch": 68, "duration": 7, "velocity": 92}, {"time": 541, "pitch": 61, "duration": 6, "velocity": 78}, {"time": 547, "pitch": 68, "duration": 7, "velocity": 91}, {"time": 553, "pitch": 61, "duration": 8, "velocity": 87}, {"time": 559, "pitch": 68, "duration": 7, "velocity": 83}, {"time": 565, "pitch": 61, "duration": 7, "velocity": 86}, {"time": 571, "pitch": 68, "duration": 7, "velocity": 86}, {"time": 577, "pitch": 61, "duration": 4, "velocity": 85}, {"time": 631, "pitch": 68, "duration": 8, "velocity": 84}, {"time": 637, "pitch": 59, "duration": 9, "velocity": 91}, {"time": 640, "pitch": 78, "duration": 4, "velocity": 86}, {"time": 643, "pitch": 68, "duration": 8, "velocity": 82}, {"time": 643, "pitch": 80, "duration": 7, "velocity": 93}, {"time": 649, "pitch": 59, "duration": 9, "velocity": 86}, {"time": 649, "pitch": 83, "duration": 7, "velocity": 94}, {"time": 655, "pitch": 68, "duration": 8, "velocity": 82}, {"time": 655, "pitch": 80, "duration": 6, "velocity": 97}, {"time": 661, "pitch": 59, "duration": 8, "velocity": 85}, {"time": 661, "pitch": 76, "duration": 16, "velocity": 96}, {"time": 667, "pitch": 68, "duration": 9, "velocity": 92}, {"time": 673, "pitch": 59, "duration": 7, "velocity": 86}, {"time": 685, "pitch": 64, "duration": 7, "velocity": 89}, {"time": 691, "pitch": 69, "duration": 8, "velocity": 91}, {"time": 697, "pitch": 64, "duration": 7, "velocity": 90}, {"time": 703, "pitch": 69, "duration": 8, "velocity": 91}, {"time": 709, "pitch": 64, "duration": 7, "velocity": 85}, {"time": 715, "pitch": 69, "duration": 9, "velocity": 86}, {"time": 721, "pitch": 64, "duration": 5, "velocity": 86}, {"time": 733, "pitch": 64, "duration": 7, "velocity": 83}, {"time": 733, "pitch": 71, "duration": 7, "velocity": 93}, {"time": 739, "pitch": 68, "duration": 9, "velocity": 84}, {"time": 739, "pitch": 80, "duration": 7, "velocity": 96}, {"time": 745, "pitch": 64, "duration": 8, "velocity": 80}, {"time": 745, "pitch": 78, "duration": 7, "velocity": 96}, {"time": 751, "pitch": 68, "duration": 7, "velocity": 81}, {"time": 751, "pitch": 80, "duration": 14, "velocity": 100}, {"time": 757, "pitch": 64, "duration": 8, "velocity": 86}, {"time": 763, "pitch": 68, "duration": 12, "velocity": 87}, {"time": 763, "pitch": 78, "duration": 7, "velocity": 98}, {"time": 769, "pitch": 64, "duration": 7, "velocity": 86}, {"time": 769, "pitch": 76, "duration": 6, "velocity": 93}, {"time": 775, "pitch": 66, "duration": 7, "velocity": 80}, {"time": 775, "pitch": 78, "duration": 25, "velocity": 92}, {"time": 781, "pitch": 59, "duration": 8, "velocity": 92}, {"time": 787, "pitch": 66, "duration": 7, "velocity": 84}, {"time": 793, "pitch": 59, "duration": 8, "velocity": 89}, {"time": 799, "pitch": 66, "duration": 7, "velocity": 86}, {"time": 805, "pitch": 59, "duration": 8, "velocity": 92}, {"time": 811, "pitch": 66, "duration": 7, "velocity": 87}, {"time": 817, "pitch": 59, "duration": 5, "velocity": 90}, {"time": 823, "pitch": 68, "duration": 7, "velocity": 85}, {"time": 829, "pitch": 61, "duration": 8, "velocity": 88}, {"time": 835, "pitch": 68, "duration": 8, "velocity": 83}, {"time": 841, "pitch": 61, "duration": 8, "velocity": 87}, {"time": 847, "pitch": 68, "duration": 7, "velocity": 80}, {"time": 853, "pitch": 61, "duration": 7, "velocity": 91}, {"time": 859, "pitch": 68, "duration": 8, "velocity": 84}, {"time": 865, "pitch": 61, "duration": 5, "velocity": 92}, {"time": 871, "pitch": 66, "duration": 7, "velocity": 83}, {"time": 877, "pitch": 59, "duration": 8, "velocity": 78}, {"time": 883, "pitch": 66, "duration": 8, "velocity": 84}, {"time": 889, "pitch": 59, "duration": 8, "velocity": 91}, {"time": 895, "pitch": 66, "duration": 7, "velocity": 85}, {"time": 901, "pitch": 59, "duration": 8, "velocity": 92}, {"time": 907, "pitch": 66, "duration": 7, "velocity": 86}, {"time": 913, "pitch": 59, "duration": 6, "velocity": 92}, {"time": 919, "pitch": 68, "duration": 7, "velocity": 92}, {"time": 925, "pitch": 61, "duration": 6, "velocity": 78}, {"time": 931, "pitch": 68, "duration": 7, "velocity": 91}, {"time": 937, "pitch": 61, "duration": 8, "velocity": 87}, {"time": 943, "pitch": 68, "duration": 7, "velocity": 83}, {"time": 949, "pitch": 61, "duration": 7, "velocity": 86}, {"time": 955, "pitch": 68, "duration": 7, "velocity": 86}, {"time": 961, "pitch": 61, "duration": 4, "velocity": 85}, {"time": 967, "pitch": 71, "duration": 16, "velocity": 87}, {"time": 967, "pitch": 75, "duration": 16, "velocity": 89}, {"time": 1015, "pitch": 61, "duration": 7, "velocity": 90}, {"time": 1021, "pitch": 57, "duration": 7, "velocity": 86}, {"time": 1027, "pitch": 61, "duration": 7, "velocity": 91}, {"time": 1033, "pitch": 57, "duration": 8, "velocity": 86}, {"time": 1039, "pitch": 61, "duration": 8, "velocity": 91}, {"time": 1045, "pitch": 57, "duration": 8, "velocity": 87}, {"time": 1051, "pitch": 61, "duration": 7, "velocity": 92}, {"time": 1057, "pitch": 57, "duration": 7, "velocity": 77}, {"time": 1063, "pitch": 63, "duration": 7, "velocity": 96}, {"time": 1069, "pitch": 59, "duration": 8, "velocity": 88}, {"time": 1075, "pitch": 63, "duration": 7, "velocity": 92}, {"time": 1081, "pitch": 59, "duration": 8, "velocity": 88}, {"time": 1087, "pitch": 63, "duration": 8, "velocity": 86}, {"time": 1093, "pitch": 59, "duration": 8, "velocity": 90}, {"time": 1099, "pitch": 63, "duration": 6, "velocity": 94}, {"time": 1105, "pitch": 59, "duration": 8, "velocity": 92}, {"time": 1111, "pitch": 64, "duration": 7, "velocity": 91}, {"time": 1117, "pitch": 59, "duration": 8, "velocity": 92}, {"time": 1123, "pitch": 64, "duration": 7, "velocity": 90}, {"time": 1129, "pitch": 59, "duration": 7, "velocity": 89}, {"time": 1135, "pitch": 64, "duration": 7, "velocity": 93}, {"time": 1141, "pitch": 59, "duration": 8, "velocity": 91}, {"time": 1147, "pitch": 64, "duration": 7, "velocity": 93}, {"time": 1153, "pitch": 59, "duration": 7, "velocity": 92}, {"time": 1159, "pitch": 64, "duration": 7, "velocity": 92}, {"time": 1165, "pitch": 61, "duration": 8, "velocity": 86}, {"time": 1171, "pitch": 64, "duration": 7, "velocity": 91}, {"time": 1177, "pitch": 61, "duration": 7, "velocity": 82}, {"time": 1189, "pitch": 61, "duration": 7, "velocity": 82}, {"time": 1195, "pitch": 64, "duration": 7, "velocity": 84}, {"time": 1201, "pitch": 61, "duration": 8, "velocity": 86}, {"time": 1207, "pitch": 66, "duration": 7, "velocity": 86}, {"time": 1213, "pitch": 61, "duration": 7, "velocity": 91}, {"time": 1219, "pitch": 66, "duration": 8, "velocity": 87}, {"time": 1225, "pitch": 61, "duration": 7, "velocity": 79}, {"time": 1231, "pitch": 66, "duration": 7, "velocity": 90}, {"time": 1237, "pitch": 61, "duration": 8, "velocity": 79}, {"time": 1243, "pitch": 66, "duration": 7, "velocity": 93}, {"time": 1249, "pitch": 61, "duration": 7, "velocity": 87}, {"time": 1255, "pitch": 63, "duration": 7, "velocity": 86}, {"time": 1261, "pitch": 59, "duration": 8, "velocity": 92}, {"time": 1267, "pitch": 63, "duration": 7, "velocity": 93}, {"time": 1273, "pitch": 59, "duration": 8, "velocity": 88}, {"time": 1279, "pitch": 63, "duration": 7, "velocity": 91}, {"time": 1285, "pitch": 59, "duration": 8, "velocity": 92}, {"time": 1291, "pitch": 63, "duration": 7, "velocity": 95}, {"time": 1297, "pitch": 59, "duration": 7, "velocity": 87}, {"time": 1303, "pitch": 59, "duration": 1, "velocity": 90}, {"time": 1303, "pitch": 64, "duration": 3, "velocity": 92}, {"time": 1309, "pitch": 59, "duration": 3, "velocity": 87}, {"time": 1309, "pitch": 64, "duration": 3, "velocity": 92}, {"time": 1312, "pitch": 64, "duration": 2, "velocity": 89}, {"time": 1315, "pitch": 59, "duration": 2, "velocity": 83}, {"time": 1318, "pitch": 59, "duration": 2, "velocity": 80}, {"time": 1318, "pitch": 64, "duration": 2, "velocity": 91}, {"time": 1321, "pitch": 59, "duration": 2, "velocity": 86}, {"time": 1321, "pitch": 64, "duration": 2, "velocity": 92}, {"time": 1324, "pitch": 59, "duration": 4, "velocity": 91}, {"time": 1324, "pitch": 64, "duration": 5, "velocity": 93}, {"time": 1330, "pitch": 59, "duration": 2, "velocity": 88}, {"time": 1330, "pitch": 64, "duration": 2, "velocity": 93}, {"time": 1333, "pitch": 59, "duration": 2, "velocity": 89}, {"time": 1333, "pitch": 64, "duration": 2, "velocity": 92}, {"time": 1336, "pitch": 59, "duration": 2, "velocity": 87}, {"time": 1336, "pitch": 64, "duration": 2, "velocity": 93}, {"time": 1339, "pitch": 59, "duration": 2, "velocity": 86}, {"time": 1339, "pitch": 64, "duration": 2, "velocity": 92}, {"time": 1342, "pitch": 59, "duration": 2, "velocity": 84}, {"time": 1342, "pitch": 64, "duration": 2, "velocity": 91}, {"time": 1345, "pitch": 59, "duration": 6, "velocity": 91}, {"time": 1345, "pitch": 64, "duration": 6, "velocity": 93}, {"time": 1351, "pitch": 63, "duration": 6, "velocity": 91}, {"time": 1357, "pitch": 59, "duration": 7, "velocity": 95}, {"time": 1363, "pitch": 63, "duration": 7, "velocity": 91}, {"time": 1369, "pitch": 59, "duration": 8, "velocity": 94}, {"time": 1375, "pitch": 63, "duration": 6, "velocity": 87}, {"time": 1381, "pitch": 59, "duration": 8, "velocity": 94}, {"time": 1399, "pitch": 61, "duration": 7, "velocity": 90}, {"time": 1405, "pitch": 57, "duration": 7, "velocity": 86}, {"time": 1411, "pitch": 61, "duration": 7, "velocity": 91}, {"time": 1417, "pitch": 57, "duration": 8, "velocity": 86}, {"time": 1423, "pitch": 61, "duration": 8, "velocity": 91}, {"time": 1429, "pitch": 57, "duration": 8, "velocity": 87}, {"time": 1435, "pitch": 61, "duration": 7, "velocity": 92}, {"time": 1441, "pitch": 57, "duration": 7, "velocity": 77}, {"time": 1447, "pitch": 63, "duration": 7, "velocity": 96}, {"time": 1453, "pitch": 59, "duration": 8, "velocity": 88}, {"time": 1459, "pitch": 63, "duration": 7, "velocity": 92}, {"time": 1465, "pitch": 59, "duration": 8, "velocity": 88}, {"time": 1471, "pitch": 63, "duration": 8, "velocity": 86}, {"time": 1477, "pitch": 59, "duration": 8, "velocity": 90}, {"time": 1483, "pitch": 63, "duration": 6, "velocity": 94}, {"time": 1489, "pitch": 59, "duration": 8, "velocity": 92}, {"time": 1495, "pitch": 64, "duration": 7, "velocity": 91}, {"time": 1501, "pitch": 59, "duration": 8, "velocity": 92}, {"time": 1507, "pitch": 64, "duration": 7, "velocity": 90}, {"time": 1513, "pitch": 59, "duration": 7, "velocity": 89}, {"time": 1519, "pitch": 64, "duration": 7, "velocity": 93}, {"time": 1525, "pitch": 59, "duration": 8, "velocity": 91}, {"time": 1531, "pitch": 64, "duration": 7, "velocity": 93}, {"time": 1537, "pitch": 59, "duration": 7, "velocity": 92}, {"time": 1543, "pitch": 64, "duration": 7, "velocity": 92}, {"time": 1549, "pitch": 61, "duration": 8, "velocity": 86}, {"time": 1555, "pitch": 64, "duration": 7, "velocity": 91}, {"time": 1561, "pitch": 61, "duration": 7, "velocity": 82}, {"time": 1573, "pitch": 61, "duration": 7, "velocity": 82}, {"time": 1579, "pitch": 64, "duration": 7, "velocity": 84}, {"time": 1585, "pitch": 61, "duration": 8, "velocity": 86}, {"time": 1591, "pitch": 66, "duration": 7, "velocity": 86}, {"time": 1597, "pitch": 61, "duration": 7, "velocity": 91}, {"time": 1603, "pitch": 66, "duration": 8, "velocity": 87}, {"time": 1609, "pitch": 61, "duration": 7, "velocity": 79}, {"time": 1615, "pitch": 66, "duration": 7, "velocity": 90}, {"time": 1621, "pitch": 61, "duration": 8, "velocity": 79}, {"time": 1627, "pitch": 66, "duration": 7, "velocity": 93}, {"time": 1633, "pitch": 61, "duration": 7, "velocity": 87}, {"time": 1639, "pitch": 64, "duration": 7, "velocity": 86}, {"time": 1645, "pitch": 59, "duration": 8, "velocity": 92}, {"time": 1651, "pitch": 64, "duration": 7, "velocity": 93}, {"time": 1657, "pitch": 59, "duration": 8, "velocity": 88}, {"time": 1663, "pitch": 64, "duration": 7, "velocity": 91}, {"time": 1669, "pitch": 59, "duration": 6, "velocity": 92}, {"time": 1675, "pitch": 63, "duration": 12, "velocity": 95}, {"time": 1687, "pitch": 59, "duration": 45, "velocity": 90}, {"time": 1687, "pitch": 63, "duration": 45, "velocity": 88}, {"time": 1741, "pitch": 76, "duration": 10, "velocity": 89}, {"time": 1753, "pitch": 76, "duration": 4, "velocity": 93}, {"time": 1759, "pitch": 76, "duration": 9, "velocity": 93}, {"time": 1768, "pitch": 75, "duration": 8, "velocity": 94}, {"time": 1777, "pitch": 73, "duration": 6, "velocity": 91}, {"time": 1783, "pitch": 71, "duration": 45, "velocity": 94}, {"time": 1837, "pitch": 76, "duration": 5, "velocity": 91}, {"time": 1843, "pitch": 76, "duration": 5, "velocity": 95}, {"time": 1849, "pitch": 76, "duration": 5, "velocity": 98}, {"time": 1855, "pitch": 78, "duration": 5, "velocity": 92}, {"time": 1861, "pitch": 76, "duration": 5, "velocity": 97}, {"time": 1867, "pitch": 75, "duration": 5, "velocity": 97}, {"time": 1873, "pitch": 73, "duration": 4, "velocity": 96}, {"time": 1879, "pitch": 68, "duration": 46, "velocity": 96}, {"time": 1933, "pitch": 78, "duration": 5, "velocity": 98}, {"time": 1939, "pitch": 78, "duration": 5, "velocity": 95}, {"time": 1945, "pitch": 78, "duration": 5, "velocity": 97}, {"time": 1951, "pitch": 80, "duration": 7, "velocity": 97}, {"time": 1957, "pitch": 81, "duration": 7, "velocity": 93}, {"time": 1963, "pitch": 80, "duration": 7, "velocity": 90}, {"time": 1969, "pitch": 78, "duration": 7, "velocity": 94}, {"time": 1975, "pitch": 80, "duration": 45, "velocity": 91}, {"time": 2029, "pitch": 78, "duration": 3, "velocity": 91}, {"time": 2035, "pitch": 78, "duration": 4, "velocity": 95}, {"time": 2041, "pitch": 78, "duration": 5, "velocity": 98}, {"time": 2047, "pitch": 81, "duration": 5, "velocity": 97}, {"time": 2053, "pitch": 80, "duration": 6, "velocity": 98}, {"time": 2059, "pitch": 78, "duration": 6, "velocity": 98}, {"time": 2065, "pitch": 85, "duration": 52, "velocity": 102}, {"time": 2167, "pitch": 68, "duration": 8, "velocity": 84}, {"time": 2173, "pitch": 59, "duration": 9, "velocity": 91}, {"time": 2176, "pitch": 78, "duration": 4, "velocity": 86}, {"time": 2179, "pitch": 68, "duration": 8, "velocity": 82}, {"time": 2179, "pitch": 80, "duration": 7, "velocity": 93}, {"time": 2185, "pitch": 59, "duration": 9, "velocity": 86}, {"time": 2185, "pitch": 83, "duration": 7, "velocity": 94}, {"time": 2191, "pitch": 68, "duration": 8, "velocity": 82}, {"time": 2191, "pitch": 80, "duration": 6, "velocity": 97}, {"time": 2197, "pitch": 59, "duration": 8, "velocity": 85}, {"time": 2197, "pitch": 76, "duration": 16, "velocity": 96}, {"time": 2203, "pitch": 68, "duration": 9, "velocity": 92}, {"time": 2209, "pitch": 59, "duration": 7, "velocity": 86}, {"time": 2221, "pitch": 64, "duration": 7, "velocity": 89}, {"time": 2227, "pitch": 69, "duration": 8, "velocity": 91}, {"time": 2233, "pitch": 64, "duration": 7, "velocity": 90}, {"time": 2239, "pitch": 69, "duration": 8, "velocity": 91}, {"time": 2245, "pitch": 64, "duration": 7, "velocity": 85}, {"time": 2251, "pitch": 69, "duration": 9, "velocity": 86}, {"time": 2257, "pitch": 64, "duration": 5, "velocity": 86}, {"time": 2269, "pitch": 64, "duration": 7, "velocity": 83}, {"time": 2269, "pitch": 71, "duration": 7, "velocity": 93}, {"time": 2275, "pitch": 68, "duration": 9, "velocity": 84}, {"time": 2275, "pitch": 80, "duration": 7, "velocity": 96}, {"time": 2281, "pitch": 64, "duration": 8, "velocity": 80}, {"time": 2281, "pitch": 78, "duration": 7, "velocity": 96}, {"time": 2287, "pitch": 68, "duration": 7, "velocity": 81}, {"time": 2287, "pitch": 80, "duration": 14, "velocity": 100}, {"time": 2293, "pitch": 64, "duration": 8, "velocity": 86}, {"time": 2299, "pitch": 68, "duration": 12, "velocity": 87}, {"time": 2299, "pitch": 78, "duration": 7, "velocity": 98}, {"time": 2305, "pitch": 64, "duration": 7, "velocity": 86}, {"time": 2305, "pitch": 76, "duration": 6, "velocity": 93}, {"time": 2311, "pitch": 66, "duration": 7, "velocity": 80}, {"time": 2311, "pitch": 78, "duration": 25, "velocity": 92}, {"time": 2317, "pitch": 59, "duration": 8, "velocity": 92}, {"time": 2323, "pitch": 66, "duration": 7, "velocity": 84}, {"time": 2329, "pitch": 59, "duration": 8, "velocity": 89}, {"time": 2335, "pitch": 66, "duration": 7, "velocity": 86}, {"time": 2341, "pitch": 59, "duration": 8, "velocity": 92}, {"time": 2347, "pitch": 66, "duration": 7, "velocity": 87}, {"time": 2353, "pitch": 59, "duration": 5, "velocity": 90}, {"time": 2359, "pitch": 68, "duration": 7, "velocity": 85}, {"time": 2365, "pitch": 61, "duration": 8, "velocity": 88}, {"time": 2371, "pitch": 68, "duration": 8, "velocity": 83}, {"time": 2377, "pitch": 61, "duration": 8, "velocity": 87}, {"time": 2383, "pitch": 68, "duration": 7, "velocity": 80}, {"time": 2389, "pitch": 61, "duration": 7, "velocity": 91}, {"time": 2395, "pitch": 68, "duration": 8, "velocity": 84}, {"time": 2401, "pitch": 61, "duration": 5, "velocity": 92}, {"time": 2407, "pitch": 66, "duration": 7, "velocity": 83}, {"time": 2413, "pitch": 59, "duration": 8, "velocity": 78}, {"time": 2419, "pitch": 66, "duration": 8, "velocity": 84}, {"time": 2425, "pitch": 59, "duration": 8, "velocity": 91}, {"time": 2431, "pitch": 66, "duration": 7, "velocity": 85}, {"time": 2437, "pitch": 59, "duration": 8, "velocity": 92}, {"time": 2443, "pitch": 66, "duration": 7, "velocity": 86}, {"time": 2449, "pitch": 59, "duration": 6, "velocity": 92}, {"time": 2455, "pitch": 68, "duration": 7, "velocity": 92}, {"time": 2461, "pitch": 61, "duration": 6, "velocity": 78}, {"time": 2467, "pitch": 68, "duration": 7, "velocity": 91}, {"time": 2473, "pitch": 61, "duration": 8, "velocity": 87}, {"time": 2479, "pitch": 68, "duration": 7, "velocity": 83}, {"time": 2485, "pitch": 61, "duration": 7, "velocity": 86}, {"time": 2491, "pitch": 68, "duration": 7, "velocity": 86}, {"time": 2497, "pitch": 61, "duration": 4, "velocity": 85}, {"time": 2503, "pitch": 71, "duration": 16, "velocity": 87}, {"time": 2503, "pitch": 75, "duration": 16, "velocity": 89}, {"time": 2551, "pitch": 61, "duration": 7, "velocity": 90}, {"time": 2557, "pitch": 57, "duration": 7, "velocity": 86}, {"time": 2563, "pitch": 61, "duration": 7, "velocity": 91}, {"time": 2563, "pitch": 64, "duration": 12, "velocity": 98}, {"time": 2569, "pitch": 57, "duration": 8, "velocity": 86}, {"time": 2575, "pitch": 61, "duration": 8, "velocity": 91}, {"time": 2575, "pitch": 68, "duration": 13, "velocity": 93}, {"time": 2581, "pitch": 57, "duration": 8, "velocity": 87}, {"time": 2587, "pitch": 61, "duration": 7, "velocity": 92}, {"time": 2587, "pitch": 64, "duration": 4, "velocity": 95}, {"time": 2593, "pitch": 57, "duration": 7, "velocity": 77}, {"time": 2593, "pitch": 66, "duration": 15, "velocity": 93}, {"time": 2599, "pitch": 63, "duration": 7, "velocity": 96}, {"time": 2605, "pitch": 59, "duration": 8, "velocity": 88}, {"time": 2611, "pitch": 63, "duration": 7, "velocity": 92}, {"time": 2617, "pitch": 59, "duration": 8, "velocity": 88}, {"time": 2623, "pitch": 63, "duration": 8, "velocity": 86}, {"time": 2629, "pitch": 59, "duration": 8, "velocity": 90}, {"time": 2635, "pitch": 63, "duration": 6, "velocity": 94}, {"time": 2641, "pitch": 59, "duration": 8, "velocity": 92}, {"time": 2647, "pitch": 64, "duration": 7, "velocity": 91}, {"time": 2653, "pitch": 59, "duration": 8, "velocity": 92}, {"time": 2659, "pitch": 64, "duration": 7, "velocity": 90}, {"time": 2665, "pitch": 59, "duration": 7, "velocity": 89}, {"time": 2671, "pitch": 64, "duration": 7, "velocity": 93}, {"time": 2671, "pitch": 68, "duration": 10, "velocity": 98}, {"time": 2677, "pitch": 59, "duration": 8, "velocity": 91}, {"time": 2683, "pitch": 64, "duration": 7, "velocity": 93}, {"time": 2683, "pitch": 68, "duration": 4, "velocity": 93}, {"time": 2686, "pitch": 69, "duration": 3, "velocity": 86}, {"time": 2689, "pitch": 59, "duration": 7, "velocity": 92}, {"time": 2689, "pitch": 68, "duration": 4, "velocity": 89}, {"time": 2692, "pitch": 66, "duration": 4, "velocity": 93}, {"time": 2695, "pitch": 64, "duration": 7, "velocity": 92}, {"time": 2695, "pitch": 68, "duration": 27, "velocity": 97}, {"time": 2701, "pitch": 61, "duration": 8, "velocity": 86}, {"time": 2707, "pitch": 64, "duration": 7, "velocity": 91}, {"time": 2713, "pitch": 61, "duration": 7, "velocity": 82}, {"time": 2719, "pitch": 64, "duration": 7, "velocity": 91}, {"time": 2725, "pitch": 61, "duration": 7, "velocity": 82}, {"time": 2731, "pitch": 64, "duration": 7, "velocity": 84}, {"time": 2737, "pitch": 61, "duration": 8, "velocity": 86}, {"time": 2743, "pitch": 66, "duration": 7, "velocity": 86}, {"time": 2749, "pitch": 61, "duration": 7, "velocity": 91}, {"time": 2755, "pitch": 66, "duration": 8, "velocity": 87}, {"time": 2761, "pitch": 61, "duration": 7, "velocity": 79}, {"time": 2761, "pitch": 69, "duration": 7, "velocity": 95}, {"time": 2767, "pitch": 66, "duration": 7, "velocity": 90}, {"time": 2767, "pitch": 73, "duration": 11, "velocity": 98}, {"time": 2773, "pitch": 61, "duration": 8, "velocity": 79}, {"time": 2779, "pitch": 66, "duration": 7, "velocity": 93}, {"time": 2779, "pitch": 73, "duration": 7, "velocity": 92}, {"time": 2785, "pitch": 61, "duration": 7, "velocity": 87}, {"time": 2785, "pitch": 71, "duration": 52, "velocity": 93}, {"time": 2791, "pitch": 63, "duration": 7, "velocity": 86}, {"time": 2797, "pitch": 59, "duration": 8, "velocity": 92}, {"time": 2803, "pitch": 63, "duration": 7, "velocity": 93}, {"time": 2809, "pitch": 59, "duration": 8, "velocity": 88}, {"time": 2815, "pitch": 63, "duration": 7, "velocity": 91}, {"time": 2821, "pitch": 59, "duration": 8, "velocity": 92}, {"time": 2827, "pitch": 63, "duration": 7, "velocity": 95}, {"time": 2833, "pitch": 59, "duration": 7, "velocity": 87}, {"time": 2839, "pitch": 59, "duration": 1, "velocity": 90}, {"time": 2839, "pitch": 64, "duration": 3, "velocity": 92}, {"time": 2845, "pitch": 59, "duration": 3, "velocity": 87}, {"time": 2845, "pitch": 64, "duration": 3, "velocity": 92}, {"time": 2848, "pitch": 64, "duration": 2, "velocity": 89}, {"time": 2851, "pitch": 59, "duration": 2, "velocity": 83}, {"time": 2854, "pitch": 59, "duration": 2, "velocity": 80}, {"time": 2854, "pitch": 64, "duration": 2, "velocity": 91}, {"time": 2857, "pitch": 59, "duration": 2, "velocity": 86}, {"time": 2857, "pitch": 64, "duration": 2, "velocity": 92}, {"time": 2860, "pitch": 59, "duration": 4, "velocity": 91}, {"time": 2860, "pitch": 64, "duration": 5, "velocity": 93}, {"time": 2866, "pitch": 59, "duration": 2, "velocity": 88}, {"time": 2866, "pitch": 64, "duration": 2, "velocity": 93}, {"time": 2869, "pitch": 59, "duration": 2, "velocity": 89}, {"time": 2869, "pitch": 64, "duration": 2, "velocity": 92}, {"time": 2872, "pitch": 59, "duration": 2, "velocity": 87}, {"time": 2872, "pitch": 64, "duration": 2, "velocity": 93}, {"time": 2875, "pitch": 59, "duration": 2, "velocity": 86}, {"time": 2875, "pitch": 64, "duration": 2, "velocity": 92}, {"time": 2878, "pitch": 59, "duration": 2, "velocity": 84}, {"time": 2878, "pitch": 64, "duration": 2, "velocity": 91}, {"time": 2881, "pitch": 59, "duration": 6, "velocity": 91}, {"time": 2881, "pitch": 64, "duration": 6, "velocity": 93}, {"time": 2887, "pitch": 63, "duration": 6, "velocity": 91}, {"time": 2893, "pitch": 59, "duration": 7, "velocity": 95}, {"time": 2899, "pitch": 63, "duration": 7, "velocity": 91}, {"time": 2905, "pitch": 59, "duration": 8, "velocity": 94}, {"time": 2911, "pitch": 63, "duration": 6, "velocity": 87}, {"time": 2917, "pitch": 59, "duration": 8, "velocity": 94}, {"time": 2935, "pitch": 61, "duration": 7, "velocity": 90}, {"time": 2941, "pitch": 57, "duration": 7, "velocity": 86}, {"time": 2947, "pitch": 61, "duration": 7, "velocity": 91}, {"time": 2953, "pitch": 57, "duration": 8, "velocity": 86}, {"time": 2959, "pitch": 61, "duration": 8, "velocity": 91}, {"time": 2965, "pitch": 57, "duration": 8, "velocity": 87}, {"time": 2971, "pitch": 61, "duration": 7, "velocity": 92}, {"time": 2977, "pitch": 57, "duration": 7, "velocity": 77}, {"time": 2983, "pitch": 63, "duration": 7, "velocity": 96}, {"time": 2989, "pitch": 59, "duration": 8, "velocity": 88}, {"time": 2995, "pitch": 63, "duration": 7, "velocity": 92}, {"time": 3001, "pitch": 59, "duration": 8, "velocity": 88}, {"time": 3007, "pitch": 63, "duration": 8, "velocity": 86}, {"time": 3013, "pitch": 59, "duration": 8, "velocity": 90}, {"time": 3019, "pitch": 63, "duration": 6, "velocity": 94}, {"time": 3025, "pitch": 59, "duration": 8, "velocity": 92}, {"time": 3031, "pitch": 64, "duration": 7, "velocity": 91}, {"time": 3037, "pitch": 59, "duration": 8, "velocity": 92}, {"time": 3043, "pitch": 64, "duration": 7, "velocity": 90}, {"time": 3049, "pitch": 59, "duration": 7, "velocity": 89}, {"time": 3055, "pitch": 64, "duration": 7, "velocity": 93}, {"time": 3061, "pitch": 59, "duration": 8, "velocity": 91}, {"time": 3067, "pitch": 64, "duration": 7, "velocity": 93}, {"time": 3073, "pitch": 59, "duration": 7, "velocity": 92}, {"time": 3079, "pitch": 64, "duration": 7, "velocity": 92}, {"time": 3085, "pitch": 61, "duration": 8, "velocity": 86}, {"time": 3091, "pitch": 64, "duration": 7, "velocity": 91}, {"time": 3097, "pitch": 61, "duration": 7, "velocity": 82}, {"time": 3103, "pitch": 64, "duration": 7, "velocity": 91}, {"time": 3109, "pitch": 61, "duration": 7, "velocity": 82}, {"time": 3115, "pitch": 64, "duration": 7, "velocity": 84}, {"time": 3121, "pitch": 61, "duration": 8, "velocity": 86}, {"time": 3127, "pitch": 66, "duration": 7, "velocity": 86}, {"time": 3133, "pitch": 61, "duration": 7, "velocity": 91}, {"time": 3139, "pitch": 66, "duration": 8, "velocity": 87}, {"time": 3145, "pitch": 61, "duration": 7, "velocity": 79}, {"time": 3151, "pitch": 66, "duration": 7, "velocity": 90}, {"time": 3157, "pitch": 61, "duration": 8, "velocity": 79}, {"time": 3163, "pitch": 66, "duration": 7, "velocity": 93}, {"time": 3169, "pitch": 61, "duration": 7, "velocity": 87}, {"time": 3175, "pitch": 63, "duration": 7, "velocity": 86}, {"time": 3181, "pitch": 59, "duration": 8, "velocity": 92}, {"time": 3187, "pitch": 63, "duration": 7, "velocity": 93}, {"time": 3193, "pitch": 59, "duration": 8, "velocity": 88}, {"time": 3199, "pitch": 63, "duration": 7, "velocity": 91}, {"time": 3205, "pitch": 59, "duration": 6, "velocity": 92}, {"time": 3211, "pitch": 63, "duration": 12, "velocity": 95}, {"time": 3223, "pitch": 59, "duration": 45, "velocity": 90}, {"time": 3223, "pitch": 63, "duration": 45, "velocity": 88}, {"time": 3319, "pitch": 68, "duration": 8, "velocity": 84}, {"time": 3325, "pitch": 59, "duration": 9, "velocity": 91}, {"time": 3328, "pitch": 78, "duration": 4, "velocity": 86}, {"time": 3331, "pitch": 68, "duration": 8, "velocity": 82}, {"time": 3331, "pitch": 80, "duration": 7, "velocity": 93}, {"time": 3337, "pitch": 59, "duration": 9, "velocity": 86}, {"time": 3337, "pitch": 83, "duration": 7, "velocity": 94}, {"time": 3343, "pitch": 68, "duration": 8, "velocity": 82}, {"time": 3343, "pitch": 80, "duration": 6, "velocity": 97}, {"time": 3349, "pitch": 59, "duration": 8, "velocity": 85}, {"time": 3349, "pitch": 76, "duration": 16, "velocity": 96}, {"time": 3355, "pitch": 68, "duration": 9, "velocity": 92}, {"time": 3361, "pitch": 59, "duration": 7, "velocity": 86}, {"time": 3373, "pitch": 64, "duration": 7, "velocity": 89}, {"time": 3379, "pitch": 69, "duration": 8, "velocity": 91}, {"time": 3385, "pitch": 64, "duration": 7, "velocity": 90}, {"time": 3391, "pitch": 69, "duration": 8, "velocity": 91}, {"time": 3397, "pitch": 64, "duration": 7, "velocity": 85}, {"time": 3403, "pitch": 69, "duration": 9, "velocity": 86}, {"time": 3409, "pitch": 64, "duration": 5, "velocity": 86}, {"time": 3421, "pitch": 64, "duration": 7, "velocity": 83}, {"time": 3421, "pitch": 71, "duration": 7, "velocity": 93}, {"time": 3427, "pitch": 68, "duration": 9, "velocity": 84}, {"time": 3427, "pitch": 80, "duration": 7, "velocity": 96}, {"time": 3433, "pitch": 64, "duration": 8, "velocity": 80}, {"time": 3433, "pitch": 78, "duration": 7, "velocity": 96}, {"time": 3439, "pitch": 68, "duration": 7, "velocity": 81}, {"time": 3439, "pitch": 80, "duration": 14, "velocity": 100}, {"time": 3445, "pitch": 64, "duration": 8, "velocity": 86}, {"time": 3451, "pitch": 68, "duration": 12, "velocity": 87}, {"time": 3451, "pitch": 78, "duration": 7, "velocity": 98}, {"time": 3457, "pitch": 64, "duration": 7, "velocity": 86}, {"time": 3457, "pitch": 76, "duration": 6, "velocity": 93}, {"time": 3463, "pitch": 66, "duration": 7, "velocity": 80}, {"time": 3463, "pitch": 78, "duration": 25, "velocity": 92}, {"time": 3469, "pitch": 59, "duration": 8, "velocity": 92}, {"time": 3475, "pitch": 66, "duration": 7, "velocity": 84}, {"time": 3481, "pitch": 59, "duration": 8, "velocity": 89}, {"time": 3487, "pitch": 66, "duration": 7, "velocity": 86}, {"time": 3493, "pitch": 59, "duration": 8, "velocity": 92}, {"time": 3499, "pitch": 66, "duration": 7, "velocity": 87}, {"time": 3505, "pitch": 59, "duration": 5, "velocity": 90}, {"time": 3511, "pitch": 68, "duration": 7, "velocity": 85}, {"time": 3517, "pitch": 61, "duration": 8, "velocity": 88}, {"time": 3523, "pitch": 68, "duration": 8, "velocity": 83}, {"time": 3529, "pitch": 61, "duration": 8, "velocity": 87}, {"time": 3535, "pitch": 68, "duration": 7, "velocity": 80}, {"time": 3541, "pitch": 61, "duration": 7, "velocity": 91}, {"time": 3547, "pitch": 68, "duration": 8, "velocity": 84}, {"time": 3553, "pitch": 61, "duration": 5, "velocity": 92}, {"time": 3559, "pitch": 66, "duration": 7, "velocity": 83}, {"time": 3565, "pitch": 59, "duration": 8, "velocity": 78}, {"time": 3571, "pitch": 66, "duration": 8, "velocity": 84}, {"time": 3577, "pitch": 59, "duration": 8, "velocity": 91}, {"time": 3583, "pitch": 66, "duration": 7, "velocity": 85}, {"time": 3589, "pitch": 59, "duration": 8, "velocity": 92}, {"time": 3595, "pitch": 66, "duration": 7, "velocity": 86}, {"time": 3601, "pitch": 59, "duration": 6, "velocity": 92}, {"time": 3607, "pitch": 68, "duration": 7, "velocity": 92}, {"time": 3613, "pitch": 61, "duration": 6, "velocity": 78}, {"time": 3619, "pitch": 68, "duration": 7, "velocity": 91}, {"time": 3625, "pitch": 61, "duration": 8, "velocity": 87}, {"time": 3631, "pitch": 68, "duration": 7, "velocity": 83}, {"time": 3637, "pitch": 61, "duration": 7, "velocity": 86}, {"time": 3643, "pitch": 68, "duration": 7, "velocity": 86}, {"time": 3649, "pitch": 61, "duration": 4, "velocity": 85}, {"time": 3655, "pitch": 69, "duration": 8, "velocity": 88}, {"time": 3661, "pitch": 64, "duration": 8, "velocity": 88}, {"time": 3667, "pitch": 69, "duration": 7, "velocity": 90}, {"time": 3673, "pitch": 64, "duration": 7, "velocity": 93}, {"time": 3679, "pitch": 69, "duration": 7, "velocity": 88}, {"time": 3685, "pitch": 64, "duration": 8, "velocity": 91}, {"time": 3691, "pitch": 69, "duration": 7, "velocity": 89}, {"time": 3697, "pitch": 64, "duration": 5, "velocity": 91}, {"time": 3703, "pitch": 68, "duration": 8, "velocity": 84}, {"time": 3709, "pitch": 59, "duration": 9, "velocity": 91}, {"time": 3712, "pitch": 78, "duration": 4, "velocity": 86}, {"time": 3715, "pitch": 68, "duration": 8, "velocity": 82}, {"time": 3715, "pitch": 80, "duration": 7, "velocity": 93}, {"time": 3721, "pitch": 59, "duration": 9, "velocity": 86}, {"time": 3721, "pitch": 83, "duration": 7, "velocity": 94}, {"time": 3727, "pitch": 68, "duration": 8, "velocity": 82}, {"time": 3727, "pitch": 80, "duration": 6, "velocity": 97}, {"time": 3733, "pitch": 59, "duration": 8, "velocity": 85}, {"time": 3733, "pitch": 76, "duration": 16, "velocity": 96}, {"time": 3739, "pitch": 68, "duration": 9, "velocity": 92}, {"time": 3745, "pitch": 59, "duration": 7, "velocity": 86}, {"time": 3757, "pitch": 64, "duration": 7, "velocity": 89}, {"time": 3763, "pitch": 69, "duration": 8, "velocity": 91}, {"time": 3769, "pitch": 64, "duration": 7, "velocity": 90}, {"time": 3775, "pitch": 69, "duration": 8, "velocity": 91}, {"time": 3781, "pitch": 64, "duration": 7, "velocity": 85}, {"time": 3787, "pitch": 69, "duration": 9, "velocity": 86}, {"time": 3793, "pitch": 64, "duration": 5, "velocity": 86}, {"time": 3805, "pitch": 64, "duration": 7, "velocity": 83}, {"time": 3805, "pitch": 71, "duration": 7, "velocity": 93}, {"time": 3811, "pitch": 68, "duration": 9, "velocity": 84}, {"time": 3811, "pitch": 80, "duration": 7, "velocity": 96}, {"time": 3817, "pitch": 64, "duration": 8, "velocity": 80}, {"time": 3817, "pitch": 78, "duration": 7, "velocity": 96}, {"time": 3823, "pitch": 68, "duration": 7, "velocity": 81}, {"time": 3823, "pitch": 80, "duration": 14, "velocity": 100}, {"time": 3829, "pitch": 64, "duration": 8, "velocity": 86}, {"time": 3835, "pitch": 68, "duration": 12, "velocity": 87}, {"time": 3835, "pitch": 78, "duration": 7, "velocity": 98}, {"time": 3841, "pitch": 64, "duration": 7, "velocity": 86}, {"time": 3841, "pitch": 76, "duration": 6, "velocity": 93}, {"time": 3847, "pitch": 66, "duration": 7, "velocity": 80}, {"time": 3847, "pitch": 78, "duration": 25, "velocity": 92}, {"time": 3853, "pitch": 59, "duration": 8, "velocity": 92}, {"time": 3859, "pitch": 66, "duration": 7, "velocity": 84}, {"time": 3865, "pitch": 59, "duration": 8, "velocity": 89}, {"time": 3871, "pitch": 66, "duration": 7, "velocity": 86}, {"time": 3877, "pitch": 59, "duration": 8, "velocity": 92}, {"time": 3883, "pitch": 66, "duration": 7, "velocity": 87}, {"time": 3889, "pitch": 59, "duration": 5, "velocity": 90}, {"time": 3895, "pitch": 68, "duration": 7, "velocity": 85}, {"time": 3901, "pitch": 61, "duration": 8, "velocity": 88}, {"time": 3907, "pitch": 68, "duration": 8, "velocity": 83}, {"time": 3913, "pitch": 61, "duration": 8, "velocity": 87}, {"time": 3919, "pitch": 68, "duration": 7, "velocity": 80}, {"time": 3925, "pitch": 61, "duration": 7, "velocity": 91}, {"time": 3931, "pitch": 68, "duration": 8, "velocity": 84}, {"time": 3937, "pitch": 61, "duration": 5, "velocity": 92}, {"time": 3943, "pitch": 66, "duration": 7, "velocity": 83}, {"time": 3949, "pitch": 59, "duration": 8, "velocity": 78}, {"time": 3955, "pitch": 66, "duration": 8, "velocity": 84}, {"time": 3961, "pitch": 59, "duration": 8, "velocity": 91}, {"time": 3967, "pitch": 66, "duration": 7, "velocity": 85}, {"time": 3973, "pitch": 59, "duration": 8, "velocity": 92}, {"time": 3979, "pitch": 66, "duration": 7, "velocity": 86}, {"time": 3985, "pitch": 59, "duration": 6, "velocity": 92}, {"time": 3991, "pitch": 68, "duration": 7, "velocity": 92}, {"time": 3997, "pitch": 61, "duration": 6, "velocity": 78}, {"time": 4003, "pitch": 68, "duration": 7, "velocity": 91}, {"time": 4009, "pitch": 61, "duration": 8, "velocity": 87}, {"time": 4015, "pitch": 68, "duration": 7, "velocity": 83}, {"time": 4021, "pitch": 61, "duration": 7, "velocity": 86}, {"time": 4027, "pitch": 68, "duration": 7, "velocity": 86}, {"time": 4033, "pitch": 61, "duration": 4, "velocity": 85}, {"time": 4039, "pitch": 71, "duration": 16, "velocity": 87}, {"time": 4039, "pitch": 75, "duration": 16, "velocity": 89}, {"time": 4087, "pitch": 68, "duration": 3, "velocity": 92}, {"time": 4087, "pitch": 71, "duration": 3, "velocity": 92}, {"time": 4093, "pitch": 68, "duration": 3, "velocity": 91}, {"time": 4093, "pitch": 71, "duration": 3, "velocity": 91}, {"time": 4099, "pitch": 68, "duration": 2, "velocity": 91}, {"time": 4099, "pitch": 71, "duration": 2, "velocity": 91}, {"time": 4102, "pitch": 68, "duration": 3, "velocity": 91}, {"time": 4102, "pitch": 71, "duration": 3, "velocity": 91}, {"time": 4108, "pitch": 68, "duration": 3, "velocity": 93}, {"time": 4108, "pitch": 71, "duration": 3, "velocity": 93}, {"time": 4114, "pitch": 68, "duration": 2, "velocity": 90}, {"time": 4114, "pitch": 71, "duration": 2, "velocity": 90}, {"time": 4117, "pitch": 68, "duration": 2, "velocity": 91}, {"time": 4117, "pitch": 71, "duration": 2, "velocity": 91}, {"time": 4120, "pitch": 68, "duration": 2, "velocity": 91}, {"time": 4120, "pitch": 71, "duration": 2, "velocity": 91}, {"time": 4123, "pitch": 68, "duration": 3, "velocity": 93}, {"time": 4123, "pitch": 71, "duration": 3, "velocity": 93}, {"time": 4129, "pitch": 68, "duration": 2, "velocity": 90}, {"time": 4129, "pitch": 71, "duration": 2, "velocity": 90}, {"time": 4132, "pitch": 68, "duration": 2, "velocity": 91}, {"time": 4132, "pitch": 71, "duration": 2, "velocity": 91}, {"time": 4135, "pitch": 64, "duration": 25, "velocity": 91}, {"time": 4135, "pitch": 69, "duration": 25, "velocity": 86}, {"time": 4183, "pitch": 68, "duration": 3, "velocity": 92}, {"time": 4183, "pitch": 71, "duration": 3, "velocity": 92}, {"time": 4189, "pitch": 68, "duration": 3, "velocity": 91}, {"time": 4189, "pitch": 71, "duration": 3, "velocity": 91}, {"time": 4195, "pitch": 68, "duration": 2, "velocity": 91}, {"time": 4195, "pitch": 71, "duration": 2, "velocity": 91}, {"time": 4198, "pitch": 68, "duration": 3, "velocity": 91}, {"time": 4198, "pitch": 71, "duration": 3, "velocity": 91}, {"time": 4204, "pitch": 68, "duration": 3, "velocity": 93}, {"time": 4204, "pitch": 71, "duration": 3, "velocity": 93}, {"time": 4210, "pitch": 68, "duration": 2, "velocity": 90}, {"time": 4210, "pitch": 71, "duration": 2, "velocity": 90}, {"time": 4213, "pitch": 68, "duration": 2, "velocity": 91}, {"time": 4213, "pitch": 71, "duration": 2, "velocity": 91}, {"time": 4216, "pitch": 68, "duration": 2, "velocity": 91}, {"time": 4216, "pitch": 71, "duration": 2, "velocity": 91}, {"time": 4219, "pitch": 68, "duration": 3, "velocity": 93}, {"time": 4219, "pitch": 71, "duration": 3, "velocity": 93}, {"time": 4225, "pitch": 68, "duration": 2, "velocity": 90}, {"time": 4225, "pitch": 71, "duration": 2, "velocity": 90}, {"time": 4228, "pitch": 68, "duration": 2, "velocity": 91}, {"time": 4228, "pitch": 71, "duration": 2, "velocity": 91}, {"time": 4231, "pitch": 66, "duration": 25, "velocity": 91}, {"time": 4231, "pitch": 71, "duration": 25, "velocity": 86}, {"time": 4279, "pitch": 73, "duration": 4, "velocity": 89}, {"time": 4285, "pitch": 73, "duration": 5, "velocity": 93}, {"time": 4291, "pitch": 71, "duration": 3, "velocity": 93}, {"time": 4294, "pitch": 73, "duration": 2, "velocity": 90}, {"time": 4297, "pitch": 73, "duration": 2, "velocity": 87}, {"time": 4300, "pitch": 71, "duration": 2, "velocity": 94}, {"time": 4303, "pitch": 73, "duration": 5, "velocity": 91}, {"time": 4309, "pitch": 73, "duration": 6, "velocity": 92}, {"time": 4315, "pitch": 71, "duration": 3, "velocity": 93}, {"time": 4318, "pitch": 73, "duration": 2, "velocity": 93}, {"time": 4321, "pitch": 73, "duration": 2, "velocity": 87}, {"time": 4324, "pitch": 71, "duration": 2, "velocity": 96}, {"time": 4327, "pitch": 71, "duration": 21, "velocity": 97}, {"time": 4375, "pitch": 73, "duration": 5, "velocity": 93}, {"time": 4381, "pitch": 73, "duration": 5, "velocity": 93}, {"time": 4387, "pitch": 71, "duration": 3, "velocity": 97}, {"time": 4390, "pitch": 73, "duration": 5, "velocity": 95}, {"time": 4396, "pitch": 76, "duration": 9, "velocity": 93}, {"time": 4405, "pitch": 73, "duration": 6, "velocity": 96}, {"time": 4411, "pitch": 71, "duration": 3, "velocity": 92}, {"time": 4414, "pitch": 73, "duration": 10, "velocity": 95}, {"time": 4423, "pitch": 64, "duration": 5, "velocity": 91}, {"time": 4423, "pitch": 69, "duration": 5, "velocity": 88}, {"time": 4429, "pitch": 64, "duration": 3, "velocity": 87}, {"time": 4429, "pitch": 69, "duration": 3, "velocity": 90}, {"time": 4435, "pitch": 64, "duration": 3, "velocity": 84}, {"time": 4435, "pitch": 69, "duration": 3, "velocity": 87}, {"time": 4441, "pitch": 64, "duration": 2, "velocity": 89}, {"time": 4441, "pitch": 69, "duration": 2, "velocity": 88}, {"time": 4444, "pitch": 64, "duration": 2, "velocity": 87}, {"time": 4444, "pitch": 69, "duration": 2, "velocity": 92}, {"time": 4447, "pitch": 64, "duration": 2, "velocity": 89}, {"time": 4447, "pitch": 69, "duration": 2, "velocity": 92}, {"time": 4453, "pitch": 64, "duration": 4, "velocity": 89}, {"time": 4453, "pitch": 69, "duration": 4, "velocity": 87}, {"time": 4459, "pitch": 64, "duration": 8, "velocity": 91}, {"time": 4459, "pitch": 69, "duration": 9, "velocity": 91}, {"time": 4471, "pitch": 68, "duration": 3, "velocity": 92}, {"time": 4471, "pitch": 71, "duration": 3, "velocity": 92}, {"time": 4477, "pitch": 68, "duration": 3, "velocity": 91}, {"time": 4477, "pitch": 71, "duration": 3, "velocity": 91}, {"time": 4483, "pitch": 68, "duration": 2, "velocity": 91}, {"time": 4483, "pitch": 71, "duration": 2, "velocity": 91}, {"time": 4486, "pitch": 68, "duration": 3, "velocity": 91}, {"time": 4486, "pitch": 71, "duration": 3, "velocity": 91}, {"time": 4492, "pitch": 68, "duration": 3, "velocity": 93}, {"time": 4492, "pitch": 71, "duration": 3, "velocity": 93}, {"time": 4498, "pitch": 68, "duration": 2, "velocity": 90}, {"time": 4498, "pitch": 71, "duration": 2, "velocity": 90}, {"time": 4501, "pitch": 68, "duration": 2, "velocity": 91}, {"time": 4501, "pitch": 71, "duration": 2, "velocity": 91}, {"time": 4504, "pitch": 68, "duration": 2, "velocity": 91}, {"time": 4504, "pitch": 71, "duration": 2, "velocity": 91}, {"time": 4507, "pitch": 68, "duration": 3, "velocity": 93}, {"time": 4507, "pitch": 71, "duration": 3, "velocity": 93}, {"time": 4513, "pitch": 68, "duration": 2, "velocity": 90}, {"time": 4513, "pitch": 71, "duration": 2, "velocity": 90}, {"time": 4516, "pitch": 68, "duration": 2, "velocity": 91}, {"time": 4516, "pitch": 71, "duration": 2, "velocity": 91}, {"time": 4519, "pitch": 64, "duration": 25, "velocity": 91}, {"time": 4519, "pitch": 69, "duration": 25, "velocity": 86}, {"time": 4567, "pitch": 68, "duration": 3, "velocity": 92}, {"time": 4567, "pitch": 71, "duration": 3, "velocity": 92}, {"time": 4573, "pitch": 68, "duration": 3, "velocity": 91}, {"time": 4573, "pitch": 71, "duration": 3, "velocity": 91}, {"time": 4579, "pitch": 68, "duration": 2, "velocity": 91}, {"time": 4579, "pitch": 71, "duration": 2, "velocity": 91}, {"time": 4582, "pitch": 68, "duration": 3, "velocity": 91}, {"time": 4582, "pitch": 71, "duration": 3, "velocity": 91}, {"time": 4588, "pitch": 68, "duration": 3, "velocity": 93}, {"time": 4588, "pitch": 71, "duration": 3, "velocity": 93}, {"time": 4594, "pitch": 68, "duration": 2, "velocity": 90}, {"time": 4594, "pitch": 71, "duration": 2, "velocity": 90}, {"time": 4597, "pitch": 68, "duration": 2, "velocity": 91}, {"time": 4597, "pitch": 71, "duration": 2, "velocity": 91}, {"time": 4600, "pitch": 68, "duration": 2, "velocity": 91}, {"time": 4600, "pitch": 71, "duration": 2, "velocity": 91}, {"time": 4603, "pitch": 68, "duration": 3, "velocity": 93}, {"time": 4603, "pitch": 71, "duration": 3, "velocity": 93}, {"time": 4609, "pitch": 68, "duration": 2, "velocity": 90}, {"time": 4609, "pitch": 71, "duration": 2, "velocity": 90}, {"time": 4612, "pitch": 68, "duration": 2, "velocity": 91}, {"time": 4612, "pitch": 71, "duration": 2, "velocity": 91}, {"time": 4615, "pitch": 66, "duration": 25, "velocity": 91}, {"time": 4615, "pitch": 71, "duration": 25, "velocity": 86}, {"time": 4663, "pitch": 73, "duration": 4, "velocity": 89}, {"time": 4669, "pitch": 73, "duration": 5, "velocity": 93}, {"time": 4675, "pitch": 71, "duration": 3, "velocity": 93}, {"time": 4678, "pitch": 73, "duration": 2, "velocity": 90}, {"time": 4681, "pitch": 73, "duration": 2, "velocity": 87}, {"time": 4684, "pitch": 71, "duration": 2, "velocity": 94}, {"time": 4687, "pitch": 73, "duration": 5, "velocity": 91}, {"time": 4693, "pitch": 73, "duration": 6, "velocity": 92}, {"time": 4699, "pitch": 71, "duration": 3, "velocity": 93}, {"time": 4702, "pitch": 73, "duration": 2, "velocity": 93}, {"time": 4705, "pitch": 73, "duration": 2, "velocity": 87}, {"time": 4708, "pitch": 71, "duration": 2, "velocity": 96}, {"time": 4711, "pitch": 71, "duration": 21, "velocity": 97}, {"time": 4759, "pitch": 73, "duration": 5, "velocity": 93}, {"time": 4765, "pitch": 73, "duration": 5, "velocity": 93}, {"time": 4771, "pitch": 71, "duration": 3, "velocity": 97}, {"time": 4774, "pitch": 73, "duration": 5, "velocity": 95}, {"time": 4780, "pitch": 76, "duration": 9, "velocity": 93}, {"time": 4789, "pitch": 73, "duration": 6, "velocity": 96}, {"time": 4795, "pitch": 71, "duration": 3, "velocity": 92}, {"time": 4798, "pitch": 73, "duration": 10, "velocity": 95}, {"time": 4807, "pitch": 71, "duration": 16, "velocity": 87}, {"time": 4807, "pitch": 75, "duration": 16, "velocity": 89}]}, {"program": 0, "is_drum": false, "name": "PIANO", "notes": [{"time": 7, "pitch": 37, "duration": 38, "velocity": 76}, {"time": 7, "pitch": 61, "duration": 38, "velocity": 78}, {"time": 7, "pitch": 64, "duration": 37, "velocity": 82}, {"time": 55, "pitch": 45, "duration": 44, "velocity": 76}, {"time": 55, "pitch": 57, "duration": 48, "velocity": 75}, {"time": 55, "pitch": 61, "duration": 47, "velocity": 79}, {"time": 103, "pitch": 37, "duration": 38, "velocity": 76}, {"time": 103, "pitch": 61, "duration": 38, "velocity": 78}, {"time": 103, "pitch": 64, "duration": 37, "velocity": 82}, {"time": 151, "pitch": 45, "duration": 44, "velocity": 76}, {"time": 151, "pitch": 57, "duration": 48, "velocity": 75}, {"time": 151, "pitch": 61, "duration": 47, "velocity": 79}, {"time": 196, "pitch": 57, "duration": 3, "velocity": 86}, {"time": 198, "pitch": 61, "duration": 1, "velocity": 80}, {"time": 198, "pitch": 45, "duration": 38, "velocity": 92}, {"time": 199, "pitch": 64, "duration": 45, "velocity": 89}, {"time": 200, "pitch": 69, "duration": 44, "velocity": 77}, {"time": 247, "pitch": 52, "duration": 40, "velocity": 92}, {"time": 247, "pitch": 64, "duration": 8, "velocity": 90}, {"time": 247, "pitch": 68, "duration": 8, "velocity": 84}, {"time": 253, "pitch": 59, "duration": 9, "velocity": 80}, {"time": 259, "pitch": 64, "duration": 6, "velocity": 95}, {"time": 259, "pitch": 68, "duration": 5, "velocity": 93}, {"time": 259, "pitch": 71, "duration": 5, "velocity": 93}, {"time": 265, "pitch": 59, "duration": 5, "velocity": 70}, {"time": 268, "pitch": 64, "duration": 4, "velocity": 92}, {"time": 268, "pitch": 68, "duration": 4, "velocity": 92}, {"time": 271, "pitch": 59, "duration": 15, "velocity": 82}, {"time": 277, "pitch": 64, "duration": 4, "velocity": 86}, {"time": 283, "pitch": 64, "duration": 3, "velocity": 102}, {"time": 283, "pitch": 68, "duration": 5, "velocity": 92}, {"time": 289, "pitch": 64, "duration": 3, "velocity": 92}, {"time": 295, "pitch": 45, "duration": 41, "velocity": 92}, {"time": 295, "pitch": 64, "duration": 5, "velocity": 90}, {"time": 295, "pitch": 69, "duration": 4, "velocity": 89}, {"time": 301, "pitch": 52, "duration": 8, "velocity": 70}, {"time": 307, "pitch": 57, "duration": 4, "velocity": 91}, {"time": 307, "pitch": 61, "duration": 4, "velocity": 91}, {"time": 307, "pitch": 64, "duration": 4, "velocity": 93}, {"time": 313, "pitch": 52, "duration": 4, "velocity": 70}, {"time": 316, "pitch": 57, "duration": 4, "velocity": 87}, {"time": 316, "pitch": 61, "duration": 3, "velocity": 87}, {"time": 316, "pitch": 64, "duration": 4, "velocity": 91}, {"time": 319, "pitch": 52, "duration": 15, "velocity": 88}, {"time": 325, "pitch": 57, "duration": 5, "velocity": 84}, {"time": 331, "pitch": 57, "duration": 1, "velocity": 81}, {"time": 331, "pitch": 61, "duration": 11, "velocity": 92}, {"time": 331, "pitch": 64, "duration": 12, "velocity": 94}, {"time": 331, "pitch": 69, "duration": 15, "velocity": 91}, {"time": 337, "pitch": 57, "duration": 6, "velocity": 91}, {"time": 343, "pitch": 52, "duration": 40, "velocity": 94}, {"time": 349, "pitch": 59, "duration": 9, "velocity": 79}, {"time": 355, "pitch": 64, "duration": 4, "velocity": 92}, {"time": 355, "pitch": 68, "duration": 4, "velocity": 92}, {"time": 355, "pitch": 71, "duration": 5, "velocity": 91}, {"time": 361, "pitch": 59, "duration": 4, "velocity": 80}, {"time": 364, "pitch": 64, "duration": 3, "velocity": 97}, {"time": 367, "pitch": 59, "duration": 14, "velocity": 84}, {"time": 373, "pitch": 64, "duration": 4, "velocity": 95}, {"time": 379, "pitch": 64, "duration": 3, "velocity": 95}, {"time": 379, "pitch": 68, "duration": 6, "velocity": 95}, {"time": 379, "pitch": 71, "duration": 6, "velocity": 93}, {"time": 385, "pitch": 64, "duration": 2, "velocity": 92}, {"time": 391, "pitch": 47, "duration": 21, "velocity": 94}, {"time": 391, "pitch": 59, "duration": 11, "velocity": 91}, {"time": 403, "pitch": 59, "duration": 5, "velocity": 95}, {"time": 403, "pitch": 63, "duration": 5, "velocity": 92}, {"time": 403, "pitch": 66, "duration": 5, "velocity": 91}, {"time": 412, "pitch": 59, "duration": 4, "velocity": 87}, {"time": 412, "pitch": 63, "duration": 3, "velocity": 85}, {"time": 412, "pitch": 66, "duration": 3, "velocity": 79}, {"time": 415, "pitch": 54, "duration": 10, "velocity": 75}, {"time": 421, "pitch": 59, "duration": 7, "velocity": 93}, {"time": 421, "pitch": 63, "duration": 8, "velocity": 89}, {"time": 421, "pitch": 66, "duration": 9, "velocity": 85}, {"time": 421, "pitch": 71, "duration": 9, "velocity": 88}, {"time": 427, "pitch": 51, "duration": 5, "velocity": 71}, {"time": 433, "pitch": 59, "duration": 2, "velocity": 92}, {"time": 439, "pitch": 49, "duration": 23, "velocity": 97}, {"time": 439, "pitch": 61, "duration": 9, "velocity": 86}, {"time": 439, "pitch": 64, "duration": 8, "velocity": 86}, {"time": 439, "pitch": 68, "duration": 7, "velocity": 86}, {"time": 445, "pitch": 56, "duration": 9, "velocity": 75}, {"time": 451, "pitch": 61, "duration": 4, "velocity": 94}, {"time": 451, "pitch": 64, "duration": 3, "velocity": 100}, {"time": 451, "pitch": 68, "duration": 4, "velocity": 94}, {"time": 457, "pitch": 56, "duration": 4, "velocity": 45}, {"time": 460, "pitch": 61, "duration": 2, "velocity": 93}, {"time": 463, "pitch": 61, "duration": 4, "velocity": 94}, {"time": 463, "pitch": 64, "duration": 4, "velocity": 100}, {"time": 463, "pitch": 68, "duration": 4, "velocity": 93}, {"time": 469, "pitch": 61, "duration": 8, "velocity": 86}, {"time": 472, "pitch": 56, "duration": 4, "velocity": 91}, {"time": 481, "pitch": 61, "duration": 2, "velocity": 95}, {"time": 487, "pitch": 47, "duration": 16, "velocity": 93}, {"time": 487, "pitch": 59, "duration": 4, "velocity": 89}, {"time": 487, "pitch": 63, "duration": 7, "velocity": 83}, {"time": 487, "pitch": 66, "duration": 8, "velocity": 83}, {"time": 493, "pitch": 59, "duration": 3, "velocity": 85}, {"time": 499, "pitch": 59, "duration": 5, "velocity": 94}, {"time": 499, "pitch": 63, "duration": 5, "velocity": 93}, {"time": 499, "pitch": 66, "duration": 5, "velocity": 93}, {"time": 508, "pitch": 59, "duration": 2, "velocity": 91}, {"time": 511, "pitch": 59, "duration": 6, "velocity": 91}, {"time": 511, "pitch": 63, "duration": 7, "velocity": 87}, {"time": 511, "pitch": 66, "duration": 7, "velocity": 81}, {"time": 511, "pitch": 71, "duration": 6, "velocity": 92}, {"time": 517, "pitch": 54, "duration": 9, "velocity": 82}, {"time": 523, "pitch": 59, "duration": 3, "velocity": 102}, {"time": 523, "pitch": 63, "duration": 3, "velocity": 89}, {"time": 523, "pitch": 66, "duration": 3, "velocity": 84}, {"time": 535, "pitch": 37, "duration": 3, "velocity": 91}, {"time": 535, "pitch": 61, "duration": 4, "velocity": 91}, {"time": 535, "pitch": 64, "duration": 7, "velocity": 98}, {"time": 535, "pitch": 68, "duration": 7, "velocity": 87}, {"time": 541, "pitch": 61, "duration": 3, "velocity": 85}, {"time": 547, "pitch": 61, "duration": 5, "velocity": 93}, {"time": 547, "pitch": 64, "duration": 5, "velocity": 97}, {"time": 547, "pitch": 68, "duration": 5, "velocity": 92}, {"time": 553, "pitch": 56, "duration": 5, "velocity": 58}, {"time": 556, "pitch": 61, "duration": 2, "velocity": 91}, {"time": 559, "pitch": 61, "duration": 8, "velocity": 87}, {"time": 559, "pitch": 64, "duration": 9, "velocity": 95}, {"time": 559, "pitch": 68, "duration": 10, "velocity": 92}, {"time": 565, "pitch": 49, "duration": 13, "velocity": 87}, {"time": 571, "pitch": 61, "duration": 11, "velocity": 96}, {"time": 571, "pitch": 64, "duration": 12, "velocity": 96}, {"time": 571, "pitch": 68, "duration": 12, "velocity": 93}, {"time": 577, "pitch": 56, "duration": 6, "velocity": 93}, {"time": 583, "pitch": 45, "duration": 48, "velocity": 91}, {"time": 583, "pitch": 57, "duration": 10, "velocity": 85}, {"time": 583, "pitch": 64, "duration": 9, "velocity": 91}, {"time": 589, "pitch": 52, "duration": 9, "velocity": 83}, {"time": 595, "pitch": 57, "duration": 6, "velocity": 91}, {"time": 595, "pitch": 61, "duration": 7, "velocity": 86}, {"time": 595, "pitch": 64, "duration": 7, "velocity": 93}, {"time": 598, "pitch": 52, "duration": 6, "velocity": 78}, {"time": 604, "pitch": 57, "duration": 2, "velocity": 93}, {"time": 607, "pitch": 57, "duration": 7, "velocity": 91}, {"time": 607, "pitch": 61, "duration": 8, "velocity": 92}, {"time": 607, "pitch": 64, "duration": 8, "velocity": 93}, {"time": 613, "pitch": 52, "duration": 8, "velocity": 83}, {"time": 619, "pitch": 57, "duration": 12, "velocity": 92}, {"time": 619, "pitch": 61, "duration": 12, "velocity": 92}, {"time": 619, "pitch": 64, "duration": 12, "velocity": 93}, {"time": 625, "pitch": 52, "duration": 6, "velocity": 92}, {"time": 631, "pitch": 40, "duration": 39, "velocity": 93}, {"time": 631, "pitch": 52, "duration": 40, "velocity": 92}, {"time": 631, "pitch": 64, "duration": 8, "velocity": 90}, {"time": 631, "pitch": 68, "duration": 8, "velocity": 84}, {"time": 637, "pitch": 59, "duration": 9, "velocity": 80}, {"time": 643, "pitch": 64, "duration": 6, "velocity": 95}, {"time": 643, "pitch": 68, "duration": 5, "velocity": 93}, {"time": 643, "pitch": 71, "duration": 5, "velocity": 93}, {"time": 649, "pitch": 59, "duration": 5, "velocity": 70}, {"time": 652, "pitch": 64, "duration": 4, "velocity": 92}, {"time": 652, "pitch": 68, "duration": 4, "velocity": 92}, {"time": 655, "pitch": 59, "duration": 15, "velocity": 82}, {"time": 661, "pitch": 64, "duration": 4, "velocity": 86}, {"time": 667, "pitch": 64, "duration": 3, "velocity": 102}, {"time": 667, "pitch": 68, "duration": 5, "velocity": 92}, {"time": 673, "pitch": 64, "duration": 3, "velocity": 92}, {"time": 679, "pitch": 45, "duration": 41, "velocity": 92}, {"time": 679, "pitch": 64, "duration": 5, "velocity": 90}, {"time": 679, "pitch": 69, "duration": 4, "velocity": 89}, {"time": 685, "pitch": 52, "duration": 8, "velocity": 70}, {"time": 691, "pitch": 57, "duration": 4, "velocity": 91}, {"time": 691, "pitch": 61, "duration": 4, "velocity": 91}, {"time": 691, "pitch": 64, "duration": 4, "velocity": 93}, {"time": 697, "pitch": 52, "duration": 4, "velocity": 70}, {"time": 700, "pitch": 57, "duration": 4, "velocity": 87}, {"time": 700, "pitch": 61, "duration": 3, "velocity": 87}, {"time": 700, "pitch": 64, "duration": 4, "velocity": 91}, {"time": 703, "pitch": 52, "duration": 15, "velocity": 88}, {"time": 709, "pitch": 57, "duration": 5, "velocity": 84}, {"time": 715, "pitch": 57, "duration": 1, "velocity": 81}, {"time": 715, "pitch": 61, "duration": 11, "velocity": 92}, {"time": 715, "pitch": 64, "duration": 12, "velocity": 94}, {"time": 715, "pitch": 69, "duration": 15, "velocity": 91}, {"time": 721, "pitch": 57, "duration": 6, "velocity": 91}, {"time": 727, "pitch": 52, "duration": 40, "velocity": 94}, {"time": 733, "pitch": 59, "duration": 9, "velocity": 79}, {"time": 739, "pitch": 64, "duration": 4, "velocity": 92}, {"time": 739, "pitch": 68, "duration": 4, "velocity": 92}, {"time": 739, "pitch": 71, "duration": 5, "velocity": 91}, {"time": 745, "pitch": 59, "duration": 4, "velocity": 80}, {"time": 748, "pitch": 64, "duration": 3, "velocity": 97}, {"time": 751, "pitch": 59, "duration": 14, "velocity": 84}, {"time": 757, "pitch": 64, "duration": 4, "velocity": 95}, {"time": 763, "pitch": 64, "duration": 3, "velocity": 95}, {"time": 763, "pitch": 68, "duration": 6, "velocity": 95}, {"time": 763, "pitch": 71, "duration": 6, "velocity": 93}, {"time": 769, "pitch": 64, "duration": 2, "velocity": 92}, {"time": 775, "pitch": 47, "duration": 24, "velocity": 84}, {"time": 775, "pitch": 59, "duration": 11, "velocity": 91}, {"time": 787, "pitch": 59, "duration": 5, "velocity": 95}, {"time": 787, "pitch": 63, "duration": 5, "velocity": 92}, {"time": 787, "pitch": 66, "duration": 5, "velocity": 91}, {"time": 796, "pitch": 59, "duration": 4, "velocity": 87}, {"time": 796, "pitch": 63, "duration": 3, "velocity": 85}, {"time": 796, "pitch": 66, "duration": 3, "velocity": 79}, {"time": 799, "pitch": 54, "duration": 10, "velocity": 75}, {"time": 805, "pitch": 59, "duration": 7, "velocity": 93}, {"time": 805, "pitch": 63, "duration": 8, "velocity": 89}, {"time": 805, "pitch": 66, "duration": 9, "velocity": 85}, {"time": 805, "pitch": 71, "duration": 9, "velocity": 88}, {"time": 811, "pitch": 51, "duration": 5, "velocity": 71}, {"time": 817, "pitch": 59, "duration": 2, "velocity": 92}, {"time": 823, "pitch": 37, "duration": 38, "velocity": 78}, {"time": 823, "pitch": 49, "duration": 23, "velocity": 97}, {"time": 823, "pitch": 61, "duration": 9, "velocity": 86}, {"time": 823, "pitch": 64, "duration": 8, "velocity": 86}, {"time": 823, "pitch": 68, "duration": 7, "velocity": 86}, {"time": 829, "pitch": 56, "duration": 9, "velocity": 75}, {"time": 835, "pitch": 61, "duration": 4, "velocity": 94}, {"time": 835, "pitch": 64, "duration": 3, "velocity": 100}, {"time": 835, "pitch": 68, "duration": 4, "velocity": 94}, {"time": 841, "pitch": 56, "duration": 4, "velocity": 45}, {"time": 844, "pitch": 61, "duration": 2, "velocity": 93}, {"time": 847, "pitch": 61, "duration": 4, "velocity": 94}, {"time": 847, "pitch": 64, "duration": 4, "velocity": 100}, {"time": 847, "pitch": 68, "duration": 4, "velocity": 93}, {"time": 853, "pitch": 61, "duration": 8, "velocity": 86}, {"time": 856, "pitch": 56, "duration": 4, "velocity": 91}, {"time": 865, "pitch": 61, "duration": 2, "velocity": 95}, {"time": 871, "pitch": 47, "duration": 16, "velocity": 93}, {"time": 871, "pitch": 59, "duration": 4, "velocity": 89}, {"time": 871, "pitch": 63, "duration": 7, "velocity": 83}, {"time": 871, "pitch": 66, "duration": 8, "velocity": 83}, {"time": 877, "pitch": 59, "duration": 3, "velocity": 85}, {"time": 883, "pitch": 59, "duration": 5, "velocity": 94}, {"time": 883, "pitch": 63, "duration": 5, "velocity": 93}, {"time": 883, "pitch": 66, "duration": 5, "velocity": 93}, {"time": 892, "pitch": 59, "duration": 2, "velocity": 91}, {"time": 895, "pitch": 59, "duration": 6, "velocity": 91}, {"time": 895, "pitch": 63, "duration": 7, "velocity": 87}, {"time": 895, "pitch": 66, "duration": 7, "velocity": 81}, {"time": 895, "pitch": 71, "duration": 6, "velocity": 92}, {"time": 901, "pitch": 54, "duration": 9, "velocity": 82}, {"time": 907, "pitch": 59, "duration": 3, "velocity": 102}, {"time": 907, "pitch": 63, "duration": 3, "velocity": 89}, {"time": 907, "pitch": 66, "duration": 3, "velocity": 84}, {"time": 919, "pitch": 37, "duration": 3, "velocity": 91}, {"time": 919, "pitch": 49, "duration": 25, "velocity": 84}, {"time": 919, "pitch": 61, "duration": 4, "velocity": 91}, {"time": 919, "pitch": 64, "duration": 7, "velocity": 98}, {"time": 919, "pitch": 68, "duration": 7, "velocity": 87}, {"time": 925, "pitch": 61, "duration": 3, "velocity": 85}, {"time": 931, "pitch": 61, "duration": 5, "velocity": 93}, {"time": 931, "pitch": 64, "duration": 5, "velocity": 97}, {"time": 931, "pitch": 68, "duration": 5, "velocity": 92}, {"time": 937, "pitch": 56, "duration": 5, "velocity": 58}, {"time": 940, "pitch": 61, "duration": 2, "velocity": 91}, {"time": 943, "pitch": 61, "duration": 8, "velocity": 87}, {"time": 943, "pitch": 64, "duration": 9, "velocity": 95}, {"time": 943, "pitch": 68, "duration": 10, "velocity": 92}, {"time": 949, "pitch": 49, "duration": 13, "velocity": 87}, {"time": 955, "pitch": 61, "duration": 11, "velocity": 96}, {"time": 955, "pitch": 64, "duration": 12, "velocity": 96}, {"time": 955, "pitch": 68, "duration": 12, "velocity": 93}, {"time": 961, "pitch": 56, "duration": 6, "velocity": 93}, {"time": 967, "pitch": 47, "duration": 43, "velocity": 93}, {"time": 967, "pitch": 59, "duration": 44, "velocity": 89}, {"time": 967, "pitch": 63, "duration": 44, "velocity": 92}, {"time": 967, "pitch": 66, "duration": 44, "velocity": 86}, {"time": 967, "pitch": 71, "duration": 44, "velocity": 91}, {"time": 1015, "pitch": 45, "duration": 40, "velocity": 93}, {"time": 1015, "pitch": 57, "duration": 7, "velocity": 91}, {"time": 1015, "pitch": 61, "duration": 6, "velocity": 92}, {"time": 1015, "pitch": 64, "duration": 7, "velocity": 93}, {"time": 1021, "pitch": 52, "duration": 20, "velocity": 91}, {"time": 1027, "pitch": 57, "duration": 4, "velocity": 92}, {"time": 1027, "pitch": 61, "duration": 8, "velocity": 98}, {"time": 1027, "pitch": 64, "duration": 8, "velocity": 98}, {"time": 1033, "pitch": 57, "duration": 5, "velocity": 92}, {"time": 1039, "pitch": 61, "duration": 7, "velocity": 94}, {"time": 1039, "pitch": 64, "duration": 8, "velocity": 96}, {"time": 1039, "pitch": 69, "duration": 7, "velocity": 91}, {"time": 1045, "pitch": 52, "duration": 10, "velocity": 85}, {"time": 1045, "pitch": 57, "duration": 4, "velocity": 72}, {"time": 1051, "pitch": 57, "duration": 3, "velocity": 97}, {"time": 1051, "pitch": 61, "duration": 5, "velocity": 102}, {"time": 1051, "pitch": 64, "duration": 6, "velocity": 102}, {"time": 1051, "pitch": 69, "duration": 11, "velocity": 91}, {"time": 1057, "pitch": 45, "duration": 4, "velocity": 93}, {"time": 1057, "pitch": 57, "duration": 3, "velocity": 97}, {"time": 1063, "pitch": 47, "duration": 33, "velocity": 93}, {"time": 1063, "pitch": 59, "duration": 4, "velocity": 93}, {"time": 1063, "pitch": 63, "duration": 8, "velocity": 92}, {"time": 1069, "pitch": 59, "duration": 5, "velocity": 91}, {"time": 1075, "pitch": 63, "duration": 7, "velocity": 95}, {"time": 1075, "pitch": 66, "duration": 8, "velocity": 91}, {"time": 1081, "pitch": 54, "duration": 10, "velocity": 76}, {"time": 1081, "pitch": 59, "duration": 4, "velocity": 80}, {"time": 1087, "pitch": 59, "duration": 4, "velocity": 94}, {"time": 1087, "pitch": 63, "duration": 8, "velocity": 108}, {"time": 1087, "pitch": 66, "duration": 9, "velocity": 97}, {"time": 1093, "pitch": 59, "duration": 5, "velocity": 88}, {"time": 1099, "pitch": 47, "duration": 3, "velocity": 94}, {"time": 1099, "pitch": 59, "duration": 3, "velocity": 92}, {"time": 1099, "pitch": 63, "duration": 9, "velocity": 107}, {"time": 1099, "pitch": 66, "duration": 8, "velocity": 97}, {"time": 1105, "pitch": 59, "duration": 8, "velocity": 95}, {"time": 1111, "pitch": 40, "duration": 39, "velocity": 100}, {"time": 1117, "pitch": 52, "duration": 5, "velocity": 94}, {"time": 1123, "pitch": 56, "duration": 6, "velocity": 97}, {"time": 1123, "pitch": 59, "duration": 7, "velocity": 93}, {"time": 1129, "pitch": 52, "duration": 5, "velocity": 86}, {"time": 1135, "pitch": 56, "duration": 6, "velocity": 86}, {"time": 1135, "pitch": 59, "duration": 7, "velocity": 89}, {"time": 1135, "pitch": 64, "duration": 7, "velocity": 92}, {"time": 1141, "pitch": 47, "duration": 9, "velocity": 75}, {"time": 1147, "pitch": 52, "duration": 2, "velocity": 95}, {"time": 1147, "pitch": 56, "duration": 3, "velocity": 94}, {"time": 1147, "pitch": 59, "duration": 3, "velocity": 93}, {"time": 1147, "pitch": 64, "duration": 4, "velocity": 93}, {"time": 1153, "pitch": 40, "duration": 3, "velocity": 93}, {"time": 1159, "pitch": 37, "duration": 37, "velocity": 94}, {"time": 1159, "pitch": 61, "duration": 9, "velocity": 91}, {"time": 1159, "pitch": 68, "duration": 7, "velocity": 86}, {"time": 1165, "pitch": 44, "duration": 23, "velocity": 78}, {"time": 1171, "pitch": 61, "duration": 5, "velocity": 93}, {"time": 1171, "pitch": 64, "duration": 6, "velocity": 98}, {"time": 1171, "pitch": 68, "duration": 6, "velocity": 95}, {"time": 1180, "pitch": 61, "duration": 2, "velocity": 92}, {"time": 1183, "pitch": 61, "duration": 5, "velocity": 97}, {"time": 1183, "pitch": 64, "duration": 7, "velocity": 107}, {"time": 1183, "pitch": 68, "duration": 8, "velocity": 95}, {"time": 1189, "pitch": 44, "duration": 7, "velocity": 86}, {"time": 1195, "pitch": 61, "duration": 2, "velocity": 92}, {"time": 1195, "pitch": 64, "duration": 7, "velocity": 100}, {"time": 1195, "pitch": 68, "duration": 8, "velocity": 96}, {"time": 1201, "pitch": 61, "duration": 6, "velocity": 89}, {"time": 1207, "pitch": 42, "duration": 37, "velocity": 102}, {"time": 1213, "pitch": 54, "duration": 4, "velocity": 87}, {"time": 1219, "pitch": 54, "duration": 4, "velocity": 96}, {"time": 1219, "pitch": 57, "duration": 5, "velocity": 96}, {"time": 1219, "pitch": 61, "duration": 5, "velocity": 93}, {"time": 1225, "pitch": 49, "duration": 19, "velocity": 78}, {"time": 1228, "pitch": 54, "duration": 2, "velocity": 92}, {"time": 1231, "pitch": 54, "duration": 3, "velocity": 96}, {"time": 1231, "pitch": 57, "duration": 7, "velocity": 100}, {"time": 1231, "pitch": 61, "duration": 8, "velocity": 96}, {"time": 1237, "pitch": 54, "duration": 4, "velocity": 87}, {"time": 1243, "pitch": 54, "duration": 2, "velocity": 91}, {"time": 1243, "pitch": 57, "duration": 5, "velocity": 93}, {"time": 1243, "pitch": 61, "duration": 7, "velocity": 92}, {"time": 1249, "pitch": 54, "duration": 2, "velocity": 92}, {"time": 1255, "pitch": 47, "duration": 17, "velocity": 95}, {"time": 1255, "pitch": 59, "duration": 5, "velocity": 91}, {"time": 1255, "pitch": 63, "duration": 7, "velocity": 91}, {"time": 1261, "pitch": 59, "duration": 4, "velocity": 91}, {"time": 1267, "pitch": 59, "duration": 3, "velocity": 91}, {"time": 1267, "pitch": 63, "duration": 6, "velocity": 95}, {"time": 1267, "pitch": 66, "duration": 3, "velocity": 91}, {"time": 1276, "pitch": 59, "duration": 2, "velocity": 94}, {"time": 1279, "pitch": 59, "duration": 2, "velocity": 92}, {"time": 1279, "pitch": 63, "duration": 8, "velocity": 97}, {"time": 1279, "pitch": 66, "duration": 8, "velocity": 93}, {"time": 1285, "pitch": 59, "duration": 4, "velocity": 88}, {"time": 1291, "pitch": 54, "duration": 3, "velocity": 86}, {"time": 1291, "pitch": 59, "duration": 3, "velocity": 97}, {"time": 1291, "pitch": 63, "duration": 4, "velocity": 98}, {"time": 1291, "pitch": 66, "duration": 6, "velocity": 94}, {"time": 1297, "pitch": 59, "duration": 4, "velocity": 92}, {"time": 1303, "pitch": 40, "duration": 40, "velocity": 94}, {"time": 1303, "pitch": 59, "duration": 4, "velocity": 92}, {"time": 1303, "pitch": 64, "duration": 7, "velocity": 93}, {"time": 1309, "pitch": 59, "duration": 3, "velocity": 83}, {"time": 1315, "pitch": 59, "duration": 5, "velocity": 93}, {"time": 1315, "pitch": 64, "duration": 7, "velocity": 100}, {"time": 1315, "pitch": 68, "duration": 8, "velocity": 93}, {"time": 1324, "pitch": 59, "duration": 2, "velocity": 93}, {"time": 1327, "pitch": 59, "duration": 2, "velocity": 89}, {"time": 1327, "pitch": 64, "duration": 7, "velocity": 95}, {"time": 1327, "pitch": 68, "duration": 8, "velocity": 95}, {"time": 1333, "pitch": 59, "duration": 3, "velocity": 94}, {"time": 1339, "pitch": 59, "duration": 2, "velocity": 93}, {"time": 1339, "pitch": 64, "duration": 8, "velocity": 100}, {"time": 1339, "pitch": 68, "duration": 8, "velocity": 100}, {"time": 1345, "pitch": 59, "duration": 3, "velocity": 97}, {"time": 1351, "pitch": 47, "duration": 23, "velocity": 93}, {"time": 1351, "pitch": 59, "duration": 5, "velocity": 90}, {"time": 1351, "pitch": 63, "duration": 7, "velocity": 91}, {"time": 1351, "pitch": 66, "duration": 8, "velocity": 87}, {"time": 1357, "pitch": 59, "duration": 4, "velocity": 88}, {"time": 1363, "pitch": 59, "duration": 1, "velocity": 78}, {"time": 1363, "pitch": 63, "duration": 9, "velocity": 92}, {"time": 1363, "pitch": 66, "duration": 10, "velocity": 90}, {"time": 1372, "pitch": 59, "duration": 2, "velocity": 90}, {"time": 1375, "pitch": 59, "duration": 7, "velocity": 93}, {"time": 1375, "pitch": 63, "duration": 9, "velocity": 94}, {"time": 1375, "pitch": 66, "duration": 9, "velocity": 89}, {"time": 1381, "pitch": 54, "duration": 10, "velocity": 83}, {"time": 1387, "pitch": 59, "duration": 3, "velocity": 94}, {"time": 1387, "pitch": 63, "duration": 13, "velocity": 97}, {"time": 1387, "pitch": 66, "duration": 13, "velocity": 93}, {"time": 1393, "pitch": 59, "duration": 7, "velocity": 102}, {"time": 1399, "pitch": 45, "duration": 40, "velocity": 93}, {"time": 1399, "pitch": 57, "duration": 7, "velocity": 91}, {"time": 1399, "pitch": 61, "duration": 6, "velocity": 92}, {"time": 1399, "pitch": 64, "duration": 7, "velocity": 93}, {"time": 1405, "pitch": 52, "duration": 20, "velocity": 91}, {"time": 1411, "pitch": 57, "duration": 4, "velocity": 92}, {"time": 1411, "pitch": 61, "duration": 8, "velocity": 98}, {"time": 1411, "pitch": 64, "duration": 8, "velocity": 98}, {"time": 1417, "pitch": 57, "duration": 5, "velocity": 92}, {"time": 1423, "pitch": 61, "duration": 7, "velocity": 94}, {"time": 1423, "pitch": 64, "duration": 8, "velocity": 96}, {"time": 1423, "pitch": 69, "duration": 7, "velocity": 91}, {"time": 1429, "pitch": 52, "duration": 10, "velocity": 85}, {"time": 1429, "pitch": 57, "duration": 4, "velocity": 72}, {"time": 1435, "pitch": 57, "duration": 3, "velocity": 97}, {"time": 1435, "pitch": 61, "duration": 5, "velocity": 102}, {"time": 1435, "pitch": 64, "duration": 6, "velocity": 102}, {"time": 1435, "pitch": 69, "duration": 11, "velocity": 91}, {"time": 1441, "pitch": 45, "duration": 4, "velocity": 93}, {"time": 1441, "pitch": 57, "duration": 3, "velocity": 97}, {"time": 1447, "pitch": 47, "duration": 33, "velocity": 93}, {"time": 1447, "pitch": 59, "duration": 4, "velocity": 93}, {"time": 1447, "pitch": 63, "duration": 8, "velocity": 92}, {"time": 1453, "pitch": 59, "duration": 5, "velocity": 91}, {"time": 1459, "pitch": 63, "duration": 7, "velocity": 95}, {"time": 1459, "pitch": 66, "duration": 8, "velocity": 91}, {"time": 1465, "pitch": 54, "duration": 10, "velocity": 76}, {"time": 1465, "pitch": 59, "duration": 4, "velocity": 80}, {"time": 1471, "pitch": 59, "duration": 4, "velocity": 94}, {"time": 1471, "pitch": 63, "duration": 8, "velocity": 108}, {"time": 1471, "pitch": 66, "duration": 9, "velocity": 97}, {"time": 1477, "pitch": 59, "duration": 5, "velocity": 88}, {"time": 1483, "pitch": 47, "duration": 3, "velocity": 94}, {"time": 1483, "pitch": 59, "duration": 3, "velocity": 92}, {"time": 1483, "pitch": 63, "duration": 9, "velocity": 107}, {"time": 1483, "pitch": 66, "duration": 8, "velocity": 97}, {"time": 1489, "pitch": 59, "duration": 8, "velocity": 95}, {"time": 1495, "pitch": 40, "duration": 39, "velocity": 100}, {"time": 1501, "pitch": 52, "duration": 5, "velocity": 94}, {"time": 1507, "pitch": 52, "duration": 1, "velocity": 72}, {"time": 1507, "pitch": 56, "duration": 6, "velocity": 97}, {"time": 1507, "pitch": 59, "duration": 7, "velocity": 93}, {"time": 1513, "pitch": 52, "duration": 5, "velocity": 86}, {"time": 1519, "pitch": 56, "duration": 6, "velocity": 86}, {"time": 1519, "pitch": 59, "duration": 7, "velocity": 89}, {"time": 1519, "pitch": 64, "duration": 7, "velocity": 92}, {"time": 1525, "pitch": 47, "duration": 9, "velocity": 75}, {"time": 1531, "pitch": 52, "duration": 2, "velocity": 95}, {"time": 1531, "pitch": 56, "duration": 3, "velocity": 94}, {"time": 1531, "pitch": 59, "duration": 3, "velocity": 93}, {"time": 1531, "pitch": 64, "duration": 4, "velocity": 93}, {"time": 1537, "pitch": 40, "duration": 3, "velocity": 93}, {"time": 1543, "pitch": 37, "duration": 37, "velocity": 94}, {"time": 1543, "pitch": 61, "duration": 9, "velocity": 91}, {"time": 1543, "pitch": 68, "duration": 7, "velocity": 86}, {"time": 1549, "pitch": 44, "duration": 23, "velocity": 78}, {"time": 1555, "pitch": 61, "duration": 5, "velocity": 93}, {"time": 1555, "pitch": 64, "duration": 6, "velocity": 98}, {"time": 1555, "pitch": 68, "duration": 6, "velocity": 95}, {"time": 1564, "pitch": 61, "duration": 2, "velocity": 92}, {"time": 1567, "pitch": 61, "duration": 5, "velocity": 97}, {"time": 1567, "pitch": 64, "duration": 7, "velocity": 107}, {"time": 1567, "pitch": 68, "duration": 8, "velocity": 95}, {"time": 1573, "pitch": 44, "duration": 7, "velocity": 86}, {"time": 1579, "pitch": 61, "duration": 2, "velocity": 92}, {"time": 1579, "pitch": 64, "duration": 7, "velocity": 100}, {"time": 1579, "pitch": 68, "duration": 8, "velocity": 96}, {"time": 1585, "pitch": 61, "duration": 6, "velocity": 89}, {"time": 1591, "pitch": 42, "duration": 37, "velocity": 102}, {"time": 1597, "pitch": 54, "duration": 4, "velocity": 87}, {"time": 1603, "pitch": 54, "duration": 4, "velocity": 96}, {"time": 1603, "pitch": 57, "duration": 5, "velocity": 96}, {"time": 1603, "pitch": 61, "duration": 5, "velocity": 93}, {"time": 1609, "pitch": 49, "duration": 19, "velocity": 78}, {"time": 1612, "pitch": 54, "duration": 2, "velocity": 92}, {"time": 1615, "pitch": 54, "duration": 3, "velocity": 96}, {"time": 1615, "pitch": 57, "duration": 7, "velocity": 100}, {"time": 1615, "pitch": 61, "duration": 8, "velocity": 96}, {"time": 1621, "pitch": 54, "duration": 4, "velocity": 87}, {"time": 1627, "pitch": 54, "duration": 2, "velocity": 91}, {"time": 1627, "pitch": 57, "duration": 5, "velocity": 93}, {"time": 1627, "pitch": 61, "duration": 7, "velocity": 92}, {"time": 1633, "pitch": 54, "duration": 2, "velocity": 92}, {"time": 1639, "pitch": 40, "duration": 17, "velocity": 95}, {"time": 1639, "pitch": 52, "duration": 5, "velocity": 91}, {"time": 1639, "pitch": 64, "duration": 7, "velocity": 91}, {"time": 1645, "pitch": 52, "duration": 4, "velocity": 91}, {"time": 1651, "pitch": 52, "duration": 3, "velocity": 91}, {"time": 1651, "pitch": 64, "duration": 6, "velocity": 95}, {"time": 1651, "pitch": 68, "duration": 3, "velocity": 91}, {"time": 1658, "pitch": 52, "duration": 2, "velocity": 94}, {"time": 1663, "pitch": 52, "duration": 2, "velocity": 92}, {"time": 1663, "pitch": 64, "duration": 8, "velocity": 97}, {"time": 1663, "pitch": 68, "duration": 8, "velocity": 93}, {"time": 1663, "pitch": 71, "duration": 8, "velocity": 93}, {"time": 1669, "pitch": 52, "duration": 4, "velocity": 88}, {"time": 1675, "pitch": 52, "duration": 3, "velocity": 97}, {"time": 1675, "pitch": 56, "duration": 3, "velocity": 86}, {"time": 1675, "pitch": 64, "duration": 4, "velocity": 98}, {"time": 1675, "pitch": 68, "duration": 6, "velocity": 94}, {"time": 1681, "pitch": 59, "duration": 4, "velocity": 92}, {"time": 1687, "pitch": 42, "duration": 40, "velocity": 94}, {"time": 1687, "pitch": 59, "duration": 30, "velocity": 92}, {"time": 1687, "pitch": 66, "duration": 41, "velocity": 93}, {"time": 1688, "pitch": 54, "duration": 32, "velocity": 97}, {"time": 1688, "pitch": 63, "duration": 41, "velocity": 97}, {"time": 1729, "pitch": 59, "duration": 3, "velocity": 97}, {"time": 1732, "pitch": 57, "duration": 33, "velocity": 86}, {"time": 1732, "pitch": 61, "duration": 32, "velocity": 85}, {"time": 1735, "pitch": 45, "duration": 6, "velocity": 92}, {"time": 1735, "pitch": 64, "duration": 31, "velocity": 94}, {"time": 1735, "pitch": 69, "duration": 31, "velocity": 92}, {"time": 1783, "pitch": 40, "duration": 38, "velocity": 93}, {"time": 1783, "pitch": 64, "duration": 8, "velocity": 92}, {"time": 1783, "pitch": 68, "duration": 8, "velocity": 88}, {"time": 1789, "pitch": 59, "duration": 7, "velocity": 92}, {"time": 1795, "pitch": 64, "duration": 8, "velocity": 94}, {"time": 1795, "pitch": 68, "duration": 8, "velocity": 97}, {"time": 1801, "pitch": 59, "duration": 3, "velocity": 86}, {"time": 1807, "pitch": 59, "duration": 4, "velocity": 91}, {"time": 1807, "pitch": 64, "duration": 9, "velocity": 97}, {"time": 1807, "pitch": 68, "duration": 9, "velocity": 94}, {"time": 1813, "pitch": 59, "duration": 4, "velocity": 90}, {"time": 1819, "pitch": 59, "duration": 2, "velocity": 95}, {"time": 1819, "pitch": 64, "duration": 6, "velocity": 97}, {"time": 1819, "pitch": 68, "duration": 7, "velocity": 94}, {"time": 1825, "pitch": 59, "duration": 2, "velocity": 93}, {"time": 1831, "pitch": 45, "duration": 40, "velocity": 94}, {"time": 1831, "pitch": 57, "duration": 7, "velocity": 81}, {"time": 1831, "pitch": 61, "duration": 8, "velocity": 82}, {"time": 1831, "pitch": 64, "duration": 9, "velocity": 82}, {"time": 1837, "pitch": 52, "duration": 22, "velocity": 87}, {"time": 1843, "pitch": 61, "duration": 5, "velocity": 92}, {"time": 1843, "pitch": 64, "duration": 4, "velocity": 93}, {"time": 1849, "pitch": 57, "duration": 4, "velocity": 87}, {"time": 1855, "pitch": 57, "duration": 8, "velocity": 88}, {"time": 1855, "pitch": 61, "duration": 9, "velocity": 93}, {"time": 1855, "pitch": 64, "duration": 9, "velocity": 95}, {"time": 1861, "pitch": 52, "duration": 9, "velocity": 89}, {"time": 1867, "pitch": 57, "duration": 3, "velocity": 92}, {"time": 1867, "pitch": 61, "duration": 3, "velocity": 102}, {"time": 1867, "pitch": 64, "duration": 4, "velocity": 100}, {"time": 1873, "pitch": 45, "duration": 3, "velocity": 93}, {"time": 1879, "pitch": 40, "duration": 41, "velocity": 92}, {"time": 1879, "pitch": 59, "duration": 4, "velocity": 87}, {"time": 1879, "pitch": 64, "duration": 8, "velocity": 91}, {"time": 1879, "pitch": 68, "duration": 8, "velocity": 86}, {"time": 1885, "pitch": 59, "duration": 5, "velocity": 84}, {"time": 1891, "pitch": 64, "duration": 7, "velocity": 91}, {"time": 1891, "pitch": 68, "duration": 7, "velocity": 92}, {"time": 1897, "pitch": 59, "duration": 3, "velocity": 91}, {"time": 1903, "pitch": 64, "duration": 8, "velocity": 92}, {"time": 1903, "pitch": 68, "duration": 6, "velocity": 93}, {"time": 1909, "pitch": 59, "duration": 4, "velocity": 92}, {"time": 1915, "pitch": 64, "duration": 7, "velocity": 100}, {"time": 1915, "pitch": 68, "duration": 7, "velocity": 95}, {"time": 1921, "pitch": 59, "duration": 3, "velocity": 93}, {"time": 1927, "pitch": 47, "duration": 38, "velocity": 95}, {"time": 1927, "pitch": 59, "duration": 4, "velocity": 91}, {"time": 1927, "pitch": 63, "duration": 8, "velocity": 88}, {"time": 1933, "pitch": 59, "duration": 4, "velocity": 90}, {"time": 1939, "pitch": 59, "duration": 3, "velocity": 94}, {"time": 1939, "pitch": 63, "duration": 7, "velocity": 96}, {"time": 1939, "pitch": 66, "duration": 7, "velocity": 91}, {"time": 1945, "pitch": 59, "duration": 4, "velocity": 88}, {"time": 1951, "pitch": 63, "duration": 8, "velocity": 90}, {"time": 1951, "pitch": 66, "duration": 8, "velocity": 82}, {"time": 1957, "pitch": 59, "duration": 5, "velocity": 91}, {"time": 1963, "pitch": 63, "duration": 5, "velocity": 94}, {"time": 1963, "pitch": 66, "duration": 6, "velocity": 93}, {"time": 1969, "pitch": 47, "duration": 3, "velocity": 95}, {"time": 1975, "pitch": 49, "duration": 34, "velocity": 93}, {"time": 1975, "pitch": 61, "duration": 3, "velocity": 84}, {"time": 1975, "pitch": 64, "duration": 7, "velocity": 96}, {"time": 1975, "pitch": 68, "duration": 8, "velocity": 84}, {"time": 1981, "pitch": 61, "duration": 4, "velocity": 87}, {"time": 1987, "pitch": 61, "duration": 4, "velocity": 93}, {"time": 1987, "pitch": 64, "duration": 6, "velocity": 100}, {"time": 1987, "pitch": 68, "duration": 6, "velocity": 91}, {"time": 1993, "pitch": 56, "duration": 11, "velocity": 72}, {"time": 1999, "pitch": 61, "duration": 3, "velocity": 92}, {"time": 1999, "pitch": 64, "duration": 7, "velocity": 98}, {"time": 1999, "pitch": 68, "duration": 8, "velocity": 92}, {"time": 2005, "pitch": 61, "duration": 4, "velocity": 91}, {"time": 2011, "pitch": 61, "duration": 5, "velocity": 96}, {"time": 2011, "pitch": 64, "duration": 5, "velocity": 107}, {"time": 2011, "pitch": 68, "duration": 5, "velocity": 100}, {"time": 2017, "pitch": 49, "duration": 3, "velocity": 100}, {"time": 2023, "pitch": 47, "duration": 39, "velocity": 95}, {"time": 2023, "pitch": 59, "duration": 3, "velocity": 92}, {"time": 2023, "pitch": 63, "duration": 7, "velocity": 91}, {"time": 2023, "pitch": 66, "duration": 7, "velocity": 89}, {"time": 2029, "pitch": 59, "duration": 4, "velocity": 91}, {"time": 2035, "pitch": 59, "duration": 3, "velocity": 86}, {"time": 2035, "pitch": 63, "duration": 7, "velocity": 92}, {"time": 2035, "pitch": 66, "duration": 5, "velocity": 91}, {"time": 2041, "pitch": 54, "duration": 10, "velocity": 87}, {"time": 2047, "pitch": 59, "duration": 1, "velocity": 74}, {"time": 2047, "pitch": 63, "duration": 7, "velocity": 89}, {"time": 2047, "pitch": 66, "duration": 8, "velocity": 86}, {"time": 2047, "pitch": 71, "duration": 10, "velocity": 92}, {"time": 2053, "pitch": 59, "duration": 5, "velocity": 94}, {"time": 2059, "pitch": 59, "duration": 3, "velocity": 92}, {"time": 2059, "pitch": 63, "duration": 3, "velocity": 98}, {"time": 2059, "pitch": 66, "duration": 3, "velocity": 94}, {"time": 2059, "pitch": 71, "duration": 3, "velocity": 91}, {"time": 2065, "pitch": 47, "duration": 2, "velocity": 97}, {"time": 2071, "pitch": 37, "duration": 38, "velocity": 107}, {"time": 2071, "pitch": 61, "duration": 11, "velocity": 88}, {"time": 2071, "pitch": 68, "duration": 11, "velocity": 80}, {"time": 2119, "pitch": 45, "duration": 48, "velocity": 91}, {"time": 2119, "pitch": 57, "duration": 10, "velocity": 85}, {"time": 2119, "pitch": 64, "duration": 9, "velocity": 91}, {"time": 2125, "pitch": 52, "duration": 9, "velocity": 83}, {"time": 2131, "pitch": 57, "duration": 6, "velocity": 91}, {"time": 2131, "pitch": 61, "duration": 7, "velocity": 86}, {"time": 2131, "pitch": 64, "duration": 7, "velocity": 93}, {"time": 2134, "pitch": 52, "duration": 6, "velocity": 78}, {"time": 2140, "pitch": 57, "duration": 2, "velocity": 93}, {"time": 2143, "pitch": 57, "duration": 7, "velocity": 91}, {"time": 2143, "pitch": 61, "duration": 8, "velocity": 92}, {"time": 2143, "pitch": 64, "duration": 8, "velocity": 93}, {"time": 2149, "pitch": 52, "duration": 8, "velocity": 83}, {"time": 2155, "pitch": 57, "duration": 12, "velocity": 92}, {"time": 2155, "pitch": 61, "duration": 12, "velocity": 92}, {"time": 2155, "pitch": 64, "duration": 12, "velocity": 93}, {"time": 2161, "pitch": 52, "duration": 6, "velocity": 92}, {"time": 2167, "pitch": 40, "duration": 39, "velocity": 93}, {"time": 2167, "pitch": 52, "duration": 40, "velocity": 92}, {"time": 2167, "pitch": 64, "duration": 8, "velocity": 90}, {"time": 2167, "pitch": 68, "duration": 8, "velocity": 84}, {"time": 2173, "pitch": 59, "duration": 9, "velocity": 80}, {"time": 2179, "pitch": 64, "duration": 6, "velocity": 95}, {"time": 2179, "pitch": 68, "duration": 5, "velocity": 93}, {"time": 2179, "pitch": 71, "duration": 5, "velocity": 93}, {"time": 2185, "pitch": 59, "duration": 5, "velocity": 70}, {"time": 2188, "pitch": 64, "duration": 4, "velocity": 92}, {"time": 2188, "pitch": 68, "duration": 4, "velocity": 92}, {"time": 2191, "pitch": 59, "duration": 15, "velocity": 82}, {"time": 2197, "pitch": 64, "duration": 4, "velocity": 86}, {"time": 2203, "pitch": 64, "duration": 3, "velocity": 102}, {"time": 2203, "pitch": 68, "duration": 5, "velocity": 92}, {"time": 2209, "pitch": 64, "duration": 3, "velocity": 92}, {"time": 2215, "pitch": 45, "duration": 41, "velocity": 92}, {"time": 2215, "pitch": 64, "duration": 5, "velocity": 90}, {"time": 2215, "pitch": 69, "duration": 4, "velocity": 89}, {"time": 2221, "pitch": 52, "duration": 8, "velocity": 70}, {"time": 2227, "pitch": 57, "duration": 4, "velocity": 91}, {"time": 2227, "pitch": 61, "duration": 4, "velocity": 91}, {"time": 2227, "pitch": 64, "duration": 4, "velocity": 93}, {"time": 2233, "pitch": 52, "duration": 4, "velocity": 70}, {"time": 2236, "pitch": 57, "duration": 4, "velocity": 87}, {"time": 2236, "pitch": 61, "duration": 3, "velocity": 87}, {"time": 2236, "pitch": 64, "duration": 4, "velocity": 91}, {"time": 2239, "pitch": 52, "duration": 15, "velocity": 88}, {"time": 2245, "pitch": 57, "duration": 5, "velocity": 84}, {"time": 2251, "pitch": 57, "duration": 1, "velocity": 81}, {"time": 2251, "pitch": 61, "duration": 11, "velocity": 92}, {"time": 2251, "pitch": 64, "duration": 12, "velocity": 94}, {"time": 2251, "pitch": 69, "duration": 15, "velocity": 91}, {"time": 2257, "pitch": 57, "duration": 6, "velocity": 91}, {"time": 2263, "pitch": 52, "duration": 40, "velocity": 94}, {"time": 2269, "pitch": 59, "duration": 9, "velocity": 79}, {"time": 2275, "pitch": 64, "duration": 4, "velocity": 92}, {"time": 2275, "pitch": 68, "duration": 4, "velocity": 92}, {"time": 2275, "pitch": 71, "duration": 5, "velocity": 91}, {"time": 2281, "pitch": 59, "duration": 4, "velocity": 80}, {"time": 2284, "pitch": 64, "duration": 3, "velocity": 97}, {"time": 2287, "pitch": 59, "duration": 14, "velocity": 84}, {"time": 2293, "pitch": 64, "duration": 4, "velocity": 95}, {"time": 2299, "pitch": 64, "duration": 3, "velocity": 95}, {"time": 2299, "pitch": 68, "duration": 6, "velocity": 95}, {"time": 2299, "pitch": 71, "duration": 6, "velocity": 93}, {"time": 2305, "pitch": 64, "duration": 2, "velocity": 92}, {"time": 2311, "pitch": 47, "duration": 24, "velocity": 84}, {"time": 2311, "pitch": 59, "duration": 11, "velocity": 91}, {"time": 2323, "pitch": 59, "duration": 5, "velocity": 95}, {"time": 2323, "pitch": 63, "duration": 5, "velocity": 92}, {"time": 2323, "pitch": 66, "duration": 5, "velocity": 91}, {"time": 2332, "pitch": 59, "duration": 4, "velocity": 87}, {"time": 2332, "pitch": 63, "duration": 3, "velocity": 85}, {"time": 2332, "pitch": 66, "duration": 3, "velocity": 79}, {"time": 2335, "pitch": 54, "duration": 10, "velocity": 75}, {"time": 2341, "pitch": 59, "duration": 7, "velocity": 93}, {"time": 2341, "pitch": 63, "duration": 8, "velocity": 89}, {"time": 2341, "pitch": 66, "duration": 9, "velocity": 85}, {"time": 2341, "pitch": 71, "duration": 9, "velocity": 88}, {"time": 2347, "pitch": 51, "duration": 5, "velocity": 71}, {"time": 2353, "pitch": 59, "duration": 2, "velocity": 92}, {"time": 2359, "pitch": 37, "duration": 38, "velocity": 78}, {"time": 2359, "pitch": 49, "duration": 23, "velocity": 97}, {"time": 2359, "pitch": 61, "duration": 9, "velocity": 86}, {"time": 2359, "pitch": 64, "duration": 8, "velocity": 86}, {"time": 2359, "pitch": 68, "duration": 7, "velocity": 86}, {"time": 2365, "pitch": 56, "duration": 9, "velocity": 75}, {"time": 2371, "pitch": 61, "duration": 4, "velocity": 94}, {"time": 2371, "pitch": 64, "duration": 3, "velocity": 100}, {"time": 2371, "pitch": 68, "duration": 4, "velocity": 94}, {"time": 2377, "pitch": 56, "duration": 4, "velocity": 45}, {"time": 2380, "pitch": 61, "duration": 2, "velocity": 93}, {"time": 2383, "pitch": 61, "duration": 4, "velocity": 94}, {"time": 2383, "pitch": 64, "duration": 4, "velocity": 100}, {"time": 2383, "pitch": 68, "duration": 4, "velocity": 93}, {"time": 2389, "pitch": 61, "duration": 8, "velocity": 86}, {"time": 2392, "pitch": 56, "duration": 4, "velocity": 91}, {"time": 2401, "pitch": 61, "duration": 2, "velocity": 95}, {"time": 2407, "pitch": 47, "duration": 16, "velocity": 93}, {"time": 2407, "pitch": 59, "duration": 4, "velocity": 89}, {"time": 2407, "pitch": 63, "duration": 7, "velocity": 83}, {"time": 2407, "pitch": 66, "duration": 8, "velocity": 83}, {"time": 2413, "pitch": 59, "duration": 3, "velocity": 85}, {"time": 2419, "pitch": 59, "duration": 5, "velocity": 94}, {"time": 2419, "pitch": 63, "duration": 5, "velocity": 93}, {"time": 2419, "pitch": 66, "duration": 5, "velocity": 93}, {"time": 2428, "pitch": 59, "duration": 2, "velocity": 91}, {"time": 2431, "pitch": 59, "duration": 6, "velocity": 91}, {"time": 2431, "pitch": 63, "duration": 7, "velocity": 87}, {"time": 2431, "pitch": 66, "duration": 7, "velocity": 81}, {"time": 2431, "pitch": 71, "duration": 6, "velocity": 92}, {"time": 2437, "pitch": 54, "duration": 9, "velocity": 82}, {"time": 2443, "pitch": 59, "duration": 3, "velocity": 102}, {"time": 2443, "pitch": 63, "duration": 3, "velocity": 89}, {"time": 2443, "pitch": 66, "duration": 3, "velocity": 84}, {"time": 2455, "pitch": 37, "duration": 3, "velocity": 91}, {"time": 2455, "pitch": 49, "duration": 25, "velocity": 84}, {"time": 2455, "pitch": 61, "duration": 4, "velocity": 91}, {"time": 2455, "pitch": 64, "duration": 7, "velocity": 98}, {"time": 2455, "pitch": 68, "duration": 7, "velocity": 87}, {"time": 2461, "pitch": 61, "duration": 3, "velocity": 85}, {"time": 2467, "pitch": 61, "duration": 5, "velocity": 93}, {"time": 2467, "pitch": 64, "duration": 5, "velocity": 97}, {"time": 2467, "pitch": 68, "duration": 5, "velocity": 92}, {"time": 2473, "pitch": 56, "duration": 5, "velocity": 58}, {"time": 2476, "pitch": 61, "duration": 2, "velocity": 91}, {"time": 2479, "pitch": 61, "duration": 8, "velocity": 87}, {"time": 2479, "pitch": 64, "duration": 9, "velocity": 95}, {"time": 2479, "pitch": 68, "duration": 10, "velocity": 92}, {"time": 2485, "pitch": 49, "duration": 13, "velocity": 87}, {"time": 2491, "pitch": 61, "duration": 11, "velocity": 96}, {"time": 2491, "pitch": 64, "duration": 12, "velocity": 96}, {"time": 2491, "pitch": 68, "duration": 12, "velocity": 93}, {"time": 2497, "pitch": 56, "duration": 6, "velocity": 93}, {"time": 2503, "pitch": 47, "duration": 43, "velocity": 93}, {"time": 2503, "pitch": 59, "duration": 44, "velocity": 89}, {"time": 2503, "pitch": 63, "duration": 44, "velocity": 92}, {"time": 2503, "pitch": 66, "duration": 44, "velocity": 86}, {"time": 2503, "pitch": 71, "duration": 44, "velocity": 91}, {"time": 2551, "pitch": 45, "duration": 40, "velocity": 93}, {"time": 2551, "pitch": 57, "duration": 7, "velocity": 91}, {"time": 2551, "pitch": 61, "duration": 6, "velocity": 92}, {"time": 2551, "pitch": 64, "duration": 7, "velocity": 93}, {"time": 2557, "pitch": 52, "duration": 20, "velocity": 91}, {"time": 2563, "pitch": 57, "duration": 4, "velocity": 92}, {"time": 2563, "pitch": 61, "duration": 8, "velocity": 98}, {"time": 2563, "pitch": 64, "duration": 8, "velocity": 98}, {"time": 2569, "pitch": 57, "duration": 5, "velocity": 92}, {"time": 2575, "pitch": 61, "duration": 7, "velocity": 94}, {"time": 2575, "pitch": 64, "duration": 8, "velocity": 96}, {"time": 2575, "pitch": 69, "duration": 7, "velocity": 91}, {"time": 2581, "pitch": 52, "duration": 10, "velocity": 85}, {"time": 2581, "pitch": 57, "duration": 4, "velocity": 72}, {"time": 2587, "pitch": 57, "duration": 3, "velocity": 97}, {"time": 2587, "pitch": 61, "duration": 5, "velocity": 102}, {"time": 2587, "pitch": 64, "duration": 6, "velocity": 102}, {"time": 2587, "pitch": 69, "duration": 11, "velocity": 91}, {"time": 2593, "pitch": 45, "duration": 4, "velocity": 93}, {"time": 2593, "pitch": 57, "duration": 3, "velocity": 97}, {"time": 2599, "pitch": 47, "duration": 33, "velocity": 93}, {"time": 2599, "pitch": 59, "duration": 4, "velocity": 93}, {"time": 2599, "pitch": 63, "duration": 8, "velocity": 92}, {"time": 2605, "pitch": 59, "duration": 5, "velocity": 91}, {"time": 2611, "pitch": 63, "duration": 7, "velocity": 95}, {"time": 2611, "pitch": 66, "duration": 8, "velocity": 91}, {"time": 2617, "pitch": 54, "duration": 10, "velocity": 76}, {"time": 2617, "pitch": 59, "duration": 4, "velocity": 80}, {"time": 2623, "pitch": 59, "duration": 4, "velocity": 94}, {"time": 2623, "pitch": 63, "duration": 8, "velocity": 108}, {"time": 2623, "pitch": 66, "duration": 9, "velocity": 97}, {"time": 2629, "pitch": 59, "duration": 5, "velocity": 88}, {"time": 2635, "pitch": 47, "duration": 3, "velocity": 94}, {"time": 2635, "pitch": 59, "duration": 3, "velocity": 92}, {"time": 2635, "pitch": 63, "duration": 9, "velocity": 107}, {"time": 2635, "pitch": 66, "duration": 8, "velocity": 97}, {"time": 2641, "pitch": 59, "duration": 8, "velocity": 95}, {"time": 2647, "pitch": 40, "duration": 39, "velocity": 100}, {"time": 2653, "pitch": 52, "duration": 5, "velocity": 94}, {"time": 2659, "pitch": 52, "duration": 1, "velocity": 72}, {"time": 2659, "pitch": 56, "duration": 6, "velocity": 97}, {"time": 2659, "pitch": 59, "duration": 7, "velocity": 93}, {"time": 2665, "pitch": 52, "duration": 5, "velocity": 86}, {"time": 2671, "pitch": 56, "duration": 6, "velocity": 86}, {"time": 2671, "pitch": 59, "duration": 7, "velocity": 89}, {"time": 2671, "pitch": 64, "duration": 7, "velocity": 92}, {"time": 2677, "pitch": 47, "duration": 9, "velocity": 75}, {"time": 2683, "pitch": 52, "duration": 2, "velocity": 95}, {"time": 2683, "pitch": 56, "duration": 3, "velocity": 94}, {"time": 2683, "pitch": 59, "duration": 3, "velocity": 93}, {"time": 2683, "pitch": 64, "duration": 4, "velocity": 93}, {"time": 2689, "pitch": 40, "duration": 3, "velocity": 93}, {"time": 2695, "pitch": 37, "duration": 37, "velocity": 94}, {"time": 2695, "pitch": 61, "duration": 9, "velocity": 91}, {"time": 2695, "pitch": 68, "duration": 7, "velocity": 86}, {"time": 2701, "pitch": 44, "duration": 23, "velocity": 78}, {"time": 2707, "pitch": 61, "duration": 5, "velocity": 93}, {"time": 2707, "pitch": 64, "duration": 6, "velocity": 98}, {"time": 2707, "pitch": 68, "duration": 6, "velocity": 95}, {"time": 2716, "pitch": 61, "duration": 2, "velocity": 92}, {"time": 2719, "pitch": 61, "duration": 5, "velocity": 97}, {"time": 2719, "pitch": 64, "duration": 7, "velocity": 107}, {"time": 2719, "pitch": 68, "duration": 8, "velocity": 95}, {"time": 2725, "pitch": 44, "duration": 7, "velocity": 86}, {"time": 2731, "pitch": 61, "duration": 2, "velocity": 92}, {"time": 2731, "pitch": 64, "duration": 7, "velocity": 100}, {"time": 2731, "pitch": 68, "duration": 8, "velocity": 96}, {"time": 2737, "pitch": 61, "duration": 6, "velocity": 89}, {"time": 2743, "pitch": 42, "duration": 37, "velocity": 102}, {"time": 2749, "pitch": 54, "duration": 4, "velocity": 87}, {"time": 2755, "pitch": 54, "duration": 4, "velocity": 96}, {"time": 2755, "pitch": 57, "duration": 5, "velocity": 96}, {"time": 2755, "pitch": 61, "duration": 5, "velocity": 93}, {"time": 2761, "pitch": 49, "duration": 19, "velocity": 78}, {"time": 2764, "pitch": 54, "duration": 2, "velocity": 92}, {"time": 2767, "pitch": 54, "duration": 3, "velocity": 96}, {"time": 2767, "pitch": 57, "duration": 7, "velocity": 100}, {"time": 2767, "pitch": 61, "duration": 8, "velocity": 96}, {"time": 2773, "pitch": 54, "duration": 4, "velocity": 87}, {"time": 2779, "pitch": 54, "duration": 2, "velocity": 91}, {"time": 2779, "pitch": 57, "duration": 5, "velocity": 93}, {"time": 2779, "pitch": 61, "duration": 7, "velocity": 92}, {"time": 2785, "pitch": 54, "duration": 2, "velocity": 92}, {"time": 2791, "pitch": 47, "duration": 17, "velocity": 95}, {"time": 2791, "pitch": 59, "duration": 5, "velocity": 91}, {"time": 2791, "pitch": 63, "duration": 7, "velocity": 91}, {"time": 2797, "pitch": 59, "duration": 4, "velocity": 91}, {"time": 2803, "pitch": 59, "duration": 3, "velocity": 91}, {"time": 2803, "pitch": 63, "duration": 6, "velocity": 95}, {"time": 2803, "pitch": 66, "duration": 3, "velocity": 91}, {"time": 2812, "pitch": 59, "duration": 2, "velocity": 94}, {"time": 2815, "pitch": 59, "duration": 2, "velocity": 92}, {"time": 2815, "pitch": 63, "duration": 8, "velocity": 97}, {"time": 2815, "pitch": 66, "duration": 8, "velocity": 93}, {"time": 2815, "pitch": 71, "duration": 8, "velocity": 93}, {"time": 2821, "pitch": 59, "duration": 4, "velocity": 88}, {"time": 2827, "pitch": 54, "duration": 3, "velocity": 86}, {"time": 2827, "pitch": 59, "duration": 3, "velocity": 97}, {"time": 2827, "pitch": 63, "duration": 4, "velocity": 98}, {"time": 2827, "pitch": 66, "duration": 6, "velocity": 94}, {"time": 2833, "pitch": 59, "duration": 4, "velocity": 92}, {"time": 2839, "pitch": 40, "duration": 40, "velocity": 94}, {"time": 2839, "pitch": 59, "duration": 4, "velocity": 92}, {"time": 2839, "pitch": 64, "duration": 7, "velocity": 93}, {"time": 2845, "pitch": 59, "duration": 3, "velocity": 83}, {"time": 2851, "pitch": 59, "duration": 5, "velocity": 93}, {"time": 2851, "pitch": 64, "duration": 7, "velocity": 100}, {"time": 2851, "pitch": 68, "duration": 8, "velocity": 93}, {"time": 2860, "pitch": 59, "duration": 2, "velocity": 93}, {"time": 2863, "pitch": 59, "duration": 2, "velocity": 89}, {"time": 2863, "pitch": 64, "duration": 7, "velocity": 95}, {"time": 2863, "pitch": 68, "duration": 8, "velocity": 95}, {"time": 2869, "pitch": 59, "duration": 3, "velocity": 94}, {"time": 2875, "pitch": 59, "duration": 2, "velocity": 93}, {"time": 2875, "pitch": 64, "duration": 8, "velocity": 100}, {"time": 2875, "pitch": 68, "duration": 8, "velocity": 100}, {"time": 2881, "pitch": 59, "duration": 3, "velocity": 97}, {"time": 2887, "pitch": 47, "duration": 23, "velocity": 93}, {"time": 2887, "pitch": 59, "duration": 5, "velocity": 90}, {"time": 2887, "pitch": 63, "duration": 7, "velocity": 91}, {"time": 2887, "pitch": 66, "duration": 8, "velocity": 87}, {"time": 2893, "pitch": 59, "duration": 4, "velocity": 88}, {"time": 2899, "pitch": 59, "duration": 1, "velocity": 78}, {"time": 2899, "pitch": 63, "duration": 9, "velocity": 92}, {"time": 2899, "pitch": 66, "duration": 10, "velocity": 90}, {"time": 2899, "pitch": 71, "duration": 8, "velocity": 92}, {"time": 2908, "pitch": 59, "duration": 2, "velocity": 90}, {"time": 2911, "pitch": 59, "duration": 7, "velocity": 93}, {"time": 2911, "pitch": 63, "duration": 9, "velocity": 94}, {"time": 2911, "pitch": 66, "duration": 9, "velocity": 89}, {"time": 2917, "pitch": 54, "duration": 10, "velocity": 83}, {"time": 2923, "pitch": 59, "duration": 3, "velocity": 94}, {"time": 2923, "pitch": 63, "duration": 13, "velocity": 97}, {"time": 2923, "pitch": 66, "duration": 13, "velocity": 93}, {"time": 2923, "pitch": 71, "duration": 13, "velocity": 91}, {"time": 2929, "pitch": 59, "duration": 7, "velocity": 102}, {"time": 2935, "pitch": 45, "duration": 40, "velocity": 93}, {"time": 2935, "pitch": 57, "duration": 7, "velocity": 91}, {"time": 2935, "pitch": 61, "duration": 6, "velocity": 92}, {"time": 2935, "pitch": 64, "duration": 7, "velocity": 93}, {"time": 2941, "pitch": 52, "duration": 20, "velocity": 91}, {"time": 2947, "pitch": 57, "duration": 4, "velocity": 92}, {"time": 2947, "pitch": 61, "duration": 8, "velocity": 98}, {"time": 2947, "pitch": 64, "duration": 8, "velocity": 98}, {"time": 2953, "pitch": 57, "duration": 5, "velocity": 92}, {"time": 2959, "pitch": 61, "duration": 7, "velocity": 94}, {"time": 2959, "pitch": 64, "duration": 8, "velocity": 96}, {"time": 2959, "pitch": 69, "duration": 7, "velocity": 91}, {"time": 2965, "pitch": 52, "duration": 10, "velocity": 85}, {"time": 2965, "pitch": 57, "duration": 4, "velocity": 72}, {"time": 2971, "pitch": 57, "duration": 3, "velocity": 97}, {"time": 2971, "pitch": 61, "duration": 5, "velocity": 102}, {"time": 2971, "pitch": 64, "duration": 6, "velocity": 102}, {"time": 2971, "pitch": 69, "duration": 11, "velocity": 91}, {"time": 2977, "pitch": 45, "duration": 4, "velocity": 93}, {"time": 2977, "pitch": 57, "duration": 3, "velocity": 97}, {"time": 2983, "pitch": 47, "duration": 33, "velocity": 93}, {"time": 2983, "pitch": 59, "duration": 4, "velocity": 93}, {"time": 2983, "pitch": 63, "duration": 8, "velocity": 92}, {"time": 2989, "pitch": 59, "duration": 5, "velocity": 91}, {"time": 2995, "pitch": 63, "duration": 7, "velocity": 95}, {"time": 2995, "pitch": 66, "duration": 8, "velocity": 91}, {"time": 3001, "pitch": 54, "duration": 10, "velocity": 76}, {"time": 3001, "pitch": 59, "duration": 4, "velocity": 80}, {"time": 3007, "pitch": 59, "duration": 4, "velocity": 94}, {"time": 3007, "pitch": 63, "duration": 8, "velocity": 108}, {"time": 3007, "pitch": 66, "duration": 9, "velocity": 97}, {"time": 3007, "pitch": 71, "duration": 9, "velocity": 94}, {"time": 3013, "pitch": 59, "duration": 5, "velocity": 88}, {"time": 3019, "pitch": 47, "duration": 3, "velocity": 94}, {"time": 3019, "pitch": 59, "duration": 3, "velocity": 92}, {"time": 3019, "pitch": 63, "duration": 9, "velocity": 107}, {"time": 3019, "pitch": 66, "duration": 8, "velocity": 97}, {"time": 3019, "pitch": 71, "duration": 9, "velocity": 94}, {"time": 3025, "pitch": 59, "duration": 8, "velocity": 95}, {"time": 3031, "pitch": 40, "duration": 39, "velocity": 100}, {"time": 3037, "pitch": 52, "duration": 5, "velocity": 94}, {"time": 3043, "pitch": 52, "duration": 1, "velocity": 72}, {"time": 3043, "pitch": 56, "duration": 6, "velocity": 97}, {"time": 3043, "pitch": 59, "duration": 7, "velocity": 93}, {"time": 3049, "pitch": 52, "duration": 5, "velocity": 86}, {"time": 3055, "pitch": 56, "duration": 6, "velocity": 86}, {"time": 3055, "pitch": 59, "duration": 7, "velocity": 89}, {"time": 3055, "pitch": 64, "duration": 7, "velocity": 92}, {"time": 3061, "pitch": 47, "duration": 9, "velocity": 75}, {"time": 3067, "pitch": 52, "duration": 2, "velocity": 95}, {"time": 3067, "pitch": 56, "duration": 3, "velocity": 94}, {"time": 3067, "pitch": 59, "duration": 3, "velocity": 93}, {"time": 3067, "pitch": 64, "duration": 4, "velocity": 93}, {"time": 3073, "pitch": 40, "duration": 3, "velocity": 93}, {"time": 3079, "pitch": 37, "duration": 37, "velocity": 94}, {"time": 3079, "pitch": 61, "duration": 9, "velocity": 91}, {"time": 3079, "pitch": 68, "duration": 7, "velocity": 86}, {"time": 3085, "pitch": 44, "duration": 23, "velocity": 78}, {"time": 3091, "pitch": 61, "duration": 5, "velocity": 93}, {"time": 3091, "pitch": 64, "duration": 6, "velocity": 98}, {"time": 3091, "pitch": 68, "duration": 6, "velocity": 95}, {"time": 3100, "pitch": 61, "duration": 2, "velocity": 92}, {"time": 3103, "pitch": 61, "duration": 5, "velocity": 97}, {"time": 3103, "pitch": 64, "duration": 7, "velocity": 107}, {"time": 3103, "pitch": 68, "duration": 8, "velocity": 95}, {"time": 3109, "pitch": 44, "duration": 7, "velocity": 86}, {"time": 3115, "pitch": 61, "duration": 2, "velocity": 92}, {"time": 3115, "pitch": 64, "duration": 7, "velocity": 100}, {"time": 3115, "pitch": 68, "duration": 8, "velocity": 96}, {"time": 3121, "pitch": 61, "duration": 6, "velocity": 89}, {"time": 3127, "pitch": 42, "duration": 37, "velocity": 102}, {"time": 3133, "pitch": 54, "duration": 4, "velocity": 87}, {"time": 3139, "pitch": 54, "duration": 4, "velocity": 96}, {"time": 3139, "pitch": 57, "duration": 5, "velocity": 96}, {"time": 3139, "pitch": 61, "duration": 5, "velocity": 93}, {"time": 3145, "pitch": 49, "duration": 19, "velocity": 78}, {"time": 3148, "pitch": 54, "duration": 2, "velocity": 92}, {"time": 3151, "pitch": 54, "duration": 3, "velocity": 96}, {"time": 3151, "pitch": 57, "duration": 7, "velocity": 100}, {"time": 3151, "pitch": 61, "duration": 8, "velocity": 96}, {"time": 3157, "pitch": 54, "duration": 4, "velocity": 87}, {"time": 3163, "pitch": 54, "duration": 2, "velocity": 91}, {"time": 3163, "pitch": 57, "duration": 5, "velocity": 93}, {"time": 3163, "pitch": 61, "duration": 7, "velocity": 92}, {"time": 3169, "pitch": 54, "duration": 2, "velocity": 92}, {"time": 3175, "pitch": 40, "duration": 10, "velocity": 94}, {"time": 3175, "pitch": 59, "duration": 4, "velocity": 87}, {"time": 3175, "pitch": 64, "duration": 8, "velocity": 91}, {"time": 3175, "pitch": 68, "duration": 8, "velocity": 84}, {"time": 3181, "pitch": 59, "duration": 4, "velocity": 90}, {"time": 3187, "pitch": 64, "duration": 6, "velocity": 102}, {"time": 3187, "pitch": 59, "duration": 3, "velocity": 97}, {"time": 3187, "pitch": 68, "duration": 6, "velocity": 96}, {"time": 3196, "pitch": 59, "duration": 2, "velocity": 93}, {"time": 3199, "pitch": 52, "duration": 14, "velocity": 96}, {"time": 3199, "pitch": 59, "duration": 4, "velocity": 93}, {"time": 3199, "pitch": 64, "duration": 5, "velocity": 98}, {"time": 3199, "pitch": 68, "duration": 6, "velocity": 94}, {"time": 3205, "pitch": 59, "duration": 7, "velocity": 100}, {"time": 3211, "pitch": 64, "duration": 3, "velocity": 98}, {"time": 3211, "pitch": 68, "duration": 7, "velocity": 93}, {"time": 3217, "pitch": 64, "duration": 6, "velocity": 92}, {"time": 3223, "pitch": 47, "duration": 98, "velocity": 95}, {"time": 3223, "pitch": 59, "duration": 12, "velocity": 92}, {"time": 3223, "pitch": 63, "duration": 20, "velocity": 92}, {"time": 3223, "pitch": 66, "duration": 20, "velocity": 91}, {"time": 3235, "pitch": 54, "duration": 85, "velocity": 85}, {"time": 3241, "pitch": 59, "duration": 8, "velocity": 94}, {"time": 3247, "pitch": 63, "duration": 8, "velocity": 87}, {"time": 3247, "pitch": 66, "duration": 9, "velocity": 87}, {"time": 3253, "pitch": 59, "duration": 6, "velocity": 73}, {"time": 3259, "pitch": 63, "duration": 8, "velocity": 79}, {"time": 3259, "pitch": 66, "duration": 9, "velocity": 82}, {"time": 3265, "pitch": 59, "duration": 8, "velocity": 74}, {"time": 3271, "pitch": 63, "duration": 7, "velocity": 80}, {"time": 3271, "pitch": 66, "duration": 8, "velocity": 81}, {"time": 3271, "pitch": 71, "duration": 8, "velocity": 91}, {"time": 3283, "pitch": 63, "duration": 7, "velocity": 81}, {"time": 3283, "pitch": 66, "duration": 7, "velocity": 75}, {"time": 3289, "pitch": 59, "duration": 8, "velocity": 75}, {"time": 3295, "pitch": 63, "duration": 9, "velocity": 85}, {"time": 3295, "pitch": 66, "duration": 9, "velocity": 81}, {"time": 3295, "pitch": 71, "duration": 9, "velocity": 88}, {"time": 3307, "pitch": 59, "duration": 4, "velocity": 92}, {"time": 3307, "pitch": 63, "duration": 12, "velocity": 93}, {"time": 3307, "pitch": 66, "duration": 12, "velocity": 87}, {"time": 3307, "pitch": 71, "duration": 12, "velocity": 92}, {"time": 3313, "pitch": 59, "duration": 6, "velocity": 92}, {"time": 3319, "pitch": 40, "duration": 39, "velocity": 93}, {"time": 3319, "pitch": 52, "duration": 40, "velocity": 92}, {"time": 3319, "pitch": 64, "duration": 8, "velocity": 90}, {"time": 3319, "pitch": 68, "duration": 8, "velocity": 84}, {"time": 3325, "pitch": 59, "duration": 9, "velocity": 80}, {"time": 3331, "pitch": 64, "duration": 6, "velocity": 95}, {"time": 3331, "pitch": 68, "duration": 5, "velocity": 93}, {"time": 3331, "pitch": 71, "duration": 5, "velocity": 93}, {"time": 3337, "pitch": 59, "duration": 5, "velocity": 70}, {"time": 3340, "pitch": 64, "duration": 4, "velocity": 92}, {"time": 3340, "pitch": 68, "duration": 4, "velocity": 92}, {"time": 3343, "pitch": 59, "duration": 15, "velocity": 82}, {"time": 3349, "pitch": 64, "duration": 4, "velocity": 86}, {"time": 3355, "pitch": 64, "duration": 3, "velocity": 102}, {"time": 3355, "pitch": 68, "duration": 5, "velocity": 92}, {"time": 3361, "pitch": 64, "duration": 3, "velocity": 92}, {"time": 3367, "pitch": 45, "duration": 41, "velocity": 92}, {"time": 3367, "pitch": 64, "duration": 5, "velocity": 90}, {"time": 3367, "pitch": 69, "duration": 4, "velocity": 89}, {"time": 3373, "pitch": 52, "duration": 8, "velocity": 70}, {"time": 3379, "pitch": 57, "duration": 4, "velocity": 91}, {"time": 3379, "pitch": 61, "duration": 4, "velocity": 91}, {"time": 3379, "pitch": 64, "duration": 4, "velocity": 93}, {"time": 3385, "pitch": 52, "duration": 4, "velocity": 70}, {"time": 3388, "pitch": 57, "duration": 4, "velocity": 87}, {"time": 3388, "pitch": 61, "duration": 3, "velocity": 87}, {"time": 3388, "pitch": 64, "duration": 4, "velocity": 91}, {"time": 3391, "pitch": 52, "duration": 15, "velocity": 88}, {"time": 3397, "pitch": 57, "duration": 5, "velocity": 84}, {"time": 3403, "pitch": 57, "duration": 1, "velocity": 81}, {"time": 3403, "pitch": 61, "duration": 11, "velocity": 92}, {"time": 3403, "pitch": 64, "duration": 12, "velocity": 94}, {"time": 3403, "pitch": 69, "duration": 15, "velocity": 91}, {"time": 3409, "pitch": 57, "duration": 6, "velocity": 91}, {"time": 3415, "pitch": 52, "duration": 40, "velocity": 94}, {"time": 3421, "pitch": 59, "duration": 9, "velocity": 79}, {"time": 3427, "pitch": 64, "duration": 4, "velocity": 92}, {"time": 3427, "pitch": 68, "duration": 4, "velocity": 92}, {"time": 3427, "pitch": 71, "duration": 5, "velocity": 91}, {"time": 3433, "pitch": 59, "duration": 4, "velocity": 80}, {"time": 3436, "pitch": 64, "duration": 3, "velocity": 97}, {"time": 3439, "pitch": 59, "duration": 14, "velocity": 84}, {"time": 3445, "pitch": 64, "duration": 4, "velocity": 95}, {"time": 3451, "pitch": 64, "duration": 3, "velocity": 95}, {"time": 3451, "pitch": 68, "duration": 6, "velocity": 95}, {"time": 3451, "pitch": 71, "duration": 6, "velocity": 93}, {"time": 3457, "pitch": 64, "duration": 2, "velocity": 92}, {"time": 3463, "pitch": 47, "duration": 24, "velocity": 84}, {"time": 3463, "pitch": 59, "duration": 11, "velocity": 91}, {"time": 3475, "pitch": 59, "duration": 5, "velocity": 95}, {"time": 3475, "pitch": 63, "duration": 5, "velocity": 92}, {"time": 3475, "pitch": 66, "duration": 5, "velocity": 91}, {"time": 3484, "pitch": 59, "duration": 4, "velocity": 87}, {"time": 3484, "pitch": 63, "duration": 3, "velocity": 85}, {"time": 3484, "pitch": 66, "duration": 3, "velocity": 79}, {"time": 3487, "pitch": 54, "duration": 10, "velocity": 75}, {"time": 3493, "pitch": 59, "duration": 7, "velocity": 93}, {"time": 3493, "pitch": 63, "duration": 8, "velocity": 89}, {"time": 3493, "pitch": 66, "duration": 9, "velocity": 85}, {"time": 3493, "pitch": 71, "duration": 9, "velocity": 88}, {"time": 3499, "pitch": 51, "duration": 5, "velocity": 71}, {"time": 3505, "pitch": 59, "duration": 2, "velocity": 92}, {"time": 3511, "pitch": 37, "duration": 38, "velocity": 78}, {"time": 3511, "pitch": 49, "duration": 23, "velocity": 97}, {"time": 3511, "pitch": 61, "duration": 9, "velocity": 86}, {"time": 3511, "pitch": 64, "duration": 8, "velocity": 86}, {"time": 3511, "pitch": 68, "duration": 7, "velocity": 86}, {"time": 3517, "pitch": 56, "duration": 9, "velocity": 75}, {"time": 3523, "pitch": 61, "duration": 4, "velocity": 94}, {"time": 3523, "pitch": 64, "duration": 3, "velocity": 100}, {"time": 3523, "pitch": 68, "duration": 4, "velocity": 94}, {"time": 3529, "pitch": 56, "duration": 4, "velocity": 45}, {"time": 3532, "pitch": 61, "duration": 2, "velocity": 93}, {"time": 3535, "pitch": 61, "duration": 4, "velocity": 94}, {"time": 3535, "pitch": 64, "duration": 4, "velocity": 100}, {"time": 3535, "pitch": 68, "duration": 4, "velocity": 93}, {"time": 3541, "pitch": 61, "duration": 8, "velocity": 86}, {"time": 3544, "pitch": 56, "duration": 4, "velocity": 91}, {"time": 3553, "pitch": 61, "duration": 2, "velocity": 95}, {"time": 3559, "pitch": 47, "duration": 16, "velocity": 93}, {"time": 3559, "pitch": 59, "duration": 4, "velocity": 89}, {"time": 3559, "pitch": 63, "duration": 7, "velocity": 83}, {"time": 3559, "pitch": 66, "duration": 8, "velocity": 83}, {"time": 3565, "pitch": 59, "duration": 3, "velocity": 85}, {"time": 3571, "pitch": 59, "duration": 5, "velocity": 94}, {"time": 3571, "pitch": 63, "duration": 5, "velocity": 93}, {"time": 3571, "pitch": 66, "duration": 5, "velocity": 93}, {"time": 3580, "pitch": 59, "duration": 2, "velocity": 91}, {"time": 3583, "pitch": 59, "duration": 6, "velocity": 91}, {"time": 3583, "pitch": 63, "duration": 7, "velocity": 87}, {"time": 3583, "pitch": 66, "duration": 7, "velocity": 81}, {"time": 3583, "pitch": 71, "duration": 6, "velocity": 92}, {"time": 3589, "pitch": 54, "duration": 9, "velocity": 82}, {"time": 3595, "pitch": 59, "duration": 3, "velocity": 102}, {"time": 3595, "pitch": 63, "duration": 3, "velocity": 89}, {"time": 3595, "pitch": 66, "duration": 3, "velocity": 84}, {"time": 3607, "pitch": 37, "duration": 3, "velocity": 91}, {"time": 3607, "pitch": 49, "duration": 25, "velocity": 84}, {"time": 3607, "pitch": 61, "duration": 4, "velocity": 91}, {"time": 3607, "pitch": 64, "duration": 7, "velocity": 98}, {"time": 3607, "pitch": 68, "duration": 7, "velocity": 87}, {"time": 3613, "pitch": 61, "duration": 3, "velocity": 85}, {"time": 3619, "pitch": 61, "duration": 5, "velocity": 93}, {"time": 3619, "pitch": 64, "duration": 5, "velocity": 97}, {"time": 3619, "pitch": 68, "duration": 5, "velocity": 92}, {"time": 3625, "pitch": 56, "duration": 5, "velocity": 58}, {"time": 3628, "pitch": 61, "duration": 2, "velocity": 91}, {"time": 3631, "pitch": 61, "duration": 8, "velocity": 87}, {"time": 3631, "pitch": 64, "duration": 9, "velocity": 95}, {"time": 3631, "pitch": 68, "duration": 10, "velocity": 92}, {"time": 3637, "pitch": 49, "duration": 13, "velocity": 87}, {"time": 3643, "pitch": 61, "duration": 11, "velocity": 96}, {"time": 3643, "pitch": 64, "duration": 12, "velocity": 96}, {"time": 3643, "pitch": 68, "duration": 12, "velocity": 93}, {"time": 3649, "pitch": 56, "duration": 6, "velocity": 93}, {"time": 3655, "pitch": 45, "duration": 48, "velocity": 91}, {"time": 3655, "pitch": 57, "duration": 10, "velocity": 85}, {"time": 3655, "pitch": 64, "duration": 9, "velocity": 91}, {"time": 3661, "pitch": 52, "duration": 9, "velocity": 83}, {"time": 3667, "pitch": 57, "duration": 6, "velocity": 91}, {"time": 3667, "pitch": 61, "duration": 7, "velocity": 86}, {"time": 3667, "pitch": 64, "duration": 7, "velocity": 93}, {"time": 3670, "pitch": 52, "duration": 6, "velocity": 78}, {"time": 3676, "pitch": 57, "duration": 2, "velocity": 93}, {"time": 3679, "pitch": 57, "duration": 7, "velocity": 91}, {"time": 3679, "pitch": 61, "duration": 8, "velocity": 92}, {"time": 3679, "pitch": 64, "duration": 8, "velocity": 93}, {"time": 3685, "pitch": 52, "duration": 8, "velocity": 83}, {"time": 3691, "pitch": 57, "duration": 12, "velocity": 92}, {"time": 3691, "pitch": 61, "duration": 12, "velocity": 92}, {"time": 3691, "pitch": 64, "duration": 12, "velocity": 93}, {"time": 3697, "pitch": 52, "duration": 6, "velocity": 92}, {"time": 3703, "pitch": 40, "duration": 39, "velocity": 93}, {"time": 3703, "pitch": 52, "duration": 40, "velocity": 92}, {"time": 3703, "pitch": 64, "duration": 8, "velocity": 90}, {"time": 3703, "pitch": 68, "duration": 8, "velocity": 84}, {"time": 3709, "pitch": 59, "duration": 9, "velocity": 80}, {"time": 3715, "pitch": 64, "duration": 6, "velocity": 95}, {"time": 3715, "pitch": 68, "duration": 5, "velocity": 93}, {"time": 3715, "pitch": 71, "duration": 5, "velocity": 93}, {"time": 3721, "pitch": 59, "duration": 5, "velocity": 70}, {"time": 3724, "pitch": 64, "duration": 4, "velocity": 92}, {"time": 3724, "pitch": 68, "duration": 4, "velocity": 92}, {"time": 3727, "pitch": 59, "duration": 15, "velocity": 82}, {"time": 3733, "pitch": 64, "duration": 4, "velocity": 86}, {"time": 3739, "pitch": 64, "duration": 3, "velocity": 102}, {"time": 3739, "pitch": 68, "duration": 5, "velocity": 92}, {"time": 3745, "pitch": 64, "duration": 3, "velocity": 92}, {"time": 3751, "pitch": 45, "duration": 41, "velocity": 92}, {"time": 3751, "pitch": 64, "duration": 5, "velocity": 90}, {"time": 3751, "pitch": 69, "duration": 4, "velocity": 89}, {"time": 3757, "pitch": 52, "duration": 8, "velocity": 70}, {"time": 3763, "pitch": 57, "duration": 4, "velocity": 91}, {"time": 3763, "pitch": 61, "duration": 4, "velocity": 91}, {"time": 3763, "pitch": 64, "duration": 4, "velocity": 93}, {"time": 3769, "pitch": 52, "duration": 4, "velocity": 70}, {"time": 3772, "pitch": 57, "duration": 4, "velocity": 87}, {"time": 3772, "pitch": 61, "duration": 3, "velocity": 87}, {"time": 3772, "pitch": 64, "duration": 4, "velocity": 91}, {"time": 3775, "pitch": 52, "duration": 15, "velocity": 88}, {"time": 3781, "pitch": 57, "duration": 5, "velocity": 84}, {"time": 3787, "pitch": 57, "duration": 1, "velocity": 81}, {"time": 3787, "pitch": 61, "duration": 11, "velocity": 92}, {"time": 3787, "pitch": 64, "duration": 12, "velocity": 94}, {"time": 3787, "pitch": 69, "duration": 15, "velocity": 91}, {"time": 3793, "pitch": 57, "duration": 6, "velocity": 91}, {"time": 3799, "pitch": 52, "duration": 40, "velocity": 94}, {"time": 3805, "pitch": 59, "duration": 9, "velocity": 79}, {"time": 3811, "pitch": 64, "duration": 4, "velocity": 92}, {"time": 3811, "pitch": 68, "duration": 4, "velocity": 92}, {"time": 3811, "pitch": 71, "duration": 5, "velocity": 91}, {"time": 3817, "pitch": 59, "duration": 4, "velocity": 80}, {"time": 3820, "pitch": 64, "duration": 3, "velocity": 97}, {"time": 3823, "pitch": 59, "duration": 14, "velocity": 84}, {"time": 3829, "pitch": 64, "duration": 4, "velocity": 95}, {"time": 3835, "pitch": 64, "duration": 3, "velocity": 95}, {"time": 3835, "pitch": 68, "duration": 6, "velocity": 95}, {"time": 3835, "pitch": 71, "duration": 6, "velocity": 93}, {"time": 3841, "pitch": 64, "duration": 2, "velocity": 92}, {"time": 3847, "pitch": 47, "duration": 24, "velocity": 84}, {"time": 3847, "pitch": 59, "duration": 11, "velocity": 91}, {"time": 3859, "pitch": 59, "duration": 5, "velocity": 95}, {"time": 3859, "pitch": 63, "duration": 5, "velocity": 92}, {"time": 3859, "pitch": 66, "duration": 5, "velocity": 91}, {"time": 3868, "pitch": 59, "duration": 4, "velocity": 87}, {"time": 3868, "pitch": 63, "duration": 3, "velocity": 85}, {"time": 3868, "pitch": 66, "duration": 3, "velocity": 79}, {"time": 3871, "pitch": 54, "duration": 10, "velocity": 75}, {"time": 3877, "pitch": 59, "duration": 7, "velocity": 93}, {"time": 3877, "pitch": 63, "duration": 8, "velocity": 89}, {"time": 3877, "pitch": 66, "duration": 9, "velocity": 85}, {"time": 3877, "pitch": 71, "duration": 9, "velocity": 88}, {"time": 3883, "pitch": 51, "duration": 5, "velocity": 71}, {"time": 3889, "pitch": 59, "duration": 2, "velocity": 92}, {"time": 3895, "pitch": 37, "duration": 38, "velocity": 78}, {"time": 3895, "pitch": 49, "duration": 23, "velocity": 97}, {"time": 3895, "pitch": 61, "duration": 9, "velocity": 86}, {"time": 3895, "pitch": 64, "duration": 8, "velocity": 86}, {"time": 3895, "pitch": 68, "duration": 7, "velocity": 86}, {"time": 3901, "pitch": 56, "duration": 9, "velocity": 75}, {"time": 3907, "pitch": 61, "duration": 4, "velocity": 94}, {"time": 3907, "pitch": 64, "duration": 3, "velocity": 100}, {"time": 3907, "pitch": 68, "duration": 4, "velocity": 94}, {"time": 3913, "pitch": 56, "duration": 4, "velocity": 45}, {"time": 3916, "pitch": 61, "duration": 2, "velocity": 93}, {"time": 3919, "pitch": 61, "duration": 4, "velocity": 94}, {"time": 3919, "pitch": 64, "duration": 4, "velocity": 100}, {"time": 3919, "pitch": 68, "duration": 4, "velocity": 93}, {"time": 3925, "pitch": 61, "duration": 8, "velocity": 86}, {"time": 3928, "pitch": 56, "duration": 4, "velocity": 91}, {"time": 3937, "pitch": 61, "duration": 2, "velocity": 95}, {"time": 3943, "pitch": 47, "duration": 16, "velocity": 93}, {"time": 3943, "pitch": 59, "duration": 4, "velocity": 89}, {"time": 3943, "pitch": 63, "duration": 7, "velocity": 83}, {"time": 3943, "pitch": 66, "duration": 8, "velocity": 83}, {"time": 3949, "pitch": 59, "duration": 3, "velocity": 85}, {"time": 3955, "pitch": 59, "duration": 5, "velocity": 94}, {"time": 3955, "pitch": 63, "duration": 5, "velocity": 93}, {"time": 3955, "pitch": 66, "duration": 5, "velocity": 93}, {"time": 3964, "pitch": 59, "duration": 2, "velocity": 91}, {"time": 3967, "pitch": 59, "duration": 6, "velocity": 91}, {"time": 3967, "pitch": 63, "duration": 7, "velocity": 87}, {"time": 3967, "pitch": 66, "duration": 7, "velocity": 81}, {"time": 3967, "pitch": 71, "duration": 6, "velocity": 92}, {"time": 3973, "pitch": 54, "duration": 9, "velocity": 82}, {"time": 3979, "pitch": 59, "duration": 3, "velocity": 102}, {"time": 3979, "pitch": 63, "duration": 3, "velocity": 89}, {"time": 3979, "pitch": 66, "duration": 3, "velocity": 84}, {"time": 3991, "pitch": 37, "duration": 3, "velocity": 91}, {"time": 3991, "pitch": 49, "duration": 25, "velocity": 84}, {"time": 3991, "pitch": 61, "duration": 4, "velocity": 91}, {"time": 3991, "pitch": 64, "duration": 7, "velocity": 98}, {"time": 3991, "pitch": 68, "duration": 7, "velocity": 87}, {"time": 3997, "pitch": 61, "duration": 3, "velocity": 85}, {"time": 4003, "pitch": 61, "duration": 5, "velocity": 93}, {"time": 4003, "pitch": 64, "duration": 5, "velocity": 97}, {"time": 4003, "pitch": 68, "duration": 5, "velocity": 92}, {"time": 4009, "pitch": 56, "duration": 5, "velocity": 58}, {"time": 4012, "pitch": 61, "duration": 2, "velocity": 91}, {"time": 4015, "pitch": 61, "duration": 8, "velocity": 87}, {"time": 4015, "pitch": 64, "duration": 9, "velocity": 95}, {"time": 4015, "pitch": 68, "duration": 10, "velocity": 92}, {"time": 4021, "pitch": 49, "duration": 13, "velocity": 87}, {"time": 4027, "pitch": 61, "duration": 11, "velocity": 96}, {"time": 4027, "pitch": 64, "duration": 12, "velocity": 96}, {"time": 4027, "pitch": 68, "duration": 12, "velocity": 93}, {"time": 4033, "pitch": 56, "duration": 6, "velocity": 93}, {"time": 4039, "pitch": 45, "duration": 48, "velocity": 91}, {"time": 4039, "pitch": 57, "duration": 10, "velocity": 85}, {"time": 4039, "pitch": 64, "duration": 9, "velocity": 91}, {"time": 4045, "pitch": 52, "duration": 9, "velocity": 83}, {"time": 4051, "pitch": 57, "duration": 6, "velocity": 91}, {"time": 4051, "pitch": 61, "duration": 7, "velocity": 86}, {"time": 4051, "pitch": 64, "duration": 7, "velocity": 93}, {"time": 4054, "pitch": 52, "duration": 6, "velocity": 78}, {"time": 4060, "pitch": 57, "duration": 2, "velocity": 93}, {"time": 4063, "pitch": 57, "duration": 7, "velocity": 91}, {"time": 4063, "pitch": 61, "duration": 8, "velocity": 92}, {"time": 4063, "pitch": 64, "duration": 8, "velocity": 93}, {"time": 4069, "pitch": 52, "duration": 8, "velocity": 83}, {"time": 4075, "pitch": 57, "duration": 12, "velocity": 92}, {"time": 4075, "pitch": 61, "duration": 12, "velocity": 92}, {"time": 4075, "pitch": 64, "duration": 12, "velocity": 93}, {"time": 4081, "pitch": 52, "duration": 6, "velocity": 92}, {"time": 4087, "pitch": 40, "duration": 39, "velocity": 93}, {"time": 4087, "pitch": 52, "duration": 40, "velocity": 92}, {"time": 4087, "pitch": 64, "duration": 8, "velocity": 90}, {"time": 4087, "pitch": 68, "duration": 8, "velocity": 84}, {"time": 4093, "pitch": 59, "duration": 9, "velocity": 80}, {"time": 4099, "pitch": 64, "duration": 6, "velocity": 95}, {"time": 4099, "pitch": 68, "duration": 5, "velocity": 93}, {"time": 4099, "pitch": 71, "duration": 5, "velocity": 93}, {"time": 4105, "pitch": 59, "duration": 5, "velocity": 70}, {"time": 4108, "pitch": 64, "duration": 4, "velocity": 92}, {"time": 4108, "pitch": 68, "duration": 4, "velocity": 92}, {"time": 4111, "pitch": 59, "duration": 15, "velocity": 82}, {"time": 4117, "pitch": 64, "duration": 4, "velocity": 86}, {"time": 4123, "pitch": 64, "duration": 3, "velocity": 102}, {"time": 4123, "pitch": 68, "duration": 5, "velocity": 92}, {"time": 4129, "pitch": 64, "duration": 3, "velocity": 92}, {"time": 4135, "pitch": 45, "duration": 41, "velocity": 92}, {"time": 4135, "pitch": 64, "duration": 5, "velocity": 90}, {"time": 4135, "pitch": 69, "duration": 4, "velocity": 89}, {"time": 4141, "pitch": 52, "duration": 8, "velocity": 70}, {"time": 4147, "pitch": 57, "duration": 4, "velocity": 91}, {"time": 4147, "pitch": 61, "duration": 4, "velocity": 91}, {"time": 4147, "pitch": 64, "duration": 4, "velocity": 93}, {"time": 4153, "pitch": 52, "duration": 4, "velocity": 70}, {"time": 4156, "pitch": 57, "duration": 4, "velocity": 87}, {"time": 4156, "pitch": 61, "duration": 3, "velocity": 87}, {"time": 4156, "pitch": 64, "duration": 4, "velocity": 91}, {"time": 4159, "pitch": 52, "duration": 15, "velocity": 88}, {"time": 4165, "pitch": 57, "duration": 5, "velocity": 84}, {"time": 4171, "pitch": 57, "duration": 1, "velocity": 81}, {"time": 4171, "pitch": 61, "duration": 11, "velocity": 92}, {"time": 4171, "pitch": 64, "duration": 12, "velocity": 94}, {"time": 4171, "pitch": 69, "duration": 15, "velocity": 91}, {"time": 4177, "pitch": 57, "duration": 6, "velocity": 91}, {"time": 4183, "pitch": 52, "duration": 40, "velocity": 94}, {"time": 4189, "pitch": 59, "duration": 9, "velocity": 79}, {"time": 4195, "pitch": 64, "duration": 4, "velocity": 92}, {"time": 4195, "pitch": 68, "duration": 4, "velocity": 92}, {"time": 4195, "pitch": 71, "duration": 5, "velocity": 91}, {"time": 4201, "pitch": 59, "duration": 4, "velocity": 80}, {"time": 4204, "pitch": 64, "duration": 3, "velocity": 97}, {"time": 4207, "pitch": 59, "duration": 14, "velocity": 84}, {"time": 4213, "pitch": 64, "duration": 4, "velocity": 95}, {"time": 4219, "pitch": 64, "duration": 3, "velocity": 95}, {"time": 4219, "pitch": 68, "duration": 6, "velocity": 95}, {"time": 4219, "pitch": 71, "duration": 6, "velocity": 93}, {"time": 4225, "pitch": 64, "duration": 2, "velocity": 92}, {"time": 4231, "pitch": 47, "duration": 24, "velocity": 84}, {"time": 4231, "pitch": 59, "duration": 11, "velocity": 91}, {"time": 4243, "pitch": 59, "duration": 5, "velocity": 95}, {"time": 4243, "pitch": 63, "duration": 5, "velocity": 92}, {"time": 4243, "pitch": 66, "duration": 5, "velocity": 91}, {"time": 4252, "pitch": 59, "duration": 4, "velocity": 87}, {"time": 4252, "pitch": 63, "duration": 3, "velocity": 85}, {"time": 4252, "pitch": 66, "duration": 3, "velocity": 79}, {"time": 4255, "pitch": 54, "duration": 10, "velocity": 75}, {"time": 4261, "pitch": 59, "duration": 7, "velocity": 93}, {"time": 4261, "pitch": 63, "duration": 8, "velocity": 89}, {"time": 4261, "pitch": 66, "duration": 9, "velocity": 85}, {"time": 4261, "pitch": 71, "duration": 9, "velocity": 88}, {"time": 4267, "pitch": 51, "duration": 5, "velocity": 71}, {"time": 4273, "pitch": 59, "duration": 2, "velocity": 92}, {"time": 4279, "pitch": 37, "duration": 38, "velocity": 78}, {"time": 4279, "pitch": 49, "duration": 23, "velocity": 97}, {"time": 4279, "pitch": 61, "duration": 9, "velocity": 86}, {"time": 4279, "pitch": 64, "duration": 8, "velocity": 86}, {"time": 4279, "pitch": 68, "duration": 7, "velocity": 86}, {"time": 4285, "pitch": 56, "duration": 9, "velocity": 75}, {"time": 4291, "pitch": 61, "duration": 4, "velocity": 94}, {"time": 4291, "pitch": 64, "duration": 3, "velocity": 100}, {"time": 4291, "pitch": 68, "duration": 4, "velocity": 94}, {"time": 4297, "pitch": 56, "duration": 4, "velocity": 45}, {"time": 4300, "pitch": 61, "duration": 2, "velocity": 93}, {"time": 4303, "pitch": 61, "duration": 4, "velocity": 94}, {"time": 4303, "pitch": 64, "duration": 4, "velocity": 100}, {"time": 4303, "pitch": 68, "duration": 4, "velocity": 93}, {"time": 4309, "pitch": 61, "duration": 8, "velocity": 86}, {"time": 4312, "pitch": 56, "duration": 4, "velocity": 91}, {"time": 4321, "pitch": 61, "duration": 2, "velocity": 95}, {"time": 4327, "pitch": 47, "duration": 16, "velocity": 93}, {"time": 4327, "pitch": 59, "duration": 4, "velocity": 89}, {"time": 4327, "pitch": 63, "duration": 7, "velocity": 83}, {"time": 4327, "pitch": 66, "duration": 8, "velocity": 83}, {"time": 4333, "pitch": 59, "duration": 3, "velocity": 85}, {"time": 4339, "pitch": 59, "duration": 5, "velocity": 94}, {"time": 4339, "pitch": 63, "duration": 5, "velocity": 93}, {"time": 4339, "pitch": 66, "duration": 5, "velocity": 93}, {"time": 4348, "pitch": 59, "duration": 2, "velocity": 91}, {"time": 4351, "pitch": 59, "duration": 6, "velocity": 91}, {"time": 4351, "pitch": 63, "duration": 7, "velocity": 87}, {"time": 4351, "pitch": 66, "duration": 7, "velocity": 81}, {"time": 4351, "pitch": 71, "duration": 6, "velocity": 92}, {"time": 4357, "pitch": 54, "duration": 9, "velocity": 82}, {"time": 4363, "pitch": 59, "duration": 3, "velocity": 102}, {"time": 4363, "pitch": 63, "duration": 3, "velocity": 89}, {"time": 4363, "pitch": 66, "duration": 3, "velocity": 84}, {"time": 4375, "pitch": 37, "duration": 3, "velocity": 91}, {"time": 4375, "pitch": 49, "duration": 25, "velocity": 84}, {"time": 4375, "pitch": 61, "duration": 4, "velocity": 91}, {"time": 4375, "pitch": 64, "duration": 7, "velocity": 98}, {"time": 4375, "pitch": 68, "duration": 7, "velocity": 87}, {"time": 4381, "pitch": 61, "duration": 3, "velocity": 85}, {"time": 4387, "pitch": 61, "duration": 5, "velocity": 93}, {"time": 4387, "pitch": 64, "duration": 5, "velocity": 97}, {"time": 4387, "pitch": 68, "duration": 5, "velocity": 92}, {"time": 4393, "pitch": 56, "duration": 5, "velocity": 58}, {"time": 4396, "pitch": 61, "duration": 2, "velocity": 91}, {"time": 4399, "pitch": 61, "duration": 8, "velocity": 87}, {"time": 4399, "pitch": 64, "duration": 9, "velocity": 95}, {"time": 4399, "pitch": 68, "duration": 10, "velocity": 92}, {"time": 4405, "pitch": 49, "duration": 13, "velocity": 87}, {"time": 4411, "pitch": 61, "duration": 11, "velocity": 96}, {"time": 4411, "pitch": 64, "duration": 12, "velocity": 96}, {"time": 4411, "pitch": 68, "duration": 12, "velocity": 93}, {"time": 4417, "pitch": 56, "duration": 6, "velocity": 93}, {"time": 4423, "pitch": 45, "duration": 48, "velocity": 91}, {"time": 4423, "pitch": 57, "duration": 10, "velocity": 85}, {"time": 4423, "pitch": 64, "duration": 9, "velocity": 91}, {"time": 4429, "pitch": 52, "duration": 9, "velocity": 83}, {"time": 4435, "pitch": 57, "duration": 6, "velocity": 91}, {"time": 4435, "pitch": 61, "duration": 7, "velocity": 86}, {"time": 4435, "pitch": 64, "duration": 7, "velocity": 93}, {"time": 4438, "pitch": 52, "duration": 6, "velocity": 78}, {"time": 4444, "pitch": 57, "duration": 2, "velocity": 93}, {"time": 4447, "pitch": 57, "duration": 7, "velocity": 91}, {"time": 4447, "pitch": 61, "duration": 8, "velocity": 92}, {"time": 4447, "pitch": 64, "duration": 8, "velocity": 93}, {"time": 4453, "pitch": 52, "duration": 8, "velocity": 83}, {"time": 4459, "pitch": 57, "duration": 12, "velocity": 92}, {"time": 4459, "pitch": 61, "duration": 12, "velocity": 92}, {"time": 4459, "pitch": 64, "duration": 12, "velocity": 93}, {"time": 4465, "pitch": 52, "duration": 6, "velocity": 92}, {"time": 4471, "pitch": 40, "duration": 39, "velocity": 93}, {"time": 4471, "pitch": 52, "duration": 40, "velocity": 92}, {"time": 4471, "pitch": 64, "duration": 8, "velocity": 90}, {"time": 4471, "pitch": 68, "duration": 8, "velocity": 84}, {"time": 4477, "pitch": 59, "duration": 9, "velocity": 80}, {"time": 4483, "pitch": 64, "duration": 6, "velocity": 95}, {"time": 4483, "pitch": 68, "duration": 5, "velocity": 93}, {"time": 4483, "pitch": 71, "duration": 5, "velocity": 93}, {"time": 4489, "pitch": 59, "duration": 5, "velocity": 70}, {"time": 4492, "pitch": 64, "duration": 4, "velocity": 92}, {"time": 4492, "pitch": 68, "duration": 4, "velocity": 92}, {"time": 4495, "pitch": 59, "duration": 15, "velocity": 82}, {"time": 4501, "pitch": 64, "duration": 4, "velocity": 86}, {"time": 4507, "pitch": 64, "duration": 3, "velocity": 102}, {"time": 4507, "pitch": 68, "duration": 5, "velocity": 92}, {"time": 4513, "pitch": 64, "duration": 3, "velocity": 92}, {"time": 4519, "pitch": 45, "duration": 41, "velocity": 92}, {"time": 4519, "pitch": 64, "duration": 5, "velocity": 90}, {"time": 4519, "pitch": 69, "duration": 4, "velocity": 89}, {"time": 4525, "pitch": 52, "duration": 8, "velocity": 70}, {"time": 4531, "pitch": 57, "duration": 4, "velocity": 91}, {"time": 4531, "pitch": 61, "duration": 4, "velocity": 91}, {"time": 4531, "pitch": 64, "duration": 4, "velocity": 93}, {"time": 4537, "pitch": 52, "duration": 4, "velocity": 70}, {"time": 4540, "pitch": 57, "duration": 4, "velocity": 87}, {"time": 4540, "pitch": 61, "duration": 3, "velocity": 87}, {"time": 4540, "pitch": 64, "duration": 4, "velocity": 91}, {"time": 4543, "pitch": 52, "duration": 15, "velocity": 88}, {"time": 4549, "pitch": 57, "duration": 5, "velocity": 84}, {"time": 4555, "pitch": 57, "duration": 1, "velocity": 81}, {"time": 4555, "pitch": 61, "duration": 11, "velocity": 92}, {"time": 4555, "pitch": 64, "duration": 12, "velocity": 94}, {"time": 4555, "pitch": 69, "duration": 15, "velocity": 91}, {"time": 4561, "pitch": 57, "duration": 6, "velocity": 91}, {"time": 4567, "pitch": 52, "duration": 40, "velocity": 94}, {"time": 4573, "pitch": 59, "duration": 9, "velocity": 79}, {"time": 4579, "pitch": 64, "duration": 4, "velocity": 92}, {"time": 4579, "pitch": 68, "duration": 4, "velocity": 92}, {"time": 4579, "pitch": 71, "duration": 5, "velocity": 91}, {"time": 4585, "pitch": 59, "duration": 4, "velocity": 80}, {"time": 4588, "pitch": 64, "duration": 3, "velocity": 97}, {"time": 4591, "pitch": 59, "duration": 14, "velocity": 84}, {"time": 4597, "pitch": 64, "duration": 4, "velocity": 95}, {"time": 4603, "pitch": 64, "duration": 3, "velocity": 95}, {"time": 4603, "pitch": 68, "duration": 6, "velocity": 95}, {"time": 4603, "pitch": 71, "duration": 6, "velocity": 93}, {"time": 4609, "pitch": 64, "duration": 2, "velocity": 92}, {"time": 4615, "pitch": 47, "duration": 24, "velocity": 84}, {"time": 4615, "pitch": 59, "duration": 11, "velocity": 91}, {"time": 4627, "pitch": 59, "duration": 5, "velocity": 95}, {"time": 4627, "pitch": 63, "duration": 5, "velocity": 92}, {"time": 4627, "pitch": 66, "duration": 5, "velocity": 91}, {"time": 4636, "pitch": 59, "duration": 4, "velocity": 87}, {"time": 4636, "pitch": 63, "duration": 3, "velocity": 85}, {"time": 4636, "pitch": 66, "duration": 3, "velocity": 79}, {"time": 4639, "pitch": 54, "duration": 10, "velocity": 75}, {"time": 4645, "pitch": 59, "duration": 7, "velocity": 93}, {"time": 4645, "pitch": 63, "duration": 8, "velocity": 89}, {"time": 4645, "pitch": 66, "duration": 9, "velocity": 85}, {"time": 4645, "pitch": 71, "duration": 9, "velocity": 88}, {"time": 4651, "pitch": 51, "duration": 5, "velocity": 71}, {"time": 4657, "pitch": 59, "duration": 2, "velocity": 92}, {"time": 4663, "pitch": 37, "duration": 38, "velocity": 78}, {"time": 4663, "pitch": 49, "duration": 23, "velocity": 97}, {"time": 4663, "pitch": 61, "duration": 9, "velocity": 86}, {"time": 4663, "pitch": 64, "duration": 8, "velocity": 86}, {"time": 4663, "pitch": 68, "duration": 7, "velocity": 86}, {"time": 4669, "pitch": 56, "duration": 9, "velocity": 75}, {"time": 4675, "pitch": 61, "duration": 4, "velocity": 94}, {"time": 4675, "pitch": 64, "duration": 3, "velocity": 100}, {"time": 4675, "pitch": 68, "duration": 4, "velocity": 94}, {"time": 4681, "pitch": 56, "duration": 4, "velocity": 45}, {"time": 4684, "pitch": 61, "duration": 2, "velocity": 93}, {"time": 4687, "pitch": 61, "duration": 4, "velocity": 94}, {"time": 4687, "pitch": 64, "duration": 4, "velocity": 100}, {"time": 4687, "pitch": 68, "duration": 4, "velocity": 93}, {"time": 4693, "pitch": 61, "duration": 8, "velocity": 86}, {"time": 4696, "pitch": 56, "duration": 4, "velocity": 91}, {"time": 4705, "pitch": 61, "duration": 2, "velocity": 95}, {"time": 4711, "pitch": 47, "duration": 16, "velocity": 93}, {"time": 4711, "pitch": 59, "duration": 4, "velocity": 89}, {"time": 4711, "pitch": 63, "duration": 7, "velocity": 83}, {"time": 4711, "pitch": 66, "duration": 8, "velocity": 83}, {"time": 4717, "pitch": 59, "duration": 3, "velocity": 85}, {"time": 4723, "pitch": 59, "duration": 5, "velocity": 94}, {"time": 4723, "pitch": 63, "duration": 5, "velocity": 93}, {"time": 4723, "pitch": 66, "duration": 5, "velocity": 93}, {"time": 4732, "pitch": 59, "duration": 2, "velocity": 91}, {"time": 4735, "pitch": 59, "duration": 6, "velocity": 91}, {"time": 4735, "pitch": 63, "duration": 7, "velocity": 87}, {"time": 4735, "pitch": 66, "duration": 7, "velocity": 81}, {"time": 4735, "pitch": 71, "duration": 6, "velocity": 92}, {"time": 4741, "pitch": 54, "duration": 9, "velocity": 82}, {"time": 4747, "pitch": 59, "duration": 3, "velocity": 102}, {"time": 4747, "pitch": 63, "duration": 3, "velocity": 89}, {"time": 4747, "pitch": 66, "duration": 3, "velocity": 84}, {"time": 4759, "pitch": 37, "duration": 3, "velocity": 91}, {"time": 4759, "pitch": 49, "duration": 25, "velocity": 84}, {"time": 4759, "pitch": 61, "duration": 4, "velocity": 91}, {"time": 4759, "pitch": 64, "duration": 7, "velocity": 98}, {"time": 4759, "pitch": 68, "duration": 7, "velocity": 87}, {"time": 4765, "pitch": 61, "duration": 3, "velocity": 85}, {"time": 4771, "pitch": 61, "duration": 5, "velocity": 93}, {"time": 4771, "pitch": 64, "duration": 5, "velocity": 97}, {"time": 4771, "pitch": 68, "duration": 5, "velocity": 92}, {"time": 4777, "pitch": 56, "duration": 5, "velocity": 58}, {"time": 4780, "pitch": 61, "duration": 2, "velocity": 91}, {"time": 4783, "pitch": 61, "duration": 8, "velocity": 87}, {"time": 4783, "pitch": 64, "duration": 9, "velocity": 95}, {"time": 4783, "pitch": 68, "duration": 10, "velocity": 92}, {"time": 4789, "pitch": 49, "duration": 13, "velocity": 87}, {"time": 4795, "pitch": 61, "duration": 11, "velocity": 96}, {"time": 4795, "pitch": 64, "duration": 12, "velocity": 96}, {"time": 4795, "pitch": 68, "duration": 12, "velocity": 93}, {"time": 4801, "pitch": 56, "duration": 6, "velocity": 93}, {"time": 4807, "pitch": 45, "duration": 48, "velocity": 91}, {"time": 4807, "pitch": 52, "duration": 48, "velocity": 83}, {"time": 4807, "pitch": 57, "duration": 49, "velocity": 85}, {"time": 4807, "pitch": 64, "duration": 49, "velocity": 91}], "annotations": [{"time": 36, "annotation": {"number": 64, "value": 127}, "group": "control_change"}, {"time": 37, "annotation": {"number": 64, "value": 0}, "group": "control_change"}, {"time": 37, "annotation": {"number": 64, "value": 127}, "group": "control_change"}, {"time": 51, "annotation": {"number": 64, "value": 0}, "group": "control_change"}, {"time": 132, "annotation": {"number": 64, "value": 127}, "group": "control_change"}, {"time": 133, "annotation": {"number": 64, "value": 0}, "group": "control_change"}, {"time": 133, "annotation": {"number": 64, "value": 127}, "group": "control_change"}, {"time": 147, "annotation": {"number": 64, "value": 0}, "group": "control_change"}, {"time": 198, "annotation": {"number": 64, "value": 127}, "group": "control_change"}, {"time": 245, "annotation": {"number": 64, "value": 0}, "group": "control_change"}, {"time": 250, "annotation": {"number": 64, "value": 127}, "group": "control_change"}, {"time": 293, "annotation": {"number": 64, "value": 0}, "group": "control_change"}, {"time": 296, "annotation": {"number": 64, "value": 127}, "group": "control_change"}, {"time": 340, "annotation": {"number": 64, "value": 0}, "group": "control_change"}, {"time": 345, "annotation": {"number": 64, "value": 127}, "group": "control_change"}, {"time": 391, "annotation": {"number": 64, "value": 0}, "group": "control_change"}, {"time": 394, "annotation": {"number": 64, "value": 127}, "group": "control_change"}, {"time": 437, "annotation": {"number": 64, "value": 0}, "group": "control_change"}, {"time": 441, "annotation": {"number": 64, "value": 127}, "group": "control_change"}, {"time": 485, "annotation": {"number": 64, "value": 0}, "group": "control_change"}, {"time": 488, "annotation": {"number": 64, "value": 127}, "group": "control_change"}, {"time": 533, "annotation": {"number": 64, "value": 0}, "group": "control_change"}, {"time": 535, "annotation": {"number": 64, "value": 127}, "group": "control_change"}, {"time": 578, "annotation": {"number": 64, "value": 0}, "group": "control_change"}, {"time": 626, "annotation": {"number": 64, "value": 0}, "group": "control_change"}, {"time": 634, "annotation": {"number": 64, "value": 127}, "group": "control_change"}, {"time": 677, "annotation": {"number": 64, "value": 0}, "group": "control_change"}, {"time": 680, "annotation": {"number": 64, "value": 127}, "group": "control_change"}, {"time": 724, "annotation": {"number": 64, "value": 0}, "group": "control_change"}, {"time": 729, "annotation": {"number": 64, "value": 127}, "group": "control_change"}, {"time": 775, "annotation": {"number": 64, "value": 0}, "group": "control_change"}, {"time": 778, "annotation": {"number": 64, "value": 127}, "group": "control_change"}, {"time": 821, "annotation": {"number": 64, "value": 0}, "group": "control_change"}, {"time": 825, "annotation": {"number": 64, "value": 127}, "group": "control_change"}, {"time": 869, "annotation": {"number": 64, "value": 0}, "group": "control_change"}, {"time": 872, "annotation": {"number": 64, "value": 127}, "group": "control_change"}, {"time": 917, "annotation": {"number": 64, "value": 0}, "group": "control_change"}, {"time": 919, "annotation": {"number": 64, "value": 127}, "group": "control_change"}, {"time": 962, "annotation": {"number": 64, "value": 0}, "group": "control_change"}, {"time": 968, "annotation": {"number": 64, "value": 127}, "group": "control_change"}, {"time": 972, "annotation": {"number": 64, "value": 0}, "group": "control_change"}, {"time": 1015, "annotation": {"number": 64, "value": 127}, "group": "control_change"}, {"time": 1060, "annotation": {"number": 64, "value": 0}, "group": "control_change"}, {"time": 1063, "annotation": {"number": 64, "value": 127}, "group": "control_change"}, {"time": 1107, "annotation": {"number": 64, "value": 0}, "group": "control_change"}, {"time": 1110, "annotation": {"number": 64, "value": 127}, "group": "control_change"}, {"time": 1157, "annotation": {"number": 64, "value": 0}, "group": "control_change"}, {"time": 1159, "annotation": {"number": 64, "value": 127}, "group": "control_change"}, {"time": 1160, "annotation": {"number": 64, "value": 127}, "group": "control_change"}, {"time": 1160, "annotation": {"number": 64, "value": 0}, "group": "control_change"}, {"time": 1204, "annotation": {"number": 64, "value": 0}, "group": "control_change"}, {"time": 1208, "annotation": {"number": 64, "value": 127}, "group": "control_change"}, {"time": 1253, "annotation": {"number": 64, "value": 0}, "group": "control_change"}, {"time": 1257, "annotation": {"number": 64, "value": 127}, "group": "control_change"}, {"time": 1301, "annotation": {"number": 64, "value": 0}, "group": "control_change"}, {"time": 1305, "annotation": {"number": 64, "value": 127}, "group": "control_change"}, {"time": 1350, "annotation": {"number": 64, "value": 0}, "group": "control_change"}, {"time": 1352, "annotation": {"number": 64, "value": 127}, "group": "control_change"}, {"time": 1397, "annotation": {"number": 64, "value": 0}, "group": "control_change"}, {"time": 1399, "annotation": {"number": 64, "value": 127}, "group": "control_change"}, {"time": 1444, "annotation": {"number": 64, "value": 0}, "group": "control_change"}, {"time": 1447, "annotation": {"number": 64, "value": 127}, "group": "control_change"}, {"time": 1491, "annotation": {"number": 64, "value": 0}, "group": "control_change"}, {"time": 1494, "annotation": {"number": 64, "value": 127}, "group": "control_change"}, {"time": 1541, "annotation": {"number": 64, "value": 0}, "group": "control_change"}, {"time": 1543, "annotation": {"number": 64, "value": 127}, "group": "control_change"}, {"time": 1544, "annotation": {"number": 64, "value": 127}, "group": "control_change"}, {"time": 1544, "annotation": {"number": 64, "value": 0}, "group": "control_change"}, {"time": 1588, "annotation": {"number": 64, "value": 0}, "group": "control_change"}, {"time": 1592, "annotation": {"number": 64, "value": 127}, "group": "control_change"}, {"time": 1637, "annotation": {"number": 64, "value": 0}, "group": "control_change"}, {"time": 1641, "annotation": {"number": 64, "value": 127}, "group": "control_change"}, {"time": 1685, "annotation": {"number": 64, "value": 0}, "group": "control_change"}, {"time": 1689, "annotation": {"number": 64, "value": 127}, "group": "control_change"}, {"time": 1734, "annotation": {"number": 64, "value": 0}, "group": "control_change"}, {"time": 1734, "annotation": {"number": 64, "value": 127}, "group": "control_change"}, {"time": 1784, "annotation": {"number": 64, "value": 127}, "group": "control_change"}, {"time": 1829, "annotation": {"number": 64, "value": 0}, "group": "control_change"}, {"time": 1836, "annotation": {"number": 64, "value": 127}, "group": "control_change"}, {"time": 1877, "annotation": {"number": 64, "value": 0}, "group": "control_change"}, {"time": 1880, "annotation": {"number": 64, "value": 127}, "group": "control_change"}, {"time": 1926, "annotation": {"number": 64, "value": 0}, "group": "control_change"}, {"time": 1928, "annotation": {"number": 64, "value": 127}, "group": "control_change"}, {"time": 1973, "annotation": {"number": 64, "value": 0}, "group": "control_change"}, {"time": 1975, "annotation": {"number": 64, "value": 127}, "group": "control_change"}, {"time": 2021, "annotation": {"number": 64, "value": 0}, "group": "control_change"}, {"time": 2024, "annotation": {"number": 64, "value": 127}, "group": "control_change"}, {"time": 2069, "annotation": {"number": 64, "value": 0}, "group": "control_change"}, {"time": 2071, "annotation": {"number": 64, "value": 127}, "group": "control_change"}, {"time": 2117, "annotation": {"number": 64, "value": 0}, "group": "control_change"}, {"time": 2162, "annotation": {"number": 64, "value": 0}, "group": "control_change"}, {"time": 2170, "annotation": {"number": 64, "value": 127}, "group": "control_change"}, {"time": 2213, "annotation": {"number": 64, "value": 0}, "group": "control_change"}, {"time": 2216, "annotation": {"number": 64, "value": 127}, "group": "control_change"}, {"time": 2260, "annotation": {"number": 64, "value": 0}, "group": "control_change"}, {"time": 2265, "annotation": {"number": 64, "value": 127}, "group": "control_change"}, {"time": 2311, "annotation": {"number": 64, "value": 0}, "group": "control_change"}, {"time": 2314, "annotation": {"number": 64, "value": 127}, "group": "control_change"}, {"time": 2357, "annotation": {"number": 64, "value": 0}, "group": "control_change"}, {"time": 2361, "annotation": {"number": 64, "value": 127}, "group": "control_change"}, {"time": 2405, "annotation": {"number": 64, "value": 0}, "group": "control_change"}, {"time": 2408, "annotation": {"number": 64, "value": 127}, "group": "control_change"}, {"time": 2453, "annotation": {"number": 64, "value": 0}, "group": "control_change"}, {"time": 2455, "annotation": {"number": 64, "value": 127}, "group": "control_change"}, {"time": 2498, "annotation": {"number": 64, "value": 0}, "group": "control_change"}, {"time": 2504, "annotation": {"number": 64, "value": 127}, "group": "control_change"}, {"time": 2508, "annotation": {"number": 64, "value": 0}, "group": "control_change"}, {"time": 2551, "annotation": {"number": 64, "value": 127}, "group": "control_change"}, {"time": 2596, "annotation": {"number": 64, "value": 0}, "group": "control_change"}, {"time": 2599, "annotation": {"number": 64, "value": 127}, "group": "control_change"}, {"time": 2643, "annotation": {"number": 64, "value": 0}, "group": "control_change"}, {"time": 2646, "annotation": {"number": 64, "value": 127}, "group": "control_change"}, {"time": 2693, "annotation": {"number": 64, "value": 0}, "group": "control_change"}, {"time": 2695, "annotation": {"number": 64, "value": 127}, "group": "control_change"}, {"time": 2696, "annotation": {"number": 64, "value": 127}, "group": "control_change"}, {"time": 2696, "annotation": {"number": 64, "value": 0}, "group": "control_change"}, {"time": 2740, "annotation": {"number": 64, "value": 0}, "group": "control_change"}, {"time": 2744, "annotation": {"number": 64, "value": 127}, "group": "control_change"}, {"time": 2789, "annotation": {"number": 64, "value": 0}, "group": "control_change"}, {"time": 2793, "annotation": {"number": 64, "value": 127}, "group": "control_change"}, {"time": 2837, "annotation": {"number": 64, "value": 0}, "group": "control_change"}, {"time": 2841, "annotation": {"number": 64, "value": 127}, "group": "control_change"}, {"time": 2886, "annotation": {"number": 64, "value": 0}, "group": "control_change"}, {"time": 2888, "annotation": {"number": 64, "value": 127}, "group": "control_change"}, {"time": 2933, "annotation": {"number": 64, "value": 0}, "group": "control_change"}, {"time": 2935, "annotation": {"number": 64, "value": 127}, "group": "control_change"}, {"time": 2980, "annotation": {"number": 64, "value": 0}, "group": "control_change"}, {"time": 2983, "annotation": {"number": 64, "value": 127}, "group": "control_change"}, {"time": 3027, "annotation": {"number": 64, "value": 0}, "group": "control_change"}, {"time": 3030, "annotation": {"number": 64, "value": 127}, "group": "control_change"}, {"time": 3077, "annotation": {"number": 64, "value": 0}, "group": "control_change"}, {"time": 3079, "annotation": {"number": 64, "value": 127}, "group": "control_change"}, {"time": 3080, "annotation": {"number": 64, "value": 127}, "group": "control_change"}, {"time": 3080, "annotation": {"number": 64, "value": 0}, "group": "control_change"}, {"time": 3124, "annotation": {"number": 64, "value": 0}, "group": "control_change"}, {"time": 3128, "annotation": {"number": 64, "value": 127}, "group": "control_change"}, {"time": 3173, "annotation": {"number": 64, "value": 0}, "group": "control_change"}, {"time": 3174, "annotation": {"number": 64, "value": 127}, "group": "control_change"}, {"time": 3197, "annotation": {"number": 64, "value": 0}, "group": "control_change"}, {"time": 3199, "annotation": {"number": 64, "value": 127}, "group": "control_change"}, {"time": 3220, "annotation": {"number": 64, "value": 0}, "group": "control_change"}, {"time": 3223, "annotation": {"number": 64, "value": 127}, "group": "control_change"}, {"time": 3315, "annotation": {"number": 64, "value": 0}, "group": "control_change"}, {"time": 3322, "annotation": {"number": 64, "value": 127}, "group": "control_change"}, {"time": 3365, "annotation": {"number": 64, "value": 0}, "group": "control_change"}, {"time": 3368, "annotation": {"number": 64, "value": 127}, "group": "control_change"}, {"time": 3412, "annotation": {"number": 64, "value": 0}, "group": "control_change"}, {"time": 3417, "annotation": {"number": 64, "value": 127}, "group": "control_change"}, {"time": 3463, "annotation": {"number": 64, "value": 0}, "group": "control_change"}, {"time": 3466, "annotation": {"number": 64, "value": 127}, "group": "control_change"}, {"time": 3509, "annotation": {"number": 64, "value": 0}, "group": "control_change"}, {"time": 3513, "annotation": {"number": 64, "value": 127}, "group": "control_change"}, {"time": 3557, "annotation": {"number": 64, "value": 0}, "group": "control_change"}, {"time": 3560, "annotation": {"number": 64, "value": 127}, "group": "control_change"}, {"time": 3605, "annotation": {"number": 64, "value": 0}, "group": "control_change"}, {"time": 3607, "annotation": {"number": 64, "value": 127}, "group": "control_change"}, {"time": 3650, "annotation": {"number": 64, "value": 0}, "group": "control_change"}, {"time": 3698, "annotation": {"number": 64, "value": 0}, "group": "control_change"}, {"time": 3706, "annotation": {"number": 64, "value": 127}, "group": "control_change"}, {"time": 3749, "annotation": {"number": 64, "value": 0}, "group": "control_change"}, {"time": 3752, "annotation": {"number": 64, "value": 127}, "group": "control_change"}, {"time": 3796, "annotation": {"number": 64, "value": 0}, "group": "control_change"}, {"time": 3801, "annotation": {"number": 64, "value": 127}, "group": "control_change"}, {"time": 3847, "annotation": {"number": 64, "value": 0}, "group": "control_change"}, {"time": 3850, "annotation": {"number": 64, "value": 127}, "group": "control_change"}, {"time": 3893, "annotation": {"number": 64, "value": 0}, "group": "control_change"}, {"time": 3897, "annotation": {"number": 64, "value": 127}, "group": "control_change"}, {"time": 3941, "annotation": {"number": 64, "value": 0}, "group": "control_change"}, {"time": 3944, "annotation": {"number": 64, "value": 127}, "group": "control_change"}, {"time": 3989, "annotation": {"number": 64, "value": 0}, "group": "control_change"}, {"time": 3991, "annotation": {"number": 64, "value": 127}, "group": "control_change"}, {"time": 4034, "annotation": {"number": 64, "value": 0}, "group": "control_change"}, {"time": 4082, "annotation": {"number": 64, "value": 0}, "group": "control_change"}, {"time": 4090, "annotation": {"number": 64, "value": 127}, "group": "control_change"}, {"time": 4133, "annotation": {"number": 64, "value": 0}, "group": "control_change"}, {"time": 4136, "annotation": {"number": 64, "value": 127}, "group": "control_change"}, {"time": 4180, "annotation": {"number": 64, "value": 0}, "group": "control_change"}, {"time": 4185, "annotation": {"number": 64, "value": 127}, "group": "control_change"}, {"time": 4231, "annotation": {"number": 64, "value": 0}, "group": "control_change"}, {"time": 4234, "annotation": {"number": 64, "value": 127}, "group": "control_change"}, {"time": 4277, "annotation": {"number": 64, "value": 0}, "group": "control_change"}, {"time": 4281, "annotation": {"number": 64, "value": 127}, "group": "control_change"}, {"time": 4325, "annotation": {"number": 64, "value": 0}, "group": "control_change"}, {"time": 4328, "annotation": {"number": 64, "value": 127}, "group": "control_change"}, {"time": 4373, "annotation": {"number": 64, "value": 0}, "group": "control_change"}, {"time": 4375, "annotation": {"number": 64, "value": 127}, "group": "control_change"}, {"time": 4418, "annotation": {"number": 64, "value": 0}, "group": "control_change"}, {"time": 4466, "annotation": {"number": 64, "value": 0}, "group": "control_change"}, {"time": 4474, "annotation": {"number": 64, "value": 127}, "group": "control_change"}, {"time": 4517, "annotation": {"number": 64, "value": 0}, "group": "control_change"}, {"time": 4520, "annotation": {"number": 64, "value": 127}, "group": "control_change"}, {"time": 4564, "annotation": {"number": 64, "value": 0}, "group": "control_change"}, {"time": 4569, "annotation": {"number": 64, "value": 127}, "group": "control_change"}, {"time": 4615, "annotation": {"number": 64, "value": 0}, "group": "control_change"}, {"time": 4618, "annotation": {"number": 64, "value": 127}, "group": "control_change"}, {"time": 4661, "annotation": {"number": 64, "value": 0}, "group": "control_change"}, {"time": 4665, "annotation": {"number": 64, "value": 127}, "group": "control_change"}, {"time": 4709, "annotation": {"number": 64, "value": 0}, "group": "control_change"}, {"time": 4712, "annotation": {"number": 64, "value": 127}, "group": "control_change"}, {"time": 4757, "annotation": {"number": 64, "value": 0}, "group": "control_change"}, {"time": 4759, "annotation": {"number": 64, "value": 127}, "group": "control_change"}, {"time": 4802, "annotation": {"number": 64, "value": 0}, "group": "control_change"}, {"time": 4850, "annotation": {"number": 64, "value": 0}, "group": "control_change"}]}]}