{"metadata": {"schema_version": "0.2", "title": "None", "source_filename": "526.mid", "source_format": "midi"}, "resolution": 12, "tempos": [{"time": 0, "qpm": 68.50011017101052}, {"time": 192, "qpm": 68.0000725334107}, {"time": 216, "qpm": 69.00009660013524}, {"time": 312, "qpm": 69.50010888350391}, {"time": 348, "qpm": 70.10000934666792}, {"time": 408, "qpm": 70.50006873756702}, {"time": 468, "qpm": 71.00003550001774}, {"time": 571, "qpm": 71.5000715000715}, {"time": 600, "qpm": 72.60011253017443}, {"time": 680, "qpm": 73.00007178340392}, {"time": 948, "qpm": 72.30004518752824}, {"time": 1068, "qpm": 72.00002880001152}, {"time": 1320, "qpm": 71.30006155571981}, {"time": 1560, "qpm": 71.90003019801269}, {"time": 2135, "qpm": 71.60007064540304}, {"time": 2400, "qpm": 72.00002880001152}, {"time": 2496, "qpm": 71.40001142400183}, {"time": 2556, "qpm": 71.90003019801269}, {"time": 2640, "qpm": 72.70004325652573}, {"time": 2664, "qpm": 73.10003862118707}, {"time": 2820, "qpm": 72.50001812500453}, {"time": 2832, "qpm": 72.1001326642441}], "time_signatures": [{"time": 0, "numerator": 1, "denominator": 4}], "tracks": [{"program": 0, "is_drum": false, "name": "MELODY", "notes": [{"time": 207, "pitch": 71, "duration": 5, "velocity": 87}, {"time": 213, "pitch": 76, "duration": 15, "velocity": 82}, {"time": 231, "pitch": 80, "duration": 5, "velocity": 83}, {"time": 237, "pitch": 83, "duration": 15, "velocity": 83}, {"time": 255, "pitch": 76, "duration": 5, "velocity": 80}, {"time": 261, "pitch": 75, "duration": 13, "velocity": 79}, {"time": 279, "pitch": 80, "duration": 5, "velocity": 82}, {"time": 285, "pitch": 83, "duration": 15, "velocity": 87}, {"time": 303, "pitch": 83, "duration": 5, "velocity": 83}, {"time": 309, "pitch": 85, "duration": 16, "velocity": 82}, {"time": 327, "pitch": 87, "duration": 4, "velocity": 83}, {"time": 333, "pitch": 88, "duration": 11, "velocity": 81}, {"time": 345, "pitch": 85, "duration": 3, "velocity": 82}, {"time": 348, "pitch": 83, "duration": 3, "velocity": 80}, {"time": 351, "pitch": 85, "duration": 4, "velocity": 81}, {"time": 357, "pitch": 83, "duration": 33, "velocity": 79}, {"time": 393, "pitch": 80, "duration": 4, "velocity": 83}, {"time": 399, "pitch": 78, "duration": 4, "velocity": 76}, {"time": 405, "pitch": 76, "duration": 17, "velocity": 85}, {"time": 423, "pitch": 75, "duration": 4, "velocity": 82}, {"time": 429, "pitch": 76, "duration": 9, "velocity": 80}, {"time": 441, "pitch": 80, "duration": 4, "velocity": 80}, {"time": 447, "pitch": 78, "duration": 4, "velocity": 85}, {"time": 453, "pitch": 76, "duration": 17, "velocity": 81}, {"time": 471, "pitch": 75, "duration": 5, "velocity": 80}, {"time": 477, "pitch": 76, "duration": 11, "velocity": 78}, {"time": 489, "pitch": 78, "duration": 4, "velocity": 81}, {"time": 495, "pitch": 80, "duration": 5, "velocity": 82}, {"time": 501, "pitch": 78, "duration": 17, "velocity": 87}, {"time": 519, "pitch": 76, "duration": 3, "velocity": 93}, {"time": 525, "pitch": 73, "duration": 10, "velocity": 83}, {"time": 537, "pitch": 80, "duration": 11, "velocity": 82}, {"time": 549, "pitch": 78, "duration": 38, "velocity": 80}, {"time": 591, "pitch": 71, "duration": 5, "velocity": 87}, {"time": 597, "pitch": 76, "duration": 15, "velocity": 82}, {"time": 615, "pitch": 80, "duration": 5, "velocity": 83}, {"time": 621, "pitch": 83, "duration": 15, "velocity": 83}, {"time": 639, "pitch": 76, "duration": 5, "velocity": 80}, {"time": 645, "pitch": 75, "duration": 13, "velocity": 79}, {"time": 663, "pitch": 80, "duration": 5, "velocity": 82}, {"time": 669, "pitch": 83, "duration": 15, "velocity": 87}, {"time": 687, "pitch": 83, "duration": 5, "velocity": 83}, {"time": 693, "pitch": 85, "duration": 16, "velocity": 82}, {"time": 711, "pitch": 87, "duration": 4, "velocity": 83}, {"time": 717, "pitch": 88, "duration": 11, "velocity": 81}, {"time": 729, "pitch": 85, "duration": 3, "velocity": 82}, {"time": 732, "pitch": 83, "duration": 3, "velocity": 80}, {"time": 735, "pitch": 85, "duration": 4, "velocity": 81}, {"time": 741, "pitch": 83, "duration": 33, "velocity": 79}, {"time": 777, "pitch": 80, "duration": 4, "velocity": 83}, {"time": 783, "pitch": 78, "duration": 4, "velocity": 76}, {"time": 789, "pitch": 76, "duration": 17, "velocity": 85}, {"time": 807, "pitch": 75, "duration": 4, "velocity": 82}, {"time": 813, "pitch": 76, "duration": 9, "velocity": 80}, {"time": 825, "pitch": 80, "duration": 4, "velocity": 80}, {"time": 831, "pitch": 78, "duration": 4, "velocity": 85}, {"time": 837, "pitch": 76, "duration": 17, "velocity": 81}, {"time": 855, "pitch": 75, "duration": 5, "velocity": 80}, {"time": 861, "pitch": 76, "duration": 11, "velocity": 78}, {"time": 873, "pitch": 78, "duration": 4, "velocity": 81}, {"time": 879, "pitch": 80, "duration": 5, "velocity": 82}, {"time": 885, "pitch": 78, "duration": 17, "velocity": 87}, {"time": 903, "pitch": 73, "duration": 3, "velocity": 93}, {"time": 909, "pitch": 75, "duration": 10, "velocity": 83}, {"time": 921, "pitch": 78, "duration": 11, "velocity": 82}, {"time": 933, "pitch": 76, "duration": 36, "velocity": 80}, {"time": 969, "pitch": 83, "duration": 10, "velocity": 83}, {"time": 981, "pitch": 80, "duration": 16, "velocity": 83}, {"time": 999, "pitch": 78, "duration": 5, "velocity": 83}, {"time": 1005, "pitch": 76, "duration": 11, "velocity": 81}, {"time": 1017, "pitch": 83, "duration": 9, "velocity": 83}, {"time": 1029, "pitch": 75, "duration": 35, "velocity": 80}, {"time": 1065, "pitch": 73, "duration": 4, "velocity": 80}, {"time": 1071, "pitch": 75, "duration": 5, "velocity": 77}, {"time": 1077, "pitch": 73, "duration": 16, "velocity": 80}, {"time": 1095, "pitch": 75, "duration": 4, "velocity": 83}, {"time": 1101, "pitch": 73, "duration": 10, "velocity": 83}, {"time": 1113, "pitch": 71, "duration": 12, "velocity": 81}, {"time": 1125, "pitch": 80, "duration": 34, "velocity": 82}, {"time": 1161, "pitch": 83, "duration": 10, "velocity": 79}, {"time": 1173, "pitch": 80, "duration": 19, "velocity": 82}, {"time": 1191, "pitch": 78, "duration": 6, "velocity": 83}, {"time": 1197, "pitch": 76, "duration": 11, "velocity": 79}, {"time": 1209, "pitch": 83, "duration": 12, "velocity": 81}, {"time": 1221, "pitch": 75, "duration": 35, "velocity": 83}, {"time": 1257, "pitch": 73, "duration": 5, "velocity": 78}, {"time": 1263, "pitch": 75, "duration": 5, "velocity": 80}, {"time": 1269, "pitch": 76, "duration": 16, "velocity": 87}, {"time": 1287, "pitch": 76, "duration": 4, "velocity": 82}, {"time": 1293, "pitch": 76, "duration": 11, "velocity": 82}, {"time": 1305, "pitch": 80, "duration": 10, "velocity": 78}, {"time": 1317, "pitch": 78, "duration": 36, "velocity": 83}, {"time": 1359, "pitch": 71, "duration": 5, "velocity": 87}, {"time": 1365, "pitch": 76, "duration": 15, "velocity": 82}, {"time": 1383, "pitch": 80, "duration": 5, "velocity": 83}, {"time": 1389, "pitch": 83, "duration": 15, "velocity": 83}, {"time": 1407, "pitch": 76, "duration": 5, "velocity": 80}, {"time": 1413, "pitch": 75, "duration": 13, "velocity": 79}, {"time": 1431, "pitch": 80, "duration": 5, "velocity": 82}, {"time": 1437, "pitch": 83, "duration": 15, "velocity": 87}, {"time": 1455, "pitch": 83, "duration": 5, "velocity": 83}, {"time": 1461, "pitch": 85, "duration": 16, "velocity": 82}, {"time": 1479, "pitch": 87, "duration": 4, "velocity": 83}, {"time": 1485, "pitch": 88, "duration": 11, "velocity": 81}, {"time": 1497, "pitch": 85, "duration": 3, "velocity": 82}, {"time": 1500, "pitch": 83, "duration": 3, "velocity": 80}, {"time": 1503, "pitch": 85, "duration": 4, "velocity": 81}, {"time": 1509, "pitch": 83, "duration": 33, "velocity": 79}, {"time": 1545, "pitch": 80, "duration": 4, "velocity": 83}, {"time": 1551, "pitch": 78, "duration": 4, "velocity": 76}, {"time": 1557, "pitch": 76, "duration": 17, "velocity": 85}, {"time": 1575, "pitch": 75, "duration": 4, "velocity": 82}, {"time": 1581, "pitch": 76, "duration": 9, "velocity": 80}, {"time": 1593, "pitch": 80, "duration": 4, "velocity": 80}, {"time": 1599, "pitch": 78, "duration": 4, "velocity": 85}, {"time": 1605, "pitch": 76, "duration": 17, "velocity": 81}, {"time": 1623, "pitch": 75, "duration": 5, "velocity": 80}, {"time": 1629, "pitch": 76, "duration": 11, "velocity": 78}, {"time": 1641, "pitch": 78, "duration": 4, "velocity": 81}, {"time": 1647, "pitch": 80, "duration": 5, "velocity": 82}, {"time": 1653, "pitch": 78, "duration": 17, "velocity": 87}, {"time": 1671, "pitch": 73, "duration": 3, "velocity": 93}, {"time": 1677, "pitch": 75, "duration": 10, "velocity": 83}, {"time": 1689, "pitch": 78, "duration": 11, "velocity": 82}, {"time": 1701, "pitch": 76, "duration": 36, "velocity": 80}, {"time": 2121, "pitch": 83, "duration": 10, "velocity": 83}, {"time": 2133, "pitch": 80, "duration": 16, "velocity": 83}, {"time": 2151, "pitch": 78, "duration": 5, "velocity": 83}, {"time": 2157, "pitch": 76, "duration": 11, "velocity": 81}, {"time": 2169, "pitch": 83, "duration": 9, "velocity": 83}, {"time": 2181, "pitch": 75, "duration": 35, "velocity": 80}, {"time": 2217, "pitch": 73, "duration": 4, "velocity": 80}, {"time": 2223, "pitch": 75, "duration": 5, "velocity": 77}, {"time": 2229, "pitch": 73, "duration": 16, "velocity": 80}, {"time": 2247, "pitch": 75, "duration": 4, "velocity": 83}, {"time": 2253, "pitch": 73, "duration": 10, "velocity": 83}, {"time": 2265, "pitch": 71, "duration": 12, "velocity": 81}, {"time": 2277, "pitch": 80, "duration": 34, "velocity": 82}, {"time": 2313, "pitch": 83, "duration": 10, "velocity": 79}, {"time": 2325, "pitch": 80, "duration": 19, "velocity": 82}, {"time": 2343, "pitch": 78, "duration": 6, "velocity": 83}, {"time": 2349, "pitch": 76, "duration": 11, "velocity": 79}, {"time": 2361, "pitch": 83, "duration": 12, "velocity": 81}, {"time": 2373, "pitch": 75, "duration": 35, "velocity": 83}, {"time": 2409, "pitch": 73, "duration": 5, "velocity": 78}, {"time": 2415, "pitch": 75, "duration": 5, "velocity": 80}, {"time": 2421, "pitch": 76, "duration": 16, "velocity": 87}, {"time": 2439, "pitch": 76, "duration": 4, "velocity": 82}, {"time": 2445, "pitch": 76, "duration": 11, "velocity": 82}, {"time": 2457, "pitch": 80, "duration": 10, "velocity": 78}, {"time": 2469, "pitch": 78, "duration": 36, "velocity": 83}, {"time": 2511, "pitch": 71, "duration": 5, "velocity": 87}, {"time": 2517, "pitch": 76, "duration": 15, "velocity": 82}, {"time": 2535, "pitch": 80, "duration": 5, "velocity": 83}, {"time": 2541, "pitch": 83, "duration": 15, "velocity": 83}, {"time": 2559, "pitch": 76, "duration": 5, "velocity": 80}, {"time": 2565, "pitch": 75, "duration": 13, "velocity": 79}, {"time": 2583, "pitch": 80, "duration": 5, "velocity": 82}, {"time": 2589, "pitch": 83, "duration": 15, "velocity": 87}, {"time": 2607, "pitch": 83, "duration": 5, "velocity": 83}, {"time": 2613, "pitch": 85, "duration": 16, "velocity": 82}, {"time": 2631, "pitch": 87, "duration": 4, "velocity": 83}, {"time": 2637, "pitch": 88, "duration": 11, "velocity": 81}, {"time": 2649, "pitch": 85, "duration": 3, "velocity": 82}, {"time": 2652, "pitch": 83, "duration": 3, "velocity": 80}, {"time": 2655, "pitch": 85, "duration": 4, "velocity": 81}, {"time": 2661, "pitch": 83, "duration": 33, "velocity": 79}, {"time": 2697, "pitch": 80, "duration": 4, "velocity": 83}, {"time": 2703, "pitch": 78, "duration": 4, "velocity": 76}, {"time": 2709, "pitch": 76, "duration": 17, "velocity": 85}, {"time": 2727, "pitch": 75, "duration": 4, "velocity": 82}, {"time": 2733, "pitch": 76, "duration": 9, "velocity": 80}, {"time": 2745, "pitch": 80, "duration": 4, "velocity": 80}, {"time": 2751, "pitch": 78, "duration": 4, "velocity": 85}, {"time": 2757, "pitch": 76, "duration": 17, "velocity": 81}, {"time": 2775, "pitch": 75, "duration": 5, "velocity": 80}, {"time": 2781, "pitch": 76, "duration": 11, "velocity": 78}, {"time": 2793, "pitch": 78, "duration": 4, "velocity": 81}, {"time": 2799, "pitch": 80, "duration": 5, "velocity": 82}, {"time": 2805, "pitch": 78, "duration": 17, "velocity": 87}, {"time": 2823, "pitch": 73, "duration": 3, "velocity": 93}, {"time": 2829, "pitch": 75, "duration": 10, "velocity": 83}, {"time": 2841, "pitch": 78, "duration": 11, "velocity": 82}, {"time": 2853, "pitch": 76, "duration": 36, "velocity": 80}, {"time": 2889, "pitch": 80, "duration": 4, "velocity": 83}, {"time": 2895, "pitch": 78, "duration": 4, "velocity": 76}, {"time": 2901, "pitch": 76, "duration": 17, "velocity": 85}, {"time": 2919, "pitch": 75, "duration": 4, "velocity": 82}, {"time": 2925, "pitch": 76, "duration": 9, "velocity": 80}, {"time": 2937, "pitch": 80, "duration": 4, "velocity": 80}, {"time": 2943, "pitch": 78, "duration": 4, "velocity": 85}, {"time": 2949, "pitch": 76, "duration": 17, "velocity": 81}, {"time": 2967, "pitch": 75, "duration": 5, "velocity": 80}, {"time": 2973, "pitch": 76, "duration": 11, "velocity": 78}, {"time": 2985, "pitch": 78, "duration": 4, "velocity": 81}, {"time": 2991, "pitch": 80, "duration": 5, "velocity": 82}, {"time": 2997, "pitch": 78, "duration": 17, "velocity": 87}, {"time": 3015, "pitch": 73, "duration": 3, "velocity": 93}, {"time": 3021, "pitch": 75, "duration": 10, "velocity": 83}, {"time": 3033, "pitch": 78, "duration": 11, "velocity": 82}, {"time": 3045, "pitch": 76, "duration": 36, "velocity": 80}]}, {"program": 0, "is_drum": false, "name": "PIANO", "notes": [{"time": 21, "pitch": 40, "duration": 38, "velocity": 80}, {"time": 27, "pitch": 56, "duration": 8, "velocity": 77}, {"time": 33, "pitch": 59, "duration": 9, "velocity": 72}, {"time": 39, "pitch": 52, "duration": 7, "velocity": 67}, {"time": 45, "pitch": 56, "duration": 7, "velocity": 71}, {"time": 45, "pitch": 59, "duration": 8, "velocity": 72}, {"time": 45, "pitch": 64, "duration": 7, "velocity": 72}, {"time": 51, "pitch": 52, "duration": 5, "velocity": 57}, {"time": 57, "pitch": 56, "duration": 4, "velocity": 64}, {"time": 57, "pitch": 59, "duration": 4, "velocity": 70}, {"time": 69, "pitch": 37, "duration": 37, "velocity": 77}, {"time": 69, "pitch": 56, "duration": 12, "velocity": 71}, {"time": 75, "pitch": 44, "duration": 23, "velocity": 64}, {"time": 81, "pitch": 49, "duration": 7, "velocity": 76}, {"time": 87, "pitch": 56, "duration": 14, "velocity": 72}, {"time": 93, "pitch": 61, "duration": 10, "velocity": 71}, {"time": 99, "pitch": 49, "duration": 7, "velocity": 74}, {"time": 105, "pitch": 56, "duration": 3, "velocity": 72}, {"time": 105, "pitch": 61, "duration": 5, "velocity": 75}, {"time": 111, "pitch": 61, "duration": 2, "velocity": 61}, {"time": 117, "pitch": 45, "duration": 39, "velocity": 77}, {"time": 123, "pitch": 52, "duration": 31, "velocity": 74}, {"time": 129, "pitch": 61, "duration": 7, "velocity": 87}, {"time": 135, "pitch": 57, "duration": 6, "velocity": 77}, {"time": 141, "pitch": 61, "duration": 7, "velocity": 70}, {"time": 141, "pitch": 64, "duration": 9, "velocity": 76}, {"time": 147, "pitch": 57, "duration": 6, "velocity": 64}, {"time": 153, "pitch": 61, "duration": 11, "velocity": 66}, {"time": 153, "pitch": 64, "duration": 11, "velocity": 74}, {"time": 153, "pitch": 69, "duration": 19, "velocity": 70}, {"time": 159, "pitch": 57, "duration": 6, "velocity": 71}, {"time": 165, "pitch": 47, "duration": 40, "velocity": 77}, {"time": 171, "pitch": 59, "duration": 16, "velocity": 72}, {"time": 177, "pitch": 54, "duration": 15, "velocity": 71}, {"time": 183, "pitch": 63, "duration": 4, "velocity": 78}, {"time": 189, "pitch": 63, "duration": 24, "velocity": 77}, {"time": 189, "pitch": 66, "duration": 23, "velocity": 69}, {"time": 213, "pitch": 40, "duration": 38, "velocity": 77}, {"time": 219, "pitch": 47, "duration": 9, "velocity": 64}, {"time": 225, "pitch": 56, "duration": 21, "velocity": 77}, {"time": 231, "pitch": 47, "duration": 19, "velocity": 63}, {"time": 237, "pitch": 59, "duration": 9, "velocity": 70}, {"time": 243, "pitch": 52, "duration": 6, "velocity": 65}, {"time": 249, "pitch": 56, "duration": 1, "velocity": 68}, {"time": 249, "pitch": 59, "duration": 2, "velocity": 72}, {"time": 261, "pitch": 44, "duration": 43, "velocity": 76}, {"time": 261, "pitch": 56, "duration": 13, "velocity": 65}, {"time": 261, "pitch": 59, "duration": 8, "velocity": 76}, {"time": 267, "pitch": 51, "duration": 20, "velocity": 60}, {"time": 273, "pitch": 59, "duration": 8, "velocity": 71}, {"time": 279, "pitch": 56, "duration": 7, "velocity": 67}, {"time": 285, "pitch": 59, "duration": 7, "velocity": 72}, {"time": 285, "pitch": 63, "duration": 24, "velocity": 70}, {"time": 291, "pitch": 51, "duration": 13, "velocity": 59}, {"time": 297, "pitch": 59, "duration": 7, "velocity": 77}, {"time": 303, "pitch": 56, "duration": 2, "velocity": 69}, {"time": 309, "pitch": 45, "duration": 39, "velocity": 77}, {"time": 309, "pitch": 57, "duration": 13, "velocity": 69}, {"time": 309, "pitch": 61, "duration": 13, "velocity": 70}, {"time": 315, "pitch": 52, "duration": 20, "velocity": 70}, {"time": 321, "pitch": 64, "duration": 9, "velocity": 78}, {"time": 327, "pitch": 57, "duration": 8, "velocity": 64}, {"time": 333, "pitch": 61, "duration": 8, "velocity": 65}, {"time": 333, "pitch": 64, "duration": 9, "velocity": 76}, {"time": 339, "pitch": 52, "duration": 9, "velocity": 59}, {"time": 345, "pitch": 61, "duration": 6, "velocity": 71}, {"time": 345, "pitch": 64, "duration": 12, "velocity": 75}, {"time": 351, "pitch": 57, "duration": 2, "velocity": 70}, {"time": 357, "pitch": 40, "duration": 41, "velocity": 75}, {"time": 357, "pitch": 59, "duration": 7, "velocity": 66}, {"time": 357, "pitch": 64, "duration": 10, "velocity": 70}, {"time": 363, "pitch": 47, "duration": 35, "velocity": 63}, {"time": 369, "pitch": 59, "duration": 13, "velocity": 78}, {"time": 369, "pitch": 64, "duration": 1, "velocity": 54}, {"time": 375, "pitch": 64, "duration": 15, "velocity": 74}, {"time": 381, "pitch": 68, "duration": 9, "velocity": 74}, {"time": 387, "pitch": 59, "duration": 4, "velocity": 70}, {"time": 393, "pitch": 59, "duration": 4, "velocity": 72}, {"time": 393, "pitch": 64, "duration": 6, "velocity": 80}, {"time": 399, "pitch": 63, "duration": 4, "velocity": 78}, {"time": 405, "pitch": 49, "duration": 43, "velocity": 77}, {"time": 405, "pitch": 61, "duration": 5, "velocity": 67}, {"time": 405, "pitch": 64, "duration": 5, "velocity": 76}, {"time": 411, "pitch": 56, "duration": 9, "velocity": 64}, {"time": 417, "pitch": 61, "duration": 7, "velocity": 68}, {"time": 417, "pitch": 64, "duration": 6, "velocity": 77}, {"time": 423, "pitch": 56, "duration": 8, "velocity": 52}, {"time": 429, "pitch": 61, "duration": 7, "velocity": 74}, {"time": 429, "pitch": 64, "duration": 6, "velocity": 81}, {"time": 429, "pitch": 68, "duration": 6, "velocity": 73}, {"time": 435, "pitch": 56, "duration": 12, "velocity": 56}, {"time": 441, "pitch": 61, "duration": 3, "velocity": 72}, {"time": 441, "pitch": 64, "duration": 2, "velocity": 78}, {"time": 447, "pitch": 63, "duration": 6, "velocity": 68}, {"time": 453, "pitch": 45, "duration": 40, "velocity": 76}, {"time": 453, "pitch": 64, "duration": 12, "velocity": 74}, {"time": 459, "pitch": 52, "duration": 9, "velocity": 72}, {"time": 465, "pitch": 61, "duration": 9, "velocity": 80}, {"time": 471, "pitch": 52, "duration": 8, "velocity": 75}, {"time": 477, "pitch": 61, "duration": 7, "velocity": 76}, {"time": 477, "pitch": 64, "duration": 8, "velocity": 76}, {"time": 483, "pitch": 52, "duration": 10, "velocity": 71}, {"time": 489, "pitch": 57, "duration": 5, "velocity": 81}, {"time": 495, "pitch": 56, "duration": 6, "velocity": 78}, {"time": 501, "pitch": 42, "duration": 37, "velocity": 78}, {"time": 501, "pitch": 54, "duration": 4, "velocity": 70}, {"time": 507, "pitch": 49, "duration": 10, "velocity": 66}, {"time": 513, "pitch": 54, "duration": 3, "velocity": 70}, {"time": 513, "pitch": 58, "duration": 10, "velocity": 67}, {"time": 519, "pitch": 49, "duration": 9, "velocity": 62}, {"time": 525, "pitch": 58, "duration": 7, "velocity": 76}, {"time": 525, "pitch": 61, "duration": 8, "velocity": 78}, {"time": 531, "pitch": 49, "duration": 8, "velocity": 64}, {"time": 537, "pitch": 58, "duration": 6, "velocity": 76}, {"time": 537, "pitch": 61, "duration": 7, "velocity": 74}, {"time": 543, "pitch": 54, "duration": 1, "velocity": 70}, {"time": 549, "pitch": 47, "duration": 22, "velocity": 77}, {"time": 549, "pitch": 59, "duration": 22, "velocity": 77}, {"time": 555, "pitch": 54, "duration": 8, "velocity": 65}, {"time": 567, "pitch": 54, "duration": 4, "velocity": 78}, {"time": 573, "pitch": 47, "duration": 23, "velocity": 77}, {"time": 573, "pitch": 59, "duration": 8, "velocity": 72}, {"time": 573, "pitch": 63, "duration": 8, "velocity": 66}, {"time": 573, "pitch": 66, "duration": 6, "velocity": 66}, {"time": 579, "pitch": 54, "duration": 8, "velocity": 66}, {"time": 585, "pitch": 63, "duration": 11, "velocity": 73}, {"time": 585, "pitch": 66, "duration": 11, "velocity": 69}, {"time": 591, "pitch": 54, "duration": 5, "velocity": 66}, {"time": 597, "pitch": 40, "duration": 38, "velocity": 77}, {"time": 603, "pitch": 47, "duration": 9, "velocity": 64}, {"time": 609, "pitch": 56, "duration": 21, "velocity": 77}, {"time": 615, "pitch": 47, "duration": 19, "velocity": 63}, {"time": 621, "pitch": 59, "duration": 9, "velocity": 70}, {"time": 627, "pitch": 52, "duration": 6, "velocity": 65}, {"time": 633, "pitch": 56, "duration": 1, "velocity": 68}, {"time": 633, "pitch": 59, "duration": 2, "velocity": 72}, {"time": 645, "pitch": 44, "duration": 43, "velocity": 76}, {"time": 645, "pitch": 56, "duration": 13, "velocity": 65}, {"time": 645, "pitch": 59, "duration": 8, "velocity": 76}, {"time": 651, "pitch": 51, "duration": 20, "velocity": 60}, {"time": 657, "pitch": 59, "duration": 8, "velocity": 71}, {"time": 663, "pitch": 56, "duration": 7, "velocity": 67}, {"time": 669, "pitch": 59, "duration": 7, "velocity": 72}, {"time": 669, "pitch": 63, "duration": 24, "velocity": 70}, {"time": 675, "pitch": 51, "duration": 13, "velocity": 59}, {"time": 681, "pitch": 59, "duration": 7, "velocity": 77}, {"time": 687, "pitch": 56, "duration": 2, "velocity": 69}, {"time": 693, "pitch": 45, "duration": 39, "velocity": 77}, {"time": 693, "pitch": 57, "duration": 13, "velocity": 69}, {"time": 693, "pitch": 61, "duration": 13, "velocity": 70}, {"time": 699, "pitch": 52, "duration": 20, "velocity": 70}, {"time": 705, "pitch": 64, "duration": 9, "velocity": 78}, {"time": 711, "pitch": 57, "duration": 8, "velocity": 64}, {"time": 717, "pitch": 61, "duration": 8, "velocity": 65}, {"time": 717, "pitch": 64, "duration": 9, "velocity": 76}, {"time": 723, "pitch": 52, "duration": 9, "velocity": 59}, {"time": 729, "pitch": 61, "duration": 6, "velocity": 71}, {"time": 729, "pitch": 64, "duration": 12, "velocity": 75}, {"time": 735, "pitch": 57, "duration": 2, "velocity": 70}, {"time": 741, "pitch": 40, "duration": 41, "velocity": 75}, {"time": 741, "pitch": 59, "duration": 7, "velocity": 66}, {"time": 741, "pitch": 64, "duration": 10, "velocity": 70}, {"time": 747, "pitch": 47, "duration": 35, "velocity": 63}, {"time": 753, "pitch": 59, "duration": 13, "velocity": 78}, {"time": 753, "pitch": 64, "duration": 1, "velocity": 54}, {"time": 759, "pitch": 64, "duration": 15, "velocity": 74}, {"time": 765, "pitch": 68, "duration": 9, "velocity": 74}, {"time": 771, "pitch": 59, "duration": 4, "velocity": 70}, {"time": 777, "pitch": 59, "duration": 4, "velocity": 72}, {"time": 777, "pitch": 64, "duration": 6, "velocity": 80}, {"time": 783, "pitch": 63, "duration": 4, "velocity": 78}, {"time": 789, "pitch": 49, "duration": 43, "velocity": 77}, {"time": 789, "pitch": 61, "duration": 5, "velocity": 67}, {"time": 789, "pitch": 64, "duration": 5, "velocity": 76}, {"time": 795, "pitch": 56, "duration": 9, "velocity": 64}, {"time": 801, "pitch": 61, "duration": 7, "velocity": 68}, {"time": 801, "pitch": 64, "duration": 6, "velocity": 77}, {"time": 807, "pitch": 56, "duration": 8, "velocity": 52}, {"time": 813, "pitch": 61, "duration": 7, "velocity": 74}, {"time": 813, "pitch": 64, "duration": 6, "velocity": 81}, {"time": 813, "pitch": 68, "duration": 6, "velocity": 73}, {"time": 819, "pitch": 56, "duration": 12, "velocity": 56}, {"time": 825, "pitch": 61, "duration": 3, "velocity": 72}, {"time": 825, "pitch": 64, "duration": 2, "velocity": 78}, {"time": 831, "pitch": 63, "duration": 6, "velocity": 68}, {"time": 837, "pitch": 45, "duration": 40, "velocity": 76}, {"time": 837, "pitch": 64, "duration": 12, "velocity": 74}, {"time": 843, "pitch": 52, "duration": 9, "velocity": 72}, {"time": 849, "pitch": 61, "duration": 9, "velocity": 80}, {"time": 855, "pitch": 52, "duration": 8, "velocity": 75}, {"time": 861, "pitch": 61, "duration": 7, "velocity": 76}, {"time": 861, "pitch": 64, "duration": 8, "velocity": 76}, {"time": 867, "pitch": 52, "duration": 10, "velocity": 71}, {"time": 873, "pitch": 57, "duration": 5, "velocity": 81}, {"time": 879, "pitch": 56, "duration": 6, "velocity": 78}, {"time": 885, "pitch": 42, "duration": 15, "velocity": 77}, {"time": 885, "pitch": 54, "duration": 11, "velocity": 73}, {"time": 885, "pitch": 61, "duration": 7, "velocity": 72}, {"time": 891, "pitch": 49, "duration": 9, "velocity": 69}, {"time": 897, "pitch": 54, "duration": 1, "velocity": 51}, {"time": 897, "pitch": 58, "duration": 6, "velocity": 62}, {"time": 897, "pitch": 61, "duration": 6, "velocity": 71}, {"time": 897, "pitch": 66, "duration": 16, "velocity": 72}, {"time": 903, "pitch": 54, "duration": 5, "velocity": 81}, {"time": 909, "pitch": 47, "duration": 16, "velocity": 78}, {"time": 915, "pitch": 54, "duration": 8, "velocity": 71}, {"time": 921, "pitch": 59, "duration": 4, "velocity": 69}, {"time": 921, "pitch": 63, "duration": 7, "velocity": 77}, {"time": 921, "pitch": 66, "duration": 10, "velocity": 76}, {"time": 927, "pitch": 59, "duration": 5, "velocity": 76}, {"time": 933, "pitch": 40, "duration": 21, "velocity": 79}, {"time": 933, "pitch": 59, "duration": 4, "velocity": 75}, {"time": 933, "pitch": 64, "duration": 9, "velocity": 77}, {"time": 939, "pitch": 47, "duration": 15, "velocity": 72}, {"time": 945, "pitch": 64, "duration": 7, "velocity": 78}, {"time": 945, "pitch": 68, "duration": 7, "velocity": 78}, {"time": 951, "pitch": 59, "duration": 7, "velocity": 80}, {"time": 957, "pitch": 40, "duration": 24, "velocity": 78}, {"time": 957, "pitch": 64, "duration": 7, "velocity": 81}, {"time": 957, "pitch": 68, "duration": 9, "velocity": 82}, {"time": 963, "pitch": 47, "duration": 18, "velocity": 70}, {"time": 969, "pitch": 59, "duration": 7, "velocity": 79}, {"time": 969, "pitch": 64, "duration": 7, "velocity": 80}, {"time": 975, "pitch": 66, "duration": 5, "velocity": 78}, {"time": 981, "pitch": 40, "duration": 1, "velocity": 78}, {"time": 981, "pitch": 52, "duration": 12, "velocity": 76}, {"time": 981, "pitch": 59, "duration": 10, "velocity": 73}, {"time": 987, "pitch": 47, "duration": 8, "velocity": 63}, {"time": 993, "pitch": 56, "duration": 6, "velocity": 90}, {"time": 999, "pitch": 47, "duration": 5, "velocity": 68}, {"time": 1005, "pitch": 40, "duration": 14, "velocity": 78}, {"time": 1005, "pitch": 52, "duration": 4, "velocity": 68}, {"time": 1005, "pitch": 56, "duration": 7, "velocity": 71}, {"time": 1005, "pitch": 59, "duration": 7, "velocity": 74}, {"time": 1011, "pitch": 47, "duration": 7, "velocity": 63}, {"time": 1017, "pitch": 56, "duration": 6, "velocity": 78}, {"time": 1017, "pitch": 59, "duration": 6, "velocity": 74}, {"time": 1017, "pitch": 64, "duration": 7, "velocity": 78}, {"time": 1023, "pitch": 52, "duration": 1, "velocity": 78}, {"time": 1029, "pitch": 44, "duration": 14, "velocity": 81}, {"time": 1029, "pitch": 56, "duration": 11, "velocity": 65}, {"time": 1029, "pitch": 59, "duration": 7, "velocity": 76}, {"time": 1035, "pitch": 51, "duration": 8, "velocity": 63}, {"time": 1041, "pitch": 56, "duration": 1, "velocity": 61}, {"time": 1041, "pitch": 59, "duration": 11, "velocity": 83}, {"time": 1041, "pitch": 63, "duration": 11, "velocity": 79}, {"time": 1047, "pitch": 51, "duration": 6, "velocity": 70}, {"time": 1053, "pitch": 44, "duration": 14, "velocity": 80}, {"time": 1053, "pitch": 56, "duration": 9, "velocity": 70}, {"time": 1053, "pitch": 59, "duration": 8, "velocity": 78}, {"time": 1053, "pitch": 63, "duration": 6, "velocity": 72}, {"time": 1059, "pitch": 51, "duration": 7, "velocity": 73}, {"time": 1065, "pitch": 56, "duration": 4, "velocity": 75}, {"time": 1065, "pitch": 59, "duration": 3, "velocity": 77}, {"time": 1071, "pitch": 44, "duration": 2, "velocity": 69}, {"time": 1077, "pitch": 42, "duration": 12, "velocity": 76}, {"time": 1077, "pitch": 57, "duration": 9, "velocity": 67}, {"time": 1077, "pitch": 61, "duration": 8, "velocity": 72}, {"time": 1083, "pitch": 49, "duration": 7, "velocity": 64}, {"time": 1089, "pitch": 61, "duration": 6, "velocity": 82}, {"time": 1089, "pitch": 66, "duration": 9, "velocity": 77}, {"time": 1095, "pitch": 57, "duration": 2, "velocity": 77}, {"time": 1101, "pitch": 47, "duration": 14, "velocity": 78}, {"time": 1101, "pitch": 59, "duration": 9, "velocity": 76}, {"time": 1101, "pitch": 63, "duration": 7, "velocity": 70}, {"time": 1107, "pitch": 54, "duration": 7, "velocity": 71}, {"time": 1113, "pitch": 63, "duration": 6, "velocity": 82}, {"time": 1113, "pitch": 66, "duration": 7, "velocity": 77}, {"time": 1119, "pitch": 59, "duration": 4, "velocity": 78}, {"time": 1125, "pitch": 40, "duration": 22, "velocity": 79}, {"time": 1125, "pitch": 59, "duration": 4, "velocity": 78}, {"time": 1125, "pitch": 64, "duration": 8, "velocity": 80}, {"time": 1131, "pitch": 47, "duration": 15, "velocity": 76}, {"time": 1137, "pitch": 59, "duration": 2, "velocity": 80}, {"time": 1137, "pitch": 64, "duration": 6, "velocity": 87}, {"time": 1143, "pitch": 59, "duration": 8, "velocity": 78}, {"time": 1149, "pitch": 40, "duration": 18, "velocity": 78}, {"time": 1149, "pitch": 64, "duration": 6, "velocity": 79}, {"time": 1149, "pitch": 68, "duration": 6, "velocity": 80}, {"time": 1155, "pitch": 47, "duration": 8, "velocity": 72}, {"time": 1155, "pitch": 59, "duration": 7, "velocity": 70}, {"time": 1161, "pitch": 64, "duration": 7, "velocity": 80}, {"time": 1161, "pitch": 71, "duration": 7, "velocity": 77}, {"time": 1167, "pitch": 59, "duration": 3, "velocity": 78}, {"time": 1173, "pitch": 40, "duration": 22, "velocity": 80}, {"time": 1173, "pitch": 59, "duration": 4, "velocity": 77}, {"time": 1173, "pitch": 64, "duration": 7, "velocity": 77}, {"time": 1179, "pitch": 47, "duration": 16, "velocity": 67}, {"time": 1185, "pitch": 59, "duration": 1, "velocity": 70}, {"time": 1185, "pitch": 64, "duration": 6, "velocity": 77}, {"time": 1191, "pitch": 59, "duration": 8, "velocity": 76}, {"time": 1197, "pitch": 40, "duration": 13, "velocity": 79}, {"time": 1197, "pitch": 64, "duration": 7, "velocity": 77}, {"time": 1197, "pitch": 68, "duration": 7, "velocity": 76}, {"time": 1203, "pitch": 59, "duration": 7, "velocity": 77}, {"time": 1209, "pitch": 64, "duration": 4, "velocity": 82}, {"time": 1209, "pitch": 68, "duration": 4, "velocity": 81}, {"time": 1221, "pitch": 44, "duration": 21, "velocity": 81}, {"time": 1221, "pitch": 56, "duration": 10, "velocity": 67}, {"time": 1221, "pitch": 59, "duration": 8, "velocity": 76}, {"time": 1221, "pitch": 63, "duration": 7, "velocity": 65}, {"time": 1227, "pitch": 51, "duration": 16, "velocity": 72}, {"time": 1233, "pitch": 59, "duration": 6, "velocity": 80}, {"time": 1239, "pitch": 56, "duration": 7, "velocity": 77}, {"time": 1245, "pitch": 44, "duration": 14, "velocity": 80}, {"time": 1245, "pitch": 59, "duration": 8, "velocity": 77}, {"time": 1245, "pitch": 63, "duration": 7, "velocity": 71}, {"time": 1251, "pitch": 51, "duration": 10, "velocity": 67}, {"time": 1257, "pitch": 56, "duration": 5, "velocity": 77}, {"time": 1257, "pitch": 59, "duration": 4, "velocity": 81}, {"time": 1257, "pitch": 63, "duration": 4, "velocity": 75}, {"time": 1263, "pitch": 44, "duration": 3, "velocity": 82}, {"time": 1269, "pitch": 42, "duration": 19, "velocity": 78}, {"time": 1269, "pitch": 54, "duration": 12, "velocity": 72}, {"time": 1269, "pitch": 58, "duration": 9, "velocity": 65}, {"time": 1275, "pitch": 49, "duration": 13, "velocity": 71}, {"time": 1281, "pitch": 58, "duration": 8, "velocity": 76}, {"time": 1281, "pitch": 64, "duration": 8, "velocity": 78}, {"time": 1287, "pitch": 54, "duration": 8, "velocity": 76}, {"time": 1293, "pitch": 42, "duration": 14, "velocity": 78}, {"time": 1293, "pitch": 58, "duration": 9, "velocity": 65}, {"time": 1293, "pitch": 64, "duration": 8, "velocity": 78}, {"time": 1299, "pitch": 49, "duration": 10, "velocity": 64}, {"time": 1305, "pitch": 54, "duration": 5, "velocity": 77}, {"time": 1305, "pitch": 58, "duration": 11, "velocity": 78}, {"time": 1305, "pitch": 64, "duration": 13, "velocity": 79}, {"time": 1311, "pitch": 42, "duration": 2, "velocity": 78}, {"time": 1317, "pitch": 47, "duration": 18, "velocity": 81}, {"time": 1323, "pitch": 59, "duration": 8, "velocity": 78}, {"time": 1329, "pitch": 63, "duration": 9, "velocity": 85}, {"time": 1335, "pitch": 54, "duration": 5, "velocity": 77}, {"time": 1341, "pitch": 47, "duration": 21, "velocity": 78}, {"time": 1341, "pitch": 59, "duration": 14, "velocity": 67}, {"time": 1341, "pitch": 63, "duration": 23, "velocity": 73}, {"time": 1341, "pitch": 66, "duration": 23, "velocity": 69}, {"time": 1341, "pitch": 71, "duration": 24, "velocity": 77}, {"time": 1353, "pitch": 54, "duration": 9, "velocity": 70}, {"time": 1359, "pitch": 59, "duration": 5, "velocity": 46}, {"time": 1365, "pitch": 40, "duration": 38, "velocity": 77}, {"time": 1371, "pitch": 47, "duration": 9, "velocity": 64}, {"time": 1377, "pitch": 56, "duration": 21, "velocity": 77}, {"time": 1383, "pitch": 47, "duration": 19, "velocity": 63}, {"time": 1389, "pitch": 59, "duration": 9, "velocity": 70}, {"time": 1395, "pitch": 52, "duration": 6, "velocity": 65}, {"time": 1401, "pitch": 56, "duration": 1, "velocity": 68}, {"time": 1401, "pitch": 59, "duration": 2, "velocity": 72}, {"time": 1413, "pitch": 44, "duration": 43, "velocity": 76}, {"time": 1413, "pitch": 56, "duration": 13, "velocity": 65}, {"time": 1413, "pitch": 59, "duration": 8, "velocity": 76}, {"time": 1419, "pitch": 51, "duration": 20, "velocity": 60}, {"time": 1425, "pitch": 59, "duration": 8, "velocity": 71}, {"time": 1431, "pitch": 56, "duration": 7, "velocity": 67}, {"time": 1437, "pitch": 59, "duration": 7, "velocity": 72}, {"time": 1437, "pitch": 63, "duration": 24, "velocity": 70}, {"time": 1443, "pitch": 51, "duration": 13, "velocity": 59}, {"time": 1449, "pitch": 59, "duration": 7, "velocity": 77}, {"time": 1455, "pitch": 56, "duration": 2, "velocity": 69}, {"time": 1461, "pitch": 45, "duration": 39, "velocity": 77}, {"time": 1461, "pitch": 57, "duration": 13, "velocity": 69}, {"time": 1461, "pitch": 61, "duration": 13, "velocity": 70}, {"time": 1467, "pitch": 52, "duration": 20, "velocity": 70}, {"time": 1473, "pitch": 64, "duration": 9, "velocity": 78}, {"time": 1479, "pitch": 57, "duration": 8, "velocity": 64}, {"time": 1485, "pitch": 61, "duration": 8, "velocity": 65}, {"time": 1485, "pitch": 64, "duration": 9, "velocity": 76}, {"time": 1491, "pitch": 52, "duration": 9, "velocity": 59}, {"time": 1497, "pitch": 61, "duration": 6, "velocity": 71}, {"time": 1497, "pitch": 64, "duration": 12, "velocity": 75}, {"time": 1503, "pitch": 57, "duration": 2, "velocity": 70}, {"time": 1509, "pitch": 40, "duration": 41, "velocity": 75}, {"time": 1509, "pitch": 59, "duration": 7, "velocity": 66}, {"time": 1509, "pitch": 64, "duration": 10, "velocity": 70}, {"time": 1515, "pitch": 47, "duration": 35, "velocity": 63}, {"time": 1521, "pitch": 59, "duration": 13, "velocity": 78}, {"time": 1521, "pitch": 64, "duration": 1, "velocity": 54}, {"time": 1527, "pitch": 64, "duration": 15, "velocity": 74}, {"time": 1533, "pitch": 68, "duration": 9, "velocity": 74}, {"time": 1539, "pitch": 59, "duration": 4, "velocity": 70}, {"time": 1545, "pitch": 59, "duration": 4, "velocity": 72}, {"time": 1545, "pitch": 64, "duration": 6, "velocity": 80}, {"time": 1551, "pitch": 63, "duration": 4, "velocity": 78}, {"time": 1557, "pitch": 49, "duration": 43, "velocity": 77}, {"time": 1557, "pitch": 61, "duration": 5, "velocity": 67}, {"time": 1557, "pitch": 64, "duration": 5, "velocity": 76}, {"time": 1563, "pitch": 56, "duration": 9, "velocity": 64}, {"time": 1569, "pitch": 61, "duration": 7, "velocity": 68}, {"time": 1569, "pitch": 64, "duration": 6, "velocity": 77}, {"time": 1575, "pitch": 56, "duration": 8, "velocity": 52}, {"time": 1581, "pitch": 61, "duration": 7, "velocity": 74}, {"time": 1581, "pitch": 64, "duration": 6, "velocity": 81}, {"time": 1581, "pitch": 68, "duration": 6, "velocity": 73}, {"time": 1587, "pitch": 56, "duration": 12, "velocity": 56}, {"time": 1593, "pitch": 61, "duration": 3, "velocity": 72}, {"time": 1593, "pitch": 64, "duration": 2, "velocity": 78}, {"time": 1599, "pitch": 63, "duration": 6, "velocity": 68}, {"time": 1605, "pitch": 45, "duration": 40, "velocity": 76}, {"time": 1605, "pitch": 64, "duration": 12, "velocity": 74}, {"time": 1611, "pitch": 52, "duration": 9, "velocity": 72}, {"time": 1617, "pitch": 61, "duration": 9, "velocity": 80}, {"time": 1623, "pitch": 52, "duration": 8, "velocity": 75}, {"time": 1629, "pitch": 61, "duration": 7, "velocity": 76}, {"time": 1629, "pitch": 64, "duration": 8, "velocity": 76}, {"time": 1635, "pitch": 52, "duration": 10, "velocity": 71}, {"time": 1641, "pitch": 57, "duration": 5, "velocity": 81}, {"time": 1647, "pitch": 56, "duration": 6, "velocity": 78}, {"time": 1653, "pitch": 42, "duration": 15, "velocity": 77}, {"time": 1653, "pitch": 54, "duration": 11, "velocity": 73}, {"time": 1653, "pitch": 61, "duration": 7, "velocity": 72}, {"time": 1659, "pitch": 49, "duration": 9, "velocity": 69}, {"time": 1665, "pitch": 54, "duration": 1, "velocity": 51}, {"time": 1665, "pitch": 58, "duration": 6, "velocity": 62}, {"time": 1665, "pitch": 61, "duration": 6, "velocity": 71}, {"time": 1665, "pitch": 66, "duration": 16, "velocity": 72}, {"time": 1671, "pitch": 54, "duration": 5, "velocity": 81}, {"time": 1677, "pitch": 47, "duration": 16, "velocity": 78}, {"time": 1683, "pitch": 54, "duration": 8, "velocity": 71}, {"time": 1689, "pitch": 59, "duration": 4, "velocity": 69}, {"time": 1689, "pitch": 63, "duration": 7, "velocity": 77}, {"time": 1689, "pitch": 66, "duration": 10, "velocity": 76}, {"time": 1695, "pitch": 59, "duration": 5, "velocity": 76}, {"time": 1701, "pitch": 40, "duration": 14, "velocity": 81}, {"time": 1701, "pitch": 52, "duration": 11, "velocity": 76}, {"time": 1701, "pitch": 56, "duration": 7, "velocity": 73}, {"time": 1701, "pitch": 59, "duration": 8, "velocity": 75}, {"time": 1707, "pitch": 47, "duration": 7, "velocity": 77}, {"time": 1713, "pitch": 56, "duration": 5, "velocity": 82}, {"time": 1713, "pitch": 59, "duration": 5, "velocity": 79}, {"time": 1713, "pitch": 64, "duration": 7, "velocity": 78}, {"time": 1719, "pitch": 52, "duration": 1, "velocity": 81}, {"time": 1725, "pitch": 47, "duration": 14, "velocity": 80}, {"time": 1725, "pitch": 59, "duration": 10, "velocity": 77}, {"time": 1725, "pitch": 63, "duration": 8, "velocity": 72}, {"time": 1731, "pitch": 54, "duration": 7, "velocity": 63}, {"time": 1737, "pitch": 59, "duration": 8, "velocity": 72}, {"time": 1737, "pitch": 63, "duration": 8, "velocity": 66}, {"time": 1737, "pitch": 66, "duration": 8, "velocity": 70}, {"time": 1737, "pitch": 71, "duration": 8, "velocity": 62}, {"time": 1749, "pitch": 40, "duration": 38, "velocity": 77}, {"time": 1755, "pitch": 47, "duration": 9, "velocity": 64}, {"time": 1761, "pitch": 56, "duration": 21, "velocity": 77}, {"time": 1767, "pitch": 47, "duration": 19, "velocity": 63}, {"time": 1773, "pitch": 59, "duration": 9, "velocity": 70}, {"time": 1779, "pitch": 52, "duration": 6, "velocity": 65}, {"time": 1785, "pitch": 56, "duration": 1, "velocity": 68}, {"time": 1785, "pitch": 59, "duration": 2, "velocity": 72}, {"time": 1797, "pitch": 44, "duration": 43, "velocity": 76}, {"time": 1797, "pitch": 56, "duration": 13, "velocity": 65}, {"time": 1797, "pitch": 59, "duration": 8, "velocity": 76}, {"time": 1803, "pitch": 51, "duration": 20, "velocity": 60}, {"time": 1809, "pitch": 59, "duration": 8, "velocity": 71}, {"time": 1815, "pitch": 56, "duration": 7, "velocity": 67}, {"time": 1821, "pitch": 59, "duration": 7, "velocity": 72}, {"time": 1821, "pitch": 63, "duration": 24, "velocity": 70}, {"time": 1827, "pitch": 51, "duration": 13, "velocity": 59}, {"time": 1833, "pitch": 59, "duration": 7, "velocity": 77}, {"time": 1839, "pitch": 56, "duration": 2, "velocity": 69}, {"time": 1845, "pitch": 45, "duration": 39, "velocity": 77}, {"time": 1845, "pitch": 57, "duration": 13, "velocity": 69}, {"time": 1845, "pitch": 61, "duration": 13, "velocity": 70}, {"time": 1851, "pitch": 52, "duration": 20, "velocity": 70}, {"time": 1857, "pitch": 64, "duration": 9, "velocity": 78}, {"time": 1863, "pitch": 57, "duration": 8, "velocity": 64}, {"time": 1869, "pitch": 61, "duration": 8, "velocity": 65}, {"time": 1869, "pitch": 64, "duration": 9, "velocity": 76}, {"time": 1875, "pitch": 52, "duration": 9, "velocity": 59}, {"time": 1881, "pitch": 61, "duration": 6, "velocity": 71}, {"time": 1881, "pitch": 64, "duration": 12, "velocity": 75}, {"time": 1887, "pitch": 57, "duration": 2, "velocity": 70}, {"time": 1893, "pitch": 40, "duration": 41, "velocity": 75}, {"time": 1893, "pitch": 59, "duration": 7, "velocity": 66}, {"time": 1893, "pitch": 64, "duration": 10, "velocity": 70}, {"time": 1899, "pitch": 47, "duration": 35, "velocity": 63}, {"time": 1905, "pitch": 59, "duration": 13, "velocity": 78}, {"time": 1905, "pitch": 64, "duration": 1, "velocity": 54}, {"time": 1911, "pitch": 64, "duration": 15, "velocity": 74}, {"time": 1917, "pitch": 68, "duration": 9, "velocity": 74}, {"time": 1923, "pitch": 59, "duration": 4, "velocity": 70}, {"time": 1929, "pitch": 59, "duration": 4, "velocity": 72}, {"time": 1929, "pitch": 64, "duration": 6, "velocity": 80}, {"time": 1935, "pitch": 63, "duration": 4, "velocity": 78}, {"time": 1941, "pitch": 49, "duration": 43, "velocity": 77}, {"time": 1941, "pitch": 61, "duration": 5, "velocity": 67}, {"time": 1941, "pitch": 64, "duration": 5, "velocity": 76}, {"time": 1947, "pitch": 56, "duration": 9, "velocity": 64}, {"time": 1953, "pitch": 61, "duration": 7, "velocity": 68}, {"time": 1953, "pitch": 64, "duration": 6, "velocity": 77}, {"time": 1959, "pitch": 56, "duration": 8, "velocity": 52}, {"time": 1965, "pitch": 61, "duration": 7, "velocity": 74}, {"time": 1965, "pitch": 64, "duration": 6, "velocity": 81}, {"time": 1965, "pitch": 68, "duration": 6, "velocity": 73}, {"time": 1971, "pitch": 56, "duration": 12, "velocity": 56}, {"time": 1977, "pitch": 61, "duration": 3, "velocity": 72}, {"time": 1977, "pitch": 64, "duration": 2, "velocity": 78}, {"time": 1983, "pitch": 63, "duration": 6, "velocity": 68}, {"time": 1989, "pitch": 45, "duration": 40, "velocity": 76}, {"time": 1989, "pitch": 64, "duration": 12, "velocity": 74}, {"time": 1995, "pitch": 52, "duration": 9, "velocity": 72}, {"time": 2001, "pitch": 61, "duration": 9, "velocity": 80}, {"time": 2007, "pitch": 52, "duration": 8, "velocity": 75}, {"time": 2013, "pitch": 61, "duration": 7, "velocity": 76}, {"time": 2013, "pitch": 64, "duration": 8, "velocity": 76}, {"time": 2019, "pitch": 52, "duration": 10, "velocity": 71}, {"time": 2025, "pitch": 57, "duration": 5, "velocity": 81}, {"time": 2031, "pitch": 56, "duration": 6, "velocity": 78}, {"time": 2037, "pitch": 42, "duration": 15, "velocity": 77}, {"time": 2037, "pitch": 54, "duration": 11, "velocity": 73}, {"time": 2037, "pitch": 61, "duration": 7, "velocity": 72}, {"time": 2043, "pitch": 49, "duration": 9, "velocity": 69}, {"time": 2049, "pitch": 54, "duration": 1, "velocity": 51}, {"time": 2049, "pitch": 58, "duration": 6, "velocity": 62}, {"time": 2049, "pitch": 61, "duration": 6, "velocity": 71}, {"time": 2049, "pitch": 66, "duration": 16, "velocity": 72}, {"time": 2055, "pitch": 54, "duration": 5, "velocity": 81}, {"time": 2061, "pitch": 47, "duration": 16, "velocity": 78}, {"time": 2067, "pitch": 54, "duration": 8, "velocity": 71}, {"time": 2073, "pitch": 59, "duration": 4, "velocity": 69}, {"time": 2073, "pitch": 63, "duration": 7, "velocity": 77}, {"time": 2073, "pitch": 66, "duration": 10, "velocity": 76}, {"time": 2079, "pitch": 59, "duration": 5, "velocity": 76}, {"time": 2085, "pitch": 40, "duration": 21, "velocity": 79}, {"time": 2085, "pitch": 59, "duration": 4, "velocity": 75}, {"time": 2085, "pitch": 64, "duration": 9, "velocity": 77}, {"time": 2091, "pitch": 47, "duration": 15, "velocity": 72}, {"time": 2097, "pitch": 64, "duration": 7, "velocity": 78}, {"time": 2097, "pitch": 68, "duration": 7, "velocity": 78}, {"time": 2103, "pitch": 59, "duration": 7, "velocity": 80}, {"time": 2109, "pitch": 40, "duration": 24, "velocity": 78}, {"time": 2109, "pitch": 64, "duration": 7, "velocity": 81}, {"time": 2109, "pitch": 68, "duration": 9, "velocity": 82}, {"time": 2115, "pitch": 47, "duration": 18, "velocity": 70}, {"time": 2121, "pitch": 59, "duration": 7, "velocity": 79}, {"time": 2121, "pitch": 64, "duration": 7, "velocity": 80}, {"time": 2127, "pitch": 66, "duration": 5, "velocity": 78}, {"time": 2133, "pitch": 40, "duration": 1, "velocity": 78}, {"time": 2133, "pitch": 52, "duration": 12, "velocity": 76}, {"time": 2133, "pitch": 59, "duration": 10, "velocity": 73}, {"time": 2139, "pitch": 47, "duration": 8, "velocity": 63}, {"time": 2145, "pitch": 56, "duration": 6, "velocity": 90}, {"time": 2151, "pitch": 47, "duration": 5, "velocity": 68}, {"time": 2157, "pitch": 40, "duration": 14, "velocity": 78}, {"time": 2157, "pitch": 52, "duration": 4, "velocity": 68}, {"time": 2157, "pitch": 56, "duration": 7, "velocity": 71}, {"time": 2157, "pitch": 59, "duration": 7, "velocity": 74}, {"time": 2163, "pitch": 47, "duration": 7, "velocity": 63}, {"time": 2169, "pitch": 56, "duration": 6, "velocity": 78}, {"time": 2169, "pitch": 59, "duration": 6, "velocity": 74}, {"time": 2169, "pitch": 64, "duration": 7, "velocity": 78}, {"time": 2175, "pitch": 52, "duration": 1, "velocity": 78}, {"time": 2181, "pitch": 44, "duration": 14, "velocity": 81}, {"time": 2181, "pitch": 56, "duration": 11, "velocity": 65}, {"time": 2181, "pitch": 59, "duration": 7, "velocity": 76}, {"time": 2187, "pitch": 51, "duration": 8, "velocity": 63}, {"time": 2193, "pitch": 56, "duration": 1, "velocity": 61}, {"time": 2193, "pitch": 59, "duration": 11, "velocity": 83}, {"time": 2193, "pitch": 63, "duration": 11, "velocity": 79}, {"time": 2199, "pitch": 51, "duration": 6, "velocity": 70}, {"time": 2205, "pitch": 44, "duration": 14, "velocity": 80}, {"time": 2205, "pitch": 56, "duration": 9, "velocity": 70}, {"time": 2205, "pitch": 59, "duration": 8, "velocity": 78}, {"time": 2205, "pitch": 63, "duration": 6, "velocity": 72}, {"time": 2211, "pitch": 51, "duration": 7, "velocity": 73}, {"time": 2217, "pitch": 56, "duration": 4, "velocity": 75}, {"time": 2217, "pitch": 59, "duration": 3, "velocity": 77}, {"time": 2223, "pitch": 44, "duration": 2, "velocity": 69}, {"time": 2229, "pitch": 42, "duration": 12, "velocity": 76}, {"time": 2229, "pitch": 57, "duration": 9, "velocity": 67}, {"time": 2229, "pitch": 61, "duration": 8, "velocity": 72}, {"time": 2235, "pitch": 49, "duration": 7, "velocity": 64}, {"time": 2241, "pitch": 61, "duration": 6, "velocity": 82}, {"time": 2241, "pitch": 66, "duration": 9, "velocity": 77}, {"time": 2247, "pitch": 57, "duration": 2, "velocity": 77}, {"time": 2253, "pitch": 47, "duration": 14, "velocity": 78}, {"time": 2253, "pitch": 59, "duration": 9, "velocity": 76}, {"time": 2253, "pitch": 63, "duration": 7, "velocity": 70}, {"time": 2259, "pitch": 54, "duration": 7, "velocity": 71}, {"time": 2265, "pitch": 63, "duration": 6, "velocity": 82}, {"time": 2265, "pitch": 66, "duration": 7, "velocity": 77}, {"time": 2271, "pitch": 59, "duration": 4, "velocity": 78}, {"time": 2277, "pitch": 40, "duration": 22, "velocity": 79}, {"time": 2277, "pitch": 59, "duration": 4, "velocity": 78}, {"time": 2277, "pitch": 64, "duration": 8, "velocity": 80}, {"time": 2283, "pitch": 47, "duration": 15, "velocity": 76}, {"time": 2289, "pitch": 59, "duration": 2, "velocity": 80}, {"time": 2289, "pitch": 64, "duration": 6, "velocity": 87}, {"time": 2295, "pitch": 59, "duration": 8, "velocity": 78}, {"time": 2301, "pitch": 40, "duration": 18, "velocity": 78}, {"time": 2301, "pitch": 64, "duration": 6, "velocity": 79}, {"time": 2301, "pitch": 68, "duration": 6, "velocity": 80}, {"time": 2307, "pitch": 47, "duration": 8, "velocity": 72}, {"time": 2307, "pitch": 59, "duration": 7, "velocity": 70}, {"time": 2313, "pitch": 64, "duration": 7, "velocity": 80}, {"time": 2313, "pitch": 71, "duration": 7, "velocity": 77}, {"time": 2319, "pitch": 59, "duration": 3, "velocity": 78}, {"time": 2325, "pitch": 40, "duration": 22, "velocity": 80}, {"time": 2325, "pitch": 59, "duration": 4, "velocity": 77}, {"time": 2325, "pitch": 64, "duration": 7, "velocity": 77}, {"time": 2331, "pitch": 47, "duration": 16, "velocity": 67}, {"time": 2337, "pitch": 59, "duration": 1, "velocity": 70}, {"time": 2337, "pitch": 64, "duration": 6, "velocity": 77}, {"time": 2343, "pitch": 59, "duration": 8, "velocity": 76}, {"time": 2349, "pitch": 40, "duration": 13, "velocity": 79}, {"time": 2349, "pitch": 64, "duration": 7, "velocity": 77}, {"time": 2349, "pitch": 68, "duration": 7, "velocity": 76}, {"time": 2355, "pitch": 59, "duration": 7, "velocity": 77}, {"time": 2361, "pitch": 64, "duration": 4, "velocity": 82}, {"time": 2361, "pitch": 68, "duration": 4, "velocity": 81}, {"time": 2373, "pitch": 44, "duration": 21, "velocity": 81}, {"time": 2373, "pitch": 56, "duration": 10, "velocity": 67}, {"time": 2373, "pitch": 59, "duration": 8, "velocity": 76}, {"time": 2373, "pitch": 63, "duration": 7, "velocity": 65}, {"time": 2379, "pitch": 51, "duration": 16, "velocity": 72}, {"time": 2385, "pitch": 59, "duration": 6, "velocity": 80}, {"time": 2391, "pitch": 56, "duration": 7, "velocity": 77}, {"time": 2397, "pitch": 44, "duration": 14, "velocity": 80}, {"time": 2397, "pitch": 59, "duration": 8, "velocity": 77}, {"time": 2397, "pitch": 63, "duration": 7, "velocity": 71}, {"time": 2403, "pitch": 51, "duration": 10, "velocity": 67}, {"time": 2409, "pitch": 56, "duration": 5, "velocity": 77}, {"time": 2409, "pitch": 59, "duration": 4, "velocity": 81}, {"time": 2409, "pitch": 63, "duration": 4, "velocity": 75}, {"time": 2415, "pitch": 44, "duration": 3, "velocity": 82}, {"time": 2421, "pitch": 42, "duration": 19, "velocity": 78}, {"time": 2421, "pitch": 54, "duration": 12, "velocity": 72}, {"time": 2421, "pitch": 58, "duration": 9, "velocity": 65}, {"time": 2427, "pitch": 49, "duration": 13, "velocity": 71}, {"time": 2433, "pitch": 58, "duration": 8, "velocity": 76}, {"time": 2433, "pitch": 64, "duration": 8, "velocity": 78}, {"time": 2439, "pitch": 54, "duration": 8, "velocity": 76}, {"time": 2445, "pitch": 42, "duration": 14, "velocity": 78}, {"time": 2445, "pitch": 58, "duration": 9, "velocity": 65}, {"time": 2445, "pitch": 64, "duration": 8, "velocity": 78}, {"time": 2451, "pitch": 49, "duration": 10, "velocity": 64}, {"time": 2457, "pitch": 54, "duration": 5, "velocity": 77}, {"time": 2457, "pitch": 58, "duration": 11, "velocity": 78}, {"time": 2457, "pitch": 64, "duration": 13, "velocity": 79}, {"time": 2463, "pitch": 42, "duration": 2, "velocity": 78}, {"time": 2469, "pitch": 47, "duration": 18, "velocity": 81}, {"time": 2475, "pitch": 59, "duration": 8, "velocity": 78}, {"time": 2481, "pitch": 63, "duration": 9, "velocity": 85}, {"time": 2487, "pitch": 54, "duration": 5, "velocity": 77}, {"time": 2493, "pitch": 47, "duration": 21, "velocity": 78}, {"time": 2493, "pitch": 59, "duration": 14, "velocity": 67}, {"time": 2493, "pitch": 63, "duration": 23, "velocity": 73}, {"time": 2493, "pitch": 66, "duration": 23, "velocity": 69}, {"time": 2493, "pitch": 71, "duration": 24, "velocity": 77}, {"time": 2505, "pitch": 54, "duration": 9, "velocity": 70}, {"time": 2511, "pitch": 59, "duration": 5, "velocity": 46}, {"time": 2517, "pitch": 40, "duration": 38, "velocity": 77}, {"time": 2523, "pitch": 47, "duration": 9, "velocity": 64}, {"time": 2529, "pitch": 56, "duration": 21, "velocity": 77}, {"time": 2535, "pitch": 47, "duration": 19, "velocity": 63}, {"time": 2541, "pitch": 59, "duration": 9, "velocity": 70}, {"time": 2547, "pitch": 52, "duration": 6, "velocity": 65}, {"time": 2553, "pitch": 56, "duration": 1, "velocity": 68}, {"time": 2553, "pitch": 59, "duration": 2, "velocity": 72}, {"time": 2565, "pitch": 44, "duration": 43, "velocity": 76}, {"time": 2565, "pitch": 56, "duration": 13, "velocity": 65}, {"time": 2565, "pitch": 59, "duration": 8, "velocity": 76}, {"time": 2571, "pitch": 51, "duration": 20, "velocity": 60}, {"time": 2577, "pitch": 59, "duration": 8, "velocity": 71}, {"time": 2583, "pitch": 56, "duration": 7, "velocity": 67}, {"time": 2589, "pitch": 59, "duration": 7, "velocity": 72}, {"time": 2589, "pitch": 63, "duration": 24, "velocity": 70}, {"time": 2595, "pitch": 51, "duration": 13, "velocity": 59}, {"time": 2601, "pitch": 59, "duration": 7, "velocity": 77}, {"time": 2607, "pitch": 56, "duration": 2, "velocity": 69}, {"time": 2613, "pitch": 45, "duration": 39, "velocity": 77}, {"time": 2613, "pitch": 57, "duration": 13, "velocity": 69}, {"time": 2613, "pitch": 61, "duration": 13, "velocity": 70}, {"time": 2619, "pitch": 52, "duration": 20, "velocity": 70}, {"time": 2625, "pitch": 64, "duration": 9, "velocity": 78}, {"time": 2631, "pitch": 57, "duration": 8, "velocity": 64}, {"time": 2637, "pitch": 61, "duration": 8, "velocity": 65}, {"time": 2637, "pitch": 64, "duration": 9, "velocity": 76}, {"time": 2643, "pitch": 52, "duration": 9, "velocity": 59}, {"time": 2649, "pitch": 61, "duration": 6, "velocity": 71}, {"time": 2649, "pitch": 64, "duration": 12, "velocity": 75}, {"time": 2655, "pitch": 57, "duration": 2, "velocity": 70}, {"time": 2661, "pitch": 40, "duration": 41, "velocity": 75}, {"time": 2661, "pitch": 59, "duration": 7, "velocity": 66}, {"time": 2661, "pitch": 64, "duration": 10, "velocity": 70}, {"time": 2667, "pitch": 47, "duration": 35, "velocity": 63}, {"time": 2673, "pitch": 59, "duration": 13, "velocity": 78}, {"time": 2673, "pitch": 64, "duration": 1, "velocity": 54}, {"time": 2679, "pitch": 64, "duration": 15, "velocity": 74}, {"time": 2685, "pitch": 68, "duration": 9, "velocity": 74}, {"time": 2691, "pitch": 59, "duration": 4, "velocity": 70}, {"time": 2697, "pitch": 59, "duration": 4, "velocity": 72}, {"time": 2697, "pitch": 64, "duration": 6, "velocity": 80}, {"time": 2703, "pitch": 63, "duration": 4, "velocity": 78}, {"time": 2709, "pitch": 49, "duration": 43, "velocity": 77}, {"time": 2709, "pitch": 61, "duration": 5, "velocity": 67}, {"time": 2709, "pitch": 64, "duration": 5, "velocity": 76}, {"time": 2715, "pitch": 56, "duration": 9, "velocity": 64}, {"time": 2721, "pitch": 61, "duration": 7, "velocity": 68}, {"time": 2721, "pitch": 64, "duration": 6, "velocity": 77}, {"time": 2727, "pitch": 56, "duration": 8, "velocity": 52}, {"time": 2733, "pitch": 61, "duration": 7, "velocity": 74}, {"time": 2733, "pitch": 64, "duration": 6, "velocity": 81}, {"time": 2733, "pitch": 68, "duration": 6, "velocity": 73}, {"time": 2739, "pitch": 56, "duration": 12, "velocity": 56}, {"time": 2745, "pitch": 61, "duration": 3, "velocity": 72}, {"time": 2745, "pitch": 64, "duration": 2, "velocity": 78}, {"time": 2751, "pitch": 63, "duration": 6, "velocity": 68}, {"time": 2757, "pitch": 45, "duration": 40, "velocity": 76}, {"time": 2757, "pitch": 64, "duration": 12, "velocity": 74}, {"time": 2763, "pitch": 52, "duration": 9, "velocity": 72}, {"time": 2769, "pitch": 61, "duration": 9, "velocity": 80}, {"time": 2775, "pitch": 52, "duration": 8, "velocity": 75}, {"time": 2781, "pitch": 61, "duration": 7, "velocity": 76}, {"time": 2781, "pitch": 64, "duration": 8, "velocity": 76}, {"time": 2787, "pitch": 52, "duration": 10, "velocity": 71}, {"time": 2793, "pitch": 57, "duration": 5, "velocity": 81}, {"time": 2799, "pitch": 56, "duration": 6, "velocity": 78}, {"time": 2805, "pitch": 42, "duration": 15, "velocity": 77}, {"time": 2805, "pitch": 54, "duration": 11, "velocity": 73}, {"time": 2805, "pitch": 61, "duration": 7, "velocity": 72}, {"time": 2811, "pitch": 49, "duration": 9, "velocity": 69}, {"time": 2817, "pitch": 54, "duration": 1, "velocity": 51}, {"time": 2817, "pitch": 58, "duration": 6, "velocity": 62}, {"time": 2817, "pitch": 61, "duration": 6, "velocity": 71}, {"time": 2817, "pitch": 66, "duration": 16, "velocity": 72}, {"time": 2823, "pitch": 54, "duration": 5, "velocity": 81}, {"time": 2829, "pitch": 47, "duration": 16, "velocity": 78}, {"time": 2835, "pitch": 54, "duration": 8, "velocity": 71}, {"time": 2841, "pitch": 59, "duration": 4, "velocity": 69}, {"time": 2841, "pitch": 63, "duration": 7, "velocity": 77}, {"time": 2841, "pitch": 66, "duration": 10, "velocity": 76}, {"time": 2847, "pitch": 59, "duration": 5, "velocity": 76}, {"time": 2853, "pitch": 40, "duration": 14, "velocity": 81}, {"time": 2853, "pitch": 52, "duration": 11, "velocity": 76}, {"time": 2853, "pitch": 56, "duration": 7, "velocity": 73}, {"time": 2853, "pitch": 59, "duration": 8, "velocity": 75}, {"time": 2859, "pitch": 47, "duration": 7, "velocity": 77}, {"time": 2865, "pitch": 56, "duration": 5, "velocity": 82}, {"time": 2865, "pitch": 59, "duration": 5, "velocity": 79}, {"time": 2865, "pitch": 64, "duration": 7, "velocity": 78}, {"time": 2871, "pitch": 52, "duration": 1, "velocity": 81}, {"time": 2877, "pitch": 47, "duration": 14, "velocity": 80}, {"time": 2877, "pitch": 59, "duration": 10, "velocity": 77}, {"time": 2877, "pitch": 63, "duration": 8, "velocity": 72}, {"time": 2883, "pitch": 54, "duration": 7, "velocity": 63}, {"time": 2889, "pitch": 59, "duration": 8, "velocity": 72}, {"time": 2889, "pitch": 63, "duration": 8, "velocity": 66}, {"time": 2889, "pitch": 66, "duration": 8, "velocity": 70}, {"time": 2889, "pitch": 71, "duration": 8, "velocity": 62}, {"time": 2901, "pitch": 49, "duration": 43, "velocity": 77}, {"time": 2901, "pitch": 61, "duration": 5, "velocity": 67}, {"time": 2901, "pitch": 64, "duration": 5, "velocity": 76}, {"time": 2907, "pitch": 56, "duration": 9, "velocity": 64}, {"time": 2913, "pitch": 61, "duration": 7, "velocity": 68}, {"time": 2913, "pitch": 64, "duration": 6, "velocity": 77}, {"time": 2919, "pitch": 56, "duration": 8, "velocity": 52}, {"time": 2925, "pitch": 61, "duration": 7, "velocity": 74}, {"time": 2925, "pitch": 64, "duration": 6, "velocity": 81}, {"time": 2925, "pitch": 68, "duration": 6, "velocity": 73}, {"time": 2931, "pitch": 56, "duration": 12, "velocity": 56}, {"time": 2937, "pitch": 61, "duration": 3, "velocity": 72}, {"time": 2937, "pitch": 64, "duration": 2, "velocity": 78}, {"time": 2943, "pitch": 63, "duration": 6, "velocity": 68}, {"time": 2949, "pitch": 45, "duration": 40, "velocity": 76}, {"time": 2949, "pitch": 64, "duration": 12, "velocity": 74}, {"time": 2955, "pitch": 52, "duration": 9, "velocity": 72}, {"time": 2961, "pitch": 61, "duration": 9, "velocity": 80}, {"time": 2967, "pitch": 52, "duration": 8, "velocity": 75}, {"time": 2973, "pitch": 61, "duration": 7, "velocity": 76}, {"time": 2973, "pitch": 64, "duration": 8, "velocity": 76}, {"time": 2979, "pitch": 52, "duration": 10, "velocity": 71}, {"time": 2985, "pitch": 57, "duration": 5, "velocity": 81}, {"time": 2991, "pitch": 56, "duration": 6, "velocity": 78}, {"time": 2997, "pitch": 42, "duration": 15, "velocity": 77}, {"time": 2997, "pitch": 54, "duration": 11, "velocity": 73}, {"time": 2997, "pitch": 61, "duration": 7, "velocity": 72}, {"time": 3003, "pitch": 49, "duration": 9, "velocity": 69}, {"time": 3009, "pitch": 54, "duration": 1, "velocity": 51}, {"time": 3009, "pitch": 58, "duration": 6, "velocity": 62}, {"time": 3009, "pitch": 61, "duration": 6, "velocity": 71}, {"time": 3009, "pitch": 66, "duration": 16, "velocity": 72}, {"time": 3015, "pitch": 54, "duration": 5, "velocity": 81}, {"time": 3021, "pitch": 47, "duration": 16, "velocity": 78}, {"time": 3027, "pitch": 54, "duration": 8, "velocity": 71}, {"time": 3033, "pitch": 59, "duration": 4, "velocity": 69}, {"time": 3033, "pitch": 63, "duration": 7, "velocity": 77}, {"time": 3033, "pitch": 66, "duration": 10, "velocity": 76}, {"time": 3039, "pitch": 59, "duration": 5, "velocity": 76}, {"time": 3044, "pitch": 40, "duration": 14, "velocity": 81}, {"time": 3050, "pitch": 47, "duration": 8, "velocity": 77}, {"time": 3056, "pitch": 56, "duration": 12, "velocity": 80}, {"time": 3056, "pitch": 64, "duration": 14, "velocity": 77}, {"time": 3056, "pitch": 59, "duration": 12, "velocity": 72}, {"time": 3062, "pitch": 52, "duration": 6, "velocity": 85}, {"time": 3068, "pitch": 49, "duration": 15, "velocity": 81}, {"time": 3074, "pitch": 56, "duration": 9, "velocity": 72}, {"time": 3080, "pitch": 68, "duration": 13, "velocity": 72}, {"time": 3080, "pitch": 61, "duration": 4, "velocity": 75}, {"time": 3080, "pitch": 64, "duration": 11, "velocity": 80}, {"time": 3087, "pitch": 61, "duration": 5, "velocity": 76}, {"time": 3092, "pitch": 45, "duration": 20, "velocity": 77}, {"time": 3099, "pitch": 52, "duration": 14, "velocity": 77}, {"time": 3105, "pitch": 61, "duration": 7, "velocity": 76}, {"time": 3105, "pitch": 57, "duration": 8, "velocity": 67}, {"time": 3105, "pitch": 64, "duration": 8, "velocity": 76}, {"time": 3117, "pitch": 57, "duration": 11, "velocity": 65}, {"time": 3118, "pitch": 60, "duration": 10, "velocity": 67}, {"time": 3118, "pitch": 45, "duration": 24, "velocity": 77}, {"time": 3119, "pitch": 64, "duration": 10, "velocity": 74}, {"time": 3125, "pitch": 52, "duration": 16, "velocity": 71}, {"time": 3131, "pitch": 57, "duration": 25, "velocity": 57}, {"time": 3132, "pitch": 60, "duration": 24, "velocity": 73}, {"time": 3133, "pitch": 64, "duration": 23, "velocity": 65}, {"time": 3133, "pitch": 69, "duration": 22, "velocity": 69}, {"time": 3156, "pitch": 40, "duration": 58, "velocity": 82}, {"time": 3160, "pitch": 47, "duration": 53, "velocity": 69}, {"time": 3164, "pitch": 52, "duration": 2, "velocity": 77}, {"time": 3167, "pitch": 56, "duration": 1, "velocity": 75}, {"time": 3170, "pitch": 59, "duration": 9, "velocity": 71}, {"time": 3174, "pitch": 64, "duration": 6, "velocity": 74}, {"time": 3178, "pitch": 68, "duration": 3, "velocity": 62}, {"time": 3183, "pitch": 71, "duration": 3, "velocity": 73}, {"time": 3199, "pitch": 71, "duration": 3, "velocity": 60}, {"time": 3200, "pitch": 76, "duration": 2, "velocity": 64}, {"time": 3202, "pitch": 80, "duration": 1, "velocity": 65}], "annotations": [{"time": 20, "annotation": {"number": 64, "value": 127}, "group": "control_change"}, {"time": 67, "annotation": {"number": 64, "value": 0}, "group": "control_change"}, {"time": 69, "annotation": {"number": 64, "value": 127}, "group": "control_change"}, {"time": 92, "annotation": {"number": 64, "value": 0}, "group": "control_change"}, {"time": 92, "annotation": {"number": 64, "value": 127}, "group": "control_change"}, {"time": 115, "annotation": {"number": 64, "value": 0}, "group": "control_change"}, {"time": 119, "annotation": {"number": 64, "value": 127}, "group": "control_change"}, {"time": 162, "annotation": {"number": 64, "value": 0}, "group": "control_change"}, {"time": 165, "annotation": {"number": 64, "value": 127}, "group": "control_change"}, {"time": 209, "annotation": {"number": 64, "value": 0}, "group": "control_change"}, {"time": 216, "annotation": {"number": 64, "value": 127}, "group": "control_change"}, {"time": 260, "annotation": {"number": 64, "value": 0}, "group": "control_change"}, {"time": 267, "annotation": {"number": 64, "value": 127}, "group": "control_change"}, {"time": 296, "annotation": {"number": 64, "value": 0}, "group": "control_change"}, {"time": 300, "annotation": {"number": 64, "value": 127}, "group": "control_change"}, {"time": 309, "annotation": {"number": 64, "value": 0}, "group": "control_change"}, {"time": 316, "annotation": {"number": 64, "value": 127}, "group": "control_change"}, {"time": 356, "annotation": {"number": 64, "value": 0}, "group": "control_change"}, {"time": 362, "annotation": {"number": 64, "value": 127}, "group": "control_change"}, {"time": 403, "annotation": {"number": 64, "value": 0}, "group": "control_change"}, {"time": 407, "annotation": {"number": 64, "value": 127}, "group": "control_change"}, {"time": 407, "annotation": {"number": 64, "value": 0}, "group": "control_change"}, {"time": 452, "annotation": {"number": 64, "value": 0}, "group": "control_change"}, {"time": 455, "annotation": {"number": 64, "value": 127}, "group": "control_change"}, {"time": 498, "annotation": {"number": 64, "value": 0}, "group": "control_change"}, {"time": 501, "annotation": {"number": 64, "value": 127}, "group": "control_change"}, {"time": 548, "annotation": {"number": 64, "value": 0}, "group": "control_change"}, {"time": 554, "annotation": {"number": 64, "value": 127}, "group": "control_change"}, {"time": 594, "annotation": {"number": 64, "value": 0}, "group": "control_change"}, {"time": 600, "annotation": {"number": 64, "value": 127}, "group": "control_change"}, {"time": 644, "annotation": {"number": 64, "value": 0}, "group": "control_change"}, {"time": 651, "annotation": {"number": 64, "value": 127}, "group": "control_change"}, {"time": 680, "annotation": {"number": 64, "value": 0}, "group": "control_change"}, {"time": 684, "annotation": {"number": 64, "value": 127}, "group": "control_change"}, {"time": 693, "annotation": {"number": 64, "value": 0}, "group": "control_change"}, {"time": 700, "annotation": {"number": 64, "value": 127}, "group": "control_change"}, {"time": 740, "annotation": {"number": 64, "value": 0}, "group": "control_change"}, {"time": 746, "annotation": {"number": 64, "value": 127}, "group": "control_change"}, {"time": 787, "annotation": {"number": 64, "value": 0}, "group": "control_change"}, {"time": 791, "annotation": {"number": 64, "value": 127}, "group": "control_change"}, {"time": 791, "annotation": {"number": 64, "value": 0}, "group": "control_change"}, {"time": 836, "annotation": {"number": 64, "value": 0}, "group": "control_change"}, {"time": 839, "annotation": {"number": 64, "value": 127}, "group": "control_change"}, {"time": 882, "annotation": {"number": 64, "value": 0}, "group": "control_change"}, {"time": 885, "annotation": {"number": 64, "value": 127}, "group": "control_change"}, {"time": 907, "annotation": {"number": 64, "value": 0}, "group": "control_change"}, {"time": 911, "annotation": {"number": 64, "value": 127}, "group": "control_change"}, {"time": 930, "annotation": {"number": 64, "value": 0}, "group": "control_change"}, {"time": 933, "annotation": {"number": 64, "value": 127}, "group": "control_change"}, {"time": 955, "annotation": {"number": 64, "value": 0}, "group": "control_change"}, {"time": 957, "annotation": {"number": 64, "value": 127}, "group": "control_change"}, {"time": 978, "annotation": {"number": 64, "value": 0}, "group": "control_change"}, {"time": 983, "annotation": {"number": 64, "value": 127}, "group": "control_change"}, {"time": 983, "annotation": {"number": 64, "value": 0}, "group": "control_change"}, {"time": 984, "annotation": {"number": 64, "value": 127}, "group": "control_change"}, {"time": 1028, "annotation": {"number": 64, "value": 0}, "group": "control_change"}, {"time": 1034, "annotation": {"number": 64, "value": 127}, "group": "control_change"}, {"time": 1051, "annotation": {"number": 64, "value": 0}, "group": "control_change"}, {"time": 1054, "annotation": {"number": 64, "value": 127}, "group": "control_change"}, {"time": 1075, "annotation": {"number": 64, "value": 0}, "group": "control_change"}, {"time": 1078, "annotation": {"number": 64, "value": 127}, "group": "control_change"}, {"time": 1100, "annotation": {"number": 64, "value": 0}, "group": "control_change"}, {"time": 1104, "annotation": {"number": 64, "value": 127}, "group": "control_change"}, {"time": 1123, "annotation": {"number": 64, "value": 0}, "group": "control_change"}, {"time": 1126, "annotation": {"number": 64, "value": 127}, "group": "control_change"}, {"time": 1147, "annotation": {"number": 64, "value": 0}, "group": "control_change"}, {"time": 1149, "annotation": {"number": 64, "value": 127}, "group": "control_change"}, {"time": 1171, "annotation": {"number": 64, "value": 0}, "group": "control_change"}, {"time": 1174, "annotation": {"number": 64, "value": 127}, "group": "control_change"}, {"time": 1221, "annotation": {"number": 64, "value": 0}, "group": "control_change"}, {"time": 1227, "annotation": {"number": 64, "value": 127}, "group": "control_change"}, {"time": 1245, "annotation": {"number": 64, "value": 0}, "group": "control_change"}, {"time": 1248, "annotation": {"number": 64, "value": 127}, "group": "control_change"}, {"time": 1267, "annotation": {"number": 64, "value": 0}, "group": "control_change"}, {"time": 1270, "annotation": {"number": 64, "value": 127}, "group": "control_change"}, {"time": 1291, "annotation": {"number": 64, "value": 0}, "group": "control_change"}, {"time": 1294, "annotation": {"number": 64, "value": 127}, "group": "control_change"}, {"time": 1314, "annotation": {"number": 64, "value": 0}, "group": "control_change"}, {"time": 1318, "annotation": {"number": 64, "value": 127}, "group": "control_change"}, {"time": 1339, "annotation": {"number": 64, "value": 0}, "group": "control_change"}, {"time": 1341, "annotation": {"number": 64, "value": 127}, "group": "control_change"}, {"time": 1363, "annotation": {"number": 64, "value": 0}, "group": "control_change"}, {"time": 1368, "annotation": {"number": 64, "value": 127}, "group": "control_change"}, {"time": 1412, "annotation": {"number": 64, "value": 0}, "group": "control_change"}, {"time": 1419, "annotation": {"number": 64, "value": 127}, "group": "control_change"}, {"time": 1448, "annotation": {"number": 64, "value": 0}, "group": "control_change"}, {"time": 1452, "annotation": {"number": 64, "value": 127}, "group": "control_change"}, {"time": 1461, "annotation": {"number": 64, "value": 0}, "group": "control_change"}, {"time": 1468, "annotation": {"number": 64, "value": 127}, "group": "control_change"}, {"time": 1508, "annotation": {"number": 64, "value": 0}, "group": "control_change"}, {"time": 1514, "annotation": {"number": 64, "value": 127}, "group": "control_change"}, {"time": 1555, "annotation": {"number": 64, "value": 0}, "group": "control_change"}, {"time": 1559, "annotation": {"number": 64, "value": 127}, "group": "control_change"}, {"time": 1559, "annotation": {"number": 64, "value": 0}, "group": "control_change"}, {"time": 1604, "annotation": {"number": 64, "value": 0}, "group": "control_change"}, {"time": 1607, "annotation": {"number": 64, "value": 127}, "group": "control_change"}, {"time": 1650, "annotation": {"number": 64, "value": 0}, "group": "control_change"}, {"time": 1653, "annotation": {"number": 64, "value": 127}, "group": "control_change"}, {"time": 1675, "annotation": {"number": 64, "value": 0}, "group": "control_change"}, {"time": 1679, "annotation": {"number": 64, "value": 127}, "group": "control_change"}, {"time": 1698, "annotation": {"number": 64, "value": 0}, "group": "control_change"}, {"time": 1700, "annotation": {"number": 64, "value": 127}, "group": "control_change"}, {"time": 1700, "annotation": {"number": 64, "value": 0}, "group": "control_change"}, {"time": 1723, "annotation": {"number": 64, "value": 0}, "group": "control_change"}, {"time": 1728, "annotation": {"number": 64, "value": 127}, "group": "control_change"}, {"time": 1745, "annotation": {"number": 64, "value": 0}, "group": "control_change"}, {"time": 1752, "annotation": {"number": 64, "value": 127}, "group": "control_change"}, {"time": 1796, "annotation": {"number": 64, "value": 0}, "group": "control_change"}, {"time": 1803, "annotation": {"number": 64, "value": 127}, "group": "control_change"}, {"time": 1832, "annotation": {"number": 64, "value": 0}, "group": "control_change"}, {"time": 1836, "annotation": {"number": 64, "value": 127}, "group": "control_change"}, {"time": 1845, "annotation": {"number": 64, "value": 0}, "group": "control_change"}, {"time": 1852, "annotation": {"number": 64, "value": 127}, "group": "control_change"}, {"time": 1892, "annotation": {"number": 64, "value": 0}, "group": "control_change"}, {"time": 1898, "annotation": {"number": 64, "value": 127}, "group": "control_change"}, {"time": 1939, "annotation": {"number": 64, "value": 0}, "group": "control_change"}, {"time": 1943, "annotation": {"number": 64, "value": 127}, "group": "control_change"}, {"time": 1943, "annotation": {"number": 64, "value": 0}, "group": "control_change"}, {"time": 1988, "annotation": {"number": 64, "value": 0}, "group": "control_change"}, {"time": 1991, "annotation": {"number": 64, "value": 127}, "group": "control_change"}, {"time": 2034, "annotation": {"number": 64, "value": 0}, "group": "control_change"}, {"time": 2037, "annotation": {"number": 64, "value": 127}, "group": "control_change"}, {"time": 2059, "annotation": {"number": 64, "value": 0}, "group": "control_change"}, {"time": 2063, "annotation": {"number": 64, "value": 127}, "group": "control_change"}, {"time": 2082, "annotation": {"number": 64, "value": 0}, "group": "control_change"}, {"time": 2085, "annotation": {"number": 64, "value": 127}, "group": "control_change"}, {"time": 2107, "annotation": {"number": 64, "value": 0}, "group": "control_change"}, {"time": 2109, "annotation": {"number": 64, "value": 127}, "group": "control_change"}, {"time": 2130, "annotation": {"number": 64, "value": 0}, "group": "control_change"}, {"time": 2135, "annotation": {"number": 64, "value": 127}, "group": "control_change"}, {"time": 2135, "annotation": {"number": 64, "value": 0}, "group": "control_change"}, {"time": 2136, "annotation": {"number": 64, "value": 127}, "group": "control_change"}, {"time": 2180, "annotation": {"number": 64, "value": 0}, "group": "control_change"}, {"time": 2186, "annotation": {"number": 64, "value": 127}, "group": "control_change"}, {"time": 2203, "annotation": {"number": 64, "value": 0}, "group": "control_change"}, {"time": 2206, "annotation": {"number": 64, "value": 127}, "group": "control_change"}, {"time": 2227, "annotation": {"number": 64, "value": 0}, "group": "control_change"}, {"time": 2230, "annotation": {"number": 64, "value": 127}, "group": "control_change"}, {"time": 2252, "annotation": {"number": 64, "value": 0}, "group": "control_change"}, {"time": 2256, "annotation": {"number": 64, "value": 127}, "group": "control_change"}, {"time": 2275, "annotation": {"number": 64, "value": 0}, "group": "control_change"}, {"time": 2278, "annotation": {"number": 64, "value": 127}, "group": "control_change"}, {"time": 2299, "annotation": {"number": 64, "value": 0}, "group": "control_change"}, {"time": 2301, "annotation": {"number": 64, "value": 127}, "group": "control_change"}, {"time": 2323, "annotation": {"number": 64, "value": 0}, "group": "control_change"}, {"time": 2326, "annotation": {"number": 64, "value": 127}, "group": "control_change"}, {"time": 2373, "annotation": {"number": 64, "value": 0}, "group": "control_change"}, {"time": 2379, "annotation": {"number": 64, "value": 127}, "group": "control_change"}, {"time": 2397, "annotation": {"number": 64, "value": 0}, "group": "control_change"}, {"time": 2400, "annotation": {"number": 64, "value": 127}, "group": "control_change"}, {"time": 2419, "annotation": {"number": 64, "value": 0}, "group": "control_change"}, {"time": 2422, "annotation": {"number": 64, "value": 127}, "group": "control_change"}, {"time": 2443, "annotation": {"number": 64, "value": 0}, "group": "control_change"}, {"time": 2446, "annotation": {"number": 64, "value": 127}, "group": "control_change"}, {"time": 2466, "annotation": {"number": 64, "value": 0}, "group": "control_change"}, {"time": 2470, "annotation": {"number": 64, "value": 127}, "group": "control_change"}, {"time": 2491, "annotation": {"number": 64, "value": 0}, "group": "control_change"}, {"time": 2493, "annotation": {"number": 64, "value": 127}, "group": "control_change"}, {"time": 2515, "annotation": {"number": 64, "value": 0}, "group": "control_change"}, {"time": 2520, "annotation": {"number": 64, "value": 127}, "group": "control_change"}, {"time": 2564, "annotation": {"number": 64, "value": 0}, "group": "control_change"}, {"time": 2571, "annotation": {"number": 64, "value": 127}, "group": "control_change"}, {"time": 2600, "annotation": {"number": 64, "value": 0}, "group": "control_change"}, {"time": 2604, "annotation": {"number": 64, "value": 127}, "group": "control_change"}, {"time": 2613, "annotation": {"number": 64, "value": 0}, "group": "control_change"}, {"time": 2620, "annotation": {"number": 64, "value": 127}, "group": "control_change"}, {"time": 2660, "annotation": {"number": 64, "value": 0}, "group": "control_change"}, {"time": 2666, "annotation": {"number": 64, "value": 127}, "group": "control_change"}, {"time": 2707, "annotation": {"number": 64, "value": 0}, "group": "control_change"}, {"time": 2711, "annotation": {"number": 64, "value": 127}, "group": "control_change"}, {"time": 2711, "annotation": {"number": 64, "value": 0}, "group": "control_change"}, {"time": 2756, "annotation": {"number": 64, "value": 0}, "group": "control_change"}, {"time": 2759, "annotation": {"number": 64, "value": 127}, "group": "control_change"}, {"time": 2802, "annotation": {"number": 64, "value": 0}, "group": "control_change"}, {"time": 2805, "annotation": {"number": 64, "value": 127}, "group": "control_change"}, {"time": 2827, "annotation": {"number": 64, "value": 0}, "group": "control_change"}, {"time": 2831, "annotation": {"number": 64, "value": 127}, "group": "control_change"}, {"time": 2850, "annotation": {"number": 64, "value": 0}, "group": "control_change"}, {"time": 2852, "annotation": {"number": 64, "value": 127}, "group": "control_change"}, {"time": 2852, "annotation": {"number": 64, "value": 0}, "group": "control_change"}, {"time": 2875, "annotation": {"number": 64, "value": 0}, "group": "control_change"}, {"time": 2880, "annotation": {"number": 64, "value": 127}, "group": "control_change"}, {"time": 2897, "annotation": {"number": 64, "value": 0}, "group": "control_change"}, {"time": 2903, "annotation": {"number": 64, "value": 127}, "group": "control_change"}, {"time": 2903, "annotation": {"number": 64, "value": 0}, "group": "control_change"}, {"time": 2948, "annotation": {"number": 64, "value": 0}, "group": "control_change"}, {"time": 2951, "annotation": {"number": 64, "value": 127}, "group": "control_change"}, {"time": 2994, "annotation": {"number": 64, "value": 0}, "group": "control_change"}, {"time": 2997, "annotation": {"number": 64, "value": 127}, "group": "control_change"}, {"time": 3019, "annotation": {"number": 64, "value": 0}, "group": "control_change"}, {"time": 3023, "annotation": {"number": 64, "value": 127}, "group": "control_change"}, {"time": 3042, "annotation": {"number": 64, "value": 0}, "group": "control_change"}, {"time": 3044, "annotation": {"number": 64, "value": 127}, "group": "control_change"}, {"time": 3044, "annotation": {"number": 64, "value": 0}, "group": "control_change"}, {"time": 3045, "annotation": {"number": 64, "value": 127}, "group": "control_change"}, {"time": 3045, "annotation": {"number": 64, "value": 0}, "group": "control_change"}, {"time": 3067, "annotation": {"number": 64, "value": 0}, "group": "control_change"}, {"time": 3071, "annotation": {"number": 64, "value": 127}, "group": "control_change"}, {"time": 3090, "annotation": {"number": 64, "value": 0}, "group": "control_change"}, {"time": 3093, "annotation": {"number": 64, "value": 127}, "group": "control_change"}, {"time": 3116, "annotation": {"number": 64, "value": 0}, "group": "control_change"}, {"time": 3120, "annotation": {"number": 64, "value": 127}, "group": "control_change"}, {"time": 3157, "annotation": {"number": 64, "value": 0}, "group": "control_change"}, {"time": 3160, "annotation": {"number": 64, "value": 127}, "group": "control_change"}]}]}