{"metadata": {"schema_version": "0.2", "title": "None", "source_filename": "527.mid", "source_format": "midi"}, "resolution": 12, "tempos": [{"time": 0, "qpm": 64.0}, {"time": 600, "qpm": 63.50005979588964}, {"time": 696, "qpm": 64.0}, {"time": 1368, "qpm": 63.600082680107484}, {"time": 1511, "qpm": 64.0}, {"time": 2040, "qpm": 63.600082680107484}, {"time": 2088, "qpm": 64.0}, {"time": 2256, "qpm": 63.600082680107484}, {"time": 2376, "qpm": 63.900077319093555}, {"time": 2543, "qpm": 64.20009886815225}, {"time": 2635, "qpm": 64.0}], "time_signatures": [{"time": 0, "numerator": 1, "denominator": 4}], "tracks": [{"program": 0, "is_drum": false, "name": "MELODY", "notes": [{"time": 297, "pitch": 79, "duration": 3, "velocity": 91}, {"time": 300, "pitch": 77, "duration": 3, "velocity": 87}, {"time": 303, "pitch": 74, "duration": 2, "velocity": 94}, {"time": 306, "pitch": 72, "duration": 2, "velocity": 86}, {"time": 309, "pitch": 74, "duration": 10, "velocity": 91}, {"time": 321, "pitch": 74, "duration": 2, "velocity": 104}, {"time": 324, "pitch": 72, "duration": 2, "velocity": 83}, {"time": 327, "pitch": 70, "duration": 2, "velocity": 91}, {"time": 330, "pitch": 67, "duration": 2, "velocity": 86}, {"time": 333, "pitch": 70, "duration": 10, "velocity": 88}, {"time": 345, "pitch": 70, "duration": 2, "velocity": 92}, {"time": 348, "pitch": 65, "duration": 2, "velocity": 88}, {"time": 351, "pitch": 70, "duration": 2, "velocity": 96}, {"time": 354, "pitch": 74, "duration": 2, "velocity": 92}, {"time": 357, "pitch": 72, "duration": 2, "velocity": 87}, {"time": 360, "pitch": 72, "duration": 2, "velocity": 87}, {"time": 363, "pitch": 72, "duration": 2, "velocity": 86}, {"time": 366, "pitch": 72, "duration": 2, "velocity": 88}, {"time": 369, "pitch": 72, "duration": 5, "velocity": 88}, {"time": 375, "pitch": 70, "duration": 6, "velocity": 91}, {"time": 381, "pitch": 72, "duration": 6, "velocity": 88}, {"time": 387, "pitch": 70, "duration": 3, "velocity": 90}, {"time": 390, "pitch": 67, "duration": 3, "velocity": 85}, {"time": 393, "pitch": 79, "duration": 2, "velocity": 91}, {"time": 396, "pitch": 77, "duration": 2, "velocity": 83}, {"time": 399, "pitch": 74, "duration": 2, "velocity": 94}, {"time": 402, "pitch": 72, "duration": 2, "velocity": 87}, {"time": 405, "pitch": 74, "duration": 10, "velocity": 89}, {"time": 417, "pitch": 74, "duration": 2, "velocity": 93}, {"time": 420, "pitch": 72, "duration": 2, "velocity": 87}, {"time": 423, "pitch": 70, "duration": 2, "velocity": 98}, {"time": 426, "pitch": 67, "duration": 2, "velocity": 88}, {"time": 429, "pitch": 70, "duration": 8, "velocity": 87}, {"time": 441, "pitch": 70, "duration": 3, "velocity": 83}, {"time": 444, "pitch": 65, "duration": 2, "velocity": 87}, {"time": 447, "pitch": 70, "duration": 2, "velocity": 91}, {"time": 450, "pitch": 74, "duration": 7, "velocity": 92}, {"time": 456, "pitch": 72, "duration": 23, "velocity": 88}, {"time": 489, "pitch": 79, "duration": 3, "velocity": 91}, {"time": 492, "pitch": 77, "duration": 3, "velocity": 87}, {"time": 495, "pitch": 74, "duration": 2, "velocity": 94}, {"time": 498, "pitch": 72, "duration": 2, "velocity": 86}, {"time": 501, "pitch": 74, "duration": 10, "velocity": 91}, {"time": 513, "pitch": 74, "duration": 2, "velocity": 104}, {"time": 516, "pitch": 72, "duration": 2, "velocity": 83}, {"time": 519, "pitch": 70, "duration": 2, "velocity": 91}, {"time": 522, "pitch": 67, "duration": 2, "velocity": 86}, {"time": 525, "pitch": 70, "duration": 10, "velocity": 88}, {"time": 537, "pitch": 70, "duration": 2, "velocity": 92}, {"time": 540, "pitch": 65, "duration": 2, "velocity": 88}, {"time": 543, "pitch": 70, "duration": 2, "velocity": 96}, {"time": 546, "pitch": 74, "duration": 2, "velocity": 92}, {"time": 549, "pitch": 72, "duration": 2, "velocity": 87}, {"time": 552, "pitch": 72, "duration": 2, "velocity": 87}, {"time": 555, "pitch": 72, "duration": 2, "velocity": 86}, {"time": 558, "pitch": 72, "duration": 2, "velocity": 88}, {"time": 561, "pitch": 72, "duration": 5, "velocity": 88}, {"time": 567, "pitch": 70, "duration": 6, "velocity": 91}, {"time": 573, "pitch": 72, "duration": 6, "velocity": 88}, {"time": 579, "pitch": 70, "duration": 3, "velocity": 90}, {"time": 582, "pitch": 67, "duration": 3, "velocity": 85}, {"time": 585, "pitch": 79, "duration": 2, "velocity": 91}, {"time": 588, "pitch": 77, "duration": 2, "velocity": 83}, {"time": 591, "pitch": 74, "duration": 2, "velocity": 94}, {"time": 594, "pitch": 72, "duration": 2, "velocity": 87}, {"time": 597, "pitch": 74, "duration": 10, "velocity": 89}, {"time": 609, "pitch": 74, "duration": 2, "velocity": 93}, {"time": 612, "pitch": 72, "duration": 2, "velocity": 87}, {"time": 615, "pitch": 70, "duration": 2, "velocity": 98}, {"time": 618, "pitch": 67, "duration": 2, "velocity": 88}, {"time": 621, "pitch": 70, "duration": 8, "velocity": 87}, {"time": 633, "pitch": 70, "duration": 3, "velocity": 83}, {"time": 636, "pitch": 65, "duration": 2, "velocity": 87}, {"time": 639, "pitch": 70, "duration": 2, "velocity": 91}, {"time": 642, "pitch": 74, "duration": 7, "velocity": 92}, {"time": 648, "pitch": 72, "duration": 23, "velocity": 88}, {"time": 672, "pitch": 72, "duration": 2, "velocity": 88}, {"time": 675, "pitch": 72, "duration": 2, "velocity": 89}, {"time": 678, "pitch": 72, "duration": 2, "velocity": 89}, {"time": 681, "pitch": 72, "duration": 2, "velocity": 91}, {"time": 684, "pitch": 77, "duration": 6, "velocity": 89}, {"time": 690, "pitch": 72, "duration": 2, "velocity": 87}, {"time": 693, "pitch": 72, "duration": 24, "velocity": 92}, {"time": 717, "pitch": 70, "duration": 10, "velocity": 89}, {"time": 729, "pitch": 72, "duration": 10, "velocity": 89}, {"time": 741, "pitch": 74, "duration": 38, "velocity": 98}, {"time": 780, "pitch": 74, "duration": 2, "velocity": 90}, {"time": 783, "pitch": 77, "duration": 2, "velocity": 91}, {"time": 786, "pitch": 74, "duration": 2, "velocity": 96}, {"time": 789, "pitch": 79, "duration": 2, "velocity": 88}, {"time": 792, "pitch": 79, "duration": 2, "velocity": 87}, {"time": 795, "pitch": 79, "duration": 4, "velocity": 89}, {"time": 801, "pitch": 79, "duration": 5, "velocity": 89}, {"time": 807, "pitch": 77, "duration": 4, "velocity": 92}, {"time": 813, "pitch": 74, "duration": 5, "velocity": 98}, {"time": 819, "pitch": 72, "duration": 2, "velocity": 87}, {"time": 822, "pitch": 74, "duration": 4, "velocity": 94}, {"time": 828, "pitch": 74, "duration": 2, "velocity": 89}, {"time": 831, "pitch": 74, "duration": 2, "velocity": 96}, {"time": 834, "pitch": 70, "duration": 2, "velocity": 80}, {"time": 837, "pitch": 72, "duration": 4, "velocity": 88}, {"time": 843, "pitch": 72, "duration": 4, "velocity": 90}, {"time": 849, "pitch": 72, "duration": 4, "velocity": 89}, {"time": 855, "pitch": 72, "duration": 2, "velocity": 90}, {"time": 858, "pitch": 74, "duration": 2, "velocity": 90}, {"time": 861, "pitch": 72, "duration": 4, "velocity": 89}, {"time": 867, "pitch": 70, "duration": 3, "velocity": 88}, {"time": 870, "pitch": 67, "duration": 4, "velocity": 88}, {"time": 876, "pitch": 74, "duration": 2, "velocity": 90}, {"time": 879, "pitch": 77, "duration": 3, "velocity": 91}, {"time": 882, "pitch": 74, "duration": 2, "velocity": 98}, {"time": 885, "pitch": 79, "duration": 5, "velocity": 88}, {"time": 891, "pitch": 79, "duration": 4, "velocity": 89}, {"time": 897, "pitch": 79, "duration": 5, "velocity": 89}, {"time": 903, "pitch": 77, "duration": 5, "velocity": 85}, {"time": 909, "pitch": 74, "duration": 5, "velocity": 93}, {"time": 915, "pitch": 74, "duration": 5, "velocity": 94}, {"time": 921, "pitch": 72, "duration": 5, "velocity": 87}, {"time": 927, "pitch": 70, "duration": 5, "velocity": 87}, {"time": 933, "pitch": 72, "duration": 4, "velocity": 94}, {"time": 939, "pitch": 72, "duration": 4, "velocity": 91}, {"time": 945, "pitch": 72, "duration": 2, "velocity": 91}, {"time": 948, "pitch": 77, "duration": 9, "velocity": 90}, {"time": 957, "pitch": 74, "duration": 14, "velocity": 96}, {"time": 972, "pitch": 74, "duration": 2, "velocity": 90}, {"time": 975, "pitch": 77, "duration": 2, "velocity": 91}, {"time": 978, "pitch": 74, "duration": 2, "velocity": 96}, {"time": 981, "pitch": 79, "duration": 2, "velocity": 88}, {"time": 984, "pitch": 79, "duration": 2, "velocity": 87}, {"time": 987, "pitch": 79, "duration": 4, "velocity": 89}, {"time": 993, "pitch": 79, "duration": 5, "velocity": 89}, {"time": 999, "pitch": 77, "duration": 4, "velocity": 92}, {"time": 1005, "pitch": 74, "duration": 5, "velocity": 98}, {"time": 1011, "pitch": 72, "duration": 2, "velocity": 87}, {"time": 1014, "pitch": 74, "duration": 4, "velocity": 94}, {"time": 1020, "pitch": 74, "duration": 2, "velocity": 89}, {"time": 1023, "pitch": 74, "duration": 2, "velocity": 96}, {"time": 1026, "pitch": 70, "duration": 2, "velocity": 80}, {"time": 1029, "pitch": 72, "duration": 4, "velocity": 88}, {"time": 1035, "pitch": 72, "duration": 4, "velocity": 90}, {"time": 1041, "pitch": 72, "duration": 4, "velocity": 89}, {"time": 1047, "pitch": 72, "duration": 2, "velocity": 90}, {"time": 1050, "pitch": 74, "duration": 2, "velocity": 90}, {"time": 1053, "pitch": 72, "duration": 4, "velocity": 89}, {"time": 1059, "pitch": 70, "duration": 3, "velocity": 88}, {"time": 1062, "pitch": 67, "duration": 4, "velocity": 88}, {"time": 1068, "pitch": 67, "duration": 2, "velocity": 84}, {"time": 1071, "pitch": 67, "duration": 2, "velocity": 88}, {"time": 1074, "pitch": 69, "duration": 2, "velocity": 87}, {"time": 1077, "pitch": 70, "duration": 5, "velocity": 87}, {"time": 1083, "pitch": 70, "duration": 5, "velocity": 88}, {"time": 1089, "pitch": 70, "duration": 5, "velocity": 92}, {"time": 1095, "pitch": 74, "duration": 5, "velocity": 90}, {"time": 1101, "pitch": 72, "duration": 4, "velocity": 87}, {"time": 1107, "pitch": 72, "duration": 4, "velocity": 88}, {"time": 1113, "pitch": 72, "duration": 4, "velocity": 91}, {"time": 1119, "pitch": 69, "duration": 4, "velocity": 89}, {"time": 1125, "pitch": 67, "duration": 36, "velocity": 88}, {"time": 1161, "pitch": 79, "duration": 3, "velocity": 91}, {"time": 1164, "pitch": 77, "duration": 3, "velocity": 87}, {"time": 1167, "pitch": 74, "duration": 2, "velocity": 94}, {"time": 1170, "pitch": 72, "duration": 2, "velocity": 86}, {"time": 1173, "pitch": 74, "duration": 10, "velocity": 91}, {"time": 1185, "pitch": 74, "duration": 2, "velocity": 104}, {"time": 1188, "pitch": 72, "duration": 2, "velocity": 83}, {"time": 1191, "pitch": 70, "duration": 2, "velocity": 91}, {"time": 1194, "pitch": 67, "duration": 2, "velocity": 86}, {"time": 1197, "pitch": 70, "duration": 10, "velocity": 88}, {"time": 1209, "pitch": 70, "duration": 2, "velocity": 92}, {"time": 1212, "pitch": 65, "duration": 2, "velocity": 88}, {"time": 1215, "pitch": 70, "duration": 2, "velocity": 96}, {"time": 1218, "pitch": 74, "duration": 2, "velocity": 92}, {"time": 1221, "pitch": 72, "duration": 2, "velocity": 87}, {"time": 1224, "pitch": 72, "duration": 2, "velocity": 87}, {"time": 1227, "pitch": 72, "duration": 2, "velocity": 86}, {"time": 1230, "pitch": 72, "duration": 2, "velocity": 88}, {"time": 1233, "pitch": 72, "duration": 5, "velocity": 88}, {"time": 1239, "pitch": 70, "duration": 6, "velocity": 91}, {"time": 1245, "pitch": 72, "duration": 6, "velocity": 88}, {"time": 1251, "pitch": 70, "duration": 3, "velocity": 90}, {"time": 1254, "pitch": 67, "duration": 3, "velocity": 85}, {"time": 1257, "pitch": 79, "duration": 2, "velocity": 91}, {"time": 1260, "pitch": 77, "duration": 2, "velocity": 83}, {"time": 1263, "pitch": 74, "duration": 2, "velocity": 94}, {"time": 1266, "pitch": 72, "duration": 2, "velocity": 87}, {"time": 1269, "pitch": 74, "duration": 10, "velocity": 89}, {"time": 1281, "pitch": 74, "duration": 2, "velocity": 93}, {"time": 1284, "pitch": 72, "duration": 2, "velocity": 87}, {"time": 1287, "pitch": 70, "duration": 2, "velocity": 98}, {"time": 1290, "pitch": 67, "duration": 2, "velocity": 88}, {"time": 1293, "pitch": 70, "duration": 8, "velocity": 87}, {"time": 1305, "pitch": 70, "duration": 3, "velocity": 83}, {"time": 1308, "pitch": 65, "duration": 2, "velocity": 87}, {"time": 1311, "pitch": 70, "duration": 2, "velocity": 91}, {"time": 1314, "pitch": 74, "duration": 7, "velocity": 92}, {"time": 1320, "pitch": 72, "duration": 23, "velocity": 88}, {"time": 1353, "pitch": 79, "duration": 3, "velocity": 91}, {"time": 1356, "pitch": 77, "duration": 3, "velocity": 87}, {"time": 1359, "pitch": 74, "duration": 2, "velocity": 94}, {"time": 1362, "pitch": 72, "duration": 2, "velocity": 86}, {"time": 1365, "pitch": 74, "duration": 10, "velocity": 91}, {"time": 1377, "pitch": 74, "duration": 2, "velocity": 104}, {"time": 1380, "pitch": 72, "duration": 2, "velocity": 83}, {"time": 1383, "pitch": 70, "duration": 2, "velocity": 91}, {"time": 1386, "pitch": 67, "duration": 2, "velocity": 86}, {"time": 1389, "pitch": 70, "duration": 10, "velocity": 88}, {"time": 1401, "pitch": 70, "duration": 2, "velocity": 92}, {"time": 1404, "pitch": 65, "duration": 2, "velocity": 88}, {"time": 1407, "pitch": 70, "duration": 2, "velocity": 96}, {"time": 1410, "pitch": 74, "duration": 2, "velocity": 92}, {"time": 1413, "pitch": 72, "duration": 2, "velocity": 87}, {"time": 1416, "pitch": 72, "duration": 2, "velocity": 87}, {"time": 1419, "pitch": 72, "duration": 2, "velocity": 86}, {"time": 1422, "pitch": 72, "duration": 2, "velocity": 88}, {"time": 1425, "pitch": 72, "duration": 5, "velocity": 88}, {"time": 1431, "pitch": 70, "duration": 6, "velocity": 91}, {"time": 1437, "pitch": 72, "duration": 6, "velocity": 88}, {"time": 1443, "pitch": 70, "duration": 3, "velocity": 90}, {"time": 1446, "pitch": 67, "duration": 3, "velocity": 85}, {"time": 1449, "pitch": 79, "duration": 2, "velocity": 91}, {"time": 1452, "pitch": 77, "duration": 2, "velocity": 83}, {"time": 1455, "pitch": 74, "duration": 2, "velocity": 94}, {"time": 1458, "pitch": 72, "duration": 2, "velocity": 87}, {"time": 1461, "pitch": 74, "duration": 10, "velocity": 89}, {"time": 1473, "pitch": 74, "duration": 2, "velocity": 93}, {"time": 1476, "pitch": 72, "duration": 2, "velocity": 87}, {"time": 1479, "pitch": 70, "duration": 2, "velocity": 98}, {"time": 1482, "pitch": 67, "duration": 2, "velocity": 88}, {"time": 1485, "pitch": 70, "duration": 8, "velocity": 87}, {"time": 1497, "pitch": 70, "duration": 3, "velocity": 83}, {"time": 1500, "pitch": 65, "duration": 2, "velocity": 87}, {"time": 1503, "pitch": 70, "duration": 2, "velocity": 91}, {"time": 1506, "pitch": 74, "duration": 7, "velocity": 92}, {"time": 1512, "pitch": 72, "duration": 23, "velocity": 88}, {"time": 1536, "pitch": 72, "duration": 2, "velocity": 88}, {"time": 1539, "pitch": 72, "duration": 2, "velocity": 89}, {"time": 1542, "pitch": 72, "duration": 2, "velocity": 89}, {"time": 1545, "pitch": 72, "duration": 2, "velocity": 91}, {"time": 1548, "pitch": 77, "duration": 6, "velocity": 89}, {"time": 1554, "pitch": 72, "duration": 2, "velocity": 87}, {"time": 1557, "pitch": 72, "duration": 24, "velocity": 92}, {"time": 1581, "pitch": 70, "duration": 10, "velocity": 89}, {"time": 1593, "pitch": 72, "duration": 10, "velocity": 89}, {"time": 1605, "pitch": 74, "duration": 38, "velocity": 98}, {"time": 1644, "pitch": 74, "duration": 2, "velocity": 90}, {"time": 1647, "pitch": 77, "duration": 2, "velocity": 91}, {"time": 1650, "pitch": 74, "duration": 2, "velocity": 96}, {"time": 1653, "pitch": 79, "duration": 2, "velocity": 88}, {"time": 1656, "pitch": 79, "duration": 2, "velocity": 87}, {"time": 1659, "pitch": 79, "duration": 4, "velocity": 89}, {"time": 1665, "pitch": 79, "duration": 5, "velocity": 89}, {"time": 1671, "pitch": 77, "duration": 4, "velocity": 92}, {"time": 1677, "pitch": 74, "duration": 5, "velocity": 98}, {"time": 1683, "pitch": 72, "duration": 2, "velocity": 87}, {"time": 1686, "pitch": 74, "duration": 4, "velocity": 94}, {"time": 1692, "pitch": 74, "duration": 2, "velocity": 89}, {"time": 1695, "pitch": 74, "duration": 2, "velocity": 96}, {"time": 1698, "pitch": 70, "duration": 2, "velocity": 80}, {"time": 1701, "pitch": 72, "duration": 4, "velocity": 88}, {"time": 1707, "pitch": 72, "duration": 4, "velocity": 90}, {"time": 1713, "pitch": 72, "duration": 4, "velocity": 89}, {"time": 1719, "pitch": 72, "duration": 2, "velocity": 90}, {"time": 1722, "pitch": 74, "duration": 2, "velocity": 90}, {"time": 1725, "pitch": 72, "duration": 4, "velocity": 89}, {"time": 1731, "pitch": 70, "duration": 3, "velocity": 88}, {"time": 1734, "pitch": 67, "duration": 4, "velocity": 88}, {"time": 1740, "pitch": 74, "duration": 2, "velocity": 90}, {"time": 1743, "pitch": 77, "duration": 3, "velocity": 91}, {"time": 1746, "pitch": 74, "duration": 2, "velocity": 98}, {"time": 1749, "pitch": 79, "duration": 5, "velocity": 88}, {"time": 1755, "pitch": 79, "duration": 4, "velocity": 89}, {"time": 1761, "pitch": 79, "duration": 5, "velocity": 89}, {"time": 1767, "pitch": 77, "duration": 5, "velocity": 85}, {"time": 1773, "pitch": 74, "duration": 5, "velocity": 93}, {"time": 1779, "pitch": 74, "duration": 5, "velocity": 94}, {"time": 1785, "pitch": 72, "duration": 5, "velocity": 87}, {"time": 1791, "pitch": 70, "duration": 5, "velocity": 87}, {"time": 1797, "pitch": 72, "duration": 4, "velocity": 94}, {"time": 1803, "pitch": 72, "duration": 4, "velocity": 91}, {"time": 1809, "pitch": 72, "duration": 2, "velocity": 91}, {"time": 1812, "pitch": 77, "duration": 9, "velocity": 90}, {"time": 1821, "pitch": 74, "duration": 14, "velocity": 96}, {"time": 1836, "pitch": 74, "duration": 2, "velocity": 90}, {"time": 1839, "pitch": 77, "duration": 2, "velocity": 91}, {"time": 1842, "pitch": 74, "duration": 2, "velocity": 96}, {"time": 1845, "pitch": 79, "duration": 2, "velocity": 88}, {"time": 1848, "pitch": 79, "duration": 2, "velocity": 87}, {"time": 1851, "pitch": 79, "duration": 4, "velocity": 89}, {"time": 1857, "pitch": 79, "duration": 5, "velocity": 89}, {"time": 1863, "pitch": 77, "duration": 4, "velocity": 92}, {"time": 1869, "pitch": 74, "duration": 5, "velocity": 98}, {"time": 1875, "pitch": 72, "duration": 2, "velocity": 87}, {"time": 1878, "pitch": 74, "duration": 4, "velocity": 94}, {"time": 1884, "pitch": 74, "duration": 2, "velocity": 89}, {"time": 1887, "pitch": 74, "duration": 2, "velocity": 96}, {"time": 1890, "pitch": 70, "duration": 2, "velocity": 80}, {"time": 1893, "pitch": 72, "duration": 4, "velocity": 88}, {"time": 1899, "pitch": 72, "duration": 4, "velocity": 90}, {"time": 1905, "pitch": 72, "duration": 4, "velocity": 89}, {"time": 1911, "pitch": 72, "duration": 2, "velocity": 90}, {"time": 1914, "pitch": 74, "duration": 2, "velocity": 90}, {"time": 1917, "pitch": 72, "duration": 4, "velocity": 89}, {"time": 1923, "pitch": 70, "duration": 3, "velocity": 88}, {"time": 1926, "pitch": 67, "duration": 4, "velocity": 88}, {"time": 1932, "pitch": 67, "duration": 2, "velocity": 84}, {"time": 1935, "pitch": 67, "duration": 2, "velocity": 88}, {"time": 1938, "pitch": 69, "duration": 2, "velocity": 87}, {"time": 1941, "pitch": 70, "duration": 5, "velocity": 87}, {"time": 1947, "pitch": 70, "duration": 5, "velocity": 88}, {"time": 1953, "pitch": 70, "duration": 5, "velocity": 92}, {"time": 1959, "pitch": 74, "duration": 5, "velocity": 90}, {"time": 1965, "pitch": 72, "duration": 4, "velocity": 87}, {"time": 1971, "pitch": 72, "duration": 4, "velocity": 88}, {"time": 1977, "pitch": 72, "duration": 4, "velocity": 91}, {"time": 1983, "pitch": 69, "duration": 4, "velocity": 89}, {"time": 1989, "pitch": 67, "duration": 36, "velocity": 88}, {"time": 2031, "pitch": 67, "duration": 5, "velocity": 94}, {"time": 2037, "pitch": 79, "duration": 28, "velocity": 91}, {"time": 2067, "pitch": 76, "duration": 5, "velocity": 87}, {"time": 2073, "pitch": 74, "duration": 6, "velocity": 96}, {"time": 2079, "pitch": 72, "duration": 6, "velocity": 94}, {"time": 2085, "pitch": 74, "duration": 10, "velocity": 91}, {"time": 2097, "pitch": 67, "duration": 27, "velocity": 90}, {"time": 2127, "pitch": 67, "duration": 5, "velocity": 93}, {"time": 2133, "pitch": 79, "duration": 11, "velocity": 88}, {"time": 2145, "pitch": 79, "duration": 4, "velocity": 88}, {"time": 2151, "pitch": 77, "duration": 5, "velocity": 89}, {"time": 2157, "pitch": 74, "duration": 10, "velocity": 91}, {"time": 2169, "pitch": 74, "duration": 5, "velocity": 96}, {"time": 2175, "pitch": 77, "duration": 6, "velocity": 93}, {"time": 2181, "pitch": 72, "duration": 11, "velocity": 92}, {"time": 2193, "pitch": 70, "duration": 5, "velocity": 91}, {"time": 2199, "pitch": 72, "duration": 4, "velocity": 89}, {"time": 2205, "pitch": 74, "duration": 31, "velocity": 94}, {"time": 2436, "pitch": 74, "duration": 2, "velocity": 90}, {"time": 2439, "pitch": 77, "duration": 2, "velocity": 91}, {"time": 2442, "pitch": 74, "duration": 2, "velocity": 96}, {"time": 2445, "pitch": 79, "duration": 2, "velocity": 88}, {"time": 2448, "pitch": 79, "duration": 2, "velocity": 87}, {"time": 2451, "pitch": 79, "duration": 4, "velocity": 89}, {"time": 2457, "pitch": 79, "duration": 5, "velocity": 89}, {"time": 2463, "pitch": 77, "duration": 4, "velocity": 92}, {"time": 2469, "pitch": 74, "duration": 5, "velocity": 98}, {"time": 2475, "pitch": 72, "duration": 2, "velocity": 87}, {"time": 2478, "pitch": 74, "duration": 4, "velocity": 94}, {"time": 2484, "pitch": 74, "duration": 2, "velocity": 89}, {"time": 2487, "pitch": 74, "duration": 2, "velocity": 96}, {"time": 2490, "pitch": 70, "duration": 2, "velocity": 80}, {"time": 2493, "pitch": 72, "duration": 4, "velocity": 88}, {"time": 2499, "pitch": 72, "duration": 4, "velocity": 90}, {"time": 2505, "pitch": 72, "duration": 4, "velocity": 89}, {"time": 2511, "pitch": 72, "duration": 2, "velocity": 90}, {"time": 2514, "pitch": 74, "duration": 2, "velocity": 90}, {"time": 2517, "pitch": 72, "duration": 4, "velocity": 89}, {"time": 2523, "pitch": 70, "duration": 3, "velocity": 88}, {"time": 2526, "pitch": 67, "duration": 4, "velocity": 88}, {"time": 2532, "pitch": 67, "duration": 2, "velocity": 84}, {"time": 2535, "pitch": 67, "duration": 2, "velocity": 88}, {"time": 2538, "pitch": 69, "duration": 2, "velocity": 87}, {"time": 2541, "pitch": 70, "duration": 5, "velocity": 87}, {"time": 2547, "pitch": 70, "duration": 5, "velocity": 88}, {"time": 2553, "pitch": 70, "duration": 5, "velocity": 92}, {"time": 2559, "pitch": 74, "duration": 5, "velocity": 90}, {"time": 2565, "pitch": 72, "duration": 4, "velocity": 87}, {"time": 2571, "pitch": 72, "duration": 4, "velocity": 88}, {"time": 2577, "pitch": 72, "duration": 4, "velocity": 91}, {"time": 2583, "pitch": 69, "duration": 4, "velocity": 89}, {"time": 2589, "pitch": 67, "duration": 36, "velocity": 88}, {"time": 2628, "pitch": 79, "duration": 2, "velocity": 90}, {"time": 2631, "pitch": 79, "duration": 2, "velocity": 91}, {"time": 2634, "pitch": 79, "duration": 2, "velocity": 96}, {"time": 2637, "pitch": 79, "duration": 6, "velocity": 88}, {"time": 2643, "pitch": 79, "duration": 4, "velocity": 89}, {"time": 2649, "pitch": 79, "duration": 2, "velocity": 89}, {"time": 2652, "pitch": 77, "duration": 2, "velocity": 97}, {"time": 2655, "pitch": 77, "duration": 4, "velocity": 92}, {"time": 2661, "pitch": 74, "duration": 5, "velocity": 98}, {"time": 2667, "pitch": 72, "duration": 2, "velocity": 87}, {"time": 2670, "pitch": 74, "duration": 4, "velocity": 94}, {"time": 2676, "pitch": 74, "duration": 2, "velocity": 89}, {"time": 2679, "pitch": 74, "duration": 2, "velocity": 96}, {"time": 2682, "pitch": 70, "duration": 2, "velocity": 80}, {"time": 2685, "pitch": 72, "duration": 4, "velocity": 88}, {"time": 2691, "pitch": 72, "duration": 4, "velocity": 90}, {"time": 2697, "pitch": 72, "duration": 4, "velocity": 89}, {"time": 2703, "pitch": 72, "duration": 2, "velocity": 90}, {"time": 2706, "pitch": 74, "duration": 2, "velocity": 90}, {"time": 2709, "pitch": 72, "duration": 4, "velocity": 89}, {"time": 2715, "pitch": 77, "duration": 3, "velocity": 88}, {"time": 2718, "pitch": 74, "duration": 4, "velocity": 88}, {"time": 2724, "pitch": 74, "duration": 2, "velocity": 88}, {"time": 2727, "pitch": 77, "duration": 2, "velocity": 83}, {"time": 2730, "pitch": 74, "duration": 2, "velocity": 90}, {"time": 2733, "pitch": 79, "duration": 4, "velocity": 88}, {"time": 2739, "pitch": 79, "duration": 4, "velocity": 89}, {"time": 2745, "pitch": 79, "duration": 5, "velocity": 91}, {"time": 2751, "pitch": 77, "duration": 4, "velocity": 82}, {"time": 2757, "pitch": 74, "duration": 6, "velocity": 98}, {"time": 2763, "pitch": 74, "duration": 5, "velocity": 92}, {"time": 2769, "pitch": 72, "duration": 5, "velocity": 88}, {"time": 2775, "pitch": 70, "duration": 5, "velocity": 86}, {"time": 2781, "pitch": 72, "duration": 4, "velocity": 92}, {"time": 2787, "pitch": 72, "duration": 4, "velocity": 89}, {"time": 2793, "pitch": 72, "duration": 3, "velocity": 91}, {"time": 2796, "pitch": 77, "duration": 10, "velocity": 87}, {"time": 2805, "pitch": 74, "duration": 14, "velocity": 90}, {"time": 2820, "pitch": 74, "duration": 2, "velocity": 90}, {"time": 2823, "pitch": 77, "duration": 2, "velocity": 91}, {"time": 2826, "pitch": 74, "duration": 2, "velocity": 96}, {"time": 2829, "pitch": 79, "duration": 2, "velocity": 88}, {"time": 2832, "pitch": 79, "duration": 2, "velocity": 87}, {"time": 2835, "pitch": 79, "duration": 4, "velocity": 89}, {"time": 2841, "pitch": 79, "duration": 5, "velocity": 89}, {"time": 2847, "pitch": 77, "duration": 4, "velocity": 92}, {"time": 2853, "pitch": 74, "duration": 5, "velocity": 98}, {"time": 2859, "pitch": 72, "duration": 2, "velocity": 87}, {"time": 2862, "pitch": 74, "duration": 4, "velocity": 94}, {"time": 2868, "pitch": 74, "duration": 2, "velocity": 89}, {"time": 2871, "pitch": 74, "duration": 2, "velocity": 96}, {"time": 2874, "pitch": 70, "duration": 2, "velocity": 80}, {"time": 2877, "pitch": 72, "duration": 4, "velocity": 88}, {"time": 2883, "pitch": 72, "duration": 4, "velocity": 90}, {"time": 2889, "pitch": 72, "duration": 4, "velocity": 89}, {"time": 2895, "pitch": 72, "duration": 2, "velocity": 90}, {"time": 2898, "pitch": 74, "duration": 2, "velocity": 90}, {"time": 2901, "pitch": 72, "duration": 4, "velocity": 89}, {"time": 2907, "pitch": 70, "duration": 3, "velocity": 88}, {"time": 2910, "pitch": 67, "duration": 4, "velocity": 88}, {"time": 2916, "pitch": 67, "duration": 2, "velocity": 84}, {"time": 2919, "pitch": 67, "duration": 2, "velocity": 88}, {"time": 2922, "pitch": 69, "duration": 2, "velocity": 87}, {"time": 2925, "pitch": 70, "duration": 5, "velocity": 87}, {"time": 2931, "pitch": 70, "duration": 5, "velocity": 88}, {"time": 2937, "pitch": 70, "duration": 5, "velocity": 92}, {"time": 2943, "pitch": 74, "duration": 5, "velocity": 90}, {"time": 2949, "pitch": 72, "duration": 4, "velocity": 87}, {"time": 2955, "pitch": 72, "duration": 4, "velocity": 88}, {"time": 2961, "pitch": 72, "duration": 4, "velocity": 91}, {"time": 2967, "pitch": 69, "duration": 4, "velocity": 89}, {"time": 2973, "pitch": 67, "duration": 36, "velocity": 88}]}, {"program": 0, "is_drum": false, "name": "BRIDGE", "notes": [{"time": 117, "pitch": 79, "duration": 20, "velocity": 93}, {"time": 141, "pitch": 77, "duration": 24, "velocity": 94}, {"time": 165, "pitch": 72, "duration": 19, "velocity": 89}, {"time": 183, "pitch": 70, "duration": 4, "velocity": 92}, {"time": 186, "pitch": 72, "duration": 4, "velocity": 87}, {"time": 189, "pitch": 70, "duration": 4, "velocity": 101}, {"time": 192, "pitch": 69, "duration": 4, "velocity": 82}, {"time": 195, "pitch": 67, "duration": 16, "velocity": 89}, {"time": 210, "pitch": 67, "duration": 1, "velocity": 88}, {"time": 213, "pitch": 70, "duration": 4, "velocity": 89}, {"time": 216, "pitch": 69, "duration": 3, "velocity": 88}, {"time": 219, "pitch": 67, "duration": 7, "velocity": 89}, {"time": 225, "pitch": 79, "duration": 12, "velocity": 94}, {"time": 237, "pitch": 77, "duration": 24, "velocity": 91}, {"time": 261, "pitch": 72, "duration": 42, "velocity": 87}, {"time": 261, "pitch": 77, "duration": 42, "velocity": 88}, {"time": 501, "pitch": 67, "duration": 21, "velocity": 74}, {"time": 507, "pitch": 74, "duration": 17, "velocity": 86}, {"time": 513, "pitch": 79, "duration": 11, "velocity": 79}, {"time": 531, "pitch": 70, "duration": 7, "velocity": 75}, {"time": 537, "pitch": 74, "duration": 13, "velocity": 87}, {"time": 543, "pitch": 70, "duration": 7, "velocity": 75}, {"time": 555, "pitch": 65, "duration": 8, "velocity": 66}, {"time": 561, "pitch": 72, "duration": 12, "velocity": 79}, {"time": 567, "pitch": 65, "duration": 5, "velocity": 69}, {"time": 597, "pitch": 74, "duration": 24, "velocity": 88}, {"time": 603, "pitch": 67, "duration": 8, "velocity": 71}, {"time": 609, "pitch": 79, "duration": 10, "velocity": 81}, {"time": 621, "pitch": 70, "duration": 8, "velocity": 76}, {"time": 627, "pitch": 65, "duration": 10, "velocity": 79}, {"time": 633, "pitch": 74, "duration": 10, "velocity": 83}, {"time": 645, "pitch": 72, "duration": 9, "velocity": 81}, {"time": 651, "pitch": 65, "duration": 19, "velocity": 70}, {"time": 657, "pitch": 72, "duration": 13, "velocity": 75}, {"time": 693, "pitch": 72, "duration": 9, "velocity": 83}, {"time": 699, "pitch": 67, "duration": 10, "velocity": 75}, {"time": 705, "pitch": 72, "duration": 10, "velocity": 83}, {"time": 711, "pitch": 67, "duration": 5, "velocity": 87}, {"time": 717, "pitch": 67, "duration": 2, "velocity": 72}, {"time": 717, "pitch": 72, "duration": 2, "velocity": 76}, {"time": 720, "pitch": 67, "duration": 2, "velocity": 75}, {"time": 720, "pitch": 72, "duration": 2, "velocity": 79}, {"time": 723, "pitch": 67, "duration": 5, "velocity": 76}, {"time": 723, "pitch": 72, "duration": 5, "velocity": 81}, {"time": 729, "pitch": 67, "duration": 9, "velocity": 83}, {"time": 729, "pitch": 72, "duration": 9, "velocity": 88}, {"time": 741, "pitch": 69, "duration": 2, "velocity": 71}, {"time": 741, "pitch": 74, "duration": 1, "velocity": 80}, {"time": 744, "pitch": 69, "duration": 2, "velocity": 75}, {"time": 744, "pitch": 74, "duration": 1, "velocity": 83}, {"time": 747, "pitch": 69, "duration": 2, "velocity": 75}, {"time": 747, "pitch": 74, "duration": 1, "velocity": 82}, {"time": 750, "pitch": 69, "duration": 2, "velocity": 74}, {"time": 750, "pitch": 74, "duration": 2, "velocity": 84}, {"time": 753, "pitch": 69, "duration": 11, "velocity": 80}, {"time": 753, "pitch": 74, "duration": 11, "velocity": 87}, {"time": 765, "pitch": 69, "duration": 11, "velocity": 83}, {"time": 765, "pitch": 74, "duration": 11, "velocity": 90}, {"time": 777, "pitch": 69, "duration": 2, "velocity": 75}, {"time": 777, "pitch": 74, "duration": 2, "velocity": 83}, {"time": 780, "pitch": 69, "duration": 2, "velocity": 76}, {"time": 780, "pitch": 74, "duration": 2, "velocity": 82}, {"time": 783, "pitch": 69, "duration": 2, "velocity": 76}, {"time": 783, "pitch": 74, "duration": 2, "velocity": 83}, {"time": 789, "pitch": 67, "duration": 17, "velocity": 81}, {"time": 807, "pitch": 67, "duration": 3, "velocity": 83}, {"time": 810, "pitch": 69, "duration": 3, "velocity": 81}, {"time": 813, "pitch": 70, "duration": 24, "velocity": 87}, {"time": 837, "pitch": 69, "duration": 24, "velocity": 82}, {"time": 861, "pitch": 67, "duration": 19, "velocity": 81}, {"time": 885, "pitch": 67, "duration": 23, "velocity": 81}, {"time": 885, "pitch": 70, "duration": 23, "velocity": 76}, {"time": 909, "pitch": 70, "duration": 20, "velocity": 82}, {"time": 930, "pitch": 70, "duration": 4, "velocity": 83}, {"time": 933, "pitch": 69, "duration": 23, "velocity": 82}, {"time": 957, "pitch": 70, "duration": 17, "velocity": 81}, {"time": 975, "pitch": 70, "duration": 4, "velocity": 81}, {"time": 978, "pitch": 69, "duration": 3, "velocity": 82}, {"time": 981, "pitch": 67, "duration": 20, "velocity": 82}, {"time": 1002, "pitch": 67, "duration": 3, "velocity": 79}, {"time": 1005, "pitch": 70, "duration": 25, "velocity": 83}, {"time": 1029, "pitch": 69, "duration": 23, "velocity": 76}, {"time": 1053, "pitch": 67, "duration": 17, "velocity": 74}, {"time": 1053, "pitch": 70, "duration": 17, "velocity": 76}, {"time": 1071, "pitch": 70, "duration": 5, "velocity": 89}, {"time": 1074, "pitch": 69, "duration": 3, "velocity": 66}, {"time": 1077, "pitch": 67, "duration": 23, "velocity": 80}, {"time": 1101, "pitch": 69, "duration": 18, "velocity": 83}, {"time": 1119, "pitch": 65, "duration": 6, "velocity": 86}, {"time": 1134, "pitch": 74, "duration": 4, "velocity": 93}, {"time": 1137, "pitch": 79, "duration": 4, "velocity": 88}, {"time": 1140, "pitch": 77, "duration": 4, "velocity": 94}, {"time": 1143, "pitch": 74, "duration": 4, "velocity": 91}, {"time": 1146, "pitch": 77, "duration": 4, "velocity": 89}, {"time": 1149, "pitch": 79, "duration": 4, "velocity": 92}, {"time": 1155, "pitch": 79, "duration": 7, "velocity": 93}, {"time": 1365, "pitch": 67, "duration": 21, "velocity": 74}, {"time": 1371, "pitch": 74, "duration": 17, "velocity": 86}, {"time": 1377, "pitch": 79, "duration": 11, "velocity": 79}, {"time": 1395, "pitch": 70, "duration": 7, "velocity": 75}, {"time": 1401, "pitch": 74, "duration": 13, "velocity": 87}, {"time": 1407, "pitch": 70, "duration": 7, "velocity": 75}, {"time": 1419, "pitch": 65, "duration": 8, "velocity": 66}, {"time": 1425, "pitch": 72, "duration": 12, "velocity": 79}, {"time": 1431, "pitch": 65, "duration": 5, "velocity": 69}, {"time": 1461, "pitch": 74, "duration": 24, "velocity": 88}, {"time": 1467, "pitch": 67, "duration": 8, "velocity": 71}, {"time": 1473, "pitch": 79, "duration": 10, "velocity": 81}, {"time": 1485, "pitch": 70, "duration": 8, "velocity": 76}, {"time": 1491, "pitch": 65, "duration": 10, "velocity": 79}, {"time": 1497, "pitch": 74, "duration": 10, "velocity": 83}, {"time": 1509, "pitch": 72, "duration": 9, "velocity": 81}, {"time": 1515, "pitch": 65, "duration": 19, "velocity": 70}, {"time": 1521, "pitch": 72, "duration": 13, "velocity": 75}, {"time": 1557, "pitch": 72, "duration": 9, "velocity": 83}, {"time": 1563, "pitch": 67, "duration": 10, "velocity": 75}, {"time": 1569, "pitch": 72, "duration": 10, "velocity": 83}, {"time": 1575, "pitch": 67, "duration": 5, "velocity": 87}, {"time": 1581, "pitch": 67, "duration": 2, "velocity": 72}, {"time": 1581, "pitch": 72, "duration": 2, "velocity": 76}, {"time": 1584, "pitch": 67, "duration": 2, "velocity": 75}, {"time": 1584, "pitch": 72, "duration": 2, "velocity": 79}, {"time": 1587, "pitch": 67, "duration": 5, "velocity": 76}, {"time": 1587, "pitch": 72, "duration": 5, "velocity": 81}, {"time": 1593, "pitch": 67, "duration": 9, "velocity": 83}, {"time": 1593, "pitch": 72, "duration": 9, "velocity": 88}, {"time": 1605, "pitch": 69, "duration": 2, "velocity": 71}, {"time": 1605, "pitch": 74, "duration": 1, "velocity": 80}, {"time": 1608, "pitch": 69, "duration": 2, "velocity": 75}, {"time": 1608, "pitch": 74, "duration": 1, "velocity": 83}, {"time": 1611, "pitch": 69, "duration": 2, "velocity": 75}, {"time": 1611, "pitch": 74, "duration": 1, "velocity": 82}, {"time": 1614, "pitch": 69, "duration": 2, "velocity": 74}, {"time": 1614, "pitch": 74, "duration": 2, "velocity": 84}, {"time": 1617, "pitch": 69, "duration": 11, "velocity": 80}, {"time": 1617, "pitch": 74, "duration": 11, "velocity": 87}, {"time": 1629, "pitch": 69, "duration": 11, "velocity": 83}, {"time": 1629, "pitch": 74, "duration": 11, "velocity": 90}, {"time": 1641, "pitch": 69, "duration": 2, "velocity": 75}, {"time": 1641, "pitch": 74, "duration": 2, "velocity": 83}, {"time": 1644, "pitch": 69, "duration": 2, "velocity": 76}, {"time": 1644, "pitch": 74, "duration": 2, "velocity": 82}, {"time": 1647, "pitch": 69, "duration": 2, "velocity": 76}, {"time": 1647, "pitch": 74, "duration": 2, "velocity": 83}, {"time": 1653, "pitch": 67, "duration": 17, "velocity": 81}, {"time": 1671, "pitch": 67, "duration": 3, "velocity": 83}, {"time": 1674, "pitch": 69, "duration": 3, "velocity": 81}, {"time": 1677, "pitch": 70, "duration": 24, "velocity": 87}, {"time": 1701, "pitch": 69, "duration": 24, "velocity": 82}, {"time": 1725, "pitch": 67, "duration": 19, "velocity": 81}, {"time": 1749, "pitch": 67, "duration": 23, "velocity": 81}, {"time": 1749, "pitch": 70, "duration": 23, "velocity": 76}, {"time": 1773, "pitch": 70, "duration": 20, "velocity": 82}, {"time": 1794, "pitch": 70, "duration": 4, "velocity": 83}, {"time": 1797, "pitch": 69, "duration": 23, "velocity": 82}, {"time": 1821, "pitch": 70, "duration": 17, "velocity": 81}, {"time": 1839, "pitch": 70, "duration": 4, "velocity": 81}, {"time": 1842, "pitch": 69, "duration": 3, "velocity": 82}, {"time": 1845, "pitch": 67, "duration": 20, "velocity": 82}, {"time": 1866, "pitch": 67, "duration": 3, "velocity": 79}, {"time": 1869, "pitch": 70, "duration": 25, "velocity": 83}, {"time": 1893, "pitch": 69, "duration": 23, "velocity": 76}, {"time": 1917, "pitch": 67, "duration": 17, "velocity": 74}, {"time": 1917, "pitch": 70, "duration": 17, "velocity": 76}, {"time": 1935, "pitch": 70, "duration": 5, "velocity": 89}, {"time": 1938, "pitch": 69, "duration": 3, "velocity": 66}, {"time": 1941, "pitch": 67, "duration": 23, "velocity": 80}, {"time": 1965, "pitch": 69, "duration": 18, "velocity": 83}, {"time": 1983, "pitch": 65, "duration": 6, "velocity": 86}, {"time": 1998, "pitch": 74, "duration": 4, "velocity": 93}, {"time": 2001, "pitch": 79, "duration": 4, "velocity": 88}, {"time": 2004, "pitch": 77, "duration": 4, "velocity": 94}, {"time": 2007, "pitch": 74, "duration": 4, "velocity": 91}, {"time": 2010, "pitch": 77, "duration": 4, "velocity": 89}, {"time": 2013, "pitch": 79, "duration": 4, "velocity": 92}, {"time": 2019, "pitch": 79, "duration": 7, "velocity": 93}, {"time": 2241, "pitch": 74, "duration": 2, "velocity": 113}, {"time": 2244, "pitch": 74, "duration": 4, "velocity": 104}, {"time": 2247, "pitch": 77, "duration": 3, "velocity": 93}, {"time": 2250, "pitch": 74, "duration": 3, "velocity": 91}, {"time": 2253, "pitch": 79, "duration": 12, "velocity": 91}, {"time": 2265, "pitch": 79, "duration": 1, "velocity": 96}, {"time": 2268, "pitch": 77, "duration": 3, "velocity": 82}, {"time": 2271, "pitch": 74, "duration": 4, "velocity": 101}, {"time": 2274, "pitch": 72, "duration": 4, "velocity": 92}, {"time": 2277, "pitch": 74, "duration": 11, "velocity": 96}, {"time": 2289, "pitch": 74, "duration": 4, "velocity": 98}, {"time": 2292, "pitch": 72, "duration": 3, "velocity": 88}, {"time": 2295, "pitch": 70, "duration": 3, "velocity": 93}, {"time": 2298, "pitch": 67, "duration": 3, "velocity": 89}, {"time": 2301, "pitch": 70, "duration": 4, "velocity": 90}, {"time": 2304, "pitch": 74, "duration": 4, "velocity": 96}, {"time": 2307, "pitch": 72, "duration": 9, "velocity": 92}, {"time": 2319, "pitch": 62, "duration": 4, "velocity": 89}, {"time": 2322, "pitch": 65, "duration": 2, "velocity": 89}, {"time": 2325, "pitch": 70, "duration": 4, "velocity": 103}, {"time": 2328, "pitch": 69, "duration": 4, "velocity": 91}, {"time": 2331, "pitch": 67, "duration": 3, "velocity": 88}, {"time": 2334, "pitch": 65, "duration": 4, "velocity": 89}, {"time": 2337, "pitch": 67, "duration": 7, "velocity": 92}, {"time": 2343, "pitch": 74, "duration": 3, "velocity": 104}, {"time": 2346, "pitch": 79, "duration": 2, "velocity": 89}, {"time": 2349, "pitch": 79, "duration": 11, "velocity": 91}, {"time": 2361, "pitch": 79, "duration": 3, "velocity": 91}, {"time": 2364, "pitch": 77, "duration": 3, "velocity": 88}, {"time": 2367, "pitch": 75, "duration": 3, "velocity": 103}, {"time": 2370, "pitch": 77, "duration": 8, "velocity": 92}, {"time": 2376, "pitch": 70, "duration": 9, "velocity": 89}, {"time": 2385, "pitch": 74, "duration": 4, "velocity": 96}, {"time": 2388, "pitch": 72, "duration": 4, "velocity": 91}, {"time": 2391, "pitch": 70, "duration": 4, "velocity": 98}, {"time": 2394, "pitch": 72, "duration": 15, "velocity": 94}, {"time": 2406, "pitch": 77, "duration": 4, "velocity": 92}, {"time": 2409, "pitch": 79, "duration": 5, "velocity": 94}, {"time": 2415, "pitch": 79, "duration": 2, "velocity": 98}, {"time": 2417, "pitch": 77, "duration": 2, "velocity": 92}, {"time": 2419, "pitch": 74, "duration": 2, "velocity": 101}, {"time": 2421, "pitch": 79, "duration": 2, "velocity": 91}, {"time": 2423, "pitch": 77, "duration": 2, "velocity": 89}, {"time": 2425, "pitch": 74, "duration": 2, "velocity": 93}, {"time": 2427, "pitch": 77, "duration": 2, "velocity": 91}, {"time": 2429, "pitch": 72, "duration": 2, "velocity": 87}, {"time": 2431, "pitch": 74, "duration": 1, "velocity": 88}, {"time": 2433, "pitch": 74, "duration": 3, "velocity": 94}, {"time": 2435, "pitch": 72, "duration": 2, "velocity": 90}, {"time": 2437, "pitch": 70, "duration": 2, "velocity": 89}, {"time": 2439, "pitch": 72, "duration": 2, "velocity": 88}, {"time": 2441, "pitch": 70, "duration": 2, "velocity": 90}, {"time": 2442, "pitch": 67, "duration": 3, "velocity": 83}, {"time": 2445, "pitch": 67, "duration": 20, "velocity": 82}, {"time": 2445, "pitch": 70, "duration": 15, "velocity": 93}, {"time": 2466, "pitch": 67, "duration": 3, "velocity": 79}, {"time": 2469, "pitch": 70, "duration": 25, "velocity": 83}, {"time": 2493, "pitch": 69, "duration": 23, "velocity": 76}, {"time": 2517, "pitch": 67, "duration": 17, "velocity": 74}, {"time": 2517, "pitch": 70, "duration": 17, "velocity": 76}, {"time": 2535, "pitch": 70, "duration": 5, "velocity": 89}, {"time": 2538, "pitch": 69, "duration": 3, "velocity": 66}, {"time": 2541, "pitch": 67, "duration": 23, "velocity": 80}, {"time": 2565, "pitch": 69, "duration": 18, "velocity": 83}, {"time": 2583, "pitch": 65, "duration": 6, "velocity": 86}, {"time": 2598, "pitch": 74, "duration": 4, "velocity": 93}, {"time": 2601, "pitch": 79, "duration": 4, "velocity": 88}, {"time": 2604, "pitch": 77, "duration": 4, "velocity": 94}, {"time": 2607, "pitch": 74, "duration": 4, "velocity": 91}, {"time": 2610, "pitch": 77, "duration": 4, "velocity": 89}, {"time": 2613, "pitch": 79, "duration": 4, "velocity": 92}, {"time": 2619, "pitch": 79, "duration": 7, "velocity": 93}, {"time": 2637, "pitch": 67, "duration": 17, "velocity": 81}, {"time": 2655, "pitch": 67, "duration": 3, "velocity": 83}, {"time": 2658, "pitch": 69, "duration": 3, "velocity": 81}, {"time": 2661, "pitch": 70, "duration": 24, "velocity": 87}, {"time": 2685, "pitch": 69, "duration": 24, "velocity": 82}, {"time": 2709, "pitch": 67, "duration": 19, "velocity": 81}, {"time": 2733, "pitch": 67, "duration": 23, "velocity": 81}, {"time": 2733, "pitch": 70, "duration": 23, "velocity": 76}, {"time": 2757, "pitch": 70, "duration": 20, "velocity": 82}, {"time": 2778, "pitch": 70, "duration": 4, "velocity": 83}, {"time": 2781, "pitch": 69, "duration": 23, "velocity": 82}, {"time": 2805, "pitch": 70, "duration": 17, "velocity": 81}, {"time": 2823, "pitch": 70, "duration": 4, "velocity": 81}, {"time": 2826, "pitch": 69, "duration": 3, "velocity": 82}, {"time": 2829, "pitch": 67, "duration": 20, "velocity": 82}, {"time": 2850, "pitch": 67, "duration": 3, "velocity": 79}, {"time": 2853, "pitch": 70, "duration": 25, "velocity": 83}, {"time": 2877, "pitch": 69, "duration": 23, "velocity": 76}, {"time": 2901, "pitch": 67, "duration": 17, "velocity": 74}, {"time": 2901, "pitch": 70, "duration": 17, "velocity": 76}, {"time": 2919, "pitch": 70, "duration": 5, "velocity": 89}, {"time": 2922, "pitch": 69, "duration": 3, "velocity": 66}, {"time": 2925, "pitch": 67, "duration": 23, "velocity": 80}, {"time": 2949, "pitch": 69, "duration": 18, "velocity": 83}, {"time": 2967, "pitch": 65, "duration": 6, "velocity": 86}, {"time": 2982, "pitch": 74, "duration": 4, "velocity": 93}, {"time": 2985, "pitch": 79, "duration": 4, "velocity": 88}, {"time": 2988, "pitch": 77, "duration": 4, "velocity": 94}, {"time": 2991, "pitch": 74, "duration": 4, "velocity": 91}, {"time": 2994, "pitch": 77, "duration": 4, "velocity": 89}, {"time": 2997, "pitch": 79, "duration": 4, "velocity": 92}, {"time": 3003, "pitch": 79, "duration": 7, "velocity": 93}, {"time": 3021, "pitch": 79, "duration": 20, "velocity": 93}, {"time": 3045, "pitch": 77, "duration": 24, "velocity": 94}, {"time": 3069, "pitch": 72, "duration": 19, "velocity": 89}, {"time": 3087, "pitch": 70, "duration": 4, "velocity": 92}, {"time": 3090, "pitch": 72, "duration": 4, "velocity": 87}, {"time": 3093, "pitch": 70, "duration": 4, "velocity": 101}, {"time": 3096, "pitch": 69, "duration": 4, "velocity": 82}, {"time": 3099, "pitch": 67, "duration": 16, "velocity": 89}, {"time": 3114, "pitch": 67, "duration": 1, "velocity": 88}, {"time": 3117, "pitch": 70, "duration": 4, "velocity": 89}, {"time": 3120, "pitch": 69, "duration": 3, "velocity": 88}, {"time": 3123, "pitch": 67, "duration": 7, "velocity": 89}, {"time": 3129, "pitch": 79, "duration": 12, "velocity": 94}, {"time": 3141, "pitch": 77, "duration": 24, "velocity": 88}, {"time": 3167, "pitch": 77, "duration": 51, "velocity": 88}]}, {"program": 0, "is_drum": false, "name": "PIANO", "notes": [{"time": 117, "pitch": 43, "duration": 16, "velocity": 88}, {"time": 117, "pitch": 55, "duration": 11, "velocity": 87}, {"time": 117, "pitch": 62, "duration": 10, "velocity": 87}, {"time": 123, "pitch": 50, "duration": 10, "velocity": 82}, {"time": 129, "pitch": 58, "duration": 10, "velocity": 89}, {"time": 129, "pitch": 62, "duration": 13, "velocity": 89}, {"time": 135, "pitch": 43, "duration": 4, "velocity": 87}, {"time": 138, "pitch": 55, "duration": 5, "velocity": 86}, {"time": 141, "pitch": 46, "duration": 19, "velocity": 91}, {"time": 147, "pitch": 53, "duration": 5, "velocity": 87}, {"time": 147, "pitch": 62, "duration": 3, "velocity": 49}, {"time": 153, "pitch": 58, "duration": 7, "velocity": 94}, {"time": 153, "pitch": 62, "duration": 11, "velocity": 88}, {"time": 159, "pitch": 53, "duration": 4, "velocity": 91}, {"time": 165, "pitch": 41, "duration": 16, "velocity": 88}, {"time": 165, "pitch": 53, "duration": 3, "velocity": 83}, {"time": 165, "pitch": 57, "duration": 4, "velocity": 80}, {"time": 165, "pitch": 60, "duration": 5, "velocity": 87}, {"time": 171, "pitch": 48, "duration": 8, "velocity": 76}, {"time": 174, "pitch": 57, "duration": 2, "velocity": 74}, {"time": 177, "pitch": 57, "duration": 4, "velocity": 88}, {"time": 177, "pitch": 60, "duration": 4, "velocity": 91}, {"time": 177, "pitch": 65, "duration": 7, "velocity": 87}, {"time": 183, "pitch": 41, "duration": 2, "velocity": 87}, {"time": 189, "pitch": 48, "duration": 14, "velocity": 91}, {"time": 189, "pitch": 55, "duration": 3, "velocity": 84}, {"time": 189, "pitch": 60, "duration": 7, "velocity": 84}, {"time": 189, "pitch": 64, "duration": 7, "velocity": 90}, {"time": 195, "pitch": 55, "duration": 2, "velocity": 74}, {"time": 201, "pitch": 55, "duration": 4, "velocity": 93}, {"time": 201, "pitch": 60, "duration": 3, "velocity": 96}, {"time": 201, "pitch": 64, "duration": 4, "velocity": 98}, {"time": 204, "pitch": 48, "duration": 4, "velocity": 91}, {"time": 207, "pitch": 55, "duration": 1, "velocity": 83}, {"time": 207, "pitch": 60, "duration": 4, "velocity": 92}, {"time": 210, "pitch": 55, "duration": 2, "velocity": 83}, {"time": 213, "pitch": 43, "duration": 17, "velocity": 88}, {"time": 213, "pitch": 55, "duration": 6, "velocity": 78}, {"time": 213, "pitch": 58, "duration": 6, "velocity": 79}, {"time": 219, "pitch": 50, "duration": 7, "velocity": 77}, {"time": 225, "pitch": 55, "duration": 3, "velocity": 88}, {"time": 225, "pitch": 58, "duration": 4, "velocity": 94}, {"time": 225, "pitch": 62, "duration": 6, "velocity": 88}, {"time": 228, "pitch": 50, "duration": 3, "velocity": 82}, {"time": 231, "pitch": 55, "duration": 2, "velocity": 90}, {"time": 231, "pitch": 62, "duration": 1, "velocity": 67}, {"time": 234, "pitch": 57, "duration": 3, "velocity": 85}, {"time": 237, "pitch": 46, "duration": 16, "velocity": 83}, {"time": 237, "pitch": 53, "duration": 4, "velocity": 81}, {"time": 237, "pitch": 58, "duration": 5, "velocity": 76}, {"time": 243, "pitch": 53, "duration": 5, "velocity": 87}, {"time": 249, "pitch": 53, "duration": 3, "velocity": 88}, {"time": 249, "pitch": 58, "duration": 5, "velocity": 88}, {"time": 249, "pitch": 62, "duration": 11, "velocity": 88}, {"time": 255, "pitch": 53, "duration": 3, "velocity": 98}, {"time": 261, "pitch": 41, "duration": 5, "velocity": 88}, {"time": 261, "pitch": 60, "duration": 5, "velocity": 85}, {"time": 261, "pitch": 65, "duration": 5, "velocity": 87}, {"time": 261, "pitch": 69, "duration": 5, "velocity": 87}, {"time": 267, "pitch": 41, "duration": 42, "velocity": 88}, {"time": 267, "pitch": 60, "duration": 41, "velocity": 88}, {"time": 267, "pitch": 65, "duration": 41, "velocity": 88}, {"time": 267, "pitch": 69, "duration": 41, "velocity": 88}, {"time": 309, "pitch": 43, "duration": 20, "velocity": 88}, {"time": 309, "pitch": 55, "duration": 8, "velocity": 83}, {"time": 309, "pitch": 58, "duration": 7, "velocity": 79}, {"time": 309, "pitch": 62, "duration": 7, "velocity": 85}, {"time": 315, "pitch": 50, "duration": 7, "velocity": 75}, {"time": 321, "pitch": 55, "duration": 4, "velocity": 87}, {"time": 321, "pitch": 58, "duration": 4, "velocity": 89}, {"time": 321, "pitch": 62, "duration": 7, "velocity": 87}, {"time": 324, "pitch": 50, "duration": 4, "velocity": 83}, {"time": 327, "pitch": 55, "duration": 2, "velocity": 88}, {"time": 330, "pitch": 57, "duration": 2, "velocity": 88}, {"time": 333, "pitch": 46, "duration": 21, "velocity": 83}, {"time": 333, "pitch": 53, "duration": 4, "velocity": 76}, {"time": 333, "pitch": 58, "duration": 5, "velocity": 64}, {"time": 339, "pitch": 53, "duration": 4, "velocity": 69}, {"time": 345, "pitch": 53, "duration": 3, "velocity": 82}, {"time": 345, "pitch": 58, "duration": 5, "velocity": 86}, {"time": 345, "pitch": 62, "duration": 11, "velocity": 88}, {"time": 357, "pitch": 41, "duration": 18, "velocity": 79}, {"time": 357, "pitch": 53, "duration": 6, "velocity": 76}, {"time": 357, "pitch": 57, "duration": 6, "velocity": 73}, {"time": 357, "pitch": 60, "duration": 7, "velocity": 79}, {"time": 363, "pitch": 48, "duration": 10, "velocity": 69}, {"time": 369, "pitch": 53, "duration": 1, "velocity": 62}, {"time": 369, "pitch": 57, "duration": 6, "velocity": 84}, {"time": 369, "pitch": 60, "duration": 6, "velocity": 87}, {"time": 369, "pitch": 65, "duration": 7, "velocity": 85}, {"time": 375, "pitch": 53, "duration": 2, "velocity": 87}, {"time": 381, "pitch": 48, "duration": 19, "velocity": 86}, {"time": 381, "pitch": 55, "duration": 3, "velocity": 76}, {"time": 381, "pitch": 60, "duration": 8, "velocity": 82}, {"time": 387, "pitch": 55, "duration": 2, "velocity": 81}, {"time": 393, "pitch": 55, "duration": 4, "velocity": 87}, {"time": 393, "pitch": 60, "duration": 4, "velocity": 88}, {"time": 393, "pitch": 64, "duration": 6, "velocity": 90}, {"time": 399, "pitch": 60, "duration": 2, "velocity": 80}, {"time": 405, "pitch": 43, "duration": 22, "velocity": 86}, {"time": 405, "pitch": 55, "duration": 6, "velocity": 82}, {"time": 405, "pitch": 58, "duration": 7, "velocity": 81}, {"time": 411, "pitch": 50, "duration": 7, "velocity": 71}, {"time": 417, "pitch": 55, "duration": 3, "velocity": 81}, {"time": 417, "pitch": 58, "duration": 3, "velocity": 85}, {"time": 417, "pitch": 62, "duration": 3, "velocity": 87}, {"time": 420, "pitch": 50, "duration": 7, "velocity": 82}, {"time": 423, "pitch": 55, "duration": 4, "velocity": 87}, {"time": 426, "pitch": 57, "duration": 4, "velocity": 88}, {"time": 429, "pitch": 46, "duration": 18, "velocity": 88}, {"time": 429, "pitch": 58, "duration": 6, "velocity": 83}, {"time": 435, "pitch": 53, "duration": 6, "velocity": 80}, {"time": 441, "pitch": 58, "duration": 7, "velocity": 79}, {"time": 441, "pitch": 62, "duration": 9, "velocity": 85}, {"time": 447, "pitch": 53, "duration": 3, "velocity": 85}, {"time": 453, "pitch": 41, "duration": 22, "velocity": 82}, {"time": 453, "pitch": 53, "duration": 16, "velocity": 79}, {"time": 453, "pitch": 57, "duration": 11, "velocity": 79}, {"time": 459, "pitch": 48, "duration": 5, "velocity": 74}, {"time": 462, "pitch": 60, "duration": 8, "velocity": 81}, {"time": 465, "pitch": 48, "duration": 9, "velocity": 78}, {"time": 468, "pitch": 65, "duration": 5, "velocity": 87}, {"time": 471, "pitch": 53, "duration": 4, "velocity": 82}, {"time": 477, "pitch": 41, "duration": 19, "velocity": 84}, {"time": 477, "pitch": 53, "duration": 10, "velocity": 77}, {"time": 477, "pitch": 57, "duration": 9, "velocity": 76}, {"time": 477, "pitch": 60, "duration": 10, "velocity": 78}, {"time": 489, "pitch": 53, "duration": 1, "velocity": 76}, {"time": 489, "pitch": 57, "duration": 11, "velocity": 88}, {"time": 489, "pitch": 60, "duration": 11, "velocity": 87}, {"time": 489, "pitch": 65, "duration": 12, "velocity": 85}, {"time": 495, "pitch": 53, "duration": 5, "velocity": 78}, {"time": 501, "pitch": 43, "duration": 20, "velocity": 88}, {"time": 501, "pitch": 55, "duration": 8, "velocity": 83}, {"time": 501, "pitch": 58, "duration": 7, "velocity": 79}, {"time": 501, "pitch": 62, "duration": 7, "velocity": 85}, {"time": 507, "pitch": 50, "duration": 7, "velocity": 75}, {"time": 513, "pitch": 55, "duration": 4, "velocity": 87}, {"time": 513, "pitch": 58, "duration": 4, "velocity": 89}, {"time": 513, "pitch": 62, "duration": 7, "velocity": 87}, {"time": 516, "pitch": 50, "duration": 4, "velocity": 83}, {"time": 519, "pitch": 55, "duration": 2, "velocity": 88}, {"time": 522, "pitch": 57, "duration": 2, "velocity": 88}, {"time": 525, "pitch": 46, "duration": 21, "velocity": 83}, {"time": 525, "pitch": 53, "duration": 4, "velocity": 76}, {"time": 525, "pitch": 58, "duration": 5, "velocity": 64}, {"time": 531, "pitch": 53, "duration": 4, "velocity": 69}, {"time": 537, "pitch": 53, "duration": 3, "velocity": 82}, {"time": 537, "pitch": 58, "duration": 5, "velocity": 86}, {"time": 537, "pitch": 62, "duration": 11, "velocity": 88}, {"time": 549, "pitch": 41, "duration": 18, "velocity": 79}, {"time": 549, "pitch": 53, "duration": 6, "velocity": 76}, {"time": 549, "pitch": 57, "duration": 6, "velocity": 73}, {"time": 549, "pitch": 60, "duration": 7, "velocity": 79}, {"time": 555, "pitch": 48, "duration": 10, "velocity": 69}, {"time": 561, "pitch": 53, "duration": 1, "velocity": 62}, {"time": 561, "pitch": 57, "duration": 6, "velocity": 84}, {"time": 561, "pitch": 60, "duration": 6, "velocity": 87}, {"time": 561, "pitch": 65, "duration": 7, "velocity": 85}, {"time": 567, "pitch": 53, "duration": 2, "velocity": 87}, {"time": 573, "pitch": 48, "duration": 19, "velocity": 86}, {"time": 573, "pitch": 55, "duration": 3, "velocity": 76}, {"time": 573, "pitch": 60, "duration": 8, "velocity": 82}, {"time": 579, "pitch": 55, "duration": 2, "velocity": 81}, {"time": 585, "pitch": 55, "duration": 4, "velocity": 87}, {"time": 585, "pitch": 60, "duration": 4, "velocity": 88}, {"time": 585, "pitch": 64, "duration": 6, "velocity": 90}, {"time": 591, "pitch": 60, "duration": 2, "velocity": 80}, {"time": 597, "pitch": 43, "duration": 22, "velocity": 86}, {"time": 597, "pitch": 55, "duration": 6, "velocity": 82}, {"time": 597, "pitch": 58, "duration": 7, "velocity": 81}, {"time": 603, "pitch": 50, "duration": 7, "velocity": 71}, {"time": 609, "pitch": 55, "duration": 3, "velocity": 81}, {"time": 609, "pitch": 58, "duration": 3, "velocity": 85}, {"time": 609, "pitch": 62, "duration": 3, "velocity": 87}, {"time": 612, "pitch": 50, "duration": 7, "velocity": 82}, {"time": 615, "pitch": 55, "duration": 4, "velocity": 87}, {"time": 618, "pitch": 57, "duration": 4, "velocity": 88}, {"time": 621, "pitch": 46, "duration": 18, "velocity": 88}, {"time": 621, "pitch": 58, "duration": 6, "velocity": 83}, {"time": 627, "pitch": 53, "duration": 6, "velocity": 80}, {"time": 633, "pitch": 58, "duration": 7, "velocity": 79}, {"time": 633, "pitch": 62, "duration": 9, "velocity": 85}, {"time": 639, "pitch": 53, "duration": 3, "velocity": 85}, {"time": 645, "pitch": 41, "duration": 22, "velocity": 82}, {"time": 645, "pitch": 53, "duration": 16, "velocity": 79}, {"time": 645, "pitch": 57, "duration": 11, "velocity": 79}, {"time": 651, "pitch": 48, "duration": 5, "velocity": 74}, {"time": 654, "pitch": 60, "duration": 8, "velocity": 81}, {"time": 657, "pitch": 48, "duration": 9, "velocity": 78}, {"time": 660, "pitch": 65, "duration": 5, "velocity": 87}, {"time": 663, "pitch": 53, "duration": 4, "velocity": 82}, {"time": 669, "pitch": 41, "duration": 19, "velocity": 84}, {"time": 669, "pitch": 53, "duration": 10, "velocity": 77}, {"time": 669, "pitch": 57, "duration": 9, "velocity": 76}, {"time": 669, "pitch": 60, "duration": 10, "velocity": 78}, {"time": 681, "pitch": 53, "duration": 1, "velocity": 76}, {"time": 681, "pitch": 57, "duration": 11, "velocity": 88}, {"time": 681, "pitch": 60, "duration": 11, "velocity": 87}, {"time": 681, "pitch": 65, "duration": 12, "velocity": 85}, {"time": 687, "pitch": 53, "duration": 5, "velocity": 78}, {"time": 693, "pitch": 48, "duration": 8, "velocity": 104}, {"time": 693, "pitch": 55, "duration": 4, "velocity": 86}, {"time": 693, "pitch": 60, "duration": 4, "velocity": 87}, {"time": 699, "pitch": 55, "duration": 3, "velocity": 74}, {"time": 699, "pitch": 60, "duration": 3, "velocity": 80}, {"time": 705, "pitch": 48, "duration": 9, "velocity": 101}, {"time": 705, "pitch": 55, "duration": 4, "velocity": 88}, {"time": 705, "pitch": 60, "duration": 3, "velocity": 88}, {"time": 705, "pitch": 64, "duration": 3, "velocity": 90}, {"time": 711, "pitch": 55, "duration": 3, "velocity": 75}, {"time": 711, "pitch": 60, "duration": 3, "velocity": 77}, {"time": 711, "pitch": 64, "duration": 3, "velocity": 84}, {"time": 717, "pitch": 48, "duration": 10, "velocity": 96}, {"time": 717, "pitch": 55, "duration": 4, "velocity": 85}, {"time": 717, "pitch": 60, "duration": 8, "velocity": 85}, {"time": 723, "pitch": 55, "duration": 4, "velocity": 85}, {"time": 729, "pitch": 48, "duration": 2, "velocity": 92}, {"time": 729, "pitch": 55, "duration": 3, "velocity": 91}, {"time": 729, "pitch": 60, "duration": 3, "velocity": 89}, {"time": 735, "pitch": 55, "duration": 3, "velocity": 88}, {"time": 735, "pitch": 60, "duration": 5, "velocity": 89}, {"time": 741, "pitch": 38, "duration": 1, "velocity": 91}, {"time": 741, "pitch": 57, "duration": 4, "velocity": 83}, {"time": 741, "pitch": 62, "duration": 4, "velocity": 87}, {"time": 747, "pitch": 50, "duration": 2, "velocity": 88}, {"time": 747, "pitch": 57, "duration": 2, "velocity": 78}, {"time": 747, "pitch": 62, "duration": 2, "velocity": 82}, {"time": 753, "pitch": 50, "duration": 2, "velocity": 89}, {"time": 753, "pitch": 57, "duration": 3, "velocity": 83}, {"time": 753, "pitch": 62, "duration": 3, "velocity": 79}, {"time": 753, "pitch": 66, "duration": 3, "velocity": 79}, {"time": 759, "pitch": 50, "duration": 3, "velocity": 88}, {"time": 759, "pitch": 57, "duration": 3, "velocity": 87}, {"time": 759, "pitch": 62, "duration": 3, "velocity": 87}, {"time": 759, "pitch": 66, "duration": 4, "velocity": 87}, {"time": 765, "pitch": 50, "duration": 5, "velocity": 92}, {"time": 765, "pitch": 57, "duration": 5, "velocity": 89}, {"time": 765, "pitch": 62, "duration": 10, "velocity": 87}, {"time": 765, "pitch": 66, "duration": 10, "velocity": 87}, {"time": 765, "pitch": 69, "duration": 10, "velocity": 87}, {"time": 771, "pitch": 50, "duration": 2, "velocity": 88}, {"time": 774, "pitch": 50, "duration": 15, "velocity": 88}, {"time": 777, "pitch": 57, "duration": 11, "velocity": 96}, {"time": 780, "pitch": 62, "duration": 8, "velocity": 91}, {"time": 783, "pitch": 66, "duration": 5, "velocity": 93}, {"time": 786, "pitch": 74, "duration": 2, "velocity": 88}, {"time": 789, "pitch": 43, "duration": 22, "velocity": 91}, {"time": 792, "pitch": 50, "duration": 20, "velocity": 82}, {"time": 795, "pitch": 58, "duration": 4, "velocity": 81}, {"time": 798, "pitch": 55, "duration": 2, "velocity": 87}, {"time": 801, "pitch": 55, "duration": 2, "velocity": 87}, {"time": 801, "pitch": 58, "duration": 4, "velocity": 89}, {"time": 801, "pitch": 62, "duration": 4, "velocity": 90}, {"time": 804, "pitch": 55, "duration": 1, "velocity": 75}, {"time": 807, "pitch": 67, "duration": 5, "velocity": 88}, {"time": 810, "pitch": 55, "duration": 4, "velocity": 79}, {"time": 813, "pitch": 46, "duration": 17, "velocity": 92}, {"time": 816, "pitch": 53, "duration": 2, "velocity": 77}, {"time": 819, "pitch": 58, "duration": 3, "velocity": 70}, {"time": 822, "pitch": 53, "duration": 3, "velocity": 75}, {"time": 825, "pitch": 58, "duration": 4, "velocity": 81}, {"time": 825, "pitch": 62, "duration": 5, "velocity": 90}, {"time": 828, "pitch": 53, "duration": 3, "velocity": 87}, {"time": 831, "pitch": 58, "duration": 4, "velocity": 82}, {"time": 834, "pitch": 53, "duration": 2, "velocity": 87}, {"time": 837, "pitch": 41, "duration": 21, "velocity": 88}, {"time": 837, "pitch": 53, "duration": 3, "velocity": 88}, {"time": 837, "pitch": 57, "duration": 3, "velocity": 89}, {"time": 840, "pitch": 48, "duration": 18, "velocity": 84}, {"time": 843, "pitch": 60, "duration": 4, "velocity": 86}, {"time": 846, "pitch": 53, "duration": 2, "velocity": 79}, {"time": 849, "pitch": 53, "duration": 1, "velocity": 88}, {"time": 849, "pitch": 57, "duration": 4, "velocity": 94}, {"time": 849, "pitch": 60, "duration": 4, "velocity": 101}, {"time": 849, "pitch": 65, "duration": 4, "velocity": 89}, {"time": 852, "pitch": 53, "duration": 2, "velocity": 77}, {"time": 855, "pitch": 57, "duration": 4, "velocity": 77}, {"time": 855, "pitch": 60, "duration": 5, "velocity": 82}, {"time": 858, "pitch": 53, "duration": 3, "velocity": 80}, {"time": 861, "pitch": 43, "duration": 21, "velocity": 89}, {"time": 864, "pitch": 50, "duration": 17, "velocity": 80}, {"time": 867, "pitch": 58, "duration": 4, "velocity": 81}, {"time": 870, "pitch": 55, "duration": 2, "velocity": 87}, {"time": 873, "pitch": 55, "duration": 1, "velocity": 89}, {"time": 873, "pitch": 58, "duration": 4, "velocity": 90}, {"time": 873, "pitch": 62, "duration": 4, "velocity": 90}, {"time": 876, "pitch": 55, "duration": 2, "velocity": 76}, {"time": 879, "pitch": 58, "duration": 5, "velocity": 88}, {"time": 879, "pitch": 62, "duration": 4, "velocity": 89}, {"time": 879, "pitch": 67, "duration": 4, "velocity": 84}, {"time": 882, "pitch": 55, "duration": 3, "velocity": 88}, {"time": 885, "pitch": 39, "duration": 15, "velocity": 93}, {"time": 885, "pitch": 58, "duration": 4, "velocity": 80}, {"time": 888, "pitch": 46, "duration": 11, "velocity": 77}, {"time": 888, "pitch": 55, "duration": 3, "velocity": 77}, {"time": 891, "pitch": 58, "duration": 3, "velocity": 74}, {"time": 894, "pitch": 55, "duration": 2, "velocity": 76}, {"time": 897, "pitch": 55, "duration": 1, "velocity": 82}, {"time": 897, "pitch": 58, "duration": 4, "velocity": 96}, {"time": 897, "pitch": 63, "duration": 4, "velocity": 91}, {"time": 900, "pitch": 46, "duration": 2, "velocity": 85}, {"time": 903, "pitch": 55, "duration": 4, "velocity": 87}, {"time": 909, "pitch": 46, "duration": 22, "velocity": 90}, {"time": 909, "pitch": 53, "duration": 2, "velocity": 87}, {"time": 909, "pitch": 58, "duration": 4, "velocity": 82}, {"time": 912, "pitch": 53, "duration": 3, "velocity": 73}, {"time": 915, "pitch": 58, "duration": 4, "velocity": 72}, {"time": 918, "pitch": 53, "duration": 4, "velocity": 76}, {"time": 921, "pitch": 58, "duration": 4, "velocity": 78}, {"time": 921, "pitch": 62, "duration": 7, "velocity": 89}, {"time": 924, "pitch": 53, "duration": 4, "velocity": 83}, {"time": 927, "pitch": 58, "duration": 4, "velocity": 91}, {"time": 930, "pitch": 53, "duration": 2, "velocity": 87}, {"time": 933, "pitch": 41, "duration": 21, "velocity": 92}, {"time": 933, "pitch": 53, "duration": 3, "velocity": 88}, {"time": 933, "pitch": 57, "duration": 4, "velocity": 89}, {"time": 936, "pitch": 48, "duration": 11, "velocity": 74}, {"time": 939, "pitch": 57, "duration": 1, "velocity": 73}, {"time": 939, "pitch": 60, "duration": 4, "velocity": 89}, {"time": 942, "pitch": 57, "duration": 1, "velocity": 80}, {"time": 945, "pitch": 53, "duration": 5, "velocity": 83}, {"time": 945, "pitch": 57, "duration": 4, "velocity": 89}, {"time": 945, "pitch": 60, "duration": 5, "velocity": 89}, {"time": 945, "pitch": 65, "duration": 5, "velocity": 87}, {"time": 951, "pitch": 48, "duration": 4, "velocity": 90}, {"time": 954, "pitch": 53, "duration": 3, "velocity": 87}, {"time": 954, "pitch": 57, "duration": 3, "velocity": 85}, {"time": 954, "pitch": 60, "duration": 4, "velocity": 85}, {"time": 954, "pitch": 65, "duration": 4, "velocity": 83}, {"time": 957, "pitch": 43, "duration": 18, "velocity": 89}, {"time": 960, "pitch": 50, "duration": 11, "velocity": 84}, {"time": 963, "pitch": 58, "duration": 4, "velocity": 87}, {"time": 963, "pitch": 62, "duration": 4, "velocity": 86}, {"time": 966, "pitch": 55, "duration": 2, "velocity": 88}, {"time": 969, "pitch": 55, "duration": 1, "velocity": 85}, {"time": 969, "pitch": 58, "duration": 4, "velocity": 94}, {"time": 969, "pitch": 62, "duration": 4, "velocity": 98}, {"time": 969, "pitch": 67, "duration": 4, "velocity": 91}, {"time": 972, "pitch": 50, "duration": 3, "velocity": 92}, {"time": 975, "pitch": 55, "duration": 2, "velocity": 93}, {"time": 978, "pitch": 58, "duration": 2, "velocity": 88}, {"time": 981, "pitch": 39, "duration": 16, "velocity": 93}, {"time": 981, "pitch": 55, "duration": 3, "velocity": 83}, {"time": 981, "pitch": 58, "duration": 4, "velocity": 80}, {"time": 984, "pitch": 46, "duration": 12, "velocity": 79}, {"time": 987, "pitch": 55, "duration": 4, "velocity": 88}, {"time": 990, "pitch": 58, "duration": 2, "velocity": 80}, {"time": 993, "pitch": 55, "duration": 3, "velocity": 87}, {"time": 993, "pitch": 58, "duration": 4, "velocity": 93}, {"time": 993, "pitch": 63, "duration": 4, "velocity": 93}, {"time": 996, "pitch": 46, "duration": 2, "velocity": 77}, {"time": 999, "pitch": 58, "duration": 4, "velocity": 87}, {"time": 1002, "pitch": 55, "duration": 3, "velocity": 87}, {"time": 1005, "pitch": 46, "duration": 22, "velocity": 89}, {"time": 1005, "pitch": 58, "duration": 4, "velocity": 87}, {"time": 1008, "pitch": 53, "duration": 3, "velocity": 82}, {"time": 1011, "pitch": 58, "duration": 2, "velocity": 78}, {"time": 1014, "pitch": 53, "duration": 3, "velocity": 75}, {"time": 1017, "pitch": 58, "duration": 2, "velocity": 74}, {"time": 1017, "pitch": 65, "duration": 12, "velocity": 88}, {"time": 1020, "pitch": 53, "duration": 3, "velocity": 84}, {"time": 1023, "pitch": 58, "duration": 4, "velocity": 80}, {"time": 1026, "pitch": 53, "duration": 4, "velocity": 89}, {"time": 1029, "pitch": 41, "duration": 20, "velocity": 92}, {"time": 1032, "pitch": 48, "duration": 16, "velocity": 76}, {"time": 1035, "pitch": 57, "duration": 3, "velocity": 75}, {"time": 1035, "pitch": 60, "duration": 4, "velocity": 76}, {"time": 1038, "pitch": 53, "duration": 2, "velocity": 70}, {"time": 1041, "pitch": 53, "duration": 4, "velocity": 87}, {"time": 1041, "pitch": 65, "duration": 4, "velocity": 88}, {"time": 1044, "pitch": 60, "duration": 4, "velocity": 86}, {"time": 1047, "pitch": 57, "duration": 5, "velocity": 83}, {"time": 1050, "pitch": 53, "duration": 3, "velocity": 87}, {"time": 1053, "pitch": 43, "duration": 19, "velocity": 89}, {"time": 1056, "pitch": 50, "duration": 13, "velocity": 76}, {"time": 1059, "pitch": 58, "duration": 4, "velocity": 74}, {"time": 1059, "pitch": 62, "duration": 4, "velocity": 79}, {"time": 1062, "pitch": 55, "duration": 2, "velocity": 87}, {"time": 1065, "pitch": 55, "duration": 1, "velocity": 79}, {"time": 1065, "pitch": 58, "duration": 3, "velocity": 90}, {"time": 1065, "pitch": 62, "duration": 5, "velocity": 92}, {"time": 1065, "pitch": 67, "duration": 7, "velocity": 88}, {"time": 1071, "pitch": 58, "duration": 4, "velocity": 86}, {"time": 1074, "pitch": 55, "duration": 3, "velocity": 88}, {"time": 1077, "pitch": 39, "duration": 15, "velocity": 88}, {"time": 1077, "pitch": 58, "duration": 4, "velocity": 76}, {"time": 1077, "pitch": 63, "duration": 4, "velocity": 73}, {"time": 1080, "pitch": 46, "duration": 13, "velocity": 79}, {"time": 1083, "pitch": 55, "duration": 7, "velocity": 83}, {"time": 1086, "pitch": 58, "duration": 5, "velocity": 90}, {"time": 1089, "pitch": 67, "duration": 6, "velocity": 89}, {"time": 1092, "pitch": 63, "duration": 4, "velocity": 92}, {"time": 1095, "pitch": 58, "duration": 3, "velocity": 89}, {"time": 1098, "pitch": 55, "duration": 2, "velocity": 88}, {"time": 1101, "pitch": 41, "duration": 17, "velocity": 87}, {"time": 1101, "pitch": 53, "duration": 7, "velocity": 87}, {"time": 1101, "pitch": 57, "duration": 7, "velocity": 88}, {"time": 1104, "pitch": 48, "duration": 13, "velocity": 80}, {"time": 1107, "pitch": 60, "duration": 5, "velocity": 87}, {"time": 1110, "pitch": 57, "duration": 2, "velocity": 87}, {"time": 1113, "pitch": 53, "duration": 1, "velocity": 55}, {"time": 1113, "pitch": 57, "duration": 1, "velocity": 63}, {"time": 1113, "pitch": 65, "duration": 7, "velocity": 89}, {"time": 1116, "pitch": 60, "duration": 4, "velocity": 88}, {"time": 1119, "pitch": 57, "duration": 4, "velocity": 87}, {"time": 1122, "pitch": 53, "duration": 1, "velocity": 81}, {"time": 1125, "pitch": 43, "duration": 22, "velocity": 87}, {"time": 1125, "pitch": 55, "duration": 7, "velocity": 83}, {"time": 1125, "pitch": 58, "duration": 7, "velocity": 73}, {"time": 1128, "pitch": 50, "duration": 19, "velocity": 81}, {"time": 1131, "pitch": 62, "duration": 4, "velocity": 83}, {"time": 1134, "pitch": 55, "duration": 2, "velocity": 78}, {"time": 1137, "pitch": 55, "duration": 5, "velocity": 89}, {"time": 1137, "pitch": 62, "duration": 4, "velocity": 90}, {"time": 1137, "pitch": 67, "duration": 4, "velocity": 89}, {"time": 1143, "pitch": 58, "duration": 4, "velocity": 83}, {"time": 1143, "pitch": 62, "duration": 4, "velocity": 86}, {"time": 1146, "pitch": 55, "duration": 2, "velocity": 82}, {"time": 1149, "pitch": 43, "duration": 4, "velocity": 89}, {"time": 1149, "pitch": 55, "duration": 5, "velocity": 86}, {"time": 1149, "pitch": 58, "duration": 4, "velocity": 82}, {"time": 1149, "pitch": 62, "duration": 5, "velocity": 88}, {"time": 1149, "pitch": 67, "duration": 5, "velocity": 87}, {"time": 1155, "pitch": 43, "duration": 10, "velocity": 87}, {"time": 1155, "pitch": 55, "duration": 9, "velocity": 87}, {"time": 1155, "pitch": 58, "duration": 9, "velocity": 83}, {"time": 1155, "pitch": 62, "duration": 9, "velocity": 87}, {"time": 1155, "pitch": 67, "duration": 9, "velocity": 83}, {"time": 1173, "pitch": 43, "duration": 20, "velocity": 88}, {"time": 1173, "pitch": 55, "duration": 8, "velocity": 83}, {"time": 1173, "pitch": 58, "duration": 7, "velocity": 79}, {"time": 1173, "pitch": 62, "duration": 7, "velocity": 85}, {"time": 1179, "pitch": 50, "duration": 7, "velocity": 75}, {"time": 1185, "pitch": 55, "duration": 4, "velocity": 87}, {"time": 1185, "pitch": 58, "duration": 4, "velocity": 89}, {"time": 1185, "pitch": 62, "duration": 7, "velocity": 87}, {"time": 1188, "pitch": 50, "duration": 4, "velocity": 83}, {"time": 1191, "pitch": 55, "duration": 2, "velocity": 88}, {"time": 1194, "pitch": 57, "duration": 2, "velocity": 88}, {"time": 1197, "pitch": 46, "duration": 21, "velocity": 83}, {"time": 1197, "pitch": 53, "duration": 4, "velocity": 76}, {"time": 1197, "pitch": 58, "duration": 5, "velocity": 64}, {"time": 1203, "pitch": 53, "duration": 4, "velocity": 69}, {"time": 1209, "pitch": 53, "duration": 3, "velocity": 82}, {"time": 1209, "pitch": 58, "duration": 5, "velocity": 86}, {"time": 1209, "pitch": 62, "duration": 11, "velocity": 88}, {"time": 1221, "pitch": 41, "duration": 18, "velocity": 79}, {"time": 1221, "pitch": 53, "duration": 6, "velocity": 76}, {"time": 1221, "pitch": 57, "duration": 6, "velocity": 73}, {"time": 1221, "pitch": 60, "duration": 7, "velocity": 79}, {"time": 1227, "pitch": 48, "duration": 10, "velocity": 69}, {"time": 1233, "pitch": 53, "duration": 1, "velocity": 62}, {"time": 1233, "pitch": 57, "duration": 6, "velocity": 84}, {"time": 1233, "pitch": 60, "duration": 6, "velocity": 87}, {"time": 1233, "pitch": 65, "duration": 7, "velocity": 85}, {"time": 1239, "pitch": 53, "duration": 2, "velocity": 87}, {"time": 1245, "pitch": 48, "duration": 19, "velocity": 86}, {"time": 1245, "pitch": 55, "duration": 3, "velocity": 76}, {"time": 1245, "pitch": 60, "duration": 8, "velocity": 82}, {"time": 1251, "pitch": 55, "duration": 2, "velocity": 81}, {"time": 1257, "pitch": 55, "duration": 4, "velocity": 87}, {"time": 1257, "pitch": 60, "duration": 4, "velocity": 88}, {"time": 1257, "pitch": 64, "duration": 6, "velocity": 90}, {"time": 1263, "pitch": 60, "duration": 2, "velocity": 80}, {"time": 1269, "pitch": 43, "duration": 22, "velocity": 86}, {"time": 1269, "pitch": 55, "duration": 6, "velocity": 82}, {"time": 1269, "pitch": 58, "duration": 7, "velocity": 81}, {"time": 1275, "pitch": 50, "duration": 7, "velocity": 71}, {"time": 1281, "pitch": 55, "duration": 3, "velocity": 81}, {"time": 1281, "pitch": 58, "duration": 3, "velocity": 85}, {"time": 1281, "pitch": 62, "duration": 3, "velocity": 87}, {"time": 1284, "pitch": 50, "duration": 7, "velocity": 82}, {"time": 1287, "pitch": 55, "duration": 4, "velocity": 87}, {"time": 1290, "pitch": 57, "duration": 4, "velocity": 88}, {"time": 1293, "pitch": 46, "duration": 18, "velocity": 88}, {"time": 1293, "pitch": 58, "duration": 6, "velocity": 83}, {"time": 1299, "pitch": 53, "duration": 6, "velocity": 80}, {"time": 1305, "pitch": 58, "duration": 7, "velocity": 79}, {"time": 1305, "pitch": 62, "duration": 9, "velocity": 85}, {"time": 1311, "pitch": 53, "duration": 3, "velocity": 85}, {"time": 1317, "pitch": 41, "duration": 22, "velocity": 82}, {"time": 1317, "pitch": 53, "duration": 16, "velocity": 79}, {"time": 1317, "pitch": 57, "duration": 11, "velocity": 79}, {"time": 1323, "pitch": 48, "duration": 5, "velocity": 74}, {"time": 1326, "pitch": 60, "duration": 8, "velocity": 81}, {"time": 1329, "pitch": 48, "duration": 9, "velocity": 78}, {"time": 1332, "pitch": 65, "duration": 5, "velocity": 87}, {"time": 1335, "pitch": 53, "duration": 4, "velocity": 82}, {"time": 1341, "pitch": 41, "duration": 19, "velocity": 84}, {"time": 1341, "pitch": 53, "duration": 10, "velocity": 77}, {"time": 1341, "pitch": 57, "duration": 9, "velocity": 76}, {"time": 1341, "pitch": 60, "duration": 10, "velocity": 78}, {"time": 1353, "pitch": 53, "duration": 1, "velocity": 76}, {"time": 1353, "pitch": 57, "duration": 11, "velocity": 88}, {"time": 1353, "pitch": 60, "duration": 11, "velocity": 87}, {"time": 1353, "pitch": 65, "duration": 12, "velocity": 85}, {"time": 1359, "pitch": 53, "duration": 5, "velocity": 78}, {"time": 1365, "pitch": 43, "duration": 20, "velocity": 88}, {"time": 1365, "pitch": 55, "duration": 8, "velocity": 83}, {"time": 1365, "pitch": 58, "duration": 7, "velocity": 79}, {"time": 1365, "pitch": 62, "duration": 7, "velocity": 85}, {"time": 1371, "pitch": 50, "duration": 7, "velocity": 75}, {"time": 1377, "pitch": 55, "duration": 4, "velocity": 87}, {"time": 1377, "pitch": 58, "duration": 4, "velocity": 89}, {"time": 1377, "pitch": 62, "duration": 7, "velocity": 87}, {"time": 1380, "pitch": 50, "duration": 4, "velocity": 83}, {"time": 1383, "pitch": 55, "duration": 2, "velocity": 88}, {"time": 1386, "pitch": 57, "duration": 2, "velocity": 88}, {"time": 1389, "pitch": 46, "duration": 21, "velocity": 83}, {"time": 1389, "pitch": 53, "duration": 4, "velocity": 76}, {"time": 1389, "pitch": 58, "duration": 5, "velocity": 64}, {"time": 1395, "pitch": 53, "duration": 4, "velocity": 69}, {"time": 1401, "pitch": 53, "duration": 3, "velocity": 82}, {"time": 1401, "pitch": 58, "duration": 5, "velocity": 86}, {"time": 1401, "pitch": 62, "duration": 11, "velocity": 88}, {"time": 1413, "pitch": 41, "duration": 18, "velocity": 79}, {"time": 1413, "pitch": 53, "duration": 6, "velocity": 76}, {"time": 1413, "pitch": 57, "duration": 6, "velocity": 73}, {"time": 1413, "pitch": 60, "duration": 7, "velocity": 79}, {"time": 1419, "pitch": 48, "duration": 10, "velocity": 69}, {"time": 1425, "pitch": 53, "duration": 1, "velocity": 62}, {"time": 1425, "pitch": 57, "duration": 6, "velocity": 84}, {"time": 1425, "pitch": 60, "duration": 6, "velocity": 87}, {"time": 1425, "pitch": 65, "duration": 7, "velocity": 85}, {"time": 1431, "pitch": 53, "duration": 2, "velocity": 87}, {"time": 1437, "pitch": 48, "duration": 19, "velocity": 86}, {"time": 1437, "pitch": 55, "duration": 3, "velocity": 76}, {"time": 1437, "pitch": 60, "duration": 8, "velocity": 82}, {"time": 1443, "pitch": 55, "duration": 2, "velocity": 81}, {"time": 1449, "pitch": 55, "duration": 4, "velocity": 87}, {"time": 1449, "pitch": 60, "duration": 4, "velocity": 88}, {"time": 1449, "pitch": 64, "duration": 6, "velocity": 90}, {"time": 1455, "pitch": 60, "duration": 2, "velocity": 80}, {"time": 1461, "pitch": 43, "duration": 22, "velocity": 86}, {"time": 1461, "pitch": 55, "duration": 6, "velocity": 82}, {"time": 1461, "pitch": 58, "duration": 7, "velocity": 81}, {"time": 1467, "pitch": 50, "duration": 7, "velocity": 71}, {"time": 1473, "pitch": 55, "duration": 3, "velocity": 81}, {"time": 1473, "pitch": 58, "duration": 3, "velocity": 85}, {"time": 1473, "pitch": 62, "duration": 3, "velocity": 87}, {"time": 1476, "pitch": 50, "duration": 7, "velocity": 82}, {"time": 1479, "pitch": 55, "duration": 4, "velocity": 87}, {"time": 1482, "pitch": 57, "duration": 4, "velocity": 88}, {"time": 1485, "pitch": 46, "duration": 18, "velocity": 88}, {"time": 1485, "pitch": 58, "duration": 6, "velocity": 83}, {"time": 1491, "pitch": 53, "duration": 6, "velocity": 80}, {"time": 1497, "pitch": 58, "duration": 7, "velocity": 79}, {"time": 1497, "pitch": 62, "duration": 9, "velocity": 85}, {"time": 1503, "pitch": 53, "duration": 3, "velocity": 85}, {"time": 1509, "pitch": 41, "duration": 22, "velocity": 82}, {"time": 1509, "pitch": 53, "duration": 16, "velocity": 79}, {"time": 1509, "pitch": 57, "duration": 11, "velocity": 79}, {"time": 1515, "pitch": 48, "duration": 5, "velocity": 74}, {"time": 1518, "pitch": 60, "duration": 8, "velocity": 81}, {"time": 1521, "pitch": 48, "duration": 9, "velocity": 78}, {"time": 1524, "pitch": 65, "duration": 5, "velocity": 87}, {"time": 1527, "pitch": 53, "duration": 4, "velocity": 82}, {"time": 1533, "pitch": 41, "duration": 19, "velocity": 84}, {"time": 1533, "pitch": 53, "duration": 10, "velocity": 77}, {"time": 1533, "pitch": 57, "duration": 9, "velocity": 76}, {"time": 1533, "pitch": 60, "duration": 10, "velocity": 78}, {"time": 1545, "pitch": 53, "duration": 1, "velocity": 76}, {"time": 1545, "pitch": 57, "duration": 11, "velocity": 88}, {"time": 1545, "pitch": 60, "duration": 11, "velocity": 87}, {"time": 1545, "pitch": 65, "duration": 12, "velocity": 85}, {"time": 1551, "pitch": 53, "duration": 5, "velocity": 78}, {"time": 1557, "pitch": 48, "duration": 8, "velocity": 104}, {"time": 1557, "pitch": 55, "duration": 4, "velocity": 86}, {"time": 1557, "pitch": 60, "duration": 4, "velocity": 87}, {"time": 1563, "pitch": 55, "duration": 3, "velocity": 74}, {"time": 1563, "pitch": 60, "duration": 3, "velocity": 80}, {"time": 1569, "pitch": 48, "duration": 9, "velocity": 101}, {"time": 1569, "pitch": 55, "duration": 4, "velocity": 88}, {"time": 1569, "pitch": 60, "duration": 3, "velocity": 88}, {"time": 1569, "pitch": 64, "duration": 3, "velocity": 90}, {"time": 1575, "pitch": 55, "duration": 3, "velocity": 75}, {"time": 1575, "pitch": 60, "duration": 3, "velocity": 77}, {"time": 1575, "pitch": 64, "duration": 3, "velocity": 84}, {"time": 1581, "pitch": 48, "duration": 10, "velocity": 96}, {"time": 1581, "pitch": 55, "duration": 4, "velocity": 85}, {"time": 1581, "pitch": 60, "duration": 8, "velocity": 85}, {"time": 1587, "pitch": 55, "duration": 4, "velocity": 85}, {"time": 1593, "pitch": 48, "duration": 2, "velocity": 92}, {"time": 1593, "pitch": 55, "duration": 3, "velocity": 91}, {"time": 1593, "pitch": 60, "duration": 3, "velocity": 89}, {"time": 1599, "pitch": 55, "duration": 3, "velocity": 88}, {"time": 1599, "pitch": 60, "duration": 5, "velocity": 89}, {"time": 1605, "pitch": 38, "duration": 1, "velocity": 91}, {"time": 1605, "pitch": 57, "duration": 4, "velocity": 83}, {"time": 1605, "pitch": 62, "duration": 4, "velocity": 87}, {"time": 1611, "pitch": 50, "duration": 2, "velocity": 88}, {"time": 1611, "pitch": 57, "duration": 2, "velocity": 78}, {"time": 1611, "pitch": 62, "duration": 2, "velocity": 82}, {"time": 1617, "pitch": 50, "duration": 2, "velocity": 89}, {"time": 1617, "pitch": 57, "duration": 3, "velocity": 83}, {"time": 1617, "pitch": 62, "duration": 3, "velocity": 79}, {"time": 1617, "pitch": 66, "duration": 3, "velocity": 79}, {"time": 1623, "pitch": 50, "duration": 3, "velocity": 88}, {"time": 1623, "pitch": 57, "duration": 3, "velocity": 87}, {"time": 1623, "pitch": 62, "duration": 3, "velocity": 87}, {"time": 1623, "pitch": 66, "duration": 4, "velocity": 87}, {"time": 1629, "pitch": 50, "duration": 5, "velocity": 92}, {"time": 1629, "pitch": 57, "duration": 5, "velocity": 89}, {"time": 1629, "pitch": 62, "duration": 10, "velocity": 87}, {"time": 1629, "pitch": 66, "duration": 10, "velocity": 87}, {"time": 1629, "pitch": 69, "duration": 10, "velocity": 87}, {"time": 1635, "pitch": 50, "duration": 2, "velocity": 88}, {"time": 1638, "pitch": 50, "duration": 15, "velocity": 88}, {"time": 1641, "pitch": 57, "duration": 11, "velocity": 96}, {"time": 1644, "pitch": 62, "duration": 8, "velocity": 91}, {"time": 1647, "pitch": 66, "duration": 5, "velocity": 93}, {"time": 1650, "pitch": 74, "duration": 2, "velocity": 88}, {"time": 1653, "pitch": 43, "duration": 22, "velocity": 91}, {"time": 1656, "pitch": 50, "duration": 20, "velocity": 82}, {"time": 1659, "pitch": 58, "duration": 4, "velocity": 81}, {"time": 1662, "pitch": 55, "duration": 2, "velocity": 87}, {"time": 1665, "pitch": 55, "duration": 2, "velocity": 87}, {"time": 1665, "pitch": 58, "duration": 4, "velocity": 89}, {"time": 1665, "pitch": 62, "duration": 4, "velocity": 90}, {"time": 1668, "pitch": 55, "duration": 1, "velocity": 75}, {"time": 1671, "pitch": 67, "duration": 5, "velocity": 88}, {"time": 1674, "pitch": 55, "duration": 4, "velocity": 79}, {"time": 1677, "pitch": 46, "duration": 17, "velocity": 92}, {"time": 1680, "pitch": 53, "duration": 2, "velocity": 77}, {"time": 1683, "pitch": 58, "duration": 3, "velocity": 70}, {"time": 1686, "pitch": 53, "duration": 3, "velocity": 75}, {"time": 1689, "pitch": 58, "duration": 4, "velocity": 81}, {"time": 1689, "pitch": 62, "duration": 5, "velocity": 90}, {"time": 1692, "pitch": 53, "duration": 3, "velocity": 87}, {"time": 1695, "pitch": 58, "duration": 4, "velocity": 82}, {"time": 1698, "pitch": 53, "duration": 2, "velocity": 87}, {"time": 1701, "pitch": 41, "duration": 21, "velocity": 88}, {"time": 1701, "pitch": 53, "duration": 3, "velocity": 88}, {"time": 1701, "pitch": 57, "duration": 3, "velocity": 89}, {"time": 1704, "pitch": 48, "duration": 18, "velocity": 84}, {"time": 1707, "pitch": 60, "duration": 4, "velocity": 86}, {"time": 1710, "pitch": 53, "duration": 2, "velocity": 79}, {"time": 1713, "pitch": 53, "duration": 1, "velocity": 88}, {"time": 1713, "pitch": 57, "duration": 4, "velocity": 94}, {"time": 1713, "pitch": 60, "duration": 4, "velocity": 101}, {"time": 1713, "pitch": 65, "duration": 4, "velocity": 89}, {"time": 1716, "pitch": 53, "duration": 2, "velocity": 77}, {"time": 1719, "pitch": 57, "duration": 4, "velocity": 77}, {"time": 1719, "pitch": 60, "duration": 5, "velocity": 82}, {"time": 1722, "pitch": 53, "duration": 3, "velocity": 80}, {"time": 1725, "pitch": 43, "duration": 21, "velocity": 89}, {"time": 1728, "pitch": 50, "duration": 17, "velocity": 80}, {"time": 1731, "pitch": 58, "duration": 4, "velocity": 81}, {"time": 1734, "pitch": 55, "duration": 2, "velocity": 87}, {"time": 1737, "pitch": 55, "duration": 1, "velocity": 89}, {"time": 1737, "pitch": 58, "duration": 4, "velocity": 90}, {"time": 1737, "pitch": 62, "duration": 4, "velocity": 90}, {"time": 1740, "pitch": 55, "duration": 2, "velocity": 76}, {"time": 1743, "pitch": 58, "duration": 5, "velocity": 88}, {"time": 1743, "pitch": 62, "duration": 4, "velocity": 89}, {"time": 1743, "pitch": 67, "duration": 4, "velocity": 84}, {"time": 1746, "pitch": 55, "duration": 3, "velocity": 88}, {"time": 1749, "pitch": 39, "duration": 15, "velocity": 93}, {"time": 1749, "pitch": 58, "duration": 4, "velocity": 80}, {"time": 1752, "pitch": 46, "duration": 11, "velocity": 77}, {"time": 1752, "pitch": 55, "duration": 3, "velocity": 77}, {"time": 1755, "pitch": 58, "duration": 3, "velocity": 74}, {"time": 1758, "pitch": 55, "duration": 2, "velocity": 76}, {"time": 1761, "pitch": 55, "duration": 1, "velocity": 82}, {"time": 1761, "pitch": 58, "duration": 4, "velocity": 96}, {"time": 1761, "pitch": 63, "duration": 4, "velocity": 91}, {"time": 1764, "pitch": 46, "duration": 2, "velocity": 85}, {"time": 1767, "pitch": 55, "duration": 4, "velocity": 87}, {"time": 1773, "pitch": 46, "duration": 22, "velocity": 90}, {"time": 1773, "pitch": 53, "duration": 2, "velocity": 87}, {"time": 1773, "pitch": 58, "duration": 4, "velocity": 82}, {"time": 1776, "pitch": 53, "duration": 3, "velocity": 73}, {"time": 1779, "pitch": 58, "duration": 4, "velocity": 72}, {"time": 1782, "pitch": 53, "duration": 4, "velocity": 76}, {"time": 1785, "pitch": 58, "duration": 4, "velocity": 78}, {"time": 1785, "pitch": 62, "duration": 7, "velocity": 89}, {"time": 1788, "pitch": 53, "duration": 4, "velocity": 83}, {"time": 1791, "pitch": 58, "duration": 4, "velocity": 91}, {"time": 1794, "pitch": 53, "duration": 2, "velocity": 87}, {"time": 1797, "pitch": 41, "duration": 21, "velocity": 92}, {"time": 1797, "pitch": 53, "duration": 3, "velocity": 88}, {"time": 1797, "pitch": 57, "duration": 4, "velocity": 89}, {"time": 1800, "pitch": 48, "duration": 11, "velocity": 74}, {"time": 1803, "pitch": 57, "duration": 1, "velocity": 73}, {"time": 1803, "pitch": 60, "duration": 4, "velocity": 89}, {"time": 1806, "pitch": 57, "duration": 1, "velocity": 80}, {"time": 1809, "pitch": 53, "duration": 5, "velocity": 83}, {"time": 1809, "pitch": 57, "duration": 4, "velocity": 89}, {"time": 1809, "pitch": 60, "duration": 5, "velocity": 89}, {"time": 1809, "pitch": 65, "duration": 5, "velocity": 87}, {"time": 1815, "pitch": 48, "duration": 4, "velocity": 90}, {"time": 1818, "pitch": 53, "duration": 3, "velocity": 87}, {"time": 1818, "pitch": 57, "duration": 3, "velocity": 85}, {"time": 1818, "pitch": 60, "duration": 4, "velocity": 85}, {"time": 1818, "pitch": 65, "duration": 4, "velocity": 83}, {"time": 1821, "pitch": 43, "duration": 18, "velocity": 89}, {"time": 1824, "pitch": 50, "duration": 11, "velocity": 84}, {"time": 1827, "pitch": 58, "duration": 4, "velocity": 87}, {"time": 1827, "pitch": 62, "duration": 4, "velocity": 86}, {"time": 1830, "pitch": 55, "duration": 2, "velocity": 88}, {"time": 1833, "pitch": 55, "duration": 1, "velocity": 85}, {"time": 1833, "pitch": 58, "duration": 4, "velocity": 94}, {"time": 1833, "pitch": 62, "duration": 4, "velocity": 98}, {"time": 1833, "pitch": 67, "duration": 4, "velocity": 91}, {"time": 1836, "pitch": 50, "duration": 3, "velocity": 92}, {"time": 1839, "pitch": 55, "duration": 2, "velocity": 93}, {"time": 1842, "pitch": 58, "duration": 2, "velocity": 88}, {"time": 1845, "pitch": 39, "duration": 16, "velocity": 93}, {"time": 1845, "pitch": 55, "duration": 3, "velocity": 83}, {"time": 1845, "pitch": 58, "duration": 4, "velocity": 80}, {"time": 1848, "pitch": 46, "duration": 12, "velocity": 79}, {"time": 1851, "pitch": 55, "duration": 4, "velocity": 88}, {"time": 1854, "pitch": 58, "duration": 2, "velocity": 80}, {"time": 1857, "pitch": 55, "duration": 3, "velocity": 87}, {"time": 1857, "pitch": 58, "duration": 4, "velocity": 93}, {"time": 1857, "pitch": 63, "duration": 4, "velocity": 93}, {"time": 1860, "pitch": 46, "duration": 2, "velocity": 77}, {"time": 1863, "pitch": 58, "duration": 4, "velocity": 87}, {"time": 1866, "pitch": 55, "duration": 3, "velocity": 87}, {"time": 1869, "pitch": 46, "duration": 22, "velocity": 89}, {"time": 1869, "pitch": 58, "duration": 4, "velocity": 87}, {"time": 1872, "pitch": 53, "duration": 3, "velocity": 82}, {"time": 1875, "pitch": 58, "duration": 2, "velocity": 78}, {"time": 1878, "pitch": 53, "duration": 3, "velocity": 75}, {"time": 1881, "pitch": 58, "duration": 2, "velocity": 74}, {"time": 1881, "pitch": 65, "duration": 12, "velocity": 88}, {"time": 1884, "pitch": 53, "duration": 3, "velocity": 84}, {"time": 1887, "pitch": 58, "duration": 4, "velocity": 80}, {"time": 1890, "pitch": 53, "duration": 4, "velocity": 89}, {"time": 1893, "pitch": 41, "duration": 20, "velocity": 92}, {"time": 1896, "pitch": 48, "duration": 16, "velocity": 76}, {"time": 1899, "pitch": 57, "duration": 3, "velocity": 75}, {"time": 1899, "pitch": 60, "duration": 4, "velocity": 76}, {"time": 1902, "pitch": 53, "duration": 2, "velocity": 70}, {"time": 1905, "pitch": 53, "duration": 4, "velocity": 87}, {"time": 1905, "pitch": 65, "duration": 4, "velocity": 88}, {"time": 1908, "pitch": 60, "duration": 4, "velocity": 86}, {"time": 1911, "pitch": 57, "duration": 5, "velocity": 83}, {"time": 1914, "pitch": 53, "duration": 3, "velocity": 87}, {"time": 1917, "pitch": 43, "duration": 19, "velocity": 89}, {"time": 1920, "pitch": 50, "duration": 13, "velocity": 76}, {"time": 1923, "pitch": 58, "duration": 4, "velocity": 74}, {"time": 1923, "pitch": 62, "duration": 4, "velocity": 79}, {"time": 1926, "pitch": 55, "duration": 2, "velocity": 87}, {"time": 1929, "pitch": 55, "duration": 1, "velocity": 79}, {"time": 1929, "pitch": 58, "duration": 3, "velocity": 90}, {"time": 1929, "pitch": 62, "duration": 5, "velocity": 92}, {"time": 1929, "pitch": 67, "duration": 7, "velocity": 88}, {"time": 1935, "pitch": 58, "duration": 4, "velocity": 86}, {"time": 1938, "pitch": 55, "duration": 3, "velocity": 88}, {"time": 1941, "pitch": 39, "duration": 15, "velocity": 88}, {"time": 1941, "pitch": 58, "duration": 4, "velocity": 76}, {"time": 1941, "pitch": 63, "duration": 4, "velocity": 73}, {"time": 1944, "pitch": 46, "duration": 13, "velocity": 79}, {"time": 1947, "pitch": 55, "duration": 7, "velocity": 83}, {"time": 1950, "pitch": 58, "duration": 5, "velocity": 90}, {"time": 1953, "pitch": 67, "duration": 6, "velocity": 89}, {"time": 1956, "pitch": 63, "duration": 4, "velocity": 92}, {"time": 1959, "pitch": 58, "duration": 3, "velocity": 89}, {"time": 1962, "pitch": 55, "duration": 2, "velocity": 88}, {"time": 1965, "pitch": 41, "duration": 17, "velocity": 87}, {"time": 1965, "pitch": 53, "duration": 7, "velocity": 87}, {"time": 1965, "pitch": 57, "duration": 7, "velocity": 88}, {"time": 1968, "pitch": 48, "duration": 13, "velocity": 80}, {"time": 1971, "pitch": 60, "duration": 5, "velocity": 87}, {"time": 1974, "pitch": 57, "duration": 2, "velocity": 87}, {"time": 1977, "pitch": 53, "duration": 1, "velocity": 55}, {"time": 1977, "pitch": 57, "duration": 1, "velocity": 63}, {"time": 1977, "pitch": 65, "duration": 7, "velocity": 89}, {"time": 1980, "pitch": 60, "duration": 4, "velocity": 88}, {"time": 1983, "pitch": 57, "duration": 4, "velocity": 87}, {"time": 1986, "pitch": 53, "duration": 1, "velocity": 81}, {"time": 1989, "pitch": 43, "duration": 22, "velocity": 87}, {"time": 1989, "pitch": 55, "duration": 7, "velocity": 83}, {"time": 1989, "pitch": 58, "duration": 7, "velocity": 73}, {"time": 1992, "pitch": 50, "duration": 19, "velocity": 81}, {"time": 1995, "pitch": 62, "duration": 4, "velocity": 83}, {"time": 1998, "pitch": 55, "duration": 2, "velocity": 78}, {"time": 2001, "pitch": 55, "duration": 5, "velocity": 89}, {"time": 2001, "pitch": 62, "duration": 4, "velocity": 90}, {"time": 2001, "pitch": 67, "duration": 4, "velocity": 89}, {"time": 2007, "pitch": 58, "duration": 4, "velocity": 83}, {"time": 2007, "pitch": 62, "duration": 4, "velocity": 86}, {"time": 2010, "pitch": 55, "duration": 2, "velocity": 82}, {"time": 2013, "pitch": 43, "duration": 19, "velocity": 90}, {"time": 2013, "pitch": 55, "duration": 4, "velocity": 86}, {"time": 2013, "pitch": 58, "duration": 6, "velocity": 81}, {"time": 2013, "pitch": 62, "duration": 8, "velocity": 88}, {"time": 2016, "pitch": 50, "duration": 10, "velocity": 77}, {"time": 2019, "pitch": 55, "duration": 5, "velocity": 84}, {"time": 2022, "pitch": 58, "duration": 2, "velocity": 94}, {"time": 2022, "pitch": 62, "duration": 1, "velocity": 65}, {"time": 2025, "pitch": 55, "duration": 4, "velocity": 87}, {"time": 2025, "pitch": 58, "duration": 5, "velocity": 103}, {"time": 2025, "pitch": 62, "duration": 5, "velocity": 103}, {"time": 2025, "pitch": 67, "duration": 5, "velocity": 89}, {"time": 2028, "pitch": 50, "duration": 5, "velocity": 89}, {"time": 2031, "pitch": 55, "duration": 3, "velocity": 89}, {"time": 2037, "pitch": 48, "duration": 10, "velocity": 96}, {"time": 2037, "pitch": 55, "duration": 3, "velocity": 89}, {"time": 2037, "pitch": 60, "duration": 4, "velocity": 88}, {"time": 2043, "pitch": 55, "duration": 3, "velocity": 73}, {"time": 2043, "pitch": 60, "duration": 3, "velocity": 75}, {"time": 2043, "pitch": 64, "duration": 3, "velocity": 82}, {"time": 2049, "pitch": 48, "duration": 10, "velocity": 108}, {"time": 2049, "pitch": 55, "duration": 2, "velocity": 87}, {"time": 2049, "pitch": 60, "duration": 4, "velocity": 87}, {"time": 2049, "pitch": 64, "duration": 4, "velocity": 89}, {"time": 2052, "pitch": 55, "duration": 2, "velocity": 88}, {"time": 2055, "pitch": 60, "duration": 3, "velocity": 77}, {"time": 2055, "pitch": 64, "duration": 2, "velocity": 83}, {"time": 2058, "pitch": 55, "duration": 2, "velocity": 77}, {"time": 2061, "pitch": 48, "duration": 11, "velocity": 92}, {"time": 2061, "pitch": 55, "duration": 1, "velocity": 83}, {"time": 2061, "pitch": 60, "duration": 4, "velocity": 86}, {"time": 2061, "pitch": 64, "duration": 4, "velocity": 89}, {"time": 2064, "pitch": 55, "duration": 3, "velocity": 81}, {"time": 2067, "pitch": 60, "duration": 4, "velocity": 81}, {"time": 2070, "pitch": 55, "duration": 2, "velocity": 88}, {"time": 2073, "pitch": 48, "duration": 2, "velocity": 89}, {"time": 2073, "pitch": 55, "duration": 1, "velocity": 84}, {"time": 2073, "pitch": 60, "duration": 4, "velocity": 87}, {"time": 2073, "pitch": 64, "duration": 4, "velocity": 89}, {"time": 2076, "pitch": 55, "duration": 2, "velocity": 86}, {"time": 2079, "pitch": 60, "duration": 2, "velocity": 80}, {"time": 2082, "pitch": 55, "duration": 2, "velocity": 82}, {"time": 2085, "pitch": 43, "duration": 23, "velocity": 89}, {"time": 2085, "pitch": 55, "duration": 1, "velocity": 77}, {"time": 2085, "pitch": 58, "duration": 3, "velocity": 79}, {"time": 2085, "pitch": 62, "duration": 3, "velocity": 81}, {"time": 2088, "pitch": 55, "duration": 2, "velocity": 68}, {"time": 2091, "pitch": 58, "duration": 3, "velocity": 60}, {"time": 2091, "pitch": 62, "duration": 3, "velocity": 80}, {"time": 2094, "pitch": 55, "duration": 2, "velocity": 78}, {"time": 2097, "pitch": 58, "duration": 4, "velocity": 90}, {"time": 2097, "pitch": 62, "duration": 3, "velocity": 91}, {"time": 2097, "pitch": 67, "duration": 4, "velocity": 88}, {"time": 2100, "pitch": 55, "duration": 2, "velocity": 83}, {"time": 2103, "pitch": 58, "duration": 4, "velocity": 81}, {"time": 2106, "pitch": 55, "duration": 4, "velocity": 82}, {"time": 2109, "pitch": 43, "duration": 22, "velocity": 87}, {"time": 2109, "pitch": 58, "duration": 4, "velocity": 80}, {"time": 2109, "pitch": 62, "duration": 4, "velocity": 83}, {"time": 2112, "pitch": 50, "duration": 12, "velocity": 77}, {"time": 2112, "pitch": 55, "duration": 3, "velocity": 81}, {"time": 2115, "pitch": 58, "duration": 2, "velocity": 76}, {"time": 2115, "pitch": 62, "duration": 2, "velocity": 79}, {"time": 2118, "pitch": 55, "duration": 4, "velocity": 87}, {"time": 2121, "pitch": 58, "duration": 4, "velocity": 87}, {"time": 2121, "pitch": 62, "duration": 4, "velocity": 89}, {"time": 2121, "pitch": 67, "duration": 4, "velocity": 87}, {"time": 2124, "pitch": 55, "duration": 2, "velocity": 83}, {"time": 2127, "pitch": 58, "duration": 3, "velocity": 80}, {"time": 2127, "pitch": 62, "duration": 4, "velocity": 82}, {"time": 2130, "pitch": 55, "duration": 2, "velocity": 82}, {"time": 2133, "pitch": 58, "duration": 3, "velocity": 87}, {"time": 2133, "pitch": 39, "duration": 20, "velocity": 86}, {"time": 2133, "pitch": 63, "duration": 4, "velocity": 82}, {"time": 2136, "pitch": 55, "duration": 2, "velocity": 87}, {"time": 2139, "pitch": 58, "duration": 3, "velocity": 80}, {"time": 2142, "pitch": 55, "duration": 2, "velocity": 77}, {"time": 2145, "pitch": 58, "duration": 4, "velocity": 91}, {"time": 2145, "pitch": 63, "duration": 5, "velocity": 96}, {"time": 2148, "pitch": 55, "duration": 3, "velocity": 82}, {"time": 2151, "pitch": 58, "duration": 3, "velocity": 84}, {"time": 2154, "pitch": 55, "duration": 2, "velocity": 81}, {"time": 2157, "pitch": 46, "duration": 14, "velocity": 90}, {"time": 2157, "pitch": 58, "duration": 4, "velocity": 78}, {"time": 2157, "pitch": 62, "duration": 4, "velocity": 85}, {"time": 2160, "pitch": 53, "duration": 3, "velocity": 78}, {"time": 2163, "pitch": 58, "duration": 3, "velocity": 75}, {"time": 2166, "pitch": 53, "duration": 2, "velocity": 76}, {"time": 2169, "pitch": 58, "duration": 4, "velocity": 90}, {"time": 2169, "pitch": 62, "duration": 4, "velocity": 89}, {"time": 2172, "pitch": 53, "duration": 2, "velocity": 80}, {"time": 2175, "pitch": 58, "duration": 3, "velocity": 87}, {"time": 2175, "pitch": 62, "duration": 4, "velocity": 75}, {"time": 2178, "pitch": 53, "duration": 2, "velocity": 83}, {"time": 2181, "pitch": 57, "duration": 4, "velocity": 82}, {"time": 2181, "pitch": 53, "duration": 3, "velocity": 84}, {"time": 2181, "pitch": 41, "duration": 19, "velocity": 89}, {"time": 2184, "pitch": 48, "duration": 11, "velocity": 87}, {"time": 2187, "pitch": 57, "duration": 1, "velocity": 81}, {"time": 2187, "pitch": 60, "duration": 4, "velocity": 85}, {"time": 2190, "pitch": 53, "duration": 2, "velocity": 82}, {"time": 2193, "pitch": 57, "duration": 4, "velocity": 91}, {"time": 2193, "pitch": 65, "duration": 5, "velocity": 87}, {"time": 2193, "pitch": 60, "duration": 4, "velocity": 92}, {"time": 2193, "pitch": 53, "duration": 1, "velocity": 82}, {"time": 2196, "pitch": 53, "duration": 1, "velocity": 77}, {"time": 2199, "pitch": 48, "duration": 1, "velocity": 90}, {"time": 2203, "pitch": 57, "duration": 1, "velocity": 61}, {"time": 2205, "pitch": 62, "duration": 4, "velocity": 89}, {"time": 2205, "pitch": 66, "duration": 4, "velocity": 89}, {"time": 2205, "pitch": 38, "duration": 23, "velocity": 90}, {"time": 2208, "pitch": 57, "duration": 2, "velocity": 79}, {"time": 2211, "pitch": 62, "duration": 4, "velocity": 80}, {"time": 2214, "pitch": 57, "duration": 2, "velocity": 79}, {"time": 2217, "pitch": 62, "duration": 4, "velocity": 91}, {"time": 2217, "pitch": 57, "duration": 2, "velocity": 80}, {"time": 2217, "pitch": 66, "duration": 4, "velocity": 90}, {"time": 2220, "pitch": 57, "duration": 1, "velocity": 76}, {"time": 2223, "pitch": 62, "duration": 2, "velocity": 89}, {"time": 2223, "pitch": 66, "duration": 2, "velocity": 90}, {"time": 2226, "pitch": 57, "duration": 2, "velocity": 88}, {"time": 2226, "pitch": 62, "duration": 1, "velocity": 73}, {"time": 2229, "pitch": 57, "duration": 22, "velocity": 88}, {"time": 2229, "pitch": 62, "duration": 22, "velocity": 89}, {"time": 2229, "pitch": 66, "duration": 22, "velocity": 89}, {"time": 2229, "pitch": 38, "duration": 22, "velocity": 94}, {"time": 2253, "pitch": 43, "duration": 22, "velocity": 91}, {"time": 2256, "pitch": 50, "duration": 20, "velocity": 82}, {"time": 2259, "pitch": 58, "duration": 4, "velocity": 81}, {"time": 2262, "pitch": 55, "duration": 2, "velocity": 87}, {"time": 2265, "pitch": 55, "duration": 2, "velocity": 87}, {"time": 2265, "pitch": 58, "duration": 4, "velocity": 89}, {"time": 2265, "pitch": 62, "duration": 4, "velocity": 90}, {"time": 2268, "pitch": 55, "duration": 1, "velocity": 75}, {"time": 2271, "pitch": 67, "duration": 5, "velocity": 88}, {"time": 2274, "pitch": 55, "duration": 4, "velocity": 79}, {"time": 2277, "pitch": 46, "duration": 17, "velocity": 92}, {"time": 2280, "pitch": 53, "duration": 2, "velocity": 77}, {"time": 2283, "pitch": 58, "duration": 3, "velocity": 70}, {"time": 2286, "pitch": 53, "duration": 3, "velocity": 75}, {"time": 2289, "pitch": 58, "duration": 4, "velocity": 81}, {"time": 2289, "pitch": 62, "duration": 5, "velocity": 90}, {"time": 2292, "pitch": 53, "duration": 3, "velocity": 87}, {"time": 2295, "pitch": 58, "duration": 4, "velocity": 82}, {"time": 2298, "pitch": 53, "duration": 2, "velocity": 87}, {"time": 2301, "pitch": 41, "duration": 21, "velocity": 88}, {"time": 2301, "pitch": 53, "duration": 3, "velocity": 88}, {"time": 2301, "pitch": 57, "duration": 3, "velocity": 89}, {"time": 2304, "pitch": 48, "duration": 18, "velocity": 84}, {"time": 2307, "pitch": 60, "duration": 4, "velocity": 86}, {"time": 2310, "pitch": 53, "duration": 2, "velocity": 79}, {"time": 2313, "pitch": 53, "duration": 1, "velocity": 88}, {"time": 2313, "pitch": 57, "duration": 4, "velocity": 94}, {"time": 2313, "pitch": 60, "duration": 4, "velocity": 101}, {"time": 2313, "pitch": 65, "duration": 4, "velocity": 89}, {"time": 2316, "pitch": 53, "duration": 2, "velocity": 77}, {"time": 2319, "pitch": 57, "duration": 4, "velocity": 77}, {"time": 2319, "pitch": 60, "duration": 5, "velocity": 82}, {"time": 2322, "pitch": 53, "duration": 3, "velocity": 80}, {"time": 2325, "pitch": 43, "duration": 21, "velocity": 89}, {"time": 2328, "pitch": 50, "duration": 17, "velocity": 80}, {"time": 2331, "pitch": 58, "duration": 4, "velocity": 81}, {"time": 2334, "pitch": 55, "duration": 2, "velocity": 87}, {"time": 2337, "pitch": 55, "duration": 1, "velocity": 89}, {"time": 2337, "pitch": 58, "duration": 4, "velocity": 90}, {"time": 2337, "pitch": 62, "duration": 4, "velocity": 90}, {"time": 2340, "pitch": 55, "duration": 2, "velocity": 76}, {"time": 2343, "pitch": 58, "duration": 5, "velocity": 88}, {"time": 2343, "pitch": 62, "duration": 4, "velocity": 89}, {"time": 2343, "pitch": 67, "duration": 4, "velocity": 84}, {"time": 2346, "pitch": 55, "duration": 3, "velocity": 88}, {"time": 2349, "pitch": 39, "duration": 15, "velocity": 93}, {"time": 2349, "pitch": 58, "duration": 4, "velocity": 80}, {"time": 2352, "pitch": 46, "duration": 11, "velocity": 77}, {"time": 2352, "pitch": 55, "duration": 3, "velocity": 77}, {"time": 2355, "pitch": 58, "duration": 3, "velocity": 74}, {"time": 2358, "pitch": 55, "duration": 2, "velocity": 76}, {"time": 2361, "pitch": 55, "duration": 1, "velocity": 82}, {"time": 2361, "pitch": 58, "duration": 4, "velocity": 96}, {"time": 2361, "pitch": 63, "duration": 4, "velocity": 91}, {"time": 2364, "pitch": 46, "duration": 2, "velocity": 85}, {"time": 2367, "pitch": 55, "duration": 4, "velocity": 87}, {"time": 2373, "pitch": 46, "duration": 22, "velocity": 90}, {"time": 2373, "pitch": 53, "duration": 2, "velocity": 87}, {"time": 2373, "pitch": 58, "duration": 4, "velocity": 82}, {"time": 2376, "pitch": 53, "duration": 3, "velocity": 73}, {"time": 2379, "pitch": 58, "duration": 4, "velocity": 72}, {"time": 2382, "pitch": 53, "duration": 4, "velocity": 76}, {"time": 2385, "pitch": 58, "duration": 4, "velocity": 78}, {"time": 2385, "pitch": 62, "duration": 7, "velocity": 89}, {"time": 2388, "pitch": 53, "duration": 4, "velocity": 83}, {"time": 2391, "pitch": 58, "duration": 4, "velocity": 91}, {"time": 2394, "pitch": 53, "duration": 2, "velocity": 87}, {"time": 2397, "pitch": 41, "duration": 21, "velocity": 92}, {"time": 2397, "pitch": 53, "duration": 3, "velocity": 88}, {"time": 2397, "pitch": 57, "duration": 4, "velocity": 89}, {"time": 2400, "pitch": 48, "duration": 11, "velocity": 74}, {"time": 2403, "pitch": 57, "duration": 1, "velocity": 73}, {"time": 2403, "pitch": 60, "duration": 4, "velocity": 89}, {"time": 2406, "pitch": 57, "duration": 1, "velocity": 80}, {"time": 2409, "pitch": 53, "duration": 5, "velocity": 83}, {"time": 2409, "pitch": 57, "duration": 4, "velocity": 89}, {"time": 2409, "pitch": 60, "duration": 5, "velocity": 89}, {"time": 2409, "pitch": 65, "duration": 5, "velocity": 87}, {"time": 2415, "pitch": 48, "duration": 4, "velocity": 90}, {"time": 2418, "pitch": 53, "duration": 3, "velocity": 87}, {"time": 2418, "pitch": 57, "duration": 3, "velocity": 85}, {"time": 2418, "pitch": 60, "duration": 4, "velocity": 85}, {"time": 2418, "pitch": 65, "duration": 4, "velocity": 83}, {"time": 2421, "pitch": 43, "duration": 18, "velocity": 89}, {"time": 2424, "pitch": 50, "duration": 11, "velocity": 84}, {"time": 2427, "pitch": 58, "duration": 4, "velocity": 87}, {"time": 2427, "pitch": 62, "duration": 4, "velocity": 86}, {"time": 2430, "pitch": 55, "duration": 2, "velocity": 88}, {"time": 2433, "pitch": 55, "duration": 1, "velocity": 85}, {"time": 2433, "pitch": 58, "duration": 4, "velocity": 94}, {"time": 2433, "pitch": 62, "duration": 4, "velocity": 98}, {"time": 2433, "pitch": 67, "duration": 4, "velocity": 91}, {"time": 2436, "pitch": 50, "duration": 3, "velocity": 92}, {"time": 2439, "pitch": 55, "duration": 2, "velocity": 93}, {"time": 2442, "pitch": 58, "duration": 2, "velocity": 88}, {"time": 2445, "pitch": 39, "duration": 16, "velocity": 93}, {"time": 2445, "pitch": 55, "duration": 3, "velocity": 83}, {"time": 2445, "pitch": 58, "duration": 4, "velocity": 80}, {"time": 2448, "pitch": 46, "duration": 12, "velocity": 79}, {"time": 2451, "pitch": 55, "duration": 4, "velocity": 88}, {"time": 2454, "pitch": 58, "duration": 2, "velocity": 80}, {"time": 2457, "pitch": 55, "duration": 3, "velocity": 87}, {"time": 2457, "pitch": 58, "duration": 4, "velocity": 93}, {"time": 2457, "pitch": 63, "duration": 4, "velocity": 93}, {"time": 2460, "pitch": 46, "duration": 2, "velocity": 77}, {"time": 2463, "pitch": 58, "duration": 4, "velocity": 87}, {"time": 2466, "pitch": 55, "duration": 3, "velocity": 87}, {"time": 2469, "pitch": 46, "duration": 22, "velocity": 89}, {"time": 2469, "pitch": 58, "duration": 4, "velocity": 87}, {"time": 2472, "pitch": 53, "duration": 3, "velocity": 82}, {"time": 2475, "pitch": 58, "duration": 2, "velocity": 78}, {"time": 2478, "pitch": 53, "duration": 3, "velocity": 75}, {"time": 2481, "pitch": 58, "duration": 2, "velocity": 74}, {"time": 2481, "pitch": 65, "duration": 12, "velocity": 88}, {"time": 2484, "pitch": 53, "duration": 3, "velocity": 84}, {"time": 2487, "pitch": 58, "duration": 4, "velocity": 80}, {"time": 2490, "pitch": 53, "duration": 4, "velocity": 89}, {"time": 2493, "pitch": 41, "duration": 20, "velocity": 92}, {"time": 2496, "pitch": 48, "duration": 16, "velocity": 76}, {"time": 2499, "pitch": 57, "duration": 3, "velocity": 75}, {"time": 2499, "pitch": 60, "duration": 4, "velocity": 76}, {"time": 2502, "pitch": 53, "duration": 2, "velocity": 70}, {"time": 2505, "pitch": 53, "duration": 4, "velocity": 87}, {"time": 2505, "pitch": 65, "duration": 4, "velocity": 88}, {"time": 2508, "pitch": 60, "duration": 4, "velocity": 86}, {"time": 2511, "pitch": 57, "duration": 5, "velocity": 83}, {"time": 2514, "pitch": 53, "duration": 3, "velocity": 87}, {"time": 2517, "pitch": 43, "duration": 19, "velocity": 89}, {"time": 2520, "pitch": 50, "duration": 13, "velocity": 76}, {"time": 2523, "pitch": 58, "duration": 4, "velocity": 74}, {"time": 2523, "pitch": 62, "duration": 4, "velocity": 79}, {"time": 2526, "pitch": 55, "duration": 2, "velocity": 87}, {"time": 2529, "pitch": 55, "duration": 1, "velocity": 79}, {"time": 2529, "pitch": 58, "duration": 3, "velocity": 90}, {"time": 2529, "pitch": 62, "duration": 5, "velocity": 92}, {"time": 2529, "pitch": 67, "duration": 7, "velocity": 88}, {"time": 2535, "pitch": 58, "duration": 4, "velocity": 86}, {"time": 2538, "pitch": 55, "duration": 3, "velocity": 88}, {"time": 2541, "pitch": 39, "duration": 15, "velocity": 88}, {"time": 2541, "pitch": 58, "duration": 4, "velocity": 76}, {"time": 2541, "pitch": 63, "duration": 4, "velocity": 73}, {"time": 2544, "pitch": 46, "duration": 13, "velocity": 79}, {"time": 2547, "pitch": 55, "duration": 7, "velocity": 83}, {"time": 2550, "pitch": 58, "duration": 5, "velocity": 90}, {"time": 2553, "pitch": 67, "duration": 6, "velocity": 89}, {"time": 2556, "pitch": 63, "duration": 4, "velocity": 92}, {"time": 2559, "pitch": 58, "duration": 3, "velocity": 89}, {"time": 2562, "pitch": 55, "duration": 2, "velocity": 88}, {"time": 2565, "pitch": 41, "duration": 17, "velocity": 87}, {"time": 2565, "pitch": 53, "duration": 7, "velocity": 87}, {"time": 2565, "pitch": 57, "duration": 7, "velocity": 88}, {"time": 2568, "pitch": 48, "duration": 13, "velocity": 80}, {"time": 2571, "pitch": 60, "duration": 5, "velocity": 87}, {"time": 2574, "pitch": 57, "duration": 2, "velocity": 87}, {"time": 2577, "pitch": 53, "duration": 1, "velocity": 55}, {"time": 2577, "pitch": 57, "duration": 1, "velocity": 63}, {"time": 2577, "pitch": 65, "duration": 7, "velocity": 89}, {"time": 2580, "pitch": 60, "duration": 4, "velocity": 88}, {"time": 2583, "pitch": 57, "duration": 4, "velocity": 87}, {"time": 2586, "pitch": 53, "duration": 1, "velocity": 81}, {"time": 2589, "pitch": 43, "duration": 22, "velocity": 87}, {"time": 2589, "pitch": 55, "duration": 7, "velocity": 83}, {"time": 2589, "pitch": 58, "duration": 7, "velocity": 73}, {"time": 2592, "pitch": 50, "duration": 19, "velocity": 81}, {"time": 2595, "pitch": 62, "duration": 4, "velocity": 83}, {"time": 2598, "pitch": 55, "duration": 2, "velocity": 78}, {"time": 2601, "pitch": 55, "duration": 5, "velocity": 89}, {"time": 2601, "pitch": 62, "duration": 4, "velocity": 90}, {"time": 2601, "pitch": 67, "duration": 4, "velocity": 89}, {"time": 2607, "pitch": 58, "duration": 4, "velocity": 83}, {"time": 2607, "pitch": 62, "duration": 4, "velocity": 86}, {"time": 2610, "pitch": 55, "duration": 2, "velocity": 82}, {"time": 2613, "pitch": 43, "duration": 19, "velocity": 90}, {"time": 2613, "pitch": 55, "duration": 4, "velocity": 86}, {"time": 2613, "pitch": 58, "duration": 6, "velocity": 81}, {"time": 2613, "pitch": 62, "duration": 8, "velocity": 88}, {"time": 2616, "pitch": 50, "duration": 10, "velocity": 77}, {"time": 2619, "pitch": 55, "duration": 5, "velocity": 84}, {"time": 2622, "pitch": 58, "duration": 2, "velocity": 94}, {"time": 2622, "pitch": 62, "duration": 1, "velocity": 65}, {"time": 2625, "pitch": 55, "duration": 4, "velocity": 87}, {"time": 2625, "pitch": 58, "duration": 5, "velocity": 103}, {"time": 2625, "pitch": 62, "duration": 5, "velocity": 103}, {"time": 2625, "pitch": 67, "duration": 5, "velocity": 89}, {"time": 2628, "pitch": 50, "duration": 5, "velocity": 89}, {"time": 2631, "pitch": 55, "duration": 3, "velocity": 89}, {"time": 2637, "pitch": 43, "duration": 22, "velocity": 91}, {"time": 2640, "pitch": 50, "duration": 20, "velocity": 82}, {"time": 2643, "pitch": 58, "duration": 4, "velocity": 81}, {"time": 2646, "pitch": 55, "duration": 2, "velocity": 87}, {"time": 2649, "pitch": 55, "duration": 2, "velocity": 87}, {"time": 2649, "pitch": 58, "duration": 4, "velocity": 89}, {"time": 2649, "pitch": 62, "duration": 4, "velocity": 90}, {"time": 2652, "pitch": 55, "duration": 1, "velocity": 75}, {"time": 2655, "pitch": 67, "duration": 5, "velocity": 88}, {"time": 2658, "pitch": 55, "duration": 4, "velocity": 79}, {"time": 2661, "pitch": 46, "duration": 17, "velocity": 92}, {"time": 2664, "pitch": 53, "duration": 2, "velocity": 77}, {"time": 2667, "pitch": 58, "duration": 3, "velocity": 70}, {"time": 2670, "pitch": 53, "duration": 3, "velocity": 75}, {"time": 2673, "pitch": 58, "duration": 4, "velocity": 81}, {"time": 2673, "pitch": 62, "duration": 5, "velocity": 90}, {"time": 2676, "pitch": 53, "duration": 3, "velocity": 87}, {"time": 2679, "pitch": 58, "duration": 4, "velocity": 82}, {"time": 2682, "pitch": 53, "duration": 2, "velocity": 87}, {"time": 2685, "pitch": 41, "duration": 21, "velocity": 88}, {"time": 2685, "pitch": 53, "duration": 3, "velocity": 88}, {"time": 2685, "pitch": 57, "duration": 3, "velocity": 89}, {"time": 2688, "pitch": 48, "duration": 18, "velocity": 84}, {"time": 2691, "pitch": 60, "duration": 4, "velocity": 86}, {"time": 2694, "pitch": 53, "duration": 2, "velocity": 79}, {"time": 2697, "pitch": 53, "duration": 1, "velocity": 88}, {"time": 2697, "pitch": 57, "duration": 4, "velocity": 94}, {"time": 2697, "pitch": 60, "duration": 4, "velocity": 101}, {"time": 2697, "pitch": 65, "duration": 4, "velocity": 89}, {"time": 2700, "pitch": 53, "duration": 2, "velocity": 77}, {"time": 2703, "pitch": 57, "duration": 4, "velocity": 77}, {"time": 2703, "pitch": 60, "duration": 5, "velocity": 82}, {"time": 2706, "pitch": 53, "duration": 3, "velocity": 80}, {"time": 2709, "pitch": 43, "duration": 21, "velocity": 89}, {"time": 2712, "pitch": 50, "duration": 17, "velocity": 80}, {"time": 2715, "pitch": 58, "duration": 4, "velocity": 81}, {"time": 2718, "pitch": 55, "duration": 2, "velocity": 87}, {"time": 2721, "pitch": 55, "duration": 1, "velocity": 89}, {"time": 2721, "pitch": 58, "duration": 4, "velocity": 90}, {"time": 2721, "pitch": 62, "duration": 4, "velocity": 90}, {"time": 2724, "pitch": 55, "duration": 2, "velocity": 76}, {"time": 2727, "pitch": 58, "duration": 5, "velocity": 88}, {"time": 2727, "pitch": 62, "duration": 4, "velocity": 89}, {"time": 2727, "pitch": 67, "duration": 4, "velocity": 84}, {"time": 2730, "pitch": 55, "duration": 3, "velocity": 88}, {"time": 2733, "pitch": 39, "duration": 15, "velocity": 93}, {"time": 2733, "pitch": 58, "duration": 4, "velocity": 80}, {"time": 2736, "pitch": 46, "duration": 11, "velocity": 77}, {"time": 2736, "pitch": 55, "duration": 3, "velocity": 77}, {"time": 2739, "pitch": 58, "duration": 3, "velocity": 74}, {"time": 2742, "pitch": 55, "duration": 2, "velocity": 76}, {"time": 2745, "pitch": 55, "duration": 1, "velocity": 82}, {"time": 2745, "pitch": 58, "duration": 4, "velocity": 96}, {"time": 2745, "pitch": 63, "duration": 4, "velocity": 91}, {"time": 2748, "pitch": 46, "duration": 2, "velocity": 85}, {"time": 2751, "pitch": 55, "duration": 4, "velocity": 87}, {"time": 2757, "pitch": 46, "duration": 22, "velocity": 90}, {"time": 2757, "pitch": 53, "duration": 2, "velocity": 87}, {"time": 2757, "pitch": 58, "duration": 4, "velocity": 82}, {"time": 2760, "pitch": 53, "duration": 3, "velocity": 73}, {"time": 2763, "pitch": 58, "duration": 4, "velocity": 72}, {"time": 2766, "pitch": 53, "duration": 4, "velocity": 76}, {"time": 2769, "pitch": 58, "duration": 4, "velocity": 78}, {"time": 2769, "pitch": 62, "duration": 7, "velocity": 89}, {"time": 2772, "pitch": 53, "duration": 4, "velocity": 83}, {"time": 2775, "pitch": 58, "duration": 4, "velocity": 91}, {"time": 2778, "pitch": 53, "duration": 2, "velocity": 87}, {"time": 2781, "pitch": 41, "duration": 21, "velocity": 92}, {"time": 2781, "pitch": 53, "duration": 3, "velocity": 88}, {"time": 2781, "pitch": 57, "duration": 4, "velocity": 89}, {"time": 2784, "pitch": 48, "duration": 11, "velocity": 74}, {"time": 2787, "pitch": 57, "duration": 1, "velocity": 73}, {"time": 2787, "pitch": 60, "duration": 4, "velocity": 89}, {"time": 2790, "pitch": 57, "duration": 1, "velocity": 80}, {"time": 2793, "pitch": 53, "duration": 5, "velocity": 83}, {"time": 2793, "pitch": 57, "duration": 4, "velocity": 89}, {"time": 2793, "pitch": 60, "duration": 5, "velocity": 89}, {"time": 2793, "pitch": 65, "duration": 5, "velocity": 87}, {"time": 2799, "pitch": 48, "duration": 4, "velocity": 90}, {"time": 2802, "pitch": 53, "duration": 3, "velocity": 87}, {"time": 2802, "pitch": 57, "duration": 3, "velocity": 85}, {"time": 2802, "pitch": 60, "duration": 4, "velocity": 85}, {"time": 2802, "pitch": 65, "duration": 4, "velocity": 83}, {"time": 2805, "pitch": 43, "duration": 18, "velocity": 89}, {"time": 2808, "pitch": 50, "duration": 11, "velocity": 84}, {"time": 2811, "pitch": 58, "duration": 4, "velocity": 87}, {"time": 2811, "pitch": 62, "duration": 4, "velocity": 86}, {"time": 2814, "pitch": 55, "duration": 2, "velocity": 88}, {"time": 2817, "pitch": 55, "duration": 1, "velocity": 85}, {"time": 2817, "pitch": 58, "duration": 4, "velocity": 94}, {"time": 2817, "pitch": 62, "duration": 4, "velocity": 98}, {"time": 2817, "pitch": 67, "duration": 4, "velocity": 91}, {"time": 2820, "pitch": 50, "duration": 3, "velocity": 92}, {"time": 2823, "pitch": 55, "duration": 2, "velocity": 93}, {"time": 2826, "pitch": 58, "duration": 2, "velocity": 88}, {"time": 2829, "pitch": 39, "duration": 16, "velocity": 93}, {"time": 2829, "pitch": 55, "duration": 3, "velocity": 83}, {"time": 2829, "pitch": 58, "duration": 4, "velocity": 80}, {"time": 2832, "pitch": 46, "duration": 12, "velocity": 79}, {"time": 2835, "pitch": 55, "duration": 4, "velocity": 88}, {"time": 2838, "pitch": 58, "duration": 2, "velocity": 80}, {"time": 2841, "pitch": 55, "duration": 3, "velocity": 87}, {"time": 2841, "pitch": 58, "duration": 4, "velocity": 93}, {"time": 2841, "pitch": 63, "duration": 4, "velocity": 93}, {"time": 2844, "pitch": 46, "duration": 2, "velocity": 77}, {"time": 2847, "pitch": 58, "duration": 4, "velocity": 87}, {"time": 2850, "pitch": 55, "duration": 3, "velocity": 87}, {"time": 2853, "pitch": 46, "duration": 22, "velocity": 89}, {"time": 2853, "pitch": 58, "duration": 4, "velocity": 87}, {"time": 2856, "pitch": 53, "duration": 3, "velocity": 82}, {"time": 2859, "pitch": 58, "duration": 2, "velocity": 78}, {"time": 2862, "pitch": 53, "duration": 3, "velocity": 75}, {"time": 2865, "pitch": 58, "duration": 2, "velocity": 74}, {"time": 2865, "pitch": 65, "duration": 12, "velocity": 88}, {"time": 2868, "pitch": 53, "duration": 3, "velocity": 84}, {"time": 2871, "pitch": 58, "duration": 4, "velocity": 80}, {"time": 2874, "pitch": 53, "duration": 4, "velocity": 89}, {"time": 2877, "pitch": 41, "duration": 20, "velocity": 92}, {"time": 2880, "pitch": 48, "duration": 16, "velocity": 76}, {"time": 2883, "pitch": 57, "duration": 3, "velocity": 75}, {"time": 2883, "pitch": 60, "duration": 4, "velocity": 76}, {"time": 2886, "pitch": 53, "duration": 2, "velocity": 70}, {"time": 2889, "pitch": 53, "duration": 4, "velocity": 87}, {"time": 2889, "pitch": 65, "duration": 4, "velocity": 88}, {"time": 2892, "pitch": 60, "duration": 4, "velocity": 86}, {"time": 2895, "pitch": 57, "duration": 5, "velocity": 83}, {"time": 2898, "pitch": 53, "duration": 3, "velocity": 87}, {"time": 2901, "pitch": 43, "duration": 19, "velocity": 89}, {"time": 2904, "pitch": 50, "duration": 13, "velocity": 76}, {"time": 2907, "pitch": 58, "duration": 4, "velocity": 74}, {"time": 2907, "pitch": 62, "duration": 4, "velocity": 79}, {"time": 2910, "pitch": 55, "duration": 2, "velocity": 87}, {"time": 2913, "pitch": 55, "duration": 1, "velocity": 79}, {"time": 2913, "pitch": 58, "duration": 3, "velocity": 90}, {"time": 2913, "pitch": 62, "duration": 5, "velocity": 92}, {"time": 2913, "pitch": 67, "duration": 7, "velocity": 88}, {"time": 2919, "pitch": 58, "duration": 4, "velocity": 86}, {"time": 2922, "pitch": 55, "duration": 3, "velocity": 88}, {"time": 2925, "pitch": 39, "duration": 15, "velocity": 88}, {"time": 2925, "pitch": 58, "duration": 4, "velocity": 76}, {"time": 2925, "pitch": 63, "duration": 4, "velocity": 73}, {"time": 2928, "pitch": 46, "duration": 13, "velocity": 79}, {"time": 2931, "pitch": 55, "duration": 7, "velocity": 83}, {"time": 2934, "pitch": 58, "duration": 5, "velocity": 90}, {"time": 2937, "pitch": 67, "duration": 6, "velocity": 89}, {"time": 2940, "pitch": 63, "duration": 4, "velocity": 92}, {"time": 2943, "pitch": 58, "duration": 3, "velocity": 89}, {"time": 2946, "pitch": 55, "duration": 2, "velocity": 88}, {"time": 2949, "pitch": 41, "duration": 17, "velocity": 87}, {"time": 2949, "pitch": 53, "duration": 7, "velocity": 87}, {"time": 2949, "pitch": 57, "duration": 7, "velocity": 88}, {"time": 2952, "pitch": 48, "duration": 13, "velocity": 80}, {"time": 2955, "pitch": 60, "duration": 5, "velocity": 87}, {"time": 2958, "pitch": 57, "duration": 2, "velocity": 87}, {"time": 2961, "pitch": 53, "duration": 1, "velocity": 55}, {"time": 2961, "pitch": 57, "duration": 1, "velocity": 63}, {"time": 2961, "pitch": 65, "duration": 7, "velocity": 89}, {"time": 2964, "pitch": 60, "duration": 4, "velocity": 88}, {"time": 2967, "pitch": 57, "duration": 4, "velocity": 87}, {"time": 2970, "pitch": 53, "duration": 1, "velocity": 81}, {"time": 2973, "pitch": 43, "duration": 22, "velocity": 87}, {"time": 2973, "pitch": 55, "duration": 7, "velocity": 83}, {"time": 2973, "pitch": 58, "duration": 7, "velocity": 73}, {"time": 2976, "pitch": 50, "duration": 19, "velocity": 81}, {"time": 2979, "pitch": 62, "duration": 4, "velocity": 83}, {"time": 2982, "pitch": 55, "duration": 2, "velocity": 78}, {"time": 2985, "pitch": 55, "duration": 5, "velocity": 89}, {"time": 2985, "pitch": 62, "duration": 4, "velocity": 90}, {"time": 2985, "pitch": 67, "duration": 4, "velocity": 89}, {"time": 2991, "pitch": 58, "duration": 4, "velocity": 83}, {"time": 2991, "pitch": 62, "duration": 4, "velocity": 86}, {"time": 2994, "pitch": 55, "duration": 2, "velocity": 82}, {"time": 2997, "pitch": 43, "duration": 19, "velocity": 90}, {"time": 2997, "pitch": 55, "duration": 4, "velocity": 86}, {"time": 2997, "pitch": 58, "duration": 6, "velocity": 81}, {"time": 2997, "pitch": 62, "duration": 8, "velocity": 88}, {"time": 3000, "pitch": 50, "duration": 10, "velocity": 77}, {"time": 3003, "pitch": 55, "duration": 5, "velocity": 84}, {"time": 3006, "pitch": 58, "duration": 2, "velocity": 94}, {"time": 3006, "pitch": 62, "duration": 1, "velocity": 65}, {"time": 3009, "pitch": 55, "duration": 4, "velocity": 87}, {"time": 3009, "pitch": 58, "duration": 5, "velocity": 103}, {"time": 3009, "pitch": 62, "duration": 5, "velocity": 103}, {"time": 3009, "pitch": 67, "duration": 5, "velocity": 89}, {"time": 3012, "pitch": 50, "duration": 5, "velocity": 89}, {"time": 3015, "pitch": 55, "duration": 3, "velocity": 89}, {"time": 3021, "pitch": 43, "duration": 16, "velocity": 88}, {"time": 3021, "pitch": 55, "duration": 11, "velocity": 87}, {"time": 3021, "pitch": 62, "duration": 10, "velocity": 87}, {"time": 3027, "pitch": 50, "duration": 10, "velocity": 82}, {"time": 3033, "pitch": 58, "duration": 10, "velocity": 89}, {"time": 3033, "pitch": 62, "duration": 13, "velocity": 89}, {"time": 3039, "pitch": 43, "duration": 4, "velocity": 87}, {"time": 3042, "pitch": 55, "duration": 5, "velocity": 86}, {"time": 3045, "pitch": 46, "duration": 19, "velocity": 91}, {"time": 3051, "pitch": 53, "duration": 5, "velocity": 87}, {"time": 3051, "pitch": 62, "duration": 3, "velocity": 49}, {"time": 3057, "pitch": 58, "duration": 7, "velocity": 94}, {"time": 3057, "pitch": 62, "duration": 11, "velocity": 88}, {"time": 3063, "pitch": 53, "duration": 4, "velocity": 91}, {"time": 3069, "pitch": 41, "duration": 16, "velocity": 88}, {"time": 3069, "pitch": 53, "duration": 3, "velocity": 83}, {"time": 3069, "pitch": 57, "duration": 4, "velocity": 80}, {"time": 3069, "pitch": 60, "duration": 5, "velocity": 87}, {"time": 3075, "pitch": 48, "duration": 8, "velocity": 76}, {"time": 3078, "pitch": 57, "duration": 2, "velocity": 74}, {"time": 3081, "pitch": 57, "duration": 4, "velocity": 88}, {"time": 3081, "pitch": 60, "duration": 4, "velocity": 91}, {"time": 3081, "pitch": 65, "duration": 7, "velocity": 87}, {"time": 3087, "pitch": 41, "duration": 2, "velocity": 87}, {"time": 3093, "pitch": 48, "duration": 14, "velocity": 91}, {"time": 3093, "pitch": 55, "duration": 3, "velocity": 84}, {"time": 3093, "pitch": 60, "duration": 7, "velocity": 84}, {"time": 3093, "pitch": 64, "duration": 7, "velocity": 90}, {"time": 3099, "pitch": 55, "duration": 2, "velocity": 74}, {"time": 3105, "pitch": 55, "duration": 4, "velocity": 93}, {"time": 3105, "pitch": 60, "duration": 3, "velocity": 96}, {"time": 3105, "pitch": 64, "duration": 4, "velocity": 98}, {"time": 3108, "pitch": 48, "duration": 4, "velocity": 91}, {"time": 3111, "pitch": 55, "duration": 1, "velocity": 83}, {"time": 3111, "pitch": 60, "duration": 4, "velocity": 92}, {"time": 3114, "pitch": 55, "duration": 2, "velocity": 83}, {"time": 3117, "pitch": 43, "duration": 17, "velocity": 88}, {"time": 3117, "pitch": 55, "duration": 6, "velocity": 78}, {"time": 3117, "pitch": 58, "duration": 6, "velocity": 79}, {"time": 3123, "pitch": 50, "duration": 7, "velocity": 77}, {"time": 3129, "pitch": 55, "duration": 3, "velocity": 88}, {"time": 3129, "pitch": 58, "duration": 4, "velocity": 94}, {"time": 3129, "pitch": 62, "duration": 6, "velocity": 88}, {"time": 3132, "pitch": 50, "duration": 3, "velocity": 82}, {"time": 3135, "pitch": 55, "duration": 2, "velocity": 90}, {"time": 3135, "pitch": 62, "duration": 1, "velocity": 67}, {"time": 3138, "pitch": 57, "duration": 3, "velocity": 85}, {"time": 3141, "pitch": 58, "duration": 9, "velocity": 81}, {"time": 3141, "pitch": 46, "duration": 16, "velocity": 96}, {"time": 3142, "pitch": 53, "duration": 4, "velocity": 87}, {"time": 3147, "pitch": 53, "duration": 5, "velocity": 81}, {"time": 3153, "pitch": 58, "duration": 7, "velocity": 91}, {"time": 3153, "pitch": 53, "duration": 4, "velocity": 90}, {"time": 3153, "pitch": 62, "duration": 9, "velocity": 87}, {"time": 3160, "pitch": 53, "duration": 5, "velocity": 89}, {"time": 3168, "pitch": 41, "duration": 2, "velocity": 88}, {"time": 3168, "pitch": 60, "duration": 7, "velocity": 84}, {"time": 3168, "pitch": 57, "duration": 5, "velocity": 77}, {"time": 3168, "pitch": 53, "duration": 4, "velocity": 77}, {"time": 3175, "pitch": 53, "duration": 5, "velocity": 75}, {"time": 3178, "pitch": 60, "duration": 2, "velocity": 75}, {"time": 3180, "pitch": 65, "duration": 3, "velocity": 91}, {"time": 3183, "pitch": 69, "duration": 2, "velocity": 89}, {"time": 3185, "pitch": 65, "duration": 3, "velocity": 90}, {"time": 3188, "pitch": 72, "duration": 2, "velocity": 84}, {"time": 3191, "pitch": 65, "duration": 18, "velocity": 83}, {"time": 3195, "pitch": 72, "duration": 13, "velocity": 69}, {"time": 3199, "pitch": 77, "duration": 2, "velocity": 66}, {"time": 3200, "pitch": 81, "duration": 2, "velocity": 75}, {"time": 3201, "pitch": 89, "duration": 1, "velocity": 87}], "annotations": [{"time": 118, "annotation": {"number": 64, "value": 127}, "group": "control_change"}, {"time": 118, "annotation": {"number": 64, "value": 0}, "group": "control_change"}, {"time": 140, "annotation": {"number": 64, "value": 0}, "group": "control_change"}, {"time": 142, "annotation": {"number": 64, "value": 127}, "group": "control_change"}, {"time": 142, "annotation": {"number": 64, "value": 0}, "group": "control_change"}, {"time": 164, "annotation": {"number": 64, "value": 0}, "group": "control_change"}, {"time": 166, "annotation": {"number": 64, "value": 127}, "group": "control_change"}, {"time": 188, "annotation": {"number": 64, "value": 0}, "group": "control_change"}, {"time": 190, "annotation": {"number": 64, "value": 127}, "group": "control_change"}, {"time": 212, "annotation": {"number": 64, "value": 0}, "group": "control_change"}, {"time": 215, "annotation": {"number": 64, "value": 127}, "group": "control_change"}, {"time": 236, "annotation": {"number": 64, "value": 0}, "group": "control_change"}, {"time": 238, "annotation": {"number": 64, "value": 127}, "group": "control_change"}, {"time": 260, "annotation": {"number": 64, "value": 0}, "group": "control_change"}, {"time": 309, "annotation": {"number": 64, "value": 127}, "group": "control_change"}, {"time": 310, "annotation": {"number": 64, "value": 0}, "group": "control_change"}, {"time": 310, "annotation": {"number": 64, "value": 127}, "group": "control_change"}, {"time": 332, "annotation": {"number": 64, "value": 0}, "group": "control_change"}, {"time": 334, "annotation": {"number": 64, "value": 127}, "group": "control_change"}, {"time": 334, "annotation": {"number": 64, "value": 0}, "group": "control_change"}, {"time": 356, "annotation": {"number": 64, "value": 0}, "group": "control_change"}, {"time": 362, "annotation": {"number": 64, "value": 127}, "group": "control_change"}, {"time": 380, "annotation": {"number": 64, "value": 0}, "group": "control_change"}, {"time": 383, "annotation": {"number": 64, "value": 127}, "group": "control_change"}, {"time": 383, "annotation": {"number": 64, "value": 0}, "group": "control_change"}, {"time": 404, "annotation": {"number": 64, "value": 0}, "group": "control_change"}, {"time": 410, "annotation": {"number": 64, "value": 127}, "group": "control_change"}, {"time": 410, "annotation": {"number": 64, "value": 0}, "group": "control_change"}, {"time": 424, "annotation": {"number": 64, "value": 0}, "group": "control_change"}, {"time": 433, "annotation": {"number": 64, "value": 127}, "group": "control_change"}, {"time": 452, "annotation": {"number": 64, "value": 0}, "group": "control_change"}, {"time": 457, "annotation": {"number": 64, "value": 127}, "group": "control_change"}, {"time": 499, "annotation": {"number": 64, "value": 0}, "group": "control_change"}, {"time": 501, "annotation": {"number": 64, "value": 127}, "group": "control_change"}, {"time": 502, "annotation": {"number": 64, "value": 0}, "group": "control_change"}, {"time": 502, "annotation": {"number": 64, "value": 127}, "group": "control_change"}, {"time": 524, "annotation": {"number": 64, "value": 0}, "group": "control_change"}, {"time": 526, "annotation": {"number": 64, "value": 127}, "group": "control_change"}, {"time": 526, "annotation": {"number": 64, "value": 0}, "group": "control_change"}, {"time": 548, "annotation": {"number": 64, "value": 0}, "group": "control_change"}, {"time": 554, "annotation": {"number": 64, "value": 127}, "group": "control_change"}, {"time": 572, "annotation": {"number": 64, "value": 0}, "group": "control_change"}, {"time": 575, "annotation": {"number": 64, "value": 127}, "group": "control_change"}, {"time": 575, "annotation": {"number": 64, "value": 0}, "group": "control_change"}, {"time": 596, "annotation": {"number": 64, "value": 0}, "group": "control_change"}, {"time": 602, "annotation": {"number": 64, "value": 127}, "group": "control_change"}, {"time": 602, "annotation": {"number": 64, "value": 0}, "group": "control_change"}, {"time": 616, "annotation": {"number": 64, "value": 0}, "group": "control_change"}, {"time": 625, "annotation": {"number": 64, "value": 127}, "group": "control_change"}, {"time": 644, "annotation": {"number": 64, "value": 0}, "group": "control_change"}, {"time": 649, "annotation": {"number": 64, "value": 127}, "group": "control_change"}, {"time": 691, "annotation": {"number": 64, "value": 0}, "group": "control_change"}, {"time": 693, "annotation": {"number": 64, "value": 127}, "group": "control_change"}, {"time": 694, "annotation": {"number": 64, "value": 0}, "group": "control_change"}, {"time": 694, "annotation": {"number": 64, "value": 127}, "group": "control_change"}, {"time": 718, "annotation": {"number": 64, "value": 0}, "group": "control_change"}, {"time": 719, "annotation": {"number": 64, "value": 127}, "group": "control_change"}, {"time": 738, "annotation": {"number": 64, "value": 0}, "group": "control_change"}, {"time": 740, "annotation": {"number": 64, "value": 127}, "group": "control_change"}, {"time": 764, "annotation": {"number": 64, "value": 0}, "group": "control_change"}, {"time": 765, "annotation": {"number": 64, "value": 127}, "group": "control_change"}, {"time": 787, "annotation": {"number": 64, "value": 0}, "group": "control_change"}, {"time": 790, "annotation": {"number": 64, "value": 127}, "group": "control_change"}, {"time": 790, "annotation": {"number": 64, "value": 0}, "group": "control_change"}, {"time": 812, "annotation": {"number": 64, "value": 0}, "group": "control_change"}, {"time": 814, "annotation": {"number": 64, "value": 127}, "group": "control_change"}, {"time": 834, "annotation": {"number": 64, "value": 0}, "group": "control_change"}, {"time": 837, "annotation": {"number": 64, "value": 127}, "group": "control_change"}, {"time": 860, "annotation": {"number": 64, "value": 0}, "group": "control_change"}, {"time": 862, "annotation": {"number": 64, "value": 127}, "group": "control_change"}, {"time": 884, "annotation": {"number": 64, "value": 0}, "group": "control_change"}, {"time": 886, "annotation": {"number": 64, "value": 127}, "group": "control_change"}, {"time": 909, "annotation": {"number": 64, "value": 0}, "group": "control_change"}, {"time": 910, "annotation": {"number": 64, "value": 127}, "group": "control_change"}, {"time": 921, "annotation": {"number": 64, "value": 0}, "group": "control_change"}, {"time": 927, "annotation": {"number": 64, "value": 127}, "group": "control_change"}, {"time": 932, "annotation": {"number": 64, "value": 0}, "group": "control_change"}, {"time": 934, "annotation": {"number": 64, "value": 127}, "group": "control_change"}, {"time": 956, "annotation": {"number": 64, "value": 0}, "group": "control_change"}, {"time": 961, "annotation": {"number": 64, "value": 127}, "group": "control_change"}, {"time": 980, "annotation": {"number": 64, "value": 0}, "group": "control_change"}, {"time": 982, "annotation": {"number": 64, "value": 127}, "group": "control_change"}, {"time": 1004, "annotation": {"number": 64, "value": 0}, "group": "control_change"}, {"time": 1007, "annotation": {"number": 64, "value": 127}, "group": "control_change"}, {"time": 1027, "annotation": {"number": 64, "value": 0}, "group": "control_change"}, {"time": 1031, "annotation": {"number": 64, "value": 127}, "group": "control_change"}, {"time": 1051, "annotation": {"number": 64, "value": 0}, "group": "control_change"}, {"time": 1055, "annotation": {"number": 64, "value": 127}, "group": "control_change"}, {"time": 1075, "annotation": {"number": 64, "value": 0}, "group": "control_change"}, {"time": 1078, "annotation": {"number": 64, "value": 127}, "group": "control_change"}, {"time": 1100, "annotation": {"number": 64, "value": 0}, "group": "control_change"}, {"time": 1106, "annotation": {"number": 64, "value": 127}, "group": "control_change"}, {"time": 1123, "annotation": {"number": 64, "value": 0}, "group": "control_change"}, {"time": 1130, "annotation": {"number": 64, "value": 127}, "group": "control_change"}, {"time": 1165, "annotation": {"number": 64, "value": 127}, "group": "control_change"}, {"time": 1167, "annotation": {"number": 64, "value": 0}, "group": "control_change"}, {"time": 1173, "annotation": {"number": 64, "value": 127}, "group": "control_change"}, {"time": 1174, "annotation": {"number": 64, "value": 0}, "group": "control_change"}, {"time": 1174, "annotation": {"number": 64, "value": 127}, "group": "control_change"}, {"time": 1196, "annotation": {"number": 64, "value": 0}, "group": "control_change"}, {"time": 1198, "annotation": {"number": 64, "value": 127}, "group": "control_change"}, {"time": 1198, "annotation": {"number": 64, "value": 0}, "group": "control_change"}, {"time": 1220, "annotation": {"number": 64, "value": 0}, "group": "control_change"}, {"time": 1226, "annotation": {"number": 64, "value": 127}, "group": "control_change"}, {"time": 1244, "annotation": {"number": 64, "value": 0}, "group": "control_change"}, {"time": 1247, "annotation": {"number": 64, "value": 127}, "group": "control_change"}, {"time": 1247, "annotation": {"number": 64, "value": 0}, "group": "control_change"}, {"time": 1268, "annotation": {"number": 64, "value": 0}, "group": "control_change"}, {"time": 1274, "annotation": {"number": 64, "value": 127}, "group": "control_change"}, {"time": 1274, "annotation": {"number": 64, "value": 0}, "group": "control_change"}, {"time": 1288, "annotation": {"number": 64, "value": 0}, "group": "control_change"}, {"time": 1297, "annotation": {"number": 64, "value": 127}, "group": "control_change"}, {"time": 1316, "annotation": {"number": 64, "value": 0}, "group": "control_change"}, {"time": 1321, "annotation": {"number": 64, "value": 127}, "group": "control_change"}, {"time": 1363, "annotation": {"number": 64, "value": 0}, "group": "control_change"}, {"time": 1365, "annotation": {"number": 64, "value": 127}, "group": "control_change"}, {"time": 1366, "annotation": {"number": 64, "value": 0}, "group": "control_change"}, {"time": 1366, "annotation": {"number": 64, "value": 127}, "group": "control_change"}, {"time": 1388, "annotation": {"number": 64, "value": 0}, "group": "control_change"}, {"time": 1390, "annotation": {"number": 64, "value": 127}, "group": "control_change"}, {"time": 1390, "annotation": {"number": 64, "value": 0}, "group": "control_change"}, {"time": 1412, "annotation": {"number": 64, "value": 0}, "group": "control_change"}, {"time": 1418, "annotation": {"number": 64, "value": 127}, "group": "control_change"}, {"time": 1436, "annotation": {"number": 64, "value": 0}, "group": "control_change"}, {"time": 1439, "annotation": {"number": 64, "value": 127}, "group": "control_change"}, {"time": 1439, "annotation": {"number": 64, "value": 0}, "group": "control_change"}, {"time": 1460, "annotation": {"number": 64, "value": 0}, "group": "control_change"}, {"time": 1466, "annotation": {"number": 64, "value": 127}, "group": "control_change"}, {"time": 1466, "annotation": {"number": 64, "value": 0}, "group": "control_change"}, {"time": 1480, "annotation": {"number": 64, "value": 0}, "group": "control_change"}, {"time": 1489, "annotation": {"number": 64, "value": 127}, "group": "control_change"}, {"time": 1508, "annotation": {"number": 64, "value": 0}, "group": "control_change"}, {"time": 1513, "annotation": {"number": 64, "value": 127}, "group": "control_change"}, {"time": 1555, "annotation": {"number": 64, "value": 0}, "group": "control_change"}, {"time": 1557, "annotation": {"number": 64, "value": 127}, "group": "control_change"}, {"time": 1558, "annotation": {"number": 64, "value": 0}, "group": "control_change"}, {"time": 1558, "annotation": {"number": 64, "value": 127}, "group": "control_change"}, {"time": 1582, "annotation": {"number": 64, "value": 0}, "group": "control_change"}, {"time": 1583, "annotation": {"number": 64, "value": 127}, "group": "control_change"}, {"time": 1602, "annotation": {"number": 64, "value": 0}, "group": "control_change"}, {"time": 1604, "annotation": {"number": 64, "value": 127}, "group": "control_change"}, {"time": 1628, "annotation": {"number": 64, "value": 0}, "group": "control_change"}, {"time": 1629, "annotation": {"number": 64, "value": 127}, "group": "control_change"}, {"time": 1651, "annotation": {"number": 64, "value": 0}, "group": "control_change"}, {"time": 1654, "annotation": {"number": 64, "value": 127}, "group": "control_change"}, {"time": 1654, "annotation": {"number": 64, "value": 0}, "group": "control_change"}, {"time": 1676, "annotation": {"number": 64, "value": 0}, "group": "control_change"}, {"time": 1678, "annotation": {"number": 64, "value": 127}, "group": "control_change"}, {"time": 1698, "annotation": {"number": 64, "value": 0}, "group": "control_change"}, {"time": 1701, "annotation": {"number": 64, "value": 127}, "group": "control_change"}, {"time": 1724, "annotation": {"number": 64, "value": 0}, "group": "control_change"}, {"time": 1726, "annotation": {"number": 64, "value": 127}, "group": "control_change"}, {"time": 1748, "annotation": {"number": 64, "value": 0}, "group": "control_change"}, {"time": 1750, "annotation": {"number": 64, "value": 127}, "group": "control_change"}, {"time": 1773, "annotation": {"number": 64, "value": 0}, "group": "control_change"}, {"time": 1774, "annotation": {"number": 64, "value": 127}, "group": "control_change"}, {"time": 1785, "annotation": {"number": 64, "value": 0}, "group": "control_change"}, {"time": 1791, "annotation": {"number": 64, "value": 127}, "group": "control_change"}, {"time": 1796, "annotation": {"number": 64, "value": 0}, "group": "control_change"}, {"time": 1798, "annotation": {"number": 64, "value": 127}, "group": "control_change"}, {"time": 1820, "annotation": {"number": 64, "value": 0}, "group": "control_change"}, {"time": 1825, "annotation": {"number": 64, "value": 127}, "group": "control_change"}, {"time": 1844, "annotation": {"number": 64, "value": 0}, "group": "control_change"}, {"time": 1846, "annotation": {"number": 64, "value": 127}, "group": "control_change"}, {"time": 1868, "annotation": {"number": 64, "value": 0}, "group": "control_change"}, {"time": 1871, "annotation": {"number": 64, "value": 127}, "group": "control_change"}, {"time": 1891, "annotation": {"number": 64, "value": 0}, "group": "control_change"}, {"time": 1895, "annotation": {"number": 64, "value": 127}, "group": "control_change"}, {"time": 1915, "annotation": {"number": 64, "value": 0}, "group": "control_change"}, {"time": 1919, "annotation": {"number": 64, "value": 127}, "group": "control_change"}, {"time": 1939, "annotation": {"number": 64, "value": 0}, "group": "control_change"}, {"time": 1942, "annotation": {"number": 64, "value": 127}, "group": "control_change"}, {"time": 1964, "annotation": {"number": 64, "value": 0}, "group": "control_change"}, {"time": 1970, "annotation": {"number": 64, "value": 127}, "group": "control_change"}, {"time": 1987, "annotation": {"number": 64, "value": 0}, "group": "control_change"}, {"time": 1994, "annotation": {"number": 64, "value": 127}, "group": "control_change"}, {"time": 2014, "annotation": {"number": 64, "value": 127}, "group": "control_change"}, {"time": 2014, "annotation": {"number": 64, "value": 0}, "group": "control_change"}, {"time": 2036, "annotation": {"number": 64, "value": 0}, "group": "control_change"}, {"time": 2038, "annotation": {"number": 64, "value": 127}, "group": "control_change"}, {"time": 2084, "annotation": {"number": 64, "value": 0}, "group": "control_change"}, {"time": 2086, "annotation": {"number": 64, "value": 127}, "group": "control_change"}, {"time": 2108, "annotation": {"number": 64, "value": 0}, "group": "control_change"}, {"time": 2110, "annotation": {"number": 64, "value": 127}, "group": "control_change"}, {"time": 2133, "annotation": {"number": 64, "value": 0}, "group": "control_change"}, {"time": 2133, "annotation": {"number": 64, "value": 127}, "group": "control_change"}, {"time": 2144, "annotation": {"number": 64, "value": 0}, "group": "control_change"}, {"time": 2146, "annotation": {"number": 64, "value": 127}, "group": "control_change"}, {"time": 2156, "annotation": {"number": 64, "value": 0}, "group": "control_change"}, {"time": 2158, "annotation": {"number": 64, "value": 127}, "group": "control_change"}, {"time": 2179, "annotation": {"number": 64, "value": 0}, "group": "control_change"}, {"time": 2182, "annotation": {"number": 64, "value": 127}, "group": "control_change"}, {"time": 2204, "annotation": {"number": 64, "value": 0}, "group": "control_change"}, {"time": 2205, "annotation": {"number": 64, "value": 127}, "group": "control_change"}, {"time": 2230, "annotation": {"number": 64, "value": 0}, "group": "control_change"}, {"time": 2254, "annotation": {"number": 64, "value": 127}, "group": "control_change"}, {"time": 2254, "annotation": {"number": 64, "value": 0}, "group": "control_change"}, {"time": 2276, "annotation": {"number": 64, "value": 0}, "group": "control_change"}, {"time": 2278, "annotation": {"number": 64, "value": 127}, "group": "control_change"}, {"time": 2298, "annotation": {"number": 64, "value": 0}, "group": "control_change"}, {"time": 2301, "annotation": {"number": 64, "value": 127}, "group": "control_change"}, {"time": 2324, "annotation": {"number": 64, "value": 0}, "group": "control_change"}, {"time": 2326, "annotation": {"number": 64, "value": 127}, "group": "control_change"}, {"time": 2348, "annotation": {"number": 64, "value": 0}, "group": "control_change"}, {"time": 2350, "annotation": {"number": 64, "value": 127}, "group": "control_change"}, {"time": 2373, "annotation": {"number": 64, "value": 0}, "group": "control_change"}, {"time": 2374, "annotation": {"number": 64, "value": 127}, "group": "control_change"}, {"time": 2385, "annotation": {"number": 64, "value": 0}, "group": "control_change"}, {"time": 2391, "annotation": {"number": 64, "value": 127}, "group": "control_change"}, {"time": 2396, "annotation": {"number": 64, "value": 0}, "group": "control_change"}, {"time": 2398, "annotation": {"number": 64, "value": 127}, "group": "control_change"}, {"time": 2420, "annotation": {"number": 64, "value": 0}, "group": "control_change"}, {"time": 2425, "annotation": {"number": 64, "value": 127}, "group": "control_change"}, {"time": 2444, "annotation": {"number": 64, "value": 0}, "group": "control_change"}, {"time": 2446, "annotation": {"number": 64, "value": 127}, "group": "control_change"}, {"time": 2468, "annotation": {"number": 64, "value": 0}, "group": "control_change"}, {"time": 2471, "annotation": {"number": 64, "value": 127}, "group": "control_change"}, {"time": 2491, "annotation": {"number": 64, "value": 0}, "group": "control_change"}, {"time": 2495, "annotation": {"number": 64, "value": 127}, "group": "control_change"}, {"time": 2515, "annotation": {"number": 64, "value": 0}, "group": "control_change"}, {"time": 2519, "annotation": {"number": 64, "value": 127}, "group": "control_change"}, {"time": 2539, "annotation": {"number": 64, "value": 0}, "group": "control_change"}, {"time": 2542, "annotation": {"number": 64, "value": 127}, "group": "control_change"}, {"time": 2564, "annotation": {"number": 64, "value": 0}, "group": "control_change"}, {"time": 2570, "annotation": {"number": 64, "value": 127}, "group": "control_change"}, {"time": 2587, "annotation": {"number": 64, "value": 0}, "group": "control_change"}, {"time": 2594, "annotation": {"number": 64, "value": 127}, "group": "control_change"}, {"time": 2614, "annotation": {"number": 64, "value": 127}, "group": "control_change"}, {"time": 2614, "annotation": {"number": 64, "value": 0}, "group": "control_change"}, {"time": 2636, "annotation": {"number": 64, "value": 0}, "group": "control_change"}, {"time": 2638, "annotation": {"number": 64, "value": 127}, "group": "control_change"}, {"time": 2638, "annotation": {"number": 64, "value": 0}, "group": "control_change"}, {"time": 2660, "annotation": {"number": 64, "value": 0}, "group": "control_change"}, {"time": 2662, "annotation": {"number": 64, "value": 127}, "group": "control_change"}, {"time": 2682, "annotation": {"number": 64, "value": 0}, "group": "control_change"}, {"time": 2685, "annotation": {"number": 64, "value": 127}, "group": "control_change"}, {"time": 2708, "annotation": {"number": 64, "value": 0}, "group": "control_change"}, {"time": 2710, "annotation": {"number": 64, "value": 127}, "group": "control_change"}, {"time": 2732, "annotation": {"number": 64, "value": 0}, "group": "control_change"}, {"time": 2734, "annotation": {"number": 64, "value": 127}, "group": "control_change"}, {"time": 2757, "annotation": {"number": 64, "value": 0}, "group": "control_change"}, {"time": 2758, "annotation": {"number": 64, "value": 127}, "group": "control_change"}, {"time": 2769, "annotation": {"number": 64, "value": 0}, "group": "control_change"}, {"time": 2775, "annotation": {"number": 64, "value": 127}, "group": "control_change"}, {"time": 2780, "annotation": {"number": 64, "value": 0}, "group": "control_change"}, {"time": 2782, "annotation": {"number": 64, "value": 127}, "group": "control_change"}, {"time": 2804, "annotation": {"number": 64, "value": 0}, "group": "control_change"}, {"time": 2809, "annotation": {"number": 64, "value": 127}, "group": "control_change"}, {"time": 2828, "annotation": {"number": 64, "value": 0}, "group": "control_change"}, {"time": 2830, "annotation": {"number": 64, "value": 127}, "group": "control_change"}, {"time": 2852, "annotation": {"number": 64, "value": 0}, "group": "control_change"}, {"time": 2855, "annotation": {"number": 64, "value": 127}, "group": "control_change"}, {"time": 2875, "annotation": {"number": 64, "value": 0}, "group": "control_change"}, {"time": 2879, "annotation": {"number": 64, "value": 127}, "group": "control_change"}, {"time": 2899, "annotation": {"number": 64, "value": 0}, "group": "control_change"}, {"time": 2903, "annotation": {"number": 64, "value": 127}, "group": "control_change"}, {"time": 2923, "annotation": {"number": 64, "value": 0}, "group": "control_change"}, {"time": 2926, "annotation": {"number": 64, "value": 127}, "group": "control_change"}, {"time": 2948, "annotation": {"number": 64, "value": 0}, "group": "control_change"}, {"time": 2954, "annotation": {"number": 64, "value": 127}, "group": "control_change"}, {"time": 2971, "annotation": {"number": 64, "value": 0}, "group": "control_change"}, {"time": 2978, "annotation": {"number": 64, "value": 127}, "group": "control_change"}, {"time": 2998, "annotation": {"number": 64, "value": 127}, "group": "control_change"}, {"time": 2998, "annotation": {"number": 64, "value": 0}, "group": "control_change"}, {"time": 3020, "annotation": {"number": 64, "value": 0}, "group": "control_change"}, {"time": 3022, "annotation": {"number": 64, "value": 127}, "group": "control_change"}, {"time": 3022, "annotation": {"number": 64, "value": 0}, "group": "control_change"}, {"time": 3044, "annotation": {"number": 64, "value": 0}, "group": "control_change"}, {"time": 3046, "annotation": {"number": 64, "value": 127}, "group": "control_change"}, {"time": 3046, "annotation": {"number": 64, "value": 0}, "group": "control_change"}, {"time": 3068, "annotation": {"number": 64, "value": 0}, "group": "control_change"}, {"time": 3070, "annotation": {"number": 64, "value": 127}, "group": "control_change"}, {"time": 3092, "annotation": {"number": 64, "value": 0}, "group": "control_change"}, {"time": 3094, "annotation": {"number": 64, "value": 127}, "group": "control_change"}, {"time": 3116, "annotation": {"number": 64, "value": 0}, "group": "control_change"}, {"time": 3119, "annotation": {"number": 64, "value": 127}, "group": "control_change"}, {"time": 3140, "annotation": {"number": 64, "value": 0}, "group": "control_change"}, {"time": 3146, "annotation": {"number": 64, "value": 127}, "group": "control_change"}, {"time": 3165, "annotation": {"number": 64, "value": 0}, "group": "control_change"}, {"time": 3168, "annotation": {"number": 64, "value": 127}, "group": "control_change"}, {"time": 3234, "annotation": {"number": 64, "value": 0}, "group": "control_change"}]}]}