{"metadata": {"schema_version": "0.2", "title": "None", "source_filename": "528.mid", "source_format": "midi"}, "resolution": 12, "tempos": [{"time": 0, "qpm": 78.00017940041262}, {"time": 314, "qpm": 77.7000777000777}, {"time": 355, "qpm": 77.30006338605197}, {"time": 384, "qpm": 76.50007076256546}, {"time": 408, "qpm": 75.70003608368387}, {"time": 432, "qpm": 77.50015500031}, {"time": 468, "qpm": 78.00017940041262}, {"time": 1116, "qpm": 78.20004353135757}, {"time": 1200, "qpm": 79.00006978339498}, {"time": 1427, "qpm": 78.60008017208177}, {"time": 1567, "qpm": 79.2000792000792}, {"time": 1800, "qpm": 77.50015500031}, {"time": 1811, "qpm": 76.700056758042}, {"time": 1824, "qpm": 75.3001652838628}, {"time": 1836, "qpm": 74.6000504793675}, {"time": 1866, "qpm": 75.3001652838628}, {"time": 1872, "qpm": 76.30005760654349}, {"time": 1884, "qpm": 77.30006338605197}, {"time": 1902, "qpm": 77.90002311034019}, {"time": 1920, "qpm": 78.60008017208177}, {"time": 2052, "qpm": 79.00006978339498}, {"time": 2160, "qpm": 77.10001156500174}, {"time": 2172, "qpm": 77.60008794676634}, {"time": 2196, "qpm": 77.7000777000777}, {"time": 2206, "qpm": 78.30005363553674}, {"time": 2217, "qpm": 79.00006978339498}, {"time": 2256, "qpm": 78.00017940041262}, {"time": 2377, "qpm": 78.60008017208177}, {"time": 2664, "qpm": 79.00006978339498}, {"time": 2856, "qpm": 78.00017940041262}, {"time": 2952, "qpm": 78.60008017208177}, {"time": 2989, "qpm": 79.00006978339498}, {"time": 3216, "qpm": 77.30006338605197}], "time_signatures": [{"time": 0, "numerator": 1, "denominator": 4}], "tracks": [{"program": 0, "is_drum": false, "name": "MELODY", "notes": [{"time": 404, "pitch": 67, "duration": 2, "velocity": 84}, {"time": 407, "pitch": 67, "duration": 2, "velocity": 82}, {"time": 410, "pitch": 75, "duration": 5, "velocity": 85}, {"time": 416, "pitch": 74, "duration": 4, "velocity": 94}, {"time": 422, "pitch": 75, "duration": 17, "velocity": 99}, {"time": 440, "pitch": 67, "duration": 4, "velocity": 87}, {"time": 446, "pitch": 67, "duration": 9, "velocity": 87}, {"time": 458, "pitch": 67, "duration": 5, "velocity": 87}, {"time": 464, "pitch": 70, "duration": 4, "velocity": 87}, {"time": 470, "pitch": 70, "duration": 17, "velocity": 92}, {"time": 488, "pitch": 72, "duration": 3, "velocity": 87}, {"time": 494, "pitch": 68, "duration": 5, "velocity": 92}, {"time": 500, "pitch": 65, "duration": 2, "velocity": 85}, {"time": 503, "pitch": 65, "duration": 2, "velocity": 85}, {"time": 506, "pitch": 74, "duration": 5, "velocity": 100}, {"time": 512, "pitch": 72, "duration": 5, "velocity": 99}, {"time": 518, "pitch": 74, "duration": 17, "velocity": 90}, {"time": 536, "pitch": 65, "duration": 4, "velocity": 85}, {"time": 542, "pitch": 65, "duration": 8, "velocity": 84}, {"time": 551, "pitch": 65, "duration": 3, "velocity": 81}, {"time": 554, "pitch": 70, "duration": 5, "velocity": 84}, {"time": 560, "pitch": 68, "duration": 5, "velocity": 89}, {"time": 566, "pitch": 68, "duration": 15, "velocity": 84}, {"time": 584, "pitch": 68, "duration": 3, "velocity": 97}, {"time": 587, "pitch": 70, "duration": 2, "velocity": 83}, {"time": 590, "pitch": 67, "duration": 4, "velocity": 83}, {"time": 596, "pitch": 67, "duration": 2, "velocity": 84}, {"time": 599, "pitch": 67, "duration": 2, "velocity": 83}, {"time": 602, "pitch": 75, "duration": 5, "velocity": 85}, {"time": 608, "pitch": 74, "duration": 4, "velocity": 90}, {"time": 614, "pitch": 75, "duration": 16, "velocity": 90}, {"time": 635, "pitch": 75, "duration": 3, "velocity": 86}, {"time": 638, "pitch": 67, "duration": 7, "velocity": 88}, {"time": 647, "pitch": 67, "duration": 2, "velocity": 83}, {"time": 650, "pitch": 72, "duration": 5, "velocity": 85}, {"time": 656, "pitch": 75, "duration": 6, "velocity": 88}, {"time": 662, "pitch": 79, "duration": 16, "velocity": 85}, {"time": 680, "pitch": 77, "duration": 5, "velocity": 89}, {"time": 686, "pitch": 77, "duration": 12, "velocity": 88}, {"time": 704, "pitch": 75, "duration": 5, "velocity": 89}, {"time": 710, "pitch": 75, "duration": 12, "velocity": 87}, {"time": 728, "pitch": 75, "duration": 5, "velocity": 84}, {"time": 734, "pitch": 74, "duration": 10, "velocity": 92}, {"time": 746, "pitch": 77, "duration": 5, "velocity": 85}, {"time": 752, "pitch": 75, "duration": 2, "velocity": 84}, {"time": 755, "pitch": 75, "duration": 7, "velocity": 86}, {"time": 764, "pitch": 74, "duration": 20, "velocity": 90}, {"time": 788, "pitch": 67, "duration": 2, "velocity": 83}, {"time": 791, "pitch": 67, "duration": 2, "velocity": 82}, {"time": 794, "pitch": 75, "duration": 5, "velocity": 89}, {"time": 800, "pitch": 74, "duration": 3, "velocity": 90}, {"time": 806, "pitch": 75, "duration": 16, "velocity": 89}, {"time": 824, "pitch": 67, "duration": 4, "velocity": 85}, {"time": 830, "pitch": 67, "duration": 10, "velocity": 85}, {"time": 842, "pitch": 67, "duration": 5, "velocity": 85}, {"time": 848, "pitch": 70, "duration": 4, "velocity": 86}, {"time": 854, "pitch": 70, "duration": 16, "velocity": 90}, {"time": 872, "pitch": 72, "duration": 5, "velocity": 82}, {"time": 878, "pitch": 68, "duration": 5, "velocity": 79}, {"time": 884, "pitch": 65, "duration": 2, "velocity": 83}, {"time": 887, "pitch": 65, "duration": 2, "velocity": 83}, {"time": 890, "pitch": 74, "duration": 4, "velocity": 94}, {"time": 896, "pitch": 72, "duration": 4, "velocity": 84}, {"time": 902, "pitch": 74, "duration": 15, "velocity": 90}, {"time": 920, "pitch": 65, "duration": 4, "velocity": 78}, {"time": 926, "pitch": 65, "duration": 5, "velocity": 84}, {"time": 932, "pitch": 65, "duration": 6, "velocity": 83}, {"time": 938, "pitch": 70, "duration": 5, "velocity": 89}, {"time": 944, "pitch": 68, "duration": 4, "velocity": 84}, {"time": 950, "pitch": 68, "duration": 12, "velocity": 87}, {"time": 962, "pitch": 68, "duration": 6, "velocity": 84}, {"time": 968, "pitch": 70, "duration": 6, "velocity": 83}, {"time": 974, "pitch": 67, "duration": 4, "velocity": 81}, {"time": 980, "pitch": 67, "duration": 2, "velocity": 84}, {"time": 983, "pitch": 67, "duration": 2, "velocity": 84}, {"time": 986, "pitch": 75, "duration": 5, "velocity": 84}, {"time": 992, "pitch": 74, "duration": 3, "velocity": 84}, {"time": 998, "pitch": 75, "duration": 15, "velocity": 87}, {"time": 1016, "pitch": 67, "duration": 9, "velocity": 85}, {"time": 1028, "pitch": 67, "duration": 5, "velocity": 89}, {"time": 1034, "pitch": 72, "duration": 5, "velocity": 89}, {"time": 1040, "pitch": 75, "duration": 5, "velocity": 84}, {"time": 1046, "pitch": 79, "duration": 17, "velocity": 87}, {"time": 1064, "pitch": 77, "duration": 4, "velocity": 85}, {"time": 1070, "pitch": 77, "duration": 13, "velocity": 86}, {"time": 1088, "pitch": 75, "duration": 4, "velocity": 87}, {"time": 1094, "pitch": 75, "duration": 22, "velocity": 94}, {"time": 1118, "pitch": 74, "duration": 10, "velocity": 100}, {"time": 1131, "pitch": 74, "duration": 5, "velocity": 94}, {"time": 1137, "pitch": 75, "duration": 6, "velocity": 90}, {"time": 1143, "pitch": 74, "duration": 8, "velocity": 99}, {"time": 1151, "pitch": 72, "duration": 18, "velocity": 86}, {"time": 1172, "pitch": 72, "duration": 5, "velocity": 90}, {"time": 1178, "pitch": 74, "duration": 5, "velocity": 97}, {"time": 1184, "pitch": 75, "duration": 5, "velocity": 94}, {"time": 1190, "pitch": 75, "duration": 22, "velocity": 94}, {"time": 1214, "pitch": 77, "duration": 10, "velocity": 87}, {"time": 1226, "pitch": 74, "duration": 5, "velocity": 99}, {"time": 1232, "pitch": 72, "duration": 6, "velocity": 86}, {"time": 1238, "pitch": 70, "duration": 11, "velocity": 88}, {"time": 1250, "pitch": 67, "duration": 5, "velocity": 88}, {"time": 1256, "pitch": 70, "duration": 5, "velocity": 89}, {"time": 1262, "pitch": 72, "duration": 10, "velocity": 89}, {"time": 1274, "pitch": 72, "duration": 4, "velocity": 94}, {"time": 1280, "pitch": 74, "duration": 5, "velocity": 94}, {"time": 1286, "pitch": 75, "duration": 23, "velocity": 88}, {"time": 1310, "pitch": 74, "duration": 11, "velocity": 100}, {"time": 1322, "pitch": 75, "duration": 9, "velocity": 89}, {"time": 1334, "pitch": 80, "duration": 45, "velocity": 100}, {"time": 1382, "pitch": 79, "duration": 26, "velocity": 86}, {"time": 1412, "pitch": 74, "duration": 4, "velocity": 94}, {"time": 1418, "pitch": 75, "duration": 4, "velocity": 89}, {"time": 1424, "pitch": 77, "duration": 4, "velocity": 85}, {"time": 1430, "pitch": 79, "duration": 4, "velocity": 87}, {"time": 1436, "pitch": 75, "duration": 3, "velocity": 85}, {"time": 1442, "pitch": 79, "duration": 5, "velocity": 90}, {"time": 1448, "pitch": 75, "duration": 2, "velocity": 85}, {"time": 1451, "pitch": 79, "duration": 7, "velocity": 88}, {"time": 1460, "pitch": 75, "duration": 5, "velocity": 89}, {"time": 1466, "pitch": 77, "duration": 4, "velocity": 85}, {"time": 1472, "pitch": 79, "duration": 4, "velocity": 90}, {"time": 1478, "pitch": 82, "duration": 18, "velocity": 94}, {"time": 1496, "pitch": 80, "duration": 4, "velocity": 92}, {"time": 1502, "pitch": 80, "duration": 19, "velocity": 90}, {"time": 1526, "pitch": 77, "duration": 4, "velocity": 85}, {"time": 1532, "pitch": 75, "duration": 6, "velocity": 90}, {"time": 1538, "pitch": 74, "duration": 6, "velocity": 99}, {"time": 1544, "pitch": 72, "duration": 2, "velocity": 84}, {"time": 1547, "pitch": 70, "duration": 7, "velocity": 94}, {"time": 1556, "pitch": 70, "duration": 5, "velocity": 92}, {"time": 1562, "pitch": 72, "duration": 5, "velocity": 85}, {"time": 1568, "pitch": 74, "duration": 5, "velocity": 97}, {"time": 1574, "pitch": 80, "duration": 16, "velocity": 100}, {"time": 1592, "pitch": 79, "duration": 3, "velocity": 88}, {"time": 1595, "pitch": 77, "duration": 2, "velocity": 88}, {"time": 1598, "pitch": 79, "duration": 5, "velocity": 89}, {"time": 1604, "pitch": 67, "duration": 5, "velocity": 85}, {"time": 1610, "pitch": 72, "duration": 4, "velocity": 92}, {"time": 1616, "pitch": 74, "duration": 4, "velocity": 88}, {"time": 1622, "pitch": 75, "duration": 5, "velocity": 89}, {"time": 1628, "pitch": 74, "duration": 4, "velocity": 90}, {"time": 1634, "pitch": 75, "duration": 6, "velocity": 89}, {"time": 1640, "pitch": 74, "duration": 2, "velocity": 85}, {"time": 1643, "pitch": 75, "duration": 8, "velocity": 90}, {"time": 1652, "pitch": 72, "duration": 5, "velocity": 89}, {"time": 1658, "pitch": 74, "duration": 5, "velocity": 94}, {"time": 1664, "pitch": 75, "duration": 5, "velocity": 87}, {"time": 1670, "pitch": 79, "duration": 17, "velocity": 85}, {"time": 1688, "pitch": 77, "duration": 3, "velocity": 83}, {"time": 1691, "pitch": 75, "duration": 2, "velocity": 68}, {"time": 1694, "pitch": 77, "duration": 16, "velocity": 84}, {"time": 1709, "pitch": 77, "duration": 1, "velocity": 85}, {"time": 1712, "pitch": 79, "duration": 2, "velocity": 87}, {"time": 1715, "pitch": 77, "duration": 2, "velocity": 90}, {"time": 1718, "pitch": 75, "duration": 13, "velocity": 94}, {"time": 1733, "pitch": 75, "duration": 2, "velocity": 85}, {"time": 1736, "pitch": 77, "duration": 3, "velocity": 85}, {"time": 1739, "pitch": 75, "duration": 2, "velocity": 89}, {"time": 1742, "pitch": 74, "duration": 12, "velocity": 97}, {"time": 1754, "pitch": 74, "duration": 6, "velocity": 100}, {"time": 1760, "pitch": 75, "duration": 5, "velocity": 87}, {"time": 1766, "pitch": 74, "duration": 6, "velocity": 94}, {"time": 1772, "pitch": 72, "duration": 18, "velocity": 85}, {"time": 2228, "pitch": 74, "duration": 4, "velocity": 94}, {"time": 2234, "pitch": 75, "duration": 4, "velocity": 89}, {"time": 2240, "pitch": 77, "duration": 4, "velocity": 85}, {"time": 2246, "pitch": 79, "duration": 4, "velocity": 87}, {"time": 2252, "pitch": 75, "duration": 3, "velocity": 85}, {"time": 2258, "pitch": 79, "duration": 5, "velocity": 90}, {"time": 2264, "pitch": 75, "duration": 2, "velocity": 85}, {"time": 2267, "pitch": 79, "duration": 7, "velocity": 88}, {"time": 2276, "pitch": 75, "duration": 5, "velocity": 89}, {"time": 2282, "pitch": 77, "duration": 4, "velocity": 85}, {"time": 2288, "pitch": 79, "duration": 4, "velocity": 90}, {"time": 2294, "pitch": 82, "duration": 18, "velocity": 94}, {"time": 2312, "pitch": 80, "duration": 4, "velocity": 92}, {"time": 2318, "pitch": 80, "duration": 19, "velocity": 90}, {"time": 2342, "pitch": 77, "duration": 4, "velocity": 85}, {"time": 2348, "pitch": 75, "duration": 6, "velocity": 90}, {"time": 2354, "pitch": 74, "duration": 6, "velocity": 99}, {"time": 2360, "pitch": 72, "duration": 2, "velocity": 84}, {"time": 2363, "pitch": 70, "duration": 7, "velocity": 94}, {"time": 2372, "pitch": 70, "duration": 5, "velocity": 92}, {"time": 2378, "pitch": 72, "duration": 5, "velocity": 85}, {"time": 2384, "pitch": 74, "duration": 5, "velocity": 97}, {"time": 2390, "pitch": 80, "duration": 16, "velocity": 100}, {"time": 2408, "pitch": 79, "duration": 3, "velocity": 88}, {"time": 2411, "pitch": 77, "duration": 2, "velocity": 88}, {"time": 2414, "pitch": 79, "duration": 5, "velocity": 89}, {"time": 2420, "pitch": 67, "duration": 5, "velocity": 85}, {"time": 2426, "pitch": 72, "duration": 4, "velocity": 92}, {"time": 2432, "pitch": 74, "duration": 4, "velocity": 88}, {"time": 2438, "pitch": 75, "duration": 5, "velocity": 89}, {"time": 2444, "pitch": 74, "duration": 4, "velocity": 90}, {"time": 2450, "pitch": 75, "duration": 6, "velocity": 89}, {"time": 2456, "pitch": 74, "duration": 2, "velocity": 85}, {"time": 2459, "pitch": 75, "duration": 8, "velocity": 90}, {"time": 2468, "pitch": 72, "duration": 5, "velocity": 89}, {"time": 2474, "pitch": 74, "duration": 5, "velocity": 94}, {"time": 2480, "pitch": 75, "duration": 5, "velocity": 87}, {"time": 2486, "pitch": 79, "duration": 17, "velocity": 85}, {"time": 2504, "pitch": 77, "duration": 3, "velocity": 83}, {"time": 2507, "pitch": 75, "duration": 2, "velocity": 68}, {"time": 2510, "pitch": 77, "duration": 16, "velocity": 84}, {"time": 2525, "pitch": 77, "duration": 1, "velocity": 85}, {"time": 2528, "pitch": 79, "duration": 2, "velocity": 87}, {"time": 2531, "pitch": 77, "duration": 2, "velocity": 90}, {"time": 2534, "pitch": 75, "duration": 13, "velocity": 94}, {"time": 2549, "pitch": 75, "duration": 2, "velocity": 85}, {"time": 2552, "pitch": 77, "duration": 3, "velocity": 85}, {"time": 2555, "pitch": 75, "duration": 2, "velocity": 89}, {"time": 2558, "pitch": 74, "duration": 12, "velocity": 97}, {"time": 2570, "pitch": 74, "duration": 6, "velocity": 100}, {"time": 2576, "pitch": 75, "duration": 5, "velocity": 87}, {"time": 2582, "pitch": 74, "duration": 6, "velocity": 94}, {"time": 2588, "pitch": 72, "duration": 18, "velocity": 85}, {"time": 2612, "pitch": 72, "duration": 5, "velocity": 90}, {"time": 2618, "pitch": 74, "duration": 5, "velocity": 97}, {"time": 2624, "pitch": 75, "duration": 5, "velocity": 94}, {"time": 2630, "pitch": 75, "duration": 22, "velocity": 94}, {"time": 2654, "pitch": 77, "duration": 10, "velocity": 87}, {"time": 2666, "pitch": 74, "duration": 5, "velocity": 99}, {"time": 2672, "pitch": 72, "duration": 6, "velocity": 86}, {"time": 2678, "pitch": 70, "duration": 11, "velocity": 88}, {"time": 2690, "pitch": 67, "duration": 5, "velocity": 88}, {"time": 2696, "pitch": 70, "duration": 5, "velocity": 89}, {"time": 2702, "pitch": 72, "duration": 10, "velocity": 89}, {"time": 2714, "pitch": 72, "duration": 4, "velocity": 94}, {"time": 2720, "pitch": 74, "duration": 5, "velocity": 94}, {"time": 2726, "pitch": 75, "duration": 23, "velocity": 88}, {"time": 2750, "pitch": 74, "duration": 11, "velocity": 100}, {"time": 2762, "pitch": 75, "duration": 9, "velocity": 89}, {"time": 2774, "pitch": 80, "duration": 45, "velocity": 100}, {"time": 2822, "pitch": 79, "duration": 26, "velocity": 86}, {"time": 2852, "pitch": 74, "duration": 4, "velocity": 94}, {"time": 2858, "pitch": 75, "duration": 4, "velocity": 89}, {"time": 2864, "pitch": 77, "duration": 4, "velocity": 85}, {"time": 2870, "pitch": 79, "duration": 4, "velocity": 87}, {"time": 2876, "pitch": 75, "duration": 3, "velocity": 85}, {"time": 2882, "pitch": 79, "duration": 5, "velocity": 90}, {"time": 2888, "pitch": 75, "duration": 2, "velocity": 85}, {"time": 2891, "pitch": 79, "duration": 7, "velocity": 88}, {"time": 2900, "pitch": 75, "duration": 5, "velocity": 89}, {"time": 2906, "pitch": 77, "duration": 4, "velocity": 85}, {"time": 2912, "pitch": 79, "duration": 4, "velocity": 90}, {"time": 2918, "pitch": 82, "duration": 18, "velocity": 94}, {"time": 2936, "pitch": 80, "duration": 4, "velocity": 92}, {"time": 2942, "pitch": 80, "duration": 19, "velocity": 90}, {"time": 2966, "pitch": 77, "duration": 4, "velocity": 85}, {"time": 2972, "pitch": 75, "duration": 6, "velocity": 90}, {"time": 2978, "pitch": 74, "duration": 6, "velocity": 99}, {"time": 2984, "pitch": 72, "duration": 2, "velocity": 84}, {"time": 2987, "pitch": 70, "duration": 7, "velocity": 94}, {"time": 2996, "pitch": 70, "duration": 5, "velocity": 92}, {"time": 3002, "pitch": 72, "duration": 5, "velocity": 85}, {"time": 3008, "pitch": 74, "duration": 5, "velocity": 97}, {"time": 3014, "pitch": 80, "duration": 16, "velocity": 100}, {"time": 3032, "pitch": 79, "duration": 3, "velocity": 88}, {"time": 3035, "pitch": 77, "duration": 2, "velocity": 88}, {"time": 3038, "pitch": 79, "duration": 5, "velocity": 89}, {"time": 3044, "pitch": 67, "duration": 5, "velocity": 85}, {"time": 3050, "pitch": 72, "duration": 4, "velocity": 92}, {"time": 3056, "pitch": 74, "duration": 4, "velocity": 88}, {"time": 3062, "pitch": 75, "duration": 5, "velocity": 89}, {"time": 3068, "pitch": 74, "duration": 4, "velocity": 90}, {"time": 3074, "pitch": 75, "duration": 6, "velocity": 89}, {"time": 3080, "pitch": 74, "duration": 2, "velocity": 85}, {"time": 3083, "pitch": 75, "duration": 8, "velocity": 90}, {"time": 3092, "pitch": 72, "duration": 5, "velocity": 89}, {"time": 3098, "pitch": 74, "duration": 5, "velocity": 94}, {"time": 3104, "pitch": 75, "duration": 5, "velocity": 87}, {"time": 3110, "pitch": 79, "duration": 17, "velocity": 85}, {"time": 3128, "pitch": 77, "duration": 3, "velocity": 83}, {"time": 3131, "pitch": 75, "duration": 2, "velocity": 68}, {"time": 3134, "pitch": 77, "duration": 16, "velocity": 84}, {"time": 3149, "pitch": 77, "duration": 1, "velocity": 85}, {"time": 3152, "pitch": 79, "duration": 2, "velocity": 87}, {"time": 3155, "pitch": 77, "duration": 2, "velocity": 90}, {"time": 3158, "pitch": 75, "duration": 13, "velocity": 94}, {"time": 3173, "pitch": 75, "duration": 2, "velocity": 85}, {"time": 3176, "pitch": 77, "duration": 3, "velocity": 85}, {"time": 3179, "pitch": 75, "duration": 2, "velocity": 89}, {"time": 3182, "pitch": 74, "duration": 12, "velocity": 97}, {"time": 3194, "pitch": 74, "duration": 6, "velocity": 100}, {"time": 3200, "pitch": 75, "duration": 5, "velocity": 87}, {"time": 3206, "pitch": 74, "duration": 6, "velocity": 94}, {"time": 3212, "pitch": 72, "duration": 18, "velocity": 85}]}, {"program": 0, "is_drum": false, "name": "BRIDGE", "notes": [{"time": 20, "pitch": 67, "duration": 6, "velocity": 83}, {"time": 26, "pitch": 75, "duration": 7, "velocity": 88}, {"time": 32, "pitch": 74, "duration": 7, "velocity": 87}, {"time": 38, "pitch": 75, "duration": 17, "velocity": 89}, {"time": 56, "pitch": 67, "duration": 5, "velocity": 90}, {"time": 62, "pitch": 67, "duration": 10, "velocity": 90}, {"time": 74, "pitch": 67, "duration": 5, "velocity": 87}, {"time": 80, "pitch": 70, "duration": 5, "velocity": 84}, {"time": 86, "pitch": 70, "duration": 17, "velocity": 86}, {"time": 104, "pitch": 72, "duration": 5, "velocity": 84}, {"time": 110, "pitch": 68, "duration": 5, "velocity": 88}, {"time": 116, "pitch": 65, "duration": 5, "velocity": 87}, {"time": 122, "pitch": 74, "duration": 6, "velocity": 87}, {"time": 128, "pitch": 72, "duration": 4, "velocity": 88}, {"time": 134, "pitch": 74, "duration": 18, "velocity": 94}, {"time": 152, "pitch": 65, "duration": 5, "velocity": 87}, {"time": 158, "pitch": 65, "duration": 12, "velocity": 85}, {"time": 170, "pitch": 70, "duration": 5, "velocity": 87}, {"time": 176, "pitch": 68, "duration": 5, "velocity": 87}, {"time": 182, "pitch": 68, "duration": 17, "velocity": 87}, {"time": 200, "pitch": 70, "duration": 5, "velocity": 84}, {"time": 206, "pitch": 67, "duration": 5, "velocity": 85}, {"time": 212, "pitch": 67, "duration": 4, "velocity": 85}, {"time": 218, "pitch": 75, "duration": 5, "velocity": 90}, {"time": 224, "pitch": 74, "duration": 4, "velocity": 92}, {"time": 230, "pitch": 75, "duration": 19, "velocity": 90}, {"time": 248, "pitch": 67, "duration": 5, "velocity": 88}, {"time": 254, "pitch": 67, "duration": 10, "velocity": 89}, {"time": 266, "pitch": 72, "duration": 5, "velocity": 90}, {"time": 272, "pitch": 75, "duration": 5, "velocity": 90}, {"time": 278, "pitch": 79, "duration": 17, "velocity": 90}, {"time": 296, "pitch": 80, "duration": 5, "velocity": 94}, {"time": 302, "pitch": 77, "duration": 14, "velocity": 85}, {"time": 320, "pitch": 75, "duration": 6, "velocity": 89}, {"time": 326, "pitch": 74, "duration": 12, "velocity": 100}, {"time": 338, "pitch": 75, "duration": 6, "velocity": 99}, {"time": 344, "pitch": 77, "duration": 7, "velocity": 86}, {"time": 350, "pitch": 79, "duration": 11, "velocity": 89}, {"time": 362, "pitch": 71, "duration": 6, "velocity": 92}, {"time": 368, "pitch": 74, "duration": 4, "velocity": 87}, {"time": 374, "pitch": 74, "duration": 7, "velocity": 94}, {"time": 380, "pitch": 72, "duration": 4, "velocity": 79}, {"time": 386, "pitch": 72, "duration": 32, "velocity": 82}, {"time": 427, "pitch": 67, "duration": 8, "velocity": 75}, {"time": 434, "pitch": 75, "duration": 7, "velocity": 74}, {"time": 440, "pitch": 74, "duration": 7, "velocity": 84}, {"time": 446, "pitch": 75, "duration": 22, "velocity": 79}, {"time": 488, "pitch": 72, "duration": 7, "velocity": 83}, {"time": 494, "pitch": 79, "duration": 12, "velocity": 84}, {"time": 506, "pitch": 77, "duration": 13, "velocity": 77}, {"time": 518, "pitch": 74, "duration": 23, "velocity": 84}, {"time": 620, "pitch": 67, "duration": 7, "velocity": 79}, {"time": 626, "pitch": 75, "duration": 7, "velocity": 73}, {"time": 632, "pitch": 74, "duration": 7, "velocity": 79}, {"time": 638, "pitch": 75, "duration": 25, "velocity": 79}, {"time": 662, "pitch": 72, "duration": 42, "velocity": 79}, {"time": 722, "pitch": 75, "duration": 13, "velocity": 70}, {"time": 734, "pitch": 74, "duration": 19, "velocity": 70}, {"time": 752, "pitch": 72, "duration": 7, "velocity": 75}, {"time": 758, "pitch": 74, "duration": 24, "velocity": 85}, {"time": 806, "pitch": 63, "duration": 12, "velocity": 73}, {"time": 818, "pitch": 62, "duration": 12, "velocity": 76}, {"time": 830, "pitch": 60, "duration": 24, "velocity": 76}, {"time": 863, "pitch": 62, "duration": 8, "velocity": 74}, {"time": 872, "pitch": 63, "duration": 7, "velocity": 74}, {"time": 878, "pitch": 68, "duration": 25, "velocity": 71}, {"time": 902, "pitch": 62, "duration": 20, "velocity": 76}, {"time": 920, "pitch": 63, "duration": 7, "velocity": 77}, {"time": 926, "pitch": 65, "duration": 21, "velocity": 77}, {"time": 950, "pitch": 67, "duration": 25, "velocity": 75}, {"time": 998, "pitch": 67, "duration": 19, "velocity": 68}, {"time": 998, "pitch": 72, "duration": 19, "velocity": 76}, {"time": 1016, "pitch": 74, "duration": 6, "velocity": 81}, {"time": 1022, "pitch": 75, "duration": 13, "velocity": 79}, {"time": 1034, "pitch": 67, "duration": 8, "velocity": 62}, {"time": 1046, "pitch": 65, "duration": 26, "velocity": 75}, {"time": 1046, "pitch": 68, "duration": 26, "velocity": 74}, {"time": 1088, "pitch": 72, "duration": 4, "velocity": 75}, {"time": 1091, "pitch": 74, "duration": 4, "velocity": 83}, {"time": 1094, "pitch": 75, "duration": 25, "velocity": 75}, {"time": 1118, "pitch": 74, "duration": 22, "velocity": 83}, {"time": 1142, "pitch": 60, "duration": 47, "velocity": 76}, {"time": 1148, "pitch": 67, "duration": 7, "velocity": 78}, {"time": 1154, "pitch": 72, "duration": 6, "velocity": 80}, {"time": 1160, "pitch": 74, "duration": 7, "velocity": 88}, {"time": 1166, "pitch": 75, "duration": 6, "velocity": 86}, {"time": 1172, "pitch": 79, "duration": 7, "velocity": 77}, {"time": 1178, "pitch": 84, "duration": 6, "velocity": 94}, {"time": 1184, "pitch": 86, "duration": 7, "velocity": 84}, {"time": 1190, "pitch": 56, "duration": 36, "velocity": 68}, {"time": 1190, "pitch": 87, "duration": 20, "velocity": 83}, {"time": 1226, "pitch": 58, "duration": 13, "velocity": 73}, {"time": 1238, "pitch": 55, "duration": 23, "velocity": 78}, {"time": 1262, "pitch": 60, "duration": 22, "velocity": 75}, {"time": 1286, "pitch": 60, "duration": 37, "velocity": 79}, {"time": 1322, "pitch": 53, "duration": 8, "velocity": 80}, {"time": 1334, "pitch": 55, "duration": 41, "velocity": 72}, {"time": 1334, "pitch": 60, "duration": 41, "velocity": 78}, {"time": 1376, "pitch": 55, "duration": 4, "velocity": 78}, {"time": 1376, "pitch": 60, "duration": 5, "velocity": 79}, {"time": 1382, "pitch": 55, "duration": 26, "velocity": 78}, {"time": 1382, "pitch": 59, "duration": 27, "velocity": 77}, {"time": 1412, "pitch": 59, "duration": 7, "velocity": 78}, {"time": 1418, "pitch": 60, "duration": 6, "velocity": 83}, {"time": 1424, "pitch": 62, "duration": 5, "velocity": 82}, {"time": 1430, "pitch": 60, "duration": 34, "velocity": 82}, {"time": 1430, "pitch": 63, "duration": 34, "velocity": 67}, {"time": 1454, "pitch": 67, "duration": 12, "velocity": 79}, {"time": 1466, "pitch": 65, "duration": 5, "velocity": 84}, {"time": 1472, "pitch": 67, "duration": 6, "velocity": 84}, {"time": 1478, "pitch": 53, "duration": 23, "velocity": 71}, {"time": 1478, "pitch": 65, "duration": 22, "velocity": 78}, {"time": 1478, "pitch": 68, "duration": 22, "velocity": 74}, {"time": 1502, "pitch": 65, "duration": 20, "velocity": 77}, {"time": 1502, "pitch": 72, "duration": 19, "velocity": 81}, {"time": 1526, "pitch": 65, "duration": 30, "velocity": 78}, {"time": 1556, "pitch": 62, "duration": 7, "velocity": 75}, {"time": 1562, "pitch": 63, "duration": 7, "velocity": 78}, {"time": 1568, "pitch": 65, "duration": 7, "velocity": 83}, {"time": 1574, "pitch": 67, "duration": 22, "velocity": 80}, {"time": 1598, "pitch": 67, "duration": 10, "velocity": 83}, {"time": 1610, "pitch": 67, "duration": 10, "velocity": 83}, {"time": 1610, "pitch": 71, "duration": 11, "velocity": 84}, {"time": 1622, "pitch": 72, "duration": 18, "velocity": 78}, {"time": 1640, "pitch": 74, "duration": 7, "velocity": 84}, {"time": 1646, "pitch": 75, "duration": 7, "velocity": 85}, {"time": 1652, "pitch": 74, "duration": 6, "velocity": 90}, {"time": 1658, "pitch": 72, "duration": 10, "velocity": 83}, {"time": 1670, "pitch": 72, "duration": 22, "velocity": 84}, {"time": 1694, "pitch": 65, "duration": 21, "velocity": 75}, {"time": 1694, "pitch": 68, "duration": 21, "velocity": 67}, {"time": 1694, "pitch": 72, "duration": 22, "velocity": 78}, {"time": 1718, "pitch": 72, "duration": 23, "velocity": 52}, {"time": 1742, "pitch": 67, "duration": 21, "velocity": 72}, {"time": 1742, "pitch": 71, "duration": 21, "velocity": 78}, {"time": 1766, "pitch": 67, "duration": 26, "velocity": 72}, {"time": 1766, "pitch": 72, "duration": 26, "velocity": 78}, {"time": 1796, "pitch": 67, "duration": 6, "velocity": 83}, {"time": 1802, "pitch": 75, "duration": 7, "velocity": 88}, {"time": 1808, "pitch": 74, "duration": 7, "velocity": 87}, {"time": 1814, "pitch": 75, "duration": 17, "velocity": 89}, {"time": 1832, "pitch": 67, "duration": 5, "velocity": 90}, {"time": 1838, "pitch": 67, "duration": 10, "velocity": 90}, {"time": 1850, "pitch": 67, "duration": 5, "velocity": 87}, {"time": 1856, "pitch": 70, "duration": 5, "velocity": 84}, {"time": 1862, "pitch": 70, "duration": 17, "velocity": 86}, {"time": 1880, "pitch": 72, "duration": 5, "velocity": 84}, {"time": 1886, "pitch": 68, "duration": 12, "velocity": 88}, {"time": 1898, "pitch": 70, "duration": 5, "velocity": 100}, {"time": 1902, "pitch": 79, "duration": 4, "velocity": 90}, {"time": 1905, "pitch": 77, "duration": 3, "velocity": 94}, {"time": 1910, "pitch": 77, "duration": 14, "velocity": 90}, {"time": 1928, "pitch": 65, "duration": 6, "velocity": 99}, {"time": 1934, "pitch": 70, "duration": 6, "velocity": 92}, {"time": 1940, "pitch": 74, "duration": 4, "velocity": 97}, {"time": 1946, "pitch": 75, "duration": 5, "velocity": 90}, {"time": 1952, "pitch": 77, "duration": 5, "velocity": 90}, {"time": 1958, "pitch": 70, "duration": 12, "velocity": 97}, {"time": 1970, "pitch": 63, "duration": 5, "velocity": 90}, {"time": 1976, "pitch": 70, "duration": 5, "velocity": 100}, {"time": 1982, "pitch": 71, "duration": 5, "velocity": 94}, {"time": 1988, "pitch": 80, "duration": 5, "velocity": 90}, {"time": 1994, "pitch": 79, "duration": 5, "velocity": 90}, {"time": 2000, "pitch": 77, "duration": 6, "velocity": 92}, {"time": 2006, "pitch": 75, "duration": 15, "velocity": 97}, {"time": 2021, "pitch": 67, "duration": 2, "velocity": 85}, {"time": 2024, "pitch": 74, "duration": 3, "velocity": 90}, {"time": 2027, "pitch": 75, "duration": 2, "velocity": 87}, {"time": 2030, "pitch": 75, "duration": 13, "velocity": 97}, {"time": 2045, "pitch": 75, "duration": 3, "velocity": 92}, {"time": 2049, "pitch": 77, "duration": 3, "velocity": 87}, {"time": 2054, "pitch": 79, "duration": 15, "velocity": 85}, {"time": 2072, "pitch": 75, "duration": 7, "velocity": 87}, {"time": 2078, "pitch": 74, "duration": 6, "velocity": 94}, {"time": 2084, "pitch": 72, "duration": 12, "velocity": 90}, {"time": 2096, "pitch": 67, "duration": 5, "velocity": 87}, {"time": 2102, "pitch": 68, "duration": 4, "velocity": 92}, {"time": 2108, "pitch": 72, "duration": 4, "velocity": 97}, {"time": 2114, "pitch": 75, "duration": 5, "velocity": 94}, {"time": 2120, "pitch": 79, "duration": 5, "velocity": 90}, {"time": 2126, "pitch": 78, "duration": 5, "velocity": 97}, {"time": 2132, "pitch": 75, "duration": 5, "velocity": 94}, {"time": 2138, "pitch": 74, "duration": 6, "velocity": 97}, {"time": 2144, "pitch": 72, "duration": 5, "velocity": 90}, {"time": 2150, "pitch": 71, "duration": 12, "velocity": 97}, {"time": 2156, "pitch": 65, "duration": 7, "velocity": 84}, {"time": 2162, "pitch": 67, "duration": 6, "velocity": 85}, {"time": 2168, "pitch": 71, "duration": 6, "velocity": 84}, {"time": 2174, "pitch": 74, "duration": 8, "velocity": 90}, {"time": 2180, "pitch": 77, "duration": 7, "velocity": 79}, {"time": 2186, "pitch": 80, "duration": 7, "velocity": 86}, {"time": 2192, "pitch": 79, "duration": 6, "velocity": 84}, {"time": 2198, "pitch": 79, "duration": 10, "velocity": 94}, {"time": 2209, "pitch": 79, "duration": 2, "velocity": 94}, {"time": 2211, "pitch": 81, "duration": 1, "velocity": 84}, {"time": 2213, "pitch": 83, "duration": 2, "velocity": 83}, {"time": 2214, "pitch": 84, "duration": 2, "velocity": 84}, {"time": 2217, "pitch": 86, "duration": 2, "velocity": 83}, {"time": 2218, "pitch": 87, "duration": 3, "velocity": 69}, {"time": 2220, "pitch": 89, "duration": 3, "velocity": 83}, {"time": 2222, "pitch": 91, "duration": 2, "velocity": 86}, {"time": 2228, "pitch": 59, "duration": 7, "velocity": 78}, {"time": 2234, "pitch": 60, "duration": 6, "velocity": 83}, {"time": 2240, "pitch": 62, "duration": 5, "velocity": 82}, {"time": 2246, "pitch": 60, "duration": 34, "velocity": 82}, {"time": 2246, "pitch": 63, "duration": 34, "velocity": 67}, {"time": 2270, "pitch": 67, "duration": 12, "velocity": 79}, {"time": 2282, "pitch": 65, "duration": 5, "velocity": 84}, {"time": 2288, "pitch": 67, "duration": 6, "velocity": 84}, {"time": 2294, "pitch": 53, "duration": 23, "velocity": 71}, {"time": 2294, "pitch": 65, "duration": 22, "velocity": 78}, {"time": 2294, "pitch": 68, "duration": 22, "velocity": 74}, {"time": 2318, "pitch": 65, "duration": 20, "velocity": 77}, {"time": 2318, "pitch": 72, "duration": 19, "velocity": 81}, {"time": 2342, "pitch": 65, "duration": 30, "velocity": 78}, {"time": 2372, "pitch": 62, "duration": 7, "velocity": 75}, {"time": 2378, "pitch": 63, "duration": 7, "velocity": 78}, {"time": 2384, "pitch": 65, "duration": 7, "velocity": 83}, {"time": 2390, "pitch": 67, "duration": 22, "velocity": 80}, {"time": 2414, "pitch": 67, "duration": 10, "velocity": 83}, {"time": 2426, "pitch": 67, "duration": 10, "velocity": 83}, {"time": 2426, "pitch": 71, "duration": 11, "velocity": 84}, {"time": 2438, "pitch": 72, "duration": 18, "velocity": 78}, {"time": 2456, "pitch": 74, "duration": 7, "velocity": 84}, {"time": 2462, "pitch": 75, "duration": 7, "velocity": 85}, {"time": 2468, "pitch": 74, "duration": 6, "velocity": 90}, {"time": 2474, "pitch": 72, "duration": 10, "velocity": 83}, {"time": 2486, "pitch": 72, "duration": 22, "velocity": 84}, {"time": 2510, "pitch": 65, "duration": 21, "velocity": 75}, {"time": 2510, "pitch": 68, "duration": 21, "velocity": 67}, {"time": 2510, "pitch": 72, "duration": 22, "velocity": 78}, {"time": 2534, "pitch": 72, "duration": 23, "velocity": 52}, {"time": 2558, "pitch": 67, "duration": 21, "velocity": 72}, {"time": 2558, "pitch": 71, "duration": 21, "velocity": 78}, {"time": 2582, "pitch": 67, "duration": 43, "velocity": 72}, {"time": 2582, "pitch": 72, "duration": 43, "velocity": 78}, {"time": 2630, "pitch": 56, "duration": 36, "velocity": 68}, {"time": 2666, "pitch": 58, "duration": 13, "velocity": 73}, {"time": 2678, "pitch": 55, "duration": 23, "velocity": 78}, {"time": 2702, "pitch": 60, "duration": 22, "velocity": 75}, {"time": 2726, "pitch": 60, "duration": 37, "velocity": 79}, {"time": 2762, "pitch": 53, "duration": 8, "velocity": 80}, {"time": 2774, "pitch": 55, "duration": 41, "velocity": 72}, {"time": 2774, "pitch": 60, "duration": 41, "velocity": 78}, {"time": 2816, "pitch": 55, "duration": 4, "velocity": 78}, {"time": 2816, "pitch": 60, "duration": 5, "velocity": 79}, {"time": 2822, "pitch": 55, "duration": 26, "velocity": 78}, {"time": 2822, "pitch": 59, "duration": 27, "velocity": 77}, {"time": 2852, "pitch": 59, "duration": 7, "velocity": 78}, {"time": 2858, "pitch": 60, "duration": 6, "velocity": 83}, {"time": 2864, "pitch": 62, "duration": 5, "velocity": 82}, {"time": 2870, "pitch": 60, "duration": 34, "velocity": 82}, {"time": 2870, "pitch": 63, "duration": 34, "velocity": 67}, {"time": 2894, "pitch": 67, "duration": 12, "velocity": 79}, {"time": 2906, "pitch": 65, "duration": 5, "velocity": 84}, {"time": 2912, "pitch": 67, "duration": 6, "velocity": 84}, {"time": 2918, "pitch": 53, "duration": 23, "velocity": 71}, {"time": 2918, "pitch": 65, "duration": 22, "velocity": 78}, {"time": 2918, "pitch": 68, "duration": 22, "velocity": 74}, {"time": 2942, "pitch": 65, "duration": 20, "velocity": 77}, {"time": 2942, "pitch": 72, "duration": 19, "velocity": 81}, {"time": 2966, "pitch": 65, "duration": 30, "velocity": 78}, {"time": 2996, "pitch": 62, "duration": 7, "velocity": 75}, {"time": 3002, "pitch": 63, "duration": 7, "velocity": 78}, {"time": 3008, "pitch": 65, "duration": 7, "velocity": 83}, {"time": 3014, "pitch": 67, "duration": 22, "velocity": 80}, {"time": 3038, "pitch": 67, "duration": 10, "velocity": 83}, {"time": 3050, "pitch": 67, "duration": 10, "velocity": 83}, {"time": 3050, "pitch": 71, "duration": 11, "velocity": 84}, {"time": 3062, "pitch": 72, "duration": 18, "velocity": 78}, {"time": 3080, "pitch": 74, "duration": 7, "velocity": 84}, {"time": 3086, "pitch": 75, "duration": 7, "velocity": 85}, {"time": 3092, "pitch": 74, "duration": 6, "velocity": 90}, {"time": 3098, "pitch": 72, "duration": 10, "velocity": 83}, {"time": 3110, "pitch": 72, "duration": 22, "velocity": 84}, {"time": 3134, "pitch": 65, "duration": 21, "velocity": 75}, {"time": 3134, "pitch": 68, "duration": 21, "velocity": 67}, {"time": 3134, "pitch": 72, "duration": 22, "velocity": 78}, {"time": 3158, "pitch": 72, "duration": 23, "velocity": 52}, {"time": 3182, "pitch": 67, "duration": 21, "velocity": 72}, {"time": 3182, "pitch": 71, "duration": 21, "velocity": 78}, {"time": 3206, "pitch": 67, "duration": 26, "velocity": 72}, {"time": 3206, "pitch": 72, "duration": 26, "velocity": 78}, {"time": 3242, "pitch": 72, "duration": 5, "velocity": 88}, {"time": 3248, "pitch": 74, "duration": 5, "velocity": 94}, {"time": 3254, "pitch": 75, "duration": 21, "velocity": 90}, {"time": 3274, "pitch": 67, "duration": 3, "velocity": 73}, {"time": 3279, "pitch": 67, "duration": 13, "velocity": 84}, {"time": 3290, "pitch": 72, "duration": 6, "velocity": 89}, {"time": 3295, "pitch": 74, "duration": 5, "velocity": 100}, {"time": 3299, "pitch": 75, "duration": 2, "velocity": 94}, {"time": 3304, "pitch": 82, "duration": 19, "velocity": 97}, {"time": 3322, "pitch": 80, "duration": 5, "velocity": 100}, {"time": 3328, "pitch": 80, "duration": 14, "velocity": 85}, {"time": 3342, "pitch": 80, "duration": 5, "velocity": 90}, {"time": 3347, "pitch": 79, "duration": 3, "velocity": 84}, {"time": 3350, "pitch": 77, "duration": 4, "velocity": 86}, {"time": 3354, "pitch": 79, "duration": 15, "velocity": 88}, {"time": 3371, "pitch": 79, "duration": 4, "velocity": 90}, {"time": 3374, "pitch": 77, "duration": 3, "velocity": 84}, {"time": 3377, "pitch": 75, "duration": 3, "velocity": 85}, {"time": 3380, "pitch": 77, "duration": 14, "velocity": 87}, {"time": 3400, "pitch": 79, "duration": 18, "velocity": 97}, {"time": 3420, "pitch": 72, "duration": 43, "velocity": 90}, {"time": 3421, "pitch": 79, "duration": 64, "velocity": 84}, {"time": 3423, "pitch": 84, "duration": 62, "velocity": 89}]}, {"program": 0, "is_drum": false, "name": "PIANO", "notes": [{"time": 38, "pitch": 48, "duration": 37, "velocity": 80}, {"time": 38, "pitch": 60, "duration": 8, "velocity": 83}, {"time": 44, "pitch": 55, "duration": 9, "velocity": 76}, {"time": 50, "pitch": 63, "duration": 9, "velocity": 71}, {"time": 56, "pitch": 67, "duration": 13, "velocity": 76}, {"time": 62, "pitch": 63, "duration": 10, "velocity": 76}, {"time": 74, "pitch": 55, "duration": 2, "velocity": 69}, {"time": 74, "pitch": 60, "duration": 13, "velocity": 76}, {"time": 74, "pitch": 63, "duration": 13, "velocity": 69}, {"time": 74, "pitch": 67, "duration": 13, "velocity": 58}, {"time": 80, "pitch": 55, "duration": 8, "velocity": 50}, {"time": 86, "pitch": 41, "duration": 40, "velocity": 81}, {"time": 92, "pitch": 48, "duration": 35, "velocity": 67}, {"time": 98, "pitch": 60, "duration": 9, "velocity": 72}, {"time": 104, "pitch": 56, "duration": 3, "velocity": 71}, {"time": 110, "pitch": 53, "duration": 9, "velocity": 67}, {"time": 110, "pitch": 65, "duration": 8, "velocity": 74}, {"time": 134, "pitch": 46, "duration": 34, "velocity": 83}, {"time": 140, "pitch": 58, "duration": 9, "velocity": 72}, {"time": 146, "pitch": 53, "duration": 8, "velocity": 74}, {"time": 152, "pitch": 62, "duration": 2, "velocity": 67}, {"time": 158, "pitch": 53, "duration": 14, "velocity": 68}, {"time": 158, "pitch": 58, "duration": 16, "velocity": 70}, {"time": 158, "pitch": 65, "duration": 17, "velocity": 75}, {"time": 182, "pitch": 39, "duration": 14, "velocity": 81}, {"time": 188, "pitch": 46, "duration": 8, "velocity": 54}, {"time": 194, "pitch": 55, "duration": 8, "velocity": 71}, {"time": 200, "pitch": 58, "duration": 2, "velocity": 69}, {"time": 206, "pitch": 43, "duration": 20, "velocity": 78}, {"time": 206, "pitch": 55, "duration": 9, "velocity": 74}, {"time": 206, "pitch": 59, "duration": 12, "velocity": 78}, {"time": 212, "pitch": 50, "duration": 13, "velocity": 76}, {"time": 218, "pitch": 55, "duration": 5, "velocity": 84}, {"time": 230, "pitch": 48, "duration": 38, "velocity": 81}, {"time": 230, "pitch": 60, "duration": 8, "velocity": 76}, {"time": 230, "pitch": 63, "duration": 9, "velocity": 72}, {"time": 236, "pitch": 55, "duration": 7, "velocity": 71}, {"time": 242, "pitch": 60, "duration": 7, "velocity": 71}, {"time": 248, "pitch": 55, "duration": 10, "velocity": 52}, {"time": 254, "pitch": 63, "duration": 10, "velocity": 79}, {"time": 266, "pitch": 55, "duration": 4, "velocity": 71}, {"time": 266, "pitch": 60, "duration": 4, "velocity": 64}, {"time": 278, "pitch": 41, "duration": 38, "velocity": 79}, {"time": 278, "pitch": 56, "duration": 10, "velocity": 72}, {"time": 278, "pitch": 60, "duration": 12, "velocity": 77}, {"time": 284, "pitch": 48, "duration": 32, "velocity": 71}, {"time": 290, "pitch": 53, "duration": 13, "velocity": 79}, {"time": 296, "pitch": 60, "duration": 11, "velocity": 79}, {"time": 302, "pitch": 65, "duration": 14, "velocity": 83}, {"time": 326, "pitch": 44, "duration": 16, "velocity": 76}, {"time": 326, "pitch": 56, "duration": 9, "velocity": 68}, {"time": 326, "pitch": 60, "duration": 13, "velocity": 79}, {"time": 326, "pitch": 63, "duration": 15, "velocity": 70}, {"time": 332, "pitch": 51, "duration": 10, "velocity": 69}, {"time": 338, "pitch": 56, "duration": 4, "velocity": 71}, {"time": 350, "pitch": 43, "duration": 17, "velocity": 76}, {"time": 350, "pitch": 55, "duration": 9, "velocity": 70}, {"time": 350, "pitch": 59, "duration": 13, "velocity": 75}, {"time": 356, "pitch": 50, "duration": 10, "velocity": 66}, {"time": 362, "pitch": 55, "duration": 9, "velocity": 78}, {"time": 374, "pitch": 36, "duration": 2, "velocity": 74}, {"time": 374, "pitch": 55, "duration": 5, "velocity": 71}, {"time": 374, "pitch": 60, "duration": 9, "velocity": 72}, {"time": 380, "pitch": 48, "duration": 33, "velocity": 78}, {"time": 386, "pitch": 55, "duration": 27, "velocity": 72}, {"time": 392, "pitch": 62, "duration": 4, "velocity": 66}, {"time": 398, "pitch": 60, "duration": 22, "velocity": 66}, {"time": 398, "pitch": 63, "duration": 22, "velocity": 71}, {"time": 422, "pitch": 36, "duration": 22, "velocity": 76}, {"time": 428, "pitch": 43, "duration": 13, "velocity": 72}, {"time": 434, "pitch": 60, "duration": 3, "velocity": 65}, {"time": 440, "pitch": 62, "duration": 5, "velocity": 78}, {"time": 446, "pitch": 60, "duration": 3, "velocity": 79}, {"time": 446, "pitch": 63, "duration": 3, "velocity": 82}, {"time": 470, "pitch": 41, "duration": 36, "velocity": 82}, {"time": 476, "pitch": 48, "duration": 26, "velocity": 68}, {"time": 482, "pitch": 55, "duration": 6, "velocity": 84}, {"time": 488, "pitch": 56, "duration": 4, "velocity": 92}, {"time": 494, "pitch": 53, "duration": 13, "velocity": 78}, {"time": 494, "pitch": 60, "duration": 13, "velocity": 84}, {"time": 518, "pitch": 46, "duration": 34, "velocity": 76}, {"time": 524, "pitch": 53, "duration": 25, "velocity": 65}, {"time": 530, "pitch": 58, "duration": 7, "velocity": 74}, {"time": 536, "pitch": 60, "duration": 3, "velocity": 85}, {"time": 542, "pitch": 58, "duration": 16, "velocity": 72}, {"time": 542, "pitch": 62, "duration": 17, "velocity": 80}, {"time": 554, "pitch": 53, "duration": 2, "velocity": 73}, {"time": 566, "pitch": 39, "duration": 10, "velocity": 70}, {"time": 566, "pitch": 55, "duration": 7, "velocity": 71}, {"time": 566, "pitch": 58, "duration": 12, "velocity": 73}, {"time": 572, "pitch": 46, "duration": 5, "velocity": 70}, {"time": 578, "pitch": 55, "duration": 8, "velocity": 84}, {"time": 584, "pitch": 58, "duration": 2, "velocity": 84}, {"time": 590, "pitch": 43, "duration": 13, "velocity": 82}, {"time": 590, "pitch": 55, "duration": 8, "velocity": 77}, {"time": 590, "pitch": 59, "duration": 11, "velocity": 77}, {"time": 596, "pitch": 50, "duration": 7, "velocity": 71}, {"time": 602, "pitch": 55, "duration": 2, "velocity": 89}, {"time": 614, "pitch": 48, "duration": 11, "velocity": 83}, {"time": 614, "pitch": 63, "duration": 8, "velocity": 74}, {"time": 614, "pitch": 67, "duration": 10, "velocity": 75}, {"time": 620, "pitch": 55, "duration": 5, "velocity": 71}, {"time": 626, "pitch": 60, "duration": 4, "velocity": 84}, {"time": 632, "pitch": 62, "duration": 4, "velocity": 84}, {"time": 638, "pitch": 60, "duration": 9, "velocity": 75}, {"time": 638, "pitch": 63, "duration": 9, "velocity": 83}, {"time": 662, "pitch": 41, "duration": 34, "velocity": 84}, {"time": 668, "pitch": 48, "duration": 26, "velocity": 70}, {"time": 674, "pitch": 55, "duration": 6, "velocity": 82}, {"time": 680, "pitch": 56, "duration": 4, "velocity": 84}, {"time": 686, "pitch": 53, "duration": 10, "velocity": 76}, {"time": 686, "pitch": 60, "duration": 12, "velocity": 83}, {"time": 710, "pitch": 44, "duration": 12, "velocity": 81}, {"time": 710, "pitch": 56, "duration": 8, "velocity": 72}, {"time": 710, "pitch": 63, "duration": 12, "velocity": 77}, {"time": 716, "pitch": 51, "duration": 6, "velocity": 71}, {"time": 722, "pitch": 56, "duration": 7, "velocity": 88}, {"time": 728, "pitch": 63, "duration": 2, "velocity": 80}, {"time": 734, "pitch": 38, "duration": 18, "velocity": 82}, {"time": 734, "pitch": 50, "duration": 8, "velocity": 69}, {"time": 734, "pitch": 54, "duration": 12, "velocity": 72}, {"time": 740, "pitch": 45, "duration": 12, "velocity": 71}, {"time": 746, "pitch": 50, "duration": 8, "velocity": 85}, {"time": 758, "pitch": 43, "duration": 22, "velocity": 85}, {"time": 764, "pitch": 50, "duration": 15, "velocity": 76}, {"time": 770, "pitch": 60, "duration": 5, "velocity": 76}, {"time": 776, "pitch": 62, "duration": 2, "velocity": 75}, {"time": 782, "pitch": 43, "duration": 24, "velocity": 81}, {"time": 782, "pitch": 55, "duration": 14, "velocity": 72}, {"time": 782, "pitch": 59, "duration": 10, "velocity": 79}, {"time": 788, "pitch": 50, "duration": 18, "velocity": 69}, {"time": 794, "pitch": 59, "duration": 3, "velocity": 52}, {"time": 794, "pitch": 67, "duration": 8, "velocity": 77}, {"time": 800, "pitch": 65, "duration": 5, "velocity": 82}, {"time": 806, "pitch": 36, "duration": 2, "velocity": 76}, {"time": 806, "pitch": 60, "duration": 10, "velocity": 66}, {"time": 806, "pitch": 63, "duration": 11, "velocity": 76}, {"time": 806, "pitch": 67, "duration": 12, "velocity": 71}, {"time": 812, "pitch": 48, "duration": 33, "velocity": 74}, {"time": 818, "pitch": 55, "duration": 26, "velocity": 79}, {"time": 824, "pitch": 60, "duration": 3, "velocity": 76}, {"time": 830, "pitch": 63, "duration": 4, "velocity": 76}, {"time": 830, "pitch": 67, "duration": 4, "velocity": 77}, {"time": 842, "pitch": 63, "duration": 5, "velocity": 73}, {"time": 842, "pitch": 67, "duration": 6, "velocity": 77}, {"time": 848, "pitch": 60, "duration": 8, "velocity": 69}, {"time": 854, "pitch": 41, "duration": 40, "velocity": 83}, {"time": 854, "pitch": 65, "duration": 4, "velocity": 74}, {"time": 854, "pitch": 68, "duration": 4, "velocity": 69}, {"time": 860, "pitch": 48, "duration": 21, "velocity": 64}, {"time": 866, "pitch": 55, "duration": 6, "velocity": 75}, {"time": 872, "pitch": 56, "duration": 3, "velocity": 84}, {"time": 878, "pitch": 53, "duration": 3, "velocity": 73}, {"time": 878, "pitch": 56, "duration": 2, "velocity": 71}, {"time": 878, "pitch": 60, "duration": 3, "velocity": 69}, {"time": 884, "pitch": 48, "duration": 9, "velocity": 73}, {"time": 890, "pitch": 60, "duration": 13, "velocity": 80}, {"time": 890, "pitch": 65, "duration": 13, "velocity": 82}, {"time": 902, "pitch": 46, "duration": 38, "velocity": 83}, {"time": 908, "pitch": 53, "duration": 21, "velocity": 79}, {"time": 914, "pitch": 58, "duration": 8, "velocity": 75}, {"time": 920, "pitch": 60, "duration": 2, "velocity": 79}, {"time": 926, "pitch": 58, "duration": 7, "velocity": 74}, {"time": 926, "pitch": 62, "duration": 5, "velocity": 71}, {"time": 932, "pitch": 53, "duration": 8, "velocity": 72}, {"time": 938, "pitch": 58, "duration": 4, "velocity": 79}, {"time": 938, "pitch": 65, "duration": 5, "velocity": 83}, {"time": 950, "pitch": 39, "duration": 13, "velocity": 84}, {"time": 950, "pitch": 55, "duration": 6, "velocity": 73}, {"time": 950, "pitch": 58, "duration": 9, "velocity": 68}, {"time": 956, "pitch": 46, "duration": 8, "velocity": 65}, {"time": 962, "pitch": 55, "duration": 9, "velocity": 85}, {"time": 968, "pitch": 58, "duration": 2, "velocity": 89}, {"time": 974, "pitch": 43, "duration": 14, "velocity": 83}, {"time": 974, "pitch": 55, "duration": 8, "velocity": 84}, {"time": 974, "pitch": 59, "duration": 8, "velocity": 89}, {"time": 980, "pitch": 50, "duration": 7, "velocity": 78}, {"time": 986, "pitch": 55, "duration": 3, "velocity": 81}, {"time": 986, "pitch": 59, "duration": 3, "velocity": 88}, {"time": 986, "pitch": 62, "duration": 4, "velocity": 85}, {"time": 998, "pitch": 36, "duration": 2, "velocity": 80}, {"time": 998, "pitch": 60, "duration": 11, "velocity": 76}, {"time": 998, "pitch": 63, "duration": 10, "velocity": 76}, {"time": 998, "pitch": 67, "duration": 12, "velocity": 75}, {"time": 1004, "pitch": 48, "duration": 16, "velocity": 74}, {"time": 1010, "pitch": 55, "duration": 10, "velocity": 84}, {"time": 1016, "pitch": 62, "duration": 5, "velocity": 83}, {"time": 1022, "pitch": 48, "duration": 15, "velocity": 85}, {"time": 1022, "pitch": 60, "duration": 9, "velocity": 77}, {"time": 1022, "pitch": 63, "duration": 8, "velocity": 77}, {"time": 1028, "pitch": 55, "duration": 7, "velocity": 75}, {"time": 1034, "pitch": 60, "duration": 3, "velocity": 80}, {"time": 1034, "pitch": 63, "duration": 4, "velocity": 84}, {"time": 1034, "pitch": 67, "duration": 6, "velocity": 81}, {"time": 1040, "pitch": 60, "duration": 5, "velocity": 63}, {"time": 1046, "pitch": 41, "duration": 3, "velocity": 83}, {"time": 1046, "pitch": 65, "duration": 8, "velocity": 75}, {"time": 1046, "pitch": 68, "duration": 11, "velocity": 72}, {"time": 1052, "pitch": 53, "duration": 16, "velocity": 78}, {"time": 1058, "pitch": 60, "duration": 10, "velocity": 83}, {"time": 1064, "pitch": 67, "duration": 5, "velocity": 78}, {"time": 1070, "pitch": 53, "duration": 13, "velocity": 83}, {"time": 1070, "pitch": 65, "duration": 9, "velocity": 76}, {"time": 1070, "pitch": 68, "duration": 4, "velocity": 83}, {"time": 1076, "pitch": 60, "duration": 7, "velocity": 73}, {"time": 1082, "pitch": 65, "duration": 3, "velocity": 76}, {"time": 1082, "pitch": 68, "duration": 3, "velocity": 86}, {"time": 1082, "pitch": 72, "duration": 3, "velocity": 83}, {"time": 1094, "pitch": 44, "duration": 12, "velocity": 83}, {"time": 1094, "pitch": 56, "duration": 7, "velocity": 72}, {"time": 1094, "pitch": 60, "duration": 6, "velocity": 80}, {"time": 1094, "pitch": 63, "duration": 6, "velocity": 78}, {"time": 1100, "pitch": 51, "duration": 6, "velocity": 71}, {"time": 1106, "pitch": 56, "duration": 3, "velocity": 83}, {"time": 1106, "pitch": 60, "duration": 5, "velocity": 79}, {"time": 1106, "pitch": 63, "duration": 4, "velocity": 72}, {"time": 1106, "pitch": 68, "duration": 6, "velocity": 79}, {"time": 1112, "pitch": 56, "duration": 2, "velocity": 86}, {"time": 1118, "pitch": 43, "duration": 15, "velocity": 83}, {"time": 1118, "pitch": 55, "duration": 8, "velocity": 83}, {"time": 1118, "pitch": 59, "duration": 7, "velocity": 80}, {"time": 1124, "pitch": 50, "duration": 8, "velocity": 72}, {"time": 1130, "pitch": 59, "duration": 6, "velocity": 85}, {"time": 1130, "pitch": 62, "duration": 7, "velocity": 83}, {"time": 1136, "pitch": 55, "duration": 2, "velocity": 83}, {"time": 1142, "pitch": 36, "duration": 2, "velocity": 81}, {"time": 1142, "pitch": 55, "duration": 5, "velocity": 83}, {"time": 1142, "pitch": 60, "duration": 6, "velocity": 83}, {"time": 1148, "pitch": 48, "duration": 17, "velocity": 85}, {"time": 1154, "pitch": 55, "duration": 10, "velocity": 84}, {"time": 1160, "pitch": 62, "duration": 5, "velocity": 84}, {"time": 1166, "pitch": 48, "duration": 24, "velocity": 87}, {"time": 1166, "pitch": 60, "duration": 4, "velocity": 81}, {"time": 1166, "pitch": 63, "duration": 5, "velocity": 80}, {"time": 1172, "pitch": 60, "duration": 2, "velocity": 79}, {"time": 1172, "pitch": 67, "duration": 3, "velocity": 78}, {"time": 1178, "pitch": 60, "duration": 12, "velocity": 78}, {"time": 1178, "pitch": 72, "duration": 12, "velocity": 70}, {"time": 1184, "pitch": 55, "duration": 6, "velocity": 83}, {"time": 1190, "pitch": 44, "duration": 18, "velocity": 90}, {"time": 1190, "pitch": 56, "duration": 8, "velocity": 83}, {"time": 1190, "pitch": 63, "duration": 6, "velocity": 80}, {"time": 1196, "pitch": 51, "duration": 9, "velocity": 74}, {"time": 1202, "pitch": 60, "duration": 4, "velocity": 83}, {"time": 1202, "pitch": 63, "duration": 6, "velocity": 77}, {"time": 1208, "pitch": 56, "duration": 5, "velocity": 86}, {"time": 1214, "pitch": 56, "duration": 4, "velocity": 75}, {"time": 1214, "pitch": 60, "duration": 5, "velocity": 77}, {"time": 1214, "pitch": 63, "duration": 6, "velocity": 77}, {"time": 1220, "pitch": 51, "duration": 10, "velocity": 66}, {"time": 1226, "pitch": 56, "duration": 2, "velocity": 82}, {"time": 1226, "pitch": 60, "duration": 5, "velocity": 85}, {"time": 1226, "pitch": 63, "duration": 4, "velocity": 83}, {"time": 1226, "pitch": 68, "duration": 6, "velocity": 82}, {"time": 1232, "pitch": 56, "duration": 2, "velocity": 92}, {"time": 1238, "pitch": 43, "duration": 16, "velocity": 84}, {"time": 1238, "pitch": 55, "duration": 7, "velocity": 84}, {"time": 1238, "pitch": 58, "duration": 7, "velocity": 83}, {"time": 1244, "pitch": 50, "duration": 9, "velocity": 83}, {"time": 1250, "pitch": 58, "duration": 4, "velocity": 85}, {"time": 1250, "pitch": 62, "duration": 5, "velocity": 85}, {"time": 1256, "pitch": 55, "duration": 7, "velocity": 85}, {"time": 1262, "pitch": 36, "duration": 1, "velocity": 83}, {"time": 1262, "pitch": 60, "duration": 4, "velocity": 83}, {"time": 1262, "pitch": 63, "duration": 5, "velocity": 83}, {"time": 1268, "pitch": 48, "duration": 8, "velocity": 80}, {"time": 1274, "pitch": 60, "duration": 3, "velocity": 84}, {"time": 1274, "pitch": 63, "duration": 10, "velocity": 87}, {"time": 1274, "pitch": 67, "duration": 12, "velocity": 84}, {"time": 1280, "pitch": 60, "duration": 6, "velocity": 87}, {"time": 1286, "pitch": 44, "duration": 14, "velocity": 87}, {"time": 1286, "pitch": 56, "duration": 6, "velocity": 75}, {"time": 1286, "pitch": 60, "duration": 1, "velocity": 79}, {"time": 1286, "pitch": 63, "duration": 6, "velocity": 75}, {"time": 1292, "pitch": 51, "duration": 8, "velocity": 67}, {"time": 1298, "pitch": 56, "duration": 3, "velocity": 83}, {"time": 1298, "pitch": 60, "duration": 6, "velocity": 83}, {"time": 1298, "pitch": 63, "duration": 6, "velocity": 81}, {"time": 1298, "pitch": 68, "duration": 6, "velocity": 80}, {"time": 1304, "pitch": 56, "duration": 2, "velocity": 94}, {"time": 1310, "pitch": 41, "duration": 2, "velocity": 84}, {"time": 1310, "pitch": 53, "duration": 4, "velocity": 75}, {"time": 1310, "pitch": 56, "duration": 1, "velocity": 69}, {"time": 1310, "pitch": 60, "duration": 6, "velocity": 78}, {"time": 1316, "pitch": 53, "duration": 9, "velocity": 84}, {"time": 1334, "pitch": 43, "duration": 2, "velocity": 83}, {"time": 1334, "pitch": 67, "duration": 10, "velocity": 83}, {"time": 1334, "pitch": 72, "duration": 10, "velocity": 83}, {"time": 1340, "pitch": 55, "duration": 17, "velocity": 80}, {"time": 1346, "pitch": 67, "duration": 10, "velocity": 86}, {"time": 1346, "pitch": 72, "duration": 10, "velocity": 92}, {"time": 1352, "pitch": 62, "duration": 5, "velocity": 75}, {"time": 1358, "pitch": 55, "duration": 16, "velocity": 87}, {"time": 1358, "pitch": 62, "duration": 14, "velocity": 85}, {"time": 1358, "pitch": 67, "duration": 5, "velocity": 84}, {"time": 1358, "pitch": 72, "duration": 7, "velocity": 84}, {"time": 1364, "pitch": 67, "duration": 3, "velocity": 73}, {"time": 1370, "pitch": 67, "duration": 3, "velocity": 92}, {"time": 1370, "pitch": 72, "duration": 7, "velocity": 97}, {"time": 1376, "pitch": 67, "duration": 4, "velocity": 83}, {"time": 1379, "pitch": 72, "duration": 2, "velocity": 79}, {"time": 1382, "pitch": 43, "duration": 23, "velocity": 83}, {"time": 1382, "pitch": 67, "duration": 4, "velocity": 85}, {"time": 1382, "pitch": 71, "duration": 4, "velocity": 89}, {"time": 1388, "pitch": 50, "duration": 8, "velocity": 83}, {"time": 1394, "pitch": 55, "duration": 2, "velocity": 84}, {"time": 1394, "pitch": 59, "duration": 4, "velocity": 84}, {"time": 1397, "pitch": 50, "duration": 8, "velocity": 84}, {"time": 1400, "pitch": 62, "duration": 4, "velocity": 83}, {"time": 1403, "pitch": 55, "duration": 3, "velocity": 74}, {"time": 1406, "pitch": 43, "duration": 6, "velocity": 86}, {"time": 1406, "pitch": 55, "duration": 21, "velocity": 84}, {"time": 1406, "pitch": 59, "duration": 21, "velocity": 87}, {"time": 1406, "pitch": 62, "duration": 21, "velocity": 88}, {"time": 1406, "pitch": 67, "duration": 22, "velocity": 84}, {"time": 1412, "pitch": 43, "duration": 6, "velocity": 78}, {"time": 1418, "pitch": 45, "duration": 5, "velocity": 83}, {"time": 1424, "pitch": 47, "duration": 5, "velocity": 83}, {"time": 1430, "pitch": 48, "duration": 38, "velocity": 88}, {"time": 1430, "pitch": 60, "duration": 10, "velocity": 83}, {"time": 1430, "pitch": 63, "duration": 8, "velocity": 84}, {"time": 1430, "pitch": 67, "duration": 8, "velocity": 84}, {"time": 1436, "pitch": 55, "duration": 9, "velocity": 78}, {"time": 1442, "pitch": 60, "duration": 6, "velocity": 84}, {"time": 1442, "pitch": 63, "duration": 8, "velocity": 87}, {"time": 1442, "pitch": 67, "duration": 10, "velocity": 85}, {"time": 1448, "pitch": 55, "duration": 9, "velocity": 71}, {"time": 1451, "pitch": 60, "duration": 2, "velocity": 83}, {"time": 1454, "pitch": 60, "duration": 9, "velocity": 82}, {"time": 1454, "pitch": 63, "duration": 8, "velocity": 83}, {"time": 1454, "pitch": 67, "duration": 7, "velocity": 84}, {"time": 1454, "pitch": 72, "duration": 6, "velocity": 85}, {"time": 1460, "pitch": 55, "duration": 7, "velocity": 77}, {"time": 1466, "pitch": 60, "duration": 2, "velocity": 85}, {"time": 1466, "pitch": 63, "duration": 4, "velocity": 87}, {"time": 1466, "pitch": 67, "duration": 5, "velocity": 84}, {"time": 1472, "pitch": 60, "duration": 12, "velocity": 87}, {"time": 1478, "pitch": 41, "duration": 2, "velocity": 84}, {"time": 1478, "pitch": 65, "duration": 7, "velocity": 82}, {"time": 1478, "pitch": 68, "duration": 8, "velocity": 84}, {"time": 1484, "pitch": 53, "duration": 17, "velocity": 72}, {"time": 1484, "pitch": 55, "duration": 2, "velocity": 47}, {"time": 1490, "pitch": 65, "duration": 6, "velocity": 81}, {"time": 1490, "pitch": 68, "duration": 6, "velocity": 81}, {"time": 1490, "pitch": 72, "duration": 6, "velocity": 84}, {"time": 1496, "pitch": 60, "duration": 5, "velocity": 71}, {"time": 1499, "pitch": 65, "duration": 2, "velocity": 75}, {"time": 1502, "pitch": 53, "duration": 14, "velocity": 84}, {"time": 1502, "pitch": 65, "duration": 7, "velocity": 83}, {"time": 1502, "pitch": 68, "duration": 7, "velocity": 83}, {"time": 1508, "pitch": 60, "duration": 7, "velocity": 72}, {"time": 1514, "pitch": 65, "duration": 4, "velocity": 85}, {"time": 1514, "pitch": 68, "duration": 6, "velocity": 88}, {"time": 1520, "pitch": 67, "duration": 6, "velocity": 89}, {"time": 1526, "pitch": 46, "duration": 22, "velocity": 90}, {"time": 1526, "pitch": 65, "duration": 2, "velocity": 85}, {"time": 1532, "pitch": 53, "duration": 8, "velocity": 70}, {"time": 1538, "pitch": 58, "duration": 7, "velocity": 85}, {"time": 1538, "pitch": 62, "duration": 10, "velocity": 86}, {"time": 1544, "pitch": 53, "duration": 5, "velocity": 66}, {"time": 1547, "pitch": 58, "duration": 2, "velocity": 77}, {"time": 1550, "pitch": 46, "duration": 16, "velocity": 88}, {"time": 1550, "pitch": 58, "duration": 7, "velocity": 80}, {"time": 1550, "pitch": 62, "duration": 7, "velocity": 84}, {"time": 1550, "pitch": 65, "duration": 7, "velocity": 83}, {"time": 1556, "pitch": 53, "duration": 8, "velocity": 72}, {"time": 1559, "pitch": 58, "duration": 2, "velocity": 76}, {"time": 1562, "pitch": 58, "duration": 10, "velocity": 85}, {"time": 1562, "pitch": 62, "duration": 9, "velocity": 85}, {"time": 1568, "pitch": 46, "duration": 2, "velocity": 89}, {"time": 1574, "pitch": 39, "duration": 14, "velocity": 97}, {"time": 1574, "pitch": 55, "duration": 5, "velocity": 79}, {"time": 1574, "pitch": 58, "duration": 7, "velocity": 78}, {"time": 1580, "pitch": 46, "duration": 8, "velocity": 79}, {"time": 1586, "pitch": 55, "duration": 6, "velocity": 86}, {"time": 1586, "pitch": 58, "duration": 10, "velocity": 94}, {"time": 1586, "pitch": 63, "duration": 10, "velocity": 92}, {"time": 1592, "pitch": 39, "duration": 1, "velocity": 73}, {"time": 1595, "pitch": 55, "duration": 4, "velocity": 84}, {"time": 1598, "pitch": 43, "duration": 15, "velocity": 86}, {"time": 1601, "pitch": 50, "duration": 10, "velocity": 83}, {"time": 1604, "pitch": 55, "duration": 4, "velocity": 97}, {"time": 1607, "pitch": 59, "duration": 2, "velocity": 85}, {"time": 1610, "pitch": 55, "duration": 7, "velocity": 86}, {"time": 1610, "pitch": 59, "duration": 7, "velocity": 84}, {"time": 1610, "pitch": 62, "duration": 7, "velocity": 92}, {"time": 1616, "pitch": 50, "duration": 2, "velocity": 89}, {"time": 1622, "pitch": 48, "duration": 21, "velocity": 92}, {"time": 1622, "pitch": 60, "duration": 8, "velocity": 76}, {"time": 1622, "pitch": 63, "duration": 8, "velocity": 77}, {"time": 1628, "pitch": 55, "duration": 8, "velocity": 77}, {"time": 1634, "pitch": 60, "duration": 6, "velocity": 87}, {"time": 1634, "pitch": 63, "duration": 6, "velocity": 90}, {"time": 1634, "pitch": 67, "duration": 5, "velocity": 84}, {"time": 1640, "pitch": 55, "duration": 4, "velocity": 69}, {"time": 1643, "pitch": 60, "duration": 2, "velocity": 85}, {"time": 1646, "pitch": 48, "duration": 8, "velocity": 87}, {"time": 1646, "pitch": 60, "duration": 6, "velocity": 83}, {"time": 1646, "pitch": 63, "duration": 7, "velocity": 87}, {"time": 1646, "pitch": 67, "duration": 8, "velocity": 85}, {"time": 1652, "pitch": 55, "duration": 2, "velocity": 76}, {"time": 1655, "pitch": 60, "duration": 4, "velocity": 85}, {"time": 1658, "pitch": 36, "duration": 2, "velocity": 83}, {"time": 1658, "pitch": 63, "duration": 6, "velocity": 84}, {"time": 1658, "pitch": 67, "duration": 6, "velocity": 85}, {"time": 1658, "pitch": 72, "duration": 5, "velocity": 87}, {"time": 1664, "pitch": 60, "duration": 2, "velocity": 85}, {"time": 1670, "pitch": 41, "duration": 21, "velocity": 85}, {"time": 1670, "pitch": 53, "duration": 7, "velocity": 79}, {"time": 1670, "pitch": 56, "duration": 7, "velocity": 76}, {"time": 1670, "pitch": 60, "duration": 7, "velocity": 83}, {"time": 1676, "pitch": 48, "duration": 9, "velocity": 74}, {"time": 1682, "pitch": 56, "duration": 6, "velocity": 89}, {"time": 1682, "pitch": 60, "duration": 7, "velocity": 90}, {"time": 1688, "pitch": 48, "duration": 4, "velocity": 73}, {"time": 1691, "pitch": 53, "duration": 9, "velocity": 83}, {"time": 1694, "pitch": 41, "duration": 15, "velocity": 85}, {"time": 1694, "pitch": 56, "duration": 7, "velocity": 81}, {"time": 1694, "pitch": 60, "duration": 7, "velocity": 86}, {"time": 1694, "pitch": 65, "duration": 7, "velocity": 84}, {"time": 1700, "pitch": 48, "duration": 8, "velocity": 73}, {"time": 1703, "pitch": 53, "duration": 2, "velocity": 77}, {"time": 1706, "pitch": 53, "duration": 2, "velocity": 77}, {"time": 1706, "pitch": 56, "duration": 3, "velocity": 88}, {"time": 1706, "pitch": 60, "duration": 3, "velocity": 90}, {"time": 1706, "pitch": 65, "duration": 3, "velocity": 85}, {"time": 1712, "pitch": 55, "duration": 3, "velocity": 79}, {"time": 1712, "pitch": 67, "duration": 2, "velocity": 77}, {"time": 1718, "pitch": 44, "duration": 13, "velocity": 84}, {"time": 1718, "pitch": 56, "duration": 8, "velocity": 84}, {"time": 1718, "pitch": 68, "duration": 6, "velocity": 72}, {"time": 1724, "pitch": 51, "duration": 7, "velocity": 69}, {"time": 1730, "pitch": 56, "duration": 3, "velocity": 84}, {"time": 1730, "pitch": 60, "duration": 2, "velocity": 83}, {"time": 1730, "pitch": 63, "duration": 2, "velocity": 76}, {"time": 1730, "pitch": 68, "duration": 3, "velocity": 79}, {"time": 1742, "pitch": 43, "duration": 15, "velocity": 83}, {"time": 1742, "pitch": 55, "duration": 8, "velocity": 75}, {"time": 1742, "pitch": 59, "duration": 8, "velocity": 76}, {"time": 1742, "pitch": 62, "duration": 8, "velocity": 77}, {"time": 1748, "pitch": 50, "duration": 7, "velocity": 68}, {"time": 1754, "pitch": 55, "duration": 4, "velocity": 84}, {"time": 1754, "pitch": 59, "duration": 5, "velocity": 83}, {"time": 1754, "pitch": 62, "duration": 5, "velocity": 84}, {"time": 1760, "pitch": 55, "duration": 1, "velocity": 56}, {"time": 1766, "pitch": 36, "duration": 1, "velocity": 83}, {"time": 1766, "pitch": 55, "duration": 4, "velocity": 83}, {"time": 1766, "pitch": 60, "duration": 6, "velocity": 79}, {"time": 1772, "pitch": 48, "duration": 42, "velocity": 79}, {"time": 1778, "pitch": 55, "duration": 15, "velocity": 84}, {"time": 1781, "pitch": 60, "duration": 3, "velocity": 74}, {"time": 1784, "pitch": 62, "duration": 5, "velocity": 77}, {"time": 1787, "pitch": 63, "duration": 2, "velocity": 88}, {"time": 1790, "pitch": 60, "duration": 4, "velocity": 83}, {"time": 1790, "pitch": 63, "duration": 4, "velocity": 87}, {"time": 1790, "pitch": 67, "duration": 5, "velocity": 87}, {"time": 1796, "pitch": 55, "duration": 18, "velocity": 83}, {"time": 1802, "pitch": 63, "duration": 12, "velocity": 83}, {"time": 1802, "pitch": 67, "duration": 12, "velocity": 84}, {"time": 1802, "pitch": 72, "duration": 13, "velocity": 83}, {"time": 1808, "pitch": 60, "duration": 6, "velocity": 62}, {"time": 1814, "pitch": 48, "duration": 37, "velocity": 80}, {"time": 1814, "pitch": 60, "duration": 8, "velocity": 83}, {"time": 1820, "pitch": 55, "duration": 9, "velocity": 76}, {"time": 1826, "pitch": 63, "duration": 9, "velocity": 71}, {"time": 1832, "pitch": 67, "duration": 13, "velocity": 76}, {"time": 1838, "pitch": 63, "duration": 10, "velocity": 76}, {"time": 1850, "pitch": 55, "duration": 2, "velocity": 69}, {"time": 1850, "pitch": 60, "duration": 13, "velocity": 76}, {"time": 1850, "pitch": 63, "duration": 13, "velocity": 69}, {"time": 1850, "pitch": 67, "duration": 13, "velocity": 58}, {"time": 1856, "pitch": 55, "duration": 8, "velocity": 50}, {"time": 1862, "pitch": 41, "duration": 40, "velocity": 81}, {"time": 1868, "pitch": 48, "duration": 35, "velocity": 67}, {"time": 1874, "pitch": 60, "duration": 9, "velocity": 72}, {"time": 1880, "pitch": 56, "duration": 3, "velocity": 71}, {"time": 1886, "pitch": 53, "duration": 9, "velocity": 67}, {"time": 1886, "pitch": 65, "duration": 8, "velocity": 74}, {"time": 1910, "pitch": 46, "duration": 34, "velocity": 83}, {"time": 1916, "pitch": 58, "duration": 9, "velocity": 72}, {"time": 1922, "pitch": 53, "duration": 8, "velocity": 74}, {"time": 1928, "pitch": 62, "duration": 2, "velocity": 67}, {"time": 1934, "pitch": 53, "duration": 14, "velocity": 68}, {"time": 1934, "pitch": 58, "duration": 16, "velocity": 70}, {"time": 1934, "pitch": 65, "duration": 17, "velocity": 75}, {"time": 1958, "pitch": 39, "duration": 14, "velocity": 81}, {"time": 1964, "pitch": 46, "duration": 8, "velocity": 54}, {"time": 1970, "pitch": 55, "duration": 8, "velocity": 71}, {"time": 1976, "pitch": 58, "duration": 2, "velocity": 69}, {"time": 1982, "pitch": 43, "duration": 20, "velocity": 78}, {"time": 1982, "pitch": 55, "duration": 9, "velocity": 74}, {"time": 1982, "pitch": 59, "duration": 12, "velocity": 78}, {"time": 1988, "pitch": 50, "duration": 13, "velocity": 76}, {"time": 1994, "pitch": 55, "duration": 5, "velocity": 84}, {"time": 2005, "pitch": 60, "duration": 9, "velocity": 77}, {"time": 2006, "pitch": 63, "duration": 10, "velocity": 84}, {"time": 2006, "pitch": 48, "duration": 22, "velocity": 84}, {"time": 2012, "pitch": 55, "duration": 42, "velocity": 84}, {"time": 2018, "pitch": 67, "duration": 7, "velocity": 85}, {"time": 2021, "pitch": 63, "duration": 3, "velocity": 90}, {"time": 2024, "pitch": 60, "duration": 4, "velocity": 83}, {"time": 2026, "pitch": 63, "duration": 5, "velocity": 82}, {"time": 2030, "pitch": 47, "duration": 20, "velocity": 84}, {"time": 2036, "pitch": 59, "duration": 7, "velocity": 85}, {"time": 2042, "pitch": 67, "duration": 3, "velocity": 85}, {"time": 2045, "pitch": 63, "duration": 4, "velocity": 72}, {"time": 2048, "pitch": 59, "duration": 4, "velocity": 85}, {"time": 2051, "pitch": 63, "duration": 6, "velocity": 83}, {"time": 2054, "pitch": 46, "duration": 22, "velocity": 85}, {"time": 2059, "pitch": 58, "duration": 10, "velocity": 75}, {"time": 2066, "pitch": 67, "duration": 6, "velocity": 78}, {"time": 2069, "pitch": 63, "duration": 4, "velocity": 70}, {"time": 2072, "pitch": 58, "duration": 4, "velocity": 78}, {"time": 2075, "pitch": 63, "duration": 4, "velocity": 85}, {"time": 2077, "pitch": 45, "duration": 22, "velocity": 83}, {"time": 2080, "pitch": 57, "duration": 10, "velocity": 78}, {"time": 2083, "pitch": 60, "duration": 7, "velocity": 79}, {"time": 2086, "pitch": 63, "duration": 4, "velocity": 90}, {"time": 2090, "pitch": 67, "duration": 10, "velocity": 84}, {"time": 2093, "pitch": 63, "duration": 5, "velocity": 84}, {"time": 2096, "pitch": 60, "duration": 5, "velocity": 75}, {"time": 2099, "pitch": 57, "duration": 3, "velocity": 74}, {"time": 2102, "pitch": 44, "duration": 24, "velocity": 92}, {"time": 2105, "pitch": 51, "duration": 21, "velocity": 71}, {"time": 2108, "pitch": 56, "duration": 10, "velocity": 84}, {"time": 2111, "pitch": 60, "duration": 8, "velocity": 83}, {"time": 2114, "pitch": 63, "duration": 4, "velocity": 76}, {"time": 2117, "pitch": 68, "duration": 6, "velocity": 86}, {"time": 2120, "pitch": 63, "duration": 5, "velocity": 84}, {"time": 2123, "pitch": 60, "duration": 3, "velocity": 82}, {"time": 2126, "pitch": 38, "duration": 17, "velocity": 87}, {"time": 2129, "pitch": 45, "duration": 13, "velocity": 80}, {"time": 2132, "pitch": 50, "duration": 7, "velocity": 86}, {"time": 2135, "pitch": 54, "duration": 4, "velocity": 90}, {"time": 2138, "pitch": 57, "duration": 4, "velocity": 86}, {"time": 2141, "pitch": 62, "duration": 7, "velocity": 83}, {"time": 2144, "pitch": 57, "duration": 6, "velocity": 83}, {"time": 2147, "pitch": 50, "duration": 4, "velocity": 94}, {"time": 2150, "pitch": 43, "duration": 23, "velocity": 87}, {"time": 2153, "pitch": 50, "duration": 20, "velocity": 83}, {"time": 2156, "pitch": 55, "duration": 5, "velocity": 85}, {"time": 2159, "pitch": 62, "duration": 5, "velocity": 83}, {"time": 2162, "pitch": 59, "duration": 3, "velocity": 86}, {"time": 2165, "pitch": 55, "duration": 4, "velocity": 87}, {"time": 2168, "pitch": 67, "duration": 5, "velocity": 84}, {"time": 2171, "pitch": 55, "duration": 5, "velocity": 83}, {"time": 2174, "pitch": 43, "duration": 4, "velocity": 83}, {"time": 2174, "pitch": 59, "duration": 4, "velocity": 85}, {"time": 2174, "pitch": 62, "duration": 4, "velocity": 83}, {"time": 2180, "pitch": 43, "duration": 3, "velocity": 83}, {"time": 2180, "pitch": 55, "duration": 1, "velocity": 76}, {"time": 2180, "pitch": 59, "duration": 2, "velocity": 77}, {"time": 2180, "pitch": 62, "duration": 3, "velocity": 82}, {"time": 2186, "pitch": 43, "duration": 4, "velocity": 85}, {"time": 2186, "pitch": 50, "duration": 4, "velocity": 87}, {"time": 2186, "pitch": 55, "duration": 3, "velocity": 83}, {"time": 2186, "pitch": 59, "duration": 3, "velocity": 84}, {"time": 2186, "pitch": 62, "duration": 3, "velocity": 85}, {"time": 2186, "pitch": 67, "duration": 3, "velocity": 78}, {"time": 2192, "pitch": 43, "duration": 3, "velocity": 83}, {"time": 2192, "pitch": 50, "duration": 3, "velocity": 83}, {"time": 2192, "pitch": 55, "duration": 3, "velocity": 77}, {"time": 2192, "pitch": 59, "duration": 2, "velocity": 84}, {"time": 2192, "pitch": 62, "duration": 3, "velocity": 84}, {"time": 2192, "pitch": 67, "duration": 3, "velocity": 79}, {"time": 2198, "pitch": 43, "duration": 3, "velocity": 85}, {"time": 2198, "pitch": 50, "duration": 2, "velocity": 85}, {"time": 2198, "pitch": 55, "duration": 2, "velocity": 79}, {"time": 2198, "pitch": 59, "duration": 2, "velocity": 80}, {"time": 2198, "pitch": 62, "duration": 2, "velocity": 77}, {"time": 2198, "pitch": 67, "duration": 3, "velocity": 83}, {"time": 2204, "pitch": 43, "duration": 3, "velocity": 85}, {"time": 2204, "pitch": 50, "duration": 3, "velocity": 85}, {"time": 2204, "pitch": 55, "duration": 3, "velocity": 80}, {"time": 2204, "pitch": 59, "duration": 3, "velocity": 83}, {"time": 2204, "pitch": 62, "duration": 3, "velocity": 79}, {"time": 2204, "pitch": 67, "duration": 3, "velocity": 79}, {"time": 2210, "pitch": 43, "duration": 3, "velocity": 85}, {"time": 2210, "pitch": 50, "duration": 3, "velocity": 85}, {"time": 2210, "pitch": 55, "duration": 3, "velocity": 85}, {"time": 2210, "pitch": 59, "duration": 3, "velocity": 88}, {"time": 2210, "pitch": 62, "duration": 3, "velocity": 89}, {"time": 2210, "pitch": 67, "duration": 3, "velocity": 83}, {"time": 2216, "pitch": 43, "duration": 3, "velocity": 84}, {"time": 2216, "pitch": 50, "duration": 3, "velocity": 85}, {"time": 2216, "pitch": 55, "duration": 4, "velocity": 85}, {"time": 2216, "pitch": 59, "duration": 4, "velocity": 88}, {"time": 2216, "pitch": 62, "duration": 4, "velocity": 89}, {"time": 2216, "pitch": 67, "duration": 4, "velocity": 82}, {"time": 2222, "pitch": 43, "duration": 4, "velocity": 87}, {"time": 2222, "pitch": 50, "duration": 4, "velocity": 90}, {"time": 2222, "pitch": 55, "duration": 4, "velocity": 85}, {"time": 2222, "pitch": 59, "duration": 4, "velocity": 88}, {"time": 2222, "pitch": 62, "duration": 4, "velocity": 87}, {"time": 2222, "pitch": 67, "duration": 4, "velocity": 84}, {"time": 2246, "pitch": 48, "duration": 38, "velocity": 88}, {"time": 2246, "pitch": 60, "duration": 10, "velocity": 83}, {"time": 2246, "pitch": 63, "duration": 8, "velocity": 84}, {"time": 2246, "pitch": 67, "duration": 8, "velocity": 84}, {"time": 2252, "pitch": 55, "duration": 9, "velocity": 78}, {"time": 2258, "pitch": 60, "duration": 6, "velocity": 84}, {"time": 2258, "pitch": 63, "duration": 8, "velocity": 87}, {"time": 2258, "pitch": 67, "duration": 10, "velocity": 85}, {"time": 2264, "pitch": 55, "duration": 9, "velocity": 71}, {"time": 2267, "pitch": 60, "duration": 2, "velocity": 83}, {"time": 2270, "pitch": 60, "duration": 9, "velocity": 82}, {"time": 2270, "pitch": 63, "duration": 8, "velocity": 83}, {"time": 2270, "pitch": 67, "duration": 7, "velocity": 84}, {"time": 2270, "pitch": 72, "duration": 6, "velocity": 85}, {"time": 2276, "pitch": 55, "duration": 7, "velocity": 77}, {"time": 2282, "pitch": 60, "duration": 2, "velocity": 85}, {"time": 2282, "pitch": 63, "duration": 4, "velocity": 87}, {"time": 2282, "pitch": 67, "duration": 5, "velocity": 84}, {"time": 2288, "pitch": 60, "duration": 12, "velocity": 87}, {"time": 2294, "pitch": 41, "duration": 2, "velocity": 84}, {"time": 2294, "pitch": 65, "duration": 7, "velocity": 82}, {"time": 2294, "pitch": 68, "duration": 8, "velocity": 84}, {"time": 2300, "pitch": 53, "duration": 17, "velocity": 72}, {"time": 2300, "pitch": 55, "duration": 2, "velocity": 47}, {"time": 2306, "pitch": 65, "duration": 6, "velocity": 81}, {"time": 2306, "pitch": 68, "duration": 6, "velocity": 81}, {"time": 2306, "pitch": 72, "duration": 6, "velocity": 84}, {"time": 2312, "pitch": 60, "duration": 5, "velocity": 71}, {"time": 2315, "pitch": 65, "duration": 2, "velocity": 75}, {"time": 2318, "pitch": 53, "duration": 14, "velocity": 84}, {"time": 2318, "pitch": 65, "duration": 7, "velocity": 83}, {"time": 2318, "pitch": 68, "duration": 7, "velocity": 83}, {"time": 2324, "pitch": 60, "duration": 7, "velocity": 72}, {"time": 2330, "pitch": 65, "duration": 4, "velocity": 85}, {"time": 2330, "pitch": 68, "duration": 6, "velocity": 88}, {"time": 2336, "pitch": 67, "duration": 6, "velocity": 89}, {"time": 2342, "pitch": 46, "duration": 22, "velocity": 90}, {"time": 2342, "pitch": 65, "duration": 2, "velocity": 85}, {"time": 2348, "pitch": 53, "duration": 8, "velocity": 70}, {"time": 2354, "pitch": 58, "duration": 7, "velocity": 85}, {"time": 2354, "pitch": 62, "duration": 10, "velocity": 86}, {"time": 2360, "pitch": 53, "duration": 5, "velocity": 66}, {"time": 2363, "pitch": 58, "duration": 2, "velocity": 77}, {"time": 2366, "pitch": 46, "duration": 16, "velocity": 88}, {"time": 2366, "pitch": 58, "duration": 7, "velocity": 80}, {"time": 2366, "pitch": 62, "duration": 7, "velocity": 84}, {"time": 2366, "pitch": 65, "duration": 7, "velocity": 83}, {"time": 2372, "pitch": 53, "duration": 8, "velocity": 72}, {"time": 2375, "pitch": 58, "duration": 2, "velocity": 76}, {"time": 2378, "pitch": 58, "duration": 10, "velocity": 85}, {"time": 2378, "pitch": 62, "duration": 9, "velocity": 85}, {"time": 2384, "pitch": 46, "duration": 2, "velocity": 89}, {"time": 2390, "pitch": 39, "duration": 14, "velocity": 97}, {"time": 2390, "pitch": 55, "duration": 5, "velocity": 79}, {"time": 2390, "pitch": 58, "duration": 7, "velocity": 78}, {"time": 2396, "pitch": 46, "duration": 8, "velocity": 79}, {"time": 2402, "pitch": 55, "duration": 6, "velocity": 86}, {"time": 2402, "pitch": 58, "duration": 10, "velocity": 94}, {"time": 2402, "pitch": 63, "duration": 10, "velocity": 92}, {"time": 2408, "pitch": 39, "duration": 1, "velocity": 73}, {"time": 2411, "pitch": 55, "duration": 4, "velocity": 84}, {"time": 2414, "pitch": 43, "duration": 15, "velocity": 86}, {"time": 2417, "pitch": 50, "duration": 10, "velocity": 83}, {"time": 2420, "pitch": 55, "duration": 4, "velocity": 97}, {"time": 2423, "pitch": 59, "duration": 2, "velocity": 85}, {"time": 2426, "pitch": 55, "duration": 7, "velocity": 86}, {"time": 2426, "pitch": 59, "duration": 7, "velocity": 84}, {"time": 2426, "pitch": 62, "duration": 7, "velocity": 92}, {"time": 2432, "pitch": 50, "duration": 2, "velocity": 89}, {"time": 2438, "pitch": 48, "duration": 21, "velocity": 92}, {"time": 2438, "pitch": 60, "duration": 8, "velocity": 76}, {"time": 2438, "pitch": 63, "duration": 8, "velocity": 77}, {"time": 2444, "pitch": 55, "duration": 8, "velocity": 77}, {"time": 2450, "pitch": 60, "duration": 6, "velocity": 87}, {"time": 2450, "pitch": 63, "duration": 6, "velocity": 90}, {"time": 2450, "pitch": 67, "duration": 5, "velocity": 84}, {"time": 2456, "pitch": 55, "duration": 4, "velocity": 69}, {"time": 2459, "pitch": 60, "duration": 2, "velocity": 85}, {"time": 2462, "pitch": 48, "duration": 8, "velocity": 87}, {"time": 2462, "pitch": 60, "duration": 6, "velocity": 83}, {"time": 2462, "pitch": 63, "duration": 7, "velocity": 87}, {"time": 2462, "pitch": 67, "duration": 8, "velocity": 85}, {"time": 2468, "pitch": 55, "duration": 2, "velocity": 76}, {"time": 2471, "pitch": 60, "duration": 4, "velocity": 85}, {"time": 2474, "pitch": 36, "duration": 2, "velocity": 83}, {"time": 2474, "pitch": 63, "duration": 6, "velocity": 84}, {"time": 2474, "pitch": 67, "duration": 6, "velocity": 85}, {"time": 2474, "pitch": 72, "duration": 5, "velocity": 87}, {"time": 2480, "pitch": 60, "duration": 2, "velocity": 85}, {"time": 2486, "pitch": 41, "duration": 21, "velocity": 85}, {"time": 2486, "pitch": 53, "duration": 7, "velocity": 79}, {"time": 2486, "pitch": 56, "duration": 7, "velocity": 76}, {"time": 2486, "pitch": 60, "duration": 7, "velocity": 83}, {"time": 2492, "pitch": 48, "duration": 9, "velocity": 74}, {"time": 2498, "pitch": 56, "duration": 6, "velocity": 89}, {"time": 2498, "pitch": 60, "duration": 7, "velocity": 90}, {"time": 2504, "pitch": 48, "duration": 4, "velocity": 73}, {"time": 2507, "pitch": 53, "duration": 9, "velocity": 83}, {"time": 2510, "pitch": 41, "duration": 15, "velocity": 85}, {"time": 2510, "pitch": 56, "duration": 7, "velocity": 81}, {"time": 2510, "pitch": 60, "duration": 7, "velocity": 86}, {"time": 2510, "pitch": 65, "duration": 7, "velocity": 84}, {"time": 2516, "pitch": 48, "duration": 8, "velocity": 73}, {"time": 2519, "pitch": 53, "duration": 2, "velocity": 77}, {"time": 2522, "pitch": 53, "duration": 2, "velocity": 77}, {"time": 2522, "pitch": 56, "duration": 3, "velocity": 88}, {"time": 2522, "pitch": 60, "duration": 3, "velocity": 90}, {"time": 2522, "pitch": 65, "duration": 3, "velocity": 85}, {"time": 2528, "pitch": 55, "duration": 3, "velocity": 79}, {"time": 2528, "pitch": 67, "duration": 2, "velocity": 77}, {"time": 2534, "pitch": 44, "duration": 13, "velocity": 84}, {"time": 2534, "pitch": 56, "duration": 8, "velocity": 84}, {"time": 2534, "pitch": 68, "duration": 6, "velocity": 72}, {"time": 2540, "pitch": 51, "duration": 7, "velocity": 69}, {"time": 2546, "pitch": 56, "duration": 3, "velocity": 84}, {"time": 2546, "pitch": 60, "duration": 2, "velocity": 83}, {"time": 2546, "pitch": 63, "duration": 2, "velocity": 76}, {"time": 2546, "pitch": 68, "duration": 3, "velocity": 79}, {"time": 2558, "pitch": 43, "duration": 15, "velocity": 83}, {"time": 2558, "pitch": 55, "duration": 8, "velocity": 75}, {"time": 2558, "pitch": 59, "duration": 8, "velocity": 76}, {"time": 2558, "pitch": 62, "duration": 8, "velocity": 77}, {"time": 2564, "pitch": 50, "duration": 7, "velocity": 68}, {"time": 2570, "pitch": 55, "duration": 4, "velocity": 84}, {"time": 2570, "pitch": 59, "duration": 5, "velocity": 83}, {"time": 2570, "pitch": 62, "duration": 5, "velocity": 84}, {"time": 2576, "pitch": 55, "duration": 1, "velocity": 56}, {"time": 2582, "pitch": 36, "duration": 1, "velocity": 83}, {"time": 2582, "pitch": 55, "duration": 4, "velocity": 83}, {"time": 2582, "pitch": 60, "duration": 6, "velocity": 79}, {"time": 2588, "pitch": 48, "duration": 42, "velocity": 79}, {"time": 2594, "pitch": 55, "duration": 15, "velocity": 84}, {"time": 2597, "pitch": 60, "duration": 3, "velocity": 74}, {"time": 2600, "pitch": 62, "duration": 5, "velocity": 77}, {"time": 2603, "pitch": 63, "duration": 2, "velocity": 88}, {"time": 2606, "pitch": 60, "duration": 4, "velocity": 83}, {"time": 2606, "pitch": 63, "duration": 4, "velocity": 87}, {"time": 2606, "pitch": 67, "duration": 5, "velocity": 87}, {"time": 2612, "pitch": 55, "duration": 18, "velocity": 83}, {"time": 2618, "pitch": 63, "duration": 12, "velocity": 83}, {"time": 2618, "pitch": 67, "duration": 12, "velocity": 84}, {"time": 2618, "pitch": 72, "duration": 13, "velocity": 83}, {"time": 2624, "pitch": 60, "duration": 6, "velocity": 62}, {"time": 2630, "pitch": 44, "duration": 18, "velocity": 90}, {"time": 2630, "pitch": 56, "duration": 8, "velocity": 83}, {"time": 2630, "pitch": 63, "duration": 6, "velocity": 80}, {"time": 2636, "pitch": 51, "duration": 9, "velocity": 74}, {"time": 2642, "pitch": 60, "duration": 4, "velocity": 83}, {"time": 2642, "pitch": 63, "duration": 6, "velocity": 77}, {"time": 2648, "pitch": 56, "duration": 5, "velocity": 86}, {"time": 2654, "pitch": 56, "duration": 4, "velocity": 75}, {"time": 2654, "pitch": 60, "duration": 5, "velocity": 77}, {"time": 2654, "pitch": 63, "duration": 6, "velocity": 77}, {"time": 2660, "pitch": 51, "duration": 10, "velocity": 66}, {"time": 2666, "pitch": 56, "duration": 2, "velocity": 82}, {"time": 2666, "pitch": 60, "duration": 5, "velocity": 85}, {"time": 2666, "pitch": 63, "duration": 4, "velocity": 83}, {"time": 2666, "pitch": 68, "duration": 6, "velocity": 82}, {"time": 2672, "pitch": 56, "duration": 2, "velocity": 92}, {"time": 2678, "pitch": 43, "duration": 16, "velocity": 84}, {"time": 2678, "pitch": 55, "duration": 7, "velocity": 84}, {"time": 2678, "pitch": 58, "duration": 7, "velocity": 83}, {"time": 2684, "pitch": 50, "duration": 9, "velocity": 83}, {"time": 2690, "pitch": 58, "duration": 4, "velocity": 85}, {"time": 2690, "pitch": 62, "duration": 5, "velocity": 85}, {"time": 2696, "pitch": 55, "duration": 7, "velocity": 85}, {"time": 2702, "pitch": 36, "duration": 1, "velocity": 83}, {"time": 2702, "pitch": 60, "duration": 4, "velocity": 83}, {"time": 2702, "pitch": 63, "duration": 5, "velocity": 83}, {"time": 2708, "pitch": 48, "duration": 8, "velocity": 80}, {"time": 2714, "pitch": 60, "duration": 3, "velocity": 84}, {"time": 2714, "pitch": 63, "duration": 10, "velocity": 87}, {"time": 2714, "pitch": 67, "duration": 12, "velocity": 84}, {"time": 2720, "pitch": 60, "duration": 6, "velocity": 87}, {"time": 2726, "pitch": 44, "duration": 14, "velocity": 87}, {"time": 2726, "pitch": 56, "duration": 6, "velocity": 75}, {"time": 2726, "pitch": 60, "duration": 1, "velocity": 79}, {"time": 2726, "pitch": 63, "duration": 6, "velocity": 75}, {"time": 2732, "pitch": 51, "duration": 8, "velocity": 67}, {"time": 2738, "pitch": 56, "duration": 3, "velocity": 83}, {"time": 2738, "pitch": 60, "duration": 6, "velocity": 83}, {"time": 2738, "pitch": 63, "duration": 6, "velocity": 81}, {"time": 2738, "pitch": 68, "duration": 6, "velocity": 80}, {"time": 2744, "pitch": 56, "duration": 2, "velocity": 94}, {"time": 2750, "pitch": 41, "duration": 2, "velocity": 84}, {"time": 2750, "pitch": 53, "duration": 4, "velocity": 75}, {"time": 2750, "pitch": 56, "duration": 1, "velocity": 69}, {"time": 2750, "pitch": 60, "duration": 6, "velocity": 78}, {"time": 2756, "pitch": 53, "duration": 9, "velocity": 84}, {"time": 2774, "pitch": 43, "duration": 2, "velocity": 83}, {"time": 2774, "pitch": 67, "duration": 10, "velocity": 83}, {"time": 2774, "pitch": 72, "duration": 10, "velocity": 83}, {"time": 2780, "pitch": 55, "duration": 17, "velocity": 80}, {"time": 2786, "pitch": 67, "duration": 10, "velocity": 86}, {"time": 2786, "pitch": 72, "duration": 10, "velocity": 92}, {"time": 2792, "pitch": 62, "duration": 5, "velocity": 75}, {"time": 2798, "pitch": 55, "duration": 16, "velocity": 87}, {"time": 2798, "pitch": 62, "duration": 14, "velocity": 85}, {"time": 2798, "pitch": 67, "duration": 5, "velocity": 84}, {"time": 2798, "pitch": 72, "duration": 7, "velocity": 84}, {"time": 2804, "pitch": 67, "duration": 3, "velocity": 73}, {"time": 2810, "pitch": 67, "duration": 3, "velocity": 92}, {"time": 2810, "pitch": 72, "duration": 7, "velocity": 97}, {"time": 2816, "pitch": 67, "duration": 4, "velocity": 83}, {"time": 2819, "pitch": 72, "duration": 2, "velocity": 79}, {"time": 2822, "pitch": 43, "duration": 23, "velocity": 83}, {"time": 2822, "pitch": 67, "duration": 4, "velocity": 85}, {"time": 2822, "pitch": 71, "duration": 4, "velocity": 89}, {"time": 2828, "pitch": 50, "duration": 8, "velocity": 83}, {"time": 2834, "pitch": 55, "duration": 2, "velocity": 84}, {"time": 2834, "pitch": 59, "duration": 4, "velocity": 84}, {"time": 2837, "pitch": 50, "duration": 8, "velocity": 84}, {"time": 2840, "pitch": 62, "duration": 4, "velocity": 83}, {"time": 2843, "pitch": 55, "duration": 3, "velocity": 74}, {"time": 2846, "pitch": 43, "duration": 6, "velocity": 86}, {"time": 2846, "pitch": 55, "duration": 21, "velocity": 84}, {"time": 2846, "pitch": 59, "duration": 21, "velocity": 87}, {"time": 2846, "pitch": 62, "duration": 21, "velocity": 88}, {"time": 2846, "pitch": 67, "duration": 22, "velocity": 84}, {"time": 2852, "pitch": 43, "duration": 6, "velocity": 78}, {"time": 2858, "pitch": 45, "duration": 5, "velocity": 83}, {"time": 2864, "pitch": 47, "duration": 5, "velocity": 83}, {"time": 2870, "pitch": 48, "duration": 38, "velocity": 88}, {"time": 2870, "pitch": 60, "duration": 10, "velocity": 83}, {"time": 2870, "pitch": 63, "duration": 8, "velocity": 84}, {"time": 2870, "pitch": 67, "duration": 8, "velocity": 84}, {"time": 2876, "pitch": 55, "duration": 9, "velocity": 78}, {"time": 2882, "pitch": 60, "duration": 6, "velocity": 84}, {"time": 2882, "pitch": 63, "duration": 8, "velocity": 87}, {"time": 2882, "pitch": 67, "duration": 10, "velocity": 85}, {"time": 2888, "pitch": 55, "duration": 9, "velocity": 71}, {"time": 2891, "pitch": 60, "duration": 2, "velocity": 83}, {"time": 2894, "pitch": 60, "duration": 9, "velocity": 82}, {"time": 2894, "pitch": 63, "duration": 8, "velocity": 83}, {"time": 2894, "pitch": 67, "duration": 7, "velocity": 84}, {"time": 2894, "pitch": 72, "duration": 6, "velocity": 85}, {"time": 2900, "pitch": 55, "duration": 7, "velocity": 77}, {"time": 2906, "pitch": 60, "duration": 2, "velocity": 85}, {"time": 2906, "pitch": 63, "duration": 4, "velocity": 87}, {"time": 2906, "pitch": 67, "duration": 5, "velocity": 84}, {"time": 2912, "pitch": 60, "duration": 12, "velocity": 87}, {"time": 2918, "pitch": 41, "duration": 2, "velocity": 84}, {"time": 2918, "pitch": 65, "duration": 7, "velocity": 82}, {"time": 2918, "pitch": 68, "duration": 8, "velocity": 84}, {"time": 2924, "pitch": 53, "duration": 17, "velocity": 72}, {"time": 2924, "pitch": 55, "duration": 2, "velocity": 47}, {"time": 2930, "pitch": 65, "duration": 6, "velocity": 81}, {"time": 2930, "pitch": 68, "duration": 6, "velocity": 81}, {"time": 2930, "pitch": 72, "duration": 6, "velocity": 84}, {"time": 2936, "pitch": 60, "duration": 5, "velocity": 71}, {"time": 2939, "pitch": 65, "duration": 2, "velocity": 75}, {"time": 2942, "pitch": 53, "duration": 14, "velocity": 84}, {"time": 2942, "pitch": 65, "duration": 7, "velocity": 83}, {"time": 2942, "pitch": 68, "duration": 7, "velocity": 83}, {"time": 2948, "pitch": 60, "duration": 7, "velocity": 72}, {"time": 2954, "pitch": 65, "duration": 4, "velocity": 85}, {"time": 2954, "pitch": 68, "duration": 6, "velocity": 88}, {"time": 2960, "pitch": 67, "duration": 6, "velocity": 89}, {"time": 2966, "pitch": 46, "duration": 22, "velocity": 90}, {"time": 2966, "pitch": 65, "duration": 2, "velocity": 85}, {"time": 2972, "pitch": 53, "duration": 8, "velocity": 70}, {"time": 2978, "pitch": 58, "duration": 7, "velocity": 85}, {"time": 2978, "pitch": 62, "duration": 10, "velocity": 86}, {"time": 2984, "pitch": 53, "duration": 5, "velocity": 66}, {"time": 2987, "pitch": 58, "duration": 2, "velocity": 77}, {"time": 2990, "pitch": 46, "duration": 16, "velocity": 88}, {"time": 2990, "pitch": 58, "duration": 7, "velocity": 80}, {"time": 2990, "pitch": 62, "duration": 7, "velocity": 84}, {"time": 2990, "pitch": 65, "duration": 7, "velocity": 83}, {"time": 2996, "pitch": 53, "duration": 8, "velocity": 72}, {"time": 2999, "pitch": 58, "duration": 2, "velocity": 76}, {"time": 3002, "pitch": 58, "duration": 10, "velocity": 85}, {"time": 3002, "pitch": 62, "duration": 9, "velocity": 85}, {"time": 3008, "pitch": 46, "duration": 2, "velocity": 89}, {"time": 3014, "pitch": 39, "duration": 14, "velocity": 97}, {"time": 3014, "pitch": 55, "duration": 5, "velocity": 79}, {"time": 3014, "pitch": 58, "duration": 7, "velocity": 78}, {"time": 3020, "pitch": 46, "duration": 8, "velocity": 79}, {"time": 3026, "pitch": 55, "duration": 6, "velocity": 86}, {"time": 3026, "pitch": 58, "duration": 10, "velocity": 94}, {"time": 3026, "pitch": 63, "duration": 10, "velocity": 92}, {"time": 3032, "pitch": 39, "duration": 1, "velocity": 73}, {"time": 3035, "pitch": 55, "duration": 4, "velocity": 84}, {"time": 3038, "pitch": 43, "duration": 15, "velocity": 86}, {"time": 3041, "pitch": 50, "duration": 10, "velocity": 83}, {"time": 3044, "pitch": 55, "duration": 4, "velocity": 97}, {"time": 3047, "pitch": 59, "duration": 2, "velocity": 85}, {"time": 3050, "pitch": 55, "duration": 7, "velocity": 86}, {"time": 3050, "pitch": 59, "duration": 7, "velocity": 84}, {"time": 3050, "pitch": 62, "duration": 7, "velocity": 92}, {"time": 3056, "pitch": 50, "duration": 2, "velocity": 89}, {"time": 3062, "pitch": 48, "duration": 21, "velocity": 92}, {"time": 3062, "pitch": 60, "duration": 8, "velocity": 76}, {"time": 3062, "pitch": 63, "duration": 8, "velocity": 77}, {"time": 3068, "pitch": 55, "duration": 8, "velocity": 77}, {"time": 3074, "pitch": 60, "duration": 6, "velocity": 87}, {"time": 3074, "pitch": 63, "duration": 6, "velocity": 90}, {"time": 3074, "pitch": 67, "duration": 5, "velocity": 84}, {"time": 3080, "pitch": 55, "duration": 4, "velocity": 69}, {"time": 3083, "pitch": 60, "duration": 2, "velocity": 85}, {"time": 3086, "pitch": 48, "duration": 8, "velocity": 87}, {"time": 3086, "pitch": 60, "duration": 6, "velocity": 83}, {"time": 3086, "pitch": 63, "duration": 7, "velocity": 87}, {"time": 3086, "pitch": 67, "duration": 8, "velocity": 85}, {"time": 3092, "pitch": 55, "duration": 2, "velocity": 76}, {"time": 3095, "pitch": 60, "duration": 4, "velocity": 85}, {"time": 3098, "pitch": 36, "duration": 2, "velocity": 83}, {"time": 3098, "pitch": 63, "duration": 6, "velocity": 84}, {"time": 3098, "pitch": 67, "duration": 6, "velocity": 85}, {"time": 3098, "pitch": 72, "duration": 5, "velocity": 87}, {"time": 3104, "pitch": 60, "duration": 2, "velocity": 85}, {"time": 3110, "pitch": 41, "duration": 21, "velocity": 85}, {"time": 3110, "pitch": 53, "duration": 7, "velocity": 79}, {"time": 3110, "pitch": 56, "duration": 7, "velocity": 76}, {"time": 3110, "pitch": 60, "duration": 7, "velocity": 83}, {"time": 3116, "pitch": 48, "duration": 9, "velocity": 74}, {"time": 3122, "pitch": 56, "duration": 6, "velocity": 89}, {"time": 3122, "pitch": 60, "duration": 7, "velocity": 90}, {"time": 3128, "pitch": 48, "duration": 4, "velocity": 73}, {"time": 3131, "pitch": 53, "duration": 9, "velocity": 83}, {"time": 3134, "pitch": 41, "duration": 15, "velocity": 85}, {"time": 3134, "pitch": 56, "duration": 7, "velocity": 81}, {"time": 3134, "pitch": 60, "duration": 7, "velocity": 86}, {"time": 3134, "pitch": 65, "duration": 7, "velocity": 84}, {"time": 3140, "pitch": 48, "duration": 8, "velocity": 73}, {"time": 3143, "pitch": 53, "duration": 2, "velocity": 77}, {"time": 3146, "pitch": 53, "duration": 2, "velocity": 77}, {"time": 3146, "pitch": 56, "duration": 3, "velocity": 88}, {"time": 3146, "pitch": 60, "duration": 3, "velocity": 90}, {"time": 3146, "pitch": 65, "duration": 3, "velocity": 85}, {"time": 3152, "pitch": 55, "duration": 3, "velocity": 79}, {"time": 3152, "pitch": 67, "duration": 2, "velocity": 77}, {"time": 3158, "pitch": 44, "duration": 13, "velocity": 84}, {"time": 3158, "pitch": 56, "duration": 8, "velocity": 84}, {"time": 3158, "pitch": 68, "duration": 6, "velocity": 72}, {"time": 3164, "pitch": 51, "duration": 7, "velocity": 69}, {"time": 3170, "pitch": 56, "duration": 3, "velocity": 84}, {"time": 3170, "pitch": 60, "duration": 2, "velocity": 83}, {"time": 3170, "pitch": 63, "duration": 2, "velocity": 76}, {"time": 3170, "pitch": 68, "duration": 3, "velocity": 79}, {"time": 3182, "pitch": 43, "duration": 15, "velocity": 83}, {"time": 3182, "pitch": 55, "duration": 8, "velocity": 75}, {"time": 3182, "pitch": 59, "duration": 8, "velocity": 76}, {"time": 3182, "pitch": 62, "duration": 8, "velocity": 77}, {"time": 3188, "pitch": 50, "duration": 7, "velocity": 68}, {"time": 3194, "pitch": 55, "duration": 4, "velocity": 84}, {"time": 3194, "pitch": 59, "duration": 5, "velocity": 83}, {"time": 3194, "pitch": 62, "duration": 5, "velocity": 84}, {"time": 3200, "pitch": 55, "duration": 1, "velocity": 56}, {"time": 3206, "pitch": 36, "duration": 1, "velocity": 83}, {"time": 3206, "pitch": 55, "duration": 4, "velocity": 83}, {"time": 3206, "pitch": 60, "duration": 6, "velocity": 79}, {"time": 3212, "pitch": 48, "duration": 42, "velocity": 79}, {"time": 3218, "pitch": 55, "duration": 15, "velocity": 84}, {"time": 3221, "pitch": 60, "duration": 3, "velocity": 74}, {"time": 3224, "pitch": 62, "duration": 5, "velocity": 77}, {"time": 3227, "pitch": 63, "duration": 2, "velocity": 88}, {"time": 3230, "pitch": 60, "duration": 4, "velocity": 83}, {"time": 3230, "pitch": 63, "duration": 4, "velocity": 87}, {"time": 3230, "pitch": 67, "duration": 5, "velocity": 87}, {"time": 3236, "pitch": 55, "duration": 18, "velocity": 83}, {"time": 3242, "pitch": 63, "duration": 12, "velocity": 83}, {"time": 3242, "pitch": 67, "duration": 12, "velocity": 84}, {"time": 3242, "pitch": 72, "duration": 13, "velocity": 83}, {"time": 3248, "pitch": 60, "duration": 6, "velocity": 62}, {"time": 3253, "pitch": 48, "duration": 1, "velocity": 84}, {"time": 3259, "pitch": 55, "duration": 31, "velocity": 66}, {"time": 3266, "pitch": 62, "duration": 7, "velocity": 73}, {"time": 3272, "pitch": 63, "duration": 4, "velocity": 85}, {"time": 3278, "pitch": 67, "duration": 25, "velocity": 75}, {"time": 3278, "pitch": 60, "duration": 23, "velocity": 72}, {"time": 3302, "pitch": 41, "duration": 42, "velocity": 81}, {"time": 3308, "pitch": 48, "duration": 35, "velocity": 58}, {"time": 3315, "pitch": 55, "duration": 6, "velocity": 85}, {"time": 3321, "pitch": 56, "duration": 4, "velocity": 94}, {"time": 3327, "pitch": 62, "duration": 13, "velocity": 79}, {"time": 3334, "pitch": 53, "duration": 3, "velocity": 58}, {"time": 3340, "pitch": 53, "duration": 5, "velocity": 76}, {"time": 3340, "pitch": 60, "duration": 6, "velocity": 80}, {"time": 3352, "pitch": 56, "duration": 7, "velocity": 70}, {"time": 3354, "pitch": 44, "duration": 14, "velocity": 86}, {"time": 3354, "pitch": 60, "duration": 8, "velocity": 77}, {"time": 3355, "pitch": 63, "duration": 5, "velocity": 67}, {"time": 3359, "pitch": 51, "duration": 9, "velocity": 70}, {"time": 3366, "pitch": 56, "duration": 7, "velocity": 90}, {"time": 3373, "pitch": 68, "duration": 2, "velocity": 82}, {"time": 3380, "pitch": 55, "duration": 17, "velocity": 75}, {"time": 3380, "pitch": 59, "duration": 12, "velocity": 76}, {"time": 3380, "pitch": 43, "duration": 24, "velocity": 84}, {"time": 3388, "pitch": 50, "duration": 15, "velocity": 75}, {"time": 3396, "pitch": 59, "duration": 22, "velocity": 82}, {"time": 3396, "pitch": 62, "duration": 22, "velocity": 81}, {"time": 3404, "pitch": 55, "duration": 14, "velocity": 76}, {"time": 3417, "pitch": 36, "duration": 58, "velocity": 84}, {"time": 3422, "pitch": 43, "duration": 52, "velocity": 68}, {"time": 3426, "pitch": 50, "duration": 3, "velocity": 72}, {"time": 3429, "pitch": 51, "duration": 2, "velocity": 71}, {"time": 3432, "pitch": 55, "duration": 3, "velocity": 76}, {"time": 3436, "pitch": 60, "duration": 5, "velocity": 72}, {"time": 3440, "pitch": 62, "duration": 5, "velocity": 79}, {"time": 3444, "pitch": 60, "duration": 3, "velocity": 68}, {"time": 3450, "pitch": 67, "duration": 3, "velocity": 70}, {"time": 3466, "pitch": 67, "duration": 4, "velocity": 69}, {"time": 3467, "pitch": 72, "duration": 3, "velocity": 77}], "annotations": [{"time": 38, "annotation": {"number": 64, "value": 127}, "group": "control_change"}, {"time": 85, "annotation": {"number": 64, "value": 0}, "group": "control_change"}, {"time": 89, "annotation": {"number": 64, "value": 127}, "group": "control_change"}, {"time": 90, "annotation": {"number": 64, "value": 0}, "group": "control_change"}, {"time": 90, "annotation": {"number": 64, "value": 127}, "group": "control_change"}, {"time": 133, "annotation": {"number": 64, "value": 0}, "group": "control_change"}, {"time": 136, "annotation": {"number": 64, "value": 127}, "group": "control_change"}, {"time": 181, "annotation": {"number": 64, "value": 0}, "group": "control_change"}, {"time": 185, "annotation": {"number": 64, "value": 127}, "group": "control_change"}, {"time": 206, "annotation": {"number": 64, "value": 0}, "group": "control_change"}, {"time": 211, "annotation": {"number": 64, "value": 127}, "group": "control_change"}, {"time": 228, "annotation": {"number": 64, "value": 0}, "group": "control_change"}, {"time": 232, "annotation": {"number": 64, "value": 127}, "group": "control_change"}, {"time": 276, "annotation": {"number": 64, "value": 0}, "group": "control_change"}, {"time": 284, "annotation": {"number": 64, "value": 127}, "group": "control_change"}, {"time": 325, "annotation": {"number": 64, "value": 0}, "group": "control_change"}, {"time": 333, "annotation": {"number": 64, "value": 127}, "group": "control_change"}, {"time": 349, "annotation": {"number": 64, "value": 0}, "group": "control_change"}, {"time": 357, "annotation": {"number": 64, "value": 127}, "group": "control_change"}, {"time": 371, "annotation": {"number": 64, "value": 0}, "group": "control_change"}, {"time": 374, "annotation": {"number": 64, "value": 127}, "group": "control_change"}, {"time": 419, "annotation": {"number": 64, "value": 0}, "group": "control_change"}, {"time": 428, "annotation": {"number": 64, "value": 127}, "group": "control_change"}, {"time": 429, "annotation": {"number": 64, "value": 0}, "group": "control_change"}, {"time": 429, "annotation": {"number": 64, "value": 127}, "group": "control_change"}, {"time": 469, "annotation": {"number": 64, "value": 0}, "group": "control_change"}, {"time": 473, "annotation": {"number": 64, "value": 127}, "group": "control_change"}, {"time": 515, "annotation": {"number": 64, "value": 0}, "group": "control_change"}, {"time": 522, "annotation": {"number": 64, "value": 127}, "group": "control_change"}, {"time": 564, "annotation": {"number": 64, "value": 0}, "group": "control_change"}, {"time": 568, "annotation": {"number": 64, "value": 127}, "group": "control_change"}, {"time": 589, "annotation": {"number": 64, "value": 0}, "group": "control_change"}, {"time": 595, "annotation": {"number": 64, "value": 127}, "group": "control_change"}, {"time": 611, "annotation": {"number": 64, "value": 0}, "group": "control_change"}, {"time": 619, "annotation": {"number": 64, "value": 127}, "group": "control_change"}, {"time": 662, "annotation": {"number": 64, "value": 0}, "group": "control_change"}, {"time": 667, "annotation": {"number": 64, "value": 127}, "group": "control_change"}, {"time": 706, "annotation": {"number": 64, "value": 0}, "group": "control_change"}, {"time": 716, "annotation": {"number": 64, "value": 127}, "group": "control_change"}, {"time": 734, "annotation": {"number": 64, "value": 0}, "group": "control_change"}, {"time": 740, "annotation": {"number": 64, "value": 127}, "group": "control_change"}, {"time": 758, "annotation": {"number": 64, "value": 0}, "group": "control_change"}, {"time": 763, "annotation": {"number": 64, "value": 127}, "group": "control_change"}, {"time": 803, "annotation": {"number": 64, "value": 0}, "group": "control_change"}, {"time": 852, "annotation": {"number": 64, "value": 0}, "group": "control_change"}, {"time": 855, "annotation": {"number": 64, "value": 127}, "group": "control_change"}, {"time": 899, "annotation": {"number": 64, "value": 0}, "group": "control_change"}, {"time": 902, "annotation": {"number": 64, "value": 127}, "group": "control_change"}, {"time": 949, "annotation": {"number": 64, "value": 0}, "group": "control_change"}, {"time": 952, "annotation": {"number": 64, "value": 127}, "group": "control_change"}, {"time": 972, "annotation": {"number": 64, "value": 0}, "group": "control_change"}, {"time": 976, "annotation": {"number": 64, "value": 127}, "group": "control_change"}, {"time": 995, "annotation": {"number": 64, "value": 0}, "group": "control_change"}, {"time": 998, "annotation": {"number": 64, "value": 127}, "group": "control_change"}, {"time": 1022, "annotation": {"number": 64, "value": 0}, "group": "control_change"}, {"time": 1027, "annotation": {"number": 64, "value": 127}, "group": "control_change"}, {"time": 1044, "annotation": {"number": 64, "value": 0}, "group": "control_change"}, {"time": 1047, "annotation": {"number": 64, "value": 127}, "group": "control_change"}, {"time": 1068, "annotation": {"number": 64, "value": 0}, "group": "control_change"}, {"time": 1070, "annotation": {"number": 64, "value": 127}, "group": "control_change"}, {"time": 1093, "annotation": {"number": 64, "value": 0}, "group": "control_change"}, {"time": 1097, "annotation": {"number": 64, "value": 127}, "group": "control_change"}, {"time": 1118, "annotation": {"number": 64, "value": 0}, "group": "control_change"}, {"time": 1121, "annotation": {"number": 64, "value": 127}, "group": "control_change"}, {"time": 1140, "annotation": {"number": 64, "value": 0}, "group": "control_change"}, {"time": 1142, "annotation": {"number": 64, "value": 127}, "group": "control_change"}, {"time": 1142, "annotation": {"number": 64, "value": 0}, "group": "control_change"}, {"time": 1189, "annotation": {"number": 64, "value": 0}, "group": "control_change"}, {"time": 1191, "annotation": {"number": 64, "value": 127}, "group": "control_change"}, {"time": 1236, "annotation": {"number": 64, "value": 0}, "group": "control_change"}, {"time": 1240, "annotation": {"number": 64, "value": 127}, "group": "control_change"}, {"time": 1259, "annotation": {"number": 64, "value": 0}, "group": "control_change"}, {"time": 1262, "annotation": {"number": 64, "value": 127}, "group": "control_change"}, {"time": 1283, "annotation": {"number": 64, "value": 0}, "group": "control_change"}, {"time": 1286, "annotation": {"number": 64, "value": 127}, "group": "control_change"}, {"time": 1308, "annotation": {"number": 64, "value": 0}, "group": "control_change"}, {"time": 1310, "annotation": {"number": 64, "value": 127}, "group": "control_change"}, {"time": 1334, "annotation": {"number": 64, "value": 127}, "group": "control_change"}, {"time": 1334, "annotation": {"number": 64, "value": 0}, "group": "control_change"}, {"time": 1380, "annotation": {"number": 64, "value": 0}, "group": "control_change"}, {"time": 1383, "annotation": {"number": 64, "value": 127}, "group": "control_change"}, {"time": 1412, "annotation": {"number": 64, "value": 0}, "group": "control_change"}, {"time": 1416, "annotation": {"number": 64, "value": 127}, "group": "control_change"}, {"time": 1416, "annotation": {"number": 64, "value": 0}, "group": "control_change"}, {"time": 1417, "annotation": {"number": 64, "value": 127}, "group": "control_change"}, {"time": 1424, "annotation": {"number": 64, "value": 0}, "group": "control_change"}, {"time": 1431, "annotation": {"number": 64, "value": 127}, "group": "control_change"}, {"time": 1475, "annotation": {"number": 64, "value": 0}, "group": "control_change"}, {"time": 1478, "annotation": {"number": 64, "value": 127}, "group": "control_change"}, {"time": 1523, "annotation": {"number": 64, "value": 0}, "group": "control_change"}, {"time": 1526, "annotation": {"number": 64, "value": 127}, "group": "control_change"}, {"time": 1549, "annotation": {"number": 64, "value": 0}, "group": "control_change"}, {"time": 1551, "annotation": {"number": 64, "value": 127}, "group": "control_change"}, {"time": 1573, "annotation": {"number": 64, "value": 0}, "group": "control_change"}, {"time": 1575, "annotation": {"number": 64, "value": 127}, "group": "control_change"}, {"time": 1595, "annotation": {"number": 64, "value": 0}, "group": "control_change"}, {"time": 1598, "annotation": {"number": 64, "value": 127}, "group": "control_change"}, {"time": 1620, "annotation": {"number": 64, "value": 0}, "group": "control_change"}, {"time": 1623, "annotation": {"number": 64, "value": 127}, "group": "control_change"}, {"time": 1669, "annotation": {"number": 64, "value": 0}, "group": "control_change"}, {"time": 1671, "annotation": {"number": 64, "value": 127}, "group": "control_change"}, {"time": 1693, "annotation": {"number": 64, "value": 0}, "group": "control_change"}, {"time": 1696, "annotation": {"number": 64, "value": 127}, "group": "control_change"}, {"time": 1717, "annotation": {"number": 64, "value": 0}, "group": "control_change"}, {"time": 1719, "annotation": {"number": 64, "value": 127}, "group": "control_change"}, {"time": 1741, "annotation": {"number": 64, "value": 0}, "group": "control_change"}, {"time": 1745, "annotation": {"number": 64, "value": 127}, "group": "control_change"}, {"time": 1763, "annotation": {"number": 64, "value": 0}, "group": "control_change"}, {"time": 1766, "annotation": {"number": 64, "value": 127}, "group": "control_change"}, {"time": 1812, "annotation": {"number": 64, "value": 0}, "group": "control_change"}, {"time": 1814, "annotation": {"number": 64, "value": 127}, "group": "control_change"}, {"time": 1861, "annotation": {"number": 64, "value": 0}, "group": "control_change"}, {"time": 1865, "annotation": {"number": 64, "value": 127}, "group": "control_change"}, {"time": 1866, "annotation": {"number": 64, "value": 0}, "group": "control_change"}, {"time": 1866, "annotation": {"number": 64, "value": 127}, "group": "control_change"}, {"time": 1909, "annotation": {"number": 64, "value": 0}, "group": "control_change"}, {"time": 1912, "annotation": {"number": 64, "value": 127}, "group": "control_change"}, {"time": 1957, "annotation": {"number": 64, "value": 0}, "group": "control_change"}, {"time": 1961, "annotation": {"number": 64, "value": 127}, "group": "control_change"}, {"time": 1982, "annotation": {"number": 64, "value": 0}, "group": "control_change"}, {"time": 1987, "annotation": {"number": 64, "value": 127}, "group": "control_change"}, {"time": 2004, "annotation": {"number": 64, "value": 0}, "group": "control_change"}, {"time": 2007, "annotation": {"number": 64, "value": 127}, "group": "control_change"}, {"time": 2007, "annotation": {"number": 64, "value": 0}, "group": "control_change"}, {"time": 2029, "annotation": {"number": 64, "value": 0}, "group": "control_change"}, {"time": 2032, "annotation": {"number": 64, "value": 127}, "group": "control_change"}, {"time": 2052, "annotation": {"number": 64, "value": 0}, "group": "control_change"}, {"time": 2055, "annotation": {"number": 64, "value": 127}, "group": "control_change"}, {"time": 2075, "annotation": {"number": 64, "value": 0}, "group": "control_change"}, {"time": 2080, "annotation": {"number": 64, "value": 127}, "group": "control_change"}, {"time": 2101, "annotation": {"number": 64, "value": 0}, "group": "control_change"}, {"time": 2128, "annotation": {"number": 64, "value": 127}, "group": "control_change"}, {"time": 2148, "annotation": {"number": 64, "value": 0}, "group": "control_change"}, {"time": 2151, "annotation": {"number": 64, "value": 127}, "group": "control_change"}, {"time": 2195, "annotation": {"number": 64, "value": 0}, "group": "control_change"}, {"time": 2247, "annotation": {"number": 64, "value": 127}, "group": "control_change"}, {"time": 2291, "annotation": {"number": 64, "value": 0}, "group": "control_change"}, {"time": 2294, "annotation": {"number": 64, "value": 127}, "group": "control_change"}, {"time": 2339, "annotation": {"number": 64, "value": 0}, "group": "control_change"}, {"time": 2342, "annotation": {"number": 64, "value": 127}, "group": "control_change"}, {"time": 2365, "annotation": {"number": 64, "value": 0}, "group": "control_change"}, {"time": 2367, "annotation": {"number": 64, "value": 127}, "group": "control_change"}, {"time": 2389, "annotation": {"number": 64, "value": 0}, "group": "control_change"}, {"time": 2391, "annotation": {"number": 64, "value": 127}, "group": "control_change"}, {"time": 2411, "annotation": {"number": 64, "value": 0}, "group": "control_change"}, {"time": 2414, "annotation": {"number": 64, "value": 127}, "group": "control_change"}, {"time": 2436, "annotation": {"number": 64, "value": 0}, "group": "control_change"}, {"time": 2439, "annotation": {"number": 64, "value": 127}, "group": "control_change"}, {"time": 2485, "annotation": {"number": 64, "value": 0}, "group": "control_change"}, {"time": 2487, "annotation": {"number": 64, "value": 127}, "group": "control_change"}, {"time": 2509, "annotation": {"number": 64, "value": 0}, "group": "control_change"}, {"time": 2512, "annotation": {"number": 64, "value": 127}, "group": "control_change"}, {"time": 2533, "annotation": {"number": 64, "value": 0}, "group": "control_change"}, {"time": 2535, "annotation": {"number": 64, "value": 127}, "group": "control_change"}, {"time": 2557, "annotation": {"number": 64, "value": 0}, "group": "control_change"}, {"time": 2561, "annotation": {"number": 64, "value": 127}, "group": "control_change"}, {"time": 2579, "annotation": {"number": 64, "value": 0}, "group": "control_change"}, {"time": 2582, "annotation": {"number": 64, "value": 127}, "group": "control_change"}, {"time": 2628, "annotation": {"number": 64, "value": 0}, "group": "control_change"}, {"time": 2631, "annotation": {"number": 64, "value": 127}, "group": "control_change"}, {"time": 2676, "annotation": {"number": 64, "value": 0}, "group": "control_change"}, {"time": 2680, "annotation": {"number": 64, "value": 127}, "group": "control_change"}, {"time": 2699, "annotation": {"number": 64, "value": 0}, "group": "control_change"}, {"time": 2702, "annotation": {"number": 64, "value": 127}, "group": "control_change"}, {"time": 2723, "annotation": {"number": 64, "value": 0}, "group": "control_change"}, {"time": 2726, "annotation": {"number": 64, "value": 127}, "group": "control_change"}, {"time": 2748, "annotation": {"number": 64, "value": 0}, "group": "control_change"}, {"time": 2750, "annotation": {"number": 64, "value": 127}, "group": "control_change"}, {"time": 2774, "annotation": {"number": 64, "value": 127}, "group": "control_change"}, {"time": 2774, "annotation": {"number": 64, "value": 0}, "group": "control_change"}, {"time": 2820, "annotation": {"number": 64, "value": 0}, "group": "control_change"}, {"time": 2823, "annotation": {"number": 64, "value": 127}, "group": "control_change"}, {"time": 2852, "annotation": {"number": 64, "value": 0}, "group": "control_change"}, {"time": 2856, "annotation": {"number": 64, "value": 127}, "group": "control_change"}, {"time": 2856, "annotation": {"number": 64, "value": 0}, "group": "control_change"}, {"time": 2857, "annotation": {"number": 64, "value": 127}, "group": "control_change"}, {"time": 2864, "annotation": {"number": 64, "value": 0}, "group": "control_change"}, {"time": 2871, "annotation": {"number": 64, "value": 127}, "group": "control_change"}, {"time": 2915, "annotation": {"number": 64, "value": 0}, "group": "control_change"}, {"time": 2918, "annotation": {"number": 64, "value": 127}, "group": "control_change"}, {"time": 2963, "annotation": {"number": 64, "value": 0}, "group": "control_change"}, {"time": 2966, "annotation": {"number": 64, "value": 127}, "group": "control_change"}, {"time": 2989, "annotation": {"number": 64, "value": 0}, "group": "control_change"}, {"time": 2991, "annotation": {"number": 64, "value": 127}, "group": "control_change"}, {"time": 3013, "annotation": {"number": 64, "value": 0}, "group": "control_change"}, {"time": 3015, "annotation": {"number": 64, "value": 127}, "group": "control_change"}, {"time": 3035, "annotation": {"number": 64, "value": 0}, "group": "control_change"}, {"time": 3038, "annotation": {"number": 64, "value": 127}, "group": "control_change"}, {"time": 3060, "annotation": {"number": 64, "value": 0}, "group": "control_change"}, {"time": 3063, "annotation": {"number": 64, "value": 127}, "group": "control_change"}, {"time": 3109, "annotation": {"number": 64, "value": 0}, "group": "control_change"}, {"time": 3111, "annotation": {"number": 64, "value": 127}, "group": "control_change"}, {"time": 3133, "annotation": {"number": 64, "value": 0}, "group": "control_change"}, {"time": 3136, "annotation": {"number": 64, "value": 127}, "group": "control_change"}, {"time": 3157, "annotation": {"number": 64, "value": 0}, "group": "control_change"}, {"time": 3159, "annotation": {"number": 64, "value": 127}, "group": "control_change"}, {"time": 3181, "annotation": {"number": 64, "value": 0}, "group": "control_change"}, {"time": 3185, "annotation": {"number": 64, "value": 127}, "group": "control_change"}, {"time": 3203, "annotation": {"number": 64, "value": 0}, "group": "control_change"}, {"time": 3206, "annotation": {"number": 64, "value": 127}, "group": "control_change"}, {"time": 3252, "annotation": {"number": 64, "value": 0}, "group": "control_change"}, {"time": 3255, "annotation": {"number": 64, "value": 127}, "group": "control_change"}, {"time": 3255, "annotation": {"number": 64, "value": 0}, "group": "control_change"}, {"time": 3301, "annotation": {"number": 64, "value": 0}, "group": "control_change"}, {"time": 3305, "annotation": {"number": 64, "value": 127}, "group": "control_change"}, {"time": 3351, "annotation": {"number": 64, "value": 0}, "group": "control_change"}, {"time": 3354, "annotation": {"number": 64, "value": 127}, "group": "control_change"}, {"time": 3379, "annotation": {"number": 64, "value": 0}, "group": "control_change"}, {"time": 3382, "annotation": {"number": 64, "value": 127}, "group": "control_change"}, {"time": 3415, "annotation": {"number": 64, "value": 0}, "group": "control_change"}, {"time": 3418, "annotation": {"number": 64, "value": 127}, "group": "control_change"}]}]}