{"metadata": {"schema_version": "0.2", "title": "None", "source_filename": "529.mid", "source_format": "midi"}, "resolution": 12, "tempos": [{"time": 0, "qpm": 98.00030380094178}, {"time": 4512, "qpm": 97.00010993345792}, {"time": 4524, "qpm": 93.30026357324459}, {"time": 4548, "qpm": 96.70010878762238}], "time_signatures": [{"time": 0, "numerator": 1, "denominator": 4}], "tracks": [{"program": 0, "is_drum": false, "name": "MELODY", "notes": [{"time": 477, "pitch": 61, "duration": 5, "velocity": 89}, {"time": 483, "pitch": 68, "duration": 9, "velocity": 80}, {"time": 495, "pitch": 68, "duration": 5, "velocity": 95}, {"time": 501, "pitch": 66, "duration": 4, "velocity": 87}, {"time": 507, "pitch": 66, "duration": 5, "velocity": 88}, {"time": 513, "pitch": 68, "duration": 9, "velocity": 92}, {"time": 525, "pitch": 70, "duration": 23, "velocity": 88}, {"time": 567, "pitch": 70, "duration": 4, "velocity": 92}, {"time": 573, "pitch": 73, "duration": 5, "velocity": 90}, {"time": 579, "pitch": 75, "duration": 4, "velocity": 90}, {"time": 585, "pitch": 75, "duration": 4, "velocity": 87}, {"time": 591, "pitch": 75, "duration": 5, "velocity": 91}, {"time": 597, "pitch": 77, "duration": 4, "velocity": 88}, {"time": 603, "pitch": 75, "duration": 11, "velocity": 97}, {"time": 615, "pitch": 73, "duration": 12, "velocity": 93}, {"time": 627, "pitch": 70, "duration": 14, "velocity": 90}, {"time": 663, "pitch": 70, "duration": 5, "velocity": 88}, {"time": 669, "pitch": 70, "duration": 5, "velocity": 88}, {"time": 675, "pitch": 68, "duration": 16, "velocity": 87}, {"time": 693, "pitch": 66, "duration": 16, "velocity": 89}, {"time": 711, "pitch": 70, "duration": 3, "velocity": 95}, {"time": 717, "pitch": 70, "duration": 5, "velocity": 88}, {"time": 723, "pitch": 68, "duration": 16, "velocity": 90}, {"time": 741, "pitch": 66, "duration": 20, "velocity": 92}, {"time": 771, "pitch": 68, "duration": 4, "velocity": 82}, {"time": 777, "pitch": 68, "duration": 4, "velocity": 82}, {"time": 783, "pitch": 68, "duration": 4, "velocity": 85}, {"time": 789, "pitch": 68, "duration": 5, "velocity": 87}, {"time": 795, "pitch": 70, "duration": 5, "velocity": 88}, {"time": 801, "pitch": 68, "duration": 4, "velocity": 93}, {"time": 807, "pitch": 63, "duration": 5, "velocity": 97}, {"time": 813, "pitch": 68, "duration": 33, "velocity": 88}, {"time": 855, "pitch": 61, "duration": 5, "velocity": 89}, {"time": 861, "pitch": 61, "duration": 5, "velocity": 89}, {"time": 867, "pitch": 68, "duration": 9, "velocity": 80}, {"time": 879, "pitch": 68, "duration": 5, "velocity": 95}, {"time": 885, "pitch": 66, "duration": 4, "velocity": 87}, {"time": 891, "pitch": 68, "duration": 5, "velocity": 88}, {"time": 897, "pitch": 73, "duration": 9, "velocity": 92}, {"time": 909, "pitch": 70, "duration": 23, "velocity": 88}, {"time": 951, "pitch": 70, "duration": 4, "velocity": 92}, {"time": 957, "pitch": 73, "duration": 5, "velocity": 90}, {"time": 963, "pitch": 75, "duration": 4, "velocity": 90}, {"time": 969, "pitch": 75, "duration": 4, "velocity": 87}, {"time": 975, "pitch": 75, "duration": 5, "velocity": 91}, {"time": 981, "pitch": 77, "duration": 4, "velocity": 88}, {"time": 987, "pitch": 75, "duration": 11, "velocity": 97}, {"time": 999, "pitch": 73, "duration": 12, "velocity": 93}, {"time": 1011, "pitch": 70, "duration": 24, "velocity": 90}, {"time": 1047, "pitch": 70, "duration": 5, "velocity": 88}, {"time": 1053, "pitch": 70, "duration": 5, "velocity": 88}, {"time": 1059, "pitch": 68, "duration": 16, "velocity": 87}, {"time": 1077, "pitch": 66, "duration": 16, "velocity": 89}, {"time": 1095, "pitch": 70, "duration": 3, "velocity": 95}, {"time": 1101, "pitch": 70, "duration": 5, "velocity": 88}, {"time": 1107, "pitch": 68, "duration": 16, "velocity": 90}, {"time": 1125, "pitch": 66, "duration": 20, "velocity": 92}, {"time": 1155, "pitch": 61, "duration": 4, "velocity": 88}, {"time": 1161, "pitch": 61, "duration": 4, "velocity": 88}, {"time": 1167, "pitch": 61, "duration": 4, "velocity": 88}, {"time": 1173, "pitch": 61, "duration": 4, "velocity": 88}, {"time": 1179, "pitch": 65, "duration": 4, "velocity": 87}, {"time": 1185, "pitch": 65, "duration": 10, "velocity": 87}, {"time": 1197, "pitch": 66, "duration": 40, "velocity": 87}, {"time": 1275, "pitch": 66, "duration": 4, "velocity": 91}, {"time": 1281, "pitch": 68, "duration": 5, "velocity": 92}, {"time": 1287, "pitch": 66, "duration": 4, "velocity": 88}, {"time": 1293, "pitch": 69, "duration": 10, "velocity": 88}, {"time": 1305, "pitch": 69, "duration": 9, "velocity": 88}, {"time": 1317, "pitch": 69, "duration": 10, "velocity": 87}, {"time": 1329, "pitch": 69, "duration": 11, "velocity": 90}, {"time": 1341, "pitch": 68, "duration": 23, "velocity": 88}, {"time": 1371, "pitch": 66, "duration": 4, "velocity": 87}, {"time": 1377, "pitch": 64, "duration": 5, "velocity": 88}, {"time": 1383, "pitch": 61, "duration": 5, "velocity": 87}, {"time": 1389, "pitch": 66, "duration": 43, "velocity": 86}, {"time": 1467, "pitch": 66, "duration": 4, "velocity": 87}, {"time": 1473, "pitch": 68, "duration": 5, "velocity": 91}, {"time": 1479, "pitch": 66, "duration": 4, "velocity": 90}, {"time": 1485, "pitch": 69, "duration": 9, "velocity": 88}, {"time": 1497, "pitch": 69, "duration": 9, "velocity": 88}, {"time": 1509, "pitch": 69, "duration": 8, "velocity": 90}, {"time": 1521, "pitch": 69, "duration": 8, "velocity": 95}, {"time": 1533, "pitch": 68, "duration": 23, "velocity": 95}, {"time": 1563, "pitch": 61, "duration": 4, "velocity": 92}, {"time": 1569, "pitch": 61, "duration": 4, "velocity": 88}, {"time": 1575, "pitch": 61, "duration": 4, "velocity": 87}, {"time": 1581, "pitch": 73, "duration": 10, "velocity": 92}, {"time": 1593, "pitch": 71, "duration": 7, "velocity": 88}, {"time": 1605, "pitch": 69, "duration": 10, "velocity": 88}, {"time": 1617, "pitch": 68, "duration": 5, "velocity": 92}, {"time": 1623, "pitch": 66, "duration": 4, "velocity": 86}, {"time": 1629, "pitch": 68, "duration": 56, "velocity": 92}, {"time": 1707, "pitch": 66, "duration": 9, "velocity": 92}, {"time": 1719, "pitch": 66, "duration": 8, "velocity": 93}, {"time": 1731, "pitch": 73, "duration": 21, "velocity": 97}, {"time": 1755, "pitch": 73, "duration": 5, "velocity": 102}, {"time": 1761, "pitch": 75, "duration": 10, "velocity": 87}, {"time": 1773, "pitch": 75, "duration": 5, "velocity": 91}, {"time": 1779, "pitch": 68, "duration": 12, "velocity": 90}, {"time": 1797, "pitch": 68, "duration": 5, "velocity": 87}, {"time": 1803, "pitch": 70, "duration": 11, "velocity": 90}, {"time": 1815, "pitch": 68, "duration": 5, "velocity": 86}, {"time": 1821, "pitch": 68, "duration": 10, "velocity": 90}, {"time": 1833, "pitch": 66, "duration": 4, "velocity": 90}, {"time": 1839, "pitch": 66, "duration": 4, "velocity": 87}, {"time": 1845, "pitch": 66, "duration": 4, "velocity": 87}, {"time": 1851, "pitch": 66, "duration": 5, "velocity": 89}, {"time": 1857, "pitch": 68, "duration": 4, "velocity": 97}, {"time": 1863, "pitch": 70, "duration": 3, "velocity": 92}, {"time": 1869, "pitch": 77, "duration": 9, "velocity": 90}, {"time": 1881, "pitch": 73, "duration": 11, "velocity": 97}, {"time": 1899, "pitch": 66, "duration": 9, "velocity": 90}, {"time": 1911, "pitch": 66, "duration": 9, "velocity": 95}, {"time": 1923, "pitch": 75, "duration": 20, "velocity": 95}, {"time": 1947, "pitch": 66, "duration": 4, "velocity": 88}, {"time": 1953, "pitch": 66, "duration": 10, "velocity": 88}, {"time": 1965, "pitch": 73, "duration": 20, "velocity": 93}, {"time": 1995, "pitch": 73, "duration": 10, "velocity": 102}, {"time": 2007, "pitch": 70, "duration": 9, "velocity": 100}, {"time": 2019, "pitch": 71, "duration": 10, "velocity": 91}, {"time": 2031, "pitch": 73, "duration": 4, "velocity": 90}, {"time": 2037, "pitch": 75, "duration": 10, "velocity": 88}, {"time": 2049, "pitch": 73, "duration": 12, "velocity": 97}, {"time": 2061, "pitch": 68, "duration": 23, "velocity": 89}, {"time": 2091, "pitch": 66, "duration": 5, "velocity": 88}, {"time": 2097, "pitch": 63, "duration": 4, "velocity": 88}, {"time": 2103, "pitch": 63, "duration": 6, "velocity": 93}, {"time": 2109, "pitch": 61, "duration": 6, "velocity": 89}, {"time": 2115, "pitch": 66, "duration": 49, "velocity": 86}, {"time": 2301, "pitch": 61, "duration": 5, "velocity": 89}, {"time": 2307, "pitch": 68, "duration": 9, "velocity": 80}, {"time": 2319, "pitch": 68, "duration": 5, "velocity": 95}, {"time": 2325, "pitch": 66, "duration": 4, "velocity": 87}, {"time": 2331, "pitch": 66, "duration": 5, "velocity": 88}, {"time": 2337, "pitch": 68, "duration": 9, "velocity": 92}, {"time": 2349, "pitch": 70, "duration": 23, "velocity": 88}, {"time": 2391, "pitch": 70, "duration": 4, "velocity": 92}, {"time": 2397, "pitch": 73, "duration": 5, "velocity": 90}, {"time": 2403, "pitch": 75, "duration": 4, "velocity": 90}, {"time": 2409, "pitch": 75, "duration": 4, "velocity": 87}, {"time": 2415, "pitch": 75, "duration": 5, "velocity": 91}, {"time": 2421, "pitch": 77, "duration": 4, "velocity": 88}, {"time": 2427, "pitch": 75, "duration": 11, "velocity": 97}, {"time": 2439, "pitch": 73, "duration": 12, "velocity": 93}, {"time": 2451, "pitch": 70, "duration": 14, "velocity": 90}, {"time": 2487, "pitch": 70, "duration": 5, "velocity": 88}, {"time": 2493, "pitch": 70, "duration": 5, "velocity": 88}, {"time": 2499, "pitch": 68, "duration": 16, "velocity": 87}, {"time": 2517, "pitch": 66, "duration": 16, "velocity": 89}, {"time": 2535, "pitch": 70, "duration": 3, "velocity": 95}, {"time": 2541, "pitch": 70, "duration": 5, "velocity": 88}, {"time": 2547, "pitch": 68, "duration": 16, "velocity": 90}, {"time": 2565, "pitch": 66, "duration": 20, "velocity": 92}, {"time": 2595, "pitch": 68, "duration": 4, "velocity": 82}, {"time": 2601, "pitch": 68, "duration": 4, "velocity": 82}, {"time": 2607, "pitch": 68, "duration": 4, "velocity": 85}, {"time": 2613, "pitch": 68, "duration": 5, "velocity": 87}, {"time": 2619, "pitch": 70, "duration": 5, "velocity": 88}, {"time": 2625, "pitch": 68, "duration": 4, "velocity": 93}, {"time": 2631, "pitch": 63, "duration": 5, "velocity": 97}, {"time": 2637, "pitch": 68, "duration": 33, "velocity": 88}, {"time": 2679, "pitch": 61, "duration": 5, "velocity": 89}, {"time": 2685, "pitch": 61, "duration": 5, "velocity": 89}, {"time": 2691, "pitch": 68, "duration": 9, "velocity": 80}, {"time": 2703, "pitch": 68, "duration": 5, "velocity": 95}, {"time": 2709, "pitch": 66, "duration": 4, "velocity": 87}, {"time": 2715, "pitch": 68, "duration": 5, "velocity": 88}, {"time": 2721, "pitch": 73, "duration": 9, "velocity": 92}, {"time": 2733, "pitch": 70, "duration": 23, "velocity": 88}, {"time": 2775, "pitch": 70, "duration": 4, "velocity": 92}, {"time": 2781, "pitch": 73, "duration": 5, "velocity": 90}, {"time": 2787, "pitch": 75, "duration": 4, "velocity": 90}, {"time": 2793, "pitch": 75, "duration": 4, "velocity": 87}, {"time": 2799, "pitch": 75, "duration": 5, "velocity": 91}, {"time": 2805, "pitch": 77, "duration": 4, "velocity": 88}, {"time": 2811, "pitch": 75, "duration": 11, "velocity": 97}, {"time": 2823, "pitch": 73, "duration": 12, "velocity": 93}, {"time": 2835, "pitch": 70, "duration": 24, "velocity": 90}, {"time": 2871, "pitch": 70, "duration": 5, "velocity": 88}, {"time": 2877, "pitch": 70, "duration": 5, "velocity": 88}, {"time": 2883, "pitch": 68, "duration": 16, "velocity": 87}, {"time": 2901, "pitch": 66, "duration": 16, "velocity": 89}, {"time": 2919, "pitch": 70, "duration": 3, "velocity": 95}, {"time": 2925, "pitch": 70, "duration": 5, "velocity": 88}, {"time": 2931, "pitch": 68, "duration": 16, "velocity": 90}, {"time": 2949, "pitch": 66, "duration": 20, "velocity": 92}, {"time": 2979, "pitch": 61, "duration": 4, "velocity": 88}, {"time": 2985, "pitch": 61, "duration": 4, "velocity": 88}, {"time": 2991, "pitch": 61, "duration": 4, "velocity": 88}, {"time": 2997, "pitch": 61, "duration": 4, "velocity": 88}, {"time": 3003, "pitch": 65, "duration": 4, "velocity": 87}, {"time": 3009, "pitch": 65, "duration": 10, "velocity": 87}, {"time": 3021, "pitch": 66, "duration": 40, "velocity": 87}, {"time": 3099, "pitch": 66, "duration": 4, "velocity": 91}, {"time": 3105, "pitch": 68, "duration": 5, "velocity": 92}, {"time": 3111, "pitch": 66, "duration": 4, "velocity": 88}, {"time": 3117, "pitch": 69, "duration": 10, "velocity": 88}, {"time": 3129, "pitch": 69, "duration": 9, "velocity": 88}, {"time": 3141, "pitch": 69, "duration": 10, "velocity": 87}, {"time": 3153, "pitch": 69, "duration": 11, "velocity": 90}, {"time": 3165, "pitch": 68, "duration": 23, "velocity": 88}, {"time": 3195, "pitch": 66, "duration": 4, "velocity": 87}, {"time": 3201, "pitch": 64, "duration": 5, "velocity": 88}, {"time": 3207, "pitch": 61, "duration": 5, "velocity": 87}, {"time": 3213, "pitch": 66, "duration": 43, "velocity": 86}, {"time": 3291, "pitch": 66, "duration": 4, "velocity": 87}, {"time": 3297, "pitch": 68, "duration": 5, "velocity": 91}, {"time": 3303, "pitch": 66, "duration": 4, "velocity": 90}, {"time": 3309, "pitch": 69, "duration": 9, "velocity": 88}, {"time": 3321, "pitch": 69, "duration": 9, "velocity": 88}, {"time": 3333, "pitch": 69, "duration": 8, "velocity": 90}, {"time": 3345, "pitch": 69, "duration": 8, "velocity": 95}, {"time": 3357, "pitch": 68, "duration": 23, "velocity": 95}, {"time": 3387, "pitch": 61, "duration": 4, "velocity": 92}, {"time": 3393, "pitch": 61, "duration": 4, "velocity": 88}, {"time": 3399, "pitch": 61, "duration": 4, "velocity": 87}, {"time": 3405, "pitch": 73, "duration": 10, "velocity": 92}, {"time": 3417, "pitch": 71, "duration": 7, "velocity": 88}, {"time": 3429, "pitch": 69, "duration": 10, "velocity": 88}, {"time": 3441, "pitch": 68, "duration": 5, "velocity": 92}, {"time": 3447, "pitch": 66, "duration": 4, "velocity": 86}, {"time": 3453, "pitch": 68, "duration": 56, "velocity": 92}, {"time": 3531, "pitch": 66, "duration": 9, "velocity": 92}, {"time": 3543, "pitch": 66, "duration": 8, "velocity": 93}, {"time": 3555, "pitch": 73, "duration": 21, "velocity": 97}, {"time": 3579, "pitch": 73, "duration": 5, "velocity": 102}, {"time": 3585, "pitch": 75, "duration": 10, "velocity": 87}, {"time": 3597, "pitch": 75, "duration": 5, "velocity": 91}, {"time": 3603, "pitch": 68, "duration": 12, "velocity": 90}, {"time": 3621, "pitch": 68, "duration": 5, "velocity": 87}, {"time": 3627, "pitch": 70, "duration": 11, "velocity": 90}, {"time": 3639, "pitch": 68, "duration": 5, "velocity": 86}, {"time": 3645, "pitch": 68, "duration": 10, "velocity": 90}, {"time": 3657, "pitch": 66, "duration": 4, "velocity": 90}, {"time": 3663, "pitch": 66, "duration": 4, "velocity": 87}, {"time": 3669, "pitch": 66, "duration": 4, "velocity": 87}, {"time": 3675, "pitch": 66, "duration": 5, "velocity": 89}, {"time": 3681, "pitch": 68, "duration": 4, "velocity": 97}, {"time": 3687, "pitch": 70, "duration": 3, "velocity": 92}, {"time": 3693, "pitch": 77, "duration": 9, "velocity": 90}, {"time": 3705, "pitch": 73, "duration": 11, "velocity": 97}, {"time": 3723, "pitch": 66, "duration": 9, "velocity": 90}, {"time": 3735, "pitch": 66, "duration": 9, "velocity": 95}, {"time": 3747, "pitch": 75, "duration": 20, "velocity": 95}, {"time": 3771, "pitch": 66, "duration": 4, "velocity": 88}, {"time": 3777, "pitch": 66, "duration": 10, "velocity": 88}, {"time": 3789, "pitch": 73, "duration": 20, "velocity": 93}, {"time": 3819, "pitch": 73, "duration": 10, "velocity": 102}, {"time": 3831, "pitch": 70, "duration": 9, "velocity": 100}, {"time": 3843, "pitch": 71, "duration": 10, "velocity": 91}, {"time": 3855, "pitch": 73, "duration": 4, "velocity": 90}, {"time": 3861, "pitch": 75, "duration": 10, "velocity": 88}, {"time": 3873, "pitch": 73, "duration": 12, "velocity": 97}, {"time": 3885, "pitch": 68, "duration": 23, "velocity": 89}, {"time": 3915, "pitch": 66, "duration": 9, "velocity": 92}, {"time": 3927, "pitch": 66, "duration": 8, "velocity": 93}, {"time": 3939, "pitch": 73, "duration": 21, "velocity": 97}, {"time": 3963, "pitch": 73, "duration": 5, "velocity": 102}, {"time": 3969, "pitch": 75, "duration": 10, "velocity": 87}, {"time": 3981, "pitch": 75, "duration": 5, "velocity": 91}, {"time": 3987, "pitch": 68, "duration": 12, "velocity": 90}, {"time": 4005, "pitch": 68, "duration": 5, "velocity": 87}, {"time": 4011, "pitch": 70, "duration": 11, "velocity": 90}, {"time": 4023, "pitch": 68, "duration": 5, "velocity": 86}, {"time": 4029, "pitch": 68, "duration": 10, "velocity": 90}, {"time": 4041, "pitch": 66, "duration": 4, "velocity": 90}, {"time": 4047, "pitch": 66, "duration": 4, "velocity": 87}, {"time": 4053, "pitch": 66, "duration": 4, "velocity": 87}, {"time": 4059, "pitch": 66, "duration": 5, "velocity": 89}, {"time": 4065, "pitch": 68, "duration": 4, "velocity": 97}, {"time": 4071, "pitch": 70, "duration": 3, "velocity": 92}, {"time": 4077, "pitch": 77, "duration": 9, "velocity": 90}, {"time": 4089, "pitch": 73, "duration": 11, "velocity": 97}, {"time": 4107, "pitch": 66, "duration": 9, "velocity": 90}, {"time": 4119, "pitch": 66, "duration": 9, "velocity": 95}, {"time": 4131, "pitch": 75, "duration": 20, "velocity": 95}, {"time": 4155, "pitch": 66, "duration": 4, "velocity": 88}, {"time": 4161, "pitch": 66, "duration": 10, "velocity": 88}, {"time": 4173, "pitch": 73, "duration": 20, "velocity": 93}, {"time": 4203, "pitch": 73, "duration": 10, "velocity": 102}, {"time": 4215, "pitch": 70, "duration": 9, "velocity": 100}, {"time": 4227, "pitch": 71, "duration": 10, "velocity": 91}, {"time": 4239, "pitch": 73, "duration": 4, "velocity": 90}, {"time": 4245, "pitch": 75, "duration": 10, "velocity": 88}, {"time": 4257, "pitch": 73, "duration": 12, "velocity": 97}, {"time": 4269, "pitch": 68, "duration": 23, "velocity": 89}, {"time": 4299, "pitch": 66, "duration": 5, "velocity": 88}, {"time": 4305, "pitch": 63, "duration": 4, "velocity": 88}, {"time": 4311, "pitch": 63, "duration": 6, "velocity": 93}, {"time": 4317, "pitch": 61, "duration": 6, "velocity": 89}, {"time": 4323, "pitch": 66, "duration": 49, "velocity": 86}, {"time": 4383, "pitch": 66, "duration": 4, "velocity": 88}, {"time": 4389, "pitch": 66, "duration": 5, "velocity": 90}, {"time": 4395, "pitch": 70, "duration": 10, "velocity": 87}, {"time": 4407, "pitch": 68, "duration": 9, "velocity": 90}, {"time": 4419, "pitch": 66, "duration": 54, "velocity": 87}, {"time": 4479, "pitch": 66, "duration": 3, "velocity": 82}, {"time": 4485, "pitch": 66, "duration": 5, "velocity": 88}, {"time": 4491, "pitch": 70, "duration": 26, "velocity": 90}, {"time": 4515, "pitch": 68, "duration": 24, "velocity": 93}, {"time": 4539, "pitch": 66, "duration": 50, "velocity": 88}]}, {"program": 0, "is_drum": false, "name": "PIANO", "notes": [{"time": 51, "pitch": 42, "duration": 46, "velocity": 86}, {"time": 51, "pitch": 54, "duration": 9, "velocity": 78}, {"time": 51, "pitch": 61, "duration": 12, "velocity": 79}, {"time": 57, "pitch": 49, "duration": 26, "velocity": 78}, {"time": 63, "pitch": 54, "duration": 3, "velocity": 77}, {"time": 69, "pitch": 54, "duration": 11, "velocity": 81}, {"time": 69, "pitch": 61, "duration": 12, "velocity": 82}, {"time": 87, "pitch": 49, "duration": 10, "velocity": 64}, {"time": 93, "pitch": 54, "duration": 13, "velocity": 89}, {"time": 99, "pitch": 42, "duration": 48, "velocity": 87}, {"time": 99, "pitch": 58, "duration": 7, "velocity": 86}, {"time": 105, "pitch": 49, "duration": 27, "velocity": 69}, {"time": 111, "pitch": 54, "duration": 9, "velocity": 78}, {"time": 117, "pitch": 58, "duration": 7, "velocity": 82}, {"time": 117, "pitch": 61, "duration": 7, "velocity": 80}, {"time": 129, "pitch": 58, "duration": 7, "velocity": 79}, {"time": 129, "pitch": 61, "duration": 6, "velocity": 77}, {"time": 129, "pitch": 66, "duration": 6, "velocity": 79}, {"time": 135, "pitch": 49, "duration": 12, "velocity": 75}, {"time": 141, "pitch": 54, "duration": 7, "velocity": 85}, {"time": 141, "pitch": 58, "duration": 5, "velocity": 69}, {"time": 141, "pitch": 61, "duration": 4, "velocity": 60}, {"time": 147, "pitch": 42, "duration": 1, "velocity": 88}, {"time": 153, "pitch": 49, "duration": 26, "velocity": 81}, {"time": 159, "pitch": 54, "duration": 8, "velocity": 97}, {"time": 165, "pitch": 58, "duration": 7, "velocity": 89}, {"time": 165, "pitch": 61, "duration": 9, "velocity": 90}, {"time": 177, "pitch": 54, "duration": 14, "velocity": 86}, {"time": 183, "pitch": 49, "duration": 9, "velocity": 75}, {"time": 189, "pitch": 58, "duration": 17, "velocity": 81}, {"time": 189, "pitch": 61, "duration": 16, "velocity": 82}, {"time": 195, "pitch": 42, "duration": 44, "velocity": 88}, {"time": 201, "pitch": 49, "duration": 26, "velocity": 76}, {"time": 207, "pitch": 54, "duration": 13, "velocity": 88}, {"time": 213, "pitch": 66, "duration": 5, "velocity": 87}, {"time": 225, "pitch": 54, "duration": 1, "velocity": 71}, {"time": 225, "pitch": 58, "duration": 11, "velocity": 81}, {"time": 225, "pitch": 61, "duration": 13, "velocity": 82}, {"time": 231, "pitch": 49, "duration": 9, "velocity": 79}, {"time": 237, "pitch": 54, "duration": 4, "velocity": 86}, {"time": 243, "pitch": 47, "duration": 44, "velocity": 88}, {"time": 243, "pitch": 54, "duration": 7, "velocity": 86}, {"time": 243, "pitch": 59, "duration": 13, "velocity": 84}, {"time": 249, "pitch": 51, "duration": 38, "velocity": 74}, {"time": 255, "pitch": 54, "duration": 4, "velocity": 81}, {"time": 261, "pitch": 54, "duration": 7, "velocity": 88}, {"time": 261, "pitch": 61, "duration": 7, "velocity": 87}, {"time": 273, "pitch": 54, "duration": 6, "velocity": 86}, {"time": 273, "pitch": 59, "duration": 8, "velocity": 83}, {"time": 285, "pitch": 54, "duration": 4, "velocity": 82}, {"time": 291, "pitch": 47, "duration": 46, "velocity": 88}, {"time": 291, "pitch": 54, "duration": 4, "velocity": 87}, {"time": 291, "pitch": 59, "duration": 8, "velocity": 86}, {"time": 297, "pitch": 54, "duration": 9, "velocity": 79}, {"time": 303, "pitch": 59, "duration": 3, "velocity": 79}, {"time": 309, "pitch": 54, "duration": 14, "velocity": 85}, {"time": 309, "pitch": 59, "duration": 14, "velocity": 82}, {"time": 327, "pitch": 59, "duration": 7, "velocity": 87}, {"time": 327, "pitch": 62, "duration": 7, "velocity": 83}, {"time": 333, "pitch": 54, "duration": 3, "velocity": 79}, {"time": 339, "pitch": 47, "duration": 38, "velocity": 87}, {"time": 339, "pitch": 54, "duration": 4, "velocity": 85}, {"time": 339, "pitch": 59, "duration": 7, "velocity": 86}, {"time": 345, "pitch": 54, "duration": 8, "velocity": 75}, {"time": 351, "pitch": 59, "duration": 2, "velocity": 77}, {"time": 357, "pitch": 54, "duration": 11, "velocity": 81}, {"time": 357, "pitch": 62, "duration": 11, "velocity": 82}, {"time": 369, "pitch": 59, "duration": 8, "velocity": 87}, {"time": 387, "pitch": 37, "duration": 44, "velocity": 88}, {"time": 387, "pitch": 56, "duration": 5, "velocity": 77}, {"time": 387, "pitch": 61, "duration": 27, "velocity": 85}, {"time": 393, "pitch": 44, "duration": 37, "velocity": 77}, {"time": 399, "pitch": 49, "duration": 4, "velocity": 87}, {"time": 405, "pitch": 49, "duration": 10, "velocity": 86}, {"time": 405, "pitch": 56, "duration": 9, "velocity": 85}, {"time": 417, "pitch": 49, "duration": 1, "velocity": 71}, {"time": 417, "pitch": 53, "duration": 11, "velocity": 87}, {"time": 417, "pitch": 56, "duration": 21, "velocity": 86}, {"time": 429, "pitch": 61, "duration": 12, "velocity": 86}, {"time": 435, "pitch": 37, "duration": 37, "velocity": 93}, {"time": 441, "pitch": 44, "duration": 31, "velocity": 74}, {"time": 447, "pitch": 56, "duration": 2, "velocity": 77}, {"time": 453, "pitch": 61, "duration": 2, "velocity": 88}, {"time": 459, "pitch": 65, "duration": 4, "velocity": 86}, {"time": 465, "pitch": 68, "duration": 4, "velocity": 77}, {"time": 471, "pitch": 73, "duration": 2, "velocity": 90}, {"time": 483, "pitch": 42, "duration": 44, "velocity": 86}, {"time": 489, "pitch": 54, "duration": 6, "velocity": 85}, {"time": 489, "pitch": 58, "duration": 6, "velocity": 85}, {"time": 489, "pitch": 61, "duration": 7, "velocity": 86}, {"time": 501, "pitch": 54, "duration": 13, "velocity": 81}, {"time": 501, "pitch": 58, "duration": 13, "velocity": 86}, {"time": 501, "pitch": 61, "duration": 13, "velocity": 83}, {"time": 513, "pitch": 49, "duration": 14, "velocity": 78}, {"time": 519, "pitch": 54, "duration": 2, "velocity": 80}, {"time": 519, "pitch": 58, "duration": 16, "velocity": 85}, {"time": 519, "pitch": 61, "duration": 16, "velocity": 86}, {"time": 525, "pitch": 54, "duration": 10, "velocity": 70}, {"time": 531, "pitch": 42, "duration": 44, "velocity": 87}, {"time": 537, "pitch": 54, "duration": 4, "velocity": 79}, {"time": 537, "pitch": 58, "duration": 4, "velocity": 80}, {"time": 537, "pitch": 61, "duration": 3, "velocity": 80}, {"time": 549, "pitch": 54, "duration": 10, "velocity": 79}, {"time": 549, "pitch": 58, "duration": 10, "velocity": 78}, {"time": 549, "pitch": 61, "duration": 10, "velocity": 82}, {"time": 561, "pitch": 49, "duration": 12, "velocity": 73}, {"time": 567, "pitch": 58, "duration": 7, "velocity": 86}, {"time": 567, "pitch": 61, "duration": 10, "velocity": 85}, {"time": 573, "pitch": 54, "duration": 4, "velocity": 88}, {"time": 579, "pitch": 47, "duration": 29, "velocity": 86}, {"time": 585, "pitch": 54, "duration": 8, "velocity": 85}, {"time": 585, "pitch": 59, "duration": 7, "velocity": 83}, {"time": 597, "pitch": 54, "duration": 7, "velocity": 81}, {"time": 597, "pitch": 59, "duration": 7, "velocity": 82}, {"time": 597, "pitch": 63, "duration": 13, "velocity": 86}, {"time": 609, "pitch": 54, "duration": 3, "velocity": 80}, {"time": 615, "pitch": 54, "duration": 14, "velocity": 86}, {"time": 615, "pitch": 59, "duration": 13, "velocity": 86}, {"time": 615, "pitch": 63, "duration": 1, "velocity": 77}, {"time": 621, "pitch": 47, "duration": 5, "velocity": 86}, {"time": 627, "pitch": 42, "duration": 43, "velocity": 87}, {"time": 633, "pitch": 54, "duration": 7, "velocity": 88}, {"time": 639, "pitch": 49, "duration": 15, "velocity": 85}, {"time": 645, "pitch": 54, "duration": 10, "velocity": 83}, {"time": 645, "pitch": 58, "duration": 9, "velocity": 80}, {"time": 645, "pitch": 61, "duration": 9, "velocity": 86}, {"time": 657, "pitch": 49, "duration": 11, "velocity": 77}, {"time": 663, "pitch": 54, "duration": 4, "velocity": 87}, {"time": 663, "pitch": 58, "duration": 10, "velocity": 86}, {"time": 669, "pitch": 54, "duration": 6, "velocity": 81}, {"time": 675, "pitch": 47, "duration": 27, "velocity": 86}, {"time": 681, "pitch": 54, "duration": 5, "velocity": 83}, {"time": 681, "pitch": 59, "duration": 6, "velocity": 82}, {"time": 681, "pitch": 63, "duration": 5, "velocity": 86}, {"time": 687, "pitch": 54, "duration": 1, "velocity": 66}, {"time": 693, "pitch": 54, "duration": 13, "velocity": 87}, {"time": 693, "pitch": 59, "duration": 12, "velocity": 87}, {"time": 705, "pitch": 47, "duration": 7, "velocity": 74}, {"time": 711, "pitch": 54, "duration": 2, "velocity": 89}, {"time": 711, "pitch": 59, "duration": 11, "velocity": 91}, {"time": 711, "pitch": 63, "duration": 9, "velocity": 92}, {"time": 717, "pitch": 54, "duration": 6, "velocity": 69}, {"time": 723, "pitch": 47, "duration": 42, "velocity": 95}, {"time": 729, "pitch": 59, "duration": 7, "velocity": 82}, {"time": 729, "pitch": 62, "duration": 7, "velocity": 80}, {"time": 735, "pitch": 54, "duration": 4, "velocity": 82}, {"time": 741, "pitch": 54, "duration": 10, "velocity": 87}, {"time": 741, "pitch": 59, "duration": 14, "velocity": 87}, {"time": 753, "pitch": 54, "duration": 1, "velocity": 63}, {"time": 759, "pitch": 54, "duration": 3, "velocity": 86}, {"time": 759, "pitch": 59, "duration": 7, "velocity": 89}, {"time": 759, "pitch": 62, "duration": 8, "velocity": 87}, {"time": 765, "pitch": 54, "duration": 2, "velocity": 67}, {"time": 771, "pitch": 44, "duration": 41, "velocity": 86}, {"time": 771, "pitch": 56, "duration": 8, "velocity": 81}, {"time": 771, "pitch": 59, "duration": 8, "velocity": 85}, {"time": 777, "pitch": 51, "duration": 21, "velocity": 79}, {"time": 783, "pitch": 56, "duration": 3, "velocity": 81}, {"time": 789, "pitch": 56, "duration": 15, "velocity": 86}, {"time": 789, "pitch": 59, "duration": 15, "velocity": 87}, {"time": 789, "pitch": 63, "duration": 14, "velocity": 87}, {"time": 801, "pitch": 51, "duration": 11, "velocity": 73}, {"time": 807, "pitch": 56, "duration": 4, "velocity": 87}, {"time": 807, "pitch": 59, "duration": 11, "velocity": 89}, {"time": 813, "pitch": 56, "duration": 9, "velocity": 85}, {"time": 819, "pitch": 49, "duration": 9, "velocity": 86}, {"time": 825, "pitch": 56, "duration": 3, "velocity": 88}, {"time": 825, "pitch": 61, "duration": 3, "velocity": 87}, {"time": 831, "pitch": 49, "duration": 14, "velocity": 79}, {"time": 837, "pitch": 56, "duration": 14, "velocity": 86}, {"time": 837, "pitch": 61, "duration": 13, "velocity": 88}, {"time": 849, "pitch": 49, "duration": 7, "velocity": 81}, {"time": 855, "pitch": 56, "duration": 3, "velocity": 86}, {"time": 855, "pitch": 61, "duration": 9, "velocity": 87}, {"time": 855, "pitch": 65, "duration": 10, "velocity": 85}, {"time": 861, "pitch": 56, "duration": 4, "velocity": 79}, {"time": 867, "pitch": 42, "duration": 44, "velocity": 86}, {"time": 873, "pitch": 54, "duration": 6, "velocity": 85}, {"time": 873, "pitch": 58, "duration": 6, "velocity": 85}, {"time": 873, "pitch": 61, "duration": 7, "velocity": 86}, {"time": 885, "pitch": 54, "duration": 13, "velocity": 81}, {"time": 885, "pitch": 58, "duration": 13, "velocity": 86}, {"time": 885, "pitch": 61, "duration": 13, "velocity": 83}, {"time": 897, "pitch": 49, "duration": 14, "velocity": 78}, {"time": 903, "pitch": 54, "duration": 2, "velocity": 80}, {"time": 903, "pitch": 58, "duration": 16, "velocity": 85}, {"time": 903, "pitch": 61, "duration": 16, "velocity": 86}, {"time": 909, "pitch": 54, "duration": 10, "velocity": 70}, {"time": 915, "pitch": 42, "duration": 44, "velocity": 87}, {"time": 921, "pitch": 54, "duration": 4, "velocity": 79}, {"time": 921, "pitch": 58, "duration": 4, "velocity": 80}, {"time": 921, "pitch": 61, "duration": 3, "velocity": 80}, {"time": 933, "pitch": 54, "duration": 10, "velocity": 79}, {"time": 933, "pitch": 58, "duration": 10, "velocity": 78}, {"time": 933, "pitch": 61, "duration": 10, "velocity": 82}, {"time": 945, "pitch": 49, "duration": 12, "velocity": 73}, {"time": 951, "pitch": 58, "duration": 7, "velocity": 86}, {"time": 951, "pitch": 61, "duration": 10, "velocity": 85}, {"time": 957, "pitch": 54, "duration": 4, "velocity": 88}, {"time": 963, "pitch": 47, "duration": 29, "velocity": 86}, {"time": 969, "pitch": 54, "duration": 8, "velocity": 85}, {"time": 969, "pitch": 59, "duration": 7, "velocity": 83}, {"time": 981, "pitch": 54, "duration": 7, "velocity": 81}, {"time": 981, "pitch": 59, "duration": 7, "velocity": 82}, {"time": 981, "pitch": 63, "duration": 13, "velocity": 86}, {"time": 993, "pitch": 54, "duration": 3, "velocity": 80}, {"time": 999, "pitch": 54, "duration": 14, "velocity": 86}, {"time": 999, "pitch": 59, "duration": 13, "velocity": 86}, {"time": 999, "pitch": 63, "duration": 1, "velocity": 77}, {"time": 1005, "pitch": 47, "duration": 5, "velocity": 86}, {"time": 1011, "pitch": 42, "duration": 43, "velocity": 87}, {"time": 1017, "pitch": 54, "duration": 7, "velocity": 88}, {"time": 1023, "pitch": 49, "duration": 15, "velocity": 85}, {"time": 1029, "pitch": 54, "duration": 10, "velocity": 83}, {"time": 1029, "pitch": 58, "duration": 9, "velocity": 80}, {"time": 1029, "pitch": 61, "duration": 9, "velocity": 86}, {"time": 1041, "pitch": 49, "duration": 11, "velocity": 77}, {"time": 1047, "pitch": 54, "duration": 4, "velocity": 87}, {"time": 1047, "pitch": 58, "duration": 10, "velocity": 86}, {"time": 1053, "pitch": 54, "duration": 6, "velocity": 81}, {"time": 1059, "pitch": 47, "duration": 27, "velocity": 86}, {"time": 1065, "pitch": 54, "duration": 5, "velocity": 83}, {"time": 1065, "pitch": 59, "duration": 6, "velocity": 82}, {"time": 1065, "pitch": 63, "duration": 5, "velocity": 86}, {"time": 1071, "pitch": 54, "duration": 1, "velocity": 66}, {"time": 1077, "pitch": 54, "duration": 13, "velocity": 87}, {"time": 1077, "pitch": 59, "duration": 12, "velocity": 87}, {"time": 1089, "pitch": 47, "duration": 7, "velocity": 74}, {"time": 1095, "pitch": 54, "duration": 2, "velocity": 89}, {"time": 1095, "pitch": 59, "duration": 11, "velocity": 91}, {"time": 1095, "pitch": 63, "duration": 9, "velocity": 92}, {"time": 1101, "pitch": 54, "duration": 6, "velocity": 69}, {"time": 1107, "pitch": 47, "duration": 42, "velocity": 95}, {"time": 1113, "pitch": 59, "duration": 7, "velocity": 82}, {"time": 1113, "pitch": 62, "duration": 7, "velocity": 80}, {"time": 1119, "pitch": 54, "duration": 4, "velocity": 82}, {"time": 1125, "pitch": 54, "duration": 10, "velocity": 87}, {"time": 1125, "pitch": 59, "duration": 14, "velocity": 87}, {"time": 1137, "pitch": 54, "duration": 1, "velocity": 63}, {"time": 1143, "pitch": 54, "duration": 3, "velocity": 86}, {"time": 1143, "pitch": 59, "duration": 7, "velocity": 89}, {"time": 1143, "pitch": 62, "duration": 8, "velocity": 87}, {"time": 1149, "pitch": 54, "duration": 2, "velocity": 67}, {"time": 1155, "pitch": 49, "duration": 20, "velocity": 87}, {"time": 1155, "pitch": 56, "duration": 10, "velocity": 78}, {"time": 1155, "pitch": 61, "duration": 10, "velocity": 85}, {"time": 1173, "pitch": 56, "duration": 8, "velocity": 82}, {"time": 1173, "pitch": 61, "duration": 7, "velocity": 87}, {"time": 1173, "pitch": 65, "duration": 7, "velocity": 81}, {"time": 1185, "pitch": 56, "duration": 6, "velocity": 87}, {"time": 1185, "pitch": 61, "duration": 9, "velocity": 87}, {"time": 1185, "pitch": 65, "duration": 16, "velocity": 85}, {"time": 1197, "pitch": 56, "duration": 6, "velocity": 83}, {"time": 1197, "pitch": 61, "duration": 5, "velocity": 57}, {"time": 1203, "pitch": 42, "duration": 44, "velocity": 86}, {"time": 1209, "pitch": 54, "duration": 7, "velocity": 86}, {"time": 1209, "pitch": 58, "duration": 6, "velocity": 86}, {"time": 1209, "pitch": 61, "duration": 7, "velocity": 88}, {"time": 1215, "pitch": 49, "duration": 15, "velocity": 80}, {"time": 1221, "pitch": 54, "duration": 12, "velocity": 82}, {"time": 1221, "pitch": 58, "duration": 12, "velocity": 80}, {"time": 1221, "pitch": 61, "duration": 12, "velocity": 86}, {"time": 1233, "pitch": 49, "duration": 12, "velocity": 73}, {"time": 1239, "pitch": 54, "duration": 1, "velocity": 80}, {"time": 1239, "pitch": 58, "duration": 14, "velocity": 89}, {"time": 1239, "pitch": 61, "duration": 15, "velocity": 87}, {"time": 1245, "pitch": 54, "duration": 9, "velocity": 84}, {"time": 1251, "pitch": 42, "duration": 48, "velocity": 86}, {"time": 1257, "pitch": 54, "duration": 4, "velocity": 86}, {"time": 1257, "pitch": 58, "duration": 4, "velocity": 86}, {"time": 1257, "pitch": 61, "duration": 5, "velocity": 87}, {"time": 1263, "pitch": 49, "duration": 13, "velocity": 77}, {"time": 1269, "pitch": 54, "duration": 8, "velocity": 90}, {"time": 1269, "pitch": 58, "duration": 9, "velocity": 88}, {"time": 1269, "pitch": 61, "duration": 10, "velocity": 88}, {"time": 1281, "pitch": 49, "duration": 9, "velocity": 78}, {"time": 1287, "pitch": 54, "duration": 7, "velocity": 87}, {"time": 1287, "pitch": 61, "duration": 7, "velocity": 84}, {"time": 1293, "pitch": 49, "duration": 7, "velocity": 81}, {"time": 1299, "pitch": 35, "duration": 40, "velocity": 86}, {"time": 1299, "pitch": 59, "duration": 7, "velocity": 86}, {"time": 1299, "pitch": 66, "duration": 13, "velocity": 84}, {"time": 1305, "pitch": 42, "duration": 15, "velocity": 74}, {"time": 1311, "pitch": 59, "duration": 3, "velocity": 89}, {"time": 1317, "pitch": 59, "duration": 8, "velocity": 88}, {"time": 1317, "pitch": 62, "duration": 7, "velocity": 87}, {"time": 1323, "pitch": 42, "duration": 8, "velocity": 75}, {"time": 1329, "pitch": 59, "duration": 7, "velocity": 87}, {"time": 1329, "pitch": 62, "duration": 8, "velocity": 87}, {"time": 1329, "pitch": 66, "duration": 9, "velocity": 86}, {"time": 1335, "pitch": 42, "duration": 3, "velocity": 70}, {"time": 1341, "pitch": 59, "duration": 1, "velocity": 77}, {"time": 1347, "pitch": 37, "duration": 33, "velocity": 87}, {"time": 1347, "pitch": 61, "duration": 6, "velocity": 85}, {"time": 1347, "pitch": 65, "duration": 6, "velocity": 79}, {"time": 1353, "pitch": 44, "duration": 26, "velocity": 75}, {"time": 1359, "pitch": 61, "duration": 2, "velocity": 75}, {"time": 1389, "pitch": 37, "duration": 3, "velocity": 88}, {"time": 1395, "pitch": 42, "duration": 47, "velocity": 87}, {"time": 1395, "pitch": 61, "duration": 8, "velocity": 81}, {"time": 1395, "pitch": 66, "duration": 9, "velocity": 82}, {"time": 1401, "pitch": 49, "duration": 37, "velocity": 73}, {"time": 1407, "pitch": 61, "duration": 3, "velocity": 86}, {"time": 1413, "pitch": 61, "duration": 8, "velocity": 89}, {"time": 1413, "pitch": 70, "duration": 9, "velocity": 85}, {"time": 1425, "pitch": 61, "duration": 5, "velocity": 88}, {"time": 1425, "pitch": 66, "duration": 7, "velocity": 86}, {"time": 1437, "pitch": 61, "duration": 3, "velocity": 82}, {"time": 1443, "pitch": 42, "duration": 34, "velocity": 87}, {"time": 1443, "pitch": 61, "duration": 7, "velocity": 83}, {"time": 1443, "pitch": 68, "duration": 13, "velocity": 80}, {"time": 1449, "pitch": 49, "duration": 14, "velocity": 78}, {"time": 1455, "pitch": 61, "duration": 3, "velocity": 88}, {"time": 1461, "pitch": 61, "duration": 8, "velocity": 87}, {"time": 1461, "pitch": 66, "duration": 8, "velocity": 86}, {"time": 1461, "pitch": 70, "duration": 8, "velocity": 87}, {"time": 1467, "pitch": 49, "duration": 9, "velocity": 79}, {"time": 1473, "pitch": 61, "duration": 5, "velocity": 90}, {"time": 1473, "pitch": 66, "duration": 3, "velocity": 86}, {"time": 1479, "pitch": 42, "duration": 3, "velocity": 82}, {"time": 1491, "pitch": 35, "duration": 2, "velocity": 86}, {"time": 1491, "pitch": 59, "duration": 11, "velocity": 85}, {"time": 1491, "pitch": 62, "duration": 11, "velocity": 85}, {"time": 1491, "pitch": 66, "duration": 11, "velocity": 86}, {"time": 1497, "pitch": 47, "duration": 27, "velocity": 83}, {"time": 1503, "pitch": 54, "duration": 10, "velocity": 82}, {"time": 1509, "pitch": 59, "duration": 8, "velocity": 87}, {"time": 1509, "pitch": 66, "duration": 7, "velocity": 87}, {"time": 1515, "pitch": 54, "duration": 8, "velocity": 76}, {"time": 1521, "pitch": 59, "duration": 4, "velocity": 83}, {"time": 1521, "pitch": 62, "duration": 4, "velocity": 87}, {"time": 1521, "pitch": 66, "duration": 6, "velocity": 86}, {"time": 1533, "pitch": 47, "duration": 2, "velocity": 87}, {"time": 1539, "pitch": 37, "duration": 2, "velocity": 87}, {"time": 1539, "pitch": 61, "duration": 12, "velocity": 85}, {"time": 1539, "pitch": 65, "duration": 13, "velocity": 82}, {"time": 1545, "pitch": 49, "duration": 32, "velocity": 74}, {"time": 1551, "pitch": 56, "duration": 10, "velocity": 79}, {"time": 1557, "pitch": 61, "duration": 9, "velocity": 83}, {"time": 1557, "pitch": 65, "duration": 9, "velocity": 86}, {"time": 1557, "pitch": 68, "duration": 9, "velocity": 85}, {"time": 1569, "pitch": 61, "duration": 7, "velocity": 87}, {"time": 1569, "pitch": 65, "duration": 7, "velocity": 88}, {"time": 1569, "pitch": 68, "duration": 7, "velocity": 87}, {"time": 1575, "pitch": 56, "duration": 2, "velocity": 71}, {"time": 1587, "pitch": 47, "duration": 37, "velocity": 87}, {"time": 1587, "pitch": 59, "duration": 7, "velocity": 85}, {"time": 1587, "pitch": 66, "duration": 13, "velocity": 81}, {"time": 1593, "pitch": 54, "duration": 26, "velocity": 77}, {"time": 1599, "pitch": 59, "duration": 3, "velocity": 86}, {"time": 1605, "pitch": 59, "duration": 7, "velocity": 87}, {"time": 1605, "pitch": 66, "duration": 7, "velocity": 86}, {"time": 1617, "pitch": 59, "duration": 5, "velocity": 88}, {"time": 1617, "pitch": 63, "duration": 5, "velocity": 91}, {"time": 1623, "pitch": 54, "duration": 3, "velocity": 86}, {"time": 1629, "pitch": 47, "duration": 2, "velocity": 86}, {"time": 1635, "pitch": 37, "duration": 2, "velocity": 87}, {"time": 1635, "pitch": 61, "duration": 13, "velocity": 86}, {"time": 1635, "pitch": 65, "duration": 14, "velocity": 80}, {"time": 1641, "pitch": 49, "duration": 38, "velocity": 81}, {"time": 1647, "pitch": 56, "duration": 9, "velocity": 87}, {"time": 1653, "pitch": 61, "duration": 6, "velocity": 88}, {"time": 1653, "pitch": 65, "duration": 6, "velocity": 84}, {"time": 1653, "pitch": 68, "duration": 4, "velocity": 85}, {"time": 1659, "pitch": 56, "duration": 19, "velocity": 76}, {"time": 1665, "pitch": 61, "duration": 2, "velocity": 89}, {"time": 1665, "pitch": 73, "duration": 3, "velocity": 89}, {"time": 1683, "pitch": 49, "duration": 31, "velocity": 90}, {"time": 1683, "pitch": 61, "duration": 7, "velocity": 81}, {"time": 1683, "pitch": 65, "duration": 8, "velocity": 74}, {"time": 1683, "pitch": 68, "duration": 8, "velocity": 80}, {"time": 1689, "pitch": 56, "duration": 14, "velocity": 72}, {"time": 1695, "pitch": 61, "duration": 3, "velocity": 86}, {"time": 1701, "pitch": 61, "duration": 8, "velocity": 92}, {"time": 1701, "pitch": 65, "duration": 9, "velocity": 89}, {"time": 1701, "pitch": 68, "duration": 11, "velocity": 90}, {"time": 1707, "pitch": 56, "duration": 6, "velocity": 82}, {"time": 1713, "pitch": 61, "duration": 2, "velocity": 93}, {"time": 1719, "pitch": 61, "duration": 3, "velocity": 93}, {"time": 1719, "pitch": 65, "duration": 5, "velocity": 90}, {"time": 1725, "pitch": 61, "duration": 4, "velocity": 86}, {"time": 1731, "pitch": 42, "duration": 35, "velocity": 87}, {"time": 1731, "pitch": 61, "duration": 8, "velocity": 86}, {"time": 1731, "pitch": 66, "duration": 10, "velocity": 86}, {"time": 1737, "pitch": 49, "duration": 15, "velocity": 82}, {"time": 1743, "pitch": 61, "duration": 2, "velocity": 86}, {"time": 1749, "pitch": 61, "duration": 8, "velocity": 91}, {"time": 1749, "pitch": 70, "duration": 9, "velocity": 90}, {"time": 1755, "pitch": 49, "duration": 9, "velocity": 75}, {"time": 1761, "pitch": 61, "duration": 8, "velocity": 93}, {"time": 1761, "pitch": 66, "duration": 9, "velocity": 88}, {"time": 1773, "pitch": 61, "duration": 3, "velocity": 90}, {"time": 1779, "pitch": 49, "duration": 24, "velocity": 91}, {"time": 1779, "pitch": 61, "duration": 6, "velocity": 86}, {"time": 1779, "pitch": 68, "duration": 7, "velocity": 90}, {"time": 1785, "pitch": 56, "duration": 15, "velocity": 86}, {"time": 1791, "pitch": 61, "duration": 3, "velocity": 92}, {"time": 1797, "pitch": 61, "duration": 13, "velocity": 90}, {"time": 1797, "pitch": 65, "duration": 14, "velocity": 86}, {"time": 1809, "pitch": 49, "duration": 14, "velocity": 86}, {"time": 1809, "pitch": 56, "duration": 2, "velocity": 77}, {"time": 1815, "pitch": 61, "duration": 7, "velocity": 95}, {"time": 1815, "pitch": 65, "duration": 7, "velocity": 93}, {"time": 1821, "pitch": 56, "duration": 2, "velocity": 77}, {"time": 1827, "pitch": 39, "duration": 38, "velocity": 87}, {"time": 1827, "pitch": 63, "duration": 5, "velocity": 89}, {"time": 1827, "pitch": 66, "duration": 7, "velocity": 87}, {"time": 1833, "pitch": 46, "duration": 15, "velocity": 74}, {"time": 1839, "pitch": 63, "duration": 2, "velocity": 93}, {"time": 1845, "pitch": 63, "duration": 3, "velocity": 103}, {"time": 1845, "pitch": 70, "duration": 6, "velocity": 93}, {"time": 1851, "pitch": 46, "duration": 10, "velocity": 75}, {"time": 1857, "pitch": 63, "duration": 6, "velocity": 92}, {"time": 1857, "pitch": 66, "duration": 8, "velocity": 88}, {"time": 1863, "pitch": 46, "duration": 4, "velocity": 77}, {"time": 1869, "pitch": 63, "duration": 2, "velocity": 88}, {"time": 1875, "pitch": 46, "duration": 38, "velocity": 87}, {"time": 1875, "pitch": 65, "duration": 12, "velocity": 74}, {"time": 1881, "pitch": 53, "duration": 15, "velocity": 93}, {"time": 1887, "pitch": 58, "duration": 4, "velocity": 93}, {"time": 1893, "pitch": 58, "duration": 14, "velocity": 87}, {"time": 1893, "pitch": 61, "duration": 15, "velocity": 89}, {"time": 1893, "pitch": 65, "duration": 17, "velocity": 86}, {"time": 1905, "pitch": 53, "duration": 6, "velocity": 86}, {"time": 1911, "pitch": 58, "duration": 7, "velocity": 100}, {"time": 1917, "pitch": 61, "duration": 5, "velocity": 90}, {"time": 1923, "pitch": 35, "duration": 2, "velocity": 86}, {"time": 1923, "pitch": 59, "duration": 11, "velocity": 85}, {"time": 1923, "pitch": 63, "duration": 11, "velocity": 89}, {"time": 1929, "pitch": 47, "duration": 27, "velocity": 81}, {"time": 1935, "pitch": 54, "duration": 20, "velocity": 80}, {"time": 1941, "pitch": 59, "duration": 5, "velocity": 88}, {"time": 1941, "pitch": 66, "duration": 3, "velocity": 85}, {"time": 1953, "pitch": 59, "duration": 7, "velocity": 87}, {"time": 1953, "pitch": 63, "duration": 9, "velocity": 92}, {"time": 1959, "pitch": 54, "duration": 11, "velocity": 86}, {"time": 1965, "pitch": 59, "duration": 3, "velocity": 93}, {"time": 1971, "pitch": 46, "duration": 36, "velocity": 87}, {"time": 1971, "pitch": 58, "duration": 2, "velocity": 89}, {"time": 1971, "pitch": 61, "duration": 13, "velocity": 89}, {"time": 1977, "pitch": 53, "duration": 15, "velocity": 86}, {"time": 1983, "pitch": 58, "duration": 4, "velocity": 80}, {"time": 1989, "pitch": 58, "duration": 14, "velocity": 90}, {"time": 1989, "pitch": 61, "duration": 14, "velocity": 89}, {"time": 1989, "pitch": 65, "duration": 15, "velocity": 87}, {"time": 2001, "pitch": 53, "duration": 5, "velocity": 85}, {"time": 2007, "pitch": 58, "duration": 2, "velocity": 87}, {"time": 2007, "pitch": 61, "duration": 7, "velocity": 88}, {"time": 2007, "pitch": 65, "duration": 7, "velocity": 87}, {"time": 2013, "pitch": 58, "duration": 3, "velocity": 89}, {"time": 2019, "pitch": 44, "duration": 43, "velocity": 87}, {"time": 2019, "pitch": 56, "duration": 7, "velocity": 87}, {"time": 2019, "pitch": 59, "duration": 13, "velocity": 85}, {"time": 2025, "pitch": 51, "duration": 16, "velocity": 79}, {"time": 2031, "pitch": 54, "duration": 4, "velocity": 86}, {"time": 2037, "pitch": 54, "duration": 14, "velocity": 86}, {"time": 2037, "pitch": 59, "duration": 14, "velocity": 88}, {"time": 2037, "pitch": 63, "duration": 13, "velocity": 88}, {"time": 2049, "pitch": 51, "duration": 8, "velocity": 87}, {"time": 2055, "pitch": 56, "duration": 8, "velocity": 88}, {"time": 2055, "pitch": 59, "duration": 10, "velocity": 91}, {"time": 2061, "pitch": 51, "duration": 2, "velocity": 90}, {"time": 2067, "pitch": 37, "duration": 2, "velocity": 89}, {"time": 2067, "pitch": 56, "duration": 6, "velocity": 87}, {"time": 2067, "pitch": 61, "duration": 8, "velocity": 86}, {"time": 2073, "pitch": 49, "duration": 34, "velocity": 85}, {"time": 2079, "pitch": 56, "duration": 9, "velocity": 91}, {"time": 2085, "pitch": 61, "duration": 8, "velocity": 92}, {"time": 2085, "pitch": 65, "duration": 9, "velocity": 92}, {"time": 2091, "pitch": 56, "duration": 15, "velocity": 81}, {"time": 2097, "pitch": 65, "duration": 5, "velocity": 86}, {"time": 2103, "pitch": 66, "duration": 4, "velocity": 89}, {"time": 2109, "pitch": 68, "duration": 5, "velocity": 90}, {"time": 2115, "pitch": 42, "duration": 45, "velocity": 87}, {"time": 2115, "pitch": 61, "duration": 8, "velocity": 83}, {"time": 2115, "pitch": 70, "duration": 14, "velocity": 89}, {"time": 2121, "pitch": 49, "duration": 20, "velocity": 79}, {"time": 2127, "pitch": 61, "duration": 3, "velocity": 87}, {"time": 2133, "pitch": 61, "duration": 14, "velocity": 89}, {"time": 2133, "pitch": 66, "duration": 14, "velocity": 88}, {"time": 2145, "pitch": 49, "duration": 14, "velocity": 73}, {"time": 2151, "pitch": 61, "duration": 2, "velocity": 82}, {"time": 2151, "pitch": 66, "duration": 4, "velocity": 81}, {"time": 2151, "pitch": 70, "duration": 3, "velocity": 87}, {"time": 2157, "pitch": 61, "duration": 2, "velocity": 59}, {"time": 2163, "pitch": 42, "duration": 45, "velocity": 86}, {"time": 2163, "pitch": 61, "duration": 8, "velocity": 77}, {"time": 2163, "pitch": 66, "duration": 14, "velocity": 79}, {"time": 2169, "pitch": 49, "duration": 33, "velocity": 70}, {"time": 2175, "pitch": 61, "duration": 4, "velocity": 75}, {"time": 2181, "pitch": 61, "duration": 10, "velocity": 85}, {"time": 2181, "pitch": 65, "duration": 10, "velocity": 79}, {"time": 2193, "pitch": 61, "duration": 7, "velocity": 82}, {"time": 2193, "pitch": 66, "duration": 7, "velocity": 83}, {"time": 2211, "pitch": 42, "duration": 45, "velocity": 86}, {"time": 2211, "pitch": 61, "duration": 7, "velocity": 81}, {"time": 2211, "pitch": 66, "duration": 13, "velocity": 79}, {"time": 2211, "pitch": 70, "duration": 11, "velocity": 84}, {"time": 2217, "pitch": 49, "duration": 37, "velocity": 74}, {"time": 2223, "pitch": 61, "duration": 3, "velocity": 86}, {"time": 2229, "pitch": 61, "duration": 9, "velocity": 87}, {"time": 2229, "pitch": 65, "duration": 10, "velocity": 85}, {"time": 2241, "pitch": 61, "duration": 16, "velocity": 86}, {"time": 2241, "pitch": 66, "duration": 15, "velocity": 85}, {"time": 2259, "pitch": 42, "duration": 44, "velocity": 86}, {"time": 2259, "pitch": 61, "duration": 9, "velocity": 82}, {"time": 2259, "pitch": 66, "duration": 14, "velocity": 82}, {"time": 2265, "pitch": 49, "duration": 37, "velocity": 75}, {"time": 2271, "pitch": 61, "duration": 3, "velocity": 85}, {"time": 2277, "pitch": 61, "duration": 10, "velocity": 86}, {"time": 2277, "pitch": 66, "duration": 10, "velocity": 86}, {"time": 2277, "pitch": 70, "duration": 10, "velocity": 87}, {"time": 2307, "pitch": 42, "duration": 44, "velocity": 86}, {"time": 2313, "pitch": 54, "duration": 6, "velocity": 85}, {"time": 2313, "pitch": 58, "duration": 6, "velocity": 85}, {"time": 2313, "pitch": 61, "duration": 7, "velocity": 86}, {"time": 2325, "pitch": 54, "duration": 13, "velocity": 81}, {"time": 2325, "pitch": 58, "duration": 13, "velocity": 86}, {"time": 2325, "pitch": 61, "duration": 13, "velocity": 83}, {"time": 2337, "pitch": 49, "duration": 14, "velocity": 78}, {"time": 2343, "pitch": 54, "duration": 2, "velocity": 80}, {"time": 2343, "pitch": 58, "duration": 16, "velocity": 85}, {"time": 2343, "pitch": 61, "duration": 16, "velocity": 86}, {"time": 2349, "pitch": 54, "duration": 10, "velocity": 70}, {"time": 2355, "pitch": 42, "duration": 44, "velocity": 87}, {"time": 2361, "pitch": 54, "duration": 4, "velocity": 79}, {"time": 2361, "pitch": 58, "duration": 4, "velocity": 80}, {"time": 2361, "pitch": 61, "duration": 3, "velocity": 80}, {"time": 2373, "pitch": 54, "duration": 10, "velocity": 79}, {"time": 2373, "pitch": 58, "duration": 10, "velocity": 78}, {"time": 2373, "pitch": 61, "duration": 10, "velocity": 82}, {"time": 2385, "pitch": 49, "duration": 12, "velocity": 73}, {"time": 2391, "pitch": 58, "duration": 7, "velocity": 86}, {"time": 2391, "pitch": 61, "duration": 10, "velocity": 85}, {"time": 2397, "pitch": 54, "duration": 4, "velocity": 88}, {"time": 2403, "pitch": 47, "duration": 29, "velocity": 86}, {"time": 2409, "pitch": 54, "duration": 8, "velocity": 85}, {"time": 2409, "pitch": 59, "duration": 7, "velocity": 83}, {"time": 2421, "pitch": 54, "duration": 7, "velocity": 81}, {"time": 2421, "pitch": 59, "duration": 7, "velocity": 82}, {"time": 2421, "pitch": 63, "duration": 13, "velocity": 86}, {"time": 2433, "pitch": 54, "duration": 3, "velocity": 80}, {"time": 2439, "pitch": 54, "duration": 14, "velocity": 86}, {"time": 2439, "pitch": 59, "duration": 13, "velocity": 86}, {"time": 2439, "pitch": 63, "duration": 1, "velocity": 77}, {"time": 2445, "pitch": 47, "duration": 5, "velocity": 86}, {"time": 2451, "pitch": 42, "duration": 43, "velocity": 87}, {"time": 2457, "pitch": 54, "duration": 7, "velocity": 88}, {"time": 2463, "pitch": 49, "duration": 15, "velocity": 85}, {"time": 2469, "pitch": 54, "duration": 10, "velocity": 83}, {"time": 2469, "pitch": 58, "duration": 9, "velocity": 80}, {"time": 2469, "pitch": 61, "duration": 9, "velocity": 86}, {"time": 2481, "pitch": 49, "duration": 11, "velocity": 77}, {"time": 2487, "pitch": 54, "duration": 4, "velocity": 87}, {"time": 2487, "pitch": 58, "duration": 10, "velocity": 86}, {"time": 2493, "pitch": 54, "duration": 6, "velocity": 81}, {"time": 2499, "pitch": 47, "duration": 27, "velocity": 86}, {"time": 2505, "pitch": 54, "duration": 5, "velocity": 83}, {"time": 2505, "pitch": 59, "duration": 6, "velocity": 82}, {"time": 2505, "pitch": 63, "duration": 5, "velocity": 86}, {"time": 2511, "pitch": 54, "duration": 1, "velocity": 66}, {"time": 2517, "pitch": 54, "duration": 13, "velocity": 87}, {"time": 2517, "pitch": 59, "duration": 12, "velocity": 87}, {"time": 2529, "pitch": 47, "duration": 7, "velocity": 74}, {"time": 2535, "pitch": 54, "duration": 2, "velocity": 89}, {"time": 2535, "pitch": 59, "duration": 11, "velocity": 91}, {"time": 2535, "pitch": 63, "duration": 9, "velocity": 92}, {"time": 2541, "pitch": 54, "duration": 6, "velocity": 69}, {"time": 2547, "pitch": 47, "duration": 42, "velocity": 95}, {"time": 2553, "pitch": 59, "duration": 7, "velocity": 82}, {"time": 2553, "pitch": 62, "duration": 7, "velocity": 80}, {"time": 2559, "pitch": 54, "duration": 4, "velocity": 82}, {"time": 2565, "pitch": 54, "duration": 10, "velocity": 87}, {"time": 2565, "pitch": 59, "duration": 14, "velocity": 87}, {"time": 2577, "pitch": 54, "duration": 1, "velocity": 63}, {"time": 2583, "pitch": 54, "duration": 3, "velocity": 86}, {"time": 2583, "pitch": 59, "duration": 7, "velocity": 89}, {"time": 2583, "pitch": 62, "duration": 8, "velocity": 87}, {"time": 2589, "pitch": 54, "duration": 2, "velocity": 67}, {"time": 2595, "pitch": 44, "duration": 41, "velocity": 86}, {"time": 2595, "pitch": 56, "duration": 8, "velocity": 81}, {"time": 2595, "pitch": 59, "duration": 8, "velocity": 85}, {"time": 2601, "pitch": 51, "duration": 21, "velocity": 79}, {"time": 2607, "pitch": 56, "duration": 3, "velocity": 81}, {"time": 2613, "pitch": 56, "duration": 15, "velocity": 86}, {"time": 2613, "pitch": 59, "duration": 15, "velocity": 87}, {"time": 2613, "pitch": 63, "duration": 14, "velocity": 87}, {"time": 2625, "pitch": 51, "duration": 11, "velocity": 73}, {"time": 2631, "pitch": 56, "duration": 4, "velocity": 87}, {"time": 2631, "pitch": 59, "duration": 11, "velocity": 89}, {"time": 2637, "pitch": 56, "duration": 9, "velocity": 85}, {"time": 2643, "pitch": 49, "duration": 9, "velocity": 86}, {"time": 2649, "pitch": 56, "duration": 3, "velocity": 88}, {"time": 2649, "pitch": 61, "duration": 3, "velocity": 87}, {"time": 2655, "pitch": 49, "duration": 14, "velocity": 79}, {"time": 2661, "pitch": 56, "duration": 14, "velocity": 86}, {"time": 2661, "pitch": 61, "duration": 13, "velocity": 88}, {"time": 2673, "pitch": 49, "duration": 7, "velocity": 81}, {"time": 2679, "pitch": 56, "duration": 3, "velocity": 86}, {"time": 2679, "pitch": 61, "duration": 9, "velocity": 87}, {"time": 2679, "pitch": 65, "duration": 10, "velocity": 85}, {"time": 2685, "pitch": 56, "duration": 4, "velocity": 79}, {"time": 2691, "pitch": 42, "duration": 44, "velocity": 86}, {"time": 2697, "pitch": 54, "duration": 6, "velocity": 85}, {"time": 2697, "pitch": 58, "duration": 6, "velocity": 85}, {"time": 2697, "pitch": 61, "duration": 7, "velocity": 86}, {"time": 2709, "pitch": 54, "duration": 13, "velocity": 81}, {"time": 2709, "pitch": 58, "duration": 13, "velocity": 86}, {"time": 2709, "pitch": 61, "duration": 13, "velocity": 83}, {"time": 2721, "pitch": 49, "duration": 14, "velocity": 78}, {"time": 2727, "pitch": 54, "duration": 2, "velocity": 80}, {"time": 2727, "pitch": 58, "duration": 16, "velocity": 85}, {"time": 2727, "pitch": 61, "duration": 16, "velocity": 86}, {"time": 2733, "pitch": 54, "duration": 10, "velocity": 70}, {"time": 2739, "pitch": 42, "duration": 44, "velocity": 87}, {"time": 2745, "pitch": 54, "duration": 4, "velocity": 79}, {"time": 2745, "pitch": 58, "duration": 4, "velocity": 80}, {"time": 2745, "pitch": 61, "duration": 3, "velocity": 80}, {"time": 2757, "pitch": 54, "duration": 10, "velocity": 79}, {"time": 2757, "pitch": 58, "duration": 10, "velocity": 78}, {"time": 2757, "pitch": 61, "duration": 10, "velocity": 82}, {"time": 2769, "pitch": 49, "duration": 12, "velocity": 73}, {"time": 2775, "pitch": 58, "duration": 7, "velocity": 86}, {"time": 2775, "pitch": 61, "duration": 10, "velocity": 85}, {"time": 2781, "pitch": 54, "duration": 4, "velocity": 88}, {"time": 2787, "pitch": 47, "duration": 29, "velocity": 86}, {"time": 2793, "pitch": 54, "duration": 8, "velocity": 85}, {"time": 2793, "pitch": 59, "duration": 7, "velocity": 83}, {"time": 2805, "pitch": 54, "duration": 7, "velocity": 81}, {"time": 2805, "pitch": 59, "duration": 7, "velocity": 82}, {"time": 2805, "pitch": 63, "duration": 13, "velocity": 86}, {"time": 2817, "pitch": 54, "duration": 3, "velocity": 80}, {"time": 2823, "pitch": 54, "duration": 14, "velocity": 86}, {"time": 2823, "pitch": 59, "duration": 13, "velocity": 86}, {"time": 2823, "pitch": 63, "duration": 1, "velocity": 77}, {"time": 2829, "pitch": 47, "duration": 5, "velocity": 86}, {"time": 2835, "pitch": 42, "duration": 43, "velocity": 87}, {"time": 2841, "pitch": 54, "duration": 7, "velocity": 88}, {"time": 2847, "pitch": 49, "duration": 15, "velocity": 85}, {"time": 2853, "pitch": 54, "duration": 10, "velocity": 83}, {"time": 2853, "pitch": 58, "duration": 9, "velocity": 80}, {"time": 2853, "pitch": 61, "duration": 9, "velocity": 86}, {"time": 2865, "pitch": 49, "duration": 11, "velocity": 77}, {"time": 2871, "pitch": 54, "duration": 4, "velocity": 87}, {"time": 2871, "pitch": 58, "duration": 10, "velocity": 86}, {"time": 2877, "pitch": 54, "duration": 6, "velocity": 81}, {"time": 2883, "pitch": 47, "duration": 27, "velocity": 86}, {"time": 2889, "pitch": 54, "duration": 5, "velocity": 83}, {"time": 2889, "pitch": 59, "duration": 6, "velocity": 82}, {"time": 2889, "pitch": 63, "duration": 5, "velocity": 86}, {"time": 2895, "pitch": 54, "duration": 1, "velocity": 66}, {"time": 2901, "pitch": 54, "duration": 13, "velocity": 87}, {"time": 2901, "pitch": 59, "duration": 12, "velocity": 87}, {"time": 2913, "pitch": 47, "duration": 7, "velocity": 74}, {"time": 2919, "pitch": 54, "duration": 2, "velocity": 89}, {"time": 2919, "pitch": 59, "duration": 11, "velocity": 91}, {"time": 2919, "pitch": 63, "duration": 9, "velocity": 92}, {"time": 2925, "pitch": 54, "duration": 6, "velocity": 69}, {"time": 2931, "pitch": 47, "duration": 42, "velocity": 95}, {"time": 2937, "pitch": 59, "duration": 7, "velocity": 82}, {"time": 2937, "pitch": 62, "duration": 7, "velocity": 80}, {"time": 2943, "pitch": 54, "duration": 4, "velocity": 82}, {"time": 2949, "pitch": 54, "duration": 10, "velocity": 87}, {"time": 2949, "pitch": 59, "duration": 14, "velocity": 87}, {"time": 2961, "pitch": 54, "duration": 1, "velocity": 63}, {"time": 2967, "pitch": 54, "duration": 3, "velocity": 86}, {"time": 2967, "pitch": 59, "duration": 7, "velocity": 89}, {"time": 2967, "pitch": 62, "duration": 8, "velocity": 87}, {"time": 2973, "pitch": 54, "duration": 2, "velocity": 67}, {"time": 2979, "pitch": 49, "duration": 20, "velocity": 87}, {"time": 2979, "pitch": 56, "duration": 10, "velocity": 78}, {"time": 2979, "pitch": 61, "duration": 10, "velocity": 85}, {"time": 2997, "pitch": 56, "duration": 8, "velocity": 82}, {"time": 2997, "pitch": 61, "duration": 7, "velocity": 87}, {"time": 2997, "pitch": 65, "duration": 7, "velocity": 81}, {"time": 3009, "pitch": 56, "duration": 6, "velocity": 87}, {"time": 3009, "pitch": 61, "duration": 9, "velocity": 87}, {"time": 3009, "pitch": 65, "duration": 16, "velocity": 85}, {"time": 3021, "pitch": 56, "duration": 6, "velocity": 83}, {"time": 3021, "pitch": 61, "duration": 5, "velocity": 57}, {"time": 3027, "pitch": 42, "duration": 44, "velocity": 86}, {"time": 3033, "pitch": 54, "duration": 7, "velocity": 86}, {"time": 3033, "pitch": 58, "duration": 6, "velocity": 86}, {"time": 3033, "pitch": 61, "duration": 7, "velocity": 88}, {"time": 3039, "pitch": 49, "duration": 15, "velocity": 80}, {"time": 3045, "pitch": 54, "duration": 12, "velocity": 82}, {"time": 3045, "pitch": 58, "duration": 12, "velocity": 80}, {"time": 3045, "pitch": 61, "duration": 12, "velocity": 86}, {"time": 3057, "pitch": 49, "duration": 12, "velocity": 73}, {"time": 3063, "pitch": 54, "duration": 1, "velocity": 80}, {"time": 3063, "pitch": 58, "duration": 14, "velocity": 89}, {"time": 3063, "pitch": 61, "duration": 15, "velocity": 87}, {"time": 3069, "pitch": 54, "duration": 9, "velocity": 84}, {"time": 3075, "pitch": 42, "duration": 48, "velocity": 86}, {"time": 3081, "pitch": 54, "duration": 4, "velocity": 86}, {"time": 3081, "pitch": 58, "duration": 4, "velocity": 86}, {"time": 3081, "pitch": 61, "duration": 5, "velocity": 87}, {"time": 3087, "pitch": 49, "duration": 13, "velocity": 77}, {"time": 3093, "pitch": 54, "duration": 8, "velocity": 90}, {"time": 3093, "pitch": 58, "duration": 9, "velocity": 88}, {"time": 3093, "pitch": 61, "duration": 10, "velocity": 88}, {"time": 3105, "pitch": 49, "duration": 9, "velocity": 78}, {"time": 3111, "pitch": 54, "duration": 7, "velocity": 87}, {"time": 3111, "pitch": 61, "duration": 7, "velocity": 84}, {"time": 3117, "pitch": 49, "duration": 7, "velocity": 81}, {"time": 3123, "pitch": 35, "duration": 40, "velocity": 86}, {"time": 3123, "pitch": 59, "duration": 7, "velocity": 86}, {"time": 3123, "pitch": 66, "duration": 13, "velocity": 84}, {"time": 3129, "pitch": 42, "duration": 15, "velocity": 74}, {"time": 3135, "pitch": 59, "duration": 3, "velocity": 89}, {"time": 3141, "pitch": 59, "duration": 8, "velocity": 88}, {"time": 3141, "pitch": 62, "duration": 7, "velocity": 87}, {"time": 3147, "pitch": 42, "duration": 8, "velocity": 75}, {"time": 3153, "pitch": 59, "duration": 7, "velocity": 87}, {"time": 3153, "pitch": 62, "duration": 8, "velocity": 87}, {"time": 3153, "pitch": 66, "duration": 9, "velocity": 86}, {"time": 3159, "pitch": 42, "duration": 3, "velocity": 70}, {"time": 3165, "pitch": 59, "duration": 1, "velocity": 77}, {"time": 3171, "pitch": 37, "duration": 33, "velocity": 87}, {"time": 3171, "pitch": 61, "duration": 6, "velocity": 85}, {"time": 3171, "pitch": 65, "duration": 6, "velocity": 79}, {"time": 3177, "pitch": 44, "duration": 26, "velocity": 75}, {"time": 3183, "pitch": 61, "duration": 2, "velocity": 75}, {"time": 3213, "pitch": 37, "duration": 3, "velocity": 88}, {"time": 3219, "pitch": 42, "duration": 47, "velocity": 87}, {"time": 3219, "pitch": 61, "duration": 8, "velocity": 81}, {"time": 3219, "pitch": 66, "duration": 9, "velocity": 82}, {"time": 3225, "pitch": 49, "duration": 37, "velocity": 73}, {"time": 3231, "pitch": 61, "duration": 3, "velocity": 86}, {"time": 3237, "pitch": 61, "duration": 8, "velocity": 89}, {"time": 3237, "pitch": 70, "duration": 9, "velocity": 85}, {"time": 3249, "pitch": 61, "duration": 5, "velocity": 88}, {"time": 3249, "pitch": 66, "duration": 7, "velocity": 86}, {"time": 3261, "pitch": 61, "duration": 3, "velocity": 82}, {"time": 3267, "pitch": 42, "duration": 34, "velocity": 87}, {"time": 3267, "pitch": 61, "duration": 7, "velocity": 83}, {"time": 3267, "pitch": 68, "duration": 13, "velocity": 80}, {"time": 3273, "pitch": 49, "duration": 14, "velocity": 78}, {"time": 3279, "pitch": 61, "duration": 3, "velocity": 88}, {"time": 3285, "pitch": 61, "duration": 8, "velocity": 87}, {"time": 3285, "pitch": 66, "duration": 8, "velocity": 86}, {"time": 3285, "pitch": 70, "duration": 8, "velocity": 87}, {"time": 3291, "pitch": 49, "duration": 9, "velocity": 79}, {"time": 3297, "pitch": 61, "duration": 5, "velocity": 90}, {"time": 3297, "pitch": 66, "duration": 3, "velocity": 86}, {"time": 3303, "pitch": 42, "duration": 3, "velocity": 82}, {"time": 3315, "pitch": 35, "duration": 2, "velocity": 86}, {"time": 3315, "pitch": 59, "duration": 11, "velocity": 85}, {"time": 3315, "pitch": 62, "duration": 11, "velocity": 85}, {"time": 3315, "pitch": 66, "duration": 11, "velocity": 86}, {"time": 3321, "pitch": 47, "duration": 27, "velocity": 83}, {"time": 3327, "pitch": 54, "duration": 10, "velocity": 82}, {"time": 3333, "pitch": 59, "duration": 8, "velocity": 87}, {"time": 3333, "pitch": 66, "duration": 7, "velocity": 87}, {"time": 3339, "pitch": 54, "duration": 8, "velocity": 76}, {"time": 3345, "pitch": 59, "duration": 4, "velocity": 83}, {"time": 3345, "pitch": 62, "duration": 4, "velocity": 87}, {"time": 3345, "pitch": 66, "duration": 6, "velocity": 86}, {"time": 3357, "pitch": 47, "duration": 2, "velocity": 87}, {"time": 3363, "pitch": 37, "duration": 2, "velocity": 87}, {"time": 3363, "pitch": 61, "duration": 12, "velocity": 85}, {"time": 3363, "pitch": 65, "duration": 13, "velocity": 82}, {"time": 3369, "pitch": 49, "duration": 32, "velocity": 74}, {"time": 3375, "pitch": 56, "duration": 10, "velocity": 79}, {"time": 3381, "pitch": 61, "duration": 9, "velocity": 83}, {"time": 3381, "pitch": 65, "duration": 9, "velocity": 86}, {"time": 3381, "pitch": 68, "duration": 9, "velocity": 85}, {"time": 3393, "pitch": 61, "duration": 7, "velocity": 87}, {"time": 3393, "pitch": 65, "duration": 7, "velocity": 88}, {"time": 3393, "pitch": 68, "duration": 7, "velocity": 87}, {"time": 3399, "pitch": 56, "duration": 2, "velocity": 71}, {"time": 3411, "pitch": 47, "duration": 37, "velocity": 87}, {"time": 3411, "pitch": 59, "duration": 7, "velocity": 85}, {"time": 3411, "pitch": 66, "duration": 13, "velocity": 81}, {"time": 3417, "pitch": 54, "duration": 26, "velocity": 77}, {"time": 3423, "pitch": 59, "duration": 3, "velocity": 86}, {"time": 3429, "pitch": 59, "duration": 7, "velocity": 87}, {"time": 3429, "pitch": 66, "duration": 7, "velocity": 86}, {"time": 3441, "pitch": 59, "duration": 5, "velocity": 88}, {"time": 3441, "pitch": 63, "duration": 5, "velocity": 91}, {"time": 3447, "pitch": 54, "duration": 3, "velocity": 86}, {"time": 3453, "pitch": 47, "duration": 2, "velocity": 86}, {"time": 3459, "pitch": 37, "duration": 2, "velocity": 87}, {"time": 3459, "pitch": 61, "duration": 13, "velocity": 86}, {"time": 3459, "pitch": 65, "duration": 14, "velocity": 80}, {"time": 3465, "pitch": 49, "duration": 38, "velocity": 81}, {"time": 3471, "pitch": 56, "duration": 9, "velocity": 87}, {"time": 3477, "pitch": 61, "duration": 6, "velocity": 88}, {"time": 3477, "pitch": 65, "duration": 6, "velocity": 84}, {"time": 3477, "pitch": 68, "duration": 4, "velocity": 85}, {"time": 3483, "pitch": 56, "duration": 19, "velocity": 76}, {"time": 3489, "pitch": 61, "duration": 2, "velocity": 89}, {"time": 3489, "pitch": 73, "duration": 3, "velocity": 89}, {"time": 3507, "pitch": 49, "duration": 31, "velocity": 90}, {"time": 3507, "pitch": 61, "duration": 7, "velocity": 81}, {"time": 3507, "pitch": 65, "duration": 8, "velocity": 74}, {"time": 3507, "pitch": 68, "duration": 8, "velocity": 80}, {"time": 3513, "pitch": 56, "duration": 14, "velocity": 72}, {"time": 3519, "pitch": 61, "duration": 3, "velocity": 86}, {"time": 3525, "pitch": 61, "duration": 8, "velocity": 92}, {"time": 3525, "pitch": 65, "duration": 9, "velocity": 89}, {"time": 3525, "pitch": 68, "duration": 11, "velocity": 90}, {"time": 3531, "pitch": 56, "duration": 6, "velocity": 82}, {"time": 3537, "pitch": 61, "duration": 2, "velocity": 93}, {"time": 3543, "pitch": 61, "duration": 3, "velocity": 93}, {"time": 3543, "pitch": 65, "duration": 5, "velocity": 90}, {"time": 3549, "pitch": 61, "duration": 4, "velocity": 86}, {"time": 3555, "pitch": 42, "duration": 35, "velocity": 87}, {"time": 3555, "pitch": 61, "duration": 8, "velocity": 86}, {"time": 3555, "pitch": 66, "duration": 10, "velocity": 86}, {"time": 3561, "pitch": 49, "duration": 15, "velocity": 82}, {"time": 3567, "pitch": 61, "duration": 2, "velocity": 86}, {"time": 3573, "pitch": 61, "duration": 8, "velocity": 91}, {"time": 3573, "pitch": 70, "duration": 9, "velocity": 90}, {"time": 3579, "pitch": 49, "duration": 9, "velocity": 75}, {"time": 3585, "pitch": 61, "duration": 8, "velocity": 93}, {"time": 3585, "pitch": 66, "duration": 9, "velocity": 88}, {"time": 3597, "pitch": 61, "duration": 3, "velocity": 90}, {"time": 3603, "pitch": 49, "duration": 24, "velocity": 91}, {"time": 3603, "pitch": 61, "duration": 6, "velocity": 86}, {"time": 3603, "pitch": 68, "duration": 7, "velocity": 90}, {"time": 3609, "pitch": 56, "duration": 15, "velocity": 86}, {"time": 3615, "pitch": 61, "duration": 3, "velocity": 92}, {"time": 3621, "pitch": 61, "duration": 13, "velocity": 90}, {"time": 3621, "pitch": 65, "duration": 14, "velocity": 86}, {"time": 3633, "pitch": 49, "duration": 14, "velocity": 86}, {"time": 3633, "pitch": 56, "duration": 2, "velocity": 77}, {"time": 3639, "pitch": 61, "duration": 7, "velocity": 95}, {"time": 3639, "pitch": 65, "duration": 7, "velocity": 93}, {"time": 3645, "pitch": 56, "duration": 2, "velocity": 77}, {"time": 3651, "pitch": 39, "duration": 38, "velocity": 87}, {"time": 3651, "pitch": 63, "duration": 5, "velocity": 89}, {"time": 3651, "pitch": 66, "duration": 7, "velocity": 87}, {"time": 3657, "pitch": 46, "duration": 15, "velocity": 74}, {"time": 3663, "pitch": 63, "duration": 2, "velocity": 93}, {"time": 3669, "pitch": 63, "duration": 3, "velocity": 103}, {"time": 3669, "pitch": 70, "duration": 6, "velocity": 93}, {"time": 3675, "pitch": 46, "duration": 10, "velocity": 75}, {"time": 3681, "pitch": 63, "duration": 6, "velocity": 92}, {"time": 3681, "pitch": 66, "duration": 8, "velocity": 88}, {"time": 3687, "pitch": 46, "duration": 4, "velocity": 77}, {"time": 3693, "pitch": 63, "duration": 2, "velocity": 88}, {"time": 3699, "pitch": 46, "duration": 38, "velocity": 87}, {"time": 3699, "pitch": 65, "duration": 12, "velocity": 74}, {"time": 3705, "pitch": 53, "duration": 15, "velocity": 93}, {"time": 3711, "pitch": 58, "duration": 4, "velocity": 93}, {"time": 3717, "pitch": 58, "duration": 14, "velocity": 87}, {"time": 3717, "pitch": 61, "duration": 15, "velocity": 89}, {"time": 3717, "pitch": 65, "duration": 17, "velocity": 86}, {"time": 3729, "pitch": 53, "duration": 6, "velocity": 86}, {"time": 3735, "pitch": 58, "duration": 7, "velocity": 100}, {"time": 3741, "pitch": 61, "duration": 5, "velocity": 90}, {"time": 3747, "pitch": 35, "duration": 2, "velocity": 86}, {"time": 3747, "pitch": 59, "duration": 11, "velocity": 85}, {"time": 3747, "pitch": 63, "duration": 11, "velocity": 89}, {"time": 3753, "pitch": 47, "duration": 27, "velocity": 81}, {"time": 3759, "pitch": 54, "duration": 20, "velocity": 80}, {"time": 3765, "pitch": 59, "duration": 5, "velocity": 88}, {"time": 3765, "pitch": 66, "duration": 3, "velocity": 85}, {"time": 3777, "pitch": 59, "duration": 7, "velocity": 87}, {"time": 3777, "pitch": 63, "duration": 9, "velocity": 92}, {"time": 3783, "pitch": 54, "duration": 11, "velocity": 86}, {"time": 3789, "pitch": 59, "duration": 3, "velocity": 93}, {"time": 3795, "pitch": 46, "duration": 36, "velocity": 87}, {"time": 3795, "pitch": 58, "duration": 2, "velocity": 89}, {"time": 3795, "pitch": 61, "duration": 13, "velocity": 89}, {"time": 3801, "pitch": 53, "duration": 15, "velocity": 86}, {"time": 3807, "pitch": 58, "duration": 4, "velocity": 80}, {"time": 3813, "pitch": 58, "duration": 14, "velocity": 90}, {"time": 3813, "pitch": 61, "duration": 14, "velocity": 89}, {"time": 3813, "pitch": 65, "duration": 15, "velocity": 87}, {"time": 3825, "pitch": 53, "duration": 5, "velocity": 85}, {"time": 3831, "pitch": 58, "duration": 2, "velocity": 87}, {"time": 3831, "pitch": 61, "duration": 7, "velocity": 88}, {"time": 3831, "pitch": 65, "duration": 7, "velocity": 87}, {"time": 3837, "pitch": 58, "duration": 3, "velocity": 89}, {"time": 3843, "pitch": 44, "duration": 43, "velocity": 87}, {"time": 3843, "pitch": 56, "duration": 7, "velocity": 87}, {"time": 3843, "pitch": 59, "duration": 13, "velocity": 85}, {"time": 3849, "pitch": 51, "duration": 16, "velocity": 79}, {"time": 3855, "pitch": 54, "duration": 4, "velocity": 86}, {"time": 3861, "pitch": 54, "duration": 14, "velocity": 86}, {"time": 3861, "pitch": 59, "duration": 14, "velocity": 88}, {"time": 3861, "pitch": 63, "duration": 13, "velocity": 88}, {"time": 3873, "pitch": 51, "duration": 8, "velocity": 87}, {"time": 3879, "pitch": 56, "duration": 8, "velocity": 88}, {"time": 3879, "pitch": 59, "duration": 10, "velocity": 91}, {"time": 3885, "pitch": 51, "duration": 2, "velocity": 90}, {"time": 3891, "pitch": 37, "duration": 2, "velocity": 89}, {"time": 3891, "pitch": 56, "duration": 6, "velocity": 87}, {"time": 3891, "pitch": 61, "duration": 8, "velocity": 86}, {"time": 3897, "pitch": 49, "duration": 34, "velocity": 85}, {"time": 3903, "pitch": 56, "duration": 9, "velocity": 91}, {"time": 3909, "pitch": 61, "duration": 8, "velocity": 92}, {"time": 3909, "pitch": 65, "duration": 9, "velocity": 92}, {"time": 3915, "pitch": 56, "duration": 15, "velocity": 81}, {"time": 3921, "pitch": 65, "duration": 5, "velocity": 86}, {"time": 3927, "pitch": 66, "duration": 4, "velocity": 89}, {"time": 3933, "pitch": 68, "duration": 5, "velocity": 90}, {"time": 3939, "pitch": 42, "duration": 35, "velocity": 87}, {"time": 3939, "pitch": 61, "duration": 8, "velocity": 86}, {"time": 3939, "pitch": 66, "duration": 10, "velocity": 86}, {"time": 3945, "pitch": 49, "duration": 15, "velocity": 82}, {"time": 3951, "pitch": 61, "duration": 2, "velocity": 86}, {"time": 3957, "pitch": 61, "duration": 8, "velocity": 91}, {"time": 3957, "pitch": 70, "duration": 9, "velocity": 90}, {"time": 3963, "pitch": 49, "duration": 9, "velocity": 75}, {"time": 3969, "pitch": 61, "duration": 8, "velocity": 93}, {"time": 3969, "pitch": 66, "duration": 9, "velocity": 88}, {"time": 3981, "pitch": 61, "duration": 3, "velocity": 90}, {"time": 3987, "pitch": 49, "duration": 24, "velocity": 91}, {"time": 3987, "pitch": 61, "duration": 6, "velocity": 86}, {"time": 3987, "pitch": 68, "duration": 7, "velocity": 90}, {"time": 3993, "pitch": 56, "duration": 15, "velocity": 86}, {"time": 3999, "pitch": 61, "duration": 3, "velocity": 92}, {"time": 4005, "pitch": 61, "duration": 13, "velocity": 90}, {"time": 4005, "pitch": 65, "duration": 14, "velocity": 86}, {"time": 4017, "pitch": 49, "duration": 14, "velocity": 86}, {"time": 4017, "pitch": 56, "duration": 2, "velocity": 77}, {"time": 4023, "pitch": 61, "duration": 7, "velocity": 95}, {"time": 4023, "pitch": 65, "duration": 7, "velocity": 93}, {"time": 4029, "pitch": 56, "duration": 2, "velocity": 77}, {"time": 4035, "pitch": 39, "duration": 38, "velocity": 87}, {"time": 4035, "pitch": 63, "duration": 5, "velocity": 89}, {"time": 4035, "pitch": 66, "duration": 7, "velocity": 87}, {"time": 4041, "pitch": 46, "duration": 15, "velocity": 74}, {"time": 4047, "pitch": 63, "duration": 2, "velocity": 93}, {"time": 4053, "pitch": 63, "duration": 3, "velocity": 103}, {"time": 4053, "pitch": 70, "duration": 6, "velocity": 93}, {"time": 4059, "pitch": 46, "duration": 10, "velocity": 75}, {"time": 4065, "pitch": 63, "duration": 6, "velocity": 92}, {"time": 4065, "pitch": 66, "duration": 8, "velocity": 88}, {"time": 4071, "pitch": 46, "duration": 4, "velocity": 77}, {"time": 4077, "pitch": 63, "duration": 2, "velocity": 88}, {"time": 4083, "pitch": 46, "duration": 38, "velocity": 87}, {"time": 4083, "pitch": 65, "duration": 12, "velocity": 74}, {"time": 4089, "pitch": 53, "duration": 15, "velocity": 93}, {"time": 4095, "pitch": 58, "duration": 4, "velocity": 93}, {"time": 4101, "pitch": 58, "duration": 14, "velocity": 87}, {"time": 4101, "pitch": 61, "duration": 15, "velocity": 89}, {"time": 4101, "pitch": 65, "duration": 17, "velocity": 86}, {"time": 4113, "pitch": 53, "duration": 6, "velocity": 86}, {"time": 4119, "pitch": 58, "duration": 7, "velocity": 100}, {"time": 4125, "pitch": 61, "duration": 5, "velocity": 90}, {"time": 4131, "pitch": 35, "duration": 2, "velocity": 86}, {"time": 4131, "pitch": 59, "duration": 11, "velocity": 85}, {"time": 4131, "pitch": 63, "duration": 11, "velocity": 89}, {"time": 4137, "pitch": 47, "duration": 27, "velocity": 81}, {"time": 4143, "pitch": 54, "duration": 20, "velocity": 80}, {"time": 4149, "pitch": 59, "duration": 5, "velocity": 88}, {"time": 4149, "pitch": 66, "duration": 3, "velocity": 85}, {"time": 4161, "pitch": 59, "duration": 7, "velocity": 87}, {"time": 4161, "pitch": 63, "duration": 9, "velocity": 92}, {"time": 4167, "pitch": 54, "duration": 11, "velocity": 86}, {"time": 4173, "pitch": 59, "duration": 3, "velocity": 93}, {"time": 4179, "pitch": 46, "duration": 36, "velocity": 87}, {"time": 4179, "pitch": 58, "duration": 2, "velocity": 89}, {"time": 4179, "pitch": 61, "duration": 13, "velocity": 89}, {"time": 4185, "pitch": 53, "duration": 15, "velocity": 86}, {"time": 4191, "pitch": 58, "duration": 4, "velocity": 80}, {"time": 4197, "pitch": 58, "duration": 14, "velocity": 90}, {"time": 4197, "pitch": 61, "duration": 14, "velocity": 89}, {"time": 4197, "pitch": 65, "duration": 15, "velocity": 87}, {"time": 4209, "pitch": 53, "duration": 5, "velocity": 85}, {"time": 4215, "pitch": 58, "duration": 2, "velocity": 87}, {"time": 4215, "pitch": 61, "duration": 7, "velocity": 88}, {"time": 4215, "pitch": 65, "duration": 7, "velocity": 87}, {"time": 4221, "pitch": 58, "duration": 3, "velocity": 89}, {"time": 4227, "pitch": 44, "duration": 43, "velocity": 87}, {"time": 4227, "pitch": 56, "duration": 7, "velocity": 87}, {"time": 4227, "pitch": 59, "duration": 13, "velocity": 85}, {"time": 4233, "pitch": 51, "duration": 16, "velocity": 79}, {"time": 4239, "pitch": 54, "duration": 4, "velocity": 86}, {"time": 4245, "pitch": 54, "duration": 14, "velocity": 86}, {"time": 4245, "pitch": 59, "duration": 14, "velocity": 88}, {"time": 4245, "pitch": 63, "duration": 13, "velocity": 88}, {"time": 4257, "pitch": 51, "duration": 8, "velocity": 87}, {"time": 4263, "pitch": 56, "duration": 8, "velocity": 88}, {"time": 4263, "pitch": 59, "duration": 10, "velocity": 91}, {"time": 4269, "pitch": 51, "duration": 2, "velocity": 90}, {"time": 4275, "pitch": 37, "duration": 2, "velocity": 89}, {"time": 4275, "pitch": 56, "duration": 6, "velocity": 87}, {"time": 4275, "pitch": 61, "duration": 8, "velocity": 86}, {"time": 4281, "pitch": 49, "duration": 34, "velocity": 85}, {"time": 4287, "pitch": 56, "duration": 9, "velocity": 91}, {"time": 4293, "pitch": 61, "duration": 8, "velocity": 92}, {"time": 4293, "pitch": 65, "duration": 9, "velocity": 92}, {"time": 4299, "pitch": 56, "duration": 15, "velocity": 81}, {"time": 4305, "pitch": 65, "duration": 5, "velocity": 86}, {"time": 4311, "pitch": 66, "duration": 4, "velocity": 89}, {"time": 4317, "pitch": 68, "duration": 5, "velocity": 90}, {"time": 4323, "pitch": 47, "duration": 34, "velocity": 91}, {"time": 4323, "pitch": 54, "duration": 3, "velocity": 86}, {"time": 4323, "pitch": 59, "duration": 8, "velocity": 86}, {"time": 4329, "pitch": 54, "duration": 8, "velocity": 81}, {"time": 4335, "pitch": 59, "duration": 4, "velocity": 79}, {"time": 4341, "pitch": 54, "duration": 8, "velocity": 86}, {"time": 4341, "pitch": 59, "duration": 7, "velocity": 87}, {"time": 4341, "pitch": 63, "duration": 7, "velocity": 89}, {"time": 4353, "pitch": 54, "duration": 7, "velocity": 85}, {"time": 4353, "pitch": 59, "duration": 8, "velocity": 86}, {"time": 4353, "pitch": 63, "duration": 8, "velocity": 87}, {"time": 4371, "pitch": 37, "duration": 32, "velocity": 91}, {"time": 4371, "pitch": 56, "duration": 6, "velocity": 79}, {"time": 4371, "pitch": 61, "duration": 7, "velocity": 85}, {"time": 4377, "pitch": 44, "duration": 13, "velocity": 72}, {"time": 4383, "pitch": 49, "duration": 2, "velocity": 72}, {"time": 4389, "pitch": 49, "duration": 5, "velocity": 86}, {"time": 4389, "pitch": 53, "duration": 7, "velocity": 81}, {"time": 4389, "pitch": 56, "duration": 4, "velocity": 84}, {"time": 4395, "pitch": 44, "duration": 7, "velocity": 79}, {"time": 4401, "pitch": 49, "duration": 6, "velocity": 95}, {"time": 4407, "pitch": 53, "duration": 11, "velocity": 91}, {"time": 4407, "pitch": 56, "duration": 12, "velocity": 93}, {"time": 4407, "pitch": 61, "duration": 12, "velocity": 88}, {"time": 4413, "pitch": 49, "duration": 6, "velocity": 84}, {"time": 4419, "pitch": 35, "duration": 11, "velocity": 87}, {"time": 4425, "pitch": 42, "duration": 5, "velocity": 74}, {"time": 4431, "pitch": 47, "duration": 7, "velocity": 88}, {"time": 4437, "pitch": 51, "duration": 2, "velocity": 91}, {"time": 4437, "pitch": 54, "duration": 3, "velocity": 88}, {"time": 4443, "pitch": 47, "duration": 12, "velocity": 86}, {"time": 4449, "pitch": 59, "duration": 7, "velocity": 88}, {"time": 4449, "pitch": 63, "duration": 7, "velocity": 95}, {"time": 4455, "pitch": 54, "duration": 2, "velocity": 79}, {"time": 4461, "pitch": 59, "duration": 3, "velocity": 86}, {"time": 4467, "pitch": 37, "duration": 2, "velocity": 87}, {"time": 4467, "pitch": 61, "duration": 11, "velocity": 82}, {"time": 4467, "pitch": 65, "duration": 11, "velocity": 85}, {"time": 4473, "pitch": 49, "duration": 35, "velocity": 86}, {"time": 4479, "pitch": 56, "duration": 29, "velocity": 81}, {"time": 4485, "pitch": 61, "duration": 44, "velocity": 87}, {"time": 4491, "pitch": 53, "duration": 17, "velocity": 73}, {"time": 4491, "pitch": 65, "duration": 35, "velocity": 78}, {"time": 4491, "pitch": 68, "duration": 37, "velocity": 84}, {"time": 4539, "pitch": 39, "duration": 38, "velocity": 86}, {"time": 4539, "pitch": 58, "duration": 10, "velocity": 83}, {"time": 4539, "pitch": 66, "duration": 17, "velocity": 81}, {"time": 4545, "pitch": 46, "duration": 28, "velocity": 74}, {"time": 4551, "pitch": 58, "duration": 16, "velocity": 88}, {"time": 4557, "pitch": 63, "duration": 10, "velocity": 92}, {"time": 4569, "pitch": 58, "duration": 3, "velocity": 75}, {"time": 4569, "pitch": 63, "duration": 15, "velocity": 91}, {"time": 4569, "pitch": 66, "duration": 15, "velocity": 85}, {"time": 4587, "pitch": 47, "duration": 33, "velocity": 90}, {"time": 4587, "pitch": 63, "duration": 9, "velocity": 87}, {"time": 4587, "pitch": 66, "duration": 10, "velocity": 84}, {"time": 4593, "pitch": 54, "duration": 25, "velocity": 80}, {"time": 4599, "pitch": 59, "duration": 3, "velocity": 86}, {"time": 4605, "pitch": 59, "duration": 9, "velocity": 88}, {"time": 4605, "pitch": 66, "duration": 9, "velocity": 86}, {"time": 4617, "pitch": 59, "duration": 11, "velocity": 83}, {"time": 4617, "pitch": 63, "duration": 12, "velocity": 88}, {"time": 4617, "pitch": 66, "duration": 13, "velocity": 85}, {"time": 4635, "pitch": 39, "duration": 32, "velocity": 87}, {"time": 4635, "pitch": 63, "duration": 14, "velocity": 87}, {"time": 4635, "pitch": 66, "duration": 16, "velocity": 86}, {"time": 4641, "pitch": 46, "duration": 25, "velocity": 67}, {"time": 4647, "pitch": 58, "duration": 14, "velocity": 85}, {"time": 4653, "pitch": 63, "duration": 8, "velocity": 87}, {"time": 4665, "pitch": 58, "duration": 7, "velocity": 86}, {"time": 4665, "pitch": 63, "duration": 12, "velocity": 91}, {"time": 4665, "pitch": 66, "duration": 11, "velocity": 84}, {"time": 4683, "pitch": 35, "duration": 3, "velocity": 84}, {"time": 4683, "pitch": 59, "duration": 15, "velocity": 81}, {"time": 4683, "pitch": 66, "duration": 18, "velocity": 81}, {"time": 4689, "pitch": 47, "duration": 28, "velocity": 82}, {"time": 4695, "pitch": 54, "duration": 20, "velocity": 80}, {"time": 4701, "pitch": 59, "duration": 10, "velocity": 92}, {"time": 4713, "pitch": 63, "duration": 15, "velocity": 86}, {"time": 4713, "pitch": 66, "duration": 18, "velocity": 84}, {"time": 4728, "pitch": 42, "duration": 36, "velocity": 86}, {"time": 4732, "pitch": 49, "duration": 31, "velocity": 70}, {"time": 4733, "pitch": 54, "duration": 25, "velocity": 76}, {"time": 4735, "pitch": 58, "duration": 26, "velocity": 79}, {"time": 4737, "pitch": 61, "duration": 25, "velocity": 73}, {"time": 4738, "pitch": 66, "duration": 24, "velocity": 73}], "annotations": [{"time": 51, "annotation": {"number": 64, "value": 127}, "group": "control_change"}, {"time": 97, "annotation": {"number": 64, "value": 0}, "group": "control_change"}, {"time": 99, "annotation": {"number": 64, "value": 127}, "group": "control_change"}, {"time": 143, "annotation": {"number": 64, "value": 0}, "group": "control_change"}, {"time": 151, "annotation": {"number": 64, "value": 127}, "group": "control_change"}, {"time": 151, "annotation": {"number": 64, "value": 0}, "group": "control_change"}, {"time": 152, "annotation": {"number": 64, "value": 127}, "group": "control_change"}, {"time": 192, "annotation": {"number": 64, "value": 0}, "group": "control_change"}, {"time": 196, "annotation": {"number": 64, "value": 127}, "group": "control_change"}, {"time": 240, "annotation": {"number": 64, "value": 0}, "group": "control_change"}, {"time": 244, "annotation": {"number": 64, "value": 127}, "group": "control_change"}, {"time": 245, "annotation": {"number": 64, "value": 0}, "group": "control_change"}, {"time": 245, "annotation": {"number": 64, "value": 127}, "group": "control_change"}, {"time": 289, "annotation": {"number": 64, "value": 0}, "group": "control_change"}, {"time": 291, "annotation": {"number": 64, "value": 127}, "group": "control_change"}, {"time": 337, "annotation": {"number": 64, "value": 0}, "group": "control_change"}, {"time": 339, "annotation": {"number": 64, "value": 127}, "group": "control_change"}, {"time": 385, "annotation": {"number": 64, "value": 0}, "group": "control_change"}, {"time": 388, "annotation": {"number": 64, "value": 127}, "group": "control_change"}, {"time": 432, "annotation": {"number": 64, "value": 0}, "group": "control_change"}, {"time": 436, "annotation": {"number": 64, "value": 127}, "group": "control_change"}, {"time": 480, "annotation": {"number": 64, "value": 0}, "group": "control_change"}, {"time": 512, "annotation": {"number": 64, "value": 127}, "group": "control_change"}, {"time": 529, "annotation": {"number": 64, "value": 0}, "group": "control_change"}, {"time": 535, "annotation": {"number": 64, "value": 127}, "group": "control_change"}, {"time": 543, "annotation": {"number": 64, "value": 0}, "group": "control_change"}, {"time": 549, "annotation": {"number": 64, "value": 127}, "group": "control_change"}, {"time": 550, "annotation": {"number": 64, "value": 0}, "group": "control_change"}, {"time": 550, "annotation": {"number": 64, "value": 127}, "group": "control_change"}, {"time": 576, "annotation": {"number": 64, "value": 0}, "group": "control_change"}, {"time": 580, "annotation": {"number": 64, "value": 127}, "group": "control_change"}, {"time": 625, "annotation": {"number": 64, "value": 0}, "group": "control_change"}, {"time": 630, "annotation": {"number": 64, "value": 127}, "group": "control_change"}, {"time": 673, "annotation": {"number": 64, "value": 0}, "group": "control_change"}, {"time": 676, "annotation": {"number": 64, "value": 127}, "group": "control_change"}, {"time": 720, "annotation": {"number": 64, "value": 0}, "group": "control_change"}, {"time": 724, "annotation": {"number": 64, "value": 127}, "group": "control_change"}, {"time": 768, "annotation": {"number": 64, "value": 0}, "group": "control_change"}, {"time": 776, "annotation": {"number": 64, "value": 127}, "group": "control_change"}, {"time": 816, "annotation": {"number": 64, "value": 0}, "group": "control_change"}, {"time": 819, "annotation": {"number": 64, "value": 127}, "group": "control_change"}, {"time": 825, "annotation": {"number": 64, "value": 0}, "group": "control_change"}, {"time": 836, "annotation": {"number": 64, "value": 127}, "group": "control_change"}, {"time": 861, "annotation": {"number": 64, "value": 0}, "group": "control_change"}, {"time": 896, "annotation": {"number": 64, "value": 127}, "group": "control_change"}, {"time": 913, "annotation": {"number": 64, "value": 0}, "group": "control_change"}, {"time": 919, "annotation": {"number": 64, "value": 127}, "group": "control_change"}, {"time": 927, "annotation": {"number": 64, "value": 0}, "group": "control_change"}, {"time": 933, "annotation": {"number": 64, "value": 127}, "group": "control_change"}, {"time": 934, "annotation": {"number": 64, "value": 0}, "group": "control_change"}, {"time": 934, "annotation": {"number": 64, "value": 127}, "group": "control_change"}, {"time": 960, "annotation": {"number": 64, "value": 0}, "group": "control_change"}, {"time": 964, "annotation": {"number": 64, "value": 127}, "group": "control_change"}, {"time": 1009, "annotation": {"number": 64, "value": 0}, "group": "control_change"}, {"time": 1014, "annotation": {"number": 64, "value": 127}, "group": "control_change"}, {"time": 1057, "annotation": {"number": 64, "value": 0}, "group": "control_change"}, {"time": 1060, "annotation": {"number": 64, "value": 127}, "group": "control_change"}, {"time": 1104, "annotation": {"number": 64, "value": 0}, "group": "control_change"}, {"time": 1108, "annotation": {"number": 64, "value": 127}, "group": "control_change"}, {"time": 1152, "annotation": {"number": 64, "value": 0}, "group": "control_change"}, {"time": 1156, "annotation": {"number": 64, "value": 127}, "group": "control_change"}, {"time": 1201, "annotation": {"number": 64, "value": 0}, "group": "control_change"}, {"time": 1209, "annotation": {"number": 64, "value": 127}, "group": "control_change"}, {"time": 1216, "annotation": {"number": 64, "value": 0}, "group": "control_change"}, {"time": 1222, "annotation": {"number": 64, "value": 127}, "group": "control_change"}, {"time": 1247, "annotation": {"number": 64, "value": 0}, "group": "control_change"}, {"time": 1252, "annotation": {"number": 64, "value": 127}, "group": "control_change"}, {"time": 1268, "annotation": {"number": 64, "value": 0}, "group": "control_change"}, {"time": 1271, "annotation": {"number": 64, "value": 127}, "group": "control_change"}, {"time": 1294, "annotation": {"number": 64, "value": 0}, "group": "control_change"}, {"time": 1300, "annotation": {"number": 64, "value": 127}, "group": "control_change"}, {"time": 1300, "annotation": {"number": 64, "value": 0}, "group": "control_change"}, {"time": 1345, "annotation": {"number": 64, "value": 0}, "group": "control_change"}, {"time": 1348, "annotation": {"number": 64, "value": 127}, "group": "control_change"}, {"time": 1391, "annotation": {"number": 64, "value": 0}, "group": "control_change"}, {"time": 1394, "annotation": {"number": 64, "value": 127}, "group": "control_change"}, {"time": 1438, "annotation": {"number": 64, "value": 0}, "group": "control_change"}, {"time": 1442, "annotation": {"number": 64, "value": 127}, "group": "control_change"}, {"time": 1488, "annotation": {"number": 64, "value": 0}, "group": "control_change"}, {"time": 1491, "annotation": {"number": 64, "value": 127}, "group": "control_change"}, {"time": 1535, "annotation": {"number": 64, "value": 0}, "group": "control_change"}, {"time": 1537, "annotation": {"number": 64, "value": 127}, "group": "control_change"}, {"time": 1584, "annotation": {"number": 64, "value": 0}, "group": "control_change"}, {"time": 1589, "annotation": {"number": 64, "value": 127}, "group": "control_change"}, {"time": 1630, "annotation": {"number": 64, "value": 0}, "group": "control_change"}, {"time": 1633, "annotation": {"number": 64, "value": 127}, "group": "control_change"}, {"time": 1681, "annotation": {"number": 64, "value": 0}, "group": "control_change"}, {"time": 1683, "annotation": {"number": 64, "value": 127}, "group": "control_change"}, {"time": 1726, "annotation": {"number": 64, "value": 0}, "group": "control_change"}, {"time": 1736, "annotation": {"number": 64, "value": 127}, "group": "control_change"}, {"time": 1777, "annotation": {"number": 64, "value": 0}, "group": "control_change"}, {"time": 1780, "annotation": {"number": 64, "value": 127}, "group": "control_change"}, {"time": 1824, "annotation": {"number": 64, "value": 0}, "group": "control_change"}, {"time": 1827, "annotation": {"number": 64, "value": 127}, "group": "control_change"}, {"time": 1874, "annotation": {"number": 64, "value": 0}, "group": "control_change"}, {"time": 1877, "annotation": {"number": 64, "value": 127}, "group": "control_change"}, {"time": 1920, "annotation": {"number": 64, "value": 0}, "group": "control_change"}, {"time": 1923, "annotation": {"number": 64, "value": 127}, "group": "control_change"}, {"time": 1968, "annotation": {"number": 64, "value": 0}, "group": "control_change"}, {"time": 1971, "annotation": {"number": 64, "value": 127}, "group": "control_change"}, {"time": 2016, "annotation": {"number": 64, "value": 0}, "group": "control_change"}, {"time": 2024, "annotation": {"number": 64, "value": 127}, "group": "control_change"}, {"time": 2063, "annotation": {"number": 64, "value": 0}, "group": "control_change"}, {"time": 2066, "annotation": {"number": 64, "value": 127}, "group": "control_change"}, {"time": 2112, "annotation": {"number": 64, "value": 0}, "group": "control_change"}, {"time": 2115, "annotation": {"number": 64, "value": 127}, "group": "control_change"}, {"time": 2161, "annotation": {"number": 64, "value": 0}, "group": "control_change"}, {"time": 2164, "annotation": {"number": 64, "value": 127}, "group": "control_change"}, {"time": 2209, "annotation": {"number": 64, "value": 0}, "group": "control_change"}, {"time": 2212, "annotation": {"number": 64, "value": 127}, "group": "control_change"}, {"time": 2257, "annotation": {"number": 64, "value": 0}, "group": "control_change"}, {"time": 2259, "annotation": {"number": 64, "value": 127}, "group": "control_change"}, {"time": 2303, "annotation": {"number": 64, "value": 0}, "group": "control_change"}, {"time": 2336, "annotation": {"number": 64, "value": 127}, "group": "control_change"}, {"time": 2353, "annotation": {"number": 64, "value": 0}, "group": "control_change"}, {"time": 2359, "annotation": {"number": 64, "value": 127}, "group": "control_change"}, {"time": 2367, "annotation": {"number": 64, "value": 0}, "group": "control_change"}, {"time": 2373, "annotation": {"number": 64, "value": 127}, "group": "control_change"}, {"time": 2374, "annotation": {"number": 64, "value": 0}, "group": "control_change"}, {"time": 2374, "annotation": {"number": 64, "value": 127}, "group": "control_change"}, {"time": 2400, "annotation": {"number": 64, "value": 0}, "group": "control_change"}, {"time": 2404, "annotation": {"number": 64, "value": 127}, "group": "control_change"}, {"time": 2449, "annotation": {"number": 64, "value": 0}, "group": "control_change"}, {"time": 2454, "annotation": {"number": 64, "value": 127}, "group": "control_change"}, {"time": 2497, "annotation": {"number": 64, "value": 0}, "group": "control_change"}, {"time": 2500, "annotation": {"number": 64, "value": 127}, "group": "control_change"}, {"time": 2544, "annotation": {"number": 64, "value": 0}, "group": "control_change"}, {"time": 2548, "annotation": {"number": 64, "value": 127}, "group": "control_change"}, {"time": 2592, "annotation": {"number": 64, "value": 0}, "group": "control_change"}, {"time": 2600, "annotation": {"number": 64, "value": 127}, "group": "control_change"}, {"time": 2640, "annotation": {"number": 64, "value": 0}, "group": "control_change"}, {"time": 2643, "annotation": {"number": 64, "value": 127}, "group": "control_change"}, {"time": 2649, "annotation": {"number": 64, "value": 0}, "group": "control_change"}, {"time": 2660, "annotation": {"number": 64, "value": 127}, "group": "control_change"}, {"time": 2685, "annotation": {"number": 64, "value": 0}, "group": "control_change"}, {"time": 2720, "annotation": {"number": 64, "value": 127}, "group": "control_change"}, {"time": 2737, "annotation": {"number": 64, "value": 0}, "group": "control_change"}, {"time": 2743, "annotation": {"number": 64, "value": 127}, "group": "control_change"}, {"time": 2751, "annotation": {"number": 64, "value": 0}, "group": "control_change"}, {"time": 2757, "annotation": {"number": 64, "value": 127}, "group": "control_change"}, {"time": 2758, "annotation": {"number": 64, "value": 0}, "group": "control_change"}, {"time": 2758, "annotation": {"number": 64, "value": 127}, "group": "control_change"}, {"time": 2784, "annotation": {"number": 64, "value": 0}, "group": "control_change"}, {"time": 2788, "annotation": {"number": 64, "value": 127}, "group": "control_change"}, {"time": 2833, "annotation": {"number": 64, "value": 0}, "group": "control_change"}, {"time": 2838, "annotation": {"number": 64, "value": 127}, "group": "control_change"}, {"time": 2881, "annotation": {"number": 64, "value": 0}, "group": "control_change"}, {"time": 2884, "annotation": {"number": 64, "value": 127}, "group": "control_change"}, {"time": 2928, "annotation": {"number": 64, "value": 0}, "group": "control_change"}, {"time": 2932, "annotation": {"number": 64, "value": 127}, "group": "control_change"}, {"time": 2976, "annotation": {"number": 64, "value": 0}, "group": "control_change"}, {"time": 2980, "annotation": {"number": 64, "value": 127}, "group": "control_change"}, {"time": 3025, "annotation": {"number": 64, "value": 0}, "group": "control_change"}, {"time": 3033, "annotation": {"number": 64, "value": 127}, "group": "control_change"}, {"time": 3040, "annotation": {"number": 64, "value": 0}, "group": "control_change"}, {"time": 3046, "annotation": {"number": 64, "value": 127}, "group": "control_change"}, {"time": 3071, "annotation": {"number": 64, "value": 0}, "group": "control_change"}, {"time": 3076, "annotation": {"number": 64, "value": 127}, "group": "control_change"}, {"time": 3092, "annotation": {"number": 64, "value": 0}, "group": "control_change"}, {"time": 3095, "annotation": {"number": 64, "value": 127}, "group": "control_change"}, {"time": 3118, "annotation": {"number": 64, "value": 0}, "group": "control_change"}, {"time": 3124, "annotation": {"number": 64, "value": 127}, "group": "control_change"}, {"time": 3124, "annotation": {"number": 64, "value": 0}, "group": "control_change"}, {"time": 3169, "annotation": {"number": 64, "value": 0}, "group": "control_change"}, {"time": 3172, "annotation": {"number": 64, "value": 127}, "group": "control_change"}, {"time": 3215, "annotation": {"number": 64, "value": 0}, "group": "control_change"}, {"time": 3218, "annotation": {"number": 64, "value": 127}, "group": "control_change"}, {"time": 3262, "annotation": {"number": 64, "value": 0}, "group": "control_change"}, {"time": 3266, "annotation": {"number": 64, "value": 127}, "group": "control_change"}, {"time": 3312, "annotation": {"number": 64, "value": 0}, "group": "control_change"}, {"time": 3315, "annotation": {"number": 64, "value": 127}, "group": "control_change"}, {"time": 3359, "annotation": {"number": 64, "value": 0}, "group": "control_change"}, {"time": 3361, "annotation": {"number": 64, "value": 127}, "group": "control_change"}, {"time": 3408, "annotation": {"number": 64, "value": 0}, "group": "control_change"}, {"time": 3413, "annotation": {"number": 64, "value": 127}, "group": "control_change"}, {"time": 3454, "annotation": {"number": 64, "value": 0}, "group": "control_change"}, {"time": 3457, "annotation": {"number": 64, "value": 127}, "group": "control_change"}, {"time": 3505, "annotation": {"number": 64, "value": 0}, "group": "control_change"}, {"time": 3507, "annotation": {"number": 64, "value": 127}, "group": "control_change"}, {"time": 3550, "annotation": {"number": 64, "value": 0}, "group": "control_change"}, {"time": 3560, "annotation": {"number": 64, "value": 127}, "group": "control_change"}, {"time": 3601, "annotation": {"number": 64, "value": 0}, "group": "control_change"}, {"time": 3604, "annotation": {"number": 64, "value": 127}, "group": "control_change"}, {"time": 3648, "annotation": {"number": 64, "value": 0}, "group": "control_change"}, {"time": 3651, "annotation": {"number": 64, "value": 127}, "group": "control_change"}, {"time": 3698, "annotation": {"number": 64, "value": 0}, "group": "control_change"}, {"time": 3701, "annotation": {"number": 64, "value": 127}, "group": "control_change"}, {"time": 3744, "annotation": {"number": 64, "value": 0}, "group": "control_change"}, {"time": 3747, "annotation": {"number": 64, "value": 127}, "group": "control_change"}, {"time": 3792, "annotation": {"number": 64, "value": 0}, "group": "control_change"}, {"time": 3795, "annotation": {"number": 64, "value": 127}, "group": "control_change"}, {"time": 3840, "annotation": {"number": 64, "value": 0}, "group": "control_change"}, {"time": 3848, "annotation": {"number": 64, "value": 127}, "group": "control_change"}, {"time": 3887, "annotation": {"number": 64, "value": 0}, "group": "control_change"}, {"time": 3890, "annotation": {"number": 64, "value": 127}, "group": "control_change"}, {"time": 3936, "annotation": {"number": 64, "value": 0}, "group": "control_change"}, {"time": 3944, "annotation": {"number": 64, "value": 127}, "group": "control_change"}, {"time": 3985, "annotation": {"number": 64, "value": 0}, "group": "control_change"}, {"time": 3988, "annotation": {"number": 64, "value": 127}, "group": "control_change"}, {"time": 4032, "annotation": {"number": 64, "value": 0}, "group": "control_change"}, {"time": 4035, "annotation": {"number": 64, "value": 127}, "group": "control_change"}, {"time": 4082, "annotation": {"number": 64, "value": 0}, "group": "control_change"}, {"time": 4085, "annotation": {"number": 64, "value": 127}, "group": "control_change"}, {"time": 4128, "annotation": {"number": 64, "value": 0}, "group": "control_change"}, {"time": 4131, "annotation": {"number": 64, "value": 127}, "group": "control_change"}, {"time": 4176, "annotation": {"number": 64, "value": 0}, "group": "control_change"}, {"time": 4179, "annotation": {"number": 64, "value": 127}, "group": "control_change"}, {"time": 4224, "annotation": {"number": 64, "value": 0}, "group": "control_change"}, {"time": 4232, "annotation": {"number": 64, "value": 127}, "group": "control_change"}, {"time": 4271, "annotation": {"number": 64, "value": 0}, "group": "control_change"}, {"time": 4274, "annotation": {"number": 64, "value": 127}, "group": "control_change"}, {"time": 4320, "annotation": {"number": 64, "value": 0}, "group": "control_change"}, {"time": 4323, "annotation": {"number": 64, "value": 127}, "group": "control_change"}, {"time": 4323, "annotation": {"number": 64, "value": 0}, "group": "control_change"}, {"time": 4369, "annotation": {"number": 64, "value": 0}, "group": "control_change"}, {"time": 4373, "annotation": {"number": 64, "value": 127}, "group": "control_change"}, {"time": 4416, "annotation": {"number": 64, "value": 0}, "group": "control_change"}, {"time": 4422, "annotation": {"number": 64, "value": 127}, "group": "control_change"}, {"time": 4422, "annotation": {"number": 64, "value": 0}, "group": "control_change"}, {"time": 4464, "annotation": {"number": 64, "value": 0}, "group": "control_change"}, {"time": 4466, "annotation": {"number": 64, "value": 127}, "group": "control_change"}, {"time": 4536, "annotation": {"number": 64, "value": 0}, "group": "control_change"}, {"time": 4540, "annotation": {"number": 64, "value": 127}, "group": "control_change"}, {"time": 4540, "annotation": {"number": 64, "value": 0}, "group": "control_change"}, {"time": 4586, "annotation": {"number": 64, "value": 0}, "group": "control_change"}, {"time": 4589, "annotation": {"number": 64, "value": 127}, "group": "control_change"}, {"time": 4633, "annotation": {"number": 64, "value": 0}, "group": "control_change"}, {"time": 4640, "annotation": {"number": 64, "value": 127}, "group": "control_change"}, {"time": 4678, "annotation": {"number": 64, "value": 0}, "group": "control_change"}, {"time": 4681, "annotation": {"number": 64, "value": 127}, "group": "control_change"}, {"time": 4728, "annotation": {"number": 64, "value": 0}, "group": "control_change"}, {"time": 4731, "annotation": {"number": 64, "value": 127}, "group": "control_change"}, {"time": 4802, "annotation": {"number": 64, "value": 0}, "group": "control_change"}]}]}