{"metadata": {"schema_version": "0.2", "title": "None", "source_filename": "530.mid", "source_format": "midi"}, "resolution": 12, "tempos": [{"time": 0, "qpm": 58.00004253336452}, {"time": 216, "qpm": 58.20004714203819}, {"time": 408, "qpm": 58.00004253336452}, {"time": 696, "qpm": 58.10001336300307}, {"time": 2580, "qpm": 57.60003686402359}, {"time": 2616, "qpm": 58.10001336300307}], "time_signatures": [{"time": 0, "numerator": 1, "denominator": 4}], "tracks": [{"program": 0, "is_drum": false, "name": "MELODY", "notes": [{"time": 691, "pitch": 80, "duration": 5, "velocity": 90}, {"time": 697, "pitch": 80, "duration": 6, "velocity": 92}, {"time": 703, "pitch": 78, "duration": 3, "velocity": 90}, {"time": 706, "pitch": 80, "duration": 3, "velocity": 92}, {"time": 709, "pitch": 82, "duration": 7, "velocity": 97}, {"time": 715, "pitch": 80, "duration": 23, "velocity": 94}, {"time": 739, "pitch": 80, "duration": 10, "velocity": 91}, {"time": 751, "pitch": 78, "duration": 3, "velocity": 94}, {"time": 754, "pitch": 80, "duration": 3, "velocity": 89}, {"time": 757, "pitch": 73, "duration": 7, "velocity": 94}, {"time": 763, "pitch": 75, "duration": 21, "velocity": 94}, {"time": 787, "pitch": 75, "duration": 5, "velocity": 102}, {"time": 793, "pitch": 75, "duration": 5, "velocity": 95}, {"time": 799, "pitch": 73, "duration": 3, "velocity": 90}, {"time": 802, "pitch": 75, "duration": 3, "velocity": 94}, {"time": 805, "pitch": 71, "duration": 6, "velocity": 89}, {"time": 811, "pitch": 73, "duration": 22, "velocity": 92}, {"time": 835, "pitch": 73, "duration": 5, "velocity": 92}, {"time": 841, "pitch": 73, "duration": 5, "velocity": 90}, {"time": 847, "pitch": 73, "duration": 3, "velocity": 90}, {"time": 850, "pitch": 75, "duration": 3, "velocity": 95}, {"time": 853, "pitch": 77, "duration": 6, "velocity": 91}, {"time": 859, "pitch": 75, "duration": 22, "velocity": 93}, {"time": 883, "pitch": 80, "duration": 5, "velocity": 90}, {"time": 889, "pitch": 80, "duration": 6, "velocity": 92}, {"time": 895, "pitch": 78, "duration": 3, "velocity": 90}, {"time": 898, "pitch": 80, "duration": 3, "velocity": 92}, {"time": 901, "pitch": 82, "duration": 7, "velocity": 97}, {"time": 907, "pitch": 80, "duration": 23, "velocity": 94}, {"time": 931, "pitch": 80, "duration": 11, "velocity": 97}, {"time": 943, "pitch": 82, "duration": 4, "velocity": 88}, {"time": 946, "pitch": 80, "duration": 3, "velocity": 90}, {"time": 949, "pitch": 78, "duration": 4, "velocity": 93}, {"time": 952, "pitch": 73, "duration": 4, "velocity": 92}, {"time": 955, "pitch": 75, "duration": 23, "velocity": 97}, {"time": 979, "pitch": 75, "duration": 5, "velocity": 102}, {"time": 985, "pitch": 75, "duration": 5, "velocity": 95}, {"time": 991, "pitch": 73, "duration": 3, "velocity": 90}, {"time": 994, "pitch": 75, "duration": 3, "velocity": 94}, {"time": 997, "pitch": 71, "duration": 6, "velocity": 89}, {"time": 1003, "pitch": 73, "duration": 22, "velocity": 92}, {"time": 1027, "pitch": 78, "duration": 9, "velocity": 94}, {"time": 1036, "pitch": 75, "duration": 3, "velocity": 94}, {"time": 1039, "pitch": 82, "duration": 4, "velocity": 97}, {"time": 1042, "pitch": 80, "duration": 4, "velocity": 92}, {"time": 1045, "pitch": 78, "duration": 7, "velocity": 92}, {"time": 1051, "pitch": 80, "duration": 47, "velocity": 89}, {"time": 1171, "pitch": 80, "duration": 5, "velocity": 99}, {"time": 1177, "pitch": 80, "duration": 6, "velocity": 104}, {"time": 1183, "pitch": 83, "duration": 3, "velocity": 97}, {"time": 1186, "pitch": 85, "duration": 3, "velocity": 95}, {"time": 1189, "pitch": 82, "duration": 3, "velocity": 99}, {"time": 1192, "pitch": 80, "duration": 4, "velocity": 91}, {"time": 1195, "pitch": 83, "duration": 17, "velocity": 97}, {"time": 1219, "pitch": 80, "duration": 6, "velocity": 95}, {"time": 1225, "pitch": 85, "duration": 5, "velocity": 95}, {"time": 1231, "pitch": 85, "duration": 7, "velocity": 95}, {"time": 1237, "pitch": 82, "duration": 4, "velocity": 92}, {"time": 1240, "pitch": 80, "duration": 9, "velocity": 89}, {"time": 1249, "pitch": 78, "duration": 15, "velocity": 90}, {"time": 1267, "pitch": 73, "duration": 8, "velocity": 94}, {"time": 1276, "pitch": 75, "duration": 3, "velocity": 99}, {"time": 1279, "pitch": 73, "duration": 3, "velocity": 94}, {"time": 1282, "pitch": 75, "duration": 3, "velocity": 95}, {"time": 1285, "pitch": 78, "duration": 5, "velocity": 92}, {"time": 1291, "pitch": 80, "duration": 5, "velocity": 90}, {"time": 1297, "pitch": 80, "duration": 5, "velocity": 90}, {"time": 1303, "pitch": 75, "duration": 3, "velocity": 95}, {"time": 1306, "pitch": 76, "duration": 4, "velocity": 82}, {"time": 1309, "pitch": 75, "duration": 3, "velocity": 95}, {"time": 1312, "pitch": 73, "duration": 4, "velocity": 88}, {"time": 1315, "pitch": 71, "duration": 14, "velocity": 89}, {"time": 1333, "pitch": 73, "duration": 4, "velocity": 92}, {"time": 1336, "pitch": 75, "duration": 3, "velocity": 94}, {"time": 1339, "pitch": 78, "duration": 19, "velocity": 89}, {"time": 1357, "pitch": 75, "duration": 2, "velocity": 94}, {"time": 1360, "pitch": 78, "duration": 3, "velocity": 94}, {"time": 1363, "pitch": 80, "duration": 5, "velocity": 92}, {"time": 1369, "pitch": 80, "duration": 6, "velocity": 92}, {"time": 1375, "pitch": 83, "duration": 3, "velocity": 89}, {"time": 1378, "pitch": 85, "duration": 2, "velocity": 92}, {"time": 1381, "pitch": 82, "duration": 3, "velocity": 95}, {"time": 1384, "pitch": 80, "duration": 4, "velocity": 90}, {"time": 1387, "pitch": 83, "duration": 17, "velocity": 87}, {"time": 1411, "pitch": 80, "duration": 6, "velocity": 94}, {"time": 1417, "pitch": 85, "duration": 5, "velocity": 99}, {"time": 1423, "pitch": 85, "duration": 6, "velocity": 92}, {"time": 1429, "pitch": 82, "duration": 4, "velocity": 90}, {"time": 1432, "pitch": 80, "duration": 3, "velocity": 90}, {"time": 1435, "pitch": 80, "duration": 6, "velocity": 88}, {"time": 1441, "pitch": 78, "duration": 12, "velocity": 88}, {"time": 1459, "pitch": 73, "duration": 9, "velocity": 89}, {"time": 1468, "pitch": 75, "duration": 3, "velocity": 92}, {"time": 1471, "pitch": 73, "duration": 4, "velocity": 92}, {"time": 1474, "pitch": 75, "duration": 3, "velocity": 102}, {"time": 1477, "pitch": 78, "duration": 7, "velocity": 92}, {"time": 1483, "pitch": 80, "duration": 5, "velocity": 93}, {"time": 1489, "pitch": 80, "duration": 5, "velocity": 99}, {"time": 1495, "pitch": 75, "duration": 4, "velocity": 97}, {"time": 1498, "pitch": 76, "duration": 4, "velocity": 87}, {"time": 1501, "pitch": 75, "duration": 3, "velocity": 95}, {"time": 1504, "pitch": 73, "duration": 4, "velocity": 88}, {"time": 1507, "pitch": 71, "duration": 15, "velocity": 80}, {"time": 1525, "pitch": 73, "duration": 3, "velocity": 92}, {"time": 1528, "pitch": 75, "duration": 3, "velocity": 95}, {"time": 1531, "pitch": 78, "duration": 18, "velocity": 92}, {"time": 1549, "pitch": 75, "duration": 3, "velocity": 90}, {"time": 1552, "pitch": 78, "duration": 3, "velocity": 89}, {"time": 1555, "pitch": 73, "duration": 8, "velocity": 93}, {"time": 1564, "pitch": 75, "duration": 3, "velocity": 92}, {"time": 1567, "pitch": 70, "duration": 2, "velocity": 84}, {"time": 1570, "pitch": 68, "duration": 2, "velocity": 88}, {"time": 1573, "pitch": 66, "duration": 6, "velocity": 87}, {"time": 1579, "pitch": 68, "duration": 24, "velocity": 88}, {"time": 2131, "pitch": 80, "duration": 5, "velocity": 90}, {"time": 2137, "pitch": 80, "duration": 6, "velocity": 92}, {"time": 2143, "pitch": 78, "duration": 3, "velocity": 90}, {"time": 2146, "pitch": 80, "duration": 3, "velocity": 92}, {"time": 2149, "pitch": 82, "duration": 7, "velocity": 97}, {"time": 2155, "pitch": 80, "duration": 23, "velocity": 94}, {"time": 2179, "pitch": 80, "duration": 10, "velocity": 91}, {"time": 2191, "pitch": 78, "duration": 3, "velocity": 94}, {"time": 2194, "pitch": 80, "duration": 3, "velocity": 89}, {"time": 2197, "pitch": 73, "duration": 7, "velocity": 94}, {"time": 2203, "pitch": 75, "duration": 21, "velocity": 94}, {"time": 2227, "pitch": 75, "duration": 5, "velocity": 102}, {"time": 2233, "pitch": 75, "duration": 5, "velocity": 95}, {"time": 2239, "pitch": 73, "duration": 3, "velocity": 90}, {"time": 2242, "pitch": 75, "duration": 3, "velocity": 94}, {"time": 2245, "pitch": 71, "duration": 6, "velocity": 89}, {"time": 2251, "pitch": 73, "duration": 22, "velocity": 92}, {"time": 2275, "pitch": 73, "duration": 5, "velocity": 92}, {"time": 2281, "pitch": 73, "duration": 5, "velocity": 90}, {"time": 2287, "pitch": 73, "duration": 3, "velocity": 90}, {"time": 2290, "pitch": 75, "duration": 3, "velocity": 95}, {"time": 2293, "pitch": 77, "duration": 6, "velocity": 91}, {"time": 2299, "pitch": 75, "duration": 22, "velocity": 93}, {"time": 2323, "pitch": 80, "duration": 5, "velocity": 90}, {"time": 2329, "pitch": 80, "duration": 6, "velocity": 92}, {"time": 2335, "pitch": 78, "duration": 3, "velocity": 90}, {"time": 2338, "pitch": 80, "duration": 3, "velocity": 92}, {"time": 2341, "pitch": 82, "duration": 7, "velocity": 97}, {"time": 2347, "pitch": 80, "duration": 23, "velocity": 94}, {"time": 2371, "pitch": 80, "duration": 11, "velocity": 97}, {"time": 2383, "pitch": 82, "duration": 4, "velocity": 88}, {"time": 2386, "pitch": 80, "duration": 3, "velocity": 90}, {"time": 2389, "pitch": 78, "duration": 4, "velocity": 93}, {"time": 2392, "pitch": 73, "duration": 4, "velocity": 92}, {"time": 2395, "pitch": 75, "duration": 23, "velocity": 97}, {"time": 2419, "pitch": 75, "duration": 5, "velocity": 102}, {"time": 2425, "pitch": 75, "duration": 5, "velocity": 95}, {"time": 2431, "pitch": 73, "duration": 3, "velocity": 90}, {"time": 2434, "pitch": 75, "duration": 3, "velocity": 94}, {"time": 2437, "pitch": 71, "duration": 6, "velocity": 89}, {"time": 2443, "pitch": 73, "duration": 22, "velocity": 92}, {"time": 2467, "pitch": 78, "duration": 9, "velocity": 94}, {"time": 2476, "pitch": 75, "duration": 3, "velocity": 94}, {"time": 2479, "pitch": 82, "duration": 4, "velocity": 97}, {"time": 2482, "pitch": 80, "duration": 4, "velocity": 92}, {"time": 2485, "pitch": 78, "duration": 7, "velocity": 92}, {"time": 2491, "pitch": 80, "duration": 47, "velocity": 89}, {"time": 2611, "pitch": 80, "duration": 5, "velocity": 99}, {"time": 2617, "pitch": 80, "duration": 6, "velocity": 104}, {"time": 2623, "pitch": 83, "duration": 3, "velocity": 97}, {"time": 2626, "pitch": 85, "duration": 3, "velocity": 95}, {"time": 2629, "pitch": 82, "duration": 3, "velocity": 99}, {"time": 2632, "pitch": 80, "duration": 4, "velocity": 91}, {"time": 2635, "pitch": 83, "duration": 17, "velocity": 97}, {"time": 2659, "pitch": 80, "duration": 6, "velocity": 95}, {"time": 2665, "pitch": 85, "duration": 5, "velocity": 95}, {"time": 2671, "pitch": 85, "duration": 7, "velocity": 95}, {"time": 2677, "pitch": 82, "duration": 4, "velocity": 92}, {"time": 2680, "pitch": 80, "duration": 9, "velocity": 89}, {"time": 2689, "pitch": 78, "duration": 15, "velocity": 90}, {"time": 2707, "pitch": 73, "duration": 8, "velocity": 94}, {"time": 2716, "pitch": 75, "duration": 3, "velocity": 99}, {"time": 2719, "pitch": 73, "duration": 3, "velocity": 94}, {"time": 2722, "pitch": 75, "duration": 3, "velocity": 95}, {"time": 2725, "pitch": 78, "duration": 5, "velocity": 92}, {"time": 2731, "pitch": 80, "duration": 5, "velocity": 90}, {"time": 2737, "pitch": 80, "duration": 5, "velocity": 90}, {"time": 2743, "pitch": 75, "duration": 3, "velocity": 95}, {"time": 2746, "pitch": 76, "duration": 4, "velocity": 82}, {"time": 2749, "pitch": 75, "duration": 3, "velocity": 95}, {"time": 2752, "pitch": 73, "duration": 4, "velocity": 88}, {"time": 2755, "pitch": 71, "duration": 14, "velocity": 89}, {"time": 2773, "pitch": 73, "duration": 4, "velocity": 92}, {"time": 2776, "pitch": 75, "duration": 3, "velocity": 94}, {"time": 2779, "pitch": 78, "duration": 19, "velocity": 89}, {"time": 2797, "pitch": 75, "duration": 2, "velocity": 94}, {"time": 2800, "pitch": 78, "duration": 3, "velocity": 94}, {"time": 2803, "pitch": 80, "duration": 5, "velocity": 92}, {"time": 2809, "pitch": 80, "duration": 6, "velocity": 92}, {"time": 2815, "pitch": 83, "duration": 3, "velocity": 89}, {"time": 2818, "pitch": 85, "duration": 2, "velocity": 92}, {"time": 2821, "pitch": 82, "duration": 3, "velocity": 95}, {"time": 2824, "pitch": 80, "duration": 4, "velocity": 90}, {"time": 2827, "pitch": 83, "duration": 17, "velocity": 87}, {"time": 2851, "pitch": 80, "duration": 6, "velocity": 94}, {"time": 2857, "pitch": 85, "duration": 5, "velocity": 99}, {"time": 2863, "pitch": 85, "duration": 6, "velocity": 92}, {"time": 2869, "pitch": 82, "duration": 4, "velocity": 90}, {"time": 2872, "pitch": 80, "duration": 3, "velocity": 90}, {"time": 2875, "pitch": 80, "duration": 6, "velocity": 88}, {"time": 2881, "pitch": 78, "duration": 12, "velocity": 88}, {"time": 2899, "pitch": 73, "duration": 9, "velocity": 89}, {"time": 2908, "pitch": 75, "duration": 3, "velocity": 92}, {"time": 2911, "pitch": 73, "duration": 4, "velocity": 92}, {"time": 2914, "pitch": 75, "duration": 3, "velocity": 102}, {"time": 2917, "pitch": 78, "duration": 7, "velocity": 92}, {"time": 2923, "pitch": 80, "duration": 5, "velocity": 93}, {"time": 2929, "pitch": 80, "duration": 5, "velocity": 99}, {"time": 2935, "pitch": 75, "duration": 4, "velocity": 97}, {"time": 2938, "pitch": 76, "duration": 4, "velocity": 87}, {"time": 2941, "pitch": 75, "duration": 3, "velocity": 95}, {"time": 2944, "pitch": 73, "duration": 4, "velocity": 88}, {"time": 2947, "pitch": 71, "duration": 15, "velocity": 80}, {"time": 2965, "pitch": 73, "duration": 3, "velocity": 92}, {"time": 2968, "pitch": 75, "duration": 3, "velocity": 95}, {"time": 2971, "pitch": 78, "duration": 18, "velocity": 92}, {"time": 2989, "pitch": 75, "duration": 3, "velocity": 90}, {"time": 2992, "pitch": 78, "duration": 3, "velocity": 89}, {"time": 2995, "pitch": 73, "duration": 8, "velocity": 93}, {"time": 3004, "pitch": 75, "duration": 3, "velocity": 92}, {"time": 3007, "pitch": 70, "duration": 2, "velocity": 84}, {"time": 3010, "pitch": 68, "duration": 2, "velocity": 88}, {"time": 3013, "pitch": 66, "duration": 6, "velocity": 87}, {"time": 3019, "pitch": 68, "duration": 24, "velocity": 88}, {"time": 3043, "pitch": 80, "duration": 5, "velocity": 99}, {"time": 3049, "pitch": 80, "duration": 6, "velocity": 104}, {"time": 3055, "pitch": 83, "duration": 3, "velocity": 97}, {"time": 3058, "pitch": 85, "duration": 3, "velocity": 95}, {"time": 3061, "pitch": 82, "duration": 3, "velocity": 99}, {"time": 3064, "pitch": 80, "duration": 4, "velocity": 91}, {"time": 3067, "pitch": 83, "duration": 17, "velocity": 97}, {"time": 3091, "pitch": 80, "duration": 6, "velocity": 95}, {"time": 3097, "pitch": 85, "duration": 5, "velocity": 95}, {"time": 3103, "pitch": 85, "duration": 7, "velocity": 95}, {"time": 3109, "pitch": 82, "duration": 4, "velocity": 92}, {"time": 3112, "pitch": 80, "duration": 9, "velocity": 89}, {"time": 3121, "pitch": 78, "duration": 15, "velocity": 90}, {"time": 3139, "pitch": 73, "duration": 8, "velocity": 94}, {"time": 3148, "pitch": 75, "duration": 3, "velocity": 99}, {"time": 3151, "pitch": 73, "duration": 3, "velocity": 94}, {"time": 3154, "pitch": 75, "duration": 3, "velocity": 95}, {"time": 3157, "pitch": 78, "duration": 5, "velocity": 92}, {"time": 3163, "pitch": 80, "duration": 5, "velocity": 90}, {"time": 3169, "pitch": 80, "duration": 5, "velocity": 90}, {"time": 3175, "pitch": 75, "duration": 3, "velocity": 95}, {"time": 3178, "pitch": 76, "duration": 4, "velocity": 82}, {"time": 3181, "pitch": 75, "duration": 3, "velocity": 95}, {"time": 3184, "pitch": 73, "duration": 4, "velocity": 88}, {"time": 3187, "pitch": 71, "duration": 14, "velocity": 89}, {"time": 3205, "pitch": 73, "duration": 4, "velocity": 92}, {"time": 3208, "pitch": 75, "duration": 3, "velocity": 94}, {"time": 3211, "pitch": 78, "duration": 19, "velocity": 89}, {"time": 3229, "pitch": 75, "duration": 2, "velocity": 94}, {"time": 3232, "pitch": 78, "duration": 3, "velocity": 94}, {"time": 3235, "pitch": 80, "duration": 5, "velocity": 92}, {"time": 3241, "pitch": 80, "duration": 6, "velocity": 92}, {"time": 3247, "pitch": 83, "duration": 3, "velocity": 89}, {"time": 3250, "pitch": 85, "duration": 2, "velocity": 92}, {"time": 3253, "pitch": 82, "duration": 3, "velocity": 95}, {"time": 3256, "pitch": 80, "duration": 4, "velocity": 90}, {"time": 3259, "pitch": 83, "duration": 17, "velocity": 87}, {"time": 3283, "pitch": 80, "duration": 6, "velocity": 94}, {"time": 3289, "pitch": 85, "duration": 5, "velocity": 99}, {"time": 3295, "pitch": 85, "duration": 6, "velocity": 92}, {"time": 3301, "pitch": 82, "duration": 4, "velocity": 90}, {"time": 3304, "pitch": 80, "duration": 3, "velocity": 90}, {"time": 3307, "pitch": 80, "duration": 6, "velocity": 88}, {"time": 3313, "pitch": 78, "duration": 12, "velocity": 88}, {"time": 3331, "pitch": 73, "duration": 9, "velocity": 89}, {"time": 3340, "pitch": 75, "duration": 3, "velocity": 92}, {"time": 3343, "pitch": 73, "duration": 4, "velocity": 92}, {"time": 3346, "pitch": 75, "duration": 3, "velocity": 102}, {"time": 3349, "pitch": 78, "duration": 7, "velocity": 92}, {"time": 3355, "pitch": 80, "duration": 5, "velocity": 93}, {"time": 3361, "pitch": 80, "duration": 5, "velocity": 99}, {"time": 3367, "pitch": 75, "duration": 4, "velocity": 97}, {"time": 3370, "pitch": 76, "duration": 4, "velocity": 87}, {"time": 3373, "pitch": 75, "duration": 3, "velocity": 95}, {"time": 3376, "pitch": 73, "duration": 4, "velocity": 88}, {"time": 3379, "pitch": 71, "duration": 15, "velocity": 80}, {"time": 3397, "pitch": 73, "duration": 3, "velocity": 92}, {"time": 3400, "pitch": 75, "duration": 3, "velocity": 95}, {"time": 3403, "pitch": 78, "duration": 18, "velocity": 92}, {"time": 3421, "pitch": 75, "duration": 3, "velocity": 90}, {"time": 3427, "pitch": 78, "duration": 17, "velocity": 89}, {"time": 3445, "pitch": 80, "duration": 6, "velocity": 90}, {"time": 3451, "pitch": 83, "duration": 13, "velocity": 99}, {"time": 3463, "pitch": 82, "duration": 13, "velocity": 94}, {"time": 3475, "pitch": 80, "duration": 46, "velocity": 92}]}, {"program": 0, "is_drum": false, "name": "BRIDGE", "notes": [{"time": 19, "pitch": 56, "duration": 7, "velocity": 83}, {"time": 22, "pitch": 63, "duration": 4, "velocity": 81}, {"time": 25, "pitch": 68, "duration": 4, "velocity": 80}, {"time": 28, "pitch": 70, "duration": 4, "velocity": 80}, {"time": 31, "pitch": 71, "duration": 3, "velocity": 80}, {"time": 34, "pitch": 75, "duration": 3, "velocity": 92}, {"time": 37, "pitch": 82, "duration": 4, "velocity": 87}, {"time": 40, "pitch": 80, "duration": 4, "velocity": 90}, {"time": 43, "pitch": 75, "duration": 8, "velocity": 90}, {"time": 67, "pitch": 56, "duration": 7, "velocity": 83}, {"time": 70, "pitch": 63, "duration": 4, "velocity": 81}, {"time": 73, "pitch": 68, "duration": 4, "velocity": 80}, {"time": 76, "pitch": 70, "duration": 4, "velocity": 80}, {"time": 79, "pitch": 71, "duration": 3, "velocity": 80}, {"time": 82, "pitch": 75, "duration": 3, "velocity": 92}, {"time": 85, "pitch": 82, "duration": 4, "velocity": 87}, {"time": 88, "pitch": 80, "duration": 4, "velocity": 90}, {"time": 91, "pitch": 75, "duration": 8, "velocity": 90}, {"time": 115, "pitch": 52, "duration": 7, "velocity": 83}, {"time": 115, "pitch": 68, "duration": 15, "velocity": 88}, {"time": 118, "pitch": 59, "duration": 4, "velocity": 81}, {"time": 121, "pitch": 64, "duration": 4, "velocity": 80}, {"time": 124, "pitch": 66, "duration": 4, "velocity": 80}, {"time": 127, "pitch": 68, "duration": 3, "velocity": 80}, {"time": 130, "pitch": 75, "duration": 3, "velocity": 92}, {"time": 133, "pitch": 78, "duration": 4, "velocity": 87}, {"time": 136, "pitch": 76, "duration": 4, "velocity": 90}, {"time": 139, "pitch": 75, "duration": 8, "velocity": 90}, {"time": 163, "pitch": 52, "duration": 7, "velocity": 83}, {"time": 163, "pitch": 80, "duration": 48, "velocity": 91}, {"time": 166, "pitch": 59, "duration": 4, "velocity": 81}, {"time": 169, "pitch": 64, "duration": 4, "velocity": 80}, {"time": 172, "pitch": 66, "duration": 4, "velocity": 80}, {"time": 175, "pitch": 68, "duration": 3, "velocity": 80}, {"time": 178, "pitch": 75, "duration": 3, "velocity": 92}, {"time": 181, "pitch": 78, "duration": 4, "velocity": 87}, {"time": 184, "pitch": 76, "duration": 4, "velocity": 90}, {"time": 187, "pitch": 75, "duration": 8, "velocity": 90}, {"time": 211, "pitch": 68, "duration": 3, "velocity": 92}, {"time": 214, "pitch": 66, "duration": 4, "velocity": 86}, {"time": 217, "pitch": 68, "duration": 4, "velocity": 90}, {"time": 220, "pitch": 66, "duration": 4, "velocity": 85}, {"time": 223, "pitch": 68, "duration": 4, "velocity": 90}, {"time": 226, "pitch": 66, "duration": 4, "velocity": 85}, {"time": 229, "pitch": 68, "duration": 4, "velocity": 85}, {"time": 232, "pitch": 71, "duration": 4, "velocity": 87}, {"time": 235, "pitch": 73, "duration": 4, "velocity": 88}, {"time": 238, "pitch": 75, "duration": 4, "velocity": 95}, {"time": 241, "pitch": 73, "duration": 3, "velocity": 89}, {"time": 244, "pitch": 75, "duration": 4, "velocity": 94}, {"time": 247, "pitch": 73, "duration": 4, "velocity": 88}, {"time": 250, "pitch": 75, "duration": 4, "velocity": 93}, {"time": 253, "pitch": 73, "duration": 3, "velocity": 91}, {"time": 256, "pitch": 66, "duration": 3, "velocity": 93}, {"time": 259, "pitch": 68, "duration": 3, "velocity": 84}, {"time": 262, "pitch": 66, "duration": 4, "velocity": 88}, {"time": 265, "pitch": 68, "duration": 4, "velocity": 87}, {"time": 268, "pitch": 66, "duration": 4, "velocity": 84}, {"time": 271, "pitch": 68, "duration": 4, "velocity": 82}, {"time": 274, "pitch": 66, "duration": 4, "velocity": 85}, {"time": 277, "pitch": 68, "duration": 4, "velocity": 83}, {"time": 280, "pitch": 66, "duration": 3, "velocity": 73}, {"time": 283, "pitch": 68, "duration": 9, "velocity": 82}, {"time": 283, "pitch": 90, "duration": 7, "velocity": 86}, {"time": 289, "pitch": 92, "duration": 7, "velocity": 93}, {"time": 295, "pitch": 73, "duration": 6, "velocity": 92}, {"time": 301, "pitch": 90, "duration": 6, "velocity": 93}, {"time": 307, "pitch": 68, "duration": 3, "velocity": 92}, {"time": 307, "pitch": 92, "duration": 36, "velocity": 95}, {"time": 310, "pitch": 66, "duration": 4, "velocity": 86}, {"time": 313, "pitch": 68, "duration": 4, "velocity": 90}, {"time": 316, "pitch": 66, "duration": 4, "velocity": 85}, {"time": 319, "pitch": 68, "duration": 4, "velocity": 90}, {"time": 322, "pitch": 66, "duration": 4, "velocity": 85}, {"time": 325, "pitch": 68, "duration": 4, "velocity": 85}, {"time": 328, "pitch": 71, "duration": 4, "velocity": 87}, {"time": 331, "pitch": 73, "duration": 4, "velocity": 88}, {"time": 334, "pitch": 75, "duration": 4, "velocity": 95}, {"time": 337, "pitch": 73, "duration": 3, "velocity": 89}, {"time": 340, "pitch": 75, "duration": 4, "velocity": 94}, {"time": 343, "pitch": 73, "duration": 4, "velocity": 88}, {"time": 343, "pitch": 90, "duration": 13, "velocity": 95}, {"time": 346, "pitch": 75, "duration": 4, "velocity": 93}, {"time": 349, "pitch": 73, "duration": 3, "velocity": 91}, {"time": 352, "pitch": 66, "duration": 3, "velocity": 93}, {"time": 355, "pitch": 68, "duration": 3, "velocity": 84}, {"time": 355, "pitch": 92, "duration": 24, "velocity": 97}, {"time": 358, "pitch": 66, "duration": 4, "velocity": 88}, {"time": 361, "pitch": 68, "duration": 4, "velocity": 87}, {"time": 364, "pitch": 66, "duration": 4, "velocity": 84}, {"time": 367, "pitch": 68, "duration": 4, "velocity": 82}, {"time": 370, "pitch": 66, "duration": 4, "velocity": 85}, {"time": 373, "pitch": 68, "duration": 4, "velocity": 83}, {"time": 376, "pitch": 66, "duration": 3, "velocity": 73}, {"time": 379, "pitch": 68, "duration": 9, "velocity": 82}, {"time": 379, "pitch": 90, "duration": 7, "velocity": 93}, {"time": 385, "pitch": 92, "duration": 6, "velocity": 93}, {"time": 391, "pitch": 73, "duration": 7, "velocity": 92}, {"time": 397, "pitch": 90, "duration": 7, "velocity": 91}, {"time": 403, "pitch": 75, "duration": 6, "velocity": 97}, {"time": 409, "pitch": 92, "duration": 30, "velocity": 93}, {"time": 415, "pitch": 75, "duration": 7, "velocity": 99}, {"time": 421, "pitch": 73, "duration": 7, "velocity": 95}, {"time": 427, "pitch": 71, "duration": 6, "velocity": 94}, {"time": 433, "pitch": 73, "duration": 6, "velocity": 95}, {"time": 439, "pitch": 73, "duration": 6, "velocity": 88}, {"time": 440, "pitch": 90, "duration": 12, "velocity": 93}, {"time": 445, "pitch": 68, "duration": 6, "velocity": 90}, {"time": 451, "pitch": 70, "duration": 18, "velocity": 92}, {"time": 451, "pitch": 92, "duration": 24, "velocity": 89}, {"time": 469, "pitch": 73, "duration": 6, "velocity": 91}, {"time": 475, "pitch": 73, "duration": 3, "velocity": 90}, {"time": 475, "pitch": 90, "duration": 7, "velocity": 94}, {"time": 478, "pitch": 70, "duration": 3, "velocity": 88}, {"time": 481, "pitch": 68, "duration": 7, "velocity": 84}, {"time": 481, "pitch": 92, "duration": 7, "velocity": 93}, {"time": 487, "pitch": 66, "duration": 7, "velocity": 89}, {"time": 487, "pitch": 87, "duration": 7, "velocity": 90}, {"time": 493, "pitch": 68, "duration": 7, "velocity": 89}, {"time": 493, "pitch": 90, "duration": 6, "velocity": 92}, {"time": 499, "pitch": 92, "duration": 36, "velocity": 95}, {"time": 499, "pitch": 75, "duration": 6, "velocity": 99}, {"time": 505, "pitch": 80, "duration": 10, "velocity": 91}, {"time": 514, "pitch": 75, "duration": 4, "velocity": 99}, {"time": 517, "pitch": 73, "duration": 6, "velocity": 95}, {"time": 523, "pitch": 71, "duration": 7, "velocity": 94}, {"time": 529, "pitch": 73, "duration": 6, "velocity": 91}, {"time": 535, "pitch": 90, "duration": 13, "velocity": 95}, {"time": 535, "pitch": 73, "duration": 6, "velocity": 97}, {"time": 541, "pitch": 68, "duration": 7, "velocity": 90}, {"time": 547, "pitch": 92, "duration": 24, "velocity": 97}, {"time": 547, "pitch": 70, "duration": 5, "velocity": 92}, {"time": 553, "pitch": 70, "duration": 6, "velocity": 92}, {"time": 559, "pitch": 70, "duration": 6, "velocity": 90}, {"time": 565, "pitch": 66, "duration": 6, "velocity": 94}, {"time": 571, "pitch": 90, "duration": 7, "velocity": 93}, {"time": 571, "pitch": 68, "duration": 18, "velocity": 90}, {"time": 577, "pitch": 92, "duration": 6, "velocity": 93}, {"time": 583, "pitch": 85, "duration": 6, "velocity": 93}, {"time": 589, "pitch": 90, "duration": 6, "velocity": 91}, {"time": 589, "pitch": 63, "duration": 7, "velocity": 91}, {"time": 595, "pitch": 68, "duration": 47, "velocity": 89}, {"time": 595, "pitch": 92, "duration": 48, "velocity": 93}, {"time": 643, "pitch": 56, "duration": 5, "velocity": 89}, {"time": 646, "pitch": 63, "duration": 3, "velocity": 88}, {"time": 649, "pitch": 68, "duration": 4, "velocity": 82}, {"time": 652, "pitch": 70, "duration": 3, "velocity": 90}, {"time": 655, "pitch": 73, "duration": 4, "velocity": 86}, {"time": 658, "pitch": 75, "duration": 3, "velocity": 93}, {"time": 661, "pitch": 82, "duration": 3, "velocity": 88}, {"time": 664, "pitch": 80, "duration": 3, "velocity": 84}, {"time": 667, "pitch": 87, "duration": 24, "velocity": 89}, {"time": 715, "pitch": 75, "duration": 4, "velocity": 102}, {"time": 718, "pitch": 68, "duration": 8, "velocity": 79}, {"time": 721, "pitch": 75, "duration": 7, "velocity": 91}, {"time": 727, "pitch": 73, "duration": 4, "velocity": 86}, {"time": 730, "pitch": 75, "duration": 9, "velocity": 89}, {"time": 766, "pitch": 75, "duration": 4, "velocity": 90}, {"time": 769, "pitch": 78, "duration": 4, "velocity": 90}, {"time": 772, "pitch": 80, "duration": 4, "velocity": 89}, {"time": 775, "pitch": 75, "duration": 11, "velocity": 97}, {"time": 814, "pitch": 68, "duration": 4, "velocity": 70}, {"time": 817, "pitch": 73, "duration": 9, "velocity": 90}, {"time": 820, "pitch": 68, "duration": 4, "velocity": 86}, {"time": 823, "pitch": 61, "duration": 12, "velocity": 89}, {"time": 826, "pitch": 68, "duration": 9, "velocity": 83}, {"time": 829, "pitch": 73, "duration": 7, "velocity": 77}, {"time": 862, "pitch": 75, "duration": 4, "velocity": 94}, {"time": 865, "pitch": 80, "duration": 7, "velocity": 89}, {"time": 868, "pitch": 75, "duration": 4, "velocity": 89}, {"time": 871, "pitch": 85, "duration": 4, "velocity": 89}, {"time": 874, "pitch": 87, "duration": 9, "velocity": 90}, {"time": 883, "pitch": 80, "duration": 21, "velocity": 83}, {"time": 883, "pitch": 83, "duration": 20, "velocity": 82}, {"time": 910, "pitch": 75, "duration": 4, "velocity": 78}, {"time": 913, "pitch": 80, "duration": 5, "velocity": 90}, {"time": 916, "pitch": 75, "duration": 4, "velocity": 85}, {"time": 919, "pitch": 78, "duration": 4, "velocity": 89}, {"time": 922, "pitch": 80, "duration": 9, "velocity": 84}, {"time": 925, "pitch": 75, "duration": 6, "velocity": 86}, {"time": 958, "pitch": 54, "duration": 4, "velocity": 89}, {"time": 961, "pitch": 59, "duration": 3, "velocity": 81}, {"time": 964, "pitch": 61, "duration": 5, "velocity": 87}, {"time": 967, "pitch": 63, "duration": 4, "velocity": 90}, {"time": 970, "pitch": 66, "duration": 4, "velocity": 87}, {"time": 973, "pitch": 71, "duration": 3, "velocity": 79}, {"time": 976, "pitch": 73, "duration": 4, "velocity": 92}, {"time": 979, "pitch": 75, "duration": 16, "velocity": 90}, {"time": 1012, "pitch": 68, "duration": 4, "velocity": 72}, {"time": 1015, "pitch": 73, "duration": 4, "velocity": 88}, {"time": 1018, "pitch": 75, "duration": 4, "velocity": 91}, {"time": 1021, "pitch": 73, "duration": 4, "velocity": 79}, {"time": 1024, "pitch": 68, "duration": 4, "velocity": 79}, {"time": 1027, "pitch": 66, "duration": 14, "velocity": 70}, {"time": 1075, "pitch": 63, "duration": 23, "velocity": 80}, {"time": 1075, "pitch": 68, "duration": 35, "velocity": 80}, {"time": 1075, "pitch": 80, "duration": 4, "velocity": 93}, {"time": 1078, "pitch": 82, "duration": 3, "velocity": 93}, {"time": 1081, "pitch": 78, "duration": 3, "velocity": 92}, {"time": 1084, "pitch": 82, "duration": 4, "velocity": 95}, {"time": 1087, "pitch": 80, "duration": 4, "velocity": 95}, {"time": 1090, "pitch": 82, "duration": 3, "velocity": 92}, {"time": 1093, "pitch": 85, "duration": 4, "velocity": 92}, {"time": 1096, "pitch": 82, "duration": 3, "velocity": 94}, {"time": 1099, "pitch": 80, "duration": 4, "velocity": 93}, {"time": 1102, "pitch": 82, "duration": 3, "velocity": 93}, {"time": 1105, "pitch": 78, "duration": 3, "velocity": 92}, {"time": 1108, "pitch": 82, "duration": 4, "velocity": 95}, {"time": 1111, "pitch": 64, "duration": 11, "velocity": 81}, {"time": 1111, "pitch": 68, "duration": 11, "velocity": 83}, {"time": 1111, "pitch": 80, "duration": 4, "velocity": 95}, {"time": 1114, "pitch": 82, "duration": 3, "velocity": 92}, {"time": 1117, "pitch": 80, "duration": 4, "velocity": 92}, {"time": 1120, "pitch": 82, "duration": 3, "velocity": 94}, {"time": 1123, "pitch": 68, "duration": 18, "velocity": 81}, {"time": 1123, "pitch": 80, "duration": 3, "velocity": 90}, {"time": 1126, "pitch": 82, "duration": 4, "velocity": 88}, {"time": 1129, "pitch": 80, "duration": 4, "velocity": 90}, {"time": 1132, "pitch": 82, "duration": 3, "velocity": 88}, {"time": 1135, "pitch": 80, "duration": 3, "velocity": 92}, {"time": 1138, "pitch": 82, "duration": 3, "velocity": 89}, {"time": 1141, "pitch": 66, "duration": 6, "velocity": 95}, {"time": 1141, "pitch": 80, "duration": 3, "velocity": 94}, {"time": 1144, "pitch": 78, "duration": 3, "velocity": 91}, {"time": 1147, "pitch": 63, "duration": 12, "velocity": 83}, {"time": 1147, "pitch": 68, "duration": 13, "velocity": 81}, {"time": 1147, "pitch": 80, "duration": 3, "velocity": 92}, {"time": 1150, "pitch": 82, "duration": 3, "velocity": 81}, {"time": 1153, "pitch": 80, "duration": 3, "velocity": 89}, {"time": 1156, "pitch": 82, "duration": 4, "velocity": 88}, {"time": 1159, "pitch": 61, "duration": 11, "velocity": 84}, {"time": 1159, "pitch": 66, "duration": 12, "velocity": 84}, {"time": 1159, "pitch": 80, "duration": 3, "velocity": 91}, {"time": 1159, "pitch": 85, "duration": 4, "velocity": 97}, {"time": 1162, "pitch": 82, "duration": 4, "velocity": 88}, {"time": 1162, "pitch": 87, "duration": 3, "velocity": 91}, {"time": 1165, "pitch": 80, "duration": 3, "velocity": 90}, {"time": 1165, "pitch": 90, "duration": 7, "velocity": 99}, {"time": 1168, "pitch": 78, "duration": 4, "velocity": 88}, {"time": 1171, "pitch": 87, "duration": 25, "velocity": 92}, {"time": 1207, "pitch": 92, "duration": 7, "velocity": 90}, {"time": 1213, "pitch": 90, "duration": 7, "velocity": 89}, {"time": 1219, "pitch": 85, "duration": 23, "velocity": 92}, {"time": 1249, "pitch": 83, "duration": 4, "velocity": 88}, {"time": 1252, "pitch": 85, "duration": 4, "velocity": 89}, {"time": 1255, "pitch": 83, "duration": 7, "velocity": 88}, {"time": 1261, "pitch": 82, "duration": 4, "velocity": 84}, {"time": 1264, "pitch": 80, "duration": 3, "velocity": 89}, {"time": 1267, "pitch": 78, "duration": 21, "velocity": 88}, {"time": 1303, "pitch": 88, "duration": 7, "velocity": 87}, {"time": 1309, "pitch": 87, "duration": 3, "velocity": 91}, {"time": 1312, "pitch": 85, "duration": 4, "velocity": 90}, {"time": 1315, "pitch": 87, "duration": 23, "velocity": 88}, {"time": 1339, "pitch": 85, "duration": 13, "velocity": 88}, {"time": 1351, "pitch": 82, "duration": 3, "velocity": 83}, {"time": 1354, "pitch": 80, "duration": 3, "velocity": 83}, {"time": 1357, "pitch": 78, "duration": 6, "velocity": 89}, {"time": 1363, "pitch": 80, "duration": 14, "velocity": 91}, {"time": 1375, "pitch": 83, "duration": 4, "velocity": 88}, {"time": 1378, "pitch": 85, "duration": 3, "velocity": 89}, {"time": 1381, "pitch": 83, "duration": 4, "velocity": 89}, {"time": 1384, "pitch": 80, "duration": 4, "velocity": 76}, {"time": 1387, "pitch": 83, "duration": 21, "velocity": 83}, {"time": 1411, "pitch": 80, "duration": 19, "velocity": 77}, {"time": 1411, "pitch": 85, "duration": 18, "velocity": 86}, {"time": 1435, "pitch": 87, "duration": 18, "velocity": 92}, {"time": 1453, "pitch": 85, "duration": 3, "velocity": 90}, {"time": 1456, "pitch": 83, "duration": 4, "velocity": 86}, {"time": 1459, "pitch": 78, "duration": 22, "velocity": 82}, {"time": 1483, "pitch": 83, "duration": 20, "velocity": 89}, {"time": 1507, "pitch": 87, "duration": 24, "velocity": 89}, {"time": 1513, "pitch": 80, "duration": 18, "velocity": 69}, {"time": 1519, "pitch": 83, "duration": 11, "velocity": 76}, {"time": 1537, "pitch": 82, "duration": 10, "velocity": 78}, {"time": 1543, "pitch": 87, "duration": 7, "velocity": 85}, {"time": 1549, "pitch": 85, "duration": 7, "velocity": 82}, {"time": 1555, "pitch": 78, "duration": 22, "velocity": 75}, {"time": 1555, "pitch": 85, "duration": 1, "velocity": 83}, {"time": 1579, "pitch": 80, "duration": 23, "velocity": 92}, {"time": 1603, "pitch": 80, "duration": 13, "velocity": 95}, {"time": 1615, "pitch": 82, "duration": 11, "velocity": 105}, {"time": 1627, "pitch": 80, "duration": 5, "velocity": 97}, {"time": 1633, "pitch": 82, "duration": 5, "velocity": 99}, {"time": 1639, "pitch": 80, "duration": 5, "velocity": 97}, {"time": 1645, "pitch": 78, "duration": 7, "velocity": 93}, {"time": 1651, "pitch": 75, "duration": 6, "velocity": 105}, {"time": 1657, "pitch": 73, "duration": 6, "velocity": 99}, {"time": 1663, "pitch": 78, "duration": 5, "velocity": 95}, {"time": 1669, "pitch": 80, "duration": 6, "velocity": 92}, {"time": 1675, "pitch": 75, "duration": 22, "velocity": 99}, {"time": 1699, "pitch": 80, "duration": 13, "velocity": 95}, {"time": 1711, "pitch": 82, "duration": 11, "velocity": 105}, {"time": 1723, "pitch": 85, "duration": 5, "velocity": 97}, {"time": 1729, "pitch": 82, "duration": 5, "velocity": 99}, {"time": 1735, "pitch": 80, "duration": 5, "velocity": 97}, {"time": 1741, "pitch": 78, "duration": 7, "velocity": 93}, {"time": 1747, "pitch": 75, "duration": 6, "velocity": 105}, {"time": 1753, "pitch": 73, "duration": 6, "velocity": 99}, {"time": 1759, "pitch": 78, "duration": 5, "velocity": 95}, {"time": 1765, "pitch": 75, "duration": 6, "velocity": 92}, {"time": 1771, "pitch": 80, "duration": 22, "velocity": 99}, {"time": 1795, "pitch": 80, "duration": 13, "velocity": 95}, {"time": 1807, "pitch": 82, "duration": 11, "velocity": 105}, {"time": 1819, "pitch": 80, "duration": 5, "velocity": 97}, {"time": 1825, "pitch": 82, "duration": 5, "velocity": 99}, {"time": 1831, "pitch": 80, "duration": 5, "velocity": 97}, {"time": 1837, "pitch": 78, "duration": 7, "velocity": 93}, {"time": 1843, "pitch": 75, "duration": 6, "velocity": 105}, {"time": 1849, "pitch": 73, "duration": 6, "velocity": 99}, {"time": 1855, "pitch": 78, "duration": 5, "velocity": 95}, {"time": 1861, "pitch": 80, "duration": 6, "velocity": 92}, {"time": 1867, "pitch": 75, "duration": 22, "velocity": 99}, {"time": 1891, "pitch": 68, "duration": 12, "velocity": 92}, {"time": 1891, "pitch": 80, "duration": 13, "velocity": 95}, {"time": 1903, "pitch": 68, "duration": 6, "velocity": 94}, {"time": 1903, "pitch": 82, "duration": 11, "velocity": 105}, {"time": 1909, "pitch": 66, "duration": 6, "velocity": 92}, {"time": 1915, "pitch": 66, "duration": 6, "velocity": 90}, {"time": 1915, "pitch": 85, "duration": 5, "velocity": 97}, {"time": 1921, "pitch": 63, "duration": 5, "velocity": 90}, {"time": 1921, "pitch": 82, "duration": 5, "velocity": 99}, {"time": 1927, "pitch": 63, "duration": 6, "velocity": 93}, {"time": 1927, "pitch": 80, "duration": 5, "velocity": 97}, {"time": 1933, "pitch": 61, "duration": 3, "velocity": 99}, {"time": 1933, "pitch": 78, "duration": 7, "velocity": 93}, {"time": 1936, "pitch": 59, "duration": 3, "velocity": 90}, {"time": 1939, "pitch": 63, "duration": 9, "velocity": 92}, {"time": 1939, "pitch": 75, "duration": 6, "velocity": 105}, {"time": 1945, "pitch": 73, "duration": 6, "velocity": 99}, {"time": 1948, "pitch": 66, "duration": 2, "velocity": 95}, {"time": 1951, "pitch": 66, "duration": 7, "velocity": 94}, {"time": 1951, "pitch": 78, "duration": 5, "velocity": 95}, {"time": 1957, "pitch": 58, "duration": 7, "velocity": 80}, {"time": 1957, "pitch": 75, "duration": 6, "velocity": 92}, {"time": 1963, "pitch": 56, "duration": 35, "velocity": 94}, {"time": 1963, "pitch": 80, "duration": 22, "velocity": 99}, {"time": 2011, "pitch": 58, "duration": 24, "velocity": 84}, {"time": 2035, "pitch": 59, "duration": 23, "velocity": 86}, {"time": 2059, "pitch": 60, "duration": 22, "velocity": 88}, {"time": 2083, "pitch": 61, "duration": 48, "velocity": 89}, {"time": 2083, "pitch": 63, "duration": 48, "velocity": 89}, {"time": 2155, "pitch": 75, "duration": 4, "velocity": 102}, {"time": 2158, "pitch": 68, "duration": 8, "velocity": 79}, {"time": 2161, "pitch": 75, "duration": 7, "velocity": 91}, {"time": 2167, "pitch": 73, "duration": 4, "velocity": 86}, {"time": 2170, "pitch": 75, "duration": 9, "velocity": 89}, {"time": 2206, "pitch": 75, "duration": 4, "velocity": 90}, {"time": 2209, "pitch": 78, "duration": 4, "velocity": 90}, {"time": 2212, "pitch": 80, "duration": 4, "velocity": 89}, {"time": 2215, "pitch": 75, "duration": 11, "velocity": 97}, {"time": 2254, "pitch": 68, "duration": 4, "velocity": 70}, {"time": 2257, "pitch": 73, "duration": 9, "velocity": 90}, {"time": 2260, "pitch": 68, "duration": 4, "velocity": 86}, {"time": 2263, "pitch": 61, "duration": 12, "velocity": 89}, {"time": 2266, "pitch": 68, "duration": 9, "velocity": 83}, {"time": 2269, "pitch": 73, "duration": 7, "velocity": 77}, {"time": 2302, "pitch": 75, "duration": 4, "velocity": 94}, {"time": 2305, "pitch": 80, "duration": 7, "velocity": 89}, {"time": 2308, "pitch": 75, "duration": 4, "velocity": 89}, {"time": 2311, "pitch": 85, "duration": 4, "velocity": 89}, {"time": 2314, "pitch": 87, "duration": 9, "velocity": 90}, {"time": 2323, "pitch": 80, "duration": 21, "velocity": 83}, {"time": 2323, "pitch": 83, "duration": 20, "velocity": 82}, {"time": 2350, "pitch": 75, "duration": 4, "velocity": 78}, {"time": 2353, "pitch": 80, "duration": 5, "velocity": 90}, {"time": 2356, "pitch": 75, "duration": 4, "velocity": 85}, {"time": 2359, "pitch": 78, "duration": 4, "velocity": 89}, {"time": 2362, "pitch": 80, "duration": 9, "velocity": 84}, {"time": 2365, "pitch": 75, "duration": 6, "velocity": 86}, {"time": 2398, "pitch": 54, "duration": 4, "velocity": 89}, {"time": 2401, "pitch": 59, "duration": 3, "velocity": 81}, {"time": 2404, "pitch": 61, "duration": 5, "velocity": 87}, {"time": 2407, "pitch": 63, "duration": 4, "velocity": 90}, {"time": 2410, "pitch": 66, "duration": 4, "velocity": 87}, {"time": 2413, "pitch": 71, "duration": 3, "velocity": 79}, {"time": 2416, "pitch": 73, "duration": 4, "velocity": 92}, {"time": 2419, "pitch": 75, "duration": 16, "velocity": 90}, {"time": 2452, "pitch": 68, "duration": 4, "velocity": 72}, {"time": 2455, "pitch": 73, "duration": 4, "velocity": 88}, {"time": 2458, "pitch": 75, "duration": 4, "velocity": 91}, {"time": 2461, "pitch": 73, "duration": 4, "velocity": 79}, {"time": 2464, "pitch": 68, "duration": 4, "velocity": 79}, {"time": 2467, "pitch": 66, "duration": 14, "velocity": 70}, {"time": 2515, "pitch": 63, "duration": 23, "velocity": 80}, {"time": 2515, "pitch": 68, "duration": 35, "velocity": 80}, {"time": 2515, "pitch": 80, "duration": 4, "velocity": 93}, {"time": 2518, "pitch": 82, "duration": 3, "velocity": 93}, {"time": 2521, "pitch": 78, "duration": 3, "velocity": 92}, {"time": 2524, "pitch": 82, "duration": 4, "velocity": 95}, {"time": 2527, "pitch": 80, "duration": 4, "velocity": 95}, {"time": 2530, "pitch": 82, "duration": 3, "velocity": 92}, {"time": 2533, "pitch": 85, "duration": 4, "velocity": 92}, {"time": 2536, "pitch": 82, "duration": 3, "velocity": 94}, {"time": 2539, "pitch": 80, "duration": 4, "velocity": 93}, {"time": 2542, "pitch": 82, "duration": 3, "velocity": 93}, {"time": 2545, "pitch": 78, "duration": 3, "velocity": 92}, {"time": 2548, "pitch": 82, "duration": 4, "velocity": 95}, {"time": 2551, "pitch": 64, "duration": 11, "velocity": 81}, {"time": 2551, "pitch": 68, "duration": 11, "velocity": 83}, {"time": 2551, "pitch": 80, "duration": 4, "velocity": 95}, {"time": 2554, "pitch": 82, "duration": 3, "velocity": 92}, {"time": 2557, "pitch": 80, "duration": 4, "velocity": 92}, {"time": 2560, "pitch": 82, "duration": 3, "velocity": 94}, {"time": 2563, "pitch": 68, "duration": 18, "velocity": 81}, {"time": 2563, "pitch": 80, "duration": 3, "velocity": 90}, {"time": 2566, "pitch": 82, "duration": 4, "velocity": 88}, {"time": 2569, "pitch": 80, "duration": 4, "velocity": 90}, {"time": 2572, "pitch": 82, "duration": 3, "velocity": 88}, {"time": 2575, "pitch": 80, "duration": 3, "velocity": 92}, {"time": 2578, "pitch": 82, "duration": 3, "velocity": 89}, {"time": 2581, "pitch": 66, "duration": 6, "velocity": 95}, {"time": 2581, "pitch": 80, "duration": 3, "velocity": 94}, {"time": 2584, "pitch": 78, "duration": 3, "velocity": 91}, {"time": 2587, "pitch": 63, "duration": 12, "velocity": 83}, {"time": 2587, "pitch": 68, "duration": 13, "velocity": 81}, {"time": 2587, "pitch": 80, "duration": 3, "velocity": 92}, {"time": 2590, "pitch": 82, "duration": 3, "velocity": 81}, {"time": 2593, "pitch": 80, "duration": 3, "velocity": 89}, {"time": 2596, "pitch": 82, "duration": 4, "velocity": 88}, {"time": 2599, "pitch": 61, "duration": 11, "velocity": 84}, {"time": 2599, "pitch": 66, "duration": 12, "velocity": 84}, {"time": 2599, "pitch": 80, "duration": 3, "velocity": 91}, {"time": 2599, "pitch": 85, "duration": 4, "velocity": 97}, {"time": 2602, "pitch": 82, "duration": 4, "velocity": 88}, {"time": 2602, "pitch": 87, "duration": 3, "velocity": 91}, {"time": 2605, "pitch": 80, "duration": 3, "velocity": 90}, {"time": 2605, "pitch": 90, "duration": 7, "velocity": 99}, {"time": 2608, "pitch": 78, "duration": 4, "velocity": 88}, {"time": 2611, "pitch": 87, "duration": 25, "velocity": 92}, {"time": 2647, "pitch": 92, "duration": 7, "velocity": 90}, {"time": 2653, "pitch": 90, "duration": 7, "velocity": 89}, {"time": 2659, "pitch": 85, "duration": 23, "velocity": 92}, {"time": 2689, "pitch": 83, "duration": 4, "velocity": 88}, {"time": 2692, "pitch": 85, "duration": 4, "velocity": 89}, {"time": 2695, "pitch": 83, "duration": 7, "velocity": 88}, {"time": 2701, "pitch": 82, "duration": 4, "velocity": 84}, {"time": 2704, "pitch": 80, "duration": 3, "velocity": 89}, {"time": 2707, "pitch": 78, "duration": 21, "velocity": 88}, {"time": 2743, "pitch": 88, "duration": 7, "velocity": 87}, {"time": 2749, "pitch": 87, "duration": 3, "velocity": 91}, {"time": 2752, "pitch": 85, "duration": 4, "velocity": 90}, {"time": 2755, "pitch": 87, "duration": 23, "velocity": 88}, {"time": 2779, "pitch": 85, "duration": 13, "velocity": 88}, {"time": 2791, "pitch": 82, "duration": 3, "velocity": 83}, {"time": 2794, "pitch": 80, "duration": 3, "velocity": 83}, {"time": 2797, "pitch": 78, "duration": 6, "velocity": 89}, {"time": 2803, "pitch": 80, "duration": 14, "velocity": 91}, {"time": 2815, "pitch": 83, "duration": 4, "velocity": 88}, {"time": 2818, "pitch": 85, "duration": 3, "velocity": 89}, {"time": 2821, "pitch": 83, "duration": 4, "velocity": 89}, {"time": 2824, "pitch": 80, "duration": 4, "velocity": 76}, {"time": 2827, "pitch": 83, "duration": 21, "velocity": 83}, {"time": 2851, "pitch": 80, "duration": 19, "velocity": 77}, {"time": 2851, "pitch": 85, "duration": 18, "velocity": 86}, {"time": 2875, "pitch": 87, "duration": 18, "velocity": 92}, {"time": 2893, "pitch": 85, "duration": 3, "velocity": 90}, {"time": 2896, "pitch": 83, "duration": 4, "velocity": 86}, {"time": 2899, "pitch": 78, "duration": 22, "velocity": 82}, {"time": 2923, "pitch": 83, "duration": 20, "velocity": 89}, {"time": 2947, "pitch": 87, "duration": 24, "velocity": 89}, {"time": 2953, "pitch": 80, "duration": 18, "velocity": 69}, {"time": 2959, "pitch": 83, "duration": 11, "velocity": 76}, {"time": 2977, "pitch": 82, "duration": 10, "velocity": 78}, {"time": 2983, "pitch": 87, "duration": 7, "velocity": 85}, {"time": 2989, "pitch": 85, "duration": 7, "velocity": 82}, {"time": 2995, "pitch": 78, "duration": 22, "velocity": 75}, {"time": 2995, "pitch": 85, "duration": 1, "velocity": 83}, {"time": 3019, "pitch": 80, "duration": 23, "velocity": 92}, {"time": 3043, "pitch": 87, "duration": 25, "velocity": 92}, {"time": 3079, "pitch": 92, "duration": 7, "velocity": 90}, {"time": 3085, "pitch": 90, "duration": 7, "velocity": 89}, {"time": 3091, "pitch": 85, "duration": 23, "velocity": 92}, {"time": 3121, "pitch": 83, "duration": 4, "velocity": 88}, {"time": 3124, "pitch": 85, "duration": 4, "velocity": 89}, {"time": 3127, "pitch": 83, "duration": 7, "velocity": 88}, {"time": 3133, "pitch": 82, "duration": 4, "velocity": 84}, {"time": 3136, "pitch": 80, "duration": 3, "velocity": 89}, {"time": 3139, "pitch": 78, "duration": 21, "velocity": 88}, {"time": 3175, "pitch": 88, "duration": 7, "velocity": 87}, {"time": 3181, "pitch": 87, "duration": 3, "velocity": 91}, {"time": 3184, "pitch": 85, "duration": 4, "velocity": 90}, {"time": 3187, "pitch": 87, "duration": 23, "velocity": 88}, {"time": 3211, "pitch": 85, "duration": 13, "velocity": 88}, {"time": 3223, "pitch": 82, "duration": 3, "velocity": 83}, {"time": 3226, "pitch": 80, "duration": 3, "velocity": 83}, {"time": 3229, "pitch": 78, "duration": 6, "velocity": 89}, {"time": 3235, "pitch": 80, "duration": 14, "velocity": 91}, {"time": 3247, "pitch": 83, "duration": 4, "velocity": 88}, {"time": 3250, "pitch": 85, "duration": 3, "velocity": 89}, {"time": 3253, "pitch": 83, "duration": 4, "velocity": 89}, {"time": 3256, "pitch": 80, "duration": 4, "velocity": 76}, {"time": 3259, "pitch": 83, "duration": 21, "velocity": 83}, {"time": 3283, "pitch": 80, "duration": 19, "velocity": 77}, {"time": 3283, "pitch": 85, "duration": 18, "velocity": 86}, {"time": 3307, "pitch": 87, "duration": 18, "velocity": 92}, {"time": 3325, "pitch": 85, "duration": 3, "velocity": 90}, {"time": 3328, "pitch": 83, "duration": 4, "velocity": 86}, {"time": 3331, "pitch": 78, "duration": 22, "velocity": 82}, {"time": 3355, "pitch": 83, "duration": 20, "velocity": 89}, {"time": 3379, "pitch": 87, "duration": 24, "velocity": 89}, {"time": 3385, "pitch": 80, "duration": 18, "velocity": 69}, {"time": 3391, "pitch": 83, "duration": 11, "velocity": 76}, {"time": 3409, "pitch": 82, "duration": 10, "velocity": 78}, {"time": 3415, "pitch": 87, "duration": 7, "velocity": 85}, {"time": 3421, "pitch": 85, "duration": 7, "velocity": 82}, {"time": 3427, "pitch": 78, "duration": 22, "velocity": 75}, {"time": 3427, "pitch": 85, "duration": 1, "velocity": 83}, {"time": 3451, "pitch": 80, "duration": 23, "velocity": 92}, {"time": 3475, "pitch": 68, "duration": 3, "velocity": 92}, {"time": 3478, "pitch": 66, "duration": 4, "velocity": 86}, {"time": 3481, "pitch": 68, "duration": 4, "velocity": 90}, {"time": 3484, "pitch": 66, "duration": 4, "velocity": 85}, {"time": 3487, "pitch": 68, "duration": 4, "velocity": 90}, {"time": 3490, "pitch": 66, "duration": 4, "velocity": 85}, {"time": 3493, "pitch": 68, "duration": 4, "velocity": 85}, {"time": 3496, "pitch": 71, "duration": 4, "velocity": 87}, {"time": 3499, "pitch": 73, "duration": 4, "velocity": 88}, {"time": 3502, "pitch": 75, "duration": 4, "velocity": 95}, {"time": 3505, "pitch": 73, "duration": 3, "velocity": 89}, {"time": 3508, "pitch": 75, "duration": 4, "velocity": 94}, {"time": 3511, "pitch": 73, "duration": 4, "velocity": 88}, {"time": 3514, "pitch": 75, "duration": 4, "velocity": 93}, {"time": 3517, "pitch": 73, "duration": 3, "velocity": 91}, {"time": 3520, "pitch": 66, "duration": 3, "velocity": 93}, {"time": 3523, "pitch": 68, "duration": 3, "velocity": 84}, {"time": 3526, "pitch": 66, "duration": 4, "velocity": 88}, {"time": 3529, "pitch": 68, "duration": 4, "velocity": 87}, {"time": 3532, "pitch": 66, "duration": 4, "velocity": 84}, {"time": 3535, "pitch": 68, "duration": 4, "velocity": 82}, {"time": 3538, "pitch": 66, "duration": 4, "velocity": 85}, {"time": 3541, "pitch": 68, "duration": 4, "velocity": 83}, {"time": 3544, "pitch": 66, "duration": 3, "velocity": 73}, {"time": 3547, "pitch": 68, "duration": 9, "velocity": 82}, {"time": 3547, "pitch": 90, "duration": 7, "velocity": 86}, {"time": 3553, "pitch": 92, "duration": 7, "velocity": 93}, {"time": 3559, "pitch": 73, "duration": 6, "velocity": 92}, {"time": 3565, "pitch": 90, "duration": 6, "velocity": 93}, {"time": 3571, "pitch": 68, "duration": 3, "velocity": 92}, {"time": 3571, "pitch": 92, "duration": 36, "velocity": 95}, {"time": 3574, "pitch": 66, "duration": 4, "velocity": 86}, {"time": 3577, "pitch": 68, "duration": 4, "velocity": 90}, {"time": 3580, "pitch": 66, "duration": 4, "velocity": 85}, {"time": 3583, "pitch": 68, "duration": 4, "velocity": 90}, {"time": 3586, "pitch": 66, "duration": 4, "velocity": 85}, {"time": 3589, "pitch": 68, "duration": 4, "velocity": 85}, {"time": 3592, "pitch": 71, "duration": 4, "velocity": 87}, {"time": 3595, "pitch": 73, "duration": 4, "velocity": 88}, {"time": 3598, "pitch": 75, "duration": 4, "velocity": 95}, {"time": 3601, "pitch": 73, "duration": 3, "velocity": 89}, {"time": 3604, "pitch": 75, "duration": 4, "velocity": 94}, {"time": 3607, "pitch": 73, "duration": 4, "velocity": 88}, {"time": 3607, "pitch": 90, "duration": 13, "velocity": 95}, {"time": 3610, "pitch": 75, "duration": 4, "velocity": 93}, {"time": 3613, "pitch": 73, "duration": 3, "velocity": 91}, {"time": 3616, "pitch": 66, "duration": 3, "velocity": 93}, {"time": 3619, "pitch": 68, "duration": 3, "velocity": 84}, {"time": 3619, "pitch": 92, "duration": 24, "velocity": 97}, {"time": 3622, "pitch": 66, "duration": 4, "velocity": 88}, {"time": 3625, "pitch": 68, "duration": 4, "velocity": 87}, {"time": 3628, "pitch": 66, "duration": 4, "velocity": 84}, {"time": 3631, "pitch": 68, "duration": 4, "velocity": 82}, {"time": 3634, "pitch": 66, "duration": 4, "velocity": 85}, {"time": 3637, "pitch": 68, "duration": 4, "velocity": 83}, {"time": 3640, "pitch": 66, "duration": 3, "velocity": 73}, {"time": 3643, "pitch": 68, "duration": 9, "velocity": 82}, {"time": 3643, "pitch": 90, "duration": 7, "velocity": 93}, {"time": 3649, "pitch": 92, "duration": 6, "velocity": 93}, {"time": 3655, "pitch": 73, "duration": 7, "velocity": 92}, {"time": 3661, "pitch": 90, "duration": 7, "velocity": 91}, {"time": 3667, "pitch": 75, "duration": 6, "velocity": 97}, {"time": 3673, "pitch": 92, "duration": 30, "velocity": 93}, {"time": 3679, "pitch": 75, "duration": 7, "velocity": 99}, {"time": 3685, "pitch": 73, "duration": 7, "velocity": 95}, {"time": 3691, "pitch": 71, "duration": 6, "velocity": 94}, {"time": 3697, "pitch": 73, "duration": 6, "velocity": 95}, {"time": 3703, "pitch": 73, "duration": 6, "velocity": 88}, {"time": 3704, "pitch": 90, "duration": 12, "velocity": 93}, {"time": 3709, "pitch": 68, "duration": 6, "velocity": 90}, {"time": 3715, "pitch": 70, "duration": 18, "velocity": 92}, {"time": 3715, "pitch": 92, "duration": 24, "velocity": 89}]}, {"program": 0, "is_drum": false, "name": "PIANO", "notes": [{"time": 20, "pitch": 56, "duration": 44, "velocity": 79}, {"time": 20, "pitch": 44, "duration": 45, "velocity": 87}, {"time": 20, "pitch": 59, "duration": 44, "velocity": 71}, {"time": 21, "pitch": 63, "duration": 43, "velocity": 71}, {"time": 66, "pitch": 56, "duration": 46, "velocity": 66}, {"time": 67, "pitch": 59, "duration": 45, "velocity": 65}, {"time": 67, "pitch": 44, "duration": 41, "velocity": 73}, {"time": 68, "pitch": 63, "duration": 43, "velocity": 75}, {"time": 114, "pitch": 56, "duration": 45, "velocity": 72}, {"time": 115, "pitch": 59, "duration": 44, "velocity": 68}, {"time": 115, "pitch": 40, "duration": 45, "velocity": 78}, {"time": 115, "pitch": 64, "duration": 44, "velocity": 71}, {"time": 162, "pitch": 56, "duration": 44, "velocity": 64}, {"time": 163, "pitch": 59, "duration": 43, "velocity": 73}, {"time": 163, "pitch": 40, "duration": 39, "velocity": 79}, {"time": 163, "pitch": 64, "duration": 43, "velocity": 77}, {"time": 210, "pitch": 56, "duration": 14, "velocity": 55}, {"time": 210, "pitch": 59, "duration": 17, "velocity": 76}, {"time": 211, "pitch": 44, "duration": 35, "velocity": 80}, {"time": 211, "pitch": 63, "duration": 23, "velocity": 58}, {"time": 223, "pitch": 51, "duration": 23, "velocity": 75}, {"time": 226, "pitch": 56, "duration": 8, "velocity": 75}, {"time": 229, "pitch": 59, "duration": 5, "velocity": 74}, {"time": 235, "pitch": 56, "duration": 9, "velocity": 79}, {"time": 235, "pitch": 63, "duration": 24, "velocity": 83}, {"time": 235, "pitch": 59, "duration": 9, "velocity": 79}, {"time": 247, "pitch": 54, "duration": 8, "velocity": 84}, {"time": 247, "pitch": 42, "duration": 11, "velocity": 88}, {"time": 247, "pitch": 58, "duration": 12, "velocity": 83}, {"time": 259, "pitch": 56, "duration": 11, "velocity": 82}, {"time": 259, "pitch": 59, "duration": 7, "velocity": 76}, {"time": 259, "pitch": 44, "duration": 18, "velocity": 88}, {"time": 265, "pitch": 51, "duration": 8, "velocity": 77}, {"time": 271, "pitch": 59, "duration": 3, "velocity": 76}, {"time": 271, "pitch": 63, "duration": 3, "velocity": 85}, {"time": 281, "pitch": 56, "duration": 8, "velocity": 75}, {"time": 282, "pitch": 59, "duration": 7, "velocity": 71}, {"time": 283, "pitch": 63, "duration": 6, "velocity": 77}, {"time": 283, "pitch": 68, "duration": 5, "velocity": 83}, {"time": 283, "pitch": 44, "duration": 10, "velocity": 88}, {"time": 289, "pitch": 51, "duration": 4, "velocity": 73}, {"time": 295, "pitch": 42, "duration": 6, "velocity": 88}, {"time": 295, "pitch": 54, "duration": 4, "velocity": 87}, {"time": 295, "pitch": 58, "duration": 5, "velocity": 84}, {"time": 306, "pitch": 56, "duration": 8, "velocity": 73}, {"time": 307, "pitch": 59, "duration": 7, "velocity": 86}, {"time": 307, "pitch": 44, "duration": 32, "velocity": 85}, {"time": 308, "pitch": 63, "duration": 5, "velocity": 80}, {"time": 313, "pitch": 51, "duration": 7, "velocity": 75}, {"time": 318, "pitch": 56, "duration": 8, "velocity": 79}, {"time": 325, "pitch": 51, "duration": 13, "velocity": 64}, {"time": 331, "pitch": 59, "duration": 6, "velocity": 86}, {"time": 331, "pitch": 63, "duration": 6, "velocity": 88}, {"time": 342, "pitch": 54, "duration": 3, "velocity": 75}, {"time": 343, "pitch": 58, "duration": 3, "velocity": 76}, {"time": 343, "pitch": 42, "duration": 5, "velocity": 89}, {"time": 343, "pitch": 61, "duration": 4, "velocity": 79}, {"time": 354, "pitch": 56, "duration": 3, "velocity": 77}, {"time": 354, "pitch": 59, "duration": 7, "velocity": 76}, {"time": 355, "pitch": 44, "duration": 33, "velocity": 88}, {"time": 355, "pitch": 63, "duration": 6, "velocity": 83}, {"time": 356, "pitch": 68, "duration": 5, "velocity": 71}, {"time": 361, "pitch": 51, "duration": 8, "velocity": 73}, {"time": 367, "pitch": 56, "duration": 7, "velocity": 89}, {"time": 373, "pitch": 51, "duration": 16, "velocity": 72}, {"time": 379, "pitch": 59, "duration": 7, "velocity": 88}, {"time": 379, "pitch": 63, "duration": 8, "velocity": 89}, {"time": 379, "pitch": 56, "duration": 8, "velocity": 88}, {"time": 391, "pitch": 54, "duration": 4, "velocity": 85}, {"time": 391, "pitch": 58, "duration": 4, "velocity": 83}, {"time": 391, "pitch": 42, "duration": 4, "velocity": 86}, {"time": 403, "pitch": 56, "duration": 8, "velocity": 82}, {"time": 403, "pitch": 59, "duration": 12, "velocity": 79}, {"time": 403, "pitch": 40, "duration": 29, "velocity": 92}, {"time": 404, "pitch": 64, "duration": 11, "velocity": 80}, {"time": 409, "pitch": 47, "duration": 22, "velocity": 73}, {"time": 415, "pitch": 56, "duration": 14, "velocity": 94}, {"time": 421, "pitch": 59, "duration": 4, "velocity": 89}, {"time": 427, "pitch": 59, "duration": 5, "velocity": 87}, {"time": 427, "pitch": 64, "duration": 5, "velocity": 81}, {"time": 439, "pitch": 54, "duration": 5, "velocity": 83}, {"time": 439, "pitch": 58, "duration": 5, "velocity": 86}, {"time": 439, "pitch": 42, "duration": 6, "velocity": 88}, {"time": 450, "pitch": 56, "duration": 12, "velocity": 77}, {"time": 451, "pitch": 59, "duration": 8, "velocity": 80}, {"time": 451, "pitch": 44, "duration": 34, "velocity": 89}, {"time": 452, "pitch": 63, "duration": 7, "velocity": 87}, {"time": 457, "pitch": 51, "duration": 10, "velocity": 77}, {"time": 463, "pitch": 59, "duration": 5, "velocity": 90}, {"time": 463, "pitch": 63, "duration": 8, "velocity": 89}, {"time": 469, "pitch": 51, "duration": 16, "velocity": 82}, {"time": 473, "pitch": 56, "duration": 2, "velocity": 74}, {"time": 474, "pitch": 59, "duration": 1, "velocity": 77}, {"time": 475, "pitch": 63, "duration": 1, "velocity": 81}, {"time": 475, "pitch": 68, "duration": 3, "velocity": 81}, {"time": 481, "pitch": 56, "duration": 3, "velocity": 72}, {"time": 487, "pitch": 42, "duration": 7, "velocity": 88}, {"time": 487, "pitch": 58, "duration": 8, "velocity": 89}, {"time": 487, "pitch": 54, "duration": 7, "velocity": 84}, {"time": 499, "pitch": 56, "duration": 12, "velocity": 83}, {"time": 499, "pitch": 59, "duration": 10, "velocity": 87}, {"time": 500, "pitch": 40, "duration": 25, "velocity": 89}, {"time": 500, "pitch": 64, "duration": 9, "velocity": 78}, {"time": 505, "pitch": 47, "duration": 20, "velocity": 76}, {"time": 511, "pitch": 59, "duration": 5, "velocity": 88}, {"time": 511, "pitch": 64, "duration": 6, "velocity": 84}, {"time": 517, "pitch": 56, "duration": 5, "velocity": 76}, {"time": 523, "pitch": 59, "duration": 5, "velocity": 88}, {"time": 523, "pitch": 64, "duration": 5, "velocity": 79}, {"time": 533, "pitch": 54, "duration": 3, "velocity": 76}, {"time": 534, "pitch": 58, "duration": 7, "velocity": 76}, {"time": 535, "pitch": 61, "duration": 6, "velocity": 83}, {"time": 535, "pitch": 42, "duration": 6, "velocity": 88}, {"time": 535, "pitch": 66, "duration": 7, "velocity": 82}, {"time": 546, "pitch": 56, "duration": 2, "velocity": 78}, {"time": 546, "pitch": 59, "duration": 7, "velocity": 75}, {"time": 547, "pitch": 44, "duration": 21, "velocity": 89}, {"time": 547, "pitch": 63, "duration": 8, "velocity": 82}, {"time": 553, "pitch": 51, "duration": 14, "velocity": 63}, {"time": 559, "pitch": 59, "duration": 5, "velocity": 90}, {"time": 559, "pitch": 63, "duration": 6, "velocity": 88}, {"time": 559, "pitch": 56, "duration": 3, "velocity": 80}, {"time": 569, "pitch": 56, "duration": 2, "velocity": 76}, {"time": 570, "pitch": 59, "duration": 3, "velocity": 76}, {"time": 570, "pitch": 63, "duration": 4, "velocity": 77}, {"time": 571, "pitch": 44, "duration": 7, "velocity": 87}, {"time": 571, "pitch": 68, "duration": 4, "velocity": 79}, {"time": 577, "pitch": 51, "duration": 5, "velocity": 83}, {"time": 582, "pitch": 54, "duration": 5, "velocity": 74}, {"time": 583, "pitch": 58, "duration": 4, "velocity": 77}, {"time": 583, "pitch": 42, "duration": 5, "velocity": 87}, {"time": 583, "pitch": 61, "duration": 4, "velocity": 81}, {"time": 594, "pitch": 56, "duration": 8, "velocity": 77}, {"time": 595, "pitch": 59, "duration": 8, "velocity": 78}, {"time": 595, "pitch": 44, "duration": 41, "velocity": 89}, {"time": 595, "pitch": 63, "duration": 7, "velocity": 77}, {"time": 596, "pitch": 68, "duration": 7, "velocity": 81}, {"time": 601, "pitch": 51, "duration": 33, "velocity": 75}, {"time": 607, "pitch": 59, "duration": 3, "velocity": 73}, {"time": 607, "pitch": 63, "duration": 4, "velocity": 82}, {"time": 617, "pitch": 56, "duration": 2, "velocity": 75}, {"time": 618, "pitch": 59, "duration": 2, "velocity": 76}, {"time": 619, "pitch": 63, "duration": 1, "velocity": 77}, {"time": 619, "pitch": 68, "duration": 2, "velocity": 84}, {"time": 631, "pitch": 59, "duration": 5, "velocity": 73}, {"time": 631, "pitch": 56, "duration": 4, "velocity": 76}, {"time": 631, "pitch": 63, "duration": 5, "velocity": 84}, {"time": 642, "pitch": 56, "duration": 9, "velocity": 74}, {"time": 642, "pitch": 59, "duration": 9, "velocity": 75}, {"time": 643, "pitch": 63, "duration": 8, "velocity": 77}, {"time": 643, "pitch": 44, "duration": 41, "velocity": 89}, {"time": 644, "pitch": 68, "duration": 7, "velocity": 82}, {"time": 649, "pitch": 51, "duration": 35, "velocity": 79}, {"time": 655, "pitch": 59, "duration": 7, "velocity": 76}, {"time": 660, "pitch": 63, "duration": 3, "velocity": 81}, {"time": 666, "pitch": 56, "duration": 22, "velocity": 78}, {"time": 666, "pitch": 59, "duration": 22, "velocity": 75}, {"time": 667, "pitch": 63, "duration": 21, "velocity": 83}, {"time": 668, "pitch": 68, "duration": 21, "velocity": 80}, {"time": 691, "pitch": 44, "duration": 23, "velocity": 90}, {"time": 694, "pitch": 51, "duration": 20, "velocity": 84}, {"time": 697, "pitch": 56, "duration": 4, "velocity": 88}, {"time": 700, "pitch": 58, "duration": 4, "velocity": 89}, {"time": 703, "pitch": 59, "duration": 3, "velocity": 90}, {"time": 706, "pitch": 63, "duration": 3, "velocity": 86}, {"time": 709, "pitch": 70, "duration": 4, "velocity": 90}, {"time": 712, "pitch": 68, "duration": 7, "velocity": 89}, {"time": 715, "pitch": 44, "duration": 20, "velocity": 80}, {"time": 715, "pitch": 63, "duration": 10, "velocity": 80}, {"time": 721, "pitch": 51, "duration": 13, "velocity": 63}, {"time": 727, "pitch": 56, "duration": 12, "velocity": 83}, {"time": 727, "pitch": 59, "duration": 12, "velocity": 83}, {"time": 727, "pitch": 63, "duration": 12, "velocity": 89}, {"time": 739, "pitch": 44, "duration": 10, "velocity": 89}, {"time": 742, "pitch": 51, "duration": 7, "velocity": 83}, {"time": 745, "pitch": 56, "duration": 4, "velocity": 91}, {"time": 748, "pitch": 58, "duration": 3, "velocity": 80}, {"time": 751, "pitch": 42, "duration": 10, "velocity": 88}, {"time": 751, "pitch": 54, "duration": 5, "velocity": 81}, {"time": 751, "pitch": 58, "duration": 6, "velocity": 88}, {"time": 754, "pitch": 49, "duration": 7, "velocity": 78}, {"time": 757, "pitch": 54, "duration": 4, "velocity": 84}, {"time": 760, "pitch": 58, "duration": 4, "velocity": 89}, {"time": 763, "pitch": 47, "duration": 20, "velocity": 88}, {"time": 763, "pitch": 59, "duration": 5, "velocity": 84}, {"time": 766, "pitch": 51, "duration": 18, "velocity": 80}, {"time": 769, "pitch": 54, "duration": 17, "velocity": 88}, {"time": 772, "pitch": 59, "duration": 17, "velocity": 74}, {"time": 775, "pitch": 63, "duration": 16, "velocity": 88}, {"time": 787, "pitch": 44, "duration": 22, "velocity": 90}, {"time": 790, "pitch": 51, "duration": 18, "velocity": 81}, {"time": 793, "pitch": 56, "duration": 10, "velocity": 89}, {"time": 796, "pitch": 59, "duration": 7, "velocity": 91}, {"time": 799, "pitch": 68, "duration": 7, "velocity": 90}, {"time": 802, "pitch": 63, "duration": 6, "velocity": 84}, {"time": 805, "pitch": 56, "duration": 4, "velocity": 84}, {"time": 811, "pitch": 49, "duration": 20, "velocity": 89}, {"time": 811, "pitch": 56, "duration": 2, "velocity": 83}, {"time": 811, "pitch": 61, "duration": 4, "velocity": 86}, {"time": 814, "pitch": 56, "duration": 10, "velocity": 81}, {"time": 817, "pitch": 61, "duration": 7, "velocity": 83}, {"time": 820, "pitch": 64, "duration": 4, "velocity": 82}, {"time": 823, "pitch": 68, "duration": 8, "velocity": 90}, {"time": 826, "pitch": 64, "duration": 6, "velocity": 81}, {"time": 829, "pitch": 56, "duration": 2, "velocity": 72}, {"time": 835, "pitch": 49, "duration": 11, "velocity": 93}, {"time": 835, "pitch": 56, "duration": 2, "velocity": 82}, {"time": 835, "pitch": 61, "duration": 4, "velocity": 82}, {"time": 838, "pitch": 56, "duration": 5, "velocity": 83}, {"time": 841, "pitch": 61, "duration": 5, "velocity": 81}, {"time": 847, "pitch": 49, "duration": 8, "velocity": 89}, {"time": 847, "pitch": 56, "duration": 2, "velocity": 78}, {"time": 847, "pitch": 61, "duration": 4, "velocity": 83}, {"time": 847, "pitch": 65, "duration": 7, "velocity": 88}, {"time": 850, "pitch": 56, "duration": 11, "velocity": 81}, {"time": 853, "pitch": 61, "duration": 6, "velocity": 79}, {"time": 859, "pitch": 44, "duration": 22, "velocity": 91}, {"time": 862, "pitch": 51, "duration": 19, "velocity": 80}, {"time": 865, "pitch": 56, "duration": 10, "velocity": 85}, {"time": 868, "pitch": 59, "duration": 8, "velocity": 86}, {"time": 871, "pitch": 63, "duration": 4, "velocity": 88}, {"time": 874, "pitch": 68, "duration": 16, "velocity": 89}, {"time": 877, "pitch": 63, "duration": 10, "velocity": 84}, {"time": 883, "pitch": 44, "duration": 23, "velocity": 93}, {"time": 886, "pitch": 51, "duration": 20, "velocity": 79}, {"time": 889, "pitch": 56, "duration": 7, "velocity": 86}, {"time": 892, "pitch": 59, "duration": 4, "velocity": 88}, {"time": 895, "pitch": 63, "duration": 4, "velocity": 87}, {"time": 898, "pitch": 59, "duration": 4, "velocity": 85}, {"time": 901, "pitch": 63, "duration": 14, "velocity": 88}, {"time": 907, "pitch": 44, "duration": 21, "velocity": 88}, {"time": 907, "pitch": 68, "duration": 8, "velocity": 85}, {"time": 910, "pitch": 51, "duration": 18, "velocity": 76}, {"time": 913, "pitch": 56, "duration": 8, "velocity": 86}, {"time": 916, "pitch": 59, "duration": 4, "velocity": 77}, {"time": 919, "pitch": 63, "duration": 5, "velocity": 84}, {"time": 922, "pitch": 59, "duration": 5, "velocity": 86}, {"time": 925, "pitch": 63, "duration": 7, "velocity": 87}, {"time": 928, "pitch": 59, "duration": 4, "velocity": 32}, {"time": 931, "pitch": 40, "duration": 10, "velocity": 94}, {"time": 934, "pitch": 47, "duration": 8, "velocity": 80}, {"time": 937, "pitch": 56, "duration": 8, "velocity": 88}, {"time": 940, "pitch": 59, "duration": 5, "velocity": 81}, {"time": 943, "pitch": 42, "duration": 10, "velocity": 90}, {"time": 946, "pitch": 49, "duration": 8, "velocity": 84}, {"time": 949, "pitch": 54, "duration": 7, "velocity": 90}, {"time": 955, "pitch": 47, "duration": 18, "velocity": 89}, {"time": 958, "pitch": 54, "duration": 15, "velocity": 70}, {"time": 961, "pitch": 59, "duration": 7, "velocity": 86}, {"time": 964, "pitch": 63, "duration": 4, "velocity": 84}, {"time": 967, "pitch": 66, "duration": 19, "velocity": 90}, {"time": 970, "pitch": 63, "duration": 9, "velocity": 81}, {"time": 973, "pitch": 59, "duration": 6, "velocity": 69}, {"time": 979, "pitch": 44, "duration": 23, "velocity": 90}, {"time": 982, "pitch": 51, "duration": 19, "velocity": 84}, {"time": 985, "pitch": 56, "duration": 10, "velocity": 87}, {"time": 988, "pitch": 59, "duration": 5, "velocity": 92}, {"time": 991, "pitch": 68, "duration": 7, "velocity": 90}, {"time": 994, "pitch": 63, "duration": 13, "velocity": 86}, {"time": 997, "pitch": 56, "duration": 8, "velocity": 84}, {"time": 1003, "pitch": 49, "duration": 19, "velocity": 94}, {"time": 1006, "pitch": 56, "duration": 4, "velocity": 83}, {"time": 1009, "pitch": 61, "duration": 7, "velocity": 89}, {"time": 1012, "pitch": 56, "duration": 4, "velocity": 82}, {"time": 1015, "pitch": 65, "duration": 20, "velocity": 92}, {"time": 1018, "pitch": 61, "duration": 9, "velocity": 80}, {"time": 1021, "pitch": 56, "duration": 8, "velocity": 79}, {"time": 1027, "pitch": 42, "duration": 21, "velocity": 90}, {"time": 1030, "pitch": 49, "duration": 18, "velocity": 82}, {"time": 1033, "pitch": 54, "duration": 10, "velocity": 82}, {"time": 1036, "pitch": 58, "duration": 7, "velocity": 84}, {"time": 1039, "pitch": 66, "duration": 16, "velocity": 90}, {"time": 1042, "pitch": 61, "duration": 11, "velocity": 88}, {"time": 1045, "pitch": 58, "duration": 8, "velocity": 79}, {"time": 1048, "pitch": 54, "duration": 4, "velocity": 67}, {"time": 1051, "pitch": 44, "duration": 23, "velocity": 90}, {"time": 1054, "pitch": 51, "duration": 20, "velocity": 79}, {"time": 1057, "pitch": 56, "duration": 10, "velocity": 87}, {"time": 1060, "pitch": 59, "duration": 5, "velocity": 88}, {"time": 1063, "pitch": 68, "duration": 10, "velocity": 90}, {"time": 1066, "pitch": 63, "duration": 6, "velocity": 87}, {"time": 1069, "pitch": 59, "duration": 5, "velocity": 87}, {"time": 1072, "pitch": 63, "duration": 9, "velocity": 81}, {"time": 1075, "pitch": 44, "duration": 17, "velocity": 91}, {"time": 1075, "pitch": 56, "duration": 4, "velocity": 85}, {"time": 1075, "pitch": 59, "duration": 6, "velocity": 88}, {"time": 1075, "pitch": 63, "duration": 6, "velocity": 88}, {"time": 1078, "pitch": 51, "duration": 14, "velocity": 84}, {"time": 1081, "pitch": 56, "duration": 8, "velocity": 91}, {"time": 1084, "pitch": 59, "duration": 5, "velocity": 97}, {"time": 1087, "pitch": 68, "duration": 3, "velocity": 90}, {"time": 1090, "pitch": 63, "duration": 3, "velocity": 89}, {"time": 1093, "pitch": 42, "duration": 4, "velocity": 91}, {"time": 1096, "pitch": 54, "duration": 4, "velocity": 90}, {"time": 1099, "pitch": 40, "duration": 13, "velocity": 105}, {"time": 1102, "pitch": 47, "duration": 10, "velocity": 85}, {"time": 1105, "pitch": 52, "duration": 6, "velocity": 93}, {"time": 1108, "pitch": 56, "duration": 5, "velocity": 82}, {"time": 1111, "pitch": 64, "duration": 7, "velocity": 89}, {"time": 1114, "pitch": 52, "duration": 3, "velocity": 92}, {"time": 1117, "pitch": 42, "duration": 4, "velocity": 97}, {"time": 1120, "pitch": 54, "duration": 4, "velocity": 93}, {"time": 1123, "pitch": 44, "duration": 16, "velocity": 93}, {"time": 1126, "pitch": 51, "duration": 13, "velocity": 85}, {"time": 1129, "pitch": 56, "duration": 7, "velocity": 90}, {"time": 1132, "pitch": 59, "duration": 4, "velocity": 91}, {"time": 1135, "pitch": 68, "duration": 5, "velocity": 89}, {"time": 1138, "pitch": 56, "duration": 4, "velocity": 94}, {"time": 1141, "pitch": 42, "duration": 4, "velocity": 89}, {"time": 1144, "pitch": 54, "duration": 4, "velocity": 93}, {"time": 1147, "pitch": 44, "duration": 10, "velocity": 95}, {"time": 1150, "pitch": 51, "duration": 7, "velocity": 83}, {"time": 1153, "pitch": 56, "duration": 5, "velocity": 95}, {"time": 1156, "pitch": 59, "duration": 2, "velocity": 89}, {"time": 1159, "pitch": 42, "duration": 12, "velocity": 90}, {"time": 1159, "pitch": 54, "duration": 8, "velocity": 88}, {"time": 1159, "pitch": 58, "duration": 8, "velocity": 88}, {"time": 1165, "pitch": 49, "duration": 6, "velocity": 92}, {"time": 1168, "pitch": 54, "duration": 3, "velocity": 88}, {"time": 1171, "pitch": 44, "duration": 20, "velocity": 91}, {"time": 1171, "pitch": 56, "duration": 4, "velocity": 88}, {"time": 1171, "pitch": 63, "duration": 7, "velocity": 89}, {"time": 1174, "pitch": 51, "duration": 16, "velocity": 85}, {"time": 1177, "pitch": 59, "duration": 4, "velocity": 89}, {"time": 1180, "pitch": 56, "duration": 5, "velocity": 88}, {"time": 1183, "pitch": 68, "duration": 3, "velocity": 99}, {"time": 1186, "pitch": 63, "duration": 4, "velocity": 91}, {"time": 1189, "pitch": 59, "duration": 4, "velocity": 90}, {"time": 1192, "pitch": 56, "duration": 5, "velocity": 94}, {"time": 1195, "pitch": 40, "duration": 17, "velocity": 97}, {"time": 1198, "pitch": 47, "duration": 14, "velocity": 84}, {"time": 1201, "pitch": 56, "duration": 7, "velocity": 90}, {"time": 1204, "pitch": 59, "duration": 4, "velocity": 93}, {"time": 1207, "pitch": 64, "duration": 6, "velocity": 93}, {"time": 1210, "pitch": 59, "duration": 4, "velocity": 92}, {"time": 1213, "pitch": 56, "duration": 7, "velocity": 94}, {"time": 1216, "pitch": 59, "duration": 2, "velocity": 84}, {"time": 1219, "pitch": 49, "duration": 18, "velocity": 95}, {"time": 1222, "pitch": 56, "duration": 4, "velocity": 91}, {"time": 1225, "pitch": 61, "duration": 5, "velocity": 88}, {"time": 1228, "pitch": 56, "duration": 4, "velocity": 85}, {"time": 1231, "pitch": 65, "duration": 8, "velocity": 99}, {"time": 1234, "pitch": 56, "duration": 4, "velocity": 84}, {"time": 1237, "pitch": 61, "duration": 5, "velocity": 84}, {"time": 1240, "pitch": 56, "duration": 4, "velocity": 79}, {"time": 1243, "pitch": 47, "duration": 18, "velocity": 97}, {"time": 1246, "pitch": 54, "duration": 4, "velocity": 88}, {"time": 1249, "pitch": 59, "duration": 5, "velocity": 89}, {"time": 1252, "pitch": 54, "duration": 4, "velocity": 82}, {"time": 1255, "pitch": 63, "duration": 7, "velocity": 91}, {"time": 1258, "pitch": 54, "duration": 4, "velocity": 80}, {"time": 1261, "pitch": 59, "duration": 2, "velocity": 87}, {"time": 1267, "pitch": 42, "duration": 17, "velocity": 89}, {"time": 1267, "pitch": 54, "duration": 15, "velocity": 82}, {"time": 1267, "pitch": 58, "duration": 7, "velocity": 84}, {"time": 1270, "pitch": 49, "duration": 14, "velocity": 81}, {"time": 1273, "pitch": 61, "duration": 7, "velocity": 84}, {"time": 1276, "pitch": 58, "duration": 4, "velocity": 88}, {"time": 1279, "pitch": 66, "duration": 7, "velocity": 93}, {"time": 1282, "pitch": 61, "duration": 4, "velocity": 89}, {"time": 1285, "pitch": 58, "duration": 1, "velocity": 90}, {"time": 1291, "pitch": 40, "duration": 16, "velocity": 83}, {"time": 1291, "pitch": 56, "duration": 3, "velocity": 85}, {"time": 1291, "pitch": 59, "duration": 7, "velocity": 84}, {"time": 1294, "pitch": 47, "duration": 13, "velocity": 80}, {"time": 1297, "pitch": 56, "duration": 8, "velocity": 88}, {"time": 1300, "pitch": 59, "duration": 4, "velocity": 91}, {"time": 1303, "pitch": 64, "duration": 4, "velocity": 95}, {"time": 1306, "pitch": 59, "duration": 4, "velocity": 93}, {"time": 1309, "pitch": 56, "duration": 3, "velocity": 91}, {"time": 1315, "pitch": 44, "duration": 21, "velocity": 87}, {"time": 1315, "pitch": 59, "duration": 7, "velocity": 77}, {"time": 1315, "pitch": 63, "duration": 7, "velocity": 84}, {"time": 1318, "pitch": 51, "duration": 20, "velocity": 82}, {"time": 1321, "pitch": 56, "duration": 7, "velocity": 89}, {"time": 1324, "pitch": 59, "duration": 4, "velocity": 91}, {"time": 1327, "pitch": 63, "duration": 7, "velocity": 91}, {"time": 1330, "pitch": 59, "duration": 4, "velocity": 86}, {"time": 1333, "pitch": 56, "duration": 3, "velocity": 88}, {"time": 1339, "pitch": 42, "duration": 19, "velocity": 89}, {"time": 1339, "pitch": 54, "duration": 15, "velocity": 81}, {"time": 1339, "pitch": 58, "duration": 7, "velocity": 83}, {"time": 1342, "pitch": 49, "duration": 15, "velocity": 84}, {"time": 1345, "pitch": 61, "duration": 7, "velocity": 83}, {"time": 1348, "pitch": 58, "duration": 4, "velocity": 86}, {"time": 1351, "pitch": 66, "duration": 12, "velocity": 91}, {"time": 1354, "pitch": 61, "duration": 7, "velocity": 88}, {"time": 1357, "pitch": 54, "duration": 3, "velocity": 93}, {"time": 1363, "pitch": 44, "duration": 15, "velocity": 90}, {"time": 1363, "pitch": 56, "duration": 18, "velocity": 83}, {"time": 1363, "pitch": 59, "duration": 7, "velocity": 78}, {"time": 1366, "pitch": 51, "duration": 12, "velocity": 84}, {"time": 1369, "pitch": 63, "duration": 7, "velocity": 84}, {"time": 1372, "pitch": 59, "duration": 4, "velocity": 82}, {"time": 1375, "pitch": 68, "duration": 10, "velocity": 93}, {"time": 1378, "pitch": 63, "duration": 6, "velocity": 83}, {"time": 1381, "pitch": 59, "duration": 5, "velocity": 90}, {"time": 1384, "pitch": 56, "duration": 4, "velocity": 88}, {"time": 1387, "pitch": 40, "duration": 16, "velocity": 91}, {"time": 1387, "pitch": 64, "duration": 6, "velocity": 88}, {"time": 1390, "pitch": 47, "duration": 14, "velocity": 81}, {"time": 1393, "pitch": 56, "duration": 11, "velocity": 87}, {"time": 1396, "pitch": 59, "duration": 7, "velocity": 90}, {"time": 1396, "pitch": 64, "duration": 1, "velocity": 68}, {"time": 1399, "pitch": 68, "duration": 8, "velocity": 89}, {"time": 1402, "pitch": 64, "duration": 4, "velocity": 95}, {"time": 1405, "pitch": 59, "duration": 4, "velocity": 90}, {"time": 1408, "pitch": 56, "duration": 2, "velocity": 89}, {"time": 1411, "pitch": 49, "duration": 20, "velocity": 94}, {"time": 1411, "pitch": 56, "duration": 2, "velocity": 90}, {"time": 1411, "pitch": 61, "duration": 4, "velocity": 91}, {"time": 1414, "pitch": 56, "duration": 4, "velocity": 83}, {"time": 1417, "pitch": 61, "duration": 5, "velocity": 86}, {"time": 1420, "pitch": 56, "duration": 4, "velocity": 89}, {"time": 1423, "pitch": 65, "duration": 7, "velocity": 97}, {"time": 1426, "pitch": 56, "duration": 4, "velocity": 79}, {"time": 1429, "pitch": 61, "duration": 3, "velocity": 89}, {"time": 1432, "pitch": 56, "duration": 2, "velocity": 61}, {"time": 1435, "pitch": 47, "duration": 20, "velocity": 92}, {"time": 1435, "pitch": 59, "duration": 5, "velocity": 86}, {"time": 1438, "pitch": 54, "duration": 4, "velocity": 88}, {"time": 1441, "pitch": 59, "duration": 7, "velocity": 86}, {"time": 1444, "pitch": 54, "duration": 4, "velocity": 81}, {"time": 1447, "pitch": 63, "duration": 5, "velocity": 87}, {"time": 1450, "pitch": 54, "duration": 4, "velocity": 87}, {"time": 1453, "pitch": 59, "duration": 3, "velocity": 97}, {"time": 1456, "pitch": 54, "duration": 2, "velocity": 88}, {"time": 1459, "pitch": 42, "duration": 16, "velocity": 88}, {"time": 1459, "pitch": 54, "duration": 16, "velocity": 84}, {"time": 1459, "pitch": 58, "duration": 7, "velocity": 88}, {"time": 1462, "pitch": 49, "duration": 13, "velocity": 82}, {"time": 1465, "pitch": 61, "duration": 7, "velocity": 85}, {"time": 1468, "pitch": 58, "duration": 4, "velocity": 84}, {"time": 1471, "pitch": 66, "duration": 9, "velocity": 91}, {"time": 1474, "pitch": 61, "duration": 4, "velocity": 88}, {"time": 1477, "pitch": 58, "duration": 2, "velocity": 89}, {"time": 1483, "pitch": 40, "duration": 15, "velocity": 90}, {"time": 1483, "pitch": 56, "duration": 3, "velocity": 82}, {"time": 1483, "pitch": 59, "duration": 7, "velocity": 78}, {"time": 1486, "pitch": 47, "duration": 13, "velocity": 78}, {"time": 1489, "pitch": 56, "duration": 7, "velocity": 89}, {"time": 1492, "pitch": 59, "duration": 4, "velocity": 90}, {"time": 1495, "pitch": 64, "duration": 4, "velocity": 93}, {"time": 1498, "pitch": 59, "duration": 4, "velocity": 91}, {"time": 1501, "pitch": 56, "duration": 6, "velocity": 92}, {"time": 1507, "pitch": 44, "duration": 20, "velocity": 89}, {"time": 1507, "pitch": 59, "duration": 7, "velocity": 83}, {"time": 1507, "pitch": 63, "duration": 10, "velocity": 87}, {"time": 1510, "pitch": 51, "duration": 16, "velocity": 82}, {"time": 1513, "pitch": 56, "duration": 10, "velocity": 86}, {"time": 1516, "pitch": 59, "duration": 5, "velocity": 89}, {"time": 1519, "pitch": 68, "duration": 5, "velocity": 88}, {"time": 1522, "pitch": 63, "duration": 6, "velocity": 86}, {"time": 1525, "pitch": 59, "duration": 3, "velocity": 95}, {"time": 1531, "pitch": 39, "duration": 17, "velocity": 88}, {"time": 1531, "pitch": 58, "duration": 4, "velocity": 78}, {"time": 1531, "pitch": 63, "duration": 6, "velocity": 85}, {"time": 1534, "pitch": 46, "duration": 13, "velocity": 83}, {"time": 1537, "pitch": 58, "duration": 10, "velocity": 89}, {"time": 1540, "pitch": 63, "duration": 4, "velocity": 88}, {"time": 1543, "pitch": 66, "duration": 7, "velocity": 95}, {"time": 1546, "pitch": 63, "duration": 4, "velocity": 83}, {"time": 1549, "pitch": 58, "duration": 4, "velocity": 90}, {"time": 1555, "pitch": 42, "duration": 19, "velocity": 91}, {"time": 1555, "pitch": 54, "duration": 4, "velocity": 84}, {"time": 1555, "pitch": 58, "duration": 6, "velocity": 88}, {"time": 1558, "pitch": 49, "duration": 16, "velocity": 87}, {"time": 1561, "pitch": 54, "duration": 12, "velocity": 89}, {"time": 1564, "pitch": 61, "duration": 6, "velocity": 83}, {"time": 1567, "pitch": 66, "duration": 20, "velocity": 88}, {"time": 1579, "pitch": 44, "duration": 9, "velocity": 88}, {"time": 1579, "pitch": 56, "duration": 4, "velocity": 81}, {"time": 1579, "pitch": 59, "duration": 5, "velocity": 80}, {"time": 1579, "pitch": 63, "duration": 6, "velocity": 85}, {"time": 1582, "pitch": 51, "duration": 5, "velocity": 74}, {"time": 1585, "pitch": 56, "duration": 2, "velocity": 88}, {"time": 1588, "pitch": 44, "duration": 2, "velocity": 71}, {"time": 1588, "pitch": 51, "duration": 2, "velocity": 85}, {"time": 1588, "pitch": 56, "duration": 2, "velocity": 80}, {"time": 1588, "pitch": 59, "duration": 2, "velocity": 67}, {"time": 1588, "pitch": 63, "duration": 2, "velocity": 83}, {"time": 1591, "pitch": 44, "duration": 2, "velocity": 80}, {"time": 1591, "pitch": 51, "duration": 2, "velocity": 85}, {"time": 1591, "pitch": 56, "duration": 2, "velocity": 84}, {"time": 1591, "pitch": 59, "duration": 2, "velocity": 76}, {"time": 1591, "pitch": 63, "duration": 2, "velocity": 87}, {"time": 1594, "pitch": 44, "duration": 2, "velocity": 89}, {"time": 1594, "pitch": 51, "duration": 2, "velocity": 88}, {"time": 1594, "pitch": 56, "duration": 2, "velocity": 89}, {"time": 1594, "pitch": 59, "duration": 2, "velocity": 88}, {"time": 1594, "pitch": 63, "duration": 2, "velocity": 89}, {"time": 1597, "pitch": 44, "duration": 6, "velocity": 90}, {"time": 1597, "pitch": 51, "duration": 6, "velocity": 91}, {"time": 1597, "pitch": 56, "duration": 6, "velocity": 91}, {"time": 1597, "pitch": 59, "duration": 6, "velocity": 91}, {"time": 1597, "pitch": 63, "duration": 6, "velocity": 94}, {"time": 1603, "pitch": 44, "duration": 11, "velocity": 90}, {"time": 1603, "pitch": 56, "duration": 4, "velocity": 88}, {"time": 1603, "pitch": 59, "duration": 7, "velocity": 84}, {"time": 1603, "pitch": 63, "duration": 10, "velocity": 89}, {"time": 1606, "pitch": 51, "duration": 8, "velocity": 88}, {"time": 1609, "pitch": 56, "duration": 5, "velocity": 91}, {"time": 1612, "pitch": 59, "duration": 2, "velocity": 92}, {"time": 1615, "pitch": 42, "duration": 8, "velocity": 89}, {"time": 1615, "pitch": 54, "duration": 4, "velocity": 84}, {"time": 1615, "pitch": 58, "duration": 4, "velocity": 89}, {"time": 1621, "pitch": 54, "duration": 2, "velocity": 88}, {"time": 1621, "pitch": 58, "duration": 3, "velocity": 88}, {"time": 1627, "pitch": 40, "duration": 7, "velocity": 93}, {"time": 1627, "pitch": 56, "duration": 5, "velocity": 88}, {"time": 1627, "pitch": 59, "duration": 3, "velocity": 82}, {"time": 1633, "pitch": 56, "duration": 2, "velocity": 77}, {"time": 1633, "pitch": 59, "duration": 2, "velocity": 88}, {"time": 1633, "pitch": 64, "duration": 3, "velocity": 87}, {"time": 1639, "pitch": 42, "duration": 7, "velocity": 93}, {"time": 1639, "pitch": 54, "duration": 5, "velocity": 88}, {"time": 1639, "pitch": 58, "duration": 4, "velocity": 84}, {"time": 1645, "pitch": 54, "duration": 2, "velocity": 88}, {"time": 1645, "pitch": 58, "duration": 2, "velocity": 88}, {"time": 1651, "pitch": 44, "duration": 9, "velocity": 90}, {"time": 1651, "pitch": 56, "duration": 5, "velocity": 84}, {"time": 1651, "pitch": 59, "duration": 5, "velocity": 81}, {"time": 1651, "pitch": 63, "duration": 5, "velocity": 88}, {"time": 1657, "pitch": 56, "duration": 3, "velocity": 78}, {"time": 1657, "pitch": 59, "duration": 2, "velocity": 76}, {"time": 1657, "pitch": 63, "duration": 2, "velocity": 82}, {"time": 1663, "pitch": 42, "duration": 7, "velocity": 90}, {"time": 1663, "pitch": 54, "duration": 4, "velocity": 88}, {"time": 1663, "pitch": 58, "duration": 4, "velocity": 87}, {"time": 1669, "pitch": 54, "duration": 3, "velocity": 84}, {"time": 1669, "pitch": 58, "duration": 1, "velocity": 79}, {"time": 1675, "pitch": 47, "duration": 7, "velocity": 91}, {"time": 1675, "pitch": 59, "duration": 4, "velocity": 80}, {"time": 1675, "pitch": 63, "duration": 5, "velocity": 89}, {"time": 1675, "pitch": 66, "duration": 5, "velocity": 88}, {"time": 1678, "pitch": 54, "duration": 4, "velocity": 74}, {"time": 1681, "pitch": 59, "duration": 2, "velocity": 90}, {"time": 1687, "pitch": 39, "duration": 7, "velocity": 95}, {"time": 1687, "pitch": 58, "duration": 4, "velocity": 82}, {"time": 1687, "pitch": 63, "duration": 5, "velocity": 88}, {"time": 1687, "pitch": 67, "duration": 5, "velocity": 83}, {"time": 1690, "pitch": 46, "duration": 4, "velocity": 88}, {"time": 1693, "pitch": 58, "duration": 2, "velocity": 90}, {"time": 1696, "pitch": 58, "duration": 2, "velocity": 82}, {"time": 1696, "pitch": 63, "duration": 2, "velocity": 83}, {"time": 1696, "pitch": 67, "duration": 2, "velocity": 76}, {"time": 1699, "pitch": 44, "duration": 11, "velocity": 89}, {"time": 1699, "pitch": 56, "duration": 4, "velocity": 81}, {"time": 1699, "pitch": 59, "duration": 5, "velocity": 84}, {"time": 1699, "pitch": 63, "duration": 7, "velocity": 86}, {"time": 1702, "pitch": 51, "duration": 8, "velocity": 82}, {"time": 1705, "pitch": 56, "duration": 2, "velocity": 89}, {"time": 1708, "pitch": 56, "duration": 2, "velocity": 81}, {"time": 1708, "pitch": 59, "duration": 2, "velocity": 83}, {"time": 1708, "pitch": 63, "duration": 2, "velocity": 84}, {"time": 1711, "pitch": 42, "duration": 8, "velocity": 89}, {"time": 1711, "pitch": 54, "duration": 5, "velocity": 85}, {"time": 1711, "pitch": 58, "duration": 5, "velocity": 87}, {"time": 1714, "pitch": 49, "duration": 5, "velocity": 76}, {"time": 1717, "pitch": 54, "duration": 2, "velocity": 92}, {"time": 1717, "pitch": 58, "duration": 3, "velocity": 87}, {"time": 1723, "pitch": 40, "duration": 7, "velocity": 90}, {"time": 1723, "pitch": 56, "duration": 4, "velocity": 89}, {"time": 1723, "pitch": 59, "duration": 5, "velocity": 83}, {"time": 1726, "pitch": 47, "duration": 4, "velocity": 70}, {"time": 1729, "pitch": 56, "duration": 2, "velocity": 89}, {"time": 1729, "pitch": 59, "duration": 4, "velocity": 93}, {"time": 1729, "pitch": 64, "duration": 3, "velocity": 90}, {"time": 1732, "pitch": 56, "duration": 2, "velocity": 89}, {"time": 1735, "pitch": 42, "duration": 8, "velocity": 89}, {"time": 1735, "pitch": 54, "duration": 4, "velocity": 85}, {"time": 1735, "pitch": 58, "duration": 4, "velocity": 78}, {"time": 1738, "pitch": 49, "duration": 5, "velocity": 83}, {"time": 1741, "pitch": 54, "duration": 1, "velocity": 75}, {"time": 1741, "pitch": 58, "duration": 4, "velocity": 85}, {"time": 1741, "pitch": 61, "duration": 4, "velocity": 88}, {"time": 1744, "pitch": 54, "duration": 2, "velocity": 76}, {"time": 1747, "pitch": 44, "duration": 9, "velocity": 88}, {"time": 1747, "pitch": 56, "duration": 5, "velocity": 84}, {"time": 1747, "pitch": 59, "duration": 5, "velocity": 84}, {"time": 1750, "pitch": 51, "duration": 5, "velocity": 75}, {"time": 1753, "pitch": 59, "duration": 4, "velocity": 90}, {"time": 1753, "pitch": 63, "duration": 4, "velocity": 89}, {"time": 1756, "pitch": 56, "duration": 2, "velocity": 81}, {"time": 1759, "pitch": 42, "duration": 7, "velocity": 88}, {"time": 1759, "pitch": 54, "duration": 4, "velocity": 86}, {"time": 1759, "pitch": 58, "duration": 5, "velocity": 84}, {"time": 1762, "pitch": 49, "duration": 4, "velocity": 77}, {"time": 1765, "pitch": 54, "duration": 2, "velocity": 88}, {"time": 1765, "pitch": 58, "duration": 2, "velocity": 86}, {"time": 1771, "pitch": 40, "duration": 7, "velocity": 95}, {"time": 1771, "pitch": 56, "duration": 4, "velocity": 85}, {"time": 1771, "pitch": 59, "duration": 4, "velocity": 82}, {"time": 1771, "pitch": 64, "duration": 4, "velocity": 84}, {"time": 1774, "pitch": 47, "duration": 5, "velocity": 71}, {"time": 1777, "pitch": 56, "duration": 1, "velocity": 84}, {"time": 1777, "pitch": 59, "duration": 3, "velocity": 89}, {"time": 1777, "pitch": 64, "duration": 3, "velocity": 83}, {"time": 1783, "pitch": 39, "duration": 12, "velocity": 91}, {"time": 1783, "pitch": 58, "duration": 5, "velocity": 82}, {"time": 1783, "pitch": 63, "duration": 5, "velocity": 87}, {"time": 1786, "pitch": 46, "duration": 9, "velocity": 83}, {"time": 1789, "pitch": 58, "duration": 6, "velocity": 89}, {"time": 1789, "pitch": 63, "duration": 6, "velocity": 90}, {"time": 1795, "pitch": 44, "duration": 11, "velocity": 90}, {"time": 1795, "pitch": 56, "duration": 4, "velocity": 88}, {"time": 1795, "pitch": 59, "duration": 7, "velocity": 84}, {"time": 1795, "pitch": 63, "duration": 10, "velocity": 89}, {"time": 1798, "pitch": 51, "duration": 8, "velocity": 88}, {"time": 1801, "pitch": 56, "duration": 5, "velocity": 91}, {"time": 1804, "pitch": 59, "duration": 2, "velocity": 92}, {"time": 1807, "pitch": 42, "duration": 8, "velocity": 89}, {"time": 1807, "pitch": 54, "duration": 4, "velocity": 84}, {"time": 1807, "pitch": 58, "duration": 4, "velocity": 89}, {"time": 1813, "pitch": 54, "duration": 2, "velocity": 88}, {"time": 1813, "pitch": 58, "duration": 3, "velocity": 88}, {"time": 1819, "pitch": 40, "duration": 7, "velocity": 93}, {"time": 1819, "pitch": 56, "duration": 5, "velocity": 88}, {"time": 1819, "pitch": 59, "duration": 3, "velocity": 82}, {"time": 1825, "pitch": 56, "duration": 2, "velocity": 77}, {"time": 1825, "pitch": 59, "duration": 2, "velocity": 88}, {"time": 1825, "pitch": 64, "duration": 3, "velocity": 87}, {"time": 1831, "pitch": 42, "duration": 7, "velocity": 93}, {"time": 1831, "pitch": 54, "duration": 5, "velocity": 88}, {"time": 1831, "pitch": 58, "duration": 4, "velocity": 84}, {"time": 1837, "pitch": 54, "duration": 2, "velocity": 88}, {"time": 1837, "pitch": 58, "duration": 2, "velocity": 88}, {"time": 1843, "pitch": 44, "duration": 9, "velocity": 90}, {"time": 1843, "pitch": 56, "duration": 5, "velocity": 84}, {"time": 1843, "pitch": 59, "duration": 5, "velocity": 81}, {"time": 1843, "pitch": 63, "duration": 5, "velocity": 88}, {"time": 1849, "pitch": 56, "duration": 3, "velocity": 78}, {"time": 1849, "pitch": 59, "duration": 2, "velocity": 76}, {"time": 1849, "pitch": 63, "duration": 2, "velocity": 82}, {"time": 1855, "pitch": 42, "duration": 7, "velocity": 90}, {"time": 1855, "pitch": 54, "duration": 4, "velocity": 88}, {"time": 1855, "pitch": 58, "duration": 4, "velocity": 87}, {"time": 1861, "pitch": 54, "duration": 3, "velocity": 84}, {"time": 1861, "pitch": 58, "duration": 1, "velocity": 79}, {"time": 1867, "pitch": 47, "duration": 7, "velocity": 91}, {"time": 1867, "pitch": 59, "duration": 4, "velocity": 80}, {"time": 1867, "pitch": 63, "duration": 5, "velocity": 89}, {"time": 1867, "pitch": 66, "duration": 5, "velocity": 88}, {"time": 1870, "pitch": 54, "duration": 4, "velocity": 74}, {"time": 1873, "pitch": 59, "duration": 2, "velocity": 90}, {"time": 1879, "pitch": 39, "duration": 7, "velocity": 95}, {"time": 1879, "pitch": 58, "duration": 4, "velocity": 82}, {"time": 1879, "pitch": 63, "duration": 5, "velocity": 88}, {"time": 1879, "pitch": 67, "duration": 5, "velocity": 83}, {"time": 1882, "pitch": 46, "duration": 4, "velocity": 88}, {"time": 1885, "pitch": 58, "duration": 2, "velocity": 90}, {"time": 1888, "pitch": 58, "duration": 2, "velocity": 82}, {"time": 1888, "pitch": 63, "duration": 2, "velocity": 83}, {"time": 1888, "pitch": 67, "duration": 2, "velocity": 76}, {"time": 1891, "pitch": 44, "duration": 11, "velocity": 89}, {"time": 1891, "pitch": 56, "duration": 4, "velocity": 81}, {"time": 1891, "pitch": 59, "duration": 5, "velocity": 84}, {"time": 1891, "pitch": 63, "duration": 7, "velocity": 86}, {"time": 1894, "pitch": 51, "duration": 8, "velocity": 82}, {"time": 1897, "pitch": 56, "duration": 2, "velocity": 89}, {"time": 1900, "pitch": 56, "duration": 2, "velocity": 81}, {"time": 1900, "pitch": 59, "duration": 2, "velocity": 83}, {"time": 1900, "pitch": 63, "duration": 2, "velocity": 84}, {"time": 1903, "pitch": 42, "duration": 8, "velocity": 89}, {"time": 1903, "pitch": 54, "duration": 5, "velocity": 85}, {"time": 1903, "pitch": 58, "duration": 5, "velocity": 87}, {"time": 1906, "pitch": 49, "duration": 5, "velocity": 76}, {"time": 1909, "pitch": 54, "duration": 2, "velocity": 92}, {"time": 1909, "pitch": 58, "duration": 3, "velocity": 87}, {"time": 1915, "pitch": 40, "duration": 7, "velocity": 90}, {"time": 1915, "pitch": 56, "duration": 4, "velocity": 89}, {"time": 1915, "pitch": 59, "duration": 5, "velocity": 83}, {"time": 1918, "pitch": 47, "duration": 4, "velocity": 70}, {"time": 1921, "pitch": 56, "duration": 2, "velocity": 89}, {"time": 1921, "pitch": 59, "duration": 4, "velocity": 93}, {"time": 1921, "pitch": 64, "duration": 3, "velocity": 90}, {"time": 1924, "pitch": 56, "duration": 2, "velocity": 89}, {"time": 1927, "pitch": 42, "duration": 8, "velocity": 89}, {"time": 1927, "pitch": 54, "duration": 4, "velocity": 85}, {"time": 1927, "pitch": 58, "duration": 4, "velocity": 78}, {"time": 1930, "pitch": 49, "duration": 5, "velocity": 83}, {"time": 1933, "pitch": 54, "duration": 1, "velocity": 75}, {"time": 1933, "pitch": 58, "duration": 4, "velocity": 85}, {"time": 1933, "pitch": 61, "duration": 4, "velocity": 88}, {"time": 1936, "pitch": 54, "duration": 2, "velocity": 76}, {"time": 1939, "pitch": 44, "duration": 9, "velocity": 88}, {"time": 1939, "pitch": 56, "duration": 5, "velocity": 84}, {"time": 1939, "pitch": 59, "duration": 5, "velocity": 84}, {"time": 1942, "pitch": 51, "duration": 5, "velocity": 75}, {"time": 1945, "pitch": 59, "duration": 4, "velocity": 90}, {"time": 1945, "pitch": 63, "duration": 4, "velocity": 89}, {"time": 1948, "pitch": 56, "duration": 2, "velocity": 81}, {"time": 1951, "pitch": 42, "duration": 7, "velocity": 88}, {"time": 1951, "pitch": 54, "duration": 4, "velocity": 86}, {"time": 1951, "pitch": 58, "duration": 5, "velocity": 84}, {"time": 1954, "pitch": 49, "duration": 4, "velocity": 77}, {"time": 1957, "pitch": 54, "duration": 2, "velocity": 88}, {"time": 1957, "pitch": 58, "duration": 2, "velocity": 86}, {"time": 1963, "pitch": 44, "duration": 5, "velocity": 89}, {"time": 1963, "pitch": 56, "duration": 4, "velocity": 83}, {"time": 1963, "pitch": 59, "duration": 4, "velocity": 78}, {"time": 1963, "pitch": 63, "duration": 4, "velocity": 85}, {"time": 1966, "pitch": 51, "duration": 3, "velocity": 65}, {"time": 1969, "pitch": 42, "duration": 4, "velocity": 83}, {"time": 1969, "pitch": 54, "duration": 3, "velocity": 81}, {"time": 1969, "pitch": 58, "duration": 5, "velocity": 80}, {"time": 1975, "pitch": 44, "duration": 36, "velocity": 88}, {"time": 1975, "pitch": 56, "duration": 36, "velocity": 84}, {"time": 1975, "pitch": 58, "duration": 36, "velocity": 77}, {"time": 1975, "pitch": 59, "duration": 36, "velocity": 77}, {"time": 2011, "pitch": 58, "duration": 24, "velocity": 84}, {"time": 2011, "pitch": 60, "duration": 24, "velocity": 88}, {"time": 2011, "pitch": 65, "duration": 24, "velocity": 89}, {"time": 2035, "pitch": 49, "duration": 25, "velocity": 84}, {"time": 2035, "pitch": 59, "duration": 24, "velocity": 78}, {"time": 2035, "pitch": 61, "duration": 24, "velocity": 88}, {"time": 2035, "pitch": 66, "duration": 25, "velocity": 83}, {"time": 2059, "pitch": 60, "duration": 23, "velocity": 80}, {"time": 2059, "pitch": 62, "duration": 23, "velocity": 84}, {"time": 2059, "pitch": 67, "duration": 23, "velocity": 76}, {"time": 2059, "pitch": 71, "duration": 23, "velocity": 70}, {"time": 2059, "pitch": 73, "duration": 23, "velocity": 69}, {"time": 2083, "pitch": 63, "duration": 47, "velocity": 89}, {"time": 2083, "pitch": 68, "duration": 47, "velocity": 83}, {"time": 2083, "pitch": 73, "duration": 47, "velocity": 88}, {"time": 2083, "pitch": 75, "duration": 47, "velocity": 89}, {"time": 2131, "pitch": 44, "duration": 23, "velocity": 90}, {"time": 2134, "pitch": 51, "duration": 20, "velocity": 84}, {"time": 2137, "pitch": 56, "duration": 4, "velocity": 88}, {"time": 2140, "pitch": 58, "duration": 4, "velocity": 89}, {"time": 2143, "pitch": 59, "duration": 3, "velocity": 90}, {"time": 2146, "pitch": 63, "duration": 3, "velocity": 86}, {"time": 2149, "pitch": 70, "duration": 4, "velocity": 90}, {"time": 2152, "pitch": 68, "duration": 7, "velocity": 89}, {"time": 2155, "pitch": 44, "duration": 20, "velocity": 80}, {"time": 2155, "pitch": 63, "duration": 10, "velocity": 80}, {"time": 2161, "pitch": 51, "duration": 13, "velocity": 63}, {"time": 2167, "pitch": 56, "duration": 12, "velocity": 83}, {"time": 2167, "pitch": 59, "duration": 12, "velocity": 83}, {"time": 2167, "pitch": 63, "duration": 12, "velocity": 89}, {"time": 2179, "pitch": 44, "duration": 10, "velocity": 89}, {"time": 2182, "pitch": 51, "duration": 7, "velocity": 83}, {"time": 2185, "pitch": 56, "duration": 4, "velocity": 91}, {"time": 2188, "pitch": 58, "duration": 3, "velocity": 80}, {"time": 2191, "pitch": 42, "duration": 10, "velocity": 88}, {"time": 2191, "pitch": 54, "duration": 5, "velocity": 81}, {"time": 2191, "pitch": 58, "duration": 6, "velocity": 88}, {"time": 2194, "pitch": 49, "duration": 7, "velocity": 78}, {"time": 2197, "pitch": 54, "duration": 4, "velocity": 84}, {"time": 2200, "pitch": 58, "duration": 4, "velocity": 89}, {"time": 2203, "pitch": 47, "duration": 20, "velocity": 88}, {"time": 2203, "pitch": 59, "duration": 5, "velocity": 84}, {"time": 2206, "pitch": 51, "duration": 18, "velocity": 80}, {"time": 2209, "pitch": 54, "duration": 17, "velocity": 88}, {"time": 2212, "pitch": 59, "duration": 17, "velocity": 74}, {"time": 2215, "pitch": 63, "duration": 16, "velocity": 88}, {"time": 2227, "pitch": 44, "duration": 22, "velocity": 90}, {"time": 2230, "pitch": 51, "duration": 18, "velocity": 81}, {"time": 2233, "pitch": 56, "duration": 10, "velocity": 89}, {"time": 2236, "pitch": 59, "duration": 7, "velocity": 91}, {"time": 2239, "pitch": 68, "duration": 7, "velocity": 90}, {"time": 2242, "pitch": 63, "duration": 6, "velocity": 84}, {"time": 2245, "pitch": 56, "duration": 4, "velocity": 84}, {"time": 2251, "pitch": 49, "duration": 20, "velocity": 89}, {"time": 2251, "pitch": 56, "duration": 2, "velocity": 83}, {"time": 2251, "pitch": 61, "duration": 4, "velocity": 86}, {"time": 2254, "pitch": 56, "duration": 10, "velocity": 81}, {"time": 2257, "pitch": 61, "duration": 7, "velocity": 83}, {"time": 2260, "pitch": 64, "duration": 4, "velocity": 82}, {"time": 2263, "pitch": 68, "duration": 8, "velocity": 90}, {"time": 2266, "pitch": 64, "duration": 6, "velocity": 81}, {"time": 2269, "pitch": 56, "duration": 2, "velocity": 72}, {"time": 2275, "pitch": 49, "duration": 11, "velocity": 93}, {"time": 2275, "pitch": 56, "duration": 2, "velocity": 82}, {"time": 2275, "pitch": 61, "duration": 4, "velocity": 82}, {"time": 2278, "pitch": 56, "duration": 5, "velocity": 83}, {"time": 2281, "pitch": 61, "duration": 5, "velocity": 81}, {"time": 2287, "pitch": 49, "duration": 8, "velocity": 89}, {"time": 2287, "pitch": 56, "duration": 2, "velocity": 78}, {"time": 2287, "pitch": 61, "duration": 4, "velocity": 83}, {"time": 2287, "pitch": 65, "duration": 7, "velocity": 88}, {"time": 2290, "pitch": 56, "duration": 11, "velocity": 81}, {"time": 2293, "pitch": 61, "duration": 6, "velocity": 79}, {"time": 2299, "pitch": 44, "duration": 22, "velocity": 91}, {"time": 2302, "pitch": 51, "duration": 19, "velocity": 80}, {"time": 2305, "pitch": 56, "duration": 10, "velocity": 85}, {"time": 2308, "pitch": 59, "duration": 8, "velocity": 86}, {"time": 2311, "pitch": 63, "duration": 4, "velocity": 88}, {"time": 2314, "pitch": 68, "duration": 16, "velocity": 89}, {"time": 2317, "pitch": 63, "duration": 10, "velocity": 84}, {"time": 2323, "pitch": 44, "duration": 23, "velocity": 93}, {"time": 2326, "pitch": 51, "duration": 20, "velocity": 79}, {"time": 2329, "pitch": 56, "duration": 7, "velocity": 86}, {"time": 2332, "pitch": 59, "duration": 4, "velocity": 88}, {"time": 2335, "pitch": 63, "duration": 4, "velocity": 87}, {"time": 2338, "pitch": 59, "duration": 4, "velocity": 85}, {"time": 2341, "pitch": 63, "duration": 14, "velocity": 88}, {"time": 2347, "pitch": 44, "duration": 21, "velocity": 88}, {"time": 2347, "pitch": 68, "duration": 8, "velocity": 85}, {"time": 2350, "pitch": 51, "duration": 18, "velocity": 76}, {"time": 2353, "pitch": 56, "duration": 8, "velocity": 86}, {"time": 2356, "pitch": 59, "duration": 4, "velocity": 77}, {"time": 2359, "pitch": 63, "duration": 5, "velocity": 84}, {"time": 2362, "pitch": 59, "duration": 5, "velocity": 86}, {"time": 2365, "pitch": 63, "duration": 7, "velocity": 87}, {"time": 2368, "pitch": 59, "duration": 4, "velocity": 32}, {"time": 2371, "pitch": 40, "duration": 10, "velocity": 94}, {"time": 2374, "pitch": 47, "duration": 8, "velocity": 80}, {"time": 2377, "pitch": 56, "duration": 8, "velocity": 88}, {"time": 2380, "pitch": 59, "duration": 5, "velocity": 81}, {"time": 2383, "pitch": 42, "duration": 10, "velocity": 90}, {"time": 2386, "pitch": 49, "duration": 8, "velocity": 84}, {"time": 2389, "pitch": 54, "duration": 7, "velocity": 90}, {"time": 2395, "pitch": 47, "duration": 18, "velocity": 89}, {"time": 2398, "pitch": 54, "duration": 15, "velocity": 70}, {"time": 2401, "pitch": 59, "duration": 7, "velocity": 86}, {"time": 2404, "pitch": 63, "duration": 4, "velocity": 84}, {"time": 2407, "pitch": 66, "duration": 19, "velocity": 90}, {"time": 2410, "pitch": 63, "duration": 9, "velocity": 81}, {"time": 2413, "pitch": 59, "duration": 6, "velocity": 69}, {"time": 2419, "pitch": 44, "duration": 23, "velocity": 90}, {"time": 2422, "pitch": 51, "duration": 19, "velocity": 84}, {"time": 2425, "pitch": 56, "duration": 10, "velocity": 87}, {"time": 2428, "pitch": 59, "duration": 5, "velocity": 92}, {"time": 2431, "pitch": 68, "duration": 7, "velocity": 90}, {"time": 2434, "pitch": 63, "duration": 13, "velocity": 86}, {"time": 2437, "pitch": 56, "duration": 8, "velocity": 84}, {"time": 2443, "pitch": 49, "duration": 19, "velocity": 94}, {"time": 2446, "pitch": 56, "duration": 4, "velocity": 83}, {"time": 2449, "pitch": 61, "duration": 7, "velocity": 89}, {"time": 2452, "pitch": 56, "duration": 4, "velocity": 82}, {"time": 2455, "pitch": 65, "duration": 20, "velocity": 92}, {"time": 2458, "pitch": 61, "duration": 9, "velocity": 80}, {"time": 2461, "pitch": 56, "duration": 8, "velocity": 79}, {"time": 2467, "pitch": 42, "duration": 21, "velocity": 90}, {"time": 2470, "pitch": 49, "duration": 18, "velocity": 82}, {"time": 2473, "pitch": 54, "duration": 10, "velocity": 82}, {"time": 2476, "pitch": 58, "duration": 7, "velocity": 84}, {"time": 2479, "pitch": 66, "duration": 16, "velocity": 90}, {"time": 2482, "pitch": 61, "duration": 11, "velocity": 88}, {"time": 2485, "pitch": 58, "duration": 8, "velocity": 79}, {"time": 2488, "pitch": 54, "duration": 4, "velocity": 67}, {"time": 2491, "pitch": 44, "duration": 23, "velocity": 90}, {"time": 2494, "pitch": 51, "duration": 20, "velocity": 79}, {"time": 2497, "pitch": 56, "duration": 10, "velocity": 87}, {"time": 2500, "pitch": 59, "duration": 5, "velocity": 88}, {"time": 2503, "pitch": 68, "duration": 10, "velocity": 90}, {"time": 2506, "pitch": 63, "duration": 6, "velocity": 87}, {"time": 2509, "pitch": 59, "duration": 5, "velocity": 87}, {"time": 2512, "pitch": 63, "duration": 9, "velocity": 81}, {"time": 2515, "pitch": 44, "duration": 17, "velocity": 91}, {"time": 2515, "pitch": 56, "duration": 4, "velocity": 85}, {"time": 2515, "pitch": 59, "duration": 6, "velocity": 88}, {"time": 2515, "pitch": 63, "duration": 6, "velocity": 88}, {"time": 2518, "pitch": 51, "duration": 14, "velocity": 84}, {"time": 2521, "pitch": 56, "duration": 8, "velocity": 91}, {"time": 2524, "pitch": 59, "duration": 5, "velocity": 97}, {"time": 2527, "pitch": 68, "duration": 3, "velocity": 90}, {"time": 2530, "pitch": 63, "duration": 3, "velocity": 89}, {"time": 2533, "pitch": 42, "duration": 4, "velocity": 91}, {"time": 2536, "pitch": 54, "duration": 4, "velocity": 90}, {"time": 2539, "pitch": 40, "duration": 13, "velocity": 105}, {"time": 2542, "pitch": 47, "duration": 10, "velocity": 85}, {"time": 2545, "pitch": 52, "duration": 6, "velocity": 93}, {"time": 2548, "pitch": 56, "duration": 5, "velocity": 82}, {"time": 2551, "pitch": 64, "duration": 7, "velocity": 89}, {"time": 2554, "pitch": 52, "duration": 3, "velocity": 92}, {"time": 2557, "pitch": 42, "duration": 4, "velocity": 97}, {"time": 2560, "pitch": 54, "duration": 4, "velocity": 93}, {"time": 2563, "pitch": 44, "duration": 16, "velocity": 93}, {"time": 2566, "pitch": 51, "duration": 13, "velocity": 85}, {"time": 2569, "pitch": 56, "duration": 7, "velocity": 90}, {"time": 2572, "pitch": 59, "duration": 4, "velocity": 91}, {"time": 2575, "pitch": 68, "duration": 5, "velocity": 89}, {"time": 2578, "pitch": 56, "duration": 4, "velocity": 94}, {"time": 2581, "pitch": 42, "duration": 4, "velocity": 89}, {"time": 2584, "pitch": 54, "duration": 4, "velocity": 93}, {"time": 2587, "pitch": 44, "duration": 10, "velocity": 95}, {"time": 2590, "pitch": 51, "duration": 7, "velocity": 83}, {"time": 2593, "pitch": 56, "duration": 5, "velocity": 95}, {"time": 2596, "pitch": 59, "duration": 2, "velocity": 89}, {"time": 2599, "pitch": 42, "duration": 12, "velocity": 90}, {"time": 2599, "pitch": 54, "duration": 8, "velocity": 88}, {"time": 2599, "pitch": 58, "duration": 8, "velocity": 88}, {"time": 2605, "pitch": 49, "duration": 6, "velocity": 92}, {"time": 2608, "pitch": 54, "duration": 3, "velocity": 88}, {"time": 2611, "pitch": 44, "duration": 20, "velocity": 91}, {"time": 2611, "pitch": 56, "duration": 4, "velocity": 88}, {"time": 2611, "pitch": 63, "duration": 7, "velocity": 89}, {"time": 2614, "pitch": 51, "duration": 16, "velocity": 85}, {"time": 2617, "pitch": 59, "duration": 4, "velocity": 89}, {"time": 2620, "pitch": 56, "duration": 5, "velocity": 88}, {"time": 2623, "pitch": 68, "duration": 3, "velocity": 99}, {"time": 2626, "pitch": 63, "duration": 4, "velocity": 91}, {"time": 2629, "pitch": 59, "duration": 4, "velocity": 90}, {"time": 2632, "pitch": 56, "duration": 5, "velocity": 94}, {"time": 2635, "pitch": 40, "duration": 17, "velocity": 97}, {"time": 2638, "pitch": 47, "duration": 14, "velocity": 84}, {"time": 2641, "pitch": 56, "duration": 7, "velocity": 90}, {"time": 2644, "pitch": 59, "duration": 4, "velocity": 93}, {"time": 2647, "pitch": 64, "duration": 6, "velocity": 93}, {"time": 2650, "pitch": 59, "duration": 4, "velocity": 92}, {"time": 2653, "pitch": 56, "duration": 7, "velocity": 94}, {"time": 2656, "pitch": 59, "duration": 2, "velocity": 84}, {"time": 2659, "pitch": 49, "duration": 18, "velocity": 95}, {"time": 2662, "pitch": 56, "duration": 4, "velocity": 91}, {"time": 2665, "pitch": 61, "duration": 5, "velocity": 88}, {"time": 2668, "pitch": 56, "duration": 4, "velocity": 85}, {"time": 2671, "pitch": 65, "duration": 8, "velocity": 99}, {"time": 2674, "pitch": 56, "duration": 4, "velocity": 84}, {"time": 2677, "pitch": 61, "duration": 5, "velocity": 84}, {"time": 2680, "pitch": 56, "duration": 4, "velocity": 79}, {"time": 2683, "pitch": 47, "duration": 18, "velocity": 97}, {"time": 2686, "pitch": 54, "duration": 4, "velocity": 88}, {"time": 2689, "pitch": 59, "duration": 5, "velocity": 89}, {"time": 2692, "pitch": 54, "duration": 4, "velocity": 82}, {"time": 2695, "pitch": 63, "duration": 7, "velocity": 91}, {"time": 2698, "pitch": 54, "duration": 4, "velocity": 80}, {"time": 2701, "pitch": 59, "duration": 2, "velocity": 87}, {"time": 2707, "pitch": 42, "duration": 17, "velocity": 89}, {"time": 2707, "pitch": 54, "duration": 15, "velocity": 82}, {"time": 2707, "pitch": 58, "duration": 7, "velocity": 84}, {"time": 2710, "pitch": 49, "duration": 14, "velocity": 81}, {"time": 2713, "pitch": 61, "duration": 7, "velocity": 84}, {"time": 2716, "pitch": 58, "duration": 4, "velocity": 88}, {"time": 2719, "pitch": 66, "duration": 7, "velocity": 93}, {"time": 2722, "pitch": 61, "duration": 4, "velocity": 89}, {"time": 2725, "pitch": 58, "duration": 1, "velocity": 90}, {"time": 2731, "pitch": 40, "duration": 16, "velocity": 83}, {"time": 2731, "pitch": 56, "duration": 3, "velocity": 85}, {"time": 2731, "pitch": 59, "duration": 7, "velocity": 84}, {"time": 2734, "pitch": 47, "duration": 13, "velocity": 80}, {"time": 2737, "pitch": 56, "duration": 8, "velocity": 88}, {"time": 2740, "pitch": 59, "duration": 4, "velocity": 91}, {"time": 2743, "pitch": 64, "duration": 4, "velocity": 95}, {"time": 2746, "pitch": 59, "duration": 4, "velocity": 93}, {"time": 2749, "pitch": 56, "duration": 3, "velocity": 91}, {"time": 2755, "pitch": 44, "duration": 21, "velocity": 87}, {"time": 2755, "pitch": 59, "duration": 7, "velocity": 77}, {"time": 2755, "pitch": 63, "duration": 7, "velocity": 84}, {"time": 2758, "pitch": 51, "duration": 20, "velocity": 82}, {"time": 2761, "pitch": 56, "duration": 7, "velocity": 89}, {"time": 2764, "pitch": 59, "duration": 4, "velocity": 91}, {"time": 2767, "pitch": 63, "duration": 7, "velocity": 91}, {"time": 2770, "pitch": 59, "duration": 4, "velocity": 86}, {"time": 2773, "pitch": 56, "duration": 3, "velocity": 88}, {"time": 2779, "pitch": 42, "duration": 19, "velocity": 89}, {"time": 2779, "pitch": 54, "duration": 15, "velocity": 81}, {"time": 2779, "pitch": 58, "duration": 7, "velocity": 83}, {"time": 2782, "pitch": 49, "duration": 15, "velocity": 84}, {"time": 2785, "pitch": 61, "duration": 7, "velocity": 83}, {"time": 2788, "pitch": 58, "duration": 4, "velocity": 86}, {"time": 2791, "pitch": 66, "duration": 12, "velocity": 91}, {"time": 2794, "pitch": 61, "duration": 7, "velocity": 88}, {"time": 2797, "pitch": 54, "duration": 3, "velocity": 93}, {"time": 2803, "pitch": 44, "duration": 15, "velocity": 90}, {"time": 2803, "pitch": 56, "duration": 18, "velocity": 83}, {"time": 2803, "pitch": 59, "duration": 7, "velocity": 78}, {"time": 2806, "pitch": 51, "duration": 12, "velocity": 84}, {"time": 2809, "pitch": 63, "duration": 7, "velocity": 84}, {"time": 2812, "pitch": 59, "duration": 4, "velocity": 82}, {"time": 2815, "pitch": 68, "duration": 10, "velocity": 93}, {"time": 2818, "pitch": 63, "duration": 6, "velocity": 83}, {"time": 2821, "pitch": 59, "duration": 5, "velocity": 90}, {"time": 2824, "pitch": 56, "duration": 4, "velocity": 88}, {"time": 2827, "pitch": 40, "duration": 16, "velocity": 91}, {"time": 2827, "pitch": 64, "duration": 6, "velocity": 88}, {"time": 2830, "pitch": 47, "duration": 14, "velocity": 81}, {"time": 2833, "pitch": 56, "duration": 11, "velocity": 87}, {"time": 2836, "pitch": 59, "duration": 7, "velocity": 90}, {"time": 2836, "pitch": 64, "duration": 1, "velocity": 68}, {"time": 2839, "pitch": 68, "duration": 8, "velocity": 89}, {"time": 2842, "pitch": 64, "duration": 4, "velocity": 95}, {"time": 2845, "pitch": 59, "duration": 4, "velocity": 90}, {"time": 2848, "pitch": 56, "duration": 2, "velocity": 89}, {"time": 2851, "pitch": 49, "duration": 20, "velocity": 94}, {"time": 2851, "pitch": 56, "duration": 2, "velocity": 90}, {"time": 2851, "pitch": 61, "duration": 4, "velocity": 91}, {"time": 2854, "pitch": 56, "duration": 4, "velocity": 83}, {"time": 2857, "pitch": 61, "duration": 5, "velocity": 86}, {"time": 2860, "pitch": 56, "duration": 4, "velocity": 89}, {"time": 2863, "pitch": 65, "duration": 7, "velocity": 97}, {"time": 2866, "pitch": 56, "duration": 4, "velocity": 79}, {"time": 2869, "pitch": 61, "duration": 3, "velocity": 89}, {"time": 2872, "pitch": 56, "duration": 2, "velocity": 61}, {"time": 2875, "pitch": 47, "duration": 20, "velocity": 92}, {"time": 2875, "pitch": 59, "duration": 5, "velocity": 86}, {"time": 2878, "pitch": 54, "duration": 4, "velocity": 88}, {"time": 2881, "pitch": 59, "duration": 7, "velocity": 86}, {"time": 2884, "pitch": 54, "duration": 4, "velocity": 81}, {"time": 2887, "pitch": 63, "duration": 5, "velocity": 87}, {"time": 2890, "pitch": 54, "duration": 4, "velocity": 87}, {"time": 2893, "pitch": 59, "duration": 3, "velocity": 97}, {"time": 2896, "pitch": 54, "duration": 2, "velocity": 88}, {"time": 2899, "pitch": 42, "duration": 16, "velocity": 88}, {"time": 2899, "pitch": 54, "duration": 16, "velocity": 84}, {"time": 2899, "pitch": 58, "duration": 7, "velocity": 88}, {"time": 2902, "pitch": 49, "duration": 13, "velocity": 82}, {"time": 2905, "pitch": 61, "duration": 7, "velocity": 85}, {"time": 2908, "pitch": 58, "duration": 4, "velocity": 84}, {"time": 2911, "pitch": 66, "duration": 9, "velocity": 91}, {"time": 2914, "pitch": 61, "duration": 4, "velocity": 88}, {"time": 2917, "pitch": 58, "duration": 2, "velocity": 89}, {"time": 2923, "pitch": 40, "duration": 15, "velocity": 90}, {"time": 2923, "pitch": 56, "duration": 3, "velocity": 82}, {"time": 2923, "pitch": 59, "duration": 7, "velocity": 78}, {"time": 2926, "pitch": 47, "duration": 13, "velocity": 78}, {"time": 2929, "pitch": 56, "duration": 7, "velocity": 89}, {"time": 2932, "pitch": 59, "duration": 4, "velocity": 90}, {"time": 2935, "pitch": 64, "duration": 4, "velocity": 93}, {"time": 2938, "pitch": 59, "duration": 4, "velocity": 91}, {"time": 2941, "pitch": 56, "duration": 6, "velocity": 92}, {"time": 2947, "pitch": 44, "duration": 20, "velocity": 89}, {"time": 2947, "pitch": 59, "duration": 7, "velocity": 83}, {"time": 2947, "pitch": 63, "duration": 10, "velocity": 87}, {"time": 2950, "pitch": 51, "duration": 16, "velocity": 82}, {"time": 2953, "pitch": 56, "duration": 10, "velocity": 86}, {"time": 2956, "pitch": 59, "duration": 5, "velocity": 89}, {"time": 2959, "pitch": 68, "duration": 5, "velocity": 88}, {"time": 2962, "pitch": 63, "duration": 6, "velocity": 86}, {"time": 2965, "pitch": 59, "duration": 3, "velocity": 95}, {"time": 2971, "pitch": 39, "duration": 17, "velocity": 88}, {"time": 2971, "pitch": 58, "duration": 4, "velocity": 78}, {"time": 2971, "pitch": 63, "duration": 6, "velocity": 85}, {"time": 2974, "pitch": 46, "duration": 13, "velocity": 83}, {"time": 2977, "pitch": 58, "duration": 10, "velocity": 89}, {"time": 2980, "pitch": 63, "duration": 4, "velocity": 88}, {"time": 2983, "pitch": 66, "duration": 7, "velocity": 95}, {"time": 2986, "pitch": 63, "duration": 4, "velocity": 83}, {"time": 2989, "pitch": 58, "duration": 4, "velocity": 90}, {"time": 2995, "pitch": 42, "duration": 19, "velocity": 91}, {"time": 2995, "pitch": 54, "duration": 4, "velocity": 84}, {"time": 2995, "pitch": 58, "duration": 6, "velocity": 88}, {"time": 2998, "pitch": 49, "duration": 16, "velocity": 87}, {"time": 3001, "pitch": 54, "duration": 12, "velocity": 89}, {"time": 3004, "pitch": 61, "duration": 6, "velocity": 83}, {"time": 3007, "pitch": 66, "duration": 20, "velocity": 88}, {"time": 3019, "pitch": 44, "duration": 9, "velocity": 88}, {"time": 3019, "pitch": 56, "duration": 4, "velocity": 81}, {"time": 3019, "pitch": 59, "duration": 5, "velocity": 80}, {"time": 3019, "pitch": 63, "duration": 6, "velocity": 85}, {"time": 3022, "pitch": 51, "duration": 5, "velocity": 74}, {"time": 3025, "pitch": 56, "duration": 2, "velocity": 88}, {"time": 3028, "pitch": 44, "duration": 2, "velocity": 71}, {"time": 3028, "pitch": 51, "duration": 2, "velocity": 85}, {"time": 3028, "pitch": 56, "duration": 2, "velocity": 80}, {"time": 3028, "pitch": 59, "duration": 2, "velocity": 67}, {"time": 3028, "pitch": 63, "duration": 2, "velocity": 83}, {"time": 3031, "pitch": 44, "duration": 2, "velocity": 80}, {"time": 3031, "pitch": 51, "duration": 2, "velocity": 85}, {"time": 3031, "pitch": 56, "duration": 2, "velocity": 84}, {"time": 3031, "pitch": 59, "duration": 2, "velocity": 76}, {"time": 3031, "pitch": 63, "duration": 2, "velocity": 87}, {"time": 3034, "pitch": 44, "duration": 2, "velocity": 89}, {"time": 3034, "pitch": 51, "duration": 2, "velocity": 88}, {"time": 3034, "pitch": 56, "duration": 2, "velocity": 89}, {"time": 3034, "pitch": 59, "duration": 2, "velocity": 88}, {"time": 3034, "pitch": 63, "duration": 2, "velocity": 89}, {"time": 3037, "pitch": 44, "duration": 6, "velocity": 90}, {"time": 3037, "pitch": 51, "duration": 6, "velocity": 91}, {"time": 3037, "pitch": 56, "duration": 6, "velocity": 91}, {"time": 3037, "pitch": 59, "duration": 6, "velocity": 91}, {"time": 3037, "pitch": 63, "duration": 6, "velocity": 94}, {"time": 3043, "pitch": 44, "duration": 20, "velocity": 91}, {"time": 3043, "pitch": 56, "duration": 4, "velocity": 88}, {"time": 3043, "pitch": 63, "duration": 7, "velocity": 89}, {"time": 3046, "pitch": 51, "duration": 16, "velocity": 85}, {"time": 3049, "pitch": 59, "duration": 4, "velocity": 89}, {"time": 3052, "pitch": 56, "duration": 5, "velocity": 88}, {"time": 3055, "pitch": 68, "duration": 3, "velocity": 99}, {"time": 3058, "pitch": 63, "duration": 4, "velocity": 91}, {"time": 3061, "pitch": 59, "duration": 4, "velocity": 90}, {"time": 3064, "pitch": 56, "duration": 5, "velocity": 94}, {"time": 3067, "pitch": 40, "duration": 17, "velocity": 97}, {"time": 3070, "pitch": 47, "duration": 14, "velocity": 84}, {"time": 3073, "pitch": 56, "duration": 7, "velocity": 90}, {"time": 3076, "pitch": 59, "duration": 4, "velocity": 93}, {"time": 3079, "pitch": 64, "duration": 6, "velocity": 93}, {"time": 3082, "pitch": 59, "duration": 4, "velocity": 92}, {"time": 3085, "pitch": 56, "duration": 7, "velocity": 94}, {"time": 3088, "pitch": 59, "duration": 2, "velocity": 84}, {"time": 3091, "pitch": 49, "duration": 18, "velocity": 95}, {"time": 3094, "pitch": 56, "duration": 4, "velocity": 91}, {"time": 3097, "pitch": 61, "duration": 5, "velocity": 88}, {"time": 3100, "pitch": 56, "duration": 4, "velocity": 85}, {"time": 3103, "pitch": 65, "duration": 8, "velocity": 99}, {"time": 3106, "pitch": 56, "duration": 4, "velocity": 84}, {"time": 3109, "pitch": 61, "duration": 5, "velocity": 84}, {"time": 3112, "pitch": 56, "duration": 4, "velocity": 79}, {"time": 3115, "pitch": 47, "duration": 18, "velocity": 97}, {"time": 3118, "pitch": 54, "duration": 4, "velocity": 88}, {"time": 3121, "pitch": 59, "duration": 5, "velocity": 89}, {"time": 3124, "pitch": 54, "duration": 4, "velocity": 82}, {"time": 3127, "pitch": 63, "duration": 7, "velocity": 91}, {"time": 3130, "pitch": 54, "duration": 4, "velocity": 80}, {"time": 3133, "pitch": 59, "duration": 2, "velocity": 87}, {"time": 3139, "pitch": 42, "duration": 17, "velocity": 89}, {"time": 3139, "pitch": 54, "duration": 15, "velocity": 82}, {"time": 3139, "pitch": 58, "duration": 7, "velocity": 84}, {"time": 3142, "pitch": 49, "duration": 14, "velocity": 81}, {"time": 3145, "pitch": 61, "duration": 7, "velocity": 84}, {"time": 3148, "pitch": 58, "duration": 4, "velocity": 88}, {"time": 3151, "pitch": 66, "duration": 7, "velocity": 93}, {"time": 3154, "pitch": 61, "duration": 4, "velocity": 89}, {"time": 3157, "pitch": 58, "duration": 1, "velocity": 90}, {"time": 3163, "pitch": 40, "duration": 16, "velocity": 83}, {"time": 3163, "pitch": 56, "duration": 3, "velocity": 85}, {"time": 3163, "pitch": 59, "duration": 7, "velocity": 84}, {"time": 3166, "pitch": 47, "duration": 13, "velocity": 80}, {"time": 3169, "pitch": 56, "duration": 8, "velocity": 88}, {"time": 3172, "pitch": 59, "duration": 4, "velocity": 91}, {"time": 3175, "pitch": 64, "duration": 4, "velocity": 95}, {"time": 3178, "pitch": 59, "duration": 4, "velocity": 93}, {"time": 3181, "pitch": 56, "duration": 3, "velocity": 91}, {"time": 3187, "pitch": 44, "duration": 21, "velocity": 87}, {"time": 3187, "pitch": 59, "duration": 7, "velocity": 77}, {"time": 3187, "pitch": 63, "duration": 7, "velocity": 84}, {"time": 3190, "pitch": 51, "duration": 20, "velocity": 82}, {"time": 3193, "pitch": 56, "duration": 7, "velocity": 89}, {"time": 3196, "pitch": 59, "duration": 4, "velocity": 91}, {"time": 3199, "pitch": 63, "duration": 7, "velocity": 91}, {"time": 3202, "pitch": 59, "duration": 4, "velocity": 86}, {"time": 3205, "pitch": 56, "duration": 3, "velocity": 88}, {"time": 3211, "pitch": 42, "duration": 19, "velocity": 89}, {"time": 3211, "pitch": 54, "duration": 15, "velocity": 81}, {"time": 3211, "pitch": 58, "duration": 7, "velocity": 83}, {"time": 3214, "pitch": 49, "duration": 15, "velocity": 84}, {"time": 3217, "pitch": 61, "duration": 7, "velocity": 83}, {"time": 3220, "pitch": 58, "duration": 4, "velocity": 86}, {"time": 3223, "pitch": 66, "duration": 12, "velocity": 91}, {"time": 3226, "pitch": 61, "duration": 7, "velocity": 88}, {"time": 3229, "pitch": 54, "duration": 3, "velocity": 93}, {"time": 3235, "pitch": 44, "duration": 15, "velocity": 90}, {"time": 3235, "pitch": 56, "duration": 18, "velocity": 83}, {"time": 3235, "pitch": 59, "duration": 7, "velocity": 78}, {"time": 3238, "pitch": 51, "duration": 12, "velocity": 84}, {"time": 3241, "pitch": 63, "duration": 7, "velocity": 84}, {"time": 3244, "pitch": 59, "duration": 4, "velocity": 82}, {"time": 3247, "pitch": 68, "duration": 10, "velocity": 93}, {"time": 3250, "pitch": 63, "duration": 6, "velocity": 83}, {"time": 3253, "pitch": 59, "duration": 5, "velocity": 90}, {"time": 3256, "pitch": 56, "duration": 4, "velocity": 88}, {"time": 3259, "pitch": 40, "duration": 16, "velocity": 91}, {"time": 3259, "pitch": 64, "duration": 6, "velocity": 88}, {"time": 3262, "pitch": 47, "duration": 14, "velocity": 81}, {"time": 3265, "pitch": 56, "duration": 11, "velocity": 87}, {"time": 3268, "pitch": 59, "duration": 7, "velocity": 90}, {"time": 3268, "pitch": 64, "duration": 1, "velocity": 68}, {"time": 3271, "pitch": 68, "duration": 8, "velocity": 89}, {"time": 3274, "pitch": 64, "duration": 4, "velocity": 95}, {"time": 3277, "pitch": 59, "duration": 4, "velocity": 90}, {"time": 3280, "pitch": 56, "duration": 2, "velocity": 89}, {"time": 3283, "pitch": 49, "duration": 20, "velocity": 94}, {"time": 3283, "pitch": 56, "duration": 2, "velocity": 90}, {"time": 3283, "pitch": 61, "duration": 4, "velocity": 91}, {"time": 3286, "pitch": 56, "duration": 4, "velocity": 83}, {"time": 3289, "pitch": 61, "duration": 5, "velocity": 86}, {"time": 3292, "pitch": 56, "duration": 4, "velocity": 89}, {"time": 3295, "pitch": 65, "duration": 7, "velocity": 97}, {"time": 3298, "pitch": 56, "duration": 4, "velocity": 79}, {"time": 3301, "pitch": 61, "duration": 3, "velocity": 89}, {"time": 3304, "pitch": 56, "duration": 2, "velocity": 61}, {"time": 3307, "pitch": 47, "duration": 20, "velocity": 92}, {"time": 3307, "pitch": 59, "duration": 5, "velocity": 86}, {"time": 3310, "pitch": 54, "duration": 4, "velocity": 88}, {"time": 3313, "pitch": 59, "duration": 7, "velocity": 86}, {"time": 3316, "pitch": 54, "duration": 4, "velocity": 81}, {"time": 3319, "pitch": 63, "duration": 5, "velocity": 87}, {"time": 3322, "pitch": 54, "duration": 4, "velocity": 87}, {"time": 3325, "pitch": 59, "duration": 3, "velocity": 97}, {"time": 3328, "pitch": 54, "duration": 2, "velocity": 88}, {"time": 3331, "pitch": 42, "duration": 16, "velocity": 88}, {"time": 3331, "pitch": 54, "duration": 16, "velocity": 84}, {"time": 3331, "pitch": 58, "duration": 7, "velocity": 88}, {"time": 3334, "pitch": 49, "duration": 13, "velocity": 82}, {"time": 3337, "pitch": 61, "duration": 7, "velocity": 85}, {"time": 3340, "pitch": 58, "duration": 4, "velocity": 84}, {"time": 3343, "pitch": 66, "duration": 9, "velocity": 91}, {"time": 3346, "pitch": 61, "duration": 4, "velocity": 88}, {"time": 3349, "pitch": 58, "duration": 2, "velocity": 89}, {"time": 3355, "pitch": 40, "duration": 15, "velocity": 90}, {"time": 3355, "pitch": 56, "duration": 3, "velocity": 82}, {"time": 3355, "pitch": 59, "duration": 7, "velocity": 78}, {"time": 3358, "pitch": 47, "duration": 13, "velocity": 78}, {"time": 3361, "pitch": 56, "duration": 7, "velocity": 89}, {"time": 3364, "pitch": 59, "duration": 4, "velocity": 90}, {"time": 3367, "pitch": 64, "duration": 4, "velocity": 93}, {"time": 3370, "pitch": 59, "duration": 4, "velocity": 91}, {"time": 3373, "pitch": 56, "duration": 6, "velocity": 92}, {"time": 3379, "pitch": 44, "duration": 20, "velocity": 89}, {"time": 3379, "pitch": 59, "duration": 7, "velocity": 83}, {"time": 3379, "pitch": 63, "duration": 10, "velocity": 87}, {"time": 3382, "pitch": 51, "duration": 16, "velocity": 82}, {"time": 3385, "pitch": 56, "duration": 10, "velocity": 86}, {"time": 3388, "pitch": 59, "duration": 5, "velocity": 89}, {"time": 3391, "pitch": 68, "duration": 5, "velocity": 88}, {"time": 3394, "pitch": 63, "duration": 6, "velocity": 86}, {"time": 3397, "pitch": 59, "duration": 3, "velocity": 95}, {"time": 3403, "pitch": 39, "duration": 17, "velocity": 88}, {"time": 3403, "pitch": 58, "duration": 4, "velocity": 78}, {"time": 3403, "pitch": 63, "duration": 6, "velocity": 85}, {"time": 3406, "pitch": 46, "duration": 13, "velocity": 83}, {"time": 3409, "pitch": 58, "duration": 10, "velocity": 89}, {"time": 3412, "pitch": 63, "duration": 4, "velocity": 88}, {"time": 3415, "pitch": 66, "duration": 7, "velocity": 95}, {"time": 3418, "pitch": 63, "duration": 4, "velocity": 83}, {"time": 3421, "pitch": 58, "duration": 4, "velocity": 90}, {"time": 3427, "pitch": 42, "duration": 19, "velocity": 91}, {"time": 3427, "pitch": 54, "duration": 4, "velocity": 84}, {"time": 3427, "pitch": 58, "duration": 6, "velocity": 88}, {"time": 3430, "pitch": 49, "duration": 16, "velocity": 87}, {"time": 3433, "pitch": 54, "duration": 12, "velocity": 89}, {"time": 3436, "pitch": 61, "duration": 6, "velocity": 83}, {"time": 3439, "pitch": 66, "duration": 20, "velocity": 88}, {"time": 3451, "pitch": 44, "duration": 9, "velocity": 88}, {"time": 3451, "pitch": 56, "duration": 4, "velocity": 81}, {"time": 3451, "pitch": 59, "duration": 5, "velocity": 80}, {"time": 3451, "pitch": 63, "duration": 6, "velocity": 85}, {"time": 3454, "pitch": 51, "duration": 5, "velocity": 74}, {"time": 3457, "pitch": 56, "duration": 2, "velocity": 88}, {"time": 3460, "pitch": 44, "duration": 2, "velocity": 71}, {"time": 3460, "pitch": 51, "duration": 2, "velocity": 85}, {"time": 3460, "pitch": 56, "duration": 2, "velocity": 80}, {"time": 3460, "pitch": 59, "duration": 2, "velocity": 67}, {"time": 3460, "pitch": 63, "duration": 2, "velocity": 83}, {"time": 3463, "pitch": 44, "duration": 2, "velocity": 80}, {"time": 3463, "pitch": 51, "duration": 2, "velocity": 85}, {"time": 3463, "pitch": 56, "duration": 2, "velocity": 84}, {"time": 3463, "pitch": 59, "duration": 2, "velocity": 76}, {"time": 3463, "pitch": 63, "duration": 2, "velocity": 87}, {"time": 3466, "pitch": 44, "duration": 2, "velocity": 89}, {"time": 3466, "pitch": 51, "duration": 2, "velocity": 88}, {"time": 3466, "pitch": 56, "duration": 2, "velocity": 89}, {"time": 3466, "pitch": 59, "duration": 2, "velocity": 88}, {"time": 3466, "pitch": 63, "duration": 2, "velocity": 89}, {"time": 3469, "pitch": 44, "duration": 6, "velocity": 90}, {"time": 3469, "pitch": 51, "duration": 6, "velocity": 91}, {"time": 3469, "pitch": 56, "duration": 6, "velocity": 91}, {"time": 3469, "pitch": 59, "duration": 6, "velocity": 91}, {"time": 3469, "pitch": 63, "duration": 6, "velocity": 94}, {"time": 3474, "pitch": 56, "duration": 1, "velocity": 55}, {"time": 3474, "pitch": 59, "duration": 1, "velocity": 76}, {"time": 3475, "pitch": 44, "duration": 1, "velocity": 80}, {"time": 3475, "pitch": 63, "duration": 1, "velocity": 58}, {"time": 3487, "pitch": 51, "duration": 23, "velocity": 75}, {"time": 3490, "pitch": 56, "duration": 8, "velocity": 75}, {"time": 3493, "pitch": 59, "duration": 5, "velocity": 74}, {"time": 3499, "pitch": 56, "duration": 9, "velocity": 79}, {"time": 3499, "pitch": 63, "duration": 24, "velocity": 83}, {"time": 3499, "pitch": 59, "duration": 9, "velocity": 79}, {"time": 3511, "pitch": 54, "duration": 8, "velocity": 84}, {"time": 3511, "pitch": 42, "duration": 11, "velocity": 88}, {"time": 3511, "pitch": 58, "duration": 12, "velocity": 83}, {"time": 3523, "pitch": 56, "duration": 11, "velocity": 82}, {"time": 3523, "pitch": 59, "duration": 7, "velocity": 76}, {"time": 3523, "pitch": 44, "duration": 18, "velocity": 88}, {"time": 3529, "pitch": 51, "duration": 8, "velocity": 77}, {"time": 3535, "pitch": 59, "duration": 3, "velocity": 76}, {"time": 3535, "pitch": 63, "duration": 3, "velocity": 85}, {"time": 3545, "pitch": 56, "duration": 8, "velocity": 75}, {"time": 3546, "pitch": 59, "duration": 7, "velocity": 71}, {"time": 3547, "pitch": 63, "duration": 6, "velocity": 77}, {"time": 3547, "pitch": 68, "duration": 5, "velocity": 83}, {"time": 3547, "pitch": 44, "duration": 10, "velocity": 88}, {"time": 3553, "pitch": 51, "duration": 4, "velocity": 73}, {"time": 3559, "pitch": 42, "duration": 6, "velocity": 88}, {"time": 3559, "pitch": 54, "duration": 4, "velocity": 87}, {"time": 3559, "pitch": 58, "duration": 5, "velocity": 84}, {"time": 3570, "pitch": 56, "duration": 8, "velocity": 73}, {"time": 3571, "pitch": 59, "duration": 7, "velocity": 86}, {"time": 3571, "pitch": 44, "duration": 32, "velocity": 85}, {"time": 3572, "pitch": 63, "duration": 5, "velocity": 80}, {"time": 3577, "pitch": 51, "duration": 7, "velocity": 75}, {"time": 3582, "pitch": 56, "duration": 8, "velocity": 79}, {"time": 3589, "pitch": 51, "duration": 13, "velocity": 64}, {"time": 3595, "pitch": 59, "duration": 6, "velocity": 86}, {"time": 3595, "pitch": 63, "duration": 6, "velocity": 88}, {"time": 3606, "pitch": 54, "duration": 3, "velocity": 75}, {"time": 3607, "pitch": 58, "duration": 3, "velocity": 76}, {"time": 3607, "pitch": 42, "duration": 5, "velocity": 89}, {"time": 3607, "pitch": 61, "duration": 4, "velocity": 79}, {"time": 3618, "pitch": 56, "duration": 3, "velocity": 77}, {"time": 3618, "pitch": 59, "duration": 7, "velocity": 76}, {"time": 3619, "pitch": 44, "duration": 33, "velocity": 88}, {"time": 3619, "pitch": 63, "duration": 6, "velocity": 83}, {"time": 3620, "pitch": 68, "duration": 5, "velocity": 71}, {"time": 3625, "pitch": 51, "duration": 8, "velocity": 73}, {"time": 3631, "pitch": 56, "duration": 7, "velocity": 89}, {"time": 3637, "pitch": 51, "duration": 16, "velocity": 72}, {"time": 3643, "pitch": 59, "duration": 7, "velocity": 88}, {"time": 3643, "pitch": 63, "duration": 8, "velocity": 89}, {"time": 3643, "pitch": 56, "duration": 8, "velocity": 88}, {"time": 3655, "pitch": 54, "duration": 4, "velocity": 85}, {"time": 3655, "pitch": 58, "duration": 4, "velocity": 83}, {"time": 3655, "pitch": 42, "duration": 4, "velocity": 86}, {"time": 3667, "pitch": 56, "duration": 8, "velocity": 82}, {"time": 3667, "pitch": 59, "duration": 12, "velocity": 79}, {"time": 3667, "pitch": 40, "duration": 29, "velocity": 92}, {"time": 3668, "pitch": 64, "duration": 11, "velocity": 80}, {"time": 3673, "pitch": 47, "duration": 22, "velocity": 73}, {"time": 3679, "pitch": 56, "duration": 14, "velocity": 94}, {"time": 3685, "pitch": 59, "duration": 4, "velocity": 89}, {"time": 3691, "pitch": 59, "duration": 5, "velocity": 87}, {"time": 3691, "pitch": 64, "duration": 5, "velocity": 81}, {"time": 3703, "pitch": 54, "duration": 5, "velocity": 83}, {"time": 3703, "pitch": 58, "duration": 5, "velocity": 86}, {"time": 3703, "pitch": 42, "duration": 6, "velocity": 88}, {"time": 3714, "pitch": 56, "duration": 39, "velocity": 77}, {"time": 3715, "pitch": 59, "duration": 35, "velocity": 80}, {"time": 3715, "pitch": 51, "duration": 36, "velocity": 77}, {"time": 3715, "pitch": 44, "duration": 36, "velocity": 89}, {"time": 3716, "pitch": 63, "duration": 34, "velocity": 87}], "annotations": [{"time": 265, "annotation": {"number": 64, "value": 127}, "group": "control_change"}, {"time": 282, "annotation": {"number": 64, "value": 0}, "group": "control_change"}, {"time": 283, "annotation": {"number": 64, "value": 127}, "group": "control_change"}, {"time": 294, "annotation": {"number": 64, "value": 0}, "group": "control_change"}, {"time": 295, "annotation": {"number": 64, "value": 127}, "group": "control_change"}, {"time": 306, "annotation": {"number": 64, "value": 0}, "group": "control_change"}, {"time": 308, "annotation": {"number": 64, "value": 127}, "group": "control_change"}, {"time": 341, "annotation": {"number": 64, "value": 0}, "group": "control_change"}, {"time": 343, "annotation": {"number": 64, "value": 127}, "group": "control_change"}, {"time": 353, "annotation": {"number": 64, "value": 0}, "group": "control_change"}, {"time": 356, "annotation": {"number": 64, "value": 127}, "group": "control_change"}, {"time": 381, "annotation": {"number": 64, "value": 0}, "group": "control_change"}, {"time": 383, "annotation": {"number": 64, "value": 127}, "group": "control_change"}, {"time": 390, "annotation": {"number": 64, "value": 0}, "group": "control_change"}, {"time": 392, "annotation": {"number": 64, "value": 127}, "group": "control_change"}, {"time": 403, "annotation": {"number": 64, "value": 0}, "group": "control_change"}, {"time": 405, "annotation": {"number": 64, "value": 127}, "group": "control_change"}, {"time": 439, "annotation": {"number": 64, "value": 0}, "group": "control_change"}, {"time": 440, "annotation": {"number": 64, "value": 127}, "group": "control_change"}, {"time": 451, "annotation": {"number": 64, "value": 0}, "group": "control_change"}, {"time": 454, "annotation": {"number": 64, "value": 127}, "group": "control_change"}, {"time": 499, "annotation": {"number": 64, "value": 0}, "group": "control_change"}, {"time": 505, "annotation": {"number": 64, "value": 127}, "group": "control_change"}, {"time": 534, "annotation": {"number": 64, "value": 0}, "group": "control_change"}, {"time": 536, "annotation": {"number": 64, "value": 127}, "group": "control_change"}, {"time": 546, "annotation": {"number": 64, "value": 0}, "group": "control_change"}, {"time": 548, "annotation": {"number": 64, "value": 127}, "group": "control_change"}, {"time": 582, "annotation": {"number": 64, "value": 0}, "group": "control_change"}, {"time": 583, "annotation": {"number": 64, "value": 127}, "group": "control_change"}, {"time": 596, "annotation": {"number": 64, "value": 127}, "group": "control_change"}, {"time": 642, "annotation": {"number": 64, "value": 0}, "group": "control_change"}, {"time": 649, "annotation": {"number": 64, "value": 127}, "group": "control_change"}, {"time": 687, "annotation": {"number": 64, "value": 0}, "group": "control_change"}, {"time": 692, "annotation": {"number": 64, "value": 127}, "group": "control_change"}, {"time": 700, "annotation": {"number": 64, "value": 0}, "group": "control_change"}, {"time": 702, "annotation": {"number": 64, "value": 127}, "group": "control_change"}, {"time": 714, "annotation": {"number": 64, "value": 0}, "group": "control_change"}, {"time": 716, "annotation": {"number": 64, "value": 127}, "group": "control_change"}, {"time": 736, "annotation": {"number": 64, "value": 0}, "group": "control_change"}, {"time": 740, "annotation": {"number": 64, "value": 127}, "group": "control_change"}, {"time": 750, "annotation": {"number": 64, "value": 0}, "group": "control_change"}, {"time": 753, "annotation": {"number": 64, "value": 127}, "group": "control_change"}, {"time": 762, "annotation": {"number": 64, "value": 0}, "group": "control_change"}, {"time": 764, "annotation": {"number": 64, "value": 127}, "group": "control_change"}, {"time": 786, "annotation": {"number": 64, "value": 0}, "group": "control_change"}, {"time": 791, "annotation": {"number": 64, "value": 127}, "group": "control_change"}, {"time": 810, "annotation": {"number": 64, "value": 0}, "group": "control_change"}, {"time": 813, "annotation": {"number": 64, "value": 127}, "group": "control_change"}, {"time": 813, "annotation": {"number": 64, "value": 0}, "group": "control_change"}, {"time": 835, "annotation": {"number": 64, "value": 0}, "group": "control_change"}, {"time": 838, "annotation": {"number": 64, "value": 127}, "group": "control_change"}, {"time": 847, "annotation": {"number": 64, "value": 0}, "group": "control_change"}, {"time": 849, "annotation": {"number": 64, "value": 127}, "group": "control_change"}, {"time": 858, "annotation": {"number": 64, "value": 0}, "group": "control_change"}, {"time": 862, "annotation": {"number": 64, "value": 127}, "group": "control_change"}, {"time": 882, "annotation": {"number": 64, "value": 0}, "group": "control_change"}, {"time": 887, "annotation": {"number": 64, "value": 127}, "group": "control_change"}, {"time": 907, "annotation": {"number": 64, "value": 0}, "group": "control_change"}, {"time": 910, "annotation": {"number": 64, "value": 127}, "group": "control_change"}, {"time": 931, "annotation": {"number": 64, "value": 0}, "group": "control_change"}, {"time": 933, "annotation": {"number": 64, "value": 127}, "group": "control_change"}, {"time": 943, "annotation": {"number": 64, "value": 0}, "group": "control_change"}, {"time": 945, "annotation": {"number": 64, "value": 127}, "group": "control_change"}, {"time": 954, "annotation": {"number": 64, "value": 0}, "group": "control_change"}, {"time": 958, "annotation": {"number": 64, "value": 127}, "group": "control_change"}, {"time": 959, "annotation": {"number": 64, "value": 0}, "group": "control_change"}, {"time": 959, "annotation": {"number": 64, "value": 127}, "group": "control_change"}, {"time": 978, "annotation": {"number": 64, "value": 0}, "group": "control_change"}, {"time": 983, "annotation": {"number": 64, "value": 127}, "group": "control_change"}, {"time": 1002, "annotation": {"number": 64, "value": 0}, "group": "control_change"}, {"time": 1004, "annotation": {"number": 64, "value": 127}, "group": "control_change"}, {"time": 1026, "annotation": {"number": 64, "value": 0}, "group": "control_change"}, {"time": 1032, "annotation": {"number": 64, "value": 127}, "group": "control_change"}, {"time": 1049, "annotation": {"number": 64, "value": 0}, "group": "control_change"}, {"time": 1054, "annotation": {"number": 64, "value": 127}, "group": "control_change"}, {"time": 1075, "annotation": {"number": 64, "value": 0}, "group": "control_change"}, {"time": 1077, "annotation": {"number": 64, "value": 127}, "group": "control_change"}, {"time": 1077, "annotation": {"number": 64, "value": 0}, "group": "control_change"}, {"time": 1098, "annotation": {"number": 64, "value": 0}, "group": "control_change"}, {"time": 1100, "annotation": {"number": 64, "value": 127}, "group": "control_change"}, {"time": 1117, "annotation": {"number": 64, "value": 0}, "group": "control_change"}, {"time": 1118, "annotation": {"number": 64, "value": 127}, "group": "control_change"}, {"time": 1122, "annotation": {"number": 64, "value": 0}, "group": "control_change"}, {"time": 1124, "annotation": {"number": 64, "value": 127}, "group": "control_change"}, {"time": 1141, "annotation": {"number": 64, "value": 0}, "group": "control_change"}, {"time": 1142, "annotation": {"number": 64, "value": 127}, "group": "control_change"}, {"time": 1146, "annotation": {"number": 64, "value": 0}, "group": "control_change"}, {"time": 1148, "annotation": {"number": 64, "value": 127}, "group": "control_change"}, {"time": 1158, "annotation": {"number": 64, "value": 0}, "group": "control_change"}, {"time": 1160, "annotation": {"number": 64, "value": 127}, "group": "control_change"}, {"time": 1169, "annotation": {"number": 64, "value": 0}, "group": "control_change"}, {"time": 1172, "annotation": {"number": 64, "value": 127}, "group": "control_change"}, {"time": 1173, "annotation": {"number": 64, "value": 0}, "group": "control_change"}, {"time": 1173, "annotation": {"number": 64, "value": 127}, "group": "control_change"}, {"time": 1193, "annotation": {"number": 64, "value": 0}, "group": "control_change"}, {"time": 1197, "annotation": {"number": 64, "value": 127}, "group": "control_change"}, {"time": 1197, "annotation": {"number": 64, "value": 0}, "group": "control_change"}, {"time": 1218, "annotation": {"number": 64, "value": 0}, "group": "control_change"}, {"time": 1220, "annotation": {"number": 64, "value": 127}, "group": "control_change"}, {"time": 1241, "annotation": {"number": 64, "value": 0}, "group": "control_change"}, {"time": 1244, "annotation": {"number": 64, "value": 127}, "group": "control_change"}, {"time": 1267, "annotation": {"number": 64, "value": 0}, "group": "control_change"}, {"time": 1272, "annotation": {"number": 64, "value": 127}, "group": "control_change"}, {"time": 1291, "annotation": {"number": 64, "value": 0}, "group": "control_change"}, {"time": 1295, "annotation": {"number": 64, "value": 127}, "group": "control_change"}, {"time": 1314, "annotation": {"number": 64, "value": 0}, "group": "control_change"}, {"time": 1317, "annotation": {"number": 64, "value": 127}, "group": "control_change"}, {"time": 1317, "annotation": {"number": 64, "value": 0}, "group": "control_change"}, {"time": 1339, "annotation": {"number": 64, "value": 0}, "group": "control_change"}, {"time": 1343, "annotation": {"number": 64, "value": 127}, "group": "control_change"}, {"time": 1343, "annotation": {"number": 64, "value": 0}, "group": "control_change"}, {"time": 1362, "annotation": {"number": 64, "value": 0}, "group": "control_change"}, {"time": 1367, "annotation": {"number": 64, "value": 127}, "group": "control_change"}, {"time": 1387, "annotation": {"number": 64, "value": 0}, "group": "control_change"}, {"time": 1389, "annotation": {"number": 64, "value": 127}, "group": "control_change"}, {"time": 1410, "annotation": {"number": 64, "value": 0}, "group": "control_change"}, {"time": 1414, "annotation": {"number": 64, "value": 127}, "group": "control_change"}, {"time": 1436, "annotation": {"number": 64, "value": 0}, "group": "control_change"}, {"time": 1440, "annotation": {"number": 64, "value": 127}, "group": "control_change"}, {"time": 1459, "annotation": {"number": 64, "value": 0}, "group": "control_change"}, {"time": 1463, "annotation": {"number": 64, "value": 127}, "group": "control_change"}, {"time": 1483, "annotation": {"number": 64, "value": 0}, "group": "control_change"}, {"time": 1487, "annotation": {"number": 64, "value": 127}, "group": "control_change"}, {"time": 1506, "annotation": {"number": 64, "value": 0}, "group": "control_change"}, {"time": 1512, "annotation": {"number": 64, "value": 127}, "group": "control_change"}, {"time": 1512, "annotation": {"number": 64, "value": 0}, "group": "control_change"}, {"time": 1532, "annotation": {"number": 64, "value": 0}, "group": "control_change"}, {"time": 1535, "annotation": {"number": 64, "value": 127}, "group": "control_change"}, {"time": 1555, "annotation": {"number": 64, "value": 0}, "group": "control_change"}, {"time": 1558, "annotation": {"number": 64, "value": 127}, "group": "control_change"}, {"time": 1577, "annotation": {"number": 64, "value": 0}, "group": "control_change"}, {"time": 1581, "annotation": {"number": 64, "value": 127}, "group": "control_change"}, {"time": 1581, "annotation": {"number": 64, "value": 0}, "group": "control_change"}, {"time": 1598, "annotation": {"number": 64, "value": 0}, "group": "control_change"}, {"time": 1606, "annotation": {"number": 64, "value": 127}, "group": "control_change"}, {"time": 1614, "annotation": {"number": 64, "value": 0}, "group": "control_change"}, {"time": 1617, "annotation": {"number": 64, "value": 127}, "group": "control_change"}, {"time": 1626, "annotation": {"number": 64, "value": 0}, "group": "control_change"}, {"time": 1628, "annotation": {"number": 64, "value": 127}, "group": "control_change"}, {"time": 1639, "annotation": {"number": 64, "value": 0}, "group": "control_change"}, {"time": 1641, "annotation": {"number": 64, "value": 127}, "group": "control_change"}, {"time": 1649, "annotation": {"number": 64, "value": 0}, "group": "control_change"}, {"time": 1652, "annotation": {"number": 64, "value": 127}, "group": "control_change"}, {"time": 1662, "annotation": {"number": 64, "value": 0}, "group": "control_change"}, {"time": 1664, "annotation": {"number": 64, "value": 127}, "group": "control_change"}, {"time": 1674, "annotation": {"number": 64, "value": 0}, "group": "control_change"}, {"time": 1676, "annotation": {"number": 64, "value": 127}, "group": "control_change"}, {"time": 1686, "annotation": {"number": 64, "value": 0}, "group": "control_change"}, {"time": 1688, "annotation": {"number": 64, "value": 127}, "group": "control_change"}, {"time": 1698, "annotation": {"number": 64, "value": 0}, "group": "control_change"}, {"time": 1702, "annotation": {"number": 64, "value": 127}, "group": "control_change"}, {"time": 1711, "annotation": {"number": 64, "value": 0}, "group": "control_change"}, {"time": 1713, "annotation": {"number": 64, "value": 127}, "group": "control_change"}, {"time": 1722, "annotation": {"number": 64, "value": 0}, "group": "control_change"}, {"time": 1724, "annotation": {"number": 64, "value": 127}, "group": "control_change"}, {"time": 1734, "annotation": {"number": 64, "value": 0}, "group": "control_change"}, {"time": 1736, "annotation": {"number": 64, "value": 127}, "group": "control_change"}, {"time": 1746, "annotation": {"number": 64, "value": 0}, "group": "control_change"}, {"time": 1748, "annotation": {"number": 64, "value": 127}, "group": "control_change"}, {"time": 1758, "annotation": {"number": 64, "value": 0}, "group": "control_change"}, {"time": 1760, "annotation": {"number": 64, "value": 127}, "group": "control_change"}, {"time": 1770, "annotation": {"number": 64, "value": 0}, "group": "control_change"}, {"time": 1772, "annotation": {"number": 64, "value": 127}, "group": "control_change"}, {"time": 1784, "annotation": {"number": 64, "value": 0}, "group": "control_change"}, {"time": 1785, "annotation": {"number": 64, "value": 127}, "group": "control_change"}, {"time": 1794, "annotation": {"number": 64, "value": 0}, "group": "control_change"}, {"time": 1798, "annotation": {"number": 64, "value": 127}, "group": "control_change"}, {"time": 1806, "annotation": {"number": 64, "value": 0}, "group": "control_change"}, {"time": 1809, "annotation": {"number": 64, "value": 127}, "group": "control_change"}, {"time": 1818, "annotation": {"number": 64, "value": 0}, "group": "control_change"}, {"time": 1820, "annotation": {"number": 64, "value": 127}, "group": "control_change"}, {"time": 1831, "annotation": {"number": 64, "value": 0}, "group": "control_change"}, {"time": 1833, "annotation": {"number": 64, "value": 127}, "group": "control_change"}, {"time": 1841, "annotation": {"number": 64, "value": 0}, "group": "control_change"}, {"time": 1844, "annotation": {"number": 64, "value": 127}, "group": "control_change"}, {"time": 1854, "annotation": {"number": 64, "value": 0}, "group": "control_change"}, {"time": 1856, "annotation": {"number": 64, "value": 127}, "group": "control_change"}, {"time": 1866, "annotation": {"number": 64, "value": 0}, "group": "control_change"}, {"time": 1868, "annotation": {"number": 64, "value": 127}, "group": "control_change"}, {"time": 1878, "annotation": {"number": 64, "value": 0}, "group": "control_change"}, {"time": 1880, "annotation": {"number": 64, "value": 127}, "group": "control_change"}, {"time": 1890, "annotation": {"number": 64, "value": 0}, "group": "control_change"}, {"time": 1894, "annotation": {"number": 64, "value": 127}, "group": "control_change"}, {"time": 1903, "annotation": {"number": 64, "value": 0}, "group": "control_change"}, {"time": 1905, "annotation": {"number": 64, "value": 127}, "group": "control_change"}, {"time": 1914, "annotation": {"number": 64, "value": 0}, "group": "control_change"}, {"time": 1916, "annotation": {"number": 64, "value": 127}, "group": "control_change"}, {"time": 1926, "annotation": {"number": 64, "value": 0}, "group": "control_change"}, {"time": 1928, "annotation": {"number": 64, "value": 127}, "group": "control_change"}, {"time": 1938, "annotation": {"number": 64, "value": 0}, "group": "control_change"}, {"time": 1940, "annotation": {"number": 64, "value": 127}, "group": "control_change"}, {"time": 1950, "annotation": {"number": 64, "value": 0}, "group": "control_change"}, {"time": 1952, "annotation": {"number": 64, "value": 127}, "group": "control_change"}, {"time": 1962, "annotation": {"number": 64, "value": 0}, "group": "control_change"}, {"time": 1963, "annotation": {"number": 64, "value": 127}, "group": "control_change"}, {"time": 1974, "annotation": {"number": 64, "value": 0}, "group": "control_change"}, {"time": 2132, "annotation": {"number": 64, "value": 127}, "group": "control_change"}, {"time": 2140, "annotation": {"number": 64, "value": 0}, "group": "control_change"}, {"time": 2142, "annotation": {"number": 64, "value": 127}, "group": "control_change"}, {"time": 2154, "annotation": {"number": 64, "value": 0}, "group": "control_change"}, {"time": 2156, "annotation": {"number": 64, "value": 127}, "group": "control_change"}, {"time": 2176, "annotation": {"number": 64, "value": 0}, "group": "control_change"}, {"time": 2180, "annotation": {"number": 64, "value": 127}, "group": "control_change"}, {"time": 2190, "annotation": {"number": 64, "value": 0}, "group": "control_change"}, {"time": 2193, "annotation": {"number": 64, "value": 127}, "group": "control_change"}, {"time": 2202, "annotation": {"number": 64, "value": 0}, "group": "control_change"}, {"time": 2204, "annotation": {"number": 64, "value": 127}, "group": "control_change"}, {"time": 2226, "annotation": {"number": 64, "value": 0}, "group": "control_change"}, {"time": 2231, "annotation": {"number": 64, "value": 127}, "group": "control_change"}, {"time": 2250, "annotation": {"number": 64, "value": 0}, "group": "control_change"}, {"time": 2253, "annotation": {"number": 64, "value": 127}, "group": "control_change"}, {"time": 2253, "annotation": {"number": 64, "value": 0}, "group": "control_change"}, {"time": 2275, "annotation": {"number": 64, "value": 0}, "group": "control_change"}, {"time": 2278, "annotation": {"number": 64, "value": 127}, "group": "control_change"}, {"time": 2287, "annotation": {"number": 64, "value": 0}, "group": "control_change"}, {"time": 2289, "annotation": {"number": 64, "value": 127}, "group": "control_change"}, {"time": 2298, "annotation": {"number": 64, "value": 0}, "group": "control_change"}, {"time": 2302, "annotation": {"number": 64, "value": 127}, "group": "control_change"}, {"time": 2322, "annotation": {"number": 64, "value": 0}, "group": "control_change"}, {"time": 2327, "annotation": {"number": 64, "value": 127}, "group": "control_change"}, {"time": 2347, "annotation": {"number": 64, "value": 0}, "group": "control_change"}, {"time": 2350, "annotation": {"number": 64, "value": 127}, "group": "control_change"}, {"time": 2371, "annotation": {"number": 64, "value": 0}, "group": "control_change"}, {"time": 2373, "annotation": {"number": 64, "value": 127}, "group": "control_change"}, {"time": 2383, "annotation": {"number": 64, "value": 0}, "group": "control_change"}, {"time": 2385, "annotation": {"number": 64, "value": 127}, "group": "control_change"}, {"time": 2394, "annotation": {"number": 64, "value": 0}, "group": "control_change"}, {"time": 2398, "annotation": {"number": 64, "value": 127}, "group": "control_change"}, {"time": 2399, "annotation": {"number": 64, "value": 0}, "group": "control_change"}, {"time": 2399, "annotation": {"number": 64, "value": 127}, "group": "control_change"}, {"time": 2418, "annotation": {"number": 64, "value": 0}, "group": "control_change"}, {"time": 2423, "annotation": {"number": 64, "value": 127}, "group": "control_change"}, {"time": 2442, "annotation": {"number": 64, "value": 0}, "group": "control_change"}, {"time": 2444, "annotation": {"number": 64, "value": 127}, "group": "control_change"}, {"time": 2466, "annotation": {"number": 64, "value": 0}, "group": "control_change"}, {"time": 2472, "annotation": {"number": 64, "value": 127}, "group": "control_change"}, {"time": 2489, "annotation": {"number": 64, "value": 0}, "group": "control_change"}, {"time": 2494, "annotation": {"number": 64, "value": 127}, "group": "control_change"}, {"time": 2515, "annotation": {"number": 64, "value": 0}, "group": "control_change"}, {"time": 2517, "annotation": {"number": 64, "value": 127}, "group": "control_change"}, {"time": 2517, "annotation": {"number": 64, "value": 0}, "group": "control_change"}, {"time": 2538, "annotation": {"number": 64, "value": 0}, "group": "control_change"}, {"time": 2540, "annotation": {"number": 64, "value": 127}, "group": "control_change"}, {"time": 2557, "annotation": {"number": 64, "value": 0}, "group": "control_change"}, {"time": 2558, "annotation": {"number": 64, "value": 127}, "group": "control_change"}, {"time": 2562, "annotation": {"number": 64, "value": 0}, "group": "control_change"}, {"time": 2564, "annotation": {"number": 64, "value": 127}, "group": "control_change"}, {"time": 2581, "annotation": {"number": 64, "value": 0}, "group": "control_change"}, {"time": 2582, "annotation": {"number": 64, "value": 127}, "group": "control_change"}, {"time": 2586, "annotation": {"number": 64, "value": 0}, "group": "control_change"}, {"time": 2588, "annotation": {"number": 64, "value": 127}, "group": "control_change"}, {"time": 2598, "annotation": {"number": 64, "value": 0}, "group": "control_change"}, {"time": 2600, "annotation": {"number": 64, "value": 127}, "group": "control_change"}, {"time": 2609, "annotation": {"number": 64, "value": 0}, "group": "control_change"}, {"time": 2612, "annotation": {"number": 64, "value": 127}, "group": "control_change"}, {"time": 2613, "annotation": {"number": 64, "value": 0}, "group": "control_change"}, {"time": 2613, "annotation": {"number": 64, "value": 127}, "group": "control_change"}, {"time": 2633, "annotation": {"number": 64, "value": 0}, "group": "control_change"}, {"time": 2637, "annotation": {"number": 64, "value": 127}, "group": "control_change"}, {"time": 2637, "annotation": {"number": 64, "value": 0}, "group": "control_change"}, {"time": 2658, "annotation": {"number": 64, "value": 0}, "group": "control_change"}, {"time": 2660, "annotation": {"number": 64, "value": 127}, "group": "control_change"}, {"time": 2681, "annotation": {"number": 64, "value": 0}, "group": "control_change"}, {"time": 2684, "annotation": {"number": 64, "value": 127}, "group": "control_change"}, {"time": 2707, "annotation": {"number": 64, "value": 0}, "group": "control_change"}, {"time": 2712, "annotation": {"number": 64, "value": 127}, "group": "control_change"}, {"time": 2731, "annotation": {"number": 64, "value": 0}, "group": "control_change"}, {"time": 2735, "annotation": {"number": 64, "value": 127}, "group": "control_change"}, {"time": 2754, "annotation": {"number": 64, "value": 0}, "group": "control_change"}, {"time": 2757, "annotation": {"number": 64, "value": 127}, "group": "control_change"}, {"time": 2757, "annotation": {"number": 64, "value": 0}, "group": "control_change"}, {"time": 2779, "annotation": {"number": 64, "value": 0}, "group": "control_change"}, {"time": 2783, "annotation": {"number": 64, "value": 127}, "group": "control_change"}, {"time": 2783, "annotation": {"number": 64, "value": 0}, "group": "control_change"}, {"time": 2802, "annotation": {"number": 64, "value": 0}, "group": "control_change"}, {"time": 2807, "annotation": {"number": 64, "value": 127}, "group": "control_change"}, {"time": 2827, "annotation": {"number": 64, "value": 0}, "group": "control_change"}, {"time": 2829, "annotation": {"number": 64, "value": 127}, "group": "control_change"}, {"time": 2850, "annotation": {"number": 64, "value": 0}, "group": "control_change"}, {"time": 2854, "annotation": {"number": 64, "value": 127}, "group": "control_change"}, {"time": 2876, "annotation": {"number": 64, "value": 0}, "group": "control_change"}, {"time": 2880, "annotation": {"number": 64, "value": 127}, "group": "control_change"}, {"time": 2899, "annotation": {"number": 64, "value": 0}, "group": "control_change"}, {"time": 2903, "annotation": {"number": 64, "value": 127}, "group": "control_change"}, {"time": 2923, "annotation": {"number": 64, "value": 0}, "group": "control_change"}, {"time": 2927, "annotation": {"number": 64, "value": 127}, "group": "control_change"}, {"time": 2946, "annotation": {"number": 64, "value": 0}, "group": "control_change"}, {"time": 2952, "annotation": {"number": 64, "value": 127}, "group": "control_change"}, {"time": 2952, "annotation": {"number": 64, "value": 0}, "group": "control_change"}, {"time": 2972, "annotation": {"number": 64, "value": 0}, "group": "control_change"}, {"time": 2975, "annotation": {"number": 64, "value": 127}, "group": "control_change"}, {"time": 2995, "annotation": {"number": 64, "value": 0}, "group": "control_change"}, {"time": 2998, "annotation": {"number": 64, "value": 127}, "group": "control_change"}, {"time": 3017, "annotation": {"number": 64, "value": 0}, "group": "control_change"}, {"time": 3021, "annotation": {"number": 64, "value": 127}, "group": "control_change"}, {"time": 3021, "annotation": {"number": 64, "value": 0}, "group": "control_change"}, {"time": 3038, "annotation": {"number": 64, "value": 0}, "group": "control_change"}, {"time": 3044, "annotation": {"number": 64, "value": 127}, "group": "control_change"}, {"time": 3045, "annotation": {"number": 64, "value": 0}, "group": "control_change"}, {"time": 3045, "annotation": {"number": 64, "value": 127}, "group": "control_change"}, {"time": 3065, "annotation": {"number": 64, "value": 0}, "group": "control_change"}, {"time": 3069, "annotation": {"number": 64, "value": 127}, "group": "control_change"}, {"time": 3069, "annotation": {"number": 64, "value": 0}, "group": "control_change"}, {"time": 3090, "annotation": {"number": 64, "value": 0}, "group": "control_change"}, {"time": 3092, "annotation": {"number": 64, "value": 127}, "group": "control_change"}, {"time": 3113, "annotation": {"number": 64, "value": 0}, "group": "control_change"}, {"time": 3116, "annotation": {"number": 64, "value": 127}, "group": "control_change"}, {"time": 3139, "annotation": {"number": 64, "value": 0}, "group": "control_change"}, {"time": 3144, "annotation": {"number": 64, "value": 127}, "group": "control_change"}, {"time": 3163, "annotation": {"number": 64, "value": 0}, "group": "control_change"}, {"time": 3167, "annotation": {"number": 64, "value": 127}, "group": "control_change"}, {"time": 3186, "annotation": {"number": 64, "value": 0}, "group": "control_change"}, {"time": 3189, "annotation": {"number": 64, "value": 127}, "group": "control_change"}, {"time": 3189, "annotation": {"number": 64, "value": 0}, "group": "control_change"}, {"time": 3211, "annotation": {"number": 64, "value": 0}, "group": "control_change"}, {"time": 3215, "annotation": {"number": 64, "value": 127}, "group": "control_change"}, {"time": 3215, "annotation": {"number": 64, "value": 0}, "group": "control_change"}, {"time": 3234, "annotation": {"number": 64, "value": 0}, "group": "control_change"}, {"time": 3239, "annotation": {"number": 64, "value": 127}, "group": "control_change"}, {"time": 3259, "annotation": {"number": 64, "value": 0}, "group": "control_change"}, {"time": 3261, "annotation": {"number": 64, "value": 127}, "group": "control_change"}, {"time": 3282, "annotation": {"number": 64, "value": 0}, "group": "control_change"}, {"time": 3286, "annotation": {"number": 64, "value": 127}, "group": "control_change"}, {"time": 3308, "annotation": {"number": 64, "value": 0}, "group": "control_change"}, {"time": 3312, "annotation": {"number": 64, "value": 127}, "group": "control_change"}, {"time": 3331, "annotation": {"number": 64, "value": 0}, "group": "control_change"}, {"time": 3335, "annotation": {"number": 64, "value": 127}, "group": "control_change"}, {"time": 3355, "annotation": {"number": 64, "value": 0}, "group": "control_change"}, {"time": 3359, "annotation": {"number": 64, "value": 127}, "group": "control_change"}, {"time": 3378, "annotation": {"number": 64, "value": 0}, "group": "control_change"}, {"time": 3384, "annotation": {"number": 64, "value": 127}, "group": "control_change"}, {"time": 3384, "annotation": {"number": 64, "value": 0}, "group": "control_change"}, {"time": 3404, "annotation": {"number": 64, "value": 0}, "group": "control_change"}, {"time": 3407, "annotation": {"number": 64, "value": 127}, "group": "control_change"}, {"time": 3427, "annotation": {"number": 64, "value": 0}, "group": "control_change"}, {"time": 3430, "annotation": {"number": 64, "value": 127}, "group": "control_change"}, {"time": 3449, "annotation": {"number": 64, "value": 0}, "group": "control_change"}, {"time": 3453, "annotation": {"number": 64, "value": 127}, "group": "control_change"}, {"time": 3453, "annotation": {"number": 64, "value": 0}, "group": "control_change"}, {"time": 3470, "annotation": {"number": 64, "value": 0}, "group": "control_change"}, {"time": 3529, "annotation": {"number": 64, "value": 127}, "group": "control_change"}, {"time": 3546, "annotation": {"number": 64, "value": 0}, "group": "control_change"}, {"time": 3547, "annotation": {"number": 64, "value": 127}, "group": "control_change"}, {"time": 3558, "annotation": {"number": 64, "value": 0}, "group": "control_change"}, {"time": 3559, "annotation": {"number": 64, "value": 127}, "group": "control_change"}, {"time": 3570, "annotation": {"number": 64, "value": 0}, "group": "control_change"}, {"time": 3572, "annotation": {"number": 64, "value": 127}, "group": "control_change"}, {"time": 3605, "annotation": {"number": 64, "value": 0}, "group": "control_change"}, {"time": 3607, "annotation": {"number": 64, "value": 127}, "group": "control_change"}, {"time": 3617, "annotation": {"number": 64, "value": 0}, "group": "control_change"}, {"time": 3620, "annotation": {"number": 64, "value": 127}, "group": "control_change"}, {"time": 3645, "annotation": {"number": 64, "value": 0}, "group": "control_change"}, {"time": 3647, "annotation": {"number": 64, "value": 127}, "group": "control_change"}, {"time": 3654, "annotation": {"number": 64, "value": 0}, "group": "control_change"}, {"time": 3656, "annotation": {"number": 64, "value": 127}, "group": "control_change"}, {"time": 3667, "annotation": {"number": 64, "value": 0}, "group": "control_change"}, {"time": 3669, "annotation": {"number": 64, "value": 127}, "group": "control_change"}, {"time": 3703, "annotation": {"number": 64, "value": 0}, "group": "control_change"}, {"time": 3704, "annotation": {"number": 64, "value": 127}, "group": "control_change"}, {"time": 3715, "annotation": {"number": 64, "value": 0}, "group": "control_change"}, {"time": 3718, "annotation": {"number": 64, "value": 127}, "group": "control_change"}]}]}