{"metadata": {"schema_version": "0.2", "title": "None", "source_filename": "531.mid", "source_format": "midi"}, "resolution": 12, "tempos": [{"time": 0, "qpm": 87.00002175000543}], "time_signatures": [{"time": 0, "numerator": 1, "denominator": 4}], "tracks": [{"program": 4, "is_drum": false, "name": "MELODY", "notes": [{"time": 787, "pitch": 74, "duration": 5, "velocity": 88}, {"time": 793, "pitch": 69, "duration": 4, "velocity": 85}, {"time": 799, "pitch": 69, "duration": 2, "velocity": 78}, {"time": 802, "pitch": 69, "duration": 2, "velocity": 79}, {"time": 805, "pitch": 69, "duration": 4, "velocity": 84}, {"time": 811, "pitch": 69, "duration": 3, "velocity": 74}, {"time": 814, "pitch": 66, "duration": 2, "velocity": 79}, {"time": 817, "pitch": 71, "duration": 12, "velocity": 84}, {"time": 835, "pitch": 69, "duration": 5, "velocity": 78}, {"time": 841, "pitch": 69, "duration": 7, "velocity": 85}, {"time": 850, "pitch": 69, "duration": 2, "velocity": 83}, {"time": 853, "pitch": 69, "duration": 4, "velocity": 81}, {"time": 859, "pitch": 66, "duration": 5, "velocity": 84}, {"time": 865, "pitch": 64, "duration": 11, "velocity": 84}, {"time": 883, "pitch": 74, "duration": 4, "velocity": 85}, {"time": 889, "pitch": 69, "duration": 3, "velocity": 81}, {"time": 895, "pitch": 69, "duration": 2, "velocity": 76}, {"time": 898, "pitch": 69, "duration": 2, "velocity": 81}, {"time": 901, "pitch": 69, "duration": 3, "velocity": 83}, {"time": 907, "pitch": 69, "duration": 2, "velocity": 78}, {"time": 910, "pitch": 66, "duration": 2, "velocity": 81}, {"time": 913, "pitch": 71, "duration": 13, "velocity": 84}, {"time": 931, "pitch": 69, "duration": 2, "velocity": 79}, {"time": 934, "pitch": 69, "duration": 2, "velocity": 83}, {"time": 937, "pitch": 69, "duration": 3, "velocity": 83}, {"time": 943, "pitch": 69, "duration": 2, "velocity": 77}, {"time": 946, "pitch": 69, "duration": 2, "velocity": 79}, {"time": 949, "pitch": 69, "duration": 5, "velocity": 86}, {"time": 955, "pitch": 78, "duration": 4, "velocity": 85}, {"time": 961, "pitch": 76, "duration": 6, "velocity": 83}, {"time": 967, "pitch": 74, "duration": 6, "velocity": 83}, {"time": 979, "pitch": 74, "duration": 4, "velocity": 85}, {"time": 985, "pitch": 69, "duration": 3, "velocity": 84}, {"time": 991, "pitch": 69, "duration": 2, "velocity": 76}, {"time": 994, "pitch": 69, "duration": 2, "velocity": 82}, {"time": 997, "pitch": 69, "duration": 4, "velocity": 83}, {"time": 1003, "pitch": 69, "duration": 2, "velocity": 79}, {"time": 1006, "pitch": 66, "duration": 2, "velocity": 78}, {"time": 1009, "pitch": 71, "duration": 12, "velocity": 83}, {"time": 1027, "pitch": 69, "duration": 5, "velocity": 80}, {"time": 1033, "pitch": 69, "duration": 4, "velocity": 81}, {"time": 1039, "pitch": 69, "duration": 2, "velocity": 80}, {"time": 1042, "pitch": 69, "duration": 1, "velocity": 80}, {"time": 1045, "pitch": 69, "duration": 4, "velocity": 84}, {"time": 1051, "pitch": 66, "duration": 5, "velocity": 84}, {"time": 1057, "pitch": 64, "duration": 12, "velocity": 84}, {"time": 1075, "pitch": 74, "duration": 5, "velocity": 86}, {"time": 1081, "pitch": 69, "duration": 4, "velocity": 84}, {"time": 1087, "pitch": 69, "duration": 2, "velocity": 76}, {"time": 1090, "pitch": 69, "duration": 2, "velocity": 83}, {"time": 1093, "pitch": 69, "duration": 4, "velocity": 84}, {"time": 1099, "pitch": 69, "duration": 2, "velocity": 77}, {"time": 1102, "pitch": 66, "duration": 2, "velocity": 83}, {"time": 1105, "pitch": 71, "duration": 12, "velocity": 84}, {"time": 1123, "pitch": 69, "duration": 2, "velocity": 83}, {"time": 1126, "pitch": 69, "duration": 2, "velocity": 79}, {"time": 1129, "pitch": 69, "duration": 4, "velocity": 84}, {"time": 1135, "pitch": 69, "duration": 2, "velocity": 84}, {"time": 1138, "pitch": 69, "duration": 2, "velocity": 84}, {"time": 1141, "pitch": 69, "duration": 5, "velocity": 84}, {"time": 1147, "pitch": 78, "duration": 5, "velocity": 87}, {"time": 1153, "pitch": 76, "duration": 5, "velocity": 82}, {"time": 1159, "pitch": 74, "duration": 6, "velocity": 85}, {"time": 1165, "pitch": 71, "duration": 20, "velocity": 89}, {"time": 1189, "pitch": 71, "duration": 5, "velocity": 88}, {"time": 1195, "pitch": 73, "duration": 4, "velocity": 85}, {"time": 1201, "pitch": 74, "duration": 4, "velocity": 88}, {"time": 1207, "pitch": 76, "duration": 4, "velocity": 85}, {"time": 1213, "pitch": 78, "duration": 8, "velocity": 84}, {"time": 1222, "pitch": 76, "duration": 8, "velocity": 88}, {"time": 1231, "pitch": 74, "duration": 14, "velocity": 86}, {"time": 1249, "pitch": 74, "duration": 5, "velocity": 92}, {"time": 1255, "pitch": 79, "duration": 5, "velocity": 84}, {"time": 1261, "pitch": 79, "duration": 7, "velocity": 85}, {"time": 1270, "pitch": 78, "duration": 8, "velocity": 84}, {"time": 1279, "pitch": 76, "duration": 10, "velocity": 85}, {"time": 1291, "pitch": 74, "duration": 6, "velocity": 92}, {"time": 1297, "pitch": 83, "duration": 10, "velocity": 86}, {"time": 1309, "pitch": 81, "duration": 18, "velocity": 84}, {"time": 1327, "pitch": 69, "duration": 4, "velocity": 87}, {"time": 1333, "pitch": 76, "duration": 5, "velocity": 84}, {"time": 1339, "pitch": 78, "duration": 5, "velocity": 84}, {"time": 1345, "pitch": 81, "duration": 7, "velocity": 85}, {"time": 1351, "pitch": 78, "duration": 19, "velocity": 94}, {"time": 1375, "pitch": 76, "duration": 5, "velocity": 94}, {"time": 1381, "pitch": 78, "duration": 4, "velocity": 81}, {"time": 1387, "pitch": 81, "duration": 4, "velocity": 84}, {"time": 1393, "pitch": 83, "duration": 11, "velocity": 85}, {"time": 1405, "pitch": 81, "duration": 15, "velocity": 83}, {"time": 1423, "pitch": 81, "duration": 4, "velocity": 85}, {"time": 1429, "pitch": 81, "duration": 5, "velocity": 85}, {"time": 1435, "pitch": 88, "duration": 10, "velocity": 88}, {"time": 1447, "pitch": 86, "duration": 15, "velocity": 83}, {"time": 1465, "pitch": 86, "duration": 4, "velocity": 85}, {"time": 1471, "pitch": 86, "duration": 4, "velocity": 87}, {"time": 1477, "pitch": 78, "duration": 5, "velocity": 79}, {"time": 1483, "pitch": 78, "duration": 9, "velocity": 75}, {"time": 1495, "pitch": 83, "duration": 10, "velocity": 87}, {"time": 1507, "pitch": 81, "duration": 7, "velocity": 81}, {"time": 1519, "pitch": 69, "duration": 5, "velocity": 85}, {"time": 1525, "pitch": 76, "duration": 4, "velocity": 84}, {"time": 1531, "pitch": 78, "duration": 6, "velocity": 82}, {"time": 1537, "pitch": 81, "duration": 6, "velocity": 83}, {"time": 1543, "pitch": 78, "duration": 14, "velocity": 87}, {"time": 1561, "pitch": 81, "duration": 5, "velocity": 86}, {"time": 1567, "pitch": 83, "duration": 14, "velocity": 85}, {"time": 1585, "pitch": 85, "duration": 5, "velocity": 87}, {"time": 1591, "pitch": 83, "duration": 10, "velocity": 84}, {"time": 1603, "pitch": 81, "duration": 9, "velocity": 86}, {"time": 1615, "pitch": 78, "duration": 9, "velocity": 83}, {"time": 1645, "pitch": 74, "duration": 10, "velocity": 85}, {"time": 1657, "pitch": 71, "duration": 5, "velocity": 84}, {"time": 1663, "pitch": 74, "duration": 12, "velocity": 92}, {"time": 1675, "pitch": 81, "duration": 12, "velocity": 83}, {"time": 1687, "pitch": 74, "duration": 5, "velocity": 83}, {"time": 1693, "pitch": 76, "duration": 18, "velocity": 86}, {"time": 1711, "pitch": 69, "duration": 4, "velocity": 87}, {"time": 1717, "pitch": 76, "duration": 5, "velocity": 84}, {"time": 1723, "pitch": 78, "duration": 5, "velocity": 84}, {"time": 1729, "pitch": 81, "duration": 7, "velocity": 85}, {"time": 1735, "pitch": 78, "duration": 19, "velocity": 94}, {"time": 1759, "pitch": 76, "duration": 5, "velocity": 94}, {"time": 1765, "pitch": 78, "duration": 4, "velocity": 81}, {"time": 1771, "pitch": 81, "duration": 4, "velocity": 84}, {"time": 1777, "pitch": 83, "duration": 11, "velocity": 85}, {"time": 1789, "pitch": 81, "duration": 15, "velocity": 83}, {"time": 1807, "pitch": 81, "duration": 4, "velocity": 85}, {"time": 1813, "pitch": 81, "duration": 5, "velocity": 85}, {"time": 1819, "pitch": 88, "duration": 10, "velocity": 88}, {"time": 1831, "pitch": 86, "duration": 15, "velocity": 83}, {"time": 1849, "pitch": 86, "duration": 4, "velocity": 85}, {"time": 1855, "pitch": 86, "duration": 4, "velocity": 87}, {"time": 1861, "pitch": 78, "duration": 5, "velocity": 79}, {"time": 1867, "pitch": 78, "duration": 9, "velocity": 75}, {"time": 1879, "pitch": 83, "duration": 10, "velocity": 87}, {"time": 1891, "pitch": 81, "duration": 7, "velocity": 81}, {"time": 1903, "pitch": 69, "duration": 5, "velocity": 85}, {"time": 1909, "pitch": 76, "duration": 4, "velocity": 84}, {"time": 1915, "pitch": 78, "duration": 6, "velocity": 82}, {"time": 1921, "pitch": 81, "duration": 6, "velocity": 83}, {"time": 1927, "pitch": 78, "duration": 14, "velocity": 87}, {"time": 1945, "pitch": 81, "duration": 5, "velocity": 86}, {"time": 1951, "pitch": 83, "duration": 14, "velocity": 85}, {"time": 1969, "pitch": 85, "duration": 5, "velocity": 87}, {"time": 1975, "pitch": 83, "duration": 10, "velocity": 84}, {"time": 1987, "pitch": 81, "duration": 9, "velocity": 86}, {"time": 1999, "pitch": 78, "duration": 9, "velocity": 83}, {"time": 2029, "pitch": 74, "duration": 10, "velocity": 85}, {"time": 2041, "pitch": 71, "duration": 5, "velocity": 84}, {"time": 2047, "pitch": 74, "duration": 12, "velocity": 92}, {"time": 2059, "pitch": 81, "duration": 12, "velocity": 83}, {"time": 2071, "pitch": 74, "duration": 5, "velocity": 83}, {"time": 2077, "pitch": 76, "duration": 18, "velocity": 86}, {"time": 2113, "pitch": 74, "duration": 5, "velocity": 85}, {"time": 2119, "pitch": 74, "duration": 35, "velocity": 86}, {"time": 2515, "pitch": 74, "duration": 4, "velocity": 85}, {"time": 2521, "pitch": 69, "duration": 3, "velocity": 84}, {"time": 2527, "pitch": 69, "duration": 2, "velocity": 76}, {"time": 2530, "pitch": 69, "duration": 2, "velocity": 82}, {"time": 2533, "pitch": 69, "duration": 4, "velocity": 83}, {"time": 2539, "pitch": 69, "duration": 2, "velocity": 79}, {"time": 2542, "pitch": 66, "duration": 2, "velocity": 78}, {"time": 2545, "pitch": 71, "duration": 12, "velocity": 83}, {"time": 2563, "pitch": 69, "duration": 5, "velocity": 80}, {"time": 2569, "pitch": 69, "duration": 4, "velocity": 81}, {"time": 2575, "pitch": 69, "duration": 2, "velocity": 80}, {"time": 2578, "pitch": 69, "duration": 1, "velocity": 80}, {"time": 2581, "pitch": 69, "duration": 4, "velocity": 84}, {"time": 2587, "pitch": 66, "duration": 5, "velocity": 84}, {"time": 2593, "pitch": 64, "duration": 12, "velocity": 84}, {"time": 2611, "pitch": 74, "duration": 5, "velocity": 86}, {"time": 2617, "pitch": 69, "duration": 4, "velocity": 84}, {"time": 2623, "pitch": 69, "duration": 2, "velocity": 76}, {"time": 2626, "pitch": 69, "duration": 2, "velocity": 83}, {"time": 2629, "pitch": 69, "duration": 4, "velocity": 84}, {"time": 2635, "pitch": 69, "duration": 2, "velocity": 77}, {"time": 2638, "pitch": 66, "duration": 2, "velocity": 83}, {"time": 2641, "pitch": 71, "duration": 12, "velocity": 84}, {"time": 2659, "pitch": 69, "duration": 2, "velocity": 83}, {"time": 2662, "pitch": 69, "duration": 2, "velocity": 79}, {"time": 2665, "pitch": 69, "duration": 4, "velocity": 84}, {"time": 2671, "pitch": 69, "duration": 2, "velocity": 84}, {"time": 2674, "pitch": 69, "duration": 2, "velocity": 84}, {"time": 2677, "pitch": 69, "duration": 5, "velocity": 84}, {"time": 2683, "pitch": 78, "duration": 5, "velocity": 87}, {"time": 2689, "pitch": 76, "duration": 5, "velocity": 82}, {"time": 2695, "pitch": 74, "duration": 6, "velocity": 85}, {"time": 2701, "pitch": 71, "duration": 20, "velocity": 89}, {"time": 2725, "pitch": 71, "duration": 5, "velocity": 88}, {"time": 2731, "pitch": 73, "duration": 4, "velocity": 85}, {"time": 2737, "pitch": 74, "duration": 4, "velocity": 88}, {"time": 2743, "pitch": 76, "duration": 4, "velocity": 85}, {"time": 2749, "pitch": 78, "duration": 8, "velocity": 84}, {"time": 2758, "pitch": 76, "duration": 8, "velocity": 88}, {"time": 2767, "pitch": 74, "duration": 14, "velocity": 86}, {"time": 2785, "pitch": 74, "duration": 5, "velocity": 92}, {"time": 2791, "pitch": 79, "duration": 5, "velocity": 84}, {"time": 2797, "pitch": 79, "duration": 7, "velocity": 85}, {"time": 2806, "pitch": 78, "duration": 8, "velocity": 84}, {"time": 2815, "pitch": 76, "duration": 10, "velocity": 85}, {"time": 2827, "pitch": 74, "duration": 6, "velocity": 92}, {"time": 2833, "pitch": 83, "duration": 10, "velocity": 86}, {"time": 2845, "pitch": 81, "duration": 18, "velocity": 84}, {"time": 2863, "pitch": 69, "duration": 4, "velocity": 87}, {"time": 2869, "pitch": 76, "duration": 5, "velocity": 84}, {"time": 2875, "pitch": 78, "duration": 5, "velocity": 84}, {"time": 2881, "pitch": 81, "duration": 7, "velocity": 85}, {"time": 2887, "pitch": 78, "duration": 19, "velocity": 94}, {"time": 2911, "pitch": 76, "duration": 5, "velocity": 94}, {"time": 2917, "pitch": 78, "duration": 4, "velocity": 81}, {"time": 2923, "pitch": 81, "duration": 4, "velocity": 84}, {"time": 2929, "pitch": 83, "duration": 11, "velocity": 85}, {"time": 2941, "pitch": 81, "duration": 15, "velocity": 83}, {"time": 2959, "pitch": 81, "duration": 4, "velocity": 85}, {"time": 2965, "pitch": 81, "duration": 5, "velocity": 85}, {"time": 2971, "pitch": 88, "duration": 10, "velocity": 88}, {"time": 2983, "pitch": 86, "duration": 15, "velocity": 83}, {"time": 3001, "pitch": 86, "duration": 4, "velocity": 85}, {"time": 3007, "pitch": 86, "duration": 4, "velocity": 87}, {"time": 3013, "pitch": 78, "duration": 5, "velocity": 79}, {"time": 3019, "pitch": 78, "duration": 9, "velocity": 75}, {"time": 3031, "pitch": 83, "duration": 10, "velocity": 87}, {"time": 3043, "pitch": 81, "duration": 7, "velocity": 81}, {"time": 3055, "pitch": 69, "duration": 5, "velocity": 85}, {"time": 3061, "pitch": 76, "duration": 4, "velocity": 84}, {"time": 3067, "pitch": 78, "duration": 6, "velocity": 82}, {"time": 3073, "pitch": 81, "duration": 6, "velocity": 83}, {"time": 3079, "pitch": 78, "duration": 14, "velocity": 87}, {"time": 3097, "pitch": 81, "duration": 5, "velocity": 86}, {"time": 3103, "pitch": 83, "duration": 14, "velocity": 85}, {"time": 3121, "pitch": 85, "duration": 5, "velocity": 87}, {"time": 3127, "pitch": 83, "duration": 10, "velocity": 84}, {"time": 3139, "pitch": 81, "duration": 9, "velocity": 86}, {"time": 3151, "pitch": 78, "duration": 9, "velocity": 83}, {"time": 3181, "pitch": 74, "duration": 10, "velocity": 85}, {"time": 3193, "pitch": 71, "duration": 5, "velocity": 84}, {"time": 3199, "pitch": 74, "duration": 12, "velocity": 92}, {"time": 3211, "pitch": 81, "duration": 12, "velocity": 83}, {"time": 3223, "pitch": 74, "duration": 5, "velocity": 83}, {"time": 3229, "pitch": 76, "duration": 18, "velocity": 86}, {"time": 3247, "pitch": 69, "duration": 4, "velocity": 87}, {"time": 3253, "pitch": 76, "duration": 5, "velocity": 84}, {"time": 3259, "pitch": 78, "duration": 5, "velocity": 84}, {"time": 3265, "pitch": 81, "duration": 7, "velocity": 85}, {"time": 3271, "pitch": 78, "duration": 19, "velocity": 94}, {"time": 3295, "pitch": 76, "duration": 5, "velocity": 94}, {"time": 3301, "pitch": 78, "duration": 4, "velocity": 81}, {"time": 3307, "pitch": 81, "duration": 4, "velocity": 84}, {"time": 3313, "pitch": 83, "duration": 11, "velocity": 85}, {"time": 3325, "pitch": 81, "duration": 15, "velocity": 83}, {"time": 3343, "pitch": 81, "duration": 4, "velocity": 85}, {"time": 3349, "pitch": 81, "duration": 5, "velocity": 85}, {"time": 3355, "pitch": 88, "duration": 10, "velocity": 88}, {"time": 3367, "pitch": 86, "duration": 15, "velocity": 83}, {"time": 3385, "pitch": 86, "duration": 4, "velocity": 85}, {"time": 3391, "pitch": 86, "duration": 4, "velocity": 87}, {"time": 3397, "pitch": 78, "duration": 5, "velocity": 79}, {"time": 3403, "pitch": 78, "duration": 9, "velocity": 75}, {"time": 3415, "pitch": 83, "duration": 10, "velocity": 87}, {"time": 3427, "pitch": 81, "duration": 7, "velocity": 81}, {"time": 3439, "pitch": 69, "duration": 5, "velocity": 85}, {"time": 3445, "pitch": 76, "duration": 4, "velocity": 84}, {"time": 3451, "pitch": 78, "duration": 6, "velocity": 82}, {"time": 3457, "pitch": 81, "duration": 6, "velocity": 83}, {"time": 3463, "pitch": 78, "duration": 14, "velocity": 87}, {"time": 3481, "pitch": 81, "duration": 5, "velocity": 86}, {"time": 3487, "pitch": 83, "duration": 14, "velocity": 85}, {"time": 3505, "pitch": 85, "duration": 5, "velocity": 87}, {"time": 3511, "pitch": 83, "duration": 10, "velocity": 84}, {"time": 3523, "pitch": 81, "duration": 9, "velocity": 86}, {"time": 3535, "pitch": 78, "duration": 9, "velocity": 83}, {"time": 3565, "pitch": 74, "duration": 10, "velocity": 85}, {"time": 3577, "pitch": 71, "duration": 5, "velocity": 84}, {"time": 3583, "pitch": 74, "duration": 12, "velocity": 92}, {"time": 3595, "pitch": 81, "duration": 12, "velocity": 83}, {"time": 3607, "pitch": 74, "duration": 5, "velocity": 83}, {"time": 3613, "pitch": 76, "duration": 18, "velocity": 86}, {"time": 3649, "pitch": 74, "duration": 5, "velocity": 85}, {"time": 3655, "pitch": 74, "duration": 35, "velocity": 86}, {"time": 4015, "pitch": 69, "duration": 4, "velocity": 87}, {"time": 4021, "pitch": 76, "duration": 5, "velocity": 84}, {"time": 4027, "pitch": 78, "duration": 5, "velocity": 84}, {"time": 4033, "pitch": 81, "duration": 7, "velocity": 85}, {"time": 4039, "pitch": 78, "duration": 19, "velocity": 94}, {"time": 4063, "pitch": 76, "duration": 5, "velocity": 94}, {"time": 4069, "pitch": 78, "duration": 4, "velocity": 81}, {"time": 4075, "pitch": 81, "duration": 4, "velocity": 84}, {"time": 4081, "pitch": 83, "duration": 11, "velocity": 85}, {"time": 4093, "pitch": 81, "duration": 15, "velocity": 83}, {"time": 4111, "pitch": 81, "duration": 4, "velocity": 85}, {"time": 4117, "pitch": 81, "duration": 5, "velocity": 85}, {"time": 4123, "pitch": 88, "duration": 10, "velocity": 88}, {"time": 4135, "pitch": 86, "duration": 15, "velocity": 83}, {"time": 4153, "pitch": 86, "duration": 4, "velocity": 85}, {"time": 4159, "pitch": 86, "duration": 4, "velocity": 87}, {"time": 4165, "pitch": 78, "duration": 5, "velocity": 79}, {"time": 4171, "pitch": 78, "duration": 9, "velocity": 75}, {"time": 4183, "pitch": 83, "duration": 10, "velocity": 87}, {"time": 4195, "pitch": 81, "duration": 7, "velocity": 81}, {"time": 4207, "pitch": 69, "duration": 5, "velocity": 85}, {"time": 4213, "pitch": 76, "duration": 4, "velocity": 84}, {"time": 4219, "pitch": 78, "duration": 6, "velocity": 82}, {"time": 4225, "pitch": 81, "duration": 6, "velocity": 83}, {"time": 4231, "pitch": 78, "duration": 14, "velocity": 87}, {"time": 4249, "pitch": 81, "duration": 5, "velocity": 86}, {"time": 4255, "pitch": 83, "duration": 14, "velocity": 85}, {"time": 4273, "pitch": 85, "duration": 5, "velocity": 87}, {"time": 4279, "pitch": 83, "duration": 10, "velocity": 84}, {"time": 4291, "pitch": 81, "duration": 9, "velocity": 86}, {"time": 4303, "pitch": 78, "duration": 9, "velocity": 83}, {"time": 4333, "pitch": 74, "duration": 10, "velocity": 85}, {"time": 4345, "pitch": 71, "duration": 5, "velocity": 84}, {"time": 4351, "pitch": 74, "duration": 12, "velocity": 92}, {"time": 4363, "pitch": 81, "duration": 12, "velocity": 83}, {"time": 4375, "pitch": 74, "duration": 5, "velocity": 83}, {"time": 4381, "pitch": 76, "duration": 18, "velocity": 86}, {"time": 4399, "pitch": 69, "duration": 4, "velocity": 87}, {"time": 4405, "pitch": 76, "duration": 5, "velocity": 84}, {"time": 4411, "pitch": 78, "duration": 5, "velocity": 84}, {"time": 4417, "pitch": 81, "duration": 7, "velocity": 85}, {"time": 4423, "pitch": 78, "duration": 19, "velocity": 94}, {"time": 4447, "pitch": 76, "duration": 5, "velocity": 94}, {"time": 4453, "pitch": 78, "duration": 4, "velocity": 81}, {"time": 4459, "pitch": 81, "duration": 4, "velocity": 84}, {"time": 4465, "pitch": 83, "duration": 11, "velocity": 85}, {"time": 4477, "pitch": 81, "duration": 15, "velocity": 83}, {"time": 4495, "pitch": 81, "duration": 4, "velocity": 85}, {"time": 4501, "pitch": 81, "duration": 5, "velocity": 85}, {"time": 4507, "pitch": 88, "duration": 10, "velocity": 88}, {"time": 4519, "pitch": 86, "duration": 15, "velocity": 83}, {"time": 4537, "pitch": 86, "duration": 4, "velocity": 85}, {"time": 4543, "pitch": 86, "duration": 4, "velocity": 87}, {"time": 4549, "pitch": 78, "duration": 5, "velocity": 79}, {"time": 4555, "pitch": 78, "duration": 9, "velocity": 75}, {"time": 4567, "pitch": 83, "duration": 10, "velocity": 87}, {"time": 4579, "pitch": 81, "duration": 7, "velocity": 81}, {"time": 4591, "pitch": 69, "duration": 5, "velocity": 85}, {"time": 4597, "pitch": 76, "duration": 4, "velocity": 84}, {"time": 4603, "pitch": 78, "duration": 6, "velocity": 82}, {"time": 4609, "pitch": 81, "duration": 6, "velocity": 83}, {"time": 4615, "pitch": 78, "duration": 14, "velocity": 87}, {"time": 4633, "pitch": 81, "duration": 5, "velocity": 86}, {"time": 4639, "pitch": 83, "duration": 14, "velocity": 85}, {"time": 4657, "pitch": 85, "duration": 5, "velocity": 87}, {"time": 4663, "pitch": 83, "duration": 10, "velocity": 84}, {"time": 4675, "pitch": 81, "duration": 9, "velocity": 86}, {"time": 4687, "pitch": 78, "duration": 9, "velocity": 83}, {"time": 4717, "pitch": 74, "duration": 10, "velocity": 85}, {"time": 4729, "pitch": 71, "duration": 5, "velocity": 84}, {"time": 4735, "pitch": 74, "duration": 12, "velocity": 92}, {"time": 4747, "pitch": 81, "duration": 12, "velocity": 83}, {"time": 4759, "pitch": 74, "duration": 5, "velocity": 83}, {"time": 4765, "pitch": 76, "duration": 18, "velocity": 86}, {"time": 4801, "pitch": 74, "duration": 5, "velocity": 85}, {"time": 4807, "pitch": 74, "duration": 35, "velocity": 86}]}, {"program": 0, "is_drum": false, "name": "PIANO", "notes": [{"time": 203, "pitch": 59, "duration": 13, "velocity": 64}, {"time": 204, "pitch": 62, "duration": 12, "velocity": 77}, {"time": 204, "pitch": 47, "duration": 14, "velocity": 76}, {"time": 205, "pitch": 66, "duration": 10, "velocity": 71}, {"time": 226, "pitch": 55, "duration": 12, "velocity": 70}, {"time": 228, "pitch": 59, "duration": 9, "velocity": 70}, {"time": 228, "pitch": 43, "duration": 14, "velocity": 72}, {"time": 228, "pitch": 62, "duration": 10, "velocity": 66}, {"time": 250, "pitch": 57, "duration": 19, "velocity": 63}, {"time": 252, "pitch": 62, "duration": 16, "velocity": 79}, {"time": 252, "pitch": 50, "duration": 20, "velocity": 75}, {"time": 253, "pitch": 66, "duration": 16, "velocity": 73}, {"time": 274, "pitch": 57, "duration": 18, "velocity": 71}, {"time": 275, "pitch": 61, "duration": 17, "velocity": 68}, {"time": 276, "pitch": 45, "duration": 18, "velocity": 80}, {"time": 277, "pitch": 64, "duration": 17, "velocity": 67}, {"time": 299, "pitch": 59, "duration": 18, "velocity": 69}, {"time": 300, "pitch": 62, "duration": 17, "velocity": 71}, {"time": 300, "pitch": 47, "duration": 18, "velocity": 83}, {"time": 300, "pitch": 66, "duration": 16, "velocity": 70}, {"time": 323, "pitch": 55, "duration": 14, "velocity": 69}, {"time": 324, "pitch": 59, "duration": 13, "velocity": 73}, {"time": 324, "pitch": 43, "duration": 16, "velocity": 79}, {"time": 325, "pitch": 62, "duration": 13, "velocity": 77}, {"time": 347, "pitch": 57, "duration": 19, "velocity": 59}, {"time": 348, "pitch": 62, "duration": 14, "velocity": 78}, {"time": 349, "pitch": 50, "duration": 16, "velocity": 79}, {"time": 349, "pitch": 66, "duration": 13, "velocity": 72}, {"time": 372, "pitch": 61, "duration": 9, "velocity": 71}, {"time": 372, "pitch": 57, "duration": 9, "velocity": 73}, {"time": 373, "pitch": 45, "duration": 19, "velocity": 84}, {"time": 373, "pitch": 64, "duration": 10, "velocity": 77}, {"time": 379, "pitch": 52, "duration": 13, "velocity": 77}, {"time": 384, "pitch": 57, "duration": 4, "velocity": 86}, {"time": 391, "pitch": 57, "duration": 4, "velocity": 76}, {"time": 391, "pitch": 61, "duration": 4, "velocity": 73}, {"time": 391, "pitch": 64, "duration": 4, "velocity": 83}, {"time": 397, "pitch": 47, "duration": 13, "velocity": 83}, {"time": 397, "pitch": 59, "duration": 8, "velocity": 83}, {"time": 397, "pitch": 62, "duration": 8, "velocity": 83}, {"time": 403, "pitch": 54, "duration": 6, "velocity": 64}, {"time": 409, "pitch": 59, "duration": 6, "velocity": 84}, {"time": 409, "pitch": 62, "duration": 5, "velocity": 84}, {"time": 409, "pitch": 66, "duration": 4, "velocity": 83}, {"time": 418, "pitch": 59, "duration": 3, "velocity": 75}, {"time": 418, "pitch": 62, "duration": 4, "velocity": 79}, {"time": 421, "pitch": 43, "duration": 20, "velocity": 85}, {"time": 424, "pitch": 50, "duration": 11, "velocity": 79}, {"time": 427, "pitch": 55, "duration": 5, "velocity": 83}, {"time": 427, "pitch": 62, "duration": 5, "velocity": 76}, {"time": 433, "pitch": 55, "duration": 7, "velocity": 85}, {"time": 433, "pitch": 59, "duration": 7, "velocity": 84}, {"time": 439, "pitch": 50, "duration": 3, "velocity": 80}, {"time": 445, "pitch": 50, "duration": 16, "velocity": 86}, {"time": 445, "pitch": 57, "duration": 6, "velocity": 79}, {"time": 445, "pitch": 62, "duration": 9, "velocity": 84}, {"time": 457, "pitch": 57, "duration": 7, "velocity": 85}, {"time": 457, "pitch": 62, "duration": 6, "velocity": 86}, {"time": 457, "pitch": 66, "duration": 6, "velocity": 86}, {"time": 466, "pitch": 57, "duration": 3, "velocity": 79}, {"time": 466, "pitch": 62, "duration": 2, "velocity": 79}, {"time": 466, "pitch": 66, "duration": 2, "velocity": 80}, {"time": 469, "pitch": 45, "duration": 20, "velocity": 84}, {"time": 472, "pitch": 57, "duration": 4, "velocity": 78}, {"time": 472, "pitch": 61, "duration": 3, "velocity": 87}, {"time": 472, "pitch": 64, "duration": 4, "velocity": 85}, {"time": 475, "pitch": 52, "duration": 8, "velocity": 82}, {"time": 481, "pitch": 57, "duration": 6, "velocity": 84}, {"time": 481, "pitch": 61, "duration": 6, "velocity": 89}, {"time": 487, "pitch": 52, "duration": 4, "velocity": 84}, {"time": 493, "pitch": 47, "duration": 16, "velocity": 84}, {"time": 493, "pitch": 59, "duration": 8, "velocity": 82}, {"time": 493, "pitch": 62, "duration": 8, "velocity": 84}, {"time": 499, "pitch": 54, "duration": 7, "velocity": 77}, {"time": 505, "pitch": 59, "duration": 6, "velocity": 85}, {"time": 505, "pitch": 62, "duration": 6, "velocity": 89}, {"time": 505, "pitch": 66, "duration": 5, "velocity": 89}, {"time": 514, "pitch": 59, "duration": 3, "velocity": 84}, {"time": 514, "pitch": 62, "duration": 2, "velocity": 82}, {"time": 517, "pitch": 43, "duration": 20, "velocity": 81}, {"time": 520, "pitch": 55, "duration": 3, "velocity": 81}, {"time": 520, "pitch": 62, "duration": 2, "velocity": 83}, {"time": 523, "pitch": 50, "duration": 9, "velocity": 83}, {"time": 529, "pitch": 55, "duration": 4, "velocity": 85}, {"time": 529, "pitch": 59, "duration": 5, "velocity": 89}, {"time": 529, "pitch": 62, "duration": 5, "velocity": 85}, {"time": 535, "pitch": 50, "duration": 3, "velocity": 80}, {"time": 541, "pitch": 50, "duration": 22, "velocity": 83}, {"time": 541, "pitch": 57, "duration": 5, "velocity": 78}, {"time": 541, "pitch": 62, "duration": 8, "velocity": 83}, {"time": 553, "pitch": 57, "duration": 6, "velocity": 84}, {"time": 553, "pitch": 62, "duration": 5, "velocity": 87}, {"time": 553, "pitch": 66, "duration": 6, "velocity": 85}, {"time": 562, "pitch": 57, "duration": 3, "velocity": 80}, {"time": 562, "pitch": 62, "duration": 2, "velocity": 78}, {"time": 562, "pitch": 66, "duration": 2, "velocity": 70}, {"time": 565, "pitch": 45, "duration": 24, "velocity": 78}, {"time": 568, "pitch": 57, "duration": 3, "velocity": 79}, {"time": 568, "pitch": 61, "duration": 3, "velocity": 83}, {"time": 568, "pitch": 64, "duration": 3, "velocity": 85}, {"time": 571, "pitch": 52, "duration": 9, "velocity": 80}, {"time": 577, "pitch": 57, "duration": 12, "velocity": 84}, {"time": 577, "pitch": 61, "duration": 12, "velocity": 88}, {"time": 577, "pitch": 64, "duration": 12, "velocity": 87}, {"time": 583, "pitch": 52, "duration": 7, "velocity": 83}, {"time": 589, "pitch": 47, "duration": 13, "velocity": 83}, {"time": 589, "pitch": 59, "duration": 8, "velocity": 83}, {"time": 589, "pitch": 62, "duration": 8, "velocity": 83}, {"time": 595, "pitch": 54, "duration": 6, "velocity": 64}, {"time": 601, "pitch": 59, "duration": 6, "velocity": 84}, {"time": 601, "pitch": 62, "duration": 5, "velocity": 84}, {"time": 601, "pitch": 66, "duration": 4, "velocity": 83}, {"time": 610, "pitch": 59, "duration": 3, "velocity": 75}, {"time": 610, "pitch": 62, "duration": 4, "velocity": 79}, {"time": 613, "pitch": 43, "duration": 20, "velocity": 85}, {"time": 616, "pitch": 50, "duration": 11, "velocity": 79}, {"time": 619, "pitch": 55, "duration": 5, "velocity": 83}, {"time": 619, "pitch": 62, "duration": 5, "velocity": 76}, {"time": 625, "pitch": 55, "duration": 7, "velocity": 85}, {"time": 625, "pitch": 59, "duration": 7, "velocity": 84}, {"time": 631, "pitch": 50, "duration": 3, "velocity": 80}, {"time": 637, "pitch": 50, "duration": 16, "velocity": 86}, {"time": 637, "pitch": 57, "duration": 6, "velocity": 79}, {"time": 637, "pitch": 62, "duration": 9, "velocity": 84}, {"time": 649, "pitch": 57, "duration": 7, "velocity": 85}, {"time": 649, "pitch": 62, "duration": 6, "velocity": 86}, {"time": 649, "pitch": 66, "duration": 6, "velocity": 86}, {"time": 658, "pitch": 57, "duration": 3, "velocity": 79}, {"time": 658, "pitch": 62, "duration": 2, "velocity": 79}, {"time": 658, "pitch": 66, "duration": 2, "velocity": 80}, {"time": 661, "pitch": 45, "duration": 20, "velocity": 84}, {"time": 664, "pitch": 57, "duration": 4, "velocity": 78}, {"time": 664, "pitch": 61, "duration": 3, "velocity": 87}, {"time": 664, "pitch": 64, "duration": 4, "velocity": 85}, {"time": 667, "pitch": 52, "duration": 8, "velocity": 82}, {"time": 673, "pitch": 57, "duration": 6, "velocity": 84}, {"time": 673, "pitch": 61, "duration": 6, "velocity": 89}, {"time": 679, "pitch": 52, "duration": 4, "velocity": 84}, {"time": 685, "pitch": 43, "duration": 14, "velocity": 84}, {"time": 685, "pitch": 55, "duration": 9, "velocity": 80}, {"time": 685, "pitch": 62, "duration": 6, "velocity": 79}, {"time": 691, "pitch": 50, "duration": 8, "velocity": 69}, {"time": 697, "pitch": 55, "duration": 6, "velocity": 84}, {"time": 697, "pitch": 59, "duration": 5, "velocity": 85}, {"time": 697, "pitch": 62, "duration": 5, "velocity": 84}, {"time": 706, "pitch": 55, "duration": 2, "velocity": 83}, {"time": 706, "pitch": 59, "duration": 3, "velocity": 80}, {"time": 709, "pitch": 42, "duration": 20, "velocity": 84}, {"time": 715, "pitch": 57, "duration": 9, "velocity": 82}, {"time": 715, "pitch": 61, "duration": 8, "velocity": 85}, {"time": 721, "pitch": 49, "duration": 7, "velocity": 69}, {"time": 727, "pitch": 57, "duration": 2, "velocity": 78}, {"time": 727, "pitch": 61, "duration": 2, "velocity": 80}, {"time": 727, "pitch": 66, "duration": 3, "velocity": 71}, {"time": 733, "pitch": 40, "duration": 14, "velocity": 85}, {"time": 733, "pitch": 59, "duration": 10, "velocity": 77}, {"time": 733, "pitch": 64, "duration": 9, "velocity": 84}, {"time": 745, "pitch": 59, "duration": 6, "velocity": 86}, {"time": 745, "pitch": 64, "duration": 5, "velocity": 92}, {"time": 745, "pitch": 67, "duration": 5, "velocity": 83}, {"time": 754, "pitch": 59, "duration": 2, "velocity": 80}, {"time": 754, "pitch": 64, "duration": 2, "velocity": 82}, {"time": 757, "pitch": 45, "duration": 25, "velocity": 83}, {"time": 757, "pitch": 57, "duration": 4, "velocity": 76}, {"time": 757, "pitch": 61, "duration": 4, "velocity": 81}, {"time": 757, "pitch": 64, "duration": 4, "velocity": 84}, {"time": 763, "pitch": 52, "duration": 10, "velocity": 79}, {"time": 769, "pitch": 57, "duration": 13, "velocity": 84}, {"time": 769, "pitch": 61, "duration": 13, "velocity": 84}, {"time": 769, "pitch": 64, "duration": 13, "velocity": 89}, {"time": 775, "pitch": 52, "duration": 7, "velocity": 83}, {"time": 781, "pitch": 47, "duration": 14, "velocity": 84}, {"time": 781, "pitch": 59, "duration": 9, "velocity": 80}, {"time": 781, "pitch": 62, "duration": 9, "velocity": 84}, {"time": 787, "pitch": 54, "duration": 7, "velocity": 71}, {"time": 793, "pitch": 59, "duration": 4, "velocity": 84}, {"time": 793, "pitch": 62, "duration": 3, "velocity": 84}, {"time": 793, "pitch": 66, "duration": 3, "velocity": 83}, {"time": 802, "pitch": 59, "duration": 4, "velocity": 74}, {"time": 802, "pitch": 62, "duration": 3, "velocity": 74}, {"time": 805, "pitch": 43, "duration": 17, "velocity": 84}, {"time": 811, "pitch": 50, "duration": 9, "velocity": 72}, {"time": 817, "pitch": 55, "duration": 4, "velocity": 82}, {"time": 817, "pitch": 59, "duration": 5, "velocity": 83}, {"time": 817, "pitch": 62, "duration": 6, "velocity": 84}, {"time": 829, "pitch": 50, "duration": 16, "velocity": 84}, {"time": 829, "pitch": 57, "duration": 9, "velocity": 81}, {"time": 829, "pitch": 62, "duration": 8, "velocity": 84}, {"time": 841, "pitch": 57, "duration": 5, "velocity": 80}, {"time": 841, "pitch": 62, "duration": 5, "velocity": 83}, {"time": 841, "pitch": 66, "duration": 5, "velocity": 84}, {"time": 850, "pitch": 57, "duration": 6, "velocity": 79}, {"time": 850, "pitch": 62, "duration": 5, "velocity": 83}, {"time": 853, "pitch": 45, "duration": 20, "velocity": 83}, {"time": 859, "pitch": 57, "duration": 3, "velocity": 79}, {"time": 865, "pitch": 57, "duration": 4, "velocity": 88}, {"time": 865, "pitch": 61, "duration": 5, "velocity": 89}, {"time": 871, "pitch": 52, "duration": 5, "velocity": 83}, {"time": 877, "pitch": 47, "duration": 15, "velocity": 84}, {"time": 877, "pitch": 59, "duration": 8, "velocity": 79}, {"time": 877, "pitch": 62, "duration": 7, "velocity": 81}, {"time": 883, "pitch": 54, "duration": 7, "velocity": 78}, {"time": 889, "pitch": 59, "duration": 4, "velocity": 84}, {"time": 889, "pitch": 62, "duration": 7, "velocity": 84}, {"time": 889, "pitch": 66, "duration": 8, "velocity": 83}, {"time": 898, "pitch": 59, "duration": 2, "velocity": 85}, {"time": 901, "pitch": 43, "duration": 16, "velocity": 84}, {"time": 901, "pitch": 55, "duration": 8, "velocity": 86}, {"time": 901, "pitch": 59, "duration": 7, "velocity": 85}, {"time": 907, "pitch": 50, "duration": 9, "velocity": 75}, {"time": 913, "pitch": 55, "duration": 3, "velocity": 84}, {"time": 913, "pitch": 62, "duration": 4, "velocity": 83}, {"time": 925, "pitch": 50, "duration": 15, "velocity": 85}, {"time": 925, "pitch": 57, "duration": 5, "velocity": 78}, {"time": 925, "pitch": 62, "duration": 9, "velocity": 83}, {"time": 937, "pitch": 57, "duration": 4, "velocity": 83}, {"time": 937, "pitch": 62, "duration": 5, "velocity": 84}, {"time": 937, "pitch": 66, "duration": 9, "velocity": 84}, {"time": 946, "pitch": 57, "duration": 2, "velocity": 83}, {"time": 949, "pitch": 45, "duration": 15, "velocity": 84}, {"time": 949, "pitch": 57, "duration": 7, "velocity": 83}, {"time": 949, "pitch": 61, "duration": 7, "velocity": 84}, {"time": 955, "pitch": 52, "duration": 8, "velocity": 79}, {"time": 961, "pitch": 57, "duration": 4, "velocity": 82}, {"time": 961, "pitch": 61, "duration": 5, "velocity": 85}, {"time": 961, "pitch": 64, "duration": 9, "velocity": 87}, {"time": 964, "pitch": 45, "duration": 5, "velocity": 84}, {"time": 973, "pitch": 47, "duration": 14, "velocity": 84}, {"time": 973, "pitch": 59, "duration": 9, "velocity": 80}, {"time": 973, "pitch": 62, "duration": 9, "velocity": 84}, {"time": 979, "pitch": 54, "duration": 7, "velocity": 71}, {"time": 985, "pitch": 59, "duration": 4, "velocity": 84}, {"time": 985, "pitch": 62, "duration": 3, "velocity": 84}, {"time": 985, "pitch": 66, "duration": 3, "velocity": 83}, {"time": 994, "pitch": 59, "duration": 4, "velocity": 74}, {"time": 994, "pitch": 62, "duration": 3, "velocity": 74}, {"time": 997, "pitch": 43, "duration": 17, "velocity": 84}, {"time": 1003, "pitch": 50, "duration": 9, "velocity": 72}, {"time": 1009, "pitch": 55, "duration": 4, "velocity": 82}, {"time": 1009, "pitch": 59, "duration": 5, "velocity": 83}, {"time": 1009, "pitch": 62, "duration": 6, "velocity": 84}, {"time": 1021, "pitch": 50, "duration": 16, "velocity": 84}, {"time": 1021, "pitch": 57, "duration": 9, "velocity": 81}, {"time": 1021, "pitch": 62, "duration": 8, "velocity": 84}, {"time": 1033, "pitch": 57, "duration": 5, "velocity": 80}, {"time": 1033, "pitch": 62, "duration": 5, "velocity": 83}, {"time": 1033, "pitch": 66, "duration": 5, "velocity": 84}, {"time": 1042, "pitch": 57, "duration": 6, "velocity": 79}, {"time": 1042, "pitch": 62, "duration": 5, "velocity": 83}, {"time": 1045, "pitch": 45, "duration": 20, "velocity": 83}, {"time": 1051, "pitch": 57, "duration": 3, "velocity": 79}, {"time": 1057, "pitch": 57, "duration": 4, "velocity": 88}, {"time": 1057, "pitch": 61, "duration": 5, "velocity": 89}, {"time": 1063, "pitch": 52, "duration": 5, "velocity": 83}, {"time": 1069, "pitch": 47, "duration": 15, "velocity": 84}, {"time": 1069, "pitch": 59, "duration": 8, "velocity": 79}, {"time": 1069, "pitch": 62, "duration": 7, "velocity": 81}, {"time": 1075, "pitch": 54, "duration": 7, "velocity": 78}, {"time": 1081, "pitch": 59, "duration": 4, "velocity": 84}, {"time": 1081, "pitch": 62, "duration": 7, "velocity": 84}, {"time": 1081, "pitch": 66, "duration": 8, "velocity": 83}, {"time": 1090, "pitch": 59, "duration": 2, "velocity": 85}, {"time": 1093, "pitch": 43, "duration": 16, "velocity": 84}, {"time": 1093, "pitch": 55, "duration": 8, "velocity": 86}, {"time": 1093, "pitch": 59, "duration": 7, "velocity": 85}, {"time": 1099, "pitch": 50, "duration": 9, "velocity": 75}, {"time": 1105, "pitch": 55, "duration": 3, "velocity": 84}, {"time": 1105, "pitch": 62, "duration": 4, "velocity": 83}, {"time": 1117, "pitch": 50, "duration": 15, "velocity": 85}, {"time": 1117, "pitch": 57, "duration": 5, "velocity": 78}, {"time": 1117, "pitch": 62, "duration": 9, "velocity": 83}, {"time": 1129, "pitch": 57, "duration": 4, "velocity": 83}, {"time": 1129, "pitch": 62, "duration": 5, "velocity": 84}, {"time": 1129, "pitch": 66, "duration": 9, "velocity": 84}, {"time": 1138, "pitch": 57, "duration": 2, "velocity": 83}, {"time": 1141, "pitch": 45, "duration": 15, "velocity": 84}, {"time": 1141, "pitch": 57, "duration": 7, "velocity": 83}, {"time": 1141, "pitch": 61, "duration": 7, "velocity": 84}, {"time": 1147, "pitch": 52, "duration": 8, "velocity": 79}, {"time": 1153, "pitch": 57, "duration": 4, "velocity": 82}, {"time": 1153, "pitch": 61, "duration": 5, "velocity": 85}, {"time": 1153, "pitch": 64, "duration": 9, "velocity": 87}, {"time": 1156, "pitch": 45, "duration": 5, "velocity": 84}, {"time": 1165, "pitch": 52, "duration": 10, "velocity": 88}, {"time": 1165, "pitch": 59, "duration": 9, "velocity": 84}, {"time": 1165, "pitch": 64, "duration": 9, "velocity": 85}, {"time": 1177, "pitch": 59, "duration": 3, "velocity": 84}, {"time": 1177, "pitch": 64, "duration": 3, "velocity": 88}, {"time": 1177, "pitch": 67, "duration": 4, "velocity": 83}, {"time": 1186, "pitch": 59, "duration": 6, "velocity": 80}, {"time": 1186, "pitch": 64, "duration": 10, "velocity": 83}, {"time": 1189, "pitch": 40, "duration": 16, "velocity": 86}, {"time": 1195, "pitch": 59, "duration": 3, "velocity": 89}, {"time": 1201, "pitch": 59, "duration": 3, "velocity": 85}, {"time": 1201, "pitch": 64, "duration": 7, "velocity": 86}, {"time": 1201, "pitch": 67, "duration": 6, "velocity": 83}, {"time": 1207, "pitch": 59, "duration": 4, "velocity": 77}, {"time": 1213, "pitch": 47, "duration": 41, "velocity": 84}, {"time": 1213, "pitch": 59, "duration": 9, "velocity": 81}, {"time": 1213, "pitch": 62, "duration": 9, "velocity": 80}, {"time": 1225, "pitch": 59, "duration": 6, "velocity": 84}, {"time": 1225, "pitch": 62, "duration": 6, "velocity": 83}, {"time": 1225, "pitch": 66, "duration": 5, "velocity": 83}, {"time": 1234, "pitch": 59, "duration": 3, "velocity": 81}, {"time": 1234, "pitch": 66, "duration": 4, "velocity": 75}, {"time": 1237, "pitch": 54, "duration": 14, "velocity": 71}, {"time": 1243, "pitch": 59, "duration": 4, "velocity": 83}, {"time": 1249, "pitch": 59, "duration": 3, "velocity": 85}, {"time": 1249, "pitch": 62, "duration": 5, "velocity": 85}, {"time": 1255, "pitch": 59, "duration": 2, "velocity": 74}, {"time": 1261, "pitch": 48, "duration": 41, "velocity": 84}, {"time": 1261, "pitch": 55, "duration": 11, "velocity": 84}, {"time": 1261, "pitch": 60, "duration": 10, "velocity": 83}, {"time": 1273, "pitch": 55, "duration": 6, "velocity": 83}, {"time": 1273, "pitch": 60, "duration": 6, "velocity": 84}, {"time": 1273, "pitch": 64, "duration": 5, "velocity": 87}, {"time": 1282, "pitch": 55, "duration": 3, "velocity": 84}, {"time": 1282, "pitch": 64, "duration": 5, "velocity": 84}, {"time": 1291, "pitch": 55, "duration": 4, "velocity": 80}, {"time": 1297, "pitch": 55, "duration": 3, "velocity": 87}, {"time": 1297, "pitch": 60, "duration": 6, "velocity": 87}, {"time": 1303, "pitch": 55, "duration": 1, "velocity": 75}, {"time": 1309, "pitch": 45, "duration": 4, "velocity": 81}, {"time": 1309, "pitch": 57, "duration": 4, "velocity": 70}, {"time": 1309, "pitch": 61, "duration": 3, "velocity": 71}, {"time": 1309, "pitch": 64, "duration": 4, "velocity": 75}, {"time": 1315, "pitch": 45, "duration": 4, "velocity": 83}, {"time": 1315, "pitch": 57, "duration": 3, "velocity": 71}, {"time": 1315, "pitch": 61, "duration": 3, "velocity": 69}, {"time": 1315, "pitch": 64, "duration": 4, "velocity": 83}, {"time": 1321, "pitch": 45, "duration": 4, "velocity": 84}, {"time": 1321, "pitch": 57, "duration": 4, "velocity": 77}, {"time": 1321, "pitch": 61, "duration": 4, "velocity": 72}, {"time": 1321, "pitch": 64, "duration": 4, "velocity": 83}, {"time": 1327, "pitch": 45, "duration": 4, "velocity": 87}, {"time": 1327, "pitch": 57, "duration": 5, "velocity": 79}, {"time": 1327, "pitch": 61, "duration": 4, "velocity": 75}, {"time": 1327, "pitch": 64, "duration": 4, "velocity": 84}, {"time": 1333, "pitch": 45, "duration": 3, "velocity": 87}, {"time": 1333, "pitch": 57, "duration": 3, "velocity": 79}, {"time": 1333, "pitch": 61, "duration": 3, "velocity": 75}, {"time": 1333, "pitch": 64, "duration": 3, "velocity": 84}, {"time": 1339, "pitch": 45, "duration": 3, "velocity": 84}, {"time": 1339, "pitch": 57, "duration": 3, "velocity": 76}, {"time": 1339, "pitch": 61, "duration": 3, "velocity": 71}, {"time": 1339, "pitch": 64, "duration": 4, "velocity": 83}, {"time": 1345, "pitch": 45, "duration": 4, "velocity": 88}, {"time": 1345, "pitch": 57, "duration": 4, "velocity": 84}, {"time": 1345, "pitch": 61, "duration": 4, "velocity": 87}, {"time": 1345, "pitch": 64, "duration": 4, "velocity": 85}, {"time": 1351, "pitch": 45, "duration": 4, "velocity": 85}, {"time": 1351, "pitch": 57, "duration": 4, "velocity": 78}, {"time": 1351, "pitch": 61, "duration": 4, "velocity": 73}, {"time": 1351, "pitch": 64, "duration": 4, "velocity": 84}, {"time": 1357, "pitch": 38, "duration": 12, "velocity": 86}, {"time": 1357, "pitch": 57, "duration": 5, "velocity": 80}, {"time": 1357, "pitch": 62, "duration": 7, "velocity": 83}, {"time": 1369, "pitch": 57, "duration": 2, "velocity": 83}, {"time": 1369, "pitch": 62, "duration": 10, "velocity": 89}, {"time": 1369, "pitch": 66, "duration": 10, "velocity": 90}, {"time": 1378, "pitch": 57, "duration": 2, "velocity": 83}, {"time": 1381, "pitch": 50, "duration": 15, "velocity": 85}, {"time": 1381, "pitch": 57, "duration": 3, "velocity": 79}, {"time": 1381, "pitch": 62, "duration": 3, "velocity": 84}, {"time": 1387, "pitch": 57, "duration": 4, "velocity": 80}, {"time": 1387, "pitch": 62, "duration": 4, "velocity": 84}, {"time": 1393, "pitch": 57, "duration": 2, "velocity": 83}, {"time": 1393, "pitch": 62, "duration": 6, "velocity": 88}, {"time": 1393, "pitch": 66, "duration": 6, "velocity": 90}, {"time": 1399, "pitch": 57, "duration": 4, "velocity": 78}, {"time": 1405, "pitch": 45, "duration": 41, "velocity": 84}, {"time": 1405, "pitch": 57, "duration": 9, "velocity": 79}, {"time": 1405, "pitch": 61, "duration": 9, "velocity": 79}, {"time": 1417, "pitch": 57, "duration": 4, "velocity": 85}, {"time": 1417, "pitch": 61, "duration": 5, "velocity": 90}, {"time": 1417, "pitch": 64, "duration": 5, "velocity": 90}, {"time": 1423, "pitch": 52, "duration": 23, "velocity": 72}, {"time": 1426, "pitch": 57, "duration": 3, "velocity": 87}, {"time": 1429, "pitch": 57, "duration": 2, "velocity": 72}, {"time": 1429, "pitch": 61, "duration": 4, "velocity": 90}, {"time": 1429, "pitch": 64, "duration": 4, "velocity": 89}, {"time": 1429, "pitch": 69, "duration": 4, "velocity": 84}, {"time": 1435, "pitch": 57, "duration": 4, "velocity": 82}, {"time": 1441, "pitch": 57, "duration": 3, "velocity": 88}, {"time": 1441, "pitch": 61, "duration": 6, "velocity": 90}, {"time": 1441, "pitch": 64, "duration": 7, "velocity": 89}, {"time": 1447, "pitch": 57, "duration": 3, "velocity": 87}, {"time": 1453, "pitch": 47, "duration": 22, "velocity": 83}, {"time": 1453, "pitch": 59, "duration": 7, "velocity": 79}, {"time": 1453, "pitch": 62, "duration": 7, "velocity": 83}, {"time": 1459, "pitch": 54, "duration": 16, "velocity": 74}, {"time": 1465, "pitch": 59, "duration": 5, "velocity": 84}, {"time": 1465, "pitch": 62, "duration": 9, "velocity": 84}, {"time": 1465, "pitch": 66, "duration": 9, "velocity": 78}, {"time": 1474, "pitch": 59, "duration": 2, "velocity": 84}, {"time": 1477, "pitch": 47, "duration": 14, "velocity": 83}, {"time": 1477, "pitch": 59, "duration": 4, "velocity": 82}, {"time": 1477, "pitch": 62, "duration": 4, "velocity": 84}, {"time": 1483, "pitch": 59, "duration": 4, "velocity": 84}, {"time": 1483, "pitch": 62, "duration": 4, "velocity": 83}, {"time": 1489, "pitch": 59, "duration": 2, "velocity": 84}, {"time": 1489, "pitch": 62, "duration": 7, "velocity": 85}, {"time": 1489, "pitch": 66, "duration": 7, "velocity": 84}, {"time": 1495, "pitch": 59, "duration": 2, "velocity": 77}, {"time": 1501, "pitch": 45, "duration": 15, "velocity": 84}, {"time": 1501, "pitch": 57, "duration": 9, "velocity": 84}, {"time": 1501, "pitch": 60, "duration": 9, "velocity": 84}, {"time": 1507, "pitch": 52, "duration": 13, "velocity": 73}, {"time": 1513, "pitch": 57, "duration": 6, "velocity": 86}, {"time": 1513, "pitch": 60, "duration": 7, "velocity": 92}, {"time": 1519, "pitch": 45, "duration": 5, "velocity": 73}, {"time": 1522, "pitch": 57, "duration": 2, "velocity": 83}, {"time": 1525, "pitch": 50, "duration": 13, "velocity": 89}, {"time": 1525, "pitch": 57, "duration": 3, "velocity": 81}, {"time": 1525, "pitch": 62, "duration": 4, "velocity": 87}, {"time": 1531, "pitch": 57, "duration": 4, "velocity": 79}, {"time": 1537, "pitch": 62, "duration": 6, "velocity": 85}, {"time": 1537, "pitch": 66, "duration": 6, "velocity": 88}, {"time": 1543, "pitch": 57, "duration": 3, "velocity": 83}, {"time": 1549, "pitch": 43, "duration": 24, "velocity": 84}, {"time": 1549, "pitch": 55, "duration": 8, "velocity": 80}, {"time": 1549, "pitch": 59, "duration": 7, "velocity": 79}, {"time": 1555, "pitch": 50, "duration": 18, "velocity": 70}, {"time": 1561, "pitch": 55, "duration": 4, "velocity": 84}, {"time": 1561, "pitch": 59, "duration": 6, "velocity": 89}, {"time": 1561, "pitch": 62, "duration": 6, "velocity": 85}, {"time": 1570, "pitch": 55, "duration": 2, "velocity": 78}, {"time": 1573, "pitch": 43, "duration": 15, "velocity": 78}, {"time": 1573, "pitch": 55, "duration": 4, "velocity": 83}, {"time": 1573, "pitch": 59, "duration": 4, "velocity": 80}, {"time": 1579, "pitch": 55, "duration": 4, "velocity": 85}, {"time": 1579, "pitch": 59, "duration": 4, "velocity": 84}, {"time": 1585, "pitch": 55, "duration": 3, "velocity": 85}, {"time": 1585, "pitch": 59, "duration": 6, "velocity": 85}, {"time": 1585, "pitch": 62, "duration": 8, "velocity": 84}, {"time": 1591, "pitch": 55, "duration": 2, "velocity": 78}, {"time": 1597, "pitch": 42, "duration": 14, "velocity": 83}, {"time": 1597, "pitch": 57, "duration": 9, "velocity": 78}, {"time": 1597, "pitch": 61, "duration": 9, "velocity": 79}, {"time": 1603, "pitch": 49, "duration": 8, "velocity": 68}, {"time": 1609, "pitch": 57, "duration": 4, "velocity": 87}, {"time": 1609, "pitch": 61, "duration": 10, "velocity": 92}, {"time": 1609, "pitch": 66, "duration": 11, "velocity": 84}, {"time": 1618, "pitch": 57, "duration": 2, "velocity": 83}, {"time": 1621, "pitch": 47, "duration": 18, "velocity": 84}, {"time": 1621, "pitch": 59, "duration": 4, "velocity": 83}, {"time": 1621, "pitch": 62, "duration": 4, "velocity": 83}, {"time": 1627, "pitch": 59, "duration": 4, "velocity": 83}, {"time": 1627, "pitch": 62, "duration": 4, "velocity": 83}, {"time": 1633, "pitch": 54, "duration": 5, "velocity": 78}, {"time": 1633, "pitch": 59, "duration": 4, "velocity": 84}, {"time": 1633, "pitch": 62, "duration": 7, "velocity": 85}, {"time": 1633, "pitch": 66, "duration": 8, "velocity": 85}, {"time": 1639, "pitch": 59, "duration": 3, "velocity": 76}, {"time": 1645, "pitch": 52, "duration": 21, "velocity": 89}, {"time": 1645, "pitch": 59, "duration": 4, "velocity": 82}, {"time": 1645, "pitch": 64, "duration": 9, "velocity": 84}, {"time": 1651, "pitch": 59, "duration": 4, "velocity": 81}, {"time": 1657, "pitch": 59, "duration": 4, "velocity": 85}, {"time": 1657, "pitch": 64, "duration": 10, "velocity": 94}, {"time": 1657, "pitch": 67, "duration": 10, "velocity": 87}, {"time": 1666, "pitch": 59, "duration": 2, "velocity": 78}, {"time": 1669, "pitch": 40, "duration": 10, "velocity": 86}, {"time": 1669, "pitch": 59, "duration": 3, "velocity": 84}, {"time": 1669, "pitch": 64, "duration": 4, "velocity": 87}, {"time": 1675, "pitch": 59, "duration": 4, "velocity": 84}, {"time": 1675, "pitch": 64, "duration": 4, "velocity": 87}, {"time": 1681, "pitch": 59, "duration": 2, "velocity": 84}, {"time": 1681, "pitch": 64, "duration": 4, "velocity": 87}, {"time": 1681, "pitch": 67, "duration": 6, "velocity": 84}, {"time": 1687, "pitch": 59, "duration": 2, "velocity": 83}, {"time": 1693, "pitch": 45, "duration": 3, "velocity": 83}, {"time": 1693, "pitch": 57, "duration": 3, "velocity": 79}, {"time": 1693, "pitch": 61, "duration": 3, "velocity": 73}, {"time": 1693, "pitch": 64, "duration": 3, "velocity": 80}, {"time": 1699, "pitch": 45, "duration": 3, "velocity": 78}, {"time": 1699, "pitch": 57, "duration": 3, "velocity": 76}, {"time": 1699, "pitch": 61, "duration": 3, "velocity": 75}, {"time": 1699, "pitch": 64, "duration": 3, "velocity": 83}, {"time": 1705, "pitch": 45, "duration": 3, "velocity": 80}, {"time": 1705, "pitch": 57, "duration": 2, "velocity": 73}, {"time": 1705, "pitch": 61, "duration": 2, "velocity": 74}, {"time": 1705, "pitch": 64, "duration": 2, "velocity": 80}, {"time": 1711, "pitch": 45, "duration": 3, "velocity": 79}, {"time": 1711, "pitch": 57, "duration": 2, "velocity": 75}, {"time": 1711, "pitch": 61, "duration": 2, "velocity": 75}, {"time": 1711, "pitch": 64, "duration": 3, "velocity": 83}, {"time": 1717, "pitch": 45, "duration": 3, "velocity": 84}, {"time": 1717, "pitch": 57, "duration": 3, "velocity": 78}, {"time": 1717, "pitch": 61, "duration": 3, "velocity": 79}, {"time": 1717, "pitch": 64, "duration": 3, "velocity": 84}, {"time": 1723, "pitch": 45, "duration": 3, "velocity": 83}, {"time": 1723, "pitch": 57, "duration": 2, "velocity": 82}, {"time": 1723, "pitch": 61, "duration": 2, "velocity": 83}, {"time": 1723, "pitch": 64, "duration": 2, "velocity": 85}, {"time": 1729, "pitch": 45, "duration": 3, "velocity": 84}, {"time": 1729, "pitch": 57, "duration": 3, "velocity": 83}, {"time": 1729, "pitch": 61, "duration": 3, "velocity": 85}, {"time": 1729, "pitch": 64, "duration": 3, "velocity": 85}, {"time": 1735, "pitch": 45, "duration": 4, "velocity": 83}, {"time": 1735, "pitch": 57, "duration": 3, "velocity": 78}, {"time": 1735, "pitch": 61, "duration": 3, "velocity": 81}, {"time": 1735, "pitch": 64, "duration": 3, "velocity": 84}, {"time": 1741, "pitch": 38, "duration": 12, "velocity": 86}, {"time": 1741, "pitch": 57, "duration": 5, "velocity": 80}, {"time": 1741, "pitch": 62, "duration": 7, "velocity": 83}, {"time": 1753, "pitch": 57, "duration": 2, "velocity": 83}, {"time": 1753, "pitch": 62, "duration": 10, "velocity": 89}, {"time": 1753, "pitch": 66, "duration": 10, "velocity": 90}, {"time": 1762, "pitch": 57, "duration": 2, "velocity": 83}, {"time": 1765, "pitch": 50, "duration": 15, "velocity": 85}, {"time": 1765, "pitch": 57, "duration": 3, "velocity": 79}, {"time": 1765, "pitch": 62, "duration": 3, "velocity": 84}, {"time": 1771, "pitch": 57, "duration": 4, "velocity": 80}, {"time": 1771, "pitch": 62, "duration": 4, "velocity": 84}, {"time": 1777, "pitch": 57, "duration": 2, "velocity": 83}, {"time": 1777, "pitch": 62, "duration": 6, "velocity": 88}, {"time": 1777, "pitch": 66, "duration": 6, "velocity": 90}, {"time": 1783, "pitch": 57, "duration": 4, "velocity": 78}, {"time": 1789, "pitch": 45, "duration": 41, "velocity": 84}, {"time": 1789, "pitch": 57, "duration": 9, "velocity": 79}, {"time": 1789, "pitch": 61, "duration": 9, "velocity": 79}, {"time": 1801, "pitch": 57, "duration": 4, "velocity": 85}, {"time": 1801, "pitch": 61, "duration": 5, "velocity": 90}, {"time": 1801, "pitch": 64, "duration": 5, "velocity": 90}, {"time": 1807, "pitch": 52, "duration": 23, "velocity": 72}, {"time": 1810, "pitch": 57, "duration": 3, "velocity": 87}, {"time": 1813, "pitch": 57, "duration": 2, "velocity": 72}, {"time": 1813, "pitch": 61, "duration": 4, "velocity": 90}, {"time": 1813, "pitch": 64, "duration": 4, "velocity": 89}, {"time": 1813, "pitch": 69, "duration": 4, "velocity": 84}, {"time": 1819, "pitch": 57, "duration": 4, "velocity": 82}, {"time": 1825, "pitch": 57, "duration": 3, "velocity": 88}, {"time": 1825, "pitch": 61, "duration": 6, "velocity": 90}, {"time": 1825, "pitch": 64, "duration": 7, "velocity": 89}, {"time": 1831, "pitch": 57, "duration": 3, "velocity": 87}, {"time": 1837, "pitch": 47, "duration": 22, "velocity": 83}, {"time": 1837, "pitch": 59, "duration": 7, "velocity": 79}, {"time": 1837, "pitch": 62, "duration": 7, "velocity": 83}, {"time": 1843, "pitch": 54, "duration": 16, "velocity": 74}, {"time": 1849, "pitch": 59, "duration": 5, "velocity": 84}, {"time": 1849, "pitch": 62, "duration": 9, "velocity": 84}, {"time": 1849, "pitch": 66, "duration": 9, "velocity": 78}, {"time": 1858, "pitch": 59, "duration": 2, "velocity": 84}, {"time": 1861, "pitch": 47, "duration": 14, "velocity": 83}, {"time": 1861, "pitch": 59, "duration": 4, "velocity": 82}, {"time": 1861, "pitch": 62, "duration": 4, "velocity": 84}, {"time": 1867, "pitch": 59, "duration": 4, "velocity": 84}, {"time": 1867, "pitch": 62, "duration": 4, "velocity": 83}, {"time": 1873, "pitch": 59, "duration": 2, "velocity": 84}, {"time": 1873, "pitch": 62, "duration": 7, "velocity": 85}, {"time": 1873, "pitch": 66, "duration": 7, "velocity": 84}, {"time": 1879, "pitch": 59, "duration": 2, "velocity": 77}, {"time": 1885, "pitch": 45, "duration": 15, "velocity": 84}, {"time": 1885, "pitch": 57, "duration": 9, "velocity": 84}, {"time": 1885, "pitch": 60, "duration": 9, "velocity": 84}, {"time": 1891, "pitch": 52, "duration": 13, "velocity": 73}, {"time": 1897, "pitch": 57, "duration": 6, "velocity": 86}, {"time": 1897, "pitch": 60, "duration": 7, "velocity": 92}, {"time": 1903, "pitch": 45, "duration": 5, "velocity": 73}, {"time": 1906, "pitch": 57, "duration": 2, "velocity": 83}, {"time": 1909, "pitch": 50, "duration": 13, "velocity": 89}, {"time": 1909, "pitch": 57, "duration": 3, "velocity": 81}, {"time": 1909, "pitch": 62, "duration": 4, "velocity": 87}, {"time": 1915, "pitch": 57, "duration": 4, "velocity": 79}, {"time": 1921, "pitch": 62, "duration": 6, "velocity": 85}, {"time": 1921, "pitch": 66, "duration": 6, "velocity": 88}, {"time": 1927, "pitch": 57, "duration": 3, "velocity": 83}, {"time": 1933, "pitch": 43, "duration": 24, "velocity": 84}, {"time": 1933, "pitch": 55, "duration": 8, "velocity": 80}, {"time": 1933, "pitch": 59, "duration": 7, "velocity": 79}, {"time": 1939, "pitch": 50, "duration": 18, "velocity": 70}, {"time": 1945, "pitch": 55, "duration": 4, "velocity": 84}, {"time": 1945, "pitch": 59, "duration": 6, "velocity": 89}, {"time": 1945, "pitch": 62, "duration": 6, "velocity": 85}, {"time": 1954, "pitch": 55, "duration": 2, "velocity": 78}, {"time": 1957, "pitch": 43, "duration": 15, "velocity": 78}, {"time": 1957, "pitch": 55, "duration": 4, "velocity": 83}, {"time": 1957, "pitch": 59, "duration": 4, "velocity": 80}, {"time": 1963, "pitch": 55, "duration": 4, "velocity": 85}, {"time": 1963, "pitch": 59, "duration": 4, "velocity": 84}, {"time": 1969, "pitch": 55, "duration": 3, "velocity": 85}, {"time": 1969, "pitch": 59, "duration": 6, "velocity": 85}, {"time": 1969, "pitch": 62, "duration": 8, "velocity": 84}, {"time": 1975, "pitch": 55, "duration": 2, "velocity": 78}, {"time": 1981, "pitch": 42, "duration": 14, "velocity": 83}, {"time": 1981, "pitch": 57, "duration": 9, "velocity": 78}, {"time": 1981, "pitch": 61, "duration": 9, "velocity": 79}, {"time": 1987, "pitch": 49, "duration": 8, "velocity": 68}, {"time": 1993, "pitch": 57, "duration": 4, "velocity": 87}, {"time": 1993, "pitch": 61, "duration": 10, "velocity": 92}, {"time": 1993, "pitch": 66, "duration": 11, "velocity": 84}, {"time": 2002, "pitch": 57, "duration": 2, "velocity": 83}, {"time": 2005, "pitch": 47, "duration": 18, "velocity": 84}, {"time": 2005, "pitch": 59, "duration": 4, "velocity": 83}, {"time": 2005, "pitch": 62, "duration": 4, "velocity": 83}, {"time": 2011, "pitch": 59, "duration": 4, "velocity": 83}, {"time": 2011, "pitch": 62, "duration": 4, "velocity": 83}, {"time": 2017, "pitch": 54, "duration": 5, "velocity": 78}, {"time": 2017, "pitch": 59, "duration": 4, "velocity": 84}, {"time": 2017, "pitch": 62, "duration": 7, "velocity": 85}, {"time": 2017, "pitch": 66, "duration": 8, "velocity": 85}, {"time": 2023, "pitch": 59, "duration": 3, "velocity": 76}, {"time": 2029, "pitch": 52, "duration": 21, "velocity": 89}, {"time": 2029, "pitch": 59, "duration": 4, "velocity": 82}, {"time": 2029, "pitch": 64, "duration": 9, "velocity": 84}, {"time": 2035, "pitch": 59, "duration": 4, "velocity": 81}, {"time": 2041, "pitch": 59, "duration": 4, "velocity": 85}, {"time": 2041, "pitch": 64, "duration": 10, "velocity": 94}, {"time": 2041, "pitch": 67, "duration": 10, "velocity": 87}, {"time": 2050, "pitch": 59, "duration": 2, "velocity": 78}, {"time": 2053, "pitch": 40, "duration": 10, "velocity": 86}, {"time": 2053, "pitch": 59, "duration": 3, "velocity": 84}, {"time": 2053, "pitch": 64, "duration": 4, "velocity": 87}, {"time": 2059, "pitch": 59, "duration": 4, "velocity": 84}, {"time": 2059, "pitch": 64, "duration": 4, "velocity": 87}, {"time": 2065, "pitch": 59, "duration": 2, "velocity": 84}, {"time": 2065, "pitch": 64, "duration": 4, "velocity": 87}, {"time": 2065, "pitch": 67, "duration": 6, "velocity": 84}, {"time": 2071, "pitch": 59, "duration": 2, "velocity": 83}, {"time": 2077, "pitch": 45, "duration": 3, "velocity": 83}, {"time": 2077, "pitch": 57, "duration": 3, "velocity": 79}, {"time": 2077, "pitch": 61, "duration": 3, "velocity": 73}, {"time": 2077, "pitch": 64, "duration": 3, "velocity": 80}, {"time": 2083, "pitch": 45, "duration": 3, "velocity": 78}, {"time": 2083, "pitch": 57, "duration": 3, "velocity": 76}, {"time": 2083, "pitch": 61, "duration": 3, "velocity": 75}, {"time": 2083, "pitch": 64, "duration": 3, "velocity": 83}, {"time": 2089, "pitch": 45, "duration": 3, "velocity": 80}, {"time": 2089, "pitch": 57, "duration": 2, "velocity": 73}, {"time": 2089, "pitch": 61, "duration": 2, "velocity": 74}, {"time": 2089, "pitch": 64, "duration": 2, "velocity": 80}, {"time": 2095, "pitch": 45, "duration": 3, "velocity": 79}, {"time": 2095, "pitch": 57, "duration": 2, "velocity": 75}, {"time": 2095, "pitch": 61, "duration": 2, "velocity": 75}, {"time": 2095, "pitch": 64, "duration": 3, "velocity": 83}, {"time": 2101, "pitch": 45, "duration": 3, "velocity": 84}, {"time": 2101, "pitch": 57, "duration": 3, "velocity": 78}, {"time": 2101, "pitch": 61, "duration": 3, "velocity": 79}, {"time": 2101, "pitch": 64, "duration": 3, "velocity": 84}, {"time": 2107, "pitch": 45, "duration": 3, "velocity": 83}, {"time": 2107, "pitch": 57, "duration": 2, "velocity": 82}, {"time": 2107, "pitch": 61, "duration": 2, "velocity": 83}, {"time": 2107, "pitch": 64, "duration": 2, "velocity": 85}, {"time": 2113, "pitch": 45, "duration": 3, "velocity": 84}, {"time": 2113, "pitch": 57, "duration": 3, "velocity": 83}, {"time": 2113, "pitch": 61, "duration": 3, "velocity": 85}, {"time": 2113, "pitch": 64, "duration": 3, "velocity": 85}, {"time": 2119, "pitch": 45, "duration": 4, "velocity": 83}, {"time": 2119, "pitch": 57, "duration": 3, "velocity": 78}, {"time": 2119, "pitch": 61, "duration": 3, "velocity": 81}, {"time": 2119, "pitch": 64, "duration": 3, "velocity": 84}, {"time": 2125, "pitch": 43, "duration": 39, "velocity": 84}, {"time": 2125, "pitch": 55, "duration": 8, "velocity": 80}, {"time": 2125, "pitch": 59, "duration": 11, "velocity": 79}, {"time": 2131, "pitch": 50, "duration": 32, "velocity": 73}, {"time": 2137, "pitch": 55, "duration": 5, "velocity": 85}, {"time": 2143, "pitch": 55, "duration": 8, "velocity": 76}, {"time": 2143, "pitch": 62, "duration": 11, "velocity": 83}, {"time": 2155, "pitch": 55, "duration": 4, "velocity": 75}, {"time": 2161, "pitch": 55, "duration": 3, "velocity": 84}, {"time": 2161, "pitch": 59, "duration": 3, "velocity": 86}, {"time": 2161, "pitch": 62, "duration": 3, "velocity": 83}, {"time": 2173, "pitch": 42, "duration": 32, "velocity": 81}, {"time": 2173, "pitch": 57, "duration": 8, "velocity": 75}, {"time": 2173, "pitch": 61, "duration": 12, "velocity": 77}, {"time": 2179, "pitch": 49, "duration": 25, "velocity": 71}, {"time": 2185, "pitch": 57, "duration": 2, "velocity": 79}, {"time": 2191, "pitch": 57, "duration": 3, "velocity": 84}, {"time": 2191, "pitch": 66, "duration": 4, "velocity": 81}, {"time": 2197, "pitch": 61, "duration": 4, "velocity": 81}, {"time": 2203, "pitch": 57, "duration": 3, "velocity": 78}, {"time": 2209, "pitch": 57, "duration": 3, "velocity": 83}, {"time": 2209, "pitch": 61, "duration": 3, "velocity": 74}, {"time": 2221, "pitch": 43, "duration": 39, "velocity": 84}, {"time": 2221, "pitch": 55, "duration": 14, "velocity": 79}, {"time": 2221, "pitch": 59, "duration": 13, "velocity": 79}, {"time": 2227, "pitch": 50, "duration": 33, "velocity": 77}, {"time": 2233, "pitch": 62, "duration": 7, "velocity": 80}, {"time": 2239, "pitch": 67, "duration": 6, "velocity": 83}, {"time": 2245, "pitch": 55, "duration": 8, "velocity": 78}, {"time": 2251, "pitch": 59, "duration": 3, "velocity": 77}, {"time": 2257, "pitch": 55, "duration": 3, "velocity": 79}, {"time": 2257, "pitch": 59, "duration": 3, "velocity": 83}, {"time": 2257, "pitch": 62, "duration": 4, "velocity": 83}, {"time": 2269, "pitch": 42, "duration": 35, "velocity": 85}, {"time": 2269, "pitch": 57, "duration": 8, "velocity": 79}, {"time": 2269, "pitch": 61, "duration": 14, "velocity": 77}, {"time": 2275, "pitch": 49, "duration": 29, "velocity": 64}, {"time": 2281, "pitch": 57, "duration": 9, "velocity": 83}, {"time": 2287, "pitch": 61, "duration": 3, "velocity": 72}, {"time": 2293, "pitch": 57, "duration": 9, "velocity": 78}, {"time": 2293, "pitch": 61, "duration": 10, "velocity": 83}, {"time": 2293, "pitch": 66, "duration": 10, "velocity": 78}, {"time": 2305, "pitch": 57, "duration": 2, "velocity": 84}, {"time": 2305, "pitch": 61, "duration": 2, "velocity": 80}, {"time": 2317, "pitch": 43, "duration": 23, "velocity": 85}, {"time": 2317, "pitch": 55, "duration": 3, "velocity": 82}, {"time": 2317, "pitch": 59, "duration": 6, "velocity": 83}, {"time": 2323, "pitch": 55, "duration": 2, "velocity": 79}, {"time": 2329, "pitch": 55, "duration": 4, "velocity": 90}, {"time": 2329, "pitch": 62, "duration": 4, "velocity": 84}, {"time": 2335, "pitch": 50, "duration": 5, "velocity": 55}, {"time": 2338, "pitch": 55, "duration": 4, "velocity": 83}, {"time": 2338, "pitch": 59, "duration": 4, "velocity": 87}, {"time": 2341, "pitch": 43, "duration": 19, "velocity": 83}, {"time": 2347, "pitch": 55, "duration": 3, "velocity": 83}, {"time": 2353, "pitch": 55, "duration": 4, "velocity": 89}, {"time": 2353, "pitch": 59, "duration": 4, "velocity": 89}, {"time": 2359, "pitch": 50, "duration": 3, "velocity": 76}, {"time": 2365, "pitch": 42, "duration": 17, "velocity": 82}, {"time": 2365, "pitch": 57, "duration": 8, "velocity": 79}, {"time": 2365, "pitch": 61, "duration": 8, "velocity": 76}, {"time": 2371, "pitch": 49, "duration": 10, "velocity": 52}, {"time": 2377, "pitch": 57, "duration": 4, "velocity": 83}, {"time": 2377, "pitch": 61, "duration": 6, "velocity": 89}, {"time": 2377, "pitch": 66, "duration": 11, "velocity": 82}, {"time": 2386, "pitch": 57, "duration": 2, "velocity": 83}, {"time": 2389, "pitch": 47, "duration": 16, "velocity": 84}, {"time": 2389, "pitch": 59, "duration": 3, "velocity": 85}, {"time": 2389, "pitch": 62, "duration": 3, "velocity": 85}, {"time": 2395, "pitch": 59, "duration": 3, "velocity": 83}, {"time": 2395, "pitch": 62, "duration": 3, "velocity": 80}, {"time": 2401, "pitch": 59, "duration": 4, "velocity": 85}, {"time": 2401, "pitch": 62, "duration": 6, "velocity": 87}, {"time": 2401, "pitch": 66, "duration": 6, "velocity": 92}, {"time": 2407, "pitch": 59, "duration": 2, "velocity": 84}, {"time": 2413, "pitch": 43, "duration": 23, "velocity": 83}, {"time": 2413, "pitch": 55, "duration": 10, "velocity": 84}, {"time": 2413, "pitch": 59, "duration": 8, "velocity": 83}, {"time": 2419, "pitch": 50, "duration": 16, "velocity": 73}, {"time": 2425, "pitch": 55, "duration": 5, "velocity": 85}, {"time": 2425, "pitch": 62, "duration": 4, "velocity": 83}, {"time": 2434, "pitch": 55, "duration": 3, "velocity": 72}, {"time": 2437, "pitch": 43, "duration": 18, "velocity": 83}, {"time": 2437, "pitch": 55, "duration": 4, "velocity": 83}, {"time": 2437, "pitch": 59, "duration": 4, "velocity": 83}, {"time": 2443, "pitch": 55, "duration": 8, "velocity": 82}, {"time": 2443, "pitch": 62, "duration": 8, "velocity": 86}, {"time": 2449, "pitch": 50, "duration": 7, "velocity": 80}, {"time": 2455, "pitch": 55, "duration": 2, "velocity": 74}, {"time": 2455, "pitch": 59, "duration": 2, "velocity": 75}, {"time": 2461, "pitch": 42, "duration": 4, "velocity": 85}, {"time": 2461, "pitch": 54, "duration": 4, "velocity": 79}, {"time": 2461, "pitch": 58, "duration": 3, "velocity": 73}, {"time": 2461, "pitch": 61, "duration": 3, "velocity": 77}, {"time": 2467, "pitch": 42, "duration": 3, "velocity": 73}, {"time": 2467, "pitch": 54, "duration": 4, "velocity": 73}, {"time": 2467, "pitch": 58, "duration": 3, "velocity": 66}, {"time": 2467, "pitch": 61, "duration": 4, "velocity": 73}, {"time": 2473, "pitch": 42, "duration": 3, "velocity": 74}, {"time": 2473, "pitch": 54, "duration": 4, "velocity": 78}, {"time": 2473, "pitch": 58, "duration": 3, "velocity": 61}, {"time": 2473, "pitch": 61, "duration": 3, "velocity": 72}, {"time": 2479, "pitch": 42, "duration": 4, "velocity": 79}, {"time": 2479, "pitch": 54, "duration": 4, "velocity": 72}, {"time": 2479, "pitch": 58, "duration": 4, "velocity": 59}, {"time": 2479, "pitch": 61, "duration": 4, "velocity": 67}, {"time": 2485, "pitch": 42, "duration": 23, "velocity": 84}, {"time": 2485, "pitch": 54, "duration": 23, "velocity": 74}, {"time": 2485, "pitch": 58, "duration": 23, "velocity": 77}, {"time": 2485, "pitch": 61, "duration": 23, "velocity": 77}, {"time": 2509, "pitch": 47, "duration": 14, "velocity": 84}, {"time": 2509, "pitch": 59, "duration": 9, "velocity": 80}, {"time": 2509, "pitch": 62, "duration": 9, "velocity": 84}, {"time": 2515, "pitch": 54, "duration": 7, "velocity": 71}, {"time": 2521, "pitch": 59, "duration": 4, "velocity": 84}, {"time": 2521, "pitch": 62, "duration": 3, "velocity": 84}, {"time": 2521, "pitch": 66, "duration": 3, "velocity": 83}, {"time": 2530, "pitch": 59, "duration": 4, "velocity": 74}, {"time": 2530, "pitch": 62, "duration": 3, "velocity": 74}, {"time": 2533, "pitch": 43, "duration": 17, "velocity": 84}, {"time": 2539, "pitch": 50, "duration": 9, "velocity": 72}, {"time": 2545, "pitch": 55, "duration": 4, "velocity": 82}, {"time": 2545, "pitch": 59, "duration": 5, "velocity": 83}, {"time": 2545, "pitch": 62, "duration": 6, "velocity": 84}, {"time": 2557, "pitch": 50, "duration": 16, "velocity": 84}, {"time": 2557, "pitch": 57, "duration": 9, "velocity": 81}, {"time": 2557, "pitch": 62, "duration": 8, "velocity": 84}, {"time": 2569, "pitch": 57, "duration": 5, "velocity": 80}, {"time": 2569, "pitch": 62, "duration": 5, "velocity": 83}, {"time": 2569, "pitch": 66, "duration": 5, "velocity": 84}, {"time": 2578, "pitch": 57, "duration": 6, "velocity": 79}, {"time": 2578, "pitch": 62, "duration": 5, "velocity": 83}, {"time": 2581, "pitch": 45, "duration": 20, "velocity": 83}, {"time": 2587, "pitch": 57, "duration": 3, "velocity": 79}, {"time": 2593, "pitch": 57, "duration": 4, "velocity": 88}, {"time": 2593, "pitch": 61, "duration": 5, "velocity": 89}, {"time": 2599, "pitch": 52, "duration": 5, "velocity": 83}, {"time": 2605, "pitch": 47, "duration": 15, "velocity": 84}, {"time": 2605, "pitch": 59, "duration": 8, "velocity": 79}, {"time": 2605, "pitch": 62, "duration": 7, "velocity": 81}, {"time": 2611, "pitch": 54, "duration": 7, "velocity": 78}, {"time": 2617, "pitch": 59, "duration": 4, "velocity": 84}, {"time": 2617, "pitch": 62, "duration": 7, "velocity": 84}, {"time": 2617, "pitch": 66, "duration": 8, "velocity": 83}, {"time": 2626, "pitch": 59, "duration": 2, "velocity": 85}, {"time": 2629, "pitch": 43, "duration": 16, "velocity": 84}, {"time": 2629, "pitch": 55, "duration": 8, "velocity": 86}, {"time": 2629, "pitch": 59, "duration": 7, "velocity": 85}, {"time": 2635, "pitch": 50, "duration": 9, "velocity": 75}, {"time": 2641, "pitch": 55, "duration": 3, "velocity": 84}, {"time": 2641, "pitch": 62, "duration": 4, "velocity": 83}, {"time": 2653, "pitch": 50, "duration": 15, "velocity": 85}, {"time": 2653, "pitch": 57, "duration": 5, "velocity": 78}, {"time": 2653, "pitch": 62, "duration": 9, "velocity": 83}, {"time": 2665, "pitch": 57, "duration": 4, "velocity": 83}, {"time": 2665, "pitch": 62, "duration": 5, "velocity": 84}, {"time": 2665, "pitch": 66, "duration": 9, "velocity": 84}, {"time": 2674, "pitch": 57, "duration": 2, "velocity": 83}, {"time": 2677, "pitch": 45, "duration": 15, "velocity": 84}, {"time": 2677, "pitch": 57, "duration": 7, "velocity": 83}, {"time": 2677, "pitch": 61, "duration": 7, "velocity": 84}, {"time": 2683, "pitch": 52, "duration": 8, "velocity": 79}, {"time": 2689, "pitch": 57, "duration": 4, "velocity": 82}, {"time": 2689, "pitch": 61, "duration": 5, "velocity": 85}, {"time": 2689, "pitch": 64, "duration": 9, "velocity": 87}, {"time": 2692, "pitch": 45, "duration": 5, "velocity": 84}, {"time": 2701, "pitch": 52, "duration": 10, "velocity": 88}, {"time": 2701, "pitch": 59, "duration": 9, "velocity": 84}, {"time": 2701, "pitch": 64, "duration": 9, "velocity": 85}, {"time": 2713, "pitch": 59, "duration": 3, "velocity": 84}, {"time": 2713, "pitch": 64, "duration": 3, "velocity": 88}, {"time": 2713, "pitch": 67, "duration": 4, "velocity": 83}, {"time": 2722, "pitch": 59, "duration": 6, "velocity": 80}, {"time": 2722, "pitch": 64, "duration": 10, "velocity": 83}, {"time": 2725, "pitch": 40, "duration": 16, "velocity": 86}, {"time": 2731, "pitch": 59, "duration": 3, "velocity": 89}, {"time": 2737, "pitch": 59, "duration": 3, "velocity": 85}, {"time": 2737, "pitch": 64, "duration": 7, "velocity": 86}, {"time": 2737, "pitch": 67, "duration": 6, "velocity": 83}, {"time": 2743, "pitch": 59, "duration": 4, "velocity": 77}, {"time": 2749, "pitch": 47, "duration": 41, "velocity": 84}, {"time": 2749, "pitch": 59, "duration": 9, "velocity": 81}, {"time": 2749, "pitch": 62, "duration": 9, "velocity": 80}, {"time": 2761, "pitch": 59, "duration": 6, "velocity": 84}, {"time": 2761, "pitch": 62, "duration": 6, "velocity": 83}, {"time": 2761, "pitch": 66, "duration": 5, "velocity": 83}, {"time": 2770, "pitch": 59, "duration": 3, "velocity": 81}, {"time": 2770, "pitch": 66, "duration": 4, "velocity": 75}, {"time": 2773, "pitch": 54, "duration": 14, "velocity": 71}, {"time": 2779, "pitch": 59, "duration": 4, "velocity": 83}, {"time": 2785, "pitch": 59, "duration": 3, "velocity": 85}, {"time": 2785, "pitch": 62, "duration": 5, "velocity": 85}, {"time": 2791, "pitch": 59, "duration": 2, "velocity": 74}, {"time": 2797, "pitch": 48, "duration": 41, "velocity": 84}, {"time": 2797, "pitch": 55, "duration": 11, "velocity": 84}, {"time": 2797, "pitch": 60, "duration": 10, "velocity": 83}, {"time": 2809, "pitch": 55, "duration": 6, "velocity": 83}, {"time": 2809, "pitch": 60, "duration": 6, "velocity": 84}, {"time": 2809, "pitch": 64, "duration": 5, "velocity": 87}, {"time": 2818, "pitch": 55, "duration": 3, "velocity": 84}, {"time": 2818, "pitch": 64, "duration": 5, "velocity": 84}, {"time": 2827, "pitch": 55, "duration": 4, "velocity": 80}, {"time": 2833, "pitch": 55, "duration": 3, "velocity": 87}, {"time": 2833, "pitch": 60, "duration": 6, "velocity": 87}, {"time": 2839, "pitch": 55, "duration": 1, "velocity": 75}, {"time": 2845, "pitch": 45, "duration": 4, "velocity": 81}, {"time": 2845, "pitch": 57, "duration": 4, "velocity": 70}, {"time": 2845, "pitch": 61, "duration": 3, "velocity": 71}, {"time": 2845, "pitch": 64, "duration": 4, "velocity": 75}, {"time": 2851, "pitch": 45, "duration": 4, "velocity": 83}, {"time": 2851, "pitch": 57, "duration": 3, "velocity": 71}, {"time": 2851, "pitch": 61, "duration": 3, "velocity": 69}, {"time": 2851, "pitch": 64, "duration": 4, "velocity": 83}, {"time": 2857, "pitch": 45, "duration": 4, "velocity": 84}, {"time": 2857, "pitch": 57, "duration": 4, "velocity": 77}, {"time": 2857, "pitch": 61, "duration": 4, "velocity": 72}, {"time": 2857, "pitch": 64, "duration": 4, "velocity": 83}, {"time": 2863, "pitch": 45, "duration": 4, "velocity": 87}, {"time": 2863, "pitch": 57, "duration": 5, "velocity": 79}, {"time": 2863, "pitch": 61, "duration": 4, "velocity": 75}, {"time": 2863, "pitch": 64, "duration": 4, "velocity": 84}, {"time": 2869, "pitch": 45, "duration": 3, "velocity": 87}, {"time": 2869, "pitch": 57, "duration": 3, "velocity": 79}, {"time": 2869, "pitch": 61, "duration": 3, "velocity": 75}, {"time": 2869, "pitch": 64, "duration": 3, "velocity": 84}, {"time": 2875, "pitch": 45, "duration": 3, "velocity": 84}, {"time": 2875, "pitch": 57, "duration": 3, "velocity": 76}, {"time": 2875, "pitch": 61, "duration": 3, "velocity": 71}, {"time": 2875, "pitch": 64, "duration": 4, "velocity": 83}, {"time": 2881, "pitch": 45, "duration": 4, "velocity": 88}, {"time": 2881, "pitch": 57, "duration": 4, "velocity": 84}, {"time": 2881, "pitch": 61, "duration": 4, "velocity": 87}, {"time": 2881, "pitch": 64, "duration": 4, "velocity": 85}, {"time": 2887, "pitch": 45, "duration": 4, "velocity": 85}, {"time": 2887, "pitch": 57, "duration": 4, "velocity": 78}, {"time": 2887, "pitch": 61, "duration": 4, "velocity": 73}, {"time": 2887, "pitch": 64, "duration": 4, "velocity": 84}, {"time": 2893, "pitch": 38, "duration": 12, "velocity": 86}, {"time": 2893, "pitch": 57, "duration": 5, "velocity": 80}, {"time": 2893, "pitch": 62, "duration": 7, "velocity": 83}, {"time": 2905, "pitch": 57, "duration": 2, "velocity": 83}, {"time": 2905, "pitch": 62, "duration": 10, "velocity": 89}, {"time": 2905, "pitch": 66, "duration": 10, "velocity": 90}, {"time": 2914, "pitch": 57, "duration": 2, "velocity": 83}, {"time": 2917, "pitch": 50, "duration": 15, "velocity": 85}, {"time": 2917, "pitch": 57, "duration": 3, "velocity": 79}, {"time": 2917, "pitch": 62, "duration": 3, "velocity": 84}, {"time": 2923, "pitch": 57, "duration": 4, "velocity": 80}, {"time": 2923, "pitch": 62, "duration": 4, "velocity": 84}, {"time": 2929, "pitch": 57, "duration": 2, "velocity": 83}, {"time": 2929, "pitch": 62, "duration": 6, "velocity": 88}, {"time": 2929, "pitch": 66, "duration": 6, "velocity": 90}, {"time": 2935, "pitch": 57, "duration": 4, "velocity": 78}, {"time": 2941, "pitch": 45, "duration": 41, "velocity": 84}, {"time": 2941, "pitch": 57, "duration": 9, "velocity": 79}, {"time": 2941, "pitch": 61, "duration": 9, "velocity": 79}, {"time": 2953, "pitch": 57, "duration": 4, "velocity": 85}, {"time": 2953, "pitch": 61, "duration": 5, "velocity": 90}, {"time": 2953, "pitch": 64, "duration": 5, "velocity": 90}, {"time": 2959, "pitch": 52, "duration": 23, "velocity": 72}, {"time": 2962, "pitch": 57, "duration": 3, "velocity": 87}, {"time": 2965, "pitch": 57, "duration": 2, "velocity": 72}, {"time": 2965, "pitch": 61, "duration": 4, "velocity": 90}, {"time": 2965, "pitch": 64, "duration": 4, "velocity": 89}, {"time": 2965, "pitch": 69, "duration": 4, "velocity": 84}, {"time": 2971, "pitch": 57, "duration": 4, "velocity": 82}, {"time": 2977, "pitch": 57, "duration": 3, "velocity": 88}, {"time": 2977, "pitch": 61, "duration": 6, "velocity": 90}, {"time": 2977, "pitch": 64, "duration": 7, "velocity": 89}, {"time": 2983, "pitch": 57, "duration": 3, "velocity": 87}, {"time": 2989, "pitch": 47, "duration": 22, "velocity": 83}, {"time": 2989, "pitch": 59, "duration": 7, "velocity": 79}, {"time": 2989, "pitch": 62, "duration": 7, "velocity": 83}, {"time": 2995, "pitch": 54, "duration": 16, "velocity": 74}, {"time": 3001, "pitch": 59, "duration": 5, "velocity": 84}, {"time": 3001, "pitch": 62, "duration": 9, "velocity": 84}, {"time": 3001, "pitch": 66, "duration": 9, "velocity": 78}, {"time": 3010, "pitch": 59, "duration": 2, "velocity": 84}, {"time": 3013, "pitch": 47, "duration": 14, "velocity": 83}, {"time": 3013, "pitch": 59, "duration": 4, "velocity": 82}, {"time": 3013, "pitch": 62, "duration": 4, "velocity": 84}, {"time": 3019, "pitch": 59, "duration": 4, "velocity": 84}, {"time": 3019, "pitch": 62, "duration": 4, "velocity": 83}, {"time": 3025, "pitch": 59, "duration": 2, "velocity": 84}, {"time": 3025, "pitch": 62, "duration": 7, "velocity": 85}, {"time": 3025, "pitch": 66, "duration": 7, "velocity": 84}, {"time": 3031, "pitch": 59, "duration": 2, "velocity": 77}, {"time": 3037, "pitch": 45, "duration": 15, "velocity": 84}, {"time": 3037, "pitch": 57, "duration": 9, "velocity": 84}, {"time": 3037, "pitch": 60, "duration": 9, "velocity": 84}, {"time": 3043, "pitch": 52, "duration": 13, "velocity": 73}, {"time": 3049, "pitch": 57, "duration": 6, "velocity": 86}, {"time": 3049, "pitch": 60, "duration": 7, "velocity": 92}, {"time": 3055, "pitch": 45, "duration": 5, "velocity": 73}, {"time": 3058, "pitch": 57, "duration": 2, "velocity": 83}, {"time": 3061, "pitch": 50, "duration": 13, "velocity": 89}, {"time": 3061, "pitch": 57, "duration": 3, "velocity": 81}, {"time": 3061, "pitch": 62, "duration": 4, "velocity": 87}, {"time": 3067, "pitch": 57, "duration": 4, "velocity": 79}, {"time": 3073, "pitch": 62, "duration": 6, "velocity": 85}, {"time": 3073, "pitch": 66, "duration": 6, "velocity": 88}, {"time": 3079, "pitch": 57, "duration": 3, "velocity": 83}, {"time": 3085, "pitch": 43, "duration": 24, "velocity": 84}, {"time": 3085, "pitch": 55, "duration": 8, "velocity": 80}, {"time": 3085, "pitch": 59, "duration": 7, "velocity": 79}, {"time": 3091, "pitch": 50, "duration": 18, "velocity": 70}, {"time": 3097, "pitch": 55, "duration": 4, "velocity": 84}, {"time": 3097, "pitch": 59, "duration": 6, "velocity": 89}, {"time": 3097, "pitch": 62, "duration": 6, "velocity": 85}, {"time": 3106, "pitch": 55, "duration": 2, "velocity": 78}, {"time": 3109, "pitch": 43, "duration": 15, "velocity": 78}, {"time": 3109, "pitch": 55, "duration": 4, "velocity": 83}, {"time": 3109, "pitch": 59, "duration": 4, "velocity": 80}, {"time": 3115, "pitch": 55, "duration": 4, "velocity": 85}, {"time": 3115, "pitch": 59, "duration": 4, "velocity": 84}, {"time": 3121, "pitch": 55, "duration": 3, "velocity": 85}, {"time": 3121, "pitch": 59, "duration": 6, "velocity": 85}, {"time": 3121, "pitch": 62, "duration": 8, "velocity": 84}, {"time": 3127, "pitch": 55, "duration": 2, "velocity": 78}, {"time": 3133, "pitch": 42, "duration": 14, "velocity": 83}, {"time": 3133, "pitch": 57, "duration": 9, "velocity": 78}, {"time": 3133, "pitch": 61, "duration": 9, "velocity": 79}, {"time": 3139, "pitch": 49, "duration": 8, "velocity": 68}, {"time": 3145, "pitch": 57, "duration": 4, "velocity": 87}, {"time": 3145, "pitch": 61, "duration": 10, "velocity": 92}, {"time": 3145, "pitch": 66, "duration": 11, "velocity": 84}, {"time": 3154, "pitch": 57, "duration": 2, "velocity": 83}, {"time": 3157, "pitch": 47, "duration": 18, "velocity": 84}, {"time": 3157, "pitch": 59, "duration": 4, "velocity": 83}, {"time": 3157, "pitch": 62, "duration": 4, "velocity": 83}, {"time": 3163, "pitch": 59, "duration": 4, "velocity": 83}, {"time": 3163, "pitch": 62, "duration": 4, "velocity": 83}, {"time": 3169, "pitch": 54, "duration": 5, "velocity": 78}, {"time": 3169, "pitch": 59, "duration": 4, "velocity": 84}, {"time": 3169, "pitch": 62, "duration": 7, "velocity": 85}, {"time": 3169, "pitch": 66, "duration": 8, "velocity": 85}, {"time": 3175, "pitch": 59, "duration": 3, "velocity": 76}, {"time": 3181, "pitch": 52, "duration": 21, "velocity": 89}, {"time": 3181, "pitch": 59, "duration": 4, "velocity": 82}, {"time": 3181, "pitch": 64, "duration": 9, "velocity": 84}, {"time": 3187, "pitch": 59, "duration": 4, "velocity": 81}, {"time": 3193, "pitch": 59, "duration": 4, "velocity": 85}, {"time": 3193, "pitch": 64, "duration": 10, "velocity": 94}, {"time": 3193, "pitch": 67, "duration": 10, "velocity": 87}, {"time": 3202, "pitch": 59, "duration": 2, "velocity": 78}, {"time": 3205, "pitch": 40, "duration": 10, "velocity": 86}, {"time": 3205, "pitch": 59, "duration": 3, "velocity": 84}, {"time": 3205, "pitch": 64, "duration": 4, "velocity": 87}, {"time": 3211, "pitch": 59, "duration": 4, "velocity": 84}, {"time": 3211, "pitch": 64, "duration": 4, "velocity": 87}, {"time": 3217, "pitch": 59, "duration": 2, "velocity": 84}, {"time": 3217, "pitch": 64, "duration": 4, "velocity": 87}, {"time": 3217, "pitch": 67, "duration": 6, "velocity": 84}, {"time": 3223, "pitch": 59, "duration": 2, "velocity": 83}, {"time": 3229, "pitch": 45, "duration": 3, "velocity": 83}, {"time": 3229, "pitch": 57, "duration": 3, "velocity": 79}, {"time": 3229, "pitch": 61, "duration": 3, "velocity": 73}, {"time": 3229, "pitch": 64, "duration": 3, "velocity": 80}, {"time": 3235, "pitch": 45, "duration": 3, "velocity": 78}, {"time": 3235, "pitch": 57, "duration": 3, "velocity": 76}, {"time": 3235, "pitch": 61, "duration": 3, "velocity": 75}, {"time": 3235, "pitch": 64, "duration": 3, "velocity": 83}, {"time": 3241, "pitch": 45, "duration": 3, "velocity": 80}, {"time": 3241, "pitch": 57, "duration": 2, "velocity": 73}, {"time": 3241, "pitch": 61, "duration": 2, "velocity": 74}, {"time": 3241, "pitch": 64, "duration": 2, "velocity": 80}, {"time": 3247, "pitch": 45, "duration": 3, "velocity": 79}, {"time": 3247, "pitch": 57, "duration": 2, "velocity": 75}, {"time": 3247, "pitch": 61, "duration": 2, "velocity": 75}, {"time": 3247, "pitch": 64, "duration": 3, "velocity": 83}, {"time": 3253, "pitch": 45, "duration": 3, "velocity": 84}, {"time": 3253, "pitch": 57, "duration": 3, "velocity": 78}, {"time": 3253, "pitch": 61, "duration": 3, "velocity": 79}, {"time": 3253, "pitch": 64, "duration": 3, "velocity": 84}, {"time": 3259, "pitch": 45, "duration": 3, "velocity": 83}, {"time": 3259, "pitch": 57, "duration": 2, "velocity": 82}, {"time": 3259, "pitch": 61, "duration": 2, "velocity": 83}, {"time": 3259, "pitch": 64, "duration": 2, "velocity": 85}, {"time": 3265, "pitch": 45, "duration": 3, "velocity": 84}, {"time": 3265, "pitch": 57, "duration": 3, "velocity": 83}, {"time": 3265, "pitch": 61, "duration": 3, "velocity": 85}, {"time": 3265, "pitch": 64, "duration": 3, "velocity": 85}, {"time": 3271, "pitch": 45, "duration": 4, "velocity": 83}, {"time": 3271, "pitch": 57, "duration": 3, "velocity": 78}, {"time": 3271, "pitch": 61, "duration": 3, "velocity": 81}, {"time": 3271, "pitch": 64, "duration": 3, "velocity": 84}, {"time": 3277, "pitch": 38, "duration": 12, "velocity": 86}, {"time": 3277, "pitch": 57, "duration": 5, "velocity": 80}, {"time": 3277, "pitch": 62, "duration": 7, "velocity": 83}, {"time": 3289, "pitch": 57, "duration": 2, "velocity": 83}, {"time": 3289, "pitch": 62, "duration": 10, "velocity": 89}, {"time": 3289, "pitch": 66, "duration": 10, "velocity": 90}, {"time": 3298, "pitch": 57, "duration": 2, "velocity": 83}, {"time": 3301, "pitch": 50, "duration": 15, "velocity": 85}, {"time": 3301, "pitch": 57, "duration": 3, "velocity": 79}, {"time": 3301, "pitch": 62, "duration": 3, "velocity": 84}, {"time": 3307, "pitch": 57, "duration": 4, "velocity": 80}, {"time": 3307, "pitch": 62, "duration": 4, "velocity": 84}, {"time": 3313, "pitch": 57, "duration": 2, "velocity": 83}, {"time": 3313, "pitch": 62, "duration": 6, "velocity": 88}, {"time": 3313, "pitch": 66, "duration": 6, "velocity": 90}, {"time": 3319, "pitch": 57, "duration": 4, "velocity": 78}, {"time": 3325, "pitch": 45, "duration": 41, "velocity": 84}, {"time": 3325, "pitch": 57, "duration": 9, "velocity": 79}, {"time": 3325, "pitch": 61, "duration": 9, "velocity": 79}, {"time": 3337, "pitch": 57, "duration": 4, "velocity": 85}, {"time": 3337, "pitch": 61, "duration": 5, "velocity": 90}, {"time": 3337, "pitch": 64, "duration": 5, "velocity": 90}, {"time": 3343, "pitch": 52, "duration": 23, "velocity": 72}, {"time": 3346, "pitch": 57, "duration": 3, "velocity": 87}, {"time": 3349, "pitch": 57, "duration": 2, "velocity": 72}, {"time": 3349, "pitch": 61, "duration": 4, "velocity": 90}, {"time": 3349, "pitch": 64, "duration": 4, "velocity": 89}, {"time": 3349, "pitch": 69, "duration": 4, "velocity": 84}, {"time": 3355, "pitch": 57, "duration": 4, "velocity": 82}, {"time": 3361, "pitch": 57, "duration": 3, "velocity": 88}, {"time": 3361, "pitch": 61, "duration": 6, "velocity": 90}, {"time": 3361, "pitch": 64, "duration": 7, "velocity": 89}, {"time": 3367, "pitch": 57, "duration": 3, "velocity": 87}, {"time": 3373, "pitch": 47, "duration": 22, "velocity": 83}, {"time": 3373, "pitch": 59, "duration": 7, "velocity": 79}, {"time": 3373, "pitch": 62, "duration": 7, "velocity": 83}, {"time": 3379, "pitch": 54, "duration": 16, "velocity": 74}, {"time": 3385, "pitch": 59, "duration": 5, "velocity": 84}, {"time": 3385, "pitch": 62, "duration": 9, "velocity": 84}, {"time": 3385, "pitch": 66, "duration": 9, "velocity": 78}, {"time": 3394, "pitch": 59, "duration": 2, "velocity": 84}, {"time": 3397, "pitch": 47, "duration": 14, "velocity": 83}, {"time": 3397, "pitch": 59, "duration": 4, "velocity": 82}, {"time": 3397, "pitch": 62, "duration": 4, "velocity": 84}, {"time": 3403, "pitch": 59, "duration": 4, "velocity": 84}, {"time": 3403, "pitch": 62, "duration": 4, "velocity": 83}, {"time": 3409, "pitch": 59, "duration": 2, "velocity": 84}, {"time": 3409, "pitch": 62, "duration": 7, "velocity": 85}, {"time": 3409, "pitch": 66, "duration": 7, "velocity": 84}, {"time": 3415, "pitch": 59, "duration": 2, "velocity": 77}, {"time": 3421, "pitch": 45, "duration": 15, "velocity": 84}, {"time": 3421, "pitch": 57, "duration": 9, "velocity": 84}, {"time": 3421, "pitch": 60, "duration": 9, "velocity": 84}, {"time": 3427, "pitch": 52, "duration": 13, "velocity": 73}, {"time": 3433, "pitch": 57, "duration": 6, "velocity": 86}, {"time": 3433, "pitch": 60, "duration": 7, "velocity": 92}, {"time": 3439, "pitch": 45, "duration": 5, "velocity": 73}, {"time": 3442, "pitch": 57, "duration": 2, "velocity": 83}, {"time": 3445, "pitch": 50, "duration": 13, "velocity": 89}, {"time": 3445, "pitch": 57, "duration": 3, "velocity": 81}, {"time": 3445, "pitch": 62, "duration": 4, "velocity": 87}, {"time": 3451, "pitch": 57, "duration": 4, "velocity": 79}, {"time": 3457, "pitch": 62, "duration": 6, "velocity": 85}, {"time": 3457, "pitch": 66, "duration": 6, "velocity": 88}, {"time": 3463, "pitch": 57, "duration": 3, "velocity": 83}, {"time": 3469, "pitch": 43, "duration": 24, "velocity": 84}, {"time": 3469, "pitch": 55, "duration": 8, "velocity": 80}, {"time": 3469, "pitch": 59, "duration": 7, "velocity": 79}, {"time": 3475, "pitch": 50, "duration": 18, "velocity": 70}, {"time": 3481, "pitch": 55, "duration": 4, "velocity": 84}, {"time": 3481, "pitch": 59, "duration": 6, "velocity": 89}, {"time": 3481, "pitch": 62, "duration": 6, "velocity": 85}, {"time": 3490, "pitch": 55, "duration": 2, "velocity": 78}, {"time": 3493, "pitch": 43, "duration": 15, "velocity": 78}, {"time": 3493, "pitch": 55, "duration": 4, "velocity": 83}, {"time": 3493, "pitch": 59, "duration": 4, "velocity": 80}, {"time": 3499, "pitch": 55, "duration": 4, "velocity": 85}, {"time": 3499, "pitch": 59, "duration": 4, "velocity": 84}, {"time": 3505, "pitch": 55, "duration": 3, "velocity": 85}, {"time": 3505, "pitch": 59, "duration": 6, "velocity": 85}, {"time": 3505, "pitch": 62, "duration": 8, "velocity": 84}, {"time": 3511, "pitch": 55, "duration": 2, "velocity": 78}, {"time": 3517, "pitch": 42, "duration": 14, "velocity": 83}, {"time": 3517, "pitch": 57, "duration": 9, "velocity": 78}, {"time": 3517, "pitch": 61, "duration": 9, "velocity": 79}, {"time": 3523, "pitch": 49, "duration": 8, "velocity": 68}, {"time": 3529, "pitch": 57, "duration": 4, "velocity": 87}, {"time": 3529, "pitch": 61, "duration": 10, "velocity": 92}, {"time": 3529, "pitch": 66, "duration": 11, "velocity": 84}, {"time": 3538, "pitch": 57, "duration": 2, "velocity": 83}, {"time": 3541, "pitch": 47, "duration": 18, "velocity": 84}, {"time": 3541, "pitch": 59, "duration": 4, "velocity": 83}, {"time": 3541, "pitch": 62, "duration": 4, "velocity": 83}, {"time": 3547, "pitch": 59, "duration": 4, "velocity": 83}, {"time": 3547, "pitch": 62, "duration": 4, "velocity": 83}, {"time": 3553, "pitch": 54, "duration": 5, "velocity": 78}, {"time": 3553, "pitch": 59, "duration": 4, "velocity": 84}, {"time": 3553, "pitch": 62, "duration": 7, "velocity": 85}, {"time": 3553, "pitch": 66, "duration": 8, "velocity": 85}, {"time": 3559, "pitch": 59, "duration": 3, "velocity": 76}, {"time": 3565, "pitch": 52, "duration": 21, "velocity": 89}, {"time": 3565, "pitch": 59, "duration": 4, "velocity": 82}, {"time": 3565, "pitch": 64, "duration": 9, "velocity": 84}, {"time": 3571, "pitch": 59, "duration": 4, "velocity": 81}, {"time": 3577, "pitch": 59, "duration": 4, "velocity": 85}, {"time": 3577, "pitch": 64, "duration": 10, "velocity": 94}, {"time": 3577, "pitch": 67, "duration": 10, "velocity": 87}, {"time": 3586, "pitch": 59, "duration": 2, "velocity": 78}, {"time": 3589, "pitch": 40, "duration": 10, "velocity": 86}, {"time": 3589, "pitch": 59, "duration": 3, "velocity": 84}, {"time": 3589, "pitch": 64, "duration": 4, "velocity": 87}, {"time": 3595, "pitch": 59, "duration": 4, "velocity": 84}, {"time": 3595, "pitch": 64, "duration": 4, "velocity": 87}, {"time": 3601, "pitch": 59, "duration": 2, "velocity": 84}, {"time": 3601, "pitch": 64, "duration": 4, "velocity": 87}, {"time": 3601, "pitch": 67, "duration": 6, "velocity": 84}, {"time": 3607, "pitch": 59, "duration": 2, "velocity": 83}, {"time": 3613, "pitch": 45, "duration": 3, "velocity": 83}, {"time": 3613, "pitch": 57, "duration": 3, "velocity": 79}, {"time": 3613, "pitch": 61, "duration": 3, "velocity": 73}, {"time": 3613, "pitch": 64, "duration": 3, "velocity": 80}, {"time": 3619, "pitch": 45, "duration": 3, "velocity": 78}, {"time": 3619, "pitch": 57, "duration": 3, "velocity": 76}, {"time": 3619, "pitch": 61, "duration": 3, "velocity": 75}, {"time": 3619, "pitch": 64, "duration": 3, "velocity": 83}, {"time": 3625, "pitch": 45, "duration": 3, "velocity": 80}, {"time": 3625, "pitch": 57, "duration": 2, "velocity": 73}, {"time": 3625, "pitch": 61, "duration": 2, "velocity": 74}, {"time": 3625, "pitch": 64, "duration": 2, "velocity": 80}, {"time": 3631, "pitch": 45, "duration": 3, "velocity": 79}, {"time": 3631, "pitch": 57, "duration": 2, "velocity": 75}, {"time": 3631, "pitch": 61, "duration": 2, "velocity": 75}, {"time": 3631, "pitch": 64, "duration": 3, "velocity": 83}, {"time": 3637, "pitch": 45, "duration": 3, "velocity": 84}, {"time": 3637, "pitch": 57, "duration": 3, "velocity": 78}, {"time": 3637, "pitch": 61, "duration": 3, "velocity": 79}, {"time": 3637, "pitch": 64, "duration": 3, "velocity": 84}, {"time": 3643, "pitch": 45, "duration": 3, "velocity": 83}, {"time": 3643, "pitch": 57, "duration": 2, "velocity": 82}, {"time": 3643, "pitch": 61, "duration": 2, "velocity": 83}, {"time": 3643, "pitch": 64, "duration": 2, "velocity": 85}, {"time": 3649, "pitch": 45, "duration": 3, "velocity": 84}, {"time": 3649, "pitch": 57, "duration": 3, "velocity": 83}, {"time": 3649, "pitch": 61, "duration": 3, "velocity": 85}, {"time": 3649, "pitch": 64, "duration": 3, "velocity": 85}, {"time": 3655, "pitch": 45, "duration": 4, "velocity": 83}, {"time": 3655, "pitch": 57, "duration": 3, "velocity": 78}, {"time": 3655, "pitch": 61, "duration": 3, "velocity": 81}, {"time": 3655, "pitch": 64, "duration": 3, "velocity": 84}, {"time": 3661, "pitch": 43, "duration": 17, "velocity": 83}, {"time": 3661, "pitch": 55, "duration": 9, "velocity": 83}, {"time": 3661, "pitch": 62, "duration": 8, "velocity": 83}, {"time": 3667, "pitch": 50, "duration": 9, "velocity": 73}, {"time": 3673, "pitch": 55, "duration": 4, "velocity": 84}, {"time": 3673, "pitch": 59, "duration": 7, "velocity": 85}, {"time": 3673, "pitch": 62, "duration": 10, "velocity": 85}, {"time": 3682, "pitch": 55, "duration": 6, "velocity": 83}, {"time": 3682, "pitch": 59, "duration": 2, "velocity": 49}, {"time": 3685, "pitch": 43, "duration": 15, "velocity": 84}, {"time": 3691, "pitch": 55, "duration": 3, "velocity": 84}, {"time": 3697, "pitch": 55, "duration": 3, "velocity": 89}, {"time": 3697, "pitch": 59, "duration": 4, "velocity": 92}, {"time": 3709, "pitch": 42, "duration": 12, "velocity": 87}, {"time": 3709, "pitch": 57, "duration": 8, "velocity": 83}, {"time": 3709, "pitch": 61, "duration": 9, "velocity": 80}, {"time": 3715, "pitch": 49, "duration": 6, "velocity": 51}, {"time": 3721, "pitch": 57, "duration": 3, "velocity": 85}, {"time": 3721, "pitch": 61, "duration": 6, "velocity": 89}, {"time": 3730, "pitch": 57, "duration": 2, "velocity": 79}, {"time": 3733, "pitch": 47, "duration": 18, "velocity": 89}, {"time": 3739, "pitch": 59, "duration": 4, "velocity": 81}, {"time": 3745, "pitch": 59, "duration": 3, "velocity": 87}, {"time": 3745, "pitch": 62, "duration": 4, "velocity": 86}, {"time": 3745, "pitch": 66, "duration": 6, "velocity": 84}, {"time": 3751, "pitch": 59, "duration": 2, "velocity": 84}, {"time": 3757, "pitch": 43, "duration": 22, "velocity": 83}, {"time": 3757, "pitch": 55, "duration": 9, "velocity": 82}, {"time": 3757, "pitch": 59, "duration": 8, "velocity": 80}, {"time": 3763, "pitch": 50, "duration": 9, "velocity": 62}, {"time": 3769, "pitch": 55, "duration": 4, "velocity": 85}, {"time": 3769, "pitch": 59, "duration": 6, "velocity": 87}, {"time": 3769, "pitch": 62, "duration": 6, "velocity": 87}, {"time": 3775, "pitch": 50, "duration": 4, "velocity": 40}, {"time": 3778, "pitch": 55, "duration": 5, "velocity": 83}, {"time": 3778, "pitch": 59, "duration": 2, "velocity": 52}, {"time": 3781, "pitch": 43, "duration": 16, "velocity": 83}, {"time": 3787, "pitch": 55, "duration": 3, "velocity": 84}, {"time": 3793, "pitch": 55, "duration": 3, "velocity": 88}, {"time": 3793, "pitch": 59, "duration": 6, "velocity": 89}, {"time": 3799, "pitch": 55, "duration": 2, "velocity": 77}, {"time": 3805, "pitch": 42, "duration": 13, "velocity": 89}, {"time": 3805, "pitch": 57, "duration": 5, "velocity": 83}, {"time": 3805, "pitch": 61, "duration": 8, "velocity": 79}, {"time": 3811, "pitch": 49, "duration": 7, "velocity": 61}, {"time": 3817, "pitch": 57, "duration": 4, "velocity": 83}, {"time": 3817, "pitch": 61, "duration": 6, "velocity": 83}, {"time": 3817, "pitch": 66, "duration": 12, "velocity": 79}, {"time": 3826, "pitch": 57, "duration": 2, "velocity": 79}, {"time": 3829, "pitch": 47, "duration": 10, "velocity": 85}, {"time": 3829, "pitch": 59, "duration": 3, "velocity": 83}, {"time": 3829, "pitch": 62, "duration": 3, "velocity": 85}, {"time": 3835, "pitch": 59, "duration": 3, "velocity": 82}, {"time": 3835, "pitch": 62, "duration": 3, "velocity": 82}, {"time": 3841, "pitch": 45, "duration": 13, "velocity": 84}, {"time": 3841, "pitch": 57, "duration": 6, "velocity": 85}, {"time": 3841, "pitch": 61, "duration": 8, "velocity": 82}, {"time": 3847, "pitch": 52, "duration": 7, "velocity": 78}, {"time": 3853, "pitch": 43, "duration": 17, "velocity": 83}, {"time": 3853, "pitch": 55, "duration": 9, "velocity": 83}, {"time": 3853, "pitch": 62, "duration": 8, "velocity": 83}, {"time": 3859, "pitch": 50, "duration": 9, "velocity": 73}, {"time": 3865, "pitch": 55, "duration": 4, "velocity": 84}, {"time": 3865, "pitch": 59, "duration": 7, "velocity": 85}, {"time": 3865, "pitch": 62, "duration": 10, "velocity": 85}, {"time": 3874, "pitch": 55, "duration": 6, "velocity": 83}, {"time": 3874, "pitch": 59, "duration": 2, "velocity": 49}, {"time": 3877, "pitch": 43, "duration": 15, "velocity": 84}, {"time": 3883, "pitch": 55, "duration": 3, "velocity": 84}, {"time": 3889, "pitch": 55, "duration": 3, "velocity": 89}, {"time": 3889, "pitch": 59, "duration": 4, "velocity": 92}, {"time": 3901, "pitch": 42, "duration": 12, "velocity": 87}, {"time": 3901, "pitch": 57, "duration": 8, "velocity": 83}, {"time": 3901, "pitch": 61, "duration": 9, "velocity": 80}, {"time": 3907, "pitch": 49, "duration": 6, "velocity": 51}, {"time": 3913, "pitch": 57, "duration": 3, "velocity": 85}, {"time": 3913, "pitch": 61, "duration": 6, "velocity": 89}, {"time": 3922, "pitch": 57, "duration": 2, "velocity": 79}, {"time": 3925, "pitch": 41, "duration": 15, "velocity": 84}, {"time": 3925, "pitch": 60, "duration": 4, "velocity": 86}, {"time": 3925, "pitch": 65, "duration": 7, "velocity": 85}, {"time": 3931, "pitch": 48, "duration": 7, "velocity": 70}, {"time": 3931, "pitch": 60, "duration": 3, "velocity": 71}, {"time": 3937, "pitch": 60, "duration": 3, "velocity": 87}, {"time": 3937, "pitch": 65, "duration": 4, "velocity": 90}, {"time": 3937, "pitch": 69, "duration": 5, "velocity": 86}, {"time": 3943, "pitch": 60, "duration": 2, "velocity": 82}, {"time": 3943, "pitch": 65, "duration": 2, "velocity": 68}, {"time": 3949, "pitch": 52, "duration": 7, "velocity": 92}, {"time": 3949, "pitch": 64, "duration": 7, "velocity": 83}, {"time": 3949, "pitch": 67, "duration": 8, "velocity": 82}, {"time": 3955, "pitch": 59, "duration": 2, "velocity": 73}, {"time": 3961, "pitch": 40, "duration": 6, "velocity": 78}, {"time": 3961, "pitch": 64, "duration": 3, "velocity": 83}, {"time": 3961, "pitch": 67, "duration": 7, "velocity": 78}, {"time": 3961, "pitch": 71, "duration": 7, "velocity": 84}, {"time": 3967, "pitch": 64, "duration": 2, "velocity": 85}, {"time": 3973, "pitch": 45, "duration": 24, "velocity": 79}, {"time": 3973, "pitch": 57, "duration": 7, "velocity": 76}, {"time": 3973, "pitch": 61, "duration": 7, "velocity": 76}, {"time": 3979, "pitch": 52, "duration": 60, "velocity": 84}, {"time": 3985, "pitch": 57, "duration": 2, "velocity": 83}, {"time": 3985, "pitch": 61, "duration": 2, "velocity": 87}, {"time": 3985, "pitch": 64, "duration": 2, "velocity": 85}, {"time": 3991, "pitch": 57, "duration": 51, "velocity": 84}, {"time": 3997, "pitch": 45, "duration": 43, "velocity": 79}, {"time": 3997, "pitch": 61, "duration": 45, "velocity": 84}, {"time": 3997, "pitch": 64, "duration": 45, "velocity": 86}, {"time": 3997, "pitch": 69, "duration": 46, "velocity": 84}, {"time": 4045, "pitch": 50, "duration": 37, "velocity": 90}, {"time": 4051, "pitch": 57, "duration": 22, "velocity": 83}, {"time": 4057, "pitch": 62, "duration": 21, "velocity": 88}, {"time": 4063, "pitch": 66, "duration": 14, "velocity": 81}, {"time": 4063, "pitch": 69, "duration": 16, "velocity": 79}, {"time": 4075, "pitch": 57, "duration": 7, "velocity": 64}, {"time": 4081, "pitch": 62, "duration": 3, "velocity": 79}, {"time": 4081, "pitch": 66, "duration": 3, "velocity": 81}, {"time": 4081, "pitch": 69, "duration": 3, "velocity": 79}, {"time": 4093, "pitch": 45, "duration": 42, "velocity": 83}, {"time": 4093, "pitch": 57, "duration": 13, "velocity": 75}, {"time": 4093, "pitch": 61, "duration": 14, "velocity": 74}, {"time": 4099, "pitch": 52, "duration": 37, "velocity": 70}, {"time": 4105, "pitch": 64, "duration": 4, "velocity": 82}, {"time": 4111, "pitch": 57, "duration": 16, "velocity": 75}, {"time": 4111, "pitch": 61, "duration": 15, "velocity": 76}, {"time": 4111, "pitch": 64, "duration": 15, "velocity": 78}, {"time": 4111, "pitch": 69, "duration": 16, "velocity": 83}, {"time": 4129, "pitch": 61, "duration": 6, "velocity": 90}, {"time": 4135, "pitch": 57, "duration": 3, "velocity": 79}, {"time": 4141, "pitch": 47, "duration": 39, "velocity": 83}, {"time": 4141, "pitch": 59, "duration": 7, "velocity": 77}, {"time": 4141, "pitch": 62, "duration": 14, "velocity": 83}, {"time": 4147, "pitch": 54, "duration": 31, "velocity": 67}, {"time": 4153, "pitch": 57, "duration": 22, "velocity": 75}, {"time": 4159, "pitch": 62, "duration": 15, "velocity": 83}, {"time": 4159, "pitch": 66, "duration": 17, "velocity": 78}, {"time": 4177, "pitch": 57, "duration": 7, "velocity": 80}, {"time": 4177, "pitch": 62, "duration": 6, "velocity": 83}, {"time": 4189, "pitch": 45, "duration": 23, "velocity": 83}, {"time": 4189, "pitch": 57, "duration": 8, "velocity": 76}, {"time": 4189, "pitch": 60, "duration": 13, "velocity": 77}, {"time": 4195, "pitch": 52, "duration": 13, "velocity": 73}, {"time": 4201, "pitch": 57, "duration": 6, "velocity": 79}, {"time": 4213, "pitch": 50, "duration": 14, "velocity": 84}, {"time": 4213, "pitch": 57, "duration": 5, "velocity": 71}, {"time": 4213, "pitch": 62, "duration": 7, "velocity": 83}, {"time": 4213, "pitch": 66, "duration": 10, "velocity": 77}, {"time": 4225, "pitch": 57, "duration": 5, "velocity": 78}, {"time": 4225, "pitch": 60, "duration": 5, "velocity": 81}, {"time": 4237, "pitch": 43, "duration": 28, "velocity": 84}, {"time": 4237, "pitch": 55, "duration": 8, "velocity": 80}, {"time": 4237, "pitch": 62, "duration": 13, "velocity": 83}, {"time": 4243, "pitch": 50, "duration": 17, "velocity": 75}, {"time": 4249, "pitch": 55, "duration": 4, "velocity": 89}, {"time": 4255, "pitch": 59, "duration": 14, "velocity": 78}, {"time": 4255, "pitch": 62, "duration": 13, "velocity": 84}, {"time": 4267, "pitch": 43, "duration": 6, "velocity": 53}, {"time": 4267, "pitch": 50, "duration": 8, "velocity": 81}, {"time": 4273, "pitch": 55, "duration": 4, "velocity": 85}, {"time": 4273, "pitch": 59, "duration": 6, "velocity": 87}, {"time": 4273, "pitch": 62, "duration": 6, "velocity": 85}, {"time": 4279, "pitch": 43, "duration": 2, "velocity": 84}, {"time": 4285, "pitch": 42, "duration": 11, "velocity": 81}, {"time": 4285, "pitch": 57, "duration": 7, "velocity": 80}, {"time": 4285, "pitch": 61, "duration": 7, "velocity": 79}, {"time": 4291, "pitch": 49, "duration": 6, "velocity": 68}, {"time": 4297, "pitch": 57, "duration": 4, "velocity": 85}, {"time": 4297, "pitch": 61, "duration": 7, "velocity": 90}, {"time": 4297, "pitch": 66, "duration": 10, "velocity": 83}, {"time": 4303, "pitch": 57, "duration": 2, "velocity": 72}, {"time": 4309, "pitch": 47, "duration": 16, "velocity": 84}, {"time": 4309, "pitch": 59, "duration": 8, "velocity": 84}, {"time": 4309, "pitch": 62, "duration": 9, "velocity": 83}, {"time": 4315, "pitch": 54, "duration": 8, "velocity": 70}, {"time": 4321, "pitch": 59, "duration": 4, "velocity": 84}, {"time": 4321, "pitch": 62, "duration": 6, "velocity": 84}, {"time": 4321, "pitch": 66, "duration": 7, "velocity": 84}, {"time": 4333, "pitch": 52, "duration": 34, "velocity": 87}, {"time": 4333, "pitch": 59, "duration": 10, "velocity": 77}, {"time": 4333, "pitch": 64, "duration": 10, "velocity": 83}, {"time": 4345, "pitch": 59, "duration": 4, "velocity": 84}, {"time": 4345, "pitch": 64, "duration": 9, "velocity": 89}, {"time": 4345, "pitch": 67, "duration": 5, "velocity": 84}, {"time": 4354, "pitch": 59, "duration": 2, "velocity": 74}, {"time": 4357, "pitch": 59, "duration": 3, "velocity": 80}, {"time": 4357, "pitch": 64, "duration": 3, "velocity": 84}, {"time": 4363, "pitch": 59, "duration": 7, "velocity": 88}, {"time": 4363, "pitch": 64, "duration": 12, "velocity": 92}, {"time": 4375, "pitch": 59, "duration": 2, "velocity": 72}, {"time": 4381, "pitch": 45, "duration": 3, "velocity": 79}, {"time": 4381, "pitch": 52, "duration": 3, "velocity": 83}, {"time": 4381, "pitch": 57, "duration": 3, "velocity": 75}, {"time": 4381, "pitch": 61, "duration": 3, "velocity": 69}, {"time": 4381, "pitch": 64, "duration": 3, "velocity": 82}, {"time": 4387, "pitch": 45, "duration": 3, "velocity": 74}, {"time": 4387, "pitch": 52, "duration": 3, "velocity": 76}, {"time": 4387, "pitch": 57, "duration": 3, "velocity": 64}, {"time": 4387, "pitch": 61, "duration": 2, "velocity": 56}, {"time": 4387, "pitch": 64, "duration": 2, "velocity": 73}, {"time": 4393, "pitch": 45, "duration": 3, "velocity": 73}, {"time": 4393, "pitch": 52, "duration": 3, "velocity": 77}, {"time": 4393, "pitch": 57, "duration": 3, "velocity": 72}, {"time": 4393, "pitch": 61, "duration": 3, "velocity": 72}, {"time": 4393, "pitch": 64, "duration": 2, "velocity": 78}, {"time": 4399, "pitch": 45, "duration": 3, "velocity": 79}, {"time": 4399, "pitch": 52, "duration": 3, "velocity": 79}, {"time": 4399, "pitch": 57, "duration": 2, "velocity": 71}, {"time": 4399, "pitch": 61, "duration": 3, "velocity": 70}, {"time": 4399, "pitch": 64, "duration": 3, "velocity": 79}, {"time": 4405, "pitch": 45, "duration": 3, "velocity": 83}, {"time": 4405, "pitch": 52, "duration": 2, "velocity": 85}, {"time": 4405, "pitch": 57, "duration": 2, "velocity": 78}, {"time": 4405, "pitch": 61, "duration": 3, "velocity": 79}, {"time": 4405, "pitch": 64, "duration": 2, "velocity": 84}, {"time": 4411, "pitch": 45, "duration": 3, "velocity": 83}, {"time": 4411, "pitch": 52, "duration": 2, "velocity": 84}, {"time": 4411, "pitch": 57, "duration": 2, "velocity": 78}, {"time": 4411, "pitch": 61, "duration": 2, "velocity": 78}, {"time": 4411, "pitch": 64, "duration": 2, "velocity": 84}, {"time": 4417, "pitch": 45, "duration": 5, "velocity": 83}, {"time": 4417, "pitch": 52, "duration": 4, "velocity": 87}, {"time": 4417, "pitch": 57, "duration": 4, "velocity": 83}, {"time": 4417, "pitch": 61, "duration": 4, "velocity": 84}, {"time": 4417, "pitch": 64, "duration": 4, "velocity": 85}, {"time": 4423, "pitch": 45, "duration": 2, "velocity": 79}, {"time": 4423, "pitch": 52, "duration": 2, "velocity": 83}, {"time": 4423, "pitch": 57, "duration": 2, "velocity": 78}, {"time": 4423, "pitch": 61, "duration": 2, "velocity": 81}, {"time": 4423, "pitch": 64, "duration": 2, "velocity": 84}, {"time": 4429, "pitch": 38, "duration": 12, "velocity": 86}, {"time": 4429, "pitch": 57, "duration": 5, "velocity": 80}, {"time": 4429, "pitch": 62, "duration": 7, "velocity": 83}, {"time": 4441, "pitch": 57, "duration": 2, "velocity": 83}, {"time": 4441, "pitch": 62, "duration": 10, "velocity": 89}, {"time": 4441, "pitch": 66, "duration": 10, "velocity": 90}, {"time": 4450, "pitch": 57, "duration": 2, "velocity": 83}, {"time": 4453, "pitch": 50, "duration": 15, "velocity": 85}, {"time": 4453, "pitch": 57, "duration": 3, "velocity": 79}, {"time": 4453, "pitch": 62, "duration": 3, "velocity": 84}, {"time": 4459, "pitch": 57, "duration": 4, "velocity": 80}, {"time": 4459, "pitch": 62, "duration": 4, "velocity": 84}, {"time": 4465, "pitch": 57, "duration": 2, "velocity": 83}, {"time": 4465, "pitch": 62, "duration": 6, "velocity": 88}, {"time": 4465, "pitch": 66, "duration": 6, "velocity": 90}, {"time": 4471, "pitch": 57, "duration": 4, "velocity": 78}, {"time": 4477, "pitch": 45, "duration": 41, "velocity": 84}, {"time": 4477, "pitch": 57, "duration": 9, "velocity": 79}, {"time": 4477, "pitch": 61, "duration": 9, "velocity": 79}, {"time": 4489, "pitch": 57, "duration": 4, "velocity": 85}, {"time": 4489, "pitch": 61, "duration": 5, "velocity": 90}, {"time": 4489, "pitch": 64, "duration": 5, "velocity": 90}, {"time": 4495, "pitch": 52, "duration": 23, "velocity": 72}, {"time": 4498, "pitch": 57, "duration": 3, "velocity": 87}, {"time": 4501, "pitch": 57, "duration": 2, "velocity": 72}, {"time": 4501, "pitch": 61, "duration": 4, "velocity": 90}, {"time": 4501, "pitch": 64, "duration": 4, "velocity": 89}, {"time": 4501, "pitch": 69, "duration": 4, "velocity": 84}, {"time": 4507, "pitch": 57, "duration": 4, "velocity": 82}, {"time": 4513, "pitch": 57, "duration": 3, "velocity": 88}, {"time": 4513, "pitch": 61, "duration": 6, "velocity": 90}, {"time": 4513, "pitch": 64, "duration": 7, "velocity": 89}, {"time": 4519, "pitch": 57, "duration": 3, "velocity": 87}, {"time": 4525, "pitch": 47, "duration": 22, "velocity": 83}, {"time": 4525, "pitch": 59, "duration": 7, "velocity": 79}, {"time": 4525, "pitch": 62, "duration": 7, "velocity": 83}, {"time": 4531, "pitch": 54, "duration": 16, "velocity": 74}, {"time": 4537, "pitch": 59, "duration": 5, "velocity": 84}, {"time": 4537, "pitch": 62, "duration": 9, "velocity": 84}, {"time": 4537, "pitch": 66, "duration": 9, "velocity": 78}, {"time": 4546, "pitch": 59, "duration": 2, "velocity": 84}, {"time": 4549, "pitch": 47, "duration": 14, "velocity": 83}, {"time": 4549, "pitch": 59, "duration": 4, "velocity": 82}, {"time": 4549, "pitch": 62, "duration": 4, "velocity": 84}, {"time": 4555, "pitch": 59, "duration": 4, "velocity": 84}, {"time": 4555, "pitch": 62, "duration": 4, "velocity": 83}, {"time": 4561, "pitch": 59, "duration": 2, "velocity": 84}, {"time": 4561, "pitch": 62, "duration": 7, "velocity": 85}, {"time": 4561, "pitch": 66, "duration": 7, "velocity": 84}, {"time": 4567, "pitch": 59, "duration": 2, "velocity": 77}, {"time": 4573, "pitch": 45, "duration": 15, "velocity": 84}, {"time": 4573, "pitch": 57, "duration": 9, "velocity": 84}, {"time": 4573, "pitch": 60, "duration": 9, "velocity": 84}, {"time": 4579, "pitch": 52, "duration": 13, "velocity": 73}, {"time": 4585, "pitch": 57, "duration": 6, "velocity": 86}, {"time": 4585, "pitch": 60, "duration": 7, "velocity": 92}, {"time": 4591, "pitch": 45, "duration": 5, "velocity": 73}, {"time": 4594, "pitch": 57, "duration": 2, "velocity": 83}, {"time": 4597, "pitch": 50, "duration": 13, "velocity": 89}, {"time": 4597, "pitch": 57, "duration": 3, "velocity": 81}, {"time": 4597, "pitch": 62, "duration": 4, "velocity": 87}, {"time": 4603, "pitch": 57, "duration": 4, "velocity": 79}, {"time": 4609, "pitch": 62, "duration": 6, "velocity": 85}, {"time": 4609, "pitch": 66, "duration": 6, "velocity": 88}, {"time": 4615, "pitch": 57, "duration": 3, "velocity": 83}, {"time": 4621, "pitch": 43, "duration": 24, "velocity": 84}, {"time": 4621, "pitch": 55, "duration": 8, "velocity": 80}, {"time": 4621, "pitch": 59, "duration": 7, "velocity": 79}, {"time": 4627, "pitch": 50, "duration": 18, "velocity": 70}, {"time": 4633, "pitch": 55, "duration": 4, "velocity": 84}, {"time": 4633, "pitch": 59, "duration": 6, "velocity": 89}, {"time": 4633, "pitch": 62, "duration": 6, "velocity": 85}, {"time": 4642, "pitch": 55, "duration": 2, "velocity": 78}, {"time": 4645, "pitch": 43, "duration": 15, "velocity": 78}, {"time": 4645, "pitch": 55, "duration": 4, "velocity": 83}, {"time": 4645, "pitch": 59, "duration": 4, "velocity": 80}, {"time": 4651, "pitch": 55, "duration": 4, "velocity": 85}, {"time": 4651, "pitch": 59, "duration": 4, "velocity": 84}, {"time": 4657, "pitch": 55, "duration": 3, "velocity": 85}, {"time": 4657, "pitch": 59, "duration": 6, "velocity": 85}, {"time": 4657, "pitch": 62, "duration": 8, "velocity": 84}, {"time": 4663, "pitch": 55, "duration": 2, "velocity": 78}, {"time": 4669, "pitch": 42, "duration": 14, "velocity": 83}, {"time": 4669, "pitch": 57, "duration": 9, "velocity": 78}, {"time": 4669, "pitch": 61, "duration": 9, "velocity": 79}, {"time": 4675, "pitch": 49, "duration": 8, "velocity": 68}, {"time": 4681, "pitch": 57, "duration": 4, "velocity": 87}, {"time": 4681, "pitch": 61, "duration": 10, "velocity": 92}, {"time": 4681, "pitch": 66, "duration": 11, "velocity": 84}, {"time": 4690, "pitch": 57, "duration": 2, "velocity": 83}, {"time": 4693, "pitch": 47, "duration": 18, "velocity": 84}, {"time": 4693, "pitch": 59, "duration": 4, "velocity": 83}, {"time": 4693, "pitch": 62, "duration": 4, "velocity": 83}, {"time": 4699, "pitch": 59, "duration": 4, "velocity": 83}, {"time": 4699, "pitch": 62, "duration": 4, "velocity": 83}, {"time": 4705, "pitch": 54, "duration": 5, "velocity": 78}, {"time": 4705, "pitch": 59, "duration": 4, "velocity": 84}, {"time": 4705, "pitch": 62, "duration": 7, "velocity": 85}, {"time": 4705, "pitch": 66, "duration": 8, "velocity": 85}, {"time": 4711, "pitch": 59, "duration": 3, "velocity": 76}, {"time": 4717, "pitch": 52, "duration": 21, "velocity": 89}, {"time": 4717, "pitch": 59, "duration": 4, "velocity": 82}, {"time": 4717, "pitch": 64, "duration": 9, "velocity": 84}, {"time": 4723, "pitch": 59, "duration": 4, "velocity": 81}, {"time": 4729, "pitch": 59, "duration": 4, "velocity": 85}, {"time": 4729, "pitch": 64, "duration": 10, "velocity": 94}, {"time": 4729, "pitch": 67, "duration": 10, "velocity": 87}, {"time": 4738, "pitch": 59, "duration": 2, "velocity": 78}, {"time": 4741, "pitch": 40, "duration": 10, "velocity": 86}, {"time": 4741, "pitch": 59, "duration": 3, "velocity": 84}, {"time": 4741, "pitch": 64, "duration": 4, "velocity": 87}, {"time": 4747, "pitch": 59, "duration": 4, "velocity": 84}, {"time": 4747, "pitch": 64, "duration": 4, "velocity": 87}, {"time": 4753, "pitch": 59, "duration": 2, "velocity": 84}, {"time": 4753, "pitch": 64, "duration": 4, "velocity": 87}, {"time": 4753, "pitch": 67, "duration": 6, "velocity": 84}, {"time": 4759, "pitch": 59, "duration": 2, "velocity": 83}, {"time": 4765, "pitch": 45, "duration": 3, "velocity": 83}, {"time": 4765, "pitch": 57, "duration": 3, "velocity": 79}, {"time": 4765, "pitch": 61, "duration": 3, "velocity": 73}, {"time": 4765, "pitch": 64, "duration": 3, "velocity": 80}, {"time": 4771, "pitch": 45, "duration": 3, "velocity": 78}, {"time": 4771, "pitch": 57, "duration": 3, "velocity": 76}, {"time": 4771, "pitch": 61, "duration": 3, "velocity": 75}, {"time": 4771, "pitch": 64, "duration": 3, "velocity": 83}, {"time": 4777, "pitch": 45, "duration": 3, "velocity": 80}, {"time": 4777, "pitch": 57, "duration": 2, "velocity": 73}, {"time": 4777, "pitch": 61, "duration": 2, "velocity": 74}, {"time": 4777, "pitch": 64, "duration": 2, "velocity": 80}, {"time": 4783, "pitch": 45, "duration": 3, "velocity": 79}, {"time": 4783, "pitch": 57, "duration": 2, "velocity": 75}, {"time": 4783, "pitch": 61, "duration": 2, "velocity": 75}, {"time": 4783, "pitch": 64, "duration": 3, "velocity": 83}, {"time": 4789, "pitch": 45, "duration": 3, "velocity": 84}, {"time": 4789, "pitch": 57, "duration": 3, "velocity": 78}, {"time": 4789, "pitch": 61, "duration": 3, "velocity": 79}, {"time": 4789, "pitch": 64, "duration": 3, "velocity": 84}, {"time": 4795, "pitch": 45, "duration": 3, "velocity": 83}, {"time": 4795, "pitch": 57, "duration": 2, "velocity": 82}, {"time": 4795, "pitch": 61, "duration": 2, "velocity": 83}, {"time": 4795, "pitch": 64, "duration": 2, "velocity": 85}, {"time": 4801, "pitch": 45, "duration": 3, "velocity": 84}, {"time": 4801, "pitch": 57, "duration": 3, "velocity": 83}, {"time": 4801, "pitch": 61, "duration": 3, "velocity": 85}, {"time": 4801, "pitch": 64, "duration": 3, "velocity": 85}, {"time": 4807, "pitch": 45, "duration": 4, "velocity": 83}, {"time": 4807, "pitch": 57, "duration": 3, "velocity": 78}, {"time": 4807, "pitch": 61, "duration": 3, "velocity": 81}, {"time": 4807, "pitch": 64, "duration": 3, "velocity": 84}, {"time": 4813, "pitch": 47, "duration": 13, "velocity": 83}, {"time": 4813, "pitch": 59, "duration": 8, "velocity": 83}, {"time": 4813, "pitch": 62, "duration": 8, "velocity": 83}, {"time": 4819, "pitch": 54, "duration": 6, "velocity": 64}, {"time": 4825, "pitch": 59, "duration": 6, "velocity": 84}, {"time": 4825, "pitch": 62, "duration": 5, "velocity": 84}, {"time": 4825, "pitch": 66, "duration": 4, "velocity": 83}, {"time": 4834, "pitch": 59, "duration": 3, "velocity": 75}, {"time": 4834, "pitch": 62, "duration": 4, "velocity": 79}, {"time": 4837, "pitch": 43, "duration": 20, "velocity": 85}, {"time": 4840, "pitch": 50, "duration": 11, "velocity": 79}, {"time": 4843, "pitch": 55, "duration": 5, "velocity": 83}, {"time": 4843, "pitch": 62, "duration": 5, "velocity": 76}, {"time": 4849, "pitch": 55, "duration": 7, "velocity": 85}, {"time": 4849, "pitch": 59, "duration": 7, "velocity": 84}, {"time": 4855, "pitch": 50, "duration": 3, "velocity": 80}, {"time": 4861, "pitch": 50, "duration": 16, "velocity": 86}, {"time": 4861, "pitch": 57, "duration": 6, "velocity": 79}, {"time": 4861, "pitch": 62, "duration": 9, "velocity": 84}, {"time": 4873, "pitch": 57, "duration": 7, "velocity": 85}, {"time": 4873, "pitch": 62, "duration": 6, "velocity": 86}, {"time": 4873, "pitch": 66, "duration": 6, "velocity": 86}, {"time": 4882, "pitch": 57, "duration": 3, "velocity": 79}, {"time": 4882, "pitch": 62, "duration": 2, "velocity": 79}, {"time": 4882, "pitch": 66, "duration": 2, "velocity": 80}, {"time": 4885, "pitch": 45, "duration": 20, "velocity": 84}, {"time": 4888, "pitch": 57, "duration": 4, "velocity": 78}, {"time": 4888, "pitch": 61, "duration": 3, "velocity": 87}, {"time": 4888, "pitch": 64, "duration": 4, "velocity": 85}, {"time": 4891, "pitch": 52, "duration": 8, "velocity": 82}, {"time": 4897, "pitch": 57, "duration": 6, "velocity": 84}, {"time": 4897, "pitch": 61, "duration": 6, "velocity": 89}, {"time": 4903, "pitch": 52, "duration": 4, "velocity": 84}, {"time": 4909, "pitch": 47, "duration": 16, "velocity": 84}, {"time": 4909, "pitch": 59, "duration": 8, "velocity": 82}, {"time": 4909, "pitch": 62, "duration": 8, "velocity": 84}, {"time": 4915, "pitch": 54, "duration": 7, "velocity": 77}, {"time": 4921, "pitch": 59, "duration": 6, "velocity": 85}, {"time": 4921, "pitch": 62, "duration": 6, "velocity": 89}, {"time": 4921, "pitch": 66, "duration": 5, "velocity": 89}, {"time": 4930, "pitch": 59, "duration": 3, "velocity": 84}, {"time": 4930, "pitch": 62, "duration": 2, "velocity": 82}, {"time": 4933, "pitch": 43, "duration": 20, "velocity": 81}, {"time": 4936, "pitch": 55, "duration": 3, "velocity": 81}, {"time": 4936, "pitch": 62, "duration": 2, "velocity": 83}, {"time": 4939, "pitch": 50, "duration": 9, "velocity": 83}, {"time": 4945, "pitch": 55, "duration": 4, "velocity": 85}, {"time": 4945, "pitch": 59, "duration": 5, "velocity": 89}, {"time": 4945, "pitch": 62, "duration": 5, "velocity": 85}, {"time": 4951, "pitch": 50, "duration": 3, "velocity": 80}, {"time": 4957, "pitch": 50, "duration": 22, "velocity": 83}, {"time": 4957, "pitch": 57, "duration": 5, "velocity": 78}, {"time": 4957, "pitch": 62, "duration": 8, "velocity": 83}, {"time": 4969, "pitch": 57, "duration": 6, "velocity": 84}, {"time": 4969, "pitch": 62, "duration": 5, "velocity": 87}, {"time": 4969, "pitch": 66, "duration": 6, "velocity": 85}, {"time": 4978, "pitch": 57, "duration": 3, "velocity": 80}, {"time": 4978, "pitch": 62, "duration": 2, "velocity": 78}, {"time": 4978, "pitch": 66, "duration": 2, "velocity": 70}, {"time": 4981, "pitch": 45, "duration": 24, "velocity": 78}, {"time": 4984, "pitch": 57, "duration": 3, "velocity": 79}, {"time": 4984, "pitch": 61, "duration": 3, "velocity": 83}, {"time": 4984, "pitch": 64, "duration": 3, "velocity": 85}, {"time": 4987, "pitch": 52, "duration": 9, "velocity": 80}, {"time": 4993, "pitch": 57, "duration": 12, "velocity": 84}, {"time": 4993, "pitch": 61, "duration": 12, "velocity": 88}, {"time": 4993, "pitch": 64, "duration": 12, "velocity": 87}, {"time": 4999, "pitch": 52, "duration": 7, "velocity": 83}, {"time": 5005, "pitch": 47, "duration": 13, "velocity": 83}, {"time": 5005, "pitch": 59, "duration": 8, "velocity": 83}, {"time": 5005, "pitch": 62, "duration": 8, "velocity": 83}, {"time": 5011, "pitch": 54, "duration": 6, "velocity": 64}, {"time": 5017, "pitch": 59, "duration": 6, "velocity": 84}, {"time": 5017, "pitch": 62, "duration": 5, "velocity": 84}, {"time": 5017, "pitch": 66, "duration": 4, "velocity": 83}, {"time": 5026, "pitch": 59, "duration": 3, "velocity": 75}, {"time": 5026, "pitch": 62, "duration": 4, "velocity": 79}, {"time": 5029, "pitch": 43, "duration": 20, "velocity": 85}, {"time": 5032, "pitch": 50, "duration": 11, "velocity": 79}, {"time": 5035, "pitch": 55, "duration": 5, "velocity": 83}, {"time": 5035, "pitch": 62, "duration": 5, "velocity": 76}, {"time": 5041, "pitch": 55, "duration": 7, "velocity": 85}, {"time": 5041, "pitch": 59, "duration": 7, "velocity": 84}, {"time": 5047, "pitch": 50, "duration": 3, "velocity": 80}, {"time": 5053, "pitch": 50, "duration": 16, "velocity": 86}, {"time": 5053, "pitch": 57, "duration": 6, "velocity": 79}, {"time": 5053, "pitch": 62, "duration": 9, "velocity": 84}, {"time": 5065, "pitch": 57, "duration": 7, "velocity": 85}, {"time": 5065, "pitch": 62, "duration": 6, "velocity": 86}, {"time": 5065, "pitch": 66, "duration": 6, "velocity": 86}, {"time": 5074, "pitch": 57, "duration": 3, "velocity": 79}, {"time": 5074, "pitch": 62, "duration": 2, "velocity": 79}, {"time": 5074, "pitch": 66, "duration": 2, "velocity": 80}, {"time": 5077, "pitch": 45, "duration": 20, "velocity": 84}, {"time": 5080, "pitch": 57, "duration": 4, "velocity": 78}, {"time": 5080, "pitch": 61, "duration": 3, "velocity": 87}, {"time": 5080, "pitch": 64, "duration": 4, "velocity": 85}, {"time": 5083, "pitch": 52, "duration": 8, "velocity": 82}, {"time": 5089, "pitch": 57, "duration": 6, "velocity": 84}, {"time": 5089, "pitch": 61, "duration": 6, "velocity": 89}, {"time": 5095, "pitch": 52, "duration": 4, "velocity": 84}, {"time": 5101, "pitch": 43, "duration": 14, "velocity": 84}, {"time": 5101, "pitch": 55, "duration": 9, "velocity": 80}, {"time": 5101, "pitch": 62, "duration": 6, "velocity": 79}, {"time": 5107, "pitch": 50, "duration": 8, "velocity": 69}, {"time": 5113, "pitch": 55, "duration": 6, "velocity": 84}, {"time": 5113, "pitch": 59, "duration": 5, "velocity": 85}, {"time": 5113, "pitch": 62, "duration": 5, "velocity": 84}, {"time": 5122, "pitch": 55, "duration": 2, "velocity": 83}, {"time": 5122, "pitch": 59, "duration": 3, "velocity": 80}, {"time": 5125, "pitch": 42, "duration": 20, "velocity": 84}, {"time": 5131, "pitch": 57, "duration": 9, "velocity": 82}, {"time": 5131, "pitch": 61, "duration": 8, "velocity": 85}, {"time": 5137, "pitch": 49, "duration": 7, "velocity": 69}, {"time": 5143, "pitch": 57, "duration": 2, "velocity": 78}, {"time": 5143, "pitch": 61, "duration": 2, "velocity": 80}, {"time": 5143, "pitch": 66, "duration": 3, "velocity": 71}, {"time": 5149, "pitch": 40, "duration": 14, "velocity": 85}, {"time": 5149, "pitch": 59, "duration": 10, "velocity": 77}, {"time": 5149, "pitch": 64, "duration": 9, "velocity": 84}, {"time": 5161, "pitch": 59, "duration": 6, "velocity": 86}, {"time": 5161, "pitch": 64, "duration": 5, "velocity": 92}, {"time": 5161, "pitch": 67, "duration": 5, "velocity": 83}, {"time": 5170, "pitch": 59, "duration": 2, "velocity": 80}, {"time": 5170, "pitch": 64, "duration": 2, "velocity": 82}, {"time": 5173, "pitch": 45, "duration": 25, "velocity": 83}, {"time": 5173, "pitch": 57, "duration": 4, "velocity": 76}, {"time": 5173, "pitch": 61, "duration": 4, "velocity": 81}, {"time": 5173, "pitch": 64, "duration": 4, "velocity": 84}, {"time": 5179, "pitch": 52, "duration": 10, "velocity": 79}, {"time": 5185, "pitch": 57, "duration": 13, "velocity": 84}, {"time": 5185, "pitch": 61, "duration": 13, "velocity": 84}, {"time": 5185, "pitch": 64, "duration": 13, "velocity": 89}, {"time": 5191, "pitch": 52, "duration": 7, "velocity": 83}, {"time": 5193, "pitch": 62, "duration": 3, "velocity": 67}, {"time": 5194, "pitch": 66, "duration": 3, "velocity": 73}, {"time": 5196, "pitch": 69, "duration": 1, "velocity": 72}, {"time": 5196, "pitch": 38, "duration": 49, "velocity": 85}, {"time": 5197, "pitch": 74, "duration": 2, "velocity": 86}, {"time": 5203, "pitch": 69, "duration": 3, "velocity": 78}, {"time": 5208, "pitch": 71, "duration": 2, "velocity": 89}, {"time": 5215, "pitch": 78, "duration": 2, "velocity": 86}], "annotations": [{"time": 207, "annotation": {"number": 64, "value": 127}, "group": "control_change"}, {"time": 208, "annotation": {"number": 64, "value": 0}, "group": "control_change"}, {"time": 208, "annotation": {"number": 64, "value": 127}, "group": "control_change"}, {"time": 226, "annotation": {"number": 64, "value": 0}, "group": "control_change"}, {"time": 232, "annotation": {"number": 64, "value": 127}, "group": "control_change"}, {"time": 250, "annotation": {"number": 64, "value": 0}, "group": "control_change"}, {"time": 265, "annotation": {"number": 64, "value": 127}, "group": "control_change"}, {"time": 275, "annotation": {"number": 64, "value": 0}, "group": "control_change"}, {"time": 289, "annotation": {"number": 64, "value": 127}, "group": "control_change"}, {"time": 301, "annotation": {"number": 64, "value": 0}, "group": "control_change"}, {"time": 314, "annotation": {"number": 64, "value": 127}, "group": "control_change"}, {"time": 325, "annotation": {"number": 64, "value": 0}, "group": "control_change"}, {"time": 333, "annotation": {"number": 64, "value": 127}, "group": "control_change"}, {"time": 347, "annotation": {"number": 64, "value": 0}, "group": "control_change"}, {"time": 351, "annotation": {"number": 64, "value": 127}, "group": "control_change"}, {"time": 372, "annotation": {"number": 64, "value": 0}, "group": "control_change"}, {"time": 380, "annotation": {"number": 64, "value": 127}, "group": "control_change"}, {"time": 394, "annotation": {"number": 64, "value": 0}, "group": "control_change"}, {"time": 398, "annotation": {"number": 64, "value": 0}, "group": "control_change"}, {"time": 398, "annotation": {"number": 64, "value": 127}, "group": "control_change"}, {"time": 418, "annotation": {"number": 64, "value": 0}, "group": "control_change"}, {"time": 421, "annotation": {"number": 64, "value": 127}, "group": "control_change"}, {"time": 442, "annotation": {"number": 64, "value": 0}, "group": "control_change"}, {"time": 446, "annotation": {"number": 64, "value": 127}, "group": "control_change"}, {"time": 467, "annotation": {"number": 64, "value": 0}, "group": "control_change"}, {"time": 469, "annotation": {"number": 64, "value": 127}, "group": "control_change"}, {"time": 490, "annotation": {"number": 64, "value": 0}, "group": "control_change"}, {"time": 493, "annotation": {"number": 64, "value": 127}, "group": "control_change"}, {"time": 515, "annotation": {"number": 64, "value": 0}, "group": "control_change"}, {"time": 517, "annotation": {"number": 64, "value": 127}, "group": "control_change"}, {"time": 539, "annotation": {"number": 64, "value": 0}, "group": "control_change"}, {"time": 542, "annotation": {"number": 64, "value": 127}, "group": "control_change"}, {"time": 563, "annotation": {"number": 64, "value": 0}, "group": "control_change"}, {"time": 566, "annotation": {"number": 64, "value": 127}, "group": "control_change"}, {"time": 585, "annotation": {"number": 64, "value": 0}, "group": "control_change"}, {"time": 590, "annotation": {"number": 64, "value": 0}, "group": "control_change"}, {"time": 590, "annotation": {"number": 64, "value": 127}, "group": "control_change"}, {"time": 610, "annotation": {"number": 64, "value": 0}, "group": "control_change"}, {"time": 613, "annotation": {"number": 64, "value": 127}, "group": "control_change"}, {"time": 634, "annotation": {"number": 64, "value": 0}, "group": "control_change"}, {"time": 638, "annotation": {"number": 64, "value": 127}, "group": "control_change"}, {"time": 659, "annotation": {"number": 64, "value": 0}, "group": "control_change"}, {"time": 661, "annotation": {"number": 64, "value": 127}, "group": "control_change"}, {"time": 682, "annotation": {"number": 64, "value": 0}, "group": "control_change"}, {"time": 685, "annotation": {"number": 64, "value": 127}, "group": "control_change"}, {"time": 706, "annotation": {"number": 64, "value": 0}, "group": "control_change"}, {"time": 709, "annotation": {"number": 64, "value": 127}, "group": "control_change"}, {"time": 732, "annotation": {"number": 64, "value": 0}, "group": "control_change"}, {"time": 735, "annotation": {"number": 64, "value": 127}, "group": "control_change"}, {"time": 754, "annotation": {"number": 64, "value": 0}, "group": "control_change"}, {"time": 757, "annotation": {"number": 64, "value": 127}, "group": "control_change"}, {"time": 779, "annotation": {"number": 64, "value": 0}, "group": "control_change"}, {"time": 782, "annotation": {"number": 64, "value": 127}, "group": "control_change"}, {"time": 803, "annotation": {"number": 64, "value": 0}, "group": "control_change"}, {"time": 805, "annotation": {"number": 64, "value": 127}, "group": "control_change"}, {"time": 828, "annotation": {"number": 64, "value": 0}, "group": "control_change"}, {"time": 831, "annotation": {"number": 64, "value": 127}, "group": "control_change"}, {"time": 850, "annotation": {"number": 64, "value": 0}, "group": "control_change"}, {"time": 853, "annotation": {"number": 64, "value": 127}, "group": "control_change"}, {"time": 875, "annotation": {"number": 64, "value": 0}, "group": "control_change"}, {"time": 877, "annotation": {"number": 64, "value": 127}, "group": "control_change"}, {"time": 900, "annotation": {"number": 64, "value": 0}, "group": "control_change"}, {"time": 902, "annotation": {"number": 64, "value": 127}, "group": "control_change"}, {"time": 923, "annotation": {"number": 64, "value": 0}, "group": "control_change"}, {"time": 927, "annotation": {"number": 64, "value": 127}, "group": "control_change"}, {"time": 947, "annotation": {"number": 64, "value": 0}, "group": "control_change"}, {"time": 950, "annotation": {"number": 64, "value": 127}, "group": "control_change"}, {"time": 972, "annotation": {"number": 64, "value": 0}, "group": "control_change"}, {"time": 974, "annotation": {"number": 64, "value": 127}, "group": "control_change"}, {"time": 995, "annotation": {"number": 64, "value": 0}, "group": "control_change"}, {"time": 997, "annotation": {"number": 64, "value": 127}, "group": "control_change"}, {"time": 1020, "annotation": {"number": 64, "value": 0}, "group": "control_change"}, {"time": 1023, "annotation": {"number": 64, "value": 127}, "group": "control_change"}, {"time": 1042, "annotation": {"number": 64, "value": 0}, "group": "control_change"}, {"time": 1045, "annotation": {"number": 64, "value": 127}, "group": "control_change"}, {"time": 1067, "annotation": {"number": 64, "value": 0}, "group": "control_change"}, {"time": 1069, "annotation": {"number": 64, "value": 127}, "group": "control_change"}, {"time": 1092, "annotation": {"number": 64, "value": 0}, "group": "control_change"}, {"time": 1094, "annotation": {"number": 64, "value": 127}, "group": "control_change"}, {"time": 1115, "annotation": {"number": 64, "value": 0}, "group": "control_change"}, {"time": 1119, "annotation": {"number": 64, "value": 127}, "group": "control_change"}, {"time": 1139, "annotation": {"number": 64, "value": 0}, "group": "control_change"}, {"time": 1142, "annotation": {"number": 64, "value": 127}, "group": "control_change"}, {"time": 1164, "annotation": {"number": 64, "value": 0}, "group": "control_change"}, {"time": 1165, "annotation": {"number": 64, "value": 127}, "group": "control_change"}, {"time": 1188, "annotation": {"number": 64, "value": 0}, "group": "control_change"}, {"time": 1189, "annotation": {"number": 64, "value": 127}, "group": "control_change"}, {"time": 1211, "annotation": {"number": 64, "value": 0}, "group": "control_change"}, {"time": 1216, "annotation": {"number": 64, "value": 127}, "group": "control_change"}, {"time": 1260, "annotation": {"number": 64, "value": 0}, "group": "control_change"}, {"time": 1263, "annotation": {"number": 64, "value": 127}, "group": "control_change"}, {"time": 1306, "annotation": {"number": 64, "value": 0}, "group": "control_change"}, {"time": 1309, "annotation": {"number": 64, "value": 127}, "group": "control_change"}, {"time": 1327, "annotation": {"number": 64, "value": 127}, "group": "control_change"}, {"time": 1330, "annotation": {"number": 64, "value": 0}, "group": "control_change"}, {"time": 1334, "annotation": {"number": 64, "value": 127}, "group": "control_change"}, {"time": 1335, "annotation": {"number": 64, "value": 0}, "group": "control_change"}, {"time": 1349, "annotation": {"number": 64, "value": 127}, "group": "control_change"}, {"time": 1352, "annotation": {"number": 64, "value": 0}, "group": "control_change"}, {"time": 1377, "annotation": {"number": 64, "value": 0}, "group": "control_change"}, {"time": 1380, "annotation": {"number": 64, "value": 127}, "group": "control_change"}, {"time": 1402, "annotation": {"number": 64, "value": 0}, "group": "control_change"}, {"time": 1406, "annotation": {"number": 64, "value": 127}, "group": "control_change"}, {"time": 1426, "annotation": {"number": 64, "value": 0}, "group": "control_change"}, {"time": 1428, "annotation": {"number": 64, "value": 127}, "group": "control_change"}, {"time": 1449, "annotation": {"number": 64, "value": 0}, "group": "control_change"}, {"time": 1454, "annotation": {"number": 64, "value": 127}, "group": "control_change"}, {"time": 1474, "annotation": {"number": 64, "value": 0}, "group": "control_change"}, {"time": 1476, "annotation": {"number": 64, "value": 127}, "group": "control_change"}, {"time": 1497, "annotation": {"number": 64, "value": 0}, "group": "control_change"}, {"time": 1500, "annotation": {"number": 64, "value": 127}, "group": "control_change"}, {"time": 1522, "annotation": {"number": 64, "value": 0}, "group": "control_change"}, {"time": 1525, "annotation": {"number": 64, "value": 127}, "group": "control_change"}, {"time": 1546, "annotation": {"number": 64, "value": 0}, "group": "control_change"}, {"time": 1550, "annotation": {"number": 64, "value": 127}, "group": "control_change"}, {"time": 1572, "annotation": {"number": 64, "value": 0}, "group": "control_change"}, {"time": 1573, "annotation": {"number": 64, "value": 127}, "group": "control_change"}, {"time": 1595, "annotation": {"number": 64, "value": 0}, "group": "control_change"}, {"time": 1598, "annotation": {"number": 64, "value": 127}, "group": "control_change"}, {"time": 1619, "annotation": {"number": 64, "value": 0}, "group": "control_change"}, {"time": 1622, "annotation": {"number": 64, "value": 127}, "group": "control_change"}, {"time": 1644, "annotation": {"number": 64, "value": 0}, "group": "control_change"}, {"time": 1647, "annotation": {"number": 64, "value": 127}, "group": "control_change"}, {"time": 1667, "annotation": {"number": 64, "value": 0}, "group": "control_change"}, {"time": 1669, "annotation": {"number": 64, "value": 127}, "group": "control_change"}, {"time": 1690, "annotation": {"number": 64, "value": 0}, "group": "control_change"}, {"time": 1761, "annotation": {"number": 64, "value": 0}, "group": "control_change"}, {"time": 1764, "annotation": {"number": 64, "value": 127}, "group": "control_change"}, {"time": 1786, "annotation": {"number": 64, "value": 0}, "group": "control_change"}, {"time": 1790, "annotation": {"number": 64, "value": 127}, "group": "control_change"}, {"time": 1810, "annotation": {"number": 64, "value": 0}, "group": "control_change"}, {"time": 1812, "annotation": {"number": 64, "value": 127}, "group": "control_change"}, {"time": 1833, "annotation": {"number": 64, "value": 0}, "group": "control_change"}, {"time": 1838, "annotation": {"number": 64, "value": 127}, "group": "control_change"}, {"time": 1858, "annotation": {"number": 64, "value": 0}, "group": "control_change"}, {"time": 1860, "annotation": {"number": 64, "value": 127}, "group": "control_change"}, {"time": 1881, "annotation": {"number": 64, "value": 0}, "group": "control_change"}, {"time": 1884, "annotation": {"number": 64, "value": 127}, "group": "control_change"}, {"time": 1906, "annotation": {"number": 64, "value": 0}, "group": "control_change"}, {"time": 1909, "annotation": {"number": 64, "value": 127}, "group": "control_change"}, {"time": 1930, "annotation": {"number": 64, "value": 0}, "group": "control_change"}, {"time": 1934, "annotation": {"number": 64, "value": 127}, "group": "control_change"}, {"time": 1956, "annotation": {"number": 64, "value": 0}, "group": "control_change"}, {"time": 1957, "annotation": {"number": 64, "value": 127}, "group": "control_change"}, {"time": 1979, "annotation": {"number": 64, "value": 0}, "group": "control_change"}, {"time": 1982, "annotation": {"number": 64, "value": 127}, "group": "control_change"}, {"time": 2003, "annotation": {"number": 64, "value": 0}, "group": "control_change"}, {"time": 2006, "annotation": {"number": 64, "value": 127}, "group": "control_change"}, {"time": 2028, "annotation": {"number": 64, "value": 0}, "group": "control_change"}, {"time": 2031, "annotation": {"number": 64, "value": 127}, "group": "control_change"}, {"time": 2051, "annotation": {"number": 64, "value": 0}, "group": "control_change"}, {"time": 2053, "annotation": {"number": 64, "value": 127}, "group": "control_change"}, {"time": 2074, "annotation": {"number": 64, "value": 0}, "group": "control_change"}, {"time": 2127, "annotation": {"number": 64, "value": 127}, "group": "control_change"}, {"time": 2127, "annotation": {"number": 64, "value": 0}, "group": "control_change"}, {"time": 2173, "annotation": {"number": 64, "value": 0}, "group": "control_change"}, {"time": 2180, "annotation": {"number": 64, "value": 127}, "group": "control_change"}, {"time": 2221, "annotation": {"number": 64, "value": 0}, "group": "control_change"}, {"time": 2227, "annotation": {"number": 64, "value": 127}, "group": "control_change"}, {"time": 2268, "annotation": {"number": 64, "value": 0}, "group": "control_change"}, {"time": 2275, "annotation": {"number": 64, "value": 127}, "group": "control_change"}, {"time": 2314, "annotation": {"number": 64, "value": 0}, "group": "control_change"}, {"time": 2318, "annotation": {"number": 64, "value": 127}, "group": "control_change"}, {"time": 2318, "annotation": {"number": 64, "value": 0}, "group": "control_change"}, {"time": 2363, "annotation": {"number": 64, "value": 0}, "group": "control_change"}, {"time": 2365, "annotation": {"number": 64, "value": 127}, "group": "control_change"}, {"time": 2388, "annotation": {"number": 64, "value": 0}, "group": "control_change"}, {"time": 2390, "annotation": {"number": 64, "value": 127}, "group": "control_change"}, {"time": 2413, "annotation": {"number": 64, "value": 0}, "group": "control_change"}, {"time": 2419, "annotation": {"number": 64, "value": 127}, "group": "control_change"}, {"time": 2459, "annotation": {"number": 64, "value": 0}, "group": "control_change"}, {"time": 2510, "annotation": {"number": 64, "value": 127}, "group": "control_change"}, {"time": 2531, "annotation": {"number": 64, "value": 0}, "group": "control_change"}, {"time": 2533, "annotation": {"number": 64, "value": 127}, "group": "control_change"}, {"time": 2556, "annotation": {"number": 64, "value": 0}, "group": "control_change"}, {"time": 2559, "annotation": {"number": 64, "value": 127}, "group": "control_change"}, {"time": 2578, "annotation": {"number": 64, "value": 0}, "group": "control_change"}, {"time": 2581, "annotation": {"number": 64, "value": 127}, "group": "control_change"}, {"time": 2603, "annotation": {"number": 64, "value": 0}, "group": "control_change"}, {"time": 2605, "annotation": {"number": 64, "value": 127}, "group": "control_change"}, {"time": 2628, "annotation": {"number": 64, "value": 0}, "group": "control_change"}, {"time": 2630, "annotation": {"number": 64, "value": 127}, "group": "control_change"}, {"time": 2651, "annotation": {"number": 64, "value": 0}, "group": "control_change"}, {"time": 2655, "annotation": {"number": 64, "value": 127}, "group": "control_change"}, {"time": 2675, "annotation": {"number": 64, "value": 0}, "group": "control_change"}, {"time": 2678, "annotation": {"number": 64, "value": 127}, "group": "control_change"}, {"time": 2700, "annotation": {"number": 64, "value": 0}, "group": "control_change"}, {"time": 2701, "annotation": {"number": 64, "value": 127}, "group": "control_change"}, {"time": 2724, "annotation": {"number": 64, "value": 0}, "group": "control_change"}, {"time": 2725, "annotation": {"number": 64, "value": 127}, "group": "control_change"}, {"time": 2747, "annotation": {"number": 64, "value": 0}, "group": "control_change"}, {"time": 2752, "annotation": {"number": 64, "value": 127}, "group": "control_change"}, {"time": 2796, "annotation": {"number": 64, "value": 0}, "group": "control_change"}, {"time": 2799, "annotation": {"number": 64, "value": 127}, "group": "control_change"}, {"time": 2842, "annotation": {"number": 64, "value": 0}, "group": "control_change"}, {"time": 2845, "annotation": {"number": 64, "value": 127}, "group": "control_change"}, {"time": 2863, "annotation": {"number": 64, "value": 127}, "group": "control_change"}, {"time": 2866, "annotation": {"number": 64, "value": 0}, "group": "control_change"}, {"time": 2870, "annotation": {"number": 64, "value": 127}, "group": "control_change"}, {"time": 2871, "annotation": {"number": 64, "value": 0}, "group": "control_change"}, {"time": 2885, "annotation": {"number": 64, "value": 127}, "group": "control_change"}, {"time": 2888, "annotation": {"number": 64, "value": 0}, "group": "control_change"}, {"time": 2913, "annotation": {"number": 64, "value": 0}, "group": "control_change"}, {"time": 2916, "annotation": {"number": 64, "value": 127}, "group": "control_change"}, {"time": 2938, "annotation": {"number": 64, "value": 0}, "group": "control_change"}, {"time": 2942, "annotation": {"number": 64, "value": 127}, "group": "control_change"}, {"time": 2962, "annotation": {"number": 64, "value": 0}, "group": "control_change"}, {"time": 2964, "annotation": {"number": 64, "value": 127}, "group": "control_change"}, {"time": 2985, "annotation": {"number": 64, "value": 0}, "group": "control_change"}, {"time": 2990, "annotation": {"number": 64, "value": 127}, "group": "control_change"}, {"time": 3010, "annotation": {"number": 64, "value": 0}, "group": "control_change"}, {"time": 3012, "annotation": {"number": 64, "value": 127}, "group": "control_change"}, {"time": 3033, "annotation": {"number": 64, "value": 0}, "group": "control_change"}, {"time": 3036, "annotation": {"number": 64, "value": 127}, "group": "control_change"}, {"time": 3058, "annotation": {"number": 64, "value": 0}, "group": "control_change"}, {"time": 3061, "annotation": {"number": 64, "value": 127}, "group": "control_change"}, {"time": 3082, "annotation": {"number": 64, "value": 0}, "group": "control_change"}, {"time": 3086, "annotation": {"number": 64, "value": 127}, "group": "control_change"}, {"time": 3108, "annotation": {"number": 64, "value": 0}, "group": "control_change"}, {"time": 3109, "annotation": {"number": 64, "value": 127}, "group": "control_change"}, {"time": 3131, "annotation": {"number": 64, "value": 0}, "group": "control_change"}, {"time": 3134, "annotation": {"number": 64, "value": 127}, "group": "control_change"}, {"time": 3155, "annotation": {"number": 64, "value": 0}, "group": "control_change"}, {"time": 3158, "annotation": {"number": 64, "value": 127}, "group": "control_change"}, {"time": 3180, "annotation": {"number": 64, "value": 0}, "group": "control_change"}, {"time": 3183, "annotation": {"number": 64, "value": 127}, "group": "control_change"}, {"time": 3203, "annotation": {"number": 64, "value": 0}, "group": "control_change"}, {"time": 3205, "annotation": {"number": 64, "value": 127}, "group": "control_change"}, {"time": 3226, "annotation": {"number": 64, "value": 0}, "group": "control_change"}, {"time": 3297, "annotation": {"number": 64, "value": 0}, "group": "control_change"}, {"time": 3300, "annotation": {"number": 64, "value": 127}, "group": "control_change"}, {"time": 3322, "annotation": {"number": 64, "value": 0}, "group": "control_change"}, {"time": 3326, "annotation": {"number": 64, "value": 127}, "group": "control_change"}, {"time": 3346, "annotation": {"number": 64, "value": 0}, "group": "control_change"}, {"time": 3348, "annotation": {"number": 64, "value": 127}, "group": "control_change"}, {"time": 3369, "annotation": {"number": 64, "value": 0}, "group": "control_change"}, {"time": 3374, "annotation": {"number": 64, "value": 127}, "group": "control_change"}, {"time": 3394, "annotation": {"number": 64, "value": 0}, "group": "control_change"}, {"time": 3396, "annotation": {"number": 64, "value": 127}, "group": "control_change"}, {"time": 3417, "annotation": {"number": 64, "value": 0}, "group": "control_change"}, {"time": 3420, "annotation": {"number": 64, "value": 127}, "group": "control_change"}, {"time": 3442, "annotation": {"number": 64, "value": 0}, "group": "control_change"}, {"time": 3445, "annotation": {"number": 64, "value": 127}, "group": "control_change"}, {"time": 3466, "annotation": {"number": 64, "value": 0}, "group": "control_change"}, {"time": 3470, "annotation": {"number": 64, "value": 127}, "group": "control_change"}, {"time": 3492, "annotation": {"number": 64, "value": 0}, "group": "control_change"}, {"time": 3493, "annotation": {"number": 64, "value": 127}, "group": "control_change"}, {"time": 3515, "annotation": {"number": 64, "value": 0}, "group": "control_change"}, {"time": 3518, "annotation": {"number": 64, "value": 127}, "group": "control_change"}, {"time": 3539, "annotation": {"number": 64, "value": 0}, "group": "control_change"}, {"time": 3542, "annotation": {"number": 64, "value": 127}, "group": "control_change"}, {"time": 3564, "annotation": {"number": 64, "value": 0}, "group": "control_change"}, {"time": 3567, "annotation": {"number": 64, "value": 127}, "group": "control_change"}, {"time": 3587, "annotation": {"number": 64, "value": 0}, "group": "control_change"}, {"time": 3589, "annotation": {"number": 64, "value": 127}, "group": "control_change"}, {"time": 3610, "annotation": {"number": 64, "value": 0}, "group": "control_change"}, {"time": 3666, "annotation": {"number": 64, "value": 127}, "group": "control_change"}, {"time": 3666, "annotation": {"number": 64, "value": 0}, "group": "control_change"}, {"time": 3684, "annotation": {"number": 64, "value": 0}, "group": "control_change"}, {"time": 3686, "annotation": {"number": 64, "value": 127}, "group": "control_change"}, {"time": 3706, "annotation": {"number": 64, "value": 0}, "group": "control_change"}, {"time": 3709, "annotation": {"number": 64, "value": 127}, "group": "control_change"}, {"time": 3730, "annotation": {"number": 64, "value": 0}, "group": "control_change"}, {"time": 3734, "annotation": {"number": 64, "value": 127}, "group": "control_change"}, {"time": 3757, "annotation": {"number": 64, "value": 0}, "group": "control_change"}, {"time": 3761, "annotation": {"number": 64, "value": 127}, "group": "control_change"}, {"time": 3779, "annotation": {"number": 64, "value": 0}, "group": "control_change"}, {"time": 3781, "annotation": {"number": 64, "value": 127}, "group": "control_change"}, {"time": 3802, "annotation": {"number": 64, "value": 0}, "group": "control_change"}, {"time": 3805, "annotation": {"number": 64, "value": 127}, "group": "control_change"}, {"time": 3827, "annotation": {"number": 64, "value": 0}, "group": "control_change"}, {"time": 3829, "annotation": {"number": 64, "value": 127}, "group": "control_change"}, {"time": 3850, "annotation": {"number": 64, "value": 0}, "group": "control_change"}, {"time": 3858, "annotation": {"number": 64, "value": 127}, "group": "control_change"}, {"time": 3858, "annotation": {"number": 64, "value": 0}, "group": "control_change"}, {"time": 3876, "annotation": {"number": 64, "value": 0}, "group": "control_change"}, {"time": 3878, "annotation": {"number": 64, "value": 127}, "group": "control_change"}, {"time": 3898, "annotation": {"number": 64, "value": 0}, "group": "control_change"}, {"time": 3901, "annotation": {"number": 64, "value": 127}, "group": "control_change"}, {"time": 3922, "annotation": {"number": 64, "value": 0}, "group": "control_change"}, {"time": 3927, "annotation": {"number": 64, "value": 127}, "group": "control_change"}, {"time": 3949, "annotation": {"number": 64, "value": 0}, "group": "control_change"}, {"time": 3952, "annotation": {"number": 64, "value": 127}, "group": "control_change"}, {"time": 3974, "annotation": {"number": 64, "value": 0}, "group": "control_change"}, {"time": 3978, "annotation": {"number": 64, "value": 127}, "group": "control_change"}, {"time": 3999, "annotation": {"number": 64, "value": 0}, "group": "control_change"}, {"time": 4046, "annotation": {"number": 64, "value": 127}, "group": "control_change"}, {"time": 4093, "annotation": {"number": 64, "value": 0}, "group": "control_change"}, {"time": 4100, "annotation": {"number": 64, "value": 127}, "group": "control_change"}, {"time": 4139, "annotation": {"number": 64, "value": 0}, "group": "control_change"}, {"time": 4144, "annotation": {"number": 64, "value": 127}, "group": "control_change"}, {"time": 4187, "annotation": {"number": 64, "value": 0}, "group": "control_change"}, {"time": 4190, "annotation": {"number": 64, "value": 127}, "group": "control_change"}, {"time": 4212, "annotation": {"number": 64, "value": 0}, "group": "control_change"}, {"time": 4215, "annotation": {"number": 64, "value": 127}, "group": "control_change"}, {"time": 4232, "annotation": {"number": 64, "value": 0}, "group": "control_change"}, {"time": 4242, "annotation": {"number": 64, "value": 127}, "group": "control_change"}, {"time": 4282, "annotation": {"number": 64, "value": 0}, "group": "control_change"}, {"time": 4286, "annotation": {"number": 64, "value": 127}, "group": "control_change"}, {"time": 4308, "annotation": {"number": 64, "value": 0}, "group": "control_change"}, {"time": 4311, "annotation": {"number": 64, "value": 127}, "group": "control_change"}, {"time": 4332, "annotation": {"number": 64, "value": 0}, "group": "control_change"}, {"time": 4336, "annotation": {"number": 64, "value": 127}, "group": "control_change"}, {"time": 4378, "annotation": {"number": 64, "value": 0}, "group": "control_change"}, {"time": 4449, "annotation": {"number": 64, "value": 0}, "group": "control_change"}, {"time": 4452, "annotation": {"number": 64, "value": 127}, "group": "control_change"}, {"time": 4474, "annotation": {"number": 64, "value": 0}, "group": "control_change"}, {"time": 4478, "annotation": {"number": 64, "value": 127}, "group": "control_change"}, {"time": 4498, "annotation": {"number": 64, "value": 0}, "group": "control_change"}, {"time": 4500, "annotation": {"number": 64, "value": 127}, "group": "control_change"}, {"time": 4521, "annotation": {"number": 64, "value": 0}, "group": "control_change"}, {"time": 4526, "annotation": {"number": 64, "value": 127}, "group": "control_change"}, {"time": 4546, "annotation": {"number": 64, "value": 0}, "group": "control_change"}, {"time": 4548, "annotation": {"number": 64, "value": 127}, "group": "control_change"}, {"time": 4569, "annotation": {"number": 64, "value": 0}, "group": "control_change"}, {"time": 4572, "annotation": {"number": 64, "value": 127}, "group": "control_change"}, {"time": 4594, "annotation": {"number": 64, "value": 0}, "group": "control_change"}, {"time": 4597, "annotation": {"number": 64, "value": 127}, "group": "control_change"}, {"time": 4618, "annotation": {"number": 64, "value": 0}, "group": "control_change"}, {"time": 4622, "annotation": {"number": 64, "value": 127}, "group": "control_change"}, {"time": 4644, "annotation": {"number": 64, "value": 0}, "group": "control_change"}, {"time": 4645, "annotation": {"number": 64, "value": 127}, "group": "control_change"}, {"time": 4667, "annotation": {"number": 64, "value": 0}, "group": "control_change"}, {"time": 4670, "annotation": {"number": 64, "value": 127}, "group": "control_change"}, {"time": 4691, "annotation": {"number": 64, "value": 0}, "group": "control_change"}, {"time": 4694, "annotation": {"number": 64, "value": 127}, "group": "control_change"}, {"time": 4716, "annotation": {"number": 64, "value": 0}, "group": "control_change"}, {"time": 4719, "annotation": {"number": 64, "value": 127}, "group": "control_change"}, {"time": 4739, "annotation": {"number": 64, "value": 0}, "group": "control_change"}, {"time": 4741, "annotation": {"number": 64, "value": 127}, "group": "control_change"}, {"time": 4762, "annotation": {"number": 64, "value": 0}, "group": "control_change"}, {"time": 4814, "annotation": {"number": 64, "value": 0}, "group": "control_change"}, {"time": 4814, "annotation": {"number": 64, "value": 127}, "group": "control_change"}, {"time": 4834, "annotation": {"number": 64, "value": 0}, "group": "control_change"}, {"time": 4837, "annotation": {"number": 64, "value": 127}, "group": "control_change"}, {"time": 4858, "annotation": {"number": 64, "value": 0}, "group": "control_change"}, {"time": 4862, "annotation": {"number": 64, "value": 127}, "group": "control_change"}, {"time": 4883, "annotation": {"number": 64, "value": 0}, "group": "control_change"}, {"time": 4885, "annotation": {"number": 64, "value": 127}, "group": "control_change"}, {"time": 4906, "annotation": {"number": 64, "value": 0}, "group": "control_change"}, {"time": 4909, "annotation": {"number": 64, "value": 127}, "group": "control_change"}, {"time": 4931, "annotation": {"number": 64, "value": 0}, "group": "control_change"}, {"time": 4933, "annotation": {"number": 64, "value": 127}, "group": "control_change"}, {"time": 4955, "annotation": {"number": 64, "value": 0}, "group": "control_change"}, {"time": 4958, "annotation": {"number": 64, "value": 127}, "group": "control_change"}, {"time": 4979, "annotation": {"number": 64, "value": 0}, "group": "control_change"}, {"time": 4982, "annotation": {"number": 64, "value": 127}, "group": "control_change"}, {"time": 5001, "annotation": {"number": 64, "value": 0}, "group": "control_change"}, {"time": 5006, "annotation": {"number": 64, "value": 0}, "group": "control_change"}, {"time": 5006, "annotation": {"number": 64, "value": 127}, "group": "control_change"}, {"time": 5026, "annotation": {"number": 64, "value": 0}, "group": "control_change"}, {"time": 5029, "annotation": {"number": 64, "value": 127}, "group": "control_change"}, {"time": 5050, "annotation": {"number": 64, "value": 0}, "group": "control_change"}, {"time": 5054, "annotation": {"number": 64, "value": 127}, "group": "control_change"}, {"time": 5075, "annotation": {"number": 64, "value": 0}, "group": "control_change"}, {"time": 5077, "annotation": {"number": 64, "value": 127}, "group": "control_change"}, {"time": 5098, "annotation": {"number": 64, "value": 0}, "group": "control_change"}, {"time": 5101, "annotation": {"number": 64, "value": 127}, "group": "control_change"}, {"time": 5122, "annotation": {"number": 64, "value": 0}, "group": "control_change"}, {"time": 5125, "annotation": {"number": 64, "value": 127}, "group": "control_change"}, {"time": 5148, "annotation": {"number": 64, "value": 0}, "group": "control_change"}, {"time": 5151, "annotation": {"number": 64, "value": 127}, "group": "control_change"}, {"time": 5170, "annotation": {"number": 64, "value": 0}, "group": "control_change"}, {"time": 5173, "annotation": {"number": 64, "value": 127}, "group": "control_change"}, {"time": 5195, "annotation": {"number": 64, "value": 0}, "group": "control_change"}, {"time": 5197, "annotation": {"number": 64, "value": 127}, "group": "control_change"}, {"time": 5279, "annotation": {"number": 64, "value": 0}, "group": "control_change"}]}]}