{"metadata": {"schema_version": "0.2", "title": "None", "source_filename": "532.mid", "source_format": "midi"}, "resolution": 12, "tempos": [{"time": 0, "qpm": 65.00013541694878}, {"time": 528, "qpm": 64.60010917418451}, {"time": 600, "qpm": 65.00013541694878}], "time_signatures": [{"time": 0, "numerator": 1, "denominator": 4}], "tracks": [{"program": 4, "is_drum": false, "name": "MELODY", "notes": [{"time": 207, "pitch": 74, "duration": 5, "velocity": 87}, {"time": 213, "pitch": 67, "duration": 5, "velocity": 84}, {"time": 219, "pitch": 67, "duration": 2, "velocity": 85}, {"time": 222, "pitch": 69, "duration": 3, "velocity": 78}, {"time": 225, "pitch": 70, "duration": 3, "velocity": 84}, {"time": 228, "pitch": 74, "duration": 2, "velocity": 89}, {"time": 231, "pitch": 72, "duration": 5, "velocity": 83}, {"time": 237, "pitch": 69, "duration": 5, "velocity": 82}, {"time": 243, "pitch": 65, "duration": 3, "velocity": 82}, {"time": 246, "pitch": 67, "duration": 2, "velocity": 79}, {"time": 249, "pitch": 69, "duration": 2, "velocity": 83}, {"time": 252, "pitch": 72, "duration": 2, "velocity": 83}, {"time": 255, "pitch": 70, "duration": 5, "velocity": 84}, {"time": 261, "pitch": 67, "duration": 5, "velocity": 82}, {"time": 267, "pitch": 67, "duration": 2, "velocity": 83}, {"time": 270, "pitch": 69, "duration": 2, "velocity": 82}, {"time": 273, "pitch": 70, "duration": 3, "velocity": 85}, {"time": 276, "pitch": 67, "duration": 3, "velocity": 82}, {"time": 279, "pitch": 69, "duration": 5, "velocity": 84}, {"time": 285, "pitch": 62, "duration": 4, "velocity": 84}, {"time": 297, "pitch": 60, "duration": 2, "velocity": 83}, {"time": 300, "pitch": 62, "duration": 2, "velocity": 82}, {"time": 303, "pitch": 63, "duration": 5, "velocity": 82}, {"time": 309, "pitch": 70, "duration": 5, "velocity": 83}, {"time": 315, "pitch": 72, "duration": 2, "velocity": 85}, {"time": 318, "pitch": 70, "duration": 3, "velocity": 84}, {"time": 321, "pitch": 69, "duration": 2, "velocity": 85}, {"time": 324, "pitch": 67, "duration": 2, "velocity": 81}, {"time": 327, "pitch": 69, "duration": 5, "velocity": 83}, {"time": 333, "pitch": 65, "duration": 6, "velocity": 84}, {"time": 345, "pitch": 60, "duration": 2, "velocity": 82}, {"time": 348, "pitch": 60, "duration": 3, "velocity": 83}, {"time": 351, "pitch": 63, "duration": 5, "velocity": 83}, {"time": 357, "pitch": 63, "duration": 3, "velocity": 85}, {"time": 360, "pitch": 65, "duration": 4, "velocity": 83}, {"time": 369, "pitch": 60, "duration": 6, "velocity": 83}, {"time": 375, "pitch": 62, "duration": 10, "velocity": 82}, {"time": 399, "pitch": 74, "duration": 5, "velocity": 87}, {"time": 405, "pitch": 67, "duration": 5, "velocity": 84}, {"time": 411, "pitch": 67, "duration": 2, "velocity": 85}, {"time": 414, "pitch": 69, "duration": 3, "velocity": 78}, {"time": 417, "pitch": 70, "duration": 3, "velocity": 84}, {"time": 420, "pitch": 74, "duration": 2, "velocity": 89}, {"time": 423, "pitch": 72, "duration": 5, "velocity": 83}, {"time": 429, "pitch": 69, "duration": 5, "velocity": 82}, {"time": 435, "pitch": 65, "duration": 3, "velocity": 82}, {"time": 438, "pitch": 67, "duration": 2, "velocity": 79}, {"time": 441, "pitch": 69, "duration": 2, "velocity": 83}, {"time": 444, "pitch": 72, "duration": 2, "velocity": 83}, {"time": 447, "pitch": 70, "duration": 5, "velocity": 84}, {"time": 453, "pitch": 67, "duration": 5, "velocity": 82}, {"time": 459, "pitch": 67, "duration": 2, "velocity": 83}, {"time": 462, "pitch": 69, "duration": 2, "velocity": 82}, {"time": 465, "pitch": 70, "duration": 3, "velocity": 85}, {"time": 468, "pitch": 67, "duration": 3, "velocity": 82}, {"time": 471, "pitch": 69, "duration": 5, "velocity": 84}, {"time": 477, "pitch": 62, "duration": 4, "velocity": 84}, {"time": 489, "pitch": 60, "duration": 2, "velocity": 83}, {"time": 492, "pitch": 62, "duration": 2, "velocity": 82}, {"time": 495, "pitch": 63, "duration": 5, "velocity": 82}, {"time": 501, "pitch": 70, "duration": 5, "velocity": 83}, {"time": 507, "pitch": 72, "duration": 2, "velocity": 85}, {"time": 510, "pitch": 70, "duration": 3, "velocity": 84}, {"time": 513, "pitch": 69, "duration": 2, "velocity": 85}, {"time": 516, "pitch": 67, "duration": 2, "velocity": 81}, {"time": 519, "pitch": 69, "duration": 5, "velocity": 83}, {"time": 525, "pitch": 65, "duration": 6, "velocity": 84}, {"time": 537, "pitch": 65, "duration": 2, "velocity": 82}, {"time": 540, "pitch": 65, "duration": 3, "velocity": 83}, {"time": 543, "pitch": 72, "duration": 5, "velocity": 83}, {"time": 549, "pitch": 74, "duration": 3, "velocity": 85}, {"time": 552, "pitch": 75, "duration": 4, "velocity": 83}, {"time": 561, "pitch": 72, "duration": 3, "velocity": 83}, {"time": 564, "pitch": 74, "duration": 15, "velocity": 82}, {"time": 579, "pitch": 74, "duration": 2, "velocity": 88}, {"time": 582, "pitch": 72, "duration": 2, "velocity": 85}, {"time": 585, "pitch": 70, "duration": 3, "velocity": 86}, {"time": 588, "pitch": 69, "duration": 2, "velocity": 85}, {"time": 591, "pitch": 70, "duration": 5, "velocity": 87}, {"time": 597, "pitch": 70, "duration": 2, "velocity": 86}, {"time": 600, "pitch": 70, "duration": 8, "velocity": 89}, {"time": 606, "pitch": 74, "duration": 6, "velocity": 93}, {"time": 615, "pitch": 72, "duration": 9, "velocity": 86}, {"time": 627, "pitch": 74, "duration": 3, "velocity": 89}, {"time": 630, "pitch": 72, "duration": 2, "velocity": 80}, {"time": 633, "pitch": 70, "duration": 3, "velocity": 88}, {"time": 636, "pitch": 69, "duration": 2, "velocity": 85}, {"time": 639, "pitch": 69, "duration": 5, "velocity": 91}, {"time": 645, "pitch": 77, "duration": 5, "velocity": 91}, {"time": 651, "pitch": 77, "duration": 5, "velocity": 84}, {"time": 657, "pitch": 75, "duration": 2, "velocity": 87}, {"time": 660, "pitch": 75, "duration": 5, "velocity": 84}, {"time": 666, "pitch": 74, "duration": 8, "velocity": 93}, {"time": 675, "pitch": 74, "duration": 3, "velocity": 89}, {"time": 678, "pitch": 72, "duration": 2, "velocity": 77}, {"time": 681, "pitch": 70, "duration": 3, "velocity": 87}, {"time": 684, "pitch": 69, "duration": 3, "velocity": 83}, {"time": 687, "pitch": 70, "duration": 5, "velocity": 85}, {"time": 693, "pitch": 70, "duration": 2, "velocity": 88}, {"time": 696, "pitch": 70, "duration": 5, "velocity": 87}, {"time": 702, "pitch": 74, "duration": 9, "velocity": 96}, {"time": 711, "pitch": 72, "duration": 4, "velocity": 86}, {"time": 723, "pitch": 77, "duration": 6, "velocity": 83}, {"time": 729, "pitch": 72, "duration": 5, "velocity": 84}, {"time": 735, "pitch": 75, "duration": 8, "velocity": 86}, {"time": 744, "pitch": 74, "duration": 22, "velocity": 93}, {"time": 771, "pitch": 74, "duration": 5, "velocity": 99}, {"time": 777, "pitch": 74, "duration": 6, "velocity": 84}, {"time": 783, "pitch": 82, "duration": 5, "velocity": 86}, {"time": 789, "pitch": 81, "duration": 4, "velocity": 85}, {"time": 795, "pitch": 81, "duration": 5, "velocity": 86}, {"time": 801, "pitch": 79, "duration": 2, "velocity": 85}, {"time": 804, "pitch": 81, "duration": 9, "velocity": 87}, {"time": 813, "pitch": 74, "duration": 5, "velocity": 96}, {"time": 819, "pitch": 74, "duration": 6, "velocity": 98}, {"time": 825, "pitch": 77, "duration": 5, "velocity": 87}, {"time": 831, "pitch": 79, "duration": 5, "velocity": 83}, {"time": 837, "pitch": 77, "duration": 4, "velocity": 89}, {"time": 843, "pitch": 79, "duration": 4, "velocity": 84}, {"time": 849, "pitch": 70, "duration": 2, "velocity": 82}, {"time": 852, "pitch": 72, "duration": 5, "velocity": 82}, {"time": 858, "pitch": 74, "duration": 11, "velocity": 96}, {"time": 873, "pitch": 72, "duration": 2, "velocity": 87}, {"time": 876, "pitch": 74, "duration": 2, "velocity": 89}, {"time": 879, "pitch": 75, "duration": 3, "velocity": 91}, {"time": 884, "pitch": 75, "duration": 2, "velocity": 89}, {"time": 888, "pitch": 75, "duration": 2, "velocity": 88}, {"time": 892, "pitch": 75, "duration": 3, "velocity": 89}, {"time": 896, "pitch": 74, "duration": 3, "velocity": 98}, {"time": 900, "pitch": 72, "duration": 1, "velocity": 85}, {"time": 903, "pitch": 70, "duration": 4, "velocity": 86}, {"time": 909, "pitch": 72, "duration": 2, "velocity": 84}, {"time": 912, "pitch": 74, "duration": 10, "velocity": 89}, {"time": 924, "pitch": 70, "duration": 2, "velocity": 84}, {"time": 927, "pitch": 79, "duration": 5, "velocity": 86}, {"time": 933, "pitch": 81, "duration": 2, "velocity": 88}, {"time": 936, "pitch": 82, "duration": 9, "velocity": 83}, {"time": 945, "pitch": 79, "duration": 5, "velocity": 84}, {"time": 951, "pitch": 81, "duration": 12, "velocity": 89}, {"time": 963, "pitch": 74, "duration": 5, "velocity": 99}, {"time": 969, "pitch": 74, "duration": 5, "velocity": 98}, {"time": 975, "pitch": 82, "duration": 5, "velocity": 86}, {"time": 981, "pitch": 81, "duration": 4, "velocity": 85}, {"time": 987, "pitch": 81, "duration": 5, "velocity": 86}, {"time": 993, "pitch": 79, "duration": 2, "velocity": 85}, {"time": 996, "pitch": 81, "duration": 9, "velocity": 87}, {"time": 1005, "pitch": 74, "duration": 5, "velocity": 96}, {"time": 1011, "pitch": 74, "duration": 6, "velocity": 98}, {"time": 1017, "pitch": 77, "duration": 5, "velocity": 87}, {"time": 1023, "pitch": 79, "duration": 5, "velocity": 83}, {"time": 1029, "pitch": 77, "duration": 4, "velocity": 89}, {"time": 1035, "pitch": 79, "duration": 4, "velocity": 84}, {"time": 1041, "pitch": 70, "duration": 2, "velocity": 82}, {"time": 1044, "pitch": 72, "duration": 5, "velocity": 82}, {"time": 1050, "pitch": 74, "duration": 11, "velocity": 96}, {"time": 1065, "pitch": 72, "duration": 2, "velocity": 87}, {"time": 1068, "pitch": 74, "duration": 2, "velocity": 89}, {"time": 1071, "pitch": 75, "duration": 3, "velocity": 91}, {"time": 1076, "pitch": 75, "duration": 2, "velocity": 89}, {"time": 1080, "pitch": 75, "duration": 2, "velocity": 88}, {"time": 1084, "pitch": 75, "duration": 3, "velocity": 89}, {"time": 1088, "pitch": 74, "duration": 3, "velocity": 98}, {"time": 1092, "pitch": 72, "duration": 1, "velocity": 85}, {"time": 1095, "pitch": 70, "duration": 4, "velocity": 86}, {"time": 1101, "pitch": 72, "duration": 2, "velocity": 84}, {"time": 1104, "pitch": 74, "duration": 10, "velocity": 89}, {"time": 1116, "pitch": 70, "duration": 2, "velocity": 84}, {"time": 1119, "pitch": 79, "duration": 5, "velocity": 86}, {"time": 1125, "pitch": 81, "duration": 2, "velocity": 88}, {"time": 1128, "pitch": 82, "duration": 9, "velocity": 83}, {"time": 1137, "pitch": 79, "duration": 5, "velocity": 84}, {"time": 1143, "pitch": 81, "duration": 12, "velocity": 89}, {"time": 1155, "pitch": 79, "duration": 6, "velocity": 88}, {"time": 1161, "pitch": 78, "duration": 12, "velocity": 89}, {"time": 1173, "pitch": 79, "duration": 28, "velocity": 87}, {"time": 1647, "pitch": 74, "duration": 5, "velocity": 87}, {"time": 1653, "pitch": 67, "duration": 5, "velocity": 84}, {"time": 1659, "pitch": 67, "duration": 2, "velocity": 85}, {"time": 1662, "pitch": 69, "duration": 3, "velocity": 78}, {"time": 1665, "pitch": 70, "duration": 3, "velocity": 84}, {"time": 1668, "pitch": 74, "duration": 2, "velocity": 89}, {"time": 1671, "pitch": 72, "duration": 5, "velocity": 83}, {"time": 1677, "pitch": 69, "duration": 5, "velocity": 82}, {"time": 1683, "pitch": 65, "duration": 3, "velocity": 82}, {"time": 1686, "pitch": 67, "duration": 2, "velocity": 79}, {"time": 1689, "pitch": 69, "duration": 2, "velocity": 83}, {"time": 1692, "pitch": 72, "duration": 2, "velocity": 83}, {"time": 1695, "pitch": 70, "duration": 5, "velocity": 84}, {"time": 1701, "pitch": 67, "duration": 5, "velocity": 82}, {"time": 1707, "pitch": 67, "duration": 2, "velocity": 83}, {"time": 1710, "pitch": 69, "duration": 2, "velocity": 82}, {"time": 1713, "pitch": 70, "duration": 3, "velocity": 85}, {"time": 1716, "pitch": 67, "duration": 3, "velocity": 82}, {"time": 1719, "pitch": 69, "duration": 5, "velocity": 84}, {"time": 1725, "pitch": 62, "duration": 4, "velocity": 84}, {"time": 1737, "pitch": 60, "duration": 2, "velocity": 83}, {"time": 1740, "pitch": 62, "duration": 2, "velocity": 82}, {"time": 1743, "pitch": 63, "duration": 5, "velocity": 82}, {"time": 1749, "pitch": 70, "duration": 5, "velocity": 83}, {"time": 1755, "pitch": 72, "duration": 2, "velocity": 85}, {"time": 1758, "pitch": 70, "duration": 3, "velocity": 84}, {"time": 1761, "pitch": 69, "duration": 2, "velocity": 85}, {"time": 1764, "pitch": 67, "duration": 2, "velocity": 81}, {"time": 1767, "pitch": 69, "duration": 5, "velocity": 83}, {"time": 1773, "pitch": 65, "duration": 6, "velocity": 84}, {"time": 1785, "pitch": 60, "duration": 2, "velocity": 82}, {"time": 1788, "pitch": 60, "duration": 3, "velocity": 83}, {"time": 1791, "pitch": 63, "duration": 5, "velocity": 83}, {"time": 1797, "pitch": 63, "duration": 3, "velocity": 85}, {"time": 1800, "pitch": 65, "duration": 4, "velocity": 83}, {"time": 1809, "pitch": 60, "duration": 6, "velocity": 83}, {"time": 1815, "pitch": 62, "duration": 10, "velocity": 82}, {"time": 1839, "pitch": 74, "duration": 5, "velocity": 87}, {"time": 1845, "pitch": 67, "duration": 5, "velocity": 84}, {"time": 1851, "pitch": 67, "duration": 2, "velocity": 85}, {"time": 1854, "pitch": 69, "duration": 3, "velocity": 78}, {"time": 1857, "pitch": 70, "duration": 3, "velocity": 84}, {"time": 1860, "pitch": 74, "duration": 2, "velocity": 89}, {"time": 1863, "pitch": 72, "duration": 5, "velocity": 83}, {"time": 1869, "pitch": 69, "duration": 5, "velocity": 82}, {"time": 1875, "pitch": 65, "duration": 3, "velocity": 82}, {"time": 1878, "pitch": 67, "duration": 2, "velocity": 79}, {"time": 1881, "pitch": 69, "duration": 2, "velocity": 83}, {"time": 1884, "pitch": 72, "duration": 2, "velocity": 83}, {"time": 1887, "pitch": 70, "duration": 5, "velocity": 84}, {"time": 1893, "pitch": 67, "duration": 5, "velocity": 82}, {"time": 1899, "pitch": 67, "duration": 2, "velocity": 83}, {"time": 1902, "pitch": 69, "duration": 2, "velocity": 82}, {"time": 1905, "pitch": 70, "duration": 3, "velocity": 85}, {"time": 1908, "pitch": 67, "duration": 3, "velocity": 82}, {"time": 1911, "pitch": 69, "duration": 5, "velocity": 84}, {"time": 1917, "pitch": 62, "duration": 4, "velocity": 84}, {"time": 1929, "pitch": 60, "duration": 2, "velocity": 83}, {"time": 1932, "pitch": 62, "duration": 2, "velocity": 82}, {"time": 1935, "pitch": 63, "duration": 5, "velocity": 82}, {"time": 1941, "pitch": 70, "duration": 5, "velocity": 83}, {"time": 1947, "pitch": 72, "duration": 2, "velocity": 85}, {"time": 1950, "pitch": 70, "duration": 3, "velocity": 84}, {"time": 1953, "pitch": 69, "duration": 2, "velocity": 85}, {"time": 1956, "pitch": 67, "duration": 2, "velocity": 81}, {"time": 1959, "pitch": 69, "duration": 5, "velocity": 83}, {"time": 1965, "pitch": 65, "duration": 6, "velocity": 84}, {"time": 1977, "pitch": 65, "duration": 2, "velocity": 82}, {"time": 1980, "pitch": 65, "duration": 3, "velocity": 83}, {"time": 1983, "pitch": 72, "duration": 5, "velocity": 83}, {"time": 1989, "pitch": 74, "duration": 3, "velocity": 85}, {"time": 1992, "pitch": 75, "duration": 4, "velocity": 83}, {"time": 2001, "pitch": 72, "duration": 3, "velocity": 83}, {"time": 2004, "pitch": 74, "duration": 15, "velocity": 82}, {"time": 2019, "pitch": 74, "duration": 2, "velocity": 88}, {"time": 2022, "pitch": 72, "duration": 2, "velocity": 85}, {"time": 2025, "pitch": 70, "duration": 3, "velocity": 86}, {"time": 2028, "pitch": 69, "duration": 2, "velocity": 85}, {"time": 2031, "pitch": 70, "duration": 5, "velocity": 87}, {"time": 2037, "pitch": 70, "duration": 2, "velocity": 86}, {"time": 2040, "pitch": 70, "duration": 8, "velocity": 89}, {"time": 2046, "pitch": 74, "duration": 6, "velocity": 93}, {"time": 2055, "pitch": 72, "duration": 9, "velocity": 86}, {"time": 2067, "pitch": 74, "duration": 3, "velocity": 89}, {"time": 2070, "pitch": 72, "duration": 2, "velocity": 80}, {"time": 2073, "pitch": 70, "duration": 3, "velocity": 88}, {"time": 2076, "pitch": 69, "duration": 2, "velocity": 85}, {"time": 2079, "pitch": 69, "duration": 5, "velocity": 91}, {"time": 2085, "pitch": 77, "duration": 5, "velocity": 91}, {"time": 2091, "pitch": 77, "duration": 5, "velocity": 84}, {"time": 2097, "pitch": 75, "duration": 2, "velocity": 87}, {"time": 2100, "pitch": 75, "duration": 5, "velocity": 84}, {"time": 2106, "pitch": 74, "duration": 8, "velocity": 93}, {"time": 2115, "pitch": 74, "duration": 3, "velocity": 89}, {"time": 2118, "pitch": 72, "duration": 2, "velocity": 77}, {"time": 2121, "pitch": 70, "duration": 3, "velocity": 87}, {"time": 2124, "pitch": 69, "duration": 3, "velocity": 83}, {"time": 2127, "pitch": 70, "duration": 5, "velocity": 85}, {"time": 2133, "pitch": 70, "duration": 2, "velocity": 88}, {"time": 2136, "pitch": 70, "duration": 5, "velocity": 87}, {"time": 2142, "pitch": 74, "duration": 9, "velocity": 96}, {"time": 2151, "pitch": 72, "duration": 4, "velocity": 86}, {"time": 2163, "pitch": 77, "duration": 6, "velocity": 83}, {"time": 2169, "pitch": 72, "duration": 5, "velocity": 84}, {"time": 2175, "pitch": 75, "duration": 8, "velocity": 86}, {"time": 2184, "pitch": 74, "duration": 22, "velocity": 93}, {"time": 2211, "pitch": 74, "duration": 5, "velocity": 99}, {"time": 2217, "pitch": 74, "duration": 6, "velocity": 84}, {"time": 2223, "pitch": 82, "duration": 5, "velocity": 86}, {"time": 2229, "pitch": 81, "duration": 4, "velocity": 85}, {"time": 2235, "pitch": 81, "duration": 5, "velocity": 86}, {"time": 2241, "pitch": 79, "duration": 2, "velocity": 85}, {"time": 2244, "pitch": 81, "duration": 9, "velocity": 87}, {"time": 2253, "pitch": 74, "duration": 5, "velocity": 96}, {"time": 2259, "pitch": 74, "duration": 6, "velocity": 98}, {"time": 2265, "pitch": 77, "duration": 5, "velocity": 87}, {"time": 2271, "pitch": 79, "duration": 5, "velocity": 83}, {"time": 2277, "pitch": 77, "duration": 4, "velocity": 89}, {"time": 2283, "pitch": 79, "duration": 4, "velocity": 84}, {"time": 2289, "pitch": 70, "duration": 2, "velocity": 82}, {"time": 2292, "pitch": 72, "duration": 5, "velocity": 82}, {"time": 2298, "pitch": 74, "duration": 11, "velocity": 96}, {"time": 2313, "pitch": 72, "duration": 2, "velocity": 87}, {"time": 2316, "pitch": 74, "duration": 2, "velocity": 89}, {"time": 2319, "pitch": 75, "duration": 3, "velocity": 91}, {"time": 2324, "pitch": 75, "duration": 2, "velocity": 89}, {"time": 2328, "pitch": 75, "duration": 2, "velocity": 88}, {"time": 2332, "pitch": 75, "duration": 3, "velocity": 89}, {"time": 2336, "pitch": 74, "duration": 3, "velocity": 98}, {"time": 2340, "pitch": 72, "duration": 1, "velocity": 85}, {"time": 2343, "pitch": 70, "duration": 4, "velocity": 86}, {"time": 2349, "pitch": 72, "duration": 2, "velocity": 84}, {"time": 2352, "pitch": 74, "duration": 10, "velocity": 89}, {"time": 2364, "pitch": 70, "duration": 2, "velocity": 84}, {"time": 2367, "pitch": 79, "duration": 5, "velocity": 86}, {"time": 2373, "pitch": 81, "duration": 2, "velocity": 88}, {"time": 2376, "pitch": 82, "duration": 9, "velocity": 83}, {"time": 2385, "pitch": 79, "duration": 5, "velocity": 84}, {"time": 2391, "pitch": 81, "duration": 12, "velocity": 89}, {"time": 2403, "pitch": 74, "duration": 5, "velocity": 99}, {"time": 2409, "pitch": 74, "duration": 5, "velocity": 98}, {"time": 2415, "pitch": 82, "duration": 5, "velocity": 86}, {"time": 2421, "pitch": 81, "duration": 4, "velocity": 85}, {"time": 2427, "pitch": 81, "duration": 5, "velocity": 86}, {"time": 2433, "pitch": 79, "duration": 2, "velocity": 85}, {"time": 2436, "pitch": 81, "duration": 9, "velocity": 87}, {"time": 2445, "pitch": 74, "duration": 5, "velocity": 96}, {"time": 2451, "pitch": 74, "duration": 6, "velocity": 98}, {"time": 2457, "pitch": 77, "duration": 5, "velocity": 87}, {"time": 2463, "pitch": 79, "duration": 5, "velocity": 83}, {"time": 2469, "pitch": 77, "duration": 4, "velocity": 89}, {"time": 2475, "pitch": 79, "duration": 4, "velocity": 84}, {"time": 2481, "pitch": 70, "duration": 2, "velocity": 82}, {"time": 2484, "pitch": 72, "duration": 5, "velocity": 82}, {"time": 2490, "pitch": 74, "duration": 11, "velocity": 96}, {"time": 2505, "pitch": 72, "duration": 2, "velocity": 87}, {"time": 2508, "pitch": 74, "duration": 2, "velocity": 89}, {"time": 2511, "pitch": 75, "duration": 3, "velocity": 91}, {"time": 2516, "pitch": 75, "duration": 2, "velocity": 89}, {"time": 2520, "pitch": 75, "duration": 2, "velocity": 88}, {"time": 2524, "pitch": 75, "duration": 3, "velocity": 89}, {"time": 2528, "pitch": 74, "duration": 3, "velocity": 98}, {"time": 2532, "pitch": 72, "duration": 1, "velocity": 85}, {"time": 2535, "pitch": 70, "duration": 4, "velocity": 86}, {"time": 2541, "pitch": 72, "duration": 2, "velocity": 84}, {"time": 2544, "pitch": 74, "duration": 10, "velocity": 89}, {"time": 2556, "pitch": 70, "duration": 2, "velocity": 84}, {"time": 2559, "pitch": 79, "duration": 5, "velocity": 86}, {"time": 2565, "pitch": 81, "duration": 2, "velocity": 88}, {"time": 2568, "pitch": 82, "duration": 9, "velocity": 83}, {"time": 2577, "pitch": 79, "duration": 5, "velocity": 84}, {"time": 2583, "pitch": 81, "duration": 12, "velocity": 89}, {"time": 2595, "pitch": 82, "duration": 5, "velocity": 93}, {"time": 2601, "pitch": 81, "duration": 5, "velocity": 88}, {"time": 2607, "pitch": 79, "duration": 10, "velocity": 89}, {"time": 2619, "pitch": 79, "duration": 3, "velocity": 85}, {"time": 2622, "pitch": 86, "duration": 9, "velocity": 84}, {"time": 2631, "pitch": 81, "duration": 10, "velocity": 88}, {"time": 2643, "pitch": 82, "duration": 4, "velocity": 82}, {"time": 2649, "pitch": 81, "duration": 5, "velocity": 82}, {"time": 2655, "pitch": 79, "duration": 5, "velocity": 85}, {"time": 2661, "pitch": 77, "duration": 4, "velocity": 85}, {"time": 2667, "pitch": 79, "duration": 2, "velocity": 84}, {"time": 2670, "pitch": 77, "duration": 9, "velocity": 86}, {"time": 2679, "pitch": 74, "duration": 11, "velocity": 91}, {"time": 2691, "pitch": 72, "duration": 4, "velocity": 88}, {"time": 2697, "pitch": 74, "duration": 4, "velocity": 89}, {"time": 2703, "pitch": 75, "duration": 11, "velocity": 83}, {"time": 2715, "pitch": 74, "duration": 5, "velocity": 91}, {"time": 2721, "pitch": 72, "duration": 5, "velocity": 84}, {"time": 2727, "pitch": 74, "duration": 10, "velocity": 93}, {"time": 2739, "pitch": 74, "duration": 5, "velocity": 96}, {"time": 2745, "pitch": 74, "duration": 4, "velocity": 93}, {"time": 2751, "pitch": 79, "duration": 5, "velocity": 86}, {"time": 2757, "pitch": 81, "duration": 2, "velocity": 84}, {"time": 2760, "pitch": 82, "duration": 8, "velocity": 83}, {"time": 2769, "pitch": 79, "duration": 2, "velocity": 84}, {"time": 2772, "pitch": 81, "duration": 12, "velocity": 85}, {"time": 2811, "pitch": 74, "duration": 5, "velocity": 99}, {"time": 2817, "pitch": 74, "duration": 6, "velocity": 84}, {"time": 2823, "pitch": 82, "duration": 5, "velocity": 86}, {"time": 2829, "pitch": 81, "duration": 4, "velocity": 85}, {"time": 2835, "pitch": 81, "duration": 5, "velocity": 86}, {"time": 2841, "pitch": 79, "duration": 2, "velocity": 85}, {"time": 2844, "pitch": 81, "duration": 9, "velocity": 87}, {"time": 2853, "pitch": 74, "duration": 5, "velocity": 96}, {"time": 2859, "pitch": 74, "duration": 6, "velocity": 98}, {"time": 2865, "pitch": 77, "duration": 5, "velocity": 87}, {"time": 2871, "pitch": 79, "duration": 5, "velocity": 83}, {"time": 2877, "pitch": 77, "duration": 4, "velocity": 89}, {"time": 2883, "pitch": 79, "duration": 4, "velocity": 84}, {"time": 2889, "pitch": 70, "duration": 2, "velocity": 82}, {"time": 2892, "pitch": 72, "duration": 5, "velocity": 82}, {"time": 2898, "pitch": 74, "duration": 11, "velocity": 96}, {"time": 2913, "pitch": 72, "duration": 2, "velocity": 87}, {"time": 2916, "pitch": 74, "duration": 2, "velocity": 89}, {"time": 2919, "pitch": 75, "duration": 3, "velocity": 91}, {"time": 2924, "pitch": 75, "duration": 2, "velocity": 89}, {"time": 2928, "pitch": 75, "duration": 2, "velocity": 88}, {"time": 2932, "pitch": 75, "duration": 3, "velocity": 89}, {"time": 2936, "pitch": 74, "duration": 3, "velocity": 98}, {"time": 2940, "pitch": 72, "duration": 1, "velocity": 85}, {"time": 2943, "pitch": 70, "duration": 4, "velocity": 86}, {"time": 2949, "pitch": 72, "duration": 2, "velocity": 84}, {"time": 2952, "pitch": 74, "duration": 10, "velocity": 89}, {"time": 2964, "pitch": 70, "duration": 2, "velocity": 84}, {"time": 2967, "pitch": 79, "duration": 5, "velocity": 86}, {"time": 2973, "pitch": 81, "duration": 2, "velocity": 88}, {"time": 2976, "pitch": 82, "duration": 9, "velocity": 83}, {"time": 2985, "pitch": 79, "duration": 5, "velocity": 84}, {"time": 2991, "pitch": 81, "duration": 12, "velocity": 89}, {"time": 3003, "pitch": 74, "duration": 5, "velocity": 99}, {"time": 3009, "pitch": 74, "duration": 5, "velocity": 98}, {"time": 3015, "pitch": 82, "duration": 5, "velocity": 86}, {"time": 3021, "pitch": 81, "duration": 4, "velocity": 85}, {"time": 3027, "pitch": 81, "duration": 5, "velocity": 86}, {"time": 3033, "pitch": 79, "duration": 2, "velocity": 85}, {"time": 3036, "pitch": 81, "duration": 9, "velocity": 87}, {"time": 3045, "pitch": 74, "duration": 5, "velocity": 96}, {"time": 3051, "pitch": 74, "duration": 6, "velocity": 98}, {"time": 3057, "pitch": 77, "duration": 5, "velocity": 87}, {"time": 3063, "pitch": 79, "duration": 5, "velocity": 83}, {"time": 3069, "pitch": 77, "duration": 4, "velocity": 89}, {"time": 3075, "pitch": 79, "duration": 4, "velocity": 84}, {"time": 3081, "pitch": 70, "duration": 2, "velocity": 82}, {"time": 3084, "pitch": 72, "duration": 5, "velocity": 82}, {"time": 3090, "pitch": 74, "duration": 11, "velocity": 96}, {"time": 3105, "pitch": 72, "duration": 2, "velocity": 87}, {"time": 3108, "pitch": 74, "duration": 2, "velocity": 89}, {"time": 3111, "pitch": 75, "duration": 3, "velocity": 91}, {"time": 3116, "pitch": 75, "duration": 2, "velocity": 89}, {"time": 3120, "pitch": 75, "duration": 2, "velocity": 88}, {"time": 3124, "pitch": 75, "duration": 3, "velocity": 89}, {"time": 3128, "pitch": 74, "duration": 3, "velocity": 98}, {"time": 3132, "pitch": 72, "duration": 1, "velocity": 85}, {"time": 3135, "pitch": 70, "duration": 4, "velocity": 86}, {"time": 3141, "pitch": 72, "duration": 2, "velocity": 84}, {"time": 3144, "pitch": 74, "duration": 10, "velocity": 89}, {"time": 3156, "pitch": 70, "duration": 2, "velocity": 84}, {"time": 3159, "pitch": 79, "duration": 5, "velocity": 86}, {"time": 3165, "pitch": 81, "duration": 2, "velocity": 88}, {"time": 3168, "pitch": 82, "duration": 9, "velocity": 83}, {"time": 3177, "pitch": 79, "duration": 5, "velocity": 84}, {"time": 3183, "pitch": 81, "duration": 12, "velocity": 89}, {"time": 3195, "pitch": 79, "duration": 6, "velocity": 88}, {"time": 3201, "pitch": 78, "duration": 12, "velocity": 89}, {"time": 3213, "pitch": 79, "duration": 28, "velocity": 87}]}, {"program": 0, "is_drum": false, "name": "PIANO", "notes": [{"time": 15, "pitch": 43, "duration": 20, "velocity": 82}, {"time": 21, "pitch": 50, "duration": 18, "velocity": 72}, {"time": 27, "pitch": 62, "duration": 8, "velocity": 76}, {"time": 33, "pitch": 55, "duration": 9, "velocity": 74}, {"time": 39, "pitch": 41, "duration": 15, "velocity": 77}, {"time": 45, "pitch": 53, "duration": 7, "velocity": 83}, {"time": 51, "pitch": 60, "duration": 12, "velocity": 75}, {"time": 63, "pitch": 39, "duration": 12, "velocity": 69}, {"time": 63, "pitch": 58, "duration": 13, "velocity": 67}, {"time": 69, "pitch": 46, "duration": 7, "velocity": 63}, {"time": 75, "pitch": 55, "duration": 8, "velocity": 83}, {"time": 81, "pitch": 58, "duration": 6, "velocity": 75}, {"time": 87, "pitch": 38, "duration": 13, "velocity": 77}, {"time": 87, "pitch": 57, "duration": 10, "velocity": 75}, {"time": 93, "pitch": 45, "duration": 7, "velocity": 68}, {"time": 99, "pitch": 62, "duration": 23, "velocity": 82}, {"time": 111, "pitch": 43, "duration": 22, "velocity": 82}, {"time": 114, "pitch": 50, "duration": 19, "velocity": 72}, {"time": 117, "pitch": 55, "duration": 10, "velocity": 79}, {"time": 120, "pitch": 58, "duration": 7, "velocity": 67}, {"time": 123, "pitch": 67, "duration": 4, "velocity": 82}, {"time": 126, "pitch": 62, "duration": 10, "velocity": 75}, {"time": 129, "pitch": 55, "duration": 8, "velocity": 82}, {"time": 135, "pitch": 41, "duration": 18, "velocity": 81}, {"time": 138, "pitch": 48, "duration": 14, "velocity": 70}, {"time": 141, "pitch": 53, "duration": 7, "velocity": 78}, {"time": 144, "pitch": 57, "duration": 3, "velocity": 71}, {"time": 147, "pitch": 60, "duration": 5, "velocity": 80}, {"time": 150, "pitch": 57, "duration": 4, "velocity": 78}, {"time": 153, "pitch": 53, "duration": 4, "velocity": 79}, {"time": 156, "pitch": 57, "duration": 3, "velocity": 76}, {"time": 159, "pitch": 39, "duration": 13, "velocity": 84}, {"time": 162, "pitch": 46, "duration": 11, "velocity": 68}, {"time": 165, "pitch": 55, "duration": 6, "velocity": 71}, {"time": 168, "pitch": 58, "duration": 4, "velocity": 71}, {"time": 171, "pitch": 63, "duration": 5, "velocity": 85}, {"time": 174, "pitch": 58, "duration": 3, "velocity": 83}, {"time": 177, "pitch": 55, "duration": 5, "velocity": 81}, {"time": 180, "pitch": 58, "duration": 4, "velocity": 83}, {"time": 183, "pitch": 38, "duration": 20, "velocity": 85}, {"time": 186, "pitch": 45, "duration": 18, "velocity": 68}, {"time": 189, "pitch": 50, "duration": 3, "velocity": 80}, {"time": 192, "pitch": 54, "duration": 2, "velocity": 65}, {"time": 195, "pitch": 57, "duration": 12, "velocity": 74}, {"time": 207, "pitch": 43, "duration": 20, "velocity": 81}, {"time": 207, "pitch": 62, "duration": 11, "velocity": 78}, {"time": 213, "pitch": 50, "duration": 13, "velocity": 69}, {"time": 219, "pitch": 58, "duration": 7, "velocity": 71}, {"time": 219, "pitch": 62, "duration": 7, "velocity": 77}, {"time": 225, "pitch": 55, "duration": 7, "velocity": 77}, {"time": 231, "pitch": 41, "duration": 14, "velocity": 74}, {"time": 231, "pitch": 57, "duration": 13, "velocity": 73}, {"time": 237, "pitch": 48, "duration": 8, "velocity": 67}, {"time": 243, "pitch": 53, "duration": 4, "velocity": 80}, {"time": 255, "pitch": 39, "duration": 15, "velocity": 67}, {"time": 255, "pitch": 58, "duration": 13, "velocity": 72}, {"time": 261, "pitch": 46, "duration": 9, "velocity": 68}, {"time": 267, "pitch": 55, "duration": 7, "velocity": 82}, {"time": 273, "pitch": 63, "duration": 6, "velocity": 77}, {"time": 279, "pitch": 50, "duration": 14, "velocity": 82}, {"time": 279, "pitch": 62, "duration": 9, "velocity": 76}, {"time": 285, "pitch": 57, "duration": 4, "velocity": 70}, {"time": 291, "pitch": 57, "duration": 5, "velocity": 75}, {"time": 291, "pitch": 62, "duration": 7, "velocity": 75}, {"time": 303, "pitch": 48, "duration": 18, "velocity": 80}, {"time": 303, "pitch": 60, "duration": 8, "velocity": 82}, {"time": 309, "pitch": 55, "duration": 9, "velocity": 79}, {"time": 315, "pitch": 63, "duration": 6, "velocity": 80}, {"time": 321, "pitch": 55, "duration": 5, "velocity": 54}, {"time": 327, "pitch": 46, "duration": 20, "velocity": 73}, {"time": 327, "pitch": 62, "duration": 9, "velocity": 78}, {"time": 333, "pitch": 53, "duration": 13, "velocity": 78}, {"time": 339, "pitch": 58, "duration": 8, "velocity": 81}, {"time": 339, "pitch": 62, "duration": 8, "velocity": 82}, {"time": 351, "pitch": 39, "duration": 17, "velocity": 78}, {"time": 351, "pitch": 55, "duration": 5, "velocity": 75}, {"time": 351, "pitch": 58, "duration": 18, "velocity": 65}, {"time": 357, "pitch": 46, "duration": 11, "velocity": 70}, {"time": 363, "pitch": 63, "duration": 7, "velocity": 84}, {"time": 369, "pitch": 55, "duration": 2, "velocity": 86}, {"time": 375, "pitch": 50, "duration": 15, "velocity": 82}, {"time": 375, "pitch": 57, "duration": 4, "velocity": 72}, {"time": 375, "pitch": 62, "duration": 7, "velocity": 78}, {"time": 381, "pitch": 57, "duration": 7, "velocity": 75}, {"time": 387, "pitch": 62, "duration": 5, "velocity": 80}, {"time": 387, "pitch": 66, "duration": 5, "velocity": 77}, {"time": 399, "pitch": 43, "duration": 19, "velocity": 81}, {"time": 399, "pitch": 58, "duration": 13, "velocity": 61}, {"time": 399, "pitch": 62, "duration": 13, "velocity": 78}, {"time": 405, "pitch": 50, "duration": 16, "velocity": 70}, {"time": 411, "pitch": 55, "duration": 7, "velocity": 87}, {"time": 417, "pitch": 58, "duration": 7, "velocity": 78}, {"time": 417, "pitch": 62, "duration": 5, "velocity": 56}, {"time": 423, "pitch": 41, "duration": 16, "velocity": 82}, {"time": 423, "pitch": 53, "duration": 13, "velocity": 78}, {"time": 423, "pitch": 57, "duration": 8, "velocity": 82}, {"time": 429, "pitch": 48, "duration": 9, "velocity": 70}, {"time": 435, "pitch": 57, "duration": 3, "velocity": 83}, {"time": 435, "pitch": 60, "duration": 4, "velocity": 82}, {"time": 447, "pitch": 39, "duration": 14, "velocity": 78}, {"time": 447, "pitch": 55, "duration": 12, "velocity": 78}, {"time": 447, "pitch": 58, "duration": 13, "velocity": 71}, {"time": 453, "pitch": 46, "duration": 9, "velocity": 71}, {"time": 459, "pitch": 63, "duration": 7, "velocity": 87}, {"time": 465, "pitch": 55, "duration": 3, "velocity": 84}, {"time": 471, "pitch": 50, "duration": 15, "velocity": 82}, {"time": 471, "pitch": 62, "duration": 8, "velocity": 80}, {"time": 477, "pitch": 57, "duration": 4, "velocity": 79}, {"time": 483, "pitch": 57, "duration": 3, "velocity": 82}, {"time": 483, "pitch": 62, "duration": 5, "velocity": 82}, {"time": 495, "pitch": 48, "duration": 15, "velocity": 81}, {"time": 495, "pitch": 60, "duration": 7, "velocity": 77}, {"time": 501, "pitch": 55, "duration": 8, "velocity": 74}, {"time": 507, "pitch": 63, "duration": 6, "velocity": 83}, {"time": 513, "pitch": 60, "duration": 2, "velocity": 75}, {"time": 519, "pitch": 46, "duration": 15, "velocity": 82}, {"time": 519, "pitch": 58, "duration": 8, "velocity": 76}, {"time": 525, "pitch": 53, "duration": 7, "velocity": 80}, {"time": 531, "pitch": 58, "duration": 5, "velocity": 75}, {"time": 531, "pitch": 62, "duration": 7, "velocity": 78}, {"time": 543, "pitch": 39, "duration": 2, "velocity": 81}, {"time": 543, "pitch": 55, "duration": 5, "velocity": 79}, {"time": 543, "pitch": 58, "duration": 5, "velocity": 82}, {"time": 555, "pitch": 38, "duration": 3, "velocity": 84}, {"time": 555, "pitch": 57, "duration": 5, "velocity": 77}, {"time": 555, "pitch": 62, "duration": 5, "velocity": 82}, {"time": 567, "pitch": 43, "duration": 22, "velocity": 76}, {"time": 567, "pitch": 55, "duration": 9, "velocity": 77}, {"time": 567, "pitch": 62, "duration": 10, "velocity": 80}, {"time": 573, "pitch": 50, "duration": 16, "velocity": 81}, {"time": 579, "pitch": 58, "duration": 3, "velocity": 91}, {"time": 582, "pitch": 55, "duration": 2, "velocity": 83}, {"time": 585, "pitch": 62, "duration": 6, "velocity": 82}, {"time": 588, "pitch": 58, "duration": 3, "velocity": 84}, {"time": 591, "pitch": 48, "duration": 16, "velocity": 84}, {"time": 591, "pitch": 60, "duration": 4, "velocity": 77}, {"time": 591, "pitch": 63, "duration": 5, "velocity": 78}, {"time": 591, "pitch": 67, "duration": 6, "velocity": 77}, {"time": 594, "pitch": 55, "duration": 11, "velocity": 74}, {"time": 597, "pitch": 60, "duration": 7, "velocity": 74}, {"time": 603, "pitch": 63, "duration": 5, "velocity": 88}, {"time": 606, "pitch": 55, "duration": 2, "velocity": 77}, {"time": 609, "pitch": 60, "duration": 5, "velocity": 83}, {"time": 615, "pitch": 41, "duration": 15, "velocity": 82}, {"time": 615, "pitch": 60, "duration": 3, "velocity": 78}, {"time": 615, "pitch": 65, "duration": 4, "velocity": 76}, {"time": 621, "pitch": 48, "duration": 8, "velocity": 70}, {"time": 627, "pitch": 53, "duration": 2, "velocity": 82}, {"time": 627, "pitch": 57, "duration": 2, "velocity": 81}, {"time": 627, "pitch": 60, "duration": 3, "velocity": 82}, {"time": 633, "pitch": 41, "duration": 3, "velocity": 83}, {"time": 639, "pitch": 38, "duration": 2, "velocity": 83}, {"time": 639, "pitch": 62, "duration": 9, "velocity": 81}, {"time": 639, "pitch": 66, "duration": 12, "velocity": 81}, {"time": 645, "pitch": 50, "duration": 11, "velocity": 79}, {"time": 648, "pitch": 57, "duration": 6, "velocity": 75}, {"time": 651, "pitch": 62, "duration": 4, "velocity": 86}, {"time": 654, "pitch": 66, "duration": 3, "velocity": 87}, {"time": 657, "pitch": 62, "duration": 3, "velocity": 77}, {"time": 663, "pitch": 43, "duration": 18, "velocity": 82}, {"time": 663, "pitch": 62, "duration": 6, "velocity": 80}, {"time": 663, "pitch": 67, "duration": 8, "velocity": 78}, {"time": 669, "pitch": 50, "duration": 12, "velocity": 73}, {"time": 672, "pitch": 62, "duration": 2, "velocity": 79}, {"time": 675, "pitch": 70, "duration": 3, "velocity": 84}, {"time": 678, "pitch": 62, "duration": 2, "velocity": 83}, {"time": 681, "pitch": 69, "duration": 7, "velocity": 84}, {"time": 687, "pitch": 51, "duration": 19, "velocity": 76}, {"time": 687, "pitch": 67, "duration": 7, "velocity": 78}, {"time": 690, "pitch": 58, "duration": 8, "velocity": 72}, {"time": 693, "pitch": 63, "duration": 12, "velocity": 80}, {"time": 696, "pitch": 67, "duration": 16, "velocity": 83}, {"time": 705, "pitch": 58, "duration": 2, "velocity": 78}, {"time": 708, "pitch": 63, "duration": 3, "velocity": 73}, {"time": 711, "pitch": 41, "duration": 16, "velocity": 83}, {"time": 711, "pitch": 53, "duration": 4, "velocity": 75}, {"time": 711, "pitch": 60, "duration": 6, "velocity": 77}, {"time": 714, "pitch": 48, "duration": 13, "velocity": 74}, {"time": 717, "pitch": 53, "duration": 10, "velocity": 77}, {"time": 720, "pitch": 57, "duration": 7, "velocity": 83}, {"time": 726, "pitch": 65, "duration": 6, "velocity": 85}, {"time": 729, "pitch": 53, "duration": 2, "velocity": 87}, {"time": 735, "pitch": 50, "duration": 13, "velocity": 84}, {"time": 735, "pitch": 57, "duration": 3, "velocity": 76}, {"time": 735, "pitch": 62, "duration": 7, "velocity": 76}, {"time": 741, "pitch": 57, "duration": 4, "velocity": 79}, {"time": 747, "pitch": 57, "duration": 3, "velocity": 83}, {"time": 747, "pitch": 62, "duration": 5, "velocity": 85}, {"time": 747, "pitch": 66, "duration": 7, "velocity": 86}, {"time": 753, "pitch": 57, "duration": 4, "velocity": 75}, {"time": 756, "pitch": 62, "duration": 2, "velocity": 75}, {"time": 759, "pitch": 38, "duration": 5, "velocity": 88}, {"time": 759, "pitch": 57, "duration": 3, "velocity": 82}, {"time": 759, "pitch": 62, "duration": 4, "velocity": 83}, {"time": 759, "pitch": 66, "duration": 5, "velocity": 84}, {"time": 762, "pitch": 45, "duration": 2, "velocity": 77}, {"time": 765, "pitch": 57, "duration": 2, "velocity": 83}, {"time": 768, "pitch": 57, "duration": 3, "velocity": 84}, {"time": 768, "pitch": 62, "duration": 4, "velocity": 86}, {"time": 768, "pitch": 66, "duration": 5, "velocity": 83}, {"time": 771, "pitch": 50, "duration": 7, "velocity": 87}, {"time": 774, "pitch": 57, "duration": 4, "velocity": 82}, {"time": 777, "pitch": 62, "duration": 6, "velocity": 91}, {"time": 780, "pitch": 66, "duration": 3, "velocity": 83}, {"time": 783, "pitch": 43, "duration": 19, "velocity": 82}, {"time": 783, "pitch": 62, "duration": 4, "velocity": 83}, {"time": 783, "pitch": 70, "duration": 5, "velocity": 84}, {"time": 786, "pitch": 50, "duration": 10, "velocity": 78}, {"time": 789, "pitch": 62, "duration": 1, "velocity": 84}, {"time": 792, "pitch": 62, "duration": 2, "velocity": 83}, {"time": 792, "pitch": 67, "duration": 2, "velocity": 84}, {"time": 795, "pitch": 62, "duration": 4, "velocity": 85}, {"time": 795, "pitch": 67, "duration": 4, "velocity": 86}, {"time": 798, "pitch": 50, "duration": 4, "velocity": 79}, {"time": 801, "pitch": 62, "duration": 2, "velocity": 84}, {"time": 801, "pitch": 67, "duration": 3, "velocity": 84}, {"time": 801, "pitch": 70, "duration": 4, "velocity": 85}, {"time": 807, "pitch": 41, "duration": 19, "velocity": 82}, {"time": 807, "pitch": 65, "duration": 4, "velocity": 77}, {"time": 807, "pitch": 69, "duration": 4, "velocity": 84}, {"time": 813, "pitch": 48, "duration": 8, "velocity": 73}, {"time": 816, "pitch": 53, "duration": 2, "velocity": 71}, {"time": 819, "pitch": 53, "duration": 3, "velocity": 84}, {"time": 819, "pitch": 57, "duration": 3, "velocity": 82}, {"time": 819, "pitch": 60, "duration": 4, "velocity": 82}, {"time": 825, "pitch": 48, "duration": 2, "velocity": 83}, {"time": 831, "pitch": 39, "duration": 1, "velocity": 88}, {"time": 831, "pitch": 58, "duration": 3, "velocity": 75}, {"time": 831, "pitch": 63, "duration": 4, "velocity": 83}, {"time": 837, "pitch": 51, "duration": 4, "velocity": 72}, {"time": 840, "pitch": 58, "duration": 3, "velocity": 82}, {"time": 843, "pitch": 63, "duration": 4, "velocity": 91}, {"time": 846, "pitch": 67, "duration": 2, "velocity": 82}, {"time": 849, "pitch": 70, "duration": 2, "velocity": 91}, {"time": 855, "pitch": 38, "duration": 2, "velocity": 86}, {"time": 855, "pitch": 62, "duration": 7, "velocity": 75}, {"time": 855, "pitch": 69, "duration": 9, "velocity": 82}, {"time": 858, "pitch": 50, "duration": 13, "velocity": 82}, {"time": 861, "pitch": 57, "duration": 7, "velocity": 84}, {"time": 864, "pitch": 62, "duration": 2, "velocity": 85}, {"time": 867, "pitch": 62, "duration": 6, "velocity": 84}, {"time": 867, "pitch": 66, "duration": 5, "velocity": 83}, {"time": 867, "pitch": 69, "duration": 6, "velocity": 83}, {"time": 873, "pitch": 50, "duration": 2, "velocity": 83}, {"time": 879, "pitch": 36, "duration": 14, "velocity": 81}, {"time": 879, "pitch": 55, "duration": 6, "velocity": 82}, {"time": 879, "pitch": 63, "duration": 10, "velocity": 82}, {"time": 885, "pitch": 43, "duration": 8, "velocity": 61}, {"time": 888, "pitch": 55, "duration": 2, "velocity": 78}, {"time": 891, "pitch": 55, "duration": 1, "velocity": 74}, {"time": 891, "pitch": 60, "duration": 6, "velocity": 89}, {"time": 891, "pitch": 63, "duration": 7, "velocity": 83}, {"time": 897, "pitch": 55, "duration": 3, "velocity": 87}, {"time": 903, "pitch": 46, "duration": 15, "velocity": 89}, {"time": 903, "pitch": 58, "duration": 3, "velocity": 82}, {"time": 903, "pitch": 62, "duration": 3, "velocity": 83}, {"time": 906, "pitch": 53, "duration": 13, "velocity": 70}, {"time": 909, "pitch": 58, "duration": 5, "velocity": 71}, {"time": 915, "pitch": 58, "duration": 5, "velocity": 83}, {"time": 915, "pitch": 62, "duration": 6, "velocity": 83}, {"time": 921, "pitch": 46, "duration": 2, "velocity": 87}, {"time": 927, "pitch": 39, "duration": 15, "velocity": 86}, {"time": 927, "pitch": 55, "duration": 5, "velocity": 83}, {"time": 927, "pitch": 58, "duration": 7, "velocity": 79}, {"time": 933, "pitch": 55, "duration": 5, "velocity": 82}, {"time": 939, "pitch": 55, "duration": 4, "velocity": 88}, {"time": 939, "pitch": 58, "duration": 4, "velocity": 86}, {"time": 939, "pitch": 63, "duration": 5, "velocity": 82}, {"time": 945, "pitch": 39, "duration": 2, "velocity": 93}, {"time": 951, "pitch": 38, "duration": 2, "velocity": 86}, {"time": 951, "pitch": 57, "duration": 5, "velocity": 81}, {"time": 951, "pitch": 62, "duration": 5, "velocity": 83}, {"time": 957, "pitch": 50, "duration": 10, "velocity": 81}, {"time": 960, "pitch": 57, "duration": 4, "velocity": 82}, {"time": 963, "pitch": 62, "duration": 4, "velocity": 85}, {"time": 963, "pitch": 66, "duration": 6, "velocity": 84}, {"time": 966, "pitch": 57, "duration": 2, "velocity": 84}, {"time": 969, "pitch": 62, "duration": 8, "velocity": 87}, {"time": 972, "pitch": 66, "duration": 4, "velocity": 88}, {"time": 975, "pitch": 43, "duration": 21, "velocity": 87}, {"time": 978, "pitch": 50, "duration": 15, "velocity": 75}, {"time": 981, "pitch": 55, "duration": 5, "velocity": 83}, {"time": 984, "pitch": 58, "duration": 3, "velocity": 85}, {"time": 987, "pitch": 55, "duration": 1, "velocity": 66}, {"time": 987, "pitch": 58, "duration": 1, "velocity": 71}, {"time": 987, "pitch": 67, "duration": 4, "velocity": 87}, {"time": 990, "pitch": 62, "duration": 4, "velocity": 82}, {"time": 993, "pitch": 58, "duration": 4, "velocity": 84}, {"time": 996, "pitch": 55, "duration": 2, "velocity": 84}, {"time": 999, "pitch": 41, "duration": 19, "velocity": 84}, {"time": 999, "pitch": 53, "duration": 10, "velocity": 82}, {"time": 999, "pitch": 57, "duration": 8, "velocity": 83}, {"time": 1005, "pitch": 48, "duration": 8, "velocity": 79}, {"time": 1008, "pitch": 57, "duration": 2, "velocity": 68}, {"time": 1008, "pitch": 60, "duration": 2, "velocity": 80}, {"time": 1011, "pitch": 53, "duration": 4, "velocity": 84}, {"time": 1011, "pitch": 57, "duration": 4, "velocity": 84}, {"time": 1011, "pitch": 60, "duration": 4, "velocity": 83}, {"time": 1011, "pitch": 65, "duration": 6, "velocity": 84}, {"time": 1017, "pitch": 48, "duration": 2, "velocity": 81}, {"time": 1023, "pitch": 39, "duration": 15, "velocity": 84}, {"time": 1023, "pitch": 58, "duration": 5, "velocity": 74}, {"time": 1023, "pitch": 63, "duration": 4, "velocity": 78}, {"time": 1026, "pitch": 46, "duration": 12, "velocity": 75}, {"time": 1029, "pitch": 55, "duration": 7, "velocity": 83}, {"time": 1032, "pitch": 58, "duration": 4, "velocity": 88}, {"time": 1035, "pitch": 63, "duration": 4, "velocity": 93}, {"time": 1038, "pitch": 58, "duration": 4, "velocity": 84}, {"time": 1041, "pitch": 55, "duration": 4, "velocity": 84}, {"time": 1041, "pitch": 58, "duration": 1, "velocity": 75}, {"time": 1047, "pitch": 50, "duration": 15, "velocity": 84}, {"time": 1047, "pitch": 57, "duration": 4, "velocity": 78}, {"time": 1047, "pitch": 62, "duration": 5, "velocity": 82}, {"time": 1053, "pitch": 57, "duration": 4, "velocity": 88}, {"time": 1059, "pitch": 57, "duration": 7, "velocity": 83}, {"time": 1059, "pitch": 62, "duration": 6, "velocity": 85}, {"time": 1059, "pitch": 66, "duration": 6, "velocity": 87}, {"time": 1065, "pitch": 50, "duration": 2, "velocity": 85}, {"time": 1071, "pitch": 48, "duration": 17, "velocity": 89}, {"time": 1071, "pitch": 55, "duration": 2, "velocity": 81}, {"time": 1071, "pitch": 60, "duration": 4, "velocity": 81}, {"time": 1071, "pitch": 63, "duration": 4, "velocity": 84}, {"time": 1074, "pitch": 55, "duration": 11, "velocity": 77}, {"time": 1077, "pitch": 60, "duration": 7, "velocity": 85}, {"time": 1080, "pitch": 63, "duration": 3, "velocity": 84}, {"time": 1083, "pitch": 67, "duration": 6, "velocity": 84}, {"time": 1086, "pitch": 63, "duration": 5, "velocity": 91}, {"time": 1089, "pitch": 60, "duration": 3, "velocity": 83}, {"time": 1092, "pitch": 55, "duration": 2, "velocity": 79}, {"time": 1095, "pitch": 46, "duration": 15, "velocity": 85}, {"time": 1095, "pitch": 58, "duration": 4, "velocity": 83}, {"time": 1098, "pitch": 53, "duration": 4, "velocity": 82}, {"time": 1101, "pitch": 58, "duration": 4, "velocity": 83}, {"time": 1104, "pitch": 53, "duration": 1, "velocity": 65}, {"time": 1107, "pitch": 53, "duration": 4, "velocity": 83}, {"time": 1107, "pitch": 58, "duration": 7, "velocity": 87}, {"time": 1107, "pitch": 62, "duration": 7, "velocity": 84}, {"time": 1113, "pitch": 46, "duration": 2, "velocity": 87}, {"time": 1119, "pitch": 39, "duration": 14, "velocity": 93}, {"time": 1119, "pitch": 55, "duration": 3, "velocity": 77}, {"time": 1119, "pitch": 58, "duration": 10, "velocity": 78}, {"time": 1119, "pitch": 63, "duration": 9, "velocity": 79}, {"time": 1125, "pitch": 46, "duration": 9, "velocity": 79}, {"time": 1128, "pitch": 55, "duration": 2, "velocity": 79}, {"time": 1131, "pitch": 55, "duration": 4, "velocity": 82}, {"time": 1131, "pitch": 58, "duration": 4, "velocity": 86}, {"time": 1131, "pitch": 63, "duration": 5, "velocity": 82}, {"time": 1137, "pitch": 39, "duration": 2, "velocity": 73}, {"time": 1143, "pitch": 38, "duration": 2, "velocity": 86}, {"time": 1143, "pitch": 57, "duration": 5, "velocity": 80}, {"time": 1143, "pitch": 62, "duration": 6, "velocity": 82}, {"time": 1149, "pitch": 50, "duration": 11, "velocity": 83}, {"time": 1152, "pitch": 57, "duration": 7, "velocity": 81}, {"time": 1155, "pitch": 62, "duration": 4, "velocity": 83}, {"time": 1158, "pitch": 66, "duration": 4, "velocity": 85}, {"time": 1161, "pitch": 62, "duration": 5, "velocity": 76}, {"time": 1167, "pitch": 43, "duration": 18, "velocity": 81}, {"time": 1167, "pitch": 67, "duration": 6, "velocity": 78}, {"time": 1173, "pitch": 50, "duration": 11, "velocity": 68}, {"time": 1179, "pitch": 58, "duration": 7, "velocity": 70}, {"time": 1179, "pitch": 62, "duration": 7, "velocity": 75}, {"time": 1185, "pitch": 55, "duration": 6, "velocity": 82}, {"time": 1191, "pitch": 41, "duration": 15, "velocity": 72}, {"time": 1191, "pitch": 57, "duration": 12, "velocity": 69}, {"time": 1197, "pitch": 48, "duration": 8, "velocity": 72}, {"time": 1203, "pitch": 53, "duration": 2, "velocity": 86}, {"time": 1215, "pitch": 39, "duration": 14, "velocity": 78}, {"time": 1215, "pitch": 55, "duration": 12, "velocity": 74}, {"time": 1215, "pitch": 58, "duration": 17, "velocity": 72}, {"time": 1221, "pitch": 46, "duration": 8, "velocity": 65}, {"time": 1227, "pitch": 63, "duration": 7, "velocity": 83}, {"time": 1233, "pitch": 55, "duration": 2, "velocity": 78}, {"time": 1239, "pitch": 38, "duration": 5, "velocity": 84}, {"time": 1239, "pitch": 57, "duration": 2, "velocity": 71}, {"time": 1239, "pitch": 62, "duration": 2, "velocity": 77}, {"time": 1239, "pitch": 66, "duration": 3, "velocity": 72}, {"time": 1242, "pitch": 57, "duration": 2, "velocity": 73}, {"time": 1242, "pitch": 62, "duration": 2, "velocity": 82}, {"time": 1242, "pitch": 66, "duration": 2, "velocity": 75}, {"time": 1245, "pitch": 38, "duration": 2, "velocity": 88}, {"time": 1245, "pitch": 57, "duration": 2, "velocity": 73}, {"time": 1245, "pitch": 62, "duration": 2, "velocity": 81}, {"time": 1245, "pitch": 66, "duration": 2, "velocity": 74}, {"time": 1248, "pitch": 38, "duration": 2, "velocity": 91}, {"time": 1248, "pitch": 57, "duration": 2, "velocity": 83}, {"time": 1248, "pitch": 62, "duration": 2, "velocity": 84}, {"time": 1248, "pitch": 66, "duration": 2, "velocity": 83}, {"time": 1251, "pitch": 38, "duration": 2, "velocity": 89}, {"time": 1251, "pitch": 57, "duration": 2, "velocity": 83}, {"time": 1251, "pitch": 62, "duration": 2, "velocity": 85}, {"time": 1251, "pitch": 66, "duration": 2, "velocity": 83}, {"time": 1254, "pitch": 38, "duration": 2, "velocity": 91}, {"time": 1254, "pitch": 57, "duration": 2, "velocity": 83}, {"time": 1254, "pitch": 62, "duration": 2, "velocity": 87}, {"time": 1254, "pitch": 66, "duration": 2, "velocity": 86}, {"time": 1257, "pitch": 38, "duration": 2, "velocity": 89}, {"time": 1257, "pitch": 57, "duration": 2, "velocity": 83}, {"time": 1257, "pitch": 62, "duration": 2, "velocity": 85}, {"time": 1257, "pitch": 66, "duration": 2, "velocity": 83}, {"time": 1260, "pitch": 38, "duration": 3, "velocity": 85}, {"time": 1260, "pitch": 57, "duration": 3, "velocity": 77}, {"time": 1260, "pitch": 62, "duration": 3, "velocity": 82}, {"time": 1260, "pitch": 66, "duration": 3, "velocity": 78}, {"time": 1263, "pitch": 43, "duration": 19, "velocity": 82}, {"time": 1263, "pitch": 62, "duration": 4, "velocity": 83}, {"time": 1263, "pitch": 70, "duration": 5, "velocity": 84}, {"time": 1266, "pitch": 50, "duration": 10, "velocity": 78}, {"time": 1269, "pitch": 62, "duration": 1, "velocity": 84}, {"time": 1272, "pitch": 62, "duration": 2, "velocity": 83}, {"time": 1272, "pitch": 67, "duration": 2, "velocity": 84}, {"time": 1275, "pitch": 62, "duration": 4, "velocity": 85}, {"time": 1275, "pitch": 67, "duration": 4, "velocity": 86}, {"time": 1278, "pitch": 50, "duration": 4, "velocity": 79}, {"time": 1281, "pitch": 62, "duration": 2, "velocity": 84}, {"time": 1281, "pitch": 67, "duration": 3, "velocity": 84}, {"time": 1281, "pitch": 70, "duration": 4, "velocity": 85}, {"time": 1287, "pitch": 41, "duration": 19, "velocity": 82}, {"time": 1287, "pitch": 65, "duration": 4, "velocity": 77}, {"time": 1287, "pitch": 69, "duration": 4, "velocity": 84}, {"time": 1293, "pitch": 48, "duration": 8, "velocity": 73}, {"time": 1296, "pitch": 53, "duration": 2, "velocity": 71}, {"time": 1299, "pitch": 53, "duration": 3, "velocity": 84}, {"time": 1299, "pitch": 57, "duration": 3, "velocity": 82}, {"time": 1299, "pitch": 60, "duration": 4, "velocity": 82}, {"time": 1305, "pitch": 48, "duration": 2, "velocity": 83}, {"time": 1311, "pitch": 39, "duration": 1, "velocity": 88}, {"time": 1311, "pitch": 58, "duration": 3, "velocity": 75}, {"time": 1311, "pitch": 63, "duration": 4, "velocity": 83}, {"time": 1317, "pitch": 51, "duration": 4, "velocity": 72}, {"time": 1320, "pitch": 58, "duration": 3, "velocity": 82}, {"time": 1323, "pitch": 63, "duration": 4, "velocity": 91}, {"time": 1326, "pitch": 67, "duration": 2, "velocity": 82}, {"time": 1329, "pitch": 70, "duration": 2, "velocity": 91}, {"time": 1335, "pitch": 38, "duration": 2, "velocity": 86}, {"time": 1335, "pitch": 62, "duration": 7, "velocity": 75}, {"time": 1335, "pitch": 69, "duration": 9, "velocity": 82}, {"time": 1338, "pitch": 50, "duration": 13, "velocity": 82}, {"time": 1341, "pitch": 57, "duration": 7, "velocity": 84}, {"time": 1344, "pitch": 62, "duration": 2, "velocity": 85}, {"time": 1347, "pitch": 62, "duration": 6, "velocity": 84}, {"time": 1347, "pitch": 66, "duration": 5, "velocity": 83}, {"time": 1347, "pitch": 69, "duration": 6, "velocity": 83}, {"time": 1353, "pitch": 50, "duration": 2, "velocity": 83}, {"time": 1359, "pitch": 36, "duration": 14, "velocity": 81}, {"time": 1359, "pitch": 55, "duration": 6, "velocity": 82}, {"time": 1359, "pitch": 63, "duration": 10, "velocity": 82}, {"time": 1365, "pitch": 43, "duration": 8, "velocity": 61}, {"time": 1368, "pitch": 55, "duration": 2, "velocity": 78}, {"time": 1371, "pitch": 55, "duration": 1, "velocity": 74}, {"time": 1371, "pitch": 60, "duration": 6, "velocity": 89}, {"time": 1371, "pitch": 63, "duration": 7, "velocity": 83}, {"time": 1377, "pitch": 55, "duration": 3, "velocity": 87}, {"time": 1383, "pitch": 46, "duration": 15, "velocity": 89}, {"time": 1383, "pitch": 58, "duration": 3, "velocity": 82}, {"time": 1383, "pitch": 62, "duration": 3, "velocity": 83}, {"time": 1386, "pitch": 53, "duration": 13, "velocity": 70}, {"time": 1389, "pitch": 58, "duration": 5, "velocity": 71}, {"time": 1395, "pitch": 58, "duration": 5, "velocity": 83}, {"time": 1395, "pitch": 62, "duration": 6, "velocity": 83}, {"time": 1401, "pitch": 46, "duration": 2, "velocity": 87}, {"time": 1407, "pitch": 39, "duration": 15, "velocity": 86}, {"time": 1407, "pitch": 55, "duration": 5, "velocity": 83}, {"time": 1407, "pitch": 58, "duration": 7, "velocity": 79}, {"time": 1413, "pitch": 55, "duration": 5, "velocity": 82}, {"time": 1419, "pitch": 55, "duration": 4, "velocity": 88}, {"time": 1419, "pitch": 58, "duration": 4, "velocity": 86}, {"time": 1419, "pitch": 63, "duration": 5, "velocity": 82}, {"time": 1425, "pitch": 39, "duration": 2, "velocity": 93}, {"time": 1431, "pitch": 38, "duration": 2, "velocity": 86}, {"time": 1431, "pitch": 57, "duration": 5, "velocity": 81}, {"time": 1431, "pitch": 62, "duration": 5, "velocity": 83}, {"time": 1437, "pitch": 50, "duration": 10, "velocity": 81}, {"time": 1440, "pitch": 57, "duration": 4, "velocity": 82}, {"time": 1443, "pitch": 62, "duration": 4, "velocity": 85}, {"time": 1443, "pitch": 66, "duration": 6, "velocity": 84}, {"time": 1446, "pitch": 57, "duration": 2, "velocity": 84}, {"time": 1449, "pitch": 62, "duration": 8, "velocity": 87}, {"time": 1452, "pitch": 66, "duration": 4, "velocity": 88}, {"time": 1455, "pitch": 43, "duration": 21, "velocity": 87}, {"time": 1458, "pitch": 50, "duration": 15, "velocity": 75}, {"time": 1461, "pitch": 55, "duration": 5, "velocity": 83}, {"time": 1464, "pitch": 58, "duration": 3, "velocity": 85}, {"time": 1467, "pitch": 55, "duration": 1, "velocity": 66}, {"time": 1467, "pitch": 58, "duration": 1, "velocity": 71}, {"time": 1467, "pitch": 67, "duration": 4, "velocity": 87}, {"time": 1470, "pitch": 62, "duration": 4, "velocity": 82}, {"time": 1473, "pitch": 58, "duration": 4, "velocity": 84}, {"time": 1476, "pitch": 55, "duration": 2, "velocity": 84}, {"time": 1479, "pitch": 41, "duration": 19, "velocity": 84}, {"time": 1479, "pitch": 53, "duration": 10, "velocity": 82}, {"time": 1479, "pitch": 57, "duration": 8, "velocity": 83}, {"time": 1485, "pitch": 48, "duration": 8, "velocity": 79}, {"time": 1488, "pitch": 57, "duration": 2, "velocity": 68}, {"time": 1488, "pitch": 60, "duration": 2, "velocity": 80}, {"time": 1491, "pitch": 53, "duration": 4, "velocity": 84}, {"time": 1491, "pitch": 57, "duration": 4, "velocity": 84}, {"time": 1491, "pitch": 60, "duration": 4, "velocity": 83}, {"time": 1491, "pitch": 65, "duration": 6, "velocity": 84}, {"time": 1497, "pitch": 48, "duration": 2, "velocity": 81}, {"time": 1503, "pitch": 39, "duration": 15, "velocity": 84}, {"time": 1503, "pitch": 58, "duration": 5, "velocity": 74}, {"time": 1503, "pitch": 63, "duration": 4, "velocity": 78}, {"time": 1506, "pitch": 46, "duration": 12, "velocity": 75}, {"time": 1509, "pitch": 55, "duration": 7, "velocity": 83}, {"time": 1512, "pitch": 58, "duration": 4, "velocity": 88}, {"time": 1515, "pitch": 63, "duration": 4, "velocity": 93}, {"time": 1518, "pitch": 58, "duration": 4, "velocity": 84}, {"time": 1521, "pitch": 55, "duration": 4, "velocity": 84}, {"time": 1521, "pitch": 58, "duration": 1, "velocity": 75}, {"time": 1527, "pitch": 50, "duration": 15, "velocity": 84}, {"time": 1527, "pitch": 57, "duration": 4, "velocity": 78}, {"time": 1527, "pitch": 62, "duration": 5, "velocity": 82}, {"time": 1533, "pitch": 57, "duration": 4, "velocity": 88}, {"time": 1539, "pitch": 57, "duration": 7, "velocity": 83}, {"time": 1539, "pitch": 62, "duration": 6, "velocity": 85}, {"time": 1539, "pitch": 66, "duration": 6, "velocity": 87}, {"time": 1545, "pitch": 50, "duration": 2, "velocity": 85}, {"time": 1551, "pitch": 48, "duration": 17, "velocity": 89}, {"time": 1551, "pitch": 55, "duration": 2, "velocity": 81}, {"time": 1551, "pitch": 60, "duration": 4, "velocity": 81}, {"time": 1551, "pitch": 63, "duration": 4, "velocity": 84}, {"time": 1554, "pitch": 55, "duration": 11, "velocity": 77}, {"time": 1557, "pitch": 60, "duration": 7, "velocity": 85}, {"time": 1560, "pitch": 63, "duration": 3, "velocity": 84}, {"time": 1563, "pitch": 67, "duration": 6, "velocity": 84}, {"time": 1566, "pitch": 63, "duration": 5, "velocity": 91}, {"time": 1569, "pitch": 60, "duration": 3, "velocity": 83}, {"time": 1572, "pitch": 55, "duration": 2, "velocity": 79}, {"time": 1575, "pitch": 46, "duration": 15, "velocity": 85}, {"time": 1575, "pitch": 58, "duration": 4, "velocity": 83}, {"time": 1578, "pitch": 53, "duration": 4, "velocity": 82}, {"time": 1581, "pitch": 58, "duration": 4, "velocity": 83}, {"time": 1584, "pitch": 53, "duration": 1, "velocity": 65}, {"time": 1587, "pitch": 53, "duration": 4, "velocity": 83}, {"time": 1587, "pitch": 58, "duration": 7, "velocity": 87}, {"time": 1587, "pitch": 62, "duration": 7, "velocity": 84}, {"time": 1593, "pitch": 46, "duration": 2, "velocity": 87}, {"time": 1599, "pitch": 39, "duration": 14, "velocity": 93}, {"time": 1599, "pitch": 55, "duration": 3, "velocity": 77}, {"time": 1599, "pitch": 58, "duration": 10, "velocity": 78}, {"time": 1599, "pitch": 63, "duration": 9, "velocity": 79}, {"time": 1605, "pitch": 46, "duration": 9, "velocity": 79}, {"time": 1608, "pitch": 55, "duration": 2, "velocity": 79}, {"time": 1611, "pitch": 55, "duration": 4, "velocity": 82}, {"time": 1611, "pitch": 58, "duration": 4, "velocity": 86}, {"time": 1611, "pitch": 63, "duration": 5, "velocity": 82}, {"time": 1617, "pitch": 39, "duration": 2, "velocity": 73}, {"time": 1623, "pitch": 38, "duration": 2, "velocity": 86}, {"time": 1623, "pitch": 57, "duration": 5, "velocity": 80}, {"time": 1623, "pitch": 62, "duration": 6, "velocity": 82}, {"time": 1629, "pitch": 50, "duration": 11, "velocity": 83}, {"time": 1632, "pitch": 57, "duration": 7, "velocity": 81}, {"time": 1635, "pitch": 62, "duration": 4, "velocity": 83}, {"time": 1638, "pitch": 66, "duration": 4, "velocity": 85}, {"time": 1641, "pitch": 62, "duration": 5, "velocity": 76}, {"time": 1647, "pitch": 43, "duration": 20, "velocity": 81}, {"time": 1647, "pitch": 62, "duration": 11, "velocity": 78}, {"time": 1653, "pitch": 50, "duration": 13, "velocity": 69}, {"time": 1659, "pitch": 58, "duration": 7, "velocity": 71}, {"time": 1659, "pitch": 62, "duration": 7, "velocity": 77}, {"time": 1659, "pitch": 55, "duration": 7, "velocity": 77}, {"time": 1668, "pitch": 43, "duration": 3, "velocity": 79}, {"time": 1671, "pitch": 41, "duration": 14, "velocity": 74}, {"time": 1677, "pitch": 48, "duration": 8, "velocity": 67}, {"time": 1683, "pitch": 53, "duration": 4, "velocity": 84}, {"time": 1683, "pitch": 57, "duration": 13, "velocity": 84}, {"time": 1683, "pitch": 60, "duration": 11, "velocity": 83}, {"time": 1692, "pitch": 41, "duration": 3, "velocity": 79}, {"time": 1695, "pitch": 39, "duration": 15, "velocity": 67}, {"time": 1695, "pitch": 58, "duration": 11, "velocity": 72}, {"time": 1701, "pitch": 46, "duration": 9, "velocity": 68}, {"time": 1707, "pitch": 58, "duration": 6, "velocity": 75}, {"time": 1707, "pitch": 55, "duration": 7, "velocity": 75}, {"time": 1707, "pitch": 63, "duration": 7, "velocity": 76}, {"time": 1716, "pitch": 51, "duration": 5, "velocity": 77}, {"time": 1719, "pitch": 50, "duration": 14, "velocity": 82}, {"time": 1719, "pitch": 62, "duration": 9, "velocity": 76}, {"time": 1725, "pitch": 57, "duration": 4, "velocity": 70}, {"time": 1731, "pitch": 57, "duration": 5, "velocity": 75}, {"time": 1731, "pitch": 62, "duration": 7, "velocity": 75}, {"time": 1737, "pitch": 38, "duration": 3, "velocity": 74}, {"time": 1740, "pitch": 50, "duration": 3, "velocity": 87}, {"time": 1743, "pitch": 48, "duration": 18, "velocity": 80}, {"time": 1743, "pitch": 60, "duration": 8, "velocity": 82}, {"time": 1749, "pitch": 55, "duration": 4, "velocity": 79}, {"time": 1755, "pitch": 55, "duration": 5, "velocity": 77}, {"time": 1755, "pitch": 63, "duration": 6, "velocity": 77}, {"time": 1755, "pitch": 60, "duration": 6, "velocity": 97}, {"time": 1767, "pitch": 46, "duration": 20, "velocity": 73}, {"time": 1767, "pitch": 62, "duration": 9, "velocity": 78}, {"time": 1773, "pitch": 53, "duration": 13, "velocity": 78}, {"time": 1779, "pitch": 58, "duration": 8, "velocity": 74}, {"time": 1779, "pitch": 62, "duration": 8, "velocity": 74}, {"time": 1779, "pitch": 65, "duration": 8, "velocity": 74}, {"time": 1788, "pitch": 34, "duration": 3, "velocity": 75}, {"time": 1791, "pitch": 39, "duration": 17, "velocity": 78}, {"time": 1791, "pitch": 58, "duration": 9, "velocity": 65}, {"time": 1797, "pitch": 46, "duration": 11, "velocity": 70}, {"time": 1803, "pitch": 55, "duration": 5, "velocity": 75}, {"time": 1803, "pitch": 63, "duration": 7, "velocity": 84}, {"time": 1803, "pitch": 58, "duration": 7, "velocity": 97}, {"time": 1809, "pitch": 55, "duration": 2, "velocity": 86}, {"time": 1815, "pitch": 50, "duration": 15, "velocity": 82}, {"time": 1815, "pitch": 57, "duration": 4, "velocity": 72}, {"time": 1815, "pitch": 62, "duration": 7, "velocity": 78}, {"time": 1821, "pitch": 57, "duration": 7, "velocity": 75}, {"time": 1827, "pitch": 62, "duration": 5, "velocity": 80}, {"time": 1827, "pitch": 66, "duration": 5, "velocity": 77}, {"time": 1833, "pitch": 38, "duration": 4, "velocity": 74}, {"time": 1836, "pitch": 50, "duration": 3, "velocity": 74}, {"time": 1839, "pitch": 43, "duration": 19, "velocity": 81}, {"time": 1845, "pitch": 50, "duration": 16, "velocity": 70}, {"time": 1851, "pitch": 58, "duration": 10, "velocity": 61}, {"time": 1851, "pitch": 62, "duration": 11, "velocity": 78}, {"time": 1851, "pitch": 55, "duration": 7, "velocity": 87}, {"time": 1860, "pitch": 43, "duration": 4, "velocity": 78}, {"time": 1863, "pitch": 41, "duration": 16, "velocity": 82}, {"time": 1863, "pitch": 57, "duration": 8, "velocity": 82}, {"time": 1869, "pitch": 48, "duration": 9, "velocity": 70}, {"time": 1875, "pitch": 53, "duration": 13, "velocity": 78}, {"time": 1875, "pitch": 57, "duration": 3, "velocity": 83}, {"time": 1875, "pitch": 60, "duration": 4, "velocity": 82}, {"time": 1881, "pitch": 29, "duration": 4, "velocity": 75}, {"time": 1884, "pitch": 41, "duration": 3, "velocity": 78}, {"time": 1887, "pitch": 39, "duration": 14, "velocity": 78}, {"time": 1887, "pitch": 58, "duration": 13, "velocity": 71}, {"time": 1893, "pitch": 46, "duration": 9, "velocity": 71}, {"time": 1899, "pitch": 55, "duration": 12, "velocity": 78}, {"time": 1899, "pitch": 63, "duration": 7, "velocity": 87}, {"time": 1905, "pitch": 39, "duration": 3, "velocity": 97}, {"time": 1908, "pitch": 51, "duration": 3, "velocity": 84}, {"time": 1911, "pitch": 50, "duration": 15, "velocity": 82}, {"time": 1911, "pitch": 62, "duration": 8, "velocity": 80}, {"time": 1917, "pitch": 57, "duration": 4, "velocity": 79}, {"time": 1923, "pitch": 57, "duration": 3, "velocity": 82}, {"time": 1923, "pitch": 62, "duration": 5, "velocity": 82}, {"time": 1932, "pitch": 50, "duration": 3, "velocity": 84}, {"time": 1935, "pitch": 48, "duration": 15, "velocity": 81}, {"time": 1941, "pitch": 55, "duration": 8, "velocity": 74}, {"time": 1947, "pitch": 60, "duration": 7, "velocity": 77}, {"time": 1947, "pitch": 63, "duration": 6, "velocity": 83}, {"time": 1947, "pitch": 67, "duration": 5, "velocity": 97}, {"time": 1953, "pitch": 48, "duration": 2, "velocity": 75}, {"time": 1959, "pitch": 46, "duration": 15, "velocity": 82}, {"time": 1959, "pitch": 58, "duration": 8, "velocity": 76}, {"time": 1965, "pitch": 53, "duration": 7, "velocity": 80}, {"time": 1971, "pitch": 58, "duration": 5, "velocity": 75}, {"time": 1971, "pitch": 62, "duration": 7, "velocity": 78}, {"time": 1980, "pitch": 46, "duration": 3, "velocity": 97}, {"time": 1983, "pitch": 39, "duration": 2, "velocity": 81}, {"time": 1983, "pitch": 55, "duration": 5, "velocity": 79}, {"time": 1983, "pitch": 58, "duration": 5, "velocity": 82}, {"time": 1995, "pitch": 38, "duration": 3, "velocity": 84}, {"time": 1995, "pitch": 57, "duration": 5, "velocity": 77}, {"time": 1995, "pitch": 62, "duration": 5, "velocity": 82}, {"time": 2007, "pitch": 43, "duration": 22, "velocity": 76}, {"time": 2007, "pitch": 55, "duration": 9, "velocity": 77}, {"time": 2007, "pitch": 62, "duration": 10, "velocity": 80}, {"time": 2013, "pitch": 50, "duration": 16, "velocity": 81}, {"time": 2019, "pitch": 58, "duration": 3, "velocity": 91}, {"time": 2022, "pitch": 55, "duration": 2, "velocity": 83}, {"time": 2025, "pitch": 62, "duration": 6, "velocity": 82}, {"time": 2028, "pitch": 58, "duration": 3, "velocity": 84}, {"time": 2031, "pitch": 48, "duration": 16, "velocity": 84}, {"time": 2031, "pitch": 60, "duration": 4, "velocity": 77}, {"time": 2031, "pitch": 63, "duration": 5, "velocity": 78}, {"time": 2031, "pitch": 67, "duration": 6, "velocity": 77}, {"time": 2034, "pitch": 55, "duration": 11, "velocity": 74}, {"time": 2037, "pitch": 60, "duration": 7, "velocity": 74}, {"time": 2043, "pitch": 63, "duration": 5, "velocity": 88}, {"time": 2046, "pitch": 55, "duration": 2, "velocity": 77}, {"time": 2049, "pitch": 60, "duration": 5, "velocity": 83}, {"time": 2055, "pitch": 41, "duration": 15, "velocity": 82}, {"time": 2055, "pitch": 60, "duration": 3, "velocity": 78}, {"time": 2055, "pitch": 65, "duration": 4, "velocity": 76}, {"time": 2061, "pitch": 48, "duration": 8, "velocity": 70}, {"time": 2067, "pitch": 53, "duration": 2, "velocity": 82}, {"time": 2067, "pitch": 57, "duration": 2, "velocity": 81}, {"time": 2067, "pitch": 60, "duration": 3, "velocity": 82}, {"time": 2073, "pitch": 41, "duration": 3, "velocity": 83}, {"time": 2079, "pitch": 38, "duration": 2, "velocity": 83}, {"time": 2079, "pitch": 62, "duration": 9, "velocity": 81}, {"time": 2079, "pitch": 66, "duration": 12, "velocity": 81}, {"time": 2085, "pitch": 50, "duration": 11, "velocity": 79}, {"time": 2088, "pitch": 57, "duration": 6, "velocity": 75}, {"time": 2091, "pitch": 62, "duration": 4, "velocity": 86}, {"time": 2094, "pitch": 66, "duration": 3, "velocity": 87}, {"time": 2097, "pitch": 62, "duration": 3, "velocity": 77}, {"time": 2103, "pitch": 43, "duration": 18, "velocity": 82}, {"time": 2103, "pitch": 62, "duration": 6, "velocity": 80}, {"time": 2103, "pitch": 67, "duration": 8, "velocity": 78}, {"time": 2109, "pitch": 50, "duration": 12, "velocity": 73}, {"time": 2112, "pitch": 62, "duration": 2, "velocity": 79}, {"time": 2115, "pitch": 70, "duration": 3, "velocity": 84}, {"time": 2118, "pitch": 62, "duration": 2, "velocity": 83}, {"time": 2121, "pitch": 69, "duration": 7, "velocity": 84}, {"time": 2127, "pitch": 51, "duration": 19, "velocity": 76}, {"time": 2127, "pitch": 67, "duration": 7, "velocity": 78}, {"time": 2130, "pitch": 58, "duration": 8, "velocity": 72}, {"time": 2133, "pitch": 63, "duration": 12, "velocity": 80}, {"time": 2136, "pitch": 67, "duration": 16, "velocity": 83}, {"time": 2145, "pitch": 58, "duration": 2, "velocity": 78}, {"time": 2148, "pitch": 63, "duration": 3, "velocity": 73}, {"time": 2151, "pitch": 41, "duration": 16, "velocity": 83}, {"time": 2151, "pitch": 53, "duration": 4, "velocity": 75}, {"time": 2151, "pitch": 60, "duration": 6, "velocity": 77}, {"time": 2154, "pitch": 48, "duration": 13, "velocity": 74}, {"time": 2157, "pitch": 53, "duration": 10, "velocity": 77}, {"time": 2160, "pitch": 57, "duration": 7, "velocity": 83}, {"time": 2166, "pitch": 65, "duration": 6, "velocity": 85}, {"time": 2169, "pitch": 53, "duration": 2, "velocity": 87}, {"time": 2175, "pitch": 50, "duration": 13, "velocity": 84}, {"time": 2175, "pitch": 57, "duration": 3, "velocity": 76}, {"time": 2175, "pitch": 62, "duration": 7, "velocity": 76}, {"time": 2181, "pitch": 57, "duration": 4, "velocity": 79}, {"time": 2187, "pitch": 57, "duration": 3, "velocity": 83}, {"time": 2187, "pitch": 62, "duration": 5, "velocity": 85}, {"time": 2187, "pitch": 66, "duration": 7, "velocity": 86}, {"time": 2193, "pitch": 57, "duration": 4, "velocity": 75}, {"time": 2196, "pitch": 62, "duration": 2, "velocity": 75}, {"time": 2199, "pitch": 38, "duration": 5, "velocity": 88}, {"time": 2199, "pitch": 57, "duration": 3, "velocity": 82}, {"time": 2199, "pitch": 62, "duration": 4, "velocity": 83}, {"time": 2199, "pitch": 66, "duration": 5, "velocity": 84}, {"time": 2202, "pitch": 45, "duration": 2, "velocity": 77}, {"time": 2205, "pitch": 57, "duration": 2, "velocity": 83}, {"time": 2208, "pitch": 57, "duration": 3, "velocity": 84}, {"time": 2208, "pitch": 62, "duration": 4, "velocity": 86}, {"time": 2208, "pitch": 66, "duration": 5, "velocity": 83}, {"time": 2211, "pitch": 50, "duration": 7, "velocity": 87}, {"time": 2214, "pitch": 57, "duration": 4, "velocity": 82}, {"time": 2217, "pitch": 62, "duration": 6, "velocity": 91}, {"time": 2220, "pitch": 66, "duration": 3, "velocity": 83}, {"time": 2223, "pitch": 43, "duration": 19, "velocity": 82}, {"time": 2223, "pitch": 62, "duration": 4, "velocity": 83}, {"time": 2223, "pitch": 70, "duration": 5, "velocity": 84}, {"time": 2226, "pitch": 50, "duration": 10, "velocity": 78}, {"time": 2229, "pitch": 62, "duration": 1, "velocity": 84}, {"time": 2232, "pitch": 62, "duration": 2, "velocity": 83}, {"time": 2232, "pitch": 67, "duration": 2, "velocity": 84}, {"time": 2235, "pitch": 62, "duration": 4, "velocity": 85}, {"time": 2235, "pitch": 67, "duration": 4, "velocity": 86}, {"time": 2238, "pitch": 50, "duration": 4, "velocity": 79}, {"time": 2241, "pitch": 62, "duration": 2, "velocity": 84}, {"time": 2241, "pitch": 67, "duration": 3, "velocity": 84}, {"time": 2241, "pitch": 70, "duration": 4, "velocity": 85}, {"time": 2247, "pitch": 41, "duration": 19, "velocity": 82}, {"time": 2247, "pitch": 65, "duration": 4, "velocity": 77}, {"time": 2247, "pitch": 69, "duration": 4, "velocity": 84}, {"time": 2253, "pitch": 48, "duration": 8, "velocity": 73}, {"time": 2256, "pitch": 53, "duration": 2, "velocity": 71}, {"time": 2259, "pitch": 53, "duration": 3, "velocity": 84}, {"time": 2259, "pitch": 57, "duration": 3, "velocity": 82}, {"time": 2259, "pitch": 60, "duration": 4, "velocity": 82}, {"time": 2265, "pitch": 48, "duration": 2, "velocity": 83}, {"time": 2271, "pitch": 39, "duration": 1, "velocity": 88}, {"time": 2271, "pitch": 58, "duration": 3, "velocity": 75}, {"time": 2271, "pitch": 63, "duration": 4, "velocity": 83}, {"time": 2277, "pitch": 51, "duration": 4, "velocity": 72}, {"time": 2280, "pitch": 58, "duration": 3, "velocity": 82}, {"time": 2283, "pitch": 63, "duration": 4, "velocity": 91}, {"time": 2286, "pitch": 67, "duration": 2, "velocity": 82}, {"time": 2289, "pitch": 70, "duration": 2, "velocity": 91}, {"time": 2295, "pitch": 38, "duration": 2, "velocity": 86}, {"time": 2295, "pitch": 62, "duration": 7, "velocity": 75}, {"time": 2295, "pitch": 69, "duration": 9, "velocity": 82}, {"time": 2298, "pitch": 50, "duration": 13, "velocity": 82}, {"time": 2301, "pitch": 57, "duration": 7, "velocity": 84}, {"time": 2304, "pitch": 62, "duration": 2, "velocity": 85}, {"time": 2307, "pitch": 62, "duration": 6, "velocity": 84}, {"time": 2307, "pitch": 66, "duration": 5, "velocity": 83}, {"time": 2307, "pitch": 69, "duration": 6, "velocity": 83}, {"time": 2313, "pitch": 50, "duration": 2, "velocity": 83}, {"time": 2319, "pitch": 36, "duration": 14, "velocity": 81}, {"time": 2319, "pitch": 55, "duration": 6, "velocity": 82}, {"time": 2319, "pitch": 63, "duration": 10, "velocity": 82}, {"time": 2325, "pitch": 43, "duration": 8, "velocity": 61}, {"time": 2328, "pitch": 55, "duration": 2, "velocity": 78}, {"time": 2331, "pitch": 55, "duration": 1, "velocity": 74}, {"time": 2331, "pitch": 60, "duration": 6, "velocity": 89}, {"time": 2331, "pitch": 63, "duration": 7, "velocity": 83}, {"time": 2337, "pitch": 55, "duration": 3, "velocity": 87}, {"time": 2343, "pitch": 46, "duration": 15, "velocity": 89}, {"time": 2343, "pitch": 58, "duration": 3, "velocity": 82}, {"time": 2343, "pitch": 62, "duration": 3, "velocity": 83}, {"time": 2346, "pitch": 53, "duration": 13, "velocity": 70}, {"time": 2349, "pitch": 58, "duration": 5, "velocity": 71}, {"time": 2355, "pitch": 58, "duration": 5, "velocity": 83}, {"time": 2355, "pitch": 62, "duration": 6, "velocity": 83}, {"time": 2361, "pitch": 46, "duration": 2, "velocity": 87}, {"time": 2367, "pitch": 39, "duration": 15, "velocity": 86}, {"time": 2367, "pitch": 55, "duration": 5, "velocity": 83}, {"time": 2367, "pitch": 58, "duration": 7, "velocity": 79}, {"time": 2373, "pitch": 55, "duration": 5, "velocity": 82}, {"time": 2379, "pitch": 55, "duration": 4, "velocity": 88}, {"time": 2379, "pitch": 58, "duration": 4, "velocity": 86}, {"time": 2379, "pitch": 63, "duration": 5, "velocity": 82}, {"time": 2385, "pitch": 39, "duration": 2, "velocity": 93}, {"time": 2391, "pitch": 38, "duration": 2, "velocity": 86}, {"time": 2391, "pitch": 57, "duration": 5, "velocity": 81}, {"time": 2391, "pitch": 62, "duration": 5, "velocity": 83}, {"time": 2397, "pitch": 50, "duration": 10, "velocity": 81}, {"time": 2400, "pitch": 57, "duration": 4, "velocity": 82}, {"time": 2403, "pitch": 62, "duration": 4, "velocity": 85}, {"time": 2403, "pitch": 66, "duration": 6, "velocity": 84}, {"time": 2406, "pitch": 57, "duration": 2, "velocity": 84}, {"time": 2409, "pitch": 62, "duration": 8, "velocity": 87}, {"time": 2412, "pitch": 66, "duration": 4, "velocity": 88}, {"time": 2415, "pitch": 43, "duration": 21, "velocity": 87}, {"time": 2418, "pitch": 50, "duration": 15, "velocity": 75}, {"time": 2421, "pitch": 55, "duration": 5, "velocity": 83}, {"time": 2424, "pitch": 58, "duration": 3, "velocity": 85}, {"time": 2427, "pitch": 55, "duration": 1, "velocity": 66}, {"time": 2427, "pitch": 58, "duration": 1, "velocity": 71}, {"time": 2427, "pitch": 67, "duration": 4, "velocity": 87}, {"time": 2430, "pitch": 62, "duration": 4, "velocity": 82}, {"time": 2433, "pitch": 58, "duration": 4, "velocity": 84}, {"time": 2436, "pitch": 55, "duration": 2, "velocity": 84}, {"time": 2439, "pitch": 41, "duration": 19, "velocity": 84}, {"time": 2439, "pitch": 53, "duration": 10, "velocity": 82}, {"time": 2439, "pitch": 57, "duration": 8, "velocity": 83}, {"time": 2445, "pitch": 48, "duration": 8, "velocity": 79}, {"time": 2448, "pitch": 57, "duration": 2, "velocity": 68}, {"time": 2448, "pitch": 60, "duration": 2, "velocity": 80}, {"time": 2451, "pitch": 53, "duration": 4, "velocity": 84}, {"time": 2451, "pitch": 57, "duration": 4, "velocity": 84}, {"time": 2451, "pitch": 60, "duration": 4, "velocity": 83}, {"time": 2451, "pitch": 65, "duration": 6, "velocity": 84}, {"time": 2457, "pitch": 48, "duration": 2, "velocity": 81}, {"time": 2463, "pitch": 39, "duration": 15, "velocity": 84}, {"time": 2463, "pitch": 58, "duration": 5, "velocity": 74}, {"time": 2463, "pitch": 63, "duration": 4, "velocity": 78}, {"time": 2466, "pitch": 46, "duration": 12, "velocity": 75}, {"time": 2469, "pitch": 55, "duration": 7, "velocity": 83}, {"time": 2472, "pitch": 58, "duration": 4, "velocity": 88}, {"time": 2475, "pitch": 63, "duration": 4, "velocity": 93}, {"time": 2478, "pitch": 58, "duration": 4, "velocity": 84}, {"time": 2481, "pitch": 55, "duration": 4, "velocity": 84}, {"time": 2481, "pitch": 58, "duration": 1, "velocity": 75}, {"time": 2487, "pitch": 50, "duration": 15, "velocity": 84}, {"time": 2487, "pitch": 57, "duration": 4, "velocity": 78}, {"time": 2487, "pitch": 62, "duration": 5, "velocity": 82}, {"time": 2493, "pitch": 57, "duration": 4, "velocity": 88}, {"time": 2499, "pitch": 57, "duration": 7, "velocity": 83}, {"time": 2499, "pitch": 62, "duration": 6, "velocity": 85}, {"time": 2499, "pitch": 66, "duration": 6, "velocity": 87}, {"time": 2505, "pitch": 50, "duration": 2, "velocity": 85}, {"time": 2511, "pitch": 48, "duration": 17, "velocity": 89}, {"time": 2511, "pitch": 55, "duration": 2, "velocity": 81}, {"time": 2511, "pitch": 60, "duration": 4, "velocity": 81}, {"time": 2511, "pitch": 63, "duration": 4, "velocity": 84}, {"time": 2514, "pitch": 55, "duration": 11, "velocity": 77}, {"time": 2517, "pitch": 60, "duration": 7, "velocity": 85}, {"time": 2520, "pitch": 63, "duration": 3, "velocity": 84}, {"time": 2523, "pitch": 67, "duration": 6, "velocity": 84}, {"time": 2526, "pitch": 63, "duration": 5, "velocity": 91}, {"time": 2529, "pitch": 60, "duration": 3, "velocity": 83}, {"time": 2532, "pitch": 55, "duration": 2, "velocity": 79}, {"time": 2535, "pitch": 46, "duration": 15, "velocity": 85}, {"time": 2535, "pitch": 58, "duration": 4, "velocity": 83}, {"time": 2538, "pitch": 53, "duration": 4, "velocity": 82}, {"time": 2541, "pitch": 58, "duration": 4, "velocity": 83}, {"time": 2544, "pitch": 53, "duration": 1, "velocity": 65}, {"time": 2547, "pitch": 53, "duration": 4, "velocity": 83}, {"time": 2547, "pitch": 58, "duration": 7, "velocity": 87}, {"time": 2547, "pitch": 62, "duration": 7, "velocity": 84}, {"time": 2553, "pitch": 46, "duration": 2, "velocity": 87}, {"time": 2559, "pitch": 39, "duration": 14, "velocity": 93}, {"time": 2559, "pitch": 55, "duration": 3, "velocity": 77}, {"time": 2559, "pitch": 58, "duration": 10, "velocity": 78}, {"time": 2559, "pitch": 63, "duration": 9, "velocity": 79}, {"time": 2565, "pitch": 46, "duration": 9, "velocity": 79}, {"time": 2568, "pitch": 55, "duration": 2, "velocity": 79}, {"time": 2571, "pitch": 55, "duration": 4, "velocity": 82}, {"time": 2571, "pitch": 58, "duration": 4, "velocity": 86}, {"time": 2571, "pitch": 63, "duration": 5, "velocity": 82}, {"time": 2577, "pitch": 39, "duration": 2, "velocity": 73}, {"time": 2583, "pitch": 38, "duration": 2, "velocity": 86}, {"time": 2583, "pitch": 57, "duration": 5, "velocity": 80}, {"time": 2583, "pitch": 62, "duration": 6, "velocity": 82}, {"time": 2589, "pitch": 50, "duration": 11, "velocity": 83}, {"time": 2592, "pitch": 57, "duration": 7, "velocity": 81}, {"time": 2595, "pitch": 62, "duration": 4, "velocity": 83}, {"time": 2598, "pitch": 66, "duration": 4, "velocity": 85}, {"time": 2601, "pitch": 62, "duration": 5, "velocity": 76}, {"time": 2607, "pitch": 43, "duration": 19, "velocity": 82}, {"time": 2607, "pitch": 62, "duration": 4, "velocity": 83}, {"time": 2607, "pitch": 70, "duration": 5, "velocity": 84}, {"time": 2610, "pitch": 50, "duration": 10, "velocity": 78}, {"time": 2613, "pitch": 62, "duration": 1, "velocity": 84}, {"time": 2616, "pitch": 62, "duration": 2, "velocity": 83}, {"time": 2616, "pitch": 67, "duration": 2, "velocity": 84}, {"time": 2619, "pitch": 62, "duration": 4, "velocity": 85}, {"time": 2619, "pitch": 67, "duration": 4, "velocity": 86}, {"time": 2622, "pitch": 50, "duration": 4, "velocity": 79}, {"time": 2625, "pitch": 62, "duration": 2, "velocity": 84}, {"time": 2625, "pitch": 67, "duration": 3, "velocity": 84}, {"time": 2625, "pitch": 70, "duration": 4, "velocity": 85}, {"time": 2631, "pitch": 41, "duration": 19, "velocity": 82}, {"time": 2631, "pitch": 65, "duration": 4, "velocity": 77}, {"time": 2631, "pitch": 69, "duration": 4, "velocity": 84}, {"time": 2637, "pitch": 48, "duration": 8, "velocity": 73}, {"time": 2640, "pitch": 53, "duration": 2, "velocity": 71}, {"time": 2643, "pitch": 53, "duration": 3, "velocity": 84}, {"time": 2643, "pitch": 57, "duration": 3, "velocity": 82}, {"time": 2643, "pitch": 60, "duration": 4, "velocity": 82}, {"time": 2649, "pitch": 48, "duration": 2, "velocity": 83}, {"time": 2655, "pitch": 39, "duration": 1, "velocity": 88}, {"time": 2655, "pitch": 58, "duration": 3, "velocity": 75}, {"time": 2655, "pitch": 63, "duration": 4, "velocity": 83}, {"time": 2661, "pitch": 51, "duration": 4, "velocity": 72}, {"time": 2664, "pitch": 58, "duration": 3, "velocity": 82}, {"time": 2667, "pitch": 63, "duration": 4, "velocity": 91}, {"time": 2670, "pitch": 67, "duration": 2, "velocity": 82}, {"time": 2673, "pitch": 70, "duration": 2, "velocity": 91}, {"time": 2679, "pitch": 38, "duration": 2, "velocity": 86}, {"time": 2679, "pitch": 62, "duration": 7, "velocity": 75}, {"time": 2679, "pitch": 69, "duration": 9, "velocity": 82}, {"time": 2682, "pitch": 50, "duration": 13, "velocity": 82}, {"time": 2685, "pitch": 57, "duration": 7, "velocity": 84}, {"time": 2688, "pitch": 62, "duration": 2, "velocity": 85}, {"time": 2691, "pitch": 62, "duration": 6, "velocity": 84}, {"time": 2691, "pitch": 66, "duration": 5, "velocity": 83}, {"time": 2691, "pitch": 69, "duration": 6, "velocity": 83}, {"time": 2697, "pitch": 50, "duration": 2, "velocity": 83}, {"time": 2703, "pitch": 36, "duration": 14, "velocity": 81}, {"time": 2703, "pitch": 55, "duration": 6, "velocity": 82}, {"time": 2703, "pitch": 63, "duration": 10, "velocity": 82}, {"time": 2709, "pitch": 43, "duration": 8, "velocity": 61}, {"time": 2712, "pitch": 55, "duration": 2, "velocity": 78}, {"time": 2715, "pitch": 55, "duration": 1, "velocity": 74}, {"time": 2715, "pitch": 60, "duration": 6, "velocity": 89}, {"time": 2715, "pitch": 63, "duration": 7, "velocity": 83}, {"time": 2721, "pitch": 55, "duration": 3, "velocity": 87}, {"time": 2727, "pitch": 46, "duration": 15, "velocity": 89}, {"time": 2727, "pitch": 58, "duration": 3, "velocity": 82}, {"time": 2727, "pitch": 62, "duration": 3, "velocity": 83}, {"time": 2730, "pitch": 53, "duration": 13, "velocity": 70}, {"time": 2733, "pitch": 58, "duration": 5, "velocity": 71}, {"time": 2739, "pitch": 58, "duration": 5, "velocity": 83}, {"time": 2739, "pitch": 62, "duration": 6, "velocity": 83}, {"time": 2745, "pitch": 46, "duration": 2, "velocity": 87}, {"time": 2751, "pitch": 39, "duration": 14, "velocity": 96}, {"time": 2751, "pitch": 55, "duration": 7, "velocity": 81}, {"time": 2751, "pitch": 58, "duration": 7, "velocity": 72}, {"time": 2751, "pitch": 63, "duration": 7, "velocity": 80}, {"time": 2757, "pitch": 46, "duration": 11, "velocity": 62}, {"time": 2763, "pitch": 55, "duration": 5, "velocity": 84}, {"time": 2763, "pitch": 58, "duration": 5, "velocity": 87}, {"time": 2763, "pitch": 63, "duration": 5, "velocity": 83}, {"time": 2769, "pitch": 39, "duration": 2, "velocity": 85}, {"time": 2769, "pitch": 55, "duration": 1, "velocity": 83}, {"time": 2769, "pitch": 58, "duration": 2, "velocity": 85}, {"time": 2769, "pitch": 63, "duration": 2, "velocity": 82}, {"time": 2772, "pitch": 38, "duration": 20, "velocity": 91}, {"time": 2772, "pitch": 57, "duration": 32, "velocity": 84}, {"time": 2772, "pitch": 62, "duration": 33, "velocity": 87}, {"time": 2823, "pitch": 43, "duration": 19, "velocity": 75}, {"time": 2823, "pitch": 58, "duration": 13, "velocity": 73}, {"time": 2829, "pitch": 50, "duration": 14, "velocity": 68}, {"time": 2835, "pitch": 55, "duration": 8, "velocity": 85}, {"time": 2841, "pitch": 58, "duration": 2, "velocity": 67}, {"time": 2847, "pitch": 41, "duration": 15, "velocity": 79}, {"time": 2847, "pitch": 53, "duration": 13, "velocity": 67}, {"time": 2847, "pitch": 57, "duration": 8, "velocity": 75}, {"time": 2853, "pitch": 48, "duration": 8, "velocity": 62}, {"time": 2859, "pitch": 57, "duration": 2, "velocity": 82}, {"time": 2859, "pitch": 60, "duration": 2, "velocity": 78}, {"time": 2871, "pitch": 39, "duration": 13, "velocity": 69}, {"time": 2871, "pitch": 63, "duration": 7, "velocity": 72}, {"time": 2877, "pitch": 46, "duration": 7, "velocity": 60}, {"time": 2883, "pitch": 58, "duration": 3, "velocity": 83}, {"time": 2883, "pitch": 63, "duration": 5, "velocity": 80}, {"time": 2895, "pitch": 38, "duration": 14, "velocity": 83}, {"time": 2895, "pitch": 57, "duration": 7, "velocity": 74}, {"time": 2895, "pitch": 62, "duration": 6, "velocity": 79}, {"time": 2901, "pitch": 45, "duration": 8, "velocity": 63}, {"time": 2907, "pitch": 57, "duration": 3, "velocity": 83}, {"time": 2907, "pitch": 62, "duration": 3, "velocity": 84}, {"time": 2919, "pitch": 48, "duration": 17, "velocity": 82}, {"time": 2919, "pitch": 60, "duration": 8, "velocity": 73}, {"time": 2919, "pitch": 63, "duration": 8, "velocity": 70}, {"time": 2919, "pitch": 67, "duration": 11, "velocity": 75}, {"time": 2925, "pitch": 55, "duration": 11, "velocity": 77}, {"time": 2931, "pitch": 60, "duration": 7, "velocity": 78}, {"time": 2937, "pitch": 63, "duration": 6, "velocity": 87}, {"time": 2943, "pitch": 46, "duration": 17, "velocity": 75}, {"time": 2943, "pitch": 62, "duration": 12, "velocity": 83}, {"time": 2949, "pitch": 53, "duration": 10, "velocity": 69}, {"time": 2955, "pitch": 58, "duration": 4, "velocity": 89}, {"time": 2967, "pitch": 51, "duration": 10, "velocity": 84}, {"time": 2967, "pitch": 58, "duration": 7, "velocity": 70}, {"time": 2967, "pitch": 63, "duration": 7, "velocity": 78}, {"time": 2973, "pitch": 55, "duration": 4, "velocity": 76}, {"time": 2979, "pitch": 55, "duration": 3, "velocity": 83}, {"time": 2979, "pitch": 58, "duration": 3, "velocity": 85}, {"time": 2979, "pitch": 63, "duration": 4, "velocity": 79}, {"time": 2991, "pitch": 38, "duration": 23, "velocity": 89}, {"time": 2991, "pitch": 57, "duration": 4, "velocity": 84}, {"time": 2991, "pitch": 62, "duration": 5, "velocity": 85}, {"time": 2994, "pitch": 45, "duration": 11, "velocity": 83}, {"time": 2997, "pitch": 57, "duration": 4, "velocity": 83}, {"time": 3000, "pitch": 62, "duration": 1, "velocity": 77}, {"time": 3003, "pitch": 57, "duration": 4, "velocity": 89}, {"time": 3003, "pitch": 62, "duration": 7, "velocity": 96}, {"time": 3003, "pitch": 66, "duration": 9, "velocity": 93}, {"time": 3006, "pitch": 45, "duration": 8, "velocity": 83}, {"time": 3009, "pitch": 57, "duration": 4, "velocity": 85}, {"time": 3012, "pitch": 62, "duration": 2, "velocity": 79}, {"time": 3015, "pitch": 43, "duration": 21, "velocity": 87}, {"time": 3018, "pitch": 50, "duration": 15, "velocity": 75}, {"time": 3021, "pitch": 55, "duration": 5, "velocity": 83}, {"time": 3024, "pitch": 58, "duration": 3, "velocity": 85}, {"time": 3027, "pitch": 55, "duration": 1, "velocity": 66}, {"time": 3027, "pitch": 58, "duration": 1, "velocity": 71}, {"time": 3027, "pitch": 67, "duration": 4, "velocity": 87}, {"time": 3030, "pitch": 62, "duration": 4, "velocity": 82}, {"time": 3033, "pitch": 58, "duration": 4, "velocity": 84}, {"time": 3036, "pitch": 55, "duration": 2, "velocity": 84}, {"time": 3039, "pitch": 41, "duration": 19, "velocity": 84}, {"time": 3039, "pitch": 53, "duration": 10, "velocity": 82}, {"time": 3039, "pitch": 57, "duration": 8, "velocity": 83}, {"time": 3045, "pitch": 48, "duration": 8, "velocity": 79}, {"time": 3048, "pitch": 57, "duration": 2, "velocity": 68}, {"time": 3048, "pitch": 60, "duration": 2, "velocity": 80}, {"time": 3051, "pitch": 53, "duration": 4, "velocity": 84}, {"time": 3051, "pitch": 57, "duration": 4, "velocity": 84}, {"time": 3051, "pitch": 60, "duration": 4, "velocity": 83}, {"time": 3051, "pitch": 65, "duration": 6, "velocity": 84}, {"time": 3057, "pitch": 48, "duration": 2, "velocity": 81}, {"time": 3063, "pitch": 39, "duration": 15, "velocity": 84}, {"time": 3063, "pitch": 58, "duration": 5, "velocity": 74}, {"time": 3063, "pitch": 63, "duration": 4, "velocity": 78}, {"time": 3066, "pitch": 46, "duration": 12, "velocity": 75}, {"time": 3069, "pitch": 55, "duration": 7, "velocity": 83}, {"time": 3072, "pitch": 58, "duration": 4, "velocity": 88}, {"time": 3075, "pitch": 63, "duration": 4, "velocity": 93}, {"time": 3078, "pitch": 58, "duration": 4, "velocity": 84}, {"time": 3081, "pitch": 55, "duration": 4, "velocity": 84}, {"time": 3081, "pitch": 58, "duration": 1, "velocity": 75}, {"time": 3087, "pitch": 50, "duration": 15, "velocity": 84}, {"time": 3087, "pitch": 57, "duration": 4, "velocity": 78}, {"time": 3087, "pitch": 62, "duration": 5, "velocity": 82}, {"time": 3093, "pitch": 57, "duration": 4, "velocity": 88}, {"time": 3099, "pitch": 57, "duration": 7, "velocity": 83}, {"time": 3099, "pitch": 62, "duration": 6, "velocity": 85}, {"time": 3099, "pitch": 66, "duration": 6, "velocity": 87}, {"time": 3105, "pitch": 50, "duration": 2, "velocity": 85}, {"time": 3111, "pitch": 48, "duration": 17, "velocity": 89}, {"time": 3111, "pitch": 55, "duration": 2, "velocity": 81}, {"time": 3111, "pitch": 60, "duration": 4, "velocity": 81}, {"time": 3111, "pitch": 63, "duration": 4, "velocity": 84}, {"time": 3114, "pitch": 55, "duration": 11, "velocity": 77}, {"time": 3117, "pitch": 60, "duration": 7, "velocity": 85}, {"time": 3120, "pitch": 63, "duration": 3, "velocity": 84}, {"time": 3123, "pitch": 67, "duration": 6, "velocity": 84}, {"time": 3126, "pitch": 63, "duration": 5, "velocity": 91}, {"time": 3129, "pitch": 60, "duration": 3, "velocity": 83}, {"time": 3132, "pitch": 55, "duration": 2, "velocity": 79}, {"time": 3135, "pitch": 46, "duration": 15, "velocity": 85}, {"time": 3135, "pitch": 58, "duration": 4, "velocity": 83}, {"time": 3138, "pitch": 53, "duration": 4, "velocity": 82}, {"time": 3141, "pitch": 58, "duration": 4, "velocity": 83}, {"time": 3144, "pitch": 53, "duration": 1, "velocity": 65}, {"time": 3147, "pitch": 53, "duration": 4, "velocity": 83}, {"time": 3147, "pitch": 58, "duration": 7, "velocity": 87}, {"time": 3147, "pitch": 62, "duration": 7, "velocity": 84}, {"time": 3153, "pitch": 46, "duration": 2, "velocity": 87}, {"time": 3159, "pitch": 39, "duration": 14, "velocity": 93}, {"time": 3159, "pitch": 55, "duration": 3, "velocity": 77}, {"time": 3159, "pitch": 58, "duration": 10, "velocity": 78}, {"time": 3159, "pitch": 63, "duration": 9, "velocity": 79}, {"time": 3165, "pitch": 46, "duration": 9, "velocity": 79}, {"time": 3168, "pitch": 55, "duration": 2, "velocity": 79}, {"time": 3171, "pitch": 55, "duration": 4, "velocity": 82}, {"time": 3171, "pitch": 58, "duration": 4, "velocity": 86}, {"time": 3171, "pitch": 63, "duration": 5, "velocity": 82}, {"time": 3177, "pitch": 39, "duration": 2, "velocity": 73}, {"time": 3183, "pitch": 38, "duration": 2, "velocity": 86}, {"time": 3183, "pitch": 57, "duration": 5, "velocity": 80}, {"time": 3183, "pitch": 62, "duration": 6, "velocity": 82}, {"time": 3189, "pitch": 50, "duration": 11, "velocity": 83}, {"time": 3192, "pitch": 57, "duration": 7, "velocity": 81}, {"time": 3195, "pitch": 62, "duration": 4, "velocity": 83}, {"time": 3198, "pitch": 66, "duration": 4, "velocity": 85}, {"time": 3201, "pitch": 62, "duration": 5, "velocity": 76}, {"time": 3219, "pitch": 43, "duration": 20, "velocity": 82}, {"time": 3225, "pitch": 50, "duration": 18, "velocity": 72}, {"time": 3231, "pitch": 62, "duration": 8, "velocity": 76}, {"time": 3237, "pitch": 55, "duration": 9, "velocity": 74}, {"time": 3243, "pitch": 41, "duration": 15, "velocity": 77}, {"time": 3249, "pitch": 53, "duration": 7, "velocity": 83}, {"time": 3255, "pitch": 60, "duration": 12, "velocity": 75}, {"time": 3267, "pitch": 39, "duration": 12, "velocity": 69}, {"time": 3267, "pitch": 58, "duration": 13, "velocity": 67}, {"time": 3273, "pitch": 46, "duration": 7, "velocity": 63}, {"time": 3279, "pitch": 55, "duration": 8, "velocity": 83}, {"time": 3285, "pitch": 58, "duration": 6, "velocity": 75}, {"time": 3291, "pitch": 38, "duration": 13, "velocity": 77}, {"time": 3291, "pitch": 57, "duration": 10, "velocity": 75}, {"time": 3297, "pitch": 45, "duration": 7, "velocity": 68}, {"time": 3303, "pitch": 62, "duration": 23, "velocity": 82}, {"time": 3315, "pitch": 43, "duration": 22, "velocity": 82}, {"time": 3318, "pitch": 50, "duration": 19, "velocity": 72}, {"time": 3321, "pitch": 55, "duration": 10, "velocity": 79}, {"time": 3324, "pitch": 58, "duration": 7, "velocity": 67}, {"time": 3327, "pitch": 67, "duration": 4, "velocity": 82}, {"time": 3330, "pitch": 62, "duration": 10, "velocity": 75}, {"time": 3333, "pitch": 55, "duration": 8, "velocity": 82}, {"time": 3339, "pitch": 41, "duration": 18, "velocity": 81}, {"time": 3342, "pitch": 48, "duration": 14, "velocity": 70}, {"time": 3345, "pitch": 53, "duration": 7, "velocity": 78}, {"time": 3348, "pitch": 57, "duration": 3, "velocity": 71}, {"time": 3351, "pitch": 60, "duration": 5, "velocity": 80}, {"time": 3354, "pitch": 57, "duration": 4, "velocity": 78}, {"time": 3357, "pitch": 53, "duration": 4, "velocity": 79}, {"time": 3360, "pitch": 57, "duration": 3, "velocity": 76}, {"time": 3363, "pitch": 39, "duration": 13, "velocity": 84}, {"time": 3366, "pitch": 46, "duration": 11, "velocity": 68}, {"time": 3369, "pitch": 55, "duration": 6, "velocity": 71}, {"time": 3372, "pitch": 58, "duration": 4, "velocity": 71}, {"time": 3375, "pitch": 63, "duration": 5, "velocity": 85}, {"time": 3378, "pitch": 58, "duration": 3, "velocity": 83}, {"time": 3381, "pitch": 55, "duration": 5, "velocity": 81}, {"time": 3384, "pitch": 58, "duration": 4, "velocity": 83}, {"time": 3387, "pitch": 38, "duration": 23, "velocity": 84}, {"time": 3392, "pitch": 45, "duration": 16, "velocity": 68}, {"time": 3395, "pitch": 50, "duration": 12, "velocity": 75}, {"time": 3397, "pitch": 54, "duration": 11, "velocity": 68}, {"time": 3399, "pitch": 57, "duration": 10, "velocity": 60}, {"time": 3399, "pitch": 62, "duration": 11, "velocity": 66}], "annotations": [{"time": 16, "annotation": {"number": 64, "value": 127}, "group": "control_change"}, {"time": 38, "annotation": {"number": 64, "value": 0}, "group": "control_change"}, {"time": 41, "annotation": {"number": 64, "value": 127}, "group": "control_change"}, {"time": 63, "annotation": {"number": 64, "value": 0}, "group": "control_change"}, {"time": 68, "annotation": {"number": 64, "value": 127}, "group": "control_change"}, {"time": 86, "annotation": {"number": 64, "value": 0}, "group": "control_change"}, {"time": 91, "annotation": {"number": 64, "value": 127}, "group": "control_change"}, {"time": 118, "annotation": {"number": 64, "value": 127}, "group": "control_change"}, {"time": 118, "annotation": {"number": 64, "value": 0}, "group": "control_change"}, {"time": 119, "annotation": {"number": 64, "value": 127}, "group": "control_change"}, {"time": 134, "annotation": {"number": 64, "value": 0}, "group": "control_change"}, {"time": 138, "annotation": {"number": 64, "value": 127}, "group": "control_change"}, {"time": 157, "annotation": {"number": 64, "value": 0}, "group": "control_change"}, {"time": 161, "annotation": {"number": 64, "value": 127}, "group": "control_change"}, {"time": 180, "annotation": {"number": 64, "value": 0}, "group": "control_change"}, {"time": 184, "annotation": {"number": 64, "value": 127}, "group": "control_change"}, {"time": 205, "annotation": {"number": 64, "value": 0}, "group": "control_change"}, {"time": 209, "annotation": {"number": 64, "value": 127}, "group": "control_change"}, {"time": 230, "annotation": {"number": 64, "value": 0}, "group": "control_change"}, {"time": 237, "annotation": {"number": 64, "value": 127}, "group": "control_change"}, {"time": 255, "annotation": {"number": 64, "value": 0}, "group": "control_change"}, {"time": 268, "annotation": {"number": 64, "value": 127}, "group": "control_change"}, {"time": 278, "annotation": {"number": 64, "value": 0}, "group": "control_change"}, {"time": 284, "annotation": {"number": 64, "value": 127}, "group": "control_change"}, {"time": 303, "annotation": {"number": 64, "value": 0}, "group": "control_change"}, {"time": 316, "annotation": {"number": 64, "value": 127}, "group": "control_change"}, {"time": 316, "annotation": {"number": 64, "value": 0}, "group": "control_change"}, {"time": 327, "annotation": {"number": 64, "value": 0}, "group": "control_change"}, {"time": 343, "annotation": {"number": 64, "value": 127}, "group": "control_change"}, {"time": 343, "annotation": {"number": 64, "value": 0}, "group": "control_change"}, {"time": 351, "annotation": {"number": 64, "value": 0}, "group": "control_change"}, {"time": 364, "annotation": {"number": 64, "value": 127}, "group": "control_change"}, {"time": 374, "annotation": {"number": 64, "value": 0}, "group": "control_change"}, {"time": 380, "annotation": {"number": 64, "value": 127}, "group": "control_change"}, {"time": 397, "annotation": {"number": 64, "value": 0}, "group": "control_change"}, {"time": 406, "annotation": {"number": 64, "value": 127}, "group": "control_change"}, {"time": 421, "annotation": {"number": 64, "value": 0}, "group": "control_change"}, {"time": 429, "annotation": {"number": 64, "value": 127}, "group": "control_change"}, {"time": 447, "annotation": {"number": 64, "value": 0}, "group": "control_change"}, {"time": 452, "annotation": {"number": 64, "value": 127}, "group": "control_change"}, {"time": 471, "annotation": {"number": 64, "value": 0}, "group": "control_change"}, {"time": 474, "annotation": {"number": 64, "value": 127}, "group": "control_change"}, {"time": 494, "annotation": {"number": 64, "value": 0}, "group": "control_change"}, {"time": 500, "annotation": {"number": 64, "value": 127}, "group": "control_change"}, {"time": 518, "annotation": {"number": 64, "value": 0}, "group": "control_change"}, {"time": 524, "annotation": {"number": 64, "value": 127}, "group": "control_change"}, {"time": 541, "annotation": {"number": 64, "value": 0}, "group": "control_change"}, {"time": 543, "annotation": {"number": 64, "value": 127}, "group": "control_change"}, {"time": 553, "annotation": {"number": 64, "value": 0}, "group": "control_change"}, {"time": 555, "annotation": {"number": 64, "value": 127}, "group": "control_change"}, {"time": 567, "annotation": {"number": 64, "value": 0}, "group": "control_change"}, {"time": 573, "annotation": {"number": 64, "value": 127}, "group": "control_change"}, {"time": 589, "annotation": {"number": 64, "value": 0}, "group": "control_change"}, {"time": 592, "annotation": {"number": 64, "value": 127}, "group": "control_change"}, {"time": 592, "annotation": {"number": 64, "value": 0}, "group": "control_change"}, {"time": 593, "annotation": {"number": 64, "value": 127}, "group": "control_change"}, {"time": 614, "annotation": {"number": 64, "value": 0}, "group": "control_change"}, {"time": 616, "annotation": {"number": 64, "value": 127}, "group": "control_change"}, {"time": 637, "annotation": {"number": 64, "value": 0}, "group": "control_change"}, {"time": 639, "annotation": {"number": 64, "value": 127}, "group": "control_change"}, {"time": 662, "annotation": {"number": 64, "value": 0}, "group": "control_change"}, {"time": 665, "annotation": {"number": 64, "value": 127}, "group": "control_change"}, {"time": 685, "annotation": {"number": 64, "value": 0}, "group": "control_change"}, {"time": 688, "annotation": {"number": 64, "value": 127}, "group": "control_change"}, {"time": 709, "annotation": {"number": 64, "value": 0}, "group": "control_change"}, {"time": 712, "annotation": {"number": 64, "value": 127}, "group": "control_change"}, {"time": 712, "annotation": {"number": 64, "value": 0}, "group": "control_change"}, {"time": 734, "annotation": {"number": 64, "value": 0}, "group": "control_change"}, {"time": 736, "annotation": {"number": 64, "value": 127}, "group": "control_change"}, {"time": 758, "annotation": {"number": 64, "value": 0}, "group": "control_change"}, {"time": 759, "annotation": {"number": 64, "value": 127}, "group": "control_change"}, {"time": 781, "annotation": {"number": 64, "value": 0}, "group": "control_change"}, {"time": 784, "annotation": {"number": 64, "value": 127}, "group": "control_change"}, {"time": 784, "annotation": {"number": 64, "value": 0}, "group": "control_change"}, {"time": 806, "annotation": {"number": 64, "value": 0}, "group": "control_change"}, {"time": 808, "annotation": {"number": 64, "value": 127}, "group": "control_change"}, {"time": 829, "annotation": {"number": 64, "value": 0}, "group": "control_change"}, {"time": 831, "annotation": {"number": 64, "value": 127}, "group": "control_change"}, {"time": 854, "annotation": {"number": 64, "value": 0}, "group": "control_change"}, {"time": 856, "annotation": {"number": 64, "value": 127}, "group": "control_change"}, {"time": 878, "annotation": {"number": 64, "value": 0}, "group": "control_change"}, {"time": 879, "annotation": {"number": 64, "value": 127}, "group": "control_change"}, {"time": 901, "annotation": {"number": 64, "value": 0}, "group": "control_change"}, {"time": 904, "annotation": {"number": 64, "value": 127}, "group": "control_change"}, {"time": 926, "annotation": {"number": 64, "value": 0}, "group": "control_change"}, {"time": 928, "annotation": {"number": 64, "value": 127}, "group": "control_change"}, {"time": 949, "annotation": {"number": 64, "value": 0}, "group": "control_change"}, {"time": 951, "annotation": {"number": 64, "value": 127}, "group": "control_change"}, {"time": 973, "annotation": {"number": 64, "value": 0}, "group": "control_change"}, {"time": 975, "annotation": {"number": 64, "value": 127}, "group": "control_change"}, {"time": 997, "annotation": {"number": 64, "value": 0}, "group": "control_change"}, {"time": 999, "annotation": {"number": 64, "value": 127}, "group": "control_change"}, {"time": 1021, "annotation": {"number": 64, "value": 0}, "group": "control_change"}, {"time": 1024, "annotation": {"number": 64, "value": 127}, "group": "control_change"}, {"time": 1045, "annotation": {"number": 64, "value": 0}, "group": "control_change"}, {"time": 1047, "annotation": {"number": 64, "value": 127}, "group": "control_change"}, {"time": 1069, "annotation": {"number": 64, "value": 0}, "group": "control_change"}, {"time": 1071, "annotation": {"number": 64, "value": 127}, "group": "control_change"}, {"time": 1094, "annotation": {"number": 64, "value": 0}, "group": "control_change"}, {"time": 1096, "annotation": {"number": 64, "value": 127}, "group": "control_change"}, {"time": 1117, "annotation": {"number": 64, "value": 0}, "group": "control_change"}, {"time": 1119, "annotation": {"number": 64, "value": 127}, "group": "control_change"}, {"time": 1142, "annotation": {"number": 64, "value": 0}, "group": "control_change"}, {"time": 1143, "annotation": {"number": 64, "value": 127}, "group": "control_change"}, {"time": 1165, "annotation": {"number": 64, "value": 0}, "group": "control_change"}, {"time": 1171, "annotation": {"number": 64, "value": 127}, "group": "control_change"}, {"time": 1192, "annotation": {"number": 64, "value": 0}, "group": "control_change"}, {"time": 1197, "annotation": {"number": 64, "value": 127}, "group": "control_change"}, {"time": 1213, "annotation": {"number": 64, "value": 0}, "group": "control_change"}, {"time": 1217, "annotation": {"number": 64, "value": 127}, "group": "control_change"}, {"time": 1238, "annotation": {"number": 64, "value": 127}, "group": "control_change"}, {"time": 1238, "annotation": {"number": 64, "value": 0}, "group": "control_change"}, {"time": 1240, "annotation": {"number": 64, "value": 0}, "group": "control_change"}, {"time": 1264, "annotation": {"number": 64, "value": 127}, "group": "control_change"}, {"time": 1264, "annotation": {"number": 64, "value": 0}, "group": "control_change"}, {"time": 1286, "annotation": {"number": 64, "value": 0}, "group": "control_change"}, {"time": 1288, "annotation": {"number": 64, "value": 127}, "group": "control_change"}, {"time": 1309, "annotation": {"number": 64, "value": 0}, "group": "control_change"}, {"time": 1311, "annotation": {"number": 64, "value": 127}, "group": "control_change"}, {"time": 1334, "annotation": {"number": 64, "value": 0}, "group": "control_change"}, {"time": 1336, "annotation": {"number": 64, "value": 127}, "group": "control_change"}, {"time": 1358, "annotation": {"number": 64, "value": 0}, "group": "control_change"}, {"time": 1359, "annotation": {"number": 64, "value": 127}, "group": "control_change"}, {"time": 1381, "annotation": {"number": 64, "value": 0}, "group": "control_change"}, {"time": 1384, "annotation": {"number": 64, "value": 127}, "group": "control_change"}, {"time": 1406, "annotation": {"number": 64, "value": 0}, "group": "control_change"}, {"time": 1408, "annotation": {"number": 64, "value": 127}, "group": "control_change"}, {"time": 1429, "annotation": {"number": 64, "value": 0}, "group": "control_change"}, {"time": 1431, "annotation": {"number": 64, "value": 127}, "group": "control_change"}, {"time": 1453, "annotation": {"number": 64, "value": 0}, "group": "control_change"}, {"time": 1455, "annotation": {"number": 64, "value": 127}, "group": "control_change"}, {"time": 1477, "annotation": {"number": 64, "value": 0}, "group": "control_change"}, {"time": 1479, "annotation": {"number": 64, "value": 127}, "group": "control_change"}, {"time": 1501, "annotation": {"number": 64, "value": 0}, "group": "control_change"}, {"time": 1504, "annotation": {"number": 64, "value": 127}, "group": "control_change"}, {"time": 1525, "annotation": {"number": 64, "value": 0}, "group": "control_change"}, {"time": 1527, "annotation": {"number": 64, "value": 127}, "group": "control_change"}, {"time": 1549, "annotation": {"number": 64, "value": 0}, "group": "control_change"}, {"time": 1551, "annotation": {"number": 64, "value": 127}, "group": "control_change"}, {"time": 1574, "annotation": {"number": 64, "value": 0}, "group": "control_change"}, {"time": 1576, "annotation": {"number": 64, "value": 127}, "group": "control_change"}, {"time": 1597, "annotation": {"number": 64, "value": 0}, "group": "control_change"}, {"time": 1599, "annotation": {"number": 64, "value": 127}, "group": "control_change"}, {"time": 1622, "annotation": {"number": 64, "value": 0}, "group": "control_change"}, {"time": 1623, "annotation": {"number": 64, "value": 127}, "group": "control_change"}, {"time": 1645, "annotation": {"number": 64, "value": 0}, "group": "control_change"}, {"time": 1649, "annotation": {"number": 64, "value": 127}, "group": "control_change"}, {"time": 1670, "annotation": {"number": 64, "value": 0}, "group": "control_change"}, {"time": 1677, "annotation": {"number": 64, "value": 127}, "group": "control_change"}, {"time": 1695, "annotation": {"number": 64, "value": 0}, "group": "control_change"}, {"time": 1708, "annotation": {"number": 64, "value": 127}, "group": "control_change"}, {"time": 1718, "annotation": {"number": 64, "value": 0}, "group": "control_change"}, {"time": 1724, "annotation": {"number": 64, "value": 127}, "group": "control_change"}, {"time": 1743, "annotation": {"number": 64, "value": 0}, "group": "control_change"}, {"time": 1756, "annotation": {"number": 64, "value": 127}, "group": "control_change"}, {"time": 1756, "annotation": {"number": 64, "value": 0}, "group": "control_change"}, {"time": 1767, "annotation": {"number": 64, "value": 0}, "group": "control_change"}, {"time": 1783, "annotation": {"number": 64, "value": 127}, "group": "control_change"}, {"time": 1783, "annotation": {"number": 64, "value": 0}, "group": "control_change"}, {"time": 1791, "annotation": {"number": 64, "value": 0}, "group": "control_change"}, {"time": 1804, "annotation": {"number": 64, "value": 127}, "group": "control_change"}, {"time": 1814, "annotation": {"number": 64, "value": 0}, "group": "control_change"}, {"time": 1820, "annotation": {"number": 64, "value": 127}, "group": "control_change"}, {"time": 1837, "annotation": {"number": 64, "value": 0}, "group": "control_change"}, {"time": 1846, "annotation": {"number": 64, "value": 127}, "group": "control_change"}, {"time": 1861, "annotation": {"number": 64, "value": 0}, "group": "control_change"}, {"time": 1869, "annotation": {"number": 64, "value": 127}, "group": "control_change"}, {"time": 1887, "annotation": {"number": 64, "value": 0}, "group": "control_change"}, {"time": 1892, "annotation": {"number": 64, "value": 127}, "group": "control_change"}, {"time": 1911, "annotation": {"number": 64, "value": 0}, "group": "control_change"}, {"time": 1914, "annotation": {"number": 64, "value": 127}, "group": "control_change"}, {"time": 1934, "annotation": {"number": 64, "value": 0}, "group": "control_change"}, {"time": 1940, "annotation": {"number": 64, "value": 127}, "group": "control_change"}, {"time": 1958, "annotation": {"number": 64, "value": 0}, "group": "control_change"}, {"time": 1964, "annotation": {"number": 64, "value": 127}, "group": "control_change"}, {"time": 1981, "annotation": {"number": 64, "value": 0}, "group": "control_change"}, {"time": 1983, "annotation": {"number": 64, "value": 127}, "group": "control_change"}, {"time": 1993, "annotation": {"number": 64, "value": 0}, "group": "control_change"}, {"time": 1995, "annotation": {"number": 64, "value": 127}, "group": "control_change"}, {"time": 2007, "annotation": {"number": 64, "value": 0}, "group": "control_change"}, {"time": 2013, "annotation": {"number": 64, "value": 127}, "group": "control_change"}, {"time": 2029, "annotation": {"number": 64, "value": 0}, "group": "control_change"}, {"time": 2032, "annotation": {"number": 64, "value": 127}, "group": "control_change"}, {"time": 2032, "annotation": {"number": 64, "value": 0}, "group": "control_change"}, {"time": 2033, "annotation": {"number": 64, "value": 127}, "group": "control_change"}, {"time": 2054, "annotation": {"number": 64, "value": 0}, "group": "control_change"}, {"time": 2056, "annotation": {"number": 64, "value": 127}, "group": "control_change"}, {"time": 2077, "annotation": {"number": 64, "value": 0}, "group": "control_change"}, {"time": 2079, "annotation": {"number": 64, "value": 127}, "group": "control_change"}, {"time": 2102, "annotation": {"number": 64, "value": 0}, "group": "control_change"}, {"time": 2105, "annotation": {"number": 64, "value": 127}, "group": "control_change"}, {"time": 2125, "annotation": {"number": 64, "value": 0}, "group": "control_change"}, {"time": 2128, "annotation": {"number": 64, "value": 127}, "group": "control_change"}, {"time": 2149, "annotation": {"number": 64, "value": 0}, "group": "control_change"}, {"time": 2152, "annotation": {"number": 64, "value": 127}, "group": "control_change"}, {"time": 2152, "annotation": {"number": 64, "value": 0}, "group": "control_change"}, {"time": 2174, "annotation": {"number": 64, "value": 0}, "group": "control_change"}, {"time": 2176, "annotation": {"number": 64, "value": 127}, "group": "control_change"}, {"time": 2198, "annotation": {"number": 64, "value": 0}, "group": "control_change"}, {"time": 2199, "annotation": {"number": 64, "value": 127}, "group": "control_change"}, {"time": 2221, "annotation": {"number": 64, "value": 0}, "group": "control_change"}, {"time": 2224, "annotation": {"number": 64, "value": 127}, "group": "control_change"}, {"time": 2224, "annotation": {"number": 64, "value": 0}, "group": "control_change"}, {"time": 2246, "annotation": {"number": 64, "value": 0}, "group": "control_change"}, {"time": 2248, "annotation": {"number": 64, "value": 127}, "group": "control_change"}, {"time": 2269, "annotation": {"number": 64, "value": 0}, "group": "control_change"}, {"time": 2271, "annotation": {"number": 64, "value": 127}, "group": "control_change"}, {"time": 2294, "annotation": {"number": 64, "value": 0}, "group": "control_change"}, {"time": 2296, "annotation": {"number": 64, "value": 127}, "group": "control_change"}, {"time": 2318, "annotation": {"number": 64, "value": 0}, "group": "control_change"}, {"time": 2319, "annotation": {"number": 64, "value": 127}, "group": "control_change"}, {"time": 2341, "annotation": {"number": 64, "value": 0}, "group": "control_change"}, {"time": 2344, "annotation": {"number": 64, "value": 127}, "group": "control_change"}, {"time": 2366, "annotation": {"number": 64, "value": 0}, "group": "control_change"}, {"time": 2368, "annotation": {"number": 64, "value": 127}, "group": "control_change"}, {"time": 2389, "annotation": {"number": 64, "value": 0}, "group": "control_change"}, {"time": 2391, "annotation": {"number": 64, "value": 127}, "group": "control_change"}, {"time": 2413, "annotation": {"number": 64, "value": 0}, "group": "control_change"}, {"time": 2415, "annotation": {"number": 64, "value": 127}, "group": "control_change"}, {"time": 2437, "annotation": {"number": 64, "value": 0}, "group": "control_change"}, {"time": 2439, "annotation": {"number": 64, "value": 127}, "group": "control_change"}, {"time": 2461, "annotation": {"number": 64, "value": 0}, "group": "control_change"}, {"time": 2464, "annotation": {"number": 64, "value": 127}, "group": "control_change"}, {"time": 2485, "annotation": {"number": 64, "value": 0}, "group": "control_change"}, {"time": 2487, "annotation": {"number": 64, "value": 127}, "group": "control_change"}, {"time": 2509, "annotation": {"number": 64, "value": 0}, "group": "control_change"}, {"time": 2511, "annotation": {"number": 64, "value": 127}, "group": "control_change"}, {"time": 2534, "annotation": {"number": 64, "value": 0}, "group": "control_change"}, {"time": 2536, "annotation": {"number": 64, "value": 127}, "group": "control_change"}, {"time": 2557, "annotation": {"number": 64, "value": 0}, "group": "control_change"}, {"time": 2559, "annotation": {"number": 64, "value": 127}, "group": "control_change"}, {"time": 2582, "annotation": {"number": 64, "value": 0}, "group": "control_change"}, {"time": 2583, "annotation": {"number": 64, "value": 127}, "group": "control_change"}, {"time": 2605, "annotation": {"number": 64, "value": 0}, "group": "control_change"}, {"time": 2608, "annotation": {"number": 64, "value": 127}, "group": "control_change"}, {"time": 2608, "annotation": {"number": 64, "value": 0}, "group": "control_change"}, {"time": 2630, "annotation": {"number": 64, "value": 0}, "group": "control_change"}, {"time": 2632, "annotation": {"number": 64, "value": 127}, "group": "control_change"}, {"time": 2653, "annotation": {"number": 64, "value": 0}, "group": "control_change"}, {"time": 2655, "annotation": {"number": 64, "value": 127}, "group": "control_change"}, {"time": 2678, "annotation": {"number": 64, "value": 0}, "group": "control_change"}, {"time": 2680, "annotation": {"number": 64, "value": 127}, "group": "control_change"}, {"time": 2702, "annotation": {"number": 64, "value": 0}, "group": "control_change"}, {"time": 2703, "annotation": {"number": 64, "value": 127}, "group": "control_change"}, {"time": 2725, "annotation": {"number": 64, "value": 0}, "group": "control_change"}, {"time": 2728, "annotation": {"number": 64, "value": 127}, "group": "control_change"}, {"time": 2750, "annotation": {"number": 64, "value": 0}, "group": "control_change"}, {"time": 2752, "annotation": {"number": 64, "value": 127}, "group": "control_change"}, {"time": 2771, "annotation": {"number": 64, "value": 0}, "group": "control_change"}, {"time": 2773, "annotation": {"number": 64, "value": 127}, "group": "control_change"}, {"time": 2819, "annotation": {"number": 64, "value": 0}, "group": "control_change"}, {"time": 2824, "annotation": {"number": 64, "value": 127}, "group": "control_change"}, {"time": 2824, "annotation": {"number": 64, "value": 0}, "group": "control_change"}, {"time": 2846, "annotation": {"number": 64, "value": 0}, "group": "control_change"}, {"time": 2848, "annotation": {"number": 64, "value": 127}, "group": "control_change"}, {"time": 2868, "annotation": {"number": 64, "value": 0}, "group": "control_change"}, {"time": 2872, "annotation": {"number": 64, "value": 127}, "group": "control_change"}, {"time": 2894, "annotation": {"number": 64, "value": 0}, "group": "control_change"}, {"time": 2897, "annotation": {"number": 64, "value": 127}, "group": "control_change"}, {"time": 2918, "annotation": {"number": 64, "value": 0}, "group": "control_change"}, {"time": 2922, "annotation": {"number": 64, "value": 127}, "group": "control_change"}, {"time": 2941, "annotation": {"number": 64, "value": 0}, "group": "control_change"}, {"time": 2945, "annotation": {"number": 64, "value": 127}, "group": "control_change"}, {"time": 2966, "annotation": {"number": 64, "value": 0}, "group": "control_change"}, {"time": 2968, "annotation": {"number": 64, "value": 127}, "group": "control_change"}, {"time": 2988, "annotation": {"number": 64, "value": 0}, "group": "control_change"}, {"time": 2991, "annotation": {"number": 64, "value": 127}, "group": "control_change"}, {"time": 3012, "annotation": {"number": 64, "value": 0}, "group": "control_change"}, {"time": 3015, "annotation": {"number": 64, "value": 127}, "group": "control_change"}, {"time": 3037, "annotation": {"number": 64, "value": 0}, "group": "control_change"}, {"time": 3039, "annotation": {"number": 64, "value": 127}, "group": "control_change"}, {"time": 3061, "annotation": {"number": 64, "value": 0}, "group": "control_change"}, {"time": 3064, "annotation": {"number": 64, "value": 127}, "group": "control_change"}, {"time": 3085, "annotation": {"number": 64, "value": 0}, "group": "control_change"}, {"time": 3087, "annotation": {"number": 64, "value": 127}, "group": "control_change"}, {"time": 3109, "annotation": {"number": 64, "value": 0}, "group": "control_change"}, {"time": 3111, "annotation": {"number": 64, "value": 127}, "group": "control_change"}, {"time": 3134, "annotation": {"number": 64, "value": 0}, "group": "control_change"}, {"time": 3136, "annotation": {"number": 64, "value": 127}, "group": "control_change"}, {"time": 3157, "annotation": {"number": 64, "value": 0}, "group": "control_change"}, {"time": 3159, "annotation": {"number": 64, "value": 127}, "group": "control_change"}, {"time": 3182, "annotation": {"number": 64, "value": 0}, "group": "control_change"}, {"time": 3183, "annotation": {"number": 64, "value": 127}, "group": "control_change"}, {"time": 3205, "annotation": {"number": 64, "value": 0}, "group": "control_change"}, {"time": 3220, "annotation": {"number": 64, "value": 127}, "group": "control_change"}, {"time": 3242, "annotation": {"number": 64, "value": 0}, "group": "control_change"}, {"time": 3245, "annotation": {"number": 64, "value": 127}, "group": "control_change"}, {"time": 3267, "annotation": {"number": 64, "value": 0}, "group": "control_change"}, {"time": 3272, "annotation": {"number": 64, "value": 127}, "group": "control_change"}, {"time": 3290, "annotation": {"number": 64, "value": 0}, "group": "control_change"}, {"time": 3295, "annotation": {"number": 64, "value": 127}, "group": "control_change"}, {"time": 3322, "annotation": {"number": 64, "value": 127}, "group": "control_change"}, {"time": 3322, "annotation": {"number": 64, "value": 0}, "group": "control_change"}, {"time": 3323, "annotation": {"number": 64, "value": 127}, "group": "control_change"}, {"time": 3338, "annotation": {"number": 64, "value": 0}, "group": "control_change"}, {"time": 3342, "annotation": {"number": 64, "value": 127}, "group": "control_change"}, {"time": 3361, "annotation": {"number": 64, "value": 0}, "group": "control_change"}, {"time": 3365, "annotation": {"number": 64, "value": 127}, "group": "control_change"}, {"time": 3384, "annotation": {"number": 64, "value": 0}, "group": "control_change"}, {"time": 3390, "annotation": {"number": 64, "value": 127}, "group": "control_change"}, {"time": 3431, "annotation": {"number": 64, "value": 0}, "group": "control_change"}]}]}