{"metadata": {"schema_version": "0.2", "title": "None", "source_filename": "533.mid", "source_format": "midi"}, "resolution": 12, "tempos": [{"time": 0, "qpm": 101.00006901671382}], "time_signatures": [{"time": 0, "numerator": 1, "denominator": 4}], "tracks": [{"program": 0, "is_drum": false, "name": "MELODY", "notes": [{"time": 467, "pitch": 66, "duration": 2, "velocity": 88}, {"time": 473, "pitch": 66, "duration": 2, "velocity": 85}, {"time": 479, "pitch": 66, "duration": 5, "velocity": 86}, {"time": 485, "pitch": 73, "duration": 3, "velocity": 81}, {"time": 491, "pitch": 73, "duration": 4, "velocity": 86}, {"time": 497, "pitch": 68, "duration": 12, "velocity": 83}, {"time": 509, "pitch": 68, "duration": 2, "velocity": 70}, {"time": 515, "pitch": 68, "duration": 3, "velocity": 80}, {"time": 521, "pitch": 68, "duration": 3, "velocity": 83}, {"time": 527, "pitch": 68, "duration": 4, "velocity": 81}, {"time": 533, "pitch": 66, "duration": 4, "velocity": 86}, {"time": 539, "pitch": 65, "duration": 4, "velocity": 90}, {"time": 545, "pitch": 66, "duration": 7, "velocity": 82}, {"time": 557, "pitch": 66, "duration": 2, "velocity": 81}, {"time": 563, "pitch": 66, "duration": 2, "velocity": 81}, {"time": 569, "pitch": 66, "duration": 2, "velocity": 79}, {"time": 575, "pitch": 66, "duration": 2, "velocity": 80}, {"time": 581, "pitch": 66, "duration": 2, "velocity": 79}, {"time": 587, "pitch": 66, "duration": 2, "velocity": 80}, {"time": 593, "pitch": 66, "duration": 3, "velocity": 80}, {"time": 599, "pitch": 66, "duration": 2, "velocity": 83}, {"time": 605, "pitch": 66, "duration": 3, "velocity": 82}, {"time": 611, "pitch": 73, "duration": 10, "velocity": 86}, {"time": 623, "pitch": 66, "duration": 6, "velocity": 86}, {"time": 629, "pitch": 66, "duration": 4, "velocity": 85}, {"time": 635, "pitch": 73, "duration": 12, "velocity": 76}, {"time": 647, "pitch": 73, "duration": 1, "velocity": 80}, {"time": 650, "pitch": 73, "duration": 1, "velocity": 74}, {"time": 653, "pitch": 73, "duration": 1, "velocity": 78}, {"time": 656, "pitch": 73, "duration": 1, "velocity": 79}, {"time": 659, "pitch": 73, "duration": 1, "velocity": 79}, {"time": 662, "pitch": 73, "duration": 1, "velocity": 77}, {"time": 665, "pitch": 73, "duration": 1, "velocity": 74}, {"time": 668, "pitch": 73, "duration": 1, "velocity": 79}, {"time": 671, "pitch": 73, "duration": 1, "velocity": 81}, {"time": 677, "pitch": 66, "duration": 4, "velocity": 80}, {"time": 683, "pitch": 68, "duration": 4, "velocity": 71}, {"time": 689, "pitch": 66, "duration": 3, "velocity": 83}, {"time": 695, "pitch": 66, "duration": 3, "velocity": 83}, {"time": 701, "pitch": 66, "duration": 3, "velocity": 80}, {"time": 707, "pitch": 66, "duration": 5, "velocity": 77}, {"time": 713, "pitch": 61, "duration": 3, "velocity": 83}, {"time": 719, "pitch": 61, "duration": 4, "velocity": 83}, {"time": 725, "pitch": 70, "duration": 4, "velocity": 80}, {"time": 731, "pitch": 70, "duration": 10, "velocity": 83}, {"time": 743, "pitch": 71, "duration": 2, "velocity": 62}, {"time": 749, "pitch": 71, "duration": 1, "velocity": 80}, {"time": 752, "pitch": 71, "duration": 1, "velocity": 74}, {"time": 755, "pitch": 71, "duration": 2, "velocity": 80}, {"time": 761, "pitch": 71, "duration": 2, "velocity": 86}, {"time": 767, "pitch": 71, "duration": 2, "velocity": 81}, {"time": 773, "pitch": 71, "duration": 3, "velocity": 81}, {"time": 779, "pitch": 73, "duration": 4, "velocity": 81}, {"time": 785, "pitch": 68, "duration": 19, "velocity": 83}, {"time": 851, "pitch": 66, "duration": 2, "velocity": 88}, {"time": 857, "pitch": 66, "duration": 2, "velocity": 85}, {"time": 863, "pitch": 66, "duration": 5, "velocity": 86}, {"time": 869, "pitch": 73, "duration": 3, "velocity": 81}, {"time": 875, "pitch": 73, "duration": 4, "velocity": 86}, {"time": 881, "pitch": 68, "duration": 12, "velocity": 83}, {"time": 893, "pitch": 68, "duration": 2, "velocity": 70}, {"time": 899, "pitch": 68, "duration": 3, "velocity": 80}, {"time": 905, "pitch": 68, "duration": 3, "velocity": 83}, {"time": 911, "pitch": 68, "duration": 4, "velocity": 81}, {"time": 917, "pitch": 70, "duration": 4, "velocity": 86}, {"time": 923, "pitch": 71, "duration": 4, "velocity": 90}, {"time": 929, "pitch": 70, "duration": 7, "velocity": 82}, {"time": 941, "pitch": 70, "duration": 2, "velocity": 80}, {"time": 947, "pitch": 70, "duration": 2, "velocity": 80}, {"time": 953, "pitch": 70, "duration": 2, "velocity": 79}, {"time": 959, "pitch": 70, "duration": 4, "velocity": 82}, {"time": 965, "pitch": 68, "duration": 2, "velocity": 81}, {"time": 971, "pitch": 66, "duration": 3, "velocity": 82}, {"time": 977, "pitch": 66, "duration": 3, "velocity": 80}, {"time": 983, "pitch": 65, "duration": 4, "velocity": 86}, {"time": 989, "pitch": 77, "duration": 3, "velocity": 80}, {"time": 995, "pitch": 77, "duration": 5, "velocity": 83}, {"time": 1001, "pitch": 75, "duration": 3, "velocity": 83}, {"time": 1007, "pitch": 75, "duration": 5, "velocity": 86}, {"time": 1013, "pitch": 73, "duration": 6, "velocity": 81}, {"time": 1019, "pitch": 70, "duration": 2, "velocity": 80}, {"time": 1022, "pitch": 68, "duration": 2, "velocity": 74}, {"time": 1025, "pitch": 66, "duration": 3, "velocity": 79}, {"time": 1031, "pitch": 66, "duration": 1, "velocity": 83}, {"time": 1034, "pitch": 66, "duration": 1, "velocity": 78}, {"time": 1037, "pitch": 66, "duration": 2, "velocity": 78}, {"time": 1043, "pitch": 66, "duration": 2, "velocity": 81}, {"time": 1049, "pitch": 66, "duration": 2, "velocity": 84}, {"time": 1052, "pitch": 66, "duration": 6, "velocity": 86}, {"time": 1061, "pitch": 68, "duration": 2, "velocity": 80}, {"time": 1067, "pitch": 70, "duration": 2, "velocity": 81}, {"time": 1073, "pitch": 66, "duration": 2, "velocity": 80}, {"time": 1079, "pitch": 66, "duration": 1, "velocity": 80}, {"time": 1082, "pitch": 66, "duration": 1, "velocity": 80}, {"time": 1085, "pitch": 66, "duration": 2, "velocity": 74}, {"time": 1091, "pitch": 66, "duration": 2, "velocity": 79}, {"time": 1097, "pitch": 66, "duration": 1, "velocity": 80}, {"time": 1100, "pitch": 66, "duration": 1, "velocity": 77}, {"time": 1103, "pitch": 66, "duration": 2, "velocity": 80}, {"time": 1109, "pitch": 68, "duration": 3, "velocity": 79}, {"time": 1115, "pitch": 70, "duration": 4, "velocity": 80}, {"time": 1121, "pitch": 66, "duration": 4, "velocity": 81}, {"time": 1127, "pitch": 71, "duration": 3, "velocity": 80}, {"time": 1133, "pitch": 71, "duration": 3, "velocity": 81}, {"time": 1139, "pitch": 71, "duration": 3, "velocity": 80}, {"time": 1145, "pitch": 70, "duration": 3, "velocity": 80}, {"time": 1151, "pitch": 71, "duration": 3, "velocity": 80}, {"time": 1157, "pitch": 73, "duration": 3, "velocity": 77}, {"time": 1163, "pitch": 70, "duration": 3, "velocity": 81}, {"time": 1169, "pitch": 68, "duration": 21, "velocity": 77}, {"time": 1193, "pitch": 66, "duration": 3, "velocity": 88}, {"time": 1199, "pitch": 66, "duration": 4, "velocity": 81}, {"time": 1205, "pitch": 68, "duration": 3, "velocity": 83}, {"time": 1211, "pitch": 68, "duration": 4, "velocity": 83}, {"time": 1217, "pitch": 66, "duration": 4, "velocity": 83}, {"time": 1223, "pitch": 70, "duration": 14, "velocity": 82}, {"time": 1241, "pitch": 66, "duration": 4, "velocity": 81}, {"time": 1247, "pitch": 66, "duration": 4, "velocity": 82}, {"time": 1253, "pitch": 68, "duration": 3, "velocity": 81}, {"time": 1259, "pitch": 68, "duration": 3, "velocity": 83}, {"time": 1265, "pitch": 66, "duration": 5, "velocity": 81}, {"time": 1271, "pitch": 73, "duration": 12, "velocity": 81}, {"time": 1289, "pitch": 73, "duration": 4, "velocity": 85}, {"time": 1295, "pitch": 73, "duration": 5, "velocity": 85}, {"time": 1301, "pitch": 75, "duration": 3, "velocity": 84}, {"time": 1307, "pitch": 75, "duration": 4, "velocity": 85}, {"time": 1313, "pitch": 73, "duration": 5, "velocity": 85}, {"time": 1319, "pitch": 78, "duration": 14, "velocity": 83}, {"time": 1337, "pitch": 78, "duration": 4, "velocity": 82}, {"time": 1343, "pitch": 78, "duration": 4, "velocity": 82}, {"time": 1349, "pitch": 77, "duration": 3, "velocity": 81}, {"time": 1355, "pitch": 75, "duration": 3, "velocity": 86}, {"time": 1361, "pitch": 77, "duration": 4, "velocity": 80}, {"time": 1367, "pitch": 73, "duration": 13, "velocity": 81}, {"time": 1385, "pitch": 73, "duration": 3, "velocity": 83}, {"time": 1391, "pitch": 73, "duration": 3, "velocity": 88}, {"time": 1397, "pitch": 70, "duration": 3, "velocity": 81}, {"time": 1403, "pitch": 70, "duration": 4, "velocity": 81}, {"time": 1409, "pitch": 68, "duration": 4, "velocity": 80}, {"time": 1415, "pitch": 66, "duration": 14, "velocity": 83}, {"time": 1433, "pitch": 66, "duration": 3, "velocity": 83}, {"time": 1439, "pitch": 66, "duration": 4, "velocity": 78}, {"time": 1445, "pitch": 68, "duration": 3, "velocity": 79}, {"time": 1451, "pitch": 68, "duration": 3, "velocity": 80}, {"time": 1457, "pitch": 66, "duration": 4, "velocity": 81}, {"time": 1463, "pitch": 70, "duration": 4, "velocity": 80}, {"time": 1469, "pitch": 73, "duration": 4, "velocity": 80}, {"time": 1475, "pitch": 73, "duration": 5, "velocity": 81}, {"time": 1481, "pitch": 70, "duration": 3, "velocity": 79}, {"time": 1487, "pitch": 66, "duration": 8, "velocity": 80}, {"time": 1499, "pitch": 66, "duration": 3, "velocity": 80}, {"time": 1505, "pitch": 66, "duration": 3, "velocity": 81}, {"time": 1511, "pitch": 68, "duration": 3, "velocity": 79}, {"time": 1517, "pitch": 68, "duration": 1, "velocity": 72}, {"time": 1520, "pitch": 68, "duration": 6, "velocity": 79}, {"time": 1529, "pitch": 66, "duration": 4, "velocity": 79}, {"time": 1535, "pitch": 66, "duration": 5, "velocity": 80}, {"time": 1541, "pitch": 63, "duration": 3, "velocity": 78}, {"time": 1544, "pitch": 70, "duration": 7, "velocity": 85}, {"time": 1553, "pitch": 70, "duration": 4, "velocity": 82}, {"time": 1559, "pitch": 68, "duration": 11, "velocity": 80}, {"time": 1577, "pitch": 66, "duration": 3, "velocity": 88}, {"time": 1583, "pitch": 66, "duration": 4, "velocity": 81}, {"time": 1589, "pitch": 68, "duration": 3, "velocity": 83}, {"time": 1595, "pitch": 68, "duration": 4, "velocity": 83}, {"time": 1601, "pitch": 66, "duration": 4, "velocity": 83}, {"time": 1607, "pitch": 70, "duration": 14, "velocity": 82}, {"time": 1625, "pitch": 66, "duration": 4, "velocity": 81}, {"time": 1631, "pitch": 66, "duration": 4, "velocity": 82}, {"time": 1637, "pitch": 68, "duration": 3, "velocity": 81}, {"time": 1643, "pitch": 68, "duration": 3, "velocity": 83}, {"time": 1649, "pitch": 66, "duration": 5, "velocity": 81}, {"time": 1655, "pitch": 73, "duration": 12, "velocity": 81}, {"time": 1673, "pitch": 73, "duration": 4, "velocity": 85}, {"time": 1679, "pitch": 73, "duration": 5, "velocity": 85}, {"time": 1685, "pitch": 75, "duration": 3, "velocity": 84}, {"time": 1691, "pitch": 75, "duration": 4, "velocity": 85}, {"time": 1697, "pitch": 73, "duration": 5, "velocity": 85}, {"time": 1703, "pitch": 78, "duration": 14, "velocity": 83}, {"time": 1721, "pitch": 78, "duration": 4, "velocity": 82}, {"time": 1727, "pitch": 78, "duration": 4, "velocity": 82}, {"time": 1733, "pitch": 77, "duration": 3, "velocity": 81}, {"time": 1739, "pitch": 75, "duration": 3, "velocity": 86}, {"time": 1745, "pitch": 77, "duration": 4, "velocity": 80}, {"time": 1751, "pitch": 73, "duration": 13, "velocity": 81}, {"time": 1769, "pitch": 73, "duration": 3, "velocity": 83}, {"time": 1775, "pitch": 73, "duration": 3, "velocity": 88}, {"time": 1781, "pitch": 70, "duration": 3, "velocity": 81}, {"time": 1787, "pitch": 70, "duration": 4, "velocity": 81}, {"time": 1793, "pitch": 68, "duration": 4, "velocity": 80}, {"time": 1799, "pitch": 66, "duration": 14, "velocity": 83}, {"time": 1817, "pitch": 66, "duration": 3, "velocity": 83}, {"time": 1823, "pitch": 66, "duration": 4, "velocity": 78}, {"time": 1829, "pitch": 68, "duration": 3, "velocity": 79}, {"time": 1835, "pitch": 68, "duration": 3, "velocity": 80}, {"time": 1841, "pitch": 66, "duration": 4, "velocity": 81}, {"time": 1847, "pitch": 70, "duration": 4, "velocity": 80}, {"time": 1853, "pitch": 73, "duration": 4, "velocity": 80}, {"time": 1859, "pitch": 73, "duration": 5, "velocity": 81}, {"time": 1865, "pitch": 70, "duration": 3, "velocity": 79}, {"time": 1871, "pitch": 66, "duration": 8, "velocity": 80}, {"time": 1883, "pitch": 66, "duration": 3, "velocity": 80}, {"time": 1889, "pitch": 66, "duration": 3, "velocity": 81}, {"time": 1895, "pitch": 68, "duration": 3, "velocity": 79}, {"time": 1901, "pitch": 68, "duration": 1, "velocity": 72}, {"time": 1904, "pitch": 68, "duration": 6, "velocity": 79}, {"time": 1913, "pitch": 66, "duration": 4, "velocity": 79}, {"time": 1919, "pitch": 66, "duration": 5, "velocity": 80}, {"time": 1925, "pitch": 63, "duration": 3, "velocity": 78}, {"time": 1928, "pitch": 70, "duration": 7, "velocity": 85}, {"time": 1937, "pitch": 70, "duration": 4, "velocity": 82}, {"time": 1943, "pitch": 68, "duration": 11, "velocity": 80}, {"time": 1961, "pitch": 61, "duration": 4, "velocity": 83}, {"time": 1967, "pitch": 71, "duration": 3, "velocity": 81}, {"time": 1973, "pitch": 71, "duration": 1, "velocity": 80}, {"time": 1976, "pitch": 71, "duration": 5, "velocity": 78}, {"time": 1985, "pitch": 70, "duration": 4, "velocity": 83}, {"time": 1991, "pitch": 66, "duration": 51, "velocity": 81}, {"time": 2387, "pitch": 66, "duration": 2, "velocity": 88}, {"time": 2393, "pitch": 66, "duration": 2, "velocity": 85}, {"time": 2399, "pitch": 66, "duration": 5, "velocity": 86}, {"time": 2405, "pitch": 73, "duration": 3, "velocity": 81}, {"time": 2411, "pitch": 73, "duration": 4, "velocity": 86}, {"time": 2417, "pitch": 68, "duration": 12, "velocity": 83}, {"time": 2429, "pitch": 68, "duration": 2, "velocity": 70}, {"time": 2435, "pitch": 68, "duration": 3, "velocity": 80}, {"time": 2441, "pitch": 68, "duration": 3, "velocity": 83}, {"time": 2447, "pitch": 68, "duration": 4, "velocity": 81}, {"time": 2453, "pitch": 66, "duration": 4, "velocity": 86}, {"time": 2459, "pitch": 65, "duration": 4, "velocity": 90}, {"time": 2465, "pitch": 66, "duration": 7, "velocity": 82}, {"time": 2477, "pitch": 66, "duration": 2, "velocity": 81}, {"time": 2483, "pitch": 66, "duration": 2, "velocity": 81}, {"time": 2489, "pitch": 66, "duration": 2, "velocity": 79}, {"time": 2495, "pitch": 66, "duration": 2, "velocity": 80}, {"time": 2501, "pitch": 66, "duration": 2, "velocity": 79}, {"time": 2507, "pitch": 66, "duration": 2, "velocity": 80}, {"time": 2513, "pitch": 66, "duration": 3, "velocity": 80}, {"time": 2519, "pitch": 66, "duration": 2, "velocity": 83}, {"time": 2525, "pitch": 66, "duration": 3, "velocity": 82}, {"time": 2531, "pitch": 73, "duration": 10, "velocity": 86}, {"time": 2543, "pitch": 66, "duration": 6, "velocity": 86}, {"time": 2549, "pitch": 66, "duration": 4, "velocity": 85}, {"time": 2555, "pitch": 73, "duration": 12, "velocity": 76}, {"time": 2567, "pitch": 73, "duration": 1, "velocity": 80}, {"time": 2570, "pitch": 73, "duration": 1, "velocity": 74}, {"time": 2573, "pitch": 73, "duration": 1, "velocity": 78}, {"time": 2576, "pitch": 73, "duration": 1, "velocity": 79}, {"time": 2579, "pitch": 73, "duration": 1, "velocity": 79}, {"time": 2582, "pitch": 73, "duration": 1, "velocity": 77}, {"time": 2585, "pitch": 73, "duration": 1, "velocity": 74}, {"time": 2588, "pitch": 73, "duration": 1, "velocity": 79}, {"time": 2591, "pitch": 73, "duration": 1, "velocity": 81}, {"time": 2597, "pitch": 66, "duration": 4, "velocity": 80}, {"time": 2603, "pitch": 68, "duration": 4, "velocity": 71}, {"time": 2609, "pitch": 66, "duration": 3, "velocity": 83}, {"time": 2615, "pitch": 66, "duration": 3, "velocity": 83}, {"time": 2621, "pitch": 66, "duration": 3, "velocity": 80}, {"time": 2627, "pitch": 66, "duration": 5, "velocity": 77}, {"time": 2633, "pitch": 61, "duration": 3, "velocity": 83}, {"time": 2639, "pitch": 61, "duration": 4, "velocity": 83}, {"time": 2645, "pitch": 70, "duration": 4, "velocity": 80}, {"time": 2651, "pitch": 70, "duration": 10, "velocity": 83}, {"time": 2663, "pitch": 71, "duration": 2, "velocity": 62}, {"time": 2669, "pitch": 71, "duration": 1, "velocity": 80}, {"time": 2672, "pitch": 71, "duration": 1, "velocity": 74}, {"time": 2675, "pitch": 71, "duration": 2, "velocity": 80}, {"time": 2681, "pitch": 71, "duration": 2, "velocity": 86}, {"time": 2687, "pitch": 71, "duration": 2, "velocity": 81}, {"time": 2693, "pitch": 71, "duration": 3, "velocity": 81}, {"time": 2699, "pitch": 73, "duration": 4, "velocity": 81}, {"time": 2705, "pitch": 68, "duration": 19, "velocity": 83}, {"time": 2771, "pitch": 66, "duration": 2, "velocity": 88}, {"time": 2777, "pitch": 66, "duration": 2, "velocity": 85}, {"time": 2783, "pitch": 66, "duration": 5, "velocity": 86}, {"time": 2789, "pitch": 73, "duration": 3, "velocity": 81}, {"time": 2795, "pitch": 73, "duration": 4, "velocity": 86}, {"time": 2801, "pitch": 68, "duration": 12, "velocity": 83}, {"time": 2813, "pitch": 68, "duration": 2, "velocity": 70}, {"time": 2819, "pitch": 68, "duration": 3, "velocity": 80}, {"time": 2825, "pitch": 68, "duration": 3, "velocity": 83}, {"time": 2831, "pitch": 68, "duration": 4, "velocity": 81}, {"time": 2837, "pitch": 70, "duration": 4, "velocity": 86}, {"time": 2843, "pitch": 71, "duration": 4, "velocity": 90}, {"time": 2849, "pitch": 70, "duration": 7, "velocity": 82}, {"time": 2861, "pitch": 70, "duration": 2, "velocity": 80}, {"time": 2867, "pitch": 70, "duration": 2, "velocity": 80}, {"time": 2873, "pitch": 70, "duration": 2, "velocity": 79}, {"time": 2879, "pitch": 70, "duration": 4, "velocity": 82}, {"time": 2885, "pitch": 68, "duration": 2, "velocity": 81}, {"time": 2891, "pitch": 66, "duration": 3, "velocity": 82}, {"time": 2897, "pitch": 66, "duration": 3, "velocity": 80}, {"time": 2903, "pitch": 65, "duration": 4, "velocity": 86}, {"time": 2909, "pitch": 77, "duration": 3, "velocity": 80}, {"time": 2915, "pitch": 77, "duration": 5, "velocity": 83}, {"time": 2921, "pitch": 75, "duration": 3, "velocity": 83}, {"time": 2927, "pitch": 75, "duration": 5, "velocity": 86}, {"time": 2933, "pitch": 73, "duration": 6, "velocity": 81}, {"time": 2939, "pitch": 70, "duration": 2, "velocity": 80}, {"time": 2942, "pitch": 68, "duration": 2, "velocity": 74}, {"time": 2945, "pitch": 66, "duration": 3, "velocity": 79}, {"time": 2951, "pitch": 66, "duration": 1, "velocity": 83}, {"time": 2954, "pitch": 66, "duration": 1, "velocity": 78}, {"time": 2957, "pitch": 66, "duration": 2, "velocity": 78}, {"time": 2963, "pitch": 66, "duration": 2, "velocity": 81}, {"time": 2969, "pitch": 66, "duration": 2, "velocity": 84}, {"time": 2972, "pitch": 66, "duration": 6, "velocity": 86}, {"time": 2981, "pitch": 68, "duration": 2, "velocity": 80}, {"time": 2987, "pitch": 70, "duration": 2, "velocity": 81}, {"time": 2993, "pitch": 66, "duration": 2, "velocity": 80}, {"time": 2999, "pitch": 66, "duration": 1, "velocity": 80}, {"time": 3002, "pitch": 66, "duration": 1, "velocity": 80}, {"time": 3005, "pitch": 66, "duration": 2, "velocity": 74}, {"time": 3011, "pitch": 66, "duration": 2, "velocity": 79}, {"time": 3017, "pitch": 66, "duration": 1, "velocity": 80}, {"time": 3020, "pitch": 66, "duration": 1, "velocity": 77}, {"time": 3023, "pitch": 66, "duration": 2, "velocity": 80}, {"time": 3029, "pitch": 68, "duration": 3, "velocity": 79}, {"time": 3035, "pitch": 70, "duration": 4, "velocity": 80}, {"time": 3041, "pitch": 66, "duration": 4, "velocity": 81}, {"time": 3047, "pitch": 71, "duration": 3, "velocity": 80}, {"time": 3053, "pitch": 71, "duration": 3, "velocity": 81}, {"time": 3059, "pitch": 71, "duration": 3, "velocity": 80}, {"time": 3065, "pitch": 70, "duration": 3, "velocity": 80}, {"time": 3071, "pitch": 71, "duration": 3, "velocity": 80}, {"time": 3077, "pitch": 73, "duration": 3, "velocity": 77}, {"time": 3083, "pitch": 70, "duration": 3, "velocity": 81}, {"time": 3089, "pitch": 68, "duration": 21, "velocity": 77}, {"time": 3113, "pitch": 66, "duration": 3, "velocity": 88}, {"time": 3119, "pitch": 66, "duration": 4, "velocity": 81}, {"time": 3125, "pitch": 68, "duration": 3, "velocity": 83}, {"time": 3131, "pitch": 68, "duration": 4, "velocity": 83}, {"time": 3137, "pitch": 66, "duration": 4, "velocity": 83}, {"time": 3143, "pitch": 70, "duration": 14, "velocity": 82}, {"time": 3161, "pitch": 66, "duration": 4, "velocity": 81}, {"time": 3167, "pitch": 66, "duration": 4, "velocity": 82}, {"time": 3173, "pitch": 68, "duration": 3, "velocity": 81}, {"time": 3179, "pitch": 68, "duration": 3, "velocity": 83}, {"time": 3185, "pitch": 66, "duration": 5, "velocity": 81}, {"time": 3191, "pitch": 73, "duration": 12, "velocity": 81}, {"time": 3209, "pitch": 73, "duration": 4, "velocity": 85}, {"time": 3215, "pitch": 73, "duration": 5, "velocity": 85}, {"time": 3221, "pitch": 75, "duration": 3, "velocity": 84}, {"time": 3227, "pitch": 75, "duration": 4, "velocity": 85}, {"time": 3233, "pitch": 73, "duration": 5, "velocity": 85}, {"time": 3239, "pitch": 78, "duration": 14, "velocity": 83}, {"time": 3257, "pitch": 78, "duration": 4, "velocity": 82}, {"time": 3263, "pitch": 78, "duration": 4, "velocity": 82}, {"time": 3269, "pitch": 77, "duration": 3, "velocity": 81}, {"time": 3275, "pitch": 75, "duration": 3, "velocity": 86}, {"time": 3281, "pitch": 77, "duration": 4, "velocity": 80}, {"time": 3287, "pitch": 73, "duration": 13, "velocity": 81}, {"time": 3305, "pitch": 73, "duration": 3, "velocity": 83}, {"time": 3311, "pitch": 73, "duration": 3, "velocity": 88}, {"time": 3317, "pitch": 70, "duration": 3, "velocity": 81}, {"time": 3323, "pitch": 70, "duration": 4, "velocity": 81}, {"time": 3329, "pitch": 68, "duration": 4, "velocity": 80}, {"time": 3335, "pitch": 66, "duration": 14, "velocity": 83}, {"time": 3353, "pitch": 66, "duration": 3, "velocity": 83}, {"time": 3359, "pitch": 66, "duration": 4, "velocity": 78}, {"time": 3365, "pitch": 68, "duration": 3, "velocity": 79}, {"time": 3371, "pitch": 68, "duration": 3, "velocity": 80}, {"time": 3377, "pitch": 66, "duration": 4, "velocity": 81}, {"time": 3383, "pitch": 70, "duration": 4, "velocity": 80}, {"time": 3389, "pitch": 73, "duration": 4, "velocity": 80}, {"time": 3395, "pitch": 73, "duration": 5, "velocity": 81}, {"time": 3401, "pitch": 70, "duration": 3, "velocity": 79}, {"time": 3407, "pitch": 66, "duration": 8, "velocity": 80}, {"time": 3419, "pitch": 66, "duration": 3, "velocity": 80}, {"time": 3425, "pitch": 66, "duration": 3, "velocity": 81}, {"time": 3431, "pitch": 68, "duration": 3, "velocity": 79}, {"time": 3437, "pitch": 68, "duration": 1, "velocity": 72}, {"time": 3440, "pitch": 68, "duration": 6, "velocity": 79}, {"time": 3449, "pitch": 66, "duration": 4, "velocity": 79}, {"time": 3455, "pitch": 66, "duration": 5, "velocity": 80}, {"time": 3461, "pitch": 63, "duration": 3, "velocity": 78}, {"time": 3464, "pitch": 70, "duration": 7, "velocity": 85}, {"time": 3473, "pitch": 70, "duration": 4, "velocity": 82}, {"time": 3479, "pitch": 68, "duration": 11, "velocity": 80}, {"time": 3497, "pitch": 66, "duration": 3, "velocity": 88}, {"time": 3503, "pitch": 66, "duration": 4, "velocity": 81}, {"time": 3509, "pitch": 68, "duration": 3, "velocity": 83}, {"time": 3515, "pitch": 68, "duration": 4, "velocity": 83}, {"time": 3521, "pitch": 66, "duration": 4, "velocity": 83}, {"time": 3527, "pitch": 70, "duration": 14, "velocity": 82}, {"time": 3545, "pitch": 66, "duration": 4, "velocity": 81}, {"time": 3551, "pitch": 66, "duration": 4, "velocity": 82}, {"time": 3557, "pitch": 68, "duration": 3, "velocity": 81}, {"time": 3563, "pitch": 68, "duration": 3, "velocity": 83}, {"time": 3569, "pitch": 66, "duration": 5, "velocity": 81}, {"time": 3575, "pitch": 73, "duration": 12, "velocity": 81}, {"time": 3593, "pitch": 73, "duration": 4, "velocity": 85}, {"time": 3599, "pitch": 73, "duration": 5, "velocity": 85}, {"time": 3605, "pitch": 75, "duration": 3, "velocity": 84}, {"time": 3611, "pitch": 75, "duration": 4, "velocity": 85}, {"time": 3617, "pitch": 73, "duration": 5, "velocity": 85}, {"time": 3623, "pitch": 78, "duration": 14, "velocity": 83}, {"time": 3641, "pitch": 78, "duration": 4, "velocity": 82}, {"time": 3647, "pitch": 78, "duration": 4, "velocity": 82}, {"time": 3653, "pitch": 77, "duration": 3, "velocity": 81}, {"time": 3659, "pitch": 75, "duration": 3, "velocity": 86}, {"time": 3665, "pitch": 77, "duration": 4, "velocity": 80}, {"time": 3671, "pitch": 73, "duration": 13, "velocity": 81}, {"time": 3689, "pitch": 73, "duration": 3, "velocity": 83}, {"time": 3695, "pitch": 73, "duration": 3, "velocity": 88}, {"time": 3701, "pitch": 70, "duration": 3, "velocity": 81}, {"time": 3707, "pitch": 70, "duration": 4, "velocity": 81}, {"time": 3713, "pitch": 68, "duration": 4, "velocity": 80}, {"time": 3719, "pitch": 66, "duration": 14, "velocity": 83}, {"time": 3737, "pitch": 66, "duration": 3, "velocity": 83}, {"time": 3743, "pitch": 66, "duration": 4, "velocity": 78}, {"time": 3749, "pitch": 68, "duration": 3, "velocity": 79}, {"time": 3755, "pitch": 68, "duration": 3, "velocity": 80}, {"time": 3761, "pitch": 66, "duration": 4, "velocity": 81}, {"time": 3767, "pitch": 70, "duration": 4, "velocity": 80}, {"time": 3773, "pitch": 73, "duration": 4, "velocity": 80}, {"time": 3779, "pitch": 73, "duration": 5, "velocity": 81}, {"time": 3785, "pitch": 70, "duration": 3, "velocity": 79}, {"time": 3791, "pitch": 66, "duration": 8, "velocity": 80}, {"time": 3803, "pitch": 66, "duration": 3, "velocity": 80}, {"time": 3809, "pitch": 66, "duration": 3, "velocity": 81}, {"time": 3815, "pitch": 68, "duration": 3, "velocity": 79}, {"time": 3821, "pitch": 68, "duration": 1, "velocity": 72}, {"time": 3824, "pitch": 68, "duration": 6, "velocity": 79}, {"time": 3833, "pitch": 66, "duration": 4, "velocity": 79}, {"time": 3839, "pitch": 66, "duration": 5, "velocity": 80}, {"time": 3845, "pitch": 63, "duration": 3, "velocity": 78}, {"time": 3848, "pitch": 70, "duration": 7, "velocity": 85}, {"time": 3857, "pitch": 70, "duration": 4, "velocity": 82}, {"time": 3863, "pitch": 68, "duration": 11, "velocity": 80}, {"time": 3881, "pitch": 66, "duration": 3, "velocity": 88}, {"time": 3887, "pitch": 66, "duration": 4, "velocity": 81}, {"time": 3893, "pitch": 68, "duration": 3, "velocity": 83}, {"time": 3899, "pitch": 68, "duration": 4, "velocity": 83}, {"time": 3905, "pitch": 66, "duration": 4, "velocity": 83}, {"time": 3911, "pitch": 70, "duration": 14, "velocity": 82}, {"time": 3929, "pitch": 66, "duration": 4, "velocity": 81}, {"time": 3935, "pitch": 66, "duration": 4, "velocity": 82}, {"time": 3941, "pitch": 68, "duration": 3, "velocity": 81}, {"time": 3947, "pitch": 68, "duration": 3, "velocity": 83}, {"time": 3953, "pitch": 66, "duration": 5, "velocity": 81}, {"time": 3959, "pitch": 73, "duration": 12, "velocity": 81}, {"time": 3977, "pitch": 73, "duration": 4, "velocity": 85}, {"time": 3983, "pitch": 73, "duration": 5, "velocity": 85}, {"time": 3989, "pitch": 75, "duration": 3, "velocity": 84}, {"time": 3995, "pitch": 75, "duration": 4, "velocity": 85}, {"time": 4001, "pitch": 73, "duration": 5, "velocity": 85}, {"time": 4007, "pitch": 78, "duration": 14, "velocity": 83}, {"time": 4025, "pitch": 78, "duration": 4, "velocity": 82}, {"time": 4031, "pitch": 78, "duration": 4, "velocity": 82}, {"time": 4037, "pitch": 77, "duration": 3, "velocity": 81}, {"time": 4043, "pitch": 75, "duration": 3, "velocity": 86}, {"time": 4049, "pitch": 77, "duration": 4, "velocity": 80}, {"time": 4055, "pitch": 73, "duration": 13, "velocity": 81}, {"time": 4073, "pitch": 73, "duration": 3, "velocity": 83}, {"time": 4079, "pitch": 73, "duration": 3, "velocity": 88}, {"time": 4085, "pitch": 70, "duration": 3, "velocity": 81}, {"time": 4091, "pitch": 70, "duration": 4, "velocity": 81}, {"time": 4097, "pitch": 68, "duration": 4, "velocity": 80}, {"time": 4103, "pitch": 66, "duration": 14, "velocity": 83}, {"time": 4121, "pitch": 66, "duration": 3, "velocity": 83}, {"time": 4127, "pitch": 66, "duration": 4, "velocity": 78}, {"time": 4133, "pitch": 68, "duration": 3, "velocity": 79}, {"time": 4139, "pitch": 68, "duration": 3, "velocity": 80}, {"time": 4145, "pitch": 66, "duration": 4, "velocity": 81}, {"time": 4151, "pitch": 70, "duration": 4, "velocity": 80}, {"time": 4157, "pitch": 73, "duration": 4, "velocity": 80}, {"time": 4163, "pitch": 73, "duration": 5, "velocity": 81}, {"time": 4169, "pitch": 70, "duration": 3, "velocity": 79}, {"time": 4175, "pitch": 66, "duration": 8, "velocity": 80}, {"time": 4187, "pitch": 66, "duration": 3, "velocity": 80}, {"time": 4193, "pitch": 66, "duration": 3, "velocity": 81}, {"time": 4199, "pitch": 68, "duration": 3, "velocity": 79}, {"time": 4205, "pitch": 68, "duration": 1, "velocity": 72}, {"time": 4208, "pitch": 68, "duration": 6, "velocity": 79}, {"time": 4217, "pitch": 66, "duration": 4, "velocity": 79}, {"time": 4223, "pitch": 66, "duration": 5, "velocity": 80}, {"time": 4229, "pitch": 63, "duration": 3, "velocity": 78}, {"time": 4232, "pitch": 70, "duration": 7, "velocity": 85}, {"time": 4241, "pitch": 70, "duration": 4, "velocity": 82}, {"time": 4247, "pitch": 68, "duration": 11, "velocity": 80}, {"time": 4265, "pitch": 66, "duration": 3, "velocity": 88}, {"time": 4271, "pitch": 66, "duration": 4, "velocity": 81}, {"time": 4277, "pitch": 68, "duration": 3, "velocity": 83}, {"time": 4283, "pitch": 68, "duration": 4, "velocity": 83}, {"time": 4289, "pitch": 66, "duration": 4, "velocity": 83}, {"time": 4295, "pitch": 70, "duration": 14, "velocity": 82}, {"time": 4313, "pitch": 66, "duration": 4, "velocity": 81}, {"time": 4319, "pitch": 66, "duration": 4, "velocity": 82}, {"time": 4325, "pitch": 68, "duration": 3, "velocity": 81}, {"time": 4331, "pitch": 68, "duration": 3, "velocity": 83}, {"time": 4337, "pitch": 66, "duration": 5, "velocity": 81}, {"time": 4343, "pitch": 73, "duration": 12, "velocity": 81}, {"time": 4361, "pitch": 73, "duration": 4, "velocity": 85}, {"time": 4367, "pitch": 73, "duration": 5, "velocity": 85}, {"time": 4373, "pitch": 75, "duration": 3, "velocity": 84}, {"time": 4379, "pitch": 75, "duration": 4, "velocity": 85}, {"time": 4385, "pitch": 73, "duration": 5, "velocity": 85}, {"time": 4391, "pitch": 78, "duration": 14, "velocity": 83}, {"time": 4409, "pitch": 78, "duration": 4, "velocity": 82}, {"time": 4415, "pitch": 78, "duration": 4, "velocity": 82}, {"time": 4421, "pitch": 77, "duration": 3, "velocity": 81}, {"time": 4427, "pitch": 75, "duration": 3, "velocity": 86}, {"time": 4433, "pitch": 77, "duration": 4, "velocity": 80}, {"time": 4439, "pitch": 73, "duration": 13, "velocity": 81}, {"time": 4457, "pitch": 73, "duration": 3, "velocity": 83}, {"time": 4463, "pitch": 73, "duration": 3, "velocity": 88}, {"time": 4469, "pitch": 70, "duration": 3, "velocity": 81}, {"time": 4475, "pitch": 70, "duration": 4, "velocity": 81}, {"time": 4481, "pitch": 68, "duration": 4, "velocity": 80}, {"time": 4487, "pitch": 66, "duration": 14, "velocity": 83}, {"time": 4505, "pitch": 66, "duration": 3, "velocity": 83}, {"time": 4511, "pitch": 66, "duration": 4, "velocity": 78}, {"time": 4517, "pitch": 68, "duration": 3, "velocity": 79}, {"time": 4523, "pitch": 68, "duration": 3, "velocity": 80}, {"time": 4529, "pitch": 66, "duration": 4, "velocity": 81}, {"time": 4535, "pitch": 70, "duration": 4, "velocity": 80}, {"time": 4541, "pitch": 73, "duration": 4, "velocity": 80}, {"time": 4547, "pitch": 73, "duration": 5, "velocity": 81}, {"time": 4553, "pitch": 70, "duration": 3, "velocity": 79}, {"time": 4559, "pitch": 66, "duration": 8, "velocity": 80}, {"time": 4571, "pitch": 66, "duration": 3, "velocity": 80}, {"time": 4577, "pitch": 66, "duration": 3, "velocity": 81}, {"time": 4583, "pitch": 68, "duration": 3, "velocity": 79}, {"time": 4589, "pitch": 68, "duration": 1, "velocity": 72}, {"time": 4592, "pitch": 68, "duration": 6, "velocity": 79}, {"time": 4601, "pitch": 66, "duration": 4, "velocity": 79}, {"time": 4607, "pitch": 66, "duration": 5, "velocity": 80}, {"time": 4613, "pitch": 63, "duration": 3, "velocity": 78}, {"time": 4616, "pitch": 70, "duration": 7, "velocity": 85}, {"time": 4625, "pitch": 70, "duration": 4, "velocity": 82}, {"time": 4631, "pitch": 68, "duration": 11, "velocity": 80}, {"time": 4649, "pitch": 61, "duration": 4, "velocity": 83}, {"time": 4655, "pitch": 71, "duration": 3, "velocity": 81}, {"time": 4661, "pitch": 71, "duration": 1, "velocity": 80}, {"time": 4664, "pitch": 71, "duration": 24, "velocity": 78}, {"time": 4721, "pitch": 70, "duration": 4, "velocity": 81}, {"time": 4727, "pitch": 68, "duration": 5, "velocity": 80}, {"time": 4733, "pitch": 66, "duration": 60, "velocity": 85}]}, {"program": 0, "is_drum": false, "name": "PIANO", "notes": [{"time": 71, "pitch": 42, "duration": 39, "velocity": 81}, {"time": 71, "pitch": 58, "duration": 8, "velocity": 75}, {"time": 71, "pitch": 61, "duration": 12, "velocity": 79}, {"time": 77, "pitch": 49, "duration": 31, "velocity": 69}, {"time": 83, "pitch": 58, "duration": 22, "velocity": 78}, {"time": 89, "pitch": 66, "duration": 20, "velocity": 84}, {"time": 107, "pitch": 58, "duration": 1, "velocity": 71}, {"time": 107, "pitch": 61, "duration": 5, "velocity": 81}, {"time": 119, "pitch": 49, "duration": 37, "velocity": 82}, {"time": 119, "pitch": 56, "duration": 4, "velocity": 75}, {"time": 119, "pitch": 65, "duration": 10, "velocity": 82}, {"time": 125, "pitch": 56, "duration": 7, "velocity": 75}, {"time": 131, "pitch": 61, "duration": 3, "velocity": 75}, {"time": 137, "pitch": 56, "duration": 14, "velocity": 81}, {"time": 137, "pitch": 65, "duration": 15, "velocity": 84}, {"time": 155, "pitch": 56, "duration": 3, "velocity": 82}, {"time": 155, "pitch": 61, "duration": 4, "velocity": 83}, {"time": 167, "pitch": 51, "duration": 35, "velocity": 88}, {"time": 167, "pitch": 58, "duration": 3, "velocity": 74}, {"time": 167, "pitch": 66, "duration": 12, "velocity": 79}, {"time": 173, "pitch": 58, "duration": 10, "velocity": 76}, {"time": 179, "pitch": 63, "duration": 4, "velocity": 84}, {"time": 185, "pitch": 58, "duration": 18, "velocity": 80}, {"time": 185, "pitch": 66, "duration": 18, "velocity": 80}, {"time": 203, "pitch": 63, "duration": 5, "velocity": 82}, {"time": 209, "pitch": 58, "duration": 3, "velocity": 74}, {"time": 215, "pitch": 49, "duration": 32, "velocity": 80}, {"time": 215, "pitch": 56, "duration": 4, "velocity": 82}, {"time": 215, "pitch": 65, "duration": 12, "velocity": 82}, {"time": 221, "pitch": 56, "duration": 8, "velocity": 78}, {"time": 227, "pitch": 61, "duration": 2, "velocity": 78}, {"time": 233, "pitch": 56, "duration": 18, "velocity": 83}, {"time": 233, "pitch": 65, "duration": 17, "velocity": 84}, {"time": 251, "pitch": 61, "duration": 1, "velocity": 84}, {"time": 263, "pitch": 47, "duration": 37, "velocity": 85}, {"time": 263, "pitch": 54, "duration": 3, "velocity": 74}, {"time": 263, "pitch": 63, "duration": 13, "velocity": 79}, {"time": 269, "pitch": 54, "duration": 8, "velocity": 79}, {"time": 275, "pitch": 59, "duration": 2, "velocity": 80}, {"time": 281, "pitch": 54, "duration": 13, "velocity": 83}, {"time": 281, "pitch": 63, "duration": 21, "velocity": 82}, {"time": 299, "pitch": 54, "duration": 2, "velocity": 80}, {"time": 299, "pitch": 59, "duration": 3, "velocity": 84}, {"time": 311, "pitch": 42, "duration": 37, "velocity": 79}, {"time": 311, "pitch": 58, "duration": 3, "velocity": 79}, {"time": 311, "pitch": 61, "duration": 6, "velocity": 81}, {"time": 317, "pitch": 58, "duration": 8, "velocity": 74}, {"time": 323, "pitch": 61, "duration": 5, "velocity": 78}, {"time": 329, "pitch": 61, "duration": 15, "velocity": 79}, {"time": 329, "pitch": 66, "duration": 16, "velocity": 82}, {"time": 347, "pitch": 58, "duration": 3, "velocity": 80}, {"time": 347, "pitch": 61, "duration": 3, "velocity": 85}, {"time": 359, "pitch": 44, "duration": 45, "velocity": 80}, {"time": 359, "pitch": 56, "duration": 12, "velocity": 79}, {"time": 359, "pitch": 59, "duration": 13, "velocity": 73}, {"time": 365, "pitch": 51, "duration": 38, "velocity": 73}, {"time": 371, "pitch": 63, "duration": 3, "velocity": 80}, {"time": 377, "pitch": 56, "duration": 6, "velocity": 81}, {"time": 377, "pitch": 68, "duration": 4, "velocity": 79}, {"time": 389, "pitch": 56, "duration": 14, "velocity": 80}, {"time": 389, "pitch": 63, "duration": 15, "velocity": 80}, {"time": 407, "pitch": 49, "duration": 47, "velocity": 81}, {"time": 407, "pitch": 56, "duration": 2, "velocity": 79}, {"time": 407, "pitch": 61, "duration": 7, "velocity": 79}, {"time": 413, "pitch": 56, "duration": 7, "velocity": 79}, {"time": 419, "pitch": 61, "duration": 2, "velocity": 76}, {"time": 425, "pitch": 56, "duration": 3, "velocity": 81}, {"time": 425, "pitch": 65, "duration": 3, "velocity": 85}, {"time": 437, "pitch": 56, "duration": 3, "velocity": 78}, {"time": 437, "pitch": 61, "duration": 7, "velocity": 80}, {"time": 443, "pitch": 56, "duration": 7, "velocity": 81}, {"time": 449, "pitch": 61, "duration": 4, "velocity": 76}, {"time": 455, "pitch": 42, "duration": 39, "velocity": 81}, {"time": 455, "pitch": 58, "duration": 8, "velocity": 75}, {"time": 455, "pitch": 61, "duration": 12, "velocity": 79}, {"time": 461, "pitch": 49, "duration": 31, "velocity": 69}, {"time": 467, "pitch": 58, "duration": 22, "velocity": 78}, {"time": 473, "pitch": 66, "duration": 20, "velocity": 84}, {"time": 491, "pitch": 58, "duration": 1, "velocity": 71}, {"time": 491, "pitch": 61, "duration": 5, "velocity": 81}, {"time": 503, "pitch": 49, "duration": 37, "velocity": 82}, {"time": 503, "pitch": 56, "duration": 4, "velocity": 75}, {"time": 503, "pitch": 65, "duration": 10, "velocity": 82}, {"time": 509, "pitch": 56, "duration": 7, "velocity": 75}, {"time": 515, "pitch": 61, "duration": 3, "velocity": 75}, {"time": 521, "pitch": 56, "duration": 14, "velocity": 81}, {"time": 521, "pitch": 65, "duration": 15, "velocity": 84}, {"time": 539, "pitch": 56, "duration": 3, "velocity": 82}, {"time": 539, "pitch": 61, "duration": 4, "velocity": 83}, {"time": 551, "pitch": 51, "duration": 35, "velocity": 88}, {"time": 551, "pitch": 58, "duration": 3, "velocity": 74}, {"time": 551, "pitch": 66, "duration": 12, "velocity": 79}, {"time": 557, "pitch": 58, "duration": 10, "velocity": 76}, {"time": 563, "pitch": 63, "duration": 4, "velocity": 84}, {"time": 569, "pitch": 58, "duration": 18, "velocity": 80}, {"time": 569, "pitch": 66, "duration": 18, "velocity": 80}, {"time": 587, "pitch": 63, "duration": 5, "velocity": 82}, {"time": 593, "pitch": 58, "duration": 3, "velocity": 74}, {"time": 599, "pitch": 49, "duration": 32, "velocity": 80}, {"time": 599, "pitch": 56, "duration": 4, "velocity": 82}, {"time": 599, "pitch": 65, "duration": 12, "velocity": 82}, {"time": 605, "pitch": 56, "duration": 8, "velocity": 78}, {"time": 611, "pitch": 61, "duration": 2, "velocity": 78}, {"time": 617, "pitch": 56, "duration": 18, "velocity": 83}, {"time": 617, "pitch": 65, "duration": 17, "velocity": 84}, {"time": 635, "pitch": 61, "duration": 1, "velocity": 84}, {"time": 647, "pitch": 47, "duration": 37, "velocity": 85}, {"time": 647, "pitch": 54, "duration": 3, "velocity": 74}, {"time": 647, "pitch": 63, "duration": 13, "velocity": 79}, {"time": 653, "pitch": 54, "duration": 8, "velocity": 79}, {"time": 659, "pitch": 59, "duration": 2, "velocity": 80}, {"time": 665, "pitch": 54, "duration": 13, "velocity": 83}, {"time": 665, "pitch": 63, "duration": 21, "velocity": 82}, {"time": 683, "pitch": 54, "duration": 2, "velocity": 80}, {"time": 683, "pitch": 59, "duration": 3, "velocity": 84}, {"time": 695, "pitch": 42, "duration": 37, "velocity": 79}, {"time": 695, "pitch": 58, "duration": 3, "velocity": 79}, {"time": 695, "pitch": 61, "duration": 6, "velocity": 81}, {"time": 701, "pitch": 58, "duration": 8, "velocity": 74}, {"time": 707, "pitch": 61, "duration": 5, "velocity": 78}, {"time": 713, "pitch": 61, "duration": 15, "velocity": 79}, {"time": 713, "pitch": 66, "duration": 16, "velocity": 82}, {"time": 731, "pitch": 58, "duration": 3, "velocity": 80}, {"time": 731, "pitch": 61, "duration": 3, "velocity": 85}, {"time": 743, "pitch": 44, "duration": 45, "velocity": 80}, {"time": 743, "pitch": 56, "duration": 12, "velocity": 79}, {"time": 743, "pitch": 59, "duration": 13, "velocity": 73}, {"time": 749, "pitch": 51, "duration": 38, "velocity": 73}, {"time": 755, "pitch": 63, "duration": 3, "velocity": 80}, {"time": 761, "pitch": 56, "duration": 6, "velocity": 81}, {"time": 761, "pitch": 68, "duration": 4, "velocity": 79}, {"time": 773, "pitch": 56, "duration": 14, "velocity": 80}, {"time": 773, "pitch": 63, "duration": 15, "velocity": 80}, {"time": 791, "pitch": 49, "duration": 47, "velocity": 81}, {"time": 791, "pitch": 56, "duration": 2, "velocity": 79}, {"time": 791, "pitch": 61, "duration": 7, "velocity": 79}, {"time": 797, "pitch": 56, "duration": 7, "velocity": 79}, {"time": 803, "pitch": 61, "duration": 2, "velocity": 76}, {"time": 809, "pitch": 56, "duration": 3, "velocity": 81}, {"time": 809, "pitch": 65, "duration": 3, "velocity": 85}, {"time": 821, "pitch": 56, "duration": 3, "velocity": 78}, {"time": 821, "pitch": 61, "duration": 7, "velocity": 80}, {"time": 827, "pitch": 56, "duration": 7, "velocity": 81}, {"time": 833, "pitch": 61, "duration": 4, "velocity": 76}, {"time": 839, "pitch": 42, "duration": 39, "velocity": 81}, {"time": 839, "pitch": 58, "duration": 8, "velocity": 75}, {"time": 839, "pitch": 61, "duration": 12, "velocity": 79}, {"time": 845, "pitch": 49, "duration": 31, "velocity": 69}, {"time": 851, "pitch": 58, "duration": 22, "velocity": 78}, {"time": 857, "pitch": 66, "duration": 20, "velocity": 84}, {"time": 875, "pitch": 58, "duration": 1, "velocity": 71}, {"time": 875, "pitch": 61, "duration": 5, "velocity": 81}, {"time": 887, "pitch": 49, "duration": 37, "velocity": 82}, {"time": 887, "pitch": 56, "duration": 4, "velocity": 75}, {"time": 887, "pitch": 65, "duration": 10, "velocity": 82}, {"time": 893, "pitch": 56, "duration": 7, "velocity": 75}, {"time": 899, "pitch": 61, "duration": 3, "velocity": 75}, {"time": 905, "pitch": 56, "duration": 14, "velocity": 81}, {"time": 905, "pitch": 65, "duration": 15, "velocity": 84}, {"time": 923, "pitch": 56, "duration": 3, "velocity": 82}, {"time": 923, "pitch": 61, "duration": 4, "velocity": 83}, {"time": 935, "pitch": 51, "duration": 35, "velocity": 88}, {"time": 935, "pitch": 58, "duration": 3, "velocity": 74}, {"time": 935, "pitch": 66, "duration": 12, "velocity": 79}, {"time": 941, "pitch": 58, "duration": 10, "velocity": 76}, {"time": 947, "pitch": 63, "duration": 4, "velocity": 84}, {"time": 953, "pitch": 58, "duration": 18, "velocity": 80}, {"time": 953, "pitch": 66, "duration": 18, "velocity": 80}, {"time": 971, "pitch": 63, "duration": 5, "velocity": 82}, {"time": 977, "pitch": 58, "duration": 3, "velocity": 74}, {"time": 983, "pitch": 49, "duration": 32, "velocity": 80}, {"time": 983, "pitch": 56, "duration": 4, "velocity": 82}, {"time": 983, "pitch": 65, "duration": 12, "velocity": 82}, {"time": 989, "pitch": 56, "duration": 8, "velocity": 78}, {"time": 995, "pitch": 61, "duration": 2, "velocity": 78}, {"time": 1001, "pitch": 56, "duration": 18, "velocity": 83}, {"time": 1001, "pitch": 65, "duration": 17, "velocity": 84}, {"time": 1019, "pitch": 61, "duration": 1, "velocity": 84}, {"time": 1031, "pitch": 47, "duration": 37, "velocity": 85}, {"time": 1031, "pitch": 54, "duration": 3, "velocity": 74}, {"time": 1031, "pitch": 63, "duration": 13, "velocity": 79}, {"time": 1037, "pitch": 54, "duration": 8, "velocity": 79}, {"time": 1043, "pitch": 59, "duration": 2, "velocity": 80}, {"time": 1049, "pitch": 54, "duration": 13, "velocity": 83}, {"time": 1049, "pitch": 63, "duration": 21, "velocity": 82}, {"time": 1067, "pitch": 54, "duration": 2, "velocity": 80}, {"time": 1067, "pitch": 59, "duration": 3, "velocity": 84}, {"time": 1079, "pitch": 42, "duration": 37, "velocity": 79}, {"time": 1079, "pitch": 58, "duration": 3, "velocity": 79}, {"time": 1079, "pitch": 61, "duration": 6, "velocity": 81}, {"time": 1085, "pitch": 58, "duration": 8, "velocity": 74}, {"time": 1091, "pitch": 61, "duration": 5, "velocity": 78}, {"time": 1097, "pitch": 61, "duration": 15, "velocity": 79}, {"time": 1097, "pitch": 66, "duration": 16, "velocity": 82}, {"time": 1115, "pitch": 58, "duration": 3, "velocity": 80}, {"time": 1115, "pitch": 61, "duration": 3, "velocity": 85}, {"time": 1127, "pitch": 44, "duration": 45, "velocity": 80}, {"time": 1127, "pitch": 56, "duration": 12, "velocity": 79}, {"time": 1127, "pitch": 59, "duration": 13, "velocity": 73}, {"time": 1133, "pitch": 51, "duration": 38, "velocity": 73}, {"time": 1139, "pitch": 63, "duration": 3, "velocity": 80}, {"time": 1145, "pitch": 56, "duration": 6, "velocity": 81}, {"time": 1145, "pitch": 68, "duration": 4, "velocity": 79}, {"time": 1157, "pitch": 56, "duration": 14, "velocity": 80}, {"time": 1157, "pitch": 63, "duration": 15, "velocity": 80}, {"time": 1175, "pitch": 49, "duration": 47, "velocity": 81}, {"time": 1175, "pitch": 56, "duration": 2, "velocity": 79}, {"time": 1175, "pitch": 61, "duration": 7, "velocity": 79}, {"time": 1181, "pitch": 56, "duration": 7, "velocity": 79}, {"time": 1187, "pitch": 61, "duration": 2, "velocity": 76}, {"time": 1193, "pitch": 56, "duration": 3, "velocity": 81}, {"time": 1193, "pitch": 65, "duration": 3, "velocity": 85}, {"time": 1205, "pitch": 56, "duration": 3, "velocity": 78}, {"time": 1205, "pitch": 61, "duration": 7, "velocity": 80}, {"time": 1211, "pitch": 56, "duration": 7, "velocity": 81}, {"time": 1217, "pitch": 61, "duration": 4, "velocity": 76}, {"time": 1223, "pitch": 42, "duration": 23, "velocity": 81}, {"time": 1223, "pitch": 58, "duration": 8, "velocity": 77}, {"time": 1223, "pitch": 61, "duration": 8, "velocity": 79}, {"time": 1229, "pitch": 49, "duration": 16, "velocity": 72}, {"time": 1235, "pitch": 58, "duration": 3, "velocity": 81}, {"time": 1235, "pitch": 66, "duration": 3, "velocity": 82}, {"time": 1244, "pitch": 58, "duration": 2, "velocity": 80}, {"time": 1244, "pitch": 61, "duration": 2, "velocity": 86}, {"time": 1244, "pitch": 66, "duration": 2, "velocity": 81}, {"time": 1253, "pitch": 42, "duration": 14, "velocity": 80}, {"time": 1253, "pitch": 58, "duration": 7, "velocity": 77}, {"time": 1253, "pitch": 61, "duration": 7, "velocity": 79}, {"time": 1253, "pitch": 66, "duration": 6, "velocity": 75}, {"time": 1265, "pitch": 58, "duration": 3, "velocity": 80}, {"time": 1265, "pitch": 61, "duration": 2, "velocity": 82}, {"time": 1265, "pitch": 66, "duration": 3, "velocity": 74}, {"time": 1271, "pitch": 49, "duration": 14, "velocity": 84}, {"time": 1271, "pitch": 56, "duration": 9, "velocity": 78}, {"time": 1271, "pitch": 61, "duration": 9, "velocity": 75}, {"time": 1271, "pitch": 65, "duration": 9, "velocity": 79}, {"time": 1283, "pitch": 56, "duration": 4, "velocity": 83}, {"time": 1283, "pitch": 61, "duration": 3, "velocity": 93}, {"time": 1283, "pitch": 65, "duration": 3, "velocity": 90}, {"time": 1292, "pitch": 56, "duration": 3, "velocity": 80}, {"time": 1292, "pitch": 61, "duration": 2, "velocity": 83}, {"time": 1292, "pitch": 65, "duration": 2, "velocity": 81}, {"time": 1295, "pitch": 49, "duration": 9, "velocity": 80}, {"time": 1301, "pitch": 56, "duration": 7, "velocity": 83}, {"time": 1301, "pitch": 61, "duration": 7, "velocity": 85}, {"time": 1301, "pitch": 65, "duration": 6, "velocity": 85}, {"time": 1313, "pitch": 56, "duration": 2, "velocity": 81}, {"time": 1313, "pitch": 61, "duration": 3, "velocity": 82}, {"time": 1313, "pitch": 65, "duration": 3, "velocity": 80}, {"time": 1319, "pitch": 51, "duration": 10, "velocity": 85}, {"time": 1319, "pitch": 58, "duration": 9, "velocity": 73}, {"time": 1319, "pitch": 63, "duration": 8, "velocity": 76}, {"time": 1331, "pitch": 58, "duration": 5, "velocity": 80}, {"time": 1331, "pitch": 63, "duration": 4, "velocity": 84}, {"time": 1331, "pitch": 66, "duration": 3, "velocity": 80}, {"time": 1340, "pitch": 58, "duration": 4, "velocity": 78}, {"time": 1340, "pitch": 63, "duration": 4, "velocity": 81}, {"time": 1340, "pitch": 66, "duration": 4, "velocity": 80}, {"time": 1343, "pitch": 51, "duration": 10, "velocity": 79}, {"time": 1349, "pitch": 58, "duration": 8, "velocity": 80}, {"time": 1349, "pitch": 63, "duration": 8, "velocity": 81}, {"time": 1349, "pitch": 66, "duration": 8, "velocity": 80}, {"time": 1361, "pitch": 58, "duration": 3, "velocity": 79}, {"time": 1361, "pitch": 63, "duration": 2, "velocity": 80}, {"time": 1361, "pitch": 66, "duration": 3, "velocity": 79}, {"time": 1367, "pitch": 49, "duration": 14, "velocity": 79}, {"time": 1367, "pitch": 56, "duration": 9, "velocity": 79}, {"time": 1367, "pitch": 65, "duration": 9, "velocity": 79}, {"time": 1379, "pitch": 56, "duration": 5, "velocity": 81}, {"time": 1379, "pitch": 61, "duration": 4, "velocity": 81}, {"time": 1388, "pitch": 56, "duration": 5, "velocity": 85}, {"time": 1388, "pitch": 65, "duration": 4, "velocity": 85}, {"time": 1391, "pitch": 49, "duration": 5, "velocity": 96}, {"time": 1397, "pitch": 56, "duration": 8, "velocity": 80}, {"time": 1397, "pitch": 61, "duration": 7, "velocity": 86}, {"time": 1409, "pitch": 56, "duration": 3, "velocity": 80}, {"time": 1409, "pitch": 61, "duration": 2, "velocity": 81}, {"time": 1409, "pitch": 65, "duration": 1, "velocity": 81}, {"time": 1415, "pitch": 47, "duration": 20, "velocity": 83}, {"time": 1415, "pitch": 54, "duration": 9, "velocity": 76}, {"time": 1415, "pitch": 59, "duration": 9, "velocity": 72}, {"time": 1415, "pitch": 61, "duration": 6, "velocity": 78}, {"time": 1415, "pitch": 63, "duration": 9, "velocity": 71}, {"time": 1427, "pitch": 54, "duration": 5, "velocity": 82}, {"time": 1427, "pitch": 59, "duration": 4, "velocity": 84}, {"time": 1427, "pitch": 63, "duration": 5, "velocity": 82}, {"time": 1436, "pitch": 54, "duration": 4, "velocity": 79}, {"time": 1436, "pitch": 59, "duration": 5, "velocity": 80}, {"time": 1436, "pitch": 63, "duration": 4, "velocity": 80}, {"time": 1439, "pitch": 47, "duration": 9, "velocity": 79}, {"time": 1445, "pitch": 54, "duration": 7, "velocity": 79}, {"time": 1445, "pitch": 59, "duration": 8, "velocity": 83}, {"time": 1451, "pitch": 47, "duration": 2, "velocity": 73}, {"time": 1457, "pitch": 54, "duration": 2, "velocity": 65}, {"time": 1457, "pitch": 59, "duration": 2, "velocity": 75}, {"time": 1463, "pitch": 46, "duration": 17, "velocity": 80}, {"time": 1463, "pitch": 58, "duration": 8, "velocity": 72}, {"time": 1463, "pitch": 61, "duration": 8, "velocity": 79}, {"time": 1475, "pitch": 58, "duration": 3, "velocity": 80}, {"time": 1475, "pitch": 61, "duration": 3, "velocity": 88}, {"time": 1475, "pitch": 65, "duration": 3, "velocity": 84}, {"time": 1484, "pitch": 58, "duration": 3, "velocity": 75}, {"time": 1484, "pitch": 61, "duration": 3, "velocity": 76}, {"time": 1484, "pitch": 65, "duration": 3, "velocity": 80}, {"time": 1487, "pitch": 46, "duration": 9, "velocity": 71}, {"time": 1493, "pitch": 58, "duration": 7, "velocity": 81}, {"time": 1493, "pitch": 61, "duration": 7, "velocity": 80}, {"time": 1493, "pitch": 65, "duration": 6, "velocity": 83}, {"time": 1505, "pitch": 58, "duration": 2, "velocity": 78}, {"time": 1505, "pitch": 61, "duration": 2, "velocity": 80}, {"time": 1505, "pitch": 65, "duration": 1, "velocity": 78}, {"time": 1511, "pitch": 44, "duration": 15, "velocity": 80}, {"time": 1511, "pitch": 56, "duration": 7, "velocity": 76}, {"time": 1511, "pitch": 59, "duration": 7, "velocity": 72}, {"time": 1511, "pitch": 63, "duration": 6, "velocity": 77}, {"time": 1523, "pitch": 56, "duration": 3, "velocity": 84}, {"time": 1523, "pitch": 59, "duration": 3, "velocity": 90}, {"time": 1523, "pitch": 63, "duration": 3, "velocity": 85}, {"time": 1532, "pitch": 56, "duration": 3, "velocity": 72}, {"time": 1532, "pitch": 59, "duration": 3, "velocity": 72}, {"time": 1532, "pitch": 63, "duration": 3, "velocity": 75}, {"time": 1535, "pitch": 44, "duration": 21, "velocity": 75}, {"time": 1535, "pitch": 51, "duration": 20, "velocity": 73}, {"time": 1541, "pitch": 56, "duration": 7, "velocity": 84}, {"time": 1541, "pitch": 59, "duration": 8, "velocity": 86}, {"time": 1541, "pitch": 63, "duration": 4, "velocity": 85}, {"time": 1553, "pitch": 56, "duration": 3, "velocity": 78}, {"time": 1553, "pitch": 59, "duration": 2, "velocity": 81}, {"time": 1553, "pitch": 63, "duration": 3, "velocity": 80}, {"time": 1559, "pitch": 49, "duration": 15, "velocity": 83}, {"time": 1559, "pitch": 56, "duration": 7, "velocity": 79}, {"time": 1559, "pitch": 61, "duration": 7, "velocity": 80}, {"time": 1571, "pitch": 56, "duration": 3, "velocity": 84}, {"time": 1571, "pitch": 61, "duration": 3, "velocity": 93}, {"time": 1571, "pitch": 65, "duration": 3, "velocity": 90}, {"time": 1580, "pitch": 56, "duration": 5, "velocity": 77}, {"time": 1580, "pitch": 61, "duration": 5, "velocity": 80}, {"time": 1580, "pitch": 65, "duration": 4, "velocity": 80}, {"time": 1583, "pitch": 49, "duration": 10, "velocity": 88}, {"time": 1589, "pitch": 56, "duration": 8, "velocity": 82}, {"time": 1589, "pitch": 61, "duration": 8, "velocity": 90}, {"time": 1589, "pitch": 65, "duration": 8, "velocity": 88}, {"time": 1595, "pitch": 49, "duration": 1, "velocity": 71}, {"time": 1601, "pitch": 49, "duration": 5, "velocity": 82}, {"time": 1601, "pitch": 56, "duration": 4, "velocity": 80}, {"time": 1601, "pitch": 61, "duration": 4, "velocity": 81}, {"time": 1607, "pitch": 42, "duration": 23, "velocity": 81}, {"time": 1607, "pitch": 58, "duration": 8, "velocity": 77}, {"time": 1607, "pitch": 61, "duration": 8, "velocity": 79}, {"time": 1613, "pitch": 49, "duration": 16, "velocity": 72}, {"time": 1619, "pitch": 58, "duration": 3, "velocity": 81}, {"time": 1619, "pitch": 66, "duration": 3, "velocity": 82}, {"time": 1628, "pitch": 58, "duration": 2, "velocity": 80}, {"time": 1628, "pitch": 61, "duration": 2, "velocity": 86}, {"time": 1628, "pitch": 66, "duration": 2, "velocity": 81}, {"time": 1637, "pitch": 42, "duration": 14, "velocity": 80}, {"time": 1637, "pitch": 58, "duration": 7, "velocity": 77}, {"time": 1637, "pitch": 61, "duration": 7, "velocity": 79}, {"time": 1637, "pitch": 66, "duration": 6, "velocity": 75}, {"time": 1649, "pitch": 58, "duration": 3, "velocity": 80}, {"time": 1649, "pitch": 61, "duration": 2, "velocity": 82}, {"time": 1649, "pitch": 66, "duration": 3, "velocity": 74}, {"time": 1655, "pitch": 49, "duration": 14, "velocity": 84}, {"time": 1655, "pitch": 56, "duration": 9, "velocity": 78}, {"time": 1655, "pitch": 61, "duration": 9, "velocity": 75}, {"time": 1655, "pitch": 65, "duration": 9, "velocity": 79}, {"time": 1667, "pitch": 56, "duration": 4, "velocity": 83}, {"time": 1667, "pitch": 61, "duration": 3, "velocity": 93}, {"time": 1667, "pitch": 65, "duration": 3, "velocity": 90}, {"time": 1676, "pitch": 56, "duration": 3, "velocity": 80}, {"time": 1676, "pitch": 61, "duration": 2, "velocity": 83}, {"time": 1676, "pitch": 65, "duration": 2, "velocity": 81}, {"time": 1679, "pitch": 49, "duration": 9, "velocity": 80}, {"time": 1685, "pitch": 56, "duration": 7, "velocity": 83}, {"time": 1685, "pitch": 61, "duration": 7, "velocity": 85}, {"time": 1685, "pitch": 65, "duration": 6, "velocity": 85}, {"time": 1697, "pitch": 56, "duration": 2, "velocity": 81}, {"time": 1697, "pitch": 61, "duration": 3, "velocity": 82}, {"time": 1697, "pitch": 65, "duration": 3, "velocity": 80}, {"time": 1703, "pitch": 51, "duration": 10, "velocity": 85}, {"time": 1703, "pitch": 58, "duration": 9, "velocity": 73}, {"time": 1703, "pitch": 63, "duration": 8, "velocity": 76}, {"time": 1715, "pitch": 58, "duration": 5, "velocity": 80}, {"time": 1715, "pitch": 63, "duration": 4, "velocity": 84}, {"time": 1715, "pitch": 66, "duration": 3, "velocity": 80}, {"time": 1724, "pitch": 58, "duration": 4, "velocity": 78}, {"time": 1724, "pitch": 63, "duration": 4, "velocity": 81}, {"time": 1724, "pitch": 66, "duration": 4, "velocity": 80}, {"time": 1727, "pitch": 51, "duration": 10, "velocity": 79}, {"time": 1733, "pitch": 58, "duration": 8, "velocity": 80}, {"time": 1733, "pitch": 63, "duration": 8, "velocity": 81}, {"time": 1733, "pitch": 66, "duration": 8, "velocity": 80}, {"time": 1745, "pitch": 58, "duration": 3, "velocity": 79}, {"time": 1745, "pitch": 63, "duration": 2, "velocity": 80}, {"time": 1745, "pitch": 66, "duration": 3, "velocity": 79}, {"time": 1751, "pitch": 49, "duration": 14, "velocity": 79}, {"time": 1751, "pitch": 56, "duration": 9, "velocity": 79}, {"time": 1751, "pitch": 65, "duration": 9, "velocity": 79}, {"time": 1763, "pitch": 56, "duration": 5, "velocity": 81}, {"time": 1763, "pitch": 61, "duration": 4, "velocity": 81}, {"time": 1772, "pitch": 56, "duration": 5, "velocity": 85}, {"time": 1772, "pitch": 65, "duration": 4, "velocity": 85}, {"time": 1775, "pitch": 49, "duration": 5, "velocity": 96}, {"time": 1781, "pitch": 56, "duration": 8, "velocity": 80}, {"time": 1781, "pitch": 61, "duration": 7, "velocity": 86}, {"time": 1793, "pitch": 56, "duration": 3, "velocity": 80}, {"time": 1793, "pitch": 61, "duration": 2, "velocity": 81}, {"time": 1793, "pitch": 65, "duration": 1, "velocity": 81}, {"time": 1799, "pitch": 47, "duration": 20, "velocity": 83}, {"time": 1799, "pitch": 54, "duration": 9, "velocity": 76}, {"time": 1799, "pitch": 59, "duration": 9, "velocity": 72}, {"time": 1799, "pitch": 61, "duration": 6, "velocity": 78}, {"time": 1799, "pitch": 63, "duration": 9, "velocity": 71}, {"time": 1811, "pitch": 54, "duration": 5, "velocity": 82}, {"time": 1811, "pitch": 59, "duration": 4, "velocity": 84}, {"time": 1811, "pitch": 63, "duration": 5, "velocity": 82}, {"time": 1820, "pitch": 54, "duration": 4, "velocity": 79}, {"time": 1820, "pitch": 59, "duration": 5, "velocity": 80}, {"time": 1820, "pitch": 63, "duration": 4, "velocity": 80}, {"time": 1823, "pitch": 47, "duration": 9, "velocity": 79}, {"time": 1829, "pitch": 54, "duration": 7, "velocity": 79}, {"time": 1829, "pitch": 59, "duration": 8, "velocity": 83}, {"time": 1835, "pitch": 47, "duration": 2, "velocity": 73}, {"time": 1841, "pitch": 54, "duration": 2, "velocity": 65}, {"time": 1841, "pitch": 59, "duration": 2, "velocity": 75}, {"time": 1847, "pitch": 46, "duration": 17, "velocity": 80}, {"time": 1847, "pitch": 58, "duration": 8, "velocity": 72}, {"time": 1847, "pitch": 61, "duration": 8, "velocity": 79}, {"time": 1859, "pitch": 58, "duration": 3, "velocity": 80}, {"time": 1859, "pitch": 61, "duration": 3, "velocity": 88}, {"time": 1859, "pitch": 65, "duration": 3, "velocity": 84}, {"time": 1868, "pitch": 58, "duration": 3, "velocity": 75}, {"time": 1868, "pitch": 61, "duration": 3, "velocity": 76}, {"time": 1868, "pitch": 65, "duration": 3, "velocity": 80}, {"time": 1871, "pitch": 46, "duration": 9, "velocity": 71}, {"time": 1877, "pitch": 58, "duration": 7, "velocity": 81}, {"time": 1877, "pitch": 61, "duration": 7, "velocity": 80}, {"time": 1877, "pitch": 65, "duration": 6, "velocity": 83}, {"time": 1889, "pitch": 58, "duration": 2, "velocity": 78}, {"time": 1889, "pitch": 61, "duration": 2, "velocity": 80}, {"time": 1889, "pitch": 65, "duration": 1, "velocity": 78}, {"time": 1895, "pitch": 44, "duration": 15, "velocity": 80}, {"time": 1895, "pitch": 56, "duration": 7, "velocity": 76}, {"time": 1895, "pitch": 59, "duration": 7, "velocity": 72}, {"time": 1895, "pitch": 63, "duration": 6, "velocity": 77}, {"time": 1907, "pitch": 56, "duration": 3, "velocity": 84}, {"time": 1907, "pitch": 59, "duration": 3, "velocity": 90}, {"time": 1907, "pitch": 63, "duration": 3, "velocity": 85}, {"time": 1916, "pitch": 56, "duration": 3, "velocity": 72}, {"time": 1916, "pitch": 59, "duration": 3, "velocity": 72}, {"time": 1916, "pitch": 63, "duration": 3, "velocity": 75}, {"time": 1919, "pitch": 44, "duration": 21, "velocity": 75}, {"time": 1919, "pitch": 51, "duration": 20, "velocity": 73}, {"time": 1925, "pitch": 56, "duration": 7, "velocity": 84}, {"time": 1925, "pitch": 59, "duration": 8, "velocity": 86}, {"time": 1925, "pitch": 63, "duration": 4, "velocity": 85}, {"time": 1937, "pitch": 56, "duration": 3, "velocity": 78}, {"time": 1937, "pitch": 59, "duration": 2, "velocity": 81}, {"time": 1937, "pitch": 63, "duration": 3, "velocity": 80}, {"time": 1943, "pitch": 49, "duration": 15, "velocity": 83}, {"time": 1943, "pitch": 56, "duration": 7, "velocity": 79}, {"time": 1943, "pitch": 61, "duration": 7, "velocity": 80}, {"time": 1955, "pitch": 56, "duration": 3, "velocity": 84}, {"time": 1955, "pitch": 61, "duration": 3, "velocity": 93}, {"time": 1955, "pitch": 65, "duration": 3, "velocity": 90}, {"time": 1964, "pitch": 56, "duration": 5, "velocity": 77}, {"time": 1964, "pitch": 61, "duration": 5, "velocity": 80}, {"time": 1964, "pitch": 65, "duration": 4, "velocity": 80}, {"time": 1967, "pitch": 49, "duration": 10, "velocity": 88}, {"time": 1973, "pitch": 56, "duration": 8, "velocity": 82}, {"time": 1973, "pitch": 61, "duration": 8, "velocity": 90}, {"time": 1973, "pitch": 65, "duration": 8, "velocity": 88}, {"time": 1979, "pitch": 49, "duration": 1, "velocity": 71}, {"time": 1985, "pitch": 49, "duration": 5, "velocity": 82}, {"time": 1985, "pitch": 56, "duration": 4, "velocity": 80}, {"time": 1985, "pitch": 61, "duration": 4, "velocity": 81}, {"time": 1991, "pitch": 42, "duration": 33, "velocity": 81}, {"time": 1991, "pitch": 54, "duration": 13, "velocity": 72}, {"time": 1991, "pitch": 61, "duration": 6, "velocity": 77}, {"time": 1997, "pitch": 49, "duration": 14, "velocity": 74}, {"time": 2003, "pitch": 58, "duration": 2, "velocity": 75}, {"time": 2009, "pitch": 54, "duration": 9, "velocity": 79}, {"time": 2009, "pitch": 66, "duration": 3, "velocity": 81}, {"time": 2015, "pitch": 49, "duration": 9, "velocity": 74}, {"time": 2021, "pitch": 58, "duration": 1, "velocity": 83}, {"time": 2021, "pitch": 61, "duration": 2, "velocity": 81}, {"time": 2039, "pitch": 49, "duration": 39, "velocity": 81}, {"time": 2039, "pitch": 56, "duration": 3, "velocity": 80}, {"time": 2039, "pitch": 65, "duration": 9, "velocity": 80}, {"time": 2045, "pitch": 56, "duration": 5, "velocity": 75}, {"time": 2051, "pitch": 61, "duration": 1, "velocity": 75}, {"time": 2057, "pitch": 56, "duration": 2, "velocity": 82}, {"time": 2057, "pitch": 65, "duration": 2, "velocity": 86}, {"time": 2069, "pitch": 56, "duration": 4, "velocity": 79}, {"time": 2069, "pitch": 61, "duration": 7, "velocity": 82}, {"time": 2087, "pitch": 51, "duration": 31, "velocity": 81}, {"time": 2087, "pitch": 58, "duration": 3, "velocity": 80}, {"time": 2087, "pitch": 66, "duration": 7, "velocity": 81}, {"time": 2093, "pitch": 58, "duration": 3, "velocity": 77}, {"time": 2099, "pitch": 63, "duration": 1, "velocity": 79}, {"time": 2105, "pitch": 58, "duration": 2, "velocity": 81}, {"time": 2105, "pitch": 66, "duration": 3, "velocity": 85}, {"time": 2117, "pitch": 58, "duration": 5, "velocity": 81}, {"time": 2117, "pitch": 63, "duration": 4, "velocity": 88}, {"time": 2123, "pitch": 51, "duration": 1, "velocity": 81}, {"time": 2129, "pitch": 58, "duration": 2, "velocity": 80}, {"time": 2129, "pitch": 63, "duration": 2, "velocity": 81}, {"time": 2135, "pitch": 49, "duration": 32, "velocity": 85}, {"time": 2135, "pitch": 56, "duration": 3, "velocity": 79}, {"time": 2135, "pitch": 61, "duration": 4, "velocity": 80}, {"time": 2141, "pitch": 56, "duration": 1, "velocity": 71}, {"time": 2147, "pitch": 56, "duration": 2, "velocity": 80}, {"time": 2147, "pitch": 65, "duration": 2, "velocity": 81}, {"time": 2153, "pitch": 56, "duration": 2, "velocity": 84}, {"time": 2153, "pitch": 65, "duration": 2, "velocity": 83}, {"time": 2165, "pitch": 56, "duration": 5, "velocity": 79}, {"time": 2165, "pitch": 61, "duration": 6, "velocity": 80}, {"time": 2171, "pitch": 49, "duration": 3, "velocity": 70}, {"time": 2177, "pitch": 56, "duration": 2, "velocity": 79}, {"time": 2183, "pitch": 47, "duration": 21, "velocity": 79}, {"time": 2183, "pitch": 54, "duration": 8, "velocity": 74}, {"time": 2183, "pitch": 59, "duration": 1, "velocity": 68}, {"time": 2183, "pitch": 63, "duration": 12, "velocity": 79}, {"time": 2195, "pitch": 54, "duration": 1, "velocity": 75}, {"time": 2201, "pitch": 54, "duration": 2, "velocity": 80}, {"time": 2201, "pitch": 59, "duration": 2, "velocity": 88}, {"time": 2201, "pitch": 63, "duration": 2, "velocity": 83}, {"time": 2213, "pitch": 54, "duration": 1, "velocity": 71}, {"time": 2219, "pitch": 54, "duration": 2, "velocity": 80}, {"time": 2219, "pitch": 59, "duration": 2, "velocity": 82}, {"time": 2219, "pitch": 63, "duration": 3, "velocity": 80}, {"time": 2231, "pitch": 46, "duration": 36, "velocity": 80}, {"time": 2231, "pitch": 58, "duration": 6, "velocity": 79}, {"time": 2231, "pitch": 61, "duration": 7, "velocity": 80}, {"time": 2237, "pitch": 53, "duration": 16, "velocity": 68}, {"time": 2243, "pitch": 58, "duration": 1, "velocity": 79}, {"time": 2243, "pitch": 61, "duration": 1, "velocity": 88}, {"time": 2243, "pitch": 65, "duration": 2, "velocity": 85}, {"time": 2249, "pitch": 58, "duration": 7, "velocity": 80}, {"time": 2249, "pitch": 61, "duration": 7, "velocity": 84}, {"time": 2249, "pitch": 65, "duration": 7, "velocity": 86}, {"time": 2261, "pitch": 58, "duration": 6, "velocity": 80}, {"time": 2261, "pitch": 61, "duration": 7, "velocity": 85}, {"time": 2267, "pitch": 53, "duration": 2, "velocity": 81}, {"time": 2273, "pitch": 58, "duration": 2, "velocity": 79}, {"time": 2279, "pitch": 44, "duration": 45, "velocity": 81}, {"time": 2279, "pitch": 56, "duration": 9, "velocity": 75}, {"time": 2279, "pitch": 63, "duration": 8, "velocity": 76}, {"time": 2285, "pitch": 51, "duration": 38, "velocity": 66}, {"time": 2291, "pitch": 56, "duration": 2, "velocity": 75}, {"time": 2291, "pitch": 59, "duration": 2, "velocity": 74}, {"time": 2297, "pitch": 56, "duration": 2, "velocity": 81}, {"time": 2297, "pitch": 63, "duration": 2, "velocity": 85}, {"time": 2309, "pitch": 56, "duration": 3, "velocity": 83}, {"time": 2315, "pitch": 56, "duration": 2, "velocity": 79}, {"time": 2315, "pitch": 68, "duration": 3, "velocity": 80}, {"time": 2321, "pitch": 56, "duration": 3, "velocity": 79}, {"time": 2327, "pitch": 49, "duration": 15, "velocity": 86}, {"time": 2327, "pitch": 56, "duration": 2, "velocity": 75}, {"time": 2327, "pitch": 61, "duration": 7, "velocity": 79}, {"time": 2333, "pitch": 56, "duration": 2, "velocity": 79}, {"time": 2339, "pitch": 56, "duration": 3, "velocity": 85}, {"time": 2339, "pitch": 65, "duration": 4, "velocity": 84}, {"time": 2345, "pitch": 56, "duration": 3, "velocity": 80}, {"time": 2351, "pitch": 49, "duration": 20, "velocity": 83}, {"time": 2357, "pitch": 56, "duration": 7, "velocity": 82}, {"time": 2357, "pitch": 61, "duration": 7, "velocity": 84}, {"time": 2369, "pitch": 56, "duration": 3, "velocity": 64}, {"time": 2369, "pitch": 61, "duration": 3, "velocity": 77}, {"time": 2369, "pitch": 65, "duration": 3, "velocity": 77}, {"time": 2375, "pitch": 42, "duration": 39, "velocity": 81}, {"time": 2375, "pitch": 58, "duration": 8, "velocity": 75}, {"time": 2375, "pitch": 61, "duration": 12, "velocity": 79}, {"time": 2381, "pitch": 49, "duration": 31, "velocity": 69}, {"time": 2387, "pitch": 58, "duration": 22, "velocity": 78}, {"time": 2393, "pitch": 66, "duration": 20, "velocity": 84}, {"time": 2411, "pitch": 58, "duration": 1, "velocity": 71}, {"time": 2411, "pitch": 61, "duration": 5, "velocity": 81}, {"time": 2423, "pitch": 49, "duration": 37, "velocity": 82}, {"time": 2423, "pitch": 56, "duration": 4, "velocity": 75}, {"time": 2423, "pitch": 65, "duration": 10, "velocity": 82}, {"time": 2429, "pitch": 56, "duration": 7, "velocity": 75}, {"time": 2435, "pitch": 61, "duration": 3, "velocity": 75}, {"time": 2441, "pitch": 56, "duration": 14, "velocity": 81}, {"time": 2441, "pitch": 65, "duration": 15, "velocity": 84}, {"time": 2459, "pitch": 56, "duration": 3, "velocity": 82}, {"time": 2459, "pitch": 61, "duration": 4, "velocity": 83}, {"time": 2471, "pitch": 51, "duration": 35, "velocity": 88}, {"time": 2471, "pitch": 58, "duration": 3, "velocity": 74}, {"time": 2471, "pitch": 66, "duration": 12, "velocity": 79}, {"time": 2477, "pitch": 58, "duration": 10, "velocity": 76}, {"time": 2483, "pitch": 63, "duration": 4, "velocity": 84}, {"time": 2489, "pitch": 58, "duration": 18, "velocity": 80}, {"time": 2489, "pitch": 66, "duration": 18, "velocity": 80}, {"time": 2507, "pitch": 63, "duration": 5, "velocity": 82}, {"time": 2513, "pitch": 58, "duration": 3, "velocity": 74}, {"time": 2519, "pitch": 49, "duration": 32, "velocity": 80}, {"time": 2519, "pitch": 56, "duration": 4, "velocity": 82}, {"time": 2519, "pitch": 65, "duration": 12, "velocity": 82}, {"time": 2525, "pitch": 56, "duration": 8, "velocity": 78}, {"time": 2531, "pitch": 61, "duration": 2, "velocity": 78}, {"time": 2537, "pitch": 56, "duration": 18, "velocity": 83}, {"time": 2537, "pitch": 65, "duration": 17, "velocity": 84}, {"time": 2555, "pitch": 61, "duration": 1, "velocity": 84}, {"time": 2567, "pitch": 47, "duration": 37, "velocity": 85}, {"time": 2567, "pitch": 54, "duration": 3, "velocity": 74}, {"time": 2567, "pitch": 63, "duration": 13, "velocity": 79}, {"time": 2573, "pitch": 54, "duration": 8, "velocity": 79}, {"time": 2579, "pitch": 59, "duration": 2, "velocity": 80}, {"time": 2585, "pitch": 54, "duration": 13, "velocity": 83}, {"time": 2585, "pitch": 63, "duration": 21, "velocity": 82}, {"time": 2603, "pitch": 54, "duration": 2, "velocity": 80}, {"time": 2603, "pitch": 59, "duration": 3, "velocity": 84}, {"time": 2615, "pitch": 42, "duration": 37, "velocity": 79}, {"time": 2615, "pitch": 58, "duration": 3, "velocity": 79}, {"time": 2615, "pitch": 61, "duration": 6, "velocity": 81}, {"time": 2621, "pitch": 58, "duration": 8, "velocity": 74}, {"time": 2627, "pitch": 61, "duration": 5, "velocity": 78}, {"time": 2633, "pitch": 61, "duration": 15, "velocity": 79}, {"time": 2633, "pitch": 66, "duration": 16, "velocity": 82}, {"time": 2651, "pitch": 58, "duration": 3, "velocity": 80}, {"time": 2651, "pitch": 61, "duration": 3, "velocity": 85}, {"time": 2663, "pitch": 44, "duration": 45, "velocity": 80}, {"time": 2663, "pitch": 56, "duration": 12, "velocity": 79}, {"time": 2663, "pitch": 59, "duration": 13, "velocity": 73}, {"time": 2669, "pitch": 51, "duration": 38, "velocity": 73}, {"time": 2675, "pitch": 63, "duration": 3, "velocity": 80}, {"time": 2681, "pitch": 56, "duration": 6, "velocity": 81}, {"time": 2681, "pitch": 68, "duration": 4, "velocity": 79}, {"time": 2693, "pitch": 56, "duration": 14, "velocity": 80}, {"time": 2693, "pitch": 63, "duration": 15, "velocity": 80}, {"time": 2711, "pitch": 49, "duration": 47, "velocity": 81}, {"time": 2711, "pitch": 56, "duration": 2, "velocity": 79}, {"time": 2711, "pitch": 61, "duration": 7, "velocity": 79}, {"time": 2717, "pitch": 56, "duration": 7, "velocity": 79}, {"time": 2723, "pitch": 61, "duration": 2, "velocity": 76}, {"time": 2729, "pitch": 56, "duration": 3, "velocity": 81}, {"time": 2729, "pitch": 65, "duration": 3, "velocity": 85}, {"time": 2741, "pitch": 56, "duration": 3, "velocity": 78}, {"time": 2741, "pitch": 61, "duration": 7, "velocity": 80}, {"time": 2747, "pitch": 56, "duration": 7, "velocity": 81}, {"time": 2753, "pitch": 61, "duration": 4, "velocity": 76}, {"time": 2759, "pitch": 42, "duration": 39, "velocity": 81}, {"time": 2759, "pitch": 58, "duration": 8, "velocity": 75}, {"time": 2759, "pitch": 61, "duration": 12, "velocity": 79}, {"time": 2765, "pitch": 49, "duration": 31, "velocity": 69}, {"time": 2771, "pitch": 58, "duration": 22, "velocity": 78}, {"time": 2777, "pitch": 66, "duration": 20, "velocity": 84}, {"time": 2795, "pitch": 58, "duration": 1, "velocity": 71}, {"time": 2795, "pitch": 61, "duration": 5, "velocity": 81}, {"time": 2807, "pitch": 49, "duration": 37, "velocity": 82}, {"time": 2807, "pitch": 56, "duration": 4, "velocity": 75}, {"time": 2807, "pitch": 65, "duration": 10, "velocity": 82}, {"time": 2813, "pitch": 56, "duration": 7, "velocity": 75}, {"time": 2819, "pitch": 61, "duration": 3, "velocity": 75}, {"time": 2825, "pitch": 56, "duration": 14, "velocity": 81}, {"time": 2825, "pitch": 65, "duration": 15, "velocity": 84}, {"time": 2843, "pitch": 56, "duration": 3, "velocity": 82}, {"time": 2843, "pitch": 61, "duration": 4, "velocity": 83}, {"time": 2855, "pitch": 51, "duration": 35, "velocity": 88}, {"time": 2855, "pitch": 58, "duration": 3, "velocity": 74}, {"time": 2855, "pitch": 66, "duration": 12, "velocity": 79}, {"time": 2861, "pitch": 58, "duration": 10, "velocity": 76}, {"time": 2867, "pitch": 63, "duration": 4, "velocity": 84}, {"time": 2873, "pitch": 58, "duration": 18, "velocity": 80}, {"time": 2873, "pitch": 66, "duration": 18, "velocity": 80}, {"time": 2891, "pitch": 63, "duration": 5, "velocity": 82}, {"time": 2897, "pitch": 58, "duration": 3, "velocity": 74}, {"time": 2903, "pitch": 49, "duration": 32, "velocity": 80}, {"time": 2903, "pitch": 56, "duration": 4, "velocity": 82}, {"time": 2903, "pitch": 65, "duration": 12, "velocity": 82}, {"time": 2909, "pitch": 56, "duration": 8, "velocity": 78}, {"time": 2915, "pitch": 61, "duration": 2, "velocity": 78}, {"time": 2921, "pitch": 56, "duration": 18, "velocity": 83}, {"time": 2921, "pitch": 65, "duration": 17, "velocity": 84}, {"time": 2939, "pitch": 61, "duration": 1, "velocity": 84}, {"time": 2951, "pitch": 47, "duration": 37, "velocity": 85}, {"time": 2951, "pitch": 54, "duration": 3, "velocity": 74}, {"time": 2951, "pitch": 63, "duration": 13, "velocity": 79}, {"time": 2957, "pitch": 54, "duration": 8, "velocity": 79}, {"time": 2963, "pitch": 59, "duration": 2, "velocity": 80}, {"time": 2969, "pitch": 54, "duration": 13, "velocity": 83}, {"time": 2969, "pitch": 63, "duration": 21, "velocity": 82}, {"time": 2987, "pitch": 54, "duration": 2, "velocity": 80}, {"time": 2987, "pitch": 59, "duration": 3, "velocity": 84}, {"time": 2999, "pitch": 42, "duration": 37, "velocity": 79}, {"time": 2999, "pitch": 58, "duration": 3, "velocity": 79}, {"time": 2999, "pitch": 61, "duration": 6, "velocity": 81}, {"time": 3005, "pitch": 58, "duration": 8, "velocity": 74}, {"time": 3011, "pitch": 61, "duration": 5, "velocity": 78}, {"time": 3017, "pitch": 61, "duration": 15, "velocity": 79}, {"time": 3017, "pitch": 66, "duration": 16, "velocity": 82}, {"time": 3035, "pitch": 58, "duration": 3, "velocity": 80}, {"time": 3035, "pitch": 61, "duration": 3, "velocity": 85}, {"time": 3047, "pitch": 44, "duration": 45, "velocity": 80}, {"time": 3047, "pitch": 56, "duration": 12, "velocity": 79}, {"time": 3047, "pitch": 59, "duration": 13, "velocity": 73}, {"time": 3053, "pitch": 51, "duration": 38, "velocity": 73}, {"time": 3059, "pitch": 63, "duration": 3, "velocity": 80}, {"time": 3065, "pitch": 56, "duration": 6, "velocity": 81}, {"time": 3065, "pitch": 68, "duration": 4, "velocity": 79}, {"time": 3077, "pitch": 56, "duration": 14, "velocity": 80}, {"time": 3077, "pitch": 63, "duration": 15, "velocity": 80}, {"time": 3095, "pitch": 49, "duration": 47, "velocity": 81}, {"time": 3095, "pitch": 56, "duration": 2, "velocity": 79}, {"time": 3095, "pitch": 61, "duration": 7, "velocity": 79}, {"time": 3101, "pitch": 56, "duration": 7, "velocity": 79}, {"time": 3107, "pitch": 61, "duration": 2, "velocity": 76}, {"time": 3113, "pitch": 56, "duration": 3, "velocity": 81}, {"time": 3113, "pitch": 65, "duration": 3, "velocity": 85}, {"time": 3125, "pitch": 56, "duration": 3, "velocity": 78}, {"time": 3125, "pitch": 61, "duration": 7, "velocity": 80}, {"time": 3131, "pitch": 56, "duration": 7, "velocity": 81}, {"time": 3137, "pitch": 61, "duration": 4, "velocity": 76}, {"time": 3143, "pitch": 42, "duration": 23, "velocity": 81}, {"time": 3143, "pitch": 58, "duration": 8, "velocity": 77}, {"time": 3143, "pitch": 61, "duration": 8, "velocity": 79}, {"time": 3149, "pitch": 49, "duration": 16, "velocity": 72}, {"time": 3155, "pitch": 58, "duration": 3, "velocity": 81}, {"time": 3155, "pitch": 66, "duration": 3, "velocity": 82}, {"time": 3164, "pitch": 58, "duration": 2, "velocity": 80}, {"time": 3164, "pitch": 61, "duration": 2, "velocity": 86}, {"time": 3164, "pitch": 66, "duration": 2, "velocity": 81}, {"time": 3173, "pitch": 42, "duration": 14, "velocity": 80}, {"time": 3173, "pitch": 58, "duration": 7, "velocity": 77}, {"time": 3173, "pitch": 61, "duration": 7, "velocity": 79}, {"time": 3173, "pitch": 66, "duration": 6, "velocity": 75}, {"time": 3185, "pitch": 58, "duration": 3, "velocity": 80}, {"time": 3185, "pitch": 61, "duration": 2, "velocity": 82}, {"time": 3185, "pitch": 66, "duration": 3, "velocity": 74}, {"time": 3191, "pitch": 49, "duration": 14, "velocity": 84}, {"time": 3191, "pitch": 56, "duration": 9, "velocity": 78}, {"time": 3191, "pitch": 61, "duration": 9, "velocity": 75}, {"time": 3191, "pitch": 65, "duration": 9, "velocity": 79}, {"time": 3203, "pitch": 56, "duration": 4, "velocity": 83}, {"time": 3203, "pitch": 61, "duration": 3, "velocity": 93}, {"time": 3203, "pitch": 65, "duration": 3, "velocity": 90}, {"time": 3212, "pitch": 56, "duration": 3, "velocity": 80}, {"time": 3212, "pitch": 61, "duration": 2, "velocity": 83}, {"time": 3212, "pitch": 65, "duration": 2, "velocity": 81}, {"time": 3215, "pitch": 49, "duration": 9, "velocity": 80}, {"time": 3221, "pitch": 56, "duration": 7, "velocity": 83}, {"time": 3221, "pitch": 61, "duration": 7, "velocity": 85}, {"time": 3221, "pitch": 65, "duration": 6, "velocity": 85}, {"time": 3233, "pitch": 56, "duration": 2, "velocity": 81}, {"time": 3233, "pitch": 61, "duration": 3, "velocity": 82}, {"time": 3233, "pitch": 65, "duration": 3, "velocity": 80}, {"time": 3239, "pitch": 51, "duration": 10, "velocity": 85}, {"time": 3239, "pitch": 58, "duration": 9, "velocity": 73}, {"time": 3239, "pitch": 63, "duration": 8, "velocity": 76}, {"time": 3251, "pitch": 58, "duration": 5, "velocity": 80}, {"time": 3251, "pitch": 63, "duration": 4, "velocity": 84}, {"time": 3251, "pitch": 66, "duration": 3, "velocity": 80}, {"time": 3260, "pitch": 58, "duration": 4, "velocity": 78}, {"time": 3260, "pitch": 63, "duration": 4, "velocity": 81}, {"time": 3260, "pitch": 66, "duration": 4, "velocity": 80}, {"time": 3263, "pitch": 51, "duration": 10, "velocity": 79}, {"time": 3269, "pitch": 58, "duration": 8, "velocity": 80}, {"time": 3269, "pitch": 63, "duration": 8, "velocity": 81}, {"time": 3269, "pitch": 66, "duration": 8, "velocity": 80}, {"time": 3281, "pitch": 58, "duration": 3, "velocity": 79}, {"time": 3281, "pitch": 63, "duration": 2, "velocity": 80}, {"time": 3281, "pitch": 66, "duration": 3, "velocity": 79}, {"time": 3287, "pitch": 49, "duration": 14, "velocity": 79}, {"time": 3287, "pitch": 56, "duration": 9, "velocity": 79}, {"time": 3287, "pitch": 65, "duration": 9, "velocity": 79}, {"time": 3299, "pitch": 56, "duration": 5, "velocity": 81}, {"time": 3299, "pitch": 61, "duration": 4, "velocity": 81}, {"time": 3308, "pitch": 56, "duration": 5, "velocity": 85}, {"time": 3308, "pitch": 65, "duration": 4, "velocity": 85}, {"time": 3311, "pitch": 49, "duration": 5, "velocity": 96}, {"time": 3317, "pitch": 56, "duration": 8, "velocity": 80}, {"time": 3317, "pitch": 61, "duration": 7, "velocity": 86}, {"time": 3329, "pitch": 56, "duration": 3, "velocity": 80}, {"time": 3329, "pitch": 61, "duration": 2, "velocity": 81}, {"time": 3329, "pitch": 65, "duration": 1, "velocity": 81}, {"time": 3335, "pitch": 47, "duration": 20, "velocity": 83}, {"time": 3335, "pitch": 54, "duration": 9, "velocity": 76}, {"time": 3335, "pitch": 59, "duration": 9, "velocity": 72}, {"time": 3335, "pitch": 61, "duration": 6, "velocity": 78}, {"time": 3335, "pitch": 63, "duration": 9, "velocity": 71}, {"time": 3347, "pitch": 54, "duration": 5, "velocity": 82}, {"time": 3347, "pitch": 59, "duration": 4, "velocity": 84}, {"time": 3347, "pitch": 63, "duration": 5, "velocity": 82}, {"time": 3356, "pitch": 54, "duration": 4, "velocity": 79}, {"time": 3356, "pitch": 59, "duration": 5, "velocity": 80}, {"time": 3356, "pitch": 63, "duration": 4, "velocity": 80}, {"time": 3359, "pitch": 47, "duration": 9, "velocity": 79}, {"time": 3365, "pitch": 54, "duration": 7, "velocity": 79}, {"time": 3365, "pitch": 59, "duration": 8, "velocity": 83}, {"time": 3371, "pitch": 47, "duration": 2, "velocity": 73}, {"time": 3377, "pitch": 54, "duration": 2, "velocity": 65}, {"time": 3377, "pitch": 59, "duration": 2, "velocity": 75}, {"time": 3383, "pitch": 46, "duration": 17, "velocity": 80}, {"time": 3383, "pitch": 58, "duration": 8, "velocity": 72}, {"time": 3383, "pitch": 61, "duration": 8, "velocity": 79}, {"time": 3395, "pitch": 58, "duration": 3, "velocity": 80}, {"time": 3395, "pitch": 61, "duration": 3, "velocity": 88}, {"time": 3395, "pitch": 65, "duration": 3, "velocity": 84}, {"time": 3404, "pitch": 58, "duration": 3, "velocity": 75}, {"time": 3404, "pitch": 61, "duration": 3, "velocity": 76}, {"time": 3404, "pitch": 65, "duration": 3, "velocity": 80}, {"time": 3407, "pitch": 46, "duration": 9, "velocity": 71}, {"time": 3413, "pitch": 58, "duration": 7, "velocity": 81}, {"time": 3413, "pitch": 61, "duration": 7, "velocity": 80}, {"time": 3413, "pitch": 65, "duration": 6, "velocity": 83}, {"time": 3425, "pitch": 58, "duration": 2, "velocity": 78}, {"time": 3425, "pitch": 61, "duration": 2, "velocity": 80}, {"time": 3425, "pitch": 65, "duration": 1, "velocity": 78}, {"time": 3431, "pitch": 44, "duration": 15, "velocity": 80}, {"time": 3431, "pitch": 56, "duration": 7, "velocity": 76}, {"time": 3431, "pitch": 59, "duration": 7, "velocity": 72}, {"time": 3431, "pitch": 63, "duration": 6, "velocity": 77}, {"time": 3443, "pitch": 56, "duration": 3, "velocity": 84}, {"time": 3443, "pitch": 59, "duration": 3, "velocity": 90}, {"time": 3443, "pitch": 63, "duration": 3, "velocity": 85}, {"time": 3452, "pitch": 56, "duration": 3, "velocity": 72}, {"time": 3452, "pitch": 59, "duration": 3, "velocity": 72}, {"time": 3452, "pitch": 63, "duration": 3, "velocity": 75}, {"time": 3455, "pitch": 44, "duration": 21, "velocity": 75}, {"time": 3455, "pitch": 51, "duration": 20, "velocity": 73}, {"time": 3461, "pitch": 56, "duration": 7, "velocity": 84}, {"time": 3461, "pitch": 59, "duration": 8, "velocity": 86}, {"time": 3461, "pitch": 63, "duration": 4, "velocity": 85}, {"time": 3473, "pitch": 56, "duration": 3, "velocity": 78}, {"time": 3473, "pitch": 59, "duration": 2, "velocity": 81}, {"time": 3473, "pitch": 63, "duration": 3, "velocity": 80}, {"time": 3479, "pitch": 49, "duration": 15, "velocity": 83}, {"time": 3479, "pitch": 56, "duration": 7, "velocity": 79}, {"time": 3479, "pitch": 61, "duration": 7, "velocity": 80}, {"time": 3491, "pitch": 56, "duration": 3, "velocity": 84}, {"time": 3491, "pitch": 61, "duration": 3, "velocity": 93}, {"time": 3491, "pitch": 65, "duration": 3, "velocity": 90}, {"time": 3500, "pitch": 56, "duration": 5, "velocity": 77}, {"time": 3500, "pitch": 61, "duration": 5, "velocity": 80}, {"time": 3500, "pitch": 65, "duration": 4, "velocity": 80}, {"time": 3503, "pitch": 49, "duration": 10, "velocity": 88}, {"time": 3509, "pitch": 56, "duration": 8, "velocity": 82}, {"time": 3509, "pitch": 61, "duration": 8, "velocity": 90}, {"time": 3509, "pitch": 65, "duration": 8, "velocity": 88}, {"time": 3515, "pitch": 49, "duration": 1, "velocity": 71}, {"time": 3521, "pitch": 49, "duration": 5, "velocity": 82}, {"time": 3521, "pitch": 56, "duration": 4, "velocity": 80}, {"time": 3521, "pitch": 61, "duration": 4, "velocity": 81}, {"time": 3527, "pitch": 42, "duration": 23, "velocity": 81}, {"time": 3527, "pitch": 58, "duration": 8, "velocity": 77}, {"time": 3527, "pitch": 61, "duration": 8, "velocity": 79}, {"time": 3533, "pitch": 49, "duration": 16, "velocity": 72}, {"time": 3539, "pitch": 58, "duration": 3, "velocity": 81}, {"time": 3539, "pitch": 66, "duration": 3, "velocity": 82}, {"time": 3548, "pitch": 58, "duration": 2, "velocity": 80}, {"time": 3548, "pitch": 61, "duration": 2, "velocity": 86}, {"time": 3548, "pitch": 66, "duration": 2, "velocity": 81}, {"time": 3557, "pitch": 42, "duration": 14, "velocity": 80}, {"time": 3557, "pitch": 58, "duration": 7, "velocity": 77}, {"time": 3557, "pitch": 61, "duration": 7, "velocity": 79}, {"time": 3557, "pitch": 66, "duration": 6, "velocity": 75}, {"time": 3569, "pitch": 58, "duration": 3, "velocity": 80}, {"time": 3569, "pitch": 61, "duration": 2, "velocity": 82}, {"time": 3569, "pitch": 66, "duration": 3, "velocity": 74}, {"time": 3575, "pitch": 49, "duration": 14, "velocity": 84}, {"time": 3575, "pitch": 56, "duration": 9, "velocity": 78}, {"time": 3575, "pitch": 61, "duration": 9, "velocity": 75}, {"time": 3575, "pitch": 65, "duration": 9, "velocity": 79}, {"time": 3587, "pitch": 56, "duration": 4, "velocity": 83}, {"time": 3587, "pitch": 61, "duration": 3, "velocity": 93}, {"time": 3587, "pitch": 65, "duration": 3, "velocity": 90}, {"time": 3596, "pitch": 56, "duration": 3, "velocity": 80}, {"time": 3596, "pitch": 61, "duration": 2, "velocity": 83}, {"time": 3596, "pitch": 65, "duration": 2, "velocity": 81}, {"time": 3599, "pitch": 49, "duration": 9, "velocity": 80}, {"time": 3605, "pitch": 56, "duration": 7, "velocity": 83}, {"time": 3605, "pitch": 61, "duration": 7, "velocity": 85}, {"time": 3605, "pitch": 65, "duration": 6, "velocity": 85}, {"time": 3617, "pitch": 56, "duration": 2, "velocity": 81}, {"time": 3617, "pitch": 61, "duration": 3, "velocity": 82}, {"time": 3617, "pitch": 65, "duration": 3, "velocity": 80}, {"time": 3623, "pitch": 51, "duration": 10, "velocity": 85}, {"time": 3623, "pitch": 58, "duration": 9, "velocity": 73}, {"time": 3623, "pitch": 63, "duration": 8, "velocity": 76}, {"time": 3635, "pitch": 58, "duration": 5, "velocity": 80}, {"time": 3635, "pitch": 63, "duration": 4, "velocity": 84}, {"time": 3635, "pitch": 66, "duration": 3, "velocity": 80}, {"time": 3644, "pitch": 58, "duration": 4, "velocity": 78}, {"time": 3644, "pitch": 63, "duration": 4, "velocity": 81}, {"time": 3644, "pitch": 66, "duration": 4, "velocity": 80}, {"time": 3647, "pitch": 51, "duration": 10, "velocity": 79}, {"time": 3653, "pitch": 58, "duration": 8, "velocity": 80}, {"time": 3653, "pitch": 63, "duration": 8, "velocity": 81}, {"time": 3653, "pitch": 66, "duration": 8, "velocity": 80}, {"time": 3665, "pitch": 58, "duration": 3, "velocity": 79}, {"time": 3665, "pitch": 63, "duration": 2, "velocity": 80}, {"time": 3665, "pitch": 66, "duration": 3, "velocity": 79}, {"time": 3671, "pitch": 49, "duration": 14, "velocity": 79}, {"time": 3671, "pitch": 56, "duration": 9, "velocity": 79}, {"time": 3671, "pitch": 65, "duration": 9, "velocity": 79}, {"time": 3683, "pitch": 56, "duration": 5, "velocity": 81}, {"time": 3683, "pitch": 61, "duration": 4, "velocity": 81}, {"time": 3692, "pitch": 56, "duration": 5, "velocity": 85}, {"time": 3692, "pitch": 65, "duration": 4, "velocity": 85}, {"time": 3695, "pitch": 49, "duration": 5, "velocity": 96}, {"time": 3701, "pitch": 56, "duration": 8, "velocity": 80}, {"time": 3701, "pitch": 61, "duration": 7, "velocity": 86}, {"time": 3713, "pitch": 56, "duration": 3, "velocity": 80}, {"time": 3713, "pitch": 61, "duration": 2, "velocity": 81}, {"time": 3713, "pitch": 65, "duration": 1, "velocity": 81}, {"time": 3719, "pitch": 47, "duration": 20, "velocity": 83}, {"time": 3719, "pitch": 54, "duration": 9, "velocity": 76}, {"time": 3719, "pitch": 59, "duration": 9, "velocity": 72}, {"time": 3719, "pitch": 61, "duration": 6, "velocity": 78}, {"time": 3719, "pitch": 63, "duration": 9, "velocity": 71}, {"time": 3731, "pitch": 54, "duration": 5, "velocity": 82}, {"time": 3731, "pitch": 59, "duration": 4, "velocity": 84}, {"time": 3731, "pitch": 63, "duration": 5, "velocity": 82}, {"time": 3740, "pitch": 54, "duration": 4, "velocity": 79}, {"time": 3740, "pitch": 59, "duration": 5, "velocity": 80}, {"time": 3740, "pitch": 63, "duration": 4, "velocity": 80}, {"time": 3743, "pitch": 47, "duration": 9, "velocity": 79}, {"time": 3749, "pitch": 54, "duration": 7, "velocity": 79}, {"time": 3749, "pitch": 59, "duration": 8, "velocity": 83}, {"time": 3755, "pitch": 47, "duration": 2, "velocity": 73}, {"time": 3761, "pitch": 54, "duration": 2, "velocity": 65}, {"time": 3761, "pitch": 59, "duration": 2, "velocity": 75}, {"time": 3767, "pitch": 46, "duration": 17, "velocity": 80}, {"time": 3767, "pitch": 58, "duration": 8, "velocity": 72}, {"time": 3767, "pitch": 61, "duration": 8, "velocity": 79}, {"time": 3779, "pitch": 58, "duration": 3, "velocity": 80}, {"time": 3779, "pitch": 61, "duration": 3, "velocity": 88}, {"time": 3779, "pitch": 65, "duration": 3, "velocity": 84}, {"time": 3788, "pitch": 58, "duration": 3, "velocity": 75}, {"time": 3788, "pitch": 61, "duration": 3, "velocity": 76}, {"time": 3788, "pitch": 65, "duration": 3, "velocity": 80}, {"time": 3791, "pitch": 46, "duration": 9, "velocity": 71}, {"time": 3797, "pitch": 58, "duration": 7, "velocity": 81}, {"time": 3797, "pitch": 61, "duration": 7, "velocity": 80}, {"time": 3797, "pitch": 65, "duration": 6, "velocity": 83}, {"time": 3809, "pitch": 58, "duration": 2, "velocity": 78}, {"time": 3809, "pitch": 61, "duration": 2, "velocity": 80}, {"time": 3809, "pitch": 65, "duration": 1, "velocity": 78}, {"time": 3815, "pitch": 44, "duration": 15, "velocity": 80}, {"time": 3815, "pitch": 56, "duration": 7, "velocity": 76}, {"time": 3815, "pitch": 59, "duration": 7, "velocity": 72}, {"time": 3815, "pitch": 63, "duration": 6, "velocity": 77}, {"time": 3827, "pitch": 56, "duration": 3, "velocity": 84}, {"time": 3827, "pitch": 59, "duration": 3, "velocity": 90}, {"time": 3827, "pitch": 63, "duration": 3, "velocity": 85}, {"time": 3836, "pitch": 56, "duration": 3, "velocity": 72}, {"time": 3836, "pitch": 59, "duration": 3, "velocity": 72}, {"time": 3836, "pitch": 63, "duration": 3, "velocity": 75}, {"time": 3839, "pitch": 44, "duration": 21, "velocity": 75}, {"time": 3839, "pitch": 51, "duration": 20, "velocity": 73}, {"time": 3845, "pitch": 56, "duration": 7, "velocity": 84}, {"time": 3845, "pitch": 59, "duration": 8, "velocity": 86}, {"time": 3845, "pitch": 63, "duration": 4, "velocity": 85}, {"time": 3857, "pitch": 56, "duration": 3, "velocity": 78}, {"time": 3857, "pitch": 59, "duration": 2, "velocity": 81}, {"time": 3857, "pitch": 63, "duration": 3, "velocity": 80}, {"time": 3863, "pitch": 49, "duration": 15, "velocity": 83}, {"time": 3863, "pitch": 56, "duration": 7, "velocity": 79}, {"time": 3863, "pitch": 61, "duration": 7, "velocity": 80}, {"time": 3875, "pitch": 56, "duration": 3, "velocity": 84}, {"time": 3875, "pitch": 61, "duration": 3, "velocity": 93}, {"time": 3875, "pitch": 65, "duration": 3, "velocity": 90}, {"time": 3884, "pitch": 56, "duration": 5, "velocity": 77}, {"time": 3884, "pitch": 61, "duration": 5, "velocity": 80}, {"time": 3884, "pitch": 65, "duration": 4, "velocity": 80}, {"time": 3887, "pitch": 49, "duration": 10, "velocity": 88}, {"time": 3893, "pitch": 56, "duration": 8, "velocity": 82}, {"time": 3893, "pitch": 61, "duration": 8, "velocity": 90}, {"time": 3893, "pitch": 65, "duration": 8, "velocity": 88}, {"time": 3899, "pitch": 49, "duration": 1, "velocity": 71}, {"time": 3905, "pitch": 49, "duration": 5, "velocity": 82}, {"time": 3905, "pitch": 56, "duration": 4, "velocity": 80}, {"time": 3905, "pitch": 61, "duration": 4, "velocity": 81}, {"time": 3911, "pitch": 42, "duration": 33, "velocity": 81}, {"time": 3911, "pitch": 54, "duration": 13, "velocity": 72}, {"time": 3911, "pitch": 61, "duration": 6, "velocity": 77}, {"time": 3917, "pitch": 49, "duration": 14, "velocity": 74}, {"time": 3923, "pitch": 58, "duration": 2, "velocity": 75}, {"time": 3929, "pitch": 54, "duration": 9, "velocity": 79}, {"time": 3929, "pitch": 66, "duration": 3, "velocity": 81}, {"time": 3935, "pitch": 49, "duration": 9, "velocity": 74}, {"time": 3941, "pitch": 58, "duration": 1, "velocity": 83}, {"time": 3941, "pitch": 61, "duration": 2, "velocity": 81}, {"time": 3959, "pitch": 49, "duration": 39, "velocity": 81}, {"time": 3959, "pitch": 56, "duration": 3, "velocity": 80}, {"time": 3959, "pitch": 65, "duration": 9, "velocity": 80}, {"time": 3965, "pitch": 56, "duration": 5, "velocity": 75}, {"time": 3971, "pitch": 61, "duration": 1, "velocity": 75}, {"time": 3977, "pitch": 56, "duration": 2, "velocity": 82}, {"time": 3977, "pitch": 65, "duration": 2, "velocity": 86}, {"time": 3989, "pitch": 56, "duration": 4, "velocity": 79}, {"time": 3989, "pitch": 61, "duration": 7, "velocity": 82}, {"time": 4007, "pitch": 51, "duration": 31, "velocity": 81}, {"time": 4007, "pitch": 58, "duration": 3, "velocity": 80}, {"time": 4007, "pitch": 66, "duration": 7, "velocity": 81}, {"time": 4013, "pitch": 58, "duration": 3, "velocity": 77}, {"time": 4019, "pitch": 63, "duration": 1, "velocity": 79}, {"time": 4025, "pitch": 58, "duration": 2, "velocity": 81}, {"time": 4025, "pitch": 66, "duration": 3, "velocity": 85}, {"time": 4037, "pitch": 58, "duration": 5, "velocity": 81}, {"time": 4037, "pitch": 63, "duration": 4, "velocity": 88}, {"time": 4043, "pitch": 51, "duration": 1, "velocity": 81}, {"time": 4049, "pitch": 58, "duration": 2, "velocity": 80}, {"time": 4049, "pitch": 63, "duration": 2, "velocity": 81}, {"time": 4055, "pitch": 49, "duration": 32, "velocity": 85}, {"time": 4055, "pitch": 56, "duration": 3, "velocity": 79}, {"time": 4055, "pitch": 61, "duration": 4, "velocity": 80}, {"time": 4061, "pitch": 56, "duration": 1, "velocity": 71}, {"time": 4067, "pitch": 56, "duration": 2, "velocity": 80}, {"time": 4067, "pitch": 65, "duration": 2, "velocity": 81}, {"time": 4073, "pitch": 56, "duration": 2, "velocity": 84}, {"time": 4073, "pitch": 65, "duration": 2, "velocity": 83}, {"time": 4085, "pitch": 56, "duration": 5, "velocity": 79}, {"time": 4085, "pitch": 61, "duration": 6, "velocity": 80}, {"time": 4091, "pitch": 49, "duration": 3, "velocity": 70}, {"time": 4097, "pitch": 56, "duration": 2, "velocity": 79}, {"time": 4103, "pitch": 47, "duration": 21, "velocity": 79}, {"time": 4103, "pitch": 54, "duration": 8, "velocity": 74}, {"time": 4103, "pitch": 59, "duration": 1, "velocity": 68}, {"time": 4103, "pitch": 63, "duration": 12, "velocity": 79}, {"time": 4115, "pitch": 54, "duration": 1, "velocity": 75}, {"time": 4121, "pitch": 54, "duration": 2, "velocity": 80}, {"time": 4121, "pitch": 59, "duration": 2, "velocity": 88}, {"time": 4121, "pitch": 63, "duration": 2, "velocity": 83}, {"time": 4133, "pitch": 54, "duration": 1, "velocity": 71}, {"time": 4139, "pitch": 54, "duration": 2, "velocity": 80}, {"time": 4139, "pitch": 59, "duration": 2, "velocity": 82}, {"time": 4139, "pitch": 63, "duration": 3, "velocity": 80}, {"time": 4151, "pitch": 46, "duration": 36, "velocity": 80}, {"time": 4151, "pitch": 58, "duration": 6, "velocity": 79}, {"time": 4151, "pitch": 61, "duration": 7, "velocity": 80}, {"time": 4157, "pitch": 53, "duration": 16, "velocity": 68}, {"time": 4163, "pitch": 58, "duration": 1, "velocity": 79}, {"time": 4163, "pitch": 61, "duration": 1, "velocity": 88}, {"time": 4163, "pitch": 65, "duration": 2, "velocity": 85}, {"time": 4169, "pitch": 58, "duration": 7, "velocity": 80}, {"time": 4169, "pitch": 61, "duration": 7, "velocity": 84}, {"time": 4169, "pitch": 65, "duration": 7, "velocity": 86}, {"time": 4181, "pitch": 58, "duration": 6, "velocity": 80}, {"time": 4181, "pitch": 61, "duration": 7, "velocity": 85}, {"time": 4187, "pitch": 53, "duration": 2, "velocity": 81}, {"time": 4193, "pitch": 58, "duration": 2, "velocity": 79}, {"time": 4199, "pitch": 44, "duration": 45, "velocity": 81}, {"time": 4199, "pitch": 56, "duration": 9, "velocity": 75}, {"time": 4199, "pitch": 63, "duration": 8, "velocity": 76}, {"time": 4205, "pitch": 51, "duration": 38, "velocity": 66}, {"time": 4211, "pitch": 56, "duration": 2, "velocity": 75}, {"time": 4211, "pitch": 59, "duration": 2, "velocity": 74}, {"time": 4217, "pitch": 56, "duration": 2, "velocity": 81}, {"time": 4217, "pitch": 63, "duration": 2, "velocity": 85}, {"time": 4229, "pitch": 56, "duration": 3, "velocity": 83}, {"time": 4235, "pitch": 56, "duration": 2, "velocity": 79}, {"time": 4235, "pitch": 68, "duration": 3, "velocity": 80}, {"time": 4241, "pitch": 56, "duration": 3, "velocity": 79}, {"time": 4247, "pitch": 49, "duration": 15, "velocity": 86}, {"time": 4247, "pitch": 56, "duration": 2, "velocity": 75}, {"time": 4247, "pitch": 61, "duration": 7, "velocity": 79}, {"time": 4253, "pitch": 56, "duration": 2, "velocity": 79}, {"time": 4259, "pitch": 56, "duration": 3, "velocity": 85}, {"time": 4259, "pitch": 65, "duration": 4, "velocity": 84}, {"time": 4265, "pitch": 56, "duration": 3, "velocity": 80}, {"time": 4271, "pitch": 49, "duration": 20, "velocity": 83}, {"time": 4277, "pitch": 56, "duration": 7, "velocity": 82}, {"time": 4277, "pitch": 61, "duration": 7, "velocity": 84}, {"time": 4289, "pitch": 56, "duration": 3, "velocity": 64}, {"time": 4289, "pitch": 61, "duration": 3, "velocity": 77}, {"time": 4289, "pitch": 65, "duration": 3, "velocity": 77}, {"time": 4295, "pitch": 42, "duration": 23, "velocity": 81}, {"time": 4295, "pitch": 58, "duration": 8, "velocity": 77}, {"time": 4295, "pitch": 61, "duration": 8, "velocity": 79}, {"time": 4301, "pitch": 49, "duration": 16, "velocity": 72}, {"time": 4307, "pitch": 58, "duration": 3, "velocity": 81}, {"time": 4307, "pitch": 66, "duration": 3, "velocity": 82}, {"time": 4316, "pitch": 58, "duration": 2, "velocity": 80}, {"time": 4316, "pitch": 61, "duration": 2, "velocity": 86}, {"time": 4316, "pitch": 66, "duration": 2, "velocity": 81}, {"time": 4325, "pitch": 42, "duration": 14, "velocity": 80}, {"time": 4325, "pitch": 58, "duration": 7, "velocity": 77}, {"time": 4325, "pitch": 61, "duration": 7, "velocity": 79}, {"time": 4325, "pitch": 66, "duration": 6, "velocity": 75}, {"time": 4337, "pitch": 58, "duration": 3, "velocity": 80}, {"time": 4337, "pitch": 61, "duration": 2, "velocity": 82}, {"time": 4337, "pitch": 66, "duration": 3, "velocity": 74}, {"time": 4343, "pitch": 49, "duration": 14, "velocity": 84}, {"time": 4343, "pitch": 56, "duration": 9, "velocity": 78}, {"time": 4343, "pitch": 61, "duration": 9, "velocity": 75}, {"time": 4343, "pitch": 65, "duration": 9, "velocity": 79}, {"time": 4355, "pitch": 56, "duration": 4, "velocity": 83}, {"time": 4355, "pitch": 61, "duration": 3, "velocity": 93}, {"time": 4355, "pitch": 65, "duration": 3, "velocity": 90}, {"time": 4364, "pitch": 56, "duration": 3, "velocity": 80}, {"time": 4364, "pitch": 61, "duration": 2, "velocity": 83}, {"time": 4364, "pitch": 65, "duration": 2, "velocity": 81}, {"time": 4367, "pitch": 49, "duration": 9, "velocity": 80}, {"time": 4373, "pitch": 56, "duration": 7, "velocity": 83}, {"time": 4373, "pitch": 61, "duration": 7, "velocity": 85}, {"time": 4373, "pitch": 65, "duration": 6, "velocity": 85}, {"time": 4385, "pitch": 56, "duration": 2, "velocity": 81}, {"time": 4385, "pitch": 61, "duration": 3, "velocity": 82}, {"time": 4385, "pitch": 65, "duration": 3, "velocity": 80}, {"time": 4391, "pitch": 51, "duration": 10, "velocity": 85}, {"time": 4391, "pitch": 58, "duration": 9, "velocity": 73}, {"time": 4391, "pitch": 63, "duration": 8, "velocity": 76}, {"time": 4403, "pitch": 58, "duration": 5, "velocity": 80}, {"time": 4403, "pitch": 63, "duration": 4, "velocity": 84}, {"time": 4403, "pitch": 66, "duration": 3, "velocity": 80}, {"time": 4412, "pitch": 58, "duration": 4, "velocity": 78}, {"time": 4412, "pitch": 63, "duration": 4, "velocity": 81}, {"time": 4412, "pitch": 66, "duration": 4, "velocity": 80}, {"time": 4415, "pitch": 51, "duration": 10, "velocity": 79}, {"time": 4421, "pitch": 58, "duration": 8, "velocity": 80}, {"time": 4421, "pitch": 63, "duration": 8, "velocity": 81}, {"time": 4421, "pitch": 66, "duration": 8, "velocity": 80}, {"time": 4433, "pitch": 58, "duration": 3, "velocity": 79}, {"time": 4433, "pitch": 63, "duration": 2, "velocity": 80}, {"time": 4433, "pitch": 66, "duration": 3, "velocity": 79}, {"time": 4439, "pitch": 49, "duration": 14, "velocity": 79}, {"time": 4439, "pitch": 56, "duration": 9, "velocity": 79}, {"time": 4439, "pitch": 65, "duration": 9, "velocity": 79}, {"time": 4451, "pitch": 56, "duration": 5, "velocity": 81}, {"time": 4451, "pitch": 61, "duration": 4, "velocity": 81}, {"time": 4460, "pitch": 56, "duration": 5, "velocity": 85}, {"time": 4460, "pitch": 65, "duration": 4, "velocity": 85}, {"time": 4463, "pitch": 49, "duration": 5, "velocity": 96}, {"time": 4469, "pitch": 56, "duration": 8, "velocity": 80}, {"time": 4469, "pitch": 61, "duration": 7, "velocity": 86}, {"time": 4481, "pitch": 56, "duration": 3, "velocity": 80}, {"time": 4481, "pitch": 61, "duration": 2, "velocity": 81}, {"time": 4481, "pitch": 65, "duration": 1, "velocity": 81}, {"time": 4487, "pitch": 47, "duration": 20, "velocity": 83}, {"time": 4487, "pitch": 54, "duration": 9, "velocity": 76}, {"time": 4487, "pitch": 59, "duration": 9, "velocity": 72}, {"time": 4487, "pitch": 61, "duration": 6, "velocity": 78}, {"time": 4487, "pitch": 63, "duration": 9, "velocity": 71}, {"time": 4499, "pitch": 54, "duration": 5, "velocity": 82}, {"time": 4499, "pitch": 59, "duration": 4, "velocity": 84}, {"time": 4499, "pitch": 63, "duration": 5, "velocity": 82}, {"time": 4508, "pitch": 54, "duration": 4, "velocity": 79}, {"time": 4508, "pitch": 59, "duration": 5, "velocity": 80}, {"time": 4508, "pitch": 63, "duration": 4, "velocity": 80}, {"time": 4511, "pitch": 47, "duration": 9, "velocity": 79}, {"time": 4517, "pitch": 54, "duration": 7, "velocity": 79}, {"time": 4517, "pitch": 59, "duration": 8, "velocity": 83}, {"time": 4523, "pitch": 47, "duration": 2, "velocity": 73}, {"time": 4529, "pitch": 54, "duration": 2, "velocity": 65}, {"time": 4529, "pitch": 59, "duration": 2, "velocity": 75}, {"time": 4535, "pitch": 46, "duration": 17, "velocity": 80}, {"time": 4535, "pitch": 58, "duration": 8, "velocity": 72}, {"time": 4535, "pitch": 61, "duration": 8, "velocity": 79}, {"time": 4547, "pitch": 58, "duration": 3, "velocity": 80}, {"time": 4547, "pitch": 61, "duration": 3, "velocity": 88}, {"time": 4547, "pitch": 65, "duration": 3, "velocity": 84}, {"time": 4556, "pitch": 58, "duration": 3, "velocity": 75}, {"time": 4556, "pitch": 61, "duration": 3, "velocity": 76}, {"time": 4556, "pitch": 65, "duration": 3, "velocity": 80}, {"time": 4559, "pitch": 46, "duration": 9, "velocity": 71}, {"time": 4565, "pitch": 58, "duration": 7, "velocity": 81}, {"time": 4565, "pitch": 61, "duration": 7, "velocity": 80}, {"time": 4565, "pitch": 65, "duration": 6, "velocity": 83}, {"time": 4577, "pitch": 58, "duration": 2, "velocity": 78}, {"time": 4577, "pitch": 61, "duration": 2, "velocity": 80}, {"time": 4577, "pitch": 65, "duration": 1, "velocity": 78}, {"time": 4583, "pitch": 44, "duration": 15, "velocity": 80}, {"time": 4583, "pitch": 56, "duration": 7, "velocity": 76}, {"time": 4583, "pitch": 59, "duration": 7, "velocity": 72}, {"time": 4583, "pitch": 63, "duration": 6, "velocity": 77}, {"time": 4595, "pitch": 56, "duration": 3, "velocity": 84}, {"time": 4595, "pitch": 59, "duration": 3, "velocity": 90}, {"time": 4595, "pitch": 63, "duration": 3, "velocity": 85}, {"time": 4604, "pitch": 56, "duration": 3, "velocity": 72}, {"time": 4604, "pitch": 59, "duration": 3, "velocity": 72}, {"time": 4604, "pitch": 63, "duration": 3, "velocity": 75}, {"time": 4607, "pitch": 44, "duration": 21, "velocity": 75}, {"time": 4607, "pitch": 51, "duration": 20, "velocity": 73}, {"time": 4613, "pitch": 56, "duration": 7, "velocity": 84}, {"time": 4613, "pitch": 59, "duration": 8, "velocity": 86}, {"time": 4613, "pitch": 63, "duration": 4, "velocity": 85}, {"time": 4625, "pitch": 56, "duration": 3, "velocity": 78}, {"time": 4625, "pitch": 59, "duration": 2, "velocity": 81}, {"time": 4625, "pitch": 63, "duration": 3, "velocity": 80}, {"time": 4631, "pitch": 49, "duration": 15, "velocity": 83}, {"time": 4631, "pitch": 56, "duration": 7, "velocity": 79}, {"time": 4631, "pitch": 61, "duration": 7, "velocity": 80}, {"time": 4643, "pitch": 56, "duration": 3, "velocity": 84}, {"time": 4643, "pitch": 61, "duration": 3, "velocity": 93}, {"time": 4643, "pitch": 65, "duration": 3, "velocity": 90}, {"time": 4652, "pitch": 56, "duration": 5, "velocity": 77}, {"time": 4652, "pitch": 61, "duration": 5, "velocity": 80}, {"time": 4652, "pitch": 65, "duration": 4, "velocity": 80}, {"time": 4655, "pitch": 49, "duration": 10, "velocity": 88}, {"time": 4661, "pitch": 56, "duration": 8, "velocity": 82}, {"time": 4661, "pitch": 61, "duration": 8, "velocity": 90}, {"time": 4661, "pitch": 65, "duration": 8, "velocity": 88}, {"time": 4667, "pitch": 49, "duration": 1, "velocity": 71}, {"time": 4673, "pitch": 49, "duration": 5, "velocity": 82}, {"time": 4673, "pitch": 56, "duration": 4, "velocity": 80}, {"time": 4673, "pitch": 61, "duration": 4, "velocity": 81}, {"time": 4679, "pitch": 37, "duration": 15, "velocity": 76}, {"time": 4679, "pitch": 56, "duration": 24, "velocity": 73}, {"time": 4679, "pitch": 61, "duration": 24, "velocity": 75}, {"time": 4727, "pitch": 42, "duration": 46, "velocity": 83}, {"time": 4733, "pitch": 49, "duration": 40, "velocity": 78}, {"time": 4739, "pitch": 54, "duration": 17, "velocity": 85}, {"time": 4745, "pitch": 58, "duration": 12, "velocity": 81}, {"time": 4751, "pitch": 61, "duration": 7, "velocity": 79}, {"time": 4757, "pitch": 66, "duration": 3, "velocity": 79}, {"time": 4763, "pitch": 66, "duration": 3, "velocity": 66}, {"time": 4763, "pitch": 70, "duration": 4, "velocity": 75}, {"time": 4769, "pitch": 66, "duration": 2, "velocity": 71}, {"time": 4769, "pitch": 73, "duration": 3, "velocity": 60}, {"time": 4775, "pitch": 42, "duration": 28, "velocity": 80}, {"time": 4775, "pitch": 66, "duration": 29, "velocity": 65}, {"time": 4775, "pitch": 78, "duration": 29, "velocity": 76}], "annotations": [{"time": 74, "annotation": {"number": 64, "value": 127}, "group": "control_change"}, {"time": 118, "annotation": {"number": 64, "value": 0}, "group": "control_change"}, {"time": 121, "annotation": {"number": 64, "value": 127}, "group": "control_change"}, {"time": 165, "annotation": {"number": 64, "value": 0}, "group": "control_change"}, {"time": 175, "annotation": {"number": 64, "value": 127}, "group": "control_change"}, {"time": 176, "annotation": {"number": 64, "value": 0}, "group": "control_change"}, {"time": 176, "annotation": {"number": 64, "value": 127}, "group": "control_change"}, {"time": 212, "annotation": {"number": 64, "value": 0}, "group": "control_change"}, {"time": 218, "annotation": {"number": 64, "value": 127}, "group": "control_change"}, {"time": 260, "annotation": {"number": 64, "value": 0}, "group": "control_change"}, {"time": 267, "annotation": {"number": 64, "value": 127}, "group": "control_change"}, {"time": 308, "annotation": {"number": 64, "value": 0}, "group": "control_change"}, {"time": 312, "annotation": {"number": 64, "value": 127}, "group": "control_change"}, {"time": 356, "annotation": {"number": 64, "value": 0}, "group": "control_change"}, {"time": 364, "annotation": {"number": 64, "value": 127}, "group": "control_change"}, {"time": 404, "annotation": {"number": 64, "value": 0}, "group": "control_change"}, {"time": 409, "annotation": {"number": 64, "value": 127}, "group": "control_change"}, {"time": 449, "annotation": {"number": 64, "value": 0}, "group": "control_change"}, {"time": 458, "annotation": {"number": 64, "value": 127}, "group": "control_change"}, {"time": 502, "annotation": {"number": 64, "value": 0}, "group": "control_change"}, {"time": 505, "annotation": {"number": 64, "value": 127}, "group": "control_change"}, {"time": 549, "annotation": {"number": 64, "value": 0}, "group": "control_change"}, {"time": 559, "annotation": {"number": 64, "value": 127}, "group": "control_change"}, {"time": 560, "annotation": {"number": 64, "value": 0}, "group": "control_change"}, {"time": 560, "annotation": {"number": 64, "value": 127}, "group": "control_change"}, {"time": 596, "annotation": {"number": 64, "value": 0}, "group": "control_change"}, {"time": 602, "annotation": {"number": 64, "value": 127}, "group": "control_change"}, {"time": 644, "annotation": {"number": 64, "value": 0}, "group": "control_change"}, {"time": 651, "annotation": {"number": 64, "value": 127}, "group": "control_change"}, {"time": 692, "annotation": {"number": 64, "value": 0}, "group": "control_change"}, {"time": 696, "annotation": {"number": 64, "value": 127}, "group": "control_change"}, {"time": 740, "annotation": {"number": 64, "value": 0}, "group": "control_change"}, {"time": 748, "annotation": {"number": 64, "value": 127}, "group": "control_change"}, {"time": 788, "annotation": {"number": 64, "value": 0}, "group": "control_change"}, {"time": 793, "annotation": {"number": 64, "value": 127}, "group": "control_change"}, {"time": 833, "annotation": {"number": 64, "value": 0}, "group": "control_change"}, {"time": 842, "annotation": {"number": 64, "value": 127}, "group": "control_change"}, {"time": 886, "annotation": {"number": 64, "value": 0}, "group": "control_change"}, {"time": 889, "annotation": {"number": 64, "value": 127}, "group": "control_change"}, {"time": 933, "annotation": {"number": 64, "value": 0}, "group": "control_change"}, {"time": 943, "annotation": {"number": 64, "value": 127}, "group": "control_change"}, {"time": 944, "annotation": {"number": 64, "value": 0}, "group": "control_change"}, {"time": 944, "annotation": {"number": 64, "value": 127}, "group": "control_change"}, {"time": 980, "annotation": {"number": 64, "value": 0}, "group": "control_change"}, {"time": 986, "annotation": {"number": 64, "value": 127}, "group": "control_change"}, {"time": 1028, "annotation": {"number": 64, "value": 0}, "group": "control_change"}, {"time": 1035, "annotation": {"number": 64, "value": 127}, "group": "control_change"}, {"time": 1076, "annotation": {"number": 64, "value": 0}, "group": "control_change"}, {"time": 1080, "annotation": {"number": 64, "value": 127}, "group": "control_change"}, {"time": 1124, "annotation": {"number": 64, "value": 0}, "group": "control_change"}, {"time": 1132, "annotation": {"number": 64, "value": 127}, "group": "control_change"}, {"time": 1172, "annotation": {"number": 64, "value": 0}, "group": "control_change"}, {"time": 1177, "annotation": {"number": 64, "value": 127}, "group": "control_change"}, {"time": 1217, "annotation": {"number": 64, "value": 0}, "group": "control_change"}, {"time": 1223, "annotation": {"number": 64, "value": 127}, "group": "control_change"}, {"time": 1267, "annotation": {"number": 64, "value": 0}, "group": "control_change"}, {"time": 1271, "annotation": {"number": 64, "value": 127}, "group": "control_change"}, {"time": 1314, "annotation": {"number": 64, "value": 0}, "group": "control_change"}, {"time": 1317, "annotation": {"number": 64, "value": 127}, "group": "control_change"}, {"time": 1339, "annotation": {"number": 64, "value": 0}, "group": "control_change"}, {"time": 1342, "annotation": {"number": 64, "value": 127}, "group": "control_change"}, {"time": 1364, "annotation": {"number": 64, "value": 0}, "group": "control_change"}, {"time": 1367, "annotation": {"number": 64, "value": 127}, "group": "control_change"}, {"time": 1412, "annotation": {"number": 64, "value": 0}, "group": "control_change"}, {"time": 1415, "annotation": {"number": 64, "value": 127}, "group": "control_change"}, {"time": 1436, "annotation": {"number": 64, "value": 0}, "group": "control_change"}, {"time": 1439, "annotation": {"number": 64, "value": 127}, "group": "control_change"}, {"time": 1459, "annotation": {"number": 64, "value": 0}, "group": "control_change"}, {"time": 1463, "annotation": {"number": 64, "value": 127}, "group": "control_change"}, {"time": 1484, "annotation": {"number": 64, "value": 0}, "group": "control_change"}, {"time": 1486, "annotation": {"number": 64, "value": 127}, "group": "control_change"}, {"time": 1506, "annotation": {"number": 64, "value": 0}, "group": "control_change"}, {"time": 1510, "annotation": {"number": 64, "value": 127}, "group": "control_change"}, {"time": 1531, "annotation": {"number": 64, "value": 0}, "group": "control_change"}, {"time": 1534, "annotation": {"number": 64, "value": 127}, "group": "control_change"}, {"time": 1555, "annotation": {"number": 64, "value": 0}, "group": "control_change"}, {"time": 1559, "annotation": {"number": 64, "value": 127}, "group": "control_change"}, {"time": 1581, "annotation": {"number": 64, "value": 0}, "group": "control_change"}, {"time": 1587, "annotation": {"number": 64, "value": 127}, "group": "control_change"}, {"time": 1601, "annotation": {"number": 64, "value": 0}, "group": "control_change"}, {"time": 1607, "annotation": {"number": 64, "value": 127}, "group": "control_change"}, {"time": 1651, "annotation": {"number": 64, "value": 0}, "group": "control_change"}, {"time": 1655, "annotation": {"number": 64, "value": 127}, "group": "control_change"}, {"time": 1698, "annotation": {"number": 64, "value": 0}, "group": "control_change"}, {"time": 1701, "annotation": {"number": 64, "value": 127}, "group": "control_change"}, {"time": 1723, "annotation": {"number": 64, "value": 0}, "group": "control_change"}, {"time": 1726, "annotation": {"number": 64, "value": 127}, "group": "control_change"}, {"time": 1748, "annotation": {"number": 64, "value": 0}, "group": "control_change"}, {"time": 1751, "annotation": {"number": 64, "value": 127}, "group": "control_change"}, {"time": 1796, "annotation": {"number": 64, "value": 0}, "group": "control_change"}, {"time": 1799, "annotation": {"number": 64, "value": 127}, "group": "control_change"}, {"time": 1820, "annotation": {"number": 64, "value": 0}, "group": "control_change"}, {"time": 1823, "annotation": {"number": 64, "value": 127}, "group": "control_change"}, {"time": 1843, "annotation": {"number": 64, "value": 0}, "group": "control_change"}, {"time": 1847, "annotation": {"number": 64, "value": 127}, "group": "control_change"}, {"time": 1868, "annotation": {"number": 64, "value": 0}, "group": "control_change"}, {"time": 1870, "annotation": {"number": 64, "value": 127}, "group": "control_change"}, {"time": 1890, "annotation": {"number": 64, "value": 0}, "group": "control_change"}, {"time": 1894, "annotation": {"number": 64, "value": 127}, "group": "control_change"}, {"time": 1915, "annotation": {"number": 64, "value": 0}, "group": "control_change"}, {"time": 1918, "annotation": {"number": 64, "value": 127}, "group": "control_change"}, {"time": 1939, "annotation": {"number": 64, "value": 0}, "group": "control_change"}, {"time": 1943, "annotation": {"number": 64, "value": 127}, "group": "control_change"}, {"time": 1965, "annotation": {"number": 64, "value": 0}, "group": "control_change"}, {"time": 1971, "annotation": {"number": 64, "value": 127}, "group": "control_change"}, {"time": 1985, "annotation": {"number": 64, "value": 0}, "group": "control_change"}, {"time": 1991, "annotation": {"number": 64, "value": 127}, "group": "control_change"}, {"time": 1991, "annotation": {"number": 64, "value": 0}, "group": "control_change"}, {"time": 1992, "annotation": {"number": 64, "value": 127}, "group": "control_change"}, {"time": 2035, "annotation": {"number": 64, "value": 0}, "group": "control_change"}, {"time": 2040, "annotation": {"number": 64, "value": 127}, "group": "control_change"}, {"time": 2083, "annotation": {"number": 64, "value": 0}, "group": "control_change"}, {"time": 2088, "annotation": {"number": 64, "value": 127}, "group": "control_change"}, {"time": 2131, "annotation": {"number": 64, "value": 0}, "group": "control_change"}, {"time": 2135, "annotation": {"number": 64, "value": 127}, "group": "control_change"}, {"time": 2179, "annotation": {"number": 64, "value": 0}, "group": "control_change"}, {"time": 2183, "annotation": {"number": 64, "value": 127}, "group": "control_change"}, {"time": 2228, "annotation": {"number": 64, "value": 0}, "group": "control_change"}, {"time": 2232, "annotation": {"number": 64, "value": 127}, "group": "control_change"}, {"time": 2275, "annotation": {"number": 64, "value": 0}, "group": "control_change"}, {"time": 2284, "annotation": {"number": 64, "value": 127}, "group": "control_change"}, {"time": 2324, "annotation": {"number": 64, "value": 0}, "group": "control_change"}, {"time": 2328, "annotation": {"number": 64, "value": 127}, "group": "control_change"}, {"time": 2370, "annotation": {"number": 64, "value": 0}, "group": "control_change"}, {"time": 2378, "annotation": {"number": 64, "value": 127}, "group": "control_change"}, {"time": 2422, "annotation": {"number": 64, "value": 0}, "group": "control_change"}, {"time": 2425, "annotation": {"number": 64, "value": 127}, "group": "control_change"}, {"time": 2469, "annotation": {"number": 64, "value": 0}, "group": "control_change"}, {"time": 2479, "annotation": {"number": 64, "value": 127}, "group": "control_change"}, {"time": 2480, "annotation": {"number": 64, "value": 0}, "group": "control_change"}, {"time": 2480, "annotation": {"number": 64, "value": 127}, "group": "control_change"}, {"time": 2516, "annotation": {"number": 64, "value": 0}, "group": "control_change"}, {"time": 2522, "annotation": {"number": 64, "value": 127}, "group": "control_change"}, {"time": 2564, "annotation": {"number": 64, "value": 0}, "group": "control_change"}, {"time": 2571, "annotation": {"number": 64, "value": 127}, "group": "control_change"}, {"time": 2612, "annotation": {"number": 64, "value": 0}, "group": "control_change"}, {"time": 2616, "annotation": {"number": 64, "value": 127}, "group": "control_change"}, {"time": 2660, "annotation": {"number": 64, "value": 0}, "group": "control_change"}, {"time": 2668, "annotation": {"number": 64, "value": 127}, "group": "control_change"}, {"time": 2708, "annotation": {"number": 64, "value": 0}, "group": "control_change"}, {"time": 2713, "annotation": {"number": 64, "value": 127}, "group": "control_change"}, {"time": 2753, "annotation": {"number": 64, "value": 0}, "group": "control_change"}, {"time": 2762, "annotation": {"number": 64, "value": 127}, "group": "control_change"}, {"time": 2806, "annotation": {"number": 64, "value": 0}, "group": "control_change"}, {"time": 2809, "annotation": {"number": 64, "value": 127}, "group": "control_change"}, {"time": 2853, "annotation": {"number": 64, "value": 0}, "group": "control_change"}, {"time": 2863, "annotation": {"number": 64, "value": 127}, "group": "control_change"}, {"time": 2864, "annotation": {"number": 64, "value": 0}, "group": "control_change"}, {"time": 2864, "annotation": {"number": 64, "value": 127}, "group": "control_change"}, {"time": 2900, "annotation": {"number": 64, "value": 0}, "group": "control_change"}, {"time": 2906, "annotation": {"number": 64, "value": 127}, "group": "control_change"}, {"time": 2948, "annotation": {"number": 64, "value": 0}, "group": "control_change"}, {"time": 2955, "annotation": {"number": 64, "value": 127}, "group": "control_change"}, {"time": 2996, "annotation": {"number": 64, "value": 0}, "group": "control_change"}, {"time": 3000, "annotation": {"number": 64, "value": 127}, "group": "control_change"}, {"time": 3044, "annotation": {"number": 64, "value": 0}, "group": "control_change"}, {"time": 3052, "annotation": {"number": 64, "value": 127}, "group": "control_change"}, {"time": 3092, "annotation": {"number": 64, "value": 0}, "group": "control_change"}, {"time": 3097, "annotation": {"number": 64, "value": 127}, "group": "control_change"}, {"time": 3137, "annotation": {"number": 64, "value": 0}, "group": "control_change"}, {"time": 3143, "annotation": {"number": 64, "value": 127}, "group": "control_change"}, {"time": 3187, "annotation": {"number": 64, "value": 0}, "group": "control_change"}, {"time": 3191, "annotation": {"number": 64, "value": 127}, "group": "control_change"}, {"time": 3234, "annotation": {"number": 64, "value": 0}, "group": "control_change"}, {"time": 3237, "annotation": {"number": 64, "value": 127}, "group": "control_change"}, {"time": 3259, "annotation": {"number": 64, "value": 0}, "group": "control_change"}, {"time": 3262, "annotation": {"number": 64, "value": 127}, "group": "control_change"}, {"time": 3284, "annotation": {"number": 64, "value": 0}, "group": "control_change"}, {"time": 3287, "annotation": {"number": 64, "value": 127}, "group": "control_change"}, {"time": 3332, "annotation": {"number": 64, "value": 0}, "group": "control_change"}, {"time": 3335, "annotation": {"number": 64, "value": 127}, "group": "control_change"}, {"time": 3356, "annotation": {"number": 64, "value": 0}, "group": "control_change"}, {"time": 3359, "annotation": {"number": 64, "value": 127}, "group": "control_change"}, {"time": 3379, "annotation": {"number": 64, "value": 0}, "group": "control_change"}, {"time": 3383, "annotation": {"number": 64, "value": 127}, "group": "control_change"}, {"time": 3404, "annotation": {"number": 64, "value": 0}, "group": "control_change"}, {"time": 3406, "annotation": {"number": 64, "value": 127}, "group": "control_change"}, {"time": 3426, "annotation": {"number": 64, "value": 0}, "group": "control_change"}, {"time": 3430, "annotation": {"number": 64, "value": 127}, "group": "control_change"}, {"time": 3451, "annotation": {"number": 64, "value": 0}, "group": "control_change"}, {"time": 3454, "annotation": {"number": 64, "value": 127}, "group": "control_change"}, {"time": 3475, "annotation": {"number": 64, "value": 0}, "group": "control_change"}, {"time": 3479, "annotation": {"number": 64, "value": 127}, "group": "control_change"}, {"time": 3501, "annotation": {"number": 64, "value": 0}, "group": "control_change"}, {"time": 3507, "annotation": {"number": 64, "value": 127}, "group": "control_change"}, {"time": 3521, "annotation": {"number": 64, "value": 0}, "group": "control_change"}, {"time": 3527, "annotation": {"number": 64, "value": 127}, "group": "control_change"}, {"time": 3571, "annotation": {"number": 64, "value": 0}, "group": "control_change"}, {"time": 3575, "annotation": {"number": 64, "value": 127}, "group": "control_change"}, {"time": 3618, "annotation": {"number": 64, "value": 0}, "group": "control_change"}, {"time": 3621, "annotation": {"number": 64, "value": 127}, "group": "control_change"}, {"time": 3643, "annotation": {"number": 64, "value": 0}, "group": "control_change"}, {"time": 3646, "annotation": {"number": 64, "value": 127}, "group": "control_change"}, {"time": 3668, "annotation": {"number": 64, "value": 0}, "group": "control_change"}, {"time": 3671, "annotation": {"number": 64, "value": 127}, "group": "control_change"}, {"time": 3716, "annotation": {"number": 64, "value": 0}, "group": "control_change"}, {"time": 3719, "annotation": {"number": 64, "value": 127}, "group": "control_change"}, {"time": 3740, "annotation": {"number": 64, "value": 0}, "group": "control_change"}, {"time": 3743, "annotation": {"number": 64, "value": 127}, "group": "control_change"}, {"time": 3763, "annotation": {"number": 64, "value": 0}, "group": "control_change"}, {"time": 3767, "annotation": {"number": 64, "value": 127}, "group": "control_change"}, {"time": 3788, "annotation": {"number": 64, "value": 0}, "group": "control_change"}, {"time": 3790, "annotation": {"number": 64, "value": 127}, "group": "control_change"}, {"time": 3810, "annotation": {"number": 64, "value": 0}, "group": "control_change"}, {"time": 3814, "annotation": {"number": 64, "value": 127}, "group": "control_change"}, {"time": 3835, "annotation": {"number": 64, "value": 0}, "group": "control_change"}, {"time": 3838, "annotation": {"number": 64, "value": 127}, "group": "control_change"}, {"time": 3859, "annotation": {"number": 64, "value": 0}, "group": "control_change"}, {"time": 3863, "annotation": {"number": 64, "value": 127}, "group": "control_change"}, {"time": 3885, "annotation": {"number": 64, "value": 0}, "group": "control_change"}, {"time": 3891, "annotation": {"number": 64, "value": 127}, "group": "control_change"}, {"time": 3905, "annotation": {"number": 64, "value": 0}, "group": "control_change"}, {"time": 3911, "annotation": {"number": 64, "value": 127}, "group": "control_change"}, {"time": 3911, "annotation": {"number": 64, "value": 0}, "group": "control_change"}, {"time": 3912, "annotation": {"number": 64, "value": 127}, "group": "control_change"}, {"time": 3955, "annotation": {"number": 64, "value": 0}, "group": "control_change"}, {"time": 3960, "annotation": {"number": 64, "value": 127}, "group": "control_change"}, {"time": 4003, "annotation": {"number": 64, "value": 0}, "group": "control_change"}, {"time": 4008, "annotation": {"number": 64, "value": 127}, "group": "control_change"}, {"time": 4051, "annotation": {"number": 64, "value": 0}, "group": "control_change"}, {"time": 4055, "annotation": {"number": 64, "value": 127}, "group": "control_change"}, {"time": 4099, "annotation": {"number": 64, "value": 0}, "group": "control_change"}, {"time": 4103, "annotation": {"number": 64, "value": 127}, "group": "control_change"}, {"time": 4148, "annotation": {"number": 64, "value": 0}, "group": "control_change"}, {"time": 4152, "annotation": {"number": 64, "value": 127}, "group": "control_change"}, {"time": 4195, "annotation": {"number": 64, "value": 0}, "group": "control_change"}, {"time": 4204, "annotation": {"number": 64, "value": 127}, "group": "control_change"}, {"time": 4244, "annotation": {"number": 64, "value": 0}, "group": "control_change"}, {"time": 4248, "annotation": {"number": 64, "value": 127}, "group": "control_change"}, {"time": 4290, "annotation": {"number": 64, "value": 0}, "group": "control_change"}, {"time": 4295, "annotation": {"number": 64, "value": 127}, "group": "control_change"}, {"time": 4339, "annotation": {"number": 64, "value": 0}, "group": "control_change"}, {"time": 4343, "annotation": {"number": 64, "value": 127}, "group": "control_change"}, {"time": 4386, "annotation": {"number": 64, "value": 0}, "group": "control_change"}, {"time": 4389, "annotation": {"number": 64, "value": 127}, "group": "control_change"}, {"time": 4411, "annotation": {"number": 64, "value": 0}, "group": "control_change"}, {"time": 4414, "annotation": {"number": 64, "value": 127}, "group": "control_change"}, {"time": 4436, "annotation": {"number": 64, "value": 0}, "group": "control_change"}, {"time": 4439, "annotation": {"number": 64, "value": 127}, "group": "control_change"}, {"time": 4484, "annotation": {"number": 64, "value": 0}, "group": "control_change"}, {"time": 4487, "annotation": {"number": 64, "value": 127}, "group": "control_change"}, {"time": 4508, "annotation": {"number": 64, "value": 0}, "group": "control_change"}, {"time": 4511, "annotation": {"number": 64, "value": 127}, "group": "control_change"}, {"time": 4531, "annotation": {"number": 64, "value": 0}, "group": "control_change"}, {"time": 4535, "annotation": {"number": 64, "value": 127}, "group": "control_change"}, {"time": 4556, "annotation": {"number": 64, "value": 0}, "group": "control_change"}, {"time": 4558, "annotation": {"number": 64, "value": 127}, "group": "control_change"}, {"time": 4578, "annotation": {"number": 64, "value": 0}, "group": "control_change"}, {"time": 4582, "annotation": {"number": 64, "value": 127}, "group": "control_change"}, {"time": 4603, "annotation": {"number": 64, "value": 0}, "group": "control_change"}, {"time": 4606, "annotation": {"number": 64, "value": 127}, "group": "control_change"}, {"time": 4627, "annotation": {"number": 64, "value": 0}, "group": "control_change"}, {"time": 4631, "annotation": {"number": 64, "value": 127}, "group": "control_change"}, {"time": 4653, "annotation": {"number": 64, "value": 0}, "group": "control_change"}, {"time": 4659, "annotation": {"number": 64, "value": 127}, "group": "control_change"}, {"time": 4673, "annotation": {"number": 64, "value": 0}, "group": "control_change"}, {"time": 4679, "annotation": {"number": 64, "value": 127}, "group": "control_change"}, {"time": 4724, "annotation": {"number": 64, "value": 0}, "group": "control_change"}, {"time": 4730, "annotation": {"number": 64, "value": 127}, "group": "control_change"}, {"time": 4836, "annotation": {"number": 64, "value": 0}, "group": "control_change"}]}]}