{"metadata": {"schema_version": "0.2", "title": "None", "source_filename": "534.mid", "source_format": "midi"}, "resolution": 12, "tempos": [{"time": 0, "qpm": 108.000108000108}], "time_signatures": [{"time": 0, "numerator": 1, "denominator": 4}], "tracks": [{"program": 0, "is_drum": false, "name": "MELODY", "notes": [{"time": 1144, "pitch": 60, "duration": 7, "velocity": 88}, {"time": 1150, "pitch": 69, "duration": 4, "velocity": 85}, {"time": 1156, "pitch": 69, "duration": 4, "velocity": 86}, {"time": 1162, "pitch": 69, "duration": 5, "velocity": 88}, {"time": 1168, "pitch": 67, "duration": 4, "velocity": 85}, {"time": 1174, "pitch": 69, "duration": 10, "velocity": 88}, {"time": 1186, "pitch": 67, "duration": 5, "velocity": 85}, {"time": 1192, "pitch": 65, "duration": 6, "velocity": 86}, {"time": 1198, "pitch": 67, "duration": 24, "velocity": 85}, {"time": 1234, "pitch": 69, "duration": 6, "velocity": 83}, {"time": 1240, "pitch": 67, "duration": 4, "velocity": 80}, {"time": 1246, "pitch": 67, "duration": 6, "velocity": 85}, {"time": 1252, "pitch": 65, "duration": 10, "velocity": 85}, {"time": 1264, "pitch": 67, "duration": 4, "velocity": 79}, {"time": 1270, "pitch": 65, "duration": 10, "velocity": 87}, {"time": 1282, "pitch": 57, "duration": 4, "velocity": 76}, {"time": 1288, "pitch": 62, "duration": 5, "velocity": 71}, {"time": 1294, "pitch": 60, "duration": 25, "velocity": 85}, {"time": 1342, "pitch": 69, "duration": 5, "velocity": 84}, {"time": 1348, "pitch": 72, "duration": 4, "velocity": 83}, {"time": 1354, "pitch": 72, "duration": 4, "velocity": 84}, {"time": 1360, "pitch": 72, "duration": 4, "velocity": 84}, {"time": 1366, "pitch": 72, "duration": 4, "velocity": 86}, {"time": 1372, "pitch": 72, "duration": 11, "velocity": 90}, {"time": 1390, "pitch": 74, "duration": 9, "velocity": 88}, {"time": 1402, "pitch": 69, "duration": 5, "velocity": 86}, {"time": 1408, "pitch": 67, "duration": 4, "velocity": 84}, {"time": 1414, "pitch": 65, "duration": 7, "velocity": 84}, {"time": 1420, "pitch": 62, "duration": 13, "velocity": 84}, {"time": 1438, "pitch": 65, "duration": 6, "velocity": 85}, {"time": 1444, "pitch": 67, "duration": 3, "velocity": 85}, {"time": 1450, "pitch": 67, "duration": 4, "velocity": 84}, {"time": 1456, "pitch": 67, "duration": 4, "velocity": 83}, {"time": 1462, "pitch": 69, "duration": 9, "velocity": 87}, {"time": 1474, "pitch": 67, "duration": 5, "velocity": 80}, {"time": 1480, "pitch": 65, "duration": 4, "velocity": 84}, {"time": 1486, "pitch": 67, "duration": 40, "velocity": 85}, {"time": 1534, "pitch": 60, "duration": 4, "velocity": 85}, {"time": 1540, "pitch": 69, "duration": 4, "velocity": 86}, {"time": 1546, "pitch": 69, "duration": 5, "velocity": 88}, {"time": 1552, "pitch": 67, "duration": 4, "velocity": 85}, {"time": 1558, "pitch": 69, "duration": 10, "velocity": 88}, {"time": 1570, "pitch": 67, "duration": 5, "velocity": 85}, {"time": 1576, "pitch": 65, "duration": 6, "velocity": 86}, {"time": 1582, "pitch": 67, "duration": 24, "velocity": 85}, {"time": 1618, "pitch": 69, "duration": 6, "velocity": 83}, {"time": 1624, "pitch": 67, "duration": 4, "velocity": 80}, {"time": 1630, "pitch": 67, "duration": 6, "velocity": 85}, {"time": 1636, "pitch": 65, "duration": 10, "velocity": 85}, {"time": 1648, "pitch": 67, "duration": 4, "velocity": 79}, {"time": 1654, "pitch": 65, "duration": 10, "velocity": 87}, {"time": 1666, "pitch": 57, "duration": 4, "velocity": 76}, {"time": 1672, "pitch": 62, "duration": 5, "velocity": 71}, {"time": 1678, "pitch": 60, "duration": 25, "velocity": 85}, {"time": 1726, "pitch": 69, "duration": 5, "velocity": 84}, {"time": 1732, "pitch": 72, "duration": 4, "velocity": 83}, {"time": 1738, "pitch": 72, "duration": 4, "velocity": 84}, {"time": 1744, "pitch": 72, "duration": 4, "velocity": 84}, {"time": 1750, "pitch": 72, "duration": 4, "velocity": 86}, {"time": 1756, "pitch": 72, "duration": 11, "velocity": 90}, {"time": 1774, "pitch": 74, "duration": 9, "velocity": 88}, {"time": 1786, "pitch": 69, "duration": 5, "velocity": 86}, {"time": 1792, "pitch": 67, "duration": 4, "velocity": 84}, {"time": 1798, "pitch": 65, "duration": 7, "velocity": 84}, {"time": 1804, "pitch": 62, "duration": 13, "velocity": 84}, {"time": 1822, "pitch": 65, "duration": 6, "velocity": 85}, {"time": 1828, "pitch": 67, "duration": 3, "velocity": 85}, {"time": 1834, "pitch": 67, "duration": 4, "velocity": 84}, {"time": 1840, "pitch": 67, "duration": 4, "velocity": 83}, {"time": 1846, "pitch": 69, "duration": 9, "velocity": 87}, {"time": 1858, "pitch": 67, "duration": 5, "velocity": 80}, {"time": 1864, "pitch": 67, "duration": 4, "velocity": 84}, {"time": 1870, "pitch": 65, "duration": 40, "velocity": 85}, {"time": 1912, "pitch": 65, "duration": 5, "velocity": 84}, {"time": 1918, "pitch": 74, "duration": 4, "velocity": 86}, {"time": 1924, "pitch": 74, "duration": 9, "velocity": 95}, {"time": 1936, "pitch": 72, "duration": 4, "velocity": 86}, {"time": 1942, "pitch": 74, "duration": 4, "velocity": 85}, {"time": 1948, "pitch": 72, "duration": 4, "velocity": 87}, {"time": 1954, "pitch": 72, "duration": 7, "velocity": 90}, {"time": 1966, "pitch": 74, "duration": 5, "velocity": 88}, {"time": 1972, "pitch": 72, "duration": 4, "velocity": 86}, {"time": 1978, "pitch": 72, "duration": 5, "velocity": 90}, {"time": 1984, "pitch": 69, "duration": 4, "velocity": 88}, {"time": 1990, "pitch": 72, "duration": 17, "velocity": 93}, {"time": 2014, "pitch": 62, "duration": 5, "velocity": 90}, {"time": 2020, "pitch": 65, "duration": 9, "velocity": 87}, {"time": 2032, "pitch": 65, "duration": 4, "velocity": 88}, {"time": 2038, "pitch": 65, "duration": 3, "velocity": 86}, {"time": 2044, "pitch": 65, "duration": 4, "velocity": 85}, {"time": 2050, "pitch": 62, "duration": 7, "velocity": 87}, {"time": 2062, "pitch": 74, "duration": 5, "velocity": 89}, {"time": 2068, "pitch": 72, "duration": 4, "velocity": 85}, {"time": 2074, "pitch": 72, "duration": 4, "velocity": 90}, {"time": 2080, "pitch": 74, "duration": 5, "velocity": 86}, {"time": 2086, "pitch": 69, "duration": 4, "velocity": 86}, {"time": 2092, "pitch": 67, "duration": 14, "velocity": 85}, {"time": 2110, "pitch": 77, "duration": 4, "velocity": 88}, {"time": 2116, "pitch": 77, "duration": 10, "velocity": 85}, {"time": 2128, "pitch": 74, "duration": 4, "velocity": 88}, {"time": 2134, "pitch": 74, "duration": 5, "velocity": 90}, {"time": 2140, "pitch": 72, "duration": 5, "velocity": 86}, {"time": 2146, "pitch": 72, "duration": 8, "velocity": 85}, {"time": 2158, "pitch": 74, "duration": 5, "velocity": 90}, {"time": 2164, "pitch": 72, "duration": 4, "velocity": 86}, {"time": 2170, "pitch": 72, "duration": 4, "velocity": 87}, {"time": 2176, "pitch": 74, "duration": 5, "velocity": 86}, {"time": 2182, "pitch": 69, "duration": 15, "velocity": 85}, {"time": 2206, "pitch": 62, "duration": 4, "velocity": 88}, {"time": 2212, "pitch": 65, "duration": 9, "velocity": 85}, {"time": 2224, "pitch": 62, "duration": 5, "velocity": 90}, {"time": 2230, "pitch": 62, "duration": 5, "velocity": 91}, {"time": 2236, "pitch": 74, "duration": 4, "velocity": 91}, {"time": 2242, "pitch": 74, "duration": 4, "velocity": 95}, {"time": 2248, "pitch": 72, "duration": 5, "velocity": 86}, {"time": 2254, "pitch": 74, "duration": 3, "velocity": 91}, {"time": 2260, "pitch": 72, "duration": 7, "velocity": 88}, {"time": 2272, "pitch": 74, "duration": 4, "velocity": 88}, {"time": 2278, "pitch": 72, "duration": 18, "velocity": 86}, {"time": 2296, "pitch": 60, "duration": 2, "velocity": 91}, {"time": 2299, "pitch": 60, "duration": 2, "velocity": 84}, {"time": 2302, "pitch": 72, "duration": 4, "velocity": 86}, {"time": 2308, "pitch": 69, "duration": 8, "velocity": 84}, {"time": 2320, "pitch": 67, "duration": 2, "velocity": 85}, {"time": 2323, "pitch": 69, "duration": 2, "velocity": 83}, {"time": 2326, "pitch": 67, "duration": 6, "velocity": 86}, {"time": 2332, "pitch": 65, "duration": 8, "velocity": 86}, {"time": 2344, "pitch": 60, "duration": 2, "velocity": 91}, {"time": 2347, "pitch": 60, "duration": 2, "velocity": 84}, {"time": 2350, "pitch": 72, "duration": 4, "velocity": 86}, {"time": 2356, "pitch": 69, "duration": 8, "velocity": 84}, {"time": 2368, "pitch": 67, "duration": 2, "velocity": 85}, {"time": 2371, "pitch": 69, "duration": 2, "velocity": 83}, {"time": 2374, "pitch": 67, "duration": 6, "velocity": 86}, {"time": 2380, "pitch": 65, "duration": 8, "velocity": 86}, {"time": 2392, "pitch": 60, "duration": 2, "velocity": 87}, {"time": 2395, "pitch": 60, "duration": 3, "velocity": 87}, {"time": 2398, "pitch": 74, "duration": 5, "velocity": 87}, {"time": 2404, "pitch": 72, "duration": 3, "velocity": 85}, {"time": 2410, "pitch": 72, "duration": 4, "velocity": 86}, {"time": 2416, "pitch": 69, "duration": 4, "velocity": 86}, {"time": 2422, "pitch": 74, "duration": 5, "velocity": 89}, {"time": 2428, "pitch": 72, "duration": 4, "velocity": 85}, {"time": 2434, "pitch": 72, "duration": 5, "velocity": 84}, {"time": 2440, "pitch": 69, "duration": 6, "velocity": 86}, {"time": 2446, "pitch": 74, "duration": 5, "velocity": 90}, {"time": 2452, "pitch": 72, "duration": 8, "velocity": 84}, {"time": 2464, "pitch": 69, "duration": 5, "velocity": 84}, {"time": 2470, "pitch": 74, "duration": 5, "velocity": 90}, {"time": 2476, "pitch": 72, "duration": 9, "velocity": 85}, {"time": 2488, "pitch": 60, "duration": 6, "velocity": 79}, {"time": 2497, "pitch": 69, "duration": 31, "velocity": 85}, {"time": 2530, "pitch": 67, "duration": 5, "velocity": 85}, {"time": 2536, "pitch": 69, "duration": 5, "velocity": 84}, {"time": 2542, "pitch": 67, "duration": 6, "velocity": 75}, {"time": 2548, "pitch": 65, "duration": 32, "velocity": 84}, {"time": 3496, "pitch": 60, "duration": 7, "velocity": 88}, {"time": 3502, "pitch": 69, "duration": 4, "velocity": 85}, {"time": 3508, "pitch": 69, "duration": 4, "velocity": 86}, {"time": 3514, "pitch": 69, "duration": 5, "velocity": 88}, {"time": 3520, "pitch": 67, "duration": 4, "velocity": 85}, {"time": 3526, "pitch": 69, "duration": 10, "velocity": 88}, {"time": 3538, "pitch": 67, "duration": 5, "velocity": 85}, {"time": 3544, "pitch": 65, "duration": 6, "velocity": 86}, {"time": 3550, "pitch": 67, "duration": 24, "velocity": 85}, {"time": 3586, "pitch": 69, "duration": 6, "velocity": 83}, {"time": 3592, "pitch": 67, "duration": 4, "velocity": 80}, {"time": 3598, "pitch": 67, "duration": 6, "velocity": 85}, {"time": 3604, "pitch": 65, "duration": 10, "velocity": 85}, {"time": 3616, "pitch": 67, "duration": 4, "velocity": 79}, {"time": 3622, "pitch": 65, "duration": 10, "velocity": 87}, {"time": 3634, "pitch": 57, "duration": 4, "velocity": 76}, {"time": 3640, "pitch": 62, "duration": 5, "velocity": 71}, {"time": 3646, "pitch": 60, "duration": 25, "velocity": 85}, {"time": 3694, "pitch": 69, "duration": 5, "velocity": 84}, {"time": 3700, "pitch": 72, "duration": 4, "velocity": 83}, {"time": 3706, "pitch": 72, "duration": 4, "velocity": 84}, {"time": 3712, "pitch": 72, "duration": 4, "velocity": 84}, {"time": 3718, "pitch": 72, "duration": 4, "velocity": 86}, {"time": 3724, "pitch": 72, "duration": 11, "velocity": 90}, {"time": 3742, "pitch": 74, "duration": 9, "velocity": 88}, {"time": 3754, "pitch": 69, "duration": 5, "velocity": 86}, {"time": 3760, "pitch": 67, "duration": 4, "velocity": 84}, {"time": 3766, "pitch": 65, "duration": 7, "velocity": 84}, {"time": 3772, "pitch": 62, "duration": 13, "velocity": 84}, {"time": 3790, "pitch": 65, "duration": 6, "velocity": 85}, {"time": 3796, "pitch": 67, "duration": 3, "velocity": 85}, {"time": 3802, "pitch": 67, "duration": 4, "velocity": 84}, {"time": 3808, "pitch": 67, "duration": 4, "velocity": 83}, {"time": 3814, "pitch": 69, "duration": 9, "velocity": 87}, {"time": 3826, "pitch": 67, "duration": 5, "velocity": 80}, {"time": 3832, "pitch": 65, "duration": 4, "velocity": 84}, {"time": 3838, "pitch": 67, "duration": 40, "velocity": 85}, {"time": 3886, "pitch": 60, "duration": 4, "velocity": 85}, {"time": 3892, "pitch": 69, "duration": 4, "velocity": 86}, {"time": 3898, "pitch": 69, "duration": 5, "velocity": 88}, {"time": 3904, "pitch": 67, "duration": 4, "velocity": 85}, {"time": 3910, "pitch": 69, "duration": 10, "velocity": 88}, {"time": 3922, "pitch": 67, "duration": 5, "velocity": 85}, {"time": 3928, "pitch": 65, "duration": 6, "velocity": 86}, {"time": 3934, "pitch": 67, "duration": 24, "velocity": 85}, {"time": 3970, "pitch": 69, "duration": 6, "velocity": 83}, {"time": 3976, "pitch": 67, "duration": 4, "velocity": 80}, {"time": 3982, "pitch": 67, "duration": 6, "velocity": 85}, {"time": 3988, "pitch": 65, "duration": 10, "velocity": 85}, {"time": 4000, "pitch": 67, "duration": 4, "velocity": 79}, {"time": 4006, "pitch": 65, "duration": 10, "velocity": 87}, {"time": 4018, "pitch": 57, "duration": 4, "velocity": 76}, {"time": 4024, "pitch": 62, "duration": 5, "velocity": 71}, {"time": 4030, "pitch": 60, "duration": 25, "velocity": 85}, {"time": 4078, "pitch": 69, "duration": 5, "velocity": 84}, {"time": 4084, "pitch": 72, "duration": 4, "velocity": 83}, {"time": 4090, "pitch": 72, "duration": 4, "velocity": 84}, {"time": 4096, "pitch": 72, "duration": 4, "velocity": 84}, {"time": 4102, "pitch": 72, "duration": 4, "velocity": 86}, {"time": 4108, "pitch": 72, "duration": 11, "velocity": 90}, {"time": 4126, "pitch": 74, "duration": 9, "velocity": 88}, {"time": 4138, "pitch": 69, "duration": 5, "velocity": 86}, {"time": 4144, "pitch": 67, "duration": 4, "velocity": 84}, {"time": 4150, "pitch": 65, "duration": 7, "velocity": 84}, {"time": 4156, "pitch": 62, "duration": 13, "velocity": 84}, {"time": 4174, "pitch": 65, "duration": 6, "velocity": 85}, {"time": 4180, "pitch": 67, "duration": 3, "velocity": 85}, {"time": 4186, "pitch": 67, "duration": 4, "velocity": 84}, {"time": 4192, "pitch": 67, "duration": 4, "velocity": 83}, {"time": 4198, "pitch": 69, "duration": 9, "velocity": 87}, {"time": 4210, "pitch": 67, "duration": 5, "velocity": 80}, {"time": 4216, "pitch": 67, "duration": 4, "velocity": 84}, {"time": 4222, "pitch": 65, "duration": 40, "velocity": 85}, {"time": 4264, "pitch": 65, "duration": 5, "velocity": 84}, {"time": 4270, "pitch": 74, "duration": 4, "velocity": 86}, {"time": 4276, "pitch": 74, "duration": 9, "velocity": 95}, {"time": 4288, "pitch": 72, "duration": 4, "velocity": 86}, {"time": 4294, "pitch": 74, "duration": 4, "velocity": 85}, {"time": 4300, "pitch": 72, "duration": 4, "velocity": 87}, {"time": 4306, "pitch": 72, "duration": 7, "velocity": 90}, {"time": 4318, "pitch": 74, "duration": 5, "velocity": 88}, {"time": 4324, "pitch": 72, "duration": 4, "velocity": 86}, {"time": 4330, "pitch": 72, "duration": 5, "velocity": 90}, {"time": 4336, "pitch": 69, "duration": 4, "velocity": 88}, {"time": 4342, "pitch": 72, "duration": 17, "velocity": 93}, {"time": 4366, "pitch": 62, "duration": 5, "velocity": 90}, {"time": 4372, "pitch": 65, "duration": 9, "velocity": 87}, {"time": 4384, "pitch": 65, "duration": 4, "velocity": 88}, {"time": 4390, "pitch": 65, "duration": 3, "velocity": 86}, {"time": 4396, "pitch": 65, "duration": 4, "velocity": 85}, {"time": 4402, "pitch": 62, "duration": 7, "velocity": 87}, {"time": 4414, "pitch": 74, "duration": 5, "velocity": 89}, {"time": 4420, "pitch": 72, "duration": 4, "velocity": 85}, {"time": 4426, "pitch": 72, "duration": 4, "velocity": 90}, {"time": 4432, "pitch": 74, "duration": 5, "velocity": 86}, {"time": 4438, "pitch": 69, "duration": 4, "velocity": 86}, {"time": 4444, "pitch": 67, "duration": 14, "velocity": 85}, {"time": 4462, "pitch": 77, "duration": 4, "velocity": 88}, {"time": 4468, "pitch": 77, "duration": 10, "velocity": 85}, {"time": 4480, "pitch": 74, "duration": 4, "velocity": 88}, {"time": 4486, "pitch": 74, "duration": 5, "velocity": 90}, {"time": 4492, "pitch": 72, "duration": 5, "velocity": 86}, {"time": 4498, "pitch": 72, "duration": 8, "velocity": 85}, {"time": 4510, "pitch": 74, "duration": 5, "velocity": 90}, {"time": 4516, "pitch": 72, "duration": 4, "velocity": 86}, {"time": 4522, "pitch": 72, "duration": 4, "velocity": 87}, {"time": 4528, "pitch": 74, "duration": 5, "velocity": 86}, {"time": 4534, "pitch": 69, "duration": 15, "velocity": 85}, {"time": 4558, "pitch": 62, "duration": 4, "velocity": 88}, {"time": 4564, "pitch": 65, "duration": 9, "velocity": 85}, {"time": 4576, "pitch": 62, "duration": 5, "velocity": 90}, {"time": 4582, "pitch": 62, "duration": 5, "velocity": 91}, {"time": 4588, "pitch": 74, "duration": 4, "velocity": 91}, {"time": 4594, "pitch": 74, "duration": 4, "velocity": 95}, {"time": 4600, "pitch": 72, "duration": 5, "velocity": 86}, {"time": 4606, "pitch": 74, "duration": 3, "velocity": 91}, {"time": 4612, "pitch": 72, "duration": 7, "velocity": 88}, {"time": 4624, "pitch": 74, "duration": 4, "velocity": 88}, {"time": 4630, "pitch": 72, "duration": 18, "velocity": 86}, {"time": 4648, "pitch": 60, "duration": 2, "velocity": 91}, {"time": 4651, "pitch": 60, "duration": 2, "velocity": 84}, {"time": 4654, "pitch": 72, "duration": 4, "velocity": 86}, {"time": 4660, "pitch": 69, "duration": 8, "velocity": 84}, {"time": 4672, "pitch": 67, "duration": 2, "velocity": 85}, {"time": 4675, "pitch": 69, "duration": 2, "velocity": 83}, {"time": 4678, "pitch": 67, "duration": 6, "velocity": 86}, {"time": 4684, "pitch": 65, "duration": 8, "velocity": 86}, {"time": 4696, "pitch": 60, "duration": 2, "velocity": 91}, {"time": 4699, "pitch": 60, "duration": 2, "velocity": 84}, {"time": 4702, "pitch": 72, "duration": 4, "velocity": 86}, {"time": 4708, "pitch": 69, "duration": 8, "velocity": 84}, {"time": 4720, "pitch": 67, "duration": 2, "velocity": 85}, {"time": 4723, "pitch": 69, "duration": 2, "velocity": 83}, {"time": 4726, "pitch": 67, "duration": 6, "velocity": 86}, {"time": 4732, "pitch": 65, "duration": 8, "velocity": 86}, {"time": 4744, "pitch": 60, "duration": 2, "velocity": 87}, {"time": 4747, "pitch": 60, "duration": 3, "velocity": 87}, {"time": 4750, "pitch": 74, "duration": 5, "velocity": 87}, {"time": 4756, "pitch": 72, "duration": 3, "velocity": 85}, {"time": 4762, "pitch": 72, "duration": 4, "velocity": 86}, {"time": 4768, "pitch": 69, "duration": 4, "velocity": 86}, {"time": 4774, "pitch": 74, "duration": 5, "velocity": 89}, {"time": 4780, "pitch": 72, "duration": 4, "velocity": 85}, {"time": 4786, "pitch": 72, "duration": 5, "velocity": 84}, {"time": 4792, "pitch": 69, "duration": 6, "velocity": 86}, {"time": 4798, "pitch": 74, "duration": 5, "velocity": 90}, {"time": 4804, "pitch": 72, "duration": 8, "velocity": 84}, {"time": 4816, "pitch": 69, "duration": 5, "velocity": 84}, {"time": 4822, "pitch": 74, "duration": 5, "velocity": 90}, {"time": 4828, "pitch": 72, "duration": 9, "velocity": 85}, {"time": 4840, "pitch": 60, "duration": 6, "velocity": 79}, {"time": 4849, "pitch": 69, "duration": 31, "velocity": 85}, {"time": 4882, "pitch": 67, "duration": 5, "velocity": 85}, {"time": 4888, "pitch": 69, "duration": 5, "velocity": 84}, {"time": 4894, "pitch": 67, "duration": 6, "velocity": 75}, {"time": 4900, "pitch": 65, "duration": 32, "velocity": 84}, {"time": 4936, "pitch": 65, "duration": 5, "velocity": 84}, {"time": 4942, "pitch": 74, "duration": 4, "velocity": 86}, {"time": 4948, "pitch": 74, "duration": 9, "velocity": 95}, {"time": 4960, "pitch": 72, "duration": 4, "velocity": 86}, {"time": 4966, "pitch": 74, "duration": 4, "velocity": 85}, {"time": 4972, "pitch": 72, "duration": 4, "velocity": 87}, {"time": 4978, "pitch": 72, "duration": 7, "velocity": 90}, {"time": 4990, "pitch": 74, "duration": 5, "velocity": 88}, {"time": 4996, "pitch": 72, "duration": 4, "velocity": 86}, {"time": 5002, "pitch": 72, "duration": 5, "velocity": 90}, {"time": 5008, "pitch": 69, "duration": 4, "velocity": 88}, {"time": 5014, "pitch": 72, "duration": 17, "velocity": 93}, {"time": 5038, "pitch": 62, "duration": 5, "velocity": 90}, {"time": 5044, "pitch": 65, "duration": 9, "velocity": 87}, {"time": 5056, "pitch": 65, "duration": 4, "velocity": 88}, {"time": 5062, "pitch": 65, "duration": 3, "velocity": 86}, {"time": 5068, "pitch": 65, "duration": 4, "velocity": 85}, {"time": 5074, "pitch": 62, "duration": 7, "velocity": 87}, {"time": 5086, "pitch": 74, "duration": 5, "velocity": 89}, {"time": 5092, "pitch": 72, "duration": 4, "velocity": 85}, {"time": 5098, "pitch": 72, "duration": 4, "velocity": 90}, {"time": 5104, "pitch": 74, "duration": 5, "velocity": 86}, {"time": 5110, "pitch": 69, "duration": 4, "velocity": 86}, {"time": 5116, "pitch": 67, "duration": 14, "velocity": 85}, {"time": 5134, "pitch": 77, "duration": 4, "velocity": 88}, {"time": 5140, "pitch": 77, "duration": 10, "velocity": 85}, {"time": 5152, "pitch": 74, "duration": 4, "velocity": 88}, {"time": 5158, "pitch": 74, "duration": 5, "velocity": 90}, {"time": 5164, "pitch": 72, "duration": 5, "velocity": 86}, {"time": 5170, "pitch": 72, "duration": 8, "velocity": 85}, {"time": 5182, "pitch": 74, "duration": 5, "velocity": 90}, {"time": 5188, "pitch": 72, "duration": 4, "velocity": 86}, {"time": 5194, "pitch": 72, "duration": 4, "velocity": 87}, {"time": 5200, "pitch": 74, "duration": 5, "velocity": 86}, {"time": 5206, "pitch": 69, "duration": 15, "velocity": 85}, {"time": 5230, "pitch": 62, "duration": 4, "velocity": 88}, {"time": 5236, "pitch": 65, "duration": 9, "velocity": 85}, {"time": 5248, "pitch": 62, "duration": 5, "velocity": 90}, {"time": 5254, "pitch": 62, "duration": 5, "velocity": 91}, {"time": 5260, "pitch": 74, "duration": 4, "velocity": 91}, {"time": 5266, "pitch": 74, "duration": 4, "velocity": 95}, {"time": 5272, "pitch": 72, "duration": 5, "velocity": 86}, {"time": 5278, "pitch": 74, "duration": 3, "velocity": 91}, {"time": 5284, "pitch": 72, "duration": 7, "velocity": 88}, {"time": 5296, "pitch": 74, "duration": 4, "velocity": 88}, {"time": 5302, "pitch": 72, "duration": 18, "velocity": 86}, {"time": 5320, "pitch": 60, "duration": 2, "velocity": 91}, {"time": 5323, "pitch": 60, "duration": 2, "velocity": 84}, {"time": 5326, "pitch": 72, "duration": 4, "velocity": 86}, {"time": 5332, "pitch": 69, "duration": 8, "velocity": 84}, {"time": 5344, "pitch": 67, "duration": 2, "velocity": 85}, {"time": 5347, "pitch": 69, "duration": 2, "velocity": 83}, {"time": 5350, "pitch": 67, "duration": 6, "velocity": 86}, {"time": 5356, "pitch": 65, "duration": 8, "velocity": 86}, {"time": 5368, "pitch": 60, "duration": 2, "velocity": 91}, {"time": 5371, "pitch": 60, "duration": 2, "velocity": 84}, {"time": 5374, "pitch": 72, "duration": 4, "velocity": 86}, {"time": 5380, "pitch": 69, "duration": 8, "velocity": 84}, {"time": 5392, "pitch": 67, "duration": 2, "velocity": 85}, {"time": 5395, "pitch": 69, "duration": 2, "velocity": 83}, {"time": 5398, "pitch": 67, "duration": 6, "velocity": 86}, {"time": 5404, "pitch": 65, "duration": 8, "velocity": 86}, {"time": 5416, "pitch": 60, "duration": 2, "velocity": 87}, {"time": 5419, "pitch": 60, "duration": 3, "velocity": 87}, {"time": 5422, "pitch": 74, "duration": 5, "velocity": 87}, {"time": 5428, "pitch": 72, "duration": 3, "velocity": 85}, {"time": 5434, "pitch": 72, "duration": 4, "velocity": 86}, {"time": 5440, "pitch": 69, "duration": 4, "velocity": 86}, {"time": 5446, "pitch": 74, "duration": 5, "velocity": 89}, {"time": 5452, "pitch": 72, "duration": 4, "velocity": 85}, {"time": 5458, "pitch": 72, "duration": 5, "velocity": 84}, {"time": 5464, "pitch": 69, "duration": 6, "velocity": 86}, {"time": 5470, "pitch": 74, "duration": 5, "velocity": 90}, {"time": 5476, "pitch": 72, "duration": 8, "velocity": 84}, {"time": 5488, "pitch": 69, "duration": 5, "velocity": 84}, {"time": 5494, "pitch": 74, "duration": 5, "velocity": 90}, {"time": 5500, "pitch": 72, "duration": 9, "velocity": 85}, {"time": 5512, "pitch": 60, "duration": 6, "velocity": 79}, {"time": 5521, "pitch": 69, "duration": 31, "velocity": 85}, {"time": 5554, "pitch": 67, "duration": 5, "velocity": 85}, {"time": 5560, "pitch": 69, "duration": 5, "velocity": 84}, {"time": 5566, "pitch": 67, "duration": 6, "velocity": 75}, {"time": 5572, "pitch": 65, "duration": 32, "velocity": 84}]}, {"program": 0, "is_drum": false, "name": "BRIDGE", "notes": [{"time": 274, "pitch": 65, "duration": 5, "velocity": 91}, {"time": 280, "pitch": 67, "duration": 4, "velocity": 89}, {"time": 286, "pitch": 69, "duration": 6, "velocity": 90}, {"time": 295, "pitch": 69, "duration": 3, "velocity": 91}, {"time": 298, "pitch": 72, "duration": 3, "velocity": 90}, {"time": 304, "pitch": 69, "duration": 3, "velocity": 91}, {"time": 310, "pitch": 77, "duration": 10, "velocity": 86}, {"time": 322, "pitch": 72, "duration": 4, "velocity": 87}, {"time": 328, "pitch": 65, "duration": 6, "velocity": 89}, {"time": 334, "pitch": 67, "duration": 6, "velocity": 86}, {"time": 343, "pitch": 67, "duration": 3, "velocity": 81}, {"time": 346, "pitch": 67, "duration": 3, "velocity": 83}, {"time": 352, "pitch": 67, "duration": 3, "velocity": 86}, {"time": 358, "pitch": 67, "duration": 6, "velocity": 85}, {"time": 367, "pitch": 67, "duration": 2, "velocity": 82}, {"time": 370, "pitch": 67, "duration": 3, "velocity": 86}, {"time": 376, "pitch": 69, "duration": 3, "velocity": 87}, {"time": 379, "pitch": 67, "duration": 2, "velocity": 85}, {"time": 382, "pitch": 65, "duration": 6, "velocity": 90}, {"time": 388, "pitch": 69, "duration": 7, "velocity": 88}, {"time": 397, "pitch": 69, "duration": 3, "velocity": 86}, {"time": 400, "pitch": 67, "duration": 3, "velocity": 86}, {"time": 406, "pitch": 65, "duration": 4, "velocity": 88}, {"time": 406, "pitch": 74, "duration": 7, "velocity": 88}, {"time": 412, "pitch": 65, "duration": 6, "velocity": 85}, {"time": 415, "pitch": 74, "duration": 3, "velocity": 85}, {"time": 418, "pitch": 65, "duration": 2, "velocity": 84}, {"time": 418, "pitch": 69, "duration": 3, "velocity": 87}, {"time": 424, "pitch": 65, "duration": 2, "velocity": 88}, {"time": 424, "pitch": 74, "duration": 4, "velocity": 86}, {"time": 430, "pitch": 60, "duration": 7, "velocity": 91}, {"time": 430, "pitch": 72, "duration": 33, "velocity": 84}, {"time": 439, "pitch": 60, "duration": 2, "velocity": 84}, {"time": 442, "pitch": 60, "duration": 3, "velocity": 84}, {"time": 448, "pitch": 60, "duration": 3, "velocity": 89}, {"time": 466, "pitch": 72, "duration": 5, "velocity": 91}, {"time": 472, "pitch": 84, "duration": 4, "velocity": 91}, {"time": 478, "pitch": 84, "duration": 4, "velocity": 90}, {"time": 484, "pitch": 84, "duration": 8, "velocity": 101}, {"time": 496, "pitch": 84, "duration": 4, "velocity": 88}, {"time": 502, "pitch": 86, "duration": 7, "velocity": 91}, {"time": 508, "pitch": 86, "duration": 1, "velocity": 90}, {"time": 514, "pitch": 84, "duration": 4, "velocity": 95}, {"time": 520, "pitch": 81, "duration": 5, "velocity": 86}, {"time": 526, "pitch": 79, "duration": 5, "velocity": 86}, {"time": 532, "pitch": 81, "duration": 9, "velocity": 88}, {"time": 544, "pitch": 77, "duration": 6, "velocity": 88}, {"time": 550, "pitch": 74, "duration": 15, "velocity": 95}, {"time": 568, "pitch": 72, "duration": 5, "velocity": 91}, {"time": 574, "pitch": 79, "duration": 6, "velocity": 88}, {"time": 580, "pitch": 79, "duration": 10, "velocity": 95}, {"time": 592, "pitch": 81, "duration": 4, "velocity": 86}, {"time": 598, "pitch": 84, "duration": 5, "velocity": 100}, {"time": 604, "pitch": 81, "duration": 10, "velocity": 90}, {"time": 616, "pitch": 79, "duration": 5, "velocity": 90}, {"time": 622, "pitch": 84, "duration": 20, "velocity": 101}, {"time": 706, "pitch": 69, "duration": 6, "velocity": 91}, {"time": 712, "pitch": 72, "duration": 4, "velocity": 91}, {"time": 718, "pitch": 74, "duration": 5, "velocity": 91}, {"time": 724, "pitch": 77, "duration": 22, "velocity": 84}, {"time": 748, "pitch": 77, "duration": 5, "velocity": 88}, {"time": 754, "pitch": 79, "duration": 4, "velocity": 88}, {"time": 760, "pitch": 81, "duration": 4, "velocity": 88}, {"time": 766, "pitch": 77, "duration": 6, "velocity": 89}, {"time": 772, "pitch": 74, "duration": 28, "velocity": 105}, {"time": 808, "pitch": 74, "duration": 3, "velocity": 89}, {"time": 811, "pitch": 72, "duration": 3, "velocity": 89}, {"time": 814, "pitch": 69, "duration": 15, "velocity": 91}, {"time": 832, "pitch": 72, "duration": 2, "velocity": 95}, {"time": 835, "pitch": 69, "duration": 3, "velocity": 95}, {"time": 838, "pitch": 67, "duration": 16, "velocity": 88}, {"time": 856, "pitch": 65, "duration": 6, "velocity": 91}, {"time": 862, "pitch": 74, "duration": 4, "velocity": 98}, {"time": 868, "pitch": 72, "duration": 12, "velocity": 93}, {"time": 880, "pitch": 69, "duration": 6, "velocity": 88}, {"time": 886, "pitch": 72, "duration": 4, "velocity": 86}, {"time": 892, "pitch": 69, "duration": 4, "velocity": 90}, {"time": 898, "pitch": 67, "duration": 4, "velocity": 86}, {"time": 904, "pitch": 65, "duration": 4, "velocity": 88}, {"time": 910, "pitch": 74, "duration": 3, "velocity": 98}, {"time": 913, "pitch": 72, "duration": 5, "velocity": 95}, {"time": 919, "pitch": 69, "duration": 3, "velocity": 80}, {"time": 922, "pitch": 72, "duration": 3, "velocity": 90}, {"time": 925, "pitch": 69, "duration": 3, "velocity": 85}, {"time": 928, "pitch": 67, "duration": 2, "velocity": 83}, {"time": 931, "pitch": 65, "duration": 3, "velocity": 80}, {"time": 934, "pitch": 74, "duration": 3, "velocity": 98}, {"time": 937, "pitch": 72, "duration": 5, "velocity": 95}, {"time": 943, "pitch": 69, "duration": 3, "velocity": 80}, {"time": 946, "pitch": 74, "duration": 3, "velocity": 90}, {"time": 949, "pitch": 77, "duration": 3, "velocity": 85}, {"time": 952, "pitch": 69, "duration": 2, "velocity": 83}, {"time": 955, "pitch": 74, "duration": 3, "velocity": 80}, {"time": 958, "pitch": 67, "duration": 2, "velocity": 84}, {"time": 958, "pitch": 72, "duration": 2, "velocity": 85}, {"time": 964, "pitch": 67, "duration": 1, "velocity": 78}, {"time": 964, "pitch": 72, "duration": 2, "velocity": 85}, {"time": 967, "pitch": 67, "duration": 1, "velocity": 73}, {"time": 967, "pitch": 72, "duration": 2, "velocity": 84}, {"time": 970, "pitch": 67, "duration": 2, "velocity": 74}, {"time": 970, "pitch": 72, "duration": 2, "velocity": 85}, {"time": 976, "pitch": 67, "duration": 2, "velocity": 82}, {"time": 976, "pitch": 72, "duration": 2, "velocity": 85}, {"time": 982, "pitch": 67, "duration": 3, "velocity": 81}, {"time": 982, "pitch": 72, "duration": 3, "velocity": 85}, {"time": 988, "pitch": 67, "duration": 3, "velocity": 81}, {"time": 988, "pitch": 72, "duration": 3, "velocity": 84}, {"time": 994, "pitch": 67, "duration": 3, "velocity": 79}, {"time": 994, "pitch": 72, "duration": 3, "velocity": 84}, {"time": 1000, "pitch": 67, "duration": 4, "velocity": 78}, {"time": 1000, "pitch": 72, "duration": 4, "velocity": 83}, {"time": 1006, "pitch": 67, "duration": 141, "velocity": 80}, {"time": 1006, "pitch": 72, "duration": 142, "velocity": 84}, {"time": 1216, "pitch": 69, "duration": 6, "velocity": 95}, {"time": 1222, "pitch": 74, "duration": 6, "velocity": 101}, {"time": 1228, "pitch": 72, "duration": 5, "velocity": 87}, {"time": 1234, "pitch": 69, "duration": 6, "velocity": 91}, {"time": 1240, "pitch": 67, "duration": 6, "velocity": 87}, {"time": 1246, "pitch": 65, "duration": 26, "velocity": 90}, {"time": 1312, "pitch": 74, "duration": 7, "velocity": 101}, {"time": 1318, "pitch": 77, "duration": 6, "velocity": 91}, {"time": 1324, "pitch": 79, "duration": 7, "velocity": 91}, {"time": 1330, "pitch": 77, "duration": 7, "velocity": 91}, {"time": 1336, "pitch": 74, "duration": 5, "velocity": 95}, {"time": 1342, "pitch": 69, "duration": 6, "velocity": 79}, {"time": 1348, "pitch": 72, "duration": 12, "velocity": 79}, {"time": 1420, "pitch": 74, "duration": 6, "velocity": 95}, {"time": 1426, "pitch": 77, "duration": 8, "velocity": 89}, {"time": 1432, "pitch": 74, "duration": 7, "velocity": 86}, {"time": 1438, "pitch": 79, "duration": 23, "velocity": 83}, {"time": 1492, "pitch": 69, "duration": 7, "velocity": 88}, {"time": 1498, "pitch": 72, "duration": 7, "velocity": 98}, {"time": 1504, "pitch": 74, "duration": 4, "velocity": 89}, {"time": 1510, "pitch": 74, "duration": 6, "velocity": 93}, {"time": 1516, "pitch": 77, "duration": 7, "velocity": 86}, {"time": 1522, "pitch": 74, "duration": 6, "velocity": 91}, {"time": 1528, "pitch": 72, "duration": 7, "velocity": 85}, {"time": 1534, "pitch": 69, "duration": 12, "velocity": 79}, {"time": 1600, "pitch": 69, "duration": 6, "velocity": 95}, {"time": 1606, "pitch": 74, "duration": 6, "velocity": 101}, {"time": 1612, "pitch": 72, "duration": 5, "velocity": 87}, {"time": 1618, "pitch": 69, "duration": 6, "velocity": 91}, {"time": 1624, "pitch": 67, "duration": 6, "velocity": 87}, {"time": 1630, "pitch": 65, "duration": 26, "velocity": 90}, {"time": 1696, "pitch": 74, "duration": 7, "velocity": 101}, {"time": 1702, "pitch": 77, "duration": 6, "velocity": 91}, {"time": 1708, "pitch": 79, "duration": 7, "velocity": 91}, {"time": 1714, "pitch": 77, "duration": 7, "velocity": 91}, {"time": 1720, "pitch": 74, "duration": 5, "velocity": 95}, {"time": 1726, "pitch": 69, "duration": 6, "velocity": 79}, {"time": 1732, "pitch": 72, "duration": 12, "velocity": 79}, {"time": 1804, "pitch": 74, "duration": 6, "velocity": 95}, {"time": 1810, "pitch": 77, "duration": 8, "velocity": 89}, {"time": 1816, "pitch": 74, "duration": 7, "velocity": 86}, {"time": 1822, "pitch": 79, "duration": 23, "velocity": 83}, {"time": 1870, "pitch": 72, "duration": 10, "velocity": 85}, {"time": 1870, "pitch": 77, "duration": 9, "velocity": 83}, {"time": 1888, "pitch": 72, "duration": 2, "velocity": 80}, {"time": 1888, "pitch": 77, "duration": 2, "velocity": 84}, {"time": 1891, "pitch": 72, "duration": 2, "velocity": 78}, {"time": 1891, "pitch": 77, "duration": 2, "velocity": 80}, {"time": 1894, "pitch": 72, "duration": 15, "velocity": 84}, {"time": 1894, "pitch": 77, "duration": 15, "velocity": 86}, {"time": 1918, "pitch": 69, "duration": 32, "velocity": 78}, {"time": 1918, "pitch": 74, "duration": 31, "velocity": 85}, {"time": 1954, "pitch": 67, "duration": 8, "velocity": 76}, {"time": 1954, "pitch": 72, "duration": 9, "velocity": 80}, {"time": 1966, "pitch": 69, "duration": 21, "velocity": 78}, {"time": 1966, "pitch": 74, "duration": 21, "velocity": 84}, {"time": 1990, "pitch": 67, "duration": 23, "velocity": 73}, {"time": 1990, "pitch": 72, "duration": 23, "velocity": 79}, {"time": 2014, "pitch": 74, "duration": 20, "velocity": 85}, {"time": 2014, "pitch": 77, "duration": 21, "velocity": 84}, {"time": 2038, "pitch": 69, "duration": 21, "velocity": 77}, {"time": 2038, "pitch": 74, "duration": 21, "velocity": 88}, {"time": 2062, "pitch": 67, "duration": 21, "velocity": 76}, {"time": 2062, "pitch": 74, "duration": 21, "velocity": 78}, {"time": 2086, "pitch": 72, "duration": 20, "velocity": 76}, {"time": 2086, "pitch": 76, "duration": 20, "velocity": 86}, {"time": 2110, "pitch": 69, "duration": 32, "velocity": 78}, {"time": 2110, "pitch": 74, "duration": 31, "velocity": 85}, {"time": 2146, "pitch": 67, "duration": 8, "velocity": 76}, {"time": 2146, "pitch": 72, "duration": 9, "velocity": 80}, {"time": 2158, "pitch": 69, "duration": 21, "velocity": 78}, {"time": 2158, "pitch": 74, "duration": 21, "velocity": 84}, {"time": 2182, "pitch": 67, "duration": 23, "velocity": 73}, {"time": 2182, "pitch": 72, "duration": 23, "velocity": 79}, {"time": 2206, "pitch": 74, "duration": 20, "velocity": 85}, {"time": 2206, "pitch": 77, "duration": 21, "velocity": 84}, {"time": 2230, "pitch": 69, "duration": 21, "velocity": 77}, {"time": 2230, "pitch": 74, "duration": 21, "velocity": 88}, {"time": 2254, "pitch": 67, "duration": 21, "velocity": 76}, {"time": 2254, "pitch": 74, "duration": 21, "velocity": 78}, {"time": 2278, "pitch": 72, "duration": 20, "velocity": 76}, {"time": 2278, "pitch": 76, "duration": 20, "velocity": 86}, {"time": 2296, "pitch": 72, "duration": 2, "velocity": 95}, {"time": 2302, "pitch": 84, "duration": 3, "velocity": 86}, {"time": 2308, "pitch": 81, "duration": 8, "velocity": 88}, {"time": 2320, "pitch": 79, "duration": 3, "velocity": 88}, {"time": 2323, "pitch": 81, "duration": 2, "velocity": 88}, {"time": 2326, "pitch": 79, "duration": 4, "velocity": 95}, {"time": 2332, "pitch": 77, "duration": 10, "velocity": 89}, {"time": 2344, "pitch": 72, "duration": 2, "velocity": 90}, {"time": 2347, "pitch": 72, "duration": 2, "velocity": 85}, {"time": 2350, "pitch": 84, "duration": 4, "velocity": 88}, {"time": 2356, "pitch": 81, "duration": 7, "velocity": 85}, {"time": 2368, "pitch": 79, "duration": 2, "velocity": 89}, {"time": 2371, "pitch": 81, "duration": 3, "velocity": 86}, {"time": 2374, "pitch": 79, "duration": 3, "velocity": 86}, {"time": 2380, "pitch": 77, "duration": 9, "velocity": 91}, {"time": 2392, "pitch": 72, "duration": 2, "velocity": 88}, {"time": 2395, "pitch": 72, "duration": 2, "velocity": 84}, {"time": 2398, "pitch": 86, "duration": 4, "velocity": 85}, {"time": 2404, "pitch": 84, "duration": 3, "velocity": 86}, {"time": 2410, "pitch": 84, "duration": 5, "velocity": 91}, {"time": 2416, "pitch": 81, "duration": 4, "velocity": 85}, {"time": 2422, "pitch": 86, "duration": 5, "velocity": 90}, {"time": 2428, "pitch": 84, "duration": 3, "velocity": 91}, {"time": 2434, "pitch": 84, "duration": 5, "velocity": 93}, {"time": 2440, "pitch": 81, "duration": 5, "velocity": 87}, {"time": 2446, "pitch": 86, "duration": 5, "velocity": 93}, {"time": 2452, "pitch": 84, "duration": 11, "velocity": 95}, {"time": 2464, "pitch": 81, "duration": 5, "velocity": 88}, {"time": 2470, "pitch": 86, "duration": 5, "velocity": 90}, {"time": 2476, "pitch": 84, "duration": 12, "velocity": 98}, {"time": 2488, "pitch": 72, "duration": 5, "velocity": 88}, {"time": 2494, "pitch": 77, "duration": 32, "velocity": 86}, {"time": 2494, "pitch": 81, "duration": 33, "velocity": 87}, {"time": 2530, "pitch": 79, "duration": 10, "velocity": 88}, {"time": 2542, "pitch": 77, "duration": 44, "velocity": 74}, {"time": 2542, "pitch": 81, "duration": 44, "velocity": 85}, {"time": 2590, "pitch": 60, "duration": 39, "velocity": 81}, {"time": 2590, "pitch": 65, "duration": 44, "velocity": 79}, {"time": 2632, "pitch": 60, "duration": 8, "velocity": 73}, {"time": 2638, "pitch": 65, "duration": 42, "velocity": 83}, {"time": 2638, "pitch": 69, "duration": 42, "velocity": 79}, {"time": 2680, "pitch": 62, "duration": 6, "velocity": 91}, {"time": 2686, "pitch": 72, "duration": 18, "velocity": 86}, {"time": 2704, "pitch": 69, "duration": 18, "velocity": 91}, {"time": 2722, "pitch": 67, "duration": 7, "velocity": 88}, {"time": 2728, "pitch": 65, "duration": 7, "velocity": 90}, {"time": 2734, "pitch": 67, "duration": 38, "velocity": 91}, {"time": 2776, "pitch": 60, "duration": 6, "velocity": 89}, {"time": 2782, "pitch": 74, "duration": 15, "velocity": 88}, {"time": 2800, "pitch": 74, "duration": 3, "velocity": 95}, {"time": 2803, "pitch": 77, "duration": 4, "velocity": 90}, {"time": 2806, "pitch": 74, "duration": 17, "velocity": 101}, {"time": 2824, "pitch": 72, "duration": 3, "velocity": 91}, {"time": 2827, "pitch": 74, "duration": 3, "velocity": 91}, {"time": 2830, "pitch": 72, "duration": 36, "velocity": 101}, {"time": 2866, "pitch": 74, "duration": 7, "velocity": 101}, {"time": 2872, "pitch": 72, "duration": 7, "velocity": 87}, {"time": 2878, "pitch": 74, "duration": 6, "velocity": 98}, {"time": 2884, "pitch": 77, "duration": 17, "velocity": 90}, {"time": 2902, "pitch": 74, "duration": 14, "velocity": 100}, {"time": 2920, "pitch": 72, "duration": 6, "velocity": 93}, {"time": 2926, "pitch": 74, "duration": 7, "velocity": 89}, {"time": 2932, "pitch": 72, "duration": 6, "velocity": 101}, {"time": 2938, "pitch": 69, "duration": 8, "velocity": 90}, {"time": 2944, "pitch": 72, "duration": 7, "velocity": 88}, {"time": 2950, "pitch": 69, "duration": 18, "velocity": 86}, {"time": 2968, "pitch": 65, "duration": 5, "velocity": 89}, {"time": 2974, "pitch": 67, "duration": 10, "velocity": 90}, {"time": 2986, "pitch": 72, "duration": 6, "velocity": 91}, {"time": 2992, "pitch": 69, "duration": 6, "velocity": 90}, {"time": 2998, "pitch": 74, "duration": 7, "velocity": 91}, {"time": 3004, "pitch": 72, "duration": 6, "velocity": 95}, {"time": 3010, "pitch": 69, "duration": 7, "velocity": 88}, {"time": 3016, "pitch": 72, "duration": 6, "velocity": 88}, {"time": 3022, "pitch": 67, "duration": 48, "velocity": 88}, {"time": 3064, "pitch": 72, "duration": 6, "velocity": 95}, {"time": 3070, "pitch": 81, "duration": 15, "velocity": 88}, {"time": 3088, "pitch": 84, "duration": 7, "velocity": 98}, {"time": 3094, "pitch": 86, "duration": 7, "velocity": 89}, {"time": 3100, "pitch": 84, "duration": 7, "velocity": 93}, {"time": 3106, "pitch": 86, "duration": 7, "velocity": 90}, {"time": 3112, "pitch": 89, "duration": 7, "velocity": 88}, {"time": 3118, "pitch": 86, "duration": 7, "velocity": 95}, {"time": 3124, "pitch": 84, "duration": 30, "velocity": 100}, {"time": 3154, "pitch": 84, "duration": 4, "velocity": 98}, {"time": 3160, "pitch": 86, "duration": 5, "velocity": 89}, {"time": 3166, "pitch": 89, "duration": 5, "velocity": 91}, {"time": 3172, "pitch": 93, "duration": 11, "velocity": 89}, {"time": 3184, "pitch": 91, "duration": 5, "velocity": 88}, {"time": 3190, "pitch": 89, "duration": 6, "velocity": 91}, {"time": 3196, "pitch": 86, "duration": 5, "velocity": 85}, {"time": 3202, "pitch": 84, "duration": 5, "velocity": 89}, {"time": 3208, "pitch": 86, "duration": 5, "velocity": 88}, {"time": 3214, "pitch": 84, "duration": 31, "velocity": 101}, {"time": 3250, "pitch": 84, "duration": 4, "velocity": 88}, {"time": 3253, "pitch": 86, "duration": 3, "velocity": 87}, {"time": 3256, "pitch": 89, "duration": 3, "velocity": 76}, {"time": 3259, "pitch": 86, "duration": 4, "velocity": 86}, {"time": 3262, "pitch": 93, "duration": 27, "velocity": 84}, {"time": 3298, "pitch": 93, "duration": 3, "velocity": 95}, {"time": 3301, "pitch": 91, "duration": 3, "velocity": 84}, {"time": 3304, "pitch": 93, "duration": 3, "velocity": 88}, {"time": 3307, "pitch": 96, "duration": 3, "velocity": 88}, {"time": 3310, "pitch": 93, "duration": 6, "velocity": 89}, {"time": 3316, "pitch": 91, "duration": 22, "velocity": 95}, {"time": 3352, "pitch": 89, "duration": 5, "velocity": 91}, {"time": 3358, "pitch": 86, "duration": 16, "velocity": 91}, {"time": 3376, "pitch": 89, "duration": 6, "velocity": 98}, {"time": 3382, "pitch": 93, "duration": 15, "velocity": 95}, {"time": 3394, "pitch": 91, "duration": 4, "velocity": 91}, {"time": 3400, "pitch": 86, "duration": 6, "velocity": 95}, {"time": 3406, "pitch": 84, "duration": 47, "velocity": 95}, {"time": 3568, "pitch": 69, "duration": 6, "velocity": 95}, {"time": 3574, "pitch": 74, "duration": 6, "velocity": 101}, {"time": 3580, "pitch": 72, "duration": 5, "velocity": 87}, {"time": 3586, "pitch": 69, "duration": 6, "velocity": 91}, {"time": 3592, "pitch": 67, "duration": 6, "velocity": 87}, {"time": 3598, "pitch": 65, "duration": 26, "velocity": 90}, {"time": 3664, "pitch": 74, "duration": 7, "velocity": 101}, {"time": 3670, "pitch": 77, "duration": 6, "velocity": 91}, {"time": 3676, "pitch": 79, "duration": 7, "velocity": 91}, {"time": 3682, "pitch": 77, "duration": 7, "velocity": 91}, {"time": 3688, "pitch": 74, "duration": 5, "velocity": 95}, {"time": 3694, "pitch": 69, "duration": 6, "velocity": 79}, {"time": 3700, "pitch": 72, "duration": 12, "velocity": 79}, {"time": 3772, "pitch": 74, "duration": 6, "velocity": 95}, {"time": 3778, "pitch": 77, "duration": 8, "velocity": 89}, {"time": 3784, "pitch": 74, "duration": 7, "velocity": 86}, {"time": 3790, "pitch": 79, "duration": 23, "velocity": 83}, {"time": 3844, "pitch": 69, "duration": 7, "velocity": 88}, {"time": 3850, "pitch": 72, "duration": 7, "velocity": 98}, {"time": 3856, "pitch": 74, "duration": 4, "velocity": 89}, {"time": 3862, "pitch": 74, "duration": 6, "velocity": 93}, {"time": 3868, "pitch": 77, "duration": 7, "velocity": 86}, {"time": 3874, "pitch": 74, "duration": 6, "velocity": 91}, {"time": 3880, "pitch": 72, "duration": 7, "velocity": 85}, {"time": 3886, "pitch": 69, "duration": 12, "velocity": 79}, {"time": 3952, "pitch": 69, "duration": 6, "velocity": 95}, {"time": 3958, "pitch": 74, "duration": 6, "velocity": 101}, {"time": 3964, "pitch": 72, "duration": 5, "velocity": 87}, {"time": 3970, "pitch": 69, "duration": 6, "velocity": 91}, {"time": 3976, "pitch": 67, "duration": 6, "velocity": 87}, {"time": 3982, "pitch": 65, "duration": 26, "velocity": 90}, {"time": 4048, "pitch": 74, "duration": 7, "velocity": 101}, {"time": 4054, "pitch": 77, "duration": 6, "velocity": 91}, {"time": 4060, "pitch": 79, "duration": 7, "velocity": 91}, {"time": 4066, "pitch": 77, "duration": 7, "velocity": 91}, {"time": 4072, "pitch": 74, "duration": 5, "velocity": 95}, {"time": 4078, "pitch": 69, "duration": 6, "velocity": 79}, {"time": 4084, "pitch": 72, "duration": 12, "velocity": 79}, {"time": 4156, "pitch": 74, "duration": 6, "velocity": 95}, {"time": 4162, "pitch": 77, "duration": 8, "velocity": 89}, {"time": 4168, "pitch": 74, "duration": 7, "velocity": 86}, {"time": 4174, "pitch": 79, "duration": 23, "velocity": 83}, {"time": 4222, "pitch": 72, "duration": 10, "velocity": 85}, {"time": 4222, "pitch": 77, "duration": 9, "velocity": 83}, {"time": 4240, "pitch": 72, "duration": 2, "velocity": 80}, {"time": 4240, "pitch": 77, "duration": 2, "velocity": 84}, {"time": 4243, "pitch": 72, "duration": 2, "velocity": 78}, {"time": 4243, "pitch": 77, "duration": 2, "velocity": 80}, {"time": 4246, "pitch": 72, "duration": 15, "velocity": 84}, {"time": 4246, "pitch": 77, "duration": 15, "velocity": 86}, {"time": 4270, "pitch": 69, "duration": 32, "velocity": 78}, {"time": 4270, "pitch": 74, "duration": 31, "velocity": 85}, {"time": 4306, "pitch": 67, "duration": 8, "velocity": 76}, {"time": 4306, "pitch": 72, "duration": 9, "velocity": 80}, {"time": 4318, "pitch": 69, "duration": 21, "velocity": 78}, {"time": 4318, "pitch": 74, "duration": 21, "velocity": 84}, {"time": 4342, "pitch": 67, "duration": 23, "velocity": 73}, {"time": 4342, "pitch": 72, "duration": 23, "velocity": 79}, {"time": 4366, "pitch": 74, "duration": 20, "velocity": 85}, {"time": 4366, "pitch": 77, "duration": 21, "velocity": 84}, {"time": 4390, "pitch": 69, "duration": 21, "velocity": 77}, {"time": 4390, "pitch": 74, "duration": 21, "velocity": 88}, {"time": 4414, "pitch": 67, "duration": 21, "velocity": 76}, {"time": 4414, "pitch": 74, "duration": 21, "velocity": 78}, {"time": 4438, "pitch": 72, "duration": 20, "velocity": 76}, {"time": 4438, "pitch": 76, "duration": 20, "velocity": 86}, {"time": 4462, "pitch": 69, "duration": 32, "velocity": 78}, {"time": 4462, "pitch": 74, "duration": 31, "velocity": 85}, {"time": 4498, "pitch": 67, "duration": 8, "velocity": 76}, {"time": 4498, "pitch": 72, "duration": 9, "velocity": 80}, {"time": 4510, "pitch": 69, "duration": 21, "velocity": 78}, {"time": 4510, "pitch": 74, "duration": 21, "velocity": 84}, {"time": 4534, "pitch": 67, "duration": 23, "velocity": 73}, {"time": 4534, "pitch": 72, "duration": 23, "velocity": 79}, {"time": 4558, "pitch": 74, "duration": 20, "velocity": 85}, {"time": 4558, "pitch": 77, "duration": 21, "velocity": 84}, {"time": 4582, "pitch": 69, "duration": 21, "velocity": 77}, {"time": 4582, "pitch": 74, "duration": 21, "velocity": 88}, {"time": 4606, "pitch": 67, "duration": 21, "velocity": 76}, {"time": 4606, "pitch": 74, "duration": 21, "velocity": 78}, {"time": 4630, "pitch": 72, "duration": 20, "velocity": 76}, {"time": 4630, "pitch": 76, "duration": 20, "velocity": 86}, {"time": 4648, "pitch": 72, "duration": 2, "velocity": 95}, {"time": 4654, "pitch": 84, "duration": 3, "velocity": 86}, {"time": 4660, "pitch": 81, "duration": 8, "velocity": 88}, {"time": 4672, "pitch": 79, "duration": 3, "velocity": 88}, {"time": 4675, "pitch": 81, "duration": 2, "velocity": 88}, {"time": 4678, "pitch": 79, "duration": 4, "velocity": 95}, {"time": 4684, "pitch": 77, "duration": 10, "velocity": 89}, {"time": 4696, "pitch": 72, "duration": 2, "velocity": 90}, {"time": 4699, "pitch": 72, "duration": 2, "velocity": 85}, {"time": 4702, "pitch": 84, "duration": 4, "velocity": 88}, {"time": 4708, "pitch": 81, "duration": 7, "velocity": 85}, {"time": 4720, "pitch": 79, "duration": 2, "velocity": 89}, {"time": 4723, "pitch": 81, "duration": 3, "velocity": 86}, {"time": 4726, "pitch": 79, "duration": 3, "velocity": 86}, {"time": 4732, "pitch": 77, "duration": 9, "velocity": 91}, {"time": 4744, "pitch": 72, "duration": 2, "velocity": 88}, {"time": 4747, "pitch": 72, "duration": 2, "velocity": 84}, {"time": 4750, "pitch": 86, "duration": 4, "velocity": 85}, {"time": 4756, "pitch": 84, "duration": 3, "velocity": 86}, {"time": 4762, "pitch": 84, "duration": 5, "velocity": 91}, {"time": 4768, "pitch": 81, "duration": 4, "velocity": 85}, {"time": 4774, "pitch": 86, "duration": 5, "velocity": 90}, {"time": 4780, "pitch": 84, "duration": 3, "velocity": 91}, {"time": 4786, "pitch": 84, "duration": 5, "velocity": 93}, {"time": 4792, "pitch": 81, "duration": 5, "velocity": 87}, {"time": 4798, "pitch": 86, "duration": 5, "velocity": 93}, {"time": 4804, "pitch": 84, "duration": 11, "velocity": 95}, {"time": 4816, "pitch": 81, "duration": 5, "velocity": 88}, {"time": 4822, "pitch": 86, "duration": 5, "velocity": 90}, {"time": 4828, "pitch": 84, "duration": 12, "velocity": 98}, {"time": 4840, "pitch": 72, "duration": 5, "velocity": 88}, {"time": 4846, "pitch": 77, "duration": 32, "velocity": 86}, {"time": 4846, "pitch": 81, "duration": 33, "velocity": 87}, {"time": 4882, "pitch": 79, "duration": 10, "velocity": 88}, {"time": 4894, "pitch": 77, "duration": 44, "velocity": 74}, {"time": 4894, "pitch": 81, "duration": 44, "velocity": 85}, {"time": 4942, "pitch": 69, "duration": 32, "velocity": 78}, {"time": 4942, "pitch": 74, "duration": 31, "velocity": 85}, {"time": 4978, "pitch": 67, "duration": 8, "velocity": 76}, {"time": 4978, "pitch": 72, "duration": 9, "velocity": 80}, {"time": 4990, "pitch": 69, "duration": 21, "velocity": 78}, {"time": 4990, "pitch": 74, "duration": 21, "velocity": 84}, {"time": 5014, "pitch": 67, "duration": 23, "velocity": 73}, {"time": 5014, "pitch": 72, "duration": 23, "velocity": 79}, {"time": 5038, "pitch": 74, "duration": 20, "velocity": 85}, {"time": 5038, "pitch": 77, "duration": 21, "velocity": 84}, {"time": 5062, "pitch": 69, "duration": 21, "velocity": 77}, {"time": 5062, "pitch": 74, "duration": 21, "velocity": 88}, {"time": 5086, "pitch": 67, "duration": 21, "velocity": 76}, {"time": 5086, "pitch": 74, "duration": 21, "velocity": 78}, {"time": 5110, "pitch": 72, "duration": 20, "velocity": 76}, {"time": 5110, "pitch": 76, "duration": 20, "velocity": 86}, {"time": 5134, "pitch": 69, "duration": 32, "velocity": 78}, {"time": 5134, "pitch": 74, "duration": 31, "velocity": 85}, {"time": 5170, "pitch": 67, "duration": 8, "velocity": 76}, {"time": 5170, "pitch": 72, "duration": 9, "velocity": 80}, {"time": 5182, "pitch": 69, "duration": 21, "velocity": 78}, {"time": 5182, "pitch": 74, "duration": 21, "velocity": 84}, {"time": 5206, "pitch": 67, "duration": 23, "velocity": 73}, {"time": 5206, "pitch": 72, "duration": 23, "velocity": 79}, {"time": 5230, "pitch": 74, "duration": 20, "velocity": 85}, {"time": 5230, "pitch": 77, "duration": 21, "velocity": 84}, {"time": 5254, "pitch": 69, "duration": 21, "velocity": 77}, {"time": 5254, "pitch": 74, "duration": 21, "velocity": 88}, {"time": 5278, "pitch": 67, "duration": 21, "velocity": 76}, {"time": 5278, "pitch": 74, "duration": 21, "velocity": 78}, {"time": 5302, "pitch": 72, "duration": 20, "velocity": 76}, {"time": 5302, "pitch": 76, "duration": 20, "velocity": 86}, {"time": 5320, "pitch": 72, "duration": 2, "velocity": 95}, {"time": 5326, "pitch": 84, "duration": 3, "velocity": 86}, {"time": 5332, "pitch": 81, "duration": 8, "velocity": 88}, {"time": 5344, "pitch": 79, "duration": 3, "velocity": 88}, {"time": 5347, "pitch": 81, "duration": 2, "velocity": 88}, {"time": 5350, "pitch": 79, "duration": 4, "velocity": 95}, {"time": 5356, "pitch": 77, "duration": 10, "velocity": 89}, {"time": 5368, "pitch": 72, "duration": 2, "velocity": 90}, {"time": 5371, "pitch": 72, "duration": 2, "velocity": 85}, {"time": 5374, "pitch": 84, "duration": 4, "velocity": 88}, {"time": 5380, "pitch": 81, "duration": 7, "velocity": 85}, {"time": 5392, "pitch": 79, "duration": 2, "velocity": 89}, {"time": 5395, "pitch": 81, "duration": 3, "velocity": 86}, {"time": 5398, "pitch": 79, "duration": 3, "velocity": 86}, {"time": 5404, "pitch": 77, "duration": 9, "velocity": 91}, {"time": 5416, "pitch": 72, "duration": 2, "velocity": 88}, {"time": 5419, "pitch": 72, "duration": 2, "velocity": 84}, {"time": 5422, "pitch": 86, "duration": 4, "velocity": 85}, {"time": 5428, "pitch": 84, "duration": 3, "velocity": 86}, {"time": 5434, "pitch": 84, "duration": 5, "velocity": 91}, {"time": 5440, "pitch": 81, "duration": 4, "velocity": 85}, {"time": 5446, "pitch": 86, "duration": 5, "velocity": 90}, {"time": 5452, "pitch": 84, "duration": 3, "velocity": 91}, {"time": 5458, "pitch": 84, "duration": 5, "velocity": 93}, {"time": 5464, "pitch": 81, "duration": 5, "velocity": 87}, {"time": 5470, "pitch": 86, "duration": 5, "velocity": 93}, {"time": 5476, "pitch": 84, "duration": 11, "velocity": 95}, {"time": 5488, "pitch": 81, "duration": 5, "velocity": 88}, {"time": 5494, "pitch": 86, "duration": 5, "velocity": 90}, {"time": 5500, "pitch": 84, "duration": 12, "velocity": 98}, {"time": 5512, "pitch": 72, "duration": 5, "velocity": 88}, {"time": 5518, "pitch": 77, "duration": 32, "velocity": 86}, {"time": 5518, "pitch": 81, "duration": 33, "velocity": 87}, {"time": 5554, "pitch": 79, "duration": 10, "velocity": 88}, {"time": 5566, "pitch": 77, "duration": 44, "velocity": 74}, {"time": 5566, "pitch": 81, "duration": 44, "velocity": 85}, {"time": 5614, "pitch": 60, "duration": 3, "velocity": 77}, {"time": 5614, "pitch": 65, "duration": 2, "velocity": 75}, {"time": 5620, "pitch": 60, "duration": 3, "velocity": 70}, {"time": 5620, "pitch": 65, "duration": 2, "velocity": 69}, {"time": 5626, "pitch": 60, "duration": 3, "velocity": 75}, {"time": 5626, "pitch": 65, "duration": 2, "velocity": 76}, {"time": 5632, "pitch": 60, "duration": 3, "velocity": 71}, {"time": 5632, "pitch": 65, "duration": 2, "velocity": 73}, {"time": 5638, "pitch": 60, "duration": 3, "velocity": 69}, {"time": 5638, "pitch": 65, "duration": 3, "velocity": 71}, {"time": 5644, "pitch": 60, "duration": 3, "velocity": 70}, {"time": 5644, "pitch": 65, "duration": 3, "velocity": 74}, {"time": 5650, "pitch": 60, "duration": 3, "velocity": 72}, {"time": 5650, "pitch": 65, "duration": 2, "velocity": 75}, {"time": 5656, "pitch": 60, "duration": 3, "velocity": 74}, {"time": 5656, "pitch": 65, "duration": 2, "velocity": 78}, {"time": 5662, "pitch": 60, "duration": 3, "velocity": 79}, {"time": 5662, "pitch": 65, "duration": 2, "velocity": 84}, {"time": 5668, "pitch": 60, "duration": 2, "velocity": 76}, {"time": 5668, "pitch": 65, "duration": 2, "velocity": 83}, {"time": 5674, "pitch": 60, "duration": 3, "velocity": 76}, {"time": 5674, "pitch": 65, "duration": 2, "velocity": 81}, {"time": 5680, "pitch": 60, "duration": 3, "velocity": 76}, {"time": 5680, "pitch": 65, "duration": 3, "velocity": 81}, {"time": 5686, "pitch": 60, "duration": 3, "velocity": 76}, {"time": 5686, "pitch": 65, "duration": 3, "velocity": 83}, {"time": 5692, "pitch": 60, "duration": 3, "velocity": 77}, {"time": 5692, "pitch": 65, "duration": 3, "velocity": 83}, {"time": 5698, "pitch": 60, "duration": 3, "velocity": 76}, {"time": 5698, "pitch": 65, "duration": 2, "velocity": 82}, {"time": 5704, "pitch": 60, "duration": 3, "velocity": 78}, {"time": 5704, "pitch": 65, "duration": 3, "velocity": 84}, {"time": 5710, "pitch": 60, "duration": 3, "velocity": 78}, {"time": 5710, "pitch": 65, "duration": 3, "velocity": 83}]}, {"program": 0, "is_drum": false, "name": "PIANO", "notes": [{"time": 286, "pitch": 41, "duration": 9, "velocity": 87}, {"time": 292, "pitch": 53, "duration": 11, "velocity": 84}, {"time": 292, "pitch": 57, "duration": 11, "velocity": 85}, {"time": 292, "pitch": 60, "duration": 11, "velocity": 86}, {"time": 298, "pitch": 41, "duration": 9, "velocity": 85}, {"time": 304, "pitch": 53, "duration": 9, "velocity": 85}, {"time": 304, "pitch": 57, "duration": 8, "velocity": 87}, {"time": 304, "pitch": 60, "duration": 8, "velocity": 86}, {"time": 310, "pitch": 41, "duration": 9, "velocity": 84}, {"time": 316, "pitch": 53, "duration": 9, "velocity": 84}, {"time": 316, "pitch": 60, "duration": 9, "velocity": 85}, {"time": 322, "pitch": 41, "duration": 9, "velocity": 85}, {"time": 328, "pitch": 53, "duration": 6, "velocity": 86}, {"time": 328, "pitch": 60, "duration": 6, "velocity": 87}, {"time": 334, "pitch": 48, "duration": 8, "velocity": 93}, {"time": 340, "pitch": 55, "duration": 10, "velocity": 86}, {"time": 340, "pitch": 60, "duration": 9, "velocity": 87}, {"time": 340, "pitch": 64, "duration": 10, "velocity": 89}, {"time": 346, "pitch": 48, "duration": 8, "velocity": 90}, {"time": 352, "pitch": 55, "duration": 10, "velocity": 86}, {"time": 352, "pitch": 60, "duration": 10, "velocity": 86}, {"time": 352, "pitch": 64, "duration": 10, "velocity": 87}, {"time": 358, "pitch": 48, "duration": 8, "velocity": 83}, {"time": 364, "pitch": 55, "duration": 9, "velocity": 85}, {"time": 364, "pitch": 60, "duration": 9, "velocity": 86}, {"time": 364, "pitch": 64, "duration": 9, "velocity": 86}, {"time": 370, "pitch": 48, "duration": 10, "velocity": 89}, {"time": 376, "pitch": 55, "duration": 7, "velocity": 85}, {"time": 376, "pitch": 60, "duration": 6, "velocity": 85}, {"time": 376, "pitch": 64, "duration": 7, "velocity": 85}, {"time": 382, "pitch": 41, "duration": 8, "velocity": 85}, {"time": 388, "pitch": 53, "duration": 10, "velocity": 79}, {"time": 388, "pitch": 57, "duration": 10, "velocity": 82}, {"time": 388, "pitch": 60, "duration": 9, "velocity": 85}, {"time": 394, "pitch": 41, "duration": 9, "velocity": 83}, {"time": 400, "pitch": 53, "duration": 8, "velocity": 84}, {"time": 400, "pitch": 57, "duration": 8, "velocity": 87}, {"time": 400, "pitch": 60, "duration": 8, "velocity": 85}, {"time": 406, "pitch": 41, "duration": 8, "velocity": 85}, {"time": 412, "pitch": 53, "duration": 9, "velocity": 84}, {"time": 412, "pitch": 57, "duration": 9, "velocity": 85}, {"time": 412, "pitch": 60, "duration": 9, "velocity": 81}, {"time": 418, "pitch": 41, "duration": 9, "velocity": 84}, {"time": 424, "pitch": 53, "duration": 6, "velocity": 84}, {"time": 424, "pitch": 57, "duration": 6, "velocity": 85}, {"time": 424, "pitch": 60, "duration": 6, "velocity": 85}, {"time": 430, "pitch": 48, "duration": 10, "velocity": 88}, {"time": 436, "pitch": 55, "duration": 8, "velocity": 84}, {"time": 436, "pitch": 60, "duration": 8, "velocity": 85}, {"time": 436, "pitch": 64, "duration": 9, "velocity": 86}, {"time": 442, "pitch": 48, "duration": 9, "velocity": 86}, {"time": 448, "pitch": 55, "duration": 10, "velocity": 84}, {"time": 448, "pitch": 60, "duration": 10, "velocity": 84}, {"time": 448, "pitch": 64, "duration": 9, "velocity": 85}, {"time": 454, "pitch": 48, "duration": 8, "velocity": 91}, {"time": 460, "pitch": 55, "duration": 9, "velocity": 85}, {"time": 460, "pitch": 60, "duration": 9, "velocity": 86}, {"time": 460, "pitch": 64, "duration": 8, "velocity": 86}, {"time": 466, "pitch": 48, "duration": 11, "velocity": 88}, {"time": 472, "pitch": 55, "duration": 6, "velocity": 86}, {"time": 472, "pitch": 60, "duration": 6, "velocity": 86}, {"time": 472, "pitch": 64, "duration": 6, "velocity": 86}, {"time": 478, "pitch": 41, "duration": 9, "velocity": 86}, {"time": 484, "pitch": 53, "duration": 9, "velocity": 84}, {"time": 484, "pitch": 57, "duration": 9, "velocity": 86}, {"time": 484, "pitch": 60, "duration": 9, "velocity": 86}, {"time": 490, "pitch": 41, "duration": 9, "velocity": 85}, {"time": 496, "pitch": 53, "duration": 6, "velocity": 87}, {"time": 496, "pitch": 57, "duration": 6, "velocity": 89}, {"time": 496, "pitch": 60, "duration": 7, "velocity": 84}, {"time": 502, "pitch": 50, "duration": 8, "velocity": 91}, {"time": 508, "pitch": 57, "duration": 9, "velocity": 79}, {"time": 508, "pitch": 62, "duration": 9, "velocity": 84}, {"time": 508, "pitch": 65, "duration": 10, "velocity": 84}, {"time": 514, "pitch": 50, "duration": 10, "velocity": 93}, {"time": 520, "pitch": 57, "duration": 7, "velocity": 84}, {"time": 520, "pitch": 62, "duration": 6, "velocity": 85}, {"time": 520, "pitch": 65, "duration": 6, "velocity": 84}, {"time": 526, "pitch": 43, "duration": 8, "velocity": 85}, {"time": 532, "pitch": 55, "duration": 9, "velocity": 79}, {"time": 532, "pitch": 58, "duration": 10, "velocity": 78}, {"time": 532, "pitch": 62, "duration": 9, "velocity": 71}, {"time": 538, "pitch": 43, "duration": 10, "velocity": 86}, {"time": 544, "pitch": 55, "duration": 7, "velocity": 85}, {"time": 544, "pitch": 58, "duration": 7, "velocity": 86}, {"time": 544, "pitch": 62, "duration": 7, "velocity": 86}, {"time": 550, "pitch": 43, "duration": 9, "velocity": 85}, {"time": 556, "pitch": 55, "duration": 9, "velocity": 80}, {"time": 556, "pitch": 58, "duration": 9, "velocity": 85}, {"time": 556, "pitch": 62, "duration": 8, "velocity": 85}, {"time": 562, "pitch": 43, "duration": 10, "velocity": 84}, {"time": 568, "pitch": 55, "duration": 7, "velocity": 85}, {"time": 568, "pitch": 58, "duration": 6, "velocity": 88}, {"time": 568, "pitch": 62, "duration": 7, "velocity": 85}, {"time": 574, "pitch": 43, "duration": 7, "velocity": 86}, {"time": 580, "pitch": 55, "duration": 8, "velocity": 86}, {"time": 580, "pitch": 58, "duration": 8, "velocity": 91}, {"time": 580, "pitch": 62, "duration": 7, "velocity": 87}, {"time": 586, "pitch": 43, "duration": 10, "velocity": 83}, {"time": 592, "pitch": 55, "duration": 6, "velocity": 86}, {"time": 592, "pitch": 58, "duration": 6, "velocity": 91}, {"time": 592, "pitch": 62, "duration": 6, "velocity": 86}, {"time": 598, "pitch": 48, "duration": 8, "velocity": 88}, {"time": 604, "pitch": 55, "duration": 8, "velocity": 84}, {"time": 604, "pitch": 60, "duration": 8, "velocity": 84}, {"time": 604, "pitch": 64, "duration": 8, "velocity": 85}, {"time": 610, "pitch": 48, "duration": 9, "velocity": 87}, {"time": 616, "pitch": 55, "duration": 6, "velocity": 85}, {"time": 616, "pitch": 60, "duration": 5, "velocity": 86}, {"time": 616, "pitch": 64, "duration": 5, "velocity": 87}, {"time": 622, "pitch": 48, "duration": 7, "velocity": 90}, {"time": 622, "pitch": 55, "duration": 7, "velocity": 84}, {"time": 622, "pitch": 60, "duration": 7, "velocity": 84}, {"time": 622, "pitch": 64, "duration": 7, "velocity": 85}, {"time": 646, "pitch": 48, "duration": 8, "velocity": 86}, {"time": 646, "pitch": 55, "duration": 7, "velocity": 84}, {"time": 646, "pitch": 60, "duration": 6, "velocity": 84}, {"time": 646, "pitch": 64, "duration": 6, "velocity": 85}, {"time": 670, "pitch": 48, "duration": 6, "velocity": 93}, {"time": 670, "pitch": 55, "duration": 5, "velocity": 85}, {"time": 670, "pitch": 60, "duration": 5, "velocity": 85}, {"time": 670, "pitch": 64, "duration": 5, "velocity": 86}, {"time": 682, "pitch": 43, "duration": 7, "velocity": 100}, {"time": 682, "pitch": 55, "duration": 6, "velocity": 85}, {"time": 682, "pitch": 60, "duration": 6, "velocity": 84}, {"time": 682, "pitch": 64, "duration": 6, "velocity": 85}, {"time": 694, "pitch": 48, "duration": 8, "velocity": 101}, {"time": 694, "pitch": 55, "duration": 7, "velocity": 85}, {"time": 694, "pitch": 60, "duration": 8, "velocity": 85}, {"time": 694, "pitch": 64, "duration": 7, "velocity": 86}, {"time": 706, "pitch": 48, "duration": 10, "velocity": 95}, {"time": 706, "pitch": 55, "duration": 8, "velocity": 85}, {"time": 706, "pitch": 60, "duration": 9, "velocity": 86}, {"time": 706, "pitch": 64, "duration": 8, "velocity": 86}, {"time": 718, "pitch": 41, "duration": 8, "velocity": 86}, {"time": 724, "pitch": 53, "duration": 8, "velocity": 83}, {"time": 724, "pitch": 57, "duration": 8, "velocity": 85}, {"time": 724, "pitch": 60, "duration": 8, "velocity": 85}, {"time": 730, "pitch": 41, "duration": 8, "velocity": 85}, {"time": 736, "pitch": 53, "duration": 9, "velocity": 82}, {"time": 736, "pitch": 57, "duration": 9, "velocity": 86}, {"time": 736, "pitch": 60, "duration": 9, "velocity": 85}, {"time": 742, "pitch": 41, "duration": 9, "velocity": 84}, {"time": 748, "pitch": 53, "duration": 9, "velocity": 84}, {"time": 748, "pitch": 57, "duration": 9, "velocity": 84}, {"time": 748, "pitch": 60, "duration": 9, "velocity": 84}, {"time": 754, "pitch": 41, "duration": 9, "velocity": 84}, {"time": 760, "pitch": 53, "duration": 6, "velocity": 84}, {"time": 760, "pitch": 57, "duration": 6, "velocity": 85}, {"time": 760, "pitch": 60, "duration": 7, "velocity": 84}, {"time": 766, "pitch": 50, "duration": 9, "velocity": 88}, {"time": 772, "pitch": 57, "duration": 10, "velocity": 81}, {"time": 772, "pitch": 62, "duration": 11, "velocity": 85}, {"time": 772, "pitch": 65, "duration": 11, "velocity": 84}, {"time": 778, "pitch": 50, "duration": 9, "velocity": 95}, {"time": 784, "pitch": 57, "duration": 10, "velocity": 83}, {"time": 784, "pitch": 62, "duration": 10, "velocity": 86}, {"time": 784, "pitch": 65, "duration": 9, "velocity": 86}, {"time": 790, "pitch": 50, "duration": 8, "velocity": 86}, {"time": 796, "pitch": 57, "duration": 9, "velocity": 80}, {"time": 796, "pitch": 62, "duration": 10, "velocity": 84}, {"time": 796, "pitch": 65, "duration": 9, "velocity": 85}, {"time": 802, "pitch": 50, "duration": 10, "velocity": 89}, {"time": 808, "pitch": 57, "duration": 8, "velocity": 81}, {"time": 808, "pitch": 62, "duration": 8, "velocity": 81}, {"time": 808, "pitch": 65, "duration": 8, "velocity": 80}, {"time": 814, "pitch": 45, "duration": 10, "velocity": 84}, {"time": 820, "pitch": 57, "duration": 10, "velocity": 77}, {"time": 820, "pitch": 60, "duration": 9, "velocity": 83}, {"time": 820, "pitch": 64, "duration": 10, "velocity": 85}, {"time": 826, "pitch": 45, "duration": 9, "velocity": 86}, {"time": 832, "pitch": 57, "duration": 7, "velocity": 82}, {"time": 832, "pitch": 60, "duration": 6, "velocity": 85}, {"time": 832, "pitch": 64, "duration": 6, "velocity": 86}, {"time": 838, "pitch": 43, "duration": 9, "velocity": 85}, {"time": 844, "pitch": 55, "duration": 9, "velocity": 80}, {"time": 844, "pitch": 58, "duration": 9, "velocity": 78}, {"time": 844, "pitch": 62, "duration": 9, "velocity": 84}, {"time": 850, "pitch": 43, "duration": 9, "velocity": 86}, {"time": 856, "pitch": 55, "duration": 7, "velocity": 83}, {"time": 856, "pitch": 58, "duration": 6, "velocity": 85}, {"time": 856, "pitch": 62, "duration": 7, "velocity": 85}, {"time": 862, "pitch": 48, "duration": 9, "velocity": 90}, {"time": 868, "pitch": 55, "duration": 9, "velocity": 84}, {"time": 868, "pitch": 60, "duration": 9, "velocity": 85}, {"time": 868, "pitch": 64, "duration": 9, "velocity": 89}, {"time": 874, "pitch": 48, "duration": 8, "velocity": 87}, {"time": 880, "pitch": 55, "duration": 9, "velocity": 87}, {"time": 880, "pitch": 60, "duration": 8, "velocity": 90}, {"time": 880, "pitch": 64, "duration": 8, "velocity": 91}, {"time": 886, "pitch": 48, "duration": 8, "velocity": 88}, {"time": 892, "pitch": 55, "duration": 9, "velocity": 85}, {"time": 892, "pitch": 60, "duration": 9, "velocity": 88}, {"time": 892, "pitch": 64, "duration": 9, "velocity": 88}, {"time": 898, "pitch": 48, "duration": 10, "velocity": 93}, {"time": 904, "pitch": 55, "duration": 6, "velocity": 85}, {"time": 904, "pitch": 60, "duration": 6, "velocity": 88}, {"time": 904, "pitch": 64, "duration": 6, "velocity": 91}, {"time": 910, "pitch": 48, "duration": 8, "velocity": 95}, {"time": 916, "pitch": 55, "duration": 9, "velocity": 85}, {"time": 916, "pitch": 60, "duration": 9, "velocity": 86}, {"time": 916, "pitch": 64, "duration": 9, "velocity": 88}, {"time": 922, "pitch": 48, "duration": 8, "velocity": 93}, {"time": 928, "pitch": 55, "duration": 8, "velocity": 86}, {"time": 928, "pitch": 60, "duration": 8, "velocity": 86}, {"time": 928, "pitch": 64, "duration": 8, "velocity": 88}, {"time": 934, "pitch": 48, "duration": 8, "velocity": 91}, {"time": 940, "pitch": 55, "duration": 9, "velocity": 84}, {"time": 940, "pitch": 60, "duration": 9, "velocity": 85}, {"time": 940, "pitch": 64, "duration": 8, "velocity": 87}, {"time": 946, "pitch": 48, "duration": 9, "velocity": 90}, {"time": 952, "pitch": 55, "duration": 8, "velocity": 84}, {"time": 952, "pitch": 60, "duration": 8, "velocity": 87}, {"time": 952, "pitch": 64, "duration": 8, "velocity": 86}, {"time": 958, "pitch": 48, "duration": 8, "velocity": 93}, {"time": 964, "pitch": 55, "duration": 9, "velocity": 87}, {"time": 964, "pitch": 60, "duration": 9, "velocity": 93}, {"time": 964, "pitch": 64, "duration": 9, "velocity": 89}, {"time": 970, "pitch": 48, "duration": 7, "velocity": 87}, {"time": 976, "pitch": 55, "duration": 3, "velocity": 85}, {"time": 976, "pitch": 60, "duration": 3, "velocity": 86}, {"time": 976, "pitch": 64, "duration": 3, "velocity": 86}, {"time": 982, "pitch": 48, "duration": 3, "velocity": 91}, {"time": 982, "pitch": 55, "duration": 3, "velocity": 79}, {"time": 982, "pitch": 60, "duration": 3, "velocity": 85}, {"time": 982, "pitch": 64, "duration": 3, "velocity": 85}, {"time": 988, "pitch": 48, "duration": 3, "velocity": 87}, {"time": 988, "pitch": 55, "duration": 3, "velocity": 79}, {"time": 988, "pitch": 60, "duration": 3, "velocity": 85}, {"time": 988, "pitch": 64, "duration": 3, "velocity": 86}, {"time": 994, "pitch": 48, "duration": 3, "velocity": 89}, {"time": 994, "pitch": 55, "duration": 3, "velocity": 80}, {"time": 994, "pitch": 60, "duration": 3, "velocity": 85}, {"time": 994, "pitch": 64, "duration": 3, "velocity": 87}, {"time": 1000, "pitch": 48, "duration": 3, "velocity": 91}, {"time": 1000, "pitch": 55, "duration": 3, "velocity": 82}, {"time": 1000, "pitch": 60, "duration": 3, "velocity": 86}, {"time": 1000, "pitch": 64, "duration": 3, "velocity": 88}, {"time": 1006, "pitch": 48, "duration": 13, "velocity": 89}, {"time": 1006, "pitch": 55, "duration": 13, "velocity": 83}, {"time": 1006, "pitch": 60, "duration": 13, "velocity": 85}, {"time": 1006, "pitch": 64, "duration": 13, "velocity": 86}, {"time": 1024, "pitch": 48, "duration": 2, "velocity": 80}, {"time": 1024, "pitch": 55, "duration": 2, "velocity": 74}, {"time": 1024, "pitch": 60, "duration": 2, "velocity": 85}, {"time": 1024, "pitch": 64, "duration": 2, "velocity": 84}, {"time": 1027, "pitch": 48, "duration": 2, "velocity": 85}, {"time": 1027, "pitch": 55, "duration": 2, "velocity": 77}, {"time": 1027, "pitch": 60, "duration": 2, "velocity": 85}, {"time": 1027, "pitch": 64, "duration": 2, "velocity": 86}, {"time": 1030, "pitch": 48, "duration": 4, "velocity": 91}, {"time": 1030, "pitch": 55, "duration": 5, "velocity": 81}, {"time": 1030, "pitch": 60, "duration": 5, "velocity": 87}, {"time": 1030, "pitch": 64, "duration": 5, "velocity": 85}, {"time": 1048, "pitch": 48, "duration": 3, "velocity": 84}, {"time": 1048, "pitch": 55, "duration": 2, "velocity": 76}, {"time": 1048, "pitch": 60, "duration": 2, "velocity": 80}, {"time": 1048, "pitch": 64, "duration": 2, "velocity": 83}, {"time": 1051, "pitch": 48, "duration": 5, "velocity": 88}, {"time": 1051, "pitch": 55, "duration": 5, "velocity": 84}, {"time": 1051, "pitch": 60, "duration": 5, "velocity": 81}, {"time": 1051, "pitch": 64, "duration": 6, "velocity": 86}, {"time": 1066, "pitch": 43, "duration": 6, "velocity": 85}, {"time": 1066, "pitch": 55, "duration": 6, "velocity": 82}, {"time": 1066, "pitch": 67, "duration": 6, "velocity": 78}, {"time": 1078, "pitch": 45, "duration": 6, "velocity": 84}, {"time": 1078, "pitch": 57, "duration": 6, "velocity": 83}, {"time": 1078, "pitch": 69, "duration": 6, "velocity": 84}, {"time": 1090, "pitch": 48, "duration": 7, "velocity": 84}, {"time": 1090, "pitch": 60, "duration": 6, "velocity": 85}, {"time": 1090, "pitch": 72, "duration": 6, "velocity": 86}, {"time": 1102, "pitch": 36, "duration": 8, "velocity": 77}, {"time": 1102, "pitch": 48, "duration": 8, "velocity": 76}, {"time": 1108, "pitch": 55, "duration": 9, "velocity": 83}, {"time": 1108, "pitch": 60, "duration": 8, "velocity": 80}, {"time": 1108, "pitch": 64, "duration": 8, "velocity": 85}, {"time": 1114, "pitch": 36, "duration": 8, "velocity": 78}, {"time": 1114, "pitch": 48, "duration": 8, "velocity": 82}, {"time": 1120, "pitch": 55, "duration": 4, "velocity": 84}, {"time": 1120, "pitch": 60, "duration": 4, "velocity": 80}, {"time": 1120, "pitch": 64, "duration": 4, "velocity": 85}, {"time": 1126, "pitch": 36, "duration": 8, "velocity": 73}, {"time": 1126, "pitch": 48, "duration": 8, "velocity": 75}, {"time": 1132, "pitch": 55, "duration": 9, "velocity": 85}, {"time": 1132, "pitch": 60, "duration": 8, "velocity": 84}, {"time": 1132, "pitch": 64, "duration": 8, "velocity": 85}, {"time": 1138, "pitch": 36, "duration": 8, "velocity": 77}, {"time": 1138, "pitch": 48, "duration": 9, "velocity": 81}, {"time": 1144, "pitch": 55, "duration": 4, "velocity": 86}, {"time": 1144, "pitch": 60, "duration": 4, "velocity": 86}, {"time": 1144, "pitch": 64, "duration": 4, "velocity": 87}, {"time": 1150, "pitch": 41, "duration": 9, "velocity": 86}, {"time": 1156, "pitch": 53, "duration": 7, "velocity": 84}, {"time": 1156, "pitch": 57, "duration": 7, "velocity": 84}, {"time": 1156, "pitch": 60, "duration": 7, "velocity": 85}, {"time": 1162, "pitch": 41, "duration": 8, "velocity": 85}, {"time": 1168, "pitch": 53, "duration": 5, "velocity": 84}, {"time": 1168, "pitch": 57, "duration": 5, "velocity": 84}, {"time": 1168, "pitch": 60, "duration": 5, "velocity": 85}, {"time": 1174, "pitch": 41, "duration": 8, "velocity": 83}, {"time": 1180, "pitch": 53, "duration": 8, "velocity": 86}, {"time": 1180, "pitch": 57, "duration": 8, "velocity": 87}, {"time": 1180, "pitch": 60, "duration": 8, "velocity": 87}, {"time": 1186, "pitch": 41, "duration": 9, "velocity": 84}, {"time": 1192, "pitch": 53, "duration": 5, "velocity": 81}, {"time": 1192, "pitch": 57, "duration": 5, "velocity": 85}, {"time": 1192, "pitch": 60, "duration": 6, "velocity": 81}, {"time": 1198, "pitch": 48, "duration": 8, "velocity": 87}, {"time": 1204, "pitch": 55, "duration": 7, "velocity": 79}, {"time": 1204, "pitch": 60, "duration": 7, "velocity": 85}, {"time": 1204, "pitch": 64, "duration": 7, "velocity": 85}, {"time": 1210, "pitch": 48, "duration": 7, "velocity": 84}, {"time": 1216, "pitch": 55, "duration": 4, "velocity": 84}, {"time": 1216, "pitch": 60, "duration": 4, "velocity": 86}, {"time": 1216, "pitch": 64, "duration": 5, "velocity": 86}, {"time": 1222, "pitch": 48, "duration": 8, "velocity": 79}, {"time": 1228, "pitch": 55, "duration": 8, "velocity": 86}, {"time": 1228, "pitch": 60, "duration": 8, "velocity": 87}, {"time": 1228, "pitch": 64, "duration": 8, "velocity": 87}, {"time": 1234, "pitch": 48, "duration": 9, "velocity": 85}, {"time": 1240, "pitch": 55, "duration": 6, "velocity": 84}, {"time": 1240, "pitch": 60, "duration": 4, "velocity": 86}, {"time": 1240, "pitch": 64, "duration": 11, "velocity": 87}, {"time": 1246, "pitch": 41, "duration": 8, "velocity": 84}, {"time": 1252, "pitch": 53, "duration": 9, "velocity": 80}, {"time": 1252, "pitch": 57, "duration": 9, "velocity": 80}, {"time": 1252, "pitch": 60, "duration": 9, "velocity": 85}, {"time": 1258, "pitch": 41, "duration": 9, "velocity": 85}, {"time": 1264, "pitch": 53, "duration": 5, "velocity": 80}, {"time": 1264, "pitch": 57, "duration": 5, "velocity": 78}, {"time": 1264, "pitch": 60, "duration": 5, "velocity": 82}, {"time": 1270, "pitch": 41, "duration": 9, "velocity": 77}, {"time": 1276, "pitch": 53, "duration": 9, "velocity": 84}, {"time": 1276, "pitch": 57, "duration": 9, "velocity": 84}, {"time": 1276, "pitch": 60, "duration": 9, "velocity": 86}, {"time": 1282, "pitch": 41, "duration": 9, "velocity": 80}, {"time": 1288, "pitch": 53, "duration": 5, "velocity": 82}, {"time": 1288, "pitch": 57, "duration": 6, "velocity": 84}, {"time": 1288, "pitch": 60, "duration": 6, "velocity": 85}, {"time": 1294, "pitch": 48, "duration": 9, "velocity": 82}, {"time": 1300, "pitch": 55, "duration": 10, "velocity": 78}, {"time": 1300, "pitch": 60, "duration": 10, "velocity": 80}, {"time": 1300, "pitch": 64, "duration": 10, "velocity": 85}, {"time": 1306, "pitch": 43, "duration": 10, "velocity": 82}, {"time": 1312, "pitch": 55, "duration": 9, "velocity": 86}, {"time": 1312, "pitch": 60, "duration": 9, "velocity": 87}, {"time": 1312, "pitch": 64, "duration": 9, "velocity": 87}, {"time": 1318, "pitch": 48, "duration": 9, "velocity": 84}, {"time": 1324, "pitch": 55, "duration": 9, "velocity": 83}, {"time": 1324, "pitch": 60, "duration": 9, "velocity": 85}, {"time": 1324, "pitch": 64, "duration": 8, "velocity": 86}, {"time": 1330, "pitch": 48, "duration": 9, "velocity": 83}, {"time": 1336, "pitch": 55, "duration": 7, "velocity": 84}, {"time": 1336, "pitch": 60, "duration": 6, "velocity": 86}, {"time": 1336, "pitch": 64, "duration": 5, "velocity": 77}, {"time": 1342, "pitch": 41, "duration": 8, "velocity": 84}, {"time": 1348, "pitch": 53, "duration": 9, "velocity": 78}, {"time": 1348, "pitch": 57, "duration": 9, "velocity": 73}, {"time": 1348, "pitch": 60, "duration": 8, "velocity": 77}, {"time": 1354, "pitch": 41, "duration": 8, "velocity": 85}, {"time": 1360, "pitch": 53, "duration": 9, "velocity": 81}, {"time": 1360, "pitch": 57, "duration": 9, "velocity": 84}, {"time": 1360, "pitch": 60, "duration": 8, "velocity": 86}, {"time": 1366, "pitch": 41, "duration": 7, "velocity": 89}, {"time": 1372, "pitch": 53, "duration": 7, "velocity": 84}, {"time": 1372, "pitch": 57, "duration": 7, "velocity": 84}, {"time": 1372, "pitch": 60, "duration": 7, "velocity": 85}, {"time": 1378, "pitch": 41, "duration": 7, "velocity": 85}, {"time": 1384, "pitch": 53, "duration": 5, "velocity": 84}, {"time": 1384, "pitch": 57, "duration": 5, "velocity": 84}, {"time": 1384, "pitch": 60, "duration": 6, "velocity": 84}, {"time": 1390, "pitch": 50, "duration": 8, "velocity": 85}, {"time": 1396, "pitch": 57, "duration": 8, "velocity": 83}, {"time": 1396, "pitch": 62, "duration": 8, "velocity": 86}, {"time": 1396, "pitch": 65, "duration": 8, "velocity": 82}, {"time": 1402, "pitch": 50, "duration": 8, "velocity": 74}, {"time": 1408, "pitch": 57, "duration": 8, "velocity": 80}, {"time": 1408, "pitch": 62, "duration": 8, "velocity": 85}, {"time": 1408, "pitch": 65, "duration": 8, "velocity": 84}, {"time": 1414, "pitch": 50, "duration": 8, "velocity": 84}, {"time": 1420, "pitch": 57, "duration": 8, "velocity": 82}, {"time": 1420, "pitch": 62, "duration": 8, "velocity": 85}, {"time": 1420, "pitch": 65, "duration": 9, "velocity": 84}, {"time": 1426, "pitch": 50, "duration": 7, "velocity": 86}, {"time": 1432, "pitch": 57, "duration": 7, "velocity": 85}, {"time": 1432, "pitch": 62, "duration": 6, "velocity": 84}, {"time": 1432, "pitch": 65, "duration": 7, "velocity": 84}, {"time": 1438, "pitch": 43, "duration": 9, "velocity": 84}, {"time": 1444, "pitch": 55, "duration": 9, "velocity": 83}, {"time": 1444, "pitch": 58, "duration": 9, "velocity": 84}, {"time": 1444, "pitch": 62, "duration": 9, "velocity": 84}, {"time": 1450, "pitch": 43, "duration": 8, "velocity": 76}, {"time": 1456, "pitch": 55, "duration": 6, "velocity": 84}, {"time": 1456, "pitch": 58, "duration": 6, "velocity": 86}, {"time": 1456, "pitch": 62, "duration": 8, "velocity": 85}, {"time": 1462, "pitch": 41, "duration": 8, "velocity": 81}, {"time": 1468, "pitch": 53, "duration": 9, "velocity": 85}, {"time": 1468, "pitch": 57, "duration": 9, "velocity": 85}, {"time": 1468, "pitch": 60, "duration": 9, "velocity": 85}, {"time": 1474, "pitch": 41, "duration": 9, "velocity": 84}, {"time": 1480, "pitch": 53, "duration": 7, "velocity": 84}, {"time": 1480, "pitch": 57, "duration": 6, "velocity": 85}, {"time": 1480, "pitch": 60, "duration": 7, "velocity": 89}, {"time": 1486, "pitch": 48, "duration": 9, "velocity": 89}, {"time": 1492, "pitch": 55, "duration": 9, "velocity": 84}, {"time": 1492, "pitch": 60, "duration": 10, "velocity": 90}, {"time": 1492, "pitch": 64, "duration": 10, "velocity": 85}, {"time": 1498, "pitch": 48, "duration": 9, "velocity": 83}, {"time": 1504, "pitch": 55, "duration": 9, "velocity": 84}, {"time": 1504, "pitch": 60, "duration": 9, "velocity": 83}, {"time": 1504, "pitch": 64, "duration": 9, "velocity": 86}, {"time": 1510, "pitch": 48, "duration": 9, "velocity": 83}, {"time": 1516, "pitch": 55, "duration": 4, "velocity": 81}, {"time": 1516, "pitch": 60, "duration": 4, "velocity": 84}, {"time": 1516, "pitch": 64, "duration": 4, "velocity": 86}, {"time": 1522, "pitch": 48, "duration": 12, "velocity": 91}, {"time": 1522, "pitch": 55, "duration": 12, "velocity": 85}, {"time": 1522, "pitch": 60, "duration": 12, "velocity": 91}, {"time": 1522, "pitch": 64, "duration": 12, "velocity": 91}, {"time": 1534, "pitch": 41, "duration": 9, "velocity": 86}, {"time": 1540, "pitch": 53, "duration": 7, "velocity": 84}, {"time": 1540, "pitch": 57, "duration": 7, "velocity": 84}, {"time": 1540, "pitch": 60, "duration": 7, "velocity": 85}, {"time": 1546, "pitch": 41, "duration": 8, "velocity": 85}, {"time": 1552, "pitch": 53, "duration": 5, "velocity": 84}, {"time": 1552, "pitch": 57, "duration": 5, "velocity": 84}, {"time": 1552, "pitch": 60, "duration": 5, "velocity": 85}, {"time": 1558, "pitch": 41, "duration": 8, "velocity": 83}, {"time": 1564, "pitch": 53, "duration": 8, "velocity": 86}, {"time": 1564, "pitch": 57, "duration": 8, "velocity": 87}, {"time": 1564, "pitch": 60, "duration": 8, "velocity": 87}, {"time": 1570, "pitch": 41, "duration": 9, "velocity": 84}, {"time": 1576, "pitch": 53, "duration": 5, "velocity": 81}, {"time": 1576, "pitch": 57, "duration": 5, "velocity": 85}, {"time": 1576, "pitch": 60, "duration": 6, "velocity": 81}, {"time": 1582, "pitch": 48, "duration": 8, "velocity": 87}, {"time": 1588, "pitch": 55, "duration": 7, "velocity": 79}, {"time": 1588, "pitch": 60, "duration": 7, "velocity": 85}, {"time": 1588, "pitch": 64, "duration": 7, "velocity": 85}, {"time": 1594, "pitch": 48, "duration": 7, "velocity": 84}, {"time": 1600, "pitch": 55, "duration": 4, "velocity": 84}, {"time": 1600, "pitch": 60, "duration": 4, "velocity": 86}, {"time": 1600, "pitch": 64, "duration": 5, "velocity": 86}, {"time": 1606, "pitch": 48, "duration": 8, "velocity": 79}, {"time": 1612, "pitch": 55, "duration": 8, "velocity": 86}, {"time": 1612, "pitch": 60, "duration": 8, "velocity": 87}, {"time": 1612, "pitch": 64, "duration": 8, "velocity": 87}, {"time": 1618, "pitch": 48, "duration": 9, "velocity": 85}, {"time": 1624, "pitch": 55, "duration": 6, "velocity": 84}, {"time": 1624, "pitch": 60, "duration": 4, "velocity": 86}, {"time": 1624, "pitch": 64, "duration": 11, "velocity": 87}, {"time": 1630, "pitch": 41, "duration": 8, "velocity": 84}, {"time": 1636, "pitch": 53, "duration": 9, "velocity": 80}, {"time": 1636, "pitch": 57, "duration": 9, "velocity": 80}, {"time": 1636, "pitch": 60, "duration": 9, "velocity": 85}, {"time": 1642, "pitch": 41, "duration": 9, "velocity": 85}, {"time": 1648, "pitch": 53, "duration": 5, "velocity": 80}, {"time": 1648, "pitch": 57, "duration": 5, "velocity": 78}, {"time": 1648, "pitch": 60, "duration": 5, "velocity": 82}, {"time": 1654, "pitch": 41, "duration": 9, "velocity": 77}, {"time": 1660, "pitch": 53, "duration": 9, "velocity": 84}, {"time": 1660, "pitch": 57, "duration": 9, "velocity": 84}, {"time": 1660, "pitch": 60, "duration": 9, "velocity": 86}, {"time": 1666, "pitch": 41, "duration": 9, "velocity": 80}, {"time": 1672, "pitch": 53, "duration": 5, "velocity": 82}, {"time": 1672, "pitch": 57, "duration": 6, "velocity": 84}, {"time": 1672, "pitch": 60, "duration": 6, "velocity": 85}, {"time": 1678, "pitch": 48, "duration": 9, "velocity": 82}, {"time": 1684, "pitch": 55, "duration": 10, "velocity": 78}, {"time": 1684, "pitch": 60, "duration": 10, "velocity": 80}, {"time": 1684, "pitch": 64, "duration": 10, "velocity": 85}, {"time": 1690, "pitch": 43, "duration": 10, "velocity": 82}, {"time": 1696, "pitch": 55, "duration": 9, "velocity": 86}, {"time": 1696, "pitch": 60, "duration": 9, "velocity": 87}, {"time": 1696, "pitch": 64, "duration": 9, "velocity": 87}, {"time": 1702, "pitch": 48, "duration": 9, "velocity": 84}, {"time": 1708, "pitch": 55, "duration": 9, "velocity": 83}, {"time": 1708, "pitch": 60, "duration": 9, "velocity": 85}, {"time": 1708, "pitch": 64, "duration": 8, "velocity": 86}, {"time": 1714, "pitch": 48, "duration": 9, "velocity": 83}, {"time": 1720, "pitch": 55, "duration": 7, "velocity": 84}, {"time": 1720, "pitch": 60, "duration": 6, "velocity": 86}, {"time": 1720, "pitch": 64, "duration": 5, "velocity": 77}, {"time": 1726, "pitch": 41, "duration": 8, "velocity": 84}, {"time": 1732, "pitch": 53, "duration": 9, "velocity": 78}, {"time": 1732, "pitch": 57, "duration": 9, "velocity": 73}, {"time": 1732, "pitch": 60, "duration": 8, "velocity": 77}, {"time": 1738, "pitch": 41, "duration": 8, "velocity": 85}, {"time": 1744, "pitch": 53, "duration": 9, "velocity": 81}, {"time": 1744, "pitch": 57, "duration": 9, "velocity": 84}, {"time": 1744, "pitch": 60, "duration": 8, "velocity": 86}, {"time": 1750, "pitch": 41, "duration": 7, "velocity": 89}, {"time": 1756, "pitch": 53, "duration": 7, "velocity": 84}, {"time": 1756, "pitch": 57, "duration": 7, "velocity": 84}, {"time": 1756, "pitch": 60, "duration": 7, "velocity": 85}, {"time": 1762, "pitch": 41, "duration": 7, "velocity": 85}, {"time": 1768, "pitch": 53, "duration": 5, "velocity": 84}, {"time": 1768, "pitch": 57, "duration": 5, "velocity": 84}, {"time": 1768, "pitch": 60, "duration": 6, "velocity": 84}, {"time": 1774, "pitch": 50, "duration": 8, "velocity": 85}, {"time": 1780, "pitch": 57, "duration": 8, "velocity": 83}, {"time": 1780, "pitch": 62, "duration": 8, "velocity": 86}, {"time": 1780, "pitch": 65, "duration": 8, "velocity": 82}, {"time": 1786, "pitch": 50, "duration": 8, "velocity": 74}, {"time": 1792, "pitch": 57, "duration": 8, "velocity": 80}, {"time": 1792, "pitch": 62, "duration": 8, "velocity": 85}, {"time": 1792, "pitch": 65, "duration": 8, "velocity": 84}, {"time": 1798, "pitch": 50, "duration": 8, "velocity": 84}, {"time": 1804, "pitch": 57, "duration": 8, "velocity": 82}, {"time": 1804, "pitch": 62, "duration": 8, "velocity": 85}, {"time": 1804, "pitch": 65, "duration": 9, "velocity": 84}, {"time": 1810, "pitch": 50, "duration": 7, "velocity": 86}, {"time": 1816, "pitch": 57, "duration": 7, "velocity": 85}, {"time": 1816, "pitch": 62, "duration": 6, "velocity": 84}, {"time": 1816, "pitch": 65, "duration": 7, "velocity": 84}, {"time": 1822, "pitch": 43, "duration": 9, "velocity": 84}, {"time": 1828, "pitch": 55, "duration": 9, "velocity": 83}, {"time": 1828, "pitch": 58, "duration": 9, "velocity": 84}, {"time": 1828, "pitch": 62, "duration": 9, "velocity": 84}, {"time": 1834, "pitch": 43, "duration": 8, "velocity": 76}, {"time": 1840, "pitch": 55, "duration": 6, "velocity": 84}, {"time": 1840, "pitch": 58, "duration": 6, "velocity": 86}, {"time": 1840, "pitch": 62, "duration": 8, "velocity": 85}, {"time": 1846, "pitch": 41, "duration": 9, "velocity": 85}, {"time": 1852, "pitch": 53, "duration": 7, "velocity": 82}, {"time": 1852, "pitch": 57, "duration": 7, "velocity": 84}, {"time": 1852, "pitch": 60, "duration": 7, "velocity": 85}, {"time": 1858, "pitch": 36, "duration": 8, "velocity": 86}, {"time": 1864, "pitch": 48, "duration": 6, "velocity": 84}, {"time": 1864, "pitch": 52, "duration": 7, "velocity": 84}, {"time": 1864, "pitch": 55, "duration": 7, "velocity": 85}, {"time": 1870, "pitch": 41, "duration": 9, "velocity": 86}, {"time": 1876, "pitch": 53, "duration": 10, "velocity": 84}, {"time": 1876, "pitch": 57, "duration": 10, "velocity": 85}, {"time": 1876, "pitch": 60, "duration": 10, "velocity": 87}, {"time": 1882, "pitch": 41, "duration": 9, "velocity": 84}, {"time": 1888, "pitch": 53, "duration": 10, "velocity": 80}, {"time": 1888, "pitch": 57, "duration": 10, "velocity": 83}, {"time": 1888, "pitch": 60, "duration": 10, "velocity": 86}, {"time": 1894, "pitch": 41, "duration": 10, "velocity": 84}, {"time": 1900, "pitch": 53, "duration": 10, "velocity": 83}, {"time": 1900, "pitch": 57, "duration": 10, "velocity": 81}, {"time": 1900, "pitch": 60, "duration": 10, "velocity": 85}, {"time": 1906, "pitch": 41, "duration": 9, "velocity": 86}, {"time": 1912, "pitch": 53, "duration": 5, "velocity": 85}, {"time": 1912, "pitch": 57, "duration": 5, "velocity": 88}, {"time": 1912, "pitch": 60, "duration": 5, "velocity": 86}, {"time": 1918, "pitch": 50, "duration": 8, "velocity": 95}, {"time": 1924, "pitch": 57, "duration": 9, "velocity": 84}, {"time": 1924, "pitch": 62, "duration": 9, "velocity": 85}, {"time": 1924, "pitch": 65, "duration": 9, "velocity": 86}, {"time": 1930, "pitch": 50, "duration": 8, "velocity": 93}, {"time": 1936, "pitch": 57, "duration": 9, "velocity": 83}, {"time": 1936, "pitch": 62, "duration": 8, "velocity": 89}, {"time": 1936, "pitch": 65, "duration": 9, "velocity": 85}, {"time": 1942, "pitch": 50, "duration": 9, "velocity": 88}, {"time": 1948, "pitch": 57, "duration": 6, "velocity": 85}, {"time": 1948, "pitch": 62, "duration": 5, "velocity": 89}, {"time": 1948, "pitch": 65, "duration": 6, "velocity": 86}, {"time": 1954, "pitch": 48, "duration": 8, "velocity": 87}, {"time": 1960, "pitch": 55, "duration": 7, "velocity": 86}, {"time": 1960, "pitch": 60, "duration": 7, "velocity": 88}, {"time": 1960, "pitch": 64, "duration": 7, "velocity": 90}, {"time": 1966, "pitch": 50, "duration": 8, "velocity": 93}, {"time": 1972, "pitch": 57, "duration": 10, "velocity": 84}, {"time": 1972, "pitch": 62, "duration": 10, "velocity": 85}, {"time": 1972, "pitch": 65, "duration": 9, "velocity": 86}, {"time": 1978, "pitch": 50, "duration": 9, "velocity": 93}, {"time": 1984, "pitch": 57, "duration": 7, "velocity": 85}, {"time": 1984, "pitch": 62, "duration": 6, "velocity": 88}, {"time": 1984, "pitch": 65, "duration": 6, "velocity": 86}, {"time": 1990, "pitch": 48, "duration": 8, "velocity": 91}, {"time": 1996, "pitch": 55, "duration": 10, "velocity": 86}, {"time": 1996, "pitch": 60, "duration": 10, "velocity": 88}, {"time": 1996, "pitch": 64, "duration": 10, "velocity": 90}, {"time": 2002, "pitch": 48, "duration": 10, "velocity": 93}, {"time": 2008, "pitch": 55, "duration": 5, "velocity": 86}, {"time": 2008, "pitch": 60, "duration": 6, "velocity": 87}, {"time": 2008, "pitch": 64, "duration": 5, "velocity": 90}, {"time": 2014, "pitch": 50, "duration": 8, "velocity": 91}, {"time": 2020, "pitch": 57, "duration": 9, "velocity": 84}, {"time": 2020, "pitch": 62, "duration": 10, "velocity": 86}, {"time": 2020, "pitch": 65, "duration": 10, "velocity": 84}, {"time": 2026, "pitch": 50, "duration": 8, "velocity": 91}, {"time": 2032, "pitch": 57, "duration": 9, "velocity": 86}, {"time": 2032, "pitch": 62, "duration": 9, "velocity": 90}, {"time": 2032, "pitch": 65, "duration": 9, "velocity": 87}, {"time": 2038, "pitch": 50, "duration": 8, "velocity": 89}, {"time": 2044, "pitch": 57, "duration": 9, "velocity": 85}, {"time": 2044, "pitch": 62, "duration": 9, "velocity": 87}, {"time": 2044, "pitch": 65, "duration": 9, "velocity": 87}, {"time": 2050, "pitch": 50, "duration": 8, "velocity": 89}, {"time": 2056, "pitch": 57, "duration": 7, "velocity": 84}, {"time": 2056, "pitch": 62, "duration": 6, "velocity": 86}, {"time": 2056, "pitch": 65, "duration": 6, "velocity": 85}, {"time": 2062, "pitch": 43, "duration": 9, "velocity": 86}, {"time": 2068, "pitch": 55, "duration": 9, "velocity": 85}, {"time": 2068, "pitch": 58, "duration": 10, "velocity": 88}, {"time": 2068, "pitch": 62, "duration": 10, "velocity": 87}, {"time": 2074, "pitch": 43, "duration": 10, "velocity": 84}, {"time": 2080, "pitch": 55, "duration": 6, "velocity": 85}, {"time": 2080, "pitch": 58, "duration": 6, "velocity": 88}, {"time": 2080, "pitch": 62, "duration": 7, "velocity": 86}, {"time": 2086, "pitch": 48, "duration": 9, "velocity": 88}, {"time": 2092, "pitch": 55, "duration": 9, "velocity": 81}, {"time": 2092, "pitch": 60, "duration": 9, "velocity": 85}, {"time": 2092, "pitch": 64, "duration": 9, "velocity": 88}, {"time": 2098, "pitch": 48, "duration": 11, "velocity": 87}, {"time": 2104, "pitch": 55, "duration": 5, "velocity": 88}, {"time": 2104, "pitch": 60, "duration": 5, "velocity": 91}, {"time": 2104, "pitch": 64, "duration": 6, "velocity": 93}, {"time": 2110, "pitch": 50, "duration": 8, "velocity": 95}, {"time": 2116, "pitch": 57, "duration": 9, "velocity": 84}, {"time": 2116, "pitch": 62, "duration": 9, "velocity": 85}, {"time": 2116, "pitch": 65, "duration": 9, "velocity": 86}, {"time": 2122, "pitch": 50, "duration": 8, "velocity": 93}, {"time": 2128, "pitch": 57, "duration": 9, "velocity": 83}, {"time": 2128, "pitch": 62, "duration": 8, "velocity": 89}, {"time": 2128, "pitch": 65, "duration": 9, "velocity": 85}, {"time": 2134, "pitch": 50, "duration": 9, "velocity": 88}, {"time": 2140, "pitch": 57, "duration": 6, "velocity": 85}, {"time": 2140, "pitch": 62, "duration": 5, "velocity": 89}, {"time": 2140, "pitch": 65, "duration": 6, "velocity": 86}, {"time": 2146, "pitch": 48, "duration": 8, "velocity": 87}, {"time": 2152, "pitch": 55, "duration": 7, "velocity": 86}, {"time": 2152, "pitch": 60, "duration": 7, "velocity": 88}, {"time": 2152, "pitch": 64, "duration": 7, "velocity": 90}, {"time": 2158, "pitch": 50, "duration": 8, "velocity": 93}, {"time": 2164, "pitch": 57, "duration": 10, "velocity": 84}, {"time": 2164, "pitch": 62, "duration": 10, "velocity": 85}, {"time": 2164, "pitch": 65, "duration": 9, "velocity": 86}, {"time": 2170, "pitch": 50, "duration": 9, "velocity": 93}, {"time": 2176, "pitch": 57, "duration": 7, "velocity": 85}, {"time": 2176, "pitch": 62, "duration": 6, "velocity": 88}, {"time": 2176, "pitch": 65, "duration": 6, "velocity": 86}, {"time": 2182, "pitch": 48, "duration": 8, "velocity": 91}, {"time": 2188, "pitch": 55, "duration": 10, "velocity": 86}, {"time": 2188, "pitch": 60, "duration": 10, "velocity": 88}, {"time": 2188, "pitch": 64, "duration": 10, "velocity": 90}, {"time": 2194, "pitch": 48, "duration": 10, "velocity": 93}, {"time": 2200, "pitch": 55, "duration": 5, "velocity": 86}, {"time": 2200, "pitch": 60, "duration": 6, "velocity": 87}, {"time": 2200, "pitch": 64, "duration": 5, "velocity": 90}, {"time": 2206, "pitch": 50, "duration": 8, "velocity": 91}, {"time": 2212, "pitch": 57, "duration": 9, "velocity": 84}, {"time": 2212, "pitch": 62, "duration": 10, "velocity": 86}, {"time": 2212, "pitch": 65, "duration": 10, "velocity": 84}, {"time": 2218, "pitch": 50, "duration": 8, "velocity": 91}, {"time": 2224, "pitch": 57, "duration": 9, "velocity": 86}, {"time": 2224, "pitch": 62, "duration": 9, "velocity": 90}, {"time": 2224, "pitch": 65, "duration": 9, "velocity": 87}, {"time": 2230, "pitch": 50, "duration": 8, "velocity": 89}, {"time": 2236, "pitch": 57, "duration": 9, "velocity": 85}, {"time": 2236, "pitch": 62, "duration": 9, "velocity": 87}, {"time": 2236, "pitch": 65, "duration": 9, "velocity": 87}, {"time": 2242, "pitch": 50, "duration": 8, "velocity": 89}, {"time": 2248, "pitch": 57, "duration": 7, "velocity": 84}, {"time": 2248, "pitch": 62, "duration": 6, "velocity": 86}, {"time": 2248, "pitch": 65, "duration": 6, "velocity": 85}, {"time": 2254, "pitch": 43, "duration": 9, "velocity": 86}, {"time": 2260, "pitch": 55, "duration": 9, "velocity": 85}, {"time": 2260, "pitch": 58, "duration": 10, "velocity": 88}, {"time": 2260, "pitch": 62, "duration": 10, "velocity": 87}, {"time": 2266, "pitch": 43, "duration": 10, "velocity": 84}, {"time": 2272, "pitch": 55, "duration": 6, "velocity": 85}, {"time": 2272, "pitch": 58, "duration": 6, "velocity": 88}, {"time": 2272, "pitch": 62, "duration": 7, "velocity": 86}, {"time": 2278, "pitch": 48, "duration": 9, "velocity": 88}, {"time": 2284, "pitch": 55, "duration": 9, "velocity": 81}, {"time": 2284, "pitch": 60, "duration": 9, "velocity": 85}, {"time": 2284, "pitch": 64, "duration": 9, "velocity": 88}, {"time": 2290, "pitch": 48, "duration": 11, "velocity": 87}, {"time": 2296, "pitch": 55, "duration": 5, "velocity": 88}, {"time": 2296, "pitch": 60, "duration": 5, "velocity": 91}, {"time": 2296, "pitch": 64, "duration": 6, "velocity": 93}, {"time": 2302, "pitch": 48, "duration": 9, "velocity": 86}, {"time": 2308, "pitch": 55, "duration": 10, "velocity": 85}, {"time": 2308, "pitch": 60, "duration": 10, "velocity": 85}, {"time": 2308, "pitch": 64, "duration": 9, "velocity": 87}, {"time": 2314, "pitch": 48, "duration": 9, "velocity": 87}, {"time": 2320, "pitch": 55, "duration": 7, "velocity": 86}, {"time": 2320, "pitch": 60, "duration": 6, "velocity": 86}, {"time": 2320, "pitch": 64, "duration": 5, "velocity": 86}, {"time": 2326, "pitch": 41, "duration": 8, "velocity": 86}, {"time": 2332, "pitch": 53, "duration": 10, "velocity": 85}, {"time": 2332, "pitch": 57, "duration": 10, "velocity": 84}, {"time": 2332, "pitch": 60, "duration": 10, "velocity": 86}, {"time": 2338, "pitch": 41, "duration": 9, "velocity": 85}, {"time": 2344, "pitch": 53, "duration": 6, "velocity": 87}, {"time": 2344, "pitch": 57, "duration": 6, "velocity": 86}, {"time": 2344, "pitch": 60, "duration": 6, "velocity": 89}, {"time": 2350, "pitch": 48, "duration": 9, "velocity": 91}, {"time": 2356, "pitch": 55, "duration": 9, "velocity": 79}, {"time": 2356, "pitch": 60, "duration": 10, "velocity": 82}, {"time": 2356, "pitch": 64, "duration": 10, "velocity": 82}, {"time": 2362, "pitch": 48, "duration": 9, "velocity": 87}, {"time": 2368, "pitch": 55, "duration": 6, "velocity": 85}, {"time": 2368, "pitch": 60, "duration": 7, "velocity": 85}, {"time": 2368, "pitch": 64, "duration": 7, "velocity": 85}, {"time": 2374, "pitch": 41, "duration": 8, "velocity": 84}, {"time": 2380, "pitch": 57, "duration": 10, "velocity": 80}, {"time": 2380, "pitch": 60, "duration": 10, "velocity": 85}, {"time": 2380, "pitch": 65, "duration": 10, "velocity": 84}, {"time": 2386, "pitch": 41, "duration": 8, "velocity": 84}, {"time": 2392, "pitch": 57, "duration": 6, "velocity": 78}, {"time": 2392, "pitch": 60, "duration": 6, "velocity": 85}, {"time": 2392, "pitch": 65, "duration": 6, "velocity": 84}, {"time": 2398, "pitch": 50, "duration": 8, "velocity": 86}, {"time": 2404, "pitch": 57, "duration": 10, "velocity": 80}, {"time": 2404, "pitch": 62, "duration": 10, "velocity": 84}, {"time": 2404, "pitch": 65, "duration": 10, "velocity": 84}, {"time": 2410, "pitch": 50, "duration": 8, "velocity": 86}, {"time": 2416, "pitch": 57, "duration": 7, "velocity": 83}, {"time": 2416, "pitch": 62, "duration": 7, "velocity": 86}, {"time": 2416, "pitch": 65, "duration": 6, "velocity": 85}, {"time": 2422, "pitch": 48, "duration": 8, "velocity": 90}, {"time": 2428, "pitch": 55, "duration": 8, "velocity": 79}, {"time": 2428, "pitch": 60, "duration": 8, "velocity": 84}, {"time": 2428, "pitch": 64, "duration": 8, "velocity": 85}, {"time": 2434, "pitch": 48, "duration": 10, "velocity": 88}, {"time": 2440, "pitch": 55, "duration": 5, "velocity": 84}, {"time": 2440, "pitch": 60, "duration": 6, "velocity": 85}, {"time": 2440, "pitch": 64, "duration": 5, "velocity": 86}, {"time": 2446, "pitch": 48, "duration": 8, "velocity": 88}, {"time": 2452, "pitch": 55, "duration": 9, "velocity": 84}, {"time": 2452, "pitch": 60, "duration": 9, "velocity": 82}, {"time": 2452, "pitch": 64, "duration": 9, "velocity": 85}, {"time": 2458, "pitch": 48, "duration": 11, "velocity": 87}, {"time": 2464, "pitch": 55, "duration": 6, "velocity": 85}, {"time": 2464, "pitch": 60, "duration": 6, "velocity": 85}, {"time": 2464, "pitch": 64, "duration": 6, "velocity": 85}, {"time": 2470, "pitch": 48, "duration": 7, "velocity": 93}, {"time": 2476, "pitch": 55, "duration": 8, "velocity": 85}, {"time": 2476, "pitch": 60, "duration": 8, "velocity": 85}, {"time": 2476, "pitch": 64, "duration": 8, "velocity": 84}, {"time": 2482, "pitch": 48, "duration": 10, "velocity": 89}, {"time": 2488, "pitch": 55, "duration": 7, "velocity": 86}, {"time": 2488, "pitch": 60, "duration": 7, "velocity": 86}, {"time": 2488, "pitch": 64, "duration": 7, "velocity": 88}, {"time": 2494, "pitch": 48, "duration": 8, "velocity": 86}, {"time": 2500, "pitch": 55, "duration": 9, "velocity": 84}, {"time": 2500, "pitch": 60, "duration": 8, "velocity": 84}, {"time": 2500, "pitch": 64, "duration": 8, "velocity": 88}, {"time": 2506, "pitch": 48, "duration": 9, "velocity": 88}, {"time": 2512, "pitch": 55, "duration": 10, "velocity": 85}, {"time": 2512, "pitch": 60, "duration": 10, "velocity": 86}, {"time": 2512, "pitch": 64, "duration": 10, "velocity": 87}, {"time": 2518, "pitch": 48, "duration": 9, "velocity": 85}, {"time": 2524, "pitch": 55, "duration": 8, "velocity": 85}, {"time": 2524, "pitch": 60, "duration": 8, "velocity": 88}, {"time": 2524, "pitch": 64, "duration": 8, "velocity": 91}, {"time": 2530, "pitch": 48, "duration": 8, "velocity": 91}, {"time": 2536, "pitch": 55, "duration": 7, "velocity": 81}, {"time": 2536, "pitch": 60, "duration": 7, "velocity": 86}, {"time": 2536, "pitch": 64, "duration": 6, "velocity": 86}, {"time": 2542, "pitch": 41, "duration": 9, "velocity": 87}, {"time": 2548, "pitch": 53, "duration": 10, "velocity": 82}, {"time": 2548, "pitch": 57, "duration": 10, "velocity": 86}, {"time": 2548, "pitch": 60, "duration": 10, "velocity": 85}, {"time": 2554, "pitch": 41, "duration": 9, "velocity": 85}, {"time": 2560, "pitch": 53, "duration": 9, "velocity": 84}, {"time": 2560, "pitch": 57, "duration": 8, "velocity": 86}, {"time": 2560, "pitch": 60, "duration": 8, "velocity": 89}, {"time": 2566, "pitch": 41, "duration": 9, "velocity": 85}, {"time": 2572, "pitch": 53, "duration": 10, "velocity": 85}, {"time": 2572, "pitch": 57, "duration": 9, "velocity": 87}, {"time": 2572, "pitch": 60, "duration": 9, "velocity": 86}, {"time": 2578, "pitch": 41, "duration": 10, "velocity": 85}, {"time": 2584, "pitch": 53, "duration": 6, "velocity": 84}, {"time": 2584, "pitch": 57, "duration": 6, "velocity": 84}, {"time": 2584, "pitch": 60, "duration": 6, "velocity": 85}, {"time": 2590, "pitch": 41, "duration": 10, "velocity": 88}, {"time": 2596, "pitch": 53, "duration": 10, "velocity": 82}, {"time": 2596, "pitch": 57, "duration": 10, "velocity": 86}, {"time": 2596, "pitch": 60, "duration": 10, "velocity": 86}, {"time": 2602, "pitch": 41, "duration": 9, "velocity": 84}, {"time": 2608, "pitch": 53, "duration": 7, "velocity": 81}, {"time": 2608, "pitch": 57, "duration": 7, "velocity": 84}, {"time": 2608, "pitch": 60, "duration": 7, "velocity": 85}, {"time": 2614, "pitch": 41, "duration": 9, "velocity": 85}, {"time": 2620, "pitch": 53, "duration": 3, "velocity": 84}, {"time": 2620, "pitch": 57, "duration": 3, "velocity": 84}, {"time": 2620, "pitch": 60, "duration": 4, "velocity": 88}, {"time": 2626, "pitch": 41, "duration": 10, "velocity": 84}, {"time": 2632, "pitch": 53, "duration": 10, "velocity": 79}, {"time": 2632, "pitch": 57, "duration": 10, "velocity": 83}, {"time": 2632, "pitch": 60, "duration": 9, "velocity": 86}, {"time": 2638, "pitch": 41, "duration": 9, "velocity": 85}, {"time": 2644, "pitch": 53, "duration": 8, "velocity": 84}, {"time": 2644, "pitch": 57, "duration": 8, "velocity": 84}, {"time": 2644, "pitch": 60, "duration": 7, "velocity": 84}, {"time": 2650, "pitch": 41, "duration": 8, "velocity": 85}, {"time": 2656, "pitch": 53, "duration": 8, "velocity": 85}, {"time": 2656, "pitch": 57, "duration": 8, "velocity": 85}, {"time": 2656, "pitch": 60, "duration": 8, "velocity": 85}, {"time": 2662, "pitch": 41, "duration": 10, "velocity": 84}, {"time": 2668, "pitch": 53, "duration": 4, "velocity": 86}, {"time": 2668, "pitch": 57, "duration": 3, "velocity": 90}, {"time": 2668, "pitch": 60, "duration": 4, "velocity": 89}, {"time": 2674, "pitch": 41, "duration": 11, "velocity": 85}, {"time": 2680, "pitch": 53, "duration": 6, "velocity": 84}, {"time": 2680, "pitch": 57, "duration": 7, "velocity": 86}, {"time": 2680, "pitch": 60, "duration": 7, "velocity": 86}, {"time": 2686, "pitch": 41, "duration": 9, "velocity": 88}, {"time": 2692, "pitch": 53, "duration": 9, "velocity": 84}, {"time": 2692, "pitch": 57, "duration": 8, "velocity": 85}, {"time": 2692, "pitch": 60, "duration": 9, "velocity": 86}, {"time": 2698, "pitch": 41, "duration": 9, "velocity": 86}, {"time": 2704, "pitch": 53, "duration": 6, "velocity": 87}, {"time": 2704, "pitch": 57, "duration": 6, "velocity": 85}, {"time": 2704, "pitch": 60, "duration": 6, "velocity": 89}, {"time": 2710, "pitch": 48, "duration": 9, "velocity": 88}, {"time": 2716, "pitch": 55, "duration": 10, "velocity": 86}, {"time": 2716, "pitch": 60, "duration": 10, "velocity": 86}, {"time": 2716, "pitch": 64, "duration": 10, "velocity": 87}, {"time": 2722, "pitch": 48, "duration": 8, "velocity": 93}, {"time": 2728, "pitch": 55, "duration": 6, "velocity": 84}, {"time": 2728, "pitch": 60, "duration": 5, "velocity": 86}, {"time": 2728, "pitch": 64, "duration": 5, "velocity": 85}, {"time": 2734, "pitch": 43, "duration": 8, "velocity": 85}, {"time": 2740, "pitch": 55, "duration": 8, "velocity": 84}, {"time": 2740, "pitch": 58, "duration": 8, "velocity": 85}, {"time": 2740, "pitch": 62, "duration": 8, "velocity": 85}, {"time": 2746, "pitch": 43, "duration": 8, "velocity": 85}, {"time": 2752, "pitch": 55, "duration": 6, "velocity": 84}, {"time": 2752, "pitch": 58, "duration": 6, "velocity": 85}, {"time": 2752, "pitch": 62, "duration": 6, "velocity": 85}, {"time": 2758, "pitch": 43, "duration": 10, "velocity": 80}, {"time": 2764, "pitch": 55, "duration": 7, "velocity": 85}, {"time": 2764, "pitch": 58, "duration": 7, "velocity": 87}, {"time": 2764, "pitch": 62, "duration": 7, "velocity": 85}, {"time": 2770, "pitch": 43, "duration": 8, "velocity": 85}, {"time": 2776, "pitch": 55, "duration": 5, "velocity": 80}, {"time": 2776, "pitch": 58, "duration": 5, "velocity": 82}, {"time": 2776, "pitch": 62, "duration": 6, "velocity": 85}, {"time": 2782, "pitch": 46, "duration": 8, "velocity": 89}, {"time": 2788, "pitch": 58, "duration": 9, "velocity": 84}, {"time": 2788, "pitch": 62, "duration": 9, "velocity": 84}, {"time": 2794, "pitch": 46, "duration": 9, "velocity": 85}, {"time": 2800, "pitch": 58, "duration": 6, "velocity": 86}, {"time": 2800, "pitch": 62, "duration": 6, "velocity": 86}, {"time": 2800, "pitch": 65, "duration": 7, "velocity": 83}, {"time": 2806, "pitch": 46, "duration": 7, "velocity": 84}, {"time": 2812, "pitch": 58, "duration": 8, "velocity": 88}, {"time": 2812, "pitch": 62, "duration": 8, "velocity": 88}, {"time": 2812, "pitch": 65, "duration": 8, "velocity": 85}, {"time": 2818, "pitch": 46, "duration": 8, "velocity": 89}, {"time": 2824, "pitch": 58, "duration": 4, "velocity": 85}, {"time": 2824, "pitch": 62, "duration": 5, "velocity": 85}, {"time": 2824, "pitch": 65, "duration": 5, "velocity": 84}, {"time": 2830, "pitch": 48, "duration": 7, "velocity": 85}, {"time": 2836, "pitch": 55, "duration": 8, "velocity": 82}, {"time": 2836, "pitch": 60, "duration": 8, "velocity": 85}, {"time": 2836, "pitch": 64, "duration": 8, "velocity": 87}, {"time": 2842, "pitch": 48, "duration": 8, "velocity": 86}, {"time": 2848, "pitch": 55, "duration": 6, "velocity": 84}, {"time": 2848, "pitch": 60, "duration": 6, "velocity": 85}, {"time": 2848, "pitch": 64, "duration": 6, "velocity": 86}, {"time": 2854, "pitch": 48, "duration": 9, "velocity": 80}, {"time": 2860, "pitch": 55, "duration": 9, "velocity": 86}, {"time": 2860, "pitch": 60, "duration": 10, "velocity": 84}, {"time": 2860, "pitch": 64, "duration": 10, "velocity": 85}, {"time": 2866, "pitch": 48, "duration": 12, "velocity": 87}, {"time": 2872, "pitch": 55, "duration": 5, "velocity": 87}, {"time": 2872, "pitch": 60, "duration": 5, "velocity": 88}, {"time": 2872, "pitch": 64, "duration": 5, "velocity": 91}, {"time": 2878, "pitch": 41, "duration": 9, "velocity": 86}, {"time": 2884, "pitch": 53, "duration": 9, "velocity": 83}, {"time": 2884, "pitch": 57, "duration": 9, "velocity": 85}, {"time": 2884, "pitch": 60, "duration": 10, "velocity": 85}, {"time": 2890, "pitch": 41, "duration": 8, "velocity": 85}, {"time": 2896, "pitch": 53, "duration": 5, "velocity": 82}, {"time": 2896, "pitch": 57, "duration": 5, "velocity": 84}, {"time": 2896, "pitch": 60, "duration": 6, "velocity": 85}, {"time": 2902, "pitch": 50, "duration": 10, "velocity": 77}, {"time": 2908, "pitch": 57, "duration": 8, "velocity": 85}, {"time": 2908, "pitch": 62, "duration": 8, "velocity": 86}, {"time": 2908, "pitch": 65, "duration": 9, "velocity": 86}, {"time": 2914, "pitch": 50, "duration": 9, "velocity": 88}, {"time": 2920, "pitch": 57, "duration": 6, "velocity": 85}, {"time": 2920, "pitch": 62, "duration": 6, "velocity": 85}, {"time": 2920, "pitch": 65, "duration": 6, "velocity": 84}, {"time": 2926, "pitch": 48, "duration": 8, "velocity": 85}, {"time": 2932, "pitch": 55, "duration": 9, "velocity": 78}, {"time": 2932, "pitch": 60, "duration": 9, "velocity": 84}, {"time": 2932, "pitch": 64, "duration": 9, "velocity": 86}, {"time": 2938, "pitch": 48, "duration": 10, "velocity": 88}, {"time": 2944, "pitch": 55, "duration": 7, "velocity": 83}, {"time": 2944, "pitch": 60, "duration": 7, "velocity": 85}, {"time": 2944, "pitch": 64, "duration": 7, "velocity": 86}, {"time": 2950, "pitch": 41, "duration": 9, "velocity": 87}, {"time": 2956, "pitch": 53, "duration": 10, "velocity": 84}, {"time": 2956, "pitch": 57, "duration": 9, "velocity": 85}, {"time": 2956, "pitch": 60, "duration": 10, "velocity": 85}, {"time": 2962, "pitch": 41, "duration": 8, "velocity": 85}, {"time": 2968, "pitch": 53, "duration": 5, "velocity": 83}, {"time": 2968, "pitch": 57, "duration": 6, "velocity": 84}, {"time": 2968, "pitch": 60, "duration": 6, "velocity": 85}, {"time": 2974, "pitch": 43, "duration": 8, "velocity": 84}, {"time": 2980, "pitch": 55, "duration": 8, "velocity": 81}, {"time": 2980, "pitch": 58, "duration": 8, "velocity": 85}, {"time": 2980, "pitch": 62, "duration": 8, "velocity": 84}, {"time": 2986, "pitch": 43, "duration": 8, "velocity": 83}, {"time": 2992, "pitch": 55, "duration": 6, "velocity": 85}, {"time": 2992, "pitch": 58, "duration": 6, "velocity": 93}, {"time": 2992, "pitch": 62, "duration": 6, "velocity": 87}, {"time": 2998, "pitch": 43, "duration": 9, "velocity": 82}, {"time": 3004, "pitch": 55, "duration": 7, "velocity": 86}, {"time": 3004, "pitch": 58, "duration": 8, "velocity": 91}, {"time": 3004, "pitch": 62, "duration": 7, "velocity": 85}, {"time": 3010, "pitch": 43, "duration": 10, "velocity": 85}, {"time": 3016, "pitch": 55, "duration": 5, "velocity": 86}, {"time": 3016, "pitch": 58, "duration": 6, "velocity": 90}, {"time": 3016, "pitch": 62, "duration": 6, "velocity": 86}, {"time": 3022, "pitch": 48, "duration": 9, "velocity": 88}, {"time": 3028, "pitch": 55, "duration": 8, "velocity": 84}, {"time": 3028, "pitch": 60, "duration": 8, "velocity": 86}, {"time": 3028, "pitch": 64, "duration": 8, "velocity": 86}, {"time": 3034, "pitch": 48, "duration": 8, "velocity": 81}, {"time": 3040, "pitch": 55, "duration": 9, "velocity": 85}, {"time": 3040, "pitch": 60, "duration": 9, "velocity": 85}, {"time": 3040, "pitch": 64, "duration": 9, "velocity": 86}, {"time": 3046, "pitch": 48, "duration": 8, "velocity": 89}, {"time": 3052, "pitch": 55, "duration": 9, "velocity": 85}, {"time": 3052, "pitch": 60, "duration": 9, "velocity": 85}, {"time": 3052, "pitch": 64, "duration": 9, "velocity": 86}, {"time": 3058, "pitch": 48, "duration": 10, "velocity": 89}, {"time": 3064, "pitch": 55, "duration": 6, "velocity": 85}, {"time": 3064, "pitch": 60, "duration": 6, "velocity": 86}, {"time": 3064, "pitch": 64, "duration": 6, "velocity": 87}, {"time": 3070, "pitch": 41, "duration": 9, "velocity": 87}, {"time": 3076, "pitch": 53, "duration": 8, "velocity": 85}, {"time": 3076, "pitch": 57, "duration": 8, "velocity": 86}, {"time": 3076, "pitch": 60, "duration": 8, "velocity": 87}, {"time": 3082, "pitch": 41, "duration": 8, "velocity": 87}, {"time": 3088, "pitch": 53, "duration": 5, "velocity": 86}, {"time": 3088, "pitch": 57, "duration": 5, "velocity": 89}, {"time": 3088, "pitch": 60, "duration": 6, "velocity": 86}, {"time": 3094, "pitch": 50, "duration": 8, "velocity": 91}, {"time": 3100, "pitch": 57, "duration": 9, "velocity": 80}, {"time": 3100, "pitch": 62, "duration": 9, "velocity": 85}, {"time": 3100, "pitch": 65, "duration": 9, "velocity": 85}, {"time": 3106, "pitch": 50, "duration": 8, "velocity": 87}, {"time": 3112, "pitch": 57, "duration": 6, "velocity": 85}, {"time": 3112, "pitch": 62, "duration": 5, "velocity": 81}, {"time": 3112, "pitch": 65, "duration": 6, "velocity": 84}, {"time": 3118, "pitch": 48, "duration": 8, "velocity": 87}, {"time": 3124, "pitch": 55, "duration": 7, "velocity": 82}, {"time": 3124, "pitch": 60, "duration": 7, "velocity": 85}, {"time": 3124, "pitch": 64, "duration": 7, "velocity": 86}, {"time": 3130, "pitch": 48, "duration": 8, "velocity": 86}, {"time": 3136, "pitch": 55, "duration": 9, "velocity": 82}, {"time": 3136, "pitch": 60, "duration": 9, "velocity": 79}, {"time": 3136, "pitch": 64, "duration": 9, "velocity": 84}, {"time": 3142, "pitch": 48, "duration": 8, "velocity": 85}, {"time": 3148, "pitch": 55, "duration": 10, "velocity": 85}, {"time": 3148, "pitch": 60, "duration": 10, "velocity": 85}, {"time": 3148, "pitch": 64, "duration": 10, "velocity": 86}, {"time": 3154, "pitch": 48, "duration": 12, "velocity": 90}, {"time": 3160, "pitch": 55, "duration": 5, "velocity": 85}, {"time": 3160, "pitch": 60, "duration": 5, "velocity": 85}, {"time": 3160, "pitch": 64, "duration": 5, "velocity": 86}, {"time": 3166, "pitch": 41, "duration": 8, "velocity": 85}, {"time": 3172, "pitch": 53, "duration": 8, "velocity": 86}, {"time": 3172, "pitch": 57, "duration": 8, "velocity": 85}, {"time": 3172, "pitch": 60, "duration": 8, "velocity": 90}, {"time": 3178, "pitch": 41, "duration": 7, "velocity": 84}, {"time": 3184, "pitch": 53, "duration": 6, "velocity": 85}, {"time": 3184, "pitch": 57, "duration": 7, "velocity": 87}, {"time": 3184, "pitch": 60, "duration": 7, "velocity": 86}, {"time": 3190, "pitch": 50, "duration": 8, "velocity": 91}, {"time": 3196, "pitch": 57, "duration": 8, "velocity": 79}, {"time": 3196, "pitch": 62, "duration": 8, "velocity": 85}, {"time": 3196, "pitch": 65, "duration": 9, "velocity": 85}, {"time": 3202, "pitch": 50, "duration": 8, "velocity": 90}, {"time": 3208, "pitch": 57, "duration": 7, "velocity": 84}, {"time": 3208, "pitch": 62, "duration": 7, "velocity": 85}, {"time": 3208, "pitch": 65, "duration": 6, "velocity": 86}, {"time": 3214, "pitch": 48, "duration": 8, "velocity": 93}, {"time": 3220, "pitch": 55, "duration": 7, "velocity": 87}, {"time": 3220, "pitch": 60, "duration": 7, "velocity": 90}, {"time": 3220, "pitch": 64, "duration": 7, "velocity": 91}, {"time": 3226, "pitch": 48, "duration": 8, "velocity": 88}, {"time": 3232, "pitch": 55, "duration": 9, "velocity": 86}, {"time": 3232, "pitch": 60, "duration": 9, "velocity": 88}, {"time": 3232, "pitch": 64, "duration": 9, "velocity": 85}, {"time": 3238, "pitch": 48, "duration": 9, "velocity": 77}, {"time": 3244, "pitch": 55, "duration": 10, "velocity": 86}, {"time": 3244, "pitch": 60, "duration": 9, "velocity": 88}, {"time": 3244, "pitch": 64, "duration": 9, "velocity": 88}, {"time": 3250, "pitch": 48, "duration": 10, "velocity": 90}, {"time": 3256, "pitch": 55, "duration": 5, "velocity": 85}, {"time": 3256, "pitch": 60, "duration": 5, "velocity": 88}, {"time": 3256, "pitch": 64, "duration": 5, "velocity": 86}, {"time": 3262, "pitch": 41, "duration": 9, "velocity": 85}, {"time": 3268, "pitch": 53, "duration": 9, "velocity": 84}, {"time": 3268, "pitch": 57, "duration": 9, "velocity": 85}, {"time": 3268, "pitch": 60, "duration": 9, "velocity": 85}, {"time": 3274, "pitch": 41, "duration": 9, "velocity": 86}, {"time": 3280, "pitch": 53, "duration": 10, "velocity": 82}, {"time": 3280, "pitch": 57, "duration": 10, "velocity": 84}, {"time": 3280, "pitch": 60, "duration": 9, "velocity": 84}, {"time": 3286, "pitch": 41, "duration": 9, "velocity": 84}, {"time": 3292, "pitch": 53, "duration": 9, "velocity": 84}, {"time": 3292, "pitch": 57, "duration": 9, "velocity": 86}, {"time": 3292, "pitch": 60, "duration": 9, "velocity": 86}, {"time": 3298, "pitch": 41, "duration": 10, "velocity": 85}, {"time": 3304, "pitch": 53, "duration": 6, "velocity": 83}, {"time": 3304, "pitch": 57, "duration": 6, "velocity": 85}, {"time": 3304, "pitch": 60, "duration": 7, "velocity": 86}, {"time": 3310, "pitch": 48, "duration": 9, "velocity": 90}, {"time": 3316, "pitch": 55, "duration": 10, "velocity": 84}, {"time": 3316, "pitch": 60, "duration": 10, "velocity": 89}, {"time": 3316, "pitch": 64, "duration": 10, "velocity": 89}, {"time": 3322, "pitch": 48, "duration": 9, "velocity": 93}, {"time": 3328, "pitch": 55, "duration": 10, "velocity": 84}, {"time": 3328, "pitch": 60, "duration": 10, "velocity": 87}, {"time": 3328, "pitch": 64, "duration": 10, "velocity": 89}, {"time": 3334, "pitch": 48, "duration": 9, "velocity": 83}, {"time": 3340, "pitch": 55, "duration": 10, "velocity": 84}, {"time": 3340, "pitch": 60, "duration": 10, "velocity": 89}, {"time": 3340, "pitch": 64, "duration": 10, "velocity": 90}, {"time": 3346, "pitch": 48, "duration": 10, "velocity": 85}, {"time": 3352, "pitch": 55, "duration": 7, "velocity": 84}, {"time": 3352, "pitch": 60, "duration": 6, "velocity": 85}, {"time": 3352, "pitch": 64, "duration": 7, "velocity": 89}, {"time": 3358, "pitch": 50, "duration": 9, "velocity": 85}, {"time": 3364, "pitch": 57, "duration": 11, "velocity": 82}, {"time": 3364, "pitch": 62, "duration": 10, "velocity": 86}, {"time": 3364, "pitch": 65, "duration": 11, "velocity": 86}, {"time": 3370, "pitch": 50, "duration": 8, "velocity": 95}, {"time": 3376, "pitch": 57, "duration": 9, "velocity": 85}, {"time": 3376, "pitch": 62, "duration": 9, "velocity": 86}, {"time": 3376, "pitch": 65, "duration": 9, "velocity": 86}, {"time": 3382, "pitch": 50, "duration": 8, "velocity": 91}, {"time": 3388, "pitch": 57, "duration": 10, "velocity": 84}, {"time": 3388, "pitch": 62, "duration": 10, "velocity": 89}, {"time": 3388, "pitch": 65, "duration": 10, "velocity": 85}, {"time": 3394, "pitch": 50, "duration": 9, "velocity": 91}, {"time": 3400, "pitch": 57, "duration": 7, "velocity": 85}, {"time": 3400, "pitch": 62, "duration": 5, "velocity": 87}, {"time": 3400, "pitch": 65, "duration": 10, "velocity": 85}, {"time": 3406, "pitch": 48, "duration": 7, "velocity": 93}, {"time": 3412, "pitch": 55, "duration": 10, "velocity": 87}, {"time": 3412, "pitch": 60, "duration": 10, "velocity": 86}, {"time": 3412, "pitch": 64, "duration": 10, "velocity": 89}, {"time": 3418, "pitch": 48, "duration": 9, "velocity": 93}, {"time": 3424, "pitch": 55, "duration": 9, "velocity": 85}, {"time": 3424, "pitch": 60, "duration": 9, "velocity": 86}, {"time": 3424, "pitch": 64, "duration": 9, "velocity": 86}, {"time": 3430, "pitch": 48, "duration": 8, "velocity": 86}, {"time": 3436, "pitch": 55, "duration": 10, "velocity": 85}, {"time": 3436, "pitch": 60, "duration": 10, "velocity": 86}, {"time": 3436, "pitch": 64, "duration": 10, "velocity": 87}, {"time": 3442, "pitch": 48, "duration": 9, "velocity": 93}, {"time": 3448, "pitch": 55, "duration": 9, "velocity": 86}, {"time": 3448, "pitch": 60, "duration": 9, "velocity": 85}, {"time": 3448, "pitch": 64, "duration": 9, "velocity": 85}, {"time": 3454, "pitch": 48, "duration": 9, "velocity": 93}, {"time": 3460, "pitch": 55, "duration": 9, "velocity": 86}, {"time": 3460, "pitch": 60, "duration": 9, "velocity": 86}, {"time": 3460, "pitch": 64, "duration": 9, "velocity": 86}, {"time": 3466, "pitch": 48, "duration": 9, "velocity": 89}, {"time": 3472, "pitch": 55, "duration": 4, "velocity": 85}, {"time": 3472, "pitch": 60, "duration": 4, "velocity": 86}, {"time": 3472, "pitch": 64, "duration": 4, "velocity": 85}, {"time": 3478, "pitch": 48, "duration": 23, "velocity": 95}, {"time": 3478, "pitch": 55, "duration": 22, "velocity": 85}, {"time": 3478, "pitch": 60, "duration": 23, "velocity": 86}, {"time": 3478, "pitch": 64, "duration": 23, "velocity": 87}, {"time": 3502, "pitch": 41, "duration": 9, "velocity": 86}, {"time": 3508, "pitch": 53, "duration": 7, "velocity": 84}, {"time": 3508, "pitch": 57, "duration": 7, "velocity": 84}, {"time": 3508, "pitch": 60, "duration": 7, "velocity": 85}, {"time": 3514, "pitch": 41, "duration": 8, "velocity": 85}, {"time": 3520, "pitch": 53, "duration": 5, "velocity": 84}, {"time": 3520, "pitch": 57, "duration": 5, "velocity": 84}, {"time": 3520, "pitch": 60, "duration": 5, "velocity": 85}, {"time": 3526, "pitch": 41, "duration": 8, "velocity": 83}, {"time": 3532, "pitch": 53, "duration": 8, "velocity": 86}, {"time": 3532, "pitch": 57, "duration": 8, "velocity": 87}, {"time": 3532, "pitch": 60, "duration": 8, "velocity": 87}, {"time": 3538, "pitch": 41, "duration": 9, "velocity": 84}, {"time": 3544, "pitch": 53, "duration": 5, "velocity": 81}, {"time": 3544, "pitch": 57, "duration": 5, "velocity": 85}, {"time": 3544, "pitch": 60, "duration": 6, "velocity": 81}, {"time": 3550, "pitch": 48, "duration": 8, "velocity": 87}, {"time": 3556, "pitch": 55, "duration": 7, "velocity": 79}, {"time": 3556, "pitch": 60, "duration": 7, "velocity": 85}, {"time": 3556, "pitch": 64, "duration": 7, "velocity": 85}, {"time": 3562, "pitch": 48, "duration": 7, "velocity": 84}, {"time": 3568, "pitch": 55, "duration": 4, "velocity": 84}, {"time": 3568, "pitch": 60, "duration": 4, "velocity": 86}, {"time": 3568, "pitch": 64, "duration": 5, "velocity": 86}, {"time": 3574, "pitch": 48, "duration": 8, "velocity": 79}, {"time": 3580, "pitch": 55, "duration": 8, "velocity": 86}, {"time": 3580, "pitch": 60, "duration": 8, "velocity": 87}, {"time": 3580, "pitch": 64, "duration": 8, "velocity": 87}, {"time": 3586, "pitch": 48, "duration": 9, "velocity": 85}, {"time": 3592, "pitch": 55, "duration": 6, "velocity": 84}, {"time": 3592, "pitch": 60, "duration": 4, "velocity": 86}, {"time": 3592, "pitch": 64, "duration": 11, "velocity": 87}, {"time": 3598, "pitch": 41, "duration": 8, "velocity": 84}, {"time": 3604, "pitch": 53, "duration": 9, "velocity": 80}, {"time": 3604, "pitch": 57, "duration": 9, "velocity": 80}, {"time": 3604, "pitch": 60, "duration": 9, "velocity": 85}, {"time": 3610, "pitch": 41, "duration": 9, "velocity": 85}, {"time": 3616, "pitch": 53, "duration": 5, "velocity": 80}, {"time": 3616, "pitch": 57, "duration": 5, "velocity": 78}, {"time": 3616, "pitch": 60, "duration": 5, "velocity": 82}, {"time": 3622, "pitch": 41, "duration": 9, "velocity": 77}, {"time": 3628, "pitch": 53, "duration": 9, "velocity": 84}, {"time": 3628, "pitch": 57, "duration": 9, "velocity": 84}, {"time": 3628, "pitch": 60, "duration": 9, "velocity": 86}, {"time": 3634, "pitch": 41, "duration": 9, "velocity": 80}, {"time": 3640, "pitch": 53, "duration": 5, "velocity": 82}, {"time": 3640, "pitch": 57, "duration": 6, "velocity": 84}, {"time": 3640, "pitch": 60, "duration": 6, "velocity": 85}, {"time": 3646, "pitch": 48, "duration": 9, "velocity": 82}, {"time": 3652, "pitch": 55, "duration": 10, "velocity": 78}, {"time": 3652, "pitch": 60, "duration": 10, "velocity": 80}, {"time": 3652, "pitch": 64, "duration": 10, "velocity": 85}, {"time": 3658, "pitch": 43, "duration": 10, "velocity": 82}, {"time": 3664, "pitch": 55, "duration": 9, "velocity": 86}, {"time": 3664, "pitch": 60, "duration": 9, "velocity": 87}, {"time": 3664, "pitch": 64, "duration": 9, "velocity": 87}, {"time": 3670, "pitch": 48, "duration": 9, "velocity": 84}, {"time": 3676, "pitch": 55, "duration": 9, "velocity": 83}, {"time": 3676, "pitch": 60, "duration": 9, "velocity": 85}, {"time": 3676, "pitch": 64, "duration": 8, "velocity": 86}, {"time": 3682, "pitch": 48, "duration": 9, "velocity": 83}, {"time": 3688, "pitch": 55, "duration": 7, "velocity": 84}, {"time": 3688, "pitch": 60, "duration": 6, "velocity": 86}, {"time": 3688, "pitch": 64, "duration": 5, "velocity": 77}, {"time": 3694, "pitch": 41, "duration": 8, "velocity": 84}, {"time": 3700, "pitch": 53, "duration": 9, "velocity": 78}, {"time": 3700, "pitch": 57, "duration": 9, "velocity": 73}, {"time": 3700, "pitch": 60, "duration": 8, "velocity": 77}, {"time": 3706, "pitch": 41, "duration": 8, "velocity": 85}, {"time": 3712, "pitch": 53, "duration": 9, "velocity": 81}, {"time": 3712, "pitch": 57, "duration": 9, "velocity": 84}, {"time": 3712, "pitch": 60, "duration": 8, "velocity": 86}, {"time": 3718, "pitch": 41, "duration": 7, "velocity": 89}, {"time": 3724, "pitch": 53, "duration": 7, "velocity": 84}, {"time": 3724, "pitch": 57, "duration": 7, "velocity": 84}, {"time": 3724, "pitch": 60, "duration": 7, "velocity": 85}, {"time": 3730, "pitch": 41, "duration": 7, "velocity": 85}, {"time": 3736, "pitch": 53, "duration": 5, "velocity": 84}, {"time": 3736, "pitch": 57, "duration": 5, "velocity": 84}, {"time": 3736, "pitch": 60, "duration": 6, "velocity": 84}, {"time": 3742, "pitch": 50, "duration": 8, "velocity": 85}, {"time": 3748, "pitch": 57, "duration": 8, "velocity": 83}, {"time": 3748, "pitch": 62, "duration": 8, "velocity": 86}, {"time": 3748, "pitch": 65, "duration": 8, "velocity": 82}, {"time": 3754, "pitch": 50, "duration": 8, "velocity": 74}, {"time": 3760, "pitch": 57, "duration": 8, "velocity": 80}, {"time": 3760, "pitch": 62, "duration": 8, "velocity": 85}, {"time": 3760, "pitch": 65, "duration": 8, "velocity": 84}, {"time": 3766, "pitch": 50, "duration": 8, "velocity": 84}, {"time": 3772, "pitch": 57, "duration": 8, "velocity": 82}, {"time": 3772, "pitch": 62, "duration": 8, "velocity": 85}, {"time": 3772, "pitch": 65, "duration": 9, "velocity": 84}, {"time": 3778, "pitch": 50, "duration": 7, "velocity": 86}, {"time": 3784, "pitch": 57, "duration": 7, "velocity": 85}, {"time": 3784, "pitch": 62, "duration": 6, "velocity": 84}, {"time": 3784, "pitch": 65, "duration": 7, "velocity": 84}, {"time": 3790, "pitch": 43, "duration": 9, "velocity": 84}, {"time": 3796, "pitch": 55, "duration": 9, "velocity": 83}, {"time": 3796, "pitch": 58, "duration": 9, "velocity": 84}, {"time": 3796, "pitch": 62, "duration": 9, "velocity": 84}, {"time": 3802, "pitch": 43, "duration": 8, "velocity": 76}, {"time": 3808, "pitch": 55, "duration": 6, "velocity": 84}, {"time": 3808, "pitch": 58, "duration": 6, "velocity": 86}, {"time": 3808, "pitch": 62, "duration": 8, "velocity": 85}, {"time": 3814, "pitch": 41, "duration": 8, "velocity": 81}, {"time": 3820, "pitch": 53, "duration": 9, "velocity": 85}, {"time": 3820, "pitch": 57, "duration": 9, "velocity": 85}, {"time": 3820, "pitch": 60, "duration": 9, "velocity": 85}, {"time": 3826, "pitch": 41, "duration": 9, "velocity": 84}, {"time": 3832, "pitch": 53, "duration": 7, "velocity": 84}, {"time": 3832, "pitch": 57, "duration": 6, "velocity": 85}, {"time": 3832, "pitch": 60, "duration": 7, "velocity": 89}, {"time": 3838, "pitch": 48, "duration": 9, "velocity": 89}, {"time": 3844, "pitch": 55, "duration": 9, "velocity": 84}, {"time": 3844, "pitch": 60, "duration": 10, "velocity": 90}, {"time": 3844, "pitch": 64, "duration": 10, "velocity": 85}, {"time": 3850, "pitch": 48, "duration": 9, "velocity": 83}, {"time": 3856, "pitch": 55, "duration": 9, "velocity": 84}, {"time": 3856, "pitch": 60, "duration": 9, "velocity": 83}, {"time": 3856, "pitch": 64, "duration": 9, "velocity": 86}, {"time": 3862, "pitch": 48, "duration": 9, "velocity": 83}, {"time": 3868, "pitch": 55, "duration": 4, "velocity": 81}, {"time": 3868, "pitch": 60, "duration": 4, "velocity": 84}, {"time": 3868, "pitch": 64, "duration": 4, "velocity": 86}, {"time": 3874, "pitch": 48, "duration": 12, "velocity": 91}, {"time": 3874, "pitch": 55, "duration": 12, "velocity": 85}, {"time": 3874, "pitch": 60, "duration": 12, "velocity": 91}, {"time": 3874, "pitch": 64, "duration": 12, "velocity": 91}, {"time": 3886, "pitch": 41, "duration": 9, "velocity": 86}, {"time": 3892, "pitch": 53, "duration": 7, "velocity": 84}, {"time": 3892, "pitch": 57, "duration": 7, "velocity": 84}, {"time": 3892, "pitch": 60, "duration": 7, "velocity": 85}, {"time": 3898, "pitch": 41, "duration": 8, "velocity": 85}, {"time": 3904, "pitch": 53, "duration": 5, "velocity": 84}, {"time": 3904, "pitch": 57, "duration": 5, "velocity": 84}, {"time": 3904, "pitch": 60, "duration": 5, "velocity": 85}, {"time": 3910, "pitch": 41, "duration": 8, "velocity": 83}, {"time": 3916, "pitch": 53, "duration": 8, "velocity": 86}, {"time": 3916, "pitch": 57, "duration": 8, "velocity": 87}, {"time": 3916, "pitch": 60, "duration": 8, "velocity": 87}, {"time": 3922, "pitch": 41, "duration": 9, "velocity": 84}, {"time": 3928, "pitch": 53, "duration": 5, "velocity": 81}, {"time": 3928, "pitch": 57, "duration": 5, "velocity": 85}, {"time": 3928, "pitch": 60, "duration": 6, "velocity": 81}, {"time": 3934, "pitch": 48, "duration": 8, "velocity": 87}, {"time": 3940, "pitch": 55, "duration": 7, "velocity": 79}, {"time": 3940, "pitch": 60, "duration": 7, "velocity": 85}, {"time": 3940, "pitch": 64, "duration": 7, "velocity": 85}, {"time": 3946, "pitch": 48, "duration": 7, "velocity": 84}, {"time": 3952, "pitch": 55, "duration": 4, "velocity": 84}, {"time": 3952, "pitch": 60, "duration": 4, "velocity": 86}, {"time": 3952, "pitch": 64, "duration": 5, "velocity": 86}, {"time": 3958, "pitch": 48, "duration": 8, "velocity": 79}, {"time": 3964, "pitch": 55, "duration": 8, "velocity": 86}, {"time": 3964, "pitch": 60, "duration": 8, "velocity": 87}, {"time": 3964, "pitch": 64, "duration": 8, "velocity": 87}, {"time": 3970, "pitch": 48, "duration": 9, "velocity": 85}, {"time": 3976, "pitch": 55, "duration": 6, "velocity": 84}, {"time": 3976, "pitch": 60, "duration": 4, "velocity": 86}, {"time": 3976, "pitch": 64, "duration": 11, "velocity": 87}, {"time": 3982, "pitch": 41, "duration": 8, "velocity": 84}, {"time": 3988, "pitch": 53, "duration": 9, "velocity": 80}, {"time": 3988, "pitch": 57, "duration": 9, "velocity": 80}, {"time": 3988, "pitch": 60, "duration": 9, "velocity": 85}, {"time": 3994, "pitch": 41, "duration": 9, "velocity": 85}, {"time": 4000, "pitch": 53, "duration": 5, "velocity": 80}, {"time": 4000, "pitch": 57, "duration": 5, "velocity": 78}, {"time": 4000, "pitch": 60, "duration": 5, "velocity": 82}, {"time": 4006, "pitch": 41, "duration": 9, "velocity": 77}, {"time": 4012, "pitch": 53, "duration": 9, "velocity": 84}, {"time": 4012, "pitch": 57, "duration": 9, "velocity": 84}, {"time": 4012, "pitch": 60, "duration": 9, "velocity": 86}, {"time": 4018, "pitch": 41, "duration": 9, "velocity": 80}, {"time": 4024, "pitch": 53, "duration": 5, "velocity": 82}, {"time": 4024, "pitch": 57, "duration": 6, "velocity": 84}, {"time": 4024, "pitch": 60, "duration": 6, "velocity": 85}, {"time": 4030, "pitch": 48, "duration": 9, "velocity": 82}, {"time": 4036, "pitch": 55, "duration": 10, "velocity": 78}, {"time": 4036, "pitch": 60, "duration": 10, "velocity": 80}, {"time": 4036, "pitch": 64, "duration": 10, "velocity": 85}, {"time": 4042, "pitch": 43, "duration": 10, "velocity": 82}, {"time": 4048, "pitch": 55, "duration": 9, "velocity": 86}, {"time": 4048, "pitch": 60, "duration": 9, "velocity": 87}, {"time": 4048, "pitch": 64, "duration": 9, "velocity": 87}, {"time": 4054, "pitch": 48, "duration": 9, "velocity": 84}, {"time": 4060, "pitch": 55, "duration": 9, "velocity": 83}, {"time": 4060, "pitch": 60, "duration": 9, "velocity": 85}, {"time": 4060, "pitch": 64, "duration": 8, "velocity": 86}, {"time": 4066, "pitch": 48, "duration": 9, "velocity": 83}, {"time": 4072, "pitch": 55, "duration": 7, "velocity": 84}, {"time": 4072, "pitch": 60, "duration": 6, "velocity": 86}, {"time": 4072, "pitch": 64, "duration": 5, "velocity": 77}, {"time": 4078, "pitch": 41, "duration": 8, "velocity": 84}, {"time": 4084, "pitch": 53, "duration": 9, "velocity": 78}, {"time": 4084, "pitch": 57, "duration": 9, "velocity": 73}, {"time": 4084, "pitch": 60, "duration": 8, "velocity": 77}, {"time": 4090, "pitch": 41, "duration": 8, "velocity": 85}, {"time": 4096, "pitch": 53, "duration": 9, "velocity": 81}, {"time": 4096, "pitch": 57, "duration": 9, "velocity": 84}, {"time": 4096, "pitch": 60, "duration": 8, "velocity": 86}, {"time": 4102, "pitch": 41, "duration": 7, "velocity": 89}, {"time": 4108, "pitch": 53, "duration": 7, "velocity": 84}, {"time": 4108, "pitch": 57, "duration": 7, "velocity": 84}, {"time": 4108, "pitch": 60, "duration": 7, "velocity": 85}, {"time": 4114, "pitch": 41, "duration": 7, "velocity": 85}, {"time": 4120, "pitch": 53, "duration": 5, "velocity": 84}, {"time": 4120, "pitch": 57, "duration": 5, "velocity": 84}, {"time": 4120, "pitch": 60, "duration": 6, "velocity": 84}, {"time": 4126, "pitch": 50, "duration": 8, "velocity": 85}, {"time": 4132, "pitch": 57, "duration": 8, "velocity": 83}, {"time": 4132, "pitch": 62, "duration": 8, "velocity": 86}, {"time": 4132, "pitch": 65, "duration": 8, "velocity": 82}, {"time": 4138, "pitch": 50, "duration": 8, "velocity": 74}, {"time": 4144, "pitch": 57, "duration": 8, "velocity": 80}, {"time": 4144, "pitch": 62, "duration": 8, "velocity": 85}, {"time": 4144, "pitch": 65, "duration": 8, "velocity": 84}, {"time": 4150, "pitch": 50, "duration": 8, "velocity": 84}, {"time": 4156, "pitch": 57, "duration": 8, "velocity": 82}, {"time": 4156, "pitch": 62, "duration": 8, "velocity": 85}, {"time": 4156, "pitch": 65, "duration": 9, "velocity": 84}, {"time": 4162, "pitch": 50, "duration": 7, "velocity": 86}, {"time": 4168, "pitch": 57, "duration": 7, "velocity": 85}, {"time": 4168, "pitch": 62, "duration": 6, "velocity": 84}, {"time": 4168, "pitch": 65, "duration": 7, "velocity": 84}, {"time": 4174, "pitch": 43, "duration": 9, "velocity": 84}, {"time": 4180, "pitch": 55, "duration": 9, "velocity": 83}, {"time": 4180, "pitch": 58, "duration": 9, "velocity": 84}, {"time": 4180, "pitch": 62, "duration": 9, "velocity": 84}, {"time": 4186, "pitch": 43, "duration": 8, "velocity": 76}, {"time": 4192, "pitch": 55, "duration": 6, "velocity": 84}, {"time": 4192, "pitch": 58, "duration": 6, "velocity": 86}, {"time": 4192, "pitch": 62, "duration": 8, "velocity": 85}, {"time": 4198, "pitch": 41, "duration": 9, "velocity": 85}, {"time": 4204, "pitch": 53, "duration": 7, "velocity": 82}, {"time": 4204, "pitch": 57, "duration": 7, "velocity": 84}, {"time": 4204, "pitch": 60, "duration": 7, "velocity": 85}, {"time": 4210, "pitch": 36, "duration": 8, "velocity": 86}, {"time": 4216, "pitch": 48, "duration": 6, "velocity": 84}, {"time": 4216, "pitch": 52, "duration": 7, "velocity": 84}, {"time": 4216, "pitch": 55, "duration": 7, "velocity": 85}, {"time": 4222, "pitch": 41, "duration": 9, "velocity": 86}, {"time": 4228, "pitch": 53, "duration": 10, "velocity": 84}, {"time": 4228, "pitch": 57, "duration": 10, "velocity": 85}, {"time": 4228, "pitch": 60, "duration": 10, "velocity": 87}, {"time": 4234, "pitch": 41, "duration": 9, "velocity": 84}, {"time": 4240, "pitch": 53, "duration": 10, "velocity": 80}, {"time": 4240, "pitch": 57, "duration": 10, "velocity": 83}, {"time": 4240, "pitch": 60, "duration": 10, "velocity": 86}, {"time": 4246, "pitch": 41, "duration": 10, "velocity": 84}, {"time": 4252, "pitch": 53, "duration": 10, "velocity": 83}, {"time": 4252, "pitch": 57, "duration": 10, "velocity": 81}, {"time": 4252, "pitch": 60, "duration": 10, "velocity": 85}, {"time": 4258, "pitch": 41, "duration": 9, "velocity": 86}, {"time": 4264, "pitch": 53, "duration": 5, "velocity": 85}, {"time": 4264, "pitch": 57, "duration": 5, "velocity": 88}, {"time": 4264, "pitch": 60, "duration": 5, "velocity": 86}, {"time": 4270, "pitch": 50, "duration": 8, "velocity": 95}, {"time": 4276, "pitch": 57, "duration": 9, "velocity": 84}, {"time": 4276, "pitch": 62, "duration": 9, "velocity": 85}, {"time": 4276, "pitch": 65, "duration": 9, "velocity": 86}, {"time": 4282, "pitch": 50, "duration": 8, "velocity": 93}, {"time": 4288, "pitch": 57, "duration": 9, "velocity": 83}, {"time": 4288, "pitch": 62, "duration": 8, "velocity": 89}, {"time": 4288, "pitch": 65, "duration": 9, "velocity": 85}, {"time": 4294, "pitch": 50, "duration": 9, "velocity": 88}, {"time": 4300, "pitch": 57, "duration": 6, "velocity": 85}, {"time": 4300, "pitch": 62, "duration": 5, "velocity": 89}, {"time": 4300, "pitch": 65, "duration": 6, "velocity": 86}, {"time": 4306, "pitch": 48, "duration": 8, "velocity": 87}, {"time": 4312, "pitch": 55, "duration": 7, "velocity": 86}, {"time": 4312, "pitch": 60, "duration": 7, "velocity": 88}, {"time": 4312, "pitch": 64, "duration": 7, "velocity": 90}, {"time": 4318, "pitch": 50, "duration": 8, "velocity": 93}, {"time": 4324, "pitch": 57, "duration": 10, "velocity": 84}, {"time": 4324, "pitch": 62, "duration": 10, "velocity": 85}, {"time": 4324, "pitch": 65, "duration": 9, "velocity": 86}, {"time": 4330, "pitch": 50, "duration": 9, "velocity": 93}, {"time": 4336, "pitch": 57, "duration": 7, "velocity": 85}, {"time": 4336, "pitch": 62, "duration": 6, "velocity": 88}, {"time": 4336, "pitch": 65, "duration": 6, "velocity": 86}, {"time": 4342, "pitch": 48, "duration": 8, "velocity": 91}, {"time": 4348, "pitch": 55, "duration": 10, "velocity": 86}, {"time": 4348, "pitch": 60, "duration": 10, "velocity": 88}, {"time": 4348, "pitch": 64, "duration": 10, "velocity": 90}, {"time": 4354, "pitch": 48, "duration": 10, "velocity": 93}, {"time": 4360, "pitch": 55, "duration": 5, "velocity": 86}, {"time": 4360, "pitch": 60, "duration": 6, "velocity": 87}, {"time": 4360, "pitch": 64, "duration": 5, "velocity": 90}, {"time": 4366, "pitch": 50, "duration": 8, "velocity": 91}, {"time": 4372, "pitch": 57, "duration": 9, "velocity": 84}, {"time": 4372, "pitch": 62, "duration": 10, "velocity": 86}, {"time": 4372, "pitch": 65, "duration": 10, "velocity": 84}, {"time": 4378, "pitch": 50, "duration": 8, "velocity": 91}, {"time": 4384, "pitch": 57, "duration": 9, "velocity": 86}, {"time": 4384, "pitch": 62, "duration": 9, "velocity": 90}, {"time": 4384, "pitch": 65, "duration": 9, "velocity": 87}, {"time": 4390, "pitch": 50, "duration": 8, "velocity": 89}, {"time": 4396, "pitch": 57, "duration": 9, "velocity": 85}, {"time": 4396, "pitch": 62, "duration": 9, "velocity": 87}, {"time": 4396, "pitch": 65, "duration": 9, "velocity": 87}, {"time": 4402, "pitch": 50, "duration": 8, "velocity": 89}, {"time": 4408, "pitch": 57, "duration": 7, "velocity": 84}, {"time": 4408, "pitch": 62, "duration": 6, "velocity": 86}, {"time": 4408, "pitch": 65, "duration": 6, "velocity": 85}, {"time": 4414, "pitch": 43, "duration": 9, "velocity": 86}, {"time": 4420, "pitch": 55, "duration": 9, "velocity": 85}, {"time": 4420, "pitch": 58, "duration": 10, "velocity": 88}, {"time": 4420, "pitch": 62, "duration": 10, "velocity": 87}, {"time": 4426, "pitch": 43, "duration": 10, "velocity": 84}, {"time": 4432, "pitch": 55, "duration": 6, "velocity": 85}, {"time": 4432, "pitch": 58, "duration": 6, "velocity": 88}, {"time": 4432, "pitch": 62, "duration": 7, "velocity": 86}, {"time": 4438, "pitch": 48, "duration": 9, "velocity": 88}, {"time": 4444, "pitch": 55, "duration": 9, "velocity": 81}, {"time": 4444, "pitch": 60, "duration": 9, "velocity": 85}, {"time": 4444, "pitch": 64, "duration": 9, "velocity": 88}, {"time": 4450, "pitch": 48, "duration": 11, "velocity": 87}, {"time": 4456, "pitch": 55, "duration": 5, "velocity": 88}, {"time": 4456, "pitch": 60, "duration": 5, "velocity": 91}, {"time": 4456, "pitch": 64, "duration": 6, "velocity": 93}, {"time": 4462, "pitch": 50, "duration": 8, "velocity": 95}, {"time": 4468, "pitch": 57, "duration": 9, "velocity": 84}, {"time": 4468, "pitch": 62, "duration": 9, "velocity": 85}, {"time": 4468, "pitch": 65, "duration": 9, "velocity": 86}, {"time": 4474, "pitch": 50, "duration": 8, "velocity": 93}, {"time": 4480, "pitch": 57, "duration": 9, "velocity": 83}, {"time": 4480, "pitch": 62, "duration": 8, "velocity": 89}, {"time": 4480, "pitch": 65, "duration": 9, "velocity": 85}, {"time": 4486, "pitch": 50, "duration": 9, "velocity": 88}, {"time": 4492, "pitch": 57, "duration": 6, "velocity": 85}, {"time": 4492, "pitch": 62, "duration": 5, "velocity": 89}, {"time": 4492, "pitch": 65, "duration": 6, "velocity": 86}, {"time": 4498, "pitch": 48, "duration": 8, "velocity": 87}, {"time": 4504, "pitch": 55, "duration": 7, "velocity": 86}, {"time": 4504, "pitch": 60, "duration": 7, "velocity": 88}, {"time": 4504, "pitch": 64, "duration": 7, "velocity": 90}, {"time": 4510, "pitch": 50, "duration": 8, "velocity": 93}, {"time": 4516, "pitch": 57, "duration": 10, "velocity": 84}, {"time": 4516, "pitch": 62, "duration": 10, "velocity": 85}, {"time": 4516, "pitch": 65, "duration": 9, "velocity": 86}, {"time": 4522, "pitch": 50, "duration": 9, "velocity": 93}, {"time": 4528, "pitch": 57, "duration": 7, "velocity": 85}, {"time": 4528, "pitch": 62, "duration": 6, "velocity": 88}, {"time": 4528, "pitch": 65, "duration": 6, "velocity": 86}, {"time": 4534, "pitch": 48, "duration": 8, "velocity": 91}, {"time": 4540, "pitch": 55, "duration": 10, "velocity": 86}, {"time": 4540, "pitch": 60, "duration": 10, "velocity": 88}, {"time": 4540, "pitch": 64, "duration": 10, "velocity": 90}, {"time": 4546, "pitch": 48, "duration": 10, "velocity": 93}, {"time": 4552, "pitch": 55, "duration": 5, "velocity": 86}, {"time": 4552, "pitch": 60, "duration": 6, "velocity": 87}, {"time": 4552, "pitch": 64, "duration": 5, "velocity": 90}, {"time": 4558, "pitch": 50, "duration": 8, "velocity": 91}, {"time": 4564, "pitch": 57, "duration": 9, "velocity": 84}, {"time": 4564, "pitch": 62, "duration": 10, "velocity": 86}, {"time": 4564, "pitch": 65, "duration": 10, "velocity": 84}, {"time": 4570, "pitch": 50, "duration": 8, "velocity": 91}, {"time": 4576, "pitch": 57, "duration": 9, "velocity": 86}, {"time": 4576, "pitch": 62, "duration": 9, "velocity": 90}, {"time": 4576, "pitch": 65, "duration": 9, "velocity": 87}, {"time": 4582, "pitch": 50, "duration": 8, "velocity": 89}, {"time": 4588, "pitch": 57, "duration": 9, "velocity": 85}, {"time": 4588, "pitch": 62, "duration": 9, "velocity": 87}, {"time": 4588, "pitch": 65, "duration": 9, "velocity": 87}, {"time": 4594, "pitch": 50, "duration": 8, "velocity": 89}, {"time": 4600, "pitch": 57, "duration": 7, "velocity": 84}, {"time": 4600, "pitch": 62, "duration": 6, "velocity": 86}, {"time": 4600, "pitch": 65, "duration": 6, "velocity": 85}, {"time": 4606, "pitch": 43, "duration": 9, "velocity": 86}, {"time": 4612, "pitch": 55, "duration": 9, "velocity": 85}, {"time": 4612, "pitch": 58, "duration": 10, "velocity": 88}, {"time": 4612, "pitch": 62, "duration": 10, "velocity": 87}, {"time": 4618, "pitch": 43, "duration": 10, "velocity": 84}, {"time": 4624, "pitch": 55, "duration": 6, "velocity": 85}, {"time": 4624, "pitch": 58, "duration": 6, "velocity": 88}, {"time": 4624, "pitch": 62, "duration": 7, "velocity": 86}, {"time": 4630, "pitch": 48, "duration": 9, "velocity": 88}, {"time": 4636, "pitch": 55, "duration": 9, "velocity": 81}, {"time": 4636, "pitch": 60, "duration": 9, "velocity": 85}, {"time": 4636, "pitch": 64, "duration": 9, "velocity": 88}, {"time": 4642, "pitch": 48, "duration": 11, "velocity": 87}, {"time": 4648, "pitch": 55, "duration": 5, "velocity": 88}, {"time": 4648, "pitch": 60, "duration": 5, "velocity": 91}, {"time": 4648, "pitch": 64, "duration": 6, "velocity": 93}, {"time": 4654, "pitch": 48, "duration": 9, "velocity": 86}, {"time": 4660, "pitch": 55, "duration": 10, "velocity": 85}, {"time": 4660, "pitch": 60, "duration": 10, "velocity": 85}, {"time": 4660, "pitch": 64, "duration": 9, "velocity": 87}, {"time": 4666, "pitch": 48, "duration": 9, "velocity": 87}, {"time": 4672, "pitch": 55, "duration": 7, "velocity": 86}, {"time": 4672, "pitch": 60, "duration": 6, "velocity": 86}, {"time": 4672, "pitch": 64, "duration": 5, "velocity": 86}, {"time": 4678, "pitch": 41, "duration": 8, "velocity": 86}, {"time": 4684, "pitch": 53, "duration": 10, "velocity": 85}, {"time": 4684, "pitch": 57, "duration": 10, "velocity": 84}, {"time": 4684, "pitch": 60, "duration": 10, "velocity": 86}, {"time": 4690, "pitch": 41, "duration": 9, "velocity": 85}, {"time": 4696, "pitch": 53, "duration": 6, "velocity": 87}, {"time": 4696, "pitch": 57, "duration": 6, "velocity": 86}, {"time": 4696, "pitch": 60, "duration": 6, "velocity": 89}, {"time": 4702, "pitch": 48, "duration": 9, "velocity": 91}, {"time": 4708, "pitch": 55, "duration": 9, "velocity": 79}, {"time": 4708, "pitch": 60, "duration": 10, "velocity": 82}, {"time": 4708, "pitch": 64, "duration": 10, "velocity": 82}, {"time": 4714, "pitch": 48, "duration": 9, "velocity": 87}, {"time": 4720, "pitch": 55, "duration": 6, "velocity": 85}, {"time": 4720, "pitch": 60, "duration": 7, "velocity": 85}, {"time": 4720, "pitch": 64, "duration": 7, "velocity": 85}, {"time": 4726, "pitch": 41, "duration": 8, "velocity": 84}, {"time": 4732, "pitch": 57, "duration": 10, "velocity": 80}, {"time": 4732, "pitch": 60, "duration": 10, "velocity": 85}, {"time": 4732, "pitch": 65, "duration": 10, "velocity": 84}, {"time": 4738, "pitch": 41, "duration": 8, "velocity": 84}, {"time": 4744, "pitch": 57, "duration": 6, "velocity": 78}, {"time": 4744, "pitch": 60, "duration": 6, "velocity": 85}, {"time": 4744, "pitch": 65, "duration": 6, "velocity": 84}, {"time": 4750, "pitch": 50, "duration": 8, "velocity": 86}, {"time": 4756, "pitch": 57, "duration": 10, "velocity": 80}, {"time": 4756, "pitch": 62, "duration": 10, "velocity": 84}, {"time": 4756, "pitch": 65, "duration": 10, "velocity": 84}, {"time": 4762, "pitch": 50, "duration": 8, "velocity": 86}, {"time": 4768, "pitch": 57, "duration": 7, "velocity": 83}, {"time": 4768, "pitch": 62, "duration": 7, "velocity": 86}, {"time": 4768, "pitch": 65, "duration": 6, "velocity": 85}, {"time": 4774, "pitch": 48, "duration": 8, "velocity": 90}, {"time": 4780, "pitch": 55, "duration": 8, "velocity": 79}, {"time": 4780, "pitch": 60, "duration": 8, "velocity": 84}, {"time": 4780, "pitch": 64, "duration": 8, "velocity": 85}, {"time": 4786, "pitch": 48, "duration": 10, "velocity": 88}, {"time": 4792, "pitch": 55, "duration": 5, "velocity": 84}, {"time": 4792, "pitch": 60, "duration": 6, "velocity": 85}, {"time": 4792, "pitch": 64, "duration": 5, "velocity": 86}, {"time": 4798, "pitch": 48, "duration": 8, "velocity": 88}, {"time": 4804, "pitch": 55, "duration": 9, "velocity": 84}, {"time": 4804, "pitch": 60, "duration": 9, "velocity": 82}, {"time": 4804, "pitch": 64, "duration": 9, "velocity": 85}, {"time": 4810, "pitch": 48, "duration": 11, "velocity": 87}, {"time": 4816, "pitch": 55, "duration": 6, "velocity": 85}, {"time": 4816, "pitch": 60, "duration": 6, "velocity": 85}, {"time": 4816, "pitch": 64, "duration": 6, "velocity": 85}, {"time": 4822, "pitch": 48, "duration": 7, "velocity": 93}, {"time": 4828, "pitch": 55, "duration": 8, "velocity": 85}, {"time": 4828, "pitch": 60, "duration": 8, "velocity": 85}, {"time": 4828, "pitch": 64, "duration": 8, "velocity": 84}, {"time": 4834, "pitch": 48, "duration": 10, "velocity": 89}, {"time": 4840, "pitch": 55, "duration": 7, "velocity": 86}, {"time": 4840, "pitch": 60, "duration": 7, "velocity": 86}, {"time": 4840, "pitch": 64, "duration": 7, "velocity": 88}, {"time": 4846, "pitch": 48, "duration": 8, "velocity": 86}, {"time": 4852, "pitch": 55, "duration": 9, "velocity": 84}, {"time": 4852, "pitch": 60, "duration": 8, "velocity": 84}, {"time": 4852, "pitch": 64, "duration": 8, "velocity": 88}, {"time": 4858, "pitch": 48, "duration": 9, "velocity": 88}, {"time": 4864, "pitch": 55, "duration": 10, "velocity": 85}, {"time": 4864, "pitch": 60, "duration": 10, "velocity": 86}, {"time": 4864, "pitch": 64, "duration": 10, "velocity": 87}, {"time": 4870, "pitch": 48, "duration": 9, "velocity": 85}, {"time": 4876, "pitch": 55, "duration": 8, "velocity": 85}, {"time": 4876, "pitch": 60, "duration": 8, "velocity": 88}, {"time": 4876, "pitch": 64, "duration": 8, "velocity": 91}, {"time": 4882, "pitch": 48, "duration": 8, "velocity": 91}, {"time": 4888, "pitch": 55, "duration": 7, "velocity": 81}, {"time": 4888, "pitch": 60, "duration": 7, "velocity": 86}, {"time": 4888, "pitch": 64, "duration": 6, "velocity": 86}, {"time": 4894, "pitch": 41, "duration": 9, "velocity": 87}, {"time": 4900, "pitch": 53, "duration": 10, "velocity": 82}, {"time": 4900, "pitch": 57, "duration": 10, "velocity": 86}, {"time": 4900, "pitch": 60, "duration": 10, "velocity": 85}, {"time": 4906, "pitch": 41, "duration": 9, "velocity": 85}, {"time": 4912, "pitch": 53, "duration": 9, "velocity": 84}, {"time": 4912, "pitch": 57, "duration": 8, "velocity": 86}, {"time": 4912, "pitch": 60, "duration": 8, "velocity": 89}, {"time": 4918, "pitch": 41, "duration": 9, "velocity": 85}, {"time": 4924, "pitch": 53, "duration": 10, "velocity": 85}, {"time": 4924, "pitch": 57, "duration": 9, "velocity": 87}, {"time": 4924, "pitch": 60, "duration": 9, "velocity": 86}, {"time": 4930, "pitch": 41, "duration": 10, "velocity": 85}, {"time": 4936, "pitch": 53, "duration": 6, "velocity": 84}, {"time": 4936, "pitch": 57, "duration": 6, "velocity": 84}, {"time": 4936, "pitch": 60, "duration": 6, "velocity": 85}, {"time": 4942, "pitch": 50, "duration": 8, "velocity": 95}, {"time": 4948, "pitch": 57, "duration": 9, "velocity": 84}, {"time": 4948, "pitch": 62, "duration": 9, "velocity": 85}, {"time": 4948, "pitch": 65, "duration": 9, "velocity": 86}, {"time": 4954, "pitch": 50, "duration": 8, "velocity": 93}, {"time": 4960, "pitch": 57, "duration": 9, "velocity": 83}, {"time": 4960, "pitch": 62, "duration": 8, "velocity": 89}, {"time": 4960, "pitch": 65, "duration": 9, "velocity": 85}, {"time": 4966, "pitch": 50, "duration": 9, "velocity": 88}, {"time": 4972, "pitch": 57, "duration": 6, "velocity": 85}, {"time": 4972, "pitch": 62, "duration": 5, "velocity": 89}, {"time": 4972, "pitch": 65, "duration": 6, "velocity": 86}, {"time": 4978, "pitch": 48, "duration": 8, "velocity": 87}, {"time": 4984, "pitch": 55, "duration": 7, "velocity": 86}, {"time": 4984, "pitch": 60, "duration": 7, "velocity": 88}, {"time": 4984, "pitch": 64, "duration": 7, "velocity": 90}, {"time": 4990, "pitch": 50, "duration": 8, "velocity": 93}, {"time": 4996, "pitch": 57, "duration": 10, "velocity": 84}, {"time": 4996, "pitch": 62, "duration": 10, "velocity": 85}, {"time": 4996, "pitch": 65, "duration": 9, "velocity": 86}, {"time": 5002, "pitch": 50, "duration": 9, "velocity": 93}, {"time": 5008, "pitch": 57, "duration": 7, "velocity": 85}, {"time": 5008, "pitch": 62, "duration": 6, "velocity": 88}, {"time": 5008, "pitch": 65, "duration": 6, "velocity": 86}, {"time": 5014, "pitch": 48, "duration": 8, "velocity": 91}, {"time": 5020, "pitch": 55, "duration": 10, "velocity": 86}, {"time": 5020, "pitch": 60, "duration": 10, "velocity": 88}, {"time": 5020, "pitch": 64, "duration": 10, "velocity": 90}, {"time": 5026, "pitch": 48, "duration": 10, "velocity": 93}, {"time": 5032, "pitch": 55, "duration": 5, "velocity": 86}, {"time": 5032, "pitch": 60, "duration": 6, "velocity": 87}, {"time": 5032, "pitch": 64, "duration": 5, "velocity": 90}, {"time": 5038, "pitch": 50, "duration": 8, "velocity": 91}, {"time": 5044, "pitch": 57, "duration": 9, "velocity": 84}, {"time": 5044, "pitch": 62, "duration": 10, "velocity": 86}, {"time": 5044, "pitch": 65, "duration": 10, "velocity": 84}, {"time": 5050, "pitch": 50, "duration": 8, "velocity": 91}, {"time": 5056, "pitch": 57, "duration": 9, "velocity": 86}, {"time": 5056, "pitch": 62, "duration": 9, "velocity": 90}, {"time": 5056, "pitch": 65, "duration": 9, "velocity": 87}, {"time": 5062, "pitch": 50, "duration": 8, "velocity": 89}, {"time": 5068, "pitch": 57, "duration": 9, "velocity": 85}, {"time": 5068, "pitch": 62, "duration": 9, "velocity": 87}, {"time": 5068, "pitch": 65, "duration": 9, "velocity": 87}, {"time": 5074, "pitch": 50, "duration": 8, "velocity": 89}, {"time": 5080, "pitch": 57, "duration": 7, "velocity": 84}, {"time": 5080, "pitch": 62, "duration": 6, "velocity": 86}, {"time": 5080, "pitch": 65, "duration": 6, "velocity": 85}, {"time": 5086, "pitch": 43, "duration": 9, "velocity": 86}, {"time": 5092, "pitch": 55, "duration": 9, "velocity": 85}, {"time": 5092, "pitch": 58, "duration": 10, "velocity": 88}, {"time": 5092, "pitch": 62, "duration": 10, "velocity": 87}, {"time": 5098, "pitch": 43, "duration": 10, "velocity": 84}, {"time": 5104, "pitch": 55, "duration": 6, "velocity": 85}, {"time": 5104, "pitch": 58, "duration": 6, "velocity": 88}, {"time": 5104, "pitch": 62, "duration": 7, "velocity": 86}, {"time": 5110, "pitch": 48, "duration": 9, "velocity": 88}, {"time": 5116, "pitch": 55, "duration": 9, "velocity": 81}, {"time": 5116, "pitch": 60, "duration": 9, "velocity": 85}, {"time": 5116, "pitch": 64, "duration": 9, "velocity": 88}, {"time": 5122, "pitch": 48, "duration": 11, "velocity": 87}, {"time": 5128, "pitch": 55, "duration": 5, "velocity": 88}, {"time": 5128, "pitch": 60, "duration": 5, "velocity": 91}, {"time": 5128, "pitch": 64, "duration": 6, "velocity": 93}, {"time": 5134, "pitch": 50, "duration": 8, "velocity": 95}, {"time": 5140, "pitch": 57, "duration": 9, "velocity": 84}, {"time": 5140, "pitch": 62, "duration": 9, "velocity": 85}, {"time": 5140, "pitch": 65, "duration": 9, "velocity": 86}, {"time": 5146, "pitch": 50, "duration": 8, "velocity": 93}, {"time": 5152, "pitch": 57, "duration": 9, "velocity": 83}, {"time": 5152, "pitch": 62, "duration": 8, "velocity": 89}, {"time": 5152, "pitch": 65, "duration": 9, "velocity": 85}, {"time": 5158, "pitch": 50, "duration": 9, "velocity": 88}, {"time": 5164, "pitch": 57, "duration": 6, "velocity": 85}, {"time": 5164, "pitch": 62, "duration": 5, "velocity": 89}, {"time": 5164, "pitch": 65, "duration": 6, "velocity": 86}, {"time": 5170, "pitch": 48, "duration": 8, "velocity": 87}, {"time": 5176, "pitch": 55, "duration": 7, "velocity": 86}, {"time": 5176, "pitch": 60, "duration": 7, "velocity": 88}, {"time": 5176, "pitch": 64, "duration": 7, "velocity": 90}, {"time": 5182, "pitch": 50, "duration": 8, "velocity": 93}, {"time": 5188, "pitch": 57, "duration": 10, "velocity": 84}, {"time": 5188, "pitch": 62, "duration": 10, "velocity": 85}, {"time": 5188, "pitch": 65, "duration": 9, "velocity": 86}, {"time": 5194, "pitch": 50, "duration": 9, "velocity": 93}, {"time": 5200, "pitch": 57, "duration": 7, "velocity": 85}, {"time": 5200, "pitch": 62, "duration": 6, "velocity": 88}, {"time": 5200, "pitch": 65, "duration": 6, "velocity": 86}, {"time": 5206, "pitch": 48, "duration": 8, "velocity": 91}, {"time": 5212, "pitch": 55, "duration": 10, "velocity": 86}, {"time": 5212, "pitch": 60, "duration": 10, "velocity": 88}, {"time": 5212, "pitch": 64, "duration": 10, "velocity": 90}, {"time": 5218, "pitch": 48, "duration": 10, "velocity": 93}, {"time": 5224, "pitch": 55, "duration": 5, "velocity": 86}, {"time": 5224, "pitch": 60, "duration": 6, "velocity": 87}, {"time": 5224, "pitch": 64, "duration": 5, "velocity": 90}, {"time": 5230, "pitch": 50, "duration": 8, "velocity": 91}, {"time": 5236, "pitch": 57, "duration": 9, "velocity": 84}, {"time": 5236, "pitch": 62, "duration": 10, "velocity": 86}, {"time": 5236, "pitch": 65, "duration": 10, "velocity": 84}, {"time": 5242, "pitch": 50, "duration": 8, "velocity": 91}, {"time": 5248, "pitch": 57, "duration": 9, "velocity": 86}, {"time": 5248, "pitch": 62, "duration": 9, "velocity": 90}, {"time": 5248, "pitch": 65, "duration": 9, "velocity": 87}, {"time": 5254, "pitch": 50, "duration": 8, "velocity": 89}, {"time": 5260, "pitch": 57, "duration": 9, "velocity": 85}, {"time": 5260, "pitch": 62, "duration": 9, "velocity": 87}, {"time": 5260, "pitch": 65, "duration": 9, "velocity": 87}, {"time": 5266, "pitch": 50, "duration": 8, "velocity": 89}, {"time": 5272, "pitch": 57, "duration": 7, "velocity": 84}, {"time": 5272, "pitch": 62, "duration": 6, "velocity": 86}, {"time": 5272, "pitch": 65, "duration": 6, "velocity": 85}, {"time": 5278, "pitch": 43, "duration": 9, "velocity": 86}, {"time": 5284, "pitch": 55, "duration": 9, "velocity": 85}, {"time": 5284, "pitch": 58, "duration": 10, "velocity": 88}, {"time": 5284, "pitch": 62, "duration": 10, "velocity": 87}, {"time": 5290, "pitch": 43, "duration": 10, "velocity": 84}, {"time": 5296, "pitch": 55, "duration": 6, "velocity": 85}, {"time": 5296, "pitch": 58, "duration": 6, "velocity": 88}, {"time": 5296, "pitch": 62, "duration": 7, "velocity": 86}, {"time": 5302, "pitch": 48, "duration": 9, "velocity": 88}, {"time": 5308, "pitch": 55, "duration": 9, "velocity": 81}, {"time": 5308, "pitch": 60, "duration": 9, "velocity": 85}, {"time": 5308, "pitch": 64, "duration": 9, "velocity": 88}, {"time": 5314, "pitch": 48, "duration": 11, "velocity": 87}, {"time": 5320, "pitch": 55, "duration": 5, "velocity": 88}, {"time": 5320, "pitch": 60, "duration": 5, "velocity": 91}, {"time": 5320, "pitch": 64, "duration": 6, "velocity": 93}, {"time": 5326, "pitch": 48, "duration": 9, "velocity": 86}, {"time": 5332, "pitch": 55, "duration": 10, "velocity": 85}, {"time": 5332, "pitch": 60, "duration": 10, "velocity": 85}, {"time": 5332, "pitch": 64, "duration": 9, "velocity": 87}, {"time": 5338, "pitch": 48, "duration": 9, "velocity": 87}, {"time": 5344, "pitch": 55, "duration": 7, "velocity": 86}, {"time": 5344, "pitch": 60, "duration": 6, "velocity": 86}, {"time": 5344, "pitch": 64, "duration": 5, "velocity": 86}, {"time": 5350, "pitch": 41, "duration": 8, "velocity": 86}, {"time": 5356, "pitch": 53, "duration": 10, "velocity": 85}, {"time": 5356, "pitch": 57, "duration": 10, "velocity": 84}, {"time": 5356, "pitch": 60, "duration": 10, "velocity": 86}, {"time": 5362, "pitch": 41, "duration": 9, "velocity": 85}, {"time": 5368, "pitch": 53, "duration": 6, "velocity": 87}, {"time": 5368, "pitch": 57, "duration": 6, "velocity": 86}, {"time": 5368, "pitch": 60, "duration": 6, "velocity": 89}, {"time": 5374, "pitch": 48, "duration": 9, "velocity": 91}, {"time": 5380, "pitch": 55, "duration": 9, "velocity": 79}, {"time": 5380, "pitch": 60, "duration": 10, "velocity": 82}, {"time": 5380, "pitch": 64, "duration": 10, "velocity": 82}, {"time": 5386, "pitch": 48, "duration": 9, "velocity": 87}, {"time": 5392, "pitch": 55, "duration": 6, "velocity": 85}, {"time": 5392, "pitch": 60, "duration": 7, "velocity": 85}, {"time": 5392, "pitch": 64, "duration": 7, "velocity": 85}, {"time": 5398, "pitch": 41, "duration": 8, "velocity": 84}, {"time": 5404, "pitch": 57, "duration": 10, "velocity": 80}, {"time": 5404, "pitch": 60, "duration": 10, "velocity": 85}, {"time": 5404, "pitch": 65, "duration": 10, "velocity": 84}, {"time": 5410, "pitch": 41, "duration": 8, "velocity": 84}, {"time": 5416, "pitch": 57, "duration": 6, "velocity": 78}, {"time": 5416, "pitch": 60, "duration": 6, "velocity": 85}, {"time": 5416, "pitch": 65, "duration": 6, "velocity": 84}, {"time": 5422, "pitch": 50, "duration": 8, "velocity": 86}, {"time": 5428, "pitch": 57, "duration": 10, "velocity": 80}, {"time": 5428, "pitch": 62, "duration": 10, "velocity": 84}, {"time": 5428, "pitch": 65, "duration": 10, "velocity": 84}, {"time": 5434, "pitch": 50, "duration": 8, "velocity": 86}, {"time": 5440, "pitch": 57, "duration": 7, "velocity": 83}, {"time": 5440, "pitch": 62, "duration": 7, "velocity": 86}, {"time": 5440, "pitch": 65, "duration": 6, "velocity": 85}, {"time": 5446, "pitch": 48, "duration": 8, "velocity": 90}, {"time": 5452, "pitch": 55, "duration": 8, "velocity": 79}, {"time": 5452, "pitch": 60, "duration": 8, "velocity": 84}, {"time": 5452, "pitch": 64, "duration": 8, "velocity": 85}, {"time": 5458, "pitch": 48, "duration": 10, "velocity": 88}, {"time": 5464, "pitch": 55, "duration": 5, "velocity": 84}, {"time": 5464, "pitch": 60, "duration": 6, "velocity": 85}, {"time": 5464, "pitch": 64, "duration": 5, "velocity": 86}, {"time": 5470, "pitch": 48, "duration": 8, "velocity": 88}, {"time": 5476, "pitch": 55, "duration": 9, "velocity": 84}, {"time": 5476, "pitch": 60, "duration": 9, "velocity": 82}, {"time": 5476, "pitch": 64, "duration": 9, "velocity": 85}, {"time": 5482, "pitch": 48, "duration": 11, "velocity": 87}, {"time": 5488, "pitch": 55, "duration": 6, "velocity": 85}, {"time": 5488, "pitch": 60, "duration": 6, "velocity": 85}, {"time": 5488, "pitch": 64, "duration": 6, "velocity": 85}, {"time": 5494, "pitch": 48, "duration": 7, "velocity": 93}, {"time": 5500, "pitch": 55, "duration": 8, "velocity": 85}, {"time": 5500, "pitch": 60, "duration": 8, "velocity": 85}, {"time": 5500, "pitch": 64, "duration": 8, "velocity": 84}, {"time": 5506, "pitch": 48, "duration": 10, "velocity": 89}, {"time": 5512, "pitch": 55, "duration": 7, "velocity": 86}, {"time": 5512, "pitch": 60, "duration": 7, "velocity": 86}, {"time": 5512, "pitch": 64, "duration": 7, "velocity": 88}, {"time": 5518, "pitch": 48, "duration": 8, "velocity": 86}, {"time": 5524, "pitch": 55, "duration": 9, "velocity": 84}, {"time": 5524, "pitch": 60, "duration": 8, "velocity": 84}, {"time": 5524, "pitch": 64, "duration": 8, "velocity": 88}, {"time": 5530, "pitch": 48, "duration": 9, "velocity": 88}, {"time": 5536, "pitch": 55, "duration": 10, "velocity": 85}, {"time": 5536, "pitch": 60, "duration": 10, "velocity": 86}, {"time": 5536, "pitch": 64, "duration": 10, "velocity": 87}, {"time": 5542, "pitch": 48, "duration": 9, "velocity": 85}, {"time": 5548, "pitch": 55, "duration": 8, "velocity": 85}, {"time": 5548, "pitch": 60, "duration": 8, "velocity": 88}, {"time": 5548, "pitch": 64, "duration": 8, "velocity": 91}, {"time": 5554, "pitch": 48, "duration": 8, "velocity": 91}, {"time": 5560, "pitch": 55, "duration": 7, "velocity": 81}, {"time": 5560, "pitch": 60, "duration": 7, "velocity": 86}, {"time": 5560, "pitch": 64, "duration": 6, "velocity": 86}, {"time": 5566, "pitch": 41, "duration": 9, "velocity": 87}, {"time": 5572, "pitch": 53, "duration": 10, "velocity": 82}, {"time": 5572, "pitch": 57, "duration": 10, "velocity": 86}, {"time": 5572, "pitch": 60, "duration": 10, "velocity": 85}, {"time": 5578, "pitch": 41, "duration": 9, "velocity": 85}, {"time": 5584, "pitch": 53, "duration": 9, "velocity": 84}, {"time": 5584, "pitch": 57, "duration": 8, "velocity": 86}, {"time": 5584, "pitch": 60, "duration": 8, "velocity": 89}, {"time": 5590, "pitch": 41, "duration": 9, "velocity": 85}, {"time": 5596, "pitch": 53, "duration": 10, "velocity": 85}, {"time": 5596, "pitch": 57, "duration": 9, "velocity": 87}, {"time": 5596, "pitch": 60, "duration": 9, "velocity": 86}, {"time": 5602, "pitch": 41, "duration": 10, "velocity": 85}, {"time": 5608, "pitch": 53, "duration": 6, "velocity": 84}, {"time": 5608, "pitch": 57, "duration": 6, "velocity": 84}, {"time": 5608, "pitch": 60, "duration": 6, "velocity": 85}, {"time": 5614, "pitch": 41, "duration": 9, "velocity": 87}, {"time": 5620, "pitch": 53, "duration": 10, "velocity": 82}, {"time": 5620, "pitch": 57, "duration": 10, "velocity": 86}, {"time": 5620, "pitch": 60, "duration": 10, "velocity": 85}, {"time": 5626, "pitch": 41, "duration": 9, "velocity": 85}, {"time": 5632, "pitch": 53, "duration": 9, "velocity": 84}, {"time": 5632, "pitch": 57, "duration": 8, "velocity": 86}, {"time": 5632, "pitch": 60, "duration": 8, "velocity": 89}, {"time": 5638, "pitch": 41, "duration": 9, "velocity": 85}, {"time": 5644, "pitch": 53, "duration": 10, "velocity": 85}, {"time": 5644, "pitch": 57, "duration": 9, "velocity": 87}, {"time": 5644, "pitch": 60, "duration": 9, "velocity": 86}, {"time": 5650, "pitch": 41, "duration": 10, "velocity": 85}, {"time": 5656, "pitch": 53, "duration": 6, "velocity": 84}, {"time": 5656, "pitch": 57, "duration": 6, "velocity": 84}, {"time": 5656, "pitch": 60, "duration": 6, "velocity": 85}, {"time": 5662, "pitch": 41, "duration": 9, "velocity": 87}, {"time": 5668, "pitch": 53, "duration": 10, "velocity": 82}, {"time": 5668, "pitch": 57, "duration": 10, "velocity": 86}, {"time": 5668, "pitch": 60, "duration": 10, "velocity": 85}, {"time": 5674, "pitch": 41, "duration": 9, "velocity": 85}, {"time": 5680, "pitch": 53, "duration": 9, "velocity": 84}, {"time": 5680, "pitch": 57, "duration": 8, "velocity": 86}, {"time": 5680, "pitch": 60, "duration": 8, "velocity": 89}, {"time": 5686, "pitch": 41, "duration": 9, "velocity": 85}, {"time": 5692, "pitch": 53, "duration": 10, "velocity": 85}, {"time": 5692, "pitch": 57, "duration": 9, "velocity": 87}, {"time": 5692, "pitch": 60, "duration": 9, "velocity": 86}, {"time": 5698, "pitch": 41, "duration": 10, "velocity": 85}, {"time": 5704, "pitch": 53, "duration": 6, "velocity": 84}, {"time": 5704, "pitch": 57, "duration": 6, "velocity": 84}, {"time": 5704, "pitch": 60, "duration": 6, "velocity": 85}, {"time": 5710, "pitch": 41, "duration": 7, "velocity": 85}, {"time": 5710, "pitch": 57, "duration": 7, "velocity": 81}, {"time": 5710, "pitch": 60, "duration": 1, "velocity": 84}, {"time": 5710, "pitch": 65, "duration": 8, "velocity": 84}]}]}