{"metadata": {"schema_version": "0.2", "title": "None", "source_filename": "535.mid", "source_format": "midi"}, "resolution": 12, "tempos": [{"time": 0, "qpm": 62.00005993339127}], "time_signatures": [{"time": 0, "numerator": 1, "denominator": 4}], "tracks": [{"program": 4, "is_drum": false, "name": "MELODY", "notes": [{"time": 192, "pitch": 60, "duration": 3, "velocity": 88}, {"time": 195, "pitch": 65, "duration": 2, "velocity": 88}, {"time": 198, "pitch": 65, "duration": 2, "velocity": 85}, {"time": 201, "pitch": 65, "duration": 2, "velocity": 86}, {"time": 204, "pitch": 65, "duration": 2, "velocity": 85}, {"time": 207, "pitch": 65, "duration": 5, "velocity": 86}, {"time": 213, "pitch": 65, "duration": 2, "velocity": 86}, {"time": 216, "pitch": 65, "duration": 5, "velocity": 88}, {"time": 222, "pitch": 65, "duration": 6, "velocity": 86}, {"time": 231, "pitch": 60, "duration": 3, "velocity": 86}, {"time": 234, "pitch": 63, "duration": 9, "velocity": 85}, {"time": 243, "pitch": 61, "duration": 23, "velocity": 81}, {"time": 288, "pitch": 58, "duration": 3, "velocity": 85}, {"time": 291, "pitch": 63, "duration": 2, "velocity": 84}, {"time": 294, "pitch": 63, "duration": 2, "velocity": 84}, {"time": 297, "pitch": 63, "duration": 2, "velocity": 84}, {"time": 300, "pitch": 63, "duration": 2, "velocity": 84}, {"time": 303, "pitch": 63, "duration": 5, "velocity": 86}, {"time": 309, "pitch": 63, "duration": 2, "velocity": 81}, {"time": 312, "pitch": 63, "duration": 5, "velocity": 85}, {"time": 318, "pitch": 65, "duration": 6, "velocity": 87}, {"time": 327, "pitch": 67, "duration": 2, "velocity": 86}, {"time": 330, "pitch": 67, "duration": 6, "velocity": 77}, {"time": 336, "pitch": 60, "duration": 27, "velocity": 86}, {"time": 384, "pitch": 60, "duration": 2, "velocity": 83}, {"time": 387, "pitch": 65, "duration": 2, "velocity": 86}, {"time": 390, "pitch": 65, "duration": 2, "velocity": 85}, {"time": 393, "pitch": 65, "duration": 2, "velocity": 85}, {"time": 396, "pitch": 65, "duration": 2, "velocity": 86}, {"time": 399, "pitch": 65, "duration": 4, "velocity": 93}, {"time": 405, "pitch": 65, "duration": 2, "velocity": 85}, {"time": 408, "pitch": 65, "duration": 5, "velocity": 85}, {"time": 414, "pitch": 65, "duration": 5, "velocity": 85}, {"time": 423, "pitch": 72, "duration": 2, "velocity": 84}, {"time": 426, "pitch": 72, "duration": 6, "velocity": 83}, {"time": 432, "pitch": 70, "duration": 21, "velocity": 79}, {"time": 489, "pitch": 67, "duration": 2, "velocity": 85}, {"time": 492, "pitch": 67, "duration": 2, "velocity": 84}, {"time": 495, "pitch": 67, "duration": 4, "velocity": 85}, {"time": 501, "pitch": 67, "duration": 2, "velocity": 80}, {"time": 504, "pitch": 67, "duration": 9, "velocity": 85}, {"time": 513, "pitch": 60, "duration": 4, "velocity": 86}, {"time": 519, "pitch": 67, "duration": 2, "velocity": 87}, {"time": 522, "pitch": 68, "duration": 6, "velocity": 79}, {"time": 528, "pitch": 67, "duration": 26, "velocity": 84}, {"time": 576, "pitch": 60, "duration": 3, "velocity": 88}, {"time": 579, "pitch": 65, "duration": 2, "velocity": 88}, {"time": 582, "pitch": 65, "duration": 2, "velocity": 85}, {"time": 585, "pitch": 65, "duration": 2, "velocity": 86}, {"time": 588, "pitch": 65, "duration": 2, "velocity": 85}, {"time": 591, "pitch": 65, "duration": 5, "velocity": 86}, {"time": 597, "pitch": 65, "duration": 2, "velocity": 86}, {"time": 600, "pitch": 65, "duration": 5, "velocity": 88}, {"time": 606, "pitch": 65, "duration": 6, "velocity": 86}, {"time": 615, "pitch": 60, "duration": 3, "velocity": 86}, {"time": 618, "pitch": 63, "duration": 9, "velocity": 85}, {"time": 627, "pitch": 61, "duration": 23, "velocity": 81}, {"time": 672, "pitch": 58, "duration": 3, "velocity": 85}, {"time": 675, "pitch": 63, "duration": 2, "velocity": 84}, {"time": 678, "pitch": 63, "duration": 2, "velocity": 84}, {"time": 681, "pitch": 63, "duration": 2, "velocity": 84}, {"time": 684, "pitch": 63, "duration": 2, "velocity": 84}, {"time": 687, "pitch": 63, "duration": 5, "velocity": 86}, {"time": 693, "pitch": 63, "duration": 2, "velocity": 81}, {"time": 696, "pitch": 63, "duration": 5, "velocity": 85}, {"time": 702, "pitch": 65, "duration": 6, "velocity": 87}, {"time": 711, "pitch": 67, "duration": 2, "velocity": 86}, {"time": 714, "pitch": 67, "duration": 6, "velocity": 77}, {"time": 720, "pitch": 60, "duration": 27, "velocity": 86}, {"time": 768, "pitch": 60, "duration": 2, "velocity": 83}, {"time": 771, "pitch": 65, "duration": 2, "velocity": 86}, {"time": 774, "pitch": 65, "duration": 2, "velocity": 85}, {"time": 777, "pitch": 65, "duration": 2, "velocity": 85}, {"time": 780, "pitch": 65, "duration": 2, "velocity": 86}, {"time": 783, "pitch": 65, "duration": 4, "velocity": 93}, {"time": 789, "pitch": 65, "duration": 2, "velocity": 85}, {"time": 792, "pitch": 65, "duration": 5, "velocity": 85}, {"time": 798, "pitch": 65, "duration": 5, "velocity": 85}, {"time": 807, "pitch": 72, "duration": 2, "velocity": 84}, {"time": 810, "pitch": 72, "duration": 6, "velocity": 83}, {"time": 816, "pitch": 70, "duration": 21, "velocity": 79}, {"time": 873, "pitch": 67, "duration": 2, "velocity": 85}, {"time": 876, "pitch": 67, "duration": 2, "velocity": 84}, {"time": 879, "pitch": 67, "duration": 4, "velocity": 85}, {"time": 885, "pitch": 67, "duration": 2, "velocity": 80}, {"time": 888, "pitch": 67, "duration": 9, "velocity": 85}, {"time": 897, "pitch": 63, "duration": 4, "velocity": 86}, {"time": 903, "pitch": 67, "duration": 2, "velocity": 87}, {"time": 906, "pitch": 67, "duration": 6, "velocity": 79}, {"time": 912, "pitch": 65, "duration": 26, "velocity": 84}, {"time": 960, "pitch": 72, "duration": 3, "velocity": 88}, {"time": 963, "pitch": 77, "duration": 2, "velocity": 86}, {"time": 966, "pitch": 72, "duration": 2, "velocity": 87}, {"time": 969, "pitch": 72, "duration": 2, "velocity": 86}, {"time": 972, "pitch": 72, "duration": 2, "velocity": 85}, {"time": 975, "pitch": 72, "duration": 4, "velocity": 88}, {"time": 981, "pitch": 68, "duration": 2, "velocity": 85}, {"time": 984, "pitch": 65, "duration": 12, "velocity": 90}, {"time": 996, "pitch": 60, "duration": 2, "velocity": 86}, {"time": 999, "pitch": 60, "duration": 3, "velocity": 86}, {"time": 1002, "pitch": 72, "duration": 6, "velocity": 86}, {"time": 1008, "pitch": 70, "duration": 22, "velocity": 86}, {"time": 1056, "pitch": 70, "duration": 2, "velocity": 85}, {"time": 1059, "pitch": 75, "duration": 2, "velocity": 77}, {"time": 1062, "pitch": 75, "duration": 2, "velocity": 88}, {"time": 1065, "pitch": 75, "duration": 2, "velocity": 88}, {"time": 1068, "pitch": 75, "duration": 2, "velocity": 86}, {"time": 1071, "pitch": 75, "duration": 5, "velocity": 90}, {"time": 1077, "pitch": 75, "duration": 2, "velocity": 85}, {"time": 1080, "pitch": 75, "duration": 6, "velocity": 89}, {"time": 1089, "pitch": 77, "duration": 6, "velocity": 90}, {"time": 1095, "pitch": 79, "duration": 2, "velocity": 85}, {"time": 1098, "pitch": 79, "duration": 6, "velocity": 86}, {"time": 1104, "pitch": 72, "duration": 21, "velocity": 93}, {"time": 1152, "pitch": 72, "duration": 3, "velocity": 88}, {"time": 1155, "pitch": 77, "duration": 2, "velocity": 86}, {"time": 1158, "pitch": 72, "duration": 2, "velocity": 87}, {"time": 1161, "pitch": 72, "duration": 2, "velocity": 86}, {"time": 1164, "pitch": 72, "duration": 2, "velocity": 85}, {"time": 1167, "pitch": 72, "duration": 4, "velocity": 88}, {"time": 1173, "pitch": 68, "duration": 2, "velocity": 85}, {"time": 1176, "pitch": 65, "duration": 12, "velocity": 90}, {"time": 1188, "pitch": 60, "duration": 2, "velocity": 86}, {"time": 1191, "pitch": 60, "duration": 3, "velocity": 86}, {"time": 1194, "pitch": 72, "duration": 6, "velocity": 86}, {"time": 1200, "pitch": 70, "duration": 22, "velocity": 86}, {"time": 1257, "pitch": 70, "duration": 2, "velocity": 84}, {"time": 1260, "pitch": 70, "duration": 2, "velocity": 84}, {"time": 1263, "pitch": 70, "duration": 5, "velocity": 86}, {"time": 1269, "pitch": 70, "duration": 2, "velocity": 85}, {"time": 1272, "pitch": 70, "duration": 7, "velocity": 86}, {"time": 1281, "pitch": 63, "duration": 5, "velocity": 87}, {"time": 1287, "pitch": 67, "duration": 2, "velocity": 76}, {"time": 1290, "pitch": 67, "duration": 5, "velocity": 84}, {"time": 1296, "pitch": 65, "duration": 39, "velocity": 89}, {"time": 1728, "pitch": 60, "duration": 3, "velocity": 88}, {"time": 1731, "pitch": 65, "duration": 2, "velocity": 88}, {"time": 1734, "pitch": 65, "duration": 2, "velocity": 85}, {"time": 1737, "pitch": 65, "duration": 2, "velocity": 86}, {"time": 1740, "pitch": 65, "duration": 2, "velocity": 85}, {"time": 1743, "pitch": 65, "duration": 5, "velocity": 86}, {"time": 1749, "pitch": 65, "duration": 2, "velocity": 86}, {"time": 1752, "pitch": 65, "duration": 5, "velocity": 88}, {"time": 1758, "pitch": 65, "duration": 6, "velocity": 86}, {"time": 1767, "pitch": 60, "duration": 3, "velocity": 86}, {"time": 1770, "pitch": 63, "duration": 9, "velocity": 85}, {"time": 1779, "pitch": 61, "duration": 23, "velocity": 81}, {"time": 1824, "pitch": 58, "duration": 3, "velocity": 85}, {"time": 1827, "pitch": 63, "duration": 2, "velocity": 84}, {"time": 1830, "pitch": 63, "duration": 2, "velocity": 84}, {"time": 1833, "pitch": 63, "duration": 2, "velocity": 84}, {"time": 1836, "pitch": 63, "duration": 2, "velocity": 84}, {"time": 1839, "pitch": 63, "duration": 5, "velocity": 86}, {"time": 1845, "pitch": 63, "duration": 2, "velocity": 81}, {"time": 1848, "pitch": 63, "duration": 5, "velocity": 85}, {"time": 1854, "pitch": 65, "duration": 6, "velocity": 87}, {"time": 1863, "pitch": 67, "duration": 2, "velocity": 86}, {"time": 1866, "pitch": 67, "duration": 6, "velocity": 77}, {"time": 1872, "pitch": 60, "duration": 27, "velocity": 86}, {"time": 1920, "pitch": 60, "duration": 2, "velocity": 83}, {"time": 1923, "pitch": 65, "duration": 2, "velocity": 86}, {"time": 1926, "pitch": 65, "duration": 2, "velocity": 85}, {"time": 1929, "pitch": 65, "duration": 2, "velocity": 85}, {"time": 1932, "pitch": 65, "duration": 2, "velocity": 86}, {"time": 1935, "pitch": 65, "duration": 4, "velocity": 93}, {"time": 1941, "pitch": 65, "duration": 2, "velocity": 85}, {"time": 1944, "pitch": 65, "duration": 5, "velocity": 85}, {"time": 1950, "pitch": 65, "duration": 5, "velocity": 85}, {"time": 1959, "pitch": 72, "duration": 2, "velocity": 84}, {"time": 1962, "pitch": 72, "duration": 6, "velocity": 83}, {"time": 1968, "pitch": 70, "duration": 21, "velocity": 79}, {"time": 2025, "pitch": 67, "duration": 2, "velocity": 85}, {"time": 2028, "pitch": 67, "duration": 2, "velocity": 84}, {"time": 2031, "pitch": 67, "duration": 4, "velocity": 85}, {"time": 2037, "pitch": 67, "duration": 2, "velocity": 80}, {"time": 2040, "pitch": 67, "duration": 9, "velocity": 85}, {"time": 2049, "pitch": 60, "duration": 4, "velocity": 86}, {"time": 2055, "pitch": 67, "duration": 2, "velocity": 87}, {"time": 2058, "pitch": 68, "duration": 6, "velocity": 79}, {"time": 2064, "pitch": 67, "duration": 26, "velocity": 84}, {"time": 2112, "pitch": 60, "duration": 3, "velocity": 88}, {"time": 2115, "pitch": 65, "duration": 2, "velocity": 88}, {"time": 2118, "pitch": 65, "duration": 2, "velocity": 85}, {"time": 2121, "pitch": 65, "duration": 2, "velocity": 86}, {"time": 2124, "pitch": 65, "duration": 2, "velocity": 85}, {"time": 2127, "pitch": 65, "duration": 5, "velocity": 86}, {"time": 2133, "pitch": 65, "duration": 2, "velocity": 86}, {"time": 2136, "pitch": 65, "duration": 5, "velocity": 88}, {"time": 2142, "pitch": 65, "duration": 6, "velocity": 86}, {"time": 2151, "pitch": 60, "duration": 3, "velocity": 86}, {"time": 2154, "pitch": 63, "duration": 9, "velocity": 85}, {"time": 2163, "pitch": 61, "duration": 23, "velocity": 81}, {"time": 2208, "pitch": 58, "duration": 3, "velocity": 85}, {"time": 2211, "pitch": 63, "duration": 2, "velocity": 84}, {"time": 2214, "pitch": 63, "duration": 2, "velocity": 84}, {"time": 2217, "pitch": 63, "duration": 2, "velocity": 84}, {"time": 2220, "pitch": 63, "duration": 2, "velocity": 84}, {"time": 2223, "pitch": 63, "duration": 5, "velocity": 86}, {"time": 2229, "pitch": 63, "duration": 2, "velocity": 81}, {"time": 2232, "pitch": 63, "duration": 5, "velocity": 85}, {"time": 2238, "pitch": 65, "duration": 6, "velocity": 87}, {"time": 2247, "pitch": 67, "duration": 2, "velocity": 86}, {"time": 2250, "pitch": 67, "duration": 6, "velocity": 77}, {"time": 2256, "pitch": 60, "duration": 27, "velocity": 86}, {"time": 2304, "pitch": 60, "duration": 2, "velocity": 83}, {"time": 2307, "pitch": 65, "duration": 2, "velocity": 86}, {"time": 2310, "pitch": 65, "duration": 2, "velocity": 85}, {"time": 2313, "pitch": 65, "duration": 2, "velocity": 85}, {"time": 2316, "pitch": 65, "duration": 2, "velocity": 86}, {"time": 2319, "pitch": 65, "duration": 4, "velocity": 93}, {"time": 2325, "pitch": 65, "duration": 2, "velocity": 85}, {"time": 2328, "pitch": 65, "duration": 5, "velocity": 85}, {"time": 2334, "pitch": 65, "duration": 5, "velocity": 85}, {"time": 2343, "pitch": 72, "duration": 2, "velocity": 84}, {"time": 2346, "pitch": 72, "duration": 6, "velocity": 83}, {"time": 2352, "pitch": 70, "duration": 21, "velocity": 79}, {"time": 2409, "pitch": 67, "duration": 2, "velocity": 85}, {"time": 2412, "pitch": 67, "duration": 2, "velocity": 84}, {"time": 2415, "pitch": 67, "duration": 4, "velocity": 85}, {"time": 2421, "pitch": 67, "duration": 2, "velocity": 80}, {"time": 2424, "pitch": 67, "duration": 9, "velocity": 85}, {"time": 2433, "pitch": 63, "duration": 4, "velocity": 86}, {"time": 2439, "pitch": 67, "duration": 2, "velocity": 87}, {"time": 2442, "pitch": 67, "duration": 6, "velocity": 79}, {"time": 2448, "pitch": 65, "duration": 26, "velocity": 84}, {"time": 2496, "pitch": 72, "duration": 3, "velocity": 88}, {"time": 2499, "pitch": 77, "duration": 2, "velocity": 86}, {"time": 2502, "pitch": 72, "duration": 2, "velocity": 87}, {"time": 2505, "pitch": 72, "duration": 2, "velocity": 86}, {"time": 2508, "pitch": 72, "duration": 2, "velocity": 85}, {"time": 2511, "pitch": 72, "duration": 4, "velocity": 88}, {"time": 2517, "pitch": 68, "duration": 2, "velocity": 85}, {"time": 2520, "pitch": 65, "duration": 12, "velocity": 90}, {"time": 2532, "pitch": 60, "duration": 2, "velocity": 86}, {"time": 2535, "pitch": 60, "duration": 3, "velocity": 86}, {"time": 2538, "pitch": 72, "duration": 6, "velocity": 86}, {"time": 2544, "pitch": 70, "duration": 22, "velocity": 86}, {"time": 2592, "pitch": 70, "duration": 2, "velocity": 85}, {"time": 2595, "pitch": 75, "duration": 2, "velocity": 77}, {"time": 2598, "pitch": 75, "duration": 2, "velocity": 88}, {"time": 2601, "pitch": 75, "duration": 2, "velocity": 88}, {"time": 2604, "pitch": 75, "duration": 2, "velocity": 86}, {"time": 2607, "pitch": 75, "duration": 5, "velocity": 90}, {"time": 2613, "pitch": 75, "duration": 2, "velocity": 85}, {"time": 2616, "pitch": 75, "duration": 6, "velocity": 89}, {"time": 2625, "pitch": 77, "duration": 6, "velocity": 90}, {"time": 2631, "pitch": 79, "duration": 2, "velocity": 85}, {"time": 2634, "pitch": 79, "duration": 6, "velocity": 86}, {"time": 2640, "pitch": 72, "duration": 21, "velocity": 93}, {"time": 2688, "pitch": 72, "duration": 3, "velocity": 88}, {"time": 2691, "pitch": 77, "duration": 2, "velocity": 86}, {"time": 2694, "pitch": 72, "duration": 2, "velocity": 87}, {"time": 2697, "pitch": 72, "duration": 2, "velocity": 86}, {"time": 2700, "pitch": 72, "duration": 2, "velocity": 85}, {"time": 2703, "pitch": 72, "duration": 4, "velocity": 88}, {"time": 2709, "pitch": 68, "duration": 2, "velocity": 85}, {"time": 2712, "pitch": 65, "duration": 12, "velocity": 90}, {"time": 2724, "pitch": 60, "duration": 2, "velocity": 86}, {"time": 2727, "pitch": 60, "duration": 3, "velocity": 86}, {"time": 2730, "pitch": 72, "duration": 6, "velocity": 86}, {"time": 2736, "pitch": 70, "duration": 22, "velocity": 86}, {"time": 2793, "pitch": 70, "duration": 2, "velocity": 84}, {"time": 2796, "pitch": 70, "duration": 2, "velocity": 84}, {"time": 2799, "pitch": 70, "duration": 5, "velocity": 86}, {"time": 2805, "pitch": 70, "duration": 2, "velocity": 85}, {"time": 2808, "pitch": 70, "duration": 7, "velocity": 86}, {"time": 2817, "pitch": 63, "duration": 5, "velocity": 87}, {"time": 2823, "pitch": 67, "duration": 2, "velocity": 76}, {"time": 2826, "pitch": 67, "duration": 5, "velocity": 84}, {"time": 2832, "pitch": 65, "duration": 39, "velocity": 89}, {"time": 2880, "pitch": 72, "duration": 3, "velocity": 88}, {"time": 2883, "pitch": 77, "duration": 2, "velocity": 86}, {"time": 2886, "pitch": 72, "duration": 2, "velocity": 87}, {"time": 2889, "pitch": 72, "duration": 2, "velocity": 86}, {"time": 2892, "pitch": 72, "duration": 2, "velocity": 85}, {"time": 2895, "pitch": 72, "duration": 4, "velocity": 88}, {"time": 2901, "pitch": 68, "duration": 2, "velocity": 85}, {"time": 2904, "pitch": 65, "duration": 12, "velocity": 90}, {"time": 2916, "pitch": 60, "duration": 2, "velocity": 86}, {"time": 2919, "pitch": 60, "duration": 3, "velocity": 86}, {"time": 2922, "pitch": 72, "duration": 6, "velocity": 86}, {"time": 2928, "pitch": 70, "duration": 22, "velocity": 86}, {"time": 2976, "pitch": 70, "duration": 2, "velocity": 85}, {"time": 2979, "pitch": 75, "duration": 2, "velocity": 77}, {"time": 2982, "pitch": 75, "duration": 2, "velocity": 88}, {"time": 2985, "pitch": 75, "duration": 2, "velocity": 88}, {"time": 2988, "pitch": 75, "duration": 2, "velocity": 86}, {"time": 2991, "pitch": 75, "duration": 5, "velocity": 90}, {"time": 2997, "pitch": 75, "duration": 2, "velocity": 85}, {"time": 3000, "pitch": 75, "duration": 6, "velocity": 89}, {"time": 3009, "pitch": 77, "duration": 6, "velocity": 90}, {"time": 3015, "pitch": 79, "duration": 2, "velocity": 85}, {"time": 3018, "pitch": 79, "duration": 6, "velocity": 86}, {"time": 3024, "pitch": 72, "duration": 21, "velocity": 93}, {"time": 3072, "pitch": 72, "duration": 3, "velocity": 88}, {"time": 3075, "pitch": 77, "duration": 2, "velocity": 86}, {"time": 3078, "pitch": 72, "duration": 2, "velocity": 87}, {"time": 3081, "pitch": 72, "duration": 2, "velocity": 86}, {"time": 3084, "pitch": 72, "duration": 2, "velocity": 85}, {"time": 3087, "pitch": 72, "duration": 4, "velocity": 88}, {"time": 3093, "pitch": 68, "duration": 2, "velocity": 85}, {"time": 3096, "pitch": 65, "duration": 12, "velocity": 90}, {"time": 3108, "pitch": 60, "duration": 2, "velocity": 86}, {"time": 3111, "pitch": 60, "duration": 3, "velocity": 86}, {"time": 3114, "pitch": 72, "duration": 6, "velocity": 86}, {"time": 3120, "pitch": 70, "duration": 22, "velocity": 86}, {"time": 3177, "pitch": 70, "duration": 2, "velocity": 84}, {"time": 3180, "pitch": 70, "duration": 2, "velocity": 84}, {"time": 3183, "pitch": 70, "duration": 5, "velocity": 86}, {"time": 3189, "pitch": 70, "duration": 2, "velocity": 85}, {"time": 3192, "pitch": 70, "duration": 7, "velocity": 86}, {"time": 3201, "pitch": 63, "duration": 5, "velocity": 87}, {"time": 3207, "pitch": 67, "duration": 2, "velocity": 76}, {"time": 3210, "pitch": 67, "duration": 5, "velocity": 84}, {"time": 3216, "pitch": 65, "duration": 39, "velocity": 89}]}, {"program": 0, "is_drum": false, "name": "PIANO", "notes": [{"time": 3, "pitch": 41, "duration": 33, "velocity": 87}, {"time": 3, "pitch": 53, "duration": 4, "velocity": 79}, {"time": 3, "pitch": 56, "duration": 5, "velocity": 81}, {"time": 3, "pitch": 60, "duration": 5, "velocity": 80}, {"time": 9, "pitch": 53, "duration": 6, "velocity": 81}, {"time": 15, "pitch": 56, "duration": 2, "velocity": 84}, {"time": 15, "pitch": 60, "duration": 3, "velocity": 84}, {"time": 15, "pitch": 65, "duration": 3, "velocity": 84}, {"time": 21, "pitch": 56, "duration": 5, "velocity": 65}, {"time": 27, "pitch": 60, "duration": 11, "velocity": 88}, {"time": 27, "pitch": 65, "duration": 11, "velocity": 86}, {"time": 33, "pitch": 56, "duration": 3, "velocity": 82}, {"time": 39, "pitch": 39, "duration": 4, "velocity": 85}, {"time": 39, "pitch": 58, "duration": 7, "velocity": 83}, {"time": 39, "pitch": 63, "duration": 7, "velocity": 84}, {"time": 51, "pitch": 49, "duration": 20, "velocity": 88}, {"time": 51, "pitch": 56, "duration": 3, "velocity": 83}, {"time": 51, "pitch": 61, "duration": 7, "velocity": 82}, {"time": 57, "pitch": 56, "duration": 3, "velocity": 66}, {"time": 63, "pitch": 56, "duration": 2, "velocity": 81}, {"time": 63, "pitch": 61, "duration": 5, "velocity": 84}, {"time": 63, "pitch": 65, "duration": 6, "velocity": 85}, {"time": 75, "pitch": 49, "duration": 22, "velocity": 89}, {"time": 75, "pitch": 56, "duration": 2, "velocity": 78}, {"time": 75, "pitch": 61, "duration": 7, "velocity": 80}, {"time": 75, "pitch": 65, "duration": 7, "velocity": 84}, {"time": 81, "pitch": 56, "duration": 4, "velocity": 68}, {"time": 87, "pitch": 56, "duration": 3, "velocity": 86}, {"time": 87, "pitch": 61, "duration": 10, "velocity": 89}, {"time": 87, "pitch": 65, "duration": 10, "velocity": 87}, {"time": 93, "pitch": 56, "duration": 3, "velocity": 84}, {"time": 99, "pitch": 46, "duration": 18, "velocity": 86}, {"time": 99, "pitch": 58, "duration": 7, "velocity": 78}, {"time": 99, "pitch": 61, "duration": 7, "velocity": 84}, {"time": 99, "pitch": 65, "duration": 6, "velocity": 85}, {"time": 105, "pitch": 53, "duration": 10, "velocity": 74}, {"time": 111, "pitch": 58, "duration": 3, "velocity": 84}, {"time": 111, "pitch": 61, "duration": 4, "velocity": 88}, {"time": 111, "pitch": 65, "duration": 4, "velocity": 86}, {"time": 123, "pitch": 46, "duration": 16, "velocity": 84}, {"time": 123, "pitch": 58, "duration": 8, "velocity": 76}, {"time": 123, "pitch": 61, "duration": 7, "velocity": 79}, {"time": 129, "pitch": 53, "duration": 11, "velocity": 73}, {"time": 135, "pitch": 58, "duration": 3, "velocity": 83}, {"time": 135, "pitch": 61, "duration": 6, "velocity": 91}, {"time": 135, "pitch": 65, "duration": 7, "velocity": 88}, {"time": 141, "pitch": 46, "duration": 4, "velocity": 86}, {"time": 141, "pitch": 58, "duration": 4, "velocity": 85}, {"time": 147, "pitch": 48, "duration": 39, "velocity": 85}, {"time": 147, "pitch": 60, "duration": 9, "velocity": 85}, {"time": 153, "pitch": 55, "duration": 8, "velocity": 66}, {"time": 159, "pitch": 60, "duration": 8, "velocity": 79}, {"time": 159, "pitch": 64, "duration": 7, "velocity": 77}, {"time": 159, "pitch": 67, "duration": 5, "velocity": 75}, {"time": 165, "pitch": 55, "duration": 19, "velocity": 72}, {"time": 171, "pitch": 60, "duration": 15, "velocity": 79}, {"time": 171, "pitch": 64, "duration": 14, "velocity": 79}, {"time": 171, "pitch": 67, "duration": 14, "velocity": 71}, {"time": 171, "pitch": 72, "duration": 14, "velocity": 82}, {"time": 195, "pitch": 41, "duration": 15, "velocity": 87}, {"time": 195, "pitch": 60, "duration": 3, "velocity": 79}, {"time": 195, "pitch": 65, "duration": 7, "velocity": 83}, {"time": 201, "pitch": 60, "duration": 5, "velocity": 82}, {"time": 207, "pitch": 60, "duration": 3, "velocity": 82}, {"time": 207, "pitch": 65, "duration": 4, "velocity": 85}, {"time": 207, "pitch": 68, "duration": 4, "velocity": 79}, {"time": 219, "pitch": 60, "duration": 2, "velocity": 84}, {"time": 219, "pitch": 65, "duration": 4, "velocity": 86}, {"time": 219, "pitch": 68, "duration": 6, "velocity": 83}, {"time": 225, "pitch": 60, "duration": 14, "velocity": 72}, {"time": 231, "pitch": 65, "duration": 8, "velocity": 88}, {"time": 231, "pitch": 68, "duration": 8, "velocity": 85}, {"time": 237, "pitch": 48, "duration": 4, "velocity": 86}, {"time": 243, "pitch": 46, "duration": 39, "velocity": 85}, {"time": 243, "pitch": 58, "duration": 9, "velocity": 74}, {"time": 243, "pitch": 61, "duration": 9, "velocity": 75}, {"time": 243, "pitch": 65, "duration": 8, "velocity": 84}, {"time": 249, "pitch": 53, "duration": 10, "velocity": 73}, {"time": 255, "pitch": 58, "duration": 4, "velocity": 80}, {"time": 255, "pitch": 61, "duration": 6, "velocity": 84}, {"time": 255, "pitch": 65, "duration": 6, "velocity": 86}, {"time": 261, "pitch": 53, "duration": 21, "velocity": 74}, {"time": 267, "pitch": 58, "duration": 5, "velocity": 76}, {"time": 267, "pitch": 61, "duration": 5, "velocity": 82}, {"time": 267, "pitch": 65, "duration": 5, "velocity": 83}, {"time": 279, "pitch": 58, "duration": 6, "velocity": 84}, {"time": 279, "pitch": 61, "duration": 6, "velocity": 89}, {"time": 279, "pitch": 65, "duration": 6, "velocity": 88}, {"time": 285, "pitch": 49, "duration": 5, "velocity": 77}, {"time": 291, "pitch": 51, "duration": 16, "velocity": 88}, {"time": 291, "pitch": 58, "duration": 4, "velocity": 74}, {"time": 291, "pitch": 63, "duration": 8, "velocity": 82}, {"time": 297, "pitch": 58, "duration": 4, "velocity": 78}, {"time": 303, "pitch": 58, "duration": 3, "velocity": 84}, {"time": 303, "pitch": 63, "duration": 6, "velocity": 85}, {"time": 303, "pitch": 67, "duration": 6, "velocity": 79}, {"time": 315, "pitch": 58, "duration": 9, "velocity": 79}, {"time": 315, "pitch": 63, "duration": 9, "velocity": 85}, {"time": 315, "pitch": 67, "duration": 9, "velocity": 83}, {"time": 327, "pitch": 58, "duration": 7, "velocity": 84}, {"time": 327, "pitch": 63, "duration": 7, "velocity": 86}, {"time": 327, "pitch": 67, "duration": 7, "velocity": 84}, {"time": 339, "pitch": 44, "duration": 19, "velocity": 85}, {"time": 339, "pitch": 56, "duration": 9, "velocity": 76}, {"time": 339, "pitch": 60, "duration": 8, "velocity": 78}, {"time": 345, "pitch": 51, "duration": 9, "velocity": 74}, {"time": 351, "pitch": 56, "duration": 3, "velocity": 84}, {"time": 351, "pitch": 60, "duration": 4, "velocity": 86}, {"time": 351, "pitch": 63, "duration": 5, "velocity": 85}, {"time": 357, "pitch": 56, "duration": 3, "velocity": 73}, {"time": 363, "pitch": 56, "duration": 5, "velocity": 80}, {"time": 363, "pitch": 60, "duration": 7, "velocity": 82}, {"time": 363, "pitch": 63, "duration": 7, "velocity": 79}, {"time": 375, "pitch": 56, "duration": 7, "velocity": 88}, {"time": 375, "pitch": 60, "duration": 6, "velocity": 88}, {"time": 375, "pitch": 63, "duration": 6, "velocity": 86}, {"time": 381, "pitch": 43, "duration": 5, "velocity": 83}, {"time": 387, "pitch": 41, "duration": 42, "velocity": 88}, {"time": 387, "pitch": 53, "duration": 7, "velocity": 81}, {"time": 387, "pitch": 56, "duration": 7, "velocity": 83}, {"time": 393, "pitch": 48, "duration": 22, "velocity": 71}, {"time": 399, "pitch": 53, "duration": 3, "velocity": 84}, {"time": 399, "pitch": 56, "duration": 3, "velocity": 84}, {"time": 399, "pitch": 60, "duration": 3, "velocity": 84}, {"time": 411, "pitch": 56, "duration": 8, "velocity": 85}, {"time": 411, "pitch": 60, "duration": 8, "velocity": 85}, {"time": 417, "pitch": 48, "duration": 12, "velocity": 78}, {"time": 423, "pitch": 53, "duration": 1, "velocity": 28}, {"time": 423, "pitch": 56, "duration": 5, "velocity": 85}, {"time": 423, "pitch": 60, "duration": 6, "velocity": 85}, {"time": 423, "pitch": 65, "duration": 8, "velocity": 88}, {"time": 429, "pitch": 53, "duration": 2, "velocity": 80}, {"time": 435, "pitch": 46, "duration": 20, "velocity": 85}, {"time": 435, "pitch": 58, "duration": 8, "velocity": 78}, {"time": 435, "pitch": 61, "duration": 7, "velocity": 78}, {"time": 441, "pitch": 53, "duration": 14, "velocity": 71}, {"time": 447, "pitch": 58, "duration": 3, "velocity": 77}, {"time": 447, "pitch": 61, "duration": 5, "velocity": 84}, {"time": 447, "pitch": 65, "duration": 5, "velocity": 84}, {"time": 459, "pitch": 58, "duration": 3, "velocity": 80}, {"time": 459, "pitch": 61, "duration": 8, "velocity": 84}, {"time": 459, "pitch": 65, "duration": 7, "velocity": 84}, {"time": 465, "pitch": 58, "duration": 4, "velocity": 66}, {"time": 471, "pitch": 58, "duration": 2, "velocity": 84}, {"time": 471, "pitch": 61, "duration": 6, "velocity": 86}, {"time": 471, "pitch": 65, "duration": 6, "velocity": 85}, {"time": 477, "pitch": 58, "duration": 4, "velocity": 76}, {"time": 483, "pitch": 39, "duration": 6, "velocity": 88}, {"time": 483, "pitch": 58, "duration": 3, "velocity": 84}, {"time": 483, "pitch": 63, "duration": 8, "velocity": 84}, {"time": 489, "pitch": 58, "duration": 4, "velocity": 80}, {"time": 495, "pitch": 58, "duration": 3, "velocity": 84}, {"time": 495, "pitch": 63, "duration": 7, "velocity": 85}, {"time": 495, "pitch": 67, "duration": 7, "velocity": 79}, {"time": 507, "pitch": 63, "duration": 8, "velocity": 83}, {"time": 507, "pitch": 67, "duration": 8, "velocity": 84}, {"time": 513, "pitch": 58, "duration": 4, "velocity": 65}, {"time": 519, "pitch": 51, "duration": 2, "velocity": 86}, {"time": 519, "pitch": 58, "duration": 3, "velocity": 84}, {"time": 519, "pitch": 63, "duration": 6, "velocity": 85}, {"time": 519, "pitch": 67, "duration": 6, "velocity": 81}, {"time": 525, "pitch": 58, "duration": 1, "velocity": 77}, {"time": 531, "pitch": 48, "duration": 36, "velocity": 85}, {"time": 531, "pitch": 60, "duration": 7, "velocity": 83}, {"time": 531, "pitch": 64, "duration": 7, "velocity": 79}, {"time": 531, "pitch": 67, "duration": 7, "velocity": 84}, {"time": 537, "pitch": 55, "duration": 9, "velocity": 64}, {"time": 543, "pitch": 60, "duration": 7, "velocity": 84}, {"time": 543, "pitch": 64, "duration": 7, "velocity": 84}, {"time": 543, "pitch": 67, "duration": 7, "velocity": 82}, {"time": 549, "pitch": 55, "duration": 9, "velocity": 68}, {"time": 555, "pitch": 60, "duration": 9, "velocity": 84}, {"time": 555, "pitch": 64, "duration": 8, "velocity": 84}, {"time": 555, "pitch": 67, "duration": 9, "velocity": 79}, {"time": 561, "pitch": 55, "duration": 5, "velocity": 59}, {"time": 567, "pitch": 60, "duration": 13, "velocity": 85}, {"time": 567, "pitch": 64, "duration": 13, "velocity": 84}, {"time": 567, "pitch": 67, "duration": 13, "velocity": 84}, {"time": 573, "pitch": 43, "duration": 3, "velocity": 79}, {"time": 576, "pitch": 44, "duration": 3, "velocity": 85}, {"time": 579, "pitch": 41, "duration": 15, "velocity": 87}, {"time": 579, "pitch": 60, "duration": 1, "velocity": 79}, {"time": 579, "pitch": 65, "duration": 7, "velocity": 83}, {"time": 585, "pitch": 60, "duration": 5, "velocity": 82}, {"time": 591, "pitch": 60, "duration": 3, "velocity": 82}, {"time": 591, "pitch": 65, "duration": 4, "velocity": 85}, {"time": 591, "pitch": 68, "duration": 4, "velocity": 79}, {"time": 603, "pitch": 60, "duration": 2, "velocity": 84}, {"time": 603, "pitch": 65, "duration": 4, "velocity": 86}, {"time": 603, "pitch": 68, "duration": 6, "velocity": 83}, {"time": 609, "pitch": 60, "duration": 14, "velocity": 72}, {"time": 615, "pitch": 65, "duration": 8, "velocity": 88}, {"time": 615, "pitch": 68, "duration": 8, "velocity": 85}, {"time": 621, "pitch": 48, "duration": 4, "velocity": 86}, {"time": 627, "pitch": 46, "duration": 39, "velocity": 85}, {"time": 627, "pitch": 58, "duration": 9, "velocity": 74}, {"time": 627, "pitch": 61, "duration": 9, "velocity": 75}, {"time": 627, "pitch": 65, "duration": 8, "velocity": 84}, {"time": 633, "pitch": 53, "duration": 10, "velocity": 73}, {"time": 639, "pitch": 58, "duration": 4, "velocity": 80}, {"time": 639, "pitch": 61, "duration": 6, "velocity": 84}, {"time": 639, "pitch": 65, "duration": 6, "velocity": 86}, {"time": 645, "pitch": 53, "duration": 21, "velocity": 74}, {"time": 651, "pitch": 58, "duration": 5, "velocity": 76}, {"time": 651, "pitch": 61, "duration": 5, "velocity": 82}, {"time": 651, "pitch": 65, "duration": 5, "velocity": 83}, {"time": 663, "pitch": 58, "duration": 6, "velocity": 84}, {"time": 663, "pitch": 61, "duration": 6, "velocity": 89}, {"time": 663, "pitch": 65, "duration": 6, "velocity": 88}, {"time": 669, "pitch": 49, "duration": 5, "velocity": 77}, {"time": 675, "pitch": 51, "duration": 16, "velocity": 88}, {"time": 675, "pitch": 58, "duration": 4, "velocity": 74}, {"time": 675, "pitch": 63, "duration": 8, "velocity": 82}, {"time": 681, "pitch": 58, "duration": 4, "velocity": 78}, {"time": 687, "pitch": 58, "duration": 3, "velocity": 84}, {"time": 687, "pitch": 63, "duration": 6, "velocity": 85}, {"time": 687, "pitch": 67, "duration": 6, "velocity": 79}, {"time": 699, "pitch": 58, "duration": 9, "velocity": 79}, {"time": 699, "pitch": 63, "duration": 9, "velocity": 85}, {"time": 699, "pitch": 67, "duration": 9, "velocity": 83}, {"time": 711, "pitch": 58, "duration": 7, "velocity": 84}, {"time": 711, "pitch": 63, "duration": 7, "velocity": 86}, {"time": 711, "pitch": 67, "duration": 7, "velocity": 84}, {"time": 723, "pitch": 44, "duration": 19, "velocity": 85}, {"time": 723, "pitch": 56, "duration": 9, "velocity": 76}, {"time": 723, "pitch": 60, "duration": 8, "velocity": 78}, {"time": 729, "pitch": 51, "duration": 9, "velocity": 74}, {"time": 735, "pitch": 56, "duration": 3, "velocity": 84}, {"time": 735, "pitch": 60, "duration": 4, "velocity": 86}, {"time": 735, "pitch": 63, "duration": 5, "velocity": 85}, {"time": 741, "pitch": 56, "duration": 3, "velocity": 73}, {"time": 747, "pitch": 56, "duration": 5, "velocity": 80}, {"time": 747, "pitch": 60, "duration": 7, "velocity": 82}, {"time": 747, "pitch": 63, "duration": 7, "velocity": 79}, {"time": 759, "pitch": 56, "duration": 7, "velocity": 88}, {"time": 759, "pitch": 60, "duration": 6, "velocity": 88}, {"time": 759, "pitch": 63, "duration": 6, "velocity": 86}, {"time": 765, "pitch": 43, "duration": 5, "velocity": 83}, {"time": 771, "pitch": 41, "duration": 42, "velocity": 88}, {"time": 771, "pitch": 53, "duration": 7, "velocity": 81}, {"time": 771, "pitch": 56, "duration": 7, "velocity": 83}, {"time": 777, "pitch": 48, "duration": 22, "velocity": 71}, {"time": 783, "pitch": 53, "duration": 3, "velocity": 84}, {"time": 783, "pitch": 56, "duration": 3, "velocity": 84}, {"time": 783, "pitch": 60, "duration": 3, "velocity": 84}, {"time": 795, "pitch": 56, "duration": 8, "velocity": 85}, {"time": 795, "pitch": 60, "duration": 8, "velocity": 85}, {"time": 801, "pitch": 48, "duration": 12, "velocity": 78}, {"time": 807, "pitch": 53, "duration": 1, "velocity": 28}, {"time": 807, "pitch": 56, "duration": 5, "velocity": 85}, {"time": 807, "pitch": 60, "duration": 6, "velocity": 85}, {"time": 807, "pitch": 65, "duration": 8, "velocity": 88}, {"time": 813, "pitch": 53, "duration": 2, "velocity": 80}, {"time": 819, "pitch": 46, "duration": 20, "velocity": 85}, {"time": 819, "pitch": 58, "duration": 8, "velocity": 78}, {"time": 819, "pitch": 61, "duration": 7, "velocity": 78}, {"time": 825, "pitch": 53, "duration": 14, "velocity": 71}, {"time": 831, "pitch": 58, "duration": 3, "velocity": 77}, {"time": 831, "pitch": 61, "duration": 5, "velocity": 84}, {"time": 831, "pitch": 65, "duration": 5, "velocity": 84}, {"time": 843, "pitch": 58, "duration": 3, "velocity": 80}, {"time": 843, "pitch": 61, "duration": 8, "velocity": 84}, {"time": 843, "pitch": 65, "duration": 7, "velocity": 84}, {"time": 849, "pitch": 58, "duration": 4, "velocity": 66}, {"time": 855, "pitch": 58, "duration": 2, "velocity": 84}, {"time": 855, "pitch": 61, "duration": 6, "velocity": 86}, {"time": 855, "pitch": 65, "duration": 6, "velocity": 85}, {"time": 861, "pitch": 58, "duration": 4, "velocity": 76}, {"time": 867, "pitch": 39, "duration": 6, "velocity": 88}, {"time": 867, "pitch": 58, "duration": 3, "velocity": 84}, {"time": 867, "pitch": 63, "duration": 8, "velocity": 84}, {"time": 873, "pitch": 58, "duration": 4, "velocity": 80}, {"time": 879, "pitch": 58, "duration": 3, "velocity": 84}, {"time": 879, "pitch": 63, "duration": 7, "velocity": 85}, {"time": 879, "pitch": 67, "duration": 7, "velocity": 79}, {"time": 891, "pitch": 63, "duration": 8, "velocity": 83}, {"time": 891, "pitch": 67, "duration": 8, "velocity": 84}, {"time": 897, "pitch": 58, "duration": 4, "velocity": 65}, {"time": 903, "pitch": 51, "duration": 2, "velocity": 86}, {"time": 903, "pitch": 58, "duration": 3, "velocity": 84}, {"time": 903, "pitch": 63, "duration": 6, "velocity": 85}, {"time": 903, "pitch": 67, "duration": 6, "velocity": 81}, {"time": 909, "pitch": 58, "duration": 1, "velocity": 77}, {"time": 915, "pitch": 41, "duration": 7, "velocity": 86}, {"time": 915, "pitch": 60, "duration": 3, "velocity": 79}, {"time": 915, "pitch": 65, "duration": 8, "velocity": 84}, {"time": 915, "pitch": 68, "duration": 7, "velocity": 77}, {"time": 921, "pitch": 60, "duration": 3, "velocity": 73}, {"time": 927, "pitch": 60, "duration": 7, "velocity": 86}, {"time": 927, "pitch": 65, "duration": 7, "velocity": 90}, {"time": 927, "pitch": 68, "duration": 7, "velocity": 84}, {"time": 933, "pitch": 53, "duration": 10, "velocity": 76}, {"time": 936, "pitch": 60, "duration": 2, "velocity": 84}, {"time": 939, "pitch": 60, "duration": 8, "velocity": 86}, {"time": 939, "pitch": 65, "duration": 8, "velocity": 91}, {"time": 939, "pitch": 68, "duration": 8, "velocity": 87}, {"time": 945, "pitch": 53, "duration": 9, "velocity": 80}, {"time": 948, "pitch": 60, "duration": 2, "velocity": 80}, {"time": 951, "pitch": 60, "duration": 3, "velocity": 86}, {"time": 951, "pitch": 65, "duration": 3, "velocity": 95}, {"time": 951, "pitch": 68, "duration": 3, "velocity": 86}, {"time": 954, "pitch": 53, "duration": 9, "velocity": 85}, {"time": 957, "pitch": 60, "duration": 2, "velocity": 80}, {"time": 957, "pitch": 65, "duration": 4, "velocity": 85}, {"time": 957, "pitch": 67, "duration": 5, "velocity": 89}, {"time": 960, "pitch": 60, "duration": 3, "velocity": 80}, {"time": 963, "pitch": 53, "duration": 1, "velocity": 95}, {"time": 963, "pitch": 60, "duration": 2, "velocity": 82}, {"time": 963, "pitch": 65, "duration": 4, "velocity": 85}, {"time": 966, "pitch": 60, "duration": 3, "velocity": 83}, {"time": 969, "pitch": 65, "duration": 2, "velocity": 78}, {"time": 975, "pitch": 60, "duration": 2, "velocity": 87}, {"time": 975, "pitch": 68, "duration": 4, "velocity": 84}, {"time": 978, "pitch": 60, "duration": 3, "velocity": 73}, {"time": 981, "pitch": 65, "duration": 3, "velocity": 79}, {"time": 984, "pitch": 60, "duration": 2, "velocity": 72}, {"time": 987, "pitch": 41, "duration": 15, "velocity": 89}, {"time": 987, "pitch": 60, "duration": 5, "velocity": 84}, {"time": 987, "pitch": 68, "duration": 5, "velocity": 79}, {"time": 993, "pitch": 65, "duration": 3, "velocity": 86}, {"time": 996, "pitch": 60, "duration": 1, "velocity": 78}, {"time": 999, "pitch": 60, "duration": 3, "velocity": 90}, {"time": 999, "pitch": 68, "duration": 5, "velocity": 85}, {"time": 1005, "pitch": 65, "duration": 3, "velocity": 88}, {"time": 1008, "pitch": 60, "duration": 1, "velocity": 78}, {"time": 1011, "pitch": 46, "duration": 23, "velocity": 85}, {"time": 1011, "pitch": 58, "duration": 4, "velocity": 79}, {"time": 1011, "pitch": 61, "duration": 4, "velocity": 83}, {"time": 1014, "pitch": 53, "duration": 13, "velocity": 74}, {"time": 1017, "pitch": 61, "duration": 4, "velocity": 84}, {"time": 1020, "pitch": 58, "duration": 2, "velocity": 79}, {"time": 1023, "pitch": 58, "duration": 5, "velocity": 86}, {"time": 1023, "pitch": 65, "duration": 4, "velocity": 88}, {"time": 1029, "pitch": 53, "duration": 5, "velocity": 79}, {"time": 1032, "pitch": 58, "duration": 2, "velocity": 80}, {"time": 1035, "pitch": 46, "duration": 20, "velocity": 84}, {"time": 1035, "pitch": 58, "duration": 6, "velocity": 77}, {"time": 1035, "pitch": 61, "duration": 6, "velocity": 85}, {"time": 1041, "pitch": 53, "duration": 10, "velocity": 79}, {"time": 1044, "pitch": 58, "duration": 2, "velocity": 77}, {"time": 1047, "pitch": 61, "duration": 4, "velocity": 87}, {"time": 1047, "pitch": 65, "duration": 4, "velocity": 87}, {"time": 1047, "pitch": 68, "duration": 4, "velocity": 84}, {"time": 1050, "pitch": 58, "duration": 3, "velocity": 84}, {"time": 1053, "pitch": 53, "duration": 3, "velocity": 83}, {"time": 1056, "pitch": 58, "duration": 2, "velocity": 84}, {"time": 1059, "pitch": 51, "duration": 18, "velocity": 86}, {"time": 1059, "pitch": 58, "duration": 4, "velocity": 84}, {"time": 1059, "pitch": 63, "duration": 7, "velocity": 84}, {"time": 1065, "pitch": 58, "duration": 4, "velocity": 74}, {"time": 1071, "pitch": 58, "duration": 2, "velocity": 85}, {"time": 1071, "pitch": 67, "duration": 6, "velocity": 88}, {"time": 1074, "pitch": 58, "duration": 4, "velocity": 75}, {"time": 1077, "pitch": 63, "duration": 4, "velocity": 84}, {"time": 1080, "pitch": 58, "duration": 2, "velocity": 80}, {"time": 1083, "pitch": 39, "duration": 6, "velocity": 83}, {"time": 1083, "pitch": 58, "duration": 4, "velocity": 75}, {"time": 1083, "pitch": 63, "duration": 6, "velocity": 83}, {"time": 1089, "pitch": 58, "duration": 3, "velocity": 71}, {"time": 1095, "pitch": 58, "duration": 2, "velocity": 85}, {"time": 1095, "pitch": 67, "duration": 7, "velocity": 84}, {"time": 1098, "pitch": 58, "duration": 4, "velocity": 75}, {"time": 1101, "pitch": 63, "duration": 2, "velocity": 84}, {"time": 1104, "pitch": 58, "duration": 2, "velocity": 71}, {"time": 1107, "pitch": 44, "duration": 17, "velocity": 84}, {"time": 1107, "pitch": 56, "duration": 4, "velocity": 81}, {"time": 1107, "pitch": 60, "duration": 6, "velocity": 83}, {"time": 1110, "pitch": 51, "duration": 10, "velocity": 80}, {"time": 1113, "pitch": 56, "duration": 4, "velocity": 83}, {"time": 1119, "pitch": 56, "duration": 4, "velocity": 84}, {"time": 1119, "pitch": 63, "duration": 5, "velocity": 85}, {"time": 1122, "pitch": 51, "duration": 3, "velocity": 82}, {"time": 1125, "pitch": 56, "duration": 2, "velocity": 84}, {"time": 1131, "pitch": 56, "duration": 7, "velocity": 77}, {"time": 1131, "pitch": 63, "duration": 9, "velocity": 84}, {"time": 1137, "pitch": 44, "duration": 10, "velocity": 74}, {"time": 1140, "pitch": 51, "duration": 4, "velocity": 78}, {"time": 1143, "pitch": 56, "duration": 4, "velocity": 86}, {"time": 1143, "pitch": 60, "duration": 5, "velocity": 88}, {"time": 1143, "pitch": 63, "duration": 6, "velocity": 86}, {"time": 1146, "pitch": 51, "duration": 2, "velocity": 85}, {"time": 1149, "pitch": 56, "duration": 2, "velocity": 89}, {"time": 1155, "pitch": 41, "duration": 22, "velocity": 86}, {"time": 1155, "pitch": 53, "duration": 4, "velocity": 85}, {"time": 1155, "pitch": 56, "duration": 4, "velocity": 84}, {"time": 1158, "pitch": 48, "duration": 14, "velocity": 71}, {"time": 1161, "pitch": 60, "duration": 4, "velocity": 76}, {"time": 1164, "pitch": 56, "duration": 1, "velocity": 66}, {"time": 1167, "pitch": 65, "duration": 2, "velocity": 91}, {"time": 1173, "pitch": 60, "duration": 2, "velocity": 78}, {"time": 1173, "pitch": 65, "duration": 4, "velocity": 80}, {"time": 1176, "pitch": 60, "duration": 5, "velocity": 74}, {"time": 1179, "pitch": 41, "duration": 16, "velocity": 88}, {"time": 1179, "pitch": 65, "duration": 4, "velocity": 84}, {"time": 1179, "pitch": 68, "duration": 7, "velocity": 75}, {"time": 1182, "pitch": 48, "duration": 12, "velocity": 73}, {"time": 1185, "pitch": 60, "duration": 4, "velocity": 78}, {"time": 1188, "pitch": 65, "duration": 2, "velocity": 80}, {"time": 1191, "pitch": 60, "duration": 7, "velocity": 85}, {"time": 1191, "pitch": 68, "duration": 7, "velocity": 85}, {"time": 1197, "pitch": 65, "duration": 1, "velocity": 86}, {"time": 1203, "pitch": 46, "duration": 22, "velocity": 85}, {"time": 1203, "pitch": 58, "duration": 7, "velocity": 73}, {"time": 1203, "pitch": 61, "duration": 9, "velocity": 79}, {"time": 1209, "pitch": 53, "duration": 16, "velocity": 80}, {"time": 1215, "pitch": 58, "duration": 2, "velocity": 84}, {"time": 1215, "pitch": 65, "duration": 5, "velocity": 86}, {"time": 1218, "pitch": 58, "duration": 3, "velocity": 76}, {"time": 1221, "pitch": 61, "duration": 2, "velocity": 75}, {"time": 1224, "pitch": 58, "duration": 4, "velocity": 71}, {"time": 1227, "pitch": 46, "duration": 22, "velocity": 82}, {"time": 1227, "pitch": 70, "duration": 6, "velocity": 86}, {"time": 1230, "pitch": 58, "duration": 3, "velocity": 78}, {"time": 1233, "pitch": 61, "duration": 2, "velocity": 75}, {"time": 1236, "pitch": 58, "duration": 2, "velocity": 62}, {"time": 1239, "pitch": 58, "duration": 9, "velocity": 79}, {"time": 1239, "pitch": 61, "duration": 8, "velocity": 87}, {"time": 1239, "pitch": 65, "duration": 10, "velocity": 86}, {"time": 1245, "pitch": 53, "duration": 5, "velocity": 82}, {"time": 1251, "pitch": 51, "duration": 22, "velocity": 87}, {"time": 1251, "pitch": 58, "duration": 3, "velocity": 80}, {"time": 1251, "pitch": 63, "duration": 9, "velocity": 79}, {"time": 1257, "pitch": 58, "duration": 4, "velocity": 72}, {"time": 1263, "pitch": 58, "duration": 2, "velocity": 85}, {"time": 1263, "pitch": 63, "duration": 4, "velocity": 89}, {"time": 1263, "pitch": 67, "duration": 6, "velocity": 89}, {"time": 1266, "pitch": 58, "duration": 4, "velocity": 75}, {"time": 1269, "pitch": 63, "duration": 4, "velocity": 76}, {"time": 1272, "pitch": 58, "duration": 2, "velocity": 65}, {"time": 1275, "pitch": 51, "duration": 15, "velocity": 84}, {"time": 1275, "pitch": 58, "duration": 3, "velocity": 73}, {"time": 1275, "pitch": 63, "duration": 7, "velocity": 84}, {"time": 1275, "pitch": 67, "duration": 10, "velocity": 81}, {"time": 1281, "pitch": 58, "duration": 4, "velocity": 68}, {"time": 1287, "pitch": 58, "duration": 3, "velocity": 85}, {"time": 1287, "pitch": 63, "duration": 11, "velocity": 88}, {"time": 1293, "pitch": 58, "duration": 3, "velocity": 78}, {"time": 1299, "pitch": 41, "duration": 23, "velocity": 87}, {"time": 1299, "pitch": 60, "duration": 9, "velocity": 80}, {"time": 1299, "pitch": 65, "duration": 8, "velocity": 84}, {"time": 1305, "pitch": 48, "duration": 16, "velocity": 72}, {"time": 1311, "pitch": 60, "duration": 2, "velocity": 84}, {"time": 1311, "pitch": 65, "duration": 3, "velocity": 86}, {"time": 1311, "pitch": 68, "duration": 4, "velocity": 83}, {"time": 1314, "pitch": 60, "duration": 4, "velocity": 78}, {"time": 1317, "pitch": 65, "duration": 4, "velocity": 79}, {"time": 1320, "pitch": 60, "duration": 2, "velocity": 66}, {"time": 1323, "pitch": 41, "duration": 24, "velocity": 83}, {"time": 1323, "pitch": 60, "duration": 8, "velocity": 79}, {"time": 1323, "pitch": 65, "duration": 8, "velocity": 84}, {"time": 1329, "pitch": 48, "duration": 18, "velocity": 70}, {"time": 1335, "pitch": 60, "duration": 3, "velocity": 83}, {"time": 1335, "pitch": 65, "duration": 12, "velocity": 87}, {"time": 1335, "pitch": 68, "duration": 12, "velocity": 84}, {"time": 1341, "pitch": 60, "duration": 5, "velocity": 80}, {"time": 1347, "pitch": 53, "duration": 15, "velocity": 95}, {"time": 1347, "pitch": 60, "duration": 2, "velocity": 82}, {"time": 1347, "pitch": 65, "duration": 4, "velocity": 85}, {"time": 1350, "pitch": 60, "duration": 3, "velocity": 83}, {"time": 1353, "pitch": 65, "duration": 2, "velocity": 78}, {"time": 1359, "pitch": 60, "duration": 2, "velocity": 87}, {"time": 1359, "pitch": 68, "duration": 4, "velocity": 84}, {"time": 1362, "pitch": 60, "duration": 3, "velocity": 73}, {"time": 1365, "pitch": 65, "duration": 3, "velocity": 79}, {"time": 1368, "pitch": 60, "duration": 2, "velocity": 72}, {"time": 1371, "pitch": 41, "duration": 15, "velocity": 89}, {"time": 1371, "pitch": 60, "duration": 5, "velocity": 84}, {"time": 1371, "pitch": 68, "duration": 5, "velocity": 79}, {"time": 1377, "pitch": 65, "duration": 3, "velocity": 86}, {"time": 1380, "pitch": 60, "duration": 1, "velocity": 78}, {"time": 1383, "pitch": 60, "duration": 3, "velocity": 90}, {"time": 1383, "pitch": 68, "duration": 5, "velocity": 85}, {"time": 1389, "pitch": 65, "duration": 3, "velocity": 88}, {"time": 1392, "pitch": 60, "duration": 1, "velocity": 78}, {"time": 1395, "pitch": 46, "duration": 23, "velocity": 85}, {"time": 1395, "pitch": 58, "duration": 4, "velocity": 79}, {"time": 1395, "pitch": 61, "duration": 4, "velocity": 83}, {"time": 1398, "pitch": 53, "duration": 13, "velocity": 74}, {"time": 1401, "pitch": 61, "duration": 4, "velocity": 84}, {"time": 1404, "pitch": 58, "duration": 2, "velocity": 79}, {"time": 1407, "pitch": 58, "duration": 5, "velocity": 86}, {"time": 1407, "pitch": 65, "duration": 4, "velocity": 88}, {"time": 1413, "pitch": 53, "duration": 5, "velocity": 79}, {"time": 1416, "pitch": 58, "duration": 2, "velocity": 80}, {"time": 1419, "pitch": 46, "duration": 20, "velocity": 84}, {"time": 1419, "pitch": 58, "duration": 6, "velocity": 77}, {"time": 1419, "pitch": 61, "duration": 6, "velocity": 85}, {"time": 1425, "pitch": 53, "duration": 10, "velocity": 79}, {"time": 1428, "pitch": 58, "duration": 2, "velocity": 77}, {"time": 1431, "pitch": 61, "duration": 4, "velocity": 87}, {"time": 1431, "pitch": 65, "duration": 4, "velocity": 87}, {"time": 1431, "pitch": 68, "duration": 4, "velocity": 84}, {"time": 1434, "pitch": 58, "duration": 3, "velocity": 84}, {"time": 1437, "pitch": 53, "duration": 3, "velocity": 83}, {"time": 1440, "pitch": 58, "duration": 2, "velocity": 84}, {"time": 1443, "pitch": 51, "duration": 18, "velocity": 86}, {"time": 1443, "pitch": 58, "duration": 4, "velocity": 84}, {"time": 1443, "pitch": 63, "duration": 7, "velocity": 84}, {"time": 1449, "pitch": 58, "duration": 4, "velocity": 74}, {"time": 1455, "pitch": 58, "duration": 2, "velocity": 85}, {"time": 1455, "pitch": 67, "duration": 6, "velocity": 88}, {"time": 1458, "pitch": 58, "duration": 4, "velocity": 75}, {"time": 1461, "pitch": 63, "duration": 4, "velocity": 84}, {"time": 1464, "pitch": 58, "duration": 2, "velocity": 80}, {"time": 1467, "pitch": 39, "duration": 6, "velocity": 83}, {"time": 1467, "pitch": 58, "duration": 4, "velocity": 75}, {"time": 1467, "pitch": 63, "duration": 6, "velocity": 83}, {"time": 1473, "pitch": 58, "duration": 3, "velocity": 71}, {"time": 1479, "pitch": 58, "duration": 2, "velocity": 85}, {"time": 1479, "pitch": 67, "duration": 7, "velocity": 84}, {"time": 1482, "pitch": 58, "duration": 4, "velocity": 75}, {"time": 1485, "pitch": 63, "duration": 2, "velocity": 84}, {"time": 1488, "pitch": 58, "duration": 2, "velocity": 71}, {"time": 1491, "pitch": 44, "duration": 17, "velocity": 84}, {"time": 1491, "pitch": 56, "duration": 4, "velocity": 81}, {"time": 1491, "pitch": 60, "duration": 6, "velocity": 83}, {"time": 1494, "pitch": 51, "duration": 10, "velocity": 80}, {"time": 1497, "pitch": 56, "duration": 4, "velocity": 83}, {"time": 1503, "pitch": 56, "duration": 4, "velocity": 84}, {"time": 1503, "pitch": 63, "duration": 5, "velocity": 85}, {"time": 1506, "pitch": 51, "duration": 3, "velocity": 82}, {"time": 1509, "pitch": 56, "duration": 2, "velocity": 84}, {"time": 1515, "pitch": 56, "duration": 7, "velocity": 77}, {"time": 1515, "pitch": 63, "duration": 9, "velocity": 84}, {"time": 1521, "pitch": 44, "duration": 10, "velocity": 74}, {"time": 1524, "pitch": 51, "duration": 4, "velocity": 78}, {"time": 1527, "pitch": 56, "duration": 4, "velocity": 86}, {"time": 1527, "pitch": 60, "duration": 5, "velocity": 88}, {"time": 1527, "pitch": 63, "duration": 6, "velocity": 86}, {"time": 1530, "pitch": 51, "duration": 2, "velocity": 85}, {"time": 1533, "pitch": 56, "duration": 2, "velocity": 89}, {"time": 1539, "pitch": 48, "duration": 22, "velocity": 86}, {"time": 1539, "pitch": 60, "duration": 4, "velocity": 81}, {"time": 1539, "pitch": 64, "duration": 6, "velocity": 77}, {"time": 1542, "pitch": 55, "duration": 10, "velocity": 69}, {"time": 1545, "pitch": 60, "duration": 4, "velocity": 84}, {"time": 1548, "pitch": 64, "duration": 2, "velocity": 79}, {"time": 1551, "pitch": 60, "duration": 4, "velocity": 86}, {"time": 1551, "pitch": 64, "duration": 4, "velocity": 91}, {"time": 1551, "pitch": 67, "duration": 7, "velocity": 85}, {"time": 1554, "pitch": 55, "duration": 8, "velocity": 73}, {"time": 1557, "pitch": 60, "duration": 9, "velocity": 81}, {"time": 1560, "pitch": 64, "duration": 7, "velocity": 86}, {"time": 1563, "pitch": 48, "duration": 17, "velocity": 85}, {"time": 1563, "pitch": 72, "duration": 8, "velocity": 86}, {"time": 1566, "pitch": 55, "duration": 10, "velocity": 69}, {"time": 1569, "pitch": 60, "duration": 4, "velocity": 84}, {"time": 1572, "pitch": 64, "duration": 2, "velocity": 82}, {"time": 1575, "pitch": 60, "duration": 4, "velocity": 87}, {"time": 1575, "pitch": 64, "duration": 5, "velocity": 90}, {"time": 1575, "pitch": 67, "duration": 6, "velocity": 87}, {"time": 1578, "pitch": 55, "duration": 2, "velocity": 71}, {"time": 1581, "pitch": 48, "duration": 5, "velocity": 81}, {"time": 1587, "pitch": 53, "duration": 15, "velocity": 91}, {"time": 1587, "pitch": 60, "duration": 2, "velocity": 80}, {"time": 1587, "pitch": 65, "duration": 4, "velocity": 85}, {"time": 1590, "pitch": 60, "duration": 4, "velocity": 84}, {"time": 1593, "pitch": 65, "duration": 4, "velocity": 78}, {"time": 1596, "pitch": 60, "duration": 2, "velocity": 74}, {"time": 1599, "pitch": 60, "duration": 2, "velocity": 86}, {"time": 1599, "pitch": 65, "duration": 4, "velocity": 89}, {"time": 1599, "pitch": 68, "duration": 5, "velocity": 85}, {"time": 1602, "pitch": 60, "duration": 4, "velocity": 78}, {"time": 1605, "pitch": 65, "duration": 3, "velocity": 76}, {"time": 1608, "pitch": 60, "duration": 1, "velocity": 68}, {"time": 1611, "pitch": 49, "duration": 16, "velocity": 86}, {"time": 1611, "pitch": 61, "duration": 4, "velocity": 81}, {"time": 1611, "pitch": 65, "duration": 6, "velocity": 84}, {"time": 1614, "pitch": 56, "duration": 10, "velocity": 74}, {"time": 1617, "pitch": 61, "duration": 4, "velocity": 80}, {"time": 1620, "pitch": 65, "duration": 1, "velocity": 71}, {"time": 1623, "pitch": 61, "duration": 4, "velocity": 85}, {"time": 1623, "pitch": 65, "duration": 6, "velocity": 95}, {"time": 1623, "pitch": 68, "duration": 6, "velocity": 85}, {"time": 1626, "pitch": 56, "duration": 3, "velocity": 81}, {"time": 1629, "pitch": 49, "duration": 2, "velocity": 86}, {"time": 1635, "pitch": 46, "duration": 23, "velocity": 85}, {"time": 1635, "pitch": 58, "duration": 4, "velocity": 73}, {"time": 1635, "pitch": 61, "duration": 7, "velocity": 84}, {"time": 1638, "pitch": 53, "duration": 19, "velocity": 75}, {"time": 1641, "pitch": 58, "duration": 5, "velocity": 77}, {"time": 1644, "pitch": 61, "duration": 2, "velocity": 69}, {"time": 1647, "pitch": 65, "duration": 4, "velocity": 90}, {"time": 1650, "pitch": 58, "duration": 7, "velocity": 77}, {"time": 1653, "pitch": 61, "duration": 4, "velocity": 74}, {"time": 1656, "pitch": 65, "duration": 5, "velocity": 79}, {"time": 1659, "pitch": 46, "duration": 16, "velocity": 85}, {"time": 1659, "pitch": 58, "duration": 2, "velocity": 55}, {"time": 1659, "pitch": 61, "duration": 1, "velocity": 71}, {"time": 1659, "pitch": 70, "duration": 9, "velocity": 83}, {"time": 1662, "pitch": 53, "duration": 11, "velocity": 78}, {"time": 1665, "pitch": 58, "duration": 5, "velocity": 76}, {"time": 1668, "pitch": 61, "duration": 2, "velocity": 74}, {"time": 1671, "pitch": 58, "duration": 5, "velocity": 86}, {"time": 1671, "pitch": 61, "duration": 6, "velocity": 91}, {"time": 1671, "pitch": 65, "duration": 7, "velocity": 93}, {"time": 1674, "pitch": 53, "duration": 2, "velocity": 84}, {"time": 1677, "pitch": 46, "duration": 4, "velocity": 86}, {"time": 1683, "pitch": 48, "duration": 23, "velocity": 86}, {"time": 1683, "pitch": 60, "duration": 4, "velocity": 82}, {"time": 1683, "pitch": 64, "duration": 10, "velocity": 79}, {"time": 1689, "pitch": 55, "duration": 15, "velocity": 70}, {"time": 1692, "pitch": 60, "duration": 3, "velocity": 84}, {"time": 1695, "pitch": 67, "duration": 6, "velocity": 86}, {"time": 1698, "pitch": 60, "duration": 7, "velocity": 85}, {"time": 1701, "pitch": 64, "duration": 4, "velocity": 85}, {"time": 1704, "pitch": 67, "duration": 2, "velocity": 84}, {"time": 1707, "pitch": 48, "duration": 14, "velocity": 85}, {"time": 1707, "pitch": 60, "duration": 8, "velocity": 84}, {"time": 1707, "pitch": 64, "duration": 7, "velocity": 79}, {"time": 1707, "pitch": 67, "duration": 7, "velocity": 74}, {"time": 1707, "pitch": 72, "duration": 7, "velocity": 84}, {"time": 1713, "pitch": 55, "duration": 8, "velocity": 71}, {"time": 1719, "pitch": 60, "duration": 3, "velocity": 85}, {"time": 1719, "pitch": 64, "duration": 10, "velocity": 86}, {"time": 1719, "pitch": 67, "duration": 10, "velocity": 83}, {"time": 1725, "pitch": 60, "duration": 4, "velocity": 84}, {"time": 1731, "pitch": 41, "duration": 15, "velocity": 87}, {"time": 1731, "pitch": 60, "duration": 3, "velocity": 79}, {"time": 1731, "pitch": 65, "duration": 7, "velocity": 83}, {"time": 1737, "pitch": 60, "duration": 5, "velocity": 82}, {"time": 1743, "pitch": 60, "duration": 3, "velocity": 82}, {"time": 1743, "pitch": 65, "duration": 4, "velocity": 85}, {"time": 1743, "pitch": 68, "duration": 4, "velocity": 79}, {"time": 1755, "pitch": 60, "duration": 2, "velocity": 84}, {"time": 1755, "pitch": 65, "duration": 4, "velocity": 86}, {"time": 1755, "pitch": 68, "duration": 6, "velocity": 83}, {"time": 1761, "pitch": 60, "duration": 14, "velocity": 72}, {"time": 1767, "pitch": 65, "duration": 8, "velocity": 88}, {"time": 1767, "pitch": 68, "duration": 8, "velocity": 85}, {"time": 1773, "pitch": 48, "duration": 4, "velocity": 86}, {"time": 1779, "pitch": 46, "duration": 39, "velocity": 85}, {"time": 1779, "pitch": 58, "duration": 9, "velocity": 74}, {"time": 1779, "pitch": 61, "duration": 9, "velocity": 75}, {"time": 1779, "pitch": 65, "duration": 8, "velocity": 84}, {"time": 1785, "pitch": 53, "duration": 10, "velocity": 73}, {"time": 1791, "pitch": 58, "duration": 4, "velocity": 80}, {"time": 1791, "pitch": 61, "duration": 6, "velocity": 84}, {"time": 1791, "pitch": 65, "duration": 6, "velocity": 86}, {"time": 1797, "pitch": 53, "duration": 21, "velocity": 74}, {"time": 1803, "pitch": 58, "duration": 5, "velocity": 76}, {"time": 1803, "pitch": 61, "duration": 5, "velocity": 82}, {"time": 1803, "pitch": 65, "duration": 5, "velocity": 83}, {"time": 1815, "pitch": 58, "duration": 6, "velocity": 84}, {"time": 1815, "pitch": 61, "duration": 6, "velocity": 89}, {"time": 1815, "pitch": 65, "duration": 6, "velocity": 88}, {"time": 1821, "pitch": 49, "duration": 5, "velocity": 77}, {"time": 1827, "pitch": 51, "duration": 16, "velocity": 88}, {"time": 1827, "pitch": 58, "duration": 4, "velocity": 74}, {"time": 1827, "pitch": 63, "duration": 8, "velocity": 82}, {"time": 1833, "pitch": 58, "duration": 4, "velocity": 78}, {"time": 1839, "pitch": 58, "duration": 3, "velocity": 84}, {"time": 1839, "pitch": 63, "duration": 6, "velocity": 85}, {"time": 1839, "pitch": 67, "duration": 6, "velocity": 79}, {"time": 1851, "pitch": 58, "duration": 9, "velocity": 79}, {"time": 1851, "pitch": 63, "duration": 9, "velocity": 85}, {"time": 1851, "pitch": 67, "duration": 9, "velocity": 83}, {"time": 1863, "pitch": 58, "duration": 7, "velocity": 84}, {"time": 1863, "pitch": 63, "duration": 7, "velocity": 86}, {"time": 1863, "pitch": 67, "duration": 7, "velocity": 84}, {"time": 1875, "pitch": 44, "duration": 19, "velocity": 85}, {"time": 1875, "pitch": 56, "duration": 9, "velocity": 76}, {"time": 1875, "pitch": 60, "duration": 8, "velocity": 78}, {"time": 1881, "pitch": 51, "duration": 9, "velocity": 74}, {"time": 1887, "pitch": 56, "duration": 3, "velocity": 84}, {"time": 1887, "pitch": 60, "duration": 4, "velocity": 86}, {"time": 1887, "pitch": 63, "duration": 5, "velocity": 85}, {"time": 1893, "pitch": 56, "duration": 3, "velocity": 73}, {"time": 1899, "pitch": 56, "duration": 5, "velocity": 80}, {"time": 1899, "pitch": 60, "duration": 7, "velocity": 82}, {"time": 1899, "pitch": 63, "duration": 7, "velocity": 79}, {"time": 1911, "pitch": 56, "duration": 7, "velocity": 88}, {"time": 1911, "pitch": 60, "duration": 6, "velocity": 88}, {"time": 1911, "pitch": 63, "duration": 6, "velocity": 86}, {"time": 1917, "pitch": 43, "duration": 5, "velocity": 83}, {"time": 1923, "pitch": 41, "duration": 42, "velocity": 88}, {"time": 1923, "pitch": 53, "duration": 7, "velocity": 81}, {"time": 1923, "pitch": 56, "duration": 7, "velocity": 83}, {"time": 1929, "pitch": 48, "duration": 22, "velocity": 71}, {"time": 1935, "pitch": 53, "duration": 3, "velocity": 84}, {"time": 1935, "pitch": 56, "duration": 3, "velocity": 84}, {"time": 1935, "pitch": 60, "duration": 3, "velocity": 84}, {"time": 1947, "pitch": 56, "duration": 8, "velocity": 85}, {"time": 1947, "pitch": 60, "duration": 8, "velocity": 85}, {"time": 1953, "pitch": 48, "duration": 12, "velocity": 78}, {"time": 1959, "pitch": 53, "duration": 1, "velocity": 28}, {"time": 1959, "pitch": 56, "duration": 5, "velocity": 85}, {"time": 1959, "pitch": 60, "duration": 6, "velocity": 85}, {"time": 1959, "pitch": 65, "duration": 8, "velocity": 88}, {"time": 1965, "pitch": 53, "duration": 2, "velocity": 80}, {"time": 1971, "pitch": 46, "duration": 20, "velocity": 85}, {"time": 1971, "pitch": 58, "duration": 8, "velocity": 78}, {"time": 1971, "pitch": 61, "duration": 7, "velocity": 78}, {"time": 1977, "pitch": 53, "duration": 14, "velocity": 71}, {"time": 1983, "pitch": 58, "duration": 3, "velocity": 77}, {"time": 1983, "pitch": 61, "duration": 5, "velocity": 84}, {"time": 1983, "pitch": 65, "duration": 5, "velocity": 84}, {"time": 1995, "pitch": 58, "duration": 3, "velocity": 80}, {"time": 1995, "pitch": 61, "duration": 8, "velocity": 84}, {"time": 1995, "pitch": 65, "duration": 7, "velocity": 84}, {"time": 2001, "pitch": 58, "duration": 4, "velocity": 66}, {"time": 2007, "pitch": 58, "duration": 2, "velocity": 84}, {"time": 2007, "pitch": 61, "duration": 6, "velocity": 86}, {"time": 2007, "pitch": 65, "duration": 6, "velocity": 85}, {"time": 2013, "pitch": 58, "duration": 4, "velocity": 76}, {"time": 2019, "pitch": 39, "duration": 6, "velocity": 88}, {"time": 2019, "pitch": 58, "duration": 3, "velocity": 84}, {"time": 2019, "pitch": 63, "duration": 8, "velocity": 84}, {"time": 2025, "pitch": 58, "duration": 4, "velocity": 80}, {"time": 2031, "pitch": 58, "duration": 3, "velocity": 84}, {"time": 2031, "pitch": 63, "duration": 7, "velocity": 85}, {"time": 2031, "pitch": 67, "duration": 7, "velocity": 79}, {"time": 2043, "pitch": 63, "duration": 8, "velocity": 83}, {"time": 2043, "pitch": 67, "duration": 8, "velocity": 84}, {"time": 2049, "pitch": 58, "duration": 4, "velocity": 65}, {"time": 2055, "pitch": 51, "duration": 2, "velocity": 86}, {"time": 2055, "pitch": 58, "duration": 3, "velocity": 84}, {"time": 2055, "pitch": 63, "duration": 6, "velocity": 85}, {"time": 2055, "pitch": 67, "duration": 6, "velocity": 81}, {"time": 2061, "pitch": 58, "duration": 1, "velocity": 77}, {"time": 2067, "pitch": 48, "duration": 36, "velocity": 85}, {"time": 2067, "pitch": 60, "duration": 7, "velocity": 83}, {"time": 2067, "pitch": 64, "duration": 7, "velocity": 79}, {"time": 2067, "pitch": 67, "duration": 7, "velocity": 84}, {"time": 2073, "pitch": 55, "duration": 9, "velocity": 64}, {"time": 2079, "pitch": 60, "duration": 7, "velocity": 84}, {"time": 2079, "pitch": 64, "duration": 7, "velocity": 84}, {"time": 2079, "pitch": 67, "duration": 7, "velocity": 82}, {"time": 2085, "pitch": 55, "duration": 9, "velocity": 68}, {"time": 2091, "pitch": 60, "duration": 9, "velocity": 84}, {"time": 2091, "pitch": 64, "duration": 8, "velocity": 84}, {"time": 2091, "pitch": 67, "duration": 9, "velocity": 79}, {"time": 2097, "pitch": 55, "duration": 5, "velocity": 59}, {"time": 2103, "pitch": 60, "duration": 13, "velocity": 85}, {"time": 2103, "pitch": 64, "duration": 13, "velocity": 84}, {"time": 2103, "pitch": 67, "duration": 13, "velocity": 84}, {"time": 2109, "pitch": 43, "duration": 3, "velocity": 79}, {"time": 2112, "pitch": 44, "duration": 3, "velocity": 85}, {"time": 2115, "pitch": 41, "duration": 15, "velocity": 87}, {"time": 2115, "pitch": 60, "duration": 1, "velocity": 79}, {"time": 2115, "pitch": 65, "duration": 7, "velocity": 83}, {"time": 2121, "pitch": 60, "duration": 5, "velocity": 82}, {"time": 2127, "pitch": 60, "duration": 3, "velocity": 82}, {"time": 2127, "pitch": 65, "duration": 4, "velocity": 85}, {"time": 2127, "pitch": 68, "duration": 4, "velocity": 79}, {"time": 2139, "pitch": 60, "duration": 2, "velocity": 84}, {"time": 2139, "pitch": 65, "duration": 4, "velocity": 86}, {"time": 2139, "pitch": 68, "duration": 6, "velocity": 83}, {"time": 2145, "pitch": 60, "duration": 14, "velocity": 72}, {"time": 2151, "pitch": 65, "duration": 8, "velocity": 88}, {"time": 2151, "pitch": 68, "duration": 8, "velocity": 85}, {"time": 2157, "pitch": 48, "duration": 4, "velocity": 86}, {"time": 2163, "pitch": 46, "duration": 39, "velocity": 85}, {"time": 2163, "pitch": 58, "duration": 9, "velocity": 74}, {"time": 2163, "pitch": 61, "duration": 9, "velocity": 75}, {"time": 2163, "pitch": 65, "duration": 8, "velocity": 84}, {"time": 2169, "pitch": 53, "duration": 10, "velocity": 73}, {"time": 2175, "pitch": 58, "duration": 4, "velocity": 80}, {"time": 2175, "pitch": 61, "duration": 6, "velocity": 84}, {"time": 2175, "pitch": 65, "duration": 6, "velocity": 86}, {"time": 2181, "pitch": 53, "duration": 21, "velocity": 74}, {"time": 2187, "pitch": 58, "duration": 5, "velocity": 76}, {"time": 2187, "pitch": 61, "duration": 5, "velocity": 82}, {"time": 2187, "pitch": 65, "duration": 5, "velocity": 83}, {"time": 2199, "pitch": 58, "duration": 6, "velocity": 84}, {"time": 2199, "pitch": 61, "duration": 6, "velocity": 89}, {"time": 2199, "pitch": 65, "duration": 6, "velocity": 88}, {"time": 2205, "pitch": 49, "duration": 5, "velocity": 77}, {"time": 2211, "pitch": 51, "duration": 16, "velocity": 88}, {"time": 2211, "pitch": 58, "duration": 4, "velocity": 74}, {"time": 2211, "pitch": 63, "duration": 8, "velocity": 82}, {"time": 2217, "pitch": 58, "duration": 4, "velocity": 78}, {"time": 2223, "pitch": 58, "duration": 3, "velocity": 84}, {"time": 2223, "pitch": 63, "duration": 6, "velocity": 85}, {"time": 2223, "pitch": 67, "duration": 6, "velocity": 79}, {"time": 2235, "pitch": 58, "duration": 9, "velocity": 79}, {"time": 2235, "pitch": 63, "duration": 9, "velocity": 85}, {"time": 2235, "pitch": 67, "duration": 9, "velocity": 83}, {"time": 2247, "pitch": 58, "duration": 7, "velocity": 84}, {"time": 2247, "pitch": 63, "duration": 7, "velocity": 86}, {"time": 2247, "pitch": 67, "duration": 7, "velocity": 84}, {"time": 2259, "pitch": 44, "duration": 19, "velocity": 85}, {"time": 2259, "pitch": 56, "duration": 9, "velocity": 76}, {"time": 2259, "pitch": 60, "duration": 8, "velocity": 78}, {"time": 2265, "pitch": 51, "duration": 9, "velocity": 74}, {"time": 2271, "pitch": 56, "duration": 3, "velocity": 84}, {"time": 2271, "pitch": 60, "duration": 4, "velocity": 86}, {"time": 2271, "pitch": 63, "duration": 5, "velocity": 85}, {"time": 2277, "pitch": 56, "duration": 3, "velocity": 73}, {"time": 2283, "pitch": 56, "duration": 5, "velocity": 80}, {"time": 2283, "pitch": 60, "duration": 7, "velocity": 82}, {"time": 2283, "pitch": 63, "duration": 7, "velocity": 79}, {"time": 2295, "pitch": 56, "duration": 7, "velocity": 88}, {"time": 2295, "pitch": 60, "duration": 6, "velocity": 88}, {"time": 2295, "pitch": 63, "duration": 6, "velocity": 86}, {"time": 2301, "pitch": 43, "duration": 5, "velocity": 83}, {"time": 2307, "pitch": 41, "duration": 42, "velocity": 88}, {"time": 2307, "pitch": 53, "duration": 7, "velocity": 81}, {"time": 2307, "pitch": 56, "duration": 7, "velocity": 83}, {"time": 2313, "pitch": 48, "duration": 22, "velocity": 71}, {"time": 2319, "pitch": 53, "duration": 3, "velocity": 84}, {"time": 2319, "pitch": 56, "duration": 3, "velocity": 84}, {"time": 2319, "pitch": 60, "duration": 3, "velocity": 84}, {"time": 2331, "pitch": 56, "duration": 8, "velocity": 85}, {"time": 2331, "pitch": 60, "duration": 8, "velocity": 85}, {"time": 2337, "pitch": 48, "duration": 12, "velocity": 78}, {"time": 2343, "pitch": 53, "duration": 1, "velocity": 28}, {"time": 2343, "pitch": 56, "duration": 5, "velocity": 85}, {"time": 2343, "pitch": 60, "duration": 6, "velocity": 85}, {"time": 2343, "pitch": 65, "duration": 8, "velocity": 88}, {"time": 2349, "pitch": 53, "duration": 2, "velocity": 80}, {"time": 2355, "pitch": 46, "duration": 20, "velocity": 85}, {"time": 2355, "pitch": 58, "duration": 8, "velocity": 78}, {"time": 2355, "pitch": 61, "duration": 7, "velocity": 78}, {"time": 2361, "pitch": 53, "duration": 14, "velocity": 71}, {"time": 2367, "pitch": 58, "duration": 3, "velocity": 77}, {"time": 2367, "pitch": 61, "duration": 5, "velocity": 84}, {"time": 2367, "pitch": 65, "duration": 5, "velocity": 84}, {"time": 2379, "pitch": 58, "duration": 3, "velocity": 80}, {"time": 2379, "pitch": 61, "duration": 8, "velocity": 84}, {"time": 2379, "pitch": 65, "duration": 7, "velocity": 84}, {"time": 2385, "pitch": 58, "duration": 4, "velocity": 66}, {"time": 2391, "pitch": 58, "duration": 2, "velocity": 84}, {"time": 2391, "pitch": 61, "duration": 6, "velocity": 86}, {"time": 2391, "pitch": 65, "duration": 6, "velocity": 85}, {"time": 2397, "pitch": 58, "duration": 4, "velocity": 76}, {"time": 2403, "pitch": 39, "duration": 6, "velocity": 88}, {"time": 2403, "pitch": 58, "duration": 3, "velocity": 84}, {"time": 2403, "pitch": 63, "duration": 8, "velocity": 84}, {"time": 2409, "pitch": 58, "duration": 4, "velocity": 80}, {"time": 2415, "pitch": 58, "duration": 3, "velocity": 84}, {"time": 2415, "pitch": 63, "duration": 7, "velocity": 85}, {"time": 2415, "pitch": 67, "duration": 7, "velocity": 79}, {"time": 2427, "pitch": 63, "duration": 8, "velocity": 83}, {"time": 2427, "pitch": 67, "duration": 8, "velocity": 84}, {"time": 2433, "pitch": 58, "duration": 4, "velocity": 65}, {"time": 2439, "pitch": 51, "duration": 2, "velocity": 86}, {"time": 2439, "pitch": 58, "duration": 3, "velocity": 84}, {"time": 2439, "pitch": 63, "duration": 6, "velocity": 85}, {"time": 2439, "pitch": 67, "duration": 6, "velocity": 81}, {"time": 2445, "pitch": 58, "duration": 1, "velocity": 77}, {"time": 2451, "pitch": 41, "duration": 7, "velocity": 86}, {"time": 2451, "pitch": 60, "duration": 3, "velocity": 79}, {"time": 2451, "pitch": 65, "duration": 8, "velocity": 84}, {"time": 2451, "pitch": 68, "duration": 7, "velocity": 77}, {"time": 2457, "pitch": 60, "duration": 3, "velocity": 73}, {"time": 2463, "pitch": 60, "duration": 7, "velocity": 86}, {"time": 2463, "pitch": 65, "duration": 7, "velocity": 90}, {"time": 2463, "pitch": 68, "duration": 7, "velocity": 84}, {"time": 2469, "pitch": 53, "duration": 10, "velocity": 76}, {"time": 2472, "pitch": 60, "duration": 2, "velocity": 84}, {"time": 2475, "pitch": 60, "duration": 8, "velocity": 86}, {"time": 2475, "pitch": 65, "duration": 8, "velocity": 91}, {"time": 2475, "pitch": 68, "duration": 8, "velocity": 87}, {"time": 2481, "pitch": 53, "duration": 9, "velocity": 80}, {"time": 2484, "pitch": 60, "duration": 2, "velocity": 80}, {"time": 2487, "pitch": 60, "duration": 3, "velocity": 86}, {"time": 2487, "pitch": 65, "duration": 3, "velocity": 95}, {"time": 2487, "pitch": 68, "duration": 3, "velocity": 86}, {"time": 2490, "pitch": 53, "duration": 9, "velocity": 85}, {"time": 2493, "pitch": 60, "duration": 2, "velocity": 80}, {"time": 2493, "pitch": 65, "duration": 4, "velocity": 85}, {"time": 2493, "pitch": 67, "duration": 5, "velocity": 89}, {"time": 2496, "pitch": 60, "duration": 3, "velocity": 80}, {"time": 2499, "pitch": 53, "duration": 1, "velocity": 95}, {"time": 2499, "pitch": 60, "duration": 2, "velocity": 82}, {"time": 2499, "pitch": 65, "duration": 4, "velocity": 85}, {"time": 2502, "pitch": 60, "duration": 3, "velocity": 83}, {"time": 2505, "pitch": 65, "duration": 2, "velocity": 78}, {"time": 2511, "pitch": 60, "duration": 2, "velocity": 87}, {"time": 2511, "pitch": 68, "duration": 4, "velocity": 84}, {"time": 2514, "pitch": 60, "duration": 3, "velocity": 73}, {"time": 2517, "pitch": 65, "duration": 3, "velocity": 79}, {"time": 2520, "pitch": 60, "duration": 2, "velocity": 72}, {"time": 2523, "pitch": 41, "duration": 15, "velocity": 89}, {"time": 2523, "pitch": 60, "duration": 5, "velocity": 84}, {"time": 2523, "pitch": 68, "duration": 5, "velocity": 79}, {"time": 2529, "pitch": 65, "duration": 3, "velocity": 86}, {"time": 2532, "pitch": 60, "duration": 1, "velocity": 78}, {"time": 2535, "pitch": 60, "duration": 3, "velocity": 90}, {"time": 2535, "pitch": 68, "duration": 5, "velocity": 85}, {"time": 2541, "pitch": 65, "duration": 3, "velocity": 88}, {"time": 2544, "pitch": 60, "duration": 1, "velocity": 78}, {"time": 2547, "pitch": 46, "duration": 23, "velocity": 85}, {"time": 2547, "pitch": 58, "duration": 4, "velocity": 79}, {"time": 2547, "pitch": 61, "duration": 4, "velocity": 83}, {"time": 2550, "pitch": 53, "duration": 13, "velocity": 74}, {"time": 2553, "pitch": 61, "duration": 4, "velocity": 84}, {"time": 2556, "pitch": 58, "duration": 2, "velocity": 79}, {"time": 2559, "pitch": 58, "duration": 5, "velocity": 86}, {"time": 2559, "pitch": 65, "duration": 4, "velocity": 88}, {"time": 2565, "pitch": 53, "duration": 5, "velocity": 79}, {"time": 2568, "pitch": 58, "duration": 2, "velocity": 80}, {"time": 2571, "pitch": 46, "duration": 20, "velocity": 84}, {"time": 2571, "pitch": 58, "duration": 6, "velocity": 77}, {"time": 2571, "pitch": 61, "duration": 6, "velocity": 85}, {"time": 2577, "pitch": 53, "duration": 10, "velocity": 79}, {"time": 2580, "pitch": 58, "duration": 2, "velocity": 77}, {"time": 2583, "pitch": 61, "duration": 4, "velocity": 87}, {"time": 2583, "pitch": 65, "duration": 4, "velocity": 87}, {"time": 2583, "pitch": 68, "duration": 4, "velocity": 84}, {"time": 2586, "pitch": 58, "duration": 3, "velocity": 84}, {"time": 2589, "pitch": 53, "duration": 3, "velocity": 83}, {"time": 2592, "pitch": 58, "duration": 2, "velocity": 84}, {"time": 2595, "pitch": 51, "duration": 18, "velocity": 86}, {"time": 2595, "pitch": 58, "duration": 4, "velocity": 84}, {"time": 2595, "pitch": 63, "duration": 7, "velocity": 84}, {"time": 2601, "pitch": 58, "duration": 4, "velocity": 74}, {"time": 2607, "pitch": 58, "duration": 2, "velocity": 85}, {"time": 2607, "pitch": 67, "duration": 6, "velocity": 88}, {"time": 2610, "pitch": 58, "duration": 4, "velocity": 75}, {"time": 2613, "pitch": 63, "duration": 4, "velocity": 84}, {"time": 2616, "pitch": 58, "duration": 2, "velocity": 80}, {"time": 2619, "pitch": 39, "duration": 6, "velocity": 83}, {"time": 2619, "pitch": 58, "duration": 4, "velocity": 75}, {"time": 2619, "pitch": 63, "duration": 6, "velocity": 83}, {"time": 2625, "pitch": 58, "duration": 3, "velocity": 71}, {"time": 2631, "pitch": 58, "duration": 2, "velocity": 85}, {"time": 2631, "pitch": 67, "duration": 7, "velocity": 84}, {"time": 2634, "pitch": 58, "duration": 4, "velocity": 75}, {"time": 2637, "pitch": 63, "duration": 2, "velocity": 84}, {"time": 2640, "pitch": 58, "duration": 2, "velocity": 71}, {"time": 2643, "pitch": 44, "duration": 17, "velocity": 84}, {"time": 2643, "pitch": 56, "duration": 4, "velocity": 81}, {"time": 2643, "pitch": 60, "duration": 6, "velocity": 83}, {"time": 2646, "pitch": 51, "duration": 10, "velocity": 80}, {"time": 2649, "pitch": 56, "duration": 4, "velocity": 83}, {"time": 2655, "pitch": 56, "duration": 4, "velocity": 84}, {"time": 2655, "pitch": 63, "duration": 5, "velocity": 85}, {"time": 2658, "pitch": 51, "duration": 3, "velocity": 82}, {"time": 2661, "pitch": 56, "duration": 2, "velocity": 84}, {"time": 2667, "pitch": 56, "duration": 7, "velocity": 77}, {"time": 2667, "pitch": 63, "duration": 9, "velocity": 84}, {"time": 2673, "pitch": 44, "duration": 10, "velocity": 74}, {"time": 2676, "pitch": 51, "duration": 4, "velocity": 78}, {"time": 2679, "pitch": 56, "duration": 4, "velocity": 86}, {"time": 2679, "pitch": 60, "duration": 5, "velocity": 88}, {"time": 2679, "pitch": 63, "duration": 6, "velocity": 86}, {"time": 2682, "pitch": 51, "duration": 2, "velocity": 85}, {"time": 2685, "pitch": 56, "duration": 2, "velocity": 89}, {"time": 2691, "pitch": 41, "duration": 22, "velocity": 86}, {"time": 2691, "pitch": 53, "duration": 4, "velocity": 85}, {"time": 2691, "pitch": 56, "duration": 4, "velocity": 84}, {"time": 2694, "pitch": 48, "duration": 14, "velocity": 71}, {"time": 2697, "pitch": 60, "duration": 4, "velocity": 76}, {"time": 2700, "pitch": 56, "duration": 1, "velocity": 66}, {"time": 2703, "pitch": 65, "duration": 2, "velocity": 91}, {"time": 2709, "pitch": 60, "duration": 2, "velocity": 78}, {"time": 2709, "pitch": 65, "duration": 4, "velocity": 80}, {"time": 2712, "pitch": 60, "duration": 5, "velocity": 74}, {"time": 2715, "pitch": 41, "duration": 16, "velocity": 88}, {"time": 2715, "pitch": 65, "duration": 4, "velocity": 84}, {"time": 2715, "pitch": 68, "duration": 7, "velocity": 75}, {"time": 2718, "pitch": 48, "duration": 12, "velocity": 73}, {"time": 2721, "pitch": 60, "duration": 4, "velocity": 78}, {"time": 2724, "pitch": 65, "duration": 2, "velocity": 80}, {"time": 2727, "pitch": 60, "duration": 7, "velocity": 85}, {"time": 2727, "pitch": 68, "duration": 7, "velocity": 85}, {"time": 2733, "pitch": 65, "duration": 1, "velocity": 86}, {"time": 2739, "pitch": 46, "duration": 22, "velocity": 85}, {"time": 2739, "pitch": 58, "duration": 7, "velocity": 73}, {"time": 2739, "pitch": 61, "duration": 9, "velocity": 79}, {"time": 2745, "pitch": 53, "duration": 16, "velocity": 80}, {"time": 2751, "pitch": 58, "duration": 2, "velocity": 84}, {"time": 2751, "pitch": 65, "duration": 5, "velocity": 86}, {"time": 2754, "pitch": 58, "duration": 3, "velocity": 76}, {"time": 2757, "pitch": 61, "duration": 2, "velocity": 75}, {"time": 2760, "pitch": 58, "duration": 4, "velocity": 71}, {"time": 2763, "pitch": 46, "duration": 22, "velocity": 82}, {"time": 2763, "pitch": 70, "duration": 6, "velocity": 86}, {"time": 2766, "pitch": 58, "duration": 3, "velocity": 78}, {"time": 2769, "pitch": 61, "duration": 2, "velocity": 75}, {"time": 2772, "pitch": 58, "duration": 2, "velocity": 62}, {"time": 2775, "pitch": 58, "duration": 9, "velocity": 79}, {"time": 2775, "pitch": 61, "duration": 8, "velocity": 87}, {"time": 2775, "pitch": 65, "duration": 10, "velocity": 86}, {"time": 2781, "pitch": 53, "duration": 5, "velocity": 82}, {"time": 2787, "pitch": 51, "duration": 22, "velocity": 87}, {"time": 2787, "pitch": 58, "duration": 3, "velocity": 80}, {"time": 2787, "pitch": 63, "duration": 9, "velocity": 79}, {"time": 2793, "pitch": 58, "duration": 4, "velocity": 72}, {"time": 2799, "pitch": 58, "duration": 2, "velocity": 85}, {"time": 2799, "pitch": 63, "duration": 4, "velocity": 89}, {"time": 2799, "pitch": 67, "duration": 6, "velocity": 89}, {"time": 2802, "pitch": 58, "duration": 4, "velocity": 75}, {"time": 2805, "pitch": 63, "duration": 4, "velocity": 76}, {"time": 2808, "pitch": 58, "duration": 2, "velocity": 65}, {"time": 2811, "pitch": 51, "duration": 15, "velocity": 84}, {"time": 2811, "pitch": 58, "duration": 3, "velocity": 73}, {"time": 2811, "pitch": 63, "duration": 7, "velocity": 84}, {"time": 2811, "pitch": 67, "duration": 10, "velocity": 81}, {"time": 2817, "pitch": 58, "duration": 4, "velocity": 68}, {"time": 2823, "pitch": 58, "duration": 3, "velocity": 85}, {"time": 2823, "pitch": 63, "duration": 11, "velocity": 88}, {"time": 2829, "pitch": 58, "duration": 3, "velocity": 78}, {"time": 2835, "pitch": 41, "duration": 23, "velocity": 87}, {"time": 2835, "pitch": 60, "duration": 9, "velocity": 80}, {"time": 2835, "pitch": 65, "duration": 8, "velocity": 84}, {"time": 2841, "pitch": 48, "duration": 16, "velocity": 72}, {"time": 2847, "pitch": 60, "duration": 2, "velocity": 84}, {"time": 2847, "pitch": 65, "duration": 3, "velocity": 86}, {"time": 2847, "pitch": 68, "duration": 4, "velocity": 83}, {"time": 2850, "pitch": 60, "duration": 4, "velocity": 78}, {"time": 2853, "pitch": 65, "duration": 4, "velocity": 79}, {"time": 2856, "pitch": 60, "duration": 2, "velocity": 66}, {"time": 2859, "pitch": 41, "duration": 24, "velocity": 83}, {"time": 2859, "pitch": 60, "duration": 8, "velocity": 79}, {"time": 2859, "pitch": 65, "duration": 8, "velocity": 84}, {"time": 2865, "pitch": 48, "duration": 18, "velocity": 70}, {"time": 2871, "pitch": 60, "duration": 3, "velocity": 83}, {"time": 2871, "pitch": 65, "duration": 12, "velocity": 87}, {"time": 2871, "pitch": 68, "duration": 12, "velocity": 84}, {"time": 2877, "pitch": 60, "duration": 5, "velocity": 80}, {"time": 2883, "pitch": 53, "duration": 15, "velocity": 95}, {"time": 2883, "pitch": 60, "duration": 2, "velocity": 82}, {"time": 2883, "pitch": 65, "duration": 4, "velocity": 85}, {"time": 2886, "pitch": 60, "duration": 3, "velocity": 83}, {"time": 2889, "pitch": 65, "duration": 2, "velocity": 78}, {"time": 2895, "pitch": 60, "duration": 2, "velocity": 87}, {"time": 2895, "pitch": 68, "duration": 4, "velocity": 84}, {"time": 2898, "pitch": 60, "duration": 3, "velocity": 73}, {"time": 2901, "pitch": 65, "duration": 3, "velocity": 79}, {"time": 2904, "pitch": 60, "duration": 2, "velocity": 72}, {"time": 2907, "pitch": 41, "duration": 15, "velocity": 89}, {"time": 2907, "pitch": 60, "duration": 5, "velocity": 84}, {"time": 2907, "pitch": 68, "duration": 5, "velocity": 79}, {"time": 2913, "pitch": 65, "duration": 3, "velocity": 86}, {"time": 2916, "pitch": 60, "duration": 1, "velocity": 78}, {"time": 2919, "pitch": 60, "duration": 3, "velocity": 90}, {"time": 2919, "pitch": 68, "duration": 5, "velocity": 85}, {"time": 2925, "pitch": 65, "duration": 3, "velocity": 88}, {"time": 2928, "pitch": 60, "duration": 1, "velocity": 78}, {"time": 2931, "pitch": 46, "duration": 23, "velocity": 85}, {"time": 2931, "pitch": 58, "duration": 4, "velocity": 79}, {"time": 2931, "pitch": 61, "duration": 4, "velocity": 83}, {"time": 2934, "pitch": 53, "duration": 13, "velocity": 74}, {"time": 2937, "pitch": 61, "duration": 4, "velocity": 84}, {"time": 2940, "pitch": 58, "duration": 2, "velocity": 79}, {"time": 2943, "pitch": 58, "duration": 5, "velocity": 86}, {"time": 2943, "pitch": 65, "duration": 4, "velocity": 88}, {"time": 2949, "pitch": 53, "duration": 5, "velocity": 79}, {"time": 2952, "pitch": 58, "duration": 2, "velocity": 80}, {"time": 2955, "pitch": 46, "duration": 20, "velocity": 84}, {"time": 2955, "pitch": 58, "duration": 6, "velocity": 77}, {"time": 2955, "pitch": 61, "duration": 6, "velocity": 85}, {"time": 2961, "pitch": 53, "duration": 10, "velocity": 79}, {"time": 2964, "pitch": 58, "duration": 2, "velocity": 77}, {"time": 2967, "pitch": 61, "duration": 4, "velocity": 87}, {"time": 2967, "pitch": 65, "duration": 4, "velocity": 87}, {"time": 2967, "pitch": 68, "duration": 4, "velocity": 84}, {"time": 2970, "pitch": 58, "duration": 3, "velocity": 84}, {"time": 2973, "pitch": 53, "duration": 3, "velocity": 83}, {"time": 2976, "pitch": 58, "duration": 2, "velocity": 84}, {"time": 2979, "pitch": 51, "duration": 18, "velocity": 86}, {"time": 2979, "pitch": 58, "duration": 4, "velocity": 84}, {"time": 2979, "pitch": 63, "duration": 7, "velocity": 84}, {"time": 2985, "pitch": 58, "duration": 4, "velocity": 74}, {"time": 2991, "pitch": 58, "duration": 2, "velocity": 85}, {"time": 2991, "pitch": 67, "duration": 6, "velocity": 88}, {"time": 2994, "pitch": 58, "duration": 4, "velocity": 75}, {"time": 2997, "pitch": 63, "duration": 4, "velocity": 84}, {"time": 3000, "pitch": 58, "duration": 2, "velocity": 80}, {"time": 3003, "pitch": 39, "duration": 6, "velocity": 83}, {"time": 3003, "pitch": 58, "duration": 4, "velocity": 75}, {"time": 3003, "pitch": 63, "duration": 6, "velocity": 83}, {"time": 3009, "pitch": 58, "duration": 3, "velocity": 71}, {"time": 3015, "pitch": 58, "duration": 2, "velocity": 85}, {"time": 3015, "pitch": 67, "duration": 7, "velocity": 84}, {"time": 3018, "pitch": 58, "duration": 4, "velocity": 75}, {"time": 3021, "pitch": 63, "duration": 2, "velocity": 84}, {"time": 3024, "pitch": 58, "duration": 2, "velocity": 71}, {"time": 3027, "pitch": 44, "duration": 17, "velocity": 84}, {"time": 3027, "pitch": 56, "duration": 4, "velocity": 81}, {"time": 3027, "pitch": 60, "duration": 6, "velocity": 83}, {"time": 3030, "pitch": 51, "duration": 10, "velocity": 80}, {"time": 3033, "pitch": 56, "duration": 4, "velocity": 83}, {"time": 3039, "pitch": 56, "duration": 4, "velocity": 84}, {"time": 3039, "pitch": 63, "duration": 5, "velocity": 85}, {"time": 3042, "pitch": 51, "duration": 3, "velocity": 82}, {"time": 3045, "pitch": 56, "duration": 2, "velocity": 84}, {"time": 3051, "pitch": 56, "duration": 7, "velocity": 77}, {"time": 3051, "pitch": 63, "duration": 9, "velocity": 84}, {"time": 3057, "pitch": 44, "duration": 10, "velocity": 74}, {"time": 3060, "pitch": 51, "duration": 4, "velocity": 78}, {"time": 3063, "pitch": 56, "duration": 4, "velocity": 86}, {"time": 3063, "pitch": 60, "duration": 5, "velocity": 88}, {"time": 3063, "pitch": 63, "duration": 6, "velocity": 86}, {"time": 3066, "pitch": 51, "duration": 2, "velocity": 85}, {"time": 3069, "pitch": 56, "duration": 2, "velocity": 89}, {"time": 3075, "pitch": 41, "duration": 22, "velocity": 86}, {"time": 3075, "pitch": 53, "duration": 4, "velocity": 85}, {"time": 3075, "pitch": 56, "duration": 4, "velocity": 84}, {"time": 3078, "pitch": 48, "duration": 14, "velocity": 71}, {"time": 3081, "pitch": 60, "duration": 4, "velocity": 76}, {"time": 3084, "pitch": 56, "duration": 1, "velocity": 66}, {"time": 3087, "pitch": 65, "duration": 2, "velocity": 91}, {"time": 3093, "pitch": 60, "duration": 2, "velocity": 78}, {"time": 3093, "pitch": 65, "duration": 4, "velocity": 80}, {"time": 3096, "pitch": 60, "duration": 5, "velocity": 74}, {"time": 3099, "pitch": 41, "duration": 16, "velocity": 88}, {"time": 3099, "pitch": 65, "duration": 4, "velocity": 84}, {"time": 3099, "pitch": 68, "duration": 7, "velocity": 75}, {"time": 3102, "pitch": 48, "duration": 12, "velocity": 73}, {"time": 3105, "pitch": 60, "duration": 4, "velocity": 78}, {"time": 3108, "pitch": 65, "duration": 2, "velocity": 80}, {"time": 3111, "pitch": 60, "duration": 7, "velocity": 85}, {"time": 3111, "pitch": 68, "duration": 7, "velocity": 85}, {"time": 3117, "pitch": 65, "duration": 1, "velocity": 86}, {"time": 3123, "pitch": 46, "duration": 22, "velocity": 85}, {"time": 3123, "pitch": 58, "duration": 7, "velocity": 73}, {"time": 3123, "pitch": 61, "duration": 9, "velocity": 79}, {"time": 3129, "pitch": 53, "duration": 16, "velocity": 80}, {"time": 3135, "pitch": 58, "duration": 2, "velocity": 84}, {"time": 3135, "pitch": 65, "duration": 5, "velocity": 86}, {"time": 3138, "pitch": 58, "duration": 3, "velocity": 76}, {"time": 3141, "pitch": 61, "duration": 2, "velocity": 75}, {"time": 3144, "pitch": 58, "duration": 4, "velocity": 71}, {"time": 3147, "pitch": 46, "duration": 22, "velocity": 82}, {"time": 3147, "pitch": 70, "duration": 6, "velocity": 86}, {"time": 3150, "pitch": 58, "duration": 3, "velocity": 78}, {"time": 3153, "pitch": 61, "duration": 2, "velocity": 75}, {"time": 3156, "pitch": 58, "duration": 2, "velocity": 62}, {"time": 3159, "pitch": 58, "duration": 9, "velocity": 79}, {"time": 3159, "pitch": 61, "duration": 8, "velocity": 87}, {"time": 3159, "pitch": 65, "duration": 10, "velocity": 86}, {"time": 3165, "pitch": 53, "duration": 5, "velocity": 82}, {"time": 3171, "pitch": 51, "duration": 22, "velocity": 87}, {"time": 3171, "pitch": 58, "duration": 3, "velocity": 80}, {"time": 3171, "pitch": 63, "duration": 9, "velocity": 79}, {"time": 3177, "pitch": 58, "duration": 4, "velocity": 72}, {"time": 3183, "pitch": 58, "duration": 2, "velocity": 85}, {"time": 3183, "pitch": 63, "duration": 4, "velocity": 89}, {"time": 3183, "pitch": 67, "duration": 6, "velocity": 89}, {"time": 3186, "pitch": 58, "duration": 4, "velocity": 75}, {"time": 3189, "pitch": 63, "duration": 4, "velocity": 76}, {"time": 3192, "pitch": 58, "duration": 2, "velocity": 65}, {"time": 3195, "pitch": 51, "duration": 15, "velocity": 84}, {"time": 3195, "pitch": 58, "duration": 3, "velocity": 73}, {"time": 3195, "pitch": 63, "duration": 7, "velocity": 84}, {"time": 3195, "pitch": 67, "duration": 10, "velocity": 81}, {"time": 3201, "pitch": 58, "duration": 4, "velocity": 68}, {"time": 3207, "pitch": 58, "duration": 3, "velocity": 85}, {"time": 3207, "pitch": 63, "duration": 11, "velocity": 88}, {"time": 3213, "pitch": 58, "duration": 3, "velocity": 78}, {"time": 3219, "pitch": 41, "duration": 23, "velocity": 87}, {"time": 3219, "pitch": 60, "duration": 9, "velocity": 80}, {"time": 3219, "pitch": 65, "duration": 8, "velocity": 84}, {"time": 3225, "pitch": 48, "duration": 16, "velocity": 72}, {"time": 3231, "pitch": 60, "duration": 2, "velocity": 84}, {"time": 3231, "pitch": 65, "duration": 3, "velocity": 86}, {"time": 3231, "pitch": 68, "duration": 4, "velocity": 83}, {"time": 3234, "pitch": 60, "duration": 4, "velocity": 78}, {"time": 3237, "pitch": 65, "duration": 4, "velocity": 79}, {"time": 3240, "pitch": 60, "duration": 2, "velocity": 66}, {"time": 3243, "pitch": 41, "duration": 24, "velocity": 83}, {"time": 3243, "pitch": 60, "duration": 8, "velocity": 79}, {"time": 3243, "pitch": 65, "duration": 8, "velocity": 84}, {"time": 3249, "pitch": 48, "duration": 18, "velocity": 70}, {"time": 3255, "pitch": 60, "duration": 3, "velocity": 83}, {"time": 3255, "pitch": 65, "duration": 12, "velocity": 87}, {"time": 3255, "pitch": 68, "duration": 12, "velocity": 84}, {"time": 3261, "pitch": 60, "duration": 5, "velocity": 80}, {"time": 3267, "pitch": 53, "duration": 15, "velocity": 95}, {"time": 3267, "pitch": 60, "duration": 2, "velocity": 82}, {"time": 3267, "pitch": 65, "duration": 4, "velocity": 85}, {"time": 3270, "pitch": 60, "duration": 3, "velocity": 83}, {"time": 3273, "pitch": 65, "duration": 2, "velocity": 78}, {"time": 3279, "pitch": 60, "duration": 2, "velocity": 87}, {"time": 3279, "pitch": 68, "duration": 4, "velocity": 84}, {"time": 3282, "pitch": 60, "duration": 3, "velocity": 73}, {"time": 3285, "pitch": 65, "duration": 3, "velocity": 79}, {"time": 3288, "pitch": 60, "duration": 2, "velocity": 72}, {"time": 3291, "pitch": 41, "duration": 15, "velocity": 89}, {"time": 3291, "pitch": 60, "duration": 5, "velocity": 84}, {"time": 3291, "pitch": 68, "duration": 5, "velocity": 79}, {"time": 3297, "pitch": 65, "duration": 3, "velocity": 86}, {"time": 3300, "pitch": 60, "duration": 1, "velocity": 78}, {"time": 3303, "pitch": 60, "duration": 3, "velocity": 90}, {"time": 3303, "pitch": 68, "duration": 5, "velocity": 85}, {"time": 3309, "pitch": 65, "duration": 3, "velocity": 88}, {"time": 3312, "pitch": 60, "duration": 1, "velocity": 78}, {"time": 3315, "pitch": 46, "duration": 23, "velocity": 85}, {"time": 3315, "pitch": 58, "duration": 4, "velocity": 79}, {"time": 3315, "pitch": 61, "duration": 4, "velocity": 83}, {"time": 3318, "pitch": 53, "duration": 13, "velocity": 74}, {"time": 3321, "pitch": 61, "duration": 4, "velocity": 84}, {"time": 3324, "pitch": 58, "duration": 2, "velocity": 79}, {"time": 3327, "pitch": 58, "duration": 5, "velocity": 86}, {"time": 3327, "pitch": 65, "duration": 4, "velocity": 88}, {"time": 3333, "pitch": 53, "duration": 5, "velocity": 79}, {"time": 3336, "pitch": 58, "duration": 2, "velocity": 80}, {"time": 3339, "pitch": 46, "duration": 20, "velocity": 84}, {"time": 3339, "pitch": 58, "duration": 6, "velocity": 77}, {"time": 3339, "pitch": 61, "duration": 6, "velocity": 85}, {"time": 3345, "pitch": 53, "duration": 10, "velocity": 79}, {"time": 3348, "pitch": 58, "duration": 2, "velocity": 77}, {"time": 3351, "pitch": 61, "duration": 4, "velocity": 87}, {"time": 3351, "pitch": 65, "duration": 4, "velocity": 87}, {"time": 3351, "pitch": 68, "duration": 4, "velocity": 84}, {"time": 3354, "pitch": 58, "duration": 3, "velocity": 84}, {"time": 3357, "pitch": 53, "duration": 3, "velocity": 83}, {"time": 3360, "pitch": 58, "duration": 2, "velocity": 84}, {"time": 3363, "pitch": 51, "duration": 18, "velocity": 86}, {"time": 3363, "pitch": 58, "duration": 4, "velocity": 84}, {"time": 3363, "pitch": 63, "duration": 7, "velocity": 84}, {"time": 3369, "pitch": 58, "duration": 4, "velocity": 74}, {"time": 3375, "pitch": 58, "duration": 2, "velocity": 85}, {"time": 3375, "pitch": 67, "duration": 6, "velocity": 88}, {"time": 3378, "pitch": 58, "duration": 4, "velocity": 75}, {"time": 3381, "pitch": 63, "duration": 4, "velocity": 84}, {"time": 3384, "pitch": 58, "duration": 2, "velocity": 80}, {"time": 3387, "pitch": 39, "duration": 6, "velocity": 83}, {"time": 3387, "pitch": 58, "duration": 4, "velocity": 75}, {"time": 3387, "pitch": 63, "duration": 6, "velocity": 83}, {"time": 3393, "pitch": 58, "duration": 3, "velocity": 71}, {"time": 3399, "pitch": 58, "duration": 2, "velocity": 85}, {"time": 3399, "pitch": 67, "duration": 7, "velocity": 84}, {"time": 3402, "pitch": 58, "duration": 4, "velocity": 75}, {"time": 3405, "pitch": 63, "duration": 2, "velocity": 84}, {"time": 3408, "pitch": 58, "duration": 2, "velocity": 71}, {"time": 3411, "pitch": 44, "duration": 17, "velocity": 84}, {"time": 3411, "pitch": 56, "duration": 4, "velocity": 81}, {"time": 3411, "pitch": 60, "duration": 6, "velocity": 83}, {"time": 3414, "pitch": 51, "duration": 10, "velocity": 80}, {"time": 3417, "pitch": 56, "duration": 4, "velocity": 83}, {"time": 3423, "pitch": 56, "duration": 4, "velocity": 84}, {"time": 3423, "pitch": 63, "duration": 5, "velocity": 85}, {"time": 3426, "pitch": 51, "duration": 3, "velocity": 82}, {"time": 3429, "pitch": 56, "duration": 2, "velocity": 84}, {"time": 3435, "pitch": 56, "duration": 7, "velocity": 77}, {"time": 3435, "pitch": 63, "duration": 9, "velocity": 84}, {"time": 3441, "pitch": 44, "duration": 10, "velocity": 74}, {"time": 3444, "pitch": 51, "duration": 4, "velocity": 78}, {"time": 3447, "pitch": 56, "duration": 4, "velocity": 86}, {"time": 3447, "pitch": 60, "duration": 5, "velocity": 88}, {"time": 3447, "pitch": 63, "duration": 6, "velocity": 86}, {"time": 3450, "pitch": 51, "duration": 2, "velocity": 85}, {"time": 3453, "pitch": 56, "duration": 2, "velocity": 89}, {"time": 3459, "pitch": 41, "duration": 22, "velocity": 86}, {"time": 3459, "pitch": 53, "duration": 4, "velocity": 85}, {"time": 3459, "pitch": 56, "duration": 4, "velocity": 84}, {"time": 3462, "pitch": 48, "duration": 14, "velocity": 71}, {"time": 3465, "pitch": 60, "duration": 4, "velocity": 76}, {"time": 3468, "pitch": 56, "duration": 1, "velocity": 66}, {"time": 3471, "pitch": 65, "duration": 2, "velocity": 91}, {"time": 3477, "pitch": 60, "duration": 2, "velocity": 78}, {"time": 3477, "pitch": 65, "duration": 4, "velocity": 80}, {"time": 3480, "pitch": 60, "duration": 5, "velocity": 74}, {"time": 3483, "pitch": 41, "duration": 16, "velocity": 88}, {"time": 3483, "pitch": 65, "duration": 4, "velocity": 84}, {"time": 3483, "pitch": 68, "duration": 7, "velocity": 75}, {"time": 3486, "pitch": 48, "duration": 12, "velocity": 73}, {"time": 3489, "pitch": 60, "duration": 4, "velocity": 78}, {"time": 3492, "pitch": 65, "duration": 2, "velocity": 80}, {"time": 3495, "pitch": 60, "duration": 7, "velocity": 85}, {"time": 3495, "pitch": 68, "duration": 7, "velocity": 85}, {"time": 3501, "pitch": 65, "duration": 1, "velocity": 86}, {"time": 3507, "pitch": 46, "duration": 22, "velocity": 85}, {"time": 3507, "pitch": 58, "duration": 7, "velocity": 73}, {"time": 3507, "pitch": 61, "duration": 9, "velocity": 79}, {"time": 3513, "pitch": 53, "duration": 16, "velocity": 80}, {"time": 3519, "pitch": 58, "duration": 2, "velocity": 84}, {"time": 3519, "pitch": 65, "duration": 5, "velocity": 86}, {"time": 3522, "pitch": 58, "duration": 3, "velocity": 76}, {"time": 3525, "pitch": 61, "duration": 2, "velocity": 75}, {"time": 3528, "pitch": 58, "duration": 4, "velocity": 71}, {"time": 3531, "pitch": 46, "duration": 22, "velocity": 82}, {"time": 3531, "pitch": 70, "duration": 6, "velocity": 86}, {"time": 3534, "pitch": 58, "duration": 3, "velocity": 78}, {"time": 3537, "pitch": 61, "duration": 2, "velocity": 75}, {"time": 3540, "pitch": 58, "duration": 2, "velocity": 62}, {"time": 3543, "pitch": 58, "duration": 9, "velocity": 79}, {"time": 3543, "pitch": 61, "duration": 8, "velocity": 87}, {"time": 3543, "pitch": 65, "duration": 10, "velocity": 86}, {"time": 3549, "pitch": 53, "duration": 5, "velocity": 82}, {"time": 3555, "pitch": 51, "duration": 22, "velocity": 87}, {"time": 3555, "pitch": 58, "duration": 3, "velocity": 80}, {"time": 3555, "pitch": 63, "duration": 9, "velocity": 79}, {"time": 3561, "pitch": 58, "duration": 4, "velocity": 72}, {"time": 3567, "pitch": 58, "duration": 2, "velocity": 85}, {"time": 3567, "pitch": 63, "duration": 4, "velocity": 89}, {"time": 3567, "pitch": 67, "duration": 6, "velocity": 89}, {"time": 3570, "pitch": 58, "duration": 4, "velocity": 75}, {"time": 3573, "pitch": 63, "duration": 4, "velocity": 76}, {"time": 3576, "pitch": 58, "duration": 2, "velocity": 65}, {"time": 3579, "pitch": 51, "duration": 15, "velocity": 84}, {"time": 3579, "pitch": 58, "duration": 3, "velocity": 73}, {"time": 3579, "pitch": 63, "duration": 7, "velocity": 84}, {"time": 3579, "pitch": 67, "duration": 10, "velocity": 81}, {"time": 3585, "pitch": 58, "duration": 4, "velocity": 68}, {"time": 3591, "pitch": 58, "duration": 3, "velocity": 85}, {"time": 3591, "pitch": 63, "duration": 11, "velocity": 88}, {"time": 3597, "pitch": 58, "duration": 3, "velocity": 78}, {"time": 3603, "pitch": 41, "duration": 23, "velocity": 87}, {"time": 3603, "pitch": 60, "duration": 9, "velocity": 80}, {"time": 3603, "pitch": 65, "duration": 8, "velocity": 84}, {"time": 3609, "pitch": 48, "duration": 16, "velocity": 72}, {"time": 3615, "pitch": 60, "duration": 2, "velocity": 84}, {"time": 3615, "pitch": 65, "duration": 3, "velocity": 86}, {"time": 3615, "pitch": 68, "duration": 4, "velocity": 83}, {"time": 3618, "pitch": 60, "duration": 4, "velocity": 78}, {"time": 3621, "pitch": 65, "duration": 4, "velocity": 79}, {"time": 3624, "pitch": 60, "duration": 2, "velocity": 66}, {"time": 3627, "pitch": 41, "duration": 24, "velocity": 83}, {"time": 3627, "pitch": 60, "duration": 8, "velocity": 79}, {"time": 3627, "pitch": 65, "duration": 8, "velocity": 84}, {"time": 3633, "pitch": 48, "duration": 18, "velocity": 70}, {"time": 3639, "pitch": 60, "duration": 3, "velocity": 83}, {"time": 3639, "pitch": 65, "duration": 12, "velocity": 87}, {"time": 3639, "pitch": 68, "duration": 12, "velocity": 84}, {"time": 3645, "pitch": 60, "duration": 5, "velocity": 80}, {"time": 3651, "pitch": 53, "duration": 15, "velocity": 95}, {"time": 3651, "pitch": 60, "duration": 2, "velocity": 82}, {"time": 3651, "pitch": 65, "duration": 4, "velocity": 85}, {"time": 3654, "pitch": 60, "duration": 3, "velocity": 83}, {"time": 3657, "pitch": 65, "duration": 2, "velocity": 78}, {"time": 3663, "pitch": 60, "duration": 2, "velocity": 87}, {"time": 3663, "pitch": 68, "duration": 4, "velocity": 84}, {"time": 3666, "pitch": 60, "duration": 3, "velocity": 73}, {"time": 3669, "pitch": 65, "duration": 3, "velocity": 79}, {"time": 3672, "pitch": 60, "duration": 2, "velocity": 72}, {"time": 3675, "pitch": 41, "duration": 15, "velocity": 89}, {"time": 3675, "pitch": 60, "duration": 5, "velocity": 84}, {"time": 3675, "pitch": 68, "duration": 5, "velocity": 79}, {"time": 3681, "pitch": 65, "duration": 3, "velocity": 86}, {"time": 3684, "pitch": 60, "duration": 1, "velocity": 78}, {"time": 3687, "pitch": 60, "duration": 3, "velocity": 90}, {"time": 3687, "pitch": 68, "duration": 5, "velocity": 85}, {"time": 3693, "pitch": 65, "duration": 3, "velocity": 88}, {"time": 3696, "pitch": 60, "duration": 1, "velocity": 78}, {"time": 3699, "pitch": 46, "duration": 23, "velocity": 85}, {"time": 3699, "pitch": 58, "duration": 4, "velocity": 79}, {"time": 3699, "pitch": 61, "duration": 4, "velocity": 83}, {"time": 3702, "pitch": 53, "duration": 13, "velocity": 74}, {"time": 3705, "pitch": 61, "duration": 4, "velocity": 84}, {"time": 3708, "pitch": 58, "duration": 2, "velocity": 79}, {"time": 3711, "pitch": 58, "duration": 5, "velocity": 86}, {"time": 3711, "pitch": 65, "duration": 4, "velocity": 88}, {"time": 3717, "pitch": 53, "duration": 5, "velocity": 79}, {"time": 3720, "pitch": 58, "duration": 2, "velocity": 80}, {"time": 3723, "pitch": 46, "duration": 20, "velocity": 84}, {"time": 3723, "pitch": 58, "duration": 6, "velocity": 77}, {"time": 3723, "pitch": 61, "duration": 6, "velocity": 85}, {"time": 3729, "pitch": 53, "duration": 10, "velocity": 79}, {"time": 3732, "pitch": 58, "duration": 2, "velocity": 77}, {"time": 3735, "pitch": 61, "duration": 4, "velocity": 87}, {"time": 3735, "pitch": 65, "duration": 4, "velocity": 87}, {"time": 3735, "pitch": 68, "duration": 4, "velocity": 84}, {"time": 3738, "pitch": 58, "duration": 3, "velocity": 84}, {"time": 3741, "pitch": 53, "duration": 3, "velocity": 83}, {"time": 3744, "pitch": 58, "duration": 2, "velocity": 84}, {"time": 3747, "pitch": 51, "duration": 18, "velocity": 86}, {"time": 3747, "pitch": 58, "duration": 4, "velocity": 84}, {"time": 3747, "pitch": 63, "duration": 7, "velocity": 84}, {"time": 3753, "pitch": 58, "duration": 4, "velocity": 74}, {"time": 3759, "pitch": 58, "duration": 2, "velocity": 85}, {"time": 3759, "pitch": 67, "duration": 6, "velocity": 88}, {"time": 3762, "pitch": 58, "duration": 4, "velocity": 75}, {"time": 3765, "pitch": 63, "duration": 4, "velocity": 84}, {"time": 3768, "pitch": 58, "duration": 2, "velocity": 80}, {"time": 3771, "pitch": 39, "duration": 6, "velocity": 83}, {"time": 3771, "pitch": 58, "duration": 4, "velocity": 75}, {"time": 3771, "pitch": 63, "duration": 6, "velocity": 83}, {"time": 3777, "pitch": 58, "duration": 3, "velocity": 71}, {"time": 3783, "pitch": 58, "duration": 2, "velocity": 85}, {"time": 3783, "pitch": 67, "duration": 7, "velocity": 84}, {"time": 3786, "pitch": 58, "duration": 4, "velocity": 75}, {"time": 3789, "pitch": 63, "duration": 2, "velocity": 84}, {"time": 3792, "pitch": 58, "duration": 2, "velocity": 71}, {"time": 3795, "pitch": 44, "duration": 17, "velocity": 84}, {"time": 3795, "pitch": 56, "duration": 4, "velocity": 81}, {"time": 3795, "pitch": 60, "duration": 6, "velocity": 83}, {"time": 3798, "pitch": 51, "duration": 10, "velocity": 80}, {"time": 3801, "pitch": 56, "duration": 4, "velocity": 83}, {"time": 3807, "pitch": 56, "duration": 4, "velocity": 84}, {"time": 3807, "pitch": 63, "duration": 5, "velocity": 85}, {"time": 3810, "pitch": 51, "duration": 3, "velocity": 82}, {"time": 3813, "pitch": 56, "duration": 2, "velocity": 84}, {"time": 3819, "pitch": 56, "duration": 7, "velocity": 77}, {"time": 3819, "pitch": 63, "duration": 9, "velocity": 84}, {"time": 3825, "pitch": 44, "duration": 10, "velocity": 74}, {"time": 3828, "pitch": 51, "duration": 4, "velocity": 78}, {"time": 3831, "pitch": 56, "duration": 4, "velocity": 86}, {"time": 3831, "pitch": 60, "duration": 5, "velocity": 88}, {"time": 3831, "pitch": 63, "duration": 6, "velocity": 86}, {"time": 3834, "pitch": 51, "duration": 2, "velocity": 85}, {"time": 3837, "pitch": 56, "duration": 2, "velocity": 89}, {"time": 3843, "pitch": 41, "duration": 22, "velocity": 86}, {"time": 3843, "pitch": 53, "duration": 4, "velocity": 85}, {"time": 3843, "pitch": 56, "duration": 4, "velocity": 84}, {"time": 3846, "pitch": 48, "duration": 14, "velocity": 71}, {"time": 3849, "pitch": 60, "duration": 4, "velocity": 76}, {"time": 3852, "pitch": 56, "duration": 1, "velocity": 66}, {"time": 3855, "pitch": 65, "duration": 2, "velocity": 91}, {"time": 3861, "pitch": 60, "duration": 2, "velocity": 78}, {"time": 3861, "pitch": 65, "duration": 4, "velocity": 80}, {"time": 3864, "pitch": 60, "duration": 5, "velocity": 74}, {"time": 3867, "pitch": 41, "duration": 16, "velocity": 88}, {"time": 3867, "pitch": 65, "duration": 4, "velocity": 84}, {"time": 3867, "pitch": 68, "duration": 7, "velocity": 75}, {"time": 3870, "pitch": 48, "duration": 12, "velocity": 73}, {"time": 3873, "pitch": 60, "duration": 4, "velocity": 78}, {"time": 3876, "pitch": 65, "duration": 2, "velocity": 80}, {"time": 3879, "pitch": 60, "duration": 7, "velocity": 85}, {"time": 3879, "pitch": 68, "duration": 7, "velocity": 85}, {"time": 3885, "pitch": 65, "duration": 1, "velocity": 86}, {"time": 3891, "pitch": 46, "duration": 22, "velocity": 85}, {"time": 3891, "pitch": 58, "duration": 7, "velocity": 73}, {"time": 3891, "pitch": 61, "duration": 9, "velocity": 79}, {"time": 3897, "pitch": 53, "duration": 16, "velocity": 80}, {"time": 3903, "pitch": 58, "duration": 2, "velocity": 84}, {"time": 3903, "pitch": 65, "duration": 5, "velocity": 86}, {"time": 3906, "pitch": 58, "duration": 3, "velocity": 76}, {"time": 3909, "pitch": 61, "duration": 2, "velocity": 75}, {"time": 3912, "pitch": 58, "duration": 4, "velocity": 71}, {"time": 3915, "pitch": 46, "duration": 22, "velocity": 82}, {"time": 3915, "pitch": 70, "duration": 6, "velocity": 86}, {"time": 3918, "pitch": 58, "duration": 3, "velocity": 78}, {"time": 3921, "pitch": 61, "duration": 2, "velocity": 75}, {"time": 3924, "pitch": 58, "duration": 2, "velocity": 62}, {"time": 3927, "pitch": 58, "duration": 9, "velocity": 79}, {"time": 3927, "pitch": 61, "duration": 8, "velocity": 87}, {"time": 3927, "pitch": 65, "duration": 10, "velocity": 86}, {"time": 3933, "pitch": 53, "duration": 5, "velocity": 82}, {"time": 3939, "pitch": 51, "duration": 22, "velocity": 87}, {"time": 3939, "pitch": 58, "duration": 3, "velocity": 80}, {"time": 3939, "pitch": 63, "duration": 9, "velocity": 79}, {"time": 3945, "pitch": 58, "duration": 4, "velocity": 72}, {"time": 3951, "pitch": 58, "duration": 2, "velocity": 85}, {"time": 3951, "pitch": 63, "duration": 4, "velocity": 89}, {"time": 3951, "pitch": 67, "duration": 6, "velocity": 89}, {"time": 3954, "pitch": 58, "duration": 4, "velocity": 75}, {"time": 3957, "pitch": 63, "duration": 4, "velocity": 76}, {"time": 3960, "pitch": 58, "duration": 2, "velocity": 65}, {"time": 3963, "pitch": 51, "duration": 15, "velocity": 84}, {"time": 3963, "pitch": 58, "duration": 3, "velocity": 73}, {"time": 3963, "pitch": 63, "duration": 7, "velocity": 84}, {"time": 3963, "pitch": 67, "duration": 10, "velocity": 81}, {"time": 3969, "pitch": 58, "duration": 4, "velocity": 68}, {"time": 3975, "pitch": 58, "duration": 3, "velocity": 85}, {"time": 3975, "pitch": 63, "duration": 11, "velocity": 88}, {"time": 3981, "pitch": 58, "duration": 3, "velocity": 78}, {"time": 3987, "pitch": 41, "duration": 24, "velocity": 88}, {"time": 3987, "pitch": 53, "duration": 11, "velocity": 85}, {"time": 3987, "pitch": 56, "duration": 9, "velocity": 84}, {"time": 3999, "pitch": 56, "duration": 4, "velocity": 86}, {"time": 3999, "pitch": 60, "duration": 3, "velocity": 86}, {"time": 4005, "pitch": 48, "duration": 6, "velocity": 67}, {"time": 4011, "pitch": 56, "duration": 6, "velocity": 83}, {"time": 4011, "pitch": 60, "duration": 7, "velocity": 81}, {"time": 4011, "pitch": 65, "duration": 6, "velocity": 80}, {"time": 4017, "pitch": 53, "duration": 4, "velocity": 54}, {"time": 4023, "pitch": 53, "duration": 3, "velocity": 73}, {"time": 4023, "pitch": 56, "duration": 3, "velocity": 89}, {"time": 4023, "pitch": 60, "duration": 3, "velocity": 85}, {"time": 4023, "pitch": 65, "duration": 3, "velocity": 86}, {"time": 4029, "pitch": 51, "duration": 5, "velocity": 84}, {"time": 4029, "pitch": 63, "duration": 4, "velocity": 85}, {"time": 4035, "pitch": 37, "duration": 2, "velocity": 84}, {"time": 4035, "pitch": 49, "duration": 4, "velocity": 87}, {"time": 4035, "pitch": 61, "duration": 5, "velocity": 86}, {"time": 4041, "pitch": 49, "duration": 28, "velocity": 85}, {"time": 4047, "pitch": 61, "duration": 6, "velocity": 78}, {"time": 4047, "pitch": 65, "duration": 6, "velocity": 84}, {"time": 4047, "pitch": 68, "duration": 6, "velocity": 76}, {"time": 4053, "pitch": 56, "duration": 10, "velocity": 61}, {"time": 4059, "pitch": 61, "duration": 10, "velocity": 80}, {"time": 4059, "pitch": 65, "duration": 10, "velocity": 85}, {"time": 4059, "pitch": 68, "duration": 8, "velocity": 79}, {"time": 4071, "pitch": 49, "duration": 4, "velocity": 89}, {"time": 4071, "pitch": 61, "duration": 5, "velocity": 86}, {"time": 4071, "pitch": 73, "duration": 4, "velocity": 84}, {"time": 4077, "pitch": 48, "duration": 5, "velocity": 86}, {"time": 4077, "pitch": 60, "duration": 5, "velocity": 87}, {"time": 4077, "pitch": 72, "duration": 4, "velocity": 84}, {"time": 4083, "pitch": 46, "duration": 39, "velocity": 84}, {"time": 4083, "pitch": 58, "duration": 6, "velocity": 85}, {"time": 4083, "pitch": 70, "duration": 5, "velocity": 81}, {"time": 4089, "pitch": 53, "duration": 10, "velocity": 67}, {"time": 4095, "pitch": 58, "duration": 4, "velocity": 80}, {"time": 4095, "pitch": 61, "duration": 6, "velocity": 84}, {"time": 4095, "pitch": 65, "duration": 6, "velocity": 86}, {"time": 4101, "pitch": 53, "duration": 8, "velocity": 73}, {"time": 4107, "pitch": 58, "duration": 6, "velocity": 74}, {"time": 4107, "pitch": 61, "duration": 6, "velocity": 71}, {"time": 4107, "pitch": 65, "duration": 6, "velocity": 80}, {"time": 4113, "pitch": 53, "duration": 9, "velocity": 76}, {"time": 4119, "pitch": 58, "duration": 4, "velocity": 84}, {"time": 4119, "pitch": 61, "duration": 4, "velocity": 86}, {"time": 4119, "pitch": 65, "duration": 4, "velocity": 85}, {"time": 4125, "pitch": 46, "duration": 5, "velocity": 86}, {"time": 4131, "pitch": 48, "duration": 26, "velocity": 85}, {"time": 4131, "pitch": 60, "duration": 10, "velocity": 83}, {"time": 4131, "pitch": 64, "duration": 6, "velocity": 75}, {"time": 4131, "pitch": 67, "duration": 9, "velocity": 78}, {"time": 4137, "pitch": 55, "duration": 5, "velocity": 84}, {"time": 4143, "pitch": 60, "duration": 10, "velocity": 85}, {"time": 4143, "pitch": 64, "duration": 7, "velocity": 85}, {"time": 4143, "pitch": 67, "duration": 8, "velocity": 82}, {"time": 4149, "pitch": 55, "duration": 7, "velocity": 70}, {"time": 4155, "pitch": 60, "duration": 3, "velocity": 83}, {"time": 4155, "pitch": 64, "duration": 9, "velocity": 83}, {"time": 4155, "pitch": 67, "duration": 9, "velocity": 82}, {"time": 4155, "pitch": 72, "duration": 7, "velocity": 83}, {"time": 4161, "pitch": 60, "duration": 5, "velocity": 71}, {"time": 4167, "pitch": 60, "duration": 3, "velocity": 84}, {"time": 4167, "pitch": 64, "duration": 2, "velocity": 85}, {"time": 4167, "pitch": 67, "duration": 2, "velocity": 84}, {"time": 4167, "pitch": 72, "duration": 2, "velocity": 85}, {"time": 4180, "pitch": 68, "duration": 9, "velocity": 80}, {"time": 4180, "pitch": 41, "duration": 2, "velocity": 90}, {"time": 4180, "pitch": 65, "duration": 9, "velocity": 82}, {"time": 4186, "pitch": 53, "duration": 41, "velocity": 85}, {"time": 4190, "pitch": 60, "duration": 37, "velocity": 73}, {"time": 4191, "pitch": 65, "duration": 2, "velocity": 76}, {"time": 4193, "pitch": 67, "duration": 2, "velocity": 71}, {"time": 4195, "pitch": 68, "duration": 3, "velocity": 73}, {"time": 4198, "pitch": 72, "duration": 2, "velocity": 66}, {"time": 4200, "pitch": 77, "duration": 2, "velocity": 77}, {"time": 4203, "pitch": 79, "duration": 1, "velocity": 79}, {"time": 4206, "pitch": 80, "duration": 3, "velocity": 69}, {"time": 4208, "pitch": 84, "duration": 3, "velocity": 72}], "annotations": [{"time": 5, "annotation": {"number": 64, "value": 127}, "group": "control_change"}, {"time": 6, "annotation": {"number": 64, "value": 0}, "group": "control_change"}, {"time": 6, "annotation": {"number": 64, "value": 127}, "group": "control_change"}, {"time": 39, "annotation": {"number": 64, "value": 0}, "group": "control_change"}, {"time": 39, "annotation": {"number": 64, "value": 127}, "group": "control_change"}, {"time": 50, "annotation": {"number": 64, "value": 0}, "group": "control_change"}, {"time": 52, "annotation": {"number": 64, "value": 127}, "group": "control_change"}, {"time": 98, "annotation": {"number": 64, "value": 0}, "group": "control_change"}, {"time": 103, "annotation": {"number": 64, "value": 127}, "group": "control_change"}, {"time": 122, "annotation": {"number": 64, "value": 0}, "group": "control_change"}, {"time": 125, "annotation": {"number": 64, "value": 127}, "group": "control_change"}, {"time": 146, "annotation": {"number": 64, "value": 0}, "group": "control_change"}, {"time": 148, "annotation": {"number": 64, "value": 127}, "group": "control_change"}, {"time": 194, "annotation": {"number": 64, "value": 0}, "group": "control_change"}, {"time": 197, "annotation": {"number": 64, "value": 127}, "group": "control_change"}, {"time": 234, "annotation": {"number": 64, "value": 0}, "group": "control_change"}, {"time": 236, "annotation": {"number": 64, "value": 127}, "group": "control_change"}, {"time": 243, "annotation": {"number": 64, "value": 0}, "group": "control_change"}, {"time": 248, "annotation": {"number": 64, "value": 127}, "group": "control_change"}, {"time": 290, "annotation": {"number": 64, "value": 0}, "group": "control_change"}, {"time": 295, "annotation": {"number": 64, "value": 127}, "group": "control_change"}, {"time": 339, "annotation": {"number": 64, "value": 0}, "group": "control_change"}, {"time": 344, "annotation": {"number": 64, "value": 127}, "group": "control_change"}, {"time": 387, "annotation": {"number": 64, "value": 0}, "group": "control_change"}, {"time": 392, "annotation": {"number": 64, "value": 127}, "group": "control_change"}, {"time": 420, "annotation": {"number": 64, "value": 0}, "group": "control_change"}, {"time": 421, "annotation": {"number": 64, "value": 127}, "group": "control_change"}, {"time": 434, "annotation": {"number": 64, "value": 0}, "group": "control_change"}, {"time": 439, "annotation": {"number": 64, "value": 127}, "group": "control_change"}, {"time": 481, "annotation": {"number": 64, "value": 0}, "group": "control_change"}, {"time": 484, "annotation": {"number": 64, "value": 127}, "group": "control_change"}, {"time": 507, "annotation": {"number": 64, "value": 0}, "group": "control_change"}, {"time": 508, "annotation": {"number": 64, "value": 127}, "group": "control_change"}, {"time": 530, "annotation": {"number": 64, "value": 0}, "group": "control_change"}, {"time": 531, "annotation": {"number": 64, "value": 127}, "group": "control_change"}, {"time": 532, "annotation": {"number": 64, "value": 0}, "group": "control_change"}, {"time": 532, "annotation": {"number": 64, "value": 127}, "group": "control_change"}, {"time": 574, "annotation": {"number": 64, "value": 0}, "group": "control_change"}, {"time": 581, "annotation": {"number": 64, "value": 127}, "group": "control_change"}, {"time": 618, "annotation": {"number": 64, "value": 0}, "group": "control_change"}, {"time": 620, "annotation": {"number": 64, "value": 127}, "group": "control_change"}, {"time": 627, "annotation": {"number": 64, "value": 0}, "group": "control_change"}, {"time": 632, "annotation": {"number": 64, "value": 127}, "group": "control_change"}, {"time": 674, "annotation": {"number": 64, "value": 0}, "group": "control_change"}, {"time": 679, "annotation": {"number": 64, "value": 127}, "group": "control_change"}, {"time": 723, "annotation": {"number": 64, "value": 0}, "group": "control_change"}, {"time": 728, "annotation": {"number": 64, "value": 127}, "group": "control_change"}, {"time": 771, "annotation": {"number": 64, "value": 0}, "group": "control_change"}, {"time": 776, "annotation": {"number": 64, "value": 127}, "group": "control_change"}, {"time": 804, "annotation": {"number": 64, "value": 0}, "group": "control_change"}, {"time": 805, "annotation": {"number": 64, "value": 127}, "group": "control_change"}, {"time": 818, "annotation": {"number": 64, "value": 0}, "group": "control_change"}, {"time": 823, "annotation": {"number": 64, "value": 127}, "group": "control_change"}, {"time": 865, "annotation": {"number": 64, "value": 0}, "group": "control_change"}, {"time": 868, "annotation": {"number": 64, "value": 127}, "group": "control_change"}, {"time": 891, "annotation": {"number": 64, "value": 0}, "group": "control_change"}, {"time": 892, "annotation": {"number": 64, "value": 127}, "group": "control_change"}, {"time": 914, "annotation": {"number": 64, "value": 0}, "group": "control_change"}, {"time": 916, "annotation": {"number": 64, "value": 127}, "group": "control_change"}, {"time": 916, "annotation": {"number": 64, "value": 0}, "group": "control_change"}, {"time": 961, "annotation": {"number": 64, "value": 0}, "group": "control_change"}, {"time": 964, "annotation": {"number": 64, "value": 127}, "group": "control_change"}, {"time": 986, "annotation": {"number": 64, "value": 0}, "group": "control_change"}, {"time": 988, "annotation": {"number": 64, "value": 127}, "group": "control_change"}, {"time": 1011, "annotation": {"number": 64, "value": 0}, "group": "control_change"}, {"time": 1014, "annotation": {"number": 64, "value": 127}, "group": "control_change"}, {"time": 1034, "annotation": {"number": 64, "value": 0}, "group": "control_change"}, {"time": 1036, "annotation": {"number": 64, "value": 127}, "group": "control_change"}, {"time": 1057, "annotation": {"number": 64, "value": 0}, "group": "control_change"}, {"time": 1060, "annotation": {"number": 64, "value": 127}, "group": "control_change"}, {"time": 1082, "annotation": {"number": 64, "value": 0}, "group": "control_change"}, {"time": 1083, "annotation": {"number": 64, "value": 127}, "group": "control_change"}, {"time": 1107, "annotation": {"number": 64, "value": 0}, "group": "control_change"}, {"time": 1112, "annotation": {"number": 64, "value": 127}, "group": "control_change"}, {"time": 1155, "annotation": {"number": 64, "value": 0}, "group": "control_change"}, {"time": 1157, "annotation": {"number": 64, "value": 127}, "group": "control_change"}, {"time": 1178, "annotation": {"number": 64, "value": 0}, "group": "control_change"}, {"time": 1180, "annotation": {"number": 64, "value": 127}, "group": "control_change"}, {"time": 1203, "annotation": {"number": 64, "value": 0}, "group": "control_change"}, {"time": 1209, "annotation": {"number": 64, "value": 127}, "group": "control_change"}, {"time": 1250, "annotation": {"number": 64, "value": 0}, "group": "control_change"}, {"time": 1252, "annotation": {"number": 64, "value": 127}, "group": "control_change"}, {"time": 1274, "annotation": {"number": 64, "value": 0}, "group": "control_change"}, {"time": 1276, "annotation": {"number": 64, "value": 127}, "group": "control_change"}, {"time": 1297, "annotation": {"number": 64, "value": 0}, "group": "control_change"}, {"time": 1301, "annotation": {"number": 64, "value": 127}, "group": "control_change"}, {"time": 1342, "annotation": {"number": 64, "value": 0}, "group": "control_change"}, {"time": 1348, "annotation": {"number": 64, "value": 127}, "group": "control_change"}, {"time": 1370, "annotation": {"number": 64, "value": 0}, "group": "control_change"}, {"time": 1372, "annotation": {"number": 64, "value": 127}, "group": "control_change"}, {"time": 1395, "annotation": {"number": 64, "value": 0}, "group": "control_change"}, {"time": 1398, "annotation": {"number": 64, "value": 127}, "group": "control_change"}, {"time": 1418, "annotation": {"number": 64, "value": 0}, "group": "control_change"}, {"time": 1420, "annotation": {"number": 64, "value": 127}, "group": "control_change"}, {"time": 1441, "annotation": {"number": 64, "value": 0}, "group": "control_change"}, {"time": 1444, "annotation": {"number": 64, "value": 127}, "group": "control_change"}, {"time": 1466, "annotation": {"number": 64, "value": 0}, "group": "control_change"}, {"time": 1467, "annotation": {"number": 64, "value": 127}, "group": "control_change"}, {"time": 1491, "annotation": {"number": 64, "value": 0}, "group": "control_change"}, {"time": 1496, "annotation": {"number": 64, "value": 127}, "group": "control_change"}, {"time": 1539, "annotation": {"number": 64, "value": 0}, "group": "control_change"}, {"time": 1539, "annotation": {"number": 64, "value": 127}, "group": "control_change"}, {"time": 1562, "annotation": {"number": 64, "value": 0}, "group": "control_change"}, {"time": 1564, "annotation": {"number": 64, "value": 127}, "group": "control_change"}, {"time": 1586, "annotation": {"number": 64, "value": 0}, "group": "control_change"}, {"time": 1589, "annotation": {"number": 64, "value": 127}, "group": "control_change"}, {"time": 1610, "annotation": {"number": 64, "value": 0}, "group": "control_change"}, {"time": 1612, "annotation": {"number": 64, "value": 127}, "group": "control_change"}, {"time": 1635, "annotation": {"number": 64, "value": 0}, "group": "control_change"}, {"time": 1639, "annotation": {"number": 64, "value": 127}, "group": "control_change"}, {"time": 1657, "annotation": {"number": 64, "value": 0}, "group": "control_change"}, {"time": 1659, "annotation": {"number": 64, "value": 127}, "group": "control_change"}, {"time": 1682, "annotation": {"number": 64, "value": 0}, "group": "control_change"}, {"time": 1684, "annotation": {"number": 64, "value": 127}, "group": "control_change"}, {"time": 1706, "annotation": {"number": 64, "value": 0}, "group": "control_change"}, {"time": 1708, "annotation": {"number": 64, "value": 127}, "group": "control_change"}, {"time": 1728, "annotation": {"number": 64, "value": 0}, "group": "control_change"}, {"time": 1733, "annotation": {"number": 64, "value": 127}, "group": "control_change"}, {"time": 1770, "annotation": {"number": 64, "value": 0}, "group": "control_change"}, {"time": 1772, "annotation": {"number": 64, "value": 127}, "group": "control_change"}, {"time": 1779, "annotation": {"number": 64, "value": 0}, "group": "control_change"}, {"time": 1784, "annotation": {"number": 64, "value": 127}, "group": "control_change"}, {"time": 1826, "annotation": {"number": 64, "value": 0}, "group": "control_change"}, {"time": 1831, "annotation": {"number": 64, "value": 127}, "group": "control_change"}, {"time": 1875, "annotation": {"number": 64, "value": 0}, "group": "control_change"}, {"time": 1880, "annotation": {"number": 64, "value": 127}, "group": "control_change"}, {"time": 1923, "annotation": {"number": 64, "value": 0}, "group": "control_change"}, {"time": 1928, "annotation": {"number": 64, "value": 127}, "group": "control_change"}, {"time": 1956, "annotation": {"number": 64, "value": 0}, "group": "control_change"}, {"time": 1957, "annotation": {"number": 64, "value": 127}, "group": "control_change"}, {"time": 1970, "annotation": {"number": 64, "value": 0}, "group": "control_change"}, {"time": 1975, "annotation": {"number": 64, "value": 127}, "group": "control_change"}, {"time": 2017, "annotation": {"number": 64, "value": 0}, "group": "control_change"}, {"time": 2020, "annotation": {"number": 64, "value": 127}, "group": "control_change"}, {"time": 2043, "annotation": {"number": 64, "value": 0}, "group": "control_change"}, {"time": 2044, "annotation": {"number": 64, "value": 127}, "group": "control_change"}, {"time": 2066, "annotation": {"number": 64, "value": 0}, "group": "control_change"}, {"time": 2067, "annotation": {"number": 64, "value": 127}, "group": "control_change"}, {"time": 2068, "annotation": {"number": 64, "value": 0}, "group": "control_change"}, {"time": 2068, "annotation": {"number": 64, "value": 127}, "group": "control_change"}, {"time": 2110, "annotation": {"number": 64, "value": 0}, "group": "control_change"}, {"time": 2117, "annotation": {"number": 64, "value": 127}, "group": "control_change"}, {"time": 2154, "annotation": {"number": 64, "value": 0}, "group": "control_change"}, {"time": 2156, "annotation": {"number": 64, "value": 127}, "group": "control_change"}, {"time": 2163, "annotation": {"number": 64, "value": 0}, "group": "control_change"}, {"time": 2168, "annotation": {"number": 64, "value": 127}, "group": "control_change"}, {"time": 2210, "annotation": {"number": 64, "value": 0}, "group": "control_change"}, {"time": 2215, "annotation": {"number": 64, "value": 127}, "group": "control_change"}, {"time": 2259, "annotation": {"number": 64, "value": 0}, "group": "control_change"}, {"time": 2264, "annotation": {"number": 64, "value": 127}, "group": "control_change"}, {"time": 2307, "annotation": {"number": 64, "value": 0}, "group": "control_change"}, {"time": 2312, "annotation": {"number": 64, "value": 127}, "group": "control_change"}, {"time": 2340, "annotation": {"number": 64, "value": 0}, "group": "control_change"}, {"time": 2341, "annotation": {"number": 64, "value": 127}, "group": "control_change"}, {"time": 2354, "annotation": {"number": 64, "value": 0}, "group": "control_change"}, {"time": 2359, "annotation": {"number": 64, "value": 127}, "group": "control_change"}, {"time": 2401, "annotation": {"number": 64, "value": 0}, "group": "control_change"}, {"time": 2404, "annotation": {"number": 64, "value": 127}, "group": "control_change"}, {"time": 2427, "annotation": {"number": 64, "value": 0}, "group": "control_change"}, {"time": 2428, "annotation": {"number": 64, "value": 127}, "group": "control_change"}, {"time": 2450, "annotation": {"number": 64, "value": 0}, "group": "control_change"}, {"time": 2452, "annotation": {"number": 64, "value": 127}, "group": "control_change"}, {"time": 2452, "annotation": {"number": 64, "value": 0}, "group": "control_change"}, {"time": 2497, "annotation": {"number": 64, "value": 0}, "group": "control_change"}, {"time": 2500, "annotation": {"number": 64, "value": 127}, "group": "control_change"}, {"time": 2522, "annotation": {"number": 64, "value": 0}, "group": "control_change"}, {"time": 2524, "annotation": {"number": 64, "value": 127}, "group": "control_change"}, {"time": 2547, "annotation": {"number": 64, "value": 0}, "group": "control_change"}, {"time": 2550, "annotation": {"number": 64, "value": 127}, "group": "control_change"}, {"time": 2570, "annotation": {"number": 64, "value": 0}, "group": "control_change"}, {"time": 2572, "annotation": {"number": 64, "value": 127}, "group": "control_change"}, {"time": 2593, "annotation": {"number": 64, "value": 0}, "group": "control_change"}, {"time": 2596, "annotation": {"number": 64, "value": 127}, "group": "control_change"}, {"time": 2618, "annotation": {"number": 64, "value": 0}, "group": "control_change"}, {"time": 2619, "annotation": {"number": 64, "value": 127}, "group": "control_change"}, {"time": 2643, "annotation": {"number": 64, "value": 0}, "group": "control_change"}, {"time": 2648, "annotation": {"number": 64, "value": 127}, "group": "control_change"}, {"time": 2691, "annotation": {"number": 64, "value": 0}, "group": "control_change"}, {"time": 2693, "annotation": {"number": 64, "value": 127}, "group": "control_change"}, {"time": 2714, "annotation": {"number": 64, "value": 0}, "group": "control_change"}, {"time": 2716, "annotation": {"number": 64, "value": 127}, "group": "control_change"}, {"time": 2739, "annotation": {"number": 64, "value": 0}, "group": "control_change"}, {"time": 2745, "annotation": {"number": 64, "value": 127}, "group": "control_change"}, {"time": 2786, "annotation": {"number": 64, "value": 0}, "group": "control_change"}, {"time": 2788, "annotation": {"number": 64, "value": 127}, "group": "control_change"}, {"time": 2810, "annotation": {"number": 64, "value": 0}, "group": "control_change"}, {"time": 2812, "annotation": {"number": 64, "value": 127}, "group": "control_change"}, {"time": 2833, "annotation": {"number": 64, "value": 0}, "group": "control_change"}, {"time": 2837, "annotation": {"number": 64, "value": 127}, "group": "control_change"}, {"time": 2878, "annotation": {"number": 64, "value": 0}, "group": "control_change"}, {"time": 2884, "annotation": {"number": 64, "value": 127}, "group": "control_change"}, {"time": 2906, "annotation": {"number": 64, "value": 0}, "group": "control_change"}, {"time": 2908, "annotation": {"number": 64, "value": 127}, "group": "control_change"}, {"time": 2931, "annotation": {"number": 64, "value": 0}, "group": "control_change"}, {"time": 2934, "annotation": {"number": 64, "value": 127}, "group": "control_change"}, {"time": 2954, "annotation": {"number": 64, "value": 0}, "group": "control_change"}, {"time": 2956, "annotation": {"number": 64, "value": 127}, "group": "control_change"}, {"time": 2977, "annotation": {"number": 64, "value": 0}, "group": "control_change"}, {"time": 2980, "annotation": {"number": 64, "value": 127}, "group": "control_change"}, {"time": 3002, "annotation": {"number": 64, "value": 0}, "group": "control_change"}, {"time": 3003, "annotation": {"number": 64, "value": 127}, "group": "control_change"}, {"time": 3027, "annotation": {"number": 64, "value": 0}, "group": "control_change"}, {"time": 3032, "annotation": {"number": 64, "value": 127}, "group": "control_change"}, {"time": 3075, "annotation": {"number": 64, "value": 0}, "group": "control_change"}, {"time": 3077, "annotation": {"number": 64, "value": 127}, "group": "control_change"}, {"time": 3098, "annotation": {"number": 64, "value": 0}, "group": "control_change"}, {"time": 3100, "annotation": {"number": 64, "value": 127}, "group": "control_change"}, {"time": 3123, "annotation": {"number": 64, "value": 0}, "group": "control_change"}, {"time": 3129, "annotation": {"number": 64, "value": 127}, "group": "control_change"}, {"time": 3170, "annotation": {"number": 64, "value": 0}, "group": "control_change"}, {"time": 3172, "annotation": {"number": 64, "value": 127}, "group": "control_change"}, {"time": 3194, "annotation": {"number": 64, "value": 0}, "group": "control_change"}, {"time": 3196, "annotation": {"number": 64, "value": 127}, "group": "control_change"}, {"time": 3217, "annotation": {"number": 64, "value": 0}, "group": "control_change"}, {"time": 3221, "annotation": {"number": 64, "value": 127}, "group": "control_change"}, {"time": 3262, "annotation": {"number": 64, "value": 0}, "group": "control_change"}, {"time": 3268, "annotation": {"number": 64, "value": 127}, "group": "control_change"}, {"time": 3290, "annotation": {"number": 64, "value": 0}, "group": "control_change"}, {"time": 3292, "annotation": {"number": 64, "value": 127}, "group": "control_change"}, {"time": 3315, "annotation": {"number": 64, "value": 0}, "group": "control_change"}, {"time": 3318, "annotation": {"number": 64, "value": 127}, "group": "control_change"}, {"time": 3338, "annotation": {"number": 64, "value": 0}, "group": "control_change"}, {"time": 3340, "annotation": {"number": 64, "value": 127}, "group": "control_change"}, {"time": 3361, "annotation": {"number": 64, "value": 0}, "group": "control_change"}, {"time": 3364, "annotation": {"number": 64, "value": 127}, "group": "control_change"}, {"time": 3386, "annotation": {"number": 64, "value": 0}, "group": "control_change"}, {"time": 3387, "annotation": {"number": 64, "value": 127}, "group": "control_change"}, {"time": 3411, "annotation": {"number": 64, "value": 0}, "group": "control_change"}, {"time": 3416, "annotation": {"number": 64, "value": 127}, "group": "control_change"}, {"time": 3459, "annotation": {"number": 64, "value": 0}, "group": "control_change"}, {"time": 3461, "annotation": {"number": 64, "value": 127}, "group": "control_change"}, {"time": 3482, "annotation": {"number": 64, "value": 0}, "group": "control_change"}, {"time": 3484, "annotation": {"number": 64, "value": 127}, "group": "control_change"}, {"time": 3507, "annotation": {"number": 64, "value": 0}, "group": "control_change"}, {"time": 3513, "annotation": {"number": 64, "value": 127}, "group": "control_change"}, {"time": 3554, "annotation": {"number": 64, "value": 0}, "group": "control_change"}, {"time": 3556, "annotation": {"number": 64, "value": 127}, "group": "control_change"}, {"time": 3578, "annotation": {"number": 64, "value": 0}, "group": "control_change"}, {"time": 3580, "annotation": {"number": 64, "value": 127}, "group": "control_change"}, {"time": 3601, "annotation": {"number": 64, "value": 0}, "group": "control_change"}, {"time": 3605, "annotation": {"number": 64, "value": 127}, "group": "control_change"}, {"time": 3646, "annotation": {"number": 64, "value": 0}, "group": "control_change"}, {"time": 3652, "annotation": {"number": 64, "value": 127}, "group": "control_change"}, {"time": 3674, "annotation": {"number": 64, "value": 0}, "group": "control_change"}, {"time": 3676, "annotation": {"number": 64, "value": 127}, "group": "control_change"}, {"time": 3699, "annotation": {"number": 64, "value": 0}, "group": "control_change"}, {"time": 3702, "annotation": {"number": 64, "value": 127}, "group": "control_change"}, {"time": 3722, "annotation": {"number": 64, "value": 0}, "group": "control_change"}, {"time": 3724, "annotation": {"number": 64, "value": 127}, "group": "control_change"}, {"time": 3745, "annotation": {"number": 64, "value": 0}, "group": "control_change"}, {"time": 3748, "annotation": {"number": 64, "value": 127}, "group": "control_change"}, {"time": 3770, "annotation": {"number": 64, "value": 0}, "group": "control_change"}, {"time": 3771, "annotation": {"number": 64, "value": 127}, "group": "control_change"}, {"time": 3795, "annotation": {"number": 64, "value": 0}, "group": "control_change"}, {"time": 3800, "annotation": {"number": 64, "value": 127}, "group": "control_change"}, {"time": 3843, "annotation": {"number": 64, "value": 0}, "group": "control_change"}, {"time": 3845, "annotation": {"number": 64, "value": 127}, "group": "control_change"}, {"time": 3866, "annotation": {"number": 64, "value": 0}, "group": "control_change"}, {"time": 3868, "annotation": {"number": 64, "value": 127}, "group": "control_change"}, {"time": 3891, "annotation": {"number": 64, "value": 0}, "group": "control_change"}, {"time": 3897, "annotation": {"number": 64, "value": 127}, "group": "control_change"}, {"time": 3938, "annotation": {"number": 64, "value": 0}, "group": "control_change"}, {"time": 3940, "annotation": {"number": 64, "value": 127}, "group": "control_change"}, {"time": 3962, "annotation": {"number": 64, "value": 0}, "group": "control_change"}, {"time": 3964, "annotation": {"number": 64, "value": 127}, "group": "control_change"}, {"time": 3985, "annotation": {"number": 64, "value": 0}, "group": "control_change"}, {"time": 3992, "annotation": {"number": 64, "value": 127}, "group": "control_change"}, {"time": 4033, "annotation": {"number": 64, "value": 0}, "group": "control_change"}, {"time": 4035, "annotation": {"number": 64, "value": 127}, "group": "control_change"}, {"time": 4082, "annotation": {"number": 64, "value": 0}, "group": "control_change"}, {"time": 4085, "annotation": {"number": 64, "value": 127}, "group": "control_change"}, {"time": 4129, "annotation": {"number": 64, "value": 0}, "group": "control_change"}, {"time": 4132, "annotation": {"number": 64, "value": 127}, "group": "control_change"}, {"time": 4178, "annotation": {"number": 64, "value": 0}, "group": "control_change"}, {"time": 4180, "annotation": {"number": 64, "value": 127}, "group": "control_change"}]}]}