{"metadata": {"schema_version": "0.2", "title": "None", "source_filename": "536.mid", "source_format": "midi"}, "resolution": 12, "tempos": [{"time": 0, "qpm": 69.00009660013524}, {"time": 3469, "qpm": 68.30002379117495}, {"time": 3477, "qpm": 67.5000675000675}, {"time": 3484, "qpm": 67.20001075200172}, {"time": 3504, "qpm": 69.00009660013524}], "time_signatures": [{"time": 0, "numerator": 1, "denominator": 4}], "tracks": [{"program": 4, "is_drum": false, "name": "MELODY", "notes": [{"time": 537, "pitch": 69, "duration": 3, "velocity": 89}, {"time": 543, "pitch": 71, "duration": 5, "velocity": 89}, {"time": 549, "pitch": 67, "duration": 9, "velocity": 92}, {"time": 561, "pitch": 69, "duration": 4, "velocity": 94}, {"time": 567, "pitch": 71, "duration": 5, "velocity": 93}, {"time": 573, "pitch": 67, "duration": 9, "velocity": 95}, {"time": 585, "pitch": 69, "duration": 4, "velocity": 90}, {"time": 591, "pitch": 71, "duration": 4, "velocity": 95}, {"time": 597, "pitch": 74, "duration": 10, "velocity": 100}, {"time": 609, "pitch": 74, "duration": 4, "velocity": 99}, {"time": 615, "pitch": 76, "duration": 4, "velocity": 99}, {"time": 621, "pitch": 67, "duration": 10, "velocity": 93}, {"time": 633, "pitch": 64, "duration": 4, "velocity": 93}, {"time": 639, "pitch": 67, "duration": 4, "velocity": 93}, {"time": 645, "pitch": 69, "duration": 9, "velocity": 93}, {"time": 657, "pitch": 69, "duration": 5, "velocity": 95}, {"time": 663, "pitch": 67, "duration": 6, "velocity": 93}, {"time": 669, "pitch": 64, "duration": 10, "velocity": 93}, {"time": 681, "pitch": 64, "duration": 4, "velocity": 97}, {"time": 687, "pitch": 67, "duration": 4, "velocity": 93}, {"time": 693, "pitch": 69, "duration": 4, "velocity": 94}, {"time": 699, "pitch": 71, "duration": 5, "velocity": 92}, {"time": 705, "pitch": 69, "duration": 4, "velocity": 94}, {"time": 711, "pitch": 67, "duration": 5, "velocity": 89}, {"time": 717, "pitch": 69, "duration": 10, "velocity": 97}, {"time": 729, "pitch": 71, "duration": 4, "velocity": 94}, {"time": 735, "pitch": 69, "duration": 5, "velocity": 93}, {"time": 741, "pitch": 67, "duration": 10, "velocity": 93}, {"time": 753, "pitch": 69, "duration": 4, "velocity": 94}, {"time": 759, "pitch": 71, "duration": 4, "velocity": 95}, {"time": 765, "pitch": 67, "duration": 11, "velocity": 92}, {"time": 777, "pitch": 69, "duration": 4, "velocity": 95}, {"time": 783, "pitch": 71, "duration": 6, "velocity": 94}, {"time": 789, "pitch": 74, "duration": 4, "velocity": 99}, {"time": 801, "pitch": 74, "duration": 4, "velocity": 99}, {"time": 807, "pitch": 76, "duration": 4, "velocity": 95}, {"time": 813, "pitch": 67, "duration": 11, "velocity": 93}, {"time": 825, "pitch": 64, "duration": 4, "velocity": 92}, {"time": 831, "pitch": 67, "duration": 4, "velocity": 90}, {"time": 837, "pitch": 69, "duration": 10, "velocity": 91}, {"time": 849, "pitch": 69, "duration": 4, "velocity": 93}, {"time": 855, "pitch": 67, "duration": 6, "velocity": 89}, {"time": 861, "pitch": 64, "duration": 10, "velocity": 95}, {"time": 873, "pitch": 62, "duration": 4, "velocity": 94}, {"time": 879, "pitch": 64, "duration": 11, "velocity": 94}, {"time": 891, "pitch": 67, "duration": 27, "velocity": 93}, {"time": 921, "pitch": 71, "duration": 4, "velocity": 97}, {"time": 927, "pitch": 74, "duration": 4, "velocity": 102}, {"time": 933, "pitch": 74, "duration": 4, "velocity": 100}, {"time": 939, "pitch": 74, "duration": 5, "velocity": 99}, {"time": 945, "pitch": 74, "duration": 4, "velocity": 94}, {"time": 951, "pitch": 76, "duration": 4, "velocity": 94}, {"time": 957, "pitch": 74, "duration": 10, "velocity": 100}, {"time": 969, "pitch": 76, "duration": 4, "velocity": 95}, {"time": 975, "pitch": 78, "duration": 4, "velocity": 99}, {"time": 981, "pitch": 79, "duration": 5, "velocity": 92}, {"time": 987, "pitch": 76, "duration": 4, "velocity": 97}, {"time": 993, "pitch": 76, "duration": 5, "velocity": 95}, {"time": 999, "pitch": 74, "duration": 5, "velocity": 100}, {"time": 1005, "pitch": 71, "duration": 9, "velocity": 95}, {"time": 1017, "pitch": 71, "duration": 4, "velocity": 94}, {"time": 1023, "pitch": 69, "duration": 4, "velocity": 94}, {"time": 1029, "pitch": 67, "duration": 10, "velocity": 93}, {"time": 1041, "pitch": 67, "duration": 5, "velocity": 95}, {"time": 1047, "pitch": 76, "duration": 4, "velocity": 94}, {"time": 1053, "pitch": 74, "duration": 10, "velocity": 99}, {"time": 1065, "pitch": 71, "duration": 4, "velocity": 93}, {"time": 1071, "pitch": 69, "duration": 4, "velocity": 97}, {"time": 1077, "pitch": 67, "duration": 10, "velocity": 90}, {"time": 1089, "pitch": 67, "duration": 2, "velocity": 94}, {"time": 1092, "pitch": 64, "duration": 5, "velocity": 97}, {"time": 1098, "pitch": 69, "duration": 2, "velocity": 87}, {"time": 1101, "pitch": 69, "duration": 10, "velocity": 95}, {"time": 1113, "pitch": 71, "duration": 4, "velocity": 97}, {"time": 1119, "pitch": 74, "duration": 4, "velocity": 102}, {"time": 1125, "pitch": 74, "duration": 4, "velocity": 100}, {"time": 1131, "pitch": 74, "duration": 5, "velocity": 99}, {"time": 1137, "pitch": 74, "duration": 4, "velocity": 94}, {"time": 1143, "pitch": 76, "duration": 4, "velocity": 94}, {"time": 1149, "pitch": 74, "duration": 10, "velocity": 100}, {"time": 1161, "pitch": 76, "duration": 4, "velocity": 95}, {"time": 1167, "pitch": 78, "duration": 4, "velocity": 99}, {"time": 1173, "pitch": 79, "duration": 5, "velocity": 92}, {"time": 1179, "pitch": 76, "duration": 4, "velocity": 97}, {"time": 1185, "pitch": 76, "duration": 5, "velocity": 95}, {"time": 1191, "pitch": 74, "duration": 5, "velocity": 100}, {"time": 1197, "pitch": 71, "duration": 9, "velocity": 95}, {"time": 1209, "pitch": 71, "duration": 4, "velocity": 94}, {"time": 1215, "pitch": 69, "duration": 4, "velocity": 94}, {"time": 1221, "pitch": 67, "duration": 10, "velocity": 93}, {"time": 1233, "pitch": 67, "duration": 5, "velocity": 95}, {"time": 1239, "pitch": 76, "duration": 4, "velocity": 94}, {"time": 1245, "pitch": 74, "duration": 10, "velocity": 99}, {"time": 1257, "pitch": 71, "duration": 4, "velocity": 93}, {"time": 1263, "pitch": 69, "duration": 4, "velocity": 97}, {"time": 1269, "pitch": 67, "duration": 10, "velocity": 90}, {"time": 1281, "pitch": 64, "duration": 4, "velocity": 98}, {"time": 1287, "pitch": 67, "duration": 4, "velocity": 94}, {"time": 1293, "pitch": 67, "duration": 29, "velocity": 94}, {"time": 1761, "pitch": 69, "duration": 3, "velocity": 89}, {"time": 1767, "pitch": 71, "duration": 5, "velocity": 89}, {"time": 1773, "pitch": 67, "duration": 9, "velocity": 92}, {"time": 1785, "pitch": 69, "duration": 4, "velocity": 94}, {"time": 1791, "pitch": 71, "duration": 5, "velocity": 93}, {"time": 1797, "pitch": 67, "duration": 9, "velocity": 95}, {"time": 1809, "pitch": 69, "duration": 4, "velocity": 90}, {"time": 1815, "pitch": 71, "duration": 4, "velocity": 95}, {"time": 1821, "pitch": 74, "duration": 10, "velocity": 100}, {"time": 1833, "pitch": 74, "duration": 4, "velocity": 99}, {"time": 1839, "pitch": 76, "duration": 4, "velocity": 99}, {"time": 1845, "pitch": 67, "duration": 10, "velocity": 93}, {"time": 1857, "pitch": 64, "duration": 4, "velocity": 93}, {"time": 1863, "pitch": 67, "duration": 4, "velocity": 93}, {"time": 1869, "pitch": 69, "duration": 9, "velocity": 93}, {"time": 1881, "pitch": 69, "duration": 5, "velocity": 95}, {"time": 1887, "pitch": 67, "duration": 6, "velocity": 93}, {"time": 1893, "pitch": 64, "duration": 10, "velocity": 93}, {"time": 1905, "pitch": 64, "duration": 4, "velocity": 97}, {"time": 1911, "pitch": 67, "duration": 4, "velocity": 93}, {"time": 1917, "pitch": 69, "duration": 4, "velocity": 94}, {"time": 1923, "pitch": 71, "duration": 5, "velocity": 92}, {"time": 1929, "pitch": 69, "duration": 4, "velocity": 94}, {"time": 1935, "pitch": 67, "duration": 5, "velocity": 89}, {"time": 1941, "pitch": 69, "duration": 10, "velocity": 97}, {"time": 1953, "pitch": 71, "duration": 4, "velocity": 94}, {"time": 1959, "pitch": 69, "duration": 5, "velocity": 93}, {"time": 1965, "pitch": 67, "duration": 10, "velocity": 93}, {"time": 1977, "pitch": 69, "duration": 4, "velocity": 94}, {"time": 1983, "pitch": 71, "duration": 4, "velocity": 95}, {"time": 1989, "pitch": 67, "duration": 11, "velocity": 92}, {"time": 2001, "pitch": 69, "duration": 4, "velocity": 95}, {"time": 2007, "pitch": 71, "duration": 6, "velocity": 94}, {"time": 2013, "pitch": 74, "duration": 4, "velocity": 99}, {"time": 2025, "pitch": 74, "duration": 4, "velocity": 99}, {"time": 2031, "pitch": 76, "duration": 4, "velocity": 95}, {"time": 2037, "pitch": 67, "duration": 11, "velocity": 93}, {"time": 2049, "pitch": 64, "duration": 4, "velocity": 92}, {"time": 2055, "pitch": 67, "duration": 4, "velocity": 90}, {"time": 2061, "pitch": 69, "duration": 10, "velocity": 91}, {"time": 2073, "pitch": 69, "duration": 4, "velocity": 93}, {"time": 2079, "pitch": 67, "duration": 6, "velocity": 89}, {"time": 2085, "pitch": 64, "duration": 10, "velocity": 95}, {"time": 2097, "pitch": 62, "duration": 4, "velocity": 94}, {"time": 2103, "pitch": 64, "duration": 11, "velocity": 94}, {"time": 2115, "pitch": 67, "duration": 27, "velocity": 93}, {"time": 2145, "pitch": 71, "duration": 4, "velocity": 97}, {"time": 2151, "pitch": 74, "duration": 4, "velocity": 102}, {"time": 2157, "pitch": 74, "duration": 4, "velocity": 100}, {"time": 2163, "pitch": 74, "duration": 5, "velocity": 99}, {"time": 2169, "pitch": 74, "duration": 4, "velocity": 94}, {"time": 2175, "pitch": 76, "duration": 4, "velocity": 94}, {"time": 2181, "pitch": 74, "duration": 10, "velocity": 100}, {"time": 2193, "pitch": 76, "duration": 4, "velocity": 95}, {"time": 2199, "pitch": 78, "duration": 4, "velocity": 99}, {"time": 2205, "pitch": 79, "duration": 5, "velocity": 92}, {"time": 2211, "pitch": 76, "duration": 4, "velocity": 97}, {"time": 2217, "pitch": 76, "duration": 5, "velocity": 95}, {"time": 2223, "pitch": 74, "duration": 5, "velocity": 100}, {"time": 2229, "pitch": 71, "duration": 9, "velocity": 95}, {"time": 2241, "pitch": 71, "duration": 4, "velocity": 94}, {"time": 2247, "pitch": 69, "duration": 4, "velocity": 94}, {"time": 2253, "pitch": 67, "duration": 10, "velocity": 93}, {"time": 2265, "pitch": 67, "duration": 5, "velocity": 95}, {"time": 2271, "pitch": 76, "duration": 4, "velocity": 94}, {"time": 2277, "pitch": 74, "duration": 10, "velocity": 99}, {"time": 2289, "pitch": 71, "duration": 4, "velocity": 93}, {"time": 2295, "pitch": 69, "duration": 4, "velocity": 97}, {"time": 2301, "pitch": 67, "duration": 10, "velocity": 90}, {"time": 2313, "pitch": 67, "duration": 2, "velocity": 94}, {"time": 2316, "pitch": 64, "duration": 5, "velocity": 97}, {"time": 2322, "pitch": 69, "duration": 2, "velocity": 87}, {"time": 2325, "pitch": 69, "duration": 10, "velocity": 95}, {"time": 2337, "pitch": 71, "duration": 4, "velocity": 97}, {"time": 2343, "pitch": 74, "duration": 4, "velocity": 102}, {"time": 2349, "pitch": 74, "duration": 4, "velocity": 100}, {"time": 2355, "pitch": 74, "duration": 5, "velocity": 99}, {"time": 2361, "pitch": 74, "duration": 4, "velocity": 94}, {"time": 2367, "pitch": 76, "duration": 4, "velocity": 94}, {"time": 2373, "pitch": 74, "duration": 10, "velocity": 100}, {"time": 2385, "pitch": 76, "duration": 4, "velocity": 95}, {"time": 2391, "pitch": 78, "duration": 4, "velocity": 99}, {"time": 2397, "pitch": 79, "duration": 5, "velocity": 92}, {"time": 2403, "pitch": 76, "duration": 4, "velocity": 97}, {"time": 2409, "pitch": 76, "duration": 5, "velocity": 95}, {"time": 2415, "pitch": 74, "duration": 5, "velocity": 100}, {"time": 2421, "pitch": 71, "duration": 9, "velocity": 95}, {"time": 2433, "pitch": 71, "duration": 4, "velocity": 94}, {"time": 2439, "pitch": 69, "duration": 4, "velocity": 94}, {"time": 2445, "pitch": 67, "duration": 10, "velocity": 93}, {"time": 2457, "pitch": 67, "duration": 5, "velocity": 95}, {"time": 2463, "pitch": 76, "duration": 4, "velocity": 94}, {"time": 2469, "pitch": 74, "duration": 10, "velocity": 99}, {"time": 2481, "pitch": 71, "duration": 4, "velocity": 93}, {"time": 2487, "pitch": 69, "duration": 4, "velocity": 97}, {"time": 2493, "pitch": 67, "duration": 10, "velocity": 90}, {"time": 2505, "pitch": 64, "duration": 4, "velocity": 98}, {"time": 2511, "pitch": 67, "duration": 4, "velocity": 94}, {"time": 2517, "pitch": 67, "duration": 29, "velocity": 94}, {"time": 2553, "pitch": 71, "duration": 4, "velocity": 97}, {"time": 2559, "pitch": 74, "duration": 4, "velocity": 102}, {"time": 2565, "pitch": 74, "duration": 4, "velocity": 100}, {"time": 2571, "pitch": 74, "duration": 5, "velocity": 99}, {"time": 2577, "pitch": 74, "duration": 4, "velocity": 94}, {"time": 2583, "pitch": 76, "duration": 4, "velocity": 94}, {"time": 2589, "pitch": 74, "duration": 10, "velocity": 100}, {"time": 2601, "pitch": 76, "duration": 4, "velocity": 95}, {"time": 2607, "pitch": 78, "duration": 4, "velocity": 99}, {"time": 2613, "pitch": 79, "duration": 5, "velocity": 92}, {"time": 2619, "pitch": 76, "duration": 4, "velocity": 97}, {"time": 2625, "pitch": 76, "duration": 5, "velocity": 95}, {"time": 2631, "pitch": 74, "duration": 5, "velocity": 100}, {"time": 2637, "pitch": 71, "duration": 9, "velocity": 95}, {"time": 2649, "pitch": 71, "duration": 4, "velocity": 94}, {"time": 2655, "pitch": 69, "duration": 4, "velocity": 94}, {"time": 2661, "pitch": 67, "duration": 10, "velocity": 93}, {"time": 2673, "pitch": 67, "duration": 5, "velocity": 95}, {"time": 2679, "pitch": 76, "duration": 4, "velocity": 94}, {"time": 2685, "pitch": 74, "duration": 10, "velocity": 99}, {"time": 2697, "pitch": 71, "duration": 4, "velocity": 93}, {"time": 2703, "pitch": 69, "duration": 4, "velocity": 97}, {"time": 2709, "pitch": 67, "duration": 10, "velocity": 90}, {"time": 2721, "pitch": 67, "duration": 2, "velocity": 94}, {"time": 2724, "pitch": 64, "duration": 5, "velocity": 97}, {"time": 2730, "pitch": 69, "duration": 2, "velocity": 87}, {"time": 2733, "pitch": 69, "duration": 10, "velocity": 95}, {"time": 2745, "pitch": 71, "duration": 4, "velocity": 97}, {"time": 2751, "pitch": 74, "duration": 4, "velocity": 102}, {"time": 2757, "pitch": 74, "duration": 4, "velocity": 100}, {"time": 2763, "pitch": 74, "duration": 5, "velocity": 99}, {"time": 2769, "pitch": 74, "duration": 4, "velocity": 94}, {"time": 2775, "pitch": 76, "duration": 4, "velocity": 94}, {"time": 2781, "pitch": 74, "duration": 10, "velocity": 100}, {"time": 2793, "pitch": 76, "duration": 4, "velocity": 95}, {"time": 2799, "pitch": 78, "duration": 4, "velocity": 99}, {"time": 2805, "pitch": 79, "duration": 5, "velocity": 92}, {"time": 2811, "pitch": 76, "duration": 4, "velocity": 97}, {"time": 2817, "pitch": 76, "duration": 5, "velocity": 95}, {"time": 2823, "pitch": 74, "duration": 5, "velocity": 100}, {"time": 2829, "pitch": 71, "duration": 9, "velocity": 95}, {"time": 2841, "pitch": 71, "duration": 4, "velocity": 94}, {"time": 2847, "pitch": 69, "duration": 4, "velocity": 94}, {"time": 2853, "pitch": 67, "duration": 10, "velocity": 93}, {"time": 2865, "pitch": 67, "duration": 5, "velocity": 95}, {"time": 2871, "pitch": 76, "duration": 4, "velocity": 94}, {"time": 2877, "pitch": 74, "duration": 10, "velocity": 99}, {"time": 2889, "pitch": 71, "duration": 4, "velocity": 93}, {"time": 2895, "pitch": 69, "duration": 4, "velocity": 97}, {"time": 2901, "pitch": 67, "duration": 10, "velocity": 90}, {"time": 2913, "pitch": 64, "duration": 4, "velocity": 98}, {"time": 2919, "pitch": 67, "duration": 4, "velocity": 94}, {"time": 2925, "pitch": 67, "duration": 29, "velocity": 94}, {"time": 2985, "pitch": 72, "duration": 4, "velocity": 97}, {"time": 2991, "pitch": 75, "duration": 4, "velocity": 102}, {"time": 2997, "pitch": 75, "duration": 4, "velocity": 100}, {"time": 3003, "pitch": 75, "duration": 5, "velocity": 99}, {"time": 3009, "pitch": 75, "duration": 4, "velocity": 94}, {"time": 3015, "pitch": 77, "duration": 4, "velocity": 94}, {"time": 3021, "pitch": 75, "duration": 10, "velocity": 100}, {"time": 3033, "pitch": 77, "duration": 4, "velocity": 95}, {"time": 3039, "pitch": 79, "duration": 4, "velocity": 99}, {"time": 3045, "pitch": 80, "duration": 5, "velocity": 92}, {"time": 3051, "pitch": 77, "duration": 4, "velocity": 97}, {"time": 3057, "pitch": 77, "duration": 5, "velocity": 95}, {"time": 3063, "pitch": 75, "duration": 5, "velocity": 100}, {"time": 3069, "pitch": 72, "duration": 9, "velocity": 95}, {"time": 3081, "pitch": 72, "duration": 4, "velocity": 94}, {"time": 3087, "pitch": 70, "duration": 4, "velocity": 94}, {"time": 3093, "pitch": 68, "duration": 10, "velocity": 93}, {"time": 3105, "pitch": 68, "duration": 5, "velocity": 95}, {"time": 3111, "pitch": 77, "duration": 4, "velocity": 94}, {"time": 3117, "pitch": 75, "duration": 10, "velocity": 99}, {"time": 3129, "pitch": 72, "duration": 4, "velocity": 93}, {"time": 3135, "pitch": 70, "duration": 4, "velocity": 97}, {"time": 3141, "pitch": 68, "duration": 10, "velocity": 90}, {"time": 3153, "pitch": 68, "duration": 2, "velocity": 94}, {"time": 3156, "pitch": 65, "duration": 5, "velocity": 97}, {"time": 3162, "pitch": 70, "duration": 2, "velocity": 87}, {"time": 3165, "pitch": 70, "duration": 10, "velocity": 95}, {"time": 3177, "pitch": 72, "duration": 4, "velocity": 97}, {"time": 3183, "pitch": 75, "duration": 4, "velocity": 102}, {"time": 3189, "pitch": 75, "duration": 4, "velocity": 100}, {"time": 3195, "pitch": 75, "duration": 5, "velocity": 99}, {"time": 3201, "pitch": 75, "duration": 4, "velocity": 94}, {"time": 3207, "pitch": 77, "duration": 4, "velocity": 94}, {"time": 3213, "pitch": 75, "duration": 10, "velocity": 100}, {"time": 3225, "pitch": 77, "duration": 4, "velocity": 95}, {"time": 3231, "pitch": 79, "duration": 4, "velocity": 99}, {"time": 3237, "pitch": 80, "duration": 5, "velocity": 92}, {"time": 3243, "pitch": 77, "duration": 4, "velocity": 97}, {"time": 3249, "pitch": 77, "duration": 5, "velocity": 95}, {"time": 3255, "pitch": 75, "duration": 5, "velocity": 100}, {"time": 3261, "pitch": 72, "duration": 9, "velocity": 95}, {"time": 3273, "pitch": 72, "duration": 4, "velocity": 94}, {"time": 3279, "pitch": 70, "duration": 4, "velocity": 94}, {"time": 3285, "pitch": 68, "duration": 10, "velocity": 93}, {"time": 3297, "pitch": 68, "duration": 5, "velocity": 95}, {"time": 3303, "pitch": 77, "duration": 4, "velocity": 94}, {"time": 3309, "pitch": 75, "duration": 10, "velocity": 99}, {"time": 3321, "pitch": 72, "duration": 4, "velocity": 93}, {"time": 3327, "pitch": 70, "duration": 4, "velocity": 97}, {"time": 3333, "pitch": 68, "duration": 10, "velocity": 90}, {"time": 3345, "pitch": 65, "duration": 4, "velocity": 98}, {"time": 3351, "pitch": 68, "duration": 4, "velocity": 94}, {"time": 3357, "pitch": 68, "duration": 29, "velocity": 94}, {"time": 3393, "pitch": 72, "duration": 4, "velocity": 94}, {"time": 3399, "pitch": 70, "duration": 4, "velocity": 94}, {"time": 3405, "pitch": 68, "duration": 10, "velocity": 93}, {"time": 3417, "pitch": 68, "duration": 5, "velocity": 95}, {"time": 3423, "pitch": 77, "duration": 4, "velocity": 94}, {"time": 3429, "pitch": 75, "duration": 10, "velocity": 99}, {"time": 3441, "pitch": 72, "duration": 4, "velocity": 93}, {"time": 3447, "pitch": 70, "duration": 4, "velocity": 97}, {"time": 3453, "pitch": 68, "duration": 27, "velocity": 90}, {"time": 3490, "pitch": 65, "duration": 4, "velocity": 96}, {"time": 3494, "pitch": 68, "duration": 7, "velocity": 96}, {"time": 3502, "pitch": 68, "duration": 56, "velocity": 100}]}, {"program": 0, "is_drum": false, "name": "PIANO", "notes": [{"time": 117, "pitch": 43, "duration": 16, "velocity": 90}, {"time": 117, "pitch": 62, "duration": 8, "velocity": 80}, {"time": 117, "pitch": 67, "duration": 8, "velocity": 81}, {"time": 123, "pitch": 50, "duration": 7, "velocity": 61}, {"time": 129, "pitch": 62, "duration": 2, "velocity": 87}, {"time": 129, "pitch": 67, "duration": 7, "velocity": 87}, {"time": 129, "pitch": 71, "duration": 7, "velocity": 92}, {"time": 135, "pitch": 62, "duration": 13, "velocity": 81}, {"time": 141, "pitch": 50, "duration": 20, "velocity": 85}, {"time": 141, "pitch": 66, "duration": 7, "velocity": 82}, {"time": 141, "pitch": 69, "duration": 7, "velocity": 84}, {"time": 147, "pitch": 57, "duration": 15, "velocity": 63}, {"time": 153, "pitch": 62, "duration": 4, "velocity": 93}, {"time": 153, "pitch": 66, "duration": 6, "velocity": 93}, {"time": 153, "pitch": 69, "duration": 9, "velocity": 91}, {"time": 165, "pitch": 52, "duration": 13, "velocity": 93}, {"time": 165, "pitch": 64, "duration": 8, "velocity": 86}, {"time": 165, "pitch": 67, "duration": 7, "velocity": 83}, {"time": 171, "pitch": 59, "duration": 6, "velocity": 81}, {"time": 177, "pitch": 64, "duration": 3, "velocity": 87}, {"time": 177, "pitch": 67, "duration": 3, "velocity": 83}, {"time": 177, "pitch": 71, "duration": 3, "velocity": 87}, {"time": 189, "pitch": 38, "duration": 14, "velocity": 82}, {"time": 189, "pitch": 62, "duration": 6, "velocity": 82}, {"time": 189, "pitch": 66, "duration": 6, "velocity": 81}, {"time": 195, "pitch": 45, "duration": 7, "velocity": 62}, {"time": 201, "pitch": 62, "duration": 2, "velocity": 89}, {"time": 201, "pitch": 66, "duration": 4, "velocity": 93}, {"time": 201, "pitch": 69, "duration": 6, "velocity": 89}, {"time": 213, "pitch": 48, "duration": 17, "velocity": 87}, {"time": 213, "pitch": 60, "duration": 8, "velocity": 82}, {"time": 213, "pitch": 67, "duration": 8, "velocity": 86}, {"time": 219, "pitch": 55, "duration": 10, "velocity": 81}, {"time": 225, "pitch": 60, "duration": 3, "velocity": 88}, {"time": 225, "pitch": 64, "duration": 3, "velocity": 91}, {"time": 237, "pitch": 47, "duration": 16, "velocity": 87}, {"time": 237, "pitch": 59, "duration": 8, "velocity": 82}, {"time": 237, "pitch": 62, "duration": 8, "velocity": 83}, {"time": 237, "pitch": 66, "duration": 8, "velocity": 82}, {"time": 243, "pitch": 54, "duration": 7, "velocity": 71}, {"time": 249, "pitch": 59, "duration": 4, "velocity": 87}, {"time": 249, "pitch": 62, "duration": 4, "velocity": 87}, {"time": 249, "pitch": 66, "duration": 4, "velocity": 85}, {"time": 261, "pitch": 45, "duration": 15, "velocity": 93}, {"time": 261, "pitch": 55, "duration": 9, "velocity": 78}, {"time": 261, "pitch": 61, "duration": 9, "velocity": 83}, {"time": 267, "pitch": 52, "duration": 8, "velocity": 83}, {"time": 273, "pitch": 55, "duration": 4, "velocity": 84}, {"time": 273, "pitch": 61, "duration": 5, "velocity": 85}, {"time": 273, "pitch": 64, "duration": 4, "velocity": 88}, {"time": 279, "pitch": 45, "duration": 5, "velocity": 92}, {"time": 285, "pitch": 50, "duration": 2, "velocity": 88}, {"time": 285, "pitch": 57, "duration": 2, "velocity": 83}, {"time": 285, "pitch": 62, "duration": 2, "velocity": 87}, {"time": 285, "pitch": 66, "duration": 2, "velocity": 80}, {"time": 291, "pitch": 50, "duration": 1, "velocity": 92}, {"time": 291, "pitch": 57, "duration": 1, "velocity": 88}, {"time": 291, "pitch": 62, "duration": 1, "velocity": 91}, {"time": 291, "pitch": 66, "duration": 2, "velocity": 82}, {"time": 297, "pitch": 50, "duration": 1, "velocity": 94}, {"time": 297, "pitch": 57, "duration": 1, "velocity": 82}, {"time": 297, "pitch": 62, "duration": 1, "velocity": 88}, {"time": 297, "pitch": 66, "duration": 1, "velocity": 82}, {"time": 300, "pitch": 50, "duration": 1, "velocity": 93}, {"time": 300, "pitch": 57, "duration": 1, "velocity": 85}, {"time": 300, "pitch": 62, "duration": 1, "velocity": 91}, {"time": 300, "pitch": 66, "duration": 1, "velocity": 88}, {"time": 303, "pitch": 50, "duration": 1, "velocity": 95}, {"time": 303, "pitch": 57, "duration": 1, "velocity": 84}, {"time": 303, "pitch": 62, "duration": 1, "velocity": 89}, {"time": 303, "pitch": 66, "duration": 1, "velocity": 87}, {"time": 306, "pitch": 50, "duration": 2, "velocity": 104}, {"time": 306, "pitch": 57, "duration": 2, "velocity": 93}, {"time": 306, "pitch": 62, "duration": 2, "velocity": 98}, {"time": 306, "pitch": 66, "duration": 2, "velocity": 96}, {"time": 309, "pitch": 43, "duration": 16, "velocity": 95}, {"time": 309, "pitch": 55, "duration": 3, "velocity": 92}, {"time": 309, "pitch": 62, "duration": 4, "velocity": 90}, {"time": 312, "pitch": 50, "duration": 10, "velocity": 81}, {"time": 315, "pitch": 55, "duration": 4, "velocity": 93}, {"time": 318, "pitch": 59, "duration": 1, "velocity": 92}, {"time": 321, "pitch": 55, "duration": 3, "velocity": 99}, {"time": 321, "pitch": 59, "duration": 3, "velocity": 102}, {"time": 321, "pitch": 62, "duration": 4, "velocity": 97}, {"time": 324, "pitch": 50, "duration": 2, "velocity": 91}, {"time": 327, "pitch": 43, "duration": 2, "velocity": 93}, {"time": 333, "pitch": 42, "duration": 16, "velocity": 91}, {"time": 333, "pitch": 57, "duration": 2, "velocity": 91}, {"time": 333, "pitch": 62, "duration": 4, "velocity": 94}, {"time": 333, "pitch": 66, "duration": 7, "velocity": 93}, {"time": 336, "pitch": 50, "duration": 12, "velocity": 82}, {"time": 339, "pitch": 57, "duration": 4, "velocity": 94}, {"time": 342, "pitch": 62, "duration": 1, "velocity": 89}, {"time": 345, "pitch": 57, "duration": 6, "velocity": 94}, {"time": 345, "pitch": 62, "duration": 7, "velocity": 98}, {"time": 345, "pitch": 66, "duration": 8, "velocity": 98}, {"time": 351, "pitch": 42, "duration": 2, "velocity": 94}, {"time": 357, "pitch": 40, "duration": 16, "velocity": 95}, {"time": 357, "pitch": 59, "duration": 3, "velocity": 93}, {"time": 357, "pitch": 64, "duration": 5, "velocity": 95}, {"time": 360, "pitch": 47, "duration": 10, "velocity": 84}, {"time": 363, "pitch": 59, "duration": 4, "velocity": 89}, {"time": 366, "pitch": 64, "duration": 1, "velocity": 89}, {"time": 369, "pitch": 59, "duration": 3, "velocity": 98}, {"time": 369, "pitch": 64, "duration": 4, "velocity": 100}, {"time": 369, "pitch": 67, "duration": 6, "velocity": 94}, {"time": 372, "pitch": 47, "duration": 2, "velocity": 93}, {"time": 375, "pitch": 59, "duration": 2, "velocity": 94}, {"time": 381, "pitch": 47, "duration": 16, "velocity": 95}, {"time": 381, "pitch": 59, "duration": 5, "velocity": 93}, {"time": 381, "pitch": 62, "duration": 7, "velocity": 94}, {"time": 387, "pitch": 54, "duration": 7, "velocity": 83}, {"time": 390, "pitch": 59, "duration": 1, "velocity": 92}, {"time": 393, "pitch": 59, "duration": 3, "velocity": 100}, {"time": 393, "pitch": 66, "duration": 7, "velocity": 94}, {"time": 396, "pitch": 54, "duration": 2, "velocity": 91}, {"time": 399, "pitch": 59, "duration": 1, "velocity": 94}, {"time": 405, "pitch": 48, "duration": 15, "velocity": 98}, {"time": 405, "pitch": 60, "duration": 3, "velocity": 90}, {"time": 405, "pitch": 64, "duration": 4, "velocity": 94}, {"time": 408, "pitch": 55, "duration": 11, "velocity": 87}, {"time": 411, "pitch": 60, "duration": 3, "velocity": 89}, {"time": 417, "pitch": 60, "duration": 7, "velocity": 98}, {"time": 417, "pitch": 64, "duration": 6, "velocity": 104}, {"time": 423, "pitch": 55, "duration": 1, "velocity": 93}, {"time": 429, "pitch": 47, "duration": 16, "velocity": 94}, {"time": 429, "pitch": 59, "duration": 4, "velocity": 88}, {"time": 429, "pitch": 62, "duration": 5, "velocity": 93}, {"time": 429, "pitch": 66, "duration": 7, "velocity": 85}, {"time": 432, "pitch": 54, "duration": 10, "velocity": 84}, {"time": 435, "pitch": 59, "duration": 4, "velocity": 89}, {"time": 438, "pitch": 62, "duration": 1, "velocity": 82}, {"time": 441, "pitch": 59, "duration": 4, "velocity": 95}, {"time": 441, "pitch": 62, "duration": 6, "velocity": 96}, {"time": 441, "pitch": 66, "duration": 7, "velocity": 95}, {"time": 444, "pitch": 54, "duration": 2, "velocity": 87}, {"time": 447, "pitch": 47, "duration": 4, "velocity": 95}, {"time": 453, "pitch": 45, "duration": 11, "velocity": 94}, {"time": 453, "pitch": 57, "duration": 4, "velocity": 87}, {"time": 453, "pitch": 60, "duration": 5, "velocity": 93}, {"time": 453, "pitch": 64, "duration": 5, "velocity": 94}, {"time": 456, "pitch": 52, "duration": 7, "velocity": 83}, {"time": 459, "pitch": 57, "duration": 4, "velocity": 93}, {"time": 465, "pitch": 50, "duration": 6, "velocity": 98}, {"time": 465, "pitch": 57, "duration": 3, "velocity": 94}, {"time": 465, "pitch": 62, "duration": 6, "velocity": 94}, {"time": 465, "pitch": 66, "duration": 6, "velocity": 86}, {"time": 471, "pitch": 57, "duration": 2, "velocity": 93}, {"time": 477, "pitch": 43, "duration": 26, "velocity": 92}, {"time": 477, "pitch": 55, "duration": 9, "velocity": 89}, {"time": 477, "pitch": 59, "duration": 7, "velocity": 93}, {"time": 483, "pitch": 50, "duration": 8, "velocity": 82}, {"time": 489, "pitch": 55, "duration": 4, "velocity": 89}, {"time": 489, "pitch": 59, "duration": 3, "velocity": 91}, {"time": 489, "pitch": 62, "duration": 4, "velocity": 90}, {"time": 495, "pitch": 50, "duration": 7, "velocity": 78}, {"time": 501, "pitch": 55, "duration": 2, "velocity": 89}, {"time": 501, "pitch": 59, "duration": 2, "velocity": 91}, {"time": 501, "pitch": 62, "duration": 2, "velocity": 90}, {"time": 513, "pitch": 59, "duration": 4, "velocity": 91}, {"time": 513, "pitch": 62, "duration": 3, "velocity": 89}, {"time": 519, "pitch": 55, "duration": 3, "velocity": 78}, {"time": 525, "pitch": 55, "duration": 2, "velocity": 81}, {"time": 525, "pitch": 59, "duration": 3, "velocity": 82}, {"time": 525, "pitch": 62, "duration": 3, "velocity": 86}, {"time": 537, "pitch": 59, "duration": 10, "velocity": 87}, {"time": 537, "pitch": 62, "duration": 11, "velocity": 88}, {"time": 543, "pitch": 55, "duration": 5, "velocity": 89}, {"time": 549, "pitch": 43, "duration": 16, "velocity": 93}, {"time": 549, "pitch": 62, "duration": 11, "velocity": 89}, {"time": 555, "pitch": 50, "duration": 10, "velocity": 82}, {"time": 561, "pitch": 55, "duration": 4, "velocity": 88}, {"time": 561, "pitch": 59, "duration": 4, "velocity": 91}, {"time": 573, "pitch": 52, "duration": 14, "velocity": 94}, {"time": 573, "pitch": 64, "duration": 7, "velocity": 93}, {"time": 579, "pitch": 59, "duration": 7, "velocity": 90}, {"time": 585, "pitch": 64, "duration": 2, "velocity": 89}, {"time": 585, "pitch": 67, "duration": 2, "velocity": 86}, {"time": 597, "pitch": 47, "duration": 21, "velocity": 93}, {"time": 597, "pitch": 59, "duration": 10, "velocity": 83}, {"time": 597, "pitch": 62, "duration": 12, "velocity": 80}, {"time": 603, "pitch": 54, "duration": 12, "velocity": 82}, {"time": 609, "pitch": 66, "duration": 10, "velocity": 94}, {"time": 615, "pitch": 59, "duration": 4, "velocity": 92}, {"time": 621, "pitch": 52, "duration": 18, "velocity": 94}, {"time": 621, "pitch": 59, "duration": 3, "velocity": 91}, {"time": 621, "pitch": 64, "duration": 6, "velocity": 94}, {"time": 627, "pitch": 59, "duration": 4, "velocity": 89}, {"time": 633, "pitch": 59, "duration": 2, "velocity": 98}, {"time": 633, "pitch": 64, "duration": 11, "velocity": 95}, {"time": 633, "pitch": 67, "duration": 12, "velocity": 89}, {"time": 639, "pitch": 59, "duration": 5, "velocity": 94}, {"time": 645, "pitch": 45, "duration": 16, "velocity": 93}, {"time": 645, "pitch": 57, "duration": 7, "velocity": 84}, {"time": 645, "pitch": 60, "duration": 7, "velocity": 88}, {"time": 651, "pitch": 52, "duration": 9, "velocity": 82}, {"time": 657, "pitch": 57, "duration": 3, "velocity": 88}, {"time": 657, "pitch": 60, "duration": 4, "velocity": 93}, {"time": 657, "pitch": 64, "duration": 6, "velocity": 95}, {"time": 663, "pitch": 57, "duration": 3, "velocity": 93}, {"time": 669, "pitch": 48, "duration": 22, "velocity": 93}, {"time": 669, "pitch": 55, "duration": 3, "velocity": 94}, {"time": 669, "pitch": 60, "duration": 8, "velocity": 92}, {"time": 675, "pitch": 55, "duration": 4, "velocity": 83}, {"time": 681, "pitch": 55, "duration": 3, "velocity": 94}, {"time": 681, "pitch": 60, "duration": 9, "velocity": 95}, {"time": 681, "pitch": 64, "duration": 9, "velocity": 95}, {"time": 687, "pitch": 55, "duration": 3, "velocity": 87}, {"time": 693, "pitch": 48, "duration": 18, "velocity": 94}, {"time": 693, "pitch": 55, "duration": 3, "velocity": 93}, {"time": 693, "pitch": 64, "duration": 9, "velocity": 94}, {"time": 699, "pitch": 55, "duration": 4, "velocity": 87}, {"time": 705, "pitch": 55, "duration": 2, "velocity": 95}, {"time": 705, "pitch": 60, "duration": 4, "velocity": 93}, {"time": 711, "pitch": 55, "duration": 3, "velocity": 94}, {"time": 717, "pitch": 38, "duration": 23, "velocity": 99}, {"time": 717, "pitch": 57, "duration": 4, "velocity": 86}, {"time": 717, "pitch": 62, "duration": 6, "velocity": 89}, {"time": 723, "pitch": 45, "duration": 17, "velocity": 87}, {"time": 729, "pitch": 54, "duration": 11, "velocity": 95}, {"time": 729, "pitch": 57, "duration": 11, "velocity": 94}, {"time": 735, "pitch": 50, "duration": 5, "velocity": 100}, {"time": 741, "pitch": 43, "duration": 16, "velocity": 93}, {"time": 741, "pitch": 62, "duration": 11, "velocity": 89}, {"time": 747, "pitch": 50, "duration": 10, "velocity": 82}, {"time": 753, "pitch": 55, "duration": 4, "velocity": 88}, {"time": 753, "pitch": 59, "duration": 4, "velocity": 91}, {"time": 765, "pitch": 52, "duration": 14, "velocity": 94}, {"time": 765, "pitch": 64, "duration": 7, "velocity": 93}, {"time": 771, "pitch": 59, "duration": 7, "velocity": 90}, {"time": 777, "pitch": 64, "duration": 2, "velocity": 89}, {"time": 777, "pitch": 67, "duration": 2, "velocity": 86}, {"time": 789, "pitch": 47, "duration": 21, "velocity": 93}, {"time": 789, "pitch": 59, "duration": 10, "velocity": 83}, {"time": 789, "pitch": 62, "duration": 12, "velocity": 80}, {"time": 795, "pitch": 54, "duration": 12, "velocity": 82}, {"time": 801, "pitch": 66, "duration": 10, "velocity": 94}, {"time": 807, "pitch": 59, "duration": 4, "velocity": 92}, {"time": 813, "pitch": 52, "duration": 18, "velocity": 94}, {"time": 813, "pitch": 59, "duration": 3, "velocity": 91}, {"time": 813, "pitch": 64, "duration": 6, "velocity": 94}, {"time": 819, "pitch": 59, "duration": 4, "velocity": 89}, {"time": 825, "pitch": 59, "duration": 2, "velocity": 98}, {"time": 825, "pitch": 64, "duration": 11, "velocity": 95}, {"time": 825, "pitch": 67, "duration": 12, "velocity": 89}, {"time": 831, "pitch": 59, "duration": 5, "velocity": 94}, {"time": 837, "pitch": 45, "duration": 16, "velocity": 93}, {"time": 837, "pitch": 57, "duration": 7, "velocity": 84}, {"time": 837, "pitch": 60, "duration": 7, "velocity": 88}, {"time": 843, "pitch": 52, "duration": 9, "velocity": 82}, {"time": 849, "pitch": 57, "duration": 3, "velocity": 88}, {"time": 849, "pitch": 60, "duration": 4, "velocity": 93}, {"time": 849, "pitch": 64, "duration": 6, "velocity": 95}, {"time": 855, "pitch": 57, "duration": 3, "velocity": 93}, {"time": 861, "pitch": 48, "duration": 5, "velocity": 100}, {"time": 861, "pitch": 55, "duration": 2, "velocity": 87}, {"time": 861, "pitch": 60, "duration": 6, "velocity": 88}, {"time": 861, "pitch": 64, "duration": 7, "velocity": 94}, {"time": 867, "pitch": 55, "duration": 1, "velocity": 90}, {"time": 873, "pitch": 38, "duration": 4, "velocity": 99}, {"time": 873, "pitch": 57, "duration": 3, "velocity": 92}, {"time": 873, "pitch": 62, "duration": 6, "velocity": 93}, {"time": 879, "pitch": 57, "duration": 1, "velocity": 91}, {"time": 885, "pitch": 43, "duration": 22, "velocity": 94}, {"time": 885, "pitch": 55, "duration": 7, "velocity": 88}, {"time": 885, "pitch": 59, "duration": 6, "velocity": 88}, {"time": 885, "pitch": 62, "duration": 6, "velocity": 91}, {"time": 891, "pitch": 50, "duration": 7, "velocity": 78}, {"time": 897, "pitch": 55, "duration": 3, "velocity": 95}, {"time": 897, "pitch": 59, "duration": 3, "velocity": 95}, {"time": 897, "pitch": 62, "duration": 3, "velocity": 100}, {"time": 900, "pitch": 50, "duration": 6, "velocity": 94}, {"time": 903, "pitch": 55, "duration": 3, "velocity": 96}, {"time": 906, "pitch": 59, "duration": 1, "velocity": 93}, {"time": 909, "pitch": 43, "duration": 22, "velocity": 94}, {"time": 909, "pitch": 55, "duration": 6, "velocity": 89}, {"time": 909, "pitch": 59, "duration": 6, "velocity": 93}, {"time": 909, "pitch": 67, "duration": 6, "velocity": 92}, {"time": 915, "pitch": 50, "duration": 7, "velocity": 84}, {"time": 921, "pitch": 55, "duration": 4, "velocity": 94}, {"time": 921, "pitch": 59, "duration": 5, "velocity": 98}, {"time": 921, "pitch": 62, "duration": 5, "velocity": 96}, {"time": 924, "pitch": 50, "duration": 8, "velocity": 91}, {"time": 927, "pitch": 55, "duration": 4, "velocity": 95}, {"time": 933, "pitch": 43, "duration": 15, "velocity": 96}, {"time": 933, "pitch": 55, "duration": 7, "velocity": 93}, {"time": 933, "pitch": 59, "duration": 7, "velocity": 96}, {"time": 933, "pitch": 62, "duration": 6, "velocity": 94}, {"time": 939, "pitch": 50, "duration": 8, "velocity": 93}, {"time": 945, "pitch": 55, "duration": 4, "velocity": 95}, {"time": 945, "pitch": 59, "duration": 5, "velocity": 98}, {"time": 945, "pitch": 62, "duration": 5, "velocity": 98}, {"time": 951, "pitch": 43, "duration": 3, "velocity": 95}, {"time": 957, "pitch": 42, "duration": 14, "velocity": 96}, {"time": 957, "pitch": 57, "duration": 3, "velocity": 90}, {"time": 957, "pitch": 62, "duration": 7, "velocity": 94}, {"time": 957, "pitch": 66, "duration": 7, "velocity": 89}, {"time": 963, "pitch": 57, "duration": 3, "velocity": 88}, {"time": 969, "pitch": 57, "duration": 3, "velocity": 95}, {"time": 969, "pitch": 62, "duration": 6, "velocity": 97}, {"time": 969, "pitch": 66, "duration": 6, "velocity": 97}, {"time": 975, "pitch": 57, "duration": 1, "velocity": 93}, {"time": 981, "pitch": 52, "duration": 17, "velocity": 99}, {"time": 981, "pitch": 59, "duration": 3, "velocity": 89}, {"time": 981, "pitch": 64, "duration": 6, "velocity": 95}, {"time": 981, "pitch": 67, "duration": 6, "velocity": 87}, {"time": 987, "pitch": 59, "duration": 2, "velocity": 91}, {"time": 993, "pitch": 59, "duration": 2, "velocity": 102}, {"time": 993, "pitch": 67, "duration": 5, "velocity": 98}, {"time": 996, "pitch": 59, "duration": 3, "velocity": 92}, {"time": 999, "pitch": 64, "duration": 2, "velocity": 94}, {"time": 1002, "pitch": 59, "duration": 1, "velocity": 87}, {"time": 1005, "pitch": 50, "duration": 15, "velocity": 97}, {"time": 1005, "pitch": 57, "duration": 3, "velocity": 92}, {"time": 1005, "pitch": 62, "duration": 7, "velocity": 94}, {"time": 1011, "pitch": 57, "duration": 3, "velocity": 82}, {"time": 1017, "pitch": 57, "duration": 2, "velocity": 94}, {"time": 1017, "pitch": 62, "duration": 5, "velocity": 96}, {"time": 1017, "pitch": 66, "duration": 5, "velocity": 96}, {"time": 1023, "pitch": 57, "duration": 1, "velocity": 85}, {"time": 1029, "pitch": 48, "duration": 14, "velocity": 99}, {"time": 1029, "pitch": 55, "duration": 3, "velocity": 91}, {"time": 1029, "pitch": 60, "duration": 8, "velocity": 89}, {"time": 1029, "pitch": 64, "duration": 8, "velocity": 94}, {"time": 1035, "pitch": 55, "duration": 4, "velocity": 94}, {"time": 1041, "pitch": 55, "duration": 2, "velocity": 96}, {"time": 1041, "pitch": 60, "duration": 6, "velocity": 99}, {"time": 1041, "pitch": 64, "duration": 6, "velocity": 100}, {"time": 1047, "pitch": 55, "duration": 1, "velocity": 88}, {"time": 1053, "pitch": 47, "duration": 17, "velocity": 95}, {"time": 1053, "pitch": 59, "duration": 7, "velocity": 86}, {"time": 1053, "pitch": 62, "duration": 6, "velocity": 91}, {"time": 1053, "pitch": 66, "duration": 7, "velocity": 81}, {"time": 1059, "pitch": 54, "duration": 7, "velocity": 84}, {"time": 1065, "pitch": 59, "duration": 3, "velocity": 98}, {"time": 1065, "pitch": 62, "duration": 3, "velocity": 97}, {"time": 1065, "pitch": 66, "duration": 7, "velocity": 97}, {"time": 1068, "pitch": 54, "duration": 2, "velocity": 93}, {"time": 1071, "pitch": 59, "duration": 2, "velocity": 97}, {"time": 1077, "pitch": 45, "duration": 15, "velocity": 94}, {"time": 1077, "pitch": 57, "duration": 6, "velocity": 93}, {"time": 1077, "pitch": 60, "duration": 6, "velocity": 94}, {"time": 1083, "pitch": 52, "duration": 7, "velocity": 82}, {"time": 1089, "pitch": 57, "duration": 4, "velocity": 94}, {"time": 1089, "pitch": 60, "duration": 5, "velocity": 99}, {"time": 1089, "pitch": 64, "duration": 4, "velocity": 99}, {"time": 1092, "pitch": 52, "duration": 2, "velocity": 95}, {"time": 1095, "pitch": 45, "duration": 2, "velocity": 95}, {"time": 1098, "pitch": 57, "duration": 1, "velocity": 94}, {"time": 1101, "pitch": 38, "duration": 16, "velocity": 100}, {"time": 1101, "pitch": 57, "duration": 3, "velocity": 94}, {"time": 1101, "pitch": 62, "duration": 4, "velocity": 95}, {"time": 1104, "pitch": 45, "duration": 10, "velocity": 87}, {"time": 1107, "pitch": 57, "duration": 1, "velocity": 93}, {"time": 1110, "pitch": 57, "duration": 1, "velocity": 87}, {"time": 1110, "pitch": 62, "duration": 1, "velocity": 85}, {"time": 1110, "pitch": 66, "duration": 1, "velocity": 84}, {"time": 1113, "pitch": 57, "duration": 4, "velocity": 97}, {"time": 1113, "pitch": 62, "duration": 6, "velocity": 102}, {"time": 1113, "pitch": 66, "duration": 6, "velocity": 97}, {"time": 1116, "pitch": 45, "duration": 2, "velocity": 94}, {"time": 1119, "pitch": 57, "duration": 2, "velocity": 97}, {"time": 1125, "pitch": 43, "duration": 16, "velocity": 94}, {"time": 1125, "pitch": 55, "duration": 7, "velocity": 90}, {"time": 1125, "pitch": 59, "duration": 7, "velocity": 91}, {"time": 1125, "pitch": 62, "duration": 7, "velocity": 93}, {"time": 1131, "pitch": 50, "duration": 7, "velocity": 86}, {"time": 1137, "pitch": 55, "duration": 4, "velocity": 96}, {"time": 1137, "pitch": 59, "duration": 4, "velocity": 100}, {"time": 1137, "pitch": 62, "duration": 4, "velocity": 97}, {"time": 1140, "pitch": 50, "duration": 2, "velocity": 91}, {"time": 1143, "pitch": 43, "duration": 2, "velocity": 95}, {"time": 1149, "pitch": 42, "duration": 13, "velocity": 97}, {"time": 1149, "pitch": 57, "duration": 3, "velocity": 93}, {"time": 1149, "pitch": 62, "duration": 7, "velocity": 94}, {"time": 1155, "pitch": 57, "duration": 3, "velocity": 95}, {"time": 1161, "pitch": 57, "duration": 3, "velocity": 97}, {"time": 1161, "pitch": 62, "duration": 4, "velocity": 100}, {"time": 1161, "pitch": 66, "duration": 6, "velocity": 95}, {"time": 1167, "pitch": 57, "duration": 2, "velocity": 93}, {"time": 1173, "pitch": 40, "duration": 16, "velocity": 99}, {"time": 1173, "pitch": 59, "duration": 6, "velocity": 90}, {"time": 1173, "pitch": 64, "duration": 6, "velocity": 93}, {"time": 1179, "pitch": 47, "duration": 9, "velocity": 82}, {"time": 1185, "pitch": 59, "duration": 3, "velocity": 96}, {"time": 1185, "pitch": 64, "duration": 4, "velocity": 100}, {"time": 1185, "pitch": 67, "duration": 6, "velocity": 93}, {"time": 1191, "pitch": 40, "duration": 2, "velocity": 95}, {"time": 1191, "pitch": 59, "duration": 2, "velocity": 98}, {"time": 1197, "pitch": 50, "duration": 16, "velocity": 97}, {"time": 1197, "pitch": 59, "duration": 3, "velocity": 94}, {"time": 1197, "pitch": 62, "duration": 6, "velocity": 93}, {"time": 1197, "pitch": 66, "duration": 7, "velocity": 94}, {"time": 1203, "pitch": 54, "duration": 7, "velocity": 93}, {"time": 1206, "pitch": 59, "duration": 1, "velocity": 97}, {"time": 1209, "pitch": 59, "duration": 3, "velocity": 98}, {"time": 1209, "pitch": 62, "duration": 5, "velocity": 99}, {"time": 1209, "pitch": 66, "duration": 7, "velocity": 98}, {"time": 1212, "pitch": 54, "duration": 2, "velocity": 90}, {"time": 1215, "pitch": 47, "duration": 3, "velocity": 97}, {"time": 1221, "pitch": 48, "duration": 14, "velocity": 97}, {"time": 1221, "pitch": 60, "duration": 7, "velocity": 90}, {"time": 1221, "pitch": 64, "duration": 7, "velocity": 94}, {"time": 1227, "pitch": 55, "duration": 9, "velocity": 92}, {"time": 1233, "pitch": 60, "duration": 4, "velocity": 94}, {"time": 1233, "pitch": 64, "duration": 4, "velocity": 99}, {"time": 1233, "pitch": 67, "duration": 5, "velocity": 94}, {"time": 1239, "pitch": 48, "duration": 2, "velocity": 94}, {"time": 1245, "pitch": 47, "duration": 16, "velocity": 95}, {"time": 1245, "pitch": 59, "duration": 6, "velocity": 93}, {"time": 1245, "pitch": 62, "duration": 6, "velocity": 93}, {"time": 1245, "pitch": 66, "duration": 7, "velocity": 92}, {"time": 1251, "pitch": 54, "duration": 7, "velocity": 79}, {"time": 1257, "pitch": 59, "duration": 4, "velocity": 96}, {"time": 1257, "pitch": 62, "duration": 5, "velocity": 100}, {"time": 1257, "pitch": 66, "duration": 6, "velocity": 97}, {"time": 1260, "pitch": 54, "duration": 2, "velocity": 92}, {"time": 1263, "pitch": 47, "duration": 3, "velocity": 95}, {"time": 1269, "pitch": 45, "duration": 7, "velocity": 94}, {"time": 1269, "pitch": 57, "duration": 6, "velocity": 93}, {"time": 1269, "pitch": 60, "duration": 6, "velocity": 94}, {"time": 1275, "pitch": 52, "duration": 1, "velocity": 89}, {"time": 1281, "pitch": 38, "duration": 4, "velocity": 97}, {"time": 1281, "pitch": 57, "duration": 3, "velocity": 94}, {"time": 1281, "pitch": 62, "duration": 6, "velocity": 94}, {"time": 1287, "pitch": 57, "duration": 1, "velocity": 98}, {"time": 1293, "pitch": 43, "duration": 22, "velocity": 95}, {"time": 1293, "pitch": 55, "duration": 4, "velocity": 89}, {"time": 1293, "pitch": 62, "duration": 5, "velocity": 93}, {"time": 1296, "pitch": 50, "duration": 18, "velocity": 89}, {"time": 1299, "pitch": 55, "duration": 8, "velocity": 88}, {"time": 1302, "pitch": 62, "duration": 6, "velocity": 97}, {"time": 1308, "pitch": 67, "duration": 4, "velocity": 94}, {"time": 1311, "pitch": 55, "duration": 4, "velocity": 93}, {"time": 1317, "pitch": 43, "duration": 17, "velocity": 93}, {"time": 1317, "pitch": 55, "duration": 9, "velocity": 92}, {"time": 1317, "pitch": 62, "duration": 9, "velocity": 93}, {"time": 1323, "pitch": 50, "duration": 10, "velocity": 79}, {"time": 1329, "pitch": 55, "duration": 11, "velocity": 90}, {"time": 1329, "pitch": 62, "duration": 11, "velocity": 93}, {"time": 1341, "pitch": 40, "duration": 16, "velocity": 98}, {"time": 1341, "pitch": 64, "duration": 2, "velocity": 94}, {"time": 1341, "pitch": 71, "duration": 2, "velocity": 93}, {"time": 1344, "pitch": 47, "duration": 12, "velocity": 93}, {"time": 1347, "pitch": 59, "duration": 7, "velocity": 93}, {"time": 1350, "pitch": 64, "duration": 3, "velocity": 93}, {"time": 1353, "pitch": 68, "duration": 7, "velocity": 99}, {"time": 1356, "pitch": 64, "duration": 3, "velocity": 97}, {"time": 1359, "pitch": 59, "duration": 4, "velocity": 95}, {"time": 1362, "pitch": 64, "duration": 1, "velocity": 88}, {"time": 1365, "pitch": 47, "duration": 15, "velocity": 98}, {"time": 1368, "pitch": 59, "duration": 8, "velocity": 93}, {"time": 1371, "pitch": 63, "duration": 4, "velocity": 89}, {"time": 1374, "pitch": 66, "duration": 5, "velocity": 104}, {"time": 1377, "pitch": 54, "duration": 3, "velocity": 93}, {"time": 1380, "pitch": 59, "duration": 7, "velocity": 97}, {"time": 1383, "pitch": 63, "duration": 3, "velocity": 94}, {"time": 1386, "pitch": 66, "duration": 1, "velocity": 93}, {"time": 1389, "pitch": 49, "duration": 19, "velocity": 96}, {"time": 1389, "pitch": 61, "duration": 2, "velocity": 71}, {"time": 1389, "pitch": 64, "duration": 4, "velocity": 90}, {"time": 1392, "pitch": 56, "duration": 10, "velocity": 89}, {"time": 1395, "pitch": 61, "duration": 4, "velocity": 93}, {"time": 1401, "pitch": 61, "duration": 2, "velocity": 100}, {"time": 1401, "pitch": 64, "duration": 2, "velocity": 102}, {"time": 1404, "pitch": 56, "duration": 7, "velocity": 89}, {"time": 1407, "pitch": 61, "duration": 8, "velocity": 92}, {"time": 1410, "pitch": 64, "duration": 7, "velocity": 100}, {"time": 1413, "pitch": 49, "duration": 14, "velocity": 95}, {"time": 1416, "pitch": 56, "duration": 10, "velocity": 94}, {"time": 1419, "pitch": 61, "duration": 2, "velocity": 93}, {"time": 1422, "pitch": 61, "duration": 1, "velocity": 76}, {"time": 1422, "pitch": 64, "duration": 1, "velocity": 77}, {"time": 1425, "pitch": 61, "duration": 3, "velocity": 97}, {"time": 1425, "pitch": 64, "duration": 3, "velocity": 107}, {"time": 1425, "pitch": 68, "duration": 3, "velocity": 97}, {"time": 1428, "pitch": 56, "duration": 2, "velocity": 95}, {"time": 1431, "pitch": 49, "duration": 1, "velocity": 93}, {"time": 1437, "pitch": 40, "duration": 16, "velocity": 92}, {"time": 1437, "pitch": 59, "duration": 2, "velocity": 86}, {"time": 1437, "pitch": 64, "duration": 4, "velocity": 94}, {"time": 1440, "pitch": 47, "duration": 12, "velocity": 88}, {"time": 1443, "pitch": 59, "duration": 4, "velocity": 95}, {"time": 1446, "pitch": 64, "duration": 1, "velocity": 93}, {"time": 1449, "pitch": 68, "duration": 4, "velocity": 104}, {"time": 1452, "pitch": 64, "duration": 3, "velocity": 95}, {"time": 1455, "pitch": 59, "duration": 4, "velocity": 97}, {"time": 1458, "pitch": 64, "duration": 1, "velocity": 89}, {"time": 1461, "pitch": 47, "duration": 18, "velocity": 96}, {"time": 1461, "pitch": 59, "duration": 3, "velocity": 92}, {"time": 1461, "pitch": 63, "duration": 9, "velocity": 95}, {"time": 1464, "pitch": 51, "duration": 2, "velocity": 74}, {"time": 1467, "pitch": 54, "duration": 9, "velocity": 92}, {"time": 1470, "pitch": 59, "duration": 4, "velocity": 94}, {"time": 1473, "pitch": 63, "duration": 3, "velocity": 98}, {"time": 1476, "pitch": 66, "duration": 4, "velocity": 97}, {"time": 1479, "pitch": 59, "duration": 1, "velocity": 89}, {"time": 1485, "pitch": 37, "duration": 1, "velocity": 93}, {"time": 1485, "pitch": 61, "duration": 9, "velocity": 88}, {"time": 1485, "pitch": 64, "duration": 11, "velocity": 99}, {"time": 1491, "pitch": 49, "duration": 19, "velocity": 94}, {"time": 1494, "pitch": 56, "duration": 13, "velocity": 85}, {"time": 1497, "pitch": 61, "duration": 6, "velocity": 90}, {"time": 1500, "pitch": 64, "duration": 4, "velocity": 95}, {"time": 1506, "pitch": 61, "duration": 4, "velocity": 94}, {"time": 1509, "pitch": 56, "duration": 9, "velocity": 93}, {"time": 1512, "pitch": 61, "duration": 3, "velocity": 89}, {"time": 1518, "pitch": 61, "duration": 1, "velocity": 88}, {"time": 1518, "pitch": 64, "duration": 1, "velocity": 94}, {"time": 1518, "pitch": 68, "duration": 2, "velocity": 92}, {"time": 1521, "pitch": 61, "duration": 4, "velocity": 96}, {"time": 1521, "pitch": 64, "duration": 4, "velocity": 100}, {"time": 1521, "pitch": 68, "duration": 5, "velocity": 94}, {"time": 1524, "pitch": 56, "duration": 2, "velocity": 93}, {"time": 1527, "pitch": 49, "duration": 1, "velocity": 95}, {"time": 1533, "pitch": 38, "duration": 1, "velocity": 97}, {"time": 1533, "pitch": 62, "duration": 10, "velocity": 93}, {"time": 1533, "pitch": 66, "duration": 11, "velocity": 86}, {"time": 1533, "pitch": 69, "duration": 13, "velocity": 93}, {"time": 1539, "pitch": 50, "duration": 35, "velocity": 92}, {"time": 1542, "pitch": 57, "duration": 10, "velocity": 87}, {"time": 1545, "pitch": 62, "duration": 7, "velocity": 95}, {"time": 1548, "pitch": 66, "duration": 4, "velocity": 104}, {"time": 1551, "pitch": 54, "duration": 18, "velocity": 95}, {"time": 1554, "pitch": 62, "duration": 4, "velocity": 95}, {"time": 1557, "pitch": 57, "duration": 16, "velocity": 93}, {"time": 1560, "pitch": 62, "duration": 6, "velocity": 84}, {"time": 1563, "pitch": 66, "duration": 3, "velocity": 97}, {"time": 1566, "pitch": 69, "duration": 2, "velocity": 86}, {"time": 1569, "pitch": 62, "duration": 3, "velocity": 81}, {"time": 1569, "pitch": 69, "duration": 1, "velocity": 70}, {"time": 1569, "pitch": 74, "duration": 6, "velocity": 109}, {"time": 1572, "pitch": 69, "duration": 4, "velocity": 94}, {"time": 1575, "pitch": 66, "duration": 3, "velocity": 99}, {"time": 1578, "pitch": 62, "duration": 1, "velocity": 92}, {"time": 1581, "pitch": 40, "duration": 1, "velocity": 96}, {"time": 1581, "pitch": 64, "duration": 10, "velocity": 91}, {"time": 1581, "pitch": 68, "duration": 11, "velocity": 85}, {"time": 1587, "pitch": 52, "duration": 16, "velocity": 95}, {"time": 1590, "pitch": 59, "duration": 9, "velocity": 89}, {"time": 1593, "pitch": 64, "duration": 3, "velocity": 96}, {"time": 1596, "pitch": 68, "duration": 3, "velocity": 104}, {"time": 1602, "pitch": 64, "duration": 1, "velocity": 88}, {"time": 1605, "pitch": 52, "duration": 15, "velocity": 98}, {"time": 1605, "pitch": 59, "duration": 10, "velocity": 88}, {"time": 1605, "pitch": 64, "duration": 4, "velocity": 93}, {"time": 1605, "pitch": 68, "duration": 4, "velocity": 92}, {"time": 1605, "pitch": 71, "duration": 6, "velocity": 93}, {"time": 1611, "pitch": 64, "duration": 1, "velocity": 89}, {"time": 1614, "pitch": 64, "duration": 4, "velocity": 97}, {"time": 1614, "pitch": 68, "duration": 4, "velocity": 97}, {"time": 1614, "pitch": 71, "duration": 5, "velocity": 96}, {"time": 1614, "pitch": 76, "duration": 5, "velocity": 95}, {"time": 1617, "pitch": 59, "duration": 3, "velocity": 93}, {"time": 1620, "pitch": 64, "duration": 2, "velocity": 100}, {"time": 1620, "pitch": 68, "duration": 2, "velocity": 87}, {"time": 1620, "pitch": 71, "duration": 2, "velocity": 93}, {"time": 1629, "pitch": 38, "duration": 1, "velocity": 97}, {"time": 1629, "pitch": 62, "duration": 13, "velocity": 89}, {"time": 1629, "pitch": 66, "duration": 14, "velocity": 89}, {"time": 1629, "pitch": 69, "duration": 16, "velocity": 93}, {"time": 1635, "pitch": 50, "duration": 37, "velocity": 92}, {"time": 1641, "pitch": 57, "duration": 15, "velocity": 91}, {"time": 1644, "pitch": 62, "duration": 7, "velocity": 94}, {"time": 1647, "pitch": 66, "duration": 3, "velocity": 104}, {"time": 1647, "pitch": 69, "duration": 1, "velocity": 78}, {"time": 1650, "pitch": 69, "duration": 1, "velocity": 87}, {"time": 1653, "pitch": 62, "duration": 7, "velocity": 93}, {"time": 1653, "pitch": 66, "duration": 7, "velocity": 95}, {"time": 1653, "pitch": 69, "duration": 7, "velocity": 97}, {"time": 1653, "pitch": 74, "duration": 7, "velocity": 98}, {"time": 1659, "pitch": 57, "duration": 4, "velocity": 83}, {"time": 1662, "pitch": 62, "duration": 8, "velocity": 95}, {"time": 1662, "pitch": 66, "duration": 9, "velocity": 94}, {"time": 1662, "pitch": 69, "duration": 13, "velocity": 93}, {"time": 1662, "pitch": 74, "duration": 9, "velocity": 94}, {"time": 1668, "pitch": 54, "duration": 3, "velocity": 94}, {"time": 1671, "pitch": 57, "duration": 1, "velocity": 95}, {"time": 1674, "pitch": 62, "duration": 2, "velocity": 94}, {"time": 1677, "pitch": 43, "duration": 45, "velocity": 93}, {"time": 1677, "pitch": 62, "duration": 4, "velocity": 94}, {"time": 1677, "pitch": 67, "duration": 3, "velocity": 92}, {"time": 1683, "pitch": 50, "duration": 38, "velocity": 82}, {"time": 1689, "pitch": 55, "duration": 3, "velocity": 93}, {"time": 1689, "pitch": 59, "duration": 2, "velocity": 95}, {"time": 1689, "pitch": 62, "duration": 3, "velocity": 94}, {"time": 1695, "pitch": 55, "duration": 3, "velocity": 93}, {"time": 1695, "pitch": 59, "duration": 3, "velocity": 93}, {"time": 1695, "pitch": 62, "duration": 3, "velocity": 93}, {"time": 1701, "pitch": 55, "duration": 2, "velocity": 92}, {"time": 1701, "pitch": 59, "duration": 2, "velocity": 93}, {"time": 1701, "pitch": 62, "duration": 2, "velocity": 93}, {"time": 1701, "pitch": 67, "duration": 3, "velocity": 89}, {"time": 1713, "pitch": 67, "duration": 2, "velocity": 90}, {"time": 1713, "pitch": 74, "duration": 3, "velocity": 98}, {"time": 1716, "pitch": 71, "duration": 2, "velocity": 86}, {"time": 1719, "pitch": 67, "duration": 2, "velocity": 89}, {"time": 1725, "pitch": 43, "duration": 21, "velocity": 93}, {"time": 1725, "pitch": 67, "duration": 9, "velocity": 83}, {"time": 1725, "pitch": 71, "duration": 9, "velocity": 93}, {"time": 1725, "pitch": 74, "duration": 9, "velocity": 91}, {"time": 1725, "pitch": 79, "duration": 8, "velocity": 88}, {"time": 1737, "pitch": 71, "duration": 4, "velocity": 87}, {"time": 1737, "pitch": 74, "duration": 4, "velocity": 89}, {"time": 1743, "pitch": 67, "duration": 3, "velocity": 70}, {"time": 1749, "pitch": 43, "duration": 12, "velocity": 94}, {"time": 1749, "pitch": 67, "duration": 16, "velocity": 82}, {"time": 1749, "pitch": 71, "duration": 17, "velocity": 86}, {"time": 1749, "pitch": 74, "duration": 17, "velocity": 91}, {"time": 1773, "pitch": 43, "duration": 16, "velocity": 93}, {"time": 1773, "pitch": 62, "duration": 11, "velocity": 89}, {"time": 1779, "pitch": 50, "duration": 10, "velocity": 82}, {"time": 1785, "pitch": 55, "duration": 4, "velocity": 88}, {"time": 1785, "pitch": 59, "duration": 4, "velocity": 91}, {"time": 1797, "pitch": 52, "duration": 14, "velocity": 94}, {"time": 1797, "pitch": 64, "duration": 7, "velocity": 93}, {"time": 1803, "pitch": 59, "duration": 7, "velocity": 90}, {"time": 1809, "pitch": 64, "duration": 2, "velocity": 89}, {"time": 1809, "pitch": 67, "duration": 2, "velocity": 86}, {"time": 1821, "pitch": 47, "duration": 21, "velocity": 93}, {"time": 1821, "pitch": 59, "duration": 10, "velocity": 83}, {"time": 1821, "pitch": 62, "duration": 12, "velocity": 80}, {"time": 1827, "pitch": 54, "duration": 12, "velocity": 82}, {"time": 1833, "pitch": 66, "duration": 10, "velocity": 94}, {"time": 1839, "pitch": 59, "duration": 4, "velocity": 92}, {"time": 1845, "pitch": 52, "duration": 18, "velocity": 94}, {"time": 1845, "pitch": 59, "duration": 3, "velocity": 91}, {"time": 1845, "pitch": 64, "duration": 6, "velocity": 94}, {"time": 1851, "pitch": 59, "duration": 4, "velocity": 89}, {"time": 1857, "pitch": 59, "duration": 2, "velocity": 98}, {"time": 1857, "pitch": 64, "duration": 11, "velocity": 95}, {"time": 1857, "pitch": 67, "duration": 12, "velocity": 89}, {"time": 1863, "pitch": 59, "duration": 5, "velocity": 94}, {"time": 1869, "pitch": 45, "duration": 16, "velocity": 93}, {"time": 1869, "pitch": 57, "duration": 7, "velocity": 84}, {"time": 1869, "pitch": 60, "duration": 7, "velocity": 88}, {"time": 1875, "pitch": 52, "duration": 9, "velocity": 82}, {"time": 1881, "pitch": 57, "duration": 3, "velocity": 88}, {"time": 1881, "pitch": 60, "duration": 4, "velocity": 93}, {"time": 1881, "pitch": 64, "duration": 6, "velocity": 95}, {"time": 1887, "pitch": 57, "duration": 3, "velocity": 93}, {"time": 1893, "pitch": 48, "duration": 22, "velocity": 93}, {"time": 1893, "pitch": 55, "duration": 3, "velocity": 94}, {"time": 1893, "pitch": 60, "duration": 8, "velocity": 92}, {"time": 1899, "pitch": 55, "duration": 4, "velocity": 83}, {"time": 1905, "pitch": 55, "duration": 3, "velocity": 94}, {"time": 1905, "pitch": 60, "duration": 9, "velocity": 95}, {"time": 1905, "pitch": 64, "duration": 9, "velocity": 95}, {"time": 1911, "pitch": 55, "duration": 3, "velocity": 87}, {"time": 1917, "pitch": 48, "duration": 18, "velocity": 94}, {"time": 1917, "pitch": 55, "duration": 3, "velocity": 93}, {"time": 1917, "pitch": 64, "duration": 9, "velocity": 94}, {"time": 1923, "pitch": 55, "duration": 4, "velocity": 87}, {"time": 1929, "pitch": 55, "duration": 2, "velocity": 95}, {"time": 1929, "pitch": 60, "duration": 4, "velocity": 93}, {"time": 1935, "pitch": 55, "duration": 3, "velocity": 94}, {"time": 1941, "pitch": 38, "duration": 23, "velocity": 99}, {"time": 1941, "pitch": 57, "duration": 4, "velocity": 86}, {"time": 1941, "pitch": 62, "duration": 6, "velocity": 89}, {"time": 1947, "pitch": 45, "duration": 17, "velocity": 87}, {"time": 1953, "pitch": 54, "duration": 11, "velocity": 95}, {"time": 1953, "pitch": 57, "duration": 11, "velocity": 94}, {"time": 1959, "pitch": 50, "duration": 5, "velocity": 100}, {"time": 1965, "pitch": 43, "duration": 16, "velocity": 93}, {"time": 1965, "pitch": 62, "duration": 11, "velocity": 89}, {"time": 1971, "pitch": 50, "duration": 10, "velocity": 82}, {"time": 1977, "pitch": 55, "duration": 4, "velocity": 88}, {"time": 1977, "pitch": 59, "duration": 4, "velocity": 91}, {"time": 1989, "pitch": 52, "duration": 14, "velocity": 94}, {"time": 1989, "pitch": 64, "duration": 7, "velocity": 93}, {"time": 1995, "pitch": 59, "duration": 7, "velocity": 90}, {"time": 2001, "pitch": 64, "duration": 2, "velocity": 89}, {"time": 2001, "pitch": 67, "duration": 2, "velocity": 86}, {"time": 2013, "pitch": 47, "duration": 21, "velocity": 93}, {"time": 2013, "pitch": 59, "duration": 10, "velocity": 83}, {"time": 2013, "pitch": 62, "duration": 12, "velocity": 80}, {"time": 2019, "pitch": 54, "duration": 12, "velocity": 82}, {"time": 2025, "pitch": 66, "duration": 10, "velocity": 94}, {"time": 2031, "pitch": 59, "duration": 4, "velocity": 92}, {"time": 2037, "pitch": 52, "duration": 18, "velocity": 94}, {"time": 2037, "pitch": 59, "duration": 3, "velocity": 91}, {"time": 2037, "pitch": 64, "duration": 6, "velocity": 94}, {"time": 2043, "pitch": 59, "duration": 4, "velocity": 89}, {"time": 2049, "pitch": 59, "duration": 2, "velocity": 98}, {"time": 2049, "pitch": 64, "duration": 11, "velocity": 95}, {"time": 2049, "pitch": 67, "duration": 12, "velocity": 89}, {"time": 2055, "pitch": 59, "duration": 5, "velocity": 94}, {"time": 2061, "pitch": 45, "duration": 16, "velocity": 93}, {"time": 2061, "pitch": 57, "duration": 7, "velocity": 84}, {"time": 2061, "pitch": 60, "duration": 7, "velocity": 88}, {"time": 2067, "pitch": 52, "duration": 9, "velocity": 82}, {"time": 2073, "pitch": 57, "duration": 3, "velocity": 88}, {"time": 2073, "pitch": 60, "duration": 4, "velocity": 93}, {"time": 2073, "pitch": 64, "duration": 6, "velocity": 95}, {"time": 2079, "pitch": 57, "duration": 3, "velocity": 93}, {"time": 2085, "pitch": 48, "duration": 5, "velocity": 100}, {"time": 2085, "pitch": 55, "duration": 2, "velocity": 87}, {"time": 2085, "pitch": 60, "duration": 6, "velocity": 88}, {"time": 2085, "pitch": 64, "duration": 7, "velocity": 94}, {"time": 2091, "pitch": 55, "duration": 1, "velocity": 90}, {"time": 2097, "pitch": 38, "duration": 4, "velocity": 99}, {"time": 2097, "pitch": 57, "duration": 3, "velocity": 92}, {"time": 2097, "pitch": 62, "duration": 6, "velocity": 93}, {"time": 2103, "pitch": 57, "duration": 1, "velocity": 91}, {"time": 2109, "pitch": 43, "duration": 22, "velocity": 94}, {"time": 2109, "pitch": 55, "duration": 7, "velocity": 88}, {"time": 2109, "pitch": 59, "duration": 6, "velocity": 88}, {"time": 2109, "pitch": 62, "duration": 6, "velocity": 91}, {"time": 2115, "pitch": 50, "duration": 7, "velocity": 78}, {"time": 2121, "pitch": 55, "duration": 3, "velocity": 95}, {"time": 2121, "pitch": 59, "duration": 3, "velocity": 95}, {"time": 2121, "pitch": 62, "duration": 3, "velocity": 100}, {"time": 2124, "pitch": 50, "duration": 6, "velocity": 94}, {"time": 2127, "pitch": 55, "duration": 3, "velocity": 96}, {"time": 2130, "pitch": 59, "duration": 1, "velocity": 93}, {"time": 2133, "pitch": 43, "duration": 22, "velocity": 94}, {"time": 2133, "pitch": 55, "duration": 6, "velocity": 89}, {"time": 2133, "pitch": 59, "duration": 6, "velocity": 93}, {"time": 2133, "pitch": 67, "duration": 6, "velocity": 92}, {"time": 2139, "pitch": 50, "duration": 7, "velocity": 84}, {"time": 2145, "pitch": 55, "duration": 4, "velocity": 94}, {"time": 2145, "pitch": 59, "duration": 5, "velocity": 98}, {"time": 2145, "pitch": 62, "duration": 5, "velocity": 96}, {"time": 2148, "pitch": 50, "duration": 8, "velocity": 91}, {"time": 2151, "pitch": 55, "duration": 4, "velocity": 95}, {"time": 2157, "pitch": 43, "duration": 20, "velocity": 94}, {"time": 2157, "pitch": 55, "duration": 3, "velocity": 91}, {"time": 2157, "pitch": 62, "duration": 5, "velocity": 93}, {"time": 2160, "pitch": 50, "duration": 16, "velocity": 90}, {"time": 2163, "pitch": 55, "duration": 4, "velocity": 93}, {"time": 2166, "pitch": 59, "duration": 1, "velocity": 95}, {"time": 2169, "pitch": 55, "duration": 1, "velocity": 76}, {"time": 2169, "pitch": 67, "duration": 4, "velocity": 98}, {"time": 2172, "pitch": 62, "duration": 4, "velocity": 94}, {"time": 2175, "pitch": 59, "duration": 3, "velocity": 94}, {"time": 2178, "pitch": 55, "duration": 1, "velocity": 97}, {"time": 2181, "pitch": 42, "duration": 19, "velocity": 97}, {"time": 2181, "pitch": 62, "duration": 5, "velocity": 93}, {"time": 2184, "pitch": 45, "duration": 13, "velocity": 88}, {"time": 2187, "pitch": 57, "duration": 5, "velocity": 94}, {"time": 2190, "pitch": 62, "duration": 2, "velocity": 87}, {"time": 2193, "pitch": 62, "duration": 1, "velocity": 88}, {"time": 2193, "pitch": 66, "duration": 9, "velocity": 98}, {"time": 2196, "pitch": 62, "duration": 3, "velocity": 89}, {"time": 2199, "pitch": 57, "duration": 4, "velocity": 93}, {"time": 2202, "pitch": 62, "duration": 2, "velocity": 88}, {"time": 2205, "pitch": 40, "duration": 18, "velocity": 96}, {"time": 2205, "pitch": 59, "duration": 3, "velocity": 93}, {"time": 2205, "pitch": 64, "duration": 6, "velocity": 94}, {"time": 2208, "pitch": 47, "duration": 10, "velocity": 90}, {"time": 2211, "pitch": 59, "duration": 4, "velocity": 94}, {"time": 2214, "pitch": 64, "duration": 1, "velocity": 90}, {"time": 2217, "pitch": 59, "duration": 3, "velocity": 96}, {"time": 2217, "pitch": 64, "duration": 6, "velocity": 96}, {"time": 2217, "pitch": 67, "duration": 7, "velocity": 95}, {"time": 2220, "pitch": 47, "duration": 3, "velocity": 90}, {"time": 2223, "pitch": 59, "duration": 2, "velocity": 96}, {"time": 2229, "pitch": 50, "duration": 16, "velocity": 104}, {"time": 2229, "pitch": 57, "duration": 2, "velocity": 93}, {"time": 2229, "pitch": 62, "duration": 3, "velocity": 94}, {"time": 2232, "pitch": 57, "duration": 3, "velocity": 89}, {"time": 2235, "pitch": 62, "duration": 3, "velocity": 91}, {"time": 2238, "pitch": 57, "duration": 2, "velocity": 83}, {"time": 2241, "pitch": 66, "duration": 6, "velocity": 104}, {"time": 2244, "pitch": 57, "duration": 2, "velocity": 93}, {"time": 2247, "pitch": 62, "duration": 3, "velocity": 94}, {"time": 2250, "pitch": 57, "duration": 1, "velocity": 92}, {"time": 2253, "pitch": 48, "duration": 10, "velocity": 98}, {"time": 2253, "pitch": 60, "duration": 2, "velocity": 87}, {"time": 2253, "pitch": 64, "duration": 6, "velocity": 89}, {"time": 2256, "pitch": 55, "duration": 7, "velocity": 84}, {"time": 2259, "pitch": 60, "duration": 4, "velocity": 93}, {"time": 2262, "pitch": 64, "duration": 1, "velocity": 86}, {"time": 2265, "pitch": 48, "duration": 7, "velocity": 97}, {"time": 2265, "pitch": 55, "duration": 6, "velocity": 92}, {"time": 2265, "pitch": 60, "duration": 2, "velocity": 90}, {"time": 2265, "pitch": 64, "duration": 2, "velocity": 94}, {"time": 2265, "pitch": 67, "duration": 4, "velocity": 93}, {"time": 2268, "pitch": 60, "duration": 3, "velocity": 89}, {"time": 2271, "pitch": 64, "duration": 5, "velocity": 93}, {"time": 2274, "pitch": 60, "duration": 2, "velocity": 81}, {"time": 2277, "pitch": 47, "duration": 19, "velocity": 94}, {"time": 2277, "pitch": 59, "duration": 2, "velocity": 91}, {"time": 2277, "pitch": 62, "duration": 3, "velocity": 89}, {"time": 2280, "pitch": 59, "duration": 2, "velocity": 87}, {"time": 2283, "pitch": 62, "duration": 2, "velocity": 83}, {"time": 2286, "pitch": 59, "duration": 1, "velocity": 90}, {"time": 2289, "pitch": 54, "duration": 4, "velocity": 93}, {"time": 2289, "pitch": 59, "duration": 2, "velocity": 93}, {"time": 2289, "pitch": 66, "duration": 6, "velocity": 95}, {"time": 2292, "pitch": 59, "duration": 2, "velocity": 93}, {"time": 2295, "pitch": 62, "duration": 3, "velocity": 93}, {"time": 2298, "pitch": 59, "duration": 2, "velocity": 90}, {"time": 2301, "pitch": 45, "duration": 21, "velocity": 93}, {"time": 2301, "pitch": 57, "duration": 3, "velocity": 93}, {"time": 2301, "pitch": 60, "duration": 4, "velocity": 90}, {"time": 2304, "pitch": 52, "duration": 13, "velocity": 80}, {"time": 2307, "pitch": 57, "duration": 5, "velocity": 93}, {"time": 2310, "pitch": 60, "duration": 2, "velocity": 94}, {"time": 2313, "pitch": 64, "duration": 4, "velocity": 102}, {"time": 2316, "pitch": 57, "duration": 3, "velocity": 94}, {"time": 2319, "pitch": 60, "duration": 2, "velocity": 94}, {"time": 2322, "pitch": 57, "duration": 1, "velocity": 90}, {"time": 2325, "pitch": 50, "duration": 18, "velocity": 98}, {"time": 2325, "pitch": 57, "duration": 2, "velocity": 93}, {"time": 2325, "pitch": 62, "duration": 3, "velocity": 94}, {"time": 2328, "pitch": 57, "duration": 3, "velocity": 87}, {"time": 2331, "pitch": 62, "duration": 3, "velocity": 87}, {"time": 2334, "pitch": 57, "duration": 1, "velocity": 93}, {"time": 2337, "pitch": 57, "duration": 1, "velocity": 95}, {"time": 2337, "pitch": 66, "duration": 4, "velocity": 98}, {"time": 2340, "pitch": 57, "duration": 2, "velocity": 94}, {"time": 2343, "pitch": 62, "duration": 2, "velocity": 93}, {"time": 2346, "pitch": 57, "duration": 1, "velocity": 93}, {"time": 2349, "pitch": 43, "duration": 21, "velocity": 93}, {"time": 2349, "pitch": 55, "duration": 3, "velocity": 93}, {"time": 2349, "pitch": 59, "duration": 4, "velocity": 94}, {"time": 2352, "pitch": 50, "duration": 18, "velocity": 87}, {"time": 2355, "pitch": 55, "duration": 4, "velocity": 93}, {"time": 2358, "pitch": 59, "duration": 2, "velocity": 88}, {"time": 2361, "pitch": 62, "duration": 4, "velocity": 104}, {"time": 2364, "pitch": 55, "duration": 3, "velocity": 91}, {"time": 2367, "pitch": 59, "duration": 2, "velocity": 93}, {"time": 2370, "pitch": 55, "duration": 1, "velocity": 82}, {"time": 2373, "pitch": 42, "duration": 18, "velocity": 94}, {"time": 2373, "pitch": 62, "duration": 4, "velocity": 93}, {"time": 2376, "pitch": 50, "duration": 14, "velocity": 86}, {"time": 2379, "pitch": 57, "duration": 4, "velocity": 96}, {"time": 2382, "pitch": 62, "duration": 2, "velocity": 95}, {"time": 2385, "pitch": 66, "duration": 4, "velocity": 109}, {"time": 2388, "pitch": 62, "duration": 2, "velocity": 95}, {"time": 2391, "pitch": 57, "duration": 3, "velocity": 95}, {"time": 2394, "pitch": 62, "duration": 1, "velocity": 90}, {"time": 2397, "pitch": 40, "duration": 18, "velocity": 96}, {"time": 2397, "pitch": 59, "duration": 3, "velocity": 93}, {"time": 2397, "pitch": 64, "duration": 6, "velocity": 96}, {"time": 2400, "pitch": 47, "duration": 14, "velocity": 87}, {"time": 2403, "pitch": 59, "duration": 4, "velocity": 94}, {"time": 2406, "pitch": 64, "duration": 1, "velocity": 95}, {"time": 2409, "pitch": 59, "duration": 3, "velocity": 94}, {"time": 2409, "pitch": 67, "duration": 4, "velocity": 93}, {"time": 2412, "pitch": 64, "duration": 3, "velocity": 95}, {"time": 2415, "pitch": 59, "duration": 4, "velocity": 93}, {"time": 2418, "pitch": 64, "duration": 2, "velocity": 92}, {"time": 2421, "pitch": 47, "duration": 20, "velocity": 95}, {"time": 2421, "pitch": 59, "duration": 1, "velocity": 91}, {"time": 2421, "pitch": 62, "duration": 3, "velocity": 93}, {"time": 2424, "pitch": 59, "duration": 4, "velocity": 87}, {"time": 2427, "pitch": 62, "duration": 3, "velocity": 95}, {"time": 2430, "pitch": 66, "duration": 7, "velocity": 100}, {"time": 2433, "pitch": 54, "duration": 5, "velocity": 94}, {"time": 2436, "pitch": 59, "duration": 4, "velocity": 95}, {"time": 2439, "pitch": 62, "duration": 4, "velocity": 95}, {"time": 2442, "pitch": 59, "duration": 1, "velocity": 89}, {"time": 2445, "pitch": 48, "duration": 10, "velocity": 97}, {"time": 2445, "pitch": 60, "duration": 3, "velocity": 93}, {"time": 2445, "pitch": 64, "duration": 6, "velocity": 95}, {"time": 2448, "pitch": 55, "duration": 7, "velocity": 78}, {"time": 2451, "pitch": 60, "duration": 4, "velocity": 93}, {"time": 2454, "pitch": 64, "duration": 1, "velocity": 96}, {"time": 2457, "pitch": 48, "duration": 7, "velocity": 94}, {"time": 2457, "pitch": 60, "duration": 3, "velocity": 95}, {"time": 2457, "pitch": 67, "duration": 7, "velocity": 94}, {"time": 2460, "pitch": 55, "duration": 3, "velocity": 93}, {"time": 2463, "pitch": 60, "duration": 4, "velocity": 95}, {"time": 2466, "pitch": 64, "duration": 2, "velocity": 94}, {"time": 2469, "pitch": 47, "duration": 20, "velocity": 93}, {"time": 2469, "pitch": 59, "duration": 2, "velocity": 93}, {"time": 2469, "pitch": 62, "duration": 6, "velocity": 87}, {"time": 2475, "pitch": 59, "duration": 4, "velocity": 93}, {"time": 2478, "pitch": 62, "duration": 6, "velocity": 90}, {"time": 2481, "pitch": 54, "duration": 5, "velocity": 87}, {"time": 2484, "pitch": 59, "duration": 6, "velocity": 94}, {"time": 2487, "pitch": 62, "duration": 3, "velocity": 92}, {"time": 2490, "pitch": 66, "duration": 2, "velocity": 95}, {"time": 2493, "pitch": 45, "duration": 7, "velocity": 94}, {"time": 2493, "pitch": 57, "duration": 3, "velocity": 93}, {"time": 2493, "pitch": 60, "duration": 5, "velocity": 96}, {"time": 2496, "pitch": 52, "duration": 3, "velocity": 94}, {"time": 2499, "pitch": 57, "duration": 4, "velocity": 93}, {"time": 2502, "pitch": 60, "duration": 2, "velocity": 93}, {"time": 2505, "pitch": 38, "duration": 5, "velocity": 97}, {"time": 2505, "pitch": 57, "duration": 3, "velocity": 93}, {"time": 2505, "pitch": 62, "duration": 5, "velocity": 93}, {"time": 2508, "pitch": 45, "duration": 2, "velocity": 90}, {"time": 2511, "pitch": 57, "duration": 3, "velocity": 94}, {"time": 2514, "pitch": 62, "duration": 1, "velocity": 94}, {"time": 2517, "pitch": 43, "duration": 20, "velocity": 94}, {"time": 2517, "pitch": 55, "duration": 4, "velocity": 93}, {"time": 2517, "pitch": 59, "duration": 6, "velocity": 93}, {"time": 2520, "pitch": 50, "duration": 10, "velocity": 87}, {"time": 2523, "pitch": 55, "duration": 4, "velocity": 89}, {"time": 2529, "pitch": 55, "duration": 3, "velocity": 95}, {"time": 2529, "pitch": 62, "duration": 7, "velocity": 97}, {"time": 2532, "pitch": 50, "duration": 5, "velocity": 89}, {"time": 2535, "pitch": 55, "duration": 4, "velocity": 89}, {"time": 2541, "pitch": 43, "duration": 21, "velocity": 94}, {"time": 2541, "pitch": 55, "duration": 8, "velocity": 83}, {"time": 2541, "pitch": 59, "duration": 7, "velocity": 92}, {"time": 2541, "pitch": 62, "duration": 8, "velocity": 88}, {"time": 2547, "pitch": 50, "duration": 6, "velocity": 77}, {"time": 2553, "pitch": 55, "duration": 3, "velocity": 97}, {"time": 2553, "pitch": 59, "duration": 4, "velocity": 104}, {"time": 2553, "pitch": 62, "duration": 4, "velocity": 100}, {"time": 2556, "pitch": 50, "duration": 7, "velocity": 102}, {"time": 2559, "pitch": 55, "duration": 5, "velocity": 104}, {"time": 2562, "pitch": 59, "duration": 2, "velocity": 95}, {"time": 2562, "pitch": 62, "duration": 2, "velocity": 93}, {"time": 2565, "pitch": 43, "duration": 20, "velocity": 94}, {"time": 2565, "pitch": 55, "duration": 3, "velocity": 91}, {"time": 2565, "pitch": 62, "duration": 5, "velocity": 93}, {"time": 2568, "pitch": 50, "duration": 16, "velocity": 90}, {"time": 2571, "pitch": 55, "duration": 4, "velocity": 93}, {"time": 2574, "pitch": 59, "duration": 1, "velocity": 95}, {"time": 2577, "pitch": 55, "duration": 1, "velocity": 76}, {"time": 2577, "pitch": 67, "duration": 4, "velocity": 98}, {"time": 2580, "pitch": 62, "duration": 4, "velocity": 94}, {"time": 2583, "pitch": 59, "duration": 3, "velocity": 94}, {"time": 2586, "pitch": 55, "duration": 1, "velocity": 97}, {"time": 2589, "pitch": 42, "duration": 19, "velocity": 97}, {"time": 2589, "pitch": 62, "duration": 5, "velocity": 93}, {"time": 2592, "pitch": 45, "duration": 13, "velocity": 88}, {"time": 2595, "pitch": 57, "duration": 5, "velocity": 94}, {"time": 2598, "pitch": 62, "duration": 2, "velocity": 87}, {"time": 2601, "pitch": 62, "duration": 1, "velocity": 88}, {"time": 2601, "pitch": 66, "duration": 9, "velocity": 98}, {"time": 2604, "pitch": 62, "duration": 3, "velocity": 89}, {"time": 2607, "pitch": 57, "duration": 4, "velocity": 93}, {"time": 2610, "pitch": 62, "duration": 2, "velocity": 88}, {"time": 2613, "pitch": 40, "duration": 18, "velocity": 96}, {"time": 2613, "pitch": 59, "duration": 3, "velocity": 93}, {"time": 2613, "pitch": 64, "duration": 6, "velocity": 94}, {"time": 2616, "pitch": 47, "duration": 10, "velocity": 90}, {"time": 2619, "pitch": 59, "duration": 4, "velocity": 94}, {"time": 2622, "pitch": 64, "duration": 1, "velocity": 90}, {"time": 2625, "pitch": 59, "duration": 3, "velocity": 96}, {"time": 2625, "pitch": 64, "duration": 6, "velocity": 96}, {"time": 2625, "pitch": 67, "duration": 7, "velocity": 95}, {"time": 2628, "pitch": 47, "duration": 3, "velocity": 90}, {"time": 2631, "pitch": 59, "duration": 2, "velocity": 96}, {"time": 2637, "pitch": 50, "duration": 16, "velocity": 104}, {"time": 2637, "pitch": 57, "duration": 2, "velocity": 93}, {"time": 2637, "pitch": 62, "duration": 3, "velocity": 94}, {"time": 2640, "pitch": 57, "duration": 3, "velocity": 89}, {"time": 2643, "pitch": 62, "duration": 3, "velocity": 91}, {"time": 2646, "pitch": 57, "duration": 2, "velocity": 83}, {"time": 2649, "pitch": 66, "duration": 6, "velocity": 104}, {"time": 2652, "pitch": 57, "duration": 2, "velocity": 93}, {"time": 2655, "pitch": 62, "duration": 3, "velocity": 94}, {"time": 2658, "pitch": 57, "duration": 1, "velocity": 92}, {"time": 2661, "pitch": 48, "duration": 10, "velocity": 98}, {"time": 2661, "pitch": 60, "duration": 2, "velocity": 87}, {"time": 2661, "pitch": 64, "duration": 6, "velocity": 89}, {"time": 2664, "pitch": 55, "duration": 7, "velocity": 84}, {"time": 2667, "pitch": 60, "duration": 4, "velocity": 93}, {"time": 2670, "pitch": 64, "duration": 1, "velocity": 86}, {"time": 2673, "pitch": 48, "duration": 7, "velocity": 97}, {"time": 2673, "pitch": 55, "duration": 6, "velocity": 92}, {"time": 2673, "pitch": 60, "duration": 2, "velocity": 90}, {"time": 2673, "pitch": 64, "duration": 2, "velocity": 94}, {"time": 2673, "pitch": 67, "duration": 4, "velocity": 93}, {"time": 2676, "pitch": 60, "duration": 3, "velocity": 89}, {"time": 2679, "pitch": 64, "duration": 5, "velocity": 93}, {"time": 2682, "pitch": 60, "duration": 2, "velocity": 81}, {"time": 2685, "pitch": 47, "duration": 19, "velocity": 94}, {"time": 2685, "pitch": 59, "duration": 2, "velocity": 91}, {"time": 2685, "pitch": 62, "duration": 3, "velocity": 89}, {"time": 2688, "pitch": 59, "duration": 2, "velocity": 87}, {"time": 2691, "pitch": 62, "duration": 2, "velocity": 83}, {"time": 2694, "pitch": 59, "duration": 1, "velocity": 90}, {"time": 2697, "pitch": 54, "duration": 4, "velocity": 93}, {"time": 2697, "pitch": 59, "duration": 2, "velocity": 93}, {"time": 2697, "pitch": 66, "duration": 6, "velocity": 95}, {"time": 2700, "pitch": 59, "duration": 2, "velocity": 93}, {"time": 2703, "pitch": 62, "duration": 3, "velocity": 93}, {"time": 2706, "pitch": 59, "duration": 2, "velocity": 90}, {"time": 2709, "pitch": 45, "duration": 21, "velocity": 93}, {"time": 2709, "pitch": 57, "duration": 3, "velocity": 93}, {"time": 2709, "pitch": 60, "duration": 4, "velocity": 90}, {"time": 2712, "pitch": 52, "duration": 13, "velocity": 80}, {"time": 2715, "pitch": 57, "duration": 5, "velocity": 93}, {"time": 2718, "pitch": 60, "duration": 2, "velocity": 94}, {"time": 2721, "pitch": 64, "duration": 4, "velocity": 102}, {"time": 2724, "pitch": 57, "duration": 3, "velocity": 94}, {"time": 2727, "pitch": 60, "duration": 2, "velocity": 94}, {"time": 2730, "pitch": 57, "duration": 1, "velocity": 90}, {"time": 2733, "pitch": 50, "duration": 18, "velocity": 98}, {"time": 2733, "pitch": 57, "duration": 2, "velocity": 93}, {"time": 2733, "pitch": 62, "duration": 3, "velocity": 94}, {"time": 2736, "pitch": 57, "duration": 3, "velocity": 87}, {"time": 2739, "pitch": 62, "duration": 3, "velocity": 87}, {"time": 2742, "pitch": 57, "duration": 1, "velocity": 93}, {"time": 2745, "pitch": 57, "duration": 1, "velocity": 95}, {"time": 2745, "pitch": 66, "duration": 4, "velocity": 98}, {"time": 2748, "pitch": 57, "duration": 2, "velocity": 94}, {"time": 2751, "pitch": 62, "duration": 2, "velocity": 93}, {"time": 2754, "pitch": 57, "duration": 1, "velocity": 93}, {"time": 2757, "pitch": 43, "duration": 21, "velocity": 93}, {"time": 2757, "pitch": 55, "duration": 3, "velocity": 93}, {"time": 2757, "pitch": 59, "duration": 4, "velocity": 94}, {"time": 2760, "pitch": 50, "duration": 18, "velocity": 87}, {"time": 2763, "pitch": 55, "duration": 4, "velocity": 93}, {"time": 2766, "pitch": 59, "duration": 2, "velocity": 88}, {"time": 2769, "pitch": 62, "duration": 4, "velocity": 104}, {"time": 2772, "pitch": 55, "duration": 3, "velocity": 91}, {"time": 2775, "pitch": 59, "duration": 2, "velocity": 93}, {"time": 2778, "pitch": 55, "duration": 1, "velocity": 82}, {"time": 2781, "pitch": 42, "duration": 18, "velocity": 94}, {"time": 2781, "pitch": 62, "duration": 4, "velocity": 93}, {"time": 2784, "pitch": 50, "duration": 14, "velocity": 86}, {"time": 2787, "pitch": 57, "duration": 4, "velocity": 96}, {"time": 2790, "pitch": 62, "duration": 2, "velocity": 95}, {"time": 2793, "pitch": 66, "duration": 4, "velocity": 109}, {"time": 2796, "pitch": 62, "duration": 2, "velocity": 95}, {"time": 2799, "pitch": 57, "duration": 3, "velocity": 95}, {"time": 2802, "pitch": 62, "duration": 1, "velocity": 90}, {"time": 2805, "pitch": 40, "duration": 18, "velocity": 96}, {"time": 2805, "pitch": 59, "duration": 3, "velocity": 93}, {"time": 2805, "pitch": 64, "duration": 6, "velocity": 96}, {"time": 2808, "pitch": 47, "duration": 14, "velocity": 87}, {"time": 2811, "pitch": 59, "duration": 4, "velocity": 94}, {"time": 2814, "pitch": 64, "duration": 1, "velocity": 95}, {"time": 2817, "pitch": 59, "duration": 3, "velocity": 94}, {"time": 2817, "pitch": 67, "duration": 4, "velocity": 93}, {"time": 2820, "pitch": 64, "duration": 3, "velocity": 95}, {"time": 2823, "pitch": 59, "duration": 4, "velocity": 93}, {"time": 2826, "pitch": 64, "duration": 2, "velocity": 92}, {"time": 2829, "pitch": 47, "duration": 20, "velocity": 95}, {"time": 2829, "pitch": 59, "duration": 1, "velocity": 91}, {"time": 2829, "pitch": 62, "duration": 3, "velocity": 93}, {"time": 2832, "pitch": 59, "duration": 4, "velocity": 87}, {"time": 2835, "pitch": 62, "duration": 3, "velocity": 95}, {"time": 2838, "pitch": 66, "duration": 7, "velocity": 100}, {"time": 2841, "pitch": 54, "duration": 5, "velocity": 94}, {"time": 2844, "pitch": 59, "duration": 4, "velocity": 95}, {"time": 2847, "pitch": 62, "duration": 4, "velocity": 95}, {"time": 2850, "pitch": 59, "duration": 1, "velocity": 89}, {"time": 2853, "pitch": 48, "duration": 10, "velocity": 97}, {"time": 2853, "pitch": 60, "duration": 3, "velocity": 93}, {"time": 2853, "pitch": 64, "duration": 6, "velocity": 95}, {"time": 2856, "pitch": 55, "duration": 7, "velocity": 78}, {"time": 2859, "pitch": 60, "duration": 4, "velocity": 93}, {"time": 2862, "pitch": 64, "duration": 1, "velocity": 96}, {"time": 2865, "pitch": 48, "duration": 7, "velocity": 94}, {"time": 2865, "pitch": 60, "duration": 3, "velocity": 95}, {"time": 2865, "pitch": 67, "duration": 7, "velocity": 94}, {"time": 2868, "pitch": 55, "duration": 3, "velocity": 93}, {"time": 2871, "pitch": 60, "duration": 4, "velocity": 95}, {"time": 2874, "pitch": 64, "duration": 2, "velocity": 94}, {"time": 2877, "pitch": 47, "duration": 20, "velocity": 93}, {"time": 2877, "pitch": 59, "duration": 2, "velocity": 93}, {"time": 2877, "pitch": 62, "duration": 6, "velocity": 87}, {"time": 2883, "pitch": 59, "duration": 4, "velocity": 93}, {"time": 2886, "pitch": 62, "duration": 6, "velocity": 90}, {"time": 2889, "pitch": 54, "duration": 5, "velocity": 87}, {"time": 2892, "pitch": 59, "duration": 6, "velocity": 94}, {"time": 2895, "pitch": 62, "duration": 3, "velocity": 92}, {"time": 2898, "pitch": 66, "duration": 2, "velocity": 95}, {"time": 2901, "pitch": 45, "duration": 7, "velocity": 94}, {"time": 2901, "pitch": 57, "duration": 3, "velocity": 93}, {"time": 2901, "pitch": 60, "duration": 5, "velocity": 96}, {"time": 2904, "pitch": 52, "duration": 3, "velocity": 94}, {"time": 2907, "pitch": 57, "duration": 4, "velocity": 93}, {"time": 2910, "pitch": 60, "duration": 2, "velocity": 93}, {"time": 2913, "pitch": 38, "duration": 5, "velocity": 97}, {"time": 2913, "pitch": 57, "duration": 3, "velocity": 93}, {"time": 2913, "pitch": 62, "duration": 5, "velocity": 93}, {"time": 2916, "pitch": 45, "duration": 2, "velocity": 90}, {"time": 2919, "pitch": 57, "duration": 3, "velocity": 94}, {"time": 2922, "pitch": 62, "duration": 1, "velocity": 94}, {"time": 2925, "pitch": 43, "duration": 20, "velocity": 94}, {"time": 2925, "pitch": 55, "duration": 4, "velocity": 93}, {"time": 2925, "pitch": 59, "duration": 6, "velocity": 93}, {"time": 2928, "pitch": 50, "duration": 10, "velocity": 87}, {"time": 2931, "pitch": 55, "duration": 4, "velocity": 89}, {"time": 2937, "pitch": 55, "duration": 3, "velocity": 95}, {"time": 2937, "pitch": 62, "duration": 7, "velocity": 97}, {"time": 2940, "pitch": 50, "duration": 5, "velocity": 89}, {"time": 2943, "pitch": 55, "duration": 4, "velocity": 89}, {"time": 2949, "pitch": 39, "duration": 3, "velocity": 100}, {"time": 2949, "pitch": 63, "duration": 5, "velocity": 90}, {"time": 2949, "pitch": 75, "duration": 5, "velocity": 87}, {"time": 2955, "pitch": 39, "duration": 1, "velocity": 93}, {"time": 2955, "pitch": 46, "duration": 1, "velocity": 87}, {"time": 2961, "pitch": 39, "duration": 1, "velocity": 99}, {"time": 2961, "pitch": 46, "duration": 1, "velocity": 94}, {"time": 2961, "pitch": 51, "duration": 2, "velocity": 93}, {"time": 2961, "pitch": 63, "duration": 2, "velocity": 84}, {"time": 2967, "pitch": 39, "duration": 2, "velocity": 99}, {"time": 2967, "pitch": 46, "duration": 2, "velocity": 94}, {"time": 2967, "pitch": 51, "duration": 4, "velocity": 94}, {"time": 2967, "pitch": 63, "duration": 4, "velocity": 91}, {"time": 2973, "pitch": 39, "duration": 3, "velocity": 109}, {"time": 2973, "pitch": 46, "duration": 4, "velocity": 104}, {"time": 2973, "pitch": 51, "duration": 4, "velocity": 96}, {"time": 2973, "pitch": 63, "duration": 4, "velocity": 93}, {"time": 2979, "pitch": 39, "duration": 3, "velocity": 95}, {"time": 2979, "pitch": 46, "duration": 3, "velocity": 92}, {"time": 2979, "pitch": 51, "duration": 4, "velocity": 94}, {"time": 2979, "pitch": 63, "duration": 4, "velocity": 94}, {"time": 2985, "pitch": 39, "duration": 4, "velocity": 99}, {"time": 2985, "pitch": 46, "duration": 4, "velocity": 95}, {"time": 2985, "pitch": 51, "duration": 4, "velocity": 94}, {"time": 2985, "pitch": 63, "duration": 4, "velocity": 93}, {"time": 2991, "pitch": 39, "duration": 5, "velocity": 100}, {"time": 2991, "pitch": 46, "duration": 5, "velocity": 95}, {"time": 2991, "pitch": 51, "duration": 5, "velocity": 94}, {"time": 2991, "pitch": 63, "duration": 5, "velocity": 92}, {"time": 2997, "pitch": 44, "duration": 20, "velocity": 94}, {"time": 2997, "pitch": 56, "duration": 3, "velocity": 91}, {"time": 2997, "pitch": 63, "duration": 5, "velocity": 93}, {"time": 3000, "pitch": 51, "duration": 16, "velocity": 90}, {"time": 3003, "pitch": 56, "duration": 4, "velocity": 93}, {"time": 3006, "pitch": 60, "duration": 1, "velocity": 95}, {"time": 3009, "pitch": 56, "duration": 1, "velocity": 76}, {"time": 3009, "pitch": 68, "duration": 4, "velocity": 98}, {"time": 3012, "pitch": 63, "duration": 4, "velocity": 94}, {"time": 3015, "pitch": 60, "duration": 3, "velocity": 94}, {"time": 3018, "pitch": 56, "duration": 1, "velocity": 97}, {"time": 3021, "pitch": 43, "duration": 19, "velocity": 97}, {"time": 3021, "pitch": 63, "duration": 5, "velocity": 93}, {"time": 3024, "pitch": 46, "duration": 13, "velocity": 88}, {"time": 3027, "pitch": 58, "duration": 5, "velocity": 94}, {"time": 3030, "pitch": 63, "duration": 2, "velocity": 87}, {"time": 3033, "pitch": 63, "duration": 1, "velocity": 88}, {"time": 3033, "pitch": 67, "duration": 9, "velocity": 98}, {"time": 3036, "pitch": 63, "duration": 3, "velocity": 89}, {"time": 3039, "pitch": 58, "duration": 4, "velocity": 93}, {"time": 3042, "pitch": 63, "duration": 2, "velocity": 88}, {"time": 3045, "pitch": 41, "duration": 18, "velocity": 96}, {"time": 3045, "pitch": 60, "duration": 3, "velocity": 93}, {"time": 3045, "pitch": 65, "duration": 6, "velocity": 94}, {"time": 3048, "pitch": 48, "duration": 10, "velocity": 90}, {"time": 3051, "pitch": 60, "duration": 4, "velocity": 94}, {"time": 3054, "pitch": 65, "duration": 1, "velocity": 90}, {"time": 3057, "pitch": 60, "duration": 3, "velocity": 96}, {"time": 3057, "pitch": 65, "duration": 6, "velocity": 96}, {"time": 3057, "pitch": 68, "duration": 7, "velocity": 95}, {"time": 3060, "pitch": 48, "duration": 3, "velocity": 90}, {"time": 3063, "pitch": 60, "duration": 2, "velocity": 96}, {"time": 3069, "pitch": 51, "duration": 16, "velocity": 104}, {"time": 3069, "pitch": 58, "duration": 2, "velocity": 93}, {"time": 3069, "pitch": 63, "duration": 3, "velocity": 94}, {"time": 3072, "pitch": 58, "duration": 3, "velocity": 89}, {"time": 3075, "pitch": 63, "duration": 3, "velocity": 91}, {"time": 3078, "pitch": 58, "duration": 2, "velocity": 83}, {"time": 3081, "pitch": 67, "duration": 6, "velocity": 104}, {"time": 3084, "pitch": 58, "duration": 2, "velocity": 93}, {"time": 3087, "pitch": 63, "duration": 3, "velocity": 94}, {"time": 3090, "pitch": 58, "duration": 1, "velocity": 92}, {"time": 3093, "pitch": 49, "duration": 10, "velocity": 98}, {"time": 3093, "pitch": 61, "duration": 2, "velocity": 87}, {"time": 3093, "pitch": 65, "duration": 6, "velocity": 89}, {"time": 3096, "pitch": 56, "duration": 7, "velocity": 84}, {"time": 3099, "pitch": 61, "duration": 4, "velocity": 93}, {"time": 3102, "pitch": 65, "duration": 1, "velocity": 86}, {"time": 3105, "pitch": 49, "duration": 7, "velocity": 97}, {"time": 3105, "pitch": 56, "duration": 6, "velocity": 92}, {"time": 3105, "pitch": 61, "duration": 2, "velocity": 90}, {"time": 3105, "pitch": 65, "duration": 2, "velocity": 94}, {"time": 3105, "pitch": 68, "duration": 4, "velocity": 93}, {"time": 3108, "pitch": 61, "duration": 3, "velocity": 89}, {"time": 3111, "pitch": 65, "duration": 5, "velocity": 93}, {"time": 3114, "pitch": 61, "duration": 2, "velocity": 81}, {"time": 3117, "pitch": 48, "duration": 19, "velocity": 94}, {"time": 3117, "pitch": 60, "duration": 2, "velocity": 91}, {"time": 3117, "pitch": 63, "duration": 3, "velocity": 89}, {"time": 3120, "pitch": 60, "duration": 2, "velocity": 87}, {"time": 3123, "pitch": 63, "duration": 2, "velocity": 83}, {"time": 3126, "pitch": 60, "duration": 1, "velocity": 90}, {"time": 3129, "pitch": 55, "duration": 4, "velocity": 93}, {"time": 3129, "pitch": 60, "duration": 2, "velocity": 93}, {"time": 3129, "pitch": 67, "duration": 6, "velocity": 95}, {"time": 3132, "pitch": 60, "duration": 2, "velocity": 93}, {"time": 3135, "pitch": 63, "duration": 3, "velocity": 93}, {"time": 3138, "pitch": 60, "duration": 2, "velocity": 90}, {"time": 3141, "pitch": 46, "duration": 21, "velocity": 93}, {"time": 3141, "pitch": 58, "duration": 3, "velocity": 93}, {"time": 3141, "pitch": 61, "duration": 4, "velocity": 90}, {"time": 3144, "pitch": 53, "duration": 13, "velocity": 80}, {"time": 3147, "pitch": 58, "duration": 5, "velocity": 93}, {"time": 3150, "pitch": 61, "duration": 2, "velocity": 94}, {"time": 3153, "pitch": 65, "duration": 4, "velocity": 102}, {"time": 3156, "pitch": 58, "duration": 3, "velocity": 94}, {"time": 3159, "pitch": 61, "duration": 2, "velocity": 94}, {"time": 3162, "pitch": 58, "duration": 1, "velocity": 90}, {"time": 3165, "pitch": 51, "duration": 18, "velocity": 98}, {"time": 3165, "pitch": 58, "duration": 2, "velocity": 93}, {"time": 3165, "pitch": 63, "duration": 3, "velocity": 94}, {"time": 3168, "pitch": 58, "duration": 3, "velocity": 87}, {"time": 3171, "pitch": 63, "duration": 3, "velocity": 87}, {"time": 3174, "pitch": 58, "duration": 1, "velocity": 93}, {"time": 3177, "pitch": 58, "duration": 1, "velocity": 95}, {"time": 3177, "pitch": 67, "duration": 4, "velocity": 98}, {"time": 3180, "pitch": 58, "duration": 2, "velocity": 94}, {"time": 3183, "pitch": 63, "duration": 2, "velocity": 93}, {"time": 3186, "pitch": 58, "duration": 1, "velocity": 93}, {"time": 3189, "pitch": 44, "duration": 21, "velocity": 93}, {"time": 3189, "pitch": 56, "duration": 3, "velocity": 93}, {"time": 3189, "pitch": 60, "duration": 4, "velocity": 94}, {"time": 3192, "pitch": 51, "duration": 18, "velocity": 87}, {"time": 3195, "pitch": 56, "duration": 4, "velocity": 93}, {"time": 3198, "pitch": 60, "duration": 2, "velocity": 88}, {"time": 3201, "pitch": 63, "duration": 4, "velocity": 104}, {"time": 3204, "pitch": 56, "duration": 3, "velocity": 91}, {"time": 3207, "pitch": 60, "duration": 2, "velocity": 93}, {"time": 3210, "pitch": 56, "duration": 1, "velocity": 82}, {"time": 3213, "pitch": 43, "duration": 18, "velocity": 94}, {"time": 3213, "pitch": 63, "duration": 4, "velocity": 93}, {"time": 3216, "pitch": 51, "duration": 14, "velocity": 86}, {"time": 3219, "pitch": 58, "duration": 4, "velocity": 96}, {"time": 3222, "pitch": 63, "duration": 2, "velocity": 95}, {"time": 3225, "pitch": 67, "duration": 4, "velocity": 109}, {"time": 3228, "pitch": 63, "duration": 2, "velocity": 95}, {"time": 3231, "pitch": 58, "duration": 3, "velocity": 95}, {"time": 3234, "pitch": 63, "duration": 1, "velocity": 90}, {"time": 3237, "pitch": 41, "duration": 18, "velocity": 96}, {"time": 3237, "pitch": 60, "duration": 3, "velocity": 93}, {"time": 3237, "pitch": 65, "duration": 6, "velocity": 96}, {"time": 3240, "pitch": 48, "duration": 14, "velocity": 87}, {"time": 3243, "pitch": 60, "duration": 4, "velocity": 94}, {"time": 3246, "pitch": 65, "duration": 1, "velocity": 95}, {"time": 3249, "pitch": 60, "duration": 3, "velocity": 94}, {"time": 3249, "pitch": 68, "duration": 4, "velocity": 93}, {"time": 3252, "pitch": 65, "duration": 3, "velocity": 95}, {"time": 3255, "pitch": 60, "duration": 4, "velocity": 93}, {"time": 3258, "pitch": 65, "duration": 2, "velocity": 92}, {"time": 3261, "pitch": 48, "duration": 20, "velocity": 95}, {"time": 3261, "pitch": 60, "duration": 1, "velocity": 91}, {"time": 3261, "pitch": 63, "duration": 3, "velocity": 93}, {"time": 3264, "pitch": 60, "duration": 4, "velocity": 87}, {"time": 3267, "pitch": 63, "duration": 3, "velocity": 95}, {"time": 3270, "pitch": 67, "duration": 7, "velocity": 100}, {"time": 3273, "pitch": 55, "duration": 5, "velocity": 94}, {"time": 3276, "pitch": 60, "duration": 4, "velocity": 95}, {"time": 3279, "pitch": 63, "duration": 4, "velocity": 95}, {"time": 3282, "pitch": 60, "duration": 1, "velocity": 89}, {"time": 3285, "pitch": 49, "duration": 10, "velocity": 97}, {"time": 3285, "pitch": 61, "duration": 3, "velocity": 93}, {"time": 3285, "pitch": 65, "duration": 6, "velocity": 95}, {"time": 3288, "pitch": 56, "duration": 7, "velocity": 78}, {"time": 3291, "pitch": 61, "duration": 4, "velocity": 93}, {"time": 3294, "pitch": 65, "duration": 1, "velocity": 96}, {"time": 3297, "pitch": 49, "duration": 7, "velocity": 94}, {"time": 3297, "pitch": 61, "duration": 3, "velocity": 95}, {"time": 3297, "pitch": 68, "duration": 7, "velocity": 94}, {"time": 3300, "pitch": 56, "duration": 3, "velocity": 93}, {"time": 3303, "pitch": 61, "duration": 4, "velocity": 95}, {"time": 3306, "pitch": 65, "duration": 2, "velocity": 94}, {"time": 3309, "pitch": 48, "duration": 20, "velocity": 93}, {"time": 3309, "pitch": 60, "duration": 2, "velocity": 93}, {"time": 3309, "pitch": 63, "duration": 6, "velocity": 87}, {"time": 3315, "pitch": 60, "duration": 4, "velocity": 93}, {"time": 3318, "pitch": 63, "duration": 6, "velocity": 90}, {"time": 3321, "pitch": 55, "duration": 5, "velocity": 87}, {"time": 3324, "pitch": 60, "duration": 6, "velocity": 94}, {"time": 3327, "pitch": 63, "duration": 3, "velocity": 92}, {"time": 3330, "pitch": 67, "duration": 2, "velocity": 95}, {"time": 3333, "pitch": 46, "duration": 7, "velocity": 94}, {"time": 3333, "pitch": 58, "duration": 3, "velocity": 93}, {"time": 3333, "pitch": 61, "duration": 5, "velocity": 96}, {"time": 3336, "pitch": 53, "duration": 3, "velocity": 94}, {"time": 3339, "pitch": 58, "duration": 4, "velocity": 93}, {"time": 3342, "pitch": 61, "duration": 2, "velocity": 93}, {"time": 3345, "pitch": 39, "duration": 5, "velocity": 97}, {"time": 3345, "pitch": 58, "duration": 3, "velocity": 93}, {"time": 3345, "pitch": 63, "duration": 5, "velocity": 93}, {"time": 3348, "pitch": 46, "duration": 2, "velocity": 90}, {"time": 3351, "pitch": 58, "duration": 3, "velocity": 94}, {"time": 3354, "pitch": 63, "duration": 1, "velocity": 94}, {"time": 3357, "pitch": 44, "duration": 20, "velocity": 94}, {"time": 3357, "pitch": 56, "duration": 4, "velocity": 93}, {"time": 3357, "pitch": 60, "duration": 6, "velocity": 93}, {"time": 3360, "pitch": 51, "duration": 10, "velocity": 87}, {"time": 3363, "pitch": 56, "duration": 4, "velocity": 89}, {"time": 3369, "pitch": 56, "duration": 3, "velocity": 95}, {"time": 3369, "pitch": 63, "duration": 7, "velocity": 97}, {"time": 3372, "pitch": 51, "duration": 5, "velocity": 89}, {"time": 3375, "pitch": 56, "duration": 4, "velocity": 89}, {"time": 3381, "pitch": 44, "duration": 15, "velocity": 95}, {"time": 3381, "pitch": 56, "duration": 11, "velocity": 78}, {"time": 3381, "pitch": 60, "duration": 8, "velocity": 91}, {"time": 3381, "pitch": 63, "duration": 8, "velocity": 87}, {"time": 3381, "pitch": 68, "duration": 8, "velocity": 88}, {"time": 3387, "pitch": 51, "duration": 11, "velocity": 77}, {"time": 3393, "pitch": 56, "duration": 10, "velocity": 83}, {"time": 3393, "pitch": 60, "duration": 10, "velocity": 94}, {"time": 3393, "pitch": 63, "duration": 11, "velocity": 87}, {"time": 3405, "pitch": 49, "duration": 14, "velocity": 87}, {"time": 3405, "pitch": 61, "duration": 8, "velocity": 77}, {"time": 3405, "pitch": 65, "duration": 13, "velocity": 85}, {"time": 3405, "pitch": 68, "duration": 13, "velocity": 77}, {"time": 3411, "pitch": 56, "duration": 9, "velocity": 71}, {"time": 3417, "pitch": 61, "duration": 3, "velocity": 78}, {"time": 3429, "pitch": 48, "duration": 15, "velocity": 88}, {"time": 3429, "pitch": 60, "duration": 12, "velocity": 81}, {"time": 3435, "pitch": 55, "duration": 9, "velocity": 87}, {"time": 3441, "pitch": 63, "duration": 12, "velocity": 80}, {"time": 3441, "pitch": 67, "duration": 14, "velocity": 85}, {"time": 3447, "pitch": 60, "duration": 5, "velocity": 66}, {"time": 3454, "pitch": 46, "duration": 44, "velocity": 93}, {"time": 3457, "pitch": 53, "duration": 41, "velocity": 85}, {"time": 3461, "pitch": 58, "duration": 37, "velocity": 63}, {"time": 3463, "pitch": 61, "duration": 35, "velocity": 68}, {"time": 3501, "pitch": 44, "duration": 16, "velocity": 95}, {"time": 3501, "pitch": 56, "duration": 3, "velocity": 92}, {"time": 3501, "pitch": 63, "duration": 4, "velocity": 90}, {"time": 3504, "pitch": 51, "duration": 10, "velocity": 81}, {"time": 3507, "pitch": 56, "duration": 4, "velocity": 93}, {"time": 3510, "pitch": 60, "duration": 1, "velocity": 92}, {"time": 3513, "pitch": 56, "duration": 3, "velocity": 99}, {"time": 3513, "pitch": 60, "duration": 3, "velocity": 102}, {"time": 3513, "pitch": 63, "duration": 4, "velocity": 97}, {"time": 3516, "pitch": 51, "duration": 2, "velocity": 91}, {"time": 3519, "pitch": 44, "duration": 2, "velocity": 93}, {"time": 3525, "pitch": 43, "duration": 16, "velocity": 91}, {"time": 3525, "pitch": 58, "duration": 2, "velocity": 91}, {"time": 3525, "pitch": 63, "duration": 4, "velocity": 94}, {"time": 3525, "pitch": 67, "duration": 7, "velocity": 93}, {"time": 3528, "pitch": 51, "duration": 12, "velocity": 82}, {"time": 3531, "pitch": 58, "duration": 4, "velocity": 94}, {"time": 3534, "pitch": 63, "duration": 1, "velocity": 89}, {"time": 3537, "pitch": 58, "duration": 6, "velocity": 94}, {"time": 3537, "pitch": 63, "duration": 7, "velocity": 98}, {"time": 3537, "pitch": 67, "duration": 8, "velocity": 98}, {"time": 3543, "pitch": 43, "duration": 2, "velocity": 94}, {"time": 3549, "pitch": 41, "duration": 16, "velocity": 95}, {"time": 3549, "pitch": 60, "duration": 3, "velocity": 93}, {"time": 3549, "pitch": 65, "duration": 5, "velocity": 95}, {"time": 3552, "pitch": 48, "duration": 10, "velocity": 84}, {"time": 3555, "pitch": 60, "duration": 4, "velocity": 89}, {"time": 3558, "pitch": 65, "duration": 1, "velocity": 89}, {"time": 3561, "pitch": 60, "duration": 3, "velocity": 98}, {"time": 3561, "pitch": 65, "duration": 4, "velocity": 100}, {"time": 3561, "pitch": 68, "duration": 6, "velocity": 94}, {"time": 3564, "pitch": 48, "duration": 2, "velocity": 93}, {"time": 3567, "pitch": 60, "duration": 2, "velocity": 94}, {"time": 3573, "pitch": 48, "duration": 16, "velocity": 95}, {"time": 3573, "pitch": 60, "duration": 5, "velocity": 93}, {"time": 3573, "pitch": 63, "duration": 7, "velocity": 94}, {"time": 3579, "pitch": 55, "duration": 7, "velocity": 83}, {"time": 3582, "pitch": 60, "duration": 1, "velocity": 92}, {"time": 3585, "pitch": 60, "duration": 3, "velocity": 100}, {"time": 3585, "pitch": 67, "duration": 7, "velocity": 94}, {"time": 3588, "pitch": 55, "duration": 2, "velocity": 91}, {"time": 3591, "pitch": 60, "duration": 1, "velocity": 94}, {"time": 3597, "pitch": 49, "duration": 15, "velocity": 98}, {"time": 3597, "pitch": 61, "duration": 3, "velocity": 90}, {"time": 3597, "pitch": 65, "duration": 4, "velocity": 94}, {"time": 3600, "pitch": 56, "duration": 11, "velocity": 87}, {"time": 3603, "pitch": 61, "duration": 3, "velocity": 89}, {"time": 3609, "pitch": 61, "duration": 7, "velocity": 98}, {"time": 3609, "pitch": 65, "duration": 6, "velocity": 104}, {"time": 3615, "pitch": 56, "duration": 1, "velocity": 93}, {"time": 3621, "pitch": 48, "duration": 16, "velocity": 94}, {"time": 3621, "pitch": 60, "duration": 4, "velocity": 88}, {"time": 3621, "pitch": 63, "duration": 5, "velocity": 93}, {"time": 3621, "pitch": 67, "duration": 7, "velocity": 85}, {"time": 3624, "pitch": 55, "duration": 10, "velocity": 84}, {"time": 3627, "pitch": 60, "duration": 4, "velocity": 89}, {"time": 3630, "pitch": 63, "duration": 1, "velocity": 82}, {"time": 3633, "pitch": 60, "duration": 4, "velocity": 95}, {"time": 3633, "pitch": 63, "duration": 6, "velocity": 96}, {"time": 3633, "pitch": 67, "duration": 7, "velocity": 95}, {"time": 3636, "pitch": 55, "duration": 2, "velocity": 87}, {"time": 3639, "pitch": 48, "duration": 4, "velocity": 95}, {"time": 3645, "pitch": 46, "duration": 17, "velocity": 94}, {"time": 3645, "pitch": 58, "duration": 9, "velocity": 88}, {"time": 3645, "pitch": 61, "duration": 9, "velocity": 91}, {"time": 3645, "pitch": 65, "duration": 9, "velocity": 96}, {"time": 3651, "pitch": 53, "duration": 8, "velocity": 87}, {"time": 3657, "pitch": 58, "duration": 4, "velocity": 94}, {"time": 3657, "pitch": 61, "duration": 4, "velocity": 98}, {"time": 3657, "pitch": 65, "duration": 4, "velocity": 98}, {"time": 3663, "pitch": 61, "duration": 5, "velocity": 97}, {"time": 3669, "pitch": 39, "duration": 1, "velocity": 98}, {"time": 3669, "pitch": 58, "duration": 4, "velocity": 88}, {"time": 3669, "pitch": 63, "duration": 5, "velocity": 92}, {"time": 3675, "pitch": 51, "duration": 17, "velocity": 94}, {"time": 3681, "pitch": 58, "duration": 10, "velocity": 94}, {"time": 3681, "pitch": 63, "duration": 11, "velocity": 95}, {"time": 3681, "pitch": 67, "duration": 11, "velocity": 96}, {"time": 3687, "pitch": 55, "duration": 5, "velocity": 93}, {"time": 3693, "pitch": 44, "duration": 16, "velocity": 95}, {"time": 3693, "pitch": 56, "duration": 3, "velocity": 92}, {"time": 3693, "pitch": 63, "duration": 4, "velocity": 90}, {"time": 3696, "pitch": 51, "duration": 10, "velocity": 81}, {"time": 3699, "pitch": 56, "duration": 4, "velocity": 93}, {"time": 3702, "pitch": 60, "duration": 1, "velocity": 92}, {"time": 3705, "pitch": 56, "duration": 3, "velocity": 99}, {"time": 3705, "pitch": 60, "duration": 3, "velocity": 102}, {"time": 3705, "pitch": 63, "duration": 4, "velocity": 97}, {"time": 3708, "pitch": 51, "duration": 2, "velocity": 91}, {"time": 3711, "pitch": 44, "duration": 2, "velocity": 93}, {"time": 3717, "pitch": 43, "duration": 16, "velocity": 91}, {"time": 3717, "pitch": 58, "duration": 2, "velocity": 91}, {"time": 3717, "pitch": 63, "duration": 4, "velocity": 94}, {"time": 3717, "pitch": 67, "duration": 7, "velocity": 93}, {"time": 3720, "pitch": 51, "duration": 12, "velocity": 82}, {"time": 3723, "pitch": 58, "duration": 4, "velocity": 94}, {"time": 3726, "pitch": 63, "duration": 1, "velocity": 89}, {"time": 3729, "pitch": 58, "duration": 6, "velocity": 94}, {"time": 3729, "pitch": 63, "duration": 7, "velocity": 98}, {"time": 3729, "pitch": 67, "duration": 8, "velocity": 98}, {"time": 3735, "pitch": 43, "duration": 2, "velocity": 94}, {"time": 3741, "pitch": 41, "duration": 16, "velocity": 95}, {"time": 3741, "pitch": 60, "duration": 3, "velocity": 93}, {"time": 3741, "pitch": 65, "duration": 5, "velocity": 95}, {"time": 3744, "pitch": 48, "duration": 10, "velocity": 84}, {"time": 3747, "pitch": 60, "duration": 4, "velocity": 89}, {"time": 3750, "pitch": 65, "duration": 1, "velocity": 89}, {"time": 3753, "pitch": 60, "duration": 3, "velocity": 98}, {"time": 3753, "pitch": 65, "duration": 4, "velocity": 100}, {"time": 3753, "pitch": 68, "duration": 6, "velocity": 94}, {"time": 3756, "pitch": 48, "duration": 2, "velocity": 93}, {"time": 3759, "pitch": 60, "duration": 2, "velocity": 94}, {"time": 3765, "pitch": 48, "duration": 16, "velocity": 95}, {"time": 3765, "pitch": 60, "duration": 5, "velocity": 93}, {"time": 3765, "pitch": 63, "duration": 7, "velocity": 94}, {"time": 3771, "pitch": 55, "duration": 7, "velocity": 83}, {"time": 3774, "pitch": 60, "duration": 1, "velocity": 92}, {"time": 3777, "pitch": 60, "duration": 3, "velocity": 100}, {"time": 3777, "pitch": 67, "duration": 7, "velocity": 94}, {"time": 3780, "pitch": 55, "duration": 2, "velocity": 91}, {"time": 3783, "pitch": 60, "duration": 1, "velocity": 94}, {"time": 3789, "pitch": 49, "duration": 15, "velocity": 98}, {"time": 3789, "pitch": 61, "duration": 3, "velocity": 90}, {"time": 3789, "pitch": 65, "duration": 4, "velocity": 94}, {"time": 3792, "pitch": 56, "duration": 11, "velocity": 87}, {"time": 3795, "pitch": 61, "duration": 3, "velocity": 89}, {"time": 3801, "pitch": 61, "duration": 7, "velocity": 98}, {"time": 3801, "pitch": 65, "duration": 6, "velocity": 104}, {"time": 3807, "pitch": 56, "duration": 1, "velocity": 93}, {"time": 3813, "pitch": 48, "duration": 16, "velocity": 94}, {"time": 3813, "pitch": 60, "duration": 4, "velocity": 88}, {"time": 3813, "pitch": 63, "duration": 5, "velocity": 93}, {"time": 3813, "pitch": 67, "duration": 7, "velocity": 85}, {"time": 3816, "pitch": 55, "duration": 10, "velocity": 84}, {"time": 3819, "pitch": 60, "duration": 4, "velocity": 89}, {"time": 3822, "pitch": 63, "duration": 1, "velocity": 82}, {"time": 3825, "pitch": 60, "duration": 4, "velocity": 95}, {"time": 3825, "pitch": 63, "duration": 6, "velocity": 96}, {"time": 3825, "pitch": 67, "duration": 7, "velocity": 95}, {"time": 3828, "pitch": 55, "duration": 2, "velocity": 87}, {"time": 3831, "pitch": 48, "duration": 4, "velocity": 95}, {"time": 3837, "pitch": 46, "duration": 11, "velocity": 94}, {"time": 3837, "pitch": 58, "duration": 4, "velocity": 87}, {"time": 3837, "pitch": 61, "duration": 5, "velocity": 93}, {"time": 3837, "pitch": 65, "duration": 5, "velocity": 94}, {"time": 3840, "pitch": 53, "duration": 7, "velocity": 83}, {"time": 3843, "pitch": 58, "duration": 4, "velocity": 93}, {"time": 3849, "pitch": 51, "duration": 6, "velocity": 98}, {"time": 3849, "pitch": 58, "duration": 3, "velocity": 94}, {"time": 3849, "pitch": 63, "duration": 6, "velocity": 94}, {"time": 3849, "pitch": 67, "duration": 6, "velocity": 86}, {"time": 3855, "pitch": 58, "duration": 2, "velocity": 93}, {"time": 3861, "pitch": 44, "duration": 19, "velocity": 99}, {"time": 3861, "pitch": 56, "duration": 6, "velocity": 89}, {"time": 3861, "pitch": 60, "duration": 7, "velocity": 88}, {"time": 3861, "pitch": 63, "duration": 7, "velocity": 85}, {"time": 3861, "pitch": 68, "duration": 7, "velocity": 89}, {"time": 3867, "pitch": 51, "duration": 7, "velocity": 80}, {"time": 3870, "pitch": 56, "duration": 1, "velocity": 85}, {"time": 3873, "pitch": 56, "duration": 4, "velocity": 94}, {"time": 3873, "pitch": 60, "duration": 4, "velocity": 93}, {"time": 3873, "pitch": 63, "duration": 4, "velocity": 87}, {"time": 3873, "pitch": 68, "duration": 5, "velocity": 93}, {"time": 3876, "pitch": 51, "duration": 5, "velocity": 82}, {"time": 3879, "pitch": 56, "duration": 4, "velocity": 90}, {"time": 3882, "pitch": 60, "duration": 2, "velocity": 88}, {"time": 3885, "pitch": 44, "duration": 15, "velocity": 104}, {"time": 3885, "pitch": 56, "duration": 6, "velocity": 87}, {"time": 3885, "pitch": 60, "duration": 7, "velocity": 95}, {"time": 3885, "pitch": 63, "duration": 6, "velocity": 84}, {"time": 3885, "pitch": 68, "duration": 7, "velocity": 89}, {"time": 3891, "pitch": 51, "duration": 8, "velocity": 89}, {"time": 3894, "pitch": 56, "duration": 1, "velocity": 85}, {"time": 3897, "pitch": 56, "duration": 7, "velocity": 94}, {"time": 3897, "pitch": 60, "duration": 7, "velocity": 99}, {"time": 3897, "pitch": 63, "duration": 6, "velocity": 95}, {"time": 3897, "pitch": 68, "duration": 7, "velocity": 93}, {"time": 3903, "pitch": 51, "duration": 4, "velocity": 89}, {"time": 3909, "pitch": 39, "duration": 20, "velocity": 98}, {"time": 3909, "pitch": 63, "duration": 6, "velocity": 94}, {"time": 3909, "pitch": 67, "duration": 6, "velocity": 89}, {"time": 3912, "pitch": 46, "duration": 10, "velocity": 86}, {"time": 3915, "pitch": 58, "duration": 4, "velocity": 86}, {"time": 3918, "pitch": 63, "duration": 1, "velocity": 83}, {"time": 3921, "pitch": 58, "duration": 6, "velocity": 95}, {"time": 3921, "pitch": 63, "duration": 7, "velocity": 96}, {"time": 3921, "pitch": 67, "duration": 10, "velocity": 94}, {"time": 3927, "pitch": 46, "duration": 4, "velocity": 94}, {"time": 3930, "pitch": 58, "duration": 1, "velocity": 89}, {"time": 3933, "pitch": 41, "duration": 19, "velocity": 96}, {"time": 3933, "pitch": 60, "duration": 4, "velocity": 93}, {"time": 3933, "pitch": 65, "duration": 6, "velocity": 94}, {"time": 3936, "pitch": 48, "duration": 10, "velocity": 89}, {"time": 3939, "pitch": 60, "duration": 4, "velocity": 87}, {"time": 3942, "pitch": 65, "duration": 1, "velocity": 88}, {"time": 3945, "pitch": 60, "duration": 6, "velocity": 95}, {"time": 3945, "pitch": 65, "duration": 6, "velocity": 100}, {"time": 3945, "pitch": 68, "duration": 7, "velocity": 95}, {"time": 3951, "pitch": 48, "duration": 1, "velocity": 93}, {"time": 3957, "pitch": 48, "duration": 17, "velocity": 98}, {"time": 3957, "pitch": 60, "duration": 5, "velocity": 89}, {"time": 3957, "pitch": 67, "duration": 8, "velocity": 86}, {"time": 3963, "pitch": 55, "duration": 6, "velocity": 94}, {"time": 3966, "pitch": 60, "duration": 1, "velocity": 91}, {"time": 3969, "pitch": 60, "duration": 3, "velocity": 97}, {"time": 3969, "pitch": 63, "duration": 4, "velocity": 97}, {"time": 3969, "pitch": 67, "duration": 9, "velocity": 98}, {"time": 3972, "pitch": 55, "duration": 2, "velocity": 93}, {"time": 3975, "pitch": 60, "duration": 4, "velocity": 94}, {"time": 3978, "pitch": 63, "duration": 2, "velocity": 89}, {"time": 3981, "pitch": 49, "duration": 15, "velocity": 96}, {"time": 3981, "pitch": 61, "duration": 8, "velocity": 91}, {"time": 3981, "pitch": 65, "duration": 7, "velocity": 94}, {"time": 3987, "pitch": 56, "duration": 8, "velocity": 87}, {"time": 3993, "pitch": 61, "duration": 5, "velocity": 94}, {"time": 3993, "pitch": 65, "duration": 4, "velocity": 98}, {"time": 3993, "pitch": 68, "duration": 5, "velocity": 93}, {"time": 3999, "pitch": 49, "duration": 3, "velocity": 95}, {"time": 4005, "pitch": 48, "duration": 15, "velocity": 95}, {"time": 4005, "pitch": 60, "duration": 9, "velocity": 90}, {"time": 4005, "pitch": 63, "duration": 9, "velocity": 87}, {"time": 4005, "pitch": 67, "duration": 9, "velocity": 85}, {"time": 4011, "pitch": 55, "duration": 9, "velocity": 79}, {"time": 4017, "pitch": 60, "duration": 6, "velocity": 95}, {"time": 4017, "pitch": 63, "duration": 6, "velocity": 95}, {"time": 4017, "pitch": 67, "duration": 6, "velocity": 94}, {"time": 4023, "pitch": 48, "duration": 2, "velocity": 95}, {"time": 4029, "pitch": 39, "duration": 1, "velocity": 93}, {"time": 4029, "pitch": 58, "duration": 4, "velocity": 87}, {"time": 4029, "pitch": 63, "duration": 5, "velocity": 93}, {"time": 4029, "pitch": 67, "duration": 6, "velocity": 84}, {"time": 4035, "pitch": 51, "duration": 16, "velocity": 90}, {"time": 4041, "pitch": 58, "duration": 10, "velocity": 97}, {"time": 4044, "pitch": 63, "duration": 7, "velocity": 93}, {"time": 4047, "pitch": 67, "duration": 4, "velocity": 93}, {"time": 4050, "pitch": 70, "duration": 2, "velocity": 85}, {"time": 4053, "pitch": 51, "duration": 15, "velocity": 96}, {"time": 4053, "pitch": 63, "duration": 8, "velocity": 89}, {"time": 4053, "pitch": 67, "duration": 8, "velocity": 87}, {"time": 4053, "pitch": 70, "duration": 7, "velocity": 94}, {"time": 4053, "pitch": 75, "duration": 6, "velocity": 94}, {"time": 4059, "pitch": 58, "duration": 8, "velocity": 85}, {"time": 4065, "pitch": 63, "duration": 2, "velocity": 93}, {"time": 4065, "pitch": 67, "duration": 5, "velocity": 93}, {"time": 4065, "pitch": 70, "duration": 11, "velocity": 93}, {"time": 4071, "pitch": 63, "duration": 3, "velocity": 76}, {"time": 4077, "pitch": 44, "duration": 9, "velocity": 93}, {"time": 4077, "pitch": 63, "duration": 3, "velocity": 85}, {"time": 4077, "pitch": 68, "duration": 2, "velocity": 87}, {"time": 4083, "pitch": 51, "duration": 2, "velocity": 75}, {"time": 4089, "pitch": 60, "duration": 3, "velocity": 86}, {"time": 4089, "pitch": 63, "duration": 4, "velocity": 90}, {"time": 4094, "pitch": 56, "duration": 4, "velocity": 86}, {"time": 4100, "pitch": 60, "duration": 3, "velocity": 84}, {"time": 4100, "pitch": 63, "duration": 4, "velocity": 88}, {"time": 4106, "pitch": 56, "duration": 6, "velocity": 81}, {"time": 4112, "pitch": 68, "duration": 5, "velocity": 89}, {"time": 4112, "pitch": 63, "duration": 3, "velocity": 83}, {"time": 4112, "pitch": 60, "duration": 2, "velocity": 74}, {"time": 4118, "pitch": 56, "duration": 3, "velocity": 82}, {"time": 4124, "pitch": 44, "duration": 31, "velocity": 88}, {"time": 4126, "pitch": 56, "duration": 36, "velocity": 81}, {"time": 4127, "pitch": 51, "duration": 28, "velocity": 79}, {"time": 4127, "pitch": 60, "duration": 35, "velocity": 82}, {"time": 4128, "pitch": 63, "duration": 34, "velocity": 79}, {"time": 4129, "pitch": 68, "duration": 34, "velocity": 74}], "annotations": [{"time": 117, "annotation": {"number": 64, "value": 127}, "group": "control_change"}, {"time": 117, "annotation": {"number": 64, "value": 0}, "group": "control_change"}, {"time": 118, "annotation": {"number": 64, "value": 0}, "group": "control_change"}, {"time": 118, "annotation": {"number": 64, "value": 127}, "group": "control_change"}, {"time": 140, "annotation": {"number": 64, "value": 0}, "group": "control_change"}, {"time": 143, "annotation": {"number": 64, "value": 127}, "group": "control_change"}, {"time": 164, "annotation": {"number": 64, "value": 0}, "group": "control_change"}, {"time": 167, "annotation": {"number": 64, "value": 127}, "group": "control_change"}, {"time": 187, "annotation": {"number": 64, "value": 0}, "group": "control_change"}, {"time": 190, "annotation": {"number": 64, "value": 127}, "group": "control_change"}, {"time": 213, "annotation": {"number": 64, "value": 0}, "group": "control_change"}, {"time": 218, "annotation": {"number": 64, "value": 127}, "group": "control_change"}, {"time": 218, "annotation": {"number": 64, "value": 0}, "group": "control_change"}, {"time": 236, "annotation": {"number": 64, "value": 0}, "group": "control_change"}, {"time": 239, "annotation": {"number": 64, "value": 127}, "group": "control_change"}, {"time": 260, "annotation": {"number": 64, "value": 0}, "group": "control_change"}, {"time": 263, "annotation": {"number": 64, "value": 127}, "group": "control_change"}, {"time": 283, "annotation": {"number": 64, "value": 0}, "group": "control_change"}, {"time": 286, "annotation": {"number": 64, "value": 127}, "group": "control_change"}, {"time": 306, "annotation": {"number": 64, "value": 0}, "group": "control_change"}, {"time": 309, "annotation": {"number": 64, "value": 127}, "group": "control_change"}, {"time": 309, "annotation": {"number": 64, "value": 0}, "group": "control_change"}, {"time": 331, "annotation": {"number": 64, "value": 0}, "group": "control_change"}, {"time": 333, "annotation": {"number": 64, "value": 127}, "group": "control_change"}, {"time": 355, "annotation": {"number": 64, "value": 0}, "group": "control_change"}, {"time": 357, "annotation": {"number": 64, "value": 127}, "group": "control_change"}, {"time": 379, "annotation": {"number": 64, "value": 0}, "group": "control_change"}, {"time": 381, "annotation": {"number": 64, "value": 127}, "group": "control_change"}, {"time": 404, "annotation": {"number": 64, "value": 0}, "group": "control_change"}, {"time": 406, "annotation": {"number": 64, "value": 127}, "group": "control_change"}, {"time": 428, "annotation": {"number": 64, "value": 0}, "group": "control_change"}, {"time": 429, "annotation": {"number": 64, "value": 127}, "group": "control_change"}, {"time": 452, "annotation": {"number": 64, "value": 0}, "group": "control_change"}, {"time": 452, "annotation": {"number": 64, "value": 127}, "group": "control_change"}, {"time": 463, "annotation": {"number": 64, "value": 0}, "group": "control_change"}, {"time": 465, "annotation": {"number": 64, "value": 127}, "group": "control_change"}, {"time": 476, "annotation": {"number": 64, "value": 0}, "group": "control_change"}, {"time": 481, "annotation": {"number": 64, "value": 127}, "group": "control_change"}, {"time": 545, "annotation": {"number": 64, "value": 0}, "group": "control_change"}, {"time": 549, "annotation": {"number": 64, "value": 127}, "group": "control_change"}, {"time": 572, "annotation": {"number": 64, "value": 0}, "group": "control_change"}, {"time": 575, "annotation": {"number": 64, "value": 127}, "group": "control_change"}, {"time": 595, "annotation": {"number": 64, "value": 0}, "group": "control_change"}, {"time": 602, "annotation": {"number": 64, "value": 127}, "group": "control_change"}, {"time": 620, "annotation": {"number": 64, "value": 0}, "group": "control_change"}, {"time": 623, "annotation": {"number": 64, "value": 127}, "group": "control_change"}, {"time": 644, "annotation": {"number": 64, "value": 0}, "group": "control_change"}, {"time": 646, "annotation": {"number": 64, "value": 127}, "group": "control_change"}, {"time": 668, "annotation": {"number": 64, "value": 0}, "group": "control_change"}, {"time": 672, "annotation": {"number": 64, "value": 127}, "group": "control_change"}, {"time": 691, "annotation": {"number": 64, "value": 0}, "group": "control_change"}, {"time": 692, "annotation": {"number": 64, "value": 127}, "group": "control_change"}, {"time": 716, "annotation": {"number": 64, "value": 0}, "group": "control_change"}, {"time": 719, "annotation": {"number": 64, "value": 127}, "group": "control_change"}, {"time": 738, "annotation": {"number": 64, "value": 0}, "group": "control_change"}, {"time": 741, "annotation": {"number": 64, "value": 127}, "group": "control_change"}, {"time": 764, "annotation": {"number": 64, "value": 0}, "group": "control_change"}, {"time": 767, "annotation": {"number": 64, "value": 127}, "group": "control_change"}, {"time": 787, "annotation": {"number": 64, "value": 0}, "group": "control_change"}, {"time": 794, "annotation": {"number": 64, "value": 127}, "group": "control_change"}, {"time": 812, "annotation": {"number": 64, "value": 0}, "group": "control_change"}, {"time": 815, "annotation": {"number": 64, "value": 127}, "group": "control_change"}, {"time": 836, "annotation": {"number": 64, "value": 0}, "group": "control_change"}, {"time": 838, "annotation": {"number": 64, "value": 127}, "group": "control_change"}, {"time": 860, "annotation": {"number": 64, "value": 127}, "group": "control_change"}, {"time": 860, "annotation": {"number": 64, "value": 0}, "group": "control_change"}, {"time": 871, "annotation": {"number": 64, "value": 0}, "group": "control_change"}, {"time": 873, "annotation": {"number": 64, "value": 127}, "group": "control_change"}, {"time": 883, "annotation": {"number": 64, "value": 0}, "group": "control_change"}, {"time": 887, "annotation": {"number": 64, "value": 127}, "group": "control_change"}, {"time": 907, "annotation": {"number": 64, "value": 0}, "group": "control_change"}, {"time": 909, "annotation": {"number": 64, "value": 127}, "group": "control_change"}, {"time": 929, "annotation": {"number": 64, "value": 0}, "group": "control_change"}, {"time": 937, "annotation": {"number": 64, "value": 127}, "group": "control_change"}, {"time": 955, "annotation": {"number": 64, "value": 0}, "group": "control_change"}, {"time": 957, "annotation": {"number": 64, "value": 127}, "group": "control_change"}, {"time": 978, "annotation": {"number": 64, "value": 0}, "group": "control_change"}, {"time": 981, "annotation": {"number": 64, "value": 127}, "group": "control_change"}, {"time": 1003, "annotation": {"number": 64, "value": 0}, "group": "control_change"}, {"time": 1006, "annotation": {"number": 64, "value": 127}, "group": "control_change"}, {"time": 1027, "annotation": {"number": 64, "value": 0}, "group": "control_change"}, {"time": 1034, "annotation": {"number": 64, "value": 127}, "group": "control_change"}, {"time": 1051, "annotation": {"number": 64, "value": 0}, "group": "control_change"}, {"time": 1053, "annotation": {"number": 64, "value": 127}, "group": "control_change"}, {"time": 1076, "annotation": {"number": 64, "value": 0}, "group": "control_change"}, {"time": 1079, "annotation": {"number": 64, "value": 127}, "group": "control_change"}, {"time": 1099, "annotation": {"number": 64, "value": 0}, "group": "control_change"}, {"time": 1101, "annotation": {"number": 64, "value": 127}, "group": "control_change"}, {"time": 1123, "annotation": {"number": 64, "value": 0}, "group": "control_change"}, {"time": 1129, "annotation": {"number": 64, "value": 127}, "group": "control_change"}, {"time": 1149, "annotation": {"number": 64, "value": 0}, "group": "control_change"}, {"time": 1151, "annotation": {"number": 64, "value": 127}, "group": "control_change"}, {"time": 1171, "annotation": {"number": 64, "value": 0}, "group": "control_change"}, {"time": 1174, "annotation": {"number": 64, "value": 127}, "group": "control_change"}, {"time": 1194, "annotation": {"number": 64, "value": 0}, "group": "control_change"}, {"time": 1196, "annotation": {"number": 64, "value": 127}, "group": "control_change"}, {"time": 1219, "annotation": {"number": 64, "value": 0}, "group": "control_change"}, {"time": 1221, "annotation": {"number": 64, "value": 127}, "group": "control_change"}, {"time": 1243, "annotation": {"number": 64, "value": 0}, "group": "control_change"}, {"time": 1245, "annotation": {"number": 64, "value": 127}, "group": "control_change"}, {"time": 1267, "annotation": {"number": 64, "value": 0}, "group": "control_change"}, {"time": 1270, "annotation": {"number": 64, "value": 127}, "group": "control_change"}, {"time": 1279, "annotation": {"number": 64, "value": 0}, "group": "control_change"}, {"time": 1281, "annotation": {"number": 64, "value": 127}, "group": "control_change"}, {"time": 1291, "annotation": {"number": 64, "value": 0}, "group": "control_change"}, {"time": 1293, "annotation": {"number": 64, "value": 127}, "group": "control_change"}, {"time": 1293, "annotation": {"number": 64, "value": 0}, "group": "control_change"}, {"time": 1336, "annotation": {"number": 64, "value": 0}, "group": "control_change"}, {"time": 1363, "annotation": {"number": 64, "value": 0}, "group": "control_change"}, {"time": 1366, "annotation": {"number": 64, "value": 127}, "group": "control_change"}, {"time": 1387, "annotation": {"number": 64, "value": 0}, "group": "control_change"}, {"time": 1389, "annotation": {"number": 64, "value": 127}, "group": "control_change"}, {"time": 1436, "annotation": {"number": 64, "value": 0}, "group": "control_change"}, {"time": 1438, "annotation": {"number": 64, "value": 127}, "group": "control_change"}, {"time": 1459, "annotation": {"number": 64, "value": 0}, "group": "control_change"}, {"time": 1462, "annotation": {"number": 64, "value": 127}, "group": "control_change"}, {"time": 1483, "annotation": {"number": 64, "value": 0}, "group": "control_change"}, {"time": 1485, "annotation": {"number": 64, "value": 127}, "group": "control_change"}, {"time": 1531, "annotation": {"number": 64, "value": 0}, "group": "control_change"}, {"time": 1533, "annotation": {"number": 64, "value": 127}, "group": "control_change"}, {"time": 1578, "annotation": {"number": 64, "value": 0}, "group": "control_change"}, {"time": 1580, "annotation": {"number": 64, "value": 127}, "group": "control_change"}, {"time": 1627, "annotation": {"number": 64, "value": 0}, "group": "control_change"}, {"time": 1629, "annotation": {"number": 64, "value": 127}, "group": "control_change"}, {"time": 1675, "annotation": {"number": 64, "value": 0}, "group": "control_change"}, {"time": 1677, "annotation": {"number": 64, "value": 127}, "group": "control_change"}, {"time": 1724, "annotation": {"number": 64, "value": 0}, "group": "control_change"}, {"time": 1725, "annotation": {"number": 64, "value": 127}, "group": "control_change"}, {"time": 1773, "annotation": {"number": 64, "value": 127}, "group": "control_change"}, {"time": 1796, "annotation": {"number": 64, "value": 0}, "group": "control_change"}, {"time": 1799, "annotation": {"number": 64, "value": 127}, "group": "control_change"}, {"time": 1819, "annotation": {"number": 64, "value": 0}, "group": "control_change"}, {"time": 1826, "annotation": {"number": 64, "value": 127}, "group": "control_change"}, {"time": 1844, "annotation": {"number": 64, "value": 0}, "group": "control_change"}, {"time": 1847, "annotation": {"number": 64, "value": 127}, "group": "control_change"}, {"time": 1868, "annotation": {"number": 64, "value": 0}, "group": "control_change"}, {"time": 1870, "annotation": {"number": 64, "value": 127}, "group": "control_change"}, {"time": 1892, "annotation": {"number": 64, "value": 0}, "group": "control_change"}, {"time": 1896, "annotation": {"number": 64, "value": 127}, "group": "control_change"}, {"time": 1915, "annotation": {"number": 64, "value": 0}, "group": "control_change"}, {"time": 1916, "annotation": {"number": 64, "value": 127}, "group": "control_change"}, {"time": 1940, "annotation": {"number": 64, "value": 0}, "group": "control_change"}, {"time": 1943, "annotation": {"number": 64, "value": 127}, "group": "control_change"}, {"time": 1962, "annotation": {"number": 64, "value": 0}, "group": "control_change"}, {"time": 1965, "annotation": {"number": 64, "value": 127}, "group": "control_change"}, {"time": 1988, "annotation": {"number": 64, "value": 0}, "group": "control_change"}, {"time": 1991, "annotation": {"number": 64, "value": 127}, "group": "control_change"}, {"time": 2011, "annotation": {"number": 64, "value": 0}, "group": "control_change"}, {"time": 2018, "annotation": {"number": 64, "value": 127}, "group": "control_change"}, {"time": 2036, "annotation": {"number": 64, "value": 0}, "group": "control_change"}, {"time": 2039, "annotation": {"number": 64, "value": 127}, "group": "control_change"}, {"time": 2060, "annotation": {"number": 64, "value": 0}, "group": "control_change"}, {"time": 2062, "annotation": {"number": 64, "value": 127}, "group": "control_change"}, {"time": 2084, "annotation": {"number": 64, "value": 127}, "group": "control_change"}, {"time": 2084, "annotation": {"number": 64, "value": 0}, "group": "control_change"}, {"time": 2095, "annotation": {"number": 64, "value": 0}, "group": "control_change"}, {"time": 2097, "annotation": {"number": 64, "value": 127}, "group": "control_change"}, {"time": 2107, "annotation": {"number": 64, "value": 0}, "group": "control_change"}, {"time": 2111, "annotation": {"number": 64, "value": 127}, "group": "control_change"}, {"time": 2131, "annotation": {"number": 64, "value": 0}, "group": "control_change"}, {"time": 2133, "annotation": {"number": 64, "value": 127}, "group": "control_change"}, {"time": 2153, "annotation": {"number": 64, "value": 0}, "group": "control_change"}, {"time": 2157, "annotation": {"number": 64, "value": 127}, "group": "control_change"}, {"time": 2157, "annotation": {"number": 64, "value": 0}, "group": "control_change"}, {"time": 2158, "annotation": {"number": 64, "value": 127}, "group": "control_change"}, {"time": 2179, "annotation": {"number": 64, "value": 0}, "group": "control_change"}, {"time": 2182, "annotation": {"number": 64, "value": 127}, "group": "control_change"}, {"time": 2203, "annotation": {"number": 64, "value": 0}, "group": "control_change"}, {"time": 2206, "annotation": {"number": 64, "value": 127}, "group": "control_change"}, {"time": 2228, "annotation": {"number": 64, "value": 0}, "group": "control_change"}, {"time": 2230, "annotation": {"number": 64, "value": 127}, "group": "control_change"}, {"time": 2250, "annotation": {"number": 64, "value": 0}, "group": "control_change"}, {"time": 2253, "annotation": {"number": 64, "value": 127}, "group": "control_change"}, {"time": 2275, "annotation": {"number": 64, "value": 0}, "group": "control_change"}, {"time": 2277, "annotation": {"number": 64, "value": 127}, "group": "control_change"}, {"time": 2299, "annotation": {"number": 64, "value": 0}, "group": "control_change"}, {"time": 2303, "annotation": {"number": 64, "value": 127}, "group": "control_change"}, {"time": 2323, "annotation": {"number": 64, "value": 0}, "group": "control_change"}, {"time": 2325, "annotation": {"number": 64, "value": 127}, "group": "control_change"}, {"time": 2347, "annotation": {"number": 64, "value": 0}, "group": "control_change"}, {"time": 2351, "annotation": {"number": 64, "value": 127}, "group": "control_change"}, {"time": 2371, "annotation": {"number": 64, "value": 0}, "group": "control_change"}, {"time": 2373, "annotation": {"number": 64, "value": 127}, "group": "control_change"}, {"time": 2395, "annotation": {"number": 64, "value": 0}, "group": "control_change"}, {"time": 2397, "annotation": {"number": 64, "value": 127}, "group": "control_change"}, {"time": 2419, "annotation": {"number": 64, "value": 0}, "group": "control_change"}, {"time": 2421, "annotation": {"number": 64, "value": 127}, "group": "control_change"}, {"time": 2443, "annotation": {"number": 64, "value": 0}, "group": "control_change"}, {"time": 2445, "annotation": {"number": 64, "value": 127}, "group": "control_change"}, {"time": 2467, "annotation": {"number": 64, "value": 0}, "group": "control_change"}, {"time": 2469, "annotation": {"number": 64, "value": 127}, "group": "control_change"}, {"time": 2491, "annotation": {"number": 64, "value": 0}, "group": "control_change"}, {"time": 2493, "annotation": {"number": 64, "value": 127}, "group": "control_change"}, {"time": 2503, "annotation": {"number": 64, "value": 0}, "group": "control_change"}, {"time": 2505, "annotation": {"number": 64, "value": 127}, "group": "control_change"}, {"time": 2515, "annotation": {"number": 64, "value": 0}, "group": "control_change"}, {"time": 2520, "annotation": {"number": 64, "value": 127}, "group": "control_change"}, {"time": 2540, "annotation": {"number": 64, "value": 0}, "group": "control_change"}, {"time": 2541, "annotation": {"number": 64, "value": 127}, "group": "control_change"}, {"time": 2563, "annotation": {"number": 64, "value": 0}, "group": "control_change"}, {"time": 2565, "annotation": {"number": 64, "value": 127}, "group": "control_change"}, {"time": 2565, "annotation": {"number": 64, "value": 0}, "group": "control_change"}, {"time": 2566, "annotation": {"number": 64, "value": 127}, "group": "control_change"}, {"time": 2587, "annotation": {"number": 64, "value": 0}, "group": "control_change"}, {"time": 2590, "annotation": {"number": 64, "value": 127}, "group": "control_change"}, {"time": 2611, "annotation": {"number": 64, "value": 0}, "group": "control_change"}, {"time": 2614, "annotation": {"number": 64, "value": 127}, "group": "control_change"}, {"time": 2636, "annotation": {"number": 64, "value": 0}, "group": "control_change"}, {"time": 2638, "annotation": {"number": 64, "value": 127}, "group": "control_change"}, {"time": 2658, "annotation": {"number": 64, "value": 0}, "group": "control_change"}, {"time": 2661, "annotation": {"number": 64, "value": 127}, "group": "control_change"}, {"time": 2683, "annotation": {"number": 64, "value": 0}, "group": "control_change"}, {"time": 2685, "annotation": {"number": 64, "value": 127}, "group": "control_change"}, {"time": 2707, "annotation": {"number": 64, "value": 0}, "group": "control_change"}, {"time": 2711, "annotation": {"number": 64, "value": 127}, "group": "control_change"}, {"time": 2731, "annotation": {"number": 64, "value": 0}, "group": "control_change"}, {"time": 2733, "annotation": {"number": 64, "value": 127}, "group": "control_change"}, {"time": 2755, "annotation": {"number": 64, "value": 0}, "group": "control_change"}, {"time": 2759, "annotation": {"number": 64, "value": 127}, "group": "control_change"}, {"time": 2779, "annotation": {"number": 64, "value": 0}, "group": "control_change"}, {"time": 2781, "annotation": {"number": 64, "value": 127}, "group": "control_change"}, {"time": 2803, "annotation": {"number": 64, "value": 0}, "group": "control_change"}, {"time": 2805, "annotation": {"number": 64, "value": 127}, "group": "control_change"}, {"time": 2827, "annotation": {"number": 64, "value": 0}, "group": "control_change"}, {"time": 2829, "annotation": {"number": 64, "value": 127}, "group": "control_change"}, {"time": 2851, "annotation": {"number": 64, "value": 0}, "group": "control_change"}, {"time": 2853, "annotation": {"number": 64, "value": 127}, "group": "control_change"}, {"time": 2875, "annotation": {"number": 64, "value": 0}, "group": "control_change"}, {"time": 2877, "annotation": {"number": 64, "value": 127}, "group": "control_change"}, {"time": 2899, "annotation": {"number": 64, "value": 0}, "group": "control_change"}, {"time": 2901, "annotation": {"number": 64, "value": 127}, "group": "control_change"}, {"time": 2911, "annotation": {"number": 64, "value": 0}, "group": "control_change"}, {"time": 2913, "annotation": {"number": 64, "value": 127}, "group": "control_change"}, {"time": 2923, "annotation": {"number": 64, "value": 0}, "group": "control_change"}, {"time": 2928, "annotation": {"number": 64, "value": 127}, "group": "control_change"}, {"time": 2948, "annotation": {"number": 64, "value": 0}, "group": "control_change"}, {"time": 2949, "annotation": {"number": 64, "value": 127}, "group": "control_change"}, {"time": 2976, "annotation": {"number": 64, "value": 0}, "group": "control_change"}, {"time": 2977, "annotation": {"number": 64, "value": 127}, "group": "control_change"}, {"time": 2994, "annotation": {"number": 64, "value": 0}, "group": "control_change"}, {"time": 2997, "annotation": {"number": 64, "value": 127}, "group": "control_change"}, {"time": 2997, "annotation": {"number": 64, "value": 0}, "group": "control_change"}, {"time": 2998, "annotation": {"number": 64, "value": 127}, "group": "control_change"}, {"time": 3019, "annotation": {"number": 64, "value": 0}, "group": "control_change"}, {"time": 3022, "annotation": {"number": 64, "value": 127}, "group": "control_change"}, {"time": 3043, "annotation": {"number": 64, "value": 0}, "group": "control_change"}, {"time": 3046, "annotation": {"number": 64, "value": 127}, "group": "control_change"}, {"time": 3068, "annotation": {"number": 64, "value": 0}, "group": "control_change"}, {"time": 3070, "annotation": {"number": 64, "value": 127}, "group": "control_change"}, {"time": 3090, "annotation": {"number": 64, "value": 0}, "group": "control_change"}, {"time": 3093, "annotation": {"number": 64, "value": 127}, "group": "control_change"}, {"time": 3115, "annotation": {"number": 64, "value": 0}, "group": "control_change"}, {"time": 3117, "annotation": {"number": 64, "value": 127}, "group": "control_change"}, {"time": 3139, "annotation": {"number": 64, "value": 0}, "group": "control_change"}, {"time": 3143, "annotation": {"number": 64, "value": 127}, "group": "control_change"}, {"time": 3163, "annotation": {"number": 64, "value": 0}, "group": "control_change"}, {"time": 3165, "annotation": {"number": 64, "value": 127}, "group": "control_change"}, {"time": 3187, "annotation": {"number": 64, "value": 0}, "group": "control_change"}, {"time": 3191, "annotation": {"number": 64, "value": 127}, "group": "control_change"}, {"time": 3211, "annotation": {"number": 64, "value": 0}, "group": "control_change"}, {"time": 3213, "annotation": {"number": 64, "value": 127}, "group": "control_change"}, {"time": 3235, "annotation": {"number": 64, "value": 0}, "group": "control_change"}, {"time": 3237, "annotation": {"number": 64, "value": 127}, "group": "control_change"}, {"time": 3259, "annotation": {"number": 64, "value": 0}, "group": "control_change"}, {"time": 3261, "annotation": {"number": 64, "value": 127}, "group": "control_change"}, {"time": 3283, "annotation": {"number": 64, "value": 0}, "group": "control_change"}, {"time": 3285, "annotation": {"number": 64, "value": 127}, "group": "control_change"}, {"time": 3307, "annotation": {"number": 64, "value": 0}, "group": "control_change"}, {"time": 3309, "annotation": {"number": 64, "value": 127}, "group": "control_change"}, {"time": 3331, "annotation": {"number": 64, "value": 0}, "group": "control_change"}, {"time": 3333, "annotation": {"number": 64, "value": 127}, "group": "control_change"}, {"time": 3343, "annotation": {"number": 64, "value": 0}, "group": "control_change"}, {"time": 3345, "annotation": {"number": 64, "value": 127}, "group": "control_change"}, {"time": 3355, "annotation": {"number": 64, "value": 0}, "group": "control_change"}, {"time": 3360, "annotation": {"number": 64, "value": 127}, "group": "control_change"}, {"time": 3380, "annotation": {"number": 64, "value": 0}, "group": "control_change"}, {"time": 3383, "annotation": {"number": 64, "value": 127}, "group": "control_change"}, {"time": 3403, "annotation": {"number": 64, "value": 0}, "group": "control_change"}, {"time": 3406, "annotation": {"number": 64, "value": 127}, "group": "control_change"}, {"time": 3429, "annotation": {"number": 64, "value": 0}, "group": "control_change"}, {"time": 3433, "annotation": {"number": 64, "value": 127}, "group": "control_change"}, {"time": 3453, "annotation": {"number": 64, "value": 0}, "group": "control_change"}, {"time": 3457, "annotation": {"number": 64, "value": 127}, "group": "control_change"}, {"time": 3487, "annotation": {"number": 64, "value": 0}, "group": "control_change"}, {"time": 3501, "annotation": {"number": 64, "value": 127}, "group": "control_change"}, {"time": 3501, "annotation": {"number": 64, "value": 0}, "group": "control_change"}, {"time": 3523, "annotation": {"number": 64, "value": 0}, "group": "control_change"}, {"time": 3525, "annotation": {"number": 64, "value": 127}, "group": "control_change"}, {"time": 3547, "annotation": {"number": 64, "value": 0}, "group": "control_change"}, {"time": 3549, "annotation": {"number": 64, "value": 127}, "group": "control_change"}, {"time": 3571, "annotation": {"number": 64, "value": 0}, "group": "control_change"}, {"time": 3573, "annotation": {"number": 64, "value": 127}, "group": "control_change"}, {"time": 3596, "annotation": {"number": 64, "value": 0}, "group": "control_change"}, {"time": 3598, "annotation": {"number": 64, "value": 127}, "group": "control_change"}, {"time": 3620, "annotation": {"number": 64, "value": 0}, "group": "control_change"}, {"time": 3621, "annotation": {"number": 64, "value": 127}, "group": "control_change"}, {"time": 3644, "annotation": {"number": 64, "value": 0}, "group": "control_change"}, {"time": 3644, "annotation": {"number": 64, "value": 127}, "group": "control_change"}, {"time": 3667, "annotation": {"number": 64, "value": 0}, "group": "control_change"}, {"time": 3669, "annotation": {"number": 64, "value": 127}, "group": "control_change"}, {"time": 3689, "annotation": {"number": 64, "value": 0}, "group": "control_change"}, {"time": 3693, "annotation": {"number": 64, "value": 127}, "group": "control_change"}, {"time": 3693, "annotation": {"number": 64, "value": 0}, "group": "control_change"}, {"time": 3715, "annotation": {"number": 64, "value": 0}, "group": "control_change"}, {"time": 3717, "annotation": {"number": 64, "value": 127}, "group": "control_change"}, {"time": 3739, "annotation": {"number": 64, "value": 0}, "group": "control_change"}, {"time": 3741, "annotation": {"number": 64, "value": 127}, "group": "control_change"}, {"time": 3763, "annotation": {"number": 64, "value": 0}, "group": "control_change"}, {"time": 3765, "annotation": {"number": 64, "value": 127}, "group": "control_change"}, {"time": 3788, "annotation": {"number": 64, "value": 0}, "group": "control_change"}, {"time": 3790, "annotation": {"number": 64, "value": 127}, "group": "control_change"}, {"time": 3812, "annotation": {"number": 64, "value": 0}, "group": "control_change"}, {"time": 3813, "annotation": {"number": 64, "value": 127}, "group": "control_change"}, {"time": 3836, "annotation": {"number": 64, "value": 0}, "group": "control_change"}, {"time": 3836, "annotation": {"number": 64, "value": 127}, "group": "control_change"}, {"time": 3847, "annotation": {"number": 64, "value": 0}, "group": "control_change"}, {"time": 3849, "annotation": {"number": 64, "value": 127}, "group": "control_change"}, {"time": 3860, "annotation": {"number": 64, "value": 0}, "group": "control_change"}, {"time": 3862, "annotation": {"number": 64, "value": 127}, "group": "control_change"}, {"time": 3862, "annotation": {"number": 64, "value": 0}, "group": "control_change"}, {"time": 3884, "annotation": {"number": 64, "value": 0}, "group": "control_change"}, {"time": 3886, "annotation": {"number": 64, "value": 127}, "group": "control_change"}, {"time": 3906, "annotation": {"number": 64, "value": 0}, "group": "control_change"}, {"time": 3909, "annotation": {"number": 64, "value": 127}, "group": "control_change"}, {"time": 3931, "annotation": {"number": 64, "value": 0}, "group": "control_change"}, {"time": 3934, "annotation": {"number": 64, "value": 127}, "group": "control_change"}, {"time": 3955, "annotation": {"number": 64, "value": 0}, "group": "control_change"}, {"time": 3958, "annotation": {"number": 64, "value": 127}, "group": "control_change"}, {"time": 3979, "annotation": {"number": 64, "value": 0}, "group": "control_change"}, {"time": 3982, "annotation": {"number": 64, "value": 127}, "group": "control_change"}, {"time": 4002, "annotation": {"number": 64, "value": 0}, "group": "control_change"}, {"time": 4005, "annotation": {"number": 64, "value": 127}, "group": "control_change"}, {"time": 4026, "annotation": {"number": 64, "value": 0}, "group": "control_change"}, {"time": 4028, "annotation": {"number": 64, "value": 127}, "group": "control_change"}, {"time": 4051, "annotation": {"number": 64, "value": 0}, "group": "control_change"}, {"time": 4052, "annotation": {"number": 64, "value": 127}, "group": "control_change"}, {"time": 4074, "annotation": {"number": 64, "value": 0}, "group": "control_change"}, {"time": 4077, "annotation": {"number": 64, "value": 127}, "group": "control_change"}, {"time": 4123, "annotation": {"number": 64, "value": 0}, "group": "control_change"}]}]}