{"metadata": {"schema_version": "0.2", "title": "None", "source_filename": "537.mid", "source_format": "midi"}, "resolution": 12, "tempos": [{"time": 0, "qpm": 75.0}], "time_signatures": [{"time": 0, "numerator": 4, "denominator": 4}], "tracks": [{"program": 4, "is_drum": false, "name": "MELODY", "notes": [{"time": 298, "pitch": 60, "duration": 7, "velocity": 104}, {"time": 304, "pitch": 62, "duration": 6, "velocity": 102}, {"time": 310, "pitch": 69, "duration": 12, "velocity": 114}, {"time": 322, "pitch": 69, "duration": 6, "velocity": 110}, {"time": 328, "pitch": 67, "duration": 3, "velocity": 100}, {"time": 331, "pitch": 69, "duration": 21, "velocity": 107}, {"time": 352, "pitch": 67, "duration": 3, "velocity": 104}, {"time": 355, "pitch": 69, "duration": 3, "velocity": 93}, {"time": 358, "pitch": 72, "duration": 12, "velocity": 113}, {"time": 370, "pitch": 72, "duration": 6, "velocity": 108}, {"time": 376, "pitch": 74, "duration": 3, "velocity": 113}, {"time": 379, "pitch": 72, "duration": 21, "velocity": 91}, {"time": 400, "pitch": 69, "duration": 3, "velocity": 107}, {"time": 403, "pitch": 72, "duration": 3, "velocity": 100}, {"time": 406, "pitch": 74, "duration": 12, "velocity": 116}, {"time": 418, "pitch": 74, "duration": 6, "velocity": 119}, {"time": 424, "pitch": 72, "duration": 3, "velocity": 113}, {"time": 427, "pitch": 74, "duration": 9, "velocity": 117}, {"time": 436, "pitch": 72, "duration": 6, "velocity": 104}, {"time": 442, "pitch": 69, "duration": 3, "velocity": 104}, {"time": 445, "pitch": 67, "duration": 6, "velocity": 102}, {"time": 451, "pitch": 65, "duration": 3, "velocity": 108}, {"time": 454, "pitch": 67, "duration": 18, "velocity": 107}, {"time": 472, "pitch": 69, "duration": 6, "velocity": 108}, {"time": 478, "pitch": 67, "duration": 18, "velocity": 113}, {"time": 496, "pitch": 69, "duration": 3, "velocity": 107}, {"time": 499, "pitch": 67, "duration": 3, "velocity": 100}, {"time": 502, "pitch": 65, "duration": 12, "velocity": 107}, {"time": 514, "pitch": 65, "duration": 6, "velocity": 113}, {"time": 520, "pitch": 67, "duration": 3, "velocity": 113}, {"time": 523, "pitch": 69, "duration": 21, "velocity": 108}, {"time": 544, "pitch": 74, "duration": 3, "velocity": 110}, {"time": 547, "pitch": 77, "duration": 3, "velocity": 113}, {"time": 550, "pitch": 76, "duration": 12, "velocity": 119}, {"time": 562, "pitch": 76, "duration": 6, "velocity": 114}, {"time": 568, "pitch": 74, "duration": 3, "velocity": 108}, {"time": 571, "pitch": 72, "duration": 21, "velocity": 102}, {"time": 592, "pitch": 72, "duration": 3, "velocity": 102}, {"time": 595, "pitch": 69, "duration": 3, "velocity": 102}, {"time": 598, "pitch": 67, "duration": 18, "velocity": 108}, {"time": 616, "pitch": 67, "duration": 3, "velocity": 107}, {"time": 619, "pitch": 69, "duration": 3, "velocity": 108}, {"time": 622, "pitch": 67, "duration": 18, "velocity": 114}, {"time": 640, "pitch": 65, "duration": 6, "velocity": 110}, {"time": 646, "pitch": 67, "duration": 36, "velocity": 116}, {"time": 682, "pitch": 60, "duration": 7, "velocity": 104}, {"time": 688, "pitch": 62, "duration": 6, "velocity": 102}, {"time": 694, "pitch": 69, "duration": 12, "velocity": 114}, {"time": 706, "pitch": 69, "duration": 6, "velocity": 110}, {"time": 712, "pitch": 67, "duration": 3, "velocity": 100}, {"time": 715, "pitch": 69, "duration": 21, "velocity": 107}, {"time": 736, "pitch": 67, "duration": 3, "velocity": 104}, {"time": 739, "pitch": 69, "duration": 3, "velocity": 93}, {"time": 742, "pitch": 72, "duration": 12, "velocity": 113}, {"time": 754, "pitch": 72, "duration": 6, "velocity": 108}, {"time": 760, "pitch": 74, "duration": 3, "velocity": 113}, {"time": 763, "pitch": 72, "duration": 21, "velocity": 91}, {"time": 784, "pitch": 69, "duration": 3, "velocity": 107}, {"time": 787, "pitch": 72, "duration": 3, "velocity": 100}, {"time": 790, "pitch": 74, "duration": 12, "velocity": 116}, {"time": 802, "pitch": 74, "duration": 6, "velocity": 119}, {"time": 808, "pitch": 72, "duration": 3, "velocity": 113}, {"time": 811, "pitch": 74, "duration": 9, "velocity": 117}, {"time": 820, "pitch": 72, "duration": 6, "velocity": 104}, {"time": 826, "pitch": 69, "duration": 3, "velocity": 104}, {"time": 829, "pitch": 67, "duration": 6, "velocity": 102}, {"time": 835, "pitch": 65, "duration": 3, "velocity": 108}, {"time": 838, "pitch": 67, "duration": 18, "velocity": 107}, {"time": 856, "pitch": 69, "duration": 6, "velocity": 108}, {"time": 862, "pitch": 67, "duration": 18, "velocity": 113}, {"time": 880, "pitch": 69, "duration": 3, "velocity": 107}, {"time": 883, "pitch": 67, "duration": 3, "velocity": 100}, {"time": 886, "pitch": 65, "duration": 12, "velocity": 107}, {"time": 898, "pitch": 65, "duration": 6, "velocity": 113}, {"time": 904, "pitch": 67, "duration": 3, "velocity": 113}, {"time": 907, "pitch": 69, "duration": 21, "velocity": 108}, {"time": 928, "pitch": 74, "duration": 3, "velocity": 110}, {"time": 931, "pitch": 77, "duration": 3, "velocity": 113}, {"time": 934, "pitch": 76, "duration": 12, "velocity": 119}, {"time": 946, "pitch": 76, "duration": 6, "velocity": 114}, {"time": 952, "pitch": 74, "duration": 3, "velocity": 108}, {"time": 955, "pitch": 72, "duration": 21, "velocity": 102}, {"time": 976, "pitch": 72, "duration": 3, "velocity": 102}, {"time": 979, "pitch": 69, "duration": 3, "velocity": 102}, {"time": 982, "pitch": 67, "duration": 18, "velocity": 108}, {"time": 1000, "pitch": 67, "duration": 3, "velocity": 107}, {"time": 1003, "pitch": 69, "duration": 3, "velocity": 108}, {"time": 1006, "pitch": 67, "duration": 6, "velocity": 114}, {"time": 1012, "pitch": 65, "duration": 6, "velocity": 113}, {"time": 1018, "pitch": 62, "duration": 3, "velocity": 107}, {"time": 1021, "pitch": 65, "duration": 9, "velocity": 113}, {"time": 1030, "pitch": 65, "duration": 36, "velocity": 114}, {"time": 1066, "pitch": 65, "duration": 4, "velocity": 116}, {"time": 1069, "pitch": 67, "duration": 6, "velocity": 116}, {"time": 1075, "pitch": 69, "duration": 3, "velocity": 116}, {"time": 1078, "pitch": 72, "duration": 21, "velocity": 114}, {"time": 1099, "pitch": 72, "duration": 3, "velocity": 114}, {"time": 1102, "pitch": 74, "duration": 6, "velocity": 117}, {"time": 1108, "pitch": 72, "duration": 6, "velocity": 116}, {"time": 1114, "pitch": 69, "duration": 6, "velocity": 113}, {"time": 1120, "pitch": 67, "duration": 6, "velocity": 116}, {"time": 1126, "pitch": 69, "duration": 6, "velocity": 114}, {"time": 1132, "pitch": 69, "duration": 6, "velocity": 110}, {"time": 1138, "pitch": 69, "duration": 3, "velocity": 113}, {"time": 1141, "pitch": 67, "duration": 6, "velocity": 110}, {"time": 1147, "pitch": 65, "duration": 15, "velocity": 107}, {"time": 1162, "pitch": 65, "duration": 3, "velocity": 116}, {"time": 1165, "pitch": 67, "duration": 6, "velocity": 114}, {"time": 1171, "pitch": 69, "duration": 3, "velocity": 114}, {"time": 1174, "pitch": 77, "duration": 21, "velocity": 117}, {"time": 1195, "pitch": 77, "duration": 3, "velocity": 114}, {"time": 1198, "pitch": 79, "duration": 6, "velocity": 116}, {"time": 1204, "pitch": 77, "duration": 6, "velocity": 110}, {"time": 1210, "pitch": 74, "duration": 3, "velocity": 113}, {"time": 1213, "pitch": 72, "duration": 6, "velocity": 107}, {"time": 1219, "pitch": 69, "duration": 3, "velocity": 113}, {"time": 1222, "pitch": 72, "duration": 36, "velocity": 117}, {"time": 1258, "pitch": 72, "duration": 6, "velocity": 117}, {"time": 1264, "pitch": 74, "duration": 5, "velocity": 119}, {"time": 1269, "pitch": 77, "duration": 18, "velocity": 123}, {"time": 1287, "pitch": 79, "duration": 6, "velocity": 117}, {"time": 1293, "pitch": 79, "duration": 6, "velocity": 114}, {"time": 1299, "pitch": 77, "duration": 6, "velocity": 119}, {"time": 1305, "pitch": 74, "duration": 6, "velocity": 117}, {"time": 1311, "pitch": 72, "duration": 4, "velocity": 116}, {"time": 1314, "pitch": 74, "duration": 9, "velocity": 117}, {"time": 1323, "pitch": 74, "duration": 6, "velocity": 114}, {"time": 1329, "pitch": 74, "duration": 3, "velocity": 113}, {"time": 1332, "pitch": 72, "duration": 6, "velocity": 114}, {"time": 1338, "pitch": 69, "duration": 15, "velocity": 113}, {"time": 1353, "pitch": 72, "duration": 6, "velocity": 114}, {"time": 1359, "pitch": 69, "duration": 6, "velocity": 119}, {"time": 1365, "pitch": 67, "duration": 18, "velocity": 119}, {"time": 1383, "pitch": 67, "duration": 3, "velocity": 117}, {"time": 1386, "pitch": 69, "duration": 3, "velocity": 114}, {"time": 1389, "pitch": 67, "duration": 18, "velocity": 119}, {"time": 1407, "pitch": 62, "duration": 6, "velocity": 116}, {"time": 1413, "pitch": 65, "duration": 27, "velocity": 119}, {"time": 1881, "pitch": 60, "duration": 8, "velocity": 104}, {"time": 1887, "pitch": 62, "duration": 6, "velocity": 102}, {"time": 1893, "pitch": 69, "duration": 12, "velocity": 114}, {"time": 1905, "pitch": 69, "duration": 6, "velocity": 110}, {"time": 1911, "pitch": 67, "duration": 3, "velocity": 100}, {"time": 1914, "pitch": 69, "duration": 21, "velocity": 107}, {"time": 1935, "pitch": 67, "duration": 3, "velocity": 104}, {"time": 1938, "pitch": 69, "duration": 3, "velocity": 93}, {"time": 1941, "pitch": 72, "duration": 12, "velocity": 113}, {"time": 1953, "pitch": 72, "duration": 6, "velocity": 108}, {"time": 1959, "pitch": 74, "duration": 3, "velocity": 113}, {"time": 1962, "pitch": 72, "duration": 21, "velocity": 91}, {"time": 1983, "pitch": 69, "duration": 3, "velocity": 107}, {"time": 1986, "pitch": 72, "duration": 3, "velocity": 100}, {"time": 1989, "pitch": 74, "duration": 12, "velocity": 116}, {"time": 2001, "pitch": 74, "duration": 6, "velocity": 119}, {"time": 2007, "pitch": 72, "duration": 3, "velocity": 113}, {"time": 2010, "pitch": 74, "duration": 9, "velocity": 117}, {"time": 2019, "pitch": 72, "duration": 6, "velocity": 104}, {"time": 2025, "pitch": 69, "duration": 3, "velocity": 104}, {"time": 2028, "pitch": 67, "duration": 6, "velocity": 102}, {"time": 2034, "pitch": 65, "duration": 3, "velocity": 108}, {"time": 2037, "pitch": 67, "duration": 18, "velocity": 107}, {"time": 2055, "pitch": 69, "duration": 6, "velocity": 108}, {"time": 2061, "pitch": 67, "duration": 18, "velocity": 113}, {"time": 2079, "pitch": 69, "duration": 3, "velocity": 107}, {"time": 2082, "pitch": 67, "duration": 3, "velocity": 100}, {"time": 2085, "pitch": 65, "duration": 12, "velocity": 107}, {"time": 2097, "pitch": 65, "duration": 6, "velocity": 113}, {"time": 2103, "pitch": 67, "duration": 3, "velocity": 113}, {"time": 2106, "pitch": 69, "duration": 21, "velocity": 108}, {"time": 2127, "pitch": 74, "duration": 3, "velocity": 110}, {"time": 2130, "pitch": 77, "duration": 3, "velocity": 113}, {"time": 2133, "pitch": 76, "duration": 12, "velocity": 119}, {"time": 2145, "pitch": 76, "duration": 6, "velocity": 114}, {"time": 2151, "pitch": 74, "duration": 3, "velocity": 108}, {"time": 2154, "pitch": 72, "duration": 21, "velocity": 102}, {"time": 2175, "pitch": 72, "duration": 3, "velocity": 102}, {"time": 2178, "pitch": 69, "duration": 3, "velocity": 102}, {"time": 2181, "pitch": 67, "duration": 18, "velocity": 108}, {"time": 2199, "pitch": 67, "duration": 3, "velocity": 107}, {"time": 2202, "pitch": 69, "duration": 3, "velocity": 108}, {"time": 2205, "pitch": 67, "duration": 6, "velocity": 114}, {"time": 2211, "pitch": 65, "duration": 6, "velocity": 113}, {"time": 2217, "pitch": 62, "duration": 3, "velocity": 107}, {"time": 2220, "pitch": 65, "duration": 9, "velocity": 113}, {"time": 2229, "pitch": 65, "duration": 35, "velocity": 114}, {"time": 2264, "pitch": 65, "duration": 4, "velocity": 116}, {"time": 2267, "pitch": 67, "duration": 6, "velocity": 116}, {"time": 2273, "pitch": 69, "duration": 3, "velocity": 116}, {"time": 2276, "pitch": 72, "duration": 21, "velocity": 114}, {"time": 2297, "pitch": 72, "duration": 3, "velocity": 114}, {"time": 2300, "pitch": 74, "duration": 6, "velocity": 117}, {"time": 2306, "pitch": 72, "duration": 6, "velocity": 116}, {"time": 2312, "pitch": 69, "duration": 6, "velocity": 113}, {"time": 2318, "pitch": 67, "duration": 6, "velocity": 116}, {"time": 2324, "pitch": 69, "duration": 6, "velocity": 114}, {"time": 2330, "pitch": 69, "duration": 6, "velocity": 110}, {"time": 2336, "pitch": 69, "duration": 4, "velocity": 113}, {"time": 2339, "pitch": 67, "duration": 6, "velocity": 110}, {"time": 2345, "pitch": 65, "duration": 15, "velocity": 107}, {"time": 2360, "pitch": 65, "duration": 4, "velocity": 116}, {"time": 2363, "pitch": 67, "duration": 6, "velocity": 114}, {"time": 2369, "pitch": 69, "duration": 3, "velocity": 114}, {"time": 2372, "pitch": 77, "duration": 21, "velocity": 117}, {"time": 2393, "pitch": 77, "duration": 3, "velocity": 114}, {"time": 2396, "pitch": 79, "duration": 6, "velocity": 116}, {"time": 2402, "pitch": 77, "duration": 6, "velocity": 110}, {"time": 2408, "pitch": 74, "duration": 3, "velocity": 113}, {"time": 2411, "pitch": 72, "duration": 6, "velocity": 107}, {"time": 2417, "pitch": 69, "duration": 3, "velocity": 113}, {"time": 2420, "pitch": 72, "duration": 36, "velocity": 117}, {"time": 2456, "pitch": 72, "duration": 6, "velocity": 117}, {"time": 2462, "pitch": 74, "duration": 6, "velocity": 119}, {"time": 2468, "pitch": 77, "duration": 18, "velocity": 123}, {"time": 2486, "pitch": 79, "duration": 6, "velocity": 117}, {"time": 2492, "pitch": 79, "duration": 6, "velocity": 114}, {"time": 2498, "pitch": 77, "duration": 6, "velocity": 119}, {"time": 2504, "pitch": 74, "duration": 6, "velocity": 117}, {"time": 2510, "pitch": 72, "duration": 4, "velocity": 116}, {"time": 2513, "pitch": 74, "duration": 9, "velocity": 117}, {"time": 2522, "pitch": 74, "duration": 6, "velocity": 114}, {"time": 2528, "pitch": 74, "duration": 4, "velocity": 113}, {"time": 2531, "pitch": 72, "duration": 6, "velocity": 114}, {"time": 2537, "pitch": 69, "duration": 15, "velocity": 113}, {"time": 2552, "pitch": 72, "duration": 6, "velocity": 114}, {"time": 2558, "pitch": 69, "duration": 6, "velocity": 119}, {"time": 2564, "pitch": 67, "duration": 18, "velocity": 119}, {"time": 2582, "pitch": 67, "duration": 3, "velocity": 117}, {"time": 2585, "pitch": 69, "duration": 3, "velocity": 114}, {"time": 2588, "pitch": 67, "duration": 18, "velocity": 119}, {"time": 2606, "pitch": 65, "duration": 6, "velocity": 116}, {"time": 2612, "pitch": 67, "duration": 36, "velocity": 119}, {"time": 2648, "pitch": 65, "duration": 4, "velocity": 116}, {"time": 2651, "pitch": 67, "duration": 6, "velocity": 116}, {"time": 2657, "pitch": 69, "duration": 3, "velocity": 116}, {"time": 2660, "pitch": 72, "duration": 21, "velocity": 114}, {"time": 2681, "pitch": 72, "duration": 3, "velocity": 114}, {"time": 2684, "pitch": 74, "duration": 6, "velocity": 117}, {"time": 2690, "pitch": 72, "duration": 6, "velocity": 116}, {"time": 2696, "pitch": 69, "duration": 6, "velocity": 113}, {"time": 2702, "pitch": 67, "duration": 6, "velocity": 116}, {"time": 2708, "pitch": 69, "duration": 6, "velocity": 114}, {"time": 2714, "pitch": 69, "duration": 6, "velocity": 110}, {"time": 2720, "pitch": 69, "duration": 4, "velocity": 113}, {"time": 2723, "pitch": 67, "duration": 6, "velocity": 110}, {"time": 2729, "pitch": 65, "duration": 15, "velocity": 107}, {"time": 2744, "pitch": 65, "duration": 4, "velocity": 116}, {"time": 2747, "pitch": 67, "duration": 6, "velocity": 114}, {"time": 2753, "pitch": 69, "duration": 3, "velocity": 114}, {"time": 2756, "pitch": 77, "duration": 21, "velocity": 117}, {"time": 2777, "pitch": 77, "duration": 3, "velocity": 114}, {"time": 2780, "pitch": 79, "duration": 6, "velocity": 116}, {"time": 2786, "pitch": 77, "duration": 6, "velocity": 110}, {"time": 2792, "pitch": 74, "duration": 3, "velocity": 113}, {"time": 2795, "pitch": 72, "duration": 6, "velocity": 107}, {"time": 2801, "pitch": 69, "duration": 3, "velocity": 113}, {"time": 2804, "pitch": 72, "duration": 36, "velocity": 117}, {"time": 2840, "pitch": 72, "duration": 6, "velocity": 117}, {"time": 2846, "pitch": 74, "duration": 6, "velocity": 119}, {"time": 2852, "pitch": 77, "duration": 18, "velocity": 123}, {"time": 2870, "pitch": 79, "duration": 6, "velocity": 117}, {"time": 2876, "pitch": 79, "duration": 6, "velocity": 114}, {"time": 2882, "pitch": 77, "duration": 6, "velocity": 119}, {"time": 2888, "pitch": 74, "duration": 6, "velocity": 117}, {"time": 2894, "pitch": 72, "duration": 4, "velocity": 116}, {"time": 2897, "pitch": 74, "duration": 9, "velocity": 117}, {"time": 2906, "pitch": 74, "duration": 6, "velocity": 114}, {"time": 2912, "pitch": 74, "duration": 4, "velocity": 113}, {"time": 2915, "pitch": 72, "duration": 6, "velocity": 114}, {"time": 2921, "pitch": 69, "duration": 15, "velocity": 113}, {"time": 2936, "pitch": 72, "duration": 6, "velocity": 114}, {"time": 2942, "pitch": 69, "duration": 6, "velocity": 119}, {"time": 2948, "pitch": 67, "duration": 18, "velocity": 119}, {"time": 2966, "pitch": 67, "duration": 3, "velocity": 117}, {"time": 2969, "pitch": 69, "duration": 3, "velocity": 114}, {"time": 2972, "pitch": 67, "duration": 4, "velocity": 119}, {"time": 2979, "pitch": 65, "duration": 3, "velocity": 114}, {"time": 2984, "pitch": 62, "duration": 5, "velocity": 114}, {"time": 2990, "pitch": 65, "duration": 11, "velocity": 114}, {"time": 3002, "pitch": 65, "duration": 30, "velocity": 102}, {"time": 3032, "pitch": 72, "duration": 6, "velocity": 117}, {"time": 3038, "pitch": 74, "duration": 6, "velocity": 119}, {"time": 3044, "pitch": 77, "duration": 18, "velocity": 123}, {"time": 3062, "pitch": 79, "duration": 6, "velocity": 117}, {"time": 3068, "pitch": 79, "duration": 6, "velocity": 114}, {"time": 3074, "pitch": 77, "duration": 6, "velocity": 119}, {"time": 3080, "pitch": 74, "duration": 6, "velocity": 117}, {"time": 3086, "pitch": 72, "duration": 4, "velocity": 116}, {"time": 3089, "pitch": 74, "duration": 9, "velocity": 117}, {"time": 3098, "pitch": 74, "duration": 6, "velocity": 114}, {"time": 3104, "pitch": 74, "duration": 4, "velocity": 113}, {"time": 3107, "pitch": 72, "duration": 6, "velocity": 114}, {"time": 3113, "pitch": 69, "duration": 15, "velocity": 113}, {"time": 3128, "pitch": 72, "duration": 6, "velocity": 114}, {"time": 3134, "pitch": 69, "duration": 6, "velocity": 119}, {"time": 3140, "pitch": 67, "duration": 18, "velocity": 119}, {"time": 3158, "pitch": 67, "duration": 3, "velocity": 117}, {"time": 3161, "pitch": 69, "duration": 3, "velocity": 114}, {"time": 3164, "pitch": 67, "duration": 6, "velocity": 119}, {"time": 3170, "pitch": 65, "duration": 10, "velocity": 96}, {"time": 3180, "pitch": 62, "duration": 7, "velocity": 98}, {"time": 3187, "pitch": 65, "duration": 12, "velocity": 100}, {"time": 3199, "pitch": 65, "duration": 17, "velocity": 107}]}, {"program": 0, "is_drum": false, "name": "PIANO", "notes": [{"time": 22, "pitch": 53, "duration": 38, "velocity": 84}, {"time": 28, "pitch": 60, "duration": 30, "velocity": 68}, {"time": 34, "pitch": 67, "duration": 6, "velocity": 78}, {"time": 40, "pitch": 69, "duration": 34, "velocity": 78}, {"time": 70, "pitch": 45, "duration": 38, "velocity": 78}, {"time": 76, "pitch": 57, "duration": 31, "velocity": 64}, {"time": 82, "pitch": 60, "duration": 29, "velocity": 68}, {"time": 88, "pitch": 69, "duration": 25, "velocity": 77}, {"time": 118, "pitch": 50, "duration": 39, "velocity": 86}, {"time": 124, "pitch": 57, "duration": 32, "velocity": 70}, {"time": 130, "pitch": 62, "duration": 23, "velocity": 76}, {"time": 136, "pitch": 69, "duration": 29, "velocity": 79}, {"time": 166, "pitch": 43, "duration": 38, "velocity": 82}, {"time": 172, "pitch": 50, "duration": 32, "velocity": 80}, {"time": 178, "pitch": 55, "duration": 26, "velocity": 77}, {"time": 184, "pitch": 58, "duration": 26, "velocity": 72}, {"time": 184, "pitch": 67, "duration": 28, "velocity": 38}, {"time": 202, "pitch": 62, "duration": 10, "velocity": 83}, {"time": 214, "pitch": 48, "duration": 87, "velocity": 81}, {"time": 220, "pitch": 55, "duration": 81, "velocity": 73}, {"time": 226, "pitch": 60, "duration": 15, "velocity": 81}, {"time": 232, "pitch": 65, "duration": 24, "velocity": 84}, {"time": 250, "pitch": 60, "duration": 51, "velocity": 78}, {"time": 256, "pitch": 67, "duration": 6, "velocity": 81}, {"time": 262, "pitch": 64, "duration": 37, "velocity": 81}, {"time": 310, "pitch": 53, "duration": 37, "velocity": 83}, {"time": 316, "pitch": 60, "duration": 29, "velocity": 65}, {"time": 322, "pitch": 65, "duration": 22, "velocity": 76}, {"time": 328, "pitch": 67, "duration": 20, "velocity": 76}, {"time": 328, "pitch": 72, "duration": 10, "velocity": 73}, {"time": 346, "pitch": 69, "duration": 12, "velocity": 81}, {"time": 358, "pitch": 45, "duration": 39, "velocity": 81}, {"time": 364, "pitch": 52, "duration": 33, "velocity": 70}, {"time": 370, "pitch": 57, "duration": 16, "velocity": 76}, {"time": 376, "pitch": 60, "duration": 15, "velocity": 77}, {"time": 376, "pitch": 69, "duration": 19, "velocity": 78}, {"time": 394, "pitch": 57, "duration": 12, "velocity": 30}, {"time": 400, "pitch": 64, "duration": 7, "velocity": 83}, {"time": 406, "pitch": 50, "duration": 39, "velocity": 81}, {"time": 406, "pitch": 65, "duration": 10, "velocity": 88}, {"time": 412, "pitch": 57, "duration": 31, "velocity": 68}, {"time": 418, "pitch": 62, "duration": 24, "velocity": 77}, {"time": 424, "pitch": 65, "duration": 12, "velocity": 78}, {"time": 424, "pitch": 74, "duration": 10, "velocity": 81}, {"time": 436, "pitch": 69, "duration": 6, "velocity": 70}, {"time": 442, "pitch": 65, "duration": 12, "velocity": 81}, {"time": 454, "pitch": 43, "duration": 18, "velocity": 83}, {"time": 460, "pitch": 50, "duration": 12, "velocity": 76}, {"time": 466, "pitch": 55, "duration": 12, "velocity": 79}, {"time": 478, "pitch": 48, "duration": 15, "velocity": 81}, {"time": 484, "pitch": 55, "duration": 11, "velocity": 77}, {"time": 490, "pitch": 60, "duration": 4, "velocity": 88}, {"time": 502, "pitch": 50, "duration": 37, "velocity": 86}, {"time": 508, "pitch": 57, "duration": 28, "velocity": 71}, {"time": 514, "pitch": 62, "duration": 22, "velocity": 77}, {"time": 520, "pitch": 65, "duration": 23, "velocity": 83}, {"time": 520, "pitch": 74, "duration": 18, "velocity": 87}, {"time": 538, "pitch": 69, "duration": 6, "velocity": 83}, {"time": 544, "pitch": 74, "duration": 3, "velocity": 84}, {"time": 550, "pitch": 45, "duration": 37, "velocity": 76}, {"time": 550, "pitch": 64, "duration": 12, "velocity": 86}, {"time": 550, "pitch": 72, "duration": 5, "velocity": 85}, {"time": 556, "pitch": 52, "duration": 31, "velocity": 70}, {"time": 562, "pitch": 57, "duration": 14, "velocity": 73}, {"time": 568, "pitch": 60, "duration": 16, "velocity": 81}, {"time": 568, "pitch": 69, "duration": 13, "velocity": 83}, {"time": 580, "pitch": 57, "duration": 6, "velocity": 72}, {"time": 586, "pitch": 64, "duration": 12, "velocity": 87}, {"time": 598, "pitch": 43, "duration": 41, "velocity": 85}, {"time": 604, "pitch": 50, "duration": 35, "velocity": 71}, {"time": 610, "pitch": 55, "duration": 30, "velocity": 78}, {"time": 616, "pitch": 62, "duration": 6, "velocity": 72}, {"time": 622, "pitch": 58, "duration": 20, "velocity": 81}, {"time": 622, "pitch": 67, "duration": 19, "velocity": 78}, {"time": 646, "pitch": 48, "duration": 37, "velocity": 85}, {"time": 652, "pitch": 55, "duration": 30, "velocity": 72}, {"time": 658, "pitch": 60, "duration": 20, "velocity": 80}, {"time": 664, "pitch": 65, "duration": 6, "velocity": 83}, {"time": 670, "pitch": 64, "duration": 24, "velocity": 86}, {"time": 670, "pitch": 67, "duration": 18, "velocity": 81}, {"time": 694, "pitch": 53, "duration": 38, "velocity": 81}, {"time": 694, "pitch": 60, "duration": 1, "velocity": 65}, {"time": 694, "pitch": 69, "duration": 8, "velocity": 88}, {"time": 700, "pitch": 60, "duration": 30, "velocity": 73}, {"time": 706, "pitch": 65, "duration": 14, "velocity": 86}, {"time": 712, "pitch": 67, "duration": 15, "velocity": 79}, {"time": 712, "pitch": 72, "duration": 11, "velocity": 81}, {"time": 724, "pitch": 65, "duration": 6, "velocity": 77}, {"time": 730, "pitch": 69, "duration": 6, "velocity": 98}, {"time": 736, "pitch": 72, "duration": 6, "velocity": 86}, {"time": 742, "pitch": 45, "duration": 37, "velocity": 79}, {"time": 742, "pitch": 64, "duration": 12, "velocity": 85}, {"time": 742, "pitch": 69, "duration": 12, "velocity": 88}, {"time": 748, "pitch": 52, "duration": 32, "velocity": 64}, {"time": 754, "pitch": 57, "duration": 13, "velocity": 76}, {"time": 760, "pitch": 60, "duration": 13, "velocity": 82}, {"time": 760, "pitch": 69, "duration": 14, "velocity": 80}, {"time": 772, "pitch": 57, "duration": 9, "velocity": 73}, {"time": 778, "pitch": 64, "duration": 7, "velocity": 88}, {"time": 784, "pitch": 69, "duration": 6, "velocity": 88}, {"time": 790, "pitch": 50, "duration": 32, "velocity": 75}, {"time": 790, "pitch": 62, "duration": 5, "velocity": 82}, {"time": 790, "pitch": 65, "duration": 6, "velocity": 81}, {"time": 796, "pitch": 57, "duration": 25, "velocity": 71}, {"time": 802, "pitch": 62, "duration": 15, "velocity": 75}, {"time": 808, "pitch": 65, "duration": 14, "velocity": 78}, {"time": 808, "pitch": 74, "duration": 13, "velocity": 80}, {"time": 814, "pitch": 48, "duration": 17, "velocity": 88}, {"time": 826, "pitch": 64, "duration": 12, "velocity": 85}, {"time": 826, "pitch": 67, "duration": 12, "velocity": 77}, {"time": 838, "pitch": 43, "duration": 16, "velocity": 86}, {"time": 844, "pitch": 50, "duration": 12, "velocity": 65}, {"time": 850, "pitch": 55, "duration": 12, "velocity": 81}, {"time": 856, "pitch": 58, "duration": 6, "velocity": 84}, {"time": 856, "pitch": 67, "duration": 6, "velocity": 85}, {"time": 862, "pitch": 48, "duration": 17, "velocity": 83}, {"time": 868, "pitch": 55, "duration": 11, "velocity": 75}, {"time": 874, "pitch": 60, "duration": 4, "velocity": 84}, {"time": 880, "pitch": 62, "duration": 5, "velocity": 85}, {"time": 880, "pitch": 67, "duration": 6, "velocity": 80}, {"time": 886, "pitch": 50, "duration": 39, "velocity": 91}, {"time": 892, "pitch": 57, "duration": 31, "velocity": 74}, {"time": 898, "pitch": 62, "duration": 12, "velocity": 83}, {"time": 904, "pitch": 65, "duration": 12, "velocity": 87}, {"time": 904, "pitch": 74, "duration": 10, "velocity": 88}, {"time": 916, "pitch": 62, "duration": 7, "velocity": 86}, {"time": 922, "pitch": 69, "duration": 18, "velocity": 110}, {"time": 934, "pitch": 45, "duration": 38, "velocity": 85}, {"time": 940, "pitch": 52, "duration": 32, "velocity": 70}, {"time": 946, "pitch": 57, "duration": 15, "velocity": 85}, {"time": 952, "pitch": 60, "duration": 16, "velocity": 90}, {"time": 952, "pitch": 69, "duration": 19, "velocity": 89}, {"time": 964, "pitch": 57, "duration": 8, "velocity": 86}, {"time": 970, "pitch": 64, "duration": 11, "velocity": 89}, {"time": 982, "pitch": 43, "duration": 16, "velocity": 88}, {"time": 988, "pitch": 50, "duration": 12, "velocity": 77}, {"time": 994, "pitch": 55, "duration": 8, "velocity": 79}, {"time": 1000, "pitch": 58, "duration": 5, "velocity": 83}, {"time": 1000, "pitch": 67, "duration": 4, "velocity": 74}, {"time": 1006, "pitch": 48, "duration": 15, "velocity": 85}, {"time": 1012, "pitch": 55, "duration": 8, "velocity": 77}, {"time": 1018, "pitch": 60, "duration": 2, "velocity": 82}, {"time": 1018, "pitch": 64, "duration": 12, "velocity": 88}, {"time": 1018, "pitch": 67, "duration": 10, "velocity": 87}, {"time": 1030, "pitch": 41, "duration": 42, "velocity": 87}, {"time": 1030, "pitch": 60, "duration": 15, "velocity": 85}, {"time": 1030, "pitch": 69, "duration": 3, "velocity": 88}, {"time": 1036, "pitch": 48, "duration": 35, "velocity": 68}, {"time": 1042, "pitch": 53, "duration": 14, "velocity": 87}, {"time": 1048, "pitch": 57, "duration": 6, "velocity": 88}, {"time": 1048, "pitch": 65, "duration": 4, "velocity": 80}, {"time": 1054, "pitch": 60, "duration": 4, "velocity": 88}, {"time": 1054, "pitch": 65, "duration": 4, "velocity": 88}, {"time": 1060, "pitch": 53, "duration": 7, "velocity": 88}, {"time": 1066, "pitch": 60, "duration": 6, "velocity": 100}, {"time": 1066, "pitch": 69, "duration": 7, "velocity": 93}, {"time": 1072, "pitch": 53, "duration": 2, "velocity": 88}, {"time": 1078, "pitch": 41, "duration": 37, "velocity": 94}, {"time": 1078, "pitch": 60, "duration": 2, "velocity": 87}, {"time": 1078, "pitch": 65, "duration": 4, "velocity": 88}, {"time": 1078, "pitch": 69, "duration": 4, "velocity": 89}, {"time": 1084, "pitch": 48, "duration": 31, "velocity": 74}, {"time": 1090, "pitch": 65, "duration": 5, "velocity": 93}, {"time": 1090, "pitch": 72, "duration": 5, "velocity": 91}, {"time": 1096, "pitch": 53, "duration": 8, "velocity": 82}, {"time": 1102, "pitch": 60, "duration": 6, "velocity": 92}, {"time": 1102, "pitch": 69, "duration": 7, "velocity": 98}, {"time": 1111, "pitch": 53, "duration": 5, "velocity": 84}, {"time": 1114, "pitch": 60, "duration": 6, "velocity": 108}, {"time": 1114, "pitch": 69, "duration": 6, "velocity": 104}, {"time": 1120, "pitch": 64, "duration": 5, "velocity": 87}, {"time": 1126, "pitch": 50, "duration": 39, "velocity": 89}, {"time": 1126, "pitch": 62, "duration": 4, "velocity": 87}, {"time": 1126, "pitch": 65, "duration": 6, "velocity": 93}, {"time": 1126, "pitch": 69, "duration": 6, "velocity": 89}, {"time": 1132, "pitch": 57, "duration": 32, "velocity": 67}, {"time": 1138, "pitch": 62, "duration": 2, "velocity": 87}, {"time": 1138, "pitch": 65, "duration": 4, "velocity": 89}, {"time": 1138, "pitch": 69, "duration": 5, "velocity": 89}, {"time": 1144, "pitch": 62, "duration": 7, "velocity": 81}, {"time": 1150, "pitch": 65, "duration": 7, "velocity": 94}, {"time": 1150, "pitch": 74, "duration": 7, "velocity": 91}, {"time": 1156, "pitch": 62, "duration": 7, "velocity": 87}, {"time": 1159, "pitch": 65, "duration": 6, "velocity": 104}, {"time": 1159, "pitch": 74, "duration": 6, "velocity": 98}, {"time": 1168, "pitch": 69, "duration": 2, "velocity": 91}, {"time": 1174, "pitch": 46, "duration": 19, "velocity": 87}, {"time": 1174, "pitch": 62, "duration": 6, "velocity": 89}, {"time": 1174, "pitch": 65, "duration": 6, "velocity": 100}, {"time": 1174, "pitch": 70, "duration": 6, "velocity": 86}, {"time": 1180, "pitch": 53, "duration": 6, "velocity": 72}, {"time": 1186, "pitch": 58, "duration": 7, "velocity": 83}, {"time": 1186, "pitch": 62, "duration": 7, "velocity": 102}, {"time": 1186, "pitch": 65, "duration": 11, "velocity": 104}, {"time": 1186, "pitch": 70, "duration": 9, "velocity": 87}, {"time": 1198, "pitch": 48, "duration": 16, "velocity": 85}, {"time": 1198, "pitch": 64, "duration": 6, "velocity": 89}, {"time": 1198, "pitch": 67, "duration": 6, "velocity": 94}, {"time": 1198, "pitch": 72, "duration": 6, "velocity": 92}, {"time": 1204, "pitch": 55, "duration": 9, "velocity": 68}, {"time": 1210, "pitch": 60, "duration": 3, "velocity": 82}, {"time": 1210, "pitch": 64, "duration": 4, "velocity": 91}, {"time": 1210, "pitch": 67, "duration": 4, "velocity": 100}, {"time": 1210, "pitch": 72, "duration": 3, "velocity": 91}, {"time": 1222, "pitch": 41, "duration": 37, "velocity": 87}, {"time": 1222, "pitch": 60, "duration": 6, "velocity": 88}, {"time": 1222, "pitch": 65, "duration": 4, "velocity": 96}, {"time": 1222, "pitch": 69, "duration": 5, "velocity": 91}, {"time": 1228, "pitch": 48, "duration": 31, "velocity": 67}, {"time": 1234, "pitch": 53, "duration": 13, "velocity": 87}, {"time": 1240, "pitch": 55, "duration": 5, "velocity": 88}, {"time": 1240, "pitch": 60, "duration": 5, "velocity": 88}, {"time": 1246, "pitch": 57, "duration": 3, "velocity": 92}, {"time": 1246, "pitch": 60, "duration": 3, "velocity": 87}, {"time": 1252, "pitch": 53, "duration": 8, "velocity": 85}, {"time": 1258, "pitch": 60, "duration": 6, "velocity": 96}, {"time": 1258, "pitch": 65, "duration": 8, "velocity": 96}, {"time": 1258, "pitch": 69, "duration": 7, "velocity": 90}, {"time": 1269, "pitch": 41, "duration": 21, "velocity": 87}, {"time": 1269, "pitch": 60, "duration": 8, "velocity": 84}, {"time": 1269, "pitch": 65, "duration": 8, "velocity": 88}, {"time": 1269, "pitch": 69, "duration": 7, "velocity": 88}, {"time": 1281, "pitch": 60, "duration": 7, "velocity": 79}, {"time": 1281, "pitch": 65, "duration": 8, "velocity": 81}, {"time": 1281, "pitch": 69, "duration": 7, "velocity": 84}, {"time": 1293, "pitch": 60, "duration": 7, "velocity": 87}, {"time": 1293, "pitch": 65, "duration": 8, "velocity": 88}, {"time": 1293, "pitch": 69, "duration": 7, "velocity": 86}, {"time": 1299, "pitch": 52, "duration": 3, "velocity": 90}, {"time": 1305, "pitch": 60, "duration": 8, "velocity": 87}, {"time": 1305, "pitch": 65, "duration": 9, "velocity": 88}, {"time": 1305, "pitch": 69, "duration": 8, "velocity": 89}, {"time": 1317, "pitch": 50, "duration": 38, "velocity": 88}, {"time": 1317, "pitch": 62, "duration": 7, "velocity": 87}, {"time": 1317, "pitch": 65, "duration": 7, "velocity": 88}, {"time": 1317, "pitch": 69, "duration": 6, "velocity": 88}, {"time": 1323, "pitch": 57, "duration": 8, "velocity": 58}, {"time": 1329, "pitch": 62, "duration": 8, "velocity": 87}, {"time": 1329, "pitch": 65, "duration": 8, "velocity": 88}, {"time": 1329, "pitch": 69, "duration": 6, "velocity": 86}, {"time": 1341, "pitch": 62, "duration": 6, "velocity": 86}, {"time": 1341, "pitch": 65, "duration": 7, "velocity": 87}, {"time": 1341, "pitch": 69, "duration": 6, "velocity": 85}, {"time": 1347, "pitch": 57, "duration": 6, "velocity": 76}, {"time": 1353, "pitch": 62, "duration": 7, "velocity": 98}, {"time": 1353, "pitch": 65, "duration": 4, "velocity": 102}, {"time": 1353, "pitch": 69, "duration": 4, "velocity": 87}, {"time": 1365, "pitch": 43, "duration": 19, "velocity": 82}, {"time": 1365, "pitch": 58, "duration": 7, "velocity": 85}, {"time": 1365, "pitch": 62, "duration": 6, "velocity": 88}, {"time": 1365, "pitch": 67, "duration": 6, "velocity": 88}, {"time": 1371, "pitch": 50, "duration": 7, "velocity": 65}, {"time": 1377, "pitch": 58, "duration": 6, "velocity": 89}, {"time": 1377, "pitch": 67, "duration": 6, "velocity": 93}, {"time": 1389, "pitch": 48, "duration": 14, "velocity": 84}, {"time": 1389, "pitch": 60, "duration": 7, "velocity": 87}, {"time": 1389, "pitch": 64, "duration": 9, "velocity": 89}, {"time": 1389, "pitch": 67, "duration": 7, "velocity": 87}, {"time": 1395, "pitch": 55, "duration": 8, "velocity": 70}, {"time": 1401, "pitch": 60, "duration": 7, "velocity": 86}, {"time": 1401, "pitch": 64, "duration": 9, "velocity": 87}, {"time": 1401, "pitch": 67, "duration": 6, "velocity": 87}, {"time": 1413, "pitch": 41, "duration": 34, "velocity": 84}, {"time": 1413, "pitch": 60, "duration": 11, "velocity": 83}, {"time": 1413, "pitch": 65, "duration": 6, "velocity": 87}, {"time": 1413, "pitch": 69, "duration": 7, "velocity": 89}, {"time": 1419, "pitch": 48, "duration": 28, "velocity": 72}, {"time": 1425, "pitch": 53, "duration": 22, "velocity": 84}, {"time": 1428, "pitch": 57, "duration": 6, "velocity": 81}, {"time": 1428, "pitch": 65, "duration": 5, "velocity": 84}, {"time": 1434, "pitch": 65, "duration": 10, "velocity": 79}, {"time": 1437, "pitch": 60, "duration": 9, "velocity": 90}, {"time": 1461, "pitch": 53, "duration": 42, "velocity": 79}, {"time": 1467, "pitch": 60, "duration": 39, "velocity": 63}, {"time": 1473, "pitch": 65, "duration": 30, "velocity": 78}, {"time": 1479, "pitch": 67, "duration": 7, "velocity": 80}, {"time": 1485, "pitch": 69, "duration": 30, "velocity": 78}, {"time": 1509, "pitch": 53, "duration": 39, "velocity": 73}, {"time": 1515, "pitch": 60, "duration": 31, "velocity": 66}, {"time": 1521, "pitch": 69, "duration": 37, "velocity": 74}, {"time": 1557, "pitch": 50, "duration": 43, "velocity": 77}, {"time": 1563, "pitch": 57, "duration": 41, "velocity": 66}, {"time": 1569, "pitch": 62, "duration": 31, "velocity": 80}, {"time": 1575, "pitch": 69, "duration": 34, "velocity": 88}, {"time": 1605, "pitch": 50, "duration": 40, "velocity": 79}, {"time": 1611, "pitch": 57, "duration": 31, "velocity": 74}, {"time": 1617, "pitch": 65, "duration": 6, "velocity": 74}, {"time": 1623, "pitch": 62, "duration": 29, "velocity": 83}, {"time": 1653, "pitch": 46, "duration": 39, "velocity": 82}, {"time": 1659, "pitch": 53, "duration": 31, "velocity": 64}, {"time": 1665, "pitch": 58, "duration": 14, "velocity": 72}, {"time": 1671, "pitch": 62, "duration": 16, "velocity": 88}, {"time": 1671, "pitch": 70, "duration": 14, "velocity": 87}, {"time": 1683, "pitch": 58, "duration": 7, "velocity": 77}, {"time": 1689, "pitch": 65, "duration": 6, "velocity": 88}, {"time": 1695, "pitch": 62, "duration": 4, "velocity": 86}, {"time": 1701, "pitch": 45, "duration": 16, "velocity": 86}, {"time": 1707, "pitch": 52, "duration": 12, "velocity": 66}, {"time": 1713, "pitch": 57, "duration": 12, "velocity": 80}, {"time": 1719, "pitch": 60, "duration": 3, "velocity": 81}, {"time": 1719, "pitch": 69, "duration": 12, "velocity": 77}, {"time": 1725, "pitch": 50, "duration": 15, "velocity": 84}, {"time": 1725, "pitch": 62, "duration": 6, "velocity": 69}, {"time": 1725, "pitch": 65, "duration": 6, "velocity": 78}, {"time": 1731, "pitch": 57, "duration": 8, "velocity": 70}, {"time": 1737, "pitch": 62, "duration": 11, "velocity": 94}, {"time": 1737, "pitch": 69, "duration": 3, "velocity": 93}, {"time": 1749, "pitch": 43, "duration": 18, "velocity": 82}, {"time": 1749, "pitch": 58, "duration": 31, "velocity": 83}, {"time": 1749, "pitch": 67, "duration": 33, "velocity": 87}, {"time": 1755, "pitch": 50, "duration": 12, "velocity": 58}, {"time": 1761, "pitch": 55, "duration": 16, "velocity": 87}, {"time": 1770, "pitch": 62, "duration": 18, "velocity": 87}, {"time": 1791, "pitch": 62, "duration": 5, "velocity": 84}, {"time": 1797, "pitch": 48, "duration": 76, "velocity": 81}, {"time": 1797, "pitch": 60, "duration": 4, "velocity": 76}, {"time": 1797, "pitch": 64, "duration": 9, "velocity": 81}, {"time": 1797, "pitch": 67, "duration": 11, "velocity": 78}, {"time": 1803, "pitch": 55, "duration": 69, "velocity": 67}, {"time": 1809, "pitch": 60, "duration": 16, "velocity": 70}, {"time": 1815, "pitch": 64, "duration": 17, "velocity": 81}, {"time": 1815, "pitch": 72, "duration": 18, "velocity": 86}, {"time": 1827, "pitch": 60, "duration": 44, "velocity": 72}, {"time": 1833, "pitch": 67, "duration": 11, "velocity": 77}, {"time": 1845, "pitch": 64, "duration": 26, "velocity": 78}, {"time": 1845, "pitch": 72, "duration": 27, "velocity": 81}, {"time": 1893, "pitch": 53, "duration": 39, "velocity": 81}, {"time": 1893, "pitch": 60, "duration": 1, "velocity": 65}, {"time": 1893, "pitch": 69, "duration": 8, "velocity": 88}, {"time": 1899, "pitch": 60, "duration": 30, "velocity": 73}, {"time": 1905, "pitch": 65, "duration": 14, "velocity": 86}, {"time": 1911, "pitch": 67, "duration": 15, "velocity": 79}, {"time": 1911, "pitch": 72, "duration": 11, "velocity": 81}, {"time": 1923, "pitch": 65, "duration": 6, "velocity": 77}, {"time": 1929, "pitch": 69, "duration": 6, "velocity": 98}, {"time": 1935, "pitch": 72, "duration": 6, "velocity": 86}, {"time": 1941, "pitch": 45, "duration": 38, "velocity": 79}, {"time": 1941, "pitch": 64, "duration": 13, "velocity": 85}, {"time": 1941, "pitch": 69, "duration": 12, "velocity": 88}, {"time": 1947, "pitch": 52, "duration": 32, "velocity": 64}, {"time": 1953, "pitch": 57, "duration": 13, "velocity": 76}, {"time": 1959, "pitch": 60, "duration": 13, "velocity": 82}, {"time": 1959, "pitch": 69, "duration": 15, "velocity": 80}, {"time": 1971, "pitch": 57, "duration": 9, "velocity": 73}, {"time": 1977, "pitch": 64, "duration": 7, "velocity": 88}, {"time": 1983, "pitch": 69, "duration": 6, "velocity": 88}, {"time": 1989, "pitch": 50, "duration": 32, "velocity": 75}, {"time": 1989, "pitch": 62, "duration": 5, "velocity": 82}, {"time": 1989, "pitch": 65, "duration": 7, "velocity": 81}, {"time": 1995, "pitch": 57, "duration": 25, "velocity": 71}, {"time": 2001, "pitch": 62, "duration": 15, "velocity": 75}, {"time": 2007, "pitch": 65, "duration": 14, "velocity": 78}, {"time": 2007, "pitch": 74, "duration": 14, "velocity": 80}, {"time": 2013, "pitch": 48, "duration": 17, "velocity": 88}, {"time": 2025, "pitch": 64, "duration": 12, "velocity": 85}, {"time": 2025, "pitch": 67, "duration": 12, "velocity": 77}, {"time": 2037, "pitch": 43, "duration": 17, "velocity": 86}, {"time": 2043, "pitch": 50, "duration": 12, "velocity": 65}, {"time": 2049, "pitch": 55, "duration": 12, "velocity": 81}, {"time": 2055, "pitch": 58, "duration": 7, "velocity": 84}, {"time": 2055, "pitch": 67, "duration": 7, "velocity": 85}, {"time": 2061, "pitch": 48, "duration": 17, "velocity": 83}, {"time": 2067, "pitch": 55, "duration": 11, "velocity": 75}, {"time": 2073, "pitch": 60, "duration": 4, "velocity": 84}, {"time": 2079, "pitch": 62, "duration": 5, "velocity": 85}, {"time": 2079, "pitch": 67, "duration": 6, "velocity": 80}, {"time": 2085, "pitch": 50, "duration": 39, "velocity": 91}, {"time": 2091, "pitch": 57, "duration": 31, "velocity": 74}, {"time": 2097, "pitch": 62, "duration": 12, "velocity": 83}, {"time": 2103, "pitch": 65, "duration": 13, "velocity": 87}, {"time": 2103, "pitch": 74, "duration": 11, "velocity": 88}, {"time": 2115, "pitch": 62, "duration": 7, "velocity": 86}, {"time": 2121, "pitch": 69, "duration": 18, "velocity": 110}, {"time": 2130, "pitch": 45, "duration": 38, "velocity": 85}, {"time": 2139, "pitch": 52, "duration": 32, "velocity": 70}, {"time": 2145, "pitch": 57, "duration": 16, "velocity": 85}, {"time": 2151, "pitch": 60, "duration": 16, "velocity": 90}, {"time": 2151, "pitch": 69, "duration": 20, "velocity": 89}, {"time": 2163, "pitch": 57, "duration": 9, "velocity": 86}, {"time": 2169, "pitch": 64, "duration": 11, "velocity": 89}, {"time": 2181, "pitch": 43, "duration": 16, "velocity": 88}, {"time": 2187, "pitch": 50, "duration": 12, "velocity": 77}, {"time": 2193, "pitch": 55, "duration": 8, "velocity": 79}, {"time": 2199, "pitch": 58, "duration": 5, "velocity": 83}, {"time": 2199, "pitch": 67, "duration": 5, "velocity": 74}, {"time": 2205, "pitch": 48, "duration": 15, "velocity": 85}, {"time": 2211, "pitch": 55, "duration": 9, "velocity": 77}, {"time": 2217, "pitch": 60, "duration": 3, "velocity": 82}, {"time": 2217, "pitch": 64, "duration": 12, "velocity": 88}, {"time": 2217, "pitch": 67, "duration": 11, "velocity": 87}, {"time": 2229, "pitch": 41, "duration": 42, "velocity": 87}, {"time": 2229, "pitch": 60, "duration": 15, "velocity": 85}, {"time": 2229, "pitch": 69, "duration": 4, "velocity": 88}, {"time": 2235, "pitch": 48, "duration": 36, "velocity": 68}, {"time": 2241, "pitch": 53, "duration": 14, "velocity": 87}, {"time": 2247, "pitch": 57, "duration": 6, "velocity": 88}, {"time": 2247, "pitch": 65, "duration": 5, "velocity": 80}, {"time": 2253, "pitch": 60, "duration": 4, "velocity": 88}, {"time": 2253, "pitch": 65, "duration": 4, "velocity": 88}, {"time": 2259, "pitch": 53, "duration": 7, "velocity": 88}, {"time": 2265, "pitch": 60, "duration": 7, "velocity": 100}, {"time": 2265, "pitch": 69, "duration": 8, "velocity": 93}, {"time": 2271, "pitch": 53, "duration": 2, "velocity": 88}, {"time": 2276, "pitch": 41, "duration": 37, "velocity": 94}, {"time": 2276, "pitch": 60, "duration": 3, "velocity": 87}, {"time": 2276, "pitch": 65, "duration": 5, "velocity": 88}, {"time": 2276, "pitch": 69, "duration": 5, "velocity": 89}, {"time": 2282, "pitch": 48, "duration": 32, "velocity": 74}, {"time": 2288, "pitch": 65, "duration": 6, "velocity": 93}, {"time": 2288, "pitch": 72, "duration": 5, "velocity": 91}, {"time": 2294, "pitch": 53, "duration": 8, "velocity": 82}, {"time": 2300, "pitch": 60, "duration": 7, "velocity": 92}, {"time": 2300, "pitch": 69, "duration": 7, "velocity": 98}, {"time": 2309, "pitch": 53, "duration": 6, "velocity": 84}, {"time": 2312, "pitch": 60, "duration": 7, "velocity": 108}, {"time": 2312, "pitch": 69, "duration": 7, "velocity": 104}, {"time": 2318, "pitch": 64, "duration": 6, "velocity": 87}, {"time": 2324, "pitch": 50, "duration": 40, "velocity": 89}, {"time": 2324, "pitch": 62, "duration": 4, "velocity": 87}, {"time": 2324, "pitch": 65, "duration": 6, "velocity": 93}, {"time": 2324, "pitch": 69, "duration": 6, "velocity": 89}, {"time": 2330, "pitch": 57, "duration": 32, "velocity": 67}, {"time": 2336, "pitch": 62, "duration": 2, "velocity": 87}, {"time": 2336, "pitch": 65, "duration": 4, "velocity": 89}, {"time": 2336, "pitch": 69, "duration": 5, "velocity": 89}, {"time": 2342, "pitch": 62, "duration": 8, "velocity": 81}, {"time": 2348, "pitch": 65, "duration": 8, "velocity": 94}, {"time": 2348, "pitch": 74, "duration": 7, "velocity": 91}, {"time": 2354, "pitch": 62, "duration": 7, "velocity": 87}, {"time": 2357, "pitch": 65, "duration": 7, "velocity": 104}, {"time": 2357, "pitch": 74, "duration": 6, "velocity": 98}, {"time": 2366, "pitch": 69, "duration": 2, "velocity": 91}, {"time": 2372, "pitch": 46, "duration": 20, "velocity": 87}, {"time": 2372, "pitch": 62, "duration": 7, "velocity": 89}, {"time": 2372, "pitch": 65, "duration": 7, "velocity": 100}, {"time": 2372, "pitch": 70, "duration": 7, "velocity": 86}, {"time": 2378, "pitch": 53, "duration": 6, "velocity": 72}, {"time": 2384, "pitch": 58, "duration": 7, "velocity": 83}, {"time": 2384, "pitch": 62, "duration": 7, "velocity": 102}, {"time": 2384, "pitch": 65, "duration": 11, "velocity": 104}, {"time": 2384, "pitch": 70, "duration": 9, "velocity": 87}, {"time": 2396, "pitch": 48, "duration": 17, "velocity": 85}, {"time": 2396, "pitch": 64, "duration": 7, "velocity": 89}, {"time": 2396, "pitch": 67, "duration": 7, "velocity": 94}, {"time": 2396, "pitch": 72, "duration": 7, "velocity": 92}, {"time": 2402, "pitch": 55, "duration": 10, "velocity": 68}, {"time": 2408, "pitch": 60, "duration": 3, "velocity": 82}, {"time": 2408, "pitch": 64, "duration": 5, "velocity": 91}, {"time": 2408, "pitch": 67, "duration": 5, "velocity": 100}, {"time": 2408, "pitch": 72, "duration": 4, "velocity": 91}, {"time": 2420, "pitch": 41, "duration": 38, "velocity": 87}, {"time": 2420, "pitch": 60, "duration": 7, "velocity": 88}, {"time": 2420, "pitch": 65, "duration": 5, "velocity": 96}, {"time": 2420, "pitch": 69, "duration": 5, "velocity": 91}, {"time": 2426, "pitch": 48, "duration": 32, "velocity": 67}, {"time": 2432, "pitch": 53, "duration": 14, "velocity": 87}, {"time": 2438, "pitch": 55, "duration": 5, "velocity": 88}, {"time": 2438, "pitch": 60, "duration": 5, "velocity": 88}, {"time": 2444, "pitch": 57, "duration": 3, "velocity": 92}, {"time": 2444, "pitch": 60, "duration": 4, "velocity": 87}, {"time": 2450, "pitch": 53, "duration": 9, "velocity": 85}, {"time": 2456, "pitch": 60, "duration": 7, "velocity": 96}, {"time": 2456, "pitch": 65, "duration": 8, "velocity": 96}, {"time": 2456, "pitch": 69, "duration": 7, "velocity": 90}, {"time": 2468, "pitch": 41, "duration": 35, "velocity": 87}, {"time": 2468, "pitch": 60, "duration": 8, "velocity": 84}, {"time": 2468, "pitch": 65, "duration": 8, "velocity": 88}, {"time": 2468, "pitch": 69, "duration": 7, "velocity": 88}, {"time": 2480, "pitch": 60, "duration": 8, "velocity": 79}, {"time": 2480, "pitch": 65, "duration": 8, "velocity": 81}, {"time": 2480, "pitch": 69, "duration": 7, "velocity": 84}, {"time": 2492, "pitch": 60, "duration": 7, "velocity": 87}, {"time": 2492, "pitch": 65, "duration": 8, "velocity": 88}, {"time": 2492, "pitch": 69, "duration": 7, "velocity": 86}, {"time": 2498, "pitch": 52, "duration": 4, "velocity": 90}, {"time": 2504, "pitch": 60, "duration": 8, "velocity": 87}, {"time": 2504, "pitch": 65, "duration": 9, "velocity": 88}, {"time": 2504, "pitch": 69, "duration": 8, "velocity": 89}, {"time": 2516, "pitch": 50, "duration": 39, "velocity": 88}, {"time": 2516, "pitch": 62, "duration": 7, "velocity": 87}, {"time": 2516, "pitch": 65, "duration": 7, "velocity": 88}, {"time": 2516, "pitch": 69, "duration": 7, "velocity": 88}, {"time": 2522, "pitch": 57, "duration": 8, "velocity": 58}, {"time": 2528, "pitch": 62, "duration": 8, "velocity": 87}, {"time": 2528, "pitch": 65, "duration": 8, "velocity": 88}, {"time": 2528, "pitch": 69, "duration": 7, "velocity": 86}, {"time": 2540, "pitch": 62, "duration": 7, "velocity": 86}, {"time": 2540, "pitch": 65, "duration": 7, "velocity": 87}, {"time": 2540, "pitch": 69, "duration": 6, "velocity": 85}, {"time": 2546, "pitch": 57, "duration": 7, "velocity": 76}, {"time": 2552, "pitch": 62, "duration": 7, "velocity": 98}, {"time": 2552, "pitch": 65, "duration": 4, "velocity": 102}, {"time": 2552, "pitch": 69, "duration": 4, "velocity": 87}, {"time": 2564, "pitch": 43, "duration": 19, "velocity": 82}, {"time": 2564, "pitch": 58, "duration": 7, "velocity": 85}, {"time": 2564, "pitch": 62, "duration": 6, "velocity": 88}, {"time": 2564, "pitch": 67, "duration": 6, "velocity": 88}, {"time": 2570, "pitch": 50, "duration": 8, "velocity": 65}, {"time": 2576, "pitch": 58, "duration": 6, "velocity": 89}, {"time": 2576, "pitch": 67, "duration": 6, "velocity": 93}, {"time": 2588, "pitch": 48, "duration": 14, "velocity": 84}, {"time": 2588, "pitch": 60, "duration": 7, "velocity": 87}, {"time": 2588, "pitch": 64, "duration": 9, "velocity": 89}, {"time": 2588, "pitch": 67, "duration": 7, "velocity": 87}, {"time": 2594, "pitch": 55, "duration": 8, "velocity": 70}, {"time": 2600, "pitch": 60, "duration": 8, "velocity": 86}, {"time": 2600, "pitch": 64, "duration": 9, "velocity": 87}, {"time": 2600, "pitch": 67, "duration": 6, "velocity": 87}, {"time": 2612, "pitch": 48, "duration": 42, "velocity": 85}, {"time": 2612, "pitch": 60, "duration": 9, "velocity": 79}, {"time": 2612, "pitch": 64, "duration": 8, "velocity": 86}, {"time": 2612, "pitch": 67, "duration": 8, "velocity": 86}, {"time": 2624, "pitch": 60, "duration": 8, "velocity": 79}, {"time": 2624, "pitch": 64, "duration": 8, "velocity": 80}, {"time": 2624, "pitch": 67, "duration": 7, "velocity": 83}, {"time": 2636, "pitch": 60, "duration": 8, "velocity": 84}, {"time": 2636, "pitch": 64, "duration": 8, "velocity": 87}, {"time": 2636, "pitch": 67, "duration": 8, "velocity": 87}, {"time": 2648, "pitch": 60, "duration": 6, "velocity": 88}, {"time": 2648, "pitch": 64, "duration": 6, "velocity": 88}, {"time": 2648, "pitch": 67, "duration": 6, "velocity": 91}, {"time": 2660, "pitch": 41, "duration": 37, "velocity": 94}, {"time": 2660, "pitch": 60, "duration": 3, "velocity": 87}, {"time": 2660, "pitch": 65, "duration": 5, "velocity": 88}, {"time": 2660, "pitch": 69, "duration": 5, "velocity": 89}, {"time": 2666, "pitch": 48, "duration": 32, "velocity": 74}, {"time": 2672, "pitch": 65, "duration": 6, "velocity": 93}, {"time": 2672, "pitch": 72, "duration": 5, "velocity": 91}, {"time": 2678, "pitch": 53, "duration": 8, "velocity": 82}, {"time": 2684, "pitch": 60, "duration": 7, "velocity": 92}, {"time": 2684, "pitch": 69, "duration": 7, "velocity": 98}, {"time": 2693, "pitch": 53, "duration": 6, "velocity": 84}, {"time": 2696, "pitch": 60, "duration": 7, "velocity": 108}, {"time": 2696, "pitch": 69, "duration": 7, "velocity": 104}, {"time": 2702, "pitch": 64, "duration": 6, "velocity": 87}, {"time": 2708, "pitch": 50, "duration": 40, "velocity": 89}, {"time": 2708, "pitch": 62, "duration": 4, "velocity": 87}, {"time": 2708, "pitch": 65, "duration": 6, "velocity": 93}, {"time": 2708, "pitch": 69, "duration": 6, "velocity": 89}, {"time": 2714, "pitch": 57, "duration": 32, "velocity": 67}, {"time": 2720, "pitch": 62, "duration": 2, "velocity": 87}, {"time": 2720, "pitch": 65, "duration": 4, "velocity": 89}, {"time": 2720, "pitch": 69, "duration": 5, "velocity": 89}, {"time": 2726, "pitch": 62, "duration": 8, "velocity": 81}, {"time": 2732, "pitch": 65, "duration": 8, "velocity": 94}, {"time": 2732, "pitch": 74, "duration": 7, "velocity": 91}, {"time": 2738, "pitch": 62, "duration": 7, "velocity": 87}, {"time": 2741, "pitch": 65, "duration": 7, "velocity": 104}, {"time": 2741, "pitch": 74, "duration": 6, "velocity": 98}, {"time": 2750, "pitch": 69, "duration": 2, "velocity": 91}, {"time": 2756, "pitch": 46, "duration": 20, "velocity": 87}, {"time": 2756, "pitch": 62, "duration": 7, "velocity": 89}, {"time": 2756, "pitch": 65, "duration": 7, "velocity": 100}, {"time": 2756, "pitch": 70, "duration": 7, "velocity": 86}, {"time": 2762, "pitch": 53, "duration": 6, "velocity": 72}, {"time": 2768, "pitch": 58, "duration": 7, "velocity": 83}, {"time": 2768, "pitch": 62, "duration": 7, "velocity": 102}, {"time": 2768, "pitch": 65, "duration": 11, "velocity": 104}, {"time": 2768, "pitch": 70, "duration": 9, "velocity": 87}, {"time": 2780, "pitch": 48, "duration": 17, "velocity": 85}, {"time": 2780, "pitch": 64, "duration": 7, "velocity": 89}, {"time": 2780, "pitch": 67, "duration": 7, "velocity": 94}, {"time": 2780, "pitch": 72, "duration": 7, "velocity": 92}, {"time": 2786, "pitch": 55, "duration": 10, "velocity": 68}, {"time": 2792, "pitch": 60, "duration": 3, "velocity": 82}, {"time": 2792, "pitch": 64, "duration": 5, "velocity": 91}, {"time": 2792, "pitch": 67, "duration": 5, "velocity": 100}, {"time": 2792, "pitch": 72, "duration": 4, "velocity": 91}, {"time": 2804, "pitch": 41, "duration": 38, "velocity": 87}, {"time": 2804, "pitch": 60, "duration": 7, "velocity": 88}, {"time": 2804, "pitch": 65, "duration": 5, "velocity": 96}, {"time": 2804, "pitch": 69, "duration": 5, "velocity": 91}, {"time": 2810, "pitch": 48, "duration": 32, "velocity": 67}, {"time": 2816, "pitch": 53, "duration": 14, "velocity": 87}, {"time": 2822, "pitch": 55, "duration": 5, "velocity": 88}, {"time": 2822, "pitch": 60, "duration": 5, "velocity": 88}, {"time": 2828, "pitch": 57, "duration": 3, "velocity": 92}, {"time": 2828, "pitch": 60, "duration": 4, "velocity": 87}, {"time": 2834, "pitch": 53, "duration": 9, "velocity": 85}, {"time": 2840, "pitch": 60, "duration": 7, "velocity": 96}, {"time": 2840, "pitch": 65, "duration": 8, "velocity": 96}, {"time": 2840, "pitch": 69, "duration": 7, "velocity": 90}, {"time": 2852, "pitch": 41, "duration": 35, "velocity": 87}, {"time": 2852, "pitch": 60, "duration": 8, "velocity": 84}, {"time": 2852, "pitch": 65, "duration": 8, "velocity": 88}, {"time": 2852, "pitch": 69, "duration": 7, "velocity": 88}, {"time": 2864, "pitch": 60, "duration": 8, "velocity": 79}, {"time": 2864, "pitch": 65, "duration": 8, "velocity": 81}, {"time": 2864, "pitch": 69, "duration": 7, "velocity": 84}, {"time": 2876, "pitch": 60, "duration": 7, "velocity": 87}, {"time": 2876, "pitch": 65, "duration": 8, "velocity": 88}, {"time": 2876, "pitch": 69, "duration": 7, "velocity": 86}, {"time": 2882, "pitch": 52, "duration": 4, "velocity": 90}, {"time": 2888, "pitch": 60, "duration": 8, "velocity": 87}, {"time": 2888, "pitch": 65, "duration": 9, "velocity": 88}, {"time": 2888, "pitch": 69, "duration": 8, "velocity": 89}, {"time": 2900, "pitch": 50, "duration": 39, "velocity": 88}, {"time": 2900, "pitch": 62, "duration": 7, "velocity": 87}, {"time": 2900, "pitch": 65, "duration": 7, "velocity": 88}, {"time": 2900, "pitch": 69, "duration": 7, "velocity": 88}, {"time": 2906, "pitch": 57, "duration": 8, "velocity": 58}, {"time": 2912, "pitch": 62, "duration": 8, "velocity": 87}, {"time": 2912, "pitch": 65, "duration": 8, "velocity": 88}, {"time": 2912, "pitch": 69, "duration": 7, "velocity": 86}, {"time": 2924, "pitch": 62, "duration": 7, "velocity": 86}, {"time": 2924, "pitch": 65, "duration": 7, "velocity": 87}, {"time": 2924, "pitch": 69, "duration": 6, "velocity": 85}, {"time": 2930, "pitch": 57, "duration": 7, "velocity": 76}, {"time": 2936, "pitch": 62, "duration": 7, "velocity": 98}, {"time": 2936, "pitch": 65, "duration": 4, "velocity": 102}, {"time": 2936, "pitch": 69, "duration": 4, "velocity": 87}, {"time": 2948, "pitch": 43, "duration": 19, "velocity": 82}, {"time": 2948, "pitch": 58, "duration": 7, "velocity": 85}, {"time": 2948, "pitch": 62, "duration": 6, "velocity": 88}, {"time": 2948, "pitch": 67, "duration": 6, "velocity": 88}, {"time": 2954, "pitch": 50, "duration": 8, "velocity": 65}, {"time": 2960, "pitch": 58, "duration": 6, "velocity": 89}, {"time": 2960, "pitch": 67, "duration": 6, "velocity": 93}, {"time": 2972, "pitch": 48, "duration": 14, "velocity": 84}, {"time": 2972, "pitch": 60, "duration": 7, "velocity": 87}, {"time": 2972, "pitch": 64, "duration": 9, "velocity": 89}, {"time": 2972, "pitch": 67, "duration": 7, "velocity": 87}, {"time": 2978, "pitch": 55, "duration": 8, "velocity": 70}, {"time": 2984, "pitch": 60, "duration": 8, "velocity": 86}, {"time": 2984, "pitch": 64, "duration": 9, "velocity": 87}, {"time": 2984, "pitch": 67, "duration": 6, "velocity": 87}, {"time": 2996, "pitch": 41, "duration": 35, "velocity": 84}, {"time": 2996, "pitch": 60, "duration": 11, "velocity": 83}, {"time": 2996, "pitch": 65, "duration": 6, "velocity": 87}, {"time": 2996, "pitch": 69, "duration": 7, "velocity": 89}, {"time": 3002, "pitch": 48, "duration": 28, "velocity": 72}, {"time": 3008, "pitch": 53, "duration": 22, "velocity": 84}, {"time": 3011, "pitch": 57, "duration": 6, "velocity": 81}, {"time": 3011, "pitch": 65, "duration": 5, "velocity": 84}, {"time": 3017, "pitch": 65, "duration": 10, "velocity": 79}, {"time": 3020, "pitch": 60, "duration": 9, "velocity": 90}, {"time": 3044, "pitch": 46, "duration": 41, "velocity": 77}, {"time": 3044, "pitch": 62, "duration": 16, "velocity": 81}, {"time": 3044, "pitch": 69, "duration": 12, "velocity": 84}, {"time": 3050, "pitch": 53, "duration": 32, "velocity": 70}, {"time": 3056, "pitch": 58, "duration": 25, "velocity": 70}, {"time": 3062, "pitch": 69, "duration": 18, "velocity": 86}, {"time": 3077, "pitch": 65, "duration": 12, "velocity": 86}, {"time": 3092, "pitch": 45, "duration": 18, "velocity": 75}, {"time": 3092, "pitch": 60, "duration": 19, "velocity": 72}, {"time": 3092, "pitch": 69, "duration": 18, "velocity": 85}, {"time": 3098, "pitch": 52, "duration": 12, "velocity": 64}, {"time": 3104, "pitch": 57, "duration": 12, "velocity": 78}, {"time": 3107, "pitch": 64, "duration": 7, "velocity": 82}, {"time": 3113, "pitch": 50, "duration": 17, "velocity": 78}, {"time": 3116, "pitch": 62, "duration": 9, "velocity": 70}, {"time": 3116, "pitch": 69, "duration": 6, "velocity": 80}, {"time": 3122, "pitch": 57, "duration": 9, "velocity": 70}, {"time": 3128, "pitch": 62, "duration": 9, "velocity": 81}, {"time": 3140, "pitch": 43, "duration": 18, "velocity": 78}, {"time": 3140, "pitch": 58, "duration": 18, "velocity": 84}, {"time": 3140, "pitch": 67, "duration": 17, "velocity": 85}, {"time": 3146, "pitch": 50, "duration": 13, "velocity": 48}, {"time": 3152, "pitch": 55, "duration": 13, "velocity": 76}, {"time": 3164, "pitch": 48, "duration": 24, "velocity": 76}, {"time": 3164, "pitch": 60, "duration": 6, "velocity": 75}, {"time": 3164, "pitch": 67, "duration": 28, "velocity": 75}, {"time": 3170, "pitch": 55, "duration": 17, "velocity": 66}, {"time": 3176, "pitch": 60, "duration": 13, "velocity": 74}, {"time": 3188, "pitch": 53, "duration": 48, "velocity": 85}, {"time": 3194, "pitch": 60, "duration": 42, "velocity": 64}, {"time": 3200, "pitch": 65, "duration": 19, "velocity": 70}, {"time": 3212, "pitch": 67, "duration": 7, "velocity": 44}, {"time": 3218, "pitch": 69, "duration": 21, "velocity": 80}, {"time": 3230, "pitch": 65, "duration": 6, "velocity": 40}, {"time": 3236, "pitch": 67, "duration": 11, "velocity": 70}, {"time": 3242, "pitch": 53, "duration": 39, "velocity": 58}, {"time": 3248, "pitch": 60, "duration": 21, "velocity": 63}, {"time": 3254, "pitch": 67, "duration": 7, "velocity": 79}, {"time": 3260, "pitch": 72, "duration": 18, "velocity": 87}, {"time": 3272, "pitch": 60, "duration": 9, "velocity": 38}, {"time": 3278, "pitch": 67, "duration": 11, "velocity": 80}, {"time": 3290, "pitch": 50, "duration": 42, "velocity": 81}, {"time": 3290, "pitch": 62, "duration": 9, "velocity": 78}, {"time": 3290, "pitch": 69, "duration": 13, "velocity": 86}, {"time": 3296, "pitch": 57, "duration": 35, "velocity": 70}, {"time": 3302, "pitch": 62, "duration": 27, "velocity": 74}, {"time": 3308, "pitch": 65, "duration": 32, "velocity": 79}, {"time": 3308, "pitch": 74, "duration": 33, "velocity": 78}, {"time": 3356, "pitch": 50, "duration": 20, "velocity": 74}, {"time": 3368, "pitch": 69, "duration": 6, "velocity": 73}, {"time": 3374, "pitch": 65, "duration": 7, "velocity": 87}, {"time": 3386, "pitch": 46, "duration": 41, "velocity": 81}, {"time": 3392, "pitch": 53, "duration": 35, "velocity": 71}, {"time": 3398, "pitch": 58, "duration": 29, "velocity": 74}, {"time": 3404, "pitch": 62, "duration": 31, "velocity": 86}, {"time": 3404, "pitch": 70, "duration": 30, "velocity": 83}, {"time": 3434, "pitch": 45, "duration": 31, "velocity": 82}, {"time": 3440, "pitch": 52, "duration": 25, "velocity": 71}, {"time": 3446, "pitch": 57, "duration": 21, "velocity": 73}, {"time": 3452, "pitch": 60, "duration": 7, "velocity": 80}, {"time": 3452, "pitch": 69, "duration": 15, "velocity": 81}, {"time": 3458, "pitch": 64, "duration": 11, "velocity": 84}, {"time": 3482, "pitch": 43, "duration": 21, "velocity": 76}, {"time": 3488, "pitch": 50, "duration": 15, "velocity": 65}, {"time": 3494, "pitch": 55, "duration": 15, "velocity": 81}, {"time": 3500, "pitch": 58, "duration": 6, "velocity": 81}, {"time": 3500, "pitch": 67, "duration": 7, "velocity": 72}, {"time": 3512, "pitch": 48, "duration": 24, "velocity": 76}, {"time": 3518, "pitch": 55, "duration": 18, "velocity": 76}, {"time": 3524, "pitch": 60, "duration": 13, "velocity": 77}, {"time": 3524, "pitch": 64, "duration": 21, "velocity": 78}, {"time": 3545, "pitch": 65, "duration": 5, "velocity": 75}, {"time": 3546, "pitch": 53, "duration": 83, "velocity": 68}, {"time": 3547, "pitch": 69, "duration": 8, "velocity": 75}, {"time": 3555, "pitch": 60, "duration": 73, "velocity": 38}, {"time": 3561, "pitch": 65, "duration": 67, "velocity": 64}, {"time": 3566, "pitch": 67, "duration": 6, "velocity": 71}, {"time": 3572, "pitch": 69, "duration": 1, "velocity": 79}, {"time": 3577, "pitch": 72, "duration": 3, "velocity": 69}, {"time": 3581, "pitch": 77, "duration": 2, "velocity": 70}, {"time": 3586, "pitch": 81, "duration": 2, "velocity": 79}, {"time": 3590, "pitch": 77, "duration": 2, "velocity": 78}, {"time": 3594, "pitch": 84, "duration": 2, "velocity": 83}, {"time": 3599, "pitch": 81, "duration": 3, "velocity": 76}, {"time": 3605, "pitch": 89, "duration": 3, "velocity": 81}, {"time": 3611, "pitch": 84, "duration": 3, "velocity": 74}, {"time": 3618, "pitch": 93, "duration": 1, "velocity": 90}], "annotations": [{"time": 22, "annotation": {"number": 64, "value": 127}, "group": "control_change"}, {"time": 68, "annotation": {"number": 64, "value": 74}, "group": "control_change"}, {"time": 68, "annotation": {"number": 64, "value": 0}, "group": "control_change"}, {"time": 70, "annotation": {"number": 64, "value": 127}, "group": "control_change"}, {"time": 115, "annotation": {"number": 64, "value": 38}, "group": "control_change"}, {"time": 115, "annotation": {"number": 64, "value": 0}, "group": "control_change"}, {"time": 117, "annotation": {"number": 64, "value": 127}, "group": "control_change"}, {"time": 118, "annotation": {"number": 64, "value": 127}, "group": "control_change"}, {"time": 136, "annotation": {"number": 64, "value": 0}, "group": "control_change"}, {"time": 163, "annotation": {"number": 64, "value": 0}, "group": "control_change"}, {"time": 166, "annotation": {"number": 64, "value": 127}, "group": "control_change"}, {"time": 169, "annotation": {"number": 64, "value": 74}, "group": "control_change"}, {"time": 169, "annotation": {"number": 64, "value": 127}, "group": "control_change"}, {"time": 173, "annotation": {"number": 64, "value": 38}, "group": "control_change"}, {"time": 174, "annotation": {"number": 64, "value": 0}, "group": "control_change"}, {"time": 212, "annotation": {"number": 64, "value": 0}, "group": "control_change"}, {"time": 311, "annotation": {"number": 64, "value": 127}, "group": "control_change"}, {"time": 355, "annotation": {"number": 64, "value": 38}, "group": "control_change"}, {"time": 355, "annotation": {"number": 64, "value": 0}, "group": "control_change"}, {"time": 358, "annotation": {"number": 64, "value": 74}, "group": "control_change"}, {"time": 358, "annotation": {"number": 64, "value": 127}, "group": "control_change"}, {"time": 403, "annotation": {"number": 64, "value": 38}, "group": "control_change"}, {"time": 403, "annotation": {"number": 64, "value": 0}, "group": "control_change"}, {"time": 406, "annotation": {"number": 64, "value": 127}, "group": "control_change"}, {"time": 450, "annotation": {"number": 64, "value": 0}, "group": "control_change"}, {"time": 453, "annotation": {"number": 64, "value": 127}, "group": "control_change"}, {"time": 499, "annotation": {"number": 64, "value": 38}, "group": "control_change"}, {"time": 499, "annotation": {"number": 64, "value": 0}, "group": "control_change"}, {"time": 502, "annotation": {"number": 64, "value": 127}, "group": "control_change"}, {"time": 503, "annotation": {"number": 64, "value": 127}, "group": "control_change"}, {"time": 509, "annotation": {"number": 64, "value": 38}, "group": "control_change"}, {"time": 510, "annotation": {"number": 64, "value": 0}, "group": "control_change"}, {"time": 516, "annotation": {"number": 64, "value": 0}, "group": "control_change"}, {"time": 518, "annotation": {"number": 64, "value": 127}, "group": "control_change"}, {"time": 547, "annotation": {"number": 64, "value": 0}, "group": "control_change"}, {"time": 549, "annotation": {"number": 64, "value": 38}, "group": "control_change"}, {"time": 549, "annotation": {"number": 64, "value": 127}, "group": "control_change"}, {"time": 595, "annotation": {"number": 64, "value": 0}, "group": "control_change"}, {"time": 597, "annotation": {"number": 64, "value": 127}, "group": "control_change"}, {"time": 598, "annotation": {"number": 64, "value": 127}, "group": "control_change"}, {"time": 643, "annotation": {"number": 64, "value": 38}, "group": "control_change"}, {"time": 643, "annotation": {"number": 64, "value": 0}, "group": "control_change"}, {"time": 645, "annotation": {"number": 64, "value": 74}, "group": "control_change"}, {"time": 645, "annotation": {"number": 64, "value": 127}, "group": "control_change"}, {"time": 691, "annotation": {"number": 64, "value": 38}, "group": "control_change"}, {"time": 691, "annotation": {"number": 64, "value": 0}, "group": "control_change"}, {"time": 694, "annotation": {"number": 64, "value": 127}, "group": "control_change"}, {"time": 739, "annotation": {"number": 64, "value": 38}, "group": "control_change"}, {"time": 739, "annotation": {"number": 64, "value": 0}, "group": "control_change"}, {"time": 741, "annotation": {"number": 64, "value": 127}, "group": "control_change"}, {"time": 786, "annotation": {"number": 64, "value": 38}, "group": "control_change"}, {"time": 787, "annotation": {"number": 64, "value": 0}, "group": "control_change"}, {"time": 789, "annotation": {"number": 64, "value": 127}, "group": "control_change"}, {"time": 824, "annotation": {"number": 64, "value": 0}, "group": "control_change"}, {"time": 838, "annotation": {"number": 64, "value": 127}, "group": "control_change"}, {"time": 859, "annotation": {"number": 64, "value": 0}, "group": "control_change"}, {"time": 861, "annotation": {"number": 64, "value": 127}, "group": "control_change"}, {"time": 884, "annotation": {"number": 64, "value": 0}, "group": "control_change"}, {"time": 886, "annotation": {"number": 64, "value": 127}, "group": "control_change"}, {"time": 886, "annotation": {"number": 64, "value": 74}, "group": "control_change"}, {"time": 894, "annotation": {"number": 64, "value": 74}, "group": "control_change"}, {"time": 894, "annotation": {"number": 64, "value": 0}, "group": "control_change"}, {"time": 930, "annotation": {"number": 64, "value": 38}, "group": "control_change"}, {"time": 930, "annotation": {"number": 64, "value": 0}, "group": "control_change"}, {"time": 933, "annotation": {"number": 64, "value": 127}, "group": "control_change"}, {"time": 979, "annotation": {"number": 64, "value": 38}, "group": "control_change"}, {"time": 979, "annotation": {"number": 64, "value": 0}, "group": "control_change"}, {"time": 981, "annotation": {"number": 64, "value": 127}, "group": "control_change"}, {"time": 1027, "annotation": {"number": 64, "value": 38}, "group": "control_change"}, {"time": 1027, "annotation": {"number": 64, "value": 0}, "group": "control_change"}, {"time": 1030, "annotation": {"number": 64, "value": 127}, "group": "control_change"}, {"time": 1074, "annotation": {"number": 64, "value": 74}, "group": "control_change"}, {"time": 1074, "annotation": {"number": 64, "value": 0}, "group": "control_change"}, {"time": 1077, "annotation": {"number": 64, "value": 127}, "group": "control_change"}, {"time": 1123, "annotation": {"number": 64, "value": 0}, "group": "control_change"}, {"time": 1125, "annotation": {"number": 64, "value": 127}, "group": "control_change"}, {"time": 1171, "annotation": {"number": 64, "value": 38}, "group": "control_change"}, {"time": 1171, "annotation": {"number": 64, "value": 0}, "group": "control_change"}, {"time": 1173, "annotation": {"number": 64, "value": 127}, "group": "control_change"}, {"time": 1195, "annotation": {"number": 64, "value": 0}, "group": "control_change"}, {"time": 1197, "annotation": {"number": 64, "value": 127}, "group": "control_change"}, {"time": 1220, "annotation": {"number": 64, "value": 38}, "group": "control_change"}, {"time": 1220, "annotation": {"number": 64, "value": 0}, "group": "control_change"}, {"time": 1221, "annotation": {"number": 64, "value": 127}, "group": "control_change"}, {"time": 1266, "annotation": {"number": 64, "value": 38}, "group": "control_change"}, {"time": 1266, "annotation": {"number": 64, "value": 0}, "group": "control_change"}, {"time": 1268, "annotation": {"number": 64, "value": 127}, "group": "control_change"}, {"time": 1270, "annotation": {"number": 64, "value": 127}, "group": "control_change"}, {"time": 1270, "annotation": {"number": 64, "value": 74}, "group": "control_change"}, {"time": 1282, "annotation": {"number": 64, "value": 0}, "group": "control_change"}, {"time": 1314, "annotation": {"number": 64, "value": 74}, "group": "control_change"}, {"time": 1314, "annotation": {"number": 64, "value": 0}, "group": "control_change"}, {"time": 1316, "annotation": {"number": 64, "value": 127}, "group": "control_change"}, {"time": 1317, "annotation": {"number": 64, "value": 74}, "group": "control_change"}, {"time": 1317, "annotation": {"number": 64, "value": 127}, "group": "control_change"}, {"time": 1362, "annotation": {"number": 64, "value": 38}, "group": "control_change"}, {"time": 1362, "annotation": {"number": 64, "value": 0}, "group": "control_change"}, {"time": 1365, "annotation": {"number": 64, "value": 127}, "group": "control_change"}, {"time": 1387, "annotation": {"number": 64, "value": 38}, "group": "control_change"}, {"time": 1387, "annotation": {"number": 64, "value": 0}, "group": "control_change"}, {"time": 1389, "annotation": {"number": 64, "value": 74}, "group": "control_change"}, {"time": 1389, "annotation": {"number": 64, "value": 127}, "group": "control_change"}, {"time": 1411, "annotation": {"number": 64, "value": 0}, "group": "control_change"}, {"time": 1413, "annotation": {"number": 64, "value": 127}, "group": "control_change"}, {"time": 1457, "annotation": {"number": 64, "value": 0}, "group": "control_change"}, {"time": 1462, "annotation": {"number": 64, "value": 127}, "group": "control_change"}, {"time": 1463, "annotation": {"number": 64, "value": 74}, "group": "control_change"}, {"time": 1463, "annotation": {"number": 64, "value": 127}, "group": "control_change"}, {"time": 1506, "annotation": {"number": 64, "value": 0}, "group": "control_change"}, {"time": 1508, "annotation": {"number": 64, "value": 127}, "group": "control_change"}, {"time": 1509, "annotation": {"number": 64, "value": 74}, "group": "control_change"}, {"time": 1509, "annotation": {"number": 64, "value": 127}, "group": "control_change"}, {"time": 1554, "annotation": {"number": 64, "value": 38}, "group": "control_change"}, {"time": 1554, "annotation": {"number": 64, "value": 0}, "group": "control_change"}, {"time": 1556, "annotation": {"number": 64, "value": 127}, "group": "control_change"}, {"time": 1603, "annotation": {"number": 64, "value": 74}, "group": "control_change"}, {"time": 1603, "annotation": {"number": 64, "value": 0}, "group": "control_change"}, {"time": 1604, "annotation": {"number": 64, "value": 127}, "group": "control_change"}, {"time": 1605, "annotation": {"number": 64, "value": 38}, "group": "control_change"}, {"time": 1605, "annotation": {"number": 64, "value": 127}, "group": "control_change"}, {"time": 1650, "annotation": {"number": 64, "value": 74}, "group": "control_change"}, {"time": 1650, "annotation": {"number": 64, "value": 0}, "group": "control_change"}, {"time": 1652, "annotation": {"number": 64, "value": 127}, "group": "control_change"}, {"time": 1653, "annotation": {"number": 64, "value": 127}, "group": "control_change"}, {"time": 1665, "annotation": {"number": 64, "value": 0}, "group": "control_change"}, {"time": 1699, "annotation": {"number": 64, "value": 0}, "group": "control_change"}, {"time": 1701, "annotation": {"number": 64, "value": 127}, "group": "control_change"}, {"time": 1702, "annotation": {"number": 64, "value": 127}, "group": "control_change"}, {"time": 1746, "annotation": {"number": 64, "value": 38}, "group": "control_change"}, {"time": 1746, "annotation": {"number": 64, "value": 0}, "group": "control_change"}, {"time": 1747, "annotation": {"number": 64, "value": 0}, "group": "control_change"}, {"time": 1748, "annotation": {"number": 64, "value": 127}, "group": "control_change"}, {"time": 1749, "annotation": {"number": 64, "value": 127}, "group": "control_change"}, {"time": 1771, "annotation": {"number": 64, "value": 0}, "group": "control_change"}, {"time": 1772, "annotation": {"number": 64, "value": 127}, "group": "control_change"}, {"time": 1773, "annotation": {"number": 64, "value": 38}, "group": "control_change"}, {"time": 1773, "annotation": {"number": 64, "value": 127}, "group": "control_change"}, {"time": 1794, "annotation": {"number": 64, "value": 0}, "group": "control_change"}, {"time": 1794, "annotation": {"number": 64, "value": 74}, "group": "control_change"}, {"time": 1795, "annotation": {"number": 64, "value": 0}, "group": "control_change"}, {"time": 1796, "annotation": {"number": 64, "value": 74}, "group": "control_change"}, {"time": 1796, "annotation": {"number": 64, "value": 38}, "group": "control_change"}, {"time": 1796, "annotation": {"number": 64, "value": 127}, "group": "control_change"}, {"time": 1797, "annotation": {"number": 64, "value": 127}, "group": "control_change"}, {"time": 1809, "annotation": {"number": 64, "value": 74}, "group": "control_change"}, {"time": 1809, "annotation": {"number": 64, "value": 0}, "group": "control_change"}, {"time": 1939, "annotation": {"number": 64, "value": 38}, "group": "control_change"}, {"time": 1939, "annotation": {"number": 64, "value": 0}, "group": "control_change"}, {"time": 1941, "annotation": {"number": 64, "value": 127}, "group": "control_change"}, {"time": 1986, "annotation": {"number": 64, "value": 38}, "group": "control_change"}, {"time": 1987, "annotation": {"number": 64, "value": 0}, "group": "control_change"}, {"time": 1989, "annotation": {"number": 64, "value": 127}, "group": "control_change"}, {"time": 2024, "annotation": {"number": 64, "value": 0}, "group": "control_change"}, {"time": 2038, "annotation": {"number": 64, "value": 127}, "group": "control_change"}, {"time": 2059, "annotation": {"number": 64, "value": 0}, "group": "control_change"}, {"time": 2061, "annotation": {"number": 64, "value": 127}, "group": "control_change"}, {"time": 2084, "annotation": {"number": 64, "value": 0}, "group": "control_change"}, {"time": 2086, "annotation": {"number": 64, "value": 127}, "group": "control_change"}, {"time": 2086, "annotation": {"number": 64, "value": 74}, "group": "control_change"}, {"time": 2094, "annotation": {"number": 64, "value": 74}, "group": "control_change"}, {"time": 2094, "annotation": {"number": 64, "value": 0}, "group": "control_change"}, {"time": 2130, "annotation": {"number": 64, "value": 38}, "group": "control_change"}, {"time": 2130, "annotation": {"number": 64, "value": 0}, "group": "control_change"}, {"time": 2133, "annotation": {"number": 64, "value": 127}, "group": "control_change"}, {"time": 2179, "annotation": {"number": 64, "value": 38}, "group": "control_change"}, {"time": 2179, "annotation": {"number": 64, "value": 0}, "group": "control_change"}, {"time": 2181, "annotation": {"number": 64, "value": 127}, "group": "control_change"}, {"time": 2227, "annotation": {"number": 64, "value": 38}, "group": "control_change"}, {"time": 2227, "annotation": {"number": 64, "value": 0}, "group": "control_change"}, {"time": 2230, "annotation": {"number": 64, "value": 127}, "group": "control_change"}, {"time": 2274, "annotation": {"number": 64, "value": 74}, "group": "control_change"}, {"time": 2274, "annotation": {"number": 64, "value": 0}, "group": "control_change"}, {"time": 2277, "annotation": {"number": 64, "value": 127}, "group": "control_change"}, {"time": 2323, "annotation": {"number": 64, "value": 0}, "group": "control_change"}, {"time": 2325, "annotation": {"number": 64, "value": 127}, "group": "control_change"}, {"time": 2371, "annotation": {"number": 64, "value": 38}, "group": "control_change"}, {"time": 2371, "annotation": {"number": 64, "value": 0}, "group": "control_change"}, {"time": 2373, "annotation": {"number": 64, "value": 127}, "group": "control_change"}, {"time": 2395, "annotation": {"number": 64, "value": 0}, "group": "control_change"}, {"time": 2397, "annotation": {"number": 64, "value": 127}, "group": "control_change"}, {"time": 2420, "annotation": {"number": 64, "value": 38}, "group": "control_change"}, {"time": 2420, "annotation": {"number": 64, "value": 0}, "group": "control_change"}, {"time": 2421, "annotation": {"number": 64, "value": 127}, "group": "control_change"}, {"time": 2466, "annotation": {"number": 64, "value": 38}, "group": "control_change"}, {"time": 2466, "annotation": {"number": 64, "value": 0}, "group": "control_change"}, {"time": 2468, "annotation": {"number": 64, "value": 127}, "group": "control_change"}, {"time": 2470, "annotation": {"number": 64, "value": 127}, "group": "control_change"}, {"time": 2470, "annotation": {"number": 64, "value": 74}, "group": "control_change"}, {"time": 2482, "annotation": {"number": 64, "value": 0}, "group": "control_change"}, {"time": 2514, "annotation": {"number": 64, "value": 74}, "group": "control_change"}, {"time": 2514, "annotation": {"number": 64, "value": 0}, "group": "control_change"}, {"time": 2516, "annotation": {"number": 64, "value": 127}, "group": "control_change"}, {"time": 2517, "annotation": {"number": 64, "value": 74}, "group": "control_change"}, {"time": 2517, "annotation": {"number": 64, "value": 127}, "group": "control_change"}, {"time": 2562, "annotation": {"number": 64, "value": 38}, "group": "control_change"}, {"time": 2562, "annotation": {"number": 64, "value": 0}, "group": "control_change"}, {"time": 2565, "annotation": {"number": 64, "value": 127}, "group": "control_change"}, {"time": 2587, "annotation": {"number": 64, "value": 38}, "group": "control_change"}, {"time": 2587, "annotation": {"number": 64, "value": 0}, "group": "control_change"}, {"time": 2589, "annotation": {"number": 64, "value": 74}, "group": "control_change"}, {"time": 2589, "annotation": {"number": 64, "value": 127}, "group": "control_change"}, {"time": 2611, "annotation": {"number": 64, "value": 0}, "group": "control_change"}, {"time": 2613, "annotation": {"number": 64, "value": 127}, "group": "control_change"}, {"time": 2657, "annotation": {"number": 64, "value": 0}, "group": "control_change"}, {"time": 2707, "annotation": {"number": 64, "value": 0}, "group": "control_change"}, {"time": 2709, "annotation": {"number": 64, "value": 127}, "group": "control_change"}, {"time": 2755, "annotation": {"number": 64, "value": 38}, "group": "control_change"}, {"time": 2755, "annotation": {"number": 64, "value": 0}, "group": "control_change"}, {"time": 2757, "annotation": {"number": 64, "value": 127}, "group": "control_change"}, {"time": 2779, "annotation": {"number": 64, "value": 0}, "group": "control_change"}, {"time": 2781, "annotation": {"number": 64, "value": 127}, "group": "control_change"}, {"time": 2804, "annotation": {"number": 64, "value": 38}, "group": "control_change"}, {"time": 2804, "annotation": {"number": 64, "value": 0}, "group": "control_change"}, {"time": 2805, "annotation": {"number": 64, "value": 127}, "group": "control_change"}, {"time": 2850, "annotation": {"number": 64, "value": 38}, "group": "control_change"}, {"time": 2850, "annotation": {"number": 64, "value": 0}, "group": "control_change"}, {"time": 2852, "annotation": {"number": 64, "value": 127}, "group": "control_change"}, {"time": 2854, "annotation": {"number": 64, "value": 127}, "group": "control_change"}, {"time": 2854, "annotation": {"number": 64, "value": 74}, "group": "control_change"}, {"time": 2866, "annotation": {"number": 64, "value": 0}, "group": "control_change"}, {"time": 2898, "annotation": {"number": 64, "value": 74}, "group": "control_change"}, {"time": 2898, "annotation": {"number": 64, "value": 0}, "group": "control_change"}, {"time": 2900, "annotation": {"number": 64, "value": 127}, "group": "control_change"}, {"time": 2901, "annotation": {"number": 64, "value": 74}, "group": "control_change"}, {"time": 2901, "annotation": {"number": 64, "value": 127}, "group": "control_change"}, {"time": 2946, "annotation": {"number": 64, "value": 38}, "group": "control_change"}, {"time": 2946, "annotation": {"number": 64, "value": 0}, "group": "control_change"}, {"time": 2949, "annotation": {"number": 64, "value": 127}, "group": "control_change"}, {"time": 2971, "annotation": {"number": 64, "value": 38}, "group": "control_change"}, {"time": 2971, "annotation": {"number": 64, "value": 0}, "group": "control_change"}, {"time": 2973, "annotation": {"number": 64, "value": 74}, "group": "control_change"}, {"time": 2973, "annotation": {"number": 64, "value": 127}, "group": "control_change"}, {"time": 2995, "annotation": {"number": 64, "value": 0}, "group": "control_change"}, {"time": 2997, "annotation": {"number": 64, "value": 127}, "group": "control_change"}, {"time": 3041, "annotation": {"number": 64, "value": 0}, "group": "control_change"}, {"time": 3046, "annotation": {"number": 64, "value": 74}, "group": "control_change"}, {"time": 3047, "annotation": {"number": 64, "value": 127}, "group": "control_change"}, {"time": 3048, "annotation": {"number": 64, "value": 74}, "group": "control_change"}, {"time": 3048, "annotation": {"number": 64, "value": 127}, "group": "control_change"}, {"time": 3049, "annotation": {"number": 64, "value": 74}, "group": "control_change"}, {"time": 3049, "annotation": {"number": 64, "value": 127}, "group": "control_change"}]}]}