{"metadata": {"schema_version": "0.2", "title": "None", "source_filename": "538.mid", "source_format": "midi"}, "resolution": 12, "tempos": [{"time": 0, "qpm": 58.00004253336452}], "time_signatures": [{"time": 0, "numerator": 4, "denominator": 4}], "tracks": [{"program": 0, "is_drum": false, "name": "MELODY", "notes": [{"time": 213, "pitch": 65, "duration": 2, "velocity": 104}, {"time": 216, "pitch": 65, "duration": 1, "velocity": 92}, {"time": 219, "pitch": 65, "duration": 1, "velocity": 100}, {"time": 222, "pitch": 63, "duration": 3, "velocity": 109}, {"time": 228, "pitch": 65, "duration": 3, "velocity": 110}, {"time": 237, "pitch": 68, "duration": 1, "velocity": 109}, {"time": 240, "pitch": 68, "duration": 1, "velocity": 97}, {"time": 243, "pitch": 68, "duration": 2, "velocity": 103}, {"time": 246, "pitch": 70, "duration": 4, "velocity": 113}, {"time": 252, "pitch": 68, "duration": 3, "velocity": 113}, {"time": 261, "pitch": 70, "duration": 1, "velocity": 119}, {"time": 264, "pitch": 70, "duration": 1, "velocity": 106}, {"time": 267, "pitch": 70, "duration": 1, "velocity": 106}, {"time": 270, "pitch": 70, "duration": 1, "velocity": 109}, {"time": 273, "pitch": 70, "duration": 2, "velocity": 116}, {"time": 276, "pitch": 65, "duration": 3, "velocity": 107}, {"time": 282, "pitch": 63, "duration": 3, "velocity": 97}, {"time": 285, "pitch": 65, "duration": 3, "velocity": 92}, {"time": 306, "pitch": 58, "duration": 1, "velocity": 104}, {"time": 309, "pitch": 70, "duration": 2, "velocity": 113}, {"time": 312, "pitch": 70, "duration": 2, "velocity": 104}, {"time": 315, "pitch": 70, "duration": 1, "velocity": 91}, {"time": 318, "pitch": 73, "duration": 1, "velocity": 110}, {"time": 321, "pitch": 70, "duration": 2, "velocity": 96}, {"time": 333, "pitch": 70, "duration": 1, "velocity": 107}, {"time": 336, "pitch": 70, "duration": 1, "velocity": 94}, {"time": 339, "pitch": 70, "duration": 2, "velocity": 98}, {"time": 342, "pitch": 68, "duration": 4, "velocity": 108}, {"time": 348, "pitch": 65, "duration": 3, "velocity": 107}, {"time": 357, "pitch": 63, "duration": 1, "velocity": 108}, {"time": 360, "pitch": 63, "duration": 1, "velocity": 92}, {"time": 363, "pitch": 63, "duration": 2, "velocity": 100}, {"time": 366, "pitch": 63, "duration": 2, "velocity": 94}, {"time": 369, "pitch": 65, "duration": 2, "velocity": 104}, {"time": 372, "pitch": 63, "duration": 2, "velocity": 94}, {"time": 378, "pitch": 58, "duration": 2, "velocity": 86}, {"time": 381, "pitch": 63, "duration": 3, "velocity": 94}, {"time": 405, "pitch": 65, "duration": 2, "velocity": 104}, {"time": 408, "pitch": 65, "duration": 1, "velocity": 92}, {"time": 411, "pitch": 65, "duration": 1, "velocity": 100}, {"time": 414, "pitch": 63, "duration": 3, "velocity": 109}, {"time": 420, "pitch": 65, "duration": 3, "velocity": 110}, {"time": 429, "pitch": 68, "duration": 1, "velocity": 109}, {"time": 432, "pitch": 68, "duration": 1, "velocity": 97}, {"time": 435, "pitch": 68, "duration": 2, "velocity": 103}, {"time": 438, "pitch": 70, "duration": 4, "velocity": 113}, {"time": 444, "pitch": 68, "duration": 3, "velocity": 113}, {"time": 450, "pitch": 58, "duration": 3, "velocity": 113}, {"time": 453, "pitch": 70, "duration": 1, "velocity": 119}, {"time": 456, "pitch": 70, "duration": 1, "velocity": 106}, {"time": 459, "pitch": 70, "duration": 1, "velocity": 106}, {"time": 462, "pitch": 70, "duration": 1, "velocity": 109}, {"time": 465, "pitch": 70, "duration": 2, "velocity": 116}, {"time": 468, "pitch": 65, "duration": 3, "velocity": 107}, {"time": 474, "pitch": 63, "duration": 3, "velocity": 97}, {"time": 477, "pitch": 65, "duration": 3, "velocity": 92}, {"time": 498, "pitch": 58, "duration": 1, "velocity": 104}, {"time": 501, "pitch": 70, "duration": 2, "velocity": 113}, {"time": 504, "pitch": 70, "duration": 2, "velocity": 104}, {"time": 507, "pitch": 70, "duration": 1, "velocity": 91}, {"time": 510, "pitch": 73, "duration": 1, "velocity": 110}, {"time": 516, "pitch": 70, "duration": 2, "velocity": 96}, {"time": 525, "pitch": 70, "duration": 1, "velocity": 113}, {"time": 528, "pitch": 70, "duration": 3, "velocity": 104}, {"time": 531, "pitch": 68, "duration": 3, "velocity": 107}, {"time": 534, "pitch": 70, "duration": 3, "velocity": 110}, {"time": 537, "pitch": 68, "duration": 3, "velocity": 108}, {"time": 540, "pitch": 65, "duration": 2, "velocity": 104}, {"time": 546, "pitch": 68, "duration": 2, "velocity": 108}, {"time": 549, "pitch": 70, "duration": 1, "velocity": 104}, {"time": 552, "pitch": 73, "duration": 1, "velocity": 110}, {"time": 555, "pitch": 73, "duration": 2, "velocity": 110}, {"time": 558, "pitch": 73, "duration": 1, "velocity": 93}, {"time": 561, "pitch": 73, "duration": 1, "velocity": 108}, {"time": 567, "pitch": 70, "duration": 2, "velocity": 104}, {"time": 570, "pitch": 75, "duration": 4, "velocity": 117}, {"time": 615, "pitch": 68, "duration": 1, "velocity": 108}, {"time": 618, "pitch": 68, "duration": 1, "velocity": 108}, {"time": 621, "pitch": 75, "duration": 1, "velocity": 119}, {"time": 624, "pitch": 75, "duration": 2, "velocity": 116}, {"time": 627, "pitch": 73, "duration": 1, "velocity": 114}, {"time": 630, "pitch": 75, "duration": 2, "velocity": 120}, {"time": 636, "pitch": 77, "duration": 3, "velocity": 119}, {"time": 645, "pitch": 72, "duration": 1, "velocity": 116}, {"time": 648, "pitch": 72, "duration": 1, "velocity": 114}, {"time": 651, "pitch": 72, "duration": 2, "velocity": 116}, {"time": 654, "pitch": 70, "duration": 4, "velocity": 117}, {"time": 660, "pitch": 68, "duration": 3, "velocity": 119}, {"time": 669, "pitch": 70, "duration": 2, "velocity": 114}, {"time": 672, "pitch": 73, "duration": 1, "velocity": 116}, {"time": 675, "pitch": 70, "duration": 1, "velocity": 113}, {"time": 678, "pitch": 68, "duration": 2, "velocity": 114}, {"time": 681, "pitch": 70, "duration": 2, "velocity": 116}, {"time": 684, "pitch": 68, "duration": 1, "velocity": 114}, {"time": 687, "pitch": 63, "duration": 1, "velocity": 87}, {"time": 690, "pitch": 68, "duration": 3, "velocity": 108}, {"time": 696, "pitch": 65, "duration": 3, "velocity": 104}, {"time": 717, "pitch": 70, "duration": 1, "velocity": 117}, {"time": 720, "pitch": 70, "duration": 1, "velocity": 110}, {"time": 723, "pitch": 70, "duration": 1, "velocity": 113}, {"time": 726, "pitch": 73, "duration": 3, "velocity": 117}, {"time": 732, "pitch": 70, "duration": 3, "velocity": 119}, {"time": 741, "pitch": 70, "duration": 1, "velocity": 117}, {"time": 744, "pitch": 70, "duration": 1, "velocity": 110}, {"time": 747, "pitch": 70, "duration": 2, "velocity": 110}, {"time": 750, "pitch": 68, "duration": 3, "velocity": 116}, {"time": 756, "pitch": 65, "duration": 3, "velocity": 110}, {"time": 762, "pitch": 68, "duration": 3, "velocity": 116}, {"time": 765, "pitch": 70, "duration": 1, "velocity": 116}, {"time": 768, "pitch": 73, "duration": 1, "velocity": 116}, {"time": 771, "pitch": 73, "duration": 1, "velocity": 116}, {"time": 774, "pitch": 73, "duration": 1, "velocity": 110}, {"time": 777, "pitch": 73, "duration": 2, "velocity": 117}, {"time": 780, "pitch": 70, "duration": 2, "velocity": 119}, {"time": 783, "pitch": 73, "duration": 1, "velocity": 110}, {"time": 786, "pitch": 75, "duration": 3, "velocity": 120}, {"time": 807, "pitch": 68, "duration": 1, "velocity": 108}, {"time": 810, "pitch": 68, "duration": 1, "velocity": 108}, {"time": 813, "pitch": 75, "duration": 1, "velocity": 119}, {"time": 816, "pitch": 75, "duration": 2, "velocity": 116}, {"time": 819, "pitch": 73, "duration": 1, "velocity": 114}, {"time": 822, "pitch": 75, "duration": 2, "velocity": 120}, {"time": 828, "pitch": 77, "duration": 3, "velocity": 119}, {"time": 837, "pitch": 72, "duration": 1, "velocity": 116}, {"time": 840, "pitch": 72, "duration": 1, "velocity": 114}, {"time": 843, "pitch": 72, "duration": 2, "velocity": 116}, {"time": 846, "pitch": 70, "duration": 4, "velocity": 117}, {"time": 852, "pitch": 68, "duration": 3, "velocity": 119}, {"time": 861, "pitch": 70, "duration": 2, "velocity": 114}, {"time": 864, "pitch": 73, "duration": 1, "velocity": 116}, {"time": 867, "pitch": 70, "duration": 1, "velocity": 113}, {"time": 870, "pitch": 68, "duration": 2, "velocity": 114}, {"time": 873, "pitch": 70, "duration": 2, "velocity": 116}, {"time": 876, "pitch": 68, "duration": 1, "velocity": 114}, {"time": 879, "pitch": 63, "duration": 1, "velocity": 87}, {"time": 882, "pitch": 68, "duration": 3, "velocity": 108}, {"time": 888, "pitch": 65, "duration": 3, "velocity": 104}, {"time": 909, "pitch": 70, "duration": 1, "velocity": 117}, {"time": 912, "pitch": 70, "duration": 1, "velocity": 110}, {"time": 915, "pitch": 70, "duration": 1, "velocity": 113}, {"time": 918, "pitch": 73, "duration": 3, "velocity": 117}, {"time": 924, "pitch": 70, "duration": 3, "velocity": 119}, {"time": 933, "pitch": 70, "duration": 1, "velocity": 117}, {"time": 936, "pitch": 70, "duration": 1, "velocity": 110}, {"time": 939, "pitch": 70, "duration": 2, "velocity": 110}, {"time": 942, "pitch": 68, "duration": 3, "velocity": 116}, {"time": 948, "pitch": 65, "duration": 3, "velocity": 110}, {"time": 954, "pitch": 68, "duration": 3, "velocity": 116}, {"time": 957, "pitch": 70, "duration": 1, "velocity": 116}, {"time": 960, "pitch": 73, "duration": 1, "velocity": 116}, {"time": 963, "pitch": 73, "duration": 1, "velocity": 116}, {"time": 966, "pitch": 73, "duration": 1, "velocity": 110}, {"time": 969, "pitch": 73, "duration": 2, "velocity": 117}, {"time": 972, "pitch": 70, "duration": 2, "velocity": 119}, {"time": 975, "pitch": 73, "duration": 1, "velocity": 110}, {"time": 978, "pitch": 75, "duration": 3, "velocity": 120}, {"time": 993, "pitch": 73, "duration": 3, "velocity": 114}, {"time": 996, "pitch": 72, "duration": 2, "velocity": 108}, {"time": 1002, "pitch": 72, "duration": 4, "velocity": 114}, {"time": 1008, "pitch": 70, "duration": 5, "velocity": 116}, {"time": 1197, "pitch": 65, "duration": 2, "velocity": 104}, {"time": 1200, "pitch": 65, "duration": 1, "velocity": 92}, {"time": 1203, "pitch": 65, "duration": 1, "velocity": 100}, {"time": 1206, "pitch": 63, "duration": 3, "velocity": 109}, {"time": 1212, "pitch": 65, "duration": 3, "velocity": 110}, {"time": 1221, "pitch": 68, "duration": 1, "velocity": 109}, {"time": 1224, "pitch": 68, "duration": 1, "velocity": 97}, {"time": 1227, "pitch": 68, "duration": 2, "velocity": 103}, {"time": 1230, "pitch": 70, "duration": 4, "velocity": 113}, {"time": 1236, "pitch": 68, "duration": 3, "velocity": 113}, {"time": 1242, "pitch": 58, "duration": 3, "velocity": 113}, {"time": 1245, "pitch": 70, "duration": 1, "velocity": 119}, {"time": 1248, "pitch": 70, "duration": 1, "velocity": 106}, {"time": 1251, "pitch": 70, "duration": 1, "velocity": 106}, {"time": 1254, "pitch": 70, "duration": 1, "velocity": 109}, {"time": 1257, "pitch": 70, "duration": 2, "velocity": 116}, {"time": 1260, "pitch": 65, "duration": 3, "velocity": 107}, {"time": 1266, "pitch": 63, "duration": 3, "velocity": 97}, {"time": 1269, "pitch": 65, "duration": 3, "velocity": 92}, {"time": 1290, "pitch": 58, "duration": 1, "velocity": 104}, {"time": 1293, "pitch": 70, "duration": 2, "velocity": 113}, {"time": 1296, "pitch": 70, "duration": 2, "velocity": 104}, {"time": 1299, "pitch": 70, "duration": 1, "velocity": 91}, {"time": 1302, "pitch": 73, "duration": 1, "velocity": 110}, {"time": 1308, "pitch": 70, "duration": 2, "velocity": 96}, {"time": 1317, "pitch": 70, "duration": 1, "velocity": 113}, {"time": 1320, "pitch": 70, "duration": 3, "velocity": 104}, {"time": 1323, "pitch": 68, "duration": 3, "velocity": 107}, {"time": 1326, "pitch": 70, "duration": 3, "velocity": 110}, {"time": 1329, "pitch": 68, "duration": 3, "velocity": 108}, {"time": 1332, "pitch": 65, "duration": 2, "velocity": 104}, {"time": 1338, "pitch": 68, "duration": 2, "velocity": 108}, {"time": 1341, "pitch": 70, "duration": 1, "velocity": 104}, {"time": 1344, "pitch": 73, "duration": 1, "velocity": 110}, {"time": 1347, "pitch": 73, "duration": 2, "velocity": 110}, {"time": 1350, "pitch": 73, "duration": 1, "velocity": 93}, {"time": 1353, "pitch": 73, "duration": 1, "velocity": 108}, {"time": 1359, "pitch": 70, "duration": 2, "velocity": 104}, {"time": 1362, "pitch": 75, "duration": 4, "velocity": 117}, {"time": 1407, "pitch": 68, "duration": 1, "velocity": 108}, {"time": 1410, "pitch": 68, "duration": 1, "velocity": 108}, {"time": 1413, "pitch": 75, "duration": 1, "velocity": 119}, {"time": 1416, "pitch": 75, "duration": 2, "velocity": 116}, {"time": 1419, "pitch": 73, "duration": 1, "velocity": 114}, {"time": 1422, "pitch": 75, "duration": 2, "velocity": 120}, {"time": 1428, "pitch": 77, "duration": 3, "velocity": 119}, {"time": 1437, "pitch": 72, "duration": 1, "velocity": 116}, {"time": 1440, "pitch": 72, "duration": 1, "velocity": 114}, {"time": 1443, "pitch": 72, "duration": 2, "velocity": 116}, {"time": 1446, "pitch": 70, "duration": 4, "velocity": 117}, {"time": 1452, "pitch": 68, "duration": 3, "velocity": 119}, {"time": 1461, "pitch": 70, "duration": 2, "velocity": 114}, {"time": 1464, "pitch": 73, "duration": 1, "velocity": 116}, {"time": 1467, "pitch": 70, "duration": 1, "velocity": 113}, {"time": 1470, "pitch": 68, "duration": 2, "velocity": 114}, {"time": 1473, "pitch": 70, "duration": 2, "velocity": 116}, {"time": 1476, "pitch": 68, "duration": 1, "velocity": 114}, {"time": 1479, "pitch": 63, "duration": 1, "velocity": 87}, {"time": 1482, "pitch": 68, "duration": 3, "velocity": 108}, {"time": 1488, "pitch": 65, "duration": 3, "velocity": 104}, {"time": 1509, "pitch": 70, "duration": 1, "velocity": 117}, {"time": 1512, "pitch": 70, "duration": 1, "velocity": 110}, {"time": 1515, "pitch": 70, "duration": 1, "velocity": 113}, {"time": 1518, "pitch": 73, "duration": 3, "velocity": 117}, {"time": 1524, "pitch": 70, "duration": 3, "velocity": 119}, {"time": 1533, "pitch": 70, "duration": 1, "velocity": 117}, {"time": 1536, "pitch": 70, "duration": 1, "velocity": 110}, {"time": 1539, "pitch": 70, "duration": 2, "velocity": 110}, {"time": 1542, "pitch": 68, "duration": 3, "velocity": 116}, {"time": 1548, "pitch": 65, "duration": 3, "velocity": 110}, {"time": 1554, "pitch": 68, "duration": 3, "velocity": 116}, {"time": 1557, "pitch": 70, "duration": 1, "velocity": 116}, {"time": 1560, "pitch": 73, "duration": 1, "velocity": 116}, {"time": 1563, "pitch": 73, "duration": 1, "velocity": 116}, {"time": 1566, "pitch": 73, "duration": 1, "velocity": 110}, {"time": 1569, "pitch": 73, "duration": 2, "velocity": 117}, {"time": 1572, "pitch": 70, "duration": 2, "velocity": 119}, {"time": 1575, "pitch": 73, "duration": 1, "velocity": 110}, {"time": 1578, "pitch": 75, "duration": 3, "velocity": 120}, {"time": 1599, "pitch": 68, "duration": 1, "velocity": 108}, {"time": 1602, "pitch": 68, "duration": 1, "velocity": 108}, {"time": 1605, "pitch": 75, "duration": 1, "velocity": 119}, {"time": 1608, "pitch": 75, "duration": 2, "velocity": 116}, {"time": 1611, "pitch": 73, "duration": 1, "velocity": 114}, {"time": 1614, "pitch": 75, "duration": 2, "velocity": 120}, {"time": 1620, "pitch": 77, "duration": 3, "velocity": 119}, {"time": 1629, "pitch": 72, "duration": 1, "velocity": 116}, {"time": 1632, "pitch": 72, "duration": 1, "velocity": 114}, {"time": 1635, "pitch": 72, "duration": 2, "velocity": 116}, {"time": 1638, "pitch": 70, "duration": 4, "velocity": 117}, {"time": 1644, "pitch": 68, "duration": 3, "velocity": 119}, {"time": 1653, "pitch": 70, "duration": 2, "velocity": 114}, {"time": 1656, "pitch": 73, "duration": 1, "velocity": 116}, {"time": 1659, "pitch": 70, "duration": 1, "velocity": 113}, {"time": 1662, "pitch": 68, "duration": 2, "velocity": 114}, {"time": 1665, "pitch": 70, "duration": 2, "velocity": 116}, {"time": 1668, "pitch": 68, "duration": 1, "velocity": 114}, {"time": 1671, "pitch": 63, "duration": 1, "velocity": 87}, {"time": 1674, "pitch": 68, "duration": 3, "velocity": 108}, {"time": 1680, "pitch": 65, "duration": 3, "velocity": 104}, {"time": 1701, "pitch": 70, "duration": 1, "velocity": 117}, {"time": 1704, "pitch": 70, "duration": 1, "velocity": 110}, {"time": 1707, "pitch": 70, "duration": 1, "velocity": 113}, {"time": 1710, "pitch": 73, "duration": 3, "velocity": 117}, {"time": 1716, "pitch": 70, "duration": 3, "velocity": 119}, {"time": 1725, "pitch": 70, "duration": 1, "velocity": 117}, {"time": 1728, "pitch": 70, "duration": 1, "velocity": 110}, {"time": 1731, "pitch": 70, "duration": 2, "velocity": 110}, {"time": 1734, "pitch": 68, "duration": 3, "velocity": 116}, {"time": 1740, "pitch": 65, "duration": 3, "velocity": 110}, {"time": 1746, "pitch": 68, "duration": 3, "velocity": 116}, {"time": 1749, "pitch": 70, "duration": 1, "velocity": 116}, {"time": 1752, "pitch": 73, "duration": 1, "velocity": 116}, {"time": 1755, "pitch": 73, "duration": 1, "velocity": 116}, {"time": 1758, "pitch": 73, "duration": 1, "velocity": 110}, {"time": 1761, "pitch": 73, "duration": 2, "velocity": 117}, {"time": 1764, "pitch": 70, "duration": 2, "velocity": 119}, {"time": 1767, "pitch": 73, "duration": 1, "velocity": 110}, {"time": 1770, "pitch": 75, "duration": 3, "velocity": 120}, {"time": 1791, "pitch": 68, "duration": 1, "velocity": 108}, {"time": 1794, "pitch": 68, "duration": 1, "velocity": 108}, {"time": 1797, "pitch": 75, "duration": 1, "velocity": 119}, {"time": 1800, "pitch": 75, "duration": 2, "velocity": 116}, {"time": 1803, "pitch": 73, "duration": 1, "velocity": 114}, {"time": 1806, "pitch": 75, "duration": 2, "velocity": 120}, {"time": 1812, "pitch": 77, "duration": 3, "velocity": 119}, {"time": 1821, "pitch": 72, "duration": 1, "velocity": 116}, {"time": 1824, "pitch": 72, "duration": 1, "velocity": 114}, {"time": 1827, "pitch": 72, "duration": 2, "velocity": 116}, {"time": 1830, "pitch": 70, "duration": 4, "velocity": 117}, {"time": 1836, "pitch": 68, "duration": 3, "velocity": 119}, {"time": 1845, "pitch": 70, "duration": 2, "velocity": 114}, {"time": 1848, "pitch": 73, "duration": 1, "velocity": 116}, {"time": 1851, "pitch": 70, "duration": 1, "velocity": 113}, {"time": 1854, "pitch": 68, "duration": 2, "velocity": 114}, {"time": 1857, "pitch": 70, "duration": 2, "velocity": 116}, {"time": 1860, "pitch": 68, "duration": 1, "velocity": 114}, {"time": 1863, "pitch": 63, "duration": 1, "velocity": 87}, {"time": 1866, "pitch": 68, "duration": 3, "velocity": 108}, {"time": 1872, "pitch": 65, "duration": 3, "velocity": 104}, {"time": 1893, "pitch": 70, "duration": 1, "velocity": 117}, {"time": 1896, "pitch": 70, "duration": 1, "velocity": 110}, {"time": 1899, "pitch": 70, "duration": 1, "velocity": 113}, {"time": 1902, "pitch": 73, "duration": 3, "velocity": 117}, {"time": 1908, "pitch": 70, "duration": 3, "velocity": 119}, {"time": 1917, "pitch": 70, "duration": 1, "velocity": 117}, {"time": 1920, "pitch": 70, "duration": 1, "velocity": 110}, {"time": 1923, "pitch": 70, "duration": 2, "velocity": 110}, {"time": 1926, "pitch": 68, "duration": 3, "velocity": 116}, {"time": 1932, "pitch": 65, "duration": 3, "velocity": 110}, {"time": 1938, "pitch": 68, "duration": 3, "velocity": 116}, {"time": 1941, "pitch": 70, "duration": 1, "velocity": 116}, {"time": 1944, "pitch": 73, "duration": 1, "velocity": 116}, {"time": 1947, "pitch": 73, "duration": 1, "velocity": 116}, {"time": 1950, "pitch": 73, "duration": 1, "velocity": 110}, {"time": 1953, "pitch": 73, "duration": 2, "velocity": 117}, {"time": 1956, "pitch": 70, "duration": 2, "velocity": 119}, {"time": 1959, "pitch": 73, "duration": 1, "velocity": 110}, {"time": 1962, "pitch": 75, "duration": 3, "velocity": 120}, {"time": 1983, "pitch": 68, "duration": 1, "velocity": 108}, {"time": 1986, "pitch": 68, "duration": 1, "velocity": 108}, {"time": 1989, "pitch": 75, "duration": 1, "velocity": 119}, {"time": 1992, "pitch": 75, "duration": 2, "velocity": 116}, {"time": 1995, "pitch": 73, "duration": 1, "velocity": 114}, {"time": 1998, "pitch": 75, "duration": 2, "velocity": 120}, {"time": 2004, "pitch": 77, "duration": 3, "velocity": 119}, {"time": 2013, "pitch": 72, "duration": 1, "velocity": 116}, {"time": 2016, "pitch": 72, "duration": 1, "velocity": 114}, {"time": 2019, "pitch": 72, "duration": 2, "velocity": 116}, {"time": 2022, "pitch": 70, "duration": 4, "velocity": 117}, {"time": 2028, "pitch": 68, "duration": 3, "velocity": 119}, {"time": 2037, "pitch": 70, "duration": 2, "velocity": 114}, {"time": 2040, "pitch": 73, "duration": 1, "velocity": 116}, {"time": 2043, "pitch": 70, "duration": 1, "velocity": 113}, {"time": 2046, "pitch": 70, "duration": 2, "velocity": 107}, {"time": 2049, "pitch": 75, "duration": 2, "velocity": 119}, {"time": 2052, "pitch": 73, "duration": 2, "velocity": 110}, {"time": 2055, "pitch": 75, "duration": 1, "velocity": 116}, {"time": 2058, "pitch": 80, "duration": 4, "velocity": 117}, {"time": 2064, "pitch": 77, "duration": 4, "velocity": 120}, {"time": 2070, "pitch": 77, "duration": 3, "velocity": 117}, {"time": 2073, "pitch": 75, "duration": 3, "velocity": 114}, {"time": 2076, "pitch": 73, "duration": 3, "velocity": 116}, {"time": 2085, "pitch": 70, "duration": 1, "velocity": 117}, {"time": 2088, "pitch": 70, "duration": 1, "velocity": 110}, {"time": 2091, "pitch": 70, "duration": 1, "velocity": 113}, {"time": 2094, "pitch": 73, "duration": 3, "velocity": 117}, {"time": 2100, "pitch": 70, "duration": 3, "velocity": 119}, {"time": 2109, "pitch": 70, "duration": 1, "velocity": 117}, {"time": 2112, "pitch": 70, "duration": 1, "velocity": 110}, {"time": 2115, "pitch": 70, "duration": 2, "velocity": 110}, {"time": 2118, "pitch": 68, "duration": 3, "velocity": 116}, {"time": 2124, "pitch": 65, "duration": 3, "velocity": 110}, {"time": 2130, "pitch": 68, "duration": 3, "velocity": 116}, {"time": 2133, "pitch": 70, "duration": 1, "velocity": 116}, {"time": 2136, "pitch": 73, "duration": 1, "velocity": 116}, {"time": 2139, "pitch": 73, "duration": 1, "velocity": 116}, {"time": 2142, "pitch": 73, "duration": 1, "velocity": 110}, {"time": 2145, "pitch": 73, "duration": 2, "velocity": 117}, {"time": 2148, "pitch": 70, "duration": 2, "velocity": 119}, {"time": 2151, "pitch": 73, "duration": 1, "velocity": 110}, {"time": 2154, "pitch": 75, "duration": 3, "velocity": 120}, {"time": 2193, "pitch": 73, "duration": 4, "velocity": 110}, {"time": 2199, "pitch": 72, "duration": 3, "velocity": 113}, {"time": 2205, "pitch": 73, "duration": 5, "velocity": 108}]}, {"program": 0, "is_drum": false, "name": "BRIDGE", "notes": [{"time": 18, "pitch": 68, "duration": 2, "velocity": 87}, {"time": 21, "pitch": 75, "duration": 5, "velocity": 114}, {"time": 27, "pitch": 73, "duration": 3, "velocity": 98}, {"time": 30, "pitch": 75, "duration": 4, "velocity": 104}, {"time": 36, "pitch": 77, "duration": 5, "velocity": 110}, {"time": 45, "pitch": 75, "duration": 4, "velocity": 110}, {"time": 51, "pitch": 73, "duration": 2, "velocity": 96}, {"time": 54, "pitch": 75, "duration": 3, "velocity": 108}, {"time": 60, "pitch": 77, "duration": 4, "velocity": 108}, {"time": 69, "pitch": 75, "duration": 4, "velocity": 94}, {"time": 75, "pitch": 73, "duration": 2, "velocity": 94}, {"time": 78, "pitch": 73, "duration": 6, "velocity": 98}, {"time": 87, "pitch": 75, "duration": 4, "velocity": 108}, {"time": 93, "pitch": 77, "duration": 3, "velocity": 110}, {"time": 117, "pitch": 75, "duration": 4, "velocity": 104}, {"time": 123, "pitch": 73, "duration": 1, "velocity": 98}, {"time": 126, "pitch": 73, "duration": 3, "velocity": 107}, {"time": 135, "pitch": 70, "duration": 5, "velocity": 104}, {"time": 141, "pitch": 68, "duration": 3, "velocity": 92}, {"time": 150, "pitch": 77, "duration": 5, "velocity": 100}, {"time": 163, "pitch": 73, "duration": 2, "velocity": 83}, {"time": 165, "pitch": 75, "duration": 9, "velocity": 87}, {"time": 174, "pitch": 73, "duration": 9, "velocity": 88}, {"time": 183, "pitch": 70, "duration": 6, "velocity": 98}, {"time": 189, "pitch": 68, "duration": 7, "velocity": 96}, {"time": 483, "pitch": 73, "duration": 6, "velocity": 114}, {"time": 489, "pitch": 72, "duration": 6, "velocity": 114}, {"time": 495, "pitch": 68, "duration": 6, "velocity": 114}, {"time": 501, "pitch": 70, "duration": 11, "velocity": 113}, {"time": 702, "pitch": 75, "duration": 1, "velocity": 108}, {"time": 705, "pitch": 77, "duration": 3, "velocity": 114}, {"time": 708, "pitch": 75, "duration": 3, "velocity": 110}, {"time": 714, "pitch": 72, "duration": 2, "velocity": 110}, {"time": 717, "pitch": 73, "duration": 9, "velocity": 108}, {"time": 888, "pitch": 77, "duration": 1, "velocity": 94}, {"time": 894, "pitch": 75, "duration": 1, "velocity": 87}, {"time": 897, "pitch": 75, "duration": 1, "velocity": 85}, {"time": 897, "pitch": 77, "duration": 2, "velocity": 82}, {"time": 900, "pitch": 73, "duration": 2, "velocity": 83}, {"time": 906, "pitch": 73, "duration": 1, "velocity": 80}, {"time": 907, "pitch": 72, "duration": 2, "velocity": 87}, {"time": 909, "pitch": 73, "duration": 3, "velocity": 91}, {"time": 1053, "pitch": 70, "duration": 1, "velocity": 93}, {"time": 1054, "pitch": 72, "duration": 2, "velocity": 89}, {"time": 1056, "pitch": 73, "duration": 3, "velocity": 100}, {"time": 1065, "pitch": 72, "duration": 1, "velocity": 100}, {"time": 1066, "pitch": 73, "duration": 1, "velocity": 89}, {"time": 1068, "pitch": 75, "duration": 2, "velocity": 102}, {"time": 1077, "pitch": 73, "duration": 1, "velocity": 102}, {"time": 1078, "pitch": 75, "duration": 2, "velocity": 93}, {"time": 1080, "pitch": 77, "duration": 1, "velocity": 102}, {"time": 1095, "pitch": 63, "duration": 3, "velocity": 100}, {"time": 1098, "pitch": 65, "duration": 3, "velocity": 98}, {"time": 1101, "pitch": 70, "duration": 9, "velocity": 113}, {"time": 1116, "pitch": 65, "duration": 3, "velocity": 108}, {"time": 1119, "pitch": 64, "duration": 3, "velocity": 100}, {"time": 1122, "pitch": 65, "duration": 2, "velocity": 94}, {"time": 1125, "pitch": 77, "duration": 6, "velocity": 110}, {"time": 1134, "pitch": 80, "duration": 6, "velocity": 108}, {"time": 1143, "pitch": 75, "duration": 5, "velocity": 116}, {"time": 1149, "pitch": 73, "duration": 7, "velocity": 117}, {"time": 1158, "pitch": 70, "duration": 8, "velocity": 114}, {"time": 1167, "pitch": 73, "duration": 5, "velocity": 113}, {"time": 1173, "pitch": 75, "duration": 20, "velocity": 117}, {"time": 1497, "pitch": 77, "duration": 2, "velocity": 113}, {"time": 1501, "pitch": 75, "duration": 5, "velocity": 102}, {"time": 1506, "pitch": 73, "duration": 1, "velocity": 94}, {"time": 1507, "pitch": 75, "duration": 1, "velocity": 86}, {"time": 1509, "pitch": 73, "duration": 5, "velocity": 88}, {"time": 2064, "pitch": 70, "duration": 2, "velocity": 88}, {"time": 2067, "pitch": 73, "duration": 2, "velocity": 98}, {"time": 2070, "pitch": 77, "duration": 3, "velocity": 113}, {"time": 2073, "pitch": 75, "duration": 3, "velocity": 102}, {"time": 2076, "pitch": 73, "duration": 3, "velocity": 92}, {"time": 2079, "pitch": 72, "duration": 3, "velocity": 98}, {"time": 2082, "pitch": 75, "duration": 2, "velocity": 108}, {"time": 2085, "pitch": 73, "duration": 5, "velocity": 107}, {"time": 2202, "pitch": 68, "duration": 2, "velocity": 87}, {"time": 2205, "pitch": 75, "duration": 5, "velocity": 114}, {"time": 2211, "pitch": 73, "duration": 3, "velocity": 98}, {"time": 2214, "pitch": 75, "duration": 4, "velocity": 104}, {"time": 2220, "pitch": 77, "duration": 5, "velocity": 110}, {"time": 2229, "pitch": 75, "duration": 4, "velocity": 110}, {"time": 2235, "pitch": 73, "duration": 2, "velocity": 96}, {"time": 2238, "pitch": 75, "duration": 3, "velocity": 108}, {"time": 2244, "pitch": 77, "duration": 4, "velocity": 108}, {"time": 2253, "pitch": 75, "duration": 4, "velocity": 94}, {"time": 2259, "pitch": 73, "duration": 2, "velocity": 94}, {"time": 2262, "pitch": 73, "duration": 6, "velocity": 98}, {"time": 2271, "pitch": 75, "duration": 4, "velocity": 108}, {"time": 2277, "pitch": 77, "duration": 3, "velocity": 110}, {"time": 2301, "pitch": 75, "duration": 4, "velocity": 104}, {"time": 2307, "pitch": 73, "duration": 1, "velocity": 98}, {"time": 2310, "pitch": 73, "duration": 3, "velocity": 107}, {"time": 2319, "pitch": 70, "duration": 5, "velocity": 104}, {"time": 2325, "pitch": 68, "duration": 3, "velocity": 92}, {"time": 2334, "pitch": 77, "duration": 5, "velocity": 100}, {"time": 2347, "pitch": 73, "duration": 2, "velocity": 83}, {"time": 2349, "pitch": 75, "duration": 9, "velocity": 87}, {"time": 2358, "pitch": 73, "duration": 9, "velocity": 88}, {"time": 2367, "pitch": 70, "duration": 6, "velocity": 98}]}, {"program": 0, "is_drum": false, "name": "PIANO", "notes": [{"time": 21, "pitch": 49, "duration": 20, "velocity": 89}, {"time": 27, "pitch": 56, "duration": 16, "velocity": 65}, {"time": 33, "pitch": 63, "duration": 11, "velocity": 71}, {"time": 45, "pitch": 48, "duration": 18, "velocity": 84}, {"time": 51, "pitch": 56, "duration": 12, "velocity": 66}, {"time": 57, "pitch": 63, "duration": 6, "velocity": 77}, {"time": 63, "pitch": 49, "duration": 3, "velocity": 88}, {"time": 66, "pitch": 48, "duration": 2, "velocity": 87}, {"time": 69, "pitch": 46, "duration": 20, "velocity": 89}, {"time": 75, "pitch": 53, "duration": 13, "velocity": 66}, {"time": 81, "pitch": 58, "duration": 6, "velocity": 75}, {"time": 87, "pitch": 61, "duration": 9, "velocity": 74}, {"time": 93, "pitch": 44, "duration": 19, "velocity": 81}, {"time": 99, "pitch": 51, "duration": 13, "velocity": 65}, {"time": 105, "pitch": 56, "duration": 6, "velocity": 76}, {"time": 108, "pitch": 63, "duration": 3, "velocity": 88}, {"time": 111, "pitch": 68, "duration": 7, "velocity": 100}, {"time": 117, "pitch": 42, "duration": 19, "velocity": 90}, {"time": 123, "pitch": 49, "duration": 12, "velocity": 70}, {"time": 126, "pitch": 54, "duration": 9, "velocity": 78}, {"time": 132, "pitch": 58, "duration": 3, "velocity": 67}, {"time": 135, "pitch": 61, "duration": 4, "velocity": 82}, {"time": 138, "pitch": 66, "duration": 3, "velocity": 86}, {"time": 141, "pitch": 41, "duration": 18, "velocity": 83}, {"time": 141, "pitch": 65, "duration": 5, "velocity": 85}, {"time": 150, "pitch": 53, "duration": 10, "velocity": 74}, {"time": 153, "pitch": 60, "duration": 3, "velocity": 80}, {"time": 156, "pitch": 65, "duration": 3, "velocity": 81}, {"time": 159, "pitch": 68, "duration": 3, "velocity": 88}, {"time": 162, "pitch": 63, "duration": 10, "velocity": 70}, {"time": 165, "pitch": 51, "duration": 19, "velocity": 83}, {"time": 165, "pitch": 70, "duration": 9, "velocity": 82}, {"time": 174, "pitch": 58, "duration": 9, "velocity": 65}, {"time": 180, "pitch": 63, "duration": 14, "velocity": 75}, {"time": 183, "pitch": 66, "duration": 8, "velocity": 82}, {"time": 189, "pitch": 44, "duration": 22, "velocity": 80}, {"time": 195, "pitch": 51, "duration": 16, "velocity": 67}, {"time": 201, "pitch": 56, "duration": 10, "velocity": 70}, {"time": 204, "pitch": 61, "duration": 2, "velocity": 82}, {"time": 207, "pitch": 63, "duration": 6, "velocity": 83}, {"time": 213, "pitch": 49, "duration": 22, "velocity": 83}, {"time": 213, "pitch": 65, "duration": 9, "velocity": 80}, {"time": 213, "pitch": 68, "duration": 10, "velocity": 84}, {"time": 213, "pitch": 73, "duration": 9, "velocity": 79}, {"time": 225, "pitch": 65, "duration": 8, "velocity": 77}, {"time": 225, "pitch": 68, "duration": 21, "velocity": 81}, {"time": 225, "pitch": 73, "duration": 7, "velocity": 78}, {"time": 237, "pitch": 48, "duration": 21, "velocity": 80}, {"time": 237, "pitch": 63, "duration": 8, "velocity": 77}, {"time": 237, "pitch": 72, "duration": 9, "velocity": 78}, {"time": 249, "pitch": 63, "duration": 7, "velocity": 79}, {"time": 249, "pitch": 68, "duration": 7, "velocity": 76}, {"time": 249, "pitch": 72, "duration": 7, "velocity": 75}, {"time": 261, "pitch": 46, "duration": 24, "velocity": 80}, {"time": 261, "pitch": 61, "duration": 9, "velocity": 71}, {"time": 261, "pitch": 65, "duration": 9, "velocity": 78}, {"time": 261, "pitch": 70, "duration": 9, "velocity": 81}, {"time": 273, "pitch": 61, "duration": 8, "velocity": 76}, {"time": 273, "pitch": 65, "duration": 10, "velocity": 81}, {"time": 273, "pitch": 70, "duration": 7, "velocity": 77}, {"time": 285, "pitch": 44, "duration": 19, "velocity": 83}, {"time": 285, "pitch": 60, "duration": 8, "velocity": 77}, {"time": 285, "pitch": 63, "duration": 8, "velocity": 76}, {"time": 285, "pitch": 68, "duration": 8, "velocity": 83}, {"time": 297, "pitch": 60, "duration": 2, "velocity": 78}, {"time": 297, "pitch": 68, "duration": 2, "velocity": 70}, {"time": 300, "pitch": 56, "duration": 3, "velocity": 87}, {"time": 303, "pitch": 63, "duration": 3, "velocity": 108}, {"time": 306, "pitch": 68, "duration": 3, "velocity": 88}, {"time": 309, "pitch": 42, "duration": 23, "velocity": 81}, {"time": 309, "pitch": 61, "duration": 10, "velocity": 77}, {"time": 309, "pitch": 66, "duration": 9, "velocity": 82}, {"time": 321, "pitch": 61, "duration": 8, "velocity": 84}, {"time": 321, "pitch": 66, "duration": 7, "velocity": 86}, {"time": 333, "pitch": 53, "duration": 23, "velocity": 77}, {"time": 333, "pitch": 60, "duration": 9, "velocity": 76}, {"time": 333, "pitch": 65, "duration": 9, "velocity": 79}, {"time": 333, "pitch": 68, "duration": 8, "velocity": 84}, {"time": 345, "pitch": 60, "duration": 7, "velocity": 81}, {"time": 345, "pitch": 65, "duration": 7, "velocity": 83}, {"time": 345, "pitch": 68, "duration": 6, "velocity": 82}, {"time": 357, "pitch": 51, "duration": 25, "velocity": 69}, {"time": 357, "pitch": 58, "duration": 9, "velocity": 77}, {"time": 357, "pitch": 63, "duration": 9, "velocity": 83}, {"time": 357, "pitch": 66, "duration": 9, "velocity": 81}, {"time": 369, "pitch": 58, "duration": 4, "velocity": 77}, {"time": 369, "pitch": 63, "duration": 6, "velocity": 79}, {"time": 369, "pitch": 66, "duration": 7, "velocity": 83}, {"time": 375, "pitch": 58, "duration": 6, "velocity": 78}, {"time": 378, "pitch": 66, "duration": 6, "velocity": 78}, {"time": 381, "pitch": 44, "duration": 19, "velocity": 80}, {"time": 384, "pitch": 51, "duration": 16, "velocity": 74}, {"time": 387, "pitch": 56, "duration": 18, "velocity": 85}, {"time": 390, "pitch": 60, "duration": 10, "velocity": 80}, {"time": 393, "pitch": 68, "duration": 8, "velocity": 89}, {"time": 399, "pitch": 63, "duration": 5, "velocity": 87}, {"time": 405, "pitch": 49, "duration": 20, "velocity": 82}, {"time": 405, "pitch": 61, "duration": 10, "velocity": 79}, {"time": 405, "pitch": 65, "duration": 9, "velocity": 83}, {"time": 405, "pitch": 68, "duration": 8, "velocity": 81}, {"time": 417, "pitch": 61, "duration": 4, "velocity": 83}, {"time": 417, "pitch": 68, "duration": 4, "velocity": 84}, {"time": 420, "pitch": 56, "duration": 9, "velocity": 74}, {"time": 423, "pitch": 65, "duration": 3, "velocity": 84}, {"time": 426, "pitch": 68, "duration": 12, "velocity": 82}, {"time": 429, "pitch": 48, "duration": 23, "velocity": 76}, {"time": 429, "pitch": 60, "duration": 9, "velocity": 83}, {"time": 429, "pitch": 65, "duration": 9, "velocity": 83}, {"time": 441, "pitch": 60, "duration": 7, "velocity": 84}, {"time": 441, "pitch": 68, "duration": 7, "velocity": 82}, {"time": 450, "pitch": 68, "duration": 4, "velocity": 87}, {"time": 453, "pitch": 46, "duration": 19, "velocity": 77}, {"time": 453, "pitch": 61, "duration": 9, "velocity": 82}, {"time": 453, "pitch": 65, "duration": 9, "velocity": 88}, {"time": 459, "pitch": 53, "duration": 12, "velocity": 58}, {"time": 462, "pitch": 58, "duration": 8, "velocity": 82}, {"time": 465, "pitch": 61, "duration": 7, "velocity": 89}, {"time": 465, "pitch": 70, "duration": 6, "velocity": 92}, {"time": 471, "pitch": 65, "duration": 5, "velocity": 83}, {"time": 477, "pitch": 44, "duration": 24, "velocity": 83}, {"time": 477, "pitch": 60, "duration": 9, "velocity": 82}, {"time": 477, "pitch": 68, "duration": 9, "velocity": 87}, {"time": 486, "pitch": 53, "duration": 10, "velocity": 74}, {"time": 489, "pitch": 60, "duration": 4, "velocity": 94}, {"time": 492, "pitch": 68, "duration": 7, "velocity": 108}, {"time": 495, "pitch": 65, "duration": 5, "velocity": 89}, {"time": 501, "pitch": 42, "duration": 19, "velocity": 80}, {"time": 501, "pitch": 54, "duration": 22, "velocity": 78}, {"time": 501, "pitch": 58, "duration": 9, "velocity": 83}, {"time": 501, "pitch": 61, "duration": 9, "velocity": 86}, {"time": 501, "pitch": 66, "duration": 9, "velocity": 85}, {"time": 513, "pitch": 58, "duration": 4, "velocity": 81}, {"time": 513, "pitch": 61, "duration": 9, "velocity": 79}, {"time": 513, "pitch": 66, "duration": 10, "velocity": 84}, {"time": 525, "pitch": 53, "duration": 23, "velocity": 86}, {"time": 525, "pitch": 65, "duration": 9, "velocity": 86}, {"time": 525, "pitch": 68, "duration": 9, "velocity": 84}, {"time": 537, "pitch": 60, "duration": 4, "velocity": 88}, {"time": 540, "pitch": 65, "duration": 3, "velocity": 81}, {"time": 543, "pitch": 68, "duration": 2, "velocity": 91}, {"time": 549, "pitch": 51, "duration": 22, "velocity": 81}, {"time": 549, "pitch": 58, "duration": 8, "velocity": 83}, {"time": 549, "pitch": 63, "duration": 9, "velocity": 87}, {"time": 549, "pitch": 66, "duration": 8, "velocity": 86}, {"time": 561, "pitch": 58, "duration": 6, "velocity": 89}, {"time": 567, "pitch": 63, "duration": 4, "velocity": 88}, {"time": 573, "pitch": 44, "duration": 21, "velocity": 84}, {"time": 573, "pitch": 60, "duration": 7, "velocity": 85}, {"time": 573, "pitch": 63, "duration": 7, "velocity": 88}, {"time": 573, "pitch": 68, "duration": 7, "velocity": 87}, {"time": 576, "pitch": 51, "duration": 21, "velocity": 84}, {"time": 579, "pitch": 56, "duration": 7, "velocity": 87}, {"time": 582, "pitch": 61, "duration": 2, "velocity": 88}, {"time": 585, "pitch": 63, "duration": 5, "velocity": 104}, {"time": 588, "pitch": 56, "duration": 6, "velocity": 86}, {"time": 591, "pitch": 61, "duration": 3, "velocity": 83}, {"time": 594, "pitch": 63, "duration": 18, "velocity": 84}, {"time": 597, "pitch": 44, "duration": 18, "velocity": 86}, {"time": 597, "pitch": 56, "duration": 20, "velocity": 84}, {"time": 597, "pitch": 60, "duration": 13, "velocity": 87}, {"time": 597, "pitch": 68, "duration": 14, "velocity": 86}, {"time": 612, "pitch": 60, "duration": 4, "velocity": 91}, {"time": 615, "pitch": 63, "duration": 4, "velocity": 108}, {"time": 621, "pitch": 49, "duration": 18, "velocity": 92}, {"time": 621, "pitch": 65, "duration": 9, "velocity": 94}, {"time": 621, "pitch": 68, "duration": 10, "velocity": 104}, {"time": 621, "pitch": 73, "duration": 9, "velocity": 91}, {"time": 630, "pitch": 61, "duration": 5, "velocity": 87}, {"time": 633, "pitch": 65, "duration": 9, "velocity": 107}, {"time": 633, "pitch": 68, "duration": 9, "velocity": 114}, {"time": 633, "pitch": 73, "duration": 9, "velocity": 96}, {"time": 639, "pitch": 61, "duration": 5, "velocity": 80}, {"time": 645, "pitch": 53, "duration": 17, "velocity": 89}, {"time": 645, "pitch": 65, "duration": 9, "velocity": 102}, {"time": 645, "pitch": 68, "duration": 9, "velocity": 110}, {"time": 645, "pitch": 72, "duration": 9, "velocity": 102}, {"time": 654, "pitch": 60, "duration": 3, "velocity": 89}, {"time": 657, "pitch": 65, "duration": 5, "velocity": 116}, {"time": 657, "pitch": 72, "duration": 6, "velocity": 107}, {"time": 660, "pitch": 60, "duration": 2, "velocity": 100}, {"time": 663, "pitch": 65, "duration": 1, "velocity": 81}, {"time": 663, "pitch": 68, "duration": 4, "velocity": 116}, {"time": 669, "pitch": 42, "duration": 10, "velocity": 90}, {"time": 669, "pitch": 61, "duration": 6, "velocity": 100}, {"time": 669, "pitch": 66, "duration": 7, "velocity": 114}, {"time": 669, "pitch": 70, "duration": 7, "velocity": 108}, {"time": 675, "pitch": 54, "duration": 6, "velocity": 86}, {"time": 678, "pitch": 70, "duration": 2, "velocity": 107}, {"time": 681, "pitch": 44, "duration": 8, "velocity": 87}, {"time": 681, "pitch": 60, "duration": 7, "velocity": 88}, {"time": 681, "pitch": 63, "duration": 7, "velocity": 91}, {"time": 681, "pitch": 68, "duration": 6, "velocity": 104}, {"time": 687, "pitch": 56, "duration": 6, "velocity": 86}, {"time": 690, "pitch": 60, "duration": 2, "velocity": 91}, {"time": 690, "pitch": 68, "duration": 2, "velocity": 96}, {"time": 693, "pitch": 49, "duration": 19, "velocity": 86}, {"time": 693, "pitch": 61, "duration": 4, "velocity": 88}, {"time": 693, "pitch": 65, "duration": 7, "velocity": 93}, {"time": 693, "pitch": 68, "duration": 8, "velocity": 91}, {"time": 702, "pitch": 56, "duration": 3, "velocity": 87}, {"time": 705, "pitch": 61, "duration": 4, "velocity": 116}, {"time": 705, "pitch": 68, "duration": 5, "velocity": 110}, {"time": 708, "pitch": 56, "duration": 3, "velocity": 91}, {"time": 711, "pitch": 65, "duration": 3, "velocity": 113}, {"time": 717, "pitch": 46, "duration": 19, "velocity": 91}, {"time": 717, "pitch": 61, "duration": 8, "velocity": 91}, {"time": 717, "pitch": 65, "duration": 9, "velocity": 102}, {"time": 717, "pitch": 70, "duration": 8, "velocity": 94}, {"time": 723, "pitch": 53, "duration": 13, "velocity": 73}, {"time": 726, "pitch": 58, "duration": 5, "velocity": 92}, {"time": 729, "pitch": 61, "duration": 5, "velocity": 107}, {"time": 729, "pitch": 70, "duration": 5, "velocity": 102}, {"time": 732, "pitch": 58, "duration": 3, "velocity": 91}, {"time": 735, "pitch": 61, "duration": 3, "velocity": 70}, {"time": 735, "pitch": 65, "duration": 4, "velocity": 90}, {"time": 741, "pitch": 41, "duration": 19, "velocity": 98}, {"time": 741, "pitch": 65, "duration": 4, "velocity": 104}, {"time": 741, "pitch": 68, "duration": 8, "velocity": 100}, {"time": 750, "pitch": 53, "duration": 4, "velocity": 89}, {"time": 753, "pitch": 60, "duration": 4, "velocity": 117}, {"time": 753, "pitch": 68, "duration": 6, "velocity": 113}, {"time": 756, "pitch": 53, "duration": 5, "velocity": 114}, {"time": 759, "pitch": 65, "duration": 3, "velocity": 117}, {"time": 762, "pitch": 68, "duration": 2, "velocity": 107}, {"time": 765, "pitch": 42, "duration": 21, "velocity": 91}, {"time": 765, "pitch": 54, "duration": 6, "velocity": 92}, {"time": 765, "pitch": 58, "duration": 9, "velocity": 87}, {"time": 765, "pitch": 61, "duration": 9, "velocity": 94}, {"time": 765, "pitch": 66, "duration": 9, "velocity": 107}, {"time": 774, "pitch": 54, "duration": 4, "velocity": 114}, {"time": 777, "pitch": 58, "duration": 5, "velocity": 116}, {"time": 777, "pitch": 66, "duration": 7, "velocity": 113}, {"time": 780, "pitch": 54, "duration": 7, "velocity": 104}, {"time": 783, "pitch": 61, "duration": 4, "velocity": 93}, {"time": 789, "pitch": 44, "duration": 18, "velocity": 102}, {"time": 789, "pitch": 60, "duration": 6, "velocity": 107}, {"time": 789, "pitch": 63, "duration": 6, "velocity": 110}, {"time": 789, "pitch": 68, "duration": 6, "velocity": 107}, {"time": 792, "pitch": 51, "duration": 15, "velocity": 87}, {"time": 795, "pitch": 56, "duration": 6, "velocity": 113}, {"time": 798, "pitch": 60, "duration": 2, "velocity": 100}, {"time": 801, "pitch": 68, "duration": 4, "velocity": 117}, {"time": 804, "pitch": 56, "duration": 5, "velocity": 116}, {"time": 807, "pitch": 63, "duration": 4, "velocity": 117}, {"time": 810, "pitch": 68, "duration": 2, "velocity": 94}, {"time": 813, "pitch": 49, "duration": 21, "velocity": 100}, {"time": 813, "pitch": 61, "duration": 1, "velocity": 102}, {"time": 813, "pitch": 65, "duration": 5, "velocity": 110}, {"time": 813, "pitch": 68, "duration": 6, "velocity": 102}, {"time": 819, "pitch": 56, "duration": 15, "velocity": 77}, {"time": 822, "pitch": 61, "duration": 4, "velocity": 92}, {"time": 825, "pitch": 65, "duration": 7, "velocity": 117}, {"time": 825, "pitch": 73, "duration": 6, "velocity": 110}, {"time": 828, "pitch": 61, "duration": 5, "velocity": 94}, {"time": 831, "pitch": 68, "duration": 3, "velocity": 100}, {"time": 834, "pitch": 73, "duration": 2, "velocity": 93}, {"time": 837, "pitch": 53, "duration": 18, "velocity": 91}, {"time": 837, "pitch": 63, "duration": 6, "velocity": 107}, {"time": 837, "pitch": 68, "duration": 9, "velocity": 110}, {"time": 837, "pitch": 72, "duration": 9, "velocity": 96}, {"time": 846, "pitch": 60, "duration": 3, "velocity": 87}, {"time": 849, "pitch": 63, "duration": 4, "velocity": 119}, {"time": 849, "pitch": 72, "duration": 5, "velocity": 113}, {"time": 852, "pitch": 60, "duration": 2, "velocity": 92}, {"time": 855, "pitch": 68, "duration": 4, "velocity": 119}, {"time": 861, "pitch": 42, "duration": 8, "velocity": 96}, {"time": 861, "pitch": 61, "duration": 7, "velocity": 108}, {"time": 861, "pitch": 66, "duration": 7, "velocity": 116}, {"time": 861, "pitch": 70, "duration": 7, "velocity": 116}, {"time": 867, "pitch": 54, "duration": 5, "velocity": 88}, {"time": 873, "pitch": 44, "duration": 8, "velocity": 96}, {"time": 873, "pitch": 60, "duration": 6, "velocity": 98}, {"time": 873, "pitch": 63, "duration": 6, "velocity": 114}, {"time": 873, "pitch": 68, "duration": 6, "velocity": 104}, {"time": 879, "pitch": 51, "duration": 3, "velocity": 88}, {"time": 882, "pitch": 60, "duration": 2, "velocity": 96}, {"time": 882, "pitch": 63, "duration": 2, "velocity": 110}, {"time": 882, "pitch": 68, "duration": 2, "velocity": 110}, {"time": 885, "pitch": 49, "duration": 19, "velocity": 92}, {"time": 885, "pitch": 61, "duration": 5, "velocity": 102}, {"time": 885, "pitch": 65, "duration": 8, "velocity": 113}, {"time": 885, "pitch": 68, "duration": 8, "velocity": 93}, {"time": 894, "pitch": 56, "duration": 4, "velocity": 88}, {"time": 897, "pitch": 61, "duration": 4, "velocity": 119}, {"time": 897, "pitch": 68, "duration": 4, "velocity": 114}, {"time": 900, "pitch": 56, "duration": 3, "velocity": 104}, {"time": 903, "pitch": 65, "duration": 3, "velocity": 117}, {"time": 906, "pitch": 68, "duration": 2, "velocity": 104}, {"time": 909, "pitch": 46, "duration": 20, "velocity": 98}, {"time": 909, "pitch": 58, "duration": 1, "velocity": 89}, {"time": 909, "pitch": 61, "duration": 9, "velocity": 91}, {"time": 909, "pitch": 68, "duration": 9, "velocity": 87}, {"time": 915, "pitch": 53, "duration": 14, "velocity": 81}, {"time": 918, "pitch": 58, "duration": 4, "velocity": 89}, {"time": 921, "pitch": 61, "duration": 7, "velocity": 117}, {"time": 921, "pitch": 68, "duration": 7, "velocity": 116}, {"time": 927, "pitch": 58, "duration": 1, "velocity": 87}, {"time": 933, "pitch": 41, "duration": 18, "velocity": 91}, {"time": 933, "pitch": 60, "duration": 9, "velocity": 104}, {"time": 933, "pitch": 65, "duration": 6, "velocity": 110}, {"time": 933, "pitch": 68, "duration": 9, "velocity": 98}, {"time": 942, "pitch": 53, "duration": 4, "velocity": 113}, {"time": 945, "pitch": 60, "duration": 5, "velocity": 116}, {"time": 945, "pitch": 68, "duration": 5, "velocity": 110}, {"time": 948, "pitch": 53, "duration": 4, "velocity": 116}, {"time": 951, "pitch": 65, "duration": 4, "velocity": 119}, {"time": 957, "pitch": 42, "duration": 20, "velocity": 88}, {"time": 957, "pitch": 54, "duration": 6, "velocity": 94}, {"time": 957, "pitch": 58, "duration": 10, "velocity": 91}, {"time": 957, "pitch": 61, "duration": 10, "velocity": 107}, {"time": 957, "pitch": 66, "duration": 9, "velocity": 104}, {"time": 966, "pitch": 54, "duration": 4, "velocity": 92}, {"time": 969, "pitch": 58, "duration": 7, "velocity": 113}, {"time": 969, "pitch": 66, "duration": 7, "velocity": 114}, {"time": 972, "pitch": 54, "duration": 7, "velocity": 98}, {"time": 975, "pitch": 61, "duration": 4, "velocity": 87}, {"time": 981, "pitch": 44, "duration": 18, "velocity": 91}, {"time": 981, "pitch": 60, "duration": 9, "velocity": 100}, {"time": 981, "pitch": 63, "duration": 10, "velocity": 110}, {"time": 981, "pitch": 68, "duration": 10, "velocity": 107}, {"time": 990, "pitch": 51, "duration": 4, "velocity": 88}, {"time": 993, "pitch": 60, "duration": 4, "velocity": 113}, {"time": 993, "pitch": 68, "duration": 4, "velocity": 113}, {"time": 996, "pitch": 51, "duration": 4, "velocity": 88}, {"time": 999, "pitch": 60, "duration": 2, "velocity": 81}, {"time": 999, "pitch": 63, "duration": 4, "velocity": 98}, {"time": 999, "pitch": 68, "duration": 3, "velocity": 84}, {"time": 1005, "pitch": 46, "duration": 18, "velocity": 90}, {"time": 1005, "pitch": 61, "duration": 7, "velocity": 91}, {"time": 1005, "pitch": 65, "duration": 9, "velocity": 96}, {"time": 1005, "pitch": 70, "duration": 9, "velocity": 92}, {"time": 1011, "pitch": 53, "duration": 13, "velocity": 66}, {"time": 1014, "pitch": 58, "duration": 9, "velocity": 87}, {"time": 1017, "pitch": 61, "duration": 6, "velocity": 94}, {"time": 1023, "pitch": 65, "duration": 4, "velocity": 89}, {"time": 1026, "pitch": 70, "duration": 2, "velocity": 88}, {"time": 1029, "pitch": 53, "duration": 20, "velocity": 88}, {"time": 1029, "pitch": 60, "duration": 4, "velocity": 91}, {"time": 1029, "pitch": 65, "duration": 5, "velocity": 90}, {"time": 1029, "pitch": 68, "duration": 4, "velocity": 88}, {"time": 1035, "pitch": 60, "duration": 4, "velocity": 73}, {"time": 1035, "pitch": 65, "duration": 4, "velocity": 70}, {"time": 1035, "pitch": 68, "duration": 3, "velocity": 80}, {"time": 1041, "pitch": 60, "duration": 4, "velocity": 87}, {"time": 1041, "pitch": 68, "duration": 4, "velocity": 83}, {"time": 1047, "pitch": 65, "duration": 2, "velocity": 93}, {"time": 1047, "pitch": 68, "duration": 1, "velocity": 86}, {"time": 1053, "pitch": 42, "duration": 9, "velocity": 84}, {"time": 1053, "pitch": 61, "duration": 8, "velocity": 82}, {"time": 1053, "pitch": 66, "duration": 8, "velocity": 87}, {"time": 1053, "pitch": 70, "duration": 8, "velocity": 83}, {"time": 1065, "pitch": 44, "duration": 7, "velocity": 84}, {"time": 1065, "pitch": 60, "duration": 4, "velocity": 83}, {"time": 1065, "pitch": 63, "duration": 4, "velocity": 86}, {"time": 1065, "pitch": 68, "duration": 3, "velocity": 78}, {"time": 1068, "pitch": 51, "duration": 4, "velocity": 82}, {"time": 1071, "pitch": 60, "duration": 3, "velocity": 84}, {"time": 1074, "pitch": 63, "duration": 3, "velocity": 80}, {"time": 1077, "pitch": 49, "duration": 19, "velocity": 84}, {"time": 1077, "pitch": 61, "duration": 8, "velocity": 83}, {"time": 1077, "pitch": 65, "duration": 8, "velocity": 84}, {"time": 1077, "pitch": 68, "duration": 8, "velocity": 81}, {"time": 1086, "pitch": 56, "duration": 5, "velocity": 74}, {"time": 1089, "pitch": 61, "duration": 5, "velocity": 93}, {"time": 1089, "pitch": 68, "duration": 4, "velocity": 89}, {"time": 1092, "pitch": 56, "duration": 3, "velocity": 87}, {"time": 1095, "pitch": 63, "duration": 4, "velocity": 85}, {"time": 1101, "pitch": 46, "duration": 18, "velocity": 86}, {"time": 1101, "pitch": 61, "duration": 7, "velocity": 84}, {"time": 1101, "pitch": 65, "duration": 8, "velocity": 86}, {"time": 1101, "pitch": 70, "duration": 8, "velocity": 87}, {"time": 1107, "pitch": 53, "duration": 12, "velocity": 64}, {"time": 1110, "pitch": 58, "duration": 4, "velocity": 84}, {"time": 1113, "pitch": 61, "duration": 4, "velocity": 102}, {"time": 1113, "pitch": 70, "duration": 3, "velocity": 100}, {"time": 1116, "pitch": 58, "duration": 2, "velocity": 84}, {"time": 1119, "pitch": 65, "duration": 4, "velocity": 91}, {"time": 1119, "pitch": 70, "duration": 2, "velocity": 89}, {"time": 1125, "pitch": 41, "duration": 19, "velocity": 86}, {"time": 1125, "pitch": 60, "duration": 3, "velocity": 89}, {"time": 1125, "pitch": 65, "duration": 3, "velocity": 89}, {"time": 1125, "pitch": 68, "duration": 3, "velocity": 89}, {"time": 1131, "pitch": 60, "duration": 3, "velocity": 84}, {"time": 1131, "pitch": 68, "duration": 3, "velocity": 86}, {"time": 1134, "pitch": 53, "duration": 3, "velocity": 86}, {"time": 1137, "pitch": 60, "duration": 3, "velocity": 104}, {"time": 1137, "pitch": 68, "duration": 4, "velocity": 98}, {"time": 1140, "pitch": 53, "duration": 4, "velocity": 100}, {"time": 1143, "pitch": 65, "duration": 3, "velocity": 108}, {"time": 1149, "pitch": 42, "duration": 20, "velocity": 86}, {"time": 1149, "pitch": 58, "duration": 9, "velocity": 77}, {"time": 1149, "pitch": 61, "duration": 8, "velocity": 81}, {"time": 1149, "pitch": 66, "duration": 7, "velocity": 84}, {"time": 1158, "pitch": 54, "duration": 9, "velocity": 77}, {"time": 1161, "pitch": 58, "duration": 9, "velocity": 84}, {"time": 1161, "pitch": 61, "duration": 11, "velocity": 86}, {"time": 1161, "pitch": 66, "duration": 9, "velocity": 88}, {"time": 1173, "pitch": 44, "duration": 22, "velocity": 82}, {"time": 1173, "pitch": 60, "duration": 21, "velocity": 81}, {"time": 1173, "pitch": 63, "duration": 22, "velocity": 80}, {"time": 1173, "pitch": 68, "duration": 22, "velocity": 83}, {"time": 1182, "pitch": 51, "duration": 12, "velocity": 54}, {"time": 1197, "pitch": 49, "duration": 20, "velocity": 82}, {"time": 1197, "pitch": 61, "duration": 10, "velocity": 79}, {"time": 1197, "pitch": 65, "duration": 9, "velocity": 83}, {"time": 1197, "pitch": 68, "duration": 8, "velocity": 81}, {"time": 1209, "pitch": 61, "duration": 4, "velocity": 83}, {"time": 1209, "pitch": 68, "duration": 4, "velocity": 84}, {"time": 1212, "pitch": 56, "duration": 9, "velocity": 74}, {"time": 1215, "pitch": 65, "duration": 3, "velocity": 84}, {"time": 1218, "pitch": 68, "duration": 12, "velocity": 82}, {"time": 1221, "pitch": 48, "duration": 23, "velocity": 76}, {"time": 1221, "pitch": 60, "duration": 9, "velocity": 83}, {"time": 1221, "pitch": 65, "duration": 9, "velocity": 83}, {"time": 1233, "pitch": 60, "duration": 7, "velocity": 84}, {"time": 1233, "pitch": 68, "duration": 7, "velocity": 82}, {"time": 1242, "pitch": 68, "duration": 4, "velocity": 87}, {"time": 1245, "pitch": 46, "duration": 19, "velocity": 77}, {"time": 1245, "pitch": 61, "duration": 9, "velocity": 82}, {"time": 1245, "pitch": 65, "duration": 9, "velocity": 88}, {"time": 1251, "pitch": 53, "duration": 12, "velocity": 58}, {"time": 1254, "pitch": 58, "duration": 8, "velocity": 82}, {"time": 1257, "pitch": 61, "duration": 7, "velocity": 89}, {"time": 1257, "pitch": 70, "duration": 6, "velocity": 92}, {"time": 1263, "pitch": 65, "duration": 5, "velocity": 83}, {"time": 1269, "pitch": 44, "duration": 24, "velocity": 83}, {"time": 1269, "pitch": 60, "duration": 9, "velocity": 82}, {"time": 1269, "pitch": 68, "duration": 9, "velocity": 87}, {"time": 1278, "pitch": 53, "duration": 10, "velocity": 74}, {"time": 1281, "pitch": 60, "duration": 4, "velocity": 94}, {"time": 1284, "pitch": 68, "duration": 7, "velocity": 108}, {"time": 1287, "pitch": 65, "duration": 5, "velocity": 89}, {"time": 1293, "pitch": 42, "duration": 19, "velocity": 80}, {"time": 1293, "pitch": 54, "duration": 22, "velocity": 78}, {"time": 1293, "pitch": 58, "duration": 9, "velocity": 83}, {"time": 1293, "pitch": 61, "duration": 9, "velocity": 86}, {"time": 1293, "pitch": 66, "duration": 9, "velocity": 85}, {"time": 1305, "pitch": 58, "duration": 4, "velocity": 81}, {"time": 1305, "pitch": 61, "duration": 9, "velocity": 79}, {"time": 1305, "pitch": 66, "duration": 10, "velocity": 84}, {"time": 1317, "pitch": 53, "duration": 23, "velocity": 86}, {"time": 1317, "pitch": 65, "duration": 9, "velocity": 86}, {"time": 1317, "pitch": 68, "duration": 9, "velocity": 84}, {"time": 1329, "pitch": 60, "duration": 4, "velocity": 88}, {"time": 1332, "pitch": 65, "duration": 3, "velocity": 81}, {"time": 1335, "pitch": 68, "duration": 2, "velocity": 91}, {"time": 1341, "pitch": 51, "duration": 22, "velocity": 81}, {"time": 1341, "pitch": 58, "duration": 8, "velocity": 83}, {"time": 1341, "pitch": 63, "duration": 9, "velocity": 87}, {"time": 1341, "pitch": 66, "duration": 8, "velocity": 86}, {"time": 1353, "pitch": 58, "duration": 6, "velocity": 89}, {"time": 1359, "pitch": 63, "duration": 4, "velocity": 88}, {"time": 1365, "pitch": 44, "duration": 21, "velocity": 84}, {"time": 1365, "pitch": 60, "duration": 7, "velocity": 85}, {"time": 1365, "pitch": 63, "duration": 7, "velocity": 88}, {"time": 1365, "pitch": 68, "duration": 7, "velocity": 87}, {"time": 1368, "pitch": 51, "duration": 21, "velocity": 84}, {"time": 1371, "pitch": 56, "duration": 7, "velocity": 87}, {"time": 1374, "pitch": 61, "duration": 2, "velocity": 88}, {"time": 1377, "pitch": 63, "duration": 5, "velocity": 104}, {"time": 1380, "pitch": 56, "duration": 6, "velocity": 86}, {"time": 1383, "pitch": 61, "duration": 3, "velocity": 83}, {"time": 1386, "pitch": 63, "duration": 18, "velocity": 84}, {"time": 1389, "pitch": 44, "duration": 18, "velocity": 86}, {"time": 1389, "pitch": 56, "duration": 20, "velocity": 84}, {"time": 1389, "pitch": 60, "duration": 13, "velocity": 87}, {"time": 1389, "pitch": 68, "duration": 14, "velocity": 86}, {"time": 1404, "pitch": 60, "duration": 4, "velocity": 91}, {"time": 1407, "pitch": 63, "duration": 4, "velocity": 108}, {"time": 1413, "pitch": 49, "duration": 18, "velocity": 92}, {"time": 1413, "pitch": 65, "duration": 9, "velocity": 94}, {"time": 1413, "pitch": 68, "duration": 10, "velocity": 104}, {"time": 1413, "pitch": 73, "duration": 9, "velocity": 91}, {"time": 1422, "pitch": 61, "duration": 5, "velocity": 87}, {"time": 1425, "pitch": 65, "duration": 9, "velocity": 107}, {"time": 1425, "pitch": 68, "duration": 9, "velocity": 114}, {"time": 1425, "pitch": 73, "duration": 9, "velocity": 96}, {"time": 1431, "pitch": 61, "duration": 5, "velocity": 80}, {"time": 1437, "pitch": 53, "duration": 17, "velocity": 89}, {"time": 1437, "pitch": 65, "duration": 9, "velocity": 102}, {"time": 1437, "pitch": 68, "duration": 9, "velocity": 110}, {"time": 1437, "pitch": 72, "duration": 9, "velocity": 102}, {"time": 1446, "pitch": 60, "duration": 3, "velocity": 89}, {"time": 1449, "pitch": 65, "duration": 5, "velocity": 116}, {"time": 1449, "pitch": 72, "duration": 6, "velocity": 107}, {"time": 1452, "pitch": 60, "duration": 2, "velocity": 100}, {"time": 1455, "pitch": 65, "duration": 1, "velocity": 81}, {"time": 1455, "pitch": 68, "duration": 4, "velocity": 116}, {"time": 1461, "pitch": 42, "duration": 10, "velocity": 90}, {"time": 1461, "pitch": 61, "duration": 6, "velocity": 100}, {"time": 1461, "pitch": 66, "duration": 7, "velocity": 114}, {"time": 1461, "pitch": 70, "duration": 7, "velocity": 108}, {"time": 1467, "pitch": 54, "duration": 6, "velocity": 86}, {"time": 1470, "pitch": 70, "duration": 2, "velocity": 107}, {"time": 1473, "pitch": 44, "duration": 8, "velocity": 87}, {"time": 1473, "pitch": 60, "duration": 7, "velocity": 88}, {"time": 1473, "pitch": 63, "duration": 7, "velocity": 91}, {"time": 1473, "pitch": 68, "duration": 6, "velocity": 104}, {"time": 1479, "pitch": 56, "duration": 6, "velocity": 86}, {"time": 1482, "pitch": 60, "duration": 2, "velocity": 91}, {"time": 1482, "pitch": 68, "duration": 2, "velocity": 96}, {"time": 1485, "pitch": 49, "duration": 19, "velocity": 86}, {"time": 1485, "pitch": 61, "duration": 4, "velocity": 88}, {"time": 1485, "pitch": 65, "duration": 7, "velocity": 93}, {"time": 1485, "pitch": 68, "duration": 8, "velocity": 91}, {"time": 1494, "pitch": 56, "duration": 3, "velocity": 87}, {"time": 1497, "pitch": 61, "duration": 4, "velocity": 116}, {"time": 1497, "pitch": 68, "duration": 5, "velocity": 110}, {"time": 1500, "pitch": 56, "duration": 3, "velocity": 91}, {"time": 1503, "pitch": 65, "duration": 3, "velocity": 113}, {"time": 1509, "pitch": 46, "duration": 19, "velocity": 91}, {"time": 1509, "pitch": 61, "duration": 8, "velocity": 91}, {"time": 1509, "pitch": 65, "duration": 9, "velocity": 102}, {"time": 1509, "pitch": 70, "duration": 8, "velocity": 94}, {"time": 1515, "pitch": 53, "duration": 13, "velocity": 73}, {"time": 1518, "pitch": 58, "duration": 5, "velocity": 92}, {"time": 1521, "pitch": 61, "duration": 5, "velocity": 107}, {"time": 1521, "pitch": 70, "duration": 5, "velocity": 102}, {"time": 1524, "pitch": 58, "duration": 3, "velocity": 91}, {"time": 1527, "pitch": 61, "duration": 3, "velocity": 70}, {"time": 1527, "pitch": 65, "duration": 4, "velocity": 90}, {"time": 1533, "pitch": 41, "duration": 19, "velocity": 98}, {"time": 1533, "pitch": 65, "duration": 4, "velocity": 104}, {"time": 1533, "pitch": 68, "duration": 8, "velocity": 100}, {"time": 1542, "pitch": 53, "duration": 4, "velocity": 89}, {"time": 1545, "pitch": 60, "duration": 4, "velocity": 117}, {"time": 1545, "pitch": 68, "duration": 6, "velocity": 113}, {"time": 1548, "pitch": 53, "duration": 5, "velocity": 114}, {"time": 1551, "pitch": 65, "duration": 3, "velocity": 117}, {"time": 1554, "pitch": 68, "duration": 2, "velocity": 107}, {"time": 1557, "pitch": 42, "duration": 21, "velocity": 91}, {"time": 1557, "pitch": 54, "duration": 6, "velocity": 92}, {"time": 1557, "pitch": 58, "duration": 9, "velocity": 87}, {"time": 1557, "pitch": 61, "duration": 9, "velocity": 94}, {"time": 1557, "pitch": 66, "duration": 9, "velocity": 107}, {"time": 1566, "pitch": 54, "duration": 4, "velocity": 114}, {"time": 1569, "pitch": 58, "duration": 5, "velocity": 116}, {"time": 1569, "pitch": 66, "duration": 7, "velocity": 113}, {"time": 1572, "pitch": 54, "duration": 7, "velocity": 104}, {"time": 1575, "pitch": 61, "duration": 4, "velocity": 93}, {"time": 1581, "pitch": 44, "duration": 18, "velocity": 102}, {"time": 1581, "pitch": 60, "duration": 6, "velocity": 107}, {"time": 1581, "pitch": 63, "duration": 6, "velocity": 110}, {"time": 1581, "pitch": 68, "duration": 6, "velocity": 107}, {"time": 1584, "pitch": 51, "duration": 15, "velocity": 87}, {"time": 1587, "pitch": 56, "duration": 6, "velocity": 113}, {"time": 1590, "pitch": 60, "duration": 2, "velocity": 100}, {"time": 1593, "pitch": 68, "duration": 4, "velocity": 117}, {"time": 1596, "pitch": 56, "duration": 5, "velocity": 116}, {"time": 1599, "pitch": 63, "duration": 4, "velocity": 117}, {"time": 1602, "pitch": 68, "duration": 2, "velocity": 94}, {"time": 1605, "pitch": 49, "duration": 21, "velocity": 100}, {"time": 1605, "pitch": 61, "duration": 1, "velocity": 102}, {"time": 1605, "pitch": 65, "duration": 5, "velocity": 110}, {"time": 1605, "pitch": 68, "duration": 6, "velocity": 102}, {"time": 1611, "pitch": 56, "duration": 15, "velocity": 77}, {"time": 1614, "pitch": 61, "duration": 4, "velocity": 92}, {"time": 1617, "pitch": 65, "duration": 7, "velocity": 117}, {"time": 1617, "pitch": 73, "duration": 6, "velocity": 110}, {"time": 1620, "pitch": 61, "duration": 5, "velocity": 94}, {"time": 1623, "pitch": 68, "duration": 3, "velocity": 100}, {"time": 1626, "pitch": 73, "duration": 2, "velocity": 93}, {"time": 1629, "pitch": 53, "duration": 18, "velocity": 91}, {"time": 1629, "pitch": 63, "duration": 6, "velocity": 107}, {"time": 1629, "pitch": 68, "duration": 9, "velocity": 110}, {"time": 1629, "pitch": 72, "duration": 9, "velocity": 96}, {"time": 1638, "pitch": 60, "duration": 3, "velocity": 87}, {"time": 1641, "pitch": 63, "duration": 4, "velocity": 119}, {"time": 1641, "pitch": 72, "duration": 5, "velocity": 113}, {"time": 1644, "pitch": 60, "duration": 2, "velocity": 92}, {"time": 1647, "pitch": 68, "duration": 4, "velocity": 119}, {"time": 1653, "pitch": 42, "duration": 8, "velocity": 96}, {"time": 1653, "pitch": 61, "duration": 7, "velocity": 108}, {"time": 1653, "pitch": 66, "duration": 7, "velocity": 116}, {"time": 1653, "pitch": 70, "duration": 7, "velocity": 116}, {"time": 1659, "pitch": 54, "duration": 5, "velocity": 88}, {"time": 1665, "pitch": 44, "duration": 8, "velocity": 96}, {"time": 1665, "pitch": 60, "duration": 6, "velocity": 98}, {"time": 1665, "pitch": 63, "duration": 6, "velocity": 114}, {"time": 1665, "pitch": 68, "duration": 6, "velocity": 104}, {"time": 1671, "pitch": 51, "duration": 3, "velocity": 88}, {"time": 1674, "pitch": 60, "duration": 2, "velocity": 96}, {"time": 1674, "pitch": 63, "duration": 2, "velocity": 110}, {"time": 1674, "pitch": 68, "duration": 2, "velocity": 110}, {"time": 1677, "pitch": 49, "duration": 19, "velocity": 92}, {"time": 1677, "pitch": 61, "duration": 5, "velocity": 102}, {"time": 1677, "pitch": 65, "duration": 8, "velocity": 113}, {"time": 1677, "pitch": 68, "duration": 8, "velocity": 93}, {"time": 1686, "pitch": 56, "duration": 4, "velocity": 88}, {"time": 1689, "pitch": 61, "duration": 4, "velocity": 119}, {"time": 1689, "pitch": 68, "duration": 4, "velocity": 114}, {"time": 1692, "pitch": 56, "duration": 3, "velocity": 104}, {"time": 1695, "pitch": 65, "duration": 3, "velocity": 117}, {"time": 1698, "pitch": 68, "duration": 2, "velocity": 104}, {"time": 1701, "pitch": 46, "duration": 20, "velocity": 98}, {"time": 1701, "pitch": 58, "duration": 1, "velocity": 89}, {"time": 1701, "pitch": 61, "duration": 9, "velocity": 91}, {"time": 1701, "pitch": 68, "duration": 9, "velocity": 87}, {"time": 1707, "pitch": 53, "duration": 14, "velocity": 81}, {"time": 1710, "pitch": 58, "duration": 4, "velocity": 89}, {"time": 1713, "pitch": 61, "duration": 7, "velocity": 117}, {"time": 1713, "pitch": 68, "duration": 7, "velocity": 116}, {"time": 1719, "pitch": 58, "duration": 1, "velocity": 87}, {"time": 1725, "pitch": 41, "duration": 18, "velocity": 91}, {"time": 1725, "pitch": 60, "duration": 9, "velocity": 104}, {"time": 1725, "pitch": 65, "duration": 6, "velocity": 110}, {"time": 1725, "pitch": 68, "duration": 9, "velocity": 98}, {"time": 1734, "pitch": 53, "duration": 4, "velocity": 113}, {"time": 1737, "pitch": 60, "duration": 5, "velocity": 116}, {"time": 1737, "pitch": 68, "duration": 5, "velocity": 110}, {"time": 1740, "pitch": 53, "duration": 4, "velocity": 116}, {"time": 1743, "pitch": 65, "duration": 4, "velocity": 119}, {"time": 1749, "pitch": 42, "duration": 20, "velocity": 88}, {"time": 1749, "pitch": 54, "duration": 6, "velocity": 94}, {"time": 1749, "pitch": 58, "duration": 10, "velocity": 91}, {"time": 1749, "pitch": 61, "duration": 10, "velocity": 107}, {"time": 1749, "pitch": 66, "duration": 9, "velocity": 104}, {"time": 1758, "pitch": 54, "duration": 4, "velocity": 92}, {"time": 1761, "pitch": 58, "duration": 7, "velocity": 113}, {"time": 1761, "pitch": 66, "duration": 7, "velocity": 114}, {"time": 1764, "pitch": 54, "duration": 7, "velocity": 98}, {"time": 1767, "pitch": 61, "duration": 4, "velocity": 87}, {"time": 1773, "pitch": 44, "duration": 18, "velocity": 91}, {"time": 1773, "pitch": 60, "duration": 9, "velocity": 100}, {"time": 1773, "pitch": 63, "duration": 10, "velocity": 110}, {"time": 1773, "pitch": 68, "duration": 10, "velocity": 107}, {"time": 1782, "pitch": 51, "duration": 4, "velocity": 88}, {"time": 1785, "pitch": 60, "duration": 4, "velocity": 113}, {"time": 1785, "pitch": 68, "duration": 4, "velocity": 113}, {"time": 1788, "pitch": 51, "duration": 4, "velocity": 88}, {"time": 1791, "pitch": 60, "duration": 2, "velocity": 81}, {"time": 1791, "pitch": 63, "duration": 4, "velocity": 98}, {"time": 1791, "pitch": 68, "duration": 3, "velocity": 84}, {"time": 1797, "pitch": 49, "duration": 18, "velocity": 91}, {"time": 1803, "pitch": 56, "duration": 11, "velocity": 72}, {"time": 1809, "pitch": 63, "duration": 7, "velocity": 89}, {"time": 1809, "pitch": 68, "duration": 6, "velocity": 87}, {"time": 1815, "pitch": 65, "duration": 3, "velocity": 86}, {"time": 1821, "pitch": 41, "duration": 18, "velocity": 85}, {"time": 1821, "pitch": 60, "duration": 7, "velocity": 83}, {"time": 1821, "pitch": 68, "duration": 8, "velocity": 86}, {"time": 1830, "pitch": 53, "duration": 10, "velocity": 81}, {"time": 1833, "pitch": 65, "duration": 6, "velocity": 89}, {"time": 1839, "pitch": 68, "duration": 6, "velocity": 84}, {"time": 1845, "pitch": 42, "duration": 8, "velocity": 88}, {"time": 1851, "pitch": 49, "duration": 6, "velocity": 78}, {"time": 1857, "pitch": 44, "duration": 8, "velocity": 86}, {"time": 1863, "pitch": 51, "duration": 5, "velocity": 76}, {"time": 1869, "pitch": 49, "duration": 21, "velocity": 88}, {"time": 1875, "pitch": 56, "duration": 7, "velocity": 70}, {"time": 1881, "pitch": 63, "duration": 7, "velocity": 89}, {"time": 1881, "pitch": 68, "duration": 6, "velocity": 92}, {"time": 1887, "pitch": 65, "duration": 3, "velocity": 72}, {"time": 1893, "pitch": 46, "duration": 19, "velocity": 84}, {"time": 1893, "pitch": 61, "duration": 6, "velocity": 83}, {"time": 1893, "pitch": 65, "duration": 6, "velocity": 83}, {"time": 1893, "pitch": 70, "duration": 6, "velocity": 87}, {"time": 1899, "pitch": 53, "duration": 12, "velocity": 66}, {"time": 1905, "pitch": 61, "duration": 8, "velocity": 92}, {"time": 1905, "pitch": 70, "duration": 7, "velocity": 92}, {"time": 1917, "pitch": 41, "duration": 18, "velocity": 87}, {"time": 1917, "pitch": 60, "duration": 9, "velocity": 87}, {"time": 1917, "pitch": 68, "duration": 8, "velocity": 88}, {"time": 1926, "pitch": 53, "duration": 5, "velocity": 81}, {"time": 1929, "pitch": 60, "duration": 6, "velocity": 91}, {"time": 1929, "pitch": 65, "duration": 9, "velocity": 104}, {"time": 1935, "pitch": 53, "duration": 3, "velocity": 80}, {"time": 1941, "pitch": 42, "duration": 19, "velocity": 89}, {"time": 1941, "pitch": 58, "duration": 9, "velocity": 92}, {"time": 1941, "pitch": 66, "duration": 8, "velocity": 98}, {"time": 1950, "pitch": 54, "duration": 6, "velocity": 81}, {"time": 1953, "pitch": 58, "duration": 6, "velocity": 104}, {"time": 1953, "pitch": 66, "duration": 7, "velocity": 104}, {"time": 1959, "pitch": 54, "duration": 4, "velocity": 87}, {"time": 1965, "pitch": 44, "duration": 18, "velocity": 94}, {"time": 1965, "pitch": 60, "duration": 6, "velocity": 104}, {"time": 1965, "pitch": 68, "duration": 6, "velocity": 98}, {"time": 1968, "pitch": 51, "duration": 16, "velocity": 91}, {"time": 1971, "pitch": 56, "duration": 6, "velocity": 113}, {"time": 1974, "pitch": 58, "duration": 2, "velocity": 100}, {"time": 1974, "pitch": 63, "duration": 2, "velocity": 100}, {"time": 1977, "pitch": 60, "duration": 3, "velocity": 114}, {"time": 1977, "pitch": 63, "duration": 4, "velocity": 110}, {"time": 1980, "pitch": 56, "duration": 5, "velocity": 117}, {"time": 1983, "pitch": 60, "duration": 3, "velocity": 116}, {"time": 1983, "pitch": 68, "duration": 1, "velocity": 92}, {"time": 1986, "pitch": 63, "duration": 2, "velocity": 100}, {"time": 1989, "pitch": 49, "duration": 21, "velocity": 100}, {"time": 1989, "pitch": 61, "duration": 3, "velocity": 114}, {"time": 1989, "pitch": 65, "duration": 7, "velocity": 116}, {"time": 1989, "pitch": 68, "duration": 9, "velocity": 108}, {"time": 1995, "pitch": 56, "duration": 17, "velocity": 81}, {"time": 1998, "pitch": 61, "duration": 4, "velocity": 94}, {"time": 2001, "pitch": 65, "duration": 7, "velocity": 110}, {"time": 2001, "pitch": 68, "duration": 10, "velocity": 104}, {"time": 2007, "pitch": 61, "duration": 2, "velocity": 84}, {"time": 2013, "pitch": 53, "duration": 6, "velocity": 93}, {"time": 2013, "pitch": 60, "duration": 9, "velocity": 100}, {"time": 2013, "pitch": 65, "duration": 9, "velocity": 107}, {"time": 2013, "pitch": 68, "duration": 9, "velocity": 96}, {"time": 2019, "pitch": 63, "duration": 3, "velocity": 86}, {"time": 2022, "pitch": 53, "duration": 11, "velocity": 110}, {"time": 2025, "pitch": 60, "duration": 4, "velocity": 114}, {"time": 2025, "pitch": 68, "duration": 4, "velocity": 108}, {"time": 2028, "pitch": 63, "duration": 4, "velocity": 108}, {"time": 2031, "pitch": 65, "duration": 3, "velocity": 90}, {"time": 2037, "pitch": 42, "duration": 11, "velocity": 104}, {"time": 2037, "pitch": 61, "duration": 7, "velocity": 94}, {"time": 2037, "pitch": 66, "duration": 6, "velocity": 102}, {"time": 2037, "pitch": 70, "duration": 6, "velocity": 104}, {"time": 2043, "pitch": 54, "duration": 4, "velocity": 86}, {"time": 2049, "pitch": 44, "duration": 8, "velocity": 89}, {"time": 2049, "pitch": 60, "duration": 7, "velocity": 100}, {"time": 2049, "pitch": 63, "duration": 7, "velocity": 110}, {"time": 2049, "pitch": 68, "duration": 6, "velocity": 98}, {"time": 2055, "pitch": 56, "duration": 5, "velocity": 86}, {"time": 2058, "pitch": 60, "duration": 4, "velocity": 100}, {"time": 2058, "pitch": 63, "duration": 6, "velocity": 108}, {"time": 2058, "pitch": 68, "duration": 6, "velocity": 93}, {"time": 2061, "pitch": 49, "duration": 19, "velocity": 92}, {"time": 2064, "pitch": 56, "duration": 9, "velocity": 88}, {"time": 2067, "pitch": 61, "duration": 2, "velocity": 94}, {"time": 2070, "pitch": 61, "duration": 6, "velocity": 92}, {"time": 2070, "pitch": 65, "duration": 7, "velocity": 107}, {"time": 2070, "pitch": 68, "duration": 7, "velocity": 102}, {"time": 2076, "pitch": 56, "duration": 3, "velocity": 94}, {"time": 2079, "pitch": 61, "duration": 3, "velocity": 114}, {"time": 2079, "pitch": 68, "duration": 3, "velocity": 88}, {"time": 2082, "pitch": 65, "duration": 2, "velocity": 87}, {"time": 2085, "pitch": 46, "duration": 18, "velocity": 88}, {"time": 2085, "pitch": 61, "duration": 9, "velocity": 102}, {"time": 2085, "pitch": 65, "duration": 9, "velocity": 110}, {"time": 2085, "pitch": 70, "duration": 9, "velocity": 110}, {"time": 2091, "pitch": 53, "duration": 7, "velocity": 78}, {"time": 2094, "pitch": 58, "duration": 4, "velocity": 104}, {"time": 2097, "pitch": 61, "duration": 5, "velocity": 117}, {"time": 2097, "pitch": 70, "duration": 7, "velocity": 110}, {"time": 2100, "pitch": 53, "duration": 2, "velocity": 89}, {"time": 2103, "pitch": 65, "duration": 3, "velocity": 110}, {"time": 2106, "pitch": 68, "duration": 1, "velocity": 88}, {"time": 2109, "pitch": 41, "duration": 18, "velocity": 107}, {"time": 2109, "pitch": 60, "duration": 4, "velocity": 110}, {"time": 2109, "pitch": 65, "duration": 4, "velocity": 113}, {"time": 2109, "pitch": 68, "duration": 4, "velocity": 100}, {"time": 2115, "pitch": 60, "duration": 3, "velocity": 83}, {"time": 2115, "pitch": 65, "duration": 3, "velocity": 87}, {"time": 2115, "pitch": 68, "duration": 3, "velocity": 86}, {"time": 2118, "pitch": 53, "duration": 5, "velocity": 119}, {"time": 2124, "pitch": 60, "duration": 4, "velocity": 91}, {"time": 2124, "pitch": 65, "duration": 4, "velocity": 98}, {"time": 2124, "pitch": 68, "duration": 4, "velocity": 91}, {"time": 2127, "pitch": 53, "duration": 1, "velocity": 117}, {"time": 2133, "pitch": 42, "duration": 19, "velocity": 107}, {"time": 2133, "pitch": 58, "duration": 9, "velocity": 107}, {"time": 2133, "pitch": 61, "duration": 9, "velocity": 108}, {"time": 2133, "pitch": 66, "duration": 8, "velocity": 102}, {"time": 2142, "pitch": 54, "duration": 6, "velocity": 96}, {"time": 2145, "pitch": 58, "duration": 7, "velocity": 110}, {"time": 2145, "pitch": 66, "duration": 7, "velocity": 104}, {"time": 2151, "pitch": 54, "duration": 5, "velocity": 88}, {"time": 2154, "pitch": 60, "duration": 10, "velocity": 84}, {"time": 2154, "pitch": 63, "duration": 10, "velocity": 83}, {"time": 2157, "pitch": 44, "duration": 21, "velocity": 88}, {"time": 2157, "pitch": 68, "duration": 9, "velocity": 88}, {"time": 2160, "pitch": 51, "duration": 18, "velocity": 82}, {"time": 2163, "pitch": 56, "duration": 15, "velocity": 85}, {"time": 2166, "pitch": 61, "duration": 4, "velocity": 74}, {"time": 2169, "pitch": 63, "duration": 13, "velocity": 78}, {"time": 2169, "pitch": 68, "duration": 13, "velocity": 70}, {"time": 2205, "pitch": 49, "duration": 20, "velocity": 89}, {"time": 2211, "pitch": 56, "duration": 16, "velocity": 65}, {"time": 2217, "pitch": 63, "duration": 11, "velocity": 71}, {"time": 2229, "pitch": 48, "duration": 18, "velocity": 84}, {"time": 2235, "pitch": 56, "duration": 12, "velocity": 66}, {"time": 2241, "pitch": 63, "duration": 6, "velocity": 77}, {"time": 2247, "pitch": 49, "duration": 3, "velocity": 88}, {"time": 2250, "pitch": 48, "duration": 2, "velocity": 87}, {"time": 2253, "pitch": 46, "duration": 20, "velocity": 89}, {"time": 2259, "pitch": 53, "duration": 13, "velocity": 66}, {"time": 2265, "pitch": 58, "duration": 6, "velocity": 75}, {"time": 2271, "pitch": 61, "duration": 9, "velocity": 74}, {"time": 2277, "pitch": 44, "duration": 19, "velocity": 81}, {"time": 2283, "pitch": 51, "duration": 13, "velocity": 65}, {"time": 2289, "pitch": 56, "duration": 6, "velocity": 76}, {"time": 2292, "pitch": 63, "duration": 3, "velocity": 88}, {"time": 2295, "pitch": 68, "duration": 7, "velocity": 100}, {"time": 2301, "pitch": 42, "duration": 19, "velocity": 90}, {"time": 2307, "pitch": 49, "duration": 12, "velocity": 70}, {"time": 2310, "pitch": 54, "duration": 9, "velocity": 78}, {"time": 2316, "pitch": 58, "duration": 3, "velocity": 67}, {"time": 2319, "pitch": 61, "duration": 4, "velocity": 82}, {"time": 2322, "pitch": 66, "duration": 3, "velocity": 86}, {"time": 2325, "pitch": 41, "duration": 18, "velocity": 83}, {"time": 2325, "pitch": 65, "duration": 5, "velocity": 85}, {"time": 2334, "pitch": 53, "duration": 10, "velocity": 74}, {"time": 2337, "pitch": 60, "duration": 3, "velocity": 80}, {"time": 2340, "pitch": 65, "duration": 3, "velocity": 81}, {"time": 2343, "pitch": 68, "duration": 3, "velocity": 88}, {"time": 2346, "pitch": 63, "duration": 10, "velocity": 70}, {"time": 2349, "pitch": 51, "duration": 19, "velocity": 83}, {"time": 2349, "pitch": 70, "duration": 9, "velocity": 82}, {"time": 2358, "pitch": 58, "duration": 9, "velocity": 65}, {"time": 2364, "pitch": 63, "duration": 14, "velocity": 75}, {"time": 2367, "pitch": 66, "duration": 8, "velocity": 82}, {"time": 2373, "pitch": 44, "duration": 22, "velocity": 80}, {"time": 2379, "pitch": 51, "duration": 16, "velocity": 67}, {"time": 2385, "pitch": 56, "duration": 10, "velocity": 70}, {"time": 2388, "pitch": 61, "duration": 2, "velocity": 82}, {"time": 2391, "pitch": 63, "duration": 6, "velocity": 83}]}]}