{"metadata": {"schema_version": "0.2", "title": "None", "source_filename": "539.mid", "source_format": "midi"}, "resolution": 12, "tempos": [{"time": 0, "qpm": 120.0}], "time_signatures": [{"time": 0, "numerator": 4, "denominator": 4}], "tracks": [{"program": 4, "is_drum": false, "name": "MELODY", "notes": [{"time": 839, "pitch": 66, "duration": 19, "velocity": 119}, {"time": 863, "pitch": 73, "duration": 19, "velocity": 119}, {"time": 887, "pitch": 66, "duration": 15, "velocity": 120}, {"time": 899, "pitch": 69, "duration": 12, "velocity": 119}, {"time": 911, "pitch": 66, "duration": 12, "velocity": 110}, {"time": 923, "pitch": 64, "duration": 11, "velocity": 117}, {"time": 935, "pitch": 61, "duration": 11, "velocity": 113}, {"time": 995, "pitch": 73, "duration": 14, "velocity": 117}, {"time": 1007, "pitch": 71, "duration": 13, "velocity": 107}, {"time": 1019, "pitch": 69, "duration": 12, "velocity": 119}, {"time": 1031, "pitch": 64, "duration": 14, "velocity": 117}, {"time": 1055, "pitch": 71, "duration": 11, "velocity": 114}, {"time": 1079, "pitch": 64, "duration": 12, "velocity": 107}, {"time": 1091, "pitch": 68, "duration": 12, "velocity": 114}, {"time": 1103, "pitch": 66, "duration": 11, "velocity": 100}, {"time": 1115, "pitch": 64, "duration": 12, "velocity": 113}, {"time": 1127, "pitch": 66, "duration": 9, "velocity": 108}, {"time": 1223, "pitch": 66, "duration": 19, "velocity": 119}, {"time": 1247, "pitch": 73, "duration": 19, "velocity": 119}, {"time": 1271, "pitch": 66, "duration": 15, "velocity": 120}, {"time": 1283, "pitch": 69, "duration": 12, "velocity": 119}, {"time": 1295, "pitch": 66, "duration": 12, "velocity": 110}, {"time": 1307, "pitch": 64, "duration": 11, "velocity": 117}, {"time": 1319, "pitch": 61, "duration": 11, "velocity": 113}, {"time": 1379, "pitch": 73, "duration": 14, "velocity": 117}, {"time": 1391, "pitch": 71, "duration": 13, "velocity": 107}, {"time": 1403, "pitch": 69, "duration": 12, "velocity": 119}, {"time": 1415, "pitch": 64, "duration": 14, "velocity": 117}, {"time": 1439, "pitch": 71, "duration": 11, "velocity": 114}, {"time": 1463, "pitch": 64, "duration": 12, "velocity": 107}, {"time": 1475, "pitch": 68, "duration": 12, "velocity": 114}, {"time": 1487, "pitch": 66, "duration": 11, "velocity": 100}, {"time": 1499, "pitch": 64, "duration": 12, "velocity": 113}, {"time": 1511, "pitch": 66, "duration": 9, "velocity": 108}, {"time": 1607, "pitch": 69, "duration": 2, "velocity": 119}, {"time": 1613, "pitch": 69, "duration": 2, "velocity": 106}, {"time": 1619, "pitch": 69, "duration": 4, "velocity": 109}, {"time": 1625, "pitch": 64, "duration": 5, "velocity": 108}, {"time": 1631, "pitch": 69, "duration": 7, "velocity": 113}, {"time": 1643, "pitch": 71, "duration": 3, "velocity": 107}, {"time": 1649, "pitch": 73, "duration": 4, "velocity": 102}, {"time": 1655, "pitch": 71, "duration": 2, "velocity": 98}, {"time": 1661, "pitch": 71, "duration": 2, "velocity": 100}, {"time": 1667, "pitch": 71, "duration": 3, "velocity": 104}, {"time": 1673, "pitch": 69, "duration": 3, "velocity": 109}, {"time": 1679, "pitch": 71, "duration": 7, "velocity": 110}, {"time": 1703, "pitch": 71, "duration": 2, "velocity": 110}, {"time": 1709, "pitch": 71, "duration": 2, "velocity": 96}, {"time": 1715, "pitch": 71, "duration": 4, "velocity": 102}, {"time": 1721, "pitch": 69, "duration": 4, "velocity": 113}, {"time": 1727, "pitch": 71, "duration": 6, "velocity": 107}, {"time": 1739, "pitch": 73, "duration": 7, "velocity": 114}, {"time": 1751, "pitch": 66, "duration": 2, "velocity": 108}, {"time": 1757, "pitch": 66, "duration": 2, "velocity": 104}, {"time": 1763, "pitch": 66, "duration": 5, "velocity": 102}, {"time": 1769, "pitch": 64, "duration": 7, "velocity": 100}, {"time": 1775, "pitch": 66, "duration": 8, "velocity": 96}, {"time": 1799, "pitch": 69, "duration": 2, "velocity": 113}, {"time": 1805, "pitch": 69, "duration": 2, "velocity": 109}, {"time": 1811, "pitch": 69, "duration": 5, "velocity": 109}, {"time": 1817, "pitch": 64, "duration": 6, "velocity": 110}, {"time": 1823, "pitch": 69, "duration": 6, "velocity": 116}, {"time": 1835, "pitch": 73, "duration": 8, "velocity": 119}, {"time": 1847, "pitch": 71, "duration": 2, "velocity": 108}, {"time": 1853, "pitch": 71, "duration": 2, "velocity": 107}, {"time": 1859, "pitch": 71, "duration": 5, "velocity": 108}, {"time": 1865, "pitch": 69, "duration": 4, "velocity": 106}, {"time": 1871, "pitch": 71, "duration": 9, "velocity": 110}, {"time": 1883, "pitch": 73, "duration": 6, "velocity": 108}, {"time": 1889, "pitch": 76, "duration": 4, "velocity": 93}, {"time": 1895, "pitch": 78, "duration": 3, "velocity": 100}, {"time": 1901, "pitch": 78, "duration": 2, "velocity": 96}, {"time": 1907, "pitch": 78, "duration": 2, "velocity": 102}, {"time": 1913, "pitch": 78, "duration": 2, "velocity": 102}, {"time": 1919, "pitch": 78, "duration": 4, "velocity": 110}, {"time": 1931, "pitch": 73, "duration": 3, "velocity": 110}, {"time": 1937, "pitch": 78, "duration": 3, "velocity": 108}, {"time": 1943, "pitch": 76, "duration": 11, "velocity": 116}, {"time": 1991, "pitch": 73, "duration": 8, "velocity": 119}, {"time": 2003, "pitch": 78, "duration": 7, "velocity": 119}, {"time": 2015, "pitch": 81, "duration": 7, "velocity": 119}, {"time": 2027, "pitch": 78, "duration": 6, "velocity": 116}, {"time": 2033, "pitch": 76, "duration": 5, "velocity": 110}, {"time": 2039, "pitch": 73, "duration": 5, "velocity": 117}, {"time": 2045, "pitch": 73, "duration": 2, "velocity": 113}, {"time": 2051, "pitch": 73, "duration": 5, "velocity": 110}, {"time": 2057, "pitch": 71, "duration": 5, "velocity": 114}, {"time": 2063, "pitch": 73, "duration": 5, "velocity": 117}, {"time": 2069, "pitch": 76, "duration": 7, "velocity": 113}, {"time": 2075, "pitch": 73, "duration": 5, "velocity": 110}, {"time": 2081, "pitch": 69, "duration": 6, "velocity": 109}, {"time": 2087, "pitch": 71, "duration": 7, "velocity": 108}, {"time": 2099, "pitch": 71, "duration": 6, "velocity": 114}, {"time": 2105, "pitch": 69, "duration": 6, "velocity": 109}, {"time": 2111, "pitch": 71, "duration": 4, "velocity": 114}, {"time": 2123, "pitch": 71, "duration": 6, "velocity": 116}, {"time": 2129, "pitch": 69, "duration": 6, "velocity": 113}, {"time": 2135, "pitch": 71, "duration": 5, "velocity": 94}, {"time": 2141, "pitch": 73, "duration": 3, "velocity": 116}, {"time": 2147, "pitch": 73, "duration": 5, "velocity": 113}, {"time": 2153, "pitch": 71, "duration": 5, "velocity": 114}, {"time": 2159, "pitch": 73, "duration": 6, "velocity": 119}, {"time": 2183, "pitch": 73, "duration": 8, "velocity": 119}, {"time": 2195, "pitch": 78, "duration": 7, "velocity": 119}, {"time": 2207, "pitch": 81, "duration": 7, "velocity": 119}, {"time": 2219, "pitch": 78, "duration": 6, "velocity": 116}, {"time": 2225, "pitch": 76, "duration": 5, "velocity": 110}, {"time": 2231, "pitch": 73, "duration": 5, "velocity": 117}, {"time": 2237, "pitch": 73, "duration": 2, "velocity": 113}, {"time": 2243, "pitch": 73, "duration": 5, "velocity": 110}, {"time": 2249, "pitch": 71, "duration": 5, "velocity": 114}, {"time": 2255, "pitch": 73, "duration": 5, "velocity": 117}, {"time": 2261, "pitch": 76, "duration": 7, "velocity": 113}, {"time": 2267, "pitch": 73, "duration": 5, "velocity": 110}, {"time": 2273, "pitch": 69, "duration": 6, "velocity": 109}, {"time": 2279, "pitch": 71, "duration": 7, "velocity": 108}, {"time": 2291, "pitch": 71, "duration": 6, "velocity": 114}, {"time": 2297, "pitch": 69, "duration": 6, "velocity": 109}, {"time": 2303, "pitch": 71, "duration": 4, "velocity": 114}, {"time": 2315, "pitch": 71, "duration": 6, "velocity": 116}, {"time": 2321, "pitch": 73, "duration": 6, "velocity": 108}, {"time": 2327, "pitch": 71, "duration": 6, "velocity": 116}, {"time": 2333, "pitch": 69, "duration": 5, "velocity": 113}, {"time": 2339, "pitch": 66, "duration": 5, "velocity": 108}, {"time": 2345, "pitch": 64, "duration": 5, "velocity": 107}, {"time": 2351, "pitch": 66, "duration": 8, "velocity": 116}, {"time": 2375, "pitch": 73, "duration": 8, "velocity": 119}, {"time": 2387, "pitch": 78, "duration": 7, "velocity": 119}, {"time": 2399, "pitch": 81, "duration": 7, "velocity": 119}, {"time": 2411, "pitch": 78, "duration": 6, "velocity": 116}, {"time": 2417, "pitch": 76, "duration": 5, "velocity": 110}, {"time": 2423, "pitch": 73, "duration": 5, "velocity": 117}, {"time": 2429, "pitch": 73, "duration": 2, "velocity": 113}, {"time": 2435, "pitch": 73, "duration": 5, "velocity": 110}, {"time": 2441, "pitch": 71, "duration": 5, "velocity": 114}, {"time": 2447, "pitch": 73, "duration": 5, "velocity": 117}, {"time": 2453, "pitch": 76, "duration": 7, "velocity": 113}, {"time": 2459, "pitch": 73, "duration": 5, "velocity": 110}, {"time": 2465, "pitch": 69, "duration": 6, "velocity": 109}, {"time": 2471, "pitch": 71, "duration": 7, "velocity": 108}, {"time": 2483, "pitch": 71, "duration": 6, "velocity": 114}, {"time": 2489, "pitch": 69, "duration": 6, "velocity": 109}, {"time": 2495, "pitch": 71, "duration": 4, "velocity": 114}, {"time": 2507, "pitch": 71, "duration": 6, "velocity": 116}, {"time": 2513, "pitch": 69, "duration": 6, "velocity": 113}, {"time": 2519, "pitch": 71, "duration": 5, "velocity": 94}, {"time": 2525, "pitch": 73, "duration": 3, "velocity": 116}, {"time": 2531, "pitch": 73, "duration": 5, "velocity": 113}, {"time": 2537, "pitch": 76, "duration": 5, "velocity": 114}, {"time": 2543, "pitch": 73, "duration": 6, "velocity": 119}, {"time": 2567, "pitch": 73, "duration": 8, "velocity": 119}, {"time": 2579, "pitch": 78, "duration": 7, "velocity": 119}, {"time": 2591, "pitch": 81, "duration": 7, "velocity": 119}, {"time": 2603, "pitch": 78, "duration": 6, "velocity": 116}, {"time": 2609, "pitch": 76, "duration": 5, "velocity": 110}, {"time": 2615, "pitch": 73, "duration": 5, "velocity": 117}, {"time": 2621, "pitch": 73, "duration": 2, "velocity": 113}, {"time": 2627, "pitch": 73, "duration": 5, "velocity": 110}, {"time": 2633, "pitch": 71, "duration": 5, "velocity": 114}, {"time": 2639, "pitch": 73, "duration": 5, "velocity": 117}, {"time": 2645, "pitch": 76, "duration": 7, "velocity": 113}, {"time": 2651, "pitch": 73, "duration": 5, "velocity": 110}, {"time": 2657, "pitch": 69, "duration": 6, "velocity": 109}, {"time": 2663, "pitch": 71, "duration": 7, "velocity": 108}, {"time": 2675, "pitch": 71, "duration": 6, "velocity": 114}, {"time": 2681, "pitch": 69, "duration": 6, "velocity": 109}, {"time": 2687, "pitch": 71, "duration": 4, "velocity": 114}, {"time": 2699, "pitch": 73, "duration": 6, "velocity": 116}, {"time": 2711, "pitch": 64, "duration": 6, "velocity": 116}, {"time": 2717, "pitch": 69, "duration": 5, "velocity": 113}, {"time": 2723, "pitch": 66, "duration": 5, "velocity": 108}, {"time": 2729, "pitch": 64, "duration": 5, "velocity": 107}, {"time": 2735, "pitch": 66, "duration": 8, "velocity": 116}, {"time": 3143, "pitch": 66, "duration": 19, "velocity": 119}, {"time": 3167, "pitch": 73, "duration": 19, "velocity": 119}, {"time": 3191, "pitch": 66, "duration": 15, "velocity": 120}, {"time": 3203, "pitch": 69, "duration": 12, "velocity": 119}, {"time": 3215, "pitch": 66, "duration": 12, "velocity": 110}, {"time": 3227, "pitch": 64, "duration": 11, "velocity": 117}, {"time": 3239, "pitch": 61, "duration": 11, "velocity": 113}, {"time": 3299, "pitch": 73, "duration": 14, "velocity": 117}, {"time": 3311, "pitch": 71, "duration": 13, "velocity": 107}, {"time": 3323, "pitch": 69, "duration": 12, "velocity": 119}, {"time": 3335, "pitch": 64, "duration": 14, "velocity": 117}, {"time": 3359, "pitch": 71, "duration": 11, "velocity": 114}, {"time": 3383, "pitch": 64, "duration": 12, "velocity": 107}, {"time": 3395, "pitch": 68, "duration": 12, "velocity": 114}, {"time": 3407, "pitch": 66, "duration": 11, "velocity": 100}, {"time": 3419, "pitch": 64, "duration": 12, "velocity": 113}, {"time": 3431, "pitch": 66, "duration": 9, "velocity": 108}, {"time": 3527, "pitch": 66, "duration": 19, "velocity": 119}, {"time": 3551, "pitch": 73, "duration": 19, "velocity": 119}, {"time": 3575, "pitch": 66, "duration": 15, "velocity": 120}, {"time": 3587, "pitch": 69, "duration": 12, "velocity": 119}, {"time": 3599, "pitch": 66, "duration": 12, "velocity": 110}, {"time": 3611, "pitch": 64, "duration": 11, "velocity": 117}, {"time": 3623, "pitch": 61, "duration": 11, "velocity": 113}, {"time": 3683, "pitch": 73, "duration": 14, "velocity": 117}, {"time": 3695, "pitch": 71, "duration": 13, "velocity": 107}, {"time": 3707, "pitch": 69, "duration": 12, "velocity": 119}, {"time": 3719, "pitch": 64, "duration": 14, "velocity": 117}, {"time": 3743, "pitch": 71, "duration": 11, "velocity": 114}, {"time": 3767, "pitch": 64, "duration": 12, "velocity": 107}, {"time": 3779, "pitch": 68, "duration": 12, "velocity": 114}, {"time": 3791, "pitch": 66, "duration": 11, "velocity": 100}, {"time": 3803, "pitch": 64, "duration": 12, "velocity": 113}, {"time": 3815, "pitch": 66, "duration": 9, "velocity": 108}, {"time": 3911, "pitch": 69, "duration": 2, "velocity": 119}, {"time": 3917, "pitch": 69, "duration": 2, "velocity": 106}, {"time": 3923, "pitch": 69, "duration": 4, "velocity": 109}, {"time": 3929, "pitch": 64, "duration": 5, "velocity": 108}, {"time": 3935, "pitch": 69, "duration": 7, "velocity": 113}, {"time": 3947, "pitch": 71, "duration": 3, "velocity": 107}, {"time": 3953, "pitch": 73, "duration": 4, "velocity": 102}, {"time": 3959, "pitch": 71, "duration": 2, "velocity": 98}, {"time": 3965, "pitch": 71, "duration": 2, "velocity": 100}, {"time": 3971, "pitch": 71, "duration": 3, "velocity": 104}, {"time": 3977, "pitch": 69, "duration": 3, "velocity": 109}, {"time": 3983, "pitch": 71, "duration": 7, "velocity": 110}, {"time": 4007, "pitch": 71, "duration": 2, "velocity": 110}, {"time": 4013, "pitch": 71, "duration": 2, "velocity": 96}, {"time": 4019, "pitch": 71, "duration": 4, "velocity": 102}, {"time": 4025, "pitch": 69, "duration": 4, "velocity": 113}, {"time": 4031, "pitch": 71, "duration": 6, "velocity": 107}, {"time": 4043, "pitch": 73, "duration": 7, "velocity": 114}, {"time": 4055, "pitch": 66, "duration": 2, "velocity": 108}, {"time": 4061, "pitch": 66, "duration": 2, "velocity": 104}, {"time": 4067, "pitch": 66, "duration": 5, "velocity": 102}, {"time": 4073, "pitch": 64, "duration": 7, "velocity": 100}, {"time": 4079, "pitch": 66, "duration": 8, "velocity": 96}, {"time": 4103, "pitch": 69, "duration": 2, "velocity": 113}, {"time": 4109, "pitch": 69, "duration": 2, "velocity": 109}, {"time": 4115, "pitch": 69, "duration": 5, "velocity": 109}, {"time": 4121, "pitch": 64, "duration": 6, "velocity": 110}, {"time": 4127, "pitch": 69, "duration": 6, "velocity": 116}, {"time": 4139, "pitch": 73, "duration": 8, "velocity": 119}, {"time": 4151, "pitch": 71, "duration": 2, "velocity": 108}, {"time": 4157, "pitch": 71, "duration": 2, "velocity": 107}, {"time": 4163, "pitch": 71, "duration": 5, "velocity": 108}, {"time": 4169, "pitch": 69, "duration": 4, "velocity": 106}, {"time": 4175, "pitch": 71, "duration": 9, "velocity": 110}, {"time": 4187, "pitch": 73, "duration": 6, "velocity": 108}, {"time": 4193, "pitch": 76, "duration": 4, "velocity": 93}, {"time": 4199, "pitch": 78, "duration": 3, "velocity": 100}, {"time": 4205, "pitch": 78, "duration": 2, "velocity": 96}, {"time": 4211, "pitch": 78, "duration": 2, "velocity": 102}, {"time": 4217, "pitch": 78, "duration": 2, "velocity": 102}, {"time": 4223, "pitch": 78, "duration": 4, "velocity": 110}, {"time": 4235, "pitch": 73, "duration": 3, "velocity": 110}, {"time": 4241, "pitch": 78, "duration": 3, "velocity": 108}, {"time": 4247, "pitch": 76, "duration": 11, "velocity": 116}, {"time": 4295, "pitch": 73, "duration": 8, "velocity": 119}, {"time": 4307, "pitch": 78, "duration": 7, "velocity": 119}, {"time": 4319, "pitch": 81, "duration": 7, "velocity": 119}, {"time": 4331, "pitch": 78, "duration": 6, "velocity": 116}, {"time": 4337, "pitch": 76, "duration": 5, "velocity": 110}, {"time": 4343, "pitch": 73, "duration": 5, "velocity": 117}, {"time": 4349, "pitch": 73, "duration": 2, "velocity": 113}, {"time": 4355, "pitch": 73, "duration": 5, "velocity": 110}, {"time": 4361, "pitch": 71, "duration": 5, "velocity": 114}, {"time": 4367, "pitch": 73, "duration": 5, "velocity": 117}, {"time": 4373, "pitch": 76, "duration": 7, "velocity": 113}, {"time": 4379, "pitch": 73, "duration": 5, "velocity": 110}, {"time": 4385, "pitch": 69, "duration": 6, "velocity": 109}, {"time": 4391, "pitch": 71, "duration": 7, "velocity": 108}, {"time": 4403, "pitch": 71, "duration": 6, "velocity": 114}, {"time": 4409, "pitch": 69, "duration": 6, "velocity": 109}, {"time": 4415, "pitch": 71, "duration": 4, "velocity": 114}, {"time": 4427, "pitch": 71, "duration": 6, "velocity": 116}, {"time": 4433, "pitch": 69, "duration": 6, "velocity": 113}, {"time": 4439, "pitch": 71, "duration": 5, "velocity": 94}, {"time": 4445, "pitch": 73, "duration": 3, "velocity": 116}, {"time": 4451, "pitch": 73, "duration": 5, "velocity": 113}, {"time": 4457, "pitch": 71, "duration": 5, "velocity": 114}, {"time": 4463, "pitch": 73, "duration": 6, "velocity": 119}, {"time": 4487, "pitch": 73, "duration": 8, "velocity": 119}, {"time": 4499, "pitch": 78, "duration": 7, "velocity": 119}, {"time": 4511, "pitch": 81, "duration": 7, "velocity": 119}, {"time": 4523, "pitch": 78, "duration": 6, "velocity": 116}, {"time": 4529, "pitch": 76, "duration": 5, "velocity": 110}, {"time": 4535, "pitch": 73, "duration": 5, "velocity": 117}, {"time": 4541, "pitch": 73, "duration": 2, "velocity": 113}, {"time": 4547, "pitch": 73, "duration": 5, "velocity": 110}, {"time": 4553, "pitch": 71, "duration": 5, "velocity": 114}, {"time": 4559, "pitch": 73, "duration": 5, "velocity": 117}, {"time": 4565, "pitch": 76, "duration": 7, "velocity": 113}, {"time": 4571, "pitch": 73, "duration": 5, "velocity": 110}, {"time": 4577, "pitch": 69, "duration": 6, "velocity": 109}, {"time": 4583, "pitch": 71, "duration": 7, "velocity": 108}, {"time": 4595, "pitch": 71, "duration": 6, "velocity": 114}, {"time": 4601, "pitch": 69, "duration": 6, "velocity": 109}, {"time": 4607, "pitch": 71, "duration": 4, "velocity": 114}, {"time": 4619, "pitch": 71, "duration": 6, "velocity": 116}, {"time": 4625, "pitch": 73, "duration": 6, "velocity": 108}, {"time": 4631, "pitch": 71, "duration": 6, "velocity": 116}, {"time": 4637, "pitch": 69, "duration": 5, "velocity": 113}, {"time": 4643, "pitch": 66, "duration": 5, "velocity": 108}, {"time": 4649, "pitch": 64, "duration": 5, "velocity": 107}, {"time": 4655, "pitch": 66, "duration": 8, "velocity": 116}, {"time": 4679, "pitch": 73, "duration": 8, "velocity": 119}, {"time": 4691, "pitch": 78, "duration": 7, "velocity": 119}, {"time": 4703, "pitch": 81, "duration": 7, "velocity": 119}, {"time": 4715, "pitch": 78, "duration": 6, "velocity": 116}, {"time": 4721, "pitch": 76, "duration": 5, "velocity": 110}, {"time": 4727, "pitch": 73, "duration": 5, "velocity": 117}, {"time": 4733, "pitch": 73, "duration": 2, "velocity": 113}, {"time": 4739, "pitch": 73, "duration": 5, "velocity": 110}, {"time": 4745, "pitch": 71, "duration": 5, "velocity": 114}, {"time": 4751, "pitch": 73, "duration": 5, "velocity": 117}, {"time": 4757, "pitch": 76, "duration": 7, "velocity": 113}, {"time": 4763, "pitch": 73, "duration": 5, "velocity": 110}, {"time": 4769, "pitch": 69, "duration": 6, "velocity": 109}, {"time": 4775, "pitch": 71, "duration": 7, "velocity": 108}, {"time": 4787, "pitch": 71, "duration": 6, "velocity": 114}, {"time": 4793, "pitch": 69, "duration": 6, "velocity": 109}, {"time": 4799, "pitch": 71, "duration": 4, "velocity": 114}, {"time": 4811, "pitch": 71, "duration": 6, "velocity": 116}, {"time": 4817, "pitch": 69, "duration": 6, "velocity": 113}, {"time": 4823, "pitch": 71, "duration": 5, "velocity": 94}, {"time": 4829, "pitch": 73, "duration": 3, "velocity": 116}, {"time": 4835, "pitch": 73, "duration": 5, "velocity": 113}, {"time": 4841, "pitch": 76, "duration": 5, "velocity": 114}, {"time": 4847, "pitch": 73, "duration": 6, "velocity": 119}, {"time": 4871, "pitch": 73, "duration": 8, "velocity": 119}, {"time": 4883, "pitch": 78, "duration": 7, "velocity": 119}, {"time": 4895, "pitch": 81, "duration": 7, "velocity": 119}, {"time": 4907, "pitch": 78, "duration": 6, "velocity": 116}, {"time": 4913, "pitch": 76, "duration": 5, "velocity": 110}, {"time": 4919, "pitch": 73, "duration": 5, "velocity": 117}, {"time": 4925, "pitch": 73, "duration": 2, "velocity": 113}, {"time": 4931, "pitch": 73, "duration": 5, "velocity": 110}, {"time": 4937, "pitch": 71, "duration": 5, "velocity": 114}, {"time": 4943, "pitch": 73, "duration": 5, "velocity": 117}, {"time": 4949, "pitch": 76, "duration": 7, "velocity": 113}, {"time": 4955, "pitch": 73, "duration": 5, "velocity": 110}, {"time": 4961, "pitch": 69, "duration": 6, "velocity": 109}, {"time": 4967, "pitch": 71, "duration": 7, "velocity": 108}, {"time": 4979, "pitch": 71, "duration": 6, "velocity": 114}, {"time": 4985, "pitch": 69, "duration": 6, "velocity": 109}, {"time": 4991, "pitch": 71, "duration": 4, "velocity": 114}, {"time": 5003, "pitch": 73, "duration": 6, "velocity": 116}, {"time": 5015, "pitch": 64, "duration": 6, "velocity": 116}, {"time": 5021, "pitch": 69, "duration": 5, "velocity": 113}, {"time": 5027, "pitch": 66, "duration": 5, "velocity": 108}, {"time": 5033, "pitch": 64, "duration": 5, "velocity": 107}, {"time": 5039, "pitch": 66, "duration": 8, "velocity": 116}, {"time": 5447, "pitch": 73, "duration": 8, "velocity": 119}, {"time": 5459, "pitch": 78, "duration": 7, "velocity": 119}, {"time": 5471, "pitch": 81, "duration": 7, "velocity": 119}, {"time": 5483, "pitch": 78, "duration": 6, "velocity": 116}, {"time": 5489, "pitch": 76, "duration": 5, "velocity": 110}, {"time": 5495, "pitch": 73, "duration": 5, "velocity": 117}, {"time": 5501, "pitch": 73, "duration": 2, "velocity": 113}, {"time": 5507, "pitch": 73, "duration": 5, "velocity": 110}, {"time": 5513, "pitch": 71, "duration": 5, "velocity": 114}, {"time": 5519, "pitch": 73, "duration": 5, "velocity": 117}, {"time": 5525, "pitch": 76, "duration": 7, "velocity": 113}, {"time": 5531, "pitch": 73, "duration": 5, "velocity": 110}, {"time": 5537, "pitch": 69, "duration": 6, "velocity": 109}, {"time": 5543, "pitch": 71, "duration": 7, "velocity": 108}, {"time": 5555, "pitch": 71, "duration": 6, "velocity": 114}, {"time": 5561, "pitch": 69, "duration": 6, "velocity": 109}, {"time": 5567, "pitch": 71, "duration": 4, "velocity": 114}, {"time": 5579, "pitch": 71, "duration": 6, "velocity": 116}, {"time": 5585, "pitch": 69, "duration": 6, "velocity": 113}, {"time": 5591, "pitch": 71, "duration": 5, "velocity": 94}, {"time": 5597, "pitch": 73, "duration": 3, "velocity": 116}, {"time": 5603, "pitch": 73, "duration": 5, "velocity": 113}, {"time": 5609, "pitch": 71, "duration": 5, "velocity": 114}, {"time": 5615, "pitch": 73, "duration": 6, "velocity": 119}, {"time": 5639, "pitch": 73, "duration": 8, "velocity": 119}, {"time": 5651, "pitch": 78, "duration": 7, "velocity": 119}, {"time": 5663, "pitch": 81, "duration": 7, "velocity": 119}, {"time": 5675, "pitch": 78, "duration": 6, "velocity": 116}, {"time": 5681, "pitch": 76, "duration": 5, "velocity": 110}, {"time": 5687, "pitch": 73, "duration": 5, "velocity": 117}, {"time": 5693, "pitch": 73, "duration": 2, "velocity": 113}, {"time": 5699, "pitch": 73, "duration": 5, "velocity": 110}, {"time": 5705, "pitch": 71, "duration": 5, "velocity": 114}, {"time": 5711, "pitch": 73, "duration": 5, "velocity": 117}, {"time": 5717, "pitch": 76, "duration": 7, "velocity": 113}, {"time": 5723, "pitch": 73, "duration": 5, "velocity": 110}, {"time": 5729, "pitch": 69, "duration": 6, "velocity": 109}, {"time": 5735, "pitch": 71, "duration": 7, "velocity": 108}, {"time": 5747, "pitch": 71, "duration": 6, "velocity": 114}, {"time": 5753, "pitch": 69, "duration": 6, "velocity": 109}, {"time": 5759, "pitch": 71, "duration": 4, "velocity": 114}, {"time": 5771, "pitch": 71, "duration": 6, "velocity": 116}, {"time": 5777, "pitch": 73, "duration": 6, "velocity": 108}, {"time": 5783, "pitch": 71, "duration": 6, "velocity": 116}, {"time": 5789, "pitch": 69, "duration": 5, "velocity": 113}, {"time": 5795, "pitch": 66, "duration": 5, "velocity": 108}, {"time": 5801, "pitch": 64, "duration": 5, "velocity": 107}, {"time": 5807, "pitch": 66, "duration": 8, "velocity": 116}, {"time": 5831, "pitch": 73, "duration": 8, "velocity": 119}, {"time": 5843, "pitch": 78, "duration": 7, "velocity": 119}, {"time": 5855, "pitch": 81, "duration": 7, "velocity": 119}, {"time": 5867, "pitch": 78, "duration": 6, "velocity": 116}, {"time": 5873, "pitch": 76, "duration": 5, "velocity": 110}, {"time": 5879, "pitch": 73, "duration": 5, "velocity": 117}, {"time": 5885, "pitch": 73, "duration": 2, "velocity": 113}, {"time": 5891, "pitch": 73, "duration": 5, "velocity": 110}, {"time": 5897, "pitch": 71, "duration": 5, "velocity": 114}, {"time": 5903, "pitch": 73, "duration": 5, "velocity": 117}, {"time": 5909, "pitch": 76, "duration": 7, "velocity": 113}, {"time": 5915, "pitch": 73, "duration": 5, "velocity": 110}, {"time": 5921, "pitch": 69, "duration": 6, "velocity": 109}, {"time": 5927, "pitch": 71, "duration": 7, "velocity": 108}, {"time": 5939, "pitch": 71, "duration": 6, "velocity": 114}, {"time": 5945, "pitch": 69, "duration": 6, "velocity": 109}, {"time": 5951, "pitch": 71, "duration": 4, "velocity": 114}, {"time": 5963, "pitch": 71, "duration": 6, "velocity": 116}, {"time": 5969, "pitch": 69, "duration": 6, "velocity": 113}, {"time": 5975, "pitch": 71, "duration": 5, "velocity": 94}, {"time": 5981, "pitch": 73, "duration": 3, "velocity": 116}, {"time": 5987, "pitch": 73, "duration": 5, "velocity": 113}, {"time": 5993, "pitch": 76, "duration": 5, "velocity": 114}, {"time": 5999, "pitch": 73, "duration": 6, "velocity": 119}, {"time": 6023, "pitch": 73, "duration": 8, "velocity": 119}, {"time": 6035, "pitch": 78, "duration": 7, "velocity": 119}, {"time": 6047, "pitch": 81, "duration": 7, "velocity": 119}, {"time": 6059, "pitch": 78, "duration": 6, "velocity": 116}, {"time": 6065, "pitch": 76, "duration": 5, "velocity": 110}, {"time": 6071, "pitch": 73, "duration": 5, "velocity": 117}, {"time": 6077, "pitch": 73, "duration": 2, "velocity": 113}, {"time": 6083, "pitch": 73, "duration": 5, "velocity": 110}, {"time": 6089, "pitch": 71, "duration": 5, "velocity": 114}, {"time": 6095, "pitch": 73, "duration": 5, "velocity": 117}, {"time": 6101, "pitch": 76, "duration": 7, "velocity": 113}, {"time": 6107, "pitch": 73, "duration": 5, "velocity": 110}, {"time": 6113, "pitch": 69, "duration": 6, "velocity": 109}, {"time": 6119, "pitch": 71, "duration": 7, "velocity": 108}, {"time": 6131, "pitch": 71, "duration": 6, "velocity": 114}, {"time": 6137, "pitch": 69, "duration": 6, "velocity": 109}, {"time": 6143, "pitch": 71, "duration": 4, "velocity": 114}, {"time": 6155, "pitch": 73, "duration": 6, "velocity": 116}, {"time": 6167, "pitch": 64, "duration": 6, "velocity": 116}, {"time": 6173, "pitch": 69, "duration": 5, "velocity": 113}, {"time": 6179, "pitch": 66, "duration": 5, "velocity": 108}, {"time": 6185, "pitch": 64, "duration": 5, "velocity": 107}, {"time": 6191, "pitch": 66, "duration": 8, "velocity": 116}, {"time": 6215, "pitch": 66, "duration": 8, "velocity": 110}, {"time": 6227, "pitch": 66, "duration": 3, "velocity": 107}, {"time": 6233, "pitch": 66, "duration": 3, "velocity": 107}, {"time": 6239, "pitch": 73, "duration": 9, "velocity": 117}, {"time": 6251, "pitch": 69, "duration": 7, "velocity": 116}, {"time": 6263, "pitch": 66, "duration": 10, "velocity": 117}, {"time": 6287, "pitch": 73, "duration": 9, "velocity": 117}, {"time": 6299, "pitch": 76, "duration": 7, "velocity": 119}, {"time": 6311, "pitch": 66, "duration": 5, "velocity": 117}, {"time": 6317, "pitch": 69, "duration": 5, "velocity": 109}, {"time": 6323, "pitch": 66, "duration": 6, "velocity": 108}, {"time": 6329, "pitch": 64, "duration": 6, "velocity": 108}, {"time": 6335, "pitch": 61, "duration": 7, "velocity": 114}, {"time": 6347, "pitch": 71, "duration": 5, "velocity": 110}, {"time": 6353, "pitch": 69, "duration": 6, "velocity": 100}, {"time": 6359, "pitch": 66, "duration": 9, "velocity": 108}]}, {"program": 0, "is_drum": false, "name": "PIANO", "notes": [{"time": 455, "pitch": 61, "duration": 14, "velocity": 102}, {"time": 455, "pitch": 66, "duration": 14, "velocity": 108}, {"time": 455, "pitch": 69, "duration": 14, "velocity": 93}, {"time": 458, "pitch": 42, "duration": 41, "velocity": 88}, {"time": 458, "pitch": 54, "duration": 11, "velocity": 86}, {"time": 470, "pitch": 54, "duration": 12, "velocity": 81}, {"time": 473, "pitch": 61, "duration": 14, "velocity": 93}, {"time": 473, "pitch": 66, "duration": 14, "velocity": 94}, {"time": 473, "pitch": 69, "duration": 13, "velocity": 90}, {"time": 485, "pitch": 54, "duration": 8, "velocity": 85}, {"time": 491, "pitch": 61, "duration": 10, "velocity": 93}, {"time": 491, "pitch": 66, "duration": 11, "velocity": 98}, {"time": 491, "pitch": 69, "duration": 9, "velocity": 87}, {"time": 503, "pitch": 42, "duration": 39, "velocity": 88}, {"time": 503, "pitch": 54, "duration": 11, "velocity": 84}, {"time": 503, "pitch": 61, "duration": 16, "velocity": 89}, {"time": 503, "pitch": 66, "duration": 16, "velocity": 89}, {"time": 503, "pitch": 69, "duration": 15, "velocity": 87}, {"time": 515, "pitch": 54, "duration": 13, "velocity": 84}, {"time": 521, "pitch": 61, "duration": 14, "velocity": 96}, {"time": 521, "pitch": 66, "duration": 14, "velocity": 100}, {"time": 521, "pitch": 69, "duration": 13, "velocity": 90}, {"time": 533, "pitch": 54, "duration": 8, "velocity": 88}, {"time": 539, "pitch": 61, "duration": 6, "velocity": 110}, {"time": 539, "pitch": 66, "duration": 7, "velocity": 113}, {"time": 539, "pitch": 69, "duration": 7, "velocity": 100}, {"time": 551, "pitch": 45, "duration": 42, "velocity": 97}, {"time": 551, "pitch": 61, "duration": 15, "velocity": 102}, {"time": 551, "pitch": 64, "duration": 15, "velocity": 108}, {"time": 551, "pitch": 69, "duration": 15, "velocity": 93}, {"time": 563, "pitch": 57, "duration": 13, "velocity": 78}, {"time": 569, "pitch": 61, "duration": 13, "velocity": 104}, {"time": 569, "pitch": 64, "duration": 14, "velocity": 113}, {"time": 569, "pitch": 69, "duration": 14, "velocity": 95}, {"time": 581, "pitch": 57, "duration": 7, "velocity": 86}, {"time": 587, "pitch": 61, "duration": 9, "velocity": 93}, {"time": 587, "pitch": 64, "duration": 9, "velocity": 102}, {"time": 587, "pitch": 69, "duration": 9, "velocity": 88}, {"time": 593, "pitch": 57, "duration": 7, "velocity": 83}, {"time": 599, "pitch": 45, "duration": 39, "velocity": 86}, {"time": 599, "pitch": 61, "duration": 13, "velocity": 94}, {"time": 599, "pitch": 64, "duration": 14, "velocity": 104}, {"time": 599, "pitch": 69, "duration": 14, "velocity": 90}, {"time": 611, "pitch": 57, "duration": 11, "velocity": 81}, {"time": 617, "pitch": 61, "duration": 13, "velocity": 104}, {"time": 617, "pitch": 64, "duration": 14, "velocity": 113}, {"time": 617, "pitch": 69, "duration": 13, "velocity": 97}, {"time": 629, "pitch": 57, "duration": 7, "velocity": 97}, {"time": 635, "pitch": 61, "duration": 8, "velocity": 98}, {"time": 635, "pitch": 64, "duration": 8, "velocity": 110}, {"time": 635, "pitch": 69, "duration": 8, "velocity": 97}, {"time": 647, "pitch": 42, "duration": 43, "velocity": 88}, {"time": 647, "pitch": 54, "duration": 9, "velocity": 90}, {"time": 647, "pitch": 61, "duration": 15, "velocity": 93}, {"time": 647, "pitch": 66, "duration": 16, "velocity": 100}, {"time": 647, "pitch": 69, "duration": 15, "velocity": 90}, {"time": 659, "pitch": 54, "duration": 12, "velocity": 86}, {"time": 665, "pitch": 61, "duration": 13, "velocity": 104}, {"time": 665, "pitch": 66, "duration": 14, "velocity": 107}, {"time": 665, "pitch": 69, "duration": 13, "velocity": 97}, {"time": 677, "pitch": 54, "duration": 15, "velocity": 84}, {"time": 683, "pitch": 61, "duration": 10, "velocity": 94}, {"time": 683, "pitch": 66, "duration": 10, "velocity": 92}, {"time": 683, "pitch": 69, "duration": 9, "velocity": 87}, {"time": 695, "pitch": 42, "duration": 38, "velocity": 90}, {"time": 695, "pitch": 54, "duration": 2, "velocity": 85}, {"time": 695, "pitch": 61, "duration": 15, "velocity": 96}, {"time": 695, "pitch": 66, "duration": 15, "velocity": 96}, {"time": 695, "pitch": 69, "duration": 14, "velocity": 91}, {"time": 707, "pitch": 54, "duration": 11, "velocity": 84}, {"time": 713, "pitch": 61, "duration": 13, "velocity": 100}, {"time": 713, "pitch": 66, "duration": 14, "velocity": 108}, {"time": 713, "pitch": 69, "duration": 13, "velocity": 95}, {"time": 725, "pitch": 54, "duration": 9, "velocity": 104}, {"time": 731, "pitch": 61, "duration": 8, "velocity": 100}, {"time": 731, "pitch": 66, "duration": 8, "velocity": 108}, {"time": 731, "pitch": 69, "duration": 8, "velocity": 93}, {"time": 743, "pitch": 45, "duration": 44, "velocity": 93}, {"time": 749, "pitch": 57, "duration": 15, "velocity": 85}, {"time": 761, "pitch": 61, "duration": 13, "velocity": 110}, {"time": 761, "pitch": 64, "duration": 13, "velocity": 116}, {"time": 761, "pitch": 69, "duration": 13, "velocity": 109}, {"time": 773, "pitch": 57, "duration": 9, "velocity": 97}, {"time": 779, "pitch": 61, "duration": 9, "velocity": 107}, {"time": 779, "pitch": 64, "duration": 9, "velocity": 113}, {"time": 779, "pitch": 69, "duration": 9, "velocity": 103}, {"time": 785, "pitch": 57, "duration": 6, "velocity": 85}, {"time": 791, "pitch": 45, "duration": 26, "velocity": 86}, {"time": 791, "pitch": 61, "duration": 25, "velocity": 96}, {"time": 791, "pitch": 64, "duration": 25, "velocity": 113}, {"time": 791, "pitch": 69, "duration": 25, "velocity": 97}, {"time": 839, "pitch": 42, "duration": 43, "velocity": 92}, {"time": 839, "pitch": 61, "duration": 14, "velocity": 92}, {"time": 839, "pitch": 66, "duration": 14, "velocity": 94}, {"time": 839, "pitch": 69, "duration": 14, "velocity": 89}, {"time": 851, "pitch": 54, "duration": 16, "velocity": 83}, {"time": 857, "pitch": 61, "duration": 27, "velocity": 98}, {"time": 857, "pitch": 66, "duration": 27, "velocity": 100}, {"time": 857, "pitch": 69, "duration": 27, "velocity": 90}, {"time": 875, "pitch": 54, "duration": 12, "velocity": 88}, {"time": 887, "pitch": 42, "duration": 37, "velocity": 92}, {"time": 887, "pitch": 61, "duration": 14, "velocity": 98}, {"time": 887, "pitch": 66, "duration": 15, "velocity": 98}, {"time": 887, "pitch": 69, "duration": 14, "velocity": 90}, {"time": 899, "pitch": 54, "duration": 10, "velocity": 88}, {"time": 905, "pitch": 61, "duration": 14, "velocity": 98}, {"time": 905, "pitch": 66, "duration": 15, "velocity": 102}, {"time": 905, "pitch": 69, "duration": 14, "velocity": 89}, {"time": 917, "pitch": 54, "duration": 8, "velocity": 93}, {"time": 923, "pitch": 61, "duration": 8, "velocity": 96}, {"time": 923, "pitch": 66, "duration": 9, "velocity": 108}, {"time": 923, "pitch": 69, "duration": 8, "velocity": 100}, {"time": 935, "pitch": 45, "duration": 42, "velocity": 89}, {"time": 935, "pitch": 61, "duration": 15, "velocity": 96}, {"time": 935, "pitch": 64, "duration": 15, "velocity": 107}, {"time": 935, "pitch": 69, "duration": 15, "velocity": 91}, {"time": 944, "pitch": 57, "duration": 17, "velocity": 83}, {"time": 953, "pitch": 61, "duration": 21, "velocity": 100}, {"time": 953, "pitch": 64, "duration": 23, "velocity": 107}, {"time": 953, "pitch": 69, "duration": 22, "velocity": 91}, {"time": 971, "pitch": 57, "duration": 13, "velocity": 89}, {"time": 983, "pitch": 45, "duration": 39, "velocity": 91}, {"time": 983, "pitch": 61, "duration": 17, "velocity": 100}, {"time": 983, "pitch": 69, "duration": 32, "velocity": 93}, {"time": 995, "pitch": 57, "duration": 14, "velocity": 81}, {"time": 1001, "pitch": 61, "duration": 14, "velocity": 87}, {"time": 1001, "pitch": 64, "duration": 15, "velocity": 117}, {"time": 1013, "pitch": 57, "duration": 7, "velocity": 91}, {"time": 1019, "pitch": 61, "duration": 12, "velocity": 104}, {"time": 1019, "pitch": 69, "duration": 11, "velocity": 86}, {"time": 1025, "pitch": 64, "duration": 6, "velocity": 89}, {"time": 1031, "pitch": 40, "duration": 44, "velocity": 110}, {"time": 1037, "pitch": 52, "duration": 19, "velocity": 88}, {"time": 1043, "pitch": 56, "duration": 4, "velocity": 81}, {"time": 1049, "pitch": 56, "duration": 15, "velocity": 91}, {"time": 1049, "pitch": 64, "duration": 15, "velocity": 113}, {"time": 1061, "pitch": 52, "duration": 15, "velocity": 98}, {"time": 1067, "pitch": 59, "duration": 10, "velocity": 98}, {"time": 1067, "pitch": 64, "duration": 7, "velocity": 86}, {"time": 1079, "pitch": 40, "duration": 39, "velocity": 100}, {"time": 1079, "pitch": 56, "duration": 14, "velocity": 98}, {"time": 1079, "pitch": 59, "duration": 15, "velocity": 92}, {"time": 1079, "pitch": 64, "duration": 13, "velocity": 100}, {"time": 1091, "pitch": 52, "duration": 10, "velocity": 89}, {"time": 1097, "pitch": 56, "duration": 14, "velocity": 98}, {"time": 1097, "pitch": 59, "duration": 14, "velocity": 104}, {"time": 1097, "pitch": 64, "duration": 13, "velocity": 98}, {"time": 1106, "pitch": 52, "duration": 15, "velocity": 96}, {"time": 1115, "pitch": 56, "duration": 9, "velocity": 91}, {"time": 1115, "pitch": 59, "duration": 13, "velocity": 98}, {"time": 1115, "pitch": 64, "duration": 9, "velocity": 93}, {"time": 1127, "pitch": 42, "duration": 44, "velocity": 107}, {"time": 1133, "pitch": 49, "duration": 40, "velocity": 87}, {"time": 1139, "pitch": 54, "duration": 14, "velocity": 102}, {"time": 1145, "pitch": 57, "duration": 25, "velocity": 109}, {"time": 1145, "pitch": 61, "duration": 26, "velocity": 117}, {"time": 1145, "pitch": 66, "duration": 26, "velocity": 113}, {"time": 1163, "pitch": 54, "duration": 10, "velocity": 92}, {"time": 1175, "pitch": 42, "duration": 43, "velocity": 91}, {"time": 1175, "pitch": 57, "duration": 11, "velocity": 91}, {"time": 1175, "pitch": 61, "duration": 12, "velocity": 108}, {"time": 1175, "pitch": 66, "duration": 11, "velocity": 110}, {"time": 1184, "pitch": 54, "duration": 11, "velocity": 83}, {"time": 1193, "pitch": 57, "duration": 13, "velocity": 91}, {"time": 1193, "pitch": 61, "duration": 13, "velocity": 104}, {"time": 1193, "pitch": 66, "duration": 13, "velocity": 113}, {"time": 1205, "pitch": 54, "duration": 8, "velocity": 108}, {"time": 1211, "pitch": 57, "duration": 7, "velocity": 93}, {"time": 1211, "pitch": 61, "duration": 9, "velocity": 104}, {"time": 1211, "pitch": 66, "duration": 7, "velocity": 107}, {"time": 1217, "pitch": 54, "duration": 4, "velocity": 91}, {"time": 1223, "pitch": 42, "duration": 44, "velocity": 100}, {"time": 1223, "pitch": 57, "duration": 14, "velocity": 97}, {"time": 1223, "pitch": 61, "duration": 14, "velocity": 108}, {"time": 1223, "pitch": 66, "duration": 14, "velocity": 110}, {"time": 1235, "pitch": 54, "duration": 12, "velocity": 91}, {"time": 1241, "pitch": 57, "duration": 14, "velocity": 95}, {"time": 1241, "pitch": 61, "duration": 14, "velocity": 108}, {"time": 1241, "pitch": 66, "duration": 14, "velocity": 113}, {"time": 1253, "pitch": 54, "duration": 13, "velocity": 100}, {"time": 1259, "pitch": 57, "duration": 8, "velocity": 97}, {"time": 1259, "pitch": 61, "duration": 8, "velocity": 93}, {"time": 1259, "pitch": 66, "duration": 7, "velocity": 102}, {"time": 1271, "pitch": 42, "duration": 37, "velocity": 94}, {"time": 1271, "pitch": 57, "duration": 12, "velocity": 89}, {"time": 1271, "pitch": 61, "duration": 13, "velocity": 102}, {"time": 1271, "pitch": 66, "duration": 11, "velocity": 104}, {"time": 1283, "pitch": 54, "duration": 10, "velocity": 92}, {"time": 1289, "pitch": 57, "duration": 13, "velocity": 97}, {"time": 1289, "pitch": 61, "duration": 14, "velocity": 113}, {"time": 1289, "pitch": 66, "duration": 12, "velocity": 116}, {"time": 1301, "pitch": 54, "duration": 9, "velocity": 93}, {"time": 1307, "pitch": 57, "duration": 5, "velocity": 103}, {"time": 1307, "pitch": 61, "duration": 10, "velocity": 108}, {"time": 1307, "pitch": 66, "duration": 5, "velocity": 116}, {"time": 1319, "pitch": 45, "duration": 43, "velocity": 90}, {"time": 1319, "pitch": 61, "duration": 16, "velocity": 113}, {"time": 1319, "pitch": 64, "duration": 15, "velocity": 113}, {"time": 1331, "pitch": 57, "duration": 14, "velocity": 86}, {"time": 1337, "pitch": 61, "duration": 21, "velocity": 113}, {"time": 1337, "pitch": 64, "duration": 20, "velocity": 113}, {"time": 1355, "pitch": 57, "duration": 14, "velocity": 89}, {"time": 1361, "pitch": 61, "duration": 5, "velocity": 88}, {"time": 1361, "pitch": 64, "duration": 4, "velocity": 87}, {"time": 1367, "pitch": 45, "duration": 38, "velocity": 95}, {"time": 1367, "pitch": 61, "duration": 16, "velocity": 104}, {"time": 1367, "pitch": 64, "duration": 16, "velocity": 102}, {"time": 1379, "pitch": 57, "duration": 14, "velocity": 84}, {"time": 1385, "pitch": 61, "duration": 15, "velocity": 107}, {"time": 1385, "pitch": 64, "duration": 14, "velocity": 107}, {"time": 1397, "pitch": 57, "duration": 7, "velocity": 106}, {"time": 1403, "pitch": 61, "duration": 4, "velocity": 110}, {"time": 1403, "pitch": 64, "duration": 5, "velocity": 116}, {"time": 1415, "pitch": 40, "duration": 45, "velocity": 93}, {"time": 1415, "pitch": 56, "duration": 16, "velocity": 91}, {"time": 1415, "pitch": 59, "duration": 16, "velocity": 102}, {"time": 1415, "pitch": 64, "duration": 12, "velocity": 102}, {"time": 1427, "pitch": 52, "duration": 12, "velocity": 85}, {"time": 1433, "pitch": 56, "duration": 28, "velocity": 96}, {"time": 1433, "pitch": 59, "duration": 28, "velocity": 108}, {"time": 1433, "pitch": 64, "duration": 27, "velocity": 113}, {"time": 1451, "pitch": 52, "duration": 11, "velocity": 91}, {"time": 1463, "pitch": 40, "duration": 43, "velocity": 88}, {"time": 1463, "pitch": 56, "duration": 15, "velocity": 93}, {"time": 1463, "pitch": 59, "duration": 16, "velocity": 100}, {"time": 1463, "pitch": 64, "duration": 14, "velocity": 104}, {"time": 1475, "pitch": 52, "duration": 10, "velocity": 89}, {"time": 1481, "pitch": 56, "duration": 15, "velocity": 93}, {"time": 1481, "pitch": 59, "duration": 16, "velocity": 107}, {"time": 1481, "pitch": 64, "duration": 14, "velocity": 107}, {"time": 1493, "pitch": 52, "duration": 7, "velocity": 100}, {"time": 1499, "pitch": 56, "duration": 4, "velocity": 90}, {"time": 1499, "pitch": 59, "duration": 4, "velocity": 102}, {"time": 1499, "pitch": 64, "duration": 4, "velocity": 102}, {"time": 1505, "pitch": 52, "duration": 5, "velocity": 88}, {"time": 1511, "pitch": 42, "duration": 45, "velocity": 91}, {"time": 1511, "pitch": 57, "duration": 14, "velocity": 88}, {"time": 1511, "pitch": 61, "duration": 13, "velocity": 96}, {"time": 1511, "pitch": 66, "duration": 11, "velocity": 104}, {"time": 1523, "pitch": 54, "duration": 8, "velocity": 89}, {"time": 1529, "pitch": 57, "duration": 15, "velocity": 95}, {"time": 1529, "pitch": 61, "duration": 15, "velocity": 108}, {"time": 1529, "pitch": 66, "duration": 14, "velocity": 108}, {"time": 1541, "pitch": 54, "duration": 15, "velocity": 96}, {"time": 1547, "pitch": 57, "duration": 8, "velocity": 86}, {"time": 1547, "pitch": 61, "duration": 8, "velocity": 92}, {"time": 1547, "pitch": 66, "duration": 6, "velocity": 88}, {"time": 1559, "pitch": 42, "duration": 42, "velocity": 98}, {"time": 1559, "pitch": 57, "duration": 13, "velocity": 97}, {"time": 1559, "pitch": 61, "duration": 13, "velocity": 108}, {"time": 1559, "pitch": 66, "duration": 12, "velocity": 107}, {"time": 1571, "pitch": 54, "duration": 12, "velocity": 88}, {"time": 1577, "pitch": 57, "duration": 13, "velocity": 95}, {"time": 1577, "pitch": 61, "duration": 13, "velocity": 108}, {"time": 1577, "pitch": 66, "duration": 13, "velocity": 114}, {"time": 1589, "pitch": 54, "duration": 11, "velocity": 98}, {"time": 1595, "pitch": 57, "duration": 7, "velocity": 97}, {"time": 1595, "pitch": 61, "duration": 8, "velocity": 104}, {"time": 1595, "pitch": 66, "duration": 8, "velocity": 108}, {"time": 1607, "pitch": 45, "duration": 38, "velocity": 97}, {"time": 1607, "pitch": 61, "duration": 16, "velocity": 100}, {"time": 1607, "pitch": 64, "duration": 16, "velocity": 108}, {"time": 1607, "pitch": 69, "duration": 16, "velocity": 91}, {"time": 1619, "pitch": 57, "duration": 14, "velocity": 84}, {"time": 1625, "pitch": 61, "duration": 13, "velocity": 102}, {"time": 1625, "pitch": 64, "duration": 15, "velocity": 107}, {"time": 1625, "pitch": 69, "duration": 14, "velocity": 95}, {"time": 1637, "pitch": 57, "duration": 6, "velocity": 109}, {"time": 1643, "pitch": 61, "duration": 8, "velocity": 104}, {"time": 1643, "pitch": 64, "duration": 11, "velocity": 108}, {"time": 1643, "pitch": 69, "duration": 7, "velocity": 95}, {"time": 1655, "pitch": 40, "duration": 39, "velocity": 98}, {"time": 1655, "pitch": 59, "duration": 16, "velocity": 94}, {"time": 1655, "pitch": 64, "duration": 13, "velocity": 102}, {"time": 1655, "pitch": 68, "duration": 15, "velocity": 108}, {"time": 1667, "pitch": 52, "duration": 10, "velocity": 88}, {"time": 1673, "pitch": 59, "duration": 15, "velocity": 104}, {"time": 1673, "pitch": 64, "duration": 15, "velocity": 116}, {"time": 1673, "pitch": 68, "duration": 15, "velocity": 104}, {"time": 1685, "pitch": 52, "duration": 8, "velocity": 104}, {"time": 1691, "pitch": 59, "duration": 7, "velocity": 102}, {"time": 1691, "pitch": 64, "duration": 8, "velocity": 100}, {"time": 1691, "pitch": 68, "duration": 8, "velocity": 90}, {"time": 1703, "pitch": 47, "duration": 37, "velocity": 90}, {"time": 1703, "pitch": 62, "duration": 14, "velocity": 100}, {"time": 1703, "pitch": 66, "duration": 14, "velocity": 98}, {"time": 1703, "pitch": 71, "duration": 13, "velocity": 104}, {"time": 1715, "pitch": 59, "duration": 11, "velocity": 85}, {"time": 1721, "pitch": 62, "duration": 13, "velocity": 100}, {"time": 1721, "pitch": 66, "duration": 13, "velocity": 110}, {"time": 1721, "pitch": 71, "duration": 13, "velocity": 110}, {"time": 1733, "pitch": 59, "duration": 7, "velocity": 89}, {"time": 1739, "pitch": 62, "duration": 6, "velocity": 93}, {"time": 1739, "pitch": 66, "duration": 7, "velocity": 96}, {"time": 1739, "pitch": 71, "duration": 6, "velocity": 104}, {"time": 1751, "pitch": 42, "duration": 35, "velocity": 87}, {"time": 1751, "pitch": 57, "duration": 14, "velocity": 93}, {"time": 1751, "pitch": 61, "duration": 15, "velocity": 100}, {"time": 1751, "pitch": 66, "duration": 11, "velocity": 108}, {"time": 1763, "pitch": 54, "duration": 11, "velocity": 86}, {"time": 1769, "pitch": 57, "duration": 13, "velocity": 95}, {"time": 1769, "pitch": 61, "duration": 13, "velocity": 113}, {"time": 1769, "pitch": 66, "duration": 11, "velocity": 113}, {"time": 1781, "pitch": 54, "duration": 7, "velocity": 102}, {"time": 1787, "pitch": 57, "duration": 5, "velocity": 97}, {"time": 1787, "pitch": 61, "duration": 10, "velocity": 114}, {"time": 1787, "pitch": 66, "duration": 6, "velocity": 113}, {"time": 1799, "pitch": 45, "duration": 38, "velocity": 97}, {"time": 1799, "pitch": 61, "duration": 15, "velocity": 102}, {"time": 1799, "pitch": 64, "duration": 15, "velocity": 104}, {"time": 1811, "pitch": 57, "duration": 11, "velocity": 90}, {"time": 1817, "pitch": 61, "duration": 15, "velocity": 108}, {"time": 1817, "pitch": 64, "duration": 15, "velocity": 113}, {"time": 1829, "pitch": 57, "duration": 8, "velocity": 103}, {"time": 1835, "pitch": 61, "duration": 6, "velocity": 114}, {"time": 1835, "pitch": 64, "duration": 7, "velocity": 116}, {"time": 1847, "pitch": 40, "duration": 38, "velocity": 90}, {"time": 1847, "pitch": 59, "duration": 15, "velocity": 92}, {"time": 1847, "pitch": 64, "duration": 15, "velocity": 104}, {"time": 1847, "pitch": 68, "duration": 15, "velocity": 93}, {"time": 1859, "pitch": 52, "duration": 14, "velocity": 88}, {"time": 1865, "pitch": 59, "duration": 14, "velocity": 100}, {"time": 1865, "pitch": 64, "duration": 15, "velocity": 104}, {"time": 1865, "pitch": 68, "duration": 14, "velocity": 91}, {"time": 1877, "pitch": 52, "duration": 8, "velocity": 96}, {"time": 1883, "pitch": 59, "duration": 9, "velocity": 94}, {"time": 1883, "pitch": 64, "duration": 9, "velocity": 107}, {"time": 1883, "pitch": 68, "duration": 7, "velocity": 91}, {"time": 1895, "pitch": 38, "duration": 37, "velocity": 109}, {"time": 1895, "pitch": 62, "duration": 13, "velocity": 100}, {"time": 1895, "pitch": 66, "duration": 13, "velocity": 114}, {"time": 1895, "pitch": 69, "duration": 14, "velocity": 113}, {"time": 1907, "pitch": 50, "duration": 9, "velocity": 100}, {"time": 1913, "pitch": 62, "duration": 12, "velocity": 103}, {"time": 1913, "pitch": 66, "duration": 13, "velocity": 117}, {"time": 1913, "pitch": 69, "duration": 13, "velocity": 113}, {"time": 1925, "pitch": 50, "duration": 9, "velocity": 116}, {"time": 1931, "pitch": 62, "duration": 3, "velocity": 109}, {"time": 1931, "pitch": 66, "duration": 3, "velocity": 116}, {"time": 1931, "pitch": 69, "duration": 3, "velocity": 109}, {"time": 1943, "pitch": 40, "duration": 27, "velocity": 113}, {"time": 1943, "pitch": 59, "duration": 16, "velocity": 113}, {"time": 1943, "pitch": 64, "duration": 15, "velocity": 116}, {"time": 1943, "pitch": 68, "duration": 15, "velocity": 114}, {"time": 1955, "pitch": 52, "duration": 10, "velocity": 102}, {"time": 1961, "pitch": 59, "duration": 13, "velocity": 116}, {"time": 1961, "pitch": 64, "duration": 13, "velocity": 123}, {"time": 1961, "pitch": 68, "duration": 13, "velocity": 114}, {"time": 1973, "pitch": 40, "duration": 7, "velocity": 108}, {"time": 1973, "pitch": 52, "duration": 7, "velocity": 117}, {"time": 1979, "pitch": 59, "duration": 8, "velocity": 114}, {"time": 1979, "pitch": 64, "duration": 8, "velocity": 116}, {"time": 1979, "pitch": 68, "duration": 8, "velocity": 113}, {"time": 1991, "pitch": 42, "duration": 38, "velocity": 100}, {"time": 1991, "pitch": 57, "duration": 13, "velocity": 106}, {"time": 1991, "pitch": 61, "duration": 13, "velocity": 117}, {"time": 1991, "pitch": 66, "duration": 12, "velocity": 114}, {"time": 2003, "pitch": 54, "duration": 11, "velocity": 98}, {"time": 2009, "pitch": 57, "duration": 13, "velocity": 106}, {"time": 2009, "pitch": 61, "duration": 13, "velocity": 119}, {"time": 2009, "pitch": 66, "duration": 13, "velocity": 117}, {"time": 2021, "pitch": 54, "duration": 8, "velocity": 108}, {"time": 2027, "pitch": 57, "duration": 6, "velocity": 109}, {"time": 2027, "pitch": 61, "duration": 9, "velocity": 116}, {"time": 2027, "pitch": 66, "duration": 7, "velocity": 117}, {"time": 2039, "pitch": 45, "duration": 24, "velocity": 100}, {"time": 2039, "pitch": 61, "duration": 16, "velocity": 110}, {"time": 2039, "pitch": 64, "duration": 15, "velocity": 114}, {"time": 2051, "pitch": 57, "duration": 12, "velocity": 106}, {"time": 2057, "pitch": 61, "duration": 14, "velocity": 114}, {"time": 2057, "pitch": 64, "duration": 13, "velocity": 117}, {"time": 2069, "pitch": 45, "duration": 7, "velocity": 109}, {"time": 2069, "pitch": 57, "duration": 6, "velocity": 109}, {"time": 2075, "pitch": 61, "duration": 10, "velocity": 117}, {"time": 2075, "pitch": 64, "duration": 8, "velocity": 117}, {"time": 2087, "pitch": 40, "duration": 39, "velocity": 107}, {"time": 2087, "pitch": 52, "duration": 9, "velocity": 92}, {"time": 2087, "pitch": 59, "duration": 14, "velocity": 104}, {"time": 2087, "pitch": 64, "duration": 15, "velocity": 113}, {"time": 2087, "pitch": 68, "duration": 14, "velocity": 108}, {"time": 2099, "pitch": 52, "duration": 13, "velocity": 107}, {"time": 2105, "pitch": 59, "duration": 14, "velocity": 110}, {"time": 2105, "pitch": 64, "duration": 14, "velocity": 114}, {"time": 2105, "pitch": 68, "duration": 14, "velocity": 110}, {"time": 2117, "pitch": 52, "duration": 10, "velocity": 110}, {"time": 2123, "pitch": 59, "duration": 8, "velocity": 108}, {"time": 2123, "pitch": 64, "duration": 8, "velocity": 113}, {"time": 2123, "pitch": 68, "duration": 9, "velocity": 108}, {"time": 2135, "pitch": 47, "duration": 12, "velocity": 102}, {"time": 2135, "pitch": 59, "duration": 15, "velocity": 92}, {"time": 2135, "pitch": 62, "duration": 21, "velocity": 109}, {"time": 2135, "pitch": 66, "duration": 19, "velocity": 94}, {"time": 2159, "pitch": 37, "duration": 12, "velocity": 94}, {"time": 2159, "pitch": 49, "duration": 13, "velocity": 98}, {"time": 2159, "pitch": 56, "duration": 15, "velocity": 104}, {"time": 2159, "pitch": 61, "duration": 18, "velocity": 110}, {"time": 2159, "pitch": 65, "duration": 17, "velocity": 97}, {"time": 2183, "pitch": 42, "duration": 38, "velocity": 96}, {"time": 2183, "pitch": 57, "duration": 13, "velocity": 103}, {"time": 2183, "pitch": 61, "duration": 13, "velocity": 104}, {"time": 2183, "pitch": 66, "duration": 13, "velocity": 108}, {"time": 2195, "pitch": 54, "duration": 11, "velocity": 88}, {"time": 2201, "pitch": 57, "duration": 13, "velocity": 93}, {"time": 2201, "pitch": 61, "duration": 13, "velocity": 110}, {"time": 2201, "pitch": 66, "duration": 13, "velocity": 110}, {"time": 2213, "pitch": 54, "duration": 8, "velocity": 104}, {"time": 2219, "pitch": 57, "duration": 5, "velocity": 100}, {"time": 2219, "pitch": 61, "duration": 9, "velocity": 113}, {"time": 2219, "pitch": 66, "duration": 6, "velocity": 114}, {"time": 2231, "pitch": 45, "duration": 26, "velocity": 91}, {"time": 2231, "pitch": 57, "duration": 10, "velocity": 91}, {"time": 2231, "pitch": 61, "duration": 16, "velocity": 107}, {"time": 2231, "pitch": 64, "duration": 16, "velocity": 104}, {"time": 2243, "pitch": 57, "duration": 13, "velocity": 103}, {"time": 2249, "pitch": 61, "duration": 14, "velocity": 110}, {"time": 2249, "pitch": 64, "duration": 14, "velocity": 114}, {"time": 2261, "pitch": 45, "duration": 8, "velocity": 100}, {"time": 2261, "pitch": 57, "duration": 6, "velocity": 106}, {"time": 2267, "pitch": 61, "duration": 9, "velocity": 116}, {"time": 2267, "pitch": 64, "duration": 8, "velocity": 116}, {"time": 2279, "pitch": 40, "duration": 39, "velocity": 91}, {"time": 2279, "pitch": 52, "duration": 8, "velocity": 96}, {"time": 2279, "pitch": 59, "duration": 15, "velocity": 100}, {"time": 2279, "pitch": 64, "duration": 15, "velocity": 110}, {"time": 2279, "pitch": 68, "duration": 15, "velocity": 108}, {"time": 2288, "pitch": 52, "duration": 12, "velocity": 92}, {"time": 2297, "pitch": 59, "duration": 14, "velocity": 104}, {"time": 2297, "pitch": 64, "duration": 14, "velocity": 110}, {"time": 2297, "pitch": 68, "duration": 14, "velocity": 108}, {"time": 2309, "pitch": 52, "duration": 10, "velocity": 114}, {"time": 2315, "pitch": 59, "duration": 6, "velocity": 107}, {"time": 2315, "pitch": 64, "duration": 5, "velocity": 114}, {"time": 2315, "pitch": 68, "duration": 4, "velocity": 108}, {"time": 2327, "pitch": 35, "duration": 10, "velocity": 98}, {"time": 2327, "pitch": 47, "duration": 10, "velocity": 107}, {"time": 2327, "pitch": 62, "duration": 15, "velocity": 100}, {"time": 2327, "pitch": 66, "duration": 15, "velocity": 104}, {"time": 2327, "pitch": 71, "duration": 15, "velocity": 104}, {"time": 2339, "pitch": 35, "duration": 3, "velocity": 90}, {"time": 2339, "pitch": 47, "duration": 3, "velocity": 102}, {"time": 2351, "pitch": 42, "duration": 11, "velocity": 92}, {"time": 2351, "pitch": 54, "duration": 10, "velocity": 91}, {"time": 2351, "pitch": 61, "duration": 15, "velocity": 96}, {"time": 2351, "pitch": 66, "duration": 15, "velocity": 110}, {"time": 2351, "pitch": 69, "duration": 15, "velocity": 88}, {"time": 2363, "pitch": 42, "duration": 6, "velocity": 87}, {"time": 2363, "pitch": 54, "duration": 6, "velocity": 102}, {"time": 2369, "pitch": 61, "duration": 6, "velocity": 102}, {"time": 2369, "pitch": 66, "duration": 7, "velocity": 117}, {"time": 2369, "pitch": 69, "duration": 8, "velocity": 109}, {"time": 2375, "pitch": 42, "duration": 38, "velocity": 100}, {"time": 2375, "pitch": 57, "duration": 13, "velocity": 106}, {"time": 2375, "pitch": 61, "duration": 13, "velocity": 117}, {"time": 2375, "pitch": 66, "duration": 1, "velocity": 114}, {"time": 2387, "pitch": 54, "duration": 11, "velocity": 98}, {"time": 2393, "pitch": 57, "duration": 13, "velocity": 106}, {"time": 2393, "pitch": 61, "duration": 13, "velocity": 119}, {"time": 2393, "pitch": 66, "duration": 13, "velocity": 117}, {"time": 2405, "pitch": 54, "duration": 8, "velocity": 108}, {"time": 2411, "pitch": 57, "duration": 6, "velocity": 109}, {"time": 2411, "pitch": 61, "duration": 9, "velocity": 116}, {"time": 2411, "pitch": 66, "duration": 7, "velocity": 117}, {"time": 2423, "pitch": 45, "duration": 24, "velocity": 100}, {"time": 2423, "pitch": 61, "duration": 16, "velocity": 110}, {"time": 2423, "pitch": 64, "duration": 15, "velocity": 114}, {"time": 2435, "pitch": 57, "duration": 12, "velocity": 106}, {"time": 2441, "pitch": 61, "duration": 14, "velocity": 114}, {"time": 2441, "pitch": 64, "duration": 13, "velocity": 117}, {"time": 2453, "pitch": 45, "duration": 7, "velocity": 109}, {"time": 2453, "pitch": 57, "duration": 6, "velocity": 109}, {"time": 2459, "pitch": 61, "duration": 10, "velocity": 117}, {"time": 2459, "pitch": 64, "duration": 8, "velocity": 117}, {"time": 2471, "pitch": 40, "duration": 39, "velocity": 107}, {"time": 2471, "pitch": 52, "duration": 9, "velocity": 92}, {"time": 2471, "pitch": 59, "duration": 14, "velocity": 104}, {"time": 2471, "pitch": 64, "duration": 15, "velocity": 113}, {"time": 2471, "pitch": 68, "duration": 14, "velocity": 108}, {"time": 2483, "pitch": 52, "duration": 13, "velocity": 107}, {"time": 2489, "pitch": 59, "duration": 14, "velocity": 110}, {"time": 2489, "pitch": 64, "duration": 14, "velocity": 114}, {"time": 2489, "pitch": 68, "duration": 14, "velocity": 110}, {"time": 2501, "pitch": 52, "duration": 10, "velocity": 110}, {"time": 2507, "pitch": 59, "duration": 8, "velocity": 108}, {"time": 2507, "pitch": 64, "duration": 8, "velocity": 113}, {"time": 2507, "pitch": 68, "duration": 9, "velocity": 108}, {"time": 2519, "pitch": 47, "duration": 12, "velocity": 102}, {"time": 2519, "pitch": 59, "duration": 15, "velocity": 92}, {"time": 2519, "pitch": 62, "duration": 21, "velocity": 109}, {"time": 2519, "pitch": 66, "duration": 19, "velocity": 94}, {"time": 2543, "pitch": 37, "duration": 12, "velocity": 94}, {"time": 2543, "pitch": 49, "duration": 13, "velocity": 98}, {"time": 2543, "pitch": 56, "duration": 15, "velocity": 104}, {"time": 2543, "pitch": 61, "duration": 18, "velocity": 110}, {"time": 2543, "pitch": 65, "duration": 17, "velocity": 97}, {"time": 2567, "pitch": 42, "duration": 38, "velocity": 96}, {"time": 2567, "pitch": 57, "duration": 13, "velocity": 103}, {"time": 2567, "pitch": 61, "duration": 13, "velocity": 104}, {"time": 2567, "pitch": 66, "duration": 13, "velocity": 108}, {"time": 2579, "pitch": 54, "duration": 11, "velocity": 88}, {"time": 2585, "pitch": 57, "duration": 13, "velocity": 93}, {"time": 2585, "pitch": 61, "duration": 13, "velocity": 110}, {"time": 2585, "pitch": 66, "duration": 13, "velocity": 110}, {"time": 2597, "pitch": 54, "duration": 8, "velocity": 104}, {"time": 2603, "pitch": 57, "duration": 5, "velocity": 100}, {"time": 2603, "pitch": 61, "duration": 9, "velocity": 113}, {"time": 2603, "pitch": 66, "duration": 6, "velocity": 114}, {"time": 2615, "pitch": 45, "duration": 26, "velocity": 91}, {"time": 2615, "pitch": 57, "duration": 10, "velocity": 91}, {"time": 2615, "pitch": 61, "duration": 16, "velocity": 107}, {"time": 2615, "pitch": 64, "duration": 16, "velocity": 104}, {"time": 2627, "pitch": 57, "duration": 13, "velocity": 103}, {"time": 2633, "pitch": 61, "duration": 14, "velocity": 110}, {"time": 2633, "pitch": 64, "duration": 14, "velocity": 114}, {"time": 2645, "pitch": 45, "duration": 8, "velocity": 100}, {"time": 2645, "pitch": 57, "duration": 6, "velocity": 106}, {"time": 2651, "pitch": 61, "duration": 9, "velocity": 116}, {"time": 2651, "pitch": 64, "duration": 8, "velocity": 116}, {"time": 2663, "pitch": 40, "duration": 39, "velocity": 91}, {"time": 2663, "pitch": 52, "duration": 8, "velocity": 96}, {"time": 2663, "pitch": 59, "duration": 15, "velocity": 100}, {"time": 2663, "pitch": 64, "duration": 15, "velocity": 110}, {"time": 2663, "pitch": 68, "duration": 15, "velocity": 108}, {"time": 2672, "pitch": 52, "duration": 12, "velocity": 92}, {"time": 2681, "pitch": 59, "duration": 14, "velocity": 104}, {"time": 2681, "pitch": 64, "duration": 14, "velocity": 110}, {"time": 2681, "pitch": 68, "duration": 14, "velocity": 108}, {"time": 2693, "pitch": 52, "duration": 10, "velocity": 114}, {"time": 2699, "pitch": 59, "duration": 6, "velocity": 107}, {"time": 2699, "pitch": 64, "duration": 5, "velocity": 114}, {"time": 2699, "pitch": 68, "duration": 4, "velocity": 108}, {"time": 2711, "pitch": 35, "duration": 10, "velocity": 98}, {"time": 2711, "pitch": 47, "duration": 10, "velocity": 107}, {"time": 2711, "pitch": 62, "duration": 15, "velocity": 100}, {"time": 2711, "pitch": 66, "duration": 15, "velocity": 104}, {"time": 2711, "pitch": 71, "duration": 15, "velocity": 104}, {"time": 2723, "pitch": 35, "duration": 3, "velocity": 90}, {"time": 2723, "pitch": 47, "duration": 3, "velocity": 102}, {"time": 2735, "pitch": 42, "duration": 11, "velocity": 92}, {"time": 2735, "pitch": 54, "duration": 10, "velocity": 91}, {"time": 2735, "pitch": 61, "duration": 15, "velocity": 96}, {"time": 2735, "pitch": 66, "duration": 15, "velocity": 110}, {"time": 2735, "pitch": 69, "duration": 15, "velocity": 88}, {"time": 2747, "pitch": 42, "duration": 6, "velocity": 87}, {"time": 2747, "pitch": 54, "duration": 6, "velocity": 102}, {"time": 2753, "pitch": 61, "duration": 6, "velocity": 102}, {"time": 2753, "pitch": 66, "duration": 7, "velocity": 117}, {"time": 2753, "pitch": 69, "duration": 8, "velocity": 109}, {"time": 2759, "pitch": 42, "duration": 44, "velocity": 91}, {"time": 2759, "pitch": 54, "duration": 11, "velocity": 88}, {"time": 2759, "pitch": 61, "duration": 16, "velocity": 89}, {"time": 2759, "pitch": 66, "duration": 1, "velocity": 87}, {"time": 2759, "pitch": 69, "duration": 2, "velocity": 84}, {"time": 2771, "pitch": 54, "duration": 14, "velocity": 86}, {"time": 2777, "pitch": 61, "duration": 20, "velocity": 92}, {"time": 2777, "pitch": 66, "duration": 27, "velocity": 92}, {"time": 2777, "pitch": 69, "duration": 20, "velocity": 87}, {"time": 2795, "pitch": 54, "duration": 9, "velocity": 87}, {"time": 2801, "pitch": 61, "duration": 4, "velocity": 84}, {"time": 2801, "pitch": 69, "duration": 3, "velocity": 74}, {"time": 2807, "pitch": 42, "duration": 44, "velocity": 88}, {"time": 2807, "pitch": 61, "duration": 16, "velocity": 91}, {"time": 2807, "pitch": 66, "duration": 16, "velocity": 91}, {"time": 2807, "pitch": 69, "duration": 16, "velocity": 87}, {"time": 2819, "pitch": 54, "duration": 13, "velocity": 85}, {"time": 2825, "pitch": 61, "duration": 14, "velocity": 96}, {"time": 2825, "pitch": 66, "duration": 15, "velocity": 98}, {"time": 2825, "pitch": 69, "duration": 15, "velocity": 90}, {"time": 2837, "pitch": 54, "duration": 9, "velocity": 83}, {"time": 2843, "pitch": 61, "duration": 8, "velocity": 89}, {"time": 2843, "pitch": 66, "duration": 9, "velocity": 90}, {"time": 2843, "pitch": 69, "duration": 8, "velocity": 85}, {"time": 2855, "pitch": 42, "duration": 44, "velocity": 90}, {"time": 2855, "pitch": 61, "duration": 10, "velocity": 91}, {"time": 2855, "pitch": 66, "duration": 10, "velocity": 91}, {"time": 2855, "pitch": 69, "duration": 9, "velocity": 87}, {"time": 2867, "pitch": 61, "duration": 3, "velocity": 84}, {"time": 2867, "pitch": 66, "duration": 3, "velocity": 84}, {"time": 2867, "pitch": 69, "duration": 3, "velocity": 83}, {"time": 2873, "pitch": 61, "duration": 13, "velocity": 91}, {"time": 2873, "pitch": 66, "duration": 14, "velocity": 92}, {"time": 2873, "pitch": 69, "duration": 14, "velocity": 86}, {"time": 2885, "pitch": 54, "duration": 15, "velocity": 82}, {"time": 2891, "pitch": 61, "duration": 9, "velocity": 91}, {"time": 2891, "pitch": 66, "duration": 9, "velocity": 90}, {"time": 2891, "pitch": 69, "duration": 8, "velocity": 87}, {"time": 2903, "pitch": 42, "duration": 45, "velocity": 89}, {"time": 2903, "pitch": 61, "duration": 15, "velocity": 90}, {"time": 2903, "pitch": 66, "duration": 16, "velocity": 93}, {"time": 2903, "pitch": 69, "duration": 15, "velocity": 87}, {"time": 2915, "pitch": 54, "duration": 13, "velocity": 82}, {"time": 2921, "pitch": 61, "duration": 14, "velocity": 92}, {"time": 2921, "pitch": 66, "duration": 15, "velocity": 98}, {"time": 2921, "pitch": 69, "duration": 14, "velocity": 89}, {"time": 2933, "pitch": 54, "duration": 16, "velocity": 88}, {"time": 2939, "pitch": 61, "duration": 10, "velocity": 98}, {"time": 2939, "pitch": 66, "duration": 11, "velocity": 98}, {"time": 2939, "pitch": 69, "duration": 12, "velocity": 87}, {"time": 2951, "pitch": 42, "duration": 44, "velocity": 89}, {"time": 2951, "pitch": 54, "duration": 9, "velocity": 91}, {"time": 2951, "pitch": 61, "duration": 16, "velocity": 89}, {"time": 2951, "pitch": 66, "duration": 16, "velocity": 88}, {"time": 2951, "pitch": 69, "duration": 16, "velocity": 86}, {"time": 2963, "pitch": 54, "duration": 10, "velocity": 85}, {"time": 2969, "pitch": 61, "duration": 14, "velocity": 93}, {"time": 2969, "pitch": 66, "duration": 14, "velocity": 102}, {"time": 2969, "pitch": 69, "duration": 14, "velocity": 91}, {"time": 2981, "pitch": 54, "duration": 15, "velocity": 88}, {"time": 2987, "pitch": 61, "duration": 9, "velocity": 88}, {"time": 2987, "pitch": 66, "duration": 9, "velocity": 89}, {"time": 2987, "pitch": 69, "duration": 9, "velocity": 85}, {"time": 2999, "pitch": 42, "duration": 45, "velocity": 98}, {"time": 2999, "pitch": 61, "duration": 10, "velocity": 96}, {"time": 2999, "pitch": 66, "duration": 11, "velocity": 98}, {"time": 2999, "pitch": 69, "duration": 10, "velocity": 89}, {"time": 3005, "pitch": 54, "duration": 11, "velocity": 74}, {"time": 3011, "pitch": 61, "duration": 3, "velocity": 88}, {"time": 3011, "pitch": 66, "duration": 3, "velocity": 88}, {"time": 3011, "pitch": 69, "duration": 3, "velocity": 85}, {"time": 3017, "pitch": 61, "duration": 13, "velocity": 110}, {"time": 3017, "pitch": 66, "duration": 14, "velocity": 117}, {"time": 3017, "pitch": 69, "duration": 13, "velocity": 113}, {"time": 3029, "pitch": 54, "duration": 8, "velocity": 110}, {"time": 3035, "pitch": 61, "duration": 12, "velocity": 108}, {"time": 3035, "pitch": 66, "duration": 13, "velocity": 116}, {"time": 3035, "pitch": 69, "duration": 13, "velocity": 113}, {"time": 3041, "pitch": 54, "duration": 6, "velocity": 89}, {"time": 3047, "pitch": 42, "duration": 45, "velocity": 107}, {"time": 3059, "pitch": 54, "duration": 8, "velocity": 86}, {"time": 3059, "pitch": 65, "duration": 2, "velocity": 70}, {"time": 3065, "pitch": 61, "duration": 13, "velocity": 104}, {"time": 3065, "pitch": 66, "duration": 13, "velocity": 116}, {"time": 3065, "pitch": 69, "duration": 13, "velocity": 106}, {"time": 3077, "pitch": 54, "duration": 7, "velocity": 107}, {"time": 3083, "pitch": 61, "duration": 9, "velocity": 114}, {"time": 3083, "pitch": 66, "duration": 9, "velocity": 117}, {"time": 3083, "pitch": 69, "duration": 9, "velocity": 116}, {"time": 3089, "pitch": 54, "duration": 3, "velocity": 94}, {"time": 3095, "pitch": 42, "duration": 5, "velocity": 107}, {"time": 3095, "pitch": 61, "duration": 5, "velocity": 107}, {"time": 3095, "pitch": 66, "duration": 5, "velocity": 114}, {"time": 3095, "pitch": 69, "duration": 4, "velocity": 106}, {"time": 3104, "pitch": 42, "duration": 5, "velocity": 107}, {"time": 3104, "pitch": 61, "duration": 5, "velocity": 102}, {"time": 3104, "pitch": 66, "duration": 5, "velocity": 107}, {"time": 3104, "pitch": 69, "duration": 5, "velocity": 106}, {"time": 3113, "pitch": 42, "duration": 20, "velocity": 113}, {"time": 3113, "pitch": 61, "duration": 14, "velocity": 114}, {"time": 3113, "pitch": 66, "duration": 14, "velocity": 116}, {"time": 3113, "pitch": 69, "duration": 14, "velocity": 116}, {"time": 3125, "pitch": 54, "duration": 6, "velocity": 108}, {"time": 3131, "pitch": 61, "duration": 5, "velocity": 116}, {"time": 3131, "pitch": 66, "duration": 6, "velocity": 117}, {"time": 3131, "pitch": 69, "duration": 6, "velocity": 113}, {"time": 3143, "pitch": 42, "duration": 43, "velocity": 92}, {"time": 3143, "pitch": 61, "duration": 14, "velocity": 92}, {"time": 3143, "pitch": 66, "duration": 14, "velocity": 94}, {"time": 3143, "pitch": 69, "duration": 14, "velocity": 89}, {"time": 3155, "pitch": 54, "duration": 16, "velocity": 83}, {"time": 3161, "pitch": 61, "duration": 27, "velocity": 98}, {"time": 3161, "pitch": 66, "duration": 27, "velocity": 100}, {"time": 3161, "pitch": 69, "duration": 27, "velocity": 90}, {"time": 3179, "pitch": 54, "duration": 12, "velocity": 88}, {"time": 3191, "pitch": 42, "duration": 37, "velocity": 92}, {"time": 3191, "pitch": 61, "duration": 14, "velocity": 98}, {"time": 3191, "pitch": 66, "duration": 15, "velocity": 98}, {"time": 3191, "pitch": 69, "duration": 14, "velocity": 90}, {"time": 3203, "pitch": 54, "duration": 10, "velocity": 88}, {"time": 3209, "pitch": 61, "duration": 14, "velocity": 98}, {"time": 3209, "pitch": 66, "duration": 15, "velocity": 102}, {"time": 3209, "pitch": 69, "duration": 14, "velocity": 89}, {"time": 3221, "pitch": 54, "duration": 8, "velocity": 93}, {"time": 3227, "pitch": 61, "duration": 8, "velocity": 96}, {"time": 3227, "pitch": 66, "duration": 9, "velocity": 108}, {"time": 3227, "pitch": 69, "duration": 8, "velocity": 100}, {"time": 3239, "pitch": 45, "duration": 42, "velocity": 89}, {"time": 3239, "pitch": 61, "duration": 15, "velocity": 96}, {"time": 3239, "pitch": 64, "duration": 15, "velocity": 107}, {"time": 3239, "pitch": 69, "duration": 15, "velocity": 91}, {"time": 3248, "pitch": 57, "duration": 17, "velocity": 83}, {"time": 3257, "pitch": 61, "duration": 21, "velocity": 100}, {"time": 3257, "pitch": 64, "duration": 23, "velocity": 107}, {"time": 3257, "pitch": 69, "duration": 22, "velocity": 91}, {"time": 3275, "pitch": 57, "duration": 13, "velocity": 89}, {"time": 3287, "pitch": 45, "duration": 39, "velocity": 91}, {"time": 3287, "pitch": 61, "duration": 17, "velocity": 100}, {"time": 3287, "pitch": 69, "duration": 32, "velocity": 93}, {"time": 3299, "pitch": 57, "duration": 14, "velocity": 81}, {"time": 3305, "pitch": 61, "duration": 14, "velocity": 87}, {"time": 3305, "pitch": 64, "duration": 15, "velocity": 117}, {"time": 3317, "pitch": 57, "duration": 7, "velocity": 91}, {"time": 3323, "pitch": 61, "duration": 12, "velocity": 104}, {"time": 3323, "pitch": 69, "duration": 11, "velocity": 86}, {"time": 3329, "pitch": 64, "duration": 6, "velocity": 89}, {"time": 3335, "pitch": 40, "duration": 44, "velocity": 110}, {"time": 3341, "pitch": 52, "duration": 19, "velocity": 88}, {"time": 3347, "pitch": 56, "duration": 4, "velocity": 81}, {"time": 3353, "pitch": 56, "duration": 15, "velocity": 91}, {"time": 3353, "pitch": 64, "duration": 15, "velocity": 113}, {"time": 3365, "pitch": 52, "duration": 15, "velocity": 98}, {"time": 3371, "pitch": 59, "duration": 10, "velocity": 98}, {"time": 3371, "pitch": 64, "duration": 7, "velocity": 86}, {"time": 3383, "pitch": 40, "duration": 39, "velocity": 100}, {"time": 3383, "pitch": 56, "duration": 14, "velocity": 98}, {"time": 3383, "pitch": 59, "duration": 15, "velocity": 92}, {"time": 3383, "pitch": 64, "duration": 13, "velocity": 100}, {"time": 3395, "pitch": 52, "duration": 10, "velocity": 89}, {"time": 3401, "pitch": 56, "duration": 14, "velocity": 98}, {"time": 3401, "pitch": 59, "duration": 14, "velocity": 104}, {"time": 3401, "pitch": 64, "duration": 13, "velocity": 98}, {"time": 3410, "pitch": 52, "duration": 15, "velocity": 96}, {"time": 3419, "pitch": 56, "duration": 9, "velocity": 91}, {"time": 3419, "pitch": 59, "duration": 13, "velocity": 98}, {"time": 3419, "pitch": 64, "duration": 9, "velocity": 93}, {"time": 3431, "pitch": 42, "duration": 44, "velocity": 107}, {"time": 3437, "pitch": 49, "duration": 40, "velocity": 87}, {"time": 3443, "pitch": 54, "duration": 14, "velocity": 102}, {"time": 3449, "pitch": 57, "duration": 25, "velocity": 109}, {"time": 3449, "pitch": 61, "duration": 26, "velocity": 117}, {"time": 3449, "pitch": 66, "duration": 26, "velocity": 113}, {"time": 3467, "pitch": 54, "duration": 10, "velocity": 92}, {"time": 3479, "pitch": 42, "duration": 43, "velocity": 91}, {"time": 3479, "pitch": 57, "duration": 11, "velocity": 91}, {"time": 3479, "pitch": 61, "duration": 12, "velocity": 108}, {"time": 3479, "pitch": 66, "duration": 11, "velocity": 110}, {"time": 3488, "pitch": 54, "duration": 11, "velocity": 83}, {"time": 3497, "pitch": 57, "duration": 13, "velocity": 91}, {"time": 3497, "pitch": 61, "duration": 13, "velocity": 104}, {"time": 3497, "pitch": 66, "duration": 13, "velocity": 113}, {"time": 3509, "pitch": 54, "duration": 8, "velocity": 108}, {"time": 3515, "pitch": 57, "duration": 7, "velocity": 93}, {"time": 3515, "pitch": 61, "duration": 9, "velocity": 104}, {"time": 3515, "pitch": 66, "duration": 7, "velocity": 107}, {"time": 3521, "pitch": 54, "duration": 4, "velocity": 91}, {"time": 3527, "pitch": 42, "duration": 44, "velocity": 100}, {"time": 3527, "pitch": 57, "duration": 14, "velocity": 97}, {"time": 3527, "pitch": 61, "duration": 14, "velocity": 108}, {"time": 3527, "pitch": 66, "duration": 14, "velocity": 110}, {"time": 3539, "pitch": 54, "duration": 12, "velocity": 91}, {"time": 3545, "pitch": 57, "duration": 14, "velocity": 95}, {"time": 3545, "pitch": 61, "duration": 14, "velocity": 108}, {"time": 3545, "pitch": 66, "duration": 14, "velocity": 113}, {"time": 3557, "pitch": 54, "duration": 13, "velocity": 100}, {"time": 3563, "pitch": 57, "duration": 8, "velocity": 97}, {"time": 3563, "pitch": 61, "duration": 8, "velocity": 93}, {"time": 3563, "pitch": 66, "duration": 7, "velocity": 102}, {"time": 3575, "pitch": 42, "duration": 37, "velocity": 94}, {"time": 3575, "pitch": 57, "duration": 12, "velocity": 89}, {"time": 3575, "pitch": 61, "duration": 13, "velocity": 102}, {"time": 3575, "pitch": 66, "duration": 11, "velocity": 104}, {"time": 3587, "pitch": 54, "duration": 10, "velocity": 92}, {"time": 3593, "pitch": 57, "duration": 13, "velocity": 97}, {"time": 3593, "pitch": 61, "duration": 14, "velocity": 113}, {"time": 3593, "pitch": 66, "duration": 12, "velocity": 116}, {"time": 3605, "pitch": 54, "duration": 9, "velocity": 93}, {"time": 3611, "pitch": 57, "duration": 5, "velocity": 103}, {"time": 3611, "pitch": 61, "duration": 10, "velocity": 108}, {"time": 3611, "pitch": 66, "duration": 5, "velocity": 116}, {"time": 3623, "pitch": 45, "duration": 43, "velocity": 90}, {"time": 3623, "pitch": 61, "duration": 16, "velocity": 113}, {"time": 3623, "pitch": 64, "duration": 15, "velocity": 113}, {"time": 3635, "pitch": 57, "duration": 14, "velocity": 86}, {"time": 3641, "pitch": 61, "duration": 21, "velocity": 113}, {"time": 3641, "pitch": 64, "duration": 20, "velocity": 113}, {"time": 3659, "pitch": 57, "duration": 14, "velocity": 89}, {"time": 3665, "pitch": 61, "duration": 5, "velocity": 88}, {"time": 3665, "pitch": 64, "duration": 4, "velocity": 87}, {"time": 3671, "pitch": 45, "duration": 38, "velocity": 95}, {"time": 3671, "pitch": 61, "duration": 16, "velocity": 104}, {"time": 3671, "pitch": 64, "duration": 16, "velocity": 102}, {"time": 3683, "pitch": 57, "duration": 14, "velocity": 84}, {"time": 3689, "pitch": 61, "duration": 15, "velocity": 107}, {"time": 3689, "pitch": 64, "duration": 14, "velocity": 107}, {"time": 3701, "pitch": 57, "duration": 7, "velocity": 106}, {"time": 3707, "pitch": 61, "duration": 4, "velocity": 110}, {"time": 3707, "pitch": 64, "duration": 5, "velocity": 116}, {"time": 3719, "pitch": 40, "duration": 45, "velocity": 93}, {"time": 3719, "pitch": 56, "duration": 16, "velocity": 91}, {"time": 3719, "pitch": 59, "duration": 16, "velocity": 102}, {"time": 3719, "pitch": 64, "duration": 12, "velocity": 102}, {"time": 3731, "pitch": 52, "duration": 12, "velocity": 85}, {"time": 3737, "pitch": 56, "duration": 28, "velocity": 96}, {"time": 3737, "pitch": 59, "duration": 28, "velocity": 108}, {"time": 3737, "pitch": 64, "duration": 27, "velocity": 113}, {"time": 3755, "pitch": 52, "duration": 11, "velocity": 91}, {"time": 3767, "pitch": 40, "duration": 43, "velocity": 88}, {"time": 3767, "pitch": 56, "duration": 15, "velocity": 93}, {"time": 3767, "pitch": 59, "duration": 16, "velocity": 100}, {"time": 3767, "pitch": 64, "duration": 14, "velocity": 104}, {"time": 3779, "pitch": 52, "duration": 10, "velocity": 89}, {"time": 3785, "pitch": 56, "duration": 15, "velocity": 93}, {"time": 3785, "pitch": 59, "duration": 16, "velocity": 107}, {"time": 3785, "pitch": 64, "duration": 14, "velocity": 107}, {"time": 3797, "pitch": 52, "duration": 7, "velocity": 100}, {"time": 3803, "pitch": 56, "duration": 4, "velocity": 90}, {"time": 3803, "pitch": 59, "duration": 4, "velocity": 102}, {"time": 3803, "pitch": 64, "duration": 4, "velocity": 102}, {"time": 3809, "pitch": 52, "duration": 5, "velocity": 88}, {"time": 3815, "pitch": 42, "duration": 45, "velocity": 91}, {"time": 3815, "pitch": 57, "duration": 14, "velocity": 88}, {"time": 3815, "pitch": 61, "duration": 13, "velocity": 96}, {"time": 3815, "pitch": 66, "duration": 11, "velocity": 104}, {"time": 3827, "pitch": 54, "duration": 8, "velocity": 89}, {"time": 3833, "pitch": 57, "duration": 15, "velocity": 95}, {"time": 3833, "pitch": 61, "duration": 15, "velocity": 108}, {"time": 3833, "pitch": 66, "duration": 14, "velocity": 108}, {"time": 3845, "pitch": 54, "duration": 15, "velocity": 96}, {"time": 3851, "pitch": 57, "duration": 8, "velocity": 86}, {"time": 3851, "pitch": 61, "duration": 8, "velocity": 92}, {"time": 3851, "pitch": 66, "duration": 6, "velocity": 88}, {"time": 3863, "pitch": 42, "duration": 42, "velocity": 98}, {"time": 3863, "pitch": 57, "duration": 13, "velocity": 97}, {"time": 3863, "pitch": 61, "duration": 13, "velocity": 108}, {"time": 3863, "pitch": 66, "duration": 12, "velocity": 107}, {"time": 3875, "pitch": 54, "duration": 12, "velocity": 88}, {"time": 3881, "pitch": 57, "duration": 13, "velocity": 95}, {"time": 3881, "pitch": 61, "duration": 13, "velocity": 108}, {"time": 3881, "pitch": 66, "duration": 13, "velocity": 114}, {"time": 3893, "pitch": 54, "duration": 11, "velocity": 98}, {"time": 3899, "pitch": 57, "duration": 7, "velocity": 97}, {"time": 3899, "pitch": 61, "duration": 8, "velocity": 104}, {"time": 3899, "pitch": 66, "duration": 8, "velocity": 108}, {"time": 3911, "pitch": 45, "duration": 38, "velocity": 97}, {"time": 3911, "pitch": 61, "duration": 16, "velocity": 100}, {"time": 3911, "pitch": 64, "duration": 16, "velocity": 108}, {"time": 3911, "pitch": 69, "duration": 16, "velocity": 91}, {"time": 3923, "pitch": 57, "duration": 14, "velocity": 84}, {"time": 3929, "pitch": 61, "duration": 13, "velocity": 102}, {"time": 3929, "pitch": 64, "duration": 15, "velocity": 107}, {"time": 3929, "pitch": 69, "duration": 14, "velocity": 95}, {"time": 3941, "pitch": 57, "duration": 6, "velocity": 109}, {"time": 3947, "pitch": 61, "duration": 8, "velocity": 104}, {"time": 3947, "pitch": 64, "duration": 11, "velocity": 108}, {"time": 3947, "pitch": 69, "duration": 7, "velocity": 95}, {"time": 3959, "pitch": 40, "duration": 39, "velocity": 98}, {"time": 3959, "pitch": 59, "duration": 16, "velocity": 94}, {"time": 3959, "pitch": 64, "duration": 13, "velocity": 102}, {"time": 3959, "pitch": 68, "duration": 15, "velocity": 108}, {"time": 3971, "pitch": 52, "duration": 10, "velocity": 88}, {"time": 3977, "pitch": 59, "duration": 15, "velocity": 104}, {"time": 3977, "pitch": 64, "duration": 15, "velocity": 116}, {"time": 3977, "pitch": 68, "duration": 15, "velocity": 104}, {"time": 3989, "pitch": 52, "duration": 8, "velocity": 104}, {"time": 3995, "pitch": 59, "duration": 7, "velocity": 102}, {"time": 3995, "pitch": 64, "duration": 8, "velocity": 100}, {"time": 3995, "pitch": 68, "duration": 8, "velocity": 90}, {"time": 4007, "pitch": 47, "duration": 37, "velocity": 90}, {"time": 4007, "pitch": 62, "duration": 14, "velocity": 100}, {"time": 4007, "pitch": 66, "duration": 14, "velocity": 98}, {"time": 4007, "pitch": 71, "duration": 13, "velocity": 104}, {"time": 4019, "pitch": 59, "duration": 11, "velocity": 85}, {"time": 4025, "pitch": 62, "duration": 13, "velocity": 100}, {"time": 4025, "pitch": 66, "duration": 13, "velocity": 110}, {"time": 4025, "pitch": 71, "duration": 13, "velocity": 110}, {"time": 4037, "pitch": 59, "duration": 7, "velocity": 89}, {"time": 4043, "pitch": 62, "duration": 6, "velocity": 93}, {"time": 4043, "pitch": 66, "duration": 7, "velocity": 96}, {"time": 4043, "pitch": 71, "duration": 6, "velocity": 104}, {"time": 4055, "pitch": 42, "duration": 35, "velocity": 87}, {"time": 4055, "pitch": 57, "duration": 14, "velocity": 93}, {"time": 4055, "pitch": 61, "duration": 15, "velocity": 100}, {"time": 4055, "pitch": 66, "duration": 11, "velocity": 108}, {"time": 4067, "pitch": 54, "duration": 11, "velocity": 86}, {"time": 4073, "pitch": 57, "duration": 13, "velocity": 95}, {"time": 4073, "pitch": 61, "duration": 13, "velocity": 113}, {"time": 4073, "pitch": 66, "duration": 11, "velocity": 113}, {"time": 4085, "pitch": 54, "duration": 7, "velocity": 102}, {"time": 4091, "pitch": 57, "duration": 5, "velocity": 97}, {"time": 4091, "pitch": 61, "duration": 10, "velocity": 114}, {"time": 4091, "pitch": 66, "duration": 6, "velocity": 113}, {"time": 4103, "pitch": 45, "duration": 38, "velocity": 97}, {"time": 4103, "pitch": 61, "duration": 15, "velocity": 102}, {"time": 4103, "pitch": 64, "duration": 15, "velocity": 104}, {"time": 4115, "pitch": 57, "duration": 11, "velocity": 90}, {"time": 4121, "pitch": 61, "duration": 15, "velocity": 108}, {"time": 4121, "pitch": 64, "duration": 15, "velocity": 113}, {"time": 4133, "pitch": 57, "duration": 8, "velocity": 103}, {"time": 4139, "pitch": 61, "duration": 6, "velocity": 114}, {"time": 4139, "pitch": 64, "duration": 7, "velocity": 116}, {"time": 4151, "pitch": 40, "duration": 38, "velocity": 90}, {"time": 4151, "pitch": 59, "duration": 15, "velocity": 92}, {"time": 4151, "pitch": 64, "duration": 15, "velocity": 104}, {"time": 4151, "pitch": 68, "duration": 15, "velocity": 93}, {"time": 4163, "pitch": 52, "duration": 14, "velocity": 88}, {"time": 4169, "pitch": 59, "duration": 14, "velocity": 100}, {"time": 4169, "pitch": 64, "duration": 15, "velocity": 104}, {"time": 4169, "pitch": 68, "duration": 14, "velocity": 91}, {"time": 4181, "pitch": 52, "duration": 8, "velocity": 96}, {"time": 4187, "pitch": 59, "duration": 9, "velocity": 94}, {"time": 4187, "pitch": 64, "duration": 9, "velocity": 107}, {"time": 4187, "pitch": 68, "duration": 7, "velocity": 91}, {"time": 4199, "pitch": 38, "duration": 37, "velocity": 109}, {"time": 4199, "pitch": 62, "duration": 13, "velocity": 100}, {"time": 4199, "pitch": 66, "duration": 13, "velocity": 114}, {"time": 4199, "pitch": 69, "duration": 14, "velocity": 113}, {"time": 4211, "pitch": 50, "duration": 9, "velocity": 100}, {"time": 4217, "pitch": 62, "duration": 12, "velocity": 103}, {"time": 4217, "pitch": 66, "duration": 13, "velocity": 117}, {"time": 4217, "pitch": 69, "duration": 13, "velocity": 113}, {"time": 4229, "pitch": 50, "duration": 9, "velocity": 116}, {"time": 4235, "pitch": 62, "duration": 3, "velocity": 109}, {"time": 4235, "pitch": 66, "duration": 3, "velocity": 116}, {"time": 4235, "pitch": 69, "duration": 3, "velocity": 109}, {"time": 4247, "pitch": 40, "duration": 27, "velocity": 113}, {"time": 4247, "pitch": 59, "duration": 16, "velocity": 113}, {"time": 4247, "pitch": 64, "duration": 15, "velocity": 116}, {"time": 4247, "pitch": 68, "duration": 15, "velocity": 114}, {"time": 4259, "pitch": 52, "duration": 10, "velocity": 102}, {"time": 4265, "pitch": 59, "duration": 13, "velocity": 116}, {"time": 4265, "pitch": 64, "duration": 13, "velocity": 123}, {"time": 4265, "pitch": 68, "duration": 13, "velocity": 114}, {"time": 4277, "pitch": 40, "duration": 7, "velocity": 108}, {"time": 4277, "pitch": 52, "duration": 7, "velocity": 117}, {"time": 4283, "pitch": 59, "duration": 8, "velocity": 114}, {"time": 4283, "pitch": 64, "duration": 8, "velocity": 116}, {"time": 4283, "pitch": 68, "duration": 8, "velocity": 113}, {"time": 4295, "pitch": 42, "duration": 38, "velocity": 100}, {"time": 4295, "pitch": 57, "duration": 13, "velocity": 106}, {"time": 4295, "pitch": 61, "duration": 13, "velocity": 117}, {"time": 4295, "pitch": 66, "duration": 12, "velocity": 114}, {"time": 4307, "pitch": 54, "duration": 11, "velocity": 98}, {"time": 4313, "pitch": 57, "duration": 13, "velocity": 106}, {"time": 4313, "pitch": 61, "duration": 13, "velocity": 119}, {"time": 4313, "pitch": 66, "duration": 13, "velocity": 117}, {"time": 4325, "pitch": 54, "duration": 8, "velocity": 108}, {"time": 4331, "pitch": 57, "duration": 6, "velocity": 109}, {"time": 4331, "pitch": 61, "duration": 9, "velocity": 116}, {"time": 4331, "pitch": 66, "duration": 7, "velocity": 117}, {"time": 4343, "pitch": 45, "duration": 24, "velocity": 100}, {"time": 4343, "pitch": 61, "duration": 16, "velocity": 110}, {"time": 4343, "pitch": 64, "duration": 15, "velocity": 114}, {"time": 4355, "pitch": 57, "duration": 12, "velocity": 106}, {"time": 4361, "pitch": 61, "duration": 14, "velocity": 114}, {"time": 4361, "pitch": 64, "duration": 13, "velocity": 117}, {"time": 4373, "pitch": 45, "duration": 7, "velocity": 109}, {"time": 4373, "pitch": 57, "duration": 6, "velocity": 109}, {"time": 4379, "pitch": 61, "duration": 10, "velocity": 117}, {"time": 4379, "pitch": 64, "duration": 8, "velocity": 117}, {"time": 4391, "pitch": 40, "duration": 39, "velocity": 107}, {"time": 4391, "pitch": 52, "duration": 9, "velocity": 92}, {"time": 4391, "pitch": 59, "duration": 14, "velocity": 104}, {"time": 4391, "pitch": 64, "duration": 15, "velocity": 113}, {"time": 4391, "pitch": 68, "duration": 14, "velocity": 108}, {"time": 4403, "pitch": 52, "duration": 13, "velocity": 107}, {"time": 4409, "pitch": 59, "duration": 14, "velocity": 110}, {"time": 4409, "pitch": 64, "duration": 14, "velocity": 114}, {"time": 4409, "pitch": 68, "duration": 14, "velocity": 110}, {"time": 4421, "pitch": 52, "duration": 10, "velocity": 110}, {"time": 4427, "pitch": 59, "duration": 8, "velocity": 108}, {"time": 4427, "pitch": 64, "duration": 8, "velocity": 113}, {"time": 4427, "pitch": 68, "duration": 9, "velocity": 108}, {"time": 4439, "pitch": 47, "duration": 12, "velocity": 102}, {"time": 4439, "pitch": 59, "duration": 15, "velocity": 92}, {"time": 4439, "pitch": 62, "duration": 21, "velocity": 109}, {"time": 4439, "pitch": 66, "duration": 19, "velocity": 94}, {"time": 4463, "pitch": 37, "duration": 12, "velocity": 94}, {"time": 4463, "pitch": 49, "duration": 13, "velocity": 98}, {"time": 4463, "pitch": 56, "duration": 15, "velocity": 104}, {"time": 4463, "pitch": 61, "duration": 18, "velocity": 110}, {"time": 4463, "pitch": 65, "duration": 17, "velocity": 97}, {"time": 4487, "pitch": 42, "duration": 38, "velocity": 96}, {"time": 4487, "pitch": 57, "duration": 13, "velocity": 103}, {"time": 4487, "pitch": 61, "duration": 13, "velocity": 104}, {"time": 4487, "pitch": 66, "duration": 13, "velocity": 108}, {"time": 4499, "pitch": 54, "duration": 11, "velocity": 88}, {"time": 4505, "pitch": 57, "duration": 13, "velocity": 93}, {"time": 4505, "pitch": 61, "duration": 13, "velocity": 110}, {"time": 4505, "pitch": 66, "duration": 13, "velocity": 110}, {"time": 4517, "pitch": 54, "duration": 8, "velocity": 104}, {"time": 4523, "pitch": 57, "duration": 5, "velocity": 100}, {"time": 4523, "pitch": 61, "duration": 9, "velocity": 113}, {"time": 4523, "pitch": 66, "duration": 6, "velocity": 114}, {"time": 4535, "pitch": 45, "duration": 26, "velocity": 91}, {"time": 4535, "pitch": 57, "duration": 10, "velocity": 91}, {"time": 4535, "pitch": 61, "duration": 16, "velocity": 107}, {"time": 4535, "pitch": 64, "duration": 16, "velocity": 104}, {"time": 4547, "pitch": 57, "duration": 13, "velocity": 103}, {"time": 4553, "pitch": 61, "duration": 14, "velocity": 110}, {"time": 4553, "pitch": 64, "duration": 14, "velocity": 114}, {"time": 4565, "pitch": 45, "duration": 8, "velocity": 100}, {"time": 4565, "pitch": 57, "duration": 6, "velocity": 106}, {"time": 4571, "pitch": 61, "duration": 9, "velocity": 116}, {"time": 4571, "pitch": 64, "duration": 8, "velocity": 116}, {"time": 4583, "pitch": 40, "duration": 39, "velocity": 91}, {"time": 4583, "pitch": 52, "duration": 8, "velocity": 96}, {"time": 4583, "pitch": 59, "duration": 15, "velocity": 100}, {"time": 4583, "pitch": 64, "duration": 15, "velocity": 110}, {"time": 4583, "pitch": 68, "duration": 15, "velocity": 108}, {"time": 4592, "pitch": 52, "duration": 12, "velocity": 92}, {"time": 4601, "pitch": 59, "duration": 14, "velocity": 104}, {"time": 4601, "pitch": 64, "duration": 14, "velocity": 110}, {"time": 4601, "pitch": 68, "duration": 14, "velocity": 108}, {"time": 4613, "pitch": 52, "duration": 10, "velocity": 114}, {"time": 4619, "pitch": 59, "duration": 6, "velocity": 107}, {"time": 4619, "pitch": 64, "duration": 5, "velocity": 114}, {"time": 4619, "pitch": 68, "duration": 4, "velocity": 108}, {"time": 4631, "pitch": 35, "duration": 10, "velocity": 98}, {"time": 4631, "pitch": 47, "duration": 10, "velocity": 107}, {"time": 4631, "pitch": 62, "duration": 15, "velocity": 100}, {"time": 4631, "pitch": 66, "duration": 15, "velocity": 104}, {"time": 4631, "pitch": 71, "duration": 15, "velocity": 104}, {"time": 4643, "pitch": 35, "duration": 3, "velocity": 90}, {"time": 4643, "pitch": 47, "duration": 3, "velocity": 102}, {"time": 4655, "pitch": 42, "duration": 11, "velocity": 92}, {"time": 4655, "pitch": 54, "duration": 10, "velocity": 91}, {"time": 4655, "pitch": 61, "duration": 15, "velocity": 96}, {"time": 4655, "pitch": 66, "duration": 15, "velocity": 110}, {"time": 4655, "pitch": 69, "duration": 15, "velocity": 88}, {"time": 4667, "pitch": 42, "duration": 6, "velocity": 87}, {"time": 4667, "pitch": 54, "duration": 6, "velocity": 102}, {"time": 4673, "pitch": 61, "duration": 6, "velocity": 102}, {"time": 4673, "pitch": 66, "duration": 7, "velocity": 117}, {"time": 4673, "pitch": 69, "duration": 8, "velocity": 109}, {"time": 4679, "pitch": 42, "duration": 38, "velocity": 100}, {"time": 4679, "pitch": 57, "duration": 13, "velocity": 106}, {"time": 4679, "pitch": 61, "duration": 13, "velocity": 117}, {"time": 4679, "pitch": 66, "duration": 1, "velocity": 114}, {"time": 4691, "pitch": 54, "duration": 11, "velocity": 98}, {"time": 4697, "pitch": 57, "duration": 13, "velocity": 106}, {"time": 4697, "pitch": 61, "duration": 13, "velocity": 119}, {"time": 4697, "pitch": 66, "duration": 13, "velocity": 117}, {"time": 4709, "pitch": 54, "duration": 8, "velocity": 108}, {"time": 4715, "pitch": 57, "duration": 6, "velocity": 109}, {"time": 4715, "pitch": 61, "duration": 9, "velocity": 116}, {"time": 4715, "pitch": 66, "duration": 7, "velocity": 117}, {"time": 4727, "pitch": 45, "duration": 24, "velocity": 100}, {"time": 4727, "pitch": 61, "duration": 16, "velocity": 110}, {"time": 4727, "pitch": 64, "duration": 15, "velocity": 114}, {"time": 4739, "pitch": 57, "duration": 12, "velocity": 106}, {"time": 4745, "pitch": 61, "duration": 14, "velocity": 114}, {"time": 4745, "pitch": 64, "duration": 13, "velocity": 117}, {"time": 4757, "pitch": 45, "duration": 7, "velocity": 109}, {"time": 4757, "pitch": 57, "duration": 6, "velocity": 109}, {"time": 4763, "pitch": 61, "duration": 10, "velocity": 117}, {"time": 4763, "pitch": 64, "duration": 8, "velocity": 117}, {"time": 4775, "pitch": 40, "duration": 39, "velocity": 107}, {"time": 4775, "pitch": 52, "duration": 9, "velocity": 92}, {"time": 4775, "pitch": 59, "duration": 14, "velocity": 104}, {"time": 4775, "pitch": 64, "duration": 15, "velocity": 113}, {"time": 4775, "pitch": 68, "duration": 14, "velocity": 108}, {"time": 4787, "pitch": 52, "duration": 13, "velocity": 107}, {"time": 4793, "pitch": 59, "duration": 14, "velocity": 110}, {"time": 4793, "pitch": 64, "duration": 14, "velocity": 114}, {"time": 4793, "pitch": 68, "duration": 14, "velocity": 110}, {"time": 4805, "pitch": 52, "duration": 10, "velocity": 110}, {"time": 4811, "pitch": 59, "duration": 8, "velocity": 108}, {"time": 4811, "pitch": 64, "duration": 8, "velocity": 113}, {"time": 4811, "pitch": 68, "duration": 9, "velocity": 108}, {"time": 4823, "pitch": 47, "duration": 12, "velocity": 102}, {"time": 4823, "pitch": 59, "duration": 15, "velocity": 92}, {"time": 4823, "pitch": 62, "duration": 21, "velocity": 109}, {"time": 4823, "pitch": 66, "duration": 19, "velocity": 94}, {"time": 4847, "pitch": 37, "duration": 12, "velocity": 94}, {"time": 4847, "pitch": 49, "duration": 13, "velocity": 98}, {"time": 4847, "pitch": 56, "duration": 15, "velocity": 104}, {"time": 4847, "pitch": 61, "duration": 18, "velocity": 110}, {"time": 4847, "pitch": 65, "duration": 17, "velocity": 97}, {"time": 4871, "pitch": 42, "duration": 38, "velocity": 96}, {"time": 4871, "pitch": 57, "duration": 13, "velocity": 103}, {"time": 4871, "pitch": 61, "duration": 13, "velocity": 104}, {"time": 4871, "pitch": 66, "duration": 13, "velocity": 108}, {"time": 4883, "pitch": 54, "duration": 11, "velocity": 88}, {"time": 4889, "pitch": 57, "duration": 13, "velocity": 93}, {"time": 4889, "pitch": 61, "duration": 13, "velocity": 110}, {"time": 4889, "pitch": 66, "duration": 13, "velocity": 110}, {"time": 4901, "pitch": 54, "duration": 8, "velocity": 104}, {"time": 4907, "pitch": 57, "duration": 5, "velocity": 100}, {"time": 4907, "pitch": 61, "duration": 9, "velocity": 113}, {"time": 4907, "pitch": 66, "duration": 6, "velocity": 114}, {"time": 4919, "pitch": 45, "duration": 26, "velocity": 91}, {"time": 4919, "pitch": 57, "duration": 10, "velocity": 91}, {"time": 4919, "pitch": 61, "duration": 16, "velocity": 107}, {"time": 4919, "pitch": 64, "duration": 16, "velocity": 104}, {"time": 4931, "pitch": 57, "duration": 13, "velocity": 103}, {"time": 4937, "pitch": 61, "duration": 14, "velocity": 110}, {"time": 4937, "pitch": 64, "duration": 14, "velocity": 114}, {"time": 4949, "pitch": 45, "duration": 8, "velocity": 100}, {"time": 4949, "pitch": 57, "duration": 6, "velocity": 106}, {"time": 4955, "pitch": 61, "duration": 9, "velocity": 116}, {"time": 4955, "pitch": 64, "duration": 8, "velocity": 116}, {"time": 4967, "pitch": 40, "duration": 39, "velocity": 91}, {"time": 4967, "pitch": 52, "duration": 8, "velocity": 96}, {"time": 4967, "pitch": 59, "duration": 15, "velocity": 100}, {"time": 4967, "pitch": 64, "duration": 15, "velocity": 110}, {"time": 4967, "pitch": 68, "duration": 15, "velocity": 108}, {"time": 4976, "pitch": 52, "duration": 12, "velocity": 92}, {"time": 4985, "pitch": 59, "duration": 14, "velocity": 104}, {"time": 4985, "pitch": 64, "duration": 14, "velocity": 110}, {"time": 4985, "pitch": 68, "duration": 14, "velocity": 108}, {"time": 4997, "pitch": 52, "duration": 10, "velocity": 114}, {"time": 5003, "pitch": 59, "duration": 6, "velocity": 107}, {"time": 5003, "pitch": 64, "duration": 5, "velocity": 114}, {"time": 5003, "pitch": 68, "duration": 4, "velocity": 108}, {"time": 5015, "pitch": 35, "duration": 10, "velocity": 98}, {"time": 5015, "pitch": 47, "duration": 10, "velocity": 107}, {"time": 5015, "pitch": 62, "duration": 15, "velocity": 100}, {"time": 5015, "pitch": 66, "duration": 15, "velocity": 104}, {"time": 5015, "pitch": 71, "duration": 15, "velocity": 104}, {"time": 5027, "pitch": 35, "duration": 3, "velocity": 90}, {"time": 5027, "pitch": 47, "duration": 3, "velocity": 102}, {"time": 5039, "pitch": 42, "duration": 11, "velocity": 92}, {"time": 5039, "pitch": 54, "duration": 10, "velocity": 91}, {"time": 5039, "pitch": 61, "duration": 15, "velocity": 96}, {"time": 5039, "pitch": 66, "duration": 15, "velocity": 110}, {"time": 5039, "pitch": 69, "duration": 15, "velocity": 88}, {"time": 5051, "pitch": 42, "duration": 6, "velocity": 87}, {"time": 5051, "pitch": 54, "duration": 6, "velocity": 102}, {"time": 5057, "pitch": 61, "duration": 6, "velocity": 102}, {"time": 5057, "pitch": 66, "duration": 7, "velocity": 117}, {"time": 5057, "pitch": 69, "duration": 8, "velocity": 109}, {"time": 5060, "pitch": 42, "duration": 45, "velocity": 86}, {"time": 5060, "pitch": 54, "duration": 13, "velocity": 87}, {"time": 5060, "pitch": 61, "duration": 3, "velocity": 92}, {"time": 5060, "pitch": 66, "duration": 4, "velocity": 89}, {"time": 5060, "pitch": 69, "duration": 5, "velocity": 86}, {"time": 5075, "pitch": 54, "duration": 20, "velocity": 83}, {"time": 5081, "pitch": 61, "duration": 21, "velocity": 94}, {"time": 5081, "pitch": 66, "duration": 27, "velocity": 93}, {"time": 5081, "pitch": 69, "duration": 26, "velocity": 89}, {"time": 5099, "pitch": 54, "duration": 12, "velocity": 76}, {"time": 5105, "pitch": 61, "duration": 4, "velocity": 73}, {"time": 5111, "pitch": 42, "duration": 43, "velocity": 88}, {"time": 5111, "pitch": 61, "duration": 16, "velocity": 91}, {"time": 5111, "pitch": 66, "duration": 16, "velocity": 94}, {"time": 5111, "pitch": 69, "duration": 16, "velocity": 87}, {"time": 5123, "pitch": 54, "duration": 11, "velocity": 81}, {"time": 5129, "pitch": 61, "duration": 12, "velocity": 94}, {"time": 5129, "pitch": 66, "duration": 13, "velocity": 98}, {"time": 5129, "pitch": 69, "duration": 12, "velocity": 89}, {"time": 5141, "pitch": 54, "duration": 8, "velocity": 92}, {"time": 5147, "pitch": 61, "duration": 9, "velocity": 102}, {"time": 5147, "pitch": 66, "duration": 10, "velocity": 91}, {"time": 5147, "pitch": 69, "duration": 9, "velocity": 88}, {"time": 5153, "pitch": 49, "duration": 6, "velocity": 83}, {"time": 5159, "pitch": 42, "duration": 44, "velocity": 94}, {"time": 5159, "pitch": 61, "duration": 15, "velocity": 93}, {"time": 5159, "pitch": 66, "duration": 15, "velocity": 92}, {"time": 5159, "pitch": 69, "duration": 14, "velocity": 87}, {"time": 5171, "pitch": 54, "duration": 12, "velocity": 87}, {"time": 5177, "pitch": 61, "duration": 13, "velocity": 92}, {"time": 5177, "pitch": 66, "duration": 14, "velocity": 96}, {"time": 5177, "pitch": 69, "duration": 13, "velocity": 87}, {"time": 5189, "pitch": 54, "duration": 14, "velocity": 89}, {"time": 5195, "pitch": 61, "duration": 9, "velocity": 88}, {"time": 5195, "pitch": 66, "duration": 9, "velocity": 88}, {"time": 5195, "pitch": 69, "duration": 9, "velocity": 85}, {"time": 5201, "pitch": 49, "duration": 6, "velocity": 80}, {"time": 5207, "pitch": 42, "duration": 27, "velocity": 87}, {"time": 5207, "pitch": 61, "duration": 17, "velocity": 96}, {"time": 5207, "pitch": 66, "duration": 17, "velocity": 110}, {"time": 5207, "pitch": 69, "duration": 17, "velocity": 93}, {"time": 5222, "pitch": 54, "duration": 9, "velocity": 81}, {"time": 5225, "pitch": 61, "duration": 8, "velocity": 89}, {"time": 5225, "pitch": 66, "duration": 9, "velocity": 98}, {"time": 5225, "pitch": 69, "duration": 8, "velocity": 87}, {"time": 5237, "pitch": 42, "duration": 3, "velocity": 98}, {"time": 5237, "pitch": 54, "duration": 3, "velocity": 91}, {"time": 5237, "pitch": 61, "duration": 4, "velocity": 113}, {"time": 5237, "pitch": 66, "duration": 3, "velocity": 116}, {"time": 5237, "pitch": 69, "duration": 3, "velocity": 116}, {"time": 5249, "pitch": 35, "duration": 45, "velocity": 108}, {"time": 5249, "pitch": 47, "duration": 12, "velocity": 96}, {"time": 5249, "pitch": 62, "duration": 26, "velocity": 113}, {"time": 5249, "pitch": 66, "duration": 25, "velocity": 107}, {"time": 5249, "pitch": 71, "duration": 25, "velocity": 110}, {"time": 5267, "pitch": 47, "duration": 15, "velocity": 91}, {"time": 5279, "pitch": 62, "duration": 15, "velocity": 91}, {"time": 5279, "pitch": 66, "duration": 15, "velocity": 102}, {"time": 5279, "pitch": 71, "duration": 15, "velocity": 94}, {"time": 5291, "pitch": 47, "duration": 7, "velocity": 88}, {"time": 5297, "pitch": 35, "duration": 44, "velocity": 91}, {"time": 5297, "pitch": 62, "duration": 13, "velocity": 88}, {"time": 5297, "pitch": 66, "duration": 14, "velocity": 104}, {"time": 5297, "pitch": 71, "duration": 13, "velocity": 100}, {"time": 5309, "pitch": 47, "duration": 9, "velocity": 88}, {"time": 5315, "pitch": 62, "duration": 20, "velocity": 89}, {"time": 5315, "pitch": 66, "duration": 21, "velocity": 94}, {"time": 5315, "pitch": 71, "duration": 20, "velocity": 91}, {"time": 5321, "pitch": 47, "duration": 8, "velocity": 87}, {"time": 5333, "pitch": 47, "duration": 8, "velocity": 93}, {"time": 5339, "pitch": 62, "duration": 4, "velocity": 103}, {"time": 5339, "pitch": 66, "duration": 9, "velocity": 107}, {"time": 5339, "pitch": 71, "duration": 5, "velocity": 104}, {"time": 5351, "pitch": 42, "duration": 43, "velocity": 96}, {"time": 5351, "pitch": 54, "duration": 9, "velocity": 88}, {"time": 5351, "pitch": 61, "duration": 16, "velocity": 96}, {"time": 5351, "pitch": 66, "duration": 16, "velocity": 98}, {"time": 5351, "pitch": 69, "duration": 16, "velocity": 87}, {"time": 5363, "pitch": 54, "duration": 11, "velocity": 88}, {"time": 5369, "pitch": 61, "duration": 13, "velocity": 98}, {"time": 5369, "pitch": 66, "duration": 14, "velocity": 98}, {"time": 5369, "pitch": 69, "duration": 14, "velocity": 90}, {"time": 5381, "pitch": 54, "duration": 16, "velocity": 87}, {"time": 5387, "pitch": 61, "duration": 9, "velocity": 89}, {"time": 5387, "pitch": 66, "duration": 10, "velocity": 89}, {"time": 5387, "pitch": 69, "duration": 9, "velocity": 85}, {"time": 5399, "pitch": 42, "duration": 26, "velocity": 88}, {"time": 5399, "pitch": 61, "duration": 15, "velocity": 91}, {"time": 5399, "pitch": 66, "duration": 15, "velocity": 93}, {"time": 5399, "pitch": 69, "duration": 15, "velocity": 88}, {"time": 5408, "pitch": 54, "duration": 9, "velocity": 84}, {"time": 5417, "pitch": 61, "duration": 13, "velocity": 94}, {"time": 5417, "pitch": 66, "duration": 13, "velocity": 102}, {"time": 5417, "pitch": 69, "duration": 13, "velocity": 90}, {"time": 5429, "pitch": 42, "duration": 6, "velocity": 102}, {"time": 5429, "pitch": 54, "duration": 6, "velocity": 113}, {"time": 5435, "pitch": 61, "duration": 7, "velocity": 114}, {"time": 5435, "pitch": 66, "duration": 8, "velocity": 114}, {"time": 5435, "pitch": 69, "duration": 8, "velocity": 109}, {"time": 5441, "pitch": 42, "duration": 4, "velocity": 98}, {"time": 5441, "pitch": 54, "duration": 3, "velocity": 108}, {"time": 5447, "pitch": 42, "duration": 38, "velocity": 100}, {"time": 5447, "pitch": 57, "duration": 13, "velocity": 106}, {"time": 5447, "pitch": 61, "duration": 13, "velocity": 117}, {"time": 5447, "pitch": 66, "duration": 12, "velocity": 114}, {"time": 5459, "pitch": 54, "duration": 11, "velocity": 98}, {"time": 5465, "pitch": 57, "duration": 13, "velocity": 106}, {"time": 5465, "pitch": 61, "duration": 13, "velocity": 119}, {"time": 5465, "pitch": 66, "duration": 13, "velocity": 117}, {"time": 5477, "pitch": 54, "duration": 8, "velocity": 108}, {"time": 5483, "pitch": 57, "duration": 6, "velocity": 109}, {"time": 5483, "pitch": 61, "duration": 9, "velocity": 116}, {"time": 5483, "pitch": 66, "duration": 7, "velocity": 117}, {"time": 5495, "pitch": 45, "duration": 24, "velocity": 100}, {"time": 5495, "pitch": 61, "duration": 16, "velocity": 110}, {"time": 5495, "pitch": 64, "duration": 15, "velocity": 114}, {"time": 5507, "pitch": 57, "duration": 12, "velocity": 106}, {"time": 5513, "pitch": 61, "duration": 14, "velocity": 114}, {"time": 5513, "pitch": 64, "duration": 13, "velocity": 117}, {"time": 5525, "pitch": 45, "duration": 7, "velocity": 109}, {"time": 5525, "pitch": 57, "duration": 6, "velocity": 109}, {"time": 5531, "pitch": 61, "duration": 10, "velocity": 117}, {"time": 5531, "pitch": 64, "duration": 8, "velocity": 117}, {"time": 5543, "pitch": 40, "duration": 39, "velocity": 107}, {"time": 5543, "pitch": 52, "duration": 9, "velocity": 92}, {"time": 5543, "pitch": 59, "duration": 14, "velocity": 104}, {"time": 5543, "pitch": 64, "duration": 15, "velocity": 113}, {"time": 5543, "pitch": 68, "duration": 14, "velocity": 108}, {"time": 5555, "pitch": 52, "duration": 13, "velocity": 107}, {"time": 5561, "pitch": 59, "duration": 14, "velocity": 110}, {"time": 5561, "pitch": 64, "duration": 14, "velocity": 114}, {"time": 5561, "pitch": 68, "duration": 14, "velocity": 110}, {"time": 5573, "pitch": 52, "duration": 10, "velocity": 110}, {"time": 5579, "pitch": 59, "duration": 8, "velocity": 108}, {"time": 5579, "pitch": 64, "duration": 8, "velocity": 113}, {"time": 5579, "pitch": 68, "duration": 9, "velocity": 108}, {"time": 5591, "pitch": 47, "duration": 12, "velocity": 102}, {"time": 5591, "pitch": 59, "duration": 15, "velocity": 92}, {"time": 5591, "pitch": 62, "duration": 21, "velocity": 109}, {"time": 5591, "pitch": 66, "duration": 19, "velocity": 94}, {"time": 5615, "pitch": 37, "duration": 12, "velocity": 94}, {"time": 5615, "pitch": 49, "duration": 13, "velocity": 98}, {"time": 5615, "pitch": 56, "duration": 15, "velocity": 104}, {"time": 5615, "pitch": 61, "duration": 18, "velocity": 110}, {"time": 5615, "pitch": 65, "duration": 17, "velocity": 97}, {"time": 5639, "pitch": 42, "duration": 38, "velocity": 96}, {"time": 5639, "pitch": 57, "duration": 13, "velocity": 103}, {"time": 5639, "pitch": 61, "duration": 13, "velocity": 104}, {"time": 5639, "pitch": 66, "duration": 13, "velocity": 108}, {"time": 5651, "pitch": 54, "duration": 11, "velocity": 88}, {"time": 5657, "pitch": 57, "duration": 13, "velocity": 93}, {"time": 5657, "pitch": 61, "duration": 13, "velocity": 110}, {"time": 5657, "pitch": 66, "duration": 13, "velocity": 110}, {"time": 5669, "pitch": 54, "duration": 8, "velocity": 104}, {"time": 5675, "pitch": 57, "duration": 5, "velocity": 100}, {"time": 5675, "pitch": 61, "duration": 9, "velocity": 113}, {"time": 5675, "pitch": 66, "duration": 6, "velocity": 114}, {"time": 5687, "pitch": 45, "duration": 26, "velocity": 91}, {"time": 5687, "pitch": 57, "duration": 10, "velocity": 91}, {"time": 5687, "pitch": 61, "duration": 16, "velocity": 107}, {"time": 5687, "pitch": 64, "duration": 16, "velocity": 104}, {"time": 5699, "pitch": 57, "duration": 13, "velocity": 103}, {"time": 5705, "pitch": 61, "duration": 14, "velocity": 110}, {"time": 5705, "pitch": 64, "duration": 14, "velocity": 114}, {"time": 5717, "pitch": 45, "duration": 8, "velocity": 100}, {"time": 5717, "pitch": 57, "duration": 6, "velocity": 106}, {"time": 5723, "pitch": 61, "duration": 9, "velocity": 116}, {"time": 5723, "pitch": 64, "duration": 8, "velocity": 116}, {"time": 5735, "pitch": 40, "duration": 39, "velocity": 91}, {"time": 5735, "pitch": 52, "duration": 8, "velocity": 96}, {"time": 5735, "pitch": 59, "duration": 15, "velocity": 100}, {"time": 5735, "pitch": 64, "duration": 15, "velocity": 110}, {"time": 5735, "pitch": 68, "duration": 15, "velocity": 108}, {"time": 5744, "pitch": 52, "duration": 12, "velocity": 92}, {"time": 5753, "pitch": 59, "duration": 14, "velocity": 104}, {"time": 5753, "pitch": 64, "duration": 14, "velocity": 110}, {"time": 5753, "pitch": 68, "duration": 14, "velocity": 108}, {"time": 5765, "pitch": 52, "duration": 10, "velocity": 114}, {"time": 5771, "pitch": 59, "duration": 6, "velocity": 107}, {"time": 5771, "pitch": 64, "duration": 5, "velocity": 114}, {"time": 5771, "pitch": 68, "duration": 4, "velocity": 108}, {"time": 5783, "pitch": 35, "duration": 10, "velocity": 98}, {"time": 5783, "pitch": 47, "duration": 10, "velocity": 107}, {"time": 5783, "pitch": 62, "duration": 15, "velocity": 100}, {"time": 5783, "pitch": 66, "duration": 15, "velocity": 104}, {"time": 5783, "pitch": 71, "duration": 15, "velocity": 104}, {"time": 5795, "pitch": 35, "duration": 3, "velocity": 90}, {"time": 5795, "pitch": 47, "duration": 3, "velocity": 102}, {"time": 5807, "pitch": 42, "duration": 11, "velocity": 92}, {"time": 5807, "pitch": 54, "duration": 10, "velocity": 91}, {"time": 5807, "pitch": 61, "duration": 15, "velocity": 96}, {"time": 5807, "pitch": 66, "duration": 15, "velocity": 110}, {"time": 5807, "pitch": 69, "duration": 15, "velocity": 88}, {"time": 5819, "pitch": 42, "duration": 6, "velocity": 87}, {"time": 5819, "pitch": 54, "duration": 6, "velocity": 102}, {"time": 5825, "pitch": 61, "duration": 6, "velocity": 102}, {"time": 5825, "pitch": 66, "duration": 7, "velocity": 117}, {"time": 5825, "pitch": 69, "duration": 8, "velocity": 109}, {"time": 5831, "pitch": 42, "duration": 38, "velocity": 100}, {"time": 5831, "pitch": 57, "duration": 13, "velocity": 106}, {"time": 5831, "pitch": 61, "duration": 13, "velocity": 117}, {"time": 5831, "pitch": 66, "duration": 1, "velocity": 114}, {"time": 5843, "pitch": 54, "duration": 11, "velocity": 98}, {"time": 5849, "pitch": 57, "duration": 13, "velocity": 106}, {"time": 5849, "pitch": 61, "duration": 13, "velocity": 119}, {"time": 5849, "pitch": 66, "duration": 13, "velocity": 117}, {"time": 5861, "pitch": 54, "duration": 8, "velocity": 108}, {"time": 5867, "pitch": 57, "duration": 6, "velocity": 109}, {"time": 5867, "pitch": 61, "duration": 9, "velocity": 116}, {"time": 5867, "pitch": 66, "duration": 7, "velocity": 117}, {"time": 5879, "pitch": 45, "duration": 24, "velocity": 100}, {"time": 5879, "pitch": 61, "duration": 16, "velocity": 110}, {"time": 5879, "pitch": 64, "duration": 15, "velocity": 114}, {"time": 5891, "pitch": 57, "duration": 12, "velocity": 106}, {"time": 5897, "pitch": 61, "duration": 14, "velocity": 114}, {"time": 5897, "pitch": 64, "duration": 13, "velocity": 117}, {"time": 5909, "pitch": 45, "duration": 7, "velocity": 109}, {"time": 5909, "pitch": 57, "duration": 6, "velocity": 109}, {"time": 5915, "pitch": 61, "duration": 10, "velocity": 117}, {"time": 5915, "pitch": 64, "duration": 8, "velocity": 117}, {"time": 5927, "pitch": 40, "duration": 39, "velocity": 107}, {"time": 5927, "pitch": 52, "duration": 9, "velocity": 92}, {"time": 5927, "pitch": 59, "duration": 14, "velocity": 104}, {"time": 5927, "pitch": 64, "duration": 15, "velocity": 113}, {"time": 5927, "pitch": 68, "duration": 14, "velocity": 108}, {"time": 5939, "pitch": 52, "duration": 13, "velocity": 107}, {"time": 5945, "pitch": 59, "duration": 14, "velocity": 110}, {"time": 5945, "pitch": 64, "duration": 14, "velocity": 114}, {"time": 5945, "pitch": 68, "duration": 14, "velocity": 110}, {"time": 5957, "pitch": 52, "duration": 10, "velocity": 110}, {"time": 5963, "pitch": 59, "duration": 8, "velocity": 108}, {"time": 5963, "pitch": 64, "duration": 8, "velocity": 113}, {"time": 5963, "pitch": 68, "duration": 9, "velocity": 108}, {"time": 5975, "pitch": 47, "duration": 12, "velocity": 102}, {"time": 5975, "pitch": 59, "duration": 15, "velocity": 92}, {"time": 5975, "pitch": 62, "duration": 21, "velocity": 109}, {"time": 5975, "pitch": 66, "duration": 19, "velocity": 94}, {"time": 5999, "pitch": 37, "duration": 12, "velocity": 94}, {"time": 5999, "pitch": 49, "duration": 13, "velocity": 98}, {"time": 5999, "pitch": 56, "duration": 15, "velocity": 104}, {"time": 5999, "pitch": 61, "duration": 18, "velocity": 110}, {"time": 5999, "pitch": 65, "duration": 17, "velocity": 97}, {"time": 6023, "pitch": 42, "duration": 38, "velocity": 96}, {"time": 6023, "pitch": 57, "duration": 13, "velocity": 103}, {"time": 6023, "pitch": 61, "duration": 13, "velocity": 104}, {"time": 6023, "pitch": 66, "duration": 13, "velocity": 108}, {"time": 6035, "pitch": 54, "duration": 11, "velocity": 88}, {"time": 6041, "pitch": 57, "duration": 13, "velocity": 93}, {"time": 6041, "pitch": 61, "duration": 13, "velocity": 110}, {"time": 6041, "pitch": 66, "duration": 13, "velocity": 110}, {"time": 6053, "pitch": 54, "duration": 8, "velocity": 104}, {"time": 6059, "pitch": 57, "duration": 5, "velocity": 100}, {"time": 6059, "pitch": 61, "duration": 9, "velocity": 113}, {"time": 6059, "pitch": 66, "duration": 6, "velocity": 114}, {"time": 6071, "pitch": 45, "duration": 26, "velocity": 91}, {"time": 6071, "pitch": 57, "duration": 10, "velocity": 91}, {"time": 6071, "pitch": 61, "duration": 16, "velocity": 107}, {"time": 6071, "pitch": 64, "duration": 16, "velocity": 104}, {"time": 6083, "pitch": 57, "duration": 13, "velocity": 103}, {"time": 6089, "pitch": 61, "duration": 14, "velocity": 110}, {"time": 6089, "pitch": 64, "duration": 14, "velocity": 114}, {"time": 6101, "pitch": 45, "duration": 8, "velocity": 100}, {"time": 6101, "pitch": 57, "duration": 6, "velocity": 106}, {"time": 6107, "pitch": 61, "duration": 9, "velocity": 116}, {"time": 6107, "pitch": 64, "duration": 8, "velocity": 116}, {"time": 6119, "pitch": 40, "duration": 39, "velocity": 91}, {"time": 6119, "pitch": 52, "duration": 8, "velocity": 96}, {"time": 6119, "pitch": 59, "duration": 15, "velocity": 100}, {"time": 6119, "pitch": 64, "duration": 15, "velocity": 110}, {"time": 6119, "pitch": 68, "duration": 15, "velocity": 108}, {"time": 6128, "pitch": 52, "duration": 12, "velocity": 92}, {"time": 6137, "pitch": 59, "duration": 14, "velocity": 104}, {"time": 6137, "pitch": 64, "duration": 14, "velocity": 110}, {"time": 6137, "pitch": 68, "duration": 14, "velocity": 108}, {"time": 6149, "pitch": 52, "duration": 10, "velocity": 114}, {"time": 6155, "pitch": 59, "duration": 6, "velocity": 107}, {"time": 6155, "pitch": 64, "duration": 5, "velocity": 114}, {"time": 6155, "pitch": 68, "duration": 4, "velocity": 108}, {"time": 6167, "pitch": 35, "duration": 10, "velocity": 98}, {"time": 6167, "pitch": 47, "duration": 10, "velocity": 107}, {"time": 6167, "pitch": 62, "duration": 15, "velocity": 100}, {"time": 6167, "pitch": 66, "duration": 15, "velocity": 104}, {"time": 6167, "pitch": 71, "duration": 15, "velocity": 104}, {"time": 6179, "pitch": 35, "duration": 3, "velocity": 90}, {"time": 6179, "pitch": 47, "duration": 3, "velocity": 102}, {"time": 6191, "pitch": 42, "duration": 11, "velocity": 92}, {"time": 6191, "pitch": 54, "duration": 10, "velocity": 91}, {"time": 6191, "pitch": 61, "duration": 15, "velocity": 96}, {"time": 6191, "pitch": 66, "duration": 15, "velocity": 110}, {"time": 6191, "pitch": 69, "duration": 15, "velocity": 88}, {"time": 6203, "pitch": 42, "duration": 6, "velocity": 87}, {"time": 6203, "pitch": 54, "duration": 6, "velocity": 102}, {"time": 6209, "pitch": 61, "duration": 6, "velocity": 102}, {"time": 6209, "pitch": 66, "duration": 7, "velocity": 117}, {"time": 6209, "pitch": 69, "duration": 8, "velocity": 109}, {"time": 6215, "pitch": 42, "duration": 35, "velocity": 86}, {"time": 6215, "pitch": 54, "duration": 9, "velocity": 85}, {"time": 6215, "pitch": 61, "duration": 12, "velocity": 89}, {"time": 6215, "pitch": 66, "duration": 1, "velocity": 90}, {"time": 6215, "pitch": 69, "duration": 2, "velocity": 83}, {"time": 6227, "pitch": 54, "duration": 10, "velocity": 87}, {"time": 6233, "pitch": 61, "duration": 12, "velocity": 104}, {"time": 6233, "pitch": 66, "duration": 13, "velocity": 108}, {"time": 6233, "pitch": 69, "duration": 12, "velocity": 106}, {"time": 6245, "pitch": 54, "duration": 6, "velocity": 94}, {"time": 6251, "pitch": 61, "duration": 4, "velocity": 104}, {"time": 6251, "pitch": 66, "duration": 8, "velocity": 116}, {"time": 6251, "pitch": 69, "duration": 5, "velocity": 106}, {"time": 6263, "pitch": 38, "duration": 39, "velocity": 89}, {"time": 6263, "pitch": 50, "duration": 2, "velocity": 83}, {"time": 6263, "pitch": 62, "duration": 15, "velocity": 103}, {"time": 6263, "pitch": 66, "duration": 15, "velocity": 113}, {"time": 6263, "pitch": 69, "duration": 15, "velocity": 100}, {"time": 6275, "pitch": 50, "duration": 12, "velocity": 89}, {"time": 6281, "pitch": 62, "duration": 14, "velocity": 90}, {"time": 6281, "pitch": 66, "duration": 13, "velocity": 107}, {"time": 6281, "pitch": 69, "duration": 15, "velocity": 93}, {"time": 6293, "pitch": 50, "duration": 8, "velocity": 93}, {"time": 6299, "pitch": 62, "duration": 4, "velocity": 95}, {"time": 6299, "pitch": 66, "duration": 5, "velocity": 104}, {"time": 6299, "pitch": 69, "duration": 5, "velocity": 91}, {"time": 6311, "pitch": 40, "duration": 40, "velocity": 98}, {"time": 6311, "pitch": 64, "duration": 15, "velocity": 96}, {"time": 6311, "pitch": 68, "duration": 16, "velocity": 102}, {"time": 6311, "pitch": 71, "duration": 14, "velocity": 94}, {"time": 6323, "pitch": 52, "duration": 10, "velocity": 91}, {"time": 6329, "pitch": 64, "duration": 13, "velocity": 98}, {"time": 6329, "pitch": 68, "duration": 14, "velocity": 108}, {"time": 6329, "pitch": 71, "duration": 14, "velocity": 96}, {"time": 6341, "pitch": 52, "duration": 12, "velocity": 93}, {"time": 6347, "pitch": 64, "duration": 5, "velocity": 98}, {"time": 6347, "pitch": 68, "duration": 4, "velocity": 104}, {"time": 6347, "pitch": 71, "duration": 4, "velocity": 89}, {"time": 6359, "pitch": 42, "duration": 45, "velocity": 98}, {"time": 6359, "pitch": 61, "duration": 14, "velocity": 100}, {"time": 6359, "pitch": 66, "duration": 14, "velocity": 113}, {"time": 6359, "pitch": 69, "duration": 14, "velocity": 100}, {"time": 6371, "pitch": 54, "duration": 11, "velocity": 88}, {"time": 6377, "pitch": 61, "duration": 26, "velocity": 98}, {"time": 6377, "pitch": 66, "duration": 27, "velocity": 116}, {"time": 6377, "pitch": 69, "duration": 26, "velocity": 109}, {"time": 6395, "pitch": 54, "duration": 9, "velocity": 86}, {"time": 6407, "pitch": 42, "duration": 34, "velocity": 98}, {"time": 6407, "pitch": 54, "duration": 34, "velocity": 107}, {"time": 6407, "pitch": 61, "duration": 33, "velocity": 108}, {"time": 6407, "pitch": 66, "duration": 34, "velocity": 116}, {"time": 6407, "pitch": 69, "duration": 35, "velocity": 109}]}]}