{"metadata": {"schema_version": "0.2", "title": "None", "source_filename": "540.mid", "source_format": "midi"}, "resolution": 12, "tempos": [{"time": 0, "qpm": 92.00026986745827}], "time_signatures": [{"time": 0, "numerator": 4, "denominator": 4}], "tracks": [{"program": 4, "is_drum": false, "name": "MELODY", "notes": [{"time": 417, "pitch": 81, "duration": 11, "velocity": 119}, {"time": 435, "pitch": 72, "duration": 5, "velocity": 110}, {"time": 441, "pitch": 74, "duration": 6, "velocity": 110}, {"time": 447, "pitch": 77, "duration": 5, "velocity": 110}, {"time": 453, "pitch": 79, "duration": 6, "velocity": 108}, {"time": 459, "pitch": 77, "duration": 5, "velocity": 110}, {"time": 465, "pitch": 77, "duration": 8, "velocity": 117}, {"time": 501, "pitch": 74, "duration": 6, "velocity": 116}, {"time": 507, "pitch": 77, "duration": 3, "velocity": 114}, {"time": 513, "pitch": 79, "duration": 7, "velocity": 116}, {"time": 525, "pitch": 77, "duration": 5, "velocity": 113}, {"time": 531, "pitch": 79, "duration": 5, "velocity": 113}, {"time": 537, "pitch": 81, "duration": 5, "velocity": 116}, {"time": 543, "pitch": 84, "duration": 4, "velocity": 98}, {"time": 555, "pitch": 74, "duration": 5, "velocity": 107}, {"time": 561, "pitch": 72, "duration": 8, "velocity": 107}, {"time": 609, "pitch": 74, "duration": 11, "velocity": 113}, {"time": 627, "pitch": 79, "duration": 5, "velocity": 113}, {"time": 633, "pitch": 74, "duration": 9, "velocity": 108}, {"time": 645, "pitch": 72, "duration": 8, "velocity": 116}, {"time": 657, "pitch": 77, "duration": 8, "velocity": 114}, {"time": 669, "pitch": 77, "duration": 5, "velocity": 114}, {"time": 675, "pitch": 79, "duration": 7, "velocity": 102}, {"time": 681, "pitch": 81, "duration": 6, "velocity": 116}, {"time": 705, "pitch": 84, "duration": 10, "velocity": 116}, {"time": 717, "pitch": 89, "duration": 10, "velocity": 117}, {"time": 729, "pitch": 86, "duration": 11, "velocity": 116}, {"time": 741, "pitch": 84, "duration": 5, "velocity": 114}, {"time": 747, "pitch": 81, "duration": 5, "velocity": 114}, {"time": 753, "pitch": 79, "duration": 8, "velocity": 114}, {"time": 801, "pitch": 81, "duration": 7, "velocity": 114}, {"time": 810, "pitch": 81, "duration": 2, "velocity": 102}, {"time": 813, "pitch": 81, "duration": 5, "velocity": 113}, {"time": 819, "pitch": 72, "duration": 6, "velocity": 116}, {"time": 825, "pitch": 74, "duration": 4, "velocity": 116}, {"time": 831, "pitch": 77, "duration": 4, "velocity": 114}, {"time": 837, "pitch": 79, "duration": 6, "velocity": 108}, {"time": 843, "pitch": 77, "duration": 4, "velocity": 96}, {"time": 849, "pitch": 77, "duration": 10, "velocity": 113}, {"time": 885, "pitch": 74, "duration": 5, "velocity": 113}, {"time": 891, "pitch": 77, "duration": 4, "velocity": 113}, {"time": 897, "pitch": 79, "duration": 6, "velocity": 116}, {"time": 906, "pitch": 79, "duration": 2, "velocity": 107}, {"time": 909, "pitch": 81, "duration": 3, "velocity": 107}, {"time": 915, "pitch": 84, "duration": 4, "velocity": 113}, {"time": 921, "pitch": 81, "duration": 5, "velocity": 114}, {"time": 927, "pitch": 79, "duration": 4, "velocity": 98}, {"time": 933, "pitch": 79, "duration": 6, "velocity": 100}, {"time": 939, "pitch": 76, "duration": 6, "velocity": 98}, {"time": 945, "pitch": 74, "duration": 8, "velocity": 98}, {"time": 993, "pitch": 77, "duration": 10, "velocity": 116}, {"time": 1011, "pitch": 74, "duration": 6, "velocity": 117}, {"time": 1017, "pitch": 72, "duration": 6, "velocity": 116}, {"time": 1029, "pitch": 84, "duration": 8, "velocity": 113}, {"time": 1041, "pitch": 86, "duration": 8, "velocity": 110}, {"time": 1053, "pitch": 86, "duration": 5, "velocity": 113}, {"time": 1059, "pitch": 89, "duration": 6, "velocity": 114}, {"time": 1065, "pitch": 86, "duration": 7, "velocity": 117}, {"time": 1077, "pitch": 81, "duration": 3, "velocity": 117}, {"time": 1083, "pitch": 81, "duration": 5, "velocity": 114}, {"time": 1089, "pitch": 79, "duration": 6, "velocity": 113}, {"time": 1107, "pitch": 81, "duration": 6, "velocity": 113}, {"time": 1113, "pitch": 79, "duration": 6, "velocity": 110}, {"time": 1119, "pitch": 81, "duration": 5, "velocity": 104}, {"time": 1125, "pitch": 72, "duration": 7, "velocity": 116}, {"time": 1131, "pitch": 74, "duration": 6, "velocity": 102}, {"time": 1137, "pitch": 77, "duration": 11, "velocity": 114}, {"time": 1185, "pitch": 89, "duration": 12, "velocity": 116}, {"time": 1203, "pitch": 89, "duration": 5, "velocity": 117}, {"time": 1209, "pitch": 88, "duration": 8, "velocity": 117}, {"time": 1221, "pitch": 86, "duration": 5, "velocity": 119}, {"time": 1227, "pitch": 84, "duration": 5, "velocity": 114}, {"time": 1233, "pitch": 86, "duration": 9, "velocity": 117}, {"time": 1251, "pitch": 84, "duration": 6, "velocity": 119}, {"time": 1257, "pitch": 81, "duration": 9, "velocity": 119}, {"time": 1281, "pitch": 84, "duration": 5, "velocity": 117}, {"time": 1287, "pitch": 86, "duration": 8, "velocity": 116}, {"time": 1299, "pitch": 84, "duration": 3, "velocity": 119}, {"time": 1305, "pitch": 84, "duration": 5, "velocity": 120}, {"time": 1317, "pitch": 81, "duration": 6, "velocity": 113}, {"time": 1323, "pitch": 79, "duration": 4, "velocity": 114}, {"time": 1329, "pitch": 79, "duration": 9, "velocity": 117}, {"time": 1377, "pitch": 81, "duration": 5, "velocity": 117}, {"time": 1383, "pitch": 84, "duration": 7, "velocity": 116}, {"time": 1401, "pitch": 81, "duration": 5, "velocity": 114}, {"time": 1407, "pitch": 79, "duration": 6, "velocity": 104}, {"time": 1413, "pitch": 77, "duration": 7, "velocity": 114}, {"time": 1425, "pitch": 77, "duration": 5, "velocity": 116}, {"time": 1431, "pitch": 79, "duration": 8, "velocity": 114}, {"time": 1443, "pitch": 77, "duration": 6, "velocity": 116}, {"time": 1449, "pitch": 74, "duration": 6, "velocity": 116}, {"time": 1473, "pitch": 76, "duration": 10, "velocity": 117}, {"time": 1491, "pitch": 79, "duration": 4, "velocity": 113}, {"time": 1497, "pitch": 74, "duration": 5, "velocity": 114}, {"time": 1503, "pitch": 76, "duration": 5, "velocity": 94}, {"time": 1509, "pitch": 74, "duration": 6, "velocity": 113}, {"time": 1515, "pitch": 72, "duration": 3, "velocity": 104}, {"time": 1521, "pitch": 84, "duration": 9, "velocity": 117}, {"time": 1569, "pitch": 86, "duration": 5, "velocity": 116}, {"time": 1575, "pitch": 89, "duration": 5, "velocity": 116}, {"time": 1587, "pitch": 89, "duration": 5, "velocity": 117}, {"time": 1593, "pitch": 88, "duration": 8, "velocity": 117}, {"time": 1605, "pitch": 86, "duration": 5, "velocity": 119}, {"time": 1611, "pitch": 84, "duration": 5, "velocity": 114}, {"time": 1617, "pitch": 86, "duration": 5, "velocity": 117}, {"time": 1623, "pitch": 86, "duration": 5, "velocity": 117}, {"time": 1635, "pitch": 84, "duration": 6, "velocity": 119}, {"time": 1641, "pitch": 81, "duration": 9, "velocity": 119}, {"time": 1665, "pitch": 84, "duration": 5, "velocity": 116}, {"time": 1671, "pitch": 84, "duration": 7, "velocity": 117}, {"time": 1683, "pitch": 81, "duration": 6, "velocity": 116}, {"time": 1689, "pitch": 84, "duration": 4, "velocity": 110}, {"time": 1695, "pitch": 86, "duration": 4, "velocity": 113}, {"time": 1701, "pitch": 88, "duration": 5, "velocity": 117}, {"time": 1707, "pitch": 89, "duration": 4, "velocity": 108}, {"time": 1710, "pitch": 88, "duration": 2, "velocity": 104}, {"time": 1713, "pitch": 86, "duration": 7, "velocity": 116}, {"time": 1761, "pitch": 81, "duration": 5, "velocity": 117}, {"time": 1767, "pitch": 84, "duration": 7, "velocity": 116}, {"time": 1779, "pitch": 81, "duration": 5, "velocity": 114}, {"time": 1785, "pitch": 79, "duration": 5, "velocity": 113}, {"time": 1791, "pitch": 81, "duration": 5, "velocity": 113}, {"time": 1797, "pitch": 84, "duration": 6, "velocity": 117}, {"time": 1809, "pitch": 81, "duration": 7, "velocity": 117}, {"time": 1818, "pitch": 79, "duration": 3, "velocity": 94}, {"time": 1821, "pitch": 77, "duration": 5, "velocity": 102}, {"time": 1827, "pitch": 79, "duration": 4, "velocity": 107}, {"time": 1833, "pitch": 79, "duration": 6, "velocity": 110}, {"time": 1839, "pitch": 76, "duration": 6, "velocity": 110}, {"time": 1857, "pitch": 74, "duration": 5, "velocity": 116}, {"time": 1866, "pitch": 74, "duration": 6, "velocity": 114}, {"time": 1875, "pitch": 77, "duration": 4, "velocity": 108}, {"time": 1881, "pitch": 72, "duration": 7, "velocity": 116}, {"time": 1893, "pitch": 72, "duration": 6, "velocity": 108}, {"time": 1899, "pitch": 74, "duration": 6, "velocity": 98}, {"time": 1905, "pitch": 77, "duration": 12, "velocity": 107}, {"time": 2336, "pitch": 81, "duration": 11, "velocity": 119}, {"time": 2354, "pitch": 72, "duration": 5, "velocity": 110}, {"time": 2360, "pitch": 74, "duration": 6, "velocity": 110}, {"time": 2366, "pitch": 77, "duration": 6, "velocity": 110}, {"time": 2372, "pitch": 79, "duration": 6, "velocity": 108}, {"time": 2378, "pitch": 77, "duration": 5, "velocity": 110}, {"time": 2384, "pitch": 77, "duration": 8, "velocity": 117}, {"time": 2420, "pitch": 74, "duration": 6, "velocity": 116}, {"time": 2426, "pitch": 77, "duration": 3, "velocity": 114}, {"time": 2432, "pitch": 79, "duration": 7, "velocity": 116}, {"time": 2444, "pitch": 77, "duration": 5, "velocity": 113}, {"time": 2450, "pitch": 79, "duration": 5, "velocity": 113}, {"time": 2456, "pitch": 81, "duration": 6, "velocity": 116}, {"time": 2462, "pitch": 84, "duration": 4, "velocity": 98}, {"time": 2474, "pitch": 74, "duration": 5, "velocity": 107}, {"time": 2480, "pitch": 72, "duration": 8, "velocity": 107}, {"time": 2528, "pitch": 74, "duration": 12, "velocity": 113}, {"time": 2546, "pitch": 79, "duration": 5, "velocity": 113}, {"time": 2552, "pitch": 74, "duration": 9, "velocity": 108}, {"time": 2564, "pitch": 72, "duration": 8, "velocity": 116}, {"time": 2576, "pitch": 77, "duration": 9, "velocity": 114}, {"time": 2588, "pitch": 77, "duration": 5, "velocity": 114}, {"time": 2594, "pitch": 79, "duration": 7, "velocity": 102}, {"time": 2600, "pitch": 81, "duration": 6, "velocity": 116}, {"time": 2624, "pitch": 84, "duration": 10, "velocity": 116}, {"time": 2636, "pitch": 89, "duration": 11, "velocity": 117}, {"time": 2648, "pitch": 86, "duration": 11, "velocity": 116}, {"time": 2660, "pitch": 84, "duration": 5, "velocity": 114}, {"time": 2666, "pitch": 81, "duration": 5, "velocity": 114}, {"time": 2672, "pitch": 79, "duration": 8, "velocity": 114}, {"time": 2720, "pitch": 81, "duration": 7, "velocity": 114}, {"time": 2729, "pitch": 81, "duration": 2, "velocity": 102}, {"time": 2732, "pitch": 81, "duration": 5, "velocity": 113}, {"time": 2738, "pitch": 72, "duration": 6, "velocity": 116}, {"time": 2744, "pitch": 74, "duration": 5, "velocity": 116}, {"time": 2750, "pitch": 77, "duration": 4, "velocity": 114}, {"time": 2756, "pitch": 79, "duration": 6, "velocity": 108}, {"time": 2762, "pitch": 77, "duration": 4, "velocity": 96}, {"time": 2768, "pitch": 77, "duration": 10, "velocity": 113}, {"time": 2804, "pitch": 74, "duration": 6, "velocity": 113}, {"time": 2810, "pitch": 77, "duration": 5, "velocity": 113}, {"time": 2816, "pitch": 79, "duration": 6, "velocity": 116}, {"time": 2825, "pitch": 79, "duration": 2, "velocity": 107}, {"time": 2828, "pitch": 81, "duration": 3, "velocity": 107}, {"time": 2834, "pitch": 84, "duration": 4, "velocity": 113}, {"time": 2840, "pitch": 81, "duration": 5, "velocity": 114}, {"time": 2846, "pitch": 79, "duration": 4, "velocity": 98}, {"time": 2852, "pitch": 79, "duration": 6, "velocity": 100}, {"time": 2858, "pitch": 76, "duration": 6, "velocity": 98}, {"time": 2864, "pitch": 74, "duration": 8, "velocity": 98}, {"time": 2912, "pitch": 77, "duration": 11, "velocity": 116}, {"time": 2930, "pitch": 74, "duration": 6, "velocity": 117}, {"time": 2936, "pitch": 72, "duration": 6, "velocity": 116}, {"time": 2948, "pitch": 84, "duration": 9, "velocity": 113}, {"time": 2960, "pitch": 86, "duration": 8, "velocity": 110}, {"time": 2972, "pitch": 86, "duration": 5, "velocity": 113}, {"time": 2978, "pitch": 89, "duration": 6, "velocity": 114}, {"time": 2984, "pitch": 86, "duration": 7, "velocity": 117}, {"time": 2996, "pitch": 81, "duration": 3, "velocity": 117}, {"time": 3002, "pitch": 81, "duration": 5, "velocity": 114}, {"time": 3008, "pitch": 79, "duration": 7, "velocity": 113}, {"time": 3026, "pitch": 81, "duration": 6, "velocity": 113}, {"time": 3032, "pitch": 79, "duration": 6, "velocity": 110}, {"time": 3038, "pitch": 81, "duration": 6, "velocity": 104}, {"time": 3044, "pitch": 72, "duration": 7, "velocity": 116}, {"time": 3050, "pitch": 74, "duration": 6, "velocity": 102}, {"time": 3056, "pitch": 77, "duration": 12, "velocity": 114}, {"time": 3104, "pitch": 89, "duration": 13, "velocity": 116}, {"time": 3122, "pitch": 89, "duration": 5, "velocity": 117}, {"time": 3128, "pitch": 88, "duration": 8, "velocity": 117}, {"time": 3140, "pitch": 86, "duration": 6, "velocity": 119}, {"time": 3146, "pitch": 84, "duration": 5, "velocity": 114}, {"time": 3152, "pitch": 86, "duration": 10, "velocity": 117}, {"time": 3170, "pitch": 84, "duration": 6, "velocity": 119}, {"time": 3176, "pitch": 81, "duration": 9, "velocity": 119}, {"time": 3200, "pitch": 84, "duration": 6, "velocity": 117}, {"time": 3206, "pitch": 86, "duration": 8, "velocity": 116}, {"time": 3218, "pitch": 84, "duration": 4, "velocity": 119}, {"time": 3224, "pitch": 84, "duration": 6, "velocity": 120}, {"time": 3236, "pitch": 81, "duration": 6, "velocity": 113}, {"time": 3242, "pitch": 79, "duration": 4, "velocity": 114}, {"time": 3248, "pitch": 79, "duration": 10, "velocity": 117}, {"time": 3296, "pitch": 81, "duration": 6, "velocity": 117}, {"time": 3302, "pitch": 84, "duration": 7, "velocity": 116}, {"time": 3320, "pitch": 81, "duration": 6, "velocity": 114}, {"time": 3326, "pitch": 79, "duration": 6, "velocity": 104}, {"time": 3332, "pitch": 77, "duration": 7, "velocity": 114}, {"time": 3344, "pitch": 77, "duration": 5, "velocity": 116}, {"time": 3350, "pitch": 79, "duration": 8, "velocity": 114}, {"time": 3362, "pitch": 77, "duration": 6, "velocity": 116}, {"time": 3368, "pitch": 74, "duration": 6, "velocity": 116}, {"time": 3392, "pitch": 76, "duration": 11, "velocity": 117}, {"time": 3410, "pitch": 79, "duration": 4, "velocity": 113}, {"time": 3416, "pitch": 74, "duration": 6, "velocity": 114}, {"time": 3422, "pitch": 76, "duration": 5, "velocity": 94}, {"time": 3428, "pitch": 74, "duration": 6, "velocity": 113}, {"time": 3434, "pitch": 72, "duration": 3, "velocity": 104}, {"time": 3440, "pitch": 84, "duration": 9, "velocity": 117}, {"time": 3488, "pitch": 86, "duration": 5, "velocity": 116}, {"time": 3494, "pitch": 89, "duration": 5, "velocity": 116}, {"time": 3506, "pitch": 89, "duration": 5, "velocity": 117}, {"time": 3512, "pitch": 88, "duration": 8, "velocity": 117}, {"time": 3524, "pitch": 86, "duration": 6, "velocity": 119}, {"time": 3530, "pitch": 84, "duration": 5, "velocity": 114}, {"time": 3536, "pitch": 86, "duration": 5, "velocity": 117}, {"time": 3542, "pitch": 86, "duration": 5, "velocity": 117}, {"time": 3554, "pitch": 84, "duration": 6, "velocity": 119}, {"time": 3560, "pitch": 81, "duration": 9, "velocity": 119}, {"time": 3584, "pitch": 84, "duration": 5, "velocity": 116}, {"time": 3590, "pitch": 84, "duration": 7, "velocity": 117}, {"time": 3602, "pitch": 81, "duration": 6, "velocity": 116}, {"time": 3608, "pitch": 84, "duration": 4, "velocity": 110}, {"time": 3614, "pitch": 86, "duration": 4, "velocity": 113}, {"time": 3620, "pitch": 88, "duration": 5, "velocity": 117}, {"time": 3626, "pitch": 89, "duration": 4, "velocity": 108}, {"time": 3629, "pitch": 88, "duration": 2, "velocity": 104}, {"time": 3632, "pitch": 86, "duration": 7, "velocity": 116}, {"time": 3680, "pitch": 81, "duration": 6, "velocity": 117}, {"time": 3686, "pitch": 84, "duration": 7, "velocity": 116}, {"time": 3698, "pitch": 81, "duration": 5, "velocity": 114}, {"time": 3704, "pitch": 79, "duration": 6, "velocity": 113}, {"time": 3710, "pitch": 81, "duration": 5, "velocity": 113}, {"time": 3716, "pitch": 84, "duration": 6, "velocity": 117}, {"time": 3728, "pitch": 81, "duration": 7, "velocity": 117}, {"time": 3737, "pitch": 79, "duration": 3, "velocity": 94}, {"time": 3740, "pitch": 77, "duration": 5, "velocity": 102}, {"time": 3746, "pitch": 79, "duration": 5, "velocity": 107}, {"time": 3752, "pitch": 79, "duration": 6, "velocity": 110}, {"time": 3758, "pitch": 76, "duration": 6, "velocity": 110}, {"time": 3776, "pitch": 74, "duration": 6, "velocity": 116}, {"time": 3785, "pitch": 74, "duration": 6, "velocity": 114}, {"time": 3794, "pitch": 77, "duration": 5, "velocity": 108}, {"time": 3800, "pitch": 72, "duration": 7, "velocity": 116}, {"time": 3812, "pitch": 72, "duration": 6, "velocity": 108}, {"time": 3818, "pitch": 74, "duration": 6, "velocity": 98}, {"time": 3824, "pitch": 77, "duration": 12, "velocity": 107}, {"time": 3872, "pitch": 74, "duration": 4, "velocity": 116}, {"time": 3878, "pitch": 74, "duration": 7, "velocity": 110}, {"time": 3890, "pitch": 77, "duration": 5, "velocity": 110}, {"time": 3896, "pitch": 72, "duration": 7, "velocity": 113}, {"time": 3908, "pitch": 72, "duration": 6, "velocity": 113}, {"time": 3914, "pitch": 74, "duration": 5, "velocity": 113}, {"time": 3920, "pitch": 77, "duration": 11, "velocity": 116}]}, {"program": 0, "is_drum": false, "name": "PIANO", "notes": [{"time": 36, "pitch": 53, "duration": 21, "velocity": 90}, {"time": 36, "pitch": 69, "duration": 15, "velocity": 102}, {"time": 36, "pitch": 72, "duration": 15, "velocity": 107}, {"time": 36, "pitch": 77, "duration": 15, "velocity": 93}, {"time": 57, "pitch": 48, "duration": 16, "velocity": 88}, {"time": 57, "pitch": 67, "duration": 15, "velocity": 98}, {"time": 57, "pitch": 72, "duration": 15, "velocity": 91}, {"time": 57, "pitch": 76, "duration": 16, "velocity": 92}, {"time": 81, "pitch": 46, "duration": 23, "velocity": 85}, {"time": 81, "pitch": 58, "duration": 13, "velocity": 86}, {"time": 81, "pitch": 65, "duration": 21, "velocity": 91}, {"time": 81, "pitch": 70, "duration": 21, "velocity": 100}, {"time": 81, "pitch": 74, "duration": 21, "velocity": 93}, {"time": 99, "pitch": 58, "duration": 5, "velocity": 91}, {"time": 105, "pitch": 53, "duration": 19, "velocity": 87}, {"time": 105, "pitch": 65, "duration": 17, "velocity": 93}, {"time": 105, "pitch": 69, "duration": 17, "velocity": 107}, {"time": 105, "pitch": 72, "duration": 16, "velocity": 92}, {"time": 129, "pitch": 53, "duration": 17, "velocity": 87}, {"time": 129, "pitch": 65, "duration": 16, "velocity": 98}, {"time": 129, "pitch": 69, "duration": 16, "velocity": 110}, {"time": 129, "pitch": 72, "duration": 16, "velocity": 102}, {"time": 153, "pitch": 48, "duration": 19, "velocity": 88}, {"time": 153, "pitch": 64, "duration": 13, "velocity": 94}, {"time": 153, "pitch": 67, "duration": 15, "velocity": 102}, {"time": 153, "pitch": 72, "duration": 13, "velocity": 90}, {"time": 165, "pitch": 60, "duration": 12, "velocity": 83}, {"time": 171, "pitch": 64, "duration": 3, "velocity": 84}, {"time": 171, "pitch": 67, "duration": 5, "velocity": 85}, {"time": 171, "pitch": 72, "duration": 3, "velocity": 86}, {"time": 177, "pitch": 50, "duration": 38, "velocity": 88}, {"time": 177, "pitch": 65, "duration": 20, "velocity": 88}, {"time": 177, "pitch": 69, "duration": 20, "velocity": 93}, {"time": 177, "pitch": 74, "duration": 19, "velocity": 94}, {"time": 201, "pitch": 65, "duration": 13, "velocity": 88}, {"time": 201, "pitch": 69, "duration": 15, "velocity": 92}, {"time": 201, "pitch": 74, "duration": 15, "velocity": 89}, {"time": 225, "pitch": 53, "duration": 17, "velocity": 85}, {"time": 225, "pitch": 65, "duration": 18, "velocity": 89}, {"time": 225, "pitch": 69, "duration": 19, "velocity": 98}, {"time": 225, "pitch": 72, "duration": 17, "velocity": 90}, {"time": 249, "pitch": 48, "duration": 18, "velocity": 87}, {"time": 249, "pitch": 64, "duration": 16, "velocity": 87}, {"time": 249, "pitch": 67, "duration": 16, "velocity": 88}, {"time": 249, "pitch": 72, "duration": 17, "velocity": 87}, {"time": 261, "pitch": 60, "duration": 6, "velocity": 78}, {"time": 273, "pitch": 53, "duration": 16, "velocity": 86}, {"time": 273, "pitch": 65, "duration": 16, "velocity": 91}, {"time": 273, "pitch": 69, "duration": 18, "velocity": 102}, {"time": 273, "pitch": 72, "duration": 16, "velocity": 90}, {"time": 297, "pitch": 48, "duration": 16, "velocity": 87}, {"time": 297, "pitch": 64, "duration": 16, "velocity": 90}, {"time": 297, "pitch": 67, "duration": 16, "velocity": 94}, {"time": 297, "pitch": 72, "duration": 17, "velocity": 90}, {"time": 321, "pitch": 46, "duration": 19, "velocity": 85}, {"time": 321, "pitch": 58, "duration": 18, "velocity": 84}, {"time": 321, "pitch": 62, "duration": 17, "velocity": 87}, {"time": 321, "pitch": 65, "duration": 18, "velocity": 92}, {"time": 321, "pitch": 70, "duration": 19, "velocity": 86}, {"time": 345, "pitch": 48, "duration": 21, "velocity": 82}, {"time": 345, "pitch": 64, "duration": 21, "velocity": 88}, {"time": 345, "pitch": 67, "duration": 21, "velocity": 91}, {"time": 345, "pitch": 72, "duration": 20, "velocity": 88}, {"time": 369, "pitch": 53, "duration": 39, "velocity": 80}, {"time": 369, "pitch": 65, "duration": 21, "velocity": 88}, {"time": 369, "pitch": 69, "duration": 20, "velocity": 89}, {"time": 369, "pitch": 72, "duration": 20, "velocity": 86}, {"time": 393, "pitch": 65, "duration": 15, "velocity": 88}, {"time": 393, "pitch": 69, "duration": 15, "velocity": 89}, {"time": 393, "pitch": 72, "duration": 16, "velocity": 87}, {"time": 417, "pitch": 53, "duration": 48, "velocity": 88}, {"time": 417, "pitch": 60, "duration": 20, "velocity": 84}, {"time": 417, "pitch": 65, "duration": 20, "velocity": 88}, {"time": 417, "pitch": 69, "duration": 19, "velocity": 87}, {"time": 441, "pitch": 60, "duration": 19, "velocity": 88}, {"time": 441, "pitch": 65, "duration": 20, "velocity": 91}, {"time": 441, "pitch": 69, "duration": 19, "velocity": 91}, {"time": 465, "pitch": 41, "duration": 41, "velocity": 87}, {"time": 465, "pitch": 60, "duration": 19, "velocity": 85}, {"time": 465, "pitch": 65, "duration": 19, "velocity": 86}, {"time": 465, "pitch": 69, "duration": 18, "velocity": 88}, {"time": 483, "pitch": 53, "duration": 10, "velocity": 86}, {"time": 489, "pitch": 60, "duration": 15, "velocity": 98}, {"time": 489, "pitch": 69, "duration": 13, "velocity": 100}, {"time": 501, "pitch": 53, "duration": 10, "velocity": 86}, {"time": 513, "pitch": 48, "duration": 42, "velocity": 88}, {"time": 513, "pitch": 64, "duration": 18, "velocity": 87}, {"time": 513, "pitch": 67, "duration": 18, "velocity": 90}, {"time": 513, "pitch": 72, "duration": 18, "velocity": 87}, {"time": 531, "pitch": 60, "duration": 10, "velocity": 87}, {"time": 537, "pitch": 64, "duration": 21, "velocity": 94}, {"time": 537, "pitch": 67, "duration": 21, "velocity": 100}, {"time": 537, "pitch": 72, "duration": 19, "velocity": 91}, {"time": 549, "pitch": 60, "duration": 13, "velocity": 87}, {"time": 561, "pitch": 48, "duration": 36, "velocity": 87}, {"time": 561, "pitch": 64, "duration": 17, "velocity": 90}, {"time": 561, "pitch": 67, "duration": 18, "velocity": 96}, {"time": 561, "pitch": 72, "duration": 17, "velocity": 90}, {"time": 573, "pitch": 55, "duration": 25, "velocity": 66}, {"time": 579, "pitch": 60, "duration": 9, "velocity": 83}, {"time": 585, "pitch": 64, "duration": 16, "velocity": 98}, {"time": 585, "pitch": 67, "duration": 21, "velocity": 102}, {"time": 585, "pitch": 72, "duration": 17, "velocity": 92}, {"time": 597, "pitch": 60, "duration": 13, "velocity": 81}, {"time": 609, "pitch": 53, "duration": 43, "velocity": 86}, {"time": 609, "pitch": 65, "duration": 17, "velocity": 86}, {"time": 609, "pitch": 69, "duration": 18, "velocity": 89}, {"time": 609, "pitch": 72, "duration": 17, "velocity": 88}, {"time": 627, "pitch": 60, "duration": 10, "velocity": 85}, {"time": 633, "pitch": 65, "duration": 18, "velocity": 100}, {"time": 633, "pitch": 69, "duration": 19, "velocity": 107}, {"time": 633, "pitch": 72, "duration": 16, "velocity": 94}, {"time": 645, "pitch": 60, "duration": 7, "velocity": 87}, {"time": 657, "pitch": 53, "duration": 42, "velocity": 87}, {"time": 657, "pitch": 60, "duration": 20, "velocity": 85}, {"time": 657, "pitch": 65, "duration": 21, "velocity": 88}, {"time": 657, "pitch": 69, "duration": 20, "velocity": 89}, {"time": 681, "pitch": 60, "duration": 14, "velocity": 90}, {"time": 681, "pitch": 65, "duration": 15, "velocity": 94}, {"time": 681, "pitch": 69, "duration": 15, "velocity": 91}, {"time": 705, "pitch": 41, "duration": 35, "velocity": 87}, {"time": 705, "pitch": 60, "duration": 17, "velocity": 89}, {"time": 705, "pitch": 65, "duration": 18, "velocity": 93}, {"time": 705, "pitch": 69, "duration": 17, "velocity": 91}, {"time": 723, "pitch": 53, "duration": 11, "velocity": 84}, {"time": 729, "pitch": 60, "duration": 19, "velocity": 91}, {"time": 729, "pitch": 65, "duration": 21, "velocity": 100}, {"time": 729, "pitch": 69, "duration": 18, "velocity": 93}, {"time": 741, "pitch": 53, "duration": 13, "velocity": 86}, {"time": 753, "pitch": 48, "duration": 44, "velocity": 86}, {"time": 753, "pitch": 60, "duration": 16, "velocity": 87}, {"time": 753, "pitch": 64, "duration": 18, "velocity": 92}, {"time": 753, "pitch": 67, "duration": 16, "velocity": 88}, {"time": 765, "pitch": 55, "duration": 15, "velocity": 74}, {"time": 777, "pitch": 60, "duration": 20, "velocity": 88}, {"time": 777, "pitch": 64, "duration": 21, "velocity": 94}, {"time": 777, "pitch": 67, "duration": 18, "velocity": 91}, {"time": 789, "pitch": 55, "duration": 13, "velocity": 84}, {"time": 801, "pitch": 41, "duration": 19, "velocity": 85}, {"time": 801, "pitch": 53, "duration": 20, "velocity": 87}, {"time": 801, "pitch": 60, "duration": 17, "velocity": 89}, {"time": 801, "pitch": 65, "duration": 23, "velocity": 92}, {"time": 801, "pitch": 69, "duration": 18, "velocity": 88}, {"time": 825, "pitch": 46, "duration": 19, "velocity": 87}, {"time": 825, "pitch": 62, "duration": 18, "velocity": 88}, {"time": 825, "pitch": 65, "duration": 21, "velocity": 90}, {"time": 825, "pitch": 70, "duration": 18, "velocity": 91}, {"time": 849, "pitch": 41, "duration": 14, "velocity": 87}, {"time": 849, "pitch": 53, "duration": 14, "velocity": 85}, {"time": 849, "pitch": 60, "duration": 15, "velocity": 86}, {"time": 849, "pitch": 65, "duration": 15, "velocity": 88}, {"time": 849, "pitch": 69, "duration": 15, "velocity": 88}, {"time": 873, "pitch": 53, "duration": 13, "velocity": 93}, {"time": 873, "pitch": 60, "duration": 12, "velocity": 87}, {"time": 873, "pitch": 65, "duration": 12, "velocity": 90}, {"time": 873, "pitch": 69, "duration": 13, "velocity": 88}, {"time": 897, "pitch": 45, "duration": 39, "velocity": 94}, {"time": 897, "pitch": 57, "duration": 19, "velocity": 91}, {"time": 897, "pitch": 60, "duration": 19, "velocity": 102}, {"time": 897, "pitch": 64, "duration": 17, "velocity": 100}, {"time": 921, "pitch": 57, "duration": 15, "velocity": 96}, {"time": 921, "pitch": 60, "duration": 16, "velocity": 104}, {"time": 921, "pitch": 64, "duration": 15, "velocity": 96}, {"time": 945, "pitch": 50, "duration": 38, "velocity": 87}, {"time": 945, "pitch": 62, "duration": 16, "velocity": 87}, {"time": 945, "pitch": 65, "duration": 17, "velocity": 88}, {"time": 945, "pitch": 69, "duration": 16, "velocity": 88}, {"time": 963, "pitch": 57, "duration": 15, "velocity": 36}, {"time": 969, "pitch": 62, "duration": 16, "velocity": 92}, {"time": 969, "pitch": 65, "duration": 17, "velocity": 92}, {"time": 969, "pitch": 69, "duration": 15, "velocity": 89}, {"time": 993, "pitch": 41, "duration": 37, "velocity": 89}, {"time": 993, "pitch": 60, "duration": 18, "velocity": 83}, {"time": 993, "pitch": 65, "duration": 19, "velocity": 88}, {"time": 993, "pitch": 69, "duration": 18, "velocity": 87}, {"time": 1011, "pitch": 53, "duration": 9, "velocity": 81}, {"time": 1017, "pitch": 60, "duration": 15, "velocity": 107}, {"time": 1017, "pitch": 65, "duration": 17, "velocity": 108}, {"time": 1017, "pitch": 69, "duration": 15, "velocity": 100}, {"time": 1026, "pitch": 53, "duration": 5, "velocity": 89}, {"time": 1041, "pitch": 46, "duration": 41, "velocity": 87}, {"time": 1041, "pitch": 62, "duration": 17, "velocity": 94}, {"time": 1041, "pitch": 65, "duration": 17, "velocity": 104}, {"time": 1041, "pitch": 70, "duration": 18, "velocity": 88}, {"time": 1056, "pitch": 58, "duration": 8, "velocity": 79}, {"time": 1062, "pitch": 62, "duration": 17, "velocity": 93}, {"time": 1062, "pitch": 65, "duration": 21, "velocity": 108}, {"time": 1062, "pitch": 70, "duration": 19, "velocity": 93}, {"time": 1074, "pitch": 58, "duration": 8, "velocity": 83}, {"time": 1089, "pitch": 48, "duration": 42, "velocity": 87}, {"time": 1089, "pitch": 64, "duration": 18, "velocity": 91}, {"time": 1089, "pitch": 67, "duration": 19, "velocity": 102}, {"time": 1089, "pitch": 72, "duration": 18, "velocity": 93}, {"time": 1101, "pitch": 55, "duration": 30, "velocity": 76}, {"time": 1107, "pitch": 60, "duration": 10, "velocity": 84}, {"time": 1113, "pitch": 64, "duration": 17, "velocity": 100}, {"time": 1113, "pitch": 67, "duration": 18, "velocity": 108}, {"time": 1113, "pitch": 72, "duration": 17, "velocity": 100}, {"time": 1125, "pitch": 60, "duration": 6, "velocity": 82}, {"time": 1137, "pitch": 41, "duration": 36, "velocity": 91}, {"time": 1137, "pitch": 60, "duration": 18, "velocity": 93}, {"time": 1137, "pitch": 65, "duration": 18, "velocity": 93}, {"time": 1137, "pitch": 69, "duration": 17, "velocity": 89}, {"time": 1155, "pitch": 53, "duration": 8, "velocity": 89}, {"time": 1161, "pitch": 60, "duration": 19, "velocity": 107}, {"time": 1161, "pitch": 65, "duration": 19, "velocity": 114}, {"time": 1161, "pitch": 69, "duration": 18, "velocity": 108}, {"time": 1173, "pitch": 48, "duration": 12, "velocity": 89}, {"time": 1179, "pitch": 53, "duration": 5, "velocity": 90}, {"time": 1185, "pitch": 46, "duration": 17, "velocity": 90}, {"time": 1185, "pitch": 62, "duration": 17, "velocity": 92}, {"time": 1185, "pitch": 65, "duration": 21, "velocity": 100}, {"time": 1185, "pitch": 70, "duration": 20, "velocity": 88}, {"time": 1203, "pitch": 58, "duration": 8, "velocity": 83}, {"time": 1209, "pitch": 48, "duration": 18, "velocity": 88}, {"time": 1209, "pitch": 64, "duration": 17, "velocity": 98}, {"time": 1209, "pitch": 67, "duration": 15, "velocity": 108}, {"time": 1209, "pitch": 72, "duration": 13, "velocity": 100}, {"time": 1221, "pitch": 55, "duration": 7, "velocity": 85}, {"time": 1233, "pitch": 41, "duration": 39, "velocity": 90}, {"time": 1233, "pitch": 60, "duration": 17, "velocity": 90}, {"time": 1233, "pitch": 65, "duration": 16, "velocity": 93}, {"time": 1233, "pitch": 69, "duration": 16, "velocity": 89}, {"time": 1251, "pitch": 53, "duration": 10, "velocity": 87}, {"time": 1257, "pitch": 57, "duration": 16, "velocity": 96}, {"time": 1257, "pitch": 60, "duration": 18, "velocity": 102}, {"time": 1257, "pitch": 65, "duration": 17, "velocity": 102}, {"time": 1266, "pitch": 53, "duration": 8, "velocity": 91}, {"time": 1281, "pitch": 41, "duration": 38, "velocity": 91}, {"time": 1281, "pitch": 60, "duration": 18, "velocity": 94}, {"time": 1281, "pitch": 65, "duration": 18, "velocity": 100}, {"time": 1281, "pitch": 69, "duration": 18, "velocity": 88}, {"time": 1299, "pitch": 53, "duration": 9, "velocity": 87}, {"time": 1305, "pitch": 60, "duration": 19, "velocity": 100}, {"time": 1305, "pitch": 65, "duration": 20, "velocity": 108}, {"time": 1305, "pitch": 69, "duration": 19, "velocity": 102}, {"time": 1317, "pitch": 53, "duration": 10, "velocity": 87}, {"time": 1329, "pitch": 48, "duration": 40, "velocity": 88}, {"time": 1329, "pitch": 60, "duration": 12, "velocity": 87}, {"time": 1329, "pitch": 64, "duration": 19, "velocity": 91}, {"time": 1329, "pitch": 67, "duration": 18, "velocity": 88}, {"time": 1347, "pitch": 55, "duration": 9, "velocity": 88}, {"time": 1353, "pitch": 60, "duration": 17, "velocity": 108}, {"time": 1353, "pitch": 64, "duration": 18, "velocity": 113}, {"time": 1353, "pitch": 67, "duration": 19, "velocity": 113}, {"time": 1365, "pitch": 55, "duration": 3, "velocity": 88}, {"time": 1377, "pitch": 41, "duration": 37, "velocity": 88}, {"time": 1377, "pitch": 60, "duration": 16, "velocity": 92}, {"time": 1377, "pitch": 65, "duration": 17, "velocity": 98}, {"time": 1377, "pitch": 69, "duration": 17, "velocity": 92}, {"time": 1395, "pitch": 53, "duration": 9, "velocity": 83}, {"time": 1401, "pitch": 60, "duration": 16, "velocity": 104}, {"time": 1401, "pitch": 65, "duration": 18, "velocity": 113}, {"time": 1401, "pitch": 69, "duration": 17, "velocity": 108}, {"time": 1413, "pitch": 53, "duration": 8, "velocity": 88}, {"time": 1425, "pitch": 46, "duration": 41, "velocity": 90}, {"time": 1425, "pitch": 62, "duration": 16, "velocity": 89}, {"time": 1425, "pitch": 65, "duration": 17, "velocity": 96}, {"time": 1425, "pitch": 70, "duration": 17, "velocity": 86}, {"time": 1443, "pitch": 58, "duration": 8, "velocity": 91}, {"time": 1449, "pitch": 62, "duration": 17, "velocity": 98}, {"time": 1449, "pitch": 65, "duration": 19, "velocity": 110}, {"time": 1449, "pitch": 70, "duration": 17, "velocity": 106}, {"time": 1458, "pitch": 58, "duration": 7, "velocity": 106}, {"time": 1473, "pitch": 48, "duration": 31, "velocity": 91}, {"time": 1473, "pitch": 64, "duration": 14, "velocity": 98}, {"time": 1473, "pitch": 67, "duration": 18, "velocity": 108}, {"time": 1473, "pitch": 72, "duration": 17, "velocity": 98}, {"time": 1482, "pitch": 55, "duration": 16, "velocity": 81}, {"time": 1491, "pitch": 60, "duration": 9, "velocity": 100}, {"time": 1497, "pitch": 64, "duration": 15, "velocity": 110}, {"time": 1497, "pitch": 67, "duration": 13, "velocity": 116}, {"time": 1497, "pitch": 72, "duration": 12, "velocity": 108}, {"time": 1509, "pitch": 48, "duration": 8, "velocity": 87}, {"time": 1521, "pitch": 48, "duration": 27, "velocity": 96}, {"time": 1521, "pitch": 64, "duration": 12, "velocity": 91}, {"time": 1521, "pitch": 67, "duration": 18, "velocity": 102}, {"time": 1521, "pitch": 72, "duration": 16, "velocity": 90}, {"time": 1539, "pitch": 60, "duration": 8, "velocity": 102}, {"time": 1545, "pitch": 64, "duration": 15, "velocity": 113}, {"time": 1545, "pitch": 67, "duration": 19, "velocity": 116}, {"time": 1545, "pitch": 72, "duration": 20, "velocity": 108}, {"time": 1557, "pitch": 48, "duration": 10, "velocity": 113}, {"time": 1569, "pitch": 46, "duration": 17, "velocity": 90}, {"time": 1569, "pitch": 62, "duration": 17, "velocity": 92}, {"time": 1569, "pitch": 65, "duration": 21, "velocity": 100}, {"time": 1569, "pitch": 70, "duration": 20, "velocity": 88}, {"time": 1587, "pitch": 58, "duration": 8, "velocity": 83}, {"time": 1593, "pitch": 48, "duration": 18, "velocity": 88}, {"time": 1593, "pitch": 64, "duration": 17, "velocity": 98}, {"time": 1593, "pitch": 67, "duration": 15, "velocity": 108}, {"time": 1593, "pitch": 72, "duration": 13, "velocity": 100}, {"time": 1605, "pitch": 55, "duration": 7, "velocity": 85}, {"time": 1617, "pitch": 41, "duration": 39, "velocity": 90}, {"time": 1617, "pitch": 60, "duration": 17, "velocity": 90}, {"time": 1617, "pitch": 65, "duration": 16, "velocity": 93}, {"time": 1617, "pitch": 69, "duration": 16, "velocity": 89}, {"time": 1635, "pitch": 53, "duration": 10, "velocity": 87}, {"time": 1641, "pitch": 57, "duration": 16, "velocity": 96}, {"time": 1641, "pitch": 60, "duration": 18, "velocity": 102}, {"time": 1641, "pitch": 65, "duration": 17, "velocity": 102}, {"time": 1650, "pitch": 53, "duration": 8, "velocity": 91}, {"time": 1665, "pitch": 41, "duration": 38, "velocity": 91}, {"time": 1665, "pitch": 60, "duration": 18, "velocity": 94}, {"time": 1665, "pitch": 65, "duration": 18, "velocity": 100}, {"time": 1665, "pitch": 69, "duration": 18, "velocity": 88}, {"time": 1683, "pitch": 53, "duration": 9, "velocity": 87}, {"time": 1689, "pitch": 60, "duration": 19, "velocity": 100}, {"time": 1689, "pitch": 65, "duration": 20, "velocity": 108}, {"time": 1689, "pitch": 69, "duration": 19, "velocity": 102}, {"time": 1701, "pitch": 53, "duration": 10, "velocity": 87}, {"time": 1713, "pitch": 48, "duration": 40, "velocity": 88}, {"time": 1713, "pitch": 60, "duration": 12, "velocity": 87}, {"time": 1713, "pitch": 64, "duration": 19, "velocity": 91}, {"time": 1713, "pitch": 67, "duration": 18, "velocity": 88}, {"time": 1731, "pitch": 55, "duration": 9, "velocity": 88}, {"time": 1737, "pitch": 60, "duration": 17, "velocity": 108}, {"time": 1737, "pitch": 64, "duration": 18, "velocity": 113}, {"time": 1737, "pitch": 67, "duration": 19, "velocity": 113}, {"time": 1749, "pitch": 55, "duration": 3, "velocity": 88}, {"time": 1761, "pitch": 41, "duration": 37, "velocity": 88}, {"time": 1761, "pitch": 60, "duration": 16, "velocity": 92}, {"time": 1761, "pitch": 65, "duration": 17, "velocity": 98}, {"time": 1761, "pitch": 69, "duration": 17, "velocity": 92}, {"time": 1779, "pitch": 53, "duration": 9, "velocity": 83}, {"time": 1785, "pitch": 60, "duration": 16, "velocity": 104}, {"time": 1785, "pitch": 65, "duration": 18, "velocity": 113}, {"time": 1785, "pitch": 69, "duration": 17, "velocity": 108}, {"time": 1797, "pitch": 53, "duration": 8, "velocity": 88}, {"time": 1809, "pitch": 46, "duration": 41, "velocity": 90}, {"time": 1809, "pitch": 62, "duration": 16, "velocity": 89}, {"time": 1809, "pitch": 65, "duration": 17, "velocity": 96}, {"time": 1809, "pitch": 70, "duration": 17, "velocity": 86}, {"time": 1827, "pitch": 58, "duration": 8, "velocity": 91}, {"time": 1833, "pitch": 62, "duration": 17, "velocity": 98}, {"time": 1833, "pitch": 65, "duration": 19, "velocity": 110}, {"time": 1833, "pitch": 70, "duration": 17, "velocity": 106}, {"time": 1842, "pitch": 58, "duration": 7, "velocity": 106}, {"time": 1857, "pitch": 48, "duration": 31, "velocity": 91}, {"time": 1857, "pitch": 64, "duration": 14, "velocity": 98}, {"time": 1857, "pitch": 67, "duration": 18, "velocity": 108}, {"time": 1857, "pitch": 72, "duration": 17, "velocity": 98}, {"time": 1866, "pitch": 55, "duration": 16, "velocity": 81}, {"time": 1875, "pitch": 60, "duration": 9, "velocity": 100}, {"time": 1881, "pitch": 64, "duration": 15, "velocity": 110}, {"time": 1881, "pitch": 67, "duration": 13, "velocity": 116}, {"time": 1881, "pitch": 72, "duration": 12, "velocity": 108}, {"time": 1893, "pitch": 48, "duration": 8, "velocity": 87}, {"time": 1905, "pitch": 48, "duration": 27, "velocity": 96}, {"time": 1905, "pitch": 64, "duration": 12, "velocity": 91}, {"time": 1905, "pitch": 67, "duration": 18, "velocity": 102}, {"time": 1905, "pitch": 72, "duration": 16, "velocity": 90}, {"time": 1923, "pitch": 60, "duration": 8, "velocity": 102}, {"time": 1929, "pitch": 64, "duration": 15, "velocity": 113}, {"time": 1929, "pitch": 67, "duration": 19, "velocity": 116}, {"time": 1929, "pitch": 72, "duration": 20, "velocity": 108}, {"time": 1941, "pitch": 48, "duration": 10, "velocity": 113}, {"time": 1953, "pitch": 53, "duration": 21, "velocity": 90}, {"time": 1953, "pitch": 69, "duration": 15, "velocity": 102}, {"time": 1953, "pitch": 72, "duration": 15, "velocity": 107}, {"time": 1956, "pitch": 77, "duration": 15, "velocity": 93}, {"time": 1977, "pitch": 48, "duration": 16, "velocity": 88}, {"time": 1977, "pitch": 67, "duration": 15, "velocity": 98}, {"time": 1977, "pitch": 72, "duration": 15, "velocity": 91}, {"time": 1977, "pitch": 76, "duration": 16, "velocity": 92}, {"time": 2001, "pitch": 46, "duration": 23, "velocity": 85}, {"time": 2001, "pitch": 58, "duration": 13, "velocity": 86}, {"time": 2001, "pitch": 65, "duration": 21, "velocity": 91}, {"time": 2001, "pitch": 70, "duration": 21, "velocity": 100}, {"time": 2001, "pitch": 74, "duration": 21, "velocity": 93}, {"time": 2019, "pitch": 58, "duration": 5, "velocity": 91}, {"time": 2025, "pitch": 53, "duration": 19, "velocity": 87}, {"time": 2025, "pitch": 65, "duration": 17, "velocity": 93}, {"time": 2025, "pitch": 69, "duration": 17, "velocity": 107}, {"time": 2025, "pitch": 72, "duration": 16, "velocity": 92}, {"time": 2049, "pitch": 53, "duration": 17, "velocity": 87}, {"time": 2049, "pitch": 65, "duration": 16, "velocity": 98}, {"time": 2049, "pitch": 69, "duration": 16, "velocity": 110}, {"time": 2049, "pitch": 72, "duration": 16, "velocity": 102}, {"time": 2073, "pitch": 48, "duration": 19, "velocity": 88}, {"time": 2073, "pitch": 64, "duration": 13, "velocity": 94}, {"time": 2073, "pitch": 67, "duration": 15, "velocity": 102}, {"time": 2073, "pitch": 72, "duration": 13, "velocity": 90}, {"time": 2085, "pitch": 60, "duration": 12, "velocity": 83}, {"time": 2091, "pitch": 64, "duration": 3, "velocity": 84}, {"time": 2091, "pitch": 67, "duration": 5, "velocity": 85}, {"time": 2091, "pitch": 72, "duration": 3, "velocity": 86}, {"time": 2097, "pitch": 50, "duration": 38, "velocity": 88}, {"time": 2097, "pitch": 65, "duration": 20, "velocity": 88}, {"time": 2097, "pitch": 69, "duration": 20, "velocity": 93}, {"time": 2097, "pitch": 74, "duration": 19, "velocity": 94}, {"time": 2121, "pitch": 65, "duration": 13, "velocity": 88}, {"time": 2121, "pitch": 69, "duration": 15, "velocity": 92}, {"time": 2121, "pitch": 74, "duration": 15, "velocity": 89}, {"time": 2145, "pitch": 53, "duration": 17, "velocity": 85}, {"time": 2145, "pitch": 65, "duration": 18, "velocity": 89}, {"time": 2145, "pitch": 69, "duration": 19, "velocity": 98}, {"time": 2145, "pitch": 72, "duration": 17, "velocity": 90}, {"time": 2169, "pitch": 48, "duration": 18, "velocity": 87}, {"time": 2169, "pitch": 64, "duration": 16, "velocity": 87}, {"time": 2169, "pitch": 67, "duration": 16, "velocity": 88}, {"time": 2169, "pitch": 72, "duration": 17, "velocity": 87}, {"time": 2181, "pitch": 60, "duration": 6, "velocity": 78}, {"time": 2193, "pitch": 53, "duration": 16, "velocity": 86}, {"time": 2193, "pitch": 65, "duration": 16, "velocity": 91}, {"time": 2193, "pitch": 69, "duration": 18, "velocity": 102}, {"time": 2193, "pitch": 72, "duration": 16, "velocity": 90}, {"time": 2217, "pitch": 48, "duration": 16, "velocity": 87}, {"time": 2217, "pitch": 64, "duration": 16, "velocity": 90}, {"time": 2217, "pitch": 67, "duration": 16, "velocity": 94}, {"time": 2217, "pitch": 72, "duration": 17, "velocity": 90}, {"time": 2241, "pitch": 46, "duration": 19, "velocity": 85}, {"time": 2241, "pitch": 58, "duration": 18, "velocity": 84}, {"time": 2241, "pitch": 62, "duration": 17, "velocity": 87}, {"time": 2241, "pitch": 65, "duration": 18, "velocity": 92}, {"time": 2241, "pitch": 70, "duration": 19, "velocity": 86}, {"time": 2265, "pitch": 48, "duration": 21, "velocity": 82}, {"time": 2265, "pitch": 64, "duration": 21, "velocity": 88}, {"time": 2265, "pitch": 67, "duration": 21, "velocity": 91}, {"time": 2265, "pitch": 72, "duration": 20, "velocity": 88}, {"time": 2289, "pitch": 53, "duration": 39, "velocity": 80}, {"time": 2289, "pitch": 65, "duration": 21, "velocity": 88}, {"time": 2289, "pitch": 69, "duration": 20, "velocity": 89}, {"time": 2289, "pitch": 72, "duration": 20, "velocity": 86}, {"time": 2313, "pitch": 65, "duration": 15, "velocity": 88}, {"time": 2313, "pitch": 69, "duration": 15, "velocity": 89}, {"time": 2313, "pitch": 72, "duration": 16, "velocity": 87}, {"time": 2336, "pitch": 53, "duration": 48, "velocity": 88}, {"time": 2336, "pitch": 60, "duration": 20, "velocity": 84}, {"time": 2336, "pitch": 65, "duration": 20, "velocity": 88}, {"time": 2336, "pitch": 69, "duration": 19, "velocity": 87}, {"time": 2360, "pitch": 60, "duration": 20, "velocity": 88}, {"time": 2360, "pitch": 65, "duration": 21, "velocity": 91}, {"time": 2360, "pitch": 69, "duration": 19, "velocity": 91}, {"time": 2384, "pitch": 41, "duration": 41, "velocity": 87}, {"time": 2384, "pitch": 60, "duration": 19, "velocity": 85}, {"time": 2384, "pitch": 65, "duration": 19, "velocity": 86}, {"time": 2384, "pitch": 69, "duration": 19, "velocity": 88}, {"time": 2402, "pitch": 53, "duration": 11, "velocity": 86}, {"time": 2408, "pitch": 60, "duration": 15, "velocity": 98}, {"time": 2408, "pitch": 69, "duration": 13, "velocity": 100}, {"time": 2420, "pitch": 53, "duration": 10, "velocity": 86}, {"time": 2432, "pitch": 48, "duration": 43, "velocity": 88}, {"time": 2432, "pitch": 64, "duration": 18, "velocity": 87}, {"time": 2432, "pitch": 67, "duration": 18, "velocity": 90}, {"time": 2432, "pitch": 72, "duration": 18, "velocity": 87}, {"time": 2450, "pitch": 60, "duration": 11, "velocity": 87}, {"time": 2456, "pitch": 64, "duration": 21, "velocity": 94}, {"time": 2456, "pitch": 67, "duration": 21, "velocity": 100}, {"time": 2456, "pitch": 72, "duration": 19, "velocity": 91}, {"time": 2468, "pitch": 60, "duration": 13, "velocity": 87}, {"time": 2480, "pitch": 48, "duration": 36, "velocity": 87}, {"time": 2480, "pitch": 64, "duration": 17, "velocity": 90}, {"time": 2480, "pitch": 67, "duration": 18, "velocity": 96}, {"time": 2480, "pitch": 72, "duration": 17, "velocity": 90}, {"time": 2492, "pitch": 55, "duration": 26, "velocity": 66}, {"time": 2498, "pitch": 60, "duration": 10, "velocity": 83}, {"time": 2504, "pitch": 64, "duration": 16, "velocity": 98}, {"time": 2504, "pitch": 67, "duration": 21, "velocity": 102}, {"time": 2504, "pitch": 72, "duration": 17, "velocity": 92}, {"time": 2516, "pitch": 60, "duration": 13, "velocity": 81}, {"time": 2528, "pitch": 53, "duration": 43, "velocity": 86}, {"time": 2528, "pitch": 65, "duration": 18, "velocity": 86}, {"time": 2528, "pitch": 69, "duration": 19, "velocity": 89}, {"time": 2528, "pitch": 72, "duration": 18, "velocity": 88}, {"time": 2546, "pitch": 60, "duration": 10, "velocity": 85}, {"time": 2552, "pitch": 65, "duration": 18, "velocity": 100}, {"time": 2552, "pitch": 69, "duration": 19, "velocity": 107}, {"time": 2552, "pitch": 72, "duration": 16, "velocity": 94}, {"time": 2564, "pitch": 60, "duration": 7, "velocity": 87}, {"time": 2576, "pitch": 53, "duration": 42, "velocity": 87}, {"time": 2576, "pitch": 60, "duration": 20, "velocity": 85}, {"time": 2576, "pitch": 65, "duration": 21, "velocity": 88}, {"time": 2576, "pitch": 69, "duration": 20, "velocity": 89}, {"time": 2600, "pitch": 60, "duration": 14, "velocity": 90}, {"time": 2600, "pitch": 65, "duration": 16, "velocity": 94}, {"time": 2600, "pitch": 69, "duration": 15, "velocity": 91}, {"time": 2624, "pitch": 41, "duration": 36, "velocity": 87}, {"time": 2624, "pitch": 60, "duration": 18, "velocity": 89}, {"time": 2624, "pitch": 65, "duration": 18, "velocity": 93}, {"time": 2624, "pitch": 69, "duration": 18, "velocity": 91}, {"time": 2642, "pitch": 53, "duration": 11, "velocity": 84}, {"time": 2648, "pitch": 60, "duration": 19, "velocity": 91}, {"time": 2648, "pitch": 65, "duration": 21, "velocity": 100}, {"time": 2648, "pitch": 69, "duration": 19, "velocity": 93}, {"time": 2660, "pitch": 53, "duration": 13, "velocity": 86}, {"time": 2672, "pitch": 48, "duration": 45, "velocity": 86}, {"time": 2672, "pitch": 60, "duration": 16, "velocity": 87}, {"time": 2672, "pitch": 64, "duration": 19, "velocity": 92}, {"time": 2672, "pitch": 67, "duration": 16, "velocity": 88}, {"time": 2684, "pitch": 55, "duration": 15, "velocity": 74}, {"time": 2696, "pitch": 60, "duration": 20, "velocity": 88}, {"time": 2696, "pitch": 64, "duration": 21, "velocity": 94}, {"time": 2696, "pitch": 67, "duration": 18, "velocity": 91}, {"time": 2708, "pitch": 55, "duration": 13, "velocity": 84}, {"time": 2720, "pitch": 41, "duration": 19, "velocity": 85}, {"time": 2720, "pitch": 53, "duration": 21, "velocity": 87}, {"time": 2720, "pitch": 60, "duration": 18, "velocity": 89}, {"time": 2720, "pitch": 65, "duration": 23, "velocity": 92}, {"time": 2720, "pitch": 69, "duration": 18, "velocity": 88}, {"time": 2744, "pitch": 46, "duration": 19, "velocity": 87}, {"time": 2744, "pitch": 62, "duration": 18, "velocity": 88}, {"time": 2744, "pitch": 65, "duration": 21, "velocity": 90}, {"time": 2744, "pitch": 70, "duration": 18, "velocity": 91}, {"time": 2768, "pitch": 41, "duration": 14, "velocity": 87}, {"time": 2768, "pitch": 53, "duration": 14, "velocity": 85}, {"time": 2768, "pitch": 60, "duration": 15, "velocity": 86}, {"time": 2768, "pitch": 65, "duration": 15, "velocity": 88}, {"time": 2768, "pitch": 69, "duration": 15, "velocity": 88}, {"time": 2792, "pitch": 53, "duration": 13, "velocity": 93}, {"time": 2792, "pitch": 60, "duration": 12, "velocity": 87}, {"time": 2792, "pitch": 65, "duration": 13, "velocity": 90}, {"time": 2792, "pitch": 69, "duration": 13, "velocity": 88}, {"time": 2816, "pitch": 45, "duration": 39, "velocity": 94}, {"time": 2816, "pitch": 57, "duration": 20, "velocity": 91}, {"time": 2816, "pitch": 60, "duration": 20, "velocity": 102}, {"time": 2816, "pitch": 64, "duration": 18, "velocity": 100}, {"time": 2840, "pitch": 57, "duration": 16, "velocity": 96}, {"time": 2840, "pitch": 60, "duration": 16, "velocity": 104}, {"time": 2840, "pitch": 64, "duration": 16, "velocity": 96}, {"time": 2864, "pitch": 50, "duration": 38, "velocity": 87}, {"time": 2864, "pitch": 62, "duration": 17, "velocity": 87}, {"time": 2864, "pitch": 65, "duration": 17, "velocity": 88}, {"time": 2864, "pitch": 69, "duration": 16, "velocity": 88}, {"time": 2882, "pitch": 57, "duration": 15, "velocity": 36}, {"time": 2888, "pitch": 62, "duration": 16, "velocity": 92}, {"time": 2888, "pitch": 65, "duration": 17, "velocity": 92}, {"time": 2888, "pitch": 69, "duration": 16, "velocity": 89}, {"time": 2912, "pitch": 41, "duration": 37, "velocity": 89}, {"time": 2912, "pitch": 60, "duration": 18, "velocity": 83}, {"time": 2912, "pitch": 65, "duration": 19, "velocity": 88}, {"time": 2912, "pitch": 69, "duration": 18, "velocity": 87}, {"time": 2930, "pitch": 53, "duration": 9, "velocity": 81}, {"time": 2936, "pitch": 60, "duration": 15, "velocity": 107}, {"time": 2936, "pitch": 65, "duration": 17, "velocity": 108}, {"time": 2936, "pitch": 69, "duration": 16, "velocity": 100}, {"time": 2945, "pitch": 53, "duration": 6, "velocity": 89}, {"time": 2960, "pitch": 46, "duration": 41, "velocity": 87}, {"time": 2960, "pitch": 62, "duration": 17, "velocity": 94}, {"time": 2960, "pitch": 65, "duration": 18, "velocity": 104}, {"time": 2960, "pitch": 70, "duration": 18, "velocity": 88}, {"time": 2975, "pitch": 58, "duration": 9, "velocity": 79}, {"time": 2981, "pitch": 62, "duration": 17, "velocity": 93}, {"time": 2981, "pitch": 65, "duration": 21, "velocity": 108}, {"time": 2981, "pitch": 70, "duration": 19, "velocity": 93}, {"time": 2993, "pitch": 58, "duration": 8, "velocity": 83}, {"time": 3008, "pitch": 48, "duration": 43, "velocity": 87}, {"time": 3008, "pitch": 64, "duration": 18, "velocity": 91}, {"time": 3008, "pitch": 67, "duration": 19, "velocity": 102}, {"time": 3008, "pitch": 72, "duration": 18, "velocity": 93}, {"time": 3020, "pitch": 55, "duration": 30, "velocity": 76}, {"time": 3026, "pitch": 60, "duration": 10, "velocity": 84}, {"time": 3032, "pitch": 64, "duration": 17, "velocity": 100}, {"time": 3032, "pitch": 67, "duration": 18, "velocity": 108}, {"time": 3032, "pitch": 72, "duration": 17, "velocity": 100}, {"time": 3044, "pitch": 60, "duration": 7, "velocity": 82}, {"time": 3056, "pitch": 41, "duration": 36, "velocity": 91}, {"time": 3056, "pitch": 60, "duration": 18, "velocity": 93}, {"time": 3056, "pitch": 65, "duration": 19, "velocity": 93}, {"time": 3056, "pitch": 69, "duration": 18, "velocity": 89}, {"time": 3074, "pitch": 53, "duration": 8, "velocity": 89}, {"time": 3080, "pitch": 60, "duration": 20, "velocity": 107}, {"time": 3080, "pitch": 65, "duration": 19, "velocity": 114}, {"time": 3080, "pitch": 69, "duration": 19, "velocity": 108}, {"time": 3092, "pitch": 48, "duration": 12, "velocity": 89}, {"time": 3098, "pitch": 53, "duration": 5, "velocity": 90}, {"time": 3104, "pitch": 46, "duration": 17, "velocity": 90}, {"time": 3104, "pitch": 62, "duration": 17, "velocity": 92}, {"time": 3104, "pitch": 65, "duration": 22, "velocity": 100}, {"time": 3104, "pitch": 70, "duration": 20, "velocity": 88}, {"time": 3122, "pitch": 58, "duration": 8, "velocity": 83}, {"time": 3128, "pitch": 48, "duration": 18, "velocity": 88}, {"time": 3128, "pitch": 64, "duration": 18, "velocity": 98}, {"time": 3128, "pitch": 67, "duration": 15, "velocity": 108}, {"time": 3128, "pitch": 72, "duration": 13, "velocity": 100}, {"time": 3140, "pitch": 55, "duration": 8, "velocity": 85}, {"time": 3152, "pitch": 41, "duration": 39, "velocity": 90}, {"time": 3152, "pitch": 60, "duration": 17, "velocity": 90}, {"time": 3152, "pitch": 65, "duration": 16, "velocity": 93}, {"time": 3152, "pitch": 69, "duration": 16, "velocity": 89}, {"time": 3170, "pitch": 53, "duration": 10, "velocity": 87}, {"time": 3176, "pitch": 57, "duration": 16, "velocity": 96}, {"time": 3176, "pitch": 60, "duration": 18, "velocity": 102}, {"time": 3176, "pitch": 65, "duration": 17, "velocity": 102}, {"time": 3185, "pitch": 53, "duration": 9, "velocity": 91}, {"time": 3200, "pitch": 41, "duration": 39, "velocity": 91}, {"time": 3200, "pitch": 60, "duration": 18, "velocity": 94}, {"time": 3200, "pitch": 65, "duration": 18, "velocity": 100}, {"time": 3200, "pitch": 69, "duration": 18, "velocity": 88}, {"time": 3218, "pitch": 53, "duration": 10, "velocity": 87}, {"time": 3224, "pitch": 60, "duration": 19, "velocity": 100}, {"time": 3224, "pitch": 65, "duration": 20, "velocity": 108}, {"time": 3224, "pitch": 69, "duration": 19, "velocity": 102}, {"time": 3236, "pitch": 53, "duration": 10, "velocity": 87}, {"time": 3248, "pitch": 48, "duration": 41, "velocity": 88}, {"time": 3248, "pitch": 60, "duration": 13, "velocity": 87}, {"time": 3248, "pitch": 64, "duration": 19, "velocity": 91}, {"time": 3248, "pitch": 67, "duration": 18, "velocity": 88}, {"time": 3266, "pitch": 55, "duration": 9, "velocity": 88}, {"time": 3272, "pitch": 60, "duration": 17, "velocity": 108}, {"time": 3272, "pitch": 64, "duration": 18, "velocity": 113}, {"time": 3272, "pitch": 67, "duration": 19, "velocity": 113}, {"time": 3284, "pitch": 55, "duration": 4, "velocity": 88}, {"time": 3296, "pitch": 41, "duration": 38, "velocity": 88}, {"time": 3296, "pitch": 60, "duration": 16, "velocity": 92}, {"time": 3296, "pitch": 65, "duration": 18, "velocity": 98}, {"time": 3296, "pitch": 69, "duration": 17, "velocity": 92}, {"time": 3314, "pitch": 53, "duration": 9, "velocity": 83}, {"time": 3320, "pitch": 60, "duration": 17, "velocity": 104}, {"time": 3320, "pitch": 65, "duration": 18, "velocity": 113}, {"time": 3320, "pitch": 69, "duration": 18, "velocity": 108}, {"time": 3332, "pitch": 53, "duration": 8, "velocity": 88}, {"time": 3344, "pitch": 46, "duration": 41, "velocity": 90}, {"time": 3344, "pitch": 62, "duration": 17, "velocity": 89}, {"time": 3344, "pitch": 65, "duration": 17, "velocity": 96}, {"time": 3344, "pitch": 70, "duration": 17, "velocity": 86}, {"time": 3362, "pitch": 58, "duration": 8, "velocity": 91}, {"time": 3368, "pitch": 62, "duration": 17, "velocity": 98}, {"time": 3368, "pitch": 65, "duration": 19, "velocity": 110}, {"time": 3368, "pitch": 70, "duration": 18, "velocity": 106}, {"time": 3377, "pitch": 58, "duration": 8, "velocity": 106}, {"time": 3392, "pitch": 48, "duration": 31, "velocity": 91}, {"time": 3392, "pitch": 64, "duration": 15, "velocity": 98}, {"time": 3392, "pitch": 67, "duration": 18, "velocity": 108}, {"time": 3392, "pitch": 72, "duration": 18, "velocity": 98}, {"time": 3401, "pitch": 55, "duration": 17, "velocity": 81}, {"time": 3410, "pitch": 60, "duration": 9, "velocity": 100}, {"time": 3416, "pitch": 64, "duration": 15, "velocity": 110}, {"time": 3416, "pitch": 67, "duration": 14, "velocity": 116}, {"time": 3416, "pitch": 72, "duration": 13, "velocity": 108}, {"time": 3428, "pitch": 48, "duration": 8, "velocity": 87}, {"time": 3440, "pitch": 48, "duration": 27, "velocity": 96}, {"time": 3440, "pitch": 64, "duration": 12, "velocity": 91}, {"time": 3440, "pitch": 67, "duration": 18, "velocity": 102}, {"time": 3440, "pitch": 72, "duration": 16, "velocity": 90}, {"time": 3458, "pitch": 60, "duration": 9, "velocity": 102}, {"time": 3464, "pitch": 64, "duration": 15, "velocity": 113}, {"time": 3464, "pitch": 67, "duration": 20, "velocity": 116}, {"time": 3464, "pitch": 72, "duration": 20, "velocity": 108}, {"time": 3476, "pitch": 48, "duration": 10, "velocity": 113}, {"time": 3488, "pitch": 46, "duration": 17, "velocity": 90}, {"time": 3488, "pitch": 62, "duration": 17, "velocity": 92}, {"time": 3488, "pitch": 65, "duration": 22, "velocity": 100}, {"time": 3488, "pitch": 70, "duration": 20, "velocity": 88}, {"time": 3506, "pitch": 58, "duration": 8, "velocity": 83}, {"time": 3512, "pitch": 48, "duration": 18, "velocity": 88}, {"time": 3512, "pitch": 64, "duration": 18, "velocity": 98}, {"time": 3512, "pitch": 67, "duration": 15, "velocity": 108}, {"time": 3512, "pitch": 72, "duration": 13, "velocity": 100}, {"time": 3524, "pitch": 55, "duration": 8, "velocity": 85}, {"time": 3536, "pitch": 41, "duration": 39, "velocity": 90}, {"time": 3536, "pitch": 60, "duration": 17, "velocity": 90}, {"time": 3536, "pitch": 65, "duration": 16, "velocity": 93}, {"time": 3536, "pitch": 69, "duration": 16, "velocity": 89}, {"time": 3554, "pitch": 53, "duration": 10, "velocity": 87}, {"time": 3560, "pitch": 57, "duration": 16, "velocity": 96}, {"time": 3560, "pitch": 60, "duration": 18, "velocity": 102}, {"time": 3560, "pitch": 65, "duration": 17, "velocity": 102}, {"time": 3569, "pitch": 53, "duration": 9, "velocity": 91}, {"time": 3584, "pitch": 41, "duration": 39, "velocity": 91}, {"time": 3584, "pitch": 60, "duration": 18, "velocity": 94}, {"time": 3584, "pitch": 65, "duration": 18, "velocity": 100}, {"time": 3584, "pitch": 69, "duration": 18, "velocity": 88}, {"time": 3602, "pitch": 53, "duration": 10, "velocity": 87}, {"time": 3608, "pitch": 60, "duration": 19, "velocity": 100}, {"time": 3608, "pitch": 65, "duration": 20, "velocity": 108}, {"time": 3608, "pitch": 69, "duration": 19, "velocity": 102}, {"time": 3620, "pitch": 53, "duration": 10, "velocity": 87}, {"time": 3632, "pitch": 48, "duration": 41, "velocity": 88}, {"time": 3632, "pitch": 60, "duration": 13, "velocity": 87}, {"time": 3632, "pitch": 64, "duration": 19, "velocity": 91}, {"time": 3632, "pitch": 67, "duration": 18, "velocity": 88}, {"time": 3650, "pitch": 55, "duration": 9, "velocity": 88}, {"time": 3656, "pitch": 60, "duration": 17, "velocity": 108}, {"time": 3656, "pitch": 64, "duration": 18, "velocity": 113}, {"time": 3656, "pitch": 67, "duration": 19, "velocity": 113}, {"time": 3668, "pitch": 55, "duration": 4, "velocity": 88}, {"time": 3680, "pitch": 41, "duration": 38, "velocity": 88}, {"time": 3680, "pitch": 60, "duration": 16, "velocity": 92}, {"time": 3680, "pitch": 65, "duration": 18, "velocity": 98}, {"time": 3680, "pitch": 69, "duration": 17, "velocity": 92}, {"time": 3698, "pitch": 53, "duration": 9, "velocity": 83}, {"time": 3704, "pitch": 60, "duration": 17, "velocity": 104}, {"time": 3704, "pitch": 65, "duration": 18, "velocity": 113}, {"time": 3704, "pitch": 69, "duration": 18, "velocity": 108}, {"time": 3716, "pitch": 53, "duration": 8, "velocity": 88}, {"time": 3728, "pitch": 46, "duration": 41, "velocity": 90}, {"time": 3728, "pitch": 62, "duration": 17, "velocity": 89}, {"time": 3728, "pitch": 65, "duration": 17, "velocity": 96}, {"time": 3728, "pitch": 70, "duration": 17, "velocity": 86}, {"time": 3746, "pitch": 58, "duration": 8, "velocity": 91}, {"time": 3752, "pitch": 62, "duration": 17, "velocity": 98}, {"time": 3752, "pitch": 65, "duration": 19, "velocity": 110}, {"time": 3752, "pitch": 70, "duration": 18, "velocity": 106}, {"time": 3761, "pitch": 58, "duration": 8, "velocity": 106}, {"time": 3776, "pitch": 48, "duration": 31, "velocity": 91}, {"time": 3776, "pitch": 64, "duration": 15, "velocity": 98}, {"time": 3776, "pitch": 67, "duration": 18, "velocity": 108}, {"time": 3776, "pitch": 72, "duration": 18, "velocity": 98}, {"time": 3785, "pitch": 55, "duration": 17, "velocity": 81}, {"time": 3794, "pitch": 60, "duration": 9, "velocity": 100}, {"time": 3800, "pitch": 64, "duration": 15, "velocity": 110}, {"time": 3800, "pitch": 67, "duration": 14, "velocity": 116}, {"time": 3800, "pitch": 72, "duration": 13, "velocity": 108}, {"time": 3812, "pitch": 48, "duration": 8, "velocity": 87}, {"time": 3824, "pitch": 41, "duration": 37, "velocity": 91}, {"time": 3824, "pitch": 60, "duration": 18, "velocity": 91}, {"time": 3824, "pitch": 65, "duration": 19, "velocity": 104}, {"time": 3824, "pitch": 69, "duration": 19, "velocity": 96}, {"time": 3842, "pitch": 53, "duration": 10, "velocity": 88}, {"time": 3848, "pitch": 60, "duration": 18, "velocity": 102}, {"time": 3848, "pitch": 65, "duration": 19, "velocity": 113}, {"time": 3848, "pitch": 69, "duration": 18, "velocity": 104}, {"time": 3860, "pitch": 53, "duration": 10, "velocity": 92}, {"time": 3872, "pitch": 48, "duration": 45, "velocity": 93}, {"time": 3872, "pitch": 60, "duration": 20, "velocity": 92}, {"time": 3872, "pitch": 64, "duration": 20, "velocity": 100}, {"time": 3872, "pitch": 67, "duration": 20, "velocity": 93}, {"time": 3896, "pitch": 60, "duration": 20, "velocity": 80}, {"time": 3896, "pitch": 64, "duration": 21, "velocity": 84}, {"time": 3896, "pitch": 67, "duration": 21, "velocity": 84}, {"time": 3920, "pitch": 41, "duration": 48, "velocity": 83}, {"time": 3920, "pitch": 60, "duration": 19, "velocity": 83}, {"time": 3920, "pitch": 65, "duration": 20, "velocity": 86}, {"time": 3920, "pitch": 69, "duration": 20, "velocity": 89}, {"time": 3938, "pitch": 53, "duration": 30, "velocity": 81}, {"time": 3944, "pitch": 60, "duration": 23, "velocity": 70}, {"time": 3950, "pitch": 65, "duration": 17, "velocity": 81}, {"time": 3956, "pitch": 69, "duration": 11, "velocity": 73}, {"time": 4006, "pitch": 72, "duration": 27, "velocity": 76}, {"time": 4007, "pitch": 77, "duration": 28, "velocity": 86}, {"time": 4008, "pitch": 81, "duration": 25, "velocity": 93}, {"time": 4051, "pitch": 72, "duration": 40, "velocity": 70}, {"time": 4053, "pitch": 76, "duration": 38, "velocity": 69}, {"time": 4054, "pitch": 79, "duration": 36, "velocity": 92}, {"time": 4108, "pitch": 72, "duration": 24, "velocity": 77}, {"time": 4109, "pitch": 77, "duration": 23, "velocity": 79}, {"time": 4112, "pitch": 81, "duration": 21, "velocity": 89}, {"time": 4131, "pitch": 65, "duration": 2, "velocity": 88}, {"time": 4136, "pitch": 69, "duration": 3, "velocity": 86}, {"time": 4144, "pitch": 72, "duration": 3, "velocity": 88}, {"time": 4152, "pitch": 74, "duration": 2, "velocity": 86}, {"time": 4160, "pitch": 77, "duration": 3, "velocity": 88}, {"time": 4169, "pitch": 79, "duration": 3, "velocity": 86}, {"time": 4178, "pitch": 81, "duration": 3, "velocity": 83}, {"time": 4188, "pitch": 84, "duration": 4, "velocity": 81}, {"time": 4200, "pitch": 89, "duration": 3, "velocity": 86}, {"time": 4211, "pitch": 93, "duration": 2, "velocity": 87}, {"time": 4229, "pitch": 77, "duration": 5, "velocity": 76}, {"time": 4230, "pitch": 81, "duration": 5, "velocity": 80}, {"time": 4233, "pitch": 84, "duration": 1, "velocity": 70}, {"time": 4233, "pitch": 89, "duration": 10, "velocity": 100}]}]}