{"metadata": {"schema_version": "0.2", "title": "None", "source_filename": "541.mid", "source_format": "midi"}, "resolution": 12, "tempos": [{"time": 0, "qpm": 114.0001710002565}, {"time": 1944, "qpm": 113.50029226325258}, {"time": 1947, "qpm": 112.50007031254394}, {"time": 1952, "qpm": 109.25001684271093}, {"time": 1956, "qpm": 106.50005325002662}, {"time": 1963, "qpm": 103.75022479215372}, {"time": 1969, "qpm": 102.0000510000255}, {"time": 1970, "qpm": 101.00006901671382}, {"time": 1976, "qpm": 100.50032411354526}, {"time": 1980, "qpm": 100.75008437819567}, {"time": 1991, "qpm": 103.75022479215372}, {"time": 1995, "qpm": 105.75016523463317}, {"time": 2000, "qpm": 109.25001684271093}, {"time": 2004, "qpm": 114.0001710002565}], "time_signatures": [{"time": 0, "numerator": 1, "denominator": 4}], "tracks": [{"program": 4, "is_drum": false, "name": "MELODY", "notes": [{"time": 486, "pitch": 69, "duration": 11, "velocity": 78}, {"time": 498, "pitch": 68, "duration": 9, "velocity": 80}, {"time": 510, "pitch": 66, "duration": 26, "velocity": 78}, {"time": 540, "pitch": 68, "duration": 4, "velocity": 75}, {"time": 546, "pitch": 69, "duration": 7, "velocity": 77}, {"time": 552, "pitch": 68, "duration": 16, "velocity": 72}, {"time": 570, "pitch": 69, "duration": 6, "velocity": 71}, {"time": 576, "pitch": 68, "duration": 12, "velocity": 74}, {"time": 588, "pitch": 66, "duration": 18, "velocity": 71}, {"time": 606, "pitch": 64, "duration": 49, "velocity": 75}, {"time": 672, "pitch": 68, "duration": 6, "velocity": 74}, {"time": 678, "pitch": 73, "duration": 9, "velocity": 83}, {"time": 690, "pitch": 69, "duration": 6, "velocity": 76}, {"time": 696, "pitch": 68, "duration": 11, "velocity": 73}, {"time": 708, "pitch": 66, "duration": 24, "velocity": 72}, {"time": 732, "pitch": 68, "duration": 4, "velocity": 75}, {"time": 738, "pitch": 69, "duration": 5, "velocity": 81}, {"time": 744, "pitch": 68, "duration": 16, "velocity": 79}, {"time": 762, "pitch": 64, "duration": 4, "velocity": 79}, {"time": 768, "pitch": 64, "duration": 11, "velocity": 75}, {"time": 780, "pitch": 71, "duration": 10, "velocity": 80}, {"time": 792, "pitch": 73, "duration": 34, "velocity": 82}, {"time": 864, "pitch": 73, "duration": 4, "velocity": 81}, {"time": 870, "pitch": 74, "duration": 10, "velocity": 79}, {"time": 882, "pitch": 73, "duration": 4, "velocity": 81}, {"time": 888, "pitch": 73, "duration": 12, "velocity": 81}, {"time": 900, "pitch": 71, "duration": 24, "velocity": 75}, {"time": 930, "pitch": 68, "duration": 5, "velocity": 80}, {"time": 936, "pitch": 69, "duration": 5, "velocity": 67}, {"time": 942, "pitch": 71, "duration": 11, "velocity": 83}, {"time": 954, "pitch": 76, "duration": 4, "velocity": 73}, {"time": 960, "pitch": 76, "duration": 12, "velocity": 80}, {"time": 972, "pitch": 71, "duration": 18, "velocity": 84}, {"time": 990, "pitch": 69, "duration": 18, "velocity": 81}, {"time": 1014, "pitch": 69, "duration": 11, "velocity": 85}, {"time": 1026, "pitch": 68, "duration": 11, "velocity": 80}, {"time": 1038, "pitch": 66, "duration": 27, "velocity": 80}, {"time": 1068, "pitch": 68, "duration": 4, "velocity": 76}, {"time": 1074, "pitch": 69, "duration": 6, "velocity": 78}, {"time": 1080, "pitch": 68, "duration": 18, "velocity": 79}, {"time": 1098, "pitch": 69, "duration": 7, "velocity": 80}, {"time": 1104, "pitch": 68, "duration": 11, "velocity": 79}, {"time": 1116, "pitch": 66, "duration": 9, "velocity": 72}, {"time": 1128, "pitch": 64, "duration": 35, "velocity": 76}, {"time": 1194, "pitch": 65, "duration": 18, "velocity": 80}, {"time": 1212, "pitch": 61, "duration": 30, "velocity": 80}, {"time": 1254, "pitch": 69, "duration": 11, "velocity": 78}, {"time": 1266, "pitch": 68, "duration": 9, "velocity": 80}, {"time": 1278, "pitch": 66, "duration": 26, "velocity": 78}, {"time": 1308, "pitch": 68, "duration": 4, "velocity": 75}, {"time": 1314, "pitch": 69, "duration": 7, "velocity": 77}, {"time": 1320, "pitch": 68, "duration": 16, "velocity": 72}, {"time": 1338, "pitch": 69, "duration": 6, "velocity": 71}, {"time": 1344, "pitch": 68, "duration": 12, "velocity": 74}, {"time": 1356, "pitch": 66, "duration": 18, "velocity": 71}, {"time": 1374, "pitch": 64, "duration": 49, "velocity": 75}, {"time": 1440, "pitch": 68, "duration": 6, "velocity": 74}, {"time": 1446, "pitch": 73, "duration": 9, "velocity": 83}, {"time": 1458, "pitch": 69, "duration": 6, "velocity": 76}, {"time": 1464, "pitch": 68, "duration": 11, "velocity": 73}, {"time": 1476, "pitch": 66, "duration": 24, "velocity": 72}, {"time": 1500, "pitch": 68, "duration": 4, "velocity": 75}, {"time": 1506, "pitch": 69, "duration": 5, "velocity": 81}, {"time": 1512, "pitch": 68, "duration": 16, "velocity": 79}, {"time": 1530, "pitch": 76, "duration": 4, "velocity": 79}, {"time": 1536, "pitch": 76, "duration": 11, "velocity": 75}, {"time": 1548, "pitch": 71, "duration": 10, "velocity": 80}, {"time": 1560, "pitch": 74, "duration": 12, "velocity": 82}, {"time": 1572, "pitch": 73, "duration": 30, "velocity": 80}, {"time": 1632, "pitch": 73, "duration": 6, "velocity": 81}, {"time": 1638, "pitch": 78, "duration": 10, "velocity": 79}, {"time": 1650, "pitch": 73, "duration": 4, "velocity": 81}, {"time": 1656, "pitch": 73, "duration": 12, "velocity": 81}, {"time": 1668, "pitch": 71, "duration": 24, "velocity": 75}, {"time": 1698, "pitch": 68, "duration": 5, "velocity": 80}, {"time": 1704, "pitch": 69, "duration": 5, "velocity": 67}, {"time": 1710, "pitch": 71, "duration": 11, "velocity": 83}, {"time": 1722, "pitch": 80, "duration": 4, "velocity": 73}, {"time": 1728, "pitch": 80, "duration": 12, "velocity": 80}, {"time": 1740, "pitch": 71, "duration": 18, "velocity": 84}, {"time": 1758, "pitch": 69, "duration": 18, "velocity": 81}, {"time": 1782, "pitch": 69, "duration": 11, "velocity": 85}, {"time": 1794, "pitch": 68, "duration": 11, "velocity": 80}, {"time": 1806, "pitch": 66, "duration": 27, "velocity": 80}, {"time": 1836, "pitch": 68, "duration": 4, "velocity": 76}, {"time": 1842, "pitch": 69, "duration": 6, "velocity": 78}, {"time": 1848, "pitch": 68, "duration": 18, "velocity": 79}, {"time": 1866, "pitch": 66, "duration": 6, "velocity": 80}, {"time": 1872, "pitch": 66, "duration": 11, "velocity": 79}, {"time": 1884, "pitch": 64, "duration": 9, "velocity": 72}, {"time": 1896, "pitch": 66, "duration": 35, "velocity": 76}, {"time": 1974, "pitch": 69, "duration": 10, "velocity": 80}, {"time": 1986, "pitch": 71, "duration": 11, "velocity": 82}, {"time": 1998, "pitch": 73, "duration": 41, "velocity": 88}, {"time": 2046, "pitch": 73, "duration": 9, "velocity": 86}, {"time": 2058, "pitch": 69, "duration": 4, "velocity": 81}, {"time": 2064, "pitch": 73, "duration": 11, "velocity": 83}, {"time": 2076, "pitch": 76, "duration": 9, "velocity": 82}, {"time": 2088, "pitch": 76, "duration": 12, "velocity": 82}, {"time": 2100, "pitch": 71, "duration": 32, "velocity": 80}, {"time": 2142, "pitch": 76, "duration": 11, "velocity": 81}, {"time": 2154, "pitch": 71, "duration": 4, "velocity": 79}, {"time": 2160, "pitch": 71, "duration": 9, "velocity": 81}, {"time": 2172, "pitch": 76, "duration": 9, "velocity": 81}, {"time": 2184, "pitch": 74, "duration": 33, "velocity": 81}, {"time": 2238, "pitch": 74, "duration": 10, "velocity": 80}, {"time": 2250, "pitch": 73, "duration": 4, "velocity": 81}, {"time": 2256, "pitch": 71, "duration": 11, "velocity": 80}, {"time": 2268, "pitch": 69, "duration": 13, "velocity": 84}, {"time": 2286, "pitch": 74, "duration": 10, "velocity": 84}, {"time": 2298, "pitch": 76, "duration": 4, "velocity": 80}, {"time": 2304, "pitch": 76, "duration": 10, "velocity": 78}, {"time": 2316, "pitch": 69, "duration": 9, "velocity": 79}, {"time": 2328, "pitch": 73, "duration": 11, "velocity": 85}, {"time": 2340, "pitch": 71, "duration": 15, "velocity": 79}, {"time": 2358, "pitch": 69, "duration": 10, "velocity": 81}, {"time": 2370, "pitch": 71, "duration": 9, "velocity": 79}, {"time": 2382, "pitch": 73, "duration": 30, "velocity": 83}, {"time": 2430, "pitch": 73, "duration": 9, "velocity": 84}, {"time": 2442, "pitch": 69, "duration": 4, "velocity": 80}, {"time": 2448, "pitch": 73, "duration": 9, "velocity": 86}, {"time": 2460, "pitch": 78, "duration": 9, "velocity": 79}, {"time": 2472, "pitch": 76, "duration": 12, "velocity": 80}, {"time": 2484, "pitch": 71, "duration": 30, "velocity": 65}, {"time": 2526, "pitch": 76, "duration": 11, "velocity": 82}, {"time": 2538, "pitch": 71, "duration": 3, "velocity": 80}, {"time": 2544, "pitch": 71, "duration": 9, "velocity": 81}, {"time": 2556, "pitch": 76, "duration": 8, "velocity": 82}, {"time": 2568, "pitch": 74, "duration": 34, "velocity": 83}, {"time": 2622, "pitch": 74, "duration": 10, "velocity": 80}, {"time": 2634, "pitch": 73, "duration": 4, "velocity": 86}, {"time": 2640, "pitch": 71, "duration": 9, "velocity": 81}, {"time": 2652, "pitch": 69, "duration": 14, "velocity": 81}, {"time": 2670, "pitch": 66, "duration": 9, "velocity": 79}, {"time": 2682, "pitch": 68, "duration": 4, "velocity": 77}, {"time": 2688, "pitch": 69, "duration": 10, "velocity": 79}, {"time": 2700, "pitch": 74, "duration": 10, "velocity": 86}, {"time": 2712, "pitch": 73, "duration": 9, "velocity": 79}, {"time": 2724, "pitch": 71, "duration": 17, "velocity": 80}, {"time": 2742, "pitch": 69, "duration": 5, "velocity": 80}, {"time": 2748, "pitch": 68, "duration": 17, "velocity": 79}, {"time": 2766, "pitch": 66, "duration": 50, "velocity": 79}, {"time": 2838, "pitch": 69, "duration": 7, "velocity": 85}, {"time": 2844, "pitch": 71, "duration": 7, "velocity": 79}, {"time": 2850, "pitch": 69, "duration": 7, "velocity": 81}, {"time": 2856, "pitch": 68, "duration": 55, "velocity": 75}, {"time": 2934, "pitch": 68, "duration": 7, "velocity": 78}, {"time": 2940, "pitch": 69, "duration": 7, "velocity": 75}, {"time": 2946, "pitch": 68, "duration": 6, "velocity": 78}, {"time": 2952, "pitch": 66, "duration": 69, "velocity": 73}, {"time": 3030, "pitch": 66, "duration": 7, "velocity": 79}, {"time": 3036, "pitch": 68, "duration": 7, "velocity": 74}, {"time": 3042, "pitch": 69, "duration": 7, "velocity": 79}, {"time": 3048, "pitch": 68, "duration": 75, "velocity": 74}, {"time": 3174, "pitch": 69, "duration": 11, "velocity": 78}, {"time": 3186, "pitch": 68, "duration": 9, "velocity": 80}, {"time": 3198, "pitch": 66, "duration": 26, "velocity": 78}, {"time": 3228, "pitch": 68, "duration": 4, "velocity": 75}, {"time": 3234, "pitch": 69, "duration": 7, "velocity": 77}, {"time": 3240, "pitch": 68, "duration": 16, "velocity": 72}, {"time": 3258, "pitch": 69, "duration": 6, "velocity": 71}, {"time": 3264, "pitch": 68, "duration": 12, "velocity": 74}, {"time": 3276, "pitch": 66, "duration": 18, "velocity": 71}, {"time": 3294, "pitch": 64, "duration": 49, "velocity": 75}, {"time": 3360, "pitch": 68, "duration": 6, "velocity": 74}, {"time": 3366, "pitch": 73, "duration": 9, "velocity": 83}, {"time": 3378, "pitch": 69, "duration": 6, "velocity": 76}, {"time": 3384, "pitch": 68, "duration": 11, "velocity": 73}, {"time": 3396, "pitch": 66, "duration": 24, "velocity": 72}, {"time": 3420, "pitch": 68, "duration": 4, "velocity": 75}, {"time": 3426, "pitch": 69, "duration": 5, "velocity": 81}, {"time": 3432, "pitch": 68, "duration": 16, "velocity": 79}, {"time": 3450, "pitch": 76, "duration": 4, "velocity": 79}, {"time": 3456, "pitch": 76, "duration": 11, "velocity": 75}, {"time": 3468, "pitch": 71, "duration": 10, "velocity": 80}, {"time": 3480, "pitch": 74, "duration": 12, "velocity": 82}, {"time": 3492, "pitch": 73, "duration": 30, "velocity": 80}, {"time": 3552, "pitch": 73, "duration": 6, "velocity": 81}, {"time": 3558, "pitch": 78, "duration": 10, "velocity": 79}, {"time": 3570, "pitch": 73, "duration": 4, "velocity": 81}, {"time": 3576, "pitch": 73, "duration": 12, "velocity": 81}, {"time": 3588, "pitch": 71, "duration": 24, "velocity": 75}, {"time": 3618, "pitch": 68, "duration": 5, "velocity": 80}, {"time": 3624, "pitch": 69, "duration": 5, "velocity": 67}, {"time": 3630, "pitch": 71, "duration": 11, "velocity": 83}, {"time": 3642, "pitch": 80, "duration": 4, "velocity": 73}, {"time": 3648, "pitch": 80, "duration": 12, "velocity": 80}, {"time": 3660, "pitch": 71, "duration": 18, "velocity": 84}, {"time": 3678, "pitch": 69, "duration": 18, "velocity": 81}, {"time": 3702, "pitch": 69, "duration": 11, "velocity": 85}, {"time": 3714, "pitch": 68, "duration": 11, "velocity": 80}, {"time": 3726, "pitch": 66, "duration": 27, "velocity": 80}, {"time": 3756, "pitch": 68, "duration": 4, "velocity": 76}, {"time": 3762, "pitch": 69, "duration": 6, "velocity": 78}, {"time": 3768, "pitch": 68, "duration": 18, "velocity": 79}, {"time": 3786, "pitch": 66, "duration": 6, "velocity": 80}, {"time": 3792, "pitch": 66, "duration": 11, "velocity": 79}, {"time": 3804, "pitch": 64, "duration": 9, "velocity": 72}, {"time": 3816, "pitch": 66, "duration": 35, "velocity": 76}, {"time": 3894, "pitch": 69, "duration": 10, "velocity": 80}, {"time": 3906, "pitch": 71, "duration": 11, "velocity": 82}, {"time": 3918, "pitch": 73, "duration": 41, "velocity": 88}, {"time": 3966, "pitch": 73, "duration": 9, "velocity": 86}, {"time": 3978, "pitch": 69, "duration": 4, "velocity": 81}, {"time": 3984, "pitch": 73, "duration": 11, "velocity": 83}, {"time": 3996, "pitch": 76, "duration": 9, "velocity": 82}, {"time": 4008, "pitch": 76, "duration": 12, "velocity": 82}, {"time": 4020, "pitch": 71, "duration": 32, "velocity": 80}, {"time": 4062, "pitch": 76, "duration": 11, "velocity": 81}, {"time": 4074, "pitch": 71, "duration": 4, "velocity": 79}, {"time": 4080, "pitch": 71, "duration": 9, "velocity": 81}, {"time": 4092, "pitch": 76, "duration": 9, "velocity": 81}, {"time": 4104, "pitch": 74, "duration": 33, "velocity": 81}, {"time": 4158, "pitch": 74, "duration": 10, "velocity": 80}, {"time": 4170, "pitch": 73, "duration": 4, "velocity": 81}, {"time": 4176, "pitch": 71, "duration": 11, "velocity": 80}, {"time": 4188, "pitch": 69, "duration": 13, "velocity": 84}, {"time": 4206, "pitch": 74, "duration": 10, "velocity": 84}, {"time": 4218, "pitch": 76, "duration": 4, "velocity": 80}, {"time": 4224, "pitch": 76, "duration": 10, "velocity": 78}, {"time": 4236, "pitch": 69, "duration": 9, "velocity": 79}, {"time": 4248, "pitch": 73, "duration": 11, "velocity": 85}, {"time": 4260, "pitch": 71, "duration": 15, "velocity": 79}, {"time": 4278, "pitch": 69, "duration": 10, "velocity": 81}, {"time": 4290, "pitch": 71, "duration": 9, "velocity": 79}, {"time": 4302, "pitch": 73, "duration": 30, "velocity": 83}, {"time": 4350, "pitch": 73, "duration": 9, "velocity": 84}, {"time": 4362, "pitch": 69, "duration": 4, "velocity": 80}, {"time": 4368, "pitch": 73, "duration": 9, "velocity": 86}, {"time": 4380, "pitch": 78, "duration": 9, "velocity": 79}, {"time": 4392, "pitch": 76, "duration": 12, "velocity": 80}, {"time": 4404, "pitch": 71, "duration": 30, "velocity": 65}, {"time": 4446, "pitch": 76, "duration": 11, "velocity": 82}, {"time": 4458, "pitch": 71, "duration": 3, "velocity": 80}, {"time": 4464, "pitch": 71, "duration": 9, "velocity": 81}, {"time": 4476, "pitch": 76, "duration": 8, "velocity": 82}, {"time": 4488, "pitch": 74, "duration": 34, "velocity": 83}, {"time": 4542, "pitch": 74, "duration": 10, "velocity": 80}, {"time": 4554, "pitch": 73, "duration": 4, "velocity": 86}, {"time": 4560, "pitch": 71, "duration": 9, "velocity": 81}, {"time": 4572, "pitch": 69, "duration": 14, "velocity": 81}, {"time": 4590, "pitch": 66, "duration": 9, "velocity": 79}, {"time": 4602, "pitch": 68, "duration": 4, "velocity": 77}, {"time": 4608, "pitch": 69, "duration": 10, "velocity": 79}, {"time": 4620, "pitch": 74, "duration": 10, "velocity": 86}, {"time": 4632, "pitch": 73, "duration": 9, "velocity": 79}, {"time": 4644, "pitch": 71, "duration": 17, "velocity": 80}, {"time": 4662, "pitch": 69, "duration": 5, "velocity": 80}, {"time": 4668, "pitch": 68, "duration": 17, "velocity": 79}, {"time": 4686, "pitch": 66, "duration": 50, "velocity": 79}, {"time": 4758, "pitch": 69, "duration": 7, "velocity": 85}, {"time": 4764, "pitch": 71, "duration": 7, "velocity": 79}, {"time": 4770, "pitch": 69, "duration": 7, "velocity": 81}, {"time": 4776, "pitch": 68, "duration": 55, "velocity": 75}, {"time": 4854, "pitch": 68, "duration": 7, "velocity": 78}, {"time": 4860, "pitch": 69, "duration": 7, "velocity": 75}, {"time": 4866, "pitch": 68, "duration": 6, "velocity": 78}, {"time": 4872, "pitch": 66, "duration": 69, "velocity": 73}, {"time": 4950, "pitch": 66, "duration": 7, "velocity": 79}, {"time": 4956, "pitch": 68, "duration": 7, "velocity": 74}, {"time": 4962, "pitch": 69, "duration": 7, "velocity": 79}, {"time": 4968, "pitch": 68, "duration": 75, "velocity": 74}, {"time": 5046, "pitch": 69, "duration": 10, "velocity": 80}, {"time": 5058, "pitch": 71, "duration": 11, "velocity": 82}, {"time": 5070, "pitch": 73, "duration": 41, "velocity": 88}, {"time": 5118, "pitch": 73, "duration": 9, "velocity": 86}, {"time": 5130, "pitch": 69, "duration": 4, "velocity": 81}, {"time": 5136, "pitch": 73, "duration": 11, "velocity": 83}, {"time": 5148, "pitch": 76, "duration": 9, "velocity": 82}, {"time": 5160, "pitch": 76, "duration": 12, "velocity": 82}, {"time": 5172, "pitch": 71, "duration": 32, "velocity": 80}, {"time": 5214, "pitch": 76, "duration": 11, "velocity": 81}, {"time": 5226, "pitch": 71, "duration": 4, "velocity": 79}, {"time": 5232, "pitch": 71, "duration": 9, "velocity": 81}, {"time": 5244, "pitch": 76, "duration": 9, "velocity": 81}, {"time": 5256, "pitch": 74, "duration": 33, "velocity": 81}, {"time": 5310, "pitch": 74, "duration": 10, "velocity": 80}, {"time": 5322, "pitch": 73, "duration": 4, "velocity": 81}, {"time": 5328, "pitch": 71, "duration": 11, "velocity": 80}, {"time": 5340, "pitch": 69, "duration": 13, "velocity": 84}, {"time": 5358, "pitch": 74, "duration": 10, "velocity": 84}, {"time": 5370, "pitch": 76, "duration": 4, "velocity": 80}, {"time": 5376, "pitch": 76, "duration": 10, "velocity": 78}, {"time": 5388, "pitch": 69, "duration": 9, "velocity": 79}, {"time": 5400, "pitch": 73, "duration": 11, "velocity": 85}, {"time": 5412, "pitch": 71, "duration": 15, "velocity": 79}, {"time": 5430, "pitch": 69, "duration": 10, "velocity": 81}, {"time": 5442, "pitch": 71, "duration": 9, "velocity": 79}, {"time": 5454, "pitch": 73, "duration": 30, "velocity": 83}, {"time": 5502, "pitch": 73, "duration": 9, "velocity": 84}, {"time": 5514, "pitch": 69, "duration": 4, "velocity": 80}, {"time": 5520, "pitch": 73, "duration": 9, "velocity": 86}, {"time": 5532, "pitch": 78, "duration": 9, "velocity": 79}, {"time": 5544, "pitch": 76, "duration": 12, "velocity": 80}, {"time": 5556, "pitch": 71, "duration": 30, "velocity": 65}, {"time": 5598, "pitch": 76, "duration": 11, "velocity": 82}, {"time": 5610, "pitch": 71, "duration": 3, "velocity": 80}, {"time": 5616, "pitch": 71, "duration": 9, "velocity": 81}, {"time": 5628, "pitch": 76, "duration": 8, "velocity": 82}, {"time": 5640, "pitch": 74, "duration": 34, "velocity": 83}, {"time": 5694, "pitch": 74, "duration": 10, "velocity": 80}, {"time": 5706, "pitch": 73, "duration": 4, "velocity": 86}, {"time": 5712, "pitch": 71, "duration": 9, "velocity": 81}, {"time": 5724, "pitch": 69, "duration": 14, "velocity": 81}, {"time": 5742, "pitch": 66, "duration": 9, "velocity": 79}, {"time": 5754, "pitch": 68, "duration": 4, "velocity": 77}, {"time": 5760, "pitch": 69, "duration": 10, "velocity": 79}, {"time": 5772, "pitch": 74, "duration": 10, "velocity": 86}, {"time": 5784, "pitch": 73, "duration": 9, "velocity": 79}, {"time": 5796, "pitch": 71, "duration": 17, "velocity": 80}, {"time": 5898, "pitch": 69, "duration": 20, "velocity": 83}, {"time": 5917, "pitch": 68, "duration": 21, "velocity": 80}, {"time": 5937, "pitch": 66, "duration": 69, "velocity": 78}, {"time": 6006, "pitch": 69, "duration": 6, "velocity": 78}, {"time": 6011, "pitch": 71, "duration": 7, "velocity": 78}, {"time": 6018, "pitch": 69, "duration": 6, "velocity": 80}, {"time": 6024, "pitch": 68, "duration": 72, "velocity": 75}, {"time": 6102, "pitch": 68, "duration": 5, "velocity": 81}, {"time": 6107, "pitch": 69, "duration": 7, "velocity": 68}, {"time": 6113, "pitch": 68, "duration": 6, "velocity": 74}, {"time": 6119, "pitch": 66, "duration": 65, "velocity": 74}, {"time": 6197, "pitch": 66, "duration": 6, "velocity": 80}, {"time": 6203, "pitch": 68, "duration": 6, "velocity": 77}, {"time": 6209, "pitch": 69, "duration": 6, "velocity": 72}, {"time": 6215, "pitch": 68, "duration": 83, "velocity": 79}]}, {"program": 0, "is_drum": false, "name": "PIANO", "notes": [{"time": 30, "pitch": 42, "duration": 45, "velocity": 77}, {"time": 36, "pitch": 61, "duration": 8, "velocity": 79}, {"time": 42, "pitch": 66, "duration": 36, "velocity": 74}, {"time": 48, "pitch": 73, "duration": 28, "velocity": 81}, {"time": 78, "pitch": 38, "duration": 46, "velocity": 73}, {"time": 84, "pitch": 61, "duration": 12, "velocity": 75}, {"time": 90, "pitch": 66, "duration": 36, "velocity": 70}, {"time": 96, "pitch": 73, "duration": 30, "velocity": 78}, {"time": 126, "pitch": 40, "duration": 49, "velocity": 79}, {"time": 126, "pitch": 71, "duration": 10, "velocity": 80}, {"time": 132, "pitch": 59, "duration": 8, "velocity": 76}, {"time": 138, "pitch": 64, "duration": 8, "velocity": 72}, {"time": 144, "pitch": 68, "duration": 28, "velocity": 74}, {"time": 174, "pitch": 37, "duration": 45, "velocity": 81}, {"time": 180, "pitch": 56, "duration": 8, "velocity": 72}, {"time": 186, "pitch": 59, "duration": 25, "velocity": 75}, {"time": 192, "pitch": 68, "duration": 28, "velocity": 73}, {"time": 210, "pitch": 64, "duration": 12, "velocity": 78}, {"time": 222, "pitch": 38, "duration": 49, "velocity": 79}, {"time": 228, "pitch": 57, "duration": 9, "velocity": 66}, {"time": 234, "pitch": 62, "duration": 24, "velocity": 75}, {"time": 240, "pitch": 69, "duration": 18, "velocity": 68}, {"time": 270, "pitch": 35, "duration": 46, "velocity": 79}, {"time": 276, "pitch": 59, "duration": 8, "velocity": 70}, {"time": 282, "pitch": 62, "duration": 31, "velocity": 69}, {"time": 288, "pitch": 69, "duration": 26, "velocity": 67}, {"time": 317, "pitch": 37, "duration": 36, "velocity": 85}, {"time": 318, "pitch": 66, "duration": 14, "velocity": 71}, {"time": 329, "pitch": 61, "duration": 29, "velocity": 67}, {"time": 336, "pitch": 66, "duration": 21, "velocity": 75}, {"time": 362, "pitch": 61, "duration": 68, "velocity": 70}, {"time": 364, "pitch": 65, "duration": 99, "velocity": 67}, {"time": 365, "pitch": 37, "duration": 35, "velocity": 72}, {"time": 365, "pitch": 44, "duration": 35, "velocity": 70}, {"time": 366, "pitch": 68, "duration": 95, "velocity": 71}, {"time": 462, "pitch": 42, "duration": 31, "velocity": 80}, {"time": 468, "pitch": 49, "duration": 24, "velocity": 73}, {"time": 474, "pitch": 54, "duration": 41, "velocity": 71}, {"time": 480, "pitch": 57, "duration": 36, "velocity": 64}, {"time": 480, "pitch": 61, "duration": 34, "velocity": 62}, {"time": 510, "pitch": 38, "duration": 34, "velocity": 81}, {"time": 516, "pitch": 45, "duration": 29, "velocity": 65}, {"time": 522, "pitch": 54, "duration": 27, "velocity": 74}, {"time": 528, "pitch": 57, "duration": 20, "velocity": 72}, {"time": 558, "pitch": 40, "duration": 41, "velocity": 79}, {"time": 558, "pitch": 52, "duration": 8, "velocity": 68}, {"time": 558, "pitch": 56, "duration": 15, "velocity": 69}, {"time": 564, "pitch": 47, "duration": 28, "velocity": 64}, {"time": 570, "pitch": 52, "duration": 22, "velocity": 79}, {"time": 576, "pitch": 59, "duration": 14, "velocity": 75}, {"time": 606, "pitch": 45, "duration": 29, "velocity": 71}, {"time": 606, "pitch": 61, "duration": 12, "velocity": 79}, {"time": 612, "pitch": 52, "duration": 12, "velocity": 74}, {"time": 618, "pitch": 57, "duration": 7, "velocity": 64}, {"time": 624, "pitch": 61, "duration": 7, "velocity": 77}, {"time": 630, "pitch": 59, "duration": 12, "velocity": 78}, {"time": 654, "pitch": 42, "duration": 30, "velocity": 75}, {"time": 654, "pitch": 54, "duration": 7, "velocity": 67}, {"time": 654, "pitch": 57, "duration": 13, "velocity": 65}, {"time": 660, "pitch": 49, "duration": 24, "velocity": 67}, {"time": 666, "pitch": 54, "duration": 23, "velocity": 73}, {"time": 672, "pitch": 61, "duration": 15, "velocity": 72}, {"time": 702, "pitch": 38, "duration": 23, "velocity": 76}, {"time": 702, "pitch": 54, "duration": 7, "velocity": 66}, {"time": 702, "pitch": 57, "duration": 14, "velocity": 64}, {"time": 708, "pitch": 45, "duration": 18, "velocity": 59}, {"time": 714, "pitch": 54, "duration": 18, "velocity": 72}, {"time": 720, "pitch": 62, "duration": 12, "velocity": 75}, {"time": 750, "pitch": 40, "duration": 33, "velocity": 77}, {"time": 750, "pitch": 52, "duration": 7, "velocity": 67}, {"time": 750, "pitch": 56, "duration": 12, "velocity": 71}, {"time": 756, "pitch": 47, "duration": 26, "velocity": 64}, {"time": 762, "pitch": 52, "duration": 19, "velocity": 80}, {"time": 768, "pitch": 59, "duration": 14, "velocity": 75}, {"time": 780, "pitch": 56, "duration": 4, "velocity": 73}, {"time": 798, "pitch": 45, "duration": 25, "velocity": 79}, {"time": 798, "pitch": 61, "duration": 12, "velocity": 79}, {"time": 804, "pitch": 52, "duration": 18, "velocity": 59}, {"time": 810, "pitch": 57, "duration": 9, "velocity": 74}, {"time": 816, "pitch": 61, "duration": 11, "velocity": 79}, {"time": 846, "pitch": 38, "duration": 22, "velocity": 79}, {"time": 846, "pitch": 57, "duration": 14, "velocity": 62}, {"time": 846, "pitch": 62, "duration": 14, "velocity": 69}, {"time": 852, "pitch": 45, "duration": 17, "velocity": 65}, {"time": 858, "pitch": 54, "duration": 13, "velocity": 79}, {"time": 864, "pitch": 57, "duration": 13, "velocity": 81}, {"time": 876, "pitch": 62, "duration": 8, "velocity": 81}, {"time": 882, "pitch": 54, "duration": 3, "velocity": 71}, {"time": 894, "pitch": 40, "duration": 28, "velocity": 78}, {"time": 894, "pitch": 56, "duration": 8, "velocity": 64}, {"time": 894, "pitch": 59, "duration": 29, "velocity": 70}, {"time": 900, "pitch": 47, "duration": 20, "velocity": 65}, {"time": 906, "pitch": 56, "duration": 17, "velocity": 69}, {"time": 912, "pitch": 64, "duration": 14, "velocity": 77}, {"time": 942, "pitch": 37, "duration": 30, "velocity": 80}, {"time": 942, "pitch": 64, "duration": 18, "velocity": 77}, {"time": 948, "pitch": 44, "duration": 23, "velocity": 56}, {"time": 954, "pitch": 56, "duration": 19, "velocity": 72}, {"time": 960, "pitch": 61, "duration": 13, "velocity": 77}, {"time": 972, "pitch": 64, "duration": 4, "velocity": 75}, {"time": 990, "pitch": 42, "duration": 34, "velocity": 75}, {"time": 990, "pitch": 61, "duration": 13, "velocity": 75}, {"time": 996, "pitch": 49, "duration": 27, "velocity": 69}, {"time": 1002, "pitch": 54, "duration": 17, "velocity": 72}, {"time": 1008, "pitch": 61, "duration": 11, "velocity": 68}, {"time": 1020, "pitch": 57, "duration": 7, "velocity": 79}, {"time": 1026, "pitch": 54, "duration": 6, "velocity": 67}, {"time": 1038, "pitch": 38, "duration": 27, "velocity": 73}, {"time": 1038, "pitch": 62, "duration": 15, "velocity": 74}, {"time": 1044, "pitch": 45, "duration": 21, "velocity": 63}, {"time": 1050, "pitch": 54, "duration": 18, "velocity": 72}, {"time": 1056, "pitch": 57, "duration": 13, "velocity": 78}, {"time": 1068, "pitch": 62, "duration": 4, "velocity": 77}, {"time": 1086, "pitch": 40, "duration": 33, "velocity": 79}, {"time": 1086, "pitch": 59, "duration": 19, "velocity": 73}, {"time": 1092, "pitch": 47, "duration": 26, "velocity": 68}, {"time": 1098, "pitch": 56, "duration": 10, "velocity": 74}, {"time": 1104, "pitch": 64, "duration": 13, "velocity": 79}, {"time": 1116, "pitch": 59, "duration": 4, "velocity": 79}, {"time": 1134, "pitch": 45, "duration": 29, "velocity": 80}, {"time": 1134, "pitch": 57, "duration": 8, "velocity": 79}, {"time": 1140, "pitch": 52, "duration": 9, "velocity": 74}, {"time": 1146, "pitch": 57, "duration": 9, "velocity": 69}, {"time": 1152, "pitch": 61, "duration": 12, "velocity": 79}, {"time": 1164, "pitch": 57, "duration": 3, "velocity": 78}, {"time": 1182, "pitch": 37, "duration": 33, "velocity": 80}, {"time": 1182, "pitch": 56, "duration": 7, "velocity": 68}, {"time": 1182, "pitch": 61, "duration": 12, "velocity": 74}, {"time": 1188, "pitch": 44, "duration": 26, "velocity": 65}, {"time": 1194, "pitch": 56, "duration": 12, "velocity": 73}, {"time": 1200, "pitch": 59, "duration": 13, "velocity": 72}, {"time": 1212, "pitch": 65, "duration": 7, "velocity": 75}, {"time": 1218, "pitch": 56, "duration": 5, "velocity": 68}, {"time": 1230, "pitch": 42, "duration": 41, "velocity": 82}, {"time": 1236, "pitch": 49, "duration": 21, "velocity": 72}, {"time": 1242, "pitch": 54, "duration": 24, "velocity": 81}, {"time": 1248, "pitch": 57, "duration": 20, "velocity": 66}, {"time": 1248, "pitch": 61, "duration": 27, "velocity": 79}, {"time": 1266, "pitch": 49, "duration": 5, "velocity": 73}, {"time": 1272, "pitch": 54, "duration": 14, "velocity": 74}, {"time": 1278, "pitch": 38, "duration": 29, "velocity": 81}, {"time": 1284, "pitch": 45, "duration": 24, "velocity": 65}, {"time": 1290, "pitch": 54, "duration": 14, "velocity": 74}, {"time": 1296, "pitch": 57, "duration": 13, "velocity": 75}, {"time": 1308, "pitch": 62, "duration": 7, "velocity": 74}, {"time": 1314, "pitch": 54, "duration": 2, "velocity": 59}, {"time": 1326, "pitch": 40, "duration": 38, "velocity": 82}, {"time": 1326, "pitch": 52, "duration": 8, "velocity": 72}, {"time": 1326, "pitch": 56, "duration": 12, "velocity": 72}, {"time": 1332, "pitch": 47, "duration": 29, "velocity": 70}, {"time": 1338, "pitch": 52, "duration": 19, "velocity": 74}, {"time": 1344, "pitch": 59, "duration": 13, "velocity": 77}, {"time": 1356, "pitch": 64, "duration": 7, "velocity": 75}, {"time": 1374, "pitch": 45, "duration": 19, "velocity": 76}, {"time": 1374, "pitch": 57, "duration": 8, "velocity": 73}, {"time": 1380, "pitch": 52, "duration": 10, "velocity": 70}, {"time": 1386, "pitch": 57, "duration": 8, "velocity": 67}, {"time": 1392, "pitch": 61, "duration": 5, "velocity": 79}, {"time": 1398, "pitch": 44, "duration": 15, "velocity": 80}, {"time": 1398, "pitch": 56, "duration": 13, "velocity": 67}, {"time": 1398, "pitch": 59, "duration": 14, "velocity": 76}, {"time": 1422, "pitch": 42, "duration": 33, "velocity": 80}, {"time": 1422, "pitch": 54, "duration": 8, "velocity": 71}, {"time": 1422, "pitch": 61, "duration": 14, "velocity": 74}, {"time": 1428, "pitch": 49, "duration": 26, "velocity": 69}, {"time": 1434, "pitch": 54, "duration": 17, "velocity": 74}, {"time": 1440, "pitch": 57, "duration": 10, "velocity": 81}, {"time": 1452, "pitch": 61, "duration": 3, "velocity": 74}, {"time": 1470, "pitch": 38, "duration": 22, "velocity": 79}, {"time": 1470, "pitch": 62, "duration": 13, "velocity": 78}, {"time": 1476, "pitch": 45, "duration": 17, "velocity": 57}, {"time": 1482, "pitch": 54, "duration": 18, "velocity": 75}, {"time": 1488, "pitch": 57, "duration": 12, "velocity": 81}, {"time": 1500, "pitch": 62, "duration": 3, "velocity": 75}, {"time": 1518, "pitch": 40, "duration": 37, "velocity": 73}, {"time": 1518, "pitch": 52, "duration": 7, "velocity": 69}, {"time": 1518, "pitch": 56, "duration": 13, "velocity": 71}, {"time": 1524, "pitch": 47, "duration": 29, "velocity": 68}, {"time": 1530, "pitch": 52, "duration": 20, "velocity": 79}, {"time": 1536, "pitch": 59, "duration": 16, "velocity": 78}, {"time": 1548, "pitch": 56, "duration": 7, "velocity": 71}, {"time": 1566, "pitch": 45, "duration": 29, "velocity": 73}, {"time": 1566, "pitch": 61, "duration": 10, "velocity": 78}, {"time": 1572, "pitch": 52, "duration": 10, "velocity": 72}, {"time": 1578, "pitch": 57, "duration": 8, "velocity": 67}, {"time": 1584, "pitch": 61, "duration": 14, "velocity": 80}, {"time": 1596, "pitch": 57, "duration": 8, "velocity": 80}, {"time": 1602, "pitch": 52, "duration": 4, "velocity": 75}, {"time": 1614, "pitch": 38, "duration": 26, "velocity": 79}, {"time": 1614, "pitch": 54, "duration": 8, "velocity": 69}, {"time": 1614, "pitch": 57, "duration": 13, "velocity": 64}, {"time": 1620, "pitch": 45, "duration": 21, "velocity": 61}, {"time": 1626, "pitch": 54, "duration": 8, "velocity": 74}, {"time": 1632, "pitch": 57, "duration": 13, "velocity": 75}, {"time": 1644, "pitch": 62, "duration": 3, "velocity": 81}, {"time": 1662, "pitch": 40, "duration": 36, "velocity": 79}, {"time": 1662, "pitch": 56, "duration": 7, "velocity": 70}, {"time": 1662, "pitch": 64, "duration": 18, "velocity": 77}, {"time": 1668, "pitch": 47, "duration": 28, "velocity": 66}, {"time": 1674, "pitch": 56, "duration": 13, "velocity": 73}, {"time": 1680, "pitch": 59, "duration": 13, "velocity": 80}, {"time": 1692, "pitch": 64, "duration": 4, "velocity": 80}, {"time": 1710, "pitch": 37, "duration": 27, "velocity": 80}, {"time": 1710, "pitch": 56, "duration": 7, "velocity": 70}, {"time": 1710, "pitch": 64, "duration": 18, "velocity": 73}, {"time": 1716, "pitch": 44, "duration": 20, "velocity": 63}, {"time": 1722, "pitch": 56, "duration": 19, "velocity": 73}, {"time": 1728, "pitch": 61, "duration": 12, "velocity": 79}, {"time": 1740, "pitch": 64, "duration": 3, "velocity": 80}, {"time": 1758, "pitch": 42, "duration": 32, "velocity": 81}, {"time": 1764, "pitch": 49, "duration": 25, "velocity": 67}, {"time": 1770, "pitch": 54, "duration": 5, "velocity": 76}, {"time": 1776, "pitch": 56, "duration": 9, "velocity": 80}, {"time": 1788, "pitch": 57, "duration": 3, "velocity": 81}, {"time": 1806, "pitch": 38, "duration": 27, "velocity": 79}, {"time": 1806, "pitch": 62, "duration": 14, "velocity": 69}, {"time": 1812, "pitch": 45, "duration": 22, "velocity": 66}, {"time": 1818, "pitch": 54, "duration": 8, "velocity": 71}, {"time": 1824, "pitch": 57, "duration": 5, "velocity": 80}, {"time": 1836, "pitch": 54, "duration": 5, "velocity": 75}, {"time": 1836, "pitch": 57, "duration": 3, "velocity": 75}, {"time": 1836, "pitch": 62, "duration": 4, "velocity": 71}, {"time": 1854, "pitch": 40, "duration": 36, "velocity": 73}, {"time": 1854, "pitch": 52, "duration": 8, "velocity": 64}, {"time": 1854, "pitch": 56, "duration": 12, "velocity": 70}, {"time": 1860, "pitch": 47, "duration": 28, "velocity": 67}, {"time": 1866, "pitch": 52, "duration": 10, "velocity": 67}, {"time": 1872, "pitch": 56, "duration": 8, "velocity": 80}, {"time": 1884, "pitch": 52, "duration": 5, "velocity": 74}, {"time": 1884, "pitch": 59, "duration": 6, "velocity": 72}, {"time": 1902, "pitch": 42, "duration": 44, "velocity": 78}, {"time": 1902, "pitch": 54, "duration": 7, "velocity": 72}, {"time": 1902, "pitch": 61, "duration": 13, "velocity": 75}, {"time": 1908, "pitch": 49, "duration": 37, "velocity": 68}, {"time": 1914, "pitch": 54, "duration": 5, "velocity": 75}, {"time": 1920, "pitch": 56, "duration": 10, "velocity": 80}, {"time": 1932, "pitch": 57, "duration": 3, "velocity": 80}, {"time": 1944, "pitch": 54, "duration": 11, "velocity": 72}, {"time": 1944, "pitch": 61, "duration": 14, "velocity": 79}, {"time": 1950, "pitch": 42, "duration": 17, "velocity": 79}, {"time": 1956, "pitch": 49, "duration": 11, "velocity": 69}, {"time": 1962, "pitch": 54, "duration": 6, "velocity": 80}, {"time": 1974, "pitch": 42, "duration": 10, "velocity": 80}, {"time": 1974, "pitch": 54, "duration": 10, "velocity": 75}, {"time": 1974, "pitch": 57, "duration": 8, "velocity": 67}, {"time": 1974, "pitch": 61, "duration": 14, "velocity": 74}, {"time": 1986, "pitch": 40, "duration": 12, "velocity": 79}, {"time": 1986, "pitch": 52, "duration": 12, "velocity": 76}, {"time": 1986, "pitch": 59, "duration": 12, "velocity": 71}, {"time": 1998, "pitch": 45, "duration": 42, "velocity": 85}, {"time": 1998, "pitch": 57, "duration": 8, "velocity": 78}, {"time": 1998, "pitch": 61, "duration": 14, "velocity": 79}, {"time": 2004, "pitch": 52, "duration": 37, "velocity": 69}, {"time": 2010, "pitch": 57, "duration": 19, "velocity": 77}, {"time": 2016, "pitch": 61, "duration": 12, "velocity": 78}, {"time": 2028, "pitch": 64, "duration": 9, "velocity": 80}, {"time": 2040, "pitch": 57, "duration": 8, "velocity": 70}, {"time": 2046, "pitch": 45, "duration": 46, "velocity": 83}, {"time": 2046, "pitch": 61, "duration": 13, "velocity": 76}, {"time": 2052, "pitch": 52, "duration": 41, "velocity": 75}, {"time": 2058, "pitch": 57, "duration": 19, "velocity": 79}, {"time": 2064, "pitch": 61, "duration": 2, "velocity": 66}, {"time": 2064, "pitch": 64, "duration": 12, "velocity": 79}, {"time": 2064, "pitch": 69, "duration": 12, "velocity": 79}, {"time": 2076, "pitch": 61, "duration": 6, "velocity": 79}, {"time": 2094, "pitch": 44, "duration": 37, "velocity": 74}, {"time": 2094, "pitch": 56, "duration": 6, "velocity": 68}, {"time": 2094, "pitch": 59, "duration": 16, "velocity": 74}, {"time": 2100, "pitch": 52, "duration": 29, "velocity": 69}, {"time": 2106, "pitch": 56, "duration": 9, "velocity": 75}, {"time": 2112, "pitch": 64, "duration": 13, "velocity": 80}, {"time": 2124, "pitch": 59, "duration": 3, "velocity": 80}, {"time": 2142, "pitch": 40, "duration": 38, "velocity": 79}, {"time": 2142, "pitch": 52, "duration": 6, "velocity": 71}, {"time": 2142, "pitch": 56, "duration": 15, "velocity": 70}, {"time": 2148, "pitch": 47, "duration": 28, "velocity": 65}, {"time": 2154, "pitch": 59, "duration": 8, "velocity": 81}, {"time": 2160, "pitch": 64, "duration": 19, "velocity": 79}, {"time": 2172, "pitch": 59, "duration": 7, "velocity": 79}, {"time": 2178, "pitch": 52, "duration": 3, "velocity": 79}, {"time": 2190, "pitch": 47, "duration": 36, "velocity": 78}, {"time": 2190, "pitch": 54, "duration": 4, "velocity": 74}, {"time": 2190, "pitch": 59, "duration": 7, "velocity": 78}, {"time": 2196, "pitch": 54, "duration": 9, "velocity": 74}, {"time": 2202, "pitch": 59, "duration": 7, "velocity": 75}, {"time": 2208, "pitch": 62, "duration": 14, "velocity": 80}, {"time": 2220, "pitch": 59, "duration": 4, "velocity": 71}, {"time": 2238, "pitch": 47, "duration": 15, "velocity": 81}, {"time": 2238, "pitch": 54, "duration": 3, "velocity": 79}, {"time": 2238, "pitch": 62, "duration": 13, "velocity": 79}, {"time": 2244, "pitch": 54, "duration": 8, "velocity": 75}, {"time": 2250, "pitch": 59, "duration": 9, "velocity": 76}, {"time": 2262, "pitch": 37, "duration": 12, "velocity": 81}, {"time": 2262, "pitch": 61, "duration": 18, "velocity": 78}, {"time": 2262, "pitch": 64, "duration": 18, "velocity": 78}, {"time": 2286, "pitch": 38, "duration": 31, "velocity": 81}, {"time": 2286, "pitch": 62, "duration": 6, "velocity": 71}, {"time": 2286, "pitch": 66, "duration": 11, "velocity": 73}, {"time": 2292, "pitch": 45, "duration": 26, "velocity": 65}, {"time": 2298, "pitch": 62, "duration": 11, "velocity": 79}, {"time": 2304, "pitch": 69, "duration": 13, "velocity": 69}, {"time": 2316, "pitch": 62, "duration": 2, "velocity": 85}, {"time": 2334, "pitch": 40, "duration": 33, "velocity": 81}, {"time": 2334, "pitch": 52, "duration": 7, "velocity": 72}, {"time": 2334, "pitch": 56, "duration": 12, "velocity": 70}, {"time": 2340, "pitch": 47, "duration": 26, "velocity": 72}, {"time": 2346, "pitch": 59, "duration": 7, "velocity": 81}, {"time": 2352, "pitch": 64, "duration": 14, "velocity": 81}, {"time": 2364, "pitch": 59, "duration": 7, "velocity": 80}, {"time": 2370, "pitch": 52, "duration": 5, "velocity": 79}, {"time": 2382, "pitch": 45, "duration": 41, "velocity": 80}, {"time": 2382, "pitch": 52, "duration": 4, "velocity": 70}, {"time": 2382, "pitch": 57, "duration": 8, "velocity": 72}, {"time": 2388, "pitch": 52, "duration": 36, "velocity": 61}, {"time": 2394, "pitch": 57, "duration": 4, "velocity": 88}, {"time": 2400, "pitch": 57, "duration": 8, "velocity": 80}, {"time": 2400, "pitch": 61, "duration": 7, "velocity": 81}, {"time": 2412, "pitch": 57, "duration": 6, "velocity": 69}, {"time": 2412, "pitch": 64, "duration": 8, "velocity": 78}, {"time": 2430, "pitch": 45, "duration": 36, "velocity": 84}, {"time": 2430, "pitch": 57, "duration": 6, "velocity": 70}, {"time": 2430, "pitch": 61, "duration": 14, "velocity": 75}, {"time": 2436, "pitch": 52, "duration": 15, "velocity": 77}, {"time": 2442, "pitch": 57, "duration": 2, "velocity": 68}, {"time": 2448, "pitch": 57, "duration": 8, "velocity": 80}, {"time": 2448, "pitch": 64, "duration": 9, "velocity": 74}, {"time": 2454, "pitch": 52, "duration": 10, "velocity": 70}, {"time": 2460, "pitch": 57, "duration": 4, "velocity": 80}, {"time": 2460, "pitch": 61, "duration": 6, "velocity": 80}, {"time": 2478, "pitch": 44, "duration": 41, "velocity": 77}, {"time": 2478, "pitch": 56, "duration": 6, "velocity": 73}, {"time": 2478, "pitch": 59, "duration": 13, "velocity": 75}, {"time": 2484, "pitch": 52, "duration": 26, "velocity": 68}, {"time": 2490, "pitch": 56, "duration": 15, "velocity": 73}, {"time": 2496, "pitch": 59, "duration": 13, "velocity": 79}, {"time": 2508, "pitch": 64, "duration": 14, "velocity": 81}, {"time": 2514, "pitch": 52, "duration": 5, "velocity": 74}, {"time": 2520, "pitch": 56, "duration": 3, "velocity": 75}, {"time": 2526, "pitch": 40, "duration": 38, "velocity": 80}, {"time": 2526, "pitch": 52, "duration": 6, "velocity": 74}, {"time": 2526, "pitch": 56, "duration": 12, "velocity": 72}, {"time": 2532, "pitch": 47, "duration": 30, "velocity": 68}, {"time": 2538, "pitch": 52, "duration": 14, "velocity": 81}, {"time": 2544, "pitch": 59, "duration": 10, "velocity": 78}, {"time": 2556, "pitch": 52, "duration": 4, "velocity": 81}, {"time": 2556, "pitch": 59, "duration": 8, "velocity": 74}, {"time": 2556, "pitch": 64, "duration": 11, "velocity": 67}, {"time": 2562, "pitch": 52, "duration": 3, "velocity": 78}, {"time": 2574, "pitch": 47, "duration": 37, "velocity": 79}, {"time": 2574, "pitch": 54, "duration": 3, "velocity": 80}, {"time": 2574, "pitch": 62, "duration": 7, "velocity": 80}, {"time": 2580, "pitch": 54, "duration": 10, "velocity": 76}, {"time": 2586, "pitch": 59, "duration": 12, "velocity": 72}, {"time": 2592, "pitch": 66, "duration": 13, "velocity": 80}, {"time": 2604, "pitch": 62, "duration": 8, "velocity": 85}, {"time": 2610, "pitch": 59, "duration": 7, "velocity": 78}, {"time": 2622, "pitch": 47, "duration": 12, "velocity": 83}, {"time": 2622, "pitch": 54, "duration": 3, "velocity": 81}, {"time": 2622, "pitch": 59, "duration": 7, "velocity": 81}, {"time": 2628, "pitch": 54, "duration": 8, "velocity": 76}, {"time": 2634, "pitch": 59, "duration": 4, "velocity": 80}, {"time": 2646, "pitch": 49, "duration": 14, "velocity": 81}, {"time": 2646, "pitch": 61, "duration": 7, "velocity": 78}, {"time": 2646, "pitch": 64, "duration": 14, "velocity": 80}, {"time": 2658, "pitch": 61, "duration": 6, "velocity": 74}, {"time": 2670, "pitch": 38, "duration": 31, "velocity": 85}, {"time": 2670, "pitch": 62, "duration": 4, "velocity": 76}, {"time": 2670, "pitch": 66, "duration": 12, "velocity": 73}, {"time": 2676, "pitch": 45, "duration": 26, "velocity": 69}, {"time": 2682, "pitch": 62, "duration": 9, "velocity": 69}, {"time": 2688, "pitch": 69, "duration": 13, "velocity": 69}, {"time": 2700, "pitch": 66, "duration": 5, "velocity": 73}, {"time": 2718, "pitch": 40, "duration": 45, "velocity": 80}, {"time": 2718, "pitch": 64, "duration": 6, "velocity": 68}, {"time": 2718, "pitch": 68, "duration": 12, "velocity": 72}, {"time": 2724, "pitch": 47, "duration": 38, "velocity": 71}, {"time": 2730, "pitch": 64, "duration": 3, "velocity": 76}, {"time": 2736, "pitch": 64, "duration": 23, "velocity": 80}, {"time": 2736, "pitch": 68, "duration": 24, "velocity": 83}, {"time": 2766, "pitch": 42, "duration": 45, "velocity": 77}, {"time": 2772, "pitch": 61, "duration": 8, "velocity": 79}, {"time": 2778, "pitch": 66, "duration": 36, "velocity": 74}, {"time": 2784, "pitch": 73, "duration": 28, "velocity": 81}, {"time": 2814, "pitch": 38, "duration": 46, "velocity": 73}, {"time": 2820, "pitch": 61, "duration": 12, "velocity": 75}, {"time": 2826, "pitch": 66, "duration": 36, "velocity": 70}, {"time": 2832, "pitch": 73, "duration": 30, "velocity": 78}, {"time": 2862, "pitch": 40, "duration": 49, "velocity": 79}, {"time": 2862, "pitch": 71, "duration": 10, "velocity": 80}, {"time": 2868, "pitch": 59, "duration": 8, "velocity": 76}, {"time": 2874, "pitch": 64, "duration": 8, "velocity": 72}, {"time": 2880, "pitch": 68, "duration": 28, "velocity": 74}, {"time": 2910, "pitch": 37, "duration": 45, "velocity": 81}, {"time": 2916, "pitch": 56, "duration": 8, "velocity": 72}, {"time": 2922, "pitch": 59, "duration": 25, "velocity": 75}, {"time": 2928, "pitch": 68, "duration": 28, "velocity": 73}, {"time": 2946, "pitch": 64, "duration": 12, "velocity": 78}, {"time": 2958, "pitch": 38, "duration": 49, "velocity": 79}, {"time": 2964, "pitch": 57, "duration": 9, "velocity": 66}, {"time": 2970, "pitch": 62, "duration": 24, "velocity": 75}, {"time": 2976, "pitch": 69, "duration": 18, "velocity": 68}, {"time": 3006, "pitch": 35, "duration": 46, "velocity": 79}, {"time": 3012, "pitch": 59, "duration": 8, "velocity": 70}, {"time": 3018, "pitch": 62, "duration": 31, "velocity": 69}, {"time": 3024, "pitch": 69, "duration": 26, "velocity": 67}, {"time": 3053, "pitch": 37, "duration": 36, "velocity": 85}, {"time": 3054, "pitch": 66, "duration": 14, "velocity": 71}, {"time": 3065, "pitch": 61, "duration": 29, "velocity": 67}, {"time": 3072, "pitch": 66, "duration": 21, "velocity": 75}, {"time": 3098, "pitch": 61, "duration": 48, "velocity": 70}, {"time": 3100, "pitch": 65, "duration": 48, "velocity": 67}, {"time": 3101, "pitch": 37, "duration": 35, "velocity": 72}, {"time": 3101, "pitch": 44, "duration": 35, "velocity": 70}, {"time": 3102, "pitch": 68, "duration": 44, "velocity": 71}, {"time": 3150, "pitch": 42, "duration": 41, "velocity": 82}, {"time": 3156, "pitch": 49, "duration": 21, "velocity": 72}, {"time": 3162, "pitch": 54, "duration": 24, "velocity": 81}, {"time": 3168, "pitch": 57, "duration": 20, "velocity": 66}, {"time": 3168, "pitch": 61, "duration": 27, "velocity": 79}, {"time": 3186, "pitch": 49, "duration": 5, "velocity": 73}, {"time": 3192, "pitch": 54, "duration": 14, "velocity": 74}, {"time": 3198, "pitch": 38, "duration": 29, "velocity": 81}, {"time": 3204, "pitch": 45, "duration": 24, "velocity": 65}, {"time": 3210, "pitch": 54, "duration": 14, "velocity": 74}, {"time": 3216, "pitch": 57, "duration": 13, "velocity": 75}, {"time": 3228, "pitch": 62, "duration": 7, "velocity": 74}, {"time": 3234, "pitch": 54, "duration": 2, "velocity": 59}, {"time": 3246, "pitch": 40, "duration": 38, "velocity": 82}, {"time": 3246, "pitch": 52, "duration": 8, "velocity": 72}, {"time": 3246, "pitch": 56, "duration": 12, "velocity": 72}, {"time": 3252, "pitch": 47, "duration": 29, "velocity": 70}, {"time": 3258, "pitch": 52, "duration": 19, "velocity": 74}, {"time": 3264, "pitch": 59, "duration": 13, "velocity": 77}, {"time": 3276, "pitch": 64, "duration": 7, "velocity": 75}, {"time": 3294, "pitch": 45, "duration": 19, "velocity": 76}, {"time": 3294, "pitch": 57, "duration": 8, "velocity": 73}, {"time": 3300, "pitch": 52, "duration": 10, "velocity": 70}, {"time": 3306, "pitch": 57, "duration": 8, "velocity": 67}, {"time": 3312, "pitch": 61, "duration": 5, "velocity": 79}, {"time": 3318, "pitch": 44, "duration": 15, "velocity": 80}, {"time": 3318, "pitch": 56, "duration": 13, "velocity": 67}, {"time": 3318, "pitch": 59, "duration": 14, "velocity": 76}, {"time": 3342, "pitch": 42, "duration": 33, "velocity": 80}, {"time": 3342, "pitch": 54, "duration": 8, "velocity": 71}, {"time": 3342, "pitch": 61, "duration": 14, "velocity": 74}, {"time": 3348, "pitch": 49, "duration": 26, "velocity": 69}, {"time": 3354, "pitch": 54, "duration": 17, "velocity": 74}, {"time": 3360, "pitch": 57, "duration": 10, "velocity": 81}, {"time": 3372, "pitch": 61, "duration": 3, "velocity": 74}, {"time": 3390, "pitch": 38, "duration": 22, "velocity": 79}, {"time": 3390, "pitch": 62, "duration": 13, "velocity": 78}, {"time": 3396, "pitch": 45, "duration": 17, "velocity": 57}, {"time": 3402, "pitch": 54, "duration": 18, "velocity": 75}, {"time": 3408, "pitch": 57, "duration": 12, "velocity": 81}, {"time": 3420, "pitch": 62, "duration": 3, "velocity": 75}, {"time": 3438, "pitch": 40, "duration": 37, "velocity": 73}, {"time": 3438, "pitch": 52, "duration": 7, "velocity": 69}, {"time": 3438, "pitch": 56, "duration": 13, "velocity": 71}, {"time": 3444, "pitch": 47, "duration": 29, "velocity": 68}, {"time": 3450, "pitch": 52, "duration": 20, "velocity": 79}, {"time": 3456, "pitch": 59, "duration": 16, "velocity": 78}, {"time": 3468, "pitch": 56, "duration": 7, "velocity": 71}, {"time": 3486, "pitch": 45, "duration": 29, "velocity": 73}, {"time": 3486, "pitch": 61, "duration": 10, "velocity": 78}, {"time": 3492, "pitch": 52, "duration": 10, "velocity": 72}, {"time": 3498, "pitch": 57, "duration": 8, "velocity": 67}, {"time": 3504, "pitch": 61, "duration": 14, "velocity": 80}, {"time": 3516, "pitch": 57, "duration": 8, "velocity": 80}, {"time": 3522, "pitch": 52, "duration": 4, "velocity": 75}, {"time": 3534, "pitch": 38, "duration": 26, "velocity": 79}, {"time": 3534, "pitch": 54, "duration": 8, "velocity": 69}, {"time": 3534, "pitch": 57, "duration": 13, "velocity": 64}, {"time": 3540, "pitch": 45, "duration": 21, "velocity": 61}, {"time": 3546, "pitch": 54, "duration": 8, "velocity": 74}, {"time": 3552, "pitch": 57, "duration": 13, "velocity": 75}, {"time": 3564, "pitch": 62, "duration": 3, "velocity": 81}, {"time": 3582, "pitch": 40, "duration": 36, "velocity": 79}, {"time": 3582, "pitch": 56, "duration": 7, "velocity": 70}, {"time": 3582, "pitch": 64, "duration": 18, "velocity": 77}, {"time": 3588, "pitch": 47, "duration": 28, "velocity": 66}, {"time": 3594, "pitch": 56, "duration": 13, "velocity": 73}, {"time": 3600, "pitch": 59, "duration": 13, "velocity": 80}, {"time": 3612, "pitch": 64, "duration": 4, "velocity": 80}, {"time": 3630, "pitch": 37, "duration": 27, "velocity": 80}, {"time": 3630, "pitch": 56, "duration": 7, "velocity": 70}, {"time": 3630, "pitch": 64, "duration": 18, "velocity": 73}, {"time": 3636, "pitch": 44, "duration": 20, "velocity": 63}, {"time": 3642, "pitch": 56, "duration": 19, "velocity": 73}, {"time": 3648, "pitch": 61, "duration": 12, "velocity": 79}, {"time": 3660, "pitch": 64, "duration": 3, "velocity": 80}, {"time": 3678, "pitch": 42, "duration": 32, "velocity": 81}, {"time": 3684, "pitch": 49, "duration": 25, "velocity": 67}, {"time": 3690, "pitch": 54, "duration": 5, "velocity": 76}, {"time": 3696, "pitch": 56, "duration": 9, "velocity": 80}, {"time": 3708, "pitch": 57, "duration": 3, "velocity": 81}, {"time": 3726, "pitch": 38, "duration": 27, "velocity": 79}, {"time": 3726, "pitch": 62, "duration": 14, "velocity": 69}, {"time": 3732, "pitch": 45, "duration": 22, "velocity": 66}, {"time": 3738, "pitch": 54, "duration": 8, "velocity": 71}, {"time": 3744, "pitch": 57, "duration": 5, "velocity": 80}, {"time": 3756, "pitch": 54, "duration": 5, "velocity": 75}, {"time": 3756, "pitch": 57, "duration": 3, "velocity": 75}, {"time": 3756, "pitch": 62, "duration": 4, "velocity": 71}, {"time": 3774, "pitch": 40, "duration": 36, "velocity": 73}, {"time": 3774, "pitch": 52, "duration": 8, "velocity": 64}, {"time": 3774, "pitch": 56, "duration": 12, "velocity": 70}, {"time": 3780, "pitch": 47, "duration": 28, "velocity": 67}, {"time": 3786, "pitch": 52, "duration": 10, "velocity": 67}, {"time": 3792, "pitch": 56, "duration": 8, "velocity": 80}, {"time": 3804, "pitch": 52, "duration": 5, "velocity": 74}, {"time": 3804, "pitch": 59, "duration": 6, "velocity": 72}, {"time": 3822, "pitch": 42, "duration": 44, "velocity": 78}, {"time": 3822, "pitch": 54, "duration": 7, "velocity": 72}, {"time": 3822, "pitch": 61, "duration": 13, "velocity": 75}, {"time": 3828, "pitch": 49, "duration": 37, "velocity": 68}, {"time": 3834, "pitch": 54, "duration": 5, "velocity": 75}, {"time": 3840, "pitch": 56, "duration": 10, "velocity": 80}, {"time": 3852, "pitch": 57, "duration": 3, "velocity": 80}, {"time": 3864, "pitch": 54, "duration": 11, "velocity": 72}, {"time": 3864, "pitch": 61, "duration": 14, "velocity": 79}, {"time": 3870, "pitch": 42, "duration": 17, "velocity": 79}, {"time": 3876, "pitch": 49, "duration": 11, "velocity": 69}, {"time": 3882, "pitch": 54, "duration": 6, "velocity": 80}, {"time": 3894, "pitch": 42, "duration": 10, "velocity": 80}, {"time": 3894, "pitch": 54, "duration": 10, "velocity": 75}, {"time": 3894, "pitch": 57, "duration": 8, "velocity": 67}, {"time": 3894, "pitch": 61, "duration": 14, "velocity": 74}, {"time": 3906, "pitch": 40, "duration": 12, "velocity": 79}, {"time": 3906, "pitch": 52, "duration": 12, "velocity": 76}, {"time": 3906, "pitch": 59, "duration": 12, "velocity": 71}, {"time": 3918, "pitch": 45, "duration": 42, "velocity": 85}, {"time": 3918, "pitch": 57, "duration": 8, "velocity": 78}, {"time": 3918, "pitch": 61, "duration": 14, "velocity": 79}, {"time": 3924, "pitch": 52, "duration": 37, "velocity": 69}, {"time": 3930, "pitch": 57, "duration": 19, "velocity": 77}, {"time": 3936, "pitch": 61, "duration": 12, "velocity": 78}, {"time": 3948, "pitch": 64, "duration": 9, "velocity": 80}, {"time": 3960, "pitch": 57, "duration": 8, "velocity": 70}, {"time": 3966, "pitch": 45, "duration": 46, "velocity": 83}, {"time": 3966, "pitch": 61, "duration": 13, "velocity": 76}, {"time": 3972, "pitch": 52, "duration": 41, "velocity": 75}, {"time": 3978, "pitch": 57, "duration": 19, "velocity": 79}, {"time": 3984, "pitch": 61, "duration": 2, "velocity": 66}, {"time": 3984, "pitch": 64, "duration": 12, "velocity": 79}, {"time": 3984, "pitch": 69, "duration": 12, "velocity": 79}, {"time": 3996, "pitch": 61, "duration": 6, "velocity": 79}, {"time": 4014, "pitch": 44, "duration": 37, "velocity": 74}, {"time": 4014, "pitch": 56, "duration": 6, "velocity": 68}, {"time": 4014, "pitch": 59, "duration": 16, "velocity": 74}, {"time": 4020, "pitch": 52, "duration": 29, "velocity": 69}, {"time": 4026, "pitch": 56, "duration": 9, "velocity": 75}, {"time": 4032, "pitch": 64, "duration": 13, "velocity": 80}, {"time": 4044, "pitch": 59, "duration": 3, "velocity": 80}, {"time": 4062, "pitch": 40, "duration": 38, "velocity": 79}, {"time": 4062, "pitch": 52, "duration": 6, "velocity": 71}, {"time": 4062, "pitch": 56, "duration": 15, "velocity": 70}, {"time": 4068, "pitch": 47, "duration": 28, "velocity": 65}, {"time": 4074, "pitch": 59, "duration": 8, "velocity": 81}, {"time": 4080, "pitch": 64, "duration": 19, "velocity": 79}, {"time": 4092, "pitch": 59, "duration": 7, "velocity": 79}, {"time": 4098, "pitch": 52, "duration": 3, "velocity": 79}, {"time": 4110, "pitch": 47, "duration": 36, "velocity": 78}, {"time": 4110, "pitch": 54, "duration": 4, "velocity": 74}, {"time": 4110, "pitch": 59, "duration": 7, "velocity": 78}, {"time": 4116, "pitch": 54, "duration": 9, "velocity": 74}, {"time": 4122, "pitch": 59, "duration": 7, "velocity": 75}, {"time": 4128, "pitch": 62, "duration": 14, "velocity": 80}, {"time": 4140, "pitch": 59, "duration": 4, "velocity": 71}, {"time": 4158, "pitch": 47, "duration": 15, "velocity": 81}, {"time": 4158, "pitch": 54, "duration": 3, "velocity": 79}, {"time": 4158, "pitch": 62, "duration": 13, "velocity": 79}, {"time": 4164, "pitch": 54, "duration": 8, "velocity": 75}, {"time": 4170, "pitch": 59, "duration": 9, "velocity": 76}, {"time": 4182, "pitch": 37, "duration": 12, "velocity": 81}, {"time": 4182, "pitch": 61, "duration": 18, "velocity": 78}, {"time": 4182, "pitch": 64, "duration": 18, "velocity": 78}, {"time": 4206, "pitch": 38, "duration": 31, "velocity": 81}, {"time": 4206, "pitch": 62, "duration": 6, "velocity": 71}, {"time": 4206, "pitch": 66, "duration": 11, "velocity": 73}, {"time": 4212, "pitch": 45, "duration": 26, "velocity": 65}, {"time": 4218, "pitch": 62, "duration": 11, "velocity": 79}, {"time": 4224, "pitch": 69, "duration": 13, "velocity": 69}, {"time": 4236, "pitch": 62, "duration": 2, "velocity": 85}, {"time": 4254, "pitch": 40, "duration": 33, "velocity": 81}, {"time": 4254, "pitch": 52, "duration": 7, "velocity": 72}, {"time": 4254, "pitch": 56, "duration": 12, "velocity": 70}, {"time": 4260, "pitch": 47, "duration": 26, "velocity": 72}, {"time": 4266, "pitch": 59, "duration": 7, "velocity": 81}, {"time": 4272, "pitch": 64, "duration": 14, "velocity": 81}, {"time": 4284, "pitch": 59, "duration": 7, "velocity": 80}, {"time": 4290, "pitch": 52, "duration": 5, "velocity": 79}, {"time": 4302, "pitch": 45, "duration": 41, "velocity": 80}, {"time": 4302, "pitch": 52, "duration": 4, "velocity": 70}, {"time": 4302, "pitch": 57, "duration": 8, "velocity": 72}, {"time": 4308, "pitch": 52, "duration": 36, "velocity": 61}, {"time": 4314, "pitch": 57, "duration": 4, "velocity": 88}, {"time": 4320, "pitch": 57, "duration": 8, "velocity": 80}, {"time": 4320, "pitch": 61, "duration": 7, "velocity": 81}, {"time": 4332, "pitch": 57, "duration": 6, "velocity": 69}, {"time": 4332, "pitch": 64, "duration": 8, "velocity": 78}, {"time": 4350, "pitch": 45, "duration": 36, "velocity": 84}, {"time": 4350, "pitch": 57, "duration": 6, "velocity": 70}, {"time": 4350, "pitch": 61, "duration": 14, "velocity": 75}, {"time": 4356, "pitch": 52, "duration": 15, "velocity": 77}, {"time": 4362, "pitch": 57, "duration": 2, "velocity": 68}, {"time": 4368, "pitch": 57, "duration": 8, "velocity": 80}, {"time": 4368, "pitch": 64, "duration": 9, "velocity": 74}, {"time": 4374, "pitch": 52, "duration": 10, "velocity": 70}, {"time": 4380, "pitch": 57, "duration": 4, "velocity": 80}, {"time": 4380, "pitch": 61, "duration": 6, "velocity": 80}, {"time": 4398, "pitch": 44, "duration": 41, "velocity": 77}, {"time": 4398, "pitch": 56, "duration": 6, "velocity": 73}, {"time": 4398, "pitch": 59, "duration": 13, "velocity": 75}, {"time": 4404, "pitch": 52, "duration": 26, "velocity": 68}, {"time": 4410, "pitch": 56, "duration": 15, "velocity": 73}, {"time": 4416, "pitch": 59, "duration": 13, "velocity": 79}, {"time": 4428, "pitch": 64, "duration": 14, "velocity": 81}, {"time": 4434, "pitch": 52, "duration": 5, "velocity": 74}, {"time": 4440, "pitch": 56, "duration": 3, "velocity": 75}, {"time": 4446, "pitch": 40, "duration": 38, "velocity": 80}, {"time": 4446, "pitch": 52, "duration": 6, "velocity": 74}, {"time": 4446, "pitch": 56, "duration": 12, "velocity": 72}, {"time": 4452, "pitch": 47, "duration": 30, "velocity": 68}, {"time": 4458, "pitch": 52, "duration": 14, "velocity": 81}, {"time": 4464, "pitch": 59, "duration": 10, "velocity": 78}, {"time": 4476, "pitch": 52, "duration": 4, "velocity": 81}, {"time": 4476, "pitch": 59, "duration": 8, "velocity": 74}, {"time": 4476, "pitch": 64, "duration": 11, "velocity": 67}, {"time": 4482, "pitch": 52, "duration": 3, "velocity": 78}, {"time": 4494, "pitch": 47, "duration": 37, "velocity": 79}, {"time": 4494, "pitch": 54, "duration": 3, "velocity": 80}, {"time": 4494, "pitch": 62, "duration": 7, "velocity": 80}, {"time": 4500, "pitch": 54, "duration": 10, "velocity": 76}, {"time": 4506, "pitch": 59, "duration": 12, "velocity": 72}, {"time": 4512, "pitch": 66, "duration": 13, "velocity": 80}, {"time": 4524, "pitch": 62, "duration": 8, "velocity": 85}, {"time": 4530, "pitch": 59, "duration": 7, "velocity": 78}, {"time": 4542, "pitch": 47, "duration": 12, "velocity": 83}, {"time": 4542, "pitch": 54, "duration": 3, "velocity": 81}, {"time": 4542, "pitch": 59, "duration": 7, "velocity": 81}, {"time": 4548, "pitch": 54, "duration": 8, "velocity": 76}, {"time": 4554, "pitch": 59, "duration": 4, "velocity": 80}, {"time": 4566, "pitch": 49, "duration": 14, "velocity": 81}, {"time": 4566, "pitch": 61, "duration": 7, "velocity": 78}, {"time": 4566, "pitch": 64, "duration": 14, "velocity": 80}, {"time": 4578, "pitch": 61, "duration": 6, "velocity": 74}, {"time": 4590, "pitch": 38, "duration": 31, "velocity": 85}, {"time": 4590, "pitch": 62, "duration": 4, "velocity": 76}, {"time": 4590, "pitch": 66, "duration": 12, "velocity": 73}, {"time": 4596, "pitch": 45, "duration": 26, "velocity": 69}, {"time": 4602, "pitch": 62, "duration": 9, "velocity": 69}, {"time": 4608, "pitch": 69, "duration": 13, "velocity": 69}, {"time": 4620, "pitch": 66, "duration": 5, "velocity": 73}, {"time": 4638, "pitch": 40, "duration": 37, "velocity": 82}, {"time": 4638, "pitch": 52, "duration": 6, "velocity": 79}, {"time": 4638, "pitch": 56, "duration": 7, "velocity": 80}, {"time": 4644, "pitch": 47, "duration": 20, "velocity": 79}, {"time": 4650, "pitch": 52, "duration": 8, "velocity": 83}, {"time": 4656, "pitch": 56, "duration": 3, "velocity": 79}, {"time": 4662, "pitch": 52, "duration": 6, "velocity": 83}, {"time": 4662, "pitch": 56, "duration": 7, "velocity": 93}, {"time": 4662, "pitch": 59, "duration": 8, "velocity": 88}, {"time": 4662, "pitch": 64, "duration": 8, "velocity": 81}, {"time": 4668, "pitch": 47, "duration": 8, "velocity": 79}, {"time": 4674, "pitch": 52, "duration": 3, "velocity": 80}, {"time": 4674, "pitch": 56, "duration": 3, "velocity": 77}, {"time": 4674, "pitch": 59, "duration": 3, "velocity": 78}, {"time": 4686, "pitch": 42, "duration": 38, "velocity": 80}, {"time": 4686, "pitch": 54, "duration": 3, "velocity": 78}, {"time": 4686, "pitch": 57, "duration": 6, "velocity": 69}, {"time": 4692, "pitch": 49, "duration": 8, "velocity": 72}, {"time": 4698, "pitch": 57, "duration": 6, "velocity": 80}, {"time": 4698, "pitch": 61, "duration": 7, "velocity": 82}, {"time": 4704, "pitch": 49, "duration": 9, "velocity": 70}, {"time": 4704, "pitch": 54, "duration": 3, "velocity": 72}, {"time": 4710, "pitch": 54, "duration": 3, "velocity": 85}, {"time": 4710, "pitch": 66, "duration": 4, "velocity": 79}, {"time": 4716, "pitch": 49, "duration": 6, "velocity": 73}, {"time": 4722, "pitch": 57, "duration": 5, "velocity": 79}, {"time": 4722, "pitch": 61, "duration": 5, "velocity": 79}, {"time": 4728, "pitch": 54, "duration": 3, "velocity": 75}, {"time": 4734, "pitch": 38, "duration": 31, "velocity": 74}, {"time": 4734, "pitch": 54, "duration": 6, "velocity": 73}, {"time": 4734, "pitch": 57, "duration": 9, "velocity": 72}, {"time": 4740, "pitch": 45, "duration": 21, "velocity": 65}, {"time": 4746, "pitch": 57, "duration": 4, "velocity": 81}, {"time": 4752, "pitch": 54, "duration": 3, "velocity": 79}, {"time": 4758, "pitch": 54, "duration": 3, "velocity": 80}, {"time": 4758, "pitch": 57, "duration": 4, "velocity": 90}, {"time": 4758, "pitch": 62, "duration": 6, "velocity": 88}, {"time": 4764, "pitch": 45, "duration": 3, "velocity": 74}, {"time": 4770, "pitch": 57, "duration": 4, "velocity": 83}, {"time": 4776, "pitch": 54, "duration": 3, "velocity": 80}, {"time": 4782, "pitch": 40, "duration": 42, "velocity": 79}, {"time": 4782, "pitch": 52, "duration": 4, "velocity": 73}, {"time": 4782, "pitch": 56, "duration": 7, "velocity": 75}, {"time": 4788, "pitch": 47, "duration": 36, "velocity": 68}, {"time": 4794, "pitch": 59, "duration": 6, "velocity": 74}, {"time": 4800, "pitch": 56, "duration": 3, "velocity": 79}, {"time": 4806, "pitch": 52, "duration": 10, "velocity": 80}, {"time": 4806, "pitch": 64, "duration": 8, "velocity": 80}, {"time": 4818, "pitch": 56, "duration": 5, "velocity": 81}, {"time": 4818, "pitch": 59, "duration": 7, "velocity": 79}, {"time": 4824, "pitch": 52, "duration": 2, "velocity": 80}, {"time": 4830, "pitch": 49, "duration": 32, "velocity": 81}, {"time": 4830, "pitch": 56, "duration": 3, "velocity": 76}, {"time": 4830, "pitch": 61, "duration": 7, "velocity": 79}, {"time": 4836, "pitch": 56, "duration": 5, "velocity": 72}, {"time": 4842, "pitch": 61, "duration": 3, "velocity": 72}, {"time": 4848, "pitch": 56, "duration": 3, "velocity": 73}, {"time": 4854, "pitch": 56, "duration": 3, "velocity": 80}, {"time": 4854, "pitch": 61, "duration": 5, "velocity": 82}, {"time": 4854, "pitch": 64, "duration": 7, "velocity": 80}, {"time": 4860, "pitch": 56, "duration": 3, "velocity": 71}, {"time": 4866, "pitch": 56, "duration": 3, "velocity": 68}, {"time": 4866, "pitch": 61, "duration": 3, "velocity": 74}, {"time": 4878, "pitch": 38, "duration": 34, "velocity": 79}, {"time": 4878, "pitch": 54, "duration": 3, "velocity": 74}, {"time": 4878, "pitch": 57, "duration": 8, "velocity": 74}, {"time": 4884, "pitch": 45, "duration": 28, "velocity": 67}, {"time": 4884, "pitch": 54, "duration": 5, "velocity": 73}, {"time": 4890, "pitch": 57, "duration": 3, "velocity": 72}, {"time": 4896, "pitch": 54, "duration": 3, "velocity": 72}, {"time": 4902, "pitch": 54, "duration": 3, "velocity": 80}, {"time": 4902, "pitch": 57, "duration": 6, "velocity": 83}, {"time": 4902, "pitch": 62, "duration": 7, "velocity": 82}, {"time": 4908, "pitch": 54, "duration": 3, "velocity": 72}, {"time": 4914, "pitch": 57, "duration": 4, "velocity": 84}, {"time": 4920, "pitch": 54, "duration": 3, "velocity": 81}, {"time": 4926, "pitch": 47, "duration": 32, "velocity": 80}, {"time": 4926, "pitch": 54, "duration": 3, "velocity": 79}, {"time": 4926, "pitch": 59, "duration": 7, "velocity": 80}, {"time": 4932, "pitch": 54, "duration": 6, "velocity": 75}, {"time": 4938, "pitch": 59, "duration": 3, "velocity": 73}, {"time": 4944, "pitch": 54, "duration": 3, "velocity": 75}, {"time": 4950, "pitch": 54, "duration": 3, "velocity": 80}, {"time": 4950, "pitch": 59, "duration": 4, "velocity": 84}, {"time": 4950, "pitch": 62, "duration": 8, "velocity": 85}, {"time": 4956, "pitch": 54, "duration": 5, "velocity": 74}, {"time": 4962, "pitch": 59, "duration": 8, "velocity": 68}, {"time": 4968, "pitch": 54, "duration": 4, "velocity": 68}, {"time": 4974, "pitch": 37, "duration": 2, "velocity": 80}, {"time": 4974, "pitch": 56, "duration": 6, "velocity": 79}, {"time": 4974, "pitch": 61, "duration": 7, "velocity": 76}, {"time": 4980, "pitch": 49, "duration": 33, "velocity": 79}, {"time": 4986, "pitch": 56, "duration": 16, "velocity": 84}, {"time": 4992, "pitch": 61, "duration": 4, "velocity": 84}, {"time": 4998, "pitch": 61, "duration": 1, "velocity": 59}, {"time": 4998, "pitch": 65, "duration": 7, "velocity": 85}, {"time": 4998, "pitch": 68, "duration": 8, "velocity": 80}, {"time": 5004, "pitch": 56, "duration": 8, "velocity": 79}, {"time": 5004, "pitch": 61, "duration": 2, "velocity": 73}, {"time": 5010, "pitch": 61, "duration": 3, "velocity": 81}, {"time": 5010, "pitch": 65, "duration": 4, "velocity": 83}, {"time": 5010, "pitch": 68, "duration": 5, "velocity": 82}, {"time": 5016, "pitch": 61, "duration": 3, "velocity": 80}, {"time": 5016, "pitch": 68, "duration": 1, "velocity": 58}, {"time": 5022, "pitch": 49, "duration": 33, "velocity": 84}, {"time": 5022, "pitch": 61, "duration": 8, "velocity": 83}, {"time": 5022, "pitch": 65, "duration": 9, "velocity": 88}, {"time": 5022, "pitch": 68, "duration": 10, "velocity": 85}, {"time": 5022, "pitch": 73, "duration": 10, "velocity": 86}, {"time": 5028, "pitch": 56, "duration": 27, "velocity": 75}, {"time": 5034, "pitch": 61, "duration": 4, "velocity": 66}, {"time": 5070, "pitch": 45, "duration": 40, "velocity": 80}, {"time": 5076, "pitch": 52, "duration": 36, "velocity": 76}, {"time": 5082, "pitch": 57, "duration": 17, "velocity": 70}, {"time": 5088, "pitch": 61, "duration": 11, "velocity": 79}, {"time": 5100, "pitch": 64, "duration": 9, "velocity": 79}, {"time": 5112, "pitch": 57, "duration": 10, "velocity": 61}, {"time": 5118, "pitch": 45, "duration": 36, "velocity": 66}, {"time": 5124, "pitch": 52, "duration": 36, "velocity": 71}, {"time": 5130, "pitch": 61, "duration": 13, "velocity": 72}, {"time": 5136, "pitch": 64, "duration": 7, "velocity": 68}, {"time": 5142, "pitch": 69, "duration": 11, "velocity": 70}, {"time": 5148, "pitch": 61, "duration": 7, "velocity": 74}, {"time": 5154, "pitch": 64, "duration": 2, "velocity": 68}, {"time": 5166, "pitch": 44, "duration": 44, "velocity": 69}, {"time": 5166, "pitch": 59, "duration": 13, "velocity": 68}, {"time": 5172, "pitch": 52, "duration": 39, "velocity": 66}, {"time": 5178, "pitch": 56, "duration": 9, "velocity": 72}, {"time": 5184, "pitch": 64, "duration": 13, "velocity": 79}, {"time": 5196, "pitch": 59, "duration": 29, "velocity": 76}, {"time": 5208, "pitch": 68, "duration": 22, "velocity": 72}, {"time": 5214, "pitch": 44, "duration": 42, "velocity": 75}, {"time": 5220, "pitch": 52, "duration": 34, "velocity": 64}, {"time": 5226, "pitch": 56, "duration": 9, "velocity": 71}, {"time": 5232, "pitch": 59, "duration": 11, "velocity": 79}, {"time": 5244, "pitch": 63, "duration": 6, "velocity": 72}, {"time": 5262, "pitch": 47, "duration": 41, "velocity": 68}, {"time": 5262, "pitch": 59, "duration": 7, "velocity": 73}, {"time": 5268, "pitch": 54, "duration": 8, "velocity": 77}, {"time": 5274, "pitch": 59, "duration": 7, "velocity": 74}, {"time": 5280, "pitch": 62, "duration": 6, "velocity": 82}, {"time": 5292, "pitch": 54, "duration": 4, "velocity": 79}, {"time": 5292, "pitch": 59, "duration": 5, "velocity": 80}, {"time": 5292, "pitch": 62, "duration": 6, "velocity": 81}, {"time": 5310, "pitch": 47, "duration": 12, "velocity": 83}, {"time": 5310, "pitch": 54, "duration": 7, "velocity": 75}, {"time": 5310, "pitch": 59, "duration": 9, "velocity": 82}, {"time": 5310, "pitch": 62, "duration": 10, "velocity": 81}, {"time": 5334, "pitch": 37, "duration": 14, "velocity": 84}, {"time": 5334, "pitch": 61, "duration": 13, "velocity": 75}, {"time": 5334, "pitch": 64, "duration": 13, "velocity": 77}, {"time": 5358, "pitch": 38, "duration": 22, "velocity": 81}, {"time": 5358, "pitch": 62, "duration": 6, "velocity": 73}, {"time": 5358, "pitch": 66, "duration": 8, "velocity": 76}, {"time": 5358, "pitch": 69, "duration": 7, "velocity": 75}, {"time": 5364, "pitch": 45, "duration": 16, "velocity": 71}, {"time": 5370, "pitch": 62, "duration": 3, "velocity": 73}, {"time": 5376, "pitch": 62, "duration": 8, "velocity": 83}, {"time": 5376, "pitch": 66, "duration": 7, "velocity": 84}, {"time": 5376, "pitch": 69, "duration": 6, "velocity": 86}, {"time": 5376, "pitch": 74, "duration": 7, "velocity": 75}, {"time": 5382, "pitch": 45, "duration": 3, "velocity": 71}, {"time": 5388, "pitch": 62, "duration": 3, "velocity": 81}, {"time": 5388, "pitch": 66, "duration": 2, "velocity": 80}, {"time": 5388, "pitch": 69, "duration": 2, "velocity": 81}, {"time": 5406, "pitch": 40, "duration": 47, "velocity": 80}, {"time": 5406, "pitch": 59, "duration": 5, "velocity": 79}, {"time": 5406, "pitch": 64, "duration": 8, "velocity": 80}, {"time": 5412, "pitch": 47, "duration": 15, "velocity": 75}, {"time": 5418, "pitch": 59, "duration": 2, "velocity": 79}, {"time": 5424, "pitch": 59, "duration": 10, "velocity": 83}, {"time": 5424, "pitch": 64, "duration": 10, "velocity": 82}, {"time": 5424, "pitch": 68, "duration": 9, "velocity": 81}, {"time": 5430, "pitch": 47, "duration": 23, "velocity": 79}, {"time": 5436, "pitch": 59, "duration": 8, "velocity": 88}, {"time": 5436, "pitch": 64, "duration": 17, "velocity": 83}, {"time": 5448, "pitch": 59, "duration": 5, "velocity": 81}, {"time": 5454, "pitch": 45, "duration": 32, "velocity": 85}, {"time": 5454, "pitch": 52, "duration": 7, "velocity": 71}, {"time": 5454, "pitch": 57, "duration": 15, "velocity": 70}, {"time": 5466, "pitch": 52, "duration": 4, "velocity": 72}, {"time": 5472, "pitch": 52, "duration": 6, "velocity": 79}, {"time": 5472, "pitch": 61, "duration": 8, "velocity": 80}, {"time": 5484, "pitch": 52, "duration": 3, "velocity": 79}, {"time": 5484, "pitch": 57, "duration": 4, "velocity": 81}, {"time": 5496, "pitch": 52, "duration": 7, "velocity": 73}, {"time": 5502, "pitch": 45, "duration": 45, "velocity": 81}, {"time": 5502, "pitch": 57, "duration": 4, "velocity": 78}, {"time": 5508, "pitch": 52, "duration": 40, "velocity": 74}, {"time": 5514, "pitch": 57, "duration": 7, "velocity": 81}, {"time": 5520, "pitch": 61, "duration": 5, "velocity": 80}, {"time": 5532, "pitch": 57, "duration": 4, "velocity": 79}, {"time": 5532, "pitch": 64, "duration": 6, "velocity": 75}, {"time": 5550, "pitch": 44, "duration": 41, "velocity": 77}, {"time": 5550, "pitch": 56, "duration": 6, "velocity": 72}, {"time": 5550, "pitch": 59, "duration": 13, "velocity": 77}, {"time": 5556, "pitch": 52, "duration": 33, "velocity": 69}, {"time": 5562, "pitch": 56, "duration": 8, "velocity": 69}, {"time": 5568, "pitch": 59, "duration": 14, "velocity": 77}, {"time": 5580, "pitch": 64, "duration": 12, "velocity": 80}, {"time": 5586, "pitch": 59, "duration": 7, "velocity": 71}, {"time": 5592, "pitch": 56, "duration": 3, "velocity": 74}, {"time": 5598, "pitch": 40, "duration": 31, "velocity": 79}, {"time": 5598, "pitch": 52, "duration": 7, "velocity": 79}, {"time": 5598, "pitch": 56, "duration": 12, "velocity": 79}, {"time": 5604, "pitch": 47, "duration": 24, "velocity": 67}, {"time": 5610, "pitch": 52, "duration": 14, "velocity": 75}, {"time": 5616, "pitch": 64, "duration": 9, "velocity": 82}, {"time": 5628, "pitch": 52, "duration": 2, "velocity": 79}, {"time": 5628, "pitch": 56, "duration": 3, "velocity": 80}, {"time": 5628, "pitch": 59, "duration": 4, "velocity": 80}, {"time": 5646, "pitch": 47, "duration": 37, "velocity": 80}, {"time": 5646, "pitch": 59, "duration": 7, "velocity": 74}, {"time": 5646, "pitch": 66, "duration": 14, "velocity": 75}, {"time": 5652, "pitch": 54, "duration": 30, "velocity": 71}, {"time": 5658, "pitch": 59, "duration": 3, "velocity": 77}, {"time": 5664, "pitch": 61, "duration": 4, "velocity": 80}, {"time": 5670, "pitch": 61, "duration": 1, "velocity": 60}, {"time": 5670, "pitch": 62, "duration": 5, "velocity": 93}, {"time": 5676, "pitch": 66, "duration": 6, "velocity": 79}, {"time": 5682, "pitch": 59, "duration": 6, "velocity": 79}, {"time": 5694, "pitch": 47, "duration": 12, "velocity": 83}, {"time": 5694, "pitch": 59, "duration": 5, "velocity": 79}, {"time": 5694, "pitch": 62, "duration": 8, "velocity": 82}, {"time": 5694, "pitch": 66, "duration": 10, "velocity": 79}, {"time": 5700, "pitch": 54, "duration": 6, "velocity": 76}, {"time": 5706, "pitch": 59, "duration": 7, "velocity": 80}, {"time": 5712, "pitch": 62, "duration": 4, "velocity": 80}, {"time": 5718, "pitch": 37, "duration": 15, "velocity": 82}, {"time": 5718, "pitch": 61, "duration": 4, "velocity": 76}, {"time": 5718, "pitch": 64, "duration": 6, "velocity": 80}, {"time": 5724, "pitch": 61, "duration": 9, "velocity": 69}, {"time": 5730, "pitch": 64, "duration": 9, "velocity": 71}, {"time": 5742, "pitch": 38, "duration": 31, "velocity": 88}, {"time": 5742, "pitch": 66, "duration": 9, "velocity": 64}, {"time": 5748, "pitch": 45, "duration": 25, "velocity": 68}, {"time": 5754, "pitch": 62, "duration": 8, "velocity": 68}, {"time": 5760, "pitch": 66, "duration": 3, "velocity": 74}, {"time": 5772, "pitch": 69, "duration": 3, "velocity": 82}, {"time": 5790, "pitch": 40, "duration": 45, "velocity": 78}, {"time": 5790, "pitch": 64, "duration": 6, "velocity": 67}, {"time": 5790, "pitch": 68, "duration": 9, "velocity": 68}, {"time": 5796, "pitch": 47, "duration": 37, "velocity": 64}, {"time": 5802, "pitch": 52, "duration": 5, "velocity": 73}, {"time": 5808, "pitch": 54, "duration": 4, "velocity": 73}, {"time": 5814, "pitch": 56, "duration": 7, "velocity": 68}, {"time": 5820, "pitch": 59, "duration": 7, "velocity": 78}, {"time": 5826, "pitch": 64, "duration": 45, "velocity": 79}, {"time": 5832, "pitch": 56, "duration": 26, "velocity": 62}, {"time": 5838, "pitch": 40, "duration": 38, "velocity": 66}, {"time": 5934, "pitch": 42, "duration": 45, "velocity": 77}, {"time": 5940, "pitch": 61, "duration": 8, "velocity": 79}, {"time": 5946, "pitch": 66, "duration": 36, "velocity": 74}, {"time": 5952, "pitch": 73, "duration": 28, "velocity": 81}, {"time": 5982, "pitch": 38, "duration": 46, "velocity": 73}, {"time": 5988, "pitch": 61, "duration": 12, "velocity": 75}, {"time": 5994, "pitch": 66, "duration": 36, "velocity": 70}, {"time": 6000, "pitch": 73, "duration": 30, "velocity": 78}, {"time": 6030, "pitch": 40, "duration": 49, "velocity": 79}, {"time": 6030, "pitch": 71, "duration": 10, "velocity": 80}, {"time": 6036, "pitch": 59, "duration": 8, "velocity": 76}, {"time": 6042, "pitch": 64, "duration": 8, "velocity": 72}, {"time": 6048, "pitch": 68, "duration": 28, "velocity": 74}, {"time": 6078, "pitch": 37, "duration": 45, "velocity": 81}, {"time": 6084, "pitch": 56, "duration": 8, "velocity": 72}, {"time": 6090, "pitch": 59, "duration": 25, "velocity": 75}, {"time": 6096, "pitch": 68, "duration": 28, "velocity": 73}, {"time": 6114, "pitch": 64, "duration": 12, "velocity": 78}, {"time": 6126, "pitch": 38, "duration": 49, "velocity": 79}, {"time": 6132, "pitch": 57, "duration": 9, "velocity": 66}, {"time": 6138, "pitch": 62, "duration": 24, "velocity": 75}, {"time": 6144, "pitch": 69, "duration": 18, "velocity": 68}, {"time": 6174, "pitch": 35, "duration": 46, "velocity": 79}, {"time": 6180, "pitch": 59, "duration": 8, "velocity": 70}, {"time": 6186, "pitch": 62, "duration": 31, "velocity": 69}, {"time": 6192, "pitch": 69, "duration": 26, "velocity": 67}, {"time": 6221, "pitch": 37, "duration": 36, "velocity": 85}, {"time": 6222, "pitch": 66, "duration": 14, "velocity": 71}, {"time": 6233, "pitch": 61, "duration": 29, "velocity": 67}, {"time": 6240, "pitch": 66, "duration": 21, "velocity": 75}, {"time": 6266, "pitch": 56, "duration": 5, "velocity": 64}, {"time": 6268, "pitch": 61, "duration": 6, "velocity": 75}, {"time": 6269, "pitch": 37, "duration": 14, "velocity": 80}, {"time": 6269, "pitch": 65, "duration": 15, "velocity": 68}, {"time": 6275, "pitch": 44, "duration": 7, "velocity": 58}, {"time": 6281, "pitch": 56, "duration": 8, "velocity": 68}, {"time": 6288, "pitch": 61, "duration": 9, "velocity": 74}, {"time": 6296, "pitch": 65, "duration": 7, "velocity": 70}, {"time": 6343, "pitch": 42, "duration": 72, "velocity": 77}, {"time": 6348, "pitch": 49, "duration": 65, "velocity": 69}, {"time": 6352, "pitch": 54, "duration": 6, "velocity": 66}, {"time": 6357, "pitch": 56, "duration": 5, "velocity": 66}, {"time": 6361, "pitch": 57, "duration": 14, "velocity": 54}, {"time": 6391, "pitch": 54, "duration": 22, "velocity": 60}, {"time": 6393, "pitch": 57, "duration": 20, "velocity": 59}, {"time": 6394, "pitch": 61, "duration": 19, "velocity": 62}, {"time": 6396, "pitch": 66, "duration": 16, "velocity": 61}], "annotations": [{"time": 317, "annotation": {"number": 64, "value": 127}, "group": "control_change"}, {"time": 317, "annotation": {"number": 64, "value": 0}, "group": "control_change"}, {"time": 318, "annotation": {"number": 64, "value": 127}, "group": "control_change"}, {"time": 365, "annotation": {"number": 64, "value": 0}, "group": "control_change"}, {"time": 380, "annotation": {"number": 64, "value": 127}, "group": "control_change"}, {"time": 380, "annotation": {"number": 64, "value": 0}, "group": "control_change"}, {"time": 381, "annotation": {"number": 64, "value": 127}, "group": "control_change"}, {"time": 457, "annotation": {"number": 64, "value": 0}, "group": "control_change"}, {"time": 472, "annotation": {"number": 64, "value": 127}, "group": "control_change"}, {"time": 515, "annotation": {"number": 64, "value": 0}, "group": "control_change"}, {"time": 523, "annotation": {"number": 64, "value": 127}, "group": "control_change"}, {"time": 557, "annotation": {"number": 64, "value": 0}, "group": "control_change"}, {"time": 567, "annotation": {"number": 64, "value": 127}, "group": "control_change"}, {"time": 604, "annotation": {"number": 64, "value": 0}, "group": "control_change"}, {"time": 609, "annotation": {"number": 64, "value": 127}, "group": "control_change"}, {"time": 651, "annotation": {"number": 64, "value": 0}, "group": "control_change"}, {"time": 662, "annotation": {"number": 64, "value": 127}, "group": "control_change"}, {"time": 700, "annotation": {"number": 64, "value": 0}, "group": "control_change"}, {"time": 712, "annotation": {"number": 64, "value": 127}, "group": "control_change"}, {"time": 747, "annotation": {"number": 64, "value": 0}, "group": "control_change"}, {"time": 758, "annotation": {"number": 64, "value": 127}, "group": "control_change"}, {"time": 798, "annotation": {"number": 64, "value": 0}, "group": "control_change"}, {"time": 804, "annotation": {"number": 64, "value": 127}, "group": "control_change"}, {"time": 847, "annotation": {"number": 64, "value": 0}, "group": "control_change"}, {"time": 857, "annotation": {"number": 64, "value": 127}, "group": "control_change"}, {"time": 894, "annotation": {"number": 64, "value": 0}, "group": "control_change"}, {"time": 904, "annotation": {"number": 64, "value": 127}, "group": "control_change"}, {"time": 904, "annotation": {"number": 64, "value": 0}, "group": "control_change"}, {"time": 940, "annotation": {"number": 64, "value": 0}, "group": "control_change"}, {"time": 951, "annotation": {"number": 64, "value": 127}, "group": "control_change"}, {"time": 989, "annotation": {"number": 64, "value": 0}, "group": "control_change"}, {"time": 1004, "annotation": {"number": 64, "value": 127}, "group": "control_change"}, {"time": 1038, "annotation": {"number": 64, "value": 0}, "group": "control_change"}, {"time": 1049, "annotation": {"number": 64, "value": 127}, "group": "control_change"}, {"time": 1084, "annotation": {"number": 64, "value": 0}, "group": "control_change"}, {"time": 1096, "annotation": {"number": 64, "value": 127}, "group": "control_change"}, {"time": 1133, "annotation": {"number": 64, "value": 0}, "group": "control_change"}, {"time": 1139, "annotation": {"number": 64, "value": 127}, "group": "control_change"}, {"time": 1179, "annotation": {"number": 64, "value": 0}, "group": "control_change"}, {"time": 1189, "annotation": {"number": 64, "value": 127}, "group": "control_change"}, {"time": 1229, "annotation": {"number": 64, "value": 0}, "group": "control_change"}, {"time": 1234, "annotation": {"number": 64, "value": 127}, "group": "control_change"}, {"time": 1275, "annotation": {"number": 64, "value": 0}, "group": "control_change"}, {"time": 1281, "annotation": {"number": 64, "value": 127}, "group": "control_change"}, {"time": 1328, "annotation": {"number": 64, "value": 0}, "group": "control_change"}, {"time": 1334, "annotation": {"number": 64, "value": 127}, "group": "control_change"}, {"time": 1371, "annotation": {"number": 64, "value": 0}, "group": "control_change"}, {"time": 1376, "annotation": {"number": 64, "value": 127}, "group": "control_change"}, {"time": 1399, "annotation": {"number": 64, "value": 0}, "group": "control_change"}, {"time": 1402, "annotation": {"number": 64, "value": 127}, "group": "control_change"}, {"time": 1417, "annotation": {"number": 64, "value": 0}, "group": "control_change"}, {"time": 1429, "annotation": {"number": 64, "value": 127}, "group": "control_change"}, {"time": 1470, "annotation": {"number": 64, "value": 0}, "group": "control_change"}, {"time": 1475, "annotation": {"number": 64, "value": 127}, "group": "control_change"}, {"time": 1516, "annotation": {"number": 64, "value": 0}, "group": "control_change"}, {"time": 1524, "annotation": {"number": 64, "value": 127}, "group": "control_change"}, {"time": 1563, "annotation": {"number": 64, "value": 0}, "group": "control_change"}, {"time": 1568, "annotation": {"number": 64, "value": 127}, "group": "control_change"}, {"time": 1612, "annotation": {"number": 64, "value": 0}, "group": "control_change"}, {"time": 1621, "annotation": {"number": 64, "value": 127}, "group": "control_change"}, {"time": 1622, "annotation": {"number": 64, "value": 0}, "group": "control_change"}, {"time": 1622, "annotation": {"number": 64, "value": 127}, "group": "control_change"}, {"time": 1660, "annotation": {"number": 64, "value": 0}, "group": "control_change"}, {"time": 1669, "annotation": {"number": 64, "value": 127}, "group": "control_change"}, {"time": 1709, "annotation": {"number": 64, "value": 0}, "group": "control_change"}, {"time": 1720, "annotation": {"number": 64, "value": 127}, "group": "control_change"}, {"time": 1757, "annotation": {"number": 64, "value": 0}, "group": "control_change"}, {"time": 1763, "annotation": {"number": 64, "value": 127}, "group": "control_change"}, {"time": 1804, "annotation": {"number": 64, "value": 0}, "group": "control_change"}, {"time": 1811, "annotation": {"number": 64, "value": 127}, "group": "control_change"}, {"time": 1852, "annotation": {"number": 64, "value": 0}, "group": "control_change"}, {"time": 1860, "annotation": {"number": 64, "value": 127}, "group": "control_change"}, {"time": 1901, "annotation": {"number": 64, "value": 0}, "group": "control_change"}, {"time": 1911, "annotation": {"number": 64, "value": 127}, "group": "control_change"}, {"time": 1948, "annotation": {"number": 64, "value": 0}, "group": "control_change"}, {"time": 1953, "annotation": {"number": 64, "value": 127}, "group": "control_change"}, {"time": 1953, "annotation": {"number": 64, "value": 0}, "group": "control_change"}, {"time": 1954, "annotation": {"number": 64, "value": 127}, "group": "control_change"}, {"time": 1970, "annotation": {"number": 64, "value": 0}, "group": "control_change"}, {"time": 1975, "annotation": {"number": 64, "value": 127}, "group": "control_change"}, {"time": 1984, "annotation": {"number": 64, "value": 0}, "group": "control_change"}, {"time": 1987, "annotation": {"number": 64, "value": 127}, "group": "control_change"}, {"time": 1995, "annotation": {"number": 64, "value": 0}, "group": "control_change"}, {"time": 2009, "annotation": {"number": 64, "value": 127}, "group": "control_change"}, {"time": 2045, "annotation": {"number": 64, "value": 0}, "group": "control_change"}, {"time": 2049, "annotation": {"number": 64, "value": 127}, "group": "control_change"}, {"time": 2092, "annotation": {"number": 64, "value": 0}, "group": "control_change"}, {"time": 2098, "annotation": {"number": 64, "value": 127}, "group": "control_change"}, {"time": 2139, "annotation": {"number": 64, "value": 0}, "group": "control_change"}, {"time": 2151, "annotation": {"number": 64, "value": 127}, "group": "control_change"}, {"time": 2188, "annotation": {"number": 64, "value": 0}, "group": "control_change"}, {"time": 2197, "annotation": {"number": 64, "value": 127}, "group": "control_change"}, {"time": 2197, "annotation": {"number": 64, "value": 0}, "group": "control_change"}, {"time": 2235, "annotation": {"number": 64, "value": 0}, "group": "control_change"}, {"time": 2238, "annotation": {"number": 64, "value": 127}, "group": "control_change"}, {"time": 2260, "annotation": {"number": 64, "value": 0}, "group": "control_change"}, {"time": 2262, "annotation": {"number": 64, "value": 127}, "group": "control_change"}, {"time": 2282, "annotation": {"number": 64, "value": 0}, "group": "control_change"}, {"time": 2286, "annotation": {"number": 64, "value": 127}, "group": "control_change"}, {"time": 2332, "annotation": {"number": 64, "value": 0}, "group": "control_change"}, {"time": 2337, "annotation": {"number": 64, "value": 127}, "group": "control_change"}, {"time": 2379, "annotation": {"number": 64, "value": 0}, "group": "control_change"}, {"time": 2383, "annotation": {"number": 64, "value": 127}, "group": "control_change"}, {"time": 2427, "annotation": {"number": 64, "value": 0}, "group": "control_change"}, {"time": 2431, "annotation": {"number": 64, "value": 127}, "group": "control_change"}, {"time": 2475, "annotation": {"number": 64, "value": 0}, "group": "control_change"}, {"time": 2481, "annotation": {"number": 64, "value": 127}, "group": "control_change"}, {"time": 2526, "annotation": {"number": 64, "value": 0}, "group": "control_change"}, {"time": 2531, "annotation": {"number": 64, "value": 127}, "group": "control_change"}, {"time": 2571, "annotation": {"number": 64, "value": 0}, "group": "control_change"}, {"time": 2575, "annotation": {"number": 64, "value": 127}, "group": "control_change"}, {"time": 2618, "annotation": {"number": 64, "value": 0}, "group": "control_change"}, {"time": 2621, "annotation": {"number": 64, "value": 127}, "group": "control_change"}, {"time": 2643, "annotation": {"number": 64, "value": 0}, "group": "control_change"}, {"time": 2646, "annotation": {"number": 64, "value": 127}, "group": "control_change"}, {"time": 2668, "annotation": {"number": 64, "value": 0}, "group": "control_change"}, {"time": 2672, "annotation": {"number": 64, "value": 127}, "group": "control_change"}, {"time": 2715, "annotation": {"number": 64, "value": 0}, "group": "control_change"}, {"time": 2720, "annotation": {"number": 64, "value": 127}, "group": "control_change"}, {"time": 2764, "annotation": {"number": 64, "value": 0}, "group": "control_change"}, {"time": 3053, "annotation": {"number": 64, "value": 127}, "group": "control_change"}, {"time": 3053, "annotation": {"number": 64, "value": 0}, "group": "control_change"}, {"time": 3054, "annotation": {"number": 64, "value": 127}, "group": "control_change"}, {"time": 3101, "annotation": {"number": 64, "value": 0}, "group": "control_change"}, {"time": 3116, "annotation": {"number": 64, "value": 127}, "group": "control_change"}, {"time": 3116, "annotation": {"number": 64, "value": 0}, "group": "control_change"}, {"time": 3117, "annotation": {"number": 64, "value": 127}, "group": "control_change"}, {"time": 3136, "annotation": {"number": 64, "value": 127}, "group": "control_change"}, {"time": 3145, "annotation": {"number": 64, "value": 0}, "group": "control_change"}, {"time": 3154, "annotation": {"number": 64, "value": 127}, "group": "control_change"}, {"time": 3195, "annotation": {"number": 64, "value": 0}, "group": "control_change"}, {"time": 3201, "annotation": {"number": 64, "value": 127}, "group": "control_change"}, {"time": 3248, "annotation": {"number": 64, "value": 0}, "group": "control_change"}, {"time": 3254, "annotation": {"number": 64, "value": 127}, "group": "control_change"}, {"time": 3291, "annotation": {"number": 64, "value": 0}, "group": "control_change"}, {"time": 3296, "annotation": {"number": 64, "value": 127}, "group": "control_change"}, {"time": 3319, "annotation": {"number": 64, "value": 0}, "group": "control_change"}, {"time": 3322, "annotation": {"number": 64, "value": 127}, "group": "control_change"}, {"time": 3337, "annotation": {"number": 64, "value": 0}, "group": "control_change"}, {"time": 3349, "annotation": {"number": 64, "value": 127}, "group": "control_change"}, {"time": 3390, "annotation": {"number": 64, "value": 0}, "group": "control_change"}, {"time": 3395, "annotation": {"number": 64, "value": 127}, "group": "control_change"}, {"time": 3436, "annotation": {"number": 64, "value": 0}, "group": "control_change"}, {"time": 3444, "annotation": {"number": 64, "value": 127}, "group": "control_change"}, {"time": 3483, "annotation": {"number": 64, "value": 0}, "group": "control_change"}, {"time": 3488, "annotation": {"number": 64, "value": 127}, "group": "control_change"}, {"time": 3532, "annotation": {"number": 64, "value": 0}, "group": "control_change"}, {"time": 3541, "annotation": {"number": 64, "value": 127}, "group": "control_change"}, {"time": 3542, "annotation": {"number": 64, "value": 0}, "group": "control_change"}, {"time": 3542, "annotation": {"number": 64, "value": 127}, "group": "control_change"}, {"time": 3580, "annotation": {"number": 64, "value": 0}, "group": "control_change"}, {"time": 3589, "annotation": {"number": 64, "value": 127}, "group": "control_change"}, {"time": 3629, "annotation": {"number": 64, "value": 0}, "group": "control_change"}, {"time": 3640, "annotation": {"number": 64, "value": 127}, "group": "control_change"}, {"time": 3677, "annotation": {"number": 64, "value": 0}, "group": "control_change"}, {"time": 3683, "annotation": {"number": 64, "value": 127}, "group": "control_change"}, {"time": 3724, "annotation": {"number": 64, "value": 0}, "group": "control_change"}, {"time": 3731, "annotation": {"number": 64, "value": 127}, "group": "control_change"}, {"time": 3772, "annotation": {"number": 64, "value": 0}, "group": "control_change"}, {"time": 3780, "annotation": {"number": 64, "value": 127}, "group": "control_change"}, {"time": 3821, "annotation": {"number": 64, "value": 0}, "group": "control_change"}, {"time": 3831, "annotation": {"number": 64, "value": 127}, "group": "control_change"}, {"time": 3868, "annotation": {"number": 64, "value": 0}, "group": "control_change"}, {"time": 3873, "annotation": {"number": 64, "value": 127}, "group": "control_change"}, {"time": 3873, "annotation": {"number": 64, "value": 0}, "group": "control_change"}, {"time": 3874, "annotation": {"number": 64, "value": 127}, "group": "control_change"}, {"time": 3890, "annotation": {"number": 64, "value": 0}, "group": "control_change"}, {"time": 3895, "annotation": {"number": 64, "value": 127}, "group": "control_change"}, {"time": 3904, "annotation": {"number": 64, "value": 0}, "group": "control_change"}, {"time": 3907, "annotation": {"number": 64, "value": 127}, "group": "control_change"}, {"time": 3915, "annotation": {"number": 64, "value": 0}, "group": "control_change"}, {"time": 3929, "annotation": {"number": 64, "value": 127}, "group": "control_change"}, {"time": 3965, "annotation": {"number": 64, "value": 0}, "group": "control_change"}, {"time": 3969, "annotation": {"number": 64, "value": 127}, "group": "control_change"}, {"time": 4012, "annotation": {"number": 64, "value": 0}, "group": "control_change"}, {"time": 4018, "annotation": {"number": 64, "value": 127}, "group": "control_change"}, {"time": 4059, "annotation": {"number": 64, "value": 0}, "group": "control_change"}, {"time": 4071, "annotation": {"number": 64, "value": 127}, "group": "control_change"}, {"time": 4108, "annotation": {"number": 64, "value": 0}, "group": "control_change"}, {"time": 4117, "annotation": {"number": 64, "value": 127}, "group": "control_change"}, {"time": 4117, "annotation": {"number": 64, "value": 0}, "group": "control_change"}, {"time": 4155, "annotation": {"number": 64, "value": 0}, "group": "control_change"}, {"time": 4158, "annotation": {"number": 64, "value": 127}, "group": "control_change"}, {"time": 4180, "annotation": {"number": 64, "value": 0}, "group": "control_change"}, {"time": 4182, "annotation": {"number": 64, "value": 127}, "group": "control_change"}, {"time": 4202, "annotation": {"number": 64, "value": 0}, "group": "control_change"}, {"time": 4206, "annotation": {"number": 64, "value": 127}, "group": "control_change"}, {"time": 4252, "annotation": {"number": 64, "value": 0}, "group": "control_change"}, {"time": 4257, "annotation": {"number": 64, "value": 127}, "group": "control_change"}, {"time": 4299, "annotation": {"number": 64, "value": 0}, "group": "control_change"}, {"time": 4303, "annotation": {"number": 64, "value": 127}, "group": "control_change"}, {"time": 4347, "annotation": {"number": 64, "value": 0}, "group": "control_change"}, {"time": 4351, "annotation": {"number": 64, "value": 127}, "group": "control_change"}, {"time": 4395, "annotation": {"number": 64, "value": 0}, "group": "control_change"}, {"time": 4401, "annotation": {"number": 64, "value": 127}, "group": "control_change"}, {"time": 4446, "annotation": {"number": 64, "value": 0}, "group": "control_change"}, {"time": 4451, "annotation": {"number": 64, "value": 127}, "group": "control_change"}, {"time": 4491, "annotation": {"number": 64, "value": 0}, "group": "control_change"}, {"time": 4495, "annotation": {"number": 64, "value": 127}, "group": "control_change"}, {"time": 4538, "annotation": {"number": 64, "value": 0}, "group": "control_change"}, {"time": 4541, "annotation": {"number": 64, "value": 127}, "group": "control_change"}, {"time": 4563, "annotation": {"number": 64, "value": 0}, "group": "control_change"}, {"time": 4566, "annotation": {"number": 64, "value": 127}, "group": "control_change"}, {"time": 4588, "annotation": {"number": 64, "value": 0}, "group": "control_change"}, {"time": 4592, "annotation": {"number": 64, "value": 127}, "group": "control_change"}, {"time": 4635, "annotation": {"number": 64, "value": 0}, "group": "control_change"}, {"time": 4639, "annotation": {"number": 64, "value": 127}, "group": "control_change"}, {"time": 4680, "annotation": {"number": 64, "value": 0}, "group": "control_change"}, {"time": 4687, "annotation": {"number": 64, "value": 127}, "group": "control_change"}, {"time": 4731, "annotation": {"number": 64, "value": 0}, "group": "control_change"}, {"time": 4735, "annotation": {"number": 64, "value": 127}, "group": "control_change"}, {"time": 4780, "annotation": {"number": 64, "value": 0}, "group": "control_change"}, {"time": 4784, "annotation": {"number": 64, "value": 127}, "group": "control_change"}, {"time": 4803, "annotation": {"number": 64, "value": 0}, "group": "control_change"}, {"time": 4805, "annotation": {"number": 64, "value": 127}, "group": "control_change"}, {"time": 4828, "annotation": {"number": 64, "value": 0}, "group": "control_change"}, {"time": 4831, "annotation": {"number": 64, "value": 127}, "group": "control_change"}, {"time": 4875, "annotation": {"number": 64, "value": 0}, "group": "control_change"}, {"time": 4879, "annotation": {"number": 64, "value": 127}, "group": "control_change"}, {"time": 4922, "annotation": {"number": 64, "value": 0}, "group": "control_change"}, {"time": 4926, "annotation": {"number": 64, "value": 127}, "group": "control_change"}, {"time": 4969, "annotation": {"number": 64, "value": 0}, "group": "control_change"}, {"time": 4973, "annotation": {"number": 64, "value": 127}, "group": "control_change"}, {"time": 5020, "annotation": {"number": 64, "value": 0}, "group": "control_change"}, {"time": 5022, "annotation": {"number": 64, "value": 127}, "group": "control_change"}, {"time": 5086, "annotation": {"number": 64, "value": 127}, "group": "control_change"}, {"time": 5086, "annotation": {"number": 64, "value": 0}, "group": "control_change"}, {"time": 5116, "annotation": {"number": 64, "value": 0}, "group": "control_change"}, {"time": 5119, "annotation": {"number": 64, "value": 127}, "group": "control_change"}, {"time": 5164, "annotation": {"number": 64, "value": 0}, "group": "control_change"}, {"time": 5176, "annotation": {"number": 64, "value": 127}, "group": "control_change"}, {"time": 5213, "annotation": {"number": 64, "value": 0}, "group": "control_change"}, {"time": 5220, "annotation": {"number": 64, "value": 127}, "group": "control_change"}, {"time": 5262, "annotation": {"number": 64, "value": 0}, "group": "control_change"}, {"time": 5266, "annotation": {"number": 64, "value": 127}, "group": "control_change"}, {"time": 5306, "annotation": {"number": 64, "value": 0}, "group": "control_change"}, {"time": 5309, "annotation": {"number": 64, "value": 127}, "group": "control_change"}, {"time": 5331, "annotation": {"number": 64, "value": 0}, "group": "control_change"}, {"time": 5334, "annotation": {"number": 64, "value": 127}, "group": "control_change"}, {"time": 5354, "annotation": {"number": 64, "value": 0}, "group": "control_change"}, {"time": 5358, "annotation": {"number": 64, "value": 127}, "group": "control_change"}, {"time": 5403, "annotation": {"number": 64, "value": 0}, "group": "control_change"}, {"time": 5408, "annotation": {"number": 64, "value": 127}, "group": "control_change"}, {"time": 5449, "annotation": {"number": 64, "value": 0}, "group": "control_change"}, {"time": 5458, "annotation": {"number": 64, "value": 127}, "group": "control_change"}, {"time": 5498, "annotation": {"number": 64, "value": 0}, "group": "control_change"}, {"time": 5502, "annotation": {"number": 64, "value": 127}, "group": "control_change"}, {"time": 5546, "annotation": {"number": 64, "value": 0}, "group": "control_change"}, {"time": 5554, "annotation": {"number": 64, "value": 127}, "group": "control_change"}, {"time": 5598, "annotation": {"number": 64, "value": 0}, "group": "control_change"}, {"time": 5607, "annotation": {"number": 64, "value": 127}, "group": "control_change"}, {"time": 5642, "annotation": {"number": 64, "value": 0}, "group": "control_change"}, {"time": 5654, "annotation": {"number": 64, "value": 127}, "group": "control_change"}, {"time": 5654, "annotation": {"number": 64, "value": 0}, "group": "control_change"}, {"time": 5690, "annotation": {"number": 64, "value": 0}, "group": "control_change"}, {"time": 5694, "annotation": {"number": 64, "value": 127}, "group": "control_change"}, {"time": 5715, "annotation": {"number": 64, "value": 0}, "group": "control_change"}, {"time": 5719, "annotation": {"number": 64, "value": 127}, "group": "control_change"}, {"time": 5740, "annotation": {"number": 64, "value": 0}, "group": "control_change"}, {"time": 5744, "annotation": {"number": 64, "value": 127}, "group": "control_change"}, {"time": 5786, "annotation": {"number": 64, "value": 0}, "group": "control_change"}, {"time": 5795, "annotation": {"number": 64, "value": 127}, "group": "control_change"}, {"time": 5930, "annotation": {"number": 64, "value": 0}, "group": "control_change"}, {"time": 6221, "annotation": {"number": 64, "value": 127}, "group": "control_change"}, {"time": 6221, "annotation": {"number": 64, "value": 0}, "group": "control_change"}, {"time": 6222, "annotation": {"number": 64, "value": 127}, "group": "control_change"}, {"time": 6270, "annotation": {"number": 64, "value": 127}, "group": "control_change"}, {"time": 6341, "annotation": {"number": 64, "value": 0}, "group": "control_change"}, {"time": 6351, "annotation": {"number": 64, "value": 127}, "group": "control_change"}, {"time": 6457, "annotation": {"number": 64, "value": 0}, "group": "control_change"}]}]}