{"metadata": {"schema_version": "0.2", "title": "None", "source_filename": "542.mid", "source_format": "midi"}, "resolution": 12, "tempos": [{"time": 0, "qpm": 120.0}], "key_signatures": [{"time": 0, "root": 0, "mode": "major"}], "time_signatures": [{"time": 0, "numerator": 4, "denominator": 4}, {"time": 0, "numerator": 1, "denominator": 4}], "tracks": [{"program": 0, "is_drum": false, "name": "MELODY", "notes": [{"time": 485, "pitch": 64, "duration": 2, "velocity": 105}, {"time": 494, "pitch": 64, "duration": 2, "velocity": 87}, {"time": 497, "pitch": 64, "duration": 2, "velocity": 80}, {"time": 503, "pitch": 64, "duration": 2, "velocity": 95}, {"time": 509, "pitch": 71, "duration": 5, "velocity": 93}, {"time": 521, "pitch": 71, "duration": 7, "velocity": 87}, {"time": 533, "pitch": 69, "duration": 4, "velocity": 93}, {"time": 539, "pitch": 67, "duration": 2, "velocity": 80}, {"time": 545, "pitch": 69, "duration": 3, "velocity": 93}, {"time": 551, "pitch": 71, "duration": 3, "velocity": 87}, {"time": 557, "pitch": 71, "duration": 5, "velocity": 93}, {"time": 581, "pitch": 64, "duration": 3, "velocity": 93}, {"time": 590, "pitch": 64, "duration": 1, "velocity": 80}, {"time": 593, "pitch": 64, "duration": 2, "velocity": 74}, {"time": 599, "pitch": 64, "duration": 2, "velocity": 87}, {"time": 605, "pitch": 69, "duration": 4, "velocity": 102}, {"time": 617, "pitch": 69, "duration": 3, "velocity": 90}, {"time": 629, "pitch": 67, "duration": 3, "velocity": 85}, {"time": 635, "pitch": 64, "duration": 2, "velocity": 85}, {"time": 641, "pitch": 67, "duration": 2, "velocity": 83}, {"time": 647, "pitch": 69, "duration": 3, "velocity": 87}, {"time": 653, "pitch": 69, "duration": 4, "velocity": 93}, {"time": 677, "pitch": 71, "duration": 1, "velocity": 69}, {"time": 683, "pitch": 71, "duration": 2, "velocity": 93}, {"time": 689, "pitch": 71, "duration": 2, "velocity": 95}, {"time": 695, "pitch": 71, "duration": 3, "velocity": 95}, {"time": 701, "pitch": 76, "duration": 6, "velocity": 95}, {"time": 713, "pitch": 76, "duration": 4, "velocity": 95}, {"time": 725, "pitch": 74, "duration": 3, "velocity": 66}, {"time": 731, "pitch": 71, "duration": 2, "velocity": 80}, {"time": 737, "pitch": 71, "duration": 2, "velocity": 93}, {"time": 743, "pitch": 74, "duration": 2, "velocity": 105}, {"time": 749, "pitch": 64, "duration": 12, "velocity": 103}, {"time": 773, "pitch": 69, "duration": 6, "velocity": 93}, {"time": 782, "pitch": 69, "duration": 2, "velocity": 80}, {"time": 785, "pitch": 69, "duration": 3, "velocity": 83}, {"time": 791, "pitch": 67, "duration": 2, "velocity": 95}, {"time": 797, "pitch": 71, "duration": 6, "velocity": 93}, {"time": 809, "pitch": 69, "duration": 4, "velocity": 102}, {"time": 821, "pitch": 62, "duration": 2, "velocity": 87}, {"time": 827, "pitch": 59, "duration": 3, "velocity": 80}, {"time": 833, "pitch": 62, "duration": 2, "velocity": 87}, {"time": 839, "pitch": 64, "duration": 3, "velocity": 83}, {"time": 845, "pitch": 64, "duration": 7, "velocity": 87}, {"time": 869, "pitch": 64, "duration": 3, "velocity": 95}, {"time": 878, "pitch": 64, "duration": 1, "velocity": 90}, {"time": 881, "pitch": 64, "duration": 2, "velocity": 85}, {"time": 887, "pitch": 64, "duration": 2, "velocity": 93}, {"time": 893, "pitch": 71, "duration": 4, "velocity": 85}, {"time": 905, "pitch": 71, "duration": 5, "velocity": 95}, {"time": 917, "pitch": 69, "duration": 3, "velocity": 90}, {"time": 923, "pitch": 67, "duration": 2, "velocity": 80}, {"time": 929, "pitch": 69, "duration": 2, "velocity": 90}, {"time": 935, "pitch": 71, "duration": 3, "velocity": 87}, {"time": 941, "pitch": 71, "duration": 5, "velocity": 87}, {"time": 965, "pitch": 64, "duration": 3, "velocity": 102}, {"time": 974, "pitch": 64, "duration": 1, "velocity": 80}, {"time": 977, "pitch": 64, "duration": 2, "velocity": 80}, {"time": 983, "pitch": 64, "duration": 3, "velocity": 87}, {"time": 989, "pitch": 69, "duration": 5, "velocity": 103}, {"time": 1001, "pitch": 69, "duration": 6, "velocity": 93}, {"time": 1013, "pitch": 67, "duration": 3, "velocity": 87}, {"time": 1019, "pitch": 64, "duration": 3, "velocity": 70}, {"time": 1025, "pitch": 67, "duration": 2, "velocity": 80}, {"time": 1031, "pitch": 69, "duration": 3, "velocity": 85}, {"time": 1037, "pitch": 69, "duration": 6, "velocity": 87}, {"time": 1061, "pitch": 71, "duration": 3, "velocity": 87}, {"time": 1067, "pitch": 71, "duration": 2, "velocity": 80}, {"time": 1073, "pitch": 71, "duration": 2, "velocity": 83}, {"time": 1079, "pitch": 71, "duration": 3, "velocity": 87}, {"time": 1085, "pitch": 76, "duration": 7, "velocity": 93}, {"time": 1097, "pitch": 76, "duration": 4, "velocity": 102}, {"time": 1109, "pitch": 74, "duration": 4, "velocity": 87}, {"time": 1115, "pitch": 71, "duration": 2, "velocity": 93}, {"time": 1121, "pitch": 71, "duration": 3, "velocity": 83}, {"time": 1127, "pitch": 74, "duration": 3, "velocity": 87}, {"time": 1133, "pitch": 64, "duration": 6, "velocity": 93}, {"time": 1157, "pitch": 69, "duration": 2, "velocity": 80}, {"time": 1163, "pitch": 69, "duration": 2, "velocity": 80}, {"time": 1169, "pitch": 69, "duration": 3, "velocity": 90}, {"time": 1175, "pitch": 67, "duration": 2, "velocity": 87}, {"time": 1181, "pitch": 71, "duration": 7, "velocity": 95}, {"time": 1193, "pitch": 71, "duration": 4, "velocity": 93}, {"time": 1205, "pitch": 62, "duration": 4, "velocity": 67}, {"time": 1217, "pitch": 59, "duration": 3, "velocity": 87}, {"time": 1223, "pitch": 62, "duration": 3, "velocity": 80}, {"time": 1229, "pitch": 64, "duration": 5, "velocity": 93}, {"time": 1253, "pitch": 64, "duration": 7, "velocity": 102}, {"time": 1265, "pitch": 67, "duration": 2, "velocity": 83}, {"time": 1271, "pitch": 64, "duration": 2, "velocity": 69}, {"time": 1277, "pitch": 71, "duration": 8, "velocity": 93}, {"time": 1289, "pitch": 71, "duration": 4, "velocity": 93}, {"time": 1301, "pitch": 67, "duration": 6, "velocity": 74}, {"time": 1313, "pitch": 64, "duration": 3, "velocity": 93}, {"time": 1319, "pitch": 62, "duration": 3, "velocity": 80}, {"time": 1325, "pitch": 64, "duration": 8, "velocity": 87}, {"time": 1349, "pitch": 67, "duration": 5, "velocity": 93}, {"time": 1358, "pitch": 67, "duration": 1, "velocity": 74}, {"time": 1361, "pitch": 64, "duration": 2, "velocity": 80}, {"time": 1367, "pitch": 62, "duration": 2, "velocity": 93}, {"time": 1373, "pitch": 67, "duration": 5, "velocity": 87}, {"time": 1382, "pitch": 67, "duration": 2, "velocity": 72}, {"time": 1385, "pitch": 64, "duration": 2, "velocity": 93}, {"time": 1391, "pitch": 62, "duration": 3, "velocity": 87}, {"time": 1397, "pitch": 67, "duration": 7, "velocity": 69}, {"time": 1406, "pitch": 67, "duration": 3, "velocity": 100}, {"time": 1409, "pitch": 69, "duration": 3, "velocity": 87}, {"time": 1415, "pitch": 71, "duration": 3, "velocity": 87}, {"time": 1421, "pitch": 71, "duration": 6, "velocity": 83}, {"time": 1445, "pitch": 71, "duration": 9, "velocity": 95}, {"time": 1457, "pitch": 74, "duration": 8, "velocity": 93}, {"time": 1469, "pitch": 72, "duration": 8, "velocity": 80}, {"time": 1481, "pitch": 72, "duration": 7, "velocity": 80}, {"time": 1493, "pitch": 71, "duration": 3, "velocity": 87}, {"time": 1499, "pitch": 71, "duration": 3, "velocity": 87}, {"time": 1505, "pitch": 71, "duration": 3, "velocity": 87}, {"time": 1511, "pitch": 69, "duration": 2, "velocity": 87}, {"time": 1517, "pitch": 67, "duration": 7, "velocity": 80}, {"time": 1541, "pitch": 69, "duration": 5, "velocity": 93}, {"time": 1550, "pitch": 69, "duration": 1, "velocity": 72}, {"time": 1553, "pitch": 69, "duration": 2, "velocity": 87}, {"time": 1559, "pitch": 67, "duration": 2, "velocity": 80}, {"time": 1565, "pitch": 69, "duration": 2, "velocity": 87}, {"time": 1571, "pitch": 71, "duration": 2, "velocity": 83}, {"time": 1577, "pitch": 69, "duration": 3, "velocity": 87}, {"time": 1589, "pitch": 62, "duration": 2, "velocity": 80}, {"time": 1595, "pitch": 59, "duration": 2, "velocity": 80}, {"time": 1601, "pitch": 62, "duration": 3, "velocity": 70}, {"time": 1607, "pitch": 64, "duration": 3, "velocity": 83}, {"time": 1613, "pitch": 64, "duration": 5, "velocity": 93}, {"time": 1637, "pitch": 64, "duration": 8, "velocity": 93}, {"time": 1649, "pitch": 67, "duration": 3, "velocity": 87}, {"time": 1655, "pitch": 64, "duration": 3, "velocity": 95}, {"time": 1661, "pitch": 71, "duration": 8, "velocity": 83}, {"time": 1673, "pitch": 71, "duration": 5, "velocity": 93}, {"time": 1685, "pitch": 67, "duration": 6, "velocity": 87}, {"time": 1697, "pitch": 64, "duration": 3, "velocity": 93}, {"time": 1703, "pitch": 62, "duration": 3, "velocity": 87}, {"time": 1709, "pitch": 64, "duration": 9, "velocity": 80}, {"time": 1733, "pitch": 67, "duration": 5, "velocity": 95}, {"time": 1742, "pitch": 67, "duration": 2, "velocity": 93}, {"time": 1745, "pitch": 64, "duration": 2, "velocity": 90}, {"time": 1751, "pitch": 62, "duration": 3, "velocity": 93}, {"time": 1757, "pitch": 67, "duration": 4, "velocity": 87}, {"time": 1766, "pitch": 67, "duration": 2, "velocity": 95}, {"time": 1769, "pitch": 64, "duration": 2, "velocity": 93}, {"time": 1775, "pitch": 62, "duration": 2, "velocity": 87}, {"time": 1781, "pitch": 67, "duration": 8, "velocity": 93}, {"time": 1790, "pitch": 67, "duration": 3, "velocity": 100}, {"time": 1793, "pitch": 69, "duration": 3, "velocity": 102}, {"time": 1799, "pitch": 71, "duration": 2, "velocity": 93}, {"time": 1805, "pitch": 71, "duration": 5, "velocity": 93}, {"time": 1829, "pitch": 71, "duration": 7, "velocity": 90}, {"time": 1841, "pitch": 71, "duration": 3, "velocity": 93}, {"time": 1847, "pitch": 74, "duration": 3, "velocity": 93}, {"time": 1853, "pitch": 72, "duration": 8, "velocity": 93}, {"time": 1865, "pitch": 72, "duration": 5, "velocity": 93}, {"time": 1877, "pitch": 71, "duration": 8, "velocity": 87}, {"time": 1889, "pitch": 71, "duration": 3, "velocity": 93}, {"time": 1895, "pitch": 69, "duration": 3, "velocity": 95}, {"time": 1901, "pitch": 67, "duration": 7, "velocity": 93}, {"time": 1925, "pitch": 69, "duration": 2, "velocity": 102}, {"time": 1931, "pitch": 69, "duration": 3, "velocity": 93}, {"time": 1937, "pitch": 69, "duration": 3, "velocity": 93}, {"time": 1943, "pitch": 67, "duration": 3, "velocity": 87}, {"time": 1949, "pitch": 69, "duration": 4, "velocity": 95}, {"time": 1955, "pitch": 71, "duration": 3, "velocity": 93}, {"time": 1961, "pitch": 69, "duration": 5, "velocity": 93}, {"time": 1973, "pitch": 62, "duration": 5, "velocity": 93}, {"time": 1982, "pitch": 62, "duration": 2, "velocity": 80}, {"time": 1985, "pitch": 67, "duration": 2, "velocity": 83}, {"time": 1991, "pitch": 66, "duration": 3, "velocity": 67}, {"time": 1997, "pitch": 64, "duration": 9, "velocity": 90}, {"time": 2021, "pitch": 64, "duration": 2, "velocity": 105}, {"time": 2030, "pitch": 64, "duration": 2, "velocity": 87}, {"time": 2033, "pitch": 64, "duration": 2, "velocity": 80}, {"time": 2039, "pitch": 64, "duration": 2, "velocity": 95}, {"time": 2045, "pitch": 71, "duration": 5, "velocity": 93}, {"time": 2057, "pitch": 71, "duration": 7, "velocity": 87}, {"time": 2069, "pitch": 69, "duration": 4, "velocity": 93}, {"time": 2075, "pitch": 67, "duration": 2, "velocity": 80}, {"time": 2081, "pitch": 69, "duration": 3, "velocity": 93}, {"time": 2087, "pitch": 71, "duration": 3, "velocity": 87}, {"time": 2093, "pitch": 71, "duration": 5, "velocity": 93}, {"time": 2117, "pitch": 64, "duration": 3, "velocity": 93}, {"time": 2126, "pitch": 64, "duration": 1, "velocity": 80}, {"time": 2129, "pitch": 64, "duration": 2, "velocity": 74}, {"time": 2135, "pitch": 64, "duration": 2, "velocity": 87}, {"time": 2141, "pitch": 69, "duration": 4, "velocity": 102}, {"time": 2153, "pitch": 69, "duration": 3, "velocity": 90}, {"time": 2165, "pitch": 67, "duration": 3, "velocity": 85}, {"time": 2171, "pitch": 64, "duration": 2, "velocity": 85}, {"time": 2177, "pitch": 67, "duration": 2, "velocity": 83}, {"time": 2183, "pitch": 69, "duration": 3, "velocity": 87}, {"time": 2189, "pitch": 69, "duration": 4, "velocity": 93}, {"time": 2213, "pitch": 71, "duration": 1, "velocity": 69}, {"time": 2219, "pitch": 71, "duration": 2, "velocity": 93}, {"time": 2225, "pitch": 71, "duration": 2, "velocity": 95}, {"time": 2231, "pitch": 71, "duration": 3, "velocity": 95}, {"time": 2237, "pitch": 76, "duration": 6, "velocity": 95}, {"time": 2249, "pitch": 76, "duration": 4, "velocity": 95}, {"time": 2261, "pitch": 74, "duration": 3, "velocity": 66}, {"time": 2267, "pitch": 71, "duration": 2, "velocity": 80}, {"time": 2273, "pitch": 71, "duration": 2, "velocity": 93}, {"time": 2279, "pitch": 74, "duration": 2, "velocity": 105}, {"time": 2285, "pitch": 64, "duration": 12, "velocity": 103}, {"time": 2309, "pitch": 69, "duration": 6, "velocity": 93}, {"time": 2318, "pitch": 69, "duration": 2, "velocity": 80}, {"time": 2321, "pitch": 69, "duration": 3, "velocity": 83}, {"time": 2327, "pitch": 67, "duration": 2, "velocity": 95}, {"time": 2333, "pitch": 71, "duration": 6, "velocity": 93}, {"time": 2345, "pitch": 69, "duration": 4, "velocity": 102}, {"time": 2357, "pitch": 62, "duration": 2, "velocity": 87}, {"time": 2363, "pitch": 59, "duration": 3, "velocity": 80}, {"time": 2369, "pitch": 62, "duration": 2, "velocity": 87}, {"time": 2375, "pitch": 64, "duration": 3, "velocity": 83}, {"time": 2381, "pitch": 64, "duration": 7, "velocity": 87}, {"time": 2405, "pitch": 64, "duration": 3, "velocity": 95}, {"time": 2414, "pitch": 64, "duration": 1, "velocity": 90}, {"time": 2417, "pitch": 64, "duration": 2, "velocity": 85}, {"time": 2423, "pitch": 64, "duration": 2, "velocity": 93}, {"time": 2429, "pitch": 71, "duration": 4, "velocity": 85}, {"time": 2441, "pitch": 71, "duration": 5, "velocity": 95}, {"time": 2453, "pitch": 69, "duration": 3, "velocity": 90}, {"time": 2459, "pitch": 67, "duration": 2, "velocity": 80}, {"time": 2465, "pitch": 69, "duration": 2, "velocity": 90}, {"time": 2471, "pitch": 71, "duration": 3, "velocity": 87}, {"time": 2477, "pitch": 71, "duration": 5, "velocity": 87}, {"time": 2501, "pitch": 64, "duration": 3, "velocity": 102}, {"time": 2510, "pitch": 64, "duration": 1, "velocity": 80}, {"time": 2513, "pitch": 64, "duration": 2, "velocity": 80}, {"time": 2519, "pitch": 64, "duration": 3, "velocity": 87}, {"time": 2525, "pitch": 69, "duration": 5, "velocity": 103}, {"time": 2537, "pitch": 69, "duration": 6, "velocity": 93}, {"time": 2549, "pitch": 67, "duration": 3, "velocity": 87}, {"time": 2555, "pitch": 64, "duration": 3, "velocity": 70}, {"time": 2561, "pitch": 67, "duration": 2, "velocity": 80}, {"time": 2567, "pitch": 69, "duration": 3, "velocity": 85}, {"time": 2573, "pitch": 69, "duration": 6, "velocity": 87}, {"time": 2597, "pitch": 71, "duration": 3, "velocity": 87}, {"time": 2603, "pitch": 71, "duration": 2, "velocity": 80}, {"time": 2609, "pitch": 71, "duration": 2, "velocity": 83}, {"time": 2615, "pitch": 71, "duration": 3, "velocity": 87}, {"time": 2621, "pitch": 76, "duration": 7, "velocity": 93}, {"time": 2633, "pitch": 76, "duration": 4, "velocity": 102}, {"time": 2645, "pitch": 74, "duration": 4, "velocity": 87}, {"time": 2651, "pitch": 71, "duration": 2, "velocity": 93}, {"time": 2657, "pitch": 71, "duration": 3, "velocity": 83}, {"time": 2663, "pitch": 74, "duration": 3, "velocity": 87}, {"time": 2669, "pitch": 64, "duration": 6, "velocity": 93}, {"time": 2693, "pitch": 69, "duration": 2, "velocity": 80}, {"time": 2699, "pitch": 69, "duration": 2, "velocity": 80}, {"time": 2705, "pitch": 69, "duration": 3, "velocity": 90}, {"time": 2711, "pitch": 67, "duration": 2, "velocity": 87}, {"time": 2717, "pitch": 71, "duration": 7, "velocity": 95}, {"time": 2729, "pitch": 71, "duration": 4, "velocity": 93}, {"time": 2741, "pitch": 62, "duration": 4, "velocity": 67}, {"time": 2753, "pitch": 59, "duration": 3, "velocity": 87}, {"time": 2759, "pitch": 62, "duration": 3, "velocity": 80}, {"time": 2765, "pitch": 64, "duration": 5, "velocity": 93}, {"time": 3173, "pitch": 64, "duration": 7, "velocity": 102}, {"time": 3185, "pitch": 67, "duration": 2, "velocity": 83}, {"time": 3191, "pitch": 64, "duration": 2, "velocity": 69}, {"time": 3197, "pitch": 71, "duration": 8, "velocity": 93}, {"time": 3209, "pitch": 71, "duration": 4, "velocity": 93}, {"time": 3221, "pitch": 67, "duration": 6, "velocity": 74}, {"time": 3233, "pitch": 64, "duration": 3, "velocity": 93}, {"time": 3239, "pitch": 62, "duration": 3, "velocity": 80}, {"time": 3245, "pitch": 64, "duration": 8, "velocity": 87}, {"time": 3269, "pitch": 67, "duration": 5, "velocity": 93}, {"time": 3278, "pitch": 67, "duration": 1, "velocity": 74}, {"time": 3281, "pitch": 64, "duration": 2, "velocity": 80}, {"time": 3287, "pitch": 62, "duration": 2, "velocity": 93}, {"time": 3293, "pitch": 67, "duration": 5, "velocity": 87}, {"time": 3302, "pitch": 67, "duration": 2, "velocity": 72}, {"time": 3305, "pitch": 64, "duration": 2, "velocity": 93}, {"time": 3311, "pitch": 62, "duration": 3, "velocity": 87}, {"time": 3317, "pitch": 67, "duration": 7, "velocity": 69}, {"time": 3326, "pitch": 67, "duration": 3, "velocity": 100}, {"time": 3329, "pitch": 69, "duration": 3, "velocity": 87}, {"time": 3335, "pitch": 71, "duration": 3, "velocity": 87}, {"time": 3341, "pitch": 71, "duration": 6, "velocity": 83}, {"time": 3365, "pitch": 71, "duration": 9, "velocity": 95}, {"time": 3377, "pitch": 74, "duration": 8, "velocity": 93}, {"time": 3389, "pitch": 72, "duration": 8, "velocity": 80}, {"time": 3401, "pitch": 72, "duration": 7, "velocity": 80}, {"time": 3413, "pitch": 71, "duration": 3, "velocity": 87}, {"time": 3419, "pitch": 71, "duration": 3, "velocity": 87}, {"time": 3425, "pitch": 71, "duration": 3, "velocity": 87}, {"time": 3431, "pitch": 69, "duration": 2, "velocity": 87}, {"time": 3437, "pitch": 67, "duration": 7, "velocity": 80}, {"time": 3461, "pitch": 69, "duration": 5, "velocity": 93}, {"time": 3470, "pitch": 69, "duration": 1, "velocity": 72}, {"time": 3473, "pitch": 69, "duration": 2, "velocity": 87}, {"time": 3479, "pitch": 67, "duration": 2, "velocity": 80}, {"time": 3485, "pitch": 69, "duration": 2, "velocity": 87}, {"time": 3491, "pitch": 71, "duration": 2, "velocity": 83}, {"time": 3497, "pitch": 69, "duration": 3, "velocity": 87}, {"time": 3509, "pitch": 62, "duration": 2, "velocity": 80}, {"time": 3515, "pitch": 59, "duration": 2, "velocity": 80}, {"time": 3521, "pitch": 62, "duration": 3, "velocity": 70}, {"time": 3527, "pitch": 64, "duration": 3, "velocity": 83}, {"time": 3533, "pitch": 64, "duration": 5, "velocity": 93}, {"time": 3557, "pitch": 64, "duration": 3, "velocity": 95}, {"time": 3566, "pitch": 64, "duration": 1, "velocity": 90}, {"time": 3569, "pitch": 64, "duration": 2, "velocity": 85}, {"time": 3575, "pitch": 64, "duration": 2, "velocity": 93}, {"time": 3581, "pitch": 71, "duration": 4, "velocity": 85}, {"time": 3593, "pitch": 71, "duration": 5, "velocity": 95}, {"time": 3605, "pitch": 69, "duration": 3, "velocity": 90}, {"time": 3611, "pitch": 67, "duration": 2, "velocity": 80}, {"time": 3617, "pitch": 69, "duration": 2, "velocity": 90}, {"time": 3623, "pitch": 71, "duration": 3, "velocity": 87}, {"time": 3629, "pitch": 71, "duration": 5, "velocity": 87}, {"time": 3653, "pitch": 64, "duration": 3, "velocity": 102}, {"time": 3662, "pitch": 64, "duration": 1, "velocity": 80}, {"time": 3665, "pitch": 64, "duration": 2, "velocity": 80}, {"time": 3671, "pitch": 64, "duration": 3, "velocity": 87}, {"time": 3677, "pitch": 69, "duration": 5, "velocity": 103}, {"time": 3689, "pitch": 69, "duration": 6, "velocity": 93}, {"time": 3701, "pitch": 67, "duration": 3, "velocity": 87}, {"time": 3707, "pitch": 64, "duration": 3, "velocity": 70}, {"time": 3713, "pitch": 67, "duration": 2, "velocity": 80}, {"time": 3719, "pitch": 69, "duration": 3, "velocity": 85}, {"time": 3725, "pitch": 69, "duration": 6, "velocity": 87}, {"time": 3749, "pitch": 71, "duration": 3, "velocity": 87}, {"time": 3755, "pitch": 71, "duration": 2, "velocity": 80}, {"time": 3761, "pitch": 71, "duration": 2, "velocity": 83}, {"time": 3767, "pitch": 71, "duration": 3, "velocity": 87}, {"time": 3773, "pitch": 76, "duration": 7, "velocity": 93}, {"time": 3785, "pitch": 76, "duration": 4, "velocity": 102}, {"time": 3797, "pitch": 74, "duration": 4, "velocity": 87}, {"time": 3803, "pitch": 71, "duration": 2, "velocity": 93}, {"time": 3809, "pitch": 71, "duration": 3, "velocity": 83}, {"time": 3815, "pitch": 74, "duration": 3, "velocity": 87}, {"time": 3821, "pitch": 64, "duration": 6, "velocity": 93}, {"time": 3845, "pitch": 69, "duration": 2, "velocity": 80}, {"time": 3851, "pitch": 69, "duration": 2, "velocity": 80}, {"time": 3857, "pitch": 69, "duration": 3, "velocity": 90}, {"time": 3863, "pitch": 67, "duration": 2, "velocity": 87}, {"time": 3869, "pitch": 71, "duration": 7, "velocity": 95}, {"time": 3881, "pitch": 71, "duration": 4, "velocity": 93}, {"time": 3893, "pitch": 62, "duration": 4, "velocity": 67}, {"time": 3905, "pitch": 59, "duration": 3, "velocity": 87}, {"time": 3911, "pitch": 62, "duration": 3, "velocity": 80}, {"time": 3917, "pitch": 64, "duration": 5, "velocity": 93}, {"time": 3941, "pitch": 64, "duration": 2, "velocity": 105}, {"time": 3950, "pitch": 64, "duration": 2, "velocity": 87}, {"time": 3953, "pitch": 64, "duration": 2, "velocity": 80}, {"time": 3959, "pitch": 64, "duration": 2, "velocity": 95}, {"time": 3965, "pitch": 71, "duration": 5, "velocity": 93}, {"time": 3977, "pitch": 71, "duration": 7, "velocity": 87}, {"time": 3989, "pitch": 69, "duration": 4, "velocity": 93}, {"time": 3995, "pitch": 67, "duration": 2, "velocity": 80}, {"time": 4001, "pitch": 69, "duration": 3, "velocity": 93}, {"time": 4007, "pitch": 71, "duration": 3, "velocity": 87}, {"time": 4013, "pitch": 71, "duration": 5, "velocity": 93}, {"time": 4037, "pitch": 64, "duration": 3, "velocity": 93}, {"time": 4046, "pitch": 64, "duration": 1, "velocity": 80}, {"time": 4049, "pitch": 64, "duration": 2, "velocity": 74}, {"time": 4055, "pitch": 64, "duration": 2, "velocity": 87}, {"time": 4061, "pitch": 69, "duration": 4, "velocity": 102}, {"time": 4073, "pitch": 69, "duration": 3, "velocity": 90}, {"time": 4085, "pitch": 67, "duration": 3, "velocity": 85}, {"time": 4091, "pitch": 64, "duration": 2, "velocity": 85}, {"time": 4097, "pitch": 67, "duration": 2, "velocity": 83}, {"time": 4103, "pitch": 69, "duration": 3, "velocity": 87}, {"time": 4109, "pitch": 69, "duration": 4, "velocity": 93}, {"time": 4133, "pitch": 71, "duration": 1, "velocity": 69}, {"time": 4139, "pitch": 71, "duration": 2, "velocity": 93}, {"time": 4145, "pitch": 71, "duration": 2, "velocity": 95}, {"time": 4151, "pitch": 71, "duration": 3, "velocity": 95}, {"time": 4157, "pitch": 76, "duration": 6, "velocity": 95}, {"time": 4169, "pitch": 76, "duration": 4, "velocity": 95}, {"time": 4181, "pitch": 74, "duration": 3, "velocity": 66}, {"time": 4187, "pitch": 71, "duration": 2, "velocity": 80}, {"time": 4193, "pitch": 71, "duration": 2, "velocity": 93}, {"time": 4199, "pitch": 74, "duration": 2, "velocity": 105}, {"time": 4205, "pitch": 64, "duration": 12, "velocity": 103}, {"time": 4229, "pitch": 69, "duration": 6, "velocity": 93}, {"time": 4238, "pitch": 69, "duration": 2, "velocity": 80}, {"time": 4241, "pitch": 69, "duration": 3, "velocity": 83}, {"time": 4247, "pitch": 67, "duration": 2, "velocity": 95}, {"time": 4253, "pitch": 71, "duration": 6, "velocity": 93}, {"time": 4265, "pitch": 71, "duration": 4, "velocity": 102}, {"time": 4277, "pitch": 62, "duration": 2, "velocity": 87}, {"time": 4286, "pitch": 59, "duration": 3, "velocity": 80}, {"time": 4295, "pitch": 62, "duration": 2, "velocity": 87}, {"time": 4301, "pitch": 64, "duration": 15, "velocity": 87}, {"time": 4325, "pitch": 69, "duration": 6, "velocity": 93}, {"time": 4334, "pitch": 69, "duration": 2, "velocity": 80}, {"time": 4337, "pitch": 69, "duration": 3, "velocity": 83}, {"time": 4343, "pitch": 67, "duration": 2, "velocity": 95}, {"time": 4349, "pitch": 71, "duration": 6, "velocity": 93}, {"time": 4361, "pitch": 71, "duration": 4, "velocity": 102}, {"time": 4373, "pitch": 74, "duration": 2, "velocity": 87}, {"time": 4382, "pitch": 71, "duration": 3, "velocity": 80}, {"time": 4391, "pitch": 74, "duration": 2, "velocity": 87}, {"time": 4397, "pitch": 76, "duration": 36, "velocity": 87}]}, {"program": 0, "is_drum": false, "name": "BRIDGE", "notes": [{"time": 101, "pitch": 74, "duration": 8, "velocity": 93}, {"time": 113, "pitch": 76, "duration": 4, "velocity": 103}, {"time": 125, "pitch": 69, "duration": 3, "velocity": 102}, {"time": 131, "pitch": 71, "duration": 3, "velocity": 93}, {"time": 137, "pitch": 64, "duration": 5, "velocity": 93}, {"time": 149, "pitch": 74, "duration": 7, "velocity": 95}, {"time": 161, "pitch": 76, "duration": 3, "velocity": 95}, {"time": 167, "pitch": 71, "duration": 6, "velocity": 95}, {"time": 197, "pitch": 74, "duration": 8, "velocity": 93}, {"time": 209, "pitch": 76, "duration": 5, "velocity": 95}, {"time": 221, "pitch": 69, "duration": 3, "velocity": 93}, {"time": 227, "pitch": 71, "duration": 3, "velocity": 83}, {"time": 233, "pitch": 64, "duration": 5, "velocity": 95}, {"time": 245, "pitch": 67, "duration": 3, "velocity": 102}, {"time": 251, "pitch": 71, "duration": 2, "velocity": 87}, {"time": 257, "pitch": 74, "duration": 3, "velocity": 102}, {"time": 263, "pitch": 76, "duration": 5, "velocity": 103}, {"time": 293, "pitch": 74, "duration": 8, "velocity": 93}, {"time": 305, "pitch": 76, "duration": 4, "velocity": 103}, {"time": 317, "pitch": 69, "duration": 3, "velocity": 102}, {"time": 323, "pitch": 71, "duration": 3, "velocity": 93}, {"time": 329, "pitch": 64, "duration": 5, "velocity": 93}, {"time": 341, "pitch": 74, "duration": 7, "velocity": 95}, {"time": 353, "pitch": 76, "duration": 3, "velocity": 95}, {"time": 359, "pitch": 71, "duration": 6, "velocity": 95}, {"time": 389, "pitch": 74, "duration": 8, "velocity": 93}, {"time": 401, "pitch": 76, "duration": 5, "velocity": 95}, {"time": 413, "pitch": 69, "duration": 3, "velocity": 93}, {"time": 419, "pitch": 71, "duration": 3, "velocity": 83}, {"time": 425, "pitch": 64, "duration": 5, "velocity": 95}, {"time": 431, "pitch": 67, "duration": 3, "velocity": 93}, {"time": 437, "pitch": 79, "duration": 7, "velocity": 102}, {"time": 449, "pitch": 78, "duration": 4, "velocity": 102}, {"time": 455, "pitch": 76, "duration": 27, "velocity": 102}, {"time": 821, "pitch": 62, "duration": 2, "velocity": 102}, {"time": 827, "pitch": 59, "duration": 2, "velocity": 83}, {"time": 833, "pitch": 62, "duration": 3, "velocity": 83}, {"time": 839, "pitch": 64, "duration": 3, "velocity": 80}, {"time": 845, "pitch": 67, "duration": 8, "velocity": 93}, {"time": 857, "pitch": 64, "duration": 9, "velocity": 93}, {"time": 869, "pitch": 67, "duration": 3, "velocity": 64}, {"time": 869, "pitch": 71, "duration": 3, "velocity": 70}, {"time": 881, "pitch": 67, "duration": 2, "velocity": 59}, {"time": 881, "pitch": 71, "duration": 2, "velocity": 68}, {"time": 893, "pitch": 67, "duration": 2, "velocity": 55}, {"time": 893, "pitch": 71, "duration": 2, "velocity": 66}, {"time": 905, "pitch": 67, "duration": 2, "velocity": 61}, {"time": 905, "pitch": 71, "duration": 2, "velocity": 68}, {"time": 917, "pitch": 66, "duration": 2, "velocity": 60}, {"time": 917, "pitch": 69, "duration": 3, "velocity": 80}, {"time": 929, "pitch": 66, "duration": 2, "velocity": 65}, {"time": 929, "pitch": 69, "duration": 2, "velocity": 74}, {"time": 941, "pitch": 67, "duration": 2, "velocity": 63}, {"time": 941, "pitch": 71, "duration": 2, "velocity": 70}, {"time": 953, "pitch": 67, "duration": 2, "velocity": 55}, {"time": 953, "pitch": 71, "duration": 2, "velocity": 67}, {"time": 965, "pitch": 67, "duration": 2, "velocity": 51}, {"time": 965, "pitch": 71, "duration": 2, "velocity": 64}, {"time": 977, "pitch": 67, "duration": 2, "velocity": 54}, {"time": 977, "pitch": 71, "duration": 2, "velocity": 67}, {"time": 989, "pitch": 69, "duration": 2, "velocity": 65}, {"time": 989, "pitch": 72, "duration": 2, "velocity": 47}, {"time": 1001, "pitch": 69, "duration": 2, "velocity": 63}, {"time": 1001, "pitch": 72, "duration": 2, "velocity": 65}, {"time": 1013, "pitch": 67, "duration": 2, "velocity": 59}, {"time": 1013, "pitch": 71, "duration": 2, "velocity": 68}, {"time": 1025, "pitch": 67, "duration": 2, "velocity": 58}, {"time": 1025, "pitch": 71, "duration": 2, "velocity": 68}, {"time": 1037, "pitch": 69, "duration": 2, "velocity": 61}, {"time": 1037, "pitch": 72, "duration": 2, "velocity": 64}, {"time": 1049, "pitch": 69, "duration": 2, "velocity": 64}, {"time": 1049, "pitch": 72, "duration": 2, "velocity": 65}, {"time": 1061, "pitch": 67, "duration": 2, "velocity": 54}, {"time": 1061, "pitch": 71, "duration": 2, "velocity": 68}, {"time": 1073, "pitch": 67, "duration": 2, "velocity": 55}, {"time": 1073, "pitch": 71, "duration": 2, "velocity": 65}, {"time": 1085, "pitch": 67, "duration": 2, "velocity": 52}, {"time": 1085, "pitch": 71, "duration": 2, "velocity": 66}, {"time": 1097, "pitch": 67, "duration": 2, "velocity": 56}, {"time": 1097, "pitch": 71, "duration": 2, "velocity": 68}, {"time": 1109, "pitch": 66, "duration": 2, "velocity": 55}, {"time": 1109, "pitch": 71, "duration": 2, "velocity": 74}, {"time": 1121, "pitch": 66, "duration": 1, "velocity": 64}, {"time": 1121, "pitch": 71, "duration": 2, "velocity": 71}, {"time": 1133, "pitch": 67, "duration": 2, "velocity": 56}, {"time": 1133, "pitch": 71, "duration": 2, "velocity": 68}, {"time": 1145, "pitch": 67, "duration": 2, "velocity": 55}, {"time": 1145, "pitch": 71, "duration": 2, "velocity": 68}, {"time": 1157, "pitch": 69, "duration": 2, "velocity": 63}, {"time": 1157, "pitch": 72, "duration": 2, "velocity": 65}, {"time": 1169, "pitch": 69, "duration": 2, "velocity": 66}, {"time": 1169, "pitch": 72, "duration": 2, "velocity": 68}, {"time": 1181, "pitch": 71, "duration": 6, "velocity": 61}, {"time": 1181, "pitch": 74, "duration": 5, "velocity": 70}, {"time": 1193, "pitch": 69, "duration": 6, "velocity": 68}, {"time": 1193, "pitch": 72, "duration": 6, "velocity": 65}, {"time": 1205, "pitch": 71, "duration": 15, "velocity": 71}, {"time": 1205, "pitch": 74, "duration": 15, "velocity": 87}, {"time": 1223, "pitch": 71, "duration": 2, "velocity": 67}, {"time": 1223, "pitch": 74, "duration": 3, "velocity": 70}, {"time": 1229, "pitch": 71, "duration": 9, "velocity": 74}, {"time": 1229, "pitch": 76, "duration": 10, "velocity": 87}, {"time": 1253, "pitch": 64, "duration": 43, "velocity": 65}, {"time": 1253, "pitch": 67, "duration": 43, "velocity": 70}, {"time": 1301, "pitch": 62, "duration": 17, "velocity": 68}, {"time": 1301, "pitch": 66, "duration": 18, "velocity": 68}, {"time": 1325, "pitch": 64, "duration": 17, "velocity": 68}, {"time": 1325, "pitch": 67, "duration": 18, "velocity": 70}, {"time": 1349, "pitch": 62, "duration": 34, "velocity": 63}, {"time": 1349, "pitch": 67, "duration": 38, "velocity": 65}, {"time": 1397, "pitch": 64, "duration": 12, "velocity": 83}, {"time": 1409, "pitch": 67, "duration": 7, "velocity": 71}, {"time": 1415, "pitch": 69, "duration": 4, "velocity": 70}, {"time": 1421, "pitch": 71, "duration": 15, "velocity": 87}, {"time": 1445, "pitch": 66, "duration": 18, "velocity": 56}, {"time": 1445, "pitch": 71, "duration": 20, "velocity": 80}, {"time": 1469, "pitch": 64, "duration": 17, "velocity": 74}, {"time": 1469, "pitch": 69, "duration": 17, "velocity": 80}, {"time": 1493, "pitch": 67, "duration": 35, "velocity": 63}, {"time": 1493, "pitch": 71, "duration": 35, "velocity": 72}, {"time": 1541, "pitch": 64, "duration": 20, "velocity": 67}, {"time": 1541, "pitch": 69, "duration": 20, "velocity": 71}, {"time": 1565, "pitch": 66, "duration": 6, "velocity": 58}, {"time": 1565, "pitch": 71, "duration": 7, "velocity": 85}, {"time": 1577, "pitch": 69, "duration": 7, "velocity": 59}, {"time": 1589, "pitch": 62, "duration": 18, "velocity": 68}, {"time": 1589, "pitch": 66, "duration": 19, "velocity": 68}, {"time": 1613, "pitch": 64, "duration": 21, "velocity": 66}, {"time": 1613, "pitch": 67, "duration": 21, "velocity": 71}, {"time": 1637, "pitch": 64, "duration": 43, "velocity": 65}, {"time": 1637, "pitch": 67, "duration": 43, "velocity": 70}, {"time": 1685, "pitch": 62, "duration": 17, "velocity": 68}, {"time": 1685, "pitch": 66, "duration": 18, "velocity": 68}, {"time": 1709, "pitch": 64, "duration": 17, "velocity": 68}, {"time": 1709, "pitch": 67, "duration": 18, "velocity": 70}, {"time": 1733, "pitch": 62, "duration": 34, "velocity": 63}, {"time": 1733, "pitch": 67, "duration": 38, "velocity": 65}, {"time": 1781, "pitch": 64, "duration": 12, "velocity": 83}, {"time": 1793, "pitch": 67, "duration": 7, "velocity": 71}, {"time": 1799, "pitch": 69, "duration": 4, "velocity": 70}, {"time": 1805, "pitch": 71, "duration": 15, "velocity": 87}, {"time": 1829, "pitch": 66, "duration": 18, "velocity": 56}, {"time": 1829, "pitch": 71, "duration": 20, "velocity": 80}, {"time": 1853, "pitch": 64, "duration": 17, "velocity": 74}, {"time": 1853, "pitch": 69, "duration": 17, "velocity": 80}, {"time": 1877, "pitch": 67, "duration": 35, "velocity": 63}, {"time": 1877, "pitch": 71, "duration": 35, "velocity": 72}, {"time": 1925, "pitch": 64, "duration": 20, "velocity": 67}, {"time": 1925, "pitch": 69, "duration": 20, "velocity": 71}, {"time": 1949, "pitch": 66, "duration": 6, "velocity": 58}, {"time": 1949, "pitch": 71, "duration": 7, "velocity": 85}, {"time": 1961, "pitch": 69, "duration": 7, "velocity": 59}, {"time": 1973, "pitch": 62, "duration": 13, "velocity": 80}, {"time": 1973, "pitch": 66, "duration": 13, "velocity": 74}, {"time": 1991, "pitch": 62, "duration": 3, "velocity": 74}, {"time": 1991, "pitch": 66, "duration": 3, "velocity": 70}, {"time": 1997, "pitch": 64, "duration": 19, "velocity": 74}, {"time": 1997, "pitch": 67, "duration": 19, "velocity": 71}, {"time": 2357, "pitch": 62, "duration": 2, "velocity": 102}, {"time": 2363, "pitch": 59, "duration": 2, "velocity": 83}, {"time": 2369, "pitch": 62, "duration": 3, "velocity": 83}, {"time": 2375, "pitch": 64, "duration": 3, "velocity": 80}, {"time": 2381, "pitch": 67, "duration": 8, "velocity": 93}, {"time": 2393, "pitch": 64, "duration": 9, "velocity": 93}, {"time": 2405, "pitch": 67, "duration": 3, "velocity": 64}, {"time": 2405, "pitch": 71, "duration": 3, "velocity": 70}, {"time": 2417, "pitch": 67, "duration": 2, "velocity": 59}, {"time": 2417, "pitch": 71, "duration": 2, "velocity": 68}, {"time": 2429, "pitch": 67, "duration": 2, "velocity": 55}, {"time": 2429, "pitch": 71, "duration": 2, "velocity": 66}, {"time": 2441, "pitch": 67, "duration": 2, "velocity": 61}, {"time": 2441, "pitch": 71, "duration": 2, "velocity": 68}, {"time": 2453, "pitch": 66, "duration": 2, "velocity": 60}, {"time": 2453, "pitch": 69, "duration": 3, "velocity": 80}, {"time": 2465, "pitch": 66, "duration": 2, "velocity": 65}, {"time": 2465, "pitch": 69, "duration": 2, "velocity": 74}, {"time": 2477, "pitch": 67, "duration": 2, "velocity": 63}, {"time": 2477, "pitch": 71, "duration": 2, "velocity": 70}, {"time": 2489, "pitch": 67, "duration": 2, "velocity": 55}, {"time": 2489, "pitch": 71, "duration": 2, "velocity": 67}, {"time": 2501, "pitch": 67, "duration": 2, "velocity": 51}, {"time": 2501, "pitch": 71, "duration": 2, "velocity": 64}, {"time": 2513, "pitch": 67, "duration": 2, "velocity": 54}, {"time": 2513, "pitch": 71, "duration": 2, "velocity": 67}, {"time": 2525, "pitch": 69, "duration": 2, "velocity": 65}, {"time": 2525, "pitch": 72, "duration": 2, "velocity": 47}, {"time": 2537, "pitch": 69, "duration": 2, "velocity": 63}, {"time": 2537, "pitch": 72, "duration": 2, "velocity": 65}, {"time": 2549, "pitch": 67, "duration": 2, "velocity": 59}, {"time": 2549, "pitch": 71, "duration": 2, "velocity": 68}, {"time": 2561, "pitch": 67, "duration": 2, "velocity": 58}, {"time": 2561, "pitch": 71, "duration": 2, "velocity": 68}, {"time": 2573, "pitch": 69, "duration": 2, "velocity": 61}, {"time": 2573, "pitch": 72, "duration": 2, "velocity": 64}, {"time": 2585, "pitch": 69, "duration": 2, "velocity": 64}, {"time": 2585, "pitch": 72, "duration": 2, "velocity": 65}, {"time": 2597, "pitch": 67, "duration": 2, "velocity": 54}, {"time": 2597, "pitch": 71, "duration": 2, "velocity": 68}, {"time": 2609, "pitch": 67, "duration": 2, "velocity": 55}, {"time": 2609, "pitch": 71, "duration": 2, "velocity": 65}, {"time": 2621, "pitch": 67, "duration": 2, "velocity": 52}, {"time": 2621, "pitch": 71, "duration": 2, "velocity": 66}, {"time": 2633, "pitch": 67, "duration": 2, "velocity": 56}, {"time": 2633, "pitch": 71, "duration": 2, "velocity": 68}, {"time": 2645, "pitch": 66, "duration": 2, "velocity": 55}, {"time": 2645, "pitch": 71, "duration": 2, "velocity": 74}, {"time": 2657, "pitch": 66, "duration": 1, "velocity": 64}, {"time": 2657, "pitch": 71, "duration": 2, "velocity": 71}, {"time": 2669, "pitch": 67, "duration": 2, "velocity": 56}, {"time": 2669, "pitch": 71, "duration": 2, "velocity": 68}, {"time": 2681, "pitch": 67, "duration": 2, "velocity": 55}, {"time": 2681, "pitch": 71, "duration": 2, "velocity": 68}, {"time": 2693, "pitch": 69, "duration": 2, "velocity": 63}, {"time": 2693, "pitch": 72, "duration": 2, "velocity": 65}, {"time": 2705, "pitch": 69, "duration": 2, "velocity": 66}, {"time": 2705, "pitch": 72, "duration": 2, "velocity": 68}, {"time": 2717, "pitch": 71, "duration": 6, "velocity": 61}, {"time": 2717, "pitch": 74, "duration": 5, "velocity": 70}, {"time": 2729, "pitch": 69, "duration": 6, "velocity": 68}, {"time": 2729, "pitch": 72, "duration": 6, "velocity": 65}, {"time": 2741, "pitch": 71, "duration": 15, "velocity": 71}, {"time": 2741, "pitch": 74, "duration": 15, "velocity": 87}, {"time": 2759, "pitch": 71, "duration": 2, "velocity": 67}, {"time": 2759, "pitch": 74, "duration": 3, "velocity": 70}, {"time": 2765, "pitch": 71, "duration": 9, "velocity": 74}, {"time": 2765, "pitch": 76, "duration": 10, "velocity": 87}, {"time": 2789, "pitch": 52, "duration": 6, "velocity": 100}, {"time": 2795, "pitch": 62, "duration": 3, "velocity": 100}, {"time": 2798, "pitch": 64, "duration": 3, "velocity": 100}, {"time": 2801, "pitch": 64, "duration": 6, "velocity": 100}, {"time": 2807, "pitch": 62, "duration": 3, "velocity": 100}, {"time": 2810, "pitch": 59, "duration": 3, "velocity": 100}, {"time": 2813, "pitch": 52, "duration": 6, "velocity": 100}, {"time": 2819, "pitch": 52, "duration": 6, "velocity": 100}, {"time": 2825, "pitch": 64, "duration": 6, "velocity": 100}, {"time": 2831, "pitch": 62, "duration": 3, "velocity": 100}, {"time": 2834, "pitch": 59, "duration": 3, "velocity": 100}, {"time": 2837, "pitch": 52, "duration": 12, "velocity": 100}, {"time": 2849, "pitch": 64, "duration": 6, "velocity": 100}, {"time": 2855, "pitch": 62, "duration": 3, "velocity": 100}, {"time": 2858, "pitch": 59, "duration": 3, "velocity": 100}, {"time": 2861, "pitch": 52, "duration": 24, "velocity": 100}, {"time": 2885, "pitch": 52, "duration": 6, "velocity": 100}, {"time": 2891, "pitch": 62, "duration": 3, "velocity": 100}, {"time": 2894, "pitch": 64, "duration": 3, "velocity": 100}, {"time": 2897, "pitch": 64, "duration": 6, "velocity": 100}, {"time": 2903, "pitch": 62, "duration": 3, "velocity": 100}, {"time": 2906, "pitch": 59, "duration": 3, "velocity": 100}, {"time": 2909, "pitch": 52, "duration": 6, "velocity": 100}, {"time": 2915, "pitch": 52, "duration": 6, "velocity": 100}, {"time": 2921, "pitch": 64, "duration": 6, "velocity": 100}, {"time": 2927, "pitch": 62, "duration": 3, "velocity": 100}, {"time": 2930, "pitch": 59, "duration": 3, "velocity": 100}, {"time": 2933, "pitch": 52, "duration": 12, "velocity": 100}, {"time": 2945, "pitch": 64, "duration": 6, "velocity": 100}, {"time": 2951, "pitch": 62, "duration": 3, "velocity": 100}, {"time": 2954, "pitch": 59, "duration": 3, "velocity": 100}, {"time": 2957, "pitch": 52, "duration": 24, "velocity": 100}, {"time": 2981, "pitch": 52, "duration": 6, "velocity": 100}, {"time": 2987, "pitch": 62, "duration": 3, "velocity": 100}, {"time": 2990, "pitch": 64, "duration": 3, "velocity": 100}, {"time": 2993, "pitch": 64, "duration": 6, "velocity": 100}, {"time": 2999, "pitch": 62, "duration": 3, "velocity": 100}, {"time": 3002, "pitch": 59, "duration": 3, "velocity": 100}, {"time": 3005, "pitch": 52, "duration": 6, "velocity": 100}, {"time": 3011, "pitch": 52, "duration": 6, "velocity": 100}, {"time": 3017, "pitch": 64, "duration": 6, "velocity": 100}, {"time": 3023, "pitch": 62, "duration": 3, "velocity": 100}, {"time": 3026, "pitch": 59, "duration": 3, "velocity": 100}, {"time": 3029, "pitch": 52, "duration": 12, "velocity": 100}, {"time": 3041, "pitch": 64, "duration": 6, "velocity": 100}, {"time": 3047, "pitch": 62, "duration": 3, "velocity": 100}, {"time": 3050, "pitch": 59, "duration": 3, "velocity": 100}, {"time": 3053, "pitch": 52, "duration": 24, "velocity": 100}, {"time": 3077, "pitch": 52, "duration": 6, "velocity": 100}, {"time": 3083, "pitch": 62, "duration": 3, "velocity": 100}, {"time": 3086, "pitch": 64, "duration": 3, "velocity": 100}, {"time": 3089, "pitch": 64, "duration": 6, "velocity": 100}, {"time": 3095, "pitch": 62, "duration": 3, "velocity": 100}, {"time": 3098, "pitch": 59, "duration": 3, "velocity": 100}, {"time": 3101, "pitch": 52, "duration": 6, "velocity": 100}, {"time": 3107, "pitch": 52, "duration": 6, "velocity": 100}, {"time": 3113, "pitch": 64, "duration": 6, "velocity": 100}, {"time": 3119, "pitch": 62, "duration": 3, "velocity": 100}, {"time": 3122, "pitch": 59, "duration": 3, "velocity": 100}, {"time": 3125, "pitch": 52, "duration": 12, "velocity": 100}, {"time": 3137, "pitch": 64, "duration": 6, "velocity": 100}, {"time": 3143, "pitch": 62, "duration": 3, "velocity": 100}, {"time": 3146, "pitch": 59, "duration": 3, "velocity": 100}, {"time": 3149, "pitch": 52, "duration": 24, "velocity": 100}, {"time": 3173, "pitch": 64, "duration": 43, "velocity": 65}, {"time": 3173, "pitch": 67, "duration": 43, "velocity": 70}, {"time": 3221, "pitch": 62, "duration": 17, "velocity": 68}, {"time": 3221, "pitch": 66, "duration": 18, "velocity": 68}, {"time": 3245, "pitch": 64, "duration": 17, "velocity": 68}, {"time": 3245, "pitch": 67, "duration": 18, "velocity": 70}, {"time": 3269, "pitch": 62, "duration": 34, "velocity": 63}, {"time": 3269, "pitch": 67, "duration": 38, "velocity": 65}, {"time": 3317, "pitch": 64, "duration": 12, "velocity": 83}, {"time": 3329, "pitch": 67, "duration": 7, "velocity": 71}, {"time": 3335, "pitch": 69, "duration": 4, "velocity": 70}, {"time": 3341, "pitch": 71, "duration": 15, "velocity": 87}, {"time": 3365, "pitch": 66, "duration": 18, "velocity": 56}, {"time": 3365, "pitch": 71, "duration": 20, "velocity": 80}, {"time": 3389, "pitch": 64, "duration": 17, "velocity": 74}, {"time": 3389, "pitch": 69, "duration": 17, "velocity": 80}, {"time": 3413, "pitch": 67, "duration": 35, "velocity": 63}, {"time": 3413, "pitch": 71, "duration": 35, "velocity": 72}, {"time": 3461, "pitch": 64, "duration": 20, "velocity": 67}, {"time": 3461, "pitch": 69, "duration": 20, "velocity": 71}, {"time": 3485, "pitch": 66, "duration": 6, "velocity": 58}, {"time": 3485, "pitch": 71, "duration": 7, "velocity": 85}, {"time": 3497, "pitch": 69, "duration": 7, "velocity": 59}, {"time": 3509, "pitch": 62, "duration": 18, "velocity": 68}, {"time": 3509, "pitch": 66, "duration": 19, "velocity": 68}, {"time": 3533, "pitch": 64, "duration": 21, "velocity": 66}, {"time": 3533, "pitch": 67, "duration": 21, "velocity": 71}, {"time": 3557, "pitch": 67, "duration": 3, "velocity": 64}, {"time": 3557, "pitch": 71, "duration": 3, "velocity": 70}, {"time": 3569, "pitch": 67, "duration": 2, "velocity": 59}, {"time": 3569, "pitch": 71, "duration": 2, "velocity": 68}, {"time": 3581, "pitch": 67, "duration": 2, "velocity": 55}, {"time": 3581, "pitch": 71, "duration": 2, "velocity": 66}, {"time": 3593, "pitch": 67, "duration": 2, "velocity": 61}, {"time": 3593, "pitch": 71, "duration": 2, "velocity": 68}, {"time": 3605, "pitch": 66, "duration": 2, "velocity": 60}, {"time": 3605, "pitch": 69, "duration": 3, "velocity": 80}, {"time": 3617, "pitch": 66, "duration": 2, "velocity": 65}, {"time": 3617, "pitch": 69, "duration": 2, "velocity": 74}, {"time": 3629, "pitch": 67, "duration": 2, "velocity": 63}, {"time": 3629, "pitch": 71, "duration": 2, "velocity": 70}, {"time": 3641, "pitch": 67, "duration": 2, "velocity": 55}, {"time": 3641, "pitch": 71, "duration": 2, "velocity": 67}, {"time": 3653, "pitch": 67, "duration": 2, "velocity": 51}, {"time": 3653, "pitch": 71, "duration": 2, "velocity": 64}, {"time": 3665, "pitch": 67, "duration": 2, "velocity": 54}, {"time": 3665, "pitch": 71, "duration": 2, "velocity": 67}, {"time": 3677, "pitch": 69, "duration": 2, "velocity": 65}, {"time": 3677, "pitch": 72, "duration": 2, "velocity": 47}, {"time": 3689, "pitch": 69, "duration": 2, "velocity": 63}, {"time": 3689, "pitch": 72, "duration": 2, "velocity": 65}, {"time": 3701, "pitch": 67, "duration": 2, "velocity": 59}, {"time": 3701, "pitch": 71, "duration": 2, "velocity": 68}, {"time": 3713, "pitch": 67, "duration": 2, "velocity": 58}, {"time": 3713, "pitch": 71, "duration": 2, "velocity": 68}, {"time": 3725, "pitch": 69, "duration": 2, "velocity": 61}, {"time": 3725, "pitch": 72, "duration": 2, "velocity": 64}, {"time": 3737, "pitch": 69, "duration": 2, "velocity": 64}, {"time": 3737, "pitch": 72, "duration": 2, "velocity": 65}, {"time": 3749, "pitch": 67, "duration": 2, "velocity": 54}, {"time": 3749, "pitch": 71, "duration": 2, "velocity": 68}, {"time": 3761, "pitch": 67, "duration": 2, "velocity": 55}, {"time": 3761, "pitch": 71, "duration": 2, "velocity": 65}, {"time": 3773, "pitch": 67, "duration": 2, "velocity": 52}, {"time": 3773, "pitch": 71, "duration": 2, "velocity": 66}, {"time": 3785, "pitch": 67, "duration": 2, "velocity": 56}, {"time": 3785, "pitch": 71, "duration": 2, "velocity": 68}, {"time": 3797, "pitch": 66, "duration": 2, "velocity": 55}, {"time": 3797, "pitch": 71, "duration": 2, "velocity": 74}, {"time": 3809, "pitch": 66, "duration": 1, "velocity": 64}, {"time": 3809, "pitch": 71, "duration": 2, "velocity": 71}, {"time": 3821, "pitch": 67, "duration": 2, "velocity": 56}, {"time": 3821, "pitch": 71, "duration": 2, "velocity": 68}, {"time": 3833, "pitch": 67, "duration": 2, "velocity": 55}, {"time": 3833, "pitch": 71, "duration": 2, "velocity": 68}, {"time": 3845, "pitch": 69, "duration": 2, "velocity": 63}, {"time": 3845, "pitch": 72, "duration": 2, "velocity": 65}, {"time": 3857, "pitch": 69, "duration": 2, "velocity": 66}, {"time": 3857, "pitch": 72, "duration": 2, "velocity": 68}, {"time": 3869, "pitch": 71, "duration": 6, "velocity": 61}, {"time": 3869, "pitch": 74, "duration": 5, "velocity": 70}, {"time": 3881, "pitch": 69, "duration": 6, "velocity": 68}, {"time": 3881, "pitch": 72, "duration": 6, "velocity": 65}, {"time": 3893, "pitch": 71, "duration": 15, "velocity": 71}, {"time": 3893, "pitch": 74, "duration": 15, "velocity": 87}, {"time": 3911, "pitch": 71, "duration": 2, "velocity": 67}, {"time": 3911, "pitch": 74, "duration": 3, "velocity": 70}, {"time": 3917, "pitch": 71, "duration": 9, "velocity": 74}, {"time": 3917, "pitch": 76, "duration": 10, "velocity": 87}, {"time": 3941, "pitch": 67, "duration": 3, "velocity": 64}, {"time": 3941, "pitch": 71, "duration": 3, "velocity": 70}, {"time": 3953, "pitch": 67, "duration": 2, "velocity": 59}, {"time": 3953, "pitch": 71, "duration": 2, "velocity": 68}, {"time": 3965, "pitch": 67, "duration": 2, "velocity": 55}, {"time": 3965, "pitch": 71, "duration": 2, "velocity": 66}, {"time": 3977, "pitch": 67, "duration": 2, "velocity": 61}, {"time": 3977, "pitch": 71, "duration": 2, "velocity": 68}, {"time": 3989, "pitch": 66, "duration": 2, "velocity": 60}, {"time": 3989, "pitch": 69, "duration": 3, "velocity": 80}, {"time": 4001, "pitch": 66, "duration": 2, "velocity": 65}, {"time": 4001, "pitch": 69, "duration": 2, "velocity": 74}, {"time": 4013, "pitch": 67, "duration": 2, "velocity": 63}, {"time": 4013, "pitch": 71, "duration": 2, "velocity": 70}, {"time": 4025, "pitch": 67, "duration": 2, "velocity": 55}, {"time": 4025, "pitch": 71, "duration": 2, "velocity": 67}, {"time": 4037, "pitch": 67, "duration": 2, "velocity": 51}, {"time": 4037, "pitch": 71, "duration": 2, "velocity": 64}, {"time": 4049, "pitch": 67, "duration": 2, "velocity": 54}, {"time": 4049, "pitch": 71, "duration": 2, "velocity": 67}, {"time": 4061, "pitch": 69, "duration": 2, "velocity": 65}, {"time": 4061, "pitch": 72, "duration": 2, "velocity": 47}, {"time": 4073, "pitch": 69, "duration": 2, "velocity": 63}, {"time": 4073, "pitch": 72, "duration": 2, "velocity": 65}, {"time": 4085, "pitch": 67, "duration": 2, "velocity": 59}, {"time": 4085, "pitch": 71, "duration": 2, "velocity": 68}, {"time": 4097, "pitch": 67, "duration": 2, "velocity": 58}, {"time": 4097, "pitch": 71, "duration": 2, "velocity": 68}, {"time": 4109, "pitch": 69, "duration": 2, "velocity": 61}, {"time": 4109, "pitch": 72, "duration": 2, "velocity": 64}, {"time": 4121, "pitch": 69, "duration": 2, "velocity": 64}, {"time": 4121, "pitch": 72, "duration": 2, "velocity": 65}, {"time": 4133, "pitch": 67, "duration": 2, "velocity": 54}, {"time": 4133, "pitch": 71, "duration": 2, "velocity": 68}, {"time": 4145, "pitch": 67, "duration": 2, "velocity": 55}, {"time": 4145, "pitch": 71, "duration": 2, "velocity": 65}, {"time": 4157, "pitch": 67, "duration": 2, "velocity": 52}, {"time": 4157, "pitch": 71, "duration": 2, "velocity": 66}, {"time": 4169, "pitch": 67, "duration": 2, "velocity": 56}, {"time": 4169, "pitch": 71, "duration": 2, "velocity": 68}, {"time": 4181, "pitch": 66, "duration": 2, "velocity": 55}, {"time": 4181, "pitch": 71, "duration": 2, "velocity": 74}, {"time": 4193, "pitch": 66, "duration": 1, "velocity": 64}, {"time": 4193, "pitch": 71, "duration": 2, "velocity": 71}, {"time": 4205, "pitch": 67, "duration": 2, "velocity": 56}, {"time": 4205, "pitch": 71, "duration": 2, "velocity": 68}, {"time": 4217, "pitch": 67, "duration": 2, "velocity": 55}, {"time": 4217, "pitch": 71, "duration": 2, "velocity": 68}, {"time": 4229, "pitch": 69, "duration": 2, "velocity": 63}, {"time": 4229, "pitch": 72, "duration": 2, "velocity": 65}, {"time": 4241, "pitch": 69, "duration": 2, "velocity": 66}, {"time": 4241, "pitch": 72, "duration": 2, "velocity": 68}, {"time": 4253, "pitch": 71, "duration": 6, "velocity": 61}, {"time": 4253, "pitch": 74, "duration": 5, "velocity": 70}, {"time": 4265, "pitch": 69, "duration": 6, "velocity": 68}, {"time": 4265, "pitch": 72, "duration": 6, "velocity": 65}, {"time": 4277, "pitch": 62, "duration": 2, "velocity": 102}, {"time": 4283, "pitch": 59, "duration": 2, "velocity": 83}, {"time": 4289, "pitch": 62, "duration": 3, "velocity": 83}, {"time": 4295, "pitch": 64, "duration": 3, "velocity": 80}, {"time": 4301, "pitch": 67, "duration": 8, "velocity": 93}, {"time": 4313, "pitch": 64, "duration": 9, "velocity": 93}, {"time": 4325, "pitch": 69, "duration": 2, "velocity": 63}, {"time": 4325, "pitch": 72, "duration": 2, "velocity": 65}, {"time": 4337, "pitch": 69, "duration": 2, "velocity": 66}, {"time": 4337, "pitch": 72, "duration": 2, "velocity": 68}, {"time": 4349, "pitch": 71, "duration": 6, "velocity": 61}, {"time": 4349, "pitch": 74, "duration": 5, "velocity": 70}, {"time": 4361, "pitch": 69, "duration": 6, "velocity": 68}, {"time": 4361, "pitch": 72, "duration": 6, "velocity": 65}, {"time": 4373, "pitch": 62, "duration": 2, "velocity": 102}, {"time": 4379, "pitch": 59, "duration": 2, "velocity": 83}, {"time": 4385, "pitch": 62, "duration": 3, "velocity": 83}, {"time": 4391, "pitch": 64, "duration": 3, "velocity": 80}, {"time": 4397, "pitch": 67, "duration": 8, "velocity": 93}, {"time": 4409, "pitch": 64, "duration": 9, "velocity": 93}, {"time": 4445, "pitch": 74, "duration": 8, "velocity": 93}, {"time": 4457, "pitch": 76, "duration": 4, "velocity": 103}, {"time": 4469, "pitch": 69, "duration": 3, "velocity": 102}, {"time": 4475, "pitch": 71, "duration": 3, "velocity": 93}, {"time": 4481, "pitch": 64, "duration": 5, "velocity": 93}, {"time": 4493, "pitch": 74, "duration": 7, "velocity": 95}, {"time": 4505, "pitch": 76, "duration": 3, "velocity": 95}, {"time": 4511, "pitch": 71, "duration": 6, "velocity": 95}, {"time": 4541, "pitch": 74, "duration": 8, "velocity": 93}, {"time": 4553, "pitch": 76, "duration": 5, "velocity": 95}, {"time": 4565, "pitch": 69, "duration": 3, "velocity": 93}, {"time": 4571, "pitch": 71, "duration": 3, "velocity": 83}, {"time": 4577, "pitch": 64, "duration": 5, "velocity": 95}, {"time": 4583, "pitch": 67, "duration": 3, "velocity": 93}, {"time": 4589, "pitch": 79, "duration": 7, "velocity": 102}, {"time": 4601, "pitch": 78, "duration": 4, "velocity": 102}, {"time": 4607, "pitch": 76, "duration": 27, "velocity": 102}]}, {"program": 0, "is_drum": false, "name": "PIANO", "notes": [{"time": 5, "pitch": 47, "duration": 42, "velocity": 83}, {"time": 5, "pitch": 59, "duration": 12, "velocity": 66}, {"time": 5, "pitch": 66, "duration": 12, "velocity": 65}, {"time": 17, "pitch": 54, "duration": 29, "velocity": 44}, {"time": 23, "pitch": 59, "duration": 2, "velocity": 93}, {"time": 23, "pitch": 66, "duration": 2, "velocity": 85}, {"time": 35, "pitch": 59, "duration": 2, "velocity": 68}, {"time": 35, "pitch": 66, "duration": 2, "velocity": 50}, {"time": 53, "pitch": 47, "duration": 43, "velocity": 74}, {"time": 53, "pitch": 59, "duration": 4, "velocity": 68}, {"time": 53, "pitch": 66, "duration": 3, "velocity": 60}, {"time": 53, "pitch": 71, "duration": 4, "velocity": 74}, {"time": 62, "pitch": 59, "duration": 2, "velocity": 63}, {"time": 62, "pitch": 66, "duration": 2, "velocity": 54}, {"time": 65, "pitch": 54, "duration": 19, "velocity": 47}, {"time": 71, "pitch": 59, "duration": 4, "velocity": 69}, {"time": 71, "pitch": 66, "duration": 5, "velocity": 67}, {"time": 83, "pitch": 59, "duration": 4, "velocity": 68}, {"time": 83, "pitch": 66, "duration": 5, "velocity": 64}, {"time": 89, "pitch": 54, "duration": 6, "velocity": 56}, {"time": 95, "pitch": 59, "duration": 3, "velocity": 70}, {"time": 95, "pitch": 66, "duration": 2, "velocity": 51}, {"time": 95, "pitch": 71, "duration": 3, "velocity": 63}, {"time": 101, "pitch": 50, "duration": 37, "velocity": 87}, {"time": 101, "pitch": 62, "duration": 7, "velocity": 80}, {"time": 101, "pitch": 66, "duration": 6, "velocity": 72}, {"time": 101, "pitch": 69, "duration": 6, "velocity": 95}, {"time": 113, "pitch": 62, "duration": 3, "velocity": 87}, {"time": 113, "pitch": 66, "duration": 3, "velocity": 70}, {"time": 113, "pitch": 74, "duration": 4, "velocity": 93}, {"time": 125, "pitch": 57, "duration": 14, "velocity": 41}, {"time": 131, "pitch": 62, "duration": 2, "velocity": 87}, {"time": 131, "pitch": 66, "duration": 2, "velocity": 80}, {"time": 131, "pitch": 69, "duration": 3, "velocity": 93}, {"time": 137, "pitch": 62, "duration": 2, "velocity": 87}, {"time": 137, "pitch": 66, "duration": 2, "velocity": 72}, {"time": 137, "pitch": 69, "duration": 2, "velocity": 87}, {"time": 149, "pitch": 50, "duration": 45, "velocity": 87}, {"time": 149, "pitch": 62, "duration": 9, "velocity": 71}, {"time": 149, "pitch": 69, "duration": 9, "velocity": 87}, {"time": 161, "pitch": 62, "duration": 2, "velocity": 102}, {"time": 161, "pitch": 69, "duration": 2, "velocity": 95}, {"time": 167, "pitch": 57, "duration": 27, "velocity": 68}, {"time": 179, "pitch": 62, "duration": 2, "velocity": 74}, {"time": 179, "pitch": 74, "duration": 3, "velocity": 93}, {"time": 191, "pitch": 62, "duration": 2, "velocity": 87}, {"time": 197, "pitch": 50, "duration": 44, "velocity": 93}, {"time": 197, "pitch": 62, "duration": 8, "velocity": 80}, {"time": 197, "pitch": 69, "duration": 8, "velocity": 93}, {"time": 209, "pitch": 62, "duration": 3, "velocity": 90}, {"time": 209, "pitch": 66, "duration": 2, "velocity": 80}, {"time": 209, "pitch": 69, "duration": 4, "velocity": 102}, {"time": 221, "pitch": 57, "duration": 19, "velocity": 61}, {"time": 227, "pitch": 62, "duration": 2, "velocity": 72}, {"time": 227, "pitch": 66, "duration": 2, "velocity": 63}, {"time": 227, "pitch": 69, "duration": 2, "velocity": 93}, {"time": 233, "pitch": 62, "duration": 2, "velocity": 80}, {"time": 233, "pitch": 66, "duration": 2, "velocity": 74}, {"time": 233, "pitch": 69, "duration": 2, "velocity": 93}, {"time": 239, "pitch": 62, "duration": 1, "velocity": 37}, {"time": 245, "pitch": 43, "duration": 5, "velocity": 95}, {"time": 245, "pitch": 55, "duration": 4, "velocity": 70}, {"time": 251, "pitch": 47, "duration": 2, "velocity": 70}, {"time": 251, "pitch": 59, "duration": 2, "velocity": 87}, {"time": 257, "pitch": 50, "duration": 2, "velocity": 93}, {"time": 257, "pitch": 62, "duration": 3, "velocity": 90}, {"time": 263, "pitch": 52, "duration": 18, "velocity": 95}, {"time": 263, "pitch": 64, "duration": 13, "velocity": 95}, {"time": 281, "pitch": 59, "duration": 2, "velocity": 80}, {"time": 281, "pitch": 64, "duration": 3, "velocity": 102}, {"time": 287, "pitch": 59, "duration": 3, "velocity": 74}, {"time": 293, "pitch": 50, "duration": 37, "velocity": 87}, {"time": 293, "pitch": 62, "duration": 7, "velocity": 80}, {"time": 293, "pitch": 66, "duration": 6, "velocity": 72}, {"time": 293, "pitch": 69, "duration": 6, "velocity": 95}, {"time": 305, "pitch": 62, "duration": 3, "velocity": 87}, {"time": 305, "pitch": 66, "duration": 3, "velocity": 70}, {"time": 305, "pitch": 74, "duration": 4, "velocity": 93}, {"time": 317, "pitch": 57, "duration": 14, "velocity": 41}, {"time": 323, "pitch": 62, "duration": 2, "velocity": 87}, {"time": 323, "pitch": 66, "duration": 2, "velocity": 80}, {"time": 323, "pitch": 69, "duration": 3, "velocity": 93}, {"time": 329, "pitch": 62, "duration": 2, "velocity": 87}, {"time": 329, "pitch": 66, "duration": 2, "velocity": 72}, {"time": 329, "pitch": 69, "duration": 2, "velocity": 87}, {"time": 341, "pitch": 50, "duration": 45, "velocity": 87}, {"time": 341, "pitch": 62, "duration": 9, "velocity": 71}, {"time": 341, "pitch": 69, "duration": 9, "velocity": 87}, {"time": 353, "pitch": 62, "duration": 2, "velocity": 102}, {"time": 353, "pitch": 69, "duration": 2, "velocity": 95}, {"time": 359, "pitch": 57, "duration": 27, "velocity": 68}, {"time": 371, "pitch": 62, "duration": 2, "velocity": 74}, {"time": 371, "pitch": 74, "duration": 3, "velocity": 93}, {"time": 383, "pitch": 62, "duration": 2, "velocity": 87}, {"time": 389, "pitch": 50, "duration": 44, "velocity": 93}, {"time": 389, "pitch": 62, "duration": 8, "velocity": 80}, {"time": 389, "pitch": 69, "duration": 8, "velocity": 93}, {"time": 401, "pitch": 62, "duration": 3, "velocity": 90}, {"time": 401, "pitch": 66, "duration": 2, "velocity": 80}, {"time": 401, "pitch": 69, "duration": 4, "velocity": 102}, {"time": 413, "pitch": 57, "duration": 19, "velocity": 61}, {"time": 419, "pitch": 62, "duration": 2, "velocity": 72}, {"time": 419, "pitch": 66, "duration": 2, "velocity": 63}, {"time": 419, "pitch": 69, "duration": 2, "velocity": 93}, {"time": 425, "pitch": 62, "duration": 2, "velocity": 80}, {"time": 425, "pitch": 66, "duration": 2, "velocity": 74}, {"time": 425, "pitch": 69, "duration": 2, "velocity": 93}, {"time": 431, "pitch": 62, "duration": 1, "velocity": 37}, {"time": 437, "pitch": 43, "duration": 5, "velocity": 95}, {"time": 437, "pitch": 55, "duration": 4, "velocity": 70}, {"time": 443, "pitch": 47, "duration": 2, "velocity": 70}, {"time": 443, "pitch": 59, "duration": 2, "velocity": 87}, {"time": 449, "pitch": 50, "duration": 2, "velocity": 93}, {"time": 449, "pitch": 62, "duration": 3, "velocity": 90}, {"time": 455, "pitch": 52, "duration": 18, "velocity": 95}, {"time": 455, "pitch": 64, "duration": 13, "velocity": 95}, {"time": 473, "pitch": 59, "duration": 2, "velocity": 80}, {"time": 473, "pitch": 64, "duration": 3, "velocity": 102}, {"time": 479, "pitch": 59, "duration": 3, "velocity": 74}, {"time": 485, "pitch": 52, "duration": 42, "velocity": 102}, {"time": 485, "pitch": 59, "duration": 8, "velocity": 74}, {"time": 485, "pitch": 67, "duration": 7, "velocity": 83}, {"time": 497, "pitch": 59, "duration": 3, "velocity": 80}, {"time": 497, "pitch": 64, "duration": 2, "velocity": 95}, {"time": 506, "pitch": 59, "duration": 2, "velocity": 66}, {"time": 506, "pitch": 64, "duration": 2, "velocity": 74}, {"time": 515, "pitch": 59, "duration": 2, "velocity": 80}, {"time": 515, "pitch": 64, "duration": 2, "velocity": 90}, {"time": 515, "pitch": 67, "duration": 3, "velocity": 93}, {"time": 527, "pitch": 59, "duration": 2, "velocity": 72}, {"time": 527, "pitch": 64, "duration": 1, "velocity": 80}, {"time": 527, "pitch": 67, "duration": 2, "velocity": 74}, {"time": 533, "pitch": 50, "duration": 16, "velocity": 80}, {"time": 533, "pitch": 57, "duration": 8, "velocity": 74}, {"time": 533, "pitch": 62, "duration": 8, "velocity": 85}, {"time": 545, "pitch": 57, "duration": 3, "velocity": 95}, {"time": 545, "pitch": 62, "duration": 3, "velocity": 102}, {"time": 554, "pitch": 57, "duration": 2, "velocity": 80}, {"time": 554, "pitch": 62, "duration": 2, "velocity": 87}, {"time": 557, "pitch": 52, "duration": 20, "velocity": 87}, {"time": 563, "pitch": 59, "duration": 4, "velocity": 80}, {"time": 563, "pitch": 64, "duration": 5, "velocity": 93}, {"time": 575, "pitch": 59, "duration": 2, "velocity": 72}, {"time": 575, "pitch": 67, "duration": 3, "velocity": 90}, {"time": 581, "pitch": 52, "duration": 21, "velocity": 83}, {"time": 581, "pitch": 59, "duration": 8, "velocity": 85}, {"time": 581, "pitch": 64, "duration": 8, "velocity": 102}, {"time": 593, "pitch": 59, "duration": 4, "velocity": 80}, {"time": 593, "pitch": 64, "duration": 5, "velocity": 102}, {"time": 602, "pitch": 59, "duration": 2, "velocity": 68}, {"time": 602, "pitch": 64, "duration": 1, "velocity": 70}, {"time": 605, "pitch": 45, "duration": 17, "velocity": 85}, {"time": 605, "pitch": 64, "duration": 3, "velocity": 80}, {"time": 605, "pitch": 69, "duration": 3, "velocity": 87}, {"time": 611, "pitch": 64, "duration": 4, "velocity": 83}, {"time": 611, "pitch": 69, "duration": 4, "velocity": 93}, {"time": 623, "pitch": 64, "duration": 2, "velocity": 72}, {"time": 623, "pitch": 69, "duration": 2, "velocity": 83}, {"time": 623, "pitch": 72, "duration": 2, "velocity": 80}, {"time": 629, "pitch": 52, "duration": 16, "velocity": 85}, {"time": 629, "pitch": 64, "duration": 8, "velocity": 74}, {"time": 629, "pitch": 67, "duration": 8, "velocity": 80}, {"time": 641, "pitch": 64, "duration": 3, "velocity": 93}, {"time": 641, "pitch": 67, "duration": 3, "velocity": 103}, {"time": 650, "pitch": 64, "duration": 3, "velocity": 70}, {"time": 650, "pitch": 67, "duration": 3, "velocity": 71}, {"time": 653, "pitch": 45, "duration": 21, "velocity": 87}, {"time": 659, "pitch": 64, "duration": 3, "velocity": 80}, {"time": 659, "pitch": 69, "duration": 3, "velocity": 87}, {"time": 671, "pitch": 64, "duration": 3, "velocity": 87}, {"time": 671, "pitch": 69, "duration": 3, "velocity": 102}, {"time": 677, "pitch": 52, "duration": 34, "velocity": 87}, {"time": 677, "pitch": 59, "duration": 8, "velocity": 70}, {"time": 677, "pitch": 64, "duration": 7, "velocity": 83}, {"time": 677, "pitch": 67, "duration": 8, "velocity": 80}, {"time": 689, "pitch": 59, "duration": 4, "velocity": 83}, {"time": 689, "pitch": 64, "duration": 4, "velocity": 102}, {"time": 689, "pitch": 67, "duration": 4, "velocity": 95}, {"time": 698, "pitch": 59, "duration": 2, "velocity": 59}, {"time": 698, "pitch": 64, "duration": 2, "velocity": 74}, {"time": 698, "pitch": 67, "duration": 3, "velocity": 69}, {"time": 707, "pitch": 59, "duration": 4, "velocity": 70}, {"time": 707, "pitch": 64, "duration": 3, "velocity": 80}, {"time": 707, "pitch": 67, "duration": 4, "velocity": 80}, {"time": 719, "pitch": 59, "duration": 2, "velocity": 58}, {"time": 719, "pitch": 64, "duration": 2, "velocity": 68}, {"time": 725, "pitch": 47, "duration": 14, "velocity": 71}, {"time": 725, "pitch": 59, "duration": 8, "velocity": 87}, {"time": 725, "pitch": 62, "duration": 8, "velocity": 95}, {"time": 737, "pitch": 59, "duration": 4, "velocity": 87}, {"time": 737, "pitch": 62, "duration": 2, "velocity": 103}, {"time": 737, "pitch": 66, "duration": 4, "velocity": 93}, {"time": 746, "pitch": 59, "duration": 3, "velocity": 74}, {"time": 746, "pitch": 62, "duration": 2, "velocity": 90}, {"time": 749, "pitch": 52, "duration": 19, "velocity": 93}, {"time": 755, "pitch": 59, "duration": 5, "velocity": 80}, {"time": 755, "pitch": 64, "duration": 6, "velocity": 90}, {"time": 767, "pitch": 59, "duration": 2, "velocity": 74}, {"time": 767, "pitch": 64, "duration": 2, "velocity": 80}, {"time": 767, "pitch": 67, "duration": 2, "velocity": 74}, {"time": 773, "pitch": 45, "duration": 21, "velocity": 80}, {"time": 773, "pitch": 57, "duration": 9, "velocity": 69}, {"time": 773, "pitch": 60, "duration": 9, "velocity": 74}, {"time": 785, "pitch": 57, "duration": 5, "velocity": 93}, {"time": 785, "pitch": 60, "duration": 6, "velocity": 102}, {"time": 794, "pitch": 57, "duration": 1, "velocity": 74}, {"time": 794, "pitch": 60, "duration": 2, "velocity": 93}, {"time": 797, "pitch": 47, "duration": 10, "velocity": 80}, {"time": 797, "pitch": 59, "duration": 7, "velocity": 72}, {"time": 797, "pitch": 62, "duration": 7, "velocity": 95}, {"time": 809, "pitch": 45, "duration": 8, "velocity": 90}, {"time": 809, "pitch": 57, "duration": 7, "velocity": 87}, {"time": 809, "pitch": 60, "duration": 7, "velocity": 83}, {"time": 821, "pitch": 47, "duration": 17, "velocity": 72}, {"time": 821, "pitch": 59, "duration": 8, "velocity": 66}, {"time": 821, "pitch": 62, "duration": 8, "velocity": 80}, {"time": 821, "pitch": 66, "duration": 8, "velocity": 65}, {"time": 833, "pitch": 59, "duration": 4, "velocity": 83}, {"time": 833, "pitch": 62, "duration": 3, "velocity": 102}, {"time": 833, "pitch": 66, "duration": 4, "velocity": 93}, {"time": 842, "pitch": 59, "duration": 3, "velocity": 69}, {"time": 842, "pitch": 62, "duration": 3, "velocity": 87}, {"time": 842, "pitch": 66, "duration": 2, "velocity": 65}, {"time": 845, "pitch": 52, "duration": 21, "velocity": 87}, {"time": 851, "pitch": 59, "duration": 8, "velocity": 69}, {"time": 851, "pitch": 64, "duration": 8, "velocity": 80}, {"time": 851, "pitch": 67, "duration": 8, "velocity": 74}, {"time": 863, "pitch": 59, "duration": 3, "velocity": 71}, {"time": 863, "pitch": 64, "duration": 3, "velocity": 87}, {"time": 863, "pitch": 67, "duration": 3, "velocity": 80}, {"time": 869, "pitch": 52, "duration": 42, "velocity": 102}, {"time": 869, "pitch": 59, "duration": 8, "velocity": 74}, {"time": 869, "pitch": 67, "duration": 7, "velocity": 83}, {"time": 881, "pitch": 59, "duration": 3, "velocity": 80}, {"time": 881, "pitch": 64, "duration": 2, "velocity": 95}, {"time": 890, "pitch": 59, "duration": 2, "velocity": 66}, {"time": 890, "pitch": 64, "duration": 2, "velocity": 74}, {"time": 899, "pitch": 59, "duration": 2, "velocity": 80}, {"time": 899, "pitch": 64, "duration": 2, "velocity": 90}, {"time": 899, "pitch": 67, "duration": 3, "velocity": 93}, {"time": 911, "pitch": 59, "duration": 2, "velocity": 72}, {"time": 911, "pitch": 64, "duration": 1, "velocity": 80}, {"time": 911, "pitch": 67, "duration": 2, "velocity": 74}, {"time": 917, "pitch": 50, "duration": 16, "velocity": 80}, {"time": 917, "pitch": 57, "duration": 8, "velocity": 74}, {"time": 917, "pitch": 62, "duration": 8, "velocity": 85}, {"time": 929, "pitch": 57, "duration": 3, "velocity": 95}, {"time": 929, "pitch": 62, "duration": 3, "velocity": 102}, {"time": 938, "pitch": 57, "duration": 2, "velocity": 80}, {"time": 938, "pitch": 62, "duration": 2, "velocity": 87}, {"time": 941, "pitch": 52, "duration": 20, "velocity": 87}, {"time": 947, "pitch": 59, "duration": 4, "velocity": 80}, {"time": 947, "pitch": 64, "duration": 5, "velocity": 93}, {"time": 959, "pitch": 59, "duration": 2, "velocity": 72}, {"time": 959, "pitch": 67, "duration": 3, "velocity": 90}, {"time": 965, "pitch": 52, "duration": 21, "velocity": 83}, {"time": 965, "pitch": 59, "duration": 8, "velocity": 85}, {"time": 965, "pitch": 64, "duration": 8, "velocity": 102}, {"time": 977, "pitch": 59, "duration": 4, "velocity": 80}, {"time": 977, "pitch": 64, "duration": 5, "velocity": 102}, {"time": 986, "pitch": 59, "duration": 2, "velocity": 68}, {"time": 986, "pitch": 64, "duration": 1, "velocity": 70}, {"time": 989, "pitch": 45, "duration": 17, "velocity": 85}, {"time": 989, "pitch": 64, "duration": 3, "velocity": 80}, {"time": 989, "pitch": 69, "duration": 3, "velocity": 87}, {"time": 995, "pitch": 64, "duration": 4, "velocity": 83}, {"time": 995, "pitch": 69, "duration": 4, "velocity": 93}, {"time": 1007, "pitch": 64, "duration": 2, "velocity": 72}, {"time": 1007, "pitch": 69, "duration": 2, "velocity": 83}, {"time": 1007, "pitch": 72, "duration": 2, "velocity": 80}, {"time": 1013, "pitch": 52, "duration": 16, "velocity": 85}, {"time": 1013, "pitch": 64, "duration": 8, "velocity": 74}, {"time": 1013, "pitch": 67, "duration": 8, "velocity": 80}, {"time": 1025, "pitch": 64, "duration": 3, "velocity": 93}, {"time": 1025, "pitch": 67, "duration": 3, "velocity": 103}, {"time": 1034, "pitch": 64, "duration": 3, "velocity": 70}, {"time": 1034, "pitch": 67, "duration": 3, "velocity": 71}, {"time": 1037, "pitch": 45, "duration": 21, "velocity": 87}, {"time": 1043, "pitch": 64, "duration": 3, "velocity": 80}, {"time": 1043, "pitch": 69, "duration": 3, "velocity": 87}, {"time": 1055, "pitch": 64, "duration": 3, "velocity": 87}, {"time": 1055, "pitch": 69, "duration": 3, "velocity": 102}, {"time": 1061, "pitch": 52, "duration": 34, "velocity": 87}, {"time": 1061, "pitch": 59, "duration": 8, "velocity": 70}, {"time": 1061, "pitch": 64, "duration": 7, "velocity": 83}, {"time": 1061, "pitch": 67, "duration": 8, "velocity": 80}, {"time": 1073, "pitch": 59, "duration": 4, "velocity": 83}, {"time": 1073, "pitch": 64, "duration": 4, "velocity": 102}, {"time": 1073, "pitch": 67, "duration": 4, "velocity": 95}, {"time": 1082, "pitch": 59, "duration": 2, "velocity": 59}, {"time": 1082, "pitch": 64, "duration": 2, "velocity": 74}, {"time": 1082, "pitch": 67, "duration": 3, "velocity": 69}, {"time": 1091, "pitch": 59, "duration": 4, "velocity": 70}, {"time": 1091, "pitch": 64, "duration": 3, "velocity": 80}, {"time": 1091, "pitch": 67, "duration": 4, "velocity": 80}, {"time": 1103, "pitch": 59, "duration": 2, "velocity": 58}, {"time": 1103, "pitch": 64, "duration": 2, "velocity": 68}, {"time": 1109, "pitch": 47, "duration": 14, "velocity": 71}, {"time": 1109, "pitch": 59, "duration": 8, "velocity": 87}, {"time": 1109, "pitch": 62, "duration": 8, "velocity": 95}, {"time": 1121, "pitch": 59, "duration": 4, "velocity": 87}, {"time": 1121, "pitch": 62, "duration": 2, "velocity": 103}, {"time": 1121, "pitch": 66, "duration": 4, "velocity": 93}, {"time": 1130, "pitch": 59, "duration": 3, "velocity": 74}, {"time": 1130, "pitch": 62, "duration": 2, "velocity": 90}, {"time": 1133, "pitch": 52, "duration": 19, "velocity": 93}, {"time": 1139, "pitch": 59, "duration": 5, "velocity": 80}, {"time": 1139, "pitch": 64, "duration": 6, "velocity": 90}, {"time": 1151, "pitch": 59, "duration": 2, "velocity": 74}, {"time": 1151, "pitch": 64, "duration": 2, "velocity": 80}, {"time": 1151, "pitch": 67, "duration": 2, "velocity": 74}, {"time": 1157, "pitch": 45, "duration": 21, "velocity": 80}, {"time": 1157, "pitch": 57, "duration": 9, "velocity": 69}, {"time": 1157, "pitch": 60, "duration": 9, "velocity": 74}, {"time": 1169, "pitch": 57, "duration": 5, "velocity": 93}, {"time": 1169, "pitch": 60, "duration": 6, "velocity": 102}, {"time": 1178, "pitch": 57, "duration": 1, "velocity": 74}, {"time": 1178, "pitch": 60, "duration": 2, "velocity": 93}, {"time": 1181, "pitch": 47, "duration": 10, "velocity": 80}, {"time": 1181, "pitch": 59, "duration": 7, "velocity": 72}, {"time": 1181, "pitch": 62, "duration": 7, "velocity": 95}, {"time": 1193, "pitch": 45, "duration": 8, "velocity": 90}, {"time": 1193, "pitch": 57, "duration": 7, "velocity": 87}, {"time": 1193, "pitch": 60, "duration": 7, "velocity": 83}, {"time": 1205, "pitch": 47, "duration": 17, "velocity": 72}, {"time": 1205, "pitch": 59, "duration": 8, "velocity": 66}, {"time": 1205, "pitch": 62, "duration": 8, "velocity": 80}, {"time": 1205, "pitch": 66, "duration": 8, "velocity": 65}, {"time": 1217, "pitch": 59, "duration": 4, "velocity": 83}, {"time": 1217, "pitch": 62, "duration": 3, "velocity": 102}, {"time": 1217, "pitch": 66, "duration": 4, "velocity": 93}, {"time": 1226, "pitch": 59, "duration": 3, "velocity": 69}, {"time": 1226, "pitch": 62, "duration": 3, "velocity": 87}, {"time": 1226, "pitch": 66, "duration": 2, "velocity": 65}, {"time": 1229, "pitch": 52, "duration": 21, "velocity": 87}, {"time": 1235, "pitch": 59, "duration": 8, "velocity": 69}, {"time": 1235, "pitch": 64, "duration": 8, "velocity": 80}, {"time": 1235, "pitch": 67, "duration": 8, "velocity": 74}, {"time": 1247, "pitch": 59, "duration": 3, "velocity": 71}, {"time": 1247, "pitch": 64, "duration": 3, "velocity": 87}, {"time": 1247, "pitch": 67, "duration": 3, "velocity": 80}, {"time": 1253, "pitch": 40, "duration": 37, "velocity": 80}, {"time": 1253, "pitch": 59, "duration": 8, "velocity": 70}, {"time": 1253, "pitch": 64, "duration": 7, "velocity": 83}, {"time": 1265, "pitch": 59, "duration": 2, "velocity": 85}, {"time": 1265, "pitch": 67, "duration": 3, "velocity": 102}, {"time": 1277, "pitch": 59, "duration": 2, "velocity": 74}, {"time": 1283, "pitch": 59, "duration": 4, "velocity": 85}, {"time": 1283, "pitch": 64, "duration": 5, "velocity": 105}, {"time": 1301, "pitch": 50, "duration": 18, "velocity": 80}, {"time": 1301, "pitch": 57, "duration": 8, "velocity": 87}, {"time": 1301, "pitch": 62, "duration": 9, "velocity": 80}, {"time": 1313, "pitch": 57, "duration": 2, "velocity": 87}, {"time": 1313, "pitch": 62, "duration": 7, "velocity": 95}, {"time": 1319, "pitch": 57, "duration": 2, "velocity": 66}, {"time": 1325, "pitch": 52, "duration": 18, "velocity": 80}, {"time": 1325, "pitch": 59, "duration": 3, "velocity": 80}, {"time": 1325, "pitch": 64, "duration": 8, "velocity": 70}, {"time": 1331, "pitch": 59, "duration": 3, "velocity": 69}, {"time": 1337, "pitch": 59, "duration": 3, "velocity": 85}, {"time": 1337, "pitch": 64, "duration": 4, "velocity": 93}, {"time": 1337, "pitch": 67, "duration": 7, "velocity": 80}, {"time": 1343, "pitch": 59, "duration": 4, "velocity": 66}, {"time": 1349, "pitch": 43, "duration": 39, "velocity": 85}, {"time": 1349, "pitch": 55, "duration": 9, "velocity": 70}, {"time": 1349, "pitch": 62, "duration": 9, "velocity": 59}, {"time": 1361, "pitch": 55, "duration": 2, "velocity": 72}, {"time": 1361, "pitch": 62, "duration": 2, "velocity": 68}, {"time": 1367, "pitch": 55, "duration": 5, "velocity": 87}, {"time": 1367, "pitch": 62, "duration": 4, "velocity": 103}, {"time": 1373, "pitch": 50, "duration": 15, "velocity": 56}, {"time": 1379, "pitch": 55, "duration": 2, "velocity": 90}, {"time": 1379, "pitch": 59, "duration": 3, "velocity": 93}, {"time": 1379, "pitch": 62, "duration": 4, "velocity": 95}, {"time": 1385, "pitch": 55, "duration": 3, "velocity": 87}, {"time": 1391, "pitch": 59, "duration": 2, "velocity": 87}, {"time": 1397, "pitch": 52, "duration": 14, "velocity": 93}, {"time": 1397, "pitch": 59, "duration": 8, "velocity": 69}, {"time": 1397, "pitch": 64, "duration": 9, "velocity": 95}, {"time": 1409, "pitch": 59, "duration": 2, "velocity": 72}, {"time": 1409, "pitch": 64, "duration": 3, "velocity": 93}, {"time": 1415, "pitch": 59, "duration": 3, "velocity": 63}, {"time": 1421, "pitch": 47, "duration": 19, "velocity": 59}, {"time": 1421, "pitch": 59, "duration": 5, "velocity": 72}, {"time": 1421, "pitch": 62, "duration": 7, "velocity": 87}, {"time": 1427, "pitch": 54, "duration": 7, "velocity": 59}, {"time": 1433, "pitch": 59, "duration": 2, "velocity": 74}, {"time": 1433, "pitch": 62, "duration": 3, "velocity": 93}, {"time": 1433, "pitch": 66, "duration": 8, "velocity": 80}, {"time": 1439, "pitch": 59, "duration": 3, "velocity": 67}, {"time": 1445, "pitch": 47, "duration": 14, "velocity": 69}, {"time": 1445, "pitch": 59, "duration": 6, "velocity": 74}, {"time": 1445, "pitch": 62, "duration": 7, "velocity": 83}, {"time": 1451, "pitch": 54, "duration": 5, "velocity": 45}, {"time": 1457, "pitch": 59, "duration": 2, "velocity": 70}, {"time": 1457, "pitch": 62, "duration": 6, "velocity": 74}, {"time": 1463, "pitch": 59, "duration": 2, "velocity": 65}, {"time": 1469, "pitch": 45, "duration": 20, "velocity": 74}, {"time": 1469, "pitch": 57, "duration": 7, "velocity": 80}, {"time": 1469, "pitch": 60, "duration": 8, "velocity": 90}, {"time": 1475, "pitch": 52, "duration": 13, "velocity": 68}, {"time": 1481, "pitch": 57, "duration": 3, "velocity": 93}, {"time": 1481, "pitch": 60, "duration": 7, "velocity": 93}, {"time": 1487, "pitch": 57, "duration": 3, "velocity": 69}, {"time": 1493, "pitch": 43, "duration": 38, "velocity": 93}, {"time": 1493, "pitch": 55, "duration": 8, "velocity": 85}, {"time": 1493, "pitch": 59, "duration": 8, "velocity": 90}, {"time": 1505, "pitch": 55, "duration": 2, "velocity": 87}, {"time": 1505, "pitch": 59, "duration": 3, "velocity": 93}, {"time": 1505, "pitch": 62, "duration": 3, "velocity": 90}, {"time": 1511, "pitch": 55, "duration": 7, "velocity": 90}, {"time": 1511, "pitch": 59, "duration": 7, "velocity": 93}, {"time": 1511, "pitch": 62, "duration": 7, "velocity": 93}, {"time": 1517, "pitch": 50, "duration": 15, "velocity": 59}, {"time": 1523, "pitch": 55, "duration": 2, "velocity": 72}, {"time": 1529, "pitch": 55, "duration": 2, "velocity": 93}, {"time": 1529, "pitch": 59, "duration": 3, "velocity": 102}, {"time": 1529, "pitch": 62, "duration": 3, "velocity": 95}, {"time": 1541, "pitch": 45, "duration": 19, "velocity": 80}, {"time": 1541, "pitch": 57, "duration": 7, "velocity": 74}, {"time": 1541, "pitch": 60, "duration": 7, "velocity": 83}, {"time": 1547, "pitch": 52, "duration": 13, "velocity": 47}, {"time": 1553, "pitch": 57, "duration": 3, "velocity": 93}, {"time": 1553, "pitch": 60, "duration": 4, "velocity": 95}, {"time": 1553, "pitch": 64, "duration": 8, "velocity": 102}, {"time": 1559, "pitch": 57, "duration": 2, "velocity": 71}, {"time": 1559, "pitch": 60, "duration": 1, "velocity": 15}, {"time": 1565, "pitch": 47, "duration": 8, "velocity": 80}, {"time": 1565, "pitch": 59, "duration": 6, "velocity": 83}, {"time": 1565, "pitch": 62, "duration": 5, "velocity": 102}, {"time": 1577, "pitch": 45, "duration": 7, "velocity": 80}, {"time": 1577, "pitch": 57, "duration": 4, "velocity": 83}, {"time": 1577, "pitch": 60, "duration": 5, "velocity": 87}, {"time": 1589, "pitch": 47, "duration": 19, "velocity": 90}, {"time": 1589, "pitch": 59, "duration": 8, "velocity": 80}, {"time": 1589, "pitch": 62, "duration": 9, "velocity": 87}, {"time": 1601, "pitch": 59, "duration": 2, "velocity": 80}, {"time": 1601, "pitch": 62, "duration": 3, "velocity": 90}, {"time": 1601, "pitch": 66, "duration": 7, "velocity": 87}, {"time": 1607, "pitch": 59, "duration": 3, "velocity": 80}, {"time": 1607, "pitch": 62, "duration": 2, "velocity": 44}, {"time": 1613, "pitch": 52, "duration": 22, "velocity": 85}, {"time": 1613, "pitch": 59, "duration": 3, "velocity": 69}, {"time": 1613, "pitch": 64, "duration": 7, "velocity": 80}, {"time": 1619, "pitch": 59, "duration": 2, "velocity": 74}, {"time": 1625, "pitch": 59, "duration": 2, "velocity": 87}, {"time": 1625, "pitch": 64, "duration": 8, "velocity": 102}, {"time": 1625, "pitch": 67, "duration": 7, "velocity": 87}, {"time": 1631, "pitch": 59, "duration": 3, "velocity": 66}, {"time": 1637, "pitch": 40, "duration": 37, "velocity": 80}, {"time": 1637, "pitch": 59, "duration": 8, "velocity": 70}, {"time": 1637, "pitch": 64, "duration": 7, "velocity": 83}, {"time": 1649, "pitch": 59, "duration": 2, "velocity": 85}, {"time": 1649, "pitch": 67, "duration": 3, "velocity": 102}, {"time": 1661, "pitch": 59, "duration": 2, "velocity": 74}, {"time": 1667, "pitch": 59, "duration": 4, "velocity": 85}, {"time": 1667, "pitch": 64, "duration": 5, "velocity": 105}, {"time": 1685, "pitch": 50, "duration": 18, "velocity": 80}, {"time": 1685, "pitch": 57, "duration": 8, "velocity": 87}, {"time": 1685, "pitch": 62, "duration": 9, "velocity": 80}, {"time": 1697, "pitch": 57, "duration": 2, "velocity": 87}, {"time": 1697, "pitch": 62, "duration": 7, "velocity": 95}, {"time": 1703, "pitch": 57, "duration": 2, "velocity": 66}, {"time": 1709, "pitch": 52, "duration": 18, "velocity": 80}, {"time": 1709, "pitch": 59, "duration": 3, "velocity": 80}, {"time": 1709, "pitch": 64, "duration": 8, "velocity": 70}, {"time": 1715, "pitch": 59, "duration": 3, "velocity": 69}, {"time": 1721, "pitch": 59, "duration": 3, "velocity": 85}, {"time": 1721, "pitch": 64, "duration": 4, "velocity": 93}, {"time": 1721, "pitch": 67, "duration": 7, "velocity": 80}, {"time": 1727, "pitch": 59, "duration": 4, "velocity": 66}, {"time": 1733, "pitch": 43, "duration": 39, "velocity": 85}, {"time": 1733, "pitch": 55, "duration": 9, "velocity": 70}, {"time": 1733, "pitch": 62, "duration": 9, "velocity": 59}, {"time": 1745, "pitch": 55, "duration": 2, "velocity": 72}, {"time": 1745, "pitch": 62, "duration": 2, "velocity": 68}, {"time": 1751, "pitch": 55, "duration": 5, "velocity": 87}, {"time": 1751, "pitch": 62, "duration": 4, "velocity": 103}, {"time": 1757, "pitch": 50, "duration": 15, "velocity": 56}, {"time": 1763, "pitch": 55, "duration": 2, "velocity": 90}, {"time": 1763, "pitch": 59, "duration": 3, "velocity": 93}, {"time": 1763, "pitch": 62, "duration": 4, "velocity": 95}, {"time": 1769, "pitch": 55, "duration": 3, "velocity": 87}, {"time": 1775, "pitch": 59, "duration": 2, "velocity": 87}, {"time": 1781, "pitch": 52, "duration": 14, "velocity": 93}, {"time": 1781, "pitch": 59, "duration": 8, "velocity": 69}, {"time": 1781, "pitch": 64, "duration": 9, "velocity": 95}, {"time": 1793, "pitch": 59, "duration": 2, "velocity": 72}, {"time": 1793, "pitch": 64, "duration": 3, "velocity": 93}, {"time": 1799, "pitch": 59, "duration": 3, "velocity": 63}, {"time": 1805, "pitch": 47, "duration": 19, "velocity": 59}, {"time": 1805, "pitch": 59, "duration": 5, "velocity": 72}, {"time": 1805, "pitch": 62, "duration": 7, "velocity": 87}, {"time": 1811, "pitch": 54, "duration": 7, "velocity": 59}, {"time": 1817, "pitch": 59, "duration": 2, "velocity": 74}, {"time": 1817, "pitch": 62, "duration": 3, "velocity": 93}, {"time": 1817, "pitch": 66, "duration": 8, "velocity": 80}, {"time": 1823, "pitch": 59, "duration": 3, "velocity": 67}, {"time": 1829, "pitch": 47, "duration": 14, "velocity": 69}, {"time": 1829, "pitch": 59, "duration": 6, "velocity": 74}, {"time": 1829, "pitch": 62, "duration": 7, "velocity": 83}, {"time": 1835, "pitch": 54, "duration": 5, "velocity": 45}, {"time": 1841, "pitch": 59, "duration": 2, "velocity": 70}, {"time": 1841, "pitch": 62, "duration": 6, "velocity": 74}, {"time": 1847, "pitch": 59, "duration": 2, "velocity": 65}, {"time": 1853, "pitch": 45, "duration": 20, "velocity": 74}, {"time": 1853, "pitch": 57, "duration": 7, "velocity": 80}, {"time": 1853, "pitch": 60, "duration": 8, "velocity": 90}, {"time": 1859, "pitch": 52, "duration": 13, "velocity": 68}, {"time": 1865, "pitch": 57, "duration": 3, "velocity": 93}, {"time": 1865, "pitch": 60, "duration": 7, "velocity": 93}, {"time": 1871, "pitch": 57, "duration": 3, "velocity": 69}, {"time": 1877, "pitch": 43, "duration": 38, "velocity": 93}, {"time": 1877, "pitch": 55, "duration": 8, "velocity": 85}, {"time": 1877, "pitch": 59, "duration": 8, "velocity": 90}, {"time": 1889, "pitch": 55, "duration": 2, "velocity": 87}, {"time": 1889, "pitch": 59, "duration": 3, "velocity": 93}, {"time": 1889, "pitch": 62, "duration": 3, "velocity": 90}, {"time": 1895, "pitch": 55, "duration": 7, "velocity": 90}, {"time": 1895, "pitch": 59, "duration": 7, "velocity": 93}, {"time": 1895, "pitch": 62, "duration": 7, "velocity": 93}, {"time": 1901, "pitch": 50, "duration": 15, "velocity": 59}, {"time": 1907, "pitch": 55, "duration": 2, "velocity": 72}, {"time": 1913, "pitch": 55, "duration": 2, "velocity": 93}, {"time": 1913, "pitch": 59, "duration": 3, "velocity": 102}, {"time": 1913, "pitch": 62, "duration": 3, "velocity": 95}, {"time": 1925, "pitch": 45, "duration": 19, "velocity": 80}, {"time": 1925, "pitch": 57, "duration": 7, "velocity": 74}, {"time": 1925, "pitch": 60, "duration": 7, "velocity": 83}, {"time": 1931, "pitch": 52, "duration": 13, "velocity": 47}, {"time": 1937, "pitch": 57, "duration": 3, "velocity": 93}, {"time": 1937, "pitch": 60, "duration": 4, "velocity": 95}, {"time": 1937, "pitch": 64, "duration": 8, "velocity": 102}, {"time": 1943, "pitch": 57, "duration": 2, "velocity": 71}, {"time": 1943, "pitch": 60, "duration": 1, "velocity": 15}, {"time": 1949, "pitch": 47, "duration": 8, "velocity": 80}, {"time": 1949, "pitch": 59, "duration": 6, "velocity": 83}, {"time": 1949, "pitch": 62, "duration": 5, "velocity": 102}, {"time": 1961, "pitch": 45, "duration": 7, "velocity": 80}, {"time": 1961, "pitch": 57, "duration": 4, "velocity": 83}, {"time": 1961, "pitch": 60, "duration": 5, "velocity": 87}, {"time": 1973, "pitch": 47, "duration": 19, "velocity": 90}, {"time": 1973, "pitch": 59, "duration": 8, "velocity": 80}, {"time": 1973, "pitch": 62, "duration": 9, "velocity": 87}, {"time": 1985, "pitch": 59, "duration": 2, "velocity": 80}, {"time": 1985, "pitch": 62, "duration": 3, "velocity": 90}, {"time": 1985, "pitch": 66, "duration": 7, "velocity": 87}, {"time": 1991, "pitch": 59, "duration": 3, "velocity": 80}, {"time": 1991, "pitch": 62, "duration": 2, "velocity": 44}, {"time": 1997, "pitch": 52, "duration": 22, "velocity": 85}, {"time": 1997, "pitch": 59, "duration": 3, "velocity": 69}, {"time": 1997, "pitch": 64, "duration": 7, "velocity": 80}, {"time": 2003, "pitch": 59, "duration": 2, "velocity": 74}, {"time": 2009, "pitch": 59, "duration": 2, "velocity": 87}, {"time": 2009, "pitch": 64, "duration": 8, "velocity": 102}, {"time": 2009, "pitch": 67, "duration": 7, "velocity": 87}, {"time": 2015, "pitch": 59, "duration": 3, "velocity": 66}, {"time": 2021, "pitch": 52, "duration": 42, "velocity": 102}, {"time": 2021, "pitch": 59, "duration": 8, "velocity": 74}, {"time": 2021, "pitch": 67, "duration": 7, "velocity": 83}, {"time": 2033, "pitch": 59, "duration": 3, "velocity": 80}, {"time": 2033, "pitch": 64, "duration": 2, "velocity": 95}, {"time": 2042, "pitch": 59, "duration": 2, "velocity": 66}, {"time": 2042, "pitch": 64, "duration": 2, "velocity": 74}, {"time": 2051, "pitch": 59, "duration": 2, "velocity": 80}, {"time": 2051, "pitch": 64, "duration": 2, "velocity": 90}, {"time": 2051, "pitch": 67, "duration": 3, "velocity": 93}, {"time": 2063, "pitch": 59, "duration": 2, "velocity": 72}, {"time": 2063, "pitch": 64, "duration": 1, "velocity": 80}, {"time": 2063, "pitch": 67, "duration": 2, "velocity": 74}, {"time": 2069, "pitch": 50, "duration": 16, "velocity": 80}, {"time": 2069, "pitch": 57, "duration": 8, "velocity": 74}, {"time": 2069, "pitch": 62, "duration": 8, "velocity": 85}, {"time": 2081, "pitch": 57, "duration": 3, "velocity": 95}, {"time": 2081, "pitch": 62, "duration": 3, "velocity": 102}, {"time": 2090, "pitch": 57, "duration": 2, "velocity": 80}, {"time": 2090, "pitch": 62, "duration": 2, "velocity": 87}, {"time": 2093, "pitch": 52, "duration": 20, "velocity": 87}, {"time": 2099, "pitch": 59, "duration": 4, "velocity": 80}, {"time": 2099, "pitch": 64, "duration": 5, "velocity": 93}, {"time": 2111, "pitch": 59, "duration": 2, "velocity": 72}, {"time": 2111, "pitch": 67, "duration": 3, "velocity": 90}, {"time": 2117, "pitch": 52, "duration": 21, "velocity": 83}, {"time": 2117, "pitch": 59, "duration": 8, "velocity": 85}, {"time": 2117, "pitch": 64, "duration": 8, "velocity": 102}, {"time": 2129, "pitch": 59, "duration": 4, "velocity": 80}, {"time": 2129, "pitch": 64, "duration": 5, "velocity": 102}, {"time": 2138, "pitch": 59, "duration": 2, "velocity": 68}, {"time": 2138, "pitch": 64, "duration": 1, "velocity": 70}, {"time": 2141, "pitch": 45, "duration": 17, "velocity": 85}, {"time": 2141, "pitch": 64, "duration": 3, "velocity": 80}, {"time": 2141, "pitch": 69, "duration": 3, "velocity": 87}, {"time": 2147, "pitch": 64, "duration": 4, "velocity": 83}, {"time": 2147, "pitch": 69, "duration": 4, "velocity": 93}, {"time": 2159, "pitch": 64, "duration": 2, "velocity": 72}, {"time": 2159, "pitch": 69, "duration": 2, "velocity": 83}, {"time": 2159, "pitch": 72, "duration": 2, "velocity": 80}, {"time": 2165, "pitch": 52, "duration": 16, "velocity": 85}, {"time": 2165, "pitch": 64, "duration": 8, "velocity": 74}, {"time": 2165, "pitch": 67, "duration": 8, "velocity": 80}, {"time": 2177, "pitch": 64, "duration": 3, "velocity": 93}, {"time": 2177, "pitch": 67, "duration": 3, "velocity": 103}, {"time": 2186, "pitch": 64, "duration": 3, "velocity": 70}, {"time": 2186, "pitch": 67, "duration": 3, "velocity": 71}, {"time": 2189, "pitch": 45, "duration": 21, "velocity": 87}, {"time": 2195, "pitch": 64, "duration": 3, "velocity": 80}, {"time": 2195, "pitch": 69, "duration": 3, "velocity": 87}, {"time": 2207, "pitch": 64, "duration": 3, "velocity": 87}, {"time": 2207, "pitch": 69, "duration": 3, "velocity": 102}, {"time": 2213, "pitch": 52, "duration": 34, "velocity": 87}, {"time": 2213, "pitch": 59, "duration": 8, "velocity": 70}, {"time": 2213, "pitch": 64, "duration": 7, "velocity": 83}, {"time": 2213, "pitch": 67, "duration": 8, "velocity": 80}, {"time": 2225, "pitch": 59, "duration": 4, "velocity": 83}, {"time": 2225, "pitch": 64, "duration": 4, "velocity": 102}, {"time": 2225, "pitch": 67, "duration": 4, "velocity": 95}, {"time": 2234, "pitch": 59, "duration": 2, "velocity": 59}, {"time": 2234, "pitch": 64, "duration": 2, "velocity": 74}, {"time": 2234, "pitch": 67, "duration": 3, "velocity": 69}, {"time": 2243, "pitch": 59, "duration": 4, "velocity": 70}, {"time": 2243, "pitch": 64, "duration": 3, "velocity": 80}, {"time": 2243, "pitch": 67, "duration": 4, "velocity": 80}, {"time": 2255, "pitch": 59, "duration": 2, "velocity": 58}, {"time": 2255, "pitch": 64, "duration": 2, "velocity": 68}, {"time": 2261, "pitch": 47, "duration": 14, "velocity": 71}, {"time": 2261, "pitch": 59, "duration": 8, "velocity": 87}, {"time": 2261, "pitch": 62, "duration": 8, "velocity": 95}, {"time": 2273, "pitch": 59, "duration": 4, "velocity": 87}, {"time": 2273, "pitch": 62, "duration": 2, "velocity": 103}, {"time": 2273, "pitch": 66, "duration": 4, "velocity": 93}, {"time": 2282, "pitch": 59, "duration": 3, "velocity": 74}, {"time": 2282, "pitch": 62, "duration": 2, "velocity": 90}, {"time": 2285, "pitch": 52, "duration": 19, "velocity": 93}, {"time": 2291, "pitch": 59, "duration": 5, "velocity": 80}, {"time": 2291, "pitch": 64, "duration": 6, "velocity": 90}, {"time": 2303, "pitch": 59, "duration": 2, "velocity": 74}, {"time": 2303, "pitch": 64, "duration": 2, "velocity": 80}, {"time": 2303, "pitch": 67, "duration": 2, "velocity": 74}, {"time": 2309, "pitch": 45, "duration": 21, "velocity": 80}, {"time": 2309, "pitch": 57, "duration": 9, "velocity": 69}, {"time": 2309, "pitch": 60, "duration": 9, "velocity": 74}, {"time": 2321, "pitch": 57, "duration": 5, "velocity": 93}, {"time": 2321, "pitch": 60, "duration": 6, "velocity": 102}, {"time": 2330, "pitch": 57, "duration": 1, "velocity": 74}, {"time": 2330, "pitch": 60, "duration": 2, "velocity": 93}, {"time": 2333, "pitch": 47, "duration": 10, "velocity": 80}, {"time": 2333, "pitch": 59, "duration": 7, "velocity": 72}, {"time": 2333, "pitch": 62, "duration": 7, "velocity": 95}, {"time": 2345, "pitch": 45, "duration": 8, "velocity": 90}, {"time": 2345, "pitch": 57, "duration": 7, "velocity": 87}, {"time": 2345, "pitch": 60, "duration": 7, "velocity": 83}, {"time": 2357, "pitch": 47, "duration": 17, "velocity": 72}, {"time": 2357, "pitch": 59, "duration": 8, "velocity": 66}, {"time": 2357, "pitch": 62, "duration": 8, "velocity": 80}, {"time": 2357, "pitch": 66, "duration": 8, "velocity": 65}, {"time": 2369, "pitch": 59, "duration": 4, "velocity": 83}, {"time": 2369, "pitch": 62, "duration": 3, "velocity": 102}, {"time": 2369, "pitch": 66, "duration": 4, "velocity": 93}, {"time": 2378, "pitch": 59, "duration": 3, "velocity": 69}, {"time": 2378, "pitch": 62, "duration": 3, "velocity": 87}, {"time": 2378, "pitch": 66, "duration": 2, "velocity": 65}, {"time": 2381, "pitch": 52, "duration": 21, "velocity": 87}, {"time": 2387, "pitch": 59, "duration": 8, "velocity": 69}, {"time": 2387, "pitch": 64, "duration": 8, "velocity": 80}, {"time": 2387, "pitch": 67, "duration": 8, "velocity": 74}, {"time": 2399, "pitch": 59, "duration": 3, "velocity": 71}, {"time": 2399, "pitch": 64, "duration": 3, "velocity": 87}, {"time": 2399, "pitch": 67, "duration": 3, "velocity": 80}, {"time": 2405, "pitch": 52, "duration": 42, "velocity": 102}, {"time": 2405, "pitch": 59, "duration": 8, "velocity": 74}, {"time": 2405, "pitch": 67, "duration": 7, "velocity": 83}, {"time": 2417, "pitch": 59, "duration": 3, "velocity": 80}, {"time": 2417, "pitch": 64, "duration": 2, "velocity": 95}, {"time": 2426, "pitch": 59, "duration": 2, "velocity": 66}, {"time": 2426, "pitch": 64, "duration": 2, "velocity": 74}, {"time": 2435, "pitch": 59, "duration": 2, "velocity": 80}, {"time": 2435, "pitch": 64, "duration": 2, "velocity": 90}, {"time": 2435, "pitch": 67, "duration": 3, "velocity": 93}, {"time": 2447, "pitch": 59, "duration": 2, "velocity": 72}, {"time": 2447, "pitch": 64, "duration": 1, "velocity": 80}, {"time": 2447, "pitch": 67, "duration": 2, "velocity": 74}, {"time": 2453, "pitch": 50, "duration": 16, "velocity": 80}, {"time": 2453, "pitch": 57, "duration": 8, "velocity": 74}, {"time": 2453, "pitch": 62, "duration": 8, "velocity": 85}, {"time": 2465, "pitch": 57, "duration": 3, "velocity": 95}, {"time": 2465, "pitch": 62, "duration": 3, "velocity": 102}, {"time": 2474, "pitch": 57, "duration": 2, "velocity": 80}, {"time": 2474, "pitch": 62, "duration": 2, "velocity": 87}, {"time": 2477, "pitch": 52, "duration": 20, "velocity": 87}, {"time": 2483, "pitch": 59, "duration": 4, "velocity": 80}, {"time": 2483, "pitch": 64, "duration": 5, "velocity": 93}, {"time": 2495, "pitch": 59, "duration": 2, "velocity": 72}, {"time": 2495, "pitch": 67, "duration": 3, "velocity": 90}, {"time": 2501, "pitch": 52, "duration": 21, "velocity": 83}, {"time": 2501, "pitch": 59, "duration": 8, "velocity": 85}, {"time": 2501, "pitch": 64, "duration": 8, "velocity": 102}, {"time": 2513, "pitch": 59, "duration": 4, "velocity": 80}, {"time": 2513, "pitch": 64, "duration": 5, "velocity": 102}, {"time": 2522, "pitch": 59, "duration": 2, "velocity": 68}, {"time": 2522, "pitch": 64, "duration": 1, "velocity": 70}, {"time": 2525, "pitch": 45, "duration": 17, "velocity": 85}, {"time": 2525, "pitch": 64, "duration": 3, "velocity": 80}, {"time": 2525, "pitch": 69, "duration": 3, "velocity": 87}, {"time": 2531, "pitch": 64, "duration": 4, "velocity": 83}, {"time": 2531, "pitch": 69, "duration": 4, "velocity": 93}, {"time": 2543, "pitch": 64, "duration": 2, "velocity": 72}, {"time": 2543, "pitch": 69, "duration": 2, "velocity": 83}, {"time": 2543, "pitch": 72, "duration": 2, "velocity": 80}, {"time": 2549, "pitch": 52, "duration": 16, "velocity": 85}, {"time": 2549, "pitch": 64, "duration": 8, "velocity": 74}, {"time": 2549, "pitch": 67, "duration": 8, "velocity": 80}, {"time": 2561, "pitch": 64, "duration": 3, "velocity": 93}, {"time": 2561, "pitch": 67, "duration": 3, "velocity": 103}, {"time": 2570, "pitch": 64, "duration": 3, "velocity": 70}, {"time": 2570, "pitch": 67, "duration": 3, "velocity": 71}, {"time": 2573, "pitch": 45, "duration": 21, "velocity": 87}, {"time": 2579, "pitch": 64, "duration": 3, "velocity": 80}, {"time": 2579, "pitch": 69, "duration": 3, "velocity": 87}, {"time": 2591, "pitch": 64, "duration": 3, "velocity": 87}, {"time": 2591, "pitch": 69, "duration": 3, "velocity": 102}, {"time": 2597, "pitch": 52, "duration": 34, "velocity": 87}, {"time": 2597, "pitch": 59, "duration": 8, "velocity": 70}, {"time": 2597, "pitch": 64, "duration": 7, "velocity": 83}, {"time": 2597, "pitch": 67, "duration": 8, "velocity": 80}, {"time": 2609, "pitch": 59, "duration": 4, "velocity": 83}, {"time": 2609, "pitch": 64, "duration": 4, "velocity": 102}, {"time": 2609, "pitch": 67, "duration": 4, "velocity": 95}, {"time": 2618, "pitch": 59, "duration": 2, "velocity": 59}, {"time": 2618, "pitch": 64, "duration": 2, "velocity": 74}, {"time": 2618, "pitch": 67, "duration": 3, "velocity": 69}, {"time": 2627, "pitch": 59, "duration": 4, "velocity": 70}, {"time": 2627, "pitch": 64, "duration": 3, "velocity": 80}, {"time": 2627, "pitch": 67, "duration": 4, "velocity": 80}, {"time": 2639, "pitch": 59, "duration": 2, "velocity": 58}, {"time": 2639, "pitch": 64, "duration": 2, "velocity": 68}, {"time": 2645, "pitch": 47, "duration": 14, "velocity": 71}, {"time": 2645, "pitch": 59, "duration": 8, "velocity": 87}, {"time": 2645, "pitch": 62, "duration": 8, "velocity": 95}, {"time": 2657, "pitch": 59, "duration": 4, "velocity": 87}, {"time": 2657, "pitch": 62, "duration": 2, "velocity": 103}, {"time": 2657, "pitch": 66, "duration": 4, "velocity": 93}, {"time": 2666, "pitch": 59, "duration": 3, "velocity": 74}, {"time": 2666, "pitch": 62, "duration": 2, "velocity": 90}, {"time": 2669, "pitch": 52, "duration": 19, "velocity": 93}, {"time": 2675, "pitch": 59, "duration": 5, "velocity": 80}, {"time": 2675, "pitch": 64, "duration": 6, "velocity": 90}, {"time": 2687, "pitch": 59, "duration": 2, "velocity": 74}, {"time": 2687, "pitch": 64, "duration": 2, "velocity": 80}, {"time": 2687, "pitch": 67, "duration": 2, "velocity": 74}, {"time": 2693, "pitch": 45, "duration": 21, "velocity": 80}, {"time": 2693, "pitch": 57, "duration": 9, "velocity": 69}, {"time": 2693, "pitch": 60, "duration": 9, "velocity": 74}, {"time": 2705, "pitch": 57, "duration": 5, "velocity": 93}, {"time": 2705, "pitch": 60, "duration": 6, "velocity": 102}, {"time": 2714, "pitch": 57, "duration": 1, "velocity": 74}, {"time": 2714, "pitch": 60, "duration": 2, "velocity": 93}, {"time": 2717, "pitch": 47, "duration": 10, "velocity": 80}, {"time": 2717, "pitch": 59, "duration": 7, "velocity": 72}, {"time": 2717, "pitch": 62, "duration": 7, "velocity": 95}, {"time": 2729, "pitch": 45, "duration": 8, "velocity": 90}, {"time": 2729, "pitch": 57, "duration": 7, "velocity": 87}, {"time": 2729, "pitch": 60, "duration": 7, "velocity": 83}, {"time": 2741, "pitch": 47, "duration": 17, "velocity": 72}, {"time": 2741, "pitch": 59, "duration": 8, "velocity": 66}, {"time": 2741, "pitch": 62, "duration": 8, "velocity": 80}, {"time": 2741, "pitch": 66, "duration": 8, "velocity": 65}, {"time": 2753, "pitch": 59, "duration": 4, "velocity": 83}, {"time": 2753, "pitch": 62, "duration": 3, "velocity": 102}, {"time": 2753, "pitch": 66, "duration": 4, "velocity": 93}, {"time": 2762, "pitch": 59, "duration": 3, "velocity": 69}, {"time": 2762, "pitch": 62, "duration": 3, "velocity": 87}, {"time": 2762, "pitch": 66, "duration": 2, "velocity": 65}, {"time": 2765, "pitch": 52, "duration": 21, "velocity": 87}, {"time": 2771, "pitch": 59, "duration": 8, "velocity": 69}, {"time": 2771, "pitch": 64, "duration": 8, "velocity": 80}, {"time": 2771, "pitch": 67, "duration": 8, "velocity": 74}, {"time": 2783, "pitch": 59, "duration": 3, "velocity": 71}, {"time": 2783, "pitch": 64, "duration": 3, "velocity": 87}, {"time": 2783, "pitch": 67, "duration": 3, "velocity": 80}, {"time": 2789, "pitch": 40, "duration": 43, "velocity": 74}, {"time": 2789, "pitch": 52, "duration": 43, "velocity": 68}, {"time": 2789, "pitch": 59, "duration": 3, "velocity": 83}, {"time": 2789, "pitch": 64, "duration": 3, "velocity": 87}, {"time": 2801, "pitch": 59, "duration": 2, "velocity": 90}, {"time": 2801, "pitch": 67, "duration": 4, "velocity": 90}, {"time": 2819, "pitch": 59, "duration": 2, "velocity": 80}, {"time": 2819, "pitch": 64, "duration": 2, "velocity": 103}, {"time": 2831, "pitch": 59, "duration": 1, "velocity": 69}, {"time": 2831, "pitch": 64, "duration": 1, "velocity": 59}, {"time": 2837, "pitch": 40, "duration": 44, "velocity": 85}, {"time": 2837, "pitch": 52, "duration": 44, "velocity": 93}, {"time": 2837, "pitch": 59, "duration": 2, "velocity": 80}, {"time": 2837, "pitch": 64, "duration": 2, "velocity": 102}, {"time": 2843, "pitch": 59, "duration": 1, "velocity": 55}, {"time": 2843, "pitch": 64, "duration": 1, "velocity": 63}, {"time": 2849, "pitch": 59, "duration": 2, "velocity": 80}, {"time": 2849, "pitch": 64, "duration": 2, "velocity": 102}, {"time": 2849, "pitch": 67, "duration": 2, "velocity": 95}, {"time": 2855, "pitch": 59, "duration": 1, "velocity": 60}, {"time": 2867, "pitch": 59, "duration": 2, "velocity": 87}, {"time": 2867, "pitch": 64, "duration": 2, "velocity": 105}, {"time": 2879, "pitch": 59, "duration": 2, "velocity": 74}, {"time": 2885, "pitch": 40, "duration": 45, "velocity": 70}, {"time": 2885, "pitch": 52, "duration": 45, "velocity": 72}, {"time": 2885, "pitch": 59, "duration": 3, "velocity": 70}, {"time": 2885, "pitch": 64, "duration": 2, "velocity": 93}, {"time": 2897, "pitch": 59, "duration": 2, "velocity": 72}, {"time": 2897, "pitch": 64, "duration": 2, "velocity": 87}, {"time": 2897, "pitch": 67, "duration": 2, "velocity": 67}, {"time": 2915, "pitch": 59, "duration": 2, "velocity": 66}, {"time": 2915, "pitch": 64, "duration": 2, "velocity": 63}, {"time": 2915, "pitch": 67, "duration": 2, "velocity": 41}, {"time": 2921, "pitch": 59, "duration": 1, "velocity": 64}, {"time": 2921, "pitch": 64, "duration": 1, "velocity": 74}, {"time": 2921, "pitch": 67, "duration": 2, "velocity": 65}, {"time": 2927, "pitch": 59, "duration": 2, "velocity": 60}, {"time": 2927, "pitch": 64, "duration": 1, "velocity": 68}, {"time": 2927, "pitch": 67, "duration": 1, "velocity": 65}, {"time": 2933, "pitch": 40, "duration": 48, "velocity": 69}, {"time": 2933, "pitch": 52, "duration": 48, "velocity": 80}, {"time": 2933, "pitch": 59, "duration": 2, "velocity": 68}, {"time": 2933, "pitch": 64, "duration": 1, "velocity": 51}, {"time": 2945, "pitch": 59, "duration": 2, "velocity": 80}, {"time": 2945, "pitch": 64, "duration": 2, "velocity": 93}, {"time": 2945, "pitch": 67, "duration": 3, "velocity": 93}, {"time": 2951, "pitch": 59, "duration": 1, "velocity": 63}, {"time": 2954, "pitch": 59, "duration": 2, "velocity": 59}, {"time": 2960, "pitch": 64, "duration": 2, "velocity": 90}, {"time": 2960, "pitch": 67, "duration": 3, "velocity": 83}, {"time": 2963, "pitch": 59, "duration": 2, "velocity": 80}, {"time": 2975, "pitch": 59, "duration": 2, "velocity": 74}, {"time": 2981, "pitch": 40, "duration": 43, "velocity": 74}, {"time": 2981, "pitch": 52, "duration": 43, "velocity": 68}, {"time": 2981, "pitch": 59, "duration": 3, "velocity": 83}, {"time": 2981, "pitch": 64, "duration": 3, "velocity": 87}, {"time": 2993, "pitch": 59, "duration": 2, "velocity": 90}, {"time": 2993, "pitch": 67, "duration": 4, "velocity": 90}, {"time": 3011, "pitch": 59, "duration": 2, "velocity": 80}, {"time": 3011, "pitch": 64, "duration": 2, "velocity": 103}, {"time": 3023, "pitch": 59, "duration": 1, "velocity": 69}, {"time": 3023, "pitch": 64, "duration": 1, "velocity": 59}, {"time": 3029, "pitch": 40, "duration": 44, "velocity": 85}, {"time": 3029, "pitch": 52, "duration": 44, "velocity": 93}, {"time": 3029, "pitch": 59, "duration": 2, "velocity": 80}, {"time": 3029, "pitch": 64, "duration": 2, "velocity": 102}, {"time": 3035, "pitch": 59, "duration": 1, "velocity": 55}, {"time": 3035, "pitch": 64, "duration": 1, "velocity": 63}, {"time": 3041, "pitch": 59, "duration": 2, "velocity": 80}, {"time": 3041, "pitch": 64, "duration": 2, "velocity": 102}, {"time": 3041, "pitch": 67, "duration": 2, "velocity": 95}, {"time": 3047, "pitch": 59, "duration": 1, "velocity": 60}, {"time": 3059, "pitch": 59, "duration": 2, "velocity": 87}, {"time": 3059, "pitch": 64, "duration": 2, "velocity": 105}, {"time": 3071, "pitch": 59, "duration": 2, "velocity": 74}, {"time": 3077, "pitch": 40, "duration": 45, "velocity": 70}, {"time": 3077, "pitch": 52, "duration": 45, "velocity": 72}, {"time": 3077, "pitch": 59, "duration": 3, "velocity": 70}, {"time": 3077, "pitch": 64, "duration": 2, "velocity": 93}, {"time": 3089, "pitch": 59, "duration": 2, "velocity": 72}, {"time": 3089, "pitch": 64, "duration": 2, "velocity": 87}, {"time": 3089, "pitch": 67, "duration": 2, "velocity": 67}, {"time": 3107, "pitch": 59, "duration": 2, "velocity": 66}, {"time": 3107, "pitch": 64, "duration": 2, "velocity": 63}, {"time": 3107, "pitch": 67, "duration": 2, "velocity": 41}, {"time": 3113, "pitch": 59, "duration": 1, "velocity": 64}, {"time": 3113, "pitch": 64, "duration": 1, "velocity": 74}, {"time": 3113, "pitch": 67, "duration": 2, "velocity": 65}, {"time": 3119, "pitch": 59, "duration": 2, "velocity": 60}, {"time": 3119, "pitch": 64, "duration": 1, "velocity": 68}, {"time": 3119, "pitch": 67, "duration": 1, "velocity": 65}, {"time": 3125, "pitch": 40, "duration": 48, "velocity": 69}, {"time": 3125, "pitch": 52, "duration": 48, "velocity": 80}, {"time": 3125, "pitch": 59, "duration": 2, "velocity": 68}, {"time": 3125, "pitch": 64, "duration": 1, "velocity": 51}, {"time": 3137, "pitch": 59, "duration": 2, "velocity": 80}, {"time": 3137, "pitch": 64, "duration": 2, "velocity": 93}, {"time": 3137, "pitch": 67, "duration": 3, "velocity": 93}, {"time": 3143, "pitch": 59, "duration": 1, "velocity": 63}, {"time": 3146, "pitch": 59, "duration": 2, "velocity": 59}, {"time": 3152, "pitch": 64, "duration": 2, "velocity": 90}, {"time": 3152, "pitch": 67, "duration": 3, "velocity": 83}, {"time": 3155, "pitch": 59, "duration": 2, "velocity": 80}, {"time": 3167, "pitch": 59, "duration": 2, "velocity": 74}, {"time": 3173, "pitch": 40, "duration": 37, "velocity": 80}, {"time": 3173, "pitch": 59, "duration": 8, "velocity": 70}, {"time": 3173, "pitch": 64, "duration": 7, "velocity": 83}, {"time": 3185, "pitch": 59, "duration": 2, "velocity": 85}, {"time": 3185, "pitch": 67, "duration": 3, "velocity": 102}, {"time": 3197, "pitch": 59, "duration": 2, "velocity": 74}, {"time": 3203, "pitch": 59, "duration": 4, "velocity": 85}, {"time": 3203, "pitch": 64, "duration": 5, "velocity": 105}, {"time": 3221, "pitch": 50, "duration": 18, "velocity": 80}, {"time": 3221, "pitch": 57, "duration": 8, "velocity": 87}, {"time": 3221, "pitch": 62, "duration": 9, "velocity": 80}, {"time": 3233, "pitch": 57, "duration": 2, "velocity": 87}, {"time": 3233, "pitch": 62, "duration": 7, "velocity": 95}, {"time": 3239, "pitch": 57, "duration": 2, "velocity": 66}, {"time": 3245, "pitch": 52, "duration": 18, "velocity": 80}, {"time": 3245, "pitch": 59, "duration": 3, "velocity": 80}, {"time": 3245, "pitch": 64, "duration": 8, "velocity": 70}, {"time": 3251, "pitch": 59, "duration": 3, "velocity": 69}, {"time": 3257, "pitch": 59, "duration": 3, "velocity": 85}, {"time": 3257, "pitch": 64, "duration": 4, "velocity": 93}, {"time": 3257, "pitch": 67, "duration": 7, "velocity": 80}, {"time": 3263, "pitch": 59, "duration": 4, "velocity": 66}, {"time": 3269, "pitch": 43, "duration": 39, "velocity": 85}, {"time": 3269, "pitch": 55, "duration": 9, "velocity": 70}, {"time": 3269, "pitch": 62, "duration": 9, "velocity": 59}, {"time": 3281, "pitch": 55, "duration": 2, "velocity": 72}, {"time": 3281, "pitch": 62, "duration": 2, "velocity": 68}, {"time": 3287, "pitch": 55, "duration": 5, "velocity": 87}, {"time": 3287, "pitch": 62, "duration": 4, "velocity": 103}, {"time": 3293, "pitch": 50, "duration": 15, "velocity": 56}, {"time": 3299, "pitch": 55, "duration": 2, "velocity": 90}, {"time": 3299, "pitch": 59, "duration": 3, "velocity": 93}, {"time": 3299, "pitch": 62, "duration": 4, "velocity": 95}, {"time": 3305, "pitch": 55, "duration": 3, "velocity": 87}, {"time": 3311, "pitch": 59, "duration": 2, "velocity": 87}, {"time": 3317, "pitch": 52, "duration": 14, "velocity": 93}, {"time": 3317, "pitch": 59, "duration": 8, "velocity": 69}, {"time": 3317, "pitch": 64, "duration": 9, "velocity": 95}, {"time": 3329, "pitch": 59, "duration": 2, "velocity": 72}, {"time": 3329, "pitch": 64, "duration": 3, "velocity": 93}, {"time": 3335, "pitch": 59, "duration": 3, "velocity": 63}, {"time": 3341, "pitch": 47, "duration": 19, "velocity": 59}, {"time": 3341, "pitch": 59, "duration": 5, "velocity": 72}, {"time": 3341, "pitch": 62, "duration": 7, "velocity": 87}, {"time": 3347, "pitch": 54, "duration": 7, "velocity": 59}, {"time": 3353, "pitch": 59, "duration": 2, "velocity": 74}, {"time": 3353, "pitch": 62, "duration": 3, "velocity": 93}, {"time": 3353, "pitch": 66, "duration": 8, "velocity": 80}, {"time": 3359, "pitch": 59, "duration": 3, "velocity": 67}, {"time": 3365, "pitch": 47, "duration": 14, "velocity": 69}, {"time": 3365, "pitch": 59, "duration": 6, "velocity": 74}, {"time": 3365, "pitch": 62, "duration": 7, "velocity": 83}, {"time": 3371, "pitch": 54, "duration": 5, "velocity": 45}, {"time": 3377, "pitch": 59, "duration": 2, "velocity": 70}, {"time": 3377, "pitch": 62, "duration": 6, "velocity": 74}, {"time": 3383, "pitch": 59, "duration": 2, "velocity": 65}, {"time": 3389, "pitch": 45, "duration": 20, "velocity": 74}, {"time": 3389, "pitch": 57, "duration": 7, "velocity": 80}, {"time": 3389, "pitch": 60, "duration": 8, "velocity": 90}, {"time": 3395, "pitch": 52, "duration": 13, "velocity": 68}, {"time": 3401, "pitch": 57, "duration": 3, "velocity": 93}, {"time": 3401, "pitch": 60, "duration": 7, "velocity": 93}, {"time": 3407, "pitch": 57, "duration": 3, "velocity": 69}, {"time": 3413, "pitch": 43, "duration": 38, "velocity": 93}, {"time": 3413, "pitch": 55, "duration": 8, "velocity": 85}, {"time": 3413, "pitch": 59, "duration": 8, "velocity": 90}, {"time": 3425, "pitch": 55, "duration": 2, "velocity": 87}, {"time": 3425, "pitch": 59, "duration": 3, "velocity": 93}, {"time": 3425, "pitch": 62, "duration": 3, "velocity": 90}, {"time": 3431, "pitch": 55, "duration": 7, "velocity": 90}, {"time": 3431, "pitch": 59, "duration": 7, "velocity": 93}, {"time": 3431, "pitch": 62, "duration": 7, "velocity": 93}, {"time": 3437, "pitch": 50, "duration": 15, "velocity": 59}, {"time": 3443, "pitch": 55, "duration": 2, "velocity": 72}, {"time": 3449, "pitch": 55, "duration": 2, "velocity": 93}, {"time": 3449, "pitch": 59, "duration": 3, "velocity": 102}, {"time": 3449, "pitch": 62, "duration": 3, "velocity": 95}, {"time": 3461, "pitch": 45, "duration": 19, "velocity": 80}, {"time": 3461, "pitch": 57, "duration": 7, "velocity": 74}, {"time": 3461, "pitch": 60, "duration": 7, "velocity": 83}, {"time": 3467, "pitch": 52, "duration": 13, "velocity": 47}, {"time": 3473, "pitch": 57, "duration": 3, "velocity": 93}, {"time": 3473, "pitch": 60, "duration": 4, "velocity": 95}, {"time": 3473, "pitch": 64, "duration": 8, "velocity": 102}, {"time": 3479, "pitch": 57, "duration": 2, "velocity": 71}, {"time": 3479, "pitch": 60, "duration": 1, "velocity": 15}, {"time": 3485, "pitch": 47, "duration": 8, "velocity": 80}, {"time": 3485, "pitch": 59, "duration": 6, "velocity": 83}, {"time": 3485, "pitch": 62, "duration": 5, "velocity": 102}, {"time": 3497, "pitch": 45, "duration": 7, "velocity": 80}, {"time": 3497, "pitch": 57, "duration": 4, "velocity": 83}, {"time": 3497, "pitch": 60, "duration": 5, "velocity": 87}, {"time": 3509, "pitch": 47, "duration": 19, "velocity": 90}, {"time": 3509, "pitch": 59, "duration": 8, "velocity": 80}, {"time": 3509, "pitch": 62, "duration": 9, "velocity": 87}, {"time": 3521, "pitch": 59, "duration": 2, "velocity": 80}, {"time": 3521, "pitch": 62, "duration": 3, "velocity": 90}, {"time": 3521, "pitch": 66, "duration": 7, "velocity": 87}, {"time": 3527, "pitch": 59, "duration": 3, "velocity": 80}, {"time": 3527, "pitch": 62, "duration": 2, "velocity": 44}, {"time": 3533, "pitch": 52, "duration": 22, "velocity": 85}, {"time": 3533, "pitch": 59, "duration": 3, "velocity": 69}, {"time": 3533, "pitch": 64, "duration": 7, "velocity": 80}, {"time": 3539, "pitch": 59, "duration": 2, "velocity": 74}, {"time": 3545, "pitch": 59, "duration": 2, "velocity": 87}, {"time": 3545, "pitch": 64, "duration": 8, "velocity": 102}, {"time": 3545, "pitch": 67, "duration": 7, "velocity": 87}, {"time": 3551, "pitch": 59, "duration": 3, "velocity": 66}, {"time": 3557, "pitch": 52, "duration": 42, "velocity": 102}, {"time": 3557, "pitch": 59, "duration": 8, "velocity": 74}, {"time": 3557, "pitch": 67, "duration": 7, "velocity": 83}, {"time": 3569, "pitch": 59, "duration": 3, "velocity": 80}, {"time": 3569, "pitch": 64, "duration": 2, "velocity": 95}, {"time": 3578, "pitch": 59, "duration": 2, "velocity": 66}, {"time": 3578, "pitch": 64, "duration": 2, "velocity": 74}, {"time": 3587, "pitch": 59, "duration": 2, "velocity": 80}, {"time": 3587, "pitch": 64, "duration": 2, "velocity": 90}, {"time": 3587, "pitch": 67, "duration": 3, "velocity": 93}, {"time": 3599, "pitch": 59, "duration": 2, "velocity": 72}, {"time": 3599, "pitch": 64, "duration": 1, "velocity": 80}, {"time": 3599, "pitch": 67, "duration": 2, "velocity": 74}, {"time": 3605, "pitch": 50, "duration": 16, "velocity": 80}, {"time": 3605, "pitch": 57, "duration": 8, "velocity": 74}, {"time": 3605, "pitch": 62, "duration": 8, "velocity": 85}, {"time": 3617, "pitch": 57, "duration": 3, "velocity": 95}, {"time": 3617, "pitch": 62, "duration": 3, "velocity": 102}, {"time": 3626, "pitch": 57, "duration": 2, "velocity": 80}, {"time": 3626, "pitch": 62, "duration": 2, "velocity": 87}, {"time": 3629, "pitch": 52, "duration": 20, "velocity": 87}, {"time": 3635, "pitch": 59, "duration": 4, "velocity": 80}, {"time": 3635, "pitch": 64, "duration": 5, "velocity": 93}, {"time": 3647, "pitch": 59, "duration": 2, "velocity": 72}, {"time": 3647, "pitch": 67, "duration": 3, "velocity": 90}, {"time": 3653, "pitch": 52, "duration": 21, "velocity": 83}, {"time": 3653, "pitch": 59, "duration": 8, "velocity": 85}, {"time": 3653, "pitch": 64, "duration": 8, "velocity": 102}, {"time": 3665, "pitch": 59, "duration": 4, "velocity": 80}, {"time": 3665, "pitch": 64, "duration": 5, "velocity": 102}, {"time": 3674, "pitch": 59, "duration": 2, "velocity": 68}, {"time": 3674, "pitch": 64, "duration": 1, "velocity": 70}, {"time": 3677, "pitch": 45, "duration": 17, "velocity": 85}, {"time": 3677, "pitch": 64, "duration": 3, "velocity": 80}, {"time": 3677, "pitch": 69, "duration": 3, "velocity": 87}, {"time": 3683, "pitch": 64, "duration": 4, "velocity": 83}, {"time": 3683, "pitch": 69, "duration": 4, "velocity": 93}, {"time": 3695, "pitch": 64, "duration": 2, "velocity": 72}, {"time": 3695, "pitch": 69, "duration": 2, "velocity": 83}, {"time": 3695, "pitch": 72, "duration": 2, "velocity": 80}, {"time": 3701, "pitch": 52, "duration": 16, "velocity": 85}, {"time": 3701, "pitch": 64, "duration": 8, "velocity": 74}, {"time": 3701, "pitch": 67, "duration": 8, "velocity": 80}, {"time": 3713, "pitch": 64, "duration": 3, "velocity": 93}, {"time": 3713, "pitch": 67, "duration": 3, "velocity": 103}, {"time": 3722, "pitch": 64, "duration": 3, "velocity": 70}, {"time": 3722, "pitch": 67, "duration": 3, "velocity": 71}, {"time": 3725, "pitch": 45, "duration": 21, "velocity": 87}, {"time": 3731, "pitch": 64, "duration": 3, "velocity": 80}, {"time": 3731, "pitch": 69, "duration": 3, "velocity": 87}, {"time": 3743, "pitch": 64, "duration": 3, "velocity": 87}, {"time": 3743, "pitch": 69, "duration": 3, "velocity": 102}, {"time": 3749, "pitch": 52, "duration": 34, "velocity": 87}, {"time": 3749, "pitch": 59, "duration": 8, "velocity": 70}, {"time": 3749, "pitch": 64, "duration": 7, "velocity": 83}, {"time": 3749, "pitch": 67, "duration": 8, "velocity": 80}, {"time": 3761, "pitch": 59, "duration": 4, "velocity": 83}, {"time": 3761, "pitch": 64, "duration": 4, "velocity": 102}, {"time": 3761, "pitch": 67, "duration": 4, "velocity": 95}, {"time": 3770, "pitch": 59, "duration": 2, "velocity": 59}, {"time": 3770, "pitch": 64, "duration": 2, "velocity": 74}, {"time": 3770, "pitch": 67, "duration": 3, "velocity": 69}, {"time": 3779, "pitch": 59, "duration": 4, "velocity": 70}, {"time": 3779, "pitch": 64, "duration": 3, "velocity": 80}, {"time": 3779, "pitch": 67, "duration": 4, "velocity": 80}, {"time": 3791, "pitch": 59, "duration": 2, "velocity": 58}, {"time": 3791, "pitch": 64, "duration": 2, "velocity": 68}, {"time": 3797, "pitch": 47, "duration": 14, "velocity": 71}, {"time": 3797, "pitch": 59, "duration": 8, "velocity": 87}, {"time": 3797, "pitch": 62, "duration": 8, "velocity": 95}, {"time": 3809, "pitch": 59, "duration": 4, "velocity": 87}, {"time": 3809, "pitch": 62, "duration": 2, "velocity": 103}, {"time": 3809, "pitch": 66, "duration": 4, "velocity": 93}, {"time": 3818, "pitch": 59, "duration": 3, "velocity": 74}, {"time": 3818, "pitch": 62, "duration": 2, "velocity": 90}, {"time": 3821, "pitch": 52, "duration": 19, "velocity": 93}, {"time": 3827, "pitch": 59, "duration": 5, "velocity": 80}, {"time": 3827, "pitch": 64, "duration": 6, "velocity": 90}, {"time": 3839, "pitch": 59, "duration": 2, "velocity": 74}, {"time": 3839, "pitch": 64, "duration": 2, "velocity": 80}, {"time": 3839, "pitch": 67, "duration": 2, "velocity": 74}, {"time": 3845, "pitch": 45, "duration": 21, "velocity": 80}, {"time": 3845, "pitch": 57, "duration": 9, "velocity": 69}, {"time": 3845, "pitch": 60, "duration": 9, "velocity": 74}, {"time": 3857, "pitch": 57, "duration": 5, "velocity": 93}, {"time": 3857, "pitch": 60, "duration": 6, "velocity": 102}, {"time": 3866, "pitch": 57, "duration": 1, "velocity": 74}, {"time": 3866, "pitch": 60, "duration": 2, "velocity": 93}, {"time": 3869, "pitch": 47, "duration": 10, "velocity": 80}, {"time": 3869, "pitch": 59, "duration": 7, "velocity": 72}, {"time": 3869, "pitch": 62, "duration": 7, "velocity": 95}, {"time": 3881, "pitch": 45, "duration": 8, "velocity": 90}, {"time": 3881, "pitch": 57, "duration": 7, "velocity": 87}, {"time": 3881, "pitch": 60, "duration": 7, "velocity": 83}, {"time": 3893, "pitch": 47, "duration": 17, "velocity": 72}, {"time": 3893, "pitch": 59, "duration": 8, "velocity": 66}, {"time": 3893, "pitch": 62, "duration": 8, "velocity": 80}, {"time": 3893, "pitch": 66, "duration": 8, "velocity": 65}, {"time": 3905, "pitch": 59, "duration": 4, "velocity": 83}, {"time": 3905, "pitch": 62, "duration": 3, "velocity": 102}, {"time": 3905, "pitch": 66, "duration": 4, "velocity": 93}, {"time": 3914, "pitch": 59, "duration": 3, "velocity": 69}, {"time": 3914, "pitch": 62, "duration": 3, "velocity": 87}, {"time": 3914, "pitch": 66, "duration": 2, "velocity": 65}, {"time": 3917, "pitch": 52, "duration": 21, "velocity": 87}, {"time": 3923, "pitch": 59, "duration": 8, "velocity": 69}, {"time": 3923, "pitch": 64, "duration": 8, "velocity": 80}, {"time": 3923, "pitch": 67, "duration": 8, "velocity": 74}, {"time": 3935, "pitch": 59, "duration": 3, "velocity": 71}, {"time": 3935, "pitch": 64, "duration": 3, "velocity": 87}, {"time": 3935, "pitch": 67, "duration": 3, "velocity": 80}, {"time": 3941, "pitch": 52, "duration": 1, "velocity": 102}, {"time": 3941, "pitch": 59, "duration": 1, "velocity": 74}, {"time": 3941, "pitch": 67, "duration": 1, "velocity": 83}, {"time": 3953, "pitch": 59, "duration": 3, "velocity": 80}, {"time": 3953, "pitch": 64, "duration": 2, "velocity": 95}, {"time": 3962, "pitch": 59, "duration": 2, "velocity": 66}, {"time": 3962, "pitch": 64, "duration": 2, "velocity": 74}, {"time": 3971, "pitch": 59, "duration": 2, "velocity": 80}, {"time": 3971, "pitch": 64, "duration": 2, "velocity": 90}, {"time": 3971, "pitch": 67, "duration": 3, "velocity": 93}, {"time": 3983, "pitch": 59, "duration": 2, "velocity": 72}, {"time": 3983, "pitch": 64, "duration": 1, "velocity": 80}, {"time": 3983, "pitch": 67, "duration": 2, "velocity": 74}, {"time": 3989, "pitch": 50, "duration": 16, "velocity": 80}, {"time": 3989, "pitch": 57, "duration": 8, "velocity": 74}, {"time": 3989, "pitch": 62, "duration": 8, "velocity": 85}, {"time": 4001, "pitch": 57, "duration": 3, "velocity": 95}, {"time": 4001, "pitch": 62, "duration": 3, "velocity": 102}, {"time": 4010, "pitch": 57, "duration": 2, "velocity": 80}, {"time": 4010, "pitch": 62, "duration": 2, "velocity": 87}, {"time": 4013, "pitch": 52, "duration": 20, "velocity": 87}, {"time": 4019, "pitch": 59, "duration": 4, "velocity": 80}, {"time": 4019, "pitch": 64, "duration": 5, "velocity": 93}, {"time": 4031, "pitch": 59, "duration": 2, "velocity": 72}, {"time": 4031, "pitch": 67, "duration": 3, "velocity": 90}, {"time": 4037, "pitch": 52, "duration": 21, "velocity": 83}, {"time": 4037, "pitch": 59, "duration": 8, "velocity": 85}, {"time": 4037, "pitch": 64, "duration": 8, "velocity": 102}, {"time": 4049, "pitch": 59, "duration": 4, "velocity": 80}, {"time": 4049, "pitch": 64, "duration": 5, "velocity": 102}, {"time": 4058, "pitch": 59, "duration": 2, "velocity": 68}, {"time": 4058, "pitch": 64, "duration": 1, "velocity": 70}, {"time": 4061, "pitch": 45, "duration": 17, "velocity": 85}, {"time": 4061, "pitch": 64, "duration": 3, "velocity": 80}, {"time": 4061, "pitch": 69, "duration": 3, "velocity": 87}, {"time": 4067, "pitch": 64, "duration": 4, "velocity": 83}, {"time": 4067, "pitch": 69, "duration": 4, "velocity": 93}, {"time": 4079, "pitch": 64, "duration": 2, "velocity": 72}, {"time": 4079, "pitch": 69, "duration": 2, "velocity": 83}, {"time": 4079, "pitch": 72, "duration": 2, "velocity": 80}, {"time": 4085, "pitch": 52, "duration": 16, "velocity": 85}, {"time": 4085, "pitch": 64, "duration": 8, "velocity": 74}, {"time": 4085, "pitch": 67, "duration": 8, "velocity": 80}, {"time": 4097, "pitch": 64, "duration": 3, "velocity": 93}, {"time": 4097, "pitch": 67, "duration": 3, "velocity": 103}, {"time": 4106, "pitch": 64, "duration": 3, "velocity": 70}, {"time": 4106, "pitch": 67, "duration": 3, "velocity": 71}, {"time": 4109, "pitch": 45, "duration": 21, "velocity": 87}, {"time": 4115, "pitch": 64, "duration": 3, "velocity": 80}, {"time": 4115, "pitch": 69, "duration": 3, "velocity": 87}, {"time": 4127, "pitch": 64, "duration": 3, "velocity": 87}, {"time": 4127, "pitch": 69, "duration": 3, "velocity": 102}, {"time": 4133, "pitch": 52, "duration": 34, "velocity": 87}, {"time": 4133, "pitch": 59, "duration": 8, "velocity": 70}, {"time": 4133, "pitch": 64, "duration": 7, "velocity": 83}, {"time": 4133, "pitch": 67, "duration": 8, "velocity": 80}, {"time": 4145, "pitch": 59, "duration": 4, "velocity": 83}, {"time": 4145, "pitch": 64, "duration": 4, "velocity": 102}, {"time": 4145, "pitch": 67, "duration": 4, "velocity": 95}, {"time": 4154, "pitch": 59, "duration": 2, "velocity": 59}, {"time": 4154, "pitch": 64, "duration": 2, "velocity": 74}, {"time": 4154, "pitch": 67, "duration": 3, "velocity": 69}, {"time": 4163, "pitch": 59, "duration": 4, "velocity": 70}, {"time": 4163, "pitch": 64, "duration": 3, "velocity": 80}, {"time": 4163, "pitch": 67, "duration": 4, "velocity": 80}, {"time": 4175, "pitch": 59, "duration": 2, "velocity": 58}, {"time": 4175, "pitch": 64, "duration": 2, "velocity": 68}, {"time": 4181, "pitch": 47, "duration": 14, "velocity": 71}, {"time": 4181, "pitch": 59, "duration": 8, "velocity": 87}, {"time": 4181, "pitch": 62, "duration": 8, "velocity": 95}, {"time": 4193, "pitch": 59, "duration": 4, "velocity": 87}, {"time": 4193, "pitch": 62, "duration": 2, "velocity": 103}, {"time": 4193, "pitch": 66, "duration": 4, "velocity": 93}, {"time": 4202, "pitch": 59, "duration": 3, "velocity": 74}, {"time": 4202, "pitch": 62, "duration": 2, "velocity": 90}, {"time": 4205, "pitch": 52, "duration": 19, "velocity": 93}, {"time": 4211, "pitch": 59, "duration": 5, "velocity": 80}, {"time": 4211, "pitch": 64, "duration": 6, "velocity": 90}, {"time": 4223, "pitch": 59, "duration": 2, "velocity": 74}, {"time": 4223, "pitch": 64, "duration": 2, "velocity": 80}, {"time": 4223, "pitch": 67, "duration": 2, "velocity": 74}, {"time": 4229, "pitch": 45, "duration": 21, "velocity": 80}, {"time": 4229, "pitch": 57, "duration": 9, "velocity": 69}, {"time": 4229, "pitch": 60, "duration": 9, "velocity": 74}, {"time": 4241, "pitch": 57, "duration": 5, "velocity": 93}, {"time": 4241, "pitch": 60, "duration": 6, "velocity": 102}, {"time": 4250, "pitch": 57, "duration": 1, "velocity": 74}, {"time": 4250, "pitch": 60, "duration": 2, "velocity": 93}, {"time": 4253, "pitch": 47, "duration": 10, "velocity": 80}, {"time": 4253, "pitch": 59, "duration": 7, "velocity": 72}, {"time": 4253, "pitch": 62, "duration": 7, "velocity": 95}, {"time": 4265, "pitch": 45, "duration": 8, "velocity": 90}, {"time": 4265, "pitch": 57, "duration": 7, "velocity": 87}, {"time": 4265, "pitch": 60, "duration": 7, "velocity": 83}, {"time": 4277, "pitch": 47, "duration": 17, "velocity": 72}, {"time": 4277, "pitch": 59, "duration": 8, "velocity": 66}, {"time": 4277, "pitch": 62, "duration": 8, "velocity": 80}, {"time": 4277, "pitch": 66, "duration": 8, "velocity": 65}, {"time": 4289, "pitch": 59, "duration": 4, "velocity": 83}, {"time": 4289, "pitch": 62, "duration": 3, "velocity": 102}, {"time": 4289, "pitch": 66, "duration": 4, "velocity": 93}, {"time": 4298, "pitch": 59, "duration": 3, "velocity": 69}, {"time": 4298, "pitch": 62, "duration": 3, "velocity": 87}, {"time": 4298, "pitch": 66, "duration": 2, "velocity": 65}, {"time": 4301, "pitch": 52, "duration": 21, "velocity": 87}, {"time": 4307, "pitch": 59, "duration": 8, "velocity": 69}, {"time": 4307, "pitch": 64, "duration": 8, "velocity": 80}, {"time": 4307, "pitch": 67, "duration": 8, "velocity": 74}, {"time": 4319, "pitch": 59, "duration": 3, "velocity": 71}, {"time": 4319, "pitch": 64, "duration": 3, "velocity": 87}, {"time": 4319, "pitch": 67, "duration": 3, "velocity": 80}, {"time": 4325, "pitch": 45, "duration": 21, "velocity": 80}, {"time": 4325, "pitch": 57, "duration": 9, "velocity": 69}, {"time": 4325, "pitch": 60, "duration": 9, "velocity": 74}, {"time": 4337, "pitch": 57, "duration": 5, "velocity": 93}, {"time": 4337, "pitch": 60, "duration": 6, "velocity": 102}, {"time": 4346, "pitch": 57, "duration": 1, "velocity": 74}, {"time": 4346, "pitch": 60, "duration": 2, "velocity": 93}, {"time": 4349, "pitch": 47, "duration": 10, "velocity": 80}, {"time": 4349, "pitch": 59, "duration": 7, "velocity": 72}, {"time": 4349, "pitch": 62, "duration": 7, "velocity": 95}, {"time": 4361, "pitch": 45, "duration": 8, "velocity": 90}, {"time": 4361, "pitch": 57, "duration": 7, "velocity": 87}, {"time": 4361, "pitch": 60, "duration": 7, "velocity": 83}, {"time": 4373, "pitch": 47, "duration": 17, "velocity": 72}, {"time": 4373, "pitch": 59, "duration": 8, "velocity": 66}, {"time": 4373, "pitch": 62, "duration": 8, "velocity": 80}, {"time": 4373, "pitch": 66, "duration": 8, "velocity": 65}, {"time": 4385, "pitch": 59, "duration": 4, "velocity": 83}, {"time": 4385, "pitch": 62, "duration": 3, "velocity": 102}, {"time": 4385, "pitch": 66, "duration": 4, "velocity": 93}, {"time": 4394, "pitch": 59, "duration": 3, "velocity": 69}, {"time": 4394, "pitch": 62, "duration": 3, "velocity": 87}, {"time": 4394, "pitch": 66, "duration": 2, "velocity": 65}, {"time": 4397, "pitch": 52, "duration": 21, "velocity": 87}, {"time": 4403, "pitch": 59, "duration": 8, "velocity": 69}, {"time": 4403, "pitch": 64, "duration": 8, "velocity": 80}, {"time": 4403, "pitch": 67, "duration": 8, "velocity": 74}, {"time": 4415, "pitch": 59, "duration": 3, "velocity": 71}, {"time": 4415, "pitch": 64, "duration": 3, "velocity": 87}, {"time": 4415, "pitch": 67, "duration": 3, "velocity": 80}, {"time": 4421, "pitch": 40, "duration": 24, "velocity": 90}, {"time": 4421, "pitch": 59, "duration": 9, "velocity": 71}, {"time": 4421, "pitch": 64, "duration": 9, "velocity": 87}, {"time": 4433, "pitch": 59, "duration": 3, "velocity": 83}, {"time": 4433, "pitch": 64, "duration": 3, "velocity": 102}, {"time": 4433, "pitch": 67, "duration": 5, "velocity": 93}, {"time": 4445, "pitch": 50, "duration": 37, "velocity": 87}, {"time": 4445, "pitch": 62, "duration": 7, "velocity": 80}, {"time": 4445, "pitch": 66, "duration": 6, "velocity": 72}, {"time": 4445, "pitch": 69, "duration": 6, "velocity": 95}, {"time": 4457, "pitch": 62, "duration": 3, "velocity": 87}, {"time": 4457, "pitch": 66, "duration": 3, "velocity": 70}, {"time": 4457, "pitch": 74, "duration": 4, "velocity": 93}, {"time": 4469, "pitch": 57, "duration": 14, "velocity": 41}, {"time": 4475, "pitch": 62, "duration": 2, "velocity": 87}, {"time": 4475, "pitch": 66, "duration": 2, "velocity": 80}, {"time": 4475, "pitch": 69, "duration": 3, "velocity": 93}, {"time": 4481, "pitch": 62, "duration": 2, "velocity": 87}, {"time": 4481, "pitch": 66, "duration": 2, "velocity": 72}, {"time": 4481, "pitch": 69, "duration": 2, "velocity": 87}, {"time": 4493, "pitch": 50, "duration": 45, "velocity": 87}, {"time": 4493, "pitch": 62, "duration": 9, "velocity": 71}, {"time": 4493, "pitch": 69, "duration": 9, "velocity": 87}, {"time": 4505, "pitch": 62, "duration": 2, "velocity": 102}, {"time": 4505, "pitch": 69, "duration": 2, "velocity": 95}, {"time": 4511, "pitch": 57, "duration": 27, "velocity": 68}, {"time": 4523, "pitch": 62, "duration": 2, "velocity": 74}, {"time": 4523, "pitch": 74, "duration": 3, "velocity": 93}, {"time": 4535, "pitch": 62, "duration": 2, "velocity": 87}, {"time": 4541, "pitch": 50, "duration": 44, "velocity": 93}, {"time": 4541, "pitch": 62, "duration": 8, "velocity": 80}, {"time": 4541, "pitch": 69, "duration": 8, "velocity": 93}, {"time": 4553, "pitch": 62, "duration": 3, "velocity": 90}, {"time": 4553, "pitch": 66, "duration": 2, "velocity": 80}, {"time": 4553, "pitch": 69, "duration": 4, "velocity": 102}, {"time": 4565, "pitch": 57, "duration": 19, "velocity": 61}, {"time": 4571, "pitch": 62, "duration": 2, "velocity": 72}, {"time": 4571, "pitch": 66, "duration": 2, "velocity": 63}, {"time": 4571, "pitch": 69, "duration": 2, "velocity": 93}, {"time": 4577, "pitch": 62, "duration": 2, "velocity": 80}, {"time": 4577, "pitch": 66, "duration": 2, "velocity": 74}, {"time": 4577, "pitch": 69, "duration": 2, "velocity": 93}, {"time": 4583, "pitch": 62, "duration": 1, "velocity": 37}, {"time": 4589, "pitch": 43, "duration": 5, "velocity": 95}, {"time": 4589, "pitch": 55, "duration": 4, "velocity": 70}, {"time": 4595, "pitch": 47, "duration": 2, "velocity": 70}, {"time": 4595, "pitch": 59, "duration": 2, "velocity": 87}, {"time": 4601, "pitch": 50, "duration": 2, "velocity": 93}, {"time": 4601, "pitch": 62, "duration": 3, "velocity": 90}, {"time": 4607, "pitch": 52, "duration": 18, "velocity": 95}, {"time": 4607, "pitch": 64, "duration": 13, "velocity": 95}], "annotations": [{"time": 12, "annotation": {"number": 64, "value": 127}, "group": "control_change"}, {"time": 51, "annotation": {"number": 64, "value": 0}, "group": "control_change"}, {"time": 54, "annotation": {"number": 64, "value": 127}, "group": "control_change"}, {"time": 97, "annotation": {"number": 64, "value": 0}, "group": "control_change"}, {"time": 104, "annotation": {"number": 64, "value": 127}, "group": "control_change"}, {"time": 146, "annotation": {"number": 64, "value": 0}, "group": "control_change"}, {"time": 153, "annotation": {"number": 64, "value": 127}, "group": "control_change"}, {"time": 196, "annotation": {"number": 64, "value": 0}, "group": "control_change"}, {"time": 199, "annotation": {"number": 64, "value": 127}, "group": "control_change"}, {"time": 243, "annotation": {"number": 64, "value": 0}, "group": "control_change"}, {"time": 276, "annotation": {"number": 64, "value": 127}, "group": "control_change"}, {"time": 293, "annotation": {"number": 64, "value": 0}, "group": "control_change"}, {"time": 296, "annotation": {"number": 64, "value": 127}, "group": "control_change"}, {"time": 338, "annotation": {"number": 64, "value": 0}, "group": "control_change"}, {"time": 345, "annotation": {"number": 64, "value": 127}, "group": "control_change"}, {"time": 388, "annotation": {"number": 64, "value": 0}, "group": "control_change"}, {"time": 391, "annotation": {"number": 64, "value": 127}, "group": "control_change"}, {"time": 435, "annotation": {"number": 64, "value": 0}, "group": "control_change"}, {"time": 468, "annotation": {"number": 64, "value": 127}, "group": "control_change"}, {"time": 485, "annotation": {"number": 64, "value": 0}, "group": "control_change"}, {"time": 485, "annotation": {"number": 64, "value": 127}, "group": "control_change"}, {"time": 531, "annotation": {"number": 64, "value": 0}, "group": "control_change"}, {"time": 534, "annotation": {"number": 64, "value": 127}, "group": "control_change"}, {"time": 556, "annotation": {"number": 64, "value": 0}, "group": "control_change"}, {"time": 559, "annotation": {"number": 64, "value": 127}, "group": "control_change"}, {"time": 579, "annotation": {"number": 64, "value": 0}, "group": "control_change"}, {"time": 582, "annotation": {"number": 64, "value": 127}, "group": "control_change"}, {"time": 606, "annotation": {"number": 64, "value": 127}, "group": "control_change"}, {"time": 629, "annotation": {"number": 64, "value": 0}, "group": "control_change"}, {"time": 632, "annotation": {"number": 64, "value": 127}, "group": "control_change"}, {"time": 652, "annotation": {"number": 64, "value": 0}, "group": "control_change"}, {"time": 655, "annotation": {"number": 64, "value": 127}, "group": "control_change"}, {"time": 675, "annotation": {"number": 64, "value": 0}, "group": "control_change"}, {"time": 678, "annotation": {"number": 64, "value": 127}, "group": "control_change"}, {"time": 723, "annotation": {"number": 64, "value": 0}, "group": "control_change"}, {"time": 726, "annotation": {"number": 64, "value": 127}, "group": "control_change"}, {"time": 748, "annotation": {"number": 64, "value": 0}, "group": "control_change"}, {"time": 751, "annotation": {"number": 64, "value": 127}, "group": "control_change"}, {"time": 773, "annotation": {"number": 64, "value": 0}, "group": "control_change"}, {"time": 775, "annotation": {"number": 64, "value": 127}, "group": "control_change"}, {"time": 797, "annotation": {"number": 64, "value": 0}, "group": "control_change"}, {"time": 800, "annotation": {"number": 64, "value": 127}, "group": "control_change"}, {"time": 810, "annotation": {"number": 64, "value": 0}, "group": "control_change"}, {"time": 823, "annotation": {"number": 64, "value": 127}, "group": "control_change"}, {"time": 843, "annotation": {"number": 64, "value": 0}, "group": "control_change"}, {"time": 853, "annotation": {"number": 64, "value": 127}, "group": "control_change"}, {"time": 868, "annotation": {"number": 64, "value": 0}, "group": "control_change"}, {"time": 869, "annotation": {"number": 64, "value": 127}, "group": "control_change"}, {"time": 915, "annotation": {"number": 64, "value": 0}, "group": "control_change"}, {"time": 918, "annotation": {"number": 64, "value": 127}, "group": "control_change"}, {"time": 940, "annotation": {"number": 64, "value": 0}, "group": "control_change"}, {"time": 943, "annotation": {"number": 64, "value": 127}, "group": "control_change"}, {"time": 963, "annotation": {"number": 64, "value": 0}, "group": "control_change"}, {"time": 966, "annotation": {"number": 64, "value": 127}, "group": "control_change"}, {"time": 990, "annotation": {"number": 64, "value": 127}, "group": "control_change"}, {"time": 1013, "annotation": {"number": 64, "value": 0}, "group": "control_change"}, {"time": 1016, "annotation": {"number": 64, "value": 127}, "group": "control_change"}, {"time": 1036, "annotation": {"number": 64, "value": 0}, "group": "control_change"}, {"time": 1039, "annotation": {"number": 64, "value": 127}, "group": "control_change"}, {"time": 1059, "annotation": {"number": 64, "value": 0}, "group": "control_change"}, {"time": 1062, "annotation": {"number": 64, "value": 127}, "group": "control_change"}, {"time": 1107, "annotation": {"number": 64, "value": 0}, "group": "control_change"}, {"time": 1110, "annotation": {"number": 64, "value": 127}, "group": "control_change"}, {"time": 1132, "annotation": {"number": 64, "value": 0}, "group": "control_change"}, {"time": 1135, "annotation": {"number": 64, "value": 127}, "group": "control_change"}, {"time": 1157, "annotation": {"number": 64, "value": 0}, "group": "control_change"}, {"time": 1159, "annotation": {"number": 64, "value": 127}, "group": "control_change"}, {"time": 1181, "annotation": {"number": 64, "value": 0}, "group": "control_change"}, {"time": 1184, "annotation": {"number": 64, "value": 127}, "group": "control_change"}, {"time": 1194, "annotation": {"number": 64, "value": 0}, "group": "control_change"}, {"time": 1207, "annotation": {"number": 64, "value": 127}, "group": "control_change"}, {"time": 1227, "annotation": {"number": 64, "value": 0}, "group": "control_change"}, {"time": 1237, "annotation": {"number": 64, "value": 127}, "group": "control_change"}, {"time": 1252, "annotation": {"number": 64, "value": 0}, "group": "control_change"}, {"time": 1254, "annotation": {"number": 64, "value": 127}, "group": "control_change"}, {"time": 1302, "annotation": {"number": 64, "value": 0}, "group": "control_change"}, {"time": 1306, "annotation": {"number": 64, "value": 127}, "group": "control_change"}, {"time": 1322, "annotation": {"number": 64, "value": 0}, "group": "control_change"}, {"time": 1326, "annotation": {"number": 64, "value": 127}, "group": "control_change"}, {"time": 1348, "annotation": {"number": 64, "value": 0}, "group": "control_change"}, {"time": 1357, "annotation": {"number": 64, "value": 127}, "group": "control_change"}, {"time": 1395, "annotation": {"number": 64, "value": 0}, "group": "control_change"}, {"time": 1398, "annotation": {"number": 64, "value": 127}, "group": "control_change"}, {"time": 1419, "annotation": {"number": 64, "value": 0}, "group": "control_change"}, {"time": 1421, "annotation": {"number": 64, "value": 127}, "group": "control_change"}, {"time": 1443, "annotation": {"number": 64, "value": 0}, "group": "control_change"}, {"time": 1445, "annotation": {"number": 64, "value": 127}, "group": "control_change"}, {"time": 1469, "annotation": {"number": 64, "value": 0}, "group": "control_change"}, {"time": 1470, "annotation": {"number": 64, "value": 127}, "group": "control_change"}, {"time": 1495, "annotation": {"number": 64, "value": 0}, "group": "control_change"}, {"time": 1496, "annotation": {"number": 64, "value": 127}, "group": "control_change"}, {"time": 1536, "annotation": {"number": 64, "value": 0}, "group": "control_change"}, {"time": 1544, "annotation": {"number": 64, "value": 127}, "group": "control_change"}, {"time": 1563, "annotation": {"number": 64, "value": 0}, "group": "control_change"}, {"time": 1565, "annotation": {"number": 64, "value": 127}, "group": "control_change"}, {"time": 1575, "annotation": {"number": 64, "value": 0}, "group": "control_change"}, {"time": 1591, "annotation": {"number": 64, "value": 127}, "group": "control_change"}, {"time": 1610, "annotation": {"number": 64, "value": 0}, "group": "control_change"}, {"time": 1614, "annotation": {"number": 64, "value": 127}, "group": "control_change"}, {"time": 1635, "annotation": {"number": 64, "value": 0}, "group": "control_change"}, {"time": 1638, "annotation": {"number": 64, "value": 127}, "group": "control_change"}, {"time": 1686, "annotation": {"number": 64, "value": 0}, "group": "control_change"}, {"time": 1690, "annotation": {"number": 64, "value": 127}, "group": "control_change"}, {"time": 1706, "annotation": {"number": 64, "value": 0}, "group": "control_change"}, {"time": 1710, "annotation": {"number": 64, "value": 127}, "group": "control_change"}, {"time": 1732, "annotation": {"number": 64, "value": 0}, "group": "control_change"}, {"time": 1741, "annotation": {"number": 64, "value": 127}, "group": "control_change"}, {"time": 1779, "annotation": {"number": 64, "value": 0}, "group": "control_change"}, {"time": 1782, "annotation": {"number": 64, "value": 127}, "group": "control_change"}, {"time": 1803, "annotation": {"number": 64, "value": 0}, "group": "control_change"}, {"time": 1805, "annotation": {"number": 64, "value": 127}, "group": "control_change"}, {"time": 1827, "annotation": {"number": 64, "value": 0}, "group": "control_change"}, {"time": 1829, "annotation": {"number": 64, "value": 127}, "group": "control_change"}, {"time": 1853, "annotation": {"number": 64, "value": 0}, "group": "control_change"}, {"time": 1854, "annotation": {"number": 64, "value": 127}, "group": "control_change"}, {"time": 1879, "annotation": {"number": 64, "value": 0}, "group": "control_change"}, {"time": 1880, "annotation": {"number": 64, "value": 127}, "group": "control_change"}, {"time": 1920, "annotation": {"number": 64, "value": 0}, "group": "control_change"}, {"time": 1928, "annotation": {"number": 64, "value": 127}, "group": "control_change"}, {"time": 1947, "annotation": {"number": 64, "value": 0}, "group": "control_change"}, {"time": 1949, "annotation": {"number": 64, "value": 127}, "group": "control_change"}, {"time": 1959, "annotation": {"number": 64, "value": 0}, "group": "control_change"}, {"time": 1975, "annotation": {"number": 64, "value": 127}, "group": "control_change"}, {"time": 1994, "annotation": {"number": 64, "value": 0}, "group": "control_change"}, {"time": 1998, "annotation": {"number": 64, "value": 127}, "group": "control_change"}, {"time": 2019, "annotation": {"number": 64, "value": 0}, "group": "control_change"}, {"time": 2021, "annotation": {"number": 64, "value": 127}, "group": "control_change"}, {"time": 2067, "annotation": {"number": 64, "value": 0}, "group": "control_change"}, {"time": 2070, "annotation": {"number": 64, "value": 127}, "group": "control_change"}, {"time": 2092, "annotation": {"number": 64, "value": 0}, "group": "control_change"}, {"time": 2095, "annotation": {"number": 64, "value": 127}, "group": "control_change"}, {"time": 2115, "annotation": {"number": 64, "value": 0}, "group": "control_change"}, {"time": 2118, "annotation": {"number": 64, "value": 127}, "group": "control_change"}, {"time": 2142, "annotation": {"number": 64, "value": 127}, "group": "control_change"}, {"time": 2165, "annotation": {"number": 64, "value": 0}, "group": "control_change"}, {"time": 2168, "annotation": {"number": 64, "value": 127}, "group": "control_change"}, {"time": 2188, "annotation": {"number": 64, "value": 0}, "group": "control_change"}, {"time": 2191, "annotation": {"number": 64, "value": 127}, "group": "control_change"}, {"time": 2211, "annotation": {"number": 64, "value": 0}, "group": "control_change"}, {"time": 2214, "annotation": {"number": 64, "value": 127}, "group": "control_change"}, {"time": 2259, "annotation": {"number": 64, "value": 0}, "group": "control_change"}, {"time": 2262, "annotation": {"number": 64, "value": 127}, "group": "control_change"}, {"time": 2284, "annotation": {"number": 64, "value": 0}, "group": "control_change"}, {"time": 2287, "annotation": {"number": 64, "value": 127}, "group": "control_change"}, {"time": 2309, "annotation": {"number": 64, "value": 0}, "group": "control_change"}, {"time": 2311, "annotation": {"number": 64, "value": 127}, "group": "control_change"}, {"time": 2333, "annotation": {"number": 64, "value": 0}, "group": "control_change"}, {"time": 2336, "annotation": {"number": 64, "value": 127}, "group": "control_change"}, {"time": 2346, "annotation": {"number": 64, "value": 0}, "group": "control_change"}, {"time": 2359, "annotation": {"number": 64, "value": 127}, "group": "control_change"}, {"time": 2379, "annotation": {"number": 64, "value": 0}, "group": "control_change"}, {"time": 2389, "annotation": {"number": 64, "value": 127}, "group": "control_change"}, {"time": 2404, "annotation": {"number": 64, "value": 0}, "group": "control_change"}, {"time": 2405, "annotation": {"number": 64, "value": 127}, "group": "control_change"}, {"time": 2451, "annotation": {"number": 64, "value": 0}, "group": "control_change"}, {"time": 2454, "annotation": {"number": 64, "value": 127}, "group": "control_change"}, {"time": 2476, "annotation": {"number": 64, "value": 0}, "group": "control_change"}, {"time": 2479, "annotation": {"number": 64, "value": 127}, "group": "control_change"}, {"time": 2499, "annotation": {"number": 64, "value": 0}, "group": "control_change"}, {"time": 2502, "annotation": {"number": 64, "value": 127}, "group": "control_change"}, {"time": 2526, "annotation": {"number": 64, "value": 127}, "group": "control_change"}, {"time": 2549, "annotation": {"number": 64, "value": 0}, "group": "control_change"}, {"time": 2552, "annotation": {"number": 64, "value": 127}, "group": "control_change"}, {"time": 2572, "annotation": {"number": 64, "value": 0}, "group": "control_change"}, {"time": 2575, "annotation": {"number": 64, "value": 127}, "group": "control_change"}, {"time": 2595, "annotation": {"number": 64, "value": 0}, "group": "control_change"}, {"time": 2598, "annotation": {"number": 64, "value": 127}, "group": "control_change"}, {"time": 2643, "annotation": {"number": 64, "value": 0}, "group": "control_change"}, {"time": 2646, "annotation": {"number": 64, "value": 127}, "group": "control_change"}, {"time": 2668, "annotation": {"number": 64, "value": 0}, "group": "control_change"}, {"time": 2671, "annotation": {"number": 64, "value": 127}, "group": "control_change"}, {"time": 2693, "annotation": {"number": 64, "value": 0}, "group": "control_change"}, {"time": 2695, "annotation": {"number": 64, "value": 127}, "group": "control_change"}, {"time": 2717, "annotation": {"number": 64, "value": 0}, "group": "control_change"}, {"time": 2720, "annotation": {"number": 64, "value": 127}, "group": "control_change"}, {"time": 2730, "annotation": {"number": 64, "value": 0}, "group": "control_change"}, {"time": 2743, "annotation": {"number": 64, "value": 127}, "group": "control_change"}, {"time": 2763, "annotation": {"number": 64, "value": 0}, "group": "control_change"}, {"time": 2773, "annotation": {"number": 64, "value": 127}, "group": "control_change"}, {"time": 2788, "annotation": {"number": 64, "value": 0}, "group": "control_change"}, {"time": 2800, "annotation": {"number": 64, "value": 127}, "group": "control_change"}, {"time": 2835, "annotation": {"number": 64, "value": 0}, "group": "control_change"}, {"time": 2838, "annotation": {"number": 64, "value": 127}, "group": "control_change"}, {"time": 2881, "annotation": {"number": 64, "value": 0}, "group": "control_change"}, {"time": 2884, "annotation": {"number": 64, "value": 127}, "group": "control_change"}, {"time": 2930, "annotation": {"number": 64, "value": 0}, "group": "control_change"}, {"time": 2932, "annotation": {"number": 64, "value": 127}, "group": "control_change"}, {"time": 2979, "annotation": {"number": 64, "value": 0}, "group": "control_change"}, {"time": 2992, "annotation": {"number": 64, "value": 127}, "group": "control_change"}, {"time": 3027, "annotation": {"number": 64, "value": 0}, "group": "control_change"}, {"time": 3030, "annotation": {"number": 64, "value": 127}, "group": "control_change"}, {"time": 3073, "annotation": {"number": 64, "value": 0}, "group": "control_change"}, {"time": 3076, "annotation": {"number": 64, "value": 127}, "group": "control_change"}, {"time": 3122, "annotation": {"number": 64, "value": 0}, "group": "control_change"}, {"time": 3124, "annotation": {"number": 64, "value": 127}, "group": "control_change"}, {"time": 3171, "annotation": {"number": 64, "value": 0}, "group": "control_change"}, {"time": 3174, "annotation": {"number": 64, "value": 127}, "group": "control_change"}, {"time": 3222, "annotation": {"number": 64, "value": 0}, "group": "control_change"}, {"time": 3226, "annotation": {"number": 64, "value": 127}, "group": "control_change"}, {"time": 3242, "annotation": {"number": 64, "value": 0}, "group": "control_change"}, {"time": 3246, "annotation": {"number": 64, "value": 127}, "group": "control_change"}, {"time": 3268, "annotation": {"number": 64, "value": 0}, "group": "control_change"}, {"time": 3277, "annotation": {"number": 64, "value": 127}, "group": "control_change"}, {"time": 3315, "annotation": {"number": 64, "value": 0}, "group": "control_change"}, {"time": 3318, "annotation": {"number": 64, "value": 127}, "group": "control_change"}, {"time": 3339, "annotation": {"number": 64, "value": 0}, "group": "control_change"}, {"time": 3341, "annotation": {"number": 64, "value": 127}, "group": "control_change"}, {"time": 3363, "annotation": {"number": 64, "value": 0}, "group": "control_change"}, {"time": 3365, "annotation": {"number": 64, "value": 127}, "group": "control_change"}, {"time": 3389, "annotation": {"number": 64, "value": 0}, "group": "control_change"}, {"time": 3390, "annotation": {"number": 64, "value": 127}, "group": "control_change"}, {"time": 3415, "annotation": {"number": 64, "value": 0}, "group": "control_change"}, {"time": 3416, "annotation": {"number": 64, "value": 127}, "group": "control_change"}, {"time": 3456, "annotation": {"number": 64, "value": 0}, "group": "control_change"}, {"time": 3464, "annotation": {"number": 64, "value": 127}, "group": "control_change"}, {"time": 3483, "annotation": {"number": 64, "value": 0}, "group": "control_change"}, {"time": 3485, "annotation": {"number": 64, "value": 127}, "group": "control_change"}, {"time": 3495, "annotation": {"number": 64, "value": 0}, "group": "control_change"}, {"time": 3511, "annotation": {"number": 64, "value": 127}, "group": "control_change"}, {"time": 3530, "annotation": {"number": 64, "value": 0}, "group": "control_change"}, {"time": 3534, "annotation": {"number": 64, "value": 127}, "group": "control_change"}, {"time": 3555, "annotation": {"number": 64, "value": 0}, "group": "control_change"}, {"time": 3557, "annotation": {"number": 64, "value": 127}, "group": "control_change"}, {"time": 3603, "annotation": {"number": 64, "value": 0}, "group": "control_change"}, {"time": 3606, "annotation": {"number": 64, "value": 127}, "group": "control_change"}, {"time": 3628, "annotation": {"number": 64, "value": 0}, "group": "control_change"}, {"time": 3631, "annotation": {"number": 64, "value": 127}, "group": "control_change"}, {"time": 3651, "annotation": {"number": 64, "value": 0}, "group": "control_change"}, {"time": 3654, "annotation": {"number": 64, "value": 127}, "group": "control_change"}, {"time": 3678, "annotation": {"number": 64, "value": 127}, "group": "control_change"}, {"time": 3701, "annotation": {"number": 64, "value": 0}, "group": "control_change"}, {"time": 3704, "annotation": {"number": 64, "value": 127}, "group": "control_change"}, {"time": 3724, "annotation": {"number": 64, "value": 0}, "group": "control_change"}, {"time": 3727, "annotation": {"number": 64, "value": 127}, "group": "control_change"}, {"time": 3747, "annotation": {"number": 64, "value": 0}, "group": "control_change"}, {"time": 3750, "annotation": {"number": 64, "value": 127}, "group": "control_change"}, {"time": 3795, "annotation": {"number": 64, "value": 0}, "group": "control_change"}, {"time": 3798, "annotation": {"number": 64, "value": 127}, "group": "control_change"}, {"time": 3820, "annotation": {"number": 64, "value": 0}, "group": "control_change"}, {"time": 3823, "annotation": {"number": 64, "value": 127}, "group": "control_change"}, {"time": 3845, "annotation": {"number": 64, "value": 0}, "group": "control_change"}, {"time": 3847, "annotation": {"number": 64, "value": 127}, "group": "control_change"}, {"time": 3869, "annotation": {"number": 64, "value": 0}, "group": "control_change"}, {"time": 3872, "annotation": {"number": 64, "value": 127}, "group": "control_change"}, {"time": 3882, "annotation": {"number": 64, "value": 0}, "group": "control_change"}, {"time": 3895, "annotation": {"number": 64, "value": 127}, "group": "control_change"}, {"time": 3915, "annotation": {"number": 64, "value": 0}, "group": "control_change"}, {"time": 3925, "annotation": {"number": 64, "value": 127}, "group": "control_change"}, {"time": 3940, "annotation": {"number": 64, "value": 0}, "group": "control_change"}, {"time": 3941, "annotation": {"number": 64, "value": 127}, "group": "control_change"}, {"time": 3987, "annotation": {"number": 64, "value": 0}, "group": "control_change"}, {"time": 3990, "annotation": {"number": 64, "value": 127}, "group": "control_change"}, {"time": 4012, "annotation": {"number": 64, "value": 0}, "group": "control_change"}, {"time": 4015, "annotation": {"number": 64, "value": 127}, "group": "control_change"}, {"time": 4035, "annotation": {"number": 64, "value": 0}, "group": "control_change"}, {"time": 4038, "annotation": {"number": 64, "value": 127}, "group": "control_change"}, {"time": 4062, "annotation": {"number": 64, "value": 127}, "group": "control_change"}, {"time": 4085, "annotation": {"number": 64, "value": 0}, "group": "control_change"}, {"time": 4088, "annotation": {"number": 64, "value": 127}, "group": "control_change"}, {"time": 4108, "annotation": {"number": 64, "value": 0}, "group": "control_change"}, {"time": 4111, "annotation": {"number": 64, "value": 127}, "group": "control_change"}, {"time": 4131, "annotation": {"number": 64, "value": 0}, "group": "control_change"}, {"time": 4134, "annotation": {"number": 64, "value": 127}, "group": "control_change"}, {"time": 4179, "annotation": {"number": 64, "value": 0}, "group": "control_change"}, {"time": 4182, "annotation": {"number": 64, "value": 127}, "group": "control_change"}, {"time": 4204, "annotation": {"number": 64, "value": 0}, "group": "control_change"}, {"time": 4207, "annotation": {"number": 64, "value": 127}, "group": "control_change"}, {"time": 4229, "annotation": {"number": 64, "value": 0}, "group": "control_change"}, {"time": 4231, "annotation": {"number": 64, "value": 127}, "group": "control_change"}, {"time": 4253, "annotation": {"number": 64, "value": 0}, "group": "control_change"}, {"time": 4256, "annotation": {"number": 64, "value": 127}, "group": "control_change"}, {"time": 4266, "annotation": {"number": 64, "value": 0}, "group": "control_change"}, {"time": 4279, "annotation": {"number": 64, "value": 127}, "group": "control_change"}, {"time": 4299, "annotation": {"number": 64, "value": 0}, "group": "control_change"}, {"time": 4309, "annotation": {"number": 64, "value": 127}, "group": "control_change"}, {"time": 4324, "annotation": {"number": 64, "value": 0}, "group": "control_change"}, {"time": 4327, "annotation": {"number": 64, "value": 127}, "group": "control_change"}, {"time": 4349, "annotation": {"number": 64, "value": 0}, "group": "control_change"}, {"time": 4352, "annotation": {"number": 64, "value": 127}, "group": "control_change"}, {"time": 4362, "annotation": {"number": 64, "value": 0}, "group": "control_change"}, {"time": 4375, "annotation": {"number": 64, "value": 127}, "group": "control_change"}, {"time": 4395, "annotation": {"number": 64, "value": 0}, "group": "control_change"}, {"time": 4405, "annotation": {"number": 64, "value": 127}, "group": "control_change"}, {"time": 4420, "annotation": {"number": 64, "value": 0}, "group": "control_change"}, {"time": 4422, "annotation": {"number": 64, "value": 127}, "group": "control_change"}, {"time": 4445, "annotation": {"number": 64, "value": 0}, "group": "control_change"}, {"time": 4448, "annotation": {"number": 64, "value": 127}, "group": "control_change"}, {"time": 4490, "annotation": {"number": 64, "value": 0}, "group": "control_change"}, {"time": 4497, "annotation": {"number": 64, "value": 127}, "group": "control_change"}, {"time": 4540, "annotation": {"number": 64, "value": 0}, "group": "control_change"}, {"time": 4543, "annotation": {"number": 64, "value": 127}, "group": "control_change"}, {"time": 4587, "annotation": {"number": 64, "value": 0}, "group": "control_change"}, {"time": 4620, "annotation": {"number": 64, "value": 127}, "group": "control_change"}, {"time": 4637, "annotation": {"number": 64, "value": 0}, "group": "control_change"}]}]}