{"metadata": {"schema_version": "0.2", "title": "None", "source_filename": "543.mid", "source_format": "midi"}, "resolution": 12, "tempos": [{"time": 0, "qpm": 60.0}], "time_signatures": [{"time": 0, "numerator": 4, "denominator": 4}], "tracks": [{"program": 0, "is_drum": false, "name": "MELODY", "notes": [{"time": 390, "pitch": 70, "duration": 2, "velocity": 117}, {"time": 393, "pitch": 70, "duration": 2, "velocity": 96}, {"time": 396, "pitch": 70, "duration": 1, "velocity": 92}, {"time": 399, "pitch": 70, "duration": 1, "velocity": 92}, {"time": 402, "pitch": 70, "duration": 3, "velocity": 113}, {"time": 408, "pitch": 72, "duration": 2, "velocity": 113}, {"time": 411, "pitch": 74, "duration": 4, "velocity": 108}, {"time": 414, "pitch": 72, "duration": 4, "velocity": 114}, {"time": 420, "pitch": 67, "duration": 5, "velocity": 108}, {"time": 438, "pitch": 70, "duration": 2, "velocity": 96}, {"time": 441, "pitch": 70, "duration": 2, "velocity": 89}, {"time": 444, "pitch": 70, "duration": 2, "velocity": 89}, {"time": 447, "pitch": 70, "duration": 2, "velocity": 88}, {"time": 450, "pitch": 70, "duration": 4, "velocity": 104}, {"time": 456, "pitch": 72, "duration": 2, "velocity": 107}, {"time": 459, "pitch": 74, "duration": 2, "velocity": 96}, {"time": 462, "pitch": 72, "duration": 4, "velocity": 107}, {"time": 468, "pitch": 74, "duration": 4, "velocity": 113}, {"time": 486, "pitch": 72, "duration": 2, "velocity": 108}, {"time": 489, "pitch": 72, "duration": 1, "velocity": 98}, {"time": 492, "pitch": 72, "duration": 2, "velocity": 104}, {"time": 495, "pitch": 72, "duration": 1, "velocity": 100}, {"time": 498, "pitch": 72, "duration": 4, "velocity": 113}, {"time": 504, "pitch": 74, "duration": 2, "velocity": 114}, {"time": 507, "pitch": 77, "duration": 2, "velocity": 114}, {"time": 510, "pitch": 74, "duration": 3, "velocity": 113}, {"time": 516, "pitch": 72, "duration": 3, "velocity": 113}, {"time": 519, "pitch": 70, "duration": 3, "velocity": 102}, {"time": 522, "pitch": 67, "duration": 3, "velocity": 93}, {"time": 525, "pitch": 70, "duration": 3, "velocity": 104}, {"time": 531, "pitch": 70, "duration": 3, "velocity": 104}, {"time": 534, "pitch": 72, "duration": 2, "velocity": 108}, {"time": 537, "pitch": 72, "duration": 2, "velocity": 113}, {"time": 540, "pitch": 72, "duration": 2, "velocity": 113}, {"time": 543, "pitch": 70, "duration": 3, "velocity": 100}, {"time": 546, "pitch": 67, "duration": 3, "velocity": 107}, {"time": 549, "pitch": 67, "duration": 3, "velocity": 98}, {"time": 552, "pitch": 74, "duration": 4, "velocity": 108}, {"time": 558, "pitch": 72, "duration": 5, "velocity": 113}, {"time": 582, "pitch": 70, "duration": 2, "velocity": 117}, {"time": 585, "pitch": 70, "duration": 2, "velocity": 96}, {"time": 588, "pitch": 70, "duration": 1, "velocity": 92}, {"time": 591, "pitch": 70, "duration": 1, "velocity": 92}, {"time": 594, "pitch": 70, "duration": 3, "velocity": 113}, {"time": 600, "pitch": 72, "duration": 2, "velocity": 113}, {"time": 603, "pitch": 74, "duration": 4, "velocity": 108}, {"time": 606, "pitch": 72, "duration": 4, "velocity": 114}, {"time": 612, "pitch": 67, "duration": 5, "velocity": 108}, {"time": 630, "pitch": 70, "duration": 2, "velocity": 96}, {"time": 633, "pitch": 70, "duration": 2, "velocity": 89}, {"time": 636, "pitch": 70, "duration": 2, "velocity": 89}, {"time": 639, "pitch": 70, "duration": 2, "velocity": 88}, {"time": 642, "pitch": 70, "duration": 4, "velocity": 104}, {"time": 648, "pitch": 72, "duration": 2, "velocity": 107}, {"time": 651, "pitch": 74, "duration": 2, "velocity": 96}, {"time": 654, "pitch": 72, "duration": 4, "velocity": 107}, {"time": 660, "pitch": 74, "duration": 4, "velocity": 113}, {"time": 678, "pitch": 72, "duration": 2, "velocity": 108}, {"time": 681, "pitch": 72, "duration": 1, "velocity": 98}, {"time": 684, "pitch": 72, "duration": 2, "velocity": 104}, {"time": 687, "pitch": 72, "duration": 1, "velocity": 100}, {"time": 690, "pitch": 72, "duration": 4, "velocity": 113}, {"time": 696, "pitch": 74, "duration": 2, "velocity": 114}, {"time": 699, "pitch": 77, "duration": 2, "velocity": 114}, {"time": 702, "pitch": 74, "duration": 3, "velocity": 113}, {"time": 708, "pitch": 72, "duration": 3, "velocity": 113}, {"time": 711, "pitch": 70, "duration": 3, "velocity": 102}, {"time": 714, "pitch": 67, "duration": 3, "velocity": 93}, {"time": 717, "pitch": 70, "duration": 2, "velocity": 104}, {"time": 720, "pitch": 70, "duration": 3, "velocity": 104}, {"time": 723, "pitch": 70, "duration": 3, "velocity": 104}, {"time": 726, "pitch": 72, "duration": 2, "velocity": 108}, {"time": 729, "pitch": 72, "duration": 2, "velocity": 113}, {"time": 732, "pitch": 72, "duration": 2, "velocity": 113}, {"time": 735, "pitch": 70, "duration": 3, "velocity": 100}, {"time": 738, "pitch": 67, "duration": 3, "velocity": 107}, {"time": 741, "pitch": 67, "duration": 3, "velocity": 98}, {"time": 744, "pitch": 70, "duration": 7, "velocity": 94}, {"time": 756, "pitch": 70, "duration": 6, "velocity": 113}, {"time": 816, "pitch": 70, "duration": 3, "velocity": 107}, {"time": 819, "pitch": 72, "duration": 2, "velocity": 92}, {"time": 822, "pitch": 74, "duration": 1, "velocity": 104}, {"time": 825, "pitch": 82, "duration": 2, "velocity": 113}, {"time": 828, "pitch": 82, "duration": 2, "velocity": 108}, {"time": 831, "pitch": 82, "duration": 2, "velocity": 107}, {"time": 834, "pitch": 82, "duration": 4, "velocity": 116}, {"time": 840, "pitch": 84, "duration": 4, "velocity": 117}, {"time": 846, "pitch": 81, "duration": 5, "velocity": 114}, {"time": 852, "pitch": 79, "duration": 3, "velocity": 108}, {"time": 855, "pitch": 77, "duration": 4, "velocity": 116}, {"time": 864, "pitch": 74, "duration": 2, "velocity": 117}, {"time": 867, "pitch": 77, "duration": 2, "velocity": 114}, {"time": 870, "pitch": 79, "duration": 2, "velocity": 114}, {"time": 873, "pitch": 79, "duration": 2, "velocity": 113}, {"time": 876, "pitch": 79, "duration": 3, "velocity": 114}, {"time": 879, "pitch": 77, "duration": 3, "velocity": 113}, {"time": 882, "pitch": 79, "duration": 3, "velocity": 117}, {"time": 888, "pitch": 70, "duration": 3, "velocity": 113}, {"time": 891, "pitch": 72, "duration": 4, "velocity": 102}, {"time": 894, "pitch": 74, "duration": 5, "velocity": 114}, {"time": 900, "pitch": 77, "duration": 3, "velocity": 100}, {"time": 903, "pitch": 74, "duration": 3, "velocity": 108}, {"time": 918, "pitch": 72, "duration": 3, "velocity": 108}, {"time": 921, "pitch": 72, "duration": 3, "velocity": 108}, {"time": 927, "pitch": 74, "duration": 3, "velocity": 108}, {"time": 930, "pitch": 72, "duration": 4, "velocity": 116}, {"time": 936, "pitch": 67, "duration": 2, "velocity": 107}, {"time": 939, "pitch": 70, "duration": 2, "velocity": 114}, {"time": 942, "pitch": 77, "duration": 3, "velocity": 116}, {"time": 945, "pitch": 74, "duration": 3, "velocity": 104}, {"time": 948, "pitch": 72, "duration": 3, "velocity": 100}, {"time": 951, "pitch": 74, "duration": 4, "velocity": 117}, {"time": 966, "pitch": 79, "duration": 2, "velocity": 117}, {"time": 969, "pitch": 79, "duration": 2, "velocity": 114}, {"time": 972, "pitch": 79, "duration": 2, "velocity": 113}, {"time": 975, "pitch": 82, "duration": 2, "velocity": 116}, {"time": 978, "pitch": 81, "duration": 3, "velocity": 114}, {"time": 981, "pitch": 77, "duration": 2, "velocity": 113}, {"time": 984, "pitch": 79, "duration": 4, "velocity": 113}, {"time": 993, "pitch": 77, "duration": 4, "velocity": 117}, {"time": 1008, "pitch": 74, "duration": 3, "velocity": 117}, {"time": 1011, "pitch": 77, "duration": 2, "velocity": 113}, {"time": 1014, "pitch": 82, "duration": 2, "velocity": 119}, {"time": 1017, "pitch": 82, "duration": 2, "velocity": 116}, {"time": 1020, "pitch": 82, "duration": 2, "velocity": 110}, {"time": 1023, "pitch": 82, "duration": 2, "velocity": 114}, {"time": 1026, "pitch": 82, "duration": 2, "velocity": 117}, {"time": 1032, "pitch": 82, "duration": 3, "velocity": 113}, {"time": 1035, "pitch": 84, "duration": 3, "velocity": 110}, {"time": 1038, "pitch": 81, "duration": 5, "velocity": 113}, {"time": 1044, "pitch": 77, "duration": 3, "velocity": 116}, {"time": 1047, "pitch": 79, "duration": 3, "velocity": 114}, {"time": 1056, "pitch": 74, "duration": 2, "velocity": 114}, {"time": 1059, "pitch": 77, "duration": 2, "velocity": 107}, {"time": 1062, "pitch": 79, "duration": 2, "velocity": 108}, {"time": 1065, "pitch": 79, "duration": 2, "velocity": 102}, {"time": 1068, "pitch": 79, "duration": 3, "velocity": 113}, {"time": 1071, "pitch": 77, "duration": 3, "velocity": 108}, {"time": 1074, "pitch": 79, "duration": 4, "velocity": 110}, {"time": 1080, "pitch": 70, "duration": 4, "velocity": 110}, {"time": 1083, "pitch": 72, "duration": 3, "velocity": 107}, {"time": 1086, "pitch": 74, "duration": 2, "velocity": 108}, {"time": 1092, "pitch": 77, "duration": 3, "velocity": 108}, {"time": 1095, "pitch": 74, "duration": 4, "velocity": 110}, {"time": 1110, "pitch": 72, "duration": 2, "velocity": 110}, {"time": 1113, "pitch": 72, "duration": 3, "velocity": 110}, {"time": 1119, "pitch": 74, "duration": 3, "velocity": 110}, {"time": 1122, "pitch": 72, "duration": 4, "velocity": 116}, {"time": 1128, "pitch": 67, "duration": 2, "velocity": 113}, {"time": 1131, "pitch": 70, "duration": 2, "velocity": 96}, {"time": 1134, "pitch": 77, "duration": 3, "velocity": 110}, {"time": 1137, "pitch": 74, "duration": 3, "velocity": 110}, {"time": 1140, "pitch": 72, "duration": 3, "velocity": 107}, {"time": 1143, "pitch": 74, "duration": 4, "velocity": 116}, {"time": 1158, "pitch": 79, "duration": 2, "velocity": 114}, {"time": 1161, "pitch": 79, "duration": 3, "velocity": 116}, {"time": 1167, "pitch": 82, "duration": 2, "velocity": 110}, {"time": 1170, "pitch": 81, "duration": 3, "velocity": 107}, {"time": 1173, "pitch": 79, "duration": 3, "velocity": 102}, {"time": 1176, "pitch": 77, "duration": 4, "velocity": 113}, {"time": 1188, "pitch": 77, "duration": 5, "velocity": 116}, {"time": 1398, "pitch": 70, "duration": 2, "velocity": 117}, {"time": 1401, "pitch": 70, "duration": 2, "velocity": 96}, {"time": 1404, "pitch": 70, "duration": 1, "velocity": 92}, {"time": 1407, "pitch": 70, "duration": 1, "velocity": 92}, {"time": 1410, "pitch": 70, "duration": 3, "velocity": 113}, {"time": 1416, "pitch": 72, "duration": 2, "velocity": 113}, {"time": 1419, "pitch": 74, "duration": 4, "velocity": 108}, {"time": 1422, "pitch": 72, "duration": 4, "velocity": 114}, {"time": 1428, "pitch": 67, "duration": 5, "velocity": 108}, {"time": 1446, "pitch": 70, "duration": 2, "velocity": 96}, {"time": 1449, "pitch": 70, "duration": 2, "velocity": 89}, {"time": 1452, "pitch": 70, "duration": 2, "velocity": 89}, {"time": 1455, "pitch": 70, "duration": 2, "velocity": 88}, {"time": 1458, "pitch": 70, "duration": 4, "velocity": 104}, {"time": 1464, "pitch": 72, "duration": 2, "velocity": 107}, {"time": 1467, "pitch": 74, "duration": 2, "velocity": 96}, {"time": 1470, "pitch": 72, "duration": 4, "velocity": 107}, {"time": 1476, "pitch": 74, "duration": 4, "velocity": 113}, {"time": 1494, "pitch": 72, "duration": 2, "velocity": 108}, {"time": 1497, "pitch": 72, "duration": 1, "velocity": 98}, {"time": 1500, "pitch": 72, "duration": 2, "velocity": 104}, {"time": 1503, "pitch": 72, "duration": 1, "velocity": 100}, {"time": 1506, "pitch": 72, "duration": 4, "velocity": 113}, {"time": 1512, "pitch": 74, "duration": 2, "velocity": 114}, {"time": 1515, "pitch": 77, "duration": 2, "velocity": 114}, {"time": 1518, "pitch": 74, "duration": 3, "velocity": 113}, {"time": 1524, "pitch": 72, "duration": 3, "velocity": 113}, {"time": 1527, "pitch": 70, "duration": 3, "velocity": 102}, {"time": 1530, "pitch": 67, "duration": 3, "velocity": 93}, {"time": 1533, "pitch": 70, "duration": 3, "velocity": 104}, {"time": 1539, "pitch": 70, "duration": 3, "velocity": 104}, {"time": 1542, "pitch": 72, "duration": 2, "velocity": 108}, {"time": 1545, "pitch": 72, "duration": 2, "velocity": 113}, {"time": 1548, "pitch": 72, "duration": 2, "velocity": 113}, {"time": 1551, "pitch": 70, "duration": 3, "velocity": 100}, {"time": 1554, "pitch": 67, "duration": 3, "velocity": 107}, {"time": 1557, "pitch": 67, "duration": 3, "velocity": 98}, {"time": 1560, "pitch": 74, "duration": 4, "velocity": 108}, {"time": 1566, "pitch": 72, "duration": 5, "velocity": 113}, {"time": 1590, "pitch": 70, "duration": 2, "velocity": 117}, {"time": 1593, "pitch": 70, "duration": 2, "velocity": 96}, {"time": 1596, "pitch": 70, "duration": 1, "velocity": 92}, {"time": 1599, "pitch": 70, "duration": 1, "velocity": 92}, {"time": 1602, "pitch": 70, "duration": 3, "velocity": 113}, {"time": 1608, "pitch": 72, "duration": 2, "velocity": 113}, {"time": 1611, "pitch": 74, "duration": 4, "velocity": 108}, {"time": 1614, "pitch": 72, "duration": 4, "velocity": 114}, {"time": 1620, "pitch": 67, "duration": 5, "velocity": 108}, {"time": 1638, "pitch": 70, "duration": 2, "velocity": 96}, {"time": 1641, "pitch": 70, "duration": 2, "velocity": 89}, {"time": 1644, "pitch": 70, "duration": 2, "velocity": 89}, {"time": 1647, "pitch": 70, "duration": 2, "velocity": 88}, {"time": 1650, "pitch": 70, "duration": 4, "velocity": 104}, {"time": 1656, "pitch": 72, "duration": 2, "velocity": 107}, {"time": 1659, "pitch": 74, "duration": 2, "velocity": 96}, {"time": 1662, "pitch": 72, "duration": 4, "velocity": 107}, {"time": 1668, "pitch": 74, "duration": 4, "velocity": 113}, {"time": 1686, "pitch": 72, "duration": 2, "velocity": 108}, {"time": 1689, "pitch": 72, "duration": 1, "velocity": 98}, {"time": 1692, "pitch": 72, "duration": 2, "velocity": 104}, {"time": 1695, "pitch": 72, "duration": 1, "velocity": 100}, {"time": 1698, "pitch": 72, "duration": 4, "velocity": 113}, {"time": 1704, "pitch": 74, "duration": 2, "velocity": 114}, {"time": 1707, "pitch": 77, "duration": 2, "velocity": 114}, {"time": 1710, "pitch": 74, "duration": 3, "velocity": 113}, {"time": 1716, "pitch": 72, "duration": 3, "velocity": 113}, {"time": 1719, "pitch": 70, "duration": 3, "velocity": 102}, {"time": 1722, "pitch": 67, "duration": 3, "velocity": 93}, {"time": 1725, "pitch": 70, "duration": 2, "velocity": 104}, {"time": 1728, "pitch": 70, "duration": 3, "velocity": 104}, {"time": 1731, "pitch": 70, "duration": 3, "velocity": 104}, {"time": 1734, "pitch": 72, "duration": 2, "velocity": 108}, {"time": 1737, "pitch": 72, "duration": 2, "velocity": 113}, {"time": 1740, "pitch": 72, "duration": 2, "velocity": 113}, {"time": 1743, "pitch": 70, "duration": 3, "velocity": 100}, {"time": 1746, "pitch": 67, "duration": 3, "velocity": 107}, {"time": 1749, "pitch": 67, "duration": 3, "velocity": 98}, {"time": 1752, "pitch": 70, "duration": 7, "velocity": 94}, {"time": 1764, "pitch": 70, "duration": 6, "velocity": 113}, {"time": 1824, "pitch": 70, "duration": 3, "velocity": 107}, {"time": 1827, "pitch": 72, "duration": 2, "velocity": 92}, {"time": 1830, "pitch": 74, "duration": 1, "velocity": 104}, {"time": 1833, "pitch": 82, "duration": 2, "velocity": 113}, {"time": 1836, "pitch": 82, "duration": 2, "velocity": 108}, {"time": 1839, "pitch": 82, "duration": 2, "velocity": 107}, {"time": 1842, "pitch": 82, "duration": 4, "velocity": 116}, {"time": 1848, "pitch": 82, "duration": 2, "velocity": 100}, {"time": 1851, "pitch": 84, "duration": 1, "velocity": 117}, {"time": 1854, "pitch": 81, "duration": 5, "velocity": 114}, {"time": 1860, "pitch": 79, "duration": 3, "velocity": 108}, {"time": 1863, "pitch": 77, "duration": 4, "velocity": 116}, {"time": 1872, "pitch": 74, "duration": 2, "velocity": 117}, {"time": 1875, "pitch": 77, "duration": 2, "velocity": 114}, {"time": 1878, "pitch": 79, "duration": 2, "velocity": 114}, {"time": 1881, "pitch": 79, "duration": 2, "velocity": 113}, {"time": 1884, "pitch": 79, "duration": 3, "velocity": 114}, {"time": 1887, "pitch": 77, "duration": 3, "velocity": 113}, {"time": 1890, "pitch": 79, "duration": 3, "velocity": 117}, {"time": 1896, "pitch": 70, "duration": 3, "velocity": 113}, {"time": 1899, "pitch": 72, "duration": 4, "velocity": 102}, {"time": 1902, "pitch": 74, "duration": 5, "velocity": 114}, {"time": 1908, "pitch": 77, "duration": 3, "velocity": 100}, {"time": 1911, "pitch": 74, "duration": 3, "velocity": 108}, {"time": 1926, "pitch": 72, "duration": 3, "velocity": 108}, {"time": 1929, "pitch": 72, "duration": 3, "velocity": 108}, {"time": 1935, "pitch": 74, "duration": 3, "velocity": 108}, {"time": 1938, "pitch": 72, "duration": 4, "velocity": 116}, {"time": 1944, "pitch": 67, "duration": 2, "velocity": 107}, {"time": 1947, "pitch": 70, "duration": 2, "velocity": 114}, {"time": 1950, "pitch": 77, "duration": 3, "velocity": 116}, {"time": 1953, "pitch": 74, "duration": 3, "velocity": 104}, {"time": 1956, "pitch": 72, "duration": 3, "velocity": 100}, {"time": 1959, "pitch": 74, "duration": 4, "velocity": 117}, {"time": 1974, "pitch": 79, "duration": 2, "velocity": 117}, {"time": 1977, "pitch": 79, "duration": 2, "velocity": 114}, {"time": 1980, "pitch": 79, "duration": 2, "velocity": 113}, {"time": 1983, "pitch": 82, "duration": 2, "velocity": 116}, {"time": 1986, "pitch": 81, "duration": 3, "velocity": 114}, {"time": 1989, "pitch": 79, "duration": 2, "velocity": 113}, {"time": 1992, "pitch": 79, "duration": 4, "velocity": 113}, {"time": 2001, "pitch": 77, "duration": 4, "velocity": 117}, {"time": 2016, "pitch": 74, "duration": 3, "velocity": 117}, {"time": 2019, "pitch": 77, "duration": 2, "velocity": 113}, {"time": 2022, "pitch": 82, "duration": 2, "velocity": 119}, {"time": 2025, "pitch": 82, "duration": 2, "velocity": 116}, {"time": 2028, "pitch": 82, "duration": 2, "velocity": 110}, {"time": 2031, "pitch": 82, "duration": 2, "velocity": 114}, {"time": 2034, "pitch": 82, "duration": 2, "velocity": 117}, {"time": 2040, "pitch": 81, "duration": 3, "velocity": 113}, {"time": 2043, "pitch": 84, "duration": 3, "velocity": 110}, {"time": 2046, "pitch": 81, "duration": 5, "velocity": 113}, {"time": 2052, "pitch": 77, "duration": 3, "velocity": 116}, {"time": 2055, "pitch": 79, "duration": 3, "velocity": 114}, {"time": 2064, "pitch": 74, "duration": 2, "velocity": 114}, {"time": 2067, "pitch": 77, "duration": 2, "velocity": 107}, {"time": 2070, "pitch": 79, "duration": 2, "velocity": 108}, {"time": 2073, "pitch": 79, "duration": 2, "velocity": 102}, {"time": 2076, "pitch": 79, "duration": 3, "velocity": 113}, {"time": 2079, "pitch": 77, "duration": 3, "velocity": 108}, {"time": 2082, "pitch": 79, "duration": 4, "velocity": 110}, {"time": 2088, "pitch": 70, "duration": 4, "velocity": 110}, {"time": 2091, "pitch": 72, "duration": 3, "velocity": 107}, {"time": 2094, "pitch": 74, "duration": 2, "velocity": 108}, {"time": 2100, "pitch": 77, "duration": 3, "velocity": 108}, {"time": 2103, "pitch": 74, "duration": 4, "velocity": 110}, {"time": 2118, "pitch": 72, "duration": 2, "velocity": 110}, {"time": 2121, "pitch": 72, "duration": 3, "velocity": 110}, {"time": 2127, "pitch": 74, "duration": 3, "velocity": 110}, {"time": 2130, "pitch": 72, "duration": 4, "velocity": 116}, {"time": 2136, "pitch": 67, "duration": 2, "velocity": 113}, {"time": 2139, "pitch": 70, "duration": 2, "velocity": 96}, {"time": 2142, "pitch": 77, "duration": 3, "velocity": 110}, {"time": 2145, "pitch": 74, "duration": 3, "velocity": 110}, {"time": 2148, "pitch": 72, "duration": 3, "velocity": 107}, {"time": 2151, "pitch": 74, "duration": 4, "velocity": 116}, {"time": 2166, "pitch": 79, "duration": 2, "velocity": 114}, {"time": 2169, "pitch": 79, "duration": 3, "velocity": 116}, {"time": 2175, "pitch": 82, "duration": 2, "velocity": 110}, {"time": 2178, "pitch": 81, "duration": 3, "velocity": 107}, {"time": 2181, "pitch": 79, "duration": 3, "velocity": 102}, {"time": 2184, "pitch": 77, "duration": 4, "velocity": 113}, {"time": 2196, "pitch": 77, "duration": 5, "velocity": 116}, {"time": 2214, "pitch": 70, "duration": 2, "velocity": 117}, {"time": 2217, "pitch": 70, "duration": 2, "velocity": 96}, {"time": 2220, "pitch": 70, "duration": 1, "velocity": 92}, {"time": 2223, "pitch": 70, "duration": 1, "velocity": 92}, {"time": 2226, "pitch": 70, "duration": 3, "velocity": 113}, {"time": 2232, "pitch": 72, "duration": 2, "velocity": 113}, {"time": 2235, "pitch": 74, "duration": 4, "velocity": 108}, {"time": 2238, "pitch": 72, "duration": 4, "velocity": 114}, {"time": 2244, "pitch": 67, "duration": 5, "velocity": 108}, {"time": 2262, "pitch": 70, "duration": 2, "velocity": 96}, {"time": 2265, "pitch": 70, "duration": 2, "velocity": 89}, {"time": 2268, "pitch": 70, "duration": 2, "velocity": 89}, {"time": 2271, "pitch": 70, "duration": 2, "velocity": 88}, {"time": 2274, "pitch": 70, "duration": 4, "velocity": 104}, {"time": 2280, "pitch": 72, "duration": 2, "velocity": 107}, {"time": 2283, "pitch": 74, "duration": 2, "velocity": 96}, {"time": 2286, "pitch": 72, "duration": 4, "velocity": 107}, {"time": 2292, "pitch": 74, "duration": 4, "velocity": 113}, {"time": 2310, "pitch": 72, "duration": 2, "velocity": 108}, {"time": 2313, "pitch": 72, "duration": 1, "velocity": 98}, {"time": 2316, "pitch": 72, "duration": 2, "velocity": 104}, {"time": 2319, "pitch": 72, "duration": 1, "velocity": 100}, {"time": 2322, "pitch": 72, "duration": 4, "velocity": 113}, {"time": 2328, "pitch": 74, "duration": 2, "velocity": 114}, {"time": 2331, "pitch": 77, "duration": 2, "velocity": 114}, {"time": 2334, "pitch": 74, "duration": 3, "velocity": 113}, {"time": 2340, "pitch": 72, "duration": 3, "velocity": 113}, {"time": 2343, "pitch": 70, "duration": 3, "velocity": 102}, {"time": 2346, "pitch": 67, "duration": 3, "velocity": 93}, {"time": 2349, "pitch": 70, "duration": 3, "velocity": 104}, {"time": 2355, "pitch": 70, "duration": 3, "velocity": 104}, {"time": 2358, "pitch": 72, "duration": 2, "velocity": 108}, {"time": 2361, "pitch": 72, "duration": 2, "velocity": 113}, {"time": 2364, "pitch": 72, "duration": 2, "velocity": 113}, {"time": 2367, "pitch": 70, "duration": 3, "velocity": 100}, {"time": 2370, "pitch": 67, "duration": 3, "velocity": 107}, {"time": 2373, "pitch": 67, "duration": 3, "velocity": 98}, {"time": 2376, "pitch": 74, "duration": 4, "velocity": 108}, {"time": 2382, "pitch": 72, "duration": 5, "velocity": 113}, {"time": 2406, "pitch": 70, "duration": 2, "velocity": 117}, {"time": 2409, "pitch": 70, "duration": 2, "velocity": 96}, {"time": 2412, "pitch": 70, "duration": 1, "velocity": 92}, {"time": 2415, "pitch": 70, "duration": 1, "velocity": 92}, {"time": 2418, "pitch": 70, "duration": 3, "velocity": 113}, {"time": 2424, "pitch": 72, "duration": 2, "velocity": 113}, {"time": 2427, "pitch": 74, "duration": 4, "velocity": 108}, {"time": 2430, "pitch": 72, "duration": 4, "velocity": 114}, {"time": 2436, "pitch": 67, "duration": 5, "velocity": 108}, {"time": 2454, "pitch": 70, "duration": 2, "velocity": 96}, {"time": 2457, "pitch": 70, "duration": 2, "velocity": 89}, {"time": 2460, "pitch": 70, "duration": 2, "velocity": 89}, {"time": 2463, "pitch": 70, "duration": 2, "velocity": 88}, {"time": 2466, "pitch": 70, "duration": 4, "velocity": 104}, {"time": 2472, "pitch": 72, "duration": 2, "velocity": 107}, {"time": 2475, "pitch": 74, "duration": 2, "velocity": 96}, {"time": 2478, "pitch": 72, "duration": 4, "velocity": 107}, {"time": 2484, "pitch": 74, "duration": 4, "velocity": 113}, {"time": 2502, "pitch": 72, "duration": 2, "velocity": 108}, {"time": 2505, "pitch": 72, "duration": 1, "velocity": 98}, {"time": 2508, "pitch": 72, "duration": 2, "velocity": 104}, {"time": 2511, "pitch": 72, "duration": 1, "velocity": 100}, {"time": 2514, "pitch": 72, "duration": 4, "velocity": 113}, {"time": 2520, "pitch": 74, "duration": 2, "velocity": 114}, {"time": 2523, "pitch": 77, "duration": 2, "velocity": 114}, {"time": 2526, "pitch": 74, "duration": 3, "velocity": 113}, {"time": 2532, "pitch": 72, "duration": 3, "velocity": 113}, {"time": 2535, "pitch": 70, "duration": 3, "velocity": 102}, {"time": 2538, "pitch": 67, "duration": 3, "velocity": 93}, {"time": 2541, "pitch": 70, "duration": 2, "velocity": 104}, {"time": 2544, "pitch": 70, "duration": 3, "velocity": 104}, {"time": 2547, "pitch": 70, "duration": 3, "velocity": 104}, {"time": 2550, "pitch": 72, "duration": 2, "velocity": 108}, {"time": 2553, "pitch": 72, "duration": 2, "velocity": 113}, {"time": 2556, "pitch": 72, "duration": 2, "velocity": 113}, {"time": 2559, "pitch": 70, "duration": 3, "velocity": 100}, {"time": 2562, "pitch": 67, "duration": 3, "velocity": 107}, {"time": 2565, "pitch": 67, "duration": 3, "velocity": 98}, {"time": 2568, "pitch": 70, "duration": 7, "velocity": 94}, {"time": 2580, "pitch": 70, "duration": 6, "velocity": 113}, {"time": 2784, "pitch": 70, "duration": 3, "velocity": 107}, {"time": 2787, "pitch": 72, "duration": 2, "velocity": 92}, {"time": 2790, "pitch": 74, "duration": 1, "velocity": 104}, {"time": 2793, "pitch": 82, "duration": 2, "velocity": 113}, {"time": 2796, "pitch": 82, "duration": 2, "velocity": 108}, {"time": 2799, "pitch": 82, "duration": 2, "velocity": 107}, {"time": 2802, "pitch": 82, "duration": 4, "velocity": 116}, {"time": 2808, "pitch": 82, "duration": 1, "velocity": 100}, {"time": 2811, "pitch": 84, "duration": 2, "velocity": 117}, {"time": 2814, "pitch": 81, "duration": 5, "velocity": 114}, {"time": 2820, "pitch": 79, "duration": 3, "velocity": 108}, {"time": 2823, "pitch": 77, "duration": 4, "velocity": 116}, {"time": 2832, "pitch": 74, "duration": 2, "velocity": 117}, {"time": 2835, "pitch": 77, "duration": 2, "velocity": 114}, {"time": 2838, "pitch": 79, "duration": 2, "velocity": 114}, {"time": 2841, "pitch": 79, "duration": 2, "velocity": 113}, {"time": 2844, "pitch": 79, "duration": 3, "velocity": 114}, {"time": 2847, "pitch": 77, "duration": 3, "velocity": 113}, {"time": 2850, "pitch": 79, "duration": 3, "velocity": 117}, {"time": 2856, "pitch": 70, "duration": 3, "velocity": 113}, {"time": 2859, "pitch": 72, "duration": 4, "velocity": 102}, {"time": 2862, "pitch": 74, "duration": 5, "velocity": 114}, {"time": 2868, "pitch": 77, "duration": 3, "velocity": 100}, {"time": 2871, "pitch": 74, "duration": 3, "velocity": 108}, {"time": 2886, "pitch": 72, "duration": 3, "velocity": 108}, {"time": 2889, "pitch": 72, "duration": 3, "velocity": 108}, {"time": 2895, "pitch": 74, "duration": 3, "velocity": 108}, {"time": 2898, "pitch": 72, "duration": 4, "velocity": 116}, {"time": 2904, "pitch": 67, "duration": 2, "velocity": 107}, {"time": 2907, "pitch": 70, "duration": 2, "velocity": 114}, {"time": 2910, "pitch": 77, "duration": 3, "velocity": 116}, {"time": 2913, "pitch": 74, "duration": 3, "velocity": 104}, {"time": 2916, "pitch": 72, "duration": 3, "velocity": 100}, {"time": 2919, "pitch": 74, "duration": 4, "velocity": 117}, {"time": 2934, "pitch": 79, "duration": 2, "velocity": 117}, {"time": 2937, "pitch": 79, "duration": 2, "velocity": 114}, {"time": 2940, "pitch": 79, "duration": 2, "velocity": 113}, {"time": 2943, "pitch": 82, "duration": 2, "velocity": 116}, {"time": 2946, "pitch": 81, "duration": 3, "velocity": 114}, {"time": 2949, "pitch": 77, "duration": 2, "velocity": 113}, {"time": 2952, "pitch": 79, "duration": 4, "velocity": 113}, {"time": 2961, "pitch": 77, "duration": 4, "velocity": 117}, {"time": 2976, "pitch": 74, "duration": 3, "velocity": 117}, {"time": 2979, "pitch": 77, "duration": 2, "velocity": 113}, {"time": 2982, "pitch": 82, "duration": 2, "velocity": 119}, {"time": 2985, "pitch": 82, "duration": 2, "velocity": 116}, {"time": 2988, "pitch": 82, "duration": 2, "velocity": 110}, {"time": 2991, "pitch": 82, "duration": 2, "velocity": 114}, {"time": 2994, "pitch": 82, "duration": 2, "velocity": 117}, {"time": 3000, "pitch": 82, "duration": 3, "velocity": 113}, {"time": 3003, "pitch": 84, "duration": 3, "velocity": 110}, {"time": 3006, "pitch": 81, "duration": 5, "velocity": 113}, {"time": 3012, "pitch": 77, "duration": 3, "velocity": 116}, {"time": 3015, "pitch": 79, "duration": 3, "velocity": 114}, {"time": 3024, "pitch": 74, "duration": 2, "velocity": 114}, {"time": 3027, "pitch": 77, "duration": 2, "velocity": 107}, {"time": 3030, "pitch": 79, "duration": 2, "velocity": 108}, {"time": 3033, "pitch": 79, "duration": 2, "velocity": 102}, {"time": 3036, "pitch": 79, "duration": 3, "velocity": 113}, {"time": 3039, "pitch": 77, "duration": 3, "velocity": 108}, {"time": 3042, "pitch": 79, "duration": 4, "velocity": 110}, {"time": 3048, "pitch": 70, "duration": 4, "velocity": 110}, {"time": 3051, "pitch": 72, "duration": 3, "velocity": 107}, {"time": 3054, "pitch": 74, "duration": 2, "velocity": 108}, {"time": 3060, "pitch": 77, "duration": 3, "velocity": 108}, {"time": 3063, "pitch": 74, "duration": 4, "velocity": 110}, {"time": 3078, "pitch": 72, "duration": 2, "velocity": 110}, {"time": 3081, "pitch": 72, "duration": 3, "velocity": 110}, {"time": 3087, "pitch": 74, "duration": 3, "velocity": 110}, {"time": 3090, "pitch": 72, "duration": 4, "velocity": 116}, {"time": 3096, "pitch": 67, "duration": 2, "velocity": 113}, {"time": 3099, "pitch": 70, "duration": 2, "velocity": 96}, {"time": 3102, "pitch": 77, "duration": 3, "velocity": 110}, {"time": 3105, "pitch": 74, "duration": 3, "velocity": 110}, {"time": 3108, "pitch": 72, "duration": 3, "velocity": 107}, {"time": 3111, "pitch": 74, "duration": 4, "velocity": 116}, {"time": 3126, "pitch": 79, "duration": 2, "velocity": 114}, {"time": 3129, "pitch": 79, "duration": 3, "velocity": 116}, {"time": 3135, "pitch": 82, "duration": 2, "velocity": 110}, {"time": 3138, "pitch": 81, "duration": 3, "velocity": 107}, {"time": 3141, "pitch": 79, "duration": 3, "velocity": 102}, {"time": 3144, "pitch": 77, "duration": 4, "velocity": 113}, {"time": 3156, "pitch": 77, "duration": 5, "velocity": 116}, {"time": 3174, "pitch": 70, "duration": 2, "velocity": 117}, {"time": 3177, "pitch": 70, "duration": 2, "velocity": 96}, {"time": 3180, "pitch": 70, "duration": 1, "velocity": 92}, {"time": 3183, "pitch": 70, "duration": 1, "velocity": 92}, {"time": 3186, "pitch": 70, "duration": 3, "velocity": 113}, {"time": 3192, "pitch": 72, "duration": 2, "velocity": 113}, {"time": 3195, "pitch": 74, "duration": 4, "velocity": 108}, {"time": 3198, "pitch": 72, "duration": 4, "velocity": 114}, {"time": 3204, "pitch": 67, "duration": 5, "velocity": 108}, {"time": 3222, "pitch": 70, "duration": 2, "velocity": 96}, {"time": 3225, "pitch": 70, "duration": 2, "velocity": 89}, {"time": 3228, "pitch": 70, "duration": 2, "velocity": 89}, {"time": 3231, "pitch": 70, "duration": 2, "velocity": 88}, {"time": 3234, "pitch": 70, "duration": 4, "velocity": 104}, {"time": 3240, "pitch": 72, "duration": 2, "velocity": 107}, {"time": 3243, "pitch": 74, "duration": 2, "velocity": 96}, {"time": 3246, "pitch": 72, "duration": 4, "velocity": 107}, {"time": 3252, "pitch": 74, "duration": 4, "velocity": 113}, {"time": 3270, "pitch": 72, "duration": 2, "velocity": 108}, {"time": 3273, "pitch": 72, "duration": 1, "velocity": 98}, {"time": 3276, "pitch": 72, "duration": 2, "velocity": 104}, {"time": 3279, "pitch": 72, "duration": 1, "velocity": 100}, {"time": 3282, "pitch": 72, "duration": 4, "velocity": 113}, {"time": 3288, "pitch": 74, "duration": 2, "velocity": 114}, {"time": 3291, "pitch": 77, "duration": 2, "velocity": 114}, {"time": 3294, "pitch": 74, "duration": 3, "velocity": 113}, {"time": 3300, "pitch": 72, "duration": 3, "velocity": 113}, {"time": 3303, "pitch": 70, "duration": 3, "velocity": 102}, {"time": 3306, "pitch": 67, "duration": 3, "velocity": 93}, {"time": 3309, "pitch": 70, "duration": 2, "velocity": 104}, {"time": 3312, "pitch": 70, "duration": 3, "velocity": 104}, {"time": 3315, "pitch": 70, "duration": 3, "velocity": 104}, {"time": 3318, "pitch": 72, "duration": 2, "velocity": 108}, {"time": 3321, "pitch": 72, "duration": 2, "velocity": 113}, {"time": 3324, "pitch": 72, "duration": 2, "velocity": 113}, {"time": 3327, "pitch": 70, "duration": 3, "velocity": 100}, {"time": 3330, "pitch": 67, "duration": 3, "velocity": 107}, {"time": 3333, "pitch": 67, "duration": 3, "velocity": 98}, {"time": 3336, "pitch": 70, "duration": 7, "velocity": 94}, {"time": 3348, "pitch": 70, "duration": 6, "velocity": 113}]}, {"program": 0, "is_drum": false, "name": "BRIDGE", "notes": [{"time": 6, "pitch": 74, "duration": 14, "velocity": 117}, {"time": 30, "pitch": 72, "duration": 10, "velocity": 114}, {"time": 54, "pitch": 70, "duration": 8, "velocity": 117}, {"time": 96, "pitch": 70, "duration": 3, "velocity": 114}, {"time": 99, "pitch": 72, "duration": 2, "velocity": 110}, {"time": 102, "pitch": 74, "duration": 5, "velocity": 119}, {"time": 126, "pitch": 70, "duration": 5, "velocity": 113}, {"time": 150, "pitch": 77, "duration": 4, "velocity": 117}, {"time": 198, "pitch": 70, "duration": 21, "velocity": 114}, {"time": 222, "pitch": 74, "duration": 9, "velocity": 116}, {"time": 234, "pitch": 67, "duration": 4, "velocity": 117}, {"time": 240, "pitch": 70, "duration": 4, "velocity": 119}, {"time": 246, "pitch": 72, "duration": 6, "velocity": 120}, {"time": 252, "pitch": 77, "duration": 6, "velocity": 114}, {"time": 270, "pitch": 70, "duration": 5, "velocity": 116}, {"time": 276, "pitch": 72, "duration": 6, "velocity": 114}, {"time": 282, "pitch": 67, "duration": 6, "velocity": 119}, {"time": 288, "pitch": 70, "duration": 5, "velocity": 116}, {"time": 294, "pitch": 72, "duration": 5, "velocity": 120}, {"time": 312, "pitch": 74, "duration": 6, "velocity": 117}, {"time": 318, "pitch": 77, "duration": 7, "velocity": 110}, {"time": 324, "pitch": 74, "duration": 6, "velocity": 114}, {"time": 330, "pitch": 67, "duration": 6, "velocity": 116}, {"time": 336, "pitch": 70, "duration": 4, "velocity": 117}, {"time": 342, "pitch": 70, "duration": 10, "velocity": 119}, {"time": 558, "pitch": 72, "duration": 4, "velocity": 110}, {"time": 564, "pitch": 77, "duration": 6, "velocity": 114}, {"time": 570, "pitch": 74, "duration": 5, "velocity": 114}, {"time": 576, "pitch": 67, "duration": 5, "velocity": 114}, {"time": 582, "pitch": 70, "duration": 11, "velocity": 116}, {"time": 768, "pitch": 74, "duration": 4, "velocity": 114}, {"time": 771, "pitch": 77, "duration": 4, "velocity": 102}, {"time": 774, "pitch": 72, "duration": 6, "velocity": 108}, {"time": 780, "pitch": 70, "duration": 6, "velocity": 113}, {"time": 786, "pitch": 67, "duration": 6, "velocity": 114}, {"time": 792, "pitch": 72, "duration": 5, "velocity": 114}, {"time": 798, "pitch": 70, "duration": 4, "velocity": 113}, {"time": 804, "pitch": 67, "duration": 6, "velocity": 107}, {"time": 810, "pitch": 70, "duration": 8, "velocity": 113}, {"time": 1206, "pitch": 70, "duration": 21, "velocity": 114}, {"time": 1230, "pitch": 74, "duration": 9, "velocity": 116}, {"time": 1242, "pitch": 67, "duration": 4, "velocity": 117}, {"time": 1248, "pitch": 70, "duration": 4, "velocity": 119}, {"time": 1254, "pitch": 72, "duration": 6, "velocity": 120}, {"time": 1260, "pitch": 77, "duration": 6, "velocity": 114}, {"time": 1278, "pitch": 70, "duration": 5, "velocity": 116}, {"time": 1284, "pitch": 72, "duration": 6, "velocity": 114}, {"time": 1290, "pitch": 67, "duration": 6, "velocity": 119}, {"time": 1296, "pitch": 70, "duration": 5, "velocity": 116}, {"time": 1302, "pitch": 72, "duration": 5, "velocity": 120}, {"time": 1320, "pitch": 74, "duration": 6, "velocity": 117}, {"time": 1326, "pitch": 77, "duration": 7, "velocity": 110}, {"time": 1332, "pitch": 74, "duration": 6, "velocity": 114}, {"time": 1338, "pitch": 67, "duration": 6, "velocity": 116}, {"time": 1344, "pitch": 70, "duration": 4, "velocity": 117}, {"time": 1350, "pitch": 70, "duration": 10, "velocity": 119}, {"time": 1776, "pitch": 74, "duration": 4, "velocity": 114}, {"time": 1779, "pitch": 77, "duration": 4, "velocity": 102}, {"time": 1782, "pitch": 72, "duration": 6, "velocity": 108}, {"time": 1788, "pitch": 70, "duration": 6, "velocity": 113}, {"time": 1794, "pitch": 67, "duration": 6, "velocity": 114}, {"time": 1800, "pitch": 72, "duration": 5, "velocity": 114}, {"time": 1806, "pitch": 70, "duration": 4, "velocity": 113}, {"time": 1812, "pitch": 67, "duration": 6, "velocity": 107}, {"time": 1818, "pitch": 70, "duration": 8, "velocity": 113}, {"time": 1830, "pitch": 74, "duration": 32, "velocity": 107}, {"time": 1878, "pitch": 75, "duration": 25, "velocity": 113}, {"time": 1902, "pitch": 77, "duration": 11, "velocity": 108}, {"time": 1914, "pitch": 70, "duration": 12, "velocity": 108}, {"time": 1926, "pitch": 72, "duration": 21, "velocity": 108}, {"time": 1950, "pitch": 74, "duration": 21, "velocity": 108}, {"time": 1974, "pitch": 70, "duration": 21, "velocity": 108}, {"time": 1998, "pitch": 69, "duration": 21, "velocity": 108}, {"time": 2022, "pitch": 70, "duration": 15, "velocity": 117}, {"time": 2040, "pitch": 72, "duration": 5, "velocity": 116}, {"time": 2046, "pitch": 74, "duration": 6, "velocity": 119}, {"time": 2070, "pitch": 67, "duration": 17, "velocity": 116}, {"time": 2088, "pitch": 69, "duration": 4, "velocity": 108}, {"time": 2094, "pitch": 70, "duration": 6, "velocity": 114}, {"time": 2118, "pitch": 72, "duration": 10, "velocity": 114}, {"time": 2142, "pitch": 74, "duration": 8, "velocity": 113}, {"time": 2166, "pitch": 74, "duration": 12, "velocity": 108}, {"time": 2178, "pitch": 67, "duration": 8, "velocity": 100}, {"time": 2190, "pitch": 65, "duration": 6, "velocity": 116}, {"time": 2598, "pitch": 70, "duration": 21, "velocity": 114}, {"time": 2622, "pitch": 74, "duration": 9, "velocity": 116}, {"time": 2634, "pitch": 67, "duration": 4, "velocity": 117}, {"time": 2640, "pitch": 70, "duration": 4, "velocity": 119}, {"time": 2646, "pitch": 72, "duration": 6, "velocity": 120}, {"time": 2652, "pitch": 77, "duration": 6, "velocity": 114}, {"time": 2670, "pitch": 70, "duration": 5, "velocity": 116}, {"time": 2676, "pitch": 72, "duration": 6, "velocity": 114}, {"time": 2682, "pitch": 67, "duration": 6, "velocity": 119}, {"time": 2688, "pitch": 70, "duration": 5, "velocity": 116}, {"time": 2694, "pitch": 72, "duration": 5, "velocity": 120}, {"time": 2712, "pitch": 74, "duration": 6, "velocity": 117}, {"time": 2718, "pitch": 77, "duration": 7, "velocity": 110}, {"time": 2724, "pitch": 74, "duration": 6, "velocity": 114}, {"time": 2730, "pitch": 67, "duration": 6, "velocity": 116}, {"time": 2736, "pitch": 70, "duration": 4, "velocity": 117}, {"time": 2742, "pitch": 70, "duration": 10, "velocity": 119}, {"time": 2790, "pitch": 74, "duration": 32, "velocity": 107}, {"time": 2838, "pitch": 75, "duration": 25, "velocity": 113}, {"time": 2862, "pitch": 77, "duration": 11, "velocity": 108}, {"time": 2874, "pitch": 70, "duration": 12, "velocity": 108}, {"time": 2886, "pitch": 72, "duration": 21, "velocity": 108}, {"time": 2910, "pitch": 74, "duration": 21, "velocity": 108}, {"time": 2934, "pitch": 70, "duration": 21, "velocity": 108}, {"time": 2958, "pitch": 69, "duration": 21, "velocity": 108}, {"time": 2982, "pitch": 70, "duration": 15, "velocity": 117}, {"time": 3000, "pitch": 72, "duration": 5, "velocity": 116}, {"time": 3006, "pitch": 74, "duration": 6, "velocity": 119}, {"time": 3030, "pitch": 67, "duration": 17, "velocity": 116}, {"time": 3048, "pitch": 69, "duration": 4, "velocity": 108}, {"time": 3054, "pitch": 70, "duration": 6, "velocity": 114}, {"time": 3078, "pitch": 72, "duration": 10, "velocity": 114}, {"time": 3102, "pitch": 74, "duration": 8, "velocity": 113}, {"time": 3126, "pitch": 74, "duration": 12, "velocity": 108}, {"time": 3138, "pitch": 67, "duration": 8, "velocity": 100}, {"time": 3150, "pitch": 65, "duration": 6, "velocity": 116}, {"time": 3366, "pitch": 74, "duration": 14, "velocity": 117}, {"time": 3390, "pitch": 72, "duration": 10, "velocity": 114}, {"time": 3414, "pitch": 70, "duration": 8, "velocity": 117}, {"time": 3456, "pitch": 70, "duration": 3, "velocity": 114}, {"time": 3459, "pitch": 72, "duration": 2, "velocity": 110}, {"time": 3462, "pitch": 74, "duration": 5, "velocity": 119}, {"time": 3486, "pitch": 70, "duration": 5, "velocity": 113}, {"time": 3510, "pitch": 77, "duration": 4, "velocity": 117}, {"time": 3558, "pitch": 70, "duration": 4, "velocity": 117}]}, {"program": 0, "is_drum": false, "name": "PIANO", "notes": [{"time": 6, "pitch": 46, "duration": 22, "velocity": 98}, {"time": 12, "pitch": 53, "duration": 14, "velocity": 82}, {"time": 18, "pitch": 58, "duration": 13, "velocity": 84}, {"time": 24, "pitch": 65, "duration": 7, "velocity": 88}, {"time": 30, "pitch": 41, "duration": 20, "velocity": 94}, {"time": 36, "pitch": 57, "duration": 19, "velocity": 80}, {"time": 42, "pitch": 65, "duration": 13, "velocity": 82}, {"time": 48, "pitch": 60, "duration": 7, "velocity": 86}, {"time": 54, "pitch": 39, "duration": 35, "velocity": 100}, {"time": 60, "pitch": 51, "duration": 25, "velocity": 84}, {"time": 66, "pitch": 55, "duration": 21, "velocity": 82}, {"time": 72, "pitch": 63, "duration": 16, "velocity": 90}, {"time": 78, "pitch": 58, "duration": 10, "velocity": 78}, {"time": 90, "pitch": 41, "duration": 8, "velocity": 87}, {"time": 90, "pitch": 53, "duration": 12, "velocity": 81}, {"time": 90, "pitch": 57, "duration": 13, "velocity": 84}, {"time": 90, "pitch": 60, "duration": 13, "velocity": 85}, {"time": 102, "pitch": 46, "duration": 20, "velocity": 91}, {"time": 108, "pitch": 53, "duration": 15, "velocity": 84}, {"time": 114, "pitch": 58, "duration": 11, "velocity": 78}, {"time": 120, "pitch": 62, "duration": 6, "velocity": 86}, {"time": 126, "pitch": 46, "duration": 19, "velocity": 86}, {"time": 132, "pitch": 53, "duration": 13, "velocity": 85}, {"time": 138, "pitch": 58, "duration": 12, "velocity": 83}, {"time": 144, "pitch": 62, "duration": 5, "velocity": 82}, {"time": 150, "pitch": 41, "duration": 43, "velocity": 87}, {"time": 156, "pitch": 48, "duration": 37, "velocity": 75}, {"time": 162, "pitch": 65, "duration": 8, "velocity": 89}, {"time": 168, "pitch": 53, "duration": 7, "velocity": 74}, {"time": 174, "pitch": 60, "duration": 7, "velocity": 86}, {"time": 180, "pitch": 53, "duration": 14, "velocity": 72}, {"time": 186, "pitch": 57, "duration": 9, "velocity": 85}, {"time": 192, "pitch": 60, "duration": 4, "velocity": 87}, {"time": 198, "pitch": 46, "duration": 18, "velocity": 92}, {"time": 204, "pitch": 53, "duration": 7, "velocity": 82}, {"time": 210, "pitch": 58, "duration": 14, "velocity": 89}, {"time": 210, "pitch": 65, "duration": 12, "velocity": 92}, {"time": 216, "pitch": 62, "duration": 8, "velocity": 85}, {"time": 222, "pitch": 43, "duration": 19, "velocity": 91}, {"time": 228, "pitch": 50, "duration": 12, "velocity": 87}, {"time": 234, "pitch": 58, "duration": 14, "velocity": 89}, {"time": 234, "pitch": 67, "duration": 14, "velocity": 92}, {"time": 240, "pitch": 62, "duration": 9, "velocity": 85}, {"time": 246, "pitch": 41, "duration": 42, "velocity": 91}, {"time": 252, "pitch": 48, "duration": 36, "velocity": 85}, {"time": 258, "pitch": 65, "duration": 12, "velocity": 84}, {"time": 264, "pitch": 53, "duration": 7, "velocity": 70}, {"time": 270, "pitch": 60, "duration": 7, "velocity": 85}, {"time": 276, "pitch": 53, "duration": 12, "velocity": 75}, {"time": 282, "pitch": 57, "duration": 11, "velocity": 86}, {"time": 282, "pitch": 65, "duration": 11, "velocity": 79}, {"time": 288, "pitch": 60, "duration": 7, "velocity": 84}, {"time": 294, "pitch": 39, "duration": 20, "velocity": 100}, {"time": 300, "pitch": 51, "duration": 15, "velocity": 85}, {"time": 306, "pitch": 55, "duration": 14, "velocity": 86}, {"time": 306, "pitch": 63, "duration": 14, "velocity": 85}, {"time": 312, "pitch": 58, "duration": 10, "velocity": 81}, {"time": 318, "pitch": 41, "duration": 19, "velocity": 89}, {"time": 324, "pitch": 48, "duration": 13, "velocity": 86}, {"time": 330, "pitch": 53, "duration": 10, "velocity": 80}, {"time": 330, "pitch": 57, "duration": 13, "velocity": 88}, {"time": 330, "pitch": 65, "duration": 13, "velocity": 89}, {"time": 336, "pitch": 60, "duration": 8, "velocity": 84}, {"time": 342, "pitch": 46, "duration": 42, "velocity": 89}, {"time": 348, "pitch": 53, "duration": 20, "velocity": 86}, {"time": 354, "pitch": 58, "duration": 17, "velocity": 86}, {"time": 360, "pitch": 62, "duration": 7, "velocity": 87}, {"time": 366, "pitch": 65, "duration": 6, "velocity": 88}, {"time": 372, "pitch": 53, "duration": 12, "velocity": 67}, {"time": 378, "pitch": 62, "duration": 7, "velocity": 94}, {"time": 378, "pitch": 70, "duration": 12, "velocity": 91}, {"time": 384, "pitch": 65, "duration": 6, "velocity": 84}, {"time": 390, "pitch": 46, "duration": 19, "velocity": 98}, {"time": 396, "pitch": 53, "duration": 13, "velocity": 82}, {"time": 402, "pitch": 58, "duration": 13, "velocity": 90}, {"time": 402, "pitch": 65, "duration": 13, "velocity": 82}, {"time": 408, "pitch": 62, "duration": 7, "velocity": 81}, {"time": 414, "pitch": 46, "duration": 19, "velocity": 89}, {"time": 420, "pitch": 55, "duration": 12, "velocity": 86}, {"time": 426, "pitch": 60, "duration": 9, "velocity": 86}, {"time": 426, "pitch": 67, "duration": 10, "velocity": 88}, {"time": 438, "pitch": 43, "duration": 18, "velocity": 88}, {"time": 444, "pitch": 50, "duration": 12, "velocity": 77}, {"time": 450, "pitch": 58, "duration": 14, "velocity": 86}, {"time": 450, "pitch": 67, "duration": 14, "velocity": 86}, {"time": 456, "pitch": 62, "duration": 7, "velocity": 82}, {"time": 462, "pitch": 43, "duration": 18, "velocity": 74}, {"time": 462, "pitch": 55, "duration": 9, "velocity": 71}, {"time": 462, "pitch": 62, "duration": 1, "velocity": 63}, {"time": 474, "pitch": 55, "duration": 9, "velocity": 69}, {"time": 474, "pitch": 62, "duration": 10, "velocity": 80}, {"time": 486, "pitch": 48, "duration": 18, "velocity": 88}, {"time": 492, "pitch": 55, "duration": 12, "velocity": 73}, {"time": 498, "pitch": 60, "duration": 12, "velocity": 86}, {"time": 498, "pitch": 67, "duration": 12, "velocity": 84}, {"time": 504, "pitch": 63, "duration": 6, "velocity": 80}, {"time": 510, "pitch": 43, "duration": 19, "velocity": 85}, {"time": 516, "pitch": 50, "duration": 12, "velocity": 74}, {"time": 522, "pitch": 58, "duration": 13, "velocity": 80}, {"time": 522, "pitch": 65, "duration": 7, "velocity": 84}, {"time": 528, "pitch": 62, "duration": 6, "velocity": 82}, {"time": 534, "pitch": 39, "duration": 19, "velocity": 87}, {"time": 540, "pitch": 51, "duration": 13, "velocity": 80}, {"time": 546, "pitch": 55, "duration": 14, "velocity": 77}, {"time": 546, "pitch": 63, "duration": 14, "velocity": 80}, {"time": 552, "pitch": 58, "duration": 9, "velocity": 72}, {"time": 558, "pitch": 41, "duration": 19, "velocity": 86}, {"time": 564, "pitch": 48, "duration": 13, "velocity": 78}, {"time": 570, "pitch": 53, "duration": 12, "velocity": 87}, {"time": 576, "pitch": 58, "duration": 6, "velocity": 86}, {"time": 582, "pitch": 46, "duration": 19, "velocity": 86}, {"time": 588, "pitch": 53, "duration": 14, "velocity": 81}, {"time": 594, "pitch": 58, "duration": 13, "velocity": 79}, {"time": 594, "pitch": 65, "duration": 6, "velocity": 71}, {"time": 600, "pitch": 62, "duration": 9, "velocity": 80}, {"time": 606, "pitch": 46, "duration": 19, "velocity": 88}, {"time": 612, "pitch": 55, "duration": 12, "velocity": 78}, {"time": 618, "pitch": 60, "duration": 13, "velocity": 86}, {"time": 618, "pitch": 67, "duration": 12, "velocity": 86}, {"time": 624, "pitch": 63, "duration": 8, "velocity": 80}, {"time": 630, "pitch": 43, "duration": 19, "velocity": 88}, {"time": 636, "pitch": 50, "duration": 13, "velocity": 81}, {"time": 642, "pitch": 58, "duration": 12, "velocity": 82}, {"time": 642, "pitch": 67, "duration": 12, "velocity": 84}, {"time": 648, "pitch": 62, "duration": 7, "velocity": 80}, {"time": 654, "pitch": 43, "duration": 18, "velocity": 81}, {"time": 660, "pitch": 50, "duration": 13, "velocity": 68}, {"time": 666, "pitch": 55, "duration": 9, "velocity": 77}, {"time": 666, "pitch": 62, "duration": 9, "velocity": 80}, {"time": 672, "pitch": 58, "duration": 4, "velocity": 81}, {"time": 678, "pitch": 48, "duration": 19, "velocity": 67}, {"time": 684, "pitch": 55, "duration": 19, "velocity": 67}, {"time": 690, "pitch": 63, "duration": 12, "velocity": 96}, {"time": 696, "pitch": 60, "duration": 7, "velocity": 87}, {"time": 702, "pitch": 43, "duration": 19, "velocity": 87}, {"time": 708, "pitch": 55, "duration": 19, "velocity": 76}, {"time": 714, "pitch": 62, "duration": 11, "velocity": 93}, {"time": 720, "pitch": 58, "duration": 7, "velocity": 87}, {"time": 726, "pitch": 39, "duration": 9, "velocity": 91}, {"time": 732, "pitch": 51, "duration": 6, "velocity": 82}, {"time": 738, "pitch": 41, "duration": 7, "velocity": 88}, {"time": 744, "pitch": 57, "duration": 7, "velocity": 86}, {"time": 750, "pitch": 46, "duration": 18, "velocity": 86}, {"time": 750, "pitch": 58, "duration": 8, "velocity": 81}, {"time": 750, "pitch": 65, "duration": 7, "velocity": 86}, {"time": 756, "pitch": 53, "duration": 12, "velocity": 74}, {"time": 762, "pitch": 58, "duration": 9, "velocity": 90}, {"time": 762, "pitch": 65, "duration": 7, "velocity": 88}, {"time": 768, "pitch": 62, "duration": 2, "velocity": 82}, {"time": 774, "pitch": 48, "duration": 12, "velocity": 86}, {"time": 774, "pitch": 55, "duration": 8, "velocity": 83}, {"time": 774, "pitch": 60, "duration": 23, "velocity": 88}, {"time": 774, "pitch": 63, "duration": 9, "velocity": 88}, {"time": 786, "pitch": 41, "duration": 8, "velocity": 86}, {"time": 786, "pitch": 57, "duration": 11, "velocity": 81}, {"time": 786, "pitch": 65, "duration": 11, "velocity": 86}, {"time": 798, "pitch": 46, "duration": 21, "velocity": 84}, {"time": 798, "pitch": 58, "duration": 6, "velocity": 84}, {"time": 798, "pitch": 62, "duration": 7, "velocity": 83}, {"time": 804, "pitch": 53, "duration": 17, "velocity": 70}, {"time": 810, "pitch": 60, "duration": 7, "velocity": 90}, {"time": 810, "pitch": 65, "duration": 7, "velocity": 92}, {"time": 816, "pitch": 58, "duration": 3, "velocity": 82}, {"time": 822, "pitch": 46, "duration": 19, "velocity": 93}, {"time": 822, "pitch": 62, "duration": 6, "velocity": 89}, {"time": 822, "pitch": 65, "duration": 6, "velocity": 88}, {"time": 828, "pitch": 53, "duration": 8, "velocity": 67}, {"time": 834, "pitch": 58, "duration": 7, "velocity": 89}, {"time": 834, "pitch": 65, "duration": 8, "velocity": 93}, {"time": 840, "pitch": 53, "duration": 6, "velocity": 78}, {"time": 846, "pitch": 41, "duration": 15, "velocity": 88}, {"time": 846, "pitch": 57, "duration": 8, "velocity": 87}, {"time": 846, "pitch": 65, "duration": 8, "velocity": 88}, {"time": 852, "pitch": 53, "duration": 8, "velocity": 75}, {"time": 858, "pitch": 57, "duration": 8, "velocity": 96}, {"time": 858, "pitch": 65, "duration": 8, "velocity": 102}, {"time": 864, "pitch": 41, "duration": 7, "velocity": 82}, {"time": 870, "pitch": 39, "duration": 12, "velocity": 90}, {"time": 870, "pitch": 55, "duration": 9, "velocity": 38}, {"time": 870, "pitch": 58, "duration": 12, "velocity": 88}, {"time": 870, "pitch": 63, "duration": 9, "velocity": 91}, {"time": 882, "pitch": 41, "duration": 8, "velocity": 79}, {"time": 882, "pitch": 57, "duration": 13, "velocity": 88}, {"time": 882, "pitch": 65, "duration": 13, "velocity": 88}, {"time": 894, "pitch": 46, "duration": 19, "velocity": 84}, {"time": 894, "pitch": 58, "duration": 6, "velocity": 87}, {"time": 894, "pitch": 62, "duration": 6, "velocity": 84}, {"time": 900, "pitch": 53, "duration": 8, "velocity": 80}, {"time": 906, "pitch": 60, "duration": 9, "velocity": 98}, {"time": 906, "pitch": 65, "duration": 11, "velocity": 100}, {"time": 912, "pitch": 62, "duration": 8, "velocity": 85}, {"time": 918, "pitch": 48, "duration": 19, "velocity": 86}, {"time": 918, "pitch": 60, "duration": 1, "velocity": 71}, {"time": 924, "pitch": 55, "duration": 13, "velocity": 84}, {"time": 930, "pitch": 60, "duration": 13, "velocity": 91}, {"time": 930, "pitch": 67, "duration": 13, "velocity": 91}, {"time": 936, "pitch": 63, "duration": 7, "velocity": 82}, {"time": 942, "pitch": 41, "duration": 19, "velocity": 89}, {"time": 948, "pitch": 53, "duration": 12, "velocity": 83}, {"time": 954, "pitch": 57, "duration": 14, "velocity": 87}, {"time": 954, "pitch": 65, "duration": 14, "velocity": 87}, {"time": 960, "pitch": 60, "duration": 7, "velocity": 82}, {"time": 966, "pitch": 39, "duration": 19, "velocity": 96}, {"time": 972, "pitch": 51, "duration": 13, "velocity": 86}, {"time": 978, "pitch": 55, "duration": 14, "velocity": 96}, {"time": 978, "pitch": 63, "duration": 18, "velocity": 91}, {"time": 984, "pitch": 58, "duration": 13, "velocity": 84}, {"time": 990, "pitch": 41, "duration": 18, "velocity": 86}, {"time": 993, "pitch": 48, "duration": 16, "velocity": 78}, {"time": 996, "pitch": 53, "duration": 19, "velocity": 89}, {"time": 999, "pitch": 57, "duration": 5, "velocity": 88}, {"time": 1002, "pitch": 65, "duration": 7, "velocity": 108}, {"time": 1005, "pitch": 57, "duration": 6, "velocity": 77}, {"time": 1008, "pitch": 60, "duration": 4, "velocity": 87}, {"time": 1011, "pitch": 65, "duration": 4, "velocity": 88}, {"time": 1014, "pitch": 46, "duration": 19, "velocity": 86}, {"time": 1014, "pitch": 58, "duration": 7, "velocity": 82}, {"time": 1014, "pitch": 65, "duration": 1, "velocity": 84}, {"time": 1020, "pitch": 53, "duration": 13, "velocity": 72}, {"time": 1026, "pitch": 58, "duration": 10, "velocity": 96}, {"time": 1026, "pitch": 65, "duration": 18, "velocity": 93}, {"time": 1038, "pitch": 41, "duration": 19, "velocity": 83}, {"time": 1038, "pitch": 57, "duration": 7, "velocity": 84}, {"time": 1044, "pitch": 53, "duration": 12, "velocity": 81}, {"time": 1050, "pitch": 65, "duration": 10, "velocity": 107}, {"time": 1056, "pitch": 60, "duration": 6, "velocity": 91}, {"time": 1062, "pitch": 39, "duration": 12, "velocity": 88}, {"time": 1062, "pitch": 55, "duration": 9, "velocity": 86}, {"time": 1062, "pitch": 63, "duration": 9, "velocity": 92}, {"time": 1074, "pitch": 41, "duration": 7, "velocity": 83}, {"time": 1074, "pitch": 57, "duration": 13, "velocity": 88}, {"time": 1074, "pitch": 65, "duration": 12, "velocity": 91}, {"time": 1086, "pitch": 46, "duration": 19, "velocity": 85}, {"time": 1086, "pitch": 58, "duration": 6, "velocity": 81}, {"time": 1086, "pitch": 62, "duration": 6, "velocity": 82}, {"time": 1092, "pitch": 53, "duration": 8, "velocity": 77}, {"time": 1098, "pitch": 58, "duration": 8, "velocity": 87}, {"time": 1098, "pitch": 65, "duration": 11, "velocity": 89}, {"time": 1104, "pitch": 53, "duration": 7, "velocity": 74}, {"time": 1110, "pitch": 48, "duration": 20, "velocity": 84}, {"time": 1110, "pitch": 60, "duration": 7, "velocity": 87}, {"time": 1110, "pitch": 67, "duration": 7, "velocity": 89}, {"time": 1116, "pitch": 55, "duration": 13, "velocity": 66}, {"time": 1122, "pitch": 60, "duration": 12, "velocity": 90}, {"time": 1122, "pitch": 67, "duration": 9, "velocity": 89}, {"time": 1134, "pitch": 41, "duration": 20, "velocity": 84}, {"time": 1134, "pitch": 57, "duration": 7, "velocity": 87}, {"time": 1134, "pitch": 65, "duration": 6, "velocity": 88}, {"time": 1140, "pitch": 53, "duration": 12, "velocity": 71}, {"time": 1146, "pitch": 57, "duration": 8, "velocity": 86}, {"time": 1146, "pitch": 65, "duration": 8, "velocity": 88}, {"time": 1158, "pitch": 39, "duration": 8, "velocity": 93}, {"time": 1164, "pitch": 55, "duration": 6, "velocity": 84}, {"time": 1164, "pitch": 63, "duration": 4, "velocity": 81}, {"time": 1170, "pitch": 40, "duration": 9, "velocity": 86}, {"time": 1170, "pitch": 55, "duration": 9, "velocity": 87}, {"time": 1170, "pitch": 64, "duration": 10, "velocity": 91}, {"time": 1182, "pitch": 41, "duration": 21, "velocity": 85}, {"time": 1182, "pitch": 57, "duration": 13, "velocity": 83}, {"time": 1182, "pitch": 65, "duration": 16, "velocity": 91}, {"time": 1188, "pitch": 48, "duration": 16, "velocity": 73}, {"time": 1194, "pitch": 53, "duration": 10, "velocity": 84}, {"time": 1200, "pitch": 60, "duration": 4, "velocity": 86}, {"time": 1206, "pitch": 46, "duration": 19, "velocity": 89}, {"time": 1212, "pitch": 53, "duration": 12, "velocity": 81}, {"time": 1218, "pitch": 58, "duration": 13, "velocity": 88}, {"time": 1218, "pitch": 65, "duration": 10, "velocity": 89}, {"time": 1224, "pitch": 62, "duration": 7, "velocity": 86}, {"time": 1230, "pitch": 43, "duration": 20, "velocity": 88}, {"time": 1236, "pitch": 50, "duration": 14, "velocity": 85}, {"time": 1242, "pitch": 55, "duration": 16, "velocity": 86}, {"time": 1248, "pitch": 58, "duration": 12, "velocity": 86}, {"time": 1254, "pitch": 41, "duration": 21, "velocity": 89}, {"time": 1260, "pitch": 48, "duration": 19, "velocity": 84}, {"time": 1266, "pitch": 60, "duration": 18, "velocity": 88}, {"time": 1272, "pitch": 57, "duration": 12, "velocity": 82}, {"time": 1275, "pitch": 41, "duration": 19, "velocity": 81}, {"time": 1284, "pitch": 48, "duration": 12, "velocity": 78}, {"time": 1290, "pitch": 60, "duration": 7, "velocity": 88}, {"time": 1296, "pitch": 57, "duration": 11, "velocity": 83}, {"time": 1302, "pitch": 39, "duration": 19, "velocity": 93}, {"time": 1308, "pitch": 51, "duration": 18, "velocity": 87}, {"time": 1314, "pitch": 55, "duration": 14, "velocity": 91}, {"time": 1320, "pitch": 58, "duration": 11, "velocity": 88}, {"time": 1326, "pitch": 41, "duration": 17, "velocity": 88}, {"time": 1332, "pitch": 48, "duration": 12, "velocity": 85}, {"time": 1338, "pitch": 57, "duration": 13, "velocity": 90}, {"time": 1344, "pitch": 60, "duration": 8, "velocity": 93}, {"time": 1350, "pitch": 46, "duration": 43, "velocity": 88}, {"time": 1356, "pitch": 53, "duration": 36, "velocity": 80}, {"time": 1362, "pitch": 58, "duration": 14, "velocity": 87}, {"time": 1368, "pitch": 60, "duration": 7, "velocity": 83}, {"time": 1374, "pitch": 62, "duration": 10, "velocity": 87}, {"time": 1383, "pitch": 58, "duration": 9, "velocity": 84}, {"time": 1386, "pitch": 60, "duration": 7, "velocity": 92}, {"time": 1392, "pitch": 62, "duration": 18, "velocity": 85}, {"time": 1398, "pitch": 46, "duration": 21, "velocity": 84}, {"time": 1398, "pitch": 58, "duration": 8, "velocity": 82}, {"time": 1398, "pitch": 65, "duration": 6, "velocity": 85}, {"time": 1404, "pitch": 53, "duration": 16, "velocity": 60}, {"time": 1410, "pitch": 58, "duration": 9, "velocity": 87}, {"time": 1410, "pitch": 65, "duration": 13, "velocity": 89}, {"time": 1422, "pitch": 46, "duration": 24, "velocity": 80}, {"time": 1422, "pitch": 60, "duration": 10, "velocity": 86}, {"time": 1422, "pitch": 63, "duration": 9, "velocity": 82}, {"time": 1422, "pitch": 67, "duration": 10, "velocity": 88}, {"time": 1434, "pitch": 60, "duration": 12, "velocity": 76}, {"time": 1434, "pitch": 63, "duration": 5, "velocity": 78}, {"time": 1434, "pitch": 67, "duration": 7, "velocity": 77}, {"time": 1446, "pitch": 43, "duration": 21, "velocity": 78}, {"time": 1446, "pitch": 58, "duration": 10, "velocity": 80}, {"time": 1446, "pitch": 62, "duration": 10, "velocity": 82}, {"time": 1446, "pitch": 65, "duration": 9, "velocity": 84}, {"time": 1458, "pitch": 58, "duration": 8, "velocity": 80}, {"time": 1458, "pitch": 62, "duration": 7, "velocity": 84}, {"time": 1458, "pitch": 65, "duration": 7, "velocity": 83}, {"time": 1470, "pitch": 43, "duration": 22, "velocity": 78}, {"time": 1470, "pitch": 55, "duration": 9, "velocity": 76}, {"time": 1470, "pitch": 58, "duration": 9, "velocity": 79}, {"time": 1470, "pitch": 62, "duration": 8, "velocity": 82}, {"time": 1482, "pitch": 55, "duration": 8, "velocity": 81}, {"time": 1482, "pitch": 58, "duration": 9, "velocity": 77}, {"time": 1482, "pitch": 62, "duration": 8, "velocity": 84}, {"time": 1494, "pitch": 48, "duration": 25, "velocity": 84}, {"time": 1494, "pitch": 55, "duration": 9, "velocity": 80}, {"time": 1494, "pitch": 60, "duration": 9, "velocity": 82}, {"time": 1494, "pitch": 63, "duration": 9, "velocity": 84}, {"time": 1506, "pitch": 55, "duration": 8, "velocity": 86}, {"time": 1506, "pitch": 60, "duration": 12, "velocity": 88}, {"time": 1506, "pitch": 63, "duration": 8, "velocity": 88}, {"time": 1518, "pitch": 43, "duration": 20, "velocity": 78}, {"time": 1518, "pitch": 55, "duration": 6, "velocity": 77}, {"time": 1518, "pitch": 58, "duration": 8, "velocity": 78}, {"time": 1518, "pitch": 62, "duration": 6, "velocity": 69}, {"time": 1524, "pitch": 50, "duration": 7, "velocity": 64}, {"time": 1530, "pitch": 55, "duration": 10, "velocity": 84}, {"time": 1530, "pitch": 58, "duration": 23, "velocity": 84}, {"time": 1530, "pitch": 62, "duration": 8, "velocity": 86}, {"time": 1542, "pitch": 39, "duration": 21, "velocity": 83}, {"time": 1542, "pitch": 55, "duration": 9, "velocity": 83}, {"time": 1542, "pitch": 63, "duration": 8, "velocity": 87}, {"time": 1554, "pitch": 55, "duration": 10, "velocity": 84}, {"time": 1554, "pitch": 58, "duration": 11, "velocity": 83}, {"time": 1554, "pitch": 63, "duration": 9, "velocity": 83}, {"time": 1566, "pitch": 41, "duration": 18, "velocity": 84}, {"time": 1566, "pitch": 57, "duration": 11, "velocity": 89}, {"time": 1566, "pitch": 60, "duration": 10, "velocity": 87}, {"time": 1572, "pitch": 48, "duration": 13, "velocity": 68}, {"time": 1578, "pitch": 53, "duration": 13, "velocity": 87}, {"time": 1578, "pitch": 55, "duration": 8, "velocity": 87}, {"time": 1578, "pitch": 60, "duration": 12, "velocity": 87}, {"time": 1584, "pitch": 57, "duration": 7, "velocity": 87}, {"time": 1590, "pitch": 46, "duration": 19, "velocity": 81}, {"time": 1590, "pitch": 58, "duration": 6, "velocity": 85}, {"time": 1590, "pitch": 62, "duration": 6, "velocity": 84}, {"time": 1596, "pitch": 53, "duration": 13, "velocity": 70}, {"time": 1599, "pitch": 58, "duration": 9, "velocity": 84}, {"time": 1602, "pitch": 60, "duration": 7, "velocity": 88}, {"time": 1608, "pitch": 62, "duration": 7, "velocity": 81}, {"time": 1614, "pitch": 46, "duration": 21, "velocity": 76}, {"time": 1614, "pitch": 60, "duration": 10, "velocity": 82}, {"time": 1614, "pitch": 63, "duration": 10, "velocity": 84}, {"time": 1614, "pitch": 67, "duration": 10, "velocity": 82}, {"time": 1626, "pitch": 60, "duration": 9, "velocity": 81}, {"time": 1626, "pitch": 63, "duration": 11, "velocity": 83}, {"time": 1626, "pitch": 67, "duration": 10, "velocity": 83}, {"time": 1638, "pitch": 46, "duration": 22, "velocity": 80}, {"time": 1638, "pitch": 58, "duration": 8, "velocity": 78}, {"time": 1638, "pitch": 62, "duration": 8, "velocity": 84}, {"time": 1638, "pitch": 65, "duration": 8, "velocity": 77}, {"time": 1650, "pitch": 58, "duration": 8, "velocity": 81}, {"time": 1650, "pitch": 62, "duration": 6, "velocity": 84}, {"time": 1650, "pitch": 65, "duration": 9, "velocity": 82}, {"time": 1662, "pitch": 43, "duration": 20, "velocity": 77}, {"time": 1662, "pitch": 55, "duration": 9, "velocity": 73}, {"time": 1662, "pitch": 58, "duration": 9, "velocity": 77}, {"time": 1662, "pitch": 62, "duration": 9, "velocity": 80}, {"time": 1668, "pitch": 50, "duration": 10, "velocity": 72}, {"time": 1674, "pitch": 55, "duration": 9, "velocity": 91}, {"time": 1674, "pitch": 62, "duration": 7, "velocity": 91}, {"time": 1680, "pitch": 58, "duration": 5, "velocity": 75}, {"time": 1686, "pitch": 48, "duration": 24, "velocity": 84}, {"time": 1686, "pitch": 55, "duration": 10, "velocity": 86}, {"time": 1686, "pitch": 60, "duration": 10, "velocity": 87}, {"time": 1686, "pitch": 63, "duration": 10, "velocity": 86}, {"time": 1698, "pitch": 55, "duration": 9, "velocity": 85}, {"time": 1698, "pitch": 60, "duration": 10, "velocity": 87}, {"time": 1698, "pitch": 63, "duration": 9, "velocity": 87}, {"time": 1710, "pitch": 43, "duration": 23, "velocity": 83}, {"time": 1710, "pitch": 55, "duration": 10, "velocity": 85}, {"time": 1710, "pitch": 58, "duration": 9, "velocity": 88}, {"time": 1710, "pitch": 62, "duration": 9, "velocity": 84}, {"time": 1722, "pitch": 55, "duration": 9, "velocity": 86}, {"time": 1722, "pitch": 58, "duration": 10, "velocity": 91}, {"time": 1722, "pitch": 62, "duration": 9, "velocity": 89}, {"time": 1734, "pitch": 48, "duration": 12, "velocity": 86}, {"time": 1734, "pitch": 55, "duration": 9, "velocity": 83}, {"time": 1734, "pitch": 60, "duration": 23, "velocity": 87}, {"time": 1734, "pitch": 63, "duration": 9, "velocity": 88}, {"time": 1746, "pitch": 41, "duration": 8, "velocity": 78}, {"time": 1746, "pitch": 53, "duration": 12, "velocity": 79}, {"time": 1746, "pitch": 57, "duration": 11, "velocity": 84}, {"time": 1746, "pitch": 65, "duration": 10, "velocity": 86}, {"time": 1758, "pitch": 46, "duration": 19, "velocity": 83}, {"time": 1758, "pitch": 58, "duration": 6, "velocity": 88}, {"time": 1758, "pitch": 62, "duration": 7, "velocity": 82}, {"time": 1764, "pitch": 53, "duration": 18, "velocity": 72}, {"time": 1770, "pitch": 60, "duration": 12, "velocity": 98}, {"time": 1770, "pitch": 65, "duration": 11, "velocity": 94}, {"time": 1776, "pitch": 58, "duration": 4, "velocity": 77}, {"time": 1782, "pitch": 48, "duration": 13, "velocity": 86}, {"time": 1782, "pitch": 60, "duration": 24, "velocity": 83}, {"time": 1782, "pitch": 63, "duration": 11, "velocity": 84}, {"time": 1782, "pitch": 67, "duration": 9, "velocity": 87}, {"time": 1794, "pitch": 41, "duration": 8, "velocity": 87}, {"time": 1794, "pitch": 57, "duration": 10, "velocity": 84}, {"time": 1794, "pitch": 65, "duration": 10, "velocity": 84}, {"time": 1806, "pitch": 46, "duration": 20, "velocity": 75}, {"time": 1806, "pitch": 58, "duration": 7, "velocity": 82}, {"time": 1806, "pitch": 62, "duration": 10, "velocity": 86}, {"time": 1806, "pitch": 65, "duration": 10, "velocity": 84}, {"time": 1812, "pitch": 53, "duration": 18, "velocity": 80}, {"time": 1815, "pitch": 58, "duration": 12, "velocity": 91}, {"time": 1818, "pitch": 60, "duration": 5, "velocity": 107}, {"time": 1821, "pitch": 62, "duration": 4, "velocity": 89}, {"time": 1824, "pitch": 65, "duration": 3, "velocity": 92}, {"time": 1830, "pitch": 46, "duration": 19, "velocity": 87}, {"time": 1830, "pitch": 58, "duration": 8, "velocity": 86}, {"time": 1830, "pitch": 62, "duration": 9, "velocity": 96}, {"time": 1830, "pitch": 65, "duration": 8, "velocity": 88}, {"time": 1839, "pitch": 53, "duration": 9, "velocity": 83}, {"time": 1842, "pitch": 58, "duration": 7, "velocity": 108}, {"time": 1842, "pitch": 65, "duration": 10, "velocity": 108}, {"time": 1848, "pitch": 62, "duration": 6, "velocity": 86}, {"time": 1854, "pitch": 41, "duration": 19, "velocity": 87}, {"time": 1854, "pitch": 57, "duration": 10, "velocity": 86}, {"time": 1854, "pitch": 60, "duration": 10, "velocity": 91}, {"time": 1854, "pitch": 65, "duration": 9, "velocity": 88}, {"time": 1863, "pitch": 53, "duration": 8, "velocity": 83}, {"time": 1866, "pitch": 57, "duration": 7, "velocity": 107}, {"time": 1866, "pitch": 65, "duration": 7, "velocity": 91}, {"time": 1872, "pitch": 60, "duration": 6, "velocity": 87}, {"time": 1878, "pitch": 39, "duration": 12, "velocity": 91}, {"time": 1878, "pitch": 55, "duration": 9, "velocity": 90}, {"time": 1878, "pitch": 58, "duration": 11, "velocity": 98}, {"time": 1878, "pitch": 63, "duration": 9, "velocity": 92}, {"time": 1890, "pitch": 41, "duration": 7, "velocity": 87}, {"time": 1890, "pitch": 57, "duration": 11, "velocity": 88}, {"time": 1890, "pitch": 60, "duration": 11, "velocity": 93}, {"time": 1890, "pitch": 65, "duration": 11, "velocity": 91}, {"time": 1902, "pitch": 46, "duration": 19, "velocity": 86}, {"time": 1902, "pitch": 58, "duration": 5, "velocity": 89}, {"time": 1902, "pitch": 62, "duration": 6, "velocity": 90}, {"time": 1902, "pitch": 65, "duration": 9, "velocity": 86}, {"time": 1908, "pitch": 53, "duration": 13, "velocity": 75}, {"time": 1911, "pitch": 58, "duration": 9, "velocity": 87}, {"time": 1914, "pitch": 60, "duration": 7, "velocity": 90}, {"time": 1920, "pitch": 62, "duration": 4, "velocity": 88}, {"time": 1926, "pitch": 48, "duration": 20, "velocity": 86}, {"time": 1926, "pitch": 55, "duration": 11, "velocity": 87}, {"time": 1926, "pitch": 58, "duration": 6, "velocity": 76}, {"time": 1926, "pitch": 60, "duration": 11, "velocity": 87}, {"time": 1926, "pitch": 63, "duration": 10, "velocity": 88}, {"time": 1938, "pitch": 55, "duration": 10, "velocity": 88}, {"time": 1938, "pitch": 60, "duration": 11, "velocity": 92}, {"time": 1938, "pitch": 63, "duration": 8, "velocity": 88}, {"time": 1950, "pitch": 50, "duration": 16, "velocity": 84}, {"time": 1950, "pitch": 57, "duration": 6, "velocity": 84}, {"time": 1950, "pitch": 62, "duration": 9, "velocity": 83}, {"time": 1950, "pitch": 65, "duration": 8, "velocity": 86}, {"time": 1962, "pitch": 57, "duration": 8, "velocity": 93}, {"time": 1962, "pitch": 62, "duration": 8, "velocity": 102}, {"time": 1962, "pitch": 65, "duration": 7, "velocity": 91}, {"time": 1968, "pitch": 50, "duration": 2, "velocity": 86}, {"time": 1974, "pitch": 39, "duration": 8, "velocity": 87}, {"time": 1974, "pitch": 55, "duration": 9, "velocity": 88}, {"time": 1974, "pitch": 58, "duration": 9, "velocity": 92}, {"time": 1974, "pitch": 63, "duration": 8, "velocity": 90}, {"time": 1986, "pitch": 40, "duration": 8, "velocity": 86}, {"time": 1986, "pitch": 55, "duration": 9, "velocity": 85}, {"time": 1986, "pitch": 60, "duration": 11, "velocity": 93}, {"time": 1986, "pitch": 64, "duration": 9, "velocity": 91}, {"time": 1998, "pitch": 41, "duration": 19, "velocity": 84}, {"time": 1998, "pitch": 57, "duration": 8, "velocity": 84}, {"time": 1998, "pitch": 60, "duration": 8, "velocity": 82}, {"time": 1998, "pitch": 65, "duration": 8, "velocity": 86}, {"time": 2001, "pitch": 48, "duration": 16, "velocity": 84}, {"time": 2004, "pitch": 53, "duration": 7, "velocity": 94}, {"time": 2007, "pitch": 58, "duration": 3, "velocity": 87}, {"time": 2010, "pitch": 57, "duration": 5, "velocity": 102}, {"time": 2010, "pitch": 65, "duration": 5, "velocity": 98}, {"time": 2013, "pitch": 53, "duration": 6, "velocity": 100}, {"time": 2016, "pitch": 58, "duration": 4, "velocity": 91}, {"time": 2019, "pitch": 65, "duration": 3, "velocity": 89}, {"time": 2022, "pitch": 46, "duration": 19, "velocity": 88}, {"time": 2022, "pitch": 58, "duration": 9, "velocity": 88}, {"time": 2022, "pitch": 62, "duration": 9, "velocity": 94}, {"time": 2022, "pitch": 65, "duration": 8, "velocity": 89}, {"time": 2031, "pitch": 53, "duration": 5, "velocity": 77}, {"time": 2034, "pitch": 58, "duration": 9, "velocity": 98}, {"time": 2034, "pitch": 62, "duration": 10, "velocity": 108}, {"time": 2034, "pitch": 65, "duration": 9, "velocity": 96}, {"time": 2040, "pitch": 53, "duration": 2, "velocity": 87}, {"time": 2046, "pitch": 38, "duration": 18, "velocity": 92}, {"time": 2046, "pitch": 57, "duration": 10, "velocity": 96}, {"time": 2046, "pitch": 62, "duration": 10, "velocity": 92}, {"time": 2046, "pitch": 65, "duration": 9, "velocity": 88}, {"time": 2055, "pitch": 50, "duration": 4, "velocity": 87}, {"time": 2058, "pitch": 57, "duration": 8, "velocity": 110}, {"time": 2058, "pitch": 65, "duration": 9, "velocity": 96}, {"time": 2064, "pitch": 50, "duration": 5, "velocity": 87}, {"time": 2070, "pitch": 39, "duration": 11, "velocity": 88}, {"time": 2070, "pitch": 55, "duration": 9, "velocity": 91}, {"time": 2070, "pitch": 58, "duration": 11, "velocity": 102}, {"time": 2070, "pitch": 63, "duration": 9, "velocity": 92}, {"time": 2082, "pitch": 41, "duration": 8, "velocity": 87}, {"time": 2082, "pitch": 57, "duration": 11, "velocity": 87}, {"time": 2082, "pitch": 60, "duration": 11, "velocity": 91}, {"time": 2082, "pitch": 65, "duration": 11, "velocity": 89}, {"time": 2094, "pitch": 46, "duration": 19, "velocity": 86}, {"time": 2094, "pitch": 58, "duration": 5, "velocity": 88}, {"time": 2094, "pitch": 62, "duration": 6, "velocity": 88}, {"time": 2094, "pitch": 65, "duration": 10, "velocity": 79}, {"time": 2100, "pitch": 53, "duration": 12, "velocity": 79}, {"time": 2103, "pitch": 58, "duration": 9, "velocity": 88}, {"time": 2106, "pitch": 60, "duration": 7, "velocity": 94}, {"time": 2112, "pitch": 62, "duration": 2, "velocity": 90}, {"time": 2118, "pitch": 48, "duration": 15, "velocity": 88}, {"time": 2118, "pitch": 55, "duration": 11, "velocity": 86}, {"time": 2118, "pitch": 60, "duration": 11, "velocity": 94}, {"time": 2118, "pitch": 63, "duration": 10, "velocity": 88}, {"time": 2130, "pitch": 55, "duration": 9, "velocity": 90}, {"time": 2130, "pitch": 60, "duration": 10, "velocity": 92}, {"time": 2130, "pitch": 63, "duration": 9, "velocity": 91}, {"time": 2136, "pitch": 48, "duration": 6, "velocity": 87}, {"time": 2142, "pitch": 50, "duration": 15, "velocity": 87}, {"time": 2142, "pitch": 57, "duration": 11, "velocity": 89}, {"time": 2142, "pitch": 62, "duration": 11, "velocity": 92}, {"time": 2142, "pitch": 65, "duration": 11, "velocity": 91}, {"time": 2154, "pitch": 57, "duration": 8, "velocity": 93}, {"time": 2154, "pitch": 62, "duration": 11, "velocity": 96}, {"time": 2154, "pitch": 65, "duration": 9, "velocity": 89}, {"time": 2160, "pitch": 50, "duration": 2, "velocity": 89}, {"time": 2166, "pitch": 39, "duration": 10, "velocity": 91}, {"time": 2166, "pitch": 55, "duration": 10, "velocity": 88}, {"time": 2166, "pitch": 58, "duration": 10, "velocity": 91}, {"time": 2166, "pitch": 63, "duration": 10, "velocity": 90}, {"time": 2178, "pitch": 40, "duration": 8, "velocity": 85}, {"time": 2178, "pitch": 55, "duration": 9, "velocity": 87}, {"time": 2178, "pitch": 60, "duration": 11, "velocity": 90}, {"time": 2178, "pitch": 64, "duration": 8, "velocity": 89}, {"time": 2190, "pitch": 41, "duration": 23, "velocity": 87}, {"time": 2190, "pitch": 57, "duration": 13, "velocity": 86}, {"time": 2190, "pitch": 60, "duration": 15, "velocity": 86}, {"time": 2190, "pitch": 65, "duration": 14, "velocity": 87}, {"time": 2196, "pitch": 48, "duration": 16, "velocity": 73}, {"time": 2202, "pitch": 53, "duration": 9, "velocity": 84}, {"time": 2208, "pitch": 58, "duration": 5, "velocity": 82}, {"time": 2214, "pitch": 46, "duration": 21, "velocity": 84}, {"time": 2214, "pitch": 58, "duration": 8, "velocity": 82}, {"time": 2214, "pitch": 65, "duration": 6, "velocity": 85}, {"time": 2220, "pitch": 53, "duration": 16, "velocity": 60}, {"time": 2226, "pitch": 58, "duration": 9, "velocity": 87}, {"time": 2226, "pitch": 65, "duration": 13, "velocity": 89}, {"time": 2238, "pitch": 46, "duration": 24, "velocity": 80}, {"time": 2238, "pitch": 60, "duration": 10, "velocity": 86}, {"time": 2238, "pitch": 63, "duration": 9, "velocity": 82}, {"time": 2238, "pitch": 67, "duration": 10, "velocity": 88}, {"time": 2250, "pitch": 60, "duration": 12, "velocity": 76}, {"time": 2250, "pitch": 63, "duration": 5, "velocity": 78}, {"time": 2250, "pitch": 67, "duration": 7, "velocity": 77}, {"time": 2262, "pitch": 43, "duration": 21, "velocity": 78}, {"time": 2262, "pitch": 58, "duration": 10, "velocity": 80}, {"time": 2262, "pitch": 62, "duration": 10, "velocity": 82}, {"time": 2262, "pitch": 65, "duration": 9, "velocity": 84}, {"time": 2274, "pitch": 58, "duration": 8, "velocity": 80}, {"time": 2274, "pitch": 62, "duration": 7, "velocity": 84}, {"time": 2274, "pitch": 65, "duration": 7, "velocity": 83}, {"time": 2286, "pitch": 43, "duration": 22, "velocity": 78}, {"time": 2286, "pitch": 55, "duration": 9, "velocity": 76}, {"time": 2286, "pitch": 58, "duration": 9, "velocity": 79}, {"time": 2286, "pitch": 62, "duration": 8, "velocity": 82}, {"time": 2298, "pitch": 55, "duration": 8, "velocity": 81}, {"time": 2298, "pitch": 58, "duration": 9, "velocity": 77}, {"time": 2298, "pitch": 62, "duration": 8, "velocity": 84}, {"time": 2310, "pitch": 48, "duration": 25, "velocity": 84}, {"time": 2310, "pitch": 55, "duration": 9, "velocity": 80}, {"time": 2310, "pitch": 60, "duration": 9, "velocity": 82}, {"time": 2310, "pitch": 63, "duration": 9, "velocity": 84}, {"time": 2322, "pitch": 55, "duration": 8, "velocity": 86}, {"time": 2322, "pitch": 60, "duration": 12, "velocity": 88}, {"time": 2322, "pitch": 63, "duration": 8, "velocity": 88}, {"time": 2334, "pitch": 43, "duration": 20, "velocity": 78}, {"time": 2334, "pitch": 55, "duration": 6, "velocity": 77}, {"time": 2334, "pitch": 58, "duration": 8, "velocity": 78}, {"time": 2334, "pitch": 62, "duration": 6, "velocity": 69}, {"time": 2340, "pitch": 50, "duration": 7, "velocity": 64}, {"time": 2346, "pitch": 55, "duration": 10, "velocity": 84}, {"time": 2346, "pitch": 58, "duration": 23, "velocity": 84}, {"time": 2346, "pitch": 62, "duration": 8, "velocity": 86}, {"time": 2358, "pitch": 39, "duration": 21, "velocity": 83}, {"time": 2358, "pitch": 55, "duration": 9, "velocity": 83}, {"time": 2358, "pitch": 63, "duration": 8, "velocity": 87}, {"time": 2370, "pitch": 55, "duration": 10, "velocity": 84}, {"time": 2370, "pitch": 58, "duration": 11, "velocity": 83}, {"time": 2370, "pitch": 63, "duration": 9, "velocity": 83}, {"time": 2382, "pitch": 41, "duration": 18, "velocity": 84}, {"time": 2382, "pitch": 57, "duration": 11, "velocity": 89}, {"time": 2382, "pitch": 60, "duration": 10, "velocity": 87}, {"time": 2388, "pitch": 48, "duration": 13, "velocity": 68}, {"time": 2394, "pitch": 53, "duration": 13, "velocity": 87}, {"time": 2394, "pitch": 55, "duration": 8, "velocity": 87}, {"time": 2394, "pitch": 60, "duration": 12, "velocity": 87}, {"time": 2400, "pitch": 57, "duration": 7, "velocity": 87}, {"time": 2406, "pitch": 46, "duration": 19, "velocity": 81}, {"time": 2406, "pitch": 58, "duration": 6, "velocity": 85}, {"time": 2406, "pitch": 62, "duration": 6, "velocity": 84}, {"time": 2412, "pitch": 53, "duration": 13, "velocity": 70}, {"time": 2415, "pitch": 58, "duration": 9, "velocity": 84}, {"time": 2418, "pitch": 60, "duration": 7, "velocity": 88}, {"time": 2424, "pitch": 62, "duration": 7, "velocity": 81}, {"time": 2430, "pitch": 46, "duration": 21, "velocity": 76}, {"time": 2430, "pitch": 60, "duration": 10, "velocity": 82}, {"time": 2430, "pitch": 63, "duration": 10, "velocity": 84}, {"time": 2430, "pitch": 67, "duration": 10, "velocity": 82}, {"time": 2442, "pitch": 60, "duration": 9, "velocity": 81}, {"time": 2442, "pitch": 63, "duration": 11, "velocity": 83}, {"time": 2442, "pitch": 67, "duration": 10, "velocity": 83}, {"time": 2454, "pitch": 46, "duration": 22, "velocity": 80}, {"time": 2454, "pitch": 58, "duration": 8, "velocity": 78}, {"time": 2454, "pitch": 62, "duration": 8, "velocity": 84}, {"time": 2454, "pitch": 65, "duration": 8, "velocity": 77}, {"time": 2466, "pitch": 58, "duration": 8, "velocity": 81}, {"time": 2466, "pitch": 62, "duration": 6, "velocity": 84}, {"time": 2466, "pitch": 65, "duration": 9, "velocity": 82}, {"time": 2478, "pitch": 43, "duration": 20, "velocity": 77}, {"time": 2478, "pitch": 55, "duration": 9, "velocity": 73}, {"time": 2478, "pitch": 58, "duration": 9, "velocity": 77}, {"time": 2478, "pitch": 62, "duration": 9, "velocity": 80}, {"time": 2484, "pitch": 50, "duration": 10, "velocity": 72}, {"time": 2490, "pitch": 55, "duration": 9, "velocity": 91}, {"time": 2490, "pitch": 62, "duration": 7, "velocity": 91}, {"time": 2496, "pitch": 58, "duration": 5, "velocity": 75}, {"time": 2502, "pitch": 48, "duration": 24, "velocity": 84}, {"time": 2502, "pitch": 55, "duration": 10, "velocity": 86}, {"time": 2502, "pitch": 60, "duration": 10, "velocity": 87}, {"time": 2502, "pitch": 63, "duration": 10, "velocity": 86}, {"time": 2514, "pitch": 55, "duration": 9, "velocity": 85}, {"time": 2514, "pitch": 60, "duration": 10, "velocity": 87}, {"time": 2514, "pitch": 63, "duration": 9, "velocity": 87}, {"time": 2526, "pitch": 43, "duration": 23, "velocity": 83}, {"time": 2526, "pitch": 55, "duration": 10, "velocity": 85}, {"time": 2526, "pitch": 58, "duration": 9, "velocity": 88}, {"time": 2526, "pitch": 62, "duration": 9, "velocity": 84}, {"time": 2538, "pitch": 55, "duration": 9, "velocity": 86}, {"time": 2538, "pitch": 58, "duration": 10, "velocity": 91}, {"time": 2538, "pitch": 62, "duration": 9, "velocity": 89}, {"time": 2550, "pitch": 48, "duration": 12, "velocity": 86}, {"time": 2550, "pitch": 55, "duration": 9, "velocity": 83}, {"time": 2550, "pitch": 60, "duration": 23, "velocity": 87}, {"time": 2550, "pitch": 63, "duration": 9, "velocity": 88}, {"time": 2562, "pitch": 41, "duration": 8, "velocity": 78}, {"time": 2562, "pitch": 53, "duration": 12, "velocity": 79}, {"time": 2562, "pitch": 57, "duration": 11, "velocity": 84}, {"time": 2562, "pitch": 65, "duration": 10, "velocity": 86}, {"time": 2574, "pitch": 46, "duration": 19, "velocity": 83}, {"time": 2574, "pitch": 58, "duration": 6, "velocity": 88}, {"time": 2574, "pitch": 62, "duration": 7, "velocity": 82}, {"time": 2580, "pitch": 53, "duration": 18, "velocity": 72}, {"time": 2586, "pitch": 60, "duration": 12, "velocity": 98}, {"time": 2586, "pitch": 65, "duration": 11, "velocity": 94}, {"time": 2592, "pitch": 58, "duration": 4, "velocity": 77}, {"time": 2598, "pitch": 46, "duration": 18, "velocity": 88}, {"time": 2598, "pitch": 58, "duration": 6, "velocity": 75}, {"time": 2598, "pitch": 62, "duration": 7, "velocity": 81}, {"time": 2598, "pitch": 65, "duration": 7, "velocity": 82}, {"time": 2604, "pitch": 53, "duration": 12, "velocity": 64}, {"time": 2610, "pitch": 58, "duration": 9, "velocity": 89}, {"time": 2610, "pitch": 62, "duration": 8, "velocity": 94}, {"time": 2610, "pitch": 65, "duration": 9, "velocity": 93}, {"time": 2622, "pitch": 43, "duration": 21, "velocity": 73}, {"time": 2622, "pitch": 58, "duration": 9, "velocity": 84}, {"time": 2622, "pitch": 62, "duration": 10, "velocity": 87}, {"time": 2622, "pitch": 67, "duration": 9, "velocity": 88}, {"time": 2634, "pitch": 58, "duration": 7, "velocity": 89}, {"time": 2634, "pitch": 62, "duration": 8, "velocity": 90}, {"time": 2634, "pitch": 67, "duration": 8, "velocity": 89}, {"time": 2646, "pitch": 50, "duration": 19, "velocity": 87}, {"time": 2646, "pitch": 57, "duration": 10, "velocity": 90}, {"time": 2646, "pitch": 62, "duration": 10, "velocity": 92}, {"time": 2646, "pitch": 65, "duration": 10, "velocity": 89}, {"time": 2658, "pitch": 57, "duration": 8, "velocity": 88}, {"time": 2658, "pitch": 62, "duration": 8, "velocity": 91}, {"time": 2658, "pitch": 65, "duration": 8, "velocity": 88}, {"time": 2670, "pitch": 41, "duration": 20, "velocity": 83}, {"time": 2676, "pitch": 53, "duration": 8, "velocity": 84}, {"time": 2682, "pitch": 57, "duration": 9, "velocity": 90}, {"time": 2682, "pitch": 60, "duration": 10, "velocity": 102}, {"time": 2682, "pitch": 65, "duration": 8, "velocity": 93}, {"time": 2688, "pitch": 53, "duration": 2, "velocity": 81}, {"time": 2694, "pitch": 39, "duration": 19, "velocity": 89}, {"time": 2694, "pitch": 55, "duration": 8, "velocity": 87}, {"time": 2694, "pitch": 58, "duration": 8, "velocity": 88}, {"time": 2694, "pitch": 63, "duration": 8, "velocity": 91}, {"time": 2700, "pitch": 51, "duration": 8, "velocity": 77}, {"time": 2706, "pitch": 55, "duration": 8, "velocity": 93}, {"time": 2706, "pitch": 58, "duration": 11, "velocity": 100}, {"time": 2706, "pitch": 63, "duration": 7, "velocity": 93}, {"time": 2712, "pitch": 51, "duration": 6, "velocity": 82}, {"time": 2718, "pitch": 41, "duration": 20, "velocity": 86}, {"time": 2718, "pitch": 57, "duration": 7, "velocity": 89}, {"time": 2718, "pitch": 60, "duration": 7, "velocity": 98}, {"time": 2718, "pitch": 65, "duration": 7, "velocity": 96}, {"time": 2724, "pitch": 48, "duration": 8, "velocity": 77}, {"time": 2730, "pitch": 57, "duration": 10, "velocity": 93}, {"time": 2730, "pitch": 60, "duration": 11, "velocity": 100}, {"time": 2730, "pitch": 65, "duration": 10, "velocity": 94}, {"time": 2736, "pitch": 48, "duration": 3, "velocity": 76}, {"time": 2742, "pitch": 46, "duration": 19, "velocity": 85}, {"time": 2742, "pitch": 58, "duration": 7, "velocity": 86}, {"time": 2742, "pitch": 62, "duration": 7, "velocity": 90}, {"time": 2742, "pitch": 65, "duration": 7, "velocity": 87}, {"time": 2748, "pitch": 53, "duration": 7, "velocity": 64}, {"time": 2754, "pitch": 58, "duration": 5, "velocity": 85}, {"time": 2754, "pitch": 62, "duration": 6, "velocity": 87}, {"time": 2754, "pitch": 65, "duration": 5, "velocity": 87}, {"time": 2760, "pitch": 53, "duration": 4, "velocity": 74}, {"time": 2766, "pitch": 46, "duration": 26, "velocity": 87}, {"time": 2766, "pitch": 62, "duration": 6, "velocity": 87}, {"time": 2766, "pitch": 65, "duration": 6, "velocity": 90}, {"time": 2766, "pitch": 70, "duration": 5, "velocity": 86}, {"time": 2769, "pitch": 53, "duration": 24, "velocity": 78}, {"time": 2772, "pitch": 58, "duration": 7, "velocity": 102}, {"time": 2775, "pitch": 60, "duration": 4, "velocity": 104}, {"time": 2775, "pitch": 65, "duration": 3, "velocity": 102}, {"time": 2778, "pitch": 62, "duration": 4, "velocity": 107}, {"time": 2778, "pitch": 65, "duration": 4, "velocity": 90}, {"time": 2781, "pitch": 58, "duration": 6, "velocity": 114}, {"time": 2784, "pitch": 62, "duration": 5, "velocity": 108}, {"time": 2787, "pitch": 65, "duration": 3, "velocity": 100}, {"time": 2790, "pitch": 46, "duration": 2, "velocity": 87}, {"time": 2790, "pitch": 58, "duration": 8, "velocity": 86}, {"time": 2790, "pitch": 62, "duration": 9, "velocity": 96}, {"time": 2790, "pitch": 65, "duration": 8, "velocity": 88}, {"time": 2799, "pitch": 53, "duration": 9, "velocity": 83}, {"time": 2802, "pitch": 58, "duration": 7, "velocity": 108}, {"time": 2802, "pitch": 65, "duration": 10, "velocity": 108}, {"time": 2808, "pitch": 62, "duration": 6, "velocity": 86}, {"time": 2814, "pitch": 41, "duration": 19, "velocity": 87}, {"time": 2814, "pitch": 57, "duration": 10, "velocity": 86}, {"time": 2814, "pitch": 60, "duration": 10, "velocity": 91}, {"time": 2814, "pitch": 65, "duration": 9, "velocity": 88}, {"time": 2823, "pitch": 53, "duration": 8, "velocity": 83}, {"time": 2826, "pitch": 57, "duration": 7, "velocity": 107}, {"time": 2826, "pitch": 65, "duration": 7, "velocity": 91}, {"time": 2832, "pitch": 60, "duration": 6, "velocity": 87}, {"time": 2838, "pitch": 39, "duration": 12, "velocity": 91}, {"time": 2838, "pitch": 55, "duration": 9, "velocity": 90}, {"time": 2838, "pitch": 58, "duration": 11, "velocity": 98}, {"time": 2838, "pitch": 63, "duration": 9, "velocity": 92}, {"time": 2850, "pitch": 41, "duration": 7, "velocity": 87}, {"time": 2850, "pitch": 57, "duration": 11, "velocity": 88}, {"time": 2850, "pitch": 60, "duration": 11, "velocity": 93}, {"time": 2850, "pitch": 65, "duration": 11, "velocity": 91}, {"time": 2862, "pitch": 46, "duration": 19, "velocity": 86}, {"time": 2862, "pitch": 58, "duration": 5, "velocity": 89}, {"time": 2862, "pitch": 62, "duration": 6, "velocity": 90}, {"time": 2862, "pitch": 65, "duration": 9, "velocity": 86}, {"time": 2868, "pitch": 53, "duration": 13, "velocity": 75}, {"time": 2871, "pitch": 58, "duration": 9, "velocity": 87}, {"time": 2874, "pitch": 60, "duration": 7, "velocity": 90}, {"time": 2880, "pitch": 62, "duration": 4, "velocity": 88}, {"time": 2886, "pitch": 48, "duration": 20, "velocity": 86}, {"time": 2886, "pitch": 55, "duration": 11, "velocity": 87}, {"time": 2886, "pitch": 58, "duration": 6, "velocity": 76}, {"time": 2886, "pitch": 60, "duration": 11, "velocity": 87}, {"time": 2886, "pitch": 63, "duration": 10, "velocity": 88}, {"time": 2898, "pitch": 55, "duration": 10, "velocity": 88}, {"time": 2898, "pitch": 60, "duration": 11, "velocity": 92}, {"time": 2898, "pitch": 63, "duration": 8, "velocity": 88}, {"time": 2910, "pitch": 50, "duration": 16, "velocity": 84}, {"time": 2910, "pitch": 57, "duration": 6, "velocity": 84}, {"time": 2910, "pitch": 62, "duration": 9, "velocity": 83}, {"time": 2910, "pitch": 65, "duration": 8, "velocity": 86}, {"time": 2922, "pitch": 57, "duration": 8, "velocity": 93}, {"time": 2922, "pitch": 62, "duration": 8, "velocity": 102}, {"time": 2922, "pitch": 65, "duration": 7, "velocity": 91}, {"time": 2928, "pitch": 50, "duration": 2, "velocity": 86}, {"time": 2934, "pitch": 39, "duration": 8, "velocity": 87}, {"time": 2934, "pitch": 55, "duration": 9, "velocity": 88}, {"time": 2934, "pitch": 58, "duration": 9, "velocity": 92}, {"time": 2934, "pitch": 63, "duration": 8, "velocity": 90}, {"time": 2946, "pitch": 40, "duration": 8, "velocity": 86}, {"time": 2946, "pitch": 55, "duration": 9, "velocity": 85}, {"time": 2946, "pitch": 60, "duration": 11, "velocity": 93}, {"time": 2946, "pitch": 64, "duration": 9, "velocity": 91}, {"time": 2958, "pitch": 41, "duration": 19, "velocity": 84}, {"time": 2958, "pitch": 57, "duration": 8, "velocity": 84}, {"time": 2958, "pitch": 60, "duration": 8, "velocity": 82}, {"time": 2958, "pitch": 65, "duration": 8, "velocity": 86}, {"time": 2961, "pitch": 48, "duration": 16, "velocity": 84}, {"time": 2964, "pitch": 53, "duration": 7, "velocity": 94}, {"time": 2967, "pitch": 58, "duration": 3, "velocity": 87}, {"time": 2970, "pitch": 57, "duration": 5, "velocity": 102}, {"time": 2970, "pitch": 65, "duration": 5, "velocity": 98}, {"time": 2973, "pitch": 53, "duration": 6, "velocity": 100}, {"time": 2976, "pitch": 58, "duration": 4, "velocity": 91}, {"time": 2979, "pitch": 65, "duration": 3, "velocity": 89}, {"time": 2982, "pitch": 46, "duration": 19, "velocity": 88}, {"time": 2982, "pitch": 58, "duration": 9, "velocity": 88}, {"time": 2982, "pitch": 62, "duration": 9, "velocity": 94}, {"time": 2982, "pitch": 65, "duration": 8, "velocity": 89}, {"time": 2991, "pitch": 53, "duration": 5, "velocity": 77}, {"time": 2994, "pitch": 58, "duration": 9, "velocity": 98}, {"time": 2994, "pitch": 62, "duration": 10, "velocity": 108}, {"time": 2994, "pitch": 65, "duration": 9, "velocity": 96}, {"time": 3000, "pitch": 53, "duration": 2, "velocity": 87}, {"time": 3006, "pitch": 38, "duration": 18, "velocity": 92}, {"time": 3006, "pitch": 57, "duration": 10, "velocity": 96}, {"time": 3006, "pitch": 62, "duration": 10, "velocity": 92}, {"time": 3006, "pitch": 65, "duration": 9, "velocity": 88}, {"time": 3015, "pitch": 50, "duration": 4, "velocity": 87}, {"time": 3018, "pitch": 57, "duration": 8, "velocity": 110}, {"time": 3018, "pitch": 65, "duration": 9, "velocity": 96}, {"time": 3024, "pitch": 50, "duration": 5, "velocity": 87}, {"time": 3030, "pitch": 39, "duration": 11, "velocity": 88}, {"time": 3030, "pitch": 55, "duration": 9, "velocity": 91}, {"time": 3030, "pitch": 58, "duration": 11, "velocity": 102}, {"time": 3030, "pitch": 63, "duration": 9, "velocity": 92}, {"time": 3042, "pitch": 41, "duration": 8, "velocity": 87}, {"time": 3042, "pitch": 57, "duration": 11, "velocity": 87}, {"time": 3042, "pitch": 60, "duration": 11, "velocity": 91}, {"time": 3042, "pitch": 65, "duration": 11, "velocity": 89}, {"time": 3054, "pitch": 46, "duration": 19, "velocity": 86}, {"time": 3054, "pitch": 58, "duration": 5, "velocity": 88}, {"time": 3054, "pitch": 62, "duration": 6, "velocity": 88}, {"time": 3054, "pitch": 65, "duration": 10, "velocity": 79}, {"time": 3060, "pitch": 53, "duration": 12, "velocity": 79}, {"time": 3063, "pitch": 58, "duration": 9, "velocity": 88}, {"time": 3066, "pitch": 60, "duration": 7, "velocity": 94}, {"time": 3072, "pitch": 62, "duration": 2, "velocity": 90}, {"time": 3078, "pitch": 48, "duration": 15, "velocity": 88}, {"time": 3078, "pitch": 55, "duration": 11, "velocity": 86}, {"time": 3078, "pitch": 60, "duration": 11, "velocity": 94}, {"time": 3078, "pitch": 63, "duration": 10, "velocity": 88}, {"time": 3090, "pitch": 55, "duration": 9, "velocity": 90}, {"time": 3090, "pitch": 60, "duration": 10, "velocity": 92}, {"time": 3090, "pitch": 63, "duration": 9, "velocity": 91}, {"time": 3096, "pitch": 48, "duration": 6, "velocity": 87}, {"time": 3102, "pitch": 50, "duration": 15, "velocity": 87}, {"time": 3102, "pitch": 57, "duration": 11, "velocity": 89}, {"time": 3102, "pitch": 62, "duration": 11, "velocity": 92}, {"time": 3102, "pitch": 65, "duration": 11, "velocity": 91}, {"time": 3114, "pitch": 57, "duration": 8, "velocity": 93}, {"time": 3114, "pitch": 62, "duration": 11, "velocity": 96}, {"time": 3114, "pitch": 65, "duration": 9, "velocity": 89}, {"time": 3120, "pitch": 50, "duration": 2, "velocity": 89}, {"time": 3126, "pitch": 39, "duration": 10, "velocity": 91}, {"time": 3126, "pitch": 55, "duration": 10, "velocity": 88}, {"time": 3126, "pitch": 58, "duration": 10, "velocity": 91}, {"time": 3126, "pitch": 63, "duration": 10, "velocity": 90}, {"time": 3138, "pitch": 40, "duration": 8, "velocity": 85}, {"time": 3138, "pitch": 55, "duration": 9, "velocity": 87}, {"time": 3138, "pitch": 60, "duration": 11, "velocity": 90}, {"time": 3138, "pitch": 64, "duration": 8, "velocity": 89}, {"time": 3150, "pitch": 41, "duration": 23, "velocity": 87}, {"time": 3150, "pitch": 57, "duration": 13, "velocity": 86}, {"time": 3150, "pitch": 60, "duration": 15, "velocity": 86}, {"time": 3150, "pitch": 65, "duration": 14, "velocity": 87}, {"time": 3156, "pitch": 48, "duration": 16, "velocity": 73}, {"time": 3162, "pitch": 53, "duration": 9, "velocity": 84}, {"time": 3168, "pitch": 58, "duration": 5, "velocity": 82}, {"time": 3174, "pitch": 46, "duration": 19, "velocity": 98}, {"time": 3180, "pitch": 53, "duration": 13, "velocity": 82}, {"time": 3186, "pitch": 58, "duration": 13, "velocity": 90}, {"time": 3186, "pitch": 65, "duration": 13, "velocity": 82}, {"time": 3192, "pitch": 62, "duration": 7, "velocity": 81}, {"time": 3198, "pitch": 46, "duration": 19, "velocity": 89}, {"time": 3204, "pitch": 55, "duration": 12, "velocity": 86}, {"time": 3210, "pitch": 60, "duration": 9, "velocity": 86}, {"time": 3210, "pitch": 67, "duration": 10, "velocity": 88}, {"time": 3222, "pitch": 43, "duration": 18, "velocity": 88}, {"time": 3228, "pitch": 50, "duration": 12, "velocity": 77}, {"time": 3234, "pitch": 58, "duration": 14, "velocity": 86}, {"time": 3234, "pitch": 67, "duration": 14, "velocity": 86}, {"time": 3240, "pitch": 62, "duration": 7, "velocity": 82}, {"time": 3246, "pitch": 43, "duration": 18, "velocity": 74}, {"time": 3246, "pitch": 55, "duration": 9, "velocity": 71}, {"time": 3246, "pitch": 62, "duration": 1, "velocity": 63}, {"time": 3258, "pitch": 55, "duration": 9, "velocity": 69}, {"time": 3258, "pitch": 62, "duration": 10, "velocity": 80}, {"time": 3270, "pitch": 48, "duration": 18, "velocity": 88}, {"time": 3276, "pitch": 55, "duration": 12, "velocity": 73}, {"time": 3282, "pitch": 60, "duration": 12, "velocity": 86}, {"time": 3282, "pitch": 67, "duration": 12, "velocity": 84}, {"time": 3288, "pitch": 63, "duration": 6, "velocity": 80}, {"time": 3294, "pitch": 43, "duration": 19, "velocity": 85}, {"time": 3300, "pitch": 50, "duration": 12, "velocity": 74}, {"time": 3306, "pitch": 58, "duration": 13, "velocity": 80}, {"time": 3306, "pitch": 65, "duration": 7, "velocity": 84}, {"time": 3312, "pitch": 62, "duration": 6, "velocity": 82}, {"time": 3318, "pitch": 39, "duration": 19, "velocity": 87}, {"time": 3324, "pitch": 51, "duration": 13, "velocity": 80}, {"time": 3330, "pitch": 55, "duration": 14, "velocity": 77}, {"time": 3330, "pitch": 63, "duration": 14, "velocity": 80}, {"time": 3336, "pitch": 58, "duration": 9, "velocity": 72}, {"time": 3342, "pitch": 41, "duration": 19, "velocity": 86}, {"time": 3348, "pitch": 48, "duration": 13, "velocity": 78}, {"time": 3354, "pitch": 53, "duration": 12, "velocity": 87}, {"time": 3360, "pitch": 58, "duration": 6, "velocity": 86}, {"time": 3366, "pitch": 46, "duration": 22, "velocity": 98}, {"time": 3372, "pitch": 53, "duration": 14, "velocity": 82}, {"time": 3378, "pitch": 58, "duration": 13, "velocity": 84}, {"time": 3384, "pitch": 65, "duration": 7, "velocity": 88}, {"time": 3390, "pitch": 41, "duration": 20, "velocity": 94}, {"time": 3396, "pitch": 57, "duration": 19, "velocity": 80}, {"time": 3402, "pitch": 65, "duration": 13, "velocity": 82}, {"time": 3408, "pitch": 60, "duration": 7, "velocity": 86}, {"time": 3414, "pitch": 39, "duration": 35, "velocity": 100}, {"time": 3420, "pitch": 51, "duration": 25, "velocity": 84}, {"time": 3426, "pitch": 55, "duration": 21, "velocity": 82}, {"time": 3432, "pitch": 63, "duration": 16, "velocity": 90}, {"time": 3438, "pitch": 58, "duration": 10, "velocity": 78}, {"time": 3450, "pitch": 41, "duration": 8, "velocity": 87}, {"time": 3450, "pitch": 53, "duration": 12, "velocity": 81}, {"time": 3450, "pitch": 57, "duration": 13, "velocity": 84}, {"time": 3450, "pitch": 60, "duration": 13, "velocity": 85}, {"time": 3462, "pitch": 46, "duration": 20, "velocity": 91}, {"time": 3468, "pitch": 53, "duration": 15, "velocity": 84}, {"time": 3474, "pitch": 58, "duration": 11, "velocity": 78}, {"time": 3480, "pitch": 62, "duration": 6, "velocity": 86}, {"time": 3486, "pitch": 46, "duration": 19, "velocity": 86}, {"time": 3492, "pitch": 53, "duration": 13, "velocity": 85}, {"time": 3498, "pitch": 58, "duration": 12, "velocity": 83}, {"time": 3504, "pitch": 62, "duration": 5, "velocity": 82}, {"time": 3510, "pitch": 41, "duration": 43, "velocity": 87}, {"time": 3516, "pitch": 48, "duration": 37, "velocity": 75}, {"time": 3522, "pitch": 65, "duration": 8, "velocity": 89}, {"time": 3528, "pitch": 53, "duration": 7, "velocity": 74}, {"time": 3534, "pitch": 60, "duration": 7, "velocity": 86}, {"time": 3540, "pitch": 53, "duration": 14, "velocity": 72}, {"time": 3546, "pitch": 57, "duration": 9, "velocity": 85}, {"time": 3552, "pitch": 60, "duration": 4, "velocity": 87}, {"time": 3558, "pitch": 46, "duration": 54, "velocity": 81}, {"time": 3558, "pitch": 58, "duration": 9, "velocity": 84}, {"time": 3558, "pitch": 62, "duration": 12, "velocity": 83}, {"time": 3558, "pitch": 65, "duration": 13, "velocity": 83}, {"time": 3564, "pitch": 53, "duration": 48, "velocity": 69}, {"time": 3570, "pitch": 58, "duration": 42, "velocity": 83}, {"time": 3576, "pitch": 60, "duration": 15, "velocity": 78}, {"time": 3585, "pitch": 65, "duration": 6, "velocity": 71}, {"time": 3591, "pitch": 62, "duration": 8, "velocity": 77}, {"time": 3597, "pitch": 70, "duration": 17, "velocity": 73}]}]}