{"metadata": {"schema_version": "0.2", "title": "None", "source_filename": "544.mid", "source_format": "midi"}, "resolution": 12, "tempos": [{"time": 0, "qpm": 67.00002903334591}, {"time": 88, "qpm": 66.000066000066}, {"time": 101, "qpm": 65.25001631250407}, {"time": 163, "qpm": 67.00002903334591}, {"time": 178, "qpm": 66.50004710420004}, {"time": 190, "qpm": 66.000066000066}, {"time": 231, "qpm": 65.25001631250407}, {"time": 247, "qpm": 66.000066000066}, {"time": 924, "qpm": 66.50004710420004}, {"time": 939, "qpm": 65.75003808023038}, {"time": 948, "qpm": 64.75006475006475}, {"time": 960, "qpm": 65.50003820835562}, {"time": 1008, "qpm": 65.25001631250407}, {"time": 1013, "qpm": 65.75003808023038}, {"time": 1015, "qpm": 66.50004710420004}, {"time": 1017, "qpm": 67.00002903334591}, {"time": 1020, "qpm": 68.0000725334107}, {"time": 1080, "qpm": 68.50011017101052}, {"time": 1908, "qpm": 69.00009660013524}, {"time": 2252, "qpm": 69.50010888350391}, {"time": 2557, "qpm": 68.75010026056287}, {"time": 2563, "qpm": 66.000066000066}, {"time": 2567, "qpm": 65.25001631250407}, {"time": 2569, "qpm": 63.50005979588964}, {"time": 2571, "qpm": 63.000063000063}, {"time": 2572, "qpm": 61.00003456668625}, {"time": 2576, "qpm": 60.500032770851085}, {"time": 2580, "qpm": 59.7500059750006}, {"time": 2586, "qpm": 58.75003427085333}, {"time": 2596, "qpm": 57.25005104796218}, {"time": 2604, "qpm": 69.50010888350391}, {"time": 2680, "qpm": 70.00007000007}], "time_signatures": [{"time": 0, "numerator": 1, "denominator": 4}], "tracks": [{"program": 0, "is_drum": false, "name": "MELODY", "notes": [{"time": 248, "pitch": 71, "duration": 5, "velocity": 78}, {"time": 254, "pitch": 71, "duration": 5, "velocity": 78}, {"time": 260, "pitch": 71, "duration": 4, "velocity": 79}, {"time": 266, "pitch": 71, "duration": 5, "velocity": 78}, {"time": 272, "pitch": 71, "duration": 2, "velocity": 76}, {"time": 275, "pitch": 72, "duration": 6, "velocity": 79}, {"time": 281, "pitch": 74, "duration": 9, "velocity": 79}, {"time": 290, "pitch": 69, "duration": 4, "velocity": 74}, {"time": 296, "pitch": 69, "duration": 3, "velocity": 73}, {"time": 299, "pitch": 69, "duration": 7, "velocity": 78}, {"time": 308, "pitch": 67, "duration": 3, "velocity": 71}, {"time": 311, "pitch": 69, "duration": 11, "velocity": 78}, {"time": 344, "pitch": 64, "duration": 2, "velocity": 78}, {"time": 347, "pitch": 67, "duration": 2, "velocity": 71}, {"time": 350, "pitch": 72, "duration": 7, "velocity": 78}, {"time": 359, "pitch": 64, "duration": 2, "velocity": 71}, {"time": 362, "pitch": 64, "duration": 2, "velocity": 79}, {"time": 365, "pitch": 67, "duration": 3, "velocity": 67}, {"time": 368, "pitch": 72, "duration": 5, "velocity": 74}, {"time": 374, "pitch": 72, "duration": 6, "velocity": 77}, {"time": 380, "pitch": 71, "duration": 3, "velocity": 73}, {"time": 383, "pitch": 71, "duration": 24, "velocity": 78}, {"time": 419, "pitch": 71, "duration": 3, "velocity": 73}, {"time": 422, "pitch": 72, "duration": 6, "velocity": 73}, {"time": 428, "pitch": 71, "duration": 6, "velocity": 80}, {"time": 434, "pitch": 69, "duration": 4, "velocity": 77}, {"time": 440, "pitch": 69, "duration": 4, "velocity": 75}, {"time": 446, "pitch": 69, "duration": 5, "velocity": 78}, {"time": 452, "pitch": 78, "duration": 2, "velocity": 74}, {"time": 455, "pitch": 78, "duration": 10, "velocity": 78}, {"time": 467, "pitch": 69, "duration": 3, "velocity": 73}, {"time": 470, "pitch": 71, "duration": 5, "velocity": 74}, {"time": 476, "pitch": 69, "duration": 4, "velocity": 77}, {"time": 482, "pitch": 67, "duration": 5, "velocity": 69}, {"time": 488, "pitch": 76, "duration": 4, "velocity": 77}, {"time": 494, "pitch": 76, "duration": 5, "velocity": 79}, {"time": 500, "pitch": 76, "duration": 6, "velocity": 75}, {"time": 506, "pitch": 76, "duration": 26, "velocity": 77}, {"time": 536, "pitch": 76, "duration": 2, "velocity": 79}, {"time": 539, "pitch": 74, "duration": 2, "velocity": 79}, {"time": 542, "pitch": 76, "duration": 7, "velocity": 80}, {"time": 551, "pitch": 67, "duration": 2, "velocity": 74}, {"time": 554, "pitch": 76, "duration": 3, "velocity": 76}, {"time": 557, "pitch": 74, "duration": 2, "velocity": 79}, {"time": 560, "pitch": 76, "duration": 5, "velocity": 73}, {"time": 566, "pitch": 76, "duration": 6, "velocity": 79}, {"time": 572, "pitch": 71, "duration": 6, "velocity": 78}, {"time": 578, "pitch": 74, "duration": 6, "velocity": 79}, {"time": 584, "pitch": 71, "duration": 6, "velocity": 79}, {"time": 590, "pitch": 69, "duration": 36, "velocity": 76}, {"time": 632, "pitch": 71, "duration": 3, "velocity": 78}, {"time": 635, "pitch": 71, "duration": 3, "velocity": 78}, {"time": 638, "pitch": 71, "duration": 9, "velocity": 78}, {"time": 650, "pitch": 71, "duration": 5, "velocity": 78}, {"time": 656, "pitch": 71, "duration": 2, "velocity": 76}, {"time": 659, "pitch": 72, "duration": 6, "velocity": 79}, {"time": 665, "pitch": 74, "duration": 9, "velocity": 79}, {"time": 674, "pitch": 69, "duration": 4, "velocity": 74}, {"time": 680, "pitch": 69, "duration": 3, "velocity": 73}, {"time": 683, "pitch": 69, "duration": 7, "velocity": 78}, {"time": 692, "pitch": 67, "duration": 6, "velocity": 71}, {"time": 698, "pitch": 67, "duration": 11, "velocity": 78}, {"time": 728, "pitch": 64, "duration": 2, "velocity": 78}, {"time": 731, "pitch": 67, "duration": 2, "velocity": 71}, {"time": 734, "pitch": 72, "duration": 7, "velocity": 78}, {"time": 743, "pitch": 64, "duration": 2, "velocity": 71}, {"time": 746, "pitch": 64, "duration": 2, "velocity": 79}, {"time": 749, "pitch": 67, "duration": 3, "velocity": 67}, {"time": 752, "pitch": 72, "duration": 5, "velocity": 74}, {"time": 758, "pitch": 76, "duration": 6, "velocity": 79}, {"time": 764, "pitch": 74, "duration": 2, "velocity": 78}, {"time": 767, "pitch": 74, "duration": 6, "velocity": 80}, {"time": 773, "pitch": 71, "duration": 20, "velocity": 74}, {"time": 803, "pitch": 71, "duration": 3, "velocity": 73}, {"time": 806, "pitch": 72, "duration": 6, "velocity": 73}, {"time": 812, "pitch": 71, "duration": 6, "velocity": 80}, {"time": 818, "pitch": 69, "duration": 4, "velocity": 77}, {"time": 824, "pitch": 69, "duration": 4, "velocity": 75}, {"time": 830, "pitch": 69, "duration": 5, "velocity": 78}, {"time": 836, "pitch": 78, "duration": 2, "velocity": 74}, {"time": 839, "pitch": 78, "duration": 10, "velocity": 78}, {"time": 851, "pitch": 69, "duration": 3, "velocity": 73}, {"time": 854, "pitch": 71, "duration": 5, "velocity": 74}, {"time": 860, "pitch": 69, "duration": 4, "velocity": 77}, {"time": 866, "pitch": 67, "duration": 5, "velocity": 69}, {"time": 872, "pitch": 76, "duration": 4, "velocity": 77}, {"time": 878, "pitch": 76, "duration": 5, "velocity": 79}, {"time": 884, "pitch": 76, "duration": 6, "velocity": 75}, {"time": 890, "pitch": 76, "duration": 26, "velocity": 77}, {"time": 920, "pitch": 76, "duration": 2, "velocity": 79}, {"time": 923, "pitch": 74, "duration": 2, "velocity": 79}, {"time": 926, "pitch": 76, "duration": 7, "velocity": 80}, {"time": 935, "pitch": 67, "duration": 2, "velocity": 74}, {"time": 938, "pitch": 76, "duration": 3, "velocity": 76}, {"time": 941, "pitch": 74, "duration": 2, "velocity": 79}, {"time": 944, "pitch": 76, "duration": 5, "velocity": 73}, {"time": 950, "pitch": 76, "duration": 6, "velocity": 79}, {"time": 956, "pitch": 74, "duration": 3, "velocity": 78}, {"time": 959, "pitch": 79, "duration": 6, "velocity": 79}, {"time": 968, "pitch": 79, "duration": 3, "velocity": 79}, {"time": 971, "pitch": 79, "duration": 6, "velocity": 79}, {"time": 977, "pitch": 79, "duration": 6, "velocity": 79}, {"time": 983, "pitch": 76, "duration": 3, "velocity": 79}, {"time": 986, "pitch": 74, "duration": 12, "velocity": 76}, {"time": 998, "pitch": 71, "duration": 5, "velocity": 80}, {"time": 1004, "pitch": 74, "duration": 6, "velocity": 84}, {"time": 1010, "pitch": 79, "duration": 19, "velocity": 78}, {"time": 1028, "pitch": 83, "duration": 5, "velocity": 80}, {"time": 1034, "pitch": 83, "duration": 11, "velocity": 81}, {"time": 1046, "pitch": 71, "duration": 5, "velocity": 81}, {"time": 1052, "pitch": 74, "duration": 5, "velocity": 79}, {"time": 1058, "pitch": 78, "duration": 16, "velocity": 74}, {"time": 1076, "pitch": 81, "duration": 6, "velocity": 75}, {"time": 1082, "pitch": 81, "duration": 24, "velocity": 78}, {"time": 1112, "pitch": 79, "duration": 2, "velocity": 77}, {"time": 1115, "pitch": 78, "duration": 2, "velocity": 74}, {"time": 1118, "pitch": 79, "duration": 7, "velocity": 78}, {"time": 1127, "pitch": 81, "duration": 2, "velocity": 75}, {"time": 1130, "pitch": 78, "duration": 4, "velocity": 75}, {"time": 1136, "pitch": 74, "duration": 4, "velocity": 78}, {"time": 1142, "pitch": 74, "duration": 6, "velocity": 78}, {"time": 1148, "pitch": 71, "duration": 6, "velocity": 80}, {"time": 1154, "pitch": 76, "duration": 21, "velocity": 79}, {"time": 1190, "pitch": 76, "duration": 5, "velocity": 80}, {"time": 1196, "pitch": 79, "duration": 5, "velocity": 79}, {"time": 1202, "pitch": 83, "duration": 16, "velocity": 78}, {"time": 1220, "pitch": 81, "duration": 6, "velocity": 78}, {"time": 1226, "pitch": 76, "duration": 10, "velocity": 79}, {"time": 1238, "pitch": 76, "duration": 5, "velocity": 82}, {"time": 1244, "pitch": 79, "duration": 5, "velocity": 80}, {"time": 1250, "pitch": 78, "duration": 12, "velocity": 80}, {"time": 1268, "pitch": 79, "duration": 4, "velocity": 78}, {"time": 1274, "pitch": 79, "duration": 24, "velocity": 78}, {"time": 1310, "pitch": 76, "duration": 5, "velocity": 79}, {"time": 1316, "pitch": 79, "duration": 6, "velocity": 79}, {"time": 1322, "pitch": 83, "duration": 10, "velocity": 79}, {"time": 1331, "pitch": 81, "duration": 4, "velocity": 74}, {"time": 1334, "pitch": 76, "duration": 12, "velocity": 79}, {"time": 1346, "pitch": 78, "duration": 8, "velocity": 72}, {"time": 1355, "pitch": 79, "duration": 38, "velocity": 74}, {"time": 1544, "pitch": 71, "duration": 3, "velocity": 78}, {"time": 1547, "pitch": 71, "duration": 3, "velocity": 78}, {"time": 1550, "pitch": 71, "duration": 9, "velocity": 78}, {"time": 1562, "pitch": 71, "duration": 5, "velocity": 78}, {"time": 1568, "pitch": 71, "duration": 2, "velocity": 76}, {"time": 1571, "pitch": 72, "duration": 6, "velocity": 79}, {"time": 1577, "pitch": 74, "duration": 9, "velocity": 79}, {"time": 1586, "pitch": 69, "duration": 4, "velocity": 74}, {"time": 1592, "pitch": 69, "duration": 3, "velocity": 73}, {"time": 1595, "pitch": 69, "duration": 7, "velocity": 78}, {"time": 1604, "pitch": 67, "duration": 6, "velocity": 71}, {"time": 1610, "pitch": 67, "duration": 11, "velocity": 78}, {"time": 1640, "pitch": 64, "duration": 2, "velocity": 78}, {"time": 1643, "pitch": 67, "duration": 2, "velocity": 71}, {"time": 1646, "pitch": 72, "duration": 7, "velocity": 78}, {"time": 1655, "pitch": 64, "duration": 2, "velocity": 71}, {"time": 1658, "pitch": 64, "duration": 2, "velocity": 79}, {"time": 1661, "pitch": 67, "duration": 3, "velocity": 67}, {"time": 1664, "pitch": 72, "duration": 5, "velocity": 74}, {"time": 1670, "pitch": 76, "duration": 6, "velocity": 79}, {"time": 1676, "pitch": 74, "duration": 2, "velocity": 78}, {"time": 1679, "pitch": 74, "duration": 6, "velocity": 80}, {"time": 1685, "pitch": 71, "duration": 20, "velocity": 74}, {"time": 1715, "pitch": 71, "duration": 3, "velocity": 73}, {"time": 1718, "pitch": 72, "duration": 6, "velocity": 73}, {"time": 1724, "pitch": 71, "duration": 6, "velocity": 80}, {"time": 1730, "pitch": 69, "duration": 4, "velocity": 77}, {"time": 1736, "pitch": 69, "duration": 4, "velocity": 75}, {"time": 1742, "pitch": 69, "duration": 5, "velocity": 78}, {"time": 1748, "pitch": 78, "duration": 2, "velocity": 74}, {"time": 1751, "pitch": 78, "duration": 10, "velocity": 78}, {"time": 1763, "pitch": 69, "duration": 3, "velocity": 73}, {"time": 1766, "pitch": 71, "duration": 5, "velocity": 74}, {"time": 1772, "pitch": 69, "duration": 4, "velocity": 77}, {"time": 1778, "pitch": 67, "duration": 5, "velocity": 69}, {"time": 1784, "pitch": 76, "duration": 4, "velocity": 77}, {"time": 1790, "pitch": 76, "duration": 5, "velocity": 79}, {"time": 1796, "pitch": 76, "duration": 6, "velocity": 75}, {"time": 1802, "pitch": 76, "duration": 26, "velocity": 77}, {"time": 1832, "pitch": 76, "duration": 2, "velocity": 79}, {"time": 1835, "pitch": 74, "duration": 2, "velocity": 79}, {"time": 1838, "pitch": 76, "duration": 7, "velocity": 80}, {"time": 1847, "pitch": 67, "duration": 2, "velocity": 74}, {"time": 1850, "pitch": 76, "duration": 3, "velocity": 76}, {"time": 1853, "pitch": 74, "duration": 2, "velocity": 79}, {"time": 1856, "pitch": 76, "duration": 5, "velocity": 73}, {"time": 1862, "pitch": 76, "duration": 6, "velocity": 79}, {"time": 1868, "pitch": 74, "duration": 3, "velocity": 78}, {"time": 1871, "pitch": 79, "duration": 6, "velocity": 79}, {"time": 1880, "pitch": 79, "duration": 3, "velocity": 79}, {"time": 1883, "pitch": 79, "duration": 6, "velocity": 79}, {"time": 1889, "pitch": 79, "duration": 6, "velocity": 79}, {"time": 1895, "pitch": 76, "duration": 3, "velocity": 79}, {"time": 1898, "pitch": 74, "duration": 12, "velocity": 76}, {"time": 1910, "pitch": 71, "duration": 5, "velocity": 80}, {"time": 1916, "pitch": 74, "duration": 6, "velocity": 84}, {"time": 1922, "pitch": 79, "duration": 19, "velocity": 78}, {"time": 1940, "pitch": 83, "duration": 5, "velocity": 80}, {"time": 1946, "pitch": 83, "duration": 11, "velocity": 81}, {"time": 1958, "pitch": 71, "duration": 5, "velocity": 81}, {"time": 1964, "pitch": 74, "duration": 5, "velocity": 79}, {"time": 1970, "pitch": 78, "duration": 16, "velocity": 74}, {"time": 1988, "pitch": 81, "duration": 6, "velocity": 75}, {"time": 1994, "pitch": 81, "duration": 24, "velocity": 78}, {"time": 2024, "pitch": 79, "duration": 2, "velocity": 77}, {"time": 2027, "pitch": 78, "duration": 2, "velocity": 74}, {"time": 2030, "pitch": 79, "duration": 7, "velocity": 78}, {"time": 2039, "pitch": 81, "duration": 2, "velocity": 75}, {"time": 2042, "pitch": 78, "duration": 4, "velocity": 75}, {"time": 2048, "pitch": 74, "duration": 4, "velocity": 78}, {"time": 2054, "pitch": 74, "duration": 6, "velocity": 78}, {"time": 2060, "pitch": 71, "duration": 6, "velocity": 80}, {"time": 2066, "pitch": 76, "duration": 21, "velocity": 79}, {"time": 2102, "pitch": 76, "duration": 5, "velocity": 80}, {"time": 2108, "pitch": 79, "duration": 5, "velocity": 79}, {"time": 2114, "pitch": 83, "duration": 16, "velocity": 78}, {"time": 2132, "pitch": 81, "duration": 6, "velocity": 78}, {"time": 2138, "pitch": 76, "duration": 10, "velocity": 79}, {"time": 2150, "pitch": 76, "duration": 5, "velocity": 82}, {"time": 2156, "pitch": 79, "duration": 5, "velocity": 80}, {"time": 2162, "pitch": 78, "duration": 12, "velocity": 80}, {"time": 2180, "pitch": 79, "duration": 4, "velocity": 78}, {"time": 2186, "pitch": 79, "duration": 24, "velocity": 78}, {"time": 2222, "pitch": 76, "duration": 5, "velocity": 79}, {"time": 2228, "pitch": 79, "duration": 6, "velocity": 79}, {"time": 2234, "pitch": 83, "duration": 6, "velocity": 79}, {"time": 2240, "pitch": 81, "duration": 4, "velocity": 74}, {"time": 2243, "pitch": 76, "duration": 6, "velocity": 79}, {"time": 2249, "pitch": 78, "duration": 8, "velocity": 72}, {"time": 2258, "pitch": 81, "duration": 1, "velocity": 69}, {"time": 2261, "pitch": 81, "duration": 1, "velocity": 79}, {"time": 2264, "pitch": 81, "duration": 2, "velocity": 78}, {"time": 2267, "pitch": 81, "duration": 4, "velocity": 79}, {"time": 2273, "pitch": 81, "duration": 5, "velocity": 79}, {"time": 2279, "pitch": 81, "duration": 2, "velocity": 80}, {"time": 2282, "pitch": 81, "duration": 5, "velocity": 79}, {"time": 2288, "pitch": 79, "duration": 2, "velocity": 79}, {"time": 2291, "pitch": 78, "duration": 6, "velocity": 79}, {"time": 2297, "pitch": 76, "duration": 8, "velocity": 79}, {"time": 2306, "pitch": 83, "duration": 2, "velocity": 78}, {"time": 2309, "pitch": 83, "duration": 1, "velocity": 78}, {"time": 2312, "pitch": 83, "duration": 2, "velocity": 79}, {"time": 2315, "pitch": 83, "duration": 4, "velocity": 78}, {"time": 2321, "pitch": 83, "duration": 5, "velocity": 80}, {"time": 2327, "pitch": 83, "duration": 2, "velocity": 74}, {"time": 2330, "pitch": 83, "duration": 5, "velocity": 79}, {"time": 2336, "pitch": 81, "duration": 6, "velocity": 79}, {"time": 2342, "pitch": 79, "duration": 2, "velocity": 78}, {"time": 2345, "pitch": 78, "duration": 8, "velocity": 80}, {"time": 2354, "pitch": 81, "duration": 4, "velocity": 79}, {"time": 2360, "pitch": 81, "duration": 2, "velocity": 76}, {"time": 2363, "pitch": 81, "duration": 5, "velocity": 78}, {"time": 2369, "pitch": 83, "duration": 6, "velocity": 79}, {"time": 2378, "pitch": 81, "duration": 6, "velocity": 78}, {"time": 2384, "pitch": 79, "duration": 2, "velocity": 72}, {"time": 2387, "pitch": 78, "duration": 6, "velocity": 78}, {"time": 2393, "pitch": 76, "duration": 8, "velocity": 83}, {"time": 2402, "pitch": 83, "duration": 17, "velocity": 80}, {"time": 2420, "pitch": 81, "duration": 6, "velocity": 77}, {"time": 2426, "pitch": 76, "duration": 20, "velocity": 78}, {"time": 2450, "pitch": 83, "duration": 16, "velocity": 79}, {"time": 2468, "pitch": 81, "duration": 5, "velocity": 73}, {"time": 2474, "pitch": 74, "duration": 23, "velocity": 81}, {"time": 2498, "pitch": 83, "duration": 10, "velocity": 80}, {"time": 2510, "pitch": 81, "duration": 11, "velocity": 79}, {"time": 2522, "pitch": 76, "duration": 11, "velocity": 79}, {"time": 2534, "pitch": 78, "duration": 10, "velocity": 68}, {"time": 2546, "pitch": 79, "duration": 22, "velocity": 76}, {"time": 2570, "pitch": 81, "duration": 13, "velocity": 74}, {"time": 2582, "pitch": 72, "duration": 5, "velocity": 80}, {"time": 2588, "pitch": 75, "duration": 6, "velocity": 84}, {"time": 2594, "pitch": 80, "duration": 19, "velocity": 78}, {"time": 2612, "pitch": 84, "duration": 5, "velocity": 80}, {"time": 2618, "pitch": 84, "duration": 11, "velocity": 81}, {"time": 2630, "pitch": 72, "duration": 5, "velocity": 81}, {"time": 2636, "pitch": 75, "duration": 5, "velocity": 79}, {"time": 2642, "pitch": 79, "duration": 16, "velocity": 74}, {"time": 2660, "pitch": 82, "duration": 6, "velocity": 75}, {"time": 2666, "pitch": 82, "duration": 24, "velocity": 78}, {"time": 2696, "pitch": 80, "duration": 2, "velocity": 77}, {"time": 2699, "pitch": 79, "duration": 2, "velocity": 74}, {"time": 2702, "pitch": 80, "duration": 7, "velocity": 78}, {"time": 2711, "pitch": 82, "duration": 2, "velocity": 75}, {"time": 2714, "pitch": 79, "duration": 4, "velocity": 75}, {"time": 2720, "pitch": 75, "duration": 4, "velocity": 78}, {"time": 2726, "pitch": 75, "duration": 6, "velocity": 78}, {"time": 2732, "pitch": 72, "duration": 6, "velocity": 80}, {"time": 2738, "pitch": 77, "duration": 21, "velocity": 79}, {"time": 2774, "pitch": 77, "duration": 5, "velocity": 80}, {"time": 2780, "pitch": 80, "duration": 5, "velocity": 79}, {"time": 2786, "pitch": 84, "duration": 16, "velocity": 78}, {"time": 2804, "pitch": 82, "duration": 6, "velocity": 78}, {"time": 2810, "pitch": 77, "duration": 10, "velocity": 79}, {"time": 2822, "pitch": 77, "duration": 5, "velocity": 82}, {"time": 2828, "pitch": 80, "duration": 5, "velocity": 80}, {"time": 2834, "pitch": 79, "duration": 12, "velocity": 80}, {"time": 2852, "pitch": 80, "duration": 4, "velocity": 78}, {"time": 2858, "pitch": 80, "duration": 24, "velocity": 78}, {"time": 2894, "pitch": 77, "duration": 5, "velocity": 79}, {"time": 2900, "pitch": 80, "duration": 6, "velocity": 79}, {"time": 2906, "pitch": 84, "duration": 10, "velocity": 79}, {"time": 2915, "pitch": 82, "duration": 4, "velocity": 74}, {"time": 2918, "pitch": 77, "duration": 12, "velocity": 79}, {"time": 2930, "pitch": 79, "duration": 8, "velocity": 72}, {"time": 2939, "pitch": 80, "duration": 38, "velocity": 74}, {"time": 3032, "pitch": 80, "duration": 2, "velocity": 79}, {"time": 3035, "pitch": 79, "duration": 3, "velocity": 78}, {"time": 3038, "pitch": 80, "duration": 9, "velocity": 79}, {"time": 3047, "pitch": 82, "duration": 3, "velocity": 76}, {"time": 3050, "pitch": 84, "duration": 6, "velocity": 82}, {"time": 3056, "pitch": 79, "duration": 6, "velocity": 70}, {"time": 3062, "pitch": 75, "duration": 6, "velocity": 81}, {"time": 3068, "pitch": 72, "duration": 6, "velocity": 85}, {"time": 3074, "pitch": 79, "duration": 12, "velocity": 79}, {"time": 3086, "pitch": 77, "duration": 20, "velocity": 78}, {"time": 3110, "pitch": 77, "duration": 5, "velocity": 84}, {"time": 3116, "pitch": 80, "duration": 6, "velocity": 83}, {"time": 3122, "pitch": 84, "duration": 18, "velocity": 84}, {"time": 3140, "pitch": 85, "duration": 7, "velocity": 80}, {"time": 3146, "pitch": 77, "duration": 10, "velocity": 84}, {"time": 3158, "pitch": 77, "duration": 5, "velocity": 80}, {"time": 3164, "pitch": 80, "duration": 5, "velocity": 80}, {"time": 3170, "pitch": 79, "duration": 16, "velocity": 73}, {"time": 3188, "pitch": 80, "duration": 5, "velocity": 78}, {"time": 3194, "pitch": 80, "duration": 26, "velocity": 79}, {"time": 3230, "pitch": 77, "duration": 5, "velocity": 80}, {"time": 3236, "pitch": 80, "duration": 5, "velocity": 80}, {"time": 3242, "pitch": 84, "duration": 6, "velocity": 81}, {"time": 3249, "pitch": 82, "duration": 4, "velocity": 74}, {"time": 3254, "pitch": 77, "duration": 15, "velocity": 78}, {"time": 3269, "pitch": 79, "duration": 8, "velocity": 80}, {"time": 3277, "pitch": 80, "duration": 42, "velocity": 78}, {"time": 3327, "pitch": 77, "duration": 4, "velocity": 79}, {"time": 3333, "pitch": 80, "duration": 7, "velocity": 73}, {"time": 3340, "pitch": 84, "duration": 14, "velocity": 74}, {"time": 3360, "pitch": 82, "duration": 11, "velocity": 71}, {"time": 3371, "pitch": 77, "duration": 12, "velocity": 74}, {"time": 3382, "pitch": 79, "duration": 8, "velocity": 84}, {"time": 3390, "pitch": 80, "duration": 31, "velocity": 70}]}, {"program": 0, "is_drum": false, "name": "BRIDGE", "notes": [{"time": 50, "pitch": 67, "duration": 11, "velocity": 58}, {"time": 50, "pitch": 71, "duration": 11, "velocity": 69}, {"time": 62, "pitch": 67, "duration": 10, "velocity": 66}, {"time": 62, "pitch": 71, "duration": 10, "velocity": 71}, {"time": 74, "pitch": 67, "duration": 7, "velocity": 64}, {"time": 74, "pitch": 71, "duration": 7, "velocity": 72}, {"time": 80, "pitch": 62, "duration": 5, "velocity": 70}, {"time": 83, "pitch": 67, "duration": 4, "velocity": 72}, {"time": 86, "pitch": 72, "duration": 4, "velocity": 78}, {"time": 89, "pitch": 71, "duration": 4, "velocity": 74}, {"time": 92, "pitch": 69, "duration": 4, "velocity": 74}, {"time": 95, "pitch": 67, "duration": 3, "velocity": 69}, {"time": 98, "pitch": 67, "duration": 11, "velocity": 68}, {"time": 98, "pitch": 71, "duration": 11, "velocity": 73}, {"time": 110, "pitch": 67, "duration": 10, "velocity": 73}, {"time": 110, "pitch": 71, "duration": 10, "velocity": 78}, {"time": 122, "pitch": 67, "duration": 24, "velocity": 69}, {"time": 122, "pitch": 72, "duration": 24, "velocity": 72}, {"time": 134, "pitch": 81, "duration": 13, "velocity": 80}, {"time": 146, "pitch": 67, "duration": 11, "velocity": 58}, {"time": 146, "pitch": 71, "duration": 11, "velocity": 69}, {"time": 146, "pitch": 83, "duration": 36, "velocity": 76}, {"time": 158, "pitch": 67, "duration": 10, "velocity": 66}, {"time": 158, "pitch": 71, "duration": 10, "velocity": 71}, {"time": 170, "pitch": 67, "duration": 7, "velocity": 64}, {"time": 170, "pitch": 71, "duration": 7, "velocity": 72}, {"time": 176, "pitch": 62, "duration": 5, "velocity": 70}, {"time": 179, "pitch": 67, "duration": 4, "velocity": 72}, {"time": 182, "pitch": 72, "duration": 4, "velocity": 78}, {"time": 182, "pitch": 84, "duration": 4, "velocity": 79}, {"time": 185, "pitch": 71, "duration": 4, "velocity": 74}, {"time": 185, "pitch": 83, "duration": 4, "velocity": 76}, {"time": 188, "pitch": 69, "duration": 4, "velocity": 74}, {"time": 188, "pitch": 81, "duration": 3, "velocity": 77}, {"time": 191, "pitch": 67, "duration": 3, "velocity": 69}, {"time": 191, "pitch": 79, "duration": 3, "velocity": 72}, {"time": 194, "pitch": 67, "duration": 11, "velocity": 68}, {"time": 194, "pitch": 71, "duration": 11, "velocity": 73}, {"time": 194, "pitch": 83, "duration": 25, "velocity": 79}, {"time": 206, "pitch": 67, "duration": 10, "velocity": 73}, {"time": 206, "pitch": 71, "duration": 10, "velocity": 78}, {"time": 218, "pitch": 67, "duration": 24, "velocity": 69}, {"time": 218, "pitch": 72, "duration": 24, "velocity": 72}, {"time": 218, "pitch": 84, "duration": 7, "velocity": 80}, {"time": 224, "pitch": 79, "duration": 6, "velocity": 71}, {"time": 230, "pitch": 75, "duration": 12, "velocity": 69}, {"time": 242, "pitch": 74, "duration": 18, "velocity": 68}, {"time": 281, "pitch": 62, "duration": 4, "velocity": 74}, {"time": 284, "pitch": 67, "duration": 3, "velocity": 68}, {"time": 287, "pitch": 71, "duration": 4, "velocity": 74}, {"time": 290, "pitch": 69, "duration": 23, "velocity": 71}, {"time": 323, "pitch": 65, "duration": 4, "velocity": 71}, {"time": 326, "pitch": 72, "duration": 4, "velocity": 74}, {"time": 329, "pitch": 71, "duration": 5, "velocity": 78}, {"time": 332, "pitch": 67, "duration": 4, "velocity": 66}, {"time": 335, "pitch": 62, "duration": 4, "velocity": 69}, {"time": 338, "pitch": 64, "duration": 20, "velocity": 76}, {"time": 425, "pitch": 59, "duration": 4, "velocity": 77}, {"time": 428, "pitch": 62, "duration": 4, "velocity": 72}, {"time": 431, "pitch": 67, "duration": 4, "velocity": 69}, {"time": 434, "pitch": 66, "duration": 22, "velocity": 71}, {"time": 470, "pitch": 71, "duration": 3, "velocity": 76}, {"time": 473, "pitch": 69, "duration": 4, "velocity": 73}, {"time": 476, "pitch": 67, "duration": 3, "velocity": 68}, {"time": 479, "pitch": 66, "duration": 4, "velocity": 70}, {"time": 482, "pitch": 67, "duration": 23, "velocity": 77}, {"time": 524, "pitch": 62, "duration": 6, "velocity": 69}, {"time": 530, "pitch": 60, "duration": 22, "velocity": 68}, {"time": 530, "pitch": 64, "duration": 22, "velocity": 71}, {"time": 599, "pitch": 74, "duration": 3, "velocity": 66}, {"time": 600, "pitch": 79, "duration": 3, "velocity": 66}, {"time": 601, "pitch": 81, "duration": 3, "velocity": 70}, {"time": 603, "pitch": 86, "duration": 12, "velocity": 77}, {"time": 609, "pitch": 84, "duration": 2, "velocity": 73}, {"time": 610, "pitch": 83, "duration": 2, "velocity": 51}, {"time": 611, "pitch": 81, "duration": 1, "velocity": 54}, {"time": 612, "pitch": 79, "duration": 1, "velocity": 56}, {"time": 612, "pitch": 76, "duration": 2, "velocity": 56}, {"time": 613, "pitch": 74, "duration": 2, "velocity": 60}, {"time": 614, "pitch": 72, "duration": 2, "velocity": 66}, {"time": 615, "pitch": 71, "duration": 2, "velocity": 58}, {"time": 616, "pitch": 69, "duration": 2, "velocity": 51}, {"time": 617, "pitch": 67, "duration": 1, "velocity": 53}, {"time": 618, "pitch": 66, "duration": 1, "velocity": 55}, {"time": 618, "pitch": 64, "duration": 2, "velocity": 61}, {"time": 619, "pitch": 62, "duration": 2, "velocity": 56}, {"time": 620, "pitch": 60, "duration": 2, "velocity": 56}, {"time": 621, "pitch": 59, "duration": 2, "velocity": 60}, {"time": 622, "pitch": 57, "duration": 1, "velocity": 61}, {"time": 623, "pitch": 55, "duration": 1, "velocity": 63}, {"time": 624, "pitch": 54, "duration": 2, "velocity": 65}, {"time": 625, "pitch": 52, "duration": 2, "velocity": 65}, {"time": 626, "pitch": 50, "duration": 5, "velocity": 65}, {"time": 626, "pitch": 55, "duration": 19, "velocity": 71}, {"time": 644, "pitch": 57, "duration": 6, "velocity": 71}, {"time": 650, "pitch": 59, "duration": 7, "velocity": 69}, {"time": 655, "pitch": 62, "duration": 8, "velocity": 68}, {"time": 662, "pitch": 67, "duration": 6, "velocity": 65}, {"time": 667, "pitch": 69, "duration": 7, "velocity": 63}, {"time": 674, "pitch": 65, "duration": 18, "velocity": 67}, {"time": 692, "pitch": 59, "duration": 6, "velocity": 76}, {"time": 698, "pitch": 60, "duration": 14, "velocity": 72}, {"time": 710, "pitch": 62, "duration": 14, "velocity": 72}, {"time": 722, "pitch": 60, "duration": 11, "velocity": 65}, {"time": 734, "pitch": 62, "duration": 6, "velocity": 75}, {"time": 740, "pitch": 64, "duration": 7, "velocity": 73}, {"time": 746, "pitch": 67, "duration": 7, "velocity": 65}, {"time": 752, "pitch": 72, "duration": 6, "velocity": 73}, {"time": 758, "pitch": 76, "duration": 4, "velocity": 74}, {"time": 761, "pitch": 74, "duration": 4, "velocity": 78}, {"time": 764, "pitch": 72, "duration": 3, "velocity": 71}, {"time": 767, "pitch": 71, "duration": 3, "velocity": 67}, {"time": 770, "pitch": 71, "duration": 45, "velocity": 60}, {"time": 770, "pitch": 74, "duration": 46, "velocity": 73}, {"time": 818, "pitch": 69, "duration": 25, "velocity": 73}, {"time": 842, "pitch": 71, "duration": 25, "velocity": 74}, {"time": 866, "pitch": 79, "duration": 13, "velocity": 71}, {"time": 878, "pitch": 78, "duration": 13, "velocity": 63}, {"time": 890, "pitch": 76, "duration": 18, "velocity": 78}, {"time": 908, "pitch": 71, "duration": 5, "velocity": 68}, {"time": 908, "pitch": 74, "duration": 6, "velocity": 77}, {"time": 914, "pitch": 69, "duration": 25, "velocity": 66}, {"time": 914, "pitch": 72, "duration": 24, "velocity": 68}, {"time": 938, "pitch": 72, "duration": 6, "velocity": 78}, {"time": 944, "pitch": 74, "duration": 6, "velocity": 79}, {"time": 950, "pitch": 76, "duration": 10, "velocity": 79}, {"time": 956, "pitch": 79, "duration": 6, "velocity": 78}, {"time": 962, "pitch": 81, "duration": 24, "velocity": 75}, {"time": 986, "pitch": 74, "duration": 24, "velocity": 65}, {"time": 986, "pitch": 78, "duration": 24, "velocity": 65}, {"time": 1010, "pitch": 79, "duration": 16, "velocity": 67}, {"time": 1010, "pitch": 83, "duration": 18, "velocity": 72}, {"time": 1028, "pitch": 81, "duration": 8, "velocity": 74}, {"time": 1034, "pitch": 83, "duration": 8, "velocity": 74}, {"time": 1040, "pitch": 86, "duration": 4, "velocity": 69}, {"time": 1046, "pitch": 91, "duration": 6, "velocity": 78}, {"time": 1052, "pitch": 90, "duration": 6, "velocity": 77}, {"time": 1058, "pitch": 86, "duration": 24, "velocity": 74}, {"time": 1082, "pitch": 90, "duration": 7, "velocity": 73}, {"time": 1088, "pitch": 86, "duration": 7, "velocity": 71}, {"time": 1094, "pitch": 83, "duration": 7, "velocity": 70}, {"time": 1100, "pitch": 79, "duration": 4, "velocity": 71}, {"time": 1103, "pitch": 78, "duration": 4, "velocity": 64}, {"time": 1106, "pitch": 76, "duration": 23, "velocity": 77}, {"time": 1118, "pitch": 88, "duration": 10, "velocity": 66}, {"time": 1118, "pitch": 91, "duration": 12, "velocity": 71}, {"time": 1130, "pitch": 86, "duration": 10, "velocity": 64}, {"time": 1130, "pitch": 90, "duration": 10, "velocity": 67}, {"time": 1142, "pitch": 86, "duration": 10, "velocity": 74}, {"time": 1154, "pitch": 84, "duration": 19, "velocity": 69}, {"time": 1154, "pitch": 88, "duration": 19, "velocity": 75}, {"time": 1172, "pitch": 86, "duration": 6, "velocity": 74}, {"time": 1178, "pitch": 88, "duration": 2, "velocity": 80}, {"time": 1181, "pitch": 86, "duration": 2, "velocity": 69}, {"time": 1184, "pitch": 88, "duration": 9, "velocity": 78}, {"time": 1208, "pitch": 64, "duration": 7, "velocity": 78}, {"time": 1214, "pitch": 66, "duration": 6, "velocity": 67}, {"time": 1220, "pitch": 67, "duration": 7, "velocity": 72}, {"time": 1226, "pitch": 71, "duration": 6, "velocity": 79}, {"time": 1232, "pitch": 69, "duration": 6, "velocity": 73}, {"time": 1238, "pitch": 64, "duration": 2, "velocity": 82}, {"time": 1240, "pitch": 66, "duration": 1, "velocity": 79}, {"time": 1241, "pitch": 67, "duration": 2, "velocity": 74}, {"time": 1243, "pitch": 69, "duration": 1, "velocity": 72}, {"time": 1244, "pitch": 71, "duration": 2, "velocity": 57}, {"time": 1246, "pitch": 72, "duration": 2, "velocity": 56}, {"time": 1247, "pitch": 74, "duration": 2, "velocity": 65}, {"time": 1249, "pitch": 76, "duration": 1, "velocity": 79}, {"time": 1250, "pitch": 78, "duration": 21, "velocity": 83}, {"time": 1250, "pitch": 81, "duration": 21, "velocity": 79}, {"time": 1274, "pitch": 79, "duration": 19, "velocity": 64}, {"time": 1274, "pitch": 83, "duration": 18, "velocity": 59}, {"time": 1292, "pitch": 81, "duration": 6, "velocity": 77}, {"time": 1298, "pitch": 79, "duration": 21, "velocity": 76}, {"time": 1304, "pitch": 69, "duration": 2, "velocity": 69}, {"time": 1307, "pitch": 71, "duration": 2, "velocity": 75}, {"time": 1310, "pitch": 72, "duration": 5, "velocity": 74}, {"time": 1316, "pitch": 71, "duration": 3, "velocity": 69}, {"time": 1319, "pitch": 69, "duration": 2, "velocity": 76}, {"time": 1322, "pitch": 69, "duration": 23, "velocity": 73}, {"time": 1322, "pitch": 74, "duration": 22, "velocity": 79}, {"time": 1346, "pitch": 67, "duration": 11, "velocity": 58}, {"time": 1346, "pitch": 71, "duration": 11, "velocity": 69}, {"time": 1358, "pitch": 67, "duration": 10, "velocity": 66}, {"time": 1358, "pitch": 71, "duration": 10, "velocity": 71}, {"time": 1370, "pitch": 67, "duration": 7, "velocity": 64}, {"time": 1370, "pitch": 71, "duration": 7, "velocity": 72}, {"time": 1376, "pitch": 62, "duration": 5, "velocity": 70}, {"time": 1379, "pitch": 67, "duration": 4, "velocity": 72}, {"time": 1382, "pitch": 72, "duration": 4, "velocity": 78}, {"time": 1385, "pitch": 71, "duration": 4, "velocity": 74}, {"time": 1388, "pitch": 69, "duration": 4, "velocity": 74}, {"time": 1391, "pitch": 67, "duration": 3, "velocity": 69}, {"time": 1394, "pitch": 67, "duration": 11, "velocity": 68}, {"time": 1394, "pitch": 71, "duration": 11, "velocity": 73}, {"time": 1394, "pitch": 74, "duration": 30, "velocity": 79}, {"time": 1406, "pitch": 67, "duration": 10, "velocity": 73}, {"time": 1406, "pitch": 71, "duration": 10, "velocity": 78}, {"time": 1418, "pitch": 67, "duration": 24, "velocity": 69}, {"time": 1418, "pitch": 72, "duration": 24, "velocity": 72}, {"time": 1430, "pitch": 81, "duration": 13, "velocity": 80}, {"time": 1442, "pitch": 67, "duration": 9, "velocity": 58}, {"time": 1442, "pitch": 71, "duration": 11, "velocity": 69}, {"time": 1442, "pitch": 83, "duration": 21, "velocity": 76}, {"time": 1448, "pitch": 62, "duration": 3, "velocity": 79}, {"time": 1451, "pitch": 67, "duration": 3, "velocity": 79}, {"time": 1454, "pitch": 69, "duration": 3, "velocity": 79}, {"time": 1457, "pitch": 71, "duration": 3, "velocity": 79}, {"time": 1460, "pitch": 74, "duration": 3, "velocity": 79}, {"time": 1463, "pitch": 79, "duration": 3, "velocity": 79}, {"time": 1466, "pitch": 81, "duration": 3, "velocity": 79}, {"time": 1469, "pitch": 74, "duration": 3, "velocity": 79}, {"time": 1472, "pitch": 79, "duration": 3, "velocity": 79}, {"time": 1475, "pitch": 86, "duration": 3, "velocity": 79}, {"time": 1478, "pitch": 84, "duration": 3, "velocity": 79}, {"time": 1481, "pitch": 83, "duration": 3, "velocity": 79}, {"time": 1484, "pitch": 81, "duration": 3, "velocity": 79}, {"time": 1487, "pitch": 79, "duration": 3, "velocity": 79}, {"time": 1490, "pitch": 67, "duration": 11, "velocity": 68}, {"time": 1490, "pitch": 71, "duration": 11, "velocity": 73}, {"time": 1490, "pitch": 83, "duration": 25, "velocity": 79}, {"time": 1502, "pitch": 67, "duration": 10, "velocity": 73}, {"time": 1502, "pitch": 71, "duration": 10, "velocity": 78}, {"time": 1514, "pitch": 67, "duration": 24, "velocity": 69}, {"time": 1514, "pitch": 72, "duration": 24, "velocity": 72}, {"time": 1514, "pitch": 84, "duration": 7, "velocity": 80}, {"time": 1520, "pitch": 79, "duration": 6, "velocity": 71}, {"time": 1526, "pitch": 75, "duration": 12, "velocity": 69}, {"time": 1538, "pitch": 50, "duration": 5, "velocity": 65}, {"time": 1538, "pitch": 55, "duration": 19, "velocity": 71}, {"time": 1538, "pitch": 74, "duration": 18, "velocity": 68}, {"time": 1556, "pitch": 57, "duration": 6, "velocity": 71}, {"time": 1562, "pitch": 59, "duration": 7, "velocity": 69}, {"time": 1567, "pitch": 62, "duration": 8, "velocity": 68}, {"time": 1574, "pitch": 67, "duration": 6, "velocity": 65}, {"time": 1579, "pitch": 69, "duration": 7, "velocity": 63}, {"time": 1586, "pitch": 65, "duration": 18, "velocity": 67}, {"time": 1604, "pitch": 59, "duration": 6, "velocity": 76}, {"time": 1610, "pitch": 60, "duration": 14, "velocity": 72}, {"time": 1622, "pitch": 62, "duration": 14, "velocity": 72}, {"time": 1634, "pitch": 60, "duration": 11, "velocity": 65}, {"time": 1646, "pitch": 62, "duration": 6, "velocity": 75}, {"time": 1652, "pitch": 64, "duration": 7, "velocity": 73}, {"time": 1658, "pitch": 67, "duration": 7, "velocity": 65}, {"time": 1664, "pitch": 72, "duration": 6, "velocity": 73}, {"time": 1670, "pitch": 76, "duration": 4, "velocity": 74}, {"time": 1673, "pitch": 74, "duration": 4, "velocity": 78}, {"time": 1676, "pitch": 72, "duration": 3, "velocity": 71}, {"time": 1679, "pitch": 71, "duration": 3, "velocity": 67}, {"time": 1682, "pitch": 71, "duration": 24, "velocity": 60}, {"time": 1682, "pitch": 74, "duration": 24, "velocity": 73}, {"time": 1700, "pitch": 69, "duration": 6, "velocity": 78}, {"time": 1706, "pitch": 71, "duration": 6, "velocity": 79}, {"time": 1712, "pitch": 74, "duration": 10, "velocity": 78}, {"time": 1718, "pitch": 79, "duration": 7, "velocity": 63}, {"time": 1724, "pitch": 83, "duration": 6, "velocity": 79}, {"time": 1730, "pitch": 81, "duration": 25, "velocity": 78}, {"time": 1760, "pitch": 75, "duration": 6, "velocity": 78}, {"time": 1766, "pitch": 76, "duration": 8, "velocity": 79}, {"time": 1772, "pitch": 78, "duration": 6, "velocity": 80}, {"time": 1778, "pitch": 81, "duration": 7, "velocity": 78}, {"time": 1784, "pitch": 79, "duration": 7, "velocity": 79}, {"time": 1790, "pitch": 78, "duration": 6, "velocity": 78}, {"time": 1796, "pitch": 79, "duration": 6, "velocity": 77}, {"time": 1802, "pitch": 88, "duration": 18, "velocity": 73}, {"time": 1820, "pitch": 71, "duration": 5, "velocity": 68}, {"time": 1820, "pitch": 74, "duration": 6, "velocity": 77}, {"time": 1820, "pitch": 86, "duration": 6, "velocity": 76}, {"time": 1826, "pitch": 69, "duration": 25, "velocity": 66}, {"time": 1826, "pitch": 72, "duration": 24, "velocity": 68}, {"time": 1826, "pitch": 84, "duration": 22, "velocity": 78}, {"time": 1850, "pitch": 72, "duration": 6, "velocity": 78}, {"time": 1850, "pitch": 84, "duration": 8, "velocity": 70}, {"time": 1856, "pitch": 74, "duration": 6, "velocity": 79}, {"time": 1856, "pitch": 86, "duration": 7, "velocity": 75}, {"time": 1862, "pitch": 76, "duration": 10, "velocity": 79}, {"time": 1862, "pitch": 88, "duration": 12, "velocity": 78}, {"time": 1868, "pitch": 79, "duration": 6, "velocity": 78}, {"time": 1874, "pitch": 81, "duration": 24, "velocity": 75}, {"time": 1874, "pitch": 91, "duration": 23, "velocity": 77}, {"time": 1898, "pitch": 78, "duration": 24, "velocity": 65}, {"time": 1898, "pitch": 90, "duration": 22, "velocity": 71}, {"time": 1922, "pitch": 79, "duration": 16, "velocity": 67}, {"time": 1922, "pitch": 83, "duration": 18, "velocity": 72}, {"time": 1940, "pitch": 81, "duration": 8, "velocity": 74}, {"time": 1946, "pitch": 83, "duration": 8, "velocity": 74}, {"time": 1952, "pitch": 86, "duration": 4, "velocity": 69}, {"time": 1958, "pitch": 91, "duration": 6, "velocity": 78}, {"time": 1964, "pitch": 90, "duration": 6, "velocity": 77}, {"time": 1970, "pitch": 86, "duration": 24, "velocity": 74}, {"time": 1994, "pitch": 90, "duration": 7, "velocity": 73}, {"time": 2000, "pitch": 86, "duration": 7, "velocity": 71}, {"time": 2006, "pitch": 83, "duration": 7, "velocity": 70}, {"time": 2012, "pitch": 79, "duration": 4, "velocity": 71}, {"time": 2015, "pitch": 78, "duration": 4, "velocity": 64}, {"time": 2018, "pitch": 76, "duration": 23, "velocity": 77}, {"time": 2030, "pitch": 88, "duration": 10, "velocity": 66}, {"time": 2030, "pitch": 91, "duration": 12, "velocity": 71}, {"time": 2042, "pitch": 86, "duration": 10, "velocity": 64}, {"time": 2042, "pitch": 90, "duration": 10, "velocity": 67}, {"time": 2054, "pitch": 86, "duration": 10, "velocity": 74}, {"time": 2066, "pitch": 84, "duration": 19, "velocity": 69}, {"time": 2066, "pitch": 88, "duration": 19, "velocity": 75}, {"time": 2084, "pitch": 86, "duration": 6, "velocity": 74}, {"time": 2090, "pitch": 88, "duration": 2, "velocity": 80}, {"time": 2093, "pitch": 86, "duration": 2, "velocity": 69}, {"time": 2096, "pitch": 88, "duration": 9, "velocity": 78}, {"time": 2120, "pitch": 64, "duration": 7, "velocity": 78}, {"time": 2126, "pitch": 66, "duration": 6, "velocity": 67}, {"time": 2132, "pitch": 67, "duration": 7, "velocity": 72}, {"time": 2138, "pitch": 71, "duration": 6, "velocity": 79}, {"time": 2144, "pitch": 69, "duration": 6, "velocity": 73}, {"time": 2150, "pitch": 64, "duration": 2, "velocity": 82}, {"time": 2152, "pitch": 66, "duration": 1, "velocity": 79}, {"time": 2153, "pitch": 67, "duration": 2, "velocity": 74}, {"time": 2155, "pitch": 69, "duration": 1, "velocity": 72}, {"time": 2156, "pitch": 71, "duration": 2, "velocity": 57}, {"time": 2158, "pitch": 72, "duration": 2, "velocity": 56}, {"time": 2159, "pitch": 74, "duration": 2, "velocity": 65}, {"time": 2161, "pitch": 76, "duration": 1, "velocity": 79}, {"time": 2162, "pitch": 78, "duration": 21, "velocity": 83}, {"time": 2162, "pitch": 81, "duration": 21, "velocity": 79}, {"time": 2186, "pitch": 79, "duration": 19, "velocity": 64}, {"time": 2186, "pitch": 83, "duration": 18, "velocity": 59}, {"time": 2204, "pitch": 81, "duration": 6, "velocity": 77}, {"time": 2210, "pitch": 79, "duration": 21, "velocity": 76}, {"time": 2216, "pitch": 69, "duration": 2, "velocity": 69}, {"time": 2219, "pitch": 71, "duration": 2, "velocity": 75}, {"time": 2222, "pitch": 72, "duration": 5, "velocity": 74}, {"time": 2228, "pitch": 71, "duration": 3, "velocity": 69}, {"time": 2231, "pitch": 69, "duration": 2, "velocity": 76}, {"time": 2234, "pitch": 69, "duration": 23, "velocity": 73}, {"time": 2234, "pitch": 74, "duration": 20, "velocity": 79}, {"time": 2252, "pitch": 74, "duration": 2, "velocity": 94}, {"time": 2253, "pitch": 76, "duration": 2, "velocity": 74}, {"time": 2255, "pitch": 78, "duration": 1, "velocity": 57}, {"time": 2257, "pitch": 79, "duration": 2, "velocity": 78}, {"time": 2258, "pitch": 81, "duration": 30, "velocity": 77}, {"time": 2288, "pitch": 79, "duration": 7, "velocity": 78}, {"time": 2294, "pitch": 78, "duration": 6, "velocity": 79}, {"time": 2300, "pitch": 76, "duration": 7, "velocity": 80}, {"time": 2306, "pitch": 83, "duration": 18, "velocity": 80}, {"time": 2324, "pitch": 81, "duration": 3, "velocity": 72}, {"time": 2327, "pitch": 79, "duration": 3, "velocity": 74}, {"time": 2330, "pitch": 83, "duration": 13, "velocity": 74}, {"time": 2342, "pitch": 81, "duration": 6, "velocity": 74}, {"time": 2348, "pitch": 79, "duration": 6, "velocity": 76}, {"time": 2354, "pitch": 81, "duration": 18, "velocity": 80}, {"time": 2372, "pitch": 79, "duration": 3, "velocity": 79}, {"time": 2374, "pitch": 78, "duration": 2, "velocity": 80}, {"time": 2378, "pitch": 81, "duration": 6, "velocity": 78}, {"time": 2383, "pitch": 79, "duration": 7, "velocity": 79}, {"time": 2389, "pitch": 78, "duration": 7, "velocity": 78}, {"time": 2395, "pitch": 76, "duration": 6, "velocity": 80}, {"time": 2402, "pitch": 81, "duration": 28, "velocity": 76}, {"time": 2432, "pitch": 76, "duration": 3, "velocity": 79}, {"time": 2435, "pitch": 78, "duration": 2, "velocity": 79}, {"time": 2438, "pitch": 79, "duration": 4, "velocity": 74}, {"time": 2441, "pitch": 78, "duration": 3, "velocity": 80}, {"time": 2444, "pitch": 76, "duration": 4, "velocity": 84}, {"time": 2450, "pitch": 76, "duration": 25, "velocity": 78}, {"time": 2450, "pitch": 79, "duration": 26, "velocity": 80}, {"time": 2480, "pitch": 74, "duration": 2, "velocity": 85}, {"time": 2483, "pitch": 76, "duration": 3, "velocity": 79}, {"time": 2486, "pitch": 78, "duration": 4, "velocity": 83}, {"time": 2489, "pitch": 76, "duration": 3, "velocity": 84}, {"time": 2492, "pitch": 74, "duration": 4, "velocity": 80}, {"time": 2498, "pitch": 72, "duration": 15, "velocity": 79}, {"time": 2498, "pitch": 76, "duration": 16, "velocity": 85}, {"time": 2516, "pitch": 76, "duration": 3, "velocity": 79}, {"time": 2519, "pitch": 78, "duration": 2, "velocity": 79}, {"time": 2522, "pitch": 79, "duration": 6, "velocity": 78}, {"time": 2528, "pitch": 78, "duration": 6, "velocity": 84}, {"time": 2534, "pitch": 76, "duration": 6, "velocity": 81}, {"time": 2540, "pitch": 74, "duration": 5, "velocity": 80}, {"time": 2546, "pitch": 74, "duration": 20, "velocity": 82}, {"time": 2546, "pitch": 78, "duration": 20, "velocity": 79}, {"time": 2570, "pitch": 78, "duration": 8, "velocity": 80}, {"time": 2570, "pitch": 81, "duration": 9, "velocity": 78}, {"time": 2582, "pitch": 73, "duration": 6, "velocity": 82}, {"time": 2588, "pitch": 75, "duration": 5, "velocity": 80}, {"time": 2594, "pitch": 80, "duration": 16, "velocity": 67}, {"time": 2594, "pitch": 84, "duration": 18, "velocity": 72}, {"time": 2612, "pitch": 82, "duration": 8, "velocity": 74}, {"time": 2618, "pitch": 84, "duration": 8, "velocity": 74}, {"time": 2624, "pitch": 87, "duration": 4, "velocity": 69}, {"time": 2630, "pitch": 92, "duration": 6, "velocity": 78}, {"time": 2636, "pitch": 91, "duration": 6, "velocity": 77}, {"time": 2642, "pitch": 87, "duration": 24, "velocity": 74}, {"time": 2666, "pitch": 91, "duration": 7, "velocity": 73}, {"time": 2672, "pitch": 87, "duration": 7, "velocity": 71}, {"time": 2678, "pitch": 84, "duration": 7, "velocity": 70}, {"time": 2684, "pitch": 80, "duration": 4, "velocity": 71}, {"time": 2687, "pitch": 79, "duration": 4, "velocity": 64}, {"time": 2690, "pitch": 77, "duration": 23, "velocity": 77}, {"time": 2702, "pitch": 89, "duration": 10, "velocity": 66}, {"time": 2702, "pitch": 92, "duration": 12, "velocity": 71}, {"time": 2714, "pitch": 87, "duration": 10, "velocity": 64}, {"time": 2714, "pitch": 91, "duration": 10, "velocity": 67}, {"time": 2726, "pitch": 87, "duration": 10, "velocity": 74}, {"time": 2738, "pitch": 85, "duration": 19, "velocity": 69}, {"time": 2738, "pitch": 89, "duration": 19, "velocity": 75}, {"time": 2756, "pitch": 87, "duration": 6, "velocity": 74}, {"time": 2762, "pitch": 89, "duration": 2, "velocity": 80}, {"time": 2765, "pitch": 87, "duration": 2, "velocity": 69}, {"time": 2768, "pitch": 89, "duration": 9, "velocity": 78}, {"time": 2792, "pitch": 65, "duration": 7, "velocity": 78}, {"time": 2798, "pitch": 67, "duration": 6, "velocity": 67}, {"time": 2804, "pitch": 68, "duration": 7, "velocity": 72}, {"time": 2810, "pitch": 72, "duration": 6, "velocity": 79}, {"time": 2816, "pitch": 70, "duration": 6, "velocity": 73}, {"time": 2822, "pitch": 65, "duration": 2, "velocity": 82}, {"time": 2824, "pitch": 67, "duration": 1, "velocity": 79}, {"time": 2825, "pitch": 68, "duration": 2, "velocity": 74}, {"time": 2827, "pitch": 70, "duration": 1, "velocity": 72}, {"time": 2828, "pitch": 72, "duration": 2, "velocity": 57}, {"time": 2830, "pitch": 73, "duration": 2, "velocity": 56}, {"time": 2831, "pitch": 75, "duration": 2, "velocity": 65}, {"time": 2833, "pitch": 77, "duration": 1, "velocity": 79}, {"time": 2834, "pitch": 79, "duration": 21, "velocity": 83}, {"time": 2834, "pitch": 82, "duration": 21, "velocity": 79}, {"time": 2858, "pitch": 80, "duration": 19, "velocity": 64}, {"time": 2858, "pitch": 84, "duration": 18, "velocity": 59}, {"time": 2876, "pitch": 82, "duration": 6, "velocity": 77}, {"time": 2882, "pitch": 80, "duration": 21, "velocity": 76}, {"time": 2888, "pitch": 70, "duration": 2, "velocity": 69}, {"time": 2891, "pitch": 72, "duration": 2, "velocity": 75}, {"time": 2894, "pitch": 73, "duration": 5, "velocity": 74}, {"time": 2900, "pitch": 72, "duration": 3, "velocity": 69}, {"time": 2903, "pitch": 70, "duration": 2, "velocity": 76}, {"time": 2906, "pitch": 70, "duration": 12, "velocity": 73}, {"time": 2906, "pitch": 75, "duration": 12, "velocity": 79}, {"time": 2918, "pitch": 72, "duration": 7, "velocity": 89}, {"time": 2924, "pitch": 75, "duration": 6, "velocity": 94}, {"time": 2930, "pitch": 80, "duration": 19, "velocity": 92}, {"time": 2948, "pitch": 84, "duration": 5, "velocity": 92}, {"time": 2954, "pitch": 84, "duration": 11, "velocity": 89}, {"time": 2966, "pitch": 72, "duration": 5, "velocity": 80}, {"time": 2972, "pitch": 75, "duration": 5, "velocity": 85}, {"time": 2978, "pitch": 79, "duration": 18, "velocity": 82}, {"time": 2996, "pitch": 82, "duration": 5, "velocity": 81}, {"time": 3002, "pitch": 85, "duration": 8, "velocity": 82}, {"time": 3008, "pitch": 84, "duration": 6, "velocity": 85}, {"time": 3014, "pitch": 88, "duration": 6, "velocity": 85}, {"time": 3020, "pitch": 84, "duration": 7, "velocity": 85}, {"time": 3026, "pitch": 91, "duration": 12, "velocity": 94}, {"time": 3038, "pitch": 89, "duration": 36, "velocity": 84}, {"time": 3080, "pitch": 77, "duration": 2, "velocity": 81}, {"time": 3083, "pitch": 79, "duration": 2, "velocity": 78}, {"time": 3086, "pitch": 80, "duration": 4, "velocity": 82}, {"time": 3092, "pitch": 79, "duration": 2, "velocity": 82}, {"time": 3095, "pitch": 80, "duration": 2, "velocity": 79}, {"time": 3098, "pitch": 82, "duration": 5, "velocity": 83}, {"time": 3104, "pitch": 80, "duration": 2, "velocity": 84}, {"time": 3107, "pitch": 82, "duration": 2, "velocity": 81}, {"time": 3110, "pitch": 84, "duration": 2, "velocity": 89}, {"time": 3113, "pitch": 82, "duration": 2, "velocity": 79}, {"time": 3116, "pitch": 80, "duration": 2, "velocity": 82}, {"time": 3119, "pitch": 79, "duration": 2, "velocity": 78}, {"time": 3122, "pitch": 80, "duration": 18, "velocity": 80}, {"time": 3140, "pitch": 82, "duration": 6, "velocity": 78}, {"time": 3146, "pitch": 84, "duration": 7, "velocity": 79}, {"time": 3152, "pitch": 85, "duration": 7, "velocity": 81}, {"time": 3158, "pitch": 92, "duration": 6, "velocity": 80}, {"time": 3164, "pitch": 91, "duration": 7, "velocity": 80}, {"time": 3170, "pitch": 87, "duration": 24, "velocity": 80}, {"time": 3194, "pitch": 89, "duration": 21, "velocity": 67}, {"time": 3218, "pitch": 82, "duration": 26, "velocity": 59}, {"time": 3218, "pitch": 85, "duration": 26, "velocity": 65}, {"time": 3410, "pitch": 68, "duration": 11, "velocity": 58}, {"time": 3410, "pitch": 72, "duration": 11, "velocity": 69}, {"time": 3422, "pitch": 68, "duration": 10, "velocity": 66}, {"time": 3422, "pitch": 72, "duration": 10, "velocity": 71}, {"time": 3434, "pitch": 68, "duration": 7, "velocity": 64}, {"time": 3434, "pitch": 72, "duration": 7, "velocity": 72}, {"time": 3440, "pitch": 63, "duration": 5, "velocity": 70}, {"time": 3443, "pitch": 68, "duration": 4, "velocity": 72}, {"time": 3446, "pitch": 73, "duration": 4, "velocity": 78}, {"time": 3449, "pitch": 72, "duration": 4, "velocity": 74}, {"time": 3452, "pitch": 70, "duration": 4, "velocity": 74}, {"time": 3455, "pitch": 68, "duration": 3, "velocity": 69}, {"time": 3458, "pitch": 68, "duration": 11, "velocity": 68}, {"time": 3458, "pitch": 72, "duration": 11, "velocity": 73}, {"time": 3470, "pitch": 68, "duration": 10, "velocity": 73}, {"time": 3470, "pitch": 72, "duration": 10, "velocity": 78}, {"time": 3482, "pitch": 68, "duration": 24, "velocity": 69}, {"time": 3482, "pitch": 73, "duration": 24, "velocity": 72}, {"time": 3494, "pitch": 82, "duration": 13, "velocity": 80}, {"time": 3506, "pitch": 68, "duration": 11, "velocity": 58}, {"time": 3506, "pitch": 72, "duration": 11, "velocity": 69}, {"time": 3506, "pitch": 84, "duration": 36, "velocity": 76}, {"time": 3518, "pitch": 68, "duration": 10, "velocity": 66}, {"time": 3518, "pitch": 72, "duration": 10, "velocity": 71}, {"time": 3530, "pitch": 68, "duration": 7, "velocity": 64}, {"time": 3530, "pitch": 72, "duration": 7, "velocity": 72}, {"time": 3536, "pitch": 63, "duration": 5, "velocity": 70}, {"time": 3539, "pitch": 68, "duration": 4, "velocity": 72}, {"time": 3542, "pitch": 73, "duration": 4, "velocity": 78}, {"time": 3542, "pitch": 85, "duration": 4, "velocity": 79}, {"time": 3545, "pitch": 72, "duration": 4, "velocity": 74}, {"time": 3545, "pitch": 84, "duration": 4, "velocity": 76}, {"time": 3548, "pitch": 70, "duration": 4, "velocity": 74}, {"time": 3548, "pitch": 82, "duration": 3, "velocity": 77}, {"time": 3551, "pitch": 68, "duration": 3, "velocity": 69}, {"time": 3551, "pitch": 80, "duration": 3, "velocity": 72}, {"time": 3554, "pitch": 68, "duration": 11, "velocity": 68}, {"time": 3554, "pitch": 72, "duration": 11, "velocity": 73}, {"time": 3554, "pitch": 84, "duration": 25, "velocity": 79}, {"time": 3566, "pitch": 68, "duration": 10, "velocity": 73}, {"time": 3566, "pitch": 72, "duration": 10, "velocity": 78}, {"time": 3578, "pitch": 68, "duration": 24, "velocity": 69}, {"time": 3578, "pitch": 73, "duration": 24, "velocity": 72}, {"time": 3578, "pitch": 85, "duration": 7, "velocity": 80}, {"time": 3584, "pitch": 80, "duration": 6, "velocity": 71}, {"time": 3590, "pitch": 76, "duration": 12, "velocity": 69}]}, {"program": 0, "is_drum": false, "name": "PIANO", "notes": [{"time": 50, "pitch": 43, "duration": 46, "velocity": 76}, {"time": 56, "pitch": 50, "duration": 20, "velocity": 55}, {"time": 62, "pitch": 55, "duration": 21, "velocity": 62}, {"time": 62, "pitch": 59, "duration": 21, "velocity": 59}, {"time": 80, "pitch": 50, "duration": 14, "velocity": 46}, {"time": 86, "pitch": 55, "duration": 14, "velocity": 67}, {"time": 86, "pitch": 59, "duration": 14, "velocity": 70}, {"time": 98, "pitch": 48, "duration": 39, "velocity": 70}, {"time": 104, "pitch": 55, "duration": 4, "velocity": 60}, {"time": 110, "pitch": 55, "duration": 3, "velocity": 67}, {"time": 110, "pitch": 60, "duration": 3, "velocity": 67}, {"time": 128, "pitch": 55, "duration": 3, "velocity": 53}, {"time": 134, "pitch": 55, "duration": 2, "velocity": 71}, {"time": 134, "pitch": 60, "duration": 2, "velocity": 71}, {"time": 146, "pitch": 43, "duration": 42, "velocity": 71}, {"time": 146, "pitch": 55, "duration": 8, "velocity": 63}, {"time": 146, "pitch": 59, "duration": 8, "velocity": 64}, {"time": 152, "pitch": 50, "duration": 19, "velocity": 60}, {"time": 158, "pitch": 55, "duration": 3, "velocity": 66}, {"time": 158, "pitch": 62, "duration": 2, "velocity": 69}, {"time": 176, "pitch": 50, "duration": 9, "velocity": 50}, {"time": 182, "pitch": 55, "duration": 3, "velocity": 69}, {"time": 182, "pitch": 59, "duration": 3, "velocity": 72}, {"time": 194, "pitch": 48, "duration": 16, "velocity": 70}, {"time": 194, "pitch": 55, "duration": 4, "velocity": 62}, {"time": 194, "pitch": 60, "duration": 8, "velocity": 67}, {"time": 200, "pitch": 55, "duration": 4, "velocity": 62}, {"time": 206, "pitch": 55, "duration": 3, "velocity": 67}, {"time": 206, "pitch": 60, "duration": 3, "velocity": 72}, {"time": 218, "pitch": 48, "duration": 16, "velocity": 64}, {"time": 218, "pitch": 60, "duration": 24, "velocity": 63}, {"time": 218, "pitch": 63, "duration": 24, "velocity": 61}, {"time": 242, "pitch": 43, "duration": 42, "velocity": 78}, {"time": 248, "pitch": 50, "duration": 21, "velocity": 56}, {"time": 254, "pitch": 55, "duration": 11, "velocity": 71}, {"time": 254, "pitch": 59, "duration": 8, "velocity": 72}, {"time": 266, "pitch": 62, "duration": 5, "velocity": 73}, {"time": 272, "pitch": 50, "duration": 9, "velocity": 57}, {"time": 278, "pitch": 59, "duration": 5, "velocity": 73}, {"time": 278, "pitch": 62, "duration": 5, "velocity": 75}, {"time": 284, "pitch": 55, "duration": 2, "velocity": 78}, {"time": 290, "pitch": 41, "duration": 42, "velocity": 74}, {"time": 290, "pitch": 53, "duration": 13, "velocity": 70}, {"time": 290, "pitch": 57, "duration": 7, "velocity": 68}, {"time": 296, "pitch": 48, "duration": 36, "velocity": 49}, {"time": 302, "pitch": 60, "duration": 9, "velocity": 70}, {"time": 314, "pitch": 60, "duration": 1, "velocity": 60}, {"time": 314, "pitch": 65, "duration": 5, "velocity": 73}, {"time": 326, "pitch": 57, "duration": 5, "velocity": 73}, {"time": 326, "pitch": 60, "duration": 6, "velocity": 75}, {"time": 338, "pitch": 48, "duration": 41, "velocity": 78}, {"time": 338, "pitch": 55, "duration": 3, "velocity": 71}, {"time": 338, "pitch": 60, "duration": 7, "velocity": 73}, {"time": 344, "pitch": 55, "duration": 3, "velocity": 67}, {"time": 350, "pitch": 55, "duration": 3, "velocity": 74}, {"time": 350, "pitch": 62, "duration": 6, "velocity": 73}, {"time": 362, "pitch": 55, "duration": 2, "velocity": 73}, {"time": 362, "pitch": 64, "duration": 9, "velocity": 78}, {"time": 368, "pitch": 55, "duration": 4, "velocity": 65}, {"time": 374, "pitch": 55, "duration": 2, "velocity": 74}, {"time": 374, "pitch": 60, "duration": 5, "velocity": 76}, {"time": 386, "pitch": 43, "duration": 43, "velocity": 70}, {"time": 386, "pitch": 55, "duration": 9, "velocity": 70}, {"time": 386, "pitch": 62, "duration": 10, "velocity": 69}, {"time": 392, "pitch": 50, "duration": 36, "velocity": 61}, {"time": 398, "pitch": 57, "duration": 6, "velocity": 66}, {"time": 410, "pitch": 55, "duration": 13, "velocity": 66}, {"time": 410, "pitch": 59, "duration": 14, "velocity": 69}, {"time": 422, "pitch": 62, "duration": 5, "velocity": 77}, {"time": 434, "pitch": 50, "duration": 15, "velocity": 77}, {"time": 434, "pitch": 57, "duration": 3, "velocity": 63}, {"time": 434, "pitch": 62, "duration": 9, "velocity": 72}, {"time": 440, "pitch": 57, "duration": 8, "velocity": 61}, {"time": 446, "pitch": 62, "duration": 3, "velocity": 74}, {"time": 446, "pitch": 66, "duration": 5, "velocity": 69}, {"time": 458, "pitch": 47, "duration": 17, "velocity": 73}, {"time": 458, "pitch": 59, "duration": 9, "velocity": 70}, {"time": 458, "pitch": 63, "duration": 9, "velocity": 73}, {"time": 464, "pitch": 54, "duration": 9, "velocity": 57}, {"time": 470, "pitch": 59, "duration": 11, "velocity": 79}, {"time": 476, "pitch": 63, "duration": 6, "velocity": 80}, {"time": 482, "pitch": 52, "duration": 6, "velocity": 82}, {"time": 482, "pitch": 59, "duration": 3, "velocity": 69}, {"time": 482, "pitch": 64, "duration": 6, "velocity": 75}, {"time": 488, "pitch": 59, "duration": 2, "velocity": 74}, {"time": 494, "pitch": 50, "duration": 6, "velocity": 78}, {"time": 494, "pitch": 57, "duration": 3, "velocity": 74}, {"time": 494, "pitch": 62, "duration": 6, "velocity": 78}, {"time": 494, "pitch": 66, "duration": 6, "velocity": 71}, {"time": 500, "pitch": 57, "duration": 1, "velocity": 65}, {"time": 506, "pitch": 48, "duration": 12, "velocity": 75}, {"time": 506, "pitch": 55, "duration": 3, "velocity": 76}, {"time": 506, "pitch": 60, "duration": 7, "velocity": 73}, {"time": 512, "pitch": 55, "duration": 4, "velocity": 66}, {"time": 518, "pitch": 55, "duration": 2, "velocity": 68}, {"time": 518, "pitch": 60, "duration": 2, "velocity": 67}, {"time": 518, "pitch": 64, "duration": 3, "velocity": 74}, {"time": 524, "pitch": 47, "duration": 5, "velocity": 79}, {"time": 524, "pitch": 59, "duration": 5, "velocity": 72}, {"time": 524, "pitch": 62, "duration": 6, "velocity": 74}, {"time": 530, "pitch": 45, "duration": 38, "velocity": 77}, {"time": 530, "pitch": 57, "duration": 8, "velocity": 71}, {"time": 530, "pitch": 60, "duration": 8, "velocity": 77}, {"time": 536, "pitch": 52, "duration": 20, "velocity": 58}, {"time": 542, "pitch": 57, "duration": 2, "velocity": 72}, {"time": 542, "pitch": 60, "duration": 7, "velocity": 78}, {"time": 542, "pitch": 64, "duration": 7, "velocity": 79}, {"time": 548, "pitch": 57, "duration": 4, "velocity": 58}, {"time": 554, "pitch": 57, "duration": 4, "velocity": 66}, {"time": 554, "pitch": 60, "duration": 4, "velocity": 72}, {"time": 560, "pitch": 52, "duration": 7, "velocity": 51}, {"time": 566, "pitch": 57, "duration": 2, "velocity": 76}, {"time": 566, "pitch": 60, "duration": 5, "velocity": 80}, {"time": 566, "pitch": 64, "duration": 5, "velocity": 80}, {"time": 572, "pitch": 57, "duration": 5, "velocity": 71}, {"time": 578, "pitch": 38, "duration": 2, "velocity": 79}, {"time": 578, "pitch": 57, "duration": 8, "velocity": 70}, {"time": 578, "pitch": 62, "duration": 9, "velocity": 75}, {"time": 584, "pitch": 50, "duration": 36, "velocity": 67}, {"time": 590, "pitch": 57, "duration": 8, "velocity": 78}, {"time": 596, "pitch": 62, "duration": 2, "velocity": 72}, {"time": 602, "pitch": 57, "duration": 4, "velocity": 76}, {"time": 602, "pitch": 66, "duration": 8, "velocity": 71}, {"time": 614, "pitch": 57, "duration": 3, "velocity": 69}, {"time": 614, "pitch": 62, "duration": 4, "velocity": 73}, {"time": 626, "pitch": 43, "duration": 45, "velocity": 79}, {"time": 626, "pitch": 55, "duration": 7, "velocity": 71}, {"time": 626, "pitch": 62, "duration": 7, "velocity": 72}, {"time": 632, "pitch": 50, "duration": 8, "velocity": 57}, {"time": 638, "pitch": 55, "duration": 6, "velocity": 72}, {"time": 638, "pitch": 59, "duration": 5, "velocity": 71}, {"time": 644, "pitch": 50, "duration": 7, "velocity": 53}, {"time": 650, "pitch": 55, "duration": 4, "velocity": 67}, {"time": 650, "pitch": 59, "duration": 4, "velocity": 71}, {"time": 656, "pitch": 50, "duration": 7, "velocity": 49}, {"time": 662, "pitch": 55, "duration": 4, "velocity": 75}, {"time": 662, "pitch": 59, "duration": 5, "velocity": 79}, {"time": 662, "pitch": 62, "duration": 6, "velocity": 79}, {"time": 668, "pitch": 50, "duration": 6, "velocity": 72}, {"time": 674, "pitch": 41, "duration": 43, "velocity": 77}, {"time": 674, "pitch": 53, "duration": 8, "velocity": 73}, {"time": 674, "pitch": 57, "duration": 7, "velocity": 73}, {"time": 680, "pitch": 48, "duration": 8, "velocity": 47}, {"time": 686, "pitch": 53, "duration": 3, "velocity": 74}, {"time": 686, "pitch": 57, "duration": 3, "velocity": 76}, {"time": 686, "pitch": 60, "duration": 3, "velocity": 74}, {"time": 698, "pitch": 57, "duration": 4, "velocity": 71}, {"time": 698, "pitch": 60, "duration": 6, "velocity": 74}, {"time": 704, "pitch": 48, "duration": 7, "velocity": 44}, {"time": 710, "pitch": 53, "duration": 5, "velocity": 75}, {"time": 710, "pitch": 60, "duration": 8, "velocity": 78}, {"time": 716, "pitch": 48, "duration": 4, "velocity": 73}, {"time": 722, "pitch": 48, "duration": 20, "velocity": 78}, {"time": 722, "pitch": 55, "duration": 3, "velocity": 72}, {"time": 722, "pitch": 60, "duration": 13, "velocity": 74}, {"time": 728, "pitch": 55, "duration": 7, "velocity": 66}, {"time": 734, "pitch": 64, "duration": 7, "velocity": 80}, {"time": 740, "pitch": 55, "duration": 9, "velocity": 66}, {"time": 746, "pitch": 48, "duration": 21, "velocity": 73}, {"time": 746, "pitch": 60, "duration": 6, "velocity": 75}, {"time": 752, "pitch": 55, "duration": 2, "velocity": 50}, {"time": 758, "pitch": 55, "duration": 7, "velocity": 79}, {"time": 758, "pitch": 64, "duration": 6, "velocity": 82}, {"time": 764, "pitch": 60, "duration": 3, "velocity": 75}, {"time": 770, "pitch": 43, "duration": 42, "velocity": 76}, {"time": 770, "pitch": 55, "duration": 13, "velocity": 72}, {"time": 770, "pitch": 59, "duration": 10, "velocity": 72}, {"time": 776, "pitch": 50, "duration": 36, "velocity": 65}, {"time": 782, "pitch": 62, "duration": 7, "velocity": 76}, {"time": 788, "pitch": 55, "duration": 7, "velocity": 79}, {"time": 794, "pitch": 67, "duration": 4, "velocity": 75}, {"time": 800, "pitch": 55, "duration": 3, "velocity": 71}, {"time": 806, "pitch": 55, "duration": 5, "velocity": 79}, {"time": 806, "pitch": 59, "duration": 6, "velocity": 79}, {"time": 812, "pitch": 60, "duration": 2, "velocity": 78}, {"time": 818, "pitch": 50, "duration": 18, "velocity": 79}, {"time": 818, "pitch": 57, "duration": 3, "velocity": 74}, {"time": 818, "pitch": 62, "duration": 9, "velocity": 77}, {"time": 824, "pitch": 57, "duration": 8, "velocity": 67}, {"time": 830, "pitch": 62, "duration": 6, "velocity": 76}, {"time": 830, "pitch": 66, "duration": 7, "velocity": 67}, {"time": 836, "pitch": 57, "duration": 4, "velocity": 79}, {"time": 842, "pitch": 47, "duration": 15, "velocity": 80}, {"time": 842, "pitch": 59, "duration": 13, "velocity": 79}, {"time": 842, "pitch": 63, "duration": 10, "velocity": 74}, {"time": 848, "pitch": 54, "duration": 8, "velocity": 62}, {"time": 854, "pitch": 63, "duration": 8, "velocity": 74}, {"time": 854, "pitch": 66, "duration": 8, "velocity": 77}, {"time": 866, "pitch": 40, "duration": 7, "velocity": 80}, {"time": 866, "pitch": 64, "duration": 6, "velocity": 79}, {"time": 866, "pitch": 67, "duration": 6, "velocity": 74}, {"time": 872, "pitch": 59, "duration": 3, "velocity": 80}, {"time": 878, "pitch": 38, "duration": 5, "velocity": 79}, {"time": 878, "pitch": 62, "duration": 5, "velocity": 73}, {"time": 878, "pitch": 66, "duration": 5, "velocity": 70}, {"time": 890, "pitch": 48, "duration": 11, "velocity": 75}, {"time": 890, "pitch": 60, "duration": 9, "velocity": 73}, {"time": 890, "pitch": 64, "duration": 10, "velocity": 78}, {"time": 896, "pitch": 55, "duration": 6, "velocity": 64}, {"time": 902, "pitch": 48, "duration": 5, "velocity": 71}, {"time": 902, "pitch": 60, "duration": 3, "velocity": 73}, {"time": 902, "pitch": 64, "duration": 3, "velocity": 78}, {"time": 908, "pitch": 47, "duration": 5, "velocity": 71}, {"time": 908, "pitch": 59, "duration": 4, "velocity": 71}, {"time": 908, "pitch": 62, "duration": 3, "velocity": 73}, {"time": 914, "pitch": 45, "duration": 22, "velocity": 78}, {"time": 914, "pitch": 57, "duration": 9, "velocity": 72}, {"time": 914, "pitch": 60, "duration": 8, "velocity": 73}, {"time": 920, "pitch": 52, "duration": 14, "velocity": 61}, {"time": 926, "pitch": 57, "duration": 3, "velocity": 73}, {"time": 926, "pitch": 60, "duration": 5, "velocity": 77}, {"time": 926, "pitch": 64, "duration": 5, "velocity": 79}, {"time": 938, "pitch": 45, "duration": 15, "velocity": 78}, {"time": 938, "pitch": 55, "duration": 6, "velocity": 76}, {"time": 938, "pitch": 60, "duration": 6, "velocity": 75}, {"time": 944, "pitch": 52, "duration": 8, "velocity": 65}, {"time": 950, "pitch": 55, "duration": 3, "velocity": 79}, {"time": 950, "pitch": 60, "duration": 7, "velocity": 80}, {"time": 950, "pitch": 64, "duration": 6, "velocity": 80}, {"time": 956, "pitch": 55, "duration": 2, "velocity": 74}, {"time": 962, "pitch": 38, "duration": 14, "velocity": 79}, {"time": 962, "pitch": 57, "duration": 7, "velocity": 67}, {"time": 962, "pitch": 62, "duration": 7, "velocity": 75}, {"time": 962, "pitch": 66, "duration": 8, "velocity": 70}, {"time": 968, "pitch": 45, "duration": 7, "velocity": 57}, {"time": 974, "pitch": 57, "duration": 2, "velocity": 77}, {"time": 974, "pitch": 62, "duration": 4, "velocity": 79}, {"time": 980, "pitch": 57, "duration": 4, "velocity": 79}, {"time": 986, "pitch": 50, "duration": 24, "velocity": 76}, {"time": 986, "pitch": 57, "duration": 7, "velocity": 79}, {"time": 986, "pitch": 62, "duration": 7, "velocity": 78}, {"time": 986, "pitch": 66, "duration": 7, "velocity": 71}, {"time": 998, "pitch": 57, "duration": 11, "velocity": 78}, {"time": 998, "pitch": 62, "duration": 11, "velocity": 78}, {"time": 998, "pitch": 66, "duration": 11, "velocity": 78}, {"time": 1010, "pitch": 43, "duration": 22, "velocity": 78}, {"time": 1010, "pitch": 62, "duration": 7, "velocity": 74}, {"time": 1013, "pitch": 50, "duration": 19, "velocity": 66}, {"time": 1016, "pitch": 55, "duration": 7, "velocity": 71}, {"time": 1019, "pitch": 59, "duration": 4, "velocity": 74}, {"time": 1022, "pitch": 62, "duration": 6, "velocity": 74}, {"time": 1025, "pitch": 55, "duration": 11, "velocity": 72}, {"time": 1028, "pitch": 59, "duration": 8, "velocity": 72}, {"time": 1031, "pitch": 62, "duration": 6, "velocity": 71}, {"time": 1034, "pitch": 43, "duration": 19, "velocity": 79}, {"time": 1034, "pitch": 67, "duration": 5, "velocity": 73}, {"time": 1037, "pitch": 50, "duration": 11, "velocity": 69}, {"time": 1040, "pitch": 55, "duration": 4, "velocity": 72}, {"time": 1043, "pitch": 59, "duration": 2, "velocity": 76}, {"time": 1046, "pitch": 55, "duration": 6, "velocity": 79}, {"time": 1046, "pitch": 59, "duration": 6, "velocity": 83}, {"time": 1046, "pitch": 62, "duration": 7, "velocity": 80}, {"time": 1052, "pitch": 50, "duration": 2, "velocity": 78}, {"time": 1058, "pitch": 47, "duration": 22, "velocity": 80}, {"time": 1058, "pitch": 59, "duration": 4, "velocity": 73}, {"time": 1058, "pitch": 62, "duration": 6, "velocity": 78}, {"time": 1061, "pitch": 54, "duration": 19, "velocity": 61}, {"time": 1064, "pitch": 59, "duration": 6, "velocity": 73}, {"time": 1067, "pitch": 66, "duration": 8, "velocity": 72}, {"time": 1070, "pitch": 62, "duration": 3, "velocity": 71}, {"time": 1073, "pitch": 59, "duration": 12, "velocity": 74}, {"time": 1076, "pitch": 62, "duration": 8, "velocity": 75}, {"time": 1079, "pitch": 66, "duration": 4, "velocity": 82}, {"time": 1082, "pitch": 47, "duration": 19, "velocity": 79}, {"time": 1082, "pitch": 71, "duration": 9, "velocity": 81}, {"time": 1085, "pitch": 54, "duration": 10, "velocity": 66}, {"time": 1088, "pitch": 66, "duration": 6, "velocity": 79}, {"time": 1091, "pitch": 62, "duration": 4, "velocity": 73}, {"time": 1094, "pitch": 59, "duration": 4, "velocity": 82}, {"time": 1097, "pitch": 54, "duration": 3, "velocity": 72}, {"time": 1100, "pitch": 59, "duration": 5, "velocity": 79}, {"time": 1103, "pitch": 62, "duration": 4, "velocity": 69}, {"time": 1106, "pitch": 40, "duration": 16, "velocity": 79}, {"time": 1106, "pitch": 64, "duration": 8, "velocity": 78}, {"time": 1112, "pitch": 47, "duration": 9, "velocity": 66}, {"time": 1118, "pitch": 59, "duration": 3, "velocity": 72}, {"time": 1118, "pitch": 64, "duration": 7, "velocity": 79}, {"time": 1118, "pitch": 67, "duration": 7, "velocity": 72}, {"time": 1124, "pitch": 59, "duration": 3, "velocity": 68}, {"time": 1130, "pitch": 50, "duration": 15, "velocity": 79}, {"time": 1130, "pitch": 62, "duration": 9, "velocity": 71}, {"time": 1136, "pitch": 57, "duration": 7, "velocity": 63}, {"time": 1142, "pitch": 62, "duration": 6, "velocity": 73}, {"time": 1142, "pitch": 66, "duration": 6, "velocity": 72}, {"time": 1148, "pitch": 57, "duration": 2, "velocity": 73}, {"time": 1154, "pitch": 48, "duration": 23, "velocity": 78}, {"time": 1154, "pitch": 55, "duration": 3, "velocity": 69}, {"time": 1154, "pitch": 60, "duration": 8, "velocity": 72}, {"time": 1160, "pitch": 55, "duration": 7, "velocity": 70}, {"time": 1166, "pitch": 64, "duration": 7, "velocity": 80}, {"time": 1169, "pitch": 55, "duration": 4, "velocity": 71}, {"time": 1172, "pitch": 60, "duration": 5, "velocity": 74}, {"time": 1175, "pitch": 55, "duration": 5, "velocity": 67}, {"time": 1178, "pitch": 48, "duration": 8, "velocity": 76}, {"time": 1178, "pitch": 60, "duration": 7, "velocity": 65}, {"time": 1178, "pitch": 64, "duration": 10, "velocity": 77}, {"time": 1184, "pitch": 55, "duration": 2, "velocity": 67}, {"time": 1190, "pitch": 47, "duration": 9, "velocity": 82}, {"time": 1190, "pitch": 59, "duration": 3, "velocity": 78}, {"time": 1190, "pitch": 62, "duration": 8, "velocity": 77}, {"time": 1196, "pitch": 50, "duration": 5, "velocity": 79}, {"time": 1199, "pitch": 59, "duration": 2, "velocity": 78}, {"time": 1202, "pitch": 45, "duration": 22, "velocity": 79}, {"time": 1202, "pitch": 57, "duration": 3, "velocity": 78}, {"time": 1202, "pitch": 60, "duration": 6, "velocity": 77}, {"time": 1205, "pitch": 52, "duration": 11, "velocity": 71}, {"time": 1208, "pitch": 57, "duration": 5, "velocity": 75}, {"time": 1211, "pitch": 60, "duration": 3, "velocity": 73}, {"time": 1214, "pitch": 64, "duration": 5, "velocity": 81}, {"time": 1217, "pitch": 52, "duration": 7, "velocity": 73}, {"time": 1220, "pitch": 57, "duration": 8, "velocity": 73}, {"time": 1223, "pitch": 60, "duration": 5, "velocity": 61}, {"time": 1226, "pitch": 45, "duration": 16, "velocity": 76}, {"time": 1226, "pitch": 69, "duration": 7, "velocity": 79}, {"time": 1229, "pitch": 52, "duration": 11, "velocity": 78}, {"time": 1232, "pitch": 57, "duration": 5, "velocity": 78}, {"time": 1235, "pitch": 60, "duration": 2, "velocity": 78}, {"time": 1238, "pitch": 57, "duration": 5, "velocity": 75}, {"time": 1238, "pitch": 60, "duration": 6, "velocity": 78}, {"time": 1238, "pitch": 64, "duration": 6, "velocity": 82}, {"time": 1244, "pitch": 45, "duration": 1, "velocity": 45}, {"time": 1244, "pitch": 52, "duration": 5, "velocity": 80}, {"time": 1250, "pitch": 47, "duration": 18, "velocity": 83}, {"time": 1250, "pitch": 59, "duration": 8, "velocity": 74}, {"time": 1250, "pitch": 62, "duration": 9, "velocity": 75}, {"time": 1256, "pitch": 54, "duration": 7, "velocity": 68}, {"time": 1262, "pitch": 66, "duration": 7, "velocity": 84}, {"time": 1265, "pitch": 54, "duration": 2, "velocity": 74}, {"time": 1268, "pitch": 59, "duration": 7, "velocity": 78}, {"time": 1271, "pitch": 62, "duration": 4, "velocity": 71}, {"time": 1274, "pitch": 40, "duration": 15, "velocity": 81}, {"time": 1274, "pitch": 64, "duration": 6, "velocity": 77}, {"time": 1277, "pitch": 47, "duration": 12, "velocity": 74}, {"time": 1280, "pitch": 59, "duration": 4, "velocity": 79}, {"time": 1283, "pitch": 64, "duration": 4, "velocity": 79}, {"time": 1286, "pitch": 67, "duration": 4, "velocity": 79}, {"time": 1289, "pitch": 64, "duration": 3, "velocity": 80}, {"time": 1292, "pitch": 59, "duration": 2, "velocity": 76}, {"time": 1298, "pitch": 45, "duration": 20, "velocity": 81}, {"time": 1298, "pitch": 57, "duration": 7, "velocity": 72}, {"time": 1298, "pitch": 60, "duration": 7, "velocity": 76}, {"time": 1304, "pitch": 52, "duration": 8, "velocity": 78}, {"time": 1307, "pitch": 57, "duration": 4, "velocity": 79}, {"time": 1310, "pitch": 59, "duration": 3, "velocity": 80}, {"time": 1313, "pitch": 60, "duration": 3, "velocity": 80}, {"time": 1316, "pitch": 52, "duration": 3, "velocity": 78}, {"time": 1319, "pitch": 57, "duration": 2, "velocity": 80}, {"time": 1322, "pitch": 50, "duration": 16, "velocity": 83}, {"time": 1322, "pitch": 57, "duration": 3, "velocity": 75}, {"time": 1322, "pitch": 62, "duration": 8, "velocity": 82}, {"time": 1328, "pitch": 57, "duration": 5, "velocity": 71}, {"time": 1334, "pitch": 57, "duration": 4, "velocity": 71}, {"time": 1334, "pitch": 62, "duration": 3, "velocity": 73}, {"time": 1334, "pitch": 66, "duration": 3, "velocity": 66}, {"time": 1346, "pitch": 43, "duration": 46, "velocity": 76}, {"time": 1352, "pitch": 50, "duration": 20, "velocity": 55}, {"time": 1358, "pitch": 55, "duration": 21, "velocity": 62}, {"time": 1358, "pitch": 59, "duration": 21, "velocity": 59}, {"time": 1376, "pitch": 50, "duration": 14, "velocity": 46}, {"time": 1382, "pitch": 55, "duration": 14, "velocity": 67}, {"time": 1382, "pitch": 59, "duration": 14, "velocity": 70}, {"time": 1394, "pitch": 48, "duration": 39, "velocity": 70}, {"time": 1400, "pitch": 55, "duration": 4, "velocity": 60}, {"time": 1406, "pitch": 55, "duration": 3, "velocity": 67}, {"time": 1406, "pitch": 60, "duration": 3, "velocity": 67}, {"time": 1424, "pitch": 55, "duration": 3, "velocity": 53}, {"time": 1430, "pitch": 55, "duration": 2, "velocity": 71}, {"time": 1430, "pitch": 60, "duration": 2, "velocity": 71}, {"time": 1442, "pitch": 43, "duration": 42, "velocity": 71}, {"time": 1442, "pitch": 55, "duration": 8, "velocity": 63}, {"time": 1442, "pitch": 59, "duration": 8, "velocity": 64}, {"time": 1448, "pitch": 50, "duration": 19, "velocity": 60}, {"time": 1454, "pitch": 55, "duration": 3, "velocity": 66}, {"time": 1454, "pitch": 62, "duration": 2, "velocity": 69}, {"time": 1472, "pitch": 50, "duration": 9, "velocity": 50}, {"time": 1478, "pitch": 55, "duration": 3, "velocity": 69}, {"time": 1478, "pitch": 59, "duration": 3, "velocity": 72}, {"time": 1490, "pitch": 48, "duration": 16, "velocity": 70}, {"time": 1490, "pitch": 55, "duration": 4, "velocity": 62}, {"time": 1490, "pitch": 60, "duration": 8, "velocity": 67}, {"time": 1496, "pitch": 55, "duration": 4, "velocity": 62}, {"time": 1502, "pitch": 55, "duration": 3, "velocity": 67}, {"time": 1502, "pitch": 60, "duration": 3, "velocity": 72}, {"time": 1514, "pitch": 48, "duration": 16, "velocity": 64}, {"time": 1514, "pitch": 60, "duration": 24, "velocity": 63}, {"time": 1514, "pitch": 63, "duration": 24, "velocity": 61}, {"time": 1538, "pitch": 43, "duration": 45, "velocity": 79}, {"time": 1538, "pitch": 55, "duration": 7, "velocity": 71}, {"time": 1538, "pitch": 62, "duration": 7, "velocity": 72}, {"time": 1544, "pitch": 50, "duration": 8, "velocity": 57}, {"time": 1550, "pitch": 55, "duration": 6, "velocity": 72}, {"time": 1550, "pitch": 59, "duration": 5, "velocity": 71}, {"time": 1556, "pitch": 50, "duration": 7, "velocity": 53}, {"time": 1562, "pitch": 55, "duration": 4, "velocity": 67}, {"time": 1562, "pitch": 59, "duration": 4, "velocity": 71}, {"time": 1568, "pitch": 50, "duration": 7, "velocity": 49}, {"time": 1574, "pitch": 55, "duration": 4, "velocity": 75}, {"time": 1574, "pitch": 59, "duration": 5, "velocity": 79}, {"time": 1574, "pitch": 62, "duration": 6, "velocity": 79}, {"time": 1580, "pitch": 50, "duration": 6, "velocity": 72}, {"time": 1586, "pitch": 41, "duration": 43, "velocity": 77}, {"time": 1586, "pitch": 53, "duration": 8, "velocity": 73}, {"time": 1586, "pitch": 57, "duration": 7, "velocity": 73}, {"time": 1592, "pitch": 48, "duration": 8, "velocity": 47}, {"time": 1598, "pitch": 53, "duration": 3, "velocity": 74}, {"time": 1598, "pitch": 57, "duration": 3, "velocity": 76}, {"time": 1598, "pitch": 60, "duration": 3, "velocity": 74}, {"time": 1610, "pitch": 57, "duration": 4, "velocity": 71}, {"time": 1610, "pitch": 60, "duration": 6, "velocity": 74}, {"time": 1616, "pitch": 48, "duration": 7, "velocity": 44}, {"time": 1622, "pitch": 53, "duration": 5, "velocity": 75}, {"time": 1622, "pitch": 60, "duration": 8, "velocity": 78}, {"time": 1628, "pitch": 48, "duration": 4, "velocity": 73}, {"time": 1634, "pitch": 48, "duration": 20, "velocity": 78}, {"time": 1634, "pitch": 55, "duration": 3, "velocity": 72}, {"time": 1634, "pitch": 60, "duration": 13, "velocity": 74}, {"time": 1640, "pitch": 55, "duration": 7, "velocity": 66}, {"time": 1646, "pitch": 64, "duration": 7, "velocity": 80}, {"time": 1652, "pitch": 55, "duration": 9, "velocity": 66}, {"time": 1658, "pitch": 48, "duration": 21, "velocity": 73}, {"time": 1658, "pitch": 60, "duration": 6, "velocity": 75}, {"time": 1664, "pitch": 55, "duration": 2, "velocity": 50}, {"time": 1670, "pitch": 55, "duration": 7, "velocity": 79}, {"time": 1670, "pitch": 64, "duration": 6, "velocity": 82}, {"time": 1676, "pitch": 60, "duration": 3, "velocity": 75}, {"time": 1682, "pitch": 43, "duration": 42, "velocity": 76}, {"time": 1682, "pitch": 55, "duration": 13, "velocity": 72}, {"time": 1682, "pitch": 59, "duration": 10, "velocity": 72}, {"time": 1688, "pitch": 50, "duration": 36, "velocity": 65}, {"time": 1694, "pitch": 62, "duration": 7, "velocity": 76}, {"time": 1700, "pitch": 55, "duration": 7, "velocity": 79}, {"time": 1706, "pitch": 67, "duration": 4, "velocity": 75}, {"time": 1712, "pitch": 55, "duration": 3, "velocity": 71}, {"time": 1718, "pitch": 55, "duration": 5, "velocity": 79}, {"time": 1718, "pitch": 59, "duration": 6, "velocity": 79}, {"time": 1724, "pitch": 60, "duration": 2, "velocity": 78}, {"time": 1730, "pitch": 50, "duration": 18, "velocity": 79}, {"time": 1730, "pitch": 57, "duration": 3, "velocity": 74}, {"time": 1730, "pitch": 62, "duration": 9, "velocity": 77}, {"time": 1736, "pitch": 57, "duration": 8, "velocity": 67}, {"time": 1742, "pitch": 62, "duration": 6, "velocity": 76}, {"time": 1742, "pitch": 66, "duration": 7, "velocity": 67}, {"time": 1748, "pitch": 57, "duration": 4, "velocity": 79}, {"time": 1754, "pitch": 47, "duration": 15, "velocity": 80}, {"time": 1754, "pitch": 59, "duration": 13, "velocity": 79}, {"time": 1754, "pitch": 63, "duration": 10, "velocity": 74}, {"time": 1760, "pitch": 54, "duration": 8, "velocity": 62}, {"time": 1766, "pitch": 63, "duration": 8, "velocity": 74}, {"time": 1766, "pitch": 66, "duration": 8, "velocity": 77}, {"time": 1778, "pitch": 40, "duration": 7, "velocity": 80}, {"time": 1778, "pitch": 64, "duration": 6, "velocity": 79}, {"time": 1778, "pitch": 67, "duration": 6, "velocity": 74}, {"time": 1784, "pitch": 59, "duration": 3, "velocity": 80}, {"time": 1790, "pitch": 38, "duration": 5, "velocity": 79}, {"time": 1790, "pitch": 62, "duration": 5, "velocity": 73}, {"time": 1790, "pitch": 66, "duration": 5, "velocity": 70}, {"time": 1802, "pitch": 48, "duration": 11, "velocity": 75}, {"time": 1802, "pitch": 60, "duration": 9, "velocity": 73}, {"time": 1802, "pitch": 64, "duration": 10, "velocity": 78}, {"time": 1808, "pitch": 55, "duration": 6, "velocity": 64}, {"time": 1814, "pitch": 48, "duration": 5, "velocity": 71}, {"time": 1814, "pitch": 60, "duration": 3, "velocity": 73}, {"time": 1814, "pitch": 64, "duration": 3, "velocity": 78}, {"time": 1820, "pitch": 47, "duration": 5, "velocity": 71}, {"time": 1820, "pitch": 59, "duration": 4, "velocity": 71}, {"time": 1820, "pitch": 62, "duration": 3, "velocity": 73}, {"time": 1826, "pitch": 45, "duration": 22, "velocity": 78}, {"time": 1826, "pitch": 57, "duration": 9, "velocity": 72}, {"time": 1826, "pitch": 60, "duration": 8, "velocity": 73}, {"time": 1832, "pitch": 52, "duration": 14, "velocity": 61}, {"time": 1838, "pitch": 57, "duration": 3, "velocity": 73}, {"time": 1838, "pitch": 60, "duration": 5, "velocity": 77}, {"time": 1838, "pitch": 64, "duration": 5, "velocity": 79}, {"time": 1850, "pitch": 45, "duration": 15, "velocity": 78}, {"time": 1850, "pitch": 55, "duration": 6, "velocity": 76}, {"time": 1850, "pitch": 60, "duration": 6, "velocity": 75}, {"time": 1856, "pitch": 52, "duration": 8, "velocity": 65}, {"time": 1862, "pitch": 55, "duration": 3, "velocity": 79}, {"time": 1862, "pitch": 60, "duration": 7, "velocity": 80}, {"time": 1862, "pitch": 64, "duration": 6, "velocity": 80}, {"time": 1868, "pitch": 55, "duration": 2, "velocity": 74}, {"time": 1874, "pitch": 38, "duration": 14, "velocity": 79}, {"time": 1874, "pitch": 57, "duration": 7, "velocity": 67}, {"time": 1874, "pitch": 62, "duration": 7, "velocity": 75}, {"time": 1874, "pitch": 66, "duration": 8, "velocity": 70}, {"time": 1880, "pitch": 45, "duration": 7, "velocity": 57}, {"time": 1886, "pitch": 57, "duration": 2, "velocity": 77}, {"time": 1886, "pitch": 62, "duration": 4, "velocity": 79}, {"time": 1892, "pitch": 57, "duration": 4, "velocity": 79}, {"time": 1898, "pitch": 50, "duration": 24, "velocity": 76}, {"time": 1898, "pitch": 57, "duration": 7, "velocity": 79}, {"time": 1898, "pitch": 62, "duration": 7, "velocity": 78}, {"time": 1898, "pitch": 66, "duration": 7, "velocity": 71}, {"time": 1910, "pitch": 57, "duration": 11, "velocity": 78}, {"time": 1910, "pitch": 62, "duration": 11, "velocity": 78}, {"time": 1910, "pitch": 66, "duration": 11, "velocity": 78}, {"time": 1922, "pitch": 43, "duration": 22, "velocity": 78}, {"time": 1922, "pitch": 62, "duration": 7, "velocity": 74}, {"time": 1925, "pitch": 50, "duration": 19, "velocity": 66}, {"time": 1928, "pitch": 55, "duration": 7, "velocity": 71}, {"time": 1931, "pitch": 59, "duration": 4, "velocity": 74}, {"time": 1934, "pitch": 62, "duration": 6, "velocity": 74}, {"time": 1937, "pitch": 55, "duration": 11, "velocity": 72}, {"time": 1940, "pitch": 59, "duration": 8, "velocity": 72}, {"time": 1943, "pitch": 62, "duration": 6, "velocity": 71}, {"time": 1946, "pitch": 43, "duration": 19, "velocity": 79}, {"time": 1946, "pitch": 67, "duration": 5, "velocity": 73}, {"time": 1949, "pitch": 50, "duration": 11, "velocity": 69}, {"time": 1952, "pitch": 55, "duration": 4, "velocity": 72}, {"time": 1955, "pitch": 59, "duration": 2, "velocity": 76}, {"time": 1958, "pitch": 55, "duration": 6, "velocity": 79}, {"time": 1958, "pitch": 59, "duration": 6, "velocity": 83}, {"time": 1958, "pitch": 62, "duration": 7, "velocity": 80}, {"time": 1964, "pitch": 50, "duration": 2, "velocity": 78}, {"time": 1970, "pitch": 47, "duration": 22, "velocity": 80}, {"time": 1970, "pitch": 59, "duration": 4, "velocity": 73}, {"time": 1970, "pitch": 62, "duration": 6, "velocity": 78}, {"time": 1973, "pitch": 54, "duration": 19, "velocity": 61}, {"time": 1976, "pitch": 59, "duration": 6, "velocity": 73}, {"time": 1979, "pitch": 66, "duration": 8, "velocity": 72}, {"time": 1982, "pitch": 62, "duration": 3, "velocity": 71}, {"time": 1985, "pitch": 59, "duration": 12, "velocity": 74}, {"time": 1988, "pitch": 62, "duration": 8, "velocity": 75}, {"time": 1991, "pitch": 66, "duration": 4, "velocity": 82}, {"time": 1994, "pitch": 47, "duration": 19, "velocity": 79}, {"time": 1994, "pitch": 71, "duration": 9, "velocity": 81}, {"time": 1997, "pitch": 54, "duration": 10, "velocity": 66}, {"time": 2000, "pitch": 66, "duration": 6, "velocity": 79}, {"time": 2003, "pitch": 62, "duration": 4, "velocity": 73}, {"time": 2006, "pitch": 59, "duration": 4, "velocity": 82}, {"time": 2009, "pitch": 54, "duration": 3, "velocity": 72}, {"time": 2012, "pitch": 59, "duration": 5, "velocity": 79}, {"time": 2015, "pitch": 62, "duration": 4, "velocity": 69}, {"time": 2018, "pitch": 40, "duration": 16, "velocity": 79}, {"time": 2018, "pitch": 64, "duration": 8, "velocity": 78}, {"time": 2024, "pitch": 47, "duration": 9, "velocity": 66}, {"time": 2030, "pitch": 59, "duration": 3, "velocity": 72}, {"time": 2030, "pitch": 64, "duration": 7, "velocity": 79}, {"time": 2030, "pitch": 67, "duration": 7, "velocity": 72}, {"time": 2036, "pitch": 59, "duration": 3, "velocity": 68}, {"time": 2042, "pitch": 50, "duration": 15, "velocity": 79}, {"time": 2042, "pitch": 62, "duration": 9, "velocity": 71}, {"time": 2048, "pitch": 57, "duration": 7, "velocity": 63}, {"time": 2054, "pitch": 62, "duration": 6, "velocity": 73}, {"time": 2054, "pitch": 66, "duration": 6, "velocity": 72}, {"time": 2060, "pitch": 57, "duration": 2, "velocity": 73}, {"time": 2066, "pitch": 48, "duration": 23, "velocity": 78}, {"time": 2066, "pitch": 55, "duration": 3, "velocity": 69}, {"time": 2066, "pitch": 60, "duration": 8, "velocity": 72}, {"time": 2072, "pitch": 55, "duration": 7, "velocity": 70}, {"time": 2078, "pitch": 64, "duration": 7, "velocity": 80}, {"time": 2081, "pitch": 55, "duration": 4, "velocity": 71}, {"time": 2084, "pitch": 60, "duration": 5, "velocity": 74}, {"time": 2087, "pitch": 55, "duration": 5, "velocity": 67}, {"time": 2090, "pitch": 48, "duration": 8, "velocity": 76}, {"time": 2090, "pitch": 60, "duration": 7, "velocity": 65}, {"time": 2090, "pitch": 64, "duration": 10, "velocity": 77}, {"time": 2096, "pitch": 55, "duration": 2, "velocity": 67}, {"time": 2102, "pitch": 47, "duration": 9, "velocity": 82}, {"time": 2102, "pitch": 59, "duration": 3, "velocity": 78}, {"time": 2102, "pitch": 62, "duration": 8, "velocity": 77}, {"time": 2108, "pitch": 50, "duration": 5, "velocity": 79}, {"time": 2111, "pitch": 59, "duration": 2, "velocity": 78}, {"time": 2114, "pitch": 45, "duration": 22, "velocity": 79}, {"time": 2114, "pitch": 57, "duration": 3, "velocity": 78}, {"time": 2114, "pitch": 60, "duration": 6, "velocity": 77}, {"time": 2117, "pitch": 52, "duration": 11, "velocity": 71}, {"time": 2120, "pitch": 57, "duration": 5, "velocity": 75}, {"time": 2123, "pitch": 60, "duration": 3, "velocity": 73}, {"time": 2126, "pitch": 64, "duration": 5, "velocity": 81}, {"time": 2129, "pitch": 52, "duration": 7, "velocity": 73}, {"time": 2132, "pitch": 57, "duration": 8, "velocity": 73}, {"time": 2135, "pitch": 60, "duration": 5, "velocity": 61}, {"time": 2138, "pitch": 45, "duration": 16, "velocity": 76}, {"time": 2138, "pitch": 69, "duration": 7, "velocity": 79}, {"time": 2141, "pitch": 52, "duration": 11, "velocity": 78}, {"time": 2144, "pitch": 57, "duration": 5, "velocity": 78}, {"time": 2147, "pitch": 60, "duration": 2, "velocity": 78}, {"time": 2150, "pitch": 57, "duration": 5, "velocity": 75}, {"time": 2150, "pitch": 60, "duration": 6, "velocity": 78}, {"time": 2150, "pitch": 64, "duration": 6, "velocity": 82}, {"time": 2156, "pitch": 45, "duration": 1, "velocity": 45}, {"time": 2156, "pitch": 52, "duration": 5, "velocity": 80}, {"time": 2162, "pitch": 47, "duration": 18, "velocity": 83}, {"time": 2162, "pitch": 59, "duration": 8, "velocity": 74}, {"time": 2162, "pitch": 62, "duration": 9, "velocity": 75}, {"time": 2168, "pitch": 54, "duration": 7, "velocity": 68}, {"time": 2174, "pitch": 66, "duration": 7, "velocity": 84}, {"time": 2177, "pitch": 54, "duration": 2, "velocity": 74}, {"time": 2180, "pitch": 59, "duration": 7, "velocity": 78}, {"time": 2183, "pitch": 62, "duration": 4, "velocity": 71}, {"time": 2186, "pitch": 40, "duration": 15, "velocity": 81}, {"time": 2186, "pitch": 64, "duration": 6, "velocity": 77}, {"time": 2189, "pitch": 47, "duration": 12, "velocity": 74}, {"time": 2192, "pitch": 59, "duration": 4, "velocity": 79}, {"time": 2195, "pitch": 64, "duration": 4, "velocity": 79}, {"time": 2198, "pitch": 67, "duration": 4, "velocity": 79}, {"time": 2201, "pitch": 64, "duration": 3, "velocity": 80}, {"time": 2204, "pitch": 59, "duration": 2, "velocity": 76}, {"time": 2210, "pitch": 45, "duration": 20, "velocity": 81}, {"time": 2210, "pitch": 57, "duration": 7, "velocity": 72}, {"time": 2210, "pitch": 60, "duration": 7, "velocity": 76}, {"time": 2216, "pitch": 52, "duration": 8, "velocity": 78}, {"time": 2219, "pitch": 57, "duration": 4, "velocity": 79}, {"time": 2222, "pitch": 59, "duration": 3, "velocity": 80}, {"time": 2225, "pitch": 60, "duration": 3, "velocity": 80}, {"time": 2228, "pitch": 52, "duration": 3, "velocity": 78}, {"time": 2231, "pitch": 57, "duration": 2, "velocity": 80}, {"time": 2234, "pitch": 50, "duration": 16, "velocity": 83}, {"time": 2234, "pitch": 57, "duration": 3, "velocity": 75}, {"time": 2234, "pitch": 62, "duration": 8, "velocity": 82}, {"time": 2240, "pitch": 57, "duration": 5, "velocity": 71}, {"time": 2246, "pitch": 57, "duration": 4, "velocity": 71}, {"time": 2246, "pitch": 62, "duration": 3, "velocity": 73}, {"time": 2246, "pitch": 66, "duration": 3, "velocity": 66}, {"time": 2258, "pitch": 47, "duration": 18, "velocity": 80}, {"time": 2258, "pitch": 59, "duration": 7, "velocity": 72}, {"time": 2258, "pitch": 62, "duration": 4, "velocity": 70}, {"time": 2264, "pitch": 62, "duration": 3, "velocity": 74}, {"time": 2267, "pitch": 59, "duration": 3, "velocity": 73}, {"time": 2270, "pitch": 59, "duration": 3, "velocity": 80}, {"time": 2270, "pitch": 66, "duration": 4, "velocity": 82}, {"time": 2273, "pitch": 54, "duration": 4, "velocity": 72}, {"time": 2276, "pitch": 62, "duration": 3, "velocity": 82}, {"time": 2279, "pitch": 59, "duration": 2, "velocity": 78}, {"time": 2282, "pitch": 40, "duration": 16, "velocity": 83}, {"time": 2282, "pitch": 59, "duration": 2, "velocity": 76}, {"time": 2282, "pitch": 64, "duration": 4, "velocity": 85}, {"time": 2285, "pitch": 47, "duration": 12, "velocity": 69}, {"time": 2288, "pitch": 64, "duration": 3, "velocity": 79}, {"time": 2291, "pitch": 59, "duration": 2, "velocity": 72}, {"time": 2294, "pitch": 59, "duration": 2, "velocity": 80}, {"time": 2294, "pitch": 67, "duration": 4, "velocity": 77}, {"time": 2297, "pitch": 59, "duration": 2, "velocity": 78}, {"time": 2300, "pitch": 64, "duration": 3, "velocity": 80}, {"time": 2303, "pitch": 59, "duration": 1, "velocity": 78}, {"time": 2306, "pitch": 45, "duration": 19, "velocity": 78}, {"time": 2306, "pitch": 57, "duration": 3, "velocity": 79}, {"time": 2306, "pitch": 60, "duration": 3, "velocity": 78}, {"time": 2309, "pitch": 52, "duration": 10, "velocity": 66}, {"time": 2312, "pitch": 60, "duration": 4, "velocity": 72}, {"time": 2315, "pitch": 57, "duration": 2, "velocity": 68}, {"time": 2318, "pitch": 57, "duration": 3, "velocity": 79}, {"time": 2318, "pitch": 60, "duration": 4, "velocity": 79}, {"time": 2318, "pitch": 64, "duration": 4, "velocity": 84}, {"time": 2321, "pitch": 52, "duration": 3, "velocity": 79}, {"time": 2324, "pitch": 57, "duration": 4, "velocity": 80}, {"time": 2327, "pitch": 60, "duration": 2, "velocity": 76}, {"time": 2330, "pitch": 50, "duration": 16, "velocity": 83}, {"time": 2330, "pitch": 57, "duration": 2, "velocity": 79}, {"time": 2330, "pitch": 62, "duration": 3, "velocity": 80}, {"time": 2333, "pitch": 57, "duration": 3, "velocity": 74}, {"time": 2336, "pitch": 62, "duration": 4, "velocity": 75}, {"time": 2339, "pitch": 57, "duration": 2, "velocity": 77}, {"time": 2342, "pitch": 57, "duration": 1, "velocity": 79}, {"time": 2342, "pitch": 62, "duration": 4, "velocity": 81}, {"time": 2342, "pitch": 66, "duration": 7, "velocity": 79}, {"time": 2345, "pitch": 57, "duration": 3, "velocity": 74}, {"time": 2348, "pitch": 62, "duration": 4, "velocity": 78}, {"time": 2351, "pitch": 57, "duration": 2, "velocity": 73}, {"time": 2354, "pitch": 47, "duration": 18, "velocity": 80}, {"time": 2354, "pitch": 59, "duration": 4, "velocity": 78}, {"time": 2354, "pitch": 62, "duration": 5, "velocity": 81}, {"time": 2357, "pitch": 54, "duration": 7, "velocity": 64}, {"time": 2360, "pitch": 59, "duration": 4, "velocity": 83}, {"time": 2363, "pitch": 62, "duration": 2, "velocity": 78}, {"time": 2366, "pitch": 62, "duration": 1, "velocity": 73}, {"time": 2366, "pitch": 66, "duration": 4, "velocity": 85}, {"time": 2369, "pitch": 54, "duration": 3, "velocity": 78}, {"time": 2372, "pitch": 59, "duration": 5, "velocity": 83}, {"time": 2375, "pitch": 62, "duration": 2, "velocity": 78}, {"time": 2378, "pitch": 40, "duration": 17, "velocity": 81}, {"time": 2378, "pitch": 64, "duration": 6, "velocity": 79}, {"time": 2381, "pitch": 47, "duration": 11, "velocity": 73}, {"time": 2384, "pitch": 59, "duration": 4, "velocity": 78}, {"time": 2387, "pitch": 64, "duration": 2, "velocity": 76}, {"time": 2390, "pitch": 59, "duration": 2, "velocity": 80}, {"time": 2390, "pitch": 64, "duration": 2, "velocity": 82}, {"time": 2390, "pitch": 67, "duration": 4, "velocity": 79}, {"time": 2393, "pitch": 47, "duration": 3, "velocity": 78}, {"time": 2396, "pitch": 59, "duration": 4, "velocity": 82}, {"time": 2399, "pitch": 64, "duration": 1, "velocity": 80}, {"time": 2402, "pitch": 45, "duration": 23, "velocity": 73}, {"time": 2402, "pitch": 57, "duration": 4, "velocity": 78}, {"time": 2402, "pitch": 60, "duration": 5, "velocity": 82}, {"time": 2405, "pitch": 52, "duration": 10, "velocity": 72}, {"time": 2408, "pitch": 57, "duration": 4, "velocity": 78}, {"time": 2411, "pitch": 60, "duration": 1, "velocity": 67}, {"time": 2414, "pitch": 57, "duration": 3, "velocity": 79}, {"time": 2414, "pitch": 64, "duration": 4, "velocity": 82}, {"time": 2417, "pitch": 52, "duration": 8, "velocity": 80}, {"time": 2420, "pitch": 57, "duration": 5, "velocity": 79}, {"time": 2423, "pitch": 60, "duration": 2, "velocity": 79}, {"time": 2426, "pitch": 45, "duration": 19, "velocity": 79}, {"time": 2426, "pitch": 57, "duration": 1, "velocity": 46}, {"time": 2426, "pitch": 60, "duration": 1, "velocity": 71}, {"time": 2426, "pitch": 64, "duration": 6, "velocity": 82}, {"time": 2429, "pitch": 52, "duration": 10, "velocity": 73}, {"time": 2432, "pitch": 57, "duration": 4, "velocity": 79}, {"time": 2435, "pitch": 60, "duration": 1, "velocity": 78}, {"time": 2438, "pitch": 57, "duration": 3, "velocity": 81}, {"time": 2438, "pitch": 60, "duration": 3, "velocity": 89}, {"time": 2438, "pitch": 64, "duration": 4, "velocity": 89}, {"time": 2441, "pitch": 52, "duration": 5, "velocity": 82}, {"time": 2444, "pitch": 57, "duration": 2, "velocity": 84}, {"time": 2450, "pitch": 47, "duration": 22, "velocity": 80}, {"time": 2450, "pitch": 59, "duration": 2, "velocity": 81}, {"time": 2450, "pitch": 62, "duration": 3, "velocity": 80}, {"time": 2453, "pitch": 59, "duration": 3, "velocity": 77}, {"time": 2456, "pitch": 62, "duration": 3, "velocity": 71}, {"time": 2459, "pitch": 59, "duration": 2, "velocity": 79}, {"time": 2462, "pitch": 59, "duration": 3, "velocity": 80}, {"time": 2462, "pitch": 62, "duration": 4, "velocity": 83}, {"time": 2462, "pitch": 66, "duration": 4, "velocity": 82}, {"time": 2465, "pitch": 54, "duration": 8, "velocity": 68}, {"time": 2468, "pitch": 59, "duration": 5, "velocity": 80}, {"time": 2471, "pitch": 62, "duration": 2, "velocity": 72}, {"time": 2474, "pitch": 47, "duration": 16, "velocity": 82}, {"time": 2474, "pitch": 59, "duration": 4, "velocity": 76}, {"time": 2474, "pitch": 62, "duration": 5, "velocity": 79}, {"time": 2474, "pitch": 66, "duration": 8, "velocity": 78}, {"time": 2477, "pitch": 54, "duration": 10, "velocity": 71}, {"time": 2480, "pitch": 59, "duration": 4, "velocity": 78}, {"time": 2483, "pitch": 62, "duration": 2, "velocity": 78}, {"time": 2486, "pitch": 59, "duration": 3, "velocity": 82}, {"time": 2486, "pitch": 62, "duration": 4, "velocity": 85}, {"time": 2486, "pitch": 66, "duration": 4, "velocity": 81}, {"time": 2489, "pitch": 54, "duration": 2, "velocity": 78}, {"time": 2492, "pitch": 47, "duration": 2, "velocity": 80}, {"time": 2498, "pitch": 48, "duration": 23, "velocity": 85}, {"time": 2498, "pitch": 55, "duration": 2, "velocity": 68}, {"time": 2498, "pitch": 60, "duration": 4, "velocity": 71}, {"time": 2501, "pitch": 55, "duration": 4, "velocity": 78}, {"time": 2504, "pitch": 60, "duration": 4, "velocity": 75}, {"time": 2507, "pitch": 55, "duration": 3, "velocity": 67}, {"time": 2510, "pitch": 64, "duration": 4, "velocity": 80}, {"time": 2513, "pitch": 55, "duration": 4, "velocity": 74}, {"time": 2516, "pitch": 60, "duration": 4, "velocity": 78}, {"time": 2519, "pitch": 55, "duration": 5, "velocity": 80}, {"time": 2522, "pitch": 48, "duration": 16, "velocity": 83}, {"time": 2522, "pitch": 60, "duration": 4, "velocity": 76}, {"time": 2525, "pitch": 55, "duration": 3, "velocity": 77}, {"time": 2528, "pitch": 60, "duration": 3, "velocity": 78}, {"time": 2531, "pitch": 55, "duration": 2, "velocity": 72}, {"time": 2534, "pitch": 55, "duration": 1, "velocity": 79}, {"time": 2534, "pitch": 60, "duration": 4, "velocity": 82}, {"time": 2534, "pitch": 64, "duration": 7, "velocity": 82}, {"time": 2537, "pitch": 55, "duration": 3, "velocity": 71}, {"time": 2540, "pitch": 60, "duration": 4, "velocity": 73}, {"time": 2543, "pitch": 55, "duration": 2, "velocity": 79}, {"time": 2546, "pitch": 38, "duration": 21, "velocity": 85}, {"time": 2546, "pitch": 57, "duration": 3, "velocity": 80}, {"time": 2546, "pitch": 62, "duration": 4, "velocity": 75}, {"time": 2549, "pitch": 45, "duration": 17, "velocity": 57}, {"time": 2552, "pitch": 62, "duration": 3, "velocity": 72}, {"time": 2555, "pitch": 57, "duration": 3, "velocity": 78}, {"time": 2558, "pitch": 66, "duration": 3, "velocity": 82}, {"time": 2561, "pitch": 57, "duration": 3, "velocity": 68}, {"time": 2564, "pitch": 57, "duration": 1, "velocity": 75}, {"time": 2564, "pitch": 62, "duration": 3, "velocity": 78}, {"time": 2567, "pitch": 62, "duration": 1, "velocity": 78}, {"time": 2567, "pitch": 66, "duration": 5, "velocity": 72}, {"time": 2570, "pitch": 38, "duration": 9, "velocity": 80}, {"time": 2570, "pitch": 57, "duration": 2, "velocity": 65}, {"time": 2573, "pitch": 57, "duration": 1, "velocity": 78}, {"time": 2576, "pitch": 62, "duration": 1, "velocity": 79}, {"time": 2576, "pitch": 66, "duration": 2, "velocity": 71}, {"time": 2582, "pitch": 37, "duration": 5, "velocity": 85}, {"time": 2582, "pitch": 61, "duration": 6, "velocity": 78}, {"time": 2582, "pitch": 68, "duration": 6, "velocity": 72}, {"time": 2588, "pitch": 39, "duration": 6, "velocity": 80}, {"time": 2588, "pitch": 63, "duration": 6, "velocity": 78}, {"time": 2588, "pitch": 70, "duration": 6, "velocity": 77}, {"time": 2594, "pitch": 44, "duration": 22, "velocity": 78}, {"time": 2594, "pitch": 63, "duration": 7, "velocity": 74}, {"time": 2597, "pitch": 51, "duration": 19, "velocity": 66}, {"time": 2600, "pitch": 56, "duration": 7, "velocity": 71}, {"time": 2603, "pitch": 60, "duration": 4, "velocity": 74}, {"time": 2606, "pitch": 63, "duration": 6, "velocity": 74}, {"time": 2609, "pitch": 56, "duration": 11, "velocity": 72}, {"time": 2612, "pitch": 60, "duration": 8, "velocity": 72}, {"time": 2615, "pitch": 63, "duration": 6, "velocity": 71}, {"time": 2618, "pitch": 44, "duration": 19, "velocity": 79}, {"time": 2618, "pitch": 68, "duration": 5, "velocity": 73}, {"time": 2621, "pitch": 51, "duration": 11, "velocity": 69}, {"time": 2624, "pitch": 56, "duration": 4, "velocity": 72}, {"time": 2627, "pitch": 60, "duration": 2, "velocity": 76}, {"time": 2630, "pitch": 56, "duration": 6, "velocity": 79}, {"time": 2630, "pitch": 60, "duration": 6, "velocity": 83}, {"time": 2630, "pitch": 63, "duration": 7, "velocity": 80}, {"time": 2636, "pitch": 51, "duration": 2, "velocity": 78}, {"time": 2642, "pitch": 48, "duration": 22, "velocity": 80}, {"time": 2642, "pitch": 60, "duration": 4, "velocity": 73}, {"time": 2642, "pitch": 63, "duration": 6, "velocity": 78}, {"time": 2645, "pitch": 55, "duration": 19, "velocity": 61}, {"time": 2648, "pitch": 60, "duration": 6, "velocity": 73}, {"time": 2651, "pitch": 67, "duration": 8, "velocity": 72}, {"time": 2654, "pitch": 63, "duration": 3, "velocity": 71}, {"time": 2657, "pitch": 60, "duration": 12, "velocity": 74}, {"time": 2660, "pitch": 63, "duration": 8, "velocity": 75}, {"time": 2663, "pitch": 67, "duration": 4, "velocity": 82}, {"time": 2666, "pitch": 48, "duration": 19, "velocity": 79}, {"time": 2666, "pitch": 72, "duration": 9, "velocity": 81}, {"time": 2669, "pitch": 55, "duration": 10, "velocity": 66}, {"time": 2672, "pitch": 67, "duration": 6, "velocity": 79}, {"time": 2675, "pitch": 63, "duration": 4, "velocity": 73}, {"time": 2678, "pitch": 60, "duration": 4, "velocity": 82}, {"time": 2681, "pitch": 55, "duration": 3, "velocity": 72}, {"time": 2684, "pitch": 60, "duration": 5, "velocity": 79}, {"time": 2687, "pitch": 63, "duration": 4, "velocity": 69}, {"time": 2690, "pitch": 41, "duration": 16, "velocity": 79}, {"time": 2690, "pitch": 65, "duration": 8, "velocity": 78}, {"time": 2696, "pitch": 48, "duration": 9, "velocity": 66}, {"time": 2702, "pitch": 60, "duration": 3, "velocity": 72}, {"time": 2702, "pitch": 65, "duration": 7, "velocity": 79}, {"time": 2702, "pitch": 68, "duration": 7, "velocity": 72}, {"time": 2708, "pitch": 60, "duration": 3, "velocity": 68}, {"time": 2714, "pitch": 51, "duration": 15, "velocity": 79}, {"time": 2714, "pitch": 63, "duration": 9, "velocity": 71}, {"time": 2720, "pitch": 58, "duration": 7, "velocity": 63}, {"time": 2726, "pitch": 63, "duration": 6, "velocity": 73}, {"time": 2726, "pitch": 67, "duration": 6, "velocity": 72}, {"time": 2732, "pitch": 58, "duration": 2, "velocity": 73}, {"time": 2738, "pitch": 49, "duration": 23, "velocity": 78}, {"time": 2738, "pitch": 56, "duration": 3, "velocity": 69}, {"time": 2738, "pitch": 61, "duration": 8, "velocity": 72}, {"time": 2744, "pitch": 56, "duration": 7, "velocity": 70}, {"time": 2750, "pitch": 65, "duration": 7, "velocity": 80}, {"time": 2753, "pitch": 56, "duration": 4, "velocity": 71}, {"time": 2756, "pitch": 61, "duration": 5, "velocity": 74}, {"time": 2759, "pitch": 56, "duration": 5, "velocity": 67}, {"time": 2762, "pitch": 49, "duration": 8, "velocity": 76}, {"time": 2762, "pitch": 61, "duration": 7, "velocity": 65}, {"time": 2762, "pitch": 65, "duration": 10, "velocity": 77}, {"time": 2768, "pitch": 56, "duration": 2, "velocity": 67}, {"time": 2774, "pitch": 48, "duration": 9, "velocity": 82}, {"time": 2774, "pitch": 60, "duration": 3, "velocity": 78}, {"time": 2774, "pitch": 63, "duration": 8, "velocity": 77}, {"time": 2780, "pitch": 51, "duration": 5, "velocity": 79}, {"time": 2783, "pitch": 60, "duration": 2, "velocity": 78}, {"time": 2786, "pitch": 46, "duration": 22, "velocity": 79}, {"time": 2786, "pitch": 58, "duration": 3, "velocity": 78}, {"time": 2786, "pitch": 61, "duration": 6, "velocity": 77}, {"time": 2789, "pitch": 53, "duration": 11, "velocity": 71}, {"time": 2792, "pitch": 58, "duration": 5, "velocity": 75}, {"time": 2795, "pitch": 61, "duration": 3, "velocity": 73}, {"time": 2798, "pitch": 65, "duration": 5, "velocity": 81}, {"time": 2801, "pitch": 53, "duration": 7, "velocity": 73}, {"time": 2804, "pitch": 58, "duration": 8, "velocity": 73}, {"time": 2807, "pitch": 61, "duration": 5, "velocity": 61}, {"time": 2810, "pitch": 46, "duration": 16, "velocity": 76}, {"time": 2810, "pitch": 70, "duration": 7, "velocity": 79}, {"time": 2813, "pitch": 53, "duration": 11, "velocity": 78}, {"time": 2816, "pitch": 58, "duration": 5, "velocity": 78}, {"time": 2819, "pitch": 61, "duration": 2, "velocity": 78}, {"time": 2822, "pitch": 58, "duration": 5, "velocity": 75}, {"time": 2822, "pitch": 61, "duration": 6, "velocity": 78}, {"time": 2822, "pitch": 65, "duration": 6, "velocity": 82}, {"time": 2828, "pitch": 46, "duration": 1, "velocity": 45}, {"time": 2828, "pitch": 53, "duration": 5, "velocity": 80}, {"time": 2834, "pitch": 48, "duration": 18, "velocity": 83}, {"time": 2834, "pitch": 60, "duration": 8, "velocity": 74}, {"time": 2834, "pitch": 63, "duration": 9, "velocity": 75}, {"time": 2840, "pitch": 55, "duration": 7, "velocity": 68}, {"time": 2846, "pitch": 67, "duration": 7, "velocity": 84}, {"time": 2849, "pitch": 55, "duration": 2, "velocity": 74}, {"time": 2852, "pitch": 60, "duration": 7, "velocity": 78}, {"time": 2855, "pitch": 63, "duration": 4, "velocity": 71}, {"time": 2858, "pitch": 41, "duration": 15, "velocity": 81}, {"time": 2858, "pitch": 65, "duration": 6, "velocity": 77}, {"time": 2861, "pitch": 48, "duration": 12, "velocity": 74}, {"time": 2864, "pitch": 60, "duration": 4, "velocity": 79}, {"time": 2867, "pitch": 65, "duration": 4, "velocity": 79}, {"time": 2870, "pitch": 68, "duration": 4, "velocity": 79}, {"time": 2873, "pitch": 65, "duration": 3, "velocity": 80}, {"time": 2876, "pitch": 60, "duration": 2, "velocity": 76}, {"time": 2882, "pitch": 46, "duration": 20, "velocity": 81}, {"time": 2882, "pitch": 58, "duration": 7, "velocity": 72}, {"time": 2882, "pitch": 61, "duration": 7, "velocity": 76}, {"time": 2888, "pitch": 53, "duration": 8, "velocity": 78}, {"time": 2891, "pitch": 58, "duration": 4, "velocity": 79}, {"time": 2894, "pitch": 60, "duration": 3, "velocity": 80}, {"time": 2897, "pitch": 61, "duration": 3, "velocity": 80}, {"time": 2900, "pitch": 53, "duration": 3, "velocity": 78}, {"time": 2903, "pitch": 58, "duration": 2, "velocity": 80}, {"time": 2906, "pitch": 51, "duration": 16, "velocity": 83}, {"time": 2906, "pitch": 58, "duration": 3, "velocity": 75}, {"time": 2906, "pitch": 63, "duration": 8, "velocity": 82}, {"time": 2912, "pitch": 58, "duration": 5, "velocity": 71}, {"time": 2918, "pitch": 58, "duration": 4, "velocity": 71}, {"time": 2918, "pitch": 63, "duration": 3, "velocity": 73}, {"time": 2918, "pitch": 67, "duration": 3, "velocity": 66}, {"time": 2930, "pitch": 44, "duration": 22, "velocity": 80}, {"time": 2933, "pitch": 51, "duration": 19, "velocity": 73}, {"time": 2936, "pitch": 56, "duration": 7, "velocity": 78}, {"time": 2939, "pitch": 60, "duration": 4, "velocity": 78}, {"time": 2942, "pitch": 68, "duration": 6, "velocity": 81}, {"time": 2945, "pitch": 56, "duration": 6, "velocity": 74}, {"time": 2947, "pitch": 60, "duration": 4, "velocity": 79}, {"time": 2951, "pitch": 63, "duration": 9, "velocity": 79}, {"time": 2954, "pitch": 44, "duration": 16, "velocity": 79}, {"time": 2956, "pitch": 51, "duration": 10, "velocity": 73}, {"time": 2959, "pitch": 56, "duration": 5, "velocity": 76}, {"time": 2962, "pitch": 60, "duration": 2, "velocity": 78}, {"time": 2965, "pitch": 56, "duration": 4, "velocity": 83}, {"time": 2965, "pitch": 63, "duration": 7, "velocity": 84}, {"time": 2966, "pitch": 60, "duration": 4, "velocity": 92}, {"time": 2968, "pitch": 51, "duration": 3, "velocity": 80}, {"time": 2971, "pitch": 56, "duration": 4, "velocity": 78}, {"time": 2974, "pitch": 60, "duration": 2, "velocity": 79}, {"time": 2977, "pitch": 60, "duration": 5, "velocity": 76}, {"time": 2978, "pitch": 63, "duration": 8, "velocity": 78}, {"time": 2978, "pitch": 48, "duration": 22, "velocity": 80}, {"time": 2984, "pitch": 55, "duration": 7, "velocity": 74}, {"time": 2987, "pitch": 60, "duration": 3, "velocity": 82}, {"time": 2989, "pitch": 63, "duration": 4, "velocity": 80}, {"time": 2992, "pitch": 60, "duration": 4, "velocity": 81}, {"time": 2995, "pitch": 63, "duration": 3, "velocity": 71}, {"time": 2998, "pitch": 60, "duration": 2, "velocity": 74}, {"time": 3001, "pitch": 64, "duration": 6, "velocity": 82}, {"time": 3002, "pitch": 48, "duration": 19, "velocity": 82}, {"time": 3002, "pitch": 60, "duration": 3, "velocity": 80}, {"time": 3004, "pitch": 55, "duration": 10, "velocity": 74}, {"time": 3008, "pitch": 60, "duration": 4, "velocity": 82}, {"time": 3011, "pitch": 64, "duration": 1, "velocity": 81}, {"time": 3014, "pitch": 67, "duration": 6, "velocity": 87}, {"time": 3014, "pitch": 60, "duration": 5, "velocity": 89}, {"time": 3014, "pitch": 64, "duration": 6, "velocity": 95}, {"time": 3016, "pitch": 52, "duration": 3, "velocity": 63}, {"time": 3020, "pitch": 55, "duration": 1, "velocity": 75}, {"time": 3023, "pitch": 60, "duration": 2, "velocity": 89}, {"time": 3026, "pitch": 60, "duration": 3, "velocity": 79}, {"time": 3026, "pitch": 41, "duration": 19, "velocity": 83}, {"time": 3026, "pitch": 65, "duration": 5, "velocity": 80}, {"time": 3029, "pitch": 48, "duration": 15, "velocity": 72}, {"time": 3032, "pitch": 60, "duration": 4, "velocity": 78}, {"time": 3035, "pitch": 65, "duration": 2, "velocity": 79}, {"time": 3038, "pitch": 68, "duration": 4, "velocity": 82}, {"time": 3041, "pitch": 65, "duration": 3, "velocity": 79}, {"time": 3044, "pitch": 60, "duration": 4, "velocity": 79}, {"time": 3047, "pitch": 65, "duration": 2, "velocity": 79}, {"time": 3050, "pitch": 51, "duration": 15, "velocity": 89}, {"time": 3053, "pitch": 58, "duration": 3, "velocity": 78}, {"time": 3056, "pitch": 63, "duration": 3, "velocity": 78}, {"time": 3058, "pitch": 58, "duration": 4, "velocity": 71}, {"time": 3062, "pitch": 67, "duration": 5, "velocity": 81}, {"time": 3064, "pitch": 58, "duration": 4, "velocity": 72}, {"time": 3068, "pitch": 63, "duration": 3, "velocity": 69}, {"time": 3071, "pitch": 58, "duration": 1, "velocity": 66}, {"time": 3073, "pitch": 49, "duration": 22, "velocity": 76}, {"time": 3073, "pitch": 61, "duration": 4, "velocity": 74}, {"time": 3076, "pitch": 56, "duration": 4, "velocity": 76}, {"time": 3080, "pitch": 61, "duration": 3, "velocity": 74}, {"time": 3082, "pitch": 56, "duration": 3, "velocity": 67}, {"time": 3085, "pitch": 65, "duration": 5, "velocity": 79}, {"time": 3088, "pitch": 56, "duration": 4, "velocity": 78}, {"time": 3092, "pitch": 61, "duration": 3, "velocity": 70}, {"time": 3094, "pitch": 56, "duration": 5, "velocity": 72}, {"time": 3098, "pitch": 49, "duration": 18, "velocity": 81}, {"time": 3098, "pitch": 65, "duration": 7, "velocity": 79}, {"time": 3098, "pitch": 61, "duration": 7, "velocity": 75}, {"time": 3104, "pitch": 56, "duration": 3, "velocity": 77}, {"time": 3110, "pitch": 61, "duration": 4, "velocity": 84}, {"time": 3110, "pitch": 56, "duration": 3, "velocity": 82}, {"time": 3110, "pitch": 65, "duration": 5, "velocity": 87}, {"time": 3116, "pitch": 60, "duration": 3, "velocity": 78}, {"time": 3122, "pitch": 61, "duration": 8, "velocity": 80}, {"time": 3122, "pitch": 58, "duration": 11, "velocity": 78}, {"time": 3122, "pitch": 46, "duration": 46, "velocity": 80}, {"time": 3128, "pitch": 53, "duration": 8, "velocity": 72}, {"time": 3134, "pitch": 61, "duration": 4, "velocity": 68}, {"time": 3134, "pitch": 65, "duration": 4, "velocity": 79}, {"time": 3140, "pitch": 53, "duration": 8, "velocity": 78}, {"time": 3144, "pitch": 58, "duration": 2, "velocity": 64}, {"time": 3145, "pitch": 61, "duration": 1, "velocity": 68}, {"time": 3146, "pitch": 65, "duration": 1, "velocity": 75}, {"time": 3146, "pitch": 70, "duration": 3, "velocity": 78}, {"time": 3149, "pitch": 53, "duration": 8, "velocity": 78}, {"time": 3152, "pitch": 58, "duration": 4, "velocity": 79}, {"time": 3155, "pitch": 61, "duration": 4, "velocity": 81}, {"time": 3158, "pitch": 53, "duration": 10, "velocity": 83}, {"time": 3161, "pitch": 58, "duration": 4, "velocity": 80}, {"time": 3164, "pitch": 61, "duration": 3, "velocity": 78}, {"time": 3167, "pitch": 65, "duration": 2, "velocity": 79}, {"time": 3170, "pitch": 63, "duration": 7, "velocity": 79}, {"time": 3170, "pitch": 48, "duration": 16, "velocity": 82}, {"time": 3176, "pitch": 60, "duration": 4, "velocity": 77}, {"time": 3182, "pitch": 67, "duration": 7, "velocity": 78}, {"time": 3182, "pitch": 60, "duration": 3, "velocity": 79}, {"time": 3184, "pitch": 55, "duration": 3, "velocity": 78}, {"time": 3188, "pitch": 60, "duration": 5, "velocity": 79}, {"time": 3191, "pitch": 63, "duration": 3, "velocity": 65}, {"time": 3194, "pitch": 41, "duration": 16, "velocity": 80}, {"time": 3194, "pitch": 65, "duration": 6, "velocity": 79}, {"time": 3196, "pitch": 48, "duration": 13, "velocity": 72}, {"time": 3199, "pitch": 60, "duration": 7, "velocity": 74}, {"time": 3203, "pitch": 65, "duration": 3, "velocity": 78}, {"time": 3206, "pitch": 68, "duration": 4, "velocity": 78}, {"time": 3209, "pitch": 65, "duration": 3, "velocity": 80}, {"time": 3211, "pitch": 60, "duration": 2, "velocity": 78}, {"time": 3215, "pitch": 46, "duration": 18, "velocity": 78}, {"time": 3218, "pitch": 53, "duration": 4, "velocity": 59}, {"time": 3218, "pitch": 58, "duration": 10, "velocity": 63}, {"time": 3219, "pitch": 61, "duration": 9, "velocity": 69}, {"time": 3220, "pitch": 65, "duration": 8, "velocity": 70}, {"time": 3225, "pitch": 53, "duration": 7, "velocity": 64}, {"time": 3231, "pitch": 61, "duration": 2, "velocity": 70}, {"time": 3240, "pitch": 58, "duration": 5, "velocity": 55}, {"time": 3242, "pitch": 63, "duration": 8, "velocity": 69}, {"time": 3242, "pitch": 39, "duration": 36, "velocity": 77}, {"time": 3243, "pitch": 67, "duration": 33, "velocity": 68}, {"time": 3248, "pitch": 46, "duration": 29, "velocity": 52}, {"time": 3255, "pitch": 63, "duration": 21, "velocity": 73}, {"time": 3261, "pitch": 58, "duration": 15, "velocity": 66}, {"time": 3276, "pitch": 56, "duration": 2, "velocity": 51}, {"time": 3278, "pitch": 37, "duration": 15, "velocity": 62}, {"time": 3278, "pitch": 65, "duration": 16, "velocity": 76}, {"time": 3278, "pitch": 61, "duration": 1, "velocity": 34}, {"time": 3284, "pitch": 44, "duration": 8, "velocity": 50}, {"time": 3289, "pitch": 61, "duration": 7, "velocity": 71}, {"time": 3301, "pitch": 58, "duration": 3, "velocity": 41}, {"time": 3301, "pitch": 63, "duration": 19, "velocity": 67}, {"time": 3302, "pitch": 51, "duration": 15, "velocity": 72}, {"time": 3308, "pitch": 58, "duration": 7, "velocity": 63}, {"time": 3314, "pitch": 67, "duration": 7, "velocity": 65}, {"time": 3325, "pitch": 56, "duration": 5, "velocity": 63}, {"time": 3326, "pitch": 61, "duration": 19, "velocity": 67}, {"time": 3327, "pitch": 49, "duration": 32, "velocity": 73}, {"time": 3333, "pitch": 56, "duration": 9, "velocity": 65}, {"time": 3340, "pitch": 65, "duration": 22, "velocity": 77}, {"time": 3348, "pitch": 61, "duration": 14, "velocity": 66}, {"time": 3364, "pitch": 39, "duration": 46, "velocity": 74}, {"time": 3368, "pitch": 46, "duration": 41, "velocity": 63}, {"time": 3372, "pitch": 51, "duration": 37, "velocity": 67}, {"time": 3376, "pitch": 58, "duration": 34, "velocity": 70}, {"time": 3381, "pitch": 63, "duration": 29, "velocity": 70}, {"time": 3410, "pitch": 44, "duration": 46, "velocity": 76}, {"time": 3416, "pitch": 51, "duration": 20, "velocity": 55}, {"time": 3422, "pitch": 56, "duration": 21, "velocity": 62}, {"time": 3422, "pitch": 60, "duration": 21, "velocity": 59}, {"time": 3440, "pitch": 51, "duration": 14, "velocity": 46}, {"time": 3446, "pitch": 56, "duration": 14, "velocity": 67}, {"time": 3446, "pitch": 60, "duration": 14, "velocity": 70}, {"time": 3458, "pitch": 49, "duration": 39, "velocity": 70}, {"time": 3464, "pitch": 56, "duration": 4, "velocity": 60}, {"time": 3470, "pitch": 56, "duration": 3, "velocity": 67}, {"time": 3470, "pitch": 61, "duration": 3, "velocity": 67}, {"time": 3488, "pitch": 56, "duration": 3, "velocity": 53}, {"time": 3494, "pitch": 56, "duration": 2, "velocity": 71}, {"time": 3494, "pitch": 61, "duration": 2, "velocity": 71}, {"time": 3506, "pitch": 44, "duration": 42, "velocity": 71}, {"time": 3506, "pitch": 56, "duration": 8, "velocity": 63}, {"time": 3506, "pitch": 60, "duration": 8, "velocity": 64}, {"time": 3512, "pitch": 51, "duration": 19, "velocity": 60}, {"time": 3518, "pitch": 56, "duration": 3, "velocity": 66}, {"time": 3518, "pitch": 63, "duration": 2, "velocity": 69}, {"time": 3536, "pitch": 51, "duration": 9, "velocity": 50}, {"time": 3542, "pitch": 56, "duration": 3, "velocity": 69}, {"time": 3542, "pitch": 60, "duration": 3, "velocity": 72}, {"time": 3554, "pitch": 49, "duration": 16, "velocity": 70}, {"time": 3554, "pitch": 56, "duration": 4, "velocity": 62}, {"time": 3554, "pitch": 61, "duration": 8, "velocity": 67}, {"time": 3560, "pitch": 56, "duration": 4, "velocity": 62}, {"time": 3566, "pitch": 56, "duration": 3, "velocity": 67}, {"time": 3566, "pitch": 61, "duration": 3, "velocity": 72}, {"time": 3578, "pitch": 49, "duration": 16, "velocity": 64}, {"time": 3578, "pitch": 61, "duration": 24, "velocity": 63}, {"time": 3578, "pitch": 64, "duration": 24, "velocity": 61}, {"time": 3603, "pitch": 44, "duration": 36, "velocity": 63}, {"time": 3609, "pitch": 51, "duration": 24, "velocity": 56}, {"time": 3615, "pitch": 63, "duration": 29, "velocity": 74}, {"time": 3623, "pitch": 68, "duration": 21, "velocity": 71}, {"time": 3632, "pitch": 56, "duration": 13, "velocity": 52}, {"time": 3647, "pitch": 44, "duration": 13, "velocity": 38}, {"time": 3647, "pitch": 51, "duration": 13, "velocity": 64}, {"time": 3649, "pitch": 56, "duration": 11, "velocity": 53}, {"time": 3650, "pitch": 60, "duration": 9, "velocity": 59}, {"time": 3650, "pitch": 63, "duration": 10, "velocity": 59}], "annotations": [{"time": 82, "annotation": {"number": 64, "value": 127}, "group": "control_change"}, {"time": 83, "annotation": {"number": 64, "value": 0}, "group": "control_change"}, {"time": 83, "annotation": {"number": 64, "value": 127}, "group": "control_change"}, {"time": 84, "annotation": {"number": 64, "value": 0}, "group": "control_change"}, {"time": 84, "annotation": {"number": 64, "value": 127}, "group": "control_change"}, {"time": 96, "annotation": {"number": 64, "value": 0}, "group": "control_change"}, {"time": 100, "annotation": {"number": 64, "value": 127}, "group": "control_change"}, {"time": 144, "annotation": {"number": 64, "value": 0}, "group": "control_change"}, {"time": 152, "annotation": {"number": 64, "value": 127}, "group": "control_change"}, {"time": 192, "annotation": {"number": 64, "value": 0}, "group": "control_change"}, {"time": 199, "annotation": {"number": 64, "value": 127}, "group": "control_change"}, {"time": 217, "annotation": {"number": 64, "value": 0}, "group": "control_change"}, {"time": 220, "annotation": {"number": 64, "value": 127}, "group": "control_change"}, {"time": 239, "annotation": {"number": 64, "value": 0}, "group": "control_change"}, {"time": 289, "annotation": {"number": 64, "value": 0}, "group": "control_change"}, {"time": 295, "annotation": {"number": 64, "value": 127}, "group": "control_change"}, {"time": 336, "annotation": {"number": 64, "value": 0}, "group": "control_change"}, {"time": 340, "annotation": {"number": 64, "value": 127}, "group": "control_change"}, {"time": 385, "annotation": {"number": 64, "value": 0}, "group": "control_change"}, {"time": 392, "annotation": {"number": 64, "value": 127}, "group": "control_change"}, {"time": 433, "annotation": {"number": 64, "value": 0}, "group": "control_change"}, {"time": 435, "annotation": {"number": 64, "value": 127}, "group": "control_change"}, {"time": 457, "annotation": {"number": 64, "value": 0}, "group": "control_change"}, {"time": 461, "annotation": {"number": 64, "value": 127}, "group": "control_change"}, {"time": 480, "annotation": {"number": 64, "value": 0}, "group": "control_change"}, {"time": 483, "annotation": {"number": 64, "value": 127}, "group": "control_change"}, {"time": 493, "annotation": {"number": 64, "value": 0}, "group": "control_change"}, {"time": 496, "annotation": {"number": 64, "value": 127}, "group": "control_change"}, {"time": 504, "annotation": {"number": 64, "value": 0}, "group": "control_change"}, {"time": 508, "annotation": {"number": 64, "value": 127}, "group": "control_change"}, {"time": 522, "annotation": {"number": 64, "value": 0}, "group": "control_change"}, {"time": 524, "annotation": {"number": 64, "value": 127}, "group": "control_change"}, {"time": 529, "annotation": {"number": 64, "value": 0}, "group": "control_change"}, {"time": 535, "annotation": {"number": 64, "value": 127}, "group": "control_change"}, {"time": 575, "annotation": {"number": 64, "value": 0}, "group": "control_change"}, {"time": 578, "annotation": {"number": 64, "value": 127}, "group": "control_change"}, {"time": 624, "annotation": {"number": 64, "value": 0}, "group": "control_change"}, {"time": 631, "annotation": {"number": 64, "value": 127}, "group": "control_change"}, {"time": 673, "annotation": {"number": 64, "value": 0}, "group": "control_change"}, {"time": 680, "annotation": {"number": 64, "value": 127}, "group": "control_change"}, {"time": 722, "annotation": {"number": 64, "value": 0}, "group": "control_change"}, {"time": 728, "annotation": {"number": 64, "value": 127}, "group": "control_change"}, {"time": 770, "annotation": {"number": 64, "value": 0}, "group": "control_change"}, {"time": 776, "annotation": {"number": 64, "value": 127}, "group": "control_change"}, {"time": 816, "annotation": {"number": 64, "value": 0}, "group": "control_change"}, {"time": 822, "annotation": {"number": 64, "value": 127}, "group": "control_change"}, {"time": 841, "annotation": {"number": 64, "value": 0}, "group": "control_change"}, {"time": 848, "annotation": {"number": 64, "value": 127}, "group": "control_change"}, {"time": 864, "annotation": {"number": 64, "value": 0}, "group": "control_change"}, {"time": 867, "annotation": {"number": 64, "value": 127}, "group": "control_change"}, {"time": 876, "annotation": {"number": 64, "value": 0}, "group": "control_change"}, {"time": 879, "annotation": {"number": 64, "value": 127}, "group": "control_change"}, {"time": 888, "annotation": {"number": 64, "value": 0}, "group": "control_change"}, {"time": 895, "annotation": {"number": 64, "value": 127}, "group": "control_change"}, {"time": 914, "annotation": {"number": 64, "value": 0}, "group": "control_change"}, {"time": 920, "annotation": {"number": 64, "value": 127}, "group": "control_change"}, {"time": 937, "annotation": {"number": 64, "value": 0}, "group": "control_change"}, {"time": 940, "annotation": {"number": 64, "value": 127}, "group": "control_change"}, {"time": 960, "annotation": {"number": 64, "value": 0}, "group": "control_change"}, {"time": 966, "annotation": {"number": 64, "value": 127}, "group": "control_change"}, {"time": 984, "annotation": {"number": 64, "value": 0}, "group": "control_change"}, {"time": 986, "annotation": {"number": 64, "value": 127}, "group": "control_change"}, {"time": 1008, "annotation": {"number": 64, "value": 0}, "group": "control_change"}, {"time": 1011, "annotation": {"number": 64, "value": 127}, "group": "control_change"}, {"time": 1032, "annotation": {"number": 64, "value": 0}, "group": "control_change"}, {"time": 1034, "annotation": {"number": 64, "value": 127}, "group": "control_change"}, {"time": 1056, "annotation": {"number": 64, "value": 0}, "group": "control_change"}, {"time": 1059, "annotation": {"number": 64, "value": 127}, "group": "control_change"}, {"time": 1080, "annotation": {"number": 64, "value": 0}, "group": "control_change"}, {"time": 1082, "annotation": {"number": 64, "value": 127}, "group": "control_change"}, {"time": 1105, "annotation": {"number": 64, "value": 0}, "group": "control_change"}, {"time": 1108, "annotation": {"number": 64, "value": 127}, "group": "control_change"}, {"time": 1128, "annotation": {"number": 64, "value": 0}, "group": "control_change"}, {"time": 1131, "annotation": {"number": 64, "value": 127}, "group": "control_change"}, {"time": 1152, "annotation": {"number": 64, "value": 0}, "group": "control_change"}, {"time": 1154, "annotation": {"number": 64, "value": 127}, "group": "control_change"}, {"time": 1177, "annotation": {"number": 64, "value": 0}, "group": "control_change"}, {"time": 1179, "annotation": {"number": 64, "value": 127}, "group": "control_change"}, {"time": 1188, "annotation": {"number": 64, "value": 0}, "group": "control_change"}, {"time": 1190, "annotation": {"number": 64, "value": 127}, "group": "control_change"}, {"time": 1201, "annotation": {"number": 64, "value": 0}, "group": "control_change"}, {"time": 1203, "annotation": {"number": 64, "value": 127}, "group": "control_change"}, {"time": 1224, "annotation": {"number": 64, "value": 0}, "group": "control_change"}, {"time": 1227, "annotation": {"number": 64, "value": 127}, "group": "control_change"}, {"time": 1248, "annotation": {"number": 64, "value": 0}, "group": "control_change"}, {"time": 1251, "annotation": {"number": 64, "value": 127}, "group": "control_change"}, {"time": 1273, "annotation": {"number": 64, "value": 0}, "group": "control_change"}, {"time": 1275, "annotation": {"number": 64, "value": 127}, "group": "control_change"}, {"time": 1297, "annotation": {"number": 64, "value": 0}, "group": "control_change"}, {"time": 1299, "annotation": {"number": 64, "value": 127}, "group": "control_change"}, {"time": 1321, "annotation": {"number": 64, "value": 0}, "group": "control_change"}, {"time": 1323, "annotation": {"number": 64, "value": 127}, "group": "control_change"}, {"time": 1378, "annotation": {"number": 64, "value": 127}, "group": "control_change"}, {"time": 1379, "annotation": {"number": 64, "value": 0}, "group": "control_change"}, {"time": 1379, "annotation": {"number": 64, "value": 127}, "group": "control_change"}, {"time": 1380, "annotation": {"number": 64, "value": 0}, "group": "control_change"}, {"time": 1380, "annotation": {"number": 64, "value": 127}, "group": "control_change"}, {"time": 1392, "annotation": {"number": 64, "value": 0}, "group": "control_change"}, {"time": 1396, "annotation": {"number": 64, "value": 127}, "group": "control_change"}, {"time": 1440, "annotation": {"number": 64, "value": 0}, "group": "control_change"}, {"time": 1448, "annotation": {"number": 64, "value": 127}, "group": "control_change"}, {"time": 1488, "annotation": {"number": 64, "value": 0}, "group": "control_change"}, {"time": 1495, "annotation": {"number": 64, "value": 127}, "group": "control_change"}, {"time": 1513, "annotation": {"number": 64, "value": 0}, "group": "control_change"}, {"time": 1516, "annotation": {"number": 64, "value": 127}, "group": "control_change"}, {"time": 1535, "annotation": {"number": 64, "value": 0}, "group": "control_change"}, {"time": 1543, "annotation": {"number": 64, "value": 127}, "group": "control_change"}, {"time": 1585, "annotation": {"number": 64, "value": 0}, "group": "control_change"}, {"time": 1592, "annotation": {"number": 64, "value": 127}, "group": "control_change"}, {"time": 1634, "annotation": {"number": 64, "value": 0}, "group": "control_change"}, {"time": 1640, "annotation": {"number": 64, "value": 127}, "group": "control_change"}, {"time": 1682, "annotation": {"number": 64, "value": 0}, "group": "control_change"}, {"time": 1688, "annotation": {"number": 64, "value": 127}, "group": "control_change"}, {"time": 1728, "annotation": {"number": 64, "value": 0}, "group": "control_change"}, {"time": 1734, "annotation": {"number": 64, "value": 127}, "group": "control_change"}, {"time": 1753, "annotation": {"number": 64, "value": 0}, "group": "control_change"}, {"time": 1760, "annotation": {"number": 64, "value": 127}, "group": "control_change"}, {"time": 1776, "annotation": {"number": 64, "value": 0}, "group": "control_change"}, {"time": 1779, "annotation": {"number": 64, "value": 127}, "group": "control_change"}, {"time": 1788, "annotation": {"number": 64, "value": 0}, "group": "control_change"}, {"time": 1791, "annotation": {"number": 64, "value": 127}, "group": "control_change"}, {"time": 1800, "annotation": {"number": 64, "value": 0}, "group": "control_change"}, {"time": 1807, "annotation": {"number": 64, "value": 127}, "group": "control_change"}, {"time": 1826, "annotation": {"number": 64, "value": 0}, "group": "control_change"}, {"time": 1832, "annotation": {"number": 64, "value": 127}, "group": "control_change"}, {"time": 1849, "annotation": {"number": 64, "value": 0}, "group": "control_change"}, {"time": 1852, "annotation": {"number": 64, "value": 127}, "group": "control_change"}, {"time": 1872, "annotation": {"number": 64, "value": 0}, "group": "control_change"}, {"time": 1878, "annotation": {"number": 64, "value": 127}, "group": "control_change"}, {"time": 1896, "annotation": {"number": 64, "value": 0}, "group": "control_change"}, {"time": 1898, "annotation": {"number": 64, "value": 127}, "group": "control_change"}, {"time": 1920, "annotation": {"number": 64, "value": 0}, "group": "control_change"}, {"time": 1923, "annotation": {"number": 64, "value": 127}, "group": "control_change"}, {"time": 1944, "annotation": {"number": 64, "value": 0}, "group": "control_change"}, {"time": 1946, "annotation": {"number": 64, "value": 127}, "group": "control_change"}, {"time": 1968, "annotation": {"number": 64, "value": 0}, "group": "control_change"}, {"time": 1971, "annotation": {"number": 64, "value": 127}, "group": "control_change"}, {"time": 1992, "annotation": {"number": 64, "value": 0}, "group": "control_change"}, {"time": 1994, "annotation": {"number": 64, "value": 127}, "group": "control_change"}, {"time": 2017, "annotation": {"number": 64, "value": 0}, "group": "control_change"}, {"time": 2020, "annotation": {"number": 64, "value": 127}, "group": "control_change"}, {"time": 2040, "annotation": {"number": 64, "value": 0}, "group": "control_change"}, {"time": 2043, "annotation": {"number": 64, "value": 127}, "group": "control_change"}, {"time": 2064, "annotation": {"number": 64, "value": 0}, "group": "control_change"}, {"time": 2066, "annotation": {"number": 64, "value": 127}, "group": "control_change"}, {"time": 2089, "annotation": {"number": 64, "value": 0}, "group": "control_change"}, {"time": 2091, "annotation": {"number": 64, "value": 127}, "group": "control_change"}, {"time": 2100, "annotation": {"number": 64, "value": 0}, "group": "control_change"}, {"time": 2102, "annotation": {"number": 64, "value": 127}, "group": "control_change"}, {"time": 2113, "annotation": {"number": 64, "value": 0}, "group": "control_change"}, {"time": 2115, "annotation": {"number": 64, "value": 127}, "group": "control_change"}, {"time": 2136, "annotation": {"number": 64, "value": 0}, "group": "control_change"}, {"time": 2139, "annotation": {"number": 64, "value": 127}, "group": "control_change"}, {"time": 2160, "annotation": {"number": 64, "value": 0}, "group": "control_change"}, {"time": 2163, "annotation": {"number": 64, "value": 127}, "group": "control_change"}, {"time": 2185, "annotation": {"number": 64, "value": 0}, "group": "control_change"}, {"time": 2187, "annotation": {"number": 64, "value": 127}, "group": "control_change"}, {"time": 2209, "annotation": {"number": 64, "value": 0}, "group": "control_change"}, {"time": 2211, "annotation": {"number": 64, "value": 127}, "group": "control_change"}, {"time": 2233, "annotation": {"number": 64, "value": 0}, "group": "control_change"}, {"time": 2235, "annotation": {"number": 64, "value": 127}, "group": "control_change"}, {"time": 2263, "annotation": {"number": 64, "value": 127}, "group": "control_change"}, {"time": 2281, "annotation": {"number": 64, "value": 0}, "group": "control_change"}, {"time": 2283, "annotation": {"number": 64, "value": 127}, "group": "control_change"}, {"time": 2305, "annotation": {"number": 64, "value": 0}, "group": "control_change"}, {"time": 2308, "annotation": {"number": 64, "value": 127}, "group": "control_change"}, {"time": 2329, "annotation": {"number": 64, "value": 0}, "group": "control_change"}, {"time": 2331, "annotation": {"number": 64, "value": 127}, "group": "control_change"}, {"time": 2352, "annotation": {"number": 64, "value": 0}, "group": "control_change"}, {"time": 2355, "annotation": {"number": 64, "value": 127}, "group": "control_change"}, {"time": 2376, "annotation": {"number": 64, "value": 0}, "group": "control_change"}, {"time": 2379, "annotation": {"number": 64, "value": 127}, "group": "control_change"}, {"time": 2401, "annotation": {"number": 64, "value": 0}, "group": "control_change"}, {"time": 2404, "annotation": {"number": 64, "value": 127}, "group": "control_change"}, {"time": 2425, "annotation": {"number": 64, "value": 0}, "group": "control_change"}, {"time": 2426, "annotation": {"number": 64, "value": 127}, "group": "control_change"}, {"time": 2448, "annotation": {"number": 64, "value": 0}, "group": "control_change"}, {"time": 2450, "annotation": {"number": 64, "value": 127}, "group": "control_change"}, {"time": 2472, "annotation": {"number": 64, "value": 0}, "group": "control_change"}, {"time": 2475, "annotation": {"number": 64, "value": 127}, "group": "control_change"}, {"time": 2496, "annotation": {"number": 64, "value": 0}, "group": "control_change"}, {"time": 2499, "annotation": {"number": 64, "value": 127}, "group": "control_change"}, {"time": 2521, "annotation": {"number": 64, "value": 0}, "group": "control_change"}, {"time": 2524, "annotation": {"number": 64, "value": 127}, "group": "control_change"}, {"time": 2545, "annotation": {"number": 64, "value": 0}, "group": "control_change"}, {"time": 2547, "annotation": {"number": 64, "value": 127}, "group": "control_change"}, {"time": 2567, "annotation": {"number": 64, "value": 0}, "group": "control_change"}, {"time": 2569, "annotation": {"number": 64, "value": 127}, "group": "control_change"}, {"time": 2580, "annotation": {"number": 64, "value": 0}, "group": "control_change"}, {"time": 2581, "annotation": {"number": 64, "value": 127}, "group": "control_change"}, {"time": 2592, "annotation": {"number": 64, "value": 0}, "group": "control_change"}, {"time": 2595, "annotation": {"number": 64, "value": 127}, "group": "control_change"}, {"time": 2616, "annotation": {"number": 64, "value": 0}, "group": "control_change"}, {"time": 2618, "annotation": {"number": 64, "value": 127}, "group": "control_change"}, {"time": 2640, "annotation": {"number": 64, "value": 0}, "group": "control_change"}, {"time": 2643, "annotation": {"number": 64, "value": 127}, "group": "control_change"}, {"time": 2664, "annotation": {"number": 64, "value": 0}, "group": "control_change"}, {"time": 2666, "annotation": {"number": 64, "value": 127}, "group": "control_change"}, {"time": 2689, "annotation": {"number": 64, "value": 0}, "group": "control_change"}, {"time": 2692, "annotation": {"number": 64, "value": 127}, "group": "control_change"}, {"time": 2712, "annotation": {"number": 64, "value": 0}, "group": "control_change"}, {"time": 2715, "annotation": {"number": 64, "value": 127}, "group": "control_change"}, {"time": 2736, "annotation": {"number": 64, "value": 0}, "group": "control_change"}, {"time": 2738, "annotation": {"number": 64, "value": 127}, "group": "control_change"}, {"time": 2761, "annotation": {"number": 64, "value": 0}, "group": "control_change"}, {"time": 2763, "annotation": {"number": 64, "value": 127}, "group": "control_change"}, {"time": 2772, "annotation": {"number": 64, "value": 0}, "group": "control_change"}, {"time": 2774, "annotation": {"number": 64, "value": 127}, "group": "control_change"}, {"time": 2785, "annotation": {"number": 64, "value": 0}, "group": "control_change"}, {"time": 2787, "annotation": {"number": 64, "value": 127}, "group": "control_change"}, {"time": 2808, "annotation": {"number": 64, "value": 0}, "group": "control_change"}, {"time": 2811, "annotation": {"number": 64, "value": 127}, "group": "control_change"}, {"time": 2832, "annotation": {"number": 64, "value": 0}, "group": "control_change"}, {"time": 2835, "annotation": {"number": 64, "value": 127}, "group": "control_change"}, {"time": 2857, "annotation": {"number": 64, "value": 0}, "group": "control_change"}, {"time": 2859, "annotation": {"number": 64, "value": 127}, "group": "control_change"}, {"time": 2881, "annotation": {"number": 64, "value": 0}, "group": "control_change"}, {"time": 2883, "annotation": {"number": 64, "value": 127}, "group": "control_change"}, {"time": 2905, "annotation": {"number": 64, "value": 0}, "group": "control_change"}, {"time": 2907, "annotation": {"number": 64, "value": 127}, "group": "control_change"}, {"time": 2931, "annotation": {"number": 64, "value": 127}, "group": "control_change"}, {"time": 2952, "annotation": {"number": 64, "value": 0}, "group": "control_change"}, {"time": 2956, "annotation": {"number": 64, "value": 127}, "group": "control_change"}, {"time": 2977, "annotation": {"number": 64, "value": 0}, "group": "control_change"}, {"time": 2980, "annotation": {"number": 64, "value": 127}, "group": "control_change"}, {"time": 3000, "annotation": {"number": 64, "value": 0}, "group": "control_change"}, {"time": 3002, "annotation": {"number": 64, "value": 127}, "group": "control_change"}, {"time": 3025, "annotation": {"number": 64, "value": 0}, "group": "control_change"}, {"time": 3027, "annotation": {"number": 64, "value": 127}, "group": "control_change"}, {"time": 3049, "annotation": {"number": 64, "value": 0}, "group": "control_change"}, {"time": 3050, "annotation": {"number": 64, "value": 127}, "group": "control_change"}, {"time": 3072, "annotation": {"number": 64, "value": 0}, "group": "control_change"}, {"time": 3074, "annotation": {"number": 64, "value": 127}, "group": "control_change"}, {"time": 3096, "annotation": {"number": 64, "value": 0}, "group": "control_change"}, {"time": 3098, "annotation": {"number": 64, "value": 127}, "group": "control_change"}, {"time": 3122, "annotation": {"number": 64, "value": 0}, "group": "control_change"}, {"time": 3125, "annotation": {"number": 64, "value": 127}, "group": "control_change"}, {"time": 3170, "annotation": {"number": 64, "value": 0}, "group": "control_change"}, {"time": 3172, "annotation": {"number": 64, "value": 127}, "group": "control_change"}, {"time": 3193, "annotation": {"number": 64, "value": 0}, "group": "control_change"}, {"time": 3195, "annotation": {"number": 64, "value": 127}, "group": "control_change"}, {"time": 3218, "annotation": {"number": 64, "value": 127}, "group": "control_change"}, {"time": 3240, "annotation": {"number": 64, "value": 0}, "group": "control_change"}, {"time": 3244, "annotation": {"number": 64, "value": 127}, "group": "control_change"}, {"time": 3278, "annotation": {"number": 64, "value": 127}, "group": "control_change"}, {"time": 3281, "annotation": {"number": 64, "value": 0}, "group": "control_change"}, {"time": 3302, "annotation": {"number": 64, "value": 0}, "group": "control_change"}, {"time": 3308, "annotation": {"number": 64, "value": 127}, "group": "control_change"}, {"time": 3326, "annotation": {"number": 64, "value": 0}, "group": "control_change"}, {"time": 3333, "annotation": {"number": 64, "value": 127}, "group": "control_change"}, {"time": 3367, "annotation": {"number": 64, "value": 0}, "group": "control_change"}, {"time": 3371, "annotation": {"number": 64, "value": 127}, "group": "control_change"}, {"time": 3398, "annotation": {"number": 64, "value": 0}, "group": "control_change"}, {"time": 3442, "annotation": {"number": 64, "value": 127}, "group": "control_change"}, {"time": 3443, "annotation": {"number": 64, "value": 0}, "group": "control_change"}, {"time": 3443, "annotation": {"number": 64, "value": 127}, "group": "control_change"}, {"time": 3444, "annotation": {"number": 64, "value": 0}, "group": "control_change"}, {"time": 3444, "annotation": {"number": 64, "value": 127}, "group": "control_change"}, {"time": 3456, "annotation": {"number": 64, "value": 0}, "group": "control_change"}, {"time": 3460, "annotation": {"number": 64, "value": 127}, "group": "control_change"}, {"time": 3504, "annotation": {"number": 64, "value": 0}, "group": "control_change"}, {"time": 3512, "annotation": {"number": 64, "value": 127}, "group": "control_change"}, {"time": 3552, "annotation": {"number": 64, "value": 0}, "group": "control_change"}, {"time": 3559, "annotation": {"number": 64, "value": 127}, "group": "control_change"}, {"time": 3577, "annotation": {"number": 64, "value": 0}, "group": "control_change"}, {"time": 3579, "annotation": {"number": 64, "value": 127}, "group": "control_change"}, {"time": 3579, "annotation": {"number": 64, "value": 0}, "group": "control_change"}, {"time": 3580, "annotation": {"number": 64, "value": 127}, "group": "control_change"}, {"time": 3599, "annotation": {"number": 64, "value": 0}, "group": "control_change"}, {"time": 3605, "annotation": {"number": 64, "value": 0}, "group": "control_change"}, {"time": 3612, "annotation": {"number": 64, "value": 127}, "group": "control_change"}, {"time": 3688, "annotation": {"number": 64, "value": 0}, "group": "control_change"}]}]}