{"metadata": {"schema_version": "0.2", "title": "None", "source_filename": "545.mid", "source_format": "midi"}, "resolution": 12, "tempos": [{"time": 0, "qpm": 123.00047355182318}, {"time": 238, "qpm": 122.50022968793067}, {"time": 420, "qpm": 123.00047355182318}, {"time": 546, "qpm": 122.50022968793067}, {"time": 1771, "qpm": 122.75009308548725}, {"time": 2842, "qpm": 122.25013600327631}, {"time": 3022, "qpm": 122.75009308548725}, {"time": 3281, "qpm": 122.25013600327631}, {"time": 3283, "qpm": 121.50003948751284}, {"time": 3291, "qpm": 121.00043156820593}, {"time": 3296, "qpm": 120.75009961883218}, {"time": 3308, "qpm": 121.25033343841696}, {"time": 3315, "qpm": 122.25013600327631}, {"time": 3324, "qpm": 122.75009308548725}, {"time": 3671, "qpm": 122.25013600327631}, {"time": 3987, "qpm": 122.75009308548725}, {"time": 4557, "qpm": 122.25013600327631}, {"time": 4689, "qpm": 122.75009308548725}, {"time": 5015, "qpm": 122.0000691333725}, {"time": 5182, "qpm": 122.50022968793067}], "time_signatures": [{"time": 0, "numerator": 1, "denominator": 4}], "tracks": [{"program": 0, "is_drum": false, "name": "MELODY", "notes": [{"time": 630, "pitch": 61, "duration": 10, "velocity": 80}, {"time": 642, "pitch": 61, "duration": 5, "velocity": 76}, {"time": 648, "pitch": 68, "duration": 6, "velocity": 78}, {"time": 654, "pitch": 66, "duration": 10, "velocity": 75}, {"time": 666, "pitch": 64, "duration": 5, "velocity": 76}, {"time": 672, "pitch": 61, "duration": 7, "velocity": 72}, {"time": 678, "pitch": 64, "duration": 13, "velocity": 80}, {"time": 690, "pitch": 66, "duration": 6, "velocity": 76}, {"time": 696, "pitch": 64, "duration": 6, "velocity": 76}, {"time": 702, "pitch": 61, "duration": 21, "velocity": 77}, {"time": 726, "pitch": 61, "duration": 9, "velocity": 78}, {"time": 738, "pitch": 61, "duration": 5, "velocity": 76}, {"time": 744, "pitch": 68, "duration": 6, "velocity": 77}, {"time": 750, "pitch": 66, "duration": 12, "velocity": 76}, {"time": 762, "pitch": 64, "duration": 5, "velocity": 77}, {"time": 768, "pitch": 61, "duration": 8, "velocity": 74}, {"time": 774, "pitch": 64, "duration": 13, "velocity": 79}, {"time": 786, "pitch": 66, "duration": 6, "velocity": 76}, {"time": 792, "pitch": 68, "duration": 7, "velocity": 70}, {"time": 798, "pitch": 66, "duration": 21, "velocity": 75}, {"time": 822, "pitch": 68, "duration": 9, "velocity": 78}, {"time": 834, "pitch": 68, "duration": 5, "velocity": 77}, {"time": 840, "pitch": 71, "duration": 6, "velocity": 76}, {"time": 846, "pitch": 68, "duration": 9, "velocity": 76}, {"time": 858, "pitch": 66, "duration": 5, "velocity": 77}, {"time": 864, "pitch": 61, "duration": 5, "velocity": 76}, {"time": 870, "pitch": 64, "duration": 4, "velocity": 72}, {"time": 876, "pitch": 64, "duration": 4, "velocity": 76}, {"time": 882, "pitch": 66, "duration": 4, "velocity": 72}, {"time": 888, "pitch": 68, "duration": 5, "velocity": 72}, {"time": 894, "pitch": 64, "duration": 21, "velocity": 77}, {"time": 918, "pitch": 63, "duration": 9, "velocity": 76}, {"time": 930, "pitch": 63, "duration": 5, "velocity": 75}, {"time": 936, "pitch": 66, "duration": 3, "velocity": 70}, {"time": 942, "pitch": 59, "duration": 11, "velocity": 78}, {"time": 954, "pitch": 56, "duration": 7, "velocity": 73}, {"time": 960, "pitch": 59, "duration": 6, "velocity": 64}, {"time": 966, "pitch": 61, "duration": 9, "velocity": 72}, {"time": 978, "pitch": 61, "duration": 7, "velocity": 77}, {"time": 990, "pitch": 61, "duration": 20, "velocity": 71}, {"time": 1014, "pitch": 68, "duration": 9, "velocity": 76}, {"time": 1026, "pitch": 68, "duration": 5, "velocity": 77}, {"time": 1032, "pitch": 66, "duration": 4, "velocity": 66}, {"time": 1038, "pitch": 68, "duration": 10, "velocity": 76}, {"time": 1050, "pitch": 61, "duration": 3, "velocity": 74}, {"time": 1056, "pitch": 61, "duration": 5, "velocity": 76}, {"time": 1062, "pitch": 64, "duration": 10, "velocity": 76}, {"time": 1074, "pitch": 66, "duration": 4, "velocity": 74}, {"time": 1080, "pitch": 68, "duration": 5, "velocity": 72}, {"time": 1086, "pitch": 66, "duration": 20, "velocity": 76}, {"time": 1110, "pitch": 63, "duration": 9, "velocity": 82}, {"time": 1122, "pitch": 63, "duration": 5, "velocity": 79}, {"time": 1128, "pitch": 66, "duration": 3, "velocity": 76}, {"time": 1134, "pitch": 59, "duration": 9, "velocity": 78}, {"time": 1146, "pitch": 56, "duration": 4, "velocity": 77}, {"time": 1152, "pitch": 59, "duration": 4, "velocity": 76}, {"time": 1158, "pitch": 61, "duration": 10, "velocity": 76}, {"time": 1170, "pitch": 61, "duration": 10, "velocity": 74}, {"time": 1182, "pitch": 61, "duration": 19, "velocity": 76}, {"time": 1206, "pitch": 61, "duration": 10, "velocity": 80}, {"time": 1218, "pitch": 61, "duration": 5, "velocity": 76}, {"time": 1224, "pitch": 68, "duration": 6, "velocity": 78}, {"time": 1230, "pitch": 66, "duration": 10, "velocity": 75}, {"time": 1242, "pitch": 64, "duration": 5, "velocity": 76}, {"time": 1248, "pitch": 61, "duration": 7, "velocity": 72}, {"time": 1254, "pitch": 64, "duration": 13, "velocity": 80}, {"time": 1266, "pitch": 66, "duration": 6, "velocity": 76}, {"time": 1272, "pitch": 64, "duration": 6, "velocity": 76}, {"time": 1278, "pitch": 61, "duration": 21, "velocity": 77}, {"time": 1302, "pitch": 61, "duration": 9, "velocity": 78}, {"time": 1314, "pitch": 61, "duration": 5, "velocity": 76}, {"time": 1320, "pitch": 68, "duration": 6, "velocity": 77}, {"time": 1326, "pitch": 66, "duration": 12, "velocity": 76}, {"time": 1338, "pitch": 64, "duration": 5, "velocity": 77}, {"time": 1344, "pitch": 61, "duration": 8, "velocity": 74}, {"time": 1350, "pitch": 64, "duration": 13, "velocity": 79}, {"time": 1362, "pitch": 66, "duration": 6, "velocity": 76}, {"time": 1368, "pitch": 68, "duration": 7, "velocity": 70}, {"time": 1374, "pitch": 66, "duration": 21, "velocity": 75}, {"time": 1398, "pitch": 68, "duration": 9, "velocity": 78}, {"time": 1410, "pitch": 68, "duration": 5, "velocity": 77}, {"time": 1416, "pitch": 71, "duration": 6, "velocity": 76}, {"time": 1422, "pitch": 68, "duration": 9, "velocity": 76}, {"time": 1434, "pitch": 66, "duration": 5, "velocity": 77}, {"time": 1440, "pitch": 61, "duration": 5, "velocity": 76}, {"time": 1446, "pitch": 64, "duration": 4, "velocity": 72}, {"time": 1452, "pitch": 64, "duration": 4, "velocity": 76}, {"time": 1458, "pitch": 66, "duration": 4, "velocity": 72}, {"time": 1464, "pitch": 68, "duration": 5, "velocity": 72}, {"time": 1470, "pitch": 64, "duration": 21, "velocity": 77}, {"time": 1494, "pitch": 63, "duration": 9, "velocity": 76}, {"time": 1506, "pitch": 63, "duration": 5, "velocity": 75}, {"time": 1512, "pitch": 66, "duration": 3, "velocity": 70}, {"time": 1518, "pitch": 59, "duration": 11, "velocity": 78}, {"time": 1530, "pitch": 56, "duration": 7, "velocity": 73}, {"time": 1536, "pitch": 59, "duration": 6, "velocity": 64}, {"time": 1542, "pitch": 61, "duration": 9, "velocity": 72}, {"time": 1554, "pitch": 61, "duration": 7, "velocity": 77}, {"time": 1566, "pitch": 61, "duration": 20, "velocity": 71}, {"time": 1590, "pitch": 68, "duration": 9, "velocity": 76}, {"time": 1602, "pitch": 68, "duration": 5, "velocity": 77}, {"time": 1608, "pitch": 66, "duration": 4, "velocity": 66}, {"time": 1614, "pitch": 68, "duration": 10, "velocity": 76}, {"time": 1626, "pitch": 61, "duration": 3, "velocity": 74}, {"time": 1632, "pitch": 61, "duration": 5, "velocity": 76}, {"time": 1638, "pitch": 64, "duration": 10, "velocity": 76}, {"time": 1650, "pitch": 66, "duration": 4, "velocity": 74}, {"time": 1656, "pitch": 68, "duration": 5, "velocity": 72}, {"time": 1662, "pitch": 66, "duration": 20, "velocity": 76}, {"time": 1686, "pitch": 63, "duration": 9, "velocity": 82}, {"time": 1698, "pitch": 63, "duration": 5, "velocity": 79}, {"time": 1704, "pitch": 66, "duration": 3, "velocity": 76}, {"time": 1710, "pitch": 59, "duration": 9, "velocity": 78}, {"time": 1722, "pitch": 56, "duration": 4, "velocity": 77}, {"time": 1728, "pitch": 59, "duration": 4, "velocity": 76}, {"time": 1734, "pitch": 61, "duration": 10, "velocity": 76}, {"time": 1746, "pitch": 61, "duration": 10, "velocity": 74}, {"time": 1758, "pitch": 61, "duration": 19, "velocity": 76}, {"time": 1782, "pitch": 61, "duration": 10, "velocity": 80}, {"time": 1794, "pitch": 61, "duration": 5, "velocity": 76}, {"time": 1800, "pitch": 68, "duration": 6, "velocity": 78}, {"time": 1806, "pitch": 66, "duration": 10, "velocity": 75}, {"time": 1818, "pitch": 64, "duration": 5, "velocity": 76}, {"time": 1824, "pitch": 61, "duration": 7, "velocity": 72}, {"time": 1830, "pitch": 64, "duration": 13, "velocity": 80}, {"time": 1842, "pitch": 66, "duration": 6, "velocity": 76}, {"time": 1848, "pitch": 64, "duration": 6, "velocity": 76}, {"time": 1854, "pitch": 61, "duration": 21, "velocity": 77}, {"time": 1878, "pitch": 61, "duration": 9, "velocity": 78}, {"time": 1890, "pitch": 61, "duration": 5, "velocity": 76}, {"time": 1896, "pitch": 68, "duration": 6, "velocity": 77}, {"time": 1902, "pitch": 66, "duration": 12, "velocity": 76}, {"time": 1914, "pitch": 64, "duration": 5, "velocity": 77}, {"time": 1920, "pitch": 61, "duration": 8, "velocity": 74}, {"time": 1926, "pitch": 64, "duration": 13, "velocity": 79}, {"time": 1938, "pitch": 66, "duration": 6, "velocity": 76}, {"time": 1944, "pitch": 68, "duration": 7, "velocity": 70}, {"time": 1950, "pitch": 66, "duration": 21, "velocity": 75}, {"time": 1974, "pitch": 68, "duration": 9, "velocity": 78}, {"time": 1986, "pitch": 68, "duration": 5, "velocity": 77}, {"time": 1992, "pitch": 71, "duration": 6, "velocity": 76}, {"time": 1998, "pitch": 68, "duration": 9, "velocity": 76}, {"time": 2010, "pitch": 66, "duration": 5, "velocity": 77}, {"time": 2016, "pitch": 61, "duration": 5, "velocity": 76}, {"time": 2022, "pitch": 64, "duration": 4, "velocity": 72}, {"time": 2028, "pitch": 64, "duration": 4, "velocity": 76}, {"time": 2034, "pitch": 66, "duration": 4, "velocity": 72}, {"time": 2040, "pitch": 68, "duration": 5, "velocity": 72}, {"time": 2046, "pitch": 64, "duration": 21, "velocity": 77}, {"time": 2070, "pitch": 63, "duration": 9, "velocity": 76}, {"time": 2082, "pitch": 63, "duration": 5, "velocity": 75}, {"time": 2088, "pitch": 66, "duration": 3, "velocity": 70}, {"time": 2094, "pitch": 59, "duration": 11, "velocity": 78}, {"time": 2106, "pitch": 56, "duration": 7, "velocity": 73}, {"time": 2112, "pitch": 59, "duration": 6, "velocity": 64}, {"time": 2118, "pitch": 61, "duration": 9, "velocity": 72}, {"time": 2130, "pitch": 61, "duration": 7, "velocity": 77}, {"time": 2142, "pitch": 61, "duration": 20, "velocity": 71}, {"time": 2166, "pitch": 68, "duration": 9, "velocity": 76}, {"time": 2178, "pitch": 68, "duration": 5, "velocity": 77}, {"time": 2184, "pitch": 66, "duration": 4, "velocity": 66}, {"time": 2190, "pitch": 68, "duration": 10, "velocity": 76}, {"time": 2202, "pitch": 61, "duration": 3, "velocity": 74}, {"time": 2208, "pitch": 61, "duration": 5, "velocity": 76}, {"time": 2214, "pitch": 64, "duration": 10, "velocity": 76}, {"time": 2226, "pitch": 66, "duration": 4, "velocity": 74}, {"time": 2232, "pitch": 68, "duration": 5, "velocity": 72}, {"time": 2238, "pitch": 66, "duration": 20, "velocity": 76}, {"time": 2262, "pitch": 63, "duration": 9, "velocity": 82}, {"time": 2274, "pitch": 63, "duration": 5, "velocity": 79}, {"time": 2280, "pitch": 66, "duration": 3, "velocity": 76}, {"time": 2286, "pitch": 59, "duration": 9, "velocity": 78}, {"time": 2298, "pitch": 56, "duration": 4, "velocity": 77}, {"time": 2304, "pitch": 59, "duration": 4, "velocity": 76}, {"time": 2310, "pitch": 61, "duration": 10, "velocity": 76}, {"time": 2322, "pitch": 61, "duration": 10, "velocity": 74}, {"time": 2334, "pitch": 61, "duration": 19, "velocity": 76}, {"time": 2358, "pitch": 61, "duration": 10, "velocity": 80}, {"time": 2370, "pitch": 61, "duration": 5, "velocity": 76}, {"time": 2376, "pitch": 68, "duration": 6, "velocity": 78}, {"time": 2382, "pitch": 66, "duration": 10, "velocity": 75}, {"time": 2394, "pitch": 64, "duration": 5, "velocity": 76}, {"time": 2400, "pitch": 61, "duration": 7, "velocity": 72}, {"time": 2406, "pitch": 64, "duration": 13, "velocity": 80}, {"time": 2418, "pitch": 66, "duration": 6, "velocity": 76}, {"time": 2424, "pitch": 64, "duration": 6, "velocity": 76}, {"time": 2430, "pitch": 61, "duration": 21, "velocity": 77}, {"time": 2454, "pitch": 61, "duration": 9, "velocity": 78}, {"time": 2466, "pitch": 61, "duration": 5, "velocity": 76}, {"time": 2472, "pitch": 68, "duration": 6, "velocity": 77}, {"time": 2478, "pitch": 66, "duration": 12, "velocity": 76}, {"time": 2490, "pitch": 64, "duration": 5, "velocity": 77}, {"time": 2496, "pitch": 61, "duration": 8, "velocity": 74}, {"time": 2502, "pitch": 64, "duration": 13, "velocity": 79}, {"time": 2514, "pitch": 66, "duration": 6, "velocity": 76}, {"time": 2520, "pitch": 68, "duration": 7, "velocity": 70}, {"time": 2526, "pitch": 66, "duration": 21, "velocity": 75}, {"time": 2550, "pitch": 68, "duration": 9, "velocity": 78}, {"time": 2562, "pitch": 68, "duration": 5, "velocity": 77}, {"time": 2568, "pitch": 71, "duration": 6, "velocity": 76}, {"time": 2574, "pitch": 68, "duration": 9, "velocity": 76}, {"time": 2586, "pitch": 66, "duration": 5, "velocity": 77}, {"time": 2592, "pitch": 61, "duration": 5, "velocity": 76}, {"time": 2598, "pitch": 64, "duration": 4, "velocity": 72}, {"time": 2604, "pitch": 64, "duration": 4, "velocity": 76}, {"time": 2610, "pitch": 66, "duration": 4, "velocity": 72}, {"time": 2616, "pitch": 68, "duration": 5, "velocity": 72}, {"time": 2622, "pitch": 64, "duration": 21, "velocity": 77}, {"time": 2646, "pitch": 63, "duration": 9, "velocity": 76}, {"time": 2658, "pitch": 63, "duration": 5, "velocity": 75}, {"time": 2664, "pitch": 66, "duration": 3, "velocity": 70}, {"time": 2670, "pitch": 59, "duration": 11, "velocity": 78}, {"time": 2682, "pitch": 56, "duration": 7, "velocity": 73}, {"time": 2688, "pitch": 59, "duration": 6, "velocity": 64}, {"time": 2694, "pitch": 61, "duration": 9, "velocity": 72}, {"time": 2706, "pitch": 61, "duration": 7, "velocity": 77}, {"time": 2718, "pitch": 61, "duration": 20, "velocity": 71}, {"time": 2742, "pitch": 68, "duration": 9, "velocity": 76}, {"time": 2754, "pitch": 68, "duration": 5, "velocity": 77}, {"time": 2760, "pitch": 66, "duration": 4, "velocity": 66}, {"time": 2766, "pitch": 68, "duration": 10, "velocity": 76}, {"time": 2778, "pitch": 61, "duration": 3, "velocity": 74}, {"time": 2784, "pitch": 61, "duration": 5, "velocity": 76}, {"time": 2790, "pitch": 64, "duration": 10, "velocity": 76}, {"time": 2802, "pitch": 66, "duration": 4, "velocity": 74}, {"time": 2808, "pitch": 68, "duration": 5, "velocity": 72}, {"time": 2814, "pitch": 66, "duration": 20, "velocity": 76}, {"time": 2838, "pitch": 63, "duration": 9, "velocity": 82}, {"time": 2850, "pitch": 63, "duration": 5, "velocity": 79}, {"time": 2856, "pitch": 66, "duration": 3, "velocity": 76}, {"time": 2862, "pitch": 59, "duration": 9, "velocity": 78}, {"time": 2874, "pitch": 56, "duration": 4, "velocity": 77}, {"time": 2880, "pitch": 59, "duration": 4, "velocity": 76}, {"time": 2886, "pitch": 61, "duration": 10, "velocity": 76}, {"time": 2898, "pitch": 61, "duration": 10, "velocity": 74}, {"time": 2910, "pitch": 61, "duration": 19, "velocity": 76}, {"time": 3318, "pitch": 61, "duration": 10, "velocity": 80}, {"time": 3330, "pitch": 61, "duration": 5, "velocity": 76}, {"time": 3336, "pitch": 68, "duration": 6, "velocity": 78}, {"time": 3342, "pitch": 66, "duration": 10, "velocity": 75}, {"time": 3354, "pitch": 64, "duration": 5, "velocity": 76}, {"time": 3360, "pitch": 61, "duration": 7, "velocity": 72}, {"time": 3366, "pitch": 64, "duration": 13, "velocity": 80}, {"time": 3378, "pitch": 66, "duration": 6, "velocity": 76}, {"time": 3384, "pitch": 64, "duration": 6, "velocity": 76}, {"time": 3390, "pitch": 61, "duration": 21, "velocity": 77}, {"time": 3414, "pitch": 61, "duration": 9, "velocity": 78}, {"time": 3426, "pitch": 61, "duration": 5, "velocity": 76}, {"time": 3432, "pitch": 68, "duration": 6, "velocity": 77}, {"time": 3438, "pitch": 66, "duration": 12, "velocity": 76}, {"time": 3450, "pitch": 64, "duration": 5, "velocity": 77}, {"time": 3456, "pitch": 61, "duration": 8, "velocity": 74}, {"time": 3462, "pitch": 64, "duration": 13, "velocity": 79}, {"time": 3474, "pitch": 66, "duration": 6, "velocity": 76}, {"time": 3480, "pitch": 68, "duration": 7, "velocity": 70}, {"time": 3486, "pitch": 66, "duration": 21, "velocity": 75}, {"time": 3510, "pitch": 68, "duration": 9, "velocity": 78}, {"time": 3522, "pitch": 68, "duration": 5, "velocity": 77}, {"time": 3528, "pitch": 71, "duration": 6, "velocity": 76}, {"time": 3534, "pitch": 68, "duration": 9, "velocity": 76}, {"time": 3546, "pitch": 66, "duration": 5, "velocity": 77}, {"time": 3552, "pitch": 61, "duration": 5, "velocity": 76}, {"time": 3558, "pitch": 64, "duration": 4, "velocity": 72}, {"time": 3564, "pitch": 64, "duration": 4, "velocity": 76}, {"time": 3570, "pitch": 66, "duration": 4, "velocity": 72}, {"time": 3576, "pitch": 68, "duration": 5, "velocity": 72}, {"time": 3582, "pitch": 64, "duration": 21, "velocity": 77}, {"time": 3606, "pitch": 63, "duration": 9, "velocity": 76}, {"time": 3618, "pitch": 63, "duration": 5, "velocity": 75}, {"time": 3624, "pitch": 66, "duration": 3, "velocity": 70}, {"time": 3630, "pitch": 59, "duration": 11, "velocity": 78}, {"time": 3642, "pitch": 56, "duration": 7, "velocity": 73}, {"time": 3648, "pitch": 59, "duration": 6, "velocity": 64}, {"time": 3654, "pitch": 61, "duration": 9, "velocity": 72}, {"time": 3666, "pitch": 61, "duration": 7, "velocity": 77}, {"time": 3678, "pitch": 61, "duration": 20, "velocity": 71}, {"time": 3702, "pitch": 68, "duration": 9, "velocity": 76}, {"time": 3714, "pitch": 68, "duration": 5, "velocity": 77}, {"time": 3720, "pitch": 66, "duration": 4, "velocity": 66}, {"time": 3726, "pitch": 68, "duration": 10, "velocity": 76}, {"time": 3738, "pitch": 61, "duration": 3, "velocity": 74}, {"time": 3744, "pitch": 61, "duration": 5, "velocity": 76}, {"time": 3750, "pitch": 64, "duration": 10, "velocity": 76}, {"time": 3762, "pitch": 66, "duration": 4, "velocity": 74}, {"time": 3768, "pitch": 68, "duration": 5, "velocity": 72}, {"time": 3774, "pitch": 66, "duration": 20, "velocity": 76}, {"time": 3798, "pitch": 63, "duration": 9, "velocity": 82}, {"time": 3810, "pitch": 63, "duration": 5, "velocity": 79}, {"time": 3816, "pitch": 66, "duration": 3, "velocity": 76}, {"time": 3822, "pitch": 59, "duration": 9, "velocity": 78}, {"time": 3834, "pitch": 56, "duration": 4, "velocity": 77}, {"time": 3840, "pitch": 59, "duration": 4, "velocity": 76}, {"time": 3846, "pitch": 61, "duration": 10, "velocity": 76}, {"time": 3858, "pitch": 61, "duration": 10, "velocity": 74}, {"time": 3870, "pitch": 61, "duration": 19, "velocity": 76}, {"time": 3894, "pitch": 68, "duration": 9, "velocity": 76}, {"time": 3906, "pitch": 68, "duration": 5, "velocity": 77}, {"time": 3912, "pitch": 66, "duration": 4, "velocity": 66}, {"time": 3918, "pitch": 68, "duration": 10, "velocity": 76}, {"time": 3930, "pitch": 61, "duration": 3, "velocity": 74}, {"time": 3936, "pitch": 61, "duration": 5, "velocity": 76}, {"time": 3942, "pitch": 64, "duration": 10, "velocity": 76}, {"time": 3954, "pitch": 66, "duration": 4, "velocity": 74}, {"time": 3960, "pitch": 68, "duration": 5, "velocity": 72}, {"time": 3966, "pitch": 66, "duration": 20, "velocity": 76}, {"time": 3990, "pitch": 63, "duration": 9, "velocity": 82}, {"time": 4002, "pitch": 63, "duration": 5, "velocity": 79}, {"time": 4008, "pitch": 66, "duration": 3, "velocity": 76}, {"time": 4014, "pitch": 59, "duration": 9, "velocity": 78}, {"time": 4026, "pitch": 56, "duration": 4, "velocity": 77}, {"time": 4032, "pitch": 59, "duration": 4, "velocity": 76}, {"time": 4038, "pitch": 61, "duration": 10, "velocity": 76}, {"time": 4050, "pitch": 61, "duration": 10, "velocity": 74}, {"time": 4062, "pitch": 61, "duration": 19, "velocity": 76}, {"time": 4278, "pitch": 68, "duration": 9, "velocity": 76}, {"time": 4290, "pitch": 68, "duration": 5, "velocity": 77}, {"time": 4296, "pitch": 66, "duration": 4, "velocity": 66}, {"time": 4302, "pitch": 68, "duration": 10, "velocity": 76}, {"time": 4314, "pitch": 61, "duration": 3, "velocity": 74}, {"time": 4320, "pitch": 61, "duration": 5, "velocity": 76}, {"time": 4326, "pitch": 64, "duration": 10, "velocity": 76}, {"time": 4338, "pitch": 66, "duration": 4, "velocity": 74}, {"time": 4344, "pitch": 68, "duration": 5, "velocity": 72}, {"time": 4350, "pitch": 66, "duration": 20, "velocity": 76}, {"time": 4374, "pitch": 63, "duration": 9, "velocity": 82}, {"time": 4386, "pitch": 63, "duration": 5, "velocity": 79}, {"time": 4392, "pitch": 66, "duration": 3, "velocity": 76}, {"time": 4398, "pitch": 59, "duration": 9, "velocity": 78}, {"time": 4410, "pitch": 56, "duration": 4, "velocity": 77}, {"time": 4416, "pitch": 59, "duration": 4, "velocity": 76}, {"time": 4422, "pitch": 61, "duration": 10, "velocity": 76}, {"time": 4434, "pitch": 61, "duration": 10, "velocity": 74}, {"time": 4446, "pitch": 61, "duration": 19, "velocity": 76}, {"time": 4662, "pitch": 68, "duration": 9, "velocity": 76}, {"time": 4674, "pitch": 68, "duration": 5, "velocity": 77}, {"time": 4680, "pitch": 66, "duration": 4, "velocity": 66}, {"time": 4686, "pitch": 68, "duration": 10, "velocity": 76}, {"time": 4698, "pitch": 61, "duration": 3, "velocity": 74}, {"time": 4704, "pitch": 61, "duration": 5, "velocity": 76}, {"time": 4710, "pitch": 64, "duration": 10, "velocity": 76}, {"time": 4722, "pitch": 66, "duration": 4, "velocity": 74}, {"time": 4728, "pitch": 68, "duration": 5, "velocity": 72}, {"time": 4734, "pitch": 66, "duration": 20, "velocity": 76}, {"time": 4758, "pitch": 63, "duration": 9, "velocity": 82}, {"time": 4770, "pitch": 63, "duration": 5, "velocity": 79}, {"time": 4776, "pitch": 66, "duration": 3, "velocity": 76}, {"time": 4782, "pitch": 59, "duration": 9, "velocity": 78}, {"time": 4794, "pitch": 56, "duration": 4, "velocity": 77}, {"time": 4800, "pitch": 59, "duration": 4, "velocity": 76}, {"time": 4806, "pitch": 61, "duration": 10, "velocity": 76}, {"time": 4818, "pitch": 61, "duration": 10, "velocity": 74}, {"time": 4830, "pitch": 61, "duration": 19, "velocity": 76}, {"time": 5046, "pitch": 68, "duration": 9, "velocity": 76}, {"time": 5058, "pitch": 68, "duration": 5, "velocity": 77}, {"time": 5064, "pitch": 66, "duration": 4, "velocity": 66}, {"time": 5070, "pitch": 68, "duration": 10, "velocity": 76}, {"time": 5082, "pitch": 61, "duration": 3, "velocity": 74}, {"time": 5088, "pitch": 61, "duration": 5, "velocity": 76}, {"time": 5094, "pitch": 64, "duration": 10, "velocity": 76}, {"time": 5106, "pitch": 66, "duration": 4, "velocity": 74}, {"time": 5112, "pitch": 68, "duration": 5, "velocity": 72}, {"time": 5118, "pitch": 66, "duration": 20, "velocity": 76}, {"time": 5142, "pitch": 63, "duration": 9, "velocity": 82}, {"time": 5154, "pitch": 63, "duration": 5, "velocity": 79}, {"time": 5160, "pitch": 66, "duration": 3, "velocity": 76}, {"time": 5166, "pitch": 59, "duration": 9, "velocity": 78}, {"time": 5178, "pitch": 56, "duration": 4, "velocity": 77}, {"time": 5184, "pitch": 59, "duration": 4, "velocity": 76}, {"time": 5190, "pitch": 61, "duration": 10, "velocity": 76}, {"time": 5202, "pitch": 61, "duration": 10, "velocity": 74}, {"time": 5214, "pitch": 61, "duration": 19, "velocity": 76}, {"time": 5430, "pitch": 68, "duration": 9, "velocity": 76}, {"time": 5442, "pitch": 68, "duration": 5, "velocity": 77}, {"time": 5448, "pitch": 66, "duration": 4, "velocity": 66}, {"time": 5454, "pitch": 68, "duration": 10, "velocity": 76}, {"time": 5466, "pitch": 61, "duration": 3, "velocity": 74}, {"time": 5472, "pitch": 61, "duration": 5, "velocity": 76}, {"time": 5478, "pitch": 64, "duration": 10, "velocity": 76}, {"time": 5490, "pitch": 66, "duration": 4, "velocity": 74}, {"time": 5496, "pitch": 68, "duration": 5, "velocity": 72}, {"time": 5502, "pitch": 66, "duration": 20, "velocity": 76}, {"time": 5526, "pitch": 63, "duration": 9, "velocity": 82}, {"time": 5538, "pitch": 63, "duration": 5, "velocity": 79}, {"time": 5544, "pitch": 66, "duration": 3, "velocity": 76}, {"time": 5550, "pitch": 59, "duration": 9, "velocity": 78}, {"time": 5562, "pitch": 56, "duration": 4, "velocity": 77}, {"time": 5568, "pitch": 59, "duration": 4, "velocity": 76}, {"time": 5574, "pitch": 61, "duration": 10, "velocity": 76}, {"time": 5586, "pitch": 61, "duration": 10, "velocity": 74}, {"time": 5598, "pitch": 61, "duration": 19, "velocity": 76}]}, {"program": 0, "is_drum": false, "name": "BRIDGE", "notes": [{"time": 54, "pitch": 68, "duration": 3, "velocity": 79}, {"time": 57, "pitch": 71, "duration": 4, "velocity": 73}, {"time": 60, "pitch": 73, "duration": 3, "velocity": 81}, {"time": 63, "pitch": 76, "duration": 4, "velocity": 77}, {"time": 66, "pitch": 73, "duration": 80, "velocity": 82}, {"time": 150, "pitch": 71, "duration": 3, "velocity": 79}, {"time": 153, "pitch": 73, "duration": 4, "velocity": 75}, {"time": 156, "pitch": 71, "duration": 3, "velocity": 77}, {"time": 159, "pitch": 66, "duration": 4, "velocity": 79}, {"time": 162, "pitch": 68, "duration": 78, "velocity": 73}, {"time": 246, "pitch": 68, "duration": 7, "velocity": 83}, {"time": 258, "pitch": 68, "duration": 3, "velocity": 83}, {"time": 264, "pitch": 68, "duration": 3, "velocity": 79}, {"time": 270, "pitch": 73, "duration": 8, "velocity": 85}, {"time": 282, "pitch": 73, "duration": 4, "velocity": 87}, {"time": 288, "pitch": 71, "duration": 3, "velocity": 80}, {"time": 294, "pitch": 68, "duration": 3, "velocity": 82}, {"time": 300, "pitch": 71, "duration": 3, "velocity": 82}, {"time": 306, "pitch": 68, "duration": 3, "velocity": 80}, {"time": 312, "pitch": 71, "duration": 3, "velocity": 81}, {"time": 318, "pitch": 73, "duration": 20, "velocity": 90}, {"time": 342, "pitch": 68, "duration": 8, "velocity": 81}, {"time": 354, "pitch": 68, "duration": 3, "velocity": 83}, {"time": 360, "pitch": 68, "duration": 4, "velocity": 78}, {"time": 366, "pitch": 73, "duration": 9, "velocity": 85}, {"time": 378, "pitch": 73, "duration": 4, "velocity": 83}, {"time": 384, "pitch": 71, "duration": 3, "velocity": 81}, {"time": 390, "pitch": 68, "duration": 3, "velocity": 80}, {"time": 396, "pitch": 71, "duration": 3, "velocity": 78}, {"time": 402, "pitch": 68, "duration": 2, "velocity": 80}, {"time": 408, "pitch": 66, "duration": 3, "velocity": 77}, {"time": 414, "pitch": 68, "duration": 19, "velocity": 80}, {"time": 438, "pitch": 68, "duration": 7, "velocity": 83}, {"time": 450, "pitch": 68, "duration": 3, "velocity": 83}, {"time": 456, "pitch": 68, "duration": 3, "velocity": 79}, {"time": 462, "pitch": 73, "duration": 8, "velocity": 85}, {"time": 474, "pitch": 73, "duration": 4, "velocity": 87}, {"time": 480, "pitch": 71, "duration": 3, "velocity": 80}, {"time": 486, "pitch": 68, "duration": 3, "velocity": 82}, {"time": 492, "pitch": 71, "duration": 3, "velocity": 82}, {"time": 498, "pitch": 68, "duration": 3, "velocity": 80}, {"time": 504, "pitch": 71, "duration": 3, "velocity": 81}, {"time": 510, "pitch": 73, "duration": 20, "velocity": 90}, {"time": 534, "pitch": 68, "duration": 8, "velocity": 79}, {"time": 546, "pitch": 68, "duration": 4, "velocity": 81}, {"time": 552, "pitch": 71, "duration": 4, "velocity": 78}, {"time": 558, "pitch": 68, "duration": 8, "velocity": 81}, {"time": 570, "pitch": 66, "duration": 3, "velocity": 78}, {"time": 576, "pitch": 68, "duration": 3, "velocity": 78}, {"time": 582, "pitch": 64, "duration": 3, "velocity": 77}, {"time": 588, "pitch": 61, "duration": 3, "velocity": 81}, {"time": 594, "pitch": 59, "duration": 10, "velocity": 78}, {"time": 606, "pitch": 61, "duration": 19, "velocity": 78}, {"time": 906, "pitch": 68, "duration": 6, "velocity": 76}, {"time": 912, "pitch": 66, "duration": 7, "velocity": 64}, {"time": 918, "pitch": 63, "duration": 44, "velocity": 67}, {"time": 966, "pitch": 59, "duration": 12, "velocity": 64}, {"time": 978, "pitch": 61, "duration": 6, "velocity": 68}, {"time": 984, "pitch": 59, "duration": 6, "velocity": 64}, {"time": 990, "pitch": 61, "duration": 18, "velocity": 69}, {"time": 1014, "pitch": 68, "duration": 37, "velocity": 69}, {"time": 1050, "pitch": 66, "duration": 10, "velocity": 70}, {"time": 1062, "pitch": 68, "duration": 24, "velocity": 69}, {"time": 1086, "pitch": 66, "duration": 20, "velocity": 69}, {"time": 1110, "pitch": 71, "duration": 36, "velocity": 68}, {"time": 1146, "pitch": 68, "duration": 7, "velocity": 64}, {"time": 1152, "pitch": 71, "duration": 8, "velocity": 69}, {"time": 1158, "pitch": 73, "duration": 9, "velocity": 76}, {"time": 1170, "pitch": 73, "duration": 6, "velocity": 78}, {"time": 1176, "pitch": 71, "duration": 7, "velocity": 63}, {"time": 1182, "pitch": 73, "duration": 21, "velocity": 74}, {"time": 1218, "pitch": 76, "duration": 8, "velocity": 64}, {"time": 1224, "pitch": 73, "duration": 9, "velocity": 76}, {"time": 1230, "pitch": 68, "duration": 22, "velocity": 59}, {"time": 1290, "pitch": 73, "duration": 8, "velocity": 70}, {"time": 1296, "pitch": 68, "duration": 43, "velocity": 63}, {"time": 1302, "pitch": 73, "duration": 37, "velocity": 69}, {"time": 1362, "pitch": 73, "duration": 7, "velocity": 74}, {"time": 1368, "pitch": 71, "duration": 6, "velocity": 65}, {"time": 1374, "pitch": 66, "duration": 20, "velocity": 57}, {"time": 1398, "pitch": 66, "duration": 1, "velocity": 57}, {"time": 1398, "pitch": 68, "duration": 35, "velocity": 61}, {"time": 1398, "pitch": 71, "duration": 33, "velocity": 53}, {"time": 1446, "pitch": 69, "duration": 16, "velocity": 62}, {"time": 1446, "pitch": 73, "duration": 18, "velocity": 73}, {"time": 1470, "pitch": 68, "duration": 17, "velocity": 57}, {"time": 1470, "pitch": 71, "duration": 18, "velocity": 64}, {"time": 1494, "pitch": 68, "duration": 33, "velocity": 65}, {"time": 1530, "pitch": 66, "duration": 8, "velocity": 63}, {"time": 1536, "pitch": 68, "duration": 7, "velocity": 70}, {"time": 1542, "pitch": 73, "duration": 7, "velocity": 76}, {"time": 1554, "pitch": 73, "duration": 6, "velocity": 77}, {"time": 1560, "pitch": 71, "duration": 7, "velocity": 67}, {"time": 1566, "pitch": 73, "duration": 16, "velocity": 75}, {"time": 1590, "pitch": 71, "duration": 36, "velocity": 70}, {"time": 1626, "pitch": 68, "duration": 8, "velocity": 64}, {"time": 1632, "pitch": 71, "duration": 7, "velocity": 66}, {"time": 1638, "pitch": 73, "duration": 22, "velocity": 76}, {"time": 1662, "pitch": 71, "duration": 22, "velocity": 65}, {"time": 1662, "pitch": 75, "duration": 21, "velocity": 75}, {"time": 1686, "pitch": 71, "duration": 35, "velocity": 75}, {"time": 1722, "pitch": 68, "duration": 7, "velocity": 68}, {"time": 1728, "pitch": 71, "duration": 7, "velocity": 75}, {"time": 1734, "pitch": 73, "duration": 9, "velocity": 76}, {"time": 1746, "pitch": 73, "duration": 6, "velocity": 72}, {"time": 1752, "pitch": 71, "duration": 7, "velocity": 67}, {"time": 1758, "pitch": 73, "duration": 20, "velocity": 76}, {"time": 1794, "pitch": 68, "duration": 5, "velocity": 51}, {"time": 1794, "pitch": 73, "duration": 5, "velocity": 69}, {"time": 1818, "pitch": 68, "duration": 6, "velocity": 61}, {"time": 1818, "pitch": 73, "duration": 6, "velocity": 69}, {"time": 1842, "pitch": 68, "duration": 2, "velocity": 61}, {"time": 1842, "pitch": 73, "duration": 2, "velocity": 71}, {"time": 1866, "pitch": 68, "duration": 4, "velocity": 56}, {"time": 1866, "pitch": 73, "duration": 4, "velocity": 70}, {"time": 1890, "pitch": 68, "duration": 4, "velocity": 56}, {"time": 1890, "pitch": 73, "duration": 4, "velocity": 67}, {"time": 1914, "pitch": 68, "duration": 4, "velocity": 59}, {"time": 1914, "pitch": 73, "duration": 3, "velocity": 68}, {"time": 1938, "pitch": 68, "duration": 4, "velocity": 60}, {"time": 1938, "pitch": 73, "duration": 4, "velocity": 71}, {"time": 1962, "pitch": 66, "duration": 3, "velocity": 53}, {"time": 1962, "pitch": 73, "duration": 4, "velocity": 73}, {"time": 1986, "pitch": 68, "duration": 4, "velocity": 55}, {"time": 1986, "pitch": 71, "duration": 4, "velocity": 62}, {"time": 2010, "pitch": 68, "duration": 4, "velocity": 58}, {"time": 2010, "pitch": 71, "duration": 4, "velocity": 63}, {"time": 2034, "pitch": 69, "duration": 4, "velocity": 56}, {"time": 2034, "pitch": 73, "duration": 5, "velocity": 71}, {"time": 2058, "pitch": 68, "duration": 5, "velocity": 60}, {"time": 2058, "pitch": 71, "duration": 4, "velocity": 66}, {"time": 2082, "pitch": 68, "duration": 4, "velocity": 60}, {"time": 2082, "pitch": 71, "duration": 4, "velocity": 66}, {"time": 2106, "pitch": 68, "duration": 4, "velocity": 65}, {"time": 2106, "pitch": 71, "duration": 4, "velocity": 68}, {"time": 2130, "pitch": 68, "duration": 4, "velocity": 59}, {"time": 2130, "pitch": 73, "duration": 4, "velocity": 72}, {"time": 2154, "pitch": 73, "duration": 6, "velocity": 77}, {"time": 2160, "pitch": 71, "duration": 6, "velocity": 71}, {"time": 2166, "pitch": 68, "duration": 34, "velocity": 70}, {"time": 2202, "pitch": 66, "duration": 6, "velocity": 64}, {"time": 2208, "pitch": 68, "duration": 6, "velocity": 66}, {"time": 2214, "pitch": 64, "duration": 13, "velocity": 69}, {"time": 2226, "pitch": 66, "duration": 6, "velocity": 68}, {"time": 2232, "pitch": 68, "duration": 7, "velocity": 66}, {"time": 2238, "pitch": 66, "duration": 21, "velocity": 66}, {"time": 2262, "pitch": 68, "duration": 32, "velocity": 64}, {"time": 2298, "pitch": 68, "duration": 4, "velocity": 76}, {"time": 2304, "pitch": 71, "duration": 5, "velocity": 70}, {"time": 2310, "pitch": 73, "duration": 9, "velocity": 76}, {"time": 2322, "pitch": 73, "duration": 5, "velocity": 77}, {"time": 2328, "pitch": 71, "duration": 7, "velocity": 68}, {"time": 2334, "pitch": 73, "duration": 20, "velocity": 77}, {"time": 2370, "pitch": 76, "duration": 8, "velocity": 64}, {"time": 2376, "pitch": 73, "duration": 9, "velocity": 76}, {"time": 2382, "pitch": 68, "duration": 22, "velocity": 59}, {"time": 2442, "pitch": 73, "duration": 8, "velocity": 70}, {"time": 2448, "pitch": 68, "duration": 43, "velocity": 63}, {"time": 2454, "pitch": 73, "duration": 37, "velocity": 69}, {"time": 2514, "pitch": 73, "duration": 7, "velocity": 74}, {"time": 2520, "pitch": 71, "duration": 6, "velocity": 65}, {"time": 2526, "pitch": 66, "duration": 20, "velocity": 57}, {"time": 2550, "pitch": 66, "duration": 1, "velocity": 57}, {"time": 2550, "pitch": 68, "duration": 35, "velocity": 61}, {"time": 2550, "pitch": 71, "duration": 33, "velocity": 53}, {"time": 2598, "pitch": 69, "duration": 16, "velocity": 62}, {"time": 2598, "pitch": 73, "duration": 18, "velocity": 73}, {"time": 2622, "pitch": 68, "duration": 17, "velocity": 57}, {"time": 2622, "pitch": 71, "duration": 18, "velocity": 64}, {"time": 2646, "pitch": 68, "duration": 33, "velocity": 65}, {"time": 2682, "pitch": 66, "duration": 8, "velocity": 63}, {"time": 2688, "pitch": 68, "duration": 7, "velocity": 70}, {"time": 2694, "pitch": 73, "duration": 7, "velocity": 76}, {"time": 2706, "pitch": 73, "duration": 6, "velocity": 77}, {"time": 2712, "pitch": 71, "duration": 7, "velocity": 67}, {"time": 2718, "pitch": 73, "duration": 16, "velocity": 75}, {"time": 2742, "pitch": 71, "duration": 36, "velocity": 70}, {"time": 2778, "pitch": 68, "duration": 8, "velocity": 64}, {"time": 2784, "pitch": 71, "duration": 7, "velocity": 66}, {"time": 2790, "pitch": 73, "duration": 22, "velocity": 76}, {"time": 2814, "pitch": 71, "duration": 22, "velocity": 65}, {"time": 2814, "pitch": 75, "duration": 21, "velocity": 75}, {"time": 2838, "pitch": 71, "duration": 35, "velocity": 75}, {"time": 2874, "pitch": 68, "duration": 7, "velocity": 68}, {"time": 2880, "pitch": 71, "duration": 7, "velocity": 75}, {"time": 2886, "pitch": 73, "duration": 9, "velocity": 76}, {"time": 2898, "pitch": 73, "duration": 6, "velocity": 72}, {"time": 2904, "pitch": 71, "duration": 7, "velocity": 67}, {"time": 2910, "pitch": 73, "duration": 20, "velocity": 76}, {"time": 2934, "pitch": 68, "duration": 7, "velocity": 83}, {"time": 2946, "pitch": 68, "duration": 3, "velocity": 83}, {"time": 2952, "pitch": 68, "duration": 3, "velocity": 79}, {"time": 2958, "pitch": 73, "duration": 8, "velocity": 85}, {"time": 2970, "pitch": 73, "duration": 4, "velocity": 87}, {"time": 2976, "pitch": 71, "duration": 3, "velocity": 80}, {"time": 2982, "pitch": 68, "duration": 3, "velocity": 82}, {"time": 2988, "pitch": 71, "duration": 3, "velocity": 82}, {"time": 2994, "pitch": 68, "duration": 3, "velocity": 80}, {"time": 3000, "pitch": 71, "duration": 3, "velocity": 81}, {"time": 3006, "pitch": 73, "duration": 20, "velocity": 90}, {"time": 3030, "pitch": 68, "duration": 8, "velocity": 81}, {"time": 3042, "pitch": 68, "duration": 3, "velocity": 83}, {"time": 3048, "pitch": 68, "duration": 4, "velocity": 78}, {"time": 3054, "pitch": 73, "duration": 9, "velocity": 85}, {"time": 3066, "pitch": 73, "duration": 4, "velocity": 83}, {"time": 3072, "pitch": 71, "duration": 3, "velocity": 81}, {"time": 3078, "pitch": 68, "duration": 3, "velocity": 80}, {"time": 3084, "pitch": 71, "duration": 3, "velocity": 78}, {"time": 3090, "pitch": 68, "duration": 2, "velocity": 80}, {"time": 3096, "pitch": 66, "duration": 3, "velocity": 77}, {"time": 3102, "pitch": 68, "duration": 19, "velocity": 80}, {"time": 3126, "pitch": 68, "duration": 7, "velocity": 83}, {"time": 3138, "pitch": 68, "duration": 3, "velocity": 83}, {"time": 3144, "pitch": 68, "duration": 3, "velocity": 79}, {"time": 3150, "pitch": 73, "duration": 8, "velocity": 85}, {"time": 3162, "pitch": 73, "duration": 4, "velocity": 87}, {"time": 3168, "pitch": 71, "duration": 3, "velocity": 80}, {"time": 3174, "pitch": 68, "duration": 3, "velocity": 82}, {"time": 3180, "pitch": 71, "duration": 3, "velocity": 82}, {"time": 3186, "pitch": 68, "duration": 3, "velocity": 80}, {"time": 3192, "pitch": 71, "duration": 3, "velocity": 81}, {"time": 3198, "pitch": 73, "duration": 20, "velocity": 90}, {"time": 3222, "pitch": 68, "duration": 8, "velocity": 79}, {"time": 3234, "pitch": 68, "duration": 4, "velocity": 81}, {"time": 3240, "pitch": 71, "duration": 4, "velocity": 78}, {"time": 3246, "pitch": 68, "duration": 8, "velocity": 81}, {"time": 3258, "pitch": 66, "duration": 3, "velocity": 78}, {"time": 3264, "pitch": 68, "duration": 3, "velocity": 78}, {"time": 3270, "pitch": 64, "duration": 3, "velocity": 77}, {"time": 3276, "pitch": 61, "duration": 3, "velocity": 81}, {"time": 3282, "pitch": 59, "duration": 10, "velocity": 78}, {"time": 3294, "pitch": 61, "duration": 19, "velocity": 78}, {"time": 3594, "pitch": 68, "duration": 6, "velocity": 76}, {"time": 3600, "pitch": 66, "duration": 7, "velocity": 64}, {"time": 3606, "pitch": 63, "duration": 44, "velocity": 67}, {"time": 3654, "pitch": 59, "duration": 12, "velocity": 64}, {"time": 3666, "pitch": 61, "duration": 6, "velocity": 68}, {"time": 3672, "pitch": 59, "duration": 6, "velocity": 64}, {"time": 3678, "pitch": 61, "duration": 18, "velocity": 69}, {"time": 3702, "pitch": 68, "duration": 37, "velocity": 69}, {"time": 3738, "pitch": 66, "duration": 10, "velocity": 70}, {"time": 3750, "pitch": 68, "duration": 24, "velocity": 69}, {"time": 3774, "pitch": 66, "duration": 20, "velocity": 69}, {"time": 3798, "pitch": 71, "duration": 36, "velocity": 68}, {"time": 3834, "pitch": 68, "duration": 7, "velocity": 64}, {"time": 3840, "pitch": 71, "duration": 8, "velocity": 69}, {"time": 3846, "pitch": 73, "duration": 9, "velocity": 76}, {"time": 3858, "pitch": 73, "duration": 6, "velocity": 78}, {"time": 3864, "pitch": 71, "duration": 7, "velocity": 63}, {"time": 3870, "pitch": 73, "duration": 21, "velocity": 74}, {"time": 3894, "pitch": 71, "duration": 36, "velocity": 70}, {"time": 3930, "pitch": 68, "duration": 8, "velocity": 64}, {"time": 3936, "pitch": 71, "duration": 7, "velocity": 66}, {"time": 3942, "pitch": 73, "duration": 22, "velocity": 76}, {"time": 3966, "pitch": 71, "duration": 22, "velocity": 65}, {"time": 3966, "pitch": 75, "duration": 21, "velocity": 75}, {"time": 3990, "pitch": 71, "duration": 35, "velocity": 75}, {"time": 4026, "pitch": 68, "duration": 7, "velocity": 68}, {"time": 4032, "pitch": 71, "duration": 7, "velocity": 75}, {"time": 4038, "pitch": 73, "duration": 9, "velocity": 76}, {"time": 4050, "pitch": 73, "duration": 6, "velocity": 72}, {"time": 4056, "pitch": 71, "duration": 7, "velocity": 67}, {"time": 4062, "pitch": 73, "duration": 20, "velocity": 76}, {"time": 4086, "pitch": 68, "duration": 7, "velocity": 83}, {"time": 4098, "pitch": 68, "duration": 3, "velocity": 83}, {"time": 4104, "pitch": 68, "duration": 3, "velocity": 79}, {"time": 4110, "pitch": 73, "duration": 8, "velocity": 85}, {"time": 4122, "pitch": 73, "duration": 4, "velocity": 87}, {"time": 4128, "pitch": 71, "duration": 3, "velocity": 80}, {"time": 4134, "pitch": 68, "duration": 3, "velocity": 82}, {"time": 4140, "pitch": 71, "duration": 3, "velocity": 82}, {"time": 4146, "pitch": 68, "duration": 3, "velocity": 80}, {"time": 4152, "pitch": 71, "duration": 3, "velocity": 81}, {"time": 4158, "pitch": 73, "duration": 20, "velocity": 90}, {"time": 4182, "pitch": 68, "duration": 8, "velocity": 81}, {"time": 4194, "pitch": 68, "duration": 3, "velocity": 83}, {"time": 4200, "pitch": 68, "duration": 4, "velocity": 78}, {"time": 4206, "pitch": 73, "duration": 9, "velocity": 85}, {"time": 4218, "pitch": 73, "duration": 4, "velocity": 83}, {"time": 4224, "pitch": 71, "duration": 3, "velocity": 81}, {"time": 4230, "pitch": 68, "duration": 3, "velocity": 80}, {"time": 4236, "pitch": 71, "duration": 3, "velocity": 78}, {"time": 4242, "pitch": 68, "duration": 2, "velocity": 80}, {"time": 4248, "pitch": 66, "duration": 3, "velocity": 77}, {"time": 4254, "pitch": 68, "duration": 19, "velocity": 80}, {"time": 4278, "pitch": 68, "duration": 34, "velocity": 70}, {"time": 4314, "pitch": 66, "duration": 6, "velocity": 64}, {"time": 4320, "pitch": 68, "duration": 6, "velocity": 66}, {"time": 4326, "pitch": 64, "duration": 13, "velocity": 69}, {"time": 4338, "pitch": 66, "duration": 6, "velocity": 68}, {"time": 4344, "pitch": 68, "duration": 7, "velocity": 66}, {"time": 4350, "pitch": 66, "duration": 21, "velocity": 66}, {"time": 4374, "pitch": 68, "duration": 32, "velocity": 64}, {"time": 4410, "pitch": 68, "duration": 4, "velocity": 76}, {"time": 4416, "pitch": 71, "duration": 5, "velocity": 70}, {"time": 4422, "pitch": 73, "duration": 9, "velocity": 76}, {"time": 4434, "pitch": 73, "duration": 5, "velocity": 77}, {"time": 4440, "pitch": 71, "duration": 7, "velocity": 68}, {"time": 4446, "pitch": 73, "duration": 20, "velocity": 77}, {"time": 4470, "pitch": 68, "duration": 7, "velocity": 83}, {"time": 4482, "pitch": 68, "duration": 3, "velocity": 83}, {"time": 4488, "pitch": 68, "duration": 3, "velocity": 79}, {"time": 4494, "pitch": 73, "duration": 8, "velocity": 85}, {"time": 4506, "pitch": 73, "duration": 4, "velocity": 87}, {"time": 4512, "pitch": 71, "duration": 3, "velocity": 80}, {"time": 4518, "pitch": 68, "duration": 3, "velocity": 82}, {"time": 4524, "pitch": 71, "duration": 3, "velocity": 82}, {"time": 4530, "pitch": 68, "duration": 3, "velocity": 80}, {"time": 4536, "pitch": 71, "duration": 3, "velocity": 81}, {"time": 4542, "pitch": 73, "duration": 20, "velocity": 90}, {"time": 4566, "pitch": 68, "duration": 8, "velocity": 79}, {"time": 4578, "pitch": 68, "duration": 4, "velocity": 81}, {"time": 4584, "pitch": 71, "duration": 4, "velocity": 78}, {"time": 4590, "pitch": 68, "duration": 8, "velocity": 81}, {"time": 4602, "pitch": 66, "duration": 3, "velocity": 78}, {"time": 4608, "pitch": 68, "duration": 3, "velocity": 78}, {"time": 4614, "pitch": 64, "duration": 3, "velocity": 77}, {"time": 4620, "pitch": 61, "duration": 3, "velocity": 81}, {"time": 4626, "pitch": 59, "duration": 10, "velocity": 78}, {"time": 4638, "pitch": 61, "duration": 19, "velocity": 78}, {"time": 4662, "pitch": 68, "duration": 34, "velocity": 70}, {"time": 4698, "pitch": 66, "duration": 6, "velocity": 64}, {"time": 4704, "pitch": 68, "duration": 6, "velocity": 66}, {"time": 4710, "pitch": 64, "duration": 13, "velocity": 69}, {"time": 4722, "pitch": 66, "duration": 6, "velocity": 68}, {"time": 4728, "pitch": 68, "duration": 7, "velocity": 66}, {"time": 4734, "pitch": 66, "duration": 21, "velocity": 66}, {"time": 4758, "pitch": 68, "duration": 32, "velocity": 64}, {"time": 4794, "pitch": 68, "duration": 4, "velocity": 76}, {"time": 4800, "pitch": 71, "duration": 5, "velocity": 70}, {"time": 4806, "pitch": 73, "duration": 9, "velocity": 76}, {"time": 4818, "pitch": 73, "duration": 5, "velocity": 77}, {"time": 4824, "pitch": 71, "duration": 7, "velocity": 68}, {"time": 4830, "pitch": 73, "duration": 20, "velocity": 77}, {"time": 4854, "pitch": 68, "duration": 7, "velocity": 83}, {"time": 4866, "pitch": 68, "duration": 3, "velocity": 83}, {"time": 4872, "pitch": 68, "duration": 3, "velocity": 79}, {"time": 4878, "pitch": 73, "duration": 8, "velocity": 85}, {"time": 4890, "pitch": 73, "duration": 4, "velocity": 87}, {"time": 4896, "pitch": 71, "duration": 3, "velocity": 80}, {"time": 4902, "pitch": 68, "duration": 3, "velocity": 82}, {"time": 4908, "pitch": 71, "duration": 3, "velocity": 82}, {"time": 4914, "pitch": 68, "duration": 3, "velocity": 80}, {"time": 4920, "pitch": 71, "duration": 3, "velocity": 81}, {"time": 4926, "pitch": 73, "duration": 20, "velocity": 90}, {"time": 4950, "pitch": 68, "duration": 8, "velocity": 81}, {"time": 4962, "pitch": 68, "duration": 3, "velocity": 83}, {"time": 4968, "pitch": 68, "duration": 4, "velocity": 78}, {"time": 4974, "pitch": 73, "duration": 9, "velocity": 85}, {"time": 4986, "pitch": 73, "duration": 4, "velocity": 83}, {"time": 4992, "pitch": 71, "duration": 3, "velocity": 81}, {"time": 4998, "pitch": 68, "duration": 3, "velocity": 80}, {"time": 5004, "pitch": 71, "duration": 3, "velocity": 78}, {"time": 5010, "pitch": 68, "duration": 2, "velocity": 80}, {"time": 5016, "pitch": 66, "duration": 3, "velocity": 77}, {"time": 5022, "pitch": 68, "duration": 19, "velocity": 80}, {"time": 5046, "pitch": 71, "duration": 36, "velocity": 70}, {"time": 5082, "pitch": 68, "duration": 8, "velocity": 64}, {"time": 5088, "pitch": 71, "duration": 7, "velocity": 66}, {"time": 5094, "pitch": 73, "duration": 22, "velocity": 76}, {"time": 5118, "pitch": 71, "duration": 22, "velocity": 65}, {"time": 5118, "pitch": 75, "duration": 21, "velocity": 75}, {"time": 5142, "pitch": 71, "duration": 35, "velocity": 75}, {"time": 5178, "pitch": 68, "duration": 7, "velocity": 68}, {"time": 5184, "pitch": 71, "duration": 7, "velocity": 75}, {"time": 5190, "pitch": 73, "duration": 9, "velocity": 76}, {"time": 5202, "pitch": 73, "duration": 6, "velocity": 72}, {"time": 5208, "pitch": 71, "duration": 7, "velocity": 67}, {"time": 5214, "pitch": 73, "duration": 20, "velocity": 76}, {"time": 5238, "pitch": 68, "duration": 7, "velocity": 83}, {"time": 5250, "pitch": 68, "duration": 3, "velocity": 83}, {"time": 5256, "pitch": 68, "duration": 3, "velocity": 79}, {"time": 5262, "pitch": 73, "duration": 8, "velocity": 85}, {"time": 5274, "pitch": 73, "duration": 4, "velocity": 87}, {"time": 5280, "pitch": 71, "duration": 3, "velocity": 80}, {"time": 5286, "pitch": 68, "duration": 3, "velocity": 82}, {"time": 5292, "pitch": 71, "duration": 3, "velocity": 82}, {"time": 5298, "pitch": 68, "duration": 3, "velocity": 80}, {"time": 5304, "pitch": 71, "duration": 3, "velocity": 81}, {"time": 5310, "pitch": 73, "duration": 20, "velocity": 90}, {"time": 5334, "pitch": 68, "duration": 8, "velocity": 79}, {"time": 5346, "pitch": 68, "duration": 4, "velocity": 81}, {"time": 5352, "pitch": 71, "duration": 4, "velocity": 78}, {"time": 5358, "pitch": 68, "duration": 8, "velocity": 81}, {"time": 5370, "pitch": 66, "duration": 3, "velocity": 78}, {"time": 5376, "pitch": 68, "duration": 3, "velocity": 78}, {"time": 5382, "pitch": 64, "duration": 3, "velocity": 77}, {"time": 5388, "pitch": 61, "duration": 3, "velocity": 81}, {"time": 5394, "pitch": 59, "duration": 10, "velocity": 78}, {"time": 5406, "pitch": 61, "duration": 19, "velocity": 78}, {"time": 5430, "pitch": 68, "duration": 34, "velocity": 70}, {"time": 5466, "pitch": 66, "duration": 6, "velocity": 64}, {"time": 5472, "pitch": 68, "duration": 6, "velocity": 66}, {"time": 5478, "pitch": 64, "duration": 13, "velocity": 69}, {"time": 5490, "pitch": 66, "duration": 6, "velocity": 68}, {"time": 5496, "pitch": 68, "duration": 7, "velocity": 66}, {"time": 5502, "pitch": 66, "duration": 21, "velocity": 66}, {"time": 5526, "pitch": 68, "duration": 32, "velocity": 64}, {"time": 5562, "pitch": 68, "duration": 4, "velocity": 76}, {"time": 5568, "pitch": 71, "duration": 5, "velocity": 70}, {"time": 5574, "pitch": 73, "duration": 9, "velocity": 76}, {"time": 5586, "pitch": 73, "duration": 5, "velocity": 77}, {"time": 5592, "pitch": 71, "duration": 7, "velocity": 68}, {"time": 5598, "pitch": 73, "duration": 20, "velocity": 77}, {"time": 5622, "pitch": 68, "duration": 7, "velocity": 83}, {"time": 5634, "pitch": 68, "duration": 3, "velocity": 83}, {"time": 5640, "pitch": 68, "duration": 3, "velocity": 79}, {"time": 5646, "pitch": 73, "duration": 8, "velocity": 85}, {"time": 5658, "pitch": 73, "duration": 4, "velocity": 87}, {"time": 5664, "pitch": 71, "duration": 3, "velocity": 80}, {"time": 5670, "pitch": 68, "duration": 3, "velocity": 82}, {"time": 5676, "pitch": 71, "duration": 3, "velocity": 82}, {"time": 5682, "pitch": 68, "duration": 3, "velocity": 80}, {"time": 5688, "pitch": 71, "duration": 3, "velocity": 81}, {"time": 5694, "pitch": 73, "duration": 20, "velocity": 90}, {"time": 5718, "pitch": 68, "duration": 8, "velocity": 79}, {"time": 5730, "pitch": 68, "duration": 4, "velocity": 81}, {"time": 5736, "pitch": 71, "duration": 4, "velocity": 78}, {"time": 5742, "pitch": 68, "duration": 8, "velocity": 81}, {"time": 5754, "pitch": 66, "duration": 3, "velocity": 78}, {"time": 5760, "pitch": 68, "duration": 3, "velocity": 78}, {"time": 5766, "pitch": 64, "duration": 3, "velocity": 77}, {"time": 5772, "pitch": 61, "duration": 3, "velocity": 81}, {"time": 5778, "pitch": 59, "duration": 10, "velocity": 78}, {"time": 5790, "pitch": 61, "duration": 19, "velocity": 78}]}, {"program": 0, "is_drum": false, "name": "PIANO", "notes": [{"time": 54, "pitch": 49, "duration": 19, "velocity": 83}, {"time": 54, "pitch": 56, "duration": 8, "velocity": 70}, {"time": 54, "pitch": 61, "duration": 8, "velocity": 73}, {"time": 66, "pitch": 56, "duration": 2, "velocity": 69}, {"time": 66, "pitch": 61, "duration": 3, "velocity": 76}, {"time": 66, "pitch": 64, "duration": 3, "velocity": 75}, {"time": 72, "pitch": 56, "duration": 7, "velocity": 75}, {"time": 72, "pitch": 61, "duration": 8, "velocity": 78}, {"time": 72, "pitch": 64, "duration": 8, "velocity": 78}, {"time": 78, "pitch": 49, "duration": 16, "velocity": 74}, {"time": 84, "pitch": 56, "duration": 3, "velocity": 71}, {"time": 90, "pitch": 56, "duration": 3, "velocity": 76}, {"time": 90, "pitch": 61, "duration": 4, "velocity": 78}, {"time": 90, "pitch": 64, "duration": 10, "velocity": 77}, {"time": 96, "pitch": 56, "duration": 4, "velocity": 77}, {"time": 96, "pitch": 61, "duration": 3, "velocity": 51}, {"time": 102, "pitch": 49, "duration": 19, "velocity": 79}, {"time": 102, "pitch": 56, "duration": 8, "velocity": 75}, {"time": 102, "pitch": 61, "duration": 8, "velocity": 76}, {"time": 114, "pitch": 56, "duration": 3, "velocity": 76}, {"time": 114, "pitch": 61, "duration": 2, "velocity": 77}, {"time": 114, "pitch": 64, "duration": 2, "velocity": 77}, {"time": 120, "pitch": 56, "duration": 8, "velocity": 76}, {"time": 120, "pitch": 61, "duration": 8, "velocity": 78}, {"time": 120, "pitch": 64, "duration": 8, "velocity": 76}, {"time": 126, "pitch": 44, "duration": 14, "velocity": 77}, {"time": 132, "pitch": 56, "duration": 3, "velocity": 70}, {"time": 138, "pitch": 56, "duration": 3, "velocity": 78}, {"time": 138, "pitch": 61, "duration": 4, "velocity": 80}, {"time": 138, "pitch": 64, "duration": 12, "velocity": 78}, {"time": 144, "pitch": 56, "duration": 7, "velocity": 76}, {"time": 144, "pitch": 61, "duration": 6, "velocity": 62}, {"time": 150, "pitch": 49, "duration": 24, "velocity": 82}, {"time": 162, "pitch": 56, "duration": 3, "velocity": 75}, {"time": 162, "pitch": 61, "duration": 4, "velocity": 80}, {"time": 162, "pitch": 64, "duration": 14, "velocity": 77}, {"time": 168, "pitch": 56, "duration": 7, "velocity": 76}, {"time": 168, "pitch": 61, "duration": 8, "velocity": 66}, {"time": 174, "pitch": 44, "duration": 18, "velocity": 77}, {"time": 180, "pitch": 56, "duration": 3, "velocity": 71}, {"time": 186, "pitch": 56, "duration": 2, "velocity": 71}, {"time": 186, "pitch": 61, "duration": 3, "velocity": 76}, {"time": 186, "pitch": 64, "duration": 4, "velocity": 73}, {"time": 192, "pitch": 56, "duration": 10, "velocity": 77}, {"time": 192, "pitch": 61, "duration": 10, "velocity": 69}, {"time": 192, "pitch": 64, "duration": 6, "velocity": 64}, {"time": 198, "pitch": 49, "duration": 24, "velocity": 80}, {"time": 210, "pitch": 56, "duration": 2, "velocity": 72}, {"time": 210, "pitch": 61, "duration": 2, "velocity": 76}, {"time": 210, "pitch": 64, "duration": 2, "velocity": 76}, {"time": 216, "pitch": 56, "duration": 7, "velocity": 71}, {"time": 216, "pitch": 61, "duration": 8, "velocity": 77}, {"time": 216, "pitch": 64, "duration": 8, "velocity": 76}, {"time": 222, "pitch": 44, "duration": 15, "velocity": 76}, {"time": 228, "pitch": 56, "duration": 2, "velocity": 73}, {"time": 234, "pitch": 56, "duration": 5, "velocity": 77}, {"time": 234, "pitch": 61, "duration": 5, "velocity": 80}, {"time": 234, "pitch": 64, "duration": 5, "velocity": 77}, {"time": 246, "pitch": 49, "duration": 23, "velocity": 78}, {"time": 246, "pitch": 56, "duration": 6, "velocity": 72}, {"time": 246, "pitch": 61, "duration": 7, "velocity": 74}, {"time": 258, "pitch": 56, "duration": 2, "velocity": 75}, {"time": 258, "pitch": 61, "duration": 2, "velocity": 78}, {"time": 258, "pitch": 64, "duration": 2, "velocity": 79}, {"time": 264, "pitch": 56, "duration": 7, "velocity": 76}, {"time": 264, "pitch": 61, "duration": 8, "velocity": 80}, {"time": 264, "pitch": 64, "duration": 8, "velocity": 78}, {"time": 270, "pitch": 44, "duration": 19, "velocity": 77}, {"time": 276, "pitch": 56, "duration": 2, "velocity": 71}, {"time": 282, "pitch": 56, "duration": 2, "velocity": 78}, {"time": 282, "pitch": 61, "duration": 2, "velocity": 77}, {"time": 282, "pitch": 64, "duration": 3, "velocity": 77}, {"time": 288, "pitch": 56, "duration": 2, "velocity": 77}, {"time": 294, "pitch": 49, "duration": 22, "velocity": 70}, {"time": 294, "pitch": 56, "duration": 6, "velocity": 68}, {"time": 294, "pitch": 61, "duration": 6, "velocity": 75}, {"time": 306, "pitch": 61, "duration": 2, "velocity": 76}, {"time": 306, "pitch": 64, "duration": 2, "velocity": 77}, {"time": 312, "pitch": 61, "duration": 7, "velocity": 78}, {"time": 312, "pitch": 64, "duration": 6, "velocity": 80}, {"time": 318, "pitch": 44, "duration": 14, "velocity": 78}, {"time": 324, "pitch": 56, "duration": 2, "velocity": 70}, {"time": 330, "pitch": 61, "duration": 4, "velocity": 79}, {"time": 330, "pitch": 64, "duration": 5, "velocity": 87}, {"time": 336, "pitch": 56, "duration": 4, "velocity": 78}, {"time": 336, "pitch": 61, "duration": 2, "velocity": 48}, {"time": 342, "pitch": 49, "duration": 22, "velocity": 81}, {"time": 342, "pitch": 56, "duration": 6, "velocity": 77}, {"time": 342, "pitch": 61, "duration": 6, "velocity": 76}, {"time": 354, "pitch": 56, "duration": 2, "velocity": 76}, {"time": 354, "pitch": 64, "duration": 3, "velocity": 80}, {"time": 360, "pitch": 56, "duration": 8, "velocity": 78}, {"time": 360, "pitch": 64, "duration": 12, "velocity": 78}, {"time": 366, "pitch": 44, "duration": 18, "velocity": 78}, {"time": 372, "pitch": 56, "duration": 3, "velocity": 71}, {"time": 378, "pitch": 61, "duration": 10, "velocity": 79}, {"time": 378, "pitch": 64, "duration": 9, "velocity": 77}, {"time": 384, "pitch": 56, "duration": 6, "velocity": 71}, {"time": 390, "pitch": 49, "duration": 24, "velocity": 78}, {"time": 396, "pitch": 56, "duration": 3, "velocity": 66}, {"time": 402, "pitch": 61, "duration": 2, "velocity": 77}, {"time": 402, "pitch": 64, "duration": 3, "velocity": 77}, {"time": 408, "pitch": 56, "duration": 7, "velocity": 76}, {"time": 408, "pitch": 61, "duration": 8, "velocity": 78}, {"time": 408, "pitch": 64, "duration": 8, "velocity": 78}, {"time": 414, "pitch": 44, "duration": 21, "velocity": 76}, {"time": 420, "pitch": 56, "duration": 3, "velocity": 71}, {"time": 426, "pitch": 56, "duration": 2, "velocity": 76}, {"time": 426, "pitch": 61, "duration": 4, "velocity": 80}, {"time": 426, "pitch": 64, "duration": 5, "velocity": 78}, {"time": 432, "pitch": 56, "duration": 4, "velocity": 81}, {"time": 432, "pitch": 61, "duration": 2, "velocity": 69}, {"time": 432, "pitch": 64, "duration": 1, "velocity": 58}, {"time": 438, "pitch": 49, "duration": 23, "velocity": 77}, {"time": 438, "pitch": 56, "duration": 8, "velocity": 73}, {"time": 438, "pitch": 61, "duration": 8, "velocity": 75}, {"time": 450, "pitch": 56, "duration": 2, "velocity": 77}, {"time": 450, "pitch": 64, "duration": 3, "velocity": 77}, {"time": 456, "pitch": 56, "duration": 9, "velocity": 75}, {"time": 456, "pitch": 61, "duration": 13, "velocity": 82}, {"time": 456, "pitch": 64, "duration": 13, "velocity": 76}, {"time": 462, "pitch": 44, "duration": 17, "velocity": 77}, {"time": 468, "pitch": 56, "duration": 3, "velocity": 77}, {"time": 474, "pitch": 56, "duration": 3, "velocity": 76}, {"time": 474, "pitch": 61, "duration": 15, "velocity": 78}, {"time": 474, "pitch": 64, "duration": 11, "velocity": 79}, {"time": 480, "pitch": 56, "duration": 9, "velocity": 72}, {"time": 486, "pitch": 49, "duration": 22, "velocity": 80}, {"time": 498, "pitch": 56, "duration": 2, "velocity": 74}, {"time": 498, "pitch": 61, "duration": 3, "velocity": 78}, {"time": 498, "pitch": 64, "duration": 3, "velocity": 76}, {"time": 504, "pitch": 56, "duration": 7, "velocity": 74}, {"time": 504, "pitch": 61, "duration": 9, "velocity": 77}, {"time": 504, "pitch": 64, "duration": 9, "velocity": 77}, {"time": 510, "pitch": 44, "duration": 19, "velocity": 77}, {"time": 516, "pitch": 56, "duration": 2, "velocity": 72}, {"time": 522, "pitch": 56, "duration": 2, "velocity": 76}, {"time": 522, "pitch": 61, "duration": 3, "velocity": 79}, {"time": 522, "pitch": 64, "duration": 5, "velocity": 77}, {"time": 528, "pitch": 56, "duration": 2, "velocity": 76}, {"time": 534, "pitch": 44, "duration": 21, "velocity": 79}, {"time": 534, "pitch": 56, "duration": 7, "velocity": 76}, {"time": 534, "pitch": 59, "duration": 6, "velocity": 76}, {"time": 546, "pitch": 56, "duration": 2, "velocity": 76}, {"time": 546, "pitch": 59, "duration": 2, "velocity": 83}, {"time": 546, "pitch": 63, "duration": 2, "velocity": 80}, {"time": 552, "pitch": 56, "duration": 8, "velocity": 68}, {"time": 552, "pitch": 59, "duration": 9, "velocity": 76}, {"time": 552, "pitch": 63, "duration": 10, "velocity": 76}, {"time": 558, "pitch": 51, "duration": 20, "velocity": 75}, {"time": 564, "pitch": 56, "duration": 2, "velocity": 70}, {"time": 564, "pitch": 59, "duration": 1, "velocity": 50}, {"time": 570, "pitch": 56, "duration": 2, "velocity": 76}, {"time": 570, "pitch": 59, "duration": 4, "velocity": 77}, {"time": 570, "pitch": 63, "duration": 7, "velocity": 77}, {"time": 576, "pitch": 56, "duration": 4, "velocity": 68}, {"time": 582, "pitch": 49, "duration": 7, "velocity": 80}, {"time": 582, "pitch": 56, "duration": 2, "velocity": 68}, {"time": 582, "pitch": 61, "duration": 7, "velocity": 76}, {"time": 582, "pitch": 64, "duration": 8, "velocity": 74}, {"time": 588, "pitch": 56, "duration": 3, "velocity": 76}, {"time": 594, "pitch": 47, "duration": 9, "velocity": 80}, {"time": 594, "pitch": 54, "duration": 7, "velocity": 78}, {"time": 594, "pitch": 59, "duration": 8, "velocity": 76}, {"time": 606, "pitch": 49, "duration": 23, "velocity": 90}, {"time": 606, "pitch": 56, "duration": 7, "velocity": 77}, {"time": 606, "pitch": 61, "duration": 8, "velocity": 77}, {"time": 618, "pitch": 56, "duration": 2, "velocity": 71}, {"time": 618, "pitch": 61, "duration": 11, "velocity": 75}, {"time": 618, "pitch": 64, "duration": 11, "velocity": 74}, {"time": 624, "pitch": 56, "duration": 5, "velocity": 51}, {"time": 630, "pitch": 49, "duration": 21, "velocity": 77}, {"time": 630, "pitch": 56, "duration": 8, "velocity": 68}, {"time": 630, "pitch": 61, "duration": 7, "velocity": 70}, {"time": 642, "pitch": 56, "duration": 2, "velocity": 72}, {"time": 642, "pitch": 64, "duration": 17, "velocity": 74}, {"time": 648, "pitch": 56, "duration": 8, "velocity": 71}, {"time": 654, "pitch": 49, "duration": 18, "velocity": 71}, {"time": 660, "pitch": 56, "duration": 2, "velocity": 60}, {"time": 666, "pitch": 56, "duration": 2, "velocity": 73}, {"time": 666, "pitch": 61, "duration": 8, "velocity": 76}, {"time": 672, "pitch": 56, "duration": 8, "velocity": 71}, {"time": 678, "pitch": 49, "duration": 43, "velocity": 70}, {"time": 690, "pitch": 56, "duration": 2, "velocity": 73}, {"time": 690, "pitch": 64, "duration": 4, "velocity": 72}, {"time": 696, "pitch": 56, "duration": 3, "velocity": 73}, {"time": 702, "pitch": 61, "duration": 3, "velocity": 70}, {"time": 708, "pitch": 56, "duration": 2, "velocity": 67}, {"time": 714, "pitch": 56, "duration": 2, "velocity": 78}, {"time": 714, "pitch": 64, "duration": 3, "velocity": 78}, {"time": 720, "pitch": 56, "duration": 2, "velocity": 68}, {"time": 726, "pitch": 49, "duration": 21, "velocity": 72}, {"time": 726, "pitch": 56, "duration": 5, "velocity": 61}, {"time": 726, "pitch": 61, "duration": 6, "velocity": 69}, {"time": 738, "pitch": 56, "duration": 2, "velocity": 76}, {"time": 738, "pitch": 64, "duration": 15, "velocity": 76}, {"time": 744, "pitch": 56, "duration": 7, "velocity": 72}, {"time": 750, "pitch": 49, "duration": 19, "velocity": 69}, {"time": 756, "pitch": 56, "duration": 3, "velocity": 70}, {"time": 762, "pitch": 61, "duration": 14, "velocity": 77}, {"time": 762, "pitch": 64, "duration": 13, "velocity": 78}, {"time": 768, "pitch": 56, "duration": 8, "velocity": 78}, {"time": 774, "pitch": 49, "duration": 15, "velocity": 79}, {"time": 786, "pitch": 61, "duration": 11, "velocity": 78}, {"time": 792, "pitch": 56, "duration": 6, "velocity": 73}, {"time": 798, "pitch": 42, "duration": 20, "velocity": 77}, {"time": 804, "pitch": 49, "duration": 12, "velocity": 69}, {"time": 810, "pitch": 54, "duration": 2, "velocity": 70}, {"time": 810, "pitch": 57, "duration": 11, "velocity": 71}, {"time": 810, "pitch": 61, "duration": 14, "velocity": 76}, {"time": 816, "pitch": 54, "duration": 6, "velocity": 68}, {"time": 822, "pitch": 44, "duration": 19, "velocity": 77}, {"time": 834, "pitch": 56, "duration": 2, "velocity": 71}, {"time": 834, "pitch": 59, "duration": 4, "velocity": 76}, {"time": 834, "pitch": 63, "duration": 5, "velocity": 78}, {"time": 840, "pitch": 56, "duration": 7, "velocity": 74}, {"time": 840, "pitch": 63, "duration": 2, "velocity": 59}, {"time": 846, "pitch": 51, "duration": 20, "velocity": 67}, {"time": 852, "pitch": 56, "duration": 2, "velocity": 71}, {"time": 858, "pitch": 56, "duration": 2, "velocity": 69}, {"time": 858, "pitch": 59, "duration": 7, "velocity": 70}, {"time": 858, "pitch": 63, "duration": 9, "velocity": 76}, {"time": 864, "pitch": 56, "duration": 5, "velocity": 72}, {"time": 870, "pitch": 45, "duration": 16, "velocity": 76}, {"time": 870, "pitch": 52, "duration": 8, "velocity": 69}, {"time": 870, "pitch": 57, "duration": 9, "velocity": 71}, {"time": 882, "pitch": 57, "duration": 3, "velocity": 70}, {"time": 882, "pitch": 61, "duration": 15, "velocity": 77}, {"time": 888, "pitch": 52, "duration": 8, "velocity": 71}, {"time": 888, "pitch": 57, "duration": 2, "velocity": 63}, {"time": 894, "pitch": 40, "duration": 15, "velocity": 77}, {"time": 900, "pitch": 47, "duration": 7, "velocity": 67}, {"time": 906, "pitch": 56, "duration": 7, "velocity": 76}, {"time": 906, "pitch": 59, "duration": 8, "velocity": 76}, {"time": 912, "pitch": 52, "duration": 3, "velocity": 71}, {"time": 918, "pitch": 44, "duration": 39, "velocity": 76}, {"time": 918, "pitch": 56, "duration": 8, "velocity": 69}, {"time": 918, "pitch": 59, "duration": 8, "velocity": 76}, {"time": 930, "pitch": 56, "duration": 3, "velocity": 77}, {"time": 930, "pitch": 63, "duration": 5, "velocity": 80}, {"time": 936, "pitch": 56, "duration": 7, "velocity": 77}, {"time": 936, "pitch": 63, "duration": 1, "velocity": 63}, {"time": 942, "pitch": 51, "duration": 13, "velocity": 69}, {"time": 948, "pitch": 56, "duration": 2, "velocity": 71}, {"time": 954, "pitch": 56, "duration": 3, "velocity": 76}, {"time": 954, "pitch": 59, "duration": 7, "velocity": 78}, {"time": 954, "pitch": 63, "duration": 8, "velocity": 78}, {"time": 960, "pitch": 56, "duration": 4, "velocity": 72}, {"time": 966, "pitch": 37, "duration": 47, "velocity": 77}, {"time": 966, "pitch": 56, "duration": 7, "velocity": 68}, {"time": 966, "pitch": 61, "duration": 7, "velocity": 71}, {"time": 978, "pitch": 56, "duration": 2, "velocity": 68}, {"time": 978, "pitch": 61, "duration": 3, "velocity": 71}, {"time": 978, "pitch": 64, "duration": 3, "velocity": 73}, {"time": 984, "pitch": 56, "duration": 6, "velocity": 71}, {"time": 984, "pitch": 61, "duration": 7, "velocity": 75}, {"time": 984, "pitch": 64, "duration": 7, "velocity": 77}, {"time": 990, "pitch": 44, "duration": 23, "velocity": 70}, {"time": 996, "pitch": 56, "duration": 2, "velocity": 64}, {"time": 1002, "pitch": 56, "duration": 2, "velocity": 72}, {"time": 1002, "pitch": 61, "duration": 10, "velocity": 77}, {"time": 1002, "pitch": 64, "duration": 10, "velocity": 76}, {"time": 1008, "pitch": 56, "duration": 5, "velocity": 71}, {"time": 1014, "pitch": 44, "duration": 40, "velocity": 77}, {"time": 1014, "pitch": 56, "duration": 8, "velocity": 69}, {"time": 1014, "pitch": 63, "duration": 7, "velocity": 76}, {"time": 1020, "pitch": 51, "duration": 14, "velocity": 65}, {"time": 1026, "pitch": 56, "duration": 2, "velocity": 68}, {"time": 1026, "pitch": 59, "duration": 2, "velocity": 75}, {"time": 1032, "pitch": 56, "duration": 8, "velocity": 77}, {"time": 1032, "pitch": 59, "duration": 13, "velocity": 81}, {"time": 1038, "pitch": 51, "duration": 14, "velocity": 76}, {"time": 1044, "pitch": 56, "duration": 2, "velocity": 65}, {"time": 1050, "pitch": 56, "duration": 2, "velocity": 71}, {"time": 1050, "pitch": 59, "duration": 6, "velocity": 77}, {"time": 1050, "pitch": 63, "duration": 6, "velocity": 77}, {"time": 1056, "pitch": 56, "duration": 3, "velocity": 70}, {"time": 1062, "pitch": 45, "duration": 15, "velocity": 76}, {"time": 1062, "pitch": 57, "duration": 8, "velocity": 69}, {"time": 1062, "pitch": 61, "duration": 9, "velocity": 72}, {"time": 1068, "pitch": 52, "duration": 6, "velocity": 63}, {"time": 1074, "pitch": 57, "duration": 3, "velocity": 72}, {"time": 1074, "pitch": 61, "duration": 8, "velocity": 76}, {"time": 1074, "pitch": 64, "duration": 7, "velocity": 71}, {"time": 1080, "pitch": 57, "duration": 2, "velocity": 63}, {"time": 1086, "pitch": 47, "duration": 20, "velocity": 77}, {"time": 1086, "pitch": 54, "duration": 3, "velocity": 69}, {"time": 1086, "pitch": 59, "duration": 5, "velocity": 70}, {"time": 1092, "pitch": 54, "duration": 3, "velocity": 77}, {"time": 1092, "pitch": 59, "duration": 1, "velocity": 43}, {"time": 1098, "pitch": 54, "duration": 2, "velocity": 77}, {"time": 1098, "pitch": 59, "duration": 3, "velocity": 78}, {"time": 1098, "pitch": 63, "duration": 4, "velocity": 80}, {"time": 1110, "pitch": 44, "duration": 26, "velocity": 78}, {"time": 1110, "pitch": 56, "duration": 7, "velocity": 61}, {"time": 1110, "pitch": 59, "duration": 7, "velocity": 56}, {"time": 1122, "pitch": 56, "duration": 2, "velocity": 75}, {"time": 1122, "pitch": 59, "duration": 2, "velocity": 77}, {"time": 1128, "pitch": 56, "duration": 5, "velocity": 77}, {"time": 1128, "pitch": 59, "duration": 5, "velocity": 81}, {"time": 1134, "pitch": 51, "duration": 7, "velocity": 75}, {"time": 1140, "pitch": 56, "duration": 2, "velocity": 71}, {"time": 1146, "pitch": 56, "duration": 2, "velocity": 72}, {"time": 1146, "pitch": 59, "duration": 4, "velocity": 78}, {"time": 1146, "pitch": 63, "duration": 5, "velocity": 80}, {"time": 1152, "pitch": 56, "duration": 2, "velocity": 68}, {"time": 1158, "pitch": 37, "duration": 49, "velocity": 79}, {"time": 1158, "pitch": 56, "duration": 6, "velocity": 70}, {"time": 1158, "pitch": 61, "duration": 6, "velocity": 73}, {"time": 1170, "pitch": 56, "duration": 2, "velocity": 65}, {"time": 1170, "pitch": 61, "duration": 2, "velocity": 68}, {"time": 1170, "pitch": 64, "duration": 2, "velocity": 71}, {"time": 1176, "pitch": 56, "duration": 6, "velocity": 70}, {"time": 1176, "pitch": 61, "duration": 8, "velocity": 73}, {"time": 1176, "pitch": 64, "duration": 8, "velocity": 72}, {"time": 1182, "pitch": 44, "duration": 24, "velocity": 67}, {"time": 1188, "pitch": 56, "duration": 2, "velocity": 66}, {"time": 1194, "pitch": 56, "duration": 3, "velocity": 73}, {"time": 1194, "pitch": 61, "duration": 11, "velocity": 77}, {"time": 1194, "pitch": 64, "duration": 12, "velocity": 76}, {"time": 1200, "pitch": 56, "duration": 5, "velocity": 70}, {"time": 1206, "pitch": 49, "duration": 21, "velocity": 77}, {"time": 1206, "pitch": 56, "duration": 8, "velocity": 68}, {"time": 1206, "pitch": 61, "duration": 7, "velocity": 70}, {"time": 1218, "pitch": 56, "duration": 2, "velocity": 72}, {"time": 1218, "pitch": 64, "duration": 17, "velocity": 74}, {"time": 1224, "pitch": 56, "duration": 8, "velocity": 71}, {"time": 1230, "pitch": 49, "duration": 18, "velocity": 71}, {"time": 1236, "pitch": 56, "duration": 2, "velocity": 60}, {"time": 1242, "pitch": 56, "duration": 2, "velocity": 73}, {"time": 1242, "pitch": 61, "duration": 8, "velocity": 76}, {"time": 1248, "pitch": 56, "duration": 8, "velocity": 71}, {"time": 1254, "pitch": 49, "duration": 43, "velocity": 70}, {"time": 1266, "pitch": 56, "duration": 2, "velocity": 73}, {"time": 1266, "pitch": 64, "duration": 4, "velocity": 72}, {"time": 1272, "pitch": 56, "duration": 3, "velocity": 73}, {"time": 1278, "pitch": 61, "duration": 3, "velocity": 70}, {"time": 1284, "pitch": 56, "duration": 2, "velocity": 67}, {"time": 1290, "pitch": 56, "duration": 2, "velocity": 78}, {"time": 1290, "pitch": 64, "duration": 3, "velocity": 78}, {"time": 1296, "pitch": 56, "duration": 2, "velocity": 68}, {"time": 1302, "pitch": 49, "duration": 21, "velocity": 72}, {"time": 1302, "pitch": 56, "duration": 5, "velocity": 61}, {"time": 1302, "pitch": 61, "duration": 6, "velocity": 69}, {"time": 1314, "pitch": 56, "duration": 2, "velocity": 76}, {"time": 1314, "pitch": 64, "duration": 15, "velocity": 76}, {"time": 1320, "pitch": 56, "duration": 7, "velocity": 72}, {"time": 1326, "pitch": 49, "duration": 19, "velocity": 69}, {"time": 1332, "pitch": 56, "duration": 3, "velocity": 70}, {"time": 1338, "pitch": 61, "duration": 14, "velocity": 77}, {"time": 1338, "pitch": 64, "duration": 13, "velocity": 78}, {"time": 1344, "pitch": 56, "duration": 8, "velocity": 78}, {"time": 1350, "pitch": 49, "duration": 15, "velocity": 79}, {"time": 1362, "pitch": 61, "duration": 11, "velocity": 78}, {"time": 1368, "pitch": 56, "duration": 6, "velocity": 73}, {"time": 1374, "pitch": 42, "duration": 20, "velocity": 77}, {"time": 1380, "pitch": 49, "duration": 12, "velocity": 69}, {"time": 1386, "pitch": 54, "duration": 2, "velocity": 70}, {"time": 1386, "pitch": 57, "duration": 11, "velocity": 71}, {"time": 1386, "pitch": 61, "duration": 14, "velocity": 76}, {"time": 1392, "pitch": 54, "duration": 6, "velocity": 68}, {"time": 1398, "pitch": 44, "duration": 19, "velocity": 77}, {"time": 1410, "pitch": 56, "duration": 2, "velocity": 71}, {"time": 1410, "pitch": 59, "duration": 4, "velocity": 76}, {"time": 1410, "pitch": 63, "duration": 5, "velocity": 78}, {"time": 1416, "pitch": 56, "duration": 7, "velocity": 74}, {"time": 1416, "pitch": 63, "duration": 2, "velocity": 59}, {"time": 1422, "pitch": 51, "duration": 20, "velocity": 67}, {"time": 1428, "pitch": 56, "duration": 2, "velocity": 71}, {"time": 1434, "pitch": 56, "duration": 2, "velocity": 69}, {"time": 1434, "pitch": 59, "duration": 7, "velocity": 70}, {"time": 1434, "pitch": 63, "duration": 9, "velocity": 76}, {"time": 1440, "pitch": 56, "duration": 5, "velocity": 72}, {"time": 1446, "pitch": 45, "duration": 16, "velocity": 76}, {"time": 1446, "pitch": 52, "duration": 8, "velocity": 69}, {"time": 1446, "pitch": 57, "duration": 9, "velocity": 71}, {"time": 1458, "pitch": 57, "duration": 3, "velocity": 70}, {"time": 1458, "pitch": 61, "duration": 15, "velocity": 77}, {"time": 1464, "pitch": 52, "duration": 8, "velocity": 71}, {"time": 1464, "pitch": 57, "duration": 2, "velocity": 63}, {"time": 1470, "pitch": 40, "duration": 15, "velocity": 77}, {"time": 1476, "pitch": 47, "duration": 7, "velocity": 67}, {"time": 1482, "pitch": 56, "duration": 7, "velocity": 76}, {"time": 1482, "pitch": 59, "duration": 8, "velocity": 76}, {"time": 1488, "pitch": 52, "duration": 3, "velocity": 71}, {"time": 1494, "pitch": 44, "duration": 39, "velocity": 76}, {"time": 1494, "pitch": 56, "duration": 8, "velocity": 69}, {"time": 1494, "pitch": 59, "duration": 8, "velocity": 76}, {"time": 1506, "pitch": 56, "duration": 3, "velocity": 77}, {"time": 1506, "pitch": 63, "duration": 5, "velocity": 80}, {"time": 1512, "pitch": 56, "duration": 7, "velocity": 77}, {"time": 1512, "pitch": 63, "duration": 1, "velocity": 63}, {"time": 1518, "pitch": 51, "duration": 13, "velocity": 69}, {"time": 1524, "pitch": 56, "duration": 2, "velocity": 71}, {"time": 1530, "pitch": 56, "duration": 3, "velocity": 76}, {"time": 1530, "pitch": 59, "duration": 7, "velocity": 78}, {"time": 1530, "pitch": 63, "duration": 8, "velocity": 78}, {"time": 1536, "pitch": 56, "duration": 4, "velocity": 72}, {"time": 1542, "pitch": 37, "duration": 47, "velocity": 77}, {"time": 1542, "pitch": 56, "duration": 7, "velocity": 68}, {"time": 1542, "pitch": 61, "duration": 7, "velocity": 71}, {"time": 1554, "pitch": 56, "duration": 2, "velocity": 68}, {"time": 1554, "pitch": 61, "duration": 3, "velocity": 71}, {"time": 1554, "pitch": 64, "duration": 3, "velocity": 73}, {"time": 1560, "pitch": 56, "duration": 6, "velocity": 71}, {"time": 1560, "pitch": 61, "duration": 7, "velocity": 75}, {"time": 1560, "pitch": 64, "duration": 7, "velocity": 77}, {"time": 1566, "pitch": 44, "duration": 23, "velocity": 70}, {"time": 1572, "pitch": 56, "duration": 2, "velocity": 64}, {"time": 1578, "pitch": 56, "duration": 2, "velocity": 72}, {"time": 1578, "pitch": 61, "duration": 10, "velocity": 77}, {"time": 1578, "pitch": 64, "duration": 10, "velocity": 76}, {"time": 1584, "pitch": 56, "duration": 5, "velocity": 71}, {"time": 1590, "pitch": 44, "duration": 40, "velocity": 77}, {"time": 1590, "pitch": 56, "duration": 8, "velocity": 69}, {"time": 1590, "pitch": 63, "duration": 7, "velocity": 76}, {"time": 1596, "pitch": 51, "duration": 14, "velocity": 65}, {"time": 1602, "pitch": 56, "duration": 2, "velocity": 68}, {"time": 1602, "pitch": 59, "duration": 2, "velocity": 75}, {"time": 1608, "pitch": 56, "duration": 8, "velocity": 77}, {"time": 1608, "pitch": 59, "duration": 13, "velocity": 81}, {"time": 1614, "pitch": 51, "duration": 14, "velocity": 76}, {"time": 1620, "pitch": 56, "duration": 2, "velocity": 65}, {"time": 1626, "pitch": 56, "duration": 2, "velocity": 71}, {"time": 1626, "pitch": 59, "duration": 6, "velocity": 77}, {"time": 1626, "pitch": 63, "duration": 6, "velocity": 77}, {"time": 1632, "pitch": 56, "duration": 3, "velocity": 70}, {"time": 1638, "pitch": 45, "duration": 15, "velocity": 76}, {"time": 1638, "pitch": 57, "duration": 8, "velocity": 69}, {"time": 1638, "pitch": 61, "duration": 9, "velocity": 72}, {"time": 1644, "pitch": 52, "duration": 6, "velocity": 63}, {"time": 1650, "pitch": 57, "duration": 3, "velocity": 72}, {"time": 1650, "pitch": 61, "duration": 8, "velocity": 76}, {"time": 1650, "pitch": 64, "duration": 7, "velocity": 71}, {"time": 1656, "pitch": 57, "duration": 2, "velocity": 63}, {"time": 1662, "pitch": 47, "duration": 20, "velocity": 77}, {"time": 1662, "pitch": 54, "duration": 3, "velocity": 69}, {"time": 1662, "pitch": 59, "duration": 5, "velocity": 70}, {"time": 1668, "pitch": 54, "duration": 3, "velocity": 77}, {"time": 1668, "pitch": 59, "duration": 1, "velocity": 43}, {"time": 1674, "pitch": 54, "duration": 2, "velocity": 77}, {"time": 1674, "pitch": 59, "duration": 3, "velocity": 78}, {"time": 1674, "pitch": 63, "duration": 4, "velocity": 80}, {"time": 1686, "pitch": 44, "duration": 26, "velocity": 78}, {"time": 1686, "pitch": 56, "duration": 7, "velocity": 61}, {"time": 1686, "pitch": 59, "duration": 7, "velocity": 56}, {"time": 1698, "pitch": 56, "duration": 2, "velocity": 75}, {"time": 1698, "pitch": 59, "duration": 2, "velocity": 77}, {"time": 1704, "pitch": 56, "duration": 5, "velocity": 77}, {"time": 1704, "pitch": 59, "duration": 5, "velocity": 81}, {"time": 1710, "pitch": 51, "duration": 7, "velocity": 75}, {"time": 1716, "pitch": 56, "duration": 2, "velocity": 71}, {"time": 1722, "pitch": 56, "duration": 2, "velocity": 72}, {"time": 1722, "pitch": 59, "duration": 4, "velocity": 78}, {"time": 1722, "pitch": 63, "duration": 5, "velocity": 80}, {"time": 1728, "pitch": 56, "duration": 2, "velocity": 68}, {"time": 1734, "pitch": 37, "duration": 49, "velocity": 79}, {"time": 1734, "pitch": 56, "duration": 6, "velocity": 70}, {"time": 1734, "pitch": 61, "duration": 6, "velocity": 73}, {"time": 1746, "pitch": 56, "duration": 2, "velocity": 65}, {"time": 1746, "pitch": 61, "duration": 2, "velocity": 68}, {"time": 1746, "pitch": 64, "duration": 2, "velocity": 71}, {"time": 1752, "pitch": 56, "duration": 6, "velocity": 70}, {"time": 1752, "pitch": 61, "duration": 8, "velocity": 73}, {"time": 1752, "pitch": 64, "duration": 8, "velocity": 72}, {"time": 1758, "pitch": 44, "duration": 24, "velocity": 67}, {"time": 1764, "pitch": 56, "duration": 2, "velocity": 66}, {"time": 1770, "pitch": 56, "duration": 3, "velocity": 73}, {"time": 1770, "pitch": 61, "duration": 11, "velocity": 77}, {"time": 1770, "pitch": 64, "duration": 12, "velocity": 76}, {"time": 1776, "pitch": 56, "duration": 5, "velocity": 70}, {"time": 1782, "pitch": 49, "duration": 21, "velocity": 77}, {"time": 1782, "pitch": 56, "duration": 8, "velocity": 68}, {"time": 1782, "pitch": 61, "duration": 7, "velocity": 70}, {"time": 1794, "pitch": 56, "duration": 2, "velocity": 72}, {"time": 1794, "pitch": 64, "duration": 17, "velocity": 74}, {"time": 1800, "pitch": 56, "duration": 8, "velocity": 71}, {"time": 1806, "pitch": 49, "duration": 18, "velocity": 71}, {"time": 1812, "pitch": 56, "duration": 2, "velocity": 60}, {"time": 1818, "pitch": 56, "duration": 2, "velocity": 73}, {"time": 1818, "pitch": 61, "duration": 8, "velocity": 76}, {"time": 1824, "pitch": 56, "duration": 8, "velocity": 71}, {"time": 1830, "pitch": 49, "duration": 43, "velocity": 70}, {"time": 1842, "pitch": 56, "duration": 2, "velocity": 73}, {"time": 1842, "pitch": 64, "duration": 4, "velocity": 72}, {"time": 1848, "pitch": 56, "duration": 3, "velocity": 73}, {"time": 1854, "pitch": 61, "duration": 3, "velocity": 70}, {"time": 1860, "pitch": 56, "duration": 2, "velocity": 67}, {"time": 1866, "pitch": 56, "duration": 2, "velocity": 78}, {"time": 1866, "pitch": 64, "duration": 3, "velocity": 78}, {"time": 1872, "pitch": 56, "duration": 2, "velocity": 68}, {"time": 1878, "pitch": 49, "duration": 21, "velocity": 72}, {"time": 1878, "pitch": 56, "duration": 5, "velocity": 61}, {"time": 1878, "pitch": 61, "duration": 6, "velocity": 69}, {"time": 1890, "pitch": 56, "duration": 2, "velocity": 76}, {"time": 1890, "pitch": 64, "duration": 15, "velocity": 76}, {"time": 1896, "pitch": 56, "duration": 7, "velocity": 72}, {"time": 1902, "pitch": 49, "duration": 19, "velocity": 69}, {"time": 1908, "pitch": 56, "duration": 3, "velocity": 70}, {"time": 1914, "pitch": 61, "duration": 14, "velocity": 77}, {"time": 1914, "pitch": 64, "duration": 13, "velocity": 78}, {"time": 1920, "pitch": 56, "duration": 8, "velocity": 78}, {"time": 1926, "pitch": 49, "duration": 15, "velocity": 79}, {"time": 1938, "pitch": 61, "duration": 11, "velocity": 78}, {"time": 1944, "pitch": 56, "duration": 6, "velocity": 73}, {"time": 1950, "pitch": 42, "duration": 20, "velocity": 77}, {"time": 1956, "pitch": 49, "duration": 12, "velocity": 69}, {"time": 1962, "pitch": 54, "duration": 2, "velocity": 70}, {"time": 1962, "pitch": 57, "duration": 11, "velocity": 71}, {"time": 1962, "pitch": 61, "duration": 14, "velocity": 76}, {"time": 1968, "pitch": 54, "duration": 6, "velocity": 68}, {"time": 1974, "pitch": 44, "duration": 19, "velocity": 77}, {"time": 1986, "pitch": 56, "duration": 2, "velocity": 71}, {"time": 1986, "pitch": 59, "duration": 4, "velocity": 76}, {"time": 1986, "pitch": 63, "duration": 5, "velocity": 78}, {"time": 1992, "pitch": 56, "duration": 7, "velocity": 74}, {"time": 1992, "pitch": 63, "duration": 2, "velocity": 59}, {"time": 1998, "pitch": 51, "duration": 20, "velocity": 67}, {"time": 2004, "pitch": 56, "duration": 2, "velocity": 71}, {"time": 2010, "pitch": 56, "duration": 2, "velocity": 69}, {"time": 2010, "pitch": 59, "duration": 7, "velocity": 70}, {"time": 2010, "pitch": 63, "duration": 9, "velocity": 76}, {"time": 2016, "pitch": 56, "duration": 5, "velocity": 72}, {"time": 2022, "pitch": 45, "duration": 16, "velocity": 76}, {"time": 2022, "pitch": 52, "duration": 8, "velocity": 69}, {"time": 2022, "pitch": 57, "duration": 9, "velocity": 71}, {"time": 2034, "pitch": 57, "duration": 3, "velocity": 70}, {"time": 2034, "pitch": 61, "duration": 15, "velocity": 77}, {"time": 2040, "pitch": 52, "duration": 8, "velocity": 71}, {"time": 2040, "pitch": 57, "duration": 2, "velocity": 63}, {"time": 2046, "pitch": 40, "duration": 15, "velocity": 77}, {"time": 2052, "pitch": 47, "duration": 7, "velocity": 67}, {"time": 2058, "pitch": 56, "duration": 7, "velocity": 76}, {"time": 2058, "pitch": 59, "duration": 8, "velocity": 76}, {"time": 2064, "pitch": 52, "duration": 3, "velocity": 71}, {"time": 2070, "pitch": 44, "duration": 39, "velocity": 76}, {"time": 2070, "pitch": 56, "duration": 8, "velocity": 69}, {"time": 2070, "pitch": 59, "duration": 8, "velocity": 76}, {"time": 2082, "pitch": 56, "duration": 3, "velocity": 77}, {"time": 2082, "pitch": 63, "duration": 5, "velocity": 80}, {"time": 2088, "pitch": 56, "duration": 7, "velocity": 77}, {"time": 2088, "pitch": 63, "duration": 1, "velocity": 63}, {"time": 2094, "pitch": 51, "duration": 13, "velocity": 69}, {"time": 2100, "pitch": 56, "duration": 2, "velocity": 71}, {"time": 2106, "pitch": 56, "duration": 3, "velocity": 76}, {"time": 2106, "pitch": 59, "duration": 7, "velocity": 78}, {"time": 2106, "pitch": 63, "duration": 8, "velocity": 78}, {"time": 2112, "pitch": 56, "duration": 4, "velocity": 72}, {"time": 2118, "pitch": 37, "duration": 47, "velocity": 77}, {"time": 2118, "pitch": 56, "duration": 7, "velocity": 68}, {"time": 2118, "pitch": 61, "duration": 7, "velocity": 71}, {"time": 2130, "pitch": 56, "duration": 2, "velocity": 68}, {"time": 2130, "pitch": 61, "duration": 3, "velocity": 71}, {"time": 2130, "pitch": 64, "duration": 3, "velocity": 73}, {"time": 2136, "pitch": 56, "duration": 6, "velocity": 71}, {"time": 2136, "pitch": 61, "duration": 7, "velocity": 75}, {"time": 2136, "pitch": 64, "duration": 7, "velocity": 77}, {"time": 2142, "pitch": 44, "duration": 23, "velocity": 70}, {"time": 2148, "pitch": 56, "duration": 2, "velocity": 64}, {"time": 2154, "pitch": 56, "duration": 2, "velocity": 72}, {"time": 2154, "pitch": 61, "duration": 10, "velocity": 77}, {"time": 2154, "pitch": 64, "duration": 10, "velocity": 76}, {"time": 2160, "pitch": 56, "duration": 5, "velocity": 71}, {"time": 2166, "pitch": 44, "duration": 40, "velocity": 77}, {"time": 2166, "pitch": 56, "duration": 8, "velocity": 69}, {"time": 2166, "pitch": 63, "duration": 7, "velocity": 76}, {"time": 2172, "pitch": 51, "duration": 14, "velocity": 65}, {"time": 2178, "pitch": 56, "duration": 2, "velocity": 68}, {"time": 2178, "pitch": 59, "duration": 2, "velocity": 75}, {"time": 2184, "pitch": 56, "duration": 8, "velocity": 77}, {"time": 2184, "pitch": 59, "duration": 13, "velocity": 81}, {"time": 2190, "pitch": 51, "duration": 14, "velocity": 76}, {"time": 2196, "pitch": 56, "duration": 2, "velocity": 65}, {"time": 2202, "pitch": 56, "duration": 2, "velocity": 71}, {"time": 2202, "pitch": 59, "duration": 6, "velocity": 77}, {"time": 2202, "pitch": 63, "duration": 6, "velocity": 77}, {"time": 2208, "pitch": 56, "duration": 3, "velocity": 70}, {"time": 2214, "pitch": 45, "duration": 15, "velocity": 76}, {"time": 2214, "pitch": 57, "duration": 8, "velocity": 69}, {"time": 2214, "pitch": 61, "duration": 9, "velocity": 72}, {"time": 2220, "pitch": 52, "duration": 6, "velocity": 63}, {"time": 2226, "pitch": 57, "duration": 3, "velocity": 72}, {"time": 2226, "pitch": 61, "duration": 8, "velocity": 76}, {"time": 2226, "pitch": 64, "duration": 7, "velocity": 71}, {"time": 2232, "pitch": 57, "duration": 2, "velocity": 63}, {"time": 2238, "pitch": 47, "duration": 20, "velocity": 77}, {"time": 2238, "pitch": 54, "duration": 3, "velocity": 69}, {"time": 2238, "pitch": 59, "duration": 5, "velocity": 70}, {"time": 2244, "pitch": 54, "duration": 3, "velocity": 77}, {"time": 2244, "pitch": 59, "duration": 1, "velocity": 43}, {"time": 2250, "pitch": 54, "duration": 2, "velocity": 77}, {"time": 2250, "pitch": 59, "duration": 3, "velocity": 78}, {"time": 2250, "pitch": 63, "duration": 4, "velocity": 80}, {"time": 2262, "pitch": 44, "duration": 26, "velocity": 78}, {"time": 2262, "pitch": 56, "duration": 7, "velocity": 61}, {"time": 2262, "pitch": 59, "duration": 7, "velocity": 56}, {"time": 2274, "pitch": 56, "duration": 2, "velocity": 75}, {"time": 2274, "pitch": 59, "duration": 2, "velocity": 77}, {"time": 2280, "pitch": 56, "duration": 5, "velocity": 77}, {"time": 2280, "pitch": 59, "duration": 5, "velocity": 81}, {"time": 2286, "pitch": 51, "duration": 7, "velocity": 75}, {"time": 2292, "pitch": 56, "duration": 2, "velocity": 71}, {"time": 2298, "pitch": 56, "duration": 2, "velocity": 72}, {"time": 2298, "pitch": 59, "duration": 4, "velocity": 78}, {"time": 2298, "pitch": 63, "duration": 5, "velocity": 80}, {"time": 2304, "pitch": 56, "duration": 2, "velocity": 68}, {"time": 2310, "pitch": 37, "duration": 49, "velocity": 79}, {"time": 2310, "pitch": 56, "duration": 6, "velocity": 70}, {"time": 2310, "pitch": 61, "duration": 6, "velocity": 73}, {"time": 2322, "pitch": 56, "duration": 2, "velocity": 65}, {"time": 2322, "pitch": 61, "duration": 2, "velocity": 68}, {"time": 2322, "pitch": 64, "duration": 2, "velocity": 71}, {"time": 2328, "pitch": 56, "duration": 6, "velocity": 70}, {"time": 2328, "pitch": 61, "duration": 8, "velocity": 73}, {"time": 2328, "pitch": 64, "duration": 8, "velocity": 72}, {"time": 2334, "pitch": 44, "duration": 24, "velocity": 67}, {"time": 2340, "pitch": 56, "duration": 2, "velocity": 66}, {"time": 2346, "pitch": 56, "duration": 3, "velocity": 73}, {"time": 2346, "pitch": 61, "duration": 11, "velocity": 77}, {"time": 2346, "pitch": 64, "duration": 12, "velocity": 76}, {"time": 2352, "pitch": 56, "duration": 5, "velocity": 70}, {"time": 2358, "pitch": 49, "duration": 21, "velocity": 77}, {"time": 2358, "pitch": 56, "duration": 8, "velocity": 68}, {"time": 2358, "pitch": 61, "duration": 7, "velocity": 70}, {"time": 2370, "pitch": 56, "duration": 2, "velocity": 72}, {"time": 2370, "pitch": 64, "duration": 17, "velocity": 74}, {"time": 2376, "pitch": 56, "duration": 8, "velocity": 71}, {"time": 2382, "pitch": 49, "duration": 18, "velocity": 71}, {"time": 2388, "pitch": 56, "duration": 2, "velocity": 60}, {"time": 2394, "pitch": 56, "duration": 2, "velocity": 73}, {"time": 2394, "pitch": 61, "duration": 8, "velocity": 76}, {"time": 2400, "pitch": 56, "duration": 8, "velocity": 71}, {"time": 2406, "pitch": 49, "duration": 43, "velocity": 70}, {"time": 2418, "pitch": 56, "duration": 2, "velocity": 73}, {"time": 2418, "pitch": 64, "duration": 4, "velocity": 72}, {"time": 2424, "pitch": 56, "duration": 3, "velocity": 73}, {"time": 2430, "pitch": 61, "duration": 3, "velocity": 70}, {"time": 2436, "pitch": 56, "duration": 2, "velocity": 67}, {"time": 2442, "pitch": 56, "duration": 2, "velocity": 78}, {"time": 2442, "pitch": 64, "duration": 3, "velocity": 78}, {"time": 2448, "pitch": 56, "duration": 2, "velocity": 68}, {"time": 2454, "pitch": 49, "duration": 21, "velocity": 72}, {"time": 2454, "pitch": 56, "duration": 5, "velocity": 61}, {"time": 2454, "pitch": 61, "duration": 6, "velocity": 69}, {"time": 2466, "pitch": 56, "duration": 2, "velocity": 76}, {"time": 2466, "pitch": 64, "duration": 15, "velocity": 76}, {"time": 2472, "pitch": 56, "duration": 7, "velocity": 72}, {"time": 2478, "pitch": 49, "duration": 19, "velocity": 69}, {"time": 2484, "pitch": 56, "duration": 3, "velocity": 70}, {"time": 2490, "pitch": 61, "duration": 14, "velocity": 77}, {"time": 2490, "pitch": 64, "duration": 13, "velocity": 78}, {"time": 2496, "pitch": 56, "duration": 8, "velocity": 78}, {"time": 2502, "pitch": 49, "duration": 15, "velocity": 79}, {"time": 2514, "pitch": 61, "duration": 11, "velocity": 78}, {"time": 2520, "pitch": 56, "duration": 6, "velocity": 73}, {"time": 2526, "pitch": 42, "duration": 20, "velocity": 77}, {"time": 2532, "pitch": 49, "duration": 12, "velocity": 69}, {"time": 2538, "pitch": 54, "duration": 2, "velocity": 70}, {"time": 2538, "pitch": 57, "duration": 11, "velocity": 71}, {"time": 2538, "pitch": 61, "duration": 14, "velocity": 76}, {"time": 2544, "pitch": 54, "duration": 6, "velocity": 68}, {"time": 2550, "pitch": 44, "duration": 19, "velocity": 77}, {"time": 2562, "pitch": 56, "duration": 2, "velocity": 71}, {"time": 2562, "pitch": 59, "duration": 4, "velocity": 76}, {"time": 2562, "pitch": 63, "duration": 5, "velocity": 78}, {"time": 2568, "pitch": 56, "duration": 7, "velocity": 74}, {"time": 2568, "pitch": 63, "duration": 2, "velocity": 59}, {"time": 2574, "pitch": 51, "duration": 20, "velocity": 67}, {"time": 2580, "pitch": 56, "duration": 2, "velocity": 71}, {"time": 2586, "pitch": 56, "duration": 2, "velocity": 69}, {"time": 2586, "pitch": 59, "duration": 7, "velocity": 70}, {"time": 2586, "pitch": 63, "duration": 9, "velocity": 76}, {"time": 2592, "pitch": 56, "duration": 5, "velocity": 72}, {"time": 2598, "pitch": 45, "duration": 16, "velocity": 76}, {"time": 2598, "pitch": 52, "duration": 8, "velocity": 69}, {"time": 2598, "pitch": 57, "duration": 9, "velocity": 71}, {"time": 2610, "pitch": 57, "duration": 3, "velocity": 70}, {"time": 2610, "pitch": 61, "duration": 15, "velocity": 77}, {"time": 2616, "pitch": 52, "duration": 8, "velocity": 71}, {"time": 2616, "pitch": 57, "duration": 2, "velocity": 63}, {"time": 2622, "pitch": 40, "duration": 15, "velocity": 77}, {"time": 2628, "pitch": 47, "duration": 7, "velocity": 67}, {"time": 2634, "pitch": 56, "duration": 7, "velocity": 76}, {"time": 2634, "pitch": 59, "duration": 8, "velocity": 76}, {"time": 2640, "pitch": 52, "duration": 3, "velocity": 71}, {"time": 2646, "pitch": 44, "duration": 39, "velocity": 76}, {"time": 2646, "pitch": 56, "duration": 8, "velocity": 69}, {"time": 2646, "pitch": 59, "duration": 8, "velocity": 76}, {"time": 2658, "pitch": 56, "duration": 3, "velocity": 77}, {"time": 2658, "pitch": 63, "duration": 5, "velocity": 80}, {"time": 2664, "pitch": 56, "duration": 7, "velocity": 77}, {"time": 2664, "pitch": 63, "duration": 1, "velocity": 63}, {"time": 2670, "pitch": 51, "duration": 13, "velocity": 69}, {"time": 2676, "pitch": 56, "duration": 2, "velocity": 71}, {"time": 2682, "pitch": 56, "duration": 3, "velocity": 76}, {"time": 2682, "pitch": 59, "duration": 7, "velocity": 78}, {"time": 2682, "pitch": 63, "duration": 8, "velocity": 78}, {"time": 2688, "pitch": 56, "duration": 4, "velocity": 72}, {"time": 2694, "pitch": 37, "duration": 47, "velocity": 77}, {"time": 2694, "pitch": 56, "duration": 7, "velocity": 68}, {"time": 2694, "pitch": 61, "duration": 7, "velocity": 71}, {"time": 2706, "pitch": 56, "duration": 2, "velocity": 68}, {"time": 2706, "pitch": 61, "duration": 3, "velocity": 71}, {"time": 2706, "pitch": 64, "duration": 3, "velocity": 73}, {"time": 2712, "pitch": 56, "duration": 6, "velocity": 71}, {"time": 2712, "pitch": 61, "duration": 7, "velocity": 75}, {"time": 2712, "pitch": 64, "duration": 7, "velocity": 77}, {"time": 2718, "pitch": 44, "duration": 23, "velocity": 70}, {"time": 2724, "pitch": 56, "duration": 2, "velocity": 64}, {"time": 2730, "pitch": 56, "duration": 2, "velocity": 72}, {"time": 2730, "pitch": 61, "duration": 10, "velocity": 77}, {"time": 2730, "pitch": 64, "duration": 10, "velocity": 76}, {"time": 2736, "pitch": 56, "duration": 5, "velocity": 71}, {"time": 2742, "pitch": 44, "duration": 40, "velocity": 77}, {"time": 2742, "pitch": 56, "duration": 8, "velocity": 69}, {"time": 2742, "pitch": 63, "duration": 7, "velocity": 76}, {"time": 2748, "pitch": 51, "duration": 14, "velocity": 65}, {"time": 2754, "pitch": 56, "duration": 2, "velocity": 68}, {"time": 2754, "pitch": 59, "duration": 2, "velocity": 75}, {"time": 2760, "pitch": 56, "duration": 8, "velocity": 77}, {"time": 2760, "pitch": 59, "duration": 13, "velocity": 81}, {"time": 2766, "pitch": 51, "duration": 14, "velocity": 76}, {"time": 2772, "pitch": 56, "duration": 2, "velocity": 65}, {"time": 2778, "pitch": 56, "duration": 2, "velocity": 71}, {"time": 2778, "pitch": 59, "duration": 6, "velocity": 77}, {"time": 2778, "pitch": 63, "duration": 6, "velocity": 77}, {"time": 2784, "pitch": 56, "duration": 3, "velocity": 70}, {"time": 2790, "pitch": 45, "duration": 15, "velocity": 76}, {"time": 2790, "pitch": 57, "duration": 8, "velocity": 69}, {"time": 2790, "pitch": 61, "duration": 9, "velocity": 72}, {"time": 2796, "pitch": 52, "duration": 6, "velocity": 63}, {"time": 2802, "pitch": 57, "duration": 3, "velocity": 72}, {"time": 2802, "pitch": 61, "duration": 8, "velocity": 76}, {"time": 2802, "pitch": 64, "duration": 7, "velocity": 71}, {"time": 2808, "pitch": 57, "duration": 2, "velocity": 63}, {"time": 2814, "pitch": 47, "duration": 20, "velocity": 77}, {"time": 2814, "pitch": 54, "duration": 3, "velocity": 69}, {"time": 2814, "pitch": 59, "duration": 5, "velocity": 70}, {"time": 2820, "pitch": 54, "duration": 3, "velocity": 77}, {"time": 2820, "pitch": 59, "duration": 1, "velocity": 43}, {"time": 2826, "pitch": 54, "duration": 2, "velocity": 77}, {"time": 2826, "pitch": 59, "duration": 3, "velocity": 78}, {"time": 2826, "pitch": 63, "duration": 4, "velocity": 80}, {"time": 2838, "pitch": 44, "duration": 26, "velocity": 78}, {"time": 2838, "pitch": 56, "duration": 7, "velocity": 61}, {"time": 2838, "pitch": 59, "duration": 7, "velocity": 56}, {"time": 2850, "pitch": 56, "duration": 2, "velocity": 75}, {"time": 2850, "pitch": 59, "duration": 2, "velocity": 77}, {"time": 2856, "pitch": 56, "duration": 5, "velocity": 77}, {"time": 2856, "pitch": 59, "duration": 5, "velocity": 81}, {"time": 2862, "pitch": 51, "duration": 7, "velocity": 75}, {"time": 2868, "pitch": 56, "duration": 2, "velocity": 71}, {"time": 2874, "pitch": 56, "duration": 2, "velocity": 72}, {"time": 2874, "pitch": 59, "duration": 4, "velocity": 78}, {"time": 2874, "pitch": 63, "duration": 5, "velocity": 80}, {"time": 2880, "pitch": 56, "duration": 2, "velocity": 68}, {"time": 2886, "pitch": 37, "duration": 49, "velocity": 79}, {"time": 2886, "pitch": 56, "duration": 6, "velocity": 70}, {"time": 2886, "pitch": 61, "duration": 6, "velocity": 73}, {"time": 2898, "pitch": 56, "duration": 2, "velocity": 65}, {"time": 2898, "pitch": 61, "duration": 2, "velocity": 68}, {"time": 2898, "pitch": 64, "duration": 2, "velocity": 71}, {"time": 2904, "pitch": 56, "duration": 6, "velocity": 70}, {"time": 2904, "pitch": 61, "duration": 8, "velocity": 73}, {"time": 2904, "pitch": 64, "duration": 8, "velocity": 72}, {"time": 2910, "pitch": 44, "duration": 24, "velocity": 67}, {"time": 2916, "pitch": 56, "duration": 2, "velocity": 66}, {"time": 2922, "pitch": 56, "duration": 3, "velocity": 73}, {"time": 2922, "pitch": 61, "duration": 11, "velocity": 77}, {"time": 2922, "pitch": 64, "duration": 12, "velocity": 76}, {"time": 2928, "pitch": 56, "duration": 5, "velocity": 70}, {"time": 2934, "pitch": 49, "duration": 23, "velocity": 78}, {"time": 2934, "pitch": 56, "duration": 6, "velocity": 72}, {"time": 2934, "pitch": 61, "duration": 7, "velocity": 74}, {"time": 2946, "pitch": 56, "duration": 2, "velocity": 75}, {"time": 2946, "pitch": 61, "duration": 2, "velocity": 78}, {"time": 2946, "pitch": 64, "duration": 2, "velocity": 79}, {"time": 2952, "pitch": 56, "duration": 7, "velocity": 76}, {"time": 2952, "pitch": 61, "duration": 8, "velocity": 80}, {"time": 2952, "pitch": 64, "duration": 8, "velocity": 78}, {"time": 2958, "pitch": 44, "duration": 19, "velocity": 77}, {"time": 2964, "pitch": 56, "duration": 2, "velocity": 71}, {"time": 2970, "pitch": 56, "duration": 2, "velocity": 78}, {"time": 2970, "pitch": 61, "duration": 2, "velocity": 77}, {"time": 2970, "pitch": 64, "duration": 3, "velocity": 77}, {"time": 2976, "pitch": 56, "duration": 2, "velocity": 77}, {"time": 2982, "pitch": 49, "duration": 22, "velocity": 70}, {"time": 2982, "pitch": 56, "duration": 6, "velocity": 68}, {"time": 2982, "pitch": 61, "duration": 6, "velocity": 75}, {"time": 2994, "pitch": 61, "duration": 2, "velocity": 76}, {"time": 2994, "pitch": 64, "duration": 2, "velocity": 77}, {"time": 3000, "pitch": 61, "duration": 7, "velocity": 78}, {"time": 3000, "pitch": 64, "duration": 6, "velocity": 80}, {"time": 3006, "pitch": 44, "duration": 14, "velocity": 78}, {"time": 3012, "pitch": 56, "duration": 2, "velocity": 70}, {"time": 3018, "pitch": 61, "duration": 4, "velocity": 79}, {"time": 3018, "pitch": 64, "duration": 5, "velocity": 87}, {"time": 3024, "pitch": 56, "duration": 4, "velocity": 78}, {"time": 3024, "pitch": 61, "duration": 2, "velocity": 48}, {"time": 3030, "pitch": 49, "duration": 22, "velocity": 81}, {"time": 3030, "pitch": 56, "duration": 6, "velocity": 77}, {"time": 3030, "pitch": 61, "duration": 6, "velocity": 76}, {"time": 3042, "pitch": 56, "duration": 2, "velocity": 76}, {"time": 3042, "pitch": 64, "duration": 3, "velocity": 80}, {"time": 3048, "pitch": 56, "duration": 8, "velocity": 78}, {"time": 3048, "pitch": 64, "duration": 12, "velocity": 78}, {"time": 3054, "pitch": 44, "duration": 18, "velocity": 78}, {"time": 3060, "pitch": 56, "duration": 3, "velocity": 71}, {"time": 3066, "pitch": 61, "duration": 10, "velocity": 79}, {"time": 3066, "pitch": 64, "duration": 9, "velocity": 77}, {"time": 3072, "pitch": 56, "duration": 6, "velocity": 71}, {"time": 3078, "pitch": 49, "duration": 24, "velocity": 78}, {"time": 3084, "pitch": 56, "duration": 3, "velocity": 66}, {"time": 3090, "pitch": 61, "duration": 2, "velocity": 77}, {"time": 3090, "pitch": 64, "duration": 3, "velocity": 77}, {"time": 3096, "pitch": 56, "duration": 7, "velocity": 76}, {"time": 3096, "pitch": 61, "duration": 8, "velocity": 78}, {"time": 3096, "pitch": 64, "duration": 8, "velocity": 78}, {"time": 3102, "pitch": 44, "duration": 21, "velocity": 76}, {"time": 3108, "pitch": 56, "duration": 3, "velocity": 71}, {"time": 3114, "pitch": 56, "duration": 2, "velocity": 76}, {"time": 3114, "pitch": 61, "duration": 4, "velocity": 80}, {"time": 3114, "pitch": 64, "duration": 5, "velocity": 78}, {"time": 3120, "pitch": 56, "duration": 4, "velocity": 81}, {"time": 3120, "pitch": 61, "duration": 2, "velocity": 69}, {"time": 3120, "pitch": 64, "duration": 1, "velocity": 58}, {"time": 3126, "pitch": 49, "duration": 23, "velocity": 77}, {"time": 3126, "pitch": 56, "duration": 8, "velocity": 73}, {"time": 3126, "pitch": 61, "duration": 8, "velocity": 75}, {"time": 3138, "pitch": 56, "duration": 2, "velocity": 77}, {"time": 3138, "pitch": 64, "duration": 3, "velocity": 77}, {"time": 3144, "pitch": 56, "duration": 9, "velocity": 75}, {"time": 3144, "pitch": 61, "duration": 13, "velocity": 82}, {"time": 3144, "pitch": 64, "duration": 13, "velocity": 76}, {"time": 3150, "pitch": 44, "duration": 17, "velocity": 77}, {"time": 3156, "pitch": 56, "duration": 3, "velocity": 77}, {"time": 3162, "pitch": 56, "duration": 3, "velocity": 76}, {"time": 3162, "pitch": 61, "duration": 15, "velocity": 78}, {"time": 3162, "pitch": 64, "duration": 11, "velocity": 79}, {"time": 3168, "pitch": 56, "duration": 9, "velocity": 72}, {"time": 3174, "pitch": 49, "duration": 22, "velocity": 80}, {"time": 3186, "pitch": 56, "duration": 2, "velocity": 74}, {"time": 3186, "pitch": 61, "duration": 3, "velocity": 78}, {"time": 3186, "pitch": 64, "duration": 3, "velocity": 76}, {"time": 3192, "pitch": 56, "duration": 7, "velocity": 74}, {"time": 3192, "pitch": 61, "duration": 9, "velocity": 77}, {"time": 3192, "pitch": 64, "duration": 9, "velocity": 77}, {"time": 3198, "pitch": 44, "duration": 19, "velocity": 77}, {"time": 3204, "pitch": 56, "duration": 2, "velocity": 72}, {"time": 3210, "pitch": 56, "duration": 2, "velocity": 76}, {"time": 3210, "pitch": 61, "duration": 3, "velocity": 79}, {"time": 3210, "pitch": 64, "duration": 5, "velocity": 77}, {"time": 3216, "pitch": 56, "duration": 2, "velocity": 76}, {"time": 3222, "pitch": 44, "duration": 21, "velocity": 79}, {"time": 3222, "pitch": 56, "duration": 7, "velocity": 76}, {"time": 3222, "pitch": 59, "duration": 6, "velocity": 76}, {"time": 3234, "pitch": 56, "duration": 2, "velocity": 76}, {"time": 3234, "pitch": 59, "duration": 2, "velocity": 83}, {"time": 3234, "pitch": 63, "duration": 2, "velocity": 80}, {"time": 3240, "pitch": 56, "duration": 8, "velocity": 68}, {"time": 3240, "pitch": 59, "duration": 9, "velocity": 76}, {"time": 3240, "pitch": 63, "duration": 10, "velocity": 76}, {"time": 3246, "pitch": 51, "duration": 20, "velocity": 75}, {"time": 3252, "pitch": 56, "duration": 2, "velocity": 70}, {"time": 3252, "pitch": 59, "duration": 1, "velocity": 50}, {"time": 3258, "pitch": 56, "duration": 2, "velocity": 76}, {"time": 3258, "pitch": 59, "duration": 4, "velocity": 77}, {"time": 3258, "pitch": 63, "duration": 7, "velocity": 77}, {"time": 3264, "pitch": 56, "duration": 4, "velocity": 68}, {"time": 3270, "pitch": 49, "duration": 7, "velocity": 80}, {"time": 3270, "pitch": 56, "duration": 2, "velocity": 68}, {"time": 3270, "pitch": 61, "duration": 7, "velocity": 76}, {"time": 3270, "pitch": 64, "duration": 8, "velocity": 74}, {"time": 3276, "pitch": 56, "duration": 3, "velocity": 76}, {"time": 3282, "pitch": 47, "duration": 9, "velocity": 80}, {"time": 3282, "pitch": 54, "duration": 7, "velocity": 78}, {"time": 3282, "pitch": 59, "duration": 8, "velocity": 76}, {"time": 3294, "pitch": 49, "duration": 23, "velocity": 90}, {"time": 3294, "pitch": 56, "duration": 7, "velocity": 77}, {"time": 3294, "pitch": 61, "duration": 8, "velocity": 77}, {"time": 3306, "pitch": 56, "duration": 2, "velocity": 71}, {"time": 3306, "pitch": 61, "duration": 11, "velocity": 75}, {"time": 3306, "pitch": 64, "duration": 11, "velocity": 74}, {"time": 3312, "pitch": 56, "duration": 5, "velocity": 51}, {"time": 3318, "pitch": 49, "duration": 21, "velocity": 77}, {"time": 3318, "pitch": 56, "duration": 8, "velocity": 68}, {"time": 3318, "pitch": 61, "duration": 7, "velocity": 70}, {"time": 3330, "pitch": 56, "duration": 2, "velocity": 72}, {"time": 3330, "pitch": 64, "duration": 17, "velocity": 74}, {"time": 3336, "pitch": 56, "duration": 8, "velocity": 71}, {"time": 3342, "pitch": 49, "duration": 18, "velocity": 71}, {"time": 3348, "pitch": 56, "duration": 2, "velocity": 60}, {"time": 3354, "pitch": 56, "duration": 2, "velocity": 73}, {"time": 3354, "pitch": 61, "duration": 8, "velocity": 76}, {"time": 3360, "pitch": 56, "duration": 8, "velocity": 71}, {"time": 3366, "pitch": 49, "duration": 43, "velocity": 70}, {"time": 3378, "pitch": 56, "duration": 2, "velocity": 73}, {"time": 3378, "pitch": 64, "duration": 4, "velocity": 72}, {"time": 3384, "pitch": 56, "duration": 3, "velocity": 73}, {"time": 3390, "pitch": 61, "duration": 3, "velocity": 70}, {"time": 3396, "pitch": 56, "duration": 2, "velocity": 67}, {"time": 3402, "pitch": 56, "duration": 2, "velocity": 78}, {"time": 3402, "pitch": 64, "duration": 3, "velocity": 78}, {"time": 3408, "pitch": 56, "duration": 2, "velocity": 68}, {"time": 3414, "pitch": 49, "duration": 21, "velocity": 72}, {"time": 3414, "pitch": 56, "duration": 5, "velocity": 61}, {"time": 3414, "pitch": 61, "duration": 6, "velocity": 69}, {"time": 3426, "pitch": 56, "duration": 2, "velocity": 76}, {"time": 3426, "pitch": 64, "duration": 15, "velocity": 76}, {"time": 3432, "pitch": 56, "duration": 7, "velocity": 72}, {"time": 3438, "pitch": 49, "duration": 19, "velocity": 69}, {"time": 3444, "pitch": 56, "duration": 3, "velocity": 70}, {"time": 3450, "pitch": 61, "duration": 14, "velocity": 77}, {"time": 3450, "pitch": 64, "duration": 13, "velocity": 78}, {"time": 3456, "pitch": 56, "duration": 8, "velocity": 78}, {"time": 3462, "pitch": 49, "duration": 15, "velocity": 79}, {"time": 3474, "pitch": 61, "duration": 11, "velocity": 78}, {"time": 3480, "pitch": 56, "duration": 6, "velocity": 73}, {"time": 3486, "pitch": 42, "duration": 20, "velocity": 77}, {"time": 3492, "pitch": 49, "duration": 12, "velocity": 69}, {"time": 3498, "pitch": 54, "duration": 2, "velocity": 70}, {"time": 3498, "pitch": 57, "duration": 11, "velocity": 71}, {"time": 3498, "pitch": 61, "duration": 14, "velocity": 76}, {"time": 3504, "pitch": 54, "duration": 6, "velocity": 68}, {"time": 3510, "pitch": 44, "duration": 19, "velocity": 77}, {"time": 3522, "pitch": 56, "duration": 2, "velocity": 71}, {"time": 3522, "pitch": 59, "duration": 4, "velocity": 76}, {"time": 3522, "pitch": 63, "duration": 5, "velocity": 78}, {"time": 3528, "pitch": 56, "duration": 7, "velocity": 74}, {"time": 3528, "pitch": 63, "duration": 2, "velocity": 59}, {"time": 3534, "pitch": 51, "duration": 20, "velocity": 67}, {"time": 3540, "pitch": 56, "duration": 2, "velocity": 71}, {"time": 3546, "pitch": 56, "duration": 2, "velocity": 69}, {"time": 3546, "pitch": 59, "duration": 7, "velocity": 70}, {"time": 3546, "pitch": 63, "duration": 9, "velocity": 76}, {"time": 3552, "pitch": 56, "duration": 5, "velocity": 72}, {"time": 3558, "pitch": 45, "duration": 16, "velocity": 76}, {"time": 3558, "pitch": 52, "duration": 8, "velocity": 69}, {"time": 3558, "pitch": 57, "duration": 9, "velocity": 71}, {"time": 3570, "pitch": 57, "duration": 3, "velocity": 70}, {"time": 3570, "pitch": 61, "duration": 15, "velocity": 77}, {"time": 3576, "pitch": 52, "duration": 8, "velocity": 71}, {"time": 3576, "pitch": 57, "duration": 2, "velocity": 63}, {"time": 3582, "pitch": 40, "duration": 15, "velocity": 77}, {"time": 3588, "pitch": 47, "duration": 7, "velocity": 67}, {"time": 3594, "pitch": 56, "duration": 7, "velocity": 76}, {"time": 3594, "pitch": 59, "duration": 8, "velocity": 76}, {"time": 3600, "pitch": 52, "duration": 3, "velocity": 71}, {"time": 3606, "pitch": 44, "duration": 39, "velocity": 76}, {"time": 3606, "pitch": 56, "duration": 8, "velocity": 69}, {"time": 3606, "pitch": 59, "duration": 8, "velocity": 76}, {"time": 3618, "pitch": 56, "duration": 3, "velocity": 77}, {"time": 3618, "pitch": 63, "duration": 5, "velocity": 80}, {"time": 3624, "pitch": 56, "duration": 7, "velocity": 77}, {"time": 3624, "pitch": 63, "duration": 1, "velocity": 63}, {"time": 3630, "pitch": 51, "duration": 13, "velocity": 69}, {"time": 3636, "pitch": 56, "duration": 2, "velocity": 71}, {"time": 3642, "pitch": 56, "duration": 3, "velocity": 76}, {"time": 3642, "pitch": 59, "duration": 7, "velocity": 78}, {"time": 3642, "pitch": 63, "duration": 8, "velocity": 78}, {"time": 3648, "pitch": 56, "duration": 4, "velocity": 72}, {"time": 3654, "pitch": 37, "duration": 47, "velocity": 77}, {"time": 3654, "pitch": 56, "duration": 7, "velocity": 68}, {"time": 3654, "pitch": 61, "duration": 7, "velocity": 71}, {"time": 3666, "pitch": 56, "duration": 2, "velocity": 68}, {"time": 3666, "pitch": 61, "duration": 3, "velocity": 71}, {"time": 3666, "pitch": 64, "duration": 3, "velocity": 73}, {"time": 3672, "pitch": 56, "duration": 6, "velocity": 71}, {"time": 3672, "pitch": 61, "duration": 7, "velocity": 75}, {"time": 3672, "pitch": 64, "duration": 7, "velocity": 77}, {"time": 3678, "pitch": 44, "duration": 23, "velocity": 70}, {"time": 3684, "pitch": 56, "duration": 2, "velocity": 64}, {"time": 3690, "pitch": 56, "duration": 2, "velocity": 72}, {"time": 3690, "pitch": 61, "duration": 10, "velocity": 77}, {"time": 3690, "pitch": 64, "duration": 10, "velocity": 76}, {"time": 3696, "pitch": 56, "duration": 5, "velocity": 71}, {"time": 3702, "pitch": 44, "duration": 40, "velocity": 77}, {"time": 3702, "pitch": 56, "duration": 8, "velocity": 69}, {"time": 3702, "pitch": 63, "duration": 7, "velocity": 76}, {"time": 3708, "pitch": 51, "duration": 14, "velocity": 65}, {"time": 3714, "pitch": 56, "duration": 2, "velocity": 68}, {"time": 3714, "pitch": 59, "duration": 2, "velocity": 75}, {"time": 3720, "pitch": 56, "duration": 8, "velocity": 77}, {"time": 3720, "pitch": 59, "duration": 13, "velocity": 81}, {"time": 3726, "pitch": 51, "duration": 14, "velocity": 76}, {"time": 3732, "pitch": 56, "duration": 2, "velocity": 65}, {"time": 3738, "pitch": 56, "duration": 2, "velocity": 71}, {"time": 3738, "pitch": 59, "duration": 6, "velocity": 77}, {"time": 3738, "pitch": 63, "duration": 6, "velocity": 77}, {"time": 3744, "pitch": 56, "duration": 3, "velocity": 70}, {"time": 3750, "pitch": 45, "duration": 15, "velocity": 76}, {"time": 3750, "pitch": 57, "duration": 8, "velocity": 69}, {"time": 3750, "pitch": 61, "duration": 9, "velocity": 72}, {"time": 3756, "pitch": 52, "duration": 6, "velocity": 63}, {"time": 3762, "pitch": 57, "duration": 3, "velocity": 72}, {"time": 3762, "pitch": 61, "duration": 8, "velocity": 76}, {"time": 3762, "pitch": 64, "duration": 7, "velocity": 71}, {"time": 3768, "pitch": 57, "duration": 2, "velocity": 63}, {"time": 3774, "pitch": 47, "duration": 20, "velocity": 77}, {"time": 3774, "pitch": 54, "duration": 3, "velocity": 69}, {"time": 3774, "pitch": 59, "duration": 5, "velocity": 70}, {"time": 3780, "pitch": 54, "duration": 3, "velocity": 77}, {"time": 3780, "pitch": 59, "duration": 1, "velocity": 43}, {"time": 3786, "pitch": 54, "duration": 2, "velocity": 77}, {"time": 3786, "pitch": 59, "duration": 3, "velocity": 78}, {"time": 3786, "pitch": 63, "duration": 4, "velocity": 80}, {"time": 3798, "pitch": 44, "duration": 26, "velocity": 78}, {"time": 3798, "pitch": 56, "duration": 7, "velocity": 61}, {"time": 3798, "pitch": 59, "duration": 7, "velocity": 56}, {"time": 3810, "pitch": 56, "duration": 2, "velocity": 75}, {"time": 3810, "pitch": 59, "duration": 2, "velocity": 77}, {"time": 3816, "pitch": 56, "duration": 5, "velocity": 77}, {"time": 3816, "pitch": 59, "duration": 5, "velocity": 81}, {"time": 3822, "pitch": 51, "duration": 7, "velocity": 75}, {"time": 3828, "pitch": 56, "duration": 2, "velocity": 71}, {"time": 3834, "pitch": 56, "duration": 2, "velocity": 72}, {"time": 3834, "pitch": 59, "duration": 4, "velocity": 78}, {"time": 3834, "pitch": 63, "duration": 5, "velocity": 80}, {"time": 3840, "pitch": 56, "duration": 2, "velocity": 68}, {"time": 3846, "pitch": 37, "duration": 49, "velocity": 79}, {"time": 3846, "pitch": 56, "duration": 6, "velocity": 70}, {"time": 3846, "pitch": 61, "duration": 6, "velocity": 73}, {"time": 3858, "pitch": 56, "duration": 2, "velocity": 65}, {"time": 3858, "pitch": 61, "duration": 2, "velocity": 68}, {"time": 3858, "pitch": 64, "duration": 2, "velocity": 71}, {"time": 3864, "pitch": 56, "duration": 6, "velocity": 70}, {"time": 3864, "pitch": 61, "duration": 8, "velocity": 73}, {"time": 3864, "pitch": 64, "duration": 8, "velocity": 72}, {"time": 3870, "pitch": 44, "duration": 24, "velocity": 67}, {"time": 3876, "pitch": 56, "duration": 2, "velocity": 66}, {"time": 3882, "pitch": 56, "duration": 3, "velocity": 73}, {"time": 3882, "pitch": 61, "duration": 11, "velocity": 77}, {"time": 3882, "pitch": 64, "duration": 12, "velocity": 76}, {"time": 3888, "pitch": 56, "duration": 5, "velocity": 70}, {"time": 3894, "pitch": 44, "duration": 1, "velocity": 77}, {"time": 3894, "pitch": 56, "duration": 8, "velocity": 69}, {"time": 3894, "pitch": 63, "duration": 7, "velocity": 76}, {"time": 3900, "pitch": 51, "duration": 14, "velocity": 65}, {"time": 3906, "pitch": 56, "duration": 2, "velocity": 68}, {"time": 3906, "pitch": 59, "duration": 2, "velocity": 75}, {"time": 3912, "pitch": 56, "duration": 8, "velocity": 77}, {"time": 3912, "pitch": 59, "duration": 13, "velocity": 81}, {"time": 3918, "pitch": 51, "duration": 14, "velocity": 76}, {"time": 3924, "pitch": 56, "duration": 2, "velocity": 65}, {"time": 3930, "pitch": 56, "duration": 2, "velocity": 71}, {"time": 3930, "pitch": 59, "duration": 6, "velocity": 77}, {"time": 3930, "pitch": 63, "duration": 6, "velocity": 77}, {"time": 3936, "pitch": 56, "duration": 3, "velocity": 70}, {"time": 3942, "pitch": 45, "duration": 15, "velocity": 76}, {"time": 3942, "pitch": 57, "duration": 8, "velocity": 69}, {"time": 3942, "pitch": 61, "duration": 9, "velocity": 72}, {"time": 3948, "pitch": 52, "duration": 6, "velocity": 63}, {"time": 3954, "pitch": 57, "duration": 3, "velocity": 72}, {"time": 3954, "pitch": 61, "duration": 8, "velocity": 76}, {"time": 3954, "pitch": 64, "duration": 7, "velocity": 71}, {"time": 3960, "pitch": 57, "duration": 2, "velocity": 63}, {"time": 3966, "pitch": 47, "duration": 20, "velocity": 77}, {"time": 3966, "pitch": 54, "duration": 3, "velocity": 69}, {"time": 3966, "pitch": 59, "duration": 5, "velocity": 70}, {"time": 3972, "pitch": 54, "duration": 3, "velocity": 77}, {"time": 3972, "pitch": 59, "duration": 1, "velocity": 43}, {"time": 3978, "pitch": 54, "duration": 2, "velocity": 77}, {"time": 3978, "pitch": 59, "duration": 3, "velocity": 78}, {"time": 3978, "pitch": 63, "duration": 4, "velocity": 80}, {"time": 3990, "pitch": 44, "duration": 26, "velocity": 78}, {"time": 3990, "pitch": 56, "duration": 7, "velocity": 61}, {"time": 3990, "pitch": 59, "duration": 7, "velocity": 56}, {"time": 4002, "pitch": 56, "duration": 2, "velocity": 75}, {"time": 4002, "pitch": 59, "duration": 2, "velocity": 77}, {"time": 4008, "pitch": 56, "duration": 5, "velocity": 77}, {"time": 4008, "pitch": 59, "duration": 5, "velocity": 81}, {"time": 4014, "pitch": 51, "duration": 7, "velocity": 75}, {"time": 4020, "pitch": 56, "duration": 2, "velocity": 71}, {"time": 4026, "pitch": 56, "duration": 2, "velocity": 72}, {"time": 4026, "pitch": 59, "duration": 4, "velocity": 78}, {"time": 4026, "pitch": 63, "duration": 5, "velocity": 80}, {"time": 4032, "pitch": 56, "duration": 2, "velocity": 68}, {"time": 4038, "pitch": 37, "duration": 49, "velocity": 79}, {"time": 4038, "pitch": 56, "duration": 6, "velocity": 70}, {"time": 4038, "pitch": 61, "duration": 6, "velocity": 73}, {"time": 4050, "pitch": 56, "duration": 2, "velocity": 65}, {"time": 4050, "pitch": 61, "duration": 2, "velocity": 68}, {"time": 4050, "pitch": 64, "duration": 2, "velocity": 71}, {"time": 4056, "pitch": 56, "duration": 6, "velocity": 70}, {"time": 4056, "pitch": 61, "duration": 8, "velocity": 73}, {"time": 4056, "pitch": 64, "duration": 8, "velocity": 72}, {"time": 4062, "pitch": 44, "duration": 24, "velocity": 67}, {"time": 4068, "pitch": 56, "duration": 2, "velocity": 66}, {"time": 4074, "pitch": 56, "duration": 3, "velocity": 73}, {"time": 4074, "pitch": 61, "duration": 11, "velocity": 77}, {"time": 4074, "pitch": 64, "duration": 12, "velocity": 76}, {"time": 4080, "pitch": 56, "duration": 5, "velocity": 70}, {"time": 4086, "pitch": 49, "duration": 23, "velocity": 78}, {"time": 4086, "pitch": 56, "duration": 6, "velocity": 72}, {"time": 4086, "pitch": 61, "duration": 7, "velocity": 74}, {"time": 4098, "pitch": 56, "duration": 2, "velocity": 75}, {"time": 4098, "pitch": 61, "duration": 2, "velocity": 78}, {"time": 4098, "pitch": 64, "duration": 2, "velocity": 79}, {"time": 4104, "pitch": 56, "duration": 7, "velocity": 76}, {"time": 4104, "pitch": 61, "duration": 8, "velocity": 80}, {"time": 4104, "pitch": 64, "duration": 8, "velocity": 78}, {"time": 4110, "pitch": 44, "duration": 19, "velocity": 77}, {"time": 4116, "pitch": 56, "duration": 2, "velocity": 71}, {"time": 4122, "pitch": 56, "duration": 2, "velocity": 78}, {"time": 4122, "pitch": 61, "duration": 2, "velocity": 77}, {"time": 4122, "pitch": 64, "duration": 3, "velocity": 77}, {"time": 4128, "pitch": 56, "duration": 2, "velocity": 77}, {"time": 4134, "pitch": 49, "duration": 22, "velocity": 70}, {"time": 4134, "pitch": 56, "duration": 6, "velocity": 68}, {"time": 4134, "pitch": 61, "duration": 6, "velocity": 75}, {"time": 4146, "pitch": 61, "duration": 2, "velocity": 76}, {"time": 4146, "pitch": 64, "duration": 2, "velocity": 77}, {"time": 4152, "pitch": 61, "duration": 7, "velocity": 78}, {"time": 4152, "pitch": 64, "duration": 6, "velocity": 80}, {"time": 4158, "pitch": 44, "duration": 14, "velocity": 78}, {"time": 4164, "pitch": 56, "duration": 2, "velocity": 70}, {"time": 4170, "pitch": 61, "duration": 4, "velocity": 79}, {"time": 4170, "pitch": 64, "duration": 5, "velocity": 87}, {"time": 4176, "pitch": 56, "duration": 4, "velocity": 78}, {"time": 4176, "pitch": 61, "duration": 2, "velocity": 48}, {"time": 4182, "pitch": 49, "duration": 22, "velocity": 81}, {"time": 4182, "pitch": 56, "duration": 6, "velocity": 77}, {"time": 4182, "pitch": 61, "duration": 6, "velocity": 76}, {"time": 4194, "pitch": 56, "duration": 2, "velocity": 76}, {"time": 4194, "pitch": 64, "duration": 3, "velocity": 80}, {"time": 4200, "pitch": 56, "duration": 8, "velocity": 78}, {"time": 4200, "pitch": 64, "duration": 12, "velocity": 78}, {"time": 4206, "pitch": 44, "duration": 18, "velocity": 78}, {"time": 4212, "pitch": 56, "duration": 3, "velocity": 71}, {"time": 4218, "pitch": 61, "duration": 10, "velocity": 79}, {"time": 4218, "pitch": 64, "duration": 9, "velocity": 77}, {"time": 4224, "pitch": 56, "duration": 6, "velocity": 71}, {"time": 4230, "pitch": 49, "duration": 24, "velocity": 78}, {"time": 4236, "pitch": 56, "duration": 3, "velocity": 66}, {"time": 4242, "pitch": 61, "duration": 2, "velocity": 77}, {"time": 4242, "pitch": 64, "duration": 3, "velocity": 77}, {"time": 4248, "pitch": 56, "duration": 7, "velocity": 76}, {"time": 4248, "pitch": 61, "duration": 8, "velocity": 78}, {"time": 4248, "pitch": 64, "duration": 8, "velocity": 78}, {"time": 4254, "pitch": 44, "duration": 21, "velocity": 76}, {"time": 4260, "pitch": 56, "duration": 3, "velocity": 71}, {"time": 4266, "pitch": 56, "duration": 2, "velocity": 76}, {"time": 4266, "pitch": 61, "duration": 4, "velocity": 80}, {"time": 4266, "pitch": 64, "duration": 5, "velocity": 78}, {"time": 4272, "pitch": 56, "duration": 4, "velocity": 81}, {"time": 4272, "pitch": 61, "duration": 2, "velocity": 69}, {"time": 4272, "pitch": 64, "duration": 1, "velocity": 58}, {"time": 4278, "pitch": 44, "duration": 40, "velocity": 77}, {"time": 4278, "pitch": 56, "duration": 8, "velocity": 69}, {"time": 4278, "pitch": 63, "duration": 7, "velocity": 76}, {"time": 4284, "pitch": 51, "duration": 14, "velocity": 65}, {"time": 4290, "pitch": 56, "duration": 2, "velocity": 68}, {"time": 4290, "pitch": 59, "duration": 2, "velocity": 75}, {"time": 4296, "pitch": 56, "duration": 8, "velocity": 77}, {"time": 4296, "pitch": 59, "duration": 13, "velocity": 81}, {"time": 4302, "pitch": 51, "duration": 14, "velocity": 76}, {"time": 4308, "pitch": 56, "duration": 2, "velocity": 65}, {"time": 4314, "pitch": 56, "duration": 2, "velocity": 71}, {"time": 4314, "pitch": 59, "duration": 6, "velocity": 77}, {"time": 4314, "pitch": 63, "duration": 6, "velocity": 77}, {"time": 4320, "pitch": 56, "duration": 3, "velocity": 70}, {"time": 4326, "pitch": 45, "duration": 15, "velocity": 76}, {"time": 4326, "pitch": 57, "duration": 8, "velocity": 69}, {"time": 4326, "pitch": 61, "duration": 9, "velocity": 72}, {"time": 4332, "pitch": 52, "duration": 6, "velocity": 63}, {"time": 4338, "pitch": 57, "duration": 3, "velocity": 72}, {"time": 4338, "pitch": 61, "duration": 8, "velocity": 76}, {"time": 4338, "pitch": 64, "duration": 7, "velocity": 71}, {"time": 4344, "pitch": 57, "duration": 2, "velocity": 63}, {"time": 4350, "pitch": 47, "duration": 20, "velocity": 77}, {"time": 4350, "pitch": 54, "duration": 3, "velocity": 69}, {"time": 4350, "pitch": 59, "duration": 5, "velocity": 70}, {"time": 4356, "pitch": 54, "duration": 3, "velocity": 77}, {"time": 4356, "pitch": 59, "duration": 1, "velocity": 43}, {"time": 4362, "pitch": 54, "duration": 2, "velocity": 77}, {"time": 4362, "pitch": 59, "duration": 3, "velocity": 78}, {"time": 4362, "pitch": 63, "duration": 4, "velocity": 80}, {"time": 4374, "pitch": 44, "duration": 26, "velocity": 78}, {"time": 4374, "pitch": 56, "duration": 7, "velocity": 61}, {"time": 4374, "pitch": 59, "duration": 7, "velocity": 56}, {"time": 4386, "pitch": 56, "duration": 2, "velocity": 75}, {"time": 4386, "pitch": 59, "duration": 2, "velocity": 77}, {"time": 4392, "pitch": 56, "duration": 5, "velocity": 77}, {"time": 4392, "pitch": 59, "duration": 5, "velocity": 81}, {"time": 4398, "pitch": 51, "duration": 7, "velocity": 75}, {"time": 4404, "pitch": 56, "duration": 2, "velocity": 71}, {"time": 4410, "pitch": 56, "duration": 2, "velocity": 72}, {"time": 4410, "pitch": 59, "duration": 4, "velocity": 78}, {"time": 4410, "pitch": 63, "duration": 5, "velocity": 80}, {"time": 4416, "pitch": 56, "duration": 2, "velocity": 68}, {"time": 4422, "pitch": 37, "duration": 49, "velocity": 79}, {"time": 4422, "pitch": 56, "duration": 6, "velocity": 70}, {"time": 4422, "pitch": 61, "duration": 6, "velocity": 73}, {"time": 4434, "pitch": 56, "duration": 2, "velocity": 65}, {"time": 4434, "pitch": 61, "duration": 2, "velocity": 68}, {"time": 4434, "pitch": 64, "duration": 2, "velocity": 71}, {"time": 4440, "pitch": 56, "duration": 6, "velocity": 70}, {"time": 4440, "pitch": 61, "duration": 8, "velocity": 73}, {"time": 4440, "pitch": 64, "duration": 8, "velocity": 72}, {"time": 4446, "pitch": 44, "duration": 24, "velocity": 67}, {"time": 4452, "pitch": 56, "duration": 2, "velocity": 66}, {"time": 4458, "pitch": 56, "duration": 3, "velocity": 73}, {"time": 4458, "pitch": 61, "duration": 11, "velocity": 77}, {"time": 4458, "pitch": 64, "duration": 12, "velocity": 76}, {"time": 4464, "pitch": 56, "duration": 5, "velocity": 70}, {"time": 4470, "pitch": 49, "duration": 23, "velocity": 77}, {"time": 4470, "pitch": 56, "duration": 8, "velocity": 73}, {"time": 4470, "pitch": 61, "duration": 8, "velocity": 75}, {"time": 4482, "pitch": 56, "duration": 2, "velocity": 77}, {"time": 4482, "pitch": 64, "duration": 3, "velocity": 77}, {"time": 4488, "pitch": 56, "duration": 9, "velocity": 75}, {"time": 4488, "pitch": 61, "duration": 13, "velocity": 82}, {"time": 4488, "pitch": 64, "duration": 13, "velocity": 76}, {"time": 4494, "pitch": 44, "duration": 17, "velocity": 77}, {"time": 4500, "pitch": 56, "duration": 3, "velocity": 77}, {"time": 4506, "pitch": 56, "duration": 3, "velocity": 76}, {"time": 4506, "pitch": 61, "duration": 15, "velocity": 78}, {"time": 4506, "pitch": 64, "duration": 11, "velocity": 79}, {"time": 4512, "pitch": 56, "duration": 9, "velocity": 72}, {"time": 4518, "pitch": 49, "duration": 22, "velocity": 80}, {"time": 4530, "pitch": 56, "duration": 2, "velocity": 74}, {"time": 4530, "pitch": 61, "duration": 3, "velocity": 78}, {"time": 4530, "pitch": 64, "duration": 3, "velocity": 76}, {"time": 4536, "pitch": 56, "duration": 7, "velocity": 74}, {"time": 4536, "pitch": 61, "duration": 9, "velocity": 77}, {"time": 4536, "pitch": 64, "duration": 9, "velocity": 77}, {"time": 4542, "pitch": 44, "duration": 19, "velocity": 77}, {"time": 4548, "pitch": 56, "duration": 2, "velocity": 72}, {"time": 4554, "pitch": 56, "duration": 2, "velocity": 76}, {"time": 4554, "pitch": 61, "duration": 3, "velocity": 79}, {"time": 4554, "pitch": 64, "duration": 5, "velocity": 77}, {"time": 4560, "pitch": 56, "duration": 2, "velocity": 76}, {"time": 4566, "pitch": 44, "duration": 21, "velocity": 79}, {"time": 4566, "pitch": 56, "duration": 7, "velocity": 76}, {"time": 4566, "pitch": 59, "duration": 6, "velocity": 76}, {"time": 4578, "pitch": 56, "duration": 2, "velocity": 76}, {"time": 4578, "pitch": 59, "duration": 2, "velocity": 83}, {"time": 4578, "pitch": 63, "duration": 2, "velocity": 80}, {"time": 4584, "pitch": 56, "duration": 8, "velocity": 68}, {"time": 4584, "pitch": 59, "duration": 9, "velocity": 76}, {"time": 4584, "pitch": 63, "duration": 10, "velocity": 76}, {"time": 4590, "pitch": 51, "duration": 20, "velocity": 75}, {"time": 4596, "pitch": 56, "duration": 2, "velocity": 70}, {"time": 4596, "pitch": 59, "duration": 1, "velocity": 50}, {"time": 4602, "pitch": 56, "duration": 2, "velocity": 76}, {"time": 4602, "pitch": 59, "duration": 4, "velocity": 77}, {"time": 4602, "pitch": 63, "duration": 7, "velocity": 77}, {"time": 4608, "pitch": 56, "duration": 4, "velocity": 68}, {"time": 4614, "pitch": 49, "duration": 7, "velocity": 80}, {"time": 4614, "pitch": 56, "duration": 2, "velocity": 68}, {"time": 4614, "pitch": 61, "duration": 7, "velocity": 76}, {"time": 4614, "pitch": 64, "duration": 8, "velocity": 74}, {"time": 4620, "pitch": 56, "duration": 3, "velocity": 76}, {"time": 4626, "pitch": 47, "duration": 9, "velocity": 80}, {"time": 4626, "pitch": 54, "duration": 7, "velocity": 78}, {"time": 4626, "pitch": 59, "duration": 8, "velocity": 76}, {"time": 4638, "pitch": 49, "duration": 23, "velocity": 90}, {"time": 4638, "pitch": 56, "duration": 7, "velocity": 77}, {"time": 4638, "pitch": 61, "duration": 8, "velocity": 77}, {"time": 4650, "pitch": 56, "duration": 2, "velocity": 71}, {"time": 4650, "pitch": 61, "duration": 11, "velocity": 75}, {"time": 4650, "pitch": 64, "duration": 11, "velocity": 74}, {"time": 4656, "pitch": 56, "duration": 5, "velocity": 51}, {"time": 4662, "pitch": 44, "duration": 40, "velocity": 77}, {"time": 4662, "pitch": 56, "duration": 8, "velocity": 69}, {"time": 4662, "pitch": 63, "duration": 7, "velocity": 76}, {"time": 4668, "pitch": 51, "duration": 14, "velocity": 65}, {"time": 4674, "pitch": 56, "duration": 2, "velocity": 68}, {"time": 4674, "pitch": 59, "duration": 2, "velocity": 75}, {"time": 4680, "pitch": 56, "duration": 8, "velocity": 77}, {"time": 4680, "pitch": 59, "duration": 13, "velocity": 81}, {"time": 4686, "pitch": 51, "duration": 14, "velocity": 76}, {"time": 4692, "pitch": 56, "duration": 2, "velocity": 65}, {"time": 4698, "pitch": 56, "duration": 2, "velocity": 71}, {"time": 4698, "pitch": 59, "duration": 6, "velocity": 77}, {"time": 4698, "pitch": 63, "duration": 6, "velocity": 77}, {"time": 4704, "pitch": 56, "duration": 3, "velocity": 70}, {"time": 4710, "pitch": 45, "duration": 15, "velocity": 76}, {"time": 4710, "pitch": 57, "duration": 8, "velocity": 69}, {"time": 4710, "pitch": 61, "duration": 9, "velocity": 72}, {"time": 4716, "pitch": 52, "duration": 6, "velocity": 63}, {"time": 4722, "pitch": 57, "duration": 3, "velocity": 72}, {"time": 4722, "pitch": 61, "duration": 8, "velocity": 76}, {"time": 4722, "pitch": 64, "duration": 7, "velocity": 71}, {"time": 4728, "pitch": 57, "duration": 2, "velocity": 63}, {"time": 4734, "pitch": 47, "duration": 20, "velocity": 77}, {"time": 4734, "pitch": 54, "duration": 3, "velocity": 69}, {"time": 4734, "pitch": 59, "duration": 5, "velocity": 70}, {"time": 4740, "pitch": 54, "duration": 3, "velocity": 77}, {"time": 4740, "pitch": 59, "duration": 1, "velocity": 43}, {"time": 4746, "pitch": 54, "duration": 2, "velocity": 77}, {"time": 4746, "pitch": 59, "duration": 3, "velocity": 78}, {"time": 4746, "pitch": 63, "duration": 4, "velocity": 80}, {"time": 4758, "pitch": 44, "duration": 26, "velocity": 78}, {"time": 4758, "pitch": 56, "duration": 7, "velocity": 61}, {"time": 4758, "pitch": 59, "duration": 7, "velocity": 56}, {"time": 4770, "pitch": 56, "duration": 2, "velocity": 75}, {"time": 4770, "pitch": 59, "duration": 2, "velocity": 77}, {"time": 4776, "pitch": 56, "duration": 5, "velocity": 77}, {"time": 4776, "pitch": 59, "duration": 5, "velocity": 81}, {"time": 4782, "pitch": 51, "duration": 7, "velocity": 75}, {"time": 4788, "pitch": 56, "duration": 2, "velocity": 71}, {"time": 4794, "pitch": 56, "duration": 2, "velocity": 72}, {"time": 4794, "pitch": 59, "duration": 4, "velocity": 78}, {"time": 4794, "pitch": 63, "duration": 5, "velocity": 80}, {"time": 4800, "pitch": 56, "duration": 2, "velocity": 68}, {"time": 4806, "pitch": 37, "duration": 49, "velocity": 79}, {"time": 4806, "pitch": 56, "duration": 6, "velocity": 70}, {"time": 4806, "pitch": 61, "duration": 6, "velocity": 73}, {"time": 4818, "pitch": 56, "duration": 2, "velocity": 65}, {"time": 4818, "pitch": 61, "duration": 2, "velocity": 68}, {"time": 4818, "pitch": 64, "duration": 2, "velocity": 71}, {"time": 4824, "pitch": 56, "duration": 6, "velocity": 70}, {"time": 4824, "pitch": 61, "duration": 8, "velocity": 73}, {"time": 4824, "pitch": 64, "duration": 8, "velocity": 72}, {"time": 4830, "pitch": 44, "duration": 24, "velocity": 67}, {"time": 4836, "pitch": 56, "duration": 2, "velocity": 66}, {"time": 4842, "pitch": 56, "duration": 3, "velocity": 73}, {"time": 4842, "pitch": 61, "duration": 11, "velocity": 77}, {"time": 4842, "pitch": 64, "duration": 12, "velocity": 76}, {"time": 4848, "pitch": 56, "duration": 5, "velocity": 70}, {"time": 4854, "pitch": 49, "duration": 23, "velocity": 78}, {"time": 4854, "pitch": 56, "duration": 6, "velocity": 72}, {"time": 4854, "pitch": 61, "duration": 7, "velocity": 74}, {"time": 4866, "pitch": 56, "duration": 2, "velocity": 75}, {"time": 4866, "pitch": 61, "duration": 2, "velocity": 78}, {"time": 4866, "pitch": 64, "duration": 2, "velocity": 79}, {"time": 4872, "pitch": 56, "duration": 7, "velocity": 76}, {"time": 4872, "pitch": 61, "duration": 8, "velocity": 80}, {"time": 4872, "pitch": 64, "duration": 8, "velocity": 78}, {"time": 4878, "pitch": 44, "duration": 19, "velocity": 77}, {"time": 4884, "pitch": 56, "duration": 2, "velocity": 71}, {"time": 4890, "pitch": 56, "duration": 2, "velocity": 78}, {"time": 4890, "pitch": 61, "duration": 2, "velocity": 77}, {"time": 4890, "pitch": 64, "duration": 3, "velocity": 77}, {"time": 4896, "pitch": 56, "duration": 2, "velocity": 77}, {"time": 4902, "pitch": 49, "duration": 22, "velocity": 70}, {"time": 4902, "pitch": 56, "duration": 6, "velocity": 68}, {"time": 4902, "pitch": 61, "duration": 6, "velocity": 75}, {"time": 4914, "pitch": 61, "duration": 2, "velocity": 76}, {"time": 4914, "pitch": 64, "duration": 2, "velocity": 77}, {"time": 4920, "pitch": 61, "duration": 7, "velocity": 78}, {"time": 4920, "pitch": 64, "duration": 6, "velocity": 80}, {"time": 4926, "pitch": 44, "duration": 14, "velocity": 78}, {"time": 4932, "pitch": 56, "duration": 2, "velocity": 70}, {"time": 4938, "pitch": 61, "duration": 4, "velocity": 79}, {"time": 4938, "pitch": 64, "duration": 5, "velocity": 87}, {"time": 4944, "pitch": 56, "duration": 4, "velocity": 78}, {"time": 4944, "pitch": 61, "duration": 2, "velocity": 48}, {"time": 4950, "pitch": 49, "duration": 22, "velocity": 81}, {"time": 4950, "pitch": 56, "duration": 6, "velocity": 77}, {"time": 4950, "pitch": 61, "duration": 6, "velocity": 76}, {"time": 4962, "pitch": 56, "duration": 2, "velocity": 76}, {"time": 4962, "pitch": 64, "duration": 3, "velocity": 80}, {"time": 4968, "pitch": 56, "duration": 8, "velocity": 78}, {"time": 4968, "pitch": 64, "duration": 12, "velocity": 78}, {"time": 4974, "pitch": 44, "duration": 18, "velocity": 78}, {"time": 4980, "pitch": 56, "duration": 3, "velocity": 71}, {"time": 4986, "pitch": 61, "duration": 10, "velocity": 79}, {"time": 4986, "pitch": 64, "duration": 9, "velocity": 77}, {"time": 4992, "pitch": 56, "duration": 6, "velocity": 71}, {"time": 4998, "pitch": 49, "duration": 24, "velocity": 78}, {"time": 5004, "pitch": 56, "duration": 3, "velocity": 66}, {"time": 5010, "pitch": 61, "duration": 2, "velocity": 77}, {"time": 5010, "pitch": 64, "duration": 3, "velocity": 77}, {"time": 5016, "pitch": 56, "duration": 7, "velocity": 76}, {"time": 5016, "pitch": 61, "duration": 8, "velocity": 78}, {"time": 5016, "pitch": 64, "duration": 8, "velocity": 78}, {"time": 5022, "pitch": 44, "duration": 21, "velocity": 76}, {"time": 5028, "pitch": 56, "duration": 3, "velocity": 71}, {"time": 5034, "pitch": 56, "duration": 2, "velocity": 76}, {"time": 5034, "pitch": 61, "duration": 4, "velocity": 80}, {"time": 5034, "pitch": 64, "duration": 5, "velocity": 78}, {"time": 5040, "pitch": 56, "duration": 4, "velocity": 81}, {"time": 5040, "pitch": 61, "duration": 2, "velocity": 69}, {"time": 5040, "pitch": 64, "duration": 1, "velocity": 58}, {"time": 5046, "pitch": 44, "duration": 40, "velocity": 77}, {"time": 5046, "pitch": 56, "duration": 8, "velocity": 69}, {"time": 5046, "pitch": 63, "duration": 7, "velocity": 76}, {"time": 5052, "pitch": 51, "duration": 14, "velocity": 65}, {"time": 5058, "pitch": 56, "duration": 2, "velocity": 68}, {"time": 5058, "pitch": 59, "duration": 2, "velocity": 75}, {"time": 5064, "pitch": 56, "duration": 8, "velocity": 77}, {"time": 5064, "pitch": 59, "duration": 13, "velocity": 81}, {"time": 5070, "pitch": 51, "duration": 14, "velocity": 76}, {"time": 5076, "pitch": 56, "duration": 2, "velocity": 65}, {"time": 5082, "pitch": 56, "duration": 2, "velocity": 71}, {"time": 5082, "pitch": 59, "duration": 6, "velocity": 77}, {"time": 5082, "pitch": 63, "duration": 6, "velocity": 77}, {"time": 5088, "pitch": 56, "duration": 3, "velocity": 70}, {"time": 5094, "pitch": 45, "duration": 15, "velocity": 76}, {"time": 5094, "pitch": 57, "duration": 8, "velocity": 69}, {"time": 5094, "pitch": 61, "duration": 9, "velocity": 72}, {"time": 5100, "pitch": 52, "duration": 6, "velocity": 63}, {"time": 5106, "pitch": 57, "duration": 3, "velocity": 72}, {"time": 5106, "pitch": 61, "duration": 8, "velocity": 76}, {"time": 5106, "pitch": 64, "duration": 7, "velocity": 71}, {"time": 5112, "pitch": 57, "duration": 2, "velocity": 63}, {"time": 5118, "pitch": 47, "duration": 20, "velocity": 77}, {"time": 5118, "pitch": 54, "duration": 3, "velocity": 69}, {"time": 5118, "pitch": 59, "duration": 5, "velocity": 70}, {"time": 5124, "pitch": 54, "duration": 3, "velocity": 77}, {"time": 5124, "pitch": 59, "duration": 1, "velocity": 43}, {"time": 5130, "pitch": 54, "duration": 2, "velocity": 77}, {"time": 5130, "pitch": 59, "duration": 3, "velocity": 78}, {"time": 5130, "pitch": 63, "duration": 4, "velocity": 80}, {"time": 5142, "pitch": 44, "duration": 26, "velocity": 78}, {"time": 5142, "pitch": 56, "duration": 7, "velocity": 61}, {"time": 5142, "pitch": 59, "duration": 7, "velocity": 56}, {"time": 5154, "pitch": 56, "duration": 2, "velocity": 75}, {"time": 5154, "pitch": 59, "duration": 2, "velocity": 77}, {"time": 5160, "pitch": 56, "duration": 5, "velocity": 77}, {"time": 5160, "pitch": 59, "duration": 5, "velocity": 81}, {"time": 5166, "pitch": 51, "duration": 7, "velocity": 75}, {"time": 5172, "pitch": 56, "duration": 2, "velocity": 71}, {"time": 5178, "pitch": 56, "duration": 2, "velocity": 72}, {"time": 5178, "pitch": 59, "duration": 4, "velocity": 78}, {"time": 5178, "pitch": 63, "duration": 5, "velocity": 80}, {"time": 5184, "pitch": 56, "duration": 2, "velocity": 68}, {"time": 5190, "pitch": 37, "duration": 49, "velocity": 79}, {"time": 5190, "pitch": 56, "duration": 6, "velocity": 70}, {"time": 5190, "pitch": 61, "duration": 6, "velocity": 73}, {"time": 5202, "pitch": 56, "duration": 2, "velocity": 65}, {"time": 5202, "pitch": 61, "duration": 2, "velocity": 68}, {"time": 5202, "pitch": 64, "duration": 2, "velocity": 71}, {"time": 5208, "pitch": 56, "duration": 6, "velocity": 70}, {"time": 5208, "pitch": 61, "duration": 8, "velocity": 73}, {"time": 5208, "pitch": 64, "duration": 8, "velocity": 72}, {"time": 5214, "pitch": 44, "duration": 24, "velocity": 67}, {"time": 5220, "pitch": 56, "duration": 2, "velocity": 66}, {"time": 5226, "pitch": 56, "duration": 3, "velocity": 73}, {"time": 5226, "pitch": 61, "duration": 11, "velocity": 77}, {"time": 5226, "pitch": 64, "duration": 12, "velocity": 76}, {"time": 5232, "pitch": 56, "duration": 5, "velocity": 70}, {"time": 5238, "pitch": 49, "duration": 23, "velocity": 77}, {"time": 5238, "pitch": 56, "duration": 8, "velocity": 73}, {"time": 5238, "pitch": 61, "duration": 8, "velocity": 75}, {"time": 5250, "pitch": 56, "duration": 2, "velocity": 77}, {"time": 5250, "pitch": 64, "duration": 3, "velocity": 77}, {"time": 5256, "pitch": 56, "duration": 9, "velocity": 75}, {"time": 5256, "pitch": 61, "duration": 13, "velocity": 82}, {"time": 5256, "pitch": 64, "duration": 13, "velocity": 76}, {"time": 5262, "pitch": 44, "duration": 17, "velocity": 77}, {"time": 5268, "pitch": 56, "duration": 3, "velocity": 77}, {"time": 5274, "pitch": 56, "duration": 3, "velocity": 76}, {"time": 5274, "pitch": 61, "duration": 15, "velocity": 78}, {"time": 5274, "pitch": 64, "duration": 11, "velocity": 79}, {"time": 5280, "pitch": 56, "duration": 9, "velocity": 72}, {"time": 5286, "pitch": 49, "duration": 22, "velocity": 80}, {"time": 5298, "pitch": 56, "duration": 2, "velocity": 74}, {"time": 5298, "pitch": 61, "duration": 3, "velocity": 78}, {"time": 5298, "pitch": 64, "duration": 3, "velocity": 76}, {"time": 5304, "pitch": 56, "duration": 7, "velocity": 74}, {"time": 5304, "pitch": 61, "duration": 9, "velocity": 77}, {"time": 5304, "pitch": 64, "duration": 9, "velocity": 77}, {"time": 5310, "pitch": 44, "duration": 19, "velocity": 77}, {"time": 5316, "pitch": 56, "duration": 2, "velocity": 72}, {"time": 5322, "pitch": 56, "duration": 2, "velocity": 76}, {"time": 5322, "pitch": 61, "duration": 3, "velocity": 79}, {"time": 5322, "pitch": 64, "duration": 5, "velocity": 77}, {"time": 5328, "pitch": 56, "duration": 2, "velocity": 76}, {"time": 5334, "pitch": 44, "duration": 21, "velocity": 79}, {"time": 5334, "pitch": 56, "duration": 7, "velocity": 76}, {"time": 5334, "pitch": 59, "duration": 6, "velocity": 76}, {"time": 5346, "pitch": 56, "duration": 2, "velocity": 76}, {"time": 5346, "pitch": 59, "duration": 2, "velocity": 83}, {"time": 5346, "pitch": 63, "duration": 2, "velocity": 80}, {"time": 5352, "pitch": 56, "duration": 8, "velocity": 68}, {"time": 5352, "pitch": 59, "duration": 9, "velocity": 76}, {"time": 5352, "pitch": 63, "duration": 10, "velocity": 76}, {"time": 5358, "pitch": 51, "duration": 20, "velocity": 75}, {"time": 5364, "pitch": 56, "duration": 2, "velocity": 70}, {"time": 5364, "pitch": 59, "duration": 1, "velocity": 50}, {"time": 5370, "pitch": 56, "duration": 2, "velocity": 76}, {"time": 5370, "pitch": 59, "duration": 4, "velocity": 77}, {"time": 5370, "pitch": 63, "duration": 7, "velocity": 77}, {"time": 5376, "pitch": 56, "duration": 4, "velocity": 68}, {"time": 5382, "pitch": 49, "duration": 7, "velocity": 80}, {"time": 5382, "pitch": 56, "duration": 2, "velocity": 68}, {"time": 5382, "pitch": 61, "duration": 7, "velocity": 76}, {"time": 5382, "pitch": 64, "duration": 8, "velocity": 74}, {"time": 5388, "pitch": 56, "duration": 3, "velocity": 76}, {"time": 5394, "pitch": 47, "duration": 9, "velocity": 80}, {"time": 5394, "pitch": 54, "duration": 7, "velocity": 78}, {"time": 5394, "pitch": 59, "duration": 8, "velocity": 76}, {"time": 5406, "pitch": 49, "duration": 23, "velocity": 90}, {"time": 5406, "pitch": 56, "duration": 7, "velocity": 77}, {"time": 5406, "pitch": 61, "duration": 8, "velocity": 77}, {"time": 5418, "pitch": 56, "duration": 2, "velocity": 71}, {"time": 5418, "pitch": 61, "duration": 11, "velocity": 75}, {"time": 5418, "pitch": 64, "duration": 11, "velocity": 74}, {"time": 5424, "pitch": 56, "duration": 5, "velocity": 51}, {"time": 5430, "pitch": 44, "duration": 40, "velocity": 77}, {"time": 5430, "pitch": 56, "duration": 8, "velocity": 69}, {"time": 5430, "pitch": 63, "duration": 7, "velocity": 76}, {"time": 5436, "pitch": 51, "duration": 14, "velocity": 65}, {"time": 5442, "pitch": 56, "duration": 2, "velocity": 68}, {"time": 5442, "pitch": 59, "duration": 2, "velocity": 75}, {"time": 5448, "pitch": 56, "duration": 8, "velocity": 77}, {"time": 5448, "pitch": 59, "duration": 13, "velocity": 81}, {"time": 5454, "pitch": 51, "duration": 14, "velocity": 76}, {"time": 5460, "pitch": 56, "duration": 2, "velocity": 65}, {"time": 5466, "pitch": 56, "duration": 2, "velocity": 71}, {"time": 5466, "pitch": 59, "duration": 6, "velocity": 77}, {"time": 5466, "pitch": 63, "duration": 6, "velocity": 77}, {"time": 5472, "pitch": 56, "duration": 3, "velocity": 70}, {"time": 5478, "pitch": 45, "duration": 15, "velocity": 76}, {"time": 5478, "pitch": 57, "duration": 8, "velocity": 69}, {"time": 5478, "pitch": 61, "duration": 9, "velocity": 72}, {"time": 5484, "pitch": 52, "duration": 6, "velocity": 63}, {"time": 5490, "pitch": 57, "duration": 3, "velocity": 72}, {"time": 5490, "pitch": 61, "duration": 8, "velocity": 76}, {"time": 5490, "pitch": 64, "duration": 7, "velocity": 71}, {"time": 5496, "pitch": 57, "duration": 2, "velocity": 63}, {"time": 5502, "pitch": 47, "duration": 20, "velocity": 77}, {"time": 5502, "pitch": 54, "duration": 3, "velocity": 69}, {"time": 5502, "pitch": 59, "duration": 5, "velocity": 70}, {"time": 5508, "pitch": 54, "duration": 3, "velocity": 77}, {"time": 5508, "pitch": 59, "duration": 1, "velocity": 43}, {"time": 5514, "pitch": 54, "duration": 2, "velocity": 77}, {"time": 5514, "pitch": 59, "duration": 3, "velocity": 78}, {"time": 5514, "pitch": 63, "duration": 4, "velocity": 80}, {"time": 5526, "pitch": 44, "duration": 26, "velocity": 78}, {"time": 5526, "pitch": 56, "duration": 7, "velocity": 61}, {"time": 5526, "pitch": 59, "duration": 7, "velocity": 56}, {"time": 5538, "pitch": 56, "duration": 2, "velocity": 75}, {"time": 5538, "pitch": 59, "duration": 2, "velocity": 77}, {"time": 5544, "pitch": 56, "duration": 5, "velocity": 77}, {"time": 5544, "pitch": 59, "duration": 5, "velocity": 81}, {"time": 5550, "pitch": 51, "duration": 7, "velocity": 75}, {"time": 5556, "pitch": 56, "duration": 2, "velocity": 71}, {"time": 5562, "pitch": 56, "duration": 2, "velocity": 72}, {"time": 5562, "pitch": 59, "duration": 4, "velocity": 78}, {"time": 5562, "pitch": 63, "duration": 5, "velocity": 80}, {"time": 5568, "pitch": 56, "duration": 2, "velocity": 68}, {"time": 5574, "pitch": 37, "duration": 49, "velocity": 79}, {"time": 5574, "pitch": 56, "duration": 6, "velocity": 70}, {"time": 5574, "pitch": 61, "duration": 6, "velocity": 73}, {"time": 5586, "pitch": 56, "duration": 2, "velocity": 65}, {"time": 5586, "pitch": 61, "duration": 2, "velocity": 68}, {"time": 5586, "pitch": 64, "duration": 2, "velocity": 71}, {"time": 5592, "pitch": 56, "duration": 6, "velocity": 70}, {"time": 5592, "pitch": 61, "duration": 8, "velocity": 73}, {"time": 5592, "pitch": 64, "duration": 8, "velocity": 72}, {"time": 5598, "pitch": 44, "duration": 24, "velocity": 67}, {"time": 5604, "pitch": 56, "duration": 2, "velocity": 66}, {"time": 5610, "pitch": 56, "duration": 3, "velocity": 73}, {"time": 5610, "pitch": 61, "duration": 11, "velocity": 77}, {"time": 5610, "pitch": 64, "duration": 12, "velocity": 76}, {"time": 5616, "pitch": 56, "duration": 5, "velocity": 70}, {"time": 5622, "pitch": 49, "duration": 23, "velocity": 77}, {"time": 5622, "pitch": 56, "duration": 8, "velocity": 73}, {"time": 5622, "pitch": 61, "duration": 8, "velocity": 75}, {"time": 5634, "pitch": 56, "duration": 2, "velocity": 77}, {"time": 5634, "pitch": 64, "duration": 3, "velocity": 77}, {"time": 5640, "pitch": 56, "duration": 9, "velocity": 75}, {"time": 5640, "pitch": 61, "duration": 13, "velocity": 82}, {"time": 5640, "pitch": 64, "duration": 13, "velocity": 76}, {"time": 5646, "pitch": 44, "duration": 17, "velocity": 77}, {"time": 5652, "pitch": 56, "duration": 3, "velocity": 77}, {"time": 5658, "pitch": 56, "duration": 3, "velocity": 76}, {"time": 5658, "pitch": 61, "duration": 15, "velocity": 78}, {"time": 5658, "pitch": 64, "duration": 11, "velocity": 79}, {"time": 5664, "pitch": 56, "duration": 9, "velocity": 72}, {"time": 5670, "pitch": 49, "duration": 22, "velocity": 80}, {"time": 5682, "pitch": 56, "duration": 2, "velocity": 74}, {"time": 5682, "pitch": 61, "duration": 3, "velocity": 78}, {"time": 5682, "pitch": 64, "duration": 3, "velocity": 76}, {"time": 5688, "pitch": 56, "duration": 7, "velocity": 74}, {"time": 5688, "pitch": 61, "duration": 9, "velocity": 77}, {"time": 5688, "pitch": 64, "duration": 9, "velocity": 77}, {"time": 5694, "pitch": 44, "duration": 19, "velocity": 77}, {"time": 5700, "pitch": 56, "duration": 2, "velocity": 72}, {"time": 5706, "pitch": 56, "duration": 2, "velocity": 76}, {"time": 5706, "pitch": 61, "duration": 3, "velocity": 79}, {"time": 5706, "pitch": 64, "duration": 5, "velocity": 77}, {"time": 5712, "pitch": 56, "duration": 2, "velocity": 76}, {"time": 5718, "pitch": 44, "duration": 21, "velocity": 79}, {"time": 5718, "pitch": 56, "duration": 7, "velocity": 76}, {"time": 5718, "pitch": 59, "duration": 6, "velocity": 76}, {"time": 5730, "pitch": 56, "duration": 2, "velocity": 76}, {"time": 5730, "pitch": 59, "duration": 2, "velocity": 83}, {"time": 5730, "pitch": 63, "duration": 2, "velocity": 80}, {"time": 5736, "pitch": 56, "duration": 8, "velocity": 68}, {"time": 5736, "pitch": 59, "duration": 9, "velocity": 76}, {"time": 5736, "pitch": 63, "duration": 10, "velocity": 76}, {"time": 5742, "pitch": 51, "duration": 20, "velocity": 75}, {"time": 5748, "pitch": 56, "duration": 2, "velocity": 70}, {"time": 5748, "pitch": 59, "duration": 1, "velocity": 50}, {"time": 5754, "pitch": 56, "duration": 2, "velocity": 76}, {"time": 5754, "pitch": 59, "duration": 4, "velocity": 77}, {"time": 5754, "pitch": 63, "duration": 7, "velocity": 77}, {"time": 5760, "pitch": 56, "duration": 4, "velocity": 68}, {"time": 5766, "pitch": 49, "duration": 7, "velocity": 80}, {"time": 5766, "pitch": 56, "duration": 2, "velocity": 68}, {"time": 5766, "pitch": 61, "duration": 7, "velocity": 76}, {"time": 5766, "pitch": 64, "duration": 8, "velocity": 74}, {"time": 5772, "pitch": 56, "duration": 3, "velocity": 76}, {"time": 5778, "pitch": 47, "duration": 9, "velocity": 80}, {"time": 5778, "pitch": 54, "duration": 7, "velocity": 78}, {"time": 5778, "pitch": 59, "duration": 8, "velocity": 76}, {"time": 5790, "pitch": 49, "duration": 23, "velocity": 90}, {"time": 5790, "pitch": 56, "duration": 29, "velocity": 77}, {"time": 5790, "pitch": 61, "duration": 30, "velocity": 77}], "annotations": [{"time": 54, "annotation": {"number": 64, "value": 127}, "group": "control_change"}, {"time": 98, "annotation": {"number": 64, "value": 0}, "group": "control_change"}, {"time": 103, "annotation": {"number": 64, "value": 127}, "group": "control_change"}, {"time": 123, "annotation": {"number": 64, "value": 0}, "group": "control_change"}, {"time": 126, "annotation": {"number": 64, "value": 127}, "group": "control_change"}, {"time": 147, "annotation": {"number": 64, "value": 0}, "group": "control_change"}, {"time": 150, "annotation": {"number": 64, "value": 127}, "group": "control_change"}, {"time": 170, "annotation": {"number": 64, "value": 0}, "group": "control_change"}, {"time": 174, "annotation": {"number": 64, "value": 127}, "group": "control_change"}, {"time": 195, "annotation": {"number": 64, "value": 0}, "group": "control_change"}, {"time": 197, "annotation": {"number": 64, "value": 127}, "group": "control_change"}, {"time": 241, "annotation": {"number": 64, "value": 0}, "group": "control_change"}, {"time": 245, "annotation": {"number": 64, "value": 127}, "group": "control_change"}, {"time": 268, "annotation": {"number": 64, "value": 0}, "group": "control_change"}, {"time": 270, "annotation": {"number": 64, "value": 127}, "group": "control_change"}, {"time": 290, "annotation": {"number": 64, "value": 0}, "group": "control_change"}, {"time": 294, "annotation": {"number": 64, "value": 127}, "group": "control_change"}, {"time": 317, "annotation": {"number": 64, "value": 0}, "group": "control_change"}, {"time": 320, "annotation": {"number": 64, "value": 127}, "group": "control_change"}, {"time": 339, "annotation": {"number": 64, "value": 0}, "group": "control_change"}, {"time": 342, "annotation": {"number": 64, "value": 127}, "group": "control_change"}, {"time": 364, "annotation": {"number": 64, "value": 0}, "group": "control_change"}, {"time": 367, "annotation": {"number": 64, "value": 127}, "group": "control_change"}, {"time": 387, "annotation": {"number": 64, "value": 0}, "group": "control_change"}, {"time": 390, "annotation": {"number": 64, "value": 127}, "group": "control_change"}, {"time": 412, "annotation": {"number": 64, "value": 0}, "group": "control_change"}, {"time": 414, "annotation": {"number": 64, "value": 127}, "group": "control_change"}, {"time": 433, "annotation": {"number": 64, "value": 0}, "group": "control_change"}, {"time": 436, "annotation": {"number": 64, "value": 127}, "group": "control_change"}, {"time": 436, "annotation": {"number": 64, "value": 0}, "group": "control_change"}, {"time": 461, "annotation": {"number": 64, "value": 0}, "group": "control_change"}, {"time": 465, "annotation": {"number": 64, "value": 127}, "group": "control_change"}, {"time": 483, "annotation": {"number": 64, "value": 0}, "group": "control_change"}, {"time": 486, "annotation": {"number": 64, "value": 127}, "group": "control_change"}, {"time": 508, "annotation": {"number": 64, "value": 0}, "group": "control_change"}, {"time": 511, "annotation": {"number": 64, "value": 127}, "group": "control_change"}, {"time": 530, "annotation": {"number": 64, "value": 0}, "group": "control_change"}, {"time": 534, "annotation": {"number": 64, "value": 127}, "group": "control_change"}, {"time": 555, "annotation": {"number": 64, "value": 0}, "group": "control_change"}, {"time": 558, "annotation": {"number": 64, "value": 127}, "group": "control_change"}, {"time": 578, "annotation": {"number": 64, "value": 0}, "group": "control_change"}, {"time": 579, "annotation": {"number": 64, "value": 127}, "group": "control_change"}, {"time": 579, "annotation": {"number": 64, "value": 0}, "group": "control_change"}, {"time": 582, "annotation": {"number": 64, "value": 127}, "group": "control_change"}, {"time": 592, "annotation": {"number": 64, "value": 0}, "group": "control_change"}, {"time": 594, "annotation": {"number": 64, "value": 127}, "group": "control_change"}, {"time": 602, "annotation": {"number": 64, "value": 0}, "group": "control_change"}, {"time": 606, "annotation": {"number": 64, "value": 127}, "group": "control_change"}, {"time": 625, "annotation": {"number": 64, "value": 0}, "group": "control_change"}, {"time": 630, "annotation": {"number": 64, "value": 127}, "group": "control_change"}, {"time": 630, "annotation": {"number": 64, "value": 0}, "group": "control_change"}, {"time": 676, "annotation": {"number": 64, "value": 0}, "group": "control_change"}, {"time": 680, "annotation": {"number": 64, "value": 127}, "group": "control_change"}, {"time": 723, "annotation": {"number": 64, "value": 0}, "group": "control_change"}, {"time": 727, "annotation": {"number": 64, "value": 127}, "group": "control_change"}, {"time": 769, "annotation": {"number": 64, "value": 0}, "group": "control_change"}, {"time": 773, "annotation": {"number": 64, "value": 127}, "group": "control_change"}, {"time": 794, "annotation": {"number": 64, "value": 0}, "group": "control_change"}, {"time": 799, "annotation": {"number": 64, "value": 127}, "group": "control_change"}, {"time": 819, "annotation": {"number": 64, "value": 0}, "group": "control_change"}, {"time": 823, "annotation": {"number": 64, "value": 127}, "group": "control_change"}, {"time": 844, "annotation": {"number": 64, "value": 0}, "group": "control_change"}, {"time": 846, "annotation": {"number": 64, "value": 127}, "group": "control_change"}, {"time": 867, "annotation": {"number": 64, "value": 0}, "group": "control_change"}, {"time": 869, "annotation": {"number": 64, "value": 127}, "group": "control_change"}, {"time": 870, "annotation": {"number": 64, "value": 0}, "group": "control_change"}, {"time": 870, "annotation": {"number": 64, "value": 127}, "group": "control_change"}, {"time": 892, "annotation": {"number": 64, "value": 0}, "group": "control_change"}, {"time": 898, "annotation": {"number": 64, "value": 127}, "group": "control_change"}, {"time": 915, "annotation": {"number": 64, "value": 0}, "group": "control_change"}, {"time": 921, "annotation": {"number": 64, "value": 127}, "group": "control_change"}, {"time": 961, "annotation": {"number": 64, "value": 0}, "group": "control_change"}, {"time": 969, "annotation": {"number": 64, "value": 127}, "group": "control_change"}, {"time": 1009, "annotation": {"number": 64, "value": 0}, "group": "control_change"}, {"time": 1014, "annotation": {"number": 64, "value": 127}, "group": "control_change"}, {"time": 1014, "annotation": {"number": 64, "value": 0}, "group": "control_change"}, {"time": 1035, "annotation": {"number": 64, "value": 0}, "group": "control_change"}, {"time": 1039, "annotation": {"number": 64, "value": 127}, "group": "control_change"}, {"time": 1058, "annotation": {"number": 64, "value": 0}, "group": "control_change"}, {"time": 1062, "annotation": {"number": 64, "value": 127}, "group": "control_change"}, {"time": 1084, "annotation": {"number": 64, "value": 0}, "group": "control_change"}, {"time": 1088, "annotation": {"number": 64, "value": 127}, "group": "control_change"}, {"time": 1110, "annotation": {"number": 64, "value": 0}, "group": "control_change"}, {"time": 1117, "annotation": {"number": 64, "value": 127}, "group": "control_change"}, {"time": 1152, "annotation": {"number": 64, "value": 0}, "group": "control_change"}, {"time": 1158, "annotation": {"number": 64, "value": 127}, "group": "control_change"}, {"time": 1197, "annotation": {"number": 64, "value": 0}, "group": "control_change"}, {"time": 1206, "annotation": {"number": 64, "value": 127}, "group": "control_change"}, {"time": 1206, "annotation": {"number": 64, "value": 0}, "group": "control_change"}, {"time": 1252, "annotation": {"number": 64, "value": 0}, "group": "control_change"}, {"time": 1256, "annotation": {"number": 64, "value": 127}, "group": "control_change"}, {"time": 1299, "annotation": {"number": 64, "value": 0}, "group": "control_change"}, {"time": 1303, "annotation": {"number": 64, "value": 127}, "group": "control_change"}, {"time": 1345, "annotation": {"number": 64, "value": 0}, "group": "control_change"}, {"time": 1349, "annotation": {"number": 64, "value": 127}, "group": "control_change"}, {"time": 1370, "annotation": {"number": 64, "value": 0}, "group": "control_change"}, {"time": 1375, "annotation": {"number": 64, "value": 127}, "group": "control_change"}, {"time": 1395, "annotation": {"number": 64, "value": 0}, "group": "control_change"}, {"time": 1399, "annotation": {"number": 64, "value": 127}, "group": "control_change"}, {"time": 1420, "annotation": {"number": 64, "value": 0}, "group": "control_change"}, {"time": 1422, "annotation": {"number": 64, "value": 127}, "group": "control_change"}, {"time": 1443, "annotation": {"number": 64, "value": 0}, "group": "control_change"}, {"time": 1445, "annotation": {"number": 64, "value": 127}, "group": "control_change"}, {"time": 1446, "annotation": {"number": 64, "value": 0}, "group": "control_change"}, {"time": 1446, "annotation": {"number": 64, "value": 127}, "group": "control_change"}, {"time": 1468, "annotation": {"number": 64, "value": 0}, "group": "control_change"}, {"time": 1474, "annotation": {"number": 64, "value": 127}, "group": "control_change"}, {"time": 1491, "annotation": {"number": 64, "value": 0}, "group": "control_change"}, {"time": 1497, "annotation": {"number": 64, "value": 127}, "group": "control_change"}, {"time": 1537, "annotation": {"number": 64, "value": 0}, "group": "control_change"}, {"time": 1545, "annotation": {"number": 64, "value": 127}, "group": "control_change"}, {"time": 1585, "annotation": {"number": 64, "value": 0}, "group": "control_change"}, {"time": 1590, "annotation": {"number": 64, "value": 127}, "group": "control_change"}, {"time": 1590, "annotation": {"number": 64, "value": 0}, "group": "control_change"}, {"time": 1611, "annotation": {"number": 64, "value": 0}, "group": "control_change"}, {"time": 1615, "annotation": {"number": 64, "value": 127}, "group": "control_change"}, {"time": 1634, "annotation": {"number": 64, "value": 0}, "group": "control_change"}, {"time": 1638, "annotation": {"number": 64, "value": 127}, "group": "control_change"}, {"time": 1660, "annotation": {"number": 64, "value": 0}, "group": "control_change"}, {"time": 1664, "annotation": {"number": 64, "value": 127}, "group": "control_change"}, {"time": 1686, "annotation": {"number": 64, "value": 0}, "group": "control_change"}, {"time": 1693, "annotation": {"number": 64, "value": 127}, "group": "control_change"}, {"time": 1728, "annotation": {"number": 64, "value": 0}, "group": "control_change"}, {"time": 1734, "annotation": {"number": 64, "value": 127}, "group": "control_change"}, {"time": 1773, "annotation": {"number": 64, "value": 0}, "group": "control_change"}, {"time": 1782, "annotation": {"number": 64, "value": 127}, "group": "control_change"}, {"time": 1782, "annotation": {"number": 64, "value": 0}, "group": "control_change"}, {"time": 1828, "annotation": {"number": 64, "value": 0}, "group": "control_change"}, {"time": 1832, "annotation": {"number": 64, "value": 127}, "group": "control_change"}, {"time": 1875, "annotation": {"number": 64, "value": 0}, "group": "control_change"}, {"time": 1879, "annotation": {"number": 64, "value": 127}, "group": "control_change"}, {"time": 1921, "annotation": {"number": 64, "value": 0}, "group": "control_change"}, {"time": 1925, "annotation": {"number": 64, "value": 127}, "group": "control_change"}, {"time": 1946, "annotation": {"number": 64, "value": 0}, "group": "control_change"}, {"time": 1951, "annotation": {"number": 64, "value": 127}, "group": "control_change"}, {"time": 1971, "annotation": {"number": 64, "value": 0}, "group": "control_change"}, {"time": 1975, "annotation": {"number": 64, "value": 127}, "group": "control_change"}, {"time": 1996, "annotation": {"number": 64, "value": 0}, "group": "control_change"}, {"time": 1998, "annotation": {"number": 64, "value": 127}, "group": "control_change"}, {"time": 2019, "annotation": {"number": 64, "value": 0}, "group": "control_change"}, {"time": 2021, "annotation": {"number": 64, "value": 127}, "group": "control_change"}, {"time": 2022, "annotation": {"number": 64, "value": 0}, "group": "control_change"}, {"time": 2022, "annotation": {"number": 64, "value": 127}, "group": "control_change"}, {"time": 2044, "annotation": {"number": 64, "value": 0}, "group": "control_change"}, {"time": 2050, "annotation": {"number": 64, "value": 127}, "group": "control_change"}, {"time": 2067, "annotation": {"number": 64, "value": 0}, "group": "control_change"}, {"time": 2073, "annotation": {"number": 64, "value": 127}, "group": "control_change"}, {"time": 2113, "annotation": {"number": 64, "value": 0}, "group": "control_change"}, {"time": 2121, "annotation": {"number": 64, "value": 127}, "group": "control_change"}, {"time": 2161, "annotation": {"number": 64, "value": 0}, "group": "control_change"}, {"time": 2166, "annotation": {"number": 64, "value": 127}, "group": "control_change"}, {"time": 2166, "annotation": {"number": 64, "value": 0}, "group": "control_change"}, {"time": 2187, "annotation": {"number": 64, "value": 0}, "group": "control_change"}, {"time": 2191, "annotation": {"number": 64, "value": 127}, "group": "control_change"}, {"time": 2210, "annotation": {"number": 64, "value": 0}, "group": "control_change"}, {"time": 2214, "annotation": {"number": 64, "value": 127}, "group": "control_change"}, {"time": 2236, "annotation": {"number": 64, "value": 0}, "group": "control_change"}, {"time": 2240, "annotation": {"number": 64, "value": 127}, "group": "control_change"}, {"time": 2262, "annotation": {"number": 64, "value": 0}, "group": "control_change"}, {"time": 2269, "annotation": {"number": 64, "value": 127}, "group": "control_change"}, {"time": 2304, "annotation": {"number": 64, "value": 0}, "group": "control_change"}, {"time": 2310, "annotation": {"number": 64, "value": 127}, "group": "control_change"}, {"time": 2349, "annotation": {"number": 64, "value": 0}, "group": "control_change"}, {"time": 2358, "annotation": {"number": 64, "value": 127}, "group": "control_change"}, {"time": 2358, "annotation": {"number": 64, "value": 0}, "group": "control_change"}, {"time": 2404, "annotation": {"number": 64, "value": 0}, "group": "control_change"}, {"time": 2408, "annotation": {"number": 64, "value": 127}, "group": "control_change"}, {"time": 2451, "annotation": {"number": 64, "value": 0}, "group": "control_change"}, {"time": 2455, "annotation": {"number": 64, "value": 127}, "group": "control_change"}, {"time": 2497, "annotation": {"number": 64, "value": 0}, "group": "control_change"}, {"time": 2501, "annotation": {"number": 64, "value": 127}, "group": "control_change"}, {"time": 2522, "annotation": {"number": 64, "value": 0}, "group": "control_change"}, {"time": 2527, "annotation": {"number": 64, "value": 127}, "group": "control_change"}, {"time": 2547, "annotation": {"number": 64, "value": 0}, "group": "control_change"}, {"time": 2551, "annotation": {"number": 64, "value": 127}, "group": "control_change"}, {"time": 2572, "annotation": {"number": 64, "value": 0}, "group": "control_change"}, {"time": 2574, "annotation": {"number": 64, "value": 127}, "group": "control_change"}, {"time": 2595, "annotation": {"number": 64, "value": 0}, "group": "control_change"}, {"time": 2597, "annotation": {"number": 64, "value": 127}, "group": "control_change"}, {"time": 2598, "annotation": {"number": 64, "value": 0}, "group": "control_change"}, {"time": 2598, "annotation": {"number": 64, "value": 127}, "group": "control_change"}, {"time": 2620, "annotation": {"number": 64, "value": 0}, "group": "control_change"}, {"time": 2626, "annotation": {"number": 64, "value": 127}, "group": "control_change"}, {"time": 2643, "annotation": {"number": 64, "value": 0}, "group": "control_change"}, {"time": 2649, "annotation": {"number": 64, "value": 127}, "group": "control_change"}, {"time": 2689, "annotation": {"number": 64, "value": 0}, "group": "control_change"}, {"time": 2697, "annotation": {"number": 64, "value": 127}, "group": "control_change"}, {"time": 2737, "annotation": {"number": 64, "value": 0}, "group": "control_change"}, {"time": 2742, "annotation": {"number": 64, "value": 127}, "group": "control_change"}, {"time": 2742, "annotation": {"number": 64, "value": 0}, "group": "control_change"}, {"time": 2763, "annotation": {"number": 64, "value": 0}, "group": "control_change"}, {"time": 2767, "annotation": {"number": 64, "value": 127}, "group": "control_change"}, {"time": 2786, "annotation": {"number": 64, "value": 0}, "group": "control_change"}, {"time": 2790, "annotation": {"number": 64, "value": 127}, "group": "control_change"}, {"time": 2812, "annotation": {"number": 64, "value": 0}, "group": "control_change"}, {"time": 2816, "annotation": {"number": 64, "value": 127}, "group": "control_change"}, {"time": 2838, "annotation": {"number": 64, "value": 0}, "group": "control_change"}, {"time": 2845, "annotation": {"number": 64, "value": 127}, "group": "control_change"}, {"time": 2880, "annotation": {"number": 64, "value": 0}, "group": "control_change"}, {"time": 2886, "annotation": {"number": 64, "value": 127}, "group": "control_change"}, {"time": 2925, "annotation": {"number": 64, "value": 0}, "group": "control_change"}, {"time": 2956, "annotation": {"number": 64, "value": 0}, "group": "control_change"}, {"time": 2958, "annotation": {"number": 64, "value": 127}, "group": "control_change"}, {"time": 2978, "annotation": {"number": 64, "value": 0}, "group": "control_change"}, {"time": 2982, "annotation": {"number": 64, "value": 127}, "group": "control_change"}, {"time": 3005, "annotation": {"number": 64, "value": 0}, "group": "control_change"}, {"time": 3008, "annotation": {"number": 64, "value": 127}, "group": "control_change"}, {"time": 3027, "annotation": {"number": 64, "value": 0}, "group": "control_change"}, {"time": 3030, "annotation": {"number": 64, "value": 127}, "group": "control_change"}, {"time": 3052, "annotation": {"number": 64, "value": 0}, "group": "control_change"}, {"time": 3055, "annotation": {"number": 64, "value": 127}, "group": "control_change"}, {"time": 3075, "annotation": {"number": 64, "value": 0}, "group": "control_change"}, {"time": 3078, "annotation": {"number": 64, "value": 127}, "group": "control_change"}, {"time": 3100, "annotation": {"number": 64, "value": 0}, "group": "control_change"}, {"time": 3102, "annotation": {"number": 64, "value": 127}, "group": "control_change"}, {"time": 3121, "annotation": {"number": 64, "value": 0}, "group": "control_change"}, {"time": 3124, "annotation": {"number": 64, "value": 127}, "group": "control_change"}, {"time": 3124, "annotation": {"number": 64, "value": 0}, "group": "control_change"}, {"time": 3149, "annotation": {"number": 64, "value": 0}, "group": "control_change"}, {"time": 3153, "annotation": {"number": 64, "value": 127}, "group": "control_change"}, {"time": 3171, "annotation": {"number": 64, "value": 0}, "group": "control_change"}, {"time": 3174, "annotation": {"number": 64, "value": 127}, "group": "control_change"}, {"time": 3196, "annotation": {"number": 64, "value": 0}, "group": "control_change"}, {"time": 3199, "annotation": {"number": 64, "value": 127}, "group": "control_change"}, {"time": 3218, "annotation": {"number": 64, "value": 0}, "group": "control_change"}, {"time": 3222, "annotation": {"number": 64, "value": 127}, "group": "control_change"}, {"time": 3243, "annotation": {"number": 64, "value": 0}, "group": "control_change"}, {"time": 3246, "annotation": {"number": 64, "value": 127}, "group": "control_change"}, {"time": 3266, "annotation": {"number": 64, "value": 0}, "group": "control_change"}, {"time": 3267, "annotation": {"number": 64, "value": 127}, "group": "control_change"}, {"time": 3267, "annotation": {"number": 64, "value": 0}, "group": "control_change"}, {"time": 3270, "annotation": {"number": 64, "value": 127}, "group": "control_change"}, {"time": 3280, "annotation": {"number": 64, "value": 0}, "group": "control_change"}, {"time": 3282, "annotation": {"number": 64, "value": 127}, "group": "control_change"}, {"time": 3290, "annotation": {"number": 64, "value": 0}, "group": "control_change"}, {"time": 3294, "annotation": {"number": 64, "value": 127}, "group": "control_change"}, {"time": 3313, "annotation": {"number": 64, "value": 0}, "group": "control_change"}, {"time": 3318, "annotation": {"number": 64, "value": 127}, "group": "control_change"}, {"time": 3318, "annotation": {"number": 64, "value": 0}, "group": "control_change"}, {"time": 3364, "annotation": {"number": 64, "value": 0}, "group": "control_change"}, {"time": 3368, "annotation": {"number": 64, "value": 127}, "group": "control_change"}, {"time": 3411, "annotation": {"number": 64, "value": 0}, "group": "control_change"}, {"time": 3415, "annotation": {"number": 64, "value": 127}, "group": "control_change"}, {"time": 3457, "annotation": {"number": 64, "value": 0}, "group": "control_change"}, {"time": 3461, "annotation": {"number": 64, "value": 127}, "group": "control_change"}, {"time": 3482, "annotation": {"number": 64, "value": 0}, "group": "control_change"}, {"time": 3487, "annotation": {"number": 64, "value": 127}, "group": "control_change"}, {"time": 3507, "annotation": {"number": 64, "value": 0}, "group": "control_change"}, {"time": 3511, "annotation": {"number": 64, "value": 127}, "group": "control_change"}, {"time": 3532, "annotation": {"number": 64, "value": 0}, "group": "control_change"}, {"time": 3534, "annotation": {"number": 64, "value": 127}, "group": "control_change"}, {"time": 3555, "annotation": {"number": 64, "value": 0}, "group": "control_change"}, {"time": 3557, "annotation": {"number": 64, "value": 127}, "group": "control_change"}, {"time": 3558, "annotation": {"number": 64, "value": 0}, "group": "control_change"}, {"time": 3558, "annotation": {"number": 64, "value": 127}, "group": "control_change"}, {"time": 3580, "annotation": {"number": 64, "value": 0}, "group": "control_change"}, {"time": 3586, "annotation": {"number": 64, "value": 127}, "group": "control_change"}, {"time": 3603, "annotation": {"number": 64, "value": 0}, "group": "control_change"}, {"time": 3609, "annotation": {"number": 64, "value": 127}, "group": "control_change"}, {"time": 3649, "annotation": {"number": 64, "value": 0}, "group": "control_change"}, {"time": 3657, "annotation": {"number": 64, "value": 127}, "group": "control_change"}, {"time": 3697, "annotation": {"number": 64, "value": 0}, "group": "control_change"}, {"time": 3702, "annotation": {"number": 64, "value": 127}, "group": "control_change"}, {"time": 3702, "annotation": {"number": 64, "value": 0}, "group": "control_change"}, {"time": 3723, "annotation": {"number": 64, "value": 0}, "group": "control_change"}, {"time": 3727, "annotation": {"number": 64, "value": 127}, "group": "control_change"}, {"time": 3746, "annotation": {"number": 64, "value": 0}, "group": "control_change"}, {"time": 3750, "annotation": {"number": 64, "value": 127}, "group": "control_change"}, {"time": 3772, "annotation": {"number": 64, "value": 0}, "group": "control_change"}, {"time": 3776, "annotation": {"number": 64, "value": 127}, "group": "control_change"}, {"time": 3798, "annotation": {"number": 64, "value": 0}, "group": "control_change"}, {"time": 3805, "annotation": {"number": 64, "value": 127}, "group": "control_change"}, {"time": 3840, "annotation": {"number": 64, "value": 0}, "group": "control_change"}, {"time": 3846, "annotation": {"number": 64, "value": 127}, "group": "control_change"}, {"time": 3885, "annotation": {"number": 64, "value": 0}, "group": "control_change"}, {"time": 3894, "annotation": {"number": 64, "value": 127}, "group": "control_change"}, {"time": 3894, "annotation": {"number": 64, "value": 0}, "group": "control_change"}, {"time": 3915, "annotation": {"number": 64, "value": 0}, "group": "control_change"}, {"time": 3919, "annotation": {"number": 64, "value": 127}, "group": "control_change"}, {"time": 3938, "annotation": {"number": 64, "value": 0}, "group": "control_change"}, {"time": 3942, "annotation": {"number": 64, "value": 127}, "group": "control_change"}, {"time": 3964, "annotation": {"number": 64, "value": 0}, "group": "control_change"}, {"time": 3968, "annotation": {"number": 64, "value": 127}, "group": "control_change"}, {"time": 3990, "annotation": {"number": 64, "value": 0}, "group": "control_change"}, {"time": 3997, "annotation": {"number": 64, "value": 127}, "group": "control_change"}, {"time": 4032, "annotation": {"number": 64, "value": 0}, "group": "control_change"}, {"time": 4038, "annotation": {"number": 64, "value": 127}, "group": "control_change"}, {"time": 4077, "annotation": {"number": 64, "value": 0}, "group": "control_change"}, {"time": 4108, "annotation": {"number": 64, "value": 0}, "group": "control_change"}, {"time": 4110, "annotation": {"number": 64, "value": 127}, "group": "control_change"}, {"time": 4130, "annotation": {"number": 64, "value": 0}, "group": "control_change"}, {"time": 4134, "annotation": {"number": 64, "value": 127}, "group": "control_change"}, {"time": 4157, "annotation": {"number": 64, "value": 0}, "group": "control_change"}, {"time": 4160, "annotation": {"number": 64, "value": 127}, "group": "control_change"}, {"time": 4179, "annotation": {"number": 64, "value": 0}, "group": "control_change"}, {"time": 4182, "annotation": {"number": 64, "value": 127}, "group": "control_change"}, {"time": 4204, "annotation": {"number": 64, "value": 0}, "group": "control_change"}, {"time": 4207, "annotation": {"number": 64, "value": 127}, "group": "control_change"}, {"time": 4227, "annotation": {"number": 64, "value": 0}, "group": "control_change"}, {"time": 4230, "annotation": {"number": 64, "value": 127}, "group": "control_change"}, {"time": 4252, "annotation": {"number": 64, "value": 0}, "group": "control_change"}, {"time": 4254, "annotation": {"number": 64, "value": 127}, "group": "control_change"}, {"time": 4273, "annotation": {"number": 64, "value": 0}, "group": "control_change"}, {"time": 4276, "annotation": {"number": 64, "value": 127}, "group": "control_change"}, {"time": 4276, "annotation": {"number": 64, "value": 0}, "group": "control_change"}, {"time": 4278, "annotation": {"number": 64, "value": 127}, "group": "control_change"}, {"time": 4278, "annotation": {"number": 64, "value": 0}, "group": "control_change"}, {"time": 4299, "annotation": {"number": 64, "value": 0}, "group": "control_change"}, {"time": 4303, "annotation": {"number": 64, "value": 127}, "group": "control_change"}, {"time": 4322, "annotation": {"number": 64, "value": 0}, "group": "control_change"}, {"time": 4326, "annotation": {"number": 64, "value": 127}, "group": "control_change"}, {"time": 4348, "annotation": {"number": 64, "value": 0}, "group": "control_change"}, {"time": 4352, "annotation": {"number": 64, "value": 127}, "group": "control_change"}, {"time": 4374, "annotation": {"number": 64, "value": 0}, "group": "control_change"}, {"time": 4381, "annotation": {"number": 64, "value": 127}, "group": "control_change"}, {"time": 4416, "annotation": {"number": 64, "value": 0}, "group": "control_change"}, {"time": 4422, "annotation": {"number": 64, "value": 127}, "group": "control_change"}, {"time": 4461, "annotation": {"number": 64, "value": 0}, "group": "control_change"}, {"time": 4493, "annotation": {"number": 64, "value": 0}, "group": "control_change"}, {"time": 4497, "annotation": {"number": 64, "value": 127}, "group": "control_change"}, {"time": 4515, "annotation": {"number": 64, "value": 0}, "group": "control_change"}, {"time": 4518, "annotation": {"number": 64, "value": 127}, "group": "control_change"}, {"time": 4540, "annotation": {"number": 64, "value": 0}, "group": "control_change"}, {"time": 4543, "annotation": {"number": 64, "value": 127}, "group": "control_change"}, {"time": 4562, "annotation": {"number": 64, "value": 0}, "group": "control_change"}, {"time": 4566, "annotation": {"number": 64, "value": 127}, "group": "control_change"}, {"time": 4587, "annotation": {"number": 64, "value": 0}, "group": "control_change"}, {"time": 4590, "annotation": {"number": 64, "value": 127}, "group": "control_change"}, {"time": 4610, "annotation": {"number": 64, "value": 0}, "group": "control_change"}, {"time": 4611, "annotation": {"number": 64, "value": 127}, "group": "control_change"}, {"time": 4611, "annotation": {"number": 64, "value": 0}, "group": "control_change"}, {"time": 4614, "annotation": {"number": 64, "value": 127}, "group": "control_change"}, {"time": 4624, "annotation": {"number": 64, "value": 0}, "group": "control_change"}, {"time": 4626, "annotation": {"number": 64, "value": 127}, "group": "control_change"}, {"time": 4634, "annotation": {"number": 64, "value": 0}, "group": "control_change"}, {"time": 4638, "annotation": {"number": 64, "value": 127}, "group": "control_change"}, {"time": 4657, "annotation": {"number": 64, "value": 0}, "group": "control_change"}, {"time": 4662, "annotation": {"number": 64, "value": 127}, "group": "control_change"}, {"time": 4662, "annotation": {"number": 64, "value": 0}, "group": "control_change"}, {"time": 4683, "annotation": {"number": 64, "value": 0}, "group": "control_change"}, {"time": 4687, "annotation": {"number": 64, "value": 127}, "group": "control_change"}, {"time": 4706, "annotation": {"number": 64, "value": 0}, "group": "control_change"}, {"time": 4710, "annotation": {"number": 64, "value": 127}, "group": "control_change"}, {"time": 4732, "annotation": {"number": 64, "value": 0}, "group": "control_change"}, {"time": 4736, "annotation": {"number": 64, "value": 127}, "group": "control_change"}, {"time": 4758, "annotation": {"number": 64, "value": 0}, "group": "control_change"}, {"time": 4765, "annotation": {"number": 64, "value": 127}, "group": "control_change"}, {"time": 4800, "annotation": {"number": 64, "value": 0}, "group": "control_change"}, {"time": 4806, "annotation": {"number": 64, "value": 127}, "group": "control_change"}, {"time": 4845, "annotation": {"number": 64, "value": 0}, "group": "control_change"}, {"time": 4876, "annotation": {"number": 64, "value": 0}, "group": "control_change"}, {"time": 4878, "annotation": {"number": 64, "value": 127}, "group": "control_change"}, {"time": 4898, "annotation": {"number": 64, "value": 0}, "group": "control_change"}, {"time": 4902, "annotation": {"number": 64, "value": 127}, "group": "control_change"}, {"time": 4925, "annotation": {"number": 64, "value": 0}, "group": "control_change"}, {"time": 4928, "annotation": {"number": 64, "value": 127}, "group": "control_change"}, {"time": 4947, "annotation": {"number": 64, "value": 0}, "group": "control_change"}, {"time": 4950, "annotation": {"number": 64, "value": 127}, "group": "control_change"}, {"time": 4972, "annotation": {"number": 64, "value": 0}, "group": "control_change"}, {"time": 4975, "annotation": {"number": 64, "value": 127}, "group": "control_change"}, {"time": 4995, "annotation": {"number": 64, "value": 0}, "group": "control_change"}, {"time": 4998, "annotation": {"number": 64, "value": 127}, "group": "control_change"}, {"time": 5020, "annotation": {"number": 64, "value": 0}, "group": "control_change"}, {"time": 5022, "annotation": {"number": 64, "value": 127}, "group": "control_change"}, {"time": 5041, "annotation": {"number": 64, "value": 0}, "group": "control_change"}, {"time": 5044, "annotation": {"number": 64, "value": 127}, "group": "control_change"}, {"time": 5044, "annotation": {"number": 64, "value": 0}, "group": "control_change"}, {"time": 5046, "annotation": {"number": 64, "value": 127}, "group": "control_change"}, {"time": 5046, "annotation": {"number": 64, "value": 0}, "group": "control_change"}, {"time": 5067, "annotation": {"number": 64, "value": 0}, "group": "control_change"}, {"time": 5071, "annotation": {"number": 64, "value": 127}, "group": "control_change"}, {"time": 5090, "annotation": {"number": 64, "value": 0}, "group": "control_change"}, {"time": 5094, "annotation": {"number": 64, "value": 127}, "group": "control_change"}, {"time": 5116, "annotation": {"number": 64, "value": 0}, "group": "control_change"}, {"time": 5120, "annotation": {"number": 64, "value": 127}, "group": "control_change"}, {"time": 5142, "annotation": {"number": 64, "value": 0}, "group": "control_change"}, {"time": 5149, "annotation": {"number": 64, "value": 127}, "group": "control_change"}, {"time": 5184, "annotation": {"number": 64, "value": 0}, "group": "control_change"}, {"time": 5190, "annotation": {"number": 64, "value": 127}, "group": "control_change"}, {"time": 5229, "annotation": {"number": 64, "value": 0}, "group": "control_change"}, {"time": 5261, "annotation": {"number": 64, "value": 0}, "group": "control_change"}, {"time": 5265, "annotation": {"number": 64, "value": 127}, "group": "control_change"}, {"time": 5283, "annotation": {"number": 64, "value": 0}, "group": "control_change"}, {"time": 5286, "annotation": {"number": 64, "value": 127}, "group": "control_change"}, {"time": 5308, "annotation": {"number": 64, "value": 0}, "group": "control_change"}, {"time": 5311, "annotation": {"number": 64, "value": 127}, "group": "control_change"}, {"time": 5330, "annotation": {"number": 64, "value": 0}, "group": "control_change"}, {"time": 5334, "annotation": {"number": 64, "value": 127}, "group": "control_change"}, {"time": 5355, "annotation": {"number": 64, "value": 0}, "group": "control_change"}, {"time": 5358, "annotation": {"number": 64, "value": 127}, "group": "control_change"}, {"time": 5378, "annotation": {"number": 64, "value": 0}, "group": "control_change"}, {"time": 5379, "annotation": {"number": 64, "value": 127}, "group": "control_change"}, {"time": 5379, "annotation": {"number": 64, "value": 0}, "group": "control_change"}, {"time": 5382, "annotation": {"number": 64, "value": 127}, "group": "control_change"}, {"time": 5392, "annotation": {"number": 64, "value": 0}, "group": "control_change"}, {"time": 5394, "annotation": {"number": 64, "value": 127}, "group": "control_change"}, {"time": 5402, "annotation": {"number": 64, "value": 0}, "group": "control_change"}, {"time": 5406, "annotation": {"number": 64, "value": 127}, "group": "control_change"}, {"time": 5425, "annotation": {"number": 64, "value": 0}, "group": "control_change"}, {"time": 5430, "annotation": {"number": 64, "value": 127}, "group": "control_change"}, {"time": 5430, "annotation": {"number": 64, "value": 0}, "group": "control_change"}, {"time": 5451, "annotation": {"number": 64, "value": 0}, "group": "control_change"}, {"time": 5455, "annotation": {"number": 64, "value": 127}, "group": "control_change"}, {"time": 5474, "annotation": {"number": 64, "value": 0}, "group": "control_change"}, {"time": 5478, "annotation": {"number": 64, "value": 127}, "group": "control_change"}, {"time": 5500, "annotation": {"number": 64, "value": 0}, "group": "control_change"}, {"time": 5504, "annotation": {"number": 64, "value": 127}, "group": "control_change"}, {"time": 5526, "annotation": {"number": 64, "value": 0}, "group": "control_change"}, {"time": 5533, "annotation": {"number": 64, "value": 127}, "group": "control_change"}, {"time": 5568, "annotation": {"number": 64, "value": 0}, "group": "control_change"}, {"time": 5574, "annotation": {"number": 64, "value": 127}, "group": "control_change"}, {"time": 5613, "annotation": {"number": 64, "value": 0}, "group": "control_change"}, {"time": 5645, "annotation": {"number": 64, "value": 0}, "group": "control_change"}, {"time": 5649, "annotation": {"number": 64, "value": 127}, "group": "control_change"}, {"time": 5667, "annotation": {"number": 64, "value": 0}, "group": "control_change"}, {"time": 5670, "annotation": {"number": 64, "value": 127}, "group": "control_change"}, {"time": 5692, "annotation": {"number": 64, "value": 0}, "group": "control_change"}, {"time": 5695, "annotation": {"number": 64, "value": 127}, "group": "control_change"}, {"time": 5714, "annotation": {"number": 64, "value": 0}, "group": "control_change"}, {"time": 5718, "annotation": {"number": 64, "value": 127}, "group": "control_change"}, {"time": 5739, "annotation": {"number": 64, "value": 0}, "group": "control_change"}, {"time": 5742, "annotation": {"number": 64, "value": 127}, "group": "control_change"}, {"time": 5762, "annotation": {"number": 64, "value": 0}, "group": "control_change"}, {"time": 5763, "annotation": {"number": 64, "value": 127}, "group": "control_change"}, {"time": 5763, "annotation": {"number": 64, "value": 0}, "group": "control_change"}, {"time": 5766, "annotation": {"number": 64, "value": 127}, "group": "control_change"}, {"time": 5776, "annotation": {"number": 64, "value": 0}, "group": "control_change"}, {"time": 5778, "annotation": {"number": 64, "value": 127}, "group": "control_change"}, {"time": 5786, "annotation": {"number": 64, "value": 0}, "group": "control_change"}, {"time": 5790, "annotation": {"number": 64, "value": 127}, "group": "control_change"}, {"time": 5809, "annotation": {"number": 64, "value": 0}, "group": "control_change"}]}]}