{"metadata": {"schema_version": "0.2", "title": "None", "source_filename": "546.mid", "source_format": "midi"}, "resolution": 12, "tempos": [{"time": 0, "qpm": 76.00025840087856}], "time_signatures": [{"time": 0, "numerator": 1, "denominator": 4}], "tracks": [{"program": 4, "is_drum": false, "name": "MELODY", "notes": [{"time": 782, "pitch": 77, "duration": 6, "velocity": 80}, {"time": 788, "pitch": 80, "duration": 12, "velocity": 75}, {"time": 800, "pitch": 82, "duration": 6, "velocity": 76}, {"time": 806, "pitch": 77, "duration": 18, "velocity": 77}, {"time": 824, "pitch": 75, "duration": 6, "velocity": 72}, {"time": 830, "pitch": 73, "duration": 7, "velocity": 72}, {"time": 836, "pitch": 75, "duration": 6, "velocity": 74}, {"time": 842, "pitch": 77, "duration": 7, "velocity": 75}, {"time": 848, "pitch": 70, "duration": 6, "velocity": 70}, {"time": 854, "pitch": 68, "duration": 21, "velocity": 70}, {"time": 878, "pitch": 70, "duration": 5, "velocity": 76}, {"time": 884, "pitch": 70, "duration": 12, "velocity": 76}, {"time": 896, "pitch": 73, "duration": 6, "velocity": 71}, {"time": 902, "pitch": 75, "duration": 6, "velocity": 73}, {"time": 908, "pitch": 73, "duration": 7, "velocity": 75}, {"time": 914, "pitch": 80, "duration": 7, "velocity": 69}, {"time": 920, "pitch": 82, "duration": 12, "velocity": 73}, {"time": 932, "pitch": 77, "duration": 34, "velocity": 75}, {"time": 974, "pitch": 80, "duration": 5, "velocity": 68}, {"time": 980, "pitch": 82, "duration": 12, "velocity": 75}, {"time": 992, "pitch": 85, "duration": 6, "velocity": 76}, {"time": 998, "pitch": 82, "duration": 18, "velocity": 75}, {"time": 1016, "pitch": 77, "duration": 7, "velocity": 79}, {"time": 1022, "pitch": 80, "duration": 6, "velocity": 75}, {"time": 1028, "pitch": 77, "duration": 7, "velocity": 77}, {"time": 1034, "pitch": 80, "duration": 6, "velocity": 68}, {"time": 1040, "pitch": 82, "duration": 6, "velocity": 70}, {"time": 1046, "pitch": 73, "duration": 21, "velocity": 75}, {"time": 1070, "pitch": 70, "duration": 5, "velocity": 75}, {"time": 1076, "pitch": 73, "duration": 6, "velocity": 71}, {"time": 1082, "pitch": 75, "duration": 6, "velocity": 74}, {"time": 1088, "pitch": 80, "duration": 6, "velocity": 72}, {"time": 1094, "pitch": 77, "duration": 12, "velocity": 75}, {"time": 1106, "pitch": 75, "duration": 12, "velocity": 75}, {"time": 1118, "pitch": 73, "duration": 36, "velocity": 71}, {"time": 1166, "pitch": 80, "duration": 10, "velocity": 70}, {"time": 1178, "pitch": 80, "duration": 5, "velocity": 76}, {"time": 1184, "pitch": 77, "duration": 6, "velocity": 79}, {"time": 1190, "pitch": 80, "duration": 5, "velocity": 73}, {"time": 1196, "pitch": 82, "duration": 7, "velocity": 73}, {"time": 1202, "pitch": 85, "duration": 6, "velocity": 76}, {"time": 1208, "pitch": 84, "duration": 6, "velocity": 77}, {"time": 1214, "pitch": 82, "duration": 22, "velocity": 75}, {"time": 1250, "pitch": 80, "duration": 6, "velocity": 78}, {"time": 1256, "pitch": 82, "duration": 6, "velocity": 77}, {"time": 1262, "pitch": 77, "duration": 16, "velocity": 79}, {"time": 1280, "pitch": 80, "duration": 5, "velocity": 68}, {"time": 1286, "pitch": 73, "duration": 6, "velocity": 76}, {"time": 1292, "pitch": 70, "duration": 6, "velocity": 75}, {"time": 1298, "pitch": 73, "duration": 6, "velocity": 76}, {"time": 1304, "pitch": 80, "duration": 7, "velocity": 73}, {"time": 1310, "pitch": 77, "duration": 12, "velocity": 73}, {"time": 1322, "pitch": 75, "duration": 20, "velocity": 75}, {"time": 1358, "pitch": 75, "duration": 10, "velocity": 76}, {"time": 1370, "pitch": 75, "duration": 6, "velocity": 76}, {"time": 1376, "pitch": 73, "duration": 6, "velocity": 75}, {"time": 1382, "pitch": 75, "duration": 6, "velocity": 75}, {"time": 1388, "pitch": 77, "duration": 7, "velocity": 75}, {"time": 1394, "pitch": 80, "duration": 6, "velocity": 75}, {"time": 1400, "pitch": 77, "duration": 6, "velocity": 76}, {"time": 1406, "pitch": 75, "duration": 20, "velocity": 73}, {"time": 1442, "pitch": 75, "duration": 4, "velocity": 73}, {"time": 1448, "pitch": 77, "duration": 4, "velocity": 79}, {"time": 1454, "pitch": 80, "duration": 5, "velocity": 76}, {"time": 1460, "pitch": 77, "duration": 11, "velocity": 75}, {"time": 1472, "pitch": 75, "duration": 5, "velocity": 76}, {"time": 1478, "pitch": 70, "duration": 5, "velocity": 75}, {"time": 1484, "pitch": 68, "duration": 7, "velocity": 75}, {"time": 1490, "pitch": 75, "duration": 5, "velocity": 76}, {"time": 1496, "pitch": 77, "duration": 6, "velocity": 73}, {"time": 1502, "pitch": 73, "duration": 45, "velocity": 74}, {"time": 2366, "pitch": 77, "duration": 6, "velocity": 80}, {"time": 2372, "pitch": 80, "duration": 12, "velocity": 75}, {"time": 2384, "pitch": 82, "duration": 6, "velocity": 76}, {"time": 2390, "pitch": 77, "duration": 18, "velocity": 77}, {"time": 2408, "pitch": 75, "duration": 6, "velocity": 72}, {"time": 2414, "pitch": 73, "duration": 7, "velocity": 72}, {"time": 2420, "pitch": 75, "duration": 6, "velocity": 74}, {"time": 2426, "pitch": 77, "duration": 7, "velocity": 75}, {"time": 2432, "pitch": 70, "duration": 6, "velocity": 70}, {"time": 2438, "pitch": 68, "duration": 21, "velocity": 70}, {"time": 2462, "pitch": 70, "duration": 5, "velocity": 76}, {"time": 2468, "pitch": 70, "duration": 12, "velocity": 76}, {"time": 2480, "pitch": 73, "duration": 6, "velocity": 71}, {"time": 2486, "pitch": 75, "duration": 6, "velocity": 73}, {"time": 2492, "pitch": 73, "duration": 7, "velocity": 75}, {"time": 2498, "pitch": 80, "duration": 7, "velocity": 69}, {"time": 2504, "pitch": 82, "duration": 12, "velocity": 73}, {"time": 2516, "pitch": 77, "duration": 34, "velocity": 75}, {"time": 2558, "pitch": 80, "duration": 5, "velocity": 68}, {"time": 2564, "pitch": 82, "duration": 12, "velocity": 75}, {"time": 2576, "pitch": 85, "duration": 6, "velocity": 76}, {"time": 2582, "pitch": 82, "duration": 18, "velocity": 75}, {"time": 2600, "pitch": 77, "duration": 7, "velocity": 79}, {"time": 2606, "pitch": 80, "duration": 6, "velocity": 75}, {"time": 2612, "pitch": 77, "duration": 7, "velocity": 77}, {"time": 2618, "pitch": 80, "duration": 6, "velocity": 68}, {"time": 2624, "pitch": 82, "duration": 6, "velocity": 70}, {"time": 2630, "pitch": 73, "duration": 21, "velocity": 75}, {"time": 2654, "pitch": 70, "duration": 5, "velocity": 75}, {"time": 2660, "pitch": 73, "duration": 6, "velocity": 71}, {"time": 2666, "pitch": 75, "duration": 6, "velocity": 74}, {"time": 2672, "pitch": 80, "duration": 6, "velocity": 72}, {"time": 2678, "pitch": 77, "duration": 12, "velocity": 75}, {"time": 2690, "pitch": 75, "duration": 12, "velocity": 75}, {"time": 2702, "pitch": 73, "duration": 36, "velocity": 71}, {"time": 2750, "pitch": 80, "duration": 10, "velocity": 70}, {"time": 2762, "pitch": 80, "duration": 5, "velocity": 76}, {"time": 2768, "pitch": 77, "duration": 6, "velocity": 79}, {"time": 2774, "pitch": 80, "duration": 5, "velocity": 73}, {"time": 2780, "pitch": 82, "duration": 7, "velocity": 73}, {"time": 2786, "pitch": 85, "duration": 6, "velocity": 76}, {"time": 2792, "pitch": 84, "duration": 6, "velocity": 77}, {"time": 2798, "pitch": 82, "duration": 22, "velocity": 75}, {"time": 2834, "pitch": 80, "duration": 6, "velocity": 78}, {"time": 2840, "pitch": 82, "duration": 6, "velocity": 77}, {"time": 2846, "pitch": 77, "duration": 16, "velocity": 79}, {"time": 2864, "pitch": 80, "duration": 5, "velocity": 68}, {"time": 2870, "pitch": 73, "duration": 6, "velocity": 76}, {"time": 2876, "pitch": 70, "duration": 6, "velocity": 75}, {"time": 2882, "pitch": 73, "duration": 6, "velocity": 76}, {"time": 2888, "pitch": 80, "duration": 7, "velocity": 73}, {"time": 2894, "pitch": 77, "duration": 12, "velocity": 73}, {"time": 2906, "pitch": 75, "duration": 20, "velocity": 75}, {"time": 2942, "pitch": 75, "duration": 10, "velocity": 76}, {"time": 2954, "pitch": 75, "duration": 6, "velocity": 76}, {"time": 2960, "pitch": 73, "duration": 6, "velocity": 75}, {"time": 2966, "pitch": 75, "duration": 6, "velocity": 75}, {"time": 2972, "pitch": 77, "duration": 7, "velocity": 75}, {"time": 2978, "pitch": 80, "duration": 6, "velocity": 75}, {"time": 2984, "pitch": 77, "duration": 6, "velocity": 76}, {"time": 2990, "pitch": 75, "duration": 20, "velocity": 73}, {"time": 3026, "pitch": 75, "duration": 4, "velocity": 73}, {"time": 3032, "pitch": 77, "duration": 4, "velocity": 79}, {"time": 3038, "pitch": 80, "duration": 5, "velocity": 76}, {"time": 3044, "pitch": 77, "duration": 11, "velocity": 75}, {"time": 3056, "pitch": 75, "duration": 5, "velocity": 76}, {"time": 3062, "pitch": 70, "duration": 5, "velocity": 75}, {"time": 3068, "pitch": 68, "duration": 7, "velocity": 75}, {"time": 3074, "pitch": 75, "duration": 5, "velocity": 76}, {"time": 3080, "pitch": 77, "duration": 6, "velocity": 73}, {"time": 3086, "pitch": 73, "duration": 45, "velocity": 74}]}, {"program": 0, "is_drum": false, "name": "PIANO", "notes": [{"time": 12, "pitch": 61, "duration": 32, "velocity": 48}, {"time": 13, "pitch": 49, "duration": 36, "velocity": 59}, {"time": 14, "pitch": 65, "duration": 30, "velocity": 52}, {"time": 60, "pitch": 56, "duration": 18, "velocity": 53}, {"time": 61, "pitch": 60, "duration": 30, "velocity": 54}, {"time": 61, "pitch": 44, "duration": 33, "velocity": 60}, {"time": 61, "pitch": 63, "duration": 30, "velocity": 44}, {"time": 107, "pitch": 54, "duration": 29, "velocity": 52}, {"time": 108, "pitch": 58, "duration": 29, "velocity": 56}, {"time": 109, "pitch": 42, "duration": 30, "velocity": 68}, {"time": 110, "pitch": 61, "duration": 29, "velocity": 50}, {"time": 156, "pitch": 56, "duration": 10, "velocity": 50}, {"time": 157, "pitch": 63, "duration": 35, "velocity": 57}, {"time": 158, "pitch": 44, "duration": 39, "velocity": 70}, {"time": 164, "pitch": 51, "duration": 30, "velocity": 44}, {"time": 170, "pitch": 56, "duration": 23, "velocity": 58}, {"time": 203, "pitch": 56, "duration": 12, "velocity": 57}, {"time": 204, "pitch": 63, "duration": 14, "velocity": 63}, {"time": 205, "pitch": 44, "duration": 38, "velocity": 73}, {"time": 206, "pitch": 68, "duration": 11, "velocity": 65}, {"time": 211, "pitch": 51, "duration": 29, "velocity": 44}, {"time": 218, "pitch": 56, "duration": 22, "velocity": 66}, {"time": 224, "pitch": 63, "duration": 14, "velocity": 56}, {"time": 251, "pitch": 56, "duration": 5, "velocity": 56}, {"time": 252, "pitch": 61, "duration": 10, "velocity": 62}, {"time": 253, "pitch": 37, "duration": 3, "velocity": 65}, {"time": 254, "pitch": 65, "duration": 12, "velocity": 68}, {"time": 260, "pitch": 49, "duration": 28, "velocity": 63}, {"time": 266, "pitch": 56, "duration": 22, "velocity": 63}, {"time": 272, "pitch": 63, "duration": 7, "velocity": 59}, {"time": 278, "pitch": 65, "duration": 10, "velocity": 57}, {"time": 300, "pitch": 61, "duration": 9, "velocity": 54}, {"time": 301, "pitch": 66, "duration": 36, "velocity": 57}, {"time": 301, "pitch": 42, "duration": 41, "velocity": 70}, {"time": 302, "pitch": 70, "duration": 38, "velocity": 63}, {"time": 307, "pitch": 49, "duration": 22, "velocity": 50}, {"time": 314, "pitch": 61, "duration": 19, "velocity": 47}, {"time": 331, "pitch": 49, "duration": 9, "velocity": 64}, {"time": 337, "pitch": 61, "duration": 7, "velocity": 73}, {"time": 343, "pitch": 66, "duration": 5, "velocity": 76}, {"time": 347, "pitch": 56, "duration": 8, "velocity": 61}, {"time": 348, "pitch": 60, "duration": 10, "velocity": 64}, {"time": 349, "pitch": 44, "duration": 27, "velocity": 73}, {"time": 349, "pitch": 63, "duration": 9, "velocity": 60}, {"time": 349, "pitch": 68, "duration": 9, "velocity": 71}, {"time": 355, "pitch": 51, "duration": 20, "velocity": 50}, {"time": 361, "pitch": 56, "duration": 14, "velocity": 66}, {"time": 367, "pitch": 63, "duration": 21, "velocity": 71}, {"time": 373, "pitch": 68, "duration": 15, "velocity": 69}, {"time": 378, "pitch": 56, "duration": 10, "velocity": 64}, {"time": 398, "pitch": 37, "duration": 7, "velocity": 73}, {"time": 398, "pitch": 56, "duration": 4, "velocity": 68}, {"time": 398, "pitch": 65, "duration": 12, "velocity": 76}, {"time": 404, "pitch": 56, "duration": 7, "velocity": 62}, {"time": 410, "pitch": 61, "duration": 6, "velocity": 73}, {"time": 416, "pitch": 65, "duration": 12, "velocity": 77}, {"time": 422, "pitch": 49, "duration": 18, "velocity": 59}, {"time": 428, "pitch": 56, "duration": 11, "velocity": 70}, {"time": 434, "pitch": 61, "duration": 3, "velocity": 75}, {"time": 434, "pitch": 65, "duration": 7, "velocity": 77}, {"time": 440, "pitch": 61, "duration": 7, "velocity": 77}, {"time": 446, "pitch": 42, "duration": 42, "velocity": 72}, {"time": 446, "pitch": 66, "duration": 8, "velocity": 71}, {"time": 452, "pitch": 49, "duration": 35, "velocity": 64}, {"time": 458, "pitch": 54, "duration": 8, "velocity": 75}, {"time": 464, "pitch": 58, "duration": 6, "velocity": 75}, {"time": 470, "pitch": 61, "duration": 8, "velocity": 74}, {"time": 476, "pitch": 54, "duration": 7, "velocity": 60}, {"time": 482, "pitch": 66, "duration": 7, "velocity": 76}, {"time": 488, "pitch": 54, "duration": 2, "velocity": 77}, {"time": 494, "pitch": 39, "duration": 38, "velocity": 76}, {"time": 494, "pitch": 58, "duration": 10, "velocity": 65}, {"time": 494, "pitch": 63, "duration": 12, "velocity": 67}, {"time": 500, "pitch": 46, "duration": 32, "velocity": 60}, {"time": 506, "pitch": 66, "duration": 10, "velocity": 75}, {"time": 512, "pitch": 58, "duration": 7, "velocity": 75}, {"time": 518, "pitch": 63, "duration": 6, "velocity": 72}, {"time": 524, "pitch": 58, "duration": 3, "velocity": 45}, {"time": 530, "pitch": 58, "duration": 2, "velocity": 75}, {"time": 530, "pitch": 63, "duration": 6, "velocity": 76}, {"time": 530, "pitch": 66, "duration": 5, "velocity": 75}, {"time": 536, "pitch": 58, "duration": 1, "velocity": 73}, {"time": 542, "pitch": 41, "duration": 14, "velocity": 77}, {"time": 542, "pitch": 53, "duration": 7, "velocity": 74}, {"time": 542, "pitch": 56, "duration": 12, "velocity": 72}, {"time": 548, "pitch": 48, "duration": 8, "velocity": 62}, {"time": 554, "pitch": 53, "duration": 3, "velocity": 78}, {"time": 566, "pitch": 46, "duration": 17, "velocity": 76}, {"time": 566, "pitch": 58, "duration": 7, "velocity": 67}, {"time": 566, "pitch": 61, "duration": 12, "velocity": 70}, {"time": 572, "pitch": 53, "duration": 11, "velocity": 72}, {"time": 578, "pitch": 58, "duration": 7, "velocity": 79}, {"time": 584, "pitch": 61, "duration": 7, "velocity": 81}, {"time": 590, "pitch": 39, "duration": 37, "velocity": 77}, {"time": 590, "pitch": 63, "duration": 13, "velocity": 72}, {"time": 596, "pitch": 46, "duration": 30, "velocity": 59}, {"time": 602, "pitch": 58, "duration": 7, "velocity": 74}, {"time": 608, "pitch": 63, "duration": 15, "velocity": 77}, {"time": 614, "pitch": 66, "duration": 8, "velocity": 57}, {"time": 620, "pitch": 58, "duration": 8, "velocity": 59}, {"time": 626, "pitch": 63, "duration": 6, "velocity": 75}, {"time": 632, "pitch": 66, "duration": 2, "velocity": 77}, {"time": 638, "pitch": 44, "duration": 39, "velocity": 75}, {"time": 638, "pitch": 56, "duration": 17, "velocity": 68}, {"time": 638, "pitch": 60, "duration": 18, "velocity": 69}, {"time": 644, "pitch": 51, "duration": 32, "velocity": 70}, {"time": 650, "pitch": 63, "duration": 7, "velocity": 73}, {"time": 656, "pitch": 68, "duration": 8, "velocity": 76}, {"time": 662, "pitch": 56, "duration": 12, "velocity": 69}, {"time": 668, "pitch": 63, "duration": 7, "velocity": 71}, {"time": 674, "pitch": 68, "duration": 6, "velocity": 75}, {"time": 680, "pitch": 56, "duration": 7, "velocity": 82}, {"time": 686, "pitch": 37, "duration": 4, "velocity": 71}, {"time": 686, "pitch": 61, "duration": 12, "velocity": 75}, {"time": 692, "pitch": 56, "duration": 6, "velocity": 65}, {"time": 698, "pitch": 65, "duration": 6, "velocity": 72}, {"time": 704, "pitch": 49, "duration": 23, "velocity": 59}, {"time": 710, "pitch": 61, "duration": 7, "velocity": 68}, {"time": 710, "pitch": 68, "duration": 9, "velocity": 66}, {"time": 716, "pitch": 56, "duration": 10, "velocity": 53}, {"time": 722, "pitch": 61, "duration": 2, "velocity": 67}, {"time": 722, "pitch": 65, "duration": 7, "velocity": 71}, {"time": 728, "pitch": 61, "duration": 12, "velocity": 58}, {"time": 734, "pitch": 37, "duration": 38, "velocity": 73}, {"time": 740, "pitch": 44, "duration": 31, "velocity": 51}, {"time": 746, "pitch": 65, "duration": 7, "velocity": 75}, {"time": 752, "pitch": 61, "duration": 19, "velocity": 75}, {"time": 758, "pitch": 68, "duration": 13, "velocity": 66}, {"time": 764, "pitch": 65, "duration": 7, "velocity": 63}, {"time": 770, "pitch": 73, "duration": 2, "velocity": 76}, {"time": 782, "pitch": 49, "duration": 37, "velocity": 75}, {"time": 782, "pitch": 56, "duration": 3, "velocity": 73}, {"time": 782, "pitch": 61, "duration": 12, "velocity": 70}, {"time": 788, "pitch": 56, "duration": 7, "velocity": 67}, {"time": 794, "pitch": 65, "duration": 5, "velocity": 70}, {"time": 800, "pitch": 61, "duration": 13, "velocity": 60}, {"time": 806, "pitch": 68, "duration": 10, "velocity": 70}, {"time": 812, "pitch": 56, "duration": 4, "velocity": 66}, {"time": 818, "pitch": 61, "duration": 2, "velocity": 76}, {"time": 830, "pitch": 42, "duration": 18, "velocity": 76}, {"time": 830, "pitch": 54, "duration": 19, "velocity": 65}, {"time": 830, "pitch": 58, "duration": 12, "velocity": 68}, {"time": 836, "pitch": 49, "duration": 12, "velocity": 62}, {"time": 842, "pitch": 61, "duration": 7, "velocity": 69}, {"time": 848, "pitch": 58, "duration": 2, "velocity": 68}, {"time": 854, "pitch": 41, "duration": 13, "velocity": 77}, {"time": 854, "pitch": 53, "duration": 7, "velocity": 70}, {"time": 854, "pitch": 56, "duration": 13, "velocity": 70}, {"time": 860, "pitch": 48, "duration": 7, "velocity": 63}, {"time": 866, "pitch": 53, "duration": 2, "velocity": 67}, {"time": 878, "pitch": 46, "duration": 20, "velocity": 75}, {"time": 878, "pitch": 58, "duration": 8, "velocity": 66}, {"time": 878, "pitch": 61, "duration": 13, "velocity": 68}, {"time": 884, "pitch": 53, "duration": 20, "velocity": 67}, {"time": 890, "pitch": 58, "duration": 4, "velocity": 76}, {"time": 902, "pitch": 44, "duration": 17, "velocity": 63}, {"time": 902, "pitch": 56, "duration": 6, "velocity": 67}, {"time": 902, "pitch": 60, "duration": 13, "velocity": 68}, {"time": 908, "pitch": 53, "duration": 12, "velocity": 63}, {"time": 914, "pitch": 63, "duration": 4, "velocity": 69}, {"time": 926, "pitch": 49, "duration": 41, "velocity": 71}, {"time": 926, "pitch": 61, "duration": 10, "velocity": 70}, {"time": 932, "pitch": 56, "duration": 10, "velocity": 72}, {"time": 938, "pitch": 63, "duration": 7, "velocity": 75}, {"time": 944, "pitch": 65, "duration": 6, "velocity": 75}, {"time": 950, "pitch": 68, "duration": 8, "velocity": 75}, {"time": 956, "pitch": 56, "duration": 3, "velocity": 69}, {"time": 962, "pitch": 56, "duration": 2, "velocity": 76}, {"time": 962, "pitch": 65, "duration": 7, "velocity": 76}, {"time": 968, "pitch": 56, "duration": 2, "velocity": 76}, {"time": 974, "pitch": 42, "duration": 42, "velocity": 76}, {"time": 974, "pitch": 54, "duration": 12, "velocity": 66}, {"time": 974, "pitch": 58, "duration": 12, "velocity": 65}, {"time": 980, "pitch": 49, "duration": 36, "velocity": 64}, {"time": 986, "pitch": 61, "duration": 14, "velocity": 75}, {"time": 992, "pitch": 58, "duration": 6, "velocity": 71}, {"time": 998, "pitch": 66, "duration": 7, "velocity": 75}, {"time": 1004, "pitch": 54, "duration": 8, "velocity": 64}, {"time": 1010, "pitch": 61, "duration": 3, "velocity": 66}, {"time": 1022, "pitch": 41, "duration": 13, "velocity": 76}, {"time": 1022, "pitch": 60, "duration": 7, "velocity": 68}, {"time": 1022, "pitch": 65, "duration": 12, "velocity": 73}, {"time": 1028, "pitch": 48, "duration": 7, "velocity": 63}, {"time": 1034, "pitch": 60, "duration": 7, "velocity": 77}, {"time": 1040, "pitch": 65, "duration": 2, "velocity": 75}, {"time": 1046, "pitch": 46, "duration": 18, "velocity": 75}, {"time": 1046, "pitch": 58, "duration": 7, "velocity": 64}, {"time": 1046, "pitch": 61, "duration": 12, "velocity": 67}, {"time": 1052, "pitch": 53, "duration": 12, "velocity": 66}, {"time": 1058, "pitch": 58, "duration": 5, "velocity": 77}, {"time": 1070, "pitch": 51, "duration": 22, "velocity": 77}, {"time": 1070, "pitch": 66, "duration": 18, "velocity": 69}, {"time": 1076, "pitch": 54, "duration": 16, "velocity": 67}, {"time": 1082, "pitch": 58, "duration": 13, "velocity": 76}, {"time": 1088, "pitch": 63, "duration": 18, "velocity": 75}, {"time": 1094, "pitch": 44, "duration": 20, "velocity": 74}, {"time": 1100, "pitch": 51, "duration": 14, "velocity": 75}, {"time": 1106, "pitch": 56, "duration": 11, "velocity": 79}, {"time": 1112, "pitch": 63, "duration": 7, "velocity": 75}, {"time": 1118, "pitch": 49, "duration": 41, "velocity": 77}, {"time": 1118, "pitch": 61, "duration": 11, "velocity": 77}, {"time": 1124, "pitch": 53, "duration": 35, "velocity": 65}, {"time": 1130, "pitch": 56, "duration": 7, "velocity": 77}, {"time": 1136, "pitch": 63, "duration": 7, "velocity": 73}, {"time": 1142, "pitch": 65, "duration": 10, "velocity": 75}, {"time": 1148, "pitch": 56, "duration": 4, "velocity": 68}, {"time": 1154, "pitch": 56, "duration": 3, "velocity": 76}, {"time": 1154, "pitch": 61, "duration": 6, "velocity": 70}, {"time": 1166, "pitch": 37, "duration": 38, "velocity": 75}, {"time": 1166, "pitch": 56, "duration": 6, "velocity": 75}, {"time": 1166, "pitch": 61, "duration": 10, "velocity": 74}, {"time": 1172, "pitch": 44, "duration": 31, "velocity": 59}, {"time": 1175, "pitch": 56, "duration": 4, "velocity": 71}, {"time": 1178, "pitch": 63, "duration": 4, "velocity": 75}, {"time": 1181, "pitch": 61, "duration": 4, "velocity": 72}, {"time": 1184, "pitch": 56, "duration": 6, "velocity": 78}, {"time": 1190, "pitch": 65, "duration": 6, "velocity": 77}, {"time": 1196, "pitch": 56, "duration": 3, "velocity": 74}, {"time": 1202, "pitch": 56, "duration": 4, "velocity": 79}, {"time": 1202, "pitch": 61, "duration": 3, "velocity": 77}, {"time": 1208, "pitch": 60, "duration": 5, "velocity": 80}, {"time": 1214, "pitch": 46, "duration": 22, "velocity": 75}, {"time": 1214, "pitch": 58, "duration": 8, "velocity": 72}, {"time": 1214, "pitch": 61, "duration": 10, "velocity": 76}, {"time": 1220, "pitch": 53, "duration": 17, "velocity": 69}, {"time": 1226, "pitch": 58, "duration": 3, "velocity": 81}, {"time": 1229, "pitch": 60, "duration": 4, "velocity": 78}, {"time": 1232, "pitch": 61, "duration": 4, "velocity": 78}, {"time": 1238, "pitch": 46, "duration": 18, "velocity": 76}, {"time": 1238, "pitch": 58, "duration": 6, "velocity": 70}, {"time": 1238, "pitch": 65, "duration": 7, "velocity": 77}, {"time": 1244, "pitch": 53, "duration": 7, "velocity": 67}, {"time": 1247, "pitch": 58, "duration": 2, "velocity": 72}, {"time": 1250, "pitch": 61, "duration": 3, "velocity": 82}, {"time": 1253, "pitch": 53, "duration": 3, "velocity": 75}, {"time": 1256, "pitch": 60, "duration": 2, "velocity": 82}, {"time": 1262, "pitch": 42, "duration": 19, "velocity": 76}, {"time": 1262, "pitch": 54, "duration": 6, "velocity": 70}, {"time": 1262, "pitch": 58, "duration": 12, "velocity": 69}, {"time": 1268, "pitch": 49, "duration": 14, "velocity": 64}, {"time": 1274, "pitch": 54, "duration": 6, "velocity": 77}, {"time": 1277, "pitch": 58, "duration": 4, "velocity": 75}, {"time": 1280, "pitch": 61, "duration": 8, "velocity": 67}, {"time": 1283, "pitch": 54, "duration": 3, "velocity": 69}, {"time": 1286, "pitch": 41, "duration": 17, "velocity": 80}, {"time": 1289, "pitch": 48, "duration": 14, "velocity": 65}, {"time": 1292, "pitch": 53, "duration": 4, "velocity": 73}, {"time": 1295, "pitch": 56, "duration": 4, "velocity": 75}, {"time": 1298, "pitch": 60, "duration": 2, "velocity": 77}, {"time": 1304, "pitch": 41, "duration": 4, "velocity": 77}, {"time": 1310, "pitch": 39, "duration": 17, "velocity": 77}, {"time": 1310, "pitch": 58, "duration": 12, "velocity": 69}, {"time": 1310, "pitch": 63, "duration": 13, "velocity": 71}, {"time": 1316, "pitch": 46, "duration": 10, "velocity": 56}, {"time": 1322, "pitch": 66, "duration": 6, "velocity": 81}, {"time": 1328, "pitch": 58, "duration": 2, "velocity": 78}, {"time": 1334, "pitch": 44, "duration": 20, "velocity": 76}, {"time": 1334, "pitch": 56, "duration": 6, "velocity": 70}, {"time": 1334, "pitch": 60, "duration": 9, "velocity": 74}, {"time": 1340, "pitch": 51, "duration": 15, "velocity": 67}, {"time": 1343, "pitch": 56, "duration": 3, "velocity": 75}, {"time": 1346, "pitch": 63, "duration": 4, "velocity": 76}, {"time": 1349, "pitch": 56, "duration": 3, "velocity": 76}, {"time": 1352, "pitch": 68, "duration": 3, "velocity": 75}, {"time": 1358, "pitch": 51, "duration": 14, "velocity": 72}, {"time": 1358, "pitch": 58, "duration": 3, "velocity": 75}, {"time": 1358, "pitch": 63, "duration": 12, "velocity": 74}, {"time": 1364, "pitch": 58, "duration": 6, "velocity": 76}, {"time": 1370, "pitch": 66, "duration": 7, "velocity": 81}, {"time": 1376, "pitch": 58, "duration": 2, "velocity": 76}, {"time": 1382, "pitch": 41, "duration": 15, "velocity": 78}, {"time": 1382, "pitch": 60, "duration": 9, "velocity": 70}, {"time": 1382, "pitch": 65, "duration": 9, "velocity": 75}, {"time": 1388, "pitch": 48, "duration": 9, "velocity": 58}, {"time": 1394, "pitch": 60, "duration": 2, "velocity": 75}, {"time": 1394, "pitch": 65, "duration": 6, "velocity": 77}, {"time": 1394, "pitch": 68, "duration": 6, "velocity": 73}, {"time": 1406, "pitch": 51, "duration": 25, "velocity": 76}, {"time": 1406, "pitch": 58, "duration": 3, "velocity": 66}, {"time": 1406, "pitch": 63, "duration": 12, "velocity": 71}, {"time": 1412, "pitch": 58, "duration": 6, "velocity": 64}, {"time": 1418, "pitch": 66, "duration": 12, "velocity": 75}, {"time": 1424, "pitch": 58, "duration": 7, "velocity": 76}, {"time": 1430, "pitch": 63, "duration": 7, "velocity": 70}, {"time": 1436, "pitch": 58, "duration": 5, "velocity": 70}, {"time": 1442, "pitch": 63, "duration": 6, "velocity": 76}, {"time": 1442, "pitch": 66, "duration": 5, "velocity": 76}, {"time": 1448, "pitch": 58, "duration": 2, "velocity": 70}, {"time": 1454, "pitch": 44, "duration": 43, "velocity": 76}, {"time": 1454, "pitch": 56, "duration": 11, "velocity": 70}, {"time": 1454, "pitch": 60, "duration": 12, "velocity": 75}, {"time": 1460, "pitch": 51, "duration": 37, "velocity": 65}, {"time": 1466, "pitch": 63, "duration": 5, "velocity": 72}, {"time": 1469, "pitch": 56, "duration": 7, "velocity": 77}, {"time": 1472, "pitch": 60, "duration": 5, "velocity": 75}, {"time": 1475, "pitch": 63, "duration": 4, "velocity": 76}, {"time": 1478, "pitch": 68, "duration": 9, "velocity": 75}, {"time": 1484, "pitch": 56, "duration": 8, "velocity": 70}, {"time": 1490, "pitch": 60, "duration": 6, "velocity": 76}, {"time": 1490, "pitch": 63, "duration": 10, "velocity": 75}, {"time": 1496, "pitch": 56, "duration": 4, "velocity": 73}, {"time": 1502, "pitch": 49, "duration": 38, "velocity": 77}, {"time": 1502, "pitch": 56, "duration": 2, "velocity": 73}, {"time": 1502, "pitch": 61, "duration": 9, "velocity": 71}, {"time": 1508, "pitch": 56, "duration": 7, "velocity": 69}, {"time": 1514, "pitch": 63, "duration": 7, "velocity": 76}, {"time": 1520, "pitch": 56, "duration": 4, "velocity": 76}, {"time": 1526, "pitch": 56, "duration": 3, "velocity": 76}, {"time": 1526, "pitch": 61, "duration": 7, "velocity": 76}, {"time": 1526, "pitch": 65, "duration": 8, "velocity": 77}, {"time": 1532, "pitch": 56, "duration": 3, "velocity": 65}, {"time": 1538, "pitch": 56, "duration": 3, "velocity": 77}, {"time": 1538, "pitch": 61, "duration": 3, "velocity": 75}, {"time": 1550, "pitch": 44, "duration": 41, "velocity": 77}, {"time": 1550, "pitch": 56, "duration": 13, "velocity": 71}, {"time": 1550, "pitch": 63, "duration": 12, "velocity": 71}, {"time": 1556, "pitch": 51, "duration": 37, "velocity": 66}, {"time": 1562, "pitch": 60, "duration": 8, "velocity": 70}, {"time": 1568, "pitch": 63, "duration": 13, "velocity": 68}, {"time": 1574, "pitch": 68, "duration": 8, "velocity": 71}, {"time": 1580, "pitch": 56, "duration": 7, "velocity": 65}, {"time": 1586, "pitch": 60, "duration": 5, "velocity": 69}, {"time": 1598, "pitch": 46, "duration": 41, "velocity": 74}, {"time": 1598, "pitch": 58, "duration": 8, "velocity": 64}, {"time": 1598, "pitch": 61, "duration": 11, "velocity": 69}, {"time": 1604, "pitch": 53, "duration": 34, "velocity": 65}, {"time": 1610, "pitch": 60, "duration": 5, "velocity": 67}, {"time": 1616, "pitch": 61, "duration": 6, "velocity": 76}, {"time": 1622, "pitch": 65, "duration": 7, "velocity": 80}, {"time": 1628, "pitch": 58, "duration": 3, "velocity": 68}, {"time": 1634, "pitch": 58, "duration": 3, "velocity": 67}, {"time": 1634, "pitch": 61, "duration": 3, "velocity": 68}, {"time": 1646, "pitch": 42, "duration": 37, "velocity": 75}, {"time": 1646, "pitch": 58, "duration": 6, "velocity": 65}, {"time": 1646, "pitch": 66, "duration": 13, "velocity": 73}, {"time": 1652, "pitch": 49, "duration": 31, "velocity": 65}, {"time": 1658, "pitch": 58, "duration": 9, "velocity": 70}, {"time": 1664, "pitch": 61, "duration": 7, "velocity": 78}, {"time": 1670, "pitch": 66, "duration": 11, "velocity": 75}, {"time": 1676, "pitch": 58, "duration": 7, "velocity": 62}, {"time": 1682, "pitch": 61, "duration": 1, "velocity": 76}, {"time": 1694, "pitch": 41, "duration": 42, "velocity": 77}, {"time": 1694, "pitch": 60, "duration": 8, "velocity": 68}, {"time": 1694, "pitch": 68, "duration": 14, "velocity": 66}, {"time": 1700, "pitch": 48, "duration": 35, "velocity": 66}, {"time": 1706, "pitch": 60, "duration": 8, "velocity": 76}, {"time": 1712, "pitch": 65, "duration": 7, "velocity": 81}, {"time": 1718, "pitch": 68, "duration": 10, "velocity": 75}, {"time": 1724, "pitch": 60, "duration": 3, "velocity": 66}, {"time": 1730, "pitch": 60, "duration": 4, "velocity": 79}, {"time": 1730, "pitch": 65, "duration": 3, "velocity": 82}, {"time": 1736, "pitch": 63, "duration": 3, "velocity": 75}, {"time": 1742, "pitch": 46, "duration": 40, "velocity": 76}, {"time": 1742, "pitch": 58, "duration": 4, "velocity": 66}, {"time": 1742, "pitch": 61, "duration": 12, "velocity": 72}, {"time": 1748, "pitch": 53, "duration": 9, "velocity": 75}, {"time": 1754, "pitch": 58, "duration": 13, "velocity": 76}, {"time": 1760, "pitch": 53, "duration": 9, "velocity": 72}, {"time": 1766, "pitch": 61, "duration": 7, "velocity": 75}, {"time": 1766, "pitch": 65, "duration": 7, "velocity": 76}, {"time": 1772, "pitch": 53, "duration": 7, "velocity": 59}, {"time": 1778, "pitch": 58, "duration": 3, "velocity": 76}, {"time": 1778, "pitch": 61, "duration": 5, "velocity": 84}, {"time": 1781, "pitch": 53, "duration": 2, "velocity": 77}, {"time": 1784, "pitch": 58, "duration": 5, "velocity": 76}, {"time": 1787, "pitch": 61, "duration": 11, "velocity": 76}, {"time": 1790, "pitch": 42, "duration": 42, "velocity": 77}, {"time": 1796, "pitch": 49, "duration": 19, "velocity": 68}, {"time": 1802, "pitch": 54, "duration": 7, "velocity": 76}, {"time": 1805, "pitch": 58, "duration": 4, "velocity": 72}, {"time": 1808, "pitch": 61, "duration": 4, "velocity": 76}, {"time": 1811, "pitch": 66, "duration": 11, "velocity": 81}, {"time": 1814, "pitch": 54, "duration": 4, "velocity": 77}, {"time": 1817, "pitch": 49, "duration": 11, "velocity": 74}, {"time": 1820, "pitch": 54, "duration": 9, "velocity": 71}, {"time": 1823, "pitch": 58, "duration": 4, "velocity": 67}, {"time": 1826, "pitch": 61, "duration": 4, "velocity": 73}, {"time": 1838, "pitch": 44, "duration": 45, "velocity": 76}, {"time": 1838, "pitch": 56, "duration": 11, "velocity": 70}, {"time": 1838, "pitch": 60, "duration": 12, "velocity": 71}, {"time": 1844, "pitch": 51, "duration": 26, "velocity": 70}, {"time": 1850, "pitch": 63, "duration": 3, "velocity": 68}, {"time": 1853, "pitch": 56, "duration": 5, "velocity": 75}, {"time": 1856, "pitch": 63, "duration": 4, "velocity": 75}, {"time": 1859, "pitch": 68, "duration": 7, "velocity": 76}, {"time": 1862, "pitch": 56, "duration": 4, "velocity": 77}, {"time": 1865, "pitch": 63, "duration": 10, "velocity": 72}, {"time": 1868, "pitch": 56, "duration": 5, "velocity": 75}, {"time": 1871, "pitch": 51, "duration": 11, "velocity": 74}, {"time": 1874, "pitch": 56, "duration": 6, "velocity": 76}, {"time": 1880, "pitch": 63, "duration": 5, "velocity": 73}, {"time": 1886, "pitch": 49, "duration": 45, "velocity": 76}, {"time": 1886, "pitch": 56, "duration": 3, "velocity": 71}, {"time": 1886, "pitch": 61, "duration": 12, "velocity": 71}, {"time": 1892, "pitch": 56, "duration": 7, "velocity": 71}, {"time": 1898, "pitch": 65, "duration": 11, "velocity": 75}, {"time": 1904, "pitch": 56, "duration": 8, "velocity": 71}, {"time": 1910, "pitch": 63, "duration": 7, "velocity": 70}, {"time": 1916, "pitch": 65, "duration": 8, "velocity": 73}, {"time": 1922, "pitch": 61, "duration": 12, "velocity": 69}, {"time": 1928, "pitch": 56, "duration": 6, "velocity": 66}, {"time": 1934, "pitch": 37, "duration": 38, "velocity": 75}, {"time": 1934, "pitch": 56, "duration": 1, "velocity": 75}, {"time": 1934, "pitch": 61, "duration": 10, "velocity": 74}, {"time": 1940, "pitch": 44, "duration": 31, "velocity": 59}, {"time": 1943, "pitch": 56, "duration": 4, "velocity": 71}, {"time": 1946, "pitch": 63, "duration": 4, "velocity": 75}, {"time": 1949, "pitch": 61, "duration": 4, "velocity": 72}, {"time": 1952, "pitch": 56, "duration": 6, "velocity": 78}, {"time": 1958, "pitch": 65, "duration": 6, "velocity": 77}, {"time": 1964, "pitch": 56, "duration": 3, "velocity": 74}, {"time": 1970, "pitch": 56, "duration": 4, "velocity": 79}, {"time": 1970, "pitch": 61, "duration": 3, "velocity": 77}, {"time": 1976, "pitch": 60, "duration": 5, "velocity": 80}, {"time": 1982, "pitch": 46, "duration": 22, "velocity": 75}, {"time": 1982, "pitch": 58, "duration": 8, "velocity": 72}, {"time": 1982, "pitch": 61, "duration": 10, "velocity": 76}, {"time": 1988, "pitch": 53, "duration": 17, "velocity": 69}, {"time": 1994, "pitch": 58, "duration": 3, "velocity": 81}, {"time": 1997, "pitch": 60, "duration": 4, "velocity": 78}, {"time": 2000, "pitch": 61, "duration": 4, "velocity": 78}, {"time": 2006, "pitch": 46, "duration": 18, "velocity": 76}, {"time": 2006, "pitch": 58, "duration": 6, "velocity": 70}, {"time": 2006, "pitch": 65, "duration": 7, "velocity": 77}, {"time": 2012, "pitch": 53, "duration": 7, "velocity": 67}, {"time": 2015, "pitch": 58, "duration": 2, "velocity": 72}, {"time": 2018, "pitch": 61, "duration": 3, "velocity": 82}, {"time": 2021, "pitch": 53, "duration": 3, "velocity": 75}, {"time": 2024, "pitch": 60, "duration": 2, "velocity": 82}, {"time": 2030, "pitch": 42, "duration": 19, "velocity": 76}, {"time": 2030, "pitch": 54, "duration": 6, "velocity": 70}, {"time": 2030, "pitch": 58, "duration": 12, "velocity": 69}, {"time": 2036, "pitch": 49, "duration": 14, "velocity": 64}, {"time": 2042, "pitch": 54, "duration": 6, "velocity": 77}, {"time": 2045, "pitch": 58, "duration": 4, "velocity": 75}, {"time": 2048, "pitch": 61, "duration": 8, "velocity": 67}, {"time": 2051, "pitch": 54, "duration": 3, "velocity": 69}, {"time": 2054, "pitch": 41, "duration": 17, "velocity": 80}, {"time": 2057, "pitch": 48, "duration": 14, "velocity": 65}, {"time": 2060, "pitch": 53, "duration": 4, "velocity": 73}, {"time": 2063, "pitch": 56, "duration": 4, "velocity": 75}, {"time": 2066, "pitch": 60, "duration": 2, "velocity": 77}, {"time": 2072, "pitch": 41, "duration": 4, "velocity": 77}, {"time": 2078, "pitch": 39, "duration": 17, "velocity": 77}, {"time": 2078, "pitch": 58, "duration": 12, "velocity": 69}, {"time": 2078, "pitch": 63, "duration": 13, "velocity": 71}, {"time": 2084, "pitch": 46, "duration": 10, "velocity": 56}, {"time": 2090, "pitch": 66, "duration": 6, "velocity": 81}, {"time": 2096, "pitch": 58, "duration": 2, "velocity": 78}, {"time": 2102, "pitch": 44, "duration": 20, "velocity": 76}, {"time": 2102, "pitch": 56, "duration": 6, "velocity": 70}, {"time": 2102, "pitch": 60, "duration": 9, "velocity": 74}, {"time": 2108, "pitch": 51, "duration": 15, "velocity": 67}, {"time": 2111, "pitch": 56, "duration": 3, "velocity": 75}, {"time": 2114, "pitch": 63, "duration": 4, "velocity": 76}, {"time": 2117, "pitch": 56, "duration": 3, "velocity": 76}, {"time": 2120, "pitch": 68, "duration": 3, "velocity": 75}, {"time": 2126, "pitch": 51, "duration": 14, "velocity": 72}, {"time": 2126, "pitch": 58, "duration": 3, "velocity": 75}, {"time": 2126, "pitch": 63, "duration": 12, "velocity": 74}, {"time": 2132, "pitch": 58, "duration": 6, "velocity": 76}, {"time": 2138, "pitch": 66, "duration": 7, "velocity": 81}, {"time": 2144, "pitch": 58, "duration": 2, "velocity": 76}, {"time": 2150, "pitch": 41, "duration": 15, "velocity": 78}, {"time": 2150, "pitch": 60, "duration": 9, "velocity": 70}, {"time": 2150, "pitch": 65, "duration": 9, "velocity": 75}, {"time": 2156, "pitch": 48, "duration": 9, "velocity": 58}, {"time": 2162, "pitch": 60, "duration": 2, "velocity": 75}, {"time": 2162, "pitch": 65, "duration": 6, "velocity": 77}, {"time": 2162, "pitch": 68, "duration": 6, "velocity": 73}, {"time": 2174, "pitch": 51, "duration": 25, "velocity": 76}, {"time": 2174, "pitch": 58, "duration": 3, "velocity": 66}, {"time": 2174, "pitch": 63, "duration": 12, "velocity": 71}, {"time": 2180, "pitch": 58, "duration": 6, "velocity": 64}, {"time": 2186, "pitch": 66, "duration": 12, "velocity": 75}, {"time": 2192, "pitch": 58, "duration": 7, "velocity": 76}, {"time": 2198, "pitch": 63, "duration": 7, "velocity": 70}, {"time": 2204, "pitch": 58, "duration": 5, "velocity": 70}, {"time": 2210, "pitch": 63, "duration": 6, "velocity": 76}, {"time": 2210, "pitch": 66, "duration": 5, "velocity": 76}, {"time": 2216, "pitch": 58, "duration": 2, "velocity": 70}, {"time": 2222, "pitch": 44, "duration": 43, "velocity": 76}, {"time": 2222, "pitch": 56, "duration": 11, "velocity": 70}, {"time": 2222, "pitch": 60, "duration": 12, "velocity": 75}, {"time": 2228, "pitch": 51, "duration": 37, "velocity": 65}, {"time": 2234, "pitch": 63, "duration": 5, "velocity": 72}, {"time": 2237, "pitch": 56, "duration": 7, "velocity": 77}, {"time": 2240, "pitch": 60, "duration": 5, "velocity": 75}, {"time": 2243, "pitch": 63, "duration": 4, "velocity": 76}, {"time": 2246, "pitch": 68, "duration": 9, "velocity": 75}, {"time": 2252, "pitch": 56, "duration": 8, "velocity": 70}, {"time": 2258, "pitch": 60, "duration": 6, "velocity": 76}, {"time": 2258, "pitch": 63, "duration": 10, "velocity": 75}, {"time": 2264, "pitch": 56, "duration": 4, "velocity": 73}, {"time": 2270, "pitch": 49, "duration": 38, "velocity": 77}, {"time": 2270, "pitch": 56, "duration": 2, "velocity": 73}, {"time": 2270, "pitch": 61, "duration": 9, "velocity": 71}, {"time": 2276, "pitch": 56, "duration": 7, "velocity": 69}, {"time": 2282, "pitch": 63, "duration": 7, "velocity": 76}, {"time": 2288, "pitch": 56, "duration": 4, "velocity": 76}, {"time": 2294, "pitch": 56, "duration": 3, "velocity": 76}, {"time": 2294, "pitch": 61, "duration": 7, "velocity": 76}, {"time": 2294, "pitch": 65, "duration": 8, "velocity": 77}, {"time": 2300, "pitch": 56, "duration": 3, "velocity": 65}, {"time": 2306, "pitch": 56, "duration": 3, "velocity": 77}, {"time": 2306, "pitch": 61, "duration": 3, "velocity": 75}, {"time": 2318, "pitch": 49, "duration": 48, "velocity": 72}, {"time": 2318, "pitch": 61, "duration": 10, "velocity": 72}, {"time": 2324, "pitch": 56, "duration": 10, "velocity": 69}, {"time": 2330, "pitch": 61, "duration": 7, "velocity": 72}, {"time": 2336, "pitch": 70, "duration": 6, "velocity": 76}, {"time": 2342, "pitch": 68, "duration": 2, "velocity": 75}, {"time": 2348, "pitch": 65, "duration": 2, "velocity": 65}, {"time": 2354, "pitch": 63, "duration": 3, "velocity": 63}, {"time": 2360, "pitch": 61, "duration": 6, "velocity": 70}, {"time": 2366, "pitch": 49, "duration": 1, "velocity": 75}, {"time": 2366, "pitch": 56, "duration": 3, "velocity": 73}, {"time": 2366, "pitch": 61, "duration": 12, "velocity": 70}, {"time": 2372, "pitch": 56, "duration": 7, "velocity": 67}, {"time": 2378, "pitch": 65, "duration": 5, "velocity": 70}, {"time": 2384, "pitch": 61, "duration": 13, "velocity": 60}, {"time": 2390, "pitch": 68, "duration": 10, "velocity": 70}, {"time": 2396, "pitch": 56, "duration": 4, "velocity": 66}, {"time": 2402, "pitch": 61, "duration": 2, "velocity": 76}, {"time": 2414, "pitch": 42, "duration": 18, "velocity": 76}, {"time": 2414, "pitch": 54, "duration": 19, "velocity": 65}, {"time": 2414, "pitch": 58, "duration": 12, "velocity": 68}, {"time": 2420, "pitch": 49, "duration": 12, "velocity": 62}, {"time": 2426, "pitch": 61, "duration": 7, "velocity": 69}, {"time": 2432, "pitch": 58, "duration": 2, "velocity": 68}, {"time": 2438, "pitch": 41, "duration": 13, "velocity": 77}, {"time": 2438, "pitch": 53, "duration": 7, "velocity": 70}, {"time": 2438, "pitch": 56, "duration": 13, "velocity": 70}, {"time": 2444, "pitch": 48, "duration": 7, "velocity": 63}, {"time": 2450, "pitch": 53, "duration": 2, "velocity": 67}, {"time": 2462, "pitch": 46, "duration": 20, "velocity": 75}, {"time": 2462, "pitch": 58, "duration": 8, "velocity": 66}, {"time": 2462, "pitch": 61, "duration": 13, "velocity": 68}, {"time": 2468, "pitch": 53, "duration": 20, "velocity": 67}, {"time": 2474, "pitch": 58, "duration": 4, "velocity": 76}, {"time": 2486, "pitch": 44, "duration": 17, "velocity": 63}, {"time": 2486, "pitch": 56, "duration": 6, "velocity": 67}, {"time": 2486, "pitch": 60, "duration": 13, "velocity": 68}, {"time": 2492, "pitch": 53, "duration": 12, "velocity": 63}, {"time": 2498, "pitch": 63, "duration": 4, "velocity": 69}, {"time": 2510, "pitch": 49, "duration": 41, "velocity": 71}, {"time": 2510, "pitch": 61, "duration": 10, "velocity": 70}, {"time": 2516, "pitch": 56, "duration": 10, "velocity": 72}, {"time": 2522, "pitch": 63, "duration": 7, "velocity": 75}, {"time": 2528, "pitch": 65, "duration": 6, "velocity": 75}, {"time": 2534, "pitch": 68, "duration": 8, "velocity": 75}, {"time": 2540, "pitch": 56, "duration": 3, "velocity": 69}, {"time": 2546, "pitch": 56, "duration": 2, "velocity": 76}, {"time": 2546, "pitch": 65, "duration": 7, "velocity": 76}, {"time": 2552, "pitch": 56, "duration": 2, "velocity": 76}, {"time": 2558, "pitch": 42, "duration": 42, "velocity": 76}, {"time": 2558, "pitch": 54, "duration": 12, "velocity": 66}, {"time": 2558, "pitch": 58, "duration": 12, "velocity": 65}, {"time": 2564, "pitch": 49, "duration": 36, "velocity": 64}, {"time": 2570, "pitch": 61, "duration": 14, "velocity": 75}, {"time": 2576, "pitch": 58, "duration": 6, "velocity": 71}, {"time": 2582, "pitch": 66, "duration": 7, "velocity": 75}, {"time": 2588, "pitch": 54, "duration": 8, "velocity": 64}, {"time": 2594, "pitch": 61, "duration": 3, "velocity": 66}, {"time": 2606, "pitch": 41, "duration": 13, "velocity": 76}, {"time": 2606, "pitch": 60, "duration": 7, "velocity": 68}, {"time": 2606, "pitch": 65, "duration": 12, "velocity": 73}, {"time": 2612, "pitch": 48, "duration": 7, "velocity": 63}, {"time": 2618, "pitch": 60, "duration": 7, "velocity": 77}, {"time": 2624, "pitch": 65, "duration": 2, "velocity": 75}, {"time": 2630, "pitch": 46, "duration": 18, "velocity": 75}, {"time": 2630, "pitch": 58, "duration": 7, "velocity": 64}, {"time": 2630, "pitch": 61, "duration": 12, "velocity": 67}, {"time": 2636, "pitch": 53, "duration": 12, "velocity": 66}, {"time": 2642, "pitch": 58, "duration": 5, "velocity": 77}, {"time": 2654, "pitch": 51, "duration": 22, "velocity": 77}, {"time": 2654, "pitch": 66, "duration": 18, "velocity": 69}, {"time": 2660, "pitch": 54, "duration": 16, "velocity": 67}, {"time": 2666, "pitch": 58, "duration": 13, "velocity": 76}, {"time": 2672, "pitch": 63, "duration": 18, "velocity": 75}, {"time": 2678, "pitch": 44, "duration": 20, "velocity": 74}, {"time": 2684, "pitch": 51, "duration": 14, "velocity": 75}, {"time": 2690, "pitch": 56, "duration": 11, "velocity": 79}, {"time": 2696, "pitch": 63, "duration": 7, "velocity": 75}, {"time": 2702, "pitch": 49, "duration": 41, "velocity": 77}, {"time": 2702, "pitch": 61, "duration": 11, "velocity": 77}, {"time": 2708, "pitch": 53, "duration": 35, "velocity": 65}, {"time": 2714, "pitch": 56, "duration": 7, "velocity": 77}, {"time": 2720, "pitch": 63, "duration": 7, "velocity": 73}, {"time": 2726, "pitch": 65, "duration": 10, "velocity": 75}, {"time": 2732, "pitch": 56, "duration": 4, "velocity": 68}, {"time": 2738, "pitch": 56, "duration": 3, "velocity": 76}, {"time": 2738, "pitch": 61, "duration": 6, "velocity": 70}, {"time": 2750, "pitch": 37, "duration": 38, "velocity": 75}, {"time": 2750, "pitch": 56, "duration": 6, "velocity": 75}, {"time": 2750, "pitch": 61, "duration": 10, "velocity": 74}, {"time": 2756, "pitch": 44, "duration": 31, "velocity": 59}, {"time": 2759, "pitch": 56, "duration": 4, "velocity": 71}, {"time": 2762, "pitch": 63, "duration": 4, "velocity": 75}, {"time": 2765, "pitch": 61, "duration": 4, "velocity": 72}, {"time": 2768, "pitch": 56, "duration": 6, "velocity": 78}, {"time": 2774, "pitch": 65, "duration": 6, "velocity": 77}, {"time": 2780, "pitch": 56, "duration": 3, "velocity": 74}, {"time": 2786, "pitch": 56, "duration": 4, "velocity": 79}, {"time": 2786, "pitch": 61, "duration": 3, "velocity": 77}, {"time": 2792, "pitch": 60, "duration": 5, "velocity": 80}, {"time": 2798, "pitch": 46, "duration": 22, "velocity": 75}, {"time": 2798, "pitch": 58, "duration": 8, "velocity": 72}, {"time": 2798, "pitch": 61, "duration": 10, "velocity": 76}, {"time": 2804, "pitch": 53, "duration": 17, "velocity": 69}, {"time": 2810, "pitch": 58, "duration": 3, "velocity": 81}, {"time": 2813, "pitch": 60, "duration": 4, "velocity": 78}, {"time": 2816, "pitch": 61, "duration": 4, "velocity": 78}, {"time": 2822, "pitch": 46, "duration": 18, "velocity": 76}, {"time": 2822, "pitch": 58, "duration": 6, "velocity": 70}, {"time": 2822, "pitch": 65, "duration": 7, "velocity": 77}, {"time": 2828, "pitch": 53, "duration": 7, "velocity": 67}, {"time": 2831, "pitch": 58, "duration": 2, "velocity": 72}, {"time": 2834, "pitch": 61, "duration": 3, "velocity": 82}, {"time": 2837, "pitch": 53, "duration": 3, "velocity": 75}, {"time": 2840, "pitch": 60, "duration": 2, "velocity": 82}, {"time": 2846, "pitch": 42, "duration": 19, "velocity": 76}, {"time": 2846, "pitch": 54, "duration": 6, "velocity": 70}, {"time": 2846, "pitch": 58, "duration": 12, "velocity": 69}, {"time": 2852, "pitch": 49, "duration": 14, "velocity": 64}, {"time": 2858, "pitch": 54, "duration": 6, "velocity": 77}, {"time": 2861, "pitch": 58, "duration": 4, "velocity": 75}, {"time": 2864, "pitch": 61, "duration": 8, "velocity": 67}, {"time": 2867, "pitch": 54, "duration": 3, "velocity": 69}, {"time": 2870, "pitch": 41, "duration": 17, "velocity": 80}, {"time": 2873, "pitch": 48, "duration": 14, "velocity": 65}, {"time": 2876, "pitch": 53, "duration": 4, "velocity": 73}, {"time": 2879, "pitch": 56, "duration": 4, "velocity": 75}, {"time": 2882, "pitch": 60, "duration": 2, "velocity": 77}, {"time": 2888, "pitch": 41, "duration": 4, "velocity": 77}, {"time": 2894, "pitch": 39, "duration": 17, "velocity": 77}, {"time": 2894, "pitch": 58, "duration": 12, "velocity": 69}, {"time": 2894, "pitch": 63, "duration": 13, "velocity": 71}, {"time": 2900, "pitch": 46, "duration": 10, "velocity": 56}, {"time": 2906, "pitch": 66, "duration": 6, "velocity": 81}, {"time": 2912, "pitch": 58, "duration": 2, "velocity": 78}, {"time": 2918, "pitch": 44, "duration": 20, "velocity": 76}, {"time": 2918, "pitch": 56, "duration": 6, "velocity": 70}, {"time": 2918, "pitch": 60, "duration": 9, "velocity": 74}, {"time": 2924, "pitch": 51, "duration": 15, "velocity": 67}, {"time": 2927, "pitch": 56, "duration": 3, "velocity": 75}, {"time": 2930, "pitch": 63, "duration": 4, "velocity": 76}, {"time": 2933, "pitch": 56, "duration": 3, "velocity": 76}, {"time": 2936, "pitch": 68, "duration": 3, "velocity": 75}, {"time": 2942, "pitch": 51, "duration": 14, "velocity": 72}, {"time": 2942, "pitch": 58, "duration": 3, "velocity": 75}, {"time": 2942, "pitch": 63, "duration": 12, "velocity": 74}, {"time": 2948, "pitch": 58, "duration": 6, "velocity": 76}, {"time": 2954, "pitch": 66, "duration": 7, "velocity": 81}, {"time": 2960, "pitch": 58, "duration": 2, "velocity": 76}, {"time": 2966, "pitch": 41, "duration": 15, "velocity": 78}, {"time": 2966, "pitch": 60, "duration": 9, "velocity": 70}, {"time": 2966, "pitch": 65, "duration": 9, "velocity": 75}, {"time": 2972, "pitch": 48, "duration": 9, "velocity": 58}, {"time": 2978, "pitch": 60, "duration": 2, "velocity": 75}, {"time": 2978, "pitch": 65, "duration": 6, "velocity": 77}, {"time": 2978, "pitch": 68, "duration": 6, "velocity": 73}, {"time": 2990, "pitch": 51, "duration": 25, "velocity": 76}, {"time": 2990, "pitch": 58, "duration": 3, "velocity": 66}, {"time": 2990, "pitch": 63, "duration": 12, "velocity": 71}, {"time": 2996, "pitch": 58, "duration": 6, "velocity": 64}, {"time": 3002, "pitch": 66, "duration": 12, "velocity": 75}, {"time": 3008, "pitch": 58, "duration": 7, "velocity": 76}, {"time": 3014, "pitch": 63, "duration": 7, "velocity": 70}, {"time": 3020, "pitch": 58, "duration": 5, "velocity": 70}, {"time": 3026, "pitch": 63, "duration": 6, "velocity": 76}, {"time": 3026, "pitch": 66, "duration": 5, "velocity": 76}, {"time": 3032, "pitch": 58, "duration": 2, "velocity": 70}, {"time": 3038, "pitch": 44, "duration": 43, "velocity": 76}, {"time": 3038, "pitch": 56, "duration": 11, "velocity": 70}, {"time": 3038, "pitch": 60, "duration": 12, "velocity": 75}, {"time": 3044, "pitch": 51, "duration": 37, "velocity": 65}, {"time": 3050, "pitch": 63, "duration": 5, "velocity": 72}, {"time": 3053, "pitch": 56, "duration": 7, "velocity": 77}, {"time": 3056, "pitch": 60, "duration": 5, "velocity": 75}, {"time": 3059, "pitch": 63, "duration": 4, "velocity": 76}, {"time": 3062, "pitch": 68, "duration": 9, "velocity": 75}, {"time": 3068, "pitch": 56, "duration": 8, "velocity": 70}, {"time": 3074, "pitch": 60, "duration": 6, "velocity": 76}, {"time": 3074, "pitch": 63, "duration": 10, "velocity": 75}, {"time": 3080, "pitch": 56, "duration": 4, "velocity": 73}, {"time": 3086, "pitch": 49, "duration": 38, "velocity": 77}, {"time": 3086, "pitch": 56, "duration": 2, "velocity": 73}, {"time": 3086, "pitch": 61, "duration": 9, "velocity": 71}, {"time": 3092, "pitch": 56, "duration": 7, "velocity": 69}, {"time": 3098, "pitch": 63, "duration": 7, "velocity": 76}, {"time": 3104, "pitch": 56, "duration": 4, "velocity": 76}, {"time": 3110, "pitch": 56, "duration": 3, "velocity": 76}, {"time": 3110, "pitch": 61, "duration": 7, "velocity": 76}, {"time": 3110, "pitch": 65, "duration": 8, "velocity": 77}, {"time": 3116, "pitch": 56, "duration": 3, "velocity": 65}, {"time": 3122, "pitch": 56, "duration": 3, "velocity": 77}, {"time": 3122, "pitch": 61, "duration": 3, "velocity": 75}, {"time": 3134, "pitch": 49, "duration": 46, "velocity": 75}, {"time": 3134, "pitch": 61, "duration": 8, "velocity": 70}, {"time": 3140, "pitch": 56, "duration": 7, "velocity": 68}, {"time": 3146, "pitch": 61, "duration": 13, "velocity": 75}, {"time": 3152, "pitch": 56, "duration": 7, "velocity": 62}, {"time": 3158, "pitch": 65, "duration": 8, "velocity": 77}, {"time": 3164, "pitch": 56, "duration": 7, "velocity": 64}, {"time": 3170, "pitch": 61, "duration": 2, "velocity": 71}, {"time": 3176, "pitch": 60, "duration": 6, "velocity": 67}, {"time": 3182, "pitch": 46, "duration": 39, "velocity": 75}, {"time": 3182, "pitch": 58, "duration": 8, "velocity": 66}, {"time": 3182, "pitch": 61, "duration": 11, "velocity": 71}, {"time": 3188, "pitch": 53, "duration": 8, "velocity": 63}, {"time": 3194, "pitch": 58, "duration": 8, "velocity": 71}, {"time": 3200, "pitch": 53, "duration": 22, "velocity": 65}, {"time": 3206, "pitch": 58, "duration": 12, "velocity": 72}, {"time": 3206, "pitch": 65, "duration": 12, "velocity": 74}, {"time": 3218, "pitch": 61, "duration": 6, "velocity": 78}, {"time": 3224, "pitch": 58, "duration": 3, "velocity": 70}, {"time": 3230, "pitch": 42, "duration": 21, "velocity": 72}, {"time": 3230, "pitch": 54, "duration": 9, "velocity": 63}, {"time": 3230, "pitch": 56, "duration": 1, "velocity": 61}, {"time": 3230, "pitch": 61, "duration": 13, "velocity": 56}, {"time": 3236, "pitch": 49, "duration": 16, "velocity": 61}, {"time": 3242, "pitch": 54, "duration": 7, "velocity": 74}, {"time": 3248, "pitch": 61, "duration": 4, "velocity": 71}, {"time": 3254, "pitch": 41, "duration": 13, "velocity": 76}, {"time": 3254, "pitch": 53, "duration": 7, "velocity": 67}, {"time": 3254, "pitch": 56, "duration": 12, "velocity": 61}, {"time": 3260, "pitch": 48, "duration": 8, "velocity": 68}, {"time": 3266, "pitch": 53, "duration": 3, "velocity": 79}, {"time": 3278, "pitch": 51, "duration": 13, "velocity": 71}, {"time": 3278, "pitch": 63, "duration": 14, "velocity": 74}, {"time": 3284, "pitch": 58, "duration": 7, "velocity": 58}, {"time": 3290, "pitch": 66, "duration": 6, "velocity": 67}, {"time": 3296, "pitch": 58, "duration": 7, "velocity": 70}, {"time": 3302, "pitch": 44, "duration": 16, "velocity": 75}, {"time": 3302, "pitch": 63, "duration": 12, "velocity": 71}, {"time": 3308, "pitch": 51, "duration": 11, "velocity": 70}, {"time": 3314, "pitch": 56, "duration": 4, "velocity": 76}, {"time": 3326, "pitch": 51, "duration": 14, "velocity": 71}, {"time": 3326, "pitch": 66, "duration": 12, "velocity": 71}, {"time": 3332, "pitch": 58, "duration": 7, "velocity": 65}, {"time": 3338, "pitch": 63, "duration": 7, "velocity": 69}, {"time": 3344, "pitch": 58, "duration": 3, "velocity": 70}, {"time": 3350, "pitch": 53, "duration": 13, "velocity": 74}, {"time": 3350, "pitch": 65, "duration": 7, "velocity": 71}, {"time": 3356, "pitch": 60, "duration": 7, "velocity": 66}, {"time": 3362, "pitch": 68, "duration": 6, "velocity": 71}, {"time": 3374, "pitch": 51, "duration": 39, "velocity": 73}, {"time": 3374, "pitch": 58, "duration": 3, "velocity": 63}, {"time": 3374, "pitch": 63, "duration": 13, "velocity": 68}, {"time": 3380, "pitch": 58, "duration": 7, "velocity": 62}, {"time": 3386, "pitch": 66, "duration": 11, "velocity": 68}, {"time": 3392, "pitch": 58, "duration": 7, "velocity": 66}, {"time": 3398, "pitch": 63, "duration": 5, "velocity": 67}, {"time": 3404, "pitch": 58, "duration": 7, "velocity": 60}, {"time": 3410, "pitch": 66, "duration": 6, "velocity": 76}, {"time": 3416, "pitch": 58, "duration": 2, "velocity": 78}, {"time": 3422, "pitch": 44, "duration": 38, "velocity": 75}, {"time": 3422, "pitch": 56, "duration": 10, "velocity": 67}, {"time": 3422, "pitch": 63, "duration": 12, "velocity": 67}, {"time": 3428, "pitch": 51, "duration": 32, "velocity": 63}, {"time": 3434, "pitch": 60, "duration": 6, "velocity": 66}, {"time": 3440, "pitch": 56, "duration": 6, "velocity": 76}, {"time": 3446, "pitch": 63, "duration": 12, "velocity": 70}, {"time": 3452, "pitch": 56, "duration": 7, "velocity": 69}, {"time": 3458, "pitch": 68, "duration": 3, "velocity": 71}, {"time": 3470, "pitch": 49, "duration": 48, "velocity": 71}, {"time": 3470, "pitch": 61, "duration": 9, "velocity": 70}, {"time": 3476, "pitch": 56, "duration": 6, "velocity": 72}, {"time": 3482, "pitch": 63, "duration": 7, "velocity": 69}, {"time": 3488, "pitch": 56, "duration": 7, "velocity": 64}, {"time": 3494, "pitch": 65, "duration": 23, "velocity": 70}, {"time": 3500, "pitch": 56, "duration": 8, "velocity": 70}, {"time": 3506, "pitch": 61, "duration": 10, "velocity": 71}, {"time": 3512, "pitch": 56, "duration": 5, "velocity": 68}, {"time": 3518, "pitch": 44, "duration": 45, "velocity": 75}, {"time": 3524, "pitch": 51, "duration": 36, "velocity": 47}, {"time": 3530, "pitch": 63, "duration": 27, "velocity": 59}, {"time": 3548, "pitch": 56, "duration": 7, "velocity": 44}, {"time": 3554, "pitch": 68, "duration": 17, "velocity": 71}, {"time": 3560, "pitch": 56, "duration": 14, "velocity": 76}, {"time": 3566, "pitch": 44, "duration": 44, "velocity": 71}, {"time": 3572, "pitch": 51, "duration": 37, "velocity": 55}, {"time": 3578, "pitch": 63, "duration": 18, "velocity": 68}, {"time": 3584, "pitch": 68, "duration": 8, "velocity": 66}, {"time": 3614, "pitch": 44, "duration": 43, "velocity": 70}, {"time": 3614, "pitch": 56, "duration": 7, "velocity": 66}, {"time": 3614, "pitch": 63, "duration": 13, "velocity": 66}, {"time": 3620, "pitch": 51, "duration": 36, "velocity": 59}, {"time": 3626, "pitch": 56, "duration": 13, "velocity": 64}, {"time": 3632, "pitch": 63, "duration": 10, "velocity": 71}, {"time": 3638, "pitch": 68, "duration": 30, "velocity": 71}, {"time": 3644, "pitch": 56, "duration": 24, "velocity": 61}, {"time": 3650, "pitch": 63, "duration": 24, "velocity": 60}, {"time": 3662, "pitch": 44, "duration": 23, "velocity": 74}, {"time": 3668, "pitch": 51, "duration": 17, "velocity": 66}, {"time": 3674, "pitch": 56, "duration": 13, "velocity": 68}, {"time": 3680, "pitch": 63, "duration": 17, "velocity": 64}, {"time": 3686, "pitch": 68, "duration": 10, "velocity": 68}, {"time": 3709, "pitch": 44, "duration": 15, "velocity": 73}, {"time": 3715, "pitch": 51, "duration": 8, "velocity": 57}, {"time": 3721, "pitch": 63, "duration": 5, "velocity": 63}, {"time": 3733, "pitch": 37, "duration": 61, "velocity": 75}, {"time": 3738, "pitch": 44, "duration": 54, "velocity": 53}, {"time": 3743, "pitch": 56, "duration": 11, "velocity": 63}, {"time": 3748, "pitch": 65, "duration": 6, "velocity": 67}, {"time": 3753, "pitch": 68, "duration": 3, "velocity": 68}, {"time": 3759, "pitch": 73, "duration": 6, "velocity": 65}, {"time": 3765, "pitch": 77, "duration": 3, "velocity": 71}, {"time": 3776, "pitch": 77, "duration": 20, "velocity": 44}, {"time": 3777, "pitch": 80, "duration": 19, "velocity": 62}, {"time": 3777, "pitch": 85, "duration": 19, "velocity": 64}], "annotations": [{"time": 15, "annotation": {"number": 64, "value": 127}, "group": "control_change"}, {"time": 60, "annotation": {"number": 64, "value": 0}, "group": "control_change"}, {"time": 64, "annotation": {"number": 64, "value": 127}, "group": "control_change"}, {"time": 107, "annotation": {"number": 64, "value": 0}, "group": "control_change"}, {"time": 111, "annotation": {"number": 64, "value": 127}, "group": "control_change"}, {"time": 157, "annotation": {"number": 64, "value": 0}, "group": "control_change"}, {"time": 165, "annotation": {"number": 64, "value": 127}, "group": "control_change"}, {"time": 203, "annotation": {"number": 64, "value": 0}, "group": "control_change"}, {"time": 207, "annotation": {"number": 64, "value": 127}, "group": "control_change"}, {"time": 251, "annotation": {"number": 64, "value": 0}, "group": "control_change"}, {"time": 254, "annotation": {"number": 64, "value": 127}, "group": "control_change"}, {"time": 300, "annotation": {"number": 64, "value": 0}, "group": "control_change"}, {"time": 304, "annotation": {"number": 64, "value": 127}, "group": "control_change"}, {"time": 350, "annotation": {"number": 64, "value": 127}, "group": "control_change"}, {"time": 398, "annotation": {"number": 64, "value": 127}, "group": "control_change"}, {"time": 445, "annotation": {"number": 64, "value": 0}, "group": "control_change"}, {"time": 447, "annotation": {"number": 64, "value": 127}, "group": "control_change"}, {"time": 493, "annotation": {"number": 64, "value": 0}, "group": "control_change"}, {"time": 500, "annotation": {"number": 64, "value": 127}, "group": "control_change"}, {"time": 541, "annotation": {"number": 64, "value": 0}, "group": "control_change"}, {"time": 545, "annotation": {"number": 64, "value": 127}, "group": "control_change"}, {"time": 566, "annotation": {"number": 64, "value": 0}, "group": "control_change"}, {"time": 572, "annotation": {"number": 64, "value": 127}, "group": "control_change"}, {"time": 588, "annotation": {"number": 64, "value": 0}, "group": "control_change"}, {"time": 594, "annotation": {"number": 64, "value": 127}, "group": "control_change"}, {"time": 639, "annotation": {"number": 64, "value": 0}, "group": "control_change"}, {"time": 645, "annotation": {"number": 64, "value": 127}, "group": "control_change"}, {"time": 683, "annotation": {"number": 64, "value": 0}, "group": "control_change"}, {"time": 686, "annotation": {"number": 64, "value": 127}, "group": "control_change"}, {"time": 732, "annotation": {"number": 64, "value": 0}, "group": "control_change"}, {"time": 735, "annotation": {"number": 64, "value": 127}, "group": "control_change"}, {"time": 783, "annotation": {"number": 64, "value": 127}, "group": "control_change"}, {"time": 828, "annotation": {"number": 64, "value": 0}, "group": "control_change"}, {"time": 836, "annotation": {"number": 64, "value": 127}, "group": "control_change"}, {"time": 854, "annotation": {"number": 64, "value": 0}, "group": "control_change"}, {"time": 861, "annotation": {"number": 64, "value": 127}, "group": "control_change"}, {"time": 879, "annotation": {"number": 64, "value": 0}, "group": "control_change"}, {"time": 884, "annotation": {"number": 64, "value": 127}, "group": "control_change"}, {"time": 901, "annotation": {"number": 64, "value": 0}, "group": "control_change"}, {"time": 906, "annotation": {"number": 64, "value": 127}, "group": "control_change"}, {"time": 924, "annotation": {"number": 64, "value": 0}, "group": "control_change"}, {"time": 931, "annotation": {"number": 64, "value": 127}, "group": "control_change"}, {"time": 974, "annotation": {"number": 64, "value": 0}, "group": "control_change"}, {"time": 981, "annotation": {"number": 64, "value": 127}, "group": "control_change"}, {"time": 1022, "annotation": {"number": 64, "value": 0}, "group": "control_change"}, {"time": 1028, "annotation": {"number": 64, "value": 127}, "group": "control_change"}, {"time": 1046, "annotation": {"number": 64, "value": 0}, "group": "control_change"}, {"time": 1053, "annotation": {"number": 64, "value": 127}, "group": "control_change"}, {"time": 1068, "annotation": {"number": 64, "value": 0}, "group": "control_change"}, {"time": 1095, "annotation": {"number": 64, "value": 127}, "group": "control_change"}, {"time": 1115, "annotation": {"number": 64, "value": 0}, "group": "control_change"}, {"time": 1122, "annotation": {"number": 64, "value": 127}, "group": "control_change"}, {"time": 1164, "annotation": {"number": 64, "value": 0}, "group": "control_change"}, {"time": 1167, "annotation": {"number": 64, "value": 127}, "group": "control_change"}, {"time": 1167, "annotation": {"number": 64, "value": 0}, "group": "control_change"}, {"time": 1212, "annotation": {"number": 64, "value": 0}, "group": "control_change"}, {"time": 1218, "annotation": {"number": 64, "value": 127}, "group": "control_change"}, {"time": 1261, "annotation": {"number": 64, "value": 0}, "group": "control_change"}, {"time": 1268, "annotation": {"number": 64, "value": 127}, "group": "control_change"}, {"time": 1284, "annotation": {"number": 64, "value": 0}, "group": "control_change"}, {"time": 1288, "annotation": {"number": 64, "value": 127}, "group": "control_change"}, {"time": 1308, "annotation": {"number": 64, "value": 0}, "group": "control_change"}, {"time": 1315, "annotation": {"number": 64, "value": 127}, "group": "control_change"}, {"time": 1334, "annotation": {"number": 64, "value": 0}, "group": "control_change"}, {"time": 1340, "annotation": {"number": 64, "value": 127}, "group": "control_change"}, {"time": 1357, "annotation": {"number": 64, "value": 0}, "group": "control_change"}, {"time": 1360, "annotation": {"number": 64, "value": 127}, "group": "control_change"}, {"time": 1380, "annotation": {"number": 64, "value": 0}, "group": "control_change"}, {"time": 1385, "annotation": {"number": 64, "value": 127}, "group": "control_change"}, {"time": 1405, "annotation": {"number": 64, "value": 0}, "group": "control_change"}, {"time": 1409, "annotation": {"number": 64, "value": 127}, "group": "control_change"}, {"time": 1453, "annotation": {"number": 64, "value": 0}, "group": "control_change"}, {"time": 1460, "annotation": {"number": 64, "value": 127}, "group": "control_change"}, {"time": 1488, "annotation": {"number": 64, "value": 0}, "group": "control_change"}, {"time": 1490, "annotation": {"number": 64, "value": 127}, "group": "control_change"}, {"time": 1500, "annotation": {"number": 64, "value": 0}, "group": "control_change"}, {"time": 1502, "annotation": {"number": 64, "value": 127}, "group": "control_change"}, {"time": 1548, "annotation": {"number": 64, "value": 0}, "group": "control_change"}, {"time": 1555, "annotation": {"number": 64, "value": 127}, "group": "control_change"}, {"time": 1597, "annotation": {"number": 64, "value": 0}, "group": "control_change"}, {"time": 1604, "annotation": {"number": 64, "value": 127}, "group": "control_change"}, {"time": 1645, "annotation": {"number": 64, "value": 0}, "group": "control_change"}, {"time": 1649, "annotation": {"number": 64, "value": 127}, "group": "control_change"}, {"time": 1694, "annotation": {"number": 64, "value": 0}, "group": "control_change"}, {"time": 1697, "annotation": {"number": 64, "value": 127}, "group": "control_change"}, {"time": 1741, "annotation": {"number": 64, "value": 0}, "group": "control_change"}, {"time": 1748, "annotation": {"number": 64, "value": 127}, "group": "control_change"}, {"time": 1788, "annotation": {"number": 64, "value": 0}, "group": "control_change"}, {"time": 1791, "annotation": {"number": 64, "value": 127}, "group": "control_change"}, {"time": 1838, "annotation": {"number": 64, "value": 0}, "group": "control_change"}, {"time": 1844, "annotation": {"number": 64, "value": 127}, "group": "control_change"}, {"time": 1885, "annotation": {"number": 64, "value": 0}, "group": "control_change"}, {"time": 1887, "annotation": {"number": 64, "value": 127}, "group": "control_change"}, {"time": 1930, "annotation": {"number": 64, "value": 0}, "group": "control_change"}, {"time": 1935, "annotation": {"number": 64, "value": 127}, "group": "control_change"}, {"time": 1935, "annotation": {"number": 64, "value": 0}, "group": "control_change"}, {"time": 1980, "annotation": {"number": 64, "value": 0}, "group": "control_change"}, {"time": 1986, "annotation": {"number": 64, "value": 127}, "group": "control_change"}, {"time": 2029, "annotation": {"number": 64, "value": 0}, "group": "control_change"}, {"time": 2036, "annotation": {"number": 64, "value": 127}, "group": "control_change"}, {"time": 2052, "annotation": {"number": 64, "value": 0}, "group": "control_change"}, {"time": 2056, "annotation": {"number": 64, "value": 127}, "group": "control_change"}, {"time": 2076, "annotation": {"number": 64, "value": 0}, "group": "control_change"}, {"time": 2083, "annotation": {"number": 64, "value": 127}, "group": "control_change"}, {"time": 2102, "annotation": {"number": 64, "value": 0}, "group": "control_change"}, {"time": 2108, "annotation": {"number": 64, "value": 127}, "group": "control_change"}, {"time": 2125, "annotation": {"number": 64, "value": 0}, "group": "control_change"}, {"time": 2128, "annotation": {"number": 64, "value": 127}, "group": "control_change"}, {"time": 2148, "annotation": {"number": 64, "value": 0}, "group": "control_change"}, {"time": 2153, "annotation": {"number": 64, "value": 127}, "group": "control_change"}, {"time": 2173, "annotation": {"number": 64, "value": 0}, "group": "control_change"}, {"time": 2177, "annotation": {"number": 64, "value": 127}, "group": "control_change"}, {"time": 2221, "annotation": {"number": 64, "value": 0}, "group": "control_change"}, {"time": 2228, "annotation": {"number": 64, "value": 127}, "group": "control_change"}, {"time": 2256, "annotation": {"number": 64, "value": 0}, "group": "control_change"}, {"time": 2258, "annotation": {"number": 64, "value": 127}, "group": "control_change"}, {"time": 2268, "annotation": {"number": 64, "value": 0}, "group": "control_change"}, {"time": 2270, "annotation": {"number": 64, "value": 127}, "group": "control_change"}, {"time": 2316, "annotation": {"number": 64, "value": 0}, "group": "control_change"}, {"time": 2318, "annotation": {"number": 64, "value": 127}, "group": "control_change"}, {"time": 2319, "annotation": {"number": 64, "value": 0}, "group": "control_change"}, {"time": 2319, "annotation": {"number": 64, "value": 127}, "group": "control_change"}, {"time": 2364, "annotation": {"number": 64, "value": 0}, "group": "control_change"}, {"time": 2367, "annotation": {"number": 64, "value": 127}, "group": "control_change"}, {"time": 2412, "annotation": {"number": 64, "value": 0}, "group": "control_change"}, {"time": 2420, "annotation": {"number": 64, "value": 127}, "group": "control_change"}, {"time": 2438, "annotation": {"number": 64, "value": 0}, "group": "control_change"}, {"time": 2445, "annotation": {"number": 64, "value": 127}, "group": "control_change"}, {"time": 2463, "annotation": {"number": 64, "value": 0}, "group": "control_change"}, {"time": 2468, "annotation": {"number": 64, "value": 127}, "group": "control_change"}, {"time": 2485, "annotation": {"number": 64, "value": 0}, "group": "control_change"}, {"time": 2490, "annotation": {"number": 64, "value": 127}, "group": "control_change"}, {"time": 2508, "annotation": {"number": 64, "value": 0}, "group": "control_change"}, {"time": 2515, "annotation": {"number": 64, "value": 127}, "group": "control_change"}, {"time": 2558, "annotation": {"number": 64, "value": 0}, "group": "control_change"}, {"time": 2565, "annotation": {"number": 64, "value": 127}, "group": "control_change"}, {"time": 2606, "annotation": {"number": 64, "value": 0}, "group": "control_change"}, {"time": 2612, "annotation": {"number": 64, "value": 127}, "group": "control_change"}, {"time": 2630, "annotation": {"number": 64, "value": 0}, "group": "control_change"}, {"time": 2637, "annotation": {"number": 64, "value": 127}, "group": "control_change"}, {"time": 2652, "annotation": {"number": 64, "value": 0}, "group": "control_change"}, {"time": 2679, "annotation": {"number": 64, "value": 127}, "group": "control_change"}, {"time": 2699, "annotation": {"number": 64, "value": 0}, "group": "control_change"}, {"time": 2706, "annotation": {"number": 64, "value": 127}, "group": "control_change"}, {"time": 2748, "annotation": {"number": 64, "value": 0}, "group": "control_change"}, {"time": 2751, "annotation": {"number": 64, "value": 127}, "group": "control_change"}, {"time": 2751, "annotation": {"number": 64, "value": 0}, "group": "control_change"}, {"time": 2796, "annotation": {"number": 64, "value": 0}, "group": "control_change"}, {"time": 2802, "annotation": {"number": 64, "value": 127}, "group": "control_change"}, {"time": 2845, "annotation": {"number": 64, "value": 0}, "group": "control_change"}, {"time": 2852, "annotation": {"number": 64, "value": 127}, "group": "control_change"}, {"time": 2868, "annotation": {"number": 64, "value": 0}, "group": "control_change"}, {"time": 2872, "annotation": {"number": 64, "value": 127}, "group": "control_change"}, {"time": 2892, "annotation": {"number": 64, "value": 0}, "group": "control_change"}, {"time": 2899, "annotation": {"number": 64, "value": 127}, "group": "control_change"}, {"time": 2918, "annotation": {"number": 64, "value": 0}, "group": "control_change"}, {"time": 2924, "annotation": {"number": 64, "value": 127}, "group": "control_change"}, {"time": 2941, "annotation": {"number": 64, "value": 0}, "group": "control_change"}, {"time": 2944, "annotation": {"number": 64, "value": 127}, "group": "control_change"}, {"time": 2964, "annotation": {"number": 64, "value": 0}, "group": "control_change"}, {"time": 2969, "annotation": {"number": 64, "value": 127}, "group": "control_change"}, {"time": 2989, "annotation": {"number": 64, "value": 0}, "group": "control_change"}, {"time": 2993, "annotation": {"number": 64, "value": 127}, "group": "control_change"}, {"time": 3037, "annotation": {"number": 64, "value": 0}, "group": "control_change"}, {"time": 3044, "annotation": {"number": 64, "value": 127}, "group": "control_change"}, {"time": 3072, "annotation": {"number": 64, "value": 0}, "group": "control_change"}, {"time": 3074, "annotation": {"number": 64, "value": 127}, "group": "control_change"}, {"time": 3084, "annotation": {"number": 64, "value": 0}, "group": "control_change"}, {"time": 3086, "annotation": {"number": 64, "value": 127}, "group": "control_change"}, {"time": 3132, "annotation": {"number": 64, "value": 0}, "group": "control_change"}, {"time": 3134, "annotation": {"number": 64, "value": 127}, "group": "control_change"}, {"time": 3179, "annotation": {"number": 64, "value": 0}, "group": "control_change"}, {"time": 3187, "annotation": {"number": 64, "value": 127}, "group": "control_change"}, {"time": 3231, "annotation": {"number": 64, "value": 0}, "group": "control_change"}, {"time": 3237, "annotation": {"number": 64, "value": 127}, "group": "control_change"}, {"time": 3254, "annotation": {"number": 64, "value": 0}, "group": "control_change"}, {"time": 3260, "annotation": {"number": 64, "value": 127}, "group": "control_change"}, {"time": 3278, "annotation": {"number": 64, "value": 0}, "group": "control_change"}, {"time": 3283, "annotation": {"number": 64, "value": 127}, "group": "control_change"}, {"time": 3301, "annotation": {"number": 64, "value": 0}, "group": "control_change"}, {"time": 3307, "annotation": {"number": 64, "value": 127}, "group": "control_change"}, {"time": 3324, "annotation": {"number": 64, "value": 0}, "group": "control_change"}, {"time": 3328, "annotation": {"number": 64, "value": 127}, "group": "control_change"}, {"time": 3350, "annotation": {"number": 64, "value": 0}, "group": "control_change"}, {"time": 3352, "annotation": {"number": 64, "value": 127}, "group": "control_change"}, {"time": 3374, "annotation": {"number": 64, "value": 0}, "group": "control_change"}, {"time": 3380, "annotation": {"number": 64, "value": 127}, "group": "control_change"}, {"time": 3422, "annotation": {"number": 64, "value": 0}, "group": "control_change"}, {"time": 3429, "annotation": {"number": 64, "value": 127}, "group": "control_change"}, {"time": 3468, "annotation": {"number": 64, "value": 0}, "group": "control_change"}, {"time": 3474, "annotation": {"number": 64, "value": 127}, "group": "control_change"}, {"time": 3503, "annotation": {"number": 64, "value": 0}, "group": "control_change"}, {"time": 3519, "annotation": {"number": 64, "value": 127}, "group": "control_change"}, {"time": 3564, "annotation": {"number": 64, "value": 0}, "group": "control_change"}, {"time": 3569, "annotation": {"number": 64, "value": 127}, "group": "control_change"}, {"time": 3613, "annotation": {"number": 64, "value": 0}, "group": "control_change"}, {"time": 3618, "annotation": {"number": 64, "value": 127}, "group": "control_change"}, {"time": 3663, "annotation": {"number": 64, "value": 0}, "group": "control_change"}, {"time": 3667, "annotation": {"number": 64, "value": 127}, "group": "control_change"}, {"time": 3714, "annotation": {"number": 64, "value": 127}, "group": "control_change"}, {"time": 3715, "annotation": {"number": 64, "value": 0}, "group": "control_change"}, {"time": 3715, "annotation": {"number": 64, "value": 127}, "group": "control_change"}, {"time": 3734, "annotation": {"number": 64, "value": 0}, "group": "control_change"}, {"time": 3737, "annotation": {"number": 64, "value": 127}, "group": "control_change"}, {"time": 3828, "annotation": {"number": 64, "value": 0}, "group": "control_change"}]}]}