{"metadata": {"schema_version": "0.2", "title": "None", "source_filename": "547.mid", "source_format": "midi"}, "resolution": 12, "tempos": [{"time": 0, "qpm": 120.0}], "time_signatures": [{"time": 0, "numerator": 1, "denominator": 4}], "tracks": [{"program": 0, "is_drum": false, "name": "MELODY", "notes": [{"time": 869, "pitch": 65, "duration": 19, "velocity": 80}, {"time": 893, "pitch": 60, "duration": 24, "velocity": 77}, {"time": 917, "pitch": 68, "duration": 14, "velocity": 77}, {"time": 929, "pitch": 67, "duration": 6, "velocity": 76}, {"time": 935, "pitch": 65, "duration": 6, "velocity": 77}, {"time": 941, "pitch": 63, "duration": 12, "velocity": 77}, {"time": 953, "pitch": 60, "duration": 6, "velocity": 77}, {"time": 959, "pitch": 63, "duration": 7, "velocity": 76}, {"time": 965, "pitch": 65, "duration": 12, "velocity": 77}, {"time": 977, "pitch": 65, "duration": 12, "velocity": 76}, {"time": 989, "pitch": 63, "duration": 6, "velocity": 68}, {"time": 995, "pitch": 65, "duration": 7, "velocity": 79}, {"time": 1001, "pitch": 67, "duration": 11, "velocity": 76}, {"time": 1013, "pitch": 65, "duration": 39, "velocity": 80}, {"time": 1061, "pitch": 58, "duration": 21, "velocity": 75}, {"time": 1085, "pitch": 53, "duration": 19, "velocity": 81}, {"time": 1109, "pitch": 56, "duration": 11, "velocity": 76}, {"time": 1121, "pitch": 58, "duration": 6, "velocity": 76}, {"time": 1127, "pitch": 60, "duration": 7, "velocity": 76}, {"time": 1133, "pitch": 63, "duration": 19, "velocity": 76}, {"time": 1157, "pitch": 65, "duration": 10, "velocity": 78}, {"time": 1169, "pitch": 58, "duration": 9, "velocity": 77}, {"time": 1181, "pitch": 58, "duration": 4, "velocity": 76}, {"time": 1187, "pitch": 60, "duration": 6, "velocity": 77}, {"time": 1193, "pitch": 62, "duration": 12, "velocity": 74}, {"time": 1205, "pitch": 60, "duration": 46, "velocity": 76}, {"time": 1253, "pitch": 65, "duration": 23, "velocity": 78}, {"time": 1277, "pitch": 60, "duration": 24, "velocity": 78}, {"time": 1301, "pitch": 68, "duration": 13, "velocity": 77}, {"time": 1313, "pitch": 67, "duration": 6, "velocity": 80}, {"time": 1319, "pitch": 65, "duration": 7, "velocity": 77}, {"time": 1325, "pitch": 63, "duration": 12, "velocity": 79}, {"time": 1337, "pitch": 60, "duration": 5, "velocity": 77}, {"time": 1343, "pitch": 63, "duration": 6, "velocity": 77}, {"time": 1349, "pitch": 65, "duration": 9, "velocity": 82}, {"time": 1361, "pitch": 65, "duration": 12, "velocity": 83}, {"time": 1373, "pitch": 63, "duration": 12, "velocity": 77}, {"time": 1385, "pitch": 56, "duration": 7, "velocity": 80}, {"time": 1391, "pitch": 58, "duration": 6, "velocity": 76}, {"time": 1397, "pitch": 60, "duration": 12, "velocity": 76}, {"time": 1409, "pitch": 58, "duration": 35, "velocity": 74}, {"time": 1445, "pitch": 58, "duration": 23, "velocity": 78}, {"time": 1469, "pitch": 53, "duration": 24, "velocity": 81}, {"time": 1493, "pitch": 56, "duration": 11, "velocity": 77}, {"time": 1505, "pitch": 58, "duration": 6, "velocity": 71}, {"time": 1511, "pitch": 60, "duration": 6, "velocity": 78}, {"time": 1517, "pitch": 63, "duration": 12, "velocity": 77}, {"time": 1529, "pitch": 60, "duration": 6, "velocity": 76}, {"time": 1535, "pitch": 63, "duration": 6, "velocity": 76}, {"time": 1541, "pitch": 58, "duration": 9, "velocity": 78}, {"time": 1553, "pitch": 58, "duration": 6, "velocity": 76}, {"time": 1559, "pitch": 60, "duration": 6, "velocity": 77}, {"time": 1565, "pitch": 53, "duration": 13, "velocity": 85}, {"time": 1577, "pitch": 55, "duration": 7, "velocity": 77}, {"time": 1583, "pitch": 56, "duration": 6, "velocity": 75}, {"time": 1589, "pitch": 53, "duration": 44, "velocity": 80}, {"time": 1637, "pitch": 65, "duration": 12, "velocity": 85}, {"time": 1649, "pitch": 72, "duration": 10, "velocity": 81}, {"time": 1661, "pitch": 72, "duration": 12, "velocity": 78}, {"time": 1673, "pitch": 70, "duration": 6, "velocity": 80}, {"time": 1679, "pitch": 72, "duration": 7, "velocity": 72}, {"time": 1685, "pitch": 70, "duration": 36, "velocity": 78}, {"time": 1721, "pitch": 65, "duration": 13, "velocity": 83}, {"time": 1733, "pitch": 68, "duration": 20, "velocity": 80}, {"time": 1751, "pitch": 65, "duration": 6, "velocity": 80}, {"time": 1757, "pitch": 63, "duration": 11, "velocity": 77}, {"time": 1769, "pitch": 60, "duration": 7, "velocity": 76}, {"time": 1775, "pitch": 63, "duration": 7, "velocity": 73}, {"time": 1781, "pitch": 65, "duration": 44, "velocity": 77}, {"time": 1829, "pitch": 65, "duration": 10, "velocity": 90}, {"time": 1841, "pitch": 70, "duration": 9, "velocity": 80}, {"time": 1853, "pitch": 70, "duration": 10, "velocity": 78}, {"time": 1865, "pitch": 65, "duration": 11, "velocity": 78}, {"time": 1877, "pitch": 68, "duration": 13, "velocity": 77}, {"time": 1889, "pitch": 67, "duration": 6, "velocity": 77}, {"time": 1895, "pitch": 65, "duration": 6, "velocity": 79}, {"time": 1901, "pitch": 63, "duration": 11, "velocity": 78}, {"time": 1913, "pitch": 65, "duration": 11, "velocity": 80}, {"time": 1925, "pitch": 63, "duration": 13, "velocity": 75}, {"time": 1937, "pitch": 58, "duration": 10, "velocity": 76}, {"time": 1949, "pitch": 58, "duration": 5, "velocity": 77}, {"time": 1955, "pitch": 60, "duration": 4, "velocity": 73}, {"time": 1961, "pitch": 62, "duration": 11, "velocity": 77}, {"time": 1973, "pitch": 60, "duration": 43, "velocity": 77}, {"time": 2021, "pitch": 65, "duration": 12, "velocity": 83}, {"time": 2033, "pitch": 72, "duration": 8, "velocity": 77}, {"time": 2045, "pitch": 72, "duration": 11, "velocity": 77}, {"time": 2057, "pitch": 70, "duration": 6, "velocity": 79}, {"time": 2063, "pitch": 72, "duration": 6, "velocity": 76}, {"time": 2069, "pitch": 70, "duration": 36, "velocity": 81}, {"time": 2105, "pitch": 65, "duration": 12, "velocity": 77}, {"time": 2117, "pitch": 68, "duration": 30, "velocity": 77}, {"time": 2153, "pitch": 65, "duration": 12, "velocity": 77}, {"time": 2165, "pitch": 70, "duration": 36, "velocity": 77}, {"time": 2213, "pitch": 63, "duration": 12, "velocity": 77}, {"time": 2225, "pitch": 65, "duration": 12, "velocity": 78}, {"time": 2237, "pitch": 63, "duration": 12, "velocity": 77}, {"time": 2249, "pitch": 60, "duration": 14, "velocity": 79}, {"time": 2261, "pitch": 70, "duration": 17, "velocity": 85}, {"time": 2279, "pitch": 68, "duration": 6, "velocity": 75}, {"time": 2285, "pitch": 70, "duration": 11, "velocity": 82}, {"time": 2297, "pitch": 72, "duration": 12, "velocity": 77}, {"time": 2309, "pitch": 63, "duration": 10, "velocity": 80}, {"time": 2321, "pitch": 60, "duration": 13, "velocity": 80}, {"time": 2333, "pitch": 63, "duration": 5, "velocity": 76}, {"time": 2339, "pitch": 65, "duration": 7, "velocity": 81}, {"time": 2345, "pitch": 67, "duration": 13, "velocity": 77}, {"time": 2357, "pitch": 65, "duration": 47, "velocity": 80}, {"time": 3173, "pitch": 65, "duration": 19, "velocity": 80}, {"time": 3197, "pitch": 60, "duration": 24, "velocity": 77}, {"time": 3221, "pitch": 68, "duration": 14, "velocity": 77}, {"time": 3233, "pitch": 67, "duration": 6, "velocity": 76}, {"time": 3239, "pitch": 65, "duration": 6, "velocity": 77}, {"time": 3245, "pitch": 63, "duration": 12, "velocity": 77}, {"time": 3257, "pitch": 60, "duration": 6, "velocity": 77}, {"time": 3263, "pitch": 63, "duration": 7, "velocity": 76}, {"time": 3269, "pitch": 65, "duration": 12, "velocity": 77}, {"time": 3281, "pitch": 65, "duration": 12, "velocity": 76}, {"time": 3293, "pitch": 63, "duration": 6, "velocity": 68}, {"time": 3299, "pitch": 65, "duration": 7, "velocity": 79}, {"time": 3305, "pitch": 67, "duration": 11, "velocity": 76}, {"time": 3317, "pitch": 65, "duration": 39, "velocity": 80}, {"time": 3365, "pitch": 58, "duration": 21, "velocity": 75}, {"time": 3389, "pitch": 53, "duration": 19, "velocity": 81}, {"time": 3413, "pitch": 56, "duration": 11, "velocity": 76}, {"time": 3425, "pitch": 58, "duration": 6, "velocity": 76}, {"time": 3431, "pitch": 60, "duration": 7, "velocity": 76}, {"time": 3437, "pitch": 63, "duration": 19, "velocity": 76}, {"time": 3461, "pitch": 65, "duration": 10, "velocity": 78}, {"time": 3473, "pitch": 58, "duration": 9, "velocity": 77}, {"time": 3485, "pitch": 58, "duration": 4, "velocity": 76}, {"time": 3491, "pitch": 60, "duration": 6, "velocity": 77}, {"time": 3497, "pitch": 62, "duration": 12, "velocity": 74}, {"time": 3509, "pitch": 60, "duration": 46, "velocity": 76}, {"time": 3557, "pitch": 65, "duration": 23, "velocity": 78}, {"time": 3581, "pitch": 60, "duration": 24, "velocity": 78}, {"time": 3605, "pitch": 68, "duration": 13, "velocity": 77}, {"time": 3617, "pitch": 67, "duration": 6, "velocity": 80}, {"time": 3623, "pitch": 65, "duration": 7, "velocity": 77}, {"time": 3629, "pitch": 63, "duration": 12, "velocity": 79}, {"time": 3641, "pitch": 60, "duration": 5, "velocity": 77}, {"time": 3647, "pitch": 63, "duration": 6, "velocity": 77}, {"time": 3653, "pitch": 65, "duration": 9, "velocity": 82}, {"time": 3665, "pitch": 65, "duration": 12, "velocity": 83}, {"time": 3677, "pitch": 63, "duration": 12, "velocity": 77}, {"time": 3689, "pitch": 56, "duration": 7, "velocity": 80}, {"time": 3695, "pitch": 58, "duration": 6, "velocity": 76}, {"time": 3701, "pitch": 60, "duration": 12, "velocity": 76}, {"time": 3713, "pitch": 58, "duration": 35, "velocity": 74}, {"time": 3749, "pitch": 58, "duration": 23, "velocity": 78}, {"time": 3773, "pitch": 53, "duration": 24, "velocity": 81}, {"time": 3797, "pitch": 56, "duration": 11, "velocity": 77}, {"time": 3809, "pitch": 58, "duration": 6, "velocity": 71}, {"time": 3815, "pitch": 60, "duration": 6, "velocity": 78}, {"time": 3821, "pitch": 63, "duration": 12, "velocity": 77}, {"time": 3833, "pitch": 60, "duration": 6, "velocity": 76}, {"time": 3839, "pitch": 63, "duration": 6, "velocity": 76}, {"time": 3845, "pitch": 58, "duration": 9, "velocity": 78}, {"time": 3857, "pitch": 58, "duration": 6, "velocity": 76}, {"time": 3863, "pitch": 60, "duration": 6, "velocity": 77}, {"time": 3869, "pitch": 53, "duration": 13, "velocity": 85}, {"time": 3881, "pitch": 55, "duration": 7, "velocity": 77}, {"time": 3887, "pitch": 56, "duration": 6, "velocity": 75}, {"time": 3893, "pitch": 53, "duration": 44, "velocity": 80}, {"time": 3941, "pitch": 65, "duration": 12, "velocity": 85}, {"time": 3953, "pitch": 72, "duration": 10, "velocity": 81}, {"time": 3965, "pitch": 72, "duration": 12, "velocity": 78}, {"time": 3977, "pitch": 70, "duration": 6, "velocity": 80}, {"time": 3983, "pitch": 72, "duration": 7, "velocity": 72}, {"time": 3989, "pitch": 70, "duration": 36, "velocity": 78}, {"time": 4025, "pitch": 65, "duration": 13, "velocity": 83}, {"time": 4037, "pitch": 67, "duration": 20, "velocity": 80}, {"time": 4055, "pitch": 65, "duration": 6, "velocity": 80}, {"time": 4061, "pitch": 63, "duration": 11, "velocity": 77}, {"time": 4073, "pitch": 60, "duration": 7, "velocity": 76}, {"time": 4079, "pitch": 63, "duration": 7, "velocity": 73}, {"time": 4085, "pitch": 65, "duration": 44, "velocity": 77}, {"time": 4133, "pitch": 65, "duration": 10, "velocity": 90}, {"time": 4145, "pitch": 70, "duration": 9, "velocity": 80}, {"time": 4157, "pitch": 70, "duration": 10, "velocity": 78}, {"time": 4169, "pitch": 65, "duration": 11, "velocity": 78}, {"time": 4181, "pitch": 68, "duration": 13, "velocity": 77}, {"time": 4193, "pitch": 67, "duration": 6, "velocity": 77}, {"time": 4199, "pitch": 65, "duration": 6, "velocity": 79}, {"time": 4205, "pitch": 63, "duration": 11, "velocity": 78}, {"time": 4217, "pitch": 65, "duration": 11, "velocity": 80}, {"time": 4229, "pitch": 63, "duration": 13, "velocity": 75}, {"time": 4241, "pitch": 58, "duration": 10, "velocity": 76}, {"time": 4253, "pitch": 58, "duration": 5, "velocity": 77}, {"time": 4259, "pitch": 60, "duration": 4, "velocity": 73}, {"time": 4265, "pitch": 62, "duration": 11, "velocity": 77}, {"time": 4277, "pitch": 60, "duration": 43, "velocity": 77}, {"time": 4325, "pitch": 65, "duration": 12, "velocity": 83}, {"time": 4337, "pitch": 72, "duration": 8, "velocity": 77}, {"time": 4349, "pitch": 72, "duration": 11, "velocity": 77}, {"time": 4361, "pitch": 70, "duration": 6, "velocity": 79}, {"time": 4367, "pitch": 72, "duration": 6, "velocity": 76}, {"time": 4373, "pitch": 70, "duration": 36, "velocity": 81}, {"time": 4409, "pitch": 65, "duration": 12, "velocity": 77}, {"time": 4421, "pitch": 68, "duration": 30, "velocity": 77}, {"time": 4457, "pitch": 65, "duration": 12, "velocity": 77}, {"time": 4469, "pitch": 70, "duration": 36, "velocity": 77}, {"time": 4517, "pitch": 63, "duration": 12, "velocity": 77}, {"time": 4529, "pitch": 65, "duration": 12, "velocity": 78}, {"time": 4541, "pitch": 63, "duration": 12, "velocity": 77}, {"time": 4553, "pitch": 60, "duration": 14, "velocity": 79}, {"time": 4565, "pitch": 70, "duration": 17, "velocity": 85}, {"time": 4583, "pitch": 68, "duration": 6, "velocity": 75}, {"time": 4589, "pitch": 70, "duration": 11, "velocity": 82}, {"time": 4601, "pitch": 72, "duration": 12, "velocity": 77}, {"time": 4613, "pitch": 63, "duration": 10, "velocity": 80}, {"time": 4625, "pitch": 60, "duration": 13, "velocity": 80}, {"time": 4637, "pitch": 63, "duration": 5, "velocity": 76}, {"time": 4643, "pitch": 65, "duration": 7, "velocity": 81}, {"time": 4649, "pitch": 67, "duration": 13, "velocity": 77}, {"time": 4661, "pitch": 65, "duration": 47, "velocity": 80}, {"time": 4709, "pitch": 65, "duration": 12, "velocity": 85}, {"time": 4721, "pitch": 72, "duration": 10, "velocity": 81}, {"time": 4733, "pitch": 72, "duration": 12, "velocity": 78}, {"time": 4745, "pitch": 70, "duration": 6, "velocity": 80}, {"time": 4751, "pitch": 72, "duration": 7, "velocity": 72}, {"time": 4757, "pitch": 70, "duration": 36, "velocity": 78}, {"time": 4793, "pitch": 65, "duration": 13, "velocity": 83}, {"time": 4805, "pitch": 67, "duration": 20, "velocity": 80}, {"time": 4823, "pitch": 65, "duration": 6, "velocity": 80}, {"time": 4829, "pitch": 63, "duration": 11, "velocity": 77}, {"time": 4841, "pitch": 60, "duration": 7, "velocity": 76}, {"time": 4847, "pitch": 63, "duration": 7, "velocity": 73}, {"time": 4853, "pitch": 65, "duration": 44, "velocity": 77}, {"time": 4901, "pitch": 65, "duration": 10, "velocity": 90}, {"time": 4913, "pitch": 70, "duration": 9, "velocity": 80}, {"time": 4925, "pitch": 70, "duration": 10, "velocity": 78}, {"time": 4937, "pitch": 65, "duration": 11, "velocity": 78}, {"time": 4949, "pitch": 68, "duration": 13, "velocity": 77}, {"time": 4961, "pitch": 67, "duration": 6, "velocity": 77}, {"time": 4967, "pitch": 65, "duration": 6, "velocity": 79}, {"time": 4973, "pitch": 63, "duration": 11, "velocity": 78}, {"time": 4985, "pitch": 65, "duration": 11, "velocity": 80}, {"time": 4997, "pitch": 63, "duration": 13, "velocity": 75}, {"time": 5009, "pitch": 58, "duration": 10, "velocity": 76}, {"time": 5021, "pitch": 58, "duration": 5, "velocity": 77}, {"time": 5027, "pitch": 60, "duration": 4, "velocity": 73}, {"time": 5033, "pitch": 62, "duration": 11, "velocity": 77}, {"time": 5045, "pitch": 60, "duration": 43, "velocity": 77}, {"time": 5093, "pitch": 65, "duration": 12, "velocity": 83}, {"time": 5105, "pitch": 72, "duration": 8, "velocity": 77}, {"time": 5117, "pitch": 72, "duration": 11, "velocity": 77}, {"time": 5129, "pitch": 70, "duration": 6, "velocity": 79}, {"time": 5135, "pitch": 72, "duration": 6, "velocity": 76}, {"time": 5141, "pitch": 70, "duration": 36, "velocity": 81}, {"time": 5177, "pitch": 65, "duration": 12, "velocity": 77}, {"time": 5189, "pitch": 68, "duration": 30, "velocity": 77}, {"time": 5225, "pitch": 65, "duration": 12, "velocity": 77}, {"time": 5237, "pitch": 70, "duration": 36, "velocity": 77}, {"time": 5285, "pitch": 63, "duration": 12, "velocity": 77}, {"time": 5297, "pitch": 65, "duration": 12, "velocity": 78}, {"time": 5309, "pitch": 63, "duration": 12, "velocity": 77}, {"time": 5321, "pitch": 60, "duration": 14, "velocity": 79}, {"time": 5333, "pitch": 70, "duration": 17, "velocity": 85}, {"time": 5351, "pitch": 68, "duration": 6, "velocity": 75}, {"time": 5357, "pitch": 70, "duration": 11, "velocity": 82}, {"time": 5369, "pitch": 72, "duration": 12, "velocity": 77}, {"time": 5381, "pitch": 63, "duration": 10, "velocity": 80}, {"time": 5393, "pitch": 60, "duration": 13, "velocity": 80}, {"time": 5405, "pitch": 63, "duration": 5, "velocity": 76}, {"time": 5411, "pitch": 65, "duration": 7, "velocity": 81}, {"time": 5417, "pitch": 67, "duration": 13, "velocity": 77}, {"time": 5429, "pitch": 65, "duration": 47, "velocity": 80}, {"time": 5477, "pitch": 63, "duration": 12, "velocity": 77}, {"time": 5489, "pitch": 65, "duration": 12, "velocity": 78}, {"time": 5501, "pitch": 63, "duration": 12, "velocity": 77}, {"time": 5513, "pitch": 60, "duration": 14, "velocity": 79}, {"time": 5525, "pitch": 70, "duration": 17, "velocity": 85}, {"time": 5543, "pitch": 68, "duration": 6, "velocity": 75}, {"time": 5549, "pitch": 70, "duration": 11, "velocity": 82}, {"time": 5561, "pitch": 72, "duration": 12, "velocity": 77}, {"time": 5573, "pitch": 63, "duration": 36, "velocity": 80}, {"time": 5658, "pitch": 63, "duration": 13, "velocity": 77}, {"time": 5669, "pitch": 65, "duration": 16, "velocity": 78}, {"time": 5685, "pitch": 67, "duration": 29, "velocity": 78}, {"time": 5713, "pitch": 65, "duration": 98, "velocity": 85}]}, {"program": 0, "is_drum": false, "name": "BRIDGE", "notes": [{"time": 77, "pitch": 72, "duration": 12, "velocity": 82}, {"time": 89, "pitch": 75, "duration": 11, "velocity": 90}, {"time": 101, "pitch": 77, "duration": 36, "velocity": 78}, {"time": 137, "pitch": 84, "duration": 12, "velocity": 87}, {"time": 149, "pitch": 82, "duration": 24, "velocity": 85}, {"time": 173, "pitch": 80, "duration": 11, "velocity": 79}, {"time": 185, "pitch": 79, "duration": 12, "velocity": 90}, {"time": 197, "pitch": 77, "duration": 68, "velocity": 82}, {"time": 269, "pitch": 72, "duration": 12, "velocity": 82}, {"time": 281, "pitch": 75, "duration": 11, "velocity": 90}, {"time": 293, "pitch": 77, "duration": 36, "velocity": 78}, {"time": 329, "pitch": 84, "duration": 12, "velocity": 87}, {"time": 341, "pitch": 82, "duration": 24, "velocity": 85}, {"time": 365, "pitch": 87, "duration": 11, "velocity": 79}, {"time": 377, "pitch": 82, "duration": 12, "velocity": 90}, {"time": 389, "pitch": 84, "duration": 68, "velocity": 82}, {"time": 461, "pitch": 72, "duration": 12, "velocity": 87}, {"time": 473, "pitch": 75, "duration": 12, "velocity": 85}, {"time": 485, "pitch": 77, "duration": 50, "velocity": 78}, {"time": 533, "pitch": 82, "duration": 23, "velocity": 78}, {"time": 557, "pitch": 80, "duration": 13, "velocity": 76}, {"time": 569, "pitch": 79, "duration": 12, "velocity": 85}, {"time": 581, "pitch": 77, "duration": 70, "velocity": 78}, {"time": 653, "pitch": 72, "duration": 6, "velocity": 80}, {"time": 659, "pitch": 77, "duration": 11, "velocity": 90}, {"time": 671, "pitch": 80, "duration": 6, "velocity": 77}, {"time": 677, "pitch": 84, "duration": 47, "velocity": 81}, {"time": 725, "pitch": 82, "duration": 36, "velocity": 77}, {"time": 761, "pitch": 80, "duration": 6, "velocity": 76}, {"time": 767, "pitch": 79, "duration": 6, "velocity": 64}, {"time": 773, "pitch": 77, "duration": 60, "velocity": 77}, {"time": 833, "pitch": 72, "duration": 13, "velocity": 77}, {"time": 845, "pitch": 70, "duration": 12, "velocity": 80}, {"time": 857, "pitch": 68, "duration": 12, "velocity": 77}, {"time": 869, "pitch": 65, "duration": 46, "velocity": 78}, {"time": 1037, "pitch": 77, "duration": 14, "velocity": 76}, {"time": 1049, "pitch": 72, "duration": 13, "velocity": 76}, {"time": 1061, "pitch": 70, "duration": 44, "velocity": 74}, {"time": 1109, "pitch": 75, "duration": 24, "velocity": 77}, {"time": 1133, "pitch": 72, "duration": 20, "velocity": 76}, {"time": 1157, "pitch": 70, "duration": 47, "velocity": 71}, {"time": 1205, "pitch": 72, "duration": 19, "velocity": 75}, {"time": 1223, "pitch": 77, "duration": 3, "velocity": 74}, {"time": 1226, "pitch": 75, "duration": 2, "velocity": 78}, {"time": 1228, "pitch": 72, "duration": 14, "velocity": 80}, {"time": 1241, "pitch": 75, "duration": 12, "velocity": 97}, {"time": 1253, "pitch": 77, "duration": 40, "velocity": 83}, {"time": 1409, "pitch": 63, "duration": 6, "velocity": 73}, {"time": 1415, "pitch": 65, "duration": 7, "velocity": 72}, {"time": 1421, "pitch": 63, "duration": 13, "velocity": 69}, {"time": 1433, "pitch": 65, "duration": 7, "velocity": 74}, {"time": 1439, "pitch": 68, "duration": 7, "velocity": 71}, {"time": 1445, "pitch": 70, "duration": 40, "velocity": 76}, {"time": 1607, "pitch": 72, "duration": 7, "velocity": 68}, {"time": 1613, "pitch": 70, "duration": 7, "velocity": 74}, {"time": 1619, "pitch": 72, "duration": 7, "velocity": 79}, {"time": 1625, "pitch": 75, "duration": 8, "velocity": 77}, {"time": 1631, "pitch": 77, "duration": 48, "velocity": 77}, {"time": 1685, "pitch": 73, "duration": 48, "velocity": 65}, {"time": 1685, "pitch": 77, "duration": 48, "velocity": 72}, {"time": 1733, "pitch": 77, "duration": 1, "velocity": 71}, {"time": 1733, "pitch": 80, "duration": 22, "velocity": 71}, {"time": 1757, "pitch": 75, "duration": 19, "velocity": 72}, {"time": 1757, "pitch": 79, "duration": 20, "velocity": 71}, {"time": 1781, "pitch": 77, "duration": 46, "velocity": 71}, {"time": 1781, "pitch": 80, "duration": 46, "velocity": 68}, {"time": 1793, "pitch": 68, "duration": 14, "velocity": 72}, {"time": 1805, "pitch": 67, "duration": 6, "velocity": 77}, {"time": 1811, "pitch": 65, "duration": 6, "velocity": 76}, {"time": 1817, "pitch": 63, "duration": 13, "velocity": 76}, {"time": 1829, "pitch": 65, "duration": 49, "velocity": 77}, {"time": 1877, "pitch": 77, "duration": 40, "velocity": 73}, {"time": 1877, "pitch": 80, "duration": 40, "velocity": 71}, {"time": 1925, "pitch": 74, "duration": 23, "velocity": 55}, {"time": 1925, "pitch": 77, "duration": 24, "velocity": 72}, {"time": 1949, "pitch": 70, "duration": 7, "velocity": 76}, {"time": 1955, "pitch": 72, "duration": 7, "velocity": 75}, {"time": 1961, "pitch": 74, "duration": 12, "velocity": 71}, {"time": 1973, "pitch": 72, "duration": 12, "velocity": 71}, {"time": 1985, "pitch": 72, "duration": 6, "velocity": 80}, {"time": 1991, "pitch": 70, "duration": 7, "velocity": 71}, {"time": 1997, "pitch": 72, "duration": 7, "velocity": 76}, {"time": 2003, "pitch": 70, "duration": 7, "velocity": 76}, {"time": 2009, "pitch": 72, "duration": 6, "velocity": 78}, {"time": 2015, "pitch": 75, "duration": 7, "velocity": 78}, {"time": 2021, "pitch": 77, "duration": 48, "velocity": 77}, {"time": 2069, "pitch": 73, "duration": 49, "velocity": 65}, {"time": 2069, "pitch": 77, "duration": 49, "velocity": 72}, {"time": 2117, "pitch": 77, "duration": 1, "velocity": 72}, {"time": 2117, "pitch": 80, "duration": 43, "velocity": 70}, {"time": 2165, "pitch": 79, "duration": 36, "velocity": 65}, {"time": 2165, "pitch": 82, "duration": 36, "velocity": 67}, {"time": 2201, "pitch": 80, "duration": 6, "velocity": 78}, {"time": 2207, "pitch": 77, "duration": 6, "velocity": 74}, {"time": 2213, "pitch": 75, "duration": 47, "velocity": 77}, {"time": 2261, "pitch": 73, "duration": 43, "velocity": 68}, {"time": 2261, "pitch": 77, "duration": 47, "velocity": 71}, {"time": 2309, "pitch": 75, "duration": 25, "velocity": 77}, {"time": 2333, "pitch": 72, "duration": 14, "velocity": 67}, {"time": 2345, "pitch": 75, "duration": 13, "velocity": 73}, {"time": 2357, "pitch": 77, "duration": 48, "velocity": 76}, {"time": 2399, "pitch": 72, "duration": 6, "velocity": 85}, {"time": 2405, "pitch": 77, "duration": 6, "velocity": 92}, {"time": 2411, "pitch": 72, "duration": 3, "velocity": 87}, {"time": 2417, "pitch": 72, "duration": 6, "velocity": 87}, {"time": 2423, "pitch": 70, "duration": 6, "velocity": 85}, {"time": 2429, "pitch": 72, "duration": 13, "velocity": 85}, {"time": 2441, "pitch": 68, "duration": 6, "velocity": 83}, {"time": 2447, "pitch": 70, "duration": 6, "velocity": 83}, {"time": 2453, "pitch": 72, "duration": 37, "velocity": 82}, {"time": 2477, "pitch": 60, "duration": 13, "velocity": 65}, {"time": 2489, "pitch": 58, "duration": 6, "velocity": 67}, {"time": 2489, "pitch": 68, "duration": 6, "velocity": 79}, {"time": 2495, "pitch": 56, "duration": 6, "velocity": 66}, {"time": 2495, "pitch": 72, "duration": 8, "velocity": 79}, {"time": 2501, "pitch": 58, "duration": 7, "velocity": 66}, {"time": 2501, "pitch": 77, "duration": 7, "velocity": 85}, {"time": 2507, "pitch": 60, "duration": 57, "velocity": 70}, {"time": 2507, "pitch": 68, "duration": 4, "velocity": 80}, {"time": 2513, "pitch": 68, "duration": 5, "velocity": 78}, {"time": 2519, "pitch": 77, "duration": 4, "velocity": 83}, {"time": 2525, "pitch": 77, "duration": 18, "velocity": 81}, {"time": 2537, "pitch": 70, "duration": 13, "velocity": 77}, {"time": 2549, "pitch": 72, "duration": 46, "velocity": 77}, {"time": 2571, "pitch": 63, "duration": 22, "velocity": 76}, {"time": 2592, "pitch": 60, "duration": 4, "velocity": 70}, {"time": 2596, "pitch": 58, "duration": 48, "velocity": 73}, {"time": 2603, "pitch": 72, "duration": 7, "velocity": 78}, {"time": 2609, "pitch": 70, "duration": 6, "velocity": 87}, {"time": 2615, "pitch": 68, "duration": 6, "velocity": 80}, {"time": 2621, "pitch": 63, "duration": 7, "velocity": 81}, {"time": 2627, "pitch": 65, "duration": 6, "velocity": 87}, {"time": 2633, "pitch": 68, "duration": 5, "velocity": 82}, {"time": 2639, "pitch": 65, "duration": 7, "velocity": 82}, {"time": 2645, "pitch": 70, "duration": 24, "velocity": 83}, {"time": 2663, "pitch": 58, "duration": 4, "velocity": 68}, {"time": 2667, "pitch": 56, "duration": 14, "velocity": 75}, {"time": 2669, "pitch": 65, "duration": 7, "velocity": 87}, {"time": 2675, "pitch": 68, "duration": 6, "velocity": 76}, {"time": 2680, "pitch": 58, "duration": 13, "velocity": 73}, {"time": 2681, "pitch": 65, "duration": 6, "velocity": 80}, {"time": 2687, "pitch": 63, "duration": 7, "velocity": 76}, {"time": 2693, "pitch": 60, "duration": 73, "velocity": 69}, {"time": 2693, "pitch": 65, "duration": 73, "velocity": 83}, {"time": 2765, "pitch": 72, "duration": 14, "velocity": 87}, {"time": 2777, "pitch": 75, "duration": 11, "velocity": 90}, {"time": 2789, "pitch": 77, "duration": 23, "velocity": 83}, {"time": 2813, "pitch": 84, "duration": 25, "velocity": 87}, {"time": 2837, "pitch": 82, "duration": 13, "velocity": 81}, {"time": 2849, "pitch": 80, "duration": 12, "velocity": 81}, {"time": 2861, "pitch": 77, "duration": 7, "velocity": 90}, {"time": 2869, "pitch": 79, "duration": 3, "velocity": 70}, {"time": 2871, "pitch": 77, "duration": 3, "velocity": 80}, {"time": 2873, "pitch": 75, "duration": 12, "velocity": 87}, {"time": 2885, "pitch": 72, "duration": 65, "velocity": 78}, {"time": 2957, "pitch": 72, "duration": 13, "velocity": 90}, {"time": 2969, "pitch": 75, "duration": 11, "velocity": 97}, {"time": 2981, "pitch": 77, "duration": 24, "velocity": 82}, {"time": 3005, "pitch": 84, "duration": 25, "velocity": 85}, {"time": 3029, "pitch": 82, "duration": 35, "velocity": 80}, {"time": 3065, "pitch": 80, "duration": 7, "velocity": 78}, {"time": 3071, "pitch": 79, "duration": 6, "velocity": 79}, {"time": 3077, "pitch": 77, "duration": 90, "velocity": 81}, {"time": 3137, "pitch": 60, "duration": 13, "velocity": 80}, {"time": 3149, "pitch": 58, "duration": 12, "velocity": 76}, {"time": 3161, "pitch": 56, "duration": 12, "velocity": 77}, {"time": 3173, "pitch": 53, "duration": 40, "velocity": 75}, {"time": 3341, "pitch": 77, "duration": 14, "velocity": 76}, {"time": 3353, "pitch": 72, "duration": 13, "velocity": 76}, {"time": 3365, "pitch": 70, "duration": 44, "velocity": 74}, {"time": 3413, "pitch": 75, "duration": 24, "velocity": 77}, {"time": 3437, "pitch": 72, "duration": 20, "velocity": 76}, {"time": 3461, "pitch": 70, "duration": 47, "velocity": 71}, {"time": 3509, "pitch": 72, "duration": 19, "velocity": 75}, {"time": 3527, "pitch": 77, "duration": 3, "velocity": 74}, {"time": 3530, "pitch": 75, "duration": 2, "velocity": 78}, {"time": 3532, "pitch": 72, "duration": 14, "velocity": 80}, {"time": 3545, "pitch": 75, "duration": 12, "velocity": 97}, {"time": 3557, "pitch": 77, "duration": 40, "velocity": 83}, {"time": 3713, "pitch": 63, "duration": 6, "velocity": 73}, {"time": 3719, "pitch": 65, "duration": 7, "velocity": 72}, {"time": 3725, "pitch": 63, "duration": 13, "velocity": 69}, {"time": 3737, "pitch": 65, "duration": 7, "velocity": 74}, {"time": 3743, "pitch": 68, "duration": 7, "velocity": 71}, {"time": 3749, "pitch": 70, "duration": 40, "velocity": 76}, {"time": 3911, "pitch": 72, "duration": 7, "velocity": 68}, {"time": 3917, "pitch": 70, "duration": 7, "velocity": 74}, {"time": 3923, "pitch": 72, "duration": 7, "velocity": 79}, {"time": 3929, "pitch": 75, "duration": 8, "velocity": 77}, {"time": 3935, "pitch": 77, "duration": 48, "velocity": 77}, {"time": 3989, "pitch": 73, "duration": 48, "velocity": 65}, {"time": 3989, "pitch": 77, "duration": 48, "velocity": 72}, {"time": 4037, "pitch": 77, "duration": 1, "velocity": 71}, {"time": 4037, "pitch": 80, "duration": 22, "velocity": 71}, {"time": 4061, "pitch": 75, "duration": 19, "velocity": 72}, {"time": 4061, "pitch": 79, "duration": 20, "velocity": 71}, {"time": 4085, "pitch": 77, "duration": 46, "velocity": 71}, {"time": 4085, "pitch": 80, "duration": 46, "velocity": 68}, {"time": 4097, "pitch": 68, "duration": 14, "velocity": 72}, {"time": 4109, "pitch": 67, "duration": 6, "velocity": 77}, {"time": 4115, "pitch": 65, "duration": 6, "velocity": 76}, {"time": 4121, "pitch": 63, "duration": 13, "velocity": 76}, {"time": 4133, "pitch": 65, "duration": 49, "velocity": 77}, {"time": 4181, "pitch": 77, "duration": 40, "velocity": 73}, {"time": 4181, "pitch": 80, "duration": 40, "velocity": 71}, {"time": 4229, "pitch": 74, "duration": 23, "velocity": 55}, {"time": 4229, "pitch": 77, "duration": 24, "velocity": 72}, {"time": 4253, "pitch": 70, "duration": 7, "velocity": 76}, {"time": 4259, "pitch": 72, "duration": 7, "velocity": 75}, {"time": 4265, "pitch": 74, "duration": 12, "velocity": 71}, {"time": 4277, "pitch": 72, "duration": 12, "velocity": 71}, {"time": 4289, "pitch": 72, "duration": 6, "velocity": 80}, {"time": 4295, "pitch": 70, "duration": 7, "velocity": 71}, {"time": 4301, "pitch": 72, "duration": 7, "velocity": 76}, {"time": 4307, "pitch": 70, "duration": 7, "velocity": 76}, {"time": 4313, "pitch": 72, "duration": 6, "velocity": 78}, {"time": 4319, "pitch": 75, "duration": 7, "velocity": 78}, {"time": 4325, "pitch": 77, "duration": 48, "velocity": 77}, {"time": 4373, "pitch": 73, "duration": 49, "velocity": 65}, {"time": 4373, "pitch": 77, "duration": 49, "velocity": 72}, {"time": 4421, "pitch": 77, "duration": 1, "velocity": 72}, {"time": 4421, "pitch": 80, "duration": 43, "velocity": 70}, {"time": 4469, "pitch": 79, "duration": 36, "velocity": 65}, {"time": 4469, "pitch": 82, "duration": 36, "velocity": 67}, {"time": 4505, "pitch": 80, "duration": 6, "velocity": 78}, {"time": 4511, "pitch": 77, "duration": 6, "velocity": 74}, {"time": 4517, "pitch": 75, "duration": 47, "velocity": 77}, {"time": 4565, "pitch": 73, "duration": 43, "velocity": 68}, {"time": 4565, "pitch": 77, "duration": 47, "velocity": 71}, {"time": 4613, "pitch": 75, "duration": 25, "velocity": 77}, {"time": 4637, "pitch": 72, "duration": 14, "velocity": 67}, {"time": 4649, "pitch": 75, "duration": 13, "velocity": 73}, {"time": 4661, "pitch": 77, "duration": 18, "velocity": 76}, {"time": 4679, "pitch": 72, "duration": 7, "velocity": 68}, {"time": 4685, "pitch": 70, "duration": 7, "velocity": 74}, {"time": 4691, "pitch": 72, "duration": 7, "velocity": 79}, {"time": 4697, "pitch": 75, "duration": 8, "velocity": 77}, {"time": 4703, "pitch": 77, "duration": 48, "velocity": 77}, {"time": 4757, "pitch": 73, "duration": 48, "velocity": 65}, {"time": 4757, "pitch": 77, "duration": 48, "velocity": 72}, {"time": 4805, "pitch": 77, "duration": 1, "velocity": 71}, {"time": 4805, "pitch": 80, "duration": 22, "velocity": 71}, {"time": 4829, "pitch": 75, "duration": 19, "velocity": 72}, {"time": 4829, "pitch": 79, "duration": 20, "velocity": 71}, {"time": 4853, "pitch": 77, "duration": 46, "velocity": 71}, {"time": 4853, "pitch": 80, "duration": 46, "velocity": 68}, {"time": 4865, "pitch": 68, "duration": 14, "velocity": 72}, {"time": 4877, "pitch": 67, "duration": 6, "velocity": 77}, {"time": 4883, "pitch": 65, "duration": 6, "velocity": 76}, {"time": 4889, "pitch": 63, "duration": 13, "velocity": 76}, {"time": 4901, "pitch": 65, "duration": 49, "velocity": 77}, {"time": 4949, "pitch": 77, "duration": 40, "velocity": 73}, {"time": 4949, "pitch": 80, "duration": 40, "velocity": 71}, {"time": 4997, "pitch": 74, "duration": 23, "velocity": 55}, {"time": 4997, "pitch": 77, "duration": 24, "velocity": 72}, {"time": 5021, "pitch": 70, "duration": 7, "velocity": 76}, {"time": 5027, "pitch": 72, "duration": 7, "velocity": 75}, {"time": 5033, "pitch": 74, "duration": 12, "velocity": 71}, {"time": 5045, "pitch": 72, "duration": 12, "velocity": 71}, {"time": 5057, "pitch": 72, "duration": 6, "velocity": 80}, {"time": 5063, "pitch": 70, "duration": 7, "velocity": 71}, {"time": 5069, "pitch": 72, "duration": 7, "velocity": 76}, {"time": 5075, "pitch": 70, "duration": 7, "velocity": 76}, {"time": 5081, "pitch": 72, "duration": 6, "velocity": 78}, {"time": 5087, "pitch": 75, "duration": 7, "velocity": 78}, {"time": 5093, "pitch": 77, "duration": 48, "velocity": 77}, {"time": 5141, "pitch": 73, "duration": 49, "velocity": 65}, {"time": 5141, "pitch": 77, "duration": 49, "velocity": 72}, {"time": 5189, "pitch": 77, "duration": 1, "velocity": 72}, {"time": 5189, "pitch": 80, "duration": 43, "velocity": 70}, {"time": 5237, "pitch": 79, "duration": 36, "velocity": 65}, {"time": 5237, "pitch": 82, "duration": 36, "velocity": 67}, {"time": 5273, "pitch": 80, "duration": 6, "velocity": 78}, {"time": 5279, "pitch": 77, "duration": 6, "velocity": 74}, {"time": 5285, "pitch": 75, "duration": 47, "velocity": 77}, {"time": 5333, "pitch": 73, "duration": 43, "velocity": 68}, {"time": 5333, "pitch": 77, "duration": 47, "velocity": 71}, {"time": 5381, "pitch": 75, "duration": 25, "velocity": 77}, {"time": 5405, "pitch": 72, "duration": 14, "velocity": 67}, {"time": 5417, "pitch": 75, "duration": 13, "velocity": 73}, {"time": 5429, "pitch": 77, "duration": 48, "velocity": 76}, {"time": 5477, "pitch": 75, "duration": 47, "velocity": 77}, {"time": 5525, "pitch": 73, "duration": 43, "velocity": 68}, {"time": 5525, "pitch": 77, "duration": 47, "velocity": 71}, {"time": 5573, "pitch": 75, "duration": 25, "velocity": 77}, {"time": 5597, "pitch": 72, "duration": 14, "velocity": 67}, {"time": 5609, "pitch": 75, "duration": 13, "velocity": 73}, {"time": 5621, "pitch": 77, "duration": 48, "velocity": 76}]}, {"program": 0, "is_drum": false, "name": "PIANO", "notes": [{"time": 101, "pitch": 37, "duration": 36, "velocity": 65}, {"time": 113, "pitch": 44, "duration": 25, "velocity": 68}, {"time": 125, "pitch": 61, "duration": 14, "velocity": 80}, {"time": 137, "pitch": 65, "duration": 11, "velocity": 76}, {"time": 149, "pitch": 39, "duration": 32, "velocity": 77}, {"time": 149, "pitch": 63, "duration": 18, "velocity": 70}, {"time": 149, "pitch": 67, "duration": 25, "velocity": 65}, {"time": 161, "pitch": 46, "duration": 21, "velocity": 59}, {"time": 173, "pitch": 63, "duration": 4, "velocity": 63}, {"time": 197, "pitch": 41, "duration": 81, "velocity": 76}, {"time": 197, "pitch": 65, "duration": 23, "velocity": 76}, {"time": 209, "pitch": 48, "duration": 68, "velocity": 59}, {"time": 221, "pitch": 60, "duration": 13, "velocity": 65}, {"time": 233, "pitch": 56, "duration": 7, "velocity": 69}, {"time": 245, "pitch": 56, "duration": 16, "velocity": 64}, {"time": 245, "pitch": 65, "duration": 18, "velocity": 73}, {"time": 269, "pitch": 56, "duration": 11, "velocity": 72}, {"time": 269, "pitch": 60, "duration": 7, "velocity": 71}, {"time": 293, "pitch": 37, "duration": 3, "velocity": 73}, {"time": 293, "pitch": 56, "duration": 10, "velocity": 70}, {"time": 293, "pitch": 61, "duration": 14, "velocity": 72}, {"time": 305, "pitch": 49, "duration": 28, "velocity": 76}, {"time": 317, "pitch": 56, "duration": 18, "velocity": 76}, {"time": 323, "pitch": 61, "duration": 7, "velocity": 76}, {"time": 329, "pitch": 65, "duration": 12, "velocity": 76}, {"time": 335, "pitch": 61, "duration": 4, "velocity": 59}, {"time": 341, "pitch": 51, "duration": 27, "velocity": 77}, {"time": 341, "pitch": 67, "duration": 24, "velocity": 75}, {"time": 353, "pitch": 58, "duration": 16, "velocity": 56}, {"time": 365, "pitch": 63, "duration": 12, "velocity": 69}, {"time": 389, "pitch": 41, "duration": 83, "velocity": 77}, {"time": 389, "pitch": 60, "duration": 24, "velocity": 70}, {"time": 401, "pitch": 48, "duration": 45, "velocity": 57}, {"time": 413, "pitch": 53, "duration": 28, "velocity": 77}, {"time": 425, "pitch": 60, "duration": 32, "velocity": 77}, {"time": 437, "pitch": 65, "duration": 17, "velocity": 76}, {"time": 449, "pitch": 53, "duration": 9, "velocity": 65}, {"time": 461, "pitch": 53, "duration": 6, "velocity": 83}, {"time": 461, "pitch": 60, "duration": 12, "velocity": 76}, {"time": 467, "pitch": 48, "duration": 6, "velocity": 75}, {"time": 473, "pitch": 53, "duration": 2, "velocity": 82}, {"time": 485, "pitch": 49, "duration": 43, "velocity": 78}, {"time": 485, "pitch": 56, "duration": 4, "velocity": 76}, {"time": 485, "pitch": 61, "duration": 8, "velocity": 75}, {"time": 491, "pitch": 54, "duration": 1, "velocity": 64}, {"time": 491, "pitch": 56, "duration": 7, "velocity": 62}, {"time": 497, "pitch": 61, "duration": 13, "velocity": 69}, {"time": 503, "pitch": 56, "duration": 6, "velocity": 69}, {"time": 509, "pitch": 65, "duration": 11, "velocity": 90}, {"time": 515, "pitch": 56, "duration": 8, "velocity": 69}, {"time": 521, "pitch": 61, "duration": 11, "velocity": 72}, {"time": 527, "pitch": 56, "duration": 5, "velocity": 70}, {"time": 533, "pitch": 51, "duration": 48, "velocity": 78}, {"time": 539, "pitch": 58, "duration": 7, "velocity": 75}, {"time": 545, "pitch": 63, "duration": 7, "velocity": 78}, {"time": 551, "pitch": 58, "duration": 7, "velocity": 75}, {"time": 557, "pitch": 67, "duration": 12, "velocity": 77}, {"time": 563, "pitch": 58, "duration": 8, "velocity": 74}, {"time": 569, "pitch": 63, "duration": 15, "velocity": 76}, {"time": 575, "pitch": 58, "duration": 6, "velocity": 78}, {"time": 581, "pitch": 53, "duration": 44, "velocity": 80}, {"time": 587, "pitch": 60, "duration": 5, "velocity": 76}, {"time": 593, "pitch": 65, "duration": 14, "velocity": 76}, {"time": 599, "pitch": 60, "duration": 7, "velocity": 77}, {"time": 605, "pitch": 68, "duration": 12, "velocity": 76}, {"time": 611, "pitch": 60, "duration": 7, "velocity": 70}, {"time": 617, "pitch": 65, "duration": 19, "velocity": 73}, {"time": 623, "pitch": 60, "duration": 9, "velocity": 77}, {"time": 629, "pitch": 53, "duration": 45, "velocity": 79}, {"time": 635, "pitch": 60, "duration": 7, "velocity": 71}, {"time": 641, "pitch": 65, "duration": 7, "velocity": 71}, {"time": 647, "pitch": 60, "duration": 4, "velocity": 78}, {"time": 653, "pitch": 60, "duration": 1, "velocity": 74}, {"time": 653, "pitch": 68, "duration": 12, "velocity": 76}, {"time": 659, "pitch": 60, "duration": 6, "velocity": 80}, {"time": 665, "pitch": 65, "duration": 9, "velocity": 77}, {"time": 671, "pitch": 60, "duration": 6, "velocity": 77}, {"time": 677, "pitch": 49, "duration": 31, "velocity": 77}, {"time": 683, "pitch": 56, "duration": 6, "velocity": 81}, {"time": 689, "pitch": 61, "duration": 7, "velocity": 70}, {"time": 695, "pitch": 56, "duration": 7, "velocity": 78}, {"time": 701, "pitch": 65, "duration": 8, "velocity": 82}, {"time": 707, "pitch": 56, "duration": 8, "velocity": 74}, {"time": 713, "pitch": 61, "duration": 10, "velocity": 77}, {"time": 719, "pitch": 56, "duration": 6, "velocity": 74}, {"time": 725, "pitch": 51, "duration": 33, "velocity": 77}, {"time": 725, "pitch": 63, "duration": 6, "velocity": 70}, {"time": 731, "pitch": 58, "duration": 8, "velocity": 76}, {"time": 737, "pitch": 63, "duration": 8, "velocity": 74}, {"time": 743, "pitch": 58, "duration": 8, "velocity": 76}, {"time": 749, "pitch": 67, "duration": 11, "velocity": 75}, {"time": 755, "pitch": 58, "duration": 7, "velocity": 71}, {"time": 761, "pitch": 63, "duration": 11, "velocity": 75}, {"time": 767, "pitch": 58, "duration": 6, "velocity": 71}, {"time": 773, "pitch": 41, "duration": 43, "velocity": 74}, {"time": 773, "pitch": 65, "duration": 8, "velocity": 76}, {"time": 779, "pitch": 60, "duration": 8, "velocity": 70}, {"time": 785, "pitch": 65, "duration": 13, "velocity": 70}, {"time": 791, "pitch": 60, "duration": 6, "velocity": 68}, {"time": 797, "pitch": 68, "duration": 13, "velocity": 71}, {"time": 803, "pitch": 60, "duration": 7, "velocity": 67}, {"time": 809, "pitch": 65, "duration": 21, "velocity": 70}, {"time": 815, "pitch": 60, "duration": 9, "velocity": 70}, {"time": 821, "pitch": 41, "duration": 35, "velocity": 76}, {"time": 833, "pitch": 48, "duration": 22, "velocity": 52}, {"time": 845, "pitch": 53, "duration": 48, "velocity": 66}, {"time": 845, "pitch": 56, "duration": 29, "velocity": 66}, {"time": 869, "pitch": 41, "duration": 42, "velocity": 78}, {"time": 881, "pitch": 48, "duration": 33, "velocity": 57}, {"time": 893, "pitch": 60, "duration": 15, "velocity": 74}, {"time": 905, "pitch": 53, "duration": 49, "velocity": 78}, {"time": 917, "pitch": 41, "duration": 33, "velocity": 66}, {"time": 929, "pitch": 48, "duration": 21, "velocity": 62}, {"time": 941, "pitch": 65, "duration": 13, "velocity": 78}, {"time": 953, "pitch": 60, "duration": 3, "velocity": 70}, {"time": 965, "pitch": 49, "duration": 24, "velocity": 76}, {"time": 965, "pitch": 61, "duration": 23, "velocity": 70}, {"time": 977, "pitch": 56, "duration": 11, "velocity": 79}, {"time": 989, "pitch": 51, "duration": 13, "velocity": 71}, {"time": 989, "pitch": 63, "duration": 11, "velocity": 74}, {"time": 1001, "pitch": 58, "duration": 14, "velocity": 77}, {"time": 1013, "pitch": 41, "duration": 37, "velocity": 77}, {"time": 1013, "pitch": 65, "duration": 24, "velocity": 76}, {"time": 1025, "pitch": 48, "duration": 25, "velocity": 65}, {"time": 1037, "pitch": 68, "duration": 11, "velocity": 76}, {"time": 1049, "pitch": 67, "duration": 13, "velocity": 74}, {"time": 1061, "pitch": 46, "duration": 35, "velocity": 76}, {"time": 1061, "pitch": 65, "duration": 25, "velocity": 78}, {"time": 1073, "pitch": 53, "duration": 23, "velocity": 70}, {"time": 1085, "pitch": 61, "duration": 10, "velocity": 77}, {"time": 1109, "pitch": 44, "duration": 31, "velocity": 76}, {"time": 1109, "pitch": 56, "duration": 13, "velocity": 71}, {"time": 1109, "pitch": 60, "duration": 25, "velocity": 69}, {"time": 1121, "pitch": 51, "duration": 20, "velocity": 65}, {"time": 1133, "pitch": 56, "duration": 5, "velocity": 78}, {"time": 1157, "pitch": 46, "duration": 35, "velocity": 77}, {"time": 1157, "pitch": 58, "duration": 14, "velocity": 67}, {"time": 1157, "pitch": 62, "duration": 21, "velocity": 65}, {"time": 1169, "pitch": 53, "duration": 26, "velocity": 73}, {"time": 1181, "pitch": 62, "duration": 6, "velocity": 81}, {"time": 1187, "pitch": 58, "duration": 6, "velocity": 72}, {"time": 1193, "pitch": 65, "duration": 6, "velocity": 76}, {"time": 1205, "pitch": 48, "duration": 33, "velocity": 76}, {"time": 1205, "pitch": 60, "duration": 16, "velocity": 73}, {"time": 1205, "pitch": 64, "duration": 18, "velocity": 71}, {"time": 1217, "pitch": 55, "duration": 17, "velocity": 64}, {"time": 1229, "pitch": 67, "duration": 8, "velocity": 77}, {"time": 1235, "pitch": 60, "duration": 8, "velocity": 78}, {"time": 1241, "pitch": 64, "duration": 5, "velocity": 73}, {"time": 1253, "pitch": 41, "duration": 43, "velocity": 78}, {"time": 1253, "pitch": 60, "duration": 21, "velocity": 71}, {"time": 1253, "pitch": 65, "duration": 24, "velocity": 75}, {"time": 1265, "pitch": 48, "duration": 32, "velocity": 55}, {"time": 1277, "pitch": 68, "duration": 11, "velocity": 77}, {"time": 1283, "pitch": 60, "duration": 7, "velocity": 69}, {"time": 1289, "pitch": 65, "duration": 24, "velocity": 70}, {"time": 1295, "pitch": 60, "duration": 13, "velocity": 77}, {"time": 1301, "pitch": 41, "duration": 33, "velocity": 78}, {"time": 1307, "pitch": 48, "duration": 27, "velocity": 68}, {"time": 1313, "pitch": 60, "duration": 8, "velocity": 72}, {"time": 1319, "pitch": 65, "duration": 8, "velocity": 76}, {"time": 1325, "pitch": 68, "duration": 11, "velocity": 77}, {"time": 1331, "pitch": 60, "duration": 8, "velocity": 73}, {"time": 1337, "pitch": 65, "duration": 4, "velocity": 70}, {"time": 1349, "pitch": 49, "duration": 15, "velocity": 77}, {"time": 1349, "pitch": 56, "duration": 7, "velocity": 68}, {"time": 1349, "pitch": 61, "duration": 15, "velocity": 70}, {"time": 1361, "pitch": 56, "duration": 14, "velocity": 76}, {"time": 1373, "pitch": 61, "duration": 14, "velocity": 80}, {"time": 1397, "pitch": 39, "duration": 28, "velocity": 78}, {"time": 1397, "pitch": 63, "duration": 19, "velocity": 71}, {"time": 1409, "pitch": 46, "duration": 14, "velocity": 62}, {"time": 1415, "pitch": 58, "duration": 9, "velocity": 70}, {"time": 1421, "pitch": 67, "duration": 7, "velocity": 78}, {"time": 1427, "pitch": 63, "duration": 6, "velocity": 68}, {"time": 1433, "pitch": 58, "duration": 3, "velocity": 74}, {"time": 1445, "pitch": 46, "duration": 42, "velocity": 78}, {"time": 1445, "pitch": 58, "duration": 15, "velocity": 67}, {"time": 1445, "pitch": 61, "duration": 17, "velocity": 69}, {"time": 1457, "pitch": 53, "duration": 16, "velocity": 67}, {"time": 1469, "pitch": 61, "duration": 17, "velocity": 83}, {"time": 1481, "pitch": 53, "duration": 7, "velocity": 69}, {"time": 1487, "pitch": 58, "duration": 3, "velocity": 65}, {"time": 1493, "pitch": 44, "duration": 34, "velocity": 76}, {"time": 1493, "pitch": 56, "duration": 19, "velocity": 71}, {"time": 1493, "pitch": 60, "duration": 20, "velocity": 69}, {"time": 1505, "pitch": 51, "duration": 24, "velocity": 70}, {"time": 1517, "pitch": 56, "duration": 7, "velocity": 70}, {"time": 1517, "pitch": 60, "duration": 8, "velocity": 75}, {"time": 1517, "pitch": 63, "duration": 10, "velocity": 72}, {"time": 1541, "pitch": 46, "duration": 13, "velocity": 75}, {"time": 1541, "pitch": 58, "duration": 10, "velocity": 66}, {"time": 1541, "pitch": 61, "duration": 13, "velocity": 71}, {"time": 1553, "pitch": 53, "duration": 6, "velocity": 82}, {"time": 1565, "pitch": 48, "duration": 20, "velocity": 76}, {"time": 1565, "pitch": 60, "duration": 16, "velocity": 76}, {"time": 1565, "pitch": 64, "duration": 13, "velocity": 73}, {"time": 1589, "pitch": 41, "duration": 42, "velocity": 77}, {"time": 1589, "pitch": 60, "duration": 18, "velocity": 65}, {"time": 1589, "pitch": 65, "duration": 20, "velocity": 72}, {"time": 1601, "pitch": 48, "duration": 27, "velocity": 71}, {"time": 1613, "pitch": 68, "duration": 16, "velocity": 72}, {"time": 1625, "pitch": 60, "duration": 8, "velocity": 77}, {"time": 1637, "pitch": 41, "duration": 33, "velocity": 80}, {"time": 1637, "pitch": 60, "duration": 13, "velocity": 76}, {"time": 1637, "pitch": 65, "duration": 17, "velocity": 76}, {"time": 1649, "pitch": 48, "duration": 20, "velocity": 69}, {"time": 1655, "pitch": 60, "duration": 7, "velocity": 77}, {"time": 1661, "pitch": 68, "duration": 8, "velocity": 81}, {"time": 1667, "pitch": 60, "duration": 8, "velocity": 78}, {"time": 1673, "pitch": 65, "duration": 8, "velocity": 77}, {"time": 1679, "pitch": 68, "duration": 12, "velocity": 73}, {"time": 1685, "pitch": 46, "duration": 36, "velocity": 78}, {"time": 1691, "pitch": 53, "duration": 19, "velocity": 67}, {"time": 1697, "pitch": 58, "duration": 8, "velocity": 76}, {"time": 1703, "pitch": 61, "duration": 7, "velocity": 76}, {"time": 1709, "pitch": 65, "duration": 13, "velocity": 83}, {"time": 1715, "pitch": 53, "duration": 6, "velocity": 72}, {"time": 1721, "pitch": 58, "duration": 3, "velocity": 71}, {"time": 1733, "pitch": 49, "duration": 12, "velocity": 77}, {"time": 1733, "pitch": 56, "duration": 3, "velocity": 76}, {"time": 1733, "pitch": 61, "duration": 7, "velocity": 72}, {"time": 1739, "pitch": 56, "duration": 8, "velocity": 76}, {"time": 1745, "pitch": 61, "duration": 6, "velocity": 76}, {"time": 1757, "pitch": 48, "duration": 19, "velocity": 78}, {"time": 1757, "pitch": 60, "duration": 7, "velocity": 72}, {"time": 1757, "pitch": 63, "duration": 8, "velocity": 75}, {"time": 1763, "pitch": 55, "duration": 8, "velocity": 71}, {"time": 1769, "pitch": 60, "duration": 8, "velocity": 79}, {"time": 1775, "pitch": 63, "duration": 6, "velocity": 69}, {"time": 1781, "pitch": 53, "duration": 33, "velocity": 78}, {"time": 1781, "pitch": 65, "duration": 7, "velocity": 77}, {"time": 1787, "pitch": 60, "duration": 7, "velocity": 75}, {"time": 1793, "pitch": 65, "duration": 13, "velocity": 75}, {"time": 1799, "pitch": 60, "duration": 5, "velocity": 58}, {"time": 1811, "pitch": 60, "duration": 7, "velocity": 65}, {"time": 1823, "pitch": 60, "duration": 3, "velocity": 76}, {"time": 1829, "pitch": 46, "duration": 35, "velocity": 76}, {"time": 1829, "pitch": 58, "duration": 7, "velocity": 75}, {"time": 1829, "pitch": 61, "duration": 13, "velocity": 71}, {"time": 1835, "pitch": 53, "duration": 26, "velocity": 71}, {"time": 1841, "pitch": 58, "duration": 9, "velocity": 77}, {"time": 1847, "pitch": 61, "duration": 7, "velocity": 77}, {"time": 1853, "pitch": 65, "duration": 7, "velocity": 77}, {"time": 1859, "pitch": 61, "duration": 6, "velocity": 76}, {"time": 1865, "pitch": 58, "duration": 6, "velocity": 71}, {"time": 1871, "pitch": 61, "duration": 4, "velocity": 62}, {"time": 1877, "pitch": 49, "duration": 34, "velocity": 75}, {"time": 1877, "pitch": 61, "duration": 7, "velocity": 73}, {"time": 1883, "pitch": 56, "duration": 6, "velocity": 77}, {"time": 1889, "pitch": 61, "duration": 13, "velocity": 76}, {"time": 1895, "pitch": 56, "duration": 7, "velocity": 74}, {"time": 1901, "pitch": 65, "duration": 11, "velocity": 80}, {"time": 1907, "pitch": 56, "duration": 7, "velocity": 71}, {"time": 1913, "pitch": 61, "duration": 3, "velocity": 71}, {"time": 1925, "pitch": 46, "duration": 37, "velocity": 19}, {"time": 1925, "pitch": 58, "duration": 6, "velocity": 71}, {"time": 1931, "pitch": 53, "duration": 32, "velocity": 71}, {"time": 1937, "pitch": 58, "duration": 12, "velocity": 78}, {"time": 1943, "pitch": 62, "duration": 8, "velocity": 82}, {"time": 1949, "pitch": 70, "duration": 7, "velocity": 79}, {"time": 1955, "pitch": 65, "duration": 7, "velocity": 75}, {"time": 1961, "pitch": 62, "duration": 3, "velocity": 83}, {"time": 1973, "pitch": 48, "duration": 32, "velocity": 77}, {"time": 1973, "pitch": 60, "duration": 7, "velocity": 77}, {"time": 1973, "pitch": 64, "duration": 13, "velocity": 71}, {"time": 1979, "pitch": 55, "duration": 22, "velocity": 74}, {"time": 1985, "pitch": 67, "duration": 12, "velocity": 78}, {"time": 1991, "pitch": 60, "duration": 6, "velocity": 78}, {"time": 1997, "pitch": 72, "duration": 9, "velocity": 82}, {"time": 2003, "pitch": 64, "duration": 7, "velocity": 68}, {"time": 2009, "pitch": 60, "duration": 7, "velocity": 81}, {"time": 2021, "pitch": 41, "duration": 31, "velocity": 80}, {"time": 2021, "pitch": 60, "duration": 8, "velocity": 73}, {"time": 2021, "pitch": 65, "duration": 12, "velocity": 77}, {"time": 2027, "pitch": 48, "duration": 23, "velocity": 64}, {"time": 2033, "pitch": 60, "duration": 10, "velocity": 74}, {"time": 2039, "pitch": 65, "duration": 6, "velocity": 77}, {"time": 2045, "pitch": 68, "duration": 7, "velocity": 82}, {"time": 2051, "pitch": 65, "duration": 6, "velocity": 78}, {"time": 2057, "pitch": 60, "duration": 3, "velocity": 81}, {"time": 2069, "pitch": 46, "duration": 37, "velocity": 77}, {"time": 2069, "pitch": 58, "duration": 7, "velocity": 69}, {"time": 2069, "pitch": 65, "duration": 14, "velocity": 76}, {"time": 2075, "pitch": 53, "duration": 31, "velocity": 70}, {"time": 2081, "pitch": 58, "duration": 10, "velocity": 77}, {"time": 2087, "pitch": 61, "duration": 7, "velocity": 77}, {"time": 2093, "pitch": 65, "duration": 7, "velocity": 80}, {"time": 2099, "pitch": 58, "duration": 7, "velocity": 72}, {"time": 2105, "pitch": 61, "duration": 3, "velocity": 78}, {"time": 2117, "pitch": 49, "duration": 36, "velocity": 76}, {"time": 2117, "pitch": 61, "duration": 7, "velocity": 71}, {"time": 2117, "pitch": 65, "duration": 12, "velocity": 76}, {"time": 2123, "pitch": 56, "duration": 21, "velocity": 66}, {"time": 2129, "pitch": 61, "duration": 8, "velocity": 74}, {"time": 2135, "pitch": 65, "duration": 7, "velocity": 76}, {"time": 2141, "pitch": 68, "duration": 13, "velocity": 76}, {"time": 2147, "pitch": 56, "duration": 7, "velocity": 70}, {"time": 2153, "pitch": 61, "duration": 3, "velocity": 77}, {"time": 2165, "pitch": 39, "duration": 29, "velocity": 78}, {"time": 2165, "pitch": 58, "duration": 6, "velocity": 69}, {"time": 2165, "pitch": 63, "duration": 12, "velocity": 72}, {"time": 2171, "pitch": 46, "duration": 23, "velocity": 69}, {"time": 2177, "pitch": 58, "duration": 10, "velocity": 68}, {"time": 2183, "pitch": 63, "duration": 7, "velocity": 76}, {"time": 2189, "pitch": 67, "duration": 9, "velocity": 81}, {"time": 2195, "pitch": 63, "duration": 5, "velocity": 77}, {"time": 2201, "pitch": 58, "duration": 3, "velocity": 77}, {"time": 2213, "pitch": 48, "duration": 31, "velocity": 77}, {"time": 2213, "pitch": 60, "duration": 8, "velocity": 71}, {"time": 2213, "pitch": 63, "duration": 12, "velocity": 73}, {"time": 2219, "pitch": 55, "duration": 22, "velocity": 69}, {"time": 2225, "pitch": 60, "duration": 7, "velocity": 77}, {"time": 2231, "pitch": 63, "duration": 7, "velocity": 76}, {"time": 2237, "pitch": 67, "duration": 8, "velocity": 79}, {"time": 2243, "pitch": 63, "duration": 6, "velocity": 76}, {"time": 2249, "pitch": 60, "duration": 2, "velocity": 77}, {"time": 2261, "pitch": 46, "duration": 36, "velocity": 77}, {"time": 2261, "pitch": 56, "duration": 3, "velocity": 65}, {"time": 2261, "pitch": 58, "duration": 5, "velocity": 61}, {"time": 2261, "pitch": 61, "duration": 13, "velocity": 62}, {"time": 2267, "pitch": 53, "duration": 31, "velocity": 76}, {"time": 2273, "pitch": 58, "duration": 8, "velocity": 77}, {"time": 2279, "pitch": 61, "duration": 7, "velocity": 72}, {"time": 2285, "pitch": 65, "duration": 6, "velocity": 80}, {"time": 2291, "pitch": 61, "duration": 7, "velocity": 77}, {"time": 2297, "pitch": 58, "duration": 3, "velocity": 72}, {"time": 2309, "pitch": 48, "duration": 38, "velocity": 77}, {"time": 2309, "pitch": 60, "duration": 7, "velocity": 72}, {"time": 2309, "pitch": 63, "duration": 12, "velocity": 71}, {"time": 2315, "pitch": 55, "duration": 26, "velocity": 67}, {"time": 2321, "pitch": 60, "duration": 9, "velocity": 75}, {"time": 2327, "pitch": 63, "duration": 8, "velocity": 72}, {"time": 2333, "pitch": 67, "duration": 8, "velocity": 78}, {"time": 2339, "pitch": 63, "duration": 6, "velocity": 68}, {"time": 2345, "pitch": 60, "duration": 8, "velocity": 76}, {"time": 2357, "pitch": 53, "duration": 39, "velocity": 76}, {"time": 2357, "pitch": 60, "duration": 5, "velocity": 71}, {"time": 2357, "pitch": 65, "duration": 25, "velocity": 76}, {"time": 2369, "pitch": 60, "duration": 13, "velocity": 67}, {"time": 2381, "pitch": 68, "duration": 23, "velocity": 75}, {"time": 2393, "pitch": 60, "duration": 8, "velocity": 70}, {"time": 2405, "pitch": 53, "duration": 43, "velocity": 77}, {"time": 2405, "pitch": 60, "duration": 5, "velocity": 68}, {"time": 2405, "pitch": 65, "duration": 23, "velocity": 73}, {"time": 2417, "pitch": 60, "duration": 11, "velocity": 64}, {"time": 2429, "pitch": 68, "duration": 15, "velocity": 77}, {"time": 2435, "pitch": 60, "duration": 7, "velocity": 61}, {"time": 2441, "pitch": 65, "duration": 7, "velocity": 71}, {"time": 2453, "pitch": 53, "duration": 36, "velocity": 80}, {"time": 2465, "pitch": 60, "duration": 14, "velocity": 72}, {"time": 2477, "pitch": 68, "duration": 16, "velocity": 73}, {"time": 2501, "pitch": 37, "duration": 42, "velocity": 75}, {"time": 2501, "pitch": 61, "duration": 14, "velocity": 56}, {"time": 2501, "pitch": 65, "duration": 22, "velocity": 68}, {"time": 2513, "pitch": 44, "duration": 30, "velocity": 64}, {"time": 2525, "pitch": 68, "duration": 13, "velocity": 72}, {"time": 2537, "pitch": 61, "duration": 9, "velocity": 71}, {"time": 2549, "pitch": 37, "duration": 36, "velocity": 70}, {"time": 2549, "pitch": 61, "duration": 25, "velocity": 69}, {"time": 2549, "pitch": 65, "duration": 25, "velocity": 72}, {"time": 2561, "pitch": 44, "duration": 23, "velocity": 60}, {"time": 2573, "pitch": 68, "duration": 12, "velocity": 76}, {"time": 2579, "pitch": 61, "duration": 8, "velocity": 71}, {"time": 2585, "pitch": 65, "duration": 3, "velocity": 71}, {"time": 2597, "pitch": 39, "duration": 43, "velocity": 78}, {"time": 2597, "pitch": 63, "duration": 20, "velocity": 70}, {"time": 2609, "pitch": 46, "duration": 31, "velocity": 69}, {"time": 2621, "pitch": 63, "duration": 13, "velocity": 71}, {"time": 2633, "pitch": 58, "duration": 15, "velocity": 70}, {"time": 2645, "pitch": 39, "duration": 37, "velocity": 77}, {"time": 2645, "pitch": 67, "duration": 25, "velocity": 73}, {"time": 2657, "pitch": 46, "duration": 23, "velocity": 58}, {"time": 2669, "pitch": 63, "duration": 6, "velocity": 77}, {"time": 2675, "pitch": 58, "duration": 6, "velocity": 73}, {"time": 2681, "pitch": 63, "duration": 11, "velocity": 72}, {"time": 2693, "pitch": 41, "duration": 33, "velocity": 78}, {"time": 2693, "pitch": 60, "duration": 23, "velocity": 67}, {"time": 2693, "pitch": 65, "duration": 24, "velocity": 74}, {"time": 2705, "pitch": 48, "duration": 20, "velocity": 59}, {"time": 2717, "pitch": 68, "duration": 12, "velocity": 72}, {"time": 2729, "pitch": 60, "duration": 7, "velocity": 76}, {"time": 2741, "pitch": 41, "duration": 31, "velocity": 78}, {"time": 2741, "pitch": 60, "duration": 6, "velocity": 71}, {"time": 2741, "pitch": 65, "duration": 11, "velocity": 75}, {"time": 2753, "pitch": 48, "duration": 17, "velocity": 57}, {"time": 2759, "pitch": 53, "duration": 12, "velocity": 70}, {"time": 2765, "pitch": 56, "duration": 6, "velocity": 78}, {"time": 2771, "pitch": 60, "duration": 6, "velocity": 78}, {"time": 2777, "pitch": 53, "duration": 2, "velocity": 83}, {"time": 2789, "pitch": 49, "duration": 32, "velocity": 81}, {"time": 2789, "pitch": 56, "duration": 4, "velocity": 71}, {"time": 2789, "pitch": 61, "duration": 7, "velocity": 72}, {"time": 2795, "pitch": 56, "duration": 6, "velocity": 73}, {"time": 2801, "pitch": 61, "duration": 6, "velocity": 70}, {"time": 2807, "pitch": 56, "duration": 6, "velocity": 70}, {"time": 2813, "pitch": 65, "duration": 9, "velocity": 83}, {"time": 2819, "pitch": 56, "duration": 7, "velocity": 75}, {"time": 2825, "pitch": 61, "duration": 12, "velocity": 78}, {"time": 2831, "pitch": 56, "duration": 5, "velocity": 76}, {"time": 2837, "pitch": 51, "duration": 33, "velocity": 81}, {"time": 2837, "pitch": 63, "duration": 5, "velocity": 76}, {"time": 2843, "pitch": 58, "duration": 6, "velocity": 72}, {"time": 2849, "pitch": 63, "duration": 8, "velocity": 68}, {"time": 2855, "pitch": 58, "duration": 8, "velocity": 69}, {"time": 2861, "pitch": 67, "duration": 13, "velocity": 76}, {"time": 2867, "pitch": 58, "duration": 6, "velocity": 68}, {"time": 2873, "pitch": 63, "duration": 8, "velocity": 76}, {"time": 2879, "pitch": 58, "duration": 5, "velocity": 69}, {"time": 2885, "pitch": 41, "duration": 44, "velocity": 77}, {"time": 2885, "pitch": 65, "duration": 12, "velocity": 74}, {"time": 2891, "pitch": 48, "duration": 38, "velocity": 68}, {"time": 2897, "pitch": 60, "duration": 11, "velocity": 71}, {"time": 2903, "pitch": 65, "duration": 7, "velocity": 77}, {"time": 2909, "pitch": 68, "duration": 11, "velocity": 78}, {"time": 2915, "pitch": 60, "duration": 7, "velocity": 75}, {"time": 2921, "pitch": 65, "duration": 9, "velocity": 78}, {"time": 2927, "pitch": 60, "duration": 9, "velocity": 76}, {"time": 2933, "pitch": 41, "duration": 36, "velocity": 78}, {"time": 2933, "pitch": 68, "duration": 14, "velocity": 71}, {"time": 2939, "pitch": 48, "duration": 30, "velocity": 65}, {"time": 2945, "pitch": 60, "duration": 12, "velocity": 76}, {"time": 2951, "pitch": 65, "duration": 7, "velocity": 78}, {"time": 2957, "pitch": 68, "duration": 9, "velocity": 79}, {"time": 2963, "pitch": 65, "duration": 7, "velocity": 72}, {"time": 2969, "pitch": 60, "duration": 5, "velocity": 76}, {"time": 2981, "pitch": 49, "duration": 42, "velocity": 80}, {"time": 2987, "pitch": 56, "duration": 20, "velocity": 66}, {"time": 2993, "pitch": 61, "duration": 8, "velocity": 76}, {"time": 2999, "pitch": 65, "duration": 6, "velocity": 82}, {"time": 3005, "pitch": 68, "duration": 14, "velocity": 79}, {"time": 3011, "pitch": 56, "duration": 15, "velocity": 70}, {"time": 3017, "pitch": 61, "duration": 8, "velocity": 76}, {"time": 3023, "pitch": 65, "duration": 7, "velocity": 68}, {"time": 3029, "pitch": 51, "duration": 29, "velocity": 81}, {"time": 3029, "pitch": 67, "duration": 12, "velocity": 71}, {"time": 3035, "pitch": 58, "duration": 19, "velocity": 66}, {"time": 3041, "pitch": 63, "duration": 9, "velocity": 77}, {"time": 3047, "pitch": 67, "duration": 18, "velocity": 78}, {"time": 3053, "pitch": 55, "duration": 9, "velocity": 65}, {"time": 3059, "pitch": 58, "duration": 6, "velocity": 64}, {"time": 3065, "pitch": 63, "duration": 8, "velocity": 72}, {"time": 3071, "pitch": 67, "duration": 6, "velocity": 69}, {"time": 3077, "pitch": 41, "duration": 86, "velocity": 76}, {"time": 3077, "pitch": 68, "duration": 8, "velocity": 71}, {"time": 3083, "pitch": 48, "duration": 79, "velocity": 67}, {"time": 3089, "pitch": 53, "duration": 7, "velocity": 78}, {"time": 3095, "pitch": 56, "duration": 6, "velocity": 76}, {"time": 3101, "pitch": 60, "duration": 6, "velocity": 77}, {"time": 3107, "pitch": 53, "duration": 9, "velocity": 77}, {"time": 3113, "pitch": 60, "duration": 9, "velocity": 72}, {"time": 3119, "pitch": 65, "duration": 15, "velocity": 79}, {"time": 3125, "pitch": 53, "duration": 8, "velocity": 77}, {"time": 3131, "pitch": 60, "duration": 23, "velocity": 64}, {"time": 3137, "pitch": 65, "duration": 16, "velocity": 72}, {"time": 3173, "pitch": 41, "duration": 42, "velocity": 78}, {"time": 3185, "pitch": 48, "duration": 33, "velocity": 57}, {"time": 3197, "pitch": 60, "duration": 15, "velocity": 74}, {"time": 3209, "pitch": 53, "duration": 49, "velocity": 78}, {"time": 3221, "pitch": 41, "duration": 33, "velocity": 66}, {"time": 3233, "pitch": 48, "duration": 21, "velocity": 62}, {"time": 3245, "pitch": 65, "duration": 13, "velocity": 78}, {"time": 3257, "pitch": 60, "duration": 3, "velocity": 70}, {"time": 3269, "pitch": 49, "duration": 24, "velocity": 76}, {"time": 3269, "pitch": 61, "duration": 23, "velocity": 70}, {"time": 3281, "pitch": 56, "duration": 11, "velocity": 79}, {"time": 3293, "pitch": 51, "duration": 13, "velocity": 71}, {"time": 3293, "pitch": 63, "duration": 11, "velocity": 74}, {"time": 3305, "pitch": 58, "duration": 14, "velocity": 77}, {"time": 3317, "pitch": 41, "duration": 37, "velocity": 77}, {"time": 3317, "pitch": 65, "duration": 24, "velocity": 76}, {"time": 3329, "pitch": 48, "duration": 25, "velocity": 65}, {"time": 3341, "pitch": 68, "duration": 11, "velocity": 76}, {"time": 3353, "pitch": 67, "duration": 13, "velocity": 74}, {"time": 3365, "pitch": 46, "duration": 35, "velocity": 76}, {"time": 3365, "pitch": 65, "duration": 25, "velocity": 78}, {"time": 3377, "pitch": 53, "duration": 23, "velocity": 70}, {"time": 3389, "pitch": 61, "duration": 10, "velocity": 77}, {"time": 3413, "pitch": 44, "duration": 31, "velocity": 76}, {"time": 3413, "pitch": 56, "duration": 13, "velocity": 71}, {"time": 3413, "pitch": 60, "duration": 25, "velocity": 69}, {"time": 3425, "pitch": 51, "duration": 20, "velocity": 65}, {"time": 3437, "pitch": 56, "duration": 5, "velocity": 78}, {"time": 3461, "pitch": 46, "duration": 35, "velocity": 77}, {"time": 3461, "pitch": 58, "duration": 14, "velocity": 67}, {"time": 3461, "pitch": 62, "duration": 21, "velocity": 65}, {"time": 3473, "pitch": 53, "duration": 26, "velocity": 73}, {"time": 3485, "pitch": 62, "duration": 6, "velocity": 81}, {"time": 3491, "pitch": 58, "duration": 6, "velocity": 72}, {"time": 3497, "pitch": 65, "duration": 6, "velocity": 76}, {"time": 3509, "pitch": 48, "duration": 33, "velocity": 76}, {"time": 3509, "pitch": 60, "duration": 16, "velocity": 73}, {"time": 3509, "pitch": 64, "duration": 18, "velocity": 71}, {"time": 3521, "pitch": 55, "duration": 17, "velocity": 64}, {"time": 3533, "pitch": 67, "duration": 8, "velocity": 77}, {"time": 3539, "pitch": 60, "duration": 8, "velocity": 78}, {"time": 3545, "pitch": 64, "duration": 5, "velocity": 73}, {"time": 3557, "pitch": 41, "duration": 43, "velocity": 78}, {"time": 3557, "pitch": 60, "duration": 21, "velocity": 71}, {"time": 3557, "pitch": 65, "duration": 24, "velocity": 75}, {"time": 3569, "pitch": 48, "duration": 32, "velocity": 55}, {"time": 3581, "pitch": 68, "duration": 11, "velocity": 77}, {"time": 3587, "pitch": 60, "duration": 7, "velocity": 69}, {"time": 3593, "pitch": 65, "duration": 24, "velocity": 70}, {"time": 3599, "pitch": 60, "duration": 13, "velocity": 77}, {"time": 3605, "pitch": 41, "duration": 33, "velocity": 78}, {"time": 3611, "pitch": 48, "duration": 27, "velocity": 68}, {"time": 3617, "pitch": 60, "duration": 8, "velocity": 72}, {"time": 3623, "pitch": 65, "duration": 8, "velocity": 76}, {"time": 3629, "pitch": 68, "duration": 11, "velocity": 77}, {"time": 3635, "pitch": 60, "duration": 8, "velocity": 73}, {"time": 3641, "pitch": 65, "duration": 4, "velocity": 70}, {"time": 3653, "pitch": 49, "duration": 15, "velocity": 77}, {"time": 3653, "pitch": 56, "duration": 7, "velocity": 68}, {"time": 3653, "pitch": 61, "duration": 15, "velocity": 70}, {"time": 3665, "pitch": 56, "duration": 14, "velocity": 76}, {"time": 3677, "pitch": 61, "duration": 14, "velocity": 80}, {"time": 3701, "pitch": 39, "duration": 28, "velocity": 78}, {"time": 3701, "pitch": 63, "duration": 19, "velocity": 71}, {"time": 3713, "pitch": 46, "duration": 14, "velocity": 62}, {"time": 3719, "pitch": 58, "duration": 9, "velocity": 70}, {"time": 3725, "pitch": 67, "duration": 7, "velocity": 78}, {"time": 3731, "pitch": 63, "duration": 6, "velocity": 68}, {"time": 3737, "pitch": 58, "duration": 3, "velocity": 74}, {"time": 3749, "pitch": 46, "duration": 42, "velocity": 78}, {"time": 3749, "pitch": 58, "duration": 15, "velocity": 67}, {"time": 3749, "pitch": 61, "duration": 17, "velocity": 69}, {"time": 3761, "pitch": 53, "duration": 16, "velocity": 67}, {"time": 3773, "pitch": 61, "duration": 17, "velocity": 83}, {"time": 3785, "pitch": 53, "duration": 7, "velocity": 69}, {"time": 3791, "pitch": 58, "duration": 3, "velocity": 65}, {"time": 3797, "pitch": 44, "duration": 34, "velocity": 76}, {"time": 3797, "pitch": 56, "duration": 19, "velocity": 71}, {"time": 3797, "pitch": 60, "duration": 20, "velocity": 69}, {"time": 3809, "pitch": 51, "duration": 24, "velocity": 70}, {"time": 3821, "pitch": 56, "duration": 7, "velocity": 70}, {"time": 3821, "pitch": 60, "duration": 8, "velocity": 75}, {"time": 3821, "pitch": 63, "duration": 10, "velocity": 72}, {"time": 3845, "pitch": 46, "duration": 13, "velocity": 75}, {"time": 3845, "pitch": 58, "duration": 10, "velocity": 66}, {"time": 3845, "pitch": 61, "duration": 13, "velocity": 71}, {"time": 3869, "pitch": 48, "duration": 20, "velocity": 76}, {"time": 3869, "pitch": 60, "duration": 16, "velocity": 76}, {"time": 3869, "pitch": 64, "duration": 13, "velocity": 73}, {"time": 3893, "pitch": 41, "duration": 42, "velocity": 77}, {"time": 3893, "pitch": 60, "duration": 18, "velocity": 65}, {"time": 3893, "pitch": 65, "duration": 20, "velocity": 72}, {"time": 3905, "pitch": 48, "duration": 27, "velocity": 71}, {"time": 3917, "pitch": 68, "duration": 16, "velocity": 72}, {"time": 3929, "pitch": 60, "duration": 8, "velocity": 77}, {"time": 3941, "pitch": 41, "duration": 33, "velocity": 80}, {"time": 3941, "pitch": 60, "duration": 13, "velocity": 76}, {"time": 3941, "pitch": 65, "duration": 17, "velocity": 76}, {"time": 3953, "pitch": 48, "duration": 20, "velocity": 69}, {"time": 3959, "pitch": 60, "duration": 7, "velocity": 77}, {"time": 3965, "pitch": 68, "duration": 8, "velocity": 81}, {"time": 3971, "pitch": 60, "duration": 8, "velocity": 78}, {"time": 3977, "pitch": 65, "duration": 8, "velocity": 77}, {"time": 3983, "pitch": 68, "duration": 12, "velocity": 73}, {"time": 3989, "pitch": 46, "duration": 36, "velocity": 78}, {"time": 3995, "pitch": 53, "duration": 19, "velocity": 67}, {"time": 4001, "pitch": 58, "duration": 8, "velocity": 76}, {"time": 4007, "pitch": 61, "duration": 7, "velocity": 76}, {"time": 4013, "pitch": 65, "duration": 13, "velocity": 83}, {"time": 4019, "pitch": 53, "duration": 6, "velocity": 72}, {"time": 4025, "pitch": 58, "duration": 3, "velocity": 71}, {"time": 4037, "pitch": 49, "duration": 12, "velocity": 77}, {"time": 4037, "pitch": 56, "duration": 3, "velocity": 76}, {"time": 4037, "pitch": 61, "duration": 7, "velocity": 72}, {"time": 4043, "pitch": 56, "duration": 8, "velocity": 76}, {"time": 4049, "pitch": 61, "duration": 6, "velocity": 76}, {"time": 4061, "pitch": 48, "duration": 19, "velocity": 78}, {"time": 4061, "pitch": 60, "duration": 7, "velocity": 72}, {"time": 4061, "pitch": 63, "duration": 8, "velocity": 75}, {"time": 4067, "pitch": 55, "duration": 8, "velocity": 71}, {"time": 4073, "pitch": 60, "duration": 8, "velocity": 79}, {"time": 4079, "pitch": 63, "duration": 6, "velocity": 69}, {"time": 4085, "pitch": 53, "duration": 33, "velocity": 78}, {"time": 4085, "pitch": 65, "duration": 7, "velocity": 77}, {"time": 4091, "pitch": 60, "duration": 7, "velocity": 75}, {"time": 4097, "pitch": 65, "duration": 13, "velocity": 75}, {"time": 4103, "pitch": 60, "duration": 5, "velocity": 58}, {"time": 4115, "pitch": 60, "duration": 7, "velocity": 65}, {"time": 4127, "pitch": 60, "duration": 3, "velocity": 76}, {"time": 4133, "pitch": 46, "duration": 35, "velocity": 76}, {"time": 4133, "pitch": 58, "duration": 7, "velocity": 75}, {"time": 4133, "pitch": 61, "duration": 13, "velocity": 71}, {"time": 4139, "pitch": 53, "duration": 26, "velocity": 71}, {"time": 4145, "pitch": 58, "duration": 9, "velocity": 77}, {"time": 4151, "pitch": 61, "duration": 7, "velocity": 77}, {"time": 4157, "pitch": 65, "duration": 7, "velocity": 77}, {"time": 4163, "pitch": 61, "duration": 6, "velocity": 76}, {"time": 4169, "pitch": 58, "duration": 6, "velocity": 71}, {"time": 4175, "pitch": 61, "duration": 4, "velocity": 62}, {"time": 4181, "pitch": 49, "duration": 34, "velocity": 75}, {"time": 4181, "pitch": 61, "duration": 7, "velocity": 73}, {"time": 4187, "pitch": 56, "duration": 6, "velocity": 77}, {"time": 4193, "pitch": 61, "duration": 13, "velocity": 76}, {"time": 4199, "pitch": 56, "duration": 7, "velocity": 74}, {"time": 4205, "pitch": 65, "duration": 11, "velocity": 80}, {"time": 4211, "pitch": 56, "duration": 7, "velocity": 71}, {"time": 4217, "pitch": 61, "duration": 3, "velocity": 71}, {"time": 4229, "pitch": 46, "duration": 37, "velocity": 19}, {"time": 4229, "pitch": 58, "duration": 6, "velocity": 71}, {"time": 4235, "pitch": 53, "duration": 32, "velocity": 71}, {"time": 4241, "pitch": 58, "duration": 12, "velocity": 78}, {"time": 4247, "pitch": 62, "duration": 8, "velocity": 82}, {"time": 4253, "pitch": 70, "duration": 7, "velocity": 79}, {"time": 4259, "pitch": 65, "duration": 7, "velocity": 75}, {"time": 4265, "pitch": 62, "duration": 3, "velocity": 83}, {"time": 4277, "pitch": 48, "duration": 32, "velocity": 77}, {"time": 4277, "pitch": 60, "duration": 7, "velocity": 77}, {"time": 4277, "pitch": 64, "duration": 13, "velocity": 71}, {"time": 4283, "pitch": 55, "duration": 22, "velocity": 74}, {"time": 4289, "pitch": 67, "duration": 12, "velocity": 78}, {"time": 4295, "pitch": 60, "duration": 6, "velocity": 78}, {"time": 4301, "pitch": 72, "duration": 9, "velocity": 82}, {"time": 4307, "pitch": 64, "duration": 7, "velocity": 68}, {"time": 4313, "pitch": 60, "duration": 7, "velocity": 81}, {"time": 4325, "pitch": 41, "duration": 31, "velocity": 80}, {"time": 4325, "pitch": 60, "duration": 8, "velocity": 73}, {"time": 4325, "pitch": 65, "duration": 12, "velocity": 77}, {"time": 4331, "pitch": 48, "duration": 23, "velocity": 64}, {"time": 4337, "pitch": 60, "duration": 10, "velocity": 74}, {"time": 4343, "pitch": 65, "duration": 6, "velocity": 77}, {"time": 4349, "pitch": 68, "duration": 7, "velocity": 82}, {"time": 4355, "pitch": 65, "duration": 6, "velocity": 78}, {"time": 4361, "pitch": 60, "duration": 3, "velocity": 81}, {"time": 4373, "pitch": 46, "duration": 37, "velocity": 77}, {"time": 4373, "pitch": 58, "duration": 7, "velocity": 69}, {"time": 4373, "pitch": 65, "duration": 14, "velocity": 76}, {"time": 4379, "pitch": 53, "duration": 31, "velocity": 70}, {"time": 4385, "pitch": 58, "duration": 10, "velocity": 77}, {"time": 4391, "pitch": 61, "duration": 7, "velocity": 77}, {"time": 4397, "pitch": 65, "duration": 7, "velocity": 80}, {"time": 4403, "pitch": 58, "duration": 7, "velocity": 72}, {"time": 4409, "pitch": 61, "duration": 3, "velocity": 78}, {"time": 4421, "pitch": 49, "duration": 36, "velocity": 76}, {"time": 4421, "pitch": 61, "duration": 7, "velocity": 71}, {"time": 4421, "pitch": 65, "duration": 12, "velocity": 76}, {"time": 4427, "pitch": 56, "duration": 21, "velocity": 66}, {"time": 4433, "pitch": 61, "duration": 8, "velocity": 74}, {"time": 4439, "pitch": 65, "duration": 7, "velocity": 76}, {"time": 4445, "pitch": 68, "duration": 13, "velocity": 76}, {"time": 4451, "pitch": 56, "duration": 7, "velocity": 70}, {"time": 4457, "pitch": 61, "duration": 3, "velocity": 77}, {"time": 4469, "pitch": 39, "duration": 29, "velocity": 78}, {"time": 4469, "pitch": 58, "duration": 6, "velocity": 69}, {"time": 4469, "pitch": 63, "duration": 12, "velocity": 72}, {"time": 4475, "pitch": 46, "duration": 23, "velocity": 69}, {"time": 4481, "pitch": 58, "duration": 10, "velocity": 68}, {"time": 4487, "pitch": 63, "duration": 7, "velocity": 76}, {"time": 4493, "pitch": 67, "duration": 9, "velocity": 81}, {"time": 4499, "pitch": 63, "duration": 5, "velocity": 77}, {"time": 4505, "pitch": 58, "duration": 3, "velocity": 77}, {"time": 4517, "pitch": 48, "duration": 31, "velocity": 77}, {"time": 4517, "pitch": 60, "duration": 8, "velocity": 71}, {"time": 4517, "pitch": 63, "duration": 12, "velocity": 73}, {"time": 4523, "pitch": 55, "duration": 22, "velocity": 69}, {"time": 4529, "pitch": 60, "duration": 7, "velocity": 77}, {"time": 4535, "pitch": 63, "duration": 7, "velocity": 76}, {"time": 4541, "pitch": 67, "duration": 8, "velocity": 79}, {"time": 4547, "pitch": 63, "duration": 6, "velocity": 76}, {"time": 4553, "pitch": 60, "duration": 2, "velocity": 77}, {"time": 4565, "pitch": 46, "duration": 36, "velocity": 77}, {"time": 4565, "pitch": 56, "duration": 3, "velocity": 65}, {"time": 4565, "pitch": 58, "duration": 5, "velocity": 61}, {"time": 4565, "pitch": 61, "duration": 13, "velocity": 62}, {"time": 4571, "pitch": 53, "duration": 31, "velocity": 76}, {"time": 4577, "pitch": 58, "duration": 8, "velocity": 77}, {"time": 4583, "pitch": 61, "duration": 7, "velocity": 72}, {"time": 4589, "pitch": 65, "duration": 6, "velocity": 80}, {"time": 4595, "pitch": 61, "duration": 7, "velocity": 77}, {"time": 4601, "pitch": 58, "duration": 3, "velocity": 72}, {"time": 4613, "pitch": 48, "duration": 38, "velocity": 77}, {"time": 4613, "pitch": 60, "duration": 7, "velocity": 72}, {"time": 4613, "pitch": 63, "duration": 12, "velocity": 71}, {"time": 4619, "pitch": 55, "duration": 26, "velocity": 67}, {"time": 4625, "pitch": 60, "duration": 9, "velocity": 75}, {"time": 4631, "pitch": 63, "duration": 8, "velocity": 72}, {"time": 4637, "pitch": 67, "duration": 8, "velocity": 78}, {"time": 4643, "pitch": 63, "duration": 6, "velocity": 68}, {"time": 4649, "pitch": 60, "duration": 8, "velocity": 76}, {"time": 4661, "pitch": 53, "duration": 39, "velocity": 76}, {"time": 4661, "pitch": 60, "duration": 5, "velocity": 71}, {"time": 4661, "pitch": 65, "duration": 25, "velocity": 76}, {"time": 4673, "pitch": 60, "duration": 13, "velocity": 67}, {"time": 4685, "pitch": 68, "duration": 23, "velocity": 75}, {"time": 4697, "pitch": 60, "duration": 8, "velocity": 70}, {"time": 4709, "pitch": 41, "duration": 33, "velocity": 80}, {"time": 4709, "pitch": 60, "duration": 13, "velocity": 76}, {"time": 4709, "pitch": 65, "duration": 17, "velocity": 76}, {"time": 4721, "pitch": 48, "duration": 20, "velocity": 69}, {"time": 4727, "pitch": 60, "duration": 7, "velocity": 77}, {"time": 4733, "pitch": 68, "duration": 8, "velocity": 81}, {"time": 4739, "pitch": 60, "duration": 8, "velocity": 78}, {"time": 4745, "pitch": 65, "duration": 8, "velocity": 77}, {"time": 4751, "pitch": 68, "duration": 12, "velocity": 73}, {"time": 4757, "pitch": 46, "duration": 36, "velocity": 78}, {"time": 4763, "pitch": 53, "duration": 19, "velocity": 67}, {"time": 4769, "pitch": 58, "duration": 8, "velocity": 76}, {"time": 4775, "pitch": 61, "duration": 7, "velocity": 76}, {"time": 4781, "pitch": 65, "duration": 13, "velocity": 83}, {"time": 4787, "pitch": 53, "duration": 6, "velocity": 72}, {"time": 4793, "pitch": 58, "duration": 3, "velocity": 71}, {"time": 4805, "pitch": 49, "duration": 12, "velocity": 77}, {"time": 4805, "pitch": 56, "duration": 3, "velocity": 76}, {"time": 4805, "pitch": 61, "duration": 7, "velocity": 72}, {"time": 4811, "pitch": 56, "duration": 8, "velocity": 76}, {"time": 4817, "pitch": 61, "duration": 6, "velocity": 76}, {"time": 4829, "pitch": 48, "duration": 19, "velocity": 78}, {"time": 4829, "pitch": 60, "duration": 7, "velocity": 72}, {"time": 4829, "pitch": 63, "duration": 8, "velocity": 75}, {"time": 4835, "pitch": 55, "duration": 8, "velocity": 71}, {"time": 4841, "pitch": 60, "duration": 8, "velocity": 79}, {"time": 4847, "pitch": 63, "duration": 6, "velocity": 69}, {"time": 4853, "pitch": 53, "duration": 33, "velocity": 78}, {"time": 4853, "pitch": 65, "duration": 7, "velocity": 77}, {"time": 4859, "pitch": 60, "duration": 7, "velocity": 75}, {"time": 4865, "pitch": 65, "duration": 13, "velocity": 75}, {"time": 4871, "pitch": 60, "duration": 5, "velocity": 58}, {"time": 4877, "pitch": 68, "duration": 12, "velocity": 78}, {"time": 4883, "pitch": 60, "duration": 7, "velocity": 65}, {"time": 4889, "pitch": 65, "duration": 7, "velocity": 76}, {"time": 4895, "pitch": 60, "duration": 3, "velocity": 76}, {"time": 4901, "pitch": 46, "duration": 35, "velocity": 76}, {"time": 4901, "pitch": 58, "duration": 7, "velocity": 75}, {"time": 4901, "pitch": 61, "duration": 13, "velocity": 71}, {"time": 4907, "pitch": 53, "duration": 26, "velocity": 71}, {"time": 4913, "pitch": 58, "duration": 9, "velocity": 77}, {"time": 4919, "pitch": 61, "duration": 7, "velocity": 77}, {"time": 4925, "pitch": 65, "duration": 7, "velocity": 77}, {"time": 4931, "pitch": 61, "duration": 6, "velocity": 76}, {"time": 4937, "pitch": 58, "duration": 6, "velocity": 71}, {"time": 4943, "pitch": 61, "duration": 4, "velocity": 62}, {"time": 4949, "pitch": 49, "duration": 34, "velocity": 75}, {"time": 4949, "pitch": 61, "duration": 7, "velocity": 73}, {"time": 4955, "pitch": 56, "duration": 6, "velocity": 77}, {"time": 4961, "pitch": 61, "duration": 13, "velocity": 76}, {"time": 4967, "pitch": 56, "duration": 7, "velocity": 74}, {"time": 4973, "pitch": 65, "duration": 11, "velocity": 80}, {"time": 4979, "pitch": 56, "duration": 7, "velocity": 71}, {"time": 4985, "pitch": 61, "duration": 3, "velocity": 71}, {"time": 4997, "pitch": 46, "duration": 37, "velocity": 19}, {"time": 4997, "pitch": 58, "duration": 6, "velocity": 71}, {"time": 4997, "pitch": 62, "duration": 13, "velocity": 76}, {"time": 5003, "pitch": 53, "duration": 32, "velocity": 71}, {"time": 5009, "pitch": 58, "duration": 12, "velocity": 78}, {"time": 5015, "pitch": 62, "duration": 8, "velocity": 82}, {"time": 5021, "pitch": 70, "duration": 7, "velocity": 79}, {"time": 5027, "pitch": 65, "duration": 7, "velocity": 75}, {"time": 5033, "pitch": 62, "duration": 3, "velocity": 83}, {"time": 5045, "pitch": 48, "duration": 32, "velocity": 77}, {"time": 5045, "pitch": 60, "duration": 7, "velocity": 77}, {"time": 5045, "pitch": 64, "duration": 13, "velocity": 71}, {"time": 5051, "pitch": 55, "duration": 22, "velocity": 74}, {"time": 5057, "pitch": 67, "duration": 12, "velocity": 78}, {"time": 5063, "pitch": 60, "duration": 6, "velocity": 78}, {"time": 5069, "pitch": 72, "duration": 9, "velocity": 82}, {"time": 5075, "pitch": 64, "duration": 7, "velocity": 68}, {"time": 5081, "pitch": 60, "duration": 7, "velocity": 81}, {"time": 5093, "pitch": 41, "duration": 31, "velocity": 80}, {"time": 5093, "pitch": 60, "duration": 8, "velocity": 73}, {"time": 5093, "pitch": 65, "duration": 12, "velocity": 77}, {"time": 5099, "pitch": 48, "duration": 23, "velocity": 64}, {"time": 5105, "pitch": 60, "duration": 10, "velocity": 74}, {"time": 5111, "pitch": 65, "duration": 6, "velocity": 77}, {"time": 5117, "pitch": 68, "duration": 7, "velocity": 82}, {"time": 5123, "pitch": 65, "duration": 6, "velocity": 78}, {"time": 5129, "pitch": 60, "duration": 3, "velocity": 81}, {"time": 5141, "pitch": 46, "duration": 37, "velocity": 77}, {"time": 5141, "pitch": 58, "duration": 7, "velocity": 69}, {"time": 5141, "pitch": 65, "duration": 14, "velocity": 76}, {"time": 5147, "pitch": 53, "duration": 31, "velocity": 70}, {"time": 5153, "pitch": 58, "duration": 10, "velocity": 77}, {"time": 5159, "pitch": 61, "duration": 7, "velocity": 77}, {"time": 5165, "pitch": 65, "duration": 7, "velocity": 80}, {"time": 5171, "pitch": 58, "duration": 7, "velocity": 72}, {"time": 5177, "pitch": 61, "duration": 3, "velocity": 78}, {"time": 5189, "pitch": 49, "duration": 36, "velocity": 76}, {"time": 5189, "pitch": 61, "duration": 7, "velocity": 71}, {"time": 5189, "pitch": 65, "duration": 12, "velocity": 76}, {"time": 5195, "pitch": 56, "duration": 21, "velocity": 66}, {"time": 5201, "pitch": 61, "duration": 8, "velocity": 74}, {"time": 5207, "pitch": 65, "duration": 7, "velocity": 76}, {"time": 5213, "pitch": 68, "duration": 13, "velocity": 76}, {"time": 5219, "pitch": 56, "duration": 7, "velocity": 70}, {"time": 5225, "pitch": 61, "duration": 3, "velocity": 77}, {"time": 5237, "pitch": 39, "duration": 29, "velocity": 78}, {"time": 5237, "pitch": 58, "duration": 6, "velocity": 69}, {"time": 5237, "pitch": 63, "duration": 12, "velocity": 72}, {"time": 5243, "pitch": 46, "duration": 23, "velocity": 69}, {"time": 5249, "pitch": 58, "duration": 10, "velocity": 68}, {"time": 5255, "pitch": 63, "duration": 7, "velocity": 76}, {"time": 5261, "pitch": 67, "duration": 9, "velocity": 81}, {"time": 5267, "pitch": 63, "duration": 5, "velocity": 77}, {"time": 5273, "pitch": 58, "duration": 3, "velocity": 77}, {"time": 5285, "pitch": 48, "duration": 31, "velocity": 77}, {"time": 5285, "pitch": 60, "duration": 8, "velocity": 71}, {"time": 5285, "pitch": 63, "duration": 12, "velocity": 73}, {"time": 5291, "pitch": 55, "duration": 22, "velocity": 69}, {"time": 5297, "pitch": 60, "duration": 7, "velocity": 77}, {"time": 5303, "pitch": 63, "duration": 7, "velocity": 76}, {"time": 5309, "pitch": 67, "duration": 8, "velocity": 79}, {"time": 5315, "pitch": 63, "duration": 6, "velocity": 76}, {"time": 5321, "pitch": 60, "duration": 2, "velocity": 77}, {"time": 5333, "pitch": 46, "duration": 36, "velocity": 77}, {"time": 5333, "pitch": 56, "duration": 3, "velocity": 65}, {"time": 5333, "pitch": 58, "duration": 5, "velocity": 61}, {"time": 5333, "pitch": 61, "duration": 13, "velocity": 62}, {"time": 5339, "pitch": 53, "duration": 31, "velocity": 76}, {"time": 5345, "pitch": 58, "duration": 8, "velocity": 77}, {"time": 5351, "pitch": 61, "duration": 7, "velocity": 72}, {"time": 5357, "pitch": 65, "duration": 6, "velocity": 80}, {"time": 5363, "pitch": 61, "duration": 7, "velocity": 77}, {"time": 5369, "pitch": 58, "duration": 3, "velocity": 72}, {"time": 5381, "pitch": 48, "duration": 38, "velocity": 77}, {"time": 5381, "pitch": 60, "duration": 7, "velocity": 72}, {"time": 5381, "pitch": 63, "duration": 12, "velocity": 71}, {"time": 5387, "pitch": 55, "duration": 26, "velocity": 67}, {"time": 5393, "pitch": 60, "duration": 9, "velocity": 75}, {"time": 5399, "pitch": 63, "duration": 8, "velocity": 72}, {"time": 5405, "pitch": 67, "duration": 8, "velocity": 78}, {"time": 5411, "pitch": 63, "duration": 6, "velocity": 68}, {"time": 5417, "pitch": 60, "duration": 8, "velocity": 76}, {"time": 5429, "pitch": 53, "duration": 39, "velocity": 76}, {"time": 5429, "pitch": 60, "duration": 5, "velocity": 71}, {"time": 5429, "pitch": 65, "duration": 25, "velocity": 76}, {"time": 5441, "pitch": 60, "duration": 13, "velocity": 67}, {"time": 5453, "pitch": 68, "duration": 23, "velocity": 75}, {"time": 5465, "pitch": 60, "duration": 8, "velocity": 70}, {"time": 5476, "pitch": 60, "duration": 16, "velocity": 68}, {"time": 5476, "pitch": 48, "duration": 44, "velocity": 77}, {"time": 5477, "pitch": 63, "duration": 26, "velocity": 71}, {"time": 5488, "pitch": 55, "duration": 24, "velocity": 56}, {"time": 5501, "pitch": 60, "duration": 16, "velocity": 74}, {"time": 5525, "pitch": 46, "duration": 39, "velocity": 77}, {"time": 5537, "pitch": 53, "duration": 25, "velocity": 65}, {"time": 5550, "pitch": 58, "duration": 20, "velocity": 77}, {"time": 5563, "pitch": 65, "duration": 18, "velocity": 76}, {"time": 5576, "pitch": 48, "duration": 51, "velocity": 78}, {"time": 5586, "pitch": 55, "duration": 41, "velocity": 73}, {"time": 5596, "pitch": 60, "duration": 88, "velocity": 57}, {"time": 5604, "pitch": 63, "duration": 79, "velocity": 73}, {"time": 5611, "pitch": 67, "duration": 71, "velocity": 76}, {"time": 5619, "pitch": 72, "duration": 63, "velocity": 66}, {"time": 5688, "pitch": 41, "duration": 127, "velocity": 81}, {"time": 5698, "pitch": 48, "duration": 116, "velocity": 65}, {"time": 5706, "pitch": 53, "duration": 5, "velocity": 76}, {"time": 5712, "pitch": 56, "duration": 3, "velocity": 65}, {"time": 5717, "pitch": 58, "duration": 5, "velocity": 68}, {"time": 5722, "pitch": 60, "duration": 4, "velocity": 75}, {"time": 5728, "pitch": 63, "duration": 7, "velocity": 79}, {"time": 5734, "pitch": 65, "duration": 3, "velocity": 78}, {"time": 5740, "pitch": 68, "duration": 6, "velocity": 76}, {"time": 5748, "pitch": 65, "duration": 5, "velocity": 77}, {"time": 5749, "pitch": 70, "duration": 6, "velocity": 75}, {"time": 5758, "pitch": 72, "duration": 3, "velocity": 77}, {"time": 5767, "pitch": 72, "duration": 5, "velocity": 66}, {"time": 5767, "pitch": 75, "duration": 5, "velocity": 75}, {"time": 5776, "pitch": 72, "duration": 4, "velocity": 65}, {"time": 5779, "pitch": 77, "duration": 3, "velocity": 74}, {"time": 5787, "pitch": 72, "duration": 3, "velocity": 65}, {"time": 5790, "pitch": 80, "duration": 2, "velocity": 74}, {"time": 5799, "pitch": 82, "duration": 4, "velocity": 66}, {"time": 5810, "pitch": 84, "duration": 3, "velocity": 76}, {"time": 5829, "pitch": 41, "duration": 31, "velocity": 55}, {"time": 5832, "pitch": 48, "duration": 26, "velocity": 60}, {"time": 5834, "pitch": 84, "duration": 24, "velocity": 47}, {"time": 5836, "pitch": 89, "duration": 22, "velocity": 69}], "annotations": [{"time": 107, "annotation": {"number": 64, "value": 127}, "group": "control_change"}, {"time": 107, "annotation": {"number": 64, "value": 0}, "group": "control_change"}, {"time": 147, "annotation": {"number": 64, "value": 0}, "group": "control_change"}, {"time": 154, "annotation": {"number": 64, "value": 127}, "group": "control_change"}, {"time": 194, "annotation": {"number": 64, "value": 0}, "group": "control_change"}, {"time": 199, "annotation": {"number": 64, "value": 127}, "group": "control_change"}, {"time": 289, "annotation": {"number": 64, "value": 0}, "group": "control_change"}, {"time": 292, "annotation": {"number": 64, "value": 127}, "group": "control_change"}, {"time": 339, "annotation": {"number": 64, "value": 0}, "group": "control_change"}, {"time": 345, "annotation": {"number": 64, "value": 127}, "group": "control_change"}, {"time": 392, "annotation": {"number": 64, "value": 127}, "group": "control_change"}, {"time": 392, "annotation": {"number": 64, "value": 0}, "group": "control_change"}, {"time": 434, "annotation": {"number": 64, "value": 0}, "group": "control_change"}, {"time": 437, "annotation": {"number": 64, "value": 127}, "group": "control_change"}, {"time": 483, "annotation": {"number": 64, "value": 0}, "group": "control_change"}, {"time": 487, "annotation": {"number": 64, "value": 127}, "group": "control_change"}, {"time": 530, "annotation": {"number": 64, "value": 0}, "group": "control_change"}, {"time": 534, "annotation": {"number": 64, "value": 127}, "group": "control_change"}, {"time": 578, "annotation": {"number": 64, "value": 0}, "group": "control_change"}, {"time": 582, "annotation": {"number": 64, "value": 127}, "group": "control_change"}, {"time": 625, "annotation": {"number": 64, "value": 0}, "group": "control_change"}, {"time": 629, "annotation": {"number": 64, "value": 127}, "group": "control_change"}, {"time": 675, "annotation": {"number": 64, "value": 0}, "group": "control_change"}, {"time": 679, "annotation": {"number": 64, "value": 127}, "group": "control_change"}, {"time": 720, "annotation": {"number": 64, "value": 0}, "group": "control_change"}, {"time": 731, "annotation": {"number": 64, "value": 127}, "group": "control_change"}, {"time": 770, "annotation": {"number": 64, "value": 0}, "group": "control_change"}, {"time": 776, "annotation": {"number": 64, "value": 127}, "group": "control_change"}, {"time": 867, "annotation": {"number": 64, "value": 0}, "group": "control_change"}, {"time": 877, "annotation": {"number": 64, "value": 127}, "group": "control_change"}, {"time": 965, "annotation": {"number": 64, "value": 0}, "group": "control_change"}, {"time": 967, "annotation": {"number": 64, "value": 127}, "group": "control_change"}, {"time": 985, "annotation": {"number": 64, "value": 0}, "group": "control_change"}, {"time": 990, "annotation": {"number": 64, "value": 127}, "group": "control_change"}, {"time": 1009, "annotation": {"number": 64, "value": 0}, "group": "control_change"}, {"time": 1019, "annotation": {"number": 64, "value": 127}, "group": "control_change"}, {"time": 1058, "annotation": {"number": 64, "value": 0}, "group": "control_change"}, {"time": 1070, "annotation": {"number": 64, "value": 127}, "group": "control_change"}, {"time": 1108, "annotation": {"number": 64, "value": 0}, "group": "control_change"}, {"time": 1120, "annotation": {"number": 64, "value": 127}, "group": "control_change"}, {"time": 1153, "annotation": {"number": 64, "value": 0}, "group": "control_change"}, {"time": 1167, "annotation": {"number": 64, "value": 127}, "group": "control_change"}, {"time": 1203, "annotation": {"number": 64, "value": 0}, "group": "control_change"}, {"time": 1210, "annotation": {"number": 64, "value": 127}, "group": "control_change"}, {"time": 1250, "annotation": {"number": 64, "value": 0}, "group": "control_change"}, {"time": 1255, "annotation": {"number": 64, "value": 127}, "group": "control_change"}, {"time": 1299, "annotation": {"number": 64, "value": 0}, "group": "control_change"}, {"time": 1304, "annotation": {"number": 64, "value": 127}, "group": "control_change"}, {"time": 1346, "annotation": {"number": 64, "value": 0}, "group": "control_change"}, {"time": 1350, "annotation": {"number": 64, "value": 127}, "group": "control_change"}, {"time": 1395, "annotation": {"number": 64, "value": 0}, "group": "control_change"}, {"time": 1407, "annotation": {"number": 64, "value": 127}, "group": "control_change"}, {"time": 1443, "annotation": {"number": 64, "value": 0}, "group": "control_change"}, {"time": 1448, "annotation": {"number": 64, "value": 127}, "group": "control_change"}, {"time": 1492, "annotation": {"number": 64, "value": 0}, "group": "control_change"}, {"time": 1503, "annotation": {"number": 64, "value": 127}, "group": "control_change"}, {"time": 1539, "annotation": {"number": 64, "value": 0}, "group": "control_change"}, {"time": 1544, "annotation": {"number": 64, "value": 127}, "group": "control_change"}, {"time": 1563, "annotation": {"number": 64, "value": 0}, "group": "control_change"}, {"time": 1566, "annotation": {"number": 64, "value": 127}, "group": "control_change"}, {"time": 1601, "annotation": {"number": 64, "value": 127}, "group": "control_change"}, {"time": 1634, "annotation": {"number": 64, "value": 0}, "group": "control_change"}, {"time": 1646, "annotation": {"number": 64, "value": 127}, "group": "control_change"}, {"time": 1683, "annotation": {"number": 64, "value": 0}, "group": "control_change"}, {"time": 1689, "annotation": {"number": 64, "value": 127}, "group": "control_change"}, {"time": 1730, "annotation": {"number": 64, "value": 0}, "group": "control_change"}, {"time": 1733, "annotation": {"number": 64, "value": 127}, "group": "control_change"}, {"time": 1755, "annotation": {"number": 64, "value": 0}, "group": "control_change"}, {"time": 1760, "annotation": {"number": 64, "value": 127}, "group": "control_change"}, {"time": 1779, "annotation": {"number": 64, "value": 0}, "group": "control_change"}, {"time": 1783, "annotation": {"number": 64, "value": 127}, "group": "control_change"}, {"time": 1827, "annotation": {"number": 64, "value": 0}, "group": "control_change"}, {"time": 1837, "annotation": {"number": 64, "value": 127}, "group": "control_change"}, {"time": 1876, "annotation": {"number": 64, "value": 0}, "group": "control_change"}, {"time": 1880, "annotation": {"number": 64, "value": 127}, "group": "control_change"}, {"time": 1922, "annotation": {"number": 64, "value": 0}, "group": "control_change"}, {"time": 1932, "annotation": {"number": 64, "value": 127}, "group": "control_change"}, {"time": 1970, "annotation": {"number": 64, "value": 0}, "group": "control_change"}, {"time": 1975, "annotation": {"number": 64, "value": 127}, "group": "control_change"}, {"time": 2019, "annotation": {"number": 64, "value": 0}, "group": "control_change"}, {"time": 2025, "annotation": {"number": 64, "value": 127}, "group": "control_change"}, {"time": 2067, "annotation": {"number": 64, "value": 0}, "group": "control_change"}, {"time": 2078, "annotation": {"number": 64, "value": 127}, "group": "control_change"}, {"time": 2116, "annotation": {"number": 64, "value": 0}, "group": "control_change"}, {"time": 2122, "annotation": {"number": 64, "value": 127}, "group": "control_change"}, {"time": 2164, "annotation": {"number": 64, "value": 0}, "group": "control_change"}, {"time": 2172, "annotation": {"number": 64, "value": 127}, "group": "control_change"}, {"time": 2210, "annotation": {"number": 64, "value": 0}, "group": "control_change"}, {"time": 2219, "annotation": {"number": 64, "value": 127}, "group": "control_change"}, {"time": 2259, "annotation": {"number": 64, "value": 0}, "group": "control_change"}, {"time": 2267, "annotation": {"number": 64, "value": 127}, "group": "control_change"}, {"time": 2306, "annotation": {"number": 64, "value": 0}, "group": "control_change"}, {"time": 2312, "annotation": {"number": 64, "value": 127}, "group": "control_change"}, {"time": 2355, "annotation": {"number": 64, "value": 0}, "group": "control_change"}, {"time": 2359, "annotation": {"number": 64, "value": 127}, "group": "control_change"}, {"time": 2403, "annotation": {"number": 64, "value": 0}, "group": "control_change"}, {"time": 2407, "annotation": {"number": 64, "value": 127}, "group": "control_change"}, {"time": 2453, "annotation": {"number": 64, "value": 0}, "group": "control_change"}, {"time": 2454, "annotation": {"number": 64, "value": 127}, "group": "control_change"}, {"time": 2500, "annotation": {"number": 64, "value": 0}, "group": "control_change"}, {"time": 2506, "annotation": {"number": 64, "value": 127}, "group": "control_change"}, {"time": 2555, "annotation": {"number": 64, "value": 0}, "group": "control_change"}, {"time": 2559, "annotation": {"number": 64, "value": 127}, "group": "control_change"}, {"time": 2597, "annotation": {"number": 64, "value": 0}, "group": "control_change"}, {"time": 2604, "annotation": {"number": 64, "value": 127}, "group": "control_change"}, {"time": 2643, "annotation": {"number": 64, "value": 0}, "group": "control_change"}, {"time": 2647, "annotation": {"number": 64, "value": 127}, "group": "control_change"}, {"time": 2689, "annotation": {"number": 64, "value": 0}, "group": "control_change"}, {"time": 2695, "annotation": {"number": 64, "value": 127}, "group": "control_change"}, {"time": 2737, "annotation": {"number": 64, "value": 0}, "group": "control_change"}, {"time": 2741, "annotation": {"number": 64, "value": 127}, "group": "control_change"}, {"time": 2788, "annotation": {"number": 64, "value": 0}, "group": "control_change"}, {"time": 2792, "annotation": {"number": 64, "value": 127}, "group": "control_change"}, {"time": 2834, "annotation": {"number": 64, "value": 0}, "group": "control_change"}, {"time": 2837, "annotation": {"number": 64, "value": 127}, "group": "control_change"}, {"time": 2882, "annotation": {"number": 64, "value": 0}, "group": "control_change"}, {"time": 2888, "annotation": {"number": 64, "value": 127}, "group": "control_change"}, {"time": 2930, "annotation": {"number": 64, "value": 0}, "group": "control_change"}, {"time": 2934, "annotation": {"number": 64, "value": 127}, "group": "control_change"}, {"time": 2979, "annotation": {"number": 64, "value": 0}, "group": "control_change"}, {"time": 2982, "annotation": {"number": 64, "value": 127}, "group": "control_change"}, {"time": 3026, "annotation": {"number": 64, "value": 0}, "group": "control_change"}, {"time": 3031, "annotation": {"number": 64, "value": 127}, "group": "control_change"}, {"time": 3074, "annotation": {"number": 64, "value": 0}, "group": "control_change"}, {"time": 3078, "annotation": {"number": 64, "value": 127}, "group": "control_change"}, {"time": 3172, "annotation": {"number": 64, "value": 0}, "group": "control_change"}, {"time": 3181, "annotation": {"number": 64, "value": 127}, "group": "control_change"}, {"time": 3269, "annotation": {"number": 64, "value": 0}, "group": "control_change"}, {"time": 3271, "annotation": {"number": 64, "value": 127}, "group": "control_change"}, {"time": 3289, "annotation": {"number": 64, "value": 0}, "group": "control_change"}, {"time": 3294, "annotation": {"number": 64, "value": 127}, "group": "control_change"}, {"time": 3313, "annotation": {"number": 64, "value": 0}, "group": "control_change"}, {"time": 3323, "annotation": {"number": 64, "value": 127}, "group": "control_change"}, {"time": 3362, "annotation": {"number": 64, "value": 0}, "group": "control_change"}, {"time": 3374, "annotation": {"number": 64, "value": 127}, "group": "control_change"}, {"time": 3412, "annotation": {"number": 64, "value": 0}, "group": "control_change"}, {"time": 3424, "annotation": {"number": 64, "value": 127}, "group": "control_change"}, {"time": 3457, "annotation": {"number": 64, "value": 0}, "group": "control_change"}, {"time": 3471, "annotation": {"number": 64, "value": 127}, "group": "control_change"}, {"time": 3507, "annotation": {"number": 64, "value": 0}, "group": "control_change"}, {"time": 3514, "annotation": {"number": 64, "value": 127}, "group": "control_change"}, {"time": 3554, "annotation": {"number": 64, "value": 0}, "group": "control_change"}, {"time": 3559, "annotation": {"number": 64, "value": 127}, "group": "control_change"}, {"time": 3603, "annotation": {"number": 64, "value": 0}, "group": "control_change"}, {"time": 3608, "annotation": {"number": 64, "value": 127}, "group": "control_change"}, {"time": 3650, "annotation": {"number": 64, "value": 0}, "group": "control_change"}, {"time": 3654, "annotation": {"number": 64, "value": 127}, "group": "control_change"}, {"time": 3699, "annotation": {"number": 64, "value": 0}, "group": "control_change"}, {"time": 3711, "annotation": {"number": 64, "value": 127}, "group": "control_change"}, {"time": 3747, "annotation": {"number": 64, "value": 0}, "group": "control_change"}, {"time": 3752, "annotation": {"number": 64, "value": 127}, "group": "control_change"}, {"time": 3796, "annotation": {"number": 64, "value": 0}, "group": "control_change"}, {"time": 3807, "annotation": {"number": 64, "value": 127}, "group": "control_change"}, {"time": 3843, "annotation": {"number": 64, "value": 0}, "group": "control_change"}, {"time": 3848, "annotation": {"number": 64, "value": 127}, "group": "control_change"}, {"time": 3867, "annotation": {"number": 64, "value": 0}, "group": "control_change"}, {"time": 3870, "annotation": {"number": 64, "value": 127}, "group": "control_change"}, {"time": 3905, "annotation": {"number": 64, "value": 127}, "group": "control_change"}, {"time": 3938, "annotation": {"number": 64, "value": 0}, "group": "control_change"}, {"time": 3950, "annotation": {"number": 64, "value": 127}, "group": "control_change"}, {"time": 3987, "annotation": {"number": 64, "value": 0}, "group": "control_change"}, {"time": 3993, "annotation": {"number": 64, "value": 127}, "group": "control_change"}, {"time": 4034, "annotation": {"number": 64, "value": 0}, "group": "control_change"}, {"time": 4037, "annotation": {"number": 64, "value": 127}, "group": "control_change"}, {"time": 4059, "annotation": {"number": 64, "value": 0}, "group": "control_change"}, {"time": 4064, "annotation": {"number": 64, "value": 127}, "group": "control_change"}, {"time": 4083, "annotation": {"number": 64, "value": 0}, "group": "control_change"}, {"time": 4087, "annotation": {"number": 64, "value": 127}, "group": "control_change"}, {"time": 4131, "annotation": {"number": 64, "value": 0}, "group": "control_change"}, {"time": 4141, "annotation": {"number": 64, "value": 127}, "group": "control_change"}, {"time": 4180, "annotation": {"number": 64, "value": 0}, "group": "control_change"}, {"time": 4184, "annotation": {"number": 64, "value": 127}, "group": "control_change"}, {"time": 4226, "annotation": {"number": 64, "value": 0}, "group": "control_change"}, {"time": 4236, "annotation": {"number": 64, "value": 127}, "group": "control_change"}, {"time": 4274, "annotation": {"number": 64, "value": 0}, "group": "control_change"}, {"time": 4279, "annotation": {"number": 64, "value": 127}, "group": "control_change"}, {"time": 4323, "annotation": {"number": 64, "value": 0}, "group": "control_change"}, {"time": 4329, "annotation": {"number": 64, "value": 127}, "group": "control_change"}, {"time": 4371, "annotation": {"number": 64, "value": 0}, "group": "control_change"}, {"time": 4382, "annotation": {"number": 64, "value": 127}, "group": "control_change"}, {"time": 4420, "annotation": {"number": 64, "value": 0}, "group": "control_change"}, {"time": 4426, "annotation": {"number": 64, "value": 127}, "group": "control_change"}, {"time": 4468, "annotation": {"number": 64, "value": 0}, "group": "control_change"}, {"time": 4476, "annotation": {"number": 64, "value": 127}, "group": "control_change"}, {"time": 4514, "annotation": {"number": 64, "value": 0}, "group": "control_change"}, {"time": 4523, "annotation": {"number": 64, "value": 127}, "group": "control_change"}, {"time": 4563, "annotation": {"number": 64, "value": 0}, "group": "control_change"}, {"time": 4571, "annotation": {"number": 64, "value": 127}, "group": "control_change"}, {"time": 4610, "annotation": {"number": 64, "value": 0}, "group": "control_change"}, {"time": 4616, "annotation": {"number": 64, "value": 127}, "group": "control_change"}, {"time": 4659, "annotation": {"number": 64, "value": 0}, "group": "control_change"}, {"time": 4663, "annotation": {"number": 64, "value": 127}, "group": "control_change"}, {"time": 4707, "annotation": {"number": 64, "value": 0}, "group": "control_change"}, {"time": 4718, "annotation": {"number": 64, "value": 127}, "group": "control_change"}, {"time": 4755, "annotation": {"number": 64, "value": 0}, "group": "control_change"}, {"time": 4761, "annotation": {"number": 64, "value": 127}, "group": "control_change"}, {"time": 4802, "annotation": {"number": 64, "value": 0}, "group": "control_change"}, {"time": 4805, "annotation": {"number": 64, "value": 127}, "group": "control_change"}, {"time": 4827, "annotation": {"number": 64, "value": 0}, "group": "control_change"}, {"time": 4832, "annotation": {"number": 64, "value": 127}, "group": "control_change"}, {"time": 4851, "annotation": {"number": 64, "value": 0}, "group": "control_change"}, {"time": 4855, "annotation": {"number": 64, "value": 127}, "group": "control_change"}, {"time": 4899, "annotation": {"number": 64, "value": 0}, "group": "control_change"}, {"time": 4909, "annotation": {"number": 64, "value": 127}, "group": "control_change"}, {"time": 4948, "annotation": {"number": 64, "value": 0}, "group": "control_change"}, {"time": 4952, "annotation": {"number": 64, "value": 127}, "group": "control_change"}, {"time": 4994, "annotation": {"number": 64, "value": 0}, "group": "control_change"}, {"time": 5004, "annotation": {"number": 64, "value": 127}, "group": "control_change"}, {"time": 5042, "annotation": {"number": 64, "value": 0}, "group": "control_change"}, {"time": 5047, "annotation": {"number": 64, "value": 127}, "group": "control_change"}, {"time": 5091, "annotation": {"number": 64, "value": 0}, "group": "control_change"}, {"time": 5097, "annotation": {"number": 64, "value": 127}, "group": "control_change"}, {"time": 5139, "annotation": {"number": 64, "value": 0}, "group": "control_change"}, {"time": 5150, "annotation": {"number": 64, "value": 127}, "group": "control_change"}, {"time": 5188, "annotation": {"number": 64, "value": 0}, "group": "control_change"}, {"time": 5194, "annotation": {"number": 64, "value": 127}, "group": "control_change"}, {"time": 5236, "annotation": {"number": 64, "value": 0}, "group": "control_change"}, {"time": 5244, "annotation": {"number": 64, "value": 127}, "group": "control_change"}, {"time": 5282, "annotation": {"number": 64, "value": 0}, "group": "control_change"}, {"time": 5291, "annotation": {"number": 64, "value": 127}, "group": "control_change"}, {"time": 5331, "annotation": {"number": 64, "value": 0}, "group": "control_change"}, {"time": 5339, "annotation": {"number": 64, "value": 127}, "group": "control_change"}, {"time": 5378, "annotation": {"number": 64, "value": 0}, "group": "control_change"}, {"time": 5384, "annotation": {"number": 64, "value": 127}, "group": "control_change"}, {"time": 5427, "annotation": {"number": 64, "value": 0}, "group": "control_change"}, {"time": 5431, "annotation": {"number": 64, "value": 127}, "group": "control_change"}, {"time": 5475, "annotation": {"number": 64, "value": 0}, "group": "control_change"}, {"time": 5479, "annotation": {"number": 64, "value": 127}, "group": "control_change"}, {"time": 5525, "annotation": {"number": 64, "value": 0}, "group": "control_change"}, {"time": 5530, "annotation": {"number": 64, "value": 127}, "group": "control_change"}, {"time": 5574, "annotation": {"number": 64, "value": 0}, "group": "control_change"}, {"time": 5579, "annotation": {"number": 64, "value": 127}, "group": "control_change"}, {"time": 5691, "annotation": {"number": 64, "value": 0}, "group": "control_change"}, {"time": 5695, "annotation": {"number": 64, "value": 127}, "group": "control_change"}, {"time": 5833, "annotation": {"number": 64, "value": 0}, "group": "control_change"}, {"time": 5835, "annotation": {"number": 64, "value": 127}, "group": "control_change"}]}]}