{"metadata": {"schema_version": "0.2", "title": "None", "source_filename": "548.mid", "source_format": "midi"}, "resolution": 12, "tempos": [{"time": 0, "qpm": 100.0}, {"time": 1764, "qpm": 99.50001243750155}, {"time": 1764, "qpm": 99.75029176960342}, {"time": 1765, "qpm": 99.25000082708334}, {"time": 1766, "qpm": 98.5000090291675}, {"time": 1767, "qpm": 98.25000368437514}, {"time": 1767, "qpm": 98.00030380094178}, {"time": 1768, "qpm": 97.75011811472605}, {"time": 1768, "qpm": 97.5000975000975}, {"time": 1769, "qpm": 97.25009157716957}, {"time": 1770, "qpm": 97.00010993345792}, {"time": 1771, "qpm": 96.75016205652145}, {"time": 1772, "qpm": 96.50025733401955}, {"time": 1773, "qpm": 96.25009625009625}, {"time": 1774, "qpm": 96.0}, {"time": 1808, "qpm": 96.25009625009625}, {"time": 1809, "qpm": 96.50025733401955}, {"time": 1810, "qpm": 96.75016205652145}, {"time": 1811, "qpm": 97.00010993345792}, {"time": 1812, "qpm": 97.25009157716957}, {"time": 1814, "qpm": 97.5000975000975}, {"time": 1815, "qpm": 97.75011811472605}, {"time": 1816, "qpm": 98.00030380094178}, {"time": 1817, "qpm": 98.25000368437514}, {"time": 1819, "qpm": 98.5000090291675}, {"time": 1820, "qpm": 98.75015223981804}, {"time": 1820, "qpm": 99.000099000099}, {"time": 1821, "qpm": 99.25000082708334}, {"time": 1822, "qpm": 99.50001243750155}, {"time": 1824, "qpm": 100.0}, {"time": 3370, "qpm": 101.00006901671382}, {"time": 3456, "qpm": 100.0}], "time_signatures": [{"time": 0, "numerator": 1, "denominator": 4}], "tracks": [{"program": 0, "is_drum": false, "name": "MELODY", "notes": [{"time": 425, "pitch": 64, "duration": 4, "velocity": 79}, {"time": 431, "pitch": 64, "duration": 4, "velocity": 74}, {"time": 437, "pitch": 64, "duration": 4, "velocity": 72}, {"time": 443, "pitch": 64, "duration": 5, "velocity": 73}, {"time": 449, "pitch": 62, "duration": 4, "velocity": 71}, {"time": 455, "pitch": 62, "duration": 5, "velocity": 71}, {"time": 461, "pitch": 60, "duration": 5, "velocity": 71}, {"time": 467, "pitch": 62, "duration": 6, "velocity": 72}, {"time": 473, "pitch": 62, "duration": 4, "velocity": 73}, {"time": 479, "pitch": 62, "duration": 5, "velocity": 76}, {"time": 485, "pitch": 60, "duration": 5, "velocity": 77}, {"time": 491, "pitch": 62, "duration": 6, "velocity": 76}, {"time": 497, "pitch": 57, "duration": 16, "velocity": 72}, {"time": 521, "pitch": 60, "duration": 4, "velocity": 71}, {"time": 527, "pitch": 60, "duration": 4, "velocity": 74}, {"time": 533, "pitch": 60, "duration": 5, "velocity": 74}, {"time": 539, "pitch": 60, "duration": 4, "velocity": 77}, {"time": 545, "pitch": 57, "duration": 5, "velocity": 71}, {"time": 551, "pitch": 57, "duration": 5, "velocity": 70}, {"time": 557, "pitch": 60, "duration": 5, "velocity": 77}, {"time": 563, "pitch": 64, "duration": 5, "velocity": 77}, {"time": 569, "pitch": 62, "duration": 4, "velocity": 71}, {"time": 575, "pitch": 62, "duration": 4, "velocity": 72}, {"time": 581, "pitch": 60, "duration": 4, "velocity": 77}, {"time": 587, "pitch": 57, "duration": 12, "velocity": 74}, {"time": 599, "pitch": 55, "duration": 11, "velocity": 76}, {"time": 617, "pitch": 64, "duration": 4, "velocity": 77}, {"time": 623, "pitch": 64, "duration": 5, "velocity": 78}, {"time": 629, "pitch": 67, "duration": 4, "velocity": 69}, {"time": 635, "pitch": 67, "duration": 5, "velocity": 70}, {"time": 641, "pitch": 64, "duration": 8, "velocity": 78}, {"time": 653, "pitch": 60, "duration": 5, "velocity": 77}, {"time": 659, "pitch": 62, "duration": 10, "velocity": 73}, {"time": 671, "pitch": 62, "duration": 4, "velocity": 73}, {"time": 677, "pitch": 64, "duration": 5, "velocity": 75}, {"time": 683, "pitch": 57, "duration": 5, "velocity": 76}, {"time": 689, "pitch": 62, "duration": 14, "velocity": 72}, {"time": 713, "pitch": 60, "duration": 4, "velocity": 76}, {"time": 719, "pitch": 60, "duration": 4, "velocity": 74}, {"time": 725, "pitch": 60, "duration": 4, "velocity": 72}, {"time": 731, "pitch": 60, "duration": 5, "velocity": 78}, {"time": 737, "pitch": 57, "duration": 4, "velocity": 69}, {"time": 743, "pitch": 57, "duration": 6, "velocity": 71}, {"time": 749, "pitch": 60, "duration": 5, "velocity": 76}, {"time": 755, "pitch": 64, "duration": 11, "velocity": 68}, {"time": 767, "pitch": 62, "duration": 4, "velocity": 72}, {"time": 773, "pitch": 62, "duration": 19, "velocity": 72}, {"time": 797, "pitch": 57, "duration": 5, "velocity": 74}, {"time": 803, "pitch": 64, "duration": 6, "velocity": 75}, {"time": 809, "pitch": 60, "duration": 7, "velocity": 73}, {"time": 815, "pitch": 62, "duration": 35, "velocity": 70}, {"time": 905, "pitch": 64, "duration": 4, "velocity": 79}, {"time": 911, "pitch": 64, "duration": 4, "velocity": 74}, {"time": 917, "pitch": 64, "duration": 4, "velocity": 72}, {"time": 923, "pitch": 64, "duration": 5, "velocity": 73}, {"time": 929, "pitch": 62, "duration": 4, "velocity": 71}, {"time": 935, "pitch": 62, "duration": 5, "velocity": 71}, {"time": 941, "pitch": 60, "duration": 5, "velocity": 71}, {"time": 947, "pitch": 62, "duration": 6, "velocity": 72}, {"time": 953, "pitch": 62, "duration": 4, "velocity": 73}, {"time": 959, "pitch": 62, "duration": 5, "velocity": 76}, {"time": 965, "pitch": 60, "duration": 5, "velocity": 77}, {"time": 971, "pitch": 62, "duration": 6, "velocity": 76}, {"time": 977, "pitch": 57, "duration": 16, "velocity": 72}, {"time": 1001, "pitch": 60, "duration": 4, "velocity": 71}, {"time": 1007, "pitch": 60, "duration": 4, "velocity": 74}, {"time": 1013, "pitch": 60, "duration": 5, "velocity": 74}, {"time": 1019, "pitch": 60, "duration": 4, "velocity": 77}, {"time": 1025, "pitch": 57, "duration": 5, "velocity": 71}, {"time": 1031, "pitch": 57, "duration": 5, "velocity": 70}, {"time": 1037, "pitch": 60, "duration": 5, "velocity": 77}, {"time": 1043, "pitch": 64, "duration": 12, "velocity": 77}, {"time": 1055, "pitch": 62, "duration": 4, "velocity": 71}, {"time": 1061, "pitch": 60, "duration": 4, "velocity": 77}, {"time": 1067, "pitch": 57, "duration": 6, "velocity": 74}, {"time": 1073, "pitch": 55, "duration": 18, "velocity": 76}, {"time": 1097, "pitch": 64, "duration": 4, "velocity": 77}, {"time": 1103, "pitch": 64, "duration": 5, "velocity": 78}, {"time": 1109, "pitch": 67, "duration": 4, "velocity": 69}, {"time": 1115, "pitch": 67, "duration": 5, "velocity": 70}, {"time": 1121, "pitch": 64, "duration": 6, "velocity": 78}, {"time": 1127, "pitch": 62, "duration": 6, "velocity": 77}, {"time": 1133, "pitch": 60, "duration": 5, "velocity": 77}, {"time": 1139, "pitch": 62, "duration": 6, "velocity": 73}, {"time": 1145, "pitch": 62, "duration": 6, "velocity": 73}, {"time": 1151, "pitch": 62, "duration": 4, "velocity": 73}, {"time": 1157, "pitch": 64, "duration": 5, "velocity": 75}, {"time": 1163, "pitch": 57, "duration": 5, "velocity": 76}, {"time": 1169, "pitch": 62, "duration": 14, "velocity": 72}, {"time": 1193, "pitch": 60, "duration": 4, "velocity": 76}, {"time": 1199, "pitch": 60, "duration": 4, "velocity": 74}, {"time": 1205, "pitch": 60, "duration": 4, "velocity": 72}, {"time": 1211, "pitch": 60, "duration": 5, "velocity": 78}, {"time": 1217, "pitch": 57, "duration": 4, "velocity": 69}, {"time": 1223, "pitch": 57, "duration": 6, "velocity": 71}, {"time": 1229, "pitch": 60, "duration": 5, "velocity": 76}, {"time": 1235, "pitch": 64, "duration": 11, "velocity": 68}, {"time": 1247, "pitch": 62, "duration": 4, "velocity": 72}, {"time": 1253, "pitch": 62, "duration": 12, "velocity": 72}, {"time": 1265, "pitch": 60, "duration": 6, "velocity": 77}, {"time": 1271, "pitch": 57, "duration": 5, "velocity": 74}, {"time": 1277, "pitch": 60, "duration": 42, "velocity": 75}, {"time": 1391, "pitch": 65, "duration": 5, "velocity": 78}, {"time": 1397, "pitch": 64, "duration": 4, "velocity": 80}, {"time": 1403, "pitch": 65, "duration": 5, "velocity": 81}, {"time": 1409, "pitch": 64, "duration": 5, "velocity": 80}, {"time": 1415, "pitch": 60, "duration": 6, "velocity": 77}, {"time": 1421, "pitch": 64, "duration": 12, "velocity": 77}, {"time": 1433, "pitch": 60, "duration": 23, "velocity": 78}, {"time": 1457, "pitch": 60, "duration": 4, "velocity": 76}, {"time": 1463, "pitch": 60, "duration": 5, "velocity": 75}, {"time": 1469, "pitch": 57, "duration": 5, "velocity": 75}, {"time": 1475, "pitch": 60, "duration": 4, "velocity": 77}, {"time": 1481, "pitch": 60, "duration": 4, "velocity": 72}, {"time": 1487, "pitch": 60, "duration": 5, "velocity": 74}, {"time": 1493, "pitch": 57, "duration": 6, "velocity": 72}, {"time": 1499, "pitch": 60, "duration": 12, "velocity": 77}, {"time": 1511, "pitch": 57, "duration": 7, "velocity": 71}, {"time": 1517, "pitch": 64, "duration": 13, "velocity": 68}, {"time": 1529, "pitch": 62, "duration": 39, "velocity": 76}, {"time": 1583, "pitch": 65, "duration": 4, "velocity": 78}, {"time": 1589, "pitch": 64, "duration": 4, "velocity": 80}, {"time": 1595, "pitch": 65, "duration": 5, "velocity": 78}, {"time": 1601, "pitch": 64, "duration": 5, "velocity": 77}, {"time": 1607, "pitch": 60, "duration": 6, "velocity": 78}, {"time": 1613, "pitch": 64, "duration": 12, "velocity": 78}, {"time": 1625, "pitch": 60, "duration": 14, "velocity": 76}, {"time": 1655, "pitch": 60, "duration": 5, "velocity": 77}, {"time": 1661, "pitch": 57, "duration": 5, "velocity": 77}, {"time": 1667, "pitch": 67, "duration": 3, "velocity": 75}, {"time": 1673, "pitch": 67, "duration": 3, "velocity": 78}, {"time": 1679, "pitch": 67, "duration": 4, "velocity": 76}, {"time": 1685, "pitch": 67, "duration": 4, "velocity": 74}, {"time": 1691, "pitch": 67, "duration": 4, "velocity": 76}, {"time": 1697, "pitch": 64, "duration": 10, "velocity": 77}, {"time": 1709, "pitch": 65, "duration": 5, "velocity": 70}, {"time": 1715, "pitch": 69, "duration": 17, "velocity": 76}, {"time": 1733, "pitch": 67, "duration": 42, "velocity": 77}, {"time": 1787, "pitch": 72, "duration": 22, "velocity": 80}, {"time": 1811, "pitch": 71, "duration": 12, "velocity": 80}, {"time": 1823, "pitch": 69, "duration": 5, "velocity": 79}, {"time": 1829, "pitch": 67, "duration": 3, "velocity": 72}, {"time": 1835, "pitch": 67, "duration": 5, "velocity": 72}, {"time": 1841, "pitch": 64, "duration": 5, "velocity": 81}, {"time": 1847, "pitch": 67, "duration": 11, "velocity": 77}, {"time": 1859, "pitch": 69, "duration": 5, "velocity": 76}, {"time": 1865, "pitch": 67, "duration": 24, "velocity": 77}, {"time": 1907, "pitch": 64, "duration": 4, "velocity": 78}, {"time": 1913, "pitch": 67, "duration": 5, "velocity": 69}, {"time": 1919, "pitch": 69, "duration": 4, "velocity": 71}, {"time": 1925, "pitch": 69, "duration": 11, "velocity": 77}, {"time": 1937, "pitch": 72, "duration": 4, "velocity": 76}, {"time": 1943, "pitch": 69, "duration": 6, "velocity": 77}, {"time": 1949, "pitch": 67, "duration": 12, "velocity": 72}, {"time": 1961, "pitch": 64, "duration": 12, "velocity": 77}, {"time": 1973, "pitch": 62, "duration": 18, "velocity": 77}, {"time": 2003, "pitch": 64, "duration": 5, "velocity": 78}, {"time": 2009, "pitch": 62, "duration": 5, "velocity": 76}, {"time": 2015, "pitch": 60, "duration": 6, "velocity": 76}, {"time": 2021, "pitch": 62, "duration": 4, "velocity": 73}, {"time": 2027, "pitch": 64, "duration": 5, "velocity": 77}, {"time": 2033, "pitch": 69, "duration": 14, "velocity": 78}, {"time": 2051, "pitch": 64, "duration": 4, "velocity": 76}, {"time": 2057, "pitch": 62, "duration": 5, "velocity": 76}, {"time": 2063, "pitch": 60, "duration": 5, "velocity": 71}, {"time": 2069, "pitch": 62, "duration": 6, "velocity": 75}, {"time": 2075, "pitch": 64, "duration": 5, "velocity": 77}, {"time": 2081, "pitch": 71, "duration": 15, "velocity": 77}, {"time": 2099, "pitch": 69, "duration": 5, "velocity": 78}, {"time": 2105, "pitch": 71, "duration": 4, "velocity": 77}, {"time": 2111, "pitch": 72, "duration": 7, "velocity": 79}, {"time": 2120, "pitch": 72, "duration": 8, "velocity": 79}, {"time": 2129, "pitch": 69, "duration": 5, "velocity": 77}, {"time": 2135, "pitch": 72, "duration": 7, "velocity": 78}, {"time": 2144, "pitch": 72, "duration": 9, "velocity": 78}, {"time": 2153, "pitch": 69, "duration": 5, "velocity": 76}, {"time": 2159, "pitch": 69, "duration": 5, "velocity": 74}, {"time": 2165, "pitch": 67, "duration": 25, "velocity": 75}, {"time": 2195, "pitch": 72, "duration": 5, "velocity": 78}, {"time": 2201, "pitch": 71, "duration": 6, "velocity": 77}, {"time": 2207, "pitch": 69, "duration": 6, "velocity": 77}, {"time": 2213, "pitch": 67, "duration": 4, "velocity": 71}, {"time": 2219, "pitch": 67, "duration": 4, "velocity": 70}, {"time": 2225, "pitch": 64, "duration": 5, "velocity": 79}, {"time": 2231, "pitch": 67, "duration": 13, "velocity": 77}, {"time": 2243, "pitch": 64, "duration": 6, "velocity": 80}, {"time": 2249, "pitch": 69, "duration": 12, "velocity": 78}, {"time": 2261, "pitch": 67, "duration": 21, "velocity": 70}, {"time": 2291, "pitch": 64, "duration": 4, "velocity": 81}, {"time": 2297, "pitch": 67, "duration": 5, "velocity": 76}, {"time": 2303, "pitch": 69, "duration": 7, "velocity": 77}, {"time": 2312, "pitch": 69, "duration": 8, "velocity": 77}, {"time": 2321, "pitch": 72, "duration": 5, "velocity": 77}, {"time": 2327, "pitch": 69, "duration": 11, "velocity": 77}, {"time": 2339, "pitch": 67, "duration": 5, "velocity": 77}, {"time": 2345, "pitch": 64, "duration": 13, "velocity": 78}, {"time": 2357, "pitch": 62, "duration": 26, "velocity": 72}, {"time": 2387, "pitch": 64, "duration": 5, "velocity": 77}, {"time": 2393, "pitch": 62, "duration": 6, "velocity": 76}, {"time": 2399, "pitch": 60, "duration": 7, "velocity": 77}, {"time": 2405, "pitch": 62, "duration": 6, "velocity": 78}, {"time": 2411, "pitch": 64, "duration": 7, "velocity": 78}, {"time": 2417, "pitch": 69, "duration": 15, "velocity": 75}, {"time": 2435, "pitch": 64, "duration": 5, "velocity": 78}, {"time": 2441, "pitch": 62, "duration": 6, "velocity": 76}, {"time": 2447, "pitch": 60, "duration": 7, "velocity": 76}, {"time": 2453, "pitch": 62, "duration": 6, "velocity": 77}, {"time": 2459, "pitch": 64, "duration": 6, "velocity": 78}, {"time": 2465, "pitch": 71, "duration": 14, "velocity": 77}, {"time": 2483, "pitch": 69, "duration": 3, "velocity": 80}, {"time": 2489, "pitch": 71, "duration": 4, "velocity": 78}, {"time": 2495, "pitch": 72, "duration": 4, "velocity": 77}, {"time": 2501, "pitch": 72, "duration": 4, "velocity": 76}, {"time": 2507, "pitch": 72, "duration": 5, "velocity": 77}, {"time": 2513, "pitch": 69, "duration": 7, "velocity": 77}, {"time": 2519, "pitch": 74, "duration": 13, "velocity": 81}, {"time": 2531, "pitch": 72, "duration": 34, "velocity": 70}, {"time": 2567, "pitch": 69, "duration": 8, "velocity": 82}, {"time": 2573, "pitch": 76, "duration": 17, "velocity": 78}, {"time": 2591, "pitch": 69, "duration": 7, "velocity": 73}, {"time": 2597, "pitch": 72, "duration": 49, "velocity": 77}, {"time": 3461, "pitch": 64, "duration": 4, "velocity": 79}, {"time": 3467, "pitch": 64, "duration": 4, "velocity": 74}, {"time": 3473, "pitch": 64, "duration": 4, "velocity": 72}, {"time": 3479, "pitch": 64, "duration": 5, "velocity": 73}, {"time": 3485, "pitch": 62, "duration": 4, "velocity": 71}, {"time": 3491, "pitch": 62, "duration": 5, "velocity": 71}, {"time": 3497, "pitch": 60, "duration": 5, "velocity": 71}, {"time": 3503, "pitch": 62, "duration": 6, "velocity": 72}, {"time": 3509, "pitch": 62, "duration": 4, "velocity": 73}, {"time": 3515, "pitch": 62, "duration": 5, "velocity": 76}, {"time": 3521, "pitch": 60, "duration": 5, "velocity": 77}, {"time": 3527, "pitch": 62, "duration": 6, "velocity": 76}, {"time": 3533, "pitch": 57, "duration": 16, "velocity": 72}, {"time": 3557, "pitch": 60, "duration": 4, "velocity": 71}, {"time": 3563, "pitch": 60, "duration": 4, "velocity": 74}, {"time": 3569, "pitch": 60, "duration": 5, "velocity": 74}, {"time": 3575, "pitch": 60, "duration": 4, "velocity": 77}, {"time": 3581, "pitch": 57, "duration": 5, "velocity": 71}, {"time": 3587, "pitch": 57, "duration": 5, "velocity": 70}, {"time": 3593, "pitch": 60, "duration": 5, "velocity": 77}, {"time": 3599, "pitch": 64, "duration": 12, "velocity": 77}, {"time": 3611, "pitch": 62, "duration": 4, "velocity": 71}, {"time": 3617, "pitch": 60, "duration": 4, "velocity": 77}, {"time": 3623, "pitch": 57, "duration": 6, "velocity": 74}, {"time": 3629, "pitch": 55, "duration": 18, "velocity": 76}, {"time": 3653, "pitch": 64, "duration": 4, "velocity": 77}, {"time": 3659, "pitch": 64, "duration": 5, "velocity": 78}, {"time": 3665, "pitch": 67, "duration": 4, "velocity": 69}, {"time": 3671, "pitch": 67, "duration": 5, "velocity": 70}, {"time": 3677, "pitch": 64, "duration": 6, "velocity": 78}, {"time": 3683, "pitch": 62, "duration": 6, "velocity": 77}, {"time": 3689, "pitch": 60, "duration": 5, "velocity": 77}, {"time": 3695, "pitch": 62, "duration": 6, "velocity": 73}, {"time": 3701, "pitch": 62, "duration": 6, "velocity": 73}, {"time": 3707, "pitch": 62, "duration": 4, "velocity": 73}, {"time": 3713, "pitch": 64, "duration": 5, "velocity": 75}, {"time": 3719, "pitch": 57, "duration": 5, "velocity": 76}, {"time": 3725, "pitch": 62, "duration": 14, "velocity": 72}, {"time": 3749, "pitch": 60, "duration": 4, "velocity": 76}, {"time": 3755, "pitch": 60, "duration": 4, "velocity": 74}, {"time": 3761, "pitch": 60, "duration": 4, "velocity": 72}, {"time": 3767, "pitch": 60, "duration": 5, "velocity": 78}, {"time": 3773, "pitch": 57, "duration": 4, "velocity": 69}, {"time": 3779, "pitch": 57, "duration": 6, "velocity": 71}, {"time": 3785, "pitch": 60, "duration": 5, "velocity": 76}, {"time": 3791, "pitch": 64, "duration": 11, "velocity": 68}, {"time": 3803, "pitch": 62, "duration": 4, "velocity": 72}, {"time": 3809, "pitch": 62, "duration": 12, "velocity": 72}, {"time": 3821, "pitch": 60, "duration": 6, "velocity": 77}, {"time": 3827, "pitch": 57, "duration": 5, "velocity": 74}, {"time": 3833, "pitch": 60, "duration": 42, "velocity": 75}, {"time": 3947, "pitch": 65, "duration": 5, "velocity": 78}, {"time": 3953, "pitch": 64, "duration": 4, "velocity": 80}, {"time": 3959, "pitch": 65, "duration": 5, "velocity": 81}, {"time": 3965, "pitch": 64, "duration": 5, "velocity": 80}, {"time": 3971, "pitch": 60, "duration": 6, "velocity": 77}, {"time": 3977, "pitch": 64, "duration": 12, "velocity": 77}, {"time": 3989, "pitch": 60, "duration": 23, "velocity": 78}, {"time": 4013, "pitch": 60, "duration": 4, "velocity": 76}, {"time": 4019, "pitch": 60, "duration": 5, "velocity": 75}, {"time": 4025, "pitch": 57, "duration": 5, "velocity": 75}, {"time": 4031, "pitch": 60, "duration": 4, "velocity": 77}, {"time": 4037, "pitch": 60, "duration": 4, "velocity": 72}, {"time": 4043, "pitch": 60, "duration": 5, "velocity": 74}, {"time": 4049, "pitch": 57, "duration": 6, "velocity": 72}, {"time": 4055, "pitch": 60, "duration": 12, "velocity": 77}, {"time": 4067, "pitch": 57, "duration": 7, "velocity": 71}, {"time": 4073, "pitch": 64, "duration": 13, "velocity": 68}, {"time": 4085, "pitch": 62, "duration": 39, "velocity": 76}, {"time": 4139, "pitch": 65, "duration": 4, "velocity": 78}, {"time": 4145, "pitch": 64, "duration": 4, "velocity": 80}, {"time": 4151, "pitch": 65, "duration": 5, "velocity": 78}, {"time": 4157, "pitch": 64, "duration": 5, "velocity": 77}, {"time": 4163, "pitch": 60, "duration": 6, "velocity": 78}, {"time": 4169, "pitch": 64, "duration": 12, "velocity": 78}, {"time": 4181, "pitch": 60, "duration": 14, "velocity": 76}, {"time": 4211, "pitch": 60, "duration": 5, "velocity": 77}, {"time": 4217, "pitch": 57, "duration": 5, "velocity": 77}, {"time": 4223, "pitch": 67, "duration": 3, "velocity": 75}, {"time": 4229, "pitch": 67, "duration": 3, "velocity": 78}, {"time": 4235, "pitch": 67, "duration": 4, "velocity": 76}, {"time": 4241, "pitch": 67, "duration": 4, "velocity": 74}, {"time": 4247, "pitch": 67, "duration": 4, "velocity": 76}, {"time": 4253, "pitch": 64, "duration": 10, "velocity": 77}, {"time": 4265, "pitch": 65, "duration": 5, "velocity": 70}, {"time": 4271, "pitch": 69, "duration": 17, "velocity": 76}, {"time": 4289, "pitch": 67, "duration": 42, "velocity": 77}, {"time": 4355, "pitch": 72, "duration": 6, "velocity": 80}, {"time": 4361, "pitch": 71, "duration": 6, "velocity": 80}, {"time": 4367, "pitch": 69, "duration": 5, "velocity": 79}, {"time": 4373, "pitch": 67, "duration": 3, "velocity": 72}, {"time": 4379, "pitch": 67, "duration": 5, "velocity": 72}, {"time": 4385, "pitch": 64, "duration": 5, "velocity": 81}, {"time": 4391, "pitch": 67, "duration": 11, "velocity": 77}, {"time": 4403, "pitch": 69, "duration": 5, "velocity": 76}, {"time": 4409, "pitch": 67, "duration": 24, "velocity": 77}, {"time": 4451, "pitch": 64, "duration": 4, "velocity": 78}, {"time": 4457, "pitch": 67, "duration": 5, "velocity": 69}, {"time": 4463, "pitch": 69, "duration": 4, "velocity": 71}, {"time": 4469, "pitch": 69, "duration": 11, "velocity": 77}, {"time": 4481, "pitch": 72, "duration": 4, "velocity": 76}, {"time": 4487, "pitch": 69, "duration": 6, "velocity": 77}, {"time": 4493, "pitch": 67, "duration": 12, "velocity": 72}, {"time": 4505, "pitch": 64, "duration": 12, "velocity": 77}, {"time": 4517, "pitch": 62, "duration": 18, "velocity": 77}, {"time": 4547, "pitch": 64, "duration": 5, "velocity": 78}, {"time": 4553, "pitch": 62, "duration": 5, "velocity": 76}, {"time": 4559, "pitch": 60, "duration": 6, "velocity": 76}, {"time": 4565, "pitch": 62, "duration": 4, "velocity": 73}, {"time": 4571, "pitch": 64, "duration": 5, "velocity": 77}, {"time": 4577, "pitch": 69, "duration": 14, "velocity": 78}, {"time": 4595, "pitch": 64, "duration": 4, "velocity": 76}, {"time": 4601, "pitch": 62, "duration": 5, "velocity": 76}, {"time": 4607, "pitch": 60, "duration": 5, "velocity": 71}, {"time": 4613, "pitch": 62, "duration": 6, "velocity": 75}, {"time": 4619, "pitch": 64, "duration": 5, "velocity": 77}, {"time": 4625, "pitch": 71, "duration": 15, "velocity": 77}, {"time": 4643, "pitch": 69, "duration": 5, "velocity": 78}, {"time": 4649, "pitch": 71, "duration": 4, "velocity": 77}, {"time": 4655, "pitch": 72, "duration": 7, "velocity": 79}, {"time": 4664, "pitch": 72, "duration": 8, "velocity": 79}, {"time": 4673, "pitch": 69, "duration": 5, "velocity": 77}, {"time": 4679, "pitch": 72, "duration": 7, "velocity": 78}, {"time": 4688, "pitch": 72, "duration": 9, "velocity": 78}, {"time": 4697, "pitch": 69, "duration": 5, "velocity": 76}, {"time": 4703, "pitch": 69, "duration": 5, "velocity": 74}, {"time": 4709, "pitch": 67, "duration": 25, "velocity": 75}, {"time": 4739, "pitch": 72, "duration": 5, "velocity": 78}, {"time": 4745, "pitch": 71, "duration": 6, "velocity": 77}, {"time": 4751, "pitch": 69, "duration": 6, "velocity": 77}, {"time": 4757, "pitch": 67, "duration": 4, "velocity": 71}, {"time": 4763, "pitch": 67, "duration": 4, "velocity": 70}, {"time": 4769, "pitch": 64, "duration": 5, "velocity": 79}, {"time": 4775, "pitch": 67, "duration": 13, "velocity": 77}, {"time": 4787, "pitch": 64, "duration": 6, "velocity": 80}, {"time": 4793, "pitch": 69, "duration": 12, "velocity": 78}, {"time": 4805, "pitch": 67, "duration": 21, "velocity": 70}, {"time": 4835, "pitch": 64, "duration": 4, "velocity": 81}, {"time": 4841, "pitch": 67, "duration": 5, "velocity": 76}, {"time": 4847, "pitch": 69, "duration": 7, "velocity": 77}, {"time": 4856, "pitch": 69, "duration": 8, "velocity": 77}, {"time": 4865, "pitch": 72, "duration": 5, "velocity": 77}, {"time": 4871, "pitch": 69, "duration": 11, "velocity": 77}, {"time": 4883, "pitch": 67, "duration": 5, "velocity": 77}, {"time": 4889, "pitch": 64, "duration": 13, "velocity": 78}, {"time": 4901, "pitch": 62, "duration": 26, "velocity": 72}, {"time": 4931, "pitch": 64, "duration": 5, "velocity": 77}, {"time": 4937, "pitch": 62, "duration": 6, "velocity": 76}, {"time": 4943, "pitch": 60, "duration": 7, "velocity": 77}, {"time": 4949, "pitch": 62, "duration": 6, "velocity": 78}, {"time": 4955, "pitch": 64, "duration": 7, "velocity": 78}, {"time": 4961, "pitch": 69, "duration": 15, "velocity": 75}, {"time": 4979, "pitch": 64, "duration": 5, "velocity": 78}, {"time": 4985, "pitch": 62, "duration": 6, "velocity": 76}, {"time": 4991, "pitch": 60, "duration": 7, "velocity": 76}, {"time": 4997, "pitch": 62, "duration": 6, "velocity": 77}, {"time": 5003, "pitch": 64, "duration": 6, "velocity": 78}, {"time": 5009, "pitch": 71, "duration": 14, "velocity": 77}, {"time": 5027, "pitch": 69, "duration": 3, "velocity": 80}, {"time": 5033, "pitch": 71, "duration": 4, "velocity": 78}, {"time": 5039, "pitch": 72, "duration": 4, "velocity": 77}, {"time": 5045, "pitch": 72, "duration": 4, "velocity": 76}, {"time": 5051, "pitch": 72, "duration": 5, "velocity": 77}, {"time": 5057, "pitch": 69, "duration": 7, "velocity": 77}, {"time": 5063, "pitch": 74, "duration": 13, "velocity": 81}, {"time": 5075, "pitch": 72, "duration": 34, "velocity": 70}, {"time": 5123, "pitch": 69, "duration": 9, "velocity": 78}, {"time": 5131, "pitch": 76, "duration": 17, "velocity": 82}, {"time": 5148, "pitch": 69, "duration": 9, "velocity": 78}, {"time": 5156, "pitch": 72, "duration": 85, "velocity": 76}, {"time": 5342, "pitch": 69, "duration": 6, "velocity": 76}, {"time": 5350, "pitch": 71, "duration": 6, "velocity": 80}, {"time": 5357, "pitch": 72, "duration": 5, "velocity": 76}, {"time": 5364, "pitch": 72, "duration": 6, "velocity": 76}, {"time": 5372, "pitch": 72, "duration": 6, "velocity": 77}, {"time": 5378, "pitch": 69, "duration": 9, "velocity": 77}, {"time": 5387, "pitch": 74, "duration": 16, "velocity": 79}, {"time": 5403, "pitch": 72, "duration": 52, "velocity": 76}, {"time": 5454, "pitch": 69, "duration": 12, "velocity": 76}, {"time": 5465, "pitch": 76, "duration": 24, "velocity": 77}, {"time": 5489, "pitch": 69, "duration": 22, "velocity": 76}, {"time": 5510, "pitch": 72, "duration": 80, "velocity": 76}]}, {"program": 0, "is_drum": false, "name": "PIANO", "notes": [{"time": 35, "pitch": 48, "duration": 63, "velocity": 80}, {"time": 41, "pitch": 55, "duration": 57, "velocity": 69}, {"time": 48, "pitch": 60, "duration": 28, "velocity": 75}, {"time": 48, "pitch": 67, "duration": 28, "velocity": 71}, {"time": 131, "pitch": 48, "duration": 42, "velocity": 76}, {"time": 142, "pitch": 55, "duration": 31, "velocity": 64}, {"time": 142, "pitch": 60, "duration": 37, "velocity": 66}, {"time": 145, "pitch": 67, "duration": 35, "velocity": 60}, {"time": 179, "pitch": 46, "duration": 42, "velocity": 53}, {"time": 185, "pitch": 53, "duration": 42, "velocity": 61}, {"time": 190, "pitch": 58, "duration": 37, "velocity": 67}, {"time": 196, "pitch": 62, "duration": 31, "velocity": 73}, {"time": 227, "pitch": 48, "duration": 74, "velocity": 78}, {"time": 235, "pitch": 55, "duration": 66, "velocity": 67}, {"time": 237, "pitch": 60, "duration": 5, "velocity": 48}, {"time": 239, "pitch": 62, "duration": 66, "velocity": 65}, {"time": 240, "pitch": 67, "duration": 65, "velocity": 69}, {"time": 320, "pitch": 46, "duration": 48, "velocity": 73}, {"time": 329, "pitch": 53, "duration": 40, "velocity": 58}, {"time": 333, "pitch": 58, "duration": 32, "velocity": 65}, {"time": 335, "pitch": 62, "duration": 30, "velocity": 70}, {"time": 336, "pitch": 65, "duration": 27, "velocity": 61}, {"time": 371, "pitch": 43, "duration": 18, "velocity": 72}, {"time": 373, "pitch": 53, "duration": 4, "velocity": 62}, {"time": 373, "pitch": 50, "duration": 16, "velocity": 64}, {"time": 374, "pitch": 55, "duration": 18, "velocity": 69}, {"time": 376, "pitch": 60, "duration": 17, "velocity": 58}, {"time": 393, "pitch": 43, "duration": 28, "velocity": 70}, {"time": 396, "pitch": 50, "duration": 24, "velocity": 68}, {"time": 396, "pitch": 55, "duration": 24, "velocity": 64}, {"time": 398, "pitch": 59, "duration": 22, "velocity": 69}, {"time": 401, "pitch": 62, "duration": 19, "velocity": 35}, {"time": 419, "pitch": 48, "duration": 44, "velocity": 78}, {"time": 425, "pitch": 55, "duration": 38, "velocity": 69}, {"time": 431, "pitch": 62, "duration": 6, "velocity": 71}, {"time": 437, "pitch": 64, "duration": 32, "velocity": 77}, {"time": 449, "pitch": 60, "duration": 6, "velocity": 64}, {"time": 455, "pitch": 67, "duration": 15, "velocity": 72}, {"time": 467, "pitch": 48, "duration": 43, "velocity": 77}, {"time": 473, "pitch": 55, "duration": 36, "velocity": 59}, {"time": 479, "pitch": 62, "duration": 38, "velocity": 65}, {"time": 485, "pitch": 66, "duration": 32, "velocity": 66}, {"time": 515, "pitch": 41, "duration": 43, "velocity": 72}, {"time": 521, "pitch": 48, "duration": 27, "velocity": 66}, {"time": 527, "pitch": 53, "duration": 24, "velocity": 70}, {"time": 533, "pitch": 60, "duration": 31, "velocity": 74}, {"time": 551, "pitch": 48, "duration": 8, "velocity": 54}, {"time": 557, "pitch": 53, "duration": 6, "velocity": 69}, {"time": 563, "pitch": 48, "duration": 41, "velocity": 77}, {"time": 569, "pitch": 55, "duration": 32, "velocity": 72}, {"time": 575, "pitch": 62, "duration": 8, "velocity": 71}, {"time": 581, "pitch": 64, "duration": 23, "velocity": 78}, {"time": 605, "pitch": 60, "duration": 5, "velocity": 68}, {"time": 611, "pitch": 40, "duration": 33, "velocity": 78}, {"time": 611, "pitch": 64, "duration": 11, "velocity": 72}, {"time": 617, "pitch": 47, "duration": 25, "velocity": 60}, {"time": 623, "pitch": 59, "duration": 19, "velocity": 77}, {"time": 629, "pitch": 67, "duration": 14, "velocity": 77}, {"time": 641, "pitch": 64, "duration": 8, "velocity": 73}, {"time": 647, "pitch": 59, "duration": 4, "velocity": 69}, {"time": 659, "pitch": 41, "duration": 40, "velocity": 73}, {"time": 659, "pitch": 53, "duration": 8, "velocity": 66}, {"time": 659, "pitch": 57, "duration": 13, "velocity": 70}, {"time": 665, "pitch": 48, "duration": 33, "velocity": 65}, {"time": 671, "pitch": 53, "duration": 19, "velocity": 76}, {"time": 677, "pitch": 60, "duration": 21, "velocity": 72}, {"time": 689, "pitch": 65, "duration": 25, "velocity": 71}, {"time": 695, "pitch": 53, "duration": 8, "velocity": 72}, {"time": 701, "pitch": 60, "duration": 6, "velocity": 71}, {"time": 707, "pitch": 50, "duration": 37, "velocity": 78}, {"time": 713, "pitch": 62, "duration": 21, "velocity": 68}, {"time": 719, "pitch": 57, "duration": 25, "velocity": 68}, {"time": 725, "pitch": 65, "duration": 23, "velocity": 74}, {"time": 743, "pitch": 62, "duration": 4, "velocity": 71}, {"time": 752, "pitch": 57, "duration": 11, "velocity": 61}, {"time": 754, "pitch": 62, "duration": 14, "velocity": 63}, {"time": 755, "pitch": 38, "duration": 32, "velocity": 78}, {"time": 755, "pitch": 65, "duration": 13, "velocity": 66}, {"time": 761, "pitch": 45, "duration": 25, "velocity": 50}, {"time": 767, "pitch": 57, "duration": 36, "velocity": 66}, {"time": 773, "pitch": 65, "duration": 45, "velocity": 66}, {"time": 803, "pitch": 43, "duration": 42, "velocity": 71}, {"time": 809, "pitch": 50, "duration": 39, "velocity": 70}, {"time": 815, "pitch": 57, "duration": 6, "velocity": 78}, {"time": 821, "pitch": 60, "duration": 12, "velocity": 79}, {"time": 833, "pitch": 57, "duration": 7, "velocity": 67}, {"time": 839, "pitch": 60, "duration": 7, "velocity": 78}, {"time": 845, "pitch": 59, "duration": 7, "velocity": 69}, {"time": 851, "pitch": 43, "duration": 49, "velocity": 72}, {"time": 851, "pitch": 60, "duration": 2, "velocity": 52}, {"time": 851, "pitch": 67, "duration": 7, "velocity": 76}, {"time": 857, "pitch": 55, "duration": 8, "velocity": 77}, {"time": 863, "pitch": 65, "duration": 7, "velocity": 65}, {"time": 869, "pitch": 55, "duration": 7, "velocity": 76}, {"time": 875, "pitch": 64, "duration": 12, "velocity": 79}, {"time": 881, "pitch": 55, "duration": 7, "velocity": 68}, {"time": 887, "pitch": 62, "duration": 10, "velocity": 75}, {"time": 893, "pitch": 55, "duration": 6, "velocity": 70}, {"time": 899, "pitch": 48, "duration": 44, "velocity": 78}, {"time": 905, "pitch": 55, "duration": 38, "velocity": 69}, {"time": 911, "pitch": 62, "duration": 6, "velocity": 71}, {"time": 917, "pitch": 64, "duration": 32, "velocity": 77}, {"time": 929, "pitch": 60, "duration": 6, "velocity": 64}, {"time": 935, "pitch": 67, "duration": 15, "velocity": 72}, {"time": 947, "pitch": 48, "duration": 43, "velocity": 77}, {"time": 953, "pitch": 55, "duration": 36, "velocity": 59}, {"time": 959, "pitch": 62, "duration": 38, "velocity": 65}, {"time": 965, "pitch": 66, "duration": 32, "velocity": 66}, {"time": 995, "pitch": 41, "duration": 43, "velocity": 72}, {"time": 1001, "pitch": 48, "duration": 27, "velocity": 66}, {"time": 1007, "pitch": 53, "duration": 24, "velocity": 70}, {"time": 1013, "pitch": 60, "duration": 31, "velocity": 74}, {"time": 1031, "pitch": 48, "duration": 8, "velocity": 54}, {"time": 1037, "pitch": 53, "duration": 6, "velocity": 69}, {"time": 1043, "pitch": 48, "duration": 41, "velocity": 77}, {"time": 1049, "pitch": 55, "duration": 32, "velocity": 72}, {"time": 1055, "pitch": 62, "duration": 8, "velocity": 71}, {"time": 1061, "pitch": 64, "duration": 23, "velocity": 78}, {"time": 1085, "pitch": 60, "duration": 5, "velocity": 68}, {"time": 1091, "pitch": 40, "duration": 33, "velocity": 78}, {"time": 1091, "pitch": 64, "duration": 11, "velocity": 72}, {"time": 1097, "pitch": 47, "duration": 25, "velocity": 60}, {"time": 1103, "pitch": 59, "duration": 19, "velocity": 77}, {"time": 1109, "pitch": 67, "duration": 14, "velocity": 77}, {"time": 1121, "pitch": 64, "duration": 8, "velocity": 73}, {"time": 1127, "pitch": 59, "duration": 4, "velocity": 69}, {"time": 1139, "pitch": 41, "duration": 40, "velocity": 73}, {"time": 1139, "pitch": 53, "duration": 8, "velocity": 66}, {"time": 1139, "pitch": 57, "duration": 13, "velocity": 70}, {"time": 1145, "pitch": 48, "duration": 33, "velocity": 65}, {"time": 1151, "pitch": 53, "duration": 19, "velocity": 76}, {"time": 1157, "pitch": 60, "duration": 21, "velocity": 72}, {"time": 1169, "pitch": 65, "duration": 25, "velocity": 71}, {"time": 1175, "pitch": 53, "duration": 8, "velocity": 72}, {"time": 1181, "pitch": 60, "duration": 6, "velocity": 71}, {"time": 1187, "pitch": 50, "duration": 37, "velocity": 78}, {"time": 1193, "pitch": 62, "duration": 21, "velocity": 68}, {"time": 1199, "pitch": 57, "duration": 25, "velocity": 68}, {"time": 1205, "pitch": 65, "duration": 23, "velocity": 74}, {"time": 1223, "pitch": 62, "duration": 4, "velocity": 71}, {"time": 1232, "pitch": 57, "duration": 11, "velocity": 61}, {"time": 1234, "pitch": 62, "duration": 14, "velocity": 63}, {"time": 1235, "pitch": 38, "duration": 32, "velocity": 78}, {"time": 1235, "pitch": 65, "duration": 13, "velocity": 66}, {"time": 1241, "pitch": 45, "duration": 25, "velocity": 50}, {"time": 1247, "pitch": 57, "duration": 36, "velocity": 66}, {"time": 1253, "pitch": 65, "duration": 45, "velocity": 66}, {"time": 1283, "pitch": 48, "duration": 41, "velocity": 80}, {"time": 1289, "pitch": 55, "duration": 15, "velocity": 69}, {"time": 1295, "pitch": 62, "duration": 7, "velocity": 67}, {"time": 1301, "pitch": 64, "duration": 29, "velocity": 72}, {"time": 1307, "pitch": 55, "duration": 9, "velocity": 53}, {"time": 1313, "pitch": 60, "duration": 8, "velocity": 57}, {"time": 1319, "pitch": 55, "duration": 4, "velocity": 66}, {"time": 1325, "pitch": 60, "duration": 10, "velocity": 71}, {"time": 1331, "pitch": 36, "duration": 49, "velocity": 74}, {"time": 1337, "pitch": 43, "duration": 25, "velocity": 52}, {"time": 1355, "pitch": 55, "duration": 7, "velocity": 77}, {"time": 1361, "pitch": 48, "duration": 19, "velocity": 75}, {"time": 1367, "pitch": 43, "duration": 13, "velocity": 63}, {"time": 1373, "pitch": 55, "duration": 7, "velocity": 71}, {"time": 1379, "pitch": 41, "duration": 39, "velocity": 79}, {"time": 1385, "pitch": 48, "duration": 22, "velocity": 74}, {"time": 1391, "pitch": 53, "duration": 21, "velocity": 79}, {"time": 1397, "pitch": 60, "duration": 19, "velocity": 80}, {"time": 1409, "pitch": 48, "duration": 8, "velocity": 65}, {"time": 1415, "pitch": 53, "duration": 10, "velocity": 38}, {"time": 1415, "pitch": 57, "duration": 12, "velocity": 72}, {"time": 1421, "pitch": 65, "duration": 12, "velocity": 67}, {"time": 1427, "pitch": 45, "duration": 37, "velocity": 73}, {"time": 1433, "pitch": 52, "duration": 18, "velocity": 72}, {"time": 1439, "pitch": 57, "duration": 17, "velocity": 76}, {"time": 1445, "pitch": 64, "duration": 17, "velocity": 81}, {"time": 1457, "pitch": 52, "duration": 7, "velocity": 60}, {"time": 1463, "pitch": 60, "duration": 5, "velocity": 76}, {"time": 1469, "pitch": 55, "duration": 3, "velocity": 80}, {"time": 1475, "pitch": 41, "duration": 36, "velocity": 76}, {"time": 1475, "pitch": 53, "duration": 8, "velocity": 76}, {"time": 1475, "pitch": 57, "duration": 13, "velocity": 76}, {"time": 1481, "pitch": 48, "duration": 29, "velocity": 69}, {"time": 1487, "pitch": 53, "duration": 18, "velocity": 78}, {"time": 1493, "pitch": 60, "duration": 19, "velocity": 77}, {"time": 1505, "pitch": 65, "duration": 18, "velocity": 75}, {"time": 1511, "pitch": 53, "duration": 8, "velocity": 76}, {"time": 1517, "pitch": 60, "duration": 12, "velocity": 72}, {"time": 1523, "pitch": 43, "duration": 35, "velocity": 75}, {"time": 1529, "pitch": 50, "duration": 16, "velocity": 70}, {"time": 1535, "pitch": 55, "duration": 13, "velocity": 75}, {"time": 1541, "pitch": 62, "duration": 19, "velocity": 72}, {"time": 1547, "pitch": 50, "duration": 11, "velocity": 68}, {"time": 1553, "pitch": 55, "duration": 7, "velocity": 76}, {"time": 1559, "pitch": 67, "duration": 8, "velocity": 76}, {"time": 1565, "pitch": 55, "duration": 3, "velocity": 78}, {"time": 1571, "pitch": 46, "duration": 46, "velocity": 74}, {"time": 1571, "pitch": 58, "duration": 9, "velocity": 64}, {"time": 1571, "pitch": 62, "duration": 20, "velocity": 71}, {"time": 1577, "pitch": 53, "duration": 35, "velocity": 65}, {"time": 1583, "pitch": 58, "duration": 8, "velocity": 65}, {"time": 1589, "pitch": 65, "duration": 14, "velocity": 77}, {"time": 1601, "pitch": 62, "duration": 10, "velocity": 71}, {"time": 1607, "pitch": 58, "duration": 4, "velocity": 66}, {"time": 1619, "pitch": 45, "duration": 37, "velocity": 77}, {"time": 1619, "pitch": 60, "duration": 13, "velocity": 69}, {"time": 1625, "pitch": 52, "duration": 31, "velocity": 68}, {"time": 1631, "pitch": 57, "duration": 19, "velocity": 70}, {"time": 1637, "pitch": 64, "duration": 14, "velocity": 77}, {"time": 1649, "pitch": 60, "duration": 7, "velocity": 71}, {"time": 1655, "pitch": 57, "duration": 13, "velocity": 68}, {"time": 1667, "pitch": 41, "duration": 42, "velocity": 76}, {"time": 1667, "pitch": 65, "duration": 19, "velocity": 73}, {"time": 1673, "pitch": 48, "duration": 35, "velocity": 64}, {"time": 1679, "pitch": 57, "duration": 9, "velocity": 68}, {"time": 1685, "pitch": 60, "duration": 18, "velocity": 67}, {"time": 1685, "pitch": 64, "duration": 8, "velocity": 65}, {"time": 1703, "pitch": 57, "duration": 13, "velocity": 72}, {"time": 1709, "pitch": 60, "duration": 8, "velocity": 70}, {"time": 1715, "pitch": 43, "duration": 33, "velocity": 77}, {"time": 1721, "pitch": 50, "duration": 27, "velocity": 71}, {"time": 1727, "pitch": 62, "duration": 8, "velocity": 71}, {"time": 1733, "pitch": 67, "duration": 19, "velocity": 76}, {"time": 1745, "pitch": 55, "duration": 8, "velocity": 70}, {"time": 1751, "pitch": 62, "duration": 6, "velocity": 76}, {"time": 1762, "pitch": 43, "duration": 60, "velocity": 77}, {"time": 1768, "pitch": 50, "duration": 53, "velocity": 74}, {"time": 1774, "pitch": 62, "duration": 17, "velocity": 77}, {"time": 1775, "pitch": 55, "duration": 1, "velocity": 44}, {"time": 1780, "pitch": 67, "duration": 22, "velocity": 76}, {"time": 1786, "pitch": 55, "duration": 35, "velocity": 69}, {"time": 1793, "pitch": 59, "duration": 28, "velocity": 73}, {"time": 1801, "pitch": 62, "duration": 21, "velocity": 65}, {"time": 1823, "pitch": 36, "duration": 39, "velocity": 76}, {"time": 1829, "pitch": 55, "duration": 13, "velocity": 70}, {"time": 1835, "pitch": 60, "duration": 7, "velocity": 77}, {"time": 1841, "pitch": 64, "duration": 12, "velocity": 76}, {"time": 1853, "pitch": 55, "duration": 8, "velocity": 62}, {"time": 1859, "pitch": 67, "duration": 15, "velocity": 72}, {"time": 1871, "pitch": 40, "duration": 41, "velocity": 78}, {"time": 1877, "pitch": 47, "duration": 34, "velocity": 66}, {"time": 1883, "pitch": 55, "duration": 7, "velocity": 71}, {"time": 1889, "pitch": 59, "duration": 19, "velocity": 73}, {"time": 1901, "pitch": 52, "duration": 6, "velocity": 70}, {"time": 1907, "pitch": 64, "duration": 19, "velocity": 78}, {"time": 1913, "pitch": 52, "duration": 5, "velocity": 79}, {"time": 1919, "pitch": 41, "duration": 38, "velocity": 78}, {"time": 1925, "pitch": 48, "duration": 31, "velocity": 72}, {"time": 1931, "pitch": 53, "duration": 25, "velocity": 77}, {"time": 1937, "pitch": 60, "duration": 20, "velocity": 76}, {"time": 1949, "pitch": 57, "duration": 7, "velocity": 68}, {"time": 1955, "pitch": 65, "duration": 5, "velocity": 70}, {"time": 1967, "pitch": 45, "duration": 45, "velocity": 77}, {"time": 1973, "pitch": 52, "duration": 40, "velocity": 75}, {"time": 1979, "pitch": 55, "duration": 13, "velocity": 85}, {"time": 1985, "pitch": 60, "duration": 7, "velocity": 79}, {"time": 1991, "pitch": 64, "duration": 20, "velocity": 77}, {"time": 1997, "pitch": 55, "duration": 8, "velocity": 68}, {"time": 2003, "pitch": 60, "duration": 9, "velocity": 72}, {"time": 2015, "pitch": 41, "duration": 44, "velocity": 77}, {"time": 2021, "pitch": 48, "duration": 35, "velocity": 69}, {"time": 2027, "pitch": 60, "duration": 13, "velocity": 70}, {"time": 2033, "pitch": 65, "duration": 27, "velocity": 76}, {"time": 2045, "pitch": 53, "duration": 7, "velocity": 70}, {"time": 2051, "pitch": 60, "duration": 9, "velocity": 69}, {"time": 2057, "pitch": 53, "duration": 3, "velocity": 61}, {"time": 2063, "pitch": 40, "duration": 39, "velocity": 77}, {"time": 2063, "pitch": 55, "duration": 6, "velocity": 68}, {"time": 2063, "pitch": 59, "duration": 9, "velocity": 71}, {"time": 2069, "pitch": 55, "duration": 8, "velocity": 74}, {"time": 2075, "pitch": 59, "duration": 18, "velocity": 73}, {"time": 2081, "pitch": 64, "duration": 26, "velocity": 68}, {"time": 2093, "pitch": 55, "duration": 9, "velocity": 71}, {"time": 2099, "pitch": 59, "duration": 10, "velocity": 82}, {"time": 2105, "pitch": 55, "duration": 6, "velocity": 70}, {"time": 2111, "pitch": 50, "duration": 35, "velocity": 81}, {"time": 2117, "pitch": 57, "duration": 8, "velocity": 74}, {"time": 2123, "pitch": 62, "duration": 3, "velocity": 78}, {"time": 2129, "pitch": 57, "duration": 4, "velocity": 77}, {"time": 2129, "pitch": 65, "duration": 14, "velocity": 78}, {"time": 2141, "pitch": 62, "duration": 6, "velocity": 73}, {"time": 2147, "pitch": 57, "duration": 7, "velocity": 77}, {"time": 2153, "pitch": 62, "duration": 20, "velocity": 67}, {"time": 2159, "pitch": 43, "duration": 48, "velocity": 77}, {"time": 2165, "pitch": 50, "duration": 40, "velocity": 77}, {"time": 2171, "pitch": 55, "duration": 13, "velocity": 77}, {"time": 2177, "pitch": 62, "duration": 9, "velocity": 73}, {"time": 2183, "pitch": 67, "duration": 25, "velocity": 75}, {"time": 2189, "pitch": 55, "duration": 8, "velocity": 71}, {"time": 2195, "pitch": 62, "duration": 12, "velocity": 69}, {"time": 2201, "pitch": 55, "duration": 5, "velocity": 61}, {"time": 2207, "pitch": 36, "duration": 39, "velocity": 76}, {"time": 2213, "pitch": 55, "duration": 13, "velocity": 70}, {"time": 2219, "pitch": 60, "duration": 7, "velocity": 77}, {"time": 2225, "pitch": 64, "duration": 12, "velocity": 76}, {"time": 2237, "pitch": 55, "duration": 8, "velocity": 62}, {"time": 2243, "pitch": 67, "duration": 15, "velocity": 72}, {"time": 2255, "pitch": 40, "duration": 41, "velocity": 78}, {"time": 2261, "pitch": 47, "duration": 34, "velocity": 66}, {"time": 2267, "pitch": 55, "duration": 7, "velocity": 71}, {"time": 2273, "pitch": 59, "duration": 19, "velocity": 73}, {"time": 2285, "pitch": 52, "duration": 6, "velocity": 70}, {"time": 2291, "pitch": 64, "duration": 19, "velocity": 78}, {"time": 2297, "pitch": 52, "duration": 5, "velocity": 79}, {"time": 2303, "pitch": 41, "duration": 38, "velocity": 78}, {"time": 2309, "pitch": 48, "duration": 31, "velocity": 72}, {"time": 2315, "pitch": 53, "duration": 25, "velocity": 77}, {"time": 2321, "pitch": 60, "duration": 20, "velocity": 76}, {"time": 2333, "pitch": 57, "duration": 7, "velocity": 68}, {"time": 2339, "pitch": 65, "duration": 5, "velocity": 70}, {"time": 2351, "pitch": 45, "duration": 45, "velocity": 77}, {"time": 2357, "pitch": 52, "duration": 40, "velocity": 75}, {"time": 2363, "pitch": 55, "duration": 13, "velocity": 85}, {"time": 2369, "pitch": 60, "duration": 7, "velocity": 79}, {"time": 2375, "pitch": 64, "duration": 20, "velocity": 77}, {"time": 2381, "pitch": 55, "duration": 8, "velocity": 68}, {"time": 2387, "pitch": 60, "duration": 9, "velocity": 72}, {"time": 2399, "pitch": 41, "duration": 44, "velocity": 77}, {"time": 2405, "pitch": 48, "duration": 35, "velocity": 69}, {"time": 2411, "pitch": 60, "duration": 13, "velocity": 70}, {"time": 2417, "pitch": 65, "duration": 27, "velocity": 76}, {"time": 2429, "pitch": 53, "duration": 7, "velocity": 70}, {"time": 2435, "pitch": 60, "duration": 9, "velocity": 69}, {"time": 2441, "pitch": 53, "duration": 3, "velocity": 61}, {"time": 2447, "pitch": 40, "duration": 39, "velocity": 77}, {"time": 2447, "pitch": 55, "duration": 6, "velocity": 68}, {"time": 2447, "pitch": 59, "duration": 9, "velocity": 71}, {"time": 2453, "pitch": 55, "duration": 8, "velocity": 74}, {"time": 2459, "pitch": 59, "duration": 18, "velocity": 73}, {"time": 2465, "pitch": 64, "duration": 26, "velocity": 68}, {"time": 2477, "pitch": 55, "duration": 9, "velocity": 71}, {"time": 2483, "pitch": 59, "duration": 10, "velocity": 82}, {"time": 2489, "pitch": 55, "duration": 6, "velocity": 70}, {"time": 2495, "pitch": 50, "duration": 35, "velocity": 81}, {"time": 2501, "pitch": 57, "duration": 8, "velocity": 74}, {"time": 2507, "pitch": 62, "duration": 3, "velocity": 78}, {"time": 2513, "pitch": 57, "duration": 4, "velocity": 77}, {"time": 2513, "pitch": 65, "duration": 14, "velocity": 78}, {"time": 2525, "pitch": 62, "duration": 6, "velocity": 73}, {"time": 2531, "pitch": 57, "duration": 7, "velocity": 77}, {"time": 2537, "pitch": 62, "duration": 20, "velocity": 67}, {"time": 2543, "pitch": 43, "duration": 48, "velocity": 77}, {"time": 2549, "pitch": 50, "duration": 40, "velocity": 77}, {"time": 2555, "pitch": 55, "duration": 13, "velocity": 77}, {"time": 2561, "pitch": 62, "duration": 9, "velocity": 73}, {"time": 2567, "pitch": 67, "duration": 25, "velocity": 75}, {"time": 2573, "pitch": 55, "duration": 8, "velocity": 71}, {"time": 2579, "pitch": 62, "duration": 12, "velocity": 69}, {"time": 2585, "pitch": 55, "duration": 5, "velocity": 61}, {"time": 2591, "pitch": 96, "duration": 3, "velocity": 59}, {"time": 2594, "pitch": 95, "duration": 3, "velocity": 59}, {"time": 2597, "pitch": 41, "duration": 40, "velocity": 76}, {"time": 2597, "pitch": 91, "duration": 3, "velocity": 59}, {"time": 2600, "pitch": 88, "duration": 3, "velocity": 59}, {"time": 2603, "pitch": 53, "duration": 10, "velocity": 76}, {"time": 2603, "pitch": 96, "duration": 3, "velocity": 59}, {"time": 2606, "pitch": 95, "duration": 3, "velocity": 59}, {"time": 2609, "pitch": 57, "duration": 4, "velocity": 75}, {"time": 2609, "pitch": 91, "duration": 3, "velocity": 59}, {"time": 2612, "pitch": 88, "duration": 3, "velocity": 59}, {"time": 2615, "pitch": 53, "duration": 1, "velocity": 57}, {"time": 2615, "pitch": 57, "duration": 2, "velocity": 64}, {"time": 2615, "pitch": 60, "duration": 42, "velocity": 78}, {"time": 2615, "pitch": 96, "duration": 3, "velocity": 59}, {"time": 2618, "pitch": 95, "duration": 3, "velocity": 59}, {"time": 2621, "pitch": 91, "duration": 3, "velocity": 59}, {"time": 2624, "pitch": 88, "duration": 3, "velocity": 59}, {"time": 2627, "pitch": 48, "duration": 7, "velocity": 48}, {"time": 2627, "pitch": 96, "duration": 3, "velocity": 59}, {"time": 2630, "pitch": 95, "duration": 3, "velocity": 59}, {"time": 2633, "pitch": 53, "duration": 13, "velocity": 68}, {"time": 2633, "pitch": 91, "duration": 3, "velocity": 59}, {"time": 2636, "pitch": 88, "duration": 3, "velocity": 59}, {"time": 2639, "pitch": 96, "duration": 3, "velocity": 59}, {"time": 2642, "pitch": 95, "duration": 3, "velocity": 59}, {"time": 2645, "pitch": 41, "duration": 39, "velocity": 73}, {"time": 2645, "pitch": 91, "duration": 3, "velocity": 59}, {"time": 2648, "pitch": 88, "duration": 3, "velocity": 59}, {"time": 2651, "pitch": 48, "duration": 33, "velocity": 72}, {"time": 2651, "pitch": 96, "duration": 3, "velocity": 59}, {"time": 2654, "pitch": 95, "duration": 3, "velocity": 59}, {"time": 2657, "pitch": 53, "duration": 15, "velocity": 76}, {"time": 2657, "pitch": 91, "duration": 3, "velocity": 59}, {"time": 2660, "pitch": 88, "duration": 3, "velocity": 59}, {"time": 2663, "pitch": 57, "duration": 10, "velocity": 68}, {"time": 2663, "pitch": 60, "duration": 31, "velocity": 77}, {"time": 2663, "pitch": 96, "duration": 3, "velocity": 59}, {"time": 2666, "pitch": 95, "duration": 3, "velocity": 59}, {"time": 2669, "pitch": 91, "duration": 3, "velocity": 59}, {"time": 2672, "pitch": 88, "duration": 3, "velocity": 59}, {"time": 2675, "pitch": 53, "duration": 14, "velocity": 73}, {"time": 2675, "pitch": 96, "duration": 3, "velocity": 59}, {"time": 2678, "pitch": 95, "duration": 3, "velocity": 59}, {"time": 2681, "pitch": 57, "duration": 8, "velocity": 65}, {"time": 2681, "pitch": 91, "duration": 3, "velocity": 59}, {"time": 2684, "pitch": 88, "duration": 3, "velocity": 59}, {"time": 2687, "pitch": 96, "duration": 3, "velocity": 59}, {"time": 2690, "pitch": 95, "duration": 3, "velocity": 59}, {"time": 2693, "pitch": 40, "duration": 38, "velocity": 77}, {"time": 2693, "pitch": 91, "duration": 3, "velocity": 59}, {"time": 2696, "pitch": 88, "duration": 3, "velocity": 59}, {"time": 2699, "pitch": 52, "duration": 14, "velocity": 74}, {"time": 2699, "pitch": 96, "duration": 3, "velocity": 59}, {"time": 2702, "pitch": 95, "duration": 3, "velocity": 59}, {"time": 2705, "pitch": 55, "duration": 9, "velocity": 73}, {"time": 2705, "pitch": 91, "duration": 3, "velocity": 59}, {"time": 2708, "pitch": 88, "duration": 3, "velocity": 59}, {"time": 2711, "pitch": 60, "duration": 32, "velocity": 77}, {"time": 2711, "pitch": 96, "duration": 3, "velocity": 59}, {"time": 2714, "pitch": 95, "duration": 3, "velocity": 59}, {"time": 2717, "pitch": 91, "duration": 3, "velocity": 59}, {"time": 2720, "pitch": 88, "duration": 3, "velocity": 59}, {"time": 2723, "pitch": 52, "duration": 21, "velocity": 67}, {"time": 2723, "pitch": 96, "duration": 3, "velocity": 59}, {"time": 2726, "pitch": 95, "duration": 3, "velocity": 59}, {"time": 2729, "pitch": 55, "duration": 16, "velocity": 69}, {"time": 2729, "pitch": 91, "duration": 3, "velocity": 59}, {"time": 2732, "pitch": 88, "duration": 3, "velocity": 59}, {"time": 2735, "pitch": 96, "duration": 3, "velocity": 59}, {"time": 2738, "pitch": 95, "duration": 3, "velocity": 59}, {"time": 2741, "pitch": 40, "duration": 37, "velocity": 77}, {"time": 2741, "pitch": 91, "duration": 3, "velocity": 59}, {"time": 2744, "pitch": 88, "duration": 3, "velocity": 59}, {"time": 2747, "pitch": 47, "duration": 27, "velocity": 72}, {"time": 2747, "pitch": 96, "duration": 3, "velocity": 59}, {"time": 2750, "pitch": 95, "duration": 3, "velocity": 59}, {"time": 2753, "pitch": 52, "duration": 11, "velocity": 81}, {"time": 2753, "pitch": 91, "duration": 3, "velocity": 59}, {"time": 2756, "pitch": 88, "duration": 3, "velocity": 59}, {"time": 2759, "pitch": 55, "duration": 6, "velocity": 76}, {"time": 2759, "pitch": 62, "duration": 25, "velocity": 77}, {"time": 2759, "pitch": 96, "duration": 3, "velocity": 59}, {"time": 2762, "pitch": 95, "duration": 3, "velocity": 59}, {"time": 2765, "pitch": 91, "duration": 3, "velocity": 59}, {"time": 2768, "pitch": 88, "duration": 3, "velocity": 59}, {"time": 2771, "pitch": 55, "duration": 12, "velocity": 71}, {"time": 2771, "pitch": 96, "duration": 3, "velocity": 59}, {"time": 2774, "pitch": 95, "duration": 3, "velocity": 59}, {"time": 2777, "pitch": 52, "duration": 6, "velocity": 76}, {"time": 2777, "pitch": 91, "duration": 3, "velocity": 59}, {"time": 2780, "pitch": 88, "duration": 3, "velocity": 59}, {"time": 2783, "pitch": 38, "duration": 43, "velocity": 80}, {"time": 2783, "pitch": 96, "duration": 3, "velocity": 59}, {"time": 2786, "pitch": 95, "duration": 3, "velocity": 59}, {"time": 2789, "pitch": 45, "duration": 36, "velocity": 69}, {"time": 2789, "pitch": 91, "duration": 3, "velocity": 59}, {"time": 2792, "pitch": 88, "duration": 3, "velocity": 59}, {"time": 2795, "pitch": 50, "duration": 7, "velocity": 81}, {"time": 2795, "pitch": 96, "duration": 3, "velocity": 59}, {"time": 2798, "pitch": 95, "duration": 3, "velocity": 59}, {"time": 2801, "pitch": 57, "duration": 20, "velocity": 71}, {"time": 2801, "pitch": 60, "duration": 25, "velocity": 72}, {"time": 2801, "pitch": 91, "duration": 3, "velocity": 59}, {"time": 2804, "pitch": 88, "duration": 3, "velocity": 59}, {"time": 2807, "pitch": 96, "duration": 3, "velocity": 59}, {"time": 2810, "pitch": 95, "duration": 3, "velocity": 59}, {"time": 2813, "pitch": 91, "duration": 3, "velocity": 59}, {"time": 2816, "pitch": 88, "duration": 3, "velocity": 59}, {"time": 2819, "pitch": 50, "duration": 18, "velocity": 72}, {"time": 2819, "pitch": 96, "duration": 3, "velocity": 59}, {"time": 2822, "pitch": 95, "duration": 3, "velocity": 59}, {"time": 2825, "pitch": 57, "duration": 13, "velocity": 62}, {"time": 2825, "pitch": 91, "duration": 3, "velocity": 59}, {"time": 2828, "pitch": 88, "duration": 3, "velocity": 59}, {"time": 2831, "pitch": 38, "duration": 48, "velocity": 82}, {"time": 2831, "pitch": 96, "duration": 3, "velocity": 59}, {"time": 2834, "pitch": 95, "duration": 3, "velocity": 59}, {"time": 2837, "pitch": 45, "duration": 27, "velocity": 64}, {"time": 2837, "pitch": 91, "duration": 3, "velocity": 59}, {"time": 2840, "pitch": 88, "duration": 3, "velocity": 59}, {"time": 2843, "pitch": 50, "duration": 23, "velocity": 75}, {"time": 2843, "pitch": 96, "duration": 3, "velocity": 59}, {"time": 2846, "pitch": 95, "duration": 3, "velocity": 59}, {"time": 2849, "pitch": 57, "duration": 29, "velocity": 72}, {"time": 2849, "pitch": 60, "duration": 29, "velocity": 73}, {"time": 2849, "pitch": 91, "duration": 3, "velocity": 59}, {"time": 2852, "pitch": 88, "duration": 3, "velocity": 59}, {"time": 2855, "pitch": 96, "duration": 3, "velocity": 59}, {"time": 2858, "pitch": 95, "duration": 3, "velocity": 59}, {"time": 2861, "pitch": 91, "duration": 3, "velocity": 59}, {"time": 2864, "pitch": 88, "duration": 3, "velocity": 59}, {"time": 2867, "pitch": 45, "duration": 12, "velocity": 63}, {"time": 2867, "pitch": 96, "duration": 3, "velocity": 59}, {"time": 2870, "pitch": 95, "duration": 3, "velocity": 59}, {"time": 2873, "pitch": 50, "duration": 6, "velocity": 67}, {"time": 2873, "pitch": 91, "duration": 3, "velocity": 59}, {"time": 2876, "pitch": 88, "duration": 3, "velocity": 59}, {"time": 2879, "pitch": 36, "duration": 44, "velocity": 74}, {"time": 2879, "pitch": 98, "duration": 3, "velocity": 59}, {"time": 2882, "pitch": 95, "duration": 3, "velocity": 59}, {"time": 2885, "pitch": 43, "duration": 36, "velocity": 69}, {"time": 2885, "pitch": 91, "duration": 3, "velocity": 59}, {"time": 2888, "pitch": 88, "duration": 3, "velocity": 59}, {"time": 2891, "pitch": 48, "duration": 4, "velocity": 77}, {"time": 2891, "pitch": 98, "duration": 3, "velocity": 59}, {"time": 2894, "pitch": 95, "duration": 3, "velocity": 59}, {"time": 2897, "pitch": 48, "duration": 17, "velocity": 75}, {"time": 2897, "pitch": 55, "duration": 34, "velocity": 75}, {"time": 2897, "pitch": 91, "duration": 3, "velocity": 59}, {"time": 2900, "pitch": 88, "duration": 3, "velocity": 59}, {"time": 2903, "pitch": 98, "duration": 3, "velocity": 59}, {"time": 2906, "pitch": 95, "duration": 3, "velocity": 59}, {"time": 2909, "pitch": 91, "duration": 3, "velocity": 59}, {"time": 2912, "pitch": 88, "duration": 3, "velocity": 59}, {"time": 2915, "pitch": 98, "duration": 3, "velocity": 59}, {"time": 2918, "pitch": 95, "duration": 3, "velocity": 59}, {"time": 2921, "pitch": 48, "duration": 8, "velocity": 76}, {"time": 2921, "pitch": 91, "duration": 3, "velocity": 59}, {"time": 2924, "pitch": 88, "duration": 3, "velocity": 59}, {"time": 2927, "pitch": 36, "duration": 40, "velocity": 77}, {"time": 2927, "pitch": 98, "duration": 3, "velocity": 59}, {"time": 2930, "pitch": 95, "duration": 3, "velocity": 59}, {"time": 2933, "pitch": 43, "duration": 34, "velocity": 66}, {"time": 2933, "pitch": 91, "duration": 3, "velocity": 59}, {"time": 2936, "pitch": 88, "duration": 3, "velocity": 59}, {"time": 2939, "pitch": 52, "duration": 7, "velocity": 76}, {"time": 2939, "pitch": 98, "duration": 3, "velocity": 59}, {"time": 2942, "pitch": 95, "duration": 3, "velocity": 59}, {"time": 2945, "pitch": 55, "duration": 13, "velocity": 76}, {"time": 2945, "pitch": 60, "duration": 11, "velocity": 75}, {"time": 2945, "pitch": 91, "duration": 3, "velocity": 59}, {"time": 2948, "pitch": 88, "duration": 3, "velocity": 59}, {"time": 2951, "pitch": 98, "duration": 3, "velocity": 59}, {"time": 2954, "pitch": 95, "duration": 3, "velocity": 59}, {"time": 2957, "pitch": 52, "duration": 7, "velocity": 69}, {"time": 2957, "pitch": 91, "duration": 3, "velocity": 59}, {"time": 2960, "pitch": 88, "duration": 3, "velocity": 59}, {"time": 2963, "pitch": 55, "duration": 11, "velocity": 70}, {"time": 2963, "pitch": 64, "duration": 15, "velocity": 79}, {"time": 2963, "pitch": 98, "duration": 3, "velocity": 59}, {"time": 2966, "pitch": 95, "duration": 3, "velocity": 59}, {"time": 2969, "pitch": 52, "duration": 5, "velocity": 72}, {"time": 2969, "pitch": 91, "duration": 3, "velocity": 59}, {"time": 2972, "pitch": 88, "duration": 3, "velocity": 59}, {"time": 2975, "pitch": 41, "duration": 43, "velocity": 77}, {"time": 2975, "pitch": 96, "duration": 3, "velocity": 59}, {"time": 2978, "pitch": 95, "duration": 3, "velocity": 59}, {"time": 2981, "pitch": 48, "duration": 37, "velocity": 70}, {"time": 2981, "pitch": 91, "duration": 3, "velocity": 59}, {"time": 2984, "pitch": 88, "duration": 3, "velocity": 59}, {"time": 2987, "pitch": 53, "duration": 41, "velocity": 69}, {"time": 2987, "pitch": 96, "duration": 3, "velocity": 59}, {"time": 2990, "pitch": 95, "duration": 3, "velocity": 59}, {"time": 2993, "pitch": 57, "duration": 38, "velocity": 69}, {"time": 2993, "pitch": 64, "duration": 45, "velocity": 78}, {"time": 2993, "pitch": 91, "duration": 3, "velocity": 59}, {"time": 2996, "pitch": 88, "duration": 3, "velocity": 59}, {"time": 2999, "pitch": 96, "duration": 3, "velocity": 59}, {"time": 3002, "pitch": 95, "duration": 3, "velocity": 59}, {"time": 3005, "pitch": 91, "duration": 3, "velocity": 59}, {"time": 3008, "pitch": 88, "duration": 3, "velocity": 59}, {"time": 3011, "pitch": 96, "duration": 3, "velocity": 59}, {"time": 3014, "pitch": 95, "duration": 3, "velocity": 59}, {"time": 3017, "pitch": 91, "duration": 3, "velocity": 59}, {"time": 3020, "pitch": 88, "duration": 3, "velocity": 59}, {"time": 3023, "pitch": 41, "duration": 41, "velocity": 76}, {"time": 3023, "pitch": 96, "duration": 3, "velocity": 59}, {"time": 3026, "pitch": 95, "duration": 3, "velocity": 59}, {"time": 3029, "pitch": 48, "duration": 34, "velocity": 72}, {"time": 3029, "pitch": 91, "duration": 3, "velocity": 59}, {"time": 3032, "pitch": 88, "duration": 3, "velocity": 59}, {"time": 3035, "pitch": 53, "duration": 9, "velocity": 77}, {"time": 3035, "pitch": 96, "duration": 3, "velocity": 59}, {"time": 3038, "pitch": 95, "duration": 3, "velocity": 59}, {"time": 3041, "pitch": 60, "duration": 4, "velocity": 76}, {"time": 3041, "pitch": 91, "duration": 3, "velocity": 59}, {"time": 3044, "pitch": 88, "duration": 3, "velocity": 59}, {"time": 3047, "pitch": 53, "duration": 21, "velocity": 76}, {"time": 3047, "pitch": 64, "duration": 23, "velocity": 75}, {"time": 3047, "pitch": 96, "duration": 3, "velocity": 59}, {"time": 3050, "pitch": 95, "duration": 3, "velocity": 59}, {"time": 3053, "pitch": 91, "duration": 3, "velocity": 59}, {"time": 3056, "pitch": 88, "duration": 3, "velocity": 59}, {"time": 3059, "pitch": 96, "duration": 3, "velocity": 59}, {"time": 3062, "pitch": 95, "duration": 3, "velocity": 59}, {"time": 3065, "pitch": 91, "duration": 3, "velocity": 59}, {"time": 3068, "pitch": 88, "duration": 3, "velocity": 59}, {"time": 3071, "pitch": 40, "duration": 42, "velocity": 78}, {"time": 3071, "pitch": 96, "duration": 3, "velocity": 59}, {"time": 3074, "pitch": 95, "duration": 3, "velocity": 59}, {"time": 3077, "pitch": 47, "duration": 37, "velocity": 68}, {"time": 3077, "pitch": 91, "duration": 3, "velocity": 59}, {"time": 3080, "pitch": 88, "duration": 3, "velocity": 59}, {"time": 3083, "pitch": 52, "duration": 30, "velocity": 78}, {"time": 3083, "pitch": 96, "duration": 3, "velocity": 59}, {"time": 3086, "pitch": 95, "duration": 3, "velocity": 59}, {"time": 3089, "pitch": 64, "duration": 35, "velocity": 80}, {"time": 3089, "pitch": 91, "duration": 3, "velocity": 59}, {"time": 3092, "pitch": 88, "duration": 3, "velocity": 59}, {"time": 3095, "pitch": 96, "duration": 3, "velocity": 59}, {"time": 3098, "pitch": 95, "duration": 3, "velocity": 59}, {"time": 3101, "pitch": 91, "duration": 3, "velocity": 59}, {"time": 3104, "pitch": 88, "duration": 3, "velocity": 59}, {"time": 3107, "pitch": 96, "duration": 3, "velocity": 59}, {"time": 3110, "pitch": 95, "duration": 3, "velocity": 59}, {"time": 3113, "pitch": 91, "duration": 3, "velocity": 59}, {"time": 3116, "pitch": 88, "duration": 3, "velocity": 59}, {"time": 3119, "pitch": 45, "duration": 42, "velocity": 76}, {"time": 3119, "pitch": 96, "duration": 3, "velocity": 59}, {"time": 3122, "pitch": 95, "duration": 3, "velocity": 59}, {"time": 3125, "pitch": 52, "duration": 20, "velocity": 73}, {"time": 3125, "pitch": 91, "duration": 3, "velocity": 59}, {"time": 3128, "pitch": 88, "duration": 3, "velocity": 59}, {"time": 3131, "pitch": 57, "duration": 24, "velocity": 77}, {"time": 3131, "pitch": 96, "duration": 3, "velocity": 59}, {"time": 3134, "pitch": 95, "duration": 3, "velocity": 59}, {"time": 3137, "pitch": 60, "duration": 28, "velocity": 76}, {"time": 3137, "pitch": 64, "duration": 28, "velocity": 78}, {"time": 3137, "pitch": 91, "duration": 3, "velocity": 59}, {"time": 3140, "pitch": 88, "duration": 3, "velocity": 59}, {"time": 3143, "pitch": 96, "duration": 3, "velocity": 59}, {"time": 3146, "pitch": 95, "duration": 3, "velocity": 59}, {"time": 3149, "pitch": 91, "duration": 3, "velocity": 59}, {"time": 3152, "pitch": 88, "duration": 3, "velocity": 59}, {"time": 3155, "pitch": 52, "duration": 7, "velocity": 75}, {"time": 3155, "pitch": 96, "duration": 3, "velocity": 59}, {"time": 3158, "pitch": 95, "duration": 3, "velocity": 59}, {"time": 3161, "pitch": 57, "duration": 6, "velocity": 68}, {"time": 3161, "pitch": 91, "duration": 3, "velocity": 59}, {"time": 3164, "pitch": 88, "duration": 3, "velocity": 59}, {"time": 3167, "pitch": 44, "duration": 43, "velocity": 87}, {"time": 3167, "pitch": 96, "duration": 3, "velocity": 59}, {"time": 3170, "pitch": 94, "duration": 3, "velocity": 59}, {"time": 3173, "pitch": 51, "duration": 41, "velocity": 63}, {"time": 3173, "pitch": 92, "duration": 3, "velocity": 59}, {"time": 3176, "pitch": 87, "duration": 3, "velocity": 59}, {"time": 3179, "pitch": 56, "duration": 5, "velocity": 79}, {"time": 3179, "pitch": 96, "duration": 3, "velocity": 59}, {"time": 3182, "pitch": 94, "duration": 3, "velocity": 59}, {"time": 3185, "pitch": 56, "duration": 7, "velocity": 60}, {"time": 3185, "pitch": 60, "duration": 9, "velocity": 76}, {"time": 3185, "pitch": 63, "duration": 14, "velocity": 76}, {"time": 3185, "pitch": 92, "duration": 3, "velocity": 59}, {"time": 3188, "pitch": 87, "duration": 3, "velocity": 59}, {"time": 3191, "pitch": 96, "duration": 3, "velocity": 59}, {"time": 3194, "pitch": 94, "duration": 3, "velocity": 59}, {"time": 3197, "pitch": 92, "duration": 3, "velocity": 59}, {"time": 3200, "pitch": 87, "duration": 3, "velocity": 59}, {"time": 3203, "pitch": 56, "duration": 20, "velocity": 61}, {"time": 3203, "pitch": 96, "duration": 3, "velocity": 59}, {"time": 3206, "pitch": 94, "duration": 3, "velocity": 59}, {"time": 3209, "pitch": 63, "duration": 13, "velocity": 64}, {"time": 3209, "pitch": 68, "duration": 13, "velocity": 73}, {"time": 3209, "pitch": 92, "duration": 3, "velocity": 59}, {"time": 3212, "pitch": 87, "duration": 3, "velocity": 59}, {"time": 3215, "pitch": 44, "duration": 37, "velocity": 78}, {"time": 3215, "pitch": 60, "duration": 7, "velocity": 19}, {"time": 3215, "pitch": 96, "duration": 3, "velocity": 59}, {"time": 3218, "pitch": 94, "duration": 3, "velocity": 59}, {"time": 3221, "pitch": 51, "duration": 19, "velocity": 71}, {"time": 3221, "pitch": 92, "duration": 3, "velocity": 59}, {"time": 3224, "pitch": 87, "duration": 3, "velocity": 59}, {"time": 3227, "pitch": 56, "duration": 19, "velocity": 76}, {"time": 3227, "pitch": 96, "duration": 3, "velocity": 59}, {"time": 3230, "pitch": 94, "duration": 3, "velocity": 59}, {"time": 3233, "pitch": 60, "duration": 19, "velocity": 76}, {"time": 3233, "pitch": 63, "duration": 20, "velocity": 76}, {"time": 3233, "pitch": 92, "duration": 3, "velocity": 59}, {"time": 3236, "pitch": 87, "duration": 3, "velocity": 59}, {"time": 3239, "pitch": 96, "duration": 3, "velocity": 59}, {"time": 3242, "pitch": 94, "duration": 3, "velocity": 59}, {"time": 3245, "pitch": 51, "duration": 6, "velocity": 64}, {"time": 3245, "pitch": 92, "duration": 3, "velocity": 59}, {"time": 3248, "pitch": 87, "duration": 3, "velocity": 59}, {"time": 3251, "pitch": 56, "duration": 10, "velocity": 78}, {"time": 3251, "pitch": 96, "duration": 3, "velocity": 59}, {"time": 3254, "pitch": 94, "duration": 3, "velocity": 59}, {"time": 3257, "pitch": 68, "duration": 7, "velocity": 70}, {"time": 3257, "pitch": 92, "duration": 3, "velocity": 59}, {"time": 3260, "pitch": 87, "duration": 3, "velocity": 59}, {"time": 3263, "pitch": 43, "duration": 45, "velocity": 77}, {"time": 3263, "pitch": 98, "duration": 3, "velocity": 59}, {"time": 3266, "pitch": 96, "duration": 3, "velocity": 59}, {"time": 3269, "pitch": 50, "duration": 26, "velocity": 74}, {"time": 3269, "pitch": 95, "duration": 3, "velocity": 59}, {"time": 3272, "pitch": 91, "duration": 3, "velocity": 59}, {"time": 3275, "pitch": 60, "duration": 8, "velocity": 72}, {"time": 3275, "pitch": 98, "duration": 3, "velocity": 59}, {"time": 3278, "pitch": 96, "duration": 3, "velocity": 59}, {"time": 3281, "pitch": 62, "duration": 14, "velocity": 77}, {"time": 3281, "pitch": 95, "duration": 3, "velocity": 59}, {"time": 3284, "pitch": 91, "duration": 3, "velocity": 59}, {"time": 3287, "pitch": 98, "duration": 3, "velocity": 59}, {"time": 3290, "pitch": 96, "duration": 3, "velocity": 59}, {"time": 3293, "pitch": 55, "duration": 22, "velocity": 76}, {"time": 3293, "pitch": 95, "duration": 3, "velocity": 59}, {"time": 3296, "pitch": 91, "duration": 3, "velocity": 59}, {"time": 3299, "pitch": 62, "duration": 23, "velocity": 73}, {"time": 3299, "pitch": 98, "duration": 3, "velocity": 59}, {"time": 3302, "pitch": 96, "duration": 3, "velocity": 59}, {"time": 3305, "pitch": 67, "duration": 18, "velocity": 70}, {"time": 3305, "pitch": 95, "duration": 3, "velocity": 59}, {"time": 3308, "pitch": 91, "duration": 3, "velocity": 59}, {"time": 3311, "pitch": 43, "duration": 43, "velocity": 77}, {"time": 3311, "pitch": 98, "duration": 3, "velocity": 59}, {"time": 3314, "pitch": 96, "duration": 3, "velocity": 59}, {"time": 3317, "pitch": 50, "duration": 20, "velocity": 73}, {"time": 3317, "pitch": 95, "duration": 3, "velocity": 59}, {"time": 3320, "pitch": 91, "duration": 3, "velocity": 59}, {"time": 3323, "pitch": 55, "duration": 8, "velocity": 75}, {"time": 3323, "pitch": 98, "duration": 3, "velocity": 59}, {"time": 3326, "pitch": 96, "duration": 3, "velocity": 59}, {"time": 3329, "pitch": 59, "duration": 13, "velocity": 72}, {"time": 3329, "pitch": 62, "duration": 17, "velocity": 76}, {"time": 3329, "pitch": 95, "duration": 3, "velocity": 59}, {"time": 3332, "pitch": 91, "duration": 3, "velocity": 59}, {"time": 3335, "pitch": 98, "duration": 3, "velocity": 59}, {"time": 3338, "pitch": 96, "duration": 3, "velocity": 59}, {"time": 3341, "pitch": 50, "duration": 13, "velocity": 66}, {"time": 3341, "pitch": 95, "duration": 3, "velocity": 59}, {"time": 3344, "pitch": 91, "duration": 3, "velocity": 59}, {"time": 3347, "pitch": 55, "duration": 19, "velocity": 76}, {"time": 3347, "pitch": 98, "duration": 3, "velocity": 59}, {"time": 3350, "pitch": 96, "duration": 3, "velocity": 59}, {"time": 3353, "pitch": 62, "duration": 19, "velocity": 72}, {"time": 3353, "pitch": 95, "duration": 3, "velocity": 59}, {"time": 3356, "pitch": 91, "duration": 24, "velocity": 59}, {"time": 3359, "pitch": 43, "duration": 21, "velocity": 81}, {"time": 3365, "pitch": 50, "duration": 16, "velocity": 71}, {"time": 3371, "pitch": 55, "duration": 19, "velocity": 78}, {"time": 3377, "pitch": 62, "duration": 20, "velocity": 75}, {"time": 3377, "pitch": 67, "duration": 15, "velocity": 71}, {"time": 3383, "pitch": 43, "duration": 23, "velocity": 78}, {"time": 3389, "pitch": 50, "duration": 16, "velocity": 71}, {"time": 3395, "pitch": 55, "duration": 20, "velocity": 76}, {"time": 3401, "pitch": 62, "duration": 20, "velocity": 66}, {"time": 3407, "pitch": 43, "duration": 45, "velocity": 72}, {"time": 3407, "pitch": 67, "duration": 14, "velocity": 70}, {"time": 3413, "pitch": 50, "duration": 39, "velocity": 68}, {"time": 3419, "pitch": 55, "duration": 33, "velocity": 66}, {"time": 3425, "pitch": 62, "duration": 27, "velocity": 64}, {"time": 3455, "pitch": 48, "duration": 44, "velocity": 78}, {"time": 3461, "pitch": 55, "duration": 38, "velocity": 69}, {"time": 3467, "pitch": 62, "duration": 6, "velocity": 71}, {"time": 3473, "pitch": 64, "duration": 32, "velocity": 77}, {"time": 3485, "pitch": 60, "duration": 6, "velocity": 64}, {"time": 3491, "pitch": 67, "duration": 15, "velocity": 72}, {"time": 3503, "pitch": 48, "duration": 43, "velocity": 77}, {"time": 3509, "pitch": 55, "duration": 36, "velocity": 59}, {"time": 3515, "pitch": 62, "duration": 38, "velocity": 65}, {"time": 3521, "pitch": 66, "duration": 32, "velocity": 66}, {"time": 3551, "pitch": 41, "duration": 43, "velocity": 72}, {"time": 3557, "pitch": 48, "duration": 27, "velocity": 66}, {"time": 3563, "pitch": 53, "duration": 24, "velocity": 70}, {"time": 3569, "pitch": 60, "duration": 31, "velocity": 74}, {"time": 3587, "pitch": 48, "duration": 8, "velocity": 54}, {"time": 3593, "pitch": 53, "duration": 6, "velocity": 69}, {"time": 3599, "pitch": 48, "duration": 41, "velocity": 77}, {"time": 3605, "pitch": 55, "duration": 32, "velocity": 72}, {"time": 3611, "pitch": 62, "duration": 8, "velocity": 71}, {"time": 3617, "pitch": 64, "duration": 23, "velocity": 78}, {"time": 3641, "pitch": 60, "duration": 5, "velocity": 68}, {"time": 3647, "pitch": 40, "duration": 33, "velocity": 78}, {"time": 3647, "pitch": 64, "duration": 11, "velocity": 72}, {"time": 3653, "pitch": 47, "duration": 25, "velocity": 60}, {"time": 3659, "pitch": 59, "duration": 19, "velocity": 77}, {"time": 3665, "pitch": 67, "duration": 14, "velocity": 77}, {"time": 3677, "pitch": 64, "duration": 8, "velocity": 73}, {"time": 3683, "pitch": 59, "duration": 4, "velocity": 69}, {"time": 3695, "pitch": 41, "duration": 40, "velocity": 73}, {"time": 3695, "pitch": 53, "duration": 8, "velocity": 66}, {"time": 3695, "pitch": 57, "duration": 13, "velocity": 70}, {"time": 3701, "pitch": 48, "duration": 33, "velocity": 65}, {"time": 3707, "pitch": 53, "duration": 19, "velocity": 76}, {"time": 3713, "pitch": 60, "duration": 21, "velocity": 72}, {"time": 3725, "pitch": 65, "duration": 25, "velocity": 71}, {"time": 3731, "pitch": 53, "duration": 8, "velocity": 72}, {"time": 3737, "pitch": 60, "duration": 6, "velocity": 71}, {"time": 3743, "pitch": 50, "duration": 37, "velocity": 78}, {"time": 3749, "pitch": 62, "duration": 21, "velocity": 68}, {"time": 3755, "pitch": 57, "duration": 25, "velocity": 68}, {"time": 3761, "pitch": 65, "duration": 23, "velocity": 74}, {"time": 3779, "pitch": 62, "duration": 4, "velocity": 71}, {"time": 3788, "pitch": 57, "duration": 11, "velocity": 61}, {"time": 3790, "pitch": 62, "duration": 14, "velocity": 63}, {"time": 3791, "pitch": 38, "duration": 32, "velocity": 78}, {"time": 3791, "pitch": 65, "duration": 13, "velocity": 66}, {"time": 3797, "pitch": 45, "duration": 25, "velocity": 50}, {"time": 3803, "pitch": 57, "duration": 36, "velocity": 66}, {"time": 3809, "pitch": 65, "duration": 45, "velocity": 66}, {"time": 3839, "pitch": 48, "duration": 41, "velocity": 80}, {"time": 3845, "pitch": 55, "duration": 15, "velocity": 69}, {"time": 3851, "pitch": 62, "duration": 7, "velocity": 67}, {"time": 3857, "pitch": 64, "duration": 29, "velocity": 72}, {"time": 3863, "pitch": 55, "duration": 9, "velocity": 53}, {"time": 3869, "pitch": 60, "duration": 8, "velocity": 57}, {"time": 3875, "pitch": 55, "duration": 4, "velocity": 66}, {"time": 3881, "pitch": 60, "duration": 10, "velocity": 71}, {"time": 3887, "pitch": 36, "duration": 49, "velocity": 74}, {"time": 3893, "pitch": 43, "duration": 25, "velocity": 52}, {"time": 3911, "pitch": 55, "duration": 7, "velocity": 77}, {"time": 3917, "pitch": 48, "duration": 19, "velocity": 75}, {"time": 3923, "pitch": 43, "duration": 13, "velocity": 63}, {"time": 3929, "pitch": 55, "duration": 7, "velocity": 71}, {"time": 3935, "pitch": 41, "duration": 39, "velocity": 79}, {"time": 3941, "pitch": 48, "duration": 22, "velocity": 74}, {"time": 3947, "pitch": 53, "duration": 21, "velocity": 79}, {"time": 3953, "pitch": 60, "duration": 19, "velocity": 80}, {"time": 3965, "pitch": 48, "duration": 8, "velocity": 65}, {"time": 3971, "pitch": 53, "duration": 10, "velocity": 38}, {"time": 3971, "pitch": 57, "duration": 12, "velocity": 72}, {"time": 3977, "pitch": 65, "duration": 12, "velocity": 67}, {"time": 3983, "pitch": 45, "duration": 37, "velocity": 73}, {"time": 3989, "pitch": 52, "duration": 18, "velocity": 72}, {"time": 3995, "pitch": 57, "duration": 17, "velocity": 76}, {"time": 4001, "pitch": 64, "duration": 17, "velocity": 81}, {"time": 4013, "pitch": 52, "duration": 7, "velocity": 60}, {"time": 4019, "pitch": 60, "duration": 5, "velocity": 76}, {"time": 4025, "pitch": 55, "duration": 3, "velocity": 80}, {"time": 4031, "pitch": 41, "duration": 36, "velocity": 76}, {"time": 4031, "pitch": 53, "duration": 8, "velocity": 76}, {"time": 4031, "pitch": 57, "duration": 13, "velocity": 76}, {"time": 4037, "pitch": 48, "duration": 29, "velocity": 69}, {"time": 4043, "pitch": 53, "duration": 18, "velocity": 78}, {"time": 4049, "pitch": 60, "duration": 19, "velocity": 77}, {"time": 4061, "pitch": 65, "duration": 18, "velocity": 75}, {"time": 4067, "pitch": 53, "duration": 8, "velocity": 76}, {"time": 4073, "pitch": 60, "duration": 12, "velocity": 72}, {"time": 4079, "pitch": 43, "duration": 35, "velocity": 75}, {"time": 4085, "pitch": 50, "duration": 16, "velocity": 70}, {"time": 4091, "pitch": 55, "duration": 13, "velocity": 75}, {"time": 4097, "pitch": 62, "duration": 19, "velocity": 72}, {"time": 4103, "pitch": 50, "duration": 11, "velocity": 68}, {"time": 4109, "pitch": 55, "duration": 7, "velocity": 76}, {"time": 4115, "pitch": 67, "duration": 8, "velocity": 76}, {"time": 4121, "pitch": 55, "duration": 3, "velocity": 78}, {"time": 4127, "pitch": 46, "duration": 46, "velocity": 74}, {"time": 4127, "pitch": 58, "duration": 9, "velocity": 64}, {"time": 4127, "pitch": 62, "duration": 20, "velocity": 71}, {"time": 4133, "pitch": 53, "duration": 35, "velocity": 65}, {"time": 4139, "pitch": 58, "duration": 8, "velocity": 65}, {"time": 4145, "pitch": 65, "duration": 14, "velocity": 77}, {"time": 4157, "pitch": 62, "duration": 10, "velocity": 71}, {"time": 4163, "pitch": 58, "duration": 4, "velocity": 66}, {"time": 4175, "pitch": 45, "duration": 37, "velocity": 77}, {"time": 4175, "pitch": 60, "duration": 13, "velocity": 69}, {"time": 4181, "pitch": 52, "duration": 31, "velocity": 68}, {"time": 4187, "pitch": 57, "duration": 19, "velocity": 70}, {"time": 4193, "pitch": 64, "duration": 14, "velocity": 77}, {"time": 4205, "pitch": 60, "duration": 7, "velocity": 71}, {"time": 4211, "pitch": 57, "duration": 13, "velocity": 68}, {"time": 4223, "pitch": 41, "duration": 42, "velocity": 76}, {"time": 4223, "pitch": 65, "duration": 19, "velocity": 73}, {"time": 4229, "pitch": 48, "duration": 35, "velocity": 64}, {"time": 4235, "pitch": 57, "duration": 9, "velocity": 68}, {"time": 4241, "pitch": 60, "duration": 18, "velocity": 67}, {"time": 4241, "pitch": 64, "duration": 8, "velocity": 65}, {"time": 4259, "pitch": 57, "duration": 13, "velocity": 72}, {"time": 4265, "pitch": 60, "duration": 8, "velocity": 70}, {"time": 4271, "pitch": 43, "duration": 33, "velocity": 77}, {"time": 4277, "pitch": 50, "duration": 27, "velocity": 71}, {"time": 4283, "pitch": 62, "duration": 8, "velocity": 71}, {"time": 4289, "pitch": 67, "duration": 19, "velocity": 76}, {"time": 4301, "pitch": 55, "duration": 8, "velocity": 70}, {"time": 4307, "pitch": 62, "duration": 6, "velocity": 76}, {"time": 4318, "pitch": 43, "duration": 48, "velocity": 77}, {"time": 4324, "pitch": 50, "duration": 41, "velocity": 74}, {"time": 4330, "pitch": 62, "duration": 17, "velocity": 77}, {"time": 4331, "pitch": 55, "duration": 1, "velocity": 44}, {"time": 4336, "pitch": 67, "duration": 22, "velocity": 76}, {"time": 4342, "pitch": 55, "duration": 23, "velocity": 69}, {"time": 4349, "pitch": 59, "duration": 17, "velocity": 73}, {"time": 4357, "pitch": 62, "duration": 9, "velocity": 65}, {"time": 4367, "pitch": 36, "duration": 39, "velocity": 76}, {"time": 4373, "pitch": 55, "duration": 13, "velocity": 70}, {"time": 4379, "pitch": 60, "duration": 7, "velocity": 77}, {"time": 4385, "pitch": 64, "duration": 12, "velocity": 76}, {"time": 4397, "pitch": 55, "duration": 8, "velocity": 62}, {"time": 4403, "pitch": 67, "duration": 15, "velocity": 72}, {"time": 4415, "pitch": 40, "duration": 41, "velocity": 78}, {"time": 4421, "pitch": 47, "duration": 34, "velocity": 66}, {"time": 4427, "pitch": 55, "duration": 7, "velocity": 71}, {"time": 4433, "pitch": 59, "duration": 19, "velocity": 73}, {"time": 4445, "pitch": 52, "duration": 6, "velocity": 70}, {"time": 4451, "pitch": 64, "duration": 19, "velocity": 78}, {"time": 4457, "pitch": 52, "duration": 5, "velocity": 79}, {"time": 4463, "pitch": 41, "duration": 38, "velocity": 78}, {"time": 4469, "pitch": 48, "duration": 31, "velocity": 72}, {"time": 4475, "pitch": 53, "duration": 25, "velocity": 77}, {"time": 4481, "pitch": 60, "duration": 20, "velocity": 76}, {"time": 4493, "pitch": 57, "duration": 7, "velocity": 68}, {"time": 4499, "pitch": 65, "duration": 5, "velocity": 70}, {"time": 4511, "pitch": 45, "duration": 45, "velocity": 77}, {"time": 4517, "pitch": 52, "duration": 40, "velocity": 75}, {"time": 4523, "pitch": 55, "duration": 13, "velocity": 85}, {"time": 4529, "pitch": 60, "duration": 7, "velocity": 79}, {"time": 4535, "pitch": 64, "duration": 20, "velocity": 77}, {"time": 4541, "pitch": 55, "duration": 8, "velocity": 68}, {"time": 4547, "pitch": 60, "duration": 9, "velocity": 72}, {"time": 4559, "pitch": 41, "duration": 44, "velocity": 77}, {"time": 4565, "pitch": 48, "duration": 35, "velocity": 69}, {"time": 4571, "pitch": 60, "duration": 13, "velocity": 70}, {"time": 4577, "pitch": 65, "duration": 27, "velocity": 76}, {"time": 4589, "pitch": 53, "duration": 7, "velocity": 70}, {"time": 4595, "pitch": 60, "duration": 9, "velocity": 69}, {"time": 4601, "pitch": 53, "duration": 3, "velocity": 61}, {"time": 4607, "pitch": 40, "duration": 39, "velocity": 77}, {"time": 4607, "pitch": 55, "duration": 6, "velocity": 68}, {"time": 4607, "pitch": 59, "duration": 9, "velocity": 71}, {"time": 4613, "pitch": 55, "duration": 8, "velocity": 74}, {"time": 4619, "pitch": 59, "duration": 18, "velocity": 73}, {"time": 4625, "pitch": 64, "duration": 26, "velocity": 68}, {"time": 4637, "pitch": 55, "duration": 9, "velocity": 71}, {"time": 4643, "pitch": 59, "duration": 10, "velocity": 82}, {"time": 4649, "pitch": 55, "duration": 6, "velocity": 70}, {"time": 4655, "pitch": 50, "duration": 35, "velocity": 81}, {"time": 4661, "pitch": 57, "duration": 8, "velocity": 74}, {"time": 4667, "pitch": 62, "duration": 3, "velocity": 78}, {"time": 4673, "pitch": 57, "duration": 4, "velocity": 77}, {"time": 4673, "pitch": 65, "duration": 14, "velocity": 78}, {"time": 4685, "pitch": 62, "duration": 6, "velocity": 73}, {"time": 4691, "pitch": 57, "duration": 7, "velocity": 77}, {"time": 4697, "pitch": 62, "duration": 20, "velocity": 67}, {"time": 4703, "pitch": 43, "duration": 48, "velocity": 77}, {"time": 4709, "pitch": 50, "duration": 40, "velocity": 77}, {"time": 4715, "pitch": 55, "duration": 13, "velocity": 77}, {"time": 4721, "pitch": 62, "duration": 9, "velocity": 73}, {"time": 4727, "pitch": 67, "duration": 25, "velocity": 75}, {"time": 4733, "pitch": 55, "duration": 8, "velocity": 71}, {"time": 4739, "pitch": 62, "duration": 12, "velocity": 69}, {"time": 4745, "pitch": 55, "duration": 5, "velocity": 61}, {"time": 4751, "pitch": 36, "duration": 39, "velocity": 76}, {"time": 4757, "pitch": 55, "duration": 13, "velocity": 70}, {"time": 4763, "pitch": 60, "duration": 7, "velocity": 77}, {"time": 4769, "pitch": 64, "duration": 12, "velocity": 76}, {"time": 4781, "pitch": 55, "duration": 8, "velocity": 62}, {"time": 4787, "pitch": 67, "duration": 15, "velocity": 72}, {"time": 4799, "pitch": 40, "duration": 41, "velocity": 78}, {"time": 4805, "pitch": 47, "duration": 34, "velocity": 66}, {"time": 4811, "pitch": 55, "duration": 7, "velocity": 71}, {"time": 4817, "pitch": 59, "duration": 19, "velocity": 73}, {"time": 4829, "pitch": 52, "duration": 6, "velocity": 70}, {"time": 4835, "pitch": 64, "duration": 19, "velocity": 78}, {"time": 4841, "pitch": 52, "duration": 5, "velocity": 79}, {"time": 4847, "pitch": 41, "duration": 38, "velocity": 78}, {"time": 4853, "pitch": 48, "duration": 31, "velocity": 72}, {"time": 4859, "pitch": 53, "duration": 25, "velocity": 77}, {"time": 4865, "pitch": 60, "duration": 20, "velocity": 76}, {"time": 4877, "pitch": 57, "duration": 7, "velocity": 68}, {"time": 4883, "pitch": 65, "duration": 5, "velocity": 70}, {"time": 4895, "pitch": 45, "duration": 45, "velocity": 77}, {"time": 4901, "pitch": 52, "duration": 40, "velocity": 75}, {"time": 4907, "pitch": 55, "duration": 13, "velocity": 85}, {"time": 4913, "pitch": 60, "duration": 7, "velocity": 79}, {"time": 4919, "pitch": 64, "duration": 20, "velocity": 77}, {"time": 4925, "pitch": 55, "duration": 8, "velocity": 68}, {"time": 4931, "pitch": 60, "duration": 9, "velocity": 72}, {"time": 4943, "pitch": 41, "duration": 44, "velocity": 77}, {"time": 4949, "pitch": 48, "duration": 35, "velocity": 69}, {"time": 4955, "pitch": 60, "duration": 13, "velocity": 70}, {"time": 4961, "pitch": 65, "duration": 27, "velocity": 76}, {"time": 4973, "pitch": 53, "duration": 7, "velocity": 70}, {"time": 4979, "pitch": 60, "duration": 9, "velocity": 69}, {"time": 4985, "pitch": 53, "duration": 3, "velocity": 61}, {"time": 4991, "pitch": 40, "duration": 39, "velocity": 77}, {"time": 4991, "pitch": 55, "duration": 6, "velocity": 68}, {"time": 4991, "pitch": 59, "duration": 9, "velocity": 71}, {"time": 4997, "pitch": 55, "duration": 8, "velocity": 74}, {"time": 5003, "pitch": 59, "duration": 18, "velocity": 73}, {"time": 5009, "pitch": 64, "duration": 26, "velocity": 68}, {"time": 5021, "pitch": 55, "duration": 9, "velocity": 71}, {"time": 5027, "pitch": 59, "duration": 10, "velocity": 82}, {"time": 5033, "pitch": 55, "duration": 6, "velocity": 70}, {"time": 5039, "pitch": 50, "duration": 35, "velocity": 81}, {"time": 5045, "pitch": 57, "duration": 8, "velocity": 74}, {"time": 5051, "pitch": 62, "duration": 3, "velocity": 78}, {"time": 5057, "pitch": 57, "duration": 4, "velocity": 77}, {"time": 5057, "pitch": 65, "duration": 14, "velocity": 78}, {"time": 5069, "pitch": 62, "duration": 6, "velocity": 73}, {"time": 5075, "pitch": 57, "duration": 7, "velocity": 77}, {"time": 5081, "pitch": 62, "duration": 20, "velocity": 67}, {"time": 5087, "pitch": 43, "duration": 48, "velocity": 77}, {"time": 5093, "pitch": 50, "duration": 40, "velocity": 77}, {"time": 5099, "pitch": 55, "duration": 13, "velocity": 77}, {"time": 5105, "pitch": 62, "duration": 9, "velocity": 73}, {"time": 5111, "pitch": 67, "duration": 25, "velocity": 75}, {"time": 5117, "pitch": 55, "duration": 8, "velocity": 71}, {"time": 5123, "pitch": 62, "duration": 12, "velocity": 69}, {"time": 5129, "pitch": 55, "duration": 5, "velocity": 61}, {"time": 5135, "pitch": 43, "duration": 24, "velocity": 60}, {"time": 5135, "pitch": 55, "duration": 22, "velocity": 64}, {"time": 5135, "pitch": 59, "duration": 22, "velocity": 66}, {"time": 5158, "pitch": 54, "duration": 42, "velocity": 70}, {"time": 5164, "pitch": 60, "duration": 36, "velocity": 71}, {"time": 5170, "pitch": 62, "duration": 30, "velocity": 75}, {"time": 5175, "pitch": 69, "duration": 25, "velocity": 76}, {"time": 5203, "pitch": 53, "duration": 41, "velocity": 78}, {"time": 5209, "pitch": 60, "duration": 7, "velocity": 73}, {"time": 5215, "pitch": 62, "duration": 29, "velocity": 72}, {"time": 5220, "pitch": 67, "duration": 24, "velocity": 76}, {"time": 5248, "pitch": 52, "duration": 45, "velocity": 80}, {"time": 5253, "pitch": 55, "duration": 17, "velocity": 76}, {"time": 5258, "pitch": 62, "duration": 7, "velocity": 72}, {"time": 5263, "pitch": 67, "duration": 29, "velocity": 76}, {"time": 5269, "pitch": 62, "duration": 7, "velocity": 72}, {"time": 5274, "pitch": 55, "duration": 9, "velocity": 70}, {"time": 5280, "pitch": 62, "duration": 12, "velocity": 74}, {"time": 5286, "pitch": 55, "duration": 6, "velocity": 70}, {"time": 5290, "pitch": 45, "duration": 21, "velocity": 77}, {"time": 5296, "pitch": 52, "duration": 15, "velocity": 69}, {"time": 5301, "pitch": 62, "duration": 7, "velocity": 71}, {"time": 5307, "pitch": 64, "duration": 9, "velocity": 72}, {"time": 5314, "pitch": 45, "duration": 45, "velocity": 73}, {"time": 5314, "pitch": 57, "duration": 45, "velocity": 63}, {"time": 5317, "pitch": 61, "duration": 42, "velocity": 67}, {"time": 5317, "pitch": 52, "duration": 41, "velocity": 67}, {"time": 5357, "pitch": 38, "duration": 37, "velocity": 82}, {"time": 5363, "pitch": 45, "duration": 29, "velocity": 65}, {"time": 5366, "pitch": 50, "duration": 29, "velocity": 70}, {"time": 5370, "pitch": 53, "duration": 27, "velocity": 73}, {"time": 5375, "pitch": 62, "duration": 29, "velocity": 78}, {"time": 5416, "pitch": 43, "duration": 83, "velocity": 70}, {"time": 5419, "pitch": 50, "duration": 80, "velocity": 66}, {"time": 5421, "pitch": 55, "duration": 77, "velocity": 63}, {"time": 5425, "pitch": 67, "duration": 73, "velocity": 64}, {"time": 5509, "pitch": 48, "duration": 55, "velocity": 77}, {"time": 5515, "pitch": 55, "duration": 32, "velocity": 71}, {"time": 5521, "pitch": 62, "duration": 9, "velocity": 67}, {"time": 5528, "pitch": 64, "duration": 9, "velocity": 75}, {"time": 5536, "pitch": 67, "duration": 25, "velocity": 70}, {"time": 5543, "pitch": 60, "duration": 24, "velocity": 66}, {"time": 5551, "pitch": 55, "duration": 15, "velocity": 70}, {"time": 5560, "pitch": 62, "duration": 15, "velocity": 69}, {"time": 5569, "pitch": 48, "duration": 53, "velocity": 72}, {"time": 5573, "pitch": 55, "duration": 50, "velocity": 63}, {"time": 5576, "pitch": 60, "duration": 2, "velocity": 56}, {"time": 5577, "pitch": 62, "duration": 13, "velocity": 68}, {"time": 5588, "pitch": 64, "duration": 7, "velocity": 70}, {"time": 5634, "pitch": 41, "duration": 87, "velocity": 76}, {"time": 5638, "pitch": 48, "duration": 23, "velocity": 63}, {"time": 5643, "pitch": 55, "duration": 14, "velocity": 62}, {"time": 5664, "pitch": 48, "duration": 55, "velocity": 61}, {"time": 5667, "pitch": 53, "duration": 14, "velocity": 58}, {"time": 5668, "pitch": 56, "duration": 17, "velocity": 54}, {"time": 5688, "pitch": 53, "duration": 4, "velocity": 50}, {"time": 5690, "pitch": 56, "duration": 3, "velocity": 59}, {"time": 5692, "pitch": 60, "duration": 5, "velocity": 72}, {"time": 5699, "pitch": 62, "duration": 5, "velocity": 70}, {"time": 5707, "pitch": 64, "duration": 15, "velocity": 61}, {"time": 5739, "pitch": 36, "duration": 71, "velocity": 71}, {"time": 5744, "pitch": 43, "duration": 65, "velocity": 61}, {"time": 5749, "pitch": 67, "duration": 5, "velocity": 61}, {"time": 5755, "pitch": 62, "duration": 5, "velocity": 63}, {"time": 5762, "pitch": 64, "duration": 5, "velocity": 64}, {"time": 5769, "pitch": 60, "duration": 10, "velocity": 49}, {"time": 5781, "pitch": 62, "duration": 6, "velocity": 61}, {"time": 5794, "pitch": 55, "duration": 16, "velocity": 49}], "annotations": [{"time": 43, "annotation": {"number": 64, "value": 127}, "group": "control_change"}, {"time": 43, "annotation": {"number": 64, "value": 0}, "group": "control_change"}, {"time": 44, "annotation": {"number": 64, "value": 127}, "group": "control_change"}, {"time": 45, "annotation": {"number": 64, "value": 0}, "group": "control_change"}, {"time": 45, "annotation": {"number": 64, "value": 127}, "group": "control_change"}, {"time": 95, "annotation": {"number": 64, "value": 0}, "group": "control_change"}, {"time": 292, "annotation": {"number": 64, "value": 127}, "group": "control_change"}, {"time": 292, "annotation": {"number": 64, "value": 0}, "group": "control_change"}, {"time": 293, "annotation": {"number": 64, "value": 127}, "group": "control_change"}, {"time": 316, "annotation": {"number": 64, "value": 0}, "group": "control_change"}, {"time": 335, "annotation": {"number": 64, "value": 127}, "group": "control_change"}, {"time": 374, "annotation": {"number": 64, "value": 0}, "group": "control_change"}, {"time": 375, "annotation": {"number": 64, "value": 127}, "group": "control_change"}, {"time": 392, "annotation": {"number": 64, "value": 0}, "group": "control_change"}, {"time": 399, "annotation": {"number": 64, "value": 127}, "group": "control_change"}, {"time": 416, "annotation": {"number": 64, "value": 0}, "group": "control_change"}, {"time": 424, "annotation": {"number": 64, "value": 127}, "group": "control_change"}, {"time": 464, "annotation": {"number": 64, "value": 0}, "group": "control_change"}, {"time": 477, "annotation": {"number": 64, "value": 127}, "group": "control_change"}, {"time": 512, "annotation": {"number": 64, "value": 0}, "group": "control_change"}, {"time": 516, "annotation": {"number": 64, "value": 127}, "group": "control_change"}, {"time": 560, "annotation": {"number": 64, "value": 0}, "group": "control_change"}, {"time": 564, "annotation": {"number": 64, "value": 127}, "group": "control_change"}, {"time": 564, "annotation": {"number": 64, "value": 0}, "group": "control_change"}, {"time": 610, "annotation": {"number": 64, "value": 0}, "group": "control_change"}, {"time": 615, "annotation": {"number": 64, "value": 127}, "group": "control_change"}, {"time": 658, "annotation": {"number": 64, "value": 0}, "group": "control_change"}, {"time": 666, "annotation": {"number": 64, "value": 127}, "group": "control_change"}, {"time": 705, "annotation": {"number": 64, "value": 0}, "group": "control_change"}, {"time": 710, "annotation": {"number": 64, "value": 127}, "group": "control_change"}, {"time": 753, "annotation": {"number": 64, "value": 0}, "group": "control_change"}, {"time": 758, "annotation": {"number": 64, "value": 127}, "group": "control_change"}, {"time": 827, "annotation": {"number": 64, "value": 127}, "group": "control_change"}, {"time": 827, "annotation": {"number": 64, "value": 0}, "group": "control_change"}, {"time": 828, "annotation": {"number": 64, "value": 0}, "group": "control_change"}, {"time": 829, "annotation": {"number": 64, "value": 127}, "group": "control_change"}, {"time": 848, "annotation": {"number": 64, "value": 0}, "group": "control_change"}, {"time": 853, "annotation": {"number": 64, "value": 127}, "group": "control_change"}, {"time": 893, "annotation": {"number": 64, "value": 0}, "group": "control_change"}, {"time": 904, "annotation": {"number": 64, "value": 127}, "group": "control_change"}, {"time": 944, "annotation": {"number": 64, "value": 0}, "group": "control_change"}, {"time": 957, "annotation": {"number": 64, "value": 127}, "group": "control_change"}, {"time": 992, "annotation": {"number": 64, "value": 0}, "group": "control_change"}, {"time": 996, "annotation": {"number": 64, "value": 127}, "group": "control_change"}, {"time": 1040, "annotation": {"number": 64, "value": 0}, "group": "control_change"}, {"time": 1044, "annotation": {"number": 64, "value": 127}, "group": "control_change"}, {"time": 1044, "annotation": {"number": 64, "value": 0}, "group": "control_change"}, {"time": 1090, "annotation": {"number": 64, "value": 0}, "group": "control_change"}, {"time": 1095, "annotation": {"number": 64, "value": 127}, "group": "control_change"}, {"time": 1138, "annotation": {"number": 64, "value": 0}, "group": "control_change"}, {"time": 1146, "annotation": {"number": 64, "value": 127}, "group": "control_change"}, {"time": 1185, "annotation": {"number": 64, "value": 0}, "group": "control_change"}, {"time": 1190, "annotation": {"number": 64, "value": 127}, "group": "control_change"}, {"time": 1233, "annotation": {"number": 64, "value": 0}, "group": "control_change"}, {"time": 1238, "annotation": {"number": 64, "value": 127}, "group": "control_change"}, {"time": 1287, "annotation": {"number": 64, "value": 127}, "group": "control_change"}, {"time": 1287, "annotation": {"number": 64, "value": 0}, "group": "control_change"}, {"time": 1288, "annotation": {"number": 64, "value": 0}, "group": "control_change"}, {"time": 1288, "annotation": {"number": 64, "value": 127}, "group": "control_change"}, {"time": 1329, "annotation": {"number": 64, "value": 0}, "group": "control_change"}, {"time": 1332, "annotation": {"number": 64, "value": 127}, "group": "control_change"}, {"time": 1374, "annotation": {"number": 64, "value": 0}, "group": "control_change"}, {"time": 1387, "annotation": {"number": 64, "value": 127}, "group": "control_change"}, {"time": 1425, "annotation": {"number": 64, "value": 0}, "group": "control_change"}, {"time": 1431, "annotation": {"number": 64, "value": 127}, "group": "control_change"}, {"time": 1474, "annotation": {"number": 64, "value": 0}, "group": "control_change"}, {"time": 1484, "annotation": {"number": 64, "value": 127}, "group": "control_change"}, {"time": 1519, "annotation": {"number": 64, "value": 0}, "group": "control_change"}, {"time": 1527, "annotation": {"number": 64, "value": 127}, "group": "control_change"}, {"time": 1569, "annotation": {"number": 64, "value": 0}, "group": "control_change"}, {"time": 1578, "annotation": {"number": 64, "value": 127}, "group": "control_change"}, {"time": 1619, "annotation": {"number": 64, "value": 0}, "group": "control_change"}, {"time": 1628, "annotation": {"number": 64, "value": 127}, "group": "control_change"}, {"time": 1667, "annotation": {"number": 64, "value": 0}, "group": "control_change"}, {"time": 1672, "annotation": {"number": 64, "value": 127}, "group": "control_change"}, {"time": 1712, "annotation": {"number": 64, "value": 0}, "group": "control_change"}, {"time": 1717, "annotation": {"number": 64, "value": 127}, "group": "control_change"}, {"time": 1762, "annotation": {"number": 64, "value": 0}, "group": "control_change"}, {"time": 1765, "annotation": {"number": 64, "value": 127}, "group": "control_change"}, {"time": 1817, "annotation": {"number": 64, "value": 0}, "group": "control_change"}, {"time": 1826, "annotation": {"number": 64, "value": 127}, "group": "control_change"}, {"time": 1826, "annotation": {"number": 64, "value": 0}, "group": "control_change"}, {"time": 1868, "annotation": {"number": 64, "value": 0}, "group": "control_change"}, {"time": 1872, "annotation": {"number": 64, "value": 127}, "group": "control_change"}, {"time": 1914, "annotation": {"number": 64, "value": 0}, "group": "control_change"}, {"time": 1922, "annotation": {"number": 64, "value": 127}, "group": "control_change"}, {"time": 1965, "annotation": {"number": 64, "value": 0}, "group": "control_change"}, {"time": 1969, "annotation": {"number": 64, "value": 127}, "group": "control_change"}, {"time": 2013, "annotation": {"number": 64, "value": 0}, "group": "control_change"}, {"time": 2017, "annotation": {"number": 64, "value": 127}, "group": "control_change"}, {"time": 2062, "annotation": {"number": 64, "value": 0}, "group": "control_change"}, {"time": 2067, "annotation": {"number": 64, "value": 127}, "group": "control_change"}, {"time": 2110, "annotation": {"number": 64, "value": 0}, "group": "control_change"}, {"time": 2113, "annotation": {"number": 64, "value": 127}, "group": "control_change"}, {"time": 2155, "annotation": {"number": 64, "value": 0}, "group": "control_change"}, {"time": 2163, "annotation": {"number": 64, "value": 127}, "group": "control_change"}, {"time": 2203, "annotation": {"number": 64, "value": 0}, "group": "control_change"}, {"time": 2210, "annotation": {"number": 64, "value": 127}, "group": "control_change"}, {"time": 2210, "annotation": {"number": 64, "value": 0}, "group": "control_change"}, {"time": 2252, "annotation": {"number": 64, "value": 0}, "group": "control_change"}, {"time": 2256, "annotation": {"number": 64, "value": 127}, "group": "control_change"}, {"time": 2298, "annotation": {"number": 64, "value": 0}, "group": "control_change"}, {"time": 2306, "annotation": {"number": 64, "value": 127}, "group": "control_change"}, {"time": 2349, "annotation": {"number": 64, "value": 0}, "group": "control_change"}, {"time": 2353, "annotation": {"number": 64, "value": 127}, "group": "control_change"}, {"time": 2397, "annotation": {"number": 64, "value": 0}, "group": "control_change"}, {"time": 2401, "annotation": {"number": 64, "value": 127}, "group": "control_change"}, {"time": 2446, "annotation": {"number": 64, "value": 0}, "group": "control_change"}, {"time": 2451, "annotation": {"number": 64, "value": 127}, "group": "control_change"}, {"time": 2494, "annotation": {"number": 64, "value": 0}, "group": "control_change"}, {"time": 2497, "annotation": {"number": 64, "value": 127}, "group": "control_change"}, {"time": 2539, "annotation": {"number": 64, "value": 0}, "group": "control_change"}, {"time": 2547, "annotation": {"number": 64, "value": 127}, "group": "control_change"}, {"time": 2587, "annotation": {"number": 64, "value": 0}, "group": "control_change"}, {"time": 2602, "annotation": {"number": 64, "value": 127}, "group": "control_change"}, {"time": 2602, "annotation": {"number": 64, "value": 0}, "group": "control_change"}, {"time": 2650, "annotation": {"number": 64, "value": 0}, "group": "control_change"}, {"time": 2652, "annotation": {"number": 64, "value": 127}, "group": "control_change"}, {"time": 2692, "annotation": {"number": 64, "value": 0}, "group": "control_change"}, {"time": 2696, "annotation": {"number": 64, "value": 127}, "group": "control_change"}, {"time": 2758, "annotation": {"number": 64, "value": 0}, "group": "control_change"}, {"time": 2759, "annotation": {"number": 64, "value": 127}, "group": "control_change"}, {"time": 2781, "annotation": {"number": 64, "value": 0}, "group": "control_change"}, {"time": 2794, "annotation": {"number": 64, "value": 127}, "group": "control_change"}, {"time": 2831, "annotation": {"number": 64, "value": 0}, "group": "control_change"}, {"time": 2837, "annotation": {"number": 64, "value": 127}, "group": "control_change"}, {"time": 2875, "annotation": {"number": 64, "value": 0}, "group": "control_change"}, {"time": 2882, "annotation": {"number": 64, "value": 127}, "group": "control_change"}, {"time": 2928, "annotation": {"number": 64, "value": 0}, "group": "control_change"}, {"time": 2930, "annotation": {"number": 64, "value": 127}, "group": "control_change"}, {"time": 2973, "annotation": {"number": 64, "value": 0}, "group": "control_change"}, {"time": 2979, "annotation": {"number": 64, "value": 127}, "group": "control_change"}, {"time": 3025, "annotation": {"number": 64, "value": 0}, "group": "control_change"}, {"time": 3028, "annotation": {"number": 64, "value": 127}, "group": "control_change"}, {"time": 3071, "annotation": {"number": 64, "value": 0}, "group": "control_change"}, {"time": 3075, "annotation": {"number": 64, "value": 127}, "group": "control_change"}, {"time": 3118, "annotation": {"number": 64, "value": 0}, "group": "control_change"}, {"time": 3122, "annotation": {"number": 64, "value": 127}, "group": "control_change"}, {"time": 3165, "annotation": {"number": 64, "value": 0}, "group": "control_change"}, {"time": 3170, "annotation": {"number": 64, "value": 127}, "group": "control_change"}, {"time": 3170, "annotation": {"number": 64, "value": 0}, "group": "control_change"}, {"time": 3214, "annotation": {"number": 64, "value": 0}, "group": "control_change"}, {"time": 3217, "annotation": {"number": 64, "value": 127}, "group": "control_change"}, {"time": 3260, "annotation": {"number": 64, "value": 0}, "group": "control_change"}, {"time": 3264, "annotation": {"number": 64, "value": 127}, "group": "control_change"}, {"time": 3309, "annotation": {"number": 64, "value": 0}, "group": "control_change"}, {"time": 3314, "annotation": {"number": 64, "value": 127}, "group": "control_change"}, {"time": 3357, "annotation": {"number": 64, "value": 0}, "group": "control_change"}, {"time": 3362, "annotation": {"number": 64, "value": 127}, "group": "control_change"}, {"time": 3363, "annotation": {"number": 64, "value": 0}, "group": "control_change"}, {"time": 3363, "annotation": {"number": 64, "value": 127}, "group": "control_change"}, {"time": 3445, "annotation": {"number": 64, "value": 0}, "group": "control_change"}, {"time": 3460, "annotation": {"number": 64, "value": 127}, "group": "control_change"}, {"time": 3500, "annotation": {"number": 64, "value": 0}, "group": "control_change"}, {"time": 3513, "annotation": {"number": 64, "value": 127}, "group": "control_change"}, {"time": 3548, "annotation": {"number": 64, "value": 0}, "group": "control_change"}, {"time": 3552, "annotation": {"number": 64, "value": 127}, "group": "control_change"}, {"time": 3596, "annotation": {"number": 64, "value": 0}, "group": "control_change"}, {"time": 3600, "annotation": {"number": 64, "value": 127}, "group": "control_change"}, {"time": 3600, "annotation": {"number": 64, "value": 0}, "group": "control_change"}, {"time": 3646, "annotation": {"number": 64, "value": 0}, "group": "control_change"}, {"time": 3651, "annotation": {"number": 64, "value": 127}, "group": "control_change"}, {"time": 3694, "annotation": {"number": 64, "value": 0}, "group": "control_change"}, {"time": 3702, "annotation": {"number": 64, "value": 127}, "group": "control_change"}, {"time": 3741, "annotation": {"number": 64, "value": 0}, "group": "control_change"}, {"time": 3746, "annotation": {"number": 64, "value": 127}, "group": "control_change"}, {"time": 3789, "annotation": {"number": 64, "value": 0}, "group": "control_change"}, {"time": 3794, "annotation": {"number": 64, "value": 127}, "group": "control_change"}, {"time": 3843, "annotation": {"number": 64, "value": 127}, "group": "control_change"}, {"time": 3843, "annotation": {"number": 64, "value": 0}, "group": "control_change"}, {"time": 3844, "annotation": {"number": 64, "value": 0}, "group": "control_change"}, {"time": 3844, "annotation": {"number": 64, "value": 127}, "group": "control_change"}, {"time": 3885, "annotation": {"number": 64, "value": 0}, "group": "control_change"}, {"time": 3888, "annotation": {"number": 64, "value": 127}, "group": "control_change"}, {"time": 3930, "annotation": {"number": 64, "value": 0}, "group": "control_change"}, {"time": 3943, "annotation": {"number": 64, "value": 127}, "group": "control_change"}, {"time": 3981, "annotation": {"number": 64, "value": 0}, "group": "control_change"}, {"time": 3987, "annotation": {"number": 64, "value": 127}, "group": "control_change"}, {"time": 4030, "annotation": {"number": 64, "value": 0}, "group": "control_change"}, {"time": 4040, "annotation": {"number": 64, "value": 127}, "group": "control_change"}, {"time": 4075, "annotation": {"number": 64, "value": 0}, "group": "control_change"}, {"time": 4083, "annotation": {"number": 64, "value": 127}, "group": "control_change"}, {"time": 4125, "annotation": {"number": 64, "value": 0}, "group": "control_change"}, {"time": 4134, "annotation": {"number": 64, "value": 127}, "group": "control_change"}, {"time": 4175, "annotation": {"number": 64, "value": 0}, "group": "control_change"}, {"time": 4184, "annotation": {"number": 64, "value": 127}, "group": "control_change"}, {"time": 4223, "annotation": {"number": 64, "value": 0}, "group": "control_change"}, {"time": 4228, "annotation": {"number": 64, "value": 127}, "group": "control_change"}, {"time": 4268, "annotation": {"number": 64, "value": 0}, "group": "control_change"}, {"time": 4273, "annotation": {"number": 64, "value": 127}, "group": "control_change"}, {"time": 4318, "annotation": {"number": 64, "value": 0}, "group": "control_change"}, {"time": 4321, "annotation": {"number": 64, "value": 127}, "group": "control_change"}, {"time": 4370, "annotation": {"number": 64, "value": 127}, "group": "control_change"}, {"time": 4370, "annotation": {"number": 64, "value": 0}, "group": "control_change"}, {"time": 4412, "annotation": {"number": 64, "value": 0}, "group": "control_change"}, {"time": 4416, "annotation": {"number": 64, "value": 127}, "group": "control_change"}, {"time": 4458, "annotation": {"number": 64, "value": 0}, "group": "control_change"}, {"time": 4466, "annotation": {"number": 64, "value": 127}, "group": "control_change"}, {"time": 4509, "annotation": {"number": 64, "value": 0}, "group": "control_change"}, {"time": 4513, "annotation": {"number": 64, "value": 127}, "group": "control_change"}, {"time": 4557, "annotation": {"number": 64, "value": 0}, "group": "control_change"}, {"time": 4561, "annotation": {"number": 64, "value": 127}, "group": "control_change"}, {"time": 4606, "annotation": {"number": 64, "value": 0}, "group": "control_change"}, {"time": 4611, "annotation": {"number": 64, "value": 127}, "group": "control_change"}, {"time": 4654, "annotation": {"number": 64, "value": 0}, "group": "control_change"}, {"time": 4657, "annotation": {"number": 64, "value": 127}, "group": "control_change"}, {"time": 4699, "annotation": {"number": 64, "value": 0}, "group": "control_change"}, {"time": 4707, "annotation": {"number": 64, "value": 127}, "group": "control_change"}, {"time": 4747, "annotation": {"number": 64, "value": 0}, "group": "control_change"}, {"time": 4754, "annotation": {"number": 64, "value": 127}, "group": "control_change"}, {"time": 4754, "annotation": {"number": 64, "value": 0}, "group": "control_change"}, {"time": 4796, "annotation": {"number": 64, "value": 0}, "group": "control_change"}, {"time": 4800, "annotation": {"number": 64, "value": 127}, "group": "control_change"}, {"time": 4842, "annotation": {"number": 64, "value": 0}, "group": "control_change"}, {"time": 4850, "annotation": {"number": 64, "value": 127}, "group": "control_change"}, {"time": 4893, "annotation": {"number": 64, "value": 0}, "group": "control_change"}, {"time": 4897, "annotation": {"number": 64, "value": 127}, "group": "control_change"}, {"time": 4941, "annotation": {"number": 64, "value": 0}, "group": "control_change"}, {"time": 4945, "annotation": {"number": 64, "value": 127}, "group": "control_change"}, {"time": 4990, "annotation": {"number": 64, "value": 0}, "group": "control_change"}, {"time": 4995, "annotation": {"number": 64, "value": 127}, "group": "control_change"}, {"time": 5038, "annotation": {"number": 64, "value": 0}, "group": "control_change"}, {"time": 5041, "annotation": {"number": 64, "value": 127}, "group": "control_change"}, {"time": 5083, "annotation": {"number": 64, "value": 0}, "group": "control_change"}, {"time": 5091, "annotation": {"number": 64, "value": 127}, "group": "control_change"}, {"time": 5131, "annotation": {"number": 64, "value": 0}, "group": "control_change"}, {"time": 5303, "annotation": {"number": 64, "value": 127}, "group": "control_change"}, {"time": 5303, "annotation": {"number": 64, "value": 0}, "group": "control_change"}, {"time": 5313, "annotation": {"number": 64, "value": 0}, "group": "control_change"}, {"time": 5363, "annotation": {"number": 64, "value": 127}, "group": "control_change"}, {"time": 5364, "annotation": {"number": 64, "value": 0}, "group": "control_change"}, {"time": 5364, "annotation": {"number": 64, "value": 127}, "group": "control_change"}, {"time": 5416, "annotation": {"number": 64, "value": 0}, "group": "control_change"}, {"time": 5527, "annotation": {"number": 64, "value": 127}, "group": "control_change"}, {"time": 5527, "annotation": {"number": 64, "value": 0}, "group": "control_change"}, {"time": 5573, "annotation": {"number": 64, "value": 0}, "group": "control_change"}, {"time": 5576, "annotation": {"number": 64, "value": 127}, "group": "control_change"}, {"time": 5636, "annotation": {"number": 64, "value": 0}, "group": "control_change"}, {"time": 5642, "annotation": {"number": 64, "value": 127}, "group": "control_change"}, {"time": 5742, "annotation": {"number": 64, "value": 0}, "group": "control_change"}, {"time": 5746, "annotation": {"number": 64, "value": 127}, "group": "control_change"}, {"time": 5746, "annotation": {"number": 64, "value": 0}, "group": "control_change"}, {"time": 5844, "annotation": {"number": 64, "value": 0}, "group": "control_change"}]}]}