{"metadata": {"schema_version": "0.2", "title": "None", "source_filename": "549.mid", "source_format": "midi"}, "resolution": 12, "tempos": [{"time": 0, "qpm": 69.00009660013524}], "key_signatures": [{"time": 0, "root": 0, "mode": "major"}], "time_signatures": [{"time": 0, "numerator": 4, "denominator": 4}], "tracks": [{"program": 4, "is_drum": false, "name": "MELODY", "notes": [{"time": 442, "pitch": 68, "duration": 11, "velocity": 116}, {"time": 454, "pitch": 70, "duration": 14, "velocity": 116}, {"time": 466, "pitch": 72, "duration": 5, "velocity": 116}, {"time": 472, "pitch": 72, "duration": 3, "velocity": 108}, {"time": 475, "pitch": 72, "duration": 3, "velocity": 108}, {"time": 478, "pitch": 72, "duration": 5, "velocity": 110}, {"time": 484, "pitch": 70, "duration": 5, "velocity": 108}, {"time": 490, "pitch": 72, "duration": 5, "velocity": 110}, {"time": 496, "pitch": 75, "duration": 5, "velocity": 110}, {"time": 499, "pitch": 72, "duration": 6, "velocity": 108}, {"time": 508, "pitch": 72, "duration": 5, "velocity": 108}, {"time": 511, "pitch": 75, "duration": 4, "velocity": 94}, {"time": 514, "pitch": 77, "duration": 5, "velocity": 107}, {"time": 520, "pitch": 77, "duration": 5, "velocity": 108}, {"time": 526, "pitch": 77, "duration": 5, "velocity": 108}, {"time": 532, "pitch": 79, "duration": 5, "velocity": 107}, {"time": 538, "pitch": 75, "duration": 8, "velocity": 91}, {"time": 544, "pitch": 72, "duration": 7, "velocity": 102}, {"time": 556, "pitch": 72, "duration": 5, "velocity": 107}, {"time": 559, "pitch": 70, "duration": 5, "velocity": 91}, {"time": 562, "pitch": 68, "duration": 6, "velocity": 94}, {"time": 568, "pitch": 68, "duration": 1, "velocity": 89}, {"time": 571, "pitch": 68, "duration": 2, "velocity": 88}, {"time": 574, "pitch": 68, "duration": 3, "velocity": 94}, {"time": 580, "pitch": 65, "duration": 7, "velocity": 96}, {"time": 586, "pitch": 72, "duration": 8, "velocity": 104}, {"time": 592, "pitch": 75, "duration": 6, "velocity": 94}, {"time": 595, "pitch": 68, "duration": 8, "velocity": 91}, {"time": 610, "pitch": 70, "duration": 3, "velocity": 100}, {"time": 613, "pitch": 70, "duration": 4, "velocity": 93}, {"time": 619, "pitch": 70, "duration": 2, "velocity": 98}, {"time": 622, "pitch": 70, "duration": 4, "velocity": 100}, {"time": 628, "pitch": 68, "duration": 7, "velocity": 100}, {"time": 634, "pitch": 72, "duration": 7, "velocity": 107}, {"time": 640, "pitch": 70, "duration": 7, "velocity": 113}, {"time": 652, "pitch": 68, "duration": 8, "velocity": 116}, {"time": 655, "pitch": 70, "duration": 7, "velocity": 116}, {"time": 658, "pitch": 72, "duration": 7, "velocity": 116}, {"time": 664, "pitch": 72, "duration": 1, "velocity": 108}, {"time": 676, "pitch": 70, "duration": 8, "velocity": 108}, {"time": 682, "pitch": 72, "duration": 7, "velocity": 110}, {"time": 688, "pitch": 75, "duration": 7, "velocity": 110}, {"time": 691, "pitch": 72, "duration": 8, "velocity": 108}, {"time": 700, "pitch": 72, "duration": 7, "velocity": 108}, {"time": 703, "pitch": 75, "duration": 6, "velocity": 94}, {"time": 706, "pitch": 77, "duration": 7, "velocity": 107}, {"time": 712, "pitch": 77, "duration": 1, "velocity": 108}, {"time": 718, "pitch": 77, "duration": 1, "velocity": 108}, {"time": 724, "pitch": 79, "duration": 6, "velocity": 107}, {"time": 730, "pitch": 75, "duration": 9, "velocity": 91}, {"time": 736, "pitch": 72, "duration": 8, "velocity": 102}, {"time": 745, "pitch": 75, "duration": 2, "velocity": 93}, {"time": 748, "pitch": 75, "duration": 1, "velocity": 89}, {"time": 751, "pitch": 75, "duration": 7, "velocity": 92}, {"time": 754, "pitch": 77, "duration": 9, "velocity": 96}, {"time": 760, "pitch": 80, "duration": 9, "velocity": 102}, {"time": 766, "pitch": 80, "duration": 3, "velocity": 107}, {"time": 772, "pitch": 77, "duration": 9, "velocity": 104}, {"time": 778, "pitch": 73, "duration": 5, "velocity": 104}, {"time": 781, "pitch": 70, "duration": 14, "velocity": 107}, {"time": 796, "pitch": 75, "duration": 2, "velocity": 98}, {"time": 799, "pitch": 75, "duration": 6, "velocity": 102}, {"time": 802, "pitch": 77, "duration": 8, "velocity": 107}, {"time": 808, "pitch": 80, "duration": 7, "velocity": 107}, {"time": 814, "pitch": 80, "duration": 1, "velocity": 110}, {"time": 820, "pitch": 77, "duration": 8, "velocity": 98}, {"time": 826, "pitch": 80, "duration": 7, "velocity": 108}, {"time": 832, "pitch": 82, "duration": 26, "velocity": 113}, {"time": 865, "pitch": 75, "duration": 2, "velocity": 93}, {"time": 868, "pitch": 75, "duration": 1, "velocity": 92}, {"time": 871, "pitch": 75, "duration": 2, "velocity": 102}, {"time": 874, "pitch": 84, "duration": 6, "velocity": 116}, {"time": 880, "pitch": 84, "duration": 1, "velocity": 114}, {"time": 886, "pitch": 84, "duration": 1, "velocity": 114}, {"time": 892, "pitch": 84, "duration": 1, "velocity": 114}, {"time": 898, "pitch": 84, "duration": 6, "velocity": 114}, {"time": 904, "pitch": 82, "duration": 2, "velocity": 104}, {"time": 907, "pitch": 82, "duration": 8, "velocity": 108}, {"time": 916, "pitch": 80, "duration": 3, "velocity": 107}, {"time": 919, "pitch": 79, "duration": 3, "velocity": 97}, {"time": 922, "pitch": 80, "duration": 3, "velocity": 100}, {"time": 928, "pitch": 80, "duration": 1, "velocity": 100}, {"time": 931, "pitch": 80, "duration": 1, "velocity": 92}, {"time": 934, "pitch": 80, "duration": 2, "velocity": 100}, {"time": 937, "pitch": 82, "duration": 10, "velocity": 108}, {"time": 946, "pitch": 72, "duration": 11, "velocity": 113}, {"time": 952, "pitch": 75, "duration": 11, "velocity": 110}, {"time": 964, "pitch": 75, "duration": 2, "velocity": 98}, {"time": 967, "pitch": 75, "duration": 2, "velocity": 93}, {"time": 970, "pitch": 77, "duration": 2, "velocity": 96}, {"time": 973, "pitch": 80, "duration": 5, "velocity": 102}, {"time": 979, "pitch": 80, "duration": 2, "velocity": 100}, {"time": 982, "pitch": 80, "duration": 4, "velocity": 100}, {"time": 988, "pitch": 80, "duration": 3, "velocity": 100}, {"time": 994, "pitch": 82, "duration": 8, "velocity": 108}, {"time": 1000, "pitch": 77, "duration": 5, "velocity": 102}, {"time": 1003, "pitch": 80, "duration": 9, "velocity": 107}, {"time": 1012, "pitch": 80, "duration": 1, "velocity": 93}, {"time": 1015, "pitch": 80, "duration": 2, "velocity": 100}, {"time": 1018, "pitch": 82, "duration": 3, "velocity": 100}, {"time": 1024, "pitch": 82, "duration": 2, "velocity": 92}, {"time": 1027, "pitch": 82, "duration": 3, "velocity": 91}, {"time": 1030, "pitch": 82, "duration": 8, "velocity": 107}, {"time": 1036, "pitch": 80, "duration": 8, "velocity": 107}, {"time": 1042, "pitch": 84, "duration": 8, "velocity": 110}, {"time": 1048, "pitch": 82, "duration": 5, "velocity": 114}, {"time": 1051, "pitch": 75, "duration": 5, "velocity": 107}, {"time": 1057, "pitch": 75, "duration": 2, "velocity": 93}, {"time": 1060, "pitch": 75, "duration": 1, "velocity": 92}, {"time": 1063, "pitch": 75, "duration": 2, "velocity": 102}, {"time": 1066, "pitch": 84, "duration": 8, "velocity": 116}, {"time": 1072, "pitch": 84, "duration": 2, "velocity": 114}, {"time": 1078, "pitch": 84, "duration": 2, "velocity": 114}, {"time": 1084, "pitch": 87, "duration": 7, "velocity": 114}, {"time": 1090, "pitch": 84, "duration": 8, "velocity": 114}, {"time": 1096, "pitch": 82, "duration": 2, "velocity": 104}, {"time": 1099, "pitch": 82, "duration": 8, "velocity": 108}, {"time": 1108, "pitch": 80, "duration": 3, "velocity": 107}, {"time": 1111, "pitch": 79, "duration": 3, "velocity": 97}, {"time": 1114, "pitch": 80, "duration": 3, "velocity": 100}, {"time": 1120, "pitch": 80, "duration": 1, "velocity": 100}, {"time": 1123, "pitch": 80, "duration": 1, "velocity": 92}, {"time": 1126, "pitch": 80, "duration": 5, "velocity": 100}, {"time": 1129, "pitch": 82, "duration": 8, "velocity": 108}, {"time": 1138, "pitch": 72, "duration": 8, "velocity": 113}, {"time": 1144, "pitch": 75, "duration": 11, "velocity": 110}, {"time": 1156, "pitch": 75, "duration": 2, "velocity": 98}, {"time": 1159, "pitch": 75, "duration": 5, "velocity": 93}, {"time": 1162, "pitch": 77, "duration": 6, "velocity": 96}, {"time": 1165, "pitch": 80, "duration": 5, "velocity": 102}, {"time": 1171, "pitch": 80, "duration": 5, "velocity": 100}, {"time": 1174, "pitch": 80, "duration": 2, "velocity": 100}, {"time": 1180, "pitch": 80, "duration": 3, "velocity": 100}, {"time": 1186, "pitch": 82, "duration": 5, "velocity": 108}, {"time": 1192, "pitch": 77, "duration": 4, "velocity": 102}, {"time": 1195, "pitch": 80, "duration": 8, "velocity": 107}, {"time": 1204, "pitch": 80, "duration": 2, "velocity": 93}, {"time": 1207, "pitch": 80, "duration": 2, "velocity": 100}, {"time": 1210, "pitch": 82, "duration": 3, "velocity": 100}, {"time": 1216, "pitch": 82, "duration": 2, "velocity": 92}, {"time": 1219, "pitch": 82, "duration": 3, "velocity": 91}, {"time": 1222, "pitch": 82, "duration": 8, "velocity": 107}, {"time": 1228, "pitch": 80, "duration": 11, "velocity": 107}, {"time": 1234, "pitch": 84, "duration": 14, "velocity": 110}, {"time": 1246, "pitch": 82, "duration": 14, "velocity": 113}, {"time": 1258, "pitch": 80, "duration": 38, "velocity": 117}, {"time": 1450, "pitch": 68, "duration": 14, "velocity": 116}, {"time": 1462, "pitch": 70, "duration": 14, "velocity": 116}, {"time": 1474, "pitch": 72, "duration": 5, "velocity": 116}, {"time": 1480, "pitch": 72, "duration": 5, "velocity": 108}, {"time": 1483, "pitch": 72, "duration": 2, "velocity": 108}, {"time": 1486, "pitch": 72, "duration": 2, "velocity": 110}, {"time": 1492, "pitch": 70, "duration": 8, "velocity": 108}, {"time": 1498, "pitch": 72, "duration": 7, "velocity": 110}, {"time": 1504, "pitch": 75, "duration": 7, "velocity": 110}, {"time": 1507, "pitch": 72, "duration": 8, "velocity": 108}, {"time": 1516, "pitch": 72, "duration": 5, "velocity": 108}, {"time": 1519, "pitch": 75, "duration": 4, "velocity": 94}, {"time": 1522, "pitch": 77, "duration": 8, "velocity": 107}, {"time": 1528, "pitch": 77, "duration": 2, "velocity": 108}, {"time": 1534, "pitch": 77, "duration": 2, "velocity": 108}, {"time": 1540, "pitch": 79, "duration": 8, "velocity": 107}, {"time": 1546, "pitch": 75, "duration": 11, "velocity": 91}, {"time": 1552, "pitch": 72, "duration": 10, "velocity": 102}, {"time": 1564, "pitch": 72, "duration": 8, "velocity": 107}, {"time": 1567, "pitch": 70, "duration": 8, "velocity": 91}, {"time": 1570, "pitch": 68, "duration": 7, "velocity": 94}, {"time": 1576, "pitch": 68, "duration": 1, "velocity": 89}, {"time": 1579, "pitch": 68, "duration": 1, "velocity": 88}, {"time": 1582, "pitch": 68, "duration": 1, "velocity": 94}, {"time": 1588, "pitch": 65, "duration": 10, "velocity": 96}, {"time": 1594, "pitch": 72, "duration": 8, "velocity": 104}, {"time": 1600, "pitch": 75, "duration": 9, "velocity": 94}, {"time": 1603, "pitch": 68, "duration": 14, "velocity": 91}, {"time": 1618, "pitch": 70, "duration": 4, "velocity": 100}, {"time": 1621, "pitch": 70, "duration": 1, "velocity": 93}, {"time": 1627, "pitch": 70, "duration": 4, "velocity": 98}, {"time": 1630, "pitch": 70, "duration": 1, "velocity": 100}, {"time": 1636, "pitch": 68, "duration": 8, "velocity": 100}, {"time": 1642, "pitch": 72, "duration": 8, "velocity": 107}, {"time": 1648, "pitch": 70, "duration": 14, "velocity": 113}, {"time": 1660, "pitch": 68, "duration": 7, "velocity": 116}, {"time": 1663, "pitch": 70, "duration": 5, "velocity": 116}, {"time": 1666, "pitch": 72, "duration": 5, "velocity": 116}, {"time": 1672, "pitch": 72, "duration": 5, "velocity": 108}, {"time": 1675, "pitch": 72, "duration": 2, "velocity": 108}, {"time": 1678, "pitch": 72, "duration": 2, "velocity": 110}, {"time": 1684, "pitch": 70, "duration": 8, "velocity": 108}, {"time": 1690, "pitch": 72, "duration": 7, "velocity": 110}, {"time": 1696, "pitch": 75, "duration": 7, "velocity": 110}, {"time": 1699, "pitch": 72, "duration": 8, "velocity": 108}, {"time": 1708, "pitch": 72, "duration": 5, "velocity": 108}, {"time": 1711, "pitch": 75, "duration": 4, "velocity": 94}, {"time": 1714, "pitch": 77, "duration": 5, "velocity": 107}, {"time": 1720, "pitch": 77, "duration": 5, "velocity": 108}, {"time": 1726, "pitch": 77, "duration": 8, "velocity": 108}, {"time": 1732, "pitch": 79, "duration": 8, "velocity": 107}, {"time": 1738, "pitch": 75, "duration": 8, "velocity": 91}, {"time": 1744, "pitch": 72, "duration": 11, "velocity": 102}, {"time": 1753, "pitch": 75, "duration": 4, "velocity": 93}, {"time": 1756, "pitch": 75, "duration": 1, "velocity": 89}, {"time": 1759, "pitch": 75, "duration": 1, "velocity": 92}, {"time": 1762, "pitch": 77, "duration": 8, "velocity": 96}, {"time": 1768, "pitch": 80, "duration": 6, "velocity": 102}, {"time": 1774, "pitch": 80, "duration": 8, "velocity": 107}, {"time": 1780, "pitch": 77, "duration": 6, "velocity": 104}, {"time": 1786, "pitch": 73, "duration": 6, "velocity": 104}, {"time": 1789, "pitch": 70, "duration": 17, "velocity": 107}, {"time": 1804, "pitch": 75, "duration": 4, "velocity": 98}, {"time": 1807, "pitch": 75, "duration": 1, "velocity": 102}, {"time": 1810, "pitch": 77, "duration": 6, "velocity": 107}, {"time": 1816, "pitch": 80, "duration": 5, "velocity": 107}, {"time": 1822, "pitch": 80, "duration": 8, "velocity": 110}, {"time": 1828, "pitch": 77, "duration": 8, "velocity": 98}, {"time": 1834, "pitch": 80, "duration": 8, "velocity": 108}, {"time": 1840, "pitch": 82, "duration": 28, "velocity": 113}, {"time": 1873, "pitch": 75, "duration": 2, "velocity": 93}, {"time": 1876, "pitch": 75, "duration": 2, "velocity": 92}, {"time": 1879, "pitch": 75, "duration": 2, "velocity": 102}, {"time": 1882, "pitch": 84, "duration": 8, "velocity": 116}, {"time": 1888, "pitch": 84, "duration": 2, "velocity": 114}, {"time": 1894, "pitch": 84, "duration": 2, "velocity": 114}, {"time": 1900, "pitch": 84, "duration": 2, "velocity": 114}, {"time": 1906, "pitch": 84, "duration": 1, "velocity": 114}, {"time": 1912, "pitch": 82, "duration": 2, "velocity": 104}, {"time": 1915, "pitch": 82, "duration": 11, "velocity": 108}, {"time": 1924, "pitch": 80, "duration": 4, "velocity": 107}, {"time": 1927, "pitch": 79, "duration": 4, "velocity": 97}, {"time": 1930, "pitch": 80, "duration": 4, "velocity": 100}, {"time": 1936, "pitch": 80, "duration": 2, "velocity": 100}, {"time": 1939, "pitch": 80, "duration": 2, "velocity": 92}, {"time": 1942, "pitch": 80, "duration": 2, "velocity": 100}, {"time": 1945, "pitch": 82, "duration": 11, "velocity": 108}, {"time": 1954, "pitch": 72, "duration": 8, "velocity": 113}, {"time": 1960, "pitch": 75, "duration": 11, "velocity": 110}, {"time": 1972, "pitch": 75, "duration": 2, "velocity": 98}, {"time": 1975, "pitch": 75, "duration": 2, "velocity": 93}, {"time": 1978, "pitch": 77, "duration": 3, "velocity": 96}, {"time": 1981, "pitch": 80, "duration": 7, "velocity": 102}, {"time": 1987, "pitch": 80, "duration": 1, "velocity": 100}, {"time": 1990, "pitch": 80, "duration": 6, "velocity": 100}, {"time": 1996, "pitch": 80, "duration": 1, "velocity": 100}, {"time": 2002, "pitch": 82, "duration": 8, "velocity": 108}, {"time": 2008, "pitch": 77, "duration": 5, "velocity": 102}, {"time": 2011, "pitch": 80, "duration": 8, "velocity": 107}, {"time": 2020, "pitch": 80, "duration": 5, "velocity": 93}, {"time": 2023, "pitch": 80, "duration": 2, "velocity": 100}, {"time": 2026, "pitch": 82, "duration": 6, "velocity": 100}, {"time": 2032, "pitch": 82, "duration": 1, "velocity": 92}, {"time": 2035, "pitch": 82, "duration": 3, "velocity": 91}, {"time": 2038, "pitch": 82, "duration": 10, "velocity": 107}, {"time": 2044, "pitch": 80, "duration": 8, "velocity": 107}, {"time": 2050, "pitch": 84, "duration": 8, "velocity": 110}, {"time": 2056, "pitch": 82, "duration": 5, "velocity": 114}, {"time": 2059, "pitch": 75, "duration": 5, "velocity": 107}, {"time": 2065, "pitch": 75, "duration": 2, "velocity": 93}, {"time": 2068, "pitch": 75, "duration": 2, "velocity": 92}, {"time": 2071, "pitch": 75, "duration": 5, "velocity": 102}, {"time": 2074, "pitch": 84, "duration": 6, "velocity": 116}, {"time": 2080, "pitch": 84, "duration": 6, "velocity": 114}, {"time": 2086, "pitch": 84, "duration": 7, "velocity": 114}, {"time": 2092, "pitch": 87, "duration": 6, "velocity": 114}, {"time": 2098, "pitch": 84, "duration": 6, "velocity": 114}, {"time": 2104, "pitch": 82, "duration": 2, "velocity": 104}, {"time": 2107, "pitch": 82, "duration": 11, "velocity": 108}, {"time": 2116, "pitch": 80, "duration": 4, "velocity": 107}, {"time": 2119, "pitch": 79, "duration": 4, "velocity": 97}, {"time": 2122, "pitch": 80, "duration": 4, "velocity": 100}, {"time": 2128, "pitch": 80, "duration": 2, "velocity": 100}, {"time": 2131, "pitch": 80, "duration": 2, "velocity": 92}, {"time": 2134, "pitch": 80, "duration": 2, "velocity": 100}, {"time": 2137, "pitch": 82, "duration": 11, "velocity": 108}, {"time": 2146, "pitch": 72, "duration": 8, "velocity": 113}, {"time": 2152, "pitch": 75, "duration": 8, "velocity": 110}, {"time": 2164, "pitch": 75, "duration": 2, "velocity": 98}, {"time": 2167, "pitch": 75, "duration": 4, "velocity": 93}, {"time": 2170, "pitch": 77, "duration": 5, "velocity": 96}, {"time": 2173, "pitch": 80, "duration": 5, "velocity": 102}, {"time": 2179, "pitch": 80, "duration": 5, "velocity": 100}, {"time": 2182, "pitch": 80, "duration": 2, "velocity": 100}, {"time": 2188, "pitch": 80, "duration": 9, "velocity": 100}, {"time": 2194, "pitch": 82, "duration": 9, "velocity": 108}, {"time": 2200, "pitch": 77, "duration": 8, "velocity": 102}, {"time": 2203, "pitch": 80, "duration": 9, "velocity": 107}, {"time": 2212, "pitch": 80, "duration": 2, "velocity": 93}, {"time": 2215, "pitch": 80, "duration": 2, "velocity": 100}, {"time": 2218, "pitch": 82, "duration": 4, "velocity": 100}, {"time": 2224, "pitch": 82, "duration": 2, "velocity": 92}, {"time": 2227, "pitch": 82, "duration": 3, "velocity": 91}, {"time": 2230, "pitch": 82, "duration": 8, "velocity": 107}, {"time": 2236, "pitch": 80, "duration": 8, "velocity": 107}, {"time": 2242, "pitch": 84, "duration": 14, "velocity": 110}, {"time": 2254, "pitch": 82, "duration": 14, "velocity": 113}, {"time": 2266, "pitch": 80, "duration": 29, "velocity": 117}, {"time": 2449, "pitch": 75, "duration": 6, "velocity": 93}, {"time": 2452, "pitch": 75, "duration": 3, "velocity": 92}, {"time": 2455, "pitch": 75, "duration": 3, "velocity": 102}, {"time": 2458, "pitch": 84, "duration": 8, "velocity": 116}, {"time": 2464, "pitch": 84, "duration": 2, "velocity": 114}, {"time": 2470, "pitch": 84, "duration": 2, "velocity": 114}, {"time": 2476, "pitch": 84, "duration": 2, "velocity": 114}, {"time": 2482, "pitch": 84, "duration": 1, "velocity": 114}, {"time": 2488, "pitch": 82, "duration": 6, "velocity": 104}, {"time": 2491, "pitch": 82, "duration": 3, "velocity": 108}, {"time": 2500, "pitch": 80, "duration": 7, "velocity": 107}, {"time": 2503, "pitch": 79, "duration": 7, "velocity": 97}, {"time": 2506, "pitch": 80, "duration": 1, "velocity": 100}, {"time": 2512, "pitch": 80, "duration": 1, "velocity": 100}, {"time": 2515, "pitch": 80, "duration": 2, "velocity": 92}, {"time": 2518, "pitch": 80, "duration": 2, "velocity": 100}, {"time": 2521, "pitch": 82, "duration": 8, "velocity": 108}, {"time": 2530, "pitch": 72, "duration": 8, "velocity": 113}, {"time": 2536, "pitch": 75, "duration": 8, "velocity": 110}, {"time": 2548, "pitch": 75, "duration": 6, "velocity": 98}, {"time": 2551, "pitch": 75, "duration": 3, "velocity": 93}, {"time": 2554, "pitch": 77, "duration": 6, "velocity": 96}, {"time": 2557, "pitch": 80, "duration": 7, "velocity": 102}, {"time": 2563, "pitch": 80, "duration": 1, "velocity": 100}, {"time": 2566, "pitch": 80, "duration": 3, "velocity": 100}, {"time": 2572, "pitch": 80, "duration": 2, "velocity": 100}, {"time": 2578, "pitch": 82, "duration": 7, "velocity": 108}, {"time": 2584, "pitch": 77, "duration": 6, "velocity": 102}, {"time": 2587, "pitch": 80, "duration": 8, "velocity": 107}, {"time": 2596, "pitch": 80, "duration": 6, "velocity": 93}, {"time": 2599, "pitch": 80, "duration": 3, "velocity": 100}, {"time": 2602, "pitch": 82, "duration": 7, "velocity": 100}, {"time": 2608, "pitch": 82, "duration": 1, "velocity": 92}, {"time": 2611, "pitch": 82, "duration": 3, "velocity": 91}, {"time": 2614, "pitch": 82, "duration": 4, "velocity": 107}, {"time": 2620, "pitch": 80, "duration": 8, "velocity": 107}, {"time": 2626, "pitch": 84, "duration": 8, "velocity": 110}, {"time": 2632, "pitch": 82, "duration": 7, "velocity": 114}, {"time": 2635, "pitch": 75, "duration": 5, "velocity": 107}, {"time": 2641, "pitch": 75, "duration": 6, "velocity": 93}, {"time": 2644, "pitch": 75, "duration": 3, "velocity": 92}, {"time": 2647, "pitch": 75, "duration": 3, "velocity": 102}, {"time": 2650, "pitch": 84, "duration": 8, "velocity": 116}, {"time": 2656, "pitch": 84, "duration": 2, "velocity": 114}, {"time": 2662, "pitch": 84, "duration": 2, "velocity": 114}, {"time": 2668, "pitch": 87, "duration": 7, "velocity": 114}, {"time": 2674, "pitch": 84, "duration": 8, "velocity": 114}, {"time": 2680, "pitch": 82, "duration": 6, "velocity": 104}, {"time": 2683, "pitch": 82, "duration": 3, "velocity": 108}, {"time": 2692, "pitch": 80, "duration": 7, "velocity": 107}, {"time": 2695, "pitch": 79, "duration": 7, "velocity": 97}, {"time": 2698, "pitch": 80, "duration": 1, "velocity": 100}, {"time": 2704, "pitch": 80, "duration": 1, "velocity": 100}, {"time": 2707, "pitch": 80, "duration": 2, "velocity": 92}, {"time": 2710, "pitch": 80, "duration": 2, "velocity": 100}, {"time": 2713, "pitch": 82, "duration": 8, "velocity": 108}, {"time": 2722, "pitch": 72, "duration": 8, "velocity": 113}, {"time": 2728, "pitch": 75, "duration": 11, "velocity": 110}, {"time": 2740, "pitch": 75, "duration": 6, "velocity": 98}, {"time": 2743, "pitch": 75, "duration": 3, "velocity": 93}, {"time": 2746, "pitch": 77, "duration": 6, "velocity": 96}, {"time": 2749, "pitch": 80, "duration": 7, "velocity": 102}, {"time": 2755, "pitch": 80, "duration": 1, "velocity": 100}, {"time": 2758, "pitch": 80, "duration": 3, "velocity": 100}, {"time": 2764, "pitch": 80, "duration": 2, "velocity": 100}, {"time": 2770, "pitch": 82, "duration": 7, "velocity": 108}, {"time": 2776, "pitch": 77, "duration": 6, "velocity": 102}, {"time": 2779, "pitch": 80, "duration": 8, "velocity": 107}, {"time": 2788, "pitch": 80, "duration": 6, "velocity": 93}, {"time": 2791, "pitch": 80, "duration": 3, "velocity": 100}, {"time": 2794, "pitch": 82, "duration": 7, "velocity": 100}, {"time": 2800, "pitch": 82, "duration": 1, "velocity": 92}, {"time": 2803, "pitch": 82, "duration": 3, "velocity": 91}, {"time": 2806, "pitch": 82, "duration": 4, "velocity": 107}, {"time": 2812, "pitch": 80, "duration": 8, "velocity": 107}, {"time": 2818, "pitch": 84, "duration": 17, "velocity": 110}, {"time": 2830, "pitch": 82, "duration": 17, "velocity": 113}, {"time": 2842, "pitch": 80, "duration": 26, "velocity": 117}]}, {"program": 0, "is_drum": false, "name": "PIANO", "notes": [{"time": 58, "pitch": 44, "duration": 40, "velocity": 71}, {"time": 58, "pitch": 60, "duration": 21, "velocity": 81}, {"time": 58, "pitch": 63, "duration": 22, "velocity": 86}, {"time": 58, "pitch": 68, "duration": 21, "velocity": 83}, {"time": 82, "pitch": 60, "duration": 19, "velocity": 80}, {"time": 82, "pitch": 63, "duration": 20, "velocity": 85}, {"time": 82, "pitch": 67, "duration": 20, "velocity": 80}, {"time": 106, "pitch": 49, "duration": 20, "velocity": 84}, {"time": 106, "pitch": 61, "duration": 19, "velocity": 81}, {"time": 106, "pitch": 68, "duration": 7, "velocity": 80}, {"time": 112, "pitch": 56, "duration": 14, "velocity": 38}, {"time": 118, "pitch": 65, "duration": 6, "velocity": 78}, {"time": 130, "pitch": 51, "duration": 19, "velocity": 79}, {"time": 130, "pitch": 58, "duration": 18, "velocity": 74}, {"time": 130, "pitch": 63, "duration": 18, "velocity": 76}, {"time": 130, "pitch": 67, "duration": 19, "velocity": 76}, {"time": 154, "pitch": 49, "duration": 24, "velocity": 84}, {"time": 154, "pitch": 61, "duration": 24, "velocity": 78}, {"time": 154, "pitch": 65, "duration": 24, "velocity": 82}, {"time": 154, "pitch": 68, "duration": 24, "velocity": 83}, {"time": 178, "pitch": 48, "duration": 22, "velocity": 74}, {"time": 178, "pitch": 60, "duration": 21, "velocity": 81}, {"time": 178, "pitch": 63, "duration": 21, "velocity": 87}, {"time": 178, "pitch": 67, "duration": 21, "velocity": 76}, {"time": 202, "pitch": 46, "duration": 21, "velocity": 76}, {"time": 202, "pitch": 58, "duration": 19, "velocity": 78}, {"time": 202, "pitch": 61, "duration": 19, "velocity": 84}, {"time": 202, "pitch": 65, "duration": 18, "velocity": 87}, {"time": 202, "pitch": 70, "duration": 20, "velocity": 86}, {"time": 226, "pitch": 51, "duration": 19, "velocity": 77}, {"time": 226, "pitch": 58, "duration": 19, "velocity": 77}, {"time": 226, "pitch": 63, "duration": 20, "velocity": 84}, {"time": 226, "pitch": 67, "duration": 21, "velocity": 78}, {"time": 250, "pitch": 44, "duration": 42, "velocity": 79}, {"time": 250, "pitch": 60, "duration": 12, "velocity": 83}, {"time": 250, "pitch": 63, "duration": 8, "velocity": 81}, {"time": 250, "pitch": 68, "duration": 8, "velocity": 85}, {"time": 256, "pitch": 51, "duration": 37, "velocity": 38}, {"time": 262, "pitch": 56, "duration": 18, "velocity": 79}, {"time": 274, "pitch": 60, "duration": 10, "velocity": 86}, {"time": 274, "pitch": 63, "duration": 10, "velocity": 83}, {"time": 286, "pitch": 60, "duration": 5, "velocity": 86}, {"time": 286, "pitch": 63, "duration": 6, "velocity": 81}, {"time": 298, "pitch": 53, "duration": 22, "velocity": 81}, {"time": 298, "pitch": 60, "duration": 9, "velocity": 81}, {"time": 298, "pitch": 65, "duration": 9, "velocity": 81}, {"time": 298, "pitch": 68, "duration": 9, "velocity": 82}, {"time": 310, "pitch": 60, "duration": 7, "velocity": 74}, {"time": 310, "pitch": 65, "duration": 8, "velocity": 77}, {"time": 310, "pitch": 68, "duration": 7, "velocity": 75}, {"time": 322, "pitch": 48, "duration": 19, "velocity": 83}, {"time": 322, "pitch": 60, "duration": 10, "velocity": 81}, {"time": 322, "pitch": 63, "duration": 10, "velocity": 86}, {"time": 322, "pitch": 67, "duration": 9, "velocity": 76}, {"time": 334, "pitch": 60, "duration": 8, "velocity": 72}, {"time": 334, "pitch": 63, "duration": 11, "velocity": 86}, {"time": 334, "pitch": 67, "duration": 11, "velocity": 77}, {"time": 346, "pitch": 49, "duration": 19, "velocity": 86}, {"time": 346, "pitch": 61, "duration": 11, "velocity": 81}, {"time": 346, "pitch": 65, "duration": 11, "velocity": 87}, {"time": 346, "pitch": 68, "duration": 11, "velocity": 86}, {"time": 358, "pitch": 61, "duration": 8, "velocity": 81}, {"time": 358, "pitch": 65, "duration": 8, "velocity": 82}, {"time": 358, "pitch": 68, "duration": 8, "velocity": 81}, {"time": 370, "pitch": 48, "duration": 21, "velocity": 84}, {"time": 370, "pitch": 60, "duration": 9, "velocity": 88}, {"time": 370, "pitch": 63, "duration": 9, "velocity": 76}, {"time": 370, "pitch": 67, "duration": 21, "velocity": 82}, {"time": 382, "pitch": 60, "duration": 8, "velocity": 74}, {"time": 382, "pitch": 63, "duration": 8, "velocity": 84}, {"time": 394, "pitch": 46, "duration": 22, "velocity": 81}, {"time": 394, "pitch": 61, "duration": 19, "velocity": 79}, {"time": 394, "pitch": 65, "duration": 18, "velocity": 83}, {"time": 394, "pitch": 70, "duration": 20, "velocity": 84}, {"time": 418, "pitch": 51, "duration": 21, "velocity": 77}, {"time": 418, "pitch": 58, "duration": 21, "velocity": 77}, {"time": 418, "pitch": 63, "duration": 21, "velocity": 86}, {"time": 418, "pitch": 67, "duration": 21, "velocity": 82}, {"time": 466, "pitch": 44, "duration": 18, "velocity": 81}, {"time": 466, "pitch": 60, "duration": 8, "velocity": 80}, {"time": 466, "pitch": 63, "duration": 8, "velocity": 80}, {"time": 466, "pitch": 68, "duration": 7, "velocity": 81}, {"time": 472, "pitch": 56, "duration": 7, "velocity": 66}, {"time": 478, "pitch": 60, "duration": 8, "velocity": 83}, {"time": 478, "pitch": 63, "duration": 9, "velocity": 88}, {"time": 478, "pitch": 68, "duration": 8, "velocity": 86}, {"time": 484, "pitch": 56, "duration": 3, "velocity": 85}, {"time": 484, "pitch": 56, "duration": 3, "velocity": 65}, {"time": 487, "pitch": 44, "duration": 3, "velocity": 79}, {"time": 490, "pitch": 48, "duration": 20, "velocity": 81}, {"time": 490, "pitch": 60, "duration": 9, "velocity": 83}, {"time": 490, "pitch": 63, "duration": 8, "velocity": 87}, {"time": 490, "pitch": 67, "duration": 8, "velocity": 81}, {"time": 502, "pitch": 60, "duration": 7, "velocity": 76}, {"time": 502, "pitch": 63, "duration": 8, "velocity": 85}, {"time": 502, "pitch": 67, "duration": 7, "velocity": 76}, {"time": 508, "pitch": 51, "duration": 6, "velocity": 75}, {"time": 514, "pitch": 53, "duration": 21, "velocity": 83}, {"time": 514, "pitch": 60, "duration": 9, "velocity": 79}, {"time": 514, "pitch": 65, "duration": 8, "velocity": 83}, {"time": 514, "pitch": 68, "duration": 9, "velocity": 81}, {"time": 526, "pitch": 60, "duration": 8, "velocity": 81}, {"time": 526, "pitch": 65, "duration": 8, "velocity": 84}, {"time": 526, "pitch": 68, "duration": 8, "velocity": 81}, {"time": 538, "pitch": 48, "duration": 18, "velocity": 86}, {"time": 544, "pitch": 55, "duration": 18, "velocity": 73}, {"time": 550, "pitch": 60, "duration": 7, "velocity": 81}, {"time": 552, "pitch": 75, "duration": 1, "velocity": 82}, {"time": 552, "pitch": 70, "duration": 1, "velocity": 74}, {"time": 556, "pitch": 48, "duration": 1, "velocity": 85}, {"time": 556, "pitch": 63, "duration": 7, "velocity": 86}, {"time": 562, "pitch": 49, "duration": 19, "velocity": 84}, {"time": 562, "pitch": 61, "duration": 9, "velocity": 80}, {"time": 562, "pitch": 65, "duration": 8, "velocity": 86}, {"time": 568, "pitch": 56, "duration": 11, "velocity": 38}, {"time": 574, "pitch": 61, "duration": 7, "velocity": 78}, {"time": 574, "pitch": 65, "duration": 11, "velocity": 82}, {"time": 580, "pitch": 49, "duration": 1, "velocity": 81}, {"time": 586, "pitch": 48, "duration": 20, "velocity": 71}, {"time": 586, "pitch": 60, "duration": 7, "velocity": 81}, {"time": 586, "pitch": 67, "duration": 7, "velocity": 78}, {"time": 592, "pitch": 55, "duration": 9, "velocity": 65}, {"time": 595, "pitch": 63, "duration": 3, "velocity": 76}, {"time": 595, "pitch": 68, "duration": 3, "velocity": 80}, {"time": 598, "pitch": 60, "duration": 3, "velocity": 91}, {"time": 598, "pitch": 67, "duration": 2, "velocity": 89}, {"time": 601, "pitch": 63, "duration": 4, "velocity": 81}, {"time": 601, "pitch": 68, "duration": 5, "velocity": 88}, {"time": 610, "pitch": 46, "duration": 19, "velocity": 88}, {"time": 610, "pitch": 53, "duration": 19, "velocity": 88}, {"time": 616, "pitch": 60, "duration": 12, "velocity": 78}, {"time": 622, "pitch": 65, "duration": 13, "velocity": 90}, {"time": 628, "pitch": 53, "duration": 1, "velocity": 82}, {"time": 631, "pitch": 46, "duration": 1, "velocity": 87}, {"time": 634, "pitch": 51, "duration": 16, "velocity": 80}, {"time": 640, "pitch": 58, "duration": 4, "velocity": 78}, {"time": 646, "pitch": 67, "duration": 11, "velocity": 116}, {"time": 648, "pitch": 75, "duration": 5, "velocity": 75}, {"time": 649, "pitch": 70, "duration": 4, "velocity": 53}, {"time": 652, "pitch": 63, "duration": 7, "velocity": 86}, {"time": 658, "pitch": 44, "duration": 22, "velocity": 78}, {"time": 658, "pitch": 60, "duration": 12, "velocity": 76}, {"time": 658, "pitch": 68, "duration": 4, "velocity": 84}, {"time": 664, "pitch": 51, "duration": 17, "velocity": 62}, {"time": 670, "pitch": 58, "duration": 7, "velocity": 86}, {"time": 670, "pitch": 63, "duration": 6, "velocity": 87}, {"time": 676, "pitch": 60, "duration": 6, "velocity": 80}, {"time": 682, "pitch": 48, "duration": 19, "velocity": 78}, {"time": 688, "pitch": 55, "duration": 17, "velocity": 66}, {"time": 688, "pitch": 70, "duration": 3, "velocity": 81}, {"time": 688, "pitch": 75, "duration": 3, "velocity": 81}, {"time": 691, "pitch": 72, "duration": 2, "velocity": 61}, {"time": 694, "pitch": 63, "duration": 11, "velocity": 89}, {"time": 694, "pitch": 67, "duration": 10, "velocity": 86}, {"time": 697, "pitch": 60, "duration": 3, "velocity": 74}, {"time": 697, "pitch": 70, "duration": 3, "velocity": 81}, {"time": 697, "pitch": 75, "duration": 3, "velocity": 84}, {"time": 700, "pitch": 58, "duration": 3, "velocity": 77}, {"time": 701, "pitch": 72, "duration": 1, "velocity": 44}, {"time": 703, "pitch": 48, "duration": 1, "velocity": 80}, {"time": 706, "pitch": 53, "duration": 18, "velocity": 84}, {"time": 706, "pitch": 60, "duration": 10, "velocity": 83}, {"time": 706, "pitch": 68, "duration": 10, "velocity": 84}, {"time": 718, "pitch": 60, "duration": 12, "velocity": 76}, {"time": 718, "pitch": 65, "duration": 7, "velocity": 85}, {"time": 724, "pitch": 67, "duration": 13, "velocity": 84}, {"time": 725, "pitch": 53, "duration": 3, "velocity": 88}, {"time": 727, "pitch": 51, "duration": 4, "velocity": 77}, {"time": 730, "pitch": 63, "duration": 9, "velocity": 88}, {"time": 730, "pitch": 48, "duration": 2, "velocity": 85}, {"time": 736, "pitch": 55, "duration": 18, "velocity": 65}, {"time": 736, "pitch": 48, "duration": 6, "velocity": 87}, {"time": 742, "pitch": 67, "duration": 7, "velocity": 97}, {"time": 744, "pitch": 75, "duration": 3, "velocity": 98}, {"time": 744, "pitch": 70, "duration": 3, "velocity": 80}, {"time": 748, "pitch": 63, "duration": 5, "velocity": 86}, {"time": 754, "pitch": 49, "duration": 19, "velocity": 83}, {"time": 754, "pitch": 61, "duration": 8, "velocity": 82}, {"time": 754, "pitch": 65, "duration": 7, "velocity": 84}, {"time": 754, "pitch": 68, "duration": 7, "velocity": 83}, {"time": 766, "pitch": 61, "duration": 8, "velocity": 86}, {"time": 766, "pitch": 65, "duration": 12, "velocity": 86}, {"time": 766, "pitch": 68, "duration": 15, "velocity": 87}, {"time": 775, "pitch": 49, "duration": 3, "velocity": 84}, {"time": 778, "pitch": 46, "duration": 17, "velocity": 79}, {"time": 778, "pitch": 61, "duration": 7, "velocity": 86}, {"time": 778, "pitch": 65, "duration": 6, "velocity": 86}, {"time": 784, "pitch": 70, "duration": 2, "velocity": 81}, {"time": 784, "pitch": 75, "duration": 2, "velocity": 81}, {"time": 784, "pitch": 53, "duration": 7, "velocity": 42}, {"time": 787, "pitch": 70, "duration": 2, "velocity": 61}, {"time": 790, "pitch": 65, "duration": 11, "velocity": 98}, {"time": 793, "pitch": 70, "duration": 1, "velocity": 81}, {"time": 793, "pitch": 75, "duration": 1, "velocity": 84}, {"time": 796, "pitch": 61, "duration": 6, "velocity": 77}, {"time": 796, "pitch": 46, "duration": 2, "velocity": 80}, {"time": 796, "pitch": 70, "duration": 2, "velocity": 44}, {"time": 799, "pitch": 46, "duration": 4, "velocity": 75}, {"time": 802, "pitch": 51, "duration": 22, "velocity": 86}, {"time": 802, "pitch": 58, "duration": 3, "velocity": 79}, {"time": 802, "pitch": 63, "duration": 6, "velocity": 61}, {"time": 802, "pitch": 67, "duration": 7, "velocity": 82}, {"time": 808, "pitch": 58, "duration": 14, "velocity": 66}, {"time": 814, "pitch": 63, "duration": 6, "velocity": 88}, {"time": 820, "pitch": 68, "duration": 6, "velocity": 87}, {"time": 820, "pitch": 44, "duration": 4, "velocity": 83}, {"time": 823, "pitch": 46, "duration": 4, "velocity": 88}, {"time": 826, "pitch": 63, "duration": 5, "velocity": 88}, {"time": 826, "pitch": 67, "duration": 6, "velocity": 91}, {"time": 826, "pitch": 70, "duration": 7, "velocity": 88}, {"time": 826, "pitch": 51, "duration": 13, "velocity": 100}, {"time": 832, "pitch": 58, "duration": 35, "velocity": 75}, {"time": 835, "pitch": 63, "duration": 4, "velocity": 82}, {"time": 838, "pitch": 67, "duration": 4, "velocity": 88}, {"time": 838, "pitch": 75, "duration": 5, "velocity": 90}, {"time": 844, "pitch": 63, "duration": 9, "velocity": 84}, {"time": 844, "pitch": 46, "duration": 6, "velocity": 88}, {"time": 850, "pitch": 39, "duration": 22, "velocity": 95}, {"time": 850, "pitch": 70, "duration": 6, "velocity": 96}, {"time": 850, "pitch": 79, "duration": 4, "velocity": 109}, {"time": 856, "pitch": 63, "duration": 9, "velocity": 81}, {"time": 862, "pitch": 67, "duration": 6, "velocity": 109}, {"time": 862, "pitch": 75, "duration": 7, "velocity": 96}, {"time": 868, "pitch": 70, "duration": 2, "velocity": 86}, {"time": 874, "pitch": 44, "duration": 19, "velocity": 85}, {"time": 874, "pitch": 63, "duration": 8, "velocity": 88}, {"time": 874, "pitch": 68, "duration": 3, "velocity": 91}, {"time": 874, "pitch": 72, "duration": 5, "velocity": 92}, {"time": 880, "pitch": 51, "duration": 13, "velocity": 67}, {"time": 886, "pitch": 60, "duration": 9, "velocity": 91}, {"time": 886, "pitch": 63, "duration": 10, "velocity": 110}, {"time": 886, "pitch": 68, "duration": 8, "velocity": 96}, {"time": 892, "pitch": 56, "duration": 2, "velocity": 78}, {"time": 898, "pitch": 48, "duration": 20, "velocity": 82}, {"time": 898, "pitch": 63, "duration": 7, "velocity": 88}, {"time": 898, "pitch": 67, "duration": 6, "velocity": 76}, {"time": 904, "pitch": 55, "duration": 7, "velocity": 70}, {"time": 910, "pitch": 60, "duration": 8, "velocity": 94}, {"time": 910, "pitch": 67, "duration": 10, "velocity": 100}, {"time": 916, "pitch": 55, "duration": 6, "velocity": 71}, {"time": 916, "pitch": 63, "duration": 5, "velocity": 79}, {"time": 922, "pitch": 53, "duration": 22, "velocity": 88}, {"time": 922, "pitch": 60, "duration": 9, "velocity": 84}, {"time": 922, "pitch": 65, "duration": 9, "velocity": 88}, {"time": 922, "pitch": 68, "duration": 8, "velocity": 88}, {"time": 934, "pitch": 60, "duration": 9, "velocity": 87}, {"time": 934, "pitch": 65, "duration": 10, "velocity": 88}, {"time": 934, "pitch": 68, "duration": 8, "velocity": 86}, {"time": 946, "pitch": 48, "duration": 19, "velocity": 81}, {"time": 946, "pitch": 60, "duration": 10, "velocity": 80}, {"time": 946, "pitch": 63, "duration": 10, "velocity": 84}, {"time": 946, "pitch": 67, "duration": 10, "velocity": 76}, {"time": 955, "pitch": 55, "duration": 5, "velocity": 78}, {"time": 958, "pitch": 60, "duration": 6, "velocity": 100}, {"time": 958, "pitch": 67, "duration": 8, "velocity": 106}, {"time": 964, "pitch": 55, "duration": 6, "velocity": 77}, {"time": 964, "pitch": 63, "duration": 5, "velocity": 83}, {"time": 970, "pitch": 49, "duration": 20, "velocity": 84}, {"time": 970, "pitch": 61, "duration": 4, "velocity": 88}, {"time": 970, "pitch": 65, "duration": 8, "velocity": 91}, {"time": 970, "pitch": 68, "duration": 7, "velocity": 90}, {"time": 976, "pitch": 56, "duration": 8, "velocity": 64}, {"time": 982, "pitch": 65, "duration": 10, "velocity": 93}, {"time": 982, "pitch": 68, "duration": 10, "velocity": 89}, {"time": 988, "pitch": 56, "duration": 2, "velocity": 80}, {"time": 994, "pitch": 48, "duration": 18, "velocity": 81}, {"time": 994, "pitch": 60, "duration": 4, "velocity": 84}, {"time": 994, "pitch": 67, "duration": 9, "velocity": 85}, {"time": 1000, "pitch": 55, "duration": 18, "velocity": 71}, {"time": 1003, "pitch": 60, "duration": 11, "velocity": 82}, {"time": 1006, "pitch": 63, "duration": 7, "velocity": 98}, {"time": 1012, "pitch": 67, "duration": 6, "velocity": 90}, {"time": 1018, "pitch": 49, "duration": 18, "velocity": 84}, {"time": 1018, "pitch": 61, "duration": 9, "velocity": 85}, {"time": 1018, "pitch": 65, "duration": 8, "velocity": 88}, {"time": 1018, "pitch": 68, "duration": 8, "velocity": 86}, {"time": 1024, "pitch": 56, "duration": 5, "velocity": 38}, {"time": 1030, "pitch": 61, "duration": 7, "velocity": 88}, {"time": 1030, "pitch": 65, "duration": 10, "velocity": 89}, {"time": 1030, "pitch": 68, "duration": 7, "velocity": 88}, {"time": 1036, "pitch": 56, "duration": 6, "velocity": 74}, {"time": 1042, "pitch": 51, "duration": 19, "velocity": 84}, {"time": 1042, "pitch": 63, "duration": 4, "velocity": 87}, {"time": 1042, "pitch": 68, "duration": 5, "velocity": 88}, {"time": 1045, "pitch": 58, "duration": 15, "velocity": 81}, {"time": 1048, "pitch": 63, "duration": 7, "velocity": 88}, {"time": 1051, "pitch": 67, "duration": 9, "velocity": 84}, {"time": 1054, "pitch": 75, "duration": 6, "velocity": 92}, {"time": 1057, "pitch": 63, "duration": 3, "velocity": 91}, {"time": 1060, "pitch": 70, "duration": 4, "velocity": 87}, {"time": 1063, "pitch": 75, "duration": 4, "velocity": 91}, {"time": 1066, "pitch": 44, "duration": 18, "velocity": 86}, {"time": 1066, "pitch": 68, "duration": 5, "velocity": 83}, {"time": 1066, "pitch": 72, "duration": 4, "velocity": 90}, {"time": 1072, "pitch": 51, "duration": 13, "velocity": 64}, {"time": 1078, "pitch": 60, "duration": 9, "velocity": 93}, {"time": 1078, "pitch": 68, "duration": 10, "velocity": 91}, {"time": 1084, "pitch": 56, "duration": 4, "velocity": 78}, {"time": 1084, "pitch": 63, "duration": 5, "velocity": 81}, {"time": 1087, "pitch": 46, "duration": 4, "velocity": 91}, {"time": 1090, "pitch": 48, "duration": 19, "velocity": 85}, {"time": 1096, "pitch": 55, "duration": 17, "velocity": 70}, {"time": 1099, "pitch": 60, "duration": 12, "velocity": 84}, {"time": 1102, "pitch": 63, "duration": 12, "velocity": 89}, {"time": 1105, "pitch": 67, "duration": 8, "velocity": 100}, {"time": 1108, "pitch": 51, "duration": 3, "velocity": 95}, {"time": 1111, "pitch": 48, "duration": 3, "velocity": 79}, {"time": 1114, "pitch": 53, "duration": 19, "velocity": 81}, {"time": 1114, "pitch": 60, "duration": 7, "velocity": 88}, {"time": 1114, "pitch": 68, "duration": 9, "velocity": 94}, {"time": 1123, "pitch": 60, "duration": 9, "velocity": 83}, {"time": 1126, "pitch": 65, "duration": 7, "velocity": 96}, {"time": 1132, "pitch": 68, "duration": 6, "velocity": 85}, {"time": 1135, "pitch": 46, "duration": 4, "velocity": 99}, {"time": 1138, "pitch": 48, "duration": 19, "velocity": 79}, {"time": 1138, "pitch": 60, "duration": 6, "velocity": 88}, {"time": 1138, "pitch": 67, "duration": 10, "velocity": 84}, {"time": 1144, "pitch": 55, "duration": 18, "velocity": 73}, {"time": 1147, "pitch": 60, "duration": 12, "velocity": 80}, {"time": 1150, "pitch": 67, "duration": 6, "velocity": 113}, {"time": 1156, "pitch": 63, "duration": 6, "velocity": 96}, {"time": 1162, "pitch": 49, "duration": 19, "velocity": 84}, {"time": 1162, "pitch": 61, "duration": 5, "velocity": 86}, {"time": 1162, "pitch": 65, "duration": 9, "velocity": 88}, {"time": 1168, "pitch": 56, "duration": 13, "velocity": 68}, {"time": 1171, "pitch": 61, "duration": 8, "velocity": 84}, {"time": 1174, "pitch": 63, "duration": 6, "velocity": 100}, {"time": 1174, "pitch": 68, "duration": 11, "velocity": 94}, {"time": 1180, "pitch": 65, "duration": 7, "velocity": 83}, {"time": 1186, "pitch": 48, "duration": 19, "velocity": 87}, {"time": 1192, "pitch": 55, "duration": 13, "velocity": 71}, {"time": 1195, "pitch": 60, "duration": 9, "velocity": 87}, {"time": 1198, "pitch": 63, "duration": 7, "velocity": 84}, {"time": 1204, "pitch": 67, "duration": 6, "velocity": 83}, {"time": 1210, "pitch": 46, "duration": 18, "velocity": 84}, {"time": 1210, "pitch": 61, "duration": 9, "velocity": 87}, {"time": 1210, "pitch": 68, "duration": 4, "velocity": 83}, {"time": 1210, "pitch": 70, "duration": 5, "velocity": 83}, {"time": 1216, "pitch": 53, "duration": 13, "velocity": 48}, {"time": 1219, "pitch": 58, "duration": 5, "velocity": 84}, {"time": 1222, "pitch": 61, "duration": 12, "velocity": 96}, {"time": 1222, "pitch": 70, "duration": 17, "velocity": 100}, {"time": 1228, "pitch": 58, "duration": 6, "velocity": 83}, {"time": 1228, "pitch": 65, "duration": 5, "velocity": 74}, {"time": 1231, "pitch": 46, "duration": 3, "velocity": 90}, {"time": 1234, "pitch": 51, "duration": 19, "velocity": 86}, {"time": 1234, "pitch": 63, "duration": 6, "velocity": 89}, {"time": 1234, "pitch": 67, "duration": 6, "velocity": 86}, {"time": 1240, "pitch": 58, "duration": 12, "velocity": 71}, {"time": 1243, "pitch": 63, "duration": 6, "velocity": 88}, {"time": 1246, "pitch": 70, "duration": 11, "velocity": 104}, {"time": 1246, "pitch": 39, "duration": 12, "velocity": 84}, {"time": 1252, "pitch": 67, "duration": 6, "velocity": 84}, {"time": 1258, "pitch": 44, "duration": 14, "velocity": 82}, {"time": 1258, "pitch": 60, "duration": 10, "velocity": 76}, {"time": 1258, "pitch": 63, "duration": 10, "velocity": 74}, {"time": 1258, "pitch": 68, "duration": 10, "velocity": 87}, {"time": 1264, "pitch": 51, "duration": 37, "velocity": 63}, {"time": 1270, "pitch": 60, "duration": 8, "velocity": 83}, {"time": 1270, "pitch": 63, "duration": 11, "velocity": 87}, {"time": 1270, "pitch": 68, "duration": 7, "velocity": 85}, {"time": 1273, "pitch": 44, "duration": 4, "velocity": 77}, {"time": 1276, "pitch": 56, "duration": 8, "velocity": 71}, {"time": 1276, "pitch": 46, "duration": 3, "velocity": 79}, {"time": 1279, "pitch": 47, "duration": 3, "velocity": 75}, {"time": 1282, "pitch": 60, "duration": 9, "velocity": 88}, {"time": 1282, "pitch": 63, "duration": 7, "velocity": 89}, {"time": 1282, "pitch": 48, "duration": 13, "velocity": 84}, {"time": 1291, "pitch": 56, "duration": 8, "velocity": 80}, {"time": 1294, "pitch": 60, "duration": 11, "velocity": 88}, {"time": 1294, "pitch": 63, "duration": 11, "velocity": 89}, {"time": 1300, "pitch": 56, "duration": 6, "velocity": 64}, {"time": 1301, "pitch": 51, "duration": 1, "velocity": 85}, {"time": 1303, "pitch": 52, "duration": 3, "velocity": 79}, {"time": 1306, "pitch": 53, "duration": 13, "velocity": 97}, {"time": 1312, "pitch": 60, "duration": 12, "velocity": 76}, {"time": 1318, "pitch": 68, "duration": 17, "velocity": 89}, {"time": 1321, "pitch": 53, "duration": 6, "velocity": 87}, {"time": 1321, "pitch": 65, "duration": 14, "velocity": 34}, {"time": 1327, "pitch": 41, "duration": 3, "velocity": 74}, {"time": 1330, "pitch": 48, "duration": 6, "velocity": 84}, {"time": 1336, "pitch": 55, "duration": 17, "velocity": 69}, {"time": 1336, "pitch": 51, "duration": 7, "velocity": 90}, {"time": 1339, "pitch": 60, "duration": 12, "velocity": 84}, {"time": 1342, "pitch": 63, "duration": 4, "velocity": 84}, {"time": 1345, "pitch": 68, "duration": 9, "velocity": 91}, {"time": 1354, "pitch": 49, "duration": 20, "velocity": 83}, {"time": 1354, "pitch": 61, "duration": 8, "velocity": 83}, {"time": 1354, "pitch": 65, "duration": 8, "velocity": 87}, {"time": 1360, "pitch": 56, "duration": 12, "velocity": 38}, {"time": 1366, "pitch": 61, "duration": 12, "velocity": 84}, {"time": 1366, "pitch": 65, "duration": 12, "velocity": 87}, {"time": 1375, "pitch": 49, "duration": 4, "velocity": 90}, {"time": 1378, "pitch": 48, "duration": 19, "velocity": 89}, {"time": 1384, "pitch": 55, "duration": 14, "velocity": 67}, {"time": 1390, "pitch": 63, "duration": 10, "velocity": 91}, {"time": 1390, "pitch": 67, "duration": 9, "velocity": 89}, {"time": 1396, "pitch": 48, "duration": 1, "velocity": 89}, {"time": 1399, "pitch": 47, "duration": 3, "velocity": 85}, {"time": 1402, "pitch": 46, "duration": 18, "velocity": 83}, {"time": 1402, "pitch": 61, "duration": 9, "velocity": 86}, {"time": 1402, "pitch": 70, "duration": 8, "velocity": 91}, {"time": 1408, "pitch": 53, "duration": 12, "velocity": 38}, {"time": 1414, "pitch": 61, "duration": 9, "velocity": 88}, {"time": 1414, "pitch": 70, "duration": 9, "velocity": 89}, {"time": 1417, "pitch": 53, "duration": 3, "velocity": 91}, {"time": 1420, "pitch": 58, "duration": 6, "velocity": 85}, {"time": 1423, "pitch": 46, "duration": 3, "velocity": 100}, {"time": 1426, "pitch": 51, "duration": 29, "velocity": 86}, {"time": 1426, "pitch": 63, "duration": 9, "velocity": 87}, {"time": 1426, "pitch": 67, "duration": 9, "velocity": 85}, {"time": 1435, "pitch": 58, "duration": 29, "velocity": 65}, {"time": 1438, "pitch": 63, "duration": 10, "velocity": 88}, {"time": 1438, "pitch": 67, "duration": 10, "velocity": 85}, {"time": 1450, "pitch": 68, "duration": 13, "velocity": 86}, {"time": 1456, "pitch": 51, "duration": 7, "velocity": 91}, {"time": 1462, "pitch": 67, "duration": 7, "velocity": 81}, {"time": 1463, "pitch": 53, "duration": 10, "velocity": 72}, {"time": 1474, "pitch": 44, "duration": 19, "velocity": 81}, {"time": 1474, "pitch": 60, "duration": 9, "velocity": 80}, {"time": 1474, "pitch": 63, "duration": 8, "velocity": 80}, {"time": 1474, "pitch": 68, "duration": 7, "velocity": 81}, {"time": 1480, "pitch": 56, "duration": 7, "velocity": 66}, {"time": 1486, "pitch": 60, "duration": 8, "velocity": 83}, {"time": 1486, "pitch": 63, "duration": 9, "velocity": 88}, {"time": 1486, "pitch": 68, "duration": 8, "velocity": 86}, {"time": 1492, "pitch": 56, "duration": 6, "velocity": 65}, {"time": 1495, "pitch": 44, "duration": 3, "velocity": 79}, {"time": 1498, "pitch": 48, "duration": 20, "velocity": 81}, {"time": 1498, "pitch": 60, "duration": 9, "velocity": 83}, {"time": 1498, "pitch": 63, "duration": 9, "velocity": 87}, {"time": 1498, "pitch": 67, "duration": 9, "velocity": 81}, {"time": 1510, "pitch": 60, "duration": 8, "velocity": 76}, {"time": 1510, "pitch": 63, "duration": 8, "velocity": 85}, {"time": 1510, "pitch": 67, "duration": 8, "velocity": 76}, {"time": 1517, "pitch": 51, "duration": 6, "velocity": 75}, {"time": 1522, "pitch": 53, "duration": 22, "velocity": 83}, {"time": 1522, "pitch": 60, "duration": 9, "velocity": 79}, {"time": 1522, "pitch": 65, "duration": 9, "velocity": 83}, {"time": 1522, "pitch": 68, "duration": 9, "velocity": 81}, {"time": 1534, "pitch": 60, "duration": 8, "velocity": 81}, {"time": 1534, "pitch": 65, "duration": 8, "velocity": 84}, {"time": 1534, "pitch": 68, "duration": 8, "velocity": 81}, {"time": 1546, "pitch": 48, "duration": 19, "velocity": 86}, {"time": 1552, "pitch": 55, "duration": 18, "velocity": 73}, {"time": 1558, "pitch": 60, "duration": 8, "velocity": 81}, {"time": 1561, "pitch": 75, "duration": 4, "velocity": 61}, {"time": 1561, "pitch": 70, "duration": 4, "velocity": 62}, {"time": 1564, "pitch": 48, "duration": 1, "velocity": 85}, {"time": 1564, "pitch": 63, "duration": 7, "velocity": 86}, {"time": 1567, "pitch": 75, "duration": 4, "velocity": 68}, {"time": 1567, "pitch": 70, "duration": 4, "velocity": 52}, {"time": 1570, "pitch": 49, "duration": 19, "velocity": 84}, {"time": 1570, "pitch": 61, "duration": 10, "velocity": 80}, {"time": 1570, "pitch": 65, "duration": 9, "velocity": 86}, {"time": 1576, "pitch": 56, "duration": 12, "velocity": 38}, {"time": 1582, "pitch": 61, "duration": 7, "velocity": 78}, {"time": 1582, "pitch": 65, "duration": 12, "velocity": 82}, {"time": 1588, "pitch": 49, "duration": 1, "velocity": 81}, {"time": 1594, "pitch": 48, "duration": 19, "velocity": 71}, {"time": 1594, "pitch": 60, "duration": 8, "velocity": 81}, {"time": 1594, "pitch": 67, "duration": 8, "velocity": 78}, {"time": 1600, "pitch": 55, "duration": 10, "velocity": 65}, {"time": 1606, "pitch": 60, "duration": 10, "velocity": 91}, {"time": 1606, "pitch": 67, "duration": 12, "velocity": 89}, {"time": 1618, "pitch": 53, "duration": 19, "velocity": 88}, {"time": 1618, "pitch": 46, "duration": 19, "velocity": 88}, {"time": 1624, "pitch": 60, "duration": 13, "velocity": 78}, {"time": 1630, "pitch": 65, "duration": 13, "velocity": 90}, {"time": 1636, "pitch": 53, "duration": 1, "velocity": 82}, {"time": 1639, "pitch": 46, "duration": 1, "velocity": 87}, {"time": 1642, "pitch": 51, "duration": 17, "velocity": 67}, {"time": 1648, "pitch": 58, "duration": 4, "velocity": 78}, {"time": 1654, "pitch": 67, "duration": 12, "velocity": 116}, {"time": 1660, "pitch": 63, "duration": 7, "velocity": 86}, {"time": 1666, "pitch": 44, "duration": 23, "velocity": 78}, {"time": 1666, "pitch": 60, "duration": 12, "velocity": 76}, {"time": 1666, "pitch": 68, "duration": 4, "velocity": 84}, {"time": 1672, "pitch": 51, "duration": 17, "velocity": 62}, {"time": 1678, "pitch": 58, "duration": 8, "velocity": 86}, {"time": 1678, "pitch": 63, "duration": 7, "velocity": 87}, {"time": 1684, "pitch": 60, "duration": 6, "velocity": 80}, {"time": 1690, "pitch": 48, "duration": 19, "velocity": 78}, {"time": 1696, "pitch": 55, "duration": 17, "velocity": 66}, {"time": 1696, "pitch": 75, "duration": 5, "velocity": 62}, {"time": 1697, "pitch": 70, "duration": 3, "velocity": 62}, {"time": 1702, "pitch": 63, "duration": 11, "velocity": 89}, {"time": 1702, "pitch": 67, "duration": 11, "velocity": 86}, {"time": 1702, "pitch": 75, "duration": 4, "velocity": 80}, {"time": 1702, "pitch": 70, "duration": 4, "velocity": 71}, {"time": 1705, "pitch": 58, "duration": 4, "velocity": 85}, {"time": 1708, "pitch": 56, "duration": 3, "velocity": 77}, {"time": 1711, "pitch": 48, "duration": 2, "velocity": 80}, {"time": 1714, "pitch": 53, "duration": 19, "velocity": 84}, {"time": 1714, "pitch": 60, "duration": 11, "velocity": 83}, {"time": 1714, "pitch": 68, "duration": 10, "velocity": 84}, {"time": 1726, "pitch": 60, "duration": 12, "velocity": 76}, {"time": 1726, "pitch": 65, "duration": 7, "velocity": 85}, {"time": 1732, "pitch": 67, "duration": 13, "velocity": 84}, {"time": 1733, "pitch": 53, "duration": 3, "velocity": 88}, {"time": 1736, "pitch": 51, "duration": 3, "velocity": 77}, {"time": 1738, "pitch": 63, "duration": 9, "velocity": 88}, {"time": 1739, "pitch": 48, "duration": 2, "velocity": 85}, {"time": 1744, "pitch": 55, "duration": 18, "velocity": 65}, {"time": 1745, "pitch": 48, "duration": 6, "velocity": 87}, {"time": 1747, "pitch": 75, "duration": 4, "velocity": 62}, {"time": 1747, "pitch": 70, "duration": 4, "velocity": 62}, {"time": 1750, "pitch": 67, "duration": 7, "velocity": 97}, {"time": 1753, "pitch": 75, "duration": 4, "velocity": 80}, {"time": 1753, "pitch": 70, "duration": 4, "velocity": 71}, {"time": 1756, "pitch": 63, "duration": 6, "velocity": 86}, {"time": 1762, "pitch": 49, "duration": 20, "velocity": 83}, {"time": 1762, "pitch": 61, "duration": 8, "velocity": 82}, {"time": 1762, "pitch": 65, "duration": 7, "velocity": 84}, {"time": 1762, "pitch": 68, "duration": 7, "velocity": 83}, {"time": 1774, "pitch": 61, "duration": 9, "velocity": 86}, {"time": 1774, "pitch": 65, "duration": 12, "velocity": 86}, {"time": 1774, "pitch": 68, "duration": 15, "velocity": 87}, {"time": 1783, "pitch": 49, "duration": 4, "velocity": 84}, {"time": 1786, "pitch": 46, "duration": 18, "velocity": 79}, {"time": 1786, "pitch": 61, "duration": 7, "velocity": 86}, {"time": 1786, "pitch": 65, "duration": 7, "velocity": 86}, {"time": 1792, "pitch": 53, "duration": 7, "velocity": 42}, {"time": 1792, "pitch": 75, "duration": 4, "velocity": 77}, {"time": 1793, "pitch": 70, "duration": 3, "velocity": 77}, {"time": 1798, "pitch": 65, "duration": 11, "velocity": 98}, {"time": 1798, "pitch": 75, "duration": 4, "velocity": 95}, {"time": 1798, "pitch": 70, "duration": 4, "velocity": 86}, {"time": 1804, "pitch": 61, "duration": 6, "velocity": 77}, {"time": 1805, "pitch": 46, "duration": 1, "velocity": 80}, {"time": 1807, "pitch": 46, "duration": 4, "velocity": 75}, {"time": 1810, "pitch": 51, "duration": 22, "velocity": 86}, {"time": 1810, "pitch": 58, "duration": 3, "velocity": 79}, {"time": 1810, "pitch": 63, "duration": 6, "velocity": 61}, {"time": 1810, "pitch": 67, "duration": 7, "velocity": 82}, {"time": 1816, "pitch": 58, "duration": 14, "velocity": 66}, {"time": 1822, "pitch": 63, "duration": 6, "velocity": 88}, {"time": 1828, "pitch": 68, "duration": 6, "velocity": 87}, {"time": 1829, "pitch": 44, "duration": 3, "velocity": 83}, {"time": 1831, "pitch": 46, "duration": 4, "velocity": 88}, {"time": 1834, "pitch": 51, "duration": 43, "velocity": 84}, {"time": 1834, "pitch": 63, "duration": 5, "velocity": 88}, {"time": 1834, "pitch": 67, "duration": 7, "velocity": 91}, {"time": 1834, "pitch": 70, "duration": 7, "velocity": 88}, {"time": 1840, "pitch": 58, "duration": 35, "velocity": 75}, {"time": 1843, "pitch": 63, "duration": 5, "velocity": 82}, {"time": 1846, "pitch": 67, "duration": 4, "velocity": 88}, {"time": 1846, "pitch": 75, "duration": 5, "velocity": 90}, {"time": 1852, "pitch": 63, "duration": 9, "velocity": 84}, {"time": 1853, "pitch": 46, "duration": 6, "velocity": 88}, {"time": 1858, "pitch": 39, "duration": 22, "velocity": 95}, {"time": 1858, "pitch": 70, "duration": 6, "velocity": 96}, {"time": 1858, "pitch": 79, "duration": 5, "velocity": 109}, {"time": 1864, "pitch": 63, "duration": 10, "velocity": 81}, {"time": 1870, "pitch": 67, "duration": 7, "velocity": 109}, {"time": 1870, "pitch": 75, "duration": 7, "velocity": 96}, {"time": 1876, "pitch": 70, "duration": 2, "velocity": 86}, {"time": 1882, "pitch": 44, "duration": 19, "velocity": 85}, {"time": 1882, "pitch": 63, "duration": 8, "velocity": 88}, {"time": 1882, "pitch": 68, "duration": 3, "velocity": 91}, {"time": 1882, "pitch": 72, "duration": 6, "velocity": 92}, {"time": 1888, "pitch": 51, "duration": 13, "velocity": 67}, {"time": 1894, "pitch": 60, "duration": 10, "velocity": 91}, {"time": 1894, "pitch": 63, "duration": 10, "velocity": 110}, {"time": 1894, "pitch": 68, "duration": 9, "velocity": 96}, {"time": 1900, "pitch": 56, "duration": 2, "velocity": 78}, {"time": 1906, "pitch": 48, "duration": 21, "velocity": 82}, {"time": 1906, "pitch": 63, "duration": 7, "velocity": 88}, {"time": 1906, "pitch": 67, "duration": 6, "velocity": 76}, {"time": 1912, "pitch": 55, "duration": 8, "velocity": 70}, {"time": 1918, "pitch": 60, "duration": 8, "velocity": 94}, {"time": 1918, "pitch": 67, "duration": 10, "velocity": 100}, {"time": 1924, "pitch": 55, "duration": 6, "velocity": 71}, {"time": 1924, "pitch": 63, "duration": 6, "velocity": 79}, {"time": 1930, "pitch": 53, "duration": 22, "velocity": 88}, {"time": 1930, "pitch": 60, "duration": 9, "velocity": 84}, {"time": 1930, "pitch": 65, "duration": 9, "velocity": 88}, {"time": 1930, "pitch": 68, "duration": 8, "velocity": 88}, {"time": 1942, "pitch": 60, "duration": 9, "velocity": 87}, {"time": 1942, "pitch": 65, "duration": 10, "velocity": 88}, {"time": 1942, "pitch": 68, "duration": 8, "velocity": 86}, {"time": 1954, "pitch": 48, "duration": 19, "velocity": 81}, {"time": 1954, "pitch": 60, "duration": 10, "velocity": 80}, {"time": 1954, "pitch": 63, "duration": 10, "velocity": 84}, {"time": 1954, "pitch": 67, "duration": 10, "velocity": 76}, {"time": 1963, "pitch": 55, "duration": 5, "velocity": 78}, {"time": 1966, "pitch": 60, "duration": 7, "velocity": 100}, {"time": 1966, "pitch": 67, "duration": 8, "velocity": 106}, {"time": 1972, "pitch": 55, "duration": 6, "velocity": 77}, {"time": 1972, "pitch": 63, "duration": 6, "velocity": 83}, {"time": 1978, "pitch": 49, "duration": 21, "velocity": 84}, {"time": 1978, "pitch": 61, "duration": 4, "velocity": 88}, {"time": 1978, "pitch": 65, "duration": 8, "velocity": 91}, {"time": 1978, "pitch": 68, "duration": 7, "velocity": 90}, {"time": 1984, "pitch": 56, "duration": 8, "velocity": 64}, {"time": 1990, "pitch": 65, "duration": 11, "velocity": 93}, {"time": 1990, "pitch": 68, "duration": 11, "velocity": 89}, {"time": 1996, "pitch": 56, "duration": 2, "velocity": 80}, {"time": 2002, "pitch": 48, "duration": 18, "velocity": 81}, {"time": 2002, "pitch": 60, "duration": 5, "velocity": 84}, {"time": 2002, "pitch": 67, "duration": 9, "velocity": 85}, {"time": 2008, "pitch": 55, "duration": 18, "velocity": 71}, {"time": 2011, "pitch": 60, "duration": 11, "velocity": 82}, {"time": 2014, "pitch": 63, "duration": 7, "velocity": 98}, {"time": 2020, "pitch": 67, "duration": 6, "velocity": 90}, {"time": 2026, "pitch": 49, "duration": 19, "velocity": 84}, {"time": 2026, "pitch": 61, "duration": 9, "velocity": 85}, {"time": 2026, "pitch": 65, "duration": 8, "velocity": 88}, {"time": 2026, "pitch": 68, "duration": 8, "velocity": 86}, {"time": 2032, "pitch": 56, "duration": 5, "velocity": 38}, {"time": 2038, "pitch": 61, "duration": 7, "velocity": 88}, {"time": 2038, "pitch": 65, "duration": 11, "velocity": 89}, {"time": 2038, "pitch": 68, "duration": 7, "velocity": 88}, {"time": 2044, "pitch": 56, "duration": 6, "velocity": 74}, {"time": 2050, "pitch": 51, "duration": 20, "velocity": 84}, {"time": 2050, "pitch": 63, "duration": 4, "velocity": 87}, {"time": 2050, "pitch": 68, "duration": 5, "velocity": 88}, {"time": 2053, "pitch": 58, "duration": 16, "velocity": 81}, {"time": 2056, "pitch": 63, "duration": 7, "velocity": 88}, {"time": 2059, "pitch": 67, "duration": 9, "velocity": 84}, {"time": 2062, "pitch": 75, "duration": 7, "velocity": 92}, {"time": 2065, "pitch": 63, "duration": 3, "velocity": 91}, {"time": 2068, "pitch": 70, "duration": 4, "velocity": 87}, {"time": 2071, "pitch": 75, "duration": 4, "velocity": 91}, {"time": 2074, "pitch": 44, "duration": 18, "velocity": 86}, {"time": 2074, "pitch": 68, "duration": 5, "velocity": 83}, {"time": 2074, "pitch": 72, "duration": 4, "velocity": 90}, {"time": 2080, "pitch": 51, "duration": 14, "velocity": 64}, {"time": 2086, "pitch": 60, "duration": 9, "velocity": 93}, {"time": 2086, "pitch": 68, "duration": 10, "velocity": 91}, {"time": 2092, "pitch": 56, "duration": 4, "velocity": 78}, {"time": 2092, "pitch": 63, "duration": 5, "velocity": 81}, {"time": 2096, "pitch": 46, "duration": 3, "velocity": 88}, {"time": 2098, "pitch": 48, "duration": 20, "velocity": 85}, {"time": 2104, "pitch": 55, "duration": 17, "velocity": 70}, {"time": 2107, "pitch": 60, "duration": 12, "velocity": 84}, {"time": 2110, "pitch": 63, "duration": 13, "velocity": 89}, {"time": 2113, "pitch": 67, "duration": 9, "velocity": 100}, {"time": 2116, "pitch": 51, "duration": 4, "velocity": 94}, {"time": 2119, "pitch": 48, "duration": 4, "velocity": 64}, {"time": 2122, "pitch": 53, "duration": 19, "velocity": 81}, {"time": 2122, "pitch": 60, "duration": 7, "velocity": 88}, {"time": 2122, "pitch": 68, "duration": 10, "velocity": 94}, {"time": 2131, "pitch": 60, "duration": 10, "velocity": 83}, {"time": 2134, "pitch": 65, "duration": 7, "velocity": 96}, {"time": 2140, "pitch": 68, "duration": 6, "velocity": 85}, {"time": 2144, "pitch": 46, "duration": 3, "velocity": 90}, {"time": 2146, "pitch": 48, "duration": 19, "velocity": 79}, {"time": 2146, "pitch": 60, "duration": 6, "velocity": 88}, {"time": 2146, "pitch": 67, "duration": 10, "velocity": 84}, {"time": 2152, "pitch": 55, "duration": 19, "velocity": 73}, {"time": 2155, "pitch": 60, "duration": 13, "velocity": 80}, {"time": 2158, "pitch": 67, "duration": 6, "velocity": 113}, {"time": 2164, "pitch": 63, "duration": 6, "velocity": 96}, {"time": 2170, "pitch": 49, "duration": 20, "velocity": 84}, {"time": 2170, "pitch": 61, "duration": 6, "velocity": 86}, {"time": 2170, "pitch": 65, "duration": 10, "velocity": 88}, {"time": 2176, "pitch": 56, "duration": 13, "velocity": 68}, {"time": 2179, "pitch": 61, "duration": 8, "velocity": 84}, {"time": 2182, "pitch": 63, "duration": 7, "velocity": 100}, {"time": 2182, "pitch": 68, "duration": 11, "velocity": 94}, {"time": 2188, "pitch": 65, "duration": 7, "velocity": 83}, {"time": 2194, "pitch": 48, "duration": 19, "velocity": 87}, {"time": 2200, "pitch": 55, "duration": 13, "velocity": 71}, {"time": 2203, "pitch": 60, "duration": 9, "velocity": 87}, {"time": 2206, "pitch": 63, "duration": 8, "velocity": 84}, {"time": 2212, "pitch": 67, "duration": 6, "velocity": 83}, {"time": 2218, "pitch": 46, "duration": 18, "velocity": 84}, {"time": 2218, "pitch": 61, "duration": 10, "velocity": 87}, {"time": 2218, "pitch": 68, "duration": 4, "velocity": 83}, {"time": 2218, "pitch": 70, "duration": 5, "velocity": 83}, {"time": 2224, "pitch": 53, "duration": 13, "velocity": 48}, {"time": 2227, "pitch": 58, "duration": 6, "velocity": 84}, {"time": 2230, "pitch": 61, "duration": 12, "velocity": 96}, {"time": 2230, "pitch": 70, "duration": 18, "velocity": 100}, {"time": 2236, "pitch": 58, "duration": 6, "velocity": 83}, {"time": 2236, "pitch": 65, "duration": 5, "velocity": 74}, {"time": 2239, "pitch": 46, "duration": 4, "velocity": 94}, {"time": 2242, "pitch": 51, "duration": 14, "velocity": 86}, {"time": 2242, "pitch": 63, "duration": 6, "velocity": 89}, {"time": 2242, "pitch": 67, "duration": 7, "velocity": 86}, {"time": 2248, "pitch": 58, "duration": 13, "velocity": 71}, {"time": 2251, "pitch": 63, "duration": 6, "velocity": 88}, {"time": 2254, "pitch": 70, "duration": 11, "velocity": 104}, {"time": 2255, "pitch": 39, "duration": 12, "velocity": 83}, {"time": 2260, "pitch": 67, "duration": 7, "velocity": 84}, {"time": 2266, "pitch": 44, "duration": 22, "velocity": 86}, {"time": 2266, "pitch": 60, "duration": 10, "velocity": 88}, {"time": 2266, "pitch": 63, "duration": 9, "velocity": 92}, {"time": 2266, "pitch": 68, "duration": 8, "velocity": 89}, {"time": 2272, "pitch": 51, "duration": 16, "velocity": 46}, {"time": 2278, "pitch": 60, "duration": 8, "velocity": 84}, {"time": 2278, "pitch": 63, "duration": 7, "velocity": 89}, {"time": 2278, "pitch": 68, "duration": 11, "velocity": 86}, {"time": 2285, "pitch": 44, "duration": 3, "velocity": 79}, {"time": 2290, "pitch": 58, "duration": 11, "velocity": 80}, {"time": 2290, "pitch": 62, "duration": 11, "velocity": 85}, {"time": 2290, "pitch": 65, "duration": 10, "velocity": 81}, {"time": 2302, "pitch": 58, "duration": 11, "velocity": 80}, {"time": 2302, "pitch": 62, "duration": 13, "velocity": 80}, {"time": 2302, "pitch": 65, "duration": 10, "velocity": 81}, {"time": 2309, "pitch": 44, "duration": 1, "velocity": 84}, {"time": 2311, "pitch": 44, "duration": 4, "velocity": 90}, {"time": 2314, "pitch": 49, "duration": 19, "velocity": 84}, {"time": 2314, "pitch": 61, "duration": 8, "velocity": 80}, {"time": 2314, "pitch": 65, "duration": 8, "velocity": 81}, {"time": 2314, "pitch": 68, "duration": 7, "velocity": 83}, {"time": 2320, "pitch": 56, "duration": 13, "velocity": 64}, {"time": 2326, "pitch": 61, "duration": 9, "velocity": 86}, {"time": 2326, "pitch": 65, "duration": 10, "velocity": 88}, {"time": 2326, "pitch": 68, "duration": 10, "velocity": 86}, {"time": 2338, "pitch": 44, "duration": 20, "velocity": 80}, {"time": 2338, "pitch": 60, "duration": 10, "velocity": 81}, {"time": 2338, "pitch": 63, "duration": 9, "velocity": 87}, {"time": 2338, "pitch": 68, "duration": 10, "velocity": 84}, {"time": 2347, "pitch": 56, "duration": 6, "velocity": 63}, {"time": 2350, "pitch": 60, "duration": 10, "velocity": 88}, {"time": 2350, "pitch": 63, "duration": 10, "velocity": 90}, {"time": 2350, "pitch": 68, "duration": 10, "velocity": 90}, {"time": 2354, "pitch": 51, "duration": 2, "velocity": 91}, {"time": 2360, "pitch": 39, "duration": 3, "velocity": 94}, {"time": 2362, "pitch": 42, "duration": 23, "velocity": 81}, {"time": 2362, "pitch": 58, "duration": 11, "velocity": 78}, {"time": 2362, "pitch": 61, "duration": 10, "velocity": 79}, {"time": 2362, "pitch": 64, "duration": 9, "velocity": 83}, {"time": 2374, "pitch": 58, "duration": 12, "velocity": 84}, {"time": 2374, "pitch": 61, "duration": 9, "velocity": 87}, {"time": 2374, "pitch": 64, "duration": 11, "velocity": 87}, {"time": 2381, "pitch": 42, "duration": 4, "velocity": 84}, {"time": 2386, "pitch": 58, "duration": 21, "velocity": 70}, {"time": 2386, "pitch": 61, "duration": 11, "velocity": 87}, {"time": 2386, "pitch": 64, "duration": 11, "velocity": 77}, {"time": 2393, "pitch": 45, "duration": 3, "velocity": 82}, {"time": 2396, "pitch": 44, "duration": 2, "velocity": 86}, {"time": 2398, "pitch": 61, "duration": 9, "velocity": 81}, {"time": 2398, "pitch": 64, "duration": 7, "velocity": 82}, {"time": 2402, "pitch": 44, "duration": 3, "velocity": 83}, {"time": 2405, "pitch": 42, "duration": 3, "velocity": 76}, {"time": 2407, "pitch": 40, "duration": 3, "velocity": 73}, {"time": 2410, "pitch": 56, "duration": 11, "velocity": 83}, {"time": 2410, "pitch": 60, "duration": 11, "velocity": 83}, {"time": 2410, "pitch": 63, "duration": 10, "velocity": 84}, {"time": 2411, "pitch": 39, "duration": 4, "velocity": 83}, {"time": 2417, "pitch": 39, "duration": 4, "velocity": 76}, {"time": 2422, "pitch": 56, "duration": 9, "velocity": 83}, {"time": 2422, "pitch": 60, "duration": 9, "velocity": 86}, {"time": 2422, "pitch": 63, "duration": 9, "velocity": 86}, {"time": 2423, "pitch": 51, "duration": 1, "velocity": 77}, {"time": 2423, "pitch": 51, "duration": 1, "velocity": 81}, {"time": 2426, "pitch": 39, "duration": 1, "velocity": 84}, {"time": 2431, "pitch": 39, "duration": 1, "velocity": 81}, {"time": 2434, "pitch": 56, "duration": 9, "velocity": 78}, {"time": 2434, "pitch": 60, "duration": 10, "velocity": 82}, {"time": 2434, "pitch": 63, "duration": 9, "velocity": 82}, {"time": 2438, "pitch": 39, "duration": 3, "velocity": 90}, {"time": 2441, "pitch": 51, "duration": 1, "velocity": 76}, {"time": 2444, "pitch": 39, "duration": 1, "velocity": 79}, {"time": 2446, "pitch": 56, "duration": 9, "velocity": 84}, {"time": 2446, "pitch": 60, "duration": 10, "velocity": 87}, {"time": 2446, "pitch": 63, "duration": 10, "velocity": 86}, {"time": 2450, "pitch": 39, "duration": 3, "velocity": 91}, {"time": 2453, "pitch": 51, "duration": 3, "velocity": 84}, {"time": 2455, "pitch": 39, "duration": 1, "velocity": 91}, {"time": 2458, "pitch": 44, "duration": 19, "velocity": 85}, {"time": 2458, "pitch": 63, "duration": 8, "velocity": 88}, {"time": 2458, "pitch": 68, "duration": 3, "velocity": 91}, {"time": 2458, "pitch": 72, "duration": 6, "velocity": 92}, {"time": 2464, "pitch": 51, "duration": 13, "velocity": 67}, {"time": 2470, "pitch": 60, "duration": 10, "velocity": 91}, {"time": 2470, "pitch": 63, "duration": 10, "velocity": 110}, {"time": 2470, "pitch": 68, "duration": 9, "velocity": 96}, {"time": 2476, "pitch": 56, "duration": 2, "velocity": 78}, {"time": 2482, "pitch": 48, "duration": 21, "velocity": 82}, {"time": 2482, "pitch": 63, "duration": 7, "velocity": 88}, {"time": 2482, "pitch": 67, "duration": 6, "velocity": 76}, {"time": 2488, "pitch": 55, "duration": 8, "velocity": 70}, {"time": 2494, "pitch": 60, "duration": 8, "velocity": 94}, {"time": 2494, "pitch": 67, "duration": 10, "velocity": 100}, {"time": 2500, "pitch": 55, "duration": 6, "velocity": 71}, {"time": 2500, "pitch": 63, "duration": 6, "velocity": 79}, {"time": 2506, "pitch": 53, "duration": 22, "velocity": 88}, {"time": 2506, "pitch": 60, "duration": 9, "velocity": 84}, {"time": 2506, "pitch": 65, "duration": 9, "velocity": 88}, {"time": 2506, "pitch": 68, "duration": 8, "velocity": 88}, {"time": 2518, "pitch": 60, "duration": 9, "velocity": 87}, {"time": 2518, "pitch": 65, "duration": 10, "velocity": 88}, {"time": 2518, "pitch": 68, "duration": 8, "velocity": 86}, {"time": 2530, "pitch": 48, "duration": 19, "velocity": 81}, {"time": 2530, "pitch": 60, "duration": 10, "velocity": 80}, {"time": 2530, "pitch": 63, "duration": 10, "velocity": 84}, {"time": 2530, "pitch": 67, "duration": 10, "velocity": 76}, {"time": 2539, "pitch": 55, "duration": 5, "velocity": 78}, {"time": 2542, "pitch": 60, "duration": 7, "velocity": 100}, {"time": 2542, "pitch": 67, "duration": 8, "velocity": 106}, {"time": 2548, "pitch": 55, "duration": 6, "velocity": 77}, {"time": 2548, "pitch": 63, "duration": 6, "velocity": 83}, {"time": 2554, "pitch": 49, "duration": 21, "velocity": 84}, {"time": 2554, "pitch": 61, "duration": 4, "velocity": 88}, {"time": 2554, "pitch": 65, "duration": 8, "velocity": 91}, {"time": 2554, "pitch": 68, "duration": 7, "velocity": 90}, {"time": 2560, "pitch": 56, "duration": 8, "velocity": 64}, {"time": 2566, "pitch": 65, "duration": 11, "velocity": 93}, {"time": 2566, "pitch": 68, "duration": 11, "velocity": 89}, {"time": 2572, "pitch": 56, "duration": 2, "velocity": 80}, {"time": 2578, "pitch": 48, "duration": 18, "velocity": 81}, {"time": 2578, "pitch": 60, "duration": 5, "velocity": 84}, {"time": 2578, "pitch": 67, "duration": 9, "velocity": 85}, {"time": 2584, "pitch": 55, "duration": 18, "velocity": 71}, {"time": 2587, "pitch": 60, "duration": 11, "velocity": 82}, {"time": 2590, "pitch": 63, "duration": 7, "velocity": 98}, {"time": 2596, "pitch": 67, "duration": 6, "velocity": 90}, {"time": 2602, "pitch": 49, "duration": 19, "velocity": 84}, {"time": 2602, "pitch": 61, "duration": 9, "velocity": 85}, {"time": 2602, "pitch": 65, "duration": 8, "velocity": 88}, {"time": 2602, "pitch": 68, "duration": 8, "velocity": 86}, {"time": 2608, "pitch": 56, "duration": 5, "velocity": 38}, {"time": 2614, "pitch": 61, "duration": 7, "velocity": 88}, {"time": 2614, "pitch": 65, "duration": 11, "velocity": 89}, {"time": 2614, "pitch": 68, "duration": 7, "velocity": 88}, {"time": 2620, "pitch": 56, "duration": 6, "velocity": 74}, {"time": 2626, "pitch": 51, "duration": 20, "velocity": 84}, {"time": 2626, "pitch": 63, "duration": 4, "velocity": 87}, {"time": 2626, "pitch": 68, "duration": 5, "velocity": 88}, {"time": 2629, "pitch": 58, "duration": 16, "velocity": 81}, {"time": 2632, "pitch": 63, "duration": 7, "velocity": 88}, {"time": 2635, "pitch": 67, "duration": 9, "velocity": 84}, {"time": 2636, "pitch": 39, "duration": 3, "velocity": 88}, {"time": 2638, "pitch": 75, "duration": 7, "velocity": 92}, {"time": 2641, "pitch": 63, "duration": 3, "velocity": 91}, {"time": 2644, "pitch": 70, "duration": 4, "velocity": 87}, {"time": 2647, "pitch": 75, "duration": 4, "velocity": 91}, {"time": 2648, "pitch": 39, "duration": 3, "velocity": 85}, {"time": 2650, "pitch": 44, "duration": 18, "velocity": 86}, {"time": 2650, "pitch": 68, "duration": 5, "velocity": 83}, {"time": 2650, "pitch": 72, "duration": 4, "velocity": 90}, {"time": 2656, "pitch": 51, "duration": 14, "velocity": 64}, {"time": 2662, "pitch": 60, "duration": 9, "velocity": 93}, {"time": 2662, "pitch": 68, "duration": 10, "velocity": 91}, {"time": 2668, "pitch": 56, "duration": 4, "velocity": 78}, {"time": 2668, "pitch": 63, "duration": 5, "velocity": 81}, {"time": 2672, "pitch": 46, "duration": 4, "velocity": 80}, {"time": 2674, "pitch": 48, "duration": 20, "velocity": 85}, {"time": 2680, "pitch": 55, "duration": 17, "velocity": 70}, {"time": 2683, "pitch": 60, "duration": 12, "velocity": 84}, {"time": 2686, "pitch": 63, "duration": 13, "velocity": 89}, {"time": 2689, "pitch": 67, "duration": 9, "velocity": 100}, {"time": 2693, "pitch": 51, "duration": 3, "velocity": 95}, {"time": 2696, "pitch": 48, "duration": 3, "velocity": 76}, {"time": 2698, "pitch": 53, "duration": 19, "velocity": 81}, {"time": 2698, "pitch": 60, "duration": 7, "velocity": 88}, {"time": 2698, "pitch": 68, "duration": 10, "velocity": 94}, {"time": 2707, "pitch": 60, "duration": 10, "velocity": 83}, {"time": 2710, "pitch": 65, "duration": 7, "velocity": 96}, {"time": 2716, "pitch": 68, "duration": 6, "velocity": 85}, {"time": 2719, "pitch": 46, "duration": 4, "velocity": 94}, {"time": 2722, "pitch": 48, "duration": 19, "velocity": 79}, {"time": 2722, "pitch": 60, "duration": 6, "velocity": 88}, {"time": 2722, "pitch": 67, "duration": 10, "velocity": 84}, {"time": 2728, "pitch": 55, "duration": 19, "velocity": 73}, {"time": 2731, "pitch": 60, "duration": 13, "velocity": 80}, {"time": 2734, "pitch": 67, "duration": 6, "velocity": 113}, {"time": 2740, "pitch": 63, "duration": 6, "velocity": 96}, {"time": 2746, "pitch": 49, "duration": 20, "velocity": 84}, {"time": 2746, "pitch": 61, "duration": 6, "velocity": 86}, {"time": 2746, "pitch": 65, "duration": 10, "velocity": 88}, {"time": 2752, "pitch": 56, "duration": 13, "velocity": 68}, {"time": 2755, "pitch": 61, "duration": 8, "velocity": 84}, {"time": 2758, "pitch": 63, "duration": 7, "velocity": 100}, {"time": 2758, "pitch": 68, "duration": 11, "velocity": 94}, {"time": 2764, "pitch": 65, "duration": 7, "velocity": 83}, {"time": 2771, "pitch": 48, "duration": 3, "velocity": 95}, {"time": 2776, "pitch": 55, "duration": 13, "velocity": 71}, {"time": 2777, "pitch": 48, "duration": 6, "velocity": 95}, {"time": 2779, "pitch": 60, "duration": 9, "velocity": 87}, {"time": 2782, "pitch": 63, "duration": 8, "velocity": 84}, {"time": 2788, "pitch": 67, "duration": 6, "velocity": 83}, {"time": 2794, "pitch": 46, "duration": 18, "velocity": 84}, {"time": 2794, "pitch": 61, "duration": 10, "velocity": 87}, {"time": 2794, "pitch": 68, "duration": 4, "velocity": 83}, {"time": 2794, "pitch": 70, "duration": 5, "velocity": 83}, {"time": 2800, "pitch": 53, "duration": 13, "velocity": 48}, {"time": 2803, "pitch": 58, "duration": 6, "velocity": 84}, {"time": 2806, "pitch": 61, "duration": 12, "velocity": 96}, {"time": 2806, "pitch": 70, "duration": 18, "velocity": 100}, {"time": 2812, "pitch": 58, "duration": 6, "velocity": 83}, {"time": 2812, "pitch": 65, "duration": 5, "velocity": 74}, {"time": 2816, "pitch": 46, "duration": 4, "velocity": 80}, {"time": 2818, "pitch": 51, "duration": 20, "velocity": 86}, {"time": 2818, "pitch": 63, "duration": 6, "velocity": 89}, {"time": 2818, "pitch": 67, "duration": 7, "velocity": 86}, {"time": 2824, "pitch": 58, "duration": 13, "velocity": 71}, {"time": 2827, "pitch": 63, "duration": 6, "velocity": 88}, {"time": 2830, "pitch": 70, "duration": 11, "velocity": 104}, {"time": 2831, "pitch": 39, "duration": 12, "velocity": 85}, {"time": 2836, "pitch": 67, "duration": 7, "velocity": 84}, {"time": 2842, "pitch": 44, "duration": 19, "velocity": 86}, {"time": 2842, "pitch": 60, "duration": 8, "velocity": 85}, {"time": 2842, "pitch": 63, "duration": 8, "velocity": 87}, {"time": 2842, "pitch": 68, "duration": 7, "velocity": 86}, {"time": 2848, "pitch": 56, "duration": 8, "velocity": 69}, {"time": 2854, "pitch": 60, "duration": 10, "velocity": 85}, {"time": 2854, "pitch": 63, "duration": 11, "velocity": 88}, {"time": 2854, "pitch": 68, "duration": 9, "velocity": 87}, {"time": 2858, "pitch": 44, "duration": 3, "velocity": 90}, {"time": 2860, "pitch": 56, "duration": 6, "velocity": 76}, {"time": 2861, "pitch": 46, "duration": 3, "velocity": 83}, {"time": 2864, "pitch": 47, "duration": 3, "velocity": 80}, {"time": 2866, "pitch": 48, "duration": 16, "velocity": 83}, {"time": 2866, "pitch": 60, "duration": 9, "velocity": 83}, {"time": 2866, "pitch": 63, "duration": 9, "velocity": 88}, {"time": 2866, "pitch": 67, "duration": 10, "velocity": 83}, {"time": 2878, "pitch": 60, "duration": 7, "velocity": 87}, {"time": 2878, "pitch": 63, "duration": 11, "velocity": 94}, {"time": 2878, "pitch": 67, "duration": 9, "velocity": 79}, {"time": 2885, "pitch": 51, "duration": 3, "velocity": 92}, {"time": 2888, "pitch": 52, "duration": 3, "velocity": 90}, {"time": 2890, "pitch": 53, "duration": 23, "velocity": 82}, {"time": 2890, "pitch": 60, "duration": 10, "velocity": 82}, {"time": 2890, "pitch": 65, "duration": 10, "velocity": 88}, {"time": 2890, "pitch": 68, "duration": 10, "velocity": 86}, {"time": 2902, "pitch": 60, "duration": 17, "velocity": 88}, {"time": 2902, "pitch": 65, "duration": 10, "velocity": 91}, {"time": 2902, "pitch": 68, "duration": 9, "velocity": 88}, {"time": 2906, "pitch": 65, "duration": 6, "velocity": 84}, {"time": 2912, "pitch": 53, "duration": 1, "velocity": 93}, {"time": 2914, "pitch": 63, "duration": 10, "velocity": 87}, {"time": 2914, "pitch": 67, "duration": 10, "velocity": 79}, {"time": 2915, "pitch": 51, "duration": 3, "velocity": 94}, {"time": 2920, "pitch": 55, "duration": 19, "velocity": 73}, {"time": 2921, "pitch": 51, "duration": 7, "velocity": 92}, {"time": 2923, "pitch": 60, "duration": 7, "velocity": 86}, {"time": 2926, "pitch": 63, "duration": 12, "velocity": 108}, {"time": 2926, "pitch": 67, "duration": 12, "velocity": 100}, {"time": 2932, "pitch": 60, "duration": 6, "velocity": 83}, {"time": 2938, "pitch": 49, "duration": 25, "velocity": 85}, {"time": 2938, "pitch": 61, "duration": 10, "velocity": 84}, {"time": 2938, "pitch": 65, "duration": 10, "velocity": 88}, {"time": 2938, "pitch": 68, "duration": 9, "velocity": 85}, {"time": 2950, "pitch": 61, "duration": 9, "velocity": 86}, {"time": 2950, "pitch": 65, "duration": 12, "velocity": 88}, {"time": 2950, "pitch": 68, "duration": 9, "velocity": 87}, {"time": 2960, "pitch": 49, "duration": 3, "velocity": 83}, {"time": 2962, "pitch": 48, "duration": 22, "velocity": 82}, {"time": 2962, "pitch": 60, "duration": 10, "velocity": 79}, {"time": 2962, "pitch": 63, "duration": 10, "velocity": 88}, {"time": 2962, "pitch": 67, "duration": 10, "velocity": 80}, {"time": 2974, "pitch": 60, "duration": 8, "velocity": 86}, {"time": 2974, "pitch": 63, "duration": 10, "velocity": 91}, {"time": 2974, "pitch": 67, "duration": 8, "velocity": 80}, {"time": 2981, "pitch": 48, "duration": 3, "velocity": 83}, {"time": 2984, "pitch": 46, "duration": 1, "velocity": 88}, {"time": 2986, "pitch": 46, "duration": 17, "velocity": 79}, {"time": 2986, "pitch": 58, "duration": 9, "velocity": 84}, {"time": 2986, "pitch": 61, "duration": 9, "velocity": 86}, {"time": 2986, "pitch": 65, "duration": 9, "velocity": 86}, {"time": 2998, "pitch": 58, "duration": 9, "velocity": 83}, {"time": 2998, "pitch": 61, "duration": 8, "velocity": 85}, {"time": 2998, "pitch": 65, "duration": 8, "velocity": 85}, {"time": 3002, "pitch": 53, "duration": 6, "velocity": 76}, {"time": 3007, "pitch": 46, "duration": 3, "velocity": 77}, {"time": 3010, "pitch": 51, "duration": 25, "velocity": 81}, {"time": 3010, "pitch": 58, "duration": 10, "velocity": 83}, {"time": 3010, "pitch": 63, "duration": 10, "velocity": 86}, {"time": 3010, "pitch": 67, "duration": 10, "velocity": 86}, {"time": 3022, "pitch": 58, "duration": 9, "velocity": 83}, {"time": 3022, "pitch": 63, "duration": 8, "velocity": 87}, {"time": 3022, "pitch": 67, "duration": 8, "velocity": 85}, {"time": 3032, "pitch": 53, "duration": 3, "velocity": 84}, {"time": 3035, "pitch": 51, "duration": 6, "velocity": 95}, {"time": 3035, "pitch": 58, "duration": 30, "velocity": 83}, {"time": 3035, "pitch": 63, "duration": 30, "velocity": 86}, {"time": 3035, "pitch": 67, "duration": 30, "velocity": 86}, {"time": 3035, "pitch": 39, "duration": 7, "velocity": 95}, {"time": 3041, "pitch": 65, "duration": 19, "velocity": 71}, {"time": 3061, "pitch": 51, "duration": 1, "velocity": 75}, {"time": 3068, "pitch": 51, "duration": 1, "velocity": 77}, {"time": 3074, "pitch": 51, "duration": 3, "velocity": 80}, {"time": 3077, "pitch": 39, "duration": 6, "velocity": 84}, {"time": 3083, "pitch": 44, "duration": 14, "velocity": 82}, {"time": 3083, "pitch": 60, "duration": 10, "velocity": 76}, {"time": 3083, "pitch": 63, "duration": 10, "velocity": 74}, {"time": 3083, "pitch": 68, "duration": 10, "velocity": 87}, {"time": 3089, "pitch": 51, "duration": 37, "velocity": 63}, {"time": 3095, "pitch": 60, "duration": 8, "velocity": 83}, {"time": 3095, "pitch": 63, "duration": 11, "velocity": 87}, {"time": 3095, "pitch": 68, "duration": 7, "velocity": 85}, {"time": 3098, "pitch": 44, "duration": 3, "velocity": 77}, {"time": 3101, "pitch": 56, "duration": 7, "velocity": 71}, {"time": 3101, "pitch": 46, "duration": 3, "velocity": 79}, {"time": 3104, "pitch": 47, "duration": 3, "velocity": 75}, {"time": 3107, "pitch": 60, "duration": 9, "velocity": 88}, {"time": 3107, "pitch": 63, "duration": 7, "velocity": 89}, {"time": 3107, "pitch": 48, "duration": 13, "velocity": 84}, {"time": 3116, "pitch": 56, "duration": 8, "velocity": 80}, {"time": 3119, "pitch": 60, "duration": 11, "velocity": 88}, {"time": 3119, "pitch": 63, "duration": 11, "velocity": 89}, {"time": 3125, "pitch": 56, "duration": 6, "velocity": 64}, {"time": 3125, "pitch": 51, "duration": 1, "velocity": 85}, {"time": 3128, "pitch": 52, "duration": 3, "velocity": 79}, {"time": 3131, "pitch": 53, "duration": 12, "velocity": 97}, {"time": 3137, "pitch": 60, "duration": 12, "velocity": 76}, {"time": 3143, "pitch": 68, "duration": 17, "velocity": 89}, {"time": 3146, "pitch": 53, "duration": 6, "velocity": 87}, {"time": 3146, "pitch": 65, "duration": 14, "velocity": 34}, {"time": 3152, "pitch": 41, "duration": 3, "velocity": 74}, {"time": 3155, "pitch": 48, "duration": 6, "velocity": 84}, {"time": 3161, "pitch": 55, "duration": 17, "velocity": 69}, {"time": 3161, "pitch": 51, "duration": 7, "velocity": 90}, {"time": 3164, "pitch": 60, "duration": 12, "velocity": 84}, {"time": 3167, "pitch": 63, "duration": 4, "velocity": 84}, {"time": 3170, "pitch": 68, "duration": 8, "velocity": 91}, {"time": 3179, "pitch": 49, "duration": 20, "velocity": 83}, {"time": 3179, "pitch": 61, "duration": 8, "velocity": 83}, {"time": 3179, "pitch": 65, "duration": 7, "velocity": 87}, {"time": 3185, "pitch": 56, "duration": 12, "velocity": 38}, {"time": 3191, "pitch": 61, "duration": 11, "velocity": 84}, {"time": 3191, "pitch": 65, "duration": 12, "velocity": 87}, {"time": 3200, "pitch": 49, "duration": 3, "velocity": 90}, {"time": 3203, "pitch": 48, "duration": 19, "velocity": 89}, {"time": 3209, "pitch": 55, "duration": 14, "velocity": 67}, {"time": 3215, "pitch": 63, "duration": 9, "velocity": 91}, {"time": 3215, "pitch": 67, "duration": 9, "velocity": 89}, {"time": 3221, "pitch": 48, "duration": 1, "velocity": 89}, {"time": 3224, "pitch": 47, "duration": 3, "velocity": 85}, {"time": 3227, "pitch": 46, "duration": 18, "velocity": 83}, {"time": 3227, "pitch": 61, "duration": 9, "velocity": 86}, {"time": 3227, "pitch": 70, "duration": 8, "velocity": 91}, {"time": 3233, "pitch": 53, "duration": 12, "velocity": 38}, {"time": 3239, "pitch": 61, "duration": 8, "velocity": 88}, {"time": 3239, "pitch": 70, "duration": 9, "velocity": 89}, {"time": 3242, "pitch": 53, "duration": 3, "velocity": 91}, {"time": 3245, "pitch": 58, "duration": 6, "velocity": 85}, {"time": 3248, "pitch": 46, "duration": 3, "velocity": 100}, {"time": 3251, "pitch": 51, "duration": 29, "velocity": 86}, {"time": 3251, "pitch": 63, "duration": 8, "velocity": 87}, {"time": 3251, "pitch": 67, "duration": 9, "velocity": 85}, {"time": 3260, "pitch": 58, "duration": 29, "velocity": 65}, {"time": 3263, "pitch": 63, "duration": 9, "velocity": 88}, {"time": 3263, "pitch": 67, "duration": 10, "velocity": 85}, {"time": 3275, "pitch": 68, "duration": 13, "velocity": 86}, {"time": 3281, "pitch": 51, "duration": 7, "velocity": 91}, {"time": 3287, "pitch": 67, "duration": 7, "velocity": 81}, {"time": 3287, "pitch": 53, "duration": 11, "velocity": 72}, {"time": 3299, "pitch": 44, "duration": 19, "velocity": 81}, {"time": 3299, "pitch": 60, "duration": 8, "velocity": 80}, {"time": 3299, "pitch": 63, "duration": 8, "velocity": 80}, {"time": 3299, "pitch": 68, "duration": 7, "velocity": 81}, {"time": 3305, "pitch": 56, "duration": 7, "velocity": 66}, {"time": 3311, "pitch": 60, "duration": 8, "velocity": 83}, {"time": 3311, "pitch": 63, "duration": 9, "velocity": 88}, {"time": 3311, "pitch": 68, "duration": 8, "velocity": 86}]}]}