{"metadata": {"schema_version": "0.2", "title": "None", "source_filename": "550.mid", "source_format": "midi"}, "resolution": 12, "tempos": [{"time": 0, "qpm": 90.0002250005625}], "time_signatures": [{"time": 0, "numerator": 1, "denominator": 4}], "tracks": [{"program": 0, "is_drum": false, "name": "MELODY", "notes": [{"time": 422, "pitch": 68, "duration": 5, "velocity": 95}, {"time": 428, "pitch": 75, "duration": 4, "velocity": 102}, {"time": 434, "pitch": 75, "duration": 4, "velocity": 102}, {"time": 440, "pitch": 73, "duration": 4, "velocity": 90}, {"time": 446, "pitch": 75, "duration": 19, "velocity": 102}, {"time": 470, "pitch": 73, "duration": 10, "velocity": 87}, {"time": 482, "pitch": 66, "duration": 5, "velocity": 87}, {"time": 488, "pitch": 70, "duration": 4, "velocity": 85}, {"time": 494, "pitch": 68, "duration": 17, "velocity": 93}, {"time": 518, "pitch": 71, "duration": 6, "velocity": 95}, {"time": 527, "pitch": 71, "duration": 1, "velocity": 83}, {"time": 530, "pitch": 71, "duration": 5, "velocity": 93}, {"time": 536, "pitch": 68, "duration": 4, "velocity": 93}, {"time": 542, "pitch": 73, "duration": 11, "velocity": 93}, {"time": 554, "pitch": 71, "duration": 4, "velocity": 83}, {"time": 560, "pitch": 73, "duration": 4, "velocity": 93}, {"time": 566, "pitch": 75, "duration": 24, "velocity": 93}, {"time": 614, "pitch": 75, "duration": 5, "velocity": 105}, {"time": 620, "pitch": 80, "duration": 4, "velocity": 90}, {"time": 626, "pitch": 80, "duration": 4, "velocity": 90}, {"time": 632, "pitch": 78, "duration": 4, "velocity": 90}, {"time": 638, "pitch": 80, "duration": 15, "velocity": 90}, {"time": 662, "pitch": 75, "duration": 10, "velocity": 95}, {"time": 674, "pitch": 68, "duration": 4, "velocity": 102}, {"time": 680, "pitch": 71, "duration": 4, "velocity": 87}, {"time": 686, "pitch": 73, "duration": 19, "velocity": 93}, {"time": 710, "pitch": 73, "duration": 5, "velocity": 102}, {"time": 719, "pitch": 73, "duration": 2, "velocity": 87}, {"time": 722, "pitch": 75, "duration": 4, "velocity": 102}, {"time": 728, "pitch": 78, "duration": 3, "velocity": 103}, {"time": 734, "pitch": 66, "duration": 9, "velocity": 103}, {"time": 746, "pitch": 71, "duration": 5, "velocity": 85}, {"time": 752, "pitch": 70, "duration": 5, "velocity": 87}, {"time": 758, "pitch": 68, "duration": 28, "velocity": 93}, {"time": 806, "pitch": 68, "duration": 5, "velocity": 95}, {"time": 812, "pitch": 75, "duration": 4, "velocity": 102}, {"time": 818, "pitch": 75, "duration": 4, "velocity": 102}, {"time": 824, "pitch": 73, "duration": 4, "velocity": 90}, {"time": 830, "pitch": 75, "duration": 19, "velocity": 102}, {"time": 854, "pitch": 73, "duration": 10, "velocity": 87}, {"time": 866, "pitch": 66, "duration": 5, "velocity": 87}, {"time": 872, "pitch": 70, "duration": 4, "velocity": 85}, {"time": 878, "pitch": 68, "duration": 17, "velocity": 93}, {"time": 902, "pitch": 71, "duration": 6, "velocity": 95}, {"time": 911, "pitch": 71, "duration": 1, "velocity": 83}, {"time": 914, "pitch": 71, "duration": 5, "velocity": 93}, {"time": 920, "pitch": 68, "duration": 4, "velocity": 93}, {"time": 926, "pitch": 73, "duration": 11, "velocity": 93}, {"time": 938, "pitch": 71, "duration": 4, "velocity": 83}, {"time": 944, "pitch": 73, "duration": 4, "velocity": 93}, {"time": 950, "pitch": 75, "duration": 24, "velocity": 93}, {"time": 998, "pitch": 75, "duration": 5, "velocity": 105}, {"time": 1004, "pitch": 80, "duration": 4, "velocity": 90}, {"time": 1010, "pitch": 80, "duration": 4, "velocity": 90}, {"time": 1016, "pitch": 78, "duration": 4, "velocity": 90}, {"time": 1022, "pitch": 80, "duration": 15, "velocity": 90}, {"time": 1046, "pitch": 75, "duration": 10, "velocity": 95}, {"time": 1058, "pitch": 68, "duration": 4, "velocity": 102}, {"time": 1064, "pitch": 71, "duration": 4, "velocity": 87}, {"time": 1070, "pitch": 73, "duration": 19, "velocity": 93}, {"time": 1094, "pitch": 73, "duration": 5, "velocity": 102}, {"time": 1103, "pitch": 73, "duration": 2, "velocity": 87}, {"time": 1106, "pitch": 75, "duration": 4, "velocity": 102}, {"time": 1112, "pitch": 78, "duration": 3, "velocity": 103}, {"time": 1118, "pitch": 66, "duration": 9, "velocity": 103}, {"time": 1130, "pitch": 71, "duration": 5, "velocity": 85}, {"time": 1136, "pitch": 70, "duration": 5, "velocity": 87}, {"time": 1142, "pitch": 68, "duration": 28, "velocity": 93}, {"time": 1190, "pitch": 80, "duration": 6, "velocity": 95}, {"time": 1199, "pitch": 80, "duration": 2, "velocity": 87}, {"time": 1202, "pitch": 80, "duration": 4, "velocity": 102}, {"time": 1208, "pitch": 75, "duration": 4, "velocity": 102}, {"time": 1214, "pitch": 78, "duration": 9, "velocity": 93}, {"time": 1226, "pitch": 80, "duration": 4, "velocity": 93}, {"time": 1232, "pitch": 82, "duration": 4, "velocity": 87}, {"time": 1238, "pitch": 80, "duration": 37, "velocity": 93}, {"time": 1286, "pitch": 83, "duration": 6, "velocity": 95}, {"time": 1295, "pitch": 83, "duration": 2, "velocity": 93}, {"time": 1298, "pitch": 83, "duration": 4, "velocity": 80}, {"time": 1304, "pitch": 80, "duration": 4, "velocity": 93}, {"time": 1310, "pitch": 78, "duration": 9, "velocity": 103}, {"time": 1322, "pitch": 80, "duration": 4, "velocity": 95}, {"time": 1328, "pitch": 78, "duration": 5, "velocity": 87}, {"time": 1334, "pitch": 75, "duration": 40, "velocity": 103}, {"time": 1382, "pitch": 80, "duration": 5, "velocity": 95}, {"time": 1391, "pitch": 80, "duration": 2, "velocity": 87}, {"time": 1394, "pitch": 80, "duration": 4, "velocity": 90}, {"time": 1400, "pitch": 80, "duration": 3, "velocity": 87}, {"time": 1406, "pitch": 80, "duration": 9, "velocity": 90}, {"time": 1418, "pitch": 73, "duration": 5, "velocity": 93}, {"time": 1424, "pitch": 75, "duration": 4, "velocity": 93}, {"time": 1430, "pitch": 73, "duration": 39, "velocity": 93}, {"time": 1478, "pitch": 70, "duration": 6, "velocity": 93}, {"time": 1487, "pitch": 70, "duration": 2, "velocity": 74}, {"time": 1490, "pitch": 70, "duration": 4, "velocity": 83}, {"time": 1496, "pitch": 68, "duration": 4, "velocity": 93}, {"time": 1502, "pitch": 66, "duration": 10, "velocity": 93}, {"time": 1514, "pitch": 68, "duration": 4, "velocity": 93}, {"time": 1520, "pitch": 70, "duration": 4, "velocity": 93}, {"time": 1526, "pitch": 68, "duration": 43, "velocity": 103}, {"time": 1574, "pitch": 80, "duration": 6, "velocity": 95}, {"time": 1583, "pitch": 80, "duration": 2, "velocity": 87}, {"time": 1586, "pitch": 80, "duration": 4, "velocity": 102}, {"time": 1592, "pitch": 75, "duration": 4, "velocity": 102}, {"time": 1598, "pitch": 78, "duration": 9, "velocity": 93}, {"time": 1610, "pitch": 80, "duration": 4, "velocity": 93}, {"time": 1616, "pitch": 82, "duration": 4, "velocity": 87}, {"time": 1622, "pitch": 80, "duration": 37, "velocity": 93}, {"time": 1670, "pitch": 83, "duration": 6, "velocity": 95}, {"time": 1679, "pitch": 83, "duration": 2, "velocity": 93}, {"time": 1682, "pitch": 83, "duration": 4, "velocity": 80}, {"time": 1688, "pitch": 80, "duration": 4, "velocity": 93}, {"time": 1694, "pitch": 78, "duration": 9, "velocity": 103}, {"time": 1706, "pitch": 80, "duration": 4, "velocity": 95}, {"time": 1712, "pitch": 78, "duration": 5, "velocity": 87}, {"time": 1718, "pitch": 75, "duration": 40, "velocity": 103}, {"time": 1766, "pitch": 80, "duration": 5, "velocity": 95}, {"time": 1775, "pitch": 80, "duration": 2, "velocity": 87}, {"time": 1778, "pitch": 80, "duration": 4, "velocity": 90}, {"time": 1784, "pitch": 80, "duration": 3, "velocity": 87}, {"time": 1790, "pitch": 80, "duration": 9, "velocity": 90}, {"time": 1802, "pitch": 73, "duration": 5, "velocity": 93}, {"time": 1808, "pitch": 75, "duration": 4, "velocity": 93}, {"time": 1814, "pitch": 73, "duration": 39, "velocity": 93}, {"time": 1862, "pitch": 70, "duration": 6, "velocity": 93}, {"time": 1871, "pitch": 70, "duration": 2, "velocity": 74}, {"time": 1874, "pitch": 70, "duration": 4, "velocity": 83}, {"time": 1880, "pitch": 68, "duration": 4, "velocity": 93}, {"time": 1886, "pitch": 66, "duration": 10, "velocity": 93}, {"time": 1898, "pitch": 68, "duration": 4, "velocity": 93}, {"time": 1904, "pitch": 70, "duration": 4, "velocity": 93}, {"time": 1910, "pitch": 68, "duration": 43, "velocity": 103}, {"time": 2342, "pitch": 68, "duration": 5, "velocity": 95}, {"time": 2348, "pitch": 75, "duration": 4, "velocity": 102}, {"time": 2354, "pitch": 75, "duration": 4, "velocity": 102}, {"time": 2360, "pitch": 73, "duration": 4, "velocity": 90}, {"time": 2366, "pitch": 75, "duration": 19, "velocity": 102}, {"time": 2390, "pitch": 73, "duration": 10, "velocity": 87}, {"time": 2402, "pitch": 66, "duration": 5, "velocity": 87}, {"time": 2408, "pitch": 70, "duration": 4, "velocity": 85}, {"time": 2414, "pitch": 68, "duration": 17, "velocity": 93}, {"time": 2438, "pitch": 71, "duration": 6, "velocity": 95}, {"time": 2447, "pitch": 71, "duration": 1, "velocity": 83}, {"time": 2450, "pitch": 71, "duration": 5, "velocity": 93}, {"time": 2456, "pitch": 68, "duration": 4, "velocity": 93}, {"time": 2462, "pitch": 73, "duration": 11, "velocity": 93}, {"time": 2474, "pitch": 71, "duration": 4, "velocity": 83}, {"time": 2480, "pitch": 73, "duration": 4, "velocity": 93}, {"time": 2486, "pitch": 75, "duration": 24, "velocity": 93}, {"time": 2534, "pitch": 75, "duration": 5, "velocity": 105}, {"time": 2540, "pitch": 80, "duration": 4, "velocity": 90}, {"time": 2546, "pitch": 80, "duration": 4, "velocity": 90}, {"time": 2552, "pitch": 78, "duration": 4, "velocity": 90}, {"time": 2558, "pitch": 80, "duration": 15, "velocity": 90}, {"time": 2582, "pitch": 75, "duration": 10, "velocity": 95}, {"time": 2594, "pitch": 68, "duration": 4, "velocity": 102}, {"time": 2600, "pitch": 71, "duration": 4, "velocity": 87}, {"time": 2606, "pitch": 73, "duration": 19, "velocity": 93}, {"time": 2630, "pitch": 73, "duration": 5, "velocity": 102}, {"time": 2639, "pitch": 73, "duration": 2, "velocity": 87}, {"time": 2642, "pitch": 75, "duration": 4, "velocity": 102}, {"time": 2648, "pitch": 78, "duration": 3, "velocity": 103}, {"time": 2654, "pitch": 66, "duration": 9, "velocity": 103}, {"time": 2666, "pitch": 71, "duration": 5, "velocity": 85}, {"time": 2672, "pitch": 70, "duration": 5, "velocity": 87}, {"time": 2678, "pitch": 68, "duration": 28, "velocity": 93}, {"time": 2726, "pitch": 68, "duration": 5, "velocity": 95}, {"time": 2732, "pitch": 75, "duration": 4, "velocity": 102}, {"time": 2738, "pitch": 75, "duration": 4, "velocity": 102}, {"time": 2744, "pitch": 73, "duration": 4, "velocity": 90}, {"time": 2750, "pitch": 75, "duration": 19, "velocity": 102}, {"time": 2774, "pitch": 73, "duration": 10, "velocity": 87}, {"time": 2786, "pitch": 66, "duration": 5, "velocity": 87}, {"time": 2792, "pitch": 70, "duration": 4, "velocity": 85}, {"time": 2798, "pitch": 68, "duration": 17, "velocity": 93}, {"time": 2822, "pitch": 71, "duration": 6, "velocity": 95}, {"time": 2831, "pitch": 71, "duration": 1, "velocity": 83}, {"time": 2834, "pitch": 71, "duration": 5, "velocity": 93}, {"time": 2840, "pitch": 68, "duration": 4, "velocity": 93}, {"time": 2846, "pitch": 73, "duration": 11, "velocity": 93}, {"time": 2858, "pitch": 71, "duration": 4, "velocity": 83}, {"time": 2864, "pitch": 73, "duration": 4, "velocity": 93}, {"time": 2870, "pitch": 75, "duration": 24, "velocity": 93}, {"time": 2918, "pitch": 75, "duration": 5, "velocity": 105}, {"time": 2924, "pitch": 80, "duration": 4, "velocity": 90}, {"time": 2930, "pitch": 80, "duration": 4, "velocity": 90}, {"time": 2936, "pitch": 78, "duration": 4, "velocity": 90}, {"time": 2942, "pitch": 80, "duration": 15, "velocity": 90}, {"time": 2966, "pitch": 75, "duration": 10, "velocity": 95}, {"time": 2978, "pitch": 68, "duration": 4, "velocity": 102}, {"time": 2984, "pitch": 71, "duration": 4, "velocity": 87}, {"time": 2990, "pitch": 73, "duration": 19, "velocity": 93}, {"time": 3014, "pitch": 73, "duration": 5, "velocity": 102}, {"time": 3023, "pitch": 73, "duration": 2, "velocity": 87}, {"time": 3026, "pitch": 75, "duration": 4, "velocity": 102}, {"time": 3032, "pitch": 78, "duration": 3, "velocity": 103}, {"time": 3038, "pitch": 66, "duration": 9, "velocity": 103}, {"time": 3050, "pitch": 71, "duration": 5, "velocity": 85}, {"time": 3056, "pitch": 70, "duration": 5, "velocity": 87}, {"time": 3062, "pitch": 68, "duration": 28, "velocity": 93}, {"time": 3110, "pitch": 80, "duration": 6, "velocity": 95}, {"time": 3119, "pitch": 80, "duration": 2, "velocity": 87}, {"time": 3122, "pitch": 80, "duration": 4, "velocity": 102}, {"time": 3128, "pitch": 75, "duration": 4, "velocity": 102}, {"time": 3134, "pitch": 78, "duration": 9, "velocity": 93}, {"time": 3146, "pitch": 80, "duration": 4, "velocity": 93}, {"time": 3152, "pitch": 82, "duration": 4, "velocity": 87}, {"time": 3158, "pitch": 80, "duration": 37, "velocity": 93}, {"time": 3206, "pitch": 83, "duration": 6, "velocity": 95}, {"time": 3215, "pitch": 83, "duration": 2, "velocity": 93}, {"time": 3218, "pitch": 83, "duration": 4, "velocity": 80}, {"time": 3224, "pitch": 80, "duration": 4, "velocity": 93}, {"time": 3230, "pitch": 78, "duration": 9, "velocity": 103}, {"time": 3242, "pitch": 80, "duration": 4, "velocity": 95}, {"time": 3248, "pitch": 78, "duration": 5, "velocity": 87}, {"time": 3254, "pitch": 75, "duration": 40, "velocity": 103}, {"time": 3302, "pitch": 80, "duration": 5, "velocity": 95}, {"time": 3311, "pitch": 80, "duration": 2, "velocity": 87}, {"time": 3314, "pitch": 80, "duration": 4, "velocity": 90}, {"time": 3320, "pitch": 80, "duration": 3, "velocity": 87}, {"time": 3326, "pitch": 80, "duration": 9, "velocity": 90}, {"time": 3338, "pitch": 73, "duration": 5, "velocity": 93}, {"time": 3344, "pitch": 75, "duration": 4, "velocity": 93}, {"time": 3350, "pitch": 73, "duration": 39, "velocity": 93}, {"time": 3398, "pitch": 70, "duration": 6, "velocity": 93}, {"time": 3407, "pitch": 70, "duration": 2, "velocity": 74}, {"time": 3410, "pitch": 70, "duration": 4, "velocity": 83}, {"time": 3416, "pitch": 68, "duration": 4, "velocity": 93}, {"time": 3422, "pitch": 66, "duration": 10, "velocity": 93}, {"time": 3434, "pitch": 68, "duration": 4, "velocity": 93}, {"time": 3440, "pitch": 70, "duration": 4, "velocity": 93}, {"time": 3446, "pitch": 68, "duration": 43, "velocity": 103}, {"time": 3494, "pitch": 80, "duration": 6, "velocity": 95}, {"time": 3503, "pitch": 80, "duration": 2, "velocity": 87}, {"time": 3506, "pitch": 80, "duration": 4, "velocity": 102}, {"time": 3512, "pitch": 75, "duration": 4, "velocity": 102}, {"time": 3518, "pitch": 78, "duration": 9, "velocity": 93}, {"time": 3530, "pitch": 80, "duration": 4, "velocity": 93}, {"time": 3536, "pitch": 82, "duration": 4, "velocity": 87}, {"time": 3542, "pitch": 80, "duration": 37, "velocity": 93}, {"time": 3590, "pitch": 83, "duration": 6, "velocity": 95}, {"time": 3599, "pitch": 83, "duration": 2, "velocity": 93}, {"time": 3602, "pitch": 83, "duration": 4, "velocity": 80}, {"time": 3608, "pitch": 80, "duration": 4, "velocity": 93}, {"time": 3614, "pitch": 78, "duration": 9, "velocity": 103}, {"time": 3626, "pitch": 80, "duration": 4, "velocity": 95}, {"time": 3632, "pitch": 78, "duration": 5, "velocity": 87}, {"time": 3638, "pitch": 75, "duration": 40, "velocity": 103}, {"time": 3686, "pitch": 80, "duration": 5, "velocity": 95}, {"time": 3695, "pitch": 80, "duration": 2, "velocity": 87}, {"time": 3698, "pitch": 80, "duration": 4, "velocity": 90}, {"time": 3704, "pitch": 80, "duration": 3, "velocity": 87}, {"time": 3710, "pitch": 80, "duration": 9, "velocity": 90}, {"time": 3722, "pitch": 73, "duration": 5, "velocity": 93}, {"time": 3728, "pitch": 75, "duration": 4, "velocity": 93}, {"time": 3734, "pitch": 73, "duration": 39, "velocity": 93}, {"time": 3782, "pitch": 70, "duration": 6, "velocity": 93}, {"time": 3791, "pitch": 70, "duration": 2, "velocity": 74}, {"time": 3794, "pitch": 70, "duration": 4, "velocity": 83}, {"time": 3800, "pitch": 68, "duration": 4, "velocity": 93}, {"time": 3806, "pitch": 66, "duration": 10, "velocity": 93}, {"time": 3818, "pitch": 68, "duration": 4, "velocity": 93}, {"time": 3824, "pitch": 70, "duration": 4, "velocity": 93}, {"time": 3830, "pitch": 68, "duration": 43, "velocity": 103}, {"time": 3878, "pitch": 80, "duration": 5, "velocity": 95}, {"time": 3887, "pitch": 80, "duration": 2, "velocity": 87}, {"time": 3890, "pitch": 80, "duration": 4, "velocity": 90}, {"time": 3896, "pitch": 80, "duration": 3, "velocity": 87}, {"time": 3902, "pitch": 80, "duration": 9, "velocity": 90}, {"time": 3914, "pitch": 73, "duration": 5, "velocity": 93}, {"time": 3920, "pitch": 75, "duration": 4, "velocity": 93}, {"time": 3926, "pitch": 73, "duration": 39, "velocity": 93}, {"time": 3974, "pitch": 70, "duration": 6, "velocity": 93}, {"time": 3983, "pitch": 70, "duration": 2, "velocity": 74}, {"time": 3986, "pitch": 70, "duration": 4, "velocity": 83}, {"time": 3992, "pitch": 68, "duration": 4, "velocity": 93}, {"time": 3998, "pitch": 66, "duration": 24, "velocity": 93}, {"time": 4022, "pitch": 70, "duration": 20, "velocity": 95}, {"time": 4046, "pitch": 68, "duration": 47, "velocity": 93}]}, {"program": 0, "is_drum": false, "name": "BRIDGE", "notes": [{"time": 33, "pitch": 75, "duration": 3, "velocity": 80}, {"time": 35, "pitch": 73, "duration": 2, "velocity": 87}, {"time": 37, "pitch": 71, "duration": 1, "velocity": 87}, {"time": 38, "pitch": 68, "duration": 25, "velocity": 102}, {"time": 68, "pitch": 68, "duration": 2, "velocity": 103}, {"time": 71, "pitch": 68, "duration": 2, "velocity": 103}, {"time": 74, "pitch": 71, "duration": 4, "velocity": 102}, {"time": 80, "pitch": 75, "duration": 4, "velocity": 103}, {"time": 86, "pitch": 73, "duration": 8, "velocity": 95}, {"time": 98, "pitch": 73, "duration": 2, "velocity": 93}, {"time": 101, "pitch": 75, "duration": 2, "velocity": 102}, {"time": 104, "pitch": 73, "duration": 2, "velocity": 93}, {"time": 107, "pitch": 71, "duration": 2, "velocity": 87}, {"time": 110, "pitch": 73, "duration": 14, "velocity": 95}, {"time": 128, "pitch": 73, "duration": 2, "velocity": 102}, {"time": 131, "pitch": 71, "duration": 2, "velocity": 72}, {"time": 134, "pitch": 70, "duration": 19, "velocity": 95}, {"time": 164, "pitch": 70, "duration": 2, "velocity": 87}, {"time": 167, "pitch": 68, "duration": 2, "velocity": 95}, {"time": 170, "pitch": 66, "duration": 4, "velocity": 102}, {"time": 176, "pitch": 61, "duration": 4, "velocity": 103}, {"time": 182, "pitch": 63, "duration": 7, "velocity": 103}, {"time": 194, "pitch": 63, "duration": 2, "velocity": 103}, {"time": 197, "pitch": 66, "duration": 2, "velocity": 95}, {"time": 200, "pitch": 63, "duration": 2, "velocity": 95}, {"time": 203, "pitch": 61, "duration": 2, "velocity": 93}, {"time": 206, "pitch": 63, "duration": 14, "velocity": 95}, {"time": 230, "pitch": 68, "duration": 10, "velocity": 112}, {"time": 242, "pitch": 75, "duration": 5, "velocity": 114}, {"time": 248, "pitch": 73, "duration": 4, "velocity": 102}, {"time": 254, "pitch": 75, "duration": 16, "velocity": 105}, {"time": 272, "pitch": 71, "duration": 4, "velocity": 102}, {"time": 278, "pitch": 73, "duration": 9, "velocity": 102}, {"time": 290, "pitch": 73, "duration": 4, "velocity": 93}, {"time": 296, "pitch": 75, "duration": 5, "velocity": 95}, {"time": 302, "pitch": 68, "duration": 12, "velocity": 105}, {"time": 314, "pitch": 71, "duration": 4, "velocity": 95}, {"time": 320, "pitch": 73, "duration": 3, "velocity": 103}, {"time": 326, "pitch": 70, "duration": 15, "velocity": 102}, {"time": 344, "pitch": 68, "duration": 4, "velocity": 93}, {"time": 350, "pitch": 66, "duration": 11, "velocity": 93}, {"time": 362, "pitch": 63, "duration": 4, "velocity": 105}, {"time": 368, "pitch": 66, "duration": 4, "velocity": 95}, {"time": 374, "pitch": 68, "duration": 35, "velocity": 102}, {"time": 394, "pitch": 87, "duration": 1, "velocity": 60}, {"time": 395, "pitch": 85, "duration": 3, "velocity": 93}, {"time": 397, "pitch": 83, "duration": 1, "velocity": 80}, {"time": 398, "pitch": 80, "duration": 5, "velocity": 85}, {"time": 404, "pitch": 83, "duration": 3, "velocity": 74}, {"time": 410, "pitch": 85, "duration": 3, "velocity": 87}, {"time": 416, "pitch": 90, "duration": 3, "velocity": 87}, {"time": 422, "pitch": 87, "duration": 13, "velocity": 83}, {"time": 502, "pitch": 68, "duration": 3, "velocity": 80}, {"time": 504, "pitch": 66, "duration": 2, "velocity": 85}, {"time": 506, "pitch": 63, "duration": 6, "velocity": 95}, {"time": 512, "pitch": 68, "duration": 6, "velocity": 95}, {"time": 518, "pitch": 71, "duration": 17, "velocity": 80}, {"time": 602, "pitch": 70, "duration": 3, "velocity": 102}, {"time": 605, "pitch": 73, "duration": 2, "velocity": 71}, {"time": 608, "pitch": 75, "duration": 3, "velocity": 93}, {"time": 611, "pitch": 78, "duration": 3, "velocity": 87}, {"time": 614, "pitch": 80, "duration": 24, "velocity": 93}, {"time": 694, "pitch": 75, "duration": 1, "velocity": 53}, {"time": 694, "pitch": 73, "duration": 3, "velocity": 93}, {"time": 696, "pitch": 71, "duration": 2, "velocity": 80}, {"time": 698, "pitch": 68, "duration": 6, "velocity": 105}, {"time": 704, "pitch": 71, "duration": 4, "velocity": 103}, {"time": 710, "pitch": 73, "duration": 14, "velocity": 102}, {"time": 764, "pitch": 63, "duration": 6, "velocity": 95}, {"time": 770, "pitch": 71, "duration": 5, "velocity": 103}, {"time": 776, "pitch": 70, "duration": 5, "velocity": 102}, {"time": 782, "pitch": 68, "duration": 21, "velocity": 102}, {"time": 884, "pitch": 75, "duration": 6, "velocity": 102}, {"time": 890, "pitch": 83, "duration": 7, "velocity": 95}, {"time": 896, "pitch": 82, "duration": 6, "velocity": 95}, {"time": 902, "pitch": 80, "duration": 22, "velocity": 103}, {"time": 950, "pitch": 75, "duration": 28, "velocity": 93}, {"time": 980, "pitch": 82, "duration": 5, "velocity": 95}, {"time": 986, "pitch": 78, "duration": 6, "velocity": 95}, {"time": 992, "pitch": 75, "duration": 6, "velocity": 103}, {"time": 998, "pitch": 80, "duration": 44, "velocity": 93}, {"time": 1076, "pitch": 75, "duration": 6, "velocity": 68}, {"time": 1082, "pitch": 68, "duration": 4, "velocity": 87}, {"time": 1088, "pitch": 71, "duration": 4, "velocity": 83}, {"time": 1094, "pitch": 73, "duration": 19, "velocity": 87}, {"time": 1148, "pitch": 68, "duration": 3, "velocity": 102}, {"time": 1151, "pitch": 63, "duration": 2, "velocity": 102}, {"time": 1154, "pitch": 68, "duration": 4, "velocity": 105}, {"time": 1160, "pitch": 70, "duration": 3, "velocity": 95}, {"time": 1166, "pitch": 71, "duration": 2, "velocity": 87}, {"time": 1169, "pitch": 68, "duration": 3, "velocity": 87}, {"time": 1172, "pitch": 71, "duration": 3, "velocity": 90}, {"time": 1175, "pitch": 73, "duration": 2, "velocity": 93}, {"time": 1178, "pitch": 75, "duration": 3, "velocity": 105}, {"time": 1181, "pitch": 73, "duration": 3, "velocity": 93}, {"time": 1184, "pitch": 75, "duration": 2, "velocity": 85}, {"time": 1187, "pitch": 78, "duration": 2, "velocity": 87}, {"time": 1190, "pitch": 80, "duration": 21, "velocity": 102}, {"time": 1214, "pitch": 78, "duration": 12, "velocity": 95}, {"time": 1226, "pitch": 75, "duration": 11, "velocity": 80}, {"time": 1238, "pitch": 80, "duration": 30, "velocity": 87}, {"time": 1271, "pitch": 63, "duration": 6, "velocity": 105}, {"time": 1277, "pitch": 66, "duration": 3, "velocity": 80}, {"time": 1280, "pitch": 68, "duration": 2, "velocity": 87}, {"time": 1283, "pitch": 70, "duration": 2, "velocity": 83}, {"time": 1286, "pitch": 71, "duration": 18, "velocity": 103}, {"time": 1340, "pitch": 82, "duration": 10, "velocity": 93}, {"time": 1352, "pitch": 80, "duration": 5, "velocity": 102}, {"time": 1358, "pitch": 78, "duration": 12, "velocity": 102}, {"time": 1370, "pitch": 80, "duration": 5, "velocity": 90}, {"time": 1376, "pitch": 78, "duration": 6, "velocity": 102}, {"time": 1382, "pitch": 75, "duration": 39, "velocity": 93}, {"time": 1454, "pitch": 73, "duration": 4, "velocity": 102}, {"time": 1460, "pitch": 73, "duration": 2, "velocity": 105}, {"time": 1463, "pitch": 68, "duration": 3, "velocity": 87}, {"time": 1466, "pitch": 71, "duration": 4, "velocity": 103}, {"time": 1472, "pitch": 73, "duration": 4, "velocity": 102}, {"time": 1478, "pitch": 70, "duration": 18, "velocity": 102}, {"time": 1496, "pitch": 68, "duration": 5, "velocity": 93}, {"time": 1502, "pitch": 66, "duration": 11, "velocity": 93}, {"time": 1514, "pitch": 68, "duration": 6, "velocity": 87}, {"time": 1520, "pitch": 70, "duration": 5, "velocity": 87}, {"time": 1526, "pitch": 68, "duration": 24, "velocity": 103}, {"time": 1550, "pitch": 71, "duration": 2, "velocity": 90}, {"time": 1553, "pitch": 68, "duration": 3, "velocity": 93}, {"time": 1556, "pitch": 71, "duration": 3, "velocity": 95}, {"time": 1559, "pitch": 73, "duration": 3, "velocity": 93}, {"time": 1562, "pitch": 75, "duration": 2, "velocity": 80}, {"time": 1565, "pitch": 73, "duration": 2, "velocity": 102}, {"time": 1568, "pitch": 75, "duration": 2, "velocity": 102}, {"time": 1571, "pitch": 78, "duration": 2, "velocity": 105}, {"time": 1574, "pitch": 80, "duration": 22, "velocity": 95}, {"time": 1598, "pitch": 78, "duration": 13, "velocity": 102}, {"time": 1610, "pitch": 75, "duration": 11, "velocity": 87}, {"time": 1622, "pitch": 80, "duration": 27, "velocity": 93}, {"time": 1658, "pitch": 63, "duration": 3, "velocity": 110}, {"time": 1661, "pitch": 66, "duration": 2, "velocity": 87}, {"time": 1664, "pitch": 68, "duration": 3, "velocity": 74}, {"time": 1667, "pitch": 70, "duration": 2, "velocity": 85}, {"time": 1670, "pitch": 71, "duration": 25, "velocity": 87}, {"time": 1694, "pitch": 70, "duration": 8, "velocity": 87}, {"time": 1706, "pitch": 61, "duration": 12, "velocity": 80}, {"time": 1718, "pitch": 63, "duration": 27, "velocity": 95}, {"time": 1724, "pitch": 82, "duration": 10, "velocity": 74}, {"time": 1736, "pitch": 80, "duration": 5, "velocity": 83}, {"time": 1742, "pitch": 78, "duration": 10, "velocity": 90}, {"time": 1754, "pitch": 80, "duration": 5, "velocity": 93}, {"time": 1760, "pitch": 78, "duration": 6, "velocity": 87}, {"time": 1766, "pitch": 75, "duration": 25, "velocity": 95}, {"time": 1838, "pitch": 73, "duration": 3, "velocity": 103}, {"time": 1844, "pitch": 73, "duration": 2, "velocity": 93}, {"time": 1847, "pitch": 68, "duration": 3, "velocity": 87}, {"time": 1850, "pitch": 71, "duration": 4, "velocity": 102}, {"time": 1856, "pitch": 73, "duration": 4, "velocity": 95}, {"time": 1862, "pitch": 70, "duration": 18, "velocity": 93}, {"time": 1880, "pitch": 68, "duration": 4, "velocity": 93}, {"time": 1886, "pitch": 66, "duration": 11, "velocity": 93}, {"time": 1898, "pitch": 68, "duration": 5, "velocity": 90}, {"time": 1904, "pitch": 70, "duration": 4, "velocity": 93}, {"time": 1910, "pitch": 68, "duration": 29, "velocity": 103}, {"time": 1953, "pitch": 75, "duration": 3, "velocity": 80}, {"time": 1955, "pitch": 73, "duration": 2, "velocity": 87}, {"time": 1957, "pitch": 71, "duration": 1, "velocity": 87}, {"time": 1958, "pitch": 68, "duration": 25, "velocity": 102}, {"time": 1988, "pitch": 68, "duration": 2, "velocity": 103}, {"time": 1991, "pitch": 68, "duration": 2, "velocity": 103}, {"time": 1994, "pitch": 71, "duration": 4, "velocity": 102}, {"time": 2000, "pitch": 75, "duration": 4, "velocity": 103}, {"time": 2006, "pitch": 73, "duration": 8, "velocity": 95}, {"time": 2018, "pitch": 73, "duration": 2, "velocity": 93}, {"time": 2021, "pitch": 75, "duration": 2, "velocity": 102}, {"time": 2024, "pitch": 73, "duration": 2, "velocity": 93}, {"time": 2027, "pitch": 71, "duration": 2, "velocity": 87}, {"time": 2030, "pitch": 73, "duration": 14, "velocity": 95}, {"time": 2048, "pitch": 73, "duration": 2, "velocity": 102}, {"time": 2051, "pitch": 71, "duration": 2, "velocity": 72}, {"time": 2054, "pitch": 70, "duration": 19, "velocity": 95}, {"time": 2084, "pitch": 70, "duration": 2, "velocity": 87}, {"time": 2087, "pitch": 68, "duration": 2, "velocity": 95}, {"time": 2090, "pitch": 66, "duration": 4, "velocity": 102}, {"time": 2096, "pitch": 61, "duration": 4, "velocity": 103}, {"time": 2102, "pitch": 63, "duration": 7, "velocity": 103}, {"time": 2114, "pitch": 63, "duration": 2, "velocity": 103}, {"time": 2117, "pitch": 66, "duration": 2, "velocity": 95}, {"time": 2120, "pitch": 63, "duration": 2, "velocity": 95}, {"time": 2123, "pitch": 61, "duration": 2, "velocity": 93}, {"time": 2126, "pitch": 63, "duration": 14, "velocity": 95}, {"time": 2150, "pitch": 68, "duration": 10, "velocity": 112}, {"time": 2162, "pitch": 75, "duration": 5, "velocity": 114}, {"time": 2168, "pitch": 73, "duration": 4, "velocity": 102}, {"time": 2174, "pitch": 75, "duration": 16, "velocity": 105}, {"time": 2192, "pitch": 71, "duration": 4, "velocity": 102}, {"time": 2198, "pitch": 73, "duration": 9, "velocity": 102}, {"time": 2210, "pitch": 73, "duration": 4, "velocity": 93}, {"time": 2216, "pitch": 75, "duration": 5, "velocity": 95}, {"time": 2222, "pitch": 68, "duration": 12, "velocity": 105}, {"time": 2234, "pitch": 71, "duration": 4, "velocity": 95}, {"time": 2240, "pitch": 73, "duration": 3, "velocity": 103}, {"time": 2246, "pitch": 70, "duration": 15, "velocity": 102}, {"time": 2264, "pitch": 68, "duration": 4, "velocity": 93}, {"time": 2270, "pitch": 66, "duration": 11, "velocity": 93}, {"time": 2282, "pitch": 63, "duration": 4, "velocity": 105}, {"time": 2288, "pitch": 66, "duration": 4, "velocity": 95}, {"time": 2294, "pitch": 68, "duration": 35, "velocity": 102}, {"time": 2314, "pitch": 87, "duration": 1, "velocity": 60}, {"time": 2315, "pitch": 85, "duration": 3, "velocity": 93}, {"time": 2317, "pitch": 83, "duration": 1, "velocity": 80}, {"time": 2318, "pitch": 80, "duration": 5, "velocity": 85}, {"time": 2324, "pitch": 83, "duration": 3, "velocity": 74}, {"time": 2330, "pitch": 85, "duration": 3, "velocity": 87}, {"time": 2336, "pitch": 90, "duration": 3, "velocity": 87}, {"time": 2342, "pitch": 87, "duration": 13, "velocity": 83}, {"time": 2422, "pitch": 68, "duration": 3, "velocity": 80}, {"time": 2424, "pitch": 66, "duration": 2, "velocity": 85}, {"time": 2426, "pitch": 63, "duration": 6, "velocity": 95}, {"time": 2432, "pitch": 68, "duration": 6, "velocity": 95}, {"time": 2438, "pitch": 71, "duration": 17, "velocity": 80}, {"time": 2522, "pitch": 70, "duration": 3, "velocity": 102}, {"time": 2525, "pitch": 73, "duration": 2, "velocity": 71}, {"time": 2528, "pitch": 75, "duration": 3, "velocity": 93}, {"time": 2531, "pitch": 78, "duration": 3, "velocity": 87}, {"time": 2534, "pitch": 80, "duration": 24, "velocity": 93}, {"time": 2614, "pitch": 75, "duration": 1, "velocity": 53}, {"time": 2614, "pitch": 73, "duration": 3, "velocity": 93}, {"time": 2616, "pitch": 71, "duration": 2, "velocity": 80}, {"time": 2618, "pitch": 68, "duration": 6, "velocity": 105}, {"time": 2624, "pitch": 71, "duration": 4, "velocity": 103}, {"time": 2630, "pitch": 73, "duration": 14, "velocity": 102}, {"time": 2684, "pitch": 63, "duration": 6, "velocity": 95}, {"time": 2690, "pitch": 71, "duration": 5, "velocity": 103}, {"time": 2696, "pitch": 70, "duration": 5, "velocity": 102}, {"time": 2702, "pitch": 68, "duration": 21, "velocity": 102}, {"time": 2804, "pitch": 75, "duration": 6, "velocity": 102}, {"time": 2810, "pitch": 83, "duration": 7, "velocity": 95}, {"time": 2816, "pitch": 82, "duration": 6, "velocity": 95}, {"time": 2822, "pitch": 80, "duration": 22, "velocity": 103}, {"time": 2870, "pitch": 75, "duration": 28, "velocity": 93}, {"time": 2900, "pitch": 82, "duration": 5, "velocity": 95}, {"time": 2906, "pitch": 78, "duration": 6, "velocity": 95}, {"time": 2912, "pitch": 75, "duration": 6, "velocity": 103}, {"time": 2918, "pitch": 80, "duration": 44, "velocity": 93}, {"time": 2996, "pitch": 75, "duration": 6, "velocity": 68}, {"time": 3002, "pitch": 68, "duration": 4, "velocity": 87}, {"time": 3008, "pitch": 71, "duration": 4, "velocity": 83}, {"time": 3014, "pitch": 73, "duration": 19, "velocity": 87}, {"time": 3068, "pitch": 68, "duration": 3, "velocity": 102}, {"time": 3071, "pitch": 63, "duration": 2, "velocity": 102}, {"time": 3074, "pitch": 68, "duration": 4, "velocity": 105}, {"time": 3080, "pitch": 70, "duration": 3, "velocity": 95}, {"time": 3086, "pitch": 71, "duration": 2, "velocity": 87}, {"time": 3089, "pitch": 68, "duration": 3, "velocity": 87}, {"time": 3092, "pitch": 71, "duration": 3, "velocity": 90}, {"time": 3095, "pitch": 73, "duration": 2, "velocity": 93}, {"time": 3098, "pitch": 75, "duration": 3, "velocity": 105}, {"time": 3101, "pitch": 73, "duration": 3, "velocity": 93}, {"time": 3104, "pitch": 75, "duration": 2, "velocity": 85}, {"time": 3107, "pitch": 78, "duration": 2, "velocity": 87}, {"time": 3110, "pitch": 80, "duration": 21, "velocity": 102}, {"time": 3134, "pitch": 78, "duration": 12, "velocity": 95}, {"time": 3146, "pitch": 75, "duration": 11, "velocity": 80}, {"time": 3158, "pitch": 80, "duration": 30, "velocity": 87}, {"time": 3191, "pitch": 63, "duration": 6, "velocity": 105}, {"time": 3197, "pitch": 66, "duration": 3, "velocity": 80}, {"time": 3200, "pitch": 68, "duration": 2, "velocity": 87}, {"time": 3203, "pitch": 70, "duration": 2, "velocity": 83}, {"time": 3206, "pitch": 71, "duration": 18, "velocity": 103}, {"time": 3260, "pitch": 82, "duration": 10, "velocity": 93}, {"time": 3272, "pitch": 80, "duration": 5, "velocity": 102}, {"time": 3278, "pitch": 78, "duration": 12, "velocity": 102}, {"time": 3290, "pitch": 80, "duration": 5, "velocity": 90}, {"time": 3296, "pitch": 78, "duration": 6, "velocity": 102}, {"time": 3302, "pitch": 75, "duration": 39, "velocity": 93}, {"time": 3374, "pitch": 73, "duration": 4, "velocity": 102}, {"time": 3380, "pitch": 73, "duration": 2, "velocity": 105}, {"time": 3383, "pitch": 68, "duration": 3, "velocity": 87}, {"time": 3386, "pitch": 71, "duration": 4, "velocity": 103}, {"time": 3392, "pitch": 73, "duration": 4, "velocity": 102}, {"time": 3398, "pitch": 70, "duration": 18, "velocity": 102}, {"time": 3416, "pitch": 68, "duration": 5, "velocity": 93}, {"time": 3422, "pitch": 66, "duration": 11, "velocity": 93}, {"time": 3434, "pitch": 68, "duration": 6, "velocity": 87}, {"time": 3440, "pitch": 70, "duration": 5, "velocity": 87}, {"time": 3446, "pitch": 68, "duration": 24, "velocity": 103}, {"time": 3470, "pitch": 71, "duration": 2, "velocity": 90}, {"time": 3473, "pitch": 68, "duration": 3, "velocity": 93}, {"time": 3476, "pitch": 71, "duration": 3, "velocity": 95}, {"time": 3479, "pitch": 73, "duration": 3, "velocity": 93}, {"time": 3482, "pitch": 75, "duration": 2, "velocity": 80}, {"time": 3485, "pitch": 73, "duration": 2, "velocity": 102}, {"time": 3488, "pitch": 75, "duration": 2, "velocity": 102}, {"time": 3491, "pitch": 78, "duration": 2, "velocity": 105}, {"time": 3494, "pitch": 80, "duration": 22, "velocity": 95}, {"time": 3518, "pitch": 78, "duration": 13, "velocity": 102}, {"time": 3530, "pitch": 75, "duration": 11, "velocity": 87}, {"time": 3542, "pitch": 80, "duration": 27, "velocity": 93}, {"time": 3578, "pitch": 63, "duration": 3, "velocity": 110}, {"time": 3581, "pitch": 66, "duration": 2, "velocity": 87}, {"time": 3584, "pitch": 68, "duration": 3, "velocity": 74}, {"time": 3587, "pitch": 70, "duration": 2, "velocity": 85}, {"time": 3590, "pitch": 71, "duration": 25, "velocity": 87}, {"time": 3614, "pitch": 70, "duration": 8, "velocity": 87}, {"time": 3626, "pitch": 61, "duration": 12, "velocity": 80}, {"time": 3638, "pitch": 63, "duration": 27, "velocity": 95}, {"time": 3644, "pitch": 82, "duration": 10, "velocity": 74}, {"time": 3656, "pitch": 80, "duration": 5, "velocity": 83}, {"time": 3662, "pitch": 78, "duration": 10, "velocity": 90}, {"time": 3674, "pitch": 80, "duration": 5, "velocity": 93}, {"time": 3680, "pitch": 78, "duration": 6, "velocity": 87}, {"time": 3686, "pitch": 75, "duration": 25, "velocity": 95}, {"time": 3758, "pitch": 73, "duration": 3, "velocity": 103}, {"time": 3764, "pitch": 73, "duration": 2, "velocity": 93}, {"time": 3767, "pitch": 68, "duration": 3, "velocity": 87}, {"time": 3770, "pitch": 71, "duration": 4, "velocity": 102}, {"time": 3776, "pitch": 73, "duration": 4, "velocity": 95}, {"time": 3782, "pitch": 70, "duration": 18, "velocity": 93}, {"time": 3800, "pitch": 68, "duration": 4, "velocity": 93}, {"time": 3806, "pitch": 66, "duration": 11, "velocity": 93}, {"time": 3818, "pitch": 68, "duration": 5, "velocity": 90}, {"time": 3824, "pitch": 70, "duration": 4, "velocity": 93}, {"time": 3830, "pitch": 68, "duration": 29, "velocity": 103}, {"time": 3878, "pitch": 75, "duration": 25, "velocity": 95}, {"time": 3950, "pitch": 73, "duration": 3, "velocity": 103}, {"time": 3956, "pitch": 73, "duration": 2, "velocity": 93}, {"time": 3959, "pitch": 68, "duration": 3, "velocity": 87}, {"time": 3962, "pitch": 71, "duration": 4, "velocity": 102}, {"time": 3968, "pitch": 73, "duration": 4, "velocity": 95}, {"time": 3974, "pitch": 70, "duration": 18, "velocity": 93}, {"time": 3992, "pitch": 68, "duration": 4, "velocity": 93}, {"time": 4046, "pitch": 68, "duration": 28, "velocity": 105}, {"time": 4076, "pitch": 68, "duration": 7, "velocity": 103}, {"time": 4082, "pitch": 71, "duration": 7, "velocity": 93}, {"time": 4088, "pitch": 75, "duration": 7, "velocity": 105}, {"time": 4094, "pitch": 73, "duration": 33, "velocity": 103}, {"time": 4129, "pitch": 73, "duration": 7, "velocity": 93}, {"time": 4135, "pitch": 71, "duration": 7, "velocity": 93}, {"time": 4142, "pitch": 70, "duration": 19, "velocity": 85}, {"time": 4160, "pitch": 68, "duration": 8, "velocity": 95}, {"time": 4168, "pitch": 66, "duration": 12, "velocity": 87}, {"time": 4181, "pitch": 63, "duration": 9, "velocity": 105}, {"time": 4189, "pitch": 66, "duration": 10, "velocity": 90}, {"time": 4199, "pitch": 68, "duration": 23, "velocity": 105}]}, {"program": 0, "is_drum": false, "name": "PIANO", "notes": [{"time": 38, "pitch": 44, "duration": 39, "velocity": 80}, {"time": 38, "pitch": 56, "duration": 12, "velocity": 63}, {"time": 38, "pitch": 59, "duration": 12, "velocity": 67}, {"time": 50, "pitch": 51, "duration": 15, "velocity": 70}, {"time": 56, "pitch": 56, "duration": 2, "velocity": 87}, {"time": 56, "pitch": 63, "duration": 3, "velocity": 102}, {"time": 68, "pitch": 51, "duration": 7, "velocity": 66}, {"time": 74, "pitch": 56, "duration": 3, "velocity": 93}, {"time": 74, "pitch": 59, "duration": 4, "velocity": 93}, {"time": 80, "pitch": 56, "duration": 2, "velocity": 69}, {"time": 86, "pitch": 49, "duration": 13, "velocity": 69}, {"time": 86, "pitch": 56, "duration": 6, "velocity": 74}, {"time": 86, "pitch": 61, "duration": 6, "velocity": 80}, {"time": 95, "pitch": 56, "duration": 2, "velocity": 71}, {"time": 95, "pitch": 61, "duration": 2, "velocity": 71}, {"time": 104, "pitch": 49, "duration": 20, "velocity": 68}, {"time": 104, "pitch": 56, "duration": 7, "velocity": 72}, {"time": 104, "pitch": 64, "duration": 10, "velocity": 74}, {"time": 116, "pitch": 56, "duration": 2, "velocity": 69}, {"time": 122, "pitch": 56, "duration": 2, "velocity": 87}, {"time": 122, "pitch": 61, "duration": 4, "velocity": 95}, {"time": 134, "pitch": 42, "duration": 40, "velocity": 80}, {"time": 134, "pitch": 58, "duration": 12, "velocity": 80}, {"time": 140, "pitch": 49, "duration": 16, "velocity": 61}, {"time": 152, "pitch": 54, "duration": 14, "velocity": 87}, {"time": 152, "pitch": 61, "duration": 20, "velocity": 93}, {"time": 164, "pitch": 49, "duration": 9, "velocity": 68}, {"time": 170, "pitch": 54, "duration": 4, "velocity": 102}, {"time": 173, "pitch": 58, "duration": 3, "velocity": 83}, {"time": 176, "pitch": 61, "duration": 2, "velocity": 102}, {"time": 182, "pitch": 39, "duration": 41, "velocity": 71}, {"time": 182, "pitch": 58, "duration": 7, "velocity": 68}, {"time": 182, "pitch": 63, "duration": 7, "velocity": 83}, {"time": 188, "pitch": 46, "duration": 28, "velocity": 59}, {"time": 194, "pitch": 58, "duration": 3, "velocity": 69}, {"time": 200, "pitch": 58, "duration": 8, "velocity": 83}, {"time": 200, "pitch": 66, "duration": 10, "velocity": 90}, {"time": 218, "pitch": 63, "duration": 4, "velocity": 102}, {"time": 221, "pitch": 46, "duration": 3, "velocity": 70}, {"time": 224, "pitch": 58, "duration": 2, "velocity": 87}, {"time": 230, "pitch": 44, "duration": 44, "velocity": 74}, {"time": 230, "pitch": 56, "duration": 7, "velocity": 71}, {"time": 230, "pitch": 59, "duration": 8, "velocity": 74}, {"time": 236, "pitch": 51, "duration": 16, "velocity": 68}, {"time": 242, "pitch": 56, "duration": 2, "velocity": 72}, {"time": 248, "pitch": 56, "duration": 4, "velocity": 95}, {"time": 248, "pitch": 63, "duration": 4, "velocity": 95}, {"time": 260, "pitch": 51, "duration": 12, "velocity": 68}, {"time": 266, "pitch": 59, "duration": 3, "velocity": 93}, {"time": 269, "pitch": 56, "duration": 4, "velocity": 85}, {"time": 272, "pitch": 59, "duration": 3, "velocity": 83}, {"time": 278, "pitch": 49, "duration": 15, "velocity": 70}, {"time": 278, "pitch": 56, "duration": 4, "velocity": 72}, {"time": 278, "pitch": 61, "duration": 7, "velocity": 72}, {"time": 284, "pitch": 56, "duration": 3, "velocity": 68}, {"time": 290, "pitch": 64, "duration": 14, "velocity": 85}, {"time": 296, "pitch": 56, "duration": 6, "velocity": 85}, {"time": 302, "pitch": 40, "duration": 16, "velocity": 87}, {"time": 308, "pitch": 47, "duration": 8, "velocity": 64}, {"time": 314, "pitch": 52, "duration": 4, "velocity": 66}, {"time": 314, "pitch": 56, "duration": 3, "velocity": 66}, {"time": 314, "pitch": 59, "duration": 3, "velocity": 70}, {"time": 326, "pitch": 39, "duration": 39, "velocity": 80}, {"time": 326, "pitch": 51, "duration": 7, "velocity": 72}, {"time": 326, "pitch": 58, "duration": 9, "velocity": 72}, {"time": 332, "pitch": 46, "duration": 33, "velocity": 50}, {"time": 338, "pitch": 51, "duration": 8, "velocity": 85}, {"time": 344, "pitch": 63, "duration": 5, "velocity": 102}, {"time": 350, "pitch": 58, "duration": 3, "velocity": 80}, {"time": 356, "pitch": 51, "duration": 3, "velocity": 87}, {"time": 362, "pitch": 51, "duration": 2, "velocity": 95}, {"time": 362, "pitch": 54, "duration": 6, "velocity": 90}, {"time": 368, "pitch": 51, "duration": 1, "velocity": 68}, {"time": 374, "pitch": 44, "duration": 43, "velocity": 80}, {"time": 374, "pitch": 56, "duration": 7, "velocity": 85}, {"time": 374, "pitch": 59, "duration": 12, "velocity": 87}, {"time": 380, "pitch": 51, "duration": 21, "velocity": 70}, {"time": 386, "pitch": 56, "duration": 3, "velocity": 74}, {"time": 392, "pitch": 56, "duration": 4, "velocity": 72}, {"time": 392, "pitch": 63, "duration": 4, "velocity": 93}, {"time": 404, "pitch": 51, "duration": 13, "velocity": 63}, {"time": 407, "pitch": 56, "duration": 4, "velocity": 80}, {"time": 410, "pitch": 59, "duration": 3, "velocity": 87}, {"time": 422, "pitch": 44, "duration": 42, "velocity": 83}, {"time": 422, "pitch": 56, "duration": 8, "velocity": 67}, {"time": 422, "pitch": 59, "duration": 14, "velocity": 74}, {"time": 428, "pitch": 51, "duration": 16, "velocity": 60}, {"time": 434, "pitch": 56, "duration": 2, "velocity": 44}, {"time": 440, "pitch": 56, "duration": 4, "velocity": 87}, {"time": 440, "pitch": 63, "duration": 10, "velocity": 87}, {"time": 452, "pitch": 51, "duration": 9, "velocity": 30}, {"time": 458, "pitch": 56, "duration": 1, "velocity": 61}, {"time": 458, "pitch": 59, "duration": 7, "velocity": 85}, {"time": 464, "pitch": 56, "duration": 3, "velocity": 93}, {"time": 470, "pitch": 42, "duration": 15, "velocity": 80}, {"time": 470, "pitch": 54, "duration": 6, "velocity": 80}, {"time": 470, "pitch": 58, "duration": 12, "velocity": 80}, {"time": 476, "pitch": 49, "duration": 12, "velocity": 39}, {"time": 482, "pitch": 54, "duration": 8, "velocity": 69}, {"time": 488, "pitch": 58, "duration": 6, "velocity": 93}, {"time": 494, "pitch": 44, "duration": 15, "velocity": 74}, {"time": 494, "pitch": 56, "duration": 13, "velocity": 74}, {"time": 494, "pitch": 59, "duration": 13, "velocity": 80}, {"time": 506, "pitch": 51, "duration": 3, "velocity": 55}, {"time": 512, "pitch": 56, "duration": 2, "velocity": 93}, {"time": 518, "pitch": 40, "duration": 18, "velocity": 74}, {"time": 518, "pitch": 52, "duration": 8, "velocity": 70}, {"time": 518, "pitch": 59, "duration": 13, "velocity": 87}, {"time": 524, "pitch": 47, "duration": 13, "velocity": 45}, {"time": 530, "pitch": 52, "duration": 4, "velocity": 74}, {"time": 536, "pitch": 59, "duration": 2, "velocity": 90}, {"time": 542, "pitch": 49, "duration": 15, "velocity": 80}, {"time": 542, "pitch": 61, "duration": 8, "velocity": 80}, {"time": 548, "pitch": 56, "duration": 7, "velocity": 64}, {"time": 554, "pitch": 61, "duration": 3, "velocity": 87}, {"time": 566, "pitch": 39, "duration": 38, "velocity": 80}, {"time": 566, "pitch": 58, "duration": 7, "velocity": 68}, {"time": 566, "pitch": 63, "duration": 8, "velocity": 87}, {"time": 572, "pitch": 46, "duration": 21, "velocity": 47}, {"time": 578, "pitch": 58, "duration": 8, "velocity": 80}, {"time": 584, "pitch": 63, "duration": 13, "velocity": 93}, {"time": 596, "pitch": 46, "duration": 9, "velocity": 55}, {"time": 602, "pitch": 58, "duration": 3, "velocity": 90}, {"time": 602, "pitch": 63, "duration": 3, "velocity": 103}, {"time": 608, "pitch": 61, "duration": 3, "velocity": 87}, {"time": 614, "pitch": 44, "duration": 41, "velocity": 80}, {"time": 614, "pitch": 56, "duration": 8, "velocity": 80}, {"time": 614, "pitch": 59, "duration": 8, "velocity": 83}, {"time": 620, "pitch": 51, "duration": 32, "velocity": 59}, {"time": 626, "pitch": 56, "duration": 2, "velocity": 56}, {"time": 632, "pitch": 56, "duration": 2, "velocity": 87}, {"time": 632, "pitch": 63, "duration": 2, "velocity": 87}, {"time": 650, "pitch": 56, "duration": 3, "velocity": 87}, {"time": 650, "pitch": 59, "duration": 3, "velocity": 87}, {"time": 656, "pitch": 56, "duration": 2, "velocity": 83}, {"time": 662, "pitch": 44, "duration": 17, "velocity": 83}, {"time": 662, "pitch": 56, "duration": 6, "velocity": 72}, {"time": 662, "pitch": 63, "duration": 7, "velocity": 80}, {"time": 668, "pitch": 51, "duration": 12, "velocity": 59}, {"time": 674, "pitch": 56, "duration": 3, "velocity": 58}, {"time": 680, "pitch": 59, "duration": 4, "velocity": 87}, {"time": 686, "pitch": 49, "duration": 15, "velocity": 80}, {"time": 686, "pitch": 61, "duration": 7, "velocity": 87}, {"time": 692, "pitch": 56, "duration": 4, "velocity": 67}, {"time": 698, "pitch": 64, "duration": 4, "velocity": 72}, {"time": 710, "pitch": 49, "duration": 23, "velocity": 83}, {"time": 710, "pitch": 56, "duration": 3, "velocity": 68}, {"time": 710, "pitch": 61, "duration": 6, "velocity": 85}, {"time": 716, "pitch": 56, "duration": 7, "velocity": 71}, {"time": 722, "pitch": 61, "duration": 8, "velocity": 93}, {"time": 728, "pitch": 56, "duration": 3, "velocity": 74}, {"time": 734, "pitch": 51, "duration": 13, "velocity": 80}, {"time": 734, "pitch": 58, "duration": 4, "velocity": 71}, {"time": 734, "pitch": 63, "duration": 7, "velocity": 83}, {"time": 740, "pitch": 58, "duration": 3, "velocity": 74}, {"time": 746, "pitch": 63, "duration": 3, "velocity": 95}, {"time": 758, "pitch": 44, "duration": 46, "velocity": 80}, {"time": 758, "pitch": 56, "duration": 8, "velocity": 72}, {"time": 758, "pitch": 59, "duration": 13, "velocity": 74}, {"time": 764, "pitch": 51, "duration": 40, "velocity": 63}, {"time": 770, "pitch": 56, "duration": 8, "velocity": 74}, {"time": 776, "pitch": 68, "duration": 8, "velocity": 103}, {"time": 782, "pitch": 56, "duration": 5, "velocity": 87}, {"time": 788, "pitch": 63, "duration": 3, "velocity": 74}, {"time": 794, "pitch": 56, "duration": 8, "velocity": 83}, {"time": 794, "pitch": 59, "duration": 8, "velocity": 80}, {"time": 806, "pitch": 44, "duration": 42, "velocity": 83}, {"time": 806, "pitch": 56, "duration": 8, "velocity": 67}, {"time": 806, "pitch": 59, "duration": 14, "velocity": 74}, {"time": 812, "pitch": 51, "duration": 16, "velocity": 60}, {"time": 818, "pitch": 56, "duration": 2, "velocity": 44}, {"time": 824, "pitch": 56, "duration": 4, "velocity": 87}, {"time": 824, "pitch": 63, "duration": 10, "velocity": 87}, {"time": 836, "pitch": 51, "duration": 9, "velocity": 30}, {"time": 842, "pitch": 56, "duration": 1, "velocity": 61}, {"time": 842, "pitch": 59, "duration": 7, "velocity": 85}, {"time": 848, "pitch": 56, "duration": 3, "velocity": 93}, {"time": 854, "pitch": 42, "duration": 15, "velocity": 80}, {"time": 854, "pitch": 54, "duration": 6, "velocity": 80}, {"time": 854, "pitch": 58, "duration": 12, "velocity": 80}, {"time": 860, "pitch": 49, "duration": 12, "velocity": 39}, {"time": 866, "pitch": 54, "duration": 8, "velocity": 69}, {"time": 872, "pitch": 58, "duration": 6, "velocity": 93}, {"time": 878, "pitch": 44, "duration": 15, "velocity": 74}, {"time": 878, "pitch": 56, "duration": 13, "velocity": 74}, {"time": 878, "pitch": 59, "duration": 13, "velocity": 80}, {"time": 890, "pitch": 51, "duration": 3, "velocity": 55}, {"time": 896, "pitch": 56, "duration": 2, "velocity": 93}, {"time": 902, "pitch": 40, "duration": 18, "velocity": 74}, {"time": 902, "pitch": 52, "duration": 8, "velocity": 70}, {"time": 902, "pitch": 59, "duration": 13, "velocity": 87}, {"time": 908, "pitch": 47, "duration": 13, "velocity": 45}, {"time": 914, "pitch": 52, "duration": 4, "velocity": 74}, {"time": 920, "pitch": 59, "duration": 2, "velocity": 90}, {"time": 926, "pitch": 49, "duration": 15, "velocity": 80}, {"time": 926, "pitch": 61, "duration": 8, "velocity": 80}, {"time": 932, "pitch": 56, "duration": 7, "velocity": 64}, {"time": 938, "pitch": 61, "duration": 3, "velocity": 87}, {"time": 950, "pitch": 39, "duration": 38, "velocity": 80}, {"time": 950, "pitch": 58, "duration": 7, "velocity": 68}, {"time": 950, "pitch": 63, "duration": 8, "velocity": 87}, {"time": 956, "pitch": 46, "duration": 21, "velocity": 47}, {"time": 962, "pitch": 58, "duration": 8, "velocity": 80}, {"time": 968, "pitch": 63, "duration": 13, "velocity": 93}, {"time": 980, "pitch": 46, "duration": 9, "velocity": 55}, {"time": 986, "pitch": 58, "duration": 3, "velocity": 90}, {"time": 986, "pitch": 63, "duration": 3, "velocity": 103}, {"time": 992, "pitch": 61, "duration": 3, "velocity": 87}, {"time": 998, "pitch": 44, "duration": 41, "velocity": 80}, {"time": 998, "pitch": 56, "duration": 8, "velocity": 80}, {"time": 998, "pitch": 59, "duration": 8, "velocity": 83}, {"time": 1004, "pitch": 51, "duration": 32, "velocity": 59}, {"time": 1010, "pitch": 56, "duration": 2, "velocity": 56}, {"time": 1016, "pitch": 56, "duration": 2, "velocity": 87}, {"time": 1016, "pitch": 63, "duration": 2, "velocity": 87}, {"time": 1034, "pitch": 56, "duration": 3, "velocity": 87}, {"time": 1034, "pitch": 59, "duration": 3, "velocity": 87}, {"time": 1040, "pitch": 56, "duration": 2, "velocity": 83}, {"time": 1046, "pitch": 44, "duration": 17, "velocity": 83}, {"time": 1046, "pitch": 56, "duration": 6, "velocity": 72}, {"time": 1046, "pitch": 63, "duration": 7, "velocity": 80}, {"time": 1052, "pitch": 51, "duration": 12, "velocity": 59}, {"time": 1058, "pitch": 56, "duration": 3, "velocity": 58}, {"time": 1064, "pitch": 59, "duration": 4, "velocity": 87}, {"time": 1070, "pitch": 49, "duration": 15, "velocity": 80}, {"time": 1070, "pitch": 61, "duration": 7, "velocity": 87}, {"time": 1076, "pitch": 56, "duration": 4, "velocity": 67}, {"time": 1082, "pitch": 64, "duration": 4, "velocity": 72}, {"time": 1094, "pitch": 49, "duration": 23, "velocity": 83}, {"time": 1094, "pitch": 56, "duration": 3, "velocity": 68}, {"time": 1094, "pitch": 61, "duration": 6, "velocity": 85}, {"time": 1100, "pitch": 56, "duration": 7, "velocity": 71}, {"time": 1106, "pitch": 61, "duration": 8, "velocity": 93}, {"time": 1112, "pitch": 56, "duration": 3, "velocity": 74}, {"time": 1118, "pitch": 51, "duration": 13, "velocity": 80}, {"time": 1118, "pitch": 58, "duration": 4, "velocity": 71}, {"time": 1118, "pitch": 63, "duration": 7, "velocity": 83}, {"time": 1124, "pitch": 58, "duration": 3, "velocity": 74}, {"time": 1130, "pitch": 63, "duration": 3, "velocity": 95}, {"time": 1142, "pitch": 44, "duration": 46, "velocity": 80}, {"time": 1142, "pitch": 56, "duration": 8, "velocity": 72}, {"time": 1142, "pitch": 59, "duration": 13, "velocity": 74}, {"time": 1148, "pitch": 51, "duration": 40, "velocity": 63}, {"time": 1154, "pitch": 56, "duration": 8, "velocity": 74}, {"time": 1160, "pitch": 68, "duration": 8, "velocity": 103}, {"time": 1166, "pitch": 56, "duration": 5, "velocity": 87}, {"time": 1172, "pitch": 63, "duration": 3, "velocity": 74}, {"time": 1178, "pitch": 56, "duration": 8, "velocity": 83}, {"time": 1178, "pitch": 59, "duration": 8, "velocity": 80}, {"time": 1190, "pitch": 44, "duration": 16, "velocity": 93}, {"time": 1196, "pitch": 51, "duration": 10, "velocity": 69}, {"time": 1199, "pitch": 56, "duration": 7, "velocity": 93}, {"time": 1205, "pitch": 63, "duration": 5, "velocity": 102}, {"time": 1208, "pitch": 59, "duration": 4, "velocity": 74}, {"time": 1211, "pitch": 56, "duration": 3, "velocity": 72}, {"time": 1214, "pitch": 39, "duration": 15, "velocity": 85}, {"time": 1217, "pitch": 46, "duration": 11, "velocity": 64}, {"time": 1220, "pitch": 51, "duration": 4, "velocity": 71}, {"time": 1223, "pitch": 54, "duration": 3, "velocity": 87}, {"time": 1226, "pitch": 51, "duration": 4, "velocity": 95}, {"time": 1226, "pitch": 54, "duration": 4, "velocity": 83}, {"time": 1226, "pitch": 58, "duration": 5, "velocity": 85}, {"time": 1232, "pitch": 39, "duration": 2, "velocity": 83}, {"time": 1238, "pitch": 44, "duration": 22, "velocity": 87}, {"time": 1238, "pitch": 56, "duration": 8, "velocity": 74}, {"time": 1238, "pitch": 59, "duration": 7, "velocity": 80}, {"time": 1244, "pitch": 51, "duration": 8, "velocity": 51}, {"time": 1250, "pitch": 56, "duration": 3, "velocity": 87}, {"time": 1250, "pitch": 63, "duration": 3, "velocity": 93}, {"time": 1256, "pitch": 51, "duration": 4, "velocity": 49}, {"time": 1259, "pitch": 59, "duration": 1, "velocity": 68}, {"time": 1259, "pitch": 63, "duration": 8, "velocity": 93}, {"time": 1262, "pitch": 44, "duration": 19, "velocity": 72}, {"time": 1265, "pitch": 51, "duration": 13, "velocity": 80}, {"time": 1268, "pitch": 56, "duration": 5, "velocity": 87}, {"time": 1271, "pitch": 59, "duration": 3, "velocity": 93}, {"time": 1274, "pitch": 68, "duration": 4, "velocity": 105}, {"time": 1277, "pitch": 63, "duration": 4, "velocity": 103}, {"time": 1280, "pitch": 59, "duration": 4, "velocity": 93}, {"time": 1283, "pitch": 56, "duration": 3, "velocity": 95}, {"time": 1286, "pitch": 40, "duration": 20, "velocity": 90}, {"time": 1292, "pitch": 47, "duration": 9, "velocity": 58}, {"time": 1298, "pitch": 52, "duration": 6, "velocity": 87}, {"time": 1298, "pitch": 59, "duration": 10, "velocity": 83}, {"time": 1304, "pitch": 47, "duration": 4, "velocity": 60}, {"time": 1307, "pitch": 52, "duration": 3, "velocity": 83}, {"time": 1310, "pitch": 42, "duration": 15, "velocity": 87}, {"time": 1313, "pitch": 49, "duration": 11, "velocity": 66}, {"time": 1316, "pitch": 54, "duration": 5, "velocity": 80}, {"time": 1319, "pitch": 58, "duration": 3, "velocity": 87}, {"time": 1322, "pitch": 61, "duration": 5, "velocity": 102}, {"time": 1328, "pitch": 54, "duration": 2, "velocity": 85}, {"time": 1334, "pitch": 39, "duration": 21, "velocity": 83}, {"time": 1334, "pitch": 51, "duration": 7, "velocity": 85}, {"time": 1334, "pitch": 54, "duration": 5, "velocity": 87}, {"time": 1340, "pitch": 46, "duration": 9, "velocity": 43}, {"time": 1346, "pitch": 51, "duration": 3, "velocity": 87}, {"time": 1346, "pitch": 58, "duration": 3, "velocity": 83}, {"time": 1352, "pitch": 46, "duration": 4, "velocity": 50}, {"time": 1355, "pitch": 51, "duration": 5, "velocity": 87}, {"time": 1355, "pitch": 63, "duration": 13, "velocity": 102}, {"time": 1358, "pitch": 39, "duration": 21, "velocity": 83}, {"time": 1361, "pitch": 46, "duration": 9, "velocity": 69}, {"time": 1361, "pitch": 51, "duration": 5, "velocity": 87}, {"time": 1367, "pitch": 58, "duration": 5, "velocity": 72}, {"time": 1370, "pitch": 46, "duration": 7, "velocity": 70}, {"time": 1370, "pitch": 63, "duration": 9, "velocity": 105}, {"time": 1376, "pitch": 51, "duration": 2, "velocity": 87}, {"time": 1382, "pitch": 44, "duration": 21, "velocity": 87}, {"time": 1382, "pitch": 56, "duration": 8, "velocity": 80}, {"time": 1382, "pitch": 59, "duration": 8, "velocity": 87}, {"time": 1388, "pitch": 51, "duration": 8, "velocity": 67}, {"time": 1394, "pitch": 56, "duration": 6, "velocity": 87}, {"time": 1394, "pitch": 63, "duration": 9, "velocity": 93}, {"time": 1400, "pitch": 51, "duration": 4, "velocity": 67}, {"time": 1403, "pitch": 59, "duration": 9, "velocity": 72}, {"time": 1406, "pitch": 44, "duration": 20, "velocity": 87}, {"time": 1409, "pitch": 51, "duration": 10, "velocity": 67}, {"time": 1412, "pitch": 56, "duration": 4, "velocity": 74}, {"time": 1415, "pitch": 63, "duration": 6, "velocity": 95}, {"time": 1418, "pitch": 56, "duration": 6, "velocity": 80}, {"time": 1424, "pitch": 51, "duration": 2, "velocity": 65}, {"time": 1430, "pitch": 37, "duration": 39, "velocity": 87}, {"time": 1430, "pitch": 56, "duration": 8, "velocity": 69}, {"time": 1430, "pitch": 61, "duration": 8, "velocity": 66}, {"time": 1436, "pitch": 44, "duration": 9, "velocity": 64}, {"time": 1442, "pitch": 56, "duration": 6, "velocity": 90}, {"time": 1442, "pitch": 64, "duration": 10, "velocity": 93}, {"time": 1448, "pitch": 44, "duration": 22, "velocity": 64}, {"time": 1451, "pitch": 56, "duration": 4, "velocity": 74}, {"time": 1454, "pitch": 61, "duration": 5, "velocity": 80}, {"time": 1460, "pitch": 56, "duration": 3, "velocity": 60}, {"time": 1466, "pitch": 56, "duration": 4, "velocity": 102}, {"time": 1466, "pitch": 64, "duration": 7, "velocity": 90}, {"time": 1472, "pitch": 56, "duration": 1, "velocity": 27}, {"time": 1472, "pitch": 61, "duration": 4, "velocity": 67}, {"time": 1478, "pitch": 39, "duration": 22, "velocity": 74}, {"time": 1478, "pitch": 58, "duration": 8, "velocity": 69}, {"time": 1478, "pitch": 63, "duration": 9, "velocity": 74}, {"time": 1484, "pitch": 46, "duration": 16, "velocity": 53}, {"time": 1490, "pitch": 66, "duration": 4, "velocity": 80}, {"time": 1493, "pitch": 63, "duration": 3, "velocity": 87}, {"time": 1496, "pitch": 58, "duration": 4, "velocity": 83}, {"time": 1502, "pitch": 39, "duration": 14, "velocity": 74}, {"time": 1502, "pitch": 58, "duration": 9, "velocity": 68}, {"time": 1502, "pitch": 63, "duration": 10, "velocity": 74}, {"time": 1508, "pitch": 46, "duration": 8, "velocity": 50}, {"time": 1514, "pitch": 58, "duration": 3, "velocity": 74}, {"time": 1514, "pitch": 66, "duration": 8, "velocity": 72}, {"time": 1520, "pitch": 58, "duration": 2, "velocity": 69}, {"time": 1526, "pitch": 44, "duration": 23, "velocity": 80}, {"time": 1526, "pitch": 56, "duration": 8, "velocity": 69}, {"time": 1526, "pitch": 59, "duration": 8, "velocity": 70}, {"time": 1532, "pitch": 51, "duration": 8, "velocity": 63}, {"time": 1538, "pitch": 56, "duration": 6, "velocity": 93}, {"time": 1538, "pitch": 63, "duration": 8, "velocity": 90}, {"time": 1544, "pitch": 51, "duration": 6, "velocity": 64}, {"time": 1547, "pitch": 56, "duration": 4, "velocity": 71}, {"time": 1550, "pitch": 44, "duration": 21, "velocity": 93}, {"time": 1550, "pitch": 59, "duration": 5, "velocity": 74}, {"time": 1553, "pitch": 51, "duration": 17, "velocity": 63}, {"time": 1562, "pitch": 56, "duration": 6, "velocity": 80}, {"time": 1568, "pitch": 59, "duration": 3, "velocity": 80}, {"time": 1574, "pitch": 44, "duration": 16, "velocity": 93}, {"time": 1580, "pitch": 51, "duration": 10, "velocity": 69}, {"time": 1583, "pitch": 56, "duration": 7, "velocity": 93}, {"time": 1589, "pitch": 63, "duration": 5, "velocity": 102}, {"time": 1592, "pitch": 59, "duration": 4, "velocity": 74}, {"time": 1595, "pitch": 56, "duration": 3, "velocity": 72}, {"time": 1598, "pitch": 39, "duration": 15, "velocity": 85}, {"time": 1601, "pitch": 46, "duration": 11, "velocity": 64}, {"time": 1604, "pitch": 51, "duration": 4, "velocity": 71}, {"time": 1607, "pitch": 54, "duration": 3, "velocity": 87}, {"time": 1610, "pitch": 51, "duration": 4, "velocity": 95}, {"time": 1610, "pitch": 54, "duration": 4, "velocity": 83}, {"time": 1610, "pitch": 58, "duration": 5, "velocity": 85}, {"time": 1616, "pitch": 39, "duration": 2, "velocity": 83}, {"time": 1622, "pitch": 44, "duration": 22, "velocity": 87}, {"time": 1622, "pitch": 56, "duration": 8, "velocity": 74}, {"time": 1622, "pitch": 59, "duration": 7, "velocity": 80}, {"time": 1628, "pitch": 51, "duration": 8, "velocity": 51}, {"time": 1634, "pitch": 56, "duration": 3, "velocity": 87}, {"time": 1634, "pitch": 63, "duration": 3, "velocity": 93}, {"time": 1640, "pitch": 51, "duration": 4, "velocity": 49}, {"time": 1643, "pitch": 59, "duration": 1, "velocity": 68}, {"time": 1643, "pitch": 63, "duration": 8, "velocity": 93}, {"time": 1646, "pitch": 44, "duration": 19, "velocity": 72}, {"time": 1649, "pitch": 51, "duration": 13, "velocity": 80}, {"time": 1652, "pitch": 56, "duration": 5, "velocity": 87}, {"time": 1655, "pitch": 59, "duration": 3, "velocity": 93}, {"time": 1658, "pitch": 68, "duration": 4, "velocity": 105}, {"time": 1661, "pitch": 63, "duration": 4, "velocity": 103}, {"time": 1664, "pitch": 59, "duration": 4, "velocity": 93}, {"time": 1667, "pitch": 56, "duration": 3, "velocity": 95}, {"time": 1670, "pitch": 40, "duration": 20, "velocity": 90}, {"time": 1676, "pitch": 47, "duration": 9, "velocity": 58}, {"time": 1682, "pitch": 52, "duration": 6, "velocity": 87}, {"time": 1682, "pitch": 59, "duration": 10, "velocity": 83}, {"time": 1688, "pitch": 47, "duration": 4, "velocity": 60}, {"time": 1691, "pitch": 52, "duration": 3, "velocity": 83}, {"time": 1694, "pitch": 42, "duration": 15, "velocity": 87}, {"time": 1697, "pitch": 49, "duration": 11, "velocity": 66}, {"time": 1700, "pitch": 54, "duration": 5, "velocity": 80}, {"time": 1703, "pitch": 58, "duration": 3, "velocity": 87}, {"time": 1706, "pitch": 61, "duration": 5, "velocity": 102}, {"time": 1712, "pitch": 54, "duration": 2, "velocity": 85}, {"time": 1718, "pitch": 39, "duration": 21, "velocity": 83}, {"time": 1718, "pitch": 51, "duration": 7, "velocity": 85}, {"time": 1718, "pitch": 54, "duration": 5, "velocity": 87}, {"time": 1724, "pitch": 46, "duration": 9, "velocity": 43}, {"time": 1730, "pitch": 51, "duration": 3, "velocity": 87}, {"time": 1730, "pitch": 58, "duration": 3, "velocity": 83}, {"time": 1736, "pitch": 46, "duration": 4, "velocity": 50}, {"time": 1739, "pitch": 51, "duration": 5, "velocity": 87}, {"time": 1739, "pitch": 63, "duration": 13, "velocity": 102}, {"time": 1742, "pitch": 39, "duration": 21, "velocity": 83}, {"time": 1745, "pitch": 46, "duration": 9, "velocity": 69}, {"time": 1745, "pitch": 51, "duration": 5, "velocity": 87}, {"time": 1751, "pitch": 58, "duration": 5, "velocity": 72}, {"time": 1754, "pitch": 46, "duration": 7, "velocity": 70}, {"time": 1754, "pitch": 63, "duration": 9, "velocity": 105}, {"time": 1760, "pitch": 51, "duration": 2, "velocity": 87}, {"time": 1766, "pitch": 44, "duration": 21, "velocity": 87}, {"time": 1766, "pitch": 56, "duration": 8, "velocity": 80}, {"time": 1766, "pitch": 59, "duration": 8, "velocity": 87}, {"time": 1772, "pitch": 51, "duration": 8, "velocity": 67}, {"time": 1778, "pitch": 56, "duration": 6, "velocity": 87}, {"time": 1778, "pitch": 63, "duration": 9, "velocity": 93}, {"time": 1784, "pitch": 51, "duration": 4, "velocity": 67}, {"time": 1787, "pitch": 59, "duration": 9, "velocity": 72}, {"time": 1790, "pitch": 44, "duration": 20, "velocity": 87}, {"time": 1793, "pitch": 51, "duration": 10, "velocity": 67}, {"time": 1796, "pitch": 56, "duration": 4, "velocity": 74}, {"time": 1799, "pitch": 63, "duration": 6, "velocity": 95}, {"time": 1802, "pitch": 56, "duration": 6, "velocity": 80}, {"time": 1808, "pitch": 51, "duration": 2, "velocity": 65}, {"time": 1814, "pitch": 37, "duration": 39, "velocity": 87}, {"time": 1814, "pitch": 56, "duration": 8, "velocity": 69}, {"time": 1814, "pitch": 61, "duration": 8, "velocity": 66}, {"time": 1820, "pitch": 44, "duration": 9, "velocity": 64}, {"time": 1826, "pitch": 56, "duration": 6, "velocity": 90}, {"time": 1826, "pitch": 64, "duration": 10, "velocity": 93}, {"time": 1832, "pitch": 44, "duration": 22, "velocity": 64}, {"time": 1835, "pitch": 56, "duration": 4, "velocity": 74}, {"time": 1838, "pitch": 61, "duration": 5, "velocity": 80}, {"time": 1844, "pitch": 56, "duration": 3, "velocity": 60}, {"time": 1850, "pitch": 56, "duration": 4, "velocity": 102}, {"time": 1850, "pitch": 64, "duration": 7, "velocity": 90}, {"time": 1856, "pitch": 56, "duration": 1, "velocity": 27}, {"time": 1856, "pitch": 61, "duration": 4, "velocity": 67}, {"time": 1862, "pitch": 39, "duration": 22, "velocity": 74}, {"time": 1862, "pitch": 58, "duration": 8, "velocity": 69}, {"time": 1862, "pitch": 63, "duration": 9, "velocity": 74}, {"time": 1868, "pitch": 46, "duration": 16, "velocity": 53}, {"time": 1874, "pitch": 66, "duration": 4, "velocity": 80}, {"time": 1877, "pitch": 63, "duration": 3, "velocity": 87}, {"time": 1880, "pitch": 58, "duration": 4, "velocity": 83}, {"time": 1886, "pitch": 39, "duration": 14, "velocity": 74}, {"time": 1886, "pitch": 58, "duration": 9, "velocity": 68}, {"time": 1886, "pitch": 63, "duration": 10, "velocity": 74}, {"time": 1892, "pitch": 46, "duration": 8, "velocity": 50}, {"time": 1898, "pitch": 58, "duration": 3, "velocity": 74}, {"time": 1898, "pitch": 66, "duration": 8, "velocity": 72}, {"time": 1904, "pitch": 58, "duration": 2, "velocity": 69}, {"time": 1910, "pitch": 44, "duration": 23, "velocity": 80}, {"time": 1910, "pitch": 56, "duration": 8, "velocity": 69}, {"time": 1910, "pitch": 59, "duration": 8, "velocity": 70}, {"time": 1916, "pitch": 51, "duration": 8, "velocity": 63}, {"time": 1922, "pitch": 56, "duration": 6, "velocity": 93}, {"time": 1922, "pitch": 63, "duration": 8, "velocity": 90}, {"time": 1928, "pitch": 51, "duration": 6, "velocity": 64}, {"time": 1931, "pitch": 56, "duration": 4, "velocity": 71}, {"time": 1934, "pitch": 44, "duration": 21, "velocity": 93}, {"time": 1934, "pitch": 59, "duration": 5, "velocity": 74}, {"time": 1937, "pitch": 51, "duration": 17, "velocity": 63}, {"time": 1946, "pitch": 56, "duration": 6, "velocity": 80}, {"time": 1952, "pitch": 59, "duration": 3, "velocity": 80}, {"time": 1958, "pitch": 44, "duration": 39, "velocity": 80}, {"time": 1958, "pitch": 56, "duration": 12, "velocity": 63}, {"time": 1958, "pitch": 59, "duration": 12, "velocity": 67}, {"time": 1970, "pitch": 51, "duration": 15, "velocity": 70}, {"time": 1976, "pitch": 56, "duration": 2, "velocity": 87}, {"time": 1976, "pitch": 63, "duration": 3, "velocity": 102}, {"time": 1988, "pitch": 51, "duration": 7, "velocity": 66}, {"time": 1994, "pitch": 56, "duration": 3, "velocity": 93}, {"time": 1994, "pitch": 59, "duration": 4, "velocity": 93}, {"time": 2000, "pitch": 56, "duration": 2, "velocity": 69}, {"time": 2006, "pitch": 49, "duration": 13, "velocity": 69}, {"time": 2006, "pitch": 56, "duration": 6, "velocity": 74}, {"time": 2006, "pitch": 61, "duration": 6, "velocity": 80}, {"time": 2015, "pitch": 56, "duration": 2, "velocity": 71}, {"time": 2015, "pitch": 61, "duration": 2, "velocity": 71}, {"time": 2024, "pitch": 49, "duration": 20, "velocity": 68}, {"time": 2024, "pitch": 56, "duration": 7, "velocity": 72}, {"time": 2024, "pitch": 64, "duration": 10, "velocity": 74}, {"time": 2036, "pitch": 56, "duration": 2, "velocity": 69}, {"time": 2042, "pitch": 56, "duration": 2, "velocity": 87}, {"time": 2042, "pitch": 61, "duration": 4, "velocity": 95}, {"time": 2054, "pitch": 42, "duration": 40, "velocity": 80}, {"time": 2054, "pitch": 58, "duration": 12, "velocity": 80}, {"time": 2060, "pitch": 49, "duration": 16, "velocity": 61}, {"time": 2072, "pitch": 54, "duration": 14, "velocity": 87}, {"time": 2072, "pitch": 61, "duration": 20, "velocity": 93}, {"time": 2084, "pitch": 49, "duration": 9, "velocity": 68}, {"time": 2090, "pitch": 54, "duration": 4, "velocity": 102}, {"time": 2093, "pitch": 58, "duration": 3, "velocity": 83}, {"time": 2096, "pitch": 61, "duration": 2, "velocity": 102}, {"time": 2102, "pitch": 39, "duration": 41, "velocity": 71}, {"time": 2102, "pitch": 58, "duration": 7, "velocity": 68}, {"time": 2102, "pitch": 63, "duration": 7, "velocity": 83}, {"time": 2108, "pitch": 46, "duration": 28, "velocity": 59}, {"time": 2114, "pitch": 58, "duration": 3, "velocity": 69}, {"time": 2120, "pitch": 58, "duration": 8, "velocity": 83}, {"time": 2120, "pitch": 66, "duration": 10, "velocity": 90}, {"time": 2138, "pitch": 63, "duration": 4, "velocity": 102}, {"time": 2141, "pitch": 46, "duration": 3, "velocity": 70}, {"time": 2144, "pitch": 58, "duration": 2, "velocity": 87}, {"time": 2150, "pitch": 44, "duration": 44, "velocity": 74}, {"time": 2150, "pitch": 56, "duration": 7, "velocity": 71}, {"time": 2150, "pitch": 59, "duration": 8, "velocity": 74}, {"time": 2156, "pitch": 51, "duration": 16, "velocity": 68}, {"time": 2162, "pitch": 56, "duration": 2, "velocity": 72}, {"time": 2168, "pitch": 56, "duration": 4, "velocity": 95}, {"time": 2168, "pitch": 63, "duration": 4, "velocity": 95}, {"time": 2180, "pitch": 51, "duration": 12, "velocity": 68}, {"time": 2186, "pitch": 59, "duration": 3, "velocity": 93}, {"time": 2189, "pitch": 56, "duration": 4, "velocity": 85}, {"time": 2192, "pitch": 59, "duration": 3, "velocity": 83}, {"time": 2198, "pitch": 49, "duration": 15, "velocity": 70}, {"time": 2198, "pitch": 56, "duration": 4, "velocity": 72}, {"time": 2198, "pitch": 61, "duration": 7, "velocity": 72}, {"time": 2204, "pitch": 56, "duration": 3, "velocity": 68}, {"time": 2210, "pitch": 64, "duration": 14, "velocity": 85}, {"time": 2216, "pitch": 56, "duration": 6, "velocity": 85}, {"time": 2222, "pitch": 40, "duration": 16, "velocity": 87}, {"time": 2228, "pitch": 47, "duration": 8, "velocity": 64}, {"time": 2234, "pitch": 52, "duration": 4, "velocity": 66}, {"time": 2234, "pitch": 56, "duration": 3, "velocity": 66}, {"time": 2234, "pitch": 59, "duration": 3, "velocity": 70}, {"time": 2246, "pitch": 39, "duration": 39, "velocity": 80}, {"time": 2246, "pitch": 51, "duration": 7, "velocity": 72}, {"time": 2246, "pitch": 58, "duration": 9, "velocity": 72}, {"time": 2252, "pitch": 46, "duration": 33, "velocity": 50}, {"time": 2258, "pitch": 51, "duration": 8, "velocity": 85}, {"time": 2264, "pitch": 63, "duration": 5, "velocity": 102}, {"time": 2270, "pitch": 58, "duration": 3, "velocity": 80}, {"time": 2276, "pitch": 51, "duration": 3, "velocity": 87}, {"time": 2282, "pitch": 51, "duration": 2, "velocity": 95}, {"time": 2282, "pitch": 54, "duration": 6, "velocity": 90}, {"time": 2288, "pitch": 51, "duration": 1, "velocity": 68}, {"time": 2294, "pitch": 44, "duration": 43, "velocity": 80}, {"time": 2294, "pitch": 56, "duration": 7, "velocity": 85}, {"time": 2294, "pitch": 59, "duration": 12, "velocity": 87}, {"time": 2300, "pitch": 51, "duration": 21, "velocity": 70}, {"time": 2306, "pitch": 56, "duration": 3, "velocity": 74}, {"time": 2312, "pitch": 56, "duration": 4, "velocity": 72}, {"time": 2312, "pitch": 63, "duration": 4, "velocity": 93}, {"time": 2324, "pitch": 51, "duration": 13, "velocity": 63}, {"time": 2327, "pitch": 56, "duration": 4, "velocity": 80}, {"time": 2330, "pitch": 59, "duration": 3, "velocity": 87}, {"time": 2342, "pitch": 44, "duration": 42, "velocity": 83}, {"time": 2342, "pitch": 56, "duration": 8, "velocity": 67}, {"time": 2342, "pitch": 59, "duration": 14, "velocity": 74}, {"time": 2348, "pitch": 51, "duration": 16, "velocity": 60}, {"time": 2354, "pitch": 56, "duration": 2, "velocity": 44}, {"time": 2360, "pitch": 56, "duration": 4, "velocity": 87}, {"time": 2360, "pitch": 63, "duration": 10, "velocity": 87}, {"time": 2372, "pitch": 51, "duration": 9, "velocity": 30}, {"time": 2378, "pitch": 56, "duration": 1, "velocity": 61}, {"time": 2378, "pitch": 59, "duration": 7, "velocity": 85}, {"time": 2384, "pitch": 56, "duration": 3, "velocity": 93}, {"time": 2390, "pitch": 42, "duration": 15, "velocity": 80}, {"time": 2390, "pitch": 54, "duration": 6, "velocity": 80}, {"time": 2390, "pitch": 58, "duration": 12, "velocity": 80}, {"time": 2396, "pitch": 49, "duration": 12, "velocity": 39}, {"time": 2402, "pitch": 54, "duration": 8, "velocity": 69}, {"time": 2408, "pitch": 58, "duration": 6, "velocity": 93}, {"time": 2414, "pitch": 44, "duration": 15, "velocity": 74}, {"time": 2414, "pitch": 56, "duration": 13, "velocity": 74}, {"time": 2414, "pitch": 59, "duration": 13, "velocity": 80}, {"time": 2426, "pitch": 51, "duration": 3, "velocity": 55}, {"time": 2432, "pitch": 56, "duration": 2, "velocity": 93}, {"time": 2438, "pitch": 40, "duration": 18, "velocity": 74}, {"time": 2438, "pitch": 52, "duration": 8, "velocity": 70}, {"time": 2438, "pitch": 59, "duration": 13, "velocity": 87}, {"time": 2444, "pitch": 47, "duration": 13, "velocity": 45}, {"time": 2450, "pitch": 52, "duration": 4, "velocity": 74}, {"time": 2456, "pitch": 59, "duration": 2, "velocity": 90}, {"time": 2462, "pitch": 49, "duration": 15, "velocity": 80}, {"time": 2462, "pitch": 61, "duration": 8, "velocity": 80}, {"time": 2468, "pitch": 56, "duration": 7, "velocity": 64}, {"time": 2474, "pitch": 61, "duration": 3, "velocity": 87}, {"time": 2486, "pitch": 39, "duration": 38, "velocity": 80}, {"time": 2486, "pitch": 58, "duration": 7, "velocity": 68}, {"time": 2486, "pitch": 63, "duration": 8, "velocity": 87}, {"time": 2492, "pitch": 46, "duration": 21, "velocity": 47}, {"time": 2498, "pitch": 58, "duration": 8, "velocity": 80}, {"time": 2504, "pitch": 63, "duration": 13, "velocity": 93}, {"time": 2516, "pitch": 46, "duration": 9, "velocity": 55}, {"time": 2522, "pitch": 58, "duration": 3, "velocity": 90}, {"time": 2522, "pitch": 63, "duration": 3, "velocity": 103}, {"time": 2528, "pitch": 61, "duration": 3, "velocity": 87}, {"time": 2534, "pitch": 44, "duration": 41, "velocity": 80}, {"time": 2534, "pitch": 56, "duration": 8, "velocity": 80}, {"time": 2534, "pitch": 59, "duration": 8, "velocity": 83}, {"time": 2540, "pitch": 51, "duration": 32, "velocity": 59}, {"time": 2546, "pitch": 56, "duration": 2, "velocity": 56}, {"time": 2552, "pitch": 56, "duration": 2, "velocity": 87}, {"time": 2552, "pitch": 63, "duration": 2, "velocity": 87}, {"time": 2570, "pitch": 56, "duration": 3, "velocity": 87}, {"time": 2570, "pitch": 59, "duration": 3, "velocity": 87}, {"time": 2576, "pitch": 56, "duration": 2, "velocity": 83}, {"time": 2582, "pitch": 44, "duration": 17, "velocity": 83}, {"time": 2582, "pitch": 56, "duration": 6, "velocity": 72}, {"time": 2582, "pitch": 63, "duration": 7, "velocity": 80}, {"time": 2588, "pitch": 51, "duration": 12, "velocity": 59}, {"time": 2594, "pitch": 56, "duration": 3, "velocity": 58}, {"time": 2600, "pitch": 59, "duration": 4, "velocity": 87}, {"time": 2606, "pitch": 49, "duration": 15, "velocity": 80}, {"time": 2606, "pitch": 61, "duration": 7, "velocity": 87}, {"time": 2612, "pitch": 56, "duration": 4, "velocity": 67}, {"time": 2618, "pitch": 64, "duration": 4, "velocity": 72}, {"time": 2630, "pitch": 49, "duration": 23, "velocity": 83}, {"time": 2630, "pitch": 56, "duration": 3, "velocity": 68}, {"time": 2630, "pitch": 61, "duration": 6, "velocity": 85}, {"time": 2636, "pitch": 56, "duration": 7, "velocity": 71}, {"time": 2642, "pitch": 61, "duration": 8, "velocity": 93}, {"time": 2648, "pitch": 56, "duration": 3, "velocity": 74}, {"time": 2654, "pitch": 51, "duration": 13, "velocity": 80}, {"time": 2654, "pitch": 58, "duration": 4, "velocity": 71}, {"time": 2654, "pitch": 63, "duration": 7, "velocity": 83}, {"time": 2660, "pitch": 58, "duration": 3, "velocity": 74}, {"time": 2666, "pitch": 63, "duration": 3, "velocity": 95}, {"time": 2678, "pitch": 44, "duration": 46, "velocity": 80}, {"time": 2678, "pitch": 56, "duration": 8, "velocity": 72}, {"time": 2678, "pitch": 59, "duration": 13, "velocity": 74}, {"time": 2684, "pitch": 51, "duration": 40, "velocity": 63}, {"time": 2690, "pitch": 56, "duration": 8, "velocity": 74}, {"time": 2696, "pitch": 68, "duration": 8, "velocity": 103}, {"time": 2702, "pitch": 56, "duration": 5, "velocity": 87}, {"time": 2708, "pitch": 63, "duration": 3, "velocity": 74}, {"time": 2714, "pitch": 56, "duration": 8, "velocity": 83}, {"time": 2714, "pitch": 59, "duration": 8, "velocity": 80}, {"time": 2726, "pitch": 44, "duration": 42, "velocity": 83}, {"time": 2726, "pitch": 56, "duration": 8, "velocity": 67}, {"time": 2726, "pitch": 59, "duration": 14, "velocity": 74}, {"time": 2732, "pitch": 51, "duration": 16, "velocity": 60}, {"time": 2738, "pitch": 56, "duration": 2, "velocity": 44}, {"time": 2744, "pitch": 56, "duration": 4, "velocity": 87}, {"time": 2744, "pitch": 63, "duration": 10, "velocity": 87}, {"time": 2756, "pitch": 51, "duration": 9, "velocity": 30}, {"time": 2762, "pitch": 56, "duration": 1, "velocity": 61}, {"time": 2762, "pitch": 59, "duration": 7, "velocity": 85}, {"time": 2768, "pitch": 56, "duration": 3, "velocity": 93}, {"time": 2774, "pitch": 42, "duration": 15, "velocity": 80}, {"time": 2774, "pitch": 54, "duration": 6, "velocity": 80}, {"time": 2774, "pitch": 58, "duration": 12, "velocity": 80}, {"time": 2780, "pitch": 49, "duration": 12, "velocity": 39}, {"time": 2786, "pitch": 54, "duration": 8, "velocity": 69}, {"time": 2792, "pitch": 58, "duration": 6, "velocity": 93}, {"time": 2798, "pitch": 44, "duration": 15, "velocity": 74}, {"time": 2798, "pitch": 56, "duration": 13, "velocity": 74}, {"time": 2798, "pitch": 59, "duration": 13, "velocity": 80}, {"time": 2810, "pitch": 51, "duration": 3, "velocity": 55}, {"time": 2816, "pitch": 56, "duration": 2, "velocity": 93}, {"time": 2822, "pitch": 40, "duration": 18, "velocity": 74}, {"time": 2822, "pitch": 52, "duration": 8, "velocity": 70}, {"time": 2822, "pitch": 59, "duration": 13, "velocity": 87}, {"time": 2828, "pitch": 47, "duration": 13, "velocity": 45}, {"time": 2834, "pitch": 52, "duration": 4, "velocity": 74}, {"time": 2840, "pitch": 59, "duration": 2, "velocity": 90}, {"time": 2846, "pitch": 49, "duration": 15, "velocity": 80}, {"time": 2846, "pitch": 61, "duration": 8, "velocity": 80}, {"time": 2852, "pitch": 56, "duration": 7, "velocity": 64}, {"time": 2858, "pitch": 61, "duration": 3, "velocity": 87}, {"time": 2870, "pitch": 39, "duration": 38, "velocity": 80}, {"time": 2870, "pitch": 58, "duration": 7, "velocity": 68}, {"time": 2870, "pitch": 63, "duration": 8, "velocity": 87}, {"time": 2876, "pitch": 46, "duration": 21, "velocity": 47}, {"time": 2882, "pitch": 58, "duration": 8, "velocity": 80}, {"time": 2888, "pitch": 63, "duration": 13, "velocity": 93}, {"time": 2900, "pitch": 46, "duration": 9, "velocity": 55}, {"time": 2906, "pitch": 58, "duration": 3, "velocity": 90}, {"time": 2906, "pitch": 63, "duration": 3, "velocity": 103}, {"time": 2912, "pitch": 61, "duration": 3, "velocity": 87}, {"time": 2918, "pitch": 44, "duration": 41, "velocity": 80}, {"time": 2918, "pitch": 56, "duration": 8, "velocity": 80}, {"time": 2918, "pitch": 59, "duration": 8, "velocity": 83}, {"time": 2924, "pitch": 51, "duration": 32, "velocity": 59}, {"time": 2930, "pitch": 56, "duration": 2, "velocity": 56}, {"time": 2936, "pitch": 56, "duration": 2, "velocity": 87}, {"time": 2936, "pitch": 63, "duration": 2, "velocity": 87}, {"time": 2954, "pitch": 56, "duration": 3, "velocity": 87}, {"time": 2954, "pitch": 59, "duration": 3, "velocity": 87}, {"time": 2960, "pitch": 56, "duration": 2, "velocity": 83}, {"time": 2966, "pitch": 44, "duration": 17, "velocity": 83}, {"time": 2966, "pitch": 56, "duration": 6, "velocity": 72}, {"time": 2966, "pitch": 63, "duration": 7, "velocity": 80}, {"time": 2972, "pitch": 51, "duration": 12, "velocity": 59}, {"time": 2978, "pitch": 56, "duration": 3, "velocity": 58}, {"time": 2984, "pitch": 59, "duration": 4, "velocity": 87}, {"time": 2990, "pitch": 49, "duration": 15, "velocity": 80}, {"time": 2990, "pitch": 61, "duration": 7, "velocity": 87}, {"time": 2996, "pitch": 56, "duration": 4, "velocity": 67}, {"time": 3002, "pitch": 64, "duration": 4, "velocity": 72}, {"time": 3014, "pitch": 49, "duration": 23, "velocity": 83}, {"time": 3014, "pitch": 56, "duration": 3, "velocity": 68}, {"time": 3014, "pitch": 61, "duration": 6, "velocity": 85}, {"time": 3020, "pitch": 56, "duration": 7, "velocity": 71}, {"time": 3026, "pitch": 61, "duration": 8, "velocity": 93}, {"time": 3032, "pitch": 56, "duration": 3, "velocity": 74}, {"time": 3038, "pitch": 51, "duration": 13, "velocity": 80}, {"time": 3038, "pitch": 58, "duration": 4, "velocity": 71}, {"time": 3038, "pitch": 63, "duration": 7, "velocity": 83}, {"time": 3044, "pitch": 58, "duration": 3, "velocity": 74}, {"time": 3050, "pitch": 63, "duration": 3, "velocity": 95}, {"time": 3062, "pitch": 44, "duration": 46, "velocity": 80}, {"time": 3062, "pitch": 56, "duration": 8, "velocity": 72}, {"time": 3062, "pitch": 59, "duration": 13, "velocity": 74}, {"time": 3068, "pitch": 51, "duration": 40, "velocity": 63}, {"time": 3074, "pitch": 56, "duration": 8, "velocity": 74}, {"time": 3080, "pitch": 68, "duration": 8, "velocity": 103}, {"time": 3086, "pitch": 56, "duration": 5, "velocity": 87}, {"time": 3092, "pitch": 63, "duration": 3, "velocity": 74}, {"time": 3098, "pitch": 56, "duration": 8, "velocity": 83}, {"time": 3098, "pitch": 59, "duration": 8, "velocity": 80}, {"time": 3110, "pitch": 44, "duration": 16, "velocity": 93}, {"time": 3116, "pitch": 51, "duration": 10, "velocity": 69}, {"time": 3119, "pitch": 56, "duration": 7, "velocity": 93}, {"time": 3125, "pitch": 63, "duration": 5, "velocity": 102}, {"time": 3128, "pitch": 59, "duration": 4, "velocity": 74}, {"time": 3131, "pitch": 56, "duration": 3, "velocity": 72}, {"time": 3134, "pitch": 39, "duration": 15, "velocity": 85}, {"time": 3137, "pitch": 46, "duration": 11, "velocity": 64}, {"time": 3140, "pitch": 51, "duration": 4, "velocity": 71}, {"time": 3143, "pitch": 54, "duration": 3, "velocity": 87}, {"time": 3146, "pitch": 51, "duration": 4, "velocity": 95}, {"time": 3146, "pitch": 54, "duration": 4, "velocity": 83}, {"time": 3146, "pitch": 58, "duration": 5, "velocity": 85}, {"time": 3152, "pitch": 39, "duration": 2, "velocity": 83}, {"time": 3158, "pitch": 44, "duration": 22, "velocity": 87}, {"time": 3158, "pitch": 56, "duration": 8, "velocity": 74}, {"time": 3158, "pitch": 59, "duration": 7, "velocity": 80}, {"time": 3164, "pitch": 51, "duration": 8, "velocity": 51}, {"time": 3170, "pitch": 56, "duration": 3, "velocity": 87}, {"time": 3170, "pitch": 63, "duration": 3, "velocity": 93}, {"time": 3176, "pitch": 51, "duration": 4, "velocity": 49}, {"time": 3179, "pitch": 59, "duration": 1, "velocity": 68}, {"time": 3179, "pitch": 63, "duration": 8, "velocity": 93}, {"time": 3182, "pitch": 44, "duration": 19, "velocity": 72}, {"time": 3185, "pitch": 51, "duration": 13, "velocity": 80}, {"time": 3188, "pitch": 56, "duration": 5, "velocity": 87}, {"time": 3191, "pitch": 59, "duration": 3, "velocity": 93}, {"time": 3194, "pitch": 68, "duration": 4, "velocity": 105}, {"time": 3197, "pitch": 63, "duration": 4, "velocity": 103}, {"time": 3200, "pitch": 59, "duration": 4, "velocity": 93}, {"time": 3203, "pitch": 56, "duration": 3, "velocity": 95}, {"time": 3206, "pitch": 40, "duration": 20, "velocity": 90}, {"time": 3212, "pitch": 47, "duration": 9, "velocity": 58}, {"time": 3218, "pitch": 52, "duration": 6, "velocity": 87}, {"time": 3218, "pitch": 59, "duration": 10, "velocity": 83}, {"time": 3224, "pitch": 47, "duration": 4, "velocity": 60}, {"time": 3227, "pitch": 52, "duration": 3, "velocity": 83}, {"time": 3230, "pitch": 42, "duration": 15, "velocity": 87}, {"time": 3233, "pitch": 49, "duration": 11, "velocity": 66}, {"time": 3236, "pitch": 54, "duration": 5, "velocity": 80}, {"time": 3239, "pitch": 58, "duration": 3, "velocity": 87}, {"time": 3242, "pitch": 61, "duration": 5, "velocity": 102}, {"time": 3248, "pitch": 54, "duration": 2, "velocity": 85}, {"time": 3254, "pitch": 39, "duration": 21, "velocity": 83}, {"time": 3254, "pitch": 51, "duration": 7, "velocity": 85}, {"time": 3254, "pitch": 54, "duration": 5, "velocity": 87}, {"time": 3260, "pitch": 46, "duration": 9, "velocity": 43}, {"time": 3266, "pitch": 51, "duration": 3, "velocity": 87}, {"time": 3266, "pitch": 58, "duration": 3, "velocity": 83}, {"time": 3272, "pitch": 46, "duration": 4, "velocity": 50}, {"time": 3275, "pitch": 51, "duration": 5, "velocity": 87}, {"time": 3275, "pitch": 63, "duration": 13, "velocity": 102}, {"time": 3278, "pitch": 39, "duration": 21, "velocity": 83}, {"time": 3281, "pitch": 46, "duration": 9, "velocity": 69}, {"time": 3281, "pitch": 51, "duration": 5, "velocity": 87}, {"time": 3287, "pitch": 58, "duration": 5, "velocity": 72}, {"time": 3290, "pitch": 46, "duration": 7, "velocity": 70}, {"time": 3290, "pitch": 63, "duration": 9, "velocity": 105}, {"time": 3296, "pitch": 51, "duration": 2, "velocity": 87}, {"time": 3302, "pitch": 44, "duration": 21, "velocity": 87}, {"time": 3302, "pitch": 56, "duration": 8, "velocity": 80}, {"time": 3302, "pitch": 59, "duration": 8, "velocity": 87}, {"time": 3308, "pitch": 51, "duration": 8, "velocity": 67}, {"time": 3314, "pitch": 56, "duration": 6, "velocity": 87}, {"time": 3314, "pitch": 63, "duration": 9, "velocity": 93}, {"time": 3320, "pitch": 51, "duration": 4, "velocity": 67}, {"time": 3323, "pitch": 59, "duration": 9, "velocity": 72}, {"time": 3326, "pitch": 44, "duration": 20, "velocity": 87}, {"time": 3329, "pitch": 51, "duration": 10, "velocity": 67}, {"time": 3332, "pitch": 56, "duration": 4, "velocity": 74}, {"time": 3335, "pitch": 63, "duration": 6, "velocity": 95}, {"time": 3338, "pitch": 56, "duration": 6, "velocity": 80}, {"time": 3344, "pitch": 51, "duration": 2, "velocity": 65}, {"time": 3350, "pitch": 37, "duration": 39, "velocity": 87}, {"time": 3350, "pitch": 56, "duration": 8, "velocity": 69}, {"time": 3350, "pitch": 61, "duration": 8, "velocity": 66}, {"time": 3356, "pitch": 44, "duration": 9, "velocity": 64}, {"time": 3362, "pitch": 56, "duration": 6, "velocity": 90}, {"time": 3362, "pitch": 64, "duration": 10, "velocity": 93}, {"time": 3368, "pitch": 44, "duration": 22, "velocity": 64}, {"time": 3371, "pitch": 56, "duration": 4, "velocity": 74}, {"time": 3374, "pitch": 61, "duration": 5, "velocity": 80}, {"time": 3380, "pitch": 56, "duration": 3, "velocity": 60}, {"time": 3386, "pitch": 56, "duration": 4, "velocity": 102}, {"time": 3386, "pitch": 64, "duration": 7, "velocity": 90}, {"time": 3392, "pitch": 56, "duration": 1, "velocity": 27}, {"time": 3392, "pitch": 61, "duration": 4, "velocity": 67}, {"time": 3398, "pitch": 39, "duration": 22, "velocity": 74}, {"time": 3398, "pitch": 58, "duration": 8, "velocity": 69}, {"time": 3398, "pitch": 63, "duration": 9, "velocity": 74}, {"time": 3404, "pitch": 46, "duration": 16, "velocity": 53}, {"time": 3410, "pitch": 66, "duration": 4, "velocity": 80}, {"time": 3413, "pitch": 63, "duration": 3, "velocity": 87}, {"time": 3416, "pitch": 58, "duration": 4, "velocity": 83}, {"time": 3422, "pitch": 39, "duration": 14, "velocity": 74}, {"time": 3422, "pitch": 58, "duration": 9, "velocity": 68}, {"time": 3422, "pitch": 63, "duration": 10, "velocity": 74}, {"time": 3428, "pitch": 46, "duration": 8, "velocity": 50}, {"time": 3434, "pitch": 58, "duration": 3, "velocity": 74}, {"time": 3434, "pitch": 66, "duration": 8, "velocity": 72}, {"time": 3440, "pitch": 58, "duration": 2, "velocity": 69}, {"time": 3446, "pitch": 44, "duration": 23, "velocity": 80}, {"time": 3446, "pitch": 56, "duration": 8, "velocity": 69}, {"time": 3446, "pitch": 59, "duration": 8, "velocity": 70}, {"time": 3452, "pitch": 51, "duration": 8, "velocity": 63}, {"time": 3458, "pitch": 56, "duration": 6, "velocity": 93}, {"time": 3458, "pitch": 63, "duration": 8, "velocity": 90}, {"time": 3464, "pitch": 51, "duration": 6, "velocity": 64}, {"time": 3467, "pitch": 56, "duration": 4, "velocity": 71}, {"time": 3470, "pitch": 44, "duration": 21, "velocity": 93}, {"time": 3470, "pitch": 59, "duration": 5, "velocity": 74}, {"time": 3473, "pitch": 51, "duration": 17, "velocity": 63}, {"time": 3482, "pitch": 56, "duration": 6, "velocity": 80}, {"time": 3488, "pitch": 59, "duration": 3, "velocity": 80}, {"time": 3494, "pitch": 44, "duration": 16, "velocity": 93}, {"time": 3500, "pitch": 51, "duration": 10, "velocity": 69}, {"time": 3503, "pitch": 56, "duration": 7, "velocity": 93}, {"time": 3509, "pitch": 63, "duration": 5, "velocity": 102}, {"time": 3512, "pitch": 59, "duration": 4, "velocity": 74}, {"time": 3515, "pitch": 56, "duration": 3, "velocity": 72}, {"time": 3518, "pitch": 39, "duration": 15, "velocity": 85}, {"time": 3521, "pitch": 46, "duration": 11, "velocity": 64}, {"time": 3524, "pitch": 51, "duration": 4, "velocity": 71}, {"time": 3527, "pitch": 54, "duration": 3, "velocity": 87}, {"time": 3530, "pitch": 51, "duration": 4, "velocity": 95}, {"time": 3530, "pitch": 54, "duration": 4, "velocity": 83}, {"time": 3530, "pitch": 58, "duration": 5, "velocity": 85}, {"time": 3536, "pitch": 39, "duration": 2, "velocity": 83}, {"time": 3542, "pitch": 44, "duration": 22, "velocity": 87}, {"time": 3542, "pitch": 56, "duration": 8, "velocity": 74}, {"time": 3542, "pitch": 59, "duration": 7, "velocity": 80}, {"time": 3548, "pitch": 51, "duration": 8, "velocity": 51}, {"time": 3554, "pitch": 56, "duration": 3, "velocity": 87}, {"time": 3554, "pitch": 63, "duration": 3, "velocity": 93}, {"time": 3560, "pitch": 51, "duration": 4, "velocity": 49}, {"time": 3563, "pitch": 59, "duration": 1, "velocity": 68}, {"time": 3563, "pitch": 63, "duration": 8, "velocity": 93}, {"time": 3566, "pitch": 44, "duration": 19, "velocity": 72}, {"time": 3569, "pitch": 51, "duration": 13, "velocity": 80}, {"time": 3572, "pitch": 56, "duration": 5, "velocity": 87}, {"time": 3575, "pitch": 59, "duration": 3, "velocity": 93}, {"time": 3578, "pitch": 68, "duration": 4, "velocity": 105}, {"time": 3581, "pitch": 63, "duration": 4, "velocity": 103}, {"time": 3584, "pitch": 59, "duration": 4, "velocity": 93}, {"time": 3587, "pitch": 56, "duration": 3, "velocity": 95}, {"time": 3590, "pitch": 40, "duration": 20, "velocity": 90}, {"time": 3596, "pitch": 47, "duration": 9, "velocity": 58}, {"time": 3602, "pitch": 52, "duration": 6, "velocity": 87}, {"time": 3602, "pitch": 59, "duration": 10, "velocity": 83}, {"time": 3608, "pitch": 47, "duration": 4, "velocity": 60}, {"time": 3611, "pitch": 52, "duration": 3, "velocity": 83}, {"time": 3614, "pitch": 42, "duration": 15, "velocity": 87}, {"time": 3617, "pitch": 49, "duration": 11, "velocity": 66}, {"time": 3620, "pitch": 54, "duration": 5, "velocity": 80}, {"time": 3623, "pitch": 58, "duration": 3, "velocity": 87}, {"time": 3626, "pitch": 61, "duration": 5, "velocity": 102}, {"time": 3632, "pitch": 54, "duration": 2, "velocity": 85}, {"time": 3638, "pitch": 39, "duration": 21, "velocity": 83}, {"time": 3638, "pitch": 51, "duration": 7, "velocity": 85}, {"time": 3638, "pitch": 54, "duration": 5, "velocity": 87}, {"time": 3644, "pitch": 46, "duration": 9, "velocity": 43}, {"time": 3650, "pitch": 51, "duration": 3, "velocity": 87}, {"time": 3650, "pitch": 58, "duration": 3, "velocity": 83}, {"time": 3656, "pitch": 46, "duration": 4, "velocity": 50}, {"time": 3659, "pitch": 51, "duration": 5, "velocity": 87}, {"time": 3659, "pitch": 63, "duration": 13, "velocity": 102}, {"time": 3662, "pitch": 39, "duration": 21, "velocity": 83}, {"time": 3665, "pitch": 46, "duration": 9, "velocity": 69}, {"time": 3665, "pitch": 51, "duration": 5, "velocity": 87}, {"time": 3671, "pitch": 58, "duration": 5, "velocity": 72}, {"time": 3674, "pitch": 46, "duration": 7, "velocity": 70}, {"time": 3674, "pitch": 63, "duration": 9, "velocity": 105}, {"time": 3680, "pitch": 51, "duration": 2, "velocity": 87}, {"time": 3686, "pitch": 44, "duration": 21, "velocity": 87}, {"time": 3686, "pitch": 56, "duration": 8, "velocity": 80}, {"time": 3686, "pitch": 59, "duration": 8, "velocity": 87}, {"time": 3692, "pitch": 51, "duration": 8, "velocity": 67}, {"time": 3698, "pitch": 56, "duration": 6, "velocity": 87}, {"time": 3698, "pitch": 63, "duration": 9, "velocity": 93}, {"time": 3704, "pitch": 51, "duration": 4, "velocity": 67}, {"time": 3707, "pitch": 59, "duration": 9, "velocity": 72}, {"time": 3710, "pitch": 44, "duration": 20, "velocity": 87}, {"time": 3713, "pitch": 51, "duration": 10, "velocity": 67}, {"time": 3716, "pitch": 56, "duration": 4, "velocity": 74}, {"time": 3719, "pitch": 63, "duration": 6, "velocity": 95}, {"time": 3722, "pitch": 56, "duration": 6, "velocity": 80}, {"time": 3728, "pitch": 51, "duration": 2, "velocity": 65}, {"time": 3734, "pitch": 37, "duration": 39, "velocity": 87}, {"time": 3734, "pitch": 56, "duration": 8, "velocity": 69}, {"time": 3734, "pitch": 61, "duration": 8, "velocity": 66}, {"time": 3740, "pitch": 44, "duration": 9, "velocity": 64}, {"time": 3746, "pitch": 56, "duration": 6, "velocity": 90}, {"time": 3746, "pitch": 64, "duration": 10, "velocity": 93}, {"time": 3752, "pitch": 44, "duration": 22, "velocity": 64}, {"time": 3755, "pitch": 56, "duration": 4, "velocity": 74}, {"time": 3758, "pitch": 61, "duration": 5, "velocity": 80}, {"time": 3764, "pitch": 56, "duration": 3, "velocity": 60}, {"time": 3770, "pitch": 56, "duration": 4, "velocity": 102}, {"time": 3770, "pitch": 64, "duration": 7, "velocity": 90}, {"time": 3776, "pitch": 56, "duration": 1, "velocity": 27}, {"time": 3776, "pitch": 61, "duration": 4, "velocity": 67}, {"time": 3782, "pitch": 39, "duration": 22, "velocity": 74}, {"time": 3782, "pitch": 58, "duration": 8, "velocity": 69}, {"time": 3782, "pitch": 63, "duration": 9, "velocity": 74}, {"time": 3788, "pitch": 46, "duration": 16, "velocity": 53}, {"time": 3794, "pitch": 66, "duration": 4, "velocity": 80}, {"time": 3797, "pitch": 63, "duration": 3, "velocity": 87}, {"time": 3800, "pitch": 58, "duration": 4, "velocity": 83}, {"time": 3806, "pitch": 39, "duration": 14, "velocity": 74}, {"time": 3806, "pitch": 58, "duration": 9, "velocity": 68}, {"time": 3806, "pitch": 63, "duration": 10, "velocity": 74}, {"time": 3812, "pitch": 46, "duration": 8, "velocity": 50}, {"time": 3818, "pitch": 58, "duration": 3, "velocity": 74}, {"time": 3818, "pitch": 66, "duration": 8, "velocity": 72}, {"time": 3824, "pitch": 58, "duration": 2, "velocity": 69}, {"time": 3830, "pitch": 44, "duration": 23, "velocity": 80}, {"time": 3830, "pitch": 56, "duration": 8, "velocity": 69}, {"time": 3830, "pitch": 59, "duration": 8, "velocity": 70}, {"time": 3836, "pitch": 51, "duration": 8, "velocity": 63}, {"time": 3842, "pitch": 56, "duration": 6, "velocity": 93}, {"time": 3842, "pitch": 63, "duration": 8, "velocity": 90}, {"time": 3848, "pitch": 51, "duration": 6, "velocity": 64}, {"time": 3851, "pitch": 56, "duration": 4, "velocity": 71}, {"time": 3854, "pitch": 44, "duration": 21, "velocity": 93}, {"time": 3854, "pitch": 59, "duration": 5, "velocity": 74}, {"time": 3857, "pitch": 51, "duration": 17, "velocity": 63}, {"time": 3866, "pitch": 56, "duration": 6, "velocity": 80}, {"time": 3872, "pitch": 59, "duration": 3, "velocity": 80}, {"time": 3878, "pitch": 44, "duration": 21, "velocity": 87}, {"time": 3878, "pitch": 56, "duration": 8, "velocity": 80}, {"time": 3878, "pitch": 59, "duration": 8, "velocity": 87}, {"time": 3884, "pitch": 51, "duration": 8, "velocity": 67}, {"time": 3890, "pitch": 56, "duration": 6, "velocity": 87}, {"time": 3890, "pitch": 63, "duration": 9, "velocity": 93}, {"time": 3896, "pitch": 51, "duration": 4, "velocity": 67}, {"time": 3899, "pitch": 59, "duration": 9, "velocity": 72}, {"time": 3902, "pitch": 44, "duration": 20, "velocity": 87}, {"time": 3905, "pitch": 51, "duration": 10, "velocity": 67}, {"time": 3908, "pitch": 56, "duration": 4, "velocity": 74}, {"time": 3911, "pitch": 63, "duration": 6, "velocity": 95}, {"time": 3914, "pitch": 56, "duration": 6, "velocity": 80}, {"time": 3920, "pitch": 51, "duration": 2, "velocity": 65}, {"time": 3926, "pitch": 37, "duration": 39, "velocity": 87}, {"time": 3926, "pitch": 56, "duration": 8, "velocity": 69}, {"time": 3926, "pitch": 61, "duration": 8, "velocity": 66}, {"time": 3932, "pitch": 44, "duration": 9, "velocity": 64}, {"time": 3938, "pitch": 56, "duration": 6, "velocity": 90}, {"time": 3938, "pitch": 64, "duration": 10, "velocity": 93}, {"time": 3944, "pitch": 44, "duration": 22, "velocity": 64}, {"time": 3947, "pitch": 56, "duration": 4, "velocity": 74}, {"time": 3950, "pitch": 61, "duration": 5, "velocity": 80}, {"time": 3956, "pitch": 56, "duration": 3, "velocity": 60}, {"time": 3962, "pitch": 56, "duration": 4, "velocity": 102}, {"time": 3962, "pitch": 64, "duration": 7, "velocity": 90}, {"time": 3968, "pitch": 56, "duration": 1, "velocity": 27}, {"time": 3968, "pitch": 61, "duration": 4, "velocity": 67}, {"time": 3974, "pitch": 39, "duration": 20, "velocity": 87}, {"time": 3974, "pitch": 58, "duration": 9, "velocity": 74}, {"time": 3974, "pitch": 63, "duration": 9, "velocity": 87}, {"time": 3980, "pitch": 46, "duration": 10, "velocity": 66}, {"time": 3986, "pitch": 58, "duration": 6, "velocity": 87}, {"time": 3986, "pitch": 63, "duration": 8, "velocity": 95}, {"time": 3986, "pitch": 66, "duration": 10, "velocity": 102}, {"time": 3992, "pitch": 46, "duration": 8, "velocity": 68}, {"time": 3998, "pitch": 39, "duration": 44, "velocity": 80}, {"time": 3998, "pitch": 58, "duration": 43, "velocity": 69}, {"time": 3998, "pitch": 63, "duration": 43, "velocity": 93}, {"time": 4045, "pitch": 44, "duration": 42, "velocity": 87}, {"time": 4045, "pitch": 59, "duration": 13, "velocity": 80}, {"time": 4046, "pitch": 56, "duration": 7, "velocity": 80}, {"time": 4051, "pitch": 51, "duration": 19, "velocity": 68}, {"time": 4058, "pitch": 56, "duration": 25, "velocity": 93}, {"time": 4064, "pitch": 63, "duration": 25, "velocity": 105}, {"time": 4076, "pitch": 51, "duration": 10, "velocity": 69}, {"time": 4081, "pitch": 68, "duration": 15, "velocity": 95}, {"time": 4088, "pitch": 56, "duration": 8, "velocity": 87}, {"time": 4094, "pitch": 37, "duration": 44, "velocity": 87}, {"time": 4094, "pitch": 61, "duration": 14, "velocity": 70}, {"time": 4100, "pitch": 44, "duration": 20, "velocity": 67}, {"time": 4106, "pitch": 56, "duration": 4, "velocity": 95}, {"time": 4112, "pitch": 61, "duration": 17, "velocity": 90}, {"time": 4112, "pitch": 64, "duration": 25, "velocity": 87}, {"time": 4112, "pitch": 56, "duration": 15, "velocity": 74}, {"time": 4125, "pitch": 44, "duration": 14, "velocity": 47}, {"time": 4130, "pitch": 56, "duration": 7, "velocity": 93}, {"time": 4136, "pitch": 61, "duration": 6, "velocity": 90}, {"time": 4142, "pitch": 39, "duration": 48, "velocity": 83}, {"time": 4142, "pitch": 58, "duration": 4, "velocity": 68}, {"time": 4142, "pitch": 63, "duration": 16, "velocity": 80}, {"time": 4148, "pitch": 46, "duration": 18, "velocity": 52}, {"time": 4154, "pitch": 51, "duration": 29, "velocity": 85}, {"time": 4160, "pitch": 58, "duration": 23, "velocity": 87}, {"time": 4174, "pitch": 46, "duration": 16, "velocity": 65}, {"time": 4182, "pitch": 54, "duration": 11, "velocity": 80}, {"time": 4191, "pitch": 51, "duration": 6, "velocity": 93}, {"time": 4197, "pitch": 44, "duration": 54, "velocity": 87}, {"time": 4203, "pitch": 51, "duration": 24, "velocity": 70}, {"time": 4207, "pitch": 56, "duration": 15, "velocity": 93}, {"time": 4214, "pitch": 63, "duration": 8, "velocity": 93}, {"time": 4222, "pitch": 68, "duration": 3, "velocity": 102}, {"time": 4233, "pitch": 51, "duration": 18, "velocity": 54}, {"time": 4236, "pitch": 68, "duration": 14, "velocity": 65}, {"time": 4237, "pitch": 71, "duration": 13, "velocity": 66}, {"time": 4238, "pitch": 75, "duration": 12, "velocity": 51}, {"time": 4240, "pitch": 80, "duration": 10, "velocity": 55}], "annotations": [{"time": 41, "annotation": {"number": 64, "value": 127}, "group": "control_change"}, {"time": 85, "annotation": {"number": 64, "value": 0}, "group": "control_change"}, {"time": 86, "annotation": {"number": 64, "value": 127}, "group": "control_change"}, {"time": 136, "annotation": {"number": 64, "value": 0}, "group": "control_change"}, {"time": 139, "annotation": {"number": 64, "value": 127}, "group": "control_change"}, {"time": 183, "annotation": {"number": 64, "value": 0}, "group": "control_change"}, {"time": 186, "annotation": {"number": 64, "value": 127}, "group": "control_change"}, {"time": 230, "annotation": {"number": 64, "value": 0}, "group": "control_change"}, {"time": 232, "annotation": {"number": 64, "value": 127}, "group": "control_change"}, {"time": 278, "annotation": {"number": 64, "value": 0}, "group": "control_change"}, {"time": 280, "annotation": {"number": 64, "value": 127}, "group": "control_change"}, {"time": 300, "annotation": {"number": 64, "value": 0}, "group": "control_change"}, {"time": 302, "annotation": {"number": 64, "value": 127}, "group": "control_change"}, {"time": 326, "annotation": {"number": 64, "value": 0}, "group": "control_change"}, {"time": 328, "annotation": {"number": 64, "value": 127}, "group": "control_change"}, {"time": 376, "annotation": {"number": 64, "value": 0}, "group": "control_change"}, {"time": 380, "annotation": {"number": 64, "value": 127}, "group": "control_change"}, {"time": 421, "annotation": {"number": 64, "value": 0}, "group": "control_change"}, {"time": 428, "annotation": {"number": 64, "value": 127}, "group": "control_change"}, {"time": 469, "annotation": {"number": 64, "value": 0}, "group": "control_change"}, {"time": 471, "annotation": {"number": 64, "value": 127}, "group": "control_change"}, {"time": 492, "annotation": {"number": 64, "value": 0}, "group": "control_change"}, {"time": 495, "annotation": {"number": 64, "value": 127}, "group": "control_change"}, {"time": 520, "annotation": {"number": 64, "value": 0}, "group": "control_change"}, {"time": 522, "annotation": {"number": 64, "value": 127}, "group": "control_change"}, {"time": 543, "annotation": {"number": 64, "value": 0}, "group": "control_change"}, {"time": 544, "annotation": {"number": 64, "value": 127}, "group": "control_change"}, {"time": 566, "annotation": {"number": 64, "value": 0}, "group": "control_change"}, {"time": 567, "annotation": {"number": 64, "value": 127}, "group": "control_change"}, {"time": 614, "annotation": {"number": 64, "value": 0}, "group": "control_change"}, {"time": 617, "annotation": {"number": 64, "value": 127}, "group": "control_change"}, {"time": 663, "annotation": {"number": 64, "value": 0}, "group": "control_change"}, {"time": 664, "annotation": {"number": 64, "value": 127}, "group": "control_change"}, {"time": 685, "annotation": {"number": 64, "value": 0}, "group": "control_change"}, {"time": 687, "annotation": {"number": 64, "value": 127}, "group": "control_change"}, {"time": 758, "annotation": {"number": 64, "value": 0}, "group": "control_change"}, {"time": 765, "annotation": {"number": 64, "value": 127}, "group": "control_change"}, {"time": 806, "annotation": {"number": 64, "value": 0}, "group": "control_change"}, {"time": 812, "annotation": {"number": 64, "value": 127}, "group": "control_change"}, {"time": 853, "annotation": {"number": 64, "value": 0}, "group": "control_change"}, {"time": 855, "annotation": {"number": 64, "value": 127}, "group": "control_change"}, {"time": 876, "annotation": {"number": 64, "value": 0}, "group": "control_change"}, {"time": 879, "annotation": {"number": 64, "value": 127}, "group": "control_change"}, {"time": 904, "annotation": {"number": 64, "value": 0}, "group": "control_change"}, {"time": 906, "annotation": {"number": 64, "value": 127}, "group": "control_change"}, {"time": 927, "annotation": {"number": 64, "value": 0}, "group": "control_change"}, {"time": 928, "annotation": {"number": 64, "value": 127}, "group": "control_change"}, {"time": 950, "annotation": {"number": 64, "value": 0}, "group": "control_change"}, {"time": 951, "annotation": {"number": 64, "value": 127}, "group": "control_change"}, {"time": 998, "annotation": {"number": 64, "value": 0}, "group": "control_change"}, {"time": 1001, "annotation": {"number": 64, "value": 127}, "group": "control_change"}, {"time": 1047, "annotation": {"number": 64, "value": 0}, "group": "control_change"}, {"time": 1048, "annotation": {"number": 64, "value": 127}, "group": "control_change"}, {"time": 1069, "annotation": {"number": 64, "value": 0}, "group": "control_change"}, {"time": 1071, "annotation": {"number": 64, "value": 127}, "group": "control_change"}, {"time": 1142, "annotation": {"number": 64, "value": 0}, "group": "control_change"}, {"time": 1149, "annotation": {"number": 64, "value": 127}, "group": "control_change"}, {"time": 1190, "annotation": {"number": 64, "value": 0}, "group": "control_change"}, {"time": 1192, "annotation": {"number": 64, "value": 127}, "group": "control_change"}, {"time": 1213, "annotation": {"number": 64, "value": 0}, "group": "control_change"}, {"time": 1215, "annotation": {"number": 64, "value": 127}, "group": "control_change"}, {"time": 1238, "annotation": {"number": 64, "value": 0}, "group": "control_change"}, {"time": 1241, "annotation": {"number": 64, "value": 127}, "group": "control_change"}, {"time": 1285, "annotation": {"number": 64, "value": 0}, "group": "control_change"}, {"time": 1288, "annotation": {"number": 64, "value": 127}, "group": "control_change"}, {"time": 1308, "annotation": {"number": 64, "value": 0}, "group": "control_change"}, {"time": 1311, "annotation": {"number": 64, "value": 127}, "group": "control_change"}, {"time": 1334, "annotation": {"number": 64, "value": 0}, "group": "control_change"}, {"time": 1336, "annotation": {"number": 64, "value": 127}, "group": "control_change"}, {"time": 1358, "annotation": {"number": 64, "value": 0}, "group": "control_change"}, {"time": 1359, "annotation": {"number": 64, "value": 127}, "group": "control_change"}, {"time": 1381, "annotation": {"number": 64, "value": 0}, "group": "control_change"}, {"time": 1383, "annotation": {"number": 64, "value": 127}, "group": "control_change"}, {"time": 1406, "annotation": {"number": 64, "value": 0}, "group": "control_change"}, {"time": 1408, "annotation": {"number": 64, "value": 127}, "group": "control_change"}, {"time": 1430, "annotation": {"number": 64, "value": 0}, "group": "control_change"}, {"time": 1432, "annotation": {"number": 64, "value": 127}, "group": "control_change"}, {"time": 1478, "annotation": {"number": 64, "value": 0}, "group": "control_change"}, {"time": 1481, "annotation": {"number": 64, "value": 127}, "group": "control_change"}, {"time": 1502, "annotation": {"number": 64, "value": 0}, "group": "control_change"}, {"time": 1504, "annotation": {"number": 64, "value": 127}, "group": "control_change"}, {"time": 1527, "annotation": {"number": 64, "value": 0}, "group": "control_change"}, {"time": 1531, "annotation": {"number": 64, "value": 127}, "group": "control_change"}, {"time": 1576, "annotation": {"number": 64, "value": 127}, "group": "control_change"}, {"time": 1597, "annotation": {"number": 64, "value": 0}, "group": "control_change"}, {"time": 1599, "annotation": {"number": 64, "value": 127}, "group": "control_change"}, {"time": 1622, "annotation": {"number": 64, "value": 0}, "group": "control_change"}, {"time": 1625, "annotation": {"number": 64, "value": 127}, "group": "control_change"}, {"time": 1669, "annotation": {"number": 64, "value": 0}, "group": "control_change"}, {"time": 1672, "annotation": {"number": 64, "value": 127}, "group": "control_change"}, {"time": 1692, "annotation": {"number": 64, "value": 0}, "group": "control_change"}, {"time": 1695, "annotation": {"number": 64, "value": 127}, "group": "control_change"}, {"time": 1718, "annotation": {"number": 64, "value": 0}, "group": "control_change"}, {"time": 1720, "annotation": {"number": 64, "value": 127}, "group": "control_change"}, {"time": 1742, "annotation": {"number": 64, "value": 0}, "group": "control_change"}, {"time": 1743, "annotation": {"number": 64, "value": 127}, "group": "control_change"}, {"time": 1765, "annotation": {"number": 64, "value": 0}, "group": "control_change"}, {"time": 1767, "annotation": {"number": 64, "value": 127}, "group": "control_change"}, {"time": 1790, "annotation": {"number": 64, "value": 0}, "group": "control_change"}, {"time": 1792, "annotation": {"number": 64, "value": 127}, "group": "control_change"}, {"time": 1814, "annotation": {"number": 64, "value": 0}, "group": "control_change"}, {"time": 1816, "annotation": {"number": 64, "value": 127}, "group": "control_change"}, {"time": 1862, "annotation": {"number": 64, "value": 0}, "group": "control_change"}, {"time": 1865, "annotation": {"number": 64, "value": 127}, "group": "control_change"}, {"time": 1886, "annotation": {"number": 64, "value": 0}, "group": "control_change"}, {"time": 1888, "annotation": {"number": 64, "value": 127}, "group": "control_change"}, {"time": 1911, "annotation": {"number": 64, "value": 0}, "group": "control_change"}, {"time": 1915, "annotation": {"number": 64, "value": 127}, "group": "control_change"}, {"time": 1961, "annotation": {"number": 64, "value": 127}, "group": "control_change"}, {"time": 2005, "annotation": {"number": 64, "value": 0}, "group": "control_change"}, {"time": 2006, "annotation": {"number": 64, "value": 127}, "group": "control_change"}, {"time": 2056, "annotation": {"number": 64, "value": 0}, "group": "control_change"}, {"time": 2059, "annotation": {"number": 64, "value": 127}, "group": "control_change"}, {"time": 2103, "annotation": {"number": 64, "value": 0}, "group": "control_change"}, {"time": 2106, "annotation": {"number": 64, "value": 127}, "group": "control_change"}, {"time": 2150, "annotation": {"number": 64, "value": 0}, "group": "control_change"}, {"time": 2152, "annotation": {"number": 64, "value": 127}, "group": "control_change"}, {"time": 2198, "annotation": {"number": 64, "value": 0}, "group": "control_change"}, {"time": 2200, "annotation": {"number": 64, "value": 127}, "group": "control_change"}, {"time": 2220, "annotation": {"number": 64, "value": 0}, "group": "control_change"}, {"time": 2222, "annotation": {"number": 64, "value": 127}, "group": "control_change"}, {"time": 2246, "annotation": {"number": 64, "value": 0}, "group": "control_change"}, {"time": 2248, "annotation": {"number": 64, "value": 127}, "group": "control_change"}, {"time": 2296, "annotation": {"number": 64, "value": 0}, "group": "control_change"}, {"time": 2300, "annotation": {"number": 64, "value": 127}, "group": "control_change"}, {"time": 2341, "annotation": {"number": 64, "value": 0}, "group": "control_change"}, {"time": 2348, "annotation": {"number": 64, "value": 127}, "group": "control_change"}, {"time": 2389, "annotation": {"number": 64, "value": 0}, "group": "control_change"}, {"time": 2391, "annotation": {"number": 64, "value": 127}, "group": "control_change"}, {"time": 2412, "annotation": {"number": 64, "value": 0}, "group": "control_change"}, {"time": 2415, "annotation": {"number": 64, "value": 127}, "group": "control_change"}, {"time": 2440, "annotation": {"number": 64, "value": 0}, "group": "control_change"}, {"time": 2442, "annotation": {"number": 64, "value": 127}, "group": "control_change"}, {"time": 2463, "annotation": {"number": 64, "value": 0}, "group": "control_change"}, {"time": 2464, "annotation": {"number": 64, "value": 127}, "group": "control_change"}, {"time": 2486, "annotation": {"number": 64, "value": 0}, "group": "control_change"}, {"time": 2487, "annotation": {"number": 64, "value": 127}, "group": "control_change"}, {"time": 2534, "annotation": {"number": 64, "value": 0}, "group": "control_change"}, {"time": 2537, "annotation": {"number": 64, "value": 127}, "group": "control_change"}, {"time": 2583, "annotation": {"number": 64, "value": 0}, "group": "control_change"}, {"time": 2584, "annotation": {"number": 64, "value": 127}, "group": "control_change"}, {"time": 2605, "annotation": {"number": 64, "value": 0}, "group": "control_change"}, {"time": 2607, "annotation": {"number": 64, "value": 127}, "group": "control_change"}, {"time": 2678, "annotation": {"number": 64, "value": 0}, "group": "control_change"}, {"time": 2685, "annotation": {"number": 64, "value": 127}, "group": "control_change"}, {"time": 2726, "annotation": {"number": 64, "value": 0}, "group": "control_change"}, {"time": 2732, "annotation": {"number": 64, "value": 127}, "group": "control_change"}, {"time": 2773, "annotation": {"number": 64, "value": 0}, "group": "control_change"}, {"time": 2775, "annotation": {"number": 64, "value": 127}, "group": "control_change"}, {"time": 2796, "annotation": {"number": 64, "value": 0}, "group": "control_change"}, {"time": 2799, "annotation": {"number": 64, "value": 127}, "group": "control_change"}, {"time": 2824, "annotation": {"number": 64, "value": 0}, "group": "control_change"}, {"time": 2826, "annotation": {"number": 64, "value": 127}, "group": "control_change"}, {"time": 2847, "annotation": {"number": 64, "value": 0}, "group": "control_change"}, {"time": 2848, "annotation": {"number": 64, "value": 127}, "group": "control_change"}, {"time": 2870, "annotation": {"number": 64, "value": 0}, "group": "control_change"}, {"time": 2871, "annotation": {"number": 64, "value": 127}, "group": "control_change"}, {"time": 2918, "annotation": {"number": 64, "value": 0}, "group": "control_change"}, {"time": 2921, "annotation": {"number": 64, "value": 127}, "group": "control_change"}, {"time": 2967, "annotation": {"number": 64, "value": 0}, "group": "control_change"}, {"time": 2968, "annotation": {"number": 64, "value": 127}, "group": "control_change"}, {"time": 2989, "annotation": {"number": 64, "value": 0}, "group": "control_change"}, {"time": 2991, "annotation": {"number": 64, "value": 127}, "group": "control_change"}, {"time": 3062, "annotation": {"number": 64, "value": 0}, "group": "control_change"}, {"time": 3069, "annotation": {"number": 64, "value": 127}, "group": "control_change"}, {"time": 3110, "annotation": {"number": 64, "value": 0}, "group": "control_change"}, {"time": 3112, "annotation": {"number": 64, "value": 127}, "group": "control_change"}, {"time": 3133, "annotation": {"number": 64, "value": 0}, "group": "control_change"}, {"time": 3135, "annotation": {"number": 64, "value": 127}, "group": "control_change"}, {"time": 3158, "annotation": {"number": 64, "value": 0}, "group": "control_change"}, {"time": 3161, "annotation": {"number": 64, "value": 127}, "group": "control_change"}, {"time": 3205, "annotation": {"number": 64, "value": 0}, "group": "control_change"}, {"time": 3208, "annotation": {"number": 64, "value": 127}, "group": "control_change"}, {"time": 3228, "annotation": {"number": 64, "value": 0}, "group": "control_change"}, {"time": 3231, "annotation": {"number": 64, "value": 127}, "group": "control_change"}, {"time": 3254, "annotation": {"number": 64, "value": 0}, "group": "control_change"}, {"time": 3256, "annotation": {"number": 64, "value": 127}, "group": "control_change"}, {"time": 3278, "annotation": {"number": 64, "value": 0}, "group": "control_change"}, {"time": 3279, "annotation": {"number": 64, "value": 127}, "group": "control_change"}, {"time": 3301, "annotation": {"number": 64, "value": 0}, "group": "control_change"}, {"time": 3303, "annotation": {"number": 64, "value": 127}, "group": "control_change"}, {"time": 3326, "annotation": {"number": 64, "value": 0}, "group": "control_change"}, {"time": 3328, "annotation": {"number": 64, "value": 127}, "group": "control_change"}, {"time": 3350, "annotation": {"number": 64, "value": 0}, "group": "control_change"}, {"time": 3352, "annotation": {"number": 64, "value": 127}, "group": "control_change"}, {"time": 3398, "annotation": {"number": 64, "value": 0}, "group": "control_change"}, {"time": 3401, "annotation": {"number": 64, "value": 127}, "group": "control_change"}, {"time": 3422, "annotation": {"number": 64, "value": 0}, "group": "control_change"}, {"time": 3424, "annotation": {"number": 64, "value": 127}, "group": "control_change"}, {"time": 3447, "annotation": {"number": 64, "value": 0}, "group": "control_change"}, {"time": 3451, "annotation": {"number": 64, "value": 127}, "group": "control_change"}, {"time": 3496, "annotation": {"number": 64, "value": 127}, "group": "control_change"}, {"time": 3517, "annotation": {"number": 64, "value": 0}, "group": "control_change"}, {"time": 3519, "annotation": {"number": 64, "value": 127}, "group": "control_change"}, {"time": 3542, "annotation": {"number": 64, "value": 0}, "group": "control_change"}, {"time": 3545, "annotation": {"number": 64, "value": 127}, "group": "control_change"}, {"time": 3589, "annotation": {"number": 64, "value": 0}, "group": "control_change"}, {"time": 3592, "annotation": {"number": 64, "value": 127}, "group": "control_change"}, {"time": 3612, "annotation": {"number": 64, "value": 0}, "group": "control_change"}, {"time": 3615, "annotation": {"number": 64, "value": 127}, "group": "control_change"}, {"time": 3638, "annotation": {"number": 64, "value": 0}, "group": "control_change"}, {"time": 3640, "annotation": {"number": 64, "value": 127}, "group": "control_change"}, {"time": 3662, "annotation": {"number": 64, "value": 0}, "group": "control_change"}, {"time": 3663, "annotation": {"number": 64, "value": 127}, "group": "control_change"}, {"time": 3685, "annotation": {"number": 64, "value": 0}, "group": "control_change"}, {"time": 3687, "annotation": {"number": 64, "value": 127}, "group": "control_change"}, {"time": 3710, "annotation": {"number": 64, "value": 0}, "group": "control_change"}, {"time": 3712, "annotation": {"number": 64, "value": 127}, "group": "control_change"}, {"time": 3734, "annotation": {"number": 64, "value": 0}, "group": "control_change"}, {"time": 3736, "annotation": {"number": 64, "value": 127}, "group": "control_change"}, {"time": 3782, "annotation": {"number": 64, "value": 0}, "group": "control_change"}, {"time": 3785, "annotation": {"number": 64, "value": 127}, "group": "control_change"}, {"time": 3806, "annotation": {"number": 64, "value": 0}, "group": "control_change"}, {"time": 3808, "annotation": {"number": 64, "value": 127}, "group": "control_change"}, {"time": 3831, "annotation": {"number": 64, "value": 0}, "group": "control_change"}, {"time": 3835, "annotation": {"number": 64, "value": 127}, "group": "control_change"}, {"time": 3879, "annotation": {"number": 64, "value": 127}, "group": "control_change"}, {"time": 3902, "annotation": {"number": 64, "value": 0}, "group": "control_change"}, {"time": 3904, "annotation": {"number": 64, "value": 127}, "group": "control_change"}, {"time": 3926, "annotation": {"number": 64, "value": 0}, "group": "control_change"}, {"time": 3928, "annotation": {"number": 64, "value": 127}, "group": "control_change"}, {"time": 3974, "annotation": {"number": 64, "value": 0}, "group": "control_change"}, {"time": 3975, "annotation": {"number": 64, "value": 127}, "group": "control_change"}, {"time": 4039, "annotation": {"number": 64, "value": 0}, "group": "control_change"}, {"time": 4050, "annotation": {"number": 64, "value": 127}, "group": "control_change"}, {"time": 4076, "annotation": {"number": 64, "value": 0}, "group": "control_change"}, {"time": 4080, "annotation": {"number": 64, "value": 127}, "group": "control_change"}, {"time": 4096, "annotation": {"number": 64, "value": 0}, "group": "control_change"}, {"time": 4102, "annotation": {"number": 64, "value": 127}, "group": "control_change"}, {"time": 4141, "annotation": {"number": 64, "value": 0}, "group": "control_change"}, {"time": 4143, "annotation": {"number": 64, "value": 127}, "group": "control_change"}, {"time": 4201, "annotation": {"number": 64, "value": 0}, "group": "control_change"}, {"time": 4202, "annotation": {"number": 64, "value": 127}, "group": "control_change"}, {"time": 4272, "annotation": {"number": 64, "value": 0}, "group": "control_change"}]}]}