{"metadata": {"schema_version": "0.2", "title": "None", "source_filename": "551.mid", "source_format": "midi"}, "resolution": 12, "tempos": [{"time": 0, "qpm": 118.00036580113398}], "time_signatures": [{"time": 0, "numerator": 1, "denominator": 4}], "tracks": [{"program": 0, "is_drum": false, "name": "MELODY", "notes": [{"time": 430, "pitch": 70, "duration": 4, "velocity": 80}, {"time": 436, "pitch": 70, "duration": 6, "velocity": 80}, {"time": 442, "pitch": 79, "duration": 31, "velocity": 69}, {"time": 478, "pitch": 79, "duration": 7, "velocity": 82}, {"time": 484, "pitch": 77, "duration": 7, "velocity": 82}, {"time": 490, "pitch": 75, "duration": 25, "velocity": 84}, {"time": 526, "pitch": 77, "duration": 7, "velocity": 82}, {"time": 532, "pitch": 79, "duration": 8, "velocity": 82}, {"time": 538, "pitch": 77, "duration": 8, "velocity": 84}, {"time": 550, "pitch": 77, "duration": 6, "velocity": 81}, {"time": 556, "pitch": 72, "duration": 57, "velocity": 80}, {"time": 622, "pitch": 70, "duration": 4, "velocity": 79}, {"time": 628, "pitch": 70, "duration": 6, "velocity": 80}, {"time": 634, "pitch": 77, "duration": 28, "velocity": 67}, {"time": 670, "pitch": 77, "duration": 6, "velocity": 83}, {"time": 676, "pitch": 75, "duration": 5, "velocity": 78}, {"time": 682, "pitch": 74, "duration": 21, "velocity": 78}, {"time": 718, "pitch": 75, "duration": 4, "velocity": 80}, {"time": 724, "pitch": 77, "duration": 6, "velocity": 79}, {"time": 730, "pitch": 75, "duration": 13, "velocity": 86}, {"time": 742, "pitch": 72, "duration": 12, "velocity": 72}, {"time": 754, "pitch": 70, "duration": 48, "velocity": 76}, {"time": 814, "pitch": 70, "duration": 3, "velocity": 82}, {"time": 820, "pitch": 70, "duration": 6, "velocity": 81}, {"time": 826, "pitch": 79, "duration": 15, "velocity": 70}, {"time": 844, "pitch": 79, "duration": 5, "velocity": 80}, {"time": 850, "pitch": 79, "duration": 12, "velocity": 74}, {"time": 862, "pitch": 77, "duration": 12, "velocity": 78}, {"time": 874, "pitch": 75, "duration": 19, "velocity": 82}, {"time": 898, "pitch": 79, "duration": 10, "velocity": 84}, {"time": 910, "pitch": 80, "duration": 7, "velocity": 80}, {"time": 916, "pitch": 82, "duration": 6, "velocity": 84}, {"time": 922, "pitch": 83, "duration": 13, "velocity": 82}, {"time": 934, "pitch": 82, "duration": 6, "velocity": 81}, {"time": 940, "pitch": 80, "duration": 55, "velocity": 81}, {"time": 1006, "pitch": 70, "duration": 4, "velocity": 82}, {"time": 1012, "pitch": 70, "duration": 5, "velocity": 82}, {"time": 1018, "pitch": 79, "duration": 33, "velocity": 81}, {"time": 1054, "pitch": 79, "duration": 4, "velocity": 81}, {"time": 1060, "pitch": 79, "duration": 5, "velocity": 81}, {"time": 1066, "pitch": 77, "duration": 17, "velocity": 81}, {"time": 1090, "pitch": 74, "duration": 12, "velocity": 84}, {"time": 1102, "pitch": 75, "duration": 6, "velocity": 85}, {"time": 1108, "pitch": 77, "duration": 5, "velocity": 80}, {"time": 1114, "pitch": 77, "duration": 10, "velocity": 86}, {"time": 1126, "pitch": 75, "duration": 56, "velocity": 81}, {"time": 1186, "pitch": 79, "duration": 11, "velocity": 81}, {"time": 1198, "pitch": 80, "duration": 4, "velocity": 77}, {"time": 1204, "pitch": 82, "duration": 4, "velocity": 80}, {"time": 1210, "pitch": 84, "duration": 9, "velocity": 78}, {"time": 1222, "pitch": 84, "duration": 12, "velocity": 80}, {"time": 1234, "pitch": 84, "duration": 6, "velocity": 81}, {"time": 1240, "pitch": 80, "duration": 13, "velocity": 76}, {"time": 1258, "pitch": 77, "duration": 19, "velocity": 80}, {"time": 1282, "pitch": 80, "duration": 11, "velocity": 84}, {"time": 1294, "pitch": 84, "duration": 13, "velocity": 82}, {"time": 1306, "pitch": 82, "duration": 22, "velocity": 83}, {"time": 1330, "pitch": 82, "duration": 11, "velocity": 81}, {"time": 1342, "pitch": 79, "duration": 12, "velocity": 81}, {"time": 1354, "pitch": 75, "duration": 28, "velocity": 83}, {"time": 1390, "pitch": 77, "duration": 5, "velocity": 86}, {"time": 1396, "pitch": 79, "duration": 4, "velocity": 81}, {"time": 1402, "pitch": 80, "duration": 14, "velocity": 82}, {"time": 1420, "pitch": 80, "duration": 17, "velocity": 81}, {"time": 1438, "pitch": 79, "duration": 12, "velocity": 82}, {"time": 1450, "pitch": 77, "duration": 12, "velocity": 80}, {"time": 1462, "pitch": 77, "duration": 4, "velocity": 84}, {"time": 1468, "pitch": 77, "duration": 4, "velocity": 84}, {"time": 1474, "pitch": 77, "duration": 11, "velocity": 87}, {"time": 1486, "pitch": 84, "duration": 4, "velocity": 82}, {"time": 1492, "pitch": 84, "duration": 15, "velocity": 82}, {"time": 1510, "pitch": 82, "duration": 53, "velocity": 74}, {"time": 1570, "pitch": 79, "duration": 10, "velocity": 82}, {"time": 1582, "pitch": 80, "duration": 4, "velocity": 81}, {"time": 1588, "pitch": 82, "duration": 6, "velocity": 81}, {"time": 1594, "pitch": 84, "duration": 12, "velocity": 81}, {"time": 1606, "pitch": 84, "duration": 3, "velocity": 86}, {"time": 1612, "pitch": 84, "duration": 17, "velocity": 82}, {"time": 1636, "pitch": 80, "duration": 6, "velocity": 80}, {"time": 1642, "pitch": 77, "duration": 29, "velocity": 84}, {"time": 1678, "pitch": 79, "duration": 12, "velocity": 84}, {"time": 1690, "pitch": 84, "duration": 12, "velocity": 82}, {"time": 1702, "pitch": 82, "duration": 18, "velocity": 80}, {"time": 1720, "pitch": 82, "duration": 12, "velocity": 83}, {"time": 1732, "pitch": 79, "duration": 12, "velocity": 78}, {"time": 1744, "pitch": 75, "duration": 26, "velocity": 86}, {"time": 1774, "pitch": 77, "duration": 7, "velocity": 87}, {"time": 1780, "pitch": 79, "duration": 6, "velocity": 84}, {"time": 1786, "pitch": 80, "duration": 16, "velocity": 81}, {"time": 1804, "pitch": 80, "duration": 19, "velocity": 81}, {"time": 1822, "pitch": 79, "duration": 13, "velocity": 82}, {"time": 1834, "pitch": 77, "duration": 17, "velocity": 82}, {"time": 1852, "pitch": 74, "duration": 5, "velocity": 79}, {"time": 1858, "pitch": 74, "duration": 5, "velocity": 76}, {"time": 1864, "pitch": 77, "duration": 19, "velocity": 81}, {"time": 1882, "pitch": 75, "duration": 86, "velocity": 80}, {"time": 2362, "pitch": 84, "duration": 36, "velocity": 87}, {"time": 2398, "pitch": 87, "duration": 14, "velocity": 81}, {"time": 2410, "pitch": 77, "duration": 49, "velocity": 86}, {"time": 2458, "pitch": 82, "duration": 36, "velocity": 82}, {"time": 2494, "pitch": 82, "duration": 6, "velocity": 84}, {"time": 2500, "pitch": 86, "duration": 6, "velocity": 84}, {"time": 2506, "pitch": 84, "duration": 48, "velocity": 80}, {"time": 2554, "pitch": 80, "duration": 29, "velocity": 75}, {"time": 2590, "pitch": 79, "duration": 12, "velocity": 84}, {"time": 2602, "pitch": 77, "duration": 35, "velocity": 82}, {"time": 2638, "pitch": 75, "duration": 6, "velocity": 84}, {"time": 2644, "pitch": 77, "duration": 7, "velocity": 86}, {"time": 2650, "pitch": 75, "duration": 71, "velocity": 91}, {"time": 2734, "pitch": 70, "duration": 4, "velocity": 80}, {"time": 2740, "pitch": 70, "duration": 6, "velocity": 80}, {"time": 2746, "pitch": 79, "duration": 31, "velocity": 69}, {"time": 2782, "pitch": 79, "duration": 7, "velocity": 82}, {"time": 2788, "pitch": 77, "duration": 7, "velocity": 82}, {"time": 2794, "pitch": 75, "duration": 25, "velocity": 84}, {"time": 2830, "pitch": 77, "duration": 7, "velocity": 82}, {"time": 2836, "pitch": 79, "duration": 8, "velocity": 82}, {"time": 2842, "pitch": 77, "duration": 8, "velocity": 84}, {"time": 2854, "pitch": 77, "duration": 6, "velocity": 81}, {"time": 2860, "pitch": 72, "duration": 57, "velocity": 80}, {"time": 2926, "pitch": 70, "duration": 4, "velocity": 79}, {"time": 2932, "pitch": 70, "duration": 6, "velocity": 80}, {"time": 2938, "pitch": 77, "duration": 28, "velocity": 67}, {"time": 2974, "pitch": 77, "duration": 6, "velocity": 83}, {"time": 2980, "pitch": 75, "duration": 5, "velocity": 78}, {"time": 2986, "pitch": 74, "duration": 21, "velocity": 78}, {"time": 3022, "pitch": 75, "duration": 4, "velocity": 80}, {"time": 3028, "pitch": 77, "duration": 6, "velocity": 79}, {"time": 3034, "pitch": 75, "duration": 13, "velocity": 86}, {"time": 3046, "pitch": 72, "duration": 12, "velocity": 72}, {"time": 3058, "pitch": 70, "duration": 48, "velocity": 76}, {"time": 3118, "pitch": 70, "duration": 3, "velocity": 82}, {"time": 3124, "pitch": 70, "duration": 6, "velocity": 81}, {"time": 3130, "pitch": 79, "duration": 15, "velocity": 70}, {"time": 3148, "pitch": 79, "duration": 5, "velocity": 80}, {"time": 3154, "pitch": 79, "duration": 12, "velocity": 74}, {"time": 3166, "pitch": 77, "duration": 12, "velocity": 78}, {"time": 3178, "pitch": 75, "duration": 19, "velocity": 82}, {"time": 3202, "pitch": 79, "duration": 10, "velocity": 84}, {"time": 3214, "pitch": 80, "duration": 7, "velocity": 80}, {"time": 3220, "pitch": 82, "duration": 6, "velocity": 84}, {"time": 3226, "pitch": 83, "duration": 13, "velocity": 82}, {"time": 3238, "pitch": 82, "duration": 6, "velocity": 81}, {"time": 3244, "pitch": 80, "duration": 55, "velocity": 81}, {"time": 3310, "pitch": 70, "duration": 4, "velocity": 82}, {"time": 3316, "pitch": 70, "duration": 5, "velocity": 82}, {"time": 3322, "pitch": 79, "duration": 33, "velocity": 81}, {"time": 3358, "pitch": 79, "duration": 4, "velocity": 81}, {"time": 3364, "pitch": 79, "duration": 5, "velocity": 81}, {"time": 3370, "pitch": 77, "duration": 17, "velocity": 81}, {"time": 3394, "pitch": 74, "duration": 12, "velocity": 84}, {"time": 3406, "pitch": 75, "duration": 6, "velocity": 85}, {"time": 3412, "pitch": 77, "duration": 5, "velocity": 80}, {"time": 3418, "pitch": 77, "duration": 10, "velocity": 86}, {"time": 3430, "pitch": 75, "duration": 56, "velocity": 81}, {"time": 3490, "pitch": 79, "duration": 11, "velocity": 81}, {"time": 3502, "pitch": 80, "duration": 4, "velocity": 77}, {"time": 3508, "pitch": 82, "duration": 4, "velocity": 80}, {"time": 3514, "pitch": 84, "duration": 9, "velocity": 78}, {"time": 3526, "pitch": 84, "duration": 12, "velocity": 80}, {"time": 3538, "pitch": 84, "duration": 6, "velocity": 81}, {"time": 3544, "pitch": 80, "duration": 13, "velocity": 76}, {"time": 3562, "pitch": 77, "duration": 19, "velocity": 80}, {"time": 3586, "pitch": 80, "duration": 11, "velocity": 84}, {"time": 3598, "pitch": 84, "duration": 13, "velocity": 82}, {"time": 3610, "pitch": 82, "duration": 22, "velocity": 83}, {"time": 3634, "pitch": 82, "duration": 11, "velocity": 81}, {"time": 3646, "pitch": 79, "duration": 12, "velocity": 81}, {"time": 3658, "pitch": 75, "duration": 28, "velocity": 83}, {"time": 3694, "pitch": 77, "duration": 5, "velocity": 86}, {"time": 3700, "pitch": 79, "duration": 4, "velocity": 81}, {"time": 3706, "pitch": 80, "duration": 14, "velocity": 82}, {"time": 3724, "pitch": 80, "duration": 17, "velocity": 81}, {"time": 3742, "pitch": 79, "duration": 12, "velocity": 82}, {"time": 3754, "pitch": 77, "duration": 12, "velocity": 80}, {"time": 3766, "pitch": 77, "duration": 4, "velocity": 84}, {"time": 3772, "pitch": 77, "duration": 4, "velocity": 84}, {"time": 3778, "pitch": 77, "duration": 11, "velocity": 87}, {"time": 3790, "pitch": 84, "duration": 4, "velocity": 82}, {"time": 3796, "pitch": 84, "duration": 15, "velocity": 82}, {"time": 3814, "pitch": 82, "duration": 53, "velocity": 74}, {"time": 3874, "pitch": 79, "duration": 10, "velocity": 82}, {"time": 3886, "pitch": 80, "duration": 4, "velocity": 81}, {"time": 3892, "pitch": 82, "duration": 6, "velocity": 81}, {"time": 3898, "pitch": 84, "duration": 12, "velocity": 81}, {"time": 3910, "pitch": 84, "duration": 3, "velocity": 86}, {"time": 3916, "pitch": 84, "duration": 17, "velocity": 82}, {"time": 3940, "pitch": 80, "duration": 6, "velocity": 80}, {"time": 3946, "pitch": 77, "duration": 29, "velocity": 84}, {"time": 3982, "pitch": 79, "duration": 12, "velocity": 84}, {"time": 3994, "pitch": 84, "duration": 12, "velocity": 82}, {"time": 4006, "pitch": 82, "duration": 18, "velocity": 80}, {"time": 4024, "pitch": 82, "duration": 12, "velocity": 83}, {"time": 4036, "pitch": 79, "duration": 12, "velocity": 78}, {"time": 4048, "pitch": 75, "duration": 26, "velocity": 86}, {"time": 4078, "pitch": 77, "duration": 7, "velocity": 87}, {"time": 4084, "pitch": 79, "duration": 6, "velocity": 84}, {"time": 4090, "pitch": 80, "duration": 16, "velocity": 81}, {"time": 4108, "pitch": 80, "duration": 19, "velocity": 81}, {"time": 4126, "pitch": 79, "duration": 13, "velocity": 82}, {"time": 4138, "pitch": 77, "duration": 17, "velocity": 82}, {"time": 4156, "pitch": 74, "duration": 5, "velocity": 79}, {"time": 4162, "pitch": 74, "duration": 5, "velocity": 76}, {"time": 4168, "pitch": 77, "duration": 19, "velocity": 81}, {"time": 4186, "pitch": 75, "duration": 86, "velocity": 80}, {"time": 4282, "pitch": 77, "duration": 9, "velocity": 74}, {"time": 4289, "pitch": 79, "duration": 10, "velocity": 80}, {"time": 4298, "pitch": 80, "duration": 22, "velocity": 80}, {"time": 4323, "pitch": 80, "duration": 47, "velocity": 74}, {"time": 4387, "pitch": 79, "duration": 21, "velocity": 67}, {"time": 4407, "pitch": 77, "duration": 74, "velocity": 76}, {"time": 4496, "pitch": 74, "duration": 13, "velocity": 72}, {"time": 4512, "pitch": 74, "duration": 12, "velocity": 71}, {"time": 4524, "pitch": 77, "duration": 66, "velocity": 79}, {"time": 4621, "pitch": 80, "duration": 14, "velocity": 75}, {"time": 4634, "pitch": 82, "duration": 107, "velocity": 74}]}, {"program": 0, "is_drum": false, "name": "PIANO", "notes": [{"time": 58, "pitch": 51, "duration": 40, "velocity": 82}, {"time": 70, "pitch": 58, "duration": 27, "velocity": 68}, {"time": 82, "pitch": 63, "duration": 6, "velocity": 73}, {"time": 82, "pitch": 67, "duration": 16, "velocity": 71}, {"time": 94, "pitch": 63, "duration": 10, "velocity": 67}, {"time": 106, "pitch": 56, "duration": 42, "velocity": 75}, {"time": 106, "pitch": 63, "duration": 7, "velocity": 67}, {"time": 106, "pitch": 68, "duration": 19, "velocity": 68}, {"time": 118, "pitch": 63, "duration": 35, "velocity": 65}, {"time": 130, "pitch": 68, "duration": 18, "velocity": 71}, {"time": 154, "pitch": 46, "duration": 45, "velocity": 76}, {"time": 154, "pitch": 62, "duration": 26, "velocity": 70}, {"time": 166, "pitch": 53, "duration": 30, "velocity": 70}, {"time": 178, "pitch": 58, "duration": 27, "velocity": 73}, {"time": 202, "pitch": 51, "duration": 37, "velocity": 77}, {"time": 202, "pitch": 63, "duration": 16, "velocity": 77}, {"time": 214, "pitch": 58, "duration": 14, "velocity": 66}, {"time": 226, "pitch": 63, "duration": 4, "velocity": 75}, {"time": 226, "pitch": 67, "duration": 8, "velocity": 72}, {"time": 238, "pitch": 62, "duration": 11, "velocity": 81}, {"time": 250, "pitch": 48, "duration": 36, "velocity": 80}, {"time": 250, "pitch": 60, "duration": 18, "velocity": 70}, {"time": 250, "pitch": 63, "duration": 13, "velocity": 76}, {"time": 262, "pitch": 55, "duration": 19, "velocity": 70}, {"time": 274, "pitch": 60, "duration": 15, "velocity": 82}, {"time": 286, "pitch": 67, "duration": 12, "velocity": 74}, {"time": 298, "pitch": 41, "duration": 33, "velocity": 81}, {"time": 298, "pitch": 60, "duration": 9, "velocity": 69}, {"time": 298, "pitch": 65, "duration": 10, "velocity": 76}, {"time": 310, "pitch": 48, "duration": 20, "velocity": 67}, {"time": 322, "pitch": 65, "duration": 4, "velocity": 80}, {"time": 322, "pitch": 69, "duration": 17, "velocity": 80}, {"time": 346, "pitch": 46, "duration": 44, "velocity": 80}, {"time": 346, "pitch": 70, "duration": 36, "velocity": 75}, {"time": 358, "pitch": 53, "duration": 33, "velocity": 69}, {"time": 370, "pitch": 63, "duration": 13, "velocity": 75}, {"time": 382, "pitch": 65, "duration": 14, "velocity": 82}, {"time": 394, "pitch": 46, "duration": 29, "velocity": 78}, {"time": 394, "pitch": 58, "duration": 25, "velocity": 70}, {"time": 394, "pitch": 62, "duration": 27, "velocity": 74}, {"time": 406, "pitch": 53, "duration": 17, "velocity": 72}, {"time": 418, "pitch": 70, "duration": 9, "velocity": 78}, {"time": 442, "pitch": 51, "duration": 30, "velocity": 80}, {"time": 442, "pitch": 67, "duration": 24, "velocity": 69}, {"time": 454, "pitch": 58, "duration": 19, "velocity": 69}, {"time": 466, "pitch": 63, "duration": 11, "velocity": 78}, {"time": 490, "pitch": 55, "duration": 26, "velocity": 72}, {"time": 490, "pitch": 62, "duration": 7, "velocity": 67}, {"time": 490, "pitch": 67, "duration": 26, "velocity": 74}, {"time": 502, "pitch": 62, "duration": 15, "velocity": 69}, {"time": 514, "pitch": 70, "duration": 6, "velocity": 78}, {"time": 538, "pitch": 44, "duration": 38, "velocity": 76}, {"time": 538, "pitch": 63, "duration": 8, "velocity": 69}, {"time": 538, "pitch": 68, "duration": 41, "velocity": 66}, {"time": 550, "pitch": 51, "duration": 26, "velocity": 67}, {"time": 562, "pitch": 56, "duration": 14, "velocity": 74}, {"time": 574, "pitch": 63, "duration": 36, "velocity": 75}, {"time": 598, "pitch": 44, "duration": 26, "velocity": 42}, {"time": 610, "pitch": 60, "duration": 13, "velocity": 80}, {"time": 622, "pitch": 56, "duration": 4, "velocity": 81}, {"time": 634, "pitch": 46, "duration": 94, "velocity": 79}, {"time": 634, "pitch": 58, "duration": 16, "velocity": 71}, {"time": 634, "pitch": 62, "duration": 14, "velocity": 69}, {"time": 646, "pitch": 53, "duration": 83, "velocity": 68}, {"time": 658, "pitch": 58, "duration": 27, "velocity": 74}, {"time": 670, "pitch": 65, "duration": 15, "velocity": 78}, {"time": 682, "pitch": 70, "duration": 11, "velocity": 80}, {"time": 706, "pitch": 58, "duration": 8, "velocity": 74}, {"time": 706, "pitch": 62, "duration": 14, "velocity": 73}, {"time": 718, "pitch": 58, "duration": 15, "velocity": 78}, {"time": 730, "pitch": 51, "duration": 43, "velocity": 76}, {"time": 730, "pitch": 63, "duration": 30, "velocity": 76}, {"time": 742, "pitch": 58, "duration": 27, "velocity": 73}, {"time": 766, "pitch": 65, "duration": 7, "velocity": 80}, {"time": 778, "pitch": 51, "duration": 31, "velocity": 75}, {"time": 778, "pitch": 58, "duration": 9, "velocity": 68}, {"time": 778, "pitch": 67, "duration": 20, "velocity": 72}, {"time": 790, "pitch": 58, "duration": 16, "velocity": 69}, {"time": 802, "pitch": 63, "duration": 5, "velocity": 75}, {"time": 826, "pitch": 51, "duration": 35, "velocity": 82}, {"time": 826, "pitch": 63, "duration": 16, "velocity": 75}, {"time": 838, "pitch": 58, "duration": 14, "velocity": 73}, {"time": 850, "pitch": 67, "duration": 15, "velocity": 75}, {"time": 862, "pitch": 58, "duration": 6, "velocity": 73}, {"time": 874, "pitch": 43, "duration": 27, "velocity": 75}, {"time": 874, "pitch": 62, "duration": 20, "velocity": 73}, {"time": 886, "pitch": 50, "duration": 16, "velocity": 67}, {"time": 898, "pitch": 58, "duration": 6, "velocity": 75}, {"time": 898, "pitch": 62, "duration": 13, "velocity": 72}, {"time": 910, "pitch": 58, "duration": 4, "velocity": 80}, {"time": 922, "pitch": 44, "duration": 81, "velocity": 80}, {"time": 922, "pitch": 56, "duration": 50, "velocity": 73}, {"time": 922, "pitch": 59, "duration": 23, "velocity": 68}, {"time": 922, "pitch": 65, "duration": 24, "velocity": 73}, {"time": 934, "pitch": 51, "duration": 68, "velocity": 64}, {"time": 946, "pitch": 63, "duration": 15, "velocity": 80}, {"time": 958, "pitch": 59, "duration": 7, "velocity": 81}, {"time": 970, "pitch": 68, "duration": 32, "velocity": 80}, {"time": 1018, "pitch": 46, "duration": 76, "velocity": 74}, {"time": 1018, "pitch": 58, "duration": 25, "velocity": 74}, {"time": 1019, "pitch": 65, "duration": 23, "velocity": 74}, {"time": 1020, "pitch": 68, "duration": 20, "velocity": 77}, {"time": 1030, "pitch": 53, "duration": 63, "velocity": 76}, {"time": 1042, "pitch": 62, "duration": 13, "velocity": 81}, {"time": 1054, "pitch": 65, "duration": 14, "velocity": 80}, {"time": 1066, "pitch": 70, "duration": 20, "velocity": 80}, {"time": 1078, "pitch": 58, "duration": 14, "velocity": 67}, {"time": 1090, "pitch": 62, "duration": 6, "velocity": 71}, {"time": 1090, "pitch": 65, "duration": 11, "velocity": 80}, {"time": 1114, "pitch": 39, "duration": 5, "velocity": 81}, {"time": 1114, "pitch": 58, "duration": 9, "velocity": 66}, {"time": 1114, "pitch": 63, "duration": 24, "velocity": 75}, {"time": 1126, "pitch": 51, "duration": 33, "velocity": 75}, {"time": 1138, "pitch": 58, "duration": 21, "velocity": 80}, {"time": 1150, "pitch": 65, "duration": 11, "velocity": 80}, {"time": 1162, "pitch": 51, "duration": 44, "velocity": 86}, {"time": 1162, "pitch": 61, "duration": 18, "velocity": 78}, {"time": 1162, "pitch": 67, "duration": 28, "velocity": 71}, {"time": 1174, "pitch": 58, "duration": 19, "velocity": 78}, {"time": 1186, "pitch": 61, "duration": 21, "velocity": 82}, {"time": 1192, "pitch": 55, "duration": 15, "velocity": 75}, {"time": 1198, "pitch": 58, "duration": 9, "velocity": 80}, {"time": 1204, "pitch": 63, "duration": 7, "velocity": 79}, {"time": 1210, "pitch": 44, "duration": 39, "velocity": 82}, {"time": 1216, "pitch": 51, "duration": 33, "velocity": 73}, {"time": 1222, "pitch": 56, "duration": 18, "velocity": 78}, {"time": 1228, "pitch": 63, "duration": 18, "velocity": 77}, {"time": 1240, "pitch": 68, "duration": 15, "velocity": 77}, {"time": 1246, "pitch": 56, "duration": 14, "velocity": 69}, {"time": 1252, "pitch": 63, "duration": 12, "velocity": 68}, {"time": 1258, "pitch": 46, "duration": 37, "velocity": 79}, {"time": 1264, "pitch": 53, "duration": 21, "velocity": 74}, {"time": 1270, "pitch": 58, "duration": 23, "velocity": 72}, {"time": 1276, "pitch": 62, "duration": 38, "velocity": 87}, {"time": 1282, "pitch": 50, "duration": 15, "velocity": 72}, {"time": 1306, "pitch": 43, "duration": 36, "velocity": 80}, {"time": 1312, "pitch": 50, "duration": 30, "velocity": 63}, {"time": 1318, "pitch": 58, "duration": 18, "velocity": 72}, {"time": 1324, "pitch": 62, "duration": 15, "velocity": 83}, {"time": 1336, "pitch": 67, "duration": 19, "velocity": 76}, {"time": 1342, "pitch": 58, "duration": 8, "velocity": 67}, {"time": 1348, "pitch": 62, "duration": 5, "velocity": 69}, {"time": 1354, "pitch": 48, "duration": 38, "velocity": 79}, {"time": 1354, "pitch": 63, "duration": 14, "velocity": 80}, {"time": 1360, "pitch": 55, "duration": 14, "velocity": 74}, {"time": 1366, "pitch": 60, "duration": 18, "velocity": 80}, {"time": 1372, "pitch": 67, "duration": 15, "velocity": 84}, {"time": 1378, "pitch": 55, "duration": 8, "velocity": 70}, {"time": 1384, "pitch": 63, "duration": 8, "velocity": 72}, {"time": 1390, "pitch": 60, "duration": 15, "velocity": 70}, {"time": 1396, "pitch": 63, "duration": 8, "velocity": 72}, {"time": 1402, "pitch": 41, "duration": 37, "velocity": 80}, {"time": 1402, "pitch": 65, "duration": 14, "velocity": 80}, {"time": 1408, "pitch": 48, "duration": 30, "velocity": 69}, {"time": 1414, "pitch": 60, "duration": 11, "velocity": 76}, {"time": 1420, "pitch": 65, "duration": 8, "velocity": 77}, {"time": 1426, "pitch": 68, "duration": 12, "velocity": 80}, {"time": 1432, "pitch": 60, "duration": 10, "velocity": 73}, {"time": 1438, "pitch": 65, "duration": 14, "velocity": 75}, {"time": 1450, "pitch": 46, "duration": 44, "velocity": 76}, {"time": 1450, "pitch": 62, "duration": 14, "velocity": 68}, {"time": 1456, "pitch": 53, "duration": 36, "velocity": 71}, {"time": 1462, "pitch": 58, "duration": 10, "velocity": 70}, {"time": 1468, "pitch": 62, "duration": 7, "velocity": 76}, {"time": 1474, "pitch": 63, "duration": 8, "velocity": 80}, {"time": 1480, "pitch": 65, "duration": 7, "velocity": 80}, {"time": 1486, "pitch": 63, "duration": 8, "velocity": 75}, {"time": 1492, "pitch": 65, "duration": 8, "velocity": 76}, {"time": 1498, "pitch": 51, "duration": 38, "velocity": 81}, {"time": 1498, "pitch": 67, "duration": 13, "velocity": 80}, {"time": 1510, "pitch": 63, "duration": 8, "velocity": 68}, {"time": 1516, "pitch": 65, "duration": 7, "velocity": 80}, {"time": 1522, "pitch": 67, "duration": 17, "velocity": 81}, {"time": 1534, "pitch": 68, "duration": 11, "velocity": 76}, {"time": 1546, "pitch": 51, "duration": 32, "velocity": 83}, {"time": 1546, "pitch": 70, "duration": 15, "velocity": 80}, {"time": 1552, "pitch": 58, "duration": 20, "velocity": 71}, {"time": 1558, "pitch": 61, "duration": 8, "velocity": 81}, {"time": 1564, "pitch": 63, "duration": 8, "velocity": 79}, {"time": 1570, "pitch": 55, "duration": 14, "velocity": 85}, {"time": 1570, "pitch": 67, "duration": 26, "velocity": 80}, {"time": 1582, "pitch": 58, "duration": 5, "velocity": 71}, {"time": 1594, "pitch": 44, "duration": 39, "velocity": 78}, {"time": 1594, "pitch": 63, "duration": 8, "velocity": 70}, {"time": 1594, "pitch": 68, "duration": 28, "velocity": 74}, {"time": 1606, "pitch": 51, "duration": 29, "velocity": 75}, {"time": 1618, "pitch": 56, "duration": 16, "velocity": 77}, {"time": 1624, "pitch": 60, "duration": 9, "velocity": 80}, {"time": 1630, "pitch": 63, "duration": 9, "velocity": 75}, {"time": 1636, "pitch": 68, "duration": 20, "velocity": 70}, {"time": 1642, "pitch": 46, "duration": 37, "velocity": 80}, {"time": 1648, "pitch": 53, "duration": 21, "velocity": 75}, {"time": 1654, "pitch": 58, "duration": 13, "velocity": 71}, {"time": 1660, "pitch": 62, "duration": 8, "velocity": 80}, {"time": 1666, "pitch": 65, "duration": 14, "velocity": 79}, {"time": 1672, "pitch": 53, "duration": 7, "velocity": 72}, {"time": 1678, "pitch": 58, "duration": 15, "velocity": 74}, {"time": 1690, "pitch": 43, "duration": 34, "velocity": 81}, {"time": 1690, "pitch": 62, "duration": 13, "velocity": 76}, {"time": 1696, "pitch": 50, "duration": 21, "velocity": 61}, {"time": 1702, "pitch": 58, "duration": 13, "velocity": 75}, {"time": 1708, "pitch": 62, "duration": 9, "velocity": 82}, {"time": 1714, "pitch": 67, "duration": 18, "velocity": 82}, {"time": 1720, "pitch": 50, "duration": 6, "velocity": 72}, {"time": 1726, "pitch": 58, "duration": 8, "velocity": 74}, {"time": 1732, "pitch": 62, "duration": 9, "velocity": 73}, {"time": 1738, "pitch": 48, "duration": 33, "velocity": 80}, {"time": 1738, "pitch": 67, "duration": 23, "velocity": 74}, {"time": 1750, "pitch": 55, "duration": 15, "velocity": 63}, {"time": 1762, "pitch": 60, "duration": 8, "velocity": 70}, {"time": 1762, "pitch": 63, "duration": 16, "velocity": 76}, {"time": 1786, "pitch": 41, "duration": 37, "velocity": 80}, {"time": 1786, "pitch": 60, "duration": 24, "velocity": 72}, {"time": 1786, "pitch": 65, "duration": 25, "velocity": 79}, {"time": 1798, "pitch": 48, "duration": 23, "velocity": 67}, {"time": 1810, "pitch": 68, "duration": 15, "velocity": 80}, {"time": 1816, "pitch": 60, "duration": 8, "velocity": 71}, {"time": 1822, "pitch": 65, "duration": 5, "velocity": 74}, {"time": 1834, "pitch": 46, "duration": 43, "velocity": 79}, {"time": 1834, "pitch": 58, "duration": 20, "velocity": 69}, {"time": 1834, "pitch": 62, "duration": 19, "velocity": 70}, {"time": 1846, "pitch": 53, "duration": 32, "velocity": 72}, {"time": 1858, "pitch": 65, "duration": 13, "velocity": 79}, {"time": 1864, "pitch": 58, "duration": 9, "velocity": 68}, {"time": 1870, "pitch": 62, "duration": 7, "velocity": 66}, {"time": 1882, "pitch": 51, "duration": 43, "velocity": 78}, {"time": 1882, "pitch": 58, "duration": 6, "velocity": 68}, {"time": 1882, "pitch": 63, "duration": 24, "velocity": 76}, {"time": 1894, "pitch": 58, "duration": 14, "velocity": 66}, {"time": 1906, "pitch": 65, "duration": 12, "velocity": 75}, {"time": 1912, "pitch": 58, "duration": 8, "velocity": 67}, {"time": 1918, "pitch": 63, "duration": 26, "velocity": 74}, {"time": 1930, "pitch": 51, "duration": 35, "velocity": 75}, {"time": 1930, "pitch": 67, "duration": 30, "velocity": 60}, {"time": 1942, "pitch": 58, "duration": 32, "velocity": 64}, {"time": 1954, "pitch": 63, "duration": 22, "velocity": 68}, {"time": 1978, "pitch": 44, "duration": 39, "velocity": 79}, {"time": 1990, "pitch": 51, "duration": 26, "velocity": 63}, {"time": 2002, "pitch": 60, "duration": 13, "velocity": 77}, {"time": 2014, "pitch": 63, "duration": 14, "velocity": 72}, {"time": 2026, "pitch": 46, "duration": 29, "velocity": 69}, {"time": 2026, "pitch": 58, "duration": 16, "velocity": 68}, {"time": 2026, "pitch": 62, "duration": 25, "velocity": 73}, {"time": 2038, "pitch": 53, "duration": 17, "velocity": 61}, {"time": 2050, "pitch": 58, "duration": 12, "velocity": 70}, {"time": 2074, "pitch": 43, "duration": 26, "velocity": 68}, {"time": 2074, "pitch": 67, "duration": 27, "velocity": 68}, {"time": 2086, "pitch": 50, "duration": 16, "velocity": 61}, {"time": 2098, "pitch": 62, "duration": 20, "velocity": 81}, {"time": 2122, "pitch": 48, "duration": 38, "velocity": 80}, {"time": 2122, "pitch": 60, "duration": 19, "velocity": 68}, {"time": 2122, "pitch": 63, "duration": 14, "velocity": 74}, {"time": 2134, "pitch": 55, "duration": 24, "velocity": 73}, {"time": 2146, "pitch": 62, "duration": 11, "velocity": 85}, {"time": 2158, "pitch": 63, "duration": 14, "velocity": 73}, {"time": 2170, "pitch": 53, "duration": 28, "velocity": 81}, {"time": 2170, "pitch": 65, "duration": 25, "velocity": 73}, {"time": 2182, "pitch": 60, "duration": 16, "velocity": 76}, {"time": 2194, "pitch": 68, "duration": 13, "velocity": 78}, {"time": 2206, "pitch": 65, "duration": 14, "velocity": 81}, {"time": 2218, "pitch": 46, "duration": 37, "velocity": 76}, {"time": 2218, "pitch": 70, "duration": 26, "velocity": 75}, {"time": 2230, "pitch": 53, "duration": 25, "velocity": 65}, {"time": 2242, "pitch": 62, "duration": 13, "velocity": 79}, {"time": 2254, "pitch": 63, "duration": 8, "velocity": 67}, {"time": 2260, "pitch": 65, "duration": 8, "velocity": 81}, {"time": 2266, "pitch": 51, "duration": 43, "velocity": 78}, {"time": 2266, "pitch": 67, "duration": 33, "velocity": 75}, {"time": 2278, "pitch": 58, "duration": 31, "velocity": 80}, {"time": 2290, "pitch": 55, "duration": 22, "velocity": 79}, {"time": 2302, "pitch": 68, "duration": 8, "velocity": 80}, {"time": 2314, "pitch": 51, "duration": 37, "velocity": 86}, {"time": 2314, "pitch": 61, "duration": 16, "velocity": 62}, {"time": 2314, "pitch": 67, "duration": 21, "velocity": 64}, {"time": 2314, "pitch": 70, "duration": 23, "velocity": 72}, {"time": 2326, "pitch": 58, "duration": 26, "velocity": 81}, {"time": 2338, "pitch": 61, "duration": 12, "velocity": 73}, {"time": 2338, "pitch": 67, "duration": 12, "velocity": 83}, {"time": 2350, "pitch": 55, "duration": 3, "velocity": 67}, {"time": 2362, "pitch": 44, "duration": 42, "velocity": 79}, {"time": 2362, "pitch": 63, "duration": 8, "velocity": 76}, {"time": 2362, "pitch": 68, "duration": 12, "velocity": 76}, {"time": 2368, "pitch": 51, "duration": 36, "velocity": 75}, {"time": 2374, "pitch": 63, "duration": 10, "velocity": 77}, {"time": 2380, "pitch": 68, "duration": 7, "velocity": 80}, {"time": 2386, "pitch": 72, "duration": 12, "velocity": 80}, {"time": 2392, "pitch": 63, "duration": 12, "velocity": 70}, {"time": 2398, "pitch": 68, "duration": 13, "velocity": 75}, {"time": 2410, "pitch": 46, "duration": 35, "velocity": 80}, {"time": 2410, "pitch": 70, "duration": 11, "velocity": 75}, {"time": 2416, "pitch": 53, "duration": 29, "velocity": 71}, {"time": 2422, "pitch": 65, "duration": 10, "velocity": 80}, {"time": 2428, "pitch": 70, "duration": 7, "velocity": 80}, {"time": 2434, "pitch": 74, "duration": 10, "velocity": 85}, {"time": 2440, "pitch": 70, "duration": 7, "velocity": 78}, {"time": 2446, "pitch": 65, "duration": 12, "velocity": 80}, {"time": 2458, "pitch": 43, "duration": 34, "velocity": 75}, {"time": 2458, "pitch": 70, "duration": 16, "velocity": 73}, {"time": 2464, "pitch": 50, "duration": 28, "velocity": 71}, {"time": 2470, "pitch": 62, "duration": 1, "velocity": 77}, {"time": 2476, "pitch": 67, "duration": 8, "velocity": 75}, {"time": 2482, "pitch": 70, "duration": 10, "velocity": 76}, {"time": 2488, "pitch": 67, "duration": 8, "velocity": 67}, {"time": 2494, "pitch": 62, "duration": 8, "velocity": 76}, {"time": 2500, "pitch": 70, "duration": 18, "velocity": 80}, {"time": 2506, "pitch": 48, "duration": 37, "velocity": 80}, {"time": 2512, "pitch": 55, "duration": 20, "velocity": 68}, {"time": 2518, "pitch": 63, "duration": 8, "velocity": 74}, {"time": 2524, "pitch": 60, "duration": 8, "velocity": 82}, {"time": 2530, "pitch": 67, "duration": 14, "velocity": 72}, {"time": 2536, "pitch": 55, "duration": 5, "velocity": 64}, {"time": 2542, "pitch": 63, "duration": 10, "velocity": 74}, {"time": 2548, "pitch": 60, "duration": 9, "velocity": 75}, {"time": 2554, "pitch": 41, "duration": 32, "velocity": 82}, {"time": 2554, "pitch": 65, "duration": 14, "velocity": 77}, {"time": 2560, "pitch": 48, "duration": 25, "velocity": 69}, {"time": 2566, "pitch": 60, "duration": 9, "velocity": 77}, {"time": 2572, "pitch": 65, "duration": 8, "velocity": 78}, {"time": 2578, "pitch": 68, "duration": 13, "velocity": 81}, {"time": 2584, "pitch": 60, "duration": 8, "velocity": 80}, {"time": 2590, "pitch": 65, "duration": 9, "velocity": 77}, {"time": 2596, "pitch": 60, "duration": 6, "velocity": 70}, {"time": 2602, "pitch": 46, "duration": 41, "velocity": 80}, {"time": 2602, "pitch": 62, "duration": 13, "velocity": 70}, {"time": 2608, "pitch": 53, "duration": 18, "velocity": 70}, {"time": 2614, "pitch": 58, "duration": 7, "velocity": 81}, {"time": 2620, "pitch": 65, "duration": 14, "velocity": 81}, {"time": 2626, "pitch": 62, "duration": 8, "velocity": 80}, {"time": 2632, "pitch": 58, "duration": 6, "velocity": 81}, {"time": 2638, "pitch": 70, "duration": 9, "velocity": 65}, {"time": 2644, "pitch": 58, "duration": 9, "velocity": 69}, {"time": 2650, "pitch": 51, "duration": 37, "velocity": 81}, {"time": 2650, "pitch": 63, "duration": 8, "velocity": 75}, {"time": 2656, "pitch": 58, "duration": 7, "velocity": 73}, {"time": 2662, "pitch": 63, "duration": 9, "velocity": 73}, {"time": 2668, "pitch": 58, "duration": 7, "velocity": 66}, {"time": 2674, "pitch": 65, "duration": 12, "velocity": 76}, {"time": 2680, "pitch": 58, "duration": 8, "velocity": 70}, {"time": 2686, "pitch": 63, "duration": 14, "velocity": 74}, {"time": 2692, "pitch": 58, "duration": 8, "velocity": 74}, {"time": 2698, "pitch": 51, "duration": 46, "velocity": 83}, {"time": 2698, "pitch": 67, "duration": 12, "velocity": 67}, {"time": 2710, "pitch": 58, "duration": 36, "velocity": 67}, {"time": 2722, "pitch": 63, "duration": 23, "velocity": 61}, {"time": 2722, "pitch": 67, "duration": 23, "velocity": 65}, {"time": 2734, "pitch": 55, "duration": 12, "velocity": 71}, {"time": 2746, "pitch": 51, "duration": 30, "velocity": 80}, {"time": 2746, "pitch": 67, "duration": 24, "velocity": 69}, {"time": 2758, "pitch": 58, "duration": 19, "velocity": 69}, {"time": 2770, "pitch": 63, "duration": 11, "velocity": 78}, {"time": 2794, "pitch": 55, "duration": 26, "velocity": 72}, {"time": 2794, "pitch": 62, "duration": 7, "velocity": 67}, {"time": 2794, "pitch": 67, "duration": 26, "velocity": 74}, {"time": 2806, "pitch": 62, "duration": 15, "velocity": 69}, {"time": 2818, "pitch": 70, "duration": 6, "velocity": 78}, {"time": 2842, "pitch": 44, "duration": 38, "velocity": 76}, {"time": 2842, "pitch": 63, "duration": 8, "velocity": 69}, {"time": 2842, "pitch": 68, "duration": 41, "velocity": 66}, {"time": 2854, "pitch": 51, "duration": 26, "velocity": 67}, {"time": 2866, "pitch": 56, "duration": 14, "velocity": 74}, {"time": 2878, "pitch": 63, "duration": 36, "velocity": 75}, {"time": 2902, "pitch": 44, "duration": 26, "velocity": 42}, {"time": 2914, "pitch": 60, "duration": 13, "velocity": 80}, {"time": 2926, "pitch": 56, "duration": 4, "velocity": 81}, {"time": 2938, "pitch": 46, "duration": 94, "velocity": 79}, {"time": 2938, "pitch": 58, "duration": 16, "velocity": 71}, {"time": 2938, "pitch": 62, "duration": 14, "velocity": 69}, {"time": 2950, "pitch": 53, "duration": 83, "velocity": 68}, {"time": 2962, "pitch": 58, "duration": 27, "velocity": 74}, {"time": 2974, "pitch": 65, "duration": 15, "velocity": 78}, {"time": 2986, "pitch": 70, "duration": 11, "velocity": 80}, {"time": 3010, "pitch": 58, "duration": 8, "velocity": 74}, {"time": 3010, "pitch": 62, "duration": 14, "velocity": 73}, {"time": 3022, "pitch": 58, "duration": 15, "velocity": 78}, {"time": 3034, "pitch": 51, "duration": 43, "velocity": 76}, {"time": 3034, "pitch": 63, "duration": 30, "velocity": 76}, {"time": 3046, "pitch": 58, "duration": 27, "velocity": 73}, {"time": 3070, "pitch": 65, "duration": 7, "velocity": 80}, {"time": 3082, "pitch": 51, "duration": 31, "velocity": 75}, {"time": 3082, "pitch": 58, "duration": 9, "velocity": 68}, {"time": 3082, "pitch": 67, "duration": 20, "velocity": 72}, {"time": 3094, "pitch": 58, "duration": 16, "velocity": 69}, {"time": 3106, "pitch": 63, "duration": 5, "velocity": 75}, {"time": 3130, "pitch": 51, "duration": 35, "velocity": 82}, {"time": 3130, "pitch": 63, "duration": 16, "velocity": 75}, {"time": 3142, "pitch": 58, "duration": 14, "velocity": 73}, {"time": 3154, "pitch": 67, "duration": 15, "velocity": 75}, {"time": 3166, "pitch": 58, "duration": 6, "velocity": 73}, {"time": 3178, "pitch": 43, "duration": 27, "velocity": 75}, {"time": 3178, "pitch": 62, "duration": 20, "velocity": 73}, {"time": 3190, "pitch": 50, "duration": 16, "velocity": 67}, {"time": 3202, "pitch": 58, "duration": 6, "velocity": 75}, {"time": 3202, "pitch": 62, "duration": 13, "velocity": 72}, {"time": 3214, "pitch": 58, "duration": 4, "velocity": 80}, {"time": 3226, "pitch": 44, "duration": 81, "velocity": 80}, {"time": 3226, "pitch": 56, "duration": 50, "velocity": 73}, {"time": 3226, "pitch": 59, "duration": 23, "velocity": 68}, {"time": 3238, "pitch": 51, "duration": 68, "velocity": 64}, {"time": 3250, "pitch": 63, "duration": 15, "velocity": 80}, {"time": 3262, "pitch": 59, "duration": 7, "velocity": 81}, {"time": 3274, "pitch": 68, "duration": 32, "velocity": 80}, {"time": 3322, "pitch": 46, "duration": 76, "velocity": 77}, {"time": 3322, "pitch": 58, "duration": 25, "velocity": 72}, {"time": 3322, "pitch": 65, "duration": 24, "velocity": 79}, {"time": 3334, "pitch": 53, "duration": 63, "velocity": 76}, {"time": 3346, "pitch": 62, "duration": 13, "velocity": 81}, {"time": 3358, "pitch": 65, "duration": 14, "velocity": 80}, {"time": 3370, "pitch": 70, "duration": 20, "velocity": 80}, {"time": 3382, "pitch": 58, "duration": 14, "velocity": 67}, {"time": 3394, "pitch": 62, "duration": 6, "velocity": 71}, {"time": 3394, "pitch": 65, "duration": 11, "velocity": 80}, {"time": 3418, "pitch": 39, "duration": 5, "velocity": 81}, {"time": 3418, "pitch": 58, "duration": 9, "velocity": 66}, {"time": 3418, "pitch": 63, "duration": 24, "velocity": 75}, {"time": 3430, "pitch": 51, "duration": 33, "velocity": 75}, {"time": 3442, "pitch": 58, "duration": 21, "velocity": 80}, {"time": 3454, "pitch": 65, "duration": 11, "velocity": 80}, {"time": 3466, "pitch": 51, "duration": 44, "velocity": 86}, {"time": 3466, "pitch": 61, "duration": 18, "velocity": 78}, {"time": 3466, "pitch": 67, "duration": 28, "velocity": 71}, {"time": 3478, "pitch": 58, "duration": 19, "velocity": 78}, {"time": 3490, "pitch": 61, "duration": 21, "velocity": 82}, {"time": 3496, "pitch": 55, "duration": 15, "velocity": 75}, {"time": 3502, "pitch": 58, "duration": 9, "velocity": 80}, {"time": 3508, "pitch": 63, "duration": 7, "velocity": 79}, {"time": 3514, "pitch": 44, "duration": 39, "velocity": 82}, {"time": 3520, "pitch": 51, "duration": 33, "velocity": 73}, {"time": 3526, "pitch": 56, "duration": 18, "velocity": 78}, {"time": 3532, "pitch": 63, "duration": 18, "velocity": 77}, {"time": 3544, "pitch": 68, "duration": 15, "velocity": 77}, {"time": 3550, "pitch": 56, "duration": 14, "velocity": 69}, {"time": 3556, "pitch": 63, "duration": 12, "velocity": 68}, {"time": 3562, "pitch": 46, "duration": 37, "velocity": 79}, {"time": 3568, "pitch": 53, "duration": 21, "velocity": 74}, {"time": 3574, "pitch": 58, "duration": 23, "velocity": 72}, {"time": 3580, "pitch": 62, "duration": 38, "velocity": 87}, {"time": 3586, "pitch": 50, "duration": 15, "velocity": 72}, {"time": 3610, "pitch": 43, "duration": 36, "velocity": 80}, {"time": 3616, "pitch": 50, "duration": 30, "velocity": 63}, {"time": 3622, "pitch": 58, "duration": 18, "velocity": 72}, {"time": 3628, "pitch": 62, "duration": 15, "velocity": 83}, {"time": 3640, "pitch": 67, "duration": 19, "velocity": 76}, {"time": 3646, "pitch": 58, "duration": 8, "velocity": 67}, {"time": 3652, "pitch": 62, "duration": 5, "velocity": 69}, {"time": 3658, "pitch": 48, "duration": 38, "velocity": 79}, {"time": 3658, "pitch": 63, "duration": 14, "velocity": 80}, {"time": 3664, "pitch": 55, "duration": 14, "velocity": 74}, {"time": 3670, "pitch": 60, "duration": 18, "velocity": 80}, {"time": 3676, "pitch": 67, "duration": 15, "velocity": 84}, {"time": 3682, "pitch": 55, "duration": 8, "velocity": 70}, {"time": 3688, "pitch": 63, "duration": 8, "velocity": 72}, {"time": 3694, "pitch": 60, "duration": 15, "velocity": 70}, {"time": 3700, "pitch": 63, "duration": 8, "velocity": 72}, {"time": 3706, "pitch": 41, "duration": 37, "velocity": 80}, {"time": 3706, "pitch": 65, "duration": 14, "velocity": 80}, {"time": 3712, "pitch": 48, "duration": 30, "velocity": 69}, {"time": 3718, "pitch": 60, "duration": 11, "velocity": 76}, {"time": 3724, "pitch": 65, "duration": 8, "velocity": 77}, {"time": 3730, "pitch": 68, "duration": 12, "velocity": 80}, {"time": 3736, "pitch": 60, "duration": 10, "velocity": 73}, {"time": 3742, "pitch": 65, "duration": 14, "velocity": 75}, {"time": 3754, "pitch": 46, "duration": 44, "velocity": 76}, {"time": 3754, "pitch": 62, "duration": 14, "velocity": 68}, {"time": 3760, "pitch": 53, "duration": 36, "velocity": 71}, {"time": 3766, "pitch": 58, "duration": 10, "velocity": 70}, {"time": 3772, "pitch": 62, "duration": 7, "velocity": 76}, {"time": 3778, "pitch": 63, "duration": 8, "velocity": 80}, {"time": 3784, "pitch": 65, "duration": 7, "velocity": 80}, {"time": 3790, "pitch": 63, "duration": 8, "velocity": 75}, {"time": 3796, "pitch": 65, "duration": 8, "velocity": 76}, {"time": 3802, "pitch": 51, "duration": 38, "velocity": 81}, {"time": 3802, "pitch": 67, "duration": 13, "velocity": 80}, {"time": 3814, "pitch": 63, "duration": 8, "velocity": 68}, {"time": 3820, "pitch": 65, "duration": 7, "velocity": 80}, {"time": 3826, "pitch": 67, "duration": 17, "velocity": 81}, {"time": 3838, "pitch": 68, "duration": 11, "velocity": 76}, {"time": 3850, "pitch": 51, "duration": 32, "velocity": 83}, {"time": 3850, "pitch": 70, "duration": 15, "velocity": 80}, {"time": 3856, "pitch": 58, "duration": 20, "velocity": 71}, {"time": 3862, "pitch": 61, "duration": 8, "velocity": 81}, {"time": 3868, "pitch": 63, "duration": 8, "velocity": 79}, {"time": 3874, "pitch": 55, "duration": 14, "velocity": 85}, {"time": 3874, "pitch": 67, "duration": 26, "velocity": 80}, {"time": 3886, "pitch": 58, "duration": 5, "velocity": 71}, {"time": 3898, "pitch": 44, "duration": 39, "velocity": 78}, {"time": 3898, "pitch": 63, "duration": 8, "velocity": 70}, {"time": 3898, "pitch": 68, "duration": 28, "velocity": 74}, {"time": 3910, "pitch": 51, "duration": 29, "velocity": 75}, {"time": 3922, "pitch": 56, "duration": 16, "velocity": 77}, {"time": 3928, "pitch": 60, "duration": 9, "velocity": 80}, {"time": 3934, "pitch": 63, "duration": 9, "velocity": 75}, {"time": 3940, "pitch": 68, "duration": 20, "velocity": 70}, {"time": 3946, "pitch": 46, "duration": 37, "velocity": 80}, {"time": 3952, "pitch": 53, "duration": 21, "velocity": 75}, {"time": 3958, "pitch": 58, "duration": 13, "velocity": 71}, {"time": 3964, "pitch": 62, "duration": 8, "velocity": 80}, {"time": 3970, "pitch": 65, "duration": 14, "velocity": 79}, {"time": 3976, "pitch": 53, "duration": 7, "velocity": 72}, {"time": 3982, "pitch": 58, "duration": 15, "velocity": 74}, {"time": 3994, "pitch": 43, "duration": 34, "velocity": 81}, {"time": 3994, "pitch": 62, "duration": 13, "velocity": 76}, {"time": 4000, "pitch": 50, "duration": 21, "velocity": 61}, {"time": 4006, "pitch": 58, "duration": 13, "velocity": 75}, {"time": 4012, "pitch": 62, "duration": 9, "velocity": 82}, {"time": 4018, "pitch": 67, "duration": 18, "velocity": 82}, {"time": 4024, "pitch": 50, "duration": 6, "velocity": 72}, {"time": 4030, "pitch": 58, "duration": 8, "velocity": 74}, {"time": 4036, "pitch": 62, "duration": 9, "velocity": 73}, {"time": 4042, "pitch": 48, "duration": 33, "velocity": 80}, {"time": 4042, "pitch": 67, "duration": 23, "velocity": 74}, {"time": 4054, "pitch": 55, "duration": 15, "velocity": 63}, {"time": 4066, "pitch": 60, "duration": 8, "velocity": 70}, {"time": 4066, "pitch": 63, "duration": 16, "velocity": 76}, {"time": 4090, "pitch": 41, "duration": 37, "velocity": 80}, {"time": 4090, "pitch": 60, "duration": 24, "velocity": 72}, {"time": 4090, "pitch": 65, "duration": 25, "velocity": 79}, {"time": 4102, "pitch": 48, "duration": 23, "velocity": 67}, {"time": 4114, "pitch": 68, "duration": 15, "velocity": 80}, {"time": 4120, "pitch": 60, "duration": 8, "velocity": 71}, {"time": 4126, "pitch": 65, "duration": 5, "velocity": 74}, {"time": 4138, "pitch": 46, "duration": 43, "velocity": 79}, {"time": 4138, "pitch": 58, "duration": 20, "velocity": 69}, {"time": 4138, "pitch": 62, "duration": 19, "velocity": 70}, {"time": 4150, "pitch": 53, "duration": 32, "velocity": 72}, {"time": 4162, "pitch": 65, "duration": 13, "velocity": 79}, {"time": 4168, "pitch": 58, "duration": 9, "velocity": 68}, {"time": 4174, "pitch": 62, "duration": 7, "velocity": 66}, {"time": 4186, "pitch": 51, "duration": 43, "velocity": 78}, {"time": 4186, "pitch": 58, "duration": 6, "velocity": 68}, {"time": 4186, "pitch": 63, "duration": 24, "velocity": 76}, {"time": 4198, "pitch": 58, "duration": 14, "velocity": 66}, {"time": 4210, "pitch": 65, "duration": 12, "velocity": 75}, {"time": 4216, "pitch": 58, "duration": 8, "velocity": 67}, {"time": 4222, "pitch": 63, "duration": 26, "velocity": 74}, {"time": 4234, "pitch": 51, "duration": 35, "velocity": 75}, {"time": 4234, "pitch": 67, "duration": 30, "velocity": 60}, {"time": 4246, "pitch": 58, "duration": 32, "velocity": 64}, {"time": 4258, "pitch": 63, "duration": 22, "velocity": 68}, {"time": 4300, "pitch": 41, "duration": 67, "velocity": 82}, {"time": 4308, "pitch": 48, "duration": 52, "velocity": 66}, {"time": 4313, "pitch": 53, "duration": 41, "velocity": 71}, {"time": 4316, "pitch": 56, "duration": 39, "velocity": 67}, {"time": 4320, "pitch": 60, "duration": 36, "velocity": 74}, {"time": 4324, "pitch": 65, "duration": 50, "velocity": 79}, {"time": 4408, "pitch": 46, "duration": 98, "velocity": 80}, {"time": 4413, "pitch": 53, "duration": 91, "velocity": 74}, {"time": 4418, "pitch": 58, "duration": 19, "velocity": 68}, {"time": 4422, "pitch": 62, "duration": 5, "velocity": 67}, {"time": 4424, "pitch": 65, "duration": 61, "velocity": 68}, {"time": 4427, "pitch": 70, "duration": 58, "velocity": 73}, {"time": 4431, "pitch": 62, "duration": 51, "velocity": 26}, {"time": 4634, "pitch": 39, "duration": 112, "velocity": 82}, {"time": 4641, "pitch": 46, "duration": 104, "velocity": 64}, {"time": 4649, "pitch": 53, "duration": 15, "velocity": 79}, {"time": 4656, "pitch": 55, "duration": 9, "velocity": 86}, {"time": 4665, "pitch": 58, "duration": 3, "velocity": 80}, {"time": 4673, "pitch": 63, "duration": 6, "velocity": 80}, {"time": 4682, "pitch": 65, "duration": 10, "velocity": 84}, {"time": 4690, "pitch": 67, "duration": 9, "velocity": 82}, {"time": 4699, "pitch": 70, "duration": 2, "velocity": 83}, {"time": 4708, "pitch": 75, "duration": 9, "velocity": 89}, {"time": 4718, "pitch": 77, "duration": 2, "velocity": 86}, {"time": 4728, "pitch": 79, "duration": 4, "velocity": 75}, {"time": 4741, "pitch": 82, "duration": 3, "velocity": 76}, {"time": 4761, "pitch": 94, "duration": 26, "velocity": 74}], "annotations": [{"time": 66, "annotation": {"number": 64, "value": 127}, "group": "control_change"}, {"time": 104, "annotation": {"number": 64, "value": 0}, "group": "control_change"}, {"time": 108, "annotation": {"number": 64, "value": 127}, "group": "control_change"}, {"time": 153, "annotation": {"number": 64, "value": 0}, "group": "control_change"}, {"time": 167, "annotation": {"number": 64, "value": 127}, "group": "control_change"}, {"time": 167, "annotation": {"number": 64, "value": 0}, "group": "control_change"}, {"time": 168, "annotation": {"number": 64, "value": 127}, "group": "control_change"}, {"time": 169, "annotation": {"number": 64, "value": 0}, "group": "control_change"}, {"time": 169, "annotation": {"number": 64, "value": 127}, "group": "control_change"}, {"time": 201, "annotation": {"number": 64, "value": 0}, "group": "control_change"}, {"time": 213, "annotation": {"number": 64, "value": 127}, "group": "control_change"}, {"time": 248, "annotation": {"number": 64, "value": 0}, "group": "control_change"}, {"time": 260, "annotation": {"number": 64, "value": 127}, "group": "control_change"}, {"time": 295, "annotation": {"number": 64, "value": 0}, "group": "control_change"}, {"time": 303, "annotation": {"number": 64, "value": 127}, "group": "control_change"}, {"time": 344, "annotation": {"number": 64, "value": 0}, "group": "control_change"}, {"time": 357, "annotation": {"number": 64, "value": 127}, "group": "control_change"}, {"time": 393, "annotation": {"number": 64, "value": 0}, "group": "control_change"}, {"time": 404, "annotation": {"number": 64, "value": 127}, "group": "control_change"}, {"time": 440, "annotation": {"number": 64, "value": 0}, "group": "control_change"}, {"time": 452, "annotation": {"number": 64, "value": 127}, "group": "control_change"}, {"time": 488, "annotation": {"number": 64, "value": 0}, "group": "control_change"}, {"time": 495, "annotation": {"number": 64, "value": 127}, "group": "control_change"}, {"time": 535, "annotation": {"number": 64, "value": 0}, "group": "control_change"}, {"time": 540, "annotation": {"number": 64, "value": 127}, "group": "control_change"}, {"time": 633, "annotation": {"number": 64, "value": 0}, "group": "control_change"}, {"time": 645, "annotation": {"number": 64, "value": 127}, "group": "control_change"}, {"time": 730, "annotation": {"number": 64, "value": 0}, "group": "control_change"}, {"time": 743, "annotation": {"number": 64, "value": 127}, "group": "control_change"}, {"time": 825, "annotation": {"number": 64, "value": 127}, "group": "control_change"}, {"time": 872, "annotation": {"number": 64, "value": 0}, "group": "control_change"}, {"time": 882, "annotation": {"number": 64, "value": 127}, "group": "control_change"}, {"time": 921, "annotation": {"number": 64, "value": 0}, "group": "control_change"}, {"time": 929, "annotation": {"number": 64, "value": 127}, "group": "control_change"}, {"time": 1018, "annotation": {"number": 64, "value": 0}, "group": "control_change"}, {"time": 1029, "annotation": {"number": 64, "value": 127}, "group": "control_change"}, {"time": 1029, "annotation": {"number": 64, "value": 0}, "group": "control_change"}, {"time": 1030, "annotation": {"number": 64, "value": 127}, "group": "control_change"}, {"time": 1066, "annotation": {"number": 64, "value": 0}, "group": "control_change"}, {"time": 1067, "annotation": {"number": 64, "value": 127}, "group": "control_change"}, {"time": 1110, "annotation": {"number": 64, "value": 0}, "group": "control_change"}, {"time": 1113, "annotation": {"number": 64, "value": 127}, "group": "control_change"}, {"time": 1159, "annotation": {"number": 64, "value": 0}, "group": "control_change"}, {"time": 1163, "annotation": {"number": 64, "value": 127}, "group": "control_change"}, {"time": 1208, "annotation": {"number": 64, "value": 0}, "group": "control_change"}, {"time": 1215, "annotation": {"number": 64, "value": 127}, "group": "control_change"}, {"time": 1215, "annotation": {"number": 64, "value": 0}, "group": "control_change"}, {"time": 1254, "annotation": {"number": 64, "value": 0}, "group": "control_change"}, {"time": 1260, "annotation": {"number": 64, "value": 127}, "group": "control_change"}, {"time": 1303, "annotation": {"number": 64, "value": 0}, "group": "control_change"}, {"time": 1309, "annotation": {"number": 64, "value": 127}, "group": "control_change"}, {"time": 1353, "annotation": {"number": 64, "value": 0}, "group": "control_change"}, {"time": 1360, "annotation": {"number": 64, "value": 127}, "group": "control_change"}, {"time": 1400, "annotation": {"number": 64, "value": 0}, "group": "control_change"}, {"time": 1406, "annotation": {"number": 64, "value": 127}, "group": "control_change"}, {"time": 1450, "annotation": {"number": 64, "value": 0}, "group": "control_change"}, {"time": 1459, "annotation": {"number": 64, "value": 127}, "group": "control_change"}, {"time": 1495, "annotation": {"number": 64, "value": 0}, "group": "control_change"}, {"time": 1499, "annotation": {"number": 64, "value": 127}, "group": "control_change"}, {"time": 1545, "annotation": {"number": 64, "value": 0}, "group": "control_change"}, {"time": 1549, "annotation": {"number": 64, "value": 127}, "group": "control_change"}, {"time": 1593, "annotation": {"number": 64, "value": 0}, "group": "control_change"}, {"time": 1598, "annotation": {"number": 64, "value": 127}, "group": "control_change"}, {"time": 1638, "annotation": {"number": 64, "value": 0}, "group": "control_change"}, {"time": 1648, "annotation": {"number": 64, "value": 127}, "group": "control_change"}, {"time": 1687, "annotation": {"number": 64, "value": 0}, "group": "control_change"}, {"time": 1697, "annotation": {"number": 64, "value": 127}, "group": "control_change"}, {"time": 1737, "annotation": {"number": 64, "value": 0}, "group": "control_change"}, {"time": 1744, "annotation": {"number": 64, "value": 127}, "group": "control_change"}, {"time": 1744, "annotation": {"number": 64, "value": 0}, "group": "control_change"}, {"time": 1784, "annotation": {"number": 64, "value": 0}, "group": "control_change"}, {"time": 1797, "annotation": {"number": 64, "value": 127}, "group": "control_change"}, {"time": 1834, "annotation": {"number": 64, "value": 0}, "group": "control_change"}, {"time": 1844, "annotation": {"number": 64, "value": 127}, "group": "control_change"}, {"time": 1881, "annotation": {"number": 64, "value": 0}, "group": "control_change"}, {"time": 1886, "annotation": {"number": 64, "value": 127}, "group": "control_change"}, {"time": 1929, "annotation": {"number": 64, "value": 0}, "group": "control_change"}, {"time": 1936, "annotation": {"number": 64, "value": 127}, "group": "control_change"}, {"time": 1974, "annotation": {"number": 64, "value": 0}, "group": "control_change"}, {"time": 1984, "annotation": {"number": 64, "value": 127}, "group": "control_change"}, {"time": 2024, "annotation": {"number": 64, "value": 0}, "group": "control_change"}, {"time": 2036, "annotation": {"number": 64, "value": 127}, "group": "control_change"}, {"time": 2072, "annotation": {"number": 64, "value": 0}, "group": "control_change"}, {"time": 2085, "annotation": {"number": 64, "value": 127}, "group": "control_change"}, {"time": 2122, "annotation": {"number": 64, "value": 0}, "group": "control_change"}, {"time": 2132, "annotation": {"number": 64, "value": 127}, "group": "control_change"}, {"time": 2170, "annotation": {"number": 64, "value": 0}, "group": "control_change"}, {"time": 2180, "annotation": {"number": 64, "value": 127}, "group": "control_change"}, {"time": 2213, "annotation": {"number": 64, "value": 0}, "group": "control_change"}, {"time": 2223, "annotation": {"number": 64, "value": 127}, "group": "control_change"}, {"time": 2262, "annotation": {"number": 64, "value": 0}, "group": "control_change"}, {"time": 2272, "annotation": {"number": 64, "value": 127}, "group": "control_change"}, {"time": 2312, "annotation": {"number": 64, "value": 0}, "group": "control_change"}, {"time": 2318, "annotation": {"number": 64, "value": 127}, "group": "control_change"}, {"time": 2362, "annotation": {"number": 64, "value": 0}, "group": "control_change"}, {"time": 2367, "annotation": {"number": 64, "value": 127}, "group": "control_change"}, {"time": 2410, "annotation": {"number": 64, "value": 0}, "group": "control_change"}, {"time": 2414, "annotation": {"number": 64, "value": 127}, "group": "control_change"}, {"time": 2456, "annotation": {"number": 64, "value": 0}, "group": "control_change"}, {"time": 2459, "annotation": {"number": 64, "value": 127}, "group": "control_change"}, {"time": 2502, "annotation": {"number": 64, "value": 0}, "group": "control_change"}, {"time": 2510, "annotation": {"number": 64, "value": 127}, "group": "control_change"}, {"time": 2552, "annotation": {"number": 64, "value": 0}, "group": "control_change"}, {"time": 2558, "annotation": {"number": 64, "value": 127}, "group": "control_change"}, {"time": 2602, "annotation": {"number": 64, "value": 0}, "group": "control_change"}, {"time": 2611, "annotation": {"number": 64, "value": 127}, "group": "control_change"}, {"time": 2649, "annotation": {"number": 64, "value": 0}, "group": "control_change"}, {"time": 2654, "annotation": {"number": 64, "value": 127}, "group": "control_change"}, {"time": 2694, "annotation": {"number": 64, "value": 0}, "group": "control_change"}, {"time": 2699, "annotation": {"number": 64, "value": 127}, "group": "control_change"}, {"time": 2738, "annotation": {"number": 64, "value": 0}, "group": "control_change"}, {"time": 2756, "annotation": {"number": 64, "value": 127}, "group": "control_change"}, {"time": 2792, "annotation": {"number": 64, "value": 0}, "group": "control_change"}, {"time": 2799, "annotation": {"number": 64, "value": 127}, "group": "control_change"}, {"time": 2839, "annotation": {"number": 64, "value": 0}, "group": "control_change"}, {"time": 2844, "annotation": {"number": 64, "value": 127}, "group": "control_change"}, {"time": 2937, "annotation": {"number": 64, "value": 0}, "group": "control_change"}, {"time": 2949, "annotation": {"number": 64, "value": 127}, "group": "control_change"}, {"time": 3034, "annotation": {"number": 64, "value": 0}, "group": "control_change"}, {"time": 3047, "annotation": {"number": 64, "value": 127}, "group": "control_change"}, {"time": 3129, "annotation": {"number": 64, "value": 127}, "group": "control_change"}, {"time": 3176, "annotation": {"number": 64, "value": 0}, "group": "control_change"}, {"time": 3186, "annotation": {"number": 64, "value": 127}, "group": "control_change"}, {"time": 3225, "annotation": {"number": 64, "value": 0}, "group": "control_change"}, {"time": 3233, "annotation": {"number": 64, "value": 127}, "group": "control_change"}, {"time": 3322, "annotation": {"number": 64, "value": 0}, "group": "control_change"}, {"time": 3333, "annotation": {"number": 64, "value": 127}, "group": "control_change"}, {"time": 3333, "annotation": {"number": 64, "value": 0}, "group": "control_change"}, {"time": 3334, "annotation": {"number": 64, "value": 127}, "group": "control_change"}, {"time": 3370, "annotation": {"number": 64, "value": 0}, "group": "control_change"}, {"time": 3371, "annotation": {"number": 64, "value": 127}, "group": "control_change"}, {"time": 3414, "annotation": {"number": 64, "value": 0}, "group": "control_change"}, {"time": 3417, "annotation": {"number": 64, "value": 127}, "group": "control_change"}, {"time": 3463, "annotation": {"number": 64, "value": 0}, "group": "control_change"}, {"time": 3467, "annotation": {"number": 64, "value": 127}, "group": "control_change"}, {"time": 3512, "annotation": {"number": 64, "value": 0}, "group": "control_change"}, {"time": 3519, "annotation": {"number": 64, "value": 127}, "group": "control_change"}, {"time": 3519, "annotation": {"number": 64, "value": 0}, "group": "control_change"}, {"time": 3558, "annotation": {"number": 64, "value": 0}, "group": "control_change"}, {"time": 3564, "annotation": {"number": 64, "value": 127}, "group": "control_change"}, {"time": 3607, "annotation": {"number": 64, "value": 0}, "group": "control_change"}, {"time": 3613, "annotation": {"number": 64, "value": 127}, "group": "control_change"}, {"time": 3657, "annotation": {"number": 64, "value": 0}, "group": "control_change"}, {"time": 3664, "annotation": {"number": 64, "value": 127}, "group": "control_change"}, {"time": 3704, "annotation": {"number": 64, "value": 0}, "group": "control_change"}, {"time": 3710, "annotation": {"number": 64, "value": 127}, "group": "control_change"}, {"time": 3754, "annotation": {"number": 64, "value": 0}, "group": "control_change"}, {"time": 3763, "annotation": {"number": 64, "value": 127}, "group": "control_change"}, {"time": 3799, "annotation": {"number": 64, "value": 0}, "group": "control_change"}, {"time": 3803, "annotation": {"number": 64, "value": 127}, "group": "control_change"}, {"time": 3849, "annotation": {"number": 64, "value": 0}, "group": "control_change"}, {"time": 3853, "annotation": {"number": 64, "value": 127}, "group": "control_change"}, {"time": 3897, "annotation": {"number": 64, "value": 0}, "group": "control_change"}, {"time": 3902, "annotation": {"number": 64, "value": 127}, "group": "control_change"}, {"time": 3942, "annotation": {"number": 64, "value": 0}, "group": "control_change"}, {"time": 3952, "annotation": {"number": 64, "value": 127}, "group": "control_change"}, {"time": 3991, "annotation": {"number": 64, "value": 0}, "group": "control_change"}, {"time": 4001, "annotation": {"number": 64, "value": 127}, "group": "control_change"}, {"time": 4041, "annotation": {"number": 64, "value": 0}, "group": "control_change"}, {"time": 4048, "annotation": {"number": 64, "value": 127}, "group": "control_change"}, {"time": 4048, "annotation": {"number": 64, "value": 0}, "group": "control_change"}, {"time": 4088, "annotation": {"number": 64, "value": 0}, "group": "control_change"}, {"time": 4101, "annotation": {"number": 64, "value": 127}, "group": "control_change"}, {"time": 4138, "annotation": {"number": 64, "value": 0}, "group": "control_change"}, {"time": 4148, "annotation": {"number": 64, "value": 127}, "group": "control_change"}, {"time": 4185, "annotation": {"number": 64, "value": 0}, "group": "control_change"}, {"time": 4190, "annotation": {"number": 64, "value": 127}, "group": "control_change"}, {"time": 4233, "annotation": {"number": 64, "value": 0}, "group": "control_change"}, {"time": 4240, "annotation": {"number": 64, "value": 127}, "group": "control_change"}, {"time": 4278, "annotation": {"number": 64, "value": 0}, "group": "control_change"}, {"time": 4305, "annotation": {"number": 64, "value": 127}, "group": "control_change"}, {"time": 4305, "annotation": {"number": 64, "value": 0}, "group": "control_change"}, {"time": 4306, "annotation": {"number": 64, "value": 127}, "group": "control_change"}, {"time": 4408, "annotation": {"number": 64, "value": 0}, "group": "control_change"}, {"time": 4415, "annotation": {"number": 64, "value": 127}, "group": "control_change"}, {"time": 4626, "annotation": {"number": 64, "value": 0}, "group": "control_change"}, {"time": 4652, "annotation": {"number": 64, "value": 127}, "group": "control_change"}, {"time": 4834, "annotation": {"number": 64, "value": 0}, "group": "control_change"}]}]}