{"metadata": {"schema_version": "0.2", "title": "None", "source_filename": "552.mid", "source_format": "midi"}, "resolution": 12, "tempos": [{"time": 0, "qpm": 97.9999836666694}], "key_signatures": [{"time": 0, "root": 0, "mode": "major"}], "time_signatures": [{"time": 0, "numerator": 4, "denominator": 4}, {"time": 0, "numerator": 1, "denominator": 4}], "tracks": [{"program": 4, "is_drum": false, "name": "MELODY", "notes": [{"time": 402, "pitch": 66, "duration": 9, "velocity": 87}, {"time": 414, "pitch": 66, "duration": 2, "velocity": 80}, {"time": 420, "pitch": 66, "duration": 4, "velocity": 93}, {"time": 426, "pitch": 66, "duration": 1, "velocity": 74}, {"time": 428, "pitch": 66, "duration": 7, "velocity": 83}, {"time": 438, "pitch": 66, "duration": 4, "velocity": 87}, {"time": 444, "pitch": 68, "duration": 3, "velocity": 95}, {"time": 450, "pitch": 68, "duration": 1, "velocity": 85}, {"time": 452, "pitch": 68, "duration": 6, "velocity": 90}, {"time": 458, "pitch": 66, "duration": 3, "velocity": 95}, {"time": 462, "pitch": 66, "duration": 11, "velocity": 93}, {"time": 498, "pitch": 66, "duration": 3, "velocity": 87}, {"time": 504, "pitch": 66, "duration": 3, "velocity": 93}, {"time": 510, "pitch": 64, "duration": 3, "velocity": 87}, {"time": 516, "pitch": 63, "duration": 3, "velocity": 90}, {"time": 522, "pitch": 64, "duration": 6, "velocity": 95}, {"time": 534, "pitch": 59, "duration": 3, "velocity": 83}, {"time": 540, "pitch": 66, "duration": 3, "velocity": 93}, {"time": 546, "pitch": 64, "duration": 3, "velocity": 85}, {"time": 552, "pitch": 63, "duration": 3, "velocity": 87}, {"time": 558, "pitch": 63, "duration": 9, "velocity": 80}, {"time": 570, "pitch": 61, "duration": 16, "velocity": 85}, {"time": 594, "pitch": 66, "duration": 9, "velocity": 87}, {"time": 606, "pitch": 66, "duration": 2, "velocity": 80}, {"time": 612, "pitch": 66, "duration": 4, "velocity": 93}, {"time": 618, "pitch": 66, "duration": 1, "velocity": 74}, {"time": 620, "pitch": 66, "duration": 7, "velocity": 83}, {"time": 630, "pitch": 66, "duration": 4, "velocity": 87}, {"time": 636, "pitch": 68, "duration": 3, "velocity": 95}, {"time": 642, "pitch": 68, "duration": 1, "velocity": 85}, {"time": 644, "pitch": 68, "duration": 6, "velocity": 90}, {"time": 650, "pitch": 66, "duration": 3, "velocity": 95}, {"time": 654, "pitch": 66, "duration": 11, "velocity": 93}, {"time": 672, "pitch": 73, "duration": 4, "velocity": 93}, {"time": 678, "pitch": 71, "duration": 4, "velocity": 87}, {"time": 684, "pitch": 70, "duration": 4, "velocity": 95}, {"time": 690, "pitch": 71, "duration": 6, "velocity": 80}, {"time": 702, "pitch": 70, "duration": 9, "velocity": 95}, {"time": 714, "pitch": 71, "duration": 6, "velocity": 93}, {"time": 726, "pitch": 68, "duration": 2, "velocity": 83}, {"time": 728, "pitch": 70, "duration": 2, "velocity": 80}, {"time": 732, "pitch": 71, "duration": 2, "velocity": 87}, {"time": 738, "pitch": 71, "duration": 2, "velocity": 85}, {"time": 744, "pitch": 71, "duration": 3, "velocity": 87}, {"time": 750, "pitch": 71, "duration": 9, "velocity": 93}, {"time": 762, "pitch": 73, "duration": 14, "velocity": 93}, {"time": 786, "pitch": 68, "duration": 2, "velocity": 93}, {"time": 792, "pitch": 68, "duration": 4, "velocity": 87}, {"time": 798, "pitch": 71, "duration": 4, "velocity": 95}, {"time": 804, "pitch": 70, "duration": 3, "velocity": 93}, {"time": 810, "pitch": 71, "duration": 3, "velocity": 87}, {"time": 816, "pitch": 70, "duration": 3, "velocity": 95}, {"time": 822, "pitch": 68, "duration": 3, "velocity": 93}, {"time": 828, "pitch": 66, "duration": 3, "velocity": 83}, {"time": 834, "pitch": 66, "duration": 3, "velocity": 74}, {"time": 840, "pitch": 66, "duration": 3, "velocity": 83}, {"time": 846, "pitch": 71, "duration": 18, "velocity": 70}, {"time": 882, "pitch": 68, "duration": 3, "velocity": 93}, {"time": 888, "pitch": 68, "duration": 4, "velocity": 93}, {"time": 894, "pitch": 71, "duration": 3, "velocity": 90}, {"time": 900, "pitch": 70, "duration": 3, "velocity": 87}, {"time": 906, "pitch": 71, "duration": 3, "velocity": 87}, {"time": 912, "pitch": 70, "duration": 3, "velocity": 93}, {"time": 918, "pitch": 68, "duration": 9, "velocity": 102}, {"time": 930, "pitch": 66, "duration": 24, "velocity": 93}, {"time": 978, "pitch": 68, "duration": 3, "velocity": 102}, {"time": 984, "pitch": 68, "duration": 4, "velocity": 93}, {"time": 990, "pitch": 71, "duration": 4, "velocity": 93}, {"time": 996, "pitch": 70, "duration": 3, "velocity": 93}, {"time": 1002, "pitch": 71, "duration": 3, "velocity": 87}, {"time": 1008, "pitch": 70, "duration": 2, "velocity": 90}, {"time": 1014, "pitch": 68, "duration": 2, "velocity": 102}, {"time": 1020, "pitch": 67, "duration": 3, "velocity": 87}, {"time": 1026, "pitch": 67, "duration": 2, "velocity": 69}, {"time": 1032, "pitch": 73, "duration": 5, "velocity": 93}, {"time": 1038, "pitch": 71, "duration": 13, "velocity": 102}, {"time": 1056, "pitch": 68, "duration": 3, "velocity": 102}, {"time": 1062, "pitch": 70, "duration": 2, "velocity": 83}, {"time": 1068, "pitch": 71, "duration": 3, "velocity": 95}, {"time": 1074, "pitch": 71, "duration": 1, "velocity": 70}, {"time": 1076, "pitch": 71, "duration": 5, "velocity": 83}, {"time": 1082, "pitch": 70, "duration": 2, "velocity": 87}, {"time": 1086, "pitch": 71, "duration": 8, "velocity": 95}, {"time": 1098, "pitch": 70, "duration": 2, "velocity": 93}, {"time": 1104, "pitch": 71, "duration": 3, "velocity": 85}, {"time": 1110, "pitch": 73, "duration": 17, "velocity": 95}, {"time": 1134, "pitch": 66, "duration": 3, "velocity": 93}, {"time": 1140, "pitch": 71, "duration": 9, "velocity": 87}, {"time": 1152, "pitch": 73, "duration": 9, "velocity": 95}, {"time": 1164, "pitch": 75, "duration": 6, "velocity": 103}, {"time": 1176, "pitch": 71, "duration": 2, "velocity": 90}, {"time": 1182, "pitch": 73, "duration": 3, "velocity": 93}, {"time": 1188, "pitch": 75, "duration": 3, "velocity": 103}, {"time": 1194, "pitch": 76, "duration": 3, "velocity": 103}, {"time": 1200, "pitch": 78, "duration": 5, "velocity": 102}, {"time": 1212, "pitch": 73, "duration": 3, "velocity": 80}, {"time": 1218, "pitch": 66, "duration": 3, "velocity": 87}, {"time": 1224, "pitch": 70, "duration": 2, "velocity": 87}, {"time": 1230, "pitch": 71, "duration": 3, "velocity": 90}, {"time": 1236, "pitch": 73, "duration": 12, "velocity": 93}, {"time": 1260, "pitch": 71, "duration": 3, "velocity": 93}, {"time": 1266, "pitch": 63, "duration": 2, "velocity": 102}, {"time": 1272, "pitch": 68, "duration": 2, "velocity": 102}, {"time": 1278, "pitch": 70, "duration": 3, "velocity": 80}, {"time": 1284, "pitch": 71, "duration": 3, "velocity": 87}, {"time": 1290, "pitch": 73, "duration": 3, "velocity": 90}, {"time": 1296, "pitch": 75, "duration": 7, "velocity": 95}, {"time": 1308, "pitch": 70, "duration": 3, "velocity": 102}, {"time": 1314, "pitch": 71, "duration": 3, "velocity": 87}, {"time": 1320, "pitch": 70, "duration": 2, "velocity": 85}, {"time": 1326, "pitch": 68, "duration": 3, "velocity": 90}, {"time": 1332, "pitch": 66, "duration": 5, "velocity": 87}, {"time": 1344, "pitch": 71, "duration": 3, "velocity": 93}, {"time": 1350, "pitch": 70, "duration": 3, "velocity": 90}, {"time": 1356, "pitch": 68, "duration": 8, "velocity": 93}, {"time": 1368, "pitch": 70, "duration": 3, "velocity": 87}, {"time": 1374, "pitch": 71, "duration": 3, "velocity": 85}, {"time": 1380, "pitch": 73, "duration": 8, "velocity": 95}, {"time": 1392, "pitch": 71, "duration": 3, "velocity": 87}, {"time": 1398, "pitch": 73, "duration": 3, "velocity": 93}, {"time": 1404, "pitch": 75, "duration": 3, "velocity": 93}, {"time": 1410, "pitch": 76, "duration": 3, "velocity": 102}, {"time": 1416, "pitch": 75, "duration": 3, "velocity": 102}, {"time": 1422, "pitch": 73, "duration": 3, "velocity": 93}, {"time": 1428, "pitch": 71, "duration": 6, "velocity": 93}, {"time": 1440, "pitch": 68, "duration": 3, "velocity": 102}, {"time": 1446, "pitch": 70, "duration": 3, "velocity": 90}, {"time": 1452, "pitch": 71, "duration": 3, "velocity": 93}, {"time": 1458, "pitch": 71, "duration": 3, "velocity": 93}, {"time": 1464, "pitch": 71, "duration": 4, "velocity": 95}, {"time": 1470, "pitch": 70, "duration": 3, "velocity": 87}, {"time": 1476, "pitch": 71, "duration": 2, "velocity": 93}, {"time": 1482, "pitch": 73, "duration": 3, "velocity": 93}, {"time": 1488, "pitch": 75, "duration": 8, "velocity": 102}, {"time": 1500, "pitch": 73, "duration": 14, "velocity": 93}, {"time": 1518, "pitch": 66, "duration": 3, "velocity": 93}, {"time": 1524, "pitch": 71, "duration": 9, "velocity": 87}, {"time": 1536, "pitch": 73, "duration": 9, "velocity": 95}, {"time": 1548, "pitch": 75, "duration": 6, "velocity": 103}, {"time": 1560, "pitch": 71, "duration": 2, "velocity": 90}, {"time": 1566, "pitch": 73, "duration": 3, "velocity": 93}, {"time": 1572, "pitch": 75, "duration": 3, "velocity": 103}, {"time": 1578, "pitch": 76, "duration": 3, "velocity": 103}, {"time": 1584, "pitch": 78, "duration": 5, "velocity": 102}, {"time": 1596, "pitch": 73, "duration": 3, "velocity": 80}, {"time": 1602, "pitch": 66, "duration": 3, "velocity": 87}, {"time": 1608, "pitch": 70, "duration": 2, "velocity": 87}, {"time": 1614, "pitch": 71, "duration": 3, "velocity": 90}, {"time": 1620, "pitch": 73, "duration": 12, "velocity": 93}, {"time": 1644, "pitch": 71, "duration": 3, "velocity": 93}, {"time": 1650, "pitch": 63, "duration": 2, "velocity": 102}, {"time": 1656, "pitch": 68, "duration": 2, "velocity": 102}, {"time": 1662, "pitch": 70, "duration": 3, "velocity": 80}, {"time": 1668, "pitch": 71, "duration": 3, "velocity": 87}, {"time": 1674, "pitch": 73, "duration": 3, "velocity": 90}, {"time": 1680, "pitch": 75, "duration": 7, "velocity": 95}, {"time": 1692, "pitch": 75, "duration": 3, "velocity": 102}, {"time": 1698, "pitch": 76, "duration": 3, "velocity": 87}, {"time": 1704, "pitch": 75, "duration": 2, "velocity": 85}, {"time": 1710, "pitch": 73, "duration": 3, "velocity": 90}, {"time": 1716, "pitch": 71, "duration": 5, "velocity": 87}, {"time": 1728, "pitch": 71, "duration": 3, "velocity": 93}, {"time": 1734, "pitch": 70, "duration": 3, "velocity": 90}, {"time": 1740, "pitch": 68, "duration": 8, "velocity": 93}, {"time": 1752, "pitch": 70, "duration": 3, "velocity": 87}, {"time": 1758, "pitch": 71, "duration": 3, "velocity": 85}, {"time": 1764, "pitch": 73, "duration": 8, "velocity": 95}, {"time": 1776, "pitch": 75, "duration": 3, "velocity": 87}, {"time": 1782, "pitch": 76, "duration": 3, "velocity": 93}, {"time": 1788, "pitch": 78, "duration": 8, "velocity": 93}, {"time": 1800, "pitch": 75, "duration": 3, "velocity": 102}, {"time": 1806, "pitch": 73, "duration": 3, "velocity": 93}, {"time": 1812, "pitch": 71, "duration": 6, "velocity": 93}, {"time": 1824, "pitch": 68, "duration": 3, "velocity": 102}, {"time": 1830, "pitch": 70, "duration": 3, "velocity": 90}, {"time": 1836, "pitch": 71, "duration": 3, "velocity": 93}, {"time": 1842, "pitch": 71, "duration": 3, "velocity": 93}, {"time": 1848, "pitch": 71, "duration": 4, "velocity": 95}, {"time": 1854, "pitch": 70, "duration": 3, "velocity": 87}, {"time": 1860, "pitch": 71, "duration": 2, "velocity": 93}, {"time": 1866, "pitch": 73, "duration": 3, "velocity": 93}, {"time": 1872, "pitch": 75, "duration": 8, "velocity": 102}, {"time": 1884, "pitch": 73, "duration": 14, "velocity": 93}, {"time": 1902, "pitch": 66, "duration": 3, "velocity": 102}, {"time": 1908, "pitch": 71, "duration": 9, "velocity": 87}, {"time": 1920, "pitch": 70, "duration": 4, "velocity": 87}, {"time": 1926, "pitch": 71, "duration": 32, "velocity": 90}, {"time": 2706, "pitch": 68, "duration": 2, "velocity": 93}, {"time": 2712, "pitch": 68, "duration": 4, "velocity": 87}, {"time": 2718, "pitch": 71, "duration": 4, "velocity": 95}, {"time": 2724, "pitch": 70, "duration": 3, "velocity": 93}, {"time": 2730, "pitch": 71, "duration": 3, "velocity": 87}, {"time": 2736, "pitch": 70, "duration": 3, "velocity": 95}, {"time": 2742, "pitch": 68, "duration": 3, "velocity": 93}, {"time": 2748, "pitch": 66, "duration": 3, "velocity": 83}, {"time": 2754, "pitch": 66, "duration": 3, "velocity": 74}, {"time": 2760, "pitch": 66, "duration": 3, "velocity": 83}, {"time": 2766, "pitch": 71, "duration": 18, "velocity": 70}, {"time": 2802, "pitch": 68, "duration": 3, "velocity": 93}, {"time": 2808, "pitch": 68, "duration": 4, "velocity": 93}, {"time": 2814, "pitch": 71, "duration": 3, "velocity": 90}, {"time": 2820, "pitch": 70, "duration": 3, "velocity": 87}, {"time": 2826, "pitch": 71, "duration": 3, "velocity": 87}, {"time": 2832, "pitch": 70, "duration": 3, "velocity": 93}, {"time": 2838, "pitch": 68, "duration": 9, "velocity": 102}, {"time": 2850, "pitch": 66, "duration": 24, "velocity": 93}, {"time": 2898, "pitch": 68, "duration": 3, "velocity": 102}, {"time": 2904, "pitch": 68, "duration": 4, "velocity": 93}, {"time": 2910, "pitch": 71, "duration": 4, "velocity": 93}, {"time": 2916, "pitch": 70, "duration": 3, "velocity": 93}, {"time": 2922, "pitch": 71, "duration": 3, "velocity": 87}, {"time": 2928, "pitch": 70, "duration": 2, "velocity": 90}, {"time": 2934, "pitch": 68, "duration": 2, "velocity": 102}, {"time": 2940, "pitch": 67, "duration": 3, "velocity": 87}, {"time": 2946, "pitch": 67, "duration": 2, "velocity": 69}, {"time": 2952, "pitch": 73, "duration": 5, "velocity": 93}, {"time": 2958, "pitch": 71, "duration": 13, "velocity": 102}, {"time": 2976, "pitch": 68, "duration": 3, "velocity": 102}, {"time": 2982, "pitch": 70, "duration": 2, "velocity": 83}, {"time": 2988, "pitch": 71, "duration": 3, "velocity": 95}, {"time": 2994, "pitch": 71, "duration": 1, "velocity": 70}, {"time": 2996, "pitch": 71, "duration": 5, "velocity": 83}, {"time": 3002, "pitch": 70, "duration": 2, "velocity": 87}, {"time": 3006, "pitch": 71, "duration": 8, "velocity": 95}, {"time": 3018, "pitch": 70, "duration": 2, "velocity": 93}, {"time": 3024, "pitch": 71, "duration": 3, "velocity": 85}, {"time": 3030, "pitch": 73, "duration": 17, "velocity": 95}, {"time": 3054, "pitch": 66, "duration": 3, "velocity": 93}, {"time": 3060, "pitch": 71, "duration": 9, "velocity": 87}, {"time": 3072, "pitch": 73, "duration": 9, "velocity": 95}, {"time": 3084, "pitch": 75, "duration": 6, "velocity": 103}, {"time": 3096, "pitch": 71, "duration": 2, "velocity": 90}, {"time": 3102, "pitch": 73, "duration": 3, "velocity": 93}, {"time": 3108, "pitch": 75, "duration": 3, "velocity": 103}, {"time": 3114, "pitch": 76, "duration": 3, "velocity": 103}, {"time": 3120, "pitch": 78, "duration": 5, "velocity": 102}, {"time": 3132, "pitch": 73, "duration": 3, "velocity": 80}, {"time": 3138, "pitch": 66, "duration": 3, "velocity": 87}, {"time": 3144, "pitch": 70, "duration": 2, "velocity": 87}, {"time": 3150, "pitch": 71, "duration": 3, "velocity": 90}, {"time": 3156, "pitch": 73, "duration": 12, "velocity": 93}, {"time": 3180, "pitch": 71, "duration": 3, "velocity": 93}, {"time": 3186, "pitch": 63, "duration": 2, "velocity": 102}, {"time": 3192, "pitch": 68, "duration": 2, "velocity": 102}, {"time": 3198, "pitch": 70, "duration": 3, "velocity": 80}, {"time": 3204, "pitch": 71, "duration": 3, "velocity": 87}, {"time": 3210, "pitch": 73, "duration": 3, "velocity": 90}, {"time": 3216, "pitch": 75, "duration": 7, "velocity": 95}, {"time": 3228, "pitch": 70, "duration": 3, "velocity": 102}, {"time": 3234, "pitch": 71, "duration": 3, "velocity": 87}, {"time": 3240, "pitch": 70, "duration": 2, "velocity": 85}, {"time": 3246, "pitch": 68, "duration": 3, "velocity": 90}, {"time": 3252, "pitch": 66, "duration": 5, "velocity": 87}, {"time": 3264, "pitch": 71, "duration": 3, "velocity": 93}, {"time": 3270, "pitch": 70, "duration": 3, "velocity": 90}, {"time": 3276, "pitch": 68, "duration": 8, "velocity": 93}, {"time": 3288, "pitch": 70, "duration": 3, "velocity": 87}, {"time": 3294, "pitch": 71, "duration": 3, "velocity": 85}, {"time": 3300, "pitch": 73, "duration": 8, "velocity": 95}, {"time": 3312, "pitch": 71, "duration": 3, "velocity": 87}, {"time": 3318, "pitch": 73, "duration": 3, "velocity": 93}, {"time": 3324, "pitch": 75, "duration": 3, "velocity": 93}, {"time": 3330, "pitch": 76, "duration": 3, "velocity": 102}, {"time": 3336, "pitch": 75, "duration": 3, "velocity": 102}, {"time": 3342, "pitch": 73, "duration": 3, "velocity": 93}, {"time": 3348, "pitch": 71, "duration": 6, "velocity": 93}, {"time": 3360, "pitch": 68, "duration": 3, "velocity": 102}, {"time": 3366, "pitch": 70, "duration": 3, "velocity": 90}, {"time": 3372, "pitch": 71, "duration": 3, "velocity": 93}, {"time": 3378, "pitch": 71, "duration": 3, "velocity": 93}, {"time": 3384, "pitch": 71, "duration": 4, "velocity": 95}, {"time": 3390, "pitch": 70, "duration": 3, "velocity": 87}, {"time": 3396, "pitch": 71, "duration": 2, "velocity": 93}, {"time": 3402, "pitch": 73, "duration": 3, "velocity": 93}, {"time": 3408, "pitch": 75, "duration": 8, "velocity": 102}, {"time": 3420, "pitch": 73, "duration": 14, "velocity": 93}, {"time": 3438, "pitch": 66, "duration": 3, "velocity": 93}, {"time": 3444, "pitch": 71, "duration": 9, "velocity": 87}, {"time": 3456, "pitch": 73, "duration": 9, "velocity": 95}, {"time": 3468, "pitch": 75, "duration": 6, "velocity": 103}, {"time": 3480, "pitch": 71, "duration": 2, "velocity": 90}, {"time": 3486, "pitch": 73, "duration": 3, "velocity": 93}, {"time": 3492, "pitch": 75, "duration": 3, "velocity": 103}, {"time": 3498, "pitch": 76, "duration": 3, "velocity": 103}, {"time": 3504, "pitch": 78, "duration": 5, "velocity": 102}, {"time": 3516, "pitch": 73, "duration": 3, "velocity": 80}, {"time": 3522, "pitch": 66, "duration": 3, "velocity": 87}, {"time": 3528, "pitch": 70, "duration": 2, "velocity": 87}, {"time": 3534, "pitch": 71, "duration": 3, "velocity": 90}, {"time": 3540, "pitch": 73, "duration": 12, "velocity": 93}, {"time": 3564, "pitch": 71, "duration": 3, "velocity": 93}, {"time": 3570, "pitch": 63, "duration": 2, "velocity": 102}, {"time": 3576, "pitch": 68, "duration": 2, "velocity": 102}, {"time": 3582, "pitch": 70, "duration": 3, "velocity": 80}, {"time": 3588, "pitch": 71, "duration": 3, "velocity": 87}, {"time": 3594, "pitch": 73, "duration": 3, "velocity": 90}, {"time": 3600, "pitch": 75, "duration": 7, "velocity": 95}, {"time": 3612, "pitch": 75, "duration": 3, "velocity": 102}, {"time": 3618, "pitch": 76, "duration": 3, "velocity": 87}, {"time": 3624, "pitch": 75, "duration": 2, "velocity": 85}, {"time": 3630, "pitch": 73, "duration": 3, "velocity": 90}, {"time": 3636, "pitch": 71, "duration": 5, "velocity": 87}, {"time": 3648, "pitch": 71, "duration": 3, "velocity": 93}, {"time": 3654, "pitch": 70, "duration": 3, "velocity": 90}, {"time": 3660, "pitch": 68, "duration": 8, "velocity": 93}, {"time": 3672, "pitch": 70, "duration": 3, "velocity": 87}, {"time": 3678, "pitch": 71, "duration": 3, "velocity": 85}, {"time": 3684, "pitch": 73, "duration": 8, "velocity": 95}, {"time": 3696, "pitch": 75, "duration": 3, "velocity": 87}, {"time": 3702, "pitch": 76, "duration": 3, "velocity": 93}, {"time": 3708, "pitch": 78, "duration": 8, "velocity": 93}, {"time": 3720, "pitch": 75, "duration": 3, "velocity": 102}, {"time": 3726, "pitch": 73, "duration": 3, "velocity": 93}, {"time": 3732, "pitch": 71, "duration": 6, "velocity": 93}, {"time": 3744, "pitch": 68, "duration": 3, "velocity": 102}, {"time": 3750, "pitch": 70, "duration": 3, "velocity": 90}, {"time": 3756, "pitch": 71, "duration": 3, "velocity": 93}, {"time": 3762, "pitch": 71, "duration": 3, "velocity": 93}, {"time": 3768, "pitch": 71, "duration": 4, "velocity": 95}, {"time": 3774, "pitch": 70, "duration": 3, "velocity": 87}, {"time": 3780, "pitch": 71, "duration": 2, "velocity": 93}, {"time": 3786, "pitch": 73, "duration": 3, "velocity": 93}, {"time": 3792, "pitch": 75, "duration": 8, "velocity": 102}, {"time": 3804, "pitch": 73, "duration": 14, "velocity": 93}, {"time": 3822, "pitch": 66, "duration": 3, "velocity": 102}, {"time": 3828, "pitch": 71, "duration": 9, "velocity": 87}, {"time": 3840, "pitch": 70, "duration": 4, "velocity": 87}, {"time": 3846, "pitch": 71, "duration": 32, "velocity": 90}]}, {"program": 0, "is_drum": false, "name": "PIANO", "notes": [{"time": 12, "pitch": 40, "duration": 16, "velocity": 85}, {"time": 12, "pitch": 52, "duration": 7, "velocity": 68}, {"time": 12, "pitch": 59, "duration": 12, "velocity": 71}, {"time": 18, "pitch": 47, "duration": 13, "velocity": 64}, {"time": 24, "pitch": 52, "duration": 7, "velocity": 95}, {"time": 30, "pitch": 59, "duration": 4, "velocity": 80}, {"time": 36, "pitch": 42, "duration": 17, "velocity": 87}, {"time": 36, "pitch": 54, "duration": 7, "velocity": 85}, {"time": 36, "pitch": 58, "duration": 11, "velocity": 71}, {"time": 42, "pitch": 49, "duration": 11, "velocity": 60}, {"time": 48, "pitch": 54, "duration": 6, "velocity": 87}, {"time": 59, "pitch": 63, "duration": 5, "velocity": 78}, {"time": 59, "pitch": 71, "duration": 5, "velocity": 79}, {"time": 59, "pitch": 47, "duration": 18, "velocity": 66}, {"time": 59, "pitch": 66, "duration": 5, "velocity": 71}, {"time": 64, "pitch": 54, "duration": 12, "velocity": 54}, {"time": 70, "pitch": 73, "duration": 2, "velocity": 87}, {"time": 70, "pitch": 63, "duration": 1, "velocity": 87}, {"time": 71, "pitch": 66, "duration": 1, "velocity": 72}, {"time": 71, "pitch": 59, "duration": 3, "velocity": 46}, {"time": 76, "pitch": 71, "duration": 15, "velocity": 86}, {"time": 77, "pitch": 63, "duration": 12, "velocity": 88}, {"time": 77, "pitch": 66, "duration": 13, "velocity": 77}, {"time": 83, "pitch": 44, "duration": 12, "velocity": 74}, {"time": 89, "pitch": 71, "duration": 2, "velocity": 90}, {"time": 95, "pitch": 68, "duration": 5, "velocity": 78}, {"time": 108, "pitch": 40, "duration": 16, "velocity": 83}, {"time": 108, "pitch": 52, "duration": 1, "velocity": 65}, {"time": 108, "pitch": 56, "duration": 12, "velocity": 87}, {"time": 114, "pitch": 47, "duration": 13, "velocity": 64}, {"time": 120, "pitch": 52, "duration": 7, "velocity": 102}, {"time": 126, "pitch": 56, "duration": 4, "velocity": 102}, {"time": 132, "pitch": 42, "duration": 16, "velocity": 74}, {"time": 132, "pitch": 54, "duration": 7, "velocity": 74}, {"time": 132, "pitch": 58, "duration": 11, "velocity": 74}, {"time": 138, "pitch": 49, "duration": 11, "velocity": 65}, {"time": 144, "pitch": 54, "duration": 3, "velocity": 95}, {"time": 156, "pitch": 47, "duration": 20, "velocity": 83}, {"time": 156, "pitch": 59, "duration": 6, "velocity": 70}, {"time": 162, "pitch": 54, "duration": 7, "velocity": 72}, {"time": 168, "pitch": 63, "duration": 8, "velocity": 105}, {"time": 174, "pitch": 54, "duration": 3, "velocity": 66}, {"time": 179, "pitch": 44, "duration": 23, "velocity": 71}, {"time": 184, "pitch": 75, "duration": 2, "velocity": 74}, {"time": 185, "pitch": 63, "duration": 1, "velocity": 59}, {"time": 185, "pitch": 51, "duration": 17, "velocity": 56}, {"time": 191, "pitch": 78, "duration": 1, "velocity": 78}, {"time": 191, "pitch": 59, "duration": 18, "velocity": 65}, {"time": 197, "pitch": 78, "duration": 10, "velocity": 95}, {"time": 204, "pitch": 40, "duration": 18, "velocity": 80}, {"time": 204, "pitch": 52, "duration": 7, "velocity": 80}, {"time": 204, "pitch": 59, "duration": 13, "velocity": 70}, {"time": 210, "pitch": 47, "duration": 13, "velocity": 60}, {"time": 216, "pitch": 52, "duration": 7, "velocity": 102}, {"time": 222, "pitch": 56, "duration": 3, "velocity": 93}, {"time": 228, "pitch": 42, "duration": 20, "velocity": 80}, {"time": 228, "pitch": 54, "duration": 7, "velocity": 69}, {"time": 228, "pitch": 58, "duration": 10, "velocity": 80}, {"time": 234, "pitch": 49, "duration": 14, "velocity": 63}, {"time": 240, "pitch": 54, "duration": 7, "velocity": 93}, {"time": 251, "pitch": 66, "duration": 6, "velocity": 83}, {"time": 251, "pitch": 75, "duration": 7, "velocity": 86}, {"time": 251, "pitch": 47, "duration": 37, "velocity": 70}, {"time": 251, "pitch": 71, "duration": 5, "velocity": 75}, {"time": 258, "pitch": 54, "duration": 2, "velocity": 53}, {"time": 262, "pitch": 54, "duration": 26, "velocity": 37}, {"time": 263, "pitch": 76, "duration": 2, "velocity": 81}, {"time": 263, "pitch": 66, "duration": 1, "velocity": 79}, {"time": 263, "pitch": 61, "duration": 7, "velocity": 69}, {"time": 263, "pitch": 71, "duration": 1, "velocity": 74}, {"time": 269, "pitch": 75, "duration": 13, "velocity": 103}, {"time": 269, "pitch": 66, "duration": 8, "velocity": 105}, {"time": 269, "pitch": 71, "duration": 10, "velocity": 93}, {"time": 276, "pitch": 44, "duration": 21, "velocity": 87}, {"time": 281, "pitch": 66, "duration": 2, "velocity": 80}, {"time": 281, "pitch": 76, "duration": 2, "velocity": 86}, {"time": 281, "pitch": 71, "duration": 2, "velocity": 53}, {"time": 286, "pitch": 75, "duration": 3, "velocity": 94}, {"time": 287, "pitch": 66, "duration": 2, "velocity": 81}, {"time": 287, "pitch": 71, "duration": 1, "velocity": 68}, {"time": 300, "pitch": 47, "duration": 11, "velocity": 87}, {"time": 306, "pitch": 56, "duration": 7, "velocity": 85}, {"time": 312, "pitch": 59, "duration": 6, "velocity": 102}, {"time": 318, "pitch": 56, "duration": 2, "velocity": 93}, {"time": 324, "pitch": 42, "duration": 18, "velocity": 74}, {"time": 324, "pitch": 54, "duration": 7, "velocity": 74}, {"time": 324, "pitch": 58, "duration": 12, "velocity": 83}, {"time": 330, "pitch": 49, "duration": 11, "velocity": 60}, {"time": 335, "pitch": 82, "duration": 8, "velocity": 80}, {"time": 335, "pitch": 70, "duration": 7, "velocity": 76}, {"time": 336, "pitch": 54, "duration": 5, "velocity": 90}, {"time": 346, "pitch": 47, "duration": 18, "velocity": 73}, {"time": 347, "pitch": 83, "duration": 17, "velocity": 75}, {"time": 347, "pitch": 71, "duration": 17, "velocity": 61}, {"time": 354, "pitch": 54, "duration": 7, "velocity": 71}, {"time": 360, "pitch": 59, "duration": 6, "velocity": 93}, {"time": 366, "pitch": 54, "duration": 28, "velocity": 93}, {"time": 370, "pitch": 66, "duration": 25, "velocity": 39}, {"time": 371, "pitch": 71, "duration": 24, "velocity": 32}, {"time": 372, "pitch": 59, "duration": 22, "velocity": 87}, {"time": 372, "pitch": 63, "duration": 22, "velocity": 85}, {"time": 372, "pitch": 78, "duration": 24, "velocity": 54}, {"time": 372, "pitch": 75, "duration": 23, "velocity": 41}, {"time": 396, "pitch": 47, "duration": 46, "velocity": 72}, {"time": 396, "pitch": 54, "duration": 4, "velocity": 74}, {"time": 396, "pitch": 59, "duration": 7, "velocity": 70}, {"time": 402, "pitch": 54, "duration": 8, "velocity": 61}, {"time": 408, "pitch": 59, "duration": 3, "velocity": 66}, {"time": 414, "pitch": 54, "duration": 5, "velocity": 72}, {"time": 414, "pitch": 63, "duration": 21, "velocity": 90}, {"time": 426, "pitch": 54, "duration": 7, "velocity": 43}, {"time": 432, "pitch": 59, "duration": 3, "velocity": 71}, {"time": 444, "pitch": 46, "duration": 37, "velocity": 80}, {"time": 444, "pitch": 58, "duration": 3, "velocity": 64}, {"time": 444, "pitch": 61, "duration": 7, "velocity": 70}, {"time": 450, "pitch": 58, "duration": 7, "velocity": 65}, {"time": 456, "pitch": 61, "duration": 7, "velocity": 87}, {"time": 462, "pitch": 66, "duration": 18, "velocity": 87}, {"time": 474, "pitch": 58, "duration": 7, "velocity": 80}, {"time": 480, "pitch": 61, "duration": 1, "velocity": 93}, {"time": 492, "pitch": 40, "duration": 40, "velocity": 72}, {"time": 492, "pitch": 56, "duration": 3, "velocity": 70}, {"time": 492, "pitch": 59, "duration": 7, "velocity": 72}, {"time": 498, "pitch": 56, "duration": 13, "velocity": 70}, {"time": 504, "pitch": 59, "duration": 8, "velocity": 72}, {"time": 510, "pitch": 64, "duration": 16, "velocity": 87}, {"time": 522, "pitch": 59, "duration": 6, "velocity": 95}, {"time": 528, "pitch": 56, "duration": 5, "velocity": 93}, {"time": 540, "pitch": 40, "duration": 20, "velocity": 83}, {"time": 540, "pitch": 52, "duration": 7, "velocity": 83}, {"time": 540, "pitch": 59, "duration": 12, "velocity": 72}, {"time": 546, "pitch": 47, "duration": 15, "velocity": 63}, {"time": 552, "pitch": 52, "duration": 9, "velocity": 103}, {"time": 558, "pitch": 59, "duration": 4, "velocity": 87}, {"time": 564, "pitch": 40, "duration": 7, "velocity": 87}, {"time": 564, "pitch": 52, "duration": 6, "velocity": 80}, {"time": 564, "pitch": 59, "duration": 7, "velocity": 83}, {"time": 576, "pitch": 42, "duration": 8, "velocity": 80}, {"time": 576, "pitch": 54, "duration": 8, "velocity": 69}, {"time": 576, "pitch": 58, "duration": 8, "velocity": 68}, {"time": 588, "pitch": 47, "duration": 42, "velocity": 87}, {"time": 594, "pitch": 54, "duration": 19, "velocity": 105}, {"time": 600, "pitch": 59, "duration": 19, "velocity": 87}, {"time": 606, "pitch": 63, "duration": 19, "velocity": 85}, {"time": 618, "pitch": 54, "duration": 7, "velocity": 80}, {"time": 624, "pitch": 59, "duration": 6, "velocity": 87}, {"time": 630, "pitch": 54, "duration": 6, "velocity": 93}, {"time": 636, "pitch": 46, "duration": 20, "velocity": 74}, {"time": 636, "pitch": 58, "duration": 12, "velocity": 74}, {"time": 648, "pitch": 61, "duration": 7, "velocity": 85}, {"time": 654, "pitch": 66, "duration": 13, "velocity": 93}, {"time": 662, "pitch": 58, "duration": 4, "velocity": 66}, {"time": 672, "pitch": 46, "duration": 7, "velocity": 56}, {"time": 672, "pitch": 58, "duration": 2, "velocity": 70}, {"time": 672, "pitch": 61, "duration": 6, "velocity": 74}, {"time": 678, "pitch": 58, "duration": 2, "velocity": 71}, {"time": 684, "pitch": 40, "duration": 39, "velocity": 74}, {"time": 684, "pitch": 56, "duration": 4, "velocity": 72}, {"time": 684, "pitch": 59, "duration": 13, "velocity": 72}, {"time": 690, "pitch": 47, "duration": 33, "velocity": 60}, {"time": 696, "pitch": 56, "duration": 12, "velocity": 93}, {"time": 702, "pitch": 59, "duration": 13, "velocity": 83}, {"time": 702, "pitch": 64, "duration": 15, "velocity": 87}, {"time": 714, "pitch": 56, "duration": 4, "velocity": 66}, {"time": 720, "pitch": 56, "duration": 3, "velocity": 87}, {"time": 720, "pitch": 59, "duration": 3, "velocity": 87}, {"time": 732, "pitch": 40, "duration": 38, "velocity": 87}, {"time": 732, "pitch": 52, "duration": 7, "velocity": 74}, {"time": 732, "pitch": 59, "duration": 11, "velocity": 74}, {"time": 738, "pitch": 47, "duration": 15, "velocity": 56}, {"time": 744, "pitch": 52, "duration": 2, "velocity": 80}, {"time": 750, "pitch": 52, "duration": 14, "velocity": 93}, {"time": 750, "pitch": 59, "duration": 16, "velocity": 90}, {"time": 762, "pitch": 47, "duration": 12, "velocity": 63}, {"time": 768, "pitch": 52, "duration": 7, "velocity": 110}, {"time": 774, "pitch": 59, "duration": 5, "velocity": 93}, {"time": 780, "pitch": 40, "duration": 19, "velocity": 90}, {"time": 780, "pitch": 52, "duration": 7, "velocity": 87}, {"time": 780, "pitch": 59, "duration": 11, "velocity": 68}, {"time": 786, "pitch": 47, "duration": 14, "velocity": 68}, {"time": 792, "pitch": 52, "duration": 6, "velocity": 103}, {"time": 798, "pitch": 59, "duration": 4, "velocity": 102}, {"time": 804, "pitch": 42, "duration": 13, "velocity": 90}, {"time": 804, "pitch": 54, "duration": 8, "velocity": 74}, {"time": 804, "pitch": 58, "duration": 10, "velocity": 80}, {"time": 810, "pitch": 49, "duration": 7, "velocity": 61}, {"time": 816, "pitch": 54, "duration": 1, "velocity": 105}, {"time": 828, "pitch": 51, "duration": 13, "velocity": 95}, {"time": 828, "pitch": 58, "duration": 2, "velocity": 64}, {"time": 828, "pitch": 63, "duration": 7, "velocity": 85}, {"time": 834, "pitch": 58, "duration": 6, "velocity": 93}, {"time": 840, "pitch": 63, "duration": 5, "velocity": 102}, {"time": 846, "pitch": 58, "duration": 2, "velocity": 102}, {"time": 852, "pitch": 44, "duration": 21, "velocity": 87}, {"time": 852, "pitch": 56, "duration": 8, "velocity": 85}, {"time": 852, "pitch": 59, "duration": 8, "velocity": 93}, {"time": 858, "pitch": 51, "duration": 14, "velocity": 74}, {"time": 864, "pitch": 56, "duration": 3, "velocity": 90}, {"time": 864, "pitch": 59, "duration": 5, "velocity": 95}, {"time": 864, "pitch": 63, "duration": 6, "velocity": 102}, {"time": 870, "pitch": 56, "duration": 3, "velocity": 80}, {"time": 876, "pitch": 49, "duration": 21, "velocity": 93}, {"time": 876, "pitch": 56, "duration": 4, "velocity": 80}, {"time": 876, "pitch": 61, "duration": 8, "velocity": 87}, {"time": 882, "pitch": 56, "duration": 8, "velocity": 80}, {"time": 888, "pitch": 61, "duration": 3, "velocity": 70}, {"time": 894, "pitch": 56, "duration": 4, "velocity": 93}, {"time": 894, "pitch": 64, "duration": 6, "velocity": 93}, {"time": 900, "pitch": 42, "duration": 21, "velocity": 85}, {"time": 906, "pitch": 49, "duration": 15, "velocity": 74}, {"time": 912, "pitch": 54, "duration": 8, "velocity": 103}, {"time": 918, "pitch": 58, "duration": 4, "velocity": 102}, {"time": 924, "pitch": 47, "duration": 38, "velocity": 93}, {"time": 924, "pitch": 54, "duration": 3, "velocity": 85}, {"time": 924, "pitch": 59, "duration": 7, "velocity": 85}, {"time": 930, "pitch": 54, "duration": 9, "velocity": 87}, {"time": 936, "pitch": 59, "duration": 7, "velocity": 80}, {"time": 942, "pitch": 61, "duration": 3, "velocity": 87}, {"time": 948, "pitch": 54, "duration": 2, "velocity": 83}, {"time": 948, "pitch": 63, "duration": 7, "velocity": 95}, {"time": 954, "pitch": 54, "duration": 3, "velocity": 93}, {"time": 960, "pitch": 54, "duration": 2, "velocity": 102}, {"time": 960, "pitch": 59, "duration": 6, "velocity": 95}, {"time": 966, "pitch": 54, "duration": 2, "velocity": 95}, {"time": 972, "pitch": 40, "duration": 20, "velocity": 87}, {"time": 972, "pitch": 52, "duration": 7, "velocity": 80}, {"time": 972, "pitch": 59, "duration": 14, "velocity": 74}, {"time": 978, "pitch": 47, "duration": 15, "velocity": 59}, {"time": 984, "pitch": 52, "duration": 7, "velocity": 102}, {"time": 990, "pitch": 56, "duration": 4, "velocity": 102}, {"time": 996, "pitch": 42, "duration": 14, "velocity": 90}, {"time": 996, "pitch": 54, "duration": 6, "velocity": 80}, {"time": 996, "pitch": 58, "duration": 11, "velocity": 80}, {"time": 1002, "pitch": 49, "duration": 7, "velocity": 61}, {"time": 1008, "pitch": 54, "duration": 2, "velocity": 93}, {"time": 1020, "pitch": 39, "duration": 14, "velocity": 93}, {"time": 1020, "pitch": 58, "duration": 7, "velocity": 74}, {"time": 1020, "pitch": 63, "duration": 12, "velocity": 70}, {"time": 1026, "pitch": 46, "duration": 9, "velocity": 80}, {"time": 1032, "pitch": 58, "duration": 6, "velocity": 95}, {"time": 1038, "pitch": 63, "duration": 3, "velocity": 102}, {"time": 1044, "pitch": 44, "duration": 21, "velocity": 87}, {"time": 1044, "pitch": 56, "duration": 7, "velocity": 71}, {"time": 1044, "pitch": 59, "duration": 12, "velocity": 69}, {"time": 1050, "pitch": 51, "duration": 14, "velocity": 72}, {"time": 1056, "pitch": 56, "duration": 7, "velocity": 93}, {"time": 1062, "pitch": 59, "duration": 3, "velocity": 93}, {"time": 1068, "pitch": 49, "duration": 40, "velocity": 90}, {"time": 1068, "pitch": 56, "duration": 4, "velocity": 83}, {"time": 1068, "pitch": 61, "duration": 7, "velocity": 87}, {"time": 1074, "pitch": 56, "duration": 7, "velocity": 74}, {"time": 1080, "pitch": 61, "duration": 2, "velocity": 45}, {"time": 1086, "pitch": 56, "duration": 5, "velocity": 80}, {"time": 1086, "pitch": 61, "duration": 13, "velocity": 93}, {"time": 1086, "pitch": 65, "duration": 13, "velocity": 87}, {"time": 1098, "pitch": 56, "duration": 2, "velocity": 67}, {"time": 1104, "pitch": 56, "duration": 2, "velocity": 102}, {"time": 1104, "pitch": 61, "duration": 5, "velocity": 95}, {"time": 1110, "pitch": 56, "duration": 2, "velocity": 74}, {"time": 1122, "pitch": 42, "duration": 2, "velocity": 87}, {"time": 1122, "pitch": 49, "duration": 2, "velocity": 68}, {"time": 1122, "pitch": 54, "duration": 3, "velocity": 74}, {"time": 1122, "pitch": 61, "duration": 3, "velocity": 74}, {"time": 1128, "pitch": 42, "duration": 7, "velocity": 102}, {"time": 1128, "pitch": 49, "duration": 7, "velocity": 87}, {"time": 1128, "pitch": 54, "duration": 7, "velocity": 93}, {"time": 1128, "pitch": 61, "duration": 8, "velocity": 90}, {"time": 1140, "pitch": 42, "duration": 2, "velocity": 87}, {"time": 1140, "pitch": 49, "duration": 2, "velocity": 74}, {"time": 1140, "pitch": 54, "duration": 2, "velocity": 74}, {"time": 1140, "pitch": 61, "duration": 2, "velocity": 74}, {"time": 1146, "pitch": 42, "duration": 16, "velocity": 90}, {"time": 1146, "pitch": 49, "duration": 16, "velocity": 80}, {"time": 1146, "pitch": 54, "duration": 16, "velocity": 83}, {"time": 1146, "pitch": 61, "duration": 16, "velocity": 74}, {"time": 1164, "pitch": 47, "duration": 37, "velocity": 74}, {"time": 1164, "pitch": 59, "duration": 7, "velocity": 85}, {"time": 1164, "pitch": 63, "duration": 11, "velocity": 93}, {"time": 1170, "pitch": 54, "duration": 14, "velocity": 72}, {"time": 1176, "pitch": 59, "duration": 2, "velocity": 69}, {"time": 1182, "pitch": 59, "duration": 8, "velocity": 95}, {"time": 1182, "pitch": 66, "duration": 10, "velocity": 90}, {"time": 1188, "pitch": 54, "duration": 15, "velocity": 72}, {"time": 1194, "pitch": 59, "duration": 2, "velocity": 80}, {"time": 1200, "pitch": 59, "duration": 2, "velocity": 102}, {"time": 1200, "pitch": 63, "duration": 2, "velocity": 93}, {"time": 1212, "pitch": 42, "duration": 43, "velocity": 83}, {"time": 1212, "pitch": 58, "duration": 6, "velocity": 74}, {"time": 1212, "pitch": 61, "duration": 12, "velocity": 74}, {"time": 1218, "pitch": 49, "duration": 26, "velocity": 36}, {"time": 1224, "pitch": 58, "duration": 1, "velocity": 72}, {"time": 1230, "pitch": 58, "duration": 2, "velocity": 93}, {"time": 1230, "pitch": 66, "duration": 4, "velocity": 93}, {"time": 1242, "pitch": 58, "duration": 8, "velocity": 90}, {"time": 1242, "pitch": 61, "duration": 8, "velocity": 93}, {"time": 1248, "pitch": 49, "duration": 8, "velocity": 60}, {"time": 1254, "pitch": 58, "duration": 2, "velocity": 93}, {"time": 1260, "pitch": 44, "duration": 40, "velocity": 85}, {"time": 1260, "pitch": 56, "duration": 7, "velocity": 87}, {"time": 1260, "pitch": 59, "duration": 10, "velocity": 87}, {"time": 1266, "pitch": 51, "duration": 16, "velocity": 54}, {"time": 1272, "pitch": 56, "duration": 1, "velocity": 55}, {"time": 1278, "pitch": 56, "duration": 7, "velocity": 93}, {"time": 1278, "pitch": 63, "duration": 8, "velocity": 93}, {"time": 1284, "pitch": 51, "duration": 12, "velocity": 43}, {"time": 1290, "pitch": 56, "duration": 3, "velocity": 93}, {"time": 1290, "pitch": 59, "duration": 7, "velocity": 102}, {"time": 1302, "pitch": 56, "duration": 2, "velocity": 93}, {"time": 1308, "pitch": 42, "duration": 43, "velocity": 85}, {"time": 1308, "pitch": 54, "duration": 7, "velocity": 102}, {"time": 1314, "pitch": 49, "duration": 13, "velocity": 58}, {"time": 1320, "pitch": 54, "duration": 2, "velocity": 74}, {"time": 1326, "pitch": 54, "duration": 6, "velocity": 102}, {"time": 1326, "pitch": 61, "duration": 10, "velocity": 90}, {"time": 1332, "pitch": 49, "duration": 18, "velocity": 69}, {"time": 1338, "pitch": 54, "duration": 3, "velocity": 93}, {"time": 1344, "pitch": 58, "duration": 6, "velocity": 95}, {"time": 1350, "pitch": 59, "duration": 4, "velocity": 103}, {"time": 1356, "pitch": 40, "duration": 43, "velocity": 87}, {"time": 1356, "pitch": 56, "duration": 10, "velocity": 90}, {"time": 1362, "pitch": 47, "duration": 35, "velocity": 60}, {"time": 1368, "pitch": 52, "duration": 3, "velocity": 87}, {"time": 1374, "pitch": 52, "duration": 9, "velocity": 93}, {"time": 1374, "pitch": 59, "duration": 14, "velocity": 80}, {"time": 1386, "pitch": 52, "duration": 2, "velocity": 70}, {"time": 1392, "pitch": 52, "duration": 3, "velocity": 102}, {"time": 1392, "pitch": 56, "duration": 5, "velocity": 105}, {"time": 1398, "pitch": 52, "duration": 2, "velocity": 93}, {"time": 1404, "pitch": 39, "duration": 13, "velocity": 87}, {"time": 1410, "pitch": 46, "duration": 7, "velocity": 71}, {"time": 1416, "pitch": 51, "duration": 2, "velocity": 105}, {"time": 1428, "pitch": 44, "duration": 20, "velocity": 85}, {"time": 1428, "pitch": 56, "duration": 6, "velocity": 83}, {"time": 1428, "pitch": 59, "duration": 6, "velocity": 72}, {"time": 1434, "pitch": 51, "duration": 15, "velocity": 68}, {"time": 1440, "pitch": 56, "duration": 2, "velocity": 93}, {"time": 1440, "pitch": 59, "duration": 3, "velocity": 102}, {"time": 1440, "pitch": 63, "duration": 6, "velocity": 95}, {"time": 1446, "pitch": 56, "duration": 3, "velocity": 87}, {"time": 1452, "pitch": 49, "duration": 40, "velocity": 93}, {"time": 1452, "pitch": 56, "duration": 2, "velocity": 74}, {"time": 1452, "pitch": 61, "duration": 6, "velocity": 80}, {"time": 1458, "pitch": 56, "duration": 7, "velocity": 72}, {"time": 1464, "pitch": 61, "duration": 1, "velocity": 49}, {"time": 1470, "pitch": 56, "duration": 3, "velocity": 93}, {"time": 1470, "pitch": 65, "duration": 4, "velocity": 93}, {"time": 1482, "pitch": 56, "duration": 4, "velocity": 93}, {"time": 1482, "pitch": 61, "duration": 12, "velocity": 102}, {"time": 1500, "pitch": 42, "duration": 47, "velocity": 87}, {"time": 1500, "pitch": 58, "duration": 3, "velocity": 83}, {"time": 1500, "pitch": 61, "duration": 7, "velocity": 87}, {"time": 1506, "pitch": 58, "duration": 2, "velocity": 85}, {"time": 1512, "pitch": 58, "duration": 2, "velocity": 68}, {"time": 1512, "pitch": 61, "duration": 2, "velocity": 80}, {"time": 1512, "pitch": 66, "duration": 2, "velocity": 70}, {"time": 1518, "pitch": 58, "duration": 6, "velocity": 102}, {"time": 1518, "pitch": 61, "duration": 8, "velocity": 110}, {"time": 1518, "pitch": 66, "duration": 8, "velocity": 102}, {"time": 1524, "pitch": 49, "duration": 23, "velocity": 59}, {"time": 1530, "pitch": 58, "duration": 2, "velocity": 72}, {"time": 1536, "pitch": 58, "duration": 3, "velocity": 102}, {"time": 1536, "pitch": 61, "duration": 3, "velocity": 102}, {"time": 1542, "pitch": 64, "duration": 5, "velocity": 87}, {"time": 1548, "pitch": 47, "duration": 37, "velocity": 74}, {"time": 1548, "pitch": 59, "duration": 7, "velocity": 85}, {"time": 1548, "pitch": 63, "duration": 11, "velocity": 93}, {"time": 1554, "pitch": 54, "duration": 14, "velocity": 72}, {"time": 1560, "pitch": 59, "duration": 2, "velocity": 69}, {"time": 1566, "pitch": 59, "duration": 8, "velocity": 95}, {"time": 1566, "pitch": 66, "duration": 10, "velocity": 90}, {"time": 1572, "pitch": 54, "duration": 15, "velocity": 72}, {"time": 1578, "pitch": 59, "duration": 2, "velocity": 80}, {"time": 1584, "pitch": 59, "duration": 2, "velocity": 102}, {"time": 1584, "pitch": 63, "duration": 2, "velocity": 93}, {"time": 1596, "pitch": 42, "duration": 43, "velocity": 83}, {"time": 1596, "pitch": 58, "duration": 6, "velocity": 74}, {"time": 1596, "pitch": 61, "duration": 12, "velocity": 74}, {"time": 1602, "pitch": 49, "duration": 26, "velocity": 36}, {"time": 1608, "pitch": 58, "duration": 1, "velocity": 72}, {"time": 1614, "pitch": 58, "duration": 2, "velocity": 93}, {"time": 1614, "pitch": 66, "duration": 4, "velocity": 93}, {"time": 1626, "pitch": 58, "duration": 8, "velocity": 90}, {"time": 1626, "pitch": 61, "duration": 8, "velocity": 93}, {"time": 1632, "pitch": 49, "duration": 8, "velocity": 60}, {"time": 1638, "pitch": 58, "duration": 2, "velocity": 93}, {"time": 1644, "pitch": 44, "duration": 40, "velocity": 85}, {"time": 1644, "pitch": 56, "duration": 7, "velocity": 87}, {"time": 1644, "pitch": 59, "duration": 10, "velocity": 87}, {"time": 1650, "pitch": 51, "duration": 16, "velocity": 54}, {"time": 1656, "pitch": 56, "duration": 1, "velocity": 55}, {"time": 1662, "pitch": 56, "duration": 7, "velocity": 93}, {"time": 1662, "pitch": 63, "duration": 8, "velocity": 93}, {"time": 1668, "pitch": 51, "duration": 12, "velocity": 43}, {"time": 1674, "pitch": 56, "duration": 3, "velocity": 93}, {"time": 1674, "pitch": 59, "duration": 7, "velocity": 102}, {"time": 1686, "pitch": 56, "duration": 2, "velocity": 93}, {"time": 1692, "pitch": 42, "duration": 21, "velocity": 93}, {"time": 1692, "pitch": 54, "duration": 7, "velocity": 93}, {"time": 1692, "pitch": 57, "duration": 12, "velocity": 85}, {"time": 1698, "pitch": 49, "duration": 14, "velocity": 69}, {"time": 1704, "pitch": 54, "duration": 3, "velocity": 105}, {"time": 1710, "pitch": 57, "duration": 3, "velocity": 83}, {"time": 1716, "pitch": 47, "duration": 18, "velocity": 85}, {"time": 1716, "pitch": 54, "duration": 3, "velocity": 74}, {"time": 1716, "pitch": 59, "duration": 7, "velocity": 85}, {"time": 1722, "pitch": 54, "duration": 3, "velocity": 93}, {"time": 1728, "pitch": 54, "duration": 3, "velocity": 93}, {"time": 1728, "pitch": 57, "duration": 8, "velocity": 95}, {"time": 1728, "pitch": 63, "duration": 9, "velocity": 102}, {"time": 1734, "pitch": 54, "duration": 2, "velocity": 87}, {"time": 1740, "pitch": 40, "duration": 42, "velocity": 87}, {"time": 1740, "pitch": 56, "duration": 7, "velocity": 80}, {"time": 1740, "pitch": 59, "duration": 14, "velocity": 74}, {"time": 1746, "pitch": 47, "duration": 35, "velocity": 61}, {"time": 1752, "pitch": 56, "duration": 2, "velocity": 61}, {"time": 1758, "pitch": 56, "duration": 3, "velocity": 93}, {"time": 1758, "pitch": 64, "duration": 4, "velocity": 90}, {"time": 1770, "pitch": 59, "duration": 3, "velocity": 70}, {"time": 1776, "pitch": 56, "duration": 3, "velocity": 105}, {"time": 1782, "pitch": 56, "duration": 1, "velocity": 53}, {"time": 1782, "pitch": 59, "duration": 1, "velocity": 95}, {"time": 1788, "pitch": 39, "duration": 13, "velocity": 87}, {"time": 1788, "pitch": 51, "duration": 7, "velocity": 69}, {"time": 1788, "pitch": 52, "duration": 1, "velocity": 74}, {"time": 1788, "pitch": 58, "duration": 8, "velocity": 83}, {"time": 1794, "pitch": 46, "duration": 7, "velocity": 68}, {"time": 1800, "pitch": 51, "duration": 2, "velocity": 93}, {"time": 1800, "pitch": 58, "duration": 2, "velocity": 87}, {"time": 1812, "pitch": 44, "duration": 20, "velocity": 87}, {"time": 1812, "pitch": 56, "duration": 6, "velocity": 87}, {"time": 1812, "pitch": 59, "duration": 8, "velocity": 85}, {"time": 1818, "pitch": 51, "duration": 14, "velocity": 87}, {"time": 1824, "pitch": 56, "duration": 7, "velocity": 105}, {"time": 1830, "pitch": 59, "duration": 3, "velocity": 105}, {"time": 1836, "pitch": 49, "duration": 26, "velocity": 74}, {"time": 1836, "pitch": 56, "duration": 3, "velocity": 87}, {"time": 1836, "pitch": 61, "duration": 7, "velocity": 93}, {"time": 1842, "pitch": 56, "duration": 2, "velocity": 83}, {"time": 1848, "pitch": 56, "duration": 2, "velocity": 93}, {"time": 1848, "pitch": 64, "duration": 2, "velocity": 87}, {"time": 1854, "pitch": 56, "duration": 7, "velocity": 93}, {"time": 1854, "pitch": 64, "duration": 13, "velocity": 102}, {"time": 1866, "pitch": 56, "duration": 2, "velocity": 74}, {"time": 1872, "pitch": 56, "duration": 2, "velocity": 95}, {"time": 1872, "pitch": 61, "duration": 5, "velocity": 95}, {"time": 1878, "pitch": 56, "duration": 2, "velocity": 80}, {"time": 1884, "pitch": 42, "duration": 48, "velocity": 74}, {"time": 1884, "pitch": 54, "duration": 14, "velocity": 80}, {"time": 1884, "pitch": 58, "duration": 13, "velocity": 74}, {"time": 1890, "pitch": 49, "duration": 41, "velocity": 68}, {"time": 1896, "pitch": 61, "duration": 3, "velocity": 85}, {"time": 1902, "pitch": 54, "duration": 12, "velocity": 85}, {"time": 1902, "pitch": 66, "duration": 13, "velocity": 80}, {"time": 1914, "pitch": 61, "duration": 4, "velocity": 87}, {"time": 1920, "pitch": 54, "duration": 7, "velocity": 102}, {"time": 1920, "pitch": 61, "duration": 1, "velocity": 49}, {"time": 1926, "pitch": 58, "duration": 3, "velocity": 93}, {"time": 1926, "pitch": 61, "duration": 4, "velocity": 90}, {"time": 1932, "pitch": 40, "duration": 20, "velocity": 95}, {"time": 1938, "pitch": 47, "duration": 15, "velocity": 68}, {"time": 1940, "pitch": 52, "duration": 8, "velocity": 95}, {"time": 1946, "pitch": 56, "duration": 6, "velocity": 93}, {"time": 1952, "pitch": 59, "duration": 3, "velocity": 69}, {"time": 1956, "pitch": 42, "duration": 20, "velocity": 90}, {"time": 1962, "pitch": 49, "duration": 14, "velocity": 58}, {"time": 1964, "pitch": 54, "duration": 4, "velocity": 80}, {"time": 1970, "pitch": 54, "duration": 4, "velocity": 80}, {"time": 1970, "pitch": 58, "duration": 4, "velocity": 90}, {"time": 1980, "pitch": 47, "duration": 20, "velocity": 95}, {"time": 1980, "pitch": 54, "duration": 3, "velocity": 87}, {"time": 1980, "pitch": 59, "duration": 6, "velocity": 87}, {"time": 1986, "pitch": 54, "duration": 2, "velocity": 74}, {"time": 1988, "pitch": 63, "duration": 7, "velocity": 102}, {"time": 1994, "pitch": 54, "duration": 3, "velocity": 85}, {"time": 1998, "pitch": 61, "duration": 4, "velocity": 69}, {"time": 2004, "pitch": 44, "duration": 16, "velocity": 93}, {"time": 2010, "pitch": 51, "duration": 9, "velocity": 72}, {"time": 2016, "pitch": 56, "duration": 2, "velocity": 93}, {"time": 2016, "pitch": 59, "duration": 4, "velocity": 93}, {"time": 2022, "pitch": 56, "duration": 1, "velocity": 87}, {"time": 2028, "pitch": 40, "duration": 19, "velocity": 80}, {"time": 2028, "pitch": 52, "duration": 6, "velocity": 83}, {"time": 2028, "pitch": 59, "duration": 9, "velocity": 53}, {"time": 2034, "pitch": 47, "duration": 14, "velocity": 63}, {"time": 2036, "pitch": 52, "duration": 10, "velocity": 93}, {"time": 2042, "pitch": 56, "duration": 6, "velocity": 102}, {"time": 2048, "pitch": 59, "duration": 3, "velocity": 67}, {"time": 2052, "pitch": 42, "duration": 18, "velocity": 87}, {"time": 2052, "pitch": 54, "duration": 5, "velocity": 63}, {"time": 2052, "pitch": 58, "duration": 6, "velocity": 69}, {"time": 2058, "pitch": 49, "duration": 11, "velocity": 59}, {"time": 2060, "pitch": 54, "duration": 6, "velocity": 87}, {"time": 2066, "pitch": 58, "duration": 3, "velocity": 95}, {"time": 2076, "pitch": 47, "duration": 21, "velocity": 83}, {"time": 2076, "pitch": 54, "duration": 2, "velocity": 74}, {"time": 2076, "pitch": 59, "duration": 6, "velocity": 72}, {"time": 2082, "pitch": 54, "duration": 2, "velocity": 72}, {"time": 2084, "pitch": 63, "duration": 7, "velocity": 105}, {"time": 2090, "pitch": 54, "duration": 3, "velocity": 93}, {"time": 2094, "pitch": 61, "duration": 3, "velocity": 103}, {"time": 2096, "pitch": 54, "duration": 2, "velocity": 71}, {"time": 2100, "pitch": 44, "duration": 25, "velocity": 87}, {"time": 2100, "pitch": 59, "duration": 6, "velocity": 69}, {"time": 2106, "pitch": 51, "duration": 18, "velocity": 68}, {"time": 2108, "pitch": 56, "duration": 4, "velocity": 93}, {"time": 2114, "pitch": 59, "duration": 6, "velocity": 102}, {"time": 2118, "pitch": 56, "duration": 2, "velocity": 87}, {"time": 2124, "pitch": 40, "duration": 20, "velocity": 95}, {"time": 2130, "pitch": 47, "duration": 15, "velocity": 68}, {"time": 2132, "pitch": 52, "duration": 8, "velocity": 95}, {"time": 2138, "pitch": 56, "duration": 6, "velocity": 93}, {"time": 2144, "pitch": 59, "duration": 3, "velocity": 69}, {"time": 2148, "pitch": 42, "duration": 20, "velocity": 90}, {"time": 2154, "pitch": 49, "duration": 14, "velocity": 58}, {"time": 2156, "pitch": 54, "duration": 4, "velocity": 80}, {"time": 2162, "pitch": 54, "duration": 4, "velocity": 80}, {"time": 2162, "pitch": 58, "duration": 4, "velocity": 90}, {"time": 2172, "pitch": 47, "duration": 20, "velocity": 95}, {"time": 2172, "pitch": 54, "duration": 3, "velocity": 87}, {"time": 2172, "pitch": 59, "duration": 6, "velocity": 87}, {"time": 2178, "pitch": 54, "duration": 2, "velocity": 74}, {"time": 2180, "pitch": 63, "duration": 7, "velocity": 102}, {"time": 2186, "pitch": 54, "duration": 3, "velocity": 85}, {"time": 2190, "pitch": 61, "duration": 4, "velocity": 69}, {"time": 2196, "pitch": 44, "duration": 16, "velocity": 93}, {"time": 2202, "pitch": 51, "duration": 9, "velocity": 72}, {"time": 2208, "pitch": 56, "duration": 2, "velocity": 93}, {"time": 2208, "pitch": 59, "duration": 4, "velocity": 93}, {"time": 2214, "pitch": 56, "duration": 1, "velocity": 87}, {"time": 2220, "pitch": 40, "duration": 19, "velocity": 80}, {"time": 2220, "pitch": 52, "duration": 6, "velocity": 83}, {"time": 2220, "pitch": 59, "duration": 9, "velocity": 53}, {"time": 2226, "pitch": 47, "duration": 14, "velocity": 63}, {"time": 2228, "pitch": 52, "duration": 10, "velocity": 93}, {"time": 2234, "pitch": 56, "duration": 6, "velocity": 102}, {"time": 2240, "pitch": 59, "duration": 3, "velocity": 67}, {"time": 2244, "pitch": 42, "duration": 18, "velocity": 87}, {"time": 2244, "pitch": 54, "duration": 5, "velocity": 63}, {"time": 2244, "pitch": 58, "duration": 6, "velocity": 69}, {"time": 2250, "pitch": 49, "duration": 11, "velocity": 59}, {"time": 2252, "pitch": 54, "duration": 6, "velocity": 87}, {"time": 2258, "pitch": 58, "duration": 3, "velocity": 95}, {"time": 2268, "pitch": 47, "duration": 21, "velocity": 83}, {"time": 2268, "pitch": 54, "duration": 2, "velocity": 74}, {"time": 2268, "pitch": 59, "duration": 6, "velocity": 72}, {"time": 2274, "pitch": 54, "duration": 2, "velocity": 72}, {"time": 2276, "pitch": 63, "duration": 7, "velocity": 105}, {"time": 2282, "pitch": 54, "duration": 3, "velocity": 93}, {"time": 2286, "pitch": 61, "duration": 3, "velocity": 103}, {"time": 2288, "pitch": 54, "duration": 2, "velocity": 71}, {"time": 2292, "pitch": 44, "duration": 25, "velocity": 87}, {"time": 2292, "pitch": 59, "duration": 6, "velocity": 69}, {"time": 2298, "pitch": 51, "duration": 18, "velocity": 68}, {"time": 2300, "pitch": 56, "duration": 4, "velocity": 93}, {"time": 2306, "pitch": 59, "duration": 6, "velocity": 102}, {"time": 2310, "pitch": 56, "duration": 2, "velocity": 87}, {"time": 2316, "pitch": 40, "duration": 16, "velocity": 85}, {"time": 2316, "pitch": 52, "duration": 7, "velocity": 68}, {"time": 2316, "pitch": 59, "duration": 12, "velocity": 71}, {"time": 2322, "pitch": 47, "duration": 13, "velocity": 64}, {"time": 2328, "pitch": 52, "duration": 7, "velocity": 95}, {"time": 2334, "pitch": 59, "duration": 4, "velocity": 80}, {"time": 2340, "pitch": 42, "duration": 17, "velocity": 87}, {"time": 2340, "pitch": 54, "duration": 7, "velocity": 85}, {"time": 2340, "pitch": 58, "duration": 11, "velocity": 71}, {"time": 2346, "pitch": 49, "duration": 11, "velocity": 60}, {"time": 2352, "pitch": 54, "duration": 6, "velocity": 87}, {"time": 2364, "pitch": 47, "duration": 19, "velocity": 80}, {"time": 2364, "pitch": 59, "duration": 8, "velocity": 87}, {"time": 2370, "pitch": 51, "duration": 15, "velocity": 60}, {"time": 2370, "pitch": 54, "duration": 5, "velocity": 87}, {"time": 2376, "pitch": 58, "duration": 6, "velocity": 93}, {"time": 2382, "pitch": 54, "duration": 2, "velocity": 80}, {"time": 2388, "pitch": 44, "duration": 15, "velocity": 85}, {"time": 2388, "pitch": 56, "duration": 6, "velocity": 72}, {"time": 2388, "pitch": 59, "duration": 13, "velocity": 68}, {"time": 2394, "pitch": 51, "duration": 8, "velocity": 66}, {"time": 2400, "pitch": 56, "duration": 7, "velocity": 87}, {"time": 2406, "pitch": 59, "duration": 3, "velocity": 71}, {"time": 2412, "pitch": 40, "duration": 16, "velocity": 83}, {"time": 2412, "pitch": 52, "duration": 1, "velocity": 65}, {"time": 2412, "pitch": 56, "duration": 12, "velocity": 87}, {"time": 2418, "pitch": 47, "duration": 13, "velocity": 64}, {"time": 2424, "pitch": 52, "duration": 7, "velocity": 102}, {"time": 2430, "pitch": 56, "duration": 4, "velocity": 102}, {"time": 2436, "pitch": 42, "duration": 16, "velocity": 74}, {"time": 2436, "pitch": 54, "duration": 7, "velocity": 74}, {"time": 2436, "pitch": 58, "duration": 11, "velocity": 74}, {"time": 2442, "pitch": 49, "duration": 11, "velocity": 65}, {"time": 2448, "pitch": 54, "duration": 3, "velocity": 95}, {"time": 2460, "pitch": 47, "duration": 20, "velocity": 83}, {"time": 2460, "pitch": 59, "duration": 6, "velocity": 70}, {"time": 2466, "pitch": 54, "duration": 7, "velocity": 72}, {"time": 2472, "pitch": 63, "duration": 8, "velocity": 105}, {"time": 2478, "pitch": 54, "duration": 3, "velocity": 66}, {"time": 2484, "pitch": 44, "duration": 13, "velocity": 87}, {"time": 2484, "pitch": 56, "duration": 6, "velocity": 74}, {"time": 2484, "pitch": 59, "duration": 11, "velocity": 68}, {"time": 2490, "pitch": 51, "duration": 7, "velocity": 65}, {"time": 2496, "pitch": 56, "duration": 2, "velocity": 87}, {"time": 2508, "pitch": 40, "duration": 18, "velocity": 80}, {"time": 2508, "pitch": 52, "duration": 7, "velocity": 80}, {"time": 2508, "pitch": 59, "duration": 13, "velocity": 70}, {"time": 2514, "pitch": 47, "duration": 13, "velocity": 60}, {"time": 2520, "pitch": 52, "duration": 7, "velocity": 102}, {"time": 2526, "pitch": 56, "duration": 3, "velocity": 93}, {"time": 2532, "pitch": 42, "duration": 20, "velocity": 80}, {"time": 2532, "pitch": 54, "duration": 7, "velocity": 69}, {"time": 2532, "pitch": 58, "duration": 10, "velocity": 80}, {"time": 2538, "pitch": 49, "duration": 14, "velocity": 63}, {"time": 2544, "pitch": 54, "duration": 7, "velocity": 93}, {"time": 2556, "pitch": 47, "duration": 20, "velocity": 66}, {"time": 2556, "pitch": 54, "duration": 6, "velocity": 72}, {"time": 2556, "pitch": 59, "duration": 12, "velocity": 72}, {"time": 2562, "pitch": 51, "duration": 16, "velocity": 63}, {"time": 2568, "pitch": 54, "duration": 7, "velocity": 87}, {"time": 2574, "pitch": 59, "duration": 17, "velocity": 93}, {"time": 2580, "pitch": 44, "duration": 21, "velocity": 87}, {"time": 2586, "pitch": 51, "duration": 15, "velocity": 72}, {"time": 2592, "pitch": 56, "duration": 7, "velocity": 90}, {"time": 2598, "pitch": 59, "duration": 12, "velocity": 90}, {"time": 2604, "pitch": 47, "duration": 11, "velocity": 87}, {"time": 2610, "pitch": 56, "duration": 7, "velocity": 85}, {"time": 2616, "pitch": 59, "duration": 6, "velocity": 102}, {"time": 2622, "pitch": 56, "duration": 2, "velocity": 93}, {"time": 2628, "pitch": 42, "duration": 18, "velocity": 74}, {"time": 2628, "pitch": 54, "duration": 7, "velocity": 74}, {"time": 2628, "pitch": 58, "duration": 12, "velocity": 83}, {"time": 2634, "pitch": 49, "duration": 11, "velocity": 60}, {"time": 2640, "pitch": 54, "duration": 5, "velocity": 90}, {"time": 2652, "pitch": 47, "duration": 10, "velocity": 95}, {"time": 2658, "pitch": 54, "duration": 7, "velocity": 71}, {"time": 2664, "pitch": 59, "duration": 6, "velocity": 93}, {"time": 2670, "pitch": 54, "duration": 28, "velocity": 93}, {"time": 2676, "pitch": 59, "duration": 22, "velocity": 87}, {"time": 2676, "pitch": 63, "duration": 22, "velocity": 85}, {"time": 2700, "pitch": 40, "duration": 19, "velocity": 90}, {"time": 2700, "pitch": 52, "duration": 7, "velocity": 87}, {"time": 2700, "pitch": 59, "duration": 11, "velocity": 68}, {"time": 2706, "pitch": 47, "duration": 14, "velocity": 68}, {"time": 2712, "pitch": 52, "duration": 6, "velocity": 103}, {"time": 2718, "pitch": 59, "duration": 4, "velocity": 102}, {"time": 2724, "pitch": 42, "duration": 13, "velocity": 90}, {"time": 2724, "pitch": 54, "duration": 8, "velocity": 74}, {"time": 2724, "pitch": 58, "duration": 10, "velocity": 80}, {"time": 2730, "pitch": 49, "duration": 7, "velocity": 61}, {"time": 2736, "pitch": 54, "duration": 1, "velocity": 105}, {"time": 2748, "pitch": 51, "duration": 13, "velocity": 95}, {"time": 2748, "pitch": 58, "duration": 2, "velocity": 64}, {"time": 2748, "pitch": 63, "duration": 7, "velocity": 85}, {"time": 2754, "pitch": 58, "duration": 6, "velocity": 93}, {"time": 2760, "pitch": 63, "duration": 5, "velocity": 102}, {"time": 2766, "pitch": 58, "duration": 2, "velocity": 102}, {"time": 2772, "pitch": 44, "duration": 21, "velocity": 87}, {"time": 2772, "pitch": 56, "duration": 8, "velocity": 85}, {"time": 2772, "pitch": 59, "duration": 8, "velocity": 93}, {"time": 2778, "pitch": 51, "duration": 14, "velocity": 74}, {"time": 2784, "pitch": 56, "duration": 3, "velocity": 90}, {"time": 2784, "pitch": 59, "duration": 5, "velocity": 95}, {"time": 2784, "pitch": 63, "duration": 6, "velocity": 102}, {"time": 2790, "pitch": 56, "duration": 3, "velocity": 80}, {"time": 2796, "pitch": 49, "duration": 21, "velocity": 93}, {"time": 2796, "pitch": 56, "duration": 4, "velocity": 80}, {"time": 2796, "pitch": 61, "duration": 8, "velocity": 87}, {"time": 2802, "pitch": 56, "duration": 8, "velocity": 80}, {"time": 2808, "pitch": 61, "duration": 3, "velocity": 70}, {"time": 2814, "pitch": 56, "duration": 4, "velocity": 93}, {"time": 2814, "pitch": 64, "duration": 6, "velocity": 93}, {"time": 2820, "pitch": 42, "duration": 21, "velocity": 85}, {"time": 2826, "pitch": 49, "duration": 15, "velocity": 74}, {"time": 2832, "pitch": 54, "duration": 8, "velocity": 103}, {"time": 2838, "pitch": 58, "duration": 4, "velocity": 102}, {"time": 2844, "pitch": 47, "duration": 38, "velocity": 93}, {"time": 2844, "pitch": 54, "duration": 3, "velocity": 85}, {"time": 2844, "pitch": 59, "duration": 7, "velocity": 85}, {"time": 2850, "pitch": 54, "duration": 9, "velocity": 87}, {"time": 2856, "pitch": 59, "duration": 7, "velocity": 80}, {"time": 2862, "pitch": 61, "duration": 3, "velocity": 87}, {"time": 2868, "pitch": 54, "duration": 2, "velocity": 83}, {"time": 2868, "pitch": 63, "duration": 7, "velocity": 95}, {"time": 2874, "pitch": 54, "duration": 3, "velocity": 93}, {"time": 2880, "pitch": 54, "duration": 2, "velocity": 102}, {"time": 2880, "pitch": 59, "duration": 6, "velocity": 95}, {"time": 2886, "pitch": 54, "duration": 2, "velocity": 95}, {"time": 2892, "pitch": 40, "duration": 20, "velocity": 87}, {"time": 2892, "pitch": 52, "duration": 7, "velocity": 80}, {"time": 2892, "pitch": 59, "duration": 14, "velocity": 74}, {"time": 2898, "pitch": 47, "duration": 15, "velocity": 59}, {"time": 2904, "pitch": 52, "duration": 7, "velocity": 102}, {"time": 2910, "pitch": 56, "duration": 4, "velocity": 102}, {"time": 2916, "pitch": 42, "duration": 14, "velocity": 90}, {"time": 2916, "pitch": 54, "duration": 6, "velocity": 80}, {"time": 2916, "pitch": 58, "duration": 11, "velocity": 80}, {"time": 2922, "pitch": 49, "duration": 7, "velocity": 61}, {"time": 2928, "pitch": 54, "duration": 2, "velocity": 93}, {"time": 2940, "pitch": 39, "duration": 14, "velocity": 93}, {"time": 2940, "pitch": 58, "duration": 7, "velocity": 74}, {"time": 2940, "pitch": 63, "duration": 12, "velocity": 70}, {"time": 2946, "pitch": 46, "duration": 9, "velocity": 80}, {"time": 2952, "pitch": 58, "duration": 6, "velocity": 95}, {"time": 2958, "pitch": 63, "duration": 3, "velocity": 102}, {"time": 2964, "pitch": 44, "duration": 21, "velocity": 87}, {"time": 2964, "pitch": 56, "duration": 7, "velocity": 71}, {"time": 2964, "pitch": 59, "duration": 12, "velocity": 69}, {"time": 2970, "pitch": 51, "duration": 14, "velocity": 72}, {"time": 2976, "pitch": 56, "duration": 7, "velocity": 93}, {"time": 2982, "pitch": 59, "duration": 3, "velocity": 93}, {"time": 2988, "pitch": 49, "duration": 40, "velocity": 90}, {"time": 2988, "pitch": 56, "duration": 4, "velocity": 83}, {"time": 2988, "pitch": 61, "duration": 7, "velocity": 87}, {"time": 2994, "pitch": 56, "duration": 7, "velocity": 74}, {"time": 3000, "pitch": 61, "duration": 2, "velocity": 45}, {"time": 3006, "pitch": 56, "duration": 5, "velocity": 80}, {"time": 3006, "pitch": 61, "duration": 13, "velocity": 93}, {"time": 3006, "pitch": 65, "duration": 13, "velocity": 87}, {"time": 3018, "pitch": 56, "duration": 2, "velocity": 67}, {"time": 3024, "pitch": 56, "duration": 2, "velocity": 102}, {"time": 3024, "pitch": 61, "duration": 5, "velocity": 95}, {"time": 3030, "pitch": 56, "duration": 2, "velocity": 74}, {"time": 3042, "pitch": 42, "duration": 2, "velocity": 87}, {"time": 3042, "pitch": 49, "duration": 2, "velocity": 68}, {"time": 3042, "pitch": 54, "duration": 3, "velocity": 74}, {"time": 3042, "pitch": 61, "duration": 3, "velocity": 74}, {"time": 3048, "pitch": 42, "duration": 7, "velocity": 102}, {"time": 3048, "pitch": 49, "duration": 7, "velocity": 87}, {"time": 3048, "pitch": 54, "duration": 7, "velocity": 93}, {"time": 3048, "pitch": 61, "duration": 8, "velocity": 90}, {"time": 3060, "pitch": 42, "duration": 2, "velocity": 87}, {"time": 3060, "pitch": 49, "duration": 2, "velocity": 74}, {"time": 3060, "pitch": 54, "duration": 2, "velocity": 74}, {"time": 3060, "pitch": 61, "duration": 2, "velocity": 74}, {"time": 3066, "pitch": 42, "duration": 16, "velocity": 90}, {"time": 3066, "pitch": 49, "duration": 16, "velocity": 80}, {"time": 3066, "pitch": 54, "duration": 16, "velocity": 83}, {"time": 3066, "pitch": 61, "duration": 16, "velocity": 74}, {"time": 3084, "pitch": 47, "duration": 37, "velocity": 74}, {"time": 3084, "pitch": 59, "duration": 7, "velocity": 85}, {"time": 3084, "pitch": 63, "duration": 11, "velocity": 93}, {"time": 3090, "pitch": 54, "duration": 14, "velocity": 72}, {"time": 3096, "pitch": 59, "duration": 2, "velocity": 69}, {"time": 3102, "pitch": 59, "duration": 8, "velocity": 95}, {"time": 3102, "pitch": 66, "duration": 10, "velocity": 90}, {"time": 3108, "pitch": 54, "duration": 15, "velocity": 72}, {"time": 3114, "pitch": 59, "duration": 2, "velocity": 80}, {"time": 3120, "pitch": 59, "duration": 2, "velocity": 102}, {"time": 3120, "pitch": 63, "duration": 2, "velocity": 93}, {"time": 3132, "pitch": 42, "duration": 43, "velocity": 83}, {"time": 3132, "pitch": 58, "duration": 6, "velocity": 74}, {"time": 3132, "pitch": 61, "duration": 12, "velocity": 74}, {"time": 3138, "pitch": 49, "duration": 26, "velocity": 36}, {"time": 3144, "pitch": 58, "duration": 1, "velocity": 72}, {"time": 3150, "pitch": 58, "duration": 2, "velocity": 93}, {"time": 3150, "pitch": 66, "duration": 4, "velocity": 93}, {"time": 3162, "pitch": 58, "duration": 8, "velocity": 90}, {"time": 3162, "pitch": 61, "duration": 8, "velocity": 93}, {"time": 3168, "pitch": 49, "duration": 8, "velocity": 60}, {"time": 3174, "pitch": 58, "duration": 2, "velocity": 93}, {"time": 3180, "pitch": 44, "duration": 40, "velocity": 85}, {"time": 3180, "pitch": 56, "duration": 7, "velocity": 87}, {"time": 3180, "pitch": 59, "duration": 10, "velocity": 87}, {"time": 3186, "pitch": 51, "duration": 16, "velocity": 54}, {"time": 3192, "pitch": 56, "duration": 1, "velocity": 55}, {"time": 3198, "pitch": 56, "duration": 7, "velocity": 93}, {"time": 3198, "pitch": 63, "duration": 8, "velocity": 93}, {"time": 3204, "pitch": 51, "duration": 12, "velocity": 43}, {"time": 3210, "pitch": 56, "duration": 3, "velocity": 93}, {"time": 3210, "pitch": 59, "duration": 7, "velocity": 102}, {"time": 3222, "pitch": 56, "duration": 2, "velocity": 93}, {"time": 3228, "pitch": 42, "duration": 43, "velocity": 85}, {"time": 3228, "pitch": 54, "duration": 7, "velocity": 102}, {"time": 3234, "pitch": 49, "duration": 13, "velocity": 58}, {"time": 3240, "pitch": 54, "duration": 2, "velocity": 74}, {"time": 3246, "pitch": 54, "duration": 6, "velocity": 102}, {"time": 3246, "pitch": 61, "duration": 10, "velocity": 90}, {"time": 3252, "pitch": 49, "duration": 18, "velocity": 69}, {"time": 3258, "pitch": 54, "duration": 3, "velocity": 93}, {"time": 3264, "pitch": 58, "duration": 6, "velocity": 95}, {"time": 3270, "pitch": 59, "duration": 4, "velocity": 103}, {"time": 3276, "pitch": 40, "duration": 43, "velocity": 87}, {"time": 3276, "pitch": 56, "duration": 10, "velocity": 90}, {"time": 3282, "pitch": 47, "duration": 35, "velocity": 60}, {"time": 3288, "pitch": 52, "duration": 3, "velocity": 87}, {"time": 3294, "pitch": 52, "duration": 9, "velocity": 93}, {"time": 3294, "pitch": 59, "duration": 14, "velocity": 80}, {"time": 3306, "pitch": 52, "duration": 2, "velocity": 70}, {"time": 3312, "pitch": 52, "duration": 3, "velocity": 102}, {"time": 3312, "pitch": 56, "duration": 5, "velocity": 105}, {"time": 3318, "pitch": 52, "duration": 2, "velocity": 93}, {"time": 3324, "pitch": 39, "duration": 13, "velocity": 87}, {"time": 3330, "pitch": 46, "duration": 7, "velocity": 71}, {"time": 3336, "pitch": 51, "duration": 2, "velocity": 105}, {"time": 3348, "pitch": 44, "duration": 20, "velocity": 85}, {"time": 3348, "pitch": 56, "duration": 6, "velocity": 83}, {"time": 3348, "pitch": 59, "duration": 6, "velocity": 72}, {"time": 3354, "pitch": 51, "duration": 15, "velocity": 68}, {"time": 3360, "pitch": 56, "duration": 2, "velocity": 93}, {"time": 3360, "pitch": 59, "duration": 3, "velocity": 102}, {"time": 3360, "pitch": 63, "duration": 6, "velocity": 95}, {"time": 3366, "pitch": 56, "duration": 3, "velocity": 87}, {"time": 3372, "pitch": 49, "duration": 40, "velocity": 93}, {"time": 3372, "pitch": 56, "duration": 2, "velocity": 74}, {"time": 3372, "pitch": 61, "duration": 6, "velocity": 80}, {"time": 3378, "pitch": 56, "duration": 7, "velocity": 72}, {"time": 3384, "pitch": 61, "duration": 1, "velocity": 49}, {"time": 3390, "pitch": 56, "duration": 3, "velocity": 93}, {"time": 3390, "pitch": 65, "duration": 4, "velocity": 93}, {"time": 3402, "pitch": 56, "duration": 4, "velocity": 93}, {"time": 3402, "pitch": 61, "duration": 12, "velocity": 102}, {"time": 3420, "pitch": 42, "duration": 47, "velocity": 87}, {"time": 3420, "pitch": 58, "duration": 3, "velocity": 83}, {"time": 3420, "pitch": 61, "duration": 7, "velocity": 87}, {"time": 3426, "pitch": 58, "duration": 2, "velocity": 85}, {"time": 3432, "pitch": 58, "duration": 2, "velocity": 68}, {"time": 3432, "pitch": 61, "duration": 2, "velocity": 80}, {"time": 3432, "pitch": 66, "duration": 2, "velocity": 70}, {"time": 3438, "pitch": 58, "duration": 6, "velocity": 102}, {"time": 3438, "pitch": 61, "duration": 8, "velocity": 110}, {"time": 3438, "pitch": 66, "duration": 8, "velocity": 102}, {"time": 3444, "pitch": 49, "duration": 23, "velocity": 59}, {"time": 3450, "pitch": 58, "duration": 2, "velocity": 72}, {"time": 3456, "pitch": 58, "duration": 3, "velocity": 102}, {"time": 3456, "pitch": 61, "duration": 3, "velocity": 102}, {"time": 3462, "pitch": 64, "duration": 5, "velocity": 87}, {"time": 3468, "pitch": 47, "duration": 37, "velocity": 74}, {"time": 3468, "pitch": 59, "duration": 7, "velocity": 85}, {"time": 3468, "pitch": 63, "duration": 11, "velocity": 93}, {"time": 3474, "pitch": 54, "duration": 14, "velocity": 72}, {"time": 3480, "pitch": 59, "duration": 2, "velocity": 69}, {"time": 3486, "pitch": 59, "duration": 8, "velocity": 95}, {"time": 3486, "pitch": 66, "duration": 10, "velocity": 90}, {"time": 3492, "pitch": 54, "duration": 15, "velocity": 72}, {"time": 3498, "pitch": 59, "duration": 2, "velocity": 80}, {"time": 3504, "pitch": 59, "duration": 2, "velocity": 102}, {"time": 3504, "pitch": 63, "duration": 2, "velocity": 93}, {"time": 3516, "pitch": 42, "duration": 43, "velocity": 83}, {"time": 3516, "pitch": 58, "duration": 6, "velocity": 74}, {"time": 3516, "pitch": 61, "duration": 12, "velocity": 74}, {"time": 3522, "pitch": 49, "duration": 26, "velocity": 36}, {"time": 3528, "pitch": 58, "duration": 1, "velocity": 72}, {"time": 3534, "pitch": 58, "duration": 2, "velocity": 93}, {"time": 3534, "pitch": 66, "duration": 4, "velocity": 93}, {"time": 3546, "pitch": 58, "duration": 8, "velocity": 90}, {"time": 3546, "pitch": 61, "duration": 8, "velocity": 93}, {"time": 3552, "pitch": 49, "duration": 8, "velocity": 60}, {"time": 3558, "pitch": 58, "duration": 2, "velocity": 93}, {"time": 3564, "pitch": 44, "duration": 40, "velocity": 85}, {"time": 3564, "pitch": 56, "duration": 7, "velocity": 87}, {"time": 3564, "pitch": 59, "duration": 10, "velocity": 87}, {"time": 3570, "pitch": 51, "duration": 16, "velocity": 54}, {"time": 3576, "pitch": 56, "duration": 1, "velocity": 55}, {"time": 3582, "pitch": 56, "duration": 7, "velocity": 93}, {"time": 3582, "pitch": 63, "duration": 8, "velocity": 93}, {"time": 3588, "pitch": 51, "duration": 12, "velocity": 43}, {"time": 3594, "pitch": 56, "duration": 3, "velocity": 93}, {"time": 3594, "pitch": 59, "duration": 7, "velocity": 102}, {"time": 3606, "pitch": 56, "duration": 2, "velocity": 93}, {"time": 3612, "pitch": 42, "duration": 21, "velocity": 93}, {"time": 3612, "pitch": 54, "duration": 7, "velocity": 93}, {"time": 3612, "pitch": 57, "duration": 12, "velocity": 85}, {"time": 3618, "pitch": 49, "duration": 14, "velocity": 69}, {"time": 3624, "pitch": 54, "duration": 3, "velocity": 105}, {"time": 3630, "pitch": 57, "duration": 3, "velocity": 83}, {"time": 3636, "pitch": 47, "duration": 18, "velocity": 85}, {"time": 3636, "pitch": 54, "duration": 3, "velocity": 74}, {"time": 3636, "pitch": 59, "duration": 7, "velocity": 85}, {"time": 3642, "pitch": 54, "duration": 3, "velocity": 93}, {"time": 3648, "pitch": 54, "duration": 3, "velocity": 93}, {"time": 3648, "pitch": 57, "duration": 8, "velocity": 95}, {"time": 3648, "pitch": 63, "duration": 9, "velocity": 102}, {"time": 3654, "pitch": 54, "duration": 2, "velocity": 87}, {"time": 3660, "pitch": 40, "duration": 42, "velocity": 87}, {"time": 3660, "pitch": 56, "duration": 7, "velocity": 80}, {"time": 3660, "pitch": 59, "duration": 14, "velocity": 74}, {"time": 3666, "pitch": 47, "duration": 35, "velocity": 61}, {"time": 3672, "pitch": 56, "duration": 2, "velocity": 61}, {"time": 3678, "pitch": 56, "duration": 3, "velocity": 93}, {"time": 3678, "pitch": 64, "duration": 4, "velocity": 90}, {"time": 3690, "pitch": 59, "duration": 3, "velocity": 70}, {"time": 3696, "pitch": 56, "duration": 3, "velocity": 105}, {"time": 3702, "pitch": 56, "duration": 1, "velocity": 53}, {"time": 3702, "pitch": 59, "duration": 1, "velocity": 95}, {"time": 3708, "pitch": 39, "duration": 13, "velocity": 87}, {"time": 3708, "pitch": 51, "duration": 7, "velocity": 69}, {"time": 3708, "pitch": 52, "duration": 1, "velocity": 74}, {"time": 3708, "pitch": 58, "duration": 8, "velocity": 83}, {"time": 3714, "pitch": 46, "duration": 7, "velocity": 68}, {"time": 3720, "pitch": 51, "duration": 2, "velocity": 93}, {"time": 3720, "pitch": 58, "duration": 2, "velocity": 87}, {"time": 3732, "pitch": 44, "duration": 20, "velocity": 87}, {"time": 3732, "pitch": 56, "duration": 6, "velocity": 87}, {"time": 3732, "pitch": 59, "duration": 8, "velocity": 85}, {"time": 3738, "pitch": 51, "duration": 14, "velocity": 87}, {"time": 3744, "pitch": 56, "duration": 7, "velocity": 105}, {"time": 3750, "pitch": 59, "duration": 3, "velocity": 105}, {"time": 3756, "pitch": 49, "duration": 26, "velocity": 74}, {"time": 3756, "pitch": 56, "duration": 3, "velocity": 87}, {"time": 3756, "pitch": 61, "duration": 7, "velocity": 93}, {"time": 3762, "pitch": 56, "duration": 2, "velocity": 83}, {"time": 3768, "pitch": 56, "duration": 2, "velocity": 93}, {"time": 3768, "pitch": 64, "duration": 2, "velocity": 87}, {"time": 3774, "pitch": 56, "duration": 7, "velocity": 93}, {"time": 3774, "pitch": 64, "duration": 13, "velocity": 102}, {"time": 3786, "pitch": 56, "duration": 2, "velocity": 74}, {"time": 3792, "pitch": 56, "duration": 2, "velocity": 95}, {"time": 3792, "pitch": 61, "duration": 5, "velocity": 95}, {"time": 3798, "pitch": 56, "duration": 2, "velocity": 80}, {"time": 3804, "pitch": 42, "duration": 48, "velocity": 74}, {"time": 3804, "pitch": 54, "duration": 14, "velocity": 80}, {"time": 3804, "pitch": 58, "duration": 13, "velocity": 74}, {"time": 3810, "pitch": 49, "duration": 41, "velocity": 68}, {"time": 3816, "pitch": 61, "duration": 3, "velocity": 85}, {"time": 3822, "pitch": 54, "duration": 12, "velocity": 85}, {"time": 3822, "pitch": 66, "duration": 13, "velocity": 80}, {"time": 3834, "pitch": 61, "duration": 4, "velocity": 87}, {"time": 3840, "pitch": 54, "duration": 7, "velocity": 102}, {"time": 3840, "pitch": 61, "duration": 1, "velocity": 49}, {"time": 3846, "pitch": 58, "duration": 3, "velocity": 93}, {"time": 3846, "pitch": 61, "duration": 4, "velocity": 90}, {"time": 3852, "pitch": 47, "duration": 37, "velocity": 74}, {"time": 3852, "pitch": 59, "duration": 7, "velocity": 85}, {"time": 3852, "pitch": 63, "duration": 11, "velocity": 93}, {"time": 3858, "pitch": 54, "duration": 14, "velocity": 72}, {"time": 3864, "pitch": 59, "duration": 2, "velocity": 69}, {"time": 3870, "pitch": 59, "duration": 8, "velocity": 95}, {"time": 3870, "pitch": 66, "duration": 10, "velocity": 90}, {"time": 3876, "pitch": 54, "duration": 15, "velocity": 72}, {"time": 3882, "pitch": 59, "duration": 2, "velocity": 80}, {"time": 3888, "pitch": 59, "duration": 2, "velocity": 102}, {"time": 3888, "pitch": 63, "duration": 2, "velocity": 93}, {"time": 3900, "pitch": 42, "duration": 43, "velocity": 83}, {"time": 3900, "pitch": 58, "duration": 6, "velocity": 74}, {"time": 3900, "pitch": 61, "duration": 12, "velocity": 74}, {"time": 3906, "pitch": 49, "duration": 26, "velocity": 36}, {"time": 3912, "pitch": 58, "duration": 1, "velocity": 72}, {"time": 3918, "pitch": 58, "duration": 2, "velocity": 93}, {"time": 3918, "pitch": 66, "duration": 4, "velocity": 93}, {"time": 3930, "pitch": 58, "duration": 8, "velocity": 90}, {"time": 3930, "pitch": 61, "duration": 8, "velocity": 93}, {"time": 3936, "pitch": 49, "duration": 8, "velocity": 60}, {"time": 3942, "pitch": 58, "duration": 2, "velocity": 93}, {"time": 3948, "pitch": 44, "duration": 40, "velocity": 85}, {"time": 3948, "pitch": 56, "duration": 7, "velocity": 87}, {"time": 3948, "pitch": 59, "duration": 10, "velocity": 87}, {"time": 3954, "pitch": 51, "duration": 16, "velocity": 54}, {"time": 3960, "pitch": 56, "duration": 1, "velocity": 55}, {"time": 3966, "pitch": 56, "duration": 7, "velocity": 93}, {"time": 3966, "pitch": 63, "duration": 8, "velocity": 93}, {"time": 3972, "pitch": 51, "duration": 12, "velocity": 43}, {"time": 3978, "pitch": 56, "duration": 3, "velocity": 93}, {"time": 3978, "pitch": 59, "duration": 7, "velocity": 102}, {"time": 3990, "pitch": 56, "duration": 2, "velocity": 93}, {"time": 3996, "pitch": 42, "duration": 21, "velocity": 93}, {"time": 3996, "pitch": 54, "duration": 7, "velocity": 93}, {"time": 3996, "pitch": 57, "duration": 12, "velocity": 85}, {"time": 4002, "pitch": 49, "duration": 14, "velocity": 69}, {"time": 4008, "pitch": 54, "duration": 3, "velocity": 105}, {"time": 4014, "pitch": 57, "duration": 3, "velocity": 83}, {"time": 4020, "pitch": 47, "duration": 18, "velocity": 85}, {"time": 4020, "pitch": 54, "duration": 3, "velocity": 74}, {"time": 4020, "pitch": 59, "duration": 7, "velocity": 85}, {"time": 4026, "pitch": 54, "duration": 3, "velocity": 93}, {"time": 4032, "pitch": 54, "duration": 3, "velocity": 93}, {"time": 4032, "pitch": 57, "duration": 8, "velocity": 95}, {"time": 4032, "pitch": 63, "duration": 9, "velocity": 102}, {"time": 4038, "pitch": 54, "duration": 2, "velocity": 87}, {"time": 4044, "pitch": 40, "duration": 42, "velocity": 87}, {"time": 4044, "pitch": 56, "duration": 7, "velocity": 80}, {"time": 4044, "pitch": 59, "duration": 14, "velocity": 74}, {"time": 4050, "pitch": 47, "duration": 35, "velocity": 61}, {"time": 4056, "pitch": 56, "duration": 2, "velocity": 61}, {"time": 4062, "pitch": 56, "duration": 3, "velocity": 93}, {"time": 4062, "pitch": 64, "duration": 4, "velocity": 90}, {"time": 4074, "pitch": 59, "duration": 3, "velocity": 70}, {"time": 4080, "pitch": 56, "duration": 3, "velocity": 105}, {"time": 4086, "pitch": 56, "duration": 1, "velocity": 53}, {"time": 4086, "pitch": 59, "duration": 1, "velocity": 95}, {"time": 4092, "pitch": 39, "duration": 13, "velocity": 87}, {"time": 4092, "pitch": 51, "duration": 7, "velocity": 69}, {"time": 4092, "pitch": 52, "duration": 1, "velocity": 74}, {"time": 4092, "pitch": 58, "duration": 8, "velocity": 83}, {"time": 4098, "pitch": 46, "duration": 7, "velocity": 68}, {"time": 4104, "pitch": 51, "duration": 2, "velocity": 93}, {"time": 4104, "pitch": 58, "duration": 2, "velocity": 87}, {"time": 4116, "pitch": 44, "duration": 20, "velocity": 87}, {"time": 4116, "pitch": 56, "duration": 6, "velocity": 87}, {"time": 4116, "pitch": 59, "duration": 8, "velocity": 85}, {"time": 4122, "pitch": 51, "duration": 14, "velocity": 87}, {"time": 4128, "pitch": 56, "duration": 7, "velocity": 105}, {"time": 4134, "pitch": 59, "duration": 3, "velocity": 105}, {"time": 4140, "pitch": 49, "duration": 26, "velocity": 74}, {"time": 4140, "pitch": 56, "duration": 3, "velocity": 87}, {"time": 4140, "pitch": 61, "duration": 7, "velocity": 93}, {"time": 4146, "pitch": 56, "duration": 2, "velocity": 83}, {"time": 4152, "pitch": 56, "duration": 2, "velocity": 93}, {"time": 4152, "pitch": 64, "duration": 2, "velocity": 87}, {"time": 4158, "pitch": 56, "duration": 7, "velocity": 93}, {"time": 4158, "pitch": 64, "duration": 13, "velocity": 102}, {"time": 4170, "pitch": 56, "duration": 2, "velocity": 74}, {"time": 4176, "pitch": 56, "duration": 2, "velocity": 95}, {"time": 4176, "pitch": 61, "duration": 5, "velocity": 95}, {"time": 4182, "pitch": 56, "duration": 2, "velocity": 80}, {"time": 4188, "pitch": 42, "duration": 48, "velocity": 74}, {"time": 4188, "pitch": 54, "duration": 14, "velocity": 80}, {"time": 4188, "pitch": 58, "duration": 13, "velocity": 74}, {"time": 4194, "pitch": 49, "duration": 41, "velocity": 68}, {"time": 4200, "pitch": 61, "duration": 3, "velocity": 85}, {"time": 4206, "pitch": 54, "duration": 12, "velocity": 85}, {"time": 4206, "pitch": 66, "duration": 13, "velocity": 80}, {"time": 4218, "pitch": 61, "duration": 4, "velocity": 87}, {"time": 4224, "pitch": 54, "duration": 7, "velocity": 102}, {"time": 4224, "pitch": 61, "duration": 1, "velocity": 49}, {"time": 4230, "pitch": 58, "duration": 3, "velocity": 93}, {"time": 4230, "pitch": 61, "duration": 4, "velocity": 90}, {"time": 4234, "pitch": 35, "duration": 170, "velocity": 74}, {"time": 4234, "pitch": 61, "duration": 3, "velocity": 68}, {"time": 4235, "pitch": 54, "duration": 40, "velocity": 58}, {"time": 4235, "pitch": 63, "duration": 2, "velocity": 71}, {"time": 4236, "pitch": 59, "duration": 40, "velocity": 69}, {"time": 4237, "pitch": 64, "duration": 26, "velocity": 68}, {"time": 4260, "pitch": 71, "duration": 19, "velocity": 68}, {"time": 4275, "pitch": 73, "duration": 129, "velocity": 47}], "annotations": [{"time": 16, "annotation": {"number": 64, "value": 127}, "group": "control_change"}, {"time": 35, "annotation": {"number": 64, "value": 0}, "group": "control_change"}, {"time": 39, "annotation": {"number": 64, "value": 127}, "group": "control_change"}, {"time": 57, "annotation": {"number": 64, "value": 0}, "group": "control_change"}, {"time": 60, "annotation": {"number": 64, "value": 127}, "group": "control_change"}, {"time": 82, "annotation": {"number": 64, "value": 0}, "group": "control_change"}, {"time": 86, "annotation": {"number": 64, "value": 127}, "group": "control_change"}, {"time": 109, "annotation": {"number": 64, "value": 0}, "group": "control_change"}, {"time": 113, "annotation": {"number": 64, "value": 127}, "group": "control_change"}, {"time": 130, "annotation": {"number": 64, "value": 0}, "group": "control_change"}, {"time": 134, "annotation": {"number": 64, "value": 127}, "group": "control_change"}, {"time": 154, "annotation": {"number": 64, "value": 0}, "group": "control_change"}, {"time": 156, "annotation": {"number": 64, "value": 127}, "group": "control_change"}, {"time": 179, "annotation": {"number": 64, "value": 0}, "group": "control_change"}, {"time": 182, "annotation": {"number": 64, "value": 127}, "group": "control_change"}, {"time": 201, "annotation": {"number": 64, "value": 0}, "group": "control_change"}, {"time": 210, "annotation": {"number": 64, "value": 127}, "group": "control_change"}, {"time": 226, "annotation": {"number": 64, "value": 0}, "group": "control_change"}, {"time": 234, "annotation": {"number": 64, "value": 127}, "group": "control_change"}, {"time": 248, "annotation": {"number": 64, "value": 0}, "group": "control_change"}, {"time": 257, "annotation": {"number": 64, "value": 127}, "group": "control_change"}, {"time": 274, "annotation": {"number": 64, "value": 0}, "group": "control_change"}, {"time": 281, "annotation": {"number": 64, "value": 127}, "group": "control_change"}, {"time": 299, "annotation": {"number": 64, "value": 0}, "group": "control_change"}, {"time": 302, "annotation": {"number": 64, "value": 127}, "group": "control_change"}, {"time": 322, "annotation": {"number": 64, "value": 0}, "group": "control_change"}, {"time": 326, "annotation": {"number": 64, "value": 127}, "group": "control_change"}, {"time": 345, "annotation": {"number": 64, "value": 0}, "group": "control_change"}, {"time": 351, "annotation": {"number": 64, "value": 127}, "group": "control_change"}, {"time": 400, "annotation": {"number": 64, "value": 127}, "group": "control_change"}, {"time": 443, "annotation": {"number": 64, "value": 0}, "group": "control_change"}, {"time": 445, "annotation": {"number": 64, "value": 127}, "group": "control_change"}, {"time": 493, "annotation": {"number": 64, "value": 0}, "group": "control_change"}, {"time": 495, "annotation": {"number": 64, "value": 127}, "group": "control_change"}, {"time": 542, "annotation": {"number": 64, "value": 127}, "group": "control_change"}, {"time": 563, "annotation": {"number": 64, "value": 0}, "group": "control_change"}, {"time": 566, "annotation": {"number": 64, "value": 127}, "group": "control_change"}, {"time": 586, "annotation": {"number": 64, "value": 0}, "group": "control_change"}, {"time": 589, "annotation": {"number": 64, "value": 127}, "group": "control_change"}, {"time": 606, "annotation": {"number": 64, "value": 0}, "group": "control_change"}, {"time": 613, "annotation": {"number": 64, "value": 127}, "group": "control_change"}, {"time": 635, "annotation": {"number": 64, "value": 0}, "group": "control_change"}, {"time": 637, "annotation": {"number": 64, "value": 127}, "group": "control_change"}, {"time": 684, "annotation": {"number": 64, "value": 0}, "group": "control_change"}, {"time": 686, "annotation": {"number": 64, "value": 127}, "group": "control_change"}, {"time": 731, "annotation": {"number": 64, "value": 0}, "group": "control_change"}, {"time": 733, "annotation": {"number": 64, "value": 127}, "group": "control_change"}, {"time": 777, "annotation": {"number": 64, "value": 0}, "group": "control_change"}, {"time": 781, "annotation": {"number": 64, "value": 127}, "group": "control_change"}, {"time": 802, "annotation": {"number": 64, "value": 0}, "group": "control_change"}, {"time": 806, "annotation": {"number": 64, "value": 127}, "group": "control_change"}, {"time": 828, "annotation": {"number": 64, "value": 0}, "group": "control_change"}, {"time": 830, "annotation": {"number": 64, "value": 127}, "group": "control_change"}, {"time": 853, "annotation": {"number": 64, "value": 0}, "group": "control_change"}, {"time": 856, "annotation": {"number": 64, "value": 127}, "group": "control_change"}, {"time": 874, "annotation": {"number": 64, "value": 0}, "group": "control_change"}, {"time": 882, "annotation": {"number": 64, "value": 127}, "group": "control_change"}, {"time": 903, "annotation": {"number": 64, "value": 0}, "group": "control_change"}, {"time": 905, "annotation": {"number": 64, "value": 127}, "group": "control_change"}, {"time": 922, "annotation": {"number": 64, "value": 0}, "group": "control_change"}, {"time": 924, "annotation": {"number": 64, "value": 127}, "group": "control_change"}, {"time": 970, "annotation": {"number": 64, "value": 0}, "group": "control_change"}, {"time": 975, "annotation": {"number": 64, "value": 127}, "group": "control_change"}, {"time": 995, "annotation": {"number": 64, "value": 0}, "group": "control_change"}, {"time": 997, "annotation": {"number": 64, "value": 127}, "group": "control_change"}, {"time": 1021, "annotation": {"number": 64, "value": 0}, "group": "control_change"}, {"time": 1022, "annotation": {"number": 64, "value": 127}, "group": "control_change"}, {"time": 1043, "annotation": {"number": 64, "value": 0}, "group": "control_change"}, {"time": 1047, "annotation": {"number": 64, "value": 127}, "group": "control_change"}, {"time": 1066, "annotation": {"number": 64, "value": 0}, "group": "control_change"}, {"time": 1069, "annotation": {"number": 64, "value": 127}, "group": "control_change"}, {"time": 1116, "annotation": {"number": 64, "value": 127}, "group": "control_change"}, {"time": 1122, "annotation": {"number": 64, "value": 0}, "group": "control_change"}, {"time": 1166, "annotation": {"number": 64, "value": 127}, "group": "control_change"}, {"time": 1212, "annotation": {"number": 64, "value": 0}, "group": "control_change"}, {"time": 1214, "annotation": {"number": 64, "value": 127}, "group": "control_change"}, {"time": 1259, "annotation": {"number": 64, "value": 0}, "group": "control_change"}, {"time": 1262, "annotation": {"number": 64, "value": 127}, "group": "control_change"}, {"time": 1307, "annotation": {"number": 64, "value": 0}, "group": "control_change"}, {"time": 1311, "annotation": {"number": 64, "value": 127}, "group": "control_change"}, {"time": 1355, "annotation": {"number": 64, "value": 0}, "group": "control_change"}, {"time": 1359, "annotation": {"number": 64, "value": 127}, "group": "control_change"}, {"time": 1403, "annotation": {"number": 64, "value": 0}, "group": "control_change"}, {"time": 1405, "annotation": {"number": 64, "value": 127}, "group": "control_change"}, {"time": 1427, "annotation": {"number": 64, "value": 0}, "group": "control_change"}, {"time": 1428, "annotation": {"number": 64, "value": 127}, "group": "control_change"}, {"time": 1451, "annotation": {"number": 64, "value": 0}, "group": "control_change"}, {"time": 1453, "annotation": {"number": 64, "value": 127}, "group": "control_change"}, {"time": 1498, "annotation": {"number": 64, "value": 0}, "group": "control_change"}, {"time": 1500, "annotation": {"number": 64, "value": 127}, "group": "control_change"}, {"time": 1546, "annotation": {"number": 64, "value": 0}, "group": "control_change"}, {"time": 1550, "annotation": {"number": 64, "value": 127}, "group": "control_change"}, {"time": 1596, "annotation": {"number": 64, "value": 0}, "group": "control_change"}, {"time": 1598, "annotation": {"number": 64, "value": 127}, "group": "control_change"}, {"time": 1643, "annotation": {"number": 64, "value": 0}, "group": "control_change"}, {"time": 1646, "annotation": {"number": 64, "value": 127}, "group": "control_change"}, {"time": 1691, "annotation": {"number": 64, "value": 0}, "group": "control_change"}, {"time": 1714, "annotation": {"number": 64, "value": 0}, "group": "control_change"}, {"time": 1716, "annotation": {"number": 64, "value": 127}, "group": "control_change"}, {"time": 1740, "annotation": {"number": 64, "value": 0}, "group": "control_change"}, {"time": 1741, "annotation": {"number": 64, "value": 127}, "group": "control_change"}, {"time": 1788, "annotation": {"number": 64, "value": 0}, "group": "control_change"}, {"time": 1790, "annotation": {"number": 64, "value": 127}, "group": "control_change"}, {"time": 1813, "annotation": {"number": 64, "value": 0}, "group": "control_change"}, {"time": 1815, "annotation": {"number": 64, "value": 127}, "group": "control_change"}, {"time": 1834, "annotation": {"number": 64, "value": 0}, "group": "control_change"}, {"time": 1836, "annotation": {"number": 64, "value": 127}, "group": "control_change"}, {"time": 1883, "annotation": {"number": 64, "value": 0}, "group": "control_change"}, {"time": 1886, "annotation": {"number": 64, "value": 127}, "group": "control_change"}, {"time": 1931, "annotation": {"number": 64, "value": 0}, "group": "control_change"}, {"time": 1932, "annotation": {"number": 64, "value": 127}, "group": "control_change"}, {"time": 1953, "annotation": {"number": 64, "value": 0}, "group": "control_change"}, {"time": 1955, "annotation": {"number": 64, "value": 127}, "group": "control_change"}, {"time": 1977, "annotation": {"number": 64, "value": 0}, "group": "control_change"}, {"time": 1980, "annotation": {"number": 64, "value": 127}, "group": "control_change"}, {"time": 2001, "annotation": {"number": 64, "value": 0}, "group": "control_change"}, {"time": 2004, "annotation": {"number": 64, "value": 127}, "group": "control_change"}, {"time": 2027, "annotation": {"number": 64, "value": 0}, "group": "control_change"}, {"time": 2029, "annotation": {"number": 64, "value": 127}, "group": "control_change"}, {"time": 2049, "annotation": {"number": 64, "value": 0}, "group": "control_change"}, {"time": 2052, "annotation": {"number": 64, "value": 127}, "group": "control_change"}, {"time": 2073, "annotation": {"number": 64, "value": 0}, "group": "control_change"}, {"time": 2076, "annotation": {"number": 64, "value": 127}, "group": "control_change"}, {"time": 2097, "annotation": {"number": 64, "value": 0}, "group": "control_change"}, {"time": 2100, "annotation": {"number": 64, "value": 127}, "group": "control_change"}, {"time": 2120, "annotation": {"number": 64, "value": 0}, "group": "control_change"}, {"time": 2124, "annotation": {"number": 64, "value": 127}, "group": "control_change"}, {"time": 2145, "annotation": {"number": 64, "value": 0}, "group": "control_change"}, {"time": 2147, "annotation": {"number": 64, "value": 127}, "group": "control_change"}, {"time": 2169, "annotation": {"number": 64, "value": 0}, "group": "control_change"}, {"time": 2172, "annotation": {"number": 64, "value": 127}, "group": "control_change"}, {"time": 2193, "annotation": {"number": 64, "value": 0}, "group": "control_change"}, {"time": 2196, "annotation": {"number": 64, "value": 127}, "group": "control_change"}, {"time": 2219, "annotation": {"number": 64, "value": 0}, "group": "control_change"}, {"time": 2221, "annotation": {"number": 64, "value": 127}, "group": "control_change"}, {"time": 2241, "annotation": {"number": 64, "value": 0}, "group": "control_change"}, {"time": 2244, "annotation": {"number": 64, "value": 127}, "group": "control_change"}, {"time": 2265, "annotation": {"number": 64, "value": 0}, "group": "control_change"}, {"time": 2268, "annotation": {"number": 64, "value": 127}, "group": "control_change"}, {"time": 2289, "annotation": {"number": 64, "value": 0}, "group": "control_change"}, {"time": 2292, "annotation": {"number": 64, "value": 127}, "group": "control_change"}, {"time": 2312, "annotation": {"number": 64, "value": 0}, "group": "control_change"}, {"time": 2320, "annotation": {"number": 64, "value": 127}, "group": "control_change"}, {"time": 2339, "annotation": {"number": 64, "value": 0}, "group": "control_change"}, {"time": 2343, "annotation": {"number": 64, "value": 127}, "group": "control_change"}, {"time": 2361, "annotation": {"number": 64, "value": 0}, "group": "control_change"}, {"time": 2364, "annotation": {"number": 64, "value": 127}, "group": "control_change"}, {"time": 2386, "annotation": {"number": 64, "value": 0}, "group": "control_change"}, {"time": 2390, "annotation": {"number": 64, "value": 127}, "group": "control_change"}, {"time": 2413, "annotation": {"number": 64, "value": 0}, "group": "control_change"}, {"time": 2417, "annotation": {"number": 64, "value": 127}, "group": "control_change"}, {"time": 2434, "annotation": {"number": 64, "value": 0}, "group": "control_change"}, {"time": 2438, "annotation": {"number": 64, "value": 127}, "group": "control_change"}, {"time": 2458, "annotation": {"number": 64, "value": 0}, "group": "control_change"}, {"time": 2460, "annotation": {"number": 64, "value": 127}, "group": "control_change"}, {"time": 2483, "annotation": {"number": 64, "value": 0}, "group": "control_change"}, {"time": 2486, "annotation": {"number": 64, "value": 127}, "group": "control_change"}, {"time": 2505, "annotation": {"number": 64, "value": 0}, "group": "control_change"}, {"time": 2514, "annotation": {"number": 64, "value": 127}, "group": "control_change"}, {"time": 2530, "annotation": {"number": 64, "value": 0}, "group": "control_change"}, {"time": 2538, "annotation": {"number": 64, "value": 127}, "group": "control_change"}, {"time": 2552, "annotation": {"number": 64, "value": 0}, "group": "control_change"}, {"time": 2561, "annotation": {"number": 64, "value": 127}, "group": "control_change"}, {"time": 2578, "annotation": {"number": 64, "value": 0}, "group": "control_change"}, {"time": 2585, "annotation": {"number": 64, "value": 127}, "group": "control_change"}, {"time": 2603, "annotation": {"number": 64, "value": 0}, "group": "control_change"}, {"time": 2606, "annotation": {"number": 64, "value": 127}, "group": "control_change"}, {"time": 2626, "annotation": {"number": 64, "value": 0}, "group": "control_change"}, {"time": 2630, "annotation": {"number": 64, "value": 127}, "group": "control_change"}, {"time": 2649, "annotation": {"number": 64, "value": 0}, "group": "control_change"}, {"time": 2655, "annotation": {"number": 64, "value": 127}, "group": "control_change"}, {"time": 2701, "annotation": {"number": 64, "value": 127}, "group": "control_change"}, {"time": 2722, "annotation": {"number": 64, "value": 0}, "group": "control_change"}, {"time": 2726, "annotation": {"number": 64, "value": 127}, "group": "control_change"}, {"time": 2748, "annotation": {"number": 64, "value": 0}, "group": "control_change"}, {"time": 2750, "annotation": {"number": 64, "value": 127}, "group": "control_change"}, {"time": 2773, "annotation": {"number": 64, "value": 0}, "group": "control_change"}, {"time": 2776, "annotation": {"number": 64, "value": 127}, "group": "control_change"}, {"time": 2794, "annotation": {"number": 64, "value": 0}, "group": "control_change"}, {"time": 2802, "annotation": {"number": 64, "value": 127}, "group": "control_change"}, {"time": 2823, "annotation": {"number": 64, "value": 0}, "group": "control_change"}, {"time": 2825, "annotation": {"number": 64, "value": 127}, "group": "control_change"}, {"time": 2842, "annotation": {"number": 64, "value": 0}, "group": "control_change"}, {"time": 2844, "annotation": {"number": 64, "value": 127}, "group": "control_change"}, {"time": 2890, "annotation": {"number": 64, "value": 0}, "group": "control_change"}, {"time": 2895, "annotation": {"number": 64, "value": 127}, "group": "control_change"}, {"time": 2915, "annotation": {"number": 64, "value": 0}, "group": "control_change"}, {"time": 2917, "annotation": {"number": 64, "value": 127}, "group": "control_change"}, {"time": 2941, "annotation": {"number": 64, "value": 0}, "group": "control_change"}, {"time": 2942, "annotation": {"number": 64, "value": 127}, "group": "control_change"}, {"time": 2963, "annotation": {"number": 64, "value": 0}, "group": "control_change"}, {"time": 2967, "annotation": {"number": 64, "value": 127}, "group": "control_change"}, {"time": 2986, "annotation": {"number": 64, "value": 0}, "group": "control_change"}, {"time": 2989, "annotation": {"number": 64, "value": 127}, "group": "control_change"}, {"time": 3036, "annotation": {"number": 64, "value": 127}, "group": "control_change"}, {"time": 3042, "annotation": {"number": 64, "value": 0}, "group": "control_change"}, {"time": 3086, "annotation": {"number": 64, "value": 127}, "group": "control_change"}, {"time": 3132, "annotation": {"number": 64, "value": 0}, "group": "control_change"}, {"time": 3134, "annotation": {"number": 64, "value": 127}, "group": "control_change"}, {"time": 3179, "annotation": {"number": 64, "value": 0}, "group": "control_change"}, {"time": 3182, "annotation": {"number": 64, "value": 127}, "group": "control_change"}, {"time": 3227, "annotation": {"number": 64, "value": 0}, "group": "control_change"}, {"time": 3231, "annotation": {"number": 64, "value": 127}, "group": "control_change"}, {"time": 3275, "annotation": {"number": 64, "value": 0}, "group": "control_change"}, {"time": 3279, "annotation": {"number": 64, "value": 127}, "group": "control_change"}, {"time": 3323, "annotation": {"number": 64, "value": 0}, "group": "control_change"}, {"time": 3325, "annotation": {"number": 64, "value": 127}, "group": "control_change"}, {"time": 3347, "annotation": {"number": 64, "value": 0}, "group": "control_change"}, {"time": 3348, "annotation": {"number": 64, "value": 127}, "group": "control_change"}, {"time": 3371, "annotation": {"number": 64, "value": 0}, "group": "control_change"}, {"time": 3373, "annotation": {"number": 64, "value": 127}, "group": "control_change"}, {"time": 3418, "annotation": {"number": 64, "value": 0}, "group": "control_change"}, {"time": 3420, "annotation": {"number": 64, "value": 127}, "group": "control_change"}, {"time": 3466, "annotation": {"number": 64, "value": 0}, "group": "control_change"}, {"time": 3470, "annotation": {"number": 64, "value": 127}, "group": "control_change"}, {"time": 3516, "annotation": {"number": 64, "value": 0}, "group": "control_change"}, {"time": 3518, "annotation": {"number": 64, "value": 127}, "group": "control_change"}, {"time": 3563, "annotation": {"number": 64, "value": 0}, "group": "control_change"}, {"time": 3566, "annotation": {"number": 64, "value": 127}, "group": "control_change"}, {"time": 3611, "annotation": {"number": 64, "value": 0}, "group": "control_change"}, {"time": 3634, "annotation": {"number": 64, "value": 0}, "group": "control_change"}, {"time": 3636, "annotation": {"number": 64, "value": 127}, "group": "control_change"}, {"time": 3660, "annotation": {"number": 64, "value": 0}, "group": "control_change"}, {"time": 3661, "annotation": {"number": 64, "value": 127}, "group": "control_change"}, {"time": 3708, "annotation": {"number": 64, "value": 0}, "group": "control_change"}, {"time": 3710, "annotation": {"number": 64, "value": 127}, "group": "control_change"}, {"time": 3733, "annotation": {"number": 64, "value": 0}, "group": "control_change"}, {"time": 3735, "annotation": {"number": 64, "value": 127}, "group": "control_change"}, {"time": 3754, "annotation": {"number": 64, "value": 0}, "group": "control_change"}, {"time": 3756, "annotation": {"number": 64, "value": 127}, "group": "control_change"}, {"time": 3803, "annotation": {"number": 64, "value": 0}, "group": "control_change"}, {"time": 3806, "annotation": {"number": 64, "value": 127}, "group": "control_change"}, {"time": 3851, "annotation": {"number": 64, "value": 0}, "group": "control_change"}, {"time": 3854, "annotation": {"number": 64, "value": 127}, "group": "control_change"}, {"time": 3900, "annotation": {"number": 64, "value": 0}, "group": "control_change"}, {"time": 3902, "annotation": {"number": 64, "value": 127}, "group": "control_change"}, {"time": 3947, "annotation": {"number": 64, "value": 0}, "group": "control_change"}, {"time": 3950, "annotation": {"number": 64, "value": 127}, "group": "control_change"}, {"time": 3995, "annotation": {"number": 64, "value": 0}, "group": "control_change"}, {"time": 4018, "annotation": {"number": 64, "value": 0}, "group": "control_change"}, {"time": 4020, "annotation": {"number": 64, "value": 127}, "group": "control_change"}, {"time": 4044, "annotation": {"number": 64, "value": 0}, "group": "control_change"}, {"time": 4045, "annotation": {"number": 64, "value": 127}, "group": "control_change"}, {"time": 4092, "annotation": {"number": 64, "value": 0}, "group": "control_change"}, {"time": 4094, "annotation": {"number": 64, "value": 127}, "group": "control_change"}, {"time": 4117, "annotation": {"number": 64, "value": 0}, "group": "control_change"}, {"time": 4119, "annotation": {"number": 64, "value": 127}, "group": "control_change"}, {"time": 4138, "annotation": {"number": 64, "value": 0}, "group": "control_change"}, {"time": 4140, "annotation": {"number": 64, "value": 127}, "group": "control_change"}, {"time": 4187, "annotation": {"number": 64, "value": 0}, "group": "control_change"}, {"time": 4190, "annotation": {"number": 64, "value": 127}, "group": "control_change"}, {"time": 4233, "annotation": {"number": 64, "value": 0}, "group": "control_change"}, {"time": 4240, "annotation": {"number": 64, "value": 127}, "group": "control_change"}, {"time": 4404, "annotation": {"number": 64, "value": 0}, "group": "control_change"}]}]}