{"metadata": {"schema_version": "0.2", "title": "None", "source_filename": "553.mid", "source_format": "midi"}, "resolution": 12, "tempos": [{"time": 0, "qpm": 74.000074000074}], "time_signatures": [{"time": 0, "numerator": 1, "denominator": 4}], "tracks": [{"program": 4, "is_drum": false, "name": "MELODY", "notes": [{"time": 427, "pitch": 66, "duration": 9, "velocity": 80}, {"time": 436, "pitch": 64, "duration": 2, "velocity": 80}, {"time": 439, "pitch": 62, "duration": 6, "velocity": 77}, {"time": 445, "pitch": 57, "duration": 5, "velocity": 78}, {"time": 451, "pitch": 62, "duration": 4, "velocity": 78}, {"time": 457, "pitch": 66, "duration": 5, "velocity": 67}, {"time": 463, "pitch": 64, "duration": 11, "velocity": 77}, {"time": 475, "pitch": 66, "duration": 7, "velocity": 80}, {"time": 484, "pitch": 64, "duration": 2, "velocity": 68}, {"time": 487, "pitch": 62, "duration": 4, "velocity": 78}, {"time": 493, "pitch": 54, "duration": 5, "velocity": 78}, {"time": 499, "pitch": 59, "duration": 5, "velocity": 72}, {"time": 505, "pitch": 62, "duration": 5, "velocity": 63}, {"time": 511, "pitch": 61, "duration": 10, "velocity": 77}, {"time": 523, "pitch": 62, "duration": 5, "velocity": 76}, {"time": 529, "pitch": 61, "duration": 3, "velocity": 80}, {"time": 532, "pitch": 59, "duration": 13, "velocity": 74}, {"time": 547, "pitch": 61, "duration": 5, "velocity": 77}, {"time": 553, "pitch": 59, "duration": 2, "velocity": 76}, {"time": 556, "pitch": 57, "duration": 15, "velocity": 74}, {"time": 577, "pitch": 62, "duration": 2, "velocity": 77}, {"time": 580, "pitch": 62, "duration": 2, "velocity": 72}, {"time": 583, "pitch": 67, "duration": 5, "velocity": 70}, {"time": 589, "pitch": 66, "duration": 7, "velocity": 78}, {"time": 595, "pitch": 64, "duration": 6, "velocity": 77}, {"time": 601, "pitch": 62, "duration": 2, "velocity": 77}, {"time": 604, "pitch": 66, "duration": 3, "velocity": 77}, {"time": 607, "pitch": 64, "duration": 10, "velocity": 81}, {"time": 619, "pitch": 66, "duration": 9, "velocity": 80}, {"time": 628, "pitch": 64, "duration": 2, "velocity": 80}, {"time": 631, "pitch": 62, "duration": 6, "velocity": 77}, {"time": 637, "pitch": 57, "duration": 5, "velocity": 78}, {"time": 643, "pitch": 62, "duration": 4, "velocity": 78}, {"time": 649, "pitch": 66, "duration": 5, "velocity": 67}, {"time": 655, "pitch": 64, "duration": 11, "velocity": 77}, {"time": 667, "pitch": 66, "duration": 7, "velocity": 80}, {"time": 676, "pitch": 64, "duration": 2, "velocity": 68}, {"time": 679, "pitch": 62, "duration": 4, "velocity": 78}, {"time": 685, "pitch": 54, "duration": 5, "velocity": 78}, {"time": 691, "pitch": 59, "duration": 5, "velocity": 72}, {"time": 697, "pitch": 62, "duration": 5, "velocity": 63}, {"time": 703, "pitch": 61, "duration": 10, "velocity": 77}, {"time": 715, "pitch": 62, "duration": 5, "velocity": 76}, {"time": 721, "pitch": 61, "duration": 3, "velocity": 80}, {"time": 724, "pitch": 59, "duration": 13, "velocity": 74}, {"time": 739, "pitch": 61, "duration": 5, "velocity": 77}, {"time": 745, "pitch": 59, "duration": 2, "velocity": 76}, {"time": 748, "pitch": 57, "duration": 15, "velocity": 74}, {"time": 769, "pitch": 62, "duration": 2, "velocity": 77}, {"time": 772, "pitch": 62, "duration": 2, "velocity": 72}, {"time": 775, "pitch": 67, "duration": 5, "velocity": 70}, {"time": 781, "pitch": 66, "duration": 7, "velocity": 78}, {"time": 787, "pitch": 64, "duration": 6, "velocity": 77}, {"time": 793, "pitch": 62, "duration": 2, "velocity": 77}, {"time": 796, "pitch": 66, "duration": 3, "velocity": 77}, {"time": 799, "pitch": 64, "duration": 10, "velocity": 81}, {"time": 817, "pitch": 66, "duration": 6, "velocity": 80}, {"time": 823, "pitch": 62, "duration": 16, "velocity": 78}, {"time": 841, "pitch": 64, "duration": 5, "velocity": 78}, {"time": 847, "pitch": 62, "duration": 15, "velocity": 77}, {"time": 865, "pitch": 61, "duration": 3, "velocity": 78}, {"time": 868, "pitch": 59, "duration": 2, "velocity": 77}, {"time": 871, "pitch": 57, "duration": 5, "velocity": 81}, {"time": 877, "pitch": 62, "duration": 4, "velocity": 80}, {"time": 883, "pitch": 66, "duration": 5, "velocity": 80}, {"time": 889, "pitch": 67, "duration": 6, "velocity": 74}, {"time": 895, "pitch": 64, "duration": 16, "velocity": 81}, {"time": 913, "pitch": 66, "duration": 6, "velocity": 76}, {"time": 919, "pitch": 62, "duration": 13, "velocity": 76}, {"time": 934, "pitch": 62, "duration": 3, "velocity": 74}, {"time": 937, "pitch": 64, "duration": 5, "velocity": 78}, {"time": 943, "pitch": 62, "duration": 14, "velocity": 77}, {"time": 961, "pitch": 61, "duration": 2, "velocity": 78}, {"time": 964, "pitch": 59, "duration": 2, "velocity": 80}, {"time": 967, "pitch": 57, "duration": 5, "velocity": 78}, {"time": 973, "pitch": 62, "duration": 5, "velocity": 77}, {"time": 979, "pitch": 66, "duration": 5, "velocity": 77}, {"time": 985, "pitch": 67, "duration": 5, "velocity": 76}, {"time": 991, "pitch": 64, "duration": 9, "velocity": 80}, {"time": 1003, "pitch": 71, "duration": 7, "velocity": 78}, {"time": 1012, "pitch": 69, "duration": 2, "velocity": 77}, {"time": 1015, "pitch": 66, "duration": 5, "velocity": 72}, {"time": 1021, "pitch": 69, "duration": 5, "velocity": 78}, {"time": 1027, "pitch": 69, "duration": 4, "velocity": 76}, {"time": 1033, "pitch": 66, "duration": 4, "velocity": 75}, {"time": 1039, "pitch": 64, "duration": 11, "velocity": 82}, {"time": 1051, "pitch": 71, "duration": 8, "velocity": 76}, {"time": 1060, "pitch": 69, "duration": 2, "velocity": 76}, {"time": 1063, "pitch": 66, "duration": 5, "velocity": 75}, {"time": 1069, "pitch": 69, "duration": 5, "velocity": 76}, {"time": 1075, "pitch": 69, "duration": 4, "velocity": 78}, {"time": 1081, "pitch": 66, "duration": 2, "velocity": 77}, {"time": 1084, "pitch": 64, "duration": 2, "velocity": 79}, {"time": 1087, "pitch": 62, "duration": 10, "velocity": 76}, {"time": 1099, "pitch": 62, "duration": 5, "velocity": 78}, {"time": 1105, "pitch": 64, "duration": 2, "velocity": 77}, {"time": 1108, "pitch": 66, "duration": 13, "velocity": 77}, {"time": 1123, "pitch": 69, "duration": 5, "velocity": 77}, {"time": 1129, "pitch": 66, "duration": 2, "velocity": 74}, {"time": 1132, "pitch": 64, "duration": 13, "velocity": 78}, {"time": 1147, "pitch": 69, "duration": 8, "velocity": 77}, {"time": 1156, "pitch": 66, "duration": 3, "velocity": 76}, {"time": 1159, "pitch": 62, "duration": 5, "velocity": 71}, {"time": 1165, "pitch": 64, "duration": 5, "velocity": 77}, {"time": 1171, "pitch": 66, "duration": 5, "velocity": 76}, {"time": 1177, "pitch": 69, "duration": 5, "velocity": 77}, {"time": 1183, "pitch": 64, "duration": 10, "velocity": 77}, {"time": 1195, "pitch": 71, "duration": 7, "velocity": 78}, {"time": 1204, "pitch": 69, "duration": 2, "velocity": 77}, {"time": 1207, "pitch": 66, "duration": 5, "velocity": 72}, {"time": 1213, "pitch": 69, "duration": 5, "velocity": 78}, {"time": 1219, "pitch": 69, "duration": 4, "velocity": 76}, {"time": 1225, "pitch": 66, "duration": 4, "velocity": 75}, {"time": 1231, "pitch": 64, "duration": 11, "velocity": 82}, {"time": 1243, "pitch": 71, "duration": 8, "velocity": 76}, {"time": 1252, "pitch": 69, "duration": 2, "velocity": 76}, {"time": 1255, "pitch": 66, "duration": 5, "velocity": 75}, {"time": 1261, "pitch": 69, "duration": 5, "velocity": 76}, {"time": 1267, "pitch": 69, "duration": 4, "velocity": 78}, {"time": 1273, "pitch": 66, "duration": 2, "velocity": 77}, {"time": 1276, "pitch": 64, "duration": 2, "velocity": 79}, {"time": 1279, "pitch": 62, "duration": 10, "velocity": 76}, {"time": 1291, "pitch": 62, "duration": 5, "velocity": 78}, {"time": 1297, "pitch": 64, "duration": 2, "velocity": 77}, {"time": 1300, "pitch": 66, "duration": 13, "velocity": 77}, {"time": 1315, "pitch": 69, "duration": 5, "velocity": 77}, {"time": 1321, "pitch": 66, "duration": 2, "velocity": 74}, {"time": 1324, "pitch": 64, "duration": 13, "velocity": 78}, {"time": 1339, "pitch": 69, "duration": 8, "velocity": 77}, {"time": 1348, "pitch": 66, "duration": 3, "velocity": 76}, {"time": 1351, "pitch": 62, "duration": 5, "velocity": 71}, {"time": 1357, "pitch": 64, "duration": 5, "velocity": 77}, {"time": 1363, "pitch": 66, "duration": 5, "velocity": 76}, {"time": 1369, "pitch": 69, "duration": 5, "velocity": 77}, {"time": 1375, "pitch": 64, "duration": 10, "velocity": 77}, {"time": 1393, "pitch": 66, "duration": 6, "velocity": 77}, {"time": 1399, "pitch": 62, "duration": 26, "velocity": 77}, {"time": 1591, "pitch": 62, "duration": 5, "velocity": 76}, {"time": 1597, "pitch": 66, "duration": 5, "velocity": 71}, {"time": 1603, "pitch": 64, "duration": 4, "velocity": 76}, {"time": 1609, "pitch": 66, "duration": 5, "velocity": 67}, {"time": 1615, "pitch": 62, "duration": 5, "velocity": 66}, {"time": 1621, "pitch": 66, "duration": 5, "velocity": 74}, {"time": 1627, "pitch": 64, "duration": 8, "velocity": 77}, {"time": 1639, "pitch": 62, "duration": 5, "velocity": 73}, {"time": 1645, "pitch": 66, "duration": 4, "velocity": 67}, {"time": 1651, "pitch": 64, "duration": 5, "velocity": 76}, {"time": 1657, "pitch": 66, "duration": 5, "velocity": 65}, {"time": 1663, "pitch": 62, "duration": 15, "velocity": 75}, {"time": 1687, "pitch": 62, "duration": 6, "velocity": 65}, {"time": 1693, "pitch": 66, "duration": 5, "velocity": 64}, {"time": 1699, "pitch": 64, "duration": 5, "velocity": 77}, {"time": 1705, "pitch": 66, "duration": 6, "velocity": 69}, {"time": 1711, "pitch": 69, "duration": 16, "velocity": 72}, {"time": 1729, "pitch": 66, "duration": 3, "velocity": 69}, {"time": 1732, "pitch": 64, "duration": 2, "velocity": 76}, {"time": 1735, "pitch": 62, "duration": 24, "velocity": 74}, {"time": 1771, "pitch": 66, "duration": 9, "velocity": 80}, {"time": 1780, "pitch": 64, "duration": 2, "velocity": 80}, {"time": 1783, "pitch": 62, "duration": 6, "velocity": 77}, {"time": 1789, "pitch": 57, "duration": 5, "velocity": 78}, {"time": 1795, "pitch": 62, "duration": 4, "velocity": 78}, {"time": 1801, "pitch": 66, "duration": 5, "velocity": 67}, {"time": 1807, "pitch": 64, "duration": 11, "velocity": 77}, {"time": 1819, "pitch": 66, "duration": 7, "velocity": 80}, {"time": 1828, "pitch": 64, "duration": 2, "velocity": 68}, {"time": 1831, "pitch": 62, "duration": 4, "velocity": 78}, {"time": 1837, "pitch": 54, "duration": 5, "velocity": 78}, {"time": 1843, "pitch": 59, "duration": 5, "velocity": 72}, {"time": 1849, "pitch": 62, "duration": 5, "velocity": 63}, {"time": 1855, "pitch": 61, "duration": 10, "velocity": 77}, {"time": 1867, "pitch": 62, "duration": 5, "velocity": 76}, {"time": 1873, "pitch": 61, "duration": 3, "velocity": 80}, {"time": 1876, "pitch": 59, "duration": 13, "velocity": 74}, {"time": 1891, "pitch": 61, "duration": 5, "velocity": 77}, {"time": 1897, "pitch": 59, "duration": 2, "velocity": 76}, {"time": 1900, "pitch": 57, "duration": 15, "velocity": 74}, {"time": 1921, "pitch": 62, "duration": 2, "velocity": 77}, {"time": 1924, "pitch": 62, "duration": 2, "velocity": 72}, {"time": 1927, "pitch": 67, "duration": 5, "velocity": 70}, {"time": 1933, "pitch": 66, "duration": 7, "velocity": 78}, {"time": 1939, "pitch": 64, "duration": 6, "velocity": 77}, {"time": 1945, "pitch": 62, "duration": 2, "velocity": 77}, {"time": 1948, "pitch": 66, "duration": 3, "velocity": 77}, {"time": 1951, "pitch": 64, "duration": 10, "velocity": 81}, {"time": 1963, "pitch": 66, "duration": 9, "velocity": 80}, {"time": 1972, "pitch": 64, "duration": 2, "velocity": 80}, {"time": 1975, "pitch": 62, "duration": 6, "velocity": 77}, {"time": 1981, "pitch": 57, "duration": 5, "velocity": 78}, {"time": 1987, "pitch": 62, "duration": 4, "velocity": 78}, {"time": 1993, "pitch": 66, "duration": 5, "velocity": 67}, {"time": 1999, "pitch": 64, "duration": 11, "velocity": 77}, {"time": 2011, "pitch": 66, "duration": 7, "velocity": 80}, {"time": 2020, "pitch": 64, "duration": 2, "velocity": 68}, {"time": 2023, "pitch": 62, "duration": 4, "velocity": 78}, {"time": 2029, "pitch": 54, "duration": 5, "velocity": 78}, {"time": 2035, "pitch": 59, "duration": 5, "velocity": 72}, {"time": 2041, "pitch": 62, "duration": 5, "velocity": 63}, {"time": 2047, "pitch": 61, "duration": 10, "velocity": 77}, {"time": 2059, "pitch": 62, "duration": 5, "velocity": 76}, {"time": 2065, "pitch": 61, "duration": 3, "velocity": 80}, {"time": 2068, "pitch": 59, "duration": 13, "velocity": 74}, {"time": 2083, "pitch": 61, "duration": 5, "velocity": 77}, {"time": 2089, "pitch": 59, "duration": 2, "velocity": 76}, {"time": 2092, "pitch": 57, "duration": 15, "velocity": 74}, {"time": 2113, "pitch": 62, "duration": 2, "velocity": 77}, {"time": 2116, "pitch": 62, "duration": 2, "velocity": 72}, {"time": 2119, "pitch": 67, "duration": 5, "velocity": 70}, {"time": 2125, "pitch": 66, "duration": 7, "velocity": 78}, {"time": 2131, "pitch": 64, "duration": 6, "velocity": 77}, {"time": 2137, "pitch": 62, "duration": 2, "velocity": 77}, {"time": 2140, "pitch": 66, "duration": 3, "velocity": 77}, {"time": 2143, "pitch": 64, "duration": 10, "velocity": 81}, {"time": 2161, "pitch": 66, "duration": 6, "velocity": 80}, {"time": 2167, "pitch": 62, "duration": 16, "velocity": 78}, {"time": 2185, "pitch": 64, "duration": 5, "velocity": 78}, {"time": 2191, "pitch": 62, "duration": 15, "velocity": 77}, {"time": 2209, "pitch": 61, "duration": 3, "velocity": 78}, {"time": 2212, "pitch": 59, "duration": 2, "velocity": 77}, {"time": 2215, "pitch": 57, "duration": 5, "velocity": 81}, {"time": 2221, "pitch": 62, "duration": 4, "velocity": 80}, {"time": 2227, "pitch": 66, "duration": 5, "velocity": 80}, {"time": 2233, "pitch": 67, "duration": 6, "velocity": 74}, {"time": 2239, "pitch": 64, "duration": 16, "velocity": 81}, {"time": 2257, "pitch": 66, "duration": 6, "velocity": 76}, {"time": 2263, "pitch": 62, "duration": 13, "velocity": 76}, {"time": 2278, "pitch": 62, "duration": 3, "velocity": 74}, {"time": 2281, "pitch": 64, "duration": 5, "velocity": 78}, {"time": 2287, "pitch": 62, "duration": 14, "velocity": 77}, {"time": 2305, "pitch": 61, "duration": 2, "velocity": 78}, {"time": 2308, "pitch": 59, "duration": 2, "velocity": 80}, {"time": 2311, "pitch": 57, "duration": 5, "velocity": 78}, {"time": 2317, "pitch": 62, "duration": 5, "velocity": 77}, {"time": 2323, "pitch": 66, "duration": 5, "velocity": 77}, {"time": 2329, "pitch": 67, "duration": 5, "velocity": 76}, {"time": 2335, "pitch": 64, "duration": 9, "velocity": 80}, {"time": 2347, "pitch": 71, "duration": 7, "velocity": 78}, {"time": 2356, "pitch": 69, "duration": 2, "velocity": 77}, {"time": 2359, "pitch": 66, "duration": 5, "velocity": 72}, {"time": 2365, "pitch": 69, "duration": 5, "velocity": 78}, {"time": 2371, "pitch": 69, "duration": 4, "velocity": 76}, {"time": 2377, "pitch": 66, "duration": 4, "velocity": 75}, {"time": 2383, "pitch": 64, "duration": 11, "velocity": 82}, {"time": 2395, "pitch": 71, "duration": 8, "velocity": 76}, {"time": 2404, "pitch": 69, "duration": 2, "velocity": 76}, {"time": 2407, "pitch": 66, "duration": 5, "velocity": 75}, {"time": 2413, "pitch": 69, "duration": 5, "velocity": 76}, {"time": 2419, "pitch": 69, "duration": 4, "velocity": 78}, {"time": 2425, "pitch": 66, "duration": 2, "velocity": 77}, {"time": 2428, "pitch": 64, "duration": 2, "velocity": 79}, {"time": 2431, "pitch": 62, "duration": 10, "velocity": 76}, {"time": 2443, "pitch": 62, "duration": 5, "velocity": 78}, {"time": 2449, "pitch": 64, "duration": 2, "velocity": 77}, {"time": 2452, "pitch": 66, "duration": 13, "velocity": 77}, {"time": 2467, "pitch": 69, "duration": 5, "velocity": 77}, {"time": 2473, "pitch": 66, "duration": 2, "velocity": 74}, {"time": 2476, "pitch": 64, "duration": 13, "velocity": 78}, {"time": 2491, "pitch": 69, "duration": 8, "velocity": 77}, {"time": 2500, "pitch": 66, "duration": 3, "velocity": 76}, {"time": 2503, "pitch": 62, "duration": 5, "velocity": 71}, {"time": 2509, "pitch": 64, "duration": 5, "velocity": 77}, {"time": 2515, "pitch": 66, "duration": 5, "velocity": 76}, {"time": 2521, "pitch": 69, "duration": 5, "velocity": 77}, {"time": 2527, "pitch": 64, "duration": 10, "velocity": 77}, {"time": 2539, "pitch": 71, "duration": 7, "velocity": 78}, {"time": 2548, "pitch": 69, "duration": 2, "velocity": 77}, {"time": 2551, "pitch": 66, "duration": 5, "velocity": 72}, {"time": 2557, "pitch": 69, "duration": 5, "velocity": 78}, {"time": 2563, "pitch": 69, "duration": 4, "velocity": 76}, {"time": 2569, "pitch": 66, "duration": 4, "velocity": 75}, {"time": 2575, "pitch": 64, "duration": 11, "velocity": 82}, {"time": 2587, "pitch": 71, "duration": 8, "velocity": 76}, {"time": 2596, "pitch": 69, "duration": 2, "velocity": 76}, {"time": 2599, "pitch": 66, "duration": 5, "velocity": 75}, {"time": 2605, "pitch": 69, "duration": 5, "velocity": 76}, {"time": 2611, "pitch": 69, "duration": 4, "velocity": 78}, {"time": 2617, "pitch": 66, "duration": 2, "velocity": 77}, {"time": 2620, "pitch": 64, "duration": 2, "velocity": 79}, {"time": 2623, "pitch": 62, "duration": 10, "velocity": 76}, {"time": 2635, "pitch": 62, "duration": 5, "velocity": 78}, {"time": 2641, "pitch": 64, "duration": 2, "velocity": 77}, {"time": 2644, "pitch": 66, "duration": 13, "velocity": 77}, {"time": 2659, "pitch": 69, "duration": 5, "velocity": 77}, {"time": 2665, "pitch": 66, "duration": 2, "velocity": 74}, {"time": 2668, "pitch": 64, "duration": 13, "velocity": 78}, {"time": 2683, "pitch": 69, "duration": 8, "velocity": 77}, {"time": 2692, "pitch": 66, "duration": 3, "velocity": 76}, {"time": 2695, "pitch": 62, "duration": 5, "velocity": 71}, {"time": 2701, "pitch": 64, "duration": 5, "velocity": 77}, {"time": 2707, "pitch": 66, "duration": 5, "velocity": 76}, {"time": 2713, "pitch": 69, "duration": 5, "velocity": 77}, {"time": 2719, "pitch": 64, "duration": 10, "velocity": 77}, {"time": 2737, "pitch": 66, "duration": 6, "velocity": 77}, {"time": 2743, "pitch": 62, "duration": 26, "velocity": 77}, {"time": 3139, "pitch": 71, "duration": 7, "velocity": 78}, {"time": 3148, "pitch": 69, "duration": 2, "velocity": 77}, {"time": 3151, "pitch": 66, "duration": 5, "velocity": 72}, {"time": 3157, "pitch": 69, "duration": 5, "velocity": 78}, {"time": 3163, "pitch": 69, "duration": 4, "velocity": 76}, {"time": 3169, "pitch": 66, "duration": 4, "velocity": 75}, {"time": 3175, "pitch": 64, "duration": 11, "velocity": 82}, {"time": 3187, "pitch": 71, "duration": 8, "velocity": 76}, {"time": 3196, "pitch": 69, "duration": 2, "velocity": 76}, {"time": 3199, "pitch": 66, "duration": 5, "velocity": 75}, {"time": 3205, "pitch": 69, "duration": 5, "velocity": 76}, {"time": 3211, "pitch": 69, "duration": 4, "velocity": 78}, {"time": 3217, "pitch": 66, "duration": 2, "velocity": 77}, {"time": 3220, "pitch": 64, "duration": 2, "velocity": 79}, {"time": 3223, "pitch": 62, "duration": 10, "velocity": 76}, {"time": 3235, "pitch": 62, "duration": 5, "velocity": 78}, {"time": 3241, "pitch": 64, "duration": 2, "velocity": 77}, {"time": 3244, "pitch": 66, "duration": 13, "velocity": 77}, {"time": 3259, "pitch": 69, "duration": 5, "velocity": 77}, {"time": 3265, "pitch": 66, "duration": 2, "velocity": 74}, {"time": 3268, "pitch": 64, "duration": 13, "velocity": 78}, {"time": 3283, "pitch": 69, "duration": 8, "velocity": 77}, {"time": 3292, "pitch": 66, "duration": 3, "velocity": 76}, {"time": 3295, "pitch": 62, "duration": 5, "velocity": 71}, {"time": 3301, "pitch": 64, "duration": 5, "velocity": 77}, {"time": 3307, "pitch": 66, "duration": 5, "velocity": 76}, {"time": 3313, "pitch": 69, "duration": 5, "velocity": 77}, {"time": 3319, "pitch": 64, "duration": 10, "velocity": 77}, {"time": 3331, "pitch": 71, "duration": 7, "velocity": 78}, {"time": 3340, "pitch": 69, "duration": 2, "velocity": 77}, {"time": 3343, "pitch": 66, "duration": 5, "velocity": 72}, {"time": 3349, "pitch": 69, "duration": 5, "velocity": 78}, {"time": 3355, "pitch": 69, "duration": 4, "velocity": 76}, {"time": 3361, "pitch": 66, "duration": 4, "velocity": 75}, {"time": 3367, "pitch": 64, "duration": 11, "velocity": 82}, {"time": 3379, "pitch": 71, "duration": 8, "velocity": 76}, {"time": 3388, "pitch": 69, "duration": 2, "velocity": 76}, {"time": 3391, "pitch": 66, "duration": 5, "velocity": 75}, {"time": 3397, "pitch": 69, "duration": 5, "velocity": 76}, {"time": 3403, "pitch": 69, "duration": 4, "velocity": 78}, {"time": 3409, "pitch": 66, "duration": 2, "velocity": 77}, {"time": 3412, "pitch": 64, "duration": 2, "velocity": 79}, {"time": 3415, "pitch": 62, "duration": 10, "velocity": 76}, {"time": 3427, "pitch": 62, "duration": 5, "velocity": 78}, {"time": 3433, "pitch": 64, "duration": 2, "velocity": 77}, {"time": 3436, "pitch": 66, "duration": 13, "velocity": 77}, {"time": 3451, "pitch": 69, "duration": 5, "velocity": 77}, {"time": 3457, "pitch": 66, "duration": 2, "velocity": 74}, {"time": 3460, "pitch": 64, "duration": 13, "velocity": 78}, {"time": 3475, "pitch": 69, "duration": 8, "velocity": 77}, {"time": 3484, "pitch": 66, "duration": 3, "velocity": 76}, {"time": 3487, "pitch": 62, "duration": 5, "velocity": 71}, {"time": 3493, "pitch": 64, "duration": 5, "velocity": 77}, {"time": 3499, "pitch": 66, "duration": 5, "velocity": 76}, {"time": 3505, "pitch": 69, "duration": 5, "velocity": 77}, {"time": 3511, "pitch": 64, "duration": 10, "velocity": 77}, {"time": 3523, "pitch": 71, "duration": 7, "velocity": 78}, {"time": 3532, "pitch": 69, "duration": 2, "velocity": 77}, {"time": 3535, "pitch": 66, "duration": 5, "velocity": 72}, {"time": 3541, "pitch": 69, "duration": 5, "velocity": 78}, {"time": 3547, "pitch": 69, "duration": 4, "velocity": 76}, {"time": 3553, "pitch": 66, "duration": 4, "velocity": 75}, {"time": 3559, "pitch": 64, "duration": 11, "velocity": 82}, {"time": 3571, "pitch": 71, "duration": 8, "velocity": 76}, {"time": 3580, "pitch": 69, "duration": 2, "velocity": 76}, {"time": 3583, "pitch": 66, "duration": 5, "velocity": 75}, {"time": 3589, "pitch": 69, "duration": 5, "velocity": 76}, {"time": 3595, "pitch": 69, "duration": 4, "velocity": 78}, {"time": 3601, "pitch": 66, "duration": 2, "velocity": 77}, {"time": 3604, "pitch": 64, "duration": 2, "velocity": 79}, {"time": 3607, "pitch": 62, "duration": 10, "velocity": 76}, {"time": 3619, "pitch": 62, "duration": 5, "velocity": 78}, {"time": 3625, "pitch": 64, "duration": 2, "velocity": 77}, {"time": 3628, "pitch": 66, "duration": 13, "velocity": 77}, {"time": 3643, "pitch": 69, "duration": 5, "velocity": 77}, {"time": 3649, "pitch": 66, "duration": 2, "velocity": 74}, {"time": 3652, "pitch": 64, "duration": 13, "velocity": 78}, {"time": 3667, "pitch": 69, "duration": 8, "velocity": 77}, {"time": 3676, "pitch": 66, "duration": 3, "velocity": 76}, {"time": 3679, "pitch": 62, "duration": 5, "velocity": 71}, {"time": 3685, "pitch": 64, "duration": 5, "velocity": 77}, {"time": 3691, "pitch": 66, "duration": 5, "velocity": 76}, {"time": 3697, "pitch": 69, "duration": 5, "velocity": 77}, {"time": 3703, "pitch": 64, "duration": 10, "velocity": 77}, {"time": 3715, "pitch": 71, "duration": 7, "velocity": 78}, {"time": 3724, "pitch": 69, "duration": 2, "velocity": 77}, {"time": 3727, "pitch": 66, "duration": 5, "velocity": 72}, {"time": 3733, "pitch": 69, "duration": 5, "velocity": 78}, {"time": 3739, "pitch": 69, "duration": 4, "velocity": 76}, {"time": 3745, "pitch": 66, "duration": 4, "velocity": 75}, {"time": 3751, "pitch": 64, "duration": 11, "velocity": 82}, {"time": 3763, "pitch": 71, "duration": 8, "velocity": 76}, {"time": 3772, "pitch": 69, "duration": 2, "velocity": 76}, {"time": 3775, "pitch": 66, "duration": 5, "velocity": 75}, {"time": 3781, "pitch": 69, "duration": 5, "velocity": 76}, {"time": 3787, "pitch": 69, "duration": 4, "velocity": 78}, {"time": 3793, "pitch": 66, "duration": 2, "velocity": 77}, {"time": 3796, "pitch": 64, "duration": 2, "velocity": 79}, {"time": 3799, "pitch": 62, "duration": 10, "velocity": 76}, {"time": 3811, "pitch": 62, "duration": 5, "velocity": 78}, {"time": 3817, "pitch": 64, "duration": 2, "velocity": 77}, {"time": 3820, "pitch": 66, "duration": 13, "velocity": 77}, {"time": 3835, "pitch": 69, "duration": 5, "velocity": 77}, {"time": 3841, "pitch": 66, "duration": 2, "velocity": 74}, {"time": 3844, "pitch": 64, "duration": 13, "velocity": 78}, {"time": 3859, "pitch": 69, "duration": 8, "velocity": 77}, {"time": 3868, "pitch": 66, "duration": 3, "velocity": 76}, {"time": 3871, "pitch": 62, "duration": 5, "velocity": 71}, {"time": 3877, "pitch": 64, "duration": 5, "velocity": 77}, {"time": 3883, "pitch": 66, "duration": 5, "velocity": 76}, {"time": 3889, "pitch": 69, "duration": 5, "velocity": 77}, {"time": 3895, "pitch": 64, "duration": 10, "velocity": 77}, {"time": 3913, "pitch": 66, "duration": 6, "velocity": 77}, {"time": 3919, "pitch": 62, "duration": 26, "velocity": 77}]}, {"program": 0, "is_drum": false, "name": "PIANO", "notes": [{"time": 55, "pitch": 50, "duration": 17, "velocity": 72}, {"time": 55, "pitch": 62, "duration": 6, "velocity": 67}, {"time": 55, "pitch": 66, "duration": 7, "velocity": 67}, {"time": 61, "pitch": 57, "duration": 11, "velocity": 61}, {"time": 67, "pitch": 66, "duration": 6, "velocity": 77}, {"time": 73, "pitch": 62, "duration": 6, "velocity": 71}, {"time": 79, "pitch": 45, "duration": 17, "velocity": 71}, {"time": 79, "pitch": 64, "duration": 7, "velocity": 72}, {"time": 85, "pitch": 52, "duration": 11, "velocity": 57}, {"time": 85, "pitch": 57, "duration": 9, "velocity": 70}, {"time": 91, "pitch": 61, "duration": 4, "velocity": 66}, {"time": 91, "pitch": 64, "duration": 4, "velocity": 76}, {"time": 103, "pitch": 47, "duration": 16, "velocity": 69}, {"time": 103, "pitch": 59, "duration": 8, "velocity": 63}, {"time": 103, "pitch": 62, "duration": 8, "velocity": 65}, {"time": 109, "pitch": 54, "duration": 7, "velocity": 55}, {"time": 115, "pitch": 66, "duration": 6, "velocity": 74}, {"time": 121, "pitch": 59, "duration": 3, "velocity": 72}, {"time": 127, "pitch": 45, "duration": 15, "velocity": 65}, {"time": 127, "pitch": 57, "duration": 8, "velocity": 65}, {"time": 127, "pitch": 61, "duration": 12, "velocity": 54}, {"time": 133, "pitch": 52, "duration": 9, "velocity": 61}, {"time": 139, "pitch": 57, "duration": 4, "velocity": 68}, {"time": 151, "pitch": 43, "duration": 16, "velocity": 72}, {"time": 151, "pitch": 55, "duration": 6, "velocity": 68}, {"time": 151, "pitch": 62, "duration": 9, "velocity": 70}, {"time": 157, "pitch": 50, "duration": 10, "velocity": 62}, {"time": 163, "pitch": 55, "duration": 3, "velocity": 70}, {"time": 163, "pitch": 59, "duration": 6, "velocity": 71}, {"time": 175, "pitch": 45, "duration": 21, "velocity": 73}, {"time": 175, "pitch": 57, "duration": 6, "velocity": 67}, {"time": 175, "pitch": 61, "duration": 10, "velocity": 61}, {"time": 181, "pitch": 52, "duration": 15, "velocity": 71}, {"time": 187, "pitch": 61, "duration": 5, "velocity": 81}, {"time": 193, "pitch": 57, "duration": 7, "velocity": 77}, {"time": 199, "pitch": 50, "duration": 18, "velocity": 75}, {"time": 199, "pitch": 62, "duration": 8, "velocity": 76}, {"time": 205, "pitch": 57, "duration": 7, "velocity": 72}, {"time": 211, "pitch": 66, "duration": 7, "velocity": 76}, {"time": 217, "pitch": 57, "duration": 4, "velocity": 72}, {"time": 223, "pitch": 45, "duration": 24, "velocity": 75}, {"time": 223, "pitch": 57, "duration": 7, "velocity": 68}, {"time": 223, "pitch": 61, "duration": 7, "velocity": 63}, {"time": 229, "pitch": 52, "duration": 18, "velocity": 75}, {"time": 235, "pitch": 57, "duration": 2, "velocity": 65}, {"time": 235, "pitch": 61, "duration": 8, "velocity": 77}, {"time": 235, "pitch": 64, "duration": 11, "velocity": 77}, {"time": 241, "pitch": 57, "duration": 6, "velocity": 80}, {"time": 247, "pitch": 50, "duration": 17, "velocity": 72}, {"time": 247, "pitch": 62, "duration": 6, "velocity": 67}, {"time": 247, "pitch": 66, "duration": 7, "velocity": 67}, {"time": 253, "pitch": 57, "duration": 11, "velocity": 61}, {"time": 259, "pitch": 66, "duration": 6, "velocity": 77}, {"time": 265, "pitch": 62, "duration": 6, "velocity": 71}, {"time": 271, "pitch": 45, "duration": 17, "velocity": 71}, {"time": 271, "pitch": 64, "duration": 7, "velocity": 72}, {"time": 277, "pitch": 52, "duration": 11, "velocity": 57}, {"time": 277, "pitch": 57, "duration": 9, "velocity": 70}, {"time": 283, "pitch": 61, "duration": 4, "velocity": 66}, {"time": 283, "pitch": 64, "duration": 4, "velocity": 76}, {"time": 295, "pitch": 47, "duration": 16, "velocity": 69}, {"time": 295, "pitch": 59, "duration": 8, "velocity": 63}, {"time": 295, "pitch": 62, "duration": 8, "velocity": 65}, {"time": 301, "pitch": 54, "duration": 7, "velocity": 55}, {"time": 307, "pitch": 66, "duration": 6, "velocity": 74}, {"time": 313, "pitch": 59, "duration": 3, "velocity": 72}, {"time": 319, "pitch": 45, "duration": 15, "velocity": 65}, {"time": 319, "pitch": 57, "duration": 8, "velocity": 65}, {"time": 319, "pitch": 61, "duration": 12, "velocity": 54}, {"time": 325, "pitch": 52, "duration": 9, "velocity": 61}, {"time": 331, "pitch": 57, "duration": 4, "velocity": 68}, {"time": 343, "pitch": 43, "duration": 16, "velocity": 72}, {"time": 343, "pitch": 55, "duration": 6, "velocity": 68}, {"time": 343, "pitch": 62, "duration": 9, "velocity": 70}, {"time": 349, "pitch": 50, "duration": 10, "velocity": 62}, {"time": 355, "pitch": 55, "duration": 3, "velocity": 70}, {"time": 355, "pitch": 59, "duration": 6, "velocity": 71}, {"time": 367, "pitch": 45, "duration": 21, "velocity": 73}, {"time": 367, "pitch": 57, "duration": 6, "velocity": 67}, {"time": 367, "pitch": 61, "duration": 10, "velocity": 61}, {"time": 373, "pitch": 52, "duration": 15, "velocity": 71}, {"time": 379, "pitch": 61, "duration": 5, "velocity": 81}, {"time": 385, "pitch": 57, "duration": 7, "velocity": 77}, {"time": 391, "pitch": 50, "duration": 42, "velocity": 77}, {"time": 397, "pitch": 57, "duration": 8, "velocity": 68}, {"time": 403, "pitch": 66, "duration": 16, "velocity": 72}, {"time": 409, "pitch": 57, "duration": 7, "velocity": 55}, {"time": 415, "pitch": 62, "duration": 12, "velocity": 66}, {"time": 421, "pitch": 57, "duration": 12, "velocity": 52}, {"time": 427, "pitch": 66, "duration": 13, "velocity": 60}, {"time": 427, "pitch": 69, "duration": 13, "velocity": 65}, {"time": 439, "pitch": 50, "duration": 19, "velocity": 78}, {"time": 445, "pitch": 57, "duration": 18, "velocity": 65}, {"time": 451, "pitch": 66, "duration": 6, "velocity": 78}, {"time": 457, "pitch": 62, "duration": 7, "velocity": 74}, {"time": 463, "pitch": 49, "duration": 14, "velocity": 68}, {"time": 463, "pitch": 64, "duration": 13, "velocity": 73}, {"time": 469, "pitch": 57, "duration": 7, "velocity": 65}, {"time": 475, "pitch": 61, "duration": 3, "velocity": 76}, {"time": 487, "pitch": 47, "duration": 15, "velocity": 68}, {"time": 487, "pitch": 62, "duration": 13, "velocity": 72}, {"time": 493, "pitch": 54, "duration": 7, "velocity": 62}, {"time": 499, "pitch": 59, "duration": 7, "velocity": 77}, {"time": 505, "pitch": 62, "duration": 7, "velocity": 69}, {"time": 511, "pitch": 45, "duration": 15, "velocity": 72}, {"time": 511, "pitch": 61, "duration": 12, "velocity": 76}, {"time": 517, "pitch": 52, "duration": 8, "velocity": 70}, {"time": 523, "pitch": 57, "duration": 3, "velocity": 77}, {"time": 535, "pitch": 43, "duration": 16, "velocity": 72}, {"time": 535, "pitch": 55, "duration": 6, "velocity": 71}, {"time": 535, "pitch": 59, "duration": 12, "velocity": 71}, {"time": 541, "pitch": 50, "duration": 10, "velocity": 72}, {"time": 547, "pitch": 55, "duration": 7, "velocity": 79}, {"time": 553, "pitch": 59, "duration": 7, "velocity": 70}, {"time": 559, "pitch": 42, "duration": 14, "velocity": 64}, {"time": 559, "pitch": 57, "duration": 14, "velocity": 72}, {"time": 565, "pitch": 49, "duration": 8, "velocity": 62}, {"time": 571, "pitch": 62, "duration": 11, "velocity": 74}, {"time": 583, "pitch": 40, "duration": 17, "velocity": 62}, {"time": 583, "pitch": 59, "duration": 5, "velocity": 64}, {"time": 583, "pitch": 64, "duration": 12, "velocity": 76}, {"time": 589, "pitch": 47, "duration": 11, "velocity": 65}, {"time": 595, "pitch": 67, "duration": 8, "velocity": 75}, {"time": 601, "pitch": 59, "duration": 3, "velocity": 77}, {"time": 607, "pitch": 45, "duration": 22, "velocity": 76}, {"time": 607, "pitch": 61, "duration": 12, "velocity": 72}, {"time": 613, "pitch": 52, "duration": 13, "velocity": 68}, {"time": 619, "pitch": 57, "duration": 7, "velocity": 75}, {"time": 625, "pitch": 61, "duration": 7, "velocity": 76}, {"time": 631, "pitch": 50, "duration": 21, "velocity": 75}, {"time": 631, "pitch": 62, "duration": 6, "velocity": 76}, {"time": 637, "pitch": 57, "duration": 7, "velocity": 77}, {"time": 643, "pitch": 66, "duration": 6, "velocity": 69}, {"time": 649, "pitch": 57, "duration": 8, "velocity": 77}, {"time": 655, "pitch": 45, "duration": 18, "velocity": 70}, {"time": 655, "pitch": 64, "duration": 8, "velocity": 76}, {"time": 661, "pitch": 57, "duration": 7, "velocity": 71}, {"time": 667, "pitch": 61, "duration": 7, "velocity": 78}, {"time": 673, "pitch": 57, "duration": 3, "velocity": 76}, {"time": 679, "pitch": 47, "duration": 16, "velocity": 74}, {"time": 679, "pitch": 62, "duration": 12, "velocity": 72}, {"time": 685, "pitch": 54, "duration": 8, "velocity": 65}, {"time": 691, "pitch": 59, "duration": 7, "velocity": 72}, {"time": 697, "pitch": 62, "duration": 7, "velocity": 76}, {"time": 703, "pitch": 45, "duration": 18, "velocity": 76}, {"time": 703, "pitch": 57, "duration": 7, "velocity": 70}, {"time": 703, "pitch": 61, "duration": 10, "velocity": 76}, {"time": 709, "pitch": 52, "duration": 11, "velocity": 77}, {"time": 715, "pitch": 57, "duration": 6, "velocity": 80}, {"time": 721, "pitch": 61, "duration": 6, "velocity": 80}, {"time": 727, "pitch": 43, "duration": 15, "velocity": 72}, {"time": 727, "pitch": 55, "duration": 9, "velocity": 76}, {"time": 727, "pitch": 59, "duration": 9, "velocity": 72}, {"time": 733, "pitch": 50, "duration": 8, "velocity": 70}, {"time": 739, "pitch": 55, "duration": 2, "velocity": 71}, {"time": 739, "pitch": 59, "duration": 6, "velocity": 73}, {"time": 739, "pitch": 62, "duration": 7, "velocity": 72}, {"time": 745, "pitch": 55, "duration": 2, "velocity": 75}, {"time": 751, "pitch": 42, "duration": 13, "velocity": 72}, {"time": 751, "pitch": 57, "duration": 13, "velocity": 71}, {"time": 751, "pitch": 61, "duration": 9, "velocity": 67}, {"time": 757, "pitch": 49, "duration": 7, "velocity": 61}, {"time": 763, "pitch": 61, "duration": 7, "velocity": 83}, {"time": 763, "pitch": 66, "duration": 6, "velocity": 76}, {"time": 769, "pitch": 57, "duration": 5, "velocity": 76}, {"time": 775, "pitch": 40, "duration": 16, "velocity": 78}, {"time": 775, "pitch": 64, "duration": 7, "velocity": 76}, {"time": 781, "pitch": 59, "duration": 7, "velocity": 75}, {"time": 787, "pitch": 67, "duration": 7, "velocity": 75}, {"time": 793, "pitch": 59, "duration": 3, "velocity": 80}, {"time": 799, "pitch": 45, "duration": 23, "velocity": 76}, {"time": 799, "pitch": 61, "duration": 10, "velocity": 79}, {"time": 805, "pitch": 52, "duration": 16, "velocity": 76}, {"time": 811, "pitch": 61, "duration": 4, "velocity": 83}, {"time": 814, "pitch": 62, "duration": 3, "velocity": 77}, {"time": 817, "pitch": 64, "duration": 5, "velocity": 78}, {"time": 823, "pitch": 47, "duration": 20, "velocity": 72}, {"time": 823, "pitch": 62, "duration": 9, "velocity": 58}, {"time": 829, "pitch": 54, "duration": 7, "velocity": 66}, {"time": 832, "pitch": 59, "duration": 4, "velocity": 76}, {"time": 835, "pitch": 66, "duration": 9, "velocity": 76}, {"time": 838, "pitch": 54, "duration": 3, "velocity": 68}, {"time": 841, "pitch": 59, "duration": 5, "velocity": 73}, {"time": 844, "pitch": 62, "duration": 8, "velocity": 67}, {"time": 847, "pitch": 43, "duration": 21, "velocity": 75}, {"time": 850, "pitch": 50, "duration": 11, "velocity": 66}, {"time": 853, "pitch": 55, "duration": 4, "velocity": 69}, {"time": 856, "pitch": 59, "duration": 3, "velocity": 77}, {"time": 859, "pitch": 62, "duration": 8, "velocity": 76}, {"time": 865, "pitch": 55, "duration": 5, "velocity": 75}, {"time": 871, "pitch": 50, "duration": 22, "velocity": 68}, {"time": 874, "pitch": 57, "duration": 3, "velocity": 76}, {"time": 877, "pitch": 62, "duration": 4, "velocity": 70}, {"time": 880, "pitch": 57, "duration": 4, "velocity": 70}, {"time": 883, "pitch": 66, "duration": 4, "velocity": 77}, {"time": 886, "pitch": 57, "duration": 4, "velocity": 76}, {"time": 889, "pitch": 62, "duration": 4, "velocity": 69}, {"time": 892, "pitch": 57, "duration": 5, "velocity": 73}, {"time": 895, "pitch": 45, "duration": 22, "velocity": 74}, {"time": 898, "pitch": 52, "duration": 20, "velocity": 64}, {"time": 901, "pitch": 57, "duration": 4, "velocity": 74}, {"time": 904, "pitch": 59, "duration": 4, "velocity": 78}, {"time": 907, "pitch": 61, "duration": 7, "velocity": 80}, {"time": 913, "pitch": 62, "duration": 4, "velocity": 77}, {"time": 919, "pitch": 47, "duration": 17, "velocity": 77}, {"time": 919, "pitch": 59, "duration": 6, "velocity": 71}, {"time": 919, "pitch": 62, "duration": 7, "velocity": 73}, {"time": 925, "pitch": 54, "duration": 8, "velocity": 72}, {"time": 928, "pitch": 59, "duration": 3, "velocity": 77}, {"time": 931, "pitch": 66, "duration": 4, "velocity": 71}, {"time": 934, "pitch": 59, "duration": 4, "velocity": 76}, {"time": 937, "pitch": 62, "duration": 4, "velocity": 69}, {"time": 940, "pitch": 59, "duration": 5, "velocity": 66}, {"time": 943, "pitch": 43, "duration": 21, "velocity": 76}, {"time": 946, "pitch": 50, "duration": 11, "velocity": 68}, {"time": 949, "pitch": 55, "duration": 3, "velocity": 68}, {"time": 952, "pitch": 57, "duration": 5, "velocity": 59}, {"time": 955, "pitch": 59, "duration": 8, "velocity": 73}, {"time": 961, "pitch": 50, "duration": 4, "velocity": 77}, {"time": 967, "pitch": 50, "duration": 19, "velocity": 77}, {"time": 967, "pitch": 57, "duration": 3, "velocity": 72}, {"time": 967, "pitch": 62, "duration": 14, "velocity": 72}, {"time": 973, "pitch": 57, "duration": 7, "velocity": 64}, {"time": 979, "pitch": 66, "duration": 6, "velocity": 78}, {"time": 985, "pitch": 57, "duration": 3, "velocity": 76}, {"time": 991, "pitch": 45, "duration": 20, "velocity": 77}, {"time": 991, "pitch": 57, "duration": 3, "velocity": 69}, {"time": 991, "pitch": 61, "duration": 6, "velocity": 64}, {"time": 994, "pitch": 52, "duration": 16, "velocity": 70}, {"time": 997, "pitch": 57, "duration": 6, "velocity": 77}, {"time": 1000, "pitch": 61, "duration": 4, "velocity": 77}, {"time": 1003, "pitch": 69, "duration": 6, "velocity": 78}, {"time": 1006, "pitch": 61, "duration": 4, "velocity": 76}, {"time": 1009, "pitch": 57, "duration": 3, "velocity": 78}, {"time": 1015, "pitch": 50, "duration": 20, "velocity": 76}, {"time": 1015, "pitch": 57, "duration": 3, "velocity": 71}, {"time": 1015, "pitch": 62, "duration": 7, "velocity": 74}, {"time": 1021, "pitch": 57, "duration": 5, "velocity": 74}, {"time": 1024, "pitch": 62, "duration": 3, "velocity": 71}, {"time": 1027, "pitch": 66, "duration": 5, "velocity": 79}, {"time": 1030, "pitch": 57, "duration": 4, "velocity": 73}, {"time": 1033, "pitch": 62, "duration": 3, "velocity": 70}, {"time": 1036, "pitch": 57, "duration": 4, "velocity": 66}, {"time": 1039, "pitch": 45, "duration": 20, "velocity": 77}, {"time": 1039, "pitch": 61, "duration": 10, "velocity": 75}, {"time": 1045, "pitch": 52, "duration": 10, "velocity": 76}, {"time": 1048, "pitch": 57, "duration": 3, "velocity": 76}, {"time": 1051, "pitch": 64, "duration": 7, "velocity": 77}, {"time": 1054, "pitch": 57, "duration": 4, "velocity": 74}, {"time": 1057, "pitch": 61, "duration": 3, "velocity": 75}, {"time": 1063, "pitch": 47, "duration": 17, "velocity": 75}, {"time": 1063, "pitch": 59, "duration": 6, "velocity": 70}, {"time": 1063, "pitch": 62, "duration": 10, "velocity": 74}, {"time": 1069, "pitch": 54, "duration": 8, "velocity": 64}, {"time": 1072, "pitch": 59, "duration": 3, "velocity": 77}, {"time": 1075, "pitch": 66, "duration": 5, "velocity": 79}, {"time": 1078, "pitch": 59, "duration": 3, "velocity": 77}, {"time": 1081, "pitch": 62, "duration": 4, "velocity": 68}, {"time": 1084, "pitch": 59, "duration": 4, "velocity": 70}, {"time": 1087, "pitch": 43, "duration": 18, "velocity": 76}, {"time": 1093, "pitch": 50, "duration": 12, "velocity": 74}, {"time": 1096, "pitch": 55, "duration": 5, "velocity": 77}, {"time": 1099, "pitch": 59, "duration": 4, "velocity": 77}, {"time": 1102, "pitch": 62, "duration": 4, "velocity": 76}, {"time": 1105, "pitch": 55, "duration": 3, "velocity": 76}, {"time": 1111, "pitch": 50, "duration": 21, "velocity": 77}, {"time": 1111, "pitch": 57, "duration": 3, "velocity": 69}, {"time": 1111, "pitch": 62, "duration": 7, "velocity": 76}, {"time": 1117, "pitch": 57, "duration": 7, "velocity": 72}, {"time": 1123, "pitch": 66, "duration": 6, "velocity": 79}, {"time": 1129, "pitch": 57, "duration": 4, "velocity": 77}, {"time": 1135, "pitch": 45, "duration": 20, "velocity": 77}, {"time": 1135, "pitch": 57, "duration": 3, "velocity": 70}, {"time": 1135, "pitch": 61, "duration": 7, "velocity": 74}, {"time": 1138, "pitch": 52, "duration": 11, "velocity": 69}, {"time": 1141, "pitch": 57, "duration": 6, "velocity": 76}, {"time": 1144, "pitch": 61, "duration": 4, "velocity": 79}, {"time": 1147, "pitch": 64, "duration": 8, "velocity": 78}, {"time": 1150, "pitch": 52, "duration": 4, "velocity": 77}, {"time": 1153, "pitch": 57, "duration": 4, "velocity": 77}, {"time": 1156, "pitch": 61, "duration": 2, "velocity": 77}, {"time": 1159, "pitch": 43, "duration": 20, "velocity": 76}, {"time": 1159, "pitch": 55, "duration": 6, "velocity": 72}, {"time": 1159, "pitch": 59, "duration": 8, "velocity": 75}, {"time": 1165, "pitch": 50, "duration": 8, "velocity": 73}, {"time": 1168, "pitch": 55, "duration": 3, "velocity": 74}, {"time": 1171, "pitch": 62, "duration": 7, "velocity": 77}, {"time": 1174, "pitch": 50, "duration": 6, "velocity": 75}, {"time": 1177, "pitch": 55, "duration": 4, "velocity": 77}, {"time": 1183, "pitch": 45, "duration": 21, "velocity": 77}, {"time": 1183, "pitch": 57, "duration": 3, "velocity": 76}, {"time": 1183, "pitch": 61, "duration": 4, "velocity": 74}, {"time": 1186, "pitch": 52, "duration": 10, "velocity": 76}, {"time": 1189, "pitch": 57, "duration": 4, "velocity": 78}, {"time": 1192, "pitch": 61, "duration": 1, "velocity": 78}, {"time": 1195, "pitch": 57, "duration": 4, "velocity": 78}, {"time": 1195, "pitch": 64, "duration": 6, "velocity": 81}, {"time": 1198, "pitch": 52, "duration": 7, "velocity": 79}, {"time": 1201, "pitch": 57, "duration": 3, "velocity": 77}, {"time": 1207, "pitch": 50, "duration": 18, "velocity": 78}, {"time": 1207, "pitch": 57, "duration": 2, "velocity": 70}, {"time": 1207, "pitch": 62, "duration": 4, "velocity": 75}, {"time": 1210, "pitch": 57, "duration": 4, "velocity": 69}, {"time": 1213, "pitch": 62, "duration": 3, "velocity": 69}, {"time": 1216, "pitch": 57, "duration": 4, "velocity": 70}, {"time": 1219, "pitch": 66, "duration": 5, "velocity": 78}, {"time": 1222, "pitch": 57, "duration": 3, "velocity": 74}, {"time": 1225, "pitch": 62, "duration": 3, "velocity": 69}, {"time": 1231, "pitch": 45, "duration": 18, "velocity": 76}, {"time": 1231, "pitch": 57, "duration": 6, "velocity": 70}, {"time": 1231, "pitch": 61, "duration": 9, "velocity": 75}, {"time": 1237, "pitch": 52, "duration": 7, "velocity": 76}, {"time": 1240, "pitch": 57, "duration": 2, "velocity": 76}, {"time": 1243, "pitch": 57, "duration": 3, "velocity": 77}, {"time": 1243, "pitch": 64, "duration": 5, "velocity": 79}, {"time": 1246, "pitch": 52, "duration": 4, "velocity": 76}, {"time": 1249, "pitch": 57, "duration": 3, "velocity": 77}, {"time": 1255, "pitch": 47, "duration": 18, "velocity": 77}, {"time": 1255, "pitch": 59, "duration": 7, "velocity": 76}, {"time": 1255, "pitch": 62, "duration": 9, "velocity": 76}, {"time": 1261, "pitch": 54, "duration": 7, "velocity": 66}, {"time": 1264, "pitch": 59, "duration": 2, "velocity": 76}, {"time": 1267, "pitch": 59, "duration": 3, "velocity": 80}, {"time": 1267, "pitch": 66, "duration": 5, "velocity": 72}, {"time": 1270, "pitch": 54, "duration": 2, "velocity": 72}, {"time": 1273, "pitch": 59, "duration": 4, "velocity": 77}, {"time": 1276, "pitch": 62, "duration": 7, "velocity": 73}, {"time": 1279, "pitch": 43, "duration": 19, "velocity": 76}, {"time": 1282, "pitch": 50, "duration": 9, "velocity": 69}, {"time": 1285, "pitch": 55, "duration": 5, "velocity": 73}, {"time": 1288, "pitch": 59, "duration": 2, "velocity": 78}, {"time": 1291, "pitch": 62, "duration": 4, "velocity": 80}, {"time": 1294, "pitch": 50, "duration": 4, "velocity": 71}, {"time": 1297, "pitch": 55, "duration": 2, "velocity": 77}, {"time": 1303, "pitch": 50, "duration": 23, "velocity": 77}, {"time": 1303, "pitch": 57, "duration": 3, "velocity": 72}, {"time": 1303, "pitch": 62, "duration": 7, "velocity": 76}, {"time": 1309, "pitch": 57, "duration": 5, "velocity": 76}, {"time": 1315, "pitch": 62, "duration": 6, "velocity": 77}, {"time": 1315, "pitch": 66, "duration": 7, "velocity": 76}, {"time": 1321, "pitch": 57, "duration": 4, "velocity": 76}, {"time": 1324, "pitch": 62, "duration": 4, "velocity": 71}, {"time": 1327, "pitch": 45, "duration": 19, "velocity": 69}, {"time": 1327, "pitch": 61, "duration": 10, "velocity": 80}, {"time": 1333, "pitch": 52, "duration": 9, "velocity": 77}, {"time": 1339, "pitch": 57, "duration": 3, "velocity": 68}, {"time": 1339, "pitch": 61, "duration": 6, "velocity": 72}, {"time": 1339, "pitch": 64, "duration": 7, "velocity": 77}, {"time": 1345, "pitch": 57, "duration": 3, "velocity": 76}, {"time": 1351, "pitch": 43, "duration": 21, "velocity": 76}, {"time": 1351, "pitch": 55, "duration": 5, "velocity": 70}, {"time": 1351, "pitch": 59, "duration": 8, "velocity": 71}, {"time": 1357, "pitch": 50, "duration": 10, "velocity": 71}, {"time": 1360, "pitch": 55, "duration": 4, "velocity": 76}, {"time": 1363, "pitch": 62, "duration": 4, "velocity": 74}, {"time": 1366, "pitch": 55, "duration": 4, "velocity": 78}, {"time": 1369, "pitch": 59, "duration": 4, "velocity": 70}, {"time": 1372, "pitch": 55, "duration": 3, "velocity": 77}, {"time": 1375, "pitch": 45, "duration": 21, "velocity": 77}, {"time": 1375, "pitch": 61, "duration": 6, "velocity": 78}, {"time": 1378, "pitch": 52, "duration": 16, "velocity": 74}, {"time": 1381, "pitch": 57, "duration": 4, "velocity": 80}, {"time": 1384, "pitch": 61, "duration": 3, "velocity": 80}, {"time": 1387, "pitch": 64, "duration": 4, "velocity": 76}, {"time": 1390, "pitch": 61, "duration": 3, "velocity": 80}, {"time": 1393, "pitch": 57, "duration": 4, "velocity": 78}, {"time": 1399, "pitch": 50, "duration": 17, "velocity": 72}, {"time": 1399, "pitch": 62, "duration": 6, "velocity": 67}, {"time": 1399, "pitch": 66, "duration": 7, "velocity": 67}, {"time": 1405, "pitch": 57, "duration": 11, "velocity": 61}, {"time": 1411, "pitch": 66, "duration": 6, "velocity": 77}, {"time": 1417, "pitch": 62, "duration": 6, "velocity": 71}, {"time": 1423, "pitch": 45, "duration": 17, "velocity": 71}, {"time": 1423, "pitch": 64, "duration": 7, "velocity": 72}, {"time": 1429, "pitch": 52, "duration": 11, "velocity": 57}, {"time": 1429, "pitch": 57, "duration": 9, "velocity": 70}, {"time": 1435, "pitch": 61, "duration": 4, "velocity": 66}, {"time": 1435, "pitch": 64, "duration": 4, "velocity": 76}, {"time": 1447, "pitch": 47, "duration": 16, "velocity": 69}, {"time": 1447, "pitch": 59, "duration": 8, "velocity": 63}, {"time": 1447, "pitch": 62, "duration": 8, "velocity": 65}, {"time": 1453, "pitch": 54, "duration": 7, "velocity": 55}, {"time": 1459, "pitch": 66, "duration": 6, "velocity": 74}, {"time": 1465, "pitch": 59, "duration": 3, "velocity": 72}, {"time": 1471, "pitch": 45, "duration": 15, "velocity": 65}, {"time": 1471, "pitch": 57, "duration": 8, "velocity": 65}, {"time": 1471, "pitch": 61, "duration": 12, "velocity": 54}, {"time": 1477, "pitch": 52, "duration": 9, "velocity": 61}, {"time": 1483, "pitch": 57, "duration": 4, "velocity": 68}, {"time": 1495, "pitch": 43, "duration": 16, "velocity": 72}, {"time": 1495, "pitch": 55, "duration": 6, "velocity": 68}, {"time": 1495, "pitch": 62, "duration": 9, "velocity": 70}, {"time": 1501, "pitch": 50, "duration": 10, "velocity": 62}, {"time": 1507, "pitch": 55, "duration": 3, "velocity": 70}, {"time": 1507, "pitch": 59, "duration": 6, "velocity": 71}, {"time": 1519, "pitch": 45, "duration": 21, "velocity": 73}, {"time": 1519, "pitch": 57, "duration": 6, "velocity": 67}, {"time": 1519, "pitch": 61, "duration": 10, "velocity": 61}, {"time": 1525, "pitch": 52, "duration": 15, "velocity": 71}, {"time": 1531, "pitch": 61, "duration": 5, "velocity": 81}, {"time": 1537, "pitch": 57, "duration": 7, "velocity": 77}, {"time": 1543, "pitch": 50, "duration": 18, "velocity": 75}, {"time": 1543, "pitch": 62, "duration": 8, "velocity": 76}, {"time": 1549, "pitch": 57, "duration": 7, "velocity": 72}, {"time": 1555, "pitch": 66, "duration": 7, "velocity": 76}, {"time": 1561, "pitch": 57, "duration": 4, "velocity": 72}, {"time": 1567, "pitch": 45, "duration": 24, "velocity": 75}, {"time": 1567, "pitch": 57, "duration": 7, "velocity": 68}, {"time": 1567, "pitch": 61, "duration": 7, "velocity": 63}, {"time": 1573, "pitch": 52, "duration": 18, "velocity": 75}, {"time": 1579, "pitch": 57, "duration": 2, "velocity": 65}, {"time": 1579, "pitch": 61, "duration": 8, "velocity": 77}, {"time": 1579, "pitch": 64, "duration": 11, "velocity": 77}, {"time": 1585, "pitch": 57, "duration": 6, "velocity": 80}, {"time": 1591, "pitch": 50, "duration": 17, "velocity": 72}, {"time": 1591, "pitch": 62, "duration": 6, "velocity": 67}, {"time": 1591, "pitch": 66, "duration": 7, "velocity": 67}, {"time": 1597, "pitch": 57, "duration": 11, "velocity": 61}, {"time": 1603, "pitch": 66, "duration": 6, "velocity": 77}, {"time": 1609, "pitch": 62, "duration": 6, "velocity": 71}, {"time": 1615, "pitch": 45, "duration": 17, "velocity": 71}, {"time": 1615, "pitch": 64, "duration": 7, "velocity": 72}, {"time": 1621, "pitch": 52, "duration": 11, "velocity": 57}, {"time": 1621, "pitch": 57, "duration": 9, "velocity": 70}, {"time": 1627, "pitch": 61, "duration": 4, "velocity": 66}, {"time": 1627, "pitch": 64, "duration": 4, "velocity": 76}, {"time": 1639, "pitch": 47, "duration": 16, "velocity": 69}, {"time": 1639, "pitch": 59, "duration": 8, "velocity": 63}, {"time": 1639, "pitch": 62, "duration": 8, "velocity": 65}, {"time": 1645, "pitch": 54, "duration": 7, "velocity": 55}, {"time": 1651, "pitch": 66, "duration": 6, "velocity": 74}, {"time": 1657, "pitch": 59, "duration": 3, "velocity": 72}, {"time": 1663, "pitch": 45, "duration": 15, "velocity": 65}, {"time": 1663, "pitch": 57, "duration": 8, "velocity": 65}, {"time": 1663, "pitch": 61, "duration": 12, "velocity": 54}, {"time": 1669, "pitch": 52, "duration": 9, "velocity": 61}, {"time": 1675, "pitch": 57, "duration": 4, "velocity": 68}, {"time": 1687, "pitch": 43, "duration": 16, "velocity": 72}, {"time": 1687, "pitch": 55, "duration": 6, "velocity": 68}, {"time": 1687, "pitch": 62, "duration": 9, "velocity": 70}, {"time": 1693, "pitch": 50, "duration": 10, "velocity": 62}, {"time": 1699, "pitch": 55, "duration": 3, "velocity": 70}, {"time": 1699, "pitch": 59, "duration": 6, "velocity": 71}, {"time": 1711, "pitch": 45, "duration": 21, "velocity": 73}, {"time": 1711, "pitch": 57, "duration": 6, "velocity": 67}, {"time": 1711, "pitch": 61, "duration": 10, "velocity": 61}, {"time": 1717, "pitch": 52, "duration": 15, "velocity": 71}, {"time": 1723, "pitch": 61, "duration": 5, "velocity": 81}, {"time": 1729, "pitch": 57, "duration": 7, "velocity": 77}, {"time": 1735, "pitch": 50, "duration": 42, "velocity": 77}, {"time": 1741, "pitch": 57, "duration": 8, "velocity": 68}, {"time": 1747, "pitch": 66, "duration": 16, "velocity": 72}, {"time": 1753, "pitch": 57, "duration": 7, "velocity": 55}, {"time": 1759, "pitch": 62, "duration": 12, "velocity": 66}, {"time": 1765, "pitch": 57, "duration": 12, "velocity": 52}, {"time": 1771, "pitch": 66, "duration": 13, "velocity": 60}, {"time": 1771, "pitch": 69, "duration": 13, "velocity": 65}, {"time": 1783, "pitch": 50, "duration": 19, "velocity": 78}, {"time": 1789, "pitch": 57, "duration": 18, "velocity": 65}, {"time": 1795, "pitch": 66, "duration": 6, "velocity": 78}, {"time": 1801, "pitch": 62, "duration": 7, "velocity": 74}, {"time": 1807, "pitch": 49, "duration": 14, "velocity": 68}, {"time": 1807, "pitch": 64, "duration": 13, "velocity": 73}, {"time": 1813, "pitch": 57, "duration": 7, "velocity": 65}, {"time": 1819, "pitch": 61, "duration": 3, "velocity": 76}, {"time": 1831, "pitch": 47, "duration": 15, "velocity": 68}, {"time": 1831, "pitch": 62, "duration": 13, "velocity": 72}, {"time": 1837, "pitch": 54, "duration": 7, "velocity": 62}, {"time": 1843, "pitch": 59, "duration": 7, "velocity": 77}, {"time": 1849, "pitch": 62, "duration": 7, "velocity": 69}, {"time": 1855, "pitch": 45, "duration": 15, "velocity": 72}, {"time": 1855, "pitch": 61, "duration": 12, "velocity": 76}, {"time": 1861, "pitch": 52, "duration": 8, "velocity": 70}, {"time": 1867, "pitch": 57, "duration": 3, "velocity": 77}, {"time": 1879, "pitch": 43, "duration": 16, "velocity": 72}, {"time": 1879, "pitch": 55, "duration": 6, "velocity": 71}, {"time": 1879, "pitch": 59, "duration": 12, "velocity": 71}, {"time": 1885, "pitch": 50, "duration": 10, "velocity": 72}, {"time": 1891, "pitch": 55, "duration": 7, "velocity": 79}, {"time": 1897, "pitch": 59, "duration": 7, "velocity": 70}, {"time": 1903, "pitch": 42, "duration": 14, "velocity": 64}, {"time": 1903, "pitch": 57, "duration": 14, "velocity": 72}, {"time": 1909, "pitch": 49, "duration": 8, "velocity": 62}, {"time": 1915, "pitch": 62, "duration": 11, "velocity": 74}, {"time": 1927, "pitch": 40, "duration": 17, "velocity": 62}, {"time": 1927, "pitch": 59, "duration": 5, "velocity": 64}, {"time": 1927, "pitch": 64, "duration": 12, "velocity": 76}, {"time": 1933, "pitch": 47, "duration": 11, "velocity": 65}, {"time": 1939, "pitch": 67, "duration": 8, "velocity": 75}, {"time": 1945, "pitch": 59, "duration": 3, "velocity": 77}, {"time": 1951, "pitch": 45, "duration": 22, "velocity": 76}, {"time": 1951, "pitch": 61, "duration": 12, "velocity": 72}, {"time": 1957, "pitch": 52, "duration": 13, "velocity": 68}, {"time": 1963, "pitch": 57, "duration": 7, "velocity": 75}, {"time": 1969, "pitch": 61, "duration": 7, "velocity": 76}, {"time": 1975, "pitch": 50, "duration": 21, "velocity": 75}, {"time": 1975, "pitch": 62, "duration": 6, "velocity": 76}, {"time": 1981, "pitch": 57, "duration": 7, "velocity": 77}, {"time": 1987, "pitch": 66, "duration": 6, "velocity": 69}, {"time": 1993, "pitch": 57, "duration": 8, "velocity": 77}, {"time": 1999, "pitch": 45, "duration": 18, "velocity": 70}, {"time": 1999, "pitch": 64, "duration": 8, "velocity": 76}, {"time": 2005, "pitch": 57, "duration": 7, "velocity": 71}, {"time": 2011, "pitch": 61, "duration": 7, "velocity": 78}, {"time": 2017, "pitch": 57, "duration": 3, "velocity": 76}, {"time": 2023, "pitch": 47, "duration": 16, "velocity": 74}, {"time": 2023, "pitch": 62, "duration": 12, "velocity": 72}, {"time": 2029, "pitch": 54, "duration": 8, "velocity": 65}, {"time": 2035, "pitch": 59, "duration": 7, "velocity": 72}, {"time": 2041, "pitch": 62, "duration": 7, "velocity": 76}, {"time": 2047, "pitch": 45, "duration": 18, "velocity": 76}, {"time": 2047, "pitch": 57, "duration": 7, "velocity": 70}, {"time": 2047, "pitch": 61, "duration": 10, "velocity": 76}, {"time": 2053, "pitch": 52, "duration": 11, "velocity": 77}, {"time": 2059, "pitch": 57, "duration": 6, "velocity": 80}, {"time": 2065, "pitch": 61, "duration": 6, "velocity": 80}, {"time": 2071, "pitch": 43, "duration": 15, "velocity": 72}, {"time": 2071, "pitch": 55, "duration": 9, "velocity": 76}, {"time": 2071, "pitch": 59, "duration": 9, "velocity": 72}, {"time": 2077, "pitch": 50, "duration": 8, "velocity": 70}, {"time": 2083, "pitch": 55, "duration": 2, "velocity": 71}, {"time": 2083, "pitch": 59, "duration": 6, "velocity": 73}, {"time": 2083, "pitch": 62, "duration": 7, "velocity": 72}, {"time": 2089, "pitch": 55, "duration": 2, "velocity": 75}, {"time": 2095, "pitch": 42, "duration": 13, "velocity": 72}, {"time": 2095, "pitch": 57, "duration": 13, "velocity": 71}, {"time": 2095, "pitch": 61, "duration": 9, "velocity": 67}, {"time": 2101, "pitch": 49, "duration": 7, "velocity": 61}, {"time": 2107, "pitch": 61, "duration": 7, "velocity": 83}, {"time": 2107, "pitch": 66, "duration": 6, "velocity": 76}, {"time": 2113, "pitch": 57, "duration": 5, "velocity": 76}, {"time": 2119, "pitch": 40, "duration": 16, "velocity": 78}, {"time": 2119, "pitch": 64, "duration": 7, "velocity": 76}, {"time": 2125, "pitch": 59, "duration": 7, "velocity": 75}, {"time": 2131, "pitch": 67, "duration": 7, "velocity": 75}, {"time": 2137, "pitch": 59, "duration": 3, "velocity": 80}, {"time": 2143, "pitch": 45, "duration": 23, "velocity": 76}, {"time": 2143, "pitch": 61, "duration": 10, "velocity": 79}, {"time": 2149, "pitch": 52, "duration": 16, "velocity": 76}, {"time": 2155, "pitch": 61, "duration": 4, "velocity": 83}, {"time": 2158, "pitch": 62, "duration": 3, "velocity": 77}, {"time": 2161, "pitch": 64, "duration": 5, "velocity": 78}, {"time": 2167, "pitch": 47, "duration": 20, "velocity": 72}, {"time": 2167, "pitch": 62, "duration": 9, "velocity": 58}, {"time": 2173, "pitch": 54, "duration": 7, "velocity": 66}, {"time": 2176, "pitch": 59, "duration": 4, "velocity": 76}, {"time": 2179, "pitch": 66, "duration": 9, "velocity": 76}, {"time": 2182, "pitch": 54, "duration": 3, "velocity": 68}, {"time": 2185, "pitch": 59, "duration": 5, "velocity": 73}, {"time": 2188, "pitch": 62, "duration": 8, "velocity": 67}, {"time": 2191, "pitch": 43, "duration": 21, "velocity": 75}, {"time": 2194, "pitch": 50, "duration": 11, "velocity": 66}, {"time": 2197, "pitch": 55, "duration": 4, "velocity": 69}, {"time": 2200, "pitch": 59, "duration": 3, "velocity": 77}, {"time": 2203, "pitch": 62, "duration": 8, "velocity": 76}, {"time": 2209, "pitch": 55, "duration": 5, "velocity": 75}, {"time": 2215, "pitch": 50, "duration": 22, "velocity": 68}, {"time": 2218, "pitch": 57, "duration": 3, "velocity": 76}, {"time": 2221, "pitch": 62, "duration": 4, "velocity": 70}, {"time": 2224, "pitch": 57, "duration": 4, "velocity": 70}, {"time": 2227, "pitch": 66, "duration": 4, "velocity": 77}, {"time": 2230, "pitch": 57, "duration": 4, "velocity": 76}, {"time": 2233, "pitch": 62, "duration": 4, "velocity": 69}, {"time": 2236, "pitch": 57, "duration": 5, "velocity": 73}, {"time": 2239, "pitch": 45, "duration": 22, "velocity": 74}, {"time": 2242, "pitch": 52, "duration": 20, "velocity": 64}, {"time": 2245, "pitch": 57, "duration": 4, "velocity": 74}, {"time": 2248, "pitch": 59, "duration": 4, "velocity": 78}, {"time": 2251, "pitch": 61, "duration": 7, "velocity": 80}, {"time": 2257, "pitch": 62, "duration": 4, "velocity": 77}, {"time": 2263, "pitch": 47, "duration": 17, "velocity": 77}, {"time": 2263, "pitch": 59, "duration": 6, "velocity": 71}, {"time": 2263, "pitch": 62, "duration": 7, "velocity": 73}, {"time": 2269, "pitch": 54, "duration": 8, "velocity": 72}, {"time": 2272, "pitch": 59, "duration": 3, "velocity": 77}, {"time": 2275, "pitch": 66, "duration": 4, "velocity": 71}, {"time": 2278, "pitch": 59, "duration": 4, "velocity": 76}, {"time": 2281, "pitch": 62, "duration": 4, "velocity": 69}, {"time": 2284, "pitch": 59, "duration": 5, "velocity": 66}, {"time": 2287, "pitch": 43, "duration": 21, "velocity": 76}, {"time": 2290, "pitch": 50, "duration": 11, "velocity": 68}, {"time": 2293, "pitch": 55, "duration": 3, "velocity": 68}, {"time": 2296, "pitch": 57, "duration": 5, "velocity": 59}, {"time": 2299, "pitch": 59, "duration": 8, "velocity": 73}, {"time": 2305, "pitch": 50, "duration": 4, "velocity": 77}, {"time": 2311, "pitch": 50, "duration": 19, "velocity": 77}, {"time": 2311, "pitch": 57, "duration": 3, "velocity": 72}, {"time": 2311, "pitch": 62, "duration": 14, "velocity": 72}, {"time": 2317, "pitch": 57, "duration": 7, "velocity": 64}, {"time": 2323, "pitch": 66, "duration": 6, "velocity": 78}, {"time": 2329, "pitch": 57, "duration": 3, "velocity": 76}, {"time": 2335, "pitch": 45, "duration": 20, "velocity": 77}, {"time": 2335, "pitch": 57, "duration": 3, "velocity": 69}, {"time": 2335, "pitch": 61, "duration": 6, "velocity": 64}, {"time": 2338, "pitch": 52, "duration": 16, "velocity": 70}, {"time": 2341, "pitch": 57, "duration": 6, "velocity": 77}, {"time": 2344, "pitch": 61, "duration": 4, "velocity": 77}, {"time": 2347, "pitch": 69, "duration": 6, "velocity": 78}, {"time": 2350, "pitch": 61, "duration": 4, "velocity": 76}, {"time": 2353, "pitch": 57, "duration": 3, "velocity": 78}, {"time": 2359, "pitch": 50, "duration": 20, "velocity": 76}, {"time": 2359, "pitch": 57, "duration": 3, "velocity": 71}, {"time": 2359, "pitch": 62, "duration": 7, "velocity": 74}, {"time": 2365, "pitch": 57, "duration": 5, "velocity": 74}, {"time": 2368, "pitch": 62, "duration": 3, "velocity": 71}, {"time": 2371, "pitch": 66, "duration": 5, "velocity": 79}, {"time": 2374, "pitch": 57, "duration": 4, "velocity": 73}, {"time": 2377, "pitch": 62, "duration": 3, "velocity": 70}, {"time": 2380, "pitch": 57, "duration": 4, "velocity": 66}, {"time": 2383, "pitch": 45, "duration": 20, "velocity": 77}, {"time": 2383, "pitch": 61, "duration": 10, "velocity": 75}, {"time": 2389, "pitch": 52, "duration": 10, "velocity": 76}, {"time": 2392, "pitch": 57, "duration": 3, "velocity": 76}, {"time": 2395, "pitch": 64, "duration": 7, "velocity": 77}, {"time": 2398, "pitch": 57, "duration": 4, "velocity": 74}, {"time": 2401, "pitch": 61, "duration": 3, "velocity": 75}, {"time": 2407, "pitch": 47, "duration": 17, "velocity": 75}, {"time": 2407, "pitch": 59, "duration": 6, "velocity": 70}, {"time": 2407, "pitch": 62, "duration": 10, "velocity": 74}, {"time": 2413, "pitch": 54, "duration": 8, "velocity": 64}, {"time": 2416, "pitch": 59, "duration": 3, "velocity": 77}, {"time": 2419, "pitch": 66, "duration": 5, "velocity": 79}, {"time": 2422, "pitch": 59, "duration": 3, "velocity": 77}, {"time": 2425, "pitch": 62, "duration": 4, "velocity": 68}, {"time": 2428, "pitch": 59, "duration": 4, "velocity": 70}, {"time": 2431, "pitch": 43, "duration": 18, "velocity": 76}, {"time": 2437, "pitch": 50, "duration": 12, "velocity": 74}, {"time": 2440, "pitch": 55, "duration": 5, "velocity": 77}, {"time": 2443, "pitch": 59, "duration": 4, "velocity": 77}, {"time": 2446, "pitch": 62, "duration": 4, "velocity": 76}, {"time": 2449, "pitch": 55, "duration": 3, "velocity": 76}, {"time": 2455, "pitch": 50, "duration": 21, "velocity": 77}, {"time": 2455, "pitch": 57, "duration": 3, "velocity": 69}, {"time": 2455, "pitch": 62, "duration": 7, "velocity": 76}, {"time": 2461, "pitch": 57, "duration": 7, "velocity": 72}, {"time": 2467, "pitch": 66, "duration": 6, "velocity": 79}, {"time": 2473, "pitch": 57, "duration": 4, "velocity": 77}, {"time": 2479, "pitch": 45, "duration": 20, "velocity": 77}, {"time": 2479, "pitch": 57, "duration": 3, "velocity": 70}, {"time": 2479, "pitch": 61, "duration": 7, "velocity": 74}, {"time": 2482, "pitch": 52, "duration": 11, "velocity": 69}, {"time": 2485, "pitch": 57, "duration": 6, "velocity": 76}, {"time": 2488, "pitch": 61, "duration": 4, "velocity": 79}, {"time": 2491, "pitch": 64, "duration": 8, "velocity": 78}, {"time": 2494, "pitch": 52, "duration": 4, "velocity": 77}, {"time": 2497, "pitch": 57, "duration": 4, "velocity": 77}, {"time": 2500, "pitch": 61, "duration": 2, "velocity": 77}, {"time": 2503, "pitch": 43, "duration": 20, "velocity": 76}, {"time": 2503, "pitch": 55, "duration": 6, "velocity": 72}, {"time": 2503, "pitch": 59, "duration": 8, "velocity": 75}, {"time": 2509, "pitch": 50, "duration": 8, "velocity": 73}, {"time": 2512, "pitch": 55, "duration": 3, "velocity": 74}, {"time": 2515, "pitch": 62, "duration": 7, "velocity": 77}, {"time": 2518, "pitch": 50, "duration": 6, "velocity": 75}, {"time": 2521, "pitch": 55, "duration": 4, "velocity": 77}, {"time": 2527, "pitch": 45, "duration": 21, "velocity": 77}, {"time": 2527, "pitch": 57, "duration": 3, "velocity": 76}, {"time": 2527, "pitch": 61, "duration": 4, "velocity": 74}, {"time": 2530, "pitch": 52, "duration": 10, "velocity": 76}, {"time": 2533, "pitch": 57, "duration": 4, "velocity": 78}, {"time": 2536, "pitch": 61, "duration": 1, "velocity": 78}, {"time": 2539, "pitch": 57, "duration": 4, "velocity": 78}, {"time": 2539, "pitch": 64, "duration": 6, "velocity": 81}, {"time": 2542, "pitch": 52, "duration": 7, "velocity": 79}, {"time": 2545, "pitch": 57, "duration": 3, "velocity": 77}, {"time": 2551, "pitch": 50, "duration": 18, "velocity": 78}, {"time": 2551, "pitch": 57, "duration": 2, "velocity": 70}, {"time": 2551, "pitch": 62, "duration": 4, "velocity": 75}, {"time": 2554, "pitch": 57, "duration": 4, "velocity": 69}, {"time": 2557, "pitch": 62, "duration": 3, "velocity": 69}, {"time": 2560, "pitch": 57, "duration": 4, "velocity": 70}, {"time": 2563, "pitch": 66, "duration": 5, "velocity": 78}, {"time": 2566, "pitch": 57, "duration": 3, "velocity": 74}, {"time": 2569, "pitch": 62, "duration": 3, "velocity": 69}, {"time": 2575, "pitch": 45, "duration": 18, "velocity": 76}, {"time": 2575, "pitch": 57, "duration": 6, "velocity": 70}, {"time": 2575, "pitch": 61, "duration": 9, "velocity": 75}, {"time": 2581, "pitch": 52, "duration": 7, "velocity": 76}, {"time": 2584, "pitch": 57, "duration": 2, "velocity": 76}, {"time": 2587, "pitch": 57, "duration": 3, "velocity": 77}, {"time": 2587, "pitch": 64, "duration": 5, "velocity": 79}, {"time": 2590, "pitch": 52, "duration": 4, "velocity": 76}, {"time": 2593, "pitch": 57, "duration": 3, "velocity": 77}, {"time": 2599, "pitch": 47, "duration": 18, "velocity": 77}, {"time": 2599, "pitch": 59, "duration": 7, "velocity": 76}, {"time": 2599, "pitch": 62, "duration": 9, "velocity": 76}, {"time": 2605, "pitch": 54, "duration": 7, "velocity": 66}, {"time": 2608, "pitch": 59, "duration": 2, "velocity": 76}, {"time": 2611, "pitch": 59, "duration": 3, "velocity": 80}, {"time": 2611, "pitch": 66, "duration": 5, "velocity": 72}, {"time": 2614, "pitch": 54, "duration": 2, "velocity": 72}, {"time": 2617, "pitch": 59, "duration": 4, "velocity": 77}, {"time": 2620, "pitch": 62, "duration": 7, "velocity": 73}, {"time": 2623, "pitch": 43, "duration": 19, "velocity": 76}, {"time": 2626, "pitch": 50, "duration": 9, "velocity": 69}, {"time": 2629, "pitch": 55, "duration": 5, "velocity": 73}, {"time": 2632, "pitch": 59, "duration": 2, "velocity": 78}, {"time": 2635, "pitch": 62, "duration": 4, "velocity": 80}, {"time": 2638, "pitch": 50, "duration": 4, "velocity": 71}, {"time": 2641, "pitch": 55, "duration": 2, "velocity": 77}, {"time": 2647, "pitch": 50, "duration": 23, "velocity": 77}, {"time": 2647, "pitch": 57, "duration": 3, "velocity": 72}, {"time": 2647, "pitch": 62, "duration": 7, "velocity": 76}, {"time": 2653, "pitch": 57, "duration": 5, "velocity": 76}, {"time": 2659, "pitch": 62, "duration": 6, "velocity": 77}, {"time": 2659, "pitch": 66, "duration": 7, "velocity": 76}, {"time": 2665, "pitch": 57, "duration": 4, "velocity": 76}, {"time": 2668, "pitch": 62, "duration": 4, "velocity": 71}, {"time": 2671, "pitch": 45, "duration": 19, "velocity": 69}, {"time": 2671, "pitch": 61, "duration": 10, "velocity": 80}, {"time": 2677, "pitch": 52, "duration": 9, "velocity": 77}, {"time": 2683, "pitch": 57, "duration": 3, "velocity": 68}, {"time": 2683, "pitch": 61, "duration": 6, "velocity": 72}, {"time": 2683, "pitch": 64, "duration": 7, "velocity": 77}, {"time": 2689, "pitch": 57, "duration": 3, "velocity": 76}, {"time": 2695, "pitch": 43, "duration": 21, "velocity": 76}, {"time": 2695, "pitch": 55, "duration": 5, "velocity": 70}, {"time": 2695, "pitch": 59, "duration": 8, "velocity": 71}, {"time": 2701, "pitch": 50, "duration": 10, "velocity": 71}, {"time": 2704, "pitch": 55, "duration": 4, "velocity": 76}, {"time": 2707, "pitch": 62, "duration": 4, "velocity": 74}, {"time": 2710, "pitch": 55, "duration": 4, "velocity": 78}, {"time": 2713, "pitch": 59, "duration": 4, "velocity": 70}, {"time": 2716, "pitch": 55, "duration": 3, "velocity": 77}, {"time": 2719, "pitch": 45, "duration": 21, "velocity": 77}, {"time": 2719, "pitch": 61, "duration": 6, "velocity": 78}, {"time": 2722, "pitch": 52, "duration": 16, "velocity": 74}, {"time": 2725, "pitch": 57, "duration": 4, "velocity": 80}, {"time": 2728, "pitch": 61, "duration": 3, "velocity": 80}, {"time": 2731, "pitch": 64, "duration": 4, "velocity": 76}, {"time": 2734, "pitch": 61, "duration": 3, "velocity": 80}, {"time": 2737, "pitch": 57, "duration": 4, "velocity": 78}, {"time": 2743, "pitch": 38, "duration": 41, "velocity": 77}, {"time": 2743, "pitch": 62, "duration": 13, "velocity": 75}, {"time": 2749, "pitch": 45, "duration": 34, "velocity": 68}, {"time": 2755, "pitch": 57, "duration": 12, "velocity": 77}, {"time": 2761, "pitch": 62, "duration": 7, "velocity": 73}, {"time": 2767, "pitch": 66, "duration": 7, "velocity": 76}, {"time": 2773, "pitch": 57, "duration": 7, "velocity": 73}, {"time": 2779, "pitch": 62, "duration": 7, "velocity": 76}, {"time": 2785, "pitch": 64, "duration": 5, "velocity": 69}, {"time": 2791, "pitch": 41, "duration": 21, "velocity": 74}, {"time": 2791, "pitch": 60, "duration": 25, "velocity": 76}, {"time": 2797, "pitch": 48, "duration": 35, "velocity": 68}, {"time": 2803, "pitch": 57, "duration": 6, "velocity": 72}, {"time": 2809, "pitch": 53, "duration": 5, "velocity": 72}, {"time": 2815, "pitch": 55, "duration": 8, "velocity": 71}, {"time": 2821, "pitch": 52, "duration": 7, "velocity": 76}, {"time": 2827, "pitch": 60, "duration": 7, "velocity": 76}, {"time": 2839, "pitch": 50, "duration": 23, "velocity": 76}, {"time": 2839, "pitch": 62, "duration": 13, "velocity": 65}, {"time": 2845, "pitch": 57, "duration": 7, "velocity": 76}, {"time": 2851, "pitch": 65, "duration": 13, "velocity": 77}, {"time": 2857, "pitch": 57, "duration": 7, "velocity": 77}, {"time": 2863, "pitch": 48, "duration": 13, "velocity": 72}, {"time": 2863, "pitch": 60, "duration": 7, "velocity": 68}, {"time": 2869, "pitch": 55, "duration": 7, "velocity": 74}, {"time": 2875, "pitch": 64, "duration": 7, "velocity": 77}, {"time": 2881, "pitch": 55, "duration": 4, "velocity": 69}, {"time": 2887, "pitch": 46, "duration": 17, "velocity": 73}, {"time": 2887, "pitch": 58, "duration": 8, "velocity": 75}, {"time": 2893, "pitch": 53, "duration": 7, "velocity": 76}, {"time": 2899, "pitch": 62, "duration": 8, "velocity": 78}, {"time": 2905, "pitch": 53, "duration": 2, "velocity": 77}, {"time": 2911, "pitch": 48, "duration": 22, "velocity": 77}, {"time": 2911, "pitch": 60, "duration": 8, "velocity": 76}, {"time": 2917, "pitch": 55, "duration": 7, "velocity": 72}, {"time": 2923, "pitch": 60, "duration": 8, "velocity": 72}, {"time": 2923, "pitch": 64, "duration": 10, "velocity": 79}, {"time": 2929, "pitch": 55, "duration": 8, "velocity": 75}, {"time": 2935, "pitch": 48, "duration": 6, "velocity": 73}, {"time": 2935, "pitch": 60, "duration": 6, "velocity": 70}, {"time": 2947, "pitch": 45, "duration": 13, "velocity": 77}, {"time": 2947, "pitch": 57, "duration": 3, "velocity": 75}, {"time": 2947, "pitch": 61, "duration": 7, "velocity": 78}, {"time": 2953, "pitch": 57, "duration": 6, "velocity": 80}, {"time": 2959, "pitch": 50, "duration": 17, "velocity": 72}, {"time": 2959, "pitch": 62, "duration": 6, "velocity": 67}, {"time": 2959, "pitch": 66, "duration": 7, "velocity": 67}, {"time": 2965, "pitch": 57, "duration": 11, "velocity": 61}, {"time": 2971, "pitch": 66, "duration": 6, "velocity": 77}, {"time": 2977, "pitch": 62, "duration": 6, "velocity": 71}, {"time": 2983, "pitch": 45, "duration": 17, "velocity": 71}, {"time": 2983, "pitch": 64, "duration": 7, "velocity": 72}, {"time": 2989, "pitch": 52, "duration": 11, "velocity": 57}, {"time": 2989, "pitch": 57, "duration": 9, "velocity": 70}, {"time": 2995, "pitch": 61, "duration": 4, "velocity": 66}, {"time": 2995, "pitch": 64, "duration": 4, "velocity": 76}, {"time": 3007, "pitch": 47, "duration": 16, "velocity": 69}, {"time": 3007, "pitch": 59, "duration": 8, "velocity": 63}, {"time": 3007, "pitch": 62, "duration": 8, "velocity": 65}, {"time": 3013, "pitch": 54, "duration": 7, "velocity": 55}, {"time": 3019, "pitch": 66, "duration": 6, "velocity": 74}, {"time": 3025, "pitch": 59, "duration": 3, "velocity": 72}, {"time": 3031, "pitch": 45, "duration": 15, "velocity": 65}, {"time": 3031, "pitch": 57, "duration": 8, "velocity": 65}, {"time": 3031, "pitch": 61, "duration": 12, "velocity": 54}, {"time": 3037, "pitch": 52, "duration": 9, "velocity": 61}, {"time": 3043, "pitch": 57, "duration": 4, "velocity": 68}, {"time": 3055, "pitch": 43, "duration": 16, "velocity": 72}, {"time": 3055, "pitch": 55, "duration": 6, "velocity": 68}, {"time": 3055, "pitch": 62, "duration": 9, "velocity": 70}, {"time": 3061, "pitch": 50, "duration": 10, "velocity": 62}, {"time": 3067, "pitch": 55, "duration": 3, "velocity": 70}, {"time": 3067, "pitch": 59, "duration": 6, "velocity": 71}, {"time": 3079, "pitch": 45, "duration": 21, "velocity": 73}, {"time": 3079, "pitch": 57, "duration": 6, "velocity": 67}, {"time": 3079, "pitch": 61, "duration": 10, "velocity": 61}, {"time": 3085, "pitch": 52, "duration": 15, "velocity": 71}, {"time": 3091, "pitch": 61, "duration": 5, "velocity": 81}, {"time": 3097, "pitch": 57, "duration": 7, "velocity": 77}, {"time": 3103, "pitch": 50, "duration": 42, "velocity": 77}, {"time": 3109, "pitch": 57, "duration": 8, "velocity": 68}, {"time": 3115, "pitch": 66, "duration": 16, "velocity": 72}, {"time": 3121, "pitch": 57, "duration": 7, "velocity": 55}, {"time": 3127, "pitch": 62, "duration": 12, "velocity": 66}, {"time": 3133, "pitch": 57, "duration": 12, "velocity": 52}, {"time": 3139, "pitch": 66, "duration": 13, "velocity": 60}, {"time": 3139, "pitch": 69, "duration": 13, "velocity": 65}, {"time": 3151, "pitch": 50, "duration": 20, "velocity": 76}, {"time": 3151, "pitch": 57, "duration": 3, "velocity": 71}, {"time": 3151, "pitch": 62, "duration": 7, "velocity": 74}, {"time": 3157, "pitch": 57, "duration": 5, "velocity": 74}, {"time": 3160, "pitch": 62, "duration": 3, "velocity": 71}, {"time": 3163, "pitch": 66, "duration": 5, "velocity": 79}, {"time": 3166, "pitch": 57, "duration": 4, "velocity": 73}, {"time": 3169, "pitch": 62, "duration": 3, "velocity": 70}, {"time": 3172, "pitch": 57, "duration": 4, "velocity": 66}, {"time": 3175, "pitch": 45, "duration": 20, "velocity": 77}, {"time": 3175, "pitch": 61, "duration": 10, "velocity": 75}, {"time": 3181, "pitch": 52, "duration": 10, "velocity": 76}, {"time": 3184, "pitch": 57, "duration": 3, "velocity": 76}, {"time": 3187, "pitch": 64, "duration": 7, "velocity": 77}, {"time": 3190, "pitch": 57, "duration": 4, "velocity": 74}, {"time": 3193, "pitch": 61, "duration": 3, "velocity": 75}, {"time": 3199, "pitch": 47, "duration": 17, "velocity": 75}, {"time": 3199, "pitch": 59, "duration": 6, "velocity": 70}, {"time": 3199, "pitch": 62, "duration": 10, "velocity": 74}, {"time": 3205, "pitch": 54, "duration": 8, "velocity": 64}, {"time": 3208, "pitch": 59, "duration": 3, "velocity": 77}, {"time": 3211, "pitch": 66, "duration": 5, "velocity": 79}, {"time": 3214, "pitch": 59, "duration": 3, "velocity": 77}, {"time": 3217, "pitch": 62, "duration": 4, "velocity": 68}, {"time": 3220, "pitch": 59, "duration": 4, "velocity": 70}, {"time": 3223, "pitch": 43, "duration": 18, "velocity": 76}, {"time": 3229, "pitch": 50, "duration": 12, "velocity": 74}, {"time": 3232, "pitch": 55, "duration": 5, "velocity": 77}, {"time": 3235, "pitch": 59, "duration": 4, "velocity": 77}, {"time": 3238, "pitch": 62, "duration": 4, "velocity": 76}, {"time": 3241, "pitch": 55, "duration": 3, "velocity": 76}, {"time": 3247, "pitch": 50, "duration": 21, "velocity": 77}, {"time": 3247, "pitch": 57, "duration": 3, "velocity": 69}, {"time": 3247, "pitch": 62, "duration": 7, "velocity": 76}, {"time": 3253, "pitch": 57, "duration": 7, "velocity": 72}, {"time": 3259, "pitch": 66, "duration": 6, "velocity": 79}, {"time": 3265, "pitch": 57, "duration": 4, "velocity": 77}, {"time": 3271, "pitch": 45, "duration": 20, "velocity": 77}, {"time": 3271, "pitch": 57, "duration": 3, "velocity": 70}, {"time": 3271, "pitch": 61, "duration": 7, "velocity": 74}, {"time": 3274, "pitch": 52, "duration": 11, "velocity": 69}, {"time": 3277, "pitch": 57, "duration": 6, "velocity": 76}, {"time": 3280, "pitch": 61, "duration": 4, "velocity": 79}, {"time": 3283, "pitch": 64, "duration": 8, "velocity": 78}, {"time": 3286, "pitch": 52, "duration": 4, "velocity": 77}, {"time": 3289, "pitch": 57, "duration": 4, "velocity": 77}, {"time": 3292, "pitch": 61, "duration": 2, "velocity": 77}, {"time": 3295, "pitch": 43, "duration": 20, "velocity": 76}, {"time": 3295, "pitch": 55, "duration": 6, "velocity": 72}, {"time": 3295, "pitch": 59, "duration": 8, "velocity": 75}, {"time": 3301, "pitch": 50, "duration": 8, "velocity": 73}, {"time": 3304, "pitch": 55, "duration": 3, "velocity": 74}, {"time": 3307, "pitch": 62, "duration": 7, "velocity": 77}, {"time": 3310, "pitch": 50, "duration": 6, "velocity": 75}, {"time": 3313, "pitch": 55, "duration": 4, "velocity": 77}, {"time": 3319, "pitch": 45, "duration": 21, "velocity": 77}, {"time": 3319, "pitch": 57, "duration": 3, "velocity": 76}, {"time": 3319, "pitch": 61, "duration": 4, "velocity": 74}, {"time": 3322, "pitch": 52, "duration": 10, "velocity": 76}, {"time": 3325, "pitch": 57, "duration": 4, "velocity": 78}, {"time": 3328, "pitch": 61, "duration": 1, "velocity": 78}, {"time": 3331, "pitch": 57, "duration": 4, "velocity": 78}, {"time": 3331, "pitch": 64, "duration": 6, "velocity": 81}, {"time": 3334, "pitch": 52, "duration": 7, "velocity": 79}, {"time": 3337, "pitch": 57, "duration": 3, "velocity": 77}, {"time": 3343, "pitch": 50, "duration": 18, "velocity": 78}, {"time": 3343, "pitch": 57, "duration": 2, "velocity": 70}, {"time": 3343, "pitch": 62, "duration": 4, "velocity": 75}, {"time": 3346, "pitch": 57, "duration": 4, "velocity": 69}, {"time": 3349, "pitch": 62, "duration": 3, "velocity": 69}, {"time": 3352, "pitch": 57, "duration": 4, "velocity": 70}, {"time": 3355, "pitch": 66, "duration": 5, "velocity": 78}, {"time": 3358, "pitch": 57, "duration": 3, "velocity": 74}, {"time": 3361, "pitch": 62, "duration": 3, "velocity": 69}, {"time": 3367, "pitch": 45, "duration": 18, "velocity": 76}, {"time": 3367, "pitch": 57, "duration": 6, "velocity": 70}, {"time": 3367, "pitch": 61, "duration": 9, "velocity": 75}, {"time": 3373, "pitch": 52, "duration": 7, "velocity": 76}, {"time": 3376, "pitch": 57, "duration": 2, "velocity": 76}, {"time": 3379, "pitch": 57, "duration": 3, "velocity": 77}, {"time": 3379, "pitch": 64, "duration": 5, "velocity": 79}, {"time": 3382, "pitch": 52, "duration": 4, "velocity": 76}, {"time": 3385, "pitch": 57, "duration": 3, "velocity": 77}, {"time": 3391, "pitch": 47, "duration": 18, "velocity": 77}, {"time": 3391, "pitch": 59, "duration": 7, "velocity": 76}, {"time": 3391, "pitch": 62, "duration": 9, "velocity": 76}, {"time": 3397, "pitch": 54, "duration": 7, "velocity": 66}, {"time": 3400, "pitch": 59, "duration": 2, "velocity": 76}, {"time": 3403, "pitch": 59, "duration": 3, "velocity": 80}, {"time": 3403, "pitch": 66, "duration": 5, "velocity": 72}, {"time": 3406, "pitch": 54, "duration": 2, "velocity": 72}, {"time": 3409, "pitch": 59, "duration": 4, "velocity": 77}, {"time": 3412, "pitch": 62, "duration": 7, "velocity": 73}, {"time": 3415, "pitch": 43, "duration": 19, "velocity": 76}, {"time": 3418, "pitch": 50, "duration": 9, "velocity": 69}, {"time": 3421, "pitch": 55, "duration": 5, "velocity": 73}, {"time": 3424, "pitch": 59, "duration": 2, "velocity": 78}, {"time": 3427, "pitch": 62, "duration": 4, "velocity": 80}, {"time": 3430, "pitch": 50, "duration": 4, "velocity": 71}, {"time": 3433, "pitch": 55, "duration": 2, "velocity": 77}, {"time": 3439, "pitch": 50, "duration": 23, "velocity": 77}, {"time": 3439, "pitch": 57, "duration": 3, "velocity": 72}, {"time": 3439, "pitch": 62, "duration": 7, "velocity": 76}, {"time": 3445, "pitch": 57, "duration": 5, "velocity": 76}, {"time": 3451, "pitch": 62, "duration": 6, "velocity": 77}, {"time": 3451, "pitch": 66, "duration": 7, "velocity": 76}, {"time": 3457, "pitch": 57, "duration": 4, "velocity": 76}, {"time": 3460, "pitch": 62, "duration": 4, "velocity": 71}, {"time": 3463, "pitch": 45, "duration": 19, "velocity": 69}, {"time": 3463, "pitch": 61, "duration": 10, "velocity": 80}, {"time": 3469, "pitch": 52, "duration": 9, "velocity": 77}, {"time": 3475, "pitch": 57, "duration": 3, "velocity": 68}, {"time": 3475, "pitch": 61, "duration": 6, "velocity": 72}, {"time": 3475, "pitch": 64, "duration": 7, "velocity": 77}, {"time": 3481, "pitch": 57, "duration": 3, "velocity": 76}, {"time": 3487, "pitch": 43, "duration": 21, "velocity": 76}, {"time": 3487, "pitch": 55, "duration": 5, "velocity": 70}, {"time": 3487, "pitch": 59, "duration": 8, "velocity": 71}, {"time": 3493, "pitch": 50, "duration": 10, "velocity": 71}, {"time": 3496, "pitch": 55, "duration": 4, "velocity": 76}, {"time": 3499, "pitch": 62, "duration": 4, "velocity": 74}, {"time": 3502, "pitch": 55, "duration": 4, "velocity": 78}, {"time": 3505, "pitch": 59, "duration": 4, "velocity": 70}, {"time": 3508, "pitch": 55, "duration": 3, "velocity": 77}, {"time": 3511, "pitch": 45, "duration": 21, "velocity": 77}, {"time": 3511, "pitch": 61, "duration": 6, "velocity": 78}, {"time": 3514, "pitch": 52, "duration": 16, "velocity": 74}, {"time": 3517, "pitch": 57, "duration": 4, "velocity": 80}, {"time": 3520, "pitch": 61, "duration": 3, "velocity": 80}, {"time": 3523, "pitch": 64, "duration": 4, "velocity": 76}, {"time": 3526, "pitch": 61, "duration": 3, "velocity": 80}, {"time": 3529, "pitch": 57, "duration": 4, "velocity": 78}, {"time": 3535, "pitch": 50, "duration": 20, "velocity": 76}, {"time": 3535, "pitch": 57, "duration": 3, "velocity": 71}, {"time": 3535, "pitch": 62, "duration": 7, "velocity": 74}, {"time": 3541, "pitch": 57, "duration": 5, "velocity": 74}, {"time": 3544, "pitch": 62, "duration": 3, "velocity": 71}, {"time": 3547, "pitch": 66, "duration": 5, "velocity": 79}, {"time": 3550, "pitch": 57, "duration": 4, "velocity": 73}, {"time": 3553, "pitch": 62, "duration": 3, "velocity": 70}, {"time": 3556, "pitch": 57, "duration": 4, "velocity": 66}, {"time": 3559, "pitch": 45, "duration": 20, "velocity": 77}, {"time": 3559, "pitch": 61, "duration": 10, "velocity": 75}, {"time": 3565, "pitch": 52, "duration": 10, "velocity": 76}, {"time": 3568, "pitch": 57, "duration": 3, "velocity": 76}, {"time": 3571, "pitch": 64, "duration": 7, "velocity": 77}, {"time": 3574, "pitch": 57, "duration": 4, "velocity": 74}, {"time": 3577, "pitch": 61, "duration": 3, "velocity": 75}, {"time": 3583, "pitch": 47, "duration": 17, "velocity": 75}, {"time": 3583, "pitch": 59, "duration": 6, "velocity": 70}, {"time": 3583, "pitch": 62, "duration": 10, "velocity": 74}, {"time": 3589, "pitch": 54, "duration": 8, "velocity": 64}, {"time": 3592, "pitch": 59, "duration": 3, "velocity": 77}, {"time": 3595, "pitch": 66, "duration": 5, "velocity": 79}, {"time": 3598, "pitch": 59, "duration": 3, "velocity": 77}, {"time": 3601, "pitch": 62, "duration": 4, "velocity": 68}, {"time": 3604, "pitch": 59, "duration": 4, "velocity": 70}, {"time": 3607, "pitch": 43, "duration": 18, "velocity": 76}, {"time": 3613, "pitch": 50, "duration": 12, "velocity": 74}, {"time": 3616, "pitch": 55, "duration": 5, "velocity": 77}, {"time": 3619, "pitch": 59, "duration": 4, "velocity": 77}, {"time": 3622, "pitch": 62, "duration": 4, "velocity": 76}, {"time": 3625, "pitch": 55, "duration": 3, "velocity": 76}, {"time": 3631, "pitch": 50, "duration": 21, "velocity": 77}, {"time": 3631, "pitch": 57, "duration": 3, "velocity": 69}, {"time": 3631, "pitch": 62, "duration": 7, "velocity": 76}, {"time": 3637, "pitch": 57, "duration": 7, "velocity": 72}, {"time": 3643, "pitch": 66, "duration": 6, "velocity": 79}, {"time": 3649, "pitch": 57, "duration": 4, "velocity": 77}, {"time": 3655, "pitch": 45, "duration": 20, "velocity": 77}, {"time": 3655, "pitch": 57, "duration": 3, "velocity": 70}, {"time": 3655, "pitch": 61, "duration": 7, "velocity": 74}, {"time": 3658, "pitch": 52, "duration": 11, "velocity": 69}, {"time": 3661, "pitch": 57, "duration": 6, "velocity": 76}, {"time": 3664, "pitch": 61, "duration": 4, "velocity": 79}, {"time": 3667, "pitch": 64, "duration": 8, "velocity": 78}, {"time": 3670, "pitch": 52, "duration": 4, "velocity": 77}, {"time": 3673, "pitch": 57, "duration": 4, "velocity": 77}, {"time": 3676, "pitch": 61, "duration": 2, "velocity": 77}, {"time": 3679, "pitch": 43, "duration": 20, "velocity": 76}, {"time": 3679, "pitch": 55, "duration": 6, "velocity": 72}, {"time": 3679, "pitch": 59, "duration": 8, "velocity": 75}, {"time": 3685, "pitch": 50, "duration": 8, "velocity": 73}, {"time": 3688, "pitch": 55, "duration": 3, "velocity": 74}, {"time": 3691, "pitch": 62, "duration": 7, "velocity": 77}, {"time": 3694, "pitch": 50, "duration": 6, "velocity": 75}, {"time": 3697, "pitch": 55, "duration": 4, "velocity": 77}, {"time": 3703, "pitch": 45, "duration": 21, "velocity": 77}, {"time": 3703, "pitch": 57, "duration": 3, "velocity": 76}, {"time": 3703, "pitch": 61, "duration": 4, "velocity": 74}, {"time": 3706, "pitch": 52, "duration": 10, "velocity": 76}, {"time": 3709, "pitch": 57, "duration": 4, "velocity": 78}, {"time": 3712, "pitch": 61, "duration": 1, "velocity": 78}, {"time": 3715, "pitch": 57, "duration": 4, "velocity": 78}, {"time": 3715, "pitch": 64, "duration": 6, "velocity": 81}, {"time": 3718, "pitch": 52, "duration": 7, "velocity": 79}, {"time": 3721, "pitch": 57, "duration": 3, "velocity": 77}, {"time": 3727, "pitch": 50, "duration": 18, "velocity": 78}, {"time": 3727, "pitch": 57, "duration": 2, "velocity": 70}, {"time": 3727, "pitch": 62, "duration": 4, "velocity": 75}, {"time": 3730, "pitch": 57, "duration": 4, "velocity": 69}, {"time": 3733, "pitch": 62, "duration": 3, "velocity": 69}, {"time": 3736, "pitch": 57, "duration": 4, "velocity": 70}, {"time": 3739, "pitch": 66, "duration": 5, "velocity": 78}, {"time": 3742, "pitch": 57, "duration": 3, "velocity": 74}, {"time": 3745, "pitch": 62, "duration": 3, "velocity": 69}, {"time": 3751, "pitch": 45, "duration": 18, "velocity": 76}, {"time": 3751, "pitch": 57, "duration": 6, "velocity": 70}, {"time": 3751, "pitch": 61, "duration": 9, "velocity": 75}, {"time": 3757, "pitch": 52, "duration": 7, "velocity": 76}, {"time": 3760, "pitch": 57, "duration": 2, "velocity": 76}, {"time": 3763, "pitch": 57, "duration": 3, "velocity": 77}, {"time": 3763, "pitch": 64, "duration": 5, "velocity": 79}, {"time": 3766, "pitch": 52, "duration": 4, "velocity": 76}, {"time": 3769, "pitch": 57, "duration": 3, "velocity": 77}, {"time": 3775, "pitch": 47, "duration": 18, "velocity": 77}, {"time": 3775, "pitch": 59, "duration": 7, "velocity": 76}, {"time": 3775, "pitch": 62, "duration": 9, "velocity": 76}, {"time": 3781, "pitch": 54, "duration": 7, "velocity": 66}, {"time": 3784, "pitch": 59, "duration": 2, "velocity": 76}, {"time": 3787, "pitch": 59, "duration": 3, "velocity": 80}, {"time": 3787, "pitch": 66, "duration": 5, "velocity": 72}, {"time": 3790, "pitch": 54, "duration": 2, "velocity": 72}, {"time": 3793, "pitch": 59, "duration": 4, "velocity": 77}, {"time": 3796, "pitch": 62, "duration": 7, "velocity": 73}, {"time": 3799, "pitch": 43, "duration": 19, "velocity": 76}, {"time": 3802, "pitch": 50, "duration": 9, "velocity": 69}, {"time": 3805, "pitch": 55, "duration": 5, "velocity": 73}, {"time": 3808, "pitch": 59, "duration": 2, "velocity": 78}, {"time": 3811, "pitch": 62, "duration": 4, "velocity": 80}, {"time": 3814, "pitch": 50, "duration": 4, "velocity": 71}, {"time": 3817, "pitch": 55, "duration": 2, "velocity": 77}, {"time": 3823, "pitch": 50, "duration": 23, "velocity": 77}, {"time": 3823, "pitch": 57, "duration": 3, "velocity": 72}, {"time": 3823, "pitch": 62, "duration": 7, "velocity": 76}, {"time": 3829, "pitch": 57, "duration": 5, "velocity": 76}, {"time": 3835, "pitch": 62, "duration": 6, "velocity": 77}, {"time": 3835, "pitch": 66, "duration": 7, "velocity": 76}, {"time": 3841, "pitch": 57, "duration": 4, "velocity": 76}, {"time": 3844, "pitch": 62, "duration": 4, "velocity": 71}, {"time": 3847, "pitch": 45, "duration": 19, "velocity": 69}, {"time": 3847, "pitch": 61, "duration": 10, "velocity": 80}, {"time": 3853, "pitch": 52, "duration": 9, "velocity": 77}, {"time": 3859, "pitch": 57, "duration": 3, "velocity": 68}, {"time": 3859, "pitch": 61, "duration": 6, "velocity": 72}, {"time": 3859, "pitch": 64, "duration": 7, "velocity": 77}, {"time": 3865, "pitch": 57, "duration": 3, "velocity": 76}, {"time": 3871, "pitch": 43, "duration": 21, "velocity": 76}, {"time": 3871, "pitch": 55, "duration": 5, "velocity": 70}, {"time": 3871, "pitch": 59, "duration": 8, "velocity": 71}, {"time": 3877, "pitch": 50, "duration": 10, "velocity": 71}, {"time": 3880, "pitch": 55, "duration": 4, "velocity": 76}, {"time": 3883, "pitch": 62, "duration": 4, "velocity": 74}, {"time": 3886, "pitch": 55, "duration": 4, "velocity": 78}, {"time": 3889, "pitch": 59, "duration": 4, "velocity": 70}, {"time": 3892, "pitch": 55, "duration": 3, "velocity": 77}, {"time": 3895, "pitch": 45, "duration": 21, "velocity": 77}, {"time": 3895, "pitch": 61, "duration": 6, "velocity": 78}, {"time": 3898, "pitch": 52, "duration": 16, "velocity": 74}, {"time": 3901, "pitch": 57, "duration": 4, "velocity": 80}, {"time": 3904, "pitch": 61, "duration": 3, "velocity": 80}, {"time": 3907, "pitch": 64, "duration": 4, "velocity": 76}, {"time": 3910, "pitch": 61, "duration": 3, "velocity": 80}, {"time": 3913, "pitch": 57, "duration": 4, "velocity": 78}, {"time": 3919, "pitch": 50, "duration": 17, "velocity": 72}, {"time": 3919, "pitch": 62, "duration": 6, "velocity": 67}, {"time": 3919, "pitch": 66, "duration": 7, "velocity": 67}, {"time": 3925, "pitch": 57, "duration": 11, "velocity": 61}, {"time": 3931, "pitch": 66, "duration": 6, "velocity": 77}, {"time": 3937, "pitch": 62, "duration": 6, "velocity": 71}, {"time": 3943, "pitch": 45, "duration": 17, "velocity": 71}, {"time": 3943, "pitch": 64, "duration": 7, "velocity": 72}, {"time": 3949, "pitch": 52, "duration": 11, "velocity": 57}, {"time": 3949, "pitch": 57, "duration": 9, "velocity": 70}, {"time": 3955, "pitch": 61, "duration": 4, "velocity": 66}, {"time": 3955, "pitch": 64, "duration": 4, "velocity": 76}, {"time": 3967, "pitch": 47, "duration": 16, "velocity": 69}, {"time": 3967, "pitch": 59, "duration": 8, "velocity": 63}, {"time": 3967, "pitch": 62, "duration": 8, "velocity": 65}, {"time": 3973, "pitch": 54, "duration": 7, "velocity": 55}, {"time": 3979, "pitch": 66, "duration": 6, "velocity": 74}, {"time": 3985, "pitch": 59, "duration": 3, "velocity": 72}, {"time": 3991, "pitch": 45, "duration": 15, "velocity": 65}, {"time": 3991, "pitch": 57, "duration": 8, "velocity": 65}, {"time": 3991, "pitch": 61, "duration": 12, "velocity": 54}, {"time": 3997, "pitch": 52, "duration": 9, "velocity": 61}, {"time": 4003, "pitch": 57, "duration": 4, "velocity": 68}, {"time": 4015, "pitch": 43, "duration": 16, "velocity": 72}, {"time": 4015, "pitch": 55, "duration": 6, "velocity": 68}, {"time": 4015, "pitch": 62, "duration": 9, "velocity": 70}, {"time": 4021, "pitch": 50, "duration": 10, "velocity": 62}, {"time": 4027, "pitch": 55, "duration": 3, "velocity": 70}, {"time": 4027, "pitch": 59, "duration": 6, "velocity": 71}, {"time": 4039, "pitch": 45, "duration": 21, "velocity": 73}, {"time": 4039, "pitch": 57, "duration": 6, "velocity": 67}, {"time": 4039, "pitch": 61, "duration": 10, "velocity": 61}, {"time": 4045, "pitch": 52, "duration": 15, "velocity": 71}, {"time": 4051, "pitch": 61, "duration": 5, "velocity": 81}, {"time": 4057, "pitch": 57, "duration": 7, "velocity": 77}, {"time": 4063, "pitch": 50, "duration": 20, "velocity": 80}, {"time": 4069, "pitch": 57, "duration": 14, "velocity": 67}, {"time": 4074, "pitch": 64, "duration": 7, "velocity": 76}, {"time": 4081, "pitch": 66, "duration": 1, "velocity": 90}, {"time": 4085, "pitch": 50, "duration": 41, "velocity": 75}, {"time": 4088, "pitch": 57, "duration": 38, "velocity": 64}, {"time": 4088, "pitch": 62, "duration": 38, "velocity": 56}, {"time": 4089, "pitch": 66, "duration": 37, "velocity": 59}, {"time": 4090, "pitch": 69, "duration": 36, "velocity": 69}, {"time": 4092, "pitch": 74, "duration": 34, "velocity": 75}], "annotations": [{"time": 58, "annotation": {"number": 64, "value": 127}, "group": "control_change"}, {"time": 59, "annotation": {"number": 64, "value": 0}, "group": "control_change"}, {"time": 59, "annotation": {"number": 64, "value": 127}, "group": "control_change"}, {"time": 78, "annotation": {"number": 64, "value": 0}, "group": "control_change"}, {"time": 82, "annotation": {"number": 64, "value": 127}, "group": "control_change"}, {"time": 100, "annotation": {"number": 64, "value": 0}, "group": "control_change"}, {"time": 105, "annotation": {"number": 64, "value": 127}, "group": "control_change"}, {"time": 126, "annotation": {"number": 64, "value": 0}, "group": "control_change"}, {"time": 134, "annotation": {"number": 64, "value": 127}, "group": "control_change"}, {"time": 148, "annotation": {"number": 64, "value": 0}, "group": "control_change"}, {"time": 153, "annotation": {"number": 64, "value": 127}, "group": "control_change"}, {"time": 153, "annotation": {"number": 64, "value": 0}, "group": "control_change"}, {"time": 174, "annotation": {"number": 64, "value": 0}, "group": "control_change"}, {"time": 181, "annotation": {"number": 64, "value": 127}, "group": "control_change"}, {"time": 197, "annotation": {"number": 64, "value": 0}, "group": "control_change"}, {"time": 201, "annotation": {"number": 64, "value": 127}, "group": "control_change"}, {"time": 222, "annotation": {"number": 64, "value": 0}, "group": "control_change"}, {"time": 225, "annotation": {"number": 64, "value": 127}, "group": "control_change"}, {"time": 241, "annotation": {"number": 64, "value": 0}, "group": "control_change"}, {"time": 250, "annotation": {"number": 64, "value": 127}, "group": "control_change"}, {"time": 251, "annotation": {"number": 64, "value": 0}, "group": "control_change"}, {"time": 251, "annotation": {"number": 64, "value": 127}, "group": "control_change"}, {"time": 270, "annotation": {"number": 64, "value": 0}, "group": "control_change"}, {"time": 274, "annotation": {"number": 64, "value": 127}, "group": "control_change"}, {"time": 292, "annotation": {"number": 64, "value": 0}, "group": "control_change"}, {"time": 297, "annotation": {"number": 64, "value": 127}, "group": "control_change"}, {"time": 318, "annotation": {"number": 64, "value": 0}, "group": "control_change"}, {"time": 326, "annotation": {"number": 64, "value": 127}, "group": "control_change"}, {"time": 340, "annotation": {"number": 64, "value": 0}, "group": "control_change"}, {"time": 345, "annotation": {"number": 64, "value": 127}, "group": "control_change"}, {"time": 345, "annotation": {"number": 64, "value": 0}, "group": "control_change"}, {"time": 366, "annotation": {"number": 64, "value": 0}, "group": "control_change"}, {"time": 373, "annotation": {"number": 64, "value": 127}, "group": "control_change"}, {"time": 389, "annotation": {"number": 64, "value": 0}, "group": "control_change"}, {"time": 394, "annotation": {"number": 64, "value": 127}, "group": "control_change"}, {"time": 436, "annotation": {"number": 64, "value": 0}, "group": "control_change"}, {"time": 445, "annotation": {"number": 64, "value": 127}, "group": "control_change"}, {"time": 445, "annotation": {"number": 64, "value": 0}, "group": "control_change"}, {"time": 461, "annotation": {"number": 64, "value": 0}, "group": "control_change"}, {"time": 467, "annotation": {"number": 64, "value": 127}, "group": "control_change"}, {"time": 485, "annotation": {"number": 64, "value": 0}, "group": "control_change"}, {"time": 492, "annotation": {"number": 64, "value": 127}, "group": "control_change"}, {"time": 509, "annotation": {"number": 64, "value": 0}, "group": "control_change"}, {"time": 514, "annotation": {"number": 64, "value": 127}, "group": "control_change"}, {"time": 534, "annotation": {"number": 64, "value": 0}, "group": "control_change"}, {"time": 540, "annotation": {"number": 64, "value": 127}, "group": "control_change"}, {"time": 557, "annotation": {"number": 64, "value": 0}, "group": "control_change"}, {"time": 562, "annotation": {"number": 64, "value": 127}, "group": "control_change"}, {"time": 583, "annotation": {"number": 64, "value": 0}, "group": "control_change"}, {"time": 587, "annotation": {"number": 64, "value": 127}, "group": "control_change"}, {"time": 606, "annotation": {"number": 64, "value": 0}, "group": "control_change"}, {"time": 613, "annotation": {"number": 64, "value": 127}, "group": "control_change"}, {"time": 627, "annotation": {"number": 64, "value": 0}, "group": "control_change"}, {"time": 634, "annotation": {"number": 64, "value": 127}, "group": "control_change"}, {"time": 653, "annotation": {"number": 64, "value": 0}, "group": "control_change"}, {"time": 660, "annotation": {"number": 64, "value": 127}, "group": "control_change"}, {"time": 677, "annotation": {"number": 64, "value": 0}, "group": "control_change"}, {"time": 683, "annotation": {"number": 64, "value": 127}, "group": "control_change"}, {"time": 701, "annotation": {"number": 64, "value": 0}, "group": "control_change"}, {"time": 706, "annotation": {"number": 64, "value": 127}, "group": "control_change"}, {"time": 725, "annotation": {"number": 64, "value": 0}, "group": "control_change"}, {"time": 729, "annotation": {"number": 64, "value": 127}, "group": "control_change"}, {"time": 749, "annotation": {"number": 64, "value": 0}, "group": "control_change"}, {"time": 756, "annotation": {"number": 64, "value": 127}, "group": "control_change"}, {"time": 774, "annotation": {"number": 64, "value": 0}, "group": "control_change"}, {"time": 780, "annotation": {"number": 64, "value": 127}, "group": "control_change"}, {"time": 798, "annotation": {"number": 64, "value": 0}, "group": "control_change"}, {"time": 804, "annotation": {"number": 64, "value": 127}, "group": "control_change"}, {"time": 821, "annotation": {"number": 64, "value": 0}, "group": "control_change"}, {"time": 830, "annotation": {"number": 64, "value": 127}, "group": "control_change"}, {"time": 846, "annotation": {"number": 64, "value": 0}, "group": "control_change"}, {"time": 849, "annotation": {"number": 64, "value": 127}, "group": "control_change"}, {"time": 870, "annotation": {"number": 64, "value": 0}, "group": "control_change"}, {"time": 872, "annotation": {"number": 64, "value": 127}, "group": "control_change"}, {"time": 892, "annotation": {"number": 64, "value": 0}, "group": "control_change"}, {"time": 897, "annotation": {"number": 64, "value": 127}, "group": "control_change"}, {"time": 918, "annotation": {"number": 64, "value": 0}, "group": "control_change"}, {"time": 920, "annotation": {"number": 64, "value": 127}, "group": "control_change"}, {"time": 941, "annotation": {"number": 64, "value": 0}, "group": "control_change"}, {"time": 945, "annotation": {"number": 64, "value": 127}, "group": "control_change"}, {"time": 966, "annotation": {"number": 64, "value": 0}, "group": "control_change"}, {"time": 969, "annotation": {"number": 64, "value": 127}, "group": "control_change"}, {"time": 989, "annotation": {"number": 64, "value": 0}, "group": "control_change"}, {"time": 992, "annotation": {"number": 64, "value": 127}, "group": "control_change"}, {"time": 1012, "annotation": {"number": 64, "value": 0}, "group": "control_change"}, {"time": 1015, "annotation": {"number": 64, "value": 127}, "group": "control_change"}, {"time": 1038, "annotation": {"number": 64, "value": 0}, "group": "control_change"}, {"time": 1040, "annotation": {"number": 64, "value": 127}, "group": "control_change"}, {"time": 1062, "annotation": {"number": 64, "value": 0}, "group": "control_change"}, {"time": 1064, "annotation": {"number": 64, "value": 127}, "group": "control_change"}, {"time": 1085, "annotation": {"number": 64, "value": 0}, "group": "control_change"}, {"time": 1088, "annotation": {"number": 64, "value": 127}, "group": "control_change"}, {"time": 1110, "annotation": {"number": 64, "value": 0}, "group": "control_change"}, {"time": 1112, "annotation": {"number": 64, "value": 127}, "group": "control_change"}, {"time": 1133, "annotation": {"number": 64, "value": 0}, "group": "control_change"}, {"time": 1136, "annotation": {"number": 64, "value": 127}, "group": "control_change"}, {"time": 1159, "annotation": {"number": 64, "value": 0}, "group": "control_change"}, {"time": 1161, "annotation": {"number": 64, "value": 127}, "group": "control_change"}, {"time": 1182, "annotation": {"number": 64, "value": 0}, "group": "control_change"}, {"time": 1184, "annotation": {"number": 64, "value": 127}, "group": "control_change"}, {"time": 1205, "annotation": {"number": 64, "value": 0}, "group": "control_change"}, {"time": 1208, "annotation": {"number": 64, "value": 127}, "group": "control_change"}, {"time": 1230, "annotation": {"number": 64, "value": 0}, "group": "control_change"}, {"time": 1232, "annotation": {"number": 64, "value": 127}, "group": "control_change"}, {"time": 1253, "annotation": {"number": 64, "value": 0}, "group": "control_change"}, {"time": 1255, "annotation": {"number": 64, "value": 127}, "group": "control_change"}, {"time": 1277, "annotation": {"number": 64, "value": 0}, "group": "control_change"}, {"time": 1280, "annotation": {"number": 64, "value": 127}, "group": "control_change"}, {"time": 1301, "annotation": {"number": 64, "value": 0}, "group": "control_change"}, {"time": 1303, "annotation": {"number": 64, "value": 127}, "group": "control_change"}, {"time": 1325, "annotation": {"number": 64, "value": 0}, "group": "control_change"}, {"time": 1328, "annotation": {"number": 64, "value": 127}, "group": "control_change"}, {"time": 1350, "annotation": {"number": 64, "value": 0}, "group": "control_change"}, {"time": 1352, "annotation": {"number": 64, "value": 127}, "group": "control_change"}, {"time": 1374, "annotation": {"number": 64, "value": 0}, "group": "control_change"}, {"time": 1376, "annotation": {"number": 64, "value": 127}, "group": "control_change"}, {"time": 1397, "annotation": {"number": 64, "value": 0}, "group": "control_change"}, {"time": 1402, "annotation": {"number": 64, "value": 127}, "group": "control_change"}, {"time": 1403, "annotation": {"number": 64, "value": 0}, "group": "control_change"}, {"time": 1403, "annotation": {"number": 64, "value": 127}, "group": "control_change"}, {"time": 1422, "annotation": {"number": 64, "value": 0}, "group": "control_change"}, {"time": 1426, "annotation": {"number": 64, "value": 127}, "group": "control_change"}, {"time": 1444, "annotation": {"number": 64, "value": 0}, "group": "control_change"}, {"time": 1449, "annotation": {"number": 64, "value": 127}, "group": "control_change"}, {"time": 1470, "annotation": {"number": 64, "value": 0}, "group": "control_change"}, {"time": 1478, "annotation": {"number": 64, "value": 127}, "group": "control_change"}, {"time": 1492, "annotation": {"number": 64, "value": 0}, "group": "control_change"}, {"time": 1497, "annotation": {"number": 64, "value": 127}, "group": "control_change"}, {"time": 1497, "annotation": {"number": 64, "value": 0}, "group": "control_change"}, {"time": 1518, "annotation": {"number": 64, "value": 0}, "group": "control_change"}, {"time": 1525, "annotation": {"number": 64, "value": 127}, "group": "control_change"}, {"time": 1541, "annotation": {"number": 64, "value": 0}, "group": "control_change"}, {"time": 1545, "annotation": {"number": 64, "value": 127}, "group": "control_change"}, {"time": 1566, "annotation": {"number": 64, "value": 0}, "group": "control_change"}, {"time": 1569, "annotation": {"number": 64, "value": 127}, "group": "control_change"}, {"time": 1585, "annotation": {"number": 64, "value": 0}, "group": "control_change"}, {"time": 1594, "annotation": {"number": 64, "value": 127}, "group": "control_change"}, {"time": 1595, "annotation": {"number": 64, "value": 0}, "group": "control_change"}, {"time": 1595, "annotation": {"number": 64, "value": 127}, "group": "control_change"}, {"time": 1614, "annotation": {"number": 64, "value": 0}, "group": "control_change"}, {"time": 1618, "annotation": {"number": 64, "value": 127}, "group": "control_change"}, {"time": 1636, "annotation": {"number": 64, "value": 0}, "group": "control_change"}, {"time": 1641, "annotation": {"number": 64, "value": 127}, "group": "control_change"}, {"time": 1662, "annotation": {"number": 64, "value": 0}, "group": "control_change"}, {"time": 1670, "annotation": {"number": 64, "value": 127}, "group": "control_change"}, {"time": 1684, "annotation": {"number": 64, "value": 0}, "group": "control_change"}, {"time": 1689, "annotation": {"number": 64, "value": 127}, "group": "control_change"}, {"time": 1689, "annotation": {"number": 64, "value": 0}, "group": "control_change"}, {"time": 1710, "annotation": {"number": 64, "value": 0}, "group": "control_change"}, {"time": 1717, "annotation": {"number": 64, "value": 127}, "group": "control_change"}, {"time": 1733, "annotation": {"number": 64, "value": 0}, "group": "control_change"}, {"time": 1738, "annotation": {"number": 64, "value": 127}, "group": "control_change"}, {"time": 1780, "annotation": {"number": 64, "value": 0}, "group": "control_change"}, {"time": 1789, "annotation": {"number": 64, "value": 127}, "group": "control_change"}, {"time": 1789, "annotation": {"number": 64, "value": 0}, "group": "control_change"}, {"time": 1805, "annotation": {"number": 64, "value": 0}, "group": "control_change"}, {"time": 1811, "annotation": {"number": 64, "value": 127}, "group": "control_change"}, {"time": 1829, "annotation": {"number": 64, "value": 0}, "group": "control_change"}, {"time": 1836, "annotation": {"number": 64, "value": 127}, "group": "control_change"}, {"time": 1853, "annotation": {"number": 64, "value": 0}, "group": "control_change"}, {"time": 1858, "annotation": {"number": 64, "value": 127}, "group": "control_change"}, {"time": 1878, "annotation": {"number": 64, "value": 0}, "group": "control_change"}, {"time": 1884, "annotation": {"number": 64, "value": 127}, "group": "control_change"}, {"time": 1901, "annotation": {"number": 64, "value": 0}, "group": "control_change"}, {"time": 1906, "annotation": {"number": 64, "value": 127}, "group": "control_change"}, {"time": 1927, "annotation": {"number": 64, "value": 0}, "group": "control_change"}, {"time": 1931, "annotation": {"number": 64, "value": 127}, "group": "control_change"}, {"time": 1950, "annotation": {"number": 64, "value": 0}, "group": "control_change"}, {"time": 1957, "annotation": {"number": 64, "value": 127}, "group": "control_change"}, {"time": 1971, "annotation": {"number": 64, "value": 0}, "group": "control_change"}, {"time": 1978, "annotation": {"number": 64, "value": 127}, "group": "control_change"}, {"time": 1997, "annotation": {"number": 64, "value": 0}, "group": "control_change"}, {"time": 2004, "annotation": {"number": 64, "value": 127}, "group": "control_change"}, {"time": 2021, "annotation": {"number": 64, "value": 0}, "group": "control_change"}, {"time": 2027, "annotation": {"number": 64, "value": 127}, "group": "control_change"}, {"time": 2045, "annotation": {"number": 64, "value": 0}, "group": "control_change"}, {"time": 2050, "annotation": {"number": 64, "value": 127}, "group": "control_change"}, {"time": 2069, "annotation": {"number": 64, "value": 0}, "group": "control_change"}, {"time": 2073, "annotation": {"number": 64, "value": 127}, "group": "control_change"}, {"time": 2093, "annotation": {"number": 64, "value": 0}, "group": "control_change"}, {"time": 2100, "annotation": {"number": 64, "value": 127}, "group": "control_change"}, {"time": 2118, "annotation": {"number": 64, "value": 0}, "group": "control_change"}, {"time": 2124, "annotation": {"number": 64, "value": 127}, "group": "control_change"}, {"time": 2142, "annotation": {"number": 64, "value": 0}, "group": "control_change"}, {"time": 2148, "annotation": {"number": 64, "value": 127}, "group": "control_change"}, {"time": 2165, "annotation": {"number": 64, "value": 0}, "group": "control_change"}, {"time": 2174, "annotation": {"number": 64, "value": 127}, "group": "control_change"}, {"time": 2190, "annotation": {"number": 64, "value": 0}, "group": "control_change"}, {"time": 2193, "annotation": {"number": 64, "value": 127}, "group": "control_change"}, {"time": 2214, "annotation": {"number": 64, "value": 0}, "group": "control_change"}, {"time": 2216, "annotation": {"number": 64, "value": 127}, "group": "control_change"}, {"time": 2236, "annotation": {"number": 64, "value": 0}, "group": "control_change"}, {"time": 2241, "annotation": {"number": 64, "value": 127}, "group": "control_change"}, {"time": 2262, "annotation": {"number": 64, "value": 0}, "group": "control_change"}, {"time": 2264, "annotation": {"number": 64, "value": 127}, "group": "control_change"}, {"time": 2285, "annotation": {"number": 64, "value": 0}, "group": "control_change"}, {"time": 2289, "annotation": {"number": 64, "value": 127}, "group": "control_change"}, {"time": 2310, "annotation": {"number": 64, "value": 0}, "group": "control_change"}, {"time": 2313, "annotation": {"number": 64, "value": 127}, "group": "control_change"}, {"time": 2333, "annotation": {"number": 64, "value": 0}, "group": "control_change"}, {"time": 2336, "annotation": {"number": 64, "value": 127}, "group": "control_change"}, {"time": 2356, "annotation": {"number": 64, "value": 0}, "group": "control_change"}, {"time": 2359, "annotation": {"number": 64, "value": 127}, "group": "control_change"}, {"time": 2382, "annotation": {"number": 64, "value": 0}, "group": "control_change"}, {"time": 2384, "annotation": {"number": 64, "value": 127}, "group": "control_change"}, {"time": 2406, "annotation": {"number": 64, "value": 0}, "group": "control_change"}, {"time": 2408, "annotation": {"number": 64, "value": 127}, "group": "control_change"}, {"time": 2429, "annotation": {"number": 64, "value": 0}, "group": "control_change"}, {"time": 2432, "annotation": {"number": 64, "value": 127}, "group": "control_change"}, {"time": 2454, "annotation": {"number": 64, "value": 0}, "group": "control_change"}, {"time": 2456, "annotation": {"number": 64, "value": 127}, "group": "control_change"}, {"time": 2477, "annotation": {"number": 64, "value": 0}, "group": "control_change"}, {"time": 2480, "annotation": {"number": 64, "value": 127}, "group": "control_change"}, {"time": 2503, "annotation": {"number": 64, "value": 0}, "group": "control_change"}, {"time": 2505, "annotation": {"number": 64, "value": 127}, "group": "control_change"}, {"time": 2526, "annotation": {"number": 64, "value": 0}, "group": "control_change"}, {"time": 2528, "annotation": {"number": 64, "value": 127}, "group": "control_change"}, {"time": 2549, "annotation": {"number": 64, "value": 0}, "group": "control_change"}, {"time": 2552, "annotation": {"number": 64, "value": 127}, "group": "control_change"}, {"time": 2574, "annotation": {"number": 64, "value": 0}, "group": "control_change"}, {"time": 2576, "annotation": {"number": 64, "value": 127}, "group": "control_change"}, {"time": 2597, "annotation": {"number": 64, "value": 0}, "group": "control_change"}, {"time": 2599, "annotation": {"number": 64, "value": 127}, "group": "control_change"}, {"time": 2621, "annotation": {"number": 64, "value": 0}, "group": "control_change"}, {"time": 2624, "annotation": {"number": 64, "value": 127}, "group": "control_change"}, {"time": 2645, "annotation": {"number": 64, "value": 0}, "group": "control_change"}, {"time": 2647, "annotation": {"number": 64, "value": 127}, "group": "control_change"}, {"time": 2669, "annotation": {"number": 64, "value": 0}, "group": "control_change"}, {"time": 2672, "annotation": {"number": 64, "value": 127}, "group": "control_change"}, {"time": 2694, "annotation": {"number": 64, "value": 0}, "group": "control_change"}, {"time": 2696, "annotation": {"number": 64, "value": 127}, "group": "control_change"}, {"time": 2718, "annotation": {"number": 64, "value": 0}, "group": "control_change"}, {"time": 2720, "annotation": {"number": 64, "value": 127}, "group": "control_change"}, {"time": 2741, "annotation": {"number": 64, "value": 0}, "group": "control_change"}, {"time": 2745, "annotation": {"number": 64, "value": 127}, "group": "control_change"}, {"time": 2791, "annotation": {"number": 64, "value": 0}, "group": "control_change"}, {"time": 2792, "annotation": {"number": 64, "value": 127}, "group": "control_change"}, {"time": 2792, "annotation": {"number": 64, "value": 0}, "group": "control_change"}, {"time": 2813, "annotation": {"number": 64, "value": 0}, "group": "control_change"}, {"time": 2815, "annotation": {"number": 64, "value": 127}, "group": "control_change"}, {"time": 2838, "annotation": {"number": 64, "value": 0}, "group": "control_change"}, {"time": 2842, "annotation": {"number": 64, "value": 127}, "group": "control_change"}, {"time": 2861, "annotation": {"number": 64, "value": 0}, "group": "control_change"}, {"time": 2863, "annotation": {"number": 64, "value": 127}, "group": "control_change"}, {"time": 2885, "annotation": {"number": 64, "value": 0}, "group": "control_change"}, {"time": 2888, "annotation": {"number": 64, "value": 127}, "group": "control_change"}, {"time": 2910, "annotation": {"number": 64, "value": 0}, "group": "control_change"}, {"time": 2911, "annotation": {"number": 64, "value": 127}, "group": "control_change"}, {"time": 2933, "annotation": {"number": 64, "value": 0}, "group": "control_change"}, {"time": 2935, "annotation": {"number": 64, "value": 127}, "group": "control_change"}, {"time": 2945, "annotation": {"number": 64, "value": 0}, "group": "control_change"}, {"time": 2947, "annotation": {"number": 64, "value": 127}, "group": "control_change"}, {"time": 2958, "annotation": {"number": 64, "value": 0}, "group": "control_change"}, {"time": 2962, "annotation": {"number": 64, "value": 127}, "group": "control_change"}, {"time": 2963, "annotation": {"number": 64, "value": 0}, "group": "control_change"}, {"time": 2963, "annotation": {"number": 64, "value": 127}, "group": "control_change"}, {"time": 2982, "annotation": {"number": 64, "value": 0}, "group": "control_change"}, {"time": 2986, "annotation": {"number": 64, "value": 127}, "group": "control_change"}, {"time": 3004, "annotation": {"number": 64, "value": 0}, "group": "control_change"}, {"time": 3009, "annotation": {"number": 64, "value": 127}, "group": "control_change"}, {"time": 3030, "annotation": {"number": 64, "value": 0}, "group": "control_change"}, {"time": 3038, "annotation": {"number": 64, "value": 127}, "group": "control_change"}, {"time": 3052, "annotation": {"number": 64, "value": 0}, "group": "control_change"}, {"time": 3057, "annotation": {"number": 64, "value": 127}, "group": "control_change"}, {"time": 3057, "annotation": {"number": 64, "value": 0}, "group": "control_change"}, {"time": 3078, "annotation": {"number": 64, "value": 0}, "group": "control_change"}, {"time": 3085, "annotation": {"number": 64, "value": 127}, "group": "control_change"}, {"time": 3101, "annotation": {"number": 64, "value": 0}, "group": "control_change"}, {"time": 3106, "annotation": {"number": 64, "value": 127}, "group": "control_change"}, {"time": 3148, "annotation": {"number": 64, "value": 0}, "group": "control_change"}, {"time": 3174, "annotation": {"number": 64, "value": 0}, "group": "control_change"}, {"time": 3176, "annotation": {"number": 64, "value": 127}, "group": "control_change"}, {"time": 3198, "annotation": {"number": 64, "value": 0}, "group": "control_change"}, {"time": 3200, "annotation": {"number": 64, "value": 127}, "group": "control_change"}, {"time": 3221, "annotation": {"number": 64, "value": 0}, "group": "control_change"}, {"time": 3224, "annotation": {"number": 64, "value": 127}, "group": "control_change"}, {"time": 3246, "annotation": {"number": 64, "value": 0}, "group": "control_change"}, {"time": 3248, "annotation": {"number": 64, "value": 127}, "group": "control_change"}, {"time": 3269, "annotation": {"number": 64, "value": 0}, "group": "control_change"}, {"time": 3272, "annotation": {"number": 64, "value": 127}, "group": "control_change"}, {"time": 3295, "annotation": {"number": 64, "value": 0}, "group": "control_change"}, {"time": 3297, "annotation": {"number": 64, "value": 127}, "group": "control_change"}, {"time": 3318, "annotation": {"number": 64, "value": 0}, "group": "control_change"}, {"time": 3320, "annotation": {"number": 64, "value": 127}, "group": "control_change"}, {"time": 3341, "annotation": {"number": 64, "value": 0}, "group": "control_change"}, {"time": 3344, "annotation": {"number": 64, "value": 127}, "group": "control_change"}, {"time": 3366, "annotation": {"number": 64, "value": 0}, "group": "control_change"}, {"time": 3368, "annotation": {"number": 64, "value": 127}, "group": "control_change"}, {"time": 3389, "annotation": {"number": 64, "value": 0}, "group": "control_change"}, {"time": 3391, "annotation": {"number": 64, "value": 127}, "group": "control_change"}, {"time": 3413, "annotation": {"number": 64, "value": 0}, "group": "control_change"}, {"time": 3416, "annotation": {"number": 64, "value": 127}, "group": "control_change"}, {"time": 3437, "annotation": {"number": 64, "value": 0}, "group": "control_change"}, {"time": 3439, "annotation": {"number": 64, "value": 127}, "group": "control_change"}, {"time": 3461, "annotation": {"number": 64, "value": 0}, "group": "control_change"}, {"time": 3464, "annotation": {"number": 64, "value": 127}, "group": "control_change"}, {"time": 3486, "annotation": {"number": 64, "value": 0}, "group": "control_change"}, {"time": 3488, "annotation": {"number": 64, "value": 127}, "group": "control_change"}, {"time": 3510, "annotation": {"number": 64, "value": 0}, "group": "control_change"}, {"time": 3512, "annotation": {"number": 64, "value": 127}, "group": "control_change"}, {"time": 3533, "annotation": {"number": 64, "value": 0}, "group": "control_change"}, {"time": 3558, "annotation": {"number": 64, "value": 0}, "group": "control_change"}, {"time": 3560, "annotation": {"number": 64, "value": 127}, "group": "control_change"}, {"time": 3582, "annotation": {"number": 64, "value": 0}, "group": "control_change"}, {"time": 3584, "annotation": {"number": 64, "value": 127}, "group": "control_change"}, {"time": 3605, "annotation": {"number": 64, "value": 0}, "group": "control_change"}, {"time": 3608, "annotation": {"number": 64, "value": 127}, "group": "control_change"}, {"time": 3630, "annotation": {"number": 64, "value": 0}, "group": "control_change"}, {"time": 3632, "annotation": {"number": 64, "value": 127}, "group": "control_change"}, {"time": 3653, "annotation": {"number": 64, "value": 0}, "group": "control_change"}, {"time": 3656, "annotation": {"number": 64, "value": 127}, "group": "control_change"}, {"time": 3679, "annotation": {"number": 64, "value": 0}, "group": "control_change"}, {"time": 3681, "annotation": {"number": 64, "value": 127}, "group": "control_change"}, {"time": 3702, "annotation": {"number": 64, "value": 0}, "group": "control_change"}, {"time": 3704, "annotation": {"number": 64, "value": 127}, "group": "control_change"}, {"time": 3725, "annotation": {"number": 64, "value": 0}, "group": "control_change"}, {"time": 3728, "annotation": {"number": 64, "value": 127}, "group": "control_change"}, {"time": 3750, "annotation": {"number": 64, "value": 0}, "group": "control_change"}, {"time": 3752, "annotation": {"number": 64, "value": 127}, "group": "control_change"}, {"time": 3773, "annotation": {"number": 64, "value": 0}, "group": "control_change"}, {"time": 3775, "annotation": {"number": 64, "value": 127}, "group": "control_change"}, {"time": 3797, "annotation": {"number": 64, "value": 0}, "group": "control_change"}, {"time": 3800, "annotation": {"number": 64, "value": 127}, "group": "control_change"}, {"time": 3821, "annotation": {"number": 64, "value": 0}, "group": "control_change"}, {"time": 3823, "annotation": {"number": 64, "value": 127}, "group": "control_change"}, {"time": 3845, "annotation": {"number": 64, "value": 0}, "group": "control_change"}, {"time": 3848, "annotation": {"number": 64, "value": 127}, "group": "control_change"}, {"time": 3870, "annotation": {"number": 64, "value": 0}, "group": "control_change"}, {"time": 3872, "annotation": {"number": 64, "value": 127}, "group": "control_change"}, {"time": 3894, "annotation": {"number": 64, "value": 0}, "group": "control_change"}, {"time": 3896, "annotation": {"number": 64, "value": 127}, "group": "control_change"}, {"time": 3917, "annotation": {"number": 64, "value": 0}, "group": "control_change"}, {"time": 3922, "annotation": {"number": 64, "value": 127}, "group": "control_change"}, {"time": 3923, "annotation": {"number": 64, "value": 0}, "group": "control_change"}, {"time": 3923, "annotation": {"number": 64, "value": 127}, "group": "control_change"}, {"time": 3942, "annotation": {"number": 64, "value": 0}, "group": "control_change"}, {"time": 3946, "annotation": {"number": 64, "value": 127}, "group": "control_change"}, {"time": 3964, "annotation": {"number": 64, "value": 0}, "group": "control_change"}, {"time": 3969, "annotation": {"number": 64, "value": 127}, "group": "control_change"}, {"time": 3990, "annotation": {"number": 64, "value": 0}, "group": "control_change"}, {"time": 3998, "annotation": {"number": 64, "value": 127}, "group": "control_change"}, {"time": 4012, "annotation": {"number": 64, "value": 0}, "group": "control_change"}, {"time": 4017, "annotation": {"number": 64, "value": 127}, "group": "control_change"}, {"time": 4017, "annotation": {"number": 64, "value": 0}, "group": "control_change"}, {"time": 4038, "annotation": {"number": 64, "value": 0}, "group": "control_change"}, {"time": 4045, "annotation": {"number": 64, "value": 127}, "group": "control_change"}, {"time": 4061, "annotation": {"number": 64, "value": 0}, "group": "control_change"}, {"time": 4067, "annotation": {"number": 64, "value": 127}, "group": "control_change"}, {"time": 4087, "annotation": {"number": 64, "value": 0}, "group": "control_change"}]}]}