{"metadata": {"schema_version": "0.2", "title": "None", "source_filename": "554.mid", "source_format": "midi"}, "resolution": 12, "tempos": [{"time": 0, "qpm": 84.000084000084}], "time_signatures": [{"time": 0, "numerator": 4, "denominator": 4}], "tracks": [{"program": 4, "is_drum": false, "name": "MELODY", "notes": [{"time": 389, "pitch": 72, "duration": 3, "velocity": 116}, {"time": 395, "pitch": 72, "duration": 3, "velocity": 116}, {"time": 401, "pitch": 72, "duration": 3, "velocity": 114}, {"time": 407, "pitch": 72, "duration": 5, "velocity": 113}, {"time": 413, "pitch": 70, "duration": 5, "velocity": 119}, {"time": 419, "pitch": 67, "duration": 4, "velocity": 114}, {"time": 425, "pitch": 67, "duration": 5, "velocity": 113}, {"time": 431, "pitch": 70, "duration": 4, "velocity": 116}, {"time": 437, "pitch": 70, "duration": 2, "velocity": 100}, {"time": 440, "pitch": 72, "duration": 5, "velocity": 117}, {"time": 485, "pitch": 72, "duration": 3, "velocity": 114}, {"time": 491, "pitch": 72, "duration": 3, "velocity": 108}, {"time": 497, "pitch": 74, "duration": 1, "velocity": 100}, {"time": 498, "pitch": 72, "duration": 4, "velocity": 114}, {"time": 503, "pitch": 70, "duration": 4, "velocity": 109}, {"time": 509, "pitch": 72, "duration": 4, "velocity": 114}, {"time": 515, "pitch": 75, "duration": 5, "velocity": 119}, {"time": 521, "pitch": 72, "duration": 5, "velocity": 104}, {"time": 527, "pitch": 70, "duration": 5, "velocity": 113}, {"time": 533, "pitch": 67, "duration": 2, "velocity": 113}, {"time": 536, "pitch": 70, "duration": 3, "velocity": 100}, {"time": 539, "pitch": 67, "duration": 14, "velocity": 100}, {"time": 581, "pitch": 72, "duration": 4, "velocity": 100}, {"time": 587, "pitch": 72, "duration": 3, "velocity": 102}, {"time": 593, "pitch": 72, "duration": 5, "velocity": 108}, {"time": 599, "pitch": 67, "duration": 3, "velocity": 108}, {"time": 605, "pitch": 67, "duration": 4, "velocity": 104}, {"time": 611, "pitch": 70, "duration": 4, "velocity": 109}, {"time": 617, "pitch": 72, "duration": 3, "velocity": 110}, {"time": 623, "pitch": 75, "duration": 4, "velocity": 109}, {"time": 629, "pitch": 77, "duration": 3, "velocity": 107}, {"time": 635, "pitch": 77, "duration": 3, "velocity": 108}, {"time": 641, "pitch": 77, "duration": 5, "velocity": 107}, {"time": 647, "pitch": 75, "duration": 5, "velocity": 113}, {"time": 653, "pitch": 77, "duration": 5, "velocity": 102}, {"time": 677, "pitch": 74, "duration": 2, "velocity": 116}, {"time": 683, "pitch": 74, "duration": 3, "velocity": 113}, {"time": 689, "pitch": 74, "duration": 4, "velocity": 108}, {"time": 695, "pitch": 72, "duration": 5, "velocity": 107}, {"time": 701, "pitch": 70, "duration": 4, "velocity": 106}, {"time": 707, "pitch": 67, "duration": 5, "velocity": 107}, {"time": 713, "pitch": 70, "duration": 4, "velocity": 116}, {"time": 719, "pitch": 72, "duration": 3, "velocity": 114}, {"time": 725, "pitch": 72, "duration": 6, "velocity": 116}, {"time": 773, "pitch": 72, "duration": 3, "velocity": 116}, {"time": 779, "pitch": 72, "duration": 3, "velocity": 116}, {"time": 785, "pitch": 72, "duration": 3, "velocity": 114}, {"time": 791, "pitch": 72, "duration": 5, "velocity": 113}, {"time": 797, "pitch": 70, "duration": 5, "velocity": 119}, {"time": 803, "pitch": 67, "duration": 4, "velocity": 114}, {"time": 809, "pitch": 67, "duration": 5, "velocity": 113}, {"time": 815, "pitch": 70, "duration": 4, "velocity": 116}, {"time": 821, "pitch": 72, "duration": 2, "velocity": 117}, {"time": 824, "pitch": 70, "duration": 1, "velocity": 100}, {"time": 827, "pitch": 72, "duration": 5, "velocity": 100}, {"time": 869, "pitch": 72, "duration": 3, "velocity": 114}, {"time": 875, "pitch": 72, "duration": 3, "velocity": 108}, {"time": 881, "pitch": 72, "duration": 5, "velocity": 114}, {"time": 887, "pitch": 70, "duration": 4, "velocity": 109}, {"time": 893, "pitch": 72, "duration": 4, "velocity": 114}, {"time": 899, "pitch": 75, "duration": 5, "velocity": 119}, {"time": 905, "pitch": 72, "duration": 5, "velocity": 104}, {"time": 911, "pitch": 70, "duration": 5, "velocity": 113}, {"time": 917, "pitch": 70, "duration": 1, "velocity": 100}, {"time": 919, "pitch": 67, "duration": 9, "velocity": 113}, {"time": 965, "pitch": 72, "duration": 4, "velocity": 100}, {"time": 971, "pitch": 72, "duration": 3, "velocity": 102}, {"time": 977, "pitch": 72, "duration": 5, "velocity": 108}, {"time": 983, "pitch": 67, "duration": 3, "velocity": 108}, {"time": 989, "pitch": 72, "duration": 4, "velocity": 104}, {"time": 995, "pitch": 72, "duration": 4, "velocity": 109}, {"time": 1001, "pitch": 72, "duration": 3, "velocity": 110}, {"time": 1007, "pitch": 75, "duration": 4, "velocity": 109}, {"time": 1013, "pitch": 77, "duration": 3, "velocity": 107}, {"time": 1019, "pitch": 77, "duration": 3, "velocity": 108}, {"time": 1025, "pitch": 77, "duration": 5, "velocity": 107}, {"time": 1031, "pitch": 75, "duration": 5, "velocity": 113}, {"time": 1037, "pitch": 75, "duration": 2, "velocity": 100}, {"time": 1040, "pitch": 77, "duration": 8, "velocity": 102}, {"time": 1058, "pitch": 67, "duration": 2, "velocity": 116}, {"time": 1061, "pitch": 74, "duration": 2, "velocity": 116}, {"time": 1067, "pitch": 74, "duration": 3, "velocity": 113}, {"time": 1070, "pitch": 74, "duration": 3, "velocity": 113}, {"time": 1073, "pitch": 74, "duration": 4, "velocity": 108}, {"time": 1079, "pitch": 72, "duration": 5, "velocity": 107}, {"time": 1085, "pitch": 70, "duration": 4, "velocity": 106}, {"time": 1091, "pitch": 67, "duration": 5, "velocity": 107}, {"time": 1097, "pitch": 70, "duration": 4, "velocity": 116}, {"time": 1103, "pitch": 72, "duration": 3, "velocity": 114}, {"time": 1109, "pitch": 72, "duration": 6, "velocity": 116}, {"time": 1151, "pitch": 72, "duration": 1, "velocity": 113}, {"time": 1154, "pitch": 72, "duration": 2, "velocity": 100}, {"time": 1157, "pitch": 79, "duration": 3, "velocity": 120}, {"time": 1163, "pitch": 79, "duration": 1, "velocity": 117}, {"time": 1166, "pitch": 79, "duration": 1, "velocity": 108}, {"time": 1169, "pitch": 79, "duration": 2, "velocity": 117}, {"time": 1175, "pitch": 72, "duration": 3, "velocity": 116}, {"time": 1181, "pitch": 79, "duration": 4, "velocity": 119}, {"time": 1187, "pitch": 77, "duration": 3, "velocity": 113}, {"time": 1193, "pitch": 77, "duration": 3, "velocity": 120}, {"time": 1199, "pitch": 70, "duration": 1, "velocity": 110}, {"time": 1202, "pitch": 70, "duration": 2, "velocity": 110}, {"time": 1205, "pitch": 77, "duration": 3, "velocity": 117}, {"time": 1211, "pitch": 77, "duration": 3, "velocity": 116}, {"time": 1214, "pitch": 77, "duration": 1, "velocity": 116}, {"time": 1217, "pitch": 77, "duration": 1, "velocity": 119}, {"time": 1223, "pitch": 70, "duration": 3, "velocity": 116}, {"time": 1229, "pitch": 75, "duration": 3, "velocity": 123}, {"time": 1235, "pitch": 75, "duration": 3, "velocity": 114}, {"time": 1241, "pitch": 75, "duration": 4, "velocity": 110}, {"time": 1247, "pitch": 72, "duration": 1, "velocity": 107}, {"time": 1250, "pitch": 72, "duration": 2, "velocity": 98}, {"time": 1253, "pitch": 75, "duration": 2, "velocity": 119}, {"time": 1259, "pitch": 75, "duration": 3, "velocity": 119}, {"time": 1265, "pitch": 75, "duration": 3, "velocity": 123}, {"time": 1271, "pitch": 75, "duration": 1, "velocity": 116}, {"time": 1274, "pitch": 79, "duration": 2, "velocity": 108}, {"time": 1277, "pitch": 77, "duration": 4, "velocity": 110}, {"time": 1283, "pitch": 77, "duration": 2, "velocity": 114}, {"time": 1289, "pitch": 77, "duration": 3, "velocity": 119}, {"time": 1301, "pitch": 77, "duration": 3, "velocity": 117}, {"time": 1307, "pitch": 77, "duration": 4, "velocity": 117}, {"time": 1313, "pitch": 75, "duration": 3, "velocity": 113}, {"time": 1319, "pitch": 77, "duration": 3, "velocity": 116}, {"time": 1325, "pitch": 79, "duration": 5, "velocity": 119}, {"time": 1343, "pitch": 72, "duration": 1, "velocity": 113}, {"time": 1346, "pitch": 72, "duration": 2, "velocity": 100}, {"time": 1349, "pitch": 79, "duration": 3, "velocity": 120}, {"time": 1355, "pitch": 79, "duration": 1, "velocity": 117}, {"time": 1358, "pitch": 79, "duration": 1, "velocity": 108}, {"time": 1361, "pitch": 79, "duration": 2, "velocity": 117}, {"time": 1367, "pitch": 72, "duration": 3, "velocity": 116}, {"time": 1373, "pitch": 79, "duration": 4, "velocity": 119}, {"time": 1379, "pitch": 77, "duration": 3, "velocity": 113}, {"time": 1385, "pitch": 77, "duration": 3, "velocity": 120}, {"time": 1391, "pitch": 70, "duration": 1, "velocity": 110}, {"time": 1394, "pitch": 70, "duration": 2, "velocity": 110}, {"time": 1397, "pitch": 77, "duration": 3, "velocity": 117}, {"time": 1403, "pitch": 77, "duration": 3, "velocity": 116}, {"time": 1406, "pitch": 77, "duration": 1, "velocity": 116}, {"time": 1409, "pitch": 77, "duration": 1, "velocity": 119}, {"time": 1415, "pitch": 70, "duration": 3, "velocity": 116}, {"time": 1421, "pitch": 75, "duration": 3, "velocity": 123}, {"time": 1427, "pitch": 75, "duration": 3, "velocity": 114}, {"time": 1433, "pitch": 75, "duration": 4, "velocity": 110}, {"time": 1439, "pitch": 72, "duration": 1, "velocity": 107}, {"time": 1442, "pitch": 72, "duration": 2, "velocity": 98}, {"time": 1445, "pitch": 75, "duration": 2, "velocity": 119}, {"time": 1451, "pitch": 75, "duration": 3, "velocity": 119}, {"time": 1457, "pitch": 75, "duration": 3, "velocity": 123}, {"time": 1463, "pitch": 75, "duration": 1, "velocity": 116}, {"time": 1466, "pitch": 79, "duration": 2, "velocity": 108}, {"time": 1469, "pitch": 77, "duration": 4, "velocity": 110}, {"time": 1475, "pitch": 77, "duration": 2, "velocity": 114}, {"time": 1481, "pitch": 77, "duration": 3, "velocity": 119}, {"time": 1493, "pitch": 74, "duration": 3, "velocity": 116}, {"time": 1499, "pitch": 74, "duration": 4, "velocity": 113}, {"time": 1505, "pitch": 70, "duration": 3, "velocity": 119}, {"time": 1511, "pitch": 72, "duration": 3, "velocity": 113}, {"time": 1517, "pitch": 72, "duration": 6, "velocity": 116}, {"time": 1925, "pitch": 72, "duration": 3, "velocity": 116}, {"time": 1931, "pitch": 72, "duration": 3, "velocity": 116}, {"time": 1937, "pitch": 72, "duration": 3, "velocity": 114}, {"time": 1943, "pitch": 72, "duration": 5, "velocity": 113}, {"time": 1949, "pitch": 70, "duration": 5, "velocity": 119}, {"time": 1955, "pitch": 67, "duration": 4, "velocity": 114}, {"time": 1961, "pitch": 67, "duration": 5, "velocity": 113}, {"time": 1967, "pitch": 70, "duration": 4, "velocity": 116}, {"time": 1973, "pitch": 70, "duration": 2, "velocity": 100}, {"time": 1976, "pitch": 72, "duration": 5, "velocity": 117}, {"time": 2021, "pitch": 72, "duration": 3, "velocity": 114}, {"time": 2027, "pitch": 72, "duration": 3, "velocity": 108}, {"time": 2033, "pitch": 72, "duration": 5, "velocity": 114}, {"time": 2039, "pitch": 70, "duration": 4, "velocity": 109}, {"time": 2045, "pitch": 72, "duration": 4, "velocity": 114}, {"time": 2051, "pitch": 75, "duration": 5, "velocity": 119}, {"time": 2057, "pitch": 72, "duration": 5, "velocity": 104}, {"time": 2063, "pitch": 70, "duration": 5, "velocity": 113}, {"time": 2069, "pitch": 67, "duration": 3, "velocity": 113}, {"time": 2072, "pitch": 65, "duration": 3, "velocity": 100}, {"time": 2075, "pitch": 67, "duration": 6, "velocity": 100}, {"time": 2117, "pitch": 72, "duration": 4, "velocity": 100}, {"time": 2123, "pitch": 72, "duration": 3, "velocity": 102}, {"time": 2129, "pitch": 72, "duration": 5, "velocity": 108}, {"time": 2135, "pitch": 67, "duration": 3, "velocity": 108}, {"time": 2141, "pitch": 67, "duration": 4, "velocity": 104}, {"time": 2147, "pitch": 70, "duration": 4, "velocity": 109}, {"time": 2153, "pitch": 72, "duration": 3, "velocity": 110}, {"time": 2159, "pitch": 75, "duration": 4, "velocity": 109}, {"time": 2165, "pitch": 77, "duration": 3, "velocity": 107}, {"time": 2171, "pitch": 77, "duration": 3, "velocity": 108}, {"time": 2177, "pitch": 77, "duration": 5, "velocity": 107}, {"time": 2183, "pitch": 75, "duration": 5, "velocity": 113}, {"time": 2189, "pitch": 77, "duration": 3, "velocity": 102}, {"time": 2191, "pitch": 75, "duration": 3, "velocity": 100}, {"time": 2195, "pitch": 77, "duration": 12, "velocity": 100}, {"time": 2213, "pitch": 74, "duration": 2, "velocity": 116}, {"time": 2219, "pitch": 74, "duration": 3, "velocity": 113}, {"time": 2225, "pitch": 74, "duration": 4, "velocity": 108}, {"time": 2231, "pitch": 72, "duration": 5, "velocity": 107}, {"time": 2237, "pitch": 70, "duration": 4, "velocity": 106}, {"time": 2243, "pitch": 67, "duration": 5, "velocity": 107}, {"time": 2249, "pitch": 70, "duration": 4, "velocity": 116}, {"time": 2255, "pitch": 72, "duration": 3, "velocity": 114}, {"time": 2261, "pitch": 72, "duration": 6, "velocity": 116}, {"time": 2309, "pitch": 72, "duration": 3, "velocity": 116}, {"time": 2315, "pitch": 72, "duration": 3, "velocity": 116}, {"time": 2321, "pitch": 72, "duration": 3, "velocity": 114}, {"time": 2327, "pitch": 72, "duration": 5, "velocity": 113}, {"time": 2333, "pitch": 70, "duration": 5, "velocity": 119}, {"time": 2339, "pitch": 67, "duration": 4, "velocity": 114}, {"time": 2345, "pitch": 67, "duration": 5, "velocity": 113}, {"time": 2351, "pitch": 70, "duration": 4, "velocity": 116}, {"time": 2357, "pitch": 72, "duration": 2, "velocity": 117}, {"time": 2360, "pitch": 70, "duration": 3, "velocity": 100}, {"time": 2363, "pitch": 72, "duration": 9, "velocity": 100}, {"time": 2405, "pitch": 72, "duration": 3, "velocity": 114}, {"time": 2411, "pitch": 72, "duration": 3, "velocity": 108}, {"time": 2417, "pitch": 72, "duration": 5, "velocity": 114}, {"time": 2423, "pitch": 70, "duration": 4, "velocity": 109}, {"time": 2429, "pitch": 72, "duration": 4, "velocity": 114}, {"time": 2435, "pitch": 75, "duration": 5, "velocity": 119}, {"time": 2441, "pitch": 72, "duration": 5, "velocity": 104}, {"time": 2447, "pitch": 70, "duration": 5, "velocity": 113}, {"time": 2453, "pitch": 70, "duration": 3, "velocity": 100}, {"time": 2456, "pitch": 67, "duration": 8, "velocity": 113}, {"time": 2501, "pitch": 72, "duration": 4, "velocity": 100}, {"time": 2507, "pitch": 72, "duration": 3, "velocity": 102}, {"time": 2513, "pitch": 72, "duration": 5, "velocity": 108}, {"time": 2519, "pitch": 67, "duration": 3, "velocity": 108}, {"time": 2525, "pitch": 72, "duration": 4, "velocity": 104}, {"time": 2531, "pitch": 72, "duration": 4, "velocity": 109}, {"time": 2537, "pitch": 72, "duration": 3, "velocity": 110}, {"time": 2543, "pitch": 75, "duration": 4, "velocity": 109}, {"time": 2549, "pitch": 77, "duration": 3, "velocity": 107}, {"time": 2555, "pitch": 77, "duration": 3, "velocity": 108}, {"time": 2561, "pitch": 77, "duration": 5, "velocity": 107}, {"time": 2567, "pitch": 75, "duration": 5, "velocity": 113}, {"time": 2573, "pitch": 77, "duration": 2, "velocity": 102}, {"time": 2576, "pitch": 75, "duration": 2, "velocity": 100}, {"time": 2579, "pitch": 77, "duration": 3, "velocity": 100}, {"time": 2594, "pitch": 67, "duration": 2, "velocity": 116}, {"time": 2597, "pitch": 74, "duration": 2, "velocity": 116}, {"time": 2603, "pitch": 74, "duration": 3, "velocity": 113}, {"time": 2606, "pitch": 74, "duration": 3, "velocity": 113}, {"time": 2609, "pitch": 74, "duration": 4, "velocity": 108}, {"time": 2615, "pitch": 72, "duration": 5, "velocity": 107}, {"time": 2621, "pitch": 70, "duration": 4, "velocity": 106}, {"time": 2627, "pitch": 67, "duration": 5, "velocity": 107}, {"time": 2633, "pitch": 70, "duration": 4, "velocity": 116}, {"time": 2639, "pitch": 72, "duration": 3, "velocity": 114}, {"time": 2645, "pitch": 72, "duration": 6, "velocity": 116}, {"time": 2687, "pitch": 72, "duration": 1, "velocity": 113}, {"time": 2690, "pitch": 72, "duration": 2, "velocity": 100}, {"time": 2693, "pitch": 79, "duration": 3, "velocity": 120}, {"time": 2699, "pitch": 79, "duration": 1, "velocity": 117}, {"time": 2702, "pitch": 79, "duration": 1, "velocity": 108}, {"time": 2705, "pitch": 79, "duration": 2, "velocity": 117}, {"time": 2711, "pitch": 72, "duration": 3, "velocity": 116}, {"time": 2717, "pitch": 79, "duration": 4, "velocity": 119}, {"time": 2723, "pitch": 77, "duration": 3, "velocity": 113}, {"time": 2729, "pitch": 77, "duration": 3, "velocity": 120}, {"time": 2735, "pitch": 70, "duration": 1, "velocity": 110}, {"time": 2738, "pitch": 70, "duration": 2, "velocity": 110}, {"time": 2741, "pitch": 77, "duration": 3, "velocity": 117}, {"time": 2747, "pitch": 77, "duration": 3, "velocity": 116}, {"time": 2750, "pitch": 77, "duration": 1, "velocity": 116}, {"time": 2753, "pitch": 77, "duration": 1, "velocity": 119}, {"time": 2759, "pitch": 70, "duration": 3, "velocity": 116}, {"time": 2765, "pitch": 75, "duration": 3, "velocity": 123}, {"time": 2771, "pitch": 75, "duration": 3, "velocity": 114}, {"time": 2777, "pitch": 75, "duration": 4, "velocity": 110}, {"time": 2783, "pitch": 72, "duration": 1, "velocity": 107}, {"time": 2786, "pitch": 72, "duration": 2, "velocity": 98}, {"time": 2789, "pitch": 75, "duration": 2, "velocity": 119}, {"time": 2795, "pitch": 75, "duration": 3, "velocity": 119}, {"time": 2801, "pitch": 75, "duration": 3, "velocity": 123}, {"time": 2807, "pitch": 75, "duration": 1, "velocity": 116}, {"time": 2810, "pitch": 79, "duration": 2, "velocity": 108}, {"time": 2813, "pitch": 77, "duration": 4, "velocity": 110}, {"time": 2819, "pitch": 77, "duration": 2, "velocity": 114}, {"time": 2825, "pitch": 77, "duration": 3, "velocity": 119}, {"time": 2837, "pitch": 77, "duration": 3, "velocity": 117}, {"time": 2843, "pitch": 77, "duration": 4, "velocity": 117}, {"time": 2849, "pitch": 75, "duration": 3, "velocity": 113}, {"time": 2855, "pitch": 77, "duration": 3, "velocity": 116}, {"time": 2861, "pitch": 79, "duration": 5, "velocity": 119}, {"time": 2879, "pitch": 72, "duration": 1, "velocity": 113}, {"time": 2882, "pitch": 72, "duration": 2, "velocity": 100}, {"time": 2885, "pitch": 79, "duration": 3, "velocity": 120}, {"time": 2891, "pitch": 79, "duration": 1, "velocity": 117}, {"time": 2894, "pitch": 79, "duration": 1, "velocity": 108}, {"time": 2897, "pitch": 79, "duration": 2, "velocity": 117}, {"time": 2903, "pitch": 72, "duration": 3, "velocity": 116}, {"time": 2909, "pitch": 79, "duration": 4, "velocity": 119}, {"time": 2915, "pitch": 77, "duration": 3, "velocity": 113}, {"time": 2921, "pitch": 77, "duration": 3, "velocity": 120}, {"time": 2927, "pitch": 70, "duration": 1, "velocity": 110}, {"time": 2930, "pitch": 70, "duration": 2, "velocity": 110}, {"time": 2933, "pitch": 77, "duration": 3, "velocity": 117}, {"time": 2939, "pitch": 77, "duration": 3, "velocity": 116}, {"time": 2942, "pitch": 77, "duration": 1, "velocity": 116}, {"time": 2945, "pitch": 77, "duration": 1, "velocity": 119}, {"time": 2951, "pitch": 70, "duration": 3, "velocity": 116}, {"time": 2957, "pitch": 75, "duration": 3, "velocity": 123}, {"time": 2963, "pitch": 75, "duration": 3, "velocity": 114}, {"time": 2969, "pitch": 75, "duration": 4, "velocity": 110}, {"time": 2975, "pitch": 72, "duration": 1, "velocity": 107}, {"time": 2978, "pitch": 72, "duration": 2, "velocity": 98}, {"time": 2981, "pitch": 75, "duration": 2, "velocity": 119}, {"time": 2987, "pitch": 75, "duration": 3, "velocity": 119}, {"time": 2993, "pitch": 75, "duration": 3, "velocity": 123}, {"time": 2999, "pitch": 75, "duration": 1, "velocity": 116}, {"time": 3002, "pitch": 79, "duration": 2, "velocity": 108}, {"time": 3005, "pitch": 77, "duration": 4, "velocity": 110}, {"time": 3011, "pitch": 77, "duration": 2, "velocity": 114}, {"time": 3017, "pitch": 77, "duration": 3, "velocity": 119}, {"time": 3029, "pitch": 74, "duration": 3, "velocity": 116}, {"time": 3035, "pitch": 74, "duration": 4, "velocity": 113}, {"time": 3041, "pitch": 70, "duration": 3, "velocity": 119}, {"time": 3047, "pitch": 72, "duration": 3, "velocity": 113}, {"time": 3053, "pitch": 72, "duration": 6, "velocity": 116}, {"time": 3095, "pitch": 72, "duration": 1, "velocity": 113}, {"time": 3098, "pitch": 72, "duration": 2, "velocity": 100}, {"time": 3101, "pitch": 79, "duration": 3, "velocity": 120}, {"time": 3107, "pitch": 79, "duration": 1, "velocity": 117}, {"time": 3110, "pitch": 79, "duration": 1, "velocity": 108}, {"time": 3113, "pitch": 79, "duration": 2, "velocity": 117}, {"time": 3119, "pitch": 72, "duration": 3, "velocity": 116}, {"time": 3125, "pitch": 79, "duration": 4, "velocity": 119}, {"time": 3131, "pitch": 77, "duration": 3, "velocity": 113}, {"time": 3137, "pitch": 77, "duration": 3, "velocity": 120}, {"time": 3143, "pitch": 70, "duration": 1, "velocity": 110}, {"time": 3146, "pitch": 70, "duration": 2, "velocity": 110}, {"time": 3149, "pitch": 77, "duration": 3, "velocity": 117}, {"time": 3155, "pitch": 77, "duration": 3, "velocity": 116}, {"time": 3158, "pitch": 77, "duration": 1, "velocity": 116}, {"time": 3161, "pitch": 77, "duration": 1, "velocity": 119}, {"time": 3167, "pitch": 70, "duration": 3, "velocity": 116}, {"time": 3173, "pitch": 75, "duration": 3, "velocity": 123}, {"time": 3179, "pitch": 75, "duration": 3, "velocity": 114}, {"time": 3185, "pitch": 75, "duration": 4, "velocity": 110}, {"time": 3191, "pitch": 72, "duration": 1, "velocity": 107}, {"time": 3194, "pitch": 72, "duration": 2, "velocity": 98}, {"time": 3197, "pitch": 75, "duration": 2, "velocity": 119}, {"time": 3203, "pitch": 75, "duration": 3, "velocity": 119}, {"time": 3209, "pitch": 75, "duration": 3, "velocity": 123}, {"time": 3215, "pitch": 75, "duration": 1, "velocity": 116}, {"time": 3218, "pitch": 79, "duration": 2, "velocity": 108}, {"time": 3221, "pitch": 77, "duration": 4, "velocity": 110}, {"time": 3227, "pitch": 77, "duration": 2, "velocity": 114}, {"time": 3233, "pitch": 77, "duration": 3, "velocity": 119}, {"time": 3245, "pitch": 77, "duration": 3, "velocity": 117}, {"time": 3251, "pitch": 77, "duration": 4, "velocity": 117}, {"time": 3257, "pitch": 75, "duration": 3, "velocity": 113}, {"time": 3263, "pitch": 77, "duration": 3, "velocity": 116}, {"time": 3269, "pitch": 79, "duration": 5, "velocity": 119}, {"time": 3287, "pitch": 72, "duration": 1, "velocity": 113}, {"time": 3290, "pitch": 72, "duration": 2, "velocity": 100}, {"time": 3293, "pitch": 79, "duration": 3, "velocity": 120}, {"time": 3299, "pitch": 79, "duration": 1, "velocity": 117}, {"time": 3302, "pitch": 79, "duration": 1, "velocity": 108}, {"time": 3305, "pitch": 79, "duration": 2, "velocity": 117}, {"time": 3311, "pitch": 72, "duration": 3, "velocity": 116}, {"time": 3317, "pitch": 79, "duration": 4, "velocity": 119}, {"time": 3323, "pitch": 77, "duration": 3, "velocity": 113}, {"time": 3329, "pitch": 77, "duration": 3, "velocity": 120}, {"time": 3335, "pitch": 70, "duration": 1, "velocity": 110}, {"time": 3338, "pitch": 70, "duration": 2, "velocity": 110}, {"time": 3341, "pitch": 77, "duration": 3, "velocity": 117}, {"time": 3347, "pitch": 77, "duration": 3, "velocity": 116}, {"time": 3350, "pitch": 77, "duration": 1, "velocity": 116}, {"time": 3353, "pitch": 77, "duration": 1, "velocity": 119}, {"time": 3359, "pitch": 82, "duration": 3, "velocity": 116}, {"time": 3365, "pitch": 77, "duration": 3, "velocity": 123}, {"time": 3371, "pitch": 75, "duration": 3, "velocity": 114}, {"time": 3377, "pitch": 75, "duration": 4, "velocity": 110}, {"time": 3383, "pitch": 72, "duration": 1, "velocity": 107}, {"time": 3386, "pitch": 72, "duration": 2, "velocity": 98}, {"time": 3389, "pitch": 75, "duration": 2, "velocity": 119}, {"time": 3395, "pitch": 75, "duration": 3, "velocity": 119}, {"time": 3401, "pitch": 75, "duration": 3, "velocity": 123}, {"time": 3407, "pitch": 75, "duration": 1, "velocity": 116}, {"time": 3410, "pitch": 79, "duration": 2, "velocity": 108}, {"time": 3413, "pitch": 77, "duration": 4, "velocity": 110}, {"time": 3419, "pitch": 77, "duration": 2, "velocity": 114}, {"time": 3425, "pitch": 77, "duration": 3, "velocity": 119}, {"time": 3437, "pitch": 74, "duration": 3, "velocity": 116}, {"time": 3443, "pitch": 74, "duration": 4, "velocity": 113}, {"time": 3449, "pitch": 70, "duration": 3, "velocity": 119}, {"time": 3455, "pitch": 72, "duration": 3, "velocity": 113}, {"time": 3461, "pitch": 72, "duration": 6, "velocity": 116}, {"time": 3503, "pitch": 75, "duration": 4, "velocity": 113}, {"time": 3509, "pitch": 79, "duration": 4, "velocity": 116}, {"time": 3515, "pitch": 77, "duration": 20, "velocity": 119}, {"time": 3557, "pitch": 70, "duration": 7, "velocity": 123}, {"time": 3569, "pitch": 72, "duration": 6, "velocity": 119}, {"time": 3581, "pitch": 72, "duration": 7, "velocity": 116}]}, {"program": 0, "is_drum": false, "name": "PIANO", "notes": [{"time": 5, "pitch": 48, "duration": 93, "velocity": 86}, {"time": 5, "pitch": 63, "duration": 92, "velocity": 84}, {"time": 5, "pitch": 67, "duration": 92, "velocity": 89}, {"time": 5, "pitch": 72, "duration": 92, "velocity": 87}, {"time": 101, "pitch": 48, "duration": 93, "velocity": 86}, {"time": 101, "pitch": 63, "duration": 92, "velocity": 84}, {"time": 101, "pitch": 67, "duration": 92, "velocity": 89}, {"time": 101, "pitch": 72, "duration": 92, "velocity": 87}, {"time": 197, "pitch": 48, "duration": 18, "velocity": 87}, {"time": 197, "pitch": 63, "duration": 8, "velocity": 86}, {"time": 197, "pitch": 67, "duration": 8, "velocity": 91}, {"time": 197, "pitch": 72, "duration": 7, "velocity": 88}, {"time": 203, "pitch": 55, "duration": 11, "velocity": 70}, {"time": 209, "pitch": 63, "duration": 6, "velocity": 95}, {"time": 209, "pitch": 72, "duration": 9, "velocity": 93}, {"time": 215, "pitch": 60, "duration": 6, "velocity": 84}, {"time": 221, "pitch": 53, "duration": 19, "velocity": 88}, {"time": 221, "pitch": 65, "duration": 9, "velocity": 87}, {"time": 221, "pitch": 68, "duration": 9, "velocity": 95}, {"time": 221, "pitch": 72, "duration": 9, "velocity": 88}, {"time": 233, "pitch": 65, "duration": 7, "velocity": 91}, {"time": 233, "pitch": 68, "duration": 7, "velocity": 95}, {"time": 233, "pitch": 72, "duration": 7, "velocity": 88}, {"time": 245, "pitch": 46, "duration": 17, "velocity": 85}, {"time": 245, "pitch": 62, "duration": 7, "velocity": 86}, {"time": 245, "pitch": 65, "duration": 7, "velocity": 89}, {"time": 245, "pitch": 70, "duration": 6, "velocity": 82}, {"time": 251, "pitch": 58, "duration": 7, "velocity": 77}, {"time": 257, "pitch": 62, "duration": 6, "velocity": 91}, {"time": 257, "pitch": 65, "duration": 6, "velocity": 96}, {"time": 257, "pitch": 70, "duration": 5, "velocity": 86}, {"time": 263, "pitch": 58, "duration": 2, "velocity": 84}, {"time": 269, "pitch": 51, "duration": 19, "velocity": 103}, {"time": 275, "pitch": 63, "duration": 7, "velocity": 86}, {"time": 281, "pitch": 67, "duration": 11, "velocity": 107}, {"time": 281, "pitch": 70, "duration": 11, "velocity": 116}, {"time": 287, "pitch": 63, "duration": 1, "velocity": 97}, {"time": 293, "pitch": 44, "duration": 17, "velocity": 93}, {"time": 293, "pitch": 60, "duration": 7, "velocity": 91}, {"time": 293, "pitch": 63, "duration": 7, "velocity": 100}, {"time": 299, "pitch": 56, "duration": 6, "velocity": 81}, {"time": 305, "pitch": 60, "duration": 8, "velocity": 94}, {"time": 305, "pitch": 63, "duration": 8, "velocity": 113}, {"time": 311, "pitch": 56, "duration": 3, "velocity": 82}, {"time": 317, "pitch": 46, "duration": 18, "velocity": 90}, {"time": 317, "pitch": 62, "duration": 7, "velocity": 107}, {"time": 317, "pitch": 65, "duration": 7, "velocity": 104}, {"time": 323, "pitch": 58, "duration": 6, "velocity": 84}, {"time": 329, "pitch": 62, "duration": 11, "velocity": 114}, {"time": 329, "pitch": 65, "duration": 7, "velocity": 110}, {"time": 335, "pitch": 58, "duration": 2, "velocity": 85}, {"time": 341, "pitch": 48, "duration": 39, "velocity": 88}, {"time": 341, "pitch": 60, "duration": 7, "velocity": 88}, {"time": 341, "pitch": 63, "duration": 9, "velocity": 97}, {"time": 341, "pitch": 67, "duration": 11, "velocity": 96}, {"time": 347, "pitch": 55, "duration": 33, "velocity": 77}, {"time": 353, "pitch": 60, "duration": 26, "velocity": 87}, {"time": 359, "pitch": 62, "duration": 7, "velocity": 93}, {"time": 365, "pitch": 63, "duration": 15, "velocity": 88}, {"time": 365, "pitch": 67, "duration": 15, "velocity": 88}, {"time": 389, "pitch": 48, "duration": 17, "velocity": 84}, {"time": 389, "pitch": 60, "duration": 6, "velocity": 78}, {"time": 389, "pitch": 63, "duration": 22, "velocity": 76}, {"time": 389, "pitch": 67, "duration": 22, "velocity": 81}, {"time": 395, "pitch": 55, "duration": 12, "velocity": 75}, {"time": 401, "pitch": 60, "duration": 4, "velocity": 83}, {"time": 413, "pitch": 46, "duration": 17, "velocity": 81}, {"time": 413, "pitch": 62, "duration": 24, "velocity": 87}, {"time": 413, "pitch": 65, "duration": 22, "velocity": 78}, {"time": 419, "pitch": 58, "duration": 11, "velocity": 74}, {"time": 437, "pitch": 48, "duration": 39, "velocity": 80}, {"time": 437, "pitch": 60, "duration": 5, "velocity": 80}, {"time": 437, "pitch": 67, "duration": 16, "velocity": 83}, {"time": 443, "pitch": 55, "duration": 32, "velocity": 66}, {"time": 449, "pitch": 60, "duration": 25, "velocity": 76}, {"time": 455, "pitch": 62, "duration": 27, "velocity": 80}, {"time": 455, "pitch": 67, "duration": 24, "velocity": 78}, {"time": 485, "pitch": 44, "duration": 19, "velocity": 89}, {"time": 491, "pitch": 56, "duration": 13, "velocity": 83}, {"time": 497, "pitch": 60, "duration": 13, "velocity": 81}, {"time": 497, "pitch": 63, "duration": 14, "velocity": 84}, {"time": 497, "pitch": 67, "duration": 11, "velocity": 86}, {"time": 509, "pitch": 46, "duration": 17, "velocity": 86}, {"time": 515, "pitch": 58, "duration": 11, "velocity": 83}, {"time": 521, "pitch": 62, "duration": 15, "velocity": 88}, {"time": 521, "pitch": 65, "duration": 13, "velocity": 88}, {"time": 533, "pitch": 39, "duration": 36, "velocity": 95}, {"time": 539, "pitch": 51, "duration": 31, "velocity": 79}, {"time": 545, "pitch": 55, "duration": 30, "velocity": 73}, {"time": 551, "pitch": 63, "duration": 26, "velocity": 87}, {"time": 569, "pitch": 58, "duration": 8, "velocity": 85}, {"time": 581, "pitch": 48, "duration": 39, "velocity": 84}, {"time": 581, "pitch": 60, "duration": 5, "velocity": 83}, {"time": 581, "pitch": 63, "duration": 8, "velocity": 84}, {"time": 581, "pitch": 67, "duration": 11, "velocity": 76}, {"time": 587, "pitch": 55, "duration": 33, "velocity": 74}, {"time": 593, "pitch": 60, "duration": 27, "velocity": 80}, {"time": 605, "pitch": 63, "duration": 18, "velocity": 84}, {"time": 605, "pitch": 67, "duration": 17, "velocity": 76}, {"time": 629, "pitch": 46, "duration": 41, "velocity": 83}, {"time": 629, "pitch": 62, "duration": 13, "velocity": 84}, {"time": 629, "pitch": 65, "duration": 18, "velocity": 86}, {"time": 635, "pitch": 53, "duration": 33, "velocity": 65}, {"time": 641, "pitch": 58, "duration": 27, "velocity": 74}, {"time": 647, "pitch": 62, "duration": 30, "velocity": 82}, {"time": 647, "pitch": 70, "duration": 30, "velocity": 83}, {"time": 677, "pitch": 43, "duration": 42, "velocity": 83}, {"time": 677, "pitch": 58, "duration": 22, "velocity": 85}, {"time": 677, "pitch": 67, "duration": 15, "velocity": 87}, {"time": 683, "pitch": 50, "duration": 37, "velocity": 73}, {"time": 689, "pitch": 55, "duration": 31, "velocity": 81}, {"time": 695, "pitch": 62, "duration": 27, "velocity": 83}, {"time": 701, "pitch": 58, "duration": 14, "velocity": 71}, {"time": 701, "pitch": 67, "duration": 13, "velocity": 75}, {"time": 725, "pitch": 48, "duration": 42, "velocity": 86}, {"time": 731, "pitch": 55, "duration": 36, "velocity": 78}, {"time": 737, "pitch": 60, "duration": 31, "velocity": 81}, {"time": 743, "pitch": 63, "duration": 25, "velocity": 75}, {"time": 743, "pitch": 67, "duration": 23, "velocity": 82}, {"time": 773, "pitch": 48, "duration": 18, "velocity": 86}, {"time": 773, "pitch": 60, "duration": 9, "velocity": 86}, {"time": 773, "pitch": 63, "duration": 9, "velocity": 87}, {"time": 773, "pitch": 67, "duration": 8, "velocity": 89}, {"time": 779, "pitch": 55, "duration": 6, "velocity": 70}, {"time": 785, "pitch": 60, "duration": 10, "velocity": 88}, {"time": 785, "pitch": 63, "duration": 10, "velocity": 88}, {"time": 785, "pitch": 67, "duration": 9, "velocity": 89}, {"time": 797, "pitch": 46, "duration": 17, "velocity": 83}, {"time": 797, "pitch": 62, "duration": 9, "velocity": 91}, {"time": 797, "pitch": 65, "duration": 8, "velocity": 88}, {"time": 803, "pitch": 58, "duration": 13, "velocity": 73}, {"time": 809, "pitch": 62, "duration": 12, "velocity": 92}, {"time": 809, "pitch": 65, "duration": 9, "velocity": 90}, {"time": 821, "pitch": 48, "duration": 40, "velocity": 86}, {"time": 821, "pitch": 60, "duration": 5, "velocity": 84}, {"time": 821, "pitch": 63, "duration": 13, "velocity": 86}, {"time": 821, "pitch": 67, "duration": 15, "velocity": 88}, {"time": 827, "pitch": 55, "duration": 34, "velocity": 69}, {"time": 833, "pitch": 60, "duration": 12, "velocity": 82}, {"time": 839, "pitch": 62, "duration": 13, "velocity": 91}, {"time": 839, "pitch": 65, "duration": 13, "velocity": 89}, {"time": 851, "pitch": 60, "duration": 8, "velocity": 84}, {"time": 857, "pitch": 62, "duration": 10, "velocity": 104}, {"time": 857, "pitch": 65, "duration": 9, "velocity": 102}, {"time": 869, "pitch": 44, "duration": 18, "velocity": 95}, {"time": 875, "pitch": 56, "duration": 8, "velocity": 93}, {"time": 881, "pitch": 60, "duration": 15, "velocity": 91}, {"time": 881, "pitch": 63, "duration": 18, "velocity": 106}, {"time": 887, "pitch": 56, "duration": 6, "velocity": 83}, {"time": 893, "pitch": 46, "duration": 18, "velocity": 86}, {"time": 899, "pitch": 58, "duration": 9, "velocity": 87}, {"time": 905, "pitch": 62, "duration": 13, "velocity": 100}, {"time": 905, "pitch": 65, "duration": 13, "velocity": 104}, {"time": 911, "pitch": 58, "duration": 6, "velocity": 86}, {"time": 917, "pitch": 51, "duration": 38, "velocity": 86}, {"time": 923, "pitch": 63, "duration": 16, "velocity": 87}, {"time": 929, "pitch": 70, "duration": 6, "velocity": 97}, {"time": 935, "pitch": 67, "duration": 13, "velocity": 91}, {"time": 947, "pitch": 63, "duration": 7, "velocity": 86}, {"time": 953, "pitch": 67, "duration": 6, "velocity": 114}, {"time": 953, "pitch": 70, "duration": 6, "velocity": 116}, {"time": 959, "pitch": 51, "duration": 2, "velocity": 90}, {"time": 965, "pitch": 48, "duration": 18, "velocity": 88}, {"time": 965, "pitch": 60, "duration": 7, "velocity": 89}, {"time": 965, "pitch": 63, "duration": 7, "velocity": 97}, {"time": 965, "pitch": 67, "duration": 7, "velocity": 91}, {"time": 971, "pitch": 55, "duration": 12, "velocity": 73}, {"time": 977, "pitch": 60, "duration": 8, "velocity": 89}, {"time": 977, "pitch": 63, "duration": 8, "velocity": 100}, {"time": 977, "pitch": 67, "duration": 8, "velocity": 100}, {"time": 989, "pitch": 48, "duration": 18, "velocity": 82}, {"time": 989, "pitch": 60, "duration": 9, "velocity": 86}, {"time": 989, "pitch": 63, "duration": 9, "velocity": 86}, {"time": 989, "pitch": 67, "duration": 7, "velocity": 89}, {"time": 1001, "pitch": 60, "duration": 9, "velocity": 89}, {"time": 1001, "pitch": 63, "duration": 9, "velocity": 93}, {"time": 1001, "pitch": 67, "duration": 9, "velocity": 94}, {"time": 1013, "pitch": 46, "duration": 39, "velocity": 87}, {"time": 1013, "pitch": 62, "duration": 7, "velocity": 94}, {"time": 1013, "pitch": 65, "duration": 7, "velocity": 104}, {"time": 1019, "pitch": 58, "duration": 9, "velocity": 82}, {"time": 1025, "pitch": 62, "duration": 18, "velocity": 87}, {"time": 1025, "pitch": 65, "duration": 18, "velocity": 102}, {"time": 1025, "pitch": 70, "duration": 17, "velocity": 90}, {"time": 1043, "pitch": 58, "duration": 8, "velocity": 86}, {"time": 1049, "pitch": 62, "duration": 11, "velocity": 96}, {"time": 1049, "pitch": 65, "duration": 11, "velocity": 110}, {"time": 1049, "pitch": 70, "duration": 11, "velocity": 91}, {"time": 1061, "pitch": 43, "duration": 41, "velocity": 90}, {"time": 1061, "pitch": 58, "duration": 14, "velocity": 95}, {"time": 1061, "pitch": 67, "duration": 12, "velocity": 100}, {"time": 1067, "pitch": 50, "duration": 36, "velocity": 82}, {"time": 1073, "pitch": 55, "duration": 13, "velocity": 82}, {"time": 1079, "pitch": 62, "duration": 14, "velocity": 102}, {"time": 1079, "pitch": 67, "duration": 12, "velocity": 107}, {"time": 1091, "pitch": 55, "duration": 6, "velocity": 86}, {"time": 1097, "pitch": 58, "duration": 7, "velocity": 100}, {"time": 1097, "pitch": 67, "duration": 9, "velocity": 107}, {"time": 1103, "pitch": 55, "duration": 6, "velocity": 88}, {"time": 1109, "pitch": 48, "duration": 44, "velocity": 90}, {"time": 1109, "pitch": 60, "duration": 8, "velocity": 89}, {"time": 1109, "pitch": 63, "duration": 8, "velocity": 90}, {"time": 1109, "pitch": 67, "duration": 6, "velocity": 90}, {"time": 1115, "pitch": 55, "duration": 39, "velocity": 79}, {"time": 1121, "pitch": 60, "duration": 3, "velocity": 93}, {"time": 1121, "pitch": 63, "duration": 4, "velocity": 109}, {"time": 1121, "pitch": 67, "duration": 4, "velocity": 96}, {"time": 1127, "pitch": 60, "duration": 8, "velocity": 86}, {"time": 1133, "pitch": 63, "duration": 10, "velocity": 95}, {"time": 1133, "pitch": 72, "duration": 7, "velocity": 100}, {"time": 1139, "pitch": 60, "duration": 6, "velocity": 86}, {"time": 1145, "pitch": 63, "duration": 4, "velocity": 84}, {"time": 1145, "pitch": 67, "duration": 4, "velocity": 100}, {"time": 1145, "pitch": 72, "duration": 4, "velocity": 94}, {"time": 1151, "pitch": 60, "duration": 2, "velocity": 84}, {"time": 1157, "pitch": 48, "duration": 13, "velocity": 96}, {"time": 1157, "pitch": 60, "duration": 7, "velocity": 92}, {"time": 1157, "pitch": 63, "duration": 7, "velocity": 106}, {"time": 1157, "pitch": 67, "duration": 6, "velocity": 102}, {"time": 1163, "pitch": 55, "duration": 7, "velocity": 83}, {"time": 1169, "pitch": 60, "duration": 9, "velocity": 96}, {"time": 1169, "pitch": 63, "duration": 9, "velocity": 106}, {"time": 1169, "pitch": 67, "duration": 8, "velocity": 104}, {"time": 1175, "pitch": 48, "duration": 2, "velocity": 91}, {"time": 1181, "pitch": 46, "duration": 17, "velocity": 87}, {"time": 1181, "pitch": 62, "duration": 7, "velocity": 100}, {"time": 1181, "pitch": 65, "duration": 7, "velocity": 94}, {"time": 1187, "pitch": 58, "duration": 7, "velocity": 83}, {"time": 1193, "pitch": 62, "duration": 5, "velocity": 110}, {"time": 1193, "pitch": 65, "duration": 5, "velocity": 107}, {"time": 1199, "pitch": 58, "duration": 6, "velocity": 87}, {"time": 1205, "pitch": 43, "duration": 18, "velocity": 89}, {"time": 1205, "pitch": 58, "duration": 1, "velocity": 87}, {"time": 1205, "pitch": 67, "duration": 6, "velocity": 92}, {"time": 1211, "pitch": 55, "duration": 7, "velocity": 78}, {"time": 1217, "pitch": 58, "duration": 5, "velocity": 84}, {"time": 1217, "pitch": 62, "duration": 7, "velocity": 98}, {"time": 1217, "pitch": 67, "duration": 6, "velocity": 92}, {"time": 1223, "pitch": 55, "duration": 6, "velocity": 85}, {"time": 1229, "pitch": 48, "duration": 18, "velocity": 88}, {"time": 1229, "pitch": 60, "duration": 7, "velocity": 86}, {"time": 1229, "pitch": 63, "duration": 8, "velocity": 88}, {"time": 1229, "pitch": 67, "duration": 6, "velocity": 88}, {"time": 1235, "pitch": 55, "duration": 11, "velocity": 77}, {"time": 1241, "pitch": 60, "duration": 12, "velocity": 92}, {"time": 1241, "pitch": 63, "duration": 13, "velocity": 106}, {"time": 1241, "pitch": 67, "duration": 11, "velocity": 98}, {"time": 1253, "pitch": 44, "duration": 18, "velocity": 103}, {"time": 1259, "pitch": 56, "duration": 7, "velocity": 85}, {"time": 1265, "pitch": 60, "duration": 13, "velocity": 94}, {"time": 1265, "pitch": 63, "duration": 14, "velocity": 109}, {"time": 1265, "pitch": 68, "duration": 14, "velocity": 106}, {"time": 1271, "pitch": 56, "duration": 6, "velocity": 87}, {"time": 1277, "pitch": 46, "duration": 19, "velocity": 95}, {"time": 1283, "pitch": 58, "duration": 7, "velocity": 89}, {"time": 1289, "pitch": 62, "duration": 12, "velocity": 93}, {"time": 1289, "pitch": 65, "duration": 12, "velocity": 108}, {"time": 1295, "pitch": 58, "duration": 1, "velocity": 91}, {"time": 1301, "pitch": 39, "duration": 18, "velocity": 91}, {"time": 1301, "pitch": 63, "duration": 8, "velocity": 106}, {"time": 1301, "pitch": 68, "duration": 7, "velocity": 97}, {"time": 1307, "pitch": 51, "duration": 6, "velocity": 75}, {"time": 1313, "pitch": 63, "duration": 6, "velocity": 109}, {"time": 1313, "pitch": 68, "duration": 5, "velocity": 93}, {"time": 1319, "pitch": 51, "duration": 2, "velocity": 85}, {"time": 1325, "pitch": 43, "duration": 16, "velocity": 88}, {"time": 1325, "pitch": 59, "duration": 9, "velocity": 88}, {"time": 1325, "pitch": 62, "duration": 9, "velocity": 96}, {"time": 1325, "pitch": 67, "duration": 7, "velocity": 87}, {"time": 1334, "pitch": 55, "duration": 3, "velocity": 77}, {"time": 1337, "pitch": 59, "duration": 6, "velocity": 94}, {"time": 1337, "pitch": 62, "duration": 9, "velocity": 108}, {"time": 1337, "pitch": 67, "duration": 7, "velocity": 104}, {"time": 1343, "pitch": 55, "duration": 5, "velocity": 91}, {"time": 1349, "pitch": 48, "duration": 20, "velocity": 88}, {"time": 1349, "pitch": 60, "duration": 8, "velocity": 93}, {"time": 1349, "pitch": 63, "duration": 8, "velocity": 106}, {"time": 1349, "pitch": 67, "duration": 7, "velocity": 98}, {"time": 1355, "pitch": 55, "duration": 6, "velocity": 71}, {"time": 1361, "pitch": 60, "duration": 12, "velocity": 98}, {"time": 1361, "pitch": 63, "duration": 13, "velocity": 116}, {"time": 1361, "pitch": 67, "duration": 12, "velocity": 108}, {"time": 1367, "pitch": 55, "duration": 2, "velocity": 86}, {"time": 1373, "pitch": 46, "duration": 14, "velocity": 91}, {"time": 1379, "pitch": 58, "duration": 8, "velocity": 90}, {"time": 1385, "pitch": 62, "duration": 12, "velocity": 104}, {"time": 1385, "pitch": 65, "duration": 12, "velocity": 104}, {"time": 1391, "pitch": 46, "duration": 1, "velocity": 74}, {"time": 1391, "pitch": 58, "duration": 2, "velocity": 95}, {"time": 1397, "pitch": 43, "duration": 17, "velocity": 92}, {"time": 1397, "pitch": 58, "duration": 9, "velocity": 93}, {"time": 1397, "pitch": 67, "duration": 6, "velocity": 89}, {"time": 1403, "pitch": 50, "duration": 12, "velocity": 77}, {"time": 1409, "pitch": 58, "duration": 5, "velocity": 81}, {"time": 1409, "pitch": 62, "duration": 11, "velocity": 102}, {"time": 1409, "pitch": 67, "duration": 7, "velocity": 94}, {"time": 1415, "pitch": 55, "duration": 6, "velocity": 88}, {"time": 1421, "pitch": 48, "duration": 19, "velocity": 89}, {"time": 1421, "pitch": 60, "duration": 7, "velocity": 88}, {"time": 1421, "pitch": 63, "duration": 8, "velocity": 89}, {"time": 1421, "pitch": 67, "duration": 7, "velocity": 92}, {"time": 1427, "pitch": 55, "duration": 8, "velocity": 81}, {"time": 1433, "pitch": 60, "duration": 12, "velocity": 91}, {"time": 1433, "pitch": 63, "duration": 12, "velocity": 103}, {"time": 1433, "pitch": 67, "duration": 12, "velocity": 92}, {"time": 1439, "pitch": 55, "duration": 1, "velocity": 86}, {"time": 1445, "pitch": 44, "duration": 18, "velocity": 103}, {"time": 1451, "pitch": 56, "duration": 7, "velocity": 85}, {"time": 1457, "pitch": 60, "duration": 14, "velocity": 96}, {"time": 1457, "pitch": 63, "duration": 15, "velocity": 109}, {"time": 1463, "pitch": 56, "duration": 6, "velocity": 86}, {"time": 1469, "pitch": 46, "duration": 19, "velocity": 87}, {"time": 1475, "pitch": 58, "duration": 7, "velocity": 91}, {"time": 1481, "pitch": 62, "duration": 7, "velocity": 100}, {"time": 1487, "pitch": 58, "duration": 1, "velocity": 85}, {"time": 1493, "pitch": 43, "duration": 18, "velocity": 88}, {"time": 1493, "pitch": 58, "duration": 7, "velocity": 85}, {"time": 1493, "pitch": 62, "duration": 8, "velocity": 89}, {"time": 1493, "pitch": 67, "duration": 6, "velocity": 90}, {"time": 1499, "pitch": 50, "duration": 7, "velocity": 75}, {"time": 1505, "pitch": 58, "duration": 6, "velocity": 91}, {"time": 1505, "pitch": 62, "duration": 11, "velocity": 102}, {"time": 1505, "pitch": 67, "duration": 10, "velocity": 100}, {"time": 1517, "pitch": 48, "duration": 22, "velocity": 81}, {"time": 1517, "pitch": 60, "duration": 8, "velocity": 86}, {"time": 1517, "pitch": 63, "duration": 9, "velocity": 90}, {"time": 1517, "pitch": 67, "duration": 7, "velocity": 87}, {"time": 1523, "pitch": 55, "duration": 7, "velocity": 74}, {"time": 1529, "pitch": 60, "duration": 8, "velocity": 87}, {"time": 1529, "pitch": 63, "duration": 9, "velocity": 88}, {"time": 1529, "pitch": 67, "duration": 7, "velocity": 89}, {"time": 1535, "pitch": 55, "duration": 5, "velocity": 68}, {"time": 1541, "pitch": 48, "duration": 46, "velocity": 85}, {"time": 1541, "pitch": 60, "duration": 45, "velocity": 82}, {"time": 1541, "pitch": 63, "duration": 46, "velocity": 83}, {"time": 1541, "pitch": 67, "duration": 46, "velocity": 87}, {"time": 1685, "pitch": 44, "duration": 20, "velocity": 78}, {"time": 1685, "pitch": 56, "duration": 21, "velocity": 81}, {"time": 1685, "pitch": 60, "duration": 21, "velocity": 80}, {"time": 1685, "pitch": 63, "duration": 25, "velocity": 84}, {"time": 1685, "pitch": 68, "duration": 22, "velocity": 82}, {"time": 1709, "pitch": 46, "duration": 17, "velocity": 83}, {"time": 1709, "pitch": 58, "duration": 18, "velocity": 85}, {"time": 1709, "pitch": 62, "duration": 18, "velocity": 80}, {"time": 1709, "pitch": 65, "duration": 21, "velocity": 85}, {"time": 1709, "pitch": 70, "duration": 18, "velocity": 83}, {"time": 1733, "pitch": 48, "duration": 14, "velocity": 86}, {"time": 1733, "pitch": 60, "duration": 6, "velocity": 83}, {"time": 1733, "pitch": 63, "duration": 8, "velocity": 86}, {"time": 1733, "pitch": 67, "duration": 8, "velocity": 87}, {"time": 1739, "pitch": 55, "duration": 8, "velocity": 77}, {"time": 1745, "pitch": 60, "duration": 7, "velocity": 87}, {"time": 1745, "pitch": 63, "duration": 11, "velocity": 90}, {"time": 1745, "pitch": 67, "duration": 10, "velocity": 89}, {"time": 1751, "pitch": 48, "duration": 1, "velocity": 88}, {"time": 1757, "pitch": 46, "duration": 19, "velocity": 83}, {"time": 1757, "pitch": 62, "duration": 8, "velocity": 84}, {"time": 1757, "pitch": 65, "duration": 8, "velocity": 86}, {"time": 1757, "pitch": 70, "duration": 7, "velocity": 90}, {"time": 1763, "pitch": 58, "duration": 7, "velocity": 77}, {"time": 1769, "pitch": 62, "duration": 14, "velocity": 88}, {"time": 1769, "pitch": 65, "duration": 12, "velocity": 90}, {"time": 1769, "pitch": 70, "duration": 10, "velocity": 85}, {"time": 1775, "pitch": 58, "duration": 1, "velocity": 84}, {"time": 1781, "pitch": 46, "duration": 14, "velocity": 87}, {"time": 1787, "pitch": 58, "duration": 7, "velocity": 85}, {"time": 1793, "pitch": 62, "duration": 13, "velocity": 88}, {"time": 1793, "pitch": 65, "duration": 13, "velocity": 100}, {"time": 1793, "pitch": 70, "duration": 12, "velocity": 93}, {"time": 1805, "pitch": 39, "duration": 18, "velocity": 100}, {"time": 1811, "pitch": 51, "duration": 7, "velocity": 85}, {"time": 1817, "pitch": 63, "duration": 13, "velocity": 86}, {"time": 1817, "pitch": 67, "duration": 12, "velocity": 104}, {"time": 1823, "pitch": 51, "duration": 2, "velocity": 87}, {"time": 1829, "pitch": 44, "duration": 17, "velocity": 88}, {"time": 1829, "pitch": 60, "duration": 7, "velocity": 88}, {"time": 1829, "pitch": 63, "duration": 1, "velocity": 93}, {"time": 1829, "pitch": 68, "duration": 6, "velocity": 87}, {"time": 1835, "pitch": 56, "duration": 7, "velocity": 85}, {"time": 1841, "pitch": 60, "duration": 7, "velocity": 89}, {"time": 1841, "pitch": 63, "duration": 10, "velocity": 97}, {"time": 1841, "pitch": 68, "duration": 7, "velocity": 86}, {"time": 1847, "pitch": 56, "duration": 6, "velocity": 85}, {"time": 1853, "pitch": 46, "duration": 18, "velocity": 82}, {"time": 1853, "pitch": 62, "duration": 9, "velocity": 88}, {"time": 1853, "pitch": 65, "duration": 8, "velocity": 102}, {"time": 1859, "pitch": 58, "duration": 7, "velocity": 82}, {"time": 1865, "pitch": 62, "duration": 6, "velocity": 88}, {"time": 1865, "pitch": 65, "duration": 11, "velocity": 98}, {"time": 1871, "pitch": 58, "duration": 3, "velocity": 83}, {"time": 1877, "pitch": 48, "duration": 44, "velocity": 88}, {"time": 1877, "pitch": 60, "duration": 7, "velocity": 85}, {"time": 1877, "pitch": 63, "duration": 9, "velocity": 88}, {"time": 1877, "pitch": 67, "duration": 13, "velocity": 88}, {"time": 1883, "pitch": 55, "duration": 37, "velocity": 71}, {"time": 1889, "pitch": 60, "duration": 30, "velocity": 82}, {"time": 1895, "pitch": 62, "duration": 15, "velocity": 86}, {"time": 1895, "pitch": 67, "duration": 14, "velocity": 83}, {"time": 1913, "pitch": 63, "duration": 8, "velocity": 87}, {"time": 1913, "pitch": 67, "duration": 9, "velocity": 87}, {"time": 1925, "pitch": 48, "duration": 17, "velocity": 84}, {"time": 1925, "pitch": 60, "duration": 6, "velocity": 78}, {"time": 1925, "pitch": 63, "duration": 22, "velocity": 76}, {"time": 1925, "pitch": 67, "duration": 22, "velocity": 81}, {"time": 1931, "pitch": 55, "duration": 12, "velocity": 75}, {"time": 1937, "pitch": 60, "duration": 4, "velocity": 83}, {"time": 1949, "pitch": 46, "duration": 17, "velocity": 81}, {"time": 1949, "pitch": 62, "duration": 24, "velocity": 87}, {"time": 1949, "pitch": 65, "duration": 22, "velocity": 78}, {"time": 1955, "pitch": 58, "duration": 11, "velocity": 74}, {"time": 1973, "pitch": 48, "duration": 39, "velocity": 80}, {"time": 1973, "pitch": 60, "duration": 5, "velocity": 80}, {"time": 1973, "pitch": 67, "duration": 16, "velocity": 83}, {"time": 1979, "pitch": 55, "duration": 32, "velocity": 66}, {"time": 1985, "pitch": 60, "duration": 25, "velocity": 76}, {"time": 1991, "pitch": 62, "duration": 27, "velocity": 80}, {"time": 1991, "pitch": 67, "duration": 24, "velocity": 78}, {"time": 2021, "pitch": 44, "duration": 19, "velocity": 89}, {"time": 2027, "pitch": 56, "duration": 13, "velocity": 83}, {"time": 2033, "pitch": 60, "duration": 13, "velocity": 81}, {"time": 2033, "pitch": 63, "duration": 14, "velocity": 84}, {"time": 2033, "pitch": 67, "duration": 11, "velocity": 86}, {"time": 2045, "pitch": 46, "duration": 17, "velocity": 86}, {"time": 2051, "pitch": 58, "duration": 11, "velocity": 83}, {"time": 2057, "pitch": 62, "duration": 15, "velocity": 88}, {"time": 2057, "pitch": 65, "duration": 13, "velocity": 88}, {"time": 2069, "pitch": 39, "duration": 36, "velocity": 95}, {"time": 2075, "pitch": 51, "duration": 31, "velocity": 79}, {"time": 2081, "pitch": 55, "duration": 30, "velocity": 73}, {"time": 2087, "pitch": 63, "duration": 26, "velocity": 87}, {"time": 2105, "pitch": 58, "duration": 8, "velocity": 85}, {"time": 2117, "pitch": 48, "duration": 39, "velocity": 84}, {"time": 2117, "pitch": 60, "duration": 5, "velocity": 83}, {"time": 2117, "pitch": 63, "duration": 8, "velocity": 84}, {"time": 2117, "pitch": 67, "duration": 11, "velocity": 76}, {"time": 2123, "pitch": 55, "duration": 33, "velocity": 74}, {"time": 2129, "pitch": 60, "duration": 27, "velocity": 80}, {"time": 2141, "pitch": 63, "duration": 18, "velocity": 84}, {"time": 2141, "pitch": 67, "duration": 17, "velocity": 76}, {"time": 2165, "pitch": 46, "duration": 41, "velocity": 83}, {"time": 2165, "pitch": 62, "duration": 13, "velocity": 84}, {"time": 2165, "pitch": 65, "duration": 18, "velocity": 86}, {"time": 2171, "pitch": 53, "duration": 33, "velocity": 65}, {"time": 2177, "pitch": 58, "duration": 27, "velocity": 74}, {"time": 2183, "pitch": 62, "duration": 30, "velocity": 82}, {"time": 2183, "pitch": 70, "duration": 30, "velocity": 83}, {"time": 2213, "pitch": 43, "duration": 42, "velocity": 83}, {"time": 2213, "pitch": 58, "duration": 22, "velocity": 85}, {"time": 2213, "pitch": 67, "duration": 15, "velocity": 87}, {"time": 2219, "pitch": 50, "duration": 37, "velocity": 73}, {"time": 2225, "pitch": 55, "duration": 31, "velocity": 81}, {"time": 2231, "pitch": 62, "duration": 27, "velocity": 83}, {"time": 2237, "pitch": 58, "duration": 14, "velocity": 71}, {"time": 2237, "pitch": 67, "duration": 13, "velocity": 75}, {"time": 2261, "pitch": 48, "duration": 42, "velocity": 86}, {"time": 2267, "pitch": 55, "duration": 36, "velocity": 78}, {"time": 2273, "pitch": 60, "duration": 31, "velocity": 81}, {"time": 2279, "pitch": 63, "duration": 25, "velocity": 75}, {"time": 2279, "pitch": 67, "duration": 23, "velocity": 82}, {"time": 2309, "pitch": 48, "duration": 18, "velocity": 86}, {"time": 2309, "pitch": 60, "duration": 9, "velocity": 86}, {"time": 2309, "pitch": 63, "duration": 9, "velocity": 87}, {"time": 2309, "pitch": 67, "duration": 8, "velocity": 89}, {"time": 2315, "pitch": 55, "duration": 6, "velocity": 70}, {"time": 2321, "pitch": 60, "duration": 10, "velocity": 88}, {"time": 2321, "pitch": 63, "duration": 10, "velocity": 88}, {"time": 2321, "pitch": 67, "duration": 9, "velocity": 89}, {"time": 2333, "pitch": 46, "duration": 17, "velocity": 83}, {"time": 2333, "pitch": 62, "duration": 9, "velocity": 91}, {"time": 2333, "pitch": 65, "duration": 8, "velocity": 88}, {"time": 2339, "pitch": 58, "duration": 13, "velocity": 73}, {"time": 2345, "pitch": 62, "duration": 12, "velocity": 92}, {"time": 2345, "pitch": 65, "duration": 9, "velocity": 90}, {"time": 2357, "pitch": 48, "duration": 40, "velocity": 86}, {"time": 2357, "pitch": 60, "duration": 5, "velocity": 84}, {"time": 2357, "pitch": 63, "duration": 13, "velocity": 86}, {"time": 2357, "pitch": 67, "duration": 15, "velocity": 88}, {"time": 2363, "pitch": 55, "duration": 34, "velocity": 69}, {"time": 2369, "pitch": 60, "duration": 12, "velocity": 82}, {"time": 2375, "pitch": 62, "duration": 13, "velocity": 91}, {"time": 2375, "pitch": 65, "duration": 13, "velocity": 89}, {"time": 2387, "pitch": 60, "duration": 8, "velocity": 84}, {"time": 2393, "pitch": 62, "duration": 10, "velocity": 104}, {"time": 2393, "pitch": 65, "duration": 9, "velocity": 102}, {"time": 2405, "pitch": 44, "duration": 18, "velocity": 95}, {"time": 2411, "pitch": 56, "duration": 8, "velocity": 93}, {"time": 2417, "pitch": 60, "duration": 15, "velocity": 91}, {"time": 2417, "pitch": 63, "duration": 18, "velocity": 106}, {"time": 2423, "pitch": 56, "duration": 6, "velocity": 83}, {"time": 2429, "pitch": 46, "duration": 18, "velocity": 86}, {"time": 2435, "pitch": 58, "duration": 9, "velocity": 87}, {"time": 2441, "pitch": 62, "duration": 13, "velocity": 100}, {"time": 2441, "pitch": 65, "duration": 13, "velocity": 104}, {"time": 2447, "pitch": 58, "duration": 6, "velocity": 86}, {"time": 2453, "pitch": 51, "duration": 38, "velocity": 86}, {"time": 2459, "pitch": 63, "duration": 16, "velocity": 87}, {"time": 2465, "pitch": 70, "duration": 6, "velocity": 97}, {"time": 2471, "pitch": 67, "duration": 13, "velocity": 91}, {"time": 2483, "pitch": 63, "duration": 7, "velocity": 86}, {"time": 2489, "pitch": 67, "duration": 6, "velocity": 114}, {"time": 2489, "pitch": 70, "duration": 6, "velocity": 116}, {"time": 2495, "pitch": 51, "duration": 2, "velocity": 90}, {"time": 2501, "pitch": 48, "duration": 18, "velocity": 88}, {"time": 2501, "pitch": 60, "duration": 7, "velocity": 89}, {"time": 2501, "pitch": 63, "duration": 7, "velocity": 97}, {"time": 2501, "pitch": 67, "duration": 7, "velocity": 91}, {"time": 2507, "pitch": 55, "duration": 12, "velocity": 73}, {"time": 2513, "pitch": 60, "duration": 8, "velocity": 89}, {"time": 2513, "pitch": 63, "duration": 8, "velocity": 100}, {"time": 2513, "pitch": 67, "duration": 8, "velocity": 100}, {"time": 2525, "pitch": 48, "duration": 18, "velocity": 82}, {"time": 2525, "pitch": 60, "duration": 9, "velocity": 86}, {"time": 2525, "pitch": 63, "duration": 9, "velocity": 86}, {"time": 2525, "pitch": 67, "duration": 7, "velocity": 89}, {"time": 2537, "pitch": 60, "duration": 9, "velocity": 89}, {"time": 2537, "pitch": 63, "duration": 9, "velocity": 93}, {"time": 2537, "pitch": 67, "duration": 9, "velocity": 94}, {"time": 2549, "pitch": 46, "duration": 39, "velocity": 87}, {"time": 2549, "pitch": 62, "duration": 7, "velocity": 94}, {"time": 2549, "pitch": 65, "duration": 7, "velocity": 104}, {"time": 2555, "pitch": 58, "duration": 9, "velocity": 82}, {"time": 2561, "pitch": 62, "duration": 18, "velocity": 87}, {"time": 2561, "pitch": 65, "duration": 18, "velocity": 102}, {"time": 2561, "pitch": 70, "duration": 17, "velocity": 90}, {"time": 2579, "pitch": 58, "duration": 8, "velocity": 86}, {"time": 2585, "pitch": 62, "duration": 11, "velocity": 96}, {"time": 2585, "pitch": 65, "duration": 11, "velocity": 110}, {"time": 2585, "pitch": 70, "duration": 11, "velocity": 91}, {"time": 2597, "pitch": 43, "duration": 41, "velocity": 90}, {"time": 2597, "pitch": 58, "duration": 14, "velocity": 95}, {"time": 2597, "pitch": 67, "duration": 12, "velocity": 100}, {"time": 2603, "pitch": 50, "duration": 36, "velocity": 82}, {"time": 2609, "pitch": 55, "duration": 13, "velocity": 82}, {"time": 2615, "pitch": 62, "duration": 14, "velocity": 102}, {"time": 2615, "pitch": 67, "duration": 12, "velocity": 107}, {"time": 2627, "pitch": 55, "duration": 6, "velocity": 86}, {"time": 2633, "pitch": 58, "duration": 7, "velocity": 100}, {"time": 2633, "pitch": 67, "duration": 9, "velocity": 107}, {"time": 2639, "pitch": 55, "duration": 6, "velocity": 88}, {"time": 2645, "pitch": 48, "duration": 44, "velocity": 90}, {"time": 2645, "pitch": 60, "duration": 8, "velocity": 89}, {"time": 2645, "pitch": 63, "duration": 8, "velocity": 90}, {"time": 2645, "pitch": 67, "duration": 6, "velocity": 90}, {"time": 2651, "pitch": 55, "duration": 39, "velocity": 79}, {"time": 2657, "pitch": 60, "duration": 3, "velocity": 93}, {"time": 2657, "pitch": 63, "duration": 4, "velocity": 109}, {"time": 2657, "pitch": 67, "duration": 4, "velocity": 96}, {"time": 2663, "pitch": 60, "duration": 8, "velocity": 86}, {"time": 2669, "pitch": 63, "duration": 10, "velocity": 95}, {"time": 2669, "pitch": 72, "duration": 7, "velocity": 100}, {"time": 2675, "pitch": 60, "duration": 6, "velocity": 86}, {"time": 2681, "pitch": 63, "duration": 4, "velocity": 84}, {"time": 2681, "pitch": 67, "duration": 4, "velocity": 100}, {"time": 2681, "pitch": 72, "duration": 4, "velocity": 94}, {"time": 2687, "pitch": 60, "duration": 2, "velocity": 84}, {"time": 2693, "pitch": 48, "duration": 13, "velocity": 96}, {"time": 2693, "pitch": 60, "duration": 7, "velocity": 92}, {"time": 2693, "pitch": 63, "duration": 7, "velocity": 106}, {"time": 2693, "pitch": 67, "duration": 6, "velocity": 102}, {"time": 2699, "pitch": 55, "duration": 7, "velocity": 83}, {"time": 2705, "pitch": 60, "duration": 9, "velocity": 96}, {"time": 2705, "pitch": 63, "duration": 9, "velocity": 106}, {"time": 2705, "pitch": 67, "duration": 8, "velocity": 104}, {"time": 2711, "pitch": 48, "duration": 2, "velocity": 91}, {"time": 2717, "pitch": 46, "duration": 17, "velocity": 87}, {"time": 2717, "pitch": 62, "duration": 7, "velocity": 100}, {"time": 2717, "pitch": 65, "duration": 7, "velocity": 94}, {"time": 2723, "pitch": 58, "duration": 7, "velocity": 83}, {"time": 2729, "pitch": 62, "duration": 5, "velocity": 110}, {"time": 2729, "pitch": 65, "duration": 5, "velocity": 107}, {"time": 2735, "pitch": 58, "duration": 6, "velocity": 87}, {"time": 2741, "pitch": 43, "duration": 18, "velocity": 89}, {"time": 2741, "pitch": 58, "duration": 1, "velocity": 87}, {"time": 2741, "pitch": 67, "duration": 6, "velocity": 92}, {"time": 2747, "pitch": 55, "duration": 7, "velocity": 78}, {"time": 2753, "pitch": 58, "duration": 5, "velocity": 84}, {"time": 2753, "pitch": 62, "duration": 7, "velocity": 98}, {"time": 2753, "pitch": 67, "duration": 6, "velocity": 92}, {"time": 2759, "pitch": 55, "duration": 6, "velocity": 85}, {"time": 2765, "pitch": 48, "duration": 18, "velocity": 88}, {"time": 2765, "pitch": 60, "duration": 7, "velocity": 86}, {"time": 2765, "pitch": 63, "duration": 8, "velocity": 88}, {"time": 2765, "pitch": 67, "duration": 6, "velocity": 88}, {"time": 2771, "pitch": 55, "duration": 11, "velocity": 77}, {"time": 2777, "pitch": 60, "duration": 12, "velocity": 92}, {"time": 2777, "pitch": 63, "duration": 13, "velocity": 106}, {"time": 2777, "pitch": 67, "duration": 11, "velocity": 98}, {"time": 2789, "pitch": 44, "duration": 18, "velocity": 103}, {"time": 2795, "pitch": 56, "duration": 7, "velocity": 85}, {"time": 2801, "pitch": 60, "duration": 13, "velocity": 94}, {"time": 2801, "pitch": 63, "duration": 14, "velocity": 109}, {"time": 2801, "pitch": 68, "duration": 14, "velocity": 106}, {"time": 2807, "pitch": 56, "duration": 6, "velocity": 87}, {"time": 2813, "pitch": 46, "duration": 19, "velocity": 95}, {"time": 2819, "pitch": 58, "duration": 7, "velocity": 89}, {"time": 2825, "pitch": 62, "duration": 12, "velocity": 93}, {"time": 2825, "pitch": 65, "duration": 12, "velocity": 108}, {"time": 2831, "pitch": 58, "duration": 1, "velocity": 91}, {"time": 2837, "pitch": 39, "duration": 18, "velocity": 91}, {"time": 2837, "pitch": 63, "duration": 8, "velocity": 106}, {"time": 2837, "pitch": 68, "duration": 7, "velocity": 97}, {"time": 2843, "pitch": 51, "duration": 6, "velocity": 75}, {"time": 2849, "pitch": 63, "duration": 6, "velocity": 109}, {"time": 2849, "pitch": 68, "duration": 5, "velocity": 93}, {"time": 2855, "pitch": 51, "duration": 2, "velocity": 85}, {"time": 2861, "pitch": 43, "duration": 16, "velocity": 88}, {"time": 2861, "pitch": 59, "duration": 9, "velocity": 88}, {"time": 2861, "pitch": 62, "duration": 9, "velocity": 96}, {"time": 2861, "pitch": 67, "duration": 7, "velocity": 87}, {"time": 2870, "pitch": 55, "duration": 3, "velocity": 77}, {"time": 2873, "pitch": 59, "duration": 6, "velocity": 94}, {"time": 2873, "pitch": 62, "duration": 9, "velocity": 108}, {"time": 2873, "pitch": 67, "duration": 7, "velocity": 104}, {"time": 2879, "pitch": 55, "duration": 5, "velocity": 91}, {"time": 2885, "pitch": 48, "duration": 20, "velocity": 88}, {"time": 2885, "pitch": 60, "duration": 8, "velocity": 93}, {"time": 2885, "pitch": 63, "duration": 8, "velocity": 106}, {"time": 2885, "pitch": 67, "duration": 7, "velocity": 98}, {"time": 2891, "pitch": 55, "duration": 6, "velocity": 71}, {"time": 2897, "pitch": 60, "duration": 12, "velocity": 98}, {"time": 2897, "pitch": 63, "duration": 13, "velocity": 116}, {"time": 2897, "pitch": 67, "duration": 12, "velocity": 108}, {"time": 2903, "pitch": 55, "duration": 2, "velocity": 86}, {"time": 2909, "pitch": 46, "duration": 14, "velocity": 91}, {"time": 2915, "pitch": 58, "duration": 8, "velocity": 90}, {"time": 2921, "pitch": 62, "duration": 12, "velocity": 104}, {"time": 2921, "pitch": 65, "duration": 12, "velocity": 104}, {"time": 2927, "pitch": 46, "duration": 1, "velocity": 74}, {"time": 2927, "pitch": 58, "duration": 2, "velocity": 95}, {"time": 2933, "pitch": 43, "duration": 17, "velocity": 92}, {"time": 2933, "pitch": 58, "duration": 9, "velocity": 93}, {"time": 2933, "pitch": 67, "duration": 6, "velocity": 89}, {"time": 2939, "pitch": 50, "duration": 12, "velocity": 77}, {"time": 2945, "pitch": 58, "duration": 5, "velocity": 81}, {"time": 2945, "pitch": 62, "duration": 11, "velocity": 102}, {"time": 2945, "pitch": 67, "duration": 7, "velocity": 94}, {"time": 2951, "pitch": 55, "duration": 6, "velocity": 88}, {"time": 2957, "pitch": 48, "duration": 19, "velocity": 89}, {"time": 2957, "pitch": 60, "duration": 7, "velocity": 88}, {"time": 2957, "pitch": 63, "duration": 8, "velocity": 89}, {"time": 2957, "pitch": 67, "duration": 7, "velocity": 92}, {"time": 2963, "pitch": 55, "duration": 8, "velocity": 81}, {"time": 2969, "pitch": 60, "duration": 12, "velocity": 91}, {"time": 2969, "pitch": 63, "duration": 12, "velocity": 103}, {"time": 2969, "pitch": 67, "duration": 12, "velocity": 92}, {"time": 2975, "pitch": 55, "duration": 1, "velocity": 86}, {"time": 2981, "pitch": 44, "duration": 18, "velocity": 103}, {"time": 2987, "pitch": 56, "duration": 7, "velocity": 85}, {"time": 2993, "pitch": 60, "duration": 14, "velocity": 96}, {"time": 2993, "pitch": 63, "duration": 15, "velocity": 109}, {"time": 2999, "pitch": 56, "duration": 6, "velocity": 86}, {"time": 3005, "pitch": 46, "duration": 19, "velocity": 87}, {"time": 3011, "pitch": 58, "duration": 7, "velocity": 91}, {"time": 3017, "pitch": 62, "duration": 7, "velocity": 100}, {"time": 3023, "pitch": 58, "duration": 1, "velocity": 85}, {"time": 3029, "pitch": 43, "duration": 18, "velocity": 88}, {"time": 3029, "pitch": 58, "duration": 7, "velocity": 85}, {"time": 3029, "pitch": 62, "duration": 8, "velocity": 89}, {"time": 3029, "pitch": 67, "duration": 6, "velocity": 90}, {"time": 3035, "pitch": 50, "duration": 7, "velocity": 75}, {"time": 3041, "pitch": 58, "duration": 6, "velocity": 91}, {"time": 3041, "pitch": 62, "duration": 11, "velocity": 102}, {"time": 3041, "pitch": 67, "duration": 10, "velocity": 100}, {"time": 3053, "pitch": 48, "duration": 22, "velocity": 81}, {"time": 3053, "pitch": 60, "duration": 8, "velocity": 86}, {"time": 3053, "pitch": 63, "duration": 9, "velocity": 90}, {"time": 3053, "pitch": 67, "duration": 7, "velocity": 87}, {"time": 3059, "pitch": 55, "duration": 7, "velocity": 74}, {"time": 3065, "pitch": 60, "duration": 8, "velocity": 87}, {"time": 3065, "pitch": 63, "duration": 9, "velocity": 88}, {"time": 3065, "pitch": 67, "duration": 7, "velocity": 89}, {"time": 3071, "pitch": 55, "duration": 5, "velocity": 68}, {"time": 3077, "pitch": 48, "duration": 20, "velocity": 84}, {"time": 3077, "pitch": 60, "duration": 8, "velocity": 86}, {"time": 3077, "pitch": 63, "duration": 8, "velocity": 87}, {"time": 3077, "pitch": 67, "duration": 7, "velocity": 89}, {"time": 3083, "pitch": 55, "duration": 14, "velocity": 78}, {"time": 3089, "pitch": 60, "duration": 8, "velocity": 87}, {"time": 3089, "pitch": 63, "duration": 8, "velocity": 89}, {"time": 3089, "pitch": 67, "duration": 5, "velocity": 89}, {"time": 3101, "pitch": 48, "duration": 4, "velocity": 110}, {"time": 3101, "pitch": 60, "duration": 4, "velocity": 104}, {"time": 3101, "pitch": 63, "duration": 4, "velocity": 116}, {"time": 3101, "pitch": 67, "duration": 4, "velocity": 110}, {"time": 3125, "pitch": 46, "duration": 6, "velocity": 97}, {"time": 3125, "pitch": 58, "duration": 7, "velocity": 109}, {"time": 3125, "pitch": 62, "duration": 7, "velocity": 108}, {"time": 3125, "pitch": 65, "duration": 7, "velocity": 116}, {"time": 3125, "pitch": 70, "duration": 7, "velocity": 113}, {"time": 3149, "pitch": 43, "duration": 8, "velocity": 94}, {"time": 3149, "pitch": 55, "duration": 8, "velocity": 94}, {"time": 3149, "pitch": 58, "duration": 8, "velocity": 106}, {"time": 3149, "pitch": 62, "duration": 8, "velocity": 113}, {"time": 3149, "pitch": 67, "duration": 8, "velocity": 114}, {"time": 3179, "pitch": 48, "duration": 3, "velocity": 96}, {"time": 3179, "pitch": 60, "duration": 3, "velocity": 104}, {"time": 3179, "pitch": 63, "duration": 3, "velocity": 113}, {"time": 3179, "pitch": 67, "duration": 3, "velocity": 110}, {"time": 3185, "pitch": 48, "duration": 3, "velocity": 120}, {"time": 3185, "pitch": 60, "duration": 3, "velocity": 104}, {"time": 3185, "pitch": 63, "duration": 4, "velocity": 119}, {"time": 3185, "pitch": 67, "duration": 3, "velocity": 116}, {"time": 3197, "pitch": 44, "duration": 14, "velocity": 109}, {"time": 3197, "pitch": 56, "duration": 14, "velocity": 109}, {"time": 3197, "pitch": 60, "duration": 9, "velocity": 104}, {"time": 3197, "pitch": 63, "duration": 9, "velocity": 113}, {"time": 3209, "pitch": 60, "duration": 7, "velocity": 110}, {"time": 3209, "pitch": 63, "duration": 8, "velocity": 116}, {"time": 3215, "pitch": 44, "duration": 1, "velocity": 93}, {"time": 3215, "pitch": 56, "duration": 1, "velocity": 103}, {"time": 3221, "pitch": 46, "duration": 13, "velocity": 97}, {"time": 3221, "pitch": 58, "duration": 13, "velocity": 103}, {"time": 3221, "pitch": 62, "duration": 9, "velocity": 114}, {"time": 3221, "pitch": 65, "duration": 9, "velocity": 114}, {"time": 3233, "pitch": 62, "duration": 6, "velocity": 117}, {"time": 3233, "pitch": 65, "duration": 5, "velocity": 116}, {"time": 3239, "pitch": 46, "duration": 1, "velocity": 93}, {"time": 3239, "pitch": 58, "duration": 1, "velocity": 100}, {"time": 3245, "pitch": 39, "duration": 12, "velocity": 90}, {"time": 3245, "pitch": 51, "duration": 13, "velocity": 95}, {"time": 3245, "pitch": 63, "duration": 9, "velocity": 97}, {"time": 3245, "pitch": 67, "duration": 9, "velocity": 114}, {"time": 3245, "pitch": 70, "duration": 9, "velocity": 97}, {"time": 3257, "pitch": 63, "duration": 4, "velocity": 95}, {"time": 3257, "pitch": 67, "duration": 4, "velocity": 113}, {"time": 3257, "pitch": 70, "duration": 4, "velocity": 95}, {"time": 3263, "pitch": 39, "duration": 1, "velocity": 85}, {"time": 3263, "pitch": 51, "duration": 1, "velocity": 95}, {"time": 3269, "pitch": 43, "duration": 5, "velocity": 88}, {"time": 3269, "pitch": 55, "duration": 5, "velocity": 90}, {"time": 3269, "pitch": 59, "duration": 9, "velocity": 110}, {"time": 3269, "pitch": 62, "duration": 9, "velocity": 119}, {"time": 3269, "pitch": 67, "duration": 8, "velocity": 107}, {"time": 3278, "pitch": 43, "duration": 4, "velocity": 104}, {"time": 3278, "pitch": 55, "duration": 4, "velocity": 114}, {"time": 3281, "pitch": 59, "duration": 7, "velocity": 117}, {"time": 3281, "pitch": 62, "duration": 8, "velocity": 123}, {"time": 3281, "pitch": 67, "duration": 7, "velocity": 116}, {"time": 3287, "pitch": 43, "duration": 1, "velocity": 94}, {"time": 3287, "pitch": 55, "duration": 2, "velocity": 113}, {"time": 3293, "pitch": 48, "duration": 2, "velocity": 113}, {"time": 3293, "pitch": 60, "duration": 2, "velocity": 110}, {"time": 3293, "pitch": 63, "duration": 2, "velocity": 119}, {"time": 3293, "pitch": 67, "duration": 2, "velocity": 114}, {"time": 3299, "pitch": 48, "duration": 11, "velocity": 116}, {"time": 3299, "pitch": 60, "duration": 8, "velocity": 114}, {"time": 3299, "pitch": 63, "duration": 8, "velocity": 123}, {"time": 3299, "pitch": 67, "duration": 8, "velocity": 113}, {"time": 3305, "pitch": 55, "duration": 4, "velocity": 87}, {"time": 3311, "pitch": 60, "duration": 3, "velocity": 107}, {"time": 3311, "pitch": 63, "duration": 3, "velocity": 116}, {"time": 3311, "pitch": 67, "duration": 2, "velocity": 110}, {"time": 3317, "pitch": 46, "duration": 15, "velocity": 100}, {"time": 3317, "pitch": 58, "duration": 1, "velocity": 93}, {"time": 3323, "pitch": 58, "duration": 8, "velocity": 103}, {"time": 3329, "pitch": 62, "duration": 12, "velocity": 113}, {"time": 3329, "pitch": 65, "duration": 12, "velocity": 117}, {"time": 3329, "pitch": 70, "duration": 11, "velocity": 116}, {"time": 3341, "pitch": 43, "duration": 18, "velocity": 100}, {"time": 3347, "pitch": 55, "duration": 7, "velocity": 86}, {"time": 3353, "pitch": 58, "duration": 7, "velocity": 103}, {"time": 3353, "pitch": 67, "duration": 10, "velocity": 104}, {"time": 3359, "pitch": 55, "duration": 6, "velocity": 90}, {"time": 3365, "pitch": 48, "duration": 19, "velocity": 91}, {"time": 3365, "pitch": 60, "duration": 9, "velocity": 87}, {"time": 3365, "pitch": 63, "duration": 10, "velocity": 91}, {"time": 3365, "pitch": 67, "duration": 9, "velocity": 89}, {"time": 3374, "pitch": 55, "duration": 4, "velocity": 89}, {"time": 3377, "pitch": 62, "duration": 12, "velocity": 107}, {"time": 3383, "pitch": 55, "duration": 1, "velocity": 88}, {"time": 3389, "pitch": 44, "duration": 18, "velocity": 109}, {"time": 3395, "pitch": 56, "duration": 7, "velocity": 91}, {"time": 3401, "pitch": 60, "duration": 11, "velocity": 96}, {"time": 3401, "pitch": 63, "duration": 12, "velocity": 109}, {"time": 3401, "pitch": 68, "duration": 12, "velocity": 100}, {"time": 3407, "pitch": 56, "duration": 5, "velocity": 89}, {"time": 3413, "pitch": 46, "duration": 19, "velocity": 106}, {"time": 3419, "pitch": 58, "duration": 7, "velocity": 93}, {"time": 3425, "pitch": 62, "duration": 13, "velocity": 102}, {"time": 3425, "pitch": 70, "duration": 12, "velocity": 97}, {"time": 3431, "pitch": 58, "duration": 2, "velocity": 89}, {"time": 3437, "pitch": 43, "duration": 17, "velocity": 102}, {"time": 3443, "pitch": 55, "duration": 7, "velocity": 87}, {"time": 3449, "pitch": 58, "duration": 7, "velocity": 88}, {"time": 3449, "pitch": 67, "duration": 9, "velocity": 88}, {"time": 3455, "pitch": 55, "duration": 6, "velocity": 88}, {"time": 3461, "pitch": 48, "duration": 15, "velocity": 82}, {"time": 3461, "pitch": 60, "duration": 7, "velocity": 84}, {"time": 3461, "pitch": 63, "duration": 8, "velocity": 87}, {"time": 3461, "pitch": 67, "duration": 6, "velocity": 85}, {"time": 3461, "pitch": 67, "duration": 6, "velocity": 87}, {"time": 3467, "pitch": 55, "duration": 7, "velocity": 82}, {"time": 3473, "pitch": 62, "duration": 11, "velocity": 104}, {"time": 3473, "pitch": 67, "duration": 7, "velocity": 92}, {"time": 3485, "pitch": 44, "duration": 18, "velocity": 87}, {"time": 3485, "pitch": 60, "duration": 8, "velocity": 86}, {"time": 3485, "pitch": 63, "duration": 10, "velocity": 83}, {"time": 3485, "pitch": 67, "duration": 10, "velocity": 88}, {"time": 3485, "pitch": 68, "duration": 7, "velocity": 90}, {"time": 3491, "pitch": 56, "duration": 7, "velocity": 82}, {"time": 3497, "pitch": 60, "duration": 5, "velocity": 88}, {"time": 3497, "pitch": 63, "duration": 5, "velocity": 90}, {"time": 3497, "pitch": 68, "duration": 6, "velocity": 87}, {"time": 3503, "pitch": 56, "duration": 6, "velocity": 82}, {"time": 3509, "pitch": 46, "duration": 17, "velocity": 83}, {"time": 3509, "pitch": 62, "duration": 5, "velocity": 87}, {"time": 3509, "pitch": 65, "duration": 5, "velocity": 94}, {"time": 3515, "pitch": 58, "duration": 10, "velocity": 86}, {"time": 3521, "pitch": 62, "duration": 9, "velocity": 90}, {"time": 3521, "pitch": 68, "duration": 4, "velocity": 90}, {"time": 3533, "pitch": 43, "duration": 38, "velocity": 80}, {"time": 3533, "pitch": 58, "duration": 37, "velocity": 88}, {"time": 3533, "pitch": 67, "duration": 38, "velocity": 92}, {"time": 3581, "pitch": 48, "duration": 19, "velocity": 81}, {"time": 3581, "pitch": 60, "duration": 5, "velocity": 73}, {"time": 3581, "pitch": 63, "duration": 15, "velocity": 77}, {"time": 3581, "pitch": 67, "duration": 12, "velocity": 78}, {"time": 3587, "pitch": 55, "duration": 13, "velocity": 71}, {"time": 3593, "pitch": 60, "duration": 6, "velocity": 78}, {"time": 3605, "pitch": 46, "duration": 18, "velocity": 81}, {"time": 3611, "pitch": 58, "duration": 11, "velocity": 79}, {"time": 3617, "pitch": 62, "duration": 13, "velocity": 81}, {"time": 3617, "pitch": 70, "duration": 12, "velocity": 82}, {"time": 3629, "pitch": 44, "duration": 17, "velocity": 93}, {"time": 3635, "pitch": 56, "duration": 12, "velocity": 81}, {"time": 3641, "pitch": 60, "duration": 13, "velocity": 81}, {"time": 3647, "pitch": 63, "duration": 7, "velocity": 84}, {"time": 3653, "pitch": 48, "duration": 16, "velocity": 85}, {"time": 3659, "pitch": 55, "duration": 11, "velocity": 83}, {"time": 3665, "pitch": 63, "duration": 6, "velocity": 82}, {"time": 3671, "pitch": 62, "duration": 7, "velocity": 87}, {"time": 3677, "pitch": 44, "duration": 18, "velocity": 87}, {"time": 3683, "pitch": 56, "duration": 13, "velocity": 83}, {"time": 3689, "pitch": 60, "duration": 10, "velocity": 81}, {"time": 3695, "pitch": 63, "duration": 7, "velocity": 84}, {"time": 3701, "pitch": 46, "duration": 13, "velocity": 85}, {"time": 3707, "pitch": 58, "duration": 7, "velocity": 82}, {"time": 3713, "pitch": 62, "duration": 6, "velocity": 83}, {"time": 3719, "pitch": 43, "duration": 9, "velocity": 80}, {"time": 3725, "pitch": 60, "duration": 10, "velocity": 79}, {"time": 3725, "pitch": 63, "duration": 16, "velocity": 76}, {"time": 3725, "pitch": 67, "duration": 8, "velocity": 76}, {"time": 3728, "pitch": 48, "duration": 65, "velocity": 80}, {"time": 3740, "pitch": 55, "duration": 48, "velocity": 70}, {"time": 3749, "pitch": 60, "duration": 41, "velocity": 79}, {"time": 3755, "pitch": 67, "duration": 6, "velocity": 72}, {"time": 3764, "pitch": 72, "duration": 3, "velocity": 38}, {"time": 3770, "pitch": 79, "duration": 21, "velocity": 79}, {"time": 3773, "pitch": 75, "duration": 16, "velocity": 78}], "annotations": [{"time": 9, "annotation": {"number": 64, "value": 127}, "group": "control_change"}, {"time": 9, "annotation": {"number": 64, "value": 38}, "group": "control_change"}, {"time": 13, "annotation": {"number": 64, "value": 74}, "group": "control_change"}, {"time": 13, "annotation": {"number": 64, "value": 127}, "group": "control_change"}, {"time": 20, "annotation": {"number": 64, "value": 38}, "group": "control_change"}, {"time": 20, "annotation": {"number": 64, "value": 0}, "group": "control_change"}, {"time": 21, "annotation": {"number": 64, "value": 127}, "group": "control_change"}, {"time": 90, "annotation": {"number": 64, "value": 74}, "group": "control_change"}, {"time": 90, "annotation": {"number": 64, "value": 127}, "group": "control_change"}, {"time": 198, "annotation": {"number": 64, "value": 127}, "group": "control_change"}, {"time": 201, "annotation": {"number": 64, "value": 74}, "group": "control_change"}, {"time": 201, "annotation": {"number": 64, "value": 127}, "group": "control_change"}, {"time": 217, "annotation": {"number": 64, "value": 38}, "group": "control_change"}, {"time": 217, "annotation": {"number": 64, "value": 0}, "group": "control_change"}, {"time": 221, "annotation": {"number": 64, "value": 127}, "group": "control_change"}, {"time": 233, "annotation": {"number": 64, "value": 74}, "group": "control_change"}, {"time": 233, "annotation": {"number": 64, "value": 127}, "group": "control_change"}, {"time": 233, "annotation": {"number": 64, "value": 0}, "group": "control_change"}, {"time": 240, "annotation": {"number": 64, "value": 38}, "group": "control_change"}, {"time": 240, "annotation": {"number": 64, "value": 0}, "group": "control_change"}, {"time": 246, "annotation": {"number": 64, "value": 127}, "group": "control_change"}, {"time": 263, "annotation": {"number": 64, "value": 74}, "group": "control_change"}, {"time": 263, "annotation": {"number": 64, "value": 127}, "group": "control_change"}, {"time": 264, "annotation": {"number": 64, "value": 74}, "group": "control_change"}, {"time": 264, "annotation": {"number": 64, "value": 127}, "group": "control_change"}, {"time": 265, "annotation": {"number": 64, "value": 38}, "group": "control_change"}, {"time": 265, "annotation": {"number": 64, "value": 0}, "group": "control_change"}, {"time": 270, "annotation": {"number": 64, "value": 74}, "group": "control_change"}, {"time": 270, "annotation": {"number": 64, "value": 127}, "group": "control_change"}, {"time": 271, "annotation": {"number": 64, "value": 127}, "group": "control_change"}, {"time": 279, "annotation": {"number": 64, "value": 0}, "group": "control_change"}, {"time": 279, "annotation": {"number": 64, "value": 38}, "group": "control_change"}, {"time": 279, "annotation": {"number": 64, "value": 127}, "group": "control_change"}, {"time": 279, "annotation": {"number": 64, "value": 74}, "group": "control_change"}, {"time": 280, "annotation": {"number": 64, "value": 38}, "group": "control_change"}, {"time": 280, "annotation": {"number": 64, "value": 0}, "group": "control_change"}, {"time": 280, "annotation": {"number": 64, "value": 127}, "group": "control_change"}, {"time": 288, "annotation": {"number": 64, "value": 74}, "group": "control_change"}, {"time": 288, "annotation": {"number": 64, "value": 127}, "group": "control_change"}, {"time": 289, "annotation": {"number": 64, "value": 74}, "group": "control_change"}, {"time": 289, "annotation": {"number": 64, "value": 127}, "group": "control_change"}, {"time": 289, "annotation": {"number": 64, "value": 38}, "group": "control_change"}, {"time": 289, "annotation": {"number": 64, "value": 0}, "group": "control_change"}, {"time": 292, "annotation": {"number": 64, "value": 127}, "group": "control_change"}, {"time": 294, "annotation": {"number": 64, "value": 127}, "group": "control_change"}, {"time": 296, "annotation": {"number": 64, "value": 74}, "group": "control_change"}, {"time": 296, "annotation": {"number": 64, "value": 127}, "group": "control_change"}, {"time": 298, "annotation": {"number": 64, "value": 74}, "group": "control_change"}, {"time": 298, "annotation": {"number": 64, "value": 127}, "group": "control_change"}, {"time": 302, "annotation": {"number": 64, "value": 74}, "group": "control_change"}, {"time": 303, "annotation": {"number": 64, "value": 127}, "group": "control_change"}, {"time": 303, "annotation": {"number": 64, "value": 74}, "group": "control_change"}, {"time": 305, "annotation": {"number": 64, "value": 74}, "group": "control_change"}, {"time": 305, "annotation": {"number": 64, "value": 127}, "group": "control_change"}, {"time": 308, "annotation": {"number": 64, "value": 38}, "group": "control_change"}, {"time": 308, "annotation": {"number": 64, "value": 127}, "group": "control_change"}, {"time": 312, "annotation": {"number": 64, "value": 74}, "group": "control_change"}, {"time": 312, "annotation": {"number": 64, "value": 127}, "group": "control_change"}, {"time": 312, "annotation": {"number": 64, "value": 0}, "group": "control_change"}, {"time": 313, "annotation": {"number": 64, "value": 74}, "group": "control_change"}, {"time": 313, "annotation": {"number": 64, "value": 0}, "group": "control_change"}, {"time": 317, "annotation": {"number": 64, "value": 127}, "group": "control_change"}, {"time": 318, "annotation": {"number": 64, "value": 74}, "group": "control_change"}, {"time": 318, "annotation": {"number": 64, "value": 38}, "group": "control_change"}, {"time": 318, "annotation": {"number": 64, "value": 127}, "group": "control_change"}, {"time": 321, "annotation": {"number": 64, "value": 74}, "group": "control_change"}, {"time": 322, "annotation": {"number": 64, "value": 127}, "group": "control_change"}, {"time": 329, "annotation": {"number": 64, "value": 74}, "group": "control_change"}, {"time": 329, "annotation": {"number": 64, "value": 127}, "group": "control_change"}, {"time": 337, "annotation": {"number": 64, "value": 74}, "group": "control_change"}, {"time": 337, "annotation": {"number": 64, "value": 38}, "group": "control_change"}, {"time": 337, "annotation": {"number": 64, "value": 0}, "group": "control_change"}, {"time": 340, "annotation": {"number": 64, "value": 74}, "group": "control_change"}, {"time": 340, "annotation": {"number": 64, "value": 127}, "group": "control_change"}, {"time": 346, "annotation": {"number": 64, "value": 74}, "group": "control_change"}, {"time": 346, "annotation": {"number": 64, "value": 127}, "group": "control_change"}, {"time": 349, "annotation": {"number": 64, "value": 74}, "group": "control_change"}, {"time": 349, "annotation": {"number": 64, "value": 127}, "group": "control_change"}, {"time": 365, "annotation": {"number": 64, "value": 74}, "group": "control_change"}, {"time": 365, "annotation": {"number": 64, "value": 127}, "group": "control_change"}, {"time": 387, "annotation": {"number": 64, "value": 74}, "group": "control_change"}, {"time": 387, "annotation": {"number": 64, "value": 127}, "group": "control_change"}, {"time": 388, "annotation": {"number": 64, "value": 74}, "group": "control_change"}, {"time": 388, "annotation": {"number": 64, "value": 0}, "group": "control_change"}, {"time": 390, "annotation": {"number": 64, "value": 127}, "group": "control_change"}, {"time": 391, "annotation": {"number": 64, "value": 74}, "group": "control_change"}, {"time": 391, "annotation": {"number": 64, "value": 127}, "group": "control_change"}, {"time": 392, "annotation": {"number": 64, "value": 74}, "group": "control_change"}, {"time": 392, "annotation": {"number": 64, "value": 0}, "group": "control_change"}, {"time": 392, "annotation": {"number": 64, "value": 127}, "group": "control_change"}, {"time": 393, "annotation": {"number": 64, "value": 0}, "group": "control_change"}, {"time": 393, "annotation": {"number": 64, "value": 127}, "group": "control_change"}, {"time": 399, "annotation": {"number": 64, "value": 74}, "group": "control_change"}, {"time": 399, "annotation": {"number": 64, "value": 0}, "group": "control_change"}, {"time": 399, "annotation": {"number": 64, "value": 127}, "group": "control_change"}, {"time": 400, "annotation": {"number": 64, "value": 74}, "group": "control_change"}, {"time": 401, "annotation": {"number": 64, "value": 0}, "group": "control_change"}, {"time": 401, "annotation": {"number": 64, "value": 127}, "group": "control_change"}, {"time": 401, "annotation": {"number": 64, "value": 74}, "group": "control_change"}, {"time": 410, "annotation": {"number": 64, "value": 38}, "group": "control_change"}, {"time": 410, "annotation": {"number": 64, "value": 0}, "group": "control_change"}, {"time": 413, "annotation": {"number": 64, "value": 127}, "group": "control_change"}, {"time": 414, "annotation": {"number": 64, "value": 74}, "group": "control_change"}, {"time": 414, "annotation": {"number": 64, "value": 127}, "group": "control_change"}, {"time": 424, "annotation": {"number": 64, "value": 38}, "group": "control_change"}, {"time": 424, "annotation": {"number": 64, "value": 0}, "group": "control_change"}, {"time": 425, "annotation": {"number": 64, "value": 127}, "group": "control_change"}, {"time": 432, "annotation": {"number": 64, "value": 74}, "group": "control_change"}, {"time": 433, "annotation": {"number": 64, "value": 127}, "group": "control_change"}, {"time": 433, "annotation": {"number": 64, "value": 74}, "group": "control_change"}, {"time": 434, "annotation": {"number": 64, "value": 74}, "group": "control_change"}, {"time": 434, "annotation": {"number": 64, "value": 0}, "group": "control_change"}, {"time": 436, "annotation": {"number": 64, "value": 74}, "group": "control_change"}, {"time": 436, "annotation": {"number": 64, "value": 127}, "group": "control_change"}, {"time": 440, "annotation": {"number": 64, "value": 74}, "group": "control_change"}, {"time": 440, "annotation": {"number": 64, "value": 127}, "group": "control_change"}, {"time": 481, "annotation": {"number": 64, "value": 0}, "group": "control_change"}, {"time": 485, "annotation": {"number": 64, "value": 127}, "group": "control_change"}, {"time": 497, "annotation": {"number": 64, "value": 38}, "group": "control_change"}, {"time": 497, "annotation": {"number": 64, "value": 127}, "group": "control_change"}, {"time": 507, "annotation": {"number": 64, "value": 74}, "group": "control_change"}, {"time": 507, "annotation": {"number": 64, "value": 0}, "group": "control_change"}, {"time": 509, "annotation": {"number": 64, "value": 127}, "group": "control_change"}, {"time": 510, "annotation": {"number": 64, "value": 74}, "group": "control_change"}, {"time": 510, "annotation": {"number": 64, "value": 127}, "group": "control_change"}, {"time": 520, "annotation": {"number": 64, "value": 74}, "group": "control_change"}, {"time": 521, "annotation": {"number": 64, "value": 0}, "group": "control_change"}, {"time": 521, "annotation": {"number": 64, "value": 38}, "group": "control_change"}, {"time": 521, "annotation": {"number": 64, "value": 127}, "group": "control_change"}, {"time": 528, "annotation": {"number": 64, "value": 38}, "group": "control_change"}, {"time": 528, "annotation": {"number": 64, "value": 127}, "group": "control_change"}, {"time": 528, "annotation": {"number": 64, "value": 74}, "group": "control_change"}, {"time": 529, "annotation": {"number": 64, "value": 74}, "group": "control_change"}, {"time": 529, "annotation": {"number": 64, "value": 127}, "group": "control_change"}, {"time": 530, "annotation": {"number": 64, "value": 38}, "group": "control_change"}, {"time": 530, "annotation": {"number": 64, "value": 0}, "group": "control_change"}, {"time": 533, "annotation": {"number": 64, "value": 127}, "group": "control_change"}, {"time": 552, "annotation": {"number": 64, "value": 74}, "group": "control_change"}, {"time": 552, "annotation": {"number": 64, "value": 127}, "group": "control_change"}, {"time": 553, "annotation": {"number": 64, "value": 38}, "group": "control_change"}, {"time": 553, "annotation": {"number": 64, "value": 0}, "group": "control_change"}, {"time": 553, "annotation": {"number": 64, "value": 127}, "group": "control_change"}, {"time": 577, "annotation": {"number": 64, "value": 74}, "group": "control_change"}, {"time": 577, "annotation": {"number": 64, "value": 127}, "group": "control_change"}, {"time": 578, "annotation": {"number": 64, "value": 0}, "group": "control_change"}, {"time": 580, "annotation": {"number": 64, "value": 38}, "group": "control_change"}, {"time": 580, "annotation": {"number": 64, "value": 127}, "group": "control_change"}, {"time": 614, "annotation": {"number": 64, "value": 38}, "group": "control_change"}, {"time": 615, "annotation": {"number": 64, "value": 0}, "group": "control_change"}, {"time": 1926, "annotation": {"number": 64, "value": 127}, "group": "control_change"}, {"time": 1927, "annotation": {"number": 64, "value": 74}, "group": "control_change"}, {"time": 1927, "annotation": {"number": 64, "value": 127}, "group": "control_change"}, {"time": 1928, "annotation": {"number": 64, "value": 74}, "group": "control_change"}, {"time": 1928, "annotation": {"number": 64, "value": 0}, "group": "control_change"}, {"time": 1928, "annotation": {"number": 64, "value": 127}, "group": "control_change"}, {"time": 1929, "annotation": {"number": 64, "value": 0}, "group": "control_change"}, {"time": 1929, "annotation": {"number": 64, "value": 127}, "group": "control_change"}, {"time": 1935, "annotation": {"number": 64, "value": 74}, "group": "control_change"}, {"time": 1935, "annotation": {"number": 64, "value": 0}, "group": "control_change"}, {"time": 1935, "annotation": {"number": 64, "value": 127}, "group": "control_change"}, {"time": 1936, "annotation": {"number": 64, "value": 74}, "group": "control_change"}, {"time": 1937, "annotation": {"number": 64, "value": 0}, "group": "control_change"}, {"time": 1937, "annotation": {"number": 64, "value": 127}, "group": "control_change"}, {"time": 1937, "annotation": {"number": 64, "value": 74}, "group": "control_change"}, {"time": 1946, "annotation": {"number": 64, "value": 38}, "group": "control_change"}, {"time": 1946, "annotation": {"number": 64, "value": 0}, "group": "control_change"}, {"time": 1949, "annotation": {"number": 64, "value": 127}, "group": "control_change"}, {"time": 1950, "annotation": {"number": 64, "value": 74}, "group": "control_change"}, {"time": 1950, "annotation": {"number": 64, "value": 127}, "group": "control_change"}, {"time": 1960, "annotation": {"number": 64, "value": 38}, "group": "control_change"}, {"time": 1960, "annotation": {"number": 64, "value": 0}, "group": "control_change"}, {"time": 1961, "annotation": {"number": 64, "value": 127}, "group": "control_change"}, {"time": 1968, "annotation": {"number": 64, "value": 74}, "group": "control_change"}, {"time": 1969, "annotation": {"number": 64, "value": 127}, "group": "control_change"}, {"time": 1969, "annotation": {"number": 64, "value": 74}, "group": "control_change"}, {"time": 1970, "annotation": {"number": 64, "value": 74}, "group": "control_change"}, {"time": 1970, "annotation": {"number": 64, "value": 0}, "group": "control_change"}, {"time": 1972, "annotation": {"number": 64, "value": 74}, "group": "control_change"}, {"time": 1972, "annotation": {"number": 64, "value": 127}, "group": "control_change"}, {"time": 1976, "annotation": {"number": 64, "value": 74}, "group": "control_change"}, {"time": 1976, "annotation": {"number": 64, "value": 127}, "group": "control_change"}, {"time": 2017, "annotation": {"number": 64, "value": 0}, "group": "control_change"}, {"time": 2021, "annotation": {"number": 64, "value": 127}, "group": "control_change"}, {"time": 2033, "annotation": {"number": 64, "value": 38}, "group": "control_change"}, {"time": 2033, "annotation": {"number": 64, "value": 127}, "group": "control_change"}, {"time": 2043, "annotation": {"number": 64, "value": 74}, "group": "control_change"}, {"time": 2043, "annotation": {"number": 64, "value": 0}, "group": "control_change"}, {"time": 2045, "annotation": {"number": 64, "value": 127}, "group": "control_change"}, {"time": 2046, "annotation": {"number": 64, "value": 74}, "group": "control_change"}, {"time": 2046, "annotation": {"number": 64, "value": 127}, "group": "control_change"}, {"time": 2056, "annotation": {"number": 64, "value": 74}, "group": "control_change"}, {"time": 2057, "annotation": {"number": 64, "value": 0}, "group": "control_change"}, {"time": 2057, "annotation": {"number": 64, "value": 38}, "group": "control_change"}, {"time": 2057, "annotation": {"number": 64, "value": 127}, "group": "control_change"}, {"time": 2064, "annotation": {"number": 64, "value": 38}, "group": "control_change"}, {"time": 2064, "annotation": {"number": 64, "value": 127}, "group": "control_change"}, {"time": 2064, "annotation": {"number": 64, "value": 74}, "group": "control_change"}, {"time": 2065, "annotation": {"number": 64, "value": 74}, "group": "control_change"}, {"time": 2065, "annotation": {"number": 64, "value": 127}, "group": "control_change"}, {"time": 2066, "annotation": {"number": 64, "value": 38}, "group": "control_change"}, {"time": 2066, "annotation": {"number": 64, "value": 0}, "group": "control_change"}, {"time": 2069, "annotation": {"number": 64, "value": 127}, "group": "control_change"}, {"time": 2088, "annotation": {"number": 64, "value": 74}, "group": "control_change"}, {"time": 2088, "annotation": {"number": 64, "value": 127}, "group": "control_change"}, {"time": 2089, "annotation": {"number": 64, "value": 38}, "group": "control_change"}, {"time": 2089, "annotation": {"number": 64, "value": 0}, "group": "control_change"}, {"time": 2089, "annotation": {"number": 64, "value": 127}, "group": "control_change"}, {"time": 2113, "annotation": {"number": 64, "value": 74}, "group": "control_change"}, {"time": 2113, "annotation": {"number": 64, "value": 127}, "group": "control_change"}, {"time": 2114, "annotation": {"number": 64, "value": 0}, "group": "control_change"}, {"time": 2116, "annotation": {"number": 64, "value": 38}, "group": "control_change"}, {"time": 2116, "annotation": {"number": 64, "value": 127}, "group": "control_change"}, {"time": 2150, "annotation": {"number": 64, "value": 38}, "group": "control_change"}, {"time": 2151, "annotation": {"number": 64, "value": 0}, "group": "control_change"}]}]}