{"metadata": {"schema_version": "0.2", "title": "None", "source_filename": "555.mid", "source_format": "midi"}, "resolution": 12, "tempos": [{"time": 0, "qpm": 75.0}], "time_signatures": [{"time": 0, "numerator": 4, "denominator": 4}], "tracks": [{"program": 0, "is_drum": false, "name": "MELODY", "notes": [{"time": 199, "pitch": 79, "duration": 3, "velocity": 113}, {"time": 202, "pitch": 77, "duration": 2, "velocity": 110}, {"time": 205, "pitch": 79, "duration": 5, "velocity": 114}, {"time": 211, "pitch": 77, "duration": 3, "velocity": 113}, {"time": 214, "pitch": 77, "duration": 4, "velocity": 107}, {"time": 217, "pitch": 79, "duration": 4, "velocity": 114}, {"time": 223, "pitch": 77, "duration": 4, "velocity": 113}, {"time": 229, "pitch": 74, "duration": 2, "velocity": 104}, {"time": 232, "pitch": 72, "duration": 3, "velocity": 98}, {"time": 235, "pitch": 70, "duration": 4, "velocity": 106}, {"time": 241, "pitch": 74, "duration": 8, "velocity": 108}, {"time": 295, "pitch": 72, "duration": 2, "velocity": 104}, {"time": 298, "pitch": 72, "duration": 1, "velocity": 93}, {"time": 301, "pitch": 72, "duration": 4, "velocity": 107}, {"time": 307, "pitch": 70, "duration": 3, "velocity": 106}, {"time": 313, "pitch": 74, "duration": 4, "velocity": 113}, {"time": 319, "pitch": 72, "duration": 4, "velocity": 110}, {"time": 325, "pitch": 70, "duration": 4, "velocity": 116}, {"time": 328, "pitch": 67, "duration": 5, "velocity": 102}, {"time": 334, "pitch": 65, "duration": 5, "velocity": 96}, {"time": 343, "pitch": 67, "duration": 6, "velocity": 104}, {"time": 394, "pitch": 67, "duration": 2, "velocity": 93}, {"time": 397, "pitch": 70, "duration": 3, "velocity": 116}, {"time": 403, "pitch": 70, "duration": 3, "velocity": 116}, {"time": 406, "pitch": 67, "duration": 2, "velocity": 107}, {"time": 409, "pitch": 74, "duration": 4, "velocity": 117}, {"time": 415, "pitch": 72, "duration": 3, "velocity": 116}, {"time": 427, "pitch": 74, "duration": 2, "velocity": 116}, {"time": 430, "pitch": 77, "duration": 1, "velocity": 107}, {"time": 433, "pitch": 79, "duration": 3, "velocity": 116}, {"time": 439, "pitch": 79, "duration": 4, "velocity": 117}, {"time": 445, "pitch": 77, "duration": 4, "velocity": 119}, {"time": 451, "pitch": 72, "duration": 4, "velocity": 114}, {"time": 457, "pitch": 74, "duration": 5, "velocity": 117}, {"time": 487, "pitch": 79, "duration": 2, "velocity": 114}, {"time": 490, "pitch": 79, "duration": 2, "velocity": 104}, {"time": 493, "pitch": 79, "duration": 3, "velocity": 114}, {"time": 499, "pitch": 79, "duration": 3, "velocity": 116}, {"time": 502, "pitch": 82, "duration": 3, "velocity": 113}, {"time": 505, "pitch": 81, "duration": 4, "velocity": 113}, {"time": 511, "pitch": 79, "duration": 3, "velocity": 108}, {"time": 514, "pitch": 81, "duration": 3, "velocity": 117}, {"time": 520, "pitch": 79, "duration": 3, "velocity": 110}, {"time": 523, "pitch": 77, "duration": 1, "velocity": 100}, {"time": 526, "pitch": 79, "duration": 1, "velocity": 102}, {"time": 529, "pitch": 79, "duration": 4, "velocity": 114}, {"time": 583, "pitch": 79, "duration": 3, "velocity": 113}, {"time": 586, "pitch": 77, "duration": 2, "velocity": 110}, {"time": 589, "pitch": 79, "duration": 5, "velocity": 114}, {"time": 595, "pitch": 77, "duration": 3, "velocity": 113}, {"time": 598, "pitch": 77, "duration": 4, "velocity": 107}, {"time": 601, "pitch": 79, "duration": 4, "velocity": 114}, {"time": 607, "pitch": 77, "duration": 4, "velocity": 113}, {"time": 613, "pitch": 74, "duration": 2, "velocity": 104}, {"time": 616, "pitch": 72, "duration": 3, "velocity": 98}, {"time": 619, "pitch": 70, "duration": 4, "velocity": 106}, {"time": 625, "pitch": 74, "duration": 8, "velocity": 108}, {"time": 679, "pitch": 72, "duration": 2, "velocity": 104}, {"time": 682, "pitch": 72, "duration": 1, "velocity": 93}, {"time": 685, "pitch": 72, "duration": 4, "velocity": 107}, {"time": 691, "pitch": 70, "duration": 3, "velocity": 106}, {"time": 697, "pitch": 74, "duration": 4, "velocity": 113}, {"time": 703, "pitch": 72, "duration": 4, "velocity": 110}, {"time": 709, "pitch": 70, "duration": 4, "velocity": 116}, {"time": 712, "pitch": 67, "duration": 5, "velocity": 102}, {"time": 718, "pitch": 65, "duration": 5, "velocity": 96}, {"time": 727, "pitch": 67, "duration": 6, "velocity": 104}, {"time": 778, "pitch": 67, "duration": 2, "velocity": 93}, {"time": 781, "pitch": 70, "duration": 3, "velocity": 116}, {"time": 787, "pitch": 70, "duration": 3, "velocity": 116}, {"time": 790, "pitch": 67, "duration": 2, "velocity": 107}, {"time": 793, "pitch": 74, "duration": 4, "velocity": 117}, {"time": 799, "pitch": 72, "duration": 3, "velocity": 116}, {"time": 811, "pitch": 74, "duration": 2, "velocity": 116}, {"time": 814, "pitch": 77, "duration": 1, "velocity": 107}, {"time": 817, "pitch": 79, "duration": 3, "velocity": 116}, {"time": 823, "pitch": 79, "duration": 4, "velocity": 117}, {"time": 829, "pitch": 77, "duration": 4, "velocity": 119}, {"time": 835, "pitch": 72, "duration": 4, "velocity": 114}, {"time": 841, "pitch": 74, "duration": 5, "velocity": 117}, {"time": 871, "pitch": 79, "duration": 2, "velocity": 114}, {"time": 874, "pitch": 79, "duration": 2, "velocity": 114}, {"time": 877, "pitch": 79, "duration": 3, "velocity": 116}, {"time": 883, "pitch": 79, "duration": 2, "velocity": 119}, {"time": 886, "pitch": 79, "duration": 2, "velocity": 117}, {"time": 889, "pitch": 79, "duration": 3, "velocity": 119}, {"time": 892, "pitch": 82, "duration": 2, "velocity": 123}, {"time": 901, "pitch": 82, "duration": 4, "velocity": 123}, {"time": 907, "pitch": 79, "duration": 4, "velocity": 117}, {"time": 913, "pitch": 81, "duration": 3, "velocity": 119}, {"time": 919, "pitch": 81, "duration": 8, "velocity": 123}, {"time": 949, "pitch": 82, "duration": 5, "velocity": 123}, {"time": 955, "pitch": 81, "duration": 5, "velocity": 119}, {"time": 961, "pitch": 79, "duration": 5, "velocity": 117}, {"time": 970, "pitch": 79, "duration": 1, "velocity": 116}, {"time": 973, "pitch": 79, "duration": 5, "velocity": 116}, {"time": 979, "pitch": 77, "duration": 4, "velocity": 119}, {"time": 985, "pitch": 74, "duration": 5, "velocity": 120}, {"time": 997, "pitch": 82, "duration": 4, "velocity": 123}, {"time": 1003, "pitch": 81, "duration": 3, "velocity": 120}, {"time": 1009, "pitch": 79, "duration": 5, "velocity": 120}, {"time": 1018, "pitch": 79, "duration": 2, "velocity": 117}, {"time": 1021, "pitch": 79, "duration": 4, "velocity": 117}, {"time": 1027, "pitch": 86, "duration": 4, "velocity": 120}, {"time": 1033, "pitch": 86, "duration": 6, "velocity": 123}, {"time": 1051, "pitch": 86, "duration": 1, "velocity": 119}, {"time": 1054, "pitch": 86, "duration": 2, "velocity": 113}, {"time": 1057, "pitch": 84, "duration": 3, "velocity": 119}, {"time": 1063, "pitch": 84, "duration": 3, "velocity": 120}, {"time": 1069, "pitch": 84, "duration": 3, "velocity": 120}, {"time": 1075, "pitch": 84, "duration": 3, "velocity": 119}, {"time": 1078, "pitch": 86, "duration": 3, "velocity": 108}, {"time": 1081, "pitch": 84, "duration": 3, "velocity": 116}, {"time": 1084, "pitch": 82, "duration": 3, "velocity": 116}, {"time": 1090, "pitch": 79, "duration": 4, "velocity": 117}, {"time": 1099, "pitch": 79, "duration": 3, "velocity": 116}, {"time": 1102, "pitch": 81, "duration": 3, "velocity": 116}, {"time": 1105, "pitch": 82, "duration": 2, "velocity": 113}, {"time": 1108, "pitch": 82, "duration": 2, "velocity": 106}, {"time": 1111, "pitch": 82, "duration": 1, "velocity": 106}, {"time": 1114, "pitch": 82, "duration": 1, "velocity": 109}, {"time": 1117, "pitch": 82, "duration": 2, "velocity": 119}, {"time": 1120, "pitch": 84, "duration": 2, "velocity": 117}, {"time": 1126, "pitch": 82, "duration": 2, "velocity": 119}, {"time": 1129, "pitch": 81, "duration": 6, "velocity": 120}, {"time": 1141, "pitch": 82, "duration": 5, "velocity": 123}, {"time": 1147, "pitch": 81, "duration": 5, "velocity": 119}, {"time": 1153, "pitch": 79, "duration": 5, "velocity": 117}, {"time": 1162, "pitch": 79, "duration": 1, "velocity": 116}, {"time": 1165, "pitch": 79, "duration": 5, "velocity": 116}, {"time": 1171, "pitch": 77, "duration": 4, "velocity": 119}, {"time": 1177, "pitch": 74, "duration": 5, "velocity": 120}, {"time": 1189, "pitch": 82, "duration": 4, "velocity": 123}, {"time": 1195, "pitch": 81, "duration": 3, "velocity": 120}, {"time": 1201, "pitch": 79, "duration": 5, "velocity": 120}, {"time": 1210, "pitch": 79, "duration": 2, "velocity": 117}, {"time": 1213, "pitch": 79, "duration": 4, "velocity": 117}, {"time": 1219, "pitch": 86, "duration": 4, "velocity": 120}, {"time": 1225, "pitch": 86, "duration": 6, "velocity": 123}, {"time": 1243, "pitch": 86, "duration": 1, "velocity": 119}, {"time": 1246, "pitch": 86, "duration": 2, "velocity": 113}, {"time": 1249, "pitch": 84, "duration": 3, "velocity": 119}, {"time": 1255, "pitch": 84, "duration": 3, "velocity": 120}, {"time": 1261, "pitch": 84, "duration": 3, "velocity": 120}, {"time": 1267, "pitch": 84, "duration": 3, "velocity": 119}, {"time": 1270, "pitch": 86, "duration": 3, "velocity": 108}, {"time": 1273, "pitch": 84, "duration": 3, "velocity": 116}, {"time": 1276, "pitch": 82, "duration": 3, "velocity": 116}, {"time": 1282, "pitch": 79, "duration": 4, "velocity": 117}, {"time": 1291, "pitch": 79, "duration": 3, "velocity": 116}, {"time": 1294, "pitch": 81, "duration": 3, "velocity": 116}, {"time": 1297, "pitch": 82, "duration": 2, "velocity": 113}, {"time": 1300, "pitch": 82, "duration": 2, "velocity": 106}, {"time": 1303, "pitch": 82, "duration": 1, "velocity": 106}, {"time": 1306, "pitch": 82, "duration": 1, "velocity": 109}, {"time": 1309, "pitch": 82, "duration": 2, "velocity": 119}, {"time": 1312, "pitch": 84, "duration": 2, "velocity": 117}, {"time": 1321, "pitch": 81, "duration": 2, "velocity": 119}, {"time": 1333, "pitch": 81, "duration": 3, "velocity": 117}, {"time": 1339, "pitch": 82, "duration": 3, "velocity": 119}, {"time": 1345, "pitch": 81, "duration": 4, "velocity": 119}, {"time": 1357, "pitch": 79, "duration": 5, "velocity": 117}, {"time": 1831, "pitch": 79, "duration": 3, "velocity": 113}, {"time": 1834, "pitch": 77, "duration": 2, "velocity": 110}, {"time": 1837, "pitch": 79, "duration": 5, "velocity": 114}, {"time": 1843, "pitch": 77, "duration": 3, "velocity": 113}, {"time": 1846, "pitch": 77, "duration": 4, "velocity": 107}, {"time": 1849, "pitch": 79, "duration": 4, "velocity": 114}, {"time": 1855, "pitch": 77, "duration": 4, "velocity": 113}, {"time": 1861, "pitch": 74, "duration": 2, "velocity": 104}, {"time": 1864, "pitch": 72, "duration": 3, "velocity": 98}, {"time": 1867, "pitch": 70, "duration": 4, "velocity": 106}, {"time": 1873, "pitch": 74, "duration": 8, "velocity": 108}, {"time": 1927, "pitch": 72, "duration": 2, "velocity": 104}, {"time": 1930, "pitch": 72, "duration": 1, "velocity": 93}, {"time": 1933, "pitch": 72, "duration": 4, "velocity": 107}, {"time": 1939, "pitch": 70, "duration": 3, "velocity": 106}, {"time": 1945, "pitch": 74, "duration": 4, "velocity": 113}, {"time": 1951, "pitch": 72, "duration": 4, "velocity": 110}, {"time": 1957, "pitch": 70, "duration": 4, "velocity": 116}, {"time": 1960, "pitch": 67, "duration": 5, "velocity": 102}, {"time": 1966, "pitch": 65, "duration": 5, "velocity": 96}, {"time": 1975, "pitch": 67, "duration": 6, "velocity": 104}, {"time": 2026, "pitch": 67, "duration": 2, "velocity": 93}, {"time": 2029, "pitch": 70, "duration": 3, "velocity": 116}, {"time": 2035, "pitch": 70, "duration": 3, "velocity": 116}, {"time": 2038, "pitch": 67, "duration": 2, "velocity": 107}, {"time": 2041, "pitch": 74, "duration": 4, "velocity": 117}, {"time": 2047, "pitch": 72, "duration": 3, "velocity": 116}, {"time": 2059, "pitch": 74, "duration": 2, "velocity": 116}, {"time": 2062, "pitch": 77, "duration": 1, "velocity": 107}, {"time": 2065, "pitch": 79, "duration": 3, "velocity": 116}, {"time": 2071, "pitch": 79, "duration": 4, "velocity": 117}, {"time": 2077, "pitch": 77, "duration": 4, "velocity": 119}, {"time": 2083, "pitch": 72, "duration": 4, "velocity": 114}, {"time": 2089, "pitch": 74, "duration": 5, "velocity": 117}, {"time": 2119, "pitch": 79, "duration": 2, "velocity": 114}, {"time": 2122, "pitch": 79, "duration": 2, "velocity": 114}, {"time": 2125, "pitch": 79, "duration": 3, "velocity": 116}, {"time": 2131, "pitch": 79, "duration": 2, "velocity": 119}, {"time": 2134, "pitch": 79, "duration": 2, "velocity": 117}, {"time": 2137, "pitch": 79, "duration": 3, "velocity": 119}, {"time": 2140, "pitch": 82, "duration": 2, "velocity": 123}, {"time": 2149, "pitch": 82, "duration": 4, "velocity": 123}, {"time": 2155, "pitch": 79, "duration": 4, "velocity": 117}, {"time": 2161, "pitch": 81, "duration": 3, "velocity": 119}, {"time": 2167, "pitch": 81, "duration": 8, "velocity": 123}, {"time": 2197, "pitch": 82, "duration": 5, "velocity": 123}, {"time": 2203, "pitch": 81, "duration": 5, "velocity": 119}, {"time": 2209, "pitch": 79, "duration": 5, "velocity": 117}, {"time": 2218, "pitch": 79, "duration": 1, "velocity": 116}, {"time": 2221, "pitch": 79, "duration": 5, "velocity": 116}, {"time": 2227, "pitch": 77, "duration": 4, "velocity": 119}, {"time": 2233, "pitch": 74, "duration": 5, "velocity": 120}, {"time": 2245, "pitch": 82, "duration": 4, "velocity": 123}, {"time": 2251, "pitch": 81, "duration": 3, "velocity": 120}, {"time": 2257, "pitch": 79, "duration": 5, "velocity": 120}, {"time": 2266, "pitch": 79, "duration": 2, "velocity": 117}, {"time": 2269, "pitch": 79, "duration": 4, "velocity": 117}, {"time": 2275, "pitch": 86, "duration": 4, "velocity": 120}, {"time": 2281, "pitch": 86, "duration": 6, "velocity": 123}, {"time": 2299, "pitch": 86, "duration": 1, "velocity": 119}, {"time": 2302, "pitch": 86, "duration": 2, "velocity": 113}, {"time": 2305, "pitch": 84, "duration": 3, "velocity": 119}, {"time": 2311, "pitch": 84, "duration": 3, "velocity": 120}, {"time": 2317, "pitch": 84, "duration": 3, "velocity": 120}, {"time": 2323, "pitch": 84, "duration": 3, "velocity": 119}, {"time": 2326, "pitch": 86, "duration": 3, "velocity": 108}, {"time": 2329, "pitch": 84, "duration": 3, "velocity": 116}, {"time": 2332, "pitch": 82, "duration": 3, "velocity": 116}, {"time": 2338, "pitch": 79, "duration": 4, "velocity": 117}, {"time": 2347, "pitch": 79, "duration": 3, "velocity": 116}, {"time": 2350, "pitch": 81, "duration": 3, "velocity": 116}, {"time": 2353, "pitch": 82, "duration": 2, "velocity": 113}, {"time": 2356, "pitch": 82, "duration": 2, "velocity": 106}, {"time": 2359, "pitch": 82, "duration": 1, "velocity": 106}, {"time": 2362, "pitch": 82, "duration": 1, "velocity": 109}, {"time": 2365, "pitch": 82, "duration": 2, "velocity": 119}, {"time": 2368, "pitch": 84, "duration": 2, "velocity": 117}, {"time": 2374, "pitch": 82, "duration": 2, "velocity": 119}, {"time": 2377, "pitch": 81, "duration": 6, "velocity": 120}, {"time": 2389, "pitch": 82, "duration": 5, "velocity": 123}, {"time": 2395, "pitch": 81, "duration": 5, "velocity": 119}, {"time": 2401, "pitch": 79, "duration": 5, "velocity": 117}, {"time": 2410, "pitch": 79, "duration": 1, "velocity": 116}, {"time": 2413, "pitch": 79, "duration": 5, "velocity": 116}, {"time": 2419, "pitch": 77, "duration": 4, "velocity": 119}, {"time": 2425, "pitch": 74, "duration": 5, "velocity": 120}, {"time": 2437, "pitch": 82, "duration": 4, "velocity": 123}, {"time": 2443, "pitch": 81, "duration": 3, "velocity": 120}, {"time": 2449, "pitch": 79, "duration": 5, "velocity": 120}, {"time": 2458, "pitch": 79, "duration": 2, "velocity": 117}, {"time": 2461, "pitch": 79, "duration": 4, "velocity": 117}, {"time": 2467, "pitch": 86, "duration": 4, "velocity": 120}, {"time": 2473, "pitch": 86, "duration": 6, "velocity": 123}, {"time": 2491, "pitch": 86, "duration": 1, "velocity": 119}, {"time": 2494, "pitch": 86, "duration": 2, "velocity": 113}, {"time": 2497, "pitch": 84, "duration": 3, "velocity": 119}, {"time": 2503, "pitch": 84, "duration": 3, "velocity": 120}, {"time": 2509, "pitch": 84, "duration": 3, "velocity": 120}, {"time": 2515, "pitch": 84, "duration": 3, "velocity": 119}, {"time": 2518, "pitch": 86, "duration": 3, "velocity": 108}, {"time": 2521, "pitch": 84, "duration": 3, "velocity": 116}, {"time": 2524, "pitch": 82, "duration": 3, "velocity": 116}, {"time": 2530, "pitch": 79, "duration": 4, "velocity": 117}, {"time": 2539, "pitch": 79, "duration": 3, "velocity": 116}, {"time": 2542, "pitch": 81, "duration": 3, "velocity": 116}, {"time": 2545, "pitch": 82, "duration": 2, "velocity": 113}, {"time": 2548, "pitch": 82, "duration": 2, "velocity": 106}, {"time": 2551, "pitch": 82, "duration": 1, "velocity": 106}, {"time": 2554, "pitch": 82, "duration": 1, "velocity": 109}, {"time": 2557, "pitch": 82, "duration": 2, "velocity": 119}, {"time": 2560, "pitch": 84, "duration": 2, "velocity": 117}, {"time": 2569, "pitch": 81, "duration": 2, "velocity": 119}, {"time": 2581, "pitch": 81, "duration": 3, "velocity": 117}, {"time": 2587, "pitch": 82, "duration": 3, "velocity": 119}, {"time": 2593, "pitch": 81, "duration": 4, "velocity": 119}, {"time": 2605, "pitch": 79, "duration": 5, "velocity": 117}, {"time": 2629, "pitch": 82, "duration": 5, "velocity": 123}, {"time": 2635, "pitch": 81, "duration": 5, "velocity": 119}, {"time": 2641, "pitch": 79, "duration": 5, "velocity": 117}, {"time": 2650, "pitch": 79, "duration": 1, "velocity": 116}, {"time": 2653, "pitch": 79, "duration": 5, "velocity": 116}, {"time": 2659, "pitch": 77, "duration": 4, "velocity": 119}, {"time": 2665, "pitch": 74, "duration": 5, "velocity": 120}, {"time": 2677, "pitch": 82, "duration": 4, "velocity": 123}, {"time": 2683, "pitch": 81, "duration": 3, "velocity": 120}, {"time": 2689, "pitch": 79, "duration": 5, "velocity": 120}, {"time": 2698, "pitch": 79, "duration": 2, "velocity": 117}, {"time": 2701, "pitch": 79, "duration": 4, "velocity": 117}, {"time": 2707, "pitch": 86, "duration": 4, "velocity": 120}, {"time": 2713, "pitch": 86, "duration": 6, "velocity": 123}, {"time": 2731, "pitch": 86, "duration": 1, "velocity": 119}, {"time": 2734, "pitch": 86, "duration": 2, "velocity": 113}, {"time": 2737, "pitch": 84, "duration": 3, "velocity": 119}, {"time": 2743, "pitch": 84, "duration": 3, "velocity": 120}, {"time": 2749, "pitch": 84, "duration": 3, "velocity": 120}, {"time": 2755, "pitch": 84, "duration": 3, "velocity": 119}, {"time": 2758, "pitch": 86, "duration": 3, "velocity": 108}, {"time": 2761, "pitch": 84, "duration": 3, "velocity": 116}, {"time": 2764, "pitch": 82, "duration": 3, "velocity": 116}, {"time": 2770, "pitch": 79, "duration": 4, "velocity": 117}, {"time": 2779, "pitch": 79, "duration": 3, "velocity": 116}, {"time": 2782, "pitch": 81, "duration": 3, "velocity": 116}, {"time": 2785, "pitch": 82, "duration": 2, "velocity": 113}, {"time": 2788, "pitch": 82, "duration": 2, "velocity": 106}, {"time": 2791, "pitch": 82, "duration": 1, "velocity": 106}, {"time": 2794, "pitch": 82, "duration": 1, "velocity": 109}, {"time": 2797, "pitch": 82, "duration": 2, "velocity": 119}, {"time": 2800, "pitch": 84, "duration": 2, "velocity": 117}, {"time": 2806, "pitch": 82, "duration": 2, "velocity": 119}, {"time": 2809, "pitch": 81, "duration": 6, "velocity": 120}, {"time": 2821, "pitch": 82, "duration": 5, "velocity": 123}, {"time": 2827, "pitch": 81, "duration": 5, "velocity": 119}, {"time": 2833, "pitch": 79, "duration": 5, "velocity": 117}, {"time": 2842, "pitch": 79, "duration": 1, "velocity": 116}, {"time": 2845, "pitch": 79, "duration": 5, "velocity": 116}, {"time": 2851, "pitch": 77, "duration": 4, "velocity": 119}, {"time": 2857, "pitch": 74, "duration": 5, "velocity": 120}, {"time": 2869, "pitch": 82, "duration": 4, "velocity": 123}, {"time": 2875, "pitch": 81, "duration": 3, "velocity": 120}, {"time": 2881, "pitch": 79, "duration": 5, "velocity": 120}, {"time": 2890, "pitch": 79, "duration": 2, "velocity": 117}, {"time": 2893, "pitch": 79, "duration": 4, "velocity": 117}, {"time": 2899, "pitch": 86, "duration": 4, "velocity": 120}, {"time": 2905, "pitch": 86, "duration": 6, "velocity": 123}, {"time": 2923, "pitch": 86, "duration": 1, "velocity": 119}, {"time": 2926, "pitch": 86, "duration": 2, "velocity": 113}, {"time": 2929, "pitch": 84, "duration": 3, "velocity": 119}, {"time": 2935, "pitch": 84, "duration": 3, "velocity": 120}, {"time": 2941, "pitch": 84, "duration": 3, "velocity": 120}, {"time": 2947, "pitch": 84, "duration": 3, "velocity": 119}, {"time": 2950, "pitch": 86, "duration": 3, "velocity": 108}, {"time": 2953, "pitch": 84, "duration": 3, "velocity": 116}, {"time": 2956, "pitch": 82, "duration": 3, "velocity": 116}, {"time": 2962, "pitch": 79, "duration": 4, "velocity": 117}, {"time": 2971, "pitch": 79, "duration": 3, "velocity": 116}, {"time": 2974, "pitch": 81, "duration": 3, "velocity": 116}, {"time": 2977, "pitch": 82, "duration": 2, "velocity": 113}, {"time": 2980, "pitch": 82, "duration": 2, "velocity": 106}, {"time": 2983, "pitch": 82, "duration": 1, "velocity": 106}, {"time": 2986, "pitch": 82, "duration": 1, "velocity": 109}, {"time": 2989, "pitch": 82, "duration": 2, "velocity": 119}, {"time": 2992, "pitch": 84, "duration": 2, "velocity": 117}, {"time": 3001, "pitch": 81, "duration": 2, "velocity": 119}, {"time": 3013, "pitch": 81, "duration": 3, "velocity": 117}, {"time": 3019, "pitch": 82, "duration": 3, "velocity": 119}, {"time": 3025, "pitch": 81, "duration": 4, "velocity": 119}, {"time": 3037, "pitch": 79, "duration": 5, "velocity": 117}]}, {"program": 0, "is_drum": false, "name": "BRIDGE", "notes": [{"time": 1, "pitch": 82, "duration": 3, "velocity": 119}, {"time": 19, "pitch": 81, "duration": 2, "velocity": 102}, {"time": 22, "pitch": 79, "duration": 2, "velocity": 104}, {"time": 25, "pitch": 81, "duration": 4, "velocity": 113}, {"time": 31, "pitch": 77, "duration": 6, "velocity": 108}, {"time": 37, "pitch": 74, "duration": 6, "velocity": 91}, {"time": 43, "pitch": 72, "duration": 4, "velocity": 87}, {"time": 49, "pitch": 75, "duration": 7, "velocity": 109}, {"time": 55, "pitch": 74, "duration": 5, "velocity": 107}, {"time": 61, "pitch": 75, "duration": 5, "velocity": 100}, {"time": 67, "pitch": 77, "duration": 5, "velocity": 104}, {"time": 73, "pitch": 74, "duration": 6, "velocity": 107}, {"time": 91, "pitch": 72, "duration": 2, "velocity": 104}, {"time": 94, "pitch": 74, "duration": 2, "velocity": 102}, {"time": 97, "pitch": 75, "duration": 4, "velocity": 113}, {"time": 97, "pitch": 87, "duration": 2, "velocity": 113}, {"time": 100, "pitch": 86, "duration": 3, "velocity": 98}, {"time": 103, "pitch": 74, "duration": 5, "velocity": 107}, {"time": 103, "pitch": 82, "duration": 3, "velocity": 97}, {"time": 106, "pitch": 79, "duration": 2, "velocity": 102}, {"time": 109, "pitch": 75, "duration": 4, "velocity": 113}, {"time": 109, "pitch": 87, "duration": 3, "velocity": 119}, {"time": 112, "pitch": 86, "duration": 3, "velocity": 102}, {"time": 115, "pitch": 70, "duration": 4, "velocity": 116}, {"time": 115, "pitch": 82, "duration": 3, "velocity": 97}, {"time": 118, "pitch": 79, "duration": 2, "velocity": 96}, {"time": 121, "pitch": 74, "duration": 5, "velocity": 110}, {"time": 121, "pitch": 84, "duration": 3, "velocity": 119}, {"time": 124, "pitch": 82, "duration": 3, "velocity": 109}, {"time": 127, "pitch": 81, "duration": 3, "velocity": 98}, {"time": 130, "pitch": 74, "duration": 3, "velocity": 102}, {"time": 133, "pitch": 72, "duration": 5, "velocity": 108}, {"time": 133, "pitch": 84, "duration": 3, "velocity": 119}, {"time": 136, "pitch": 82, "duration": 3, "velocity": 106}, {"time": 139, "pitch": 74, "duration": 2, "velocity": 110}, {"time": 139, "pitch": 81, "duration": 3, "velocity": 104}, {"time": 142, "pitch": 74, "duration": 2, "velocity": 102}, {"time": 145, "pitch": 67, "duration": 9, "velocity": 110}, {"time": 145, "pitch": 82, "duration": 3, "velocity": 116}, {"time": 148, "pitch": 81, "duration": 3, "velocity": 100}, {"time": 151, "pitch": 79, "duration": 3, "velocity": 108}, {"time": 154, "pitch": 74, "duration": 2, "velocity": 104}, {"time": 157, "pitch": 74, "duration": 4, "velocity": 113}, {"time": 160, "pitch": 72, "duration": 3, "velocity": 98}, {"time": 163, "pitch": 70, "duration": 2, "velocity": 103}, {"time": 166, "pitch": 69, "duration": 2, "velocity": 81}, {"time": 169, "pitch": 67, "duration": 5, "velocity": 96}, {"time": 649, "pitch": 91, "duration": 6, "velocity": 119}, {"time": 655, "pitch": 89, "duration": 12, "velocity": 123}, {"time": 667, "pitch": 82, "duration": 6, "velocity": 109}, {"time": 673, "pitch": 84, "duration": 23, "velocity": 121}, {"time": 751, "pitch": 79, "duration": 7, "velocity": 110}, {"time": 757, "pitch": 77, "duration": 6, "velocity": 107}, {"time": 763, "pitch": 72, "duration": 6, "velocity": 100}, {"time": 769, "pitch": 70, "duration": 8, "velocity": 106}, {"time": 858, "pitch": 84, "duration": 6, "velocity": 124}, {"time": 865, "pitch": 87, "duration": 15, "velocity": 107}, {"time": 884, "pitch": 87, "duration": 3, "velocity": 127}, {"time": 887, "pitch": 91, "duration": 3, "velocity": 127}, {"time": 890, "pitch": 89, "duration": 15, "velocity": 124}, {"time": 940, "pitch": 62, "duration": 2, "velocity": 107}, {"time": 943, "pitch": 67, "duration": 2, "velocity": 107}, {"time": 946, "pitch": 69, "duration": 1, "velocity": 108}, {"time": 949, "pitch": 70, "duration": 2, "velocity": 113}, {"time": 952, "pitch": 69, "duration": 3, "velocity": 98}, {"time": 955, "pitch": 67, "duration": 3, "velocity": 100}, {"time": 958, "pitch": 65, "duration": 2, "velocity": 102}, {"time": 961, "pitch": 67, "duration": 6, "velocity": 110}, {"time": 985, "pitch": 69, "duration": 23, "velocity": 120}, {"time": 1009, "pitch": 70, "duration": 9, "velocity": 114}, {"time": 1021, "pitch": 72, "duration": 10, "velocity": 113}, {"time": 1033, "pitch": 74, "duration": 10, "velocity": 117}, {"time": 1057, "pitch": 72, "duration": 12, "velocity": 114}, {"time": 1081, "pitch": 70, "duration": 18, "velocity": 119}, {"time": 1129, "pitch": 69, "duration": 3, "velocity": 117}, {"time": 1129, "pitch": 81, "duration": 2, "velocity": 119}, {"time": 1132, "pitch": 79, "duration": 3, "velocity": 107}, {"time": 1135, "pitch": 77, "duration": 3, "velocity": 114}, {"time": 1138, "pitch": 74, "duration": 1, "velocity": 110}, {"time": 1141, "pitch": 70, "duration": 3, "velocity": 119}, {"time": 1144, "pitch": 69, "duration": 3, "velocity": 94}, {"time": 1147, "pitch": 65, "duration": 3, "velocity": 107}, {"time": 1150, "pitch": 62, "duration": 2, "velocity": 104}, {"time": 1153, "pitch": 67, "duration": 23, "velocity": 117}, {"time": 1177, "pitch": 69, "duration": 25, "velocity": 119}, {"time": 1201, "pitch": 70, "duration": 11, "velocity": 123}, {"time": 1213, "pitch": 72, "duration": 10, "velocity": 116}, {"time": 1225, "pitch": 74, "duration": 24, "velocity": 119}, {"time": 1249, "pitch": 72, "duration": 25, "velocity": 119}, {"time": 1273, "pitch": 70, "duration": 48, "velocity": 116}, {"time": 1321, "pitch": 69, "duration": 24, "velocity": 117}, {"time": 1396, "pitch": 55, "duration": 3, "velocity": 96}, {"time": 1399, "pitch": 58, "duration": 2, "velocity": 100}, {"time": 1402, "pitch": 60, "duration": 2, "velocity": 96}, {"time": 1405, "pitch": 62, "duration": 3, "velocity": 116}, {"time": 1408, "pitch": 67, "duration": 3, "velocity": 107}, {"time": 1411, "pitch": 70, "duration": 2, "velocity": 95}, {"time": 1414, "pitch": 72, "duration": 2, "velocity": 104}, {"time": 1417, "pitch": 70, "duration": 3, "velocity": 103}, {"time": 1420, "pitch": 67, "duration": 4, "velocity": 92}, {"time": 1423, "pitch": 70, "duration": 2, "velocity": 119}, {"time": 1426, "pitch": 72, "duration": 2, "velocity": 114}, {"time": 1429, "pitch": 74, "duration": 3, "velocity": 114}, {"time": 1432, "pitch": 77, "duration": 4, "velocity": 108}, {"time": 1435, "pitch": 79, "duration": 2, "velocity": 104}, {"time": 1438, "pitch": 82, "duration": 3, "velocity": 113}, {"time": 1441, "pitch": 84, "duration": 3, "velocity": 116}, {"time": 1447, "pitch": 81, "duration": 1, "velocity": 116}, {"time": 1450, "pitch": 81, "duration": 1, "velocity": 108}, {"time": 1453, "pitch": 81, "duration": 3, "velocity": 117}, {"time": 1456, "pitch": 77, "duration": 2, "velocity": 96}, {"time": 1459, "pitch": 77, "duration": 2, "velocity": 100}, {"time": 1462, "pitch": 77, "duration": 2, "velocity": 104}, {"time": 1465, "pitch": 77, "duration": 3, "velocity": 104}, {"time": 1468, "pitch": 74, "duration": 3, "velocity": 102}, {"time": 1471, "pitch": 74, "duration": 3, "velocity": 113}, {"time": 1495, "pitch": 74, "duration": 6, "velocity": 113}, {"time": 1501, "pitch": 72, "duration": 5, "velocity": 116}, {"time": 1510, "pitch": 72, "duration": 2, "velocity": 107}, {"time": 1513, "pitch": 74, "duration": 3, "velocity": 108}, {"time": 1516, "pitch": 72, "duration": 3, "velocity": 107}, {"time": 1519, "pitch": 70, "duration": 2, "velocity": 106}, {"time": 1522, "pitch": 79, "duration": 5, "velocity": 117}, {"time": 1540, "pitch": 67, "duration": 4, "velocity": 104}, {"time": 1543, "pitch": 70, "duration": 2, "velocity": 113}, {"time": 1546, "pitch": 79, "duration": 2, "velocity": 113}, {"time": 1549, "pitch": 82, "duration": 4, "velocity": 117}, {"time": 1552, "pitch": 84, "duration": 3, "velocity": 110}, {"time": 1555, "pitch": 86, "duration": 3, "velocity": 114}, {"time": 1558, "pitch": 87, "duration": 3, "velocity": 116}, {"time": 1561, "pitch": 86, "duration": 5, "velocity": 119}, {"time": 1585, "pitch": 91, "duration": 13, "velocity": 117}, {"time": 1609, "pitch": 91, "duration": 4, "velocity": 117}, {"time": 1612, "pitch": 89, "duration": 3, "velocity": 110}, {"time": 1615, "pitch": 86, "duration": 3, "velocity": 104}, {"time": 1618, "pitch": 89, "duration": 5, "velocity": 117}, {"time": 1633, "pitch": 94, "duration": 3, "velocity": 119}, {"time": 1636, "pitch": 91, "duration": 2, "velocity": 107}, {"time": 1639, "pitch": 91, "duration": 2, "velocity": 110}, {"time": 1642, "pitch": 91, "duration": 1, "velocity": 91}, {"time": 1645, "pitch": 91, "duration": 3, "velocity": 113}, {"time": 1648, "pitch": 89, "duration": 1, "velocity": 108}, {"time": 1651, "pitch": 89, "duration": 1, "velocity": 107}, {"time": 1654, "pitch": 89, "duration": 1, "velocity": 104}, {"time": 1657, "pitch": 89, "duration": 2, "velocity": 108}, {"time": 1660, "pitch": 91, "duration": 3, "velocity": 102}, {"time": 1663, "pitch": 89, "duration": 3, "velocity": 96}, {"time": 1666, "pitch": 86, "duration": 4, "velocity": 110}, {"time": 1684, "pitch": 79, "duration": 4, "velocity": 108}, {"time": 1687, "pitch": 82, "duration": 2, "velocity": 97}, {"time": 1690, "pitch": 86, "duration": 3, "velocity": 110}, {"time": 1693, "pitch": 84, "duration": 4, "velocity": 116}, {"time": 1699, "pitch": 82, "duration": 3, "velocity": 116}, {"time": 1702, "pitch": 84, "duration": 2, "velocity": 107}, {"time": 1705, "pitch": 86, "duration": 4, "velocity": 104}, {"time": 1708, "pitch": 84, "duration": 3, "velocity": 107}, {"time": 1711, "pitch": 82, "duration": 3, "velocity": 113}, {"time": 1714, "pitch": 79, "duration": 5, "velocity": 108}, {"time": 1729, "pitch": 94, "duration": 9, "velocity": 126}, {"time": 1741, "pitch": 96, "duration": 4, "velocity": 120}, {"time": 1747, "pitch": 94, "duration": 3, "velocity": 119}, {"time": 1753, "pitch": 74, "duration": 2, "velocity": 114}, {"time": 1753, "pitch": 93, "duration": 13, "velocity": 120}, {"time": 1756, "pitch": 79, "duration": 2, "velocity": 98}, {"time": 1759, "pitch": 81, "duration": 2, "velocity": 108}, {"time": 1762, "pitch": 84, "duration": 4, "velocity": 113}, {"time": 1765, "pitch": 82, "duration": 4, "velocity": 113}, {"time": 1768, "pitch": 81, "duration": 3, "velocity": 108}, {"time": 1771, "pitch": 79, "duration": 3, "velocity": 110}, {"time": 1774, "pitch": 77, "duration": 3, "velocity": 98}, {"time": 1777, "pitch": 79, "duration": 12, "velocity": 116}, {"time": 1807, "pitch": 74, "duration": 5, "velocity": 119}, {"time": 1813, "pitch": 82, "duration": 5, "velocity": 119}, {"time": 1819, "pitch": 81, "duration": 6, "velocity": 108}, {"time": 1825, "pitch": 79, "duration": 4, "velocity": 107}, {"time": 1879, "pitch": 79, "duration": 1, "velocity": 110}, {"time": 1885, "pitch": 79, "duration": 5, "velocity": 110}, {"time": 1891, "pitch": 77, "duration": 4, "velocity": 91}, {"time": 1897, "pitch": 77, "duration": 6, "velocity": 90}, {"time": 1903, "pitch": 70, "duration": 3, "velocity": 109}, {"time": 1909, "pitch": 72, "duration": 3, "velocity": 104}, {"time": 1912, "pitch": 70, "duration": 3, "velocity": 95}, {"time": 1915, "pitch": 67, "duration": 3, "velocity": 88}, {"time": 1918, "pitch": 65, "duration": 3, "velocity": 84}, {"time": 1921, "pitch": 67, "duration": 7, "velocity": 84}, {"time": 1993, "pitch": 67, "duration": 5, "velocity": 108}, {"time": 1999, "pitch": 79, "duration": 5, "velocity": 104}, {"time": 2005, "pitch": 77, "duration": 6, "velocity": 94}, {"time": 2011, "pitch": 72, "duration": 6, "velocity": 100}, {"time": 2017, "pitch": 70, "duration": 7, "velocity": 97}, {"time": 2101, "pitch": 70, "duration": 5, "velocity": 113}, {"time": 2107, "pitch": 72, "duration": 6, "velocity": 89}, {"time": 2113, "pitch": 75, "duration": 5, "velocity": 109}, {"time": 2116, "pitch": 79, "duration": 2, "velocity": 87}, {"time": 2119, "pitch": 81, "duration": 2, "velocity": 91}, {"time": 2122, "pitch": 82, "duration": 2, "velocity": 88}, {"time": 2125, "pitch": 81, "duration": 3, "velocity": 89}, {"time": 2128, "pitch": 79, "duration": 1, "velocity": 76}, {"time": 2167, "pitch": 74, "duration": 2, "velocity": 89}, {"time": 2167, "pitch": 86, "duration": 2, "velocity": 107}, {"time": 2173, "pitch": 74, "duration": 2, "velocity": 94}, {"time": 2173, "pitch": 86, "duration": 2, "velocity": 113}, {"time": 2179, "pitch": 74, "duration": 1, "velocity": 94}, {"time": 2179, "pitch": 86, "duration": 1, "velocity": 110}, {"time": 2185, "pitch": 74, "duration": 3, "velocity": 102}, {"time": 2185, "pitch": 86, "duration": 3, "velocity": 116}, {"time": 2188, "pitch": 62, "duration": 2, "velocity": 107}, {"time": 2191, "pitch": 67, "duration": 2, "velocity": 107}, {"time": 2194, "pitch": 69, "duration": 1, "velocity": 108}, {"time": 2197, "pitch": 70, "duration": 2, "velocity": 113}, {"time": 2200, "pitch": 69, "duration": 3, "velocity": 98}, {"time": 2203, "pitch": 67, "duration": 3, "velocity": 100}, {"time": 2206, "pitch": 65, "duration": 2, "velocity": 102}, {"time": 2209, "pitch": 67, "duration": 6, "velocity": 110}, {"time": 2233, "pitch": 69, "duration": 23, "velocity": 120}, {"time": 2257, "pitch": 70, "duration": 9, "velocity": 114}, {"time": 2269, "pitch": 72, "duration": 10, "velocity": 113}, {"time": 2281, "pitch": 74, "duration": 10, "velocity": 117}, {"time": 2305, "pitch": 72, "duration": 12, "velocity": 114}, {"time": 2329, "pitch": 70, "duration": 18, "velocity": 119}, {"time": 2377, "pitch": 69, "duration": 3, "velocity": 117}, {"time": 2377, "pitch": 81, "duration": 2, "velocity": 119}, {"time": 2380, "pitch": 79, "duration": 3, "velocity": 107}, {"time": 2383, "pitch": 77, "duration": 3, "velocity": 114}, {"time": 2386, "pitch": 74, "duration": 1, "velocity": 110}, {"time": 2389, "pitch": 70, "duration": 3, "velocity": 119}, {"time": 2392, "pitch": 69, "duration": 3, "velocity": 94}, {"time": 2395, "pitch": 65, "duration": 3, "velocity": 107}, {"time": 2398, "pitch": 62, "duration": 2, "velocity": 104}, {"time": 2401, "pitch": 67, "duration": 23, "velocity": 117}, {"time": 2425, "pitch": 69, "duration": 25, "velocity": 119}, {"time": 2449, "pitch": 70, "duration": 11, "velocity": 123}, {"time": 2461, "pitch": 72, "duration": 10, "velocity": 116}, {"time": 2473, "pitch": 74, "duration": 24, "velocity": 119}, {"time": 2497, "pitch": 72, "duration": 25, "velocity": 119}, {"time": 2521, "pitch": 70, "duration": 48, "velocity": 116}, {"time": 2569, "pitch": 69, "duration": 24, "velocity": 117}, {"time": 2605, "pitch": 67, "duration": 3, "velocity": 102}, {"time": 2605, "pitch": 79, "duration": 2, "velocity": 94}, {"time": 2611, "pitch": 67, "duration": 2, "velocity": 104}, {"time": 2611, "pitch": 79, "duration": 2, "velocity": 108}, {"time": 2617, "pitch": 67, "duration": 2, "velocity": 102}, {"time": 2617, "pitch": 79, "duration": 2, "velocity": 108}, {"time": 2623, "pitch": 67, "duration": 3, "velocity": 108}, {"time": 2623, "pitch": 79, "duration": 2, "velocity": 110}, {"time": 2629, "pitch": 67, "duration": 2, "velocity": 108}, {"time": 2629, "pitch": 79, "duration": 2, "velocity": 108}, {"time": 2635, "pitch": 67, "duration": 3, "velocity": 104}, {"time": 2635, "pitch": 79, "duration": 3, "velocity": 110}, {"time": 2641, "pitch": 79, "duration": 22, "velocity": 116}, {"time": 2665, "pitch": 81, "duration": 22, "velocity": 110}, {"time": 2689, "pitch": 82, "duration": 6, "velocity": 119}, {"time": 2695, "pitch": 77, "duration": 7, "velocity": 108}, {"time": 2701, "pitch": 82, "duration": 5, "velocity": 113}, {"time": 2707, "pitch": 84, "duration": 5, "velocity": 110}, {"time": 2713, "pitch": 86, "duration": 23, "velocity": 110}, {"time": 2737, "pitch": 84, "duration": 24, "velocity": 116}, {"time": 2761, "pitch": 82, "duration": 48, "velocity": 113}, {"time": 2809, "pitch": 81, "duration": 12, "velocity": 117}, {"time": 2821, "pitch": 74, "duration": 4, "velocity": 120}, {"time": 2824, "pitch": 77, "duration": 3, "velocity": 110}, {"time": 2827, "pitch": 79, "duration": 3, "velocity": 113}, {"time": 2830, "pitch": 81, "duration": 2, "velocity": 114}, {"time": 2833, "pitch": 82, "duration": 24, "velocity": 119}, {"time": 2857, "pitch": 81, "duration": 12, "velocity": 113}, {"time": 2881, "pitch": 82, "duration": 6, "velocity": 113}, {"time": 2887, "pitch": 81, "duration": 7, "velocity": 113}, {"time": 2893, "pitch": 82, "duration": 5, "velocity": 116}, {"time": 2899, "pitch": 84, "duration": 5, "velocity": 116}, {"time": 2905, "pitch": 86, "duration": 24, "velocity": 119}, {"time": 2929, "pitch": 84, "duration": 25, "velocity": 117}, {"time": 2953, "pitch": 82, "duration": 47, "velocity": 116}, {"time": 3001, "pitch": 81, "duration": 24, "velocity": 116}, {"time": 3025, "pitch": 82, "duration": 23, "velocity": 113}, {"time": 3073, "pitch": 86, "duration": 11, "velocity": 113}, {"time": 3085, "pitch": 82, "duration": 2, "velocity": 85}, {"time": 3091, "pitch": 84, "duration": 2, "velocity": 85}, {"time": 3094, "pitch": 82, "duration": 3, "velocity": 86}, {"time": 3097, "pitch": 81, "duration": 12, "velocity": 102}, {"time": 3115, "pitch": 77, "duration": 6, "velocity": 92}, {"time": 3121, "pitch": 79, "duration": 8, "velocity": 90}]}, {"program": 0, "is_drum": false, "name": "PIANO", "notes": [{"time": 1, "pitch": 55, "duration": 19, "velocity": 80}, {"time": 1, "pitch": 62, "duration": 19, "velocity": 68}, {"time": 1, "pitch": 67, "duration": 19, "velocity": 70}, {"time": 1, "pitch": 70, "duration": 18, "velocity": 76}, {"time": 25, "pitch": 53, "duration": 19, "velocity": 76}, {"time": 25, "pitch": 60, "duration": 18, "velocity": 65}, {"time": 25, "pitch": 65, "duration": 18, "velocity": 79}, {"time": 25, "pitch": 69, "duration": 19, "velocity": 77}, {"time": 49, "pitch": 48, "duration": 11, "velocity": 76}, {"time": 49, "pitch": 60, "duration": 10, "velocity": 73}, {"time": 49, "pitch": 63, "duration": 10, "velocity": 75}, {"time": 49, "pitch": 67, "duration": 10, "velocity": 78}, {"time": 61, "pitch": 53, "duration": 10, "velocity": 78}, {"time": 61, "pitch": 60, "duration": 8, "velocity": 76}, {"time": 61, "pitch": 65, "duration": 9, "velocity": 83}, {"time": 61, "pitch": 69, "duration": 8, "velocity": 84}, {"time": 73, "pitch": 46, "duration": 18, "velocity": 70}, {"time": 73, "pitch": 58, "duration": 21, "velocity": 73}, {"time": 73, "pitch": 62, "duration": 21, "velocity": 73}, {"time": 73, "pitch": 65, "duration": 21, "velocity": 78}, {"time": 73, "pitch": 70, "duration": 19, "velocity": 71}, {"time": 97, "pitch": 48, "duration": 18, "velocity": 83}, {"time": 97, "pitch": 60, "duration": 8, "velocity": 80}, {"time": 97, "pitch": 63, "duration": 7, "velocity": 83}, {"time": 97, "pitch": 67, "duration": 7, "velocity": 84}, {"time": 103, "pitch": 55, "duration": 6, "velocity": 71}, {"time": 109, "pitch": 60, "duration": 6, "velocity": 81}, {"time": 109, "pitch": 63, "duration": 6, "velocity": 83}, {"time": 109, "pitch": 67, "duration": 6, "velocity": 86}, {"time": 115, "pitch": 55, "duration": 6, "velocity": 75}, {"time": 121, "pitch": 50, "duration": 19, "velocity": 83}, {"time": 121, "pitch": 62, "duration": 9, "velocity": 88}, {"time": 121, "pitch": 65, "duration": 9, "velocity": 91}, {"time": 121, "pitch": 69, "duration": 9, "velocity": 83}, {"time": 133, "pitch": 62, "duration": 6, "velocity": 82}, {"time": 133, "pitch": 65, "duration": 6, "velocity": 87}, {"time": 133, "pitch": 69, "duration": 7, "velocity": 87}, {"time": 145, "pitch": 55, "duration": 31, "velocity": 77}, {"time": 145, "pitch": 62, "duration": 5, "velocity": 83}, {"time": 145, "pitch": 67, "duration": 6, "velocity": 87}, {"time": 145, "pitch": 70, "duration": 9, "velocity": 81}, {"time": 151, "pitch": 62, "duration": 25, "velocity": 66}, {"time": 157, "pitch": 67, "duration": 20, "velocity": 83}, {"time": 163, "pitch": 69, "duration": 6, "velocity": 86}, {"time": 169, "pitch": 70, "duration": 9, "velocity": 84}, {"time": 193, "pitch": 55, "duration": 41, "velocity": 83}, {"time": 199, "pitch": 62, "duration": 34, "velocity": 62}, {"time": 205, "pitch": 67, "duration": 34, "velocity": 70}, {"time": 211, "pitch": 70, "duration": 14, "velocity": 56}, {"time": 217, "pitch": 74, "duration": 14, "velocity": 75}, {"time": 229, "pitch": 70, "duration": 7, "velocity": 65}, {"time": 241, "pitch": 53, "duration": 40, "velocity": 81}, {"time": 247, "pitch": 60, "duration": 25, "velocity": 63}, {"time": 253, "pitch": 65, "duration": 33, "velocity": 71}, {"time": 259, "pitch": 72, "duration": 11, "velocity": 82}, {"time": 271, "pitch": 69, "duration": 18, "velocity": 81}, {"time": 289, "pitch": 51, "duration": 20, "velocity": 79}, {"time": 301, "pitch": 63, "duration": 6, "velocity": 80}, {"time": 307, "pitch": 67, "duration": 7, "velocity": 77}, {"time": 307, "pitch": 70, "duration": 7, "velocity": 78}, {"time": 313, "pitch": 53, "duration": 18, "velocity": 82}, {"time": 319, "pitch": 60, "duration": 11, "velocity": 75}, {"time": 325, "pitch": 65, "duration": 13, "velocity": 79}, {"time": 331, "pitch": 69, "duration": 6, "velocity": 81}, {"time": 337, "pitch": 55, "duration": 42, "velocity": 76}, {"time": 343, "pitch": 62, "duration": 36, "velocity": 71}, {"time": 349, "pitch": 67, "duration": 13, "velocity": 71}, {"time": 355, "pitch": 74, "duration": 6, "velocity": 85}, {"time": 361, "pitch": 72, "duration": 10, "velocity": 71}, {"time": 373, "pitch": 70, "duration": 6, "velocity": 89}, {"time": 379, "pitch": 69, "duration": 6, "velocity": 90}, {"time": 385, "pitch": 51, "duration": 19, "velocity": 79}, {"time": 391, "pitch": 63, "duration": 13, "velocity": 85}, {"time": 397, "pitch": 67, "duration": 14, "velocity": 87}, {"time": 403, "pitch": 70, "duration": 8, "velocity": 82}, {"time": 409, "pitch": 53, "duration": 19, "velocity": 87}, {"time": 415, "pitch": 60, "duration": 12, "velocity": 80}, {"time": 421, "pitch": 65, "duration": 13, "velocity": 84}, {"time": 427, "pitch": 69, "duration": 7, "velocity": 88}, {"time": 433, "pitch": 50, "duration": 19, "velocity": 88}, {"time": 439, "pitch": 57, "duration": 13, "velocity": 80}, {"time": 445, "pitch": 62, "duration": 13, "velocity": 85}, {"time": 451, "pitch": 65, "duration": 7, "velocity": 86}, {"time": 457, "pitch": 55, "duration": 19, "velocity": 81}, {"time": 463, "pitch": 62, "duration": 11, "velocity": 83}, {"time": 469, "pitch": 67, "duration": 18, "velocity": 93}, {"time": 475, "pitch": 70, "duration": 12, "velocity": 113}, {"time": 481, "pitch": 51, "duration": 20, "velocity": 85}, {"time": 487, "pitch": 63, "duration": 13, "velocity": 80}, {"time": 493, "pitch": 67, "duration": 13, "velocity": 87}, {"time": 493, "pitch": 74, "duration": 15, "velocity": 91}, {"time": 499, "pitch": 70, "duration": 10, "velocity": 86}, {"time": 505, "pitch": 53, "duration": 19, "velocity": 89}, {"time": 511, "pitch": 60, "duration": 14, "velocity": 82}, {"time": 517, "pitch": 65, "duration": 14, "velocity": 86}, {"time": 517, "pitch": 72, "duration": 11, "velocity": 83}, {"time": 523, "pitch": 69, "duration": 9, "velocity": 83}, {"time": 529, "pitch": 55, "duration": 42, "velocity": 91}, {"time": 535, "pitch": 62, "duration": 24, "velocity": 87}, {"time": 541, "pitch": 70, "duration": 6, "velocity": 103}, {"time": 547, "pitch": 69, "duration": 6, "velocity": 91}, {"time": 553, "pitch": 67, "duration": 10, "velocity": 89}, {"time": 553, "pitch": 74, "duration": 10, "velocity": 92}, {"time": 562, "pitch": 62, "duration": 9, "velocity": 98}, {"time": 565, "pitch": 69, "duration": 6, "velocity": 107}, {"time": 571, "pitch": 70, "duration": 15, "velocity": 103}, {"time": 577, "pitch": 55, "duration": 19, "velocity": 87}, {"time": 577, "pitch": 67, "duration": 8, "velocity": 88}, {"time": 577, "pitch": 74, "duration": 6, "velocity": 89}, {"time": 583, "pitch": 62, "duration": 8, "velocity": 78}, {"time": 589, "pitch": 67, "duration": 7, "velocity": 89}, {"time": 589, "pitch": 70, "duration": 11, "velocity": 91}, {"time": 589, "pitch": 74, "duration": 9, "velocity": 88}, {"time": 595, "pitch": 62, "duration": 24, "velocity": 80}, {"time": 601, "pitch": 70, "duration": 2, "velocity": 64}, {"time": 607, "pitch": 55, "duration": 9, "velocity": 88}, {"time": 607, "pitch": 67, "duration": 4, "velocity": 87}, {"time": 607, "pitch": 74, "duration": 2, "velocity": 80}, {"time": 613, "pitch": 69, "duration": 6, "velocity": 110}, {"time": 619, "pitch": 70, "duration": 5, "velocity": 87}, {"time": 625, "pitch": 50, "duration": 33, "velocity": 85}, {"time": 631, "pitch": 57, "duration": 31, "velocity": 83}, {"time": 637, "pitch": 62, "duration": 19, "velocity": 82}, {"time": 643, "pitch": 74, "duration": 8, "velocity": 107}, {"time": 649, "pitch": 69, "duration": 6, "velocity": 88}, {"time": 655, "pitch": 65, "duration": 12, "velocity": 89}, {"time": 661, "pitch": 50, "duration": 7, "velocity": 87}, {"time": 667, "pitch": 62, "duration": 7, "velocity": 85}, {"time": 673, "pitch": 51, "duration": 18, "velocity": 85}, {"time": 679, "pitch": 63, "duration": 13, "velocity": 82}, {"time": 685, "pitch": 67, "duration": 7, "velocity": 88}, {"time": 691, "pitch": 70, "duration": 6, "velocity": 95}, {"time": 697, "pitch": 53, "duration": 19, "velocity": 87}, {"time": 697, "pitch": 65, "duration": 10, "velocity": 84}, {"time": 697, "pitch": 69, "duration": 11, "velocity": 83}, {"time": 697, "pitch": 72, "duration": 9, "velocity": 86}, {"time": 709, "pitch": 69, "duration": 6, "velocity": 89}, {"time": 715, "pitch": 65, "duration": 4, "velocity": 86}, {"time": 721, "pitch": 55, "duration": 45, "velocity": 87}, {"time": 721, "pitch": 67, "duration": 6, "velocity": 85}, {"time": 721, "pitch": 70, "duration": 7, "velocity": 81}, {"time": 727, "pitch": 62, "duration": 20, "velocity": 80}, {"time": 733, "pitch": 69, "duration": 5, "velocity": 104}, {"time": 739, "pitch": 70, "duration": 7, "velocity": 93}, {"time": 745, "pitch": 67, "duration": 10, "velocity": 86}, {"time": 754, "pitch": 62, "duration": 12, "velocity": 88}, {"time": 757, "pitch": 74, "duration": 4, "velocity": 107}, {"time": 760, "pitch": 72, "duration": 3, "velocity": 98}, {"time": 763, "pitch": 69, "duration": 6, "velocity": 89}, {"time": 769, "pitch": 51, "duration": 19, "velocity": 91}, {"time": 775, "pitch": 63, "duration": 7, "velocity": 79}, {"time": 781, "pitch": 67, "duration": 11, "velocity": 90}, {"time": 781, "pitch": 70, "duration": 10, "velocity": 103}, {"time": 787, "pitch": 63, "duration": 4, "velocity": 85}, {"time": 793, "pitch": 53, "duration": 20, "velocity": 85}, {"time": 793, "pitch": 65, "duration": 9, "velocity": 88}, {"time": 793, "pitch": 69, "duration": 9, "velocity": 93}, {"time": 793, "pitch": 72, "duration": 5, "velocity": 87}, {"time": 805, "pitch": 65, "duration": 7, "velocity": 87}, {"time": 805, "pitch": 69, "duration": 7, "velocity": 89}, {"time": 805, "pitch": 72, "duration": 7, "velocity": 83}, {"time": 817, "pitch": 50, "duration": 19, "velocity": 87}, {"time": 817, "pitch": 62, "duration": 7, "velocity": 79}, {"time": 817, "pitch": 65, "duration": 8, "velocity": 86}, {"time": 817, "pitch": 69, "duration": 7, "velocity": 84}, {"time": 823, "pitch": 57, "duration": 6, "velocity": 73}, {"time": 829, "pitch": 62, "duration": 10, "velocity": 88}, {"time": 829, "pitch": 65, "duration": 8, "velocity": 92}, {"time": 829, "pitch": 69, "duration": 7, "velocity": 88}, {"time": 835, "pitch": 57, "duration": 6, "velocity": 86}, {"time": 841, "pitch": 55, "duration": 17, "velocity": 83}, {"time": 841, "pitch": 62, "duration": 9, "velocity": 88}, {"time": 841, "pitch": 67, "duration": 10, "velocity": 88}, {"time": 841, "pitch": 70, "duration": 9, "velocity": 85}, {"time": 853, "pitch": 62, "duration": 8, "velocity": 94}, {"time": 853, "pitch": 67, "duration": 9, "velocity": 91}, {"time": 853, "pitch": 70, "duration": 9, "velocity": 86}, {"time": 865, "pitch": 51, "duration": 15, "velocity": 84}, {"time": 865, "pitch": 63, "duration": 15, "velocity": 88}, {"time": 865, "pitch": 70, "duration": 6, "velocity": 85}, {"time": 877, "pitch": 67, "duration": 11, "velocity": 93}, {"time": 877, "pitch": 70, "duration": 10, "velocity": 103}, {"time": 883, "pitch": 51, "duration": 6, "velocity": 85}, {"time": 889, "pitch": 53, "duration": 21, "velocity": 87}, {"time": 889, "pitch": 65, "duration": 9, "velocity": 89}, {"time": 889, "pitch": 69, "duration": 9, "velocity": 91}, {"time": 889, "pitch": 72, "duration": 9, "velocity": 88}, {"time": 901, "pitch": 65, "duration": 7, "velocity": 86}, {"time": 901, "pitch": 69, "duration": 7, "velocity": 87}, {"time": 901, "pitch": 72, "duration": 7, "velocity": 84}, {"time": 913, "pitch": 50, "duration": 43, "velocity": 93}, {"time": 913, "pitch": 62, "duration": 5, "velocity": 90}, {"time": 913, "pitch": 66, "duration": 6, "velocity": 93}, {"time": 913, "pitch": 69, "duration": 6, "velocity": 90}, {"time": 919, "pitch": 57, "duration": 37, "velocity": 79}, {"time": 922, "pitch": 62, "duration": 6, "velocity": 89}, {"time": 925, "pitch": 66, "duration": 13, "velocity": 93}, {"time": 925, "pitch": 74, "duration": 8, "velocity": 108}, {"time": 931, "pitch": 62, "duration": 4, "velocity": 84}, {"time": 937, "pitch": 62, "duration": 20, "velocity": 88}, {"time": 937, "pitch": 69, "duration": 3, "velocity": 108}, {"time": 937, "pitch": 74, "duration": 3, "velocity": 102}, {"time": 946, "pitch": 74, "duration": 9, "velocity": 79}, {"time": 946, "pitch": 78, "duration": 8, "velocity": 84}, {"time": 946, "pitch": 81, "duration": 7, "velocity": 85}, {"time": 949, "pitch": 86, "duration": 5, "velocity": 113}, {"time": 961, "pitch": 55, "duration": 20, "velocity": 91}, {"time": 961, "pitch": 67, "duration": 6, "velocity": 102}, {"time": 961, "pitch": 70, "duration": 7, "velocity": 95}, {"time": 967, "pitch": 62, "duration": 7, "velocity": 88}, {"time": 970, "pitch": 67, "duration": 2, "velocity": 83}, {"time": 973, "pitch": 67, "duration": 7, "velocity": 93}, {"time": 973, "pitch": 74, "duration": 21, "velocity": 102}, {"time": 979, "pitch": 62, "duration": 1, "velocity": 88}, {"time": 979, "pitch": 70, "duration": 6, "velocity": 90}, {"time": 985, "pitch": 50, "duration": 18, "velocity": 88}, {"time": 985, "pitch": 65, "duration": 9, "velocity": 91}, {"time": 985, "pitch": 69, "duration": 9, "velocity": 98}, {"time": 991, "pitch": 57, "duration": 12, "velocity": 79}, {"time": 994, "pitch": 62, "duration": 9, "velocity": 94}, {"time": 997, "pitch": 65, "duration": 11, "velocity": 104}, {"time": 997, "pitch": 74, "duration": 12, "velocity": 89}, {"time": 1003, "pitch": 69, "duration": 9, "velocity": 104}, {"time": 1009, "pitch": 51, "duration": 9, "velocity": 100}, {"time": 1012, "pitch": 63, "duration": 6, "velocity": 86}, {"time": 1015, "pitch": 67, "duration": 7, "velocity": 91}, {"time": 1018, "pitch": 70, "duration": 7, "velocity": 109}, {"time": 1021, "pitch": 53, "duration": 8, "velocity": 98}, {"time": 1024, "pitch": 60, "duration": 5, "velocity": 87}, {"time": 1027, "pitch": 65, "duration": 7, "velocity": 94}, {"time": 1030, "pitch": 69, "duration": 4, "velocity": 102}, {"time": 1033, "pitch": 46, "duration": 18, "velocity": 100}, {"time": 1039, "pitch": 58, "duration": 8, "velocity": 89}, {"time": 1045, "pitch": 62, "duration": 11, "velocity": 98}, {"time": 1045, "pitch": 65, "duration": 12, "velocity": 110}, {"time": 1045, "pitch": 70, "duration": 12, "velocity": 97}, {"time": 1051, "pitch": 58, "duration": 3, "velocity": 91}, {"time": 1057, "pitch": 48, "duration": 18, "velocity": 98}, {"time": 1063, "pitch": 55, "duration": 13, "velocity": 77}, {"time": 1066, "pitch": 60, "duration": 5, "velocity": 88}, {"time": 1069, "pitch": 63, "duration": 8, "velocity": 103}, {"time": 1069, "pitch": 72, "duration": 11, "velocity": 91}, {"time": 1075, "pitch": 60, "duration": 6, "velocity": 87}, {"time": 1081, "pitch": 55, "duration": 20, "velocity": 90}, {"time": 1081, "pitch": 67, "duration": 9, "velocity": 89}, {"time": 1081, "pitch": 70, "duration": 9, "velocity": 90}, {"time": 1081, "pitch": 74, "duration": 9, "velocity": 94}, {"time": 1090, "pitch": 62, "duration": 5, "velocity": 88}, {"time": 1093, "pitch": 67, "duration": 14, "velocity": 98}, {"time": 1093, "pitch": 74, "duration": 13, "velocity": 98}, {"time": 1099, "pitch": 62, "duration": 1, "velocity": 90}, {"time": 1105, "pitch": 51, "duration": 20, "velocity": 106}, {"time": 1111, "pitch": 63, "duration": 8, "velocity": 87}, {"time": 1114, "pitch": 67, "duration": 2, "velocity": 87}, {"time": 1117, "pitch": 67, "duration": 7, "velocity": 89}, {"time": 1117, "pitch": 70, "duration": 12, "velocity": 109}, {"time": 1117, "pitch": 74, "duration": 12, "velocity": 107}, {"time": 1123, "pitch": 63, "duration": 2, "velocity": 100}, {"time": 1129, "pitch": 50, "duration": 19, "velocity": 108}, {"time": 1132, "pitch": 57, "duration": 16, "velocity": 88}, {"time": 1135, "pitch": 66, "duration": 4, "velocity": 109}, {"time": 1138, "pitch": 69, "duration": 6, "velocity": 114}, {"time": 1141, "pitch": 62, "duration": 7, "velocity": 116}, {"time": 1144, "pitch": 66, "duration": 3, "velocity": 113}, {"time": 1147, "pitch": 69, "duration": 5, "velocity": 110}, {"time": 1150, "pitch": 74, "duration": 12, "velocity": 104}, {"time": 1153, "pitch": 55, "duration": 16, "velocity": 92}, {"time": 1153, "pitch": 67, "duration": 10, "velocity": 96}, {"time": 1153, "pitch": 70, "duration": 10, "velocity": 109}, {"time": 1162, "pitch": 62, "duration": 6, "velocity": 90}, {"time": 1165, "pitch": 67, "duration": 7, "velocity": 98}, {"time": 1165, "pitch": 70, "duration": 11, "velocity": 119}, {"time": 1165, "pitch": 74, "duration": 10, "velocity": 100}, {"time": 1171, "pitch": 55, "duration": 2, "velocity": 102}, {"time": 1177, "pitch": 50, "duration": 17, "velocity": 88}, {"time": 1177, "pitch": 65, "duration": 8, "velocity": 96}, {"time": 1177, "pitch": 69, "duration": 8, "velocity": 108}, {"time": 1177, "pitch": 74, "duration": 7, "velocity": 88}, {"time": 1183, "pitch": 57, "duration": 12, "velocity": 79}, {"time": 1186, "pitch": 62, "duration": 8, "velocity": 93}, {"time": 1189, "pitch": 65, "duration": 7, "velocity": 104}, {"time": 1189, "pitch": 69, "duration": 7, "velocity": 107}, {"time": 1201, "pitch": 51, "duration": 11, "velocity": 100}, {"time": 1201, "pitch": 67, "duration": 11, "velocity": 100}, {"time": 1201, "pitch": 70, "duration": 10, "velocity": 106}, {"time": 1213, "pitch": 53, "duration": 6, "velocity": 86}, {"time": 1213, "pitch": 65, "duration": 7, "velocity": 96}, {"time": 1213, "pitch": 69, "duration": 7, "velocity": 110}, {"time": 1213, "pitch": 72, "duration": 7, "velocity": 100}, {"time": 1225, "pitch": 46, "duration": 19, "velocity": 97}, {"time": 1225, "pitch": 62, "duration": 9, "velocity": 102}, {"time": 1225, "pitch": 65, "duration": 9, "velocity": 110}, {"time": 1225, "pitch": 70, "duration": 9, "velocity": 97}, {"time": 1234, "pitch": 58, "duration": 5, "velocity": 93}, {"time": 1237, "pitch": 62, "duration": 5, "velocity": 117}, {"time": 1237, "pitch": 70, "duration": 7, "velocity": 109}, {"time": 1240, "pitch": 58, "duration": 4, "velocity": 109}, {"time": 1243, "pitch": 65, "duration": 3, "velocity": 114}, {"time": 1246, "pitch": 67, "duration": 3, "velocity": 87}, {"time": 1249, "pitch": 48, "duration": 18, "velocity": 96}, {"time": 1249, "pitch": 63, "duration": 9, "velocity": 106}, {"time": 1249, "pitch": 67, "duration": 9, "velocity": 89}, {"time": 1249, "pitch": 72, "duration": 8, "velocity": 92}, {"time": 1258, "pitch": 60, "duration": 5, "velocity": 84}, {"time": 1261, "pitch": 63, "duration": 5, "velocity": 103}, {"time": 1261, "pitch": 67, "duration": 6, "velocity": 113}, {"time": 1261, "pitch": 72, "duration": 6, "velocity": 107}, {"time": 1267, "pitch": 60, "duration": 5, "velocity": 87}, {"time": 1273, "pitch": 55, "duration": 16, "velocity": 92}, {"time": 1273, "pitch": 62, "duration": 4, "velocity": 107}, {"time": 1273, "pitch": 67, "duration": 9, "velocity": 100}, {"time": 1273, "pitch": 70, "duration": 9, "velocity": 91}, {"time": 1282, "pitch": 62, "duration": 6, "velocity": 90}, {"time": 1285, "pitch": 67, "duration": 12, "velocity": 116}, {"time": 1285, "pitch": 70, "duration": 12, "velocity": 113}, {"time": 1291, "pitch": 62, "duration": 2, "velocity": 89}, {"time": 1297, "pitch": 51, "duration": 18, "velocity": 100}, {"time": 1297, "pitch": 67, "duration": 1, "velocity": 91}, {"time": 1297, "pitch": 70, "duration": 7, "velocity": 106}, {"time": 1303, "pitch": 63, "duration": 6, "velocity": 83}, {"time": 1309, "pitch": 67, "duration": 7, "velocity": 100}, {"time": 1309, "pitch": 70, "duration": 10, "velocity": 116}, {"time": 1315, "pitch": 63, "duration": 5, "velocity": 86}, {"time": 1321, "pitch": 50, "duration": 20, "velocity": 89}, {"time": 1321, "pitch": 62, "duration": 7, "velocity": 88}, {"time": 1321, "pitch": 66, "duration": 7, "velocity": 91}, {"time": 1321, "pitch": 69, "duration": 7, "velocity": 88}, {"time": 1327, "pitch": 57, "duration": 7, "velocity": 77}, {"time": 1333, "pitch": 62, "duration": 9, "velocity": 92}, {"time": 1333, "pitch": 66, "duration": 11, "velocity": 95}, {"time": 1333, "pitch": 69, "duration": 7, "velocity": 90}, {"time": 1339, "pitch": 57, "duration": 2, "velocity": 87}, {"time": 1345, "pitch": 43, "duration": 43, "velocity": 90}, {"time": 1345, "pitch": 62, "duration": 6, "velocity": 89}, {"time": 1345, "pitch": 67, "duration": 5, "velocity": 87}, {"time": 1345, "pitch": 70, "duration": 5, "velocity": 85}, {"time": 1351, "pitch": 55, "duration": 7, "velocity": 76}, {"time": 1357, "pitch": 62, "duration": 6, "velocity": 94}, {"time": 1357, "pitch": 67, "duration": 5, "velocity": 92}, {"time": 1363, "pitch": 55, "duration": 10, "velocity": 83}, {"time": 1369, "pitch": 58, "duration": 8, "velocity": 89}, {"time": 1369, "pitch": 62, "duration": 8, "velocity": 96}, {"time": 1369, "pitch": 67, "duration": 8, "velocity": 102}, {"time": 1378, "pitch": 55, "duration": 6, "velocity": 88}, {"time": 1381, "pitch": 58, "duration": 9, "velocity": 100}, {"time": 1381, "pitch": 67, "duration": 9, "velocity": 108}, {"time": 1387, "pitch": 62, "duration": 4, "velocity": 85}, {"time": 1393, "pitch": 43, "duration": 17, "velocity": 91}, {"time": 1393, "pitch": 62, "duration": 9, "velocity": 93}, {"time": 1393, "pitch": 70, "duration": 9, "velocity": 91}, {"time": 1402, "pitch": 55, "duration": 13, "velocity": 86}, {"time": 1405, "pitch": 62, "duration": 4, "velocity": 107}, {"time": 1408, "pitch": 67, "duration": 5, "velocity": 89}, {"time": 1411, "pitch": 70, "duration": 4, "velocity": 86}, {"time": 1417, "pitch": 50, "duration": 19, "velocity": 89}, {"time": 1417, "pitch": 62, "duration": 9, "velocity": 89}, {"time": 1417, "pitch": 65, "duration": 10, "velocity": 96}, {"time": 1417, "pitch": 69, "duration": 9, "velocity": 102}, {"time": 1426, "pitch": 57, "duration": 10, "velocity": 86}, {"time": 1429, "pitch": 69, "duration": 4, "velocity": 113}, {"time": 1432, "pitch": 62, "duration": 4, "velocity": 110}, {"time": 1435, "pitch": 65, "duration": 4, "velocity": 107}, {"time": 1438, "pitch": 74, "duration": 3, "velocity": 94}, {"time": 1441, "pitch": 51, "duration": 9, "velocity": 93}, {"time": 1441, "pitch": 67, "duration": 9, "velocity": 91}, {"time": 1441, "pitch": 70, "duration": 11, "velocity": 106}, {"time": 1450, "pitch": 63, "duration": 1, "velocity": 36}, {"time": 1453, "pitch": 53, "duration": 6, "velocity": 90}, {"time": 1453, "pitch": 65, "duration": 11, "velocity": 91}, {"time": 1453, "pitch": 69, "duration": 6, "velocity": 102}, {"time": 1453, "pitch": 72, "duration": 10, "velocity": 94}, {"time": 1465, "pitch": 46, "duration": 18, "velocity": 91}, {"time": 1465, "pitch": 62, "duration": 8, "velocity": 91}, {"time": 1465, "pitch": 65, "duration": 10, "velocity": 91}, {"time": 1465, "pitch": 70, "duration": 9, "velocity": 86}, {"time": 1474, "pitch": 58, "duration": 4, "velocity": 93}, {"time": 1477, "pitch": 62, "duration": 6, "velocity": 108}, {"time": 1477, "pitch": 70, "duration": 6, "velocity": 109}, {"time": 1483, "pitch": 58, "duration": 3, "velocity": 84}, {"time": 1489, "pitch": 48, "duration": 18, "velocity": 91}, {"time": 1489, "pitch": 63, "duration": 9, "velocity": 106}, {"time": 1489, "pitch": 72, "duration": 8, "velocity": 104}, {"time": 1498, "pitch": 60, "duration": 5, "velocity": 87}, {"time": 1501, "pitch": 63, "duration": 7, "velocity": 103}, {"time": 1501, "pitch": 72, "duration": 7, "velocity": 96}, {"time": 1507, "pitch": 60, "duration": 6, "velocity": 84}, {"time": 1513, "pitch": 55, "duration": 19, "velocity": 86}, {"time": 1513, "pitch": 62, "duration": 5, "velocity": 93}, {"time": 1513, "pitch": 67, "duration": 9, "velocity": 104}, {"time": 1513, "pitch": 70, "duration": 9, "velocity": 87}, {"time": 1522, "pitch": 62, "duration": 10, "velocity": 90}, {"time": 1525, "pitch": 67, "duration": 7, "velocity": 102}, {"time": 1531, "pitch": 70, "duration": 7, "velocity": 103}, {"time": 1537, "pitch": 51, "duration": 19, "velocity": 97}, {"time": 1537, "pitch": 67, "duration": 9, "velocity": 91}, {"time": 1537, "pitch": 70, "duration": 1, "velocity": 103}, {"time": 1546, "pitch": 63, "duration": 5, "velocity": 95}, {"time": 1549, "pitch": 67, "duration": 7, "velocity": 102}, {"time": 1555, "pitch": 63, "duration": 2, "velocity": 86}, {"time": 1555, "pitch": 70, "duration": 3, "velocity": 69}, {"time": 1561, "pitch": 50, "duration": 19, "velocity": 89}, {"time": 1561, "pitch": 66, "duration": 7, "velocity": 86}, {"time": 1561, "pitch": 74, "duration": 5, "velocity": 96}, {"time": 1564, "pitch": 57, "duration": 16, "velocity": 88}, {"time": 1567, "pitch": 62, "duration": 7, "velocity": 104}, {"time": 1570, "pitch": 66, "duration": 3, "velocity": 97}, {"time": 1573, "pitch": 69, "duration": 4, "velocity": 116}, {"time": 1576, "pitch": 62, "duration": 8, "velocity": 113}, {"time": 1579, "pitch": 69, "duration": 5, "velocity": 102}, {"time": 1579, "pitch": 74, "duration": 5, "velocity": 107}, {"time": 1585, "pitch": 55, "duration": 19, "velocity": 100}, {"time": 1585, "pitch": 67, "duration": 9, "velocity": 98}, {"time": 1585, "pitch": 70, "duration": 9, "velocity": 113}, {"time": 1585, "pitch": 74, "duration": 9, "velocity": 90}, {"time": 1594, "pitch": 62, "duration": 5, "velocity": 88}, {"time": 1597, "pitch": 67, "duration": 10, "velocity": 104}, {"time": 1597, "pitch": 74, "duration": 10, "velocity": 102}, {"time": 1603, "pitch": 70, "duration": 5, "velocity": 103}, {"time": 1609, "pitch": 50, "duration": 18, "velocity": 86}, {"time": 1609, "pitch": 65, "duration": 13, "velocity": 98}, {"time": 1609, "pitch": 69, "duration": 14, "velocity": 102}, {"time": 1609, "pitch": 74, "duration": 13, "velocity": 89}, {"time": 1615, "pitch": 57, "duration": 11, "velocity": 77}, {"time": 1621, "pitch": 62, "duration": 6, "velocity": 110}, {"time": 1624, "pitch": 65, "duration": 4, "velocity": 91}, {"time": 1627, "pitch": 69, "duration": 4, "velocity": 110}, {"time": 1630, "pitch": 74, "duration": 6, "velocity": 104}, {"time": 1633, "pitch": 51, "duration": 11, "velocity": 103}, {"time": 1633, "pitch": 70, "duration": 12, "velocity": 100}, {"time": 1645, "pitch": 53, "duration": 7, "velocity": 87}, {"time": 1645, "pitch": 65, "duration": 7, "velocity": 91}, {"time": 1645, "pitch": 69, "duration": 6, "velocity": 102}, {"time": 1645, "pitch": 72, "duration": 8, "velocity": 102}, {"time": 1657, "pitch": 46, "duration": 18, "velocity": 86}, {"time": 1657, "pitch": 62, "duration": 9, "velocity": 87}, {"time": 1657, "pitch": 65, "duration": 10, "velocity": 92}, {"time": 1657, "pitch": 70, "duration": 10, "velocity": 88}, {"time": 1666, "pitch": 58, "duration": 4, "velocity": 103}, {"time": 1669, "pitch": 62, "duration": 6, "velocity": 110}, {"time": 1669, "pitch": 70, "duration": 7, "velocity": 88}, {"time": 1672, "pitch": 58, "duration": 4, "velocity": 103}, {"time": 1675, "pitch": 65, "duration": 2, "velocity": 88}, {"time": 1681, "pitch": 48, "duration": 22, "velocity": 90}, {"time": 1681, "pitch": 63, "duration": 9, "velocity": 95}, {"time": 1681, "pitch": 72, "duration": 8, "velocity": 96}, {"time": 1690, "pitch": 60, "duration": 5, "velocity": 85}, {"time": 1693, "pitch": 63, "duration": 6, "velocity": 93}, {"time": 1693, "pitch": 72, "duration": 7, "velocity": 92}, {"time": 1699, "pitch": 60, "duration": 4, "velocity": 82}, {"time": 1705, "pitch": 55, "duration": 14, "velocity": 86}, {"time": 1705, "pitch": 62, "duration": 9, "velocity": 89}, {"time": 1705, "pitch": 67, "duration": 10, "velocity": 98}, {"time": 1705, "pitch": 70, "duration": 9, "velocity": 87}, {"time": 1717, "pitch": 62, "duration": 7, "velocity": 94}, {"time": 1717, "pitch": 67, "duration": 8, "velocity": 107}, {"time": 1717, "pitch": 70, "duration": 8, "velocity": 90}, {"time": 1723, "pitch": 55, "duration": 4, "velocity": 83}, {"time": 1729, "pitch": 51, "duration": 24, "velocity": 85}, {"time": 1729, "pitch": 63, "duration": 9, "velocity": 88}, {"time": 1729, "pitch": 67, "duration": 10, "velocity": 92}, {"time": 1729, "pitch": 70, "duration": 7, "velocity": 86}, {"time": 1741, "pitch": 63, "duration": 6, "velocity": 89}, {"time": 1741, "pitch": 67, "duration": 6, "velocity": 94}, {"time": 1741, "pitch": 70, "duration": 6, "velocity": 86}, {"time": 1753, "pitch": 50, "duration": 21, "velocity": 86}, {"time": 1753, "pitch": 62, "duration": 4, "velocity": 84}, {"time": 1753, "pitch": 66, "duration": 6, "velocity": 86}, {"time": 1753, "pitch": 69, "duration": 6, "velocity": 86}, {"time": 1759, "pitch": 57, "duration": 16, "velocity": 80}, {"time": 1762, "pitch": 62, "duration": 13, "velocity": 88}, {"time": 1765, "pitch": 66, "duration": 6, "velocity": 85}, {"time": 1768, "pitch": 69, "duration": 6, "velocity": 75}, {"time": 1771, "pitch": 74, "duration": 4, "velocity": 88}, {"time": 1777, "pitch": 55, "duration": 37, "velocity": 83}, {"time": 1777, "pitch": 67, "duration": 37, "velocity": 83}, {"time": 1777, "pitch": 70, "duration": 37, "velocity": 78}, {"time": 1777, "pitch": 74, "duration": 37, "velocity": 83}, {"time": 1825, "pitch": 55, "duration": 19, "velocity": 87}, {"time": 1825, "pitch": 67, "duration": 8, "velocity": 88}, {"time": 1825, "pitch": 74, "duration": 6, "velocity": 89}, {"time": 1831, "pitch": 62, "duration": 8, "velocity": 78}, {"time": 1837, "pitch": 67, "duration": 7, "velocity": 89}, {"time": 1837, "pitch": 70, "duration": 11, "velocity": 91}, {"time": 1837, "pitch": 74, "duration": 9, "velocity": 88}, {"time": 1843, "pitch": 62, "duration": 24, "velocity": 80}, {"time": 1849, "pitch": 70, "duration": 2, "velocity": 64}, {"time": 1855, "pitch": 55, "duration": 9, "velocity": 88}, {"time": 1855, "pitch": 67, "duration": 4, "velocity": 87}, {"time": 1855, "pitch": 74, "duration": 2, "velocity": 80}, {"time": 1861, "pitch": 69, "duration": 6, "velocity": 110}, {"time": 1867, "pitch": 70, "duration": 5, "velocity": 87}, {"time": 1873, "pitch": 50, "duration": 33, "velocity": 85}, {"time": 1879, "pitch": 57, "duration": 31, "velocity": 83}, {"time": 1885, "pitch": 62, "duration": 19, "velocity": 82}, {"time": 1891, "pitch": 74, "duration": 8, "velocity": 107}, {"time": 1897, "pitch": 69, "duration": 6, "velocity": 88}, {"time": 1903, "pitch": 65, "duration": 12, "velocity": 89}, {"time": 1909, "pitch": 50, "duration": 7, "velocity": 87}, {"time": 1915, "pitch": 62, "duration": 7, "velocity": 85}, {"time": 1921, "pitch": 51, "duration": 18, "velocity": 85}, {"time": 1927, "pitch": 63, "duration": 13, "velocity": 82}, {"time": 1933, "pitch": 67, "duration": 7, "velocity": 88}, {"time": 1939, "pitch": 70, "duration": 6, "velocity": 95}, {"time": 1945, "pitch": 53, "duration": 19, "velocity": 87}, {"time": 1945, "pitch": 65, "duration": 10, "velocity": 84}, {"time": 1945, "pitch": 69, "duration": 11, "velocity": 83}, {"time": 1945, "pitch": 72, "duration": 9, "velocity": 86}, {"time": 1957, "pitch": 69, "duration": 6, "velocity": 89}, {"time": 1963, "pitch": 65, "duration": 4, "velocity": 86}, {"time": 1969, "pitch": 55, "duration": 45, "velocity": 87}, {"time": 1969, "pitch": 67, "duration": 6, "velocity": 85}, {"time": 1969, "pitch": 70, "duration": 7, "velocity": 81}, {"time": 1975, "pitch": 62, "duration": 20, "velocity": 80}, {"time": 1981, "pitch": 69, "duration": 5, "velocity": 104}, {"time": 1987, "pitch": 70, "duration": 7, "velocity": 93}, {"time": 1993, "pitch": 67, "duration": 10, "velocity": 86}, {"time": 2002, "pitch": 62, "duration": 12, "velocity": 88}, {"time": 2005, "pitch": 74, "duration": 4, "velocity": 107}, {"time": 2008, "pitch": 72, "duration": 3, "velocity": 98}, {"time": 2011, "pitch": 69, "duration": 6, "velocity": 89}, {"time": 2017, "pitch": 51, "duration": 19, "velocity": 91}, {"time": 2023, "pitch": 63, "duration": 7, "velocity": 79}, {"time": 2029, "pitch": 67, "duration": 11, "velocity": 90}, {"time": 2029, "pitch": 70, "duration": 10, "velocity": 103}, {"time": 2035, "pitch": 63, "duration": 4, "velocity": 85}, {"time": 2041, "pitch": 53, "duration": 20, "velocity": 85}, {"time": 2041, "pitch": 65, "duration": 9, "velocity": 88}, {"time": 2041, "pitch": 69, "duration": 9, "velocity": 93}, {"time": 2041, "pitch": 72, "duration": 5, "velocity": 87}, {"time": 2053, "pitch": 65, "duration": 7, "velocity": 87}, {"time": 2053, "pitch": 69, "duration": 7, "velocity": 89}, {"time": 2053, "pitch": 72, "duration": 7, "velocity": 83}, {"time": 2065, "pitch": 50, "duration": 19, "velocity": 87}, {"time": 2065, "pitch": 62, "duration": 7, "velocity": 79}, {"time": 2065, "pitch": 65, "duration": 8, "velocity": 86}, {"time": 2065, "pitch": 69, "duration": 7, "velocity": 84}, {"time": 2071, "pitch": 57, "duration": 6, "velocity": 73}, {"time": 2077, "pitch": 62, "duration": 10, "velocity": 88}, {"time": 2077, "pitch": 65, "duration": 8, "velocity": 92}, {"time": 2077, "pitch": 69, "duration": 7, "velocity": 88}, {"time": 2083, "pitch": 57, "duration": 6, "velocity": 86}, {"time": 2089, "pitch": 55, "duration": 17, "velocity": 83}, {"time": 2089, "pitch": 62, "duration": 9, "velocity": 88}, {"time": 2089, "pitch": 67, "duration": 10, "velocity": 88}, {"time": 2089, "pitch": 70, "duration": 9, "velocity": 85}, {"time": 2101, "pitch": 62, "duration": 8, "velocity": 94}, {"time": 2101, "pitch": 67, "duration": 9, "velocity": 91}, {"time": 2101, "pitch": 70, "duration": 9, "velocity": 86}, {"time": 2113, "pitch": 51, "duration": 15, "velocity": 84}, {"time": 2113, "pitch": 63, "duration": 15, "velocity": 88}, {"time": 2113, "pitch": 70, "duration": 6, "velocity": 85}, {"time": 2125, "pitch": 67, "duration": 11, "velocity": 93}, {"time": 2125, "pitch": 70, "duration": 10, "velocity": 103}, {"time": 2131, "pitch": 51, "duration": 6, "velocity": 85}, {"time": 2137, "pitch": 53, "duration": 21, "velocity": 87}, {"time": 2137, "pitch": 65, "duration": 9, "velocity": 89}, {"time": 2137, "pitch": 69, "duration": 9, "velocity": 91}, {"time": 2137, "pitch": 72, "duration": 9, "velocity": 88}, {"time": 2149, "pitch": 65, "duration": 7, "velocity": 86}, {"time": 2149, "pitch": 69, "duration": 7, "velocity": 87}, {"time": 2149, "pitch": 72, "duration": 7, "velocity": 84}, {"time": 2161, "pitch": 50, "duration": 43, "velocity": 93}, {"time": 2161, "pitch": 62, "duration": 5, "velocity": 90}, {"time": 2161, "pitch": 66, "duration": 6, "velocity": 93}, {"time": 2161, "pitch": 69, "duration": 6, "velocity": 90}, {"time": 2167, "pitch": 57, "duration": 37, "velocity": 79}, {"time": 2170, "pitch": 62, "duration": 6, "velocity": 89}, {"time": 2173, "pitch": 66, "duration": 13, "velocity": 93}, {"time": 2173, "pitch": 74, "duration": 8, "velocity": 108}, {"time": 2179, "pitch": 62, "duration": 4, "velocity": 84}, {"time": 2185, "pitch": 62, "duration": 20, "velocity": 88}, {"time": 2185, "pitch": 69, "duration": 3, "velocity": 108}, {"time": 2185, "pitch": 74, "duration": 3, "velocity": 102}, {"time": 2194, "pitch": 74, "duration": 9, "velocity": 79}, {"time": 2194, "pitch": 78, "duration": 8, "velocity": 84}, {"time": 2194, "pitch": 81, "duration": 7, "velocity": 85}, {"time": 2197, "pitch": 86, "duration": 5, "velocity": 113}, {"time": 2209, "pitch": 55, "duration": 20, "velocity": 91}, {"time": 2209, "pitch": 67, "duration": 6, "velocity": 102}, {"time": 2209, "pitch": 70, "duration": 7, "velocity": 95}, {"time": 2215, "pitch": 62, "duration": 7, "velocity": 88}, {"time": 2218, "pitch": 67, "duration": 2, "velocity": 83}, {"time": 2221, "pitch": 67, "duration": 7, "velocity": 93}, {"time": 2221, "pitch": 74, "duration": 21, "velocity": 102}, {"time": 2227, "pitch": 62, "duration": 1, "velocity": 88}, {"time": 2227, "pitch": 70, "duration": 6, "velocity": 90}, {"time": 2233, "pitch": 50, "duration": 18, "velocity": 88}, {"time": 2233, "pitch": 65, "duration": 9, "velocity": 91}, {"time": 2233, "pitch": 69, "duration": 9, "velocity": 98}, {"time": 2239, "pitch": 57, "duration": 12, "velocity": 79}, {"time": 2242, "pitch": 62, "duration": 9, "velocity": 94}, {"time": 2245, "pitch": 65, "duration": 11, "velocity": 104}, {"time": 2245, "pitch": 74, "duration": 12, "velocity": 89}, {"time": 2251, "pitch": 69, "duration": 9, "velocity": 104}, {"time": 2257, "pitch": 51, "duration": 9, "velocity": 100}, {"time": 2260, "pitch": 63, "duration": 6, "velocity": 86}, {"time": 2263, "pitch": 67, "duration": 7, "velocity": 91}, {"time": 2266, "pitch": 70, "duration": 7, "velocity": 109}, {"time": 2269, "pitch": 53, "duration": 8, "velocity": 98}, {"time": 2272, "pitch": 60, "duration": 5, "velocity": 87}, {"time": 2275, "pitch": 65, "duration": 7, "velocity": 94}, {"time": 2278, "pitch": 69, "duration": 4, "velocity": 102}, {"time": 2281, "pitch": 46, "duration": 18, "velocity": 100}, {"time": 2287, "pitch": 58, "duration": 8, "velocity": 89}, {"time": 2293, "pitch": 62, "duration": 11, "velocity": 98}, {"time": 2293, "pitch": 65, "duration": 12, "velocity": 110}, {"time": 2293, "pitch": 70, "duration": 12, "velocity": 97}, {"time": 2299, "pitch": 58, "duration": 3, "velocity": 91}, {"time": 2305, "pitch": 48, "duration": 18, "velocity": 98}, {"time": 2311, "pitch": 55, "duration": 13, "velocity": 77}, {"time": 2314, "pitch": 60, "duration": 5, "velocity": 88}, {"time": 2317, "pitch": 63, "duration": 8, "velocity": 103}, {"time": 2317, "pitch": 72, "duration": 11, "velocity": 91}, {"time": 2323, "pitch": 60, "duration": 6, "velocity": 87}, {"time": 2329, "pitch": 55, "duration": 20, "velocity": 90}, {"time": 2329, "pitch": 67, "duration": 9, "velocity": 89}, {"time": 2329, "pitch": 70, "duration": 9, "velocity": 90}, {"time": 2329, "pitch": 74, "duration": 9, "velocity": 94}, {"time": 2338, "pitch": 62, "duration": 5, "velocity": 88}, {"time": 2341, "pitch": 67, "duration": 14, "velocity": 98}, {"time": 2341, "pitch": 74, "duration": 13, "velocity": 98}, {"time": 2347, "pitch": 62, "duration": 1, "velocity": 90}, {"time": 2353, "pitch": 51, "duration": 20, "velocity": 106}, {"time": 2359, "pitch": 63, "duration": 8, "velocity": 87}, {"time": 2362, "pitch": 67, "duration": 2, "velocity": 87}, {"time": 2365, "pitch": 67, "duration": 7, "velocity": 89}, {"time": 2365, "pitch": 70, "duration": 12, "velocity": 109}, {"time": 2365, "pitch": 74, "duration": 12, "velocity": 107}, {"time": 2371, "pitch": 63, "duration": 2, "velocity": 100}, {"time": 2377, "pitch": 50, "duration": 19, "velocity": 108}, {"time": 2380, "pitch": 57, "duration": 16, "velocity": 88}, {"time": 2383, "pitch": 66, "duration": 4, "velocity": 109}, {"time": 2386, "pitch": 69, "duration": 6, "velocity": 114}, {"time": 2389, "pitch": 62, "duration": 7, "velocity": 116}, {"time": 2392, "pitch": 66, "duration": 3, "velocity": 113}, {"time": 2395, "pitch": 69, "duration": 5, "velocity": 110}, {"time": 2398, "pitch": 74, "duration": 12, "velocity": 104}, {"time": 2401, "pitch": 55, "duration": 16, "velocity": 92}, {"time": 2401, "pitch": 67, "duration": 10, "velocity": 96}, {"time": 2401, "pitch": 70, "duration": 10, "velocity": 109}, {"time": 2410, "pitch": 62, "duration": 6, "velocity": 90}, {"time": 2413, "pitch": 67, "duration": 7, "velocity": 98}, {"time": 2413, "pitch": 70, "duration": 11, "velocity": 119}, {"time": 2413, "pitch": 74, "duration": 10, "velocity": 100}, {"time": 2419, "pitch": 55, "duration": 2, "velocity": 102}, {"time": 2425, "pitch": 50, "duration": 17, "velocity": 88}, {"time": 2425, "pitch": 65, "duration": 8, "velocity": 96}, {"time": 2425, "pitch": 69, "duration": 8, "velocity": 108}, {"time": 2425, "pitch": 74, "duration": 7, "velocity": 88}, {"time": 2431, "pitch": 57, "duration": 12, "velocity": 79}, {"time": 2434, "pitch": 62, "duration": 8, "velocity": 93}, {"time": 2437, "pitch": 65, "duration": 7, "velocity": 104}, {"time": 2437, "pitch": 69, "duration": 7, "velocity": 107}, {"time": 2449, "pitch": 51, "duration": 11, "velocity": 100}, {"time": 2449, "pitch": 67, "duration": 11, "velocity": 100}, {"time": 2449, "pitch": 70, "duration": 10, "velocity": 106}, {"time": 2461, "pitch": 53, "duration": 6, "velocity": 86}, {"time": 2461, "pitch": 65, "duration": 7, "velocity": 96}, {"time": 2461, "pitch": 69, "duration": 7, "velocity": 110}, {"time": 2461, "pitch": 72, "duration": 7, "velocity": 100}, {"time": 2473, "pitch": 46, "duration": 19, "velocity": 97}, {"time": 2473, "pitch": 62, "duration": 9, "velocity": 102}, {"time": 2473, "pitch": 65, "duration": 9, "velocity": 110}, {"time": 2473, "pitch": 70, "duration": 9, "velocity": 97}, {"time": 2482, "pitch": 58, "duration": 5, "velocity": 93}, {"time": 2485, "pitch": 62, "duration": 5, "velocity": 117}, {"time": 2485, "pitch": 70, "duration": 7, "velocity": 109}, {"time": 2488, "pitch": 58, "duration": 4, "velocity": 109}, {"time": 2491, "pitch": 65, "duration": 3, "velocity": 114}, {"time": 2494, "pitch": 67, "duration": 3, "velocity": 87}, {"time": 2497, "pitch": 48, "duration": 18, "velocity": 96}, {"time": 2497, "pitch": 63, "duration": 9, "velocity": 106}, {"time": 2497, "pitch": 67, "duration": 9, "velocity": 89}, {"time": 2497, "pitch": 72, "duration": 8, "velocity": 92}, {"time": 2506, "pitch": 60, "duration": 5, "velocity": 84}, {"time": 2509, "pitch": 63, "duration": 5, "velocity": 103}, {"time": 2509, "pitch": 67, "duration": 6, "velocity": 113}, {"time": 2509, "pitch": 72, "duration": 6, "velocity": 107}, {"time": 2515, "pitch": 60, "duration": 5, "velocity": 87}, {"time": 2521, "pitch": 55, "duration": 16, "velocity": 92}, {"time": 2521, "pitch": 62, "duration": 4, "velocity": 107}, {"time": 2521, "pitch": 67, "duration": 9, "velocity": 100}, {"time": 2521, "pitch": 70, "duration": 9, "velocity": 91}, {"time": 2530, "pitch": 62, "duration": 6, "velocity": 90}, {"time": 2533, "pitch": 67, "duration": 12, "velocity": 116}, {"time": 2533, "pitch": 70, "duration": 12, "velocity": 113}, {"time": 2539, "pitch": 62, "duration": 2, "velocity": 89}, {"time": 2545, "pitch": 51, "duration": 18, "velocity": 100}, {"time": 2545, "pitch": 67, "duration": 1, "velocity": 91}, {"time": 2545, "pitch": 70, "duration": 7, "velocity": 106}, {"time": 2551, "pitch": 63, "duration": 6, "velocity": 83}, {"time": 2557, "pitch": 67, "duration": 7, "velocity": 100}, {"time": 2557, "pitch": 70, "duration": 10, "velocity": 116}, {"time": 2563, "pitch": 63, "duration": 5, "velocity": 86}, {"time": 2569, "pitch": 50, "duration": 20, "velocity": 89}, {"time": 2569, "pitch": 62, "duration": 7, "velocity": 88}, {"time": 2569, "pitch": 66, "duration": 7, "velocity": 91}, {"time": 2569, "pitch": 69, "duration": 7, "velocity": 88}, {"time": 2575, "pitch": 57, "duration": 7, "velocity": 77}, {"time": 2581, "pitch": 62, "duration": 9, "velocity": 92}, {"time": 2581, "pitch": 66, "duration": 11, "velocity": 95}, {"time": 2581, "pitch": 69, "duration": 7, "velocity": 90}, {"time": 2587, "pitch": 57, "duration": 2, "velocity": 87}, {"time": 2593, "pitch": 43, "duration": 43, "velocity": 90}, {"time": 2593, "pitch": 62, "duration": 6, "velocity": 89}, {"time": 2593, "pitch": 67, "duration": 5, "velocity": 87}, {"time": 2593, "pitch": 70, "duration": 5, "velocity": 85}, {"time": 2599, "pitch": 55, "duration": 7, "velocity": 76}, {"time": 2605, "pitch": 62, "duration": 6, "velocity": 94}, {"time": 2605, "pitch": 67, "duration": 5, "velocity": 92}, {"time": 2611, "pitch": 55, "duration": 10, "velocity": 83}, {"time": 2617, "pitch": 58, "duration": 8, "velocity": 89}, {"time": 2617, "pitch": 62, "duration": 8, "velocity": 96}, {"time": 2617, "pitch": 67, "duration": 8, "velocity": 102}, {"time": 2626, "pitch": 55, "duration": 6, "velocity": 88}, {"time": 2629, "pitch": 58, "duration": 9, "velocity": 100}, {"time": 2629, "pitch": 67, "duration": 9, "velocity": 108}, {"time": 2635, "pitch": 62, "duration": 4, "velocity": 85}, {"time": 2641, "pitch": 55, "duration": 18, "velocity": 87}, {"time": 2641, "pitch": 70, "duration": 12, "velocity": 84}, {"time": 2647, "pitch": 62, "duration": 11, "velocity": 66}, {"time": 2653, "pitch": 67, "duration": 7, "velocity": 84}, {"time": 2659, "pitch": 70, "duration": 6, "velocity": 81}, {"time": 2665, "pitch": 50, "duration": 17, "velocity": 76}, {"time": 2665, "pitch": 65, "duration": 20, "velocity": 80}, {"time": 2665, "pitch": 74, "duration": 23, "velocity": 87}, {"time": 2689, "pitch": 51, "duration": 11, "velocity": 78}, {"time": 2689, "pitch": 67, "duration": 8, "velocity": 82}, {"time": 2689, "pitch": 70, "duration": 12, "velocity": 82}, {"time": 2701, "pitch": 53, "duration": 5, "velocity": 67}, {"time": 2701, "pitch": 65, "duration": 12, "velocity": 82}, {"time": 2701, "pitch": 72, "duration": 7, "velocity": 85}, {"time": 2713, "pitch": 46, "duration": 18, "velocity": 83}, {"time": 2713, "pitch": 62, "duration": 9, "velocity": 84}, {"time": 2713, "pitch": 70, "duration": 11, "velocity": 86}, {"time": 2722, "pitch": 58, "duration": 9, "velocity": 85}, {"time": 2725, "pitch": 62, "duration": 4, "velocity": 84}, {"time": 2728, "pitch": 65, "duration": 3, "velocity": 88}, {"time": 2731, "pitch": 70, "duration": 5, "velocity": 85}, {"time": 2737, "pitch": 48, "duration": 19, "velocity": 79}, {"time": 2737, "pitch": 63, "duration": 19, "velocity": 84}, {"time": 2737, "pitch": 72, "duration": 19, "velocity": 86}, {"time": 2761, "pitch": 55, "duration": 21, "velocity": 86}, {"time": 2761, "pitch": 62, "duration": 10, "velocity": 86}, {"time": 2761, "pitch": 67, "duration": 9, "velocity": 88}, {"time": 2761, "pitch": 70, "duration": 8, "velocity": 84}, {"time": 2773, "pitch": 62, "duration": 6, "velocity": 91}, {"time": 2773, "pitch": 70, "duration": 8, "velocity": 86}, {"time": 2785, "pitch": 51, "duration": 18, "velocity": 83}, {"time": 2785, "pitch": 63, "duration": 10, "velocity": 85}, {"time": 2785, "pitch": 67, "duration": 9, "velocity": 91}, {"time": 2785, "pitch": 70, "duration": 9, "velocity": 83}, {"time": 2797, "pitch": 63, "duration": 4, "velocity": 84}, {"time": 2797, "pitch": 67, "duration": 5, "velocity": 89}, {"time": 2797, "pitch": 70, "duration": 4, "velocity": 78}, {"time": 2809, "pitch": 50, "duration": 4, "velocity": 94}, {"time": 2809, "pitch": 62, "duration": 4, "velocity": 91}, {"time": 2809, "pitch": 66, "duration": 4, "velocity": 103}, {"time": 2809, "pitch": 69, "duration": 4, "velocity": 93}, {"time": 2815, "pitch": 50, "duration": 4, "velocity": 96}, {"time": 2815, "pitch": 62, "duration": 5, "velocity": 90}, {"time": 2815, "pitch": 66, "duration": 5, "velocity": 100}, {"time": 2815, "pitch": 69, "duration": 4, "velocity": 100}, {"time": 2821, "pitch": 50, "duration": 6, "velocity": 102}, {"time": 2821, "pitch": 62, "duration": 4, "velocity": 96}, {"time": 2821, "pitch": 66, "duration": 5, "velocity": 103}, {"time": 2821, "pitch": 69, "duration": 4, "velocity": 96}, {"time": 2827, "pitch": 62, "duration": 1, "velocity": 89}, {"time": 2827, "pitch": 66, "duration": 2, "velocity": 91}, {"time": 2827, "pitch": 69, "duration": 2, "velocity": 89}, {"time": 2833, "pitch": 43, "duration": 18, "velocity": 102}, {"time": 2833, "pitch": 62, "duration": 7, "velocity": 108}, {"time": 2833, "pitch": 67, "duration": 10, "velocity": 110}, {"time": 2833, "pitch": 70, "duration": 9, "velocity": 109}, {"time": 2842, "pitch": 55, "duration": 5, "velocity": 104}, {"time": 2845, "pitch": 62, "duration": 9, "velocity": 114}, {"time": 2845, "pitch": 67, "duration": 10, "velocity": 108}, {"time": 2845, "pitch": 70, "duration": 6, "velocity": 100}, {"time": 2851, "pitch": 55, "duration": 5, "velocity": 98}, {"time": 2857, "pitch": 50, "duration": 20, "velocity": 98}, {"time": 2857, "pitch": 62, "duration": 3, "velocity": 100}, {"time": 2857, "pitch": 65, "duration": 4, "velocity": 113}, {"time": 2857, "pitch": 69, "duration": 5, "velocity": 102}, {"time": 2860, "pitch": 57, "duration": 17, "velocity": 86}, {"time": 2863, "pitch": 62, "duration": 7, "velocity": 110}, {"time": 2866, "pitch": 65, "duration": 7, "velocity": 110}, {"time": 2866, "pitch": 74, "duration": 7, "velocity": 96}, {"time": 2869, "pitch": 69, "duration": 5, "velocity": 110}, {"time": 2872, "pitch": 62, "duration": 5, "velocity": 113}, {"time": 2875, "pitch": 65, "duration": 7, "velocity": 104}, {"time": 2875, "pitch": 74, "duration": 9, "velocity": 88}, {"time": 2878, "pitch": 69, "duration": 4, "velocity": 87}, {"time": 2881, "pitch": 51, "duration": 9, "velocity": 106}, {"time": 2884, "pitch": 63, "duration": 5, "velocity": 88}, {"time": 2887, "pitch": 67, "duration": 6, "velocity": 96}, {"time": 2890, "pitch": 70, "duration": 6, "velocity": 116}, {"time": 2893, "pitch": 53, "duration": 7, "velocity": 104}, {"time": 2896, "pitch": 60, "duration": 3, "velocity": 87}, {"time": 2899, "pitch": 65, "duration": 4, "velocity": 110}, {"time": 2902, "pitch": 69, "duration": 4, "velocity": 108}, {"time": 2905, "pitch": 46, "duration": 19, "velocity": 106}, {"time": 2908, "pitch": 58, "duration": 10, "velocity": 89}, {"time": 2911, "pitch": 62, "duration": 2, "velocity": 100}, {"time": 2917, "pitch": 62, "duration": 5, "velocity": 114}, {"time": 2917, "pitch": 70, "duration": 5, "velocity": 116}, {"time": 2920, "pitch": 58, "duration": 5, "velocity": 113}, {"time": 2923, "pitch": 62, "duration": 1, "velocity": 84}, {"time": 2923, "pitch": 65, "duration": 1, "velocity": 113}, {"time": 2923, "pitch": 70, "duration": 1, "velocity": 72}, {"time": 2929, "pitch": 48, "duration": 18, "velocity": 96}, {"time": 2929, "pitch": 63, "duration": 9, "velocity": 106}, {"time": 2929, "pitch": 72, "duration": 8, "velocity": 110}, {"time": 2938, "pitch": 60, "duration": 4, "velocity": 96}, {"time": 2941, "pitch": 63, "duration": 6, "velocity": 116}, {"time": 2941, "pitch": 72, "duration": 6, "velocity": 94}, {"time": 2947, "pitch": 60, "duration": 5, "velocity": 98}, {"time": 2953, "pitch": 55, "duration": 20, "velocity": 94}, {"time": 2953, "pitch": 70, "duration": 3, "velocity": 91}, {"time": 2956, "pitch": 62, "duration": 8, "velocity": 87}, {"time": 2959, "pitch": 67, "duration": 3, "velocity": 88}, {"time": 2962, "pitch": 67, "duration": 13, "velocity": 90}, {"time": 2962, "pitch": 74, "duration": 10, "velocity": 114}, {"time": 2968, "pitch": 62, "duration": 4, "velocity": 89}, {"time": 2971, "pitch": 70, "duration": 3, "velocity": 109}, {"time": 2974, "pitch": 74, "duration": 8, "velocity": 102}, {"time": 2977, "pitch": 51, "duration": 21, "velocity": 106}, {"time": 2980, "pitch": 63, "duration": 10, "velocity": 91}, {"time": 2983, "pitch": 67, "duration": 13, "velocity": 83}, {"time": 2989, "pitch": 70, "duration": 10, "velocity": 109}, {"time": 2995, "pitch": 63, "duration": 2, "velocity": 86}, {"time": 3001, "pitch": 50, "duration": 19, "velocity": 98}, {"time": 3001, "pitch": 66, "duration": 9, "velocity": 109}, {"time": 3001, "pitch": 69, "duration": 9, "velocity": 104}, {"time": 3001, "pitch": 70, "duration": 2, "velocity": 86}, {"time": 3010, "pitch": 57, "duration": 5, "velocity": 81}, {"time": 3013, "pitch": 66, "duration": 9, "velocity": 109}, {"time": 3013, "pitch": 69, "duration": 11, "velocity": 110}, {"time": 3019, "pitch": 57, "duration": 3, "velocity": 86}, {"time": 3025, "pitch": 55, "duration": 48, "velocity": 88}, {"time": 3025, "pitch": 67, "duration": 5, "velocity": 91}, {"time": 3025, "pitch": 70, "duration": 6, "velocity": 87}, {"time": 3031, "pitch": 62, "duration": 42, "velocity": 82}, {"time": 3037, "pitch": 67, "duration": 16, "velocity": 85}, {"time": 3043, "pitch": 70, "duration": 13, "velocity": 86}, {"time": 3043, "pitch": 79, "duration": 15, "velocity": 87}, {"time": 3049, "pitch": 74, "duration": 12, "velocity": 88}, {"time": 3058, "pitch": 67, "duration": 14, "velocity": 86}, {"time": 3061, "pitch": 70, "duration": 11, "velocity": 97}, {"time": 3067, "pitch": 74, "duration": 5, "velocity": 85}, {"time": 3073, "pitch": 51, "duration": 19, "velocity": 87}, {"time": 3074, "pitch": 67, "duration": 19, "velocity": 90}, {"time": 3075, "pitch": 70, "duration": 18, "velocity": 90}, {"time": 3075, "pitch": 74, "duration": 18, "velocity": 90}, {"time": 3095, "pitch": 60, "duration": 23, "velocity": 90}, {"time": 3097, "pitch": 65, "duration": 22, "velocity": 95}, {"time": 3097, "pitch": 53, "duration": 22, "velocity": 95}, {"time": 3097, "pitch": 69, "duration": 22, "velocity": 102}, {"time": 3121, "pitch": 55, "duration": 22, "velocity": 80}, {"time": 3122, "pitch": 67, "duration": 95, "velocity": 85}, {"time": 3123, "pitch": 70, "duration": 23, "velocity": 89}, {"time": 3123, "pitch": 74, "duration": 16, "velocity": 89}, {"time": 3124, "pitch": 79, "duration": 22, "velocity": 91}, {"time": 3143, "pitch": 74, "duration": 3, "velocity": 97}, {"time": 3147, "pitch": 77, "duration": 4, "velocity": 70}, {"time": 3151, "pitch": 79, "duration": 4, "velocity": 69}, {"time": 3154, "pitch": 81, "duration": 3, "velocity": 72}, {"time": 3158, "pitch": 82, "duration": 3, "velocity": 76}, {"time": 3162, "pitch": 84, "duration": 4, "velocity": 78}, {"time": 3166, "pitch": 86, "duration": 4, "velocity": 81}, {"time": 3176, "pitch": 89, "duration": 10, "velocity": 83}, {"time": 3185, "pitch": 91, "duration": 24, "velocity": 95}]}]}